<?xml version="1.0" encoding="utf-8"?>
<!-- Generator: Adobe Illustrator 19.2.1, SVG Export Plug-In . SVG Version: 6.00 Build 0)  -->
<svg version="1.1" id="Layer_1" xmlns="http://www.w3.org/2000/svg" xmlns:xlink="http://www.w3.org/1999/xlink" x="0px" y="0px"
	 viewBox="0 0 154.7 72.1" style="enable-background:new 0 0 154.7 72.1;" xml:space="preserve">
<style type="text/css">
	.st0{fill:#333333;}
	.st1{font-family:'HelveticaNeue';}
	.st2{font-size:14px;}
	.st3{fill:#666666;}
	.st4{font-family:'HelveticaNeue-Thin';}
	.st5{font-size:8px;}
	.st6{fill:#FF0824;}
	.st7{fill:#2D98FF;}
	.st8{fill:#FF001C;}
	.st9{fill:none;stroke:#000000;stroke-width:0.25;stroke-miterlimit:10;}
</style>
<g>
	<text transform="matrix(1 0 0 1 3.585815e-04 46.3538)"><tspan x="0" y="0" class="st0 st1 st2">E Iyamu</tspan><tspan x="63.5" y="0" class="st1 st2"> </tspan></text>
	<text transform="matrix(1 0 0 1 66.734 46.6013)" class="st3 st4 st5">(Registered Pharmacist)</text>
	<text transform="matrix(1 0 0 1 2.441406e-04 69.5664)"><tspan x="0" y="0" class="st6 st4 st5">Red  Apple</tspan><tspan x="37.2" y="0" class="st4 st5"> </tspan><tspan x="39.4" y="0" class="st7 st4 st5">Interactive</tspan><tspan x="72.7" y="0" class="st4 st5"> </tspan><tspan x="74.9" y="0" class="st8 st4 st5">Pharmacy,</tspan><tspan x="110.3" y="0" class="st4 st5">  </tspan><tspan x="114.8" y="0" class="st3 st4 st5">Roswell GA.</tspan></text>
	<text transform="matrix(1 0 0 1 1.220703e-04 59.5376)" class="st3 st4 st5">Project Leader</text>
	<path class="st9" d="M33,6.8c-6.7-0.1-13.3,3.5-16.8,9.1c-0.7,1-1.2,2.3-0.7,3.4c0.4,1,1.6,1.5,2.6,1.8c3.7,1,7.9,0.3,11.1-1.8
		c-1.9,1.5-3.5,3.4-4.8,5.5c-0.6,1-1.1,2.1-0.9,3.2c0.5,2.2,3.6,2.7,5.5,1.7s3.4-2.9,5.3-4c1.6,2.6,5.6,3.1,8.1,1.4s3.4-5.3,2.5-8.2
		"/>
	<path class="st9" d="M47.2,4.9c0.7,6.6,3.3,13,7.3,18.2c1.1-3.1,1.6-6.3,1.5-9.5c1.1,0.2,1.4,1.6,1.6,2.7c0.2,1.1,1.5,2.3,2.3,1.5
		c0.3-0.3,0.3-0.7,0.4-1c0.3-1.8,0.6-3.7,0.9-5.5c3.3,6.9,5.1,14.5,5.2,22.2c0,1.4-0.7,3.3-2,2.9c-2.3-8.7,7-17.7,4.1-26.2
		c-2.4,1.9-3.4,5.3-2.4,8.2c2.7-1.1,4.3-4.2,3.8-7c1.1,2.2,2.3,4.5,3.4,6.7c0-1.9-0.1-3.9-0.1-5.8c0-0.6,0-1.2,0.3-1.6
		c0.9-1.2,2.9-0.2,3.5,1.2s0.5,3.1,1.4,4.3c-0.4-2.8-0.1-5.8,1-8.4c1.3,1.9,2.4,4,3.4,6.1c0.5-2.2,0.8-4.5,0.9-6.8
		c1.3,1.5,2.6,3.1,3.9,4.6c0.6-1.6,0.8-3.3,0.5-5c1.4,0.5,1.4,3,2.9,3.3c1.1,0.3,2-1.1,2.1-2.3c0.1-1.2-0.2-2.5,0.5-3.5
		c0.9,1.7,2.6,3.8,4.4,3.1c1.6-0.6,1.9-2.9,1-4.3c-0.9-1.4-2.6-2.2-4.1-2.8"/>
</g>
</svg>
