<?xml version="1.0" encoding="utf-8"?>
<!-- Generator: Adobe Illustrator 19.2.1, SVG Export Plug-In . SVG Version: 6.00 Build 0)  -->
<svg version="1.1" id="Layer_1" xmlns="http://www.w3.org/2000/svg" xmlns:xlink="http://www.w3.org/1999/xlink" x="0px" y="0px"
	 viewBox="0 0 200 225.3" style="enable-background:new 0 0 200 225.3;" xml:space="preserve">
<style type="text/css">
	.st0{fill:#00BCD4;}
</style>
<g id="anklesprain-girl2">
	<path class="st0" d="M111.8,63.1c-0.7-1.9-1.4-4.1-2.1-6.4c-0.2-0.6-0.2-1.2-0.2-1.8c0.1-6.3,0.2-12.7,0.3-19c0.1-3,1.1-5.8,2-8.6
		c1.7-5.4,4.2-10.2,7.2-14.9c4.1-6.6,9.9-10.8,17.6-12.1c6.9-1.1,13.3,0.4,19.4,3.6c6.4,3.4,9.6,9.1,11.3,15.8
		c1.3,4.9-0.2,9.6-1.7,14.3c-0.6,1.9-1,3.8-1.7,5.6c-0.5,1.4-1.1,2.7-1.7,4c3.6,1.2,4.5,3.6,2.5,7c-1.7,2.8-3,6-5.7,8.1
		c-1.1,0.8-2.3,1.5-3.6,2.3c3.6,3,6.7,6.8,11.2,8.5c3.9,1.4,6.5,4.3,8.9,7.3c2.4,3,4.4,6.3,6.6,9.4c2.4,3.3,3,7.2,3.5,11.1
		c0.5,3.3,0.9,6.7,1.2,10.1c0.5,5.7,1.8,11.3,1.7,17.2c-0.1,5.7,0.3,11.4,0.6,17.2c0.2,5.6,0.8,11.1,0.8,16.7c0,3.5-0.5,7-0.8,10.5
		c-0.1,1.3,0.1,2.2,1.5,2.7c6.4,2.6,9.2,7.5,9.5,14.3c0.3,6.4-2.9,10.7-7.7,14.2c-3.9,2.9-8.4,4.2-13,5.6
		c-5.3,1.6-10.7,3.2-15.9,5.3c-2.7,1.1-5.5,1.3-8.3,1.8c-4.3,0.7-8.6,1.2-12.8,1.8c-4.1,0.7-8.2,1.6-12.3,2.2
		c-3.8,0.5-7.7,0.9-11.6,1.2c-3.9,0.2-7.9,0.1-11.8,0.4c-2.4,0.2-4.8,0.6-7.1,1.1c-4.7,1.1-9.4,2.4-14.2,3.4
		c-2.5,0.5-5.1,0.8-7.7,0.9c-5.7,0.2-11.5,0.2-17.2,0.3c-0.7,0-1.3,0.2-2,0.2c-6.5,0.7-13,1.9-19.5,0.4c-3.5-0.8-7.2-1.4-9.6-4.6
		c-0.2-0.3-1.1-0.1-1.6,0.1c-4.6,1.4-9,3.4-13.7,4.3c-3.3,0.6-6.9,0.1-10.2-0.4c-3.4-0.6-4.6-4.3-2.8-7.4c1.4-2.6,3.7-4.3,6.2-5.9
		c5.4-3.6,10.8-7.2,16.1-11.1c1.8-1.3,3.1-3.3,4.8-4.9c2-1.9,4.1-3.6,6.2-5.3c2.5-2,4.4-4.6,6.1-7.3c2.5-4,4.9-8,7.2-12
		c0.5-0.9,0.7-1.9,1.2-2.8c2.3-4.2,4.7-8.3,7.1-12.4c0.5-0.8,0.5-1.4-0.3-1.9c-0.8-0.7-1.6-1.4-2.4-2.1c-3.4-2.5-5.7-5.6-6.8-9.8
		c-0.9-3.6-2-7.1-1.6-10.8c0.2-2.7,0.9-5.4,1.3-8c0.2-1.7,0.3-3.4,0.6-5.1c0.7-4.1,1.3-8.2,2.3-12.3c1.1-4.4,4.9-7.3,9.4-8.1
		c1.7-0.3,3.4-1.2,5-2c4.9-2.6,9.9-5.1,14.6-7.9c3.6-2.2,6.9-4.7,10.2-7.3c3.7-2.9,6.9-6.5,10.8-9.1
		C102.8,67.4,107.5,65.4,111.8,63.1z M71.6,127c-0.5-0.7-1.1-1.3-1.4-2c-0.1-0.3,0.2-0.9,0.3-1.3c0.4,0.2,0.8,0.2,1.1,0.5
		c0.6,0.4,1,1.1,1.6,1.4c0.3,0.2,1.1,0.2,1.2,0c0.8-1,1.5-0.6,2.4,0c3.1,2,6.3,3.8,9.4,5.8c2.3,1.5,4.8,2.9,6.8,4.7
		c4.9,4.6,10.5,8,16.3,11.2c1.8,1,3.9,1.6,5.6,2.6c3.4,2.1,6.7,4.2,10.5,5.2c1.3,0.4,2.5,0.2,3.4-0.6c1.7-1.4,3.2-3,4.7-4.5
		c2.1-2.2,4-4.6,6.4-6.5c8.5-7,16.2-14.5,21-24.6c1.6-3.5,3.3-6.9,5.5-10.1c2-3,4.6-5.6,6.9-8.4c0.8-0.9,1.5-1.8,2.4-2.6
		c0.3-0.2,0.9,0.1,1.4,0.1c-0.1,0.4,0,0.9-0.2,1.2c-1.9,2.4-3.9,4.8-5.8,7.3c0.5,0.2,1,0.3,1.5,0.4c3.5,1.3,7.1,0.9,10.6,0.3
		c1.1-0.2,1.3-0.8,1.2-1.8c-0.3-2.1-0.6-4.2-0.9-6.3c-0.5-4.6-1.7-8.9-4.5-12.7c-3-4.1-6.6-7.2-12-7.6c-4.6-0.3-7.8,2-10.6,5.2
		c-2,2.2-3.8,4.6-5.6,7c-1.5,2.1-3.7,4-3.2,7c0.1,0.9,0.3,1.8,0.6,2.6c0.3,1,0.2,1.8-0.5,2.6c-2,2.6-4.1,5.3-6,8
		c-2.4,3.3-4.7,6.7-6.9,10.1c-2.7,4.1-5.4,8.4-8,12.4c0.7,0.9,1.5,1.7,2.1,2.6c0.2,0.3,0.1,1.1-0.1,1.3c-0.3,0.2-1,0.2-1.3,0
		c-1.1-0.8-2-1.8-3.1-2.6c-1.6-1.1-3.3-2.3-5.1-2.9c-3.5-1.3-7.2-2-10.7-3.2c-6.4-2.1-12.6-5-18-9.2c-3.3-2.5-6.6-5-10.5-6.5
		c-0.9-0.3-1.8-0.6-2.8-0.7c-4.6-0.3-9.2-0.7-13.8,0.2c-2,0.4-2.6,1-1.8,2.9c1.3,3.1,2.8,6,4.2,9.1c0.6,1.2,1.1,2.4,1.7,3.7
		C69,128.1,70.3,127.6,71.6,127z M100.6,199.3c2.3,4.5,4.4,8.8,6.6,13.1c1.1,2.2,2.5,4,5.4,3.3c0.6-0.1,1.3,0,2,0
		c4.6-0.3,9.2-0.4,13.8-1c3.4-0.4,6.8-1.5,10.2-2c5.3-0.8,10.6-1.2,15.9-2.3c3.5-0.7,7.1-1.2,10.5-2.8c4.3-2,8.9-3.2,13.5-4.3
		c4.8-1.2,9.4-2.7,13.3-5.7c4.9-3.8,7.2-8.6,5.8-14.8c-1.1-4.8-3.7-8.1-8.6-9.4c-2.6-0.7-5.2-0.9-7.9-1.3c-0.8-0.1-1.8-0.3-2.4-0.7
		c-4.5-3.2-9.4-2.7-14.4-1.5c-5.3,1.3-9.6,4.1-13.9,7.4c-2.6,2-4,4.3-3.8,7.7c0.2,2.5,0,2.5-2.3,3.3c-3.1,1-6.2,2.1-9.3,2.9
		c-2,0.5-4.2,0.4-6,1.2c-5.6,2.3-11.5,4-17.4,5.2C107.9,198.3,104.3,198.7,100.6,199.3z M93.9,141.4c-0.1,0-0.2,0-0.3,0
		c-0.3,1.1-0.6,2.3-1.1,3.4c-1.2,2.6-2.6,5.2-3.9,7.8c-2.2,4.8-4.8,9.3-8.4,13.2c-5.7,6.2-11.2,12.5-16.1,19.4
		c-3.6,5-6.4,10.2-5.9,16.9c2.8-0.1,5.7-0.2,8.5-0.4c3-0.3,6-0.6,9-1.1c5.1-0.7,10.1-1.6,15.2-2.3c3.6-0.5,7.2-0.7,10.8-1.2
		c4.7-0.8,9.4-1.7,14-2.7c2.6-0.6,5.1-1.4,7.9-2.1c-2.4-2.7-4.6-5.1-6.7-7.6c-2.8-3.3-5.9-6.4-8.4-10c-2.2-3.1-3.7-6.6-5.4-10.1
		c-3.5-7.1-6.7-14.3-8.8-21.9C94.2,142.3,94.1,141.9,93.9,141.4z M66.1,134.5c0-0.5,0-0.8,0-1c-0.5-4.7-2.5-8.8-4.8-12.8
		c-1.3-2.2-1.8-4.4-1.6-6.9c0.1-1.3,0.5-2.1,2-2.2c1.1-0.1,1.8-0.6,1.8-1.8c0-1.7-0.1-3.4,0-5.1c0-0.6,0.6-1.2,0.9-1.8
		c0.3,0.6,0.8,1.1,0.9,1.7c0.2,1.7,0.3,3.5,0.4,5.4c2.7-1.1,5.3-2.1,7.8-3.3c3.4-1.7,6.6-3.7,9.9-5.4c2.5-1.3,5.2-2.4,7.7-3.8
		c5.5-3.2,10.8-6.5,16.3-9.8c-0.3-0.3-0.9-0.8-1.3-1.4c-0.2-0.3-0.2-0.9-0.1-1c0.3-0.2,0.8-0.4,1.2-0.3c0.4,0.1,0.7,0.5,1.1,0.8
		c2.3,1.5,4.6,3,7.1,4.6c0-1.6-0.1-2.7,0-3.9c0.5-4,1-8,1.5-12c0.1-0.9,0-1.9-0.3-2.8c-0.7-1.7-1.8-3.3-2.6-4.9
		c-0.5-1-1.3-1.3-2.2-0.8c-3.5,1.7-7.3,3.1-10.5,5.3c-4.1,2.8-7.6,6.4-11.5,9.4c-3.6,2.8-7.2,5.7-11.1,8c-4.7,2.9-9.7,5.4-14.7,8
		c-1.9,1-3.9,1.7-5.9,2.2c-3.4,0.8-6.2,2.4-7.1,5.9c-1,3.9-1.7,7.9-2.5,11.9c-0.3,1.8-0.3,3.7-0.6,5.6c-0.4,2.6-1,5.2-1.2,7.9
		c-0.4,4.4,1,8.5,2.3,12.5c0.3,0.9,0.7,1.9,1.1,2.8c0-1.4-0.4-2.7-0.7-4c-0.2-1.3-1.4-2.4-0.6-4.1c0.4,0.5,0.8,0.7,1,1.1
		c0.8,2.5,1.9,4.9,2.3,7.5c0.3,2.2,1.5,3.4,3.4,4.4c-1.1-3.4-2.1-6.7-3.1-9.9c-0.2-0.5,0-1.1,0-1.7c0.2,0,0.3,0,0.5-0.1
		c1.2,1,1.5,2.6,2,4c1.7,4.6,2.4,9.7,6.1,13.5c0.1,0.1,0.2,0.1,0.2,0.1c0.7-0.4,1.4-0.7,2.2-1.1c-1-2.6-1.9-5.3-2.9-7.9
		c-1-2.4-2.2-4.8-1.9-7.5c0.1-0.5,0.6-0.9,0.8-1.3c0.3,0.4,0.8,0.8,0.9,1.3c0.2,0.7,0,1.5,0.3,2.2c1.2,3.5,2.4,6.9,3.7,10.3
		c0.2,0.4,0.4,0.9,0.6,1.3c1.1-0.3,2.1-0.5,3.3-0.8c-1.5-6.7-3.1-13.4-4.6-20c-0.1-0.4,0.1-0.9,0.2-1.3c0.4,0.2,1,0.3,1.2,0.6
		C65.5,132.7,65.7,133.6,66.1,134.5z M155.4,48.4c-1.2,0.7-2.7,2-4.6,1.5c-1.2-0.3-2.4-0.9-3.6-1.4c-2-0.9-3.5-2.2-5-3.8
		c-2-2.1-4.4-4.3-7.1-5.3c-3.3-1.2-5.9-3.1-8.5-5.2c-0.6-0.5-1.1-1.6-1-2.3c0.2-2.1,0.5-4.3,1.3-6.3c1.5-3.7,3.4-7.2,5-10.8
		c0.2-0.5,0-1.2-0.1-1.7c-0.6,0.3-1.3,0.4-1.7,0.8c-0.6,0.7-0.9,1.6-1.3,2.4c-2.9,4.7-5.7,9.4-6,15.1c-0.1,0.9-0.6,1.6-1.7,1.6
		c-2.5-0.1-4.9-0.5-6.9-2.2c-1.5-1.3-2.2-1.2-2.6,0.8c-0.5,2.4-0.6,4.9-0.7,7.3c-0.2,5.2-0.2,10.4-0.2,15.7c0,1,0.1,2.1,0.6,2.9
		c1.7,3.7,3.6,7.3,5.4,10.9c0.1,0.2,0.4,0.4,0.7,0.7c1.3-1.1,2.6-1,4.1-0.3c0.5,0.2,1.1,0.5,1.7,0.6c2.1,0.3,4.2,0.6,6.3,0.9
		c0.3,1.4,0.3,1.4-1.1,1.6c-0.4,0-0.8,0.1-1.2,0.2c-2.4,0.3-4.8,1.4-7.2-0.1c-0.2-0.1-0.7,0-0.8,0.2c-0.1,0.2-0.2,0.7,0,1
		c0.1,0.4,0.5,0.6,0.7,1c1.1,3,3.3,4,6.6,3c7.4-2.3,14.2-6,20.4-10.7c1.5-1.2,3.2-2.5,3.4-4.6c0.2-2.3,0.3-4.6,0.4-6.9
		c0.1-0.8,0.1-1.6,0.3-2.4c0.1-0.4,0.6-0.7,0.9-1c0.2,0.4,0.6,0.8,0.7,1.3c0.1,0.5,0,1.1,0,1.6c4.1-0.1,5.2-1,5.4-4.3
		C157.2,49.6,156.4,49.1,155.4,48.4z M152.5,61.7c-0.6,1.3-0.9,2.4-1.6,3.1c-2.9,3-6.1,5.5-9.8,7.5c-3,1.6-6,3.3-8.9,4.9
		c0.7,2.9,0.8,5.7-0.2,8.5c-0.1,0.4-0.8,0.5-1.2,0.8c-0.2-0.5-0.4-0.9-0.5-1.4c0-0.3,0.3-0.6,0.3-1c0.3-2.1,0.5-4.3-0.1-6.4
		c-3.8,1.4-7.5,2.3-11-0.7c-0.1,0.3-0.2,0.5-0.2,0.6c-0.2,2.6-0.6,5.2-0.7,7.8c-0.1,1.3-0.1,2.8,0.5,4c1.2,2.7,2.5,5.5,4.2,7.9
		c3.6,5.2,8.3,8.6,15.1,8.1c4.9-0.3,7.6-3.6,7-8.2c-0.2-1.5,0.1-2.6,0.6-3.9c1.5-4,3.9-7.4,6.9-10.6c-3.4-0.2-6.8-0.2-10.2-0.2
		c-0.5,0-0.9-0.5-1.4-0.8c0.4-0.3,0.9-0.9,1.3-0.9c1.7-0.1,3.4,0,5.2,0.1c4.4,0.3,8.5-0.6,12.3-2.9c1.3-0.8,2.7-1.6,4.1-1.7
		c2.6-0.2,5.3,0,7.7,0.1c-1.2-1.9-3.2-3.3-5.6-4.4c-2.2-1-4.2-2.3-6.2-3.8c-1.9-1.4-3.5-3.1-5.3-4.6
		C154.1,62.8,153.3,62.3,152.5,61.7z M96.2,141.6c0.2,0.7,0.3,1.1,0.4,1.5c2.5,8.4,6.5,16.2,10.3,24.1c1.2,2.5,2.4,5.2,4.2,7.3
		c4.6,5.5,9.5,10.8,14.3,16.1c0.2,0.3,0.9,0.4,1.3,0.3c1.5-0.4,3-0.9,4.4-1.4c0.4-0.1,0.8-0.5,0.9-0.9c0.5-1.9,0.9-3.7,1.2-5.6
		c0.8-4.7,1.5-9.4,2.5-14.1c1-4.9,0.6-9.9,0.3-14.8c0-0.5-0.5-1.1-0.9-1.3c-0.3-0.1-0.9,0.2-1.3,0.5c-0.8,0.7-1.6,1.6-2.4,2.4
		c-2,1.9-4.4,2.7-7,1.6c-2.7-1.1-5.4-2.6-8-3.9c-1.2-0.6-2.3-1.5-3.5-2.1c-2.7-1.4-5.6-2.5-8.2-4C101.9,145.5,99.2,143.6,96.2,141.6
		z M55.8,201.9c0-5.4,1.2-10.2,4.2-14.5c2.7-3.7,5.4-7.4,8.2-11.1c2.2-2.8,4.6-5.5,6.9-8.2c2.6-3.2,5.6-6.2,7.7-9.7
		c3-4.8,5.3-10,7.8-15.1c0.8-1.5,1.2-3.3,1.9-5.1c-0.8-0.7-1.7-1.7-2.7-2.3c-3.5-2.2-7.2-4.3-10.7-6.6c-2.1-1.4-3.9-2.5-6.3-0.7
		c0,0-0.1,0-0.1,0.1c-0.6,0.6-1.4,1.1-1.9,1.8c-0.7,1.1-1,2.5-1.9,3.4c-0.7,0.7-0.5,1.3-0.5,2.1c0,2.3,1.4,4.7-0.4,6.8
		c-0.1,0.1-0.1,0.5,0,0.7c0.5,2.4,0.9,4.7,1.4,7.1c0.7,3.1,1.5,6.3-2.5,8c0.4,0.5,0.7,1,1,1.4c2.1,2.7,2.3,5.6,1.1,8.7
		c-1.6,4.3-4.9,6.9-9.3,8.2c-1.6,0.5-3.3,0.6-4.8,0.9c1.4,8,2.1,15.9-1.8,23.5C54,201.5,54.8,201.7,55.8,201.9z M125.5,132.2
		c1.4-2.2,2.6-4.1,3.7-5.9c0.1-0.2,0-0.6-0.1-0.8c-2.5-6.2-4.9-12.5-7.4-18.7c-1.6-3.9-3.1-7.9-4.8-11.8c-0.6-1.3-1.5-2.6-2.6-3.4
		c-1.5-1.1-3.2-2.7-5.2-1.9c-2.5,1-4.9,2.3-7.3,3.6c-3.8,2.1-7.4,4.5-11.2,6.6c-4.1,2.3-8.3,4.3-12.4,6.4c-2.5,1.3-4.9,2.8-7.4,4.1
		c2.9,0.2,5.9,0.4,8.5,0.6c1.1-1.4,2-2.8,3.1-4c2.7-2.8,6.1-3.8,9.8-4c2-0.1,4-0.2,5.9,0.3c3,0.8,5.5,2.7,7.5,5.1
		c2.6,3,5.1,6.2,7.6,9.2c1.7,2,3.6,4,5.3,6.1C120.8,126.4,123,129.1,125.5,132.2z M67.5,203.9c-2-0.2-3.4,0.3-4.9,1.3
		c-2.1,1.4-4.4,2.3-6.7,3.3c-3.1,1.4-5.2,3.4-5.6,7c-0.2,2.4,0.5,3.9,2.9,4.8c0.7,0.2,1.3,0.6,1.9,0.8c0.6,0.2,1.3,0.6,2,0.6
		c0.9,0.1,1.8-0.2,2.7-0.2c5-0.1,10-0.2,15.1-0.3c2.7-0.1,5.4-0.4,8-0.6c0.4,0,0.9-0.3,1.1-0.6c0.5-1.1,1-2.3,1.3-3.5
		c0.1-0.5,0-1.2-0.2-1.5c-2.8-3.7-5.7-7.4-8.7-11.1c-0.4-0.5-1.3-0.8-1.9-0.7C72.1,203.4,69.7,203.7,67.5,203.9z M51,201.1
		c0.4-0.8,0.8-1.4,1-2.1c0.7-2.4,1.7-4.9,1.9-7.4c0.3-3.3,0.2-6.7-0.3-10c-0.6-4.3-0.1-4.3-4.8-4.7c-3-0.2-4.4,0.9-5.5,3.5
		c-2.1,4.7-5.4,8.6-9.4,11.8c-2.5,1.9-4.8,4-6.9,6.3c-2.4,2.6-5,4.8-8,6.7c-0.2,0.1-0.3,0.3-0.9,0.8c4,0,7.6-0.1,11.1,0
		c1.2,0,1.9-0.5,2.7-1.2c1.9-1.9,4-3.5,6.8-4C42.7,199.9,46.8,200.3,51,201.1z M120.5,130.7c0.1-0.2,0.1-0.4,0.2-0.6
		c-0.6-0.8-1.3-1.7-1.9-2.5c-4.8-5.8-9.6-11.8-14.5-17.5c-2.4-2.8-5.2-5.4-9.5-5c-1.7,0.1-3.4,0.1-5.1,0.3c-3.2,0.3-7.3,3.7-7.9,6.2
		c3.4,2.2,6.7,4.2,9.9,6.5c5.1,3.6,10.5,6.5,16.4,8.4c3,1,5.9,2.2,8.9,3.2C118,130.2,119.3,130.4,120.5,130.7z M59.5,204.5
		c-4.1-0.6-8.1-1.3-12.1-1.8c-2.5-0.3-5.2-0.5-7.7-0.1c-4.4,0.9-7.2,4-9.4,7.7c-2.1,3.5-0.2,8.6,3.5,10.3c5.2,2.4,10.7,2.1,16.2,2.1
		c0.5,0,0.9-0.2,1.1-0.3c-0.9-1.2-2.1-2.2-2.6-3.4c-0.9-2.3-0.4-4.7,0.4-6.9c0.8-2.1,2.3-3.5,4.3-4.5
		C55.3,206.5,57.4,205.5,59.5,204.5z M28.8,208.5c-1.6-0.1-3.1-0.3-4.6-0.4c-3-0.1-5.9-0.1-8.9,0c-0.4,0-0.7,0.3-1.1,0.5
		c-2.4,1.4-4.8,2.8-7.1,4.3c-2.1,1.3-4.1,2.9-4.8,5.4c-0.5,1.8,0.2,3.3,1.9,3.4c3.4,0.3,6.9,0.9,10.1,0.2c4.6-1,8.9-3.1,13.3-4.6
		C26.9,213.2,26.9,212.2,28.8,208.5z M65.6,160.6c-1.9,1.4-3.4,1.3-5-0.3c-0.2-0.2-0.7-0.3-1-0.2c-4.4,1.8-8.6,3.7-9.7,9
		c-0.1,0.4,0.1,1,0.3,1.4c1,1.4,2.1,2.8,3.2,4.1c0.4,0.5,1,1,1.6,1c5,0.4,11.4-2.7,12.7-8.9C68.3,164.5,67.4,162,65.6,160.6z
		 M97.6,205.1c-1.7,3.1-3.2,5.9-4.8,8.6c-0.4,0.7-0.3,1.2,0.3,1.7c0.8,0.7,1.4,1.5,2.2,2.3c2.2-0.3,4.6-0.7,7.2-1.1
		C100.9,212.9,99.3,209.2,97.6,205.1z M81,201.7c2.5,3.1,4.8,5.8,7.1,8.6c1.9-3.4,3.6-6.6,5.4-10C89.3,200.8,85.4,201.2,81,201.7z
		 M99.7,201.5c-0.2,0-0.4,0-0.6,0c0,0.8-0.2,1.7,0,2.4c1.4,3.5,3,7,4.5,10.4c0.9,2,0.9,2,3,1.5C104.3,211.1,102,206.3,99.7,201.5z
		 M156.9,47.6c0.3,0.1,0.5,0.2,0.7,0.2c2.3,0.3,2.3,0.3,2,2.6c-0.1,0.8,0.2,1.4,1.1,1.1c1.4-0.4,2.6-1.2,3.2-2.7
		c0.6-1.6-0.3-3.3-2-3.2C160,45.5,158.1,45.7,156.9,47.6z M90.9,213.1c1.7-3,3.4-5.9,5.1-8.8c0.8-1.3,0.6-2.4-0.6-3.7
		c-1.8,3.4-3.5,6.7-5.3,10C89.5,211.7,89.7,212.4,90.9,213.1z M160.4,53.4c-0.7,0.3-1.5,0.6-2,1.1c-1.1,1.1-2.4,1.6-3.9,1.7
		c-1.6,0-2,1-2,2.3c0,0.3,0.6,0.9,0.8,0.8C156.4,59,159.7,56.6,160.4,53.4z M78.3,202.2c-0.1,0.2-0.3,0.4-0.4,0.6
		c3,3.5,6,7,9.1,10.7c0-0.6,0.2-1.2,0-1.4c-2.4-3.1-4.8-6.1-7.3-9.1C79.4,202.6,78.7,202.4,78.3,202.2z M57.7,154.8
		c-0.9,1.9-1.7,3.5-2.5,5.2c1.7-0.6,3.2-1.2,4.9-1.9C59.4,157.1,58.7,156.1,57.7,154.8z M51.8,175.2c-1.1-1.4-2-2.4-3-3.7
		c-0.9,1.4-1.5,2.5-2.3,3.7C48.3,175.2,49.8,175.2,51.8,175.2z M124.7,71.1c-2.1-0.7-4-1.3-6.2-1.9
		C119.1,71.3,122.4,72.2,124.7,71.1z M64.3,157.1c-0.2-0.1-0.3-0.1-0.5-0.2c-0.7,0.3-1.9,0.1-1.7,1.4c0.1,0.7,0.4,1.8,1.3,1.3
		C63.9,159.3,64,158,64.3,157.1z M65.7,154.8c-0.1,0.1-0.3,0.2-0.4,0.4c0.4,0.6,0.7,1.7,1.1,1.7c1,0,1.6-0.8,1.6-2
		C67.2,154.8,66.5,154.8,65.7,154.8z M89.2,219.3c-0.8-0.8-1.4-1.3-2.1-2c-0.4,1-0.7,1.7-1,2.7C87.2,219.8,88,219.6,89.2,219.3z
		 M89.1,216.4c1.4-1.3,0.3-1.7-0.3-2.2c-0.2,0.1-0.3,0.1-0.5,0.2C88.5,215.1,88.8,215.8,89.1,216.4z M91.4,218.9
		c0.8-0.3,1.3-0.4,1.9-0.7c-0.7-0.6-1.2-1-1.9-1.6C91.4,217.6,91.4,218.2,91.4,218.9z"/>
	<path class="st0" d="M125.1,63.8c-0.6-0.2-1.1-0.4-1.6-0.6c0-0.2-0.1-0.3-0.1-0.5c0.5-0.1,1.1-0.4,1.5-0.3c0.5,0.1,1.2,0.6,1.3,1
		c0.1,0.6-0.1,1.6-0.5,1.8c-1.1,0.7-2.4,1.3-3.6,1.4c-1.4,0.1-3-0.3-4.4-0.9c-2-0.9-2.4-3.4-1.3-5.3c1.3-2.2,2.4-4.6,2.8-7.2
		c-2.3,0-4.8,0.9-6.4-1.3c-0.6-0.8-0.8-1.9-0.9-3.1c1.7,2.6,3.8,3.6,6.8,2.5c-0.5-0.5-0.9-0.9-1.4-1.2c-1.5-1-3.1-1.8-4.6-2.8
		c-0.4-0.3-0.4-1.1-0.5-1.7c2.3,0.8,4.3,1.7,6,3.4c2.7,2.6,2.3,5.6,0.9,8.6c-0.6,1.2-1.1,2.5-1.8,3.6c-0.9,1.6-0.6,2.9,1,3.8
		C119.9,65.8,123.7,65.9,125.1,63.8z"/>
	<path class="st0" d="M128.6,53.8c1.4,3.5,2.4,3.6,6.6,3.1c0.7-0.1,1.5-0.4,1.7,0.5c0.1,0.3-0.7,1.1-1.2,1.3
		c-3.3,1.2-6.5,0.8-8.5-3.3c-0.2-0.4-0.7-0.7-1-1.1c-0.2-0.2-0.6-0.6-0.6-0.8c0.2-0.4,0.5-0.8,0.8-0.9c3.5-0.8,7.1-1.1,10.6-0.1
		c0.4,0.1,0.6,0.8,1,1.2c-0.5,0.2-0.9,0.5-1.4,0.5c-2.2-0.1-4.3-0.3-6.5-0.5C129.7,53.6,129.2,53.7,128.6,53.8z"/>
</g>
</svg>
