<?xml version="1.0" encoding="utf-8"?>
<!-- Generator: Adobe Illustrator 19.1.0, SVG Export Plug-In . SVG Version: 6.00 Build 0)  -->
<svg version="1.1" id="Layer_1" xmlns="http://www.w3.org/2000/svg" xmlns:xlink="http://www.w3.org/1999/xlink" x="0px" y="0px"
	 viewBox="0 0 150 167.3" style="enable-background:new 0 0 150 167.3;" xml:space="preserve">
<style type="text/css">
	.st0{fill:#03A9F4;}
</style>
<g id="anklesprain-girl">
	<path class="st0" d="M74.9,58.2c-1.7-0.8-2.6-1.9-2.8-3.6c-0.3-2.1-2.1-3.2-3.5-4.5c-1-1.1-2.1-2.1-3.3-3c-2.5-2-3.3-4.7-3.2-7.7
		c0.1-1.5-0.4-2.5-1.6-3.6c-1.1-0.9-1.7-2.4-2.5-3.6c-0.3-0.5-0.4-1.1-0.7-1.7c-1.8-3.6-2.2-7.2-0.8-11c1-2.8,2-5.5,3.2-8.2
		c1.7-3.9,4.9-6.4,8.5-8.7c2.9-1.8,6-2,9.1-2.3C80,0.2,82.6,0,85.3,0c2.6,0,5.1,0.7,7.3,2.3c1.3,0.9,2.5,1.9,3.8,2.6
		c1,0.5,2.2,1,3.2,0.8c3.2-0.7,5.2,1,6.9,3.1c2,2.4,2.8,5.3,2.3,8.2c-0.3,1.4-1.5,2.6-2.5,3.7c-0.5,0.6-1.4,0.8-1.9,1.4
		c-0.4,0.4-0.7,1-0.7,1.5c-0.1,3.8-0.6,7.3-3.5,10.1c-0.8,0.8-0.6,4.3,0,5.8c1.4,3.5,4.4,4.9,7.6,6.2c2.6,1,5.1,2.1,7.7,3.2
		c0.4,0.2,0.8,0.3,1.1,0.3c3.4,0.4,5.9,2.3,8.1,4.6c2.1,2.1,4.2,4.2,5.9,6.5c1.3,1.8,1.9,4,2.7,6.1c0.6,1.4,1.2,2.9,1.9,4.3
		c0.8,1.8,1.4,3.6,1.4,5.6c0,1.4,0.6,2.8,0.9,4.2c1,5.3,2,10.7,2.8,16c0.5,3.2,0.8,6.5,1.1,9.8c0.4,5.2,0.7,10.4,1,15.6
		c0,0.3,0.3,0.8,0.5,0.9c3.5,1,5.1,3.8,6,6.9c0.7,2.3,1,4.8,1.2,7.2c0.1,1-0.3,2.4-1,3.1c-1.5,1.6-3.1,3.3-5,4.4
		c-2.1,1.2-3.9,2.7-5.6,4.3c-2.4,2.3-5.4,3.5-8.8,3.6c-1.5,0-3-0.1-4.5-0.1c-0.2,0-0.5,0.1-0.7,0.2c-3.1,2.1-6.8,1.6-10.2,2.3
		c-2.9,0.6-5.7,1.2-8.6,1.8c-4.4,0.9-8.7,1.9-13.1,2.6c-3.7,0.6-7.5,0.7-11.3,1.3c-3.9,0.6-7.7,1.6-11.5,2.5
		c-0.7,0.2-1.3,0.6-1.9,0.8c-1.8,0.6-3.6,1.3-5.5,1.6c-3.3,0.5-6.6,0.9-9.9,1.2c-1.1,0.1-2.2,0.1-3.3,0.1c-6.2,0-12.4,0.1-18.6-0.3
		c-2.2-0.1-4.4-1.5-6.6-2.2c-0.5-0.2-1.2-0.3-1.7-0.1c-1.7,0.5-3.4,1.5-5.2,1.8c-3.6,0.6-7.3,0.9-10.9,1.3c-0.6,0.1-1.2-0.1-1.8-0.1
		c-3.7-0.6-5.2-3.9-3.5-7.2c0.7-1.4,1.7-2.2,3.2-2.6c7.2-2.3,13-6.8,18.3-12c2.2-2.1,4.3-4.3,6.4-6.4c1.4-1.5,1.5-2.6,0.2-4.1
		c-1-1.2-0.8-3.2,0.5-4.6c0.9-0.9,1.8-1.8,2.8-2.7c1.2-1.2,2-2.5,2.3-4.2c0.4-1.8,1.3-3.2,3.5-2.8c0.3,0,0.8-0.4,0.8-0.8
		c1.5-5.7,4.8-10.5,7.4-15.5c2.6-5,5.7-9.7,8.5-14.6c1.2-2.1,2-4.4,3.3-6.5c1.1-1.9,2.4-3.8,4-5.3c1.1-1.1,2.6-1.8,4-2.4
		c0.8-0.4,1.1-0.8,1.2-1.6c0.2-1.7,0.5-3.3,0.8-5c0.7-4,3.1-6.8,6-9.4C74.2,58.9,74.5,58.6,74.9,58.2z M124.3,76.3
		c3.2-0.3,6.2-0.5,8.8-2c0.9-0.5,1.6-1.4,0.8-2.8c-0.9-1.5-1.6-3.1-2.1-4.7c-1-3.3-2.3-6.2-5.4-8c-1.3-0.7-2.7-1.4-3.9-2.2
		c-3-2.1-6.1-1.5-9.1-0.5c-3.9,1.4-5.5,4.9-6.7,8.5c-0.8,2.6-0.8,5.5-1.3,8.2c-0.2,1.4,0,2.6,1,3.8c0.6,0.8,0.9,2,1,3
		c0.1,1.1-0.2,2.3-0.4,3.4c-0.5,4.3-1.1,8.6-1.6,12.9c-0.6,4.3-1.2,8.7-1.9,13c-0.2,1.4-1,2.5-2.4,3.2c-5.7,3.1-11.7,5-18.1,5.7
		c-2.2,0.2-4.5,0.3-6.7,0.2c-1.8,0-3.6-0.5-5.3-0.3c-2.8,0.3-5.7,1-8.5,1.6c-1.6,0.3-3.1,0.7-4.6,1.2c-1.6,0.6-3,1.5-4.6,2
		c-2.8,1-5.8,1.8-8.6,2.7c-0.5,0.2-1,0.7-1.7,1.3c2.2,0.8,3.9,2,5.8,0.4c0.2-0.1,0.5-0.2,0.7-0.2c1.2,0.5,1.9-0.3,2.6-1
		c0.7-0.7,1.5-1.3,2.3-1.9c0.4-0.3,0.9-0.5,1.4-0.8c0.1,0.1,0.2,0.3,0.3,0.4c-0.3,0.3-0.6,0.5-0.9,0.8c-2.1,2-4.4,3.9-6.3,6.1
		c-1.2,1.3-2.1,2.8-4,1.4c-1.2,2.2-0.2,4.1,2,4.1c0.9,0,2.1-0.2,2.8-0.7c1.5-1.2,2.7-2.7,4.1-4c0.2-0.2,0.5-0.3,0.8-0.4
		c0,0.3,0.1,0.7,0,0.9c-1.2,1.8-2.5,3.5-4.5,4.4c-0.3,0.2-0.6,0.4-1,0.7c1,1.2,2,0.6,2.8,0.1c1.6-0.9,3.1-1.8,4.8-2.8
		c0,1.1,0,1.1-2.2,2.2c-1,0.5-1.9,1.1-2.8,1.7c0.1,0.2,0.2,0.4,0.3,0.6c2.3-0.7,4.6-1.4,6.8-2.2c0.1,0.2,0.1,0.3,0.2,0.5
		c-1.3,0.7-2.7,1.4-4,2.1c0,0.2,0.1,0.4,0.1,0.6c0.7,0,1.6,0.2,2.2,0c3.3-1.3,5.6-3.8,7.9-6.5c1-1.2,2.2-2.2,3.5-3
		c3.9-2.5,8.3-3,12.8-3.1c3.5-0.1,7,0,10.4-0.1c4.3-0.2,8.4-1,12.3-2.9c1.9-0.9,3.9-1.5,5.6-2.6c2.7-1.9,3.8-4.9,4.3-8.1
		c0.2-1.3,0.7-2.6,1.1-3.8c1-3.2,2.2-6.3,3-9.5c0.8-3.1,1.3-6.3,1.9-9.5c0.5-2.4,0.9-4.9,1.4-7.3c0.7-3.3,1.2-6.6,2.1-9.8
		c0.4-1.5,1.4-2.8,2.3-4.6c0.4,0.6,0.5,0.7,0.5,0.8C125.8,71.7,125.1,73.8,124.3,76.3z M82.3,54.5c-3.9,2.3-4.1,2.3-4.2,6.5
		c-0.1,2.6,0.4,5.2,0.8,7.8c0.5,2.6,1.3,5.2,3.2,7.1c3.9,3.7,8.5,5.9,14,5.6c1.3-0.1,2.6-0.6,3.7-1.2c4.2-2.5,4.5-6.7,4.4-11
		c0-1-0.2-2,0.1-2.9c0.7-2.4,1.6-4.7,2.4-7.1c-1.8,0.6-3.8,1.4-5.8,1.8c-2,0.5-4.1,0.6-6.3,0.9c-0.2-0.8,0.3-1,1.2-1.1
		c1.5-0.1,3.1-0.1,4.5-0.5c2.5-0.7,5-1.7,7.5-2.6c0.3-0.1,0.6-0.5,0.9-0.8c2.9-2.9,6.4-4.1,10.4-3.6c1.6,0.2,3.1,0.9,4.6,1.4
		c-1.9-1.7-3.7-3.4-6.3-4.1c-2.4-0.7-4.7-1.4-7.1-2.3c-2.3-0.9-4.6-1.8-6.8-3c-1.2-0.6-2.3-1.6-3-2.7c-1.4-1.9-2.8-3.9-2.1-6.9
		c-0.8,0.7-1.1,1-1.4,1.2c-1.9,1.2-3.8,2.6-6.2,1.4c-1.2-0.5-1.3-1.1-0.5-2.1c1.1,1.5,2.5,1.8,4.3,0.8c3.5-1.8,4.6-4.7,3.6-9.4
		c-0.8-3.6-3.3-4.5-6.1-2.2c-0.8,0.6-1.5,1.3-2.4,1.8c-4.9,2.9-10,2.8-15.2,0.6c-2.3-1-4.4-2.1-6.1-4.1c-1.7-2.1-4-3.3-6.9-2.5
		c-2.9,0.8-5.2,2.3-4.1,5.4c0.2,0.7,0.5,1.4,0.7,2.1c0.5,1.5,0.8,3.2,1.4,4.6c0.4,0.9,1.3,1.9,2.2,2.2c2.3,0.7,3.1,1.4,3.1,3.8
		c0,1.6-0.4,3.2-0.1,4.8c0.2,1,1.1,1.9,1.7,2.8c0.5-0.4,1-0.7,1.6-1.2c0.6-0.2,1.6-0.3,2.1-0.8c1-1.1-0.3-1.8-0.6-2.8
		c0.6,0.5,1.3,1.1,1.3,1.6c0,0.8-0.4,1.7-1,2.3c-0.7,0.7-1.8,1-2.8,1.5c0.5,0.6,1,1,1.2,1.3c2.9-0.7,5.6-1.3,8.3-2
		c-0.7,2.1-2,3.8-3.9,5.1c-0.2,0.2-0.5,0.6-0.5,0.8c0.3,1.1,0.6,2.2,1.1,3.2c0.7,1.3,2,1.5,3.2,0.7c3.1-2.1,6.5-4,9.3-6.4
		c2.7-2.4,5.3-5.2,5.1-9.3c0-0.3,0.2-0.6,0.3-0.9c0.2,0,0.4,0,0.6,0.1c-0.1,1.3,0.2,2.9-0.3,4c-1.3,2.4-3,4.6-4.7,6.7
		c-1.1,1.3-2.5,2.2-3.8,3.2c1.3,1.9,2.7,3.9,4,5.8c-0.2,0.1-0.3,0.2-0.5,0.3C85.1,58.4,83.7,56.5,82.3,54.5z M42.7,126.5
		c-0.2-2.1,1.2-2.4,2.4-2.7c4.8-1.3,9.7-2.6,14-5.2c0.4-0.2,1-0.2,1.4-0.4c0.6-0.3,1.4-0.6,1.7-1.1c2.2-4.3,4.4-8.7,6.6-13.1
		c0.2-0.5,0.3-1.1,0.5-1.6c0.1-0.2,0.4-0.5,0.7-0.5c0.2,0,0.5,0.3,0.6,0.5c1.9,4.1,3.8,8.2,5.6,12.3c0.6,1.4,1.6,1.8,2.9,1.7
		c5.5-0.2,10.8-1.5,16-3.4c1.7-0.6,3.3-1.5,5.1-2.3c-0.7-1.5-1.2-2.7-1.8-3.9c-3.3-6.5-8.3-11.8-12.8-17.5c-1.9-2.4-3.8-4.8-5.7-7.2
		c-0.5-0.6-0.9-1.2-1.5-1.6c-1.9-1.2-3.8-2.4-5.9-3.2c-1.7-0.7-3.6-1.2-5.5-1.1c-3.7,0.2-5.6,3.1-7.3,5.9c-1.8,3.1-3.2,6.4-5,9.5
		c-2.2,4-4.7,7.9-6.9,11.8c-1.8,3.3-3.6,6.6-5.3,10c-0.9,1.9-1.6,3.9-2.3,5.9c-0.2,0.6-0.5,1.2-0.7,1.8c-0.5,0.9-1,1.8-1.5,2.8
		C39.6,124.9,41,125.7,42.7,126.5z M133.3,126c0,0.2,0.1,0.3,0.1,0.5c-1,0.5-2.1,1-3.1,1.6c-3.4,1.9-6.9,3.8-10.3,5.6
		c-0.9,0.5-1.9,0.8-2.9,1.1c-4.7,1.4-9.7,2-14,4.8c-0.4,0.3-0.9,0.4-1.4,0.5c-4.2,1.3-8.5,2.5-12.6,3.9c-2.7,0.9-5.4,2.1-8.1,3.1
		c-1,0.4-2.2,0.6-3.3,0.9c0.2,0.4,0.2,0.5,0.3,0.6c1.6,3.1,3.3,6.3,4.9,9.4c0.4,0.7,0.8,0.8,1.5,0.7c2.9-0.4,5.7-0.6,8.6-1.1
		c4-0.7,8-1.6,12-2.4c4.8-0.9,9.5-1.8,14.3-2.8c1.1-0.2,2.2-0.4,3.2-0.8c1.7-0.8,3.1-1.9,4.8-2.7c2.2-1,4.5-2.2,6.8-2.5
		c3.9-0.5,7.3-2,10.6-3.9c3.5-2,4.7-4.5,4-8.5c-0.5-2.8-0.9-5.8-2.9-8.1c-0.8-1-2-1.9-3.2-2.2c-2.8-0.7-5.6-0.9-8.4-1.6
		c-2.9-0.7-5.7-0.7-8.5,0.6c-1.9,0.9-3.8,1.7-5.8,2.4c-3.4,1.3-6,3.5-8,6.4c-0.6,0.8-0.9,1.9-1.4,3.1c1,0,1.7,0.1,2.3,0
		c1.5-0.4,3.1-0.8,4.5-1.4c1.5-0.6,2.8-1.4,4.3-2.1c3.6-1.8,7.2-3.7,10.7-5.4C132.5,125.9,132.9,126,133.3,126z M43.9,149.9
		c0.5,0.1,0.8,0.2,1,0.1c2.7-0.4,5.5-0.7,8.2-1.3c4.2-1.1,8.2-1.1,12.3,0.4c2.4,0.8,4.9,0.5,7.1-0.2c6.3-2,12.4-4.4,18.6-6.6
		c1.4-0.5,2.8-1,4.5-1.6c-0.7-0.5-1.2-0.8-1.6-1.1c-3-2.8-6.2-5.6-9.1-8.6c-1.5-1.6-2.9-3.2-5.4-2.7c-1,0.2-2.1,0.2-3.1,0.3
		c-4.3,0.6-8.1,2.2-10.9,5.8c-2.1,2.8-4.6,5-8,6.1c-0.5,0.2-1.3,0.4-1.7,0.1c-1.3-0.7-2.2-1.8-4-1.6c-0.9,0.1-2-0.8-3.2-1.4
		C46.8,141.7,43.7,145,43.9,149.9z M60.7,163.4c0,0.1,0,0.2,0.1,0.3c1-0.2,2.2-0.1,2.9-0.6c1.2-0.9,2-2.2,3-3.3
		c0.7-0.7,0.6-1.2-0.1-1.9c-1.7-1.5-3.6-2.8-4.9-4.5c-1.8-2.4-4-2.8-6.6-2.3c-2.6,0.5-5.2,0.6-7.7,1.4c-2.3,0.8-4.3,2.2-6.4,3.4
		c-2.2,1.3-2.3,3.6-2.1,5.8c0.1,1.4,1.2,2,2.3,2.3c2.7,0.7,5.4,1.5,8.3,0.9C53.1,164.3,57,163.9,60.7,163.4z M47.3,151.2
		c-1.4-0.1-3.1,0.1-4.5-0.5c-2.8-1.2-5.6-1.2-8.6-0.7c-4.6,0.7-8.2,2.8-10.5,6.9c-1.7,2.9-0.3,6.4,3,7.3c2.5,0.7,4.9,1.4,7.5,1.3
		c2,0,4,0,5.9,0c-0.8-1.1-1.8-1.9-2.1-3c-0.8-3.1,0-6.2,3-7.9C43.1,153.5,45.2,152.3,47.3,151.2z M24,154.4
		c-2.8,0.1-5.4,0.3-7.9,0.4c-2.8,0.1-3.5,0.1-6.1,1.3c-2.3,1-4.6,2-6.9,3.2c-1.7,0.9-2.3,2.7-1.9,4.3c0.4,1.4,2,2.4,3.9,2.3
		c3.4-0.2,6.8-0.5,10.2-1.1c2-0.3,3.8-1.3,5.7-2c1-0.4,1.4-1.3,1.1-2.3c-0.5-1.7-0.2-3.1,0.9-4.4C23.5,155.6,23.7,155.1,24,154.4z
		 M14.6,153.5c2.3,0,4.5,0.1,6.8,0c2.1-0.1,4.1-0.5,5.9-2c2.5-2.1,5.8-2.4,9-2.9c1.2-0.2,1.4-0.7,1.4-1.6c-0.1-3.8-1.3-7.3-3-10.6
		c-0.3-0.7-1-1.3-1.6-2C28.3,142.3,21.4,147.7,14.6,153.5z M102,126.9c-5.8,0.6-11.3,1.1-17,1.6c0.2,0.4,0.3,1,0.7,1.3
		c3.1,3,6.3,5.9,9.5,8.8c1.4,1.2,2.9,1.6,4.6,0.6C100.5,135.1,101.2,130.9,102,126.9z M75.6,59.3c-5.6,4-6.8,9.7-7.2,15.5
		c4,1.6,7.8,3.1,11.8,4.7c0.1-0.1,0.3-0.3,0.6-0.6c0,0,0-0.1,0,0.2C75.7,73.2,75.4,66.4,75.6,59.3z M42.5,149.3
		c0-4.9,3.2-8.4,5.5-12.6c-3.2,0.2-4.5-1.5-4.4-4.6c-2.3,0.4-4.4,0.8-6.8,1.2c2.5,5.1,3.8,9.9,3,15.1
		C40.7,148.7,41.5,149,42.5,149.3z M96.9,101.5c0.1,0,0.2-0.1,0.3-0.1c0-0.4,0-0.9,0-1.3c0-0.2-0.1-0.4-0.2-0.6
		c-0.8-3.2-2.6-5.9-4.5-8.5c-2.1-2.9-4.3-5.7-6.5-8.5c-0.8-1-1.8-1.9-2.8-2.7c-0.8-0.7-1.4-0.3-1.6,0.8c-0.3,1.9,0.5,3.3,1.7,4.7
		c3,3.3,5.9,6.7,8.8,10.1C93.8,97.4,95.3,99.5,96.9,101.5z M63.9,117.5c3.7-0.5,7.3-1,11.1-1.6c-1.7-3.6-3.2-7.1-4.8-10.6
		C68,109.4,66,113.4,63.9,117.5z M78.8,159.9c-1.2-3.1-2.4-6-3.7-9.3c-0.8,1.9-1.4,3.4-2,4.8c-1.1,2.4-1.1,2.4,0.8,4.4
		c0.3,0.3,0.8,0.8,1.2,0.8C76.3,160.5,77.4,160.2,78.8,159.9z M75.2,149.2c1.4,3.4,2.9,6.9,4.3,10.4c1-0.2,1.8-0.4,2.7-0.6
		c0-0.3,0-0.5-0.1-0.7c-1.4-2.9-2.9-5.8-4.3-8.7C77.2,148.4,76.4,148.3,75.2,149.2z M48.8,129.4c-3.7-1.5-7.3-2.9-10.8-4.3
		c-1.4,1.9-1.3,2.1,0.8,3c2.2,0.8,4.4,1.5,6.5,2.4C46.9,131.1,47.7,130.3,48.8,129.4z M103.5,18.7c0.1,0,0.1,0,0.2,0
		c-0.4-1.7-0.6-3.5-1.2-5.2c-0.6-1.8-1.3-3.5-2.2-5.2c-0.2-0.4-1.1-0.6-1.6-0.8c0.1,0.5,0,1.1,0.2,1.6c0.7,2.2,1.7,4.4,2.3,6.7
		c0.4,1.5,0.3,3,0.6,4.5c0.1,0.4,0.6,0.7,1,1.1c0.2-0.4,0.6-0.8,0.7-1.3C103.6,19.6,103.5,19.2,103.5,18.7z M38.3,148.4
		c0.2,0,0.4,0,0.5,0c0.2-1,0.6-1.9,0.5-2.8c-0.2-3.5-0.8-7-2.3-10.2c-0.8-1.7-1.3-1.9-3.1-1.1C37,138.5,38.4,143.2,38.3,148.4z
		 M63.8,150.1c-0.1,0.2-0.1,0.3-0.2,0.5c1.7,1.6,3.4,3.2,5.4,5.1c0.7-2,1.3-3.7,1.8-5.2C68.4,150.4,66.1,150.3,63.8,150.1z
		 M59.9,150.9c2.7,2.4,5.2,4.6,7.8,6.9c1.1-0.9,1-1.7-0.1-2.6c-1.4-1.1-2.7-2.4-3.8-3.7C62.5,150.1,61.9,149.9,59.9,150.9z
		 M74.8,149.4c-2.9,0.2-3.8,1.8-4.2,3.9c-0.1,0.4-0.2,0.9-0.4,1.3c-0.8,1.3-0.4,2.2,1,2.9C72.7,155,73.9,152.4,74.8,149.4z
		 M33.7,129.6c-2.1-0.1-3.5,0.7-4.1,2.3c-0.5,1.4,0.2,2.2,1.6,3.1c1.5-2.8,3-5.5,4.4-8.3c0.1-0.1-0.1-0.4-0.2-0.5
		c-0.2-0.1-0.5-0.1-0.6,0C33.5,126.9,33.1,128.1,33.7,129.6z M35.3,131.9c0.7,0.4,1.3,1,1.9,1c1.9-0.2,3.9-0.7,5.8-1.1
		c0.5-0.1,1.1-0.4,1.7-0.6C42.6,129.8,37.8,130.2,35.3,131.9z M36.5,127.6c-0.5,1-0.9,2-1.5,3.3c2.2-0.5,4.1-1,6.2-1.5
		C39.5,128.8,38.1,128.2,36.5,127.6z M62.6,39.6c0.4,1.8,0.8,3.4,1.2,5c0.2,0,0.3-0.1,0.5-0.1c0-1.7,0-3.4,0-5.2
		C63.7,39.4,63.3,39.5,62.6,39.6z M60.5,149.5c0-0.2,0-0.4-0.1-0.6c-2.9-0.2-5.7,0.4-8.5,1.4c1.4,0,2.8-0.1,4.2-0.3
		C57.6,149.8,59.1,149.7,60.5,149.5z M68,159.3c-1.2,1.4-2.2,2.6-3.5,4.1c2.1-0.5,3.6-1.1,4.4-2.8C68.7,160.2,68.4,159.8,68,159.3z
		 M36.4,125.6c0.6-1.4,1.1-2.6,1.6-3.9c-0.1-0.1-0.3-0.3-0.4-0.4c-0.6,0.4-1.4,0.6-1.6,1.2C35.5,123.4,34.7,124.6,36.4,125.6z
		 M71.7,158.8c-0.2,0-0.4,0-0.5,0c-0.2,0.7-0.5,1.4-0.7,2.1c0.8,0.1,1.7,0.1,2.5,0.2c0.1-0.2,0.1-0.4,0.2-0.6
		C72.7,160,72.2,159.4,71.7,158.8z M69.1,157c-1.3,1.1-0.7,2,0.3,2.8C71.2,158.4,71.1,158.3,69.1,157z M74.8,48.9
		c-1.2,0.8-2.4,1.6-3.6,2.4C72.1,52.4,73.1,51.8,74.8,48.9z M36,133.4c-0.6-0.9-1-1.5-1.4-2.2c-0.4,0.9-0.7,1.5-1.1,2.2
		C34.4,133.4,35,133.4,36,133.4z M73.9,48.6c0-0.1-0.1-0.3-0.1-0.4c-1.5,0.4-3,0.8-4.5,1.1c0,0.2,0.1,0.3,0.1,0.5
		C71,49.4,72.5,49,73.9,48.6z M62.7,36.3c-0.1,0.1-0.2,0.1-0.3,0.2c0.1,0.6,0.3,1.3,0.5,2.1c0.4-0.2,0.8-0.4,1.1-0.6
		C63.6,37.5,63.2,36.9,62.7,36.3z"/>
	<path class="st0" d="M92.3,28.9c-0.3-1.8,0.4-2.9,2.2-3.3c1.1-0.2,2.6,1,2.9,2.6c0.6,2.6-0.1,5-2.4,6.7c0.1-0.4,0.1-0.8,0.3-1.1
		c1.4-1.5,1.5-3.3,1.3-5.1C96.3,27,95,26,93.8,26.7c-0.3,0.2-0.7,0.6-0.7,1c0,0.3,0.4,0.6,0.8,0.9c0.3,0.2,0.7,0.2,0.9,0.4
		c0.6,0.6,1.4,1.3,1.4,2c0,1.1-0.7,2-1.9,2.4c-0.8,0.3-1.4,0.9-2.1,1.3c-0.3,0.2-0.7,0.3-1,0.3c-0.2,0-0.4-0.6-0.4-0.9
		c0-0.9,0.1-1.8,0.1-2.7c0.2,0,0.4,0,0.6,0c0.1,0.8,0.2,1.5,0.2,2.1c0.9-0.4,1.7-0.6,2.5-1c0.5-0.3,1-0.9,1.1-1.4
		c0.1-0.4-0.4-1-0.8-1.3C93.9,29.4,93.1,29.2,92.3,28.9z"/>
	<path class="st0" d="M68.6,35.3c1.6,2.7,3.3,1.6,5,0.3c0.3-0.2,0.8-0.3,1.3-0.5c-0.5,1.9-3.1,3.6-4.6,3.1
		C69.4,37.9,68.3,36.2,68.6,35.3z"/>
	<path class="st0" d="M73.5,32.3c-2.8,0.5-5.2,1-7.7,1.5C66.6,31.9,71.2,30.8,73.5,32.3z"/>
	<path class="st0" d="M92.7,37.2c-0.4-0.6-0.9-1.1-0.8-1.2c0.3-0.4,0.7-0.7,1.1-0.9c0.1-0.1,0.8,0.6,0.7,0.7
		C93.5,36.3,93.1,36.7,92.7,37.2z"/>
</g>
</svg>
