<?xml version="1.0" encoding="utf-8"?>
<!-- Generator: Adobe Illustrator 19.1.0, SVG Export Plug-In . SVG Version: 6.00 Build 0)  -->
<svg version="1.1" id="Layer_1" xmlns="http://www.w3.org/2000/svg" xmlns:xlink="http://www.w3.org/1999/xlink" x="0px" y="0px"
	 viewBox="0 0 118.4 152.5" style="enable-background:new 0 0 118.4 152.5;" xml:space="preserve">
<style type="text/css">
	.st0{fill:#FF5722;}
</style>
<g id="athletes-girl">
	<path class="st0" d="M88.1,113.2c3.2-1.7,6.2-3.5,9-5.8c1.5-1.2,3.2-2,5.1-2.3c0.2,0,0.4-0.2,0.6-0.3c0.4-0.3,0.8-0.7,1.3-1
		c0.4-0.3,0.9-0.5,1.3-0.7c0.8-0.6,1.6-1.2,2.4-1.8c1-0.7,2.1-1.2,3.2-1.9c1.1-0.7,2.2-1.5,3.1-2.4c0.9-0.9,1.6-1.9,2.2-3
		c1.3-2.3,2.3-4.8,2.1-7.5c-0.1-1.6-0.4-3.2-0.6-4.9c-0.3-1.9-0.7-3.6-2.1-5c-0.8-0.8-1.6-1.5-2.4-2.1c-0.3-0.2-0.7-0.3-0.9-0.5
		c-0.5-0.5-1.2-0.8-1.9-0.8c-2.1-0.1-4.2-0.1-6.3,0.3c-2.4,0.5-4.9,0.9-7.3,1.4c-1.7,0.3-3.5,0.5-5.2,0.8c-1.7,0.3-3.5,0.8-5.2,1.2
		c-0.7,0.2-1-0.1-1.2-0.7c-0.3-0.8-0.8-1.6-1.1-2.4c-0.3-0.8-0.6-1.7-0.9-2.7c2.3-0.4,4.6-1,6.8-1.1c3.2-0.1,6-1.2,8.8-2.5
		c1.7-0.8,3.2-2.1,4.8-3.2c1-0.6,1.3-1.5,1.3-2.7c0-1.2-0.2-2.4-0.5-3.6c-0.2-0.9-0.6-1.7-1.3-2.3c-0.5-0.4-1-0.9-1.5-1.2
		c-0.7-0.5-1.2-1-1.5-1.8c-0.2-0.5-0.5-1-0.9-1.4c-0.9-0.9-1.9-1.7-2.9-2.6c-0.3-0.3-0.7-0.6-1.1-0.9c-1.3-0.7-2.6-1.3-3.9-2.1
		c-2-1.3-4-2.7-6-4c-1.5-1-2.8-2.2-4.5-2.9c-0.1-0.1-0.3-0.2-0.4-0.3c-1.1-0.9-2.3-1.8-3.4-2.7c-1.7-1.3-3.5-1.5-5.4-0.7
		c-0.7,0.3-1.4,0.4-2.1,0.6c-0.2,0-0.4-0.1-0.7-0.1c0.5-0.4,0.9-0.8,1.3-1.1c1.7-1.6,2.5-3.7,3.7-5.6c0.2-0.3,0.2-0.7,0.3-1
		c0.2-0.7,0.4-1.5,0.5-2.3c0.2-0.8,0.6-1.7,0.6-2.5c0.2-2.2,0.3-4.4-0.2-6.5c-0.5-2-1.2-3.9-2.4-5.7c-0.9-1.4-3.3-3-5-2.4
		c-1.3,0.4-2.2,0.2-2.9-1.1c0-0.1-0.1-0.1-0.2-0.2c-1-1.1-2-2.2-3-3.2c-0.3-0.3-0.9-0.5-1.3-0.8c-0.3-0.2-0.7-0.2-0.9-0.4
		C57.5,1,55,1.1,52.9,0.1c-3.1-0.2-6.3-0.3-9.2,1.1c-0.1,0.1-0.3,0-0.4,0c-1.4-0.3-2.6,0.2-3.7,1c-0.8,0.6-1.6,1.3-2.3,1.9
		c-0.2,0.2-0.4,0.4-0.6,0.6c-0.3,0.2-0.5,0.5-0.8,0.6c-0.8,0.5-1.6,1-2.5,1.5c-1.2,0.7-1.6,1.7-1.7,3c0,0.5-0.1,0.9-0.1,1.4
		c-0.5,0.1-0.9,0.1-1.3,0.1c-1.5,0-2.7,0.8-3.6,1.9c-1.3,1.6-2.4,3.5-3.7,5.1C21.8,20,21,22,20.6,24c-0.4,2.4-0.4,4.9-0.5,7.4
		c0,0.4,0.2,0.9,0.4,1.3c0.5,0.9,1.2,1.8,1.7,2.7c0.1,0.1,0.2,0.3,0.3,0.4c0.9,0.8,2,1.3,3.2,1.5c1.2,0.1,2.4,0.1,3.5-0.6
		c1.1-0.6,1.1-0.8,0.6-2c-1.2-2.7-2.1-5.5-2.5-8.4c-0.3-2.4-0.3-4.7,0.3-7c0.3-1.3,1.1-2.3,2.1-3.2c0.5-0.5,1.2-0.6,1.9-0.5
		c-0.1,0.3-0.2,0.6-0.2,0.8c-0.1,1.4-0.3,2.8-0.1,4.2c0.4,2.4,1.1,4.7,1.6,7c0.1,0.2,0,0.6-0.2,0.7c-0.6,0.7-0.9,1.8-0.4,2.6
		c1.1,2,2.1,4,3.3,6c0.5,0.9,1.3,1.7,2.1,2.7c-0.3,0.2-0.6,0.5-0.9,0.6c-0.9,0.3-1.8,0.5-2.7,0.9c-0.7,0.3-1.6,0.1-1.8,1.1
		c0,0.1-0.2,0.2-0.4,0.3c-1.3,0.9-2.2,2.2-2.9,3.6c-1.3,2.1-2.4,4.3-3.5,6.5c-0.7,1.3-1.3,2.6-1.4,4.1c-0.2,2.5-0.5,4.9-0.7,7.4
		c-0.2,3-1,5.9-2.2,8.6c-0.6,1.5-1.3,3-1.6,4.6c-0.3,1.8-0.7,3.6-0.1,5.5c1.1,3.7,3.2,6.5,7,7.8c-0.1,0-0.1,0.1-0.2,0.2
		c-2.3,1.4-3.9,3.4-5,5.7c-0.6,1.3-1.4,2.7-1.7,4.1c-0.4,2.6-0.3,5.2,0.6,7.8c0.1,0.3,0.1,0.5,0.2,0.8c0.2,1.8,0.5,3.6,0.6,5.4
		c0,0.6,0,1,0,2H1.5c-2,0-2,3,0,3h19.4c0,0,0,0.4,0,0.6c0,0.8-0.2,1.5-0.3,2.3c-0.2,1.9-0.2,3.7-0.5,5.6c-0.4,2.1-1,4.1-1.5,6.2
		c-0.2,0.7-0.1,1.3,0.5,1.9c0.8,0.8,1.8,1.3,2.9,1.7c0.9,0.3,1.9,0.5,2.7,0.9c1.7,1,3.6,1.6,5.6,2c1.6,0.3,3.2,0.8,4.8,1.2
		c0.7,0.2,1.2,1,1.2,1.5c0,0.9,0.1,1.8,0.1,2.8c0,0.1,0,0.2,0.1,0.2c0.3,0.3,0.3,0.7,0.2,1.1c-0.1,0.6-0.3,1.3,0.2,1.8
		c0.3,0.3,0.4,0.7,0.3,1.1c-0.2,1.5,1.1,2.4,2.5,1.9c0.5-0.2,0.9-0.5,1.3-0.7c1.3-0.4,2.5-0.9,3.8-1.1c1.7-0.2,3.2-0.6,4.7-1.3
		c2.7-1.3,5.4-2.4,8.3-3.2c2.2-0.6,4.3-1.4,6.2-2.7c1.6-1.1,2.5-3.8,1.7-5.5c-0.7-1.5-1.8-2.8-3.3-3.7c-0.6-0.4-1-0.9-1.3-1.6
		c-0.4-1.1-1-2.3-1.5-3.4c-1.3-2.6-2.7-5.1-4-7.6c-0.1-0.2-0.1-0.6,0.1-0.7c0.8-0.6,1.5-1,2.4-1.5c0.1,0.1,0.3,0.4,0.5,0.4h57
		c1,0,1-2,0-2H79.2c1.5,0,2.9-0.9,4.3-1.6C85,115.2,86.5,114,88.1,113.2z M31.5,14.6c-0.4,0.3-0.7,0.1-0.8-0.4
		c-0.1-0.5-0.1-1-0.1-1.5c-0.1-0.7,0.5-0.5,0.9-0.6c0.1,0,0.4,0.3,0.5,0.5C32,12.8,32,13,32,13.3l0.1,0.1
		C31.9,13.8,31.8,14.3,31.5,14.6z M95.3,79.9c2.2,0,4.5,0,6.7,0c1.3,0,2.6-0.3,3.9-0.2c1.9,0.1,3.7,0.4,5.6,0.7
		c0.2,0,0.4,0.2,0.6,0.3c-0.2,0.2-0.4,0.6-0.6,0.6c-0.7,0.1-1.4,0.2-2.1,0.2c-2.3-0.1-4.7-0.2-6.9-0.3c-2.3,0-5,0-7,0v-0.1
		c-2,0.1-4.7,0.3-7.1,0.3c-1.8,0-3.5-0.1-5.3-0.3c-0.3,0-0.5-0.5-0.8-0.7c0.3-0.1,0.6-0.4,0.9-0.4c0.5-0.1,1.1,0,1.6,0
		C88.3,80,91.8,79.9,95.3,79.9z M84.5,75.8c0.1,0.2,0.2,0.4,0.2,0.6c0.2,0.7,0.1,0.8-0.6,1c-0.8,0.2-1.5,0.5-2.3,0.7
		c-0.6,0.2-1.1,0.3-1.7,0.5c0,0,0-0.1,0-0.1c-0.8,0-1.5-0.1-2.3-0.1c-0.8,0-1.6,0.1-2.5,0.1c-0.8,0.1-1.7,0.1-2.5,0.2
		c-0.7,0.1-1.5,0.3-2.2,0.7c-1.9,1-3.9,1-5.9,0.9c-0.5,0-1.1-0.3-1.5-0.7c-0.9-0.7-1.8-1.5-2.5-2.4c-0.5-0.7-0.7-1.6-1-2.4
		c-0.1-0.2,0.1-0.5,0.3-0.6c1.9-1,3.7-2.1,5.6-3c0.8-0.4,1.6-0.5,2.4-0.5c0.4-1,0.7-1.3,0.8-1.7c0.1-0.3,0.1-0.9,0.1-1.2
		c-0.2,0.3-0.5,0.5-0.6,0.8c-0.6,0.9-1.1,1.7-2.3,2c-2,0.5-3.6,1.7-5.4,2.7c-1.2,0.7-2.3,1.3-3.8,1.3c-1.3,0-2.6-0.1-3.5-1.2
		c-0.2-0.2-0.3-0.4-0.4-0.8c0.5,0.2,0.9,0.4,1.4,0.5c1.2,0.2,2.4,0.4,3.6,0.4c0.5,0,1.1-0.4,1.6-0.6c0.1,0,0.1-0.2,0.1-0.3
		c-0.2,0-0.3-0.1-0.5-0.1c-0.5,0.2-1.1,0.5-1.6,0.5c-1.9,0.2-3.6-0.4-5.1-1.4c-0.4-0.3-0.4-0.9-0.7-1.5c0.3,0.1,0.5,0.1,0.6,0.1
		c1.6,0.9,3.3,0.7,5,0.3c0.6-0.1,1.1-0.3,1.7-0.5c0.1-0.1,0.2-0.2,0.4-0.4c-0.2-0.1-0.4-0.2-0.5-0.2c-0.8,0.2-1.5,0.4-2.3,0.6
		C55,70.4,53.4,70,51.9,69c-0.4-0.2-0.9-0.4-1-0.8c-0.2-0.7-0.4-1.4-0.3-2.1c0.1-0.8,0.4-0.9,1.2-0.7c1.7,0.3,3.3,1.2,5.1,0.9
		c0.6-0.1,1.3-0.3,1.8-0.6c0.4-0.2,0.8-0.5,1.2-0.9c-0.2,0-0.4-0.1-0.6,0c-0.2,0-0.3,0.1-0.5,0.3c-1.4,1.2-3,1-4.7,0.6
		c-0.6-0.2-1.3-0.3-1.9-0.5c-0.9-0.2-1.9-1.8-1.8-2.7c0.1-0.5,0.5-0.8,1.1-0.6c0.6,0.1,1.2,0.3,1.8,0.4c1.9,0.3,3.5-0.5,5.1-1.3
		c1.1-0.5,2.2-1,3.3-1.5c0.2-0.1,0.3-0.3,0.4-0.4c-0.2,0-0.5-0.1-0.6-0.1c-1.8,0.8-3.6,1.6-5.4,2.4c-0.4,0.2-0.9,0.3-1.4,0.4
		c-0.2-0.9-0.7-1.5-1.4-2c0.3-0.8,0.9-1.3,1.6-1.6c2-0.9,4.1-1,6.2-0.6c2.4,0.5,4.9,1.2,7.3,1.9c0.5,0.1,0.9,0.6,1.3,0.9
		c0.7,0.7,1.4,1.4,2,2.1c0.7,0.9,1.3,1.9,1.8,2.9c0.6,1.3,1.1,2.8,1.7,4.2c0.1,0.3,0.2,0.1,0.3,1.1h-6.2c0.3,0,0.6,0,0.9,0.1
		c0.8,0.1,1.2,0.7,1.8,1.2c0.7,0.6,1.3,1.3,2.4,1.2c1.3-0.1,2.5-0.3,3.6-1c1.1-0.6,2.3-0.8,3.6-1c0.6-0.1,1,0.1,1.2,0.8
		C83.3,73.2,83.9,74.5,84.5,75.8z M78.1,81.4c0,0.1-0.1,0.2-0.1,0.3c-4,0.2-8.1,0.8-12.1-0.2c0-0.1,0-0.2,0-0.3
		c0.2-0.1,0.4-0.2,0.6-0.2c2.4-0.3,4.9-0.5,7.3-0.8c1.5-0.2,2.7,0.3,4,1C77.8,81.3,78,81.4,78.1,81.4z M46.1,75.6
		c-0.5,0.3-1.3,0.4-2,0.4c-0.4,0-0.9-0.4-1.1,0.6h2.9c-0.5,1-1.7,0.5-2.5,0.7c0.6,0.8,2.1,0.8,3.3-0.5c1.2,0.9,1.4,0.9,3-0.1
		c-0.1,0.5-0.1,0.9-0.3,1.1c-1.1,1.4-2.4,2.6-4.2,2.9c-0.9,0.2-1.8-0.3-2.3-1.1c-0.7-1.1-1.3-2.3-2.1-3.3c-1.3-1.6-2.5-3.3-2.9-5.4
		c-0.4-2.3-0.4-4.7,1.1-6.7c0-0.1,0.1-0.1,0.2-0.1c0.3,0.5,0.6,1,1,1.6c0.1-0.1,0.3-0.1,0.5-0.2c1-0.4,1.9-0.8,3.1-0.8
		c1,0,2.1-0.2,3.2-0.4c0.2,0.5,0.4,1.2,0.6,2c-0.8,0.3-1.6,0.7-2.4,1c-1.3,0.5-2.6,0.8-4,1.3c-0.4,0.1-0.7,0.4-1,0.6
		c-0.1,0.1-0.1,0.3-0.2,0.5c0,0,0.1,0.1,0.1,0.1c0.4-0.2,0.8-0.5,1.2-0.7c1.7-0.6,3.4-1.2,5.1-1.8c0.6-0.2,1.2-0.6,1.8-0.8
		c0.4,0.7,0.9,1.5,1.4,2.4c-1.3,0.7-2.7,1.6-4.1,2.3c-1,0.5-2.2,0.8-3.2,1.2c-0.1,0-0.3,0.1-0.4,0.2c-0.1,0.1-0.2,0.3-0.2,0.5
		c0.2,0,0.4,0.1,0.5,0.1c2.4-0.9,4.8-1.8,6.9-3.2c0.3,0.4,0.5,0.9,0.8,1.3c0.3,0.4,0.6,0.7,1.1,1.1C49,73.5,47.6,74.6,46.1,75.6z
		 M48.6,75.3c0.3,0,0.6,0.6,0.9,0.9c-0.6,0.3-0.9,0.6-1.3,0.7c-0.2,0.1-0.6,0.1-0.8,0c-0.5-0.2-0.7-0.7-0.2-1
		C47.6,75.6,48.2,75.3,48.6,75.3z M51.7,112.7c0.3,0.9,0.8,1.7,1.3,2.5c0.5,1,1.1,2,1.6,3.1c0.1,0.1-0.1,0.5-0.3,0.6
		c-0.2,0.1-0.5,0.1-0.6,0c-0.2-0.2-0.4-0.6-0.6-0.9c-0.8-1.4-1.8-2.8-2.5-4.3c-0.6-1.2-1-2.6-1.1-3.9c-0.2-1.9-0.3-3.8,0.3-5.7
		c0.2-0.7,0.3-1.4,0.4-2.2c0.7,0.5,1,1.1,0.8,1.9C50.3,106.8,50.7,109.8,51.7,112.7z M52,101.5c-0.2-0.1-0.5-0.1-0.7-0.2
		c-0.3-0.1-0.5-0.4-0.7-0.5c-0.9-0.2-1.5-0.9-2.2-1.5c-0.8-0.7-1.6-1.4-2.5-2c-2-1.2-4-2.5-6.3-3.3c-1.2-0.5-2.4-1.2-3.6-1.9
		c-0.2-0.1-0.3-0.4-0.4-0.6c0.3-0.1,0.5-0.4,0.8-0.3c0.7,0.2,1.3,0.4,1.9,0.7c2.7,1.4,5.4,2.9,8.1,4.3c0.7,0.4,1.4,0.9,2.1,1.4
		c0.9,0.7,1.7,1.5,2.5,2.2c0.4,0.4,0.7,0.9,1.1,1.4C52.1,101.3,52.1,101.4,52,101.5z M42.1,87.6c-0.9,0.5-1.6,1.3-2.4,2
		c-0.2,0.2-0.6,0.4-0.9,0.3c-1.2-0.3-2.4-0.7-3.8-1.1c0.4-0.4,0.8-0.8,1.1-1.2c0.3-0.4,0.7-0.8,0.8-1.3c0.1-0.7,0.6-1.1,1.1-1.4
		c2.3-1.1,4.6-2.2,6.8-3.3c0.5,1.4,0.9,2.8,1.3,3.9C44.7,86.2,43.4,86.8,42.1,87.6z M34.7,88.2c-0.8,0.7-1.1,0.8-2.2,0.3
		c1.2-0.8,2.5-1.6,3.7-2.3l0.3,0.3c-0.2,0.3-0.4,0.6-0.7,0.9C35.5,87.7,35.1,87.9,34.7,88.2z M42.1,63.8c-0.5,0.4-1,0.8-1.6,1.1
		c-0.4,0.3-0.6-0.2-0.8-0.4c-0.1-0.2-0.1-0.5,0-0.7c0.3-0.5,0.6-1,1-1.3c1.1-0.9,3-0.6,3.9,0.4c0.3,0.3,0.6,0.7,0.9,1.1
		c-0.3,0.3-0.7,0.3-1.1-0.1C43.5,62.9,43.1,62.9,42.1,63.8z M44.1,64.7h-1.7C43,63.7,43.5,63.7,44.1,64.7z M49.5,65.3
		c-0.2-0.1-0.3-0.2-0.4-0.3c-0.2-0.3-0.3-0.7-0.5-1.1c0.4-0.1,0.9-0.3,1.5-0.5c0.2,0.4,0.4,0.9,0.6,1.3
		C50.5,65.2,50.2,65.6,49.5,65.3z M50,68.4c-0.9-0.5-1.4-1.1-1.5-2c0-0.2,0.2-0.5,0.3-0.5c0.3,0,0.7,0,0.8,0.1
		C49.9,66.8,50.2,67.5,50,68.4z M49.1,63.2c-0.6,0.2-1.2,0.3-1.9,0.4c-0.2-1.2,0.5-1.9,1.6-1.7c0.1,0,0.2,0,0.3,0.1
		c0.3,0.2,0.6,0.4,0.9,0.5C49.7,62.8,49.5,63.1,49.1,63.2z M47.4,64c0.1,0,0.2,0,0.3-0.1c0.3,0.3,0.7,0.7,0.9,1.1
		c0,0.1-0.5,0.4-0.7,0.7c-0.2-0.4-0.5-0.7-0.7-1.1C47.2,64.5,47.4,64.2,47.4,64z M49.8,70.8c-0.2-0.3-0.3-0.8-0.3-1.2
		c0-0.2,0.5-0.5,0.7-0.4c0.3,0,0.7,0.2,0.8,0.5c0.8,1,0.7,1.3-0.2,2.2C50.5,71.5,50.1,71.3,49.8,70.8z M52.1,61.2
		c0.4-0.3,0.9-0.9,1.2-0.9c0.4,0.1,0.7,0.7,1.1,1.1c-0.1,0.1-0.1,0.2-0.2,0.3c-0.7-0.1-1.3-0.2-2-0.2C52.2,61.4,52.2,61.3,52.1,61.2
		z M75.7,71.7c0,0.5-0.2,0.8-0.7,0.9c-1,0.1-1.8-0.2-2.4-1.3c0.5-0.1,0.8-0.1,1.2-0.1c0.4,0,0.8,0,1.2,0
		C75.4,71.2,75.7,71.2,75.7,71.7z M96.4,49.7c0.7,0.7,1.5,1.3,2.3,2.1c0.3,0.3,0.5,0.7,0.7,1.1c0.4,0.9,0.9,1.6,1.7,2.1
		c0.4,0.2,0.7,0.5,1.1,0.8c0.8,0.6,1.4,1.4,1.6,2.5c0.2,1.1,0.5,2.3,0.5,3.4c0,0.7-0.2,1.3-0.8,1.9c-3.2,2.7-6.9,4.4-10.8,5.5
		c-1.1,0.3-2.2,0.2-3.3,0.4c-1.9,0.3-3.9,0.7-5.8,1c-0.3,0.1-0.6,0.1-0.9,0.2c-0.1,0-0.3-0.1-0.4-0.1c0.1-0.1,0.1-0.3,0.2-0.4
		c0.8-0.5,1.7-1,2.6-1.6c2-1.2,4.1-2.4,5.9-4.1c-0.3,0-0.5,0-0.6,0c-0.2,0-0.3,0.2-0.5,0.3c-1.8,1.8-4.2,2.8-6.4,4
		c-1.2,0.7-2.5,1.4-3.8,2.1c-0.8,0.4-1.5,0.8-2.3,1.1c-0.4,0.2-0.9,0.3-0.8-0.3c0.2-1.7-0.7-3-1.3-4.5c-0.6-1.4-1-2.9-2-4.1
		c-0.4-0.5-0.9-1-1.4-1.6c-0.8-0.9-1.5-1.7-2.3-2.7c0.2-0.1,0.4-0.2,0.6-0.2c1.9-0.6,3.8-1,5.8-1c1.9,0,3.8-0.6,5.5-1.6
		c2.4-1.4,5.1-2.1,7.8-2.7c1.2-0.3,2.5-0.2,3.8-0.4c0.3,0,0.5-0.3,0.8-0.4c-0.3-0.1-0.5-0.4-0.8-0.4c-2,0.1-4,0.4-6,1
		c-0.3,0.1-0.5,0.1-0.9,0.2c0.8-1.4,1.3-2.6,2.7-3.4c1.7-1,3.4-1.3,5.3-1.3C95,48.5,95.7,48.9,96.4,49.7z M67.9,25.1
		c0.1-0.1,0.1-0.4,0.1-0.5c-0.2-0.9,0.5-1.4,0.8-2.1c0.1,0,0.1,0,0.2,0l-0.5,7.2h-0.2c-0.1,0-0.1-1-0.2-1.5c-0.1-0.5-0.1-1-0.2-1.5
		C67.7,26.1,67.4,25.6,67.9,25.1z M67.3,23.9c-0.2-0.9-0.5-1.8-0.3-2.8c0.1-0.5,0.5-0.7,0.9-0.6c0.3,0.1,0.7,0.4,0.9,0.8
		c0.2,0.3,0.2,0.6-0.2,0.9C68.1,22.5,67.7,23.2,67.3,23.9z M68.5,14.8c0.7,0.9,1.4,1.8,1.9,2.8c0.4,0.8,0.6,1.7,0.8,2.6
		c0.2,1.6,0.5,3.2,0.5,4.9c0,1.3,0.3,2.6-0.4,3.9c0.2,2.1-1.3,3.6-2.3,5.2c0,0-0.1,0.1-0.3,0.1c0-1.1-0.1-2.2,0-3.2
		c0.1-1.9,0.4-3.8,0.5-5.6c0.1-1.3,0.1-2.6,0.1-4c0-1-0.7-1.6-1.6-1.7c-0.3,0-0.5-0.2-0.7-0.3c0.1-1.9,0.1-3.8,0.2-5.6
		c0.1,0,0.2-0.1,0.2-0.1C67.9,14.1,68.3,14.4,68.5,14.8z M66.6,9.3c0.2,0,0.7,0,0.7,0.2c0.3,0.8,0.5,1.7,0.6,2.5
		c0,0.3-0.5,0.6-0.8,0.9c-0.2-0.3-0.5-0.5-0.6-0.8c-0.2-0.7-0.3-1.5-0.5-2.4C66.2,9.6,66.4,9.3,66.6,9.3z M45,1.3
		c0.3,0.4,0.6,0.8,0.8,1.1c0.3,0.5,0.4,1.1,0.7,1.6c0.3,0.6,0.5,1.2,0.9,1.7c0.5,0.8,1.1,1.5,1.6,2.3c0.2,0.3,0.3,0.7,0.3,1.1
		c0,0.1-0.3,0.3-0.5,0.5c-0.1-0.1-0.3-0.3-0.3-0.4c0-0.7-0.5-1.1-1-1.6c-0.8-0.6-1.6-1.3-1.7-2.5c-0.1-0.8-0.5-1.6-1.1-2.2
		C43.7,2,43.9,1.6,45,1.3z M37,23.9c-0.3-1.1-0.1-2.2,0.3-3.3c0.2-0.4,0.3-0.9,0.3-1.4c0-0.8,0.4-1.4,0.9-1.9
		c0.6-0.5,1.1-1.2,1.7-1.6c0.7-0.5,1.5-1.1,2.3-1.4c1.4-0.5,3-0.9,4.5-1.2c0.2-0.1,0.6,0.1,0.8,0.3c0.3,0.4,0.3,0.8,0,1.2
		c-0.7,1-1.4,2-2,3.1c-0.3,0.6-0.4,1.3-0.6,1.9c0,0.1,0.1,0.3,0.2,0.5c0.8-1.1,1.5-2.2,2.2-3.2c0.8-1.1,1.9-2,3.1-2.8
		c1.7-1,3.6-1.1,5.4-1.7c0.8-0.2,1.5-0.5,2.2-0.8c0.9-0.4,1.4-0.4,1.9,0.5c0.7,1.1,1.7,1.6,2.9,1.8c0.6,0.1,0.9,0.4,1.2,0.8
		c0.7,1.5,1.4,3.1,2,4.7c0.2,0.4,0.1,0.9,0.2,1.3c0.2,1.7,0.5,3.5,0.8,5.2c0.2,1.6,0.4,3.2,0.6,4.7c0.1,0.9,0.3,1.7,0.3,2.6
		c0,0.7,0,1.4,0,2.1c0,0.9,0,1.8,0,2.7c0.1,2.5-1,4.4-2.6,6.2c-1.2,1.3-2.4,2.6-3.7,3.7c-1.3,1.1-2.8,1.7-4.6,1.4
		c-1-0.2-2-0.3-3-0.5c-0.6-0.1-1.2-0.2-1.7-0.4c-1.1-0.3-2.2-0.7-3.2-1.1c-2.5-1-4.7-2.4-5.9-4.9c-0.8-1.4-1.4-2.9-2-4.4
		c0-0.1-0.1-0.2-0.2-0.3c-0.3-0.4-0.7-0.9-1-1.3c-0.3-0.5-0.6-1.1-0.9-1.7c0-0.1-0.1-0.1-0.1-0.2c-0.7-1.8-1.5-3.7-2.2-5.5
		c-0.1-0.2-0.1-0.4,0-0.6C37.5,27.2,37.3,25.5,37,23.9z M61.7,49.2c-0.6,1.6-1.3,2.9-2.6,3.8c-1,0.7-2.3,1-3.5,1.4
		c-1.6,0.5-3.2,0.4-4.8,0.3c-0.4,0-0.9-0.2-1.2-0.5c-0.8-0.7-1.6-1.5-2.3-2.3c-1.3-1.5-1.6-3.5-2.2-5.3c0-0.1,0-0.3,0.1-0.4
		c0.1,0,0.2,0,0.2,0c1.5,1.2,3.3,1.8,5.1,2.5c2.3,0.9,4.6,1.3,6.9,1.7c1.5,0.2,2.7-0.2,3.9-1C61.5,49.4,61.6,49.3,61.7,49.2z
		 M36.2,36.7c-0.2-0.4-0.5-0.7-0.7-1.1c-0.8-1.5-1.6-3-2.3-4.5c-0.2-0.4-0.2-1-0.2-1.5c0-0.4,0.3-0.7,0.8-0.6c0.1,0,0.3,0,0.4,0.1
		c0.5,0.1,1.1,0.1,1.4,0.3c1,0.9,1.3,1.6,1.4,2.7c-0.7-0.4-1.4-0.8-2.1-1.1c-0.6-0.3-0.6-0.2-0.6,0.5c0.1,1.6,1,2.7,1.7,4
		c0.3,0.6,0.8,1.1,1.3,1.6c0.3,0.3,0.5,0.2,0.7-0.2c0.1-0.2,0.3-0.5,0.4-0.5c0.3,0,0.7,0.2,0.9,0.4c0.4,0.6,0.7,1.2,1,1.9
		c0,0-0.1,0.1-0.2,0.1C38.6,38.6,37.1,38.3,36.2,36.7z M38.4,35.6c-0.3,0.2-0.6,0.5-1,0.8c-1-1.4-1.8-2.9-2.4-4.5
		C37.1,32.3,37.7,34,38.4,35.6z M32.3,43.3c0.3-0.5,0.9-0.8,1.4-1c0.9-0.4,1.9-0.7,2.9-1.1c0.7-0.3,1.4-0.8,2.1-1.3
		c0.1-0.1,0.1-0.4,0.2-0.6c0.5,0,1.1-0.1,1.7,0c0.3,0,0.6,0.4,0.7,0.7c0.5,1,0.9,2,1.3,3c0.3,0.6,0.9,1.1,0.6,1.9
		c0,0.1,0,0.3,0.1,0.4c0.8,2.2,1.5,4.5,2.4,6.7c0.6,1.4,1.5,2.8,2.8,3.6c1.3,0.9,2.8,1.3,4.4,1.1c2.1-0.2,4.1-0.5,6-1.4
		c1.6-0.7,2.9-1.7,3.6-3.5c0.6-1.7,1.5-3.3,2.3-4.9c0-0.1,0.1-0.1,0.1-0.2c-0.1-1,0.7-1.3,1.2-1.8c1.5-1.3,2.1-3,2.6-4.8
		c0.2-0.5,0.1-1.1,0.1-1.6c0-0.7,0-1.4,0-2c1.2-0.3,2.3-0.4,3.4-0.8c2.1-0.8,3.7-0.1,5.1,1.4c1.2,1.3,2.6,2,4,2.9c1.5,1,3,2,4.5,3.1
		c0.5,0.4,0.9,0.8,1.4,1.2c0.1,0,0.1,0.1,0.2,0.1c1.2,0.1,1.9,1,2.9,1.5c1.2,0.6,2.3,1.2,3.6,1.9c-0.9,0.1-1.6,0.1-2.3,0.2
		c-2.5,0.4-4.4,1.6-5.6,3.9c-0.2,0.5-0.5,0.9-0.7,1.4c-0.1,0.1-0.3,0.2-0.4,0.3c-1.3,0.5-2.6,1.1-3.8,1.6c-0.2,0.1-0.5,0.3-0.8,0.2
		c-1.6-0.3-3.3-0.6-4.4-2c-0.7-0.9-1.2-1.9-1.5-3c-0.7-2.3,0-4.7,0-7c0-1.6,0.4-3.1,0.6-4.7c0.1-0.7,0.5-1.4,0.7-2.1
		c0-0.2,0-0.4,0-0.5c-0.2,0.1-0.4,0.1-0.5,0.3c-0.3,0.5-0.6,1-0.7,1.6c-0.3,1.5-0.6,3-0.8,4.6c-0.2,2-0.3,4-0.4,6
		c-0.1,2.4,0.9,4.4,2.5,6.1c0.4,0.4,1.1,0.7,1.6,1c0.4,0.2,0.8,0.3,1.3,0.5c-1.2,1-2.6,1-3.8,0.9c-2-0.2-3.7,0.5-5.4,1.1
		c-1.1,0.4-2.1,0.5-3.2,0.2c-1.4-0.4-2.8-0.8-4.1-1.2c-0.2-0.1-0.3-0.1-0.5-0.1c-2.5-0.4-5-0.3-7.3,1c-0.6,0.4-1.1,1.1-1.5,1.8
		c-0.5,0.8-1.1,1.4-2,1.7c-0.6,0.2-1.2,0.2-1.7,0.1c-1.5-0.3-2.5,0.6-2.2,2.2c-0.2,0-0.4,0.1-0.5,0c-0.6-0.5-1.1-1.1-1.6-1.6
		c-0.3-0.2-0.6-0.5-0.9-0.5c-1-0.1-2-0.3-3,0.3c-0.4,0.2-0.8,0.5-1.2,0.8c-0.3-1.1-0.5-2.3-0.8-3.4c-0.4-1.6-0.9-3.1-1.4-4.6
		c-0.3-0.8-0.5-1.6-0.9-2.4c-1.2-2.6-2.4-5.1-3.6-7.7C32.6,44.1,32.2,43.5,32.3,43.3z M23.5,68.4c0.5-2.5,0.9-5,1-7.6
		c0-2.3,0.2-4.5,1.1-6.6c0.7-1.6,1.6-3.1,2.5-4.6c0.4-0.7,0.7-1.4,1.1-2.1c0.7-1.2,1.5-2.5,2.3-3.7l0.3,0c1,2.1,2,4.2,3,6.3
		c0.7,1.6,1.5,3.2,2.1,4.9c0.4,1,0.5,2,0.8,3c0.3,1.2,0.5,2.4,0.8,3.5c0.2,1,0.1,1.8-0.5,2.6c-0.8,1.1-1.2,2.4-1.2,3.9
		c0,0.2-0.2,0.6-0.4,0.7c-1.4,0.9-2.8,1.7-4.2,2.5c-0.3,0.2-0.8,0.1-1.1,0c-1.4-0.4-2.9-0.7-4.4-0.5c-1.3,0.2-2.6,0.3-3.8,1
		c-0.1,0-0.2,0-0.3,0.1C22.9,70.6,23.3,69.5,23.5,68.4z M21.7,85.8c-0.3-0.5-0.6-1-0.9-1.6C20.2,82.9,20,81.5,20,80
		c0.1-2.5,0.8-4.9,2.1-7.1c0.3-0.5,1.1-1,1.7-1.1c1.9-0.4,3.8-0.8,5.7-0.3c0.3,0.1,0.6,0.2,0.8,0.4c-0.4,0.1-0.7,0.2-1.1,0.2
		c-1.8,0.1-3.2,1.1-4.6,2c-0.5,0.3-1,0.6-1.5,1c-0.2,0.1-0.2,0.3-0.3,0.5c0.2,0,0.4,0.1,0.6,0c0.4-0.2,0.8-0.3,1.1-0.6
		c1.5-1.2,3.2-2,5.2-2.4c1.2-0.2,2.3-0.8,3.5-1.3c0,0.1,0,0.2,0,0.3c-0.7,2.2-1.1,4.4-2.2,6.4c-0.6,1.1-1,2.3-1.5,3.5
		c-0.1,0.2,0,0.4,0.1,0.6c0,0,0.3,0.1,0.3,0c0.1-0.2,0.1-0.4,0.2-0.6c0.3-0.8,0.5-1.6,0.8-2.3c0.3-0.7,0.6-1.3,1-1.9
		c1-1.7,1.2-3.7,1.7-5.6c0.2-0.7,0.6-1.1,1-1.5c0.6-0.5,1.2-0.8,1.9-1.2c0.1,0.2,0.1,0.3,0.1,0.5c0,1.7,0.6,3.1,1.5,4.5
		c1.1,1.8,2.4,3.5,3.4,5.5c0.2,0.5,0.7,0.9,1.1,1.4c-0.8,0.5-1.6,1-2.4,1.4c-2.7,1.5-5.5,2.7-7.9,4.8c-1,0.9-2.3,1.3-3.7,1.5
		c-0.1,0-0.3,0-0.3,0.1c-0.4,0.7-1.1,0.6-1.7,0.6C24.1,89.4,22.8,87.7,21.7,85.8z M31,137.3c-1.3-0.4-2.7-0.5-4.1-0.7
		c-2.5-0.5-4.8-2.2-4.9-4.8c0-0.6,0.2-1,0.7-1.4c2.2-1.5,4.6-2.8,7.3-3.4c1.4-0.3,2.7-0.8,4.1-1.1c0.4-0.1,0.8-0.1,1.1-0.2
		c0,0,0.1-0.1,0.1-0.1c0.4,0.2,0.8,0.3,1.1,0.6c2.1,2.4,4.1,4.8,6.2,7.3c1.3,1.5,1.1,2.3-0.6,3.7c-0.5,0.4-1.3,0.5-2,0.8
		c-0.5,0.2-1,0.4-1.4,0.8c-0.5,0.4-0.8,0.5-1.5,0.5C34.9,139.2,33,138,31,137.3z M37.2,148.4c0-0.9,0.3-1.1,1.2-1.1
		c0.5,0,1.1-0.2,1.6-0.3c0.3,0,0.5,0,0.8,0c0,0.4,0.2,1.1,0,1.3c-0.6,0.5-1.4,0.9-2.2,1.2C37.8,149.6,37.1,149,37.2,148.4z
		 M37.1,145.6c0.1-0.2,0.4-0.4,0.6-0.4c0.8,0,1.5-0.2,2.1-0.7c0.3-0.3,0.5-0.1,0.6,0.2c0.3,0.9,0.2,1.2-0.7,1.6
		c-0.4,0.2-0.9,0.3-1.4,0.4c-0.3-0.1-0.7-0.2-0.9-0.4C37.1,146.2,37,145.8,37.1,145.6z M57.7,131.1c0.7,0.4,1.2,1.1,1.9,1.6
		c-0.2,0.1-0.4,0.2-0.8,0.3c2.8,0.7,4.7,2.5,6.2,4.7c-1.2-0.7-2.5-0.7-3.8-0.6c-1.3,0-2.6,0-3.7,0.7l0,0.3c0.2,0,0.4,0,0.6,0
		c0.8-0.1,1.5-0.3,2.2-0.4c0.5-0.1,1.1,0,1.6,0c1.2-0.1,2.1,0.4,3,0.9c0.1,0.1,0.2,0.4,0.2,0.6c0,1.7-0.7,2.9-2.1,3.9
		c-1.7,1.3-3.7,1.7-5.7,2.3c-3.1,1-6,2.1-8.9,3.6c-1.7,0.9-3.5,1.2-5.4,1.3c-0.8,0-1.6,0.1-2.3,0.7c-0.4,0.3-1,0.6-1.5,0.7
		c-0.4,0.1-0.9-0.1-1.3-0.3c-0.4-0.2-0.3-1,0.1-1.1c0.9-0.3,1.8-0.7,2.7-1c0,0,0.1,0,0.2,0c0.1,0.2,0.1,0.4,0.2,0.5
		c0.1,0.2,0.3,0.3,0.5,0.4c0.1-0.2,0.4-0.5,0.3-0.6c-0.1-0.9-0.3-1.8-0.5-2.7c-0.2-1-0.4-2-0.7-3.1c0.2,0.1,0.4,0.1,0.6,0.2
		c0.6,0.2,1.2,0.2,1.9,0c1.6-0.3,2.8-1.4,3.9-2.5c0.1-0.1,0.1-0.4,0.2-0.6c-0.2,0-0.4,0-0.7,0.1c-0.1,0-0.3,0.2-0.4,0.3
		c-0.9,1.2-2.1,1.8-3.5,2.1c-0.3,0.1-0.7,0.1-1.1-0.1c-0.4-0.2-0.8-0.5-1.2-0.8c-0.2-0.2-0.5-0.3-0.8-0.4c0,0.3,0,0.6,0,0.9
		c0.1,0,0.1,0.1,0.2,0.1c-0.5,0.4-0.9,0.8-1.4,1.1c-1,0.5-2-0.2-1.9-1.3c0.1-1.9,0.9-3.2,2.8-3.8c0,0,0,0,0.1,0
		c0.8-0.8,1.8-0.6,2.7-0.6c0.5,0,1.1,0.1,1.6,0c0.2,0,0.4-0.2,0.6-0.3c-0.2-0.1-0.4-0.3-0.6-0.3c-0.3-0.1-0.6,0-1.1,0
		c0.3-0.3,0.5-0.6,0.7-0.8c0.3-0.4,0.5-0.9,0.7-1.4c0.2-0.3,0.3-0.7,0.5-1c0.5-0.8,1.3-1.5,1.4-2.6c0.1-0.4,0.5-0.7,0.8-1.1
		c0.1-0.1,0.1-0.3,0.2-0.4c-0.2,0-0.4-0.1-0.5,0c-0.3,0.2-0.5,0.5-0.7,0.8c-0.5,0.9-1,1.7-1.6,2.6c-2.3-3-5.2-5.5-7.1-8.9
		c0.3-0.1,0.5-0.1,0.6-0.1c2.4-0.1,4.9-0.2,7.2,0.6c1.7,0.5,3.3,1.2,5,1.8c1.3,0.4,2.6,0.8,3.8,1.3
		C55.1,129.5,56.4,130.3,57.7,131.1z M67,103.9c-0.2,1.9-0.5,3.7-0.8,5.6c-0.1,0.6-0.4,1.3-0.6,1.9c-0.2,0.5-0.4,1.1-0.5,1.6
		c-0.2,1.2-0.3,1.3-1.7,1.3c0.1-0.5,0.1-1,0.2-1.5c0.1-0.6,0.3-1.1,0.5-1.6c1.1-3.2,1.3-6.5,1.8-9.7c0.1-0.4,0.1-0.9,0.2-1.3
		c0-0.3,0.1-0.6,0.5-0.6c0.4,0.1,0.7,0.2,0.7,0.7C67.2,101.5,67.2,102.7,67,103.9z M64.9,94.9c-0.2,0.1-0.5-0.1-0.9-0.1
		c1.3-1.1,2.8-1.9,2.8-3.7c-0.1-0.1-0.1-0.1-0.2-0.2c-0.3,0.3-0.7,0.6-0.9,1c-0.8,1.8-3,3.1-5,3c-1.3-0.1-2.6,0.1-3.9,0.1
		c-1.8,0-3.6-0.2-5.4-0.3c-0.9-0.1-1.5-0.6-1.9-1.3c-0.8-1.6-1.7-3.2-1.9-5.1c-0.2-1.9-0.6-3.8-1-5.7c-0.1-0.5-0.3-1-0.4-1.4
		c0.9-0.8,1.8-1.5,2.6-2.2c0.6-0.6,1-1.3,1-2.2c0-1.1-0.3-1.7-1.3-2.3c1.1-0.9,2.1-1.7,3.2-2.6c0.8,1,1.4,2.4,2.9,2.8
		c1.3,0.3,2.7,0.2,4.2,0.3c0.4,2,1.6,3.7,3.1,5.1c1.1,1.1,2.3,2,3.8,2.5c2.9,0.9,5.9,0.6,8.8,0.6c1.1,0,2.2-0.3,3.3-0.4
		c0.8-0.1,1.5,0.1,1.9,0.8c0.8,1.3,1.6,2.6,1.7,4.2c0,0.3,0.2,0.6,0.3,0.8c0.2,0.6,0.1,1.2-0.3,1.7c-0.5,0.5-0.9,1.2-1.4,1.6
		c-0.4,0.3-0.9,0.6-1.3,0.6c-1.6,0.1-3.1,0.3-4.7,0.2c-2.1-0.1-4,0.4-6,1.2C67,94.4,65.9,94.6,64.9,94.9z M74.2,97.5
		c-1.4-0.4-2.8-0.7-4.2-1c-0.6-0.1-1.2-0.2-1.9-0.4c1-0.7,1.9-1,2.9-0.7c1,0.3,2,0.5,3,0.8c4.2,1,8.4,2.3,12.7,2.5
		c1.5,0.1,3,0.3,4.4,0.7c2.3,0.6,4.6,0.6,6.9,0.6c2.5,0,5,0.1,7.5,0.1c0.1,0,0.1,0.1,0.2,0.1c-0.1,0.3-0.1,0.7-0.2,1
		c-0.2,0.2-0.5,0.4-0.8,0.4c-2.1,0-4.3,0.1-6.4-0.1c-2.9-0.2-5.8-0.6-8.7-1c-3.3-0.4-6.7-0.8-10-1.4C77.8,98.7,76.1,98,74.2,97.5z"
		/>
	<path class="st0" d="M51.9,43.2c1-1,1.9-1.9,2.8-2.8c0.5-0.5,0.9-0.9,1.6-0.9c0.1,0,0.3,0,0.5-0.1c1-0.8,2.1-0.6,3.1-0.1
		c0.8,0.4,1.6,0.9,2.4,1.4c-0.5,0.8-0.9,1.8-1.6,2.4c-0.9,0.9-1.9,1.9-3.5,1.6c-0.5-0.1-1,0-1.5,0c-0.9,0-1.6-0.3-2.2-1
		c-0.3-0.4-0.7-0.6-1.2-0.5C52.3,43.3,52.1,43.2,51.9,43.2z M61.4,41.2c-0.6,0.1-1.1,0.2-1.5,0.4c-1.1,0.6-2.2,0.7-3.4,0.8
		c-1,0.2-2,0.3-3.1,0.5c1.3,1.9,3.1,1.5,4.7,1.3C59.7,44,60.8,42.9,61.4,41.2z M61.4,40.7c-0.2-0.2-0.4-0.2-0.5-0.4
		c-1.6-1.6-3.5-1.2-5.2-0.3c-1,0.5-1.7,1.5-2.5,2.3c0,0,0.1,0.1,0.1,0.1C54.4,42,59.6,40.8,61.4,40.7z"/>
	<path class="st0" d="M47.5,31c-1-0.2-2.1-0.3-3.1-0.5c-0.4-0.1-0.4-0.3-0.2-0.6c0.9-1.1,2-1.9,3.3-2.5c1-0.5,1.9-0.4,2.8,0.3
		c0.7,0.6,0.8,1.6,0,2.1C49.5,30.5,48.6,31,47.5,31z M50,28.3c-0.1,1.3-0.5,1.7-1.4,1.8c-0.3,0-0.7,0-0.8-0.2
		c-0.3-0.4-0.6-0.9-0.9-1.4c-0.6,0.5-1.2,1-1.9,1.6c1.8,0.5,3.4,0.7,4.9-0.3C50.4,29.4,50.5,28.9,50,28.3z"/>
	<path class="st0" d="M64.2,25.4c-1.1,1.2-2.1,2-3.5,2.1c-0.8,0-1.5,0.2-2.3,0.2c-0.9,0-1-0.3-0.7-1.1c0.4-1.2,1.1-2,2.4-2.2
		c0.9-0.2,1.8-0.5,2.7,0C63.3,24.6,63.7,25,64.2,25.4z M59.7,25.1c-1.1,0.4-1.5,1.2-1.8,2.2c0.9,0.1,1.7,0.2,2.7-0.2
		C59.4,26.7,59.5,25.9,59.7,25.1z M61.9,26.8c0.5-0.4,1-0.8,1.5-1.2c0-0.1-0.1-0.1-0.1-0.2c-0.2,0.1-0.5,0.2-0.7,0.2
		c-0.1-0.2-0.3-0.4-0.3-0.5C62.2,25.6,62.1,26.2,61.9,26.8z"/>
	<path class="st0" d="M51.8,26.5c0.2,0.3,0.4,0.5,0.6,0.8c0.8,1.5,1.6,3.1,1.4,4.8c-0.1,0.9-0.4,1.7-0.6,2.6c-0.1,0.5-0.3,1-0.3,1.5
		c0,0.4,0.2,0.6,0.7,0.7c0.5,0,0.6-0.2,0.6-0.6c0.1-0.7,0.6-0.9,1.2-0.5c0.4,0.3,1.3,0.1,1.6-0.3c0.1-0.1,0.1-0.2,0.2-0.3
		c0.3-0.2,0.6-0.3,0.9-0.4c0.1,0.2,0.1,0.5,0.3,0.9c0.4-0.3,0.8-0.4,1-0.8c0.2-0.4,0.1-0.9-0.3-1.2c-0.3-0.3-0.6-0.6-0.9-0.8
		c-0.7-0.5-0.9-1.2-1.2-2c0.2,0,0.3,0,0.3,0.1c0.4,1.2,1.4,1.7,2.2,2.6c0.5,0.6,0.6,1.3,0.3,1.9c-0.4,0.6-1,0.8-1.8,0.6
		c-0.2-0.1-0.5,0-0.8,0.1c-0.4,0.1-0.8,0.3-1.1,0.4c-0.4,0.2-0.8,0.3-1.2,0.5c-0.6,0.4-1.2,0.6-1.9,0.2c-0.5-0.3-0.7-1.2-0.4-2
		c0.2-0.7,0.6-1.4,0.7-2.2c0.1-0.9,0.2-2-0.1-2.9c-0.3-1.1-0.9-2.1-1.4-3.2c-0.1-0.1,0-0.3-0.1-0.4C51.7,26.5,51.7,26.5,51.8,26.5z"
		/>
	<path class="st0" d="M64.3,22c-0.2,0.1-0.3,0.3-0.5,0.3c-1.9-0.2-3.4,0.9-5,1.8c-0.1,0.1-0.2,0.2-0.4,0.2c-0.3,0-0.5-0.1-0.8-0.2
		c0.1-0.3,0.1-0.6,0.3-0.7c1.5-1.4,3.3-2.1,5.3-2c0.4,0,0.7,0.2,1.1,0.4C64.3,21.8,64.3,21.9,64.3,22z"/>
	<path class="st0" d="M42,28.3c-0.6-0.3-0.5-0.6-0.2-0.9c0.7-0.5,1.3-1.2,2.1-1.4c1.1-0.4,2.4-0.4,3.5-0.6c0.2,0,0.5,0.3,0.7,0.5
		c-0.2,0.1-0.5,0.4-0.7,0.4c-0.8,0.1-1.5,0.1-2.3,0.2C43.9,26.8,42.8,27.2,42,28.3z"/>
</g>
</svg>
