<?xml version="1.0" encoding="utf-8"?>
<!-- Generator: Adobe Illustrator 19.1.0, SVG Export Plug-In . SVG Version: 6.00 Build 0)  -->
<svg version="1.1" id="Layer_1" xmlns="http://www.w3.org/2000/svg" xmlns:xlink="http://www.w3.org/1999/xlink" x="0px" y="0px"
	 viewBox="0 0 80 114.4" style="enable-background:new 0 0 80 114.4;" xml:space="preserve">
<style type="text/css">
	.st0{fill:none;stroke:#03A9F4;stroke-miterlimit:10;}
</style>
<g id="baby-icon">
	<path class="st0" d="M13,95.4c-1.2-3.3-2.4-7-1.3-10.4c0.9-2.6,3-4.6,5-6.4c1.6-1.5,3.5-3,5.6-3c2.2,0,4.1,1.7,5.6,3.2
		c1.1,1,2.2,2.1,3.2,3.1c1,0.9,2,2.1,1.9,3.4c-0.3,1.7-2.4,2.6-3.2,4.1c-0.9,1.7-0.2,3.7,0.5,5.4c1.1,2.6,2.1,5.2,3.1,7.8
		c1.3,3.2,0.4,7.1-2.3,9.3c-3.4,2.8-9,2.2-11.8-1.1c-1.3-1.5-2-3.5-2.7-5.3C15.5,102.2,14.3,98.7,13,95.4"/>
	<path class="st0" d="M44.5,103c1.6-3.3,3.1-6.7,4.6-10c0.3-0.7,0.6-1.4,0.6-2.1c-0.2-2.3-3.7-3.2-3.7-5.5c0-1.2,1-2.1,1.9-2.9
		c2.2-1.8,4.3-3.6,6.5-5.3c0.6-0.5,1.2-1,2-1.2c1.2-0.2,2.3,0.5,3.2,1.2c3.9,2.7,8.2,6,8.6,10.7c0.2,2.7-1,5.3-2.2,7.8
		c-1.8,3.9-3.7,7.9-5.5,11.8c-0.8,1.6-1.5,3.1-2.7,4.4c-2.6,2.8-7.3,3.3-10.4,1.2C44.2,110.9,43,106.4,44.5,103"/>
	<path class="st0" d="M39.7,0.3c2-0.4,4.1-0.4,6.1,0.1c6.1,1.4,11.1,6.5,12.4,12.6c1.3,6.1-1.3,12.8-6.4,16.4
		c-1.1,0.8-2.3,1.5-3.6,1.9c-2.7,1-5.6,0.8-8.5,0.7c-2-0.1-4-0.2-5.8-0.9c-1.2-0.5-2.2-1.2-3.2-2c-4.8-4.2-6.9-11.2-4.9-17.3
		C27.7,5.6,33.4,0.9,39.7,0.3"/>
	<path class="st0" d="M55.1,66.7c-1,0.6-2.3,0.6-3.5,0.6c-8.6-0.2-17.3-0.5-26-0.7c-1.8-3.9-1.9-8.6-0.4-12.6
		c-3.3,2.2-6.3,4.7-9.1,7.5c-2.4,2.4-4.7,5.1-8,6.2c-3.2,1.1-7.6-0.4-8.1-3.8c-0.5-2.8,1.9-5.2,4-7.1c5.7-5.2,11.5-10.3,17.3-15.5
		c2.7-2.5,5.7-5,9.4-5c5.7,0,11.5,0,17.2,0c2.2,0,4.5,0,6.5,0.9c1.6,0.7,2.9,2,4.1,3.2c5.5,5.2,11,10.5,16.4,15.8
		c1.8,1.7,3.6,3.5,4.5,5.8c0.9,2.3,0.6,5.3-1.5,6.7c-3.2,2.3-7.5-0.7-10.3-3.5C64.4,61.8,61,58.4,57.6,55
		C55,58.2,58.6,64.4,55.1,66.7"/>
</g>
</svg>
