<?xml version="1.0" encoding="utf-8"?>
<!-- Generator: Adobe Illustrator 19.1.0, SVG Export Plug-In . SVG Version: 6.00 Build 0)  -->
<svg version="1.1" id="Layer_1" xmlns="http://www.w3.org/2000/svg" xmlns:xlink="http://www.w3.org/1999/xlink" x="0px" y="0px"
	 viewBox="0 0 200 95.9" style="enable-background:new 0 0 200 95.9;" xml:space="preserve">
<style type="text/css">
	.st0{fill:#03A9F4;}
</style>
<path class="st0" d="M190.3,88.8c0,1.8-0.1,3.8-1.2,5.3c-1.4,1.8-4.2,2.3-6.1,1c-2.5-1.7-2.6-5.3-2.4-8.4c0.5-8.6,0.6-17.3,0.4-26
	c-0.5-0.5-1.4-0.2-1.8,0.5c-0.4,0.6-0.4,1.4-0.4,2.1c0,8.3,0,16.6-0.1,24.9c0,2.1-0.1,4.4-1.4,5.9c-1.6,1.9-4.8,2-6.5,0.2
	c-1.6-1.7-1.7-4.2-1.6-6.5c0.2-12.1,0.4-24.3,0.5-36.5c0-0.6,0-1.2,0.5-1.6c0.4-0.4,1-0.4,1.6-0.4c5.5,0.1,10.9,0.2,16.4,0.3
	c0.8,0,1.8,0.1,2.3,0.8c0.3,0.4,0.3,0.9,0.3,1.4C190.6,64.1,190.4,76.5,190.3,88.8"/>
<path class="st0" d="M80.2,70c-0.2-0.5-0.2-1.1,0.3-1.3c0.2-0.1,0.3-0.1,0.5-0.1c1.3-0.2,2.6-0.3,4-0.3c0.2,1.1-0.2,2.3-1.1,2.9
	C82.6,72,80.7,71.4,80.2,70"/>
<path class="st0" d="M61,68.2c0.2,0,0.4,0.1,0.5,0.2c0.3,0.2,0.3,0.7,0.2,1.1c-0.4,1.4-2.2,2.1-3.4,1.4c-1.3-0.6-1.7-2.5-0.9-3.6
	C58.6,67.6,59.8,67.9,61,68.2"/>
<path class="st0" d="M139.3,54.1c0.2,0.2,0.3,0.6,0.3,0.9c0.4,2.6,0.5,5.2,0.5,7.9c0,1.6-0.2,3.4-1.5,4.4c-1,0.5-2.2,0.3-3.1-0.3
	c-0.9-0.6-1.4-1.7-1.3-2.8c0.3-3.4,0.2-6.7-0.3-10.1c1.5-0.2,2.9-0.3,4.4-0.2C138.7,53.8,139,53.9,139.3,54.1"/>
<path class="st0" d="M105.4,65.6c-0.8-1.2-0.7-2.7-0.6-4.1c0.1-0.7,0.1-1.4,0.2-2.1c0.1-1.2,0.2-2.4,0.3-3.7
	c0.1-0.9,0.2-1.7,0.3-2.6c0.1-0.7,1.1-0.8,1.8-0.7c1.3,0.2,2.5,0.4,3.8,0.6c0.2,0.7,0.2,1.4,0.2,2.1c-0.1,1.1-0.1,2.2-0.2,3.3
	c-0.1,1.4-0.2,2.8-0.2,4.2c0,0.9-0.1,1.8-0.5,2.5c-0.5,0.9-1.4,1.5-2.4,1.6C107.1,66.9,106,66.4,105.4,65.6"/>
<path class="st0" d="M5.5,84.1c-0.5-1.4-1-3-0.6-4.4c0.4-1.1,1.3-2,2.1-2.7c0.7-0.6,1.5-1.3,2.4-1.3c0.9,0,1.7,0.7,2.4,1.4
	c0.5,0.4,0.9,0.9,1.4,1.3c0.4,0.4,0.9,0.9,0.8,1.5c-0.1,0.7-1,1.1-1.4,1.7c-0.4,0.7-0.1,1.6,0.2,2.3c0.5,1.1,0.9,2.2,1.3,3.3
	c0.6,1.4,0.2,3-1,3.9c-1.4,1.2-3.8,0.9-5-0.5c-0.6-0.6-0.9-1.5-1.2-2.3C6.6,86.9,6.1,85.5,5.5,84.1"/>
<path class="st0" d="M19,87.3c0.7-1.4,1.3-2.8,2-4.2c0.1-0.3,0.3-0.6,0.2-0.9c-0.1-1-1.6-1.4-1.6-2.3c0-0.5,0.4-0.9,0.8-1.2
	c0.9-0.8,1.8-1.5,2.7-2.3c0.3-0.2,0.5-0.4,0.8-0.5c0.5-0.1,1,0.2,1.4,0.5c1.7,1.1,3.5,2.5,3.6,4.5c0.1,1.2-0.4,2.3-0.9,3.3
	c-0.8,1.7-1.6,3.3-2.3,5c-0.3,0.7-0.6,1.3-1.1,1.9c-1.1,1.2-3.1,1.4-4.4,0.5C18.8,90.7,18.3,88.8,19,87.3"/>
<path class="st0" d="M16.9,43.6c0.9-0.2,1.7-0.2,2.6,0c2.6,0.6,4.7,2.7,5.3,5.3c0.5,2.6-0.6,5.5-2.7,7c-0.5,0.3-1,0.6-1.5,0.8
	c-1.2,0.4-2.4,0.3-3.6,0.3c-0.8,0-1.7-0.1-2.5-0.4c-0.5-0.2-0.9-0.5-1.4-0.9c-2-1.8-2.9-4.8-2.1-7.4C11.8,45.9,14.2,43.9,16.9,43.6"
	/>
<path class="st0" d="M77,45.9c-1.3,1.1-3,1.8-4.7,2c-2.1,0.2-4.2-0.5-5.8-1.9c-2.2-1.9-3.2-5-2.6-7.8c0.4-1.8,1.5-3.5,3-4.5
	c2-1.5,4.8-1.9,7.2-1.1c2.4,0.8,4.3,2.9,5,5.3c0.2,0.8,0.3,1.7,0.3,2.5c-0.1,1.2-0.4,2.3-0.7,3.4C78.2,44.5,77.6,45.2,77,45.9"/>
<path class="st0" d="M162.1,37.3c0.2-0.8,0.4-1.7,1.1-2c0.5-0.2,1.1-0.2,1.6-0.1c1.2,0.2,2.4,0.5,3.5,0.9c-0.8,3.1-1.3,6.3-1.6,9.4
	c-0.2,1.6-0.3,3.1-0.3,4.7c-0.1,1.7-0.2,3.4-0.3,5.2c0,0.7-0.1,1.5-0.4,2.1c-0.7,1.4-2.9,1.8-4.1,0.8c-0.8-0.7-1.1-1.9-1.2-2.9
	c-0.1-0.4,0-1,0.4-1.1c-0.5-0.2-0.4-0.9-0.3-1.4c0.2-0.9,0.2-1.9,0.2-2.9C160.7,45.8,161.2,41.5,162.1,37.3"/>
<path class="st0" d="M192.2,36.6c1.9-0.2,3.8-0.5,5.7-0.7c0.2,0.1,0.4,0.3,0.6,0.4c1.3,6.8,1.8,13.8,1.3,20.8c0,0.4,0,0.9-0.2,1.2
	c-0.6,1.4-2.4,1.6-3.8,1.3c-1.9-1-2.1-3.6-2.1-5.7c0-2.7,0-5.3,0-8c0-1.1,0-2.2-0.1-3.3C193.4,40.6,193,38.6,192.2,36.6"/>
<path class="st0" d="M114.4,26c0.6-2.9,2.8-5.5,5.6-6.6c2.8-1.1,6.1-0.7,8.5,1.1c1.4,1,2.5,2.4,3.1,4c1.2,2.9,0.6,6.5-1.4,9
	c-2,2.5-5.4,3.7-8.5,3.2c-3.1-0.5-5.9-2.9-7-5.8C114.2,29.3,114,27.6,114.4,26"/>
<path class="st0" d="M172.2,5.2c0.8-1.7,2.2-3.1,3.8-4c2.4-1.3,5.3-1.6,7.9-0.7c2.6,0.9,4.8,2.9,5.9,5.4c1.8,4.2,0.2,9.6-3.6,12
	c-3.8,2.5-9.4,1.6-12.4-1.9c-0.3-0.6-0.6-1.2-0.9-1.8c-0.4-0.7-0.8-1.4-1.1-2.2C171.1,9.9,171.2,7.4,172.2,5.2"/>
<path class="st0" d="M113.2,61.9c-0.3-3.4-0.3-6.9,0.1-10.3c-2.2-0.3-4.4-0.6-6.6-0.9c0.5-4.5,3.2-8.8,7.1-11.1
	c1.2-0.7,2.5-1.2,3.8-0.8c1.6,0.5,2.5,2.3,4.1,2.7c2.3,0.6,4.3-1.7,6.6-2.3c2.9-0.7,5.7,1.6,7.4,4c1.7,2.4,2.9,5.2,3.6,8.1
	c-2.1,0.7-4.5,0.9-6.8,0.5c-0.2,3.4-0.3,6.8-0.2,10.2C126,62.3,119.6,62.2,113.2,61.9"/>
<path class="st0" d="M23.4,71.9c-0.4,0.3-1,0.3-1.5,0.3c-3.7-0.1-7.4-0.2-11.1-0.3c-0.8-1.7-0.8-3.6-0.2-5.4c-1.4,0.9-2.7,2-3.9,3.2
	c-1,1-2,2.2-3.4,2.6c-1.4,0.5-3.2-0.2-3.5-1.6c-0.2-1.2,0.8-2.2,1.7-3c2.4-2.2,4.9-4.4,7.4-6.6c1.1-1.1,2.4-2.1,4-2.1
	c2.4,0,4.9,0,7.3,0c0.9,0,1.9,0,2.7,0.4c0.7,0.3,1.2,0.8,1.8,1.4c2.3,2.2,4.7,4.5,7,6.7c0.8,0.7,1.5,1.5,1.9,2.5
	c0.4,1,0.2,2.3-0.6,2.9c-1.4,1-3.2-0.3-4.4-1.5c-1.4-1.4-2.9-2.9-4.3-4.4C23.4,68.3,24.9,70.9,23.4,71.9"/>
<path class="st0" d="M71.7,74.9c-0.6-0.4-1.5,0-1.9,0.6c-0.4,0.6-0.4,1.4-0.4,2.2c0,2.9,0,5.8,0,8.6c0,1.5,0,3.1-0.7,4.4
	s-2.2,2.4-3.6,2c-1.1-0.3-1.8-1.3-2.2-2.3c-0.3-1.1-0.3-2.2-0.3-3.3c0.2-6.3,0.4-12.7,0.6-19c0-0.4,0-0.8,0.3-1.1
	c0.2-0.2,0.5-0.2,0.8-0.2c4.4-0.2,8.8-0.1,13.2,0.4c0.3,0,0.7,0.1,0.8,0.3c0.1,0.2,0.1,0.4,0.1,0.6c-0.1,6.5-0.2,13.1-0.3,19.6
	c0,1.5-0.1,3.1-1.1,4.2c-0.9,0.9-2.5,1.2-3.6,0.6c-1.2-0.6-1.9-2-1.8-3.3C71.9,84.6,71.9,79.7,71.7,74.9"/>
<path class="st0" d="M84.6,66.6c-1.5,0.2-3,0.5-4.5,0.7c0.4-3.1,0-6.3-1-9.2c-1.1,1.8-0.9,4.1-0.6,6.2c0.1,0.7-0.9,1-1.7,1
	c-4-0.1-8-0.2-12-0.2c-0.7,0-1.7-0.3-1.6-1.1c0.4-2,0.4-4.2,0-6.2c-1.1,2.3-1.7,4.8-1.5,7.3c0.1,1-0.9,1.7-1.9,1.7
	c-1,0-1.9-0.5-2.7-1c-0.2-4.5,1-9.1,3.5-12.9c0.9-1.3,2-2.6,3.4-3.2c1.5-0.6,3.4-0.5,4.4,0.8c1.5,1.8,4.7,1.7,6.1-0.2
	c0.7-1,2.1-1.2,3.2-0.8c1.1,0.4,2,1.3,2.7,2.2C83.9,55.9,85.4,61.4,84.6,66.6"/>
<path class="st0" d="M193.7,25.3c2.1,2.6,3.7,5.7,4.5,9c-1.8,0.5-3.7,0.8-5.6,0.9c-0.4,0-0.9,0-1.1-0.3c-0.1-0.2,0-0.5-0.1-0.8
	c-0.1-0.3-0.5-0.5-0.6-0.2c0,4.7,0,9.3,0,14c-6.3,0.1-12.5,0-18.8-0.3c-1.1,0-2.7-0.6-2.5-1.7c0.9-3.7,0.9-7.6,0.2-11.4
	c-2.4-0.3-4.8-0.5-7.1-0.8c1.6-4.2,3.5-8.8,7.4-11c1.8-1,4.6-1.2,5.5,0.7c0.9,1.9,2.8,3.2,4.9,3.3c2.1,0.1,4.1-1.1,5.2-2.9
	c0.8-1.4,2.8-1.9,4.3-1.4C191.5,22.8,192.7,24,193.7,25.3"/>
<path class="st0" d="M123.5,86.5c0.2-3.4,0.3-6.9,0.5-10.3c0.1-1.7,0.2-3.4-0.5-4.9c-0.8-0.2-1.7-0.1-2.5,0.3
	c-0.1,5.4-0.2,10.8-0.2,16.2c0,1.6-0.1,3.2-1,4.5c-1.5,2.1-5.1,2-6.5-0.1c-0.9-1.3-0.9-3-0.8-4.5c0.1-7.3,0.3-14.6,0.4-21.8
	c0-0.6,0-1.2,0.5-1.6c0.4-0.4,1-0.4,1.6-0.4c5.1,0.1,10.2,0.3,15.3,0.4c0.7,0,1.5,0.1,2,0.6c0.4,0.5,0.4,1.1,0.3,1.7
	c-0.1,3.3-0.2,6.7-0.3,10c-0.4,2.5-0.5,5.1-0.3,7.6c0.2,2.2,0.6,4.4,0,6.5c-0.6,2.1-2.6,4.1-4.7,3.7c-1.6-0.3-2.7-1.6-3.2-3.1
	C123.3,89.7,123.4,88,123.5,86.5"/>
</svg>
