<?xml version="1.0" encoding="utf-8"?>
<!-- Generator: Adobe Illustrator 19.1.0, SVG Export Plug-In . SVG Version: 6.00 Build 0)  -->
<svg version="1.1" id="Layer_1" xmlns="http://www.w3.org/2000/svg" xmlns:xlink="http://www.w3.org/1999/xlink" x="0px" y="0px"
	 viewBox="0 0 100 213.4" style="enable-background:new 0 0 100 213.4;" xml:space="preserve">
<style type="text/css">
	.st0{fill:#03A9F4;}
</style>
<g id="child-6-under">
	<path class="st0" d="M97.6,99.7c0.7,0.6,0.8,1.6,1,2.5c1,7.3,1.5,14.8,1.4,22.2c-0.1,4.5-0.7,9.7-4.2,12.4
		c-2.9,1.3-6.3,0.9-8.8-0.9c-2.5-1.8-3.9-4.9-3.7-8c0.7-9.5,0.5-19.1-0.8-28.5c4.1-0.7,8.3-0.8,12.5-0.6
		C95.9,98.9,96.9,99.1,97.6,99.7"/>
	<path class="st0" d="M1.9,132c-2.4-3.3-2.1-7.7-1.7-11.7c0.2-1.9,0.4-3.9,0.6-5.9c0.3-3.5,0.7-6.9,1-10.4c0.2-2.4,0.5-4.9,0.7-7.3
		c0.2-2.1,3-2.3,5.1-1.9c3.6,0.6,7.2,1.2,10.7,1.8c0.6,1.9,0.5,3.9,0.4,5.9c-0.2,3.2-0.3,6.3-0.5,9.4c-0.2,3.9-0.4,8-0.6,11.9
		c-0.1,2.4-0.2,5-1.4,7.1c-1.3,2.5-4.1,4.4-6.9,4.6C6.6,135.7,3.6,134.3,1.9,132"/>
	<path class="st0" d="M27.2,20.3C28.9,12,35,4.7,42.9,1.7c7.8-3.1,17.2-1.9,24.1,3c3.9,2.9,7,6.8,8.7,11.3
		c3.3,8.3,1.8,18.4-3.9,25.4s-15.2,10.6-24,9c-8.9-1.5-16.7-8.1-19.7-16.5C26.6,29.6,26.3,24.8,27.2,20.3"/>
	<path class="st0" d="M23.9,121.8c-0.8-9.7-0.7-19.5,0.2-29.1c-6.3-0.8-12.5-1.6-18.8-2.5c1.3-12.8,9-24.8,20.2-31.3
		c3.3-1.9,7.2-3.3,10.8-2.2c4.5,1.5,7.2,6.4,11.7,7.7c6.5,1.8,12.1-4.9,18.6-6.4c8.2-1.9,16,4.5,20.9,11.4
		c4.9,6.9,8.3,14.7,10.1,22.9c-6.1,2.1-12.7,2.5-19.1,1.5c-0.7,9.6-0.8,19.3-0.5,28.9C60,122.9,42,122.6,23.9,121.8"/>
	<path class="st0" d="M52.9,191.1c0.4-9.7,0.9-19.5,1.3-29.2c0.2-4.7,0.4-9.6-1.5-13.9c-2.3-0.5-4.9-0.2-7,0.8
		c-0.2,15.3-0.4,30.6-0.7,45.9c-0.1,4.4-0.2,9.1-2.8,12.7c-4.1,5.9-14.5,5.8-18.5-0.3c-2.4-3.7-2.4-8.4-2.3-12.9
		c0.4-20.6,0.7-41.2,1.1-61.8c0-1.6,0.1-3.5,1.3-4.6c1.2-1.1,2.9-1.2,4.6-1.1c14.4,0.4,28.8,0.8,43.2,1.2c2,0.1,4.2,0.2,5.5,1.8
		c1,1.3,1,3,1,4.7c-0.2,9.4-0.5,18.8-0.7,28.2c-1.2,7.2-1.5,14.4-0.9,21.6c0.5,6.2,1.6,12.5-0.1,18.5c-1.6,5.9-7.2,11.5-13.4,10.4
		c-4.4-0.7-7.7-4.6-9.1-8.9C52.5,200.2,52.7,195.6,52.9,191.1"/>
</g>
</svg>
