<?xml version="1.0" encoding="utf-8"?>
<!-- Generator: Adobe Illustrator 19.1.0, SVG Export Plug-In . SVG Version: 6.00 Build 0)  -->
<svg version="1.1" id="Layer_1" xmlns="http://www.w3.org/2000/svg" xmlns:xlink="http://www.w3.org/1999/xlink" x="0px" y="0px"
	 viewBox="0 0 100 217.4" style="enable-background:new 0 0 100 217.4;" xml:space="preserve">
<style type="text/css">
	.st0{fill:none;stroke:#03A9F4;stroke-miterlimit:10;}
</style>
<g id="child-2-4">
	<path class="st0" d="M83,135.2c-0.6-1.6-0.5-3.9,1-4.8c0.5-0.3,1.1-0.4,1.6-0.5c4.7-0.8,9.4-1.2,14.2-1.1c0.7,3.9-0.7,8.3-3.9,10.4
		C91.6,142.3,84.8,140.1,83,135.2"/>
	<path class="st0" d="M14.5,128.9c0.6,0.2,1.3,0.3,1.8,0.8c1.1,0.8,1.1,2.5,0.6,3.8c-1.5,4.8-7.7,7.4-12.3,5.1
		c-4.5-2.2-6.1-8.8-3.1-13C5.8,126.8,10.2,127.8,14.5,128.9"/>
	<path class="st0" d="M71.8,49c-4.6,4.1-10.6,6.6-16.7,7.1c-7.4,0.6-15-1.8-20.7-6.7c-7.9-6.7-11.6-17.9-9.2-27.9
		C26.7,15.1,30.6,9.2,36,5.3C43.2,0,53.1-1.4,61.6,1.5c8.5,3,15.4,10.2,17.9,18.9c0.8,2.9,1.2,5.9,1.1,9c-0.2,4.1-1.5,8.2-2.6,12.3
		C75.9,44,73.8,46.5,71.8,49"/>
	<path class="st0" d="M52.8,152.7c-2.3-1.5-5.5,0-6.9,2.3c-1.4,2.3-1.4,5.1-1.4,7.9c0,10.3,0.1,20.6,0.1,30.9c0.1,5.4,0,11-2.4,15.9
		c-2.4,4.8-7.8,8.7-13,7.3c-3.8-1.1-6.6-4.5-7.7-8.3c-1.2-3.8-1.1-7.8-0.9-11.7c0.6-22.6,1.3-45.2,2-67.9c0-1.5,0.2-3,1.2-3.9
		c0.8-0.6,1.9-0.7,2.9-0.8c15.7-0.8,31.4-0.4,47,1.3c1.2,0.2,2.4,0.3,3,1.2c0.4,0.6,0.4,1.4,0.4,2.1c-0.4,23.4-0.7,46.8-1,70.2
		c-0.1,5.3-0.4,11.1-4.1,15c-3.3,3.4-8.8,4.2-13,2.1c-4.1-2.2-6.7-7.1-6.4-11.7C53.3,187.3,53.4,169.9,52.8,152.7"/>
	<path class="st0" d="M98.9,123.2c-5.3,0.8-10.7,1.6-15.9,2.5c1.3-11.1,0.1-22.5-3.5-33c-4,6.4-3.1,14.6-2.3,22.1
		c0.3,2.6-3.3,3.6-5.9,3.5c-14.3-0.2-28.5-0.5-42.8-0.8c-2.6,0-6.1-1.2-5.6-3.8c1.5-7.3,1.5-15-0.1-22.2c-4.1,8.1-6,17.2-5.4,26.2
		c0.2,3.5-3.4,6.1-6.8,6.1c-3.5,0.1-6.7-1.7-9.7-3.5c-0.8-16.2,3.6-32.5,12.4-46.1c3.1-4.7,7-9.3,12.2-11.5c5.2-2.3,12-1.6,15.6,2.8
		c5.3,6.5,16.9,6.1,21.9-0.6c2.5-3.5,7.5-4.3,11.6-2.8c4,1.4,7.1,4.6,9.8,7.9C96.2,84.8,101.6,104.5,98.9,123.2"/>
</g>
</svg>
