<?xml version="1.0" encoding="utf-8"?>
<!-- Generator: Adobe Illustrator 19.1.0, SVG Export Plug-In . SVG Version: 6.00 Build 0)  -->
<svg version="1.1" id="Layer_1" xmlns="http://www.w3.org/2000/svg" xmlns:xlink="http://www.w3.org/1999/xlink" x="0px" y="0px"
	 viewBox="0 0 150 73.5" style="enable-background:new 0 0 150 73.5;" xml:space="preserve">
<style type="text/css">
	.st0{fill:#03A9F4;}
</style>
<g id="calendar">
	<desc  xmlns:shape="http://adobe.com/products/shape">
		<shape:version>1.0</shape:version>
		<shape:captureDetail>1.000000</shape:captureDetail>
		<shape:sourceImage></shape:sourceImage>
		<shape:source>0</shape:source>
		<shape:platformVersion>shape-android-1.1.117</shape:platformVersion>
	</desc>
	<path class="st0" d="M123.1,9.2c1.7,0,3.5,0,5.2,0c0.5-1.2,0.1-2.6,0.1-3.9c-0.1-1.3,0.4-2.9,1.7-3.2c1.1-0.3,2.3,0.7,2.6,1.8
		c0.3,1.1,0.1,2.3-0.2,3.5c-0.2,0.7,0.4,1.4,1.1,1.7c0.7,0.2,1.5,0.1,2.2,0c1-0.2,1.9-0.3,2.9-0.5c0-1.6,0-3.1,0-4.7
		c0-0.4,0-0.8,0.2-1.1c0.4-1,2-1.2,2.9-0.5c0.9,0.7,1.2,1.9,1.1,3c0,0.8-0.2,1.6-0.1,2.4c0.1,0.8,0.6,1.6,1.4,1.7
		c2.2,0.3,3.9,2.2,4.6,4.3c0.7,2.1,0.6,4.4,0.5,6.6c0,0.4-0.1,0.9-0.4,1.1c-0.2,0.1-0.5,0.1-0.7,0.1c-20.8,0.1-41.6,0.3-62.4,0.4
		c-0.5,0-1.1,0-1.5-0.4c-0.3-0.3-0.4-0.8-0.4-1.3c-0.1-2-0.2-4,0.4-5.9c0.6-1.9,2-3.7,4-4c1.3-0.3,1.6-2,1.4-3.4s-0.4-3,0.7-3.7
		c1.1-0.7,2.6,0.1,3,1.2c0.5,1.1,0.3,2.5,0,3.7c-0.3,1.1,1.1,1.8,2.3,1.8c1.1-0.1,2.3-0.5,3.3-0.1c0.5-1.2,0.1-2.6,0-3.9
		c-0.1-1.3,0.4-2.9,1.7-3.2c1-0.2,2,0.7,2.3,1.7c0.3,1,0.1,2.1-0.1,3.2c-0.2,1,0.6,1.9,1.6,2.2c1,0.3,2,0.1,2.9-0.1
		c1.3-0.3,1.6-2,1.4-3.3c-0.1-1.3-0.2-3,0.9-3.6c1-0.6,2.4,0.3,2.9,1.4c0.4,1.1,0.2,2.3,0,3.5c-0.1,0.7,0.4,1.5,1.1,1.8
		c0.7,0.3,1.5,0.3,2.2,0.3c0.7,0,1.4-0.1,1.9-0.4c0.6-0.3,1.1-1,0.9-1.6c-0.3-1.2-0.6-2.4-0.2-3.5c0.4-1.1,1.6-2.1,2.7-1.7
		c1.2,0.5,1.4,2,1.3,3.2C122.7,6.8,122.4,8.2,123.1,9.2 M108.8,13.3c-0.9,1.2-0.9,3,0.1,4.2c1,1.2,2.9,1.4,4,0.4
		c1.3-1.2,1-3.2,0.6-4.9c1.3,0.8,2,2.3,1.8,3.8c-0.2,1.5-1.4,2.8-2.8,3.1c2.4,0.2,4.8,0.2,7.1,0.1c-2.2-0.7-3.7-3.3-3.1-5.5
		c0.4-0.9,1.5-1.5,2.4-1.3c-1.6,1.2-1.3,4.2,0.6,5c1.8,0.8,4.3-0.8,4.2-2.8c0-0.8-0.2-1.9,0.6-2c1.6,2.2,0.5,5.8-2.1,6.7
		c2.4,0.1,4.7,0,7.1-0.3c-1.4-0.3-2.5-1.5-2.8-2.9c-0.3-1.4,0.3-2.9,1.5-3.7c-0.1,1.7-0.2,3.8,1.2,4.8c1.1,0.9,3,0.5,3.9-0.6
		c0.9-1.1,0.9-2.8,0.1-4c1.2-0.5,2.2,1.1,2.2,2.4c-0.1,1.7-1.1,3.4-2.7,4.2c5.1,0.2,10.2,0.2,15.3,0.1c-0.5-1.8-0.3-3.7-0.6-5.5
		c-0.4-1.8-1.8-3.7-3.6-3.6c-1.5,0.1-2.4-1.7-2.4-3.2c0-1.5,0.3-3.1-0.5-4.4c-0.2,2.4-0.5,4.7-0.7,7.1c-1.8,0.4-3.7,0.6-5.5,0.6
		c-1,0-2.1-0.2-2.8-0.9c-0.5-0.6-0.6-1.3-0.7-2.1c-0.2-1.4-0.3-2.9-0.5-4.3c-0.2,2-0.4,3.9-0.7,5.9c0,0.3-0.1,0.6-0.3,0.8
		c-0.2,0.3-0.6,0.4-1,0.5c-1.6,0.3-3.2,0.7-4.8,0.3c-1.6-0.4-3-1.8-2.9-3.4c0-0.7,0.3-1.3,0.4-2c0-0.7-0.4-1.5-1.1-1.5
		c0.3,1.5,0.6,3.1,0.1,4.6c-0.5,1.5-2.1,2.7-3.6,2.2c-1.4-0.5-3,0.5-4.3-0.2c-1.1-0.6-1.3-2-1.3-3.2s0.3-2.5-0.3-3.6
		c-0.6,0.6-0.4,1.6-0.3,2.4c0.2,1.2,0.3,2.4-0.2,3.4c-0.5,1.1-1.8,1.8-2.9,1.4c-0.9-0.4-1.9,0.2-2.9,0.2c-1.5,0-2.6-1.3-3-2.7
		c-0.4-1.4-0.1-2.9,0.1-4.3c-0.7,0.3-0.9,1.2-0.8,2c0.1,0.8,0.4,1.5,0.4,2.3c-0.1,1.3-1.2,2.3-2.4,2.7c-1.2,0.4-2.6,0.3-3.8,0.1
		c-0.9-0.1-1.9-0.2-2.5-0.9c-0.4-0.5-0.5-1.2-0.5-1.9c-0.1-1.3-0.2-2.6-0.3-3.9c-0.7,1.1-0.3,2.5-0.2,3.8c0.1,1.3-0.5,3-1.8,3
		c-1.8,0.1-3.2,1.7-3.6,3.5c-0.4,1.7-0.2,3.6,0.1,5.3c1.5,0,3,0,4.6-0.1c-1.7-0.6-2.9-2.2-3.2-3.9c0-0.3,0-0.6,0-1
		c0.2-1.1,1.3-2,2.5-2c-1.2,1.4-1,3.9,0.5,4.9c1.6,1,4.1-0.2,4-2.1c0-0.5-0.2-1-0.2-1.6c0-0.5,0.4-1.1,1-1c1.4,2,0.8,5.1-1.3,6.4
		c1.9,0,3.7,0.1,5.6,0.1c-1.2-0.7-2.2-1.8-2.5-3.1c-0.3-1.3,0.4-2.9,1.6-3.3c-0.2,1.3-0.3,2.7,0.4,3.8c0.9,1.3,2.9,1.6,4.1,0.6
		c1.2-1,1.2-3.1,0-4.2c0.2,0.8,0.1,1.8-0.3,2.5c-0.5,0.7-1.5,1.2-2.2,0.8c-1-0.4-1.2-1.8-1.2-2.9c0-0.5,0.8-0.6,1.2-0.3
		c0.4,0.4,0.4,0.9,0.4,1.4c0.7-0.4,1.3-1.2,1.6-2c0.2-0.4,0.8-0.3,1.1-0.1c1.3,0.7,2.1,2.1,1.9,3.5c-0.1,1.4-1.2,2.7-2.5,3.1
		c2.1,0.7,4.4,0.6,6.6-0.1c-2.2-0.5-3.7-3.2-2.8-5.4C107.2,13.7,108,13,108.8,13.3"/>
	<path class="st0" d="M111.5,14.9c0.2-0.3,0.3-0.7,0.3-1c0.2-0.2,0.6-0.3,0.9-0.2c0,0.5,0.2,1,0.2,1.5c0,0.8-0.5,1.6-1.3,1.8
		c-0.8,0.3-1.7-0.1-2.2-0.8c-0.4-0.7-0.5-1.6-0.1-2.4c0.3-0.2,0.5-0.3,0.7-0.5c0.3,0.5,0.5,1,0.6,1.6C110.9,15,111.2,15,111.5,14.9"
		/>
	<path class="st0" d="M93.7,13.3c-0.1,0.7-0.1,1.5-0.2,2.2c0,0.5-0.1,1-0.5,1.4c-0.4,0.3-0.9,0.3-1.4,0.3c-0.4,0-0.9,0-1.2-0.3
		C90.1,16.6,90,16,90,15.5c0-0.5,0.2-1,0.2-1.5c0.2-0.4,0.8-0.2,1,0.2c0.2,0.4,0.2,0.8,0.3,1.2c0.1,0,0.2,0,0.4,0.1
		C92,15.3,92,15.2,92,15c0.1-0.1,0.3-0.1,0.4-0.1C92.3,14.2,93,13.4,93.7,13.3"/>
	<path class="st0" d="M121.5,14.8c0.2-0.3,0.2-0.7,0.2-1c0.1-0.4,0.5-0.7,0.8-0.5c0.1,0.1,0.2,0.3,0.2,0.4c0.1,0.9,0.2,1.9-0.3,2.6
		c-0.3,0.4-0.8,0.6-1.3,0.7c-0.2,0-0.4,0-0.6,0c-1-0.2-1.8-1.3-1.6-2.3c0.1-0.6,0.6-1.2,1.2-1.4c0,0.7,0.3,1.3,0.6,1.8
		C120.9,14.9,121.2,14.8,121.5,14.8"/>
	<path class="st0" d="M140.8,15.1c0.2-0.2,0.5-0.3,0.8-0.3c0.1-0.4,0.2-0.9,0.3-1.4c0.2-0.2,0.5-0.3,0.8-0.4c0.2,1,0.4,2.2-0.2,3
		c-0.4,0.6-1.3,1-2,0.8c-0.7-0.2-1.4-0.8-1.5-1.6c-0.1-0.7,0.2-1.5,0.5-2.1c0.3,0,0.6,0.1,0.8,0.4c0.1,0.5,0.1,0.9,0.2,1.4
		C140.6,15,140.7,15,140.8,15.1"/>
	<path class="st0" d="M129,16c-0.2-0.9-0.2-1.8,0-2.7c0.1-0.2,0.4-0.2,0.6-0.1c0.2,0.1,0.3,0.4,0.4,0.6c0.1,0.4,0.3,0.8,0.6,1.1
		c0.3,0.3,0.9,0.2,1-0.2c-0.2-0.7,0.3-1.5,1-1.6c0.4,1.1,0.2,2.4-0.4,3.4C131.2,17,129.8,16.8,129,16"/>
	<path class="st0" d="M50,17c0,0.6,0.1,1.3-0.2,1.9c-0.6,1.1-2.1,1.3-3.4,1.3c-1.1,0-2.4,0-3.1-0.9c-0.5-0.6-0.6-1.4-0.6-2.2
		c0-1,0.2-2,0.6-3c0.9,0.5,1.1,1.8,0.9,2.8c-0.1,0.7,0.5,1.4,1.2,1.6s1.5,0,2.2-0.1c0.4-0.1,0.8-0.2,0.9-0.6c0.1-0.3,0-0.8,0.4-0.8
		c-0.5-0.6-0.6-1.3-0.5-2c0.4-0.2,0.7-0.5,0.9-0.9c0.4,0,0.5,0.5,0.5,0.8C50,15.5,50,16.3,50,17"/>
	<path class="st0" d="M16.8,15c0.1-0.2,0.4,0,0.5,0.3c0.4,1.2,0.7,2.6,0.2,3.7c-0.2,0.3-0.4,0.6-0.6,0.9c-0.1,0.2-0.3,0.4-0.5,0.5
		c-0.2,0.1-0.5,0.1-0.8,0.2c-0.6,0-1.1,0.1-1.7,0.1c-1.2,0.1-2.7,0-3.4-1c-0.3-0.5-0.4-1.1-0.4-1.7c0-1.1,0.2-2.1,0.6-3.1
		c0.3-0.1,0.7,0.1,0.8,0.4c0.1,0.2,0.1,0.3,0.1,0.5c0.1,1,0.2,2.1,0.4,3.1c0.6,0.5,1.4,0.4,2.2,0.2c0.9-0.2,1.9-0.5,2-1.4
		c0.1-0.9-0.8-1.7-0.5-2.5c0.3,0.1,0.5,0.2,0.8,0.3C16.9,15.3,16.9,15.2,16.8,15"/>
	<path class="st0" d="M143.5,13.5c0.3-0.1,0.6-0.3,0.9-0.4c0.6,0.9,1.1,2,1.1,3.1c-0.1,0.9-0.7,1.8-1.3,2.4c-0.3,0.3-0.6,0.6-1,0.8
		c-1,0.6-2.4,0.8-3.5,0.4c-1.8-0.5-3.2-2.2-3.3-4.1c0-0.2,0-0.4,0.2-0.6c0.4-0.4,0.4-1,0.7-1.5c0.2-0.5,1-0.8,1.3-0.4
		c-0.3,1-0.6,2.1-0.3,3.1c0.3,1.1,1.4,2,2.6,2c1.1,0.1,2.3-0.6,2.8-1.7C143.9,15.7,143.8,14.5,143.5,13.5"/>
	<path class="st0" d="M102.9,63.2c0,0.3,0,0.5-0.2,0.7c-0.3,0.4-0.9,0.5-1.4,0.5c-2.1,0-4.1,0-6.2,0c-0.6,0-1.3-0.1-1.4-0.7
		c-0.3-2-0.3-4.1-0.2-6.2c0-0.8,0-1.6,0.4-2.4c2.8,0.1,5.6,0.1,8.5,0.2C102.9,57.9,103.1,60.5,102.9,63.2 M101,56.9
		c-1.9,0.2-3.9,0-5.7-0.5c0,1.9,0,3.8,0,5.8c0,0.2,0,0.4,0.2,0.5c0.1,0.1,0.2,0.1,0.4,0.1c1.6,0,3.2,0,4.8,0c0.2,0,0.5,0,0.7-0.1
		c0.2-0.1,0.3-0.5,0.1-0.6c-0.4-0.3-0.4-0.8-0.4-1.2C101,59.5,101,58.2,101,56.9"/>
	<path class="st0" d="M105.6,45.3c-0.4-1,0.5-2.3,1.6-2.3c2,0,4,0,6.1,0c0.4,0,0.9,0,1.3,0.3c0.3,0.3,0.4,0.8,0.4,1.2
		c0.1,2.2,0.1,4.4,0.2,6.6c0,0.4-0.4,0.8-0.8,1c-0.4,0.2-0.9,0.1-1.3,0.1c-1.2,0-2.5-0.1-3.7-0.2c-0.8,0-1.7-0.1-2.5-0.1
		c-0.3,0-0.6,0-0.7-0.2c-0.2-0.2-0.2-0.6-0.2-0.9c0-1,0-2,0.1-3C105.9,47.1,105.9,46.2,105.6,45.3 M107.5,50.6
		c2.1,0.1,4.3,0.1,6.4,0c-1.2-1.6-0.3-4-0.9-5.9c-1.9,0.2-3.8,0.1-5.7-0.5C107.4,46.4,107.4,48.5,107.5,50.6"/>
	<path class="st0" d="M113.5,40.2c-2.5,0-5,0-7.5,0c-0.1-0.3-0.3-0.5-0.5-0.6c-0.1-2.2-0.1-4.5-0.2-6.7c0-0.6,0-1.2,0.5-1.5
		c0.3-0.1,0.6-0.2,0.8-0.2c2.4,0,4.9,0,7.3,0c0.1,0,0.3,0,0.4,0.1c0.1,0.1,0.1,0.3,0.2,0.4c0,0.6,0.1,1.3,0.1,1.9
		c0.1,1.6,0.2,3.3,0.3,4.9c0,0.5,0,1.1-0.4,1.4C114.3,40.2,113.9,40.2,113.5,40.2 M110.5,32.9c-0.9,0-1.8-0.1-2.7-0.3
		c0,0.2-0.2,0.3-0.4,0.3c-0.2,0-0.3-0.2-0.4-0.4c-0.1,0.6-0.1,1.3-0.1,1.9c0,1.4,0.2,2.7,0.4,4.1c1,0.2,2,0.5,3,0.5c1,0,2-0.2,3-0.6
		c-0.4-1.8-0.5-3.6-0.3-5.4C112.2,32.9,111.3,32.9,110.5,32.9"/>
	<path class="st0" d="M102.4,51.8c-0.2,0.3-0.5,0.4-0.8,0.5c-1,0.2-2.1,0.2-3-0.1c-0.2,0.1-0.4,0.1-0.6,0C96.5,52.1,95,52,93.6,52
		c-0.2-0.8-0.2-1.7-0.2-2.6c0-1.5,0-3.1,0-4.7c0-0.6,0.1-1.3,0.6-1.6c0.2-0.1,0.5-0.1,0.7-0.2c2.4-0.1,4.8-0.2,7.2-0.1
		c0.5,0.7,0.6,1.6,0.6,2.5c0,1.8,0.1,3.7,0.1,5.5C102.6,51.2,102.6,51.6,102.4,51.8 M101.2,50.7c0-0.7-0.1-1.3-0.1-2
		c-0.1-1.4-0.2-2.7-0.5-4c-0.9,0.1-1.8,0-2.6-0.3c-0.3,0.4-0.9,0.5-1.5,0.4c-0.5-0.1-1-0.4-1.5-0.5c0,2.1,0,4.3,0.1,6.4
		C97.1,50.7,99.1,50.7,101.2,50.7"/>
	<path class="st0" d="M128,64.3c-0.7,0.4-1.5,0.5-2.3,0.4c-2.2,0-4.5-0.3-6.7-0.6c-0.5-0.4-0.6-1.2-0.6-1.9c0-1.1,0-2.3,0-3.5
		c0-1,0-2.1,0.4-3.1c0.1-0.2,0.2-0.3,0.4-0.3c2.5,0,5,0,7.5,0.1c0.3,0,0.7,0,0.9,0.2c0.3,0.3,0.3,0.7,0.3,1.1
		C128,59.3,128,61.8,128,64.3 M126,57.1c-0.7-0.2-1.4-0.1-2.1,0c-1.3,0.1-2.5-0.1-3.7-0.6c0,1.9,0,3.8,0,5.7c0,0.2,0.3,0.3,0.5,0.4
		c1,0.3,2,0.5,3,0.6c1.1,0.1,2.1,0.1,3.1-0.4c-0.4-0.5-0.5-1.2-0.5-1.9C126.3,59.6,126.2,58.4,126,57.1"/>
	<path class="st0" d="M118.5,40.2c-0.3-0.7-0.5-1.5-0.6-2.2c-0.1-0.8-0.1-1.7-0.1-2.5c0-1.4,0-2.9,0.4-4.3c2.7-0.2,5.5-0.2,8.3,0
		c0.2,0,0.4,0,0.6,0.2c0.2,0.2,0.3,0.5,0.3,0.8c0.1,2.1,0.1,4.2,0.2,6.3c0,0.6,0,1.3-0.5,1.6c-0.3,0.2-0.6,0.2-0.9,0.2
		C123.6,40.4,121.1,40.3,118.5,40.2 M119.7,32.4c0,1.1,0,2.2,0.1,3.3c0,0,0,0.1,0,0.2c0,0.9,0,1.7,0,2.6c0.3,0,0.5,0.1,0.7,0.3
		c1.4-0.4,2.9-0.3,4.3-0.2c0.4,0,0.7,0,1-0.1c0.3-0.2,0.4-0.7,0.1-0.9c-0.3-0.2-0.4-0.7-0.4-1.1c0-1,0-2.1,0-3.1
		c0-0.2,0.1-0.5,0.3-0.5c-0.3-0.4-0.8-0.4-1.2-0.4C123,32.5,121.3,32.5,119.7,32.4"/>
	<path class="st0" d="M131.3,40.2c-0.4-0.3-0.5-0.8-0.5-1.3c0-1.6-0.1-3.2-0.1-4.8c0-1,0-1.9,0.2-2.9c2.8-0.1,5.6-0.1,8.4,0
		c0.2,0,0.5,0,0.6,0.2c0.2,0.2,0.3,0.5,0.3,0.8c0.1,2.7,0.2,5.4,0.1,8.1c-2.8,0.1-5.5,0.1-8.3,0.1C131.8,40.3,131.5,40.3,131.3,40.2
		 M132.4,32.3c-0.1,1.5-0.2,2.9,0.1,4.3c0.1,0.5,0.2,1-0.1,1.3c0.2,0.1,0.4,0.4,0.4,0.6c1.1,0.1,2.3,0.2,3.5,0.3
		c1,0.1,2,0.1,2.8-0.4c0-0.9,0-1.9,0-2.8c0-1,0-2-0.4-2.9c-0.5-0.1-1-0.2-1.5-0.2c-0.2,0-0.4,0-0.5,0
		C135.1,32.5,133.7,32.4,132.4,32.3"/>
	<path class="st0" d="M115.2,60.6c0.2,1.2,0.3,2.4,0.2,3.6c-1.4,0.7-3.1,0.8-4.6,0.2c-0.4-0.2-0.9,0.5-1.3,0.3
		c-0.7-0.4-1.5-0.4-2.2-0.3c-0.4,0.1-0.9-0.2-1.1-0.6c-0.2-0.4-0.2-0.9-0.2-1.3c0-2,0-3.9,0-5.9c0-0.4,0-0.7,0.3-1
		c0.3-0.3,0.7-0.3,1.1-0.3c2.2,0,4.4,0,6.6,0c0.4,0,0.7,0,1,0.3c0.1,0.1,0.1,0.3,0.1,0.5c0.1,1.2,0.3,2.5,0.4,3.8
		C115.5,60.2,115.5,60.5,115.2,60.6 M113.5,61.1c0-1.4,0-2.7-0.1-4.1c-1.7-0.1-3.4-0.1-5.1-0.2c0.2-0.2-0.2-0.5-0.4-0.4
		c-0.2,0.1-0.3,0.5-0.3,0.7c0,1.8,0,3.6,0,5.5c0.4-0.1,0.9,0.6,1.2,0.4c1.1-0.8,2.6,0,4,0.1c0.3,0,0.6,0,0.8-0.2
		c0.2-0.2,0.3-0.5,0.1-0.7C113.6,61.9,113.5,61.5,113.5,61.1"/>
	<path class="st0" d="M140.5,46.1c0.4,2.1,0.4,4.3,0,6.4c-3,0.2-6.1,0.2-9.2,0c-0.1-1.4-0.2-2.9-0.3-4.3c0-0.3,0-0.6,0.1-0.9
		c0.1-0.2,0-0.4,0-0.6c-0.1-0.6-0.3-1.1-0.3-1.7c0-0.6,0.2-1.2,0.7-1.5c0.4-0.3,0.9-0.3,1.3-0.3c2.3,0,4.5-0.1,6.8,0.2
		c0.3,0,0.7,0.1,0.8,0.4c0.1,0.2,0,0.4,0,0.6c0,0.2,0.2,0.4,0.4,0.4c-0.1,0.2-0.2,0.4-0.3,0.5c0.2-0.1,0.3,0.2,0.3,0.3
		C140.6,45.7,140.5,45.9,140.5,46.1 M132.7,44.5c-0.2,2.2-0.1,4.4,0.2,6.5c2.2,0,4.3,0,6.5-0.1c-0.3-0.8-0.4-1.7-0.4-2.6
		c0-1.2,0.3-2.4-0.2-3.5c-0.9-0.3-1.8,0.7-2.6,0.3c-0.2-0.1-0.5-0.4-0.7-0.2C134.5,45.2,133.4,45.1,132.7,44.5"/>
	<path class="st0" d="M117.9,45.4c0.5-0.2,0.2-1,0.4-1.5c0.2-0.6,1-0.7,1.6-0.7c1.9,0,3.8,0,5.7,0c0.4,0,0.9,0,1.2,0.2
		c0.4,0.1,0.7,0.5,0.8,0.9c0.2,2.5,0.2,4.9,0.2,7.4c0,0.4-0.3,0.7-0.7,0.8c-0.4,0.1-0.7,0.1-1.1,0.1c-2,0-4-0.1-6.1-0.1
		c-0.4,0-0.8,0-1.1-0.2c-0.7-0.4-0.7-1.3-0.7-2.1c0-0.9,0-1.7,0.1-2.6C118.3,46.8,118.3,46,117.9,45.4 M126.5,50.8
		c-0.6-1.8-0.8-3.8-0.6-5.7c-0.3,0.1-0.5-0.1-0.8-0.3c-0.2-0.1-0.6-0.2-0.7,0.1c-0.1,0.3-0.6,0-0.9-0.1c-0.5-0.2-1,0.1-1.6,0.2
		c-0.6,0.1-1.3-0.2-1.7-0.7c-0.5,0.3-0.5,1-0.3,1.5s0.4,1.1,0.2,1.6c-0.2,0.3-0.5,0.8-0.2,1c0.4,0.2,0.1,0.7,0,1.1
		c-0.1,0.5,0,1,0.3,1.3C122.3,50.9,124.4,50.8,126.5,50.8"/>
	<path class="st0" d="M7.5,17.1C7.8,17.1,8,17,8.3,17c-0.4-1.1,0.6-2.5,1.8-2.6c0.2,0.2,0.1,0.5-0.1,0.7c-0.8,1.5-1.1,3.3-0.6,4.9
		c0.5,1.6,1.8,2.9,3.4,3.4c1.5,0.4,3.3,0,4.5-1.1c1.3-1.1,1.8-3,1.5-4.7c-0.2-1.1-0.7-2.2-0.6-3.2c0.8,0,1.3,0.7,1.6,1.4
		c0.4,0.9,0.6,1.8,0.7,2.7c0.1,1.8-0.7,3.6-2,4.9c-1.1,1-2.6,1.6-4.2,1.7c-2,0.1-4.1-0.8-5.4-2.4C7.7,21.3,7.1,19.1,7.5,17.1"/>
	<path class="st0" d="M52.1,21.8c-1.7,2.6-5.3,3.7-8.1,2.5c-2.8-1.3-4.6-4.6-4.1-7.7c0.4,0,0.7-0.5,0.7-1c0.1-0.5,0.1-1,0.4-1.4
		c0.4-0.4,1.2-0.2,1.1,0.3c-0.1,0.7-0.2,1.5-0.4,2.3c-0.1,0.4-0.1,0.8-0.1,1.2c-0.1,2.5,2,4.8,4.4,5c2.4,0.3,4.9-1.6,5.3-4
		c0.1-0.7,0.1-1.5,0-2.3c-0.1-0.8-0.4-1.7-0.7-2.5c0.1-0.3,0.4-0.5,0.7-0.6c1.8,1.8,2.4,4.6,1.4,7C52.5,21.1,52.3,21.5,52.1,21.8"/>
	<path class="st0" d="M17.9,44.2c0.1-1.2,0.4-2.3,0.6-3.5c0.3-1.4,0.7-3,1.8-3.9c1.2-1,3.1-0.8,4.4,0c1.3,0.8,2.1,2.3,2.5,3.8
		c0.4,1.5,0.4,3.1,0.4,4.6c0,1.8,0,3.7,0,5.5c0,1.1,0,2.1-0.3,3.2c-0.4,1.7-1.5,3.2-3.2,3.7c-0.7,0.2-1.6,0.2-2.3,0
		c-1.4-0.4-2.4-1.7-3-3c-0.6-1.4-0.7-2.9-0.8-4.3C17.8,48.2,17.7,46.2,17.9,44.2 M19.9,51.6c0.1,1.1,0.3,2.2,0.8,3.2
		c0.5,0.9,1.6,1.7,2.7,1.5c0.8-0.2,1.4-0.8,1.7-1.5c0.4-0.7,0.5-1.5,0.6-2.3c0.5-3.8,0.4-7.7-0.4-11.5c-0.2-0.7-0.3-1.5-0.7-2.1
		c-0.4-0.6-1-1.2-1.8-1.2c-0.9-0.1-1.7,0.4-2.2,1.2c-0.5,0.7-0.7,1.6-0.8,2.5c-0.2,1.4-0.4,2.9-0.4,4.3
		C19.4,47.6,19.6,49.6,19.9,51.6"/>
	<path class="st0" d="M38,43.8c-0.7,0.4-1.6,0.7-2.1,0.1c-1-1.2-0.3-3.1,0.8-4.3c1.1-1.1,2.6-1.8,3.8-2.9c0.8-0.8,1.4-1.9,2.2-2.8
		c0.9-0.8,2.2-1.4,3.3-0.8c1.2,0.6,1.4,2.3,1.4,3.6c0.1,7.6,0.2,15.3,0.3,22.9c-1.5,0.3-2.9,0.4-4.4,0.3c-0.1,0-0.3,0-0.4-0.1
		c-0.1-0.1-0.2-0.3-0.2-0.5c-0.2-4.8-0.3-9.5-0.4-14.3c0-1.5-0.1-3,0.2-4.4C41.2,41.8,39.6,42.9,38,43.8 M44.3,58.2
		c0.7,0.4,1.6,0.4,2.2,0c-0.5-0.3-0.6-0.8-0.6-1.4c-0.3-4.2-0.4-8.4-0.2-12.6c0.3-0.1,0.6-0.2,0.9-0.3c-0.7-1-0.8-2.3-0.9-3.6
		c-0.1-1.8-0.3-3.5-0.4-5.2c0-0.4-0.5-0.6-0.9-0.4c-0.4,0.1-0.6,0.5-0.8,0.8c-1.2,1.9-2.9,3.5-4.9,4.6c-0.4,0.2-0.9,0.5-1.1,0.9
		c-0.3,0.4-0.3,1,0.1,1.3c0.7-0.5,1.4-1,2.1-1.5c0.9-0.7,2.1-1.4,3.1-0.9c0.9,0.5,1.1,1.8,1.1,2.9C44.2,47.9,44.2,53.1,44.3,58.2"/>
	<path class="st0" d="M16.5,36.3c1.7-2.1,4.5-3.3,7.1-2.9c2.7,0.3,5.1,2.2,6.2,4.6c0.5,1.2,0.7,2.6,0.9,3.9c0.4,2.7,0.8,5.5,0.7,8.2
		c-0.2,2.7-1,5.5-2.8,7.6c-1.8,2.1-4.7,3.4-7.4,2.8c-2.8-0.6-4.9-3.1-5.9-5.8c-1-2.7-1-5.6-1-8.5C14.3,42.8,14.3,39,16.5,36.3
		 M16.2,41.4c-0.4,3.4-0.4,6.9,0,10.4c0.2,1.5,0.5,2.9,1.3,4.2c1,1.5,2.6,2.6,4.4,2.9c1.8,0.2,3.7-0.4,5-1.6
		c1.5-1.4,2.3-3.6,2.8-5.6c0.3-1.3,0.6-2.7,0.2-4c-0.5-1.9-0.6-3.9-0.9-5.9c-0.3-2-0.9-4-2.3-5.3c-1.1-1.1-2.8-1.6-4.3-1.5
		c-2.3,0-4.5,1.4-5.5,3.5C16.5,39.5,16.3,40.5,16.2,41.4"/>
	<path class="st0" d="M50,69.1c-12.3,0-24.5,0-36.8-0.1c-1.5,0-3.1,0-4.6-0.5c-1.8-0.6-3.2-2.1-3.9-3.8c-0.6-1.5-0.6-3-0.7-4.6
		c-0.3-9.2-0.5-18.4-0.8-27.6c0-1.6,0-3.5,1.4-4.4c0.8-0.6,1.8-0.6,2.8-0.6c15.7-0.2,31.4-0.4,47.1-0.6c1.4,0,3.4,0.4,3.4,1.8
		c0.2,10.4,0.4,20.7,0.6,31.1c0,1.6,0.1,3.3-0.5,4.8c-0.7,2-2.5,3.6-4.5,4.2C52.4,69.1,51.2,69.1,50,69.1 M49.3,67.6
		c1.9,0,3.9,0,5.4-1.2c2.1-1.6,2.2-4.7,2.2-7.4c-0.2-10.2-0.5-20.4-0.7-30.7c-16.8,0.3-33.5,0.5-50.3,0.7c-0.2,0-0.5,0-0.7,0.2
		c-0.3,0.2-0.3,0.6-0.3,1c0.2,9.8,0.5,19.6,0.7,29.5c0.1,2.2,0.2,4.6,1.8,6.2c1.6,1.6,4.1,1.7,6.4,1.7
		C25.6,67.6,37.5,67.6,49.3,67.6"/>
	<path class="st0" d="M87,31.2c-0.3-1.3,1.3-2.5,0.8-3.8c1.2-1,3-1.1,4.6-1.1c17,0,34,0,51,0c0.5,0,1.1,0,1.5,0.3
		c1,0.5,1.1,1.9,1.2,3c0.2,10.1,0.3,20.2,0.5,30.4c0,2,0,4-0.7,5.8c-0.8,2-2.6,3.6-4.8,4.1c-1.2,0.3-2.5,0.3-3.7,0.3
		c-13-0.2-26-0.3-39-0.5c-2.2,0-4.4-0.1-6.3-1.1c-1-0.5-1.9-1.3-2.5-2.3c-1.4-2.1-1.5-4.9-1.6-7.4c-0.1-7-0.3-14-0.4-21
		C87.4,35.6,87.4,33.4,87,31.2 M89.3,28C89,29,89,30.2,89,31.3c0.3,9.7,0.5,19.4,0.8,29.1c0,1.1,0,2.1,0.4,3.2
		c0.6,2,2.3,3.7,4.3,4.2c1,0.3,2.1,0.3,3.2,0.3c13.2,0.1,26.4,0.2,39.5,0.3c2.1,0,4.3,0,5.9-1.4c1.8-1.6,1.9-4.3,1.8-6.7
		c-0.2-10.5-0.3-21-0.5-31.6c0-0.2,0-0.5-0.2-0.7c-0.2-0.2-0.5-0.3-0.8-0.3C125.3,27.9,107.3,27.9,89.3,28"/>
	<path class="st0" d="M148.1,71.6c-1.8,1.8-4.8,1.9-7.4,1.9c-15.3-0.2-30.6-0.4-46-0.5c-3.2,0-7-0.4-8.7-3.1c-0.9-1.4-0.9-3.2-1-4.8
		c-0.3-13.2-0.6-26.5-1-39.8c0-0.3,0-0.7,0.2-0.9c0.3-0.3,0.7-0.4,1.1-0.4c20.9-0.2,41.8-0.3,62.7-0.5c0.4,0,0.8,0,1.1,0.4
		c0.1,0.2,0.1,0.4,0.1,0.7c0.2,13.3,0.4,26.5,0.6,39.8C150,66.8,150,69.7,148.1,71.6 M147.6,25c-12.7,0.1-25.4,0.2-38.1,0.3
		c-6.2,0-12.4,0.1-18.6,0.1c-1.7,0-3.4,0-5.1-0.4c0.4,13.5,0.7,26.9,1.1,40.4c0,1.3,0.1,2.6,0.8,3.7c1.2,1.9,3.8,2.1,6.1,2.1
		c16,0.2,32,0.4,48,0.7c0.9,0,1.8,0,2.7-0.2c2.2-0.6,3.9-2.7,3.9-5C148.1,52.9,147.8,38.9,147.6,25"/>
	<path class="st0" d="M14.3,0.6C16,1,17.1,2.7,17.5,4.4c0.4,1.7,0.1,3.4-0.2,5.1c-0.2,1.1,1.4,1.5,2.5,1.5
		c7.6-0.1,15.1-0.3,22.7-0.4c-0.1-1.6-0.1-3.2-0.2-4.9c0-1.7,0-3.5,1.1-4.7c1.3-1.3,3.6-1.3,5-0.1c1.4,1.2,2,3.2,1.7,5
		c-0.1,0.9-0.4,1.8-0.3,2.8c0.1,0.9,0.9,1.9,1.8,1.8c3.1-0.4,6.6,0.3,8.2,3c0.9,1.5,0.9,3.3,1,5C61,33.7,61.3,49,61.6,64.2
		c0.1,2.6-0.1,5.5-2.1,7.1c-1.4,1-3.3,1.1-5,1.1c-14.7,0-29.5,0-44.2-0.1c-2.7,0-5.9-0.2-7.6-2.3c-1.2-1.5-1.4-3.7-1.4-5.7
		C0.8,49.5,0.4,34.7,0,19.8c0-1.8-0.1-3.7,0.7-5.4c0.8-1.8,2.7-3.1,4.6-3.3c1.6-0.2,3.4,0.3,4.9-0.4C10.1,9,10,7.2,10,5.4
		c0-0.8-0.1-1.7,0.2-2.5C10.7,1.2,12.6,0.2,14.3,0.6 M19.2,12.7c-0.9,0-2,0-2.6-0.7c-0.6-0.6-0.7-1.6-0.8-2.5
		c-0.1-2.2-0.2-4.5-0.3-6.8c-0.8-0.7-2.1-0.7-3-0.2c-0.9,0.6-1.3,1.8-1.1,2.8c0.4,1.5,0.8,3.2,0.4,4.7c-0.4,1.6-1.8,3-3.4,2.7
		c-2.2-0.3-4.8,0-6,1.8c-0.8,1.2-0.8,2.9-0.8,4.4c0.4,15.2,0.8,30.5,1.2,45.7c0,1.4,0.1,3,1,4.1c1.3,1.8,3.8,1.9,6,1.9
		c14.5,0.1,29,0.2,43.4,0.2c2.1,0,4.6-0.1,5.8-1.9C60,68,60,66.4,60,65c-0.1-2.8-0.1-5.6-0.2-8.5c-0.3-12.7-0.6-25.4-0.9-38.1
		c0-2.3-0.4-5.2-2.6-6.1c-1.2-0.5-2.6-0.3-3.9-0.2c-1.3,0.1-2.8,0-3.6-1.1c-0.5-0.7-0.6-1.6-0.6-2.4C48,6.5,48,4.4,48,2.3
		c-0.9-0.3-1.8-0.6-2.6-0.4S43.6,3,43.8,3.8c0.4,2.2,0.5,4.6,0.1,6.8c-0.1,0.4-0.2,0.8-0.4,1.1c-0.4,0.4-1,0.4-1.5,0.5
		C34.4,12.4,26.8,12.5,19.2,12.7"/>
</g>
</svg>
