<?xml version="1.0" encoding="utf-8"?>
<!-- Generator: Adobe Illustrator 19.2.1, SVG Export Plug-In . SVG Version: 6.00 Build 0)  -->
<svg version="1.1" id="Layer_1" xmlns="http://www.w3.org/2000/svg" xmlns:xlink="http://www.w3.org/1999/xlink" x="0px" y="0px"
	 viewBox="0 0 167 200" style="enable-background:new 0 0 167 200;" xml:space="preserve">
<style type="text/css">
	.st0{fill:#FF011E;}
</style>
<g id="medicine-cup">
	<path d="M167,17.5c-0.1-1-0.4-1.9-1-2.7c-1.2-1.6-2.9-2.7-4.6-3.6c-3.9-2.1-8.2-3.4-12.5-4.5c-3-0.7-5.9-1.4-8.9-2
		c-1.8-0.4-3.7-0.7-5.6-1c-1.5-0.2-3-0.4-4.5-0.6c-1.4-0.2-2.9-0.4-4.3-0.6c-1.3-0.2-2.7-0.3-4-0.4c-1.5-0.2-3.1-0.4-4.6-0.5
		c-1.4-0.1-2.9-0.2-4.3-0.3c-2.2-0.2-4.4-0.4-6.7-0.5c-2-0.1-4-0.2-6-0.3C95.7,0.2,91.6,0,87.4,0c-5.5,0-11,0.1-16.5,0.1
		c0,0,0,0.1,0,0.1c-0.4,0-0.9,0-1.3,0c-2.8,0.1-5.6,0.3-8.3,0.4c-1.2,0.1-2.4,0.1-3.5,0.2c-1.6,0.1-3.1,0.3-4.7,0.4
		c-1.4,0.1-2.7,0.2-4.1,0.3c-1.5,0.1-3,0.3-4.5,0.5c-1.6,0.2-3.2,0.3-4.8,0.5c-1.8,0.2-3.7,0.5-5.5,0.8c-1.8,0.3-3.6,0.5-5.3,0.9
		c-3.2,0.6-6.4,1.3-9.5,2.1c-4.3,1-8.5,2.3-12.5,4.2c-2,1-3.9,2.1-5.5,3.8c-0.9,1-1.4,2.1-1.3,3.4c0.1,1,0.3,1.9,0.5,2.9
		c0.2,1.4,0.4,2.9,0.7,4.3c0.2,1.2,0.4,2.4,0.6,3.6c0.2,1.5,0.5,3,0.7,4.4c0.2,1.2,0.4,2.4,0.5,3.6c0.2,1.5,0.5,3,0.7,4.4
		c0.2,1.2,0.4,2.4,0.5,3.6c0.2,1.5,0.5,2.9,0.7,4.4c0.2,1.2,0.4,2.4,0.6,3.7c0.2,1.2,0.4,2.4,0.6,3.6c0.2,1.4,0.4,2.9,0.7,4.3
		C6.9,62,7.1,63.5,7.3,65c0.2,1.2,0.4,2.4,0.6,3.6c0.3,1.6,0.5,3.2,0.8,4.9c0.2,1.4,0.4,2.9,0.6,4.3c0.3,1.6,0.5,3.2,0.8,4.9
		c0.3,1.6,0.5,3.3,0.7,4.9c0.3,1.6,0.5,3.2,0.8,4.9c0.3,1.6,0.5,3.3,0.7,4.9c0.3,1.6,0.5,3.2,0.8,4.8c0.3,1.6,0.5,3.2,0.7,4.8
		c0.3,1.6,0.5,3.2,0.8,4.8c0.3,1.6,0.5,3.2,0.7,4.7c0.3,1.6,0.5,3.1,0.8,4.7c0.3,1.8,0.6,3.6,0.8,5.3c0.3,2,0.7,3.9,1,5.9
		c0.3,1.7,0.6,3.5,0.9,5.2c0.3,1.9,0.7,3.8,1,5.8c0.3,1.9,0.6,3.8,1,5.7c0.4,2.4,0.9,4.8,1.3,7.3c0.5,2.7,0.9,5.4,1.5,8.1
		c0.7,3.5,1.4,6.9,2.2,10.4c0.3,1.4,0.6,2.8,1.2,4.1c1.8,3.8,4.6,6.8,7.7,9.6c1.6,1.4,3.3,2.5,5.2,3.5c2.8,1.6,5.7,3,8.7,4.1
		c3.4,1.3,6.9,2.2,10.5,2.7c1.9,0.3,3.9,0.4,5.8,0.6c1.6,0.1,3.1,0.2,4.7,0.3c1.8,0.1,3.5,0.2,5.3,0.2c1.7,0,3.3,0.1,5,0.1
		c4.6,0,9.3-0.1,13.9-0.2c1.9,0,3.8-0.1,5.7-0.2c1.9-0.1,3.7-0.2,5.6-0.3c1.6-0.1,3.2-0.3,4.8-0.4c1.6-0.1,3.2-0.4,4.7-0.9
		c5-1.6,9.8-3.6,14.2-6.4c3.2-2.1,6.1-4.6,8.3-7.7c1-1.4,2-2.9,2.4-4.6c0.6-2.3,1-4.7,1.5-7c0.4-1.8,0.7-3.6,1-5.4
		c0.3-1.8,0.6-3.7,1-5.5c0.3-1.7,0.6-3.3,0.9-5c0.3-1.7,0.6-3.4,0.9-5.2c0.3-1.5,0.5-3,0.8-4.5c0.3-1.6,0.5-3.1,0.8-4.7
		c0.3-1.5,0.5-3,0.8-4.6c0.3-1.6,0.5-3.2,0.8-4.8c0.2-1.4,0.5-2.7,0.7-4.1c0.3-1.6,0.5-3.1,0.8-4.7c0.2-1.4,0.4-2.7,0.7-4.1
		c0.2-1.4,0.5-2.8,0.7-4.2c0.2-1.4,0.5-2.8,0.7-4.2c0.2-1.4,0.4-2.7,0.7-4.1c0.2-1.4,0.5-2.8,0.7-4.2c0.3-1.7,0.6-3.4,0.9-5.1
		c0.3-1.5,0.5-3.1,0.8-4.6c0.3-1.5,0.5-3,0.8-4.5s0.5-3,0.8-4.5c0.3-1.5,0.5-3,0.8-4.6c0.3-1.5,0.5-3,0.8-4.6c0.3-1.5,0.5-3,0.8-4.5
		c0.3-1.5,0.5-3,0.8-4.5c0.3-1.7,0.6-3.4,0.9-5.2c0.3-1.5,0.5-3,0.8-4.6c0.3-1.7,0.6-3.4,0.9-5.1c0.3-1.5,0.5-3,0.8-4.5
		c0.3-1.5,0.5-3,0.8-4.6c0.3-1.5,0.5-3,0.8-4.5c0.3-1.5,0.5-3,0.8-4.6c0.3-1.5,0.5-3,0.8-4.5c0.3-1.7,0.6-3.4,0.9-5.2
		c0.2-1.2,0.5-2.5,0.5-3.7C166.9,19.1,167,18.3,167,17.5z M163.3,30.5c0,0.2-0.1,0.4-0.1,0.6c-0.3,1.7-0.6,3.4-0.8,5.1
		c-0.2,1.5-0.5,3.1-0.7,4.6c-0.1,0.9-0.4,1.8-0.5,2.7c-0.2,1.4-0.4,2.8-0.6,4.2c-0.2,1.2-0.4,2.5-0.6,3.7c-0.2,1.1-0.3,2.3-0.5,3.4
		c-0.1,0.8-0.3,1.5-0.4,2.3c-0.3,1.6-0.6,3.3-0.8,4.9c-0.2,1.2-0.3,2.5-0.5,3.7c-0.1,0.8-0.3,1.6-0.4,2.4c-0.2,1.3-0.4,2.6-0.7,3.9
		c-0.1,0.7-0.3,1.3-0.4,2c-0.2,1.6-0.4,3.2-0.7,4.7c-0.2,1.2-0.4,2.4-0.6,3.6c-0.3,1.5-0.5,3.1-0.7,4.6c-0.3,2-0.7,4.1-1.1,6.1
		c-0.5,2.9-0.9,5.8-1.4,8.7c-0.4,2.4-0.8,4.8-1.2,7.2c-0.4,2.3-0.7,4.5-1.1,6.8c-0.3,1.9-0.6,3.9-1,5.8c-0.4,2.2-0.7,4.5-1.1,6.7
		c-0.4,2.2-0.7,4.4-1.1,6.5c-0.3,2-0.6,4.1-1,6.1c-0.3,2.1-0.7,4.2-1.1,6.3c-0.4,2.2-0.7,4.4-1.1,6.5c-0.4,2.1-0.7,4.1-1.1,6.2
		c-0.4,2.2-0.8,4.5-1.2,6.7c-0.5,2.5-0.9,5-1.4,7.5c-0.3,1.5-0.6,3-1,4.4c-0.2,0.6-0.5,1.2-0.8,1.7c-0.4,0.8-0.8,1.6-1.3,2.4
		c-1.1,1.8-2.6,3.4-4.1,4.8c-3.1,2.8-6.6,4.8-10.4,6.5c-2,0.9-4,1.6-6.2,2c-2.1,0.4-4.3,0.9-6.4,1.2c-1,0.2-2.1,0.2-3.1,0.3
		c-1.3,0.1-2.7,0.4-4,0.5c-3.7,0.3-7.4,0.6-11.1,0.7c-4.7,0.1-9.5,0.1-14.2,0.1c-2.1,0-4.2-0.1-6.3-0.2c-1.6-0.1-3.2-0.2-4.8-0.3
		c-1.8-0.2-3.6-0.4-5.4-0.6c-2.8-0.3-5.5-1.2-8.3-1.9c-4.5-1.2-8.7-3.2-12.5-5.8c-1.6-1.1-3.2-2.3-4.7-3.6c-2.6-2.2-4.8-4.8-6.3-7.9
		c-0.6-1.3-0.9-2.7-1.2-4.2c-0.9-4.4-1.8-8.8-2.7-13.2c-0.7-3.7-1.3-7.5-2-11.2c-0.2-0.9-0.4-1.8-0.5-2.7c-0.2-1-0.3-2-0.4-3
		c0-0.3-0.1-0.6-0.1-0.9c-0.3-1.6-0.5-3.2-0.8-4.7c-0.4-2.3-0.9-4.6-1.3-6.9c-0.3-1.9-0.7-3.8-0.9-5.7c-0.2-2.3-0.8-4.5-1.1-6.7
		c-0.2-1.4-0.4-2.8-0.6-4.2c-0.3-2.1-0.6-4.2-0.9-6.2c-0.3-1.9-0.6-3.8-0.9-5.8c-0.2-1.1-0.4-2.2-0.6-3.3c-0.3-1.9-0.7-3.8-1-5.7
		c-0.1-0.3,0-0.7,0-1c0-0.4,0-0.8-0.1-1.2c-0.2-1.4-0.5-2.7-0.7-4.1c-0.2-1-0.3-2-0.5-3.1c-0.2-1.2-0.4-2.4-0.6-3.7
		c-0.2-1.2-0.2-2.4-0.4-3.6c-0.3-2-0.5-4-0.9-5.9c-0.3-1.9-0.7-3.8-1.1-5.7c-0.4-2.2-0.7-4.3-1.1-6.5c-0.4-2.2-0.8-4.4-1.2-6.7
		c-0.5-2.9-1-5.8-1.4-8.7c-0.4-2.4-0.8-4.9-1.2-7.3c-0.3-2.1-0.7-4.2-1-6.3c-0.3-1.9-0.6-3.8-0.9-5.7c-0.2-1.1-0.3-2.2-0.5-3.2
		c0.1,0,0.1,0,0.2-0.1c0.1,0.2,0.2,0.4,0.2,0.7c0.1,0.2,0,0.4,0.1,0.7c0.5,2.3,0.9,4.6,1.4,6.9c0.5,2.4,0.9,4.8,1.3,7.2
		c0.4,2,0.7,4,1.1,6.1c0.4,2.2,0.8,4.4,1.2,6.7c0.4,2.2,0.8,4.4,1.2,6.7c0.4,2,0.7,4,1.1,6.1c0.4,2,0.7,4.1,1.1,6.1
		c0.4,2.2,0.8,4.4,1.2,6.6c0.3,1.8,0.6,3.7,1,5.5c0.4,2,0.7,4,1.1,6.1c0.3,1.9,0.6,3.7,1,5.6c0.4,2,0.7,4,1.1,6
		c0.3,1.8,0.7,3.7,1,5.5c0.4,2,0.7,4,1.1,6c0.4,2,0.7,4,1.1,6c0.4,2.1,0.7,4.2,1.1,6.2c0.3,1.9,0.7,3.9,1,5.8
		c0.4,2.1,0.8,4.2,1.1,6.3c0.4,2.5,0.8,5.1,1.2,7.6c0.1,0.9,0.3,1.8,0.6,2.7c0.7,2.2,1.4,4.4,2.3,6.5c1,2.5,2.4,4.7,4.2,6.7
		c3.1,3.6,7.1,6.1,11.4,8c5.9,2.6,11.9,4.8,18.1,6.5c3,0.8,6.2,1.5,9.3,2.1c1.9,0.4,3.9,0.7,5.8,0.9c1.2,0.2,2.4,0.3,3.7,0.3
		c2.4,0.1,4.9,0.3,7.3,0.3c2.1,0,4.1-0.1,6.2-0.3c7.4-0.7,14.4-2.6,21.3-5.3c4-1.6,7.9-3.3,11.7-5.3c2.8-1.6,5.5-3.3,8-5.4
		c2.2-1.8,4.1-3.9,5.5-6.4c0.9-1.6,1.4-3.4,1.7-5.2c0.3-2,0.7-4,1.1-6c0.4-2.1,0.8-4.2,1.2-6.4c0.4-2.3,0.8-4.5,1.3-6.8
		c0.4-2.1,0.8-4.2,1.2-6.3c0.4-2.3,0.9-4.5,1.3-6.8c0.4-2.2,0.9-4.5,1.3-6.7c0.4-2.3,0.9-4.5,1.3-6.8c0.5-2.4,0.9-4.9,1.4-7.3
		c0.5-2.6,1-5.2,1.5-7.8c0.5-2.6,1-5.2,1.5-7.8c0.5-2.6,1-5.2,1.5-7.9c0.5-2.6,1-5.2,1.5-7.8c0.6-2.9,1.2-5.9,1.7-8.8
		c0.6-2.9,1.1-5.9,1.7-8.8c0.5-2.8,1.1-5.5,1.6-8.2c0.4-2.2,0.9-4.4,1.3-6.6c0.2-0.9,0.4-1.8,0.5-2.6c0,0,0.1,0,0.1,0
		C163.6,29.2,163.5,29.8,163.3,30.5z M83.4,146.2c2.2,0,4.4,0,6.6,0.1c1.9,0.1,3.8,0.2,5.8,0.3c1.7,0.1,3.4,0.2,5.1,0.4
		c2.2,0.2,4.4,0.5,6.7,0.7c3.6,0.4,7.1,1.3,10.6,2.3c3.2,0.9,6.3,1.8,9.4,3c1.5,0.6,3.1,1.3,4.4,2.4c0.4,0.3,0.8,0.7,0.8,1.3
		c0,0.1,0,0.1,0,0.1c0.3,1.1,0.4,1.1-0.5,1.8c-1.1,0.9-2.3,1.7-3.5,2.7c-0.3-1.7-0.9-3.3-2.4-4.2c-1.1-0.7-2.2-1.3-3.3-1.9
		c-3.1-1.5-6.3-2.5-9.6-3.2c-2.1-0.5-4.2-0.9-6.3-1.3c-1.4-0.2-2.8-0.4-4.2-0.6c-1.8-0.2-3.5-0.3-5.3-0.5c-0.7-0.1-1.4-0.1-2.1-0.1
		c-4.1-0.2-8.1-0.3-12.2-0.5c-0.1,0.5-0.1,1.1-0.1,1.5c2.2,0,4.5,0,6.7,0.1c2.1,0.1,4.3,0.2,6.4,0.3c1.8,0.1,3.6,0.2,5.3,0.4
		c6.5,0.7,12.9,2,19,4.3c1.6,0.6,3.1,1.3,4.6,2.3c1.1,0.7,1.5,1.8,1.9,3c0,0.1,0,0.2,0,0.3c0.2,0.9,0.2,1-0.6,1.4
		c-2.7,1.4-5.3,2.9-8,4.1c-4.1,1.9-8.3,3.4-12.6,4.7c-3.1,1-6.4,1.6-9.6,2.1c-4,0.6-8,0.9-12,0.8c-2.2,0-4.4-0.2-6.5-0.4
		c-6.4-0.5-12.6-1.8-18.7-3.6c-3.6-1.1-7.1-2.4-10.6-3.7c-2.6-1-5-2.1-7.6-3.1c-0.2-0.1-0.3-0.2-0.4-0.2c0.1-1.8,1-3,2.3-4
		c3.9-3.1,8.4-4.8,13.2-6.2c2.3-0.6,4.6-1.1,6.9-1.5c1.6-0.3,3.3-0.4,4.9-0.6c3.9-0.4,7.9-0.5,11.9-0.5c0-0.4,0-0.9,0-1.3
		c-1.6,0-3.2,0-4.7,0.1c-2,0.1-4,0.2-6,0.3c-1.7,0.1-3.3,0.3-5,0.5c-6.5,0.9-12.8,2.7-18.6,5.9c-1.5,0.8-3,1.8-4.2,3
		c-1,1-1.7,2.1-1.9,3.6c-2-1.1-3.9-2.4-5.6-4c0.4-1.6,1.6-2.6,2.8-3.5c3.1-2.3,6.6-3.6,10.3-4.8c1.3-0.4,2.6-0.7,3.9-1.2
		c-0.5-0.1-1-0.1-1.4-0.2c-0.4-0.1-0.7-0.1-1.1-0.2c-0.2,0-0.3,0-0.5,0c-3.9,1.2-7.8,2.5-11.3,4.8c-1.2,0.8-2.3,1.7-3.1,2.9
		c-0.3,0.3-0.4,0.7-0.7,1.2c-0.8-1.1-1.7-2.1-2.5-3.1c-2.1-3-3.3-6.3-3.9-9.9c-0.1-0.8-0.6-1.5-0.7-2.3c-0.4-2-0.7-4-1.1-6
		c-0.4-2-0.7-4.1-1.1-6.1c-0.4-2-0.7-4.1-1.1-6.1c-0.4-2-0.7-4-1.1-6c-0.4-2-0.7-4.1-1.1-6.1c-0.5-2.6-1-5.3-1.4-7.9
		c-0.5-2.6-0.9-5.2-1.4-7.8c-0.5-2.8-1-5.6-1.5-8.3c-0.5-2.6-0.9-5.2-1.4-7.8c-0.4-2.2-0.8-4.4-1.2-6.6c-0.4-2-0.7-4.1-1.1-6.1
		c-0.4-2-0.7-4-1.1-6c-0.3-1.9-0.7-3.8-1-5.6c-0.4-2.2-0.8-4.4-1.2-6.6c-0.4-2-0.7-4.1-1.1-6.1c-0.4-2-0.7-4-1.1-6.1
		c-0.4-2-0.7-4-1.1-6c-0.4-2-0.7-4.1-1.1-6.1c-0.1-0.7-0.3-1.4-0.5-2.2c0.7,0.4,1.2,0.7,1.8,1c3.6,1.9,7.5,3.2,11.5,4.2
		c3.6,0.9,7.2,1.7,10.8,2.4c2.4,0.5,4.8,0.9,7.2,1.2c1.6,0.3,3.2,0.4,4.9,0.6c1.6,0.2,3.2,0.4,4.8,0.6c1.2,0.1,2.3,0.2,3.5,0.3
		c1.3,0.1,2.7,0.3,4,0.4c1,0.1,1.9,0.2,2.9,0.2c1.9,0.1,3.9,0.3,5.8,0.4c0.7,0,1.4,0.1,2.1,0.1c2.1,0.1,4.2,0.2,6.2,0.2
		c5.7,0.1,11.4,0.2,17,0.3c2.3,0,4.6,0,6.9-0.1c2.1,0,4.2-0.1,6.3-0.2c1.5-0.1,3-0.1,4.4-0.2c1.7-0.1,3.4-0.2,5.1-0.3
		c1.8-0.1,3.7-0.3,5.5-0.4c1.9-0.2,3.7-0.3,5.6-0.5c2-0.2,3.9-0.5,5.9-0.7c1.9-0.2,3.9-0.5,5.8-0.7c2.2-0.3,4.4-0.7,6.6-1.1
		c3.7-0.7,7.3-1.5,11-2.4c4.3-1.1,8.4-2.4,12.3-4.5c0.5-0.3,1-0.5,1.5-0.8c0,0,0,0,0.1,0c-0.2,1.2-0.4,2.3-0.6,3.5
		c-0.6,3.1-1.2,6.3-1.8,9.4c-0.5,2.8-1.1,5.6-1.6,8.3c-0.5,2.8-1.1,5.6-1.6,8.3c-0.5,2.6-1,5.2-1.5,7.8c-0.5,2.6-1,5.2-1.5,7.8
		c-0.5,2.4-0.9,4.8-1.4,7.3c-0.4,2.2-0.9,4.5-1.3,6.7c-0.5,2.4-1,4.9-1.4,7.3c-0.4,2.2-0.8,4.5-1.3,6.7c-0.5,2.4-0.9,4.8-1.4,7.2
		c-0.4,2-0.8,4.1-1.2,6.1c-0.4,2.3-0.9,4.6-1.3,6.8c-0.4,2.2-0.8,4.5-1.3,6.8c-0.4,2.1-0.8,4.1-1.2,6.2c-0.4,1.9-0.7,3.8-1.1,5.8
		c-0.4,1.9-0.7,3.8-1.1,5.7c-0.4,2.4-0.9,4.7-1.3,7.1c-0.4,2.4-1.3,4.5-2.8,6.5c-0.7,0.9-1.5,1.7-2.2,2.6c-0.5-1.9-1.9-2.9-3.4-3.7
		c-3.1-1.7-6.5-2.7-9.9-3.7c-2.6-0.8-5.3-1.5-7.9-2.1c-1.6-0.4-3.2-0.6-4.8-0.8c-1.6-0.2-3.1-0.4-4.7-0.6c-1.2-0.1-2.5-0.2-3.7-0.3
		c-1.6-0.1-3.1-0.3-4.7-0.4c-0.6,0-1.2-0.1-1.9-0.1c-3.3-0.1-6.7-0.2-10-0.3c0,0.1,0,0.2-0.1,0.3c0,0,0,0,0,0
		C83.3,145.5,83.4,145.8,83.4,146.2z M164.7,19.6c-1.4,1.5-3.1,2.6-4.9,3.4c-3.7,1.8-7.6,3-11.6,4c-3.1,0.8-6.2,1.4-9.3,2.1
		c-2.1,0.4-4.3,0.7-6.4,1.1c-1.8,0.3-3.7,0.6-5.5,0.8c-1.3,0.2-2.6,0.3-3.9,0.4c-1.5,0.2-2.9,0.4-4.4,0.5c-1.3,0.1-2.7,0.2-4,0.3
		c-1.5,0.1-3.1,0.3-4.6,0.4c-0.5,0-1.1,0.1-1.6,0.1c-1.5,0.1-3,0.1-4.5,0.2c-1.3,0.1-2.6,0.2-3.9,0.2c0,0,0,0,0,0
		c-2.8,0.1-5.7,0.2-8.5,0.3c-1.4,0-2.9,0-4.3,0c-3.5,0-6.9,0-10.4,0c-1.8,0-3.6-0.1-5.4-0.1c-1.8-0.1-3.6-0.1-5.4-0.2
		c-2-0.1-3.9-0.2-5.9-0.3c-1.5-0.1-3-0.2-4.6-0.3c-1.8-0.2-3.7-0.3-5.5-0.5c-1.6-0.1-3.1-0.3-4.7-0.4c-1.9-0.2-3.8-0.5-5.7-0.7
		c-2.3-0.3-4.5-0.6-6.8-0.9c-5.9-1-11.8-2.1-17.6-3.8c-3.1-0.9-6.1-2-9-3.5c-1.5-0.8-2.9-1.7-4.1-3c-1.2-1.3-1.2-3,0-4.4
		c1.4-1.5,3.1-2.5,4.9-3.4c3.7-1.8,7.6-3,11.6-4C21.9,7,25,6.3,28.1,5.7c1.9-0.4,3.8-0.7,5.8-1c1.8-0.3,3.6-0.6,5.4-0.8
		c1.6-0.2,3.1-0.4,4.7-0.5c1.5-0.2,2.9-0.4,4.4-0.5c1.3-0.1,2.7-0.2,4-0.3c1.5-0.1,3.1-0.3,4.6-0.4c0.6,0,1.1-0.1,1.7-0.1
		C60,2,61.6,1.9,63.1,1.8c2.5-0.1,5-0.2,7.5-0.3c4.4-0.1,8.8-0.2,13.2-0.2c2.2,0,4.4,0,6.7,0c2.7,0,5.4,0.1,8.1,0.2
		c1.5,0,3.1,0.1,4.6,0.2c1.8,0.1,3.6,0.2,5.4,0.3c1.4,0.1,2.8,0.2,4.3,0.3c2,0.2,4,0.3,5.9,0.5c1.9,0.2,3.8,0.4,5.6,0.6
		c2,0.2,4,0.5,6,0.8c2.7,0.4,5.3,0.8,7.9,1.3c6.4,1.2,12.9,2.6,19,5.1c2.2,0.9,4.3,1.9,6.2,3.4c0.9,0.7,1.7,1.5,2.1,2.6
		C165.9,17.7,165.4,18.7,164.7,19.6z"/>
	<path class="st0" d="M95.7,139.5c2.1-0.1,4.2-0.1,6.2-0.2c3.2-0.1,6.5-0.2,9.7-0.3c1,0,1.9-0.1,2.9-0.1v-1.3
		c-10.8,0.3-21.5,0.7-32.3,1v-14c0.2,0,0.4,0,0.6,0c2.8,0,5.7,0.1,8.5,0.1c2.1,0,4.1,0,6.2-0.2c1.5-0.1,3.1-0.2,4.5-0.9
		c0.3-0.1,0.6-0.2,0.7-0.6c0-0.6-0.4-1-0.9-0.7c-1.4,0.7-2.9,0.8-4.4,0.9c-4.8,0.4-9.7,0.1-14.5,0.2c-0.2,0-0.4,0-0.6,0v-14
		c0.8-0.1,1.5-0.3,2.3-0.3c5.4-0.1,10.8-0.2,16.2-0.2c1.8,0,3.6,0,5.4-0.1c2-0.1,4-0.1,6-0.2c1.3-0.1,2.6-0.2,3.9-0.4
		c0.5-0.1,1-0.3,1.4-0.6c0.2-0.1,0.2-0.5,0.2-0.8c0-0.1-0.4-0.3-0.6-0.3c-0.7,0.1-1.4,0.3-2.1,0.4c-0.9,0.1-1.8,0.2-2.8,0.3
		c-3.1,0.1-6.2,0.2-9.3,0.3c-3.6,0.1-7.1,0.1-10.7,0.1c-2.6,0-5.2,0.1-7.8,0.2c-0.7,0-1.4,0.2-2.1,0.2V87.2c0.9,0.1,1.8,0.1,2.7,0.2
		c0.1,0,0.3,0,0.4,0c3.7,0,7.3,0.1,11,0.1c2.6,0,5.2-0.2,7.7-0.3c0.8,0,1.6-0.1,2.5-0.2c0.3,0,0.6-0.2,0.7-0.4
		c0.1-0.3,0-0.7-0.2-0.9c-0.1-0.2-0.5-0.2-0.8-0.2c-0.6,0.1-1.2,0.2-1.8,0.3c-4,0.3-8.1,0.3-12.1,0.3c-1.6,0-3.1,0-4.7,0
		c-1.8,0-3.6-0.2-5.5-0.3V73.8c0.5,0,1-0.1,1.5-0.1c1.9-0.1,3.9-0.1,5.8-0.2c1.9-0.1,3.9-0.2,5.8-0.3c1.7-0.1,3.5-0.2,5.2-0.3
		c2.3-0.1,4.6-0.3,6.9-0.4c1.6-0.1,3.1-0.2,4.7-0.3c2.2-0.2,4.5-0.3,6.7-0.5c0.2,0,0.4,0,0.6,0c0.5,0,0.8-0.3,0.8-0.8
		c0-0.4-0.3-0.6-0.8-0.6c-2.3,0.2-4.7,0.4-7,0.5c-1.4,0.1-2.8,0.2-4.2,0.2c-1.9,0.1-3.8,0.3-5.7,0.4c-1.4,0.1-2.8,0.2-4.2,0.2
		c-2.2,0.1-4.4,0.3-6.5,0.4c-1.5,0.1-3.1,0.2-4.6,0.2c-1.5,0.1-2.9,0.1-4.4,0.2c-0.2,0-0.4,0-0.6,0v-0.7c0-5.1,0-10.2,0-15.2
		c0-0.2,0-0.5,0-0.7c-0.1-0.4-0.4-0.7-0.8-0.6c-0.4,0-0.6,0.3-0.7,0.7c0,0.1,0,0.2,0,0.4v16.2c-1.2,0-2.2,0-3.3,0
		c-0.9,0-1.8-0.1-2.7-0.2c-2.1-0.1-4.2-0.2-6.2-0.3c-2.8-0.2-5.5-0.4-8.3-0.6c-1.7-0.1-3.4-0.2-5-0.3c-2.2-0.2-4.4-0.3-6.5-0.5
		c-1.6-0.1-3.1-0.2-4.7-0.3c-0.6-0.1-1.3-0.2-1.9-0.3c-0.3,0-0.7,0-0.9,0.2c-0.2,0.1-0.4,0.5-0.3,0.8c0,0.2,0.3,0.4,0.6,0.5
		c0.2,0.1,0.5,0.1,0.8,0.1c1.8,0.1,3.7,0.3,5.5,0.4c1,0.1,2.1,0.1,3.1,0.2c1.8,0.1,3.6,0.3,5.4,0.4c1.1,0.1,2.2,0.1,3.3,0.2
		c1.9,0.1,3.8,0.3,5.7,0.4c1.1,0.1,2.3,0.1,3.4,0.2c2.3,0.1,4.6,0.3,6.8,0.4c1.7,0.1,3.5,0,5.2,0v23.1c-1.8,0-3.6,0.1-5.3,0
		c-2.3-0.1-4.6-0.2-6.9-0.4c-1.6-0.1-3.2-0.2-4.7-0.3c-1.3-0.1-2.7-0.3-4-0.4c-0.1,0-0.3-0.1-0.4-0.1c-0.6-0.2-1-0.1-1.1,0.4
		c-0.1,0.5,0.1,0.9,0.7,1c0.6,0.1,1.3,0.2,1.9,0.2c2.3,0.2,4.7,0.4,7,0.6c1.4,0.1,2.8,0.2,4.2,0.2c2.2,0.1,4.4,0.1,6.6,0.2
		c0.7,0,1.4,0,2.1,0v25.1c-0.7,0-1.3,0-2,0c-1.4-0.1-2.7-0.2-4.1-0.3c-1.4-0.1-2.9-0.3-4.3-0.4c-1-0.1-1.9-0.1-2.9-0.2
		c-1.4-0.1-2.9-0.3-4.3-0.4c-0.9-0.1-1.8-0.1-2.7-0.2c-1.5-0.1-3-0.3-4.5-0.4c-1-0.1-2-0.1-3-0.2c-1.5-0.1-3-0.3-4.6-0.4
		c-1.8-0.1-3.6-0.2-5.4-0.3c0.1,0.5,0.2,0.9,0.3,1.3c1.6,0.1,3.1,0.2,4.6,0.3c1.5,0.1,3.1,0.2,4.6,0.3c1.4,0.1,2.8,0.3,4.3,0.4
		c1.4,0.1,2.8,0.2,4.2,0.3c1.4,0.1,2.7,0.3,4.1,0.4c0.9,0.1,1.9,0.2,2.8,0.2c1.5,0.1,3,0.3,4.5,0.4c1,0.1,1.9,0.2,2.9,0.2
		c1.8,0.1,3.6,0.2,5.5,0.3c0,0.2,0,0.3,0,0.5c0,6.4,0,12.8,0,19.2c0,1.5-0.1,1.6-1.6,1.5c-2.8-0.2-5.6-0.4-8.4-0.5
		c-1.3-0.1-2.6,0.1-3.9,0.1c-0.8,0-1.6-0.1-2.4-0.1c-1-0.1-2-0.2-3-0.3c-1.4-0.2-2.7-0.3-4.1-0.5c-0.7-0.1-1.4-0.3-2.1-0.4
		c-0.1,0-0.3,0-0.3,0.1c-0.2,0.3-0.4,0.6-0.6,1c0.7,0.2,1.4,0.4,2.1,0.5c1.3,0.2,2.6,0.2,3.9,0.4c1.1,0.1,2.2,0.4,3.2,0.5
		c0.8,0.1,1.5,0.1,2.3,0.1c0.9,0,1.8,0.1,2.7,0.1c0.8,0,1.6,0.2,2.4,0.2c1.9,0.1,3.7,0.2,5.6,0.2c1.4,0,2.7,0,4.1,0v1.7
		c0,0-0.1,0-0.1,0c0,0.5,0,0.9,0,1.4c0,0,0.1,0,0.1,0v0.6c0,5.7,0,11.4,0,17.1c0,0.2,0,0.5,0.1,0.6c0.2,0.2,0.5,0.4,0.7,0.4
		c0.2,0,0.4-0.4,0.6-0.6c0.1-0.1,0-0.3,0-0.4c0-3.7,0-7.3,0-11v-0.6c0.7-0.1,1.4-0.2,2.2-0.2c3.9,0,7.8,0.1,11.7,0.1
		c1.5,0,2.9-0.1,4.3-0.6c0.3-0.1,0.7-0.3,0.9-0.6c0.1-0.2,0.1-0.6,0-0.8c-0.2-0.1-0.6-0.2-0.8-0.1c-1.3,0.7-2.6,0.7-4,0.7
		c-2.3,0.1-4.6,0-6.9,0c-1.1,0-2.2-0.1-3.4-0.1c-1.3,0-2.6,0.1-4,0.1v-4.3c-0.1-0.3,0-0.7,0-1.1c0-0.3,0-0.5,0.1-0.8c0,0,0,0,0,0
		v-2.9c0,0,0,0,0.1,0c0-0.4,0-0.9,0-1.4c0,0,0,0-0.1,0v-4.9c1.9-0.1,3.7-0.1,5.5-0.2C90.5,139.7,93.1,139.6,95.7,139.5z"/>
	<path d="M136.7,67.8c0-0.6,0-1.2,0-1.8c0-0.2,0.2-0.4,0.3-0.6c0,0,0.3,0.2,0.5,0.2c0.2,0,0.4,0.1,0.6,0c0.6-0.4,1.1-0.6,1.7-0.1
		c0.3,0.2,0.5,0,0.8-0.2c0.6-0.6,1.4-0.6,1.9,0c0.2,0.2,0.3,0.5,0.3,0.8c0,0.9,0,1.8,0,2.7c0,0.2,0,0.4-0.1,0.5
		c-0.1,0.2-0.4,0.3-0.5,0.3c-0.1,0-0.3-0.2-0.4-0.4c-0.1-0.3,0-0.5,0-0.8c0-0.5,0-1,0-1.6c0-0.7-0.2-1.1-0.6-1.1
		c-0.4,0-0.8,0.6-0.9,1.1c0,0.6,0,1.3,0,1.9c0,0.2,0,0.5-0.1,0.7c-0.1,0.2-0.4,0.3-0.6,0.4c-0.1-0.2-0.3-0.4-0.4-0.6
		c-0.1-0.3,0-0.6,0-1c0-0.6,0-1.1,0-1.7c0-0.2-0.2-0.6-0.4-0.6c-0.2-0.1-0.6,0.1-0.7,0.3c-0.2,0.4-0.3,0.8-0.4,1.3
		c-0.1,0.5,0,0.9,0,1.4c0,0.1,0,0.3,0,0.4c0,0.4-0.1,0.7-0.6,0.7c-0.5,0-0.4-0.5-0.4-0.8C136.7,68.8,136.7,68.3,136.7,67.8
		C136.7,67.8,136.7,67.8,136.7,67.8z"/>
	<path d="M36.7,118.2c0.5,0.2,1.1,0.3,1.6,0.6c0.7,0.5,0.8,1.3,0.2,1.9c-0.5,0.5-1.2,0.9-1.7,1.4c-0.2,0.1-0.3,0.3-0.4,0.5
		c0.2,0.1,0.4,0.2,0.6,0.2c0.4,0,0.7-0.1,1.1-0.1c0.2,0,0.4,0,0.5,0.1c0.2,0.2,0.3,0.4,0.4,0.6c0,0.3-0.2,0.4-0.5,0.4
		c-1.1,0-2.1,0-3.2-0.1c-0.3,0-0.6-0.3-0.7-0.5c-0.1-0.1,0.1-0.5,0.3-0.7c0.4-0.4,1-0.8,1.4-1.2c0.4-0.3,0.7-0.7,1.1-1
		c0.2-0.2,0.4-0.4,0.2-0.7c-0.2-0.3-0.5-0.5-0.9-0.5c-0.6,0.1-0.8,0.5-1.1,0.9c-0.1,0.2-0.5,0.3-0.7,0.2c-0.2-0.1-0.3-0.5-0.3-0.7
		c0-0.2,0.2-0.4,0.3-0.6c0.5-0.6,1.2-0.8,1.9-0.7C36.7,118.3,36.7,118.2,36.7,118.2z"/>
	<path d="M54,95.3c-0.1,0.6-0.2,1-0.3,1.4c0,0.5-0.1,0.9,0.6,1c0.1,0,0.4,0.3,0.4,0.5c0,0.2-0.2,0.4-0.4,0.4c-0.5,0-0.7,0.2-0.7,0.7
		c0,0.3-0.2,0.7-0.6,0.7c-0.4,0-0.5-0.4-0.5-0.7c0-0.4-0.2-0.5-0.6-0.5c-0.5,0.1-1,0.1-1.5,0.1c-0.6,0-1-0.5-0.7-1
		c0.3-0.5,0.7-1,1.1-1.5c0.4-0.5,0.8-0.9,1.2-1.4c0.5-0.5,0.9-0.7,1.3-0.4C53.7,94.8,53.9,95.1,54,95.3z M52.8,95.7
		c-0.6,0.7-1.1,1.3-1.6,2C52.6,98,52.9,97.7,52.8,95.7z"/>
	<path d="M119.1,84.4c1-0.1,2,0.4,2.5,1.3c0.4,0.9-0.1,2.7-1.6,2.9c-0.7,0.1-1.4,0.1-2-0.5c-0.1-0.1-0.3-0.3-0.4-0.5
		c-0.2-0.3-0.3-0.6,0.1-0.8c0.4-0.2,0.6,0.1,0.7,0.3c0.5,0.7,1,0.9,1.5,0.7c0.5-0.2,0.7-0.7,0.7-1.2c0-0.5-0.2-1-0.8-1.2
		c-0.3-0.1-0.7,0-1,0.1c-0.2,0-0.3,0.2-0.5,0.3c-0.2,0.1-0.4,0.1-0.6,0c-0.1-0.1-0.2-0.4-0.2-0.5c0.1-0.7,0.2-1.4,0.4-2.1
		c0.1-0.4,0.4-0.7,0.9-0.7c0.6,0,1.2,0,1.9,0c0.2,0,0.3,0,0.4,0.1c0.1,0.1,0.3,0.3,0.3,0.4c0,0.1-0.2,0.4-0.3,0.4
		c-0.4,0.1-0.8,0.1-1.2,0.1C119.1,83.5,119.1,83.5,119.1,84.4z"/>
	<path d="M31.8,69.2c-0.2,0.7-0.2,1.4-0.5,1.9c-0.8,1.2-2.5,1.1-3.3-0.1c-0.2-0.3-0.4-0.7-0.4-1c0-0.9,0-1.9,0.1-2.8
		c0.1-0.7,0.7-1.1,1.3-1.3c0.8-0.1,1.5,0.1,2,0.7c0.7,0.7,0.7,1.6,0.7,2.5C31.7,69.1,31.8,69.2,31.8,69.2z M28.5,68.9
		C28.5,68.9,28.5,68.9,28.5,68.9c0,0.3,0,0.7,0,1c0,0.6,0.6,1.2,1,1.3c0.5,0,1-0.5,1-1.2c0-0.7,0-1.4,0-2.1c0-0.6-0.5-1.2-1-1.2
		c-0.6,0-0.9,0.4-1,1.1C28.5,68.2,28.5,68.6,28.5,68.9z"/>
	<path d="M44.7,94.7c-0.8,0-1.5-0.3-2-1c-0.3-0.5-0.3-0.8,0.1-1c0.5-0.3,0.7,0,0.8,0.4c0.3,0.5,0.6,0.8,1.2,0.8
		c0.5-0.1,0.9-0.6,0.9-1c-0.1-0.4-0.7-0.8-1.1-0.7c-0.1,0-0.3,0.1-0.4,0c-0.2-0.1-0.5-0.2-0.5-0.4c-0.1-0.3,0.2-0.4,0.5-0.5
		c0.1,0,0.3,0,0.4,0c0.3-0.1,0.6-0.3,0.8-0.5c0.1-0.1-0.1-0.6-0.3-0.6c-0.3-0.1-0.7-0.1-1,0c-0.2,0.1-0.4,0.4-0.6,0.6
		c-0.2,0.2-0.4,0.3-0.7,0.1c-0.2-0.2-0.3-0.4-0.1-0.7c0.7-1,2.5-1.2,3.4-0.5c0.6,0.5,0.7,1,0.2,1.6c-0.2,0.2-0.3,0.4,0,0.7
		c0.5,0.3,0.8,0.8,0.6,1.4c-0.2,0.6-0.7,1.1-1.3,1.3C45.4,94.7,45.1,94.7,44.7,94.7z"/>
	<path d="M129.9,67.8c0-1,0-2,0.7-2.8c0.4-0.6,1-0.9,1.7-0.7c0.8,0.2,1.3,0.8,1.3,1.5c0.1,1,0.1,2,0,3c-0.1,0.8-0.5,1.4-1.2,1.8
		c-0.9,0.5-1.9,0.2-2.3-0.8c-0.1-0.3-0.2-0.6-0.3-1C129.9,68.5,129.9,68.1,129.9,67.8z M132.9,67.3
		C132.9,67.3,132.8,67.3,132.9,67.3c-0.1-0.3-0.1-0.7-0.1-1c0,0,0-0.1,0-0.1c0-0.5-0.4-1.1-0.8-1.2c-0.3-0.1-0.9,0.4-1,0.9
		c-0.1,1.1-0.1,2.2,0,3.4c0,0.2,0.4,0.6,0.7,0.7c0.2,0.1,0.5-0.2,0.7-0.4c0.1-0.1,0.2-0.4,0.3-0.6C132.8,68.4,132.8,67.9,132.9,67.3
		z"/>
	<path d="M52.1,147.6c0.6-0.2,0.7,0.2,0.8,0.7c0,0.3,0,0.6-0.4,0.7c-0.3,0-0.3,0.2-0.4,0.5c-0.1,0.2-0.3,0.4-0.5,0.6
		c-0.2-0.2-0.5-0.4-0.5-0.6c-0.1-0.5-0.2-0.5-0.7-0.6c-0.7-0.1-1.4-0.2-2.1-0.3c-0.3-0.1-0.4-0.4-0.2-0.6c1-1.1,2-2.2,3-3.3
		c0.3-0.4,0.9-0.1,1,0.4c0.1,0.6,0,1.3,0,1.9C52.1,147.2,52.1,147.4,52.1,147.6z M49.7,147.9c1.3,0.1,1.4,0.1,1.4-1.1c0,0,0,0,0-0.1
		c-0.1-0.2-0.1-0.3-0.2-0.5c-0.1,0.1-0.3,0.2-0.4,0.3C50.2,147,50,147.4,49.7,147.9z"/>
	<path d="M128.3,106.2c0.1-0.5,0.1-1.2,0.4-1.7c0.3-0.7,1-1.2,1.8-1.1c0.9,0,1.5,0.5,1.8,1.4c0.4,1.1,0.4,2.3,0.1,3.4
		c-0.2,0.9-1.2,1.5-2,1.4c-0.9-0.1-1.7-0.8-1.8-1.7C128.4,107.3,128.4,106.8,128.3,106.2z M131.6,106.3c-0.1-0.6-0.2-1.2-0.5-1.8
		c-0.3-0.7-1.2-0.7-1.5,0c-0.5,1.2-0.5,2.4,0,3.6c0.1,0.3,0.5,0.5,0.8,0.5c0.3,0,0.7-0.3,0.8-0.6C131.4,107.6,131.5,107,131.6,106.3
		z"/>
	<path d="M112.4,120.2c0.3,0,0.7-0.1,1,0c0.2,0.1,0.5,0.3,0.7,0.4c-0.2,0.2-0.4,0.5-0.7,0.5c-0.4,0.1-0.8,0-1.2,0
		c-0.6,0-1,0.3-0.9,0.9c0,0.3,0.1,0.4,0.5,0.3c1.3-0.4,2.4,0.4,2.5,1.6c0.1,1-0.6,1.9-1.6,2.2c-1,0.3-2.1-0.2-2.5-1
		c-0.1-0.3-0.2-0.6,0.1-0.8c0.3-0.2,0.5,0,0.7,0.3c0.2,0.2,0.3,0.4,0.5,0.6c0.5,0.4,0.8,0.4,1.2,0c0.6-0.4,0.7-1.3,0.3-1.9
		c-0.4-0.6-1-0.6-1.7-0.2c-0.1,0.1-0.2,0.2-0.3,0.2c-0.2,0-0.4,0.1-0.6,0c-0.1-0.1-0.2-0.3-0.2-0.5c0.1-0.7,0.2-1.4,0.4-2.2
		c0.1-0.4,0.4-0.6,0.8-0.6C111.7,120.2,112,120.2,112.4,120.2C112.4,120.2,112.4,120.2,112.4,120.2z"/>
	<path d="M127.3,136.4c0,0.7,0,1.4-0.5,2.1c-0.4,0.6-1,1-1.8,0.9c-0.8-0.1-1.4-0.6-1.7-1.4c-0.3-1.1-0.3-2.2,0-3.3
		c0.3-1,0.9-1.4,2.1-1.4c0.8,0,1.5,0.7,1.7,1.6C127.2,135.4,127.3,135.9,127.3,136.4z M126.4,136.4c-0.2-0.7-0.2-1.3-0.5-1.9
		c-0.3-0.7-1.2-0.7-1.5,0c-0.5,1.2-0.6,2.5,0,3.8c0.3,0.7,1.2,0.6,1.5,0C126.2,137.6,126.3,137,126.4,136.4z"/>
	<path d="M128.9,66.2c-0.1,0.3-0.3,0.6-0.4,0.8c-0.1,0.2-0.3,0.4,0,0.7c0.9,1,0.9,2,0,2.9c-1.2,1.2-2.6,0.9-3.2-0.5
		c-0.1-0.1-0.1-0.3-0.1-0.4c0.1-0.2,0.2-0.4,0.4-0.5c0,0,0.3,0.2,0.4,0.3c0.4,0.7,0.8,0.9,1.4,0.7c0.5-0.1,0.8-0.7,0.7-1.3
		c-0.2-0.6-0.5-0.9-1.1-0.7c-0.3,0.1-0.6,0.1-0.7-0.3c-0.1-0.4,0.2-0.5,0.5-0.6c0.3-0.1,0.6-0.2,0.8-0.4c0.4-0.4,0.4-0.9,0-1.2
		c-0.3-0.2-0.9,0-1.2,0.3c-0.1,0.1-0.1,0.3-0.2,0.4c-0.2,0.1-0.4,0.2-0.6,0.3c-0.1-0.2-0.2-0.5-0.2-0.7c0.2-0.7,1.2-1.4,2-1.4
		C128.2,64.7,128.9,65.3,128.9,66.2z"/>
	<path d="M125.4,103.3c0.9,0,1.6,0.4,1.9,1.1c0.3,0.7,0.1,1.5-0.6,2.1c-0.5,0.4-1,0.8-1.5,1.3c-0.1,0.1-0.2,0.3-0.3,0.5
		c0.2,0.1,0.4,0.1,0.6,0.1c0.5,0,1-0.1,1.4-0.1c0.3,0,0.7,0.1,0.6,0.5c0,0.2-0.4,0.4-0.6,0.4c-0.9,0-1.9,0-2.8,0
		c-0.3,0-0.6-0.2-0.7-0.4c-0.1-0.2,0-0.6,0.2-0.8c0.6-0.6,1.3-1.2,1.9-1.8c0.3-0.2,0.5-0.5,0.7-0.8c0.4-0.5,0.2-1.1-0.3-1.4
		c-0.5-0.3-1-0.1-1.4,0.4c-0.1,0.2-0.1,0.4-0.3,0.5c-0.2,0.1-0.4,0.2-0.6,0.3c-0.1-0.2-0.3-0.5-0.2-0.7c0.1-0.7,0.9-1.4,1.7-1.4
		C125.2,103.3,125.3,103.3,125.4,103.3z"/>
	<path d="M114.6,88.5c-0.5,0-1,0-1.4,0c-0.2,0-0.6-0.1-0.6-0.3c-0.1-0.2,0-0.6,0.1-0.8c0.5-0.6,1.2-1.1,1.7-1.7
		c0.3-0.3,0.7-0.7,1-1.1c0.3-0.4,0.1-1-0.4-1.3c-0.4-0.3-0.9-0.2-1.2,0.3c-0.2,0.2-0.3,0.5-0.4,0.8c-0.1,0.1-0.4,0.3-0.5,0.3
		c-0.1,0-0.3-0.3-0.3-0.5c-0.1-0.6,0.4-1.3,1.1-1.5c0.8-0.2,1.6-0.3,2.3,0.3c0.6,0.5,0.8,1.6,0.3,2.2c-0.5,0.6-1.2,1.1-1.8,1.7
		c-0.1,0.1-0.2,0.1-0.2,0.2c-0.1,0.2-0.2,0.3-0.2,0.5c0.2,0,0.3,0.1,0.5,0.1c0.5,0,1-0.1,1.5,0c0.2,0,0.5,0.3,0.6,0.4
		c0.1,0.3-0.2,0.4-0.6,0.4C115.6,88.5,115.1,88.5,114.6,88.5C114.6,88.5,114.6,88.5,114.6,88.5z"/>
	<path d="M36.5,113.4c-0.1,0.2-0.2,0.3-0.3,0.5c-1.1,1.7-2.1,3.4-3.2,5.2c-0.9,1.5-1.8,3-2.8,4.5c-0.1,0.1-0.1,0.3-0.2,0.3
		c-0.2,0.1-0.5,0.3-0.7,0.2c-0.3-0.1-0.2-0.4-0.1-0.7c0.9-1.5,1.9-3,2.8-4.5c1.1-1.8,2.2-3.6,3.4-5.4c0.1-0.2,0.4-0.3,0.6-0.4
		c0.2,0,0.4,0.2,0.5,0.3C36.6,113.3,36.6,113.3,36.5,113.4z"/>
	<path d="M52.5,89.5c-0.1,0.2-0.2,0.4-0.3,0.6c-2,3.2-4,6.4-6,9.7c0,0.1-0.1,0.1-0.1,0.2c-0.2,0.2-0.4,0.5-0.7,0.3
		c-0.4-0.2-0.2-0.5,0-0.8c0.8-1.3,1.6-2.5,2.4-3.8c1.2-2,2.5-4,3.7-6c0.1-0.1,0.1-0.3,0.2-0.3c0.1-0.1,0.3-0.2,0.4-0.1
		C52.3,89.2,52.4,89.4,52.5,89.5z"/>
	<path d="M53.2,148.7c0-0.4,0-0.8,0-1.2c0.9-0.2,1.8-0.4,2.7-0.5c1.1-0.2,2.3-0.4,3.4-0.4c0.8,0,1.6,0.2,2.3,0.3
		c0.6,0.1,1.2,0.2,2,0.3C60.1,147.6,56.7,148.1,53.2,148.7z"/>
	<path d="M43.3,149.8c0.5-0.8,1-1.5,1.4-2.3c1.6-2.6,3.2-5.2,4.8-7.7c0.1-0.1,0.1-0.3,0.3-0.4c0.2-0.1,0.4-0.1,0.6-0.2
		c0,0.2,0.2,0.5,0.1,0.6c-0.1,0.3-0.4,0.6-0.6,0.9c-1.7,2.8-3.5,5.6-5.2,8.4c-0.2,0.4-0.8,0.5-1.2,0.8
		C43.4,149.9,43.3,149.9,43.3,149.8z"/>
	<path d="M33.9,71.3c0.3,0,0.6,0.1,0.8,0.1c0.5,0,1,0,1.5,0.1c0.2,0,0.3,0.2,0.5,0.4c-0.2,0.2-0.3,0.4-0.5,0.4c-0.2,0.1-0.4,0-0.6,0
		c-0.9-0.1-1.8-0.1-2.7-0.2c-0.2,0-0.5-0.2-0.6-0.4c-0.1-0.1,0.1-0.4,0.3-0.6c0.6-0.6,1.3-1.2,1.9-1.8c0.1-0.1,0.2-0.3,0.2-0.4
		c0-0.1-0.2-0.2-0.3-0.2c-0.3,0-0.7,0-1-0.1c-0.2,0-0.4,0-0.5-0.1c-0.1-0.1-0.2-0.3-0.4-0.4c0.1-0.1,0.3-0.3,0.4-0.3
		c0.4,0,0.7,0,1.1,0c0.5,0,1.1,0.1,1.6,0.2c0.3,0.1,0.6,0.2,0.7,0.4c0.1,0.1-0.1,0.5-0.3,0.7c-0.5,0.6-1.1,1.1-1.7,1.7
		C34.1,70.9,34,71.1,33.9,71.3z"/>
	<path d="M30.3,115.8c0,0.7,0,1.3,0,2c0,0.4-0.2,0.7-0.6,0.8c-0.2,0-0.5-0.2-0.6-0.3c-0.1-0.1-0.1-0.3-0.1-0.5c0-0.8,0-1.5,0-2.3
		c0-0.2-0.1-0.3-0.1-0.5c-0.2,0.1-0.3,0.1-0.5,0.2c-0.3,0.1-0.5,0.3-0.8,0.3c-0.2,0-0.4-0.2-0.5-0.3c0-0.1,0.2-0.4,0.3-0.5
		c0.7-0.2,1.3-0.6,1.8-1.2c0.1-0.2,0.5-0.3,0.7-0.2c0.2,0.1,0.4,0.4,0.4,0.7C30.3,114.4,30.3,115.1,30.3,115.8z"/>
	<path d="M24.1,67.3c-0.2,0.1-0.4,0.3-0.6,0.4c-0.2,0.1-0.5,0.2-0.7,0.1c-0.1,0-0.3-0.2-0.3-0.4c0-0.1,0.1-0.4,0.2-0.4
		c0.8-0.2,1.4-0.7,1.9-1.3c0.1-0.1,0.4-0.2,0.5-0.1c0.2,0.2,0.4,0.4,0.4,0.6c0,1,0,2,0,3c0,0.5,0,1,0,1.4c0,0.4-0.1,0.8-0.6,0.9
		c-0.3,0.1-0.6-0.5-0.6-0.9c0-1.1,0-2.2,0-3.2C24.2,67.4,24.1,67.4,24.1,67.3z"/>
	<path d="M44.2,142c0,0.6,0,1.2,0,1.9c0,0.6-0.2,0.9-0.6,0.9c-0.4,0-0.7-0.3-0.7-0.9c0-0.8,0-1.5,0.1-2.3c0-0.4-0.2-0.5-0.5-0.3
		c-0.2,0.1-0.5,0.3-0.8,0.3c-0.2,0-0.6-0.1-0.7-0.3c-0.2-0.3,0.1-0.5,0.4-0.6c0.7-0.2,1.2-0.6,1.7-1.2c0.1-0.2,0.5-0.3,0.6-0.3
		c0.2,0.2,0.4,0.5,0.4,0.7C44.2,140.7,44.2,141.3,44.2,142C44.2,142,44.2,142,44.2,142z"/>
	<path d="M121.2,136.3c0,0.7,0,1.4,0,2.2c0,0.2,0,0.4-0.1,0.6c-0.1,0.1-0.3,0.3-0.4,0.3c-0.1,0-0.3-0.1-0.4-0.3
		c-0.1-0.1-0.1-0.3-0.1-0.4c0-1,0-2.1,0-3.1c0-0.2-0.1-0.3-0.1-0.5c-0.2,0.1-0.4,0.1-0.5,0.2c-0.2,0.1-0.3,0.4-0.5,0.4
		c-0.2,0-0.5-0.1-0.7-0.2c0.1-0.2,0.1-0.4,0.3-0.5c0.7-0.4,1.3-0.9,1.8-1.5c0.1-0.1,0.4-0.2,0.5-0.1c0.2,0.1,0.3,0.3,0.3,0.5
		c0,0.6,0,1.3,0,1.9C121.2,136,121.2,136.2,121.2,136.3C121.2,136.3,121.2,136.3,121.2,136.3z"/>
	<path d="M107.9,123.1c0,0.8,0,1.5,0,2.3c0,0.2,0,0.4-0.1,0.5c-0.1,0.1-0.3,0.3-0.5,0.3c-0.2,0-0.4-0.2-0.4-0.4
		c-0.1-0.2,0-0.5,0-0.7c0-0.9,0-1.8,0-2.7c0-0.4-0.2-0.6-0.6-0.3c-0.2,0.1-0.3,0.3-0.5,0.4c-0.3,0.2-0.6,0.2-0.8-0.1
		c-0.2-0.4,0.1-0.5,0.3-0.6c0.7-0.3,1.3-0.8,1.7-1.4c0.1-0.1,0.3-0.2,0.5-0.3c0.1,0.2,0.3,0.4,0.3,0.6
		C108,121.5,107.9,122.3,107.9,123.1z"/>
	<path d="M144.8,66.1c0,0.8,0,1.7,0,2.5c0,0.1,0,0.2,0,0.3c-0.1,0.3-0.2,0.7-0.6,0.7c-0.4,0-0.5-0.4-0.5-0.7c0-1.2,0-2.3,0.1-3.5
		c0-0.5,0-0.9,0-1.4c0-0.2,0-0.4,0-0.6c0.1-0.3,0.2-0.6,0.5-0.5c0.2,0.1,0.4,0.4,0.4,0.6C144.9,64.3,144.8,65.2,144.8,66.1
		C144.8,66.1,144.8,66.1,144.8,66.1z"/>
	<path d="M38.2,71.3c0.3,0,0.5,0.2,0.5,0.6c0,0.4-0.3,0.6-0.7,0.6c-0.4,0-0.7-0.2-0.7-0.6C37.4,71.6,37.7,71.3,38.2,71.3z"/>
	<path d="M136.1,164.8c0,0.5,0.1,1,0,1.5c-0.3,2-0.5,4-0.8,6.1c-0.5,2.7-1,5.3-1.5,7.9c-0.1,0.5-0.3,1-0.4,1.5
		c-0.2,1.2-1,1.9-1.9,2.5c-1.8,1.3-3.6,2.8-5.6,3.9c-3.2,1.7-6.6,2.9-10.1,3.8c-2.5,0.6-5.1,1.1-7.6,1.6c-2,0.4-4,0.6-6,0.8
		c-1.6,0.2-3.2,0.4-4.8,0.5c-1.7,0.2-3.3,0.3-5,0.4c-1.9,0.1-3.9,0.2-5.8,0.3c-3.1,0.1-6.3,0.2-9.4,0.2c-1.9,0-3.8-0.1-5.7-0.2
		c-1.8-0.1-3.6-0.2-5.4-0.4c-2.5-0.3-5.1-0.6-7.6-1c-6-1.1-11.9-2.6-17.3-5.5c-1.7-0.9-3.5-1.9-4.8-3.4c-1.5-1.7-2.5-3.8-3.3-5.9
		c-1-2.8-1.7-5.6-2-8.5c-0.2-1.9-0.3-3.8-0.4-5.7c0-0.3-0.3-0.6,0-1c0.2-0.3,0.4-0.4,0.7-0.2c1.7,0.8,3.5,1.4,5.1,2.3
		c4.2,2.2,8.3,4.5,12.5,6.6c1.6,0.8,3.3,1.5,5,2.1c1,0.4,2,0.7,3,1c0.1,0,0.3,0.1,0.4,0.1c1.4,0.2,2.7,0.3,4.1,0.5
		c1.3,0.1,2.5,0.3,3.8,0.4c1.2,0.1,2.4,0.3,3.6,0.4c1.6,0.1,3.3,0.3,4.9,0.4c1.4,0.1,2.8,0.2,4.3,0.2c2,0.1,4.1,0.2,6.1,0.1
		c2.2,0,4.4-0.2,6.7-0.3c1.8-0.1,3.5-0.3,5.3-0.5c1.7-0.2,3.5-0.5,5.2-0.7c1.8-0.2,3.6-0.5,5.3-0.8c1.7-0.3,3.3-0.6,5-1
		c1.5-0.3,2.9-0.7,4.4-1c2.3-0.5,4.4-1.4,6.5-2.3c3.1-1.4,6.1-2.8,9.2-4.3C133.2,166.6,134.6,165.7,136.1,164.8z M32,165.5
		c0,0.5,0,0.9,0,1.2c0.2,2,0.4,3.9,0.7,5.9c0.5,3,1.3,5.8,2.6,8.6c0.8,1.7,1.8,3.4,3.5,4.5c2.7,1.9,5.7,3.3,8.9,4.4
		c4.9,1.8,10,2.8,15.2,3.5c2,0.3,4,0.5,6.1,0.6c1.9,0.2,3.9,0.3,5.9,0.3c3.6,0,7.2,0,10.7-0.1c2.6-0.1,5.2-0.2,7.8-0.4
		c1.6-0.1,3.2-0.3,4.7-0.4c1.6-0.2,3.1-0.3,4.7-0.5c2.1-0.3,4.1-0.5,6.2-0.8c3-0.5,5.9-1.2,8.8-2.1c3-1,6-2,8.7-3.7
		c1.6-1,3-2.2,4.5-3.3c0.5-0.4,1-0.7,1.2-1.4c0.4-1.7,0.8-3.5,1.1-5.2c0.4-2.3,0.8-4.7,1.2-7c0.1-0.7,0.2-1.4,0.3-2.2
		c-0.2,0.1-0.3,0.1-0.4,0.2c-4.5,2.5-9.3,4.6-14.1,6.5c-3.4,1.4-6.9,2.2-10.5,2.8c-1.4,0.2-2.8,0.5-4.2,0.7
		c-1.3,0.2-2.6,0.4-3.9,0.5c-1.1,0.1-2.2,0.3-3.3,0.4c-1.3,0.2-2.5,0.3-3.8,0.5c-1.1,0.1-2.2,0.2-3.3,0.3c-1.5,0.1-3.1,0.4-4.6,0.4
		c-3.1,0-6.2-0.2-9.2-0.3c-1.8-0.1-3.5-0.2-5.3-0.3c-1.7-0.1-3.3-0.3-5-0.4c-1.6-0.2-3.3-0.3-4.9-0.5c-1.8-0.3-3.6-0.6-5.4-0.9
		c-2.4-0.5-4.7-1.1-6.8-2.3c-1.7-0.9-3.4-1.7-5.1-2.5c-0.4-0.2-0.7-0.3-1.1-0.6c-0.3-0.2-0.5-0.5-0.8-0.6c-2.6-1.4-5.2-2.8-7.8-4.2
		C34.1,166.5,33.1,166,32,165.5z"/>
	<path d="M105.8,152.4c0.4,0,0.7-0.1,1.1,0c0.2,0,0.4,0.3,0.6,0.4c-0.2,0.2-0.3,0.5-0.5,0.5c-0.4,0.1-0.9,0-1.3,0
		c-0.7,0-0.9,0.1-1,0.8c0,0.4,0.1,0.5,0.4,0.4c1.3-0.3,2.3,0.3,2.5,1.6c0.2,1.1-0.6,2.2-1.8,2.4c-0.9,0.1-1.6-0.1-2.1-0.8
		c-0.1-0.1-0.2-0.3-0.2-0.4c0-0.2,0.1-0.4,0.2-0.6c0.2,0.1,0.5,0.1,0.6,0.2c0.2,0.1,0.3,0.4,0.4,0.6c0.6,0.6,1.3,0.5,1.7-0.2
		c0.3-0.6,0.2-1.3-0.3-1.7c-0.4-0.3-1-0.3-1.5,0.1c-0.2,0.1-0.5,0.1-0.8,0.2c0-0.3-0.2-0.6-0.1-0.8c0.1-0.6,0.2-1.2,0.3-1.8
		c0.1-0.5,0.3-0.7,0.8-0.7C105.1,152.5,105.5,152.4,105.8,152.4z"/>
	<path d="M90.7,29.6c-4.2,0-8.5,0-12.7,0c-1.9,0-3.8,0-5.7-0.1c-2.1-0.1-4.3-0.1-6.4-0.2c-2.1-0.1-4.3-0.2-6.4-0.3
		c-2.1-0.1-4.3-0.3-6.4-0.4c-1.7-0.1-3.3-0.3-5-0.4c-1.9-0.2-3.7-0.4-5.6-0.6c-1.6-0.2-3.2-0.3-4.8-0.5c-2-0.3-4.1-0.6-6.1-0.9
		c-3.4-0.6-6.8-1.2-10.1-2c-3.1-0.7-6.1-1.6-9-3c-1.2-0.6-2.4-1.3-3.3-2.3c-1.1-1.2-1.1-2.6,0-3.8c1.2-1.3,2.8-2.1,4.5-2.8
		c3.7-1.6,7.6-2.5,11.6-3.3c2.6-0.5,5.2-1,7.9-1.4C35.1,7.2,37,7,38.9,6.8c1.6-0.2,3.2-0.4,4.9-0.6C45,6.1,46.1,6,47.3,5.9
		c1.4-0.1,2.9-0.3,4.3-0.4c1.1-0.1,2.1-0.2,3.2-0.2C56.9,5.1,59,5,61.1,4.9c0.8,0,1.6-0.1,2.4-0.1c2.5-0.1,5-0.2,7.5-0.2
		c5.2-0.1,10.3-0.2,15.5-0.2c2.4,0,4.8,0,7.1,0.1c2.1,0,4.1,0.1,6.2,0.2c2.1,0.1,4.3,0.2,6.4,0.3c1.6,0.1,3.3,0.2,4.9,0.3
		c1.9,0.1,3.8,0.3,5.7,0.5c1.6,0.1,3.2,0.3,4.9,0.4c1.6,0.2,3.3,0.4,4.9,0.6c1.7,0.2,3.3,0.4,5,0.6c1.9,0.3,3.8,0.6,5.7,0.9
		c2.8,0.6,5.5,1.2,8.3,1.8c2.9,0.7,5.8,1.7,8.4,3.1c1.1,0.6,2,1.3,2.7,2.3c0.7,1,0.5,2.2-0.3,3.1c-1,1.1-2.2,1.8-3.5,2.4
		c-3.1,1.5-6.5,2.4-9.8,3.2c-2.5,0.6-5.1,1.1-7.6,1.5c-2.1,0.4-4.3,0.7-6.5,1c-2,0.3-4,0.5-5.9,0.7c-2.1,0.2-4.2,0.4-6.3,0.6
		c-1.7,0.2-3.4,0.3-5.2,0.4c-1.6,0.1-3.2,0.2-4.9,0.3c-2.1,0.1-4.2,0.2-6.3,0.3c-2,0.1-4.1,0.2-6.1,0.2c-1.2,0-2.3,0-3.5,0
		C90.7,29.5,90.7,29.6,90.7,29.6z M72.3,5.7C72.3,5.7,72.3,5.7,72.3,5.7c-1.9,0.1-3.7,0.2-5.6,0.3c-2.3,0.1-4.6,0.2-6.9,0.3
		c-1.5,0.1-2.9,0.1-4.4,0.2c-0.5,0-1.1,0.1-1.6,0.1c-1.5,0.1-2.9,0.3-4.4,0.4c-1.3,0.1-2.6,0.2-3.9,0.3c-2,0.2-4,0.5-6,0.7
		c-1.9,0.2-3.8,0.4-5.7,0.7c-2.3,0.4-4.6,0.8-6.9,1.2c-4.1,0.8-8.2,1.8-12.2,3.3c-1.6,0.6-3.2,1.3-4.4,2.6c-0.7,0.7-0.7,1.4,0,2
		c0.8,0.7,1.7,1.3,2.6,1.8c3.3,1.7,6.9,2.7,10.4,3.4c3.6,0.8,7.2,1.4,10.8,2c1.9,0.3,3.8,0.6,5.7,0.8c1.7,0.2,3.4,0.4,5.1,0.5
		c2.1,0.2,4.1,0.4,6.2,0.6c1.9,0.2,3.8,0.3,5.7,0.4c1.8,0.1,3.7,0.2,5.6,0.3c1.6,0.1,3.2,0.2,4.7,0.2c2.7,0.1,5.5,0.2,8.2,0.2
		c5.8,0,11.6,0,17.4-0.1c2,0,4.1-0.1,6.1-0.2c2.3-0.1,4.6-0.2,6.8-0.3c1.6-0.1,3.3-0.2,4.9-0.3c2.2-0.2,4.4-0.3,6.6-0.5
		c1.6-0.1,3.2-0.2,4.8-0.4c2.1-0.2,4.3-0.5,6.4-0.8c1.8-0.2,3.6-0.4,5.3-0.7c2.5-0.4,5-0.9,7.5-1.4c3.3-0.7,6.6-1.6,9.7-2.9
		c1.6-0.6,3.1-1.3,4.3-2.6c0.7-0.7,0.7-1.4,0-2c-0.7-0.6-1.5-1.3-2.4-1.7c-2.8-1.5-5.9-2.4-8.9-3.1c-4.1-1-8.3-1.8-12.5-2.4
		c-2.2-0.3-4.4-0.6-6.6-0.9c-1.8-0.2-3.6-0.4-5.4-0.5c-2.1-0.2-4.3-0.4-6.4-0.6c-1.5-0.1-2.9-0.2-4.4-0.3c-1.8-0.1-3.7-0.2-5.6-0.3
		c-1.6-0.1-3.3-0.2-4.9-0.2c-2.7-0.1-5.4-0.2-8.1-0.2C84.1,5.7,78.2,5.7,72.3,5.7z"/>
</g>
</svg>
