<?xml version="1.0" encoding="utf-8"?>
<!-- Generator: Adobe Illustrator 18.1.1, SVG Export Plug-In . SVG Version: 6.00 Build 0)  -->
<!DOCTYPE svg PUBLIC "-//W3C//DTD SVG 1.1//EN" "http://www.w3.org/Graphics/SVG/1.1/DTD/svg11.dtd">
<svg version="1.1" id="Layer_1" xmlns="http://www.w3.org/2000/svg" xmlns:xlink="http://www.w3.org/1999/xlink" x="0px" y="0px"
	 viewBox="404.5 152 150 257.4" style="enable-background:new 404.5 152 150 257.4;" xml:space="preserve">
<style type="text/css">
	.st0{fill:#FF5722;}
</style>
<g id="backpain-lady">
	<path class="st0" d="M552.8,225.4c-1.4-2.3-2.8-4.9-5.6-6c-2.9-1.1-5.8-2-8.6-2.9c-2.3-0.6-4.7-0.8-7.1-1.3c-1.6-0.4-3-1.1-4.6-1.3
		c-2.3-0.5-4.6-0.5-6.7-0.8c-5.9-0.8-11.7-1.9-17.7-2.8c-7.2-1-13.9-3.4-20.3-6.4c-4.6-2.2-8.7-5.2-13.8-6.4c-0.5-0.1-1-0.6-1.3-1
		c-2.3-2.4-3.5-5.4-4.6-8.6c-0.8-2.5-2.2-4.8-3.4-7.2c-0.4-0.6-0.7-1.1-1-1.7c-1.8-4.4-3-9.1-5.3-13.5c-2.8-5.4-6.8-9-11.9-11.7
		c-3.8-2.2-8-1.8-12.2-1.9c-3-0.1-5.6,1-8,2.3c-4.3,2.3-7.8,5.8-10.8,9.7c-1.4,1.9-2.9,4-4.6,5.6c-1,1-1.2,1.9-1,3.1
		c0.4,1.3,1,2.6,1.4,4.1c0.8,2.6,1.9,5.3,2.4,7.9c0.5,3.1,1,6.2,2.9,9c0.6,0.8,0.6,2.2,1,3.4c0.5,1.9,0.7,4,1.6,5.6
		c1,1.8,2.6,3.4,4,5c1.7,2,3.2,4.1,4.8,6.1c0.2,0.2,0.4,0.8,0.2,1.2c-1.6,3.8-1.2,7.6,0.4,11.1c1.6,3.7,2.8,7.6,4.7,10.9
		c2.2,3.7,2.3,7.7,2.8,11.6c0.5,3.4,0.5,6.7,0.8,10.1c0.2,1.6,0.6,3.5,1.6,4.7c1.8,2.2,4.2,4,6.2,6c0.7,0.6,1.4,1.3,1.8,2.2
		c1.2,2.5,2.3,5.3,3.6,7.8c2.2,4,2.6,8.2,2.2,12.6c-0.1,1-0.1,2,0.2,2.9c1.1,2.5,2.6,4.9,3.7,7.4c0.7,1.7,1.6,3.7,1.3,5.5
		c-0.5,3.7-1.6,7.4-1.7,11.3c-0.2,7.4-1.1,15-1.3,22.4c-0.1,5.3,0.2,10.5,0.7,15.7c0.4,4.1,1.1,8.2,1.8,12.2
		c0.5,2.4,1.9,4.4,2.5,6.7c1.2,4.2,1.6,8.7,2.2,13.2c0.4,2.6,0.2,5.4,0.5,8c0.2,4,0.6,7.9,1,11.9h1.4c-0.2-3.7-0.2-7.6-0.5-11.4
		c-0.1-2.6-0.8-5.3-0.6-7.8c0.4-4.6-0.8-8.7-1.6-12.9c-0.5-2.9-1.8-5.6-2.9-8.4c-1.6-4.1-1.7-8.3-1.8-12.5c-0.2-5.5-0.7-11-0.7-16.5
		c0-6,0.5-11.9,0.7-17.9c0.1-1.4,0.5-2.9,0.6-4.1c2.6,1.2,5,2.5,7.6,3.6c2.3,1,4.6,2.3,7,2.6c4.2,0.7,8.5,0.8,12.7,1.1
		c3.7,0.1,7.3,0,11,0v-0.5h-5.5c0.8-0.4,1.7-0.7,2.5-0.7c4.2-0.4,8.4-0.4,12.5-0.8c3-0.4,6.1-0.6,8.9-1.7c3-1.2,6.2-2.2,8.5-4.8
		c1.3-1.4,2.9-2.6,4.7-4.3c0.2,4.4,0.6,8.6,0.5,12.8c0,3.2-1,6.4-1,9.6c-0.1,3.7-1.1,7.1-2.3,10.4c-2.4,7-4.8,14-7.2,21.1
		c-1.3,3.7-2.4,7.6-3.5,11.4c-1.7,5.8-3.6,11.5-4.8,17.4c-0.8,4.7-0.7,9.5-1.1,14.1c0.7,0,1.4,0,1.8,0.2c-0.1-1.9-0.4-3.8-0.2-5.8
		c0.2-2.5,1.2-5,1.1-7.4c0-1.7,0.2-3.1,0.8-4.6c0.2-0.5,0.4-0.8,0.5-1.3c1.4-5.9,3.6-11.6,5-17.6c0.8-3.2,2-6.5,3.1-9.7
		c2.2-6.4,4.8-12.5,6.5-18.8c1.6-5.5,2.4-11.4,2.9-17.1c0.4-4.4-0.1-9.1-0.7-13.7c-0.5-4.3-1.6-8.5-2.4-12.8
		c-1.2-6.5-2.8-12.7-6.4-18.3c-2.2-3.5-4.4-6.7-6.5-10.2c-0.4-0.5-0.1-1.4,0-2.2c0-0.4,0.5-1,0.4-1.2c-1-1.3-0.1-2.5,0.1-3.7
		c0.1-1.1-0.1-2.2,0-3.2c0-0.6,0.1-1.4,0.5-1.7c1.6-1.1,3.2-1.9,4.9-2.8c2.4-1.2,4.9-2.2,7.4-3.2c2.8-1.1,5.5-2.4,8.3-3.4
		c5.5-2,9.9-5.3,14-9.3c2-2,4.1-4.1,6-6.1c1.3-1.3,2.8-2.8,3.8-4.3C555.4,228.8,553.9,227.1,552.8,225.4z M464.6,202.7
		c1.2-1,2.3-2,3.5-3c0.2-0.2,0.7-0.1,1.3-0.1c-4.7,5.4-8.2,10.9-8.7,18c-0.2,3.4-0.4,6.6-0.6,9.8c-0.4,4.2-0.4,8.4-2.4,12.2
		c-1.4,2.8-3.8,4.7-7,5.6c-1.1,0.2-2,0.7-3.1,1.1c-2.9,0.8-5.6-0.5-8-1.7c-1.4-0.7-2.6-2.4-3.2-4c-2-5.3-3.7-10.8-5.5-16.2
		c-0.5-1.3-0.8-2.8-1.2-4.1c-0.1-0.6-0.1-1.2-0.2-1.8c0.1,0,0.4-0.1,0.5-0.1c0.2,0.6,0.6,1.1,0.6,1.7c1.6,4.9,3,9.8,4.7,14.6
		c0.6,1.9,1.7,3.6,2.6,5.3c1.3,2,3.4,2.9,5.8,3c2.9,0.2,5.9,0.7,8.5-1.3c2.8-2,3.7-5,4.2-8.2c0.6-4.1,0.5-8.2,1.1-12.2
		c0.6-4,1.1-8,2.9-11.9C461.3,207,462.3,204.5,464.6,202.7z M439.6,218.9c-0.6-1.3-1.3-2.5-1.8-3.8c-0.8-1.9-1.9-3.1-4.1-2.8
		c-0.4,0-0.7-0.1-1.3-0.1c2.9-3,6-5.2,9.6-6.7c0.6-0.8,1.1-1.6,1.6-2.3c1.1,3.1,1.9,6.1,3,9c1.6,4.1,1.1,8.3,0.2,12.5
		c-0.1,1-0.2,1.8-0.5,2.6c-0.7,2.2,1.3,3.2,1.9,4.8c1.1,2.5,2.3,4.8,3.5,7.2c0.2,0.5,0.6,0.8,0.7,1.1c-1,0.6-1.8,1.4-2.6,1.7
		c-5.6,1.4-10.4,0.6-12.6-5.5c-2.3-6.1-3.8-12.5-5.8-18.7c-0.1-0.4-0.2-0.7-0.1-1.1c0.2-0.8,0.4-2.3,0.8-2.4c1.2-0.4,2.6-0.5,3.5,1
		c1.2,2.2,2.4,4.4,3.7,6.7c0.1,0.4,0.4,0.6,0.6,0.8c0.2-0.1,0.5-0.1,0.7-0.2C440.3,221.3,439.9,219.9,439.6,218.9z M456.7,220.9
		c-0.4,4.4-0.6,8.9-1,13.3h-0.5c-0.2-0.3-0.4-0.6-0.5-0.9c-0.1-1.7-0.5-3.4-0.9-5.1C454,225.7,455,223.1,456.7,220.9z M446.4,184.6
		h0.4c0,0.1,0.1,0.2,0.1,0.3c0.2,1.5,0.5,3,0.3,4.3c-0.1,0.8-1.6,1.8-2.4,1.8c-1.6,0.1-1.4-1.4-1.6-2.8
		C445.6,188.1,446.4,186.7,446.4,184.6z M423.5,212.1c-1.7-1.9-3.1-4-4.8-6c-1.1-1.2-2.4-2.3-3.2-3.6c-0.8-1.3-1.4-2.9-1.9-4.3
		c-0.4-1.1,0-2.4-0.5-3.5c-0.7-1.9,0.2-2.6,2-3.6c0,1.7-0.1,3-0.2,4.3c-0.1,1.1-0.4,2.3-0.5,3.5c0,1.6,1.2,2.6,2.6,2.2
		c1.7-0.6,3.4-1.3,4.9-2.3c1.4-0.8,1.2-2.3-0.1-2.9c0,0.6,0.2,1.6-0.1,2.2c-0.5,1-1.4,1.7-2.6,0.7c-0.1-0.1-1,0.7-1.4,1
		c-0.5,0.2-1.1,0.4-1.7,0.6c-0.1-0.5-0.4-1.1-0.4-1.6c0.1-1.7,0.6-3.5,0.6-5.2c0-1.2-0.4-2.5-0.6-4c-2.2,2-3.4,1.9-4.7-0.6
		c0.8-0.1,1.7-0.1,2.5-0.2c0-0.2,0.1-0.4,0.1-0.6c-1-0.4-1.9-0.6-2.8-0.8c-0.8-3.4-1.6-6.7-2.4-10.1c4.8,1.8,9.6,3.6,14.3,5.3
		c-1.9,1.1-4.2,2.3-6.5,3.5c0.1,0.2,0.1,0.5,0.2,0.7c0.5-0.1,1,0,1.2-0.2c2.9-2.5,6.2-3.7,10.1-3.8c3.8-0.1,7.7-1,11.5-1.4
		c2,3.6,3.4,4.6,5,3.2c-0.7-0.5-1.4-0.8-1.9-1.4c-0.5-0.5-0.8-1.2-1.1-1.9c-0.1-0.1,0.6-0.7,0.7-0.7c0.7,0.2,1.6,0.6,1.8,1.1
		c0.5,1.3,0.7,2.6,1,4c0,0.4-0.5,1.1-0.8,1.1c-2.2,0.1-1.8,1.7-1.7,3c0.1,0.6,0.1,1.4,0.6,1.9c2.4,2.3,1.1,5,0.6,7.4
		c-0.2,1.4-1.3,3-2.4,4c-3.7,3.4-7.7,6.4-11.5,9.6C427.5,214.1,425.1,213.9,423.5,212.1z M448.2,292.8c0-2.8,0.6-5.4,0.1-8
		c-0.4-2.5-1.8-4.8-2.8-7.1c-0.8-1.9-1.8-3.8-2.6-5.8c-0.1-0.5-0.1-1.1-0.2-1.8c1.7,0.5,3,0.8,4.3,1.3c1.7,0.6,2,2,2.4,3.5
		c0.2,1.1,0.7,2.2,1.3,3c1.4,1.9,2.3,4,2.3,6.5c-0.8-1.2-1.8-2.3-2.6-3.4c-0.2,0.1-0.4,0.2-0.5,0.4c0.7,1.1,1.4,2.2,2.2,3.2
		c0.1,0.2,0.5,0.5,0.5,0.7c0.5,5.3,3.1,9.7,5.4,14.4c0.2,0.5,0.2,1,0,1.6c-2.5-3.4-5.2-6.6-7.7-9.9c-0.2,0.1-0.4,0.2-0.5,0.4
		c1.6,1.9,3.1,4,4.7,6c1.2,1.8,2.6,3.4,3.6,5.3c0.5,0.8,0,2.2-0.1,3.2c-0.4,0.1-0.6,0.1-0.8,0.1c-0.8-1.8-1.6-3.6-2.4-5
		c-0.7-1.3-1.4-2.6-2.4-3.7c-1.1-1.3-2.5-2.4-3.7-3.6C448.3,293.7,448.2,293.2,448.2,292.8z M449.4,295.3c3.4,2.8,5.2,6.1,6.4,9.8
		c0.4,1.2,0,1.7-1.1,1.8C453,303.1,451.3,299.4,449.4,295.3z M509.3,319.3c-5.6,1.7-11.3,3-17.1,3.1c-4.8,0.1-9.7,0.6-14.5,0.6
		c-6.7-0.1-13.3-1.1-19.4-4.3c-1.7-0.8-3.1-2-4.6-3.1c-1-0.7-1.3-1.7-0.8-3c0.2-0.6,0.1-1.2,0.2-1.8c0.5-2.6,1.3-3.1,4.2-3.6
		c0.8-0.1,1.8-1.4,1.9-2.4c0.5-2.9-0.1-5.6-2-8c-0.8-1-1.1-2.4-1.8-4c3.6,2.3,7,3.4,10.7,4.1c6.6,1.3,12.6-0.4,18.6-3
		c3.4-1.6,7-2.5,10.4-3.7c0.5-0.1,0.8-0.5,1.2-0.8c-0.1-0.2-0.4-0.5-0.5-0.7c-5.3,2-10.3,4.1-15.6,6c-4.6,1.7-9,2.6-13.9,1.4
		c-3.2-0.7-6.4-1.4-9.3-3c-2.2-1.2-2.9-2.9-3.6-4.9c-0.1-0.2-0.1-0.6-0.2-0.8c-0.1-0.4-0.4-0.8-0.5-1.3c0.5-0.2,1.1-0.4,2-0.7
		c-1.3-2.6-2.6-5.3-4-8c-0.7-1.6-1.2-3.2-1.9-5c2.3,0,4.2-0.2,6.1,0c5.3,0.6,10.7,1.4,15.9,0.2c2.6-0.7,5.3-2,7.8-3.2
		c3.6-1.7,7-3.6,10.4-5.4c-0.1-0.4-0.2-0.6-0.4-0.8c-0.5,0.1-1,0.1-1.3,0.4c-4,2-7.8,4.1-11.7,6.1c-0.1,0.1-0.4,0.1-0.6,0
		c4-3.5,8.3-6.7,10.2-12.2c-0.4,0.2-0.7,0.4-0.8,0.5c-2.3,4.8-6.5,7.9-10.2,11.5c-3.5,3.4-7.8,2.9-12,2.8c-3.7-0.1-7.3-0.5-11-1
		c-3-0.4-6.2-0.2-8.9-1.6c-5-2.5-9-6.2-9.3-12.5c-0.4-4.6-0.6-9-1.1-13.5c-0.1-1.4-0.6-3-1.1-4.4c-0.6-1.8-1.1-3.7-1.8-5.4
		c-1.2-3-2.6-5.9-4-8.9c-0.2-0.5-0.4-1.2-0.5-1.8c-0.1-1.8-0.5-3.6-0.4-5.4c0-1.7,0.8-3.1,3.1-2.5c-1,2.6,0.6,4.7,1.3,7.1
		c0.2,0.8,0.6,1.6,0.8,2.4c1.9,5.6,3.6,11.5,5.9,17c0.8,1.9,2.5,3.7,4.3,4.9c1.6,1,3.7,1.1,5.6,1.3c2.3,0.2,4.4-0.6,6.6-1.4
		c4.2-1.7,7.2-4.6,8-9c0.7-4.2,1.1-8.4,1.4-12.7c0.5-6.1,1.2-12.1,4.7-17.4c1.6-2.5,3.2-4.9,5.8-6.5c1.7-1.1,2.9,0.4,4,1
		c4.1,2.4,8,5.2,13.1,6c-3.2,2.8-7,4.9-8.3,9.6c0.7-0.2,1.3-0.4,1.3-0.6c0.5-3.1,2.9-4.7,5.2-6.4c3.2-2.3,3.2-2.2,6.8-0.6
		c0.4,0.1,0.7,0.4,1,0.5c-1.3,2.5-2.6,5.2-4,7.7c0.2,0,0.4,0.1,0.6,0.2c0.5-1,1-1.9,1.4-2.8c0.7-1.2,1.6-2.4,2.3-3.7
		c0.8-1.6,1.9-1.1,2.8-0.6c-2.4,5.8-4.7,11.3-7,16.9c-0.6,1.2-0.7,2.6-1.1,4c-0.5,1.9-1.1,2.3-2.9,1.3c-0.7-0.4-1.4-0.8-2.4-1
		c0.4,0.4,0.7,0.7,1.1,1.1c1.2,1,1.2,2-0.5,2.5c-2.5,0.7-5.2,0.7-7.3-1.1c-2.9-2.3-5.8-4.7-8.7-7.2c-1.1,0.7-0.2,1.4,0.4,1.9
		c4,3.5,7.4,7.7,13.4,8.5c-4,3-7.7,5.9-11.4,8.6c0,0.1,0.1,0.2,0.1,0.4c0.4,0,0.8,0,1.1-0.2c3.2-2.4,6.4-4.9,9.6-7.3
		c1.7-1.3,3.6-2.4,5.4-3.6c0.8-0.5,2.4,0.7,2.5,2c0.1,2.2,0.1,4.3,0.4,6.5c0.6,6.2,1.4,12.5,3.4,18.5c1.1,3.5,1.9,7,2.6,10.4
		c0.1,1-0.2,2-0.5,3c-0.2,1.4-0.6,2.9-1,4.3c-0.4,1.2,0.1,2.2,1.4,2.6c1.2,0.5,2.2,0.5,2.8-1c0.1-0.2,0.4-0.5,0.5-0.6
		c1.4-1.7,1.6-1.7,2.6,0.2c2.2,3.6,3.6,7.6,4.8,11.6c1.6,5.4,2.2,11,3,16.5c0.2,2,0.6,4.1,1,6C511.6,317.7,511,318.8,509.3,319.3z
		 M499,246.1c0.8,3.1,0.2,6.1-0.6,9.1c-0.7,2.5-1.4,5-1.3,7.7c0.1,2.2,0,4.3,0,6.5c-2.5-6.8-4.3-13.8-5-21c-0.1-1.9-0.6-3.7-0.7-5.6
		c-0.2-2.8-0.2-5.4-0.1-8.2c0-1,0.6-1.7,1.8-1.1c0.6,0.4,1.4,0.7,2.2,0.7c1.9,0,2.3,1,2.4,2.8C497.7,240,498.2,243.1,499,246.1z
		 M500.3,234.6c3.8,0.5,7.8,1.1,11.7,1.6c1.6,0.2,3.1,0.5,5.2,0.7c-3.5,2.8-6.4,5.3-9.3,7.6c-1.7,1.3-3.6,2.4-5.4,3.6
		c-1,0.6-1.7,0.4-1.9-0.7c-0.7-3.6-1.4-7.2-2-10.9C498.3,235.2,499,234.4,500.3,234.6z M510.6,277.2c0.8,1.2,1.4,2.6,2.3,3.8
		c3.7,5.8,5.8,12.1,7,18.7c0.6,2.6,1.2,5.4,1.7,8c0.1,0.6,0.1,1.3,0.2,1.9c-0.2,0-0.4-0.1-0.6-0.1c-0.6,0.7-1.2,1.3-1.8,1.9
		c-1.7,2.5-4.2,4.1-7.1,5.5c-0.1-1.2-0.4-2.3-0.5-3.4c-0.6-4.4-0.8-9.1-1.9-13.5c-1.4-6.6-2.8-13.3-6.8-18.9c-0.5-0.7-1-1.3-1.2-1.6
		c0.2-1.8,0.5-3.1,0.6-4.6c0.1-2.8,0.8-4.1,2.4-4.4c0.4,0,1.2,0.1,1.4,0.5C507.8,273.2,509.2,275.2,510.6,277.2z M551.5,232
		c-3,2.8-5.6,6-8.6,8.6c-2.4,2-5.2,3.5-7.7,5.4c-3.6,2.8-8,3.7-12,5.5c-3.7,1.7-7.7,3.1-11.4,4.8c-2.3,1-4.3,2.2-6.4,3.4
		c-0.6,0.2-1,0.8-1.2,1.4c-0.7,1.4-1.2,3-1.8,4.6c0.2,0.1,0.5,0.1,0.7,0.2c0.6-1.4,1.1-2.9,2.2-3.8c0.4-0.6,1.1-1.1,1.7-1.6
		c0.4,0.6,1,1.3,1.1,2c0.1,1,0.1,2.2-0.4,2.8c-1.1,1.3-1.1,2.4-0.1,3.8c-1,0.1-1.6,0.1-2.2,0.2c-2.6,0.6-3.8,1.9-3.7,5
		c0.1,2.6-1.2,4.7-2.4,6.8c-0.2,0.6-1.2,0.8-1.8,1.2c-0.2-0.7-0.7-1.3-0.6-1.9c0.4-2.3,1-4.4,1.3-6.6c0.5-2.4,1-4.8,0.7-7.1
		c-0.4-4.1-0.6-8,1.6-11.9c0.1-0.2,0.2-0.5,0.2-0.7c-0.4-3.6,2.5-4.4,4.8-6c2.4-1.6,4.6-3.5,6.8-5.3c2.4-1.8,4.8-4.1,7.6-5.4
		c1.7-0.8,4.1-0.4,6.2-0.4c0.8,0,1.7,0.2,2.6,0.1c-2-1.8-4.2-2.3-6.7-2.2c-6.5,0.2-12.8-0.8-19.2-1.7c-1.9-0.2-3.8,0.1-5.8-0.1
		c-1.4-0.2-2.9-0.8-4.3-1.4c-0.4-0.1-0.6-1-0.5-1.4c1-6.7,4.7-12.2,7.4-18.1c0.4-1,1.1-1.2,2.2-1c3.1,0.6,6.4,0.8,9.6,1.3
		c4.2,0.6,8.3,1.4,12.3,2.2c4.2,0.8,8.4,1.7,12.6,2.5c6.5,1.3,12.5,3.2,16.1,9.3C553.8,228.9,553.4,230.2,551.5,232z"/>
	<path class="st0" d="M475.2,409.1c-0.2-7.2-0.4-14.3-0.6-21.5c-0.1-3.7-0.2-7.4-0.5-11.1c-0.2-3.5-0.5-7.1-0.7-10.5
		c0-1.2,0.4-2.4,0.4-3.6c0-1.3-0.1-2.6-0.1-4c0.1-5,0.5-10.1,0.6-15.1c0-1.6,0.1-3.2,0-4.8c-0.1-0.8-0.8-1.6-1.3-2.4
		c-1-1.4-3.1-2.3-2.4-4.6c0.1-0.2-0.5-0.6-1-1.2c0.8-0.1,1.4-0.2,1.8-0.2c1.2,1.6,2.3,3.1,3.5,4.4c1.4,1.6,2.3,3,2,5.3
		c-0.4,3.4-0.4,6.7-0.4,10.1c0,2.9,0,5.9,0,8.7c0,0.6-0.2,1.2-0.4,1.8c-0.1,0.4-0.4,0.8-0.2,1c0.7,0.8,0.5,1.3,0.1,2.3
		s0.1,2.4,0.2,3.5c0.6,3.6,1,7.1,0.7,10.8c-0.1,3.1,0.2,6.2,0.2,9.2c0,2.4-0.2,4.8-0.4,7.2c0,0.1,0.2,0.4,0.2,0.5
		c0,0.4-0.1,0.7-0.4,1.1c0.1,1.2,0.4,2.5,0.4,3.7c0.1,2.8,0.2,5.6,0.4,8.4c0,0.4,0.2,0.6,0.4,1C477.1,409.1,476.1,409.1,475.2,409.1
		z"/>
	<path class="st0" d="M428.1,201.4c1,3.5-2.4,6.7-5.2,7c-1.1,0.1-2-0.6-2-1.9c0-1-0.1-1.7-1.1-2.2c-0.5-0.2-0.7-0.8-1.1-1.2
		c0.5-0.4,1-1,1.4-1C422.8,201.7,425.4,201.6,428.1,201.4z M427.6,203c-0.1-0.4-0.4-0.7-0.5-1.1c-2.2,0.6-4.2,1.1-6.4,1.7
		c0.6,1.6,1.1,2.8,2.5,2C424.7,205.1,426.1,204,427.6,203z"/>
	<path class="st0" d="M421,188.3c2.3,1.1,3.5-0.8,4.9-1.9c0.2,1.4-1.1,2.8-3.1,3.2c-0.6,0.1-1.3-0.4-2-0.6
		C420.9,188.8,420.9,188.5,421,188.3z"/>
</g>
</svg>
