<?xml version="1.0" encoding="utf-8"?>
<!-- Generator: Adobe Illustrator 19.2.1, SVG Export Plug-In . SVG Version: 6.00 Build 0)  -->
<svg version="1.1" id="Layer_1" xmlns="http://www.w3.org/2000/svg" xmlns:xlink="http://www.w3.org/1999/xlink" x="0px" y="0px"
	 viewBox="0 0 200 258" style="enable-background:new 0 0 200 258;" xml:space="preserve">
<style type="text/css">
	.st0{fill:#00BCD4;}
</style>
<g id="chest-congestion-lady">
	<path class="st0" d="M155.9,258c-0.1-2.5-0.1-4.9-0.2-7.4c0-0.3-0.3-0.8-0.6-0.9c-0.8-0.4-1.6-0.8-2.4-0.9
		c-2.7-0.4-3.7-2.5-4.8-4.6c-1.6-3.1-1.7-6.5-2.2-9.8c-0.4-2.5-0.1-5-0.3-7.5c-0.1-0.9-0.5-1.8-0.9-2.6c-1.4-2.4-2.9-4.7-4.4-7.1
		c-0.1,0.1-0.3,0.1-0.4,0.2c0.1,0.6,0.3,1.2,0.4,1.9c0.1,0.6,0.3,1.2,0.4,1.9c0.5,3.4,0.9,6.8,1.3,10.2c0.3,2.5,0.5,4.9,0.8,7.4
		c0.4,2.8,0.8,5.6,1.2,8.4c0.1,0.7,0,1.3-0.9,1.4c-0.9,0.1-1-0.7-1.1-1.3c-0.5-3-0.9-5.9-1.3-8.9c-0.3-2.7-0.4-5.5-0.8-8.2
		c-0.5-3.7-1-7.4-1.7-11.1c-0.3-1.8-1-3.5-1.4-5.3c-0.1-0.6,0-1.2,0-1.8c0-0.3,0-0.7-0.1-1c-1.2-2-2.4-3.9-3.7-5.9
		c-0.1-0.1-0.2-0.2-0.1-0.1c0.3,3.8,0.8,7.8,1,11.7c0.3,4.9,0.5,9.9,0.4,14.8c-0.1,5.8-0.5,11.6-0.8,17.4c0,0.5,0.1,1.4-0.9,1.3
		c-0.8-0.1-1.1-0.7-1.1-1.4c0.1-3.7,0.3-7.4,0.4-11.1c0.1-1.3,0.2-2.6,0.2-3.8c0.1-4.4,0.3-8.8,0.2-13.2c-0.1-4.1-0.7-8.1-1.1-12.1
		c-0.1-1.2-0.5-2.4-0.6-3.6c-0.1-0.6-0.1-1.3,0.1-1.8c0.5-0.9,0.1-1.5-0.3-2.3c-1.9-3.6-3.9-7.2-5.8-10.9c-0.8-1.6-2-2.6-3.5-3.3
		c-2.7-1.2-5.4-2.5-8.1-3.8c-0.1,0.1-0.2,0.1-0.3,0.2c0.3,0.6,0.6,1.3,0.9,1.9c1.1,2.7,2.1,5.4,2.5,8.3c0.1,0.4-0.3,0.8-0.5,1.2
		c-0.3-0.3-0.9-0.5-1-0.8c-0.3-1-0.3-2.1-0.7-3c-1-2.6-2.3-5-3.2-7.6c-1-2.8-2.4-5.3-4.2-7.6c0,0,0-0.1-0.1-0.1
		c-2.2-2.6-4.6-5-6.6-7.7c-2.1-2.9-5.1-4.4-7.9-6.2c-1.5-0.9-3.1-1.8-4.7-2.6c-0.3-0.2-0.8-0.2-1.2-0.2c-2.1,0-4.2,0-6.2,0
		c-2.8,0-4.8-1.6-6.4-3.6c-0.4-0.6-0.3-1.7-0.2-2.5c0.1-0.7,0.1-1-0.5-1.4c-1.4-0.9-2.9-1.8-4.2-2.8c-1-0.8-1.9-1.8-2.5-2.9
		c-0.5-0.9-0.5-2.1-0.6-3.1c0-0.8-0.1-1.2-1-1.5c-2.2-0.8-3.2-2.6-2.9-4.7c0.1-0.6,0.6-1.2,0.9-1.7c0.2-0.3,0.5-0.4,0.9-0.8
		c-0.6-0.2-1.1-0.3-1.5-0.5c-5.1-1.7-10.4-3.1-14.7-6.5c-2.8-2.1-5.3-4.5-8-6.7c-1.4-1.2-3-2.2-4.6-3.2c-1.4-0.9-3.3-1.5-4.1-2.8
		c-1-1.6-2.2-1.2-3.3-1c-2.8,0.6-5.7,1.4-8.5,2.2c-1.4,0.4-2.7,1-4.1,1.5c-2.8,1.1-4.3,3.5-5.9,5.8c-1,1.4-1.9,3-2.7,4.5
		c-0.4,0.8-0.6,1.8-0.7,2.7c-0.4,3.3-0.9,6.7-1.1,10.1c-0.3,3.3-0.2,6.7-0.5,10c-0.5,5.7-0.2,11.4-1.2,17c-0.4,2.4-0.2,4.9-0.3,7.4
		c-0.1,3.6-0.4,7.2-0.2,10.8c0.3,4.8,0.3,9.7,1.2,14.5c0.6,3.2,0.8,6.5,1.2,9.7c0.3,2.4,0.9,4.7,1.3,7c1,5,2,10,3,15
		c0.6,2.7,1.3,5.5,1.8,8.2c0.7,3.8,1.2,7.7,1.9,11.5c0.3,1.9,0.8,3.9,1.2,5.8c0.1,0.5,0.1,1,0.1,1.5c-0.7,0-1.4,0-2,0
		c-0.5-2.4-1-4.7-1.4-7.1c-0.6-3.6-1.1-7.1-1.8-10.7c-0.5-3-1.2-5.9-1.8-8.9c-1-4.9-2-9.7-2.9-14.6c-0.6-2.9-1.1-5.7-1.5-8.6
		c-0.4-2.6-0.5-5.2-1-7.8c-0.8-4.2-0.9-8.4-1.1-12.7c-0.1-3.7-0.1-7.4,0-11.1c0-3.2,0.1-6.4,0.3-9.6c0.1-2,0.5-4,0.7-6
		c0.1-0.9,0.1-1.8,0.2-2.7c0.2-4.7,0.3-9.4,0.7-14c0.4-4.5,1.2-8.9,1.7-13.4c0.1-0.8-0.1-1.7,0-2.5c0-0.7,0-1.5,0.3-2.1
		c1.6-2.6,3.3-5.1,5-7.6c1.8-2.6,4.4-4.1,7.4-4.9c3.3-0.9,6.5-2,9.8-2.7c2.5-0.6,5.2-0.7,7.8-1.1c3.3-0.5,6.7-0.9,9.6-3.1
		c-0.5-0.6-1-1.4-1.5-2.1c-1.3-1.8-2-3.7-2-6c0.1-2.4,0-4.8,0-7.3c-0.1-5.9-0.3-11.9-0.2-17.8c0.1-3.6,0.6-7.1,0.8-10.7
		c0.1-1.7,0.2-3.3,0.3-5c0.2-4,0.7-7.9,1.6-11.8c0.5-2.1,0.7-4.2,1.1-6.3c0.6-3.1,1.5-6.2,2.1-9.4c1-5.2,3.2-9.9,5.6-14.5
		c1.4-2.6,3-5.1,5.6-6.7c1-0.7,2.1-1.3,3.4-1.2c0.6,0.1,0.9,0.2,1.1,0.7c0.1,0.4,0.3,0.8,0.6,1.1c0.2,0.3,0.7,0.6,0.8,0.5
		c0.3-0.2,0.8-0.6,0.8-0.9c0-0.8-0.2-1.7-0.5-2.5c-0.6-1.6-0.5-2.3,0.9-3.2c2.3-1.3,4.6-2.8,7.4-3c2-0.1,4.1-0.6,6.1-0.8
		C80.8-0.2,83.9,0,87,1.2c3,1.2,6.1,2,9,3.4c4.2,2,7.5,5.3,11,8.3c4,3.4,6.3,8.1,9.4,12.1c1.8,2.4,3.8,4.7,5.7,7
		c2.4,2.9,3.9,6.4,5,10c1,3.1,2.3,6.2,3.5,9.2c0.8,1.9,1.8,3.7,2.4,5.7c0.8,2.6,1.3,5.3,2,7.9c0.2,1,0.5,2,0.7,2.9
		c0.3,1.7,0.5,3.5,0.7,5.2c0.1,1,0.2,2.1,0.2,3.1c0.2,3.3-0.7,6.4-1.8,9.4c-0.2,0.7-0.2,1.4-0.4,2.1c-0.3,0.9-0.5,1.9-1,2.7
		c-1.3,2.3-2.5,4.7-4.2,6.7c-2.4,2.8-5.4,4.7-9.3,4.8c-0.6,0-1.3,0.1-1.9,0.3c-1.7,0.6-2.7-0.4-3.6-1.5c-0.4-0.5-0.7-0.9-1.2-1.6
		c-0.8,2.4,0.3,4.3,2.5,5.5c4.4,2.6,9.1,4.2,14.2,5c2.3,0.4,4.5,1.2,6.7,1.7c2.5,0.5,5.1,0.9,7.6,1.3c5,0.7,10.2,0.7,15.1,2.5
		c4.4,1.6,7.9,4.3,10.1,8.6c1,1.9,2,3.8,2.7,5.8c1.3,3.9,2.1,8,3.7,11.9c0.9,2.1,1,4.6,1.5,6.9c0.9,4.7,1.8,9.5,2.8,14.2
		c0.4,1.9,1,3.7,1.6,5.5c1.3,4.5,2.5,9,3.9,13.4c0.5,1.6,1.7,3,2.4,4.5c0.8,1.6,1.6,3.3,2.3,5c1.1,2.9,2.3,5.8,3.2,8.8
		c0.8,2.5,1.3,5.1,1.8,7.6c0.4,1.8,0.6,3.6,0.8,5.3c0.2,1.9,0.3,3.9,0.6,5.8c0.3,2.5,0.8,4.9,1.1,7.3c0.5,3.3,1.1,6.6,1.6,9.9
		c0.3,1.9,0.6,3.9,0.7,5.8c0.1,2.3,0.1,4.6-0.2,6.9c-0.2,1.7-1,3.3-1.7,4.9c-0.7,1.6-1.6,3.1-2.4,4.6c-0.8,0-1.5,0-2.3,0
		c0.1-2,1.5-3.4,2.5-4.9c1.1-1.6,1.9-3.3,1.8-5.4c-0.1-1.5,0-3.1,0-4.7c0-1.4,0-2.8-0.2-4.2c-0.2-1.9-0.6-3.8-0.9-5.6
		c-0.4-2.6-0.8-5.2-1.1-7.8c-0.4-2.8-0.8-5.6-1.1-8.5c-0.2-1.6-0.4-3.3-0.6-4.9c-0.2-1.6-0.4-3.3-0.7-4.9c-0.4-2.2-0.8-4.4-1.4-6.5
		c-0.8-2.5-1.8-5-2.8-7.4c-0.5-1.5-0.3-3.3-2-4.3c-0.1-0.1-0.1-0.3-0.2-0.5c-0.4-0.8-0.8-1.7-1.2-2.5c-0.6-1.3-1.5-2.5-1.9-3.9
		c-2-7-4-14-5.9-21c-0.7-2.8-1-5.7-1.7-8.6c-1-4.5-1.4-9.2-3.3-13.6c-1.2-2.7-1.5-5.8-2.4-8.6c-0.7-2-1.7-4-2.7-5.9
		c-2-3.7-5.1-6.2-9.1-7.5c-5.2-1.7-10.6-1.8-15.6-2.5c-1.6,3.4-2.7,6.9-4.7,9.8c-2,3-3.6,6.4-7.1,8.3c1.1,1,1.6,2,1.6,3.3
		c0,2.3,0,4.6,0,6.9c0,3,0.5,5.9,1.7,8.6c1.2,2.8,1.4,5.8,1.7,8.8c0.1,0.9,0.3,1.9,0.8,2.8c1.1,2,2.4,4,3.5,6
		c1.5,2.7,2.9,5.5,4.4,8.1c3.3,5.5,7.2,10.6,11.6,15.2c0.6,0.7,1.3,1.3,2.2,2.2c0.1-0.5,0.1-0.7,0.1-0.8c-0.1-6.7-0.1-13.3-0.3-20
		c-0.1-2.9-0.5-5.8-0.9-8.7c-0.3-1.6-0.9-3.2-1.3-4.8c-0.1-0.5,0.1-1.1,0.2-1.6c0.4,0.3,1.1,0.5,1.2,0.9c0.5,1.1,1,2.2,1.3,3.4
		c0.4,1.9,0.6,3.8,0.9,5.7c0.4,2.7,0.8,5.4,1,8.2c0.2,3.8,0.1,7.6,0.2,11.4c0,2.5,0.1,5.1,0,7.6c-0.1,1.3,0.8,3.1,2.2,3.7
		c0.1-1.2,0.1-2.4,0.2-3.6c0.4-3.7,0.7-7.4,1.1-11.1c0.2-1.8,0.4-3.7,0.6-5.5c0.3-2.2,0.7-4.4,0.9-6.7c0.3-3,0.3-6,0.5-9
		c0.1-1.5,0.4-3,0.7-4.4c0.1-0.3,0.5-0.5,0.8-0.7c0.2,0.3,0.5,0.6,0.5,0.9c0,0.8-0.2,1.6-0.2,2.5c-0.2,3.9-0.2,7.8-0.5,11.8
		c-0.2,2.9-0.6,5.8-0.9,8.7c-0.3,3.2-0.6,6.4-0.9,9.5c-0.2,2.5-0.6,4.9-0.8,7.4c-0.1,1-0.3,2-0.1,3c0.2,0.7,0.9,1.4,1.4,2
		c3,3.4,6.6,6.1,10.4,8.5c2.9,1.8,5.7,3.8,7.8,6.6c2.7,3.5,5,7.2,7.1,11.1c1,1.8,1.9,3.7,2.9,5.6c0.3,0.7,0.3,1.3-0.5,1.7
		c-0.8,0.3-1.2-0.1-1.5-0.7c-0.5-0.9-1-1.9-1.4-2.8c-2.3-4.7-4.8-9.2-8-13.2c-1-1.3-2.2-2.5-3.6-3.6c-2.6-2-5.4-3.8-8.1-5.7
		c-0.4-0.3-0.9-0.6-1.5-0.9c0,0.7,0,1,0,1.4c-0.1,2.2-0.1,4.5-0.4,6.6c-0.6,3.7-1.5,7.3-2.3,11c-0.9,4.1-1.8,8.2-4,11.9
		c-1.1,1.9-2.1,3.8-4,5.1c-0.7,0.5-1.4,1.1-2,1.6c2.1,1.9,4,3.7,6.1,5.5c1.7,1.5,3.6,3,5.3,4.5c-1.1,0-2.3,0-3.4,0
		c-0.3-0.3-0.5-0.5-0.8-0.8c-1.4-1.2-2.8-2.3-4.2-3.5c-0.3-0.3-0.6-0.6-0.9-0.9c-0.7-0.6-1.4-0.3-1.4,0.5c-0.1,0.7,0,1.4,0,2.1
		c0,0.9,0,1.7,0.1,2.6C157.1,258,156.5,258,155.9,258z M107.3,28.5c-0.3-0.6-0.4-0.9-0.6-1.2c-1.8-3-3.7-6-5.6-9
		c-1.5-2.3-3.1-4.4-5.4-6c-2.6-1.8-5.4-3.2-8.5-4.1c-2.5-0.7-4.9-0.7-7.4-0.5c-2.4,0.2-4.8,0.6-7.3,0.9c-4.1,0.5-7.5,2.6-10.4,5.5
		c-1.3,1.3-2.3,2.9-3.4,4.5c-2,2.9-3.2,6.2-3.2,9.8c0,2.7,0,5.4,0,8.1c0,4.8-0.1,9.6,0,14.4c0,1.9,0.1,3.8,0.3,5.6
		c0.3,2.1,0.3,2.2-1.7,2.6c-0.6,0.1-1.3,0.2-1.1,1c0.1,0.5,0.7,0.8,1.1,1.2c0.6,0.5,1.7,0.7,1.9,1.3c0.7,1.9,1.3,3.8,2.9,5.3
		c0.3,0.3,0,1.3-0.3,1.9c-0.3,0.7-0.8,0.7-1.5,0.2c-0.3-0.2-0.8-0.1-1.2,0c-1,0.3-1.3,1-1.4,2c0,1.3,0.6,2.4,1.7,2.6
		c1.8,0.3,3.5,0.3,5.1-0.9c0.5-0.4,0.8-0.9,0.2-1.5c-0.3-0.3-0.5-0.7-0.7-1.2c-0.1-0.2,0-0.6,0.1-0.7c0.1-0.1,0.5-0.1,0.7-0.1
		c0.3,0.1,0.6,0.4,0.8,0.6c2.1,2.7,4.3,5.4,6.4,8.2c1.6,2.2,3.4,4.2,6,5.4c3.4,1.5,6.9,2.1,10.6,2.3c4.2,0.3,8.2-0.5,12.2-1.1
		c2.9-0.4,5.7-1.2,8.5-1.9c3.3-0.8,5.8-2.7,7.2-5.8c1.5-3.1,1.7-6.5,1.8-9.9c0-3.3-0.4-6.7-0.6-10c-0.2-3.7-0.3-7.4-0.5-11.1
		c-0.1-1.3-0.3-2.7-0.8-4c-1.3-3.6-2.8-7.1-4.1-10.7c-0.5-1.3-1.1-2.3-2.6-2.3c-0.3,0-0.5-0.3-0.8-0.4c-1.5-0.6-2.9-1.7-4.4-1.7
		c-2.8-0.1-5.7,0.2-8.3,1.8c-0.4,0.3-0.9,0.5-1.3,0.6c-0.3,0-1-0.3-1-0.5c-0.1-0.9,0-1.9,1-2.4c1.1-0.5,2.2-0.9,3.4-1
		c2-0.2,4-0.2,6-0.2c0.7,0,1.5,0.2,2.2,0.4C104.7,27.4,105.9,27.9,107.3,28.5z M102.7,168.6c0-0.1,0,0.1,0.1,0.2
		c1.1,1.3,2.1,2.6,3.3,3.7c2.3,2.2,3.9,4.7,5.3,7.5c0.1,0.2,0.2,0.5,0.4,0.6c1,0.5,2.1,0.9,3.2,1.4c2.7,1.3,5.5,2.5,8.2,3.9
		c1,0.6,2,1.6,2.6,2.6c1.3,2.3,2.4,4.7,3.7,7.1c0.7,1.3,1.4,2.6,2.2,3.8c2,3.1,4.1,6.2,6,9.4c1.8,2.8,3.4,5.7,5.1,8.6
		c1.3,2.1,2.8,4.2,4.1,6.3c1.9,3.1,3.5,6.3,5.5,9.3c2.2,3.4,4.6,6.7,7,10.1c0.1-0.1,0.3-0.1,0.4-0.3c1.1-2.2,2.4-4.3,3.3-6.6
		c0.8-1.9,1.2-4,1.7-6c0.9-3.9,1.9-7.9,2.5-11.8c0.5-3,0.4-6.1,0.5-9.1c0-0.5-0.2-1.1-0.6-1.5c-2.1-2.5-4.4-4.9-6.5-7.4
		c-3.4-3.9-6.9-7.6-10-11.7c-2.9-3.7-5.5-7.7-8-11.7c-1.9-3-3.5-6.2-5.3-9.4c-0.9-1.6-1.8-3.3-2.6-5c-0.3-0.6-0.3-1.3-0.4-1.9
		c-0.3-2-0.4-4-0.9-6c-0.4-1.6-1.1-3.2-1.6-4.8c-0.8-2.7-1.1-5.4-0.9-8.2c0-0.6-0.1-1.1-0.8-1.3c-1.3-0.4-1.9-1.5-2.4-2.7
		c-0.2-0.4-0.3-0.7-0.4-1.1c-0.1,0-0.3,0-0.4-0.1c-0.7,1.9-1.7,3.7-2.1,5.7c-0.5,2.3-0.4,4.7-0.5,7.1c-0.1,1.1-0.7,1.8-1.8,1.7
		c-1.1-0.1-2.1-0.4-3.2-0.4c-2.1-0.1-4.1-0.5-5.9-1.7c-1.4-0.9-2.7-1.8-4.1-2.7c-3.8-2.3-7.6-4.6-11.4-6.9c-1-0.6-2-1.3-3.1-1.7
		c-2.1-0.7-3.9-1.6-5.8-2.8c-3-1.9-6.3-3.4-9.5-4.9c-1-0.5-2.1-0.5-3.1,0.1c-0.7,0.4-1.2,0.9-0.4,1.7c0.2,0.2,0.3,0.5,0.2,0.7
		c-0.6,1.4,0.3,2,1.2,2.9c1.3,1.2,2.6,2,4.2,2.8c4,2,7.8,4.4,11.7,6.7c2.1,1.2,4.2,2.5,5.6,4.5c-1.4,1.1-1.6,0.5-2.8-0.4
		c-1-0.8-2-1.6-3.1-2.3c-2.2-1.4-4.5-2.6-6.8-4c-2.4-1.5-4.8-3-7.6-3.9c-2-0.6-3.8-1.7-5.8-2.5c-1.1-0.5-2.2-0.8-3.4-1.1
		c-1.3-0.4-2.7-0.9-4-0.9c-0.7,0-1.7,0.8-2.2,1.5c-0.5,0.7-0.2,1.7,0.5,2.4c0.8,0.9,1.8,1.2,3,1.3c0.9,0.1,1.9,0.2,2.7,0.7
		c2.9,1.6,5.8,3.4,8.7,5c1.3,0.7,2.6,1.6,4,2c6.2,1.6,11.4,4.9,16.3,8.9c0.5,0.4,1.1,0.7,0.5,1.4c-0.5,0.7-1.1,0.3-1.6-0.1
		c-0.9-0.7-1.8-1.4-2.7-2.1c-2.7-2-5.3-4.1-8.7-5.1c-4.2-1.2-8.1-3-11.7-5.5c-1.7-1.2-3.5-2.1-5.4-3.1c-0.8-0.4-1.8-0.2-1.9,0.5
		c0,1,0,2,0.7,2.9c2.2,2.8,5.4,4.2,8.4,6c0.4,0.3,1,0.3,1.5,0.5c2.3,0.9,4.8,1.5,6.9,2.7c3.5,2,6.7,4.5,10.1,6.7
		c2.9,1.9,5.8,3.6,8.7,5.4c0.6,0.4,1.8,0.3,1.4,1.3C104.5,168.2,103.5,168.3,102.7,168.6z M111,84.1c-0.1,0-0.3,0-0.4,0
		c-2.9,1.6-6.2,2.1-9.3,2.8c-2.7,0.6-5.4,0.9-8.1,1.4c-0.7,0.1-1.5,0.4-2.2,0.4c-5-0.1-9.9,0-14.7-1.8c-3.2-1.2-5.9-2.9-7.8-5.8
		c-1.3-1.9-2.7-3.7-4.1-5.5c-0.2-0.3-0.6-0.4-1-0.6c-0.2,0.4-0.4,0.8-0.5,1.2c-0.1,0.2,0,0.4,0,0.6c0.6,2.3,1.1,4.6,1.9,6.9
		c0.8,2.7,1.9,5.3,2.8,7.9c0.6,1.9,0.8,4,2,5.8c1,1.5,1.4,3.2,1.5,5.1c0.2,3.8-4.8,9.2-8.2,10.2c-2.9,0.9-5.7,0.9-8.6,0.8
		c-0.8,0-1.7-0.2-2.4-0.4c-2.3-0.8-4.3-2-6-3.6c-0.7-0.6-1.3-0.6-1.9-0.4c-1.9,0.8-3.8,1.7-5.8,2.7c1.8,1.3,3.6,2.7,5.5,3.8
		c2.1,1.2,4.2,2.5,5.9,4.3c0.9,0.9,1.9,1.9,3,2.5c1.9,1.1,3.8,2,5.9,2.8c5,1.8,10,3.5,15,5.2c0.4,0.1,1,0.1,1.2-0.2
		c1.9-2.1,4.1-2,6.5-0.9c2.5,1.2,4.9,2.4,7.4,3.6c0.8,0.4,1.6,0.9,2.3,1.4c2.5,1.7,5.2,2.7,8.2,2.7c2.7,0,5.4,0.1,8.1-0.8
		c2.4-0.8,5-0.9,7.5-1.6c5.3-1.4,9.9-4,14-7.7c2.5-2.2,4.1-5.1,5.7-8.1c0.8-1.4,1.7-2.8,2.5-4.2c0.4-0.6,0.2-1-0.5-1.2
		c-1.1-0.3-2.3-0.7-3.5-0.9c-3.4-0.8-6.8-1.5-10.1-2.5c-3.5-1.1-6.9-2.3-9.7-4.8c-0.2-0.2-0.5-0.3-0.8-0.5c0,0.4-0.1,0.6-0.1,0.9
		c-0.2,3.9-0.4,7.8-0.7,11.8c0,0.5-0.3,1.1-0.6,1.4c-0.5,0.4-1.2-0.1-1.2-1.1c0.2-2.3,0.5-4.6,0.6-6.9c0.2-4.4,0.3-8.9,0.5-13.4
		c0.1-1.7,0.3-3.5,0.3-5.2C111,89.5,111,86.8,111,84.1z M74.2,135.3c0.3-2.3,0.1-2.7-1.4-3.1c-1.8-0.6-3.7-1-5.4-1.7
		c-4.6-1.7-9.2-3.2-13.7-5.1c-2.8-1.2-5.1-3.3-7.2-5.5c-0.6-0.6-1.3-1.1-2-1.6c-2.8-1.9-5.6-3.8-8.4-5.7c-0.4-0.3-0.9-0.7-1.4-0.7
		c-1.1,0-2.2,0.2-3.5,0.3c0.3,0.3,0.4,0.6,0.6,0.7c1.4,0.9,2.8,1.7,4.2,2.6c1.5,1,3,2.1,4.5,3.2c2.7,2.1,5.2,4.5,7.9,6.5
		c3.9,3,8.7,4.3,13.2,5.9c2.6,0.9,5.2,1.5,7.8,2.3C70.9,134,72.5,134.7,74.2,135.3z M100.1,138.7c-0.1,0.2-0.1,0.3-0.2,0.5
		c0.9,0.5,1.7,1.2,2.7,1.3c1.4,0.2,2.9-0.2,4.3-0.1c3.7,0.2,7.3-0.6,10.6-2.2c4.6-2.2,9-5,13.5-7.6c0.8-0.5,1.5-1.3,2.1-2.1
		c0.8-1.1,1.5-2.4,2.3-3.4c2.5-2.9,4-6.2,4.8-9.9c0.1-0.4,0-1.1-0.2-1.2c-0.6-0.2-1.2-0.3-1.4,0.7c-0.1,0.7-0.6,1.3-0.9,1.9
		c-0.9,1.4-1.9,2.7-2.6,4.2c-2.1,4.2-5.1,7.5-9,10.2c-3,2-6.1,3.8-9.6,4.7c-2.9,0.8-5.9,1.5-8.9,2
		C105.1,138.1,102.7,138.9,100.1,138.7z M125.4,136.2c-3.3,1.5-6.5,3.1-9.8,4.3c-3.3,1.2-6.8,1.8-10.5,1.5c0.2,0.3,0.5,0.5,0.7,0.7
		c2.5,1.5,5,3,7.5,4.5c1.3,0.7,2.6,1.4,4,1.7c1.5,0.4,3,0.4,4.5,0.6c0.6,0.1,0.8-0.1,0.8-0.7c0.1-1.7,0.1-3.4,0.3-5.1
		c0.1-1,0.2-2,0.5-3C124,139.2,124.8,137.7,125.4,136.2z M147.8,229.8c-0.1,0-0.2,0.1-0.4,0.1c0,0.5-0.1,1,0,1.4
		c0.3,2.1,0.8,4.2,0.9,6.3c0.2,2.3,0.8,4.4,1.8,6.4c1.4,2.7,3.6,3.3,6.2,1.7c0.7-0.4,0.8-0.9,0.5-1.5c-0.4-0.9-0.9-1.8-1.5-2.7
		c-1.5-2.3-3.2-4.6-4.7-6.9C149.7,233.2,148.8,231.5,147.8,229.8z M84.8,157c0-0.1,0.1-0.3,0.1-0.4c-0.7-0.5-1.4-1-2.3-1.3
		c-2.3-0.8-4.5-1.5-6.8-2.2c-0.3-0.1-0.9,0.1-1.2,0.4c-0.1,0.2,0,0.8,0.3,1.1c1.3,1.3,2.5,2.6,4.6,2.5C81.3,156.9,83,157,84.8,157z
		 M54.4,62.8c-0.1,0-0.3,0-0.4,0c-0.1,0.4-0.3,0.8-0.3,1.2c0.2,1.6,0.4,3.2,0.7,4.8c0,0.2,0.5,0.6,0.8,0.6c0.6,0,1.1-0.3,1.7-0.3
		c0.6-0.1,0.8-0.4,0.5-0.9c-0.8-1.5-1.5-3-2.3-4.5C54.9,63.3,54.6,63.1,54.4,62.8z M130.6,139.1c0.1-0.1,0.3-0.2,0.4-0.2
		c-0.1-1.2-0.2-2.5-0.3-3.7c0-0.2-0.4-0.6-0.7-0.6c-1.4,0-1.6,0.3-1.1,1.6c0.2,0.7,0.5,1.3,0.8,1.9
		C129.9,138.5,130.3,138.8,130.6,139.1z"/>
	<path class="st0" d="M48,258c-0.5-1.5-1-3-1.6-4.5c-0.7-1.6-1.6-3-2-4.7c-0.4-1.7-1.8-3.1-2.7-4.7c-0.8-1.5-1.5-3.1-2.4-4.6
		c-1.9-3.4-3.9-6.8-5.9-10.2c-1.5-2.6-3.1-5.1-4.8-7.6c-0.5-0.8-1.3-1.3-2-2c-1.1-1-2.1-2-3.2-3c-0.1-0.1-0.3-0.5-0.2-0.6
		c0.1-0.2,0.5-0.4,0.6-0.3c0.5,0.2,1.1,0.3,1.5,0.7c2,1.9,4.4,3.6,5.8,5.9c3.7,5.9,8,11.5,10.6,18.1c0.6,1.6,1.8,2.9,2.7,4.3
		c0.1,0,0.3-0.1,0.4-0.1c0.3-1.7,0.7-3.4,0.8-5.1c0-4.2,0-8.5-0.2-12.7c-0.1-1.2-1-2.4-1.1-3.7c-0.3-2.9-2.3-5.1-3.1-7.8
		c-0.9-2.9-1.8-5.8-3-8.7c-1.2-2.8-2.6-5.5-4.9-7.7c-0.5-0.5-0.8-1.1-1.1-1.7c-0.1-0.2,0.2-0.7,0.4-0.9c0.1-0.1,0.7,0,0.8,0.2
		c1.5,1.8,3,3.6,4.3,5.4c2.1,2.8,3.1,6.1,4.2,9.4c0.7,2.3,1.8,4.4,2.8,6.6c0.1,0.2,0.3,0.4,0.6,0.8c0.4-2.2,0.5-4.3,0.1-6.4
		c-0.6-3.3-0.9-6.7-1.6-10c-0.5-2.3-1.3-4.5-2-6.8c-1.1-3.6-2.1-7.2-3.2-10.7c-0.5-1.5-1.4-3-2.2-4.4c-2.5-4.7-5.1-9.4-7.7-14.1
		c-0.4-0.8-1.1-1.4-1.7-2.1c-0.2-0.2-0.4-0.5-0.4-0.8c0-0.5,0.2-0.9,0.3-1.4c0.3,0.3,0.5,0.6,0.8,0.9c0.1,0.1,0.2,0.3,0.3,0.5
		c2.7,2.1,3.8,5.2,5.5,8c2,3.2,3.9,6.4,5.5,9.8c1.4,2.9,2.2,6,3.3,9c0.1,0.3,0.2,0.7,0.3,1.1c0.1,0,0.2,0,0.3,0
		c0.2-1.3,0.3-2.5,0.5-3.8c0.5-2.7,1-5.4,1.6-8.1c0.1-0.4,0.3-0.9,0.7-1.1c0.3-0.2,1-0.1,1.1,0.1c0.2,0.4,0.2,0.9,0.1,1.4
		c-0.2,0.9-0.6,1.8-0.8,2.8c-0.5,2.9-0.9,5.9-1.4,8.9c-0.2,1.1-0.7,2.2-1,3.3c-0.1,0.3,0,0.8,0.1,1.1c1.5,3.7,2.2,7.5,2.5,11.5
		c0.1,1.6,0.7,3.1,0.8,4.6c0.2,1.9,0.2,3.8,0.2,5.6c0,3.7-0.2,7.4-0.1,11.1c0,2.8,0.3,5.5,0.5,8.6c0.6-1.3,1.1-2.4,1.7-3.4
		c0.8-1.5,1.8-2.9,2.6-4.4c1-1.8,1.9-3.7,2.9-5.6c3.2-6.2,6.5-12.4,9.6-18.7c2-4,3.9-8.2,5.8-12.3c0.2-0.5,0.6-1,1-1.3
		c0.2-0.2,0.8-0.1,1.1,0.1c0.2,0.1,0.2,0.7,0.1,1c-1.4,3-2.9,6.1-4.4,9.1c-1.8,3.5-3.8,7-5.6,10.5c-2.5,5.1-5,10.2-7.4,15.3
		c-0.4,0.9-0.8,1.8-1.4,2.5c-2.2,2.9-3.6,6.1-4.7,9.5c-0.3,0.8-0.9,1.5-1.4,2.2c-0.2,0.3-0.3,0.7-0.4,1.1c-0.2,1-0.3,2.1-0.5,3.1
		c-0.4,1.8-0.4,3.6,0.8,5.2c1.3,1.8,2,3.8,2.2,6c0,0.2,0.1,0.3,0.2,0.5C49.5,258,48.8,258,48,258z"/>
	<path class="st0" d="M93.5,72.7c-3.3-0.1-5.8-0.5-8.3-1.5c-0.4-0.2-0.9-0.3-1.4-0.4c-0.9-0.2-1-0.9-0.6-1.4
		c1.7-2.3,2.8-5.1,5.2-6.9c1.3-1,2.3-2.3,4.2-2.2c0.3,0,0.7-0.3,1-0.5c3-1.9,5.7-1.7,8.2,0.5c1.2,1.1,2,2.5,2.9,3.8
		c0.4,0.6,0.3,1.1-0.4,1.6c-0.8,0.6-1.3,1.5-1.9,2.3C100,71.3,96.6,72.3,93.5,72.7z M101.9,66c-0.4,0-0.7,0-1,0.1
		c-1.3,0.4-2.6,0.9-3.9,1.2c-2.6,0.8-5.3,1.5-7.9,2.3c-0.4,0.1-0.8,0.4-1.4,0.8C93.9,72.7,100.8,69.9,101.9,66z M102,63
		c-0.1-0.3-0.1-0.5-0.2-0.6c-1.9-2.5-3.8-3.3-6.8-2c-1.2,0.5-2.1,1.6-3.6,1.4c-0.2,0-0.4,0.2-0.6,0.3c-1.1,1-2.3,1.9-3.3,2.9
		c-0.5,0.6-0.9,1.3-1.3,2c0.1,0.1,0.2,0.1,0.3,0.2c0.2-0.2,0.5-0.3,0.7-0.5c0.6-0.5,1.1-1.1,1.8-1.5c1.5-0.7,3-1.4,4.5-2
		c2.6-1,5.2-1.7,7.9-0.2C101.6,63.1,101.7,63,102,63z"/>
	<path class="st0" d="M76.4,38.6c-1.3,0-2.7-0.3-3.9,0.1c-1.7,0.5-3.2,1.5-4.9,2.2c-0.3,0.1-0.6,0.2-0.9,0.3
		c-0.1-0.4-0.4-0.8-0.3-1.1c0.1-0.4,0.5-0.8,0.9-1c3.1-1.8,6.4-2.5,9.9-1.7c1.5,0.4,2.9,2,2.8,3.3c0,0.3-0.1,0.6-0.3,0.8
		c-1.2,1-2.4,1.9-3.6,2.9c-3.1,2.4-6.5,2.6-10.2,1.6c-0.8-0.2-0.8-0.9-0.4-1.4c2.3-3.4,5.3-5.4,9.5-5.5c0.4,0,0.9,0,1.3,0
		C76.4,38.8,76.4,38.7,76.4,38.6z M74.2,40.6c0.3,0.9,0.6,1.7,0.9,2.6c0.8-0.6,2.1-0.7,2-2C77,40.5,75.5,40.2,74.2,40.6z M71.2,45
		c0-0.1,0-0.2,0-0.3c-0.6-0.5-1.3-1-1.9-1.5c-0.3,0-0.8,0.3-1.1,0.7c-0.4,0.4-0.3,1,0.3,1.1C69.4,45.2,70.3,45,71.2,45z"/>
	<path class="st0" d="M102.1,32.2c-2.6-0.1-5.1-0.1-6.8,2.6c1.3-0.3,2.4-0.6,3.5-0.9c2.6-0.6,5.1-0.4,7.5,0.7
		c0.7,0.3,1.3,0.7,1.1,1.4c-0.1,0.4-0.8,0.8-1.3,1.1c-1.6,0.7-3.3,1.1-4.8,1.9c-2.1,1-4.3,0.6-6.4,0.3c-0.2,0-0.4-0.1-0.7-0.1
		c-0.7-0.2-1.9-0.4-1.9-0.7c-0.1-1,0-2.2,0.4-3.1c0.4-1,1.3-1.8,2-2.7c1.4-1.5,3.2-2.1,5.2-2.1C100.8,30.6,101.8,30.9,102.1,32.2z
		 M101.9,34.9c0.1,1.1,0.2,1.7,0.3,2.5c0.8-0.3,1.5-0.6,2.2-0.9c0.2-0.1,0.5-0.4,0.5-0.6c0-0.2-0.3-0.6-0.5-0.7
		C103.7,35.1,102.8,35,101.9,34.9z M97.5,38.3c-0.2-0.8-0.4-1.6-0.7-2.5c-0.8,0.5-2,0.8-1.9,1.9c0,0.3,1.5,0.5,2.3,0.8
		C97.3,38.5,97.4,38.4,97.5,38.3z"/>
	<path class="st0" d="M75.8,30.7c0.4,0.1,1,0.2,1.6,0.5c0.3,0.1,0.6,0.7,0.5,1c-0.1,0.3-0.5,0.6-0.9,0.6c-1.2,0.2-2.5,0.1-3.7,0.5
		c-3.4,1-6.7,2.2-9,5.1c-0.1,0.2-0.5,0.3-0.7,0.3c-0.2-0.1-0.5-0.5-0.4-0.7c0.3-0.7,0.5-1.5,1-1.9c1.3-1.2,2.6-2.2,4.1-3.2
		c1.5-1,3.1-1.8,5-1.9C74,31,74.8,30.8,75.8,30.7z"/>
	<path class="st0" d="M88.6,54.6c0,0.3,0.1,0.4,0,0.5c-0.7,1.1-1.8,1.1-2.8,0.9c-0.9-0.2-1.8-0.6-1.9-1.7c-0.2-2,0.3-3.8,1.1-5.5
		c0.1-0.2,0.4-0.3,0.6-0.5c0.1,0,0.2,0.1,0.3,0.1c-0.1,0.4-0.1,0.8-0.2,1.2c-0.3,1.2-0.7,2.4-0.9,3.7c-0.1,1.4,0.8,2,2.2,1.7
		C87.5,54.8,88,54.7,88.6,54.6z"/>
	<path class="st0" d="M95.8,45.8c0.3,0.1,0.7,0,0.8,0.2c1.3,1.6,2.7,3.3,2.3,5.6c-0.2,1.1-1.2,2.2-2.1,2.1c-0.3,0-0.5-0.3-0.8-0.4
		c0.1-0.2,0.2-0.5,0.4-0.6c0.4-0.3,1.3-0.6,1.3-1c0.1-0.8,0.1-1.8-0.2-2.6c-0.3-0.8-0.9-1.4-1.4-2.2c-0.2-0.3-0.3-0.6-0.5-1
		C95.7,45.9,95.8,45.8,95.8,45.8z"/>
	<path class="st0" d="M87.3,52.5c0.2-0.4,0.5-1.2,1-1.8c0.3-0.3,1.1-0.1,1.6,0c0.1,0,0.2,0.9,0,1.2c-0.4,0.6-0.9,1.3-1.5,1.7
		C87.8,54,87.3,53.6,87.3,52.5z"/>
	<path class="st0" d="M96.3,50.2c0,1.2-0.3,1.9-1.2,1.9c-0.3,0-1-0.7-0.9-0.8c0.3-0.7,0.8-1.4,1.2-2.1C95.8,49.6,96.1,50,96.3,50.2z
		"/>
	<path class="st0" d="M97.9,130.3c-1.4,0.2-2.3-0.5-2.9-1.4c-1.4-1.9-2.8-3.9-4-5.9c-1.6-2.7-3.1-5.4-4.7-8.2
		c-0.1-0.2-0.4-0.4-0.4-0.7c0-0.5-0.1-1.2,0.2-1.4c0.5-0.4,0.9,0.1,1.2,0.6c2.5,4.3,5.1,8.5,7.7,12.8c0.4,0.7,1,1.4,1.7,2
		c1,0.9,1.5,0.7,1.9-0.6c1.2-3.5,2.4-6.9,3.6-10.4c0.4-1.1,0.4-2.3,0.7-3.5c0.1-0.4,0.6-0.8,0.9-1.2c0.3,0.4,0.8,0.7,0.8,1.1
		c0,1.2-0.1,2.4-0.5,3.5c-1.3,4-2.9,8-4.2,12C99.5,130,99,130.5,97.9,130.3z"/>
</g>
</svg>
