<?xml version="1.0" encoding="utf-8"?>
<!-- Generator: Adobe Illustrator 18.1.1, SVG Export Plug-In . SVG Version: 6.00 Build 0)  -->
<!DOCTYPE svg PUBLIC "-//W3C//DTD SVG 1.1//EN" "http://www.w3.org/Graphics/SVG/1.1/DTD/svg11.dtd">
<svg version="1.1" id="Layer_1" xmlns="http://www.w3.org/2000/svg" xmlns:xlink="http://www.w3.org/1999/xlink" x="0px" y="0px"
	 viewBox="404.7 135.3 150 289" style="enable-background:new 404.7 135.3 150 289;" xml:space="preserve">
<style type="text/css">
	.st0{fill:#00BCD4;}
</style>
<g id="chestcongestion-lady">
	<path class="st0" d="M552.4,385.2c-1.1-3.7-1.3-7.6-2.1-11.3c-1.4-6.2-3.1-12.2-4.4-18.3c-1.7-8.1-3.1-16.2-6.5-23.9
		c-2.3-5.1-2.5-10.4-2.4-15.8c0.1-6.2-0.2-12.5-0.6-18.6c-0.5-6.4-1.7-12.7-2-19c-0.4-7-0.9-13.7-2.4-20.5c-0.9-4-1.7-8.1-3.2-12
		c-2.4-6.4-5.3-12.6-8.1-18.7c-0.7-1.4-1.7-2.8-2.8-3.9c-2-2-4.2-3.8-6.4-5.7c-2-1.8-4-3.6-6.2-5.2c-3.8-2.7-6.6-6.4-8.7-10.4
		c-2.6-4.9-4.9-10-6.8-15.1c-2.4-6.6-2.2-13.6-3.2-20.4c-0.8-5.6-2.1-11.2-5.7-15.6c-2.1-2.7-4.8-5-7.4-7.4
		c-3.6-3.4-7.9-5.8-12.7-7.1c-3.9-1.1-7.9-1.1-11.9-0.5c-2.3,0.4-4.6,0.5-6.7,1.3c-3.2,1.1-6.2,2.7-9.3,4.2c-2.3,1.1-5,1.9-6.8,3.7
		c-1.4,1.4-2.8,2.8-4.1,4.2c-1.3,1-2.6,2.1-3.9,3.2c-0.6,0.5-0.7,1.2-0.6,1.8c-1,1.2-2,2.4-2.9,3.6c-3.2,4.1-3.9,9.2-4,14.3
		c-0.2,6.8,0.8,13.5,2.4,20.1c1.4,6.5,3.8,12.8,5.3,19c0.2,0.9,0.4,2.5,0.1,2.7c-1.3,0.7-2.2,2.3-4.2,1.7c-2.9-0.9-4.2,0.4-3.8,3.4
		c0.1,0.6,0.2,1.4-0.1,1.8c-1.5,2.3-1.3,5.1-3,7.4c-1,1.4-1.4,3.7-2.4,5.5c-1.4,2.5-0.8,4.2,1.5,5.9c0.6,0.5,1.1,1.1,1.3,1.8
		c0.9,2.9,2.6,5.4,4.8,7.5c6.2,6.1,10.2,13.2,12.3,21.6c0.6,2.4,1.6,4.8,2.7,7.1c1.4,2.9,2.6,5.8,2.2,9.1c-0.3,2.2-0.7,4.3-1,6.5
		c-0.7,4.8-1.8,9.6,1.4,13.8c1.7,2.2,2,4.5,1.8,7c-0.1,1.1-0.2,2.2,0,3.3c0.4,2.9,0.8,5.7,1.5,8.5c0.7,2.8,1.8,5.5,2.7,8.2
		c1.8,5.4,2,11.4,4.7,16.5c0.3,0.5,0.7,1,1.1,1.4c2,1.9,4.1,3.7,5.1,6.4c0.9,2.4,2.4,4.7,3.6,7c0.4,0.7,0.9,1.5,0.9,2.3
		c-0.2,3-0.3,6-0.9,8.9c-0.4,2.2-1.7,4.1-2.4,6.2c-1.3,4-2.6,8.1-3.8,12.2c-1.3,4.7-2.5,9.4-3.8,14c-0.2,0.8-0.5,1.5-0.7,2.3
		c-0.7,3.2-1.3,6.3-2,9.5c-0.2,1.2-0.6,2.5-0.9,3.7c0.2,0.1,0.4,0.3,0.6,0.4c0.5-0.4,1.4-0.7,1.6-1.2c1.1-3.1,2.2-6.2,3-9.4
		c1.7-6.4,2.2-13.1,4.6-19.2c0.7-1.7,1.3-3.5,2.1-5.8c0.5,0.7,0.7,1.1,1,1.4c3,3.2,6.4,5.7,10.5,7.5c5.1,2.3,10.5,2.9,15.6,4.3
		c3.4,1,6.9,1.7,10.4,1.7c5.7,0,11.4,0,17-0.2c4-0.1,8-0.4,12-1c3.7-0.5,7.3-1.6,10.9-2.5c0.1,0,0.3-0.2,0.6-0.5
		c-0.8,0.1-1.2,0.2-1.7,0.3c4.4-2,8.9-3.5,12.8-6.5c3.7-2.9,7.7-5.5,11.6-8.2c4.2,13.2,2.7,26.1-1.5,39.2h3.3
		c0.4-1.8,0.7-3.5,1.2-5.3c0.6-3.3,1.7-6.6,1.8-9.9C554.9,401.1,554.8,393,552.4,385.2z M478.9,246.6c0-2.5,0.6-4.8,1.5-7.1
		c1.6-4.1,3-8.2,4.9-12.1c2.2-4.4,5.9-7.6,10-10.3c0.7-0.4,1.5-0.7,2.2-1c1-0.5,2-1,3.2-1.5c1.1,0.1,2.3-0.7,2.4-1.7
		c0.5,0.4,1,0.8,1.5,1.1c2.2,1.5,4,3.8,6,5.7c1.1,1,2.1,2.3,3.3,3.1c3.3,2.2,5,5.4,6.3,8.9c1.1,3.2,2.3,6.4,3.2,9.7
		c0.4,1.7,0.3,3.5,0.2,5.2c-0.2,4-0.4,8.1-2.5,11.7c-0.2,0.3-0.4,0.7-0.6,1c-0.2,0.4-0.5,0.7-0.9,1.3c-0.9-0.8-1.6-1.3-2.2-2
		c-3.1-3.6-7-4.7-11.7-3.8c-2.6,0.4-5.2,0.2-7.8,0.3c-1.2,0.1-2.4,0.2-3.6,0.3c-3.6,0.4-7.2,0.9-10.8,1.2c-2.4,0.2-4.8,0-7.2,0
		c0.6-1.9,1.3-3.9,1.8-5.9C478.6,249.3,478.9,248,478.9,246.6z M517.8,262.6c-0.3,0-0.5,0.1-0.7,0.2c-4.8-4.3-10.5-4.5-16.4-4
		c-4.4,0.4-8.7,0.5-13,0.9c-3.8,0.3-7.5,0.9-11.3,1.3c-0.6,0.1-1.2,0-1.9,0c0.1-1.7,0.7-2.8,2.4-2.9c0.4,0,0.8-0.2,1.2-0.2
		c4.3-0.3,8.6-0.5,12.9-0.8c5.4-0.4,10.7-0.8,15.9-1.3c3.4-0.4,6.3,0.6,8.6,3.1c0.6,0.6,1.3,1.1,1.7,1.8
		C517.6,261.2,517.6,262,517.8,262.6z M476.7,244.1c0.8,5.1-0.9,9.3-2.7,13.4c-1.6,3.9-3.9,7.4-5.3,11.3c-1.5,4.1-2.4,8.4-3.6,12.6
		c-0.8,2.8-1.8,5.5-2.7,8.2c-0.4,0.9-1,1.1-1.8,0.5c-0.3-0.3-0.8-0.5-1-0.9c-1.4-2.3-3.2-4.5-4.2-6.9c-1.6-3.8-2.7-7.8-4.2-12.1
		c4.4,0.8,7.1-1.4,9.6-3.8c2.2-2.3,4.3-4.7,6.4-7.1c2-2.3,2.5-5.2,3.2-8c0.3-1.1,0.5-2.3,0.8-3.4c0-0.3,0.5-0.6,0.7-0.6
		C474.4,247.9,475.8,246.6,476.7,244.1z M434,221.4c2.3-0.8,4.6-1.5,7.4-2.3c-1.7,2.4-3.3,4.2-6,4.5c-0.5,0.1-1.1-0.1-1.6-0.3
		c-0.4-0.2-0.7-0.7-1-1.1C433.2,221.9,433.6,221.5,434,221.4z M432.4,220.5c-0.3,0.1-1.1-0.5-1.3-0.9c-0.1-0.2,0.4-1.1,0.7-1.2
		c1.4-0.4,2.8-0.8,4.2-0.8c1.7-0.1,3.4,0.2,5.1,0.3c0,0,0.1,0.1,0.1,0.2C438.3,218.9,435.4,219.8,432.4,220.5z M438.4,237.5
		c3.1,4.4,3.7,9.2,3.6,14.2C440.4,249.2,437.6,238.6,438.4,237.5z M445.9,256.5c2.8-1.9,4-4.6,4.1-8c0.2-4.7-0.3-9.3-2.2-13.5
		c-0.1-0.4-0.2-0.8-0.3-1.3c0.7-0.3,1.3-0.4,1.8-0.6c1.9-0.9,2.5-0.8,3.3,1.3c1.3,3.3,3,6.6,2.9,10.3c0,0.3,0.5,0.6,0.9,0.8
		c-0.1-3.1-0.1-6.1-1.6-8.9c-0.7-1.3-1.3-2.7-1.7-4.1c-0.1-0.5,0.1-1.4,0.5-1.7c3.2-2.6,6.6-5,9.9-7.5c0.2-0.1,0.4-0.2,0.7-0.4
		c-0.5,5.8,1.8,11.1,3.1,16.5c0.3,1.4,1.1,2.8,1.9,4c1,1.7,1.1,3.3,0.5,5.1c-1,2.8-1.2,6-2.7,8.4c-1.8,3-4.6,5.3-7.1,7.8
		c-1.1,1.1-2.5,2.1-3.8,3.1c-0.6,0.5-1.5,0.6-2.2,0.9c-0.1,0-0.2-0.1-0.2-0.1c-3.7,1.1-4.3-2-5.6-4.1c-1.1-1.7-1.9-3.7-2.8-5.5
		C444.8,257.9,444.8,257.2,445.9,256.5z M419,189.5c-0.3-0.1-0.6-0.1-0.8-0.1c-0.2-5.1-0.5-10-0.7-15.1c0,0,0.1,0.1,0.1,0.1
		c0.3,0.1,0.6,0.2,0.9,0.2c0.5,0.4,1,0.8,1.5,1.1c1,1,2,1.9,3.2,2.7c0.3,0.2,0.6,0.3,0.8,0.3c2,1.5,4.2,2.8,6.6,3.6
		c3.4,1.2,6.9,2.2,10.5,2.9c2.8,0.6,5.3,1.3,7.6,3.2c4.5,3.7,9.8,5.2,15.5,5.1c3.2,0,5.9,1.1,8.1,3.3c0.7,0.8,1.4,1.9,1.7,2.9
		c0.2,0.6-0.1,1.8-0.6,2.2c-0.6,0.5-1.6,0.5-2.4,0.5c-0.4,0-0.9-0.4-1.4-0.7c-0.5,1.1-0.4,1.8,0.7,2.2c3.5,1.3,3.8,2.9,1.4,5.9
		c-1.7,2.2-3.2,4.7-4.8,7c-3.7,5.2-8.8,9-13.9,12.7c-1.8,1.3-4.1,2-6.3,2.7c-3.3,1-5.9-0.2-7.8-3c-0.7-1-1.4-1.9-2.1-2.8
		c4.5-1.5,5.4-5.7,7.2-9.6c-3.3-0.4-6.2-1-9.1-1.1c-1.5,0-3,0.5-4.4,1.1c-1,0.4-1.5,0.7-2.1-0.4c-1-1.6-2.1-3.1-3-4.9
		c0.3,0.1,0.7,0.3,0.9,0.5c1.2,1.2,2.4,0.9,3.7,0.3c1-0.4,2-1,3-1c1.7,0,2.7-0.9,3-2.3c0.3-1.5-0.8-2.3-2.5-2.9
		c0.4,0.7,0.7,1.1,0.8,1.5c0.2,0.7,0.4,1.6,0.1,2c-0.4,0.5-1.4,0.8-2,0.7c-1.3-0.3-2.4-0.5-3.2,1c-0.2,0.3-0.8,0.5-1.2,0.4
		c-1.6-0.2-3-1.9-2.7-3.6c0.3-1.8,0.9-3.6,1.3-5.5c0.9-3.8,0.9-7.4-1.9-10.6C423.2,190.4,421.1,190,419,189.5z M421.9,196.2
		c1.3-0.1,2.6-0.2,4.3-0.4c-0.2,2.4-0.3,4.7-0.6,6.8c-0.3,2.2-0.8,4.4-1.2,6.5C423.1,207.6,421.5,199.9,421.9,196.2z M421,192.6
		c2.7-0.4,2.7-0.4,4,1.6C422.9,195.2,421.8,194.8,421,192.6z M429.5,275.1c-1.1-1.9-1.4-4.3-2.2-6.5c-0.9-2.7-1.9-5.4-2.9-8.1
		c-0.2-0.4-0.3-0.8-0.6-1.5c1.2,0,2.3,0.1,3.7-0.3c0.4,0,0.7-0.5,1.1-0.8c-0.4-0.3-0.8-0.9-1.1-0.8c-3.9,0.7-5.8-1.6-7.5-4.6
		c-0.9-1.6-2.5-2.9-3.9-4.3c-2.4-2.4-4.5-5.1-5.6-8.4c-0.4-0.9-1.2-1.9-2-2.5c-1.4-1-1.3-2.1-0.6-3.4c1.4-2.5,3.2-4.9,3.8-7.5
		c0.5-2.7,2.5-5.1,1.8-8.1c-0.2-1,0.3-1.5,1.3-1.2c1.6,0.5,3,0.5,4.3-0.8c0.5-0.4,1.6-0.3,2.3-0.1c1.9,0.5,3.7,1.4,5.6,2
		c2.8,0.8,3.5,3.5,4.9,5.5c2.9,4.3,3.4,9.4,4.7,14.1c1.2,4.6,1.9,9.2,3.5,13.5c1.7,4.5,4.3,8.6,6.3,13c2.2,4.6,4.3,9.2,6,13.9
		c2,5.5,4.8,10.2,8.9,14.4c5.4,5.6,8.9,12.3,8.4,20.4c0,1,0.2,2.1,0.3,3.1c0.3,0,0.5,0.1,0.8,0.1c0.3-0.8,0.7-1.6,0.8-2.4
		c0.3-3.6-0.2-7.1-1.5-10.5c-1.3-3.1-2.6-6.3-5-8.8c-1.4-1.4-1.5-3-0.9-4.8c1.1-3.2,2.3-6.4,3-9.7c1.2-5.6,2.8-11.1,5.8-16
		c0.7-1.1,1.4-1.8,2.9-1.9c4.5-0.4,9.1-1.2,13.5-1.5c5.8-0.3,11.6-0.3,17.3-0.6c3.5-0.1,5.8,2.1,8.3,4.1c0.3,0.2,0.2,1.2,0,1.7
		c-3.7,11.1-8.5,21.6-14.1,31.8c-3,5.5-5.7,11.2-9,16.4c-2.8,4.6-6.1,8.8-9.3,13.1c-2.4,3.2-5.1,6.3-7.6,9.5
		c-3.4,4.4-8.2,5.7-13.2,6.6c-0.5,0.1-1.5-0.5-1.7-1c-1.6-4.2-4.7-7.3-7.7-10.5c-2.7-2.9-5.2-6.1-7-9.6c-4.7-9.3-7.9-19.2-10.2-29.5
		C433.8,286.9,432.7,280.7,429.5,275.1z M431.6,302.9c-0.5-3.7,0.1-7.5,0.3-11.2c0-0.4,0.3-0.7,0.4-1.1c0.2,0,0.3-0.1,0.5-0.1
		c1.6,6.4,3.2,12.9,4.9,19.6C434.2,308.6,432,306.1,431.6,302.9z M449.4,357.2c-0.6-2.1-2-4.3-3.6-5.8c-2.8-2.7-4.3-6-4.9-9.8
		c-0.6-3.4-1.7-6.9-2.5-10.3c-1.2-4.8-2.4-9.7-3.5-14.5c-0.3-1.7-0.2-3.4-0.3-5.5c2.3,1,4.4,1.5,5.5,4c3.7,8.8,8.4,16.8,15.1,23.6
		c1.3,1.3,2.2,3.1,3,4.8c0.6,1.3,1.1,2.1,2.6,2.6c2.2,0.7,4,2.3,6.1,3.4c2.9,1.5,5.9,2.9,8.8,4.3c0.8,0.4,1.6,0.8,2.3,1.2
		c-0.5,1.1-0.9,2.1-1.2,3.1c-3.8-1.7-7.6-3.4-11.5-5.1c-1.8-0.7-3.6-1.4-5.4-2c-0.6-0.2-1.3,0-1.8,0.2c-0.2,0.1-0.4,1-0.2,1.1
		c0.5,0.3,1,0.6,1.6,0.8c2,0.7,4.1,1.4,6.1,2.2c3.7,1.6,7.4,3.3,11.2,4.8c1.4,0.5,2.9,0.4,4.4,0.7c0.8,0.2,1.5,0.5,2.2,1
		c-3.5,0.9-3.5,0.9-4.1,2.3c-2.3-0.8-4.8-1.6-7.2-2.4c-3.2-1-6.4-1.9-9.6-2.9c-1-0.3-1.8-0.9-2.8-1.2c-1.8-0.6-3.5-1.2-5.3-1.5
		c-0.4-0.1-1,1-2,2c2.7,0.8,5,1.5,7.3,2.2c4.6,1.3,9.3,2.6,13.8,3.9c1.3,0.3,2.5,0.6,3.9,0.9c-1.1,0.9-2,1.8-3.2,2.8
		c-3.8,0-7.6-1.3-11.3-3.4c-1.7-0.9-3.9-0.7-5.9-0.9c-0.5,0-1,0.5-1.5,1.1c2.2,0.3,4.5,0.4,6.6,1.1c2.1,0.7,4,2,6,3.1
		c-0.3,0.7-0.7,1.5-1.1,2.3c-0.8-0.1-1.7-0.2-2.5-0.4C457.2,368.9,451.7,365,449.4,357.2z M480.1,364.2c0.5-0.4,1-0.7,1.4-1
		c0.9,0.2,1.4,0.2,1.8,0.3c0.4,0.1,0.9,0.3,1.3,0.5c-0.4,0.3-0.8,0.7-1.3,0.9c-0.4,0.2-0.9,0.4-1.3,0.3
		C481.3,365,480.7,364.5,480.1,364.2z M480.7,368.4c-0.6,0.3-1.1,0.9-1.7,0.9c-1.1,0-2.3-0.3-3.8-0.6c1.3-1.8,2.6-2.5,4.1-2.1
		C479.9,366.7,480.2,367.8,480.7,368.4z M479.1,357.3c2.1-0.1,3.8-1.2,4.4,1.5c-1.2,0.2-2.4,0.5-3.5,0.4
		C479.6,359.2,479.4,358.1,479.1,357.3z M472.3,370.9c0,0.4-0.7,1-1.1,1c-0.9,0-1.9-0.3-3-0.5c0.5-0.9,0.8-1.5,1.1-2.1
		c0.8,0.1,1.5,0.1,2.1,0.4C471.8,369.9,472.4,370.5,472.3,370.9z M548.2,381.6c-0.4,0.7-0.8,1.5-1.4,2.1c-9.1,8.1-19,14.2-31.3,16.1
		c-3.8,0.6-7.6,0.7-11.4,1c-3.4,0.3-6.8,0.6-10.2,0.6c-8-0.1-15.7-1.3-23.5-2.9c-4.8-1-9.3-2.8-13.3-5.3c-2.6-1.6-4.6-4.1-6.8-6.3
		c-0.3-0.3-0.3-1.1-0.2-1.7c0-0.5,0.3-1.1,0.6-1.6c2.4-4.4,3.5-9.2,3.2-14.1c-0.1-0.3,0-0.7,0-1c0-0.1,0.1-0.1,0.1-0.2
		c2.4,1,4.7,2.2,7.3,3c2.8,1,5.6,1.8,8.5,2.3c3,0.5,3.5,0,4.9-3.1c1.4,0.2,2.8,0.6,4.1,0.6c3.6,0.1,4-0.4,4-4.1
		c0.4-0.1,0.8-0.2,1.2-0.2c1.4,0.1,2.6-0.6,2.8-1.9c0.1-1-0.6-2.1-0.9-3.1c-0.2-0.6-0.8-1.3-0.6-1.8c0.6-1.9-0.1-3.2-1.5-4.2
		c-1.2-0.8-2.5-1.3-3.7-1.9c-3.5-1.6-7.2-2.7-10.2-5.4c-0.7-0.6-1.8-0.6-2.6-1c-1.1-0.5-2.2-1.1-3.3-1.7c0.1-0.2,0.1-0.3,0.1-0.5
		c1.2-0.3,2.5-0.7,3.7-1.1c3.9-1.3,7.2-3.2,9.7-6.6c2.1-2.9,4.4-5.8,6.6-8.6c3.1-4,6.4-7.7,9.2-11.9c2.2-3.3,3.7-7.1,5.5-10.6
		c3.6-7.2,7.4-14.2,10.9-21.4c1.4-3,2.7-6.1,3.6-9.3c1.4-4.9,3.6-9.2,6.7-13.1c3.1-4,5.1-8.4,5.1-13.5c0-1.5,0.3-3,0.8-4.6
		c0.5,1.1,1,2.2,1.4,3.4c0.8,2.7,1.8,5.4,2.3,8.1c1.1,6.7,2.1,13.4,2.9,20.1c0.8,7,1.5,13.9,2.1,21c0.4,5.1,0.5,10.3,0.7,15.3
		c0,0.7-0.4,1.5-0.6,2.3c-0.1,0.3-0.3,0.7-0.3,1.1c0.6,7.4,1.8,14.5,4.3,21.6c2.8,7.9,5.3,15.9,6.4,24.3c0.5,4,2.1,7.7,3.1,11.6
		C548.6,376.3,549.7,378.9,548.2,381.6z"/>
	<path class="st0" d="M475.8,424.2c-0.8,0-1.5,0-1.9,0c-1.6-3.7-3.2-7.2-4.8-10.9c0.8-0.6,1.7-0.8,2.6,0.6
		C473.7,417,475.5,420.2,475.8,424.2z"/>
	<path class="st0" d="M430.9,192.2c0.3-0.3,0.6-0.9,1-1c3-0.8,5.9-1.6,8.9-2.3c1.6-0.4,3.3-0.5,4.9-0.7c0.5,0,1,0.4,1.4,1.1
		c-5.5,0.3-10.7,1.5-15.6,3.7C431.2,192.7,431.1,192.5,430.9,192.2z"/>
	<path class="st0" d="M435.5,194.1c1.8,0.7,3.4,1.8,5,1.8c1.6,0,3.3-1.2,5-2c-0.4,1.5-3,3.4-4.6,3.5
		C438.8,197.7,436.3,196.2,435.5,194.1z"/>
	<path class="st0" d="M473.6,199c-0.9,0.9-1.5,1.4-2,1.9c-0.6-0.8-1.3-1.5-1.6-2.4c-0.1-0.2,1.1-1.4,1.5-1.3
		C472.1,197.4,472.7,198.2,473.6,199z"/>
</g>
</svg>
