<?xml version="1.0" encoding="utf-8"?>
<!-- Generator: Adobe Illustrator 19.2.0, SVG Export Plug-In . SVG Version: 6.00 Build 0)  -->
<svg version="1.1" id="Layer_1" xmlns="http://www.w3.org/2000/svg" xmlns:xlink="http://www.w3.org/1999/xlink" x="0px" y="0px"
	 viewBox="0 0 120 170" style="enable-background:new 0 0 120 170;" xml:space="preserve">
<style type="text/css">
	.st0{fill:#8BC34A;}
</style>
<g id="allergy-girl">
	<g>
		<path class="st0" d="M95.1,130.2c5.6-7.7,10-16.3,13.1-25.4c4,2.5,7.9,4.9,11.8,7.4c-1.9-1.6-3.8-3.3-5.7-4.9
			c-1.3-1.1-2.8-2.3-4.5-2.8c-5.2-1.5-10.5,3.8-15.6,2.3c3.1-5.9,6.3-11.7,9.4-17.6c0.8-1.4,1.5-3.3,0.7-4.7
			c0.1-0.2,0.2-0.3,0.3-0.6c0-0.2,0.1-0.3,0.1-0.5c3.7-6.8,1.8-15.3,3.5-23c0.3-1.5,0.8-3,0.8-4.6c0-1.5-0.5-3-1-4.5
			c-1-3.2-2.1-6.3-3.1-9.4c-0.1-0.8-0.3-1.7-0.6-2.6c-0.6-2.1-1.4-4.1-2.3-6c-0.8-2.1-1.7-4.1-2.7-6.1c-1.7-3.1-4-6-6.3-8.8
			C89.2,13.7,85.4,9,80.7,5.5S70.2-0.5,64.2,0c-2.9,0.3-5.9,1.2-8.7,0.3c-1.6-0.5-3.4-0.2-5.1,0.2C39.6,3.4,30.6,11.6,25.1,21.4
			c-2.8,5-4.7,10.3-6,15.8c-0.1,0.1-0.2,0.3-0.2,0.5c-0.1,0.7-0.3,1.3-0.3,1.9c-1,4.7-1.6,9.5-1.8,14.2c-0.1,1.4-0.2,2.7,0.3,4
			c0.5,1.4,1.7,2.6,1.6,3.8c0.3,1.8-0.9,3.6-0.7,5.5c0.2,2.8,3.1,4.9,2.7,7.6c-0.2,1.1-0.9,2-0.9,3.1c-0.1,1.3,0.8,2.3,1.7,3.3
			c0,0,0,0.1,0,0.1c0.1,0.7,0.5,1,1,1.1c0.2,0.3,0.4,0.6,0.5,0.9c1.5,3.2-0.9,8,2,10.1c-1.6,0.3-3.2,0.7-4.5,1.7s-2,2.9-1.3,4.3
			c2.1,4.2,4.4,8.6,8.1,11.5c-3.7,1.8-7.9,2.5-12,1.9c-4.3-0.6-8.7,1.6-11.4,5c-2.7,3.4-4,7.8-4.3,12.1c1.2-3.6,2.4-7.4,4.6-10.5
			c2.3-3.2,5.8-5.6,9.7-5.5c1.5,0.1,3,0.5,4.5,0.4c2.3-0.1,4.4-1.5,6.7-1.8c5.3-0.8,9.7,3.9,13,8.2c1.1,1.5,2.3,3.4,1.7,5.1
			c-3.5,9.4-7.1,18.9-10.6,28.3c-2.4-5.2-5-10.2-7.8-15.2c0.3,3,2,5.8,3.4,8.5c1.5,2.7,2.8,5.7,2.3,8.8s-3.4,5.9-6.4,5.2
			c-6.7-1.6-13.9-0.9-20.2,2c4.2-0.5,8.3-1,12.5-1.6c2.4-0.3,4.9-0.6,7,0.6c1.5,0.8,2.4,2.8,2.1,4.4c8.2-12.8,14.7-26.8,19.2-41.4
			c1.5-4.9,2.8-10,2.5-15.2c-0.2-3.9-1.1-8.5,1.8-11.1c1.1,1.9,2.2,3.8,3.5,5.6c-1.4-1.2-4.3-0.1-4.8,1.9c-0.6,2.4,0.8,4.7,2.2,6.7
			c5.3,7.5,11,14.6,17.3,21.3c-0.4,1-0.9,1.9-1.4,2.8c-1.7-1.6-3.8-2.6-6.1-2.9c2.1,1.3,4.1,2.7,6.1,4c-2,10.3-4,20.7-6,31.1
			c3.2-8.3,4.7-17.1,6.1-25.9c1.2,4.6,5.2,8.2,9.9,8.9c1.4,0.2,2.1,1.7,2.7,3c2.1,4.9,4.1,9.7,6.2,14.5c-2.4-7.2-4.8-14.5-7.3-21.7
			c-0.9-2.6-1.8-5.3-3.6-7.5c-7.5-9-15-17.9-22.5-26.9c-1.5-1.7-2.9-4.3-1.3-5.9s4.3-0.1,6,1.5c3.3,3,6.5,5.9,9.7,8.9
			c-4.5-5.4-9-10.7-13.5-16.1c-1.6-1.9-3.1-4.9-1.2-6.5c1.8-1.4,4.3,0.2,5.9,1.7c4.5,4.2,9,8.4,13.6,12.6
			c-3.9-5.5-7.8-11.1-11.7-16.6c-1-1.5-2-3.3-1.3-4.9c0.7-1.6,3-2.1,4.6-1.4c1.6,0.7,2.8,2.1,3.9,3.5c4.7,5.8,9.7,11.2,15.1,16.3
			c-3.7-8.5-9.6-16-17-21.6c2.1-0.5,4-1.7,5.2-3.4c10.2,5.9,18.4,15.2,23,26c0.1-2.6-1.9-4.9-2.8-7.3c-0.9-2.4-0.2-6.1,2.4-6.3
			c-1.3-0.3-2.7,0.4-3.3,1.6c-0.3-3.4-1.5-6.7-3.5-9.4c5.3,1,9,6.2,10,11.5s0,10.7-0.7,16.1c-0.7,5.4-1,11,1.4,15.9
			c7,14.4,14.4,29.4,27,39.3c-10.2-10.6-18.5-23.1-24.1-36.7C94.9,131.9,94.6,130.9,95.1,130.2z M65.4,136.1
			c0.4,0.1,0.5,0.4,0.7,0.7c1.1,1.9,2.5,3.7,4.2,5.2c0.4,0.4,0.7,1,0.9,1.6c0.8,2,1.3,4,1.6,6.2c0.1,0.3,0.1,0.7,0,1
			c-0.2,0.4-0.6,0.7-1,0.8c-1.7,0.5-3.3-0.9-4.5-2.3c-1.7-2.1-3.3-4.3-4.6-6.7c-0.2-0.2-0.1-0.6,0-0.9c0.4-1.3,0.7-2.7,1-4
			c0.1-0.4,0.2-0.9,0.5-1.2C64.5,136.1,65,135.9,65.4,136.1z M47.3,106.3c-0.7,0.5-1.3,1.3-1.6,2.1c0,0.3-0.3,0-0.4-0.2
			c-0.2-1.1,0.1-2.5,1-3.3c0.2-0.2,0.4-0.4,0.7-0.4c0.2,0,0.4,0.2,0.6,0.3c0.6,0.4,1.1,0.8,1.7,1.2
			C48.8,106.3,48.1,106.4,47.3,106.3z M94.8,108.5c1.1-0.3,2.3-0.5,3.4-0.7c2.5-0.4,5-1,7.3-2.1c0.3-0.1,0.5-0.2,0.8-0.2
			c0.2,0.1,0.5,0.4,0.4,0.6c-0.6,1.4-1.2,2.8-1.8,4.2c-0.2,0.6-0.7,1.2-1.2,1c-1.2-0.5-2.5-0.6-3.8-0.4c-1.9,0.3-3.9,0-5.7-0.7
			c-0.2-0.1-0.5-0.2-0.6-0.5c-0.1-0.3,0-0.7,0.3-0.9C94.1,108.6,94.5,108.6,94.8,108.5z M96.2,61.9c0-0.5,0-1.1,0.2-1.6
			c0.2-0.4,0.7-0.8,1.1-0.8c0.5,0.3,0.9,0.5,1.2,0.7c0.9,0.9,1.4,2.3,1.6,3.6c0.2,1.5-0.1,3.1-0.3,4.6c-0.2,1.2-0.4,2.5-0.6,3.7
			c-0.2,1.2-0.4,2.5-1,3.6c-0.6,1.1-1.7,2-3,2C95.9,72.5,96.2,67.2,96.2,61.9z M95.5,79.3c0.1-0.5,0.8-0.4,1.3-0.5
			c0.9-0.1,1.4-0.9,1.8-1.6c0.1,0,0.2,0.1,0.3,0.1c0.1,0.2,0.2,0.4,0.2,0.6c0,0.5,0,0.9,0.1,1.3c0,0.8-0.1,1.5,0.3,2.2
			c0.3,0.4,0.8,0.8,0.6,1.3c-1-0.3-1.9-0.6-2.9-0.9c-0.6-0.2-1.3-0.3-1.7-0.8C95.2,80.5,95.1,79.7,95.5,79.3z M30.6,53.1
			c0.4-1.9,1.3-3.5,2.3-5.1c1.3-2.2,2.6-4.3,4.2-6.2c2.6-3,5.9-5.2,8.8-7.8c3-2.5,5.6-5.7,6.3-9.6c0.9,2.3,2.7,4.4,4.8,5.7
			c3.8,2.4,8.6,2.6,13.1,3.2c0.4,0.2,0.9,0.3,1.3,0.5c0.4,0.1,0.8,0.1,1,0c0.3,0.1,0.7,0.1,1,0.2c2.6,0.8,5.2,1.9,7.9,2.1
			c0.9,0.3,1.8,0.7,2.6,1.1c0.4,0.4,0.8,0.8,1.2,1.2c2.2,2.6,4.1,5.5,5.6,8.5c0.9,2.7,1.5,5.6,2.7,8.3c0.2,0.4,0.4,0.8,0.6,1.2
			c0.5,2.4,0.8,4.9,0.9,7.4c0.1,2.4-0.1,4.9-0.2,7.3c-0.2,2.9-0.3,5.7-0.5,8.6c0,0.2,0,0.4-0.2,0.6c-0.2,0.2-0.5,0.2-0.7,0.2
			c-5.1-0.3-10.1-0.7-15.1-1c-1.7-0.1-3.4-0.2-5-0.6c-1.2-0.4-2.4-0.8-3.7-1c-4.5-0.7-9.5,1.9-13.5-0.2c0.5-0.8,0.5-1.8,0.1-2.6
			c-0.2,1-0.8,1.9-1.5,2.6c-0.7,0.7-1.6,1.1-2.5,1.6c-5.6,2.8-11.1,5.7-16.7,8.5c1-4-1.2-8.1-2.5-12c-1.9-5.8-2.2-12-2.5-18.1
			C30.5,56.1,30.4,54.6,30.6,53.1z M50.2,94.2c-1.9-0.1-3.9,1.3-4.4,3.3c-0.7-0.9-1-2.1-0.5-3c0.2-0.4,0.5-0.7,0.9-1
			c0.7-0.6,1.7-0.9,2.6-0.9c1,0.1,1.9,0.5,2.4,1.3C51.1,94.2,50.6,94.2,50.2,94.2z M53.4,87.8c-0.7,1-0.7,2.4-0.3,3.6
			c0.4,1.2,1.1,2.2,1.8,3.2c2.2,3,4.3,6,6.5,9c-1.7-1.4-3.3-2.8-5-4.2c-1.3-1.1-2.6-2.2-3.4-3.6c-0.5-0.9-0.9-1.9-1.4-2.6
			C51,92.3,50,91.6,49,91.8c0.5-2.7,3.8-4.1,4.5-6.7c0.2-0.9,0.2-1.8,0.4-2.7c0.2-0.9,1-1.8,1.9-1.6c1,0.2,1.4,1.4,1.5,2.4
			c0.1,1,0.2,2.2,1.1,2.7C56.5,86,54.4,86.3,53.4,87.8z M61.9,84.2c-0.4,0.2-0.9,0.3-1.1,0c-0.1-0.1-0.1-0.3-0.1-0.4
			c0.1-1,0.7-1.8,1.6-2.2c0.9-0.4,1.9-0.3,2.7,0.2C64.1,82.7,63,83.5,61.9,84.2z M64.8,81c-1.3-1.2-3.6-0.4-4.4,1.2
			c-0.7,1.7-0.1,3.7,0.9,5.1c1,1.4,2.5,2.5,3.9,3.6c3.9,3.2,7.1,7.4,9.2,12c-0.7,0.1-1.3-0.6-1.7-1.2c-2.6-4-5.7-7.6-9.1-10.9
			c-2.6-2.5-5.7-5.2-5.7-8.8c0-1.5-2-2.4-3.3-1.8c-1.4,0.6-2,2.2-2,3.7c0.1,2.4-3.1,3.7-3.8,6c-0.3,1.2-1.5,1.9-2.6,2.6
			c-1,0.7-2.1,1.7-2,3c0.1,1.3,1.4,2.6,0.6,3.5c-1.6,1.8-2.1,4.4-1.9,6.7c0,2.4,0.4,4.8,0.5,7.2c0.1,3.4-0.6,6.9-1.9,10
			c-3.3-4.5-7.3-8.4-11.8-11.5c-4.8-3.2-7.4-8.8-9.7-14.1c5.9-3.2,11.8-6.3,17.6-9.4c0.2,1.3-1,2.2-1.9,3.2c-2,2.2-2.7,5.4-3,8.4
			c0,0.6,0.3,1.5,0.8,1.2c0.4-3.1,0.8-6.4,2.9-8.8c0.8-0.9,1.9-1.7,2-2.9c0.1-1.6,1.8-2.6,3.2-3.3c3.9-1.9,7.8-3.9,11.7-5.9
			c1.3-0.7,2.8-1.3,4-0.6c1.2,0.6,2.6,0.5,3.9,0.3c2.7-0.4,5.4-0.6,8.1-0.7c-0.5,0.8-1,1.7-1.8,2.2S65.5,81.6,64.8,81z M70.3,83.9
			c-1-0.6-2.1-1-2.7-1.9c0.5-0.5,1-1.1,1.5-1.6c0.6-0.7,1.4-1.5,2.4-1.4c0.4,0.1,0.7,0.2,1.1,0.4c0.8,0.3,1.6,0.8,1.8,1.5
			c0.2,0.7-0.1,1.5-0.5,2c-0.4,0.9-0.8,1.8-1.5,2.5C71.7,84.9,71.1,84.3,70.3,83.9z M78.7,91.1c-1.5-1.8-3.4-3.5-5.4-4.8
			c-0.1-0.1-0.1-0.3,0-0.4c0.5-0.7,1-1.4,1.5-2.2c0.1-0.2,0.3-0.5,0.5-0.7c0.5-0.5,1.3-0.7,2-0.6c0.8,0.1,1.5,0.7,2.1,1.3
			c0.6,0.6,1.3,1.2,1.5,2c0.2,0.8,0.1,1.7,0,2.5c-0.1,0.4-0.2,0.8-0.4,1.2c-0.4,0.7-1.1,1.4-0.9,2.2C79.2,91.7,78.9,91.4,78.7,91.1z
			 M81.8,88.7c0.5,0.7,0.9,1.4,1.3,2.1c0.3,0.9,0.4,1.8,0.6,2.8c0.3,1.8,0.6,3.5,0.9,5.3c-0.3,0.1-0.6-0.2-0.8-0.5
			c-0.9-1.4-0.9-3.4-2.1-4.6c-0.3-0.4-0.8-0.6-1.1-1c-0.4-0.4-0.5-1-0.3-1.4C80.8,90.5,81.3,89.6,81.8,88.7z M91.6,95.2
			c-0.2-1.6-0.5-3.5-1.9-4.4c-3.1-2-6.1-4.3-8.8-6.9c-0.8-0.7-1.5-1.5-2.5-1.9s-2.2-0.5-3,0.2c-0.5-0.7,0.1-1.7,0.9-2
			c0.8-0.3,1.7-0.1,2.5,0.1c3.6,0.8,7.3,0.7,10.9,1c3.7,0.3,7.4,0.9,10.5,2.9c1.3,0.8,2.6,1.9,4.2,2c-1.7,2.9-3.4,5.8-5.1,8.7
			c-2.1,3.6-4.2,7.2-5.5,11.2c-0.1,0.3-0.3,0.8-0.7,0.9C92.6,103,92.1,99.1,91.6,95.2z M93.2,130.5c-2.9-5.2-2.4-11.7-0.9-17.6
			c0.1-0.5,0.3-1,0.6-1.4c0.4-0.3,1-0.5,1.4-0.3c2.5,1.4,5.5,0.5,8.4,0.7c0.6,0.1,1.2,0.2,1.4,0.7c0.2,0.4-0.1,0.9-0.3,1.3
			c-3,5.1-5.9,10.1-8.9,15.2C94.5,129.8,94,130.5,93.2,130.5z"/>
		<path class="st0" d="M22,166.7c-0.3,0.5-0.6,1-1,1.5C21.5,167.8,21.8,167.3,22,166.7z"/>
	</g>
	<path class="st0" d="M85.1,68.4c-1.6,1.1-3.5,1.7-5.5,1.7c-0.6,0-1.2-0.1-1.8-0.2c-2.1-0.3-4.2-1-6.1-1.9c0.6-0.3,1.3-0.2,1.9-0.2
		c4,0.3,8-0.6,11.9-0.1C85.6,68,85.3,68.2,85.1,68.4"/>
	<path class="st0" d="M52.6,71.7c-0.8,0.5-1.5,1-2.3,1.4c-1,0.6-2,1.3-3.2,1.5c-0.9,0.2-1.9,0.1-2.9,0c-1.6-0.2-3.2-0.4-4.7-1
		c-0.3-0.1-0.6-0.3-0.7-0.6c-0.1-0.3,0.1-0.7,0.4-0.7c0.6,0.1,1.3,0.2,1.9,0.3c2.2,0.4,4.5,0.8,6.6,0c1.9-0.7,3.5-2.2,5.5-2.2
		C53.5,70.9,53,71.4,52.6,71.7"/>
	<path class="st0" d="M49.5,66.4c-0.6-0.2-1.3-0.3-2-0.4c-2.8-0.2-5.6,0.2-8.2,1.1c-0.9,0.3-1.9,0.7-2.8,0.4
		c0.2-0.8,0.9-1.3,1.6-1.7c2.1-1,4.5-0.7,6.6-1.3c2.9-0.9,6.3,0.1,8.4,2.3c-0.5,0.4-1.2,0.4-1.8,0.2C50.7,67,50.1,66.6,49.5,66.4"/>
	<path class="st0" d="M87.2,60.7c-3.2,0.4-6.6-0.4-9.7,0.6c-2.2,0.7-4,2.2-5.7,3.7c-0.5,0.4-1.3,0-1.4-0.6s0.2-1.2,0.5-1.7
		c1.2-1.7,3.2-2.9,5.3-3.4c2.1-0.6,4.2-0.7,6.3-0.8c1.6-0.1,3.3-0.1,4.7,0.6c0.5,0.3,1.1,1,0.6,1.4C87.6,60.6,87.4,60.7,87.2,60.7"
		/>
</g>
</svg>
