<?xml version="1.0" encoding="utf-8"?>
<!-- Generator: Adobe Illustrator 19.1.0, SVG Export Plug-In . SVG Version: 6.00 Build 0)  -->
<svg version="1.1" id="Layer_1" xmlns="http://www.w3.org/2000/svg" xmlns:xlink="http://www.w3.org/1999/xlink" x="0px" y="0px"
	 viewBox="0 0 147.1 212.4" style="enable-background:new 0 0 147.1 212.4;" xml:space="preserve">
<style type="text/css">
	.st0{fill:#8BC34A;}
</style>
<g id="allergy-girl">
	<path class="st0" d="M20.6,212.4c0-3.4,0.1-6.8,0-10.2c-0.1-4.3-0.5-8.7-0.7-13c-0.1-2.3-0.2-4.6-0.1-6.8
		c0.3-8.9,0.1-17.8-0.6-26.8c-0.2-2.2-0.3-4.4-0.6-6.6c-0.1-1-0.5-2-1-2.9c-1.2-2.2-1.4-4.5-0.9-6.9c1-4.9,2-9.9,2.9-14.8
		c0-0.1,0-0.2,0.1-0.3c0.6-2.5-0.6-4.1-3.3-4.1c-1.7,0-3.2-0.4-4.6-1.5c-1.5-1.2-2.4-2.6-2.1-4.5c0.4-3.1-0.3-6.1-1.2-9
		c-0.4-1.4-1.3-2.8-2.2-4.1c-1-1.4-1.4-2.9-1.5-4.6c0-3,0-6,0-9c0-2.7-0.3-5.2-1.6-7.8c-2.9-5.8-3.8-12-2.8-18.4
		c0.3-1.7,0.4-3.5,0.5-5.2c0.3-3.6,1.5-7,3.1-10.2c0.3-0.7,0.7-1.3,1.2-1.9c1.3-1.6,2.6-3.2,4-4.7c3.5-3.6,7.7-5.8,12.9-5
		c1.3,0.2,2.4-0.1,3.4-1.1c0.7-0.7,1.7-1.1,2.7-1.5c0.9-0.3,1.3-0.9,1.5-1.7c0.5-1.5,1-3,1.7-4.4c1.4-2.8,3.4-5.1,6.1-6.8
		c3.5-2.2,6.9-4.7,10.2-7.2c1.3-1,2.5-2.2,3.7-3.4c3.2-3.2,7.3-4.5,11.5-5.5c7.7-1.9,15.5-2.9,23.4-2.3c5.5,0.4,11,1.7,15.9,4.4
		c2,1.1,4.1,2.2,6.2,3.2c3.4,1.7,6.5,3.9,9,6.7c0.8,1,1.5,2.2,1.9,3.4c0.9,3,2.3,6,2.4,9.2c0.1,2.9,0.4,5.8,0.4,8.7
		c0,1.1-0.4,2.1-0.6,3.2c-0.3,1.3-0.2,2.5,0.5,3.7c0.9,1.5,1.6,3.1,1.6,4.9c0,0.8,0.3,1.6,0.4,2.4c0,0.2,0.1,0.6,0,0.7
		c-0.7,0.7-0.4,1.3,0.1,1.9c0.9,1.1,1.3,2.3,1.2,3.7c-0.1,2.3,1.2,4,2.4,5.8c1,1.5,2.4,2.6,2.8,4.5c0.1,0.6,0.9,1.1,1.4,1.7
		c1.2,1.4,2.2,3,2.2,5c0,0.9,0.2,1.8,0.2,2.7c0,0.8,0.2,1.7-0.1,2.4c-0.5,1.1-0.2,2,0,3c0.3,2.4,0.4,4.9,0,7.3
		c-0.3,1.4-1.5,2.8-2.4,4.1c-1.4,1.9-2.8,3.8-4.8,5.2c-1.6,1.1-3.3,2.5-4.3,4.2c-1.7,2.7-3.2,5.5-3.2,8.8
		c-0.1,7.7-0.1,15.4-0.3,23.2c-0.1,5.1-0.4,10.2-0.9,15.3c-0.3,3.4-1.2,6.8-1.8,10.2c-0.5,2.9-0.8,5.9-1.4,8.8
		c-0.5,2.4-1.1,4.8-2.3,6.9c-1.9,3.5-3,7.1-4.5,10.7c-0.8,1.9-1.7,3.7-2.7,5.4c-1.9,3-4.5,4.8-8.2,4.7c-2.7-0.1-5.4-0.1-8.1,0
		c-1.8,0.1-3.4-0.4-4.8-1.4c-3-2-5.9-4.1-8.8-6.3c-1.7-1.3-3.1-3-4.7-4.4c-1.9-1.7-3.7-3.4-5.8-4.9c-5.1-3.5-9.5-7.9-13.5-12.5
		c-1.9-2.3-3.5-4.8-5.4-7.1c-1.3-1.7-2.9-3.1-4.4-4.8c-0.1,0.3-0.2,0.5-0.2,0.6c0.1,5.8,0.4,11.6,0.4,17.4c0,6.6-0.1,13.3-0.4,19.9
		c-0.1,3.4-0.8,6.8-1.2,10.2c-0.1,1.1,0.2,1.4,1.3,1.4c0.4,0,0.8-0.1,1.3-0.2c2.5-0.5,5-1.1,7.5-1.6c0.8-0.2,1.5-0.4,2.2-0.6
		c1.5-0.4,3-0.8,4.5-1.2c1.8-0.5,3.5-1.2,5.3-1.8c1.1-0.3,2.1-0.7,3.2-0.8c2.4-0.2,4.9-0.1,7.2-1.3c0.2-0.1,0.6,0.1,0.9,0.2
		c-0.2,0.3-0.3,0.8-0.5,0.9c-1.8,0.5-3.6,1.1-5.4,1.2c-2.3,0.2-4.4,0.4-6.5,1.5c-1,0.5-2.1,0.7-3.2,1c-5,1.2-10,2.4-15,3.6
		c-0.6,0.1-1.2,0.2-1.7,0.2c-1.1-0.1-1.5,0.4-1.6,1.5c-0.1,1.9-0.4,3.7-0.6,5.5c-0.4,0-0.8,0-1.2,0c0.7-5.7,1.4-11.4,2-17.2
		c0.4-3.5,0.5-7,0.6-10.5c0.1-4.8-0.1-9.5-0.2-14.3c-0.1-5.5-0.1-10.9-0.2-16.4c0-0.5-0.3-1.1-0.6-1.6c-0.5-0.9-1.2-1.7-1.7-2.6
		c-0.8-1.4-1.9-1.9-3.4-1.9c-2.7,0.1-5.5,0.2-8.3,0.1c-1.3,0-2.7-0.3-4-0.5c-0.9-0.2-1.3,0.2-1.2,1.1c0.1,1.3,0.1,2.6,0.2,3.9
		c0.4,6.1,0.9,12.2,1,18.3c0.1,4.7-0.3,9.4-0.3,14.2c0,4.1,0.8,8.1,0.6,12.3c-0.2,4.4,0.3,8.8,0.5,13.2c0,0.8-0.1,1.4-0.8,1.7
		C21.5,212.4,21.1,212.4,20.6,212.4z M109,71.2c2.8,3.8,5.9,6.9,7.3,11.2c0.3,1,0.7,2,1.2,2.9c0.6,1.4,1.3,2.7,1.9,4.1
		c1,2.3,1.8,4.6,2.9,6.8c0.8,1.6,0.9,2-0.8,2.6c-4.1,1.4-8.2,2.7-12.3,4.2c-4.6,1.6-9.1,3.3-13.1,6.1c-0.3,0.2-0.5,0.6-0.6,0.9
		c-0.3,2.9-0.5,5.8-0.8,8.7c-0.2,2.7-0.4,5.4-0.8,8.1c-0.4,2.4-1.2,4.7-1.8,7.1c-1.1,4.2-2.4,8.2-4.9,11.8c-1.3,2-2.7,3.9-3.6,6.1
		c-1.4,3.3-1.3,6.9-1.5,10.4c-0.1,1.9,0,3.8,0,5.7c0,0.3-0.4,0.6-0.6,0.9c-0.3-0.2-0.6-0.4-0.8-0.7c-0.1-0.3-0.1-0.7-0.1-1
		c0-2-0.1-4,0-6.1c0.3-3.7,0.1-7.5,1.9-11c0.2-0.4,0.1-1.1-0.2-1.5c-1.6-2.4-3.2-4.7-4.9-7.1c-1.1-1.5-2.4-2.8-3.2-4.5
		c-1.1-2.2-2.3-4.3-4.2-6c-2.1-1.8-4.1-3.6-6.9-4.3c-3.2-0.8-6.5-1.2-9.8-0.9c-5.5,0.6-11.1,1-16.5,2.4c-3.8,1-7.1,2.6-10.4,4.4
		c-0.4,0.2-0.7,0.5-1,0.8c-1,1.2-1,1.6,0.2,2.7c0.8,0.7,1.7,1.4,2.4,2.2c1.9,2,3.7,4.2,5.6,6.2c0.7,0.7,1.8,1.1,2.7,1.7
		c0.5,0.3,1,0.7,1.4,1.1c1.3,1.7,2.4,3.5,3.8,5.1c2.9,3.5,6,6.7,8.7,10.3c4.4,6,9.6,11.1,15.6,15.5c1.7,1.2,3.3,2.4,4.8,3.8
		c2.1,2,4,4.2,6.2,6c3.9,3.2,7.9,6.1,13.1,6.6c1.8,0.2,3.7,0.2,5.5,0.4c3.5,0.2,6.4-0.9,8.2-4c1-1.7,1.9-3.5,2.7-5.3
		c1.9-4.2,3.8-8.4,5.5-12.7c0.7-1.6,1-3.4,1.4-5.1c0.2-0.9,0.1-1.8,0.3-2.7c0.8-4.4,1.6-8.9,2.4-13.3c0.2-1.1,0.5-2.1,0.6-3.2
		c0.4-12.1,0.8-24.1,1.1-36.2c0.1-6.5,2.8-11.6,8.1-15.3c2.2-1.5,3.6-3.6,5.2-5.6c2-2.5,2.6-5.3,2.3-8.5c-0.1-0.5-0.1-0.9-0.2-1.4
		c-0.3-0.9-0.7-1-1.4-0.3c-0.6,0.6-1,1.3-1.6,1.8c-0.3,0.3-0.7,0.3-1.1,0.4c0.1-0.4,0-0.9,0.2-1.1c0.8-1,1.8-1.8,2.6-2.8
		c0.6-0.7,1.1-1.7,1.2-2.5c0.2-1.2,0-2.5-0.1-3.7c-0.3-1.9-1.3-3.4-2.7-4.6c-0.2,0.2-0.4,0.4-0.5,0.6c-1.5,2-2.2,4.3-2.7,6.7
		c-0.3,1.6-1.2,2.9-2.6,3.9c-0.2,0.1-0.6,0.1-0.8,0.1c0.1-0.3,0-0.6,0.2-0.8c0.3-0.4,0.7-0.8,1-1.1c0.9-0.8,1.4-1.7,1.6-3
		c0.2-1.4,0.5-2.7,1-4c0.3-0.9,1-1.7,1.5-2.6c0.7-1.3,0.7-2.5-0.2-3.7c-1-1.4-1.9-2.8-2.9-4.2c-0.5-0.6-1.1-1.2-1.7-1.7
		c-0.2-0.2-0.7-0.2-1.1-0.1c-0.1,0-0.2,0.5-0.2,0.8c0.6,2.6-0.1,5.1-1.1,7.5c-0.6,1.5-1.2,2.9-1.9,4.4c-0.1,0.3-0.6,0.4-0.9,0.6
		c0-0.4-0.1-0.7,0-1.1c0.4-1.1,0.8-2.1,1.3-3.1c1.8-3.7,1.9-7.6,1.1-11.5c-0.1-0.7-1-1.4-1.7-1.8c-0.3-0.2-1.3,0-1.5,0.4
		c-0.9,1.3-1.7,2.7-2.3,4.1c-1.3,3.2-2.4,6.5-4.5,9.3C110.3,69.4,109.7,70.4,109,71.2z M119.5,35.2c0-0.3,0-0.4,0-0.5
		c-0.1-0.2-0.2-0.4-0.3-0.6c-2-3.3-3.7-6.7-5.1-10.3c-1.2-3.2-3.3-5.8-7.1-6c-4-0.2-8.1-0.3-12.1-0.2c-2.3,0-4.6,0.7-6.7,1.8
		c-1.6,0.8-3.3,1.8-4.9,2.5c-2.6,1.1-4.8,2.5-6.2,5.1c-0.5,0.9-1.3,1.7-2.1,2.2c-1.3,0.8-2.8,1.3-4.1,2.1c-1.8,1.1-3.7,2.2-5.1,3.7
		c-3,3.2-4.9,6.9-5.8,11.2c-0.5,2.2-1.2,4.2-1.9,6.3c-0.8,2.4-2.3,4.4-2.6,7c-0.1,0.8-1.4,1.6-2.2,2.3c-0.1,0.1-0.6,0-0.8-0.2
		c-1.3-0.8-2.5-1.6-3.8-2.4c-2-1.2-4.1-1.1-6.2-0.4c-3.1,1.1-4.8,5.8-3.2,9.1c0.2,0.4,0.6,0.6,0.9,1c0.1-0.4,0.4-0.8,0.4-1.2
		c-0.3-2.8,1-5,2.6-7.1c0.2-0.3,0.7-0.4,1.1-0.6c2.2-0.7,3.6,0.7,5,2.1c0.1,0.1,0.2,0.5,0.1,0.6c-0.1,0.2-0.5,0.4-0.7,0.3
		c-0.6-0.3-1.1-0.6-1.6-1.1c-1-1-2.9-0.8-3.7,0.4c-1.6,2.8-2.1,5.8-1.6,8.9c0.1,0.8,0.4,1.6,1,2.2c2.4,2.6,5.1,4.8,8.7,5.5
		c1.1,0.2,2.3,0.2,3.3,0.6c1.8,0.7,3.4,0.3,4.9-0.5c0.6-0.3,1.1-0.8,1.8-1.1c0.3-0.2,0.8,0,1.3,0c-0.2,0.3-0.2,0.8-0.5,1
		c-1,0.7-2.1,1.4-3.2,1.9c-1.8,0.8-2,0.9-1.8,2.9c0,0.7,0.2,1.5,0.6,2.1c1.8,3.2,1.7,6.8,2.3,10.3c0,0,0,0.1,0,0.1
		c-0.4,1.3,0.5,1.9,1.5,2.4c3.4,1.6,6.3,3.8,8.8,6.6c2.3,2.6,4.8,5,7.9,6.7c0.7,0.4,1.4,0.9,2.1,1.5c1.3,1,2.5,2,4,3.2
		c0.2-0.7,0.2-1.2,0.3-1.6c0.3-1.5,0.7-2.9,1-4.4c0.4-2,0.7-4.1,1.3-6c0.7-1.9-0.8-2.2-1.7-3c-0.2-0.2-0.7-0.3-0.9-0.4
		c-2.5-1.7-5.2-3.3-7.6-5.1c-1-0.7-1.5-2.1-2.1-3.2c-0.1-0.2,0-0.6,0-1c0.3,0.1,0.7,0.2,0.9,0.4c0.2,0.2,0.3,0.5,0.5,0.7
		c1,1.2,2,2.5,3.2,3.5c1.4,1.1,2.9,2,4.5,2.9c1.2,0.7,2.6,1.2,3.9,1.9c0.3-2.5,0.4-5,0.7-7.4c0.7-5.6,1.4-11.2,2.3-16.8
		c0.4-2.8,1.4-5.5,2-8.2c0.3-1.1,0.2-2.2,0.7-3.2c1-2.1,1.3-4.3,1.7-6.5c0.1-0.9,0.5-1.8,1.1-2.5c1.7-2.1,3.8-3.3,6.5-3.7
		c0.7-0.1,1.5-0.3,2.1-0.5c3.9-1.5,7.9-1.9,12-2.1c1.8-0.1,3.6-0.7,5.4-1.1c0.2,0,0.5-0.4,0.5-0.7c0.3-1.9-0.2-3.8-1.2-5.2
		c-0.9-1.4-1.2-2.6-1-4.1c0-0.3,0-0.6-0.1-0.9c-0.5,0-0.9,0-1.3-0.1c-3.3-0.5-6.2,0.6-8.7,2.6c-0.6,0.5-1.2,1-2,0.4
		c-0.7-0.6-0.6-1.4-0.2-2.1c0.2-0.3,0.4-0.6,0.7-0.9c2.1-2.4,4.8-3.4,7.9-3.4C117.3,34.9,118.3,35.1,119.5,35.2z M71.3,130
		c0.1,0,0.2-0.1,0.3-0.1c-0.1-0.3-0.1-0.6-0.2-0.9c-0.9-1.7-1.8-3.3-2.7-5c-0.2-0.3-0.1-0.7-0.2-1c0.4,0,0.8,0,1.1,0.2
		c0.4,0.3,0.8,0.7,1.1,1.2c0.9,2,1.9,4.1,2.6,6.2c0.9,2.7,1.7,5.2,3.6,7.5c1.9,2.2,3.4,4.6,5.1,7c0.6,0.9,1.3,1.7,1.9,2.6
		c0.3-0.2,0.4-0.3,0.5-0.4c1.3-1.7,2.6-3.3,3.9-5c0.2-0.3,0.4-0.8,0.5-1.2c1.2-4.8,2.5-9.5,3.7-14.3c0.3-1,0.1-1.8-0.6-2.4
		c-1.4-1.2-2.7-2.3-4.1-3.4c-2.5-1.8-5.1-3.5-7.6-5.3c-1.3-0.9-2.7-1.9-4-2.8c-1.8-1.3-3.7-2.5-5.2-4.1c-3.5-3.7-7.1-7.1-11.7-9.4
		c-0.5-0.2-1-0.5-1.5-0.5c-1.4,0.1-2.9,0.2-4.3,0.4c-0.5,0.1-1,0.2-1.8,0.4c0.6,0.5,1,0.8,1.4,1.1c1,0.7,2.1,1.3,3,2
		c3.2,2.8,6.5,5.7,9.6,8.6c2.3,2.2,4.6,4.3,7.4,5.8c0.8,0.4,1.5,1,2.1,1.6c2.8,2.3,5.5,4.6,8.3,6.9c0.5,0.4,1.5,0.7,0.9,1.6
		c-0.1,0.2-1.4-0.1-1.9-0.5c-2.5-1.9-4.9-4-7.3-6c-1.2-1-2.4-2-3.6-2.9c-1.5-1.1-3-2-4.4-3.2c-2.3-1.9-4.4-4-6.6-6
		c-1.4-1.3-2.8-2.6-4.2-4c-2-2-4.4-3.7-7.2-4.4c-3.6-0.9-7.3-0.1-10.9,1c-0.9,0.3-1.9,0.4-2.9,0.7c-0.5,0.1-1,0.2-1.4,0.5
		c-1.5,1.3-3.1,2.5-4.4,3.9c-3.3,3.5-5.9,7.4-6.4,12.4c0,0.3-0.2,0.7-0.3,1c-1,2.1-1.5,4.3-1.7,6.6c-0.1,1.3-0.4,2.6-0.6,3.9
		c-0.1,0.8-0.3,1.5-0.2,2.3c0.1,1.2,0.7,1.4,1.7,0.8c0.6-0.4,1.2-0.8,1.8-1.2c1.7-1,3.5-2,5.3-2.9c1.5-0.8,3.1-1.7,4.8-2.1
		c7.9-2,16-3,24.1-2.9c4,0,7.9,1,11,3.9C69.7,128.8,70.5,129.4,71.3,130z M93.9,67.5c-0.8,3.1-1.8,6.2-2.5,9.3
		c-0.5,2.3-0.8,4.7-1.1,7c-0.6,4.8-1.5,9.7-1.7,14.5c-0.2,4.3-0.6,8.6-2.1,12.7c-0.2,0.6-0.4,1.3-0.6,1.9c-0.2,1.1-0.4,2.3-0.6,3.4
		c0.2,0.1,0.3,0.2,0.5,0.2c0.6-0.7,1.2-1.5,1.9-2.2c1-1.2,1.8-2.9,3.2-3.6c5-2.8,9.6-6.1,15.2-7.9c4-1.2,7.7-3.3,11.9-4
		c1.3-0.2,2.5-0.8,3.4-1.2c-1.1-3.1-2.2-5.9-3.3-8.8c-0.3-0.9-0.9-1.7-1.3-2.6c-0.4-0.8-1-1.5-1.1-2.3c-0.8-4-3.5-6.9-5.8-10.1
		c-0.5-0.7-1.2-1.2-1.9-1.7c-1.5-0.9-3.2-1.5-4.6-2.5C100.5,68,97.3,67.2,93.9,67.5z M31.6,60.3c0.1,0,0.3,0,0.4,0
		c-0.2-4.6-0.4-9.1-0.6-13.7c0-0.7-0.2-1.4-1.2-1.4c-1.2-0.1-2.5-0.2-3.7-0.4c-2.6-0.5-4.4,0.7-4.7,3.3c-0.2,1.4-0.4,3.1,0.1,4.4
		c1.5,3.8,2.4,7.9,5.3,11.2c0.7,0.7,0.9,1.9,1.1,3c0.2,1,0,2-0.1,3c-0.2,1.3,0,2.4,0.8,3.4c0.9,1.2,2,2.3,2.9,3.5
		c2.1,2.7,3.3,5.8,4.2,9.1c0.6,2.3,0.8,4.5,0,6.7c-0.5,1.4-0.3,2.6,0.3,3.9c0.3,0.6,0.6,1.2,0.8,1.8c0.3,0.8,0.7,1,1.6,0.9
		c2.9-0.4,5.8-0.7,8.8-1c2.7-0.3,5.5-0.6,8.2-0.9c1.5-0.2,2.1-1.3,1.2-2.2c-1.8-1.9-3.6-3.9-5.7-5.4c-4.9-3.6-9.8-7.1-14.2-11.3
		c-2.2-2.2-3.8-4.8-4.9-7.7c-0.3-0.9-0.7-1.9-0.7-2.8C31.6,65.1,31.6,62.7,31.6,60.3z M102.5,67.2c-0.3-0.8-0.5-1.7-1-2.4
		c-1-1.7-1.7-3.4-1.5-5.4c0.1-1.9,1.4-2.8,3.2-2.1c2.1,0.7,3.6,2.1,4.3,4.3c0.3,1.1,0.7,2.1,1,3.2c0.3,1.1,0.7,2.2,1.1,3.6
		c0.7-1.1,1.4-1.8,1.9-2.7c2.1-3.4,2.7-7.4,5.1-10.7c0.9-1.3,1.5-1.8,3.1-1.6c1.1,0.2,2.5,1.6,2.7,2.6c0.3,1.7,0.3,1.7,2.2,1.6
		c-0.3-1.5,0-3-1.1-4.3c-0.5-0.6-0.8-1.4-1-2.2c-0.2-0.8-0.6-0.8-1.2-0.7c-2.2,0.4-4.5,0.7-6.7,1.1c-2.1,0.3-4.2,0.5-6.3,1
		c-2.2,0.5-4.4,1.3-6.6,1.7c-2.3,0.5-3.9,1.9-5.3,3.5c-0.3,0.3-0.4,0.7-0.5,1.1c-0.2,2.2-0.4,4.4-1.3,6.5c0,0,0.1,0.1,0.1,0.2
		C97,66.1,99.6,66.6,102.5,67.2z M100.9,59.8c0.2,0.9,0.4,1.8,0.7,2.6c0.5,1.2,1.2,2.2,1.5,3.4c0.6,1.8,1.5,3.2,3,4.3
		c0.9,0.6,1.4,0.4,1.6-0.5c0.2-0.5,0.2-1.2,0.1-1.7c-0.4-1.9-0.8-3.7-1.3-5.5c-0.5-2-1.8-3.2-3.8-3.9
		C101.2,57.9,101,57.9,100.9,59.8z M92.9,123.1c0.4-4.3,0.8-8.3,1.2-12.7c-1.7,0.9-3.4,1.2-4,2.8c-0.6,1.5-1.5,2.8-2.6,3.9
		c-0.3,0.3-0.6,0.7-0.9,1.1c1.2,0.8,2.3,1.4,3.3,2.2C90.8,121.1,91.7,122,92.9,123.1z M26.2,146.3c0.1-0.2,0.1-0.3,0.2-0.5
		c-0.2-0.4-0.4-0.7-0.6-1.1c-1.3-2.7-2.6-5.3-3.9-8c-0.2-0.3-0.4-0.9-0.6-0.9c-0.4,0-0.9,0.2-1.2,0.5c-1.8,2.1-2.1,5.8-0.7,8.2
		c0.2,0.3,0.4,0.7,0.7,0.7C22.1,145.6,24.1,145.9,26.2,146.3z M34.9,89.9c-0.2-0.3-0.5-0.6-0.5-0.6c-0.4,0.2-0.9,0.4-1.2,0.8
		c-0.8,1.2-1.3,2.6-2.2,3.6c-1.5,1.7-3.3,3.2-5,4.8c-1.7,1.6-3.4,3.1-5,4.6c-0.3,0.3-0.3,0.8-0.5,1.2c0.5-0.1,1,0,1.4-0.2
		c0.5-0.2,0.7-0.8,1.2-1.1c3.7-3.1,7.2-6.2,10.2-10C33.9,92.1,34.3,91,34.9,89.9z M33.2,145.8c-0.4-0.4-0.6-0.7-0.9-1
		c-1.5-1.6-3.1-3.1-4.5-4.7c-0.7-0.8-1.2-1.8-1.9-2.6c-0.3-0.3-0.9-0.4-1.3-0.6c0,0.5-0.2,1,0,1.4c1.1,2.1,2.3,4.1,3.6,6.1
		C29.3,146.2,30.8,146.6,33.2,145.8z M26.1,38.5C26.2,38.5,26.2,38.5,26.1,38.5c0.1,1.1,0.2,2.2,0.3,3.3c0.1,0.8,1,1.4,1.9,1.3
		c0.9-0.1,0.8-0.9,0.7-1.4c-0.2-2.1-0.4-4.2-0.6-6.4c-0.1-0.5-0.5-1.4-0.9-1.4c-0.8,0-1.3,0.5-1.4,1.4
		C26.1,36.5,26.1,37.5,26.1,38.5z M27.4,74.2c-0.3-0.4-0.4-0.9-0.6-0.9c-0.3,0-0.6,0.2-0.8,0.5c-0.4,0.6-0.6,1.2-1.1,1.8
		c-1.9,2.5-3.6,5.2-6.7,6.5c-0.5,0.2-0.9,1-1.3,1.6c0.7-0.1,1.6,0.1,2.1-0.3c2.2-1.8,4.3-3.7,6.3-5.8C26.3,76.6,26.7,75.3,27.4,74.2
		z"/>
	<path class="st0" d="M138.9,212.4c-0.2-3.9-0.4-7.8-0.6-11.7c0-0.9-0.1-1.9-0.2-2.8c-0.1-0.7,0.4-1.6-0.7-2.1
		c-0.2-0.1-0.2-0.8-0.3-1.2c-0.2-3.1-0.4-6.3-0.6-9.4c-0.1-0.8-0.1-1.6-0.3-2.4c-1.2-4.5-2.3-8.9-3.5-13.4c-0.1-0.4-0.3-0.7-0.6-1.4
		c-0.3,0.7-0.4,1-0.5,1.3c-1.1,4.8-2.2,9.5-3.2,14.3c-0.6,3.1-1,6.2-1.6,9.3c-0.3,1.5-1.1,2.9-1.5,4.4c-0.9,3.4-1.7,6.8-2.4,10.2
		c-0.4,1.6-0.6,3.3-0.9,4.9c-0.5,0-1.1,0-1.6,0c1.2-5.3,2.3-10.6,3.5-15.9c0.2-0.8,0.6-1.5,0.9-2.3c0.2-0.6,0.5-1.2,0.6-1.9
		c0.8-4.4,1.5-8.9,2.5-13.2c1.1-4.8,2.5-9.6,3.7-14.4c0.4-1.5,0.7-2.9,0.8-4.4c0.1-1.3,0.6-2.2,1.7-3c2-1.4,3.9-3,5.8-4.4
		c1.5-1.1,3-2.3,4.6-3.2c1.1-0.6,1.5-1.4,1.2-2.5c-0.7-2.7-1.6-5.3-2.3-8c-0.4-1.4-0.7-2.8-1.2-4.2c-0.5-1.6-1.2-3.2-1.7-4.8
		c-0.5-1.5-0.9-3-1.3-4.6c-0.3-1.2-0.9-2.2-1.9-2.9c-2.5-1.8-4.9-3.7-7.4-5.4c-1.5-1-3.2-1.7-4.8-2.6c-1.6-0.9-3.1-2-4.5-3
		c-0.2-0.1-0.2-0.5-0.3-0.8c0.3,0,0.6-0.1,0.9-0.1c0.1,0,0.3,0.1,0.4,0.2c2.6,2.5,6.2,3.3,9.1,5.3c2,1.4,4,2.9,6,4.3
		c0.3,0.2,0.6,0.5,1,0.7c1.9,0.9,2.7,2.6,3.1,4.6c0.5,2.5,1.2,5,2,7.4c1.3,4.1,2.7,8.2,4.1,12.3c0,0.1,0.1,0.2,0.1,0.3
		c0.7,3.6,0.6,3.6-2.5,5.5c-2,1.3-3.9,3-5.8,4.5c-1.1,0.9-2.3,1.7-3.5,2.5c-0.9,0.6-1.3,1.3-1.4,2.4c-0.1,1.4-0.5,2.9-0.8,4.3
		c-0.1,0.6-0.2,1.3,0,1.9c2.8,7.7,5.3,15.6,5.5,23.9c0,1.6,0.7,3.1,0.8,4.7c0.4,5.2,0.8,10.4,1.2,15.7c0,0.4,0,0.8-0.1,1.3
		C139.8,212.4,139.4,212.4,138.9,212.4z"/>
	<path class="st0" d="M88.9,52.8c-1.8-0.1-3.1-0.2-4.4-0.3c-0.8,0-1.7,0.2-2.5,0.3c-0.4,0-0.9,0-1-0.2c-0.2-0.2-0.2-0.7-0.1-1.1
		c0.9-2.9,4.6-5.7,7.6-5.9c0.9,0,1.8-0.2,2.8-0.3c1.9-0.2,4.7,1.3,5.4,3c0.1,0.3,0.1,0.9-0.1,1.2c-0.2,0.4-0.6,0.8-1,1.1
		C93.2,52,90.9,52.8,88.9,52.8z M91.9,46.9c-0.1,0.1-0.2,0.2-0.3,0.4c0.9,1,1.2,2.2,0.5,3.8c1.2-0.5,2.1-0.9,3.4-1.3
		C94.1,48.6,93,47.8,91.9,46.9z M86.1,48.9c-1.1-0.2-2.8,0.8-3,1.8c0,0.2,0.3,0.6,0.5,0.7c0.8,0.1,1.6,0,2.3,0
		C86,50.5,86.1,49.7,86.1,48.9z"/>
	<path class="st0" d="M91.3,36.8c0.5,0.1,1.4,0,2.1,0.3c0.5,0.2,1,0.9,1.1,1.4c0,0.4-0.6,1-1.1,1.2c-1.2,0.4-2.5,0.5-3.7,0.8
		c-3.1,0.8-6.3,1.5-9.3,2.5c-1.1,0.3-2,1.3-2.9,2.1c-0.4,0.3-0.7,0.7-1.1,1c-0.6,0.5-1.2,1.1-1.9,0.4c-0.8-0.7-0.2-1.4,0.4-2
		c0.7-0.7,1.4-1.4,2.2-2.1c3.6-3,7.9-4.6,12.4-5.5C89.9,36.8,90.5,36.9,91.3,36.8z"/>
	<path class="st0" d="M112.6,49.1c-1.8,0.3-3.4-0.7-5-1.5c-0.6-0.3-0.8-0.8-0.3-1.3c0.8-0.8,1.6-1.6,2.6-2.3
		c0.9-0.6,1.9-1.1,2.9-1.6c2.3-1.2,6.5,0.1,7.5,2.5c0.2,0.5,0,1.3-0.3,1.8c-1.5,2.2-3.8,2.4-6.2,2.4
		C113.5,49.1,113.1,49.1,112.6,49.1z M116.7,48.1c0.7-0.5,1.4-1,2.1-1.6c0.1-0.1,0.2-0.4,0.2-0.5c-0.1-0.7-2-1.9-2.7-1.8
		C116.4,45.4,116.5,46.6,116.7,48.1z M111.8,45.5c-0.1-0.1-0.2-0.2-0.4-0.3c-0.7,0.4-1.3,0.8-2,1.2c0,0.1,0,0.2,0,0.4
		c0.6,0.2,1.2,0.4,1.8,0.7C111.4,46.8,111.6,46.2,111.8,45.5z"/>
	<path class="st0" d="M55.5,75.3c0.1-0.8-0.4-1.9,0.9-2.3c1.1-0.4,3.1,0,3.7,0.7c0.9,1.1,0.6,2.4-0.6,3.2c-0.2,0.1-0.4,0.2-0.6,0.3
		C56.9,78.3,55.1,77.9,55.5,75.3z"/>
	<path class="st0" d="M51.7,65.4c-0.8,0.6-1.7,0.8-1.8,1.3c-0.4,1.1-0.6,2.3-0.6,3.5c0,0.3,0.8,0.6,1.1,1c0.3,0.3,0.5,0.6,0.7,0.9
		c-0.4,0.1-0.8,0.4-1.1,0.3c-2.1-0.4-4.1-2.8-2.6-5.3c0.7-1.2,1.2-2.3,2.8-2.2C50.5,64.8,51,65.1,51.7,65.4z"/>
</g>
</svg>
