<?xml version="1.0" encoding="utf-8"?>
<!-- Generator: Adobe Illustrator 19.1.0, SVG Export Plug-In . SVG Version: 6.00 Build 0)  -->
<svg version="1.1" id="Layer_1" xmlns="http://www.w3.org/2000/svg" xmlns:xlink="http://www.w3.org/1999/xlink" x="0px" y="0px"
	 viewBox="0 0 120 156.3" style="enable-background:new 0 0 120 156.3;" xml:space="preserve">
<style type="text/css">
	.st0{fill:#8BC34A;}
</style>
<g id="allergy-girl2">
	<path class="st0" d="M98.5,81.7c-2.7,3.9-2.4,9.1-2,13.9c1.3,18.5,0.8,37.8-7.4,54.4c-2.1,4.2-7.4,6-12.1,5.4
		c-4.7-0.7-8.8-3.3-12.6-6c-9.9-7.1-19-15.2-27.1-24.3c1,9.5,2.1,19.1,1.1,28.6c-0.8-8.9-1.5-17.8-2.3-26.7c-0.2-2.2-0.5-4.6-2.2-6
		c-3.3-2.7-8.6,0.7-12.5-1.1c1.1,12.1,2.2,24.2,3.3,36.2c-0.8,0.6-1.6-0.8-1.8-1.8c-1.1-8.6-2.1-17.2-3.2-25.7
		c-1.1-9.1-2.3-18.3-0.7-27.3c0.2-1.3-1.2-2.2-2.5-2.4c-1.3-0.2-2.6,0-3.8-0.5c-2.8-1.4-1.8-5.4-2.5-8.4c-0.6-2.7-2.8-4.7-3.8-7.3
		c-1.1-2.9-0.7-6.1-1.2-9.2c-0.5-3.6-2.3-6.9-3.5-10.3c-1.8-5.4-2.3-11.2-1.2-16.8c0.8-4,2.4-7.9,5.1-10.9s6.7-5,10.7-4.9
		c2.1,0.1,3.9-1.6,5-3.4c1-1.8,1.6-3.9,2.6-5.8c2.5-4.2,7.3-6.5,10.7-10c11.4-12,30.6-14.1,46.1-8.2c5,1.9,9.9,4.8,12.6,9.4
		c3.3,5.7,2.5,12.8,3.1,19.4c0.8,8,3.9,15.9,8.8,22.2c1.1,1.3,1.3,3.1,1.6,4.8c0.8,5.3,1.5,11.1-1.5,15.5
		C103.5,77.2,100.4,78.9,98.5,81.7 M106.2,64.5c-0.9,0.5-1.8,0.9-2.7,1.3c2.3-1.9,3.4-5.3,2.7-8.2c-0.2-0.9-0.7-1.9-1.5-2.3
		c-0.9-0.4-2.1,0.1-2.2,1c-0.1,2.7-1.3,5.3-3.2,7.2c1-2.7,2.1-5.5,3.1-8.2c1.2-3.3-1.6-6.7-4.2-9.1c0.3-0.3,0.7-0.5,1-0.8
		c-0.2-1.3-0.5-2.6-1.2-3.7c-0.8-1.1-2.2-1.8-3.4-1.4c-4.2,1.4-8.8,1.4-12.9,3.1c-4.1,1.7-7.8,6.1-6.2,10.3
		c3.6-0.1,7.3,1.1,10.2,3.3c0.8-3.5-0.7-7.5-3.6-9.6c-1.1-0.8-2.2,1.2-1.6,2.4c0.5,1.2,1.7,2.4,1.3,3.6c-1.1-1.1-2.2-2.2-2.5-3.7
		c-0.3-1.5,0.5-3.3,2-3.4c1.1-0.1,2,0.7,2.7,1.5c1.6,1.8,2.6,4.1,2.8,6.5c1.7-0.7,2.6-2.7,3.1-4.5c0.4-1.8,0.7-3.8,1.8-5.4
		c1.1-1.5,3.6-2.2,4.9-0.8c0.5,0.6,0.8,1.4,0.9,2.2c0.6,3.9-0.3,8.1-2.6,11.4c0.5-2.3,0.9-4.5,1.4-6.8c0.3-1.4,0.6-2.8,0.3-4.2
		c-0.3-1.4-1.3-2.7-2.7-2.9c-2.1,4.3-4.2,8.7-6.3,13c-0.2,0.5-0.5,1.1-0.1,1.6c4.6,5.6,8.1,12,10.4,18.8c0.2,0.7,0.4,1.7-0.3,2
		c-4.9,2-9.8,4-14.7,6c-2.6,1.1-5.5,2.7-5.6,5.4c-0.1,8.9-0.4,18.1-4.7,25.9c-1.1,1.9-2.4,3.7-3,5.8c-1.2,4.1,0.4,8.7-0.9,12.9
		c-1.3-4.8-1.3-9.9,0-14.7c0.2-0.7-0.2-1.3-0.6-1.9c-1.7-2.4-3.4-4.8-5.2-7.3c-1.9-2.7-3.9-5.4-6.7-7.1c-4.2-2.5-9.4-2.2-14.2-1.4
		c-4.2,0.7-8.3,1.8-12.4,3.1c-3,1-6.4,2.9-6.5,6c-0.1,2,1.3,3.7,2.5,5.2c0.6,0.7,1.2,1.4,2.1,1.8c0.9,0.3,2,0.1,2.4-0.7
		c-2.9-1.2-5.1-4-5.5-7.2c3.5,3.6,7.1,7.3,10.6,10.9c1.8,1.8,3.6,3.7,5.4,5.5c7.9,7.8,16.3,15.1,25.2,21.8c2.3,1.7,4.7,3.4,7.4,4.3
		c2.1,0.7,4.3,0.8,6.4,0.8c1.9,0,3.9-0.2,5.5-1.3c1.6-1.1,2.5-2.8,3.3-4.5c7.4-16.1,7.8-34.4,6.9-52.1c-0.3-4.8-0.6-9.9,1.8-14
		c1.8-3,4.7-5.2,7-7.8C106.4,71.5,108,67.5,106.2,64.5 M89,17.3c-0.6-1-1.2-2.1-2.2-2.8c-0.9-0.6-2-0.7-3.1-0.8
		c-8.3-0.7-17.4,1.1-22.9,7.4c-0.8,1-1.6,2-2.5,2.9c-1.3,1.2-3,2.1-4.5,3.1c-2.5,1.8-4.5,4.4-5.6,7.3c-1,2.7-1.3,5.5-2,8.3
		c-0.7,2.9-2,5.8-3.6,8.3c-0.3,0.5-0.9,1-1.3,0.7c-2-1.4-4.6-1.9-6.9-1.3c-0.2,0.3,0.1,0.8,0.4,0.9c0.4,0.1,0.8,0,1.1,0
		c1.2-0.1,2.5,0.6,3.1,1.8c-0.4,0.4-1.1-0.1-1.6-0.4c-1.3-0.8-3.1,0.3-3.8,1.7c-1,1.8-0.9,4.2,0,6c0.9,1.9,2.5,3.4,4.3,4.4
		c3.7,2.1,8.7,2.3,12.2-0.3c0.2,1.1-1.2,1.9-2.2,2.4c-1.1,0.5-2.3,1.5-1.7,2.6c1.4,2.8,2.2,5.9,2.4,9.1c0.1,1.7,1.9,2.6,3.4,3.4
		c6.6,3.6,11.3,10.9,18.8,12.1c0.8-3,3.4-5,6-6.6c6.2-3.9,12.9-6.9,19.9-8.9c0.7-0.2,0.6-1.3,0.3-2c-1.1-2.4-2.2-4.8-3.3-7.2
		c-1.3-2.8-2.7-5.7-4.7-8.1c-3.1-3.7-7.9-6-12.7-6.2c-0.4,0-0.8,0-1.1,0.2c-0.2,0.2-0.3,0.5-0.4,0.8c-4,11.9-1.7,25.1-5,37.2
		c-0.6,0.4-1-0.7-0.8-1.3c0.5-2.4,1-4.8,1.5-7.2c0.3-1.4-1.4-2.3-2.7-2.8c-2.6-1-4.9-2.6-6.8-4.6c-0.5-0.6-1-1.6-0.3-2
		c2.5,3.4,6.2,5.7,10.3,6.6c-0.6-10.6,1.6-21.2,3.8-31.7c0.3-1.5,0.7-3.1,1.6-4.3c1.2-1.6,3.3-2.4,5.3-3.1c4.5-1.4,9.2-2.4,13.9-3
		c1.4-0.2,1.9-2,1.5-3.4c-0.4-1.3-1.4-2.5-1.7-3.8c-0.2-0.8-0.2-1.8-0.8-2.3c-0.4-0.3-0.9-0.3-1.4-0.3c-2.4,0.1-4.8,1.2-6.6,2.9
		c-0.5,0.4-1.3,0-1.4-0.7c-0.1-0.6,0.3-1.2,0.7-1.7c1.9-2.1,4.8-3.1,7.6-2.6c0.8,0.1,0.8-1.1,0.4-1.8C92.1,23.1,90.6,20.2,89,17.3
		 M88.1,14c3.3,2.5,3.1,7.9,6.2,10.5C95.2,19,93,13.1,88.7,9.6c-2-1.6-4.3-2.8-6.6-3.8c-4.4-2-9-3.9-13.9-4.4
		c-5-0.5-9.9,0.5-14.8,1.5c-4.7,1-9.5,2.2-13.2,5.2c-1.9,1.5-3.3,3.5-5.1,5.2c-3.1,3.1-7.1,5.2-9.7,8.7c-3.4,4.6-3.9,11.3-1,16.3
		c4,7.1-0.2,17,4.5,23.7c1.4,1.9,3.3,3.3,5.3,4.7c4,2.8,8.1,5.5,12.2,8.3c0.3,0.2,0.9,0.1,0.7-0.2c-0.8-2.2-1.6-4.4-2.4-6.6
		c-0.1-0.4-0.4-0.9-0.9-0.9c-6,0-11.6-4.5-13.1-10.3c-0.4-1.6-0.5-3.3,0.2-4.8c0.8-1.7,2.6-2.8,4.4-3.1c1.8-0.3,3.8,0.2,5.4,1.1
		c0.5,0.3,1.1-0.3,1.3-0.8c0.9-1.8,1.9-3.5,2.5-5.4c1.2-3.5,1.4-7.4,2.8-10.8c1.1-2.7,3-5.1,5.4-6.8c1.4-1,2.9-1.8,4.2-2.9
		c1-0.9,1.7-1.9,2.6-2.9c5.4-6.3,14.4-8.5,22.7-8.2C84.4,12.5,86.5,12.7,88.1,14 M12.1,92.8c0,1.1-0.1,2.2,0.5,3.1
		c0.9,1.4,2.9,1.6,4.5,1.6c1.1,0,2.4-0.2,2.7-1.2c1.3-5.1,4.5-9.7,8.8-12.8c0.7-0.5,1.5-1.1,1.7-1.9c-0.5-1-1.2-1.9-2.1-2.5
		c-1.6,2.4-3.6,4.6-5.8,6.4c-0.5,0.4-1.5,0.7-1.7,0c1.8-1.9,3.6-3.8,5.4-5.7c1.2-1.3,2.5-2.7,2.9-4.4c0.2-1,0.1-2-0.1-3
		c-0.8-3.4-2.7-6.6-5.5-8.8c-0.6-0.5-1.6-0.8-1.9-0.1c-0.8,1.9-2.1,3.7-3.7,5.1c-0.3,0.2-0.8,0.4-0.9,0.1c-0.1-0.2,0-0.4,0.2-0.6
		c1.3-1.8,2.9-3.5,3.8-5.6c1-2.1,1.3-4.5,0.3-6.6c-0.5-1-1.4-1.9-2.1-2.8c-1.2-1.5-2-3.3-2.7-5.1c-0.6-1.5-1.2-3.1-1.3-4.8
		c-0.1-1.7,0.5-3.4,1.8-4.5c1.4-1.1,1.3-3.2,1.1-5c0-0.4-0.1-0.7-0.3-1c-0.2-0.3-0.6-0.4-1-0.5c-2-0.5-4.1,0.1-5.9,1.1
		c-1.7,1-3.2,2.6-4.4,4.1c-1.1,1.4-2.1,2.9-2.8,4.5c-1.8,4-1.7,8.5-1.6,12.8c0,2.5,0.1,5,0.9,7.4c1,2.9,3,5.4,3.8,8.4
		c0.6,2.3,0.5,4.6,0.5,6.9c0.1,2.3,0.5,4.8,1.9,6.6C11,86.5,12.1,89.6,12.1,92.8 M75.6,102.2c0.1-0.8,0.3-1.7-0.1-2.4
		c-0.3-0.6-0.9-0.9-1.4-1.3c-3.2-2-6.4-4.1-9.7-6.1c-1.7-1-3.3-2.1-4.9-3.3c-2.5-2-4.6-4.4-7.3-6.2c-2.7-1.7-6.2-2.7-9.1-1.4
		c5.7,4.8,11.7,9.2,17.6,13.6c3,2.2,5.9,4.4,8.9,6.5c0,0.6-0.9,0.5-1.4,0.2C60,96.4,52.2,90.5,44.6,84.1c-1.6-1.4-3.9-1.9-6.1-1.9
		c-2.2,0.1-4.3,0.7-6.3,1.3c-4.7,1.5-8.1,5.7-9.9,10.3c-1.8,4.6-2.1,9.6-2.5,14.5c0,0.5,0.6,0.9,1.1,0.8c0.5-0.1,0.9-0.4,1.3-0.7
		c2.7-2.2,5.8-3.9,9.1-5c2.9-1,5.9-1.4,8.9-1.9c3.3-0.5,6.6-1.1,9.9-0.8c3.3,0.3,6.7,1.4,9,3.8c0.5,0,0.4-0.7,0.1-1.1
		c-0.8-1.2-1.5-2.4-2.3-3.6c0.1-0.5,0.9-0.4,1.3,0c1.9,1.9,2.3,4.8,3.4,7.3c0.8,1.7,2,3.2,3.2,4.6c1.4,1.8,2.9,3.6,4.3,5.4
		c0.2,0.2,0.4,0.5,0.7,0.5c0.4,0.1,0.8-0.3,1-0.6C73.7,112.7,74.7,107.4,75.6,102.2 M17,45.3c0.7,2.5,1.9,4.9,3.4,7
		c1,1.3,2.1,2.6,2.4,4.2c0.2,1.2-0.1,2.6,0.3,3.8c0.4,1.7,1.9,2.8,3.1,4.1c2.7,2.8,4.3,6.8,4.2,10.7c0,1.4-0.3,2.8,0.1,4.1
		c0.4,1.3,1.6,2.6,2.9,2.3c4.2-0.7,8.4-1.3,12.6-2c0.3-0.1,0.7-0.1,1-0.4c0.6-0.6,0-1.5-0.6-2.1c-5.7-5.4-13.8-8.1-18.5-14.4
		c-0.7-1-1.4-2-1.8-3.2c-0.3-1.1-0.4-2.3-0.5-3.4c-0.4-5-0.8-10-1.1-15c-0.1-1.2-1.6-1.6-2.8-1.6c-1.4-0.1-2.9-0.1-3.9,0.8
		C16.3,41.4,16.5,43.6,17,45.3 M76.4,90.8c0-0.6,0-1.2-0.6-1.4c-0.3-0.1-0.6,0-0.9,0.2c-0.6,0.4-1.1,0.9-1.5,1.5c-0.6,1-1,2.3-2,2.8
		c-0.5,0.2-0.5,0.9-0.2,1.3c0.3,0.4,0.8,0.6,1.2,0.9c1.1,0.5,2,1.3,2.8,2.1c0.1,0.2,0.4,0.1,0.5-0.1c0.1-0.2,0.1-0.4,0.2-0.6
		c0.1-1.1,0.1-2.2,0.2-3.3C76.2,93.1,76.3,92,76.4,90.8 M20.8,111.1c-0.5-0.2-1,0.3-1.2,0.8c-0.7,1.3-0.9,2.9-0.5,4.4
		c0.2,0.8,0.6,1.5,1.3,1.9c0.3,0.1,0.6,0.2,0.9,0.2c0.7,0.1,1.4,0.2,2.1,0.3c0.3,0,0.7,0.1,1-0.1c0.3-0.2,0.5-0.6,0.3-0.9
		c-1.3-1.8-2.5-3.8-3.4-5.9C21.3,111.6,21.1,111.2,20.8,111.1 M20.1,37.6c0.4,0.4,1.1,0.6,1.6,0.3c0.3-0.8,0.2-1.7,0-2.5
		c-0.2-1.1-0.4-2.2-0.6-3.3c-0.1-0.4-0.1-0.7-0.3-1.1c-0.2-0.3-0.6-0.5-1-0.5c-0.4,0.1-0.7,0.5-0.8,0.9c-0.1,0.4-0.1,0.8,0,1.2
		c0.1,1.1,0.2,2.1,0.4,3.2C19.6,36.4,19.7,37.1,20.1,37.6 M34.2,51.3c-0.4-0.4-1.1,0-1.5,0.4c-0.4,0.4-0.9,0.8-1.1,1.4
		c-0.3,0.8-0.1,1.6,0.2,2.4c0.3,0,0.5-0.3,0.6-0.5C33,53.7,33.6,52.5,34.2,51.3"/>
	<path class="st0" d="M44.9,63.2c-0.3-0.8,0.2-1.9,1-2.2c0.8-0.3,1.9,0.1,2.3,0.9c0.1,0.2,0.2,0.4,0.1,0.6c0,0.5-0.5,0.9-0.9,1.1
		c-0.7,0.4-1.6,0.7-2.2,0.2C45.1,63.7,45,63.4,44.9,63.2"/>
	<path class="st0" d="M41,60.3c-0.8,0.4-1.7,0.1-2.3-0.5c-0.6-0.6-0.8-1.5-0.8-2.4c0-0.9,0.4-1.8,1.1-2.4c0.5-0.4,1.2-0.6,1.9-0.6
		c-0.1,0.8-0.9,1.3-1.3,2c-0.4,0.7-0.4,1.5,0,2.2c0.4,0.7,1.1,1.1,1.8,1.2C41.2,60,41.1,60.2,41,60.3"/>
	<path class="st0" d="M59.4,38.6c-0.2,0.1-0.5,0.3-0.7,0.2c-0.4-0.2-0.3-0.8,0-1.2c2.2-3.2,5.9-4.9,9.5-6.3c1.7-0.6,3.6-1.2,5.2-0.4
		c0.3,0.1,0.6,0.4,0.6,0.7c0,0.3-0.4,0.6-0.7,0.7c-3.9,1.6-8.6,1.7-11.8,4.5C60.8,37.3,60.2,38.1,59.4,38.6"/>
	<path class="st0" d="M94.5,34.8c0.3,0.3,0.5,0.7,0.6,1.1c0.1,0.8-0.2,1.6-0.9,2c-0.3,0.2-0.7,0.3-1,0.4c-1.8,0.5-3.7,0.7-5.6,0.6
		c-0.6,0-1.2-0.1-1.6-0.4c-0.5-0.3-0.9-0.9-0.7-1.4c0.1-0.3,0.3-0.6,0.6-0.8c0.8-0.8,1.8-1.3,2.9-1.8c1-0.4,2-0.8,3-0.8
		C92.7,33.7,93.8,34,94.5,34.8 M94,36.5c-0.1-0.6-0.4-1.1-0.9-1.4c-0.2-0.2-0.5-0.3-0.8-0.2c-0.3,0-0.6,0.3-0.9,0.5
		c0.4,0.7,0.5,1.6,0.4,2.4c0.5,0.1,1.1,0.1,1.5-0.1C93.7,37.4,94,36.9,94,36.5 M86.7,37.7c0.6,0.3,1.5,0.5,1.9-0.1
		c0.2-0.3,0.2-0.8,0.1-1.1c-0.3-0.3-0.9-0.3-1.3-0.1c-0.4,0.2-0.7,0.6-0.9,1C86.6,37.4,86.7,37.6,86.7,37.7"/>
	<path class="st0" d="M64.6,41.2c0.5-0.9,1.2-1.6,2.1-2.1c1.4-0.9,3.1-1.2,4.8-1.5c0.4-0.1,0.8-0.1,1.2-0.1c0.7,0,1.3,0.3,1.9,0.7
		c0.8,0.6,1.6,1.5,1.3,2.5c-0.2,0.5-0.7,0.9-1.2,1.1c-0.8,0.4-1.6,0.7-2.4,1c-1.3,0.3-2.6,0.5-3.9,0.6c-1.4,0.1-2.7,0.2-4.1,0
		C63.9,42.6,64.2,41.9,64.6,41.2 M72.6,41c-0.1,0.1-0.2,0.2-0.3,0.3c0.5,0.1,1.1,0.2,1.6-0.1c0.5-0.2,0.8-0.8,0.7-1.3
		c-0.1-0.4-0.4-0.6-0.7-0.9c-0.3-0.2-0.5-0.4-0.8-0.5c-0.3-0.1-0.7,0-0.9,0.3C72.2,39.6,72.4,40.3,72.6,41 M67.6,40.1
		c-0.1,0-0.3,0-0.4,0c-1,0.2-1.6,1.2-1.9,2.2c0.7,0.3,1.5,0.4,2.1,0c0.6-0.4,1-1.3,0.5-1.9C67.9,40.3,67.8,40.2,67.6,40.1"/>
	<path class="st0" d="M113,97.3c0.4,0.6,0.7,1.3,1,2c1.8,4.8,3.6,9.6,5.4,14.4c0.6,1.7,1.1,3.9-0.3,5c-2.5,2-5,3.9-7.5,5.9
		c-0.5,0.4-1,0.8-1.3,1.3c-0.3,0.4-0.3,1-0.4,1.5c-0.2,0.9-0.3,1.8-0.5,2.7c-0.1,0.7-0.2,1.5,0.1,2.1c3.2,6.6,5,13.8,5.1,21.1
		c0,0.5-0.7,0.6-1.1,0.3c-0.3-0.3-0.4-0.8-0.4-1.3c-0.3-6.4-1.8-12.7-4.3-18.5c-0.3-0.1-0.5,0.3-0.5,0.6c-1.5,5.7-2.5,11.5-3.1,17.4
		c-0.1,0.6-0.1,1.1-0.4,1.6c-0.3,0.5-0.9,0.8-1.4,0.6c1.4-9.5,3.2-18.9,5.6-28.3c0.2-0.8,0.9-1.4,1.6-1.9c2.5-2,5-3.9,7.5-5.9
		c1-0.7,0.6-2.2,0.2-3.3c-1.7-4.7-3.5-9.5-5.2-14.2c-0.3-0.8-0.6-1.6-1.1-2.2c-0.5-0.6-1.1-1-1.6-1.4c-3.3-2.4-6.8-4.4-10.5-6.2
		c-1-0.5-2.2-1.2-2.2-2.3c4.6,2.1,9,4.5,13.1,7.2C111.6,95.9,112.4,96.5,113,97.3"/>
</g>
</svg>
