<?xml version="1.0" encoding="utf-8"?>
<!-- Generator: Adobe Illustrator 19.2.0, SVG Export Plug-In . SVG Version: 6.00 Build 0)  -->
<svg version="1.1" id="Layer_1" xmlns="http://www.w3.org/2000/svg" xmlns:xlink="http://www.w3.org/1999/xlink" x="0px" y="0px"
	 viewBox="0 0 120 102.4" style="enable-background:new 0 0 120 102.4;" xml:space="preserve">
<style type="text/css">
	.st0{fill:#8BC34A;}
</style>
<g id="allergy-boy">
	<path class="st0" d="M82.1,41.6c0.4-0.5,1.2-0.3,1.8-0.1c2.6,0.9,5.3,1.5,8,1.8c0.5,0.1,1.1,0.2,1.1,0.7s-0.6,0.6-1.1,0.6
		c-1.8,0-3.5-0.5-5.2-1c-0.9-0.2-1.8-0.5-2.7-0.8c-0.7-0.2-1.3-0.4-1.9-0.7C82.1,42.1,82.1,41.9,82.1,41.6"/>
	<path class="st0" d="M81.5,44.7c0.7-0.3,1.4-0.4,2.2-0.4c0.7,0,1.4,0.2,2.1,0.3c0.4,0.1,0.7,0.1,1.1,0.3c0.6,0.2,1.2,0.6,1.7,1.1
		c0.4,0.5,0.8,1,0.8,1.7c0,0.6-0.3,1.3-0.9,1.5c-0.7,0.2-1.4,0.2-2.1,0.1c-1.3-0.2-2.6-0.6-3.9-1.2c-1-0.5-2.1-1.2-2.3-2.3
		C80.5,45.3,80.9,44.9,81.5,44.7 M87.1,46.3c-0.1-0.1-0.2-0.1-0.3-0.1c-0.1,0.3-0.2,0.6-0.4,0.9c0.2,0.6,0.9,0.9,1.5,0.6
		c0-0.4-0.1-0.7-0.1-1.1c-0.2-0.1-0.4-0.1-0.6-0.1C87.1,46.5,87.1,46.4,87.1,46.3 M83.7,46.5c-0.2-0.3-0.3-0.6-0.5-1
		c-0.3,0.1-0.7,0.1-1,0.2c-0.1,0.2-0.1,0.4,0,0.6C82.4,46.8,83.3,46.9,83.7,46.5"/>
	<path class="st0" d="M119.5,90.2c-0.1-2-0.2-4.2-1.2-6c-2.9-5.2-11.2-4.9-14.7-9.8c-1.2-1.7-1.7-3.8-1.3-5.8
		c0.3-1.6,1.1-3.1,1.4-4.7c0.3-1.7-0.2-3.6-1.7-4.3c2-4.7,9.2-4.3,12.3-8.3c2.1-2.7,1.8-6.5,1-9.8c-0.8-3.3-2-6.7-1.3-10
		c0.7-3.6,3.6-6.8,3.1-10.4c-0.5-3.4-3.7-5.5-5.7-8.3c-1.3-1.8-2.1-4-3.3-5.9c-4-6.2-13.3-8.2-19.6-4.3c-3.9-3.7-10.3-3-15-0.1
		c-1.5,0.8-3.2,1.9-4,3.2c-3,3-5.5,6.7-8.7,10.1c-2.8,3.5-3.9,8.1-3.8,12.6c0.1,4.5,1.3,8.9,2.4,13.2c0.5-2.5,0.5-5.2,0.1-7.8
		c4-0.2,8.4-0.6,11.5-3.3c2.3-2,5.8-0.9,8.8-1c3.4-0.1,6.6-1.9,9-4.3c2.5-2.4,4.2-5.4,6-8.3c2.9,4.7,3.7,10.7,2.1,16.1
		c-0.8,2.4-2,4.8-1.8,7.3c0.1,1.3,0.6,2.6,1,3.8c0.9,2.3,1.7,4.7,2.6,7c0-1.5,0.5-3,1.3-4.2c0.8,1.6,0.8,3.7,0,5.4
		c1.9,0.1,2.7-2.7,1.7-4.3c-0.6-0.9-1.5-1.7-2.3-2.4c0.3-0.1,0.5-0.3,0.7-0.5c0.2,0.2,0.4,0.4,0.7,0.4c0.3-0.3,0.6-0.5,1-0.6
		c0.9,0.1,1.8,0.2,2.6,0.4c0.7,0.8,0.6,2,0.4,2.9c-0.8,3.1-2.7,5.9-5.3,7.7c-0.3,0.2-0.5,0.3-0.7,0.6c0,0,0,0,0,0.1
		c-0.2,0.1-0.3,0.1-0.5,0.2c-0.1,0-0.1,0.1-0.2,0.1c0,0,0,0,0-0.1c-0.2,0-0.3,0-0.4,0l0-0.1c0-0.2,0.1-0.4,0.1-0.7c0,0,0,0,0,0
		c0,0,0,0,0-0.1c0.1-0.3,0.1-0.6,0.2-0.8c0,0,0,0,0-0.1c0,0,0,0,0-0.1c0.3-0.7,0.6-1.3,0.6-2c-0.5-0.1-1,0.1-1.4,0.5
		c-0.3,0.3-0.5,0.8-0.6,1.3c0,0.2,0,0.4,0,0.6c-0.2,0.4-0.1,0.9,0,1.3c0,0,0,0,0,0c-2.5-0.6-4.5-2.8-6.7-4.4
		c-3.7-2.7-8.7-3.6-13.1-2.4c-1.5,0.4-3.1,1.1-4.7,0.8c-1.6-0.3-2.9-2.2-1.9-3.5c1.7-2.1,2-5.2,0.8-7.6c-1.2-2.4-3.9-4-6.6-3.9
		c1.9,1.6,3.7,3.1,5.6,4.7c-1.4-0.1-2.6-1-3.9-1.3c-1.3-0.4-3.2,0.4-3,1.8c0.1,0.6,0.6,1.1,1.2,1.5c1.6,1.1,3.4,1.9,5.3,2.2
		c-0.4,1.8-3.1,1.4-4.8,0.6c-2.9-1.5-5.9-2.9-8.8-4.4c-1.3-0.7-2.9-1.4-4.3-0.8c-0.9,0.3-1.6,1.2-2.1,2c-3.5,5.4-5.6,11.7-6.1,18.1
		c-2.6,2.4-6.3,3.4-9.8,3.4s-7-1-10.4-1.9c-5.8-1.6-11.7-3.2-17.3-5.6C4.2,54.9,2.2,54,0,53.7c5.5,5.9,14.7,6,22.5,8.3
		c3,0.9,6,2.3,9.1,2.6c10.1,1.1,19.2-8.6,29.2-6.9c-0.3,1.5,1.1,3.1,2.6,3c-0.7-0.9-1.4-1.9-1.4-3c0.1-1.1,1.3-2.2,2.3-1.7
		c0.4,1.7,1.6,3.2,3.1,4c-4,2.1-7.9,4.1-11.9,6.2c-0.7,0.3-1.4,0.7-1.8,1.4c-0.4,0.7-0.2,1.7,0.5,2c0.7-1.6,2.3-2.8,4-3.1
		c-0.1,1.1,0.1,2.2,0.4,3.2c1-0.5,1.5-1.7,1.2-2.8c1,1.2,2.9,0.3,4.2-0.6c4.5-3.3,8.4-7.5,11.4-12.2c1,0,1.8,0.9,1.9,1.8
		c0.1,0.9-0.2,1.8-0.6,2.7c-2.2,5.2-5.7,9.8-10,13.4c6.4-3.1,12.4-7,18.3-11c0.2,1.4,0.9,2.7,1.9,3.7c-5.7,4.1-11.4,8.1-17.1,12.1
		c6-2.3,11.4-6,16.8-9.7c-3.6,4.3-8.2,7.6-13.4,9.6c-9.9,3.8-20.8,2.6-31.3,1.4c-4.5-0.6-9-1.1-13.3-2.4c-9-2.8-18.5-4.1-27.9-3.8
		c0.2,1,1.3,1.2,2.3,1.3c12.2,0.8,24.3,3.1,36.1,6.7c-0.4,7.6-0.3,15.1,0.2,22.6c2.6-5.3,0.9-11.6,0.8-17.5c0-1.6,0.1-3.4,1.2-4.7
		c1-1.2,3.3-1.6,4.3-0.3c-0.8,4.3,0.3,8.8,1.4,13.1c0.6,2.2,1.2,4.5,1.8,6.7c0.3,0.9,0.7,2.1,1.7,2.2c0-7.6-5.6-15.2-2.9-22.3
		c4.1,0.5,8.1,1,12.2,1.5c0.8,0.1,1.7,0.3,2.2,0.9c3.7,4.9,9.4,8.1,15.5,8.7c6.1,0.6,12.4-1.5,16.9-5.6c1.2,1,2.5,2.1,4,2.4
		c1.5,0.3,3.4-0.6,3.6-2.1c0.3-3.2,0.7-6.5,1.1-9.7c3.3,3,7.2,5.2,11.5,6.5c-4.4,5.5-7.3,12.2-8.3,19.2c0.5,0.3,1.2,0.3,1.7,0
		c0.7-6.5,3.4-12.8,7.7-17.8c3.5,4.3,2.2,10.5,2.5,16c0,1.1,1.2,2.7,1.9,1.8C119.9,97.7,119.7,94,119.5,90.2z M91.8,19.5
		c-1.5,2.2-3.1,4.4-5.2,6.1c-4,3.1-9.9,3.6-14.4,1.4c-0.2-0.1-0.4-0.3-0.6-0.3c-0.4-0.2-0.8-0.5-1.2-0.8c2.8,0.8,5.6,1.6,8.5,1.5
		c2.9-0.1,5.9-1.1,7.7-3.3c0.1-0.1,0.3-0.3,0.4-0.5c0.2,0,0.3-0.1,0.5-0.2c1.4-1,2.6-2.3,3.5-3.7c0.1,0,0.1,0,0.2-0.1
		c0.4-0.2,0.7-0.4,1-0.7C92.1,19.1,91.9,19.3,91.8,19.5z M66,41.2c-0.1,0.1-0.2,0-0.3,0c-0.4-0.1-0.7-0.4-0.8-0.7
		c-0.1-0.3,0.1-0.8,0.5-0.8c0.4-0.1,0.7,0.2,0.8,0.6c0.1,0.1,0.2,0.2,0.3,0.3C66.2,40.5,66.2,41,66,41.2z M69.3,41.8
		c0.4-0.1,0.9,0,1.2,0.2c0.2,0.4-0.2,1.1-0.7,1C69.3,42.9,69.1,42.2,69.3,41.8z M66.1,57.6c-0.2-0.8-0.4-1.5-0.6-2.3
		c0.6-0.6,1.5-1.2,2.4-1.5c0.3-0.2,0.6-0.2,0.9-0.1c0.4,0.2,0.5,0.7,0.5,1.1c0,0.7-0.1,1.4-0.4,2c-0.1,0.3-0.2,0.5-0.4,0.7
		C67.9,58.1,66.9,57.9,66.1,57.6z M66.1,63.2c-1.5,0.8-2.9,1.7-4.3,2.7c-0.5,0.3-1.2,0.4-1.8,0.4c-0.1,0.1-0.2,0.3-0.3,0.4
		c-0.1-0.4-0.2-0.8-0.3-1.3c1.7-0.6,3.4-1.4,5-2.4c0.9-0.4,1.7-0.8,2.4-1.4c0.4-0.3,0.9-0.7,1.4-0.6C68.1,62.1,67,62.7,66.1,63.2z
		 M76.7,53.3c0.2-0.5,0.5-1.1,1.1-1.3c0.5-0.3,1.3,0,1.4,0.6c0,0.2-0.1,0.3-0.1,0.5c-0.2,0.4-0.3,0.9-0.6,1.1
		C77.8,54.4,77.3,53.7,76.7,53.3z M86.2,61.4c-0.1-0.5,0-1.1,0.4-1.3C86.8,60,87,60,87.2,60c0.7,0.1,1.7,0.4,1.7,1.2
		c0,0.5-0.4,1-0.4,1.5c0,0.4-0.4,0.6-0.7,0.6c-0.4,0-0.7-0.3-0.9-0.5C86.6,62.4,86.3,61.9,86.2,61.4z M88.8,65.5
		c0,0.5-0.2,0.9-0.5,1.3c-0.2,0.3-0.5,0.5-0.8,0.4c-0.4-0.2-0.5-0.7-0.4-1.1c0.1-0.4,0.3-0.8,0.7-1C88.2,64.9,88.7,65.1,88.8,65.5z
		 M84.1,88.8c-3.2,0.6-6.5,0.3-9.7-0.4c-4.3-1-8.7-3.1-10.7-6.9c-0.1-0.1-0.2-0.3-0.2-0.5c-0.1-0.7,0.8-0.9,1.4-1
		c4.5-0.6,8.9-2,12.9-4.2c0.6-0.3,1.4-0.6,1.9-0.2c3.9,3.3,8.2,6.2,12.8,8.6C90.4,86.7,87.3,88.2,84.1,88.8z M100.9,70.6
		c0.1,2.9,0.5,5.8,0.3,8.7c-0.2,2.1-0.7,4.2-1.5,6.1c-0.1,0.2-0.2,0.5-0.5,0.6c-0.2,0-0.5-0.1-0.7-0.2c-6-3-11.7-6.5-17.1-10.4
		c-0.5-0.3-0.9-1-0.5-1.3c2.7-2.3,5.5-4.5,8.2-6.7c0.5-0.4,1-0.8,1-1.4c0-0.6-0.4-1.1-0.7-1.6c-0.2-0.5-0.4-1.3,0.1-1.6
		c1-0.7,0.9-2.3,0.1-3.2c-0.8-0.8-2.1-1-3.3-0.8c-1.1,0.2-2.2,0.9-3.2,1.5c-3.3,2.1-6.4,4.2-9.5,6.5c0.4-0.7,0.8-1.5,1.2-2.2
		c1.9-3.6,3.6-7.3,5.1-11.1c0.2-0.4,0.3-0.8,0.3-1.2c-0.1-1-1.3-1.7-2.3-1.5c-1,0.2-1.9,0.9-2.6,1.6c-1.6,1.7-3.1,3.5-4.3,5.4
		c-0.7,1-1.4,2.2-2.6,2.3c0.4-0.6,0.7-1.2,0.8-1.8c0.7-1.2,1.3-2.5,1.1-3.9c-0.2-1.4-1.8-2.5-3-1.8c-4,2.6-8.7,4.2-13.5,4.4
		c-3,0.2-5.6,2.3-8.5,2.6c-1.1-2.4,0-5.2,1-7.6c1.1-2.6,2.2-5.2,3.3-7.8c0.5-1,0.9-2.1,1.7-2.8s2.1-1.1,3-0.5
		c4,2.4,8.2,4.3,12.6,5.7c0.8,0.3,1.8,0.6,2,1.5c0.2,1.2,0.6,2.4,1.5,3.3c0.8,0.9,2.3,1.2,3.3,0.5c2.6-2,6.2-2.3,9.3-1.5
		c3.2,0.8,6,2.5,8.6,4.4c2,1.4,3.9,3,5.9,4.3c0.2,0.3,0.5,0.6,0.9,0.5c0.4,0.2,0.8,0.5,1.2,0.7c1.1,0.6,2.2,1.1,3.1,1.9
		C101.2,64.7,100.8,67.7,100.9,70.6z"/>
</g>
</svg>
