<?xml version="1.0" encoding="utf-8"?>
<!-- Generator: Adobe Illustrator 19.2.0, SVG Export Plug-In . SVG Version: 6.00 Build 0)  -->
<svg version="1.1" id="Layer_1" xmlns="http://www.w3.org/2000/svg" xmlns:xlink="http://www.w3.org/1999/xlink" x="0px" y="0px"
	 viewBox="0 0 150.3 260.1" style="enable-background:new 0 0 150.3 260.1;" xml:space="preserve">
<style type="text/css">
	.st0{fill:#03A9F4;}
</style>
<g id="angry-child">
	<path class="st0" d="M144.8,173.3c0.4-0.7,0.7-1.5,1.1-2.2c0.1-0.3,0.2-0.6,0.3-0.9c0.8-1.5,1.2-2.9,1.2-5.4
		c0-4.7,2.5-9.2,2.8-14.1c0.2-4.5,0.4-9.8-1.3-13.9c-0.6-2.4-1.5-4.8-3-6.6c-0.1-0.5-0.3-0.9-0.6-1.3c-0.9-1-1.8-2.1-2.9-3
		c-1.4-1.2-2.9-2.2-4.3-3.4c-2.6-2.3-4.9-4.9-7.5-7.2c-1.8-1.6-3.5-3.5-5.9-4.3c-0.3-0.1-0.6-0.5-0.8-0.8c-0.4-0.8-1-1.4-2-1.8
		c-1.9-0.8-2.9-3-1.9-4.6c0.8-1.4,1.2-2.9,1.3-4.5c0-0.8,0.4-1.6,0.8-2.3c3.2-5.6,5.2-11.6,6.8-17.8c0.7-2.5,1.3-5.1,1.9-7.6
		c0.4-1.6,0.9-3.2,1.2-4.8c0.8-3.5-0.2-6.8-0.7-10.2c-0.4-2.3-0.9-4.5-1.4-6.8c-0.6-3.1-1-6.2-1.7-9.3c-0.7-3.2-1.7-6.3-2.5-9.4
		c-0.2-0.7-0.4-1.5-0.7-2.2c-0.7-1.6-1.4-3.1-2.1-4.7c0-0.1-0.1-0.1-0.2-0.1c-2.1-1-2.6-3.1-3.5-4.9c-1.1-2.2-2-4.7-4.1-6.3
		c-1.4-1.1-2.7-2.2-4-3.3c-2.4-2-4.9-3.9-7.8-5.2c-2-0.9-4.1-1.6-6.1-2.4c-3.2-1.4-6.6-1.8-10-2.1c-3.2-0.2-6.3,0.3-9.4,1.2
		c-2.8,0.8-5.7,1.8-8.7,1.6c-0.2,0-0.4,0-0.5,0.1c-1.6,0.7-3.2,1.4-4.7,2.3c-2,1.4-3.8,3.2-5.9,4.5c-3.4,2.2-5.8,5.4-8.7,8.2
		c-0.7,0.7-1.5,1.4-1.9,2.3c-1.6,3.6-3.7,7-4.5,11c-0.7,3.3-2,6.5-3.1,9.8c-1.2,3.5-1.7,7.2-2.1,10.9c-0.2,2-0.4,3.9-0.8,5.8
		c-0.5,2.5-0.8,4.9-0.5,7.4c0.2,1.8,0.2,3.7-0.1,5.4c-0.7,4-1.7,7.9-2.5,11.9c-0.3,1.3-0.8,2.7-0.8,4c0,3.3,0.3,6.5,0.5,9.8
		c0,1.1-0.1,2.3-0.1,3.4c0,1-0.6,1.1-1.4,1.1c-3.2,0.3-6.3,0.6-9.2,2.1c-2.2,1.1-4,2.5-5.3,4.7c-0.7,1.2-1.3,2.3-2,3.4
		c-1.1,1.8-1.9,3.7-2,5.8c-0.1,4-0.2,7.9-0.2,11.9c0,4-0.1,8,0,12c0,1.8-0.4,3.4-1.2,4.9c-0.5,1.1-1,2.4-1.2,3.7
		c-0.4,2.5-0.6,5-0.8,7.5c-0.2,2.3-0.3,4.6,1.3,6.6c0.7,0.9,1.6,1.7,2.4,2.5c0.5,0.5,0.8,0.9,0.6,1.6c-0.2,0.7-0.1,1.5-0.1,2.2
		c0,1.5,0,3.1,0,4.7c-1.3-0.4-2.3-0.9-3.4-1.1c-1.2-0.2-2.4-0.2-3.6-0.2c-2.1,0-4.4,2.2-4.5,4.3c-0.1,2.3,1.1,3.9,2.7,5.2
		c-2.6,4.1-2.8,5.6-0.2,8c-0.3,0.6-0.7,1.1-0.9,1.7c-0.6,1.9-1.2,3.8,0.3,5.6c0.5,0.6,0.6,1.1,0.4,1.9c-0.8,2.6-0.1,4.8,1.8,6.7
		c1.4,1.4,3,2.3,4.8,3.1c0.8,0.4,1.2,1,1,1.9c-0.9,3.1-0.9,6.3-1.1,9.5c-0.1,1.7-0.3,3.5-0.6,5.2c-0.4,2.3-0.9,4.5-1.3,6.8
		c-0.5,2.6-0.7,5.4-1.6,7.9c-1.1,3.4-2.7,6.6-4.1,9.9c-1.2,2.7-2,5.7-4,8.1c-0.2,0.3-0.2,1.1-0.4,1.1h133.1c-0.1-1-0.1-1.8-0.2-2.7
		c-0.1-1,0-2.1-0.3-3c-1.4-3.6-3.9-6.2-7.6-7.6c0.1-0.4,0.2-0.9,0.4-1.3c0.7-1.8,1.5-3.5,2.1-5.3c0.4-1.1,0.6-2.2,0.7-3.4
		c0.2-1.2,0.2-2.3-0.5-3.4c-0.7-1.2-1.4-2.4-2.2-3.6c-1-1.6-1.1-2,0-3.6c0.2-0.3,0.4-0.7,0.6-1.1c1-2.1,1.8-4.2,2.9-6.2
		c2.1-4,4.2-8,7.2-11.5c1-1.1,2.1-1.8,3.6-1.9c1.2-0.1,2.3-0.2,3.4-0.4c2.5-0.5,4.3-1.9,4.8-4.5c0.2-1.2,0.1-2.4,0.2-3.6
		c0.1-0.5,0.2-1.2,0.5-1.5c1.6-1.6,1.3-3.5,0.9-5.3c-0.3-1-1.2-2-1.1-3c0.1-1.6,0.6-3.2,0.4-4.9c-0.1-0.7,0.5-1.5,0.7-2.3
		c0.2-1.1,0.2-2.1-0.7-3c-1.3-1.5-2.9-2.5-4.6-3.3C144.6,173.7,144.7,173.5,144.8,173.3z M119.4,173.1c-0.1,0.4,0,0.9-0.3,1.2
		c-1.3,1.8-2.6,3.6-4.1,5.2c-1.8,1.9-4,2.9-6.7,3c-1.4,0-2.8,0.6-4,0.9c0.8-2.3,1.8-4.7,2.6-7.2c0.4-1.3,1.3-2,2.4-2.1
		c2.5-0.2,4.9-1,7.4-0.5c0.4,0.1,0.8-0.3,1.2-0.4C118.5,173,119,173.1,119.4,173.1z M107,103.1c2.1,1.3,4.1,2.9,6.1,4.3
		c0.8,0.5,1.5,1,2.3,1.6c0.6,0.4,0.7,0.9,0.5,1.6c-1.4,3.3-3,6.5-5.1,9.5c-1.5,2-2.7,4.1-4.3,6.1c-3.1,3.9-6.2,7.7-9.4,11.5
		c-1.9,2.2-3.1,4.7-4.3,7.3c-1.2,2.6-2.3,5.2-3.6,7.8c-0.7,1.5-3.6,2.3-5.7,2.2c-2.8-0.1-3.4-2.4-4.4-4.2c-2-3.6-3.7-7.5-5.7-11.1
		c-1.4-2.6-3.3-5.1-4.8-7.7c-1-1.7-1.8-3.5-2.6-5.2c-2-4.2-4-8.3-5.8-12.6c-1.2-3-2.2-6.1-2.9-9.3c-0.6-3-0.6-6,0.4-9
		c0.1-0.3,0.4-0.6,0.6-1c0.5,0.4,0.9,0.9,1.4,1.3c3.1,2.8,6.1,5.7,9.3,8.3c2.1,1.7,4.6,2.6,7.2,3.2c2.5,0.5,5.1,0.9,7.6,1.3
		c2.4,0.3,4.5-0.9,6.7-1.4c2.1-0.6,4.2-1.2,6.3-1.9c2.9-0.9,5.2-2.8,7.5-4.6c0.1-0.1,0.2-0.2,0.5-0.4
		C104.6,102.3,106,102.5,107,103.1z M113,155.1c-0.5,2.9-1.1,5.7-1.7,8.6c-0.1,0.3-0.1,0.7-0.3,1c-1,1.7-1.3,3.5-1.6,5.4
		c-0.1,0.7-0.4,1.3-1.2,1.1c-0.4-0.1-0.6-0.7-1-1.1c0.5-1.8,1-3.4,1.5-5c0.6-2.3,1.2-4.6,1.8-6.9c0.3-1.2,0.7-2.5,1.1-3.7
		c0.1-0.3,0.7-0.4,1-0.5C112.7,154.4,113,154.8,113,155.1z M52.3,37.5c0.1-2.2,0.5-4.4,1.2-6.5c0.4-1.3,1.6-2.4,2.5-3.6
		c1.1-1.5,2.4-2.2,4.4-2.1c3.3,0.1,6.7-0.3,10-0.1c3.7,0.2,7.3,1,11,1.4c1,0.1,2.2-0.1,3.1-0.5c2.7-1.4,5.5-2,8.6-1.8
		c3.2,0.2,6.2-0.6,9.3-1.1c1.3-0.2,2.7-0.3,4.3-0.4c0,2.6,0.2,5,0.1,7.5c-0.1,3.3,0.6,6.4,2.6,8.9c1.9,2.3,3.3,4.8,4.4,7.5
		c0.6,1.3,0.9,2.7,1.4,4c0.7,1.8,1.8,3.5,2.1,5.4c0.5,3.3,1.6,6.5,0.8,9.9c-0.1,0.5-0.2,1.1-0.5,1.6c-1.1,2.1-1.3,4.5-1.6,6.8
		c-0.7,4.6-1.1,9.3-3,13.7c-0.4,0.8-0.8,1.6-1.4,2.4c-1.1,1.4-2.2,2.9-3.4,4.1c-2.3,2.4-4.5,4.9-7.2,6.9c-3.1,2.2-6.7,3.1-10.3,4.2
		c-1.1,0.3-2.2,0.6-3.3,0.9c-2.4,0.8-4.7,0.6-7.1,0.1c-3.8-0.9-7.6-1.9-10.8-4.3c-1.2-0.9-2.3-1.7-3.4-2.7c-2.2-2.1-4.4-4.2-6.6-6.3
		c-0.6-0.6-1.2-1-1.8-1.6c-0.3-0.3-0.5-0.6-0.7-0.9c-1.5-3.4-3.1-6.8-3.5-10.6c-0.2-2.2-0.4-4.4,0.8-6.4c1.6-2.8,1-5.9,1-8.8
		c0-2.9,0-5.7-0.3-8.6c-0.2-2.4-0.6-4.8-1.4-7C52.1,45.5,52.1,41.5,52.3,37.5z M45.9,138.3c0.3-1,0.3-2,0.4-3c0-0.6,0.3-1,0.9-1
		c0.7,0,0.7,0.5,0.8,1c0.7,2.3-0.5,4.5-0.7,6.7c-0.2,3.2-0.2,6.5-0.2,9.7c0,0.3,0,0.7,0,1.1c-1.2-0.3-1.7-1-1.9-2.4
		C44.8,146.2,44.7,142.2,45.9,138.3z M21.2,210.6c-1-0.1-2-0.1-3-0.1c-1.6,0-3-0.3-4.3-1.4c-0.9-0.8-2.1-1.2-3.1-1.9
		c-1.1-0.8-2.3-1.7-3.2-2.7c-1.6-1.7-1-3.7-0.3-5.7c1,0.4,2,0.7,3,1.1c0.6,0.2,1.1,0.1,1.2-0.4c0.1-0.3-0.3-0.9-0.6-1
		c-1.1-0.4-2.3-0.7-3.5-0.9c-0.9-0.2-1.7-1-1.7-2c0-1.5,0.5-2.9,1.4-4c0.8,0.3,1.5,0.6,2.3,0.8c0.3,0.1,0.7-0.3,1-0.5
		c-0.2-0.3-0.4-0.7-0.7-0.9c-1.2-0.8-2.4-1.5-3.5-2.4c-0.4-0.3-0.7-1-0.6-1.3c0.3-1.1,0.8-2.2,1.3-3.1c0.4-0.6,2.4-0.7,3.4-0.2
		c0.4,0.2,0.8,0.5,1.2,0.5c0.3,0,0.8-0.2,0.9-0.5c0.1-0.2-0.2-0.8-0.4-0.9c-1.2-0.5-2.5-1-3.7-1.3c-1.6-0.4-3.3-2.1-3.6-3.7
		c-0.2-1.3,1.2-3.2,2.7-3.3c1.4-0.1,2.9,0.1,4.2,0.4c1.7,0.4,3.4,1,5,1.6c0.3,0.1,0.6,0.7,0.7,1c0.5,2.7,0.8,5.5,1.3,8.2
		c0.2,1.1,0.6,2.1,1.1,3.1c0.9,1.7,1.3,3.5,1.7,5.4c0.4,2,1.1,3.9,1.9,5.7c0.7,1.8,1.4,3.6,1.7,5.5c0.2,1.7,0.5,3.4,0.9,5.4
		C24.4,211,22.8,210.8,21.2,210.6z M132.4,209.6c-1.7,2.8-3.4,5.7-5,8.6c-1.1,2-1.9,4.1-2.8,6.1c-0.9,1.8-2.1,3.3-3.7,4.5
		c-0.7,0.5-1.5,1.1-2,1.8c-1.2,1.4-2.6,2.2-4.4,2.2c-3,0.1-6,0-8.9-0.8c-2.3-0.6-4.6-1.3-6.9-1.8c-1.7-0.3-3.4-0.2-5.1-0.5
		c-1.9-0.4-3.8,0.1-5.6-0.8c-1-0.5-2.3-0.3-3.5-0.4l0-0.3c0.3,0,0.5,0.1,0.8,0.1c0-0.1-0.1-0.2-0.1-0.2c-2.1-0.5-4.2-1-6.3-1.7
		c-1-0.3-1.9-0.9-2.9-1.3c-0.1-0.1-0.3,0-0.5,0c-1.1-0.3-2.2-0.5-3.2-0.9c-0.6-0.3-0.7-1.2-1.8-0.9c-0.7,0.2-1.7-0.6-2.6-0.8
		c-0.9-0.2-1-0.7-0.6-1.4c0.1-0.2,0.3-0.5,0.6-0.5c3.7-0.8,7.4-1.7,11.2-2.3c4.5-0.7,8.5-2.7,12.8-3.8c5.4-1.4,10.8-2.8,16.3-3.9
		c3.7-0.7,7.2-1.7,10.6-3.3c1.9-0.9,3.9-1.1,6.1-0.5c2.7,0.8,5.6,0.7,8.4,0.7c0.2,0,0.5,0,0.9,0
		C133.3,208.3,132.8,208.9,132.4,209.6z M148,180c-0.3,1.2-0.3,2.9-2.4,2.7c-0.2,0-0.5,0.4-0.5,0.7c0,0.1,0.3,0.5,0.5,0.5
		c0.3,0.1,0.6,0.1,0.9,0.1c1.1-0.1,1.3,0.1,0.9,1.2c-0.2,0.5-0.4,1-0.4,1.5c0,0.8,0.2,1.7-1.1,1.8c-0.1,0-0.4,0.6-0.3,0.6
		c0.2,0.2,0.5,0.5,0.8,0.5c0.4,0,0.7-0.2,1.2-0.3c0.8,1.3,1.1,2.7,0.7,4.2c-0.3,1-1.1,1.4-2.1,1.3c-0.3,0-0.7,0.4-1,0.6
		c0.3,0.2,0.6,0.4,0.9,0.6c0.2,0.2,0.6,0.3,0.6,0.5c0,1.9,0.3,3.8-0.9,5.5c-0.3,0.4-0.7,1-1.2,1.1c-1.4,0.4-2.9,0.6-4.4,1
		c-1,0.2-2,0.5-3,0.7c-1.5,0.3-2.9,0.9-4.4,0.9c-2.6,0-5.3-0.1-7.9-0.6c-2.6-0.5-5-0.4-7.4,0.7c-3.4,1.6-7,2.3-10.6,3.1
		c-7.7,1.8-15.4,3.5-22.9,6c-6.1,2.1-12.5,3.3-19.1,3.8c-2.1,0.2-4.1,1-6.2,1.2c-3.1,0.2-6.3,0.2-9.4,0.2c-1.4,0-2.8,0-4.2-0.2
		c-2.8-0.4-5.6-0.9-8.4-1.4c-3.9-0.8-6.4-3.2-8-6.7c-0.6-1.4-1-2.9-1.2-4.5c-0.4-3-1.3-5.7-2.4-8.5c-0.9-2.2-1.4-4.6-2-6.9
		c-0.2-0.7-0.3-1.4-0.7-2c-1.5-2.6-2.2-5.5-2.6-8.5c-0.4-3-1-5.9-1.5-8.8c-0.1-0.8,0-1.6-0.1-2.4c-0.1-1.7-0.3-3.4-0.3-5
		c0-2.4-0.1-4.8,0.1-7.2c0.1-1.5,0.5-2.9,0.8-4.4c0.4-1.8,1.5-3,2.8-4.1c0.5-0.4,1.6-0.4,2.4-0.2c3,0.7,6,1.6,9.1,2.3
		c2.5,0.7,5.1,1.3,7.7,1.9c1.8,0.5,3.4,1.3,4.7,2.5c1.2,1.1,1.4,2.7,1.8,4.2c0.6,2.8,1.3,5.5,1.9,8.3c0.5,2.2,0.9,4.3,1.4,6.5
		c0.5,2.6,1,5.2,1.5,7.8c0.1,0.4,0.1,0.8,0.1,1.2c-0.1,0.1-0.2,0.2-0.3,0.3c-0.6-0.4-1.2-0.8-1.9-1.2c-1-0.5-2.1-1-3.2-1.5
		c-0.3-0.1-0.7,0-1,0.1c-0.3,0.1-0.6,0.5-0.6,0.8c0,0.3,0.4,0.7,0.7,0.7c1.4,0.2,2.4,0.9,3.5,1.7c0.9,0.7,2.2,0.9,3.3,1.3
		c2.3,0.9,4.8,1.1,7.3,1.1c2.6,0,5.3,0.2,7.9,0.4c3.4,0.2,6.8,0.5,10.2,0.8c4.7,0.5,9.3-0.5,13.9-1.2c3.5-0.6,7.1-1.1,10.6-1.8
		c2.8-0.5,5.5-1.3,8.3-2c1.1-0.3,2.1-0.5,3.2-0.7c0.4,0,0.9,0.3,1.1,0.7c0.4,0.7,0.7,1.5,0.9,2.2c0.2,0.6,0.6,1,1.3,0.8
		c0.7-0.3,0.4-0.8,0.2-1.3c-0.6-1.2-1.2-2.5-1.9-3.9c0.1-0.2,0.4-0.5,0.6-0.9c2.5-3.3,4.9-6.8,7.7-9.8c2.2-2.3,4.9-4.2,7.5-6.2
		c1.2-1,2.6-0.8,4-0.4c2.1,0.6,4.3,1.3,6.4,2c0.3,0.1,0.4,0.3,0.6,0.5c0,0.4-0.1,0.7-0.2,1.1c-0.3,0.2-0.5,0.4-0.6,0.8
		c-0.1,0.2-0.2,0.5-0.4,0.7c-1.6,1.4-3.4,2.4-5.9,1.3c-1.6-0.7-3.3-0.8-4.9,0c-0.5,0.2-1.1,0.6-0.7,1.3c0.3,0.6,0.9,0.3,1.5,0.2
		c1.3-0.1,2.7-0.4,3.8,0.1c1.9,0.9,3.9,1.4,5.8,2.1c0.2,0.1,0.4,0.2,0.7,0.3c0.1,0,0.2,0,0.3,0.1c0.1,0,0.1,0,0.2,0
		c0.1,0,0.2,0.1,0.3,0.1c1.9,0.6,3.7,1.6,5.2,3C148.1,178.4,148.2,179.2,148,180z"/>
	<path class="st0" d="M83.1,80.3c1.9,0.2,3.6-0.4,5.5-0.9c1.5-0.4,3.2-0.1,4.9-0.2c0,0,0.1,0,0.1,0c1.4,1.4,3.4,2.1,4.3,4.1
		c0.4,0.9,0.9,1.8,1.3,2.8c0.5,1.2-0.1,2.2-0.5,3.2c-1.1,2.5-3,4.1-5.5,5.4c-3.1,1.5-6.1,1.5-9.2,1c-1.1-0.2-2.3,0-3.4-0.1
		c-2-0.2-4.1-0.1-5.9-1.3c-0.5-0.3-1-0.7-1.2-1.1c-1.1-1.7-2.2-3.5-3.2-5.3c-0.2-0.4,0-1.3,0.3-1.7c2.6-3.1,5.9-5.1,9.9-5.8
		C81.3,80.2,82.2,80.3,83.1,80.3z M71.9,87.9c-0.1,0.1-0.1,0.1-0.2,0.2c0.6,1,1.3,1.9,1.8,2.9c1.1,2.2,2.9,3,5.2,3.1
		c1.8,0.1,3.6-0.1,5.3,0.3c3.5,0.7,6.7,0.3,9.8-1.3c2-1.1,3.2-2.7,3.8-4.9c-0.9,0.6-1.8,1.3-2.6,2c-1.4,1.2-2.9,2.2-4.8,2
		c-1.4-0.1-2.8-0.3-4.2-0.4c-2.7-0.1-5.5-0.3-8.2-0.2c-1.7,0-2.8-0.6-3.9-1.8c-0.5-0.5-0.9-1.1-1.4-1.6C72.3,88.1,72.1,88,71.9,87.9
		z M71.7,86.5c0,0.1,0.1,0.2,0.1,0.3c0.5-0.1,1-0.3,1.5-0.4c0.4-0.1,0.8-0.3,1.3-0.4c1.8-0.5,3.5-0.9,5.3-1.4
		c2.8-0.9,5.6-1.4,8.4-1.4c1,0,2-0.1,2.9-0.2c1.5-0.2,2.8,0.1,3.9,1.4c0.6,0.7,1.4,1.3,2.2,2c0.1-0.3,0.1-0.4,0.1-0.4
		c-0.3-2.7-2.8-3.7-4.4-5.4c-0.1-0.1-0.2,0-0.3,0c-1.7-0.1-3.4-0.2-5.1,0.6c-0.7,0.3-1.6,0.4-2.4,0.5c-1.8,0.1-3.5,0-5.3,0.3
		C76.7,82.2,74,84.1,71.7,86.5z M74.3,88.4c0.9,1.2,1.8,1.9,3.2,1.9c3.8,0.1,7.7,0.2,11.5,0.7c2.9,0.3,4.6-1.2,6.6-3.3
		c-1.6,0.1-2.9,0.1-4.1,0.2c-2.2,0.2-4.5,0.5-6.7,0.5C81.4,88.5,78,88.4,74.3,88.4z M95.2,86.8c0-0.1,0-0.3,0-0.4
		c-0.3-0.4-0.7-0.7-1-1.1c-0.8-1-1.8-1.3-3-1.1c-1.4,0.1-2.7,0.2-4.1,0.2c-0.5,0-0.9,0-1.4,0.1c-2.1,0.5-4.3,0.9-6.4,1.4
		c-1.3,0.3-2.6,0.8-3.9,1.2c0,0.2,0.1,0.3,0.1,0.5C82.1,87.3,88.7,87,95.2,86.8z"/>
	<path class="st0" d="M79.7,60c0.8,0.2,1.6,0.4,2.3,0.6c0.4,0.1,0.9,0,1.3,0.1c0.3,0.1,0.5,0.5,0.7,0.7c-0.3,0.1-0.7,0.5-1,0.4
		c-1.2-0.3-2.6,0.1-3.7-0.9c-0.1-0.1-0.5,0.1-0.8,0.2c-0.3,0.1-0.6,0.1-0.9,0.1c0-0.3,0-0.7,0.1-1c0-0.2,0.3-0.3,0.4-0.5
		c1.2-1.5,1.1-2.6-0.3-3.7c-2.5-1.8-5.1-3.2-8-4.2c-1.1-0.4-2.5,0-3.7,0.2c-1,0.2-2,0.7-3,0.9c-0.3,0.1-0.7-0.3-1-0.5
		c0.2-0.3,0.3-0.8,0.5-0.9c2.3-0.8,4.5-2.1,7-1.7c0.7,0.1,1.4,0.4,1.9,0.7c2.2,1.3,4.5,2.6,6.6,4.1c1,0.7,1.5,2,2.4,3.2
		c0.8,0.1,1.9,0.1,3.1,0.3c0.4,0.1,0.7,0.4,1.1,0.6c-0.4,0.1-0.8,0.4-1.1,0.4c-1,0-2-0.2-2.9-0.2c-0.3,0-0.7,0.3-1,0.4
		C79.6,59.6,79.7,59.8,79.7,60z"/>
	<path class="st0" d="M94.9,71c-0.2,1.6-2.1,3.9-3.6,4.1c-1.2,0.2-2.2,0.6-3.1,1.4c-1.4,1.3-3,1.3-4.6,0.7c-0.5-0.2-0.9-0.6-1.2-1
		c-0.5-1-1.4-1.2-2.4-1.3c-0.4,0-0.8,0-1.2-0.1c-2.2-0.5-2.9-1.5-2.4-4.1c0.3-1.4,0.8-2.7,1.2-4c0.1-0.3,0.7-0.4,1-0.6
		c0.1,0.4,0.3,0.8,0.2,1c-0.5,1.6-1.2,3-1.1,4.8c0.1,1,0.5,1.3,1.3,1.4c0.6,0.1,1.3,0.1,1.9,0.2c1,0.2,1.8,0.5,2.3,1.4
		c0.8,1.2,2.3,1.5,3.5,0.7c1-0.6,2-1.5,3.1-1.7c1-0.2,1.7-0.7,2.4-1.2c1.2-0.9,1.3-1.9,0.7-3.1c-0.2-0.4-0.6-0.9,0.1-1.1
		c0.3-0.1,0.9,0.2,1.1,0.5C94.6,69.7,94.7,70.4,94.9,71z"/>
	<path class="st0" d="M90.3,56c-1.2-0.4-2-1.4-2.5-2.6c-0.1-0.4,0.2-0.8,0.3-1.3c0.2,0.3,0.5,0.6,0.7,0.9c0.4,0.5,0.7,1.1,1.1,1.5
		c0.2,0.2,0.8,0.4,1.1,0.2c2-0.9,4.1-1.8,6-2.9c1.8-1,3.6-1.8,5.6-2.1c1.7-0.2,3.5-0.1,5.2,0c0.4,0,0.7,0.7,1.1,1.1
		c-0.5,0.2-1.1,0.6-1.6,0.5c-3.2-0.6-6.1,0.1-8.9,1.6c-1.3,0.7-2.5,1.5-4.2,1.4c-2,0-2.9,1.2-2.9,3.2c0,0.7,0.1,1.4,0,2
		c-0.1,0.4-0.4,0.7-0.6,1.1c-0.2-0.4-0.6-0.8-0.6-1.2C90.1,58.4,90.2,57.3,90.3,56z"/>
	<path class="st0" d="M74,59c-1.5-0.1-3-0.4-4.5-0.3c-2.1,0.1-4.1,0.4-6.2,0.6c-0.2,0-0.4,0.1-0.5,0.1c-0.4-0.2-0.8-0.4-1.3-0.6
		c0.3-0.4,0.5-1,0.9-1.1c1.3-0.3,2.6-0.5,3.9-0.7c2.8-0.3,5.7-0.2,8.5,0.3c0.7,0.1,1.1,0.5,1,1.1c-0.1,0.3-0.7,0.5-1.1,0.7
		C74.5,59.2,74.3,59.1,74,59C74,59.1,74,59.1,74,59z"/>
	<path class="st0" d="M107.3,60c-1.2-0.2-2.3-0.4-3.4-0.5c-2.6-0.3-5.2-0.4-7.8,0.1c-0.7,0.2-1.5,0.3-1.7-0.5
		c-0.2-0.9,0.6-1.1,1.3-1.3c3.4-1,6.8-0.7,10.1,0C107,58,107,58.9,107.3,60z"/>
</g>
</svg>
