<?xml version="1.0" encoding="utf-8"?>
<!-- Generator: Adobe Illustrator 19.2.0, SVG Export Plug-In . SVG Version: 6.00 Build 0)  -->
<svg version="1.1" id="Layer_1" xmlns="http://www.w3.org/2000/svg" xmlns:xlink="http://www.w3.org/1999/xlink" x="0px" y="0px"
	 viewBox="0 0 200 282.8" style="enable-background:new 0 0 200 282.8;" xml:space="preserve">
<style type="text/css">
	.st0{fill:#8BC34A;}
</style>
<g id="bodyache-girl">
	<path class="st0" d="M0,133.4c1.4,0,2.8,0.1,4.2,0.1c7.8,0,15.6,0,23.4,0c0.3,0,0.5,0,1.2,0c-0.6-0.6-1-0.9-1.4-1.3
		c-3.1-2.9-6.3-5.8-9.4-8.7c-2.9-2.6-4.8-5.8-6.4-9.3c-0.7-1.6-2-3-2.1-4.8c-0.2-2.3-0.3-4.6,0-6.9c0.5-4.9,1.5-9.8,3.5-14.4
		c1.4-3.4,2.7-6.8,5.2-9.7c0.9-1,1.6-2.3,2.4-3.4c2.7-3.9,5.4-7.7,8.1-11.7c0.5-0.7,0.7-1.6,1-2.4c1.7-3.9,3.6-7.8,5.1-11.7
		c1-2.7,1.6-5.6,2.4-8.4c0.7-2.7,1.3-5.4,1.9-8c0.7-2.7,1.2-5.5,2.1-8.1c2-5.7,4.8-10.9,10.9-13.4c3.1-1.3,5.9-3.2,8.7-5
		c2.3-1.5,5.1-2.2,7.9-2.1c0.8,0,1.7,0.5,2.5,0.9c1.4,0.8,1.4,0.7,2.5-0.4c3.3-3.5,7.2-5.2,12.1-4.6c0.1,0,0.3,0,0.4,0.1
		c2.5,2.1,5.9,1.9,8.7,3.2c1.9,0.9,3.7,1.9,5.3,3.4c0.8,0.8,1.8,1.4,2.7,2c1.6,1,3.1,2,4.2,3.6c1.9,2.7,4.2,5,5.9,7.7
		c1.9,3.1,3.2,6.5,4.7,9.8c0.3,0.7,0.5,1.5,0.9,2.3c3,6.2,6.1,12.5,9.1,18.7c2.6,5.3,5.1,10.7,7.8,15.9c2,3.9,4.8,7.3,7.9,10.4
		c2,1.9,3.9,4,5.7,6.1c4.3,5.1,8.5,10.3,12.7,15.5c0.8,0.9,1.6,1.8,2.2,2.9c0.9,1.4,1.6,2.9,2.4,4.3c1,1.8,2.1,3.6,3,5.5
		c1.9,3.9,4.6,7,7.9,9.9c1.5,1.3,2.9,1.7,4.8,1.7c5.5-0.1,11-0.1,16.5-0.1c0.5,0,1,0.1,1.6,0.1c0,0.7,0,1.5,0,2.2
		c-6.3,0-12.5,0-18.9,0c0.1,0.3,0.1,0.4,0.2,0.5c1,1.4,1.9,2.7,2.9,4c2.5,3.1,3.4,6.8,3.9,10.7c0.4,3-0.4,5.4-2.8,7.3
		c-0.2,0.2-0.4,0.3-0.6,0.5c-0.7,0.6-1,1.3-0.7,2.3c0.9,2.6,1.8,5.3,2.6,7.9c1.2,3.9,2.6,7.7,3.6,11.7c0.7,2.8,0.9,5.7,1.3,8.6
		c0.3,2.4,0.6,4.9,0.7,7.3c0,1.8,0,3.9-0.9,5.3c-1.8,3-3.8,6-7.3,7.4c-0.7,0.3-1.3,0.8-2,1.1c-2.3,1.1-4.6,2.5-7.1,3.2
		c-5.9,1.6-11.9,2.8-17.8,4.3c-0.4,0.1-0.8,0.8-0.9,1.2c-0.1,0.4,0.2,0.8,0.4,1.3c0.8,2,0.7,4-0.4,5.7c-1.8,3.1-2.1,6.4-1.8,9.8
		c0.2,2.1,0.8,4.1,2.2,5.8c1.2,1.5,2.2,3.1,3.4,4.6c0.2,0.3,0.7,0.5,1.1,0.5c4-0.6,7.9-1.2,11.9-1.9c5.5-0.9,11-1.9,16.5-2.8
		c3.4-0.6,6.9-1,10.3-1.6c0,0.6,0,1.3,0,1.9c-0.5,0.2-0.9,0.4-1.4,0.5c-2.7,0.5-5.3,1-8,1.5c-3.7,0.7-7.5,1.5-11.2,2.2
		c-2.8,0.5-5.6,0.7-8.4,1.1c-1.7,0.3-3.4,0.7-5.1,1c-1.1,0.2-2.2,0.2-3.5,0.3c0.4,0.6,0.8,1,1.1,1.5c2.5,3.8,4.9,7.7,8.2,10.9
		c1.6,1.6,2.7,3.7,4,5.6c0.3,0.5,0.5,1,0.6,1.6c0.5,1.6,1,3.2,1.5,4.8c0.9,2.6,1.8,5.1,2.7,7.7c0.3,1,0.4,2.1,0.8,3
		c1.1,2.9,2.4,5.8,3.6,8.6c0.1,0.2,0.1,0.5,0.1,0.7c-51.8,0-103.6,0-155.5,0c-0.1-0.8,0.2-1.4,0.8-2c0.7-0.7,1.2-1.6,1.6-2.4
		c0.4-0.8,0.7-1.6,1.1-2.4c1.1-2.1,2.5-4.1,3.3-6.3c1.2-3.2,2-6.5,2.8-9.8c0.2-0.8,0.2-1.8,0.2-2.7c0-1.5-1-2.3-2.4-1.7
		c-2.3,1-4.6,0.6-6.9,0.6c-4,0-8.1,0.3-12.1,0.5c-1.9,0.1-3.7,0.1-5.6,0.2c-2.1,0.1-4.3,0.3-6.4,0.5c-2,0.3-4,0.7-5.9,1.1
		c0-0.8,0-1.6,0-2.4c0.6-0.1,1.1-0.1,1.7-0.2c2.4-0.3,4.9-0.6,7.3-0.8c2.1-0.2,4.1-0.1,6.2-0.3c5.4-0.4,10.9-1,16.3-1.4
		c2.2-0.2,4.3-0.2,6.4-1.3c1.1-0.5,1.5-1.1,1.6-2.3c0.1-1.1,0.4-2.3,0.8-3.3c0.7-1.6,1.6-3.2,2.5-4.7c2.3-3.9,3.7-8.1,2.8-12.7
		c0-0.2,0-0.5,0-0.7c-0.2-3.2-0.3-6.4-0.6-9.6c-0.5-4.8-1.5-9.5-1.9-14.3c-0.7-9.7-1.9-19.4-2.9-29.1c-0.2-1.8-0.4-3.5-0.6-5.3
		c-0.4-3.3-0.7-6.7-1.3-10c-0.6-3.8-1.2-7.6-2.3-11.3c-1.2-4.1-3-8-4.5-11.9c-0.4-1-1.2-1.2-2.2-1.2c-9.8,0-19.5,0-29.3,0.1
		C0,135,0,134.2,0,133.4z M50.2,98.9c-0.2,0.3-0.4,0.7-0.6,1c-1.7,3.5-3.4,7.1-5,10.7c-2.1,4.6-3.9,9.3-6,13.9
		c-1.5,3.2-3.3,6.2-5,9.3c-0.4,0.7-0.4,1.1,0,1.8c0.4,0.7,0.8,1.4,1.1,2.2c1.1,3.1,2.1,6.3,3.1,9.4c0.5,1.5,1,3,1.4,4.6
		c0.6,2.9,1.2,5.8,1.7,8.6c0.4,2.2,0.9,4.3,1.3,6.5c0.1,0.8-0.1,1.7,0,2.5c0.4,3.7,0.9,7.4,1.2,11.2c0.4,5.7,0.3,11.4,1.3,17.1
		c0.5,2.9,0.6,5.8,1.2,8.6c0.5,2.6,1,5.2,1.1,7.9c0.2,4.5,0.8,9,1,13.4c0.2,3.4,0.7,6.9-0.7,10.2c-0.9,2.2-1.9,4.4-3.2,6.5
		c-1.4,2.4-2.1,5-2.6,7.7c-0.4,2.4-0.3,5-0.5,7.5c-0.5,5.6-1.9,10.9-4.9,15.8c-0.4,0.6-0.7,1.4-0.9,1.9c2.2-1.4,4.4-2.9,6.7-4.2
		c3.3-1.8,6.3-4.1,10-5c0.3-0.1,0.5-0.4,0.8-0.6c1.4-1.4,3.1-2.2,5-2.8c3.8-1.2,7.8-0.9,11.7-0.9c1.6,0,3.3-0.2,4.9-0.5
		c3.7-0.6,7.4-1.5,11.1-1.9c3.6-0.4,7.3-0.1,10.9-1.2c1.5-0.5,3.1-0.4,4.7-0.6c1.6-0.2,3.1-0.3,4.7-0.6c1.8-0.4,3.5-1,5.2-1.3
		c3.1-0.5,6.3-0.8,9.4-1.4c3.5-0.6,7-1.5,10.6-1.3c1.6,0.1,3.2-0.1,4.7-0.1c3.1,0,6.2,0.1,9.3,0.2c3.2,0.1,6.4,0.4,9.5,0.4
		c3.7-0.1,7.3-0.6,11-0.7c2.1-0.1,4.3,0.2,6.6,0.3c-1.1-1.3-2.1-2.5-3.1-3.7c-1.5-1.8-2.9-3.6-4.3-5.5c-2.5-3.4-4.9-6.8-7.3-10.2
		c-1.7-2.5-3.8-4.7-4.5-7.7c-1-4.3-0.9-8.4,1.3-12.4c1.6-2.8,0.8-5.6-0.5-8.3c-0.3-0.5-0.8-1-1.3-1.2c-2.1-0.6-4.2-1.1-6.3-1.4
		c-3.7-0.4-7.5-0.6-11.2-1c-2.5-0.3-4.2,0.5-5.3,2.8c-2,4.1-5.2,7.1-8.9,9.6c-3.1,2.1-5.9,4.4-9.4,5.8c-0.7,0.3-1.3,0.8-1.8,1.3
		c-2,2.3-4,4.7-6,7c-1,1-2.2,1.8-3.3,2.7c-0.3,0.2-0.7,0.4-1,0.7c-1.9,1.7-5.2,1.8-7.1,0.2c-0.2-0.2-0.5-0.5-0.5-0.8
		c-0.2-1.4-0.4-2.7,0.8-3.8c2.3-2.1,4.6-4.1,6.8-6.2c1.1-1.1,2.1-2.4,3.2-3.6c-0.1-0.1-0.2-0.2-0.3-0.3c-0.9,0.6-1.7,1.4-2.6,1.9
		c-2.6,1.3-5.3,2.4-8,3.6c-3.3,1.5-6.5,3.2-9.8,4.7c-1.8,0.8-3.2,0.6-4.1-0.5c-0.9-1.2-1-3.5,0-4.6c0.9-1,1.9-2,3-2.8
		c1.9-1.4,3.9-2.8,5.9-4.1c-1.3,0.3-2.5,0.7-3.7,1.3c-2.7,1.3-5.4,2.7-8,4.1c-1.2,0.6-3,0.6-3.9-0.2c-1.2-1-1.6-2.5-1.1-3.9
		c0.5-1.3,1.3-2.3,2.5-3.1c2-1.3,3.8-2.9,5.7-4.2c1-0.7,2.1-1.3,3.2-1.9c-0.2-0.1-0.4,0-0.6,0c-2.7,1.2-5.4,2.4-8.1,3.6
		c-0.9,0.4-1.9,0.5-2.8,0.6c-0.9,0.1-1.5-0.4-1.8-1.3c-0.7-2.1-0.2-4.1,1.6-5.4c1.3-1,2.7-1.9,4.1-2.8c3.8-2.3,7.7-4.6,11.6-6.9
		c1.3-0.8,2.8-1.4,4-2.4c2-1.6,4.2-2.3,6.6-3c1.8-0.5,3.1-1.7,4.6-3.3c-1.5,0.2-2.7,0.4-3.8,0.4c-2.9-0.2-5.8-0.4-8.8-0.8
		c-0.8-0.1-1.5-0.5-2.2-0.9c-1.8-1.2-2.6-3-2.3-5.2c0.2-1.9,0.2-2.1,2.2-1.8c3.1,0.4,6.1,0.4,9.1-0.5c0.7-0.2,1.4-0.5,2.1-0.5
		c2.1,0,4-0.5,5.9-1.4c1.8-0.8,3.7-0.8,5.7-0.4c1.5,0.3,3.1,0.5,4.6,0.7c1.2,0.2,2.5,0.3,3.4,0.9c1.6,1,3.4,1.2,5.2,1.2
		c2.5,0,5-0.2,7.5-0.5c2.2-0.2,4.4-0.6,6.5-1c2.8-0.5,5.5-1,8.3-1.4c1.1-0.2,2.1-0.3,3.2-0.5c0.8-0.1,1.2-0.6,1.1-1.5
		c-0.1-2.3,0.1-4.5,0.9-6.8c0.6-1.8,0.8-3.9,0.6-5.8c-0.3-2.6-1.1-5.1-1.7-7.7c-0.7-3.6-1.4-7.2-2-10.7c-0.4-2.7-0.8-5.4-1.2-8.1
		c-0.5-3.3-1-6.6-1.5-9.9c0-0.2,0.1-0.5,0.2-0.8c1.2,0.4,1.9,1.1,1.7,2.4c0,0.3,0.1,0.7,0.1,1.1c0.7,4,1.3,7.9,2.1,11.9
		c0.5,2.6,1.1,5.1,1.7,7.7c1-0.5,1.7-0.9,2.5-1.2c5.6-2.3,10.9-5,15.9-8.4c2.1-1.4,4-3.3,5.9-5c0.2-0.1,0.2-0.6,0.1-0.8
		c-1-2-1.9-4-3-5.9c-1.3-2.3-2.6-4.5-4.2-6.6c-0.9-1.2-2.2-2.4-3.6-3.1c-2.7-1.5-5.8-2.4-7.9-4.8c-3.1-3.6-6.8-6.6-10.4-9.7
		c-0.4-0.3-0.7-0.7-1.1-0.9c-3.3-1.8-7.1-2.2-10.7-2.4c-2.4-0.1-4.8,0.9-7.2,1.2c-2.9,0.3-5.8,0.5-8.6-0.5c-2.9-1-5.8-1.4-8.5,0.5
		c-1.3,0.9-2.8,1.2-4.5,1.2c-0.9,0-1.8,0.3-2.7,0.5c-1.4,0.4-2.8,0.8-4.1,1.2c-1.2,0.3-2.5,0.4-3.6,0.7c-2.6,0.7-5.3,0.8-7.9,0.4
		c-3.4-0.6-6.7-1.6-10.2-1.6c-1.6,0-3.3-0.1-4.7-0.7c-1.3-0.5-2.6-0.7-4-0.7c-0.8,0-1.7-0.4-2.5-0.7c-2-0.7-3.8-1.6-6-0.3
		c-0.8,0.5-2,0.5-3,0.3C53.1,100.2,51.7,99.5,50.2,98.9z M84.9,184.1c-0.1,0.1-0.1,0.3-0.2,0.4c0.9,0.5,1.7,1.4,2.6,1.6
		c4.2,0.9,8.5,1.1,12.7,0.4c0.3,0,0.6-0.1,0.9-0.3c1.5-0.9,3-1.8,4.6-2.6c0.4-0.2,1,0,1.5,0c-0.3,0.4-0.6,0.8-0.9,1.2
		c-0.1,0.1-0.3,0.2-0.5,0.3c-2.1,0.6-3.5,2.2-4.8,3.8c-1.5,1.8-3.2,3.3-5.6,3.7c-2.2,0.4-4.1,1.3-5.8,2.8c-1.2,1-2.7,1.6-4,2.4
		c-1.2,0.7-2.4,1.3-3.6,2c0.4,0.8,0.8,1.4,1,2c0.1,0.3,0,0.7,0,1.1c-0.4-0.2-0.8-0.3-1-0.6c-0.4-0.5-0.6-1.2-1-1.8
		c-4,1.6-7,4.4-10.2,6.5c0.9,1.2,1.8,2.4,2.7,3.6c0.4-0.1,0.9-0.3,1.5-0.5c1.9-0.8,3.7-1.7,5.6-2.4c1.2-0.5,2.4-0.7,3.5-1.2
		c3.9-1.7,7.7-3.6,11.6-5.3c0.4-0.2,0.9,0,1.3,0c-0.3,0.4-0.4,1-0.8,1.2c-2.5,1.2-5,2.4-7.5,3.6c-1.2,0.6-2.4,1.3-3.6,1.9
		c0.3,1.1,0.6,2,0.9,3c-1.6-0.2-1.3-1.6-2.1-2.2c-3.5,2.3-7.5,4-10.2,7.1c0.7,1.6,1.4,3,2.1,4.5c0.1,0,0.4-0.1,0.6-0.2
		c3.5-2.4,7.5-3.7,11.4-5.3c3.7-1.6,7.1-3.5,10.4-5.9c0.6-0.4,1.4-0.6,2.1-0.8c0.2-0.1,0.6,0.2,0.9,0.4c-0.2,0.3-0.3,0.6-0.6,0.8
		c-0.8,0.5-1.7,0.8-2.5,1.3c-1.1,0.6-2.1,1.4-3.1,2c-0.8,0.5-1.7,1.1-2.6,1.7c0.6,0.6,1.1,1,1.6,1.6c0.2,0.3,0.2,0.7,0.3,1.1
		c-0.4-0.1-0.9-0.1-1.1-0.3c-0.6-0.5-1.1-1.2-1.7-1.9c-3.5,2.7-6.9,5.2-10,7.5c0.9,1.3,1.7,2.6,2.6,4c3.7-1.5,7.7-3.1,11.7-4.9
		c1.7-0.8,3.5-1.7,5-2.9c2.5-1.9,4.7-4.1,7.6-5.3c0.6-0.2,1.2-1.1,1.7-0.1c0.1,0.1-0.7,1-1.3,1.3c-1.6,0.8-3.2,1.5-3.7,3.4
		c-0.1,0.4-0.6,0.8-0.9,1.1c-0.5,0.7-1.1,1.5-1.6,2.3c0.3,0.3,0.6,0.5,0.8,0.7c0.3,0.4,0.5,0.9,0.8,1.3c-0.5-0.1-1-0.2-1.4-0.4
		c-0.5-0.3-0.8-0.6-1.4-0.1c-1.1,1-2.2,1.9-3.3,2.9c-0.9,0.8-1.8,1.6-2.7,2.5c2.1,0.3,2.3,2,3.2,3.2c1.5-0.1,2.6-0.8,3.5-1.9
		c1-1.2,1.9-2.5,2.9-3.7c1.9-2.3,3.8-4.6,6.6-5.9c2.1-1,4-2.3,5.9-3.5c0.9-0.6,1.8-1.3,2.7-1.9c3.6-2.3,6.3-5.3,8.3-9.1
		c1.8-3.4,3.9-4,7.3-3.5c2,0.3,4,0.4,6,0.6c2.6,0.2,5.2,0.4,7.8,0.7c1.3,0.2,2.6,0.9,3.8,0.9c3.8-0.1,7.6-0.1,11.2-0.9
		c4.7-1,9.3-2.3,13.7-4.2c2.5-1.1,4.8-2.5,7-4.2c3.9-3.1,5.4-6.9,4.6-11.9c-0.4-2.5-0.3-5-0.6-7.5c-0.4-2.9-0.7-5.9-1.6-8.8
		c-1-3.5-2.5-7-3.9-10.4c-2.6-6.1-5.3-12.2-8-18.3c-0.4-0.8-0.8-1.6-1.3-2.6c-0.7,0.5-1.3,0.9-1.8,1.4c-3.5,3.9-8.2,6.2-12.7,8.6
		c-2.5,1.4-5.3,2.3-7.9,3.6c-2.5,1.3-3.3,1.8-2.3,4.8c0.3,0.8,0.7,1.6,0.8,2.4c0.3,2.6,1,5,2,7.3c1.1,2.7,2.1,5.5,3.2,8.3
		c0.2,0.7,0.6,1,1.4,0.7c3.3-1.2,6.7-2.2,10-3.4c3.4-1.3,6.9-2.1,10.6-2.1c0.6,0,1.3-0.1,1.2,0.7c-0.1,0.4-0.7,0.8-1.2,0.9
		c-0.5,0.2-1.1,0-1.7,0.1c-1.7,0.2-3.4,0.2-5,0.8c-7.2,2.6-14.6,4.5-21.4,8.1c-0.3,0.1-0.6,0.2-0.9,0.3c-2.1,0.3-4.3,0.6-6.4,0.9
		c-0.8,0.1-1.5,0.2-2.3,0.3c-3.5,0.5-6.9,2-10.5,2c-2.7,0-5.5,0.5-8.2,0.5c-1.9,0-4,0.1-5.6-1.4c-0.2-0.2-0.6-0.3-0.9-0.3
		c-2.1-0.4-4.3-0.5-6.3-1.1c-2.2-0.6-4.3-0.6-6.3,0.4c-0.7,0.3-1.4,0.5-2.2,0.7c-2.8,0.6-5.7,1.1-8.5,1.7c-0.4,0.1-1,0.5-1.2,0.9
		c-0.9,1.6-2.1,2.5-3.4,2.3C86.2,184.4,85.5,184.2,84.9,184.1z M91.2,9.8c-5.3,2.9-10.6,5.7-16,8.6c-0.2-0.8,0.1-1.5,0.9-1.9
		c1.4-0.8,2.8-1.8,4.2-2.6c1.5-0.8,3-1.4,4.5-2.2c0.5-0.2,0.9-0.5,1.2-0.6c-0.5-1.1-0.9-2.1-1.3-3c-2.5,0.7-5.1,1.5-7.8,2.3
		c-5.1,1.4-9.2,4.2-12.5,8.2c-1.2,1.4-2.3,2.9-3.7,4c-2,1.6-4,3.1-5,5.4c-0.1,0.3-0.6,0.5-1,0.7c0-0.4-0.2-0.9,0-1.3
		c0.7-1.3,1.1-2.7,1.2-4.2c0-0.5,0.3-1.1,0.6-1.4c1.1-0.8,1.2-2,1.6-3.2c0.3-1.1-0.1-2.1-0.9-2.9c-0.2-0.2-0.7-0.2-1-0.1
		c-0.8,0.3-1.6,0.8-2.4,1.2c-1.2,0.6-2.5,0.9-3.6,1.7c-2.5,1.8-2.3,4.7-2.3,7.3c0,4.2,0.9,8.3,2,12.4c0.3,1.1,0.7,2.1,1,3.1
		c0.5,1.4,0.5,2.7-0.7,3.9c-0.9,0.9-1.7,2.1-2.5,3.1c-2.3,2.8-4.9,5.4-8,7.3c-2.3,1.4-4.3,3.2-5.7,5.7c-0.4,0.7-1.1,1.3-1.7,1.8
		c-0.5,0.4-1.1,0.6-1.5,1.1c-1.1,1.4-2.2,2.8-3.2,4.2c-1.8,2.6-3.6,5.2-5.5,7.7c-2.9,3.9-5.4,8-7.2,12.6c-0.5,1.4-1.1,2.8-1.4,4.2
		c-0.8,4-1.5,8-2.1,12.1c-0.3,2-0.4,4.1,0.6,6.1c1,1.8,1.8,3.8,3,5.5c1.6,2.2,3.3,4.3,5.2,6.2c1.9,2,4,3.7,6,5.5
		c0.4,0.4,0.9,0.7,1.4,1c1.1,0.6,2,1.2,2.6,2.4c0.5,1.1,1.2,1,1.8,0.1c3.7-5.1,5.7-11.1,8.5-16.6c1.5-2.9,2.7-5.8,4-8.7
		c0.2-0.4,0.3-0.8,0.4-1.2c-0.1-0.1-0.2-0.1-0.3-0.2c-0.9,1.4-1.7,2.8-2.6,4.2c-0.3,0.4-0.8,0.6-1.2,0.9c-0.2-0.5-0.5-1-0.4-1.5
		c0.2-0.7,0.6-1.4,1-2c0.8-1.2,1.6-2.3,2.4-3.5c1.5-2.3,3.2-4.4,4.5-6.8c2.3-4,4.6-8.1,6.5-12.3c1.6-3.5,2.7-7.3,4.1-10.9
		c0.5-1.3,0.9-2.8,1.8-3.9c3.5-4.4,6.9-8.9,9.3-14.1c0.3-0.6,0.8-1.2,1.4-1.6c1.9-1.1,3.8-2.1,5.7-3.2c2.8-1.6,5.3-3.5,7.2-6.2
		c0.9-1.3,2.2-2.5,3.4-3.7c0.7-0.7,1.5-1,2.6-1.1c1.1,0,2.1-0.7,3.2-0.9c1.7-0.2,3.4-0.2,5.1-0.5c0.7-0.1,1.3-0.4,2-0.7
		c0.2-0.1,0.3-0.7,0.2-0.8c-1-0.8-0.8-1.9-0.8-3c0-0.3-0.3-0.8-0.7-1c-0.5-0.2-1.2-0.3-1.8-0.4c-3-0.1-6-0.1-9-0.3
		c-0.5,0-1-0.6-1.5-0.9c0.3-0.4,0.5-1.1,0.9-1.3c2.6-1.4,5.3-2.6,7.9-4.1c1.8-1,3.5-2.2,5.3-3.3c-1.2-0.5-2.6-0.7-2.9-1.4
		c-1-2.1-2.4-1.8-4.1-1.2c-3.6,1.4-7.3,2.7-11,4c-0.4,0.2-0.9,0.2-1.4,0.3c0.3-0.5,0.5-1,0.8-1.4c0.3-0.3,0.8-0.4,1.2-0.6
		c1.2-0.7,2.5-1.2,3.7-2c2-1.4,3.8-2.9,5.8-4.4c0.6-0.4,1.1-0.9,1.7-1.3C93.7,12.7,92.6,11.4,91.2,9.8z M75.3,53.6
		c-2.5,0.7-4,2.3-5.2,4.4c-1.6,2.9-3.5,5.6-5.4,8.3c-1.8,2.6-3.9,4.9-4.6,8.1c0,0.2-0.2,0.4-0.3,0.6c-0.5,1.2-1,2.4-1.3,3.6
		c-0.1,0.7,0.1,1.5,0.4,2.1c1.1,2,2.3,3.9,3.5,5.8c1.3,2.2,2.8,4.1,5.5,4.8c1.9,0.5,3.6,1.3,5.5,1.9c1.8,0.5,3.6,1.1,5.5,1.4
		c5,0.7,9.6-1,14.3-2.5c3.3-1.1,6-3,8.3-5.7c1.1-1.2,2.1-2.2,2-3.9c0-0.4,0.2-0.9,0.3-1.3c0.3-1.3,0.8-2.5,1-3.9
		c0.4-2.1,0.8-4.3,1-6.5c0.4-4,0.6-8.1,0.9-12.1c0.2-3.5,0.4-7,0.6-10.5c0-0.7-0.1-1.4-0.3-2c-0.7-2.3-1.6-4.7-2.3-7
		c-0.6-1.7-1.7-2-3.1-1c-0.6,0.5-1.4,0.8-2.2,0.9c-1.9,0.3-3.9,0.4-5.9,0.7c-0.9,0.1-1.7,0.9-2.6,0.9c-1.3,0-2.2,0.5-3,1.4
		c-1.2,1.4-2.4,2.7-3.5,4.2c-1.8,2.3-4.2,3.8-6.8,5.2c-0.9,0.5-1.3,1.1-1.4,2.2c-0.3,2.5-0.7,5-1.8,7.3c-0.5,1-0.7,2.2-0.8,3.3
		c-0.1,1.2,0.8,1.9,1.9,1.8c0.3,0,0.7-0.2,0.8-0.4c0.1-0.2-0.1-0.5-0.2-0.8c-0.1-0.3-0.2-0.6-0.3-0.8c0.4-0.1,0.8-0.3,1.1-0.2
		c0.5,0.2,1,0.7,1.5,1c0.5,0.3,1.1,0.6,1.7,0.7c1.6,0.2,2.2-1.1,2.9-2.2c0.3-0.4,0.9-0.6,1.4-0.9c0.3,0.4,0.5,0.9,0.8,1.3
		c0.1,0.1,0.1,0.2,0.3,0.6c0.6-0.5,1.3-0.9,1.4-1.4c0.2-1.3,0.2-2.6-1.2-3.4c-0.6-0.4-1.2-0.9-1.6-1.4c-0.4-0.5-0.6-1.2-0.9-1.8
		c1.4,1,2.7,2,3.8,3.1c1.1,1.1,1.2,2.5,0.8,4c-0.4,1.3-1.5,1.4-2.6,1.6c-0.8,0.1-1.8,0-2.3,0.5c-1.8,1.4-3.5,1.1-5,0.4
		c-0.8,0.5-1.5,1.2-2.2,1.2c-2.9-0.1-3.5-1.9-2.9-4.1c0.7-2.8,1.6-5.5,2.4-8.2C75.4,54.5,75.3,54,75.3,53.6z M103.4,87.3
		c-0.5,0.5-0.8,0.7-1.1,1c-1.7,2.1-3.9,3.7-6.4,4.7c-2.8,1.2-5.8,2-8.7,3c-0.6,0.2-1.1,0.4-1.7,0.5c-4.5,0.5-8.9,0-13.2-1.5
		c-1.8-0.6-3.6-1.1-5.5-1.8c0.2,1.3,0.3,2.4,0.6,3.6c0.2,0.8,0.4,2.1,1,2.3c1.6,0.6,3,1.6,4.8,1.6c2.7,0,5.4,0.2,8,0.7
		c4.2,0.9,8.3,1.4,12.5,0c2-0.6,4.2-0.4,6.2-1.3c0.6-0.3,1.3-0.4,2-0.5c2.4-0.2,4.7-0.4,6.6-2.1C104.9,95.2,103.2,91.8,103.4,87.3z
		 M114.1,61.5c-0.1-0.1-0.3-0.1-0.4-0.2c-0.2,0.5-0.5,1-0.6,1.5c-0.4,1.7-1.6,2.5-3.2,2.1c-1.1-0.3-1.8,0.2-1.9,1.2
		c-0.2,1.9-0.3,3.9-0.4,6.1c0.9-0.1,1.6-0.1,2.2-0.3c1.4-0.5,2.4-1.5,2.9-3C113.4,66.5,113.8,64,114.1,61.5z M110.3,55.1
		c-0.5,0.6-1.5,1.2-1.6,1.9c-0.4,2.2-0.6,4.4-0.8,6.5c0.8,0,1.5-0.1,2.1,0c1,0.3,1.3-0.2,1.6-0.9c0.4-0.8,0.7-1.7,1.1-2.7
		C111.3,58.7,112.4,56.2,110.3,55.1z M153.2,172.9c-0.5-1.9-0.8-3.5-1.3-5c-0.1-0.4-0.5-0.8-0.8-1.2c-0.3,0.4-0.7,0.8-0.8,1.2
		c-0.3,1.7-0.5,3.4-0.7,5.1c-0.1,0.6,0.1,1.2,0.1,1.8c0.6-0.1,1.3-0.1,1.8-0.4C152.2,174,152.7,173.3,153.2,172.9z M109.1,54
		c1.8-0.8,1.8-0.7,2.8,0.8c0.2,0.3,0.7,0.5,1.1,0.7c0.1-0.4,0.5-0.8,0.4-1.2c-0.4-1.3-0.9-2.7-1.5-3.9c-0.4-0.9-1.1-0.8-1.8-0.1
		C109,51.3,108.9,52.6,109.1,54z M82,226.5c0-1.3-1.2-2.9-2-2.9c-1,0-2,1.3-2,2.5c0,1.5,0.7,2.3,1.7,2.3
		C80.9,228.2,82,227.4,82,226.5z M95.3,233.4c0.4-0.5,0.7-0.9,1-1.3c0.2-0.2,0.4-0.6,0.4-0.8c-0.1-1.3-1.4-2.4-2.6-2
		c-0.6,0.2-1.2,1-1.4,1.7c-0.2,0.7,0,1.5,0.9,1.8C94.1,233,94.7,233.2,95.3,233.4z M74.2,220.1c-0.5-1-1-2-1.5-2.9
		c-0.1-0.2-0.9-0.3-1.1-0.1c-1.2,0.8-1.4,3-0.3,3.9c0.5,0.4,1.4,0.4,2.1,0.4C73.7,221.4,73.9,220.7,74.2,220.1z M69.3,208.1
		c-0.8,1.2-1,2.9-0.3,3.4c0.8,0.5,1.7,0.4,2.6-0.2C71.4,209.9,70.8,208.7,69.3,208.1z M89,181.5c-1.3-0.1-2.6-0.3-3.9-0.4
		c-0.3,0-0.6,0.1-0.9,0.2c0.1,0.3,0,0.7,0.2,1C85.8,183.9,88.1,183.6,89,181.5z M89.5,8.5c-0.4-0.3-0.9-0.8-1.5-1
		c-0.5-0.2-1-0.1-1.5-0.1c-0.1,0-0.3,0.3-0.3,0.5c0.1,0.8,0.2,1.6,1.1,2C87.8,10.1,89.5,9.3,89.5,8.5z M92.5,9.5
		c1.2,1.4,2.3,2.6,3.5,4C96.2,11,94.6,9.2,92.5,9.5z M98.3,18.7c0.3,1.2,1.2,1.8,2.4,2c0.5,0.1,0.8-0.1,0.6-0.8
		C100.8,18.6,100.3,18.4,98.3,18.7z M102.5,36c0.3-0.8,0.7-1.5,0.6-2.2c-0.1-0.4-1-0.7-1.7-1.2C101.3,34,100.9,35.1,102.5,36z"/>
	<path class="st0" d="M92.2,74.3c-2.3,0.8-4.5,1.4-6.7,2.2c-1.9,0.7-3.7,0.7-5.6,0.6c-1.3-0.1-2.7,0.3-4,0.5c-1,0.1-1.9,0.2-2.9,0.2
		c-0.2,0-0.5-0.4-0.5-0.5c0.2-0.6,0.2-1.4,0.6-1.7c1.6-1.3,3.4-2.5,5.2-3.6c0.7-0.4,1.7-0.3,2.6-0.4c0.4-0.1,1,0,1.3-0.2
		c1.3-1,2.6-0.8,4.1-0.2c1.6,0.6,3.3,1,4.9,1.5C92,73.1,92.5,73.4,92.2,74.3z M89.2,74.4c-1.9-0.7-3.7-0.7-5.5,0
		c-0.9,0.4-2,0.6-2.9,0.5c-1.9-0.3-3.2,0.7-4.9,1.5c2,0,3.6,0.1,5.3,0c1.1-0.1,2.3-0.2,3.4-0.5C86.1,75.5,87.7,74.9,89.2,74.4z
		 M88.8,73c-1.2-0.4-2.2-0.6-3.1-1.1c-1.1-0.5-2.1-0.6-3,0.2c-0.7,0.6-1.3,0.7-2.2,0.4c-0.5-0.2-1.2-0.1-1.6,0.1
		c-1.6,1-3.2,2.2-4.8,3.3c0.6,0,1.1-0.2,1.5-0.4c1-0.5,2-1.5,3-1.5c2.8,0.1,5.3-1.1,8-1.2C87.3,73,87.9,73,88.8,73z"/>
	<path class="st0" d="M92.7,50.9c-1.9-0.2-3.9-0.3-5.8-0.5c-0.3,0-0.6-0.1-0.8-0.2c-0.2-0.2-0.4-0.5-0.6-0.8
		c0.2-0.2,0.5-0.4,0.7-0.5c0.5-0.1,1,0,1.6,0c2.6-0.1,5.2-0.1,7.8-0.3c1-0.1,1.9-0.7,2.9-1c0.4-0.1,0.9,0,1.4,0.1
		c-0.2,0.4-0.2,0.9-0.5,1.2c-1.5,1.5-3.5,1.6-5.5,1.7c-0.4,0-0.8,0-1.2,0C92.7,50.8,92.7,50.8,92.7,50.9z"/>
</g>
</svg>
