<?xml version="1.0" encoding="utf-8"?>
<!-- Generator: Adobe Illustrator 19.2.0, SVG Export Plug-In . SVG Version: 6.00 Build 0)  -->
<svg version="1.1" id="Layer_1" xmlns="http://www.w3.org/2000/svg" xmlns:xlink="http://www.w3.org/1999/xlink" x="0px" y="0px"
	 viewBox="0 0 200 128" style="enable-background:new 0 0 200 128;" xml:space="preserve">
<style type="text/css">
	.st0{fill:#03A9F4;}
</style>
<g id="boy-taking-cold-medicine">
	<path class="st0" d="M0,117.9c5.8-2.4,10.4-6.6,15.4-10.2c0.4-0.3,0.8-0.8,1-1.3c1.4-3.1,4.2-3.9,7.2-4.2c1.3-0.1,2.7-0.2,4,0
		c2.4,0.3,4.6-0.3,6.7-1.6c1.2-0.7,2.5-1.4,3.8-2.1c1.1-0.6,1.4-1.2,1-2.5c-1.9-6.5-6.7-10.7-11.7-14.7c-1.8-1.5-3.2-3.2-4.2-5.3
		c-0.7-1.6-1.9-3-2.8-4.5c-1.3-2.3-2.4-4.6-3.8-6.8c-2.5-4.2-1.6-8.5-1.1-13c0.8-6.7,3.1-13,5.6-19.2c2.1-5.2,4.6-10.3,7.3-15.1
		c1.1-2,3.5-3.4,5.3-4.9c2-1.7,4.1-3.4,6.2-5c1.3-0.9,2.6-2,4-2.4c4.1-1.3,8.2-2.5,12.4-3.3c3.6-0.7,7.3-1,10.9-1.2
		C73.1,0.2,78.8,0.1,84.4,0c1.8,0,3.5,0.5,4.9,1.9c1.5,1.5,3.2,2.3,5.3,2.6c5.5,0.6,9.5,3.4,12.8,7.8c2.4,3.2,3.3,6.7,4.3,10.3
		c0.4,1.3,0.9,2.7,1.8,3.7c2.4,2.7,2.5,5.9,2.1,9.1c-0.4,2.8-0.2,5.3,1.1,7.9c0.7,1.4,0.1,3.6,0.1,5.4c0,2.2-0.3,4.4,0,6.6
		c0.1,1.1,1,2.1,1.6,3.2c1.1,1.9,2.3,3.8,3.2,5.8c0.8,1.7,0.3,3.3-1,4.8c-0.4,0.4-0.6,1.2-0.6,1.8c0.2,2.6,0.8,3.8,2.4,6
		c0.3,0.4,0.5,1,0.9,1.7c3.2-0.9,6.4-1.9,9.7-2.9c0.3-0.1,0.6-0.7,0.7-1.1c0.4-1.2,0.5-2.6,1.2-3.5c1.9-2.7,4-5.2,6.1-7.7
		c1.1-1.4,2.6-2.2,4.5-2.2c0.5,0,1-0.2,1.4-0.4c6.2-4.4,7.9-2.2,12,0.9c4.2,3.2,8.1,6.7,12.1,10.1c1.9,1.6,2.6,3.5,2.4,6.1
		c-0.4,5.1-0.6,10.2-0.8,15.4c-0.2,4.8,1.7,8.7,4.8,12.5c4.7,5.8,11,9.6,16.4,14.6c2.4,2.2,4.2,5.1,6.3,7.7c-0.6,0-1.1,0-1.7,0
		c-1.3-1.7-2.5-3.6-4.1-5.1c-4-3.6-8.2-6.9-12.2-10.4c-1.5-1.3-2.8-2.8-4.1-4.3c-1.2-1.3-2.2-2.7-3.4-4.2c-1.7,3.5-5,5.4-6.7,3.7
		c0.6-0.2,1.1-0.3,1.6-0.4c3.5-0.9,4.5-3.2,3.2-6.6c-0.6-1.6-1.1-3.4-1.1-5c0.1-6.1,0.3-12.1,0.7-18.2c0.2-2.3-0.7-3.9-2.3-5.2
		c-3.7-3.1-7.7-5.9-12.2-7.6c-0.9-0.3-1.9-0.7-2.7-0.5c-4.5,1.1-9.1,2.4-12.8,5.7c1.6,1,0.7,1.7-0.3,2.5c-1.4,1.1-2.9,2.3-4.9,1
		c0.2,1.9,1,2.8,2.8,2.3c0.8-0.2,1.6-0.3,2.4-0.5c2.5-0.6,5.1-1.2,7.6-1.7c1.7-0.3,3.5-0.3,5.2-0.8c1.2-0.3,2.2-1.1,3.2-1.7
		c0.1,0.1,0.2,0.3,0.3,0.4c-1.1,0.8-2.1,1.6-3.5,2.7c1.8,0.9,3.4,2.1,5.1,2.4c1.8,0.3,3.7-0.3,5.7-0.5c-2.6,2.3-5.4,1.9-8.3,0.6
		c0.1,1.3,0.3,2.3,0.4,3.4c0.1,1.2,0.6,1.7,1.9,1.5c3-0.5,6-0.8,9.3-1.2c-0.8,1.2-1.7,1.5-2.8,1.6c-2.6,0.3-5.3,0.7-7.9,1.1
		c-0.8,0.1-1.5,0.6-2.3,0.9c0,0.2,0,0.4,0,0.7c0.8,0.1,1.7,0.4,2.4,0.2c2.4-0.6,4.5-0.1,5.2,1.3c-1.5-0.3-3-0.5-4.6-0.8
		c0,0.1,0,0.3,0,0.4c1.5,1.1,3,2.3,4.5,3.4c-0.1,0.2-0.2,0.3-0.4,0.5c-0.2-0.1-0.5-0.2-0.7-0.3c-1.8-1-3.5-2-5.3-3.1
		c-1.9-1.1-3.8-2.1-5.5-3.4c-2.2-1.7-4.2-3.8-6.4-5.7c-1.6-1.4-2.7-1.4-4.6-0.3c3.3,2.7,3.3,2.8,2.9,3.8c-0.9,1.8-2.5,2.5-5.6,2
		c1.4,1.3,2.5,2.2,3.6,3.2c1.5,1.3,2,1.3,3.5,0c0.5-0.4,1-0.9,1.5-1.3c0.1,0.2,0.3,0.3,0.4,0.5c-1,0.9-2,1.8-3,2.7
		c1.9,0.4,2.5,0,5.6-3.9c0,0.5,0.1,1.1-0.2,1.4c-1.2,1.3-2.5,2.6-3.8,3.9c0,0,0.4,0.3,0.6,0.7c1.5,1.8,3.4,3.3,3.9,5.7
		c0.5,2.5,1,5,1.7,7.5c0.3,1.2,0.9,2.4,1.7,3.3c1.9,2.1,4.1,3.9,6.1,6c0.9,0.9,1.5,2.1,2.3,3.2c-0.2,0.1-0.3,0.3-0.5,0.4
		c-0.3-0.2-0.6-0.3-0.8-0.6c-1.7-1.8-3.3-3.5-5-5.4s-4-3.5-4.7-6.2c-0.5-1.9-1.1-3.9-1.2-5.9c-0.3-4-3-6.3-5.9-9.1
		c0.5,2.2,0.8,3.9,1.2,5.7c1.1,5.2,2.3,10.4,7,13.8c0.3,0.2,0.6,0.5,0.8,0.9c3.7,6.2,7.3,12.4,10.9,18.6c-0.6,0-1.1,0-1.7,0
		c-0.5-0.6-1.2-1.2-1.6-1.9c-2.2-4.2-4.2-8.5-6.6-12.6c-1.1-2-2.8-3.7-4.2-5.6c-1.2-1.7-2.8-3.3-3.4-5.2c-1.4-4-2.1-8.3-3.4-12.4
		c-0.4-1.4-1.4-2.7-2.3-4c-0.5-0.7-1.2-1.1-1.9-1.6c-1.4-1.2-2.6-2.6-4.2-3.5c-1.8-1.1-3.3,0.7-5,0.9c-0.2,0-0.4,0.1-0.7,0.1
		c-2.9,0.8-5.9,1.5-8.8,2.3c0.8,3.3,0,5.2-2.1,6.1c-0.6,0.3-1.2,1-1.3,1.6c-0.4,2.5-0.7,5.1-0.8,7.6c-0.2,3.9-2.8,7.5-6.7,8.3
		c-3.7,0.7-7.7,0.6-10.9-1.5c-4.3-2.8-8-1-11.9,0.4c-0.3,0.1-0.7,0.7-0.7,1s0.4,0.8,0.8,0.9c0.7,0.3,1.4,0.5,2.1,0.6
		c6.3,1,11.8,3.9,17.2,6.9c4.9,2.7,7.9,7,10.6,11.7c-0.6,0-1.1,0-1.7,0c-1.7-2.4-3.2-5.2-5.3-7.2c-2.2-2.1-5-3.4-7.5-5.1
		c-3.7-2.4-7.8-4.1-12.2-4.6c0.2,3.5-1.1,6.6-2.6,9.6c-1.2,2.4-2.5,4.8-3.8,7.3c-0.6,0-1.1,0-1.7,0c2.4-5.7,6.9-10.6,6.8-17.3
		c-0.7-0.2-1.3-0.4-1.8-0.6c-1.5,3.6-3.2,6.9-6.4,9.1c-3.4,2.3-6.8,4.4-10.3,6.6c-0.4,0.2-0.8,0.5-1.2,0.5c-3,0.5-6,0.9-9.1,1.3
		c-3.1,0.3-6.2,0-9.2-0.8c-2.7-0.6-5.2-1.6-7.3-3.4c-1.2-0.9-2.5-1.6-3.7-2.5c-3-2-5.9-4.1-8.9-6.1c-1.7-1.1-3.4-2.6-5.3-3.1
		c-3.9-0.9-5.6-3.2-6-6.7c-2.1,2.3-4.3,4.6-6.3,6.8c1.5,1.2,3.1,2.5,4.7,3.8c2.2,1.8,4.4,3.7,6.6,5.5c2.7,2.3,5.5,4.6,8.2,6.8
		c-0.7,0-1.3,0-2,0c-2.9-2.3-5.9-4.6-8.8-7c-1.4-1.1-2.7-2.3-4-3.5c-1.6-1.4-3.2-2.9-5-4.2c-0.9-0.7-1.9-0.6-2.9,0.1
		c-3.1,2.4-6.2,4.7-9.8,6.1C0,119,0,118.5,0,117.9z M112.9,71c0.6-1,0.9-1.9,1.6-2.5c0.5-0.5,1.4-0.5,2.2-0.8
		c-0.2,0.7-0.3,1.4-0.5,2.1c0,0.1,0,0.2,0.1,0.4c0.5-0.2,0.9-0.3,1.3-0.5c2.7-1.4,3.8-3.2,2.8-5.6c-0.7-1.8-1.8-3.4-2.8-5.1
		c-1.5-2.6-3.1-5.1-4.5-7.7c-0.6-1.2-0.2-2.5,0.7-3.6c0,2,0,4,1.3,5.8c0.4-2.6,0.8-5.1,1-7.5c0.1-1.1-0.2-2.3-0.7-3.3
		c-0.7-1.5-1.3-3-1-4.8c0.3-1.6,0.3-3.2,0.4-4.3c-1.4-1-2.3-1.8-3.4-2.4c-2.1-1.1-3.9-2.6-6.6-2.2c-4.6,0.7-8.9-0.2-12.1-4
		c-0.3-0.4-1.2-0.5-1.8-0.5C87.8,24.7,85.2,26,83,28c-1.1,1-1.6,2.6-2.7,3.5c-1.4,1-1.7,2.4-2,3.8c-0.5,2.4-1.1,4.8-1.3,7.2
		c-0.5,4.9-2.7,9.1-4.5,13.6c-0.6,1.5-0.7,3.3-0.6,5c0.2,3.2,0.6,6.4,0.9,9.6c0,0.2-0.6,0.8-0.7,0.8c-1.5-0.7-3.5-1-4.3-2.2
		c-2.5-3.4-5.3-6.4-8.4-9.3c-3.7-3.4-8-3.9-12.6-1.8c-4.1,1.8-6.6,8.1-4.4,12.3c1.9,3.4,4.2,6.7,6.8,9.7c2.7,3.2,6.6,4.4,10.7,3.9
		c5.4-0.6,5.1-2.2,4.2-5.7C64,78,63.9,77.5,64,77.1c0-0.3,0.3-0.6,0.4-0.9c0.7,1.5,1.2,2.9,1.4,4.3c0.3,2-0.7,3.3-2.6,4.1
		c-3.5,1.4-6.9,1-10.3-0.2c-1.3-0.5-1.7-0.2-2.1,1.1c-0.9,3.2-2.1,6.3-3.3,9.5c-0.8,2-2.4,3-4.6,2.9c-0.6,0-1.3,0-1.8,0.2
		c-2.9,1.6-5.8,3.3-8.7,4.9c-3.4,1.8-6.8,3.5-10.2,5.2c0,0.2,0,0.4,0.1,0.6c0.8,0.3,1.6,0.7,2.4,1c1.8,0.8,3.7,1.5,5.3,2.6
		c3.3,2.1,6.5,4.5,9.7,6.8c1.6,1.1,3.4,2.1,5,3.3c4.2,3.1,9.1,3.5,14.1,3.6c2.3,0,4.7-1,7-1.3c2.1-0.3,4-0.7,5.7-2
		c1-0.8,2.2-1.4,3.3-1.9c4-2.1,7.5-4.7,9.6-8.7c0.4-0.8,0.6-2.1,0.4-2.9c-0.7-2.4-0.3-3.4,2.1-4.1c1.3-0.4,2.6-0.7,3.9-1.1
		c-1.4-0.8-2.9-1.2-4.4-1.7c-1.4-0.5-2.6-1.3-3.9-2c0.1-0.2,0.2-0.4,0.3-0.7c0.4,0.1,0.9,0.2,1.3,0.3c1.7,0.6,3.3,1.2,5,1.8
		c2.8,1,5.8,1.6,8.4,3c3.4,1.8,6.9,2.4,10.6,2.2c2.8-0.1,6.4-3.5,6.6-6c0.2-3.1,0.4-6.2,0.8-9.3c0.2-1.1-0.3-1.5-0.9-2.2
		c-2-2.3-3.9-4.7-5.7-6.9c3.4-1.7,7.6-3.8,11.6-5.9c-1-1.3-2.3-2.6-3.2-4.2c-0.8-1.6-1.7-1.6-3.1-0.9c-1.3,0.6-2.7,0.6-3.9-0.5
		c-1.5-1.5-2.1-3.4-1.6-5.5c0.4-1.7,2.5-2.8,3.8-2.1c-2.8,1-3.6,2.1-3.2,4.4C109.9,69.9,111.3,71.1,112.9,71z M161.7,65.8
		c0.1-0.2,0.3-0.4,0.4-0.6c-2.2-1.6-4.4-3.1-6.5-4.8c-2.2-1.8-4.5-1.6-6.5-0.1c-2.7,2-5.2,4.3-7.6,6.7c-0.9,0.9-1.4,2.2-2.1,3.3
		c1-0.2,1.7-0.5,2.4-1c3.6-2.8,7.8-4.4,12.2-5.6c1.7-0.4,3.2-0.2,4.7,0.6C159.6,64.8,160.6,65.3,161.7,65.8z M113.2,83
		c1,1.9,2.5,2.3,4.4,1.6c2.4-0.8,4.8-1.3,7.2-2.1c4-1.3,8.6-1.1,11.5-5c0.4-0.6,0.7-1.2,1-1.8c-0.1-0.1-0.3-0.2-0.4-0.3
		c-1.6,1.4-5.2,0-5.1,4.1c-0.3-0.7-0.6-1.3-0.9-2c-1.6,0.1-3,0.5-3.1,2.5c-0.2-0.5-0.5-0.9-0.7-1.4c-0.9,0.2-1.7,0.4-2.5,0.6
		c0,0.7,0,1.4,0,2c-0.1,0-0.2,0-0.3,0c-0.3-0.6-0.5-1.1-0.8-1.7c-1.2,0.3-2.4,0.6-3.6,0.9c0.2,0.7,0.4,1.3,0.6,1.8
		c-0.1,0-0.2,0.1-0.3,0.1c-0.3-0.5-0.7-1.1-1.1-1.7c-0.7,0.3-1.4,0.6-2.1,0.8c0.2,0.7,0.3,1.3,0.5,1.8c-0.1,0-0.2,0.1-0.3,0.1
		c-0.3-0.6-0.6-1.1-1-1.8C115,82.1,114.1,82.5,113.2,83z M152.5,81.9c1.2-0.7,2.5-1.4,3.6-2.2c1-0.7,1.3-2,0.6-2.9
		c-0.8-0.9-1.9-1.8-3-2.2c-0.8-0.3-1.9,0.1-2.8,0c-1.9-0.2-3.6,0.3-5.4,1.4C147.9,77.9,150.1,79.9,152.5,81.9z M110.4,84.3
		c1.7,1.6,3.4,3,4.9,4.5c1.2,1.2,2.4,0.5,3.5-0.2s1.1-1.7,0.7-2.8c-2.4,1.1-4.1,0.7-6.1-1.3C112.7,83.9,112,83,110.4,84.3z
		 M134.6,73.1c0.1,0.1,0.3,0.3,0.4,0.4c1.3-1.4,2.7-2.7,4-4.1c1.5-1.7,2.9-3.5,4.4-5.2c0.6-0.7,1.3-1.4,1.9-2.1
		c-0.1-0.1-0.3-0.2-0.4-0.3C140.1,64.3,137.5,68.8,134.6,73.1z M138.3,81c1,1.1,2.1,1.3,3.2,0.7c0.7-0.3,1.6-1.3,1.5-1.7
		c-0.2-0.8-1.1-1.4-1.8-2.2C140,79.1,139.2,80,138.3,81z M27.1,103.8c-2.2-0.6-4.3-0.8-6,0.7c-0.5,0.4-0.3,1.5-0.4,2.4
		C23.1,105.8,25.1,104.8,27.1,103.8z M122.1,77.9c-0.2-0.2-0.4-0.5-0.6-0.7c-3.5,1.7-6.9,3.5-10.4,5.2c3.4-1,6.7-2.1,10-3.4
		C121.5,78.9,121.7,78.3,122.1,77.9z M140.2,77.5c-2-0.3-4.2,0.5-4.4,1.6c-0.2,1-0.3,2.1,0.9,2.5C137.9,80.2,139,79,140.2,77.5z
		 M153.4,82.7c2.1,1.2,2.6,1.3,3.8-0.2c0.4-0.4,0.1-1.4,0.2-2.2C155.8,81.2,154.7,81.9,153.4,82.7z M137.4,72.1
		c1.6,1.6,3.5,1,5.1-1.4C140.4,70,139.3,71.8,137.4,72.1z M117.7,71.1c0.4,0.8,0.8,1.5,1.2,2.2c0.1,0,0.2-0.1,0.3-0.1
		c0-0.9,0-1.8,0-3C118.6,70.5,118.3,70.8,117.7,71.1z"/>
	<path class="st0" d="M61.3,74.9c-0.4-2.2-2.9-3.2-2.1-5.5c0.2-0.5,0.4-0.9,0.5-1.5c0.3,0.2,0.5,0.2,0.5,0.3c0,1.8,0.5,3.4,1.7,4.9
		c0.5,0.6,0.3,1.8,0.4,2.8c-1.1-0.1-2.5,0.2-3.3-0.3c-1.2-0.8-2-0.7-3.1,0.2c0.9,1.4,0.9,2.8-0.6,3.9s-3,1.1-4.8-0.2
		c-1.3-1-2.5-2.1-3.4-3.4c-1.4-2.1-2.6-4.4-3.8-6.7C41.6,66,45,59.3,49.6,59.1c4.4-0.2,6.9,1.6,7.6,5.9c0.3,1.5,0.2,3,0.2,4.5
		c0,0.4-0.5,0.8-0.8,1.1c-0.2-0.4-0.6-0.8-0.6-1.2c-0.1-1-0.3-2.1-0.2-3.2c0.4-2.4-1-3.8-2.4-5.2c-1.6-1.5-5.5-1.2-7,0.7
		c-2.1,2.4-3.6,5.2-1.1,9.1c1.8,2.8,3,6,6.1,7.7c0.8,0.4,2,0.3,2.9,0.2c0.3,0,0.7-0.9,0.7-1.4c0-0.3-0.8-0.7-1.2-0.7
		c-1.9-0.1-3-1.3-3.7-2.9c-0.7-1.7,0.2-3.1,0.8-4.6c0.1-0.2,0.6-0.3,0.7-0.3c0.2,0.3,0.5,0.6,0.5,0.9c-0.1,0.5-0.4,1-0.6,1.6
		c-0.6,1.4-0.2,2.4,0.9,3.4c1.1,0.9,2,0.5,3-0.2c1.3-0.9,2.7-1.4,4.1,0C59.8,74.7,60.5,74.7,61.3,74.9z"/>
	<path class="st0" d="M103.7,51.3c-2.9-1.8-5.7,0.9-8.9,0.5c0.5-0.4,0.7-0.6,1-0.7c2.1-0.5,4.2-1.1,6.3-1.5c1.3-0.2,2.5,0.2,3,1.7
		c0.7,2.1-1.4,5.5-3.7,5.5c-1.2,0-2.4-0.2-3.6-0.5c-2-0.6-3.9-1.3-5.8-2.1c-0.1,0-0.1-0.2-0.1-0.3C95.8,53.1,99.7,52.2,103.7,51.3z
		 M100,53.3c-1.2,0.3-2.4,0.7-3.7,1c0,0.2,0,0.4,0,0.7c1.3,0.3,2.6,0.6,3.9,0.8C100.1,54.8,100,54.1,100,53.3z"/>
	<path class="st0" d="M110.7,44.1c-0.1,0.2-0.2,0.8-0.5,1.2c-0.6,0.9-1.2,1.1-1.9,0c-0.5-0.8-1.2-2.1-1.9-2.1
		c-1.6,0-3.4,0.3-4.9,0.9c-1.6,0.6-2.9,1.6-4.4,2.3c-0.3,0.2-0.8-0.1-1.2-0.1c0.1-0.4,0-0.9,0.3-1.1c3.1-2.8,6.5-4.8,10.9-4.6
		C109.5,40.7,110.7,41.7,110.7,44.1z"/>
</g>
</svg>
