<?xml version="1.0" encoding="utf-8"?>
<!-- Generator: Adobe Illustrator 19.1.0, SVG Export Plug-In . SVG Version: 6.00 Build 0)  -->
<svg version="1.1" id="Layer_1" xmlns="http://www.w3.org/2000/svg" xmlns:xlink="http://www.w3.org/1999/xlink" x="0px" y="0px"
	 viewBox="0 0 150 160.1" style="enable-background:new 0 0 150 160.1;" xml:space="preserve">
<style type="text/css">
	.st0{fill:#FF5722;}
</style>
<g id="child-mother-flu">
	<path class="st0" d="M104.1,115.6c-5.2,0.3-9.5-1.1-12.7-5.3c-0.1,0.1-0.2,0.2-0.3,0.3c-0.2,0.9-0.5,1.8-0.5,2.8
		c0.1,3.2,0.1,6.4,0.5,9.6c0.4,3.7,0.4,7.2-0.6,10.9c-1.1,3.7-1.5,7.5-2.4,11.2c-0.9,3.8-2,7.6-3.1,11.4c-0.1,0.3-0.8,0.5-1.2,0.7
		c-0.1-0.1-0.3-0.2-0.4-0.2c0.1-0.6,0-1.3,0.2-1.9c0.4-1.7,1-3.4,1.5-5.2c0.5-1.8,1-3.6,1.4-5.4c0.2-0.6,0.4-1.3,0.4-1.9
		c0.1-1.7-0.7-2.3-2.3-2c-3.4,0.6-6.8,1.2-10.2,2c-2.3,0.5-4.4,1.6-6.6,2.2c-4.2,1.1-8.4,2.2-12.6,3.2c-5.2,1.2-9.4,3.9-12.4,8.4
		c-0.6,0.8-1.5,1.4-2.3,2.1c-0.1,0.1-0.6,0-0.6,0c-0.1-0.2-0.1-0.6,0-0.8c1.1-1.6,2.2-3.1,3.4-4.6c3.6-4.3,8.6-6,13.9-7.3
		c4.7-1.2,9.3-2.6,13.9-3.9c0.4-0.1,0.7-0.5,1.1-0.7c-0.3-0.3-0.6-0.8-1-1c-2.7-2-5.4-3.9-8.1-5.8c-0.6-0.4-1.1-1-1.5-1.6
		c-0.9-1.3-2.1-1.8-3.6-1.7c-6.6,0.1-13.2,0-19.9,0c-0.8,0-1.7,0-2.5-0.2c-3.7-1-7.5-0.7-11.3-0.6c-1.4,0.1-2.8,0.3-4.1,0.8
		c-3.6,1.1-7.2,2.4-10.1,4.8c-1.3,1.1-2.3,2.7-3.2,4.2c-2,3.3-3.8,6.6-3.9,10.6c-0.1,2-0.7,3.9-1.1,5.9c-0.2,1.2-1.1,0.7-1.9,0.7
		c0.4-1.7,0.8-3.2,1.2-4.8c0.2-0.7,0.5-1.5,0.5-2.2c-0.1-3.5,1.5-6.4,2.8-9.5c0.1-0.2,0.2-0.3,0.2-0.5c0.2-3.4,2.5-5.3,5-7.1
		c3.1-2.1,6.6-3.2,10-4.5c1.2-0.4,2.5-0.4,3.8-0.5c3.7-0.1,7.5-0.3,11.2,0.6c0.3,0.1,0.6,0.1,0.9,0.1c5.6,0.1,11.2,0.2,16.9,0.3
		c1.7,0,3.4,0,5.1-0.2c2.6-0.2,4.3-1.7,5.5-3.9c0.5-1,0.9-2.1,1.3-3.2c0.9-2.6,1.8-5.3,2.7-8c1.1-3.3,2.2-6.5,2.1-10
		c0-0.8-0.3-1.5-0.5-2.3c-0.2,0-0.3,0-0.5-0.1c-0.2,0.5-0.6,0.9-0.7,1.4c-1.3,3.8-3.6,6.8-6.6,9.4c-1.3,1.1-2.8,2.1-4.4,2.8
		c-2.3,1.1-4.2,0.5-5.5-1.7c-1.9-3.1-2.8-6.6-3.5-10.2c-0.2-1-0.2-2-0.3-3c0-0.4-0.1-0.8-0.3-1.1c-2-2.1-1.8-4.6-1.3-7.1
		c0.6-2.9,1.7-5.6,2.5-8.5c0.5-1.7,1-3.4,1.2-5.2c0.4-2.8,0.6-5.7,0.9-8.6c0.2-1.7,0.3-3.4,0.5-5.1c0.5-4,2.7-6.9,6.3-8.5
		c3.4-1.6,6.8-3,10.3-4.5c0.2-0.1,0.5-0.2,0.7-0.3c1.9-0.9,1.9-1.1,0.4-2.6c-0.7-0.7-1.4-1.6-1.9-2.5c-2.8-5.2-5.5-10.4-8.2-15.7
		c-0.2-0.4-0.4-0.8-0.4-1.2c0-4.6-0.6-9.2,0.1-13.6c0.6-3.7,1.8-7.6,4.3-10.8c2.1-2.6,4.8-3.9,8-4.4c2.3-0.3,4.7-0.8,7.1-0.6
		c4.6,0.3,8.8,1.8,11.8,5.6c1.1,1.4,1.7,3.1,2.5,4.7c1.4,2.9,2.9,5.9,4.2,8.9c0.6,1.3,0.7,2.8,1,4.2c0.5,2.6,1.1,5.2,1.6,7.8
		c0.4,2,0.9,4,1.1,6c0.4,3.4,0.4,3.4,3.7,3.3c3.8-0.1,7.7-0.1,11.3,1.5c1.4,0.7,3,1.4,4.1,2.5c3.6,3.5,6.3,7.7,7.3,12.8
		c0.6,3.1,2.3,5.8,4,8.5c1.5,2.3,2.9,4.8,3.8,7.4c1.7,5.1,3.9,9.9,7.4,14c2.5,3,4.6,6.5,5,10.3c0.4,4.1,2.2,7.6,3.1,11.5
		c0.9,3.7,1.5,7.6-0.9,11.2c-0.8,1.3-1.6,2.2-3.4,2.1c-2.9-0.2-5.8-0.1-8.7-0.2c-1.9,0-2.3,0-2.3,1.9c-0.1,3.6-0.1,7.1,0.2,10.7
		c0.5,5.3,1.3,10.6,0.8,15.9c-0.2,2-0.6,3.9-0.9,6c-0.3,0-0.6,0-1.1,0c0.3-5,0.6-10,1-15.3c-1.4,1-2.4,1.7-3.4,2.5
		c-1.8,1.4-3.9,2-6,2.6c-1.7,0.5-3,1.4-4.2,2.7c-0.2,0.2-0.6,0.3-0.9,0.4c0-0.4-0.1-0.9,0-1.1c1.3-1,2.5-2.2,4-2.9
		c2-1,4.4-1.3,6.2-2.7c0.7-0.5,1.4-1,2.1-1.5c0.5-0.3,0.9-0.6,1.5-1c-0.1-1-0.1-2.2-0.4-3.4c-0.6-2.3-0.5-4.7-0.4-7
		c0.1-2.1,0.1-4.2,0-6.4c0-0.4-0.4-1-0.7-1.1c-3-0.9-5.9-1.7-8.9-2.5c-0.3-0.1-0.9,0.5-1.2,0.9c-0.4,0.8-0.6,1.6-0.9,2.4
		c-1.2,3-2.3,6-3.5,9c-0.9,2.5-1.8,5.1-2.7,7.6c-1.7,4.6-3.3,9.2-6.2,13.3c-1.4,2-2.7,4-4.1,6c-0.2,0.3-0.4,0.6-0.6,0.8
		c-0.2,0.2-0.6,0.2-0.9,0.2c0-0.3-0.2-0.7,0-0.9c1.5-2.3,2.5-4.8,4-7.1c1.9-2.8,3.2-6,4.7-9.1c-1.4,0.3-2.5,0.9-3.3,2.1
		c-0.3,0.5-1.3,1.3-1.4,1.2c-0.9-0.7,0-1.3,0.3-1.9c0.9-1.6,2.5-2.4,4.1-2.8c0.9-0.2,1.2-0.6,1.5-1.3c1-2.8,1.9-5.6,3-8.3
		c1.3-3.4,2.9-6.7,4.3-10.1c1.1-2.6,1-2.6-1.6-3.7c-3.5-1.4-6.9-2.9-10.3-4.4c-1.4-0.6-2.2-0.3-2.4,1.2c-0.8,6.4-2.8,12.5-4.4,18.7
		c-2.1,8-5.4,15.5-10.1,22.4c-0.5,0.7-1.3,1.2-2,1.7c-0.1,0-0.2-0.1-0.4-0.1c0-0.5,0-1.1,0.2-1.6c0.1-0.4,0.4-0.7,0.6-1.1
		c1.8-2.9,3.9-5.7,5.5-8.8c1.2-2.3,1.9-4.8,2.8-7.2c1-2.9,2-5.7,2.9-8.6c0.8-2.9,1.4-5.9,2.1-8.8
		C103.1,119.7,103.6,117.7,104.1,115.6z M52.8,93.1c-1.7,0.4-3,1.3-4,2.6c-0.3,0.4-0.4,1.1-0.4,1.7c-0.5,3.9,0.7,7.6,2,11.2
		c0.5,1.4,1.2,2.7,2,4c0.6,1.1,1.7,1.6,2.5,1.1c2-1.3,3.9-2.6,5.8-4.1c1.9-1.5,3.2-3.5,4.2-5.7c1-2.2,2.7-4,3.8-6.1
		c2-4,3.6-8.2,5.5-12.3c2.2-4.7,4.6-9.2,6.9-13.8c0.4-0.8,1-1.7-0.5-2.1c-0.2-0.1-0.3-0.5-0.4-0.8c0.3-0.1,0.6-0.3,0.8-0.3
		c1.3,0.3,2.3-0.2,3.2-1.1c1.3-1.3,2.6-2.6,4.1-3.5c3-2,6.7-1.7,10.1-2.5c1.5-0.4,3.1-0.5,4.6-0.9c0.3-0.1,0.6-0.5,0.8-0.7
		c-0.3-0.1-0.7-0.3-1-0.4c-0.4-0.1-0.9-0.1-1.4-0.1c-3.1-0.1-6.1-0.3-9.2-0.4c-0.2,0-0.5,0.4-0.7,0.5c-0.6,0.2-1.3,0.4-1.9,0.4
		c-0.2,0-0.5-0.4-0.7-0.6c0.4-0.3,0.7-0.8,1.1-1c2.6-1.1,5.3-0.8,8-0.7c2.7,0.1,5.4,0.2,8.1,0.3c0.8,0,1.8-0.3,1.8-1.1
		c0-0.6-0.9-1.1-1.5-1.6c-0.3-0.2-0.8-0.1-1.2-0.2c-1.2-0.1-2.3-0.2-3.5-0.3c-3.4-0.5-6.8-0.5-10.2,0.4c-0.4,0.1-1-0.2-1.4-0.3
		c0-0.2,0-0.4,0-0.6c0.7-0.1,1.5-0.3,2.2-0.4c1.9-0.2,3.8-0.6,5.7-0.6c3.8,0,7.6,0.1,11.4,0.2c0.4,0,0.9-0.1,1.3-0.3
		c0.9-0.5,1-1.6,0.1-2.2c-0.3-0.2-0.6-0.3-0.9-0.4c-5.9-0.9-11.9-1.4-17.8,0c-0.2,0.1-0.5-0.1-0.7-0.1c0.1-0.3,0.1-0.6,0.2-0.8
		c0.2-0.2,0.5-0.3,0.8-0.3c1.6-0.3,3.2-0.6,4.8-0.7c3-0.1,6,0.1,9,0.1c0.7,0,1.5,0.4,2.2,0.2c0.6-0.1,1.1-0.8,1.7-1.2
		c-0.4-0.4-0.8-1-1.3-1.1c-0.9-0.3-1.8-0.5-2.8-0.6c-4.6-0.1-9.2,0.1-13.8,0.9c-0.3,0.1-0.7-0.3-1-0.4c0.2-0.3,0.4-0.7,0.7-0.8
		c0.6-0.2,1.2-0.2,1.8-0.3c1.4-0.2,2.9-0.4,4.3-0.7c0-0.2,0-0.4,0.1-0.6c-0.4-0.1-0.8-0.4-1.2-0.4c-0.7,0-1.4,0.3-2,0.1
		c-1.7-0.5-2.9,0.1-4.1,1.3c-0.8,0.8-1.8,1.4-2.6,2.1c-0.9,0.8-1.7,1.8-2.5,2.7c-0.6,0.8-1.1,1.8-1.6,2.7c-1,1.6-2,3.1-3.6,4.3
		c-0.9,0.7-1.6,1.9-2.2,2.9c-0.9,1.4-1.6,3-2.6,4.4c-1.7,2.3-3.7,4.5-5.4,6.8c-3,4-5.8,8-8.7,12c-1.8,2.5-3.6,5-5.4,7.5
		c-0.6,0.9-1.2,1.9-1.9,2.8c-1.6,2-3.2,4-3.5,6.7c0,0.2-0.4,0.4-0.7,0.6c-0.2-0.3-0.6-0.6-0.5-0.8c0.3-1.1,0.6-2.3,1.2-3.4
		C51.4,95.3,52.2,94.2,52.8,93.1z M84.2,138.7c0,0.1,0,0.2,0,0.2c0.7,0,1.3-0.1,2,0c1,0.1,1.3-0.3,1.5-1.2c0.1-0.9,0.3-1.9,0.6-2.8
		c0.4-1.6,1.1-3.3,1.1-4.9c0.1-4.2,0-8.5-0.3-12.7c-0.2-2.2,0.1-4.4,0.5-6.5c0.2-1.1,0.1-2.2-0.7-3.2c-1.2-1.3-2.4-2.7-3.3-4.2
		c-1.6-2.8-3.4-5.6-3.9-8.9c-0.2-1.1-0.7-1.6-2-1.6c-1.9,0-3.8,0-5.7-0.3c-0.8-0.1-1.2,0.1-1.5,0.7c-0.8,1.5-1.7,3-2.3,4.7
		c-0.4,1.1-0.5,2.4-0.3,3.5c0.3,2.8,0.9,5.6,0,8.4c-1.5,4.4-3,8.9-4.5,13.3c-0.6,1.8-1.4,3.5-2.9,4.7c-0.9,0.8-0.8,1.6-0.1,2.4
		c1.5,1.6,3,3.2,4.7,4.6c2.1,1.7,4.5,3.1,6.7,4.7c0.8,0.6,1.5,0.6,2.4,0.5C78.8,139.5,81.5,139.1,84.2,138.7z M92.1,25
		c-1.6,0.7-1.7,0.7-2.1-0.8c-0.1-0.4-0.2-0.8-0.4-1.2c-1.4-2.5-2.7-5-4.2-7.5c-1.2-2-3.2-3.2-5.2-3.9c-1.9-0.7-4.1-0.8-6.1-0.6
		c-1.9,0.1-4.1,0.4-5.6,1.5c-1.8,1.4-3.3,3.5-4.2,5.6c-1.5,3.3-1.8,6.9-1.5,10.6c0,0.4-0.1,0.8-0.2,1.1c-0.4-0.1-0.7-0.2-1.1-0.3
		c-0.2,0-0.3-0.2-0.4-0.2c-0.3,0-0.7,0-1-0.1c0,0.3-0.1,0.7,0,1c0.6,1.6,1.3,3.2,1.9,4.9c0.4,1.2,1.1,2.2,2.2,2.9
		c1,0.7,1.2,0.6,1.6-0.5c0.1-0.3,0.4-0.5,0.6-0.7c0.2,0.2,0.5,0.5,0.5,0.7c0.3,0.9,0.3,1.8,0.7,2.6c1.2,3.1,3.7,4.9,6.5,6.5
		c3.7,2.1,6.9,2,10-0.8c2.1-1.9,4.4-3.6,5.3-6.5c0.4-1.4,0.8-2.8,1.1-4.2c-1.1-1.1-1.2-1.6-0.3-2.8c0.1,0.3,0.4,0.6,0.3,0.7
		c-0.4,0.8,0.3,1.2,0.8,1.2c0.4,0,1.2-0.4,1.3-0.7c0.3-0.9,0.4-1.8,0.5-2.8c0.2-1.5,0.4-3.1,0.5-4.6c0.1-1.2,0.1-2.5,0-3.7
		c-0.1-1-1.3-1.4-1.8-0.7c-0.5,0.7-0.7,1.6-1,2.4c0.1,0.1,0.3,0.1,0.4,0.2c0.2-0.2,0.4-0.5,0.6-0.7c0.2-0.2,0.6-0.4,0.9-0.6
		c0.7,2.3-0.7,3.9-1.1,5.8C90.9,27.6,92.1,26.4,92.1,25z M107.7,112.1c0.3,0.2,0.5,0.3,0.6,0.4c4.4,1.7,8.8,3.6,13.3,5
		c7.5,2.3,15.3,3.8,23.2,3.4c1.1-0.1,1.9-0.5,2.4-1.5c2.1-4.2,1.4-8.3,0-12.5c-0.5-1.5-1.4-2.9-2-4.4c-0.3-0.7-0.4-1.4-0.4-2.2
		c0-1.2-0.9-2.3-2.1-2.5c-1.3-0.2-2.5-0.3-3.8,0.3c-1.8,0.8-3.7,1.5-5.5,2.3c-0.2,0.1-0.3,0.4-0.5,0.6c0.3,0.1,0.5,0.4,0.8,0.4
		c1.3,0,2.7-0.2,4-0.1c1.4,0.1,2.8,0.6,4.2,1c0.2,0.1,0.3,0.6,0.5,1c-0.3,0.1-0.6,0.3-0.8,0.3c-2-1.1-4.1-1-6.3-0.8
		c-2.6,0.2-5.3,0.2-7.9,0.1c-1.9,0-3.7-0.1-5.5-0.5c-1.7-0.3-3.2-1.1-4.8-1.6c-1.3-0.3-2.6-0.5-4.1-0.7c0.1,1.8,0,3.3-1.5,4.1
		c-1,0.5-1.2,1.1-1,2.1c0.5,2.4-0.4,4.1-2.3,5.5C108,111.7,107.9,111.8,107.7,112.1z M109.8,57.7c-1.3,0.5-2.3,1.1-3.4,1.4
		c-0.8,0.2-1.3,0.4-1.3,1.3c0,0.3-0.6,0.8-1,0.9c-1.4,0.3-2.8,0.5-4.1,0.8c-2.5,0.5-5.1,0.9-7.8,1.4c0.7,0.5,1.3,0.8,1.7,1.2
		c0.3,0.3,0.4,0.7,0.7,1c-0.4,0-0.8,0-1.2-0.1c-0.6-0.2-1.2-0.6-1.8-0.7c-3-0.4-3.8-0.3-3.9,2.9c0,0.6-0.1,1.2-0.1,1.7
		c0.1,2.4,0,4.9,0.2,7.3c0.4,3.5,2.2,6.5,3.8,9.4c0.2,0.4,0.9,0.9,1.3,0.9c2.6-0.1,5.2-0.3,7.8-0.4c0.6,0,1.3-0.1,1.8,0.2
		c1.1,0.7,2.3,0.6,3.5,0.5c0.5-0.1,1-0.2,1.5-0.1c2.1,0.3,3-0.9,3.7-2.6c0.7-1.7,1.6-3.4,2.5-5.1c1.6,1.4,2.9,1.1,4.2-0.5
		c1.4-1.7,1.5-3.5,1.2-5.4c-0.2-1-1-2.2-1.9-2.8c-0.8-0.5-1.7,0.4-2.3,1.2c0,0-0.1,0-0.3,0c0-0.6,0-1.2-0.1-1.8c-0.2-2-0.5-4-2-5.6
		c-1.2-1.3-1.8-2.9-2-4.6C110.3,59.3,110,58.4,109.8,57.7z M46.8,96.7c0.1,0,0.2,0,0.3,0c0.3-0.6,0.5-1.3,1-1.8
		c1.4-1.5,3-2.7,5.1-3.3c0.9-0.2,1.6-0.7,2.1-1.5c2.1-3.1,4.2-6.1,6.4-9c1.2-1.6,1.3-2.2,0.2-3.8c-0.8-1.1-1.8-2.1-2.7-3.2
		c-0.2-0.3-0.3-0.7-0.4-1.1c0.4,0.1,0.8,0.2,1.2,0.4c0.3,0.1,0.5,0.4,0.7,0.7c1.1,1.3,2.3,2.6,3.5,4c1-1.2,2-2.4,2.9-3.7
		c1.3-1.8,2.5-3.7,3.7-5.6c0.2-0.3,0.3-0.9,0.2-1.1c-1.9-2.7-2.4-5.8-2.8-9.1c-0.2-1.6-0.9-3-1.5-4.8c-1.5,0.7-2.7,1.3-3.9,1.9
		c-1.8,0.8-3.6,1.5-5.3,2.3c-3.2,1.6-5,4.2-5.3,7.8c-0.1,1.3-0.2,2.7-0.3,4c-0.4,3.6-0.7,7.2-1.1,10.8c-0.2,1.5-0.6,3.1-1.3,4.4
		c-1.2,2.5-2.1,5.1-2.4,7.8C46.9,94,46.9,95.3,46.8,96.7z M99.1,108.5c0.8-2.2,0.8-2.2-1.1-3.4c-2.3-1.5-4.7-2.9-7.1-4.4
		c-0.1,0.5-0.3,0.9-0.2,1.2c0.8,1.3,1.5,2.8,2.5,3.9c1.1,1.2,2.8,2,3.9,3.2c1.3,1.4,2.9,2,4.7,2.1c0.2,0,0.4,0,0.6,0.1
		c0.2,0.2,0.4,0.4,0.6,0.6c-0.3,0.1-0.6,0.4-0.9,0.4c-0.9-0.1-1.9-0.3-2.8-0.4c-0.6-0.1-1.3-0.2-1.6,0.7c-0.1,0.2-0.5,0.2-0.7,0.3
		c0.7-1.4,0.3-2.3-0.7-3.1c-0.2-0.2-0.3-0.4-0.5-0.5c-1.2-0.9-2.4-1.9-3.7-2.8c-0.8,1.9-0.6,2.5,0.5,3.7c1.4,1.5,2.9,2.6,4.9,3.5
		c2.1,0.9,4.1,1.2,6.2,0.7c1-0.2,1.8-1.2,2.7-2c0.3-0.3,0.3-1,0.6-1.3c1.7-1.2,2.6-2.8,2.4-5c0-0.4,0-0.8,0-1.2
		c-0.1-0.7,0.1-1.2,0.9-1.5c0.5-0.2,1.1-0.7,1.3-1.2c0.7-2.1-0.3-4.2-2.4-5.1c-1.3-0.6-2.5-1.2-3.9-1.7c-1.2-0.4-2.4-0.7-3.7-1
		c0,0.6,0,1-0.1,1.3c-0.3,0.4-0.7,0.7-1,1.1c0-0.4-0.2-0.9-0.1-1.3c0.1-0.6,0.5-1.3-0.4-1.6c-1.6-0.7-3.2-1.3-4.8-1.9
		c-1.1-0.4-2.2-0.8-3-1.1c-0.5,1.2-1,2.2-1.5,3.3c0.1,0,0.3,0.2,0.6,0.3c3.2,1.3,6.4,2.6,9.6,4c1.4,0.6,2.8,1.4,4.2,2.2
		c0.3,0.2,0.5,0.5,0.8,0.7c-0.4,0.1-0.8,0.5-1,0.4c-1.4-0.6-2.9-1.2-4.2-2c-0.8-0.5-1.4-0.6-1.8,0.5c-0.1,0.4-0.6,0.8-0.9,1.1
		c-0.1-0.1-0.3-0.2-0.4-0.2c0.1-0.3,0.2-0.7,0.4-1c0.7-0.9,0.5-1.5-0.5-1.9c-1.9-0.8-3.9-1.6-5.8-2.6c-1.6-0.8-3.1-1.8-4.7-2.7
		c-0.4-0.2-0.9-0.6-1.3-0.6c-0.6,0-1.2,0.2-1.8,0.3c0.3,0.5,0.4,1.1,0.8,1.5c1.4,1.3,3,2.4,4.4,3.6c3.7,3.1,7.8,5.5,12.1,7.4
		c0.9,0.4,2,0.4,2.9,0.7c0.4,0.1,0.6,0.7,0.9,1.1c-0.4,0.1-0.8,0.2-1.2,0.2c-1.2-0.2-2.3-0.5-3.4-0.7
		C99.9,108.4,99.9,108.4,99.1,108.5z M72.1,67c1.9-2.5,4.4-4.4,5.1-7.5c0.1-0.5,0.5-0.9,0.8-1.3c1.5-1.7,3.2-3.3,4.6-5.1
		c2.1-2.8,3.6-6.1,6.2-8.5c0.2-0.2,0.2-0.6,0.3-1c-0.3,0.1-0.7,0.2-1,0.4c-1.9,1.5-3.7,3.2-5.7,4.6c-1.3,0.9-2.9,1.4-4.6,0.9
		c-1.1-0.4-2.1-0.9-3.2-1.4c-0.7-0.3-1.4-0.4-2.2-0.6c0,0.8,0.2,1.5,0,1.8c-1,1.1-2,2.4-3.3,3.1c-1.2,0.7-1.4,1.3-0.9,2.4
		c1,2,1.2,4.2,1.5,6.4C69.9,63.2,70.7,65.1,72.1,67z M128.1,65.5c-0.2,0.1-0.3,0.1-0.5,0.2c0,0.3-0.2,0.6-0.1,0.8
		c0.5,2.2,1,4.5,2.3,6.4c0.7,1,1,2.1,0.7,3.3c-0.6,2.3,0.2,4.3,1.7,6.1c0.9,1,1.5,2.3,2,3.6c0.7,1.9,1.1,3.8,1.7,5.7
		c0.5,1.4,0.2,2.6-0.7,3.7c-0.5,0.6-1.1,1.3-1.6,2c-0.2,0.4-0.2,0.9-0.3,1.3c0.5,0,1,0,1.5,0c0.2,0,0.4-0.3,0.6-0.4
		c2.2-0.8,4.3-2.2,6.8-2c0.7,0.1,1.5,0.3,2.7,0.5c-1.3-2.4-2.3-4.7-3.6-6.7c-1.7-2.6-3.9-4.9-5.3-7.7c-2-3.9-3.4-8-5.1-12
		C130.2,68.6,129.1,67,128.1,65.5z M111.3,96.5c1.1,1.6,2.2,2.5,3.9,2.7c1.6,0.2,3.1,0.5,4.6,1.1c2.4,0.9,4.9,1.2,7.4,0.7
		c1.2-0.2,2-1.2,1.5-2.2c-1-2-2.5-3.6-4.4-4.8c-1.6-1-3.4-1.4-5.3-0.7c-1.2,0.4-2.4,0.8-3.6,1.3C114.1,95.2,112.7,95.9,111.3,96.5z
		 M81,86.9c0.9-3.1,0.5-4-2.7-6.6c-1.1,2.2-2.1,4.3-3.3,6.6C77.1,86.9,79,86.9,81,86.9z M94.8,88.1c0.2,1.1,0.4,1.9,0.5,2.8
		c2.9-0.4,5.6-0.8,8.4-1c1.7-0.2,3.4-0.2,5.1-0.3c0.4,0,0.8-0.3,1.2-0.5c0-0.2-0.1-0.4-0.1-0.5C104.9,88.4,100,88.3,94.8,88.1z
		 M97.9,91.6c0,0.1-0.1,0.2-0.1,0.3c3.8,1.1,7.6,2.3,11.3,3.4c-1-1.4-2-2.8-1.5-4.7c-1.7,0-3.2-0.4-4.6,0.7
		c-0.4,0.3-1.1,0.3-1.7,0.3C100.3,91.6,99.1,91.6,97.9,91.6z M80.8,81.1c0.4-1.3,0.9-2.5,1.2-3.7c0.6-2.2,1.2-4.3,1.8-6.5
		c0.1-0.3-0.2-0.6-0.3-0.9c-0.3,0.3-0.6,0.5-0.8,0.8c-0.9,1.8-1.7,3.6-2.7,5.3C78.8,78.2,78.9,79.5,80.8,81.1z M81.4,88.6
		c-2,0-3.9,0-5.7,0c-1.1,0-1.3,0.8-1.4,1.6c-0.1,0.9,0.6,1.1,1.3,1.1c1.9,0,3.8-0.1,5.8-0.2C81.4,90.3,81.4,89.6,81.4,88.6z
		 M86.2,91.3c2.2-3.8,5.1-1.6,7.8-1.2c0-0.6,0-1.1,0-1.8c-2.7,0-5.3,0-7.8,0C86.2,89.3,86.2,90.3,86.2,91.3z M89.8,90.3
		c-1.4,0-2.1,0.6-2.1,1.4c0,0.8,1.2,1.9,1.9,1.7c0.7-0.3,1.6-0.6,1.6-1.8C91.2,90.5,90.6,90.2,89.8,90.3z M82.1,88.6
		c0.1,0.9,0.2,1.6,0.3,2.4c0.9,0,1.7,0,2.7,0c0.1-0.9,0.1-1.8,0.2-2.8C84.2,88.4,83.2,88.5,82.1,88.6z"/>
	<path class="st0" d="M72.7,40.8c1.4-1.2,2.8-2.4,4.2-3.6c0.1-0.1,0.3-0.2,0.5-0.2c2.7-0.3,5.5-1,7.9,1.3c-1.2,2.7-4.8,4.5-7.8,3.8
		C75.9,41.7,74.3,41.2,72.7,40.8z M74.5,40.5c4.1,1.7,7.6,1.1,9.1-1.1C80.7,39.7,77.7,40.1,74.5,40.5z M83.5,38.2
		c-1.3-0.9-2.6-1.4-4-0.6c-0.2,0.1-0.5,0.2-0.7,0.1c-1.8-0.7-2.4,1-3.4,1.7C77.9,38.3,80.7,38,83.5,38.2z"/>
	<path class="st0" d="M65.9,27.2c3.3,1.7,5.7,1.1,8.2-2.2C71.5,23.3,66.7,24.7,65.9,27.2z M68.1,27.6c-0.1,0-0.1,0-0.2-0.1
		c-0.2-0.1-0.4-0.2-0.6-0.4c-0.2-0.2-0.2-0.5,0-0.7c0.1-0.1,0.1-0.1,0.1-0.2c0.1-0.3,0.4-0.3,0.7-0.2c0,0,0,0,0,0
		c0.2,0,0.5,0.1,0.5,0.4c0,0.2,0.1,0.4,0.2,0.6C69.1,27.3,68.4,27.9,68.1,27.6z M73.1,25.6c-0.1,0.2-0.3,0.4-0.4,0.5
		c0,0,0,0.1,0,0.1c0,0.1-0.1,0.1-0.1,0.2c-0.1,0.1-0.2,0.2-0.4,0.2h-0.2c-0.4,0-0.6-0.3-0.5-0.7v0c0,0,0,0,0,0c0,0,0-0.1,0-0.1
		c0,0,0,0,0,0c-0.1-0.1-0.1-0.1-0.2-0.2c-0.1-0.2-0.2-0.4,0-0.6c0.1-0.2,0.2-0.3,0.4-0.3c0.3,0,0.6,0.1,0.9,0.1c0.1,0,0.2,0,0.3,0.1
		C73.1,25,73.2,25.3,73.1,25.6z"/>
	<path class="st0" d="M86.8,24.5c-2.2,2.6-6.1,2.6-7.8,0C81.1,22.1,85.5,22.1,86.8,24.5z M80.4,24.3c0,0.2,0,0.3-0.1,0.5
		c0.7,0.2,1.3,0.4,2.2,0.7c-0.3-0.7-0.4-1.1-0.6-1.6C81.4,24.1,80.9,24.2,80.4,24.3z M84.4,23.9c-0.2,0.6-0.4,1-0.7,1.5
		c0.7-0.2,1.2-0.3,1.7-0.5c0-0.1,0.1-0.2,0.1-0.4C85.1,24.4,84.8,24.1,84.4,23.9z"/>
	<path class="st0" d="M73.5,22c-0.3,0.1-0.7,0.3-1,0.2c-2.7-1.3-5.1-0.4-7.4,1c-0.3,0.2-0.8,0.1-1.2,0.1c0.2-0.3,0.2-0.8,0.5-1
		c1.9-2,5.8-2.7,8.3-1.5c0.4,0.2,0.8,0.3,1.2,0.5C73.8,21.6,73.6,21.8,73.5,22z"/>
	<path class="st0" d="M81.9,20.1c1.4,0.1,2.4,0.2,3.3,0.3c0.4,0.1,0.8,0.4,1.1,0.7c0.2,0.2,0.2,0.5,0.2,0.8
		c-0.3,0.1-0.6,0.3-0.9,0.2c-1.8-0.8-3.5-0.4-5.2,0.1c-0.4,0.1-0.9-0.2-1.4-0.2c0.3-0.4,0.5-0.9,0.9-1.1
		C80.7,20.4,81.5,20.2,81.9,20.1z"/>
	<path class="st0" d="M75.7,30c-0.3,0.5-0.6,0.9-0.8,1.4c-0.2,0.5-0.1,1.1-0.2,1.7c0.5-0.1,0.9-0.2,1.4-0.2c0.4,0,0.8,0.1,1.2,0.3
		c0.7,0.4,1.3,0.5,1.9-0.3c0.2-0.3,1-0.2,1.5-0.2c0.9-0.8-0.2-1.1-0.6-1.7c0.9,0,1.4,0.5,1.5,1.2c0.1,0.8-0.4,1.2-1.1,1.4
		c-1.2,0.2-2.3,1-3.5,0.1c-0.1-0.1-0.5,0.1-0.7,0.1c-0.6,0-1.4,0.2-1.7-0.1c-0.4-0.4-0.5-1.3-0.3-1.8c0.2-0.7,0.8-1.3,1.2-1.9
		C75.5,29.9,75.6,30,75.7,30z"/>
	<path class="st0" d="M62.2,30.5c0.3,0.4,0.5,0.5,0.5,0.7c-0.1,1.5,0.7,2.5,1.6,3.5c0.2,0.2,0,0.7,0,1c-0.3-0.1-0.7-0.2-0.8-0.4
		c-0.8-1.1-2-2-1.7-3.6C61.9,31.4,62.1,31.1,62.2,30.5z"/>
	<path class="st0" d="M118.2,75.4c-0.4,0.9-0.8,2-1.4,3c-0.7,1.1-1.4,0.9-2.2-0.1c-1.4-1.7-0.8-2.9,0.3-4.3c0.3-0.4,0.5-1,0.8-1.4
		c0.6-0.9,1.2-1,1.7,0C117.8,73.3,117.9,74.2,118.2,75.4z M117.2,75.4c-0.4-0.5-0.6-0.8-0.9-1.2c-0.2,0.3-0.7,0.6-0.6,0.8
		c0.1,0.4,0.4,0.8,0.6,1.2C116.6,76.1,116.8,75.8,117.2,75.4z"/>
	<path class="st0" d="M106.1,69.1c-1.1-0.4-2.3-0.8-3.4-0.8c-1.1,0-2.4,0.4-3.1,1.8c0.9,0.5,1.8,1.1,2.7,1.4c1.3,0.5,2.7,0.7,4-0.4
		C107.2,70.2,107.2,69.6,106.1,69.1z M101.5,70.4C101.5,70.4,101.4,70.4,101.5,70.4c-0.4-0.1-0.8-0.2-1.1-0.4c0.8-0.7,1.3-1,1.7-0.9
		c0.1,0,0.1,0,0.2-0.1c0.2-0.1,0.3,0,0.4,0.1c0.5,0.1,0.6,0.7,0.3,0.9c0.1,0.3,0.2,0.5,0.4,0.9C102.6,70.8,102,70.6,101.5,70.4z
		 M105.8,70.9c-0.1,0.1-0.2,0.1-0.3,0.1c0,0,0,0,0,0c-0.4,0-0.5-0.3-0.5-0.5l0,0c0-0.1,0-0.3,0-0.4c0-0.5,0.6-0.7,0.9-0.4
		c0,0,0.1,0.1,0.1,0.1c0,0,0,0,0,0c0.1,0,0.1,0.1,0.2,0.2c0,0,0,0,0,0.1c0,0,0,0.1,0,0.1c0,0,0,0.1,0,0.1
		C106.2,70.6,106,70.8,105.8,70.9z"/>
	<path class="st0" d="M91.1,80c1.1-0.7,2-0.7,3.2-0.3c2,0.7,4,1.1,6.1,1.7c-1.6,1.8-4.6,2.6-6.7,1.9C92.3,82.7,91.5,81.6,91.1,80z
		 M98.5,82c-2.3,0.1-4.5,0-6.5-1.4C92.2,83,96.1,83.6,98.5,82z M92.6,80c1,1.2,3.8,1.8,5,1.1C95.8,80.6,94.2,80.3,92.6,80z"/>
	<path class="st0" d="M108.5,67.1c-2.6-0.1-5.2-0.2-7.8-0.4c-0.4,0-0.7-0.5-1-0.8c0.3-0.2,0.7-0.6,1-0.5c2,0.1,4,0.3,6,0.4
		C107.7,65.8,108.2,66.3,108.5,67.1z"/>
	<path class="st0" d="M88.5,66.7c1.4-0.6,2.9-1.1,4.4-0.2c0.5,0.3,0.9,0.9,1.3,1.4c0.4,0.7,0,1.2-0.7,1.4C91.3,70,89.4,69,88.5,66.7
		z M93.7,68.5c-0.2-0.1-0.5-0.4-0.7-0.4c-1.4,0.6-2-0.1-2.2-1.3c-0.5,0-0.9,0.1-1.5,0.1C90.4,68.7,91.8,69.1,93.7,68.5z"/>
	<path class="st0" d="M98.1,74.3c0.3,0.6,0.7,1.1,0.8,1.7c0,0.3-0.6,0.8-1,0.9c-1.2,0.1-2.4,0.2-3.5-0.1c-1.3-0.3-1.9-1.7-1.5-3
		c0.3-1,0.8-1.9,1.3-2.8c0.8-1.3,2.1-2.4,1.2-4.3c0.9,0.8,0.9,1.6,0.4,2.5c-0.8,1.4-1.6,2.8-2.3,4.2c-0.5,0.9-0.3,1.8,0.5,2.5
		c0.3,0.2,0.8,0.2,1.3,0.2c0.5,0,1.1,0,1.6,0c0.4,0,0.8,0.1,1.1,0.2c0-0.4,0-0.8,0-1.3c0-0.2-0.2-0.4-0.2-0.6
		C97.8,74.4,97.9,74.4,98.1,74.3z"/>
</g>
</svg>
