<?xml version="1.0" encoding="utf-8"?>
<!-- Generator: Adobe Illustrator 19.1.0, SVG Export Plug-In . SVG Version: 6.00 Build 0)  -->
<svg version="1.1" id="Layer_1" xmlns="http://www.w3.org/2000/svg" xmlns:xlink="http://www.w3.org/1999/xlink" x="0px" y="0px"
	 viewBox="-404 193.9 150 175.1" style="enable-background:new -404 193.9 150 175.1;" xml:space="preserve">
<style type="text/css">
	.st0{fill:#03A9F4;}
</style>
<g id="child-mother-cold">
	<path class="st0" d="M-254.9,306.6c-0.8-2.8-1.4-5.8-1.3-8.8c0-3.7-0.6-7.5-1.5-11.1c-0.3-1.4-1-2.7-1.5-4
		c-1.2-2.8-2.5-5.5-5.1-7.3c-0.2-0.2-0.5-0.5-0.5-0.8c0-1.1-0.4-1.9-1.3-2.6c0.6-0.3,1.1-0.5,1.6-0.8c0.5-0.3,1-0.6,1.4-0.9
		c0.9-0.6,0.9-1.8,0-2.4c-0.6-0.5-1.3-0.7-2.1-0.4c-0.4,0.2-0.8,0.3-1.3,0.4c0-0.3-0.1-0.4-0.1-0.6c-0.1-1.2-0.2-2.5-0.2-3.8
		c0-0.6,0.3-1.3,0.6-1.8c0.6-1.1,0.8-1.8,0.2-2.6c-0.5-0.8-1.1-1-2.3-0.6c-0.6,0.1-1-0.1-1.1-0.5c-0.1-0.2,0.1-0.7,0.3-0.9
		c0.6-0.6,1.4-1.2,2.1-1.8c0.7-0.5,0.8-1.3,0.5-2.1c-0.3-0.7-0.9-1-1.7-0.9c-0.7,0.1-1.4,0.3-2.1,0.6c-0.6,0.3-1.2,0.7-1.8,1
		c0,0-0.1-0.1-0.2-0.2c0.2-0.2,0.4-0.5,0.6-0.8c0.4-0.5,0.8-0.9,1.2-1.3c0.7-0.6,0.6-1.4,0.4-2.1c-0.2-0.8-0.9-1.1-1.6-1.1
		s-1.6,0.1-2.3,0.4c-0.8,0.3-1.5,0.9-2.1,1.4c-0.4,0.4-0.8,0.4-1.3,0.2c-1.4-0.7-2.8-1.3-4.2-1.9c-1.4-0.6-2.8-1.4-4.3-1.5
		c-3.2-0.2-6.4-0.3-9.5,0.8c-0.5,0.2-1,0.2-1.4,0.4c-0.8,0.5-1.7,1-2.5,1.5c-1.3,0.8-2.7,1.5-3.7,2.6c-1.6,1.8-2.9,3.8-4.5,5.6
		c-1.4,1.6-2,3.5-2.2,5.5c-0.3,3.3-0.6,6.5-0.9,9.8c-0.2,1.7-0.5,3.3-0.8,5.2c-0.6-0.3-1-0.4-1.3-0.6c-0.8-0.8-1.5-1.5-2.2-2.3
		c-1.8-2-3.5-4.1-5.2-6.1c-0.4-0.5-0.8-0.9-1.2-1.2c-1.7-1.4-3.2-3.1-4.1-5.1c-1-2.3-2.6-4.3-4.2-6.2c-0.3-0.3-0.5-0.8-0.5-1.2
		c-0.1-1,0-2.1,0-3.2c0.1-0.8-0.2-1.4-0.8-1.9c-0.8-0.7-1.6-1.4-2.5-2c-1.5-1-2.7-2.3-3.7-3.8c-0.3-0.4-0.7-0.9-1.1-1.2
		c-0.4-0.3-0.4-0.5-0.3-1c0.6-2.1,1.2-4.3,1.5-6.5c0.3-2.1,0.1-4.3,0.1-6.4c0-0.6-0.2-1.3-0.4-1.8c-0.2-0.6-0.1-0.9,0.3-1.2
		c0.5-0.4,1-0.8,1.3-1.3c1.5-2.8,2.1-5.8,1.9-8.8c-0.2-3.6-1.8-6.8-4.7-9.2c-1.6-1.3-3.1-2.5-4.6-3.9c-0.9-0.8-1.6-1.8-2.3-2.8
		c-0.6-0.9-1.2-1.9-2-2.7c-1.9-1.7-3.9-3.3-6.3-4.1h-14.7c-1.3,0.4-2.6,0.8-3.9,1.3c-1.6,0.6-3.3,1.2-4.9,2c-2,1.1-3.7,2.6-4.7,4.7
		c-0.1,0.3-0.5,0.6-0.8,0.6c-0.8,0.5-1.3,1.1-1.4,2.1c-0.1,1.6-0.9,2.9-1.6,4.3c-1,1.9-2,3.8-2.9,5.7c-0.4,0.9-0.5,2-0.7,3.1
		c-0.4,2.2-1.1,4.4-1.3,6.6c-0.3,2.9-0.3,5.9,1.1,8.7c0.4,0.8,0.6,1.6,0.8,2.4c0.9,3.6,2.8,6.6,4.9,9.6c0.2,0.3,0.6,0.6,0.9,1
		c0.6,0.8,0.5,1.4-0.3,2.1c-0.2,0.2-0.4,0.4-0.7,0.5c-3,1.6-5.3,4.1-7.8,6.4c-3,2.8-5.7,5.9-7.5,9.6c-0.9,2-1.4,4.2-2,6.3
		c-0.6,2-1,4-1.5,6c-1.2,5.1-1.5,10.3-1.3,15.5c0,0.9,0.4,1.7,0.5,2.5c0.6,3.5,1.1,6.9,1.8,10.4c0.1,0.6,0.2,1.1,0.3,1.7
		c0.1,0,0.2-0.1,0.3-0.1c-0.1,8.8,2.8,17.2,4.6,25.8c2,9.6,2.9,19.4,2.9,29.2c0,0.6,1,0.6,1,0c0-9.3-0.8-18.5-2.5-27.6
		c-1.8-9.4-5.2-18.7-4.9-28.4c0-0.3-0.2-0.5-0.4-0.5c-0.2-0.9-0.3-1.8-0.5-2.6c-0.5-2.7-0.9-5.5-1.6-8.2c-1-4.1-0.5-8.1,0-12.1
		c0.4-3.6,1.5-7.2,2.2-10.8c0.1-0.1,0.1-0.2,0.1-0.3c0.5-1.8,0.8-3.8,1.6-5.5c1.7-4,4.6-7.2,7.5-10.2c2.8-2.5,5.6-5.2,9.2-6.8
		c0.7-0.2,1-0.2,1.5,0.2c1.7,1.5,3.6,2.6,5.8,3.1c0.7,0.2,1.4,0.3,1.2,1.3c0,0.3,0.2,0.7,0.4,1c0.5,1,1,2.1,1.5,3.1s0.9,2.1,1.6,3
		c2.3,3,4.6,6,6.9,9c1.8,2.3,3.6,4.6,5.2,7c1.1,1.8,2,3.9,2.9,5.9c0.7,1.6,1.9,2.8,3.3,3.7c0.9,0.6,2.3,0.5,2.7-0.3
		c0.8-1.4,1.5-2.9,1.8-4.5c0.4-1.9,0.4-3.9,0.6-5.8c0.2-1.3,0.6-2.6,0.7-3.9c0.4-3.6-1.1-7-1.4-10.5c-0.1-1.4-0.6-2.9-0.9-4.3
		c-0.2-0.6,0-1,0.7-1.1c1.3-0.3,2.4-1,3.3-1.9c1.8-1.7,2.4-4,3-6.3c0.3-1,0.6-2.1,1.3-2.9s1-0.8,1.6,0.1c0.2,0.3,0.3,0.6,0.5,0.8
		c1.1,1.1,2.1,2.3,3.2,3.3c0.9,0.8,1.9,1.4,2.8,2.2c0.3,0.4,0.6,0.9,0.6,1.4c0.1,1.2,0,2.4,0,3.6c0,0.2,0,0.6,0.2,0.8
		c0.6,0.7,0.5,1.4,0.2,2.2c-1,2.9-2.5,5.4-4.6,7.6c-0.7,0.7-1.7,1.1-2.8,1.8c0-0.6-0.1-1,0-1.4c0.2-1,0.5-1.9,0.7-2.9
		c0.2-0.8,0.4-1.7,0.6-2.6c0.1-0.2,0-0.5,0-0.7c-0.2,0.2-0.6,0.3-0.6,0.5c-0.5,2.3-1.5,4.4-1.4,6.8c0.1,1.3,0.3,2.6-0.9,3.6
		c-0.1,0.1-0.1,0.3-0.2,0.4c-0.7,1.7-0.6,2,1.1,2.8c0.9,0.4,1.5,1,1.7,1.9c0.6,2.1,1.2,4.2,1.7,6.3c0.6,2.1,1,4.3,1.5,6.5
		c0.5,2,0.9,4.1,0.5,6.2c-0.6,2.7-1.9,5.1-3.9,7.1c-1.1,1-2.1,2-3.1,3.1c-0.3,0.3-0.6,0.8-0.7,1.3c-0.3,1.2-0.3,2.5,0.3,3.6
		c0.3,0.7,0.2,1.1-0.5,1.4c-3.5,1.8-7,3.6-10.5,5.4c-0.5,0.2-1.1,0.5-1.7,0.8c-0.3-0.9-0.5-1.6-0.8-2.4c-0.2-0.6-0.1-0.8,0.6-1
		c2.8-0.6,4.8-2.5,6.7-4.4c0.1-0.1,0-0.4,0-0.6c-0.2,0-0.4-0.1-0.6,0c-0.1,0.1-0.3,0.3-0.4,0.4c-1.5,1.5-3.1,2.8-5.1,3.6
		c-1.3,0.4-1.6,0.4-2-0.9c-1.3-4.2-2.5-8.4-3.9-12.5c-1-3.2-2.3-6.3-3.5-9.4c-0.1-0.3,0-0.7,0.1-1c0.4-1,1-2,1.3-3
		c0.7-2.2,0.3-4.5,0.1-6.7c-0.1-1.3-0.4-2.6-1.2-3.6c-0.2-0.2-0.5-0.3-0.8-0.5c2.1,4.1,2.1,10-0.1,12.9c-0.5-0.9-0.5-0.8-0.1-1.7
		c0.3-0.5,0.5-1.1,0.4-1.6c-0.1-1-0.4-2.1-0.6-3.2c-0.2-1.1-0.9-1.8-1.7-2.4c-0.1-0.1-0.3-0.1-0.5-0.1c0,0.2,0,0.4,0.1,0.6
		c0,0.1,0.2,0.2,0.3,0.3c1,0.9,1.9,4.3,1.5,5.6c0,0.1,0,0.2-0.1,0.3c-0.4,0.6-0.8,1.2-0.2,1.9c-0.2,0.1-0.2,0.1-0.3,0.1
		c-6-0.6-12-1-18-0.9c-2.4,0.1-4.9,0-7.3,0.5c-1.6,0.3-3,0.8-4.4,1.4c-1.3,0.6-1.4,1.5-0.3,2.3c0.5,0.4,1.1,0.5,1.6,0.7
		c0.3,0.1,0.6,0.2,0.7,0.4c0.6,1.4,1.1,2.8,1.7,4.2c1,2.5,1.8,5.1,3,7.5c1.4,2.8,3.2,5.3,4.8,8c0.7,1.1,1.4,2.2,2.1,3.3
		c0.9,1.5,1.6,3.1,2.6,4.5c1.3,1.7,2.1,3.8,3.8,5.3c0.7,0.7,1.2,1.7,1.8,2.5c1.9,2.2,3.7,4.5,5.6,6.7c1.2,1.4,2.7,2.7,4.1,3.9
		c0.8,0.7,1.8,1.1,2.7,1.6c1.5,1,3.2,1.2,5,1.2c0.2,0,0.4-0.1,0.6-0.2c1.7-1.1,3.3-2.2,5-3.2c1.7-1,3.3-2.2,5.1-3
		c2.7-1.3,5.3-2.8,7.8-4.6c0.8-0.6,1.7-1.1,2.8-1.8c-2,5.9-2.8,11.4,0.4,16.7c-0.7,1.2-1.5,2.4-2.1,3.6c-1.2,2.5-2.8,4.6-4.7,6.6
		c-1,1.1-2.1,2.2-3,3.4c-0.9,1.1-1.6,2.4-2.3,3.6c-0.1,0.2,0,0.5,0,0.8c0.2-0.1,0.5-0.2,0.6-0.4c0.3-0.4,0.5-1,0.8-1.4
		c1.2-1.6,2.1-3.3,3.5-4.6c2.4-2.4,4.4-5,5.8-8c0.5-1,1.2-1.9,1.7-2.8c1,0.9,2,1.8,3,2.6c0.4,0.4,0.9,0.7,1.4,1
		c1.8,1.4,4.1,1.6,6.1,2.5c0,0,0.2,0,0.3,0c1.5,0.1,2.9,0.1,4.3,0.2c0.2,0,0.6,0.4,0.6,0.6c-0.1,0.9-0.1,1.8-0.4,2.5
		c-0.9,2.1-1.7,4.3-2.2,6.5c-0.4,2-1.2,4-1.9,6c0.3,0,0.6,0,0.9,0.3c0.6-1.8,1.4-3.7,1.8-5.6c0.6-2.4,1.3-4.6,2.3-6.7
		c0.2-0.5,0.2-1.1,0.3-1.7c0.1-0.3,0.1-0.6,0.2-1.1c0.7,0.7,1.3,1.1,1.8,1.7c1.1,1.3,2,2.7,3.2,3.9c1.2,1.2,2.6,2.3,4,3.1
		c2.2,1.3,4.5,2.3,6.7,3.4c0.6,0.2,1.1,0.7,1.6,1c0.3,0.2,0.9,0.4,1,0.3c0.5-0.5-0.1-0.7-0.4-0.9c-0.7-0.5-1.4-0.9-2.2-1.3
		c-2.9-1.4-6-2.6-8.5-4.7c-1.2-1-2-2.4-3.1-3.6c-1-1.1-2.1-2.2-3.2-3.3c-0.6-0.6-0.7-1.1-0.3-1.7c0.3-0.4,0.5-0.8,0.8-1.1
		c1.7-1.9,1.9-4.4,2.8-6.7c0.4-1.1,1-2.1,1.5-3.2c0.9-1.9,1.8-3.8,2.6-5.8c0.2-0.6,0.4-1,1.1-1.2c1.9-0.7,3.8-1.6,5.7-2.3
		c2.1-0.8,4-2,5.8-3.5c1.4-1.2,1.8-2.3,1.3-3.6c-0.2-0.5-0.5-0.9-0.9-1.5c0.3,0,0.6-0.1,0.8,0c1.8,0.6,4.3,0,5.8-1.3
		c0.1,0.1,0.1,0.3,0.2,0.4c1.3,3.2,2.5,6.3,3.7,9.5c0.2,0.6,0.5,1.1,0.7,1.7c0.5,1.3,0.9,2.6,1,4.1c0.2,2.5,1,4.9,2.6,6.9
		c0.1,0.2,0.3,0.3,0.5,0.4c1.4,0.6,2.8,1.1,4.2,1.8c1.9,1,3.7,2,5.6,3c0.4,0.2,0.7,0.4,1.1,0.5c0.9,0.2,1.2,0.8,1.2,1.6
		c0,2.2,0.2,4.4-0.4,6.6c-0.4,1.4-0.2,2.9-0.2,4.4c0,0.4,0.1,0.8,0,1.2c-0.9-1.3-2.3-1.1-3.5-1.6c-3.9-1.7-7.2-4-9.4-7.7
		c-0.1-0.1-0.2-0.1-0.6-0.3c0.1,0.5,0.1,0.9,0.3,1.1c2.4,3.8,5.9,6.3,10.1,7.9c0.3,0.1,0.6,0.1,0.9,0.2c0.2,0.1,0.6,0.1,0.7,0.3
		c0.5,0.9,1.6,1.4,1.6,2.6c0,0.9,0.1,1.9,0.1,2.8h0.9c0-1.6-0.1-3.1-0.1-4.7c-0.1-1.9-0.4-3.9,0-5.8c0.6-2.5,0.4-4.9,0.4-7.3
		c0-0.6,0.2-0.8,0.7-1c1.2-0.4,2.5-0.7,3.5-1.4c1.6-1.2,2.9-2.7,3.7-4.6c1-2.4,1.9-4.9,2.7-7.4c0.2-0.8,0.5-1.7,0.5-2.5
		c0.1-4.2,0.2-8.3,0.3-12.5c0-1.8,0.3-3.6,0.5-5.4c0.2-1.2,0.6-2.4,0.7-3.6C-253.9,310.9-254.3,308.7-254.9,306.6z M-370.6,199.8
		c0.8,0.4,1.5,0.9,2.2,1.4c1.1,0.7,2.2,1.3,3.2,2c0.7,0.4,1.4,0.9,1.9,1.6c0.5,0.6,0.6,1.4,0.8,2.1c0.2,0.9,0.4,1.9,0.6,2.8
		c0,0.3-0.2,0.7-0.2,1c0,0.2,0.2,0.4,0.4,0.7c-0.2-0.1-0.4-0.1-0.6-0.1c0,0.1,0,0.1,0,0.2c0,0.2,0.1,0.5,0.1,0.7
		c-0.1,0.2-0.3,0.5-0.5,0.5c-0.1,0-0.4-0.2-0.5-0.4c-0.5-1.6-0.9-3.2-0.9-4.9c0-0.6-0.5-1.2-0.9-1.7c-0.3-0.5-0.7-0.9-1.1-1.3
		c-1.2-1.1-2.3-2.1-3.5-3.2c-0.4-0.3-0.8-0.8-1.2-1.2C-370.7,199.9-370.6,199.9-370.6,199.8z M-339.5,243.1c-0.1,0.5-0.4,1-0.7,1.3
		c-0.9,0.9-1.3,1.9-1.6,3.1c-0.5,1.6-0.9,3.4-1.7,4.9c-0.8,1.4-2,2.5-3.8,2.9c-1.1,0.2-2.3,0.7-3.5,0.6c-1.6-0.2-3.3-0.2-4.8-0.6
		c-1.7-0.5-3.2-1.4-4.8-2.1c-0.6-0.2-1.2-0.7-1.8-1c-0.3-0.2-0.7-0.2-1.1-0.2c-0.3,0-0.5,0.2-0.7,0.4c0.2,0.1,0.4,0.3,0.6,0.4
		c0.6,0.3,1.3,0.5,1.9,0.9c3.7,2.4,7.8,3.6,12.2,3.2h0.6c0.4,2.3,0.8,4.5,1.2,6.8l0.9,4.5c0.4,2.1,0.4,4.2-0.1,6.3
		c-0.4,1.9-0.7,3.9-0.8,5.8c-0.1,1.7-0.7,3-1.4,4.4c-0.1,0.2-0.2,0.4-0.3,0.6c-0.4,0.9-1,1.1-1.8,0.6c-1.4-0.9-2.5-2.1-3.1-3.6
		c-1.9-4.8-4.8-8.9-8.1-12.8c-2.2-2.6-4.3-5.2-6.3-8c-0.9-1.2-1.3-2.7-1.9-4c-0.5-1-1.1-1.9-1.6-2.9c-0.2-0.3-0.3-0.6-0.3-1
		c3.2,1.6,6.9,2.7,7,7.3c1.7-0.9,1.4-2.3,1.4-3.6c0.1-3.4-1.8-5.9-3.8-8.4c-0.9-1.1-1.6-2.4-2.4-3.6c-1.7-2.5-2.4-5.4-2.7-8.3
		c-0.3-2.3-0.4-4.6,0.1-6.8c0.5-2.1,0.7-4.4,2.2-6.1c0.7-0.8,1.4-1.4,2.2-2c1.7-1.3,3.3-2.9,5.5-3.1c2.3-0.2,4.6-0.3,6.8,0
		c1.9,0.2,3.5,1.4,4.6,3c1,1.4,2,2.9,2.8,4.4c0.5,0.8,0.6,1.7,0.9,2.6c0.1,0.4,0.3,0.8,0.5,1.3c1.8-1.7,3.9-2.4,6.1-2.8
		c0.7-0.2,1.4-0.7,2-1c1.1,1.7,1.6,3.6,1.4,5.7c-0.1,1.2,0,2.5-0.1,3.7c-0.1,0.8-0.2,1.7-0.4,2.5C-338.6,240-339,241.5-339.5,243.1z
		 M-266.4,269c0.5-0.4,1.1-0.7,1.7-0.9c0.6-0.1,1.2,0.1,1.4,0.8c0,0.2-0.1,0.5-0.2,0.6c-1.1,0.7-2.2,1.3-3.3,1.9
		c0,0-0.1-0.1-0.2-0.2c0.1-0.4,0.2-0.7,0.2-1.2C-266.6,269.7-266.6,269.2-266.4,269z M-266.7,259.4c0.5,0.5,0.3,1.1-0.4,1.8
		c-0.3-0.7-0.6-1.2-1-1.8C-267.6,259-267.1,258.9-266.7,259.4z M-268.9,272.6c0.3-0.2,0.6-0.4,1-0.6c-0.1,1,0.2,1.2,0.9,0.8
		c0.6-0.2,1.1,0,1.2,0.8c0.1,0.6,0.2,1.1,0.3,1.7v0.3c-0.1,0.6-2.3,2.2-2.9,2.1c-0.3,0-0.5-0.3-0.7-0.6c-0.2-0.3-0.2-0.7-0.4-1
		C-270,275.1-269.7,273.4-268.9,272.6z M-271.1,254.5c1-0.7,1.9-1.7,3.2-1.5c0.3,0,0.7,0.3,0.8,0.5c0.1,0.3,0.1,0.8-0.1,1
		c-0.9,0.8-1.9,1.5-2.8,2.2c-0.5-0.6-0.8-1-1-1.3C-271.1,255.1-271.2,254.6-271.1,254.5z M-271.8,249c1,0.3,1.4,1.2,0.7,2
		c-0.4,0.4-0.8,0.8-1.3,1.2c-0.1,0.1-0.5,0.1-0.6,0c-0.8-0.5-1.7-1-2.5-1.5C-274.8,249.6-272.9,248.7-271.8,249z M-309.8,275.9
		c0.2-1,0.3-2.1,0.3-3.1c0.1-2.1,1.2-2.3,2.6-2.5c0.9-0.2,1.7-0.2,2.6-0.4c0.3,0,0.5-0.4,0.8-0.6c-0.2-0.1-0.5-0.4-0.8-0.4
		c-1.6,0.2-3.1,0.5-4.7,0.7c0,0,0-0.2,0-0.3c0.3-2.5,0.4-5.1,0.8-7.7c0.3-2.4,2-3.6,4.1-4.4c3-1.1,6.2-1.6,9.4-1.8
		c0.8-0.1,1.5-0.3,2.1-1c0.2-0.3,0.6-0.4,0.9-0.6c1.3-0.7,2.6-1.4,4-2.1c1.1-0.5,2.2-0.9,3.3-1.3c-2.1,2.3-5.5,2.9-7.4,5.4
		c1.1,0.6,2.1,1.3,3.3,1.9c2.9,1.4,4.6,3.8,5.6,6.8c0.5,1.6,1.2,2.9,2.4,4.1c1,1,1.5,2.3,1.6,3.7c0.1,1.2,0.3,2.5,0.2,3.7
		c-0.1,0.9-0.5,1.8-1,2.6c-1.2,1.9-1.3,3.9-0.8,6c0.1,0.2,0.3,0.3,0.4,0.5c0.2-0.2,0.4-0.3,0.5-0.5c0.4-1,0.7-2.1,1.2-3
		c0.4-0.7,1-1.7,1.7-2c1.3-0.6,2.8-1,4.2-1.2c1.3-0.1,2.2,1.2,2,2.5c-0.3,1.2-0.4,2.4-0.7,3.6c-0.4,1.7-1.6,2.9-2.9,3.9
		c-1.1,0.9-2.2,1.6-3.8,1.5c-1.6-0.1-1.8-0.4-2-2c-0.1-0.5-0.1-1-0.1-1.5h-0.3c-0.1,0.4-0.1,0.9-0.2,1.3c-0.1,0.4-0.1,0.9-0.4,1.2
		c-1.3,1.4-2.6,2.8-3.9,4.1c-1.5-1.2-2.8-2.2-4.1-3.2l-1.5-0.9c-0.7-0.5-1.4-0.5-2,0.1c-0.6,0.5-0.5,1.2-0.2,1.9
		c0.1,0.2,0.3,0.4,0.4,0.6c-1.5-0.5-2-0.1-2.4,1.7c0,0.1-0.1,0.1-0.2,0.1c-0.2-0.6-0.5-1.2-0.5-1.8c0-1-0.3-1.8-0.9-2.5
		c-0.4-0.4-0.4-0.8-0.1-1.2c0.6-1,1-2,1.2-3.2c0.1-0.7,0.5-1.4,0.8-2c1.1-2.2,0.5-3.2-1.4-4.4c-0.6-0.3-1.3-0.6-1.9-0.9
		c-1-0.5-2-0.5-3,0.1c-0.8,0.5-1.7,0.3-2.5,0.1c0.6-1.3,1.2-2.5,1.7-3.7c0.4-1.1,0.3-2.1-0.4-3l-0.3-0.3c0-0.1-0.1-0.1-0.4-0.1
		c1.6,2.7,0,4.6-1.3,6.8c-0.9-1.4-1.9-1-2.9-0.5c-1.1,0.6-2.4,1-3.8,1.5C-310.3,277.3-310,276.6-309.8,275.9z M-280.7,295.7
		c0.4,0,0.9,0,1.5,0.1c-1.5,1.8-2.2,3.9-2.6,6.2c0.2,0,0.5,0,0.5,0c0.2-0.3,0.3-0.7,0.5-1c0.7-1.3,1.3-2.6,2.1-3.9
		c0.1-0.2,0.7-0.3,1.1-0.2c0.2,0,0.4,0.6,0.3,0.9c-0.6,2.3-0.3,4.5,0.3,6.7c0.3,1.1,0.1,2-0.5,2.9c-1,1.3-1.8,2.7-2.7,4
		c-0.2,0.3-0.6,0.5-1,0.9c-0.2-0.9-0.5-1.5-0.6-2.2c-0.4-2.4-0.9-4.8-1.2-7.2c-0.2-1.5-0.2-2.9-0.4-4.4c-0.1-1.3-0.5-2.5-0.8-3.8
		c-0.1-0.4-0.1-1,0.1-1.2c1.2-1.1,2.6-2.1,3.5-3.6c0.1-0.1,0.3-0.1,0.4-0.2c0.2,0.2,0.4,0.4,0.5,0.5c-0.7,1.4-1.3,2.8-1.9,4.2
		C-281.9,295.1-281.5,295.6-280.7,295.7z M-280.2,312.4c1.3-1.7,2.5-3.4,3.7-5.1c0.1-0.1,0.2-0.2,0.4-0.3c0.4,0.7,0.3,1.2-0.1,1.8
		c-1.1,1.4-2.1,2.9-3.2,4.4c-0.1,0.2-0.6,0.3-0.8,0.2C-280.5,313.2-280.5,312.8-280.2,312.4z M-278.8,313.9c1.5-1.1,2.1-2.7,3-4.2
		c0.1-0.1,0.3-0.3,0.5-0.4c0.1,0.2,0.3,0.3,0.3,0.5c0,1.6,1.1,2.6,2,3.7c0.2,0.3,0.3,0.5,0.5,0.8c-0.4,0.8-0.8,1.6-1.1,2.4
		c-0.3,0.9-0.6,1.8-0.9,2.7c-0.1,0.2-0.2,0.4-0.3,0.6c-0.2-0.1-0.4-0.2-0.5-0.4c-0.9-1.9-2.2-3.4-3.6-4.9
		C-279,314.5-278.9,314-278.8,313.9z M-309.9,278.5c1.3-0.6,2.8-1.2,4.2-1.7c0.3-0.1,0.8,0.1,1.1,0.3c1.4,1.2,2.8,1.4,4.4,0.6
		c0.8-0.3,1.6-0.4,2.3,0c1,0.5,2,1.1,2.9,1.8c1,0.7,0.8,1.7,0.3,2.6c-0.6,1.1-0.9,2.3-1.2,3.5c-0.2,0.7-0.6,1.3-1,1.9
		c-0.1,0.1-0.5,0.3-0.7,0.2c-0.8-0.2-1.5-0.5-2.4-0.8c0.3-0.7,0.6-1.3,0.6-2c0.5-1.2,1.1-2.5,1.5-3.7c0.2-0.6,0.5-1.5-0.2-1.9
		c-0.6-0.4-1.7-0.7-2.3-0.4c-0.9,0.4-1.7,1.2-2.3,2c-0.8,1-1.4,2.2-2.1,3.3c-0.7,1-1.5,1.9-2.2,2.8c-0.1,0-0.2-0.1-0.3-0.1l0.9-3.9
		c0.3-1,0.6-2,0.9-3c0.1-0.1,0-0.3-0.1-0.7c-1.1,1.3-2,2.4-3,3.5s-2.1,2.1-3.4,3.1c0.1-0.3,0.2-0.7,0.3-1c0.3-0.7,0.6-1.3,0.8-2
		c0.3-1.4,0.2-1.5-1.1-2.1C-311.8,279.6-310.9,279-309.9,278.5z M-311.7,281.7c0.2,0.1,0.4,0.7,0.3,1c-0.1,0.6-0.4,1.2-0.6,1.8
		c-0.1,0.4-0.4,0.8-0.4,1.2c0.1,1.2-0.8,1.6-1.5,2.2c-0.2,0-0.3-0.1-0.4-0.1c0.3-0.9,0.6-1.9,0.9-2.8c0.3-0.9,0.7-1.7,1-2.6
		C-312.3,282-312.2,281.5-311.7,281.7z M-336.3,277c-0.4-1.3-1.1-2.3-2.4-2.8c-0.6-0.2-0.8-0.6-0.5-1.2c0.3-0.6,0.6-1.1,0.9-1.6
		c0.2-0.4,0.3-0.9,0.5-1.4c0.1-0.3,0.2-0.5,0.3-0.7s0.3-0.3,0.5-0.4c3-1.4,4.5-4.2,6-7c0.6-1,1-2.1,1.5-3.3c1.2,1.4,2.3,2.8,3,4.2
		c1,2.3,2.5,4.3,4.5,5.9c0.5,0.4,1,0.9,1.4,1.4c2.3,2.7,4.6,5.3,6.9,8c0.1,0.2,0.3,0.3,0.4,0.4c1.2,1.1,1.2,1.3,0.5,2.8
		c-0.6,1.4-1.3,2.8-1.7,4.2c-0.3,0.9-0.1,1.9-0.1,2.8c0,0.2-0.1,0.5-0.2,0.6c-1,1.1-1.9,2.2-2.9,3.2c-0.3,0.4-0.7,0.7-1,1.1
		c-0.9,1-1.4,1.1-2.7,0.6c-2.7-0.9-4.1-3.1-5.9-5.1c-1.4-1.6-3.1-2.9-4.7-4.2c-1.3-1-2.7-1.9-3.2-3.6
		C-335.6,279.6-336,278.3-336.3,277z M-339.7,306.6c1.1-1.1,2.3-2.2,3.4-3.4c3.6-3.9,4.7-8.5,3.2-13.6c-0.4-1.5-0.8-3-1.2-4.6
		c-0.1-0.3-0.1-0.7-0.2-1.2c2.9,2,5.5,3.9,7.3,6.5c1.3,1.8,2.9,3.2,5,4.1c2.4,1.1,2.5,1.5,0.9,3.5c-0.5,0.6-1.1,1-1.7,1.5
		c-1.5,1.3-3,2.7-4.6,4c-1.7,1.3-3.4,2.6-5.2,3.7c-2.3,1.4-4.7,2.7-7,4C-340.8,309.8-340.7,307.7-339.7,306.6z M-394,292.4
		c-0.2-0.2-0.5-0.6-0.4-0.7c0.2-0.2,0.5-0.4,0.8-0.5c0.2,0,0.5,0.3,0.6,0.5c0.2,0.3,0.3,0.7,0.5,1.3
		C-393.1,292.8-393.5,292.7-394,292.4z M-335.4,329.7c-2.9,2.1-5.8,4-9.1,5.5c-1.8,0.8-3.4,1.9-5,2.9c-1.3,0.8-2.6,1.7-3.9,2.6
		c-1,0.7-2.1,0.9-3.3,0.7c-2.3-0.4-4.2-1.5-6-2.8c-1.3-1-2.4-2.1-3.4-3.3c-2.1-2.4-4.2-4.8-6.1-7.3c-2.9-3.8-5.8-7.6-7.8-11.9
		c-0.5-1-1.2-1.9-1.8-2.9c-1.5-2.4-3.1-4.6-4.4-7.1c-1.4-2.6-2.4-5.5-3.5-8.3c-0.2-0.3-0.3-0.6-0.4-0.9c-0.8-2.1-1.6-4.2-2.5-6.5
		c1.1-0.2,2-0.5,3-0.6c4.3-0.7,8.7-0.7,13-0.4c2.5,0.2,5,0.2,7.5,0.4c1.2,0.1,2.5,0.2,3.7,0.4c0.8,0.1,1.4,0.5,1.7,1.3
		c0.6,1.5,1.2,3.1,1.7,4.6c1,2.9,1.9,5.8,2.9,8.7c1,3.1,2,6.3,3,9.4c0.4,1.4,0.8,2.8,1.2,4.2c0,0.2-0.1,0.6-0.3,0.7
		c-2.6,2.1-4.3,4.8-6.1,7.5c-0.2,0.3-0.3,0.8-0.4,1.2c-0.1,0.2,0.1,0.5,0.2,0.7c0.2-0.1,0.5-0.2,0.6-0.4c1.3-3.1,3.4-5.7,5.8-7.9
		c0.9-0.8,2.1-1.1,3.1-1.6c2.9-1.4,5.8-2.7,8.6-4.2c1.6-0.8,3.1-1.9,4.6-2.8s3.1-1.7,4.6-2.6c3.3-1.8,6.5-3.9,9.1-6.6
		c0.5-0.5,1.1-1.1,1.8-1.5c1.9-1.2,3.2-2.8,4.4-4.6c0.1-0.2,0.2-0.5,0.2-0.8c-0.1-0.9,0.2-1.5,0.8-2.1c2.3-2.1,4.1-4.7,6.5-6.7
		c1.9-1.5,3.4-3.4,5.1-5.1c0,0,0,0.1,0.2,0.3c-1,1.5-1.1,3.3-1.3,5c-0.3,1.9-1.3,3.2-2.9,4.2c-0.4,0.3-0.8,0.7-1.2,1
		c0,0,0.1,0.1,0.1,0.2c0.1,0,0.4,0.1,0.5,0c0.8-0.6,1.8-1.1,2.5-1.8c1.3-1.4,2.5-2.9,3.6-4.4c0.9-1.2,1.6-2.6,2.5-3.8
		c0.5-0.8,1.1-1.5,1.7-2.2c0.5-0.7,1.5-0.9,2.2-0.4c0.3,0.1,0.4,0.8,0.3,1.1c-0.3,1.1-0.7,2.1-1.1,3.1c-0.7,1.8-1.5,3.5-2.4,5.2
		c-0.9,1.6-1.9,3.1-2.8,4.7c-0.6,1-1,2-1.5,3c0.1,0.1,0.2,0.1,0.3,0.2c0.3-0.4,0.6-0.7,0.8-1.1c0.2-0.5,0.5-0.7,1-0.7
		c0.7,0.1,1.2-0.3,1.7-0.7c0.6-0.4,1.3-0.7,2-1.1c0.4-0.2,0.7-0.4,1-0.6c-0.1,0-0.1-0.1-0.1-0.2c-0.3,0-0.6-0.1-0.9-0.1
		c0-0.9-0.2-1.8,0.8-2.3c0.1,0,0.1-0.3,0.2-0.4c-0.1,0-0.4-0.1-0.5-0.1c-0.3,0.1-0.6,0.3-1,0.5c-0.5-1.1,0.2-1.7,0.5-2.6
		c0.8,0.3,1.6,0.6,2.4,0.9c1.1,0.5,1.8,1.9,1.7,3.1c-0.1,1.1-0.2,2.2-0.2,3.3c0,1-0.4,1.9-1.4,2.5c-1.4,0.9-2.7,1.8-4,2.7
		c-0.2,0.1-0.4,0.2-0.5,0.4c-0.1,0.1-0.1,0.3-0.1,0.5c0.1,0,0.4,0.1,0.5,0c1.7-1.2,3.5-2.4,5.2-3.6c0.7-0.5,0.8-1.3,0.9-2.1v-1.7
		c0,0,0.1-0.1,0.2-0.1c0.2,0.3,0.5,0.5,0.6,0.8c0.2,0.7,0.3,1.5,0.4,2.2c0.1,0.7-0.1,1.4,0.1,2c0.3,1.1-0.1,1.8-1,2.3
		c-1.5,0.7-3,1.4-4.5,2c-0.6,0.3-1.3,0.4-2,0.7c-0.3,0.1-0.5,0.3-0.7,0.4c0,0.1,0.1,0.2,0.1,0.3c0.5-0.1,1-0.2,1.4-0.4
		c1.5-0.5,2.9-1,4.3-1.6c1-0.4,2-0.8,2.8-1.4c0.3-0.2,0.4-0.9,0.5-1.4c0.1-0.7,0-1.5,0-2.5c0.2,0.3,0.5,0.6,0.5,0.9
		c-0.1,1-0.2,2.1-0.4,3.2c-0.1,0.3-0.6,0.6-0.9,0.9c-0.9,1.1-2.1,1.4-3.5,1.6c-1.5,0.2-2.9,0.9-4.4,1.5c-1.3,0.5-2.6,1-4.1,1
		c-0.9,0-1.8,0.2-2.6,0.5c-2.9,0.9-5.5,2.1-7.7,4.2c-1.9,1.8-3.8,3.7-5.7,5.6c-0.6,0.6-1.1,1.4-1.6,2.1c-1.5,2.4-3.7,4.2-5.8,6.1
		c-1.3,1.1-2.5,2.4-3.7,3.6C-333.9,328.7-334.7,329.2-335.4,329.7z M-301,292.7c-0.6,0.5-1.2,1-1.8,1.4c-0.3,0.2-0.7,0.3-1.1,0.4
		c0-0.1-0.1-0.2-0.1-0.3c0.7-1.1,1.3-2.3,2.1-3.4c0.1-0.1,0.6-0.2,0.8-0.1C-300.6,290.9-300.6,292.4-301,292.7z M-305.9,314.9
		c-0.3,0.5-0.7,0.6-1.1,0.1c-1-1.8-2.4-3.3-2.7-5.4c0-0.3,0-0.7-0.1-1c-0.2-0.7,0.2-1,0.9-1C-308.4,310.3-307.7,312.8-305.9,314.9z
		 M-321,352.6c-0.8-0.1-1.5-0.2-2.3-0.4c-0.6-0.1-1.2-0.6-1.8-0.7c-1.8-0.3-3.2-1.4-4.6-2.4c-2.1-1.4-3.3-3.4-4.2-5.8
		c-1.2-3.1-0.9-6.2-0.2-9.3c0.4-1.8,0.9-3.6,1.7-5.2c0.6-1.1,1.6-1.9,2.5-2.8c1.6-1.6,3.4-3.1,5-4.7c0.6-0.5,1-1.3,1.5-1.9
		c1.5-1.7,3-3.6,4.6-5.2c1.7-1.7,3.5-3.2,5.4-4.6c0.8-0.6,1.8-0.9,2.8-1.4c0,3.1,1.8,5.3,3.3,7.7c-0.8,0.5-1.6,1.1-2.5,1.8
		c-2.2,1.5-3.7,3.7-4.8,6.1c-0.5,1.1-1.2,1.9-2.2,2.6c-1.3,0.8-2.2,2-3,3.3c-0.2,0.2-0.4,0.4-0.6,0.7c-1,1.4-2.5,1.7-4.1,1.7
		c-1.2,0.1-2.3,0.5-3.3,1.2v0.3c0.3,0,0.7,0,1-0.1c1.5-0.8,3.1-0.8,4.8-0.8c-0.1,0.3-0.1,0.5-0.2,0.7c-0.8,2.7-0.8,5.4-0.1,8.2
		c0.3,1,0.2,2.1,0.2,3.1c-0.1,1.7-0.3,3.3-0.3,5c0,0.5,0.4,1.1,0.7,1.6c0.2,0.3,0.5,0.7,0.8,1C-320.9,352.4-321,352.5-321,352.6z
		 M-316,350.8c-0.2,0.2-0.3,0.5-0.5,0.7c-0.3,0.4-0.3,1.2-1.1,1.3c-1,0.1-1.9-0.1-2.6-0.8c-0.4-0.5-0.8-1-1.2-1.6
		c2.7-1.8,5.3-3.5,7.8-5.1C-313.9,347.2-314.6,349.2-316,350.8z M-296.4,314c0.1-0.2,0.2-0.4,0.3-0.7c-0.1,0.3-0.5,0.5-0.8,0.8
		c-0.2,0.3-0.6,0.5-0.9,0.7c-1.8,1.3-3.7,2.5-5.6,3.7c-0.3,0.2-0.4,0.5-0.6,0.8c0.3-0.1,0.6,0,0.9-0.2c1.6-1,3.1-2,4.7-3
		c1-0.6,1.8-0.5,2.1,0.3c0.1,0.4,0.1,1.1-0.2,1.4c-0.9,1-1.8,1.8-2.8,2.7c-0.5,0.5-1.1,0.8-1.6,1.2c-0.1,0.2-0.1,0.5-0.2,0.7
		c0.3,0,0.5,0,0.7-0.1c0.9-0.6,1.8-1.3,2.7-1.9c0.7-0.5,1.8-0.4,2.1,0c0.5,0.7,0.3,1.7-0.3,2.4c-1.1,1.3-2.4,2.2-3.9,2.9
		c-0.3,0.1-0.5,0.4-0.8,0.6c0,0.1,0.1,0.1,0.1,0.2c0.2,0,0.4,0.1,0.5,0c1.3-0.6,2.5-1.4,3.7-2c0.4-0.2,0.9-0.3,1.2-0.2
		c0.2,0.1,0.3,0.6,0.4,1c0.2,1.1-0.6,1.7-1.3,2.3c-2,1.7-4.3,2.8-6.7,3.7c-1.8,0.7-3.6,1.3-5.3,2c-0.3,0.1-0.5,0.4-0.6,0.7
		c-0.8,3.1-2.5,5.7-4.1,8.4c-1.7,2.9-4.3,4.5-7,5.9c-0.6,0.3-1.2,0.6-2,1.1c0.1-1.5,0.1-2.8,0.5-4c0.3-1.7,0.5-3.4-0.4-5
		c0-0.1-0.1-0.3-0.1-0.5c0.1-2.1-0.2-4.2,0.4-6.3c0.4-1.3,1.2-2,1.9-3c1.3-1.9,3-3.4,4.7-4.9c0.5-0.4,0.8-1.1,1.1-1.7
		c1.3-2.6,2.9-4.9,5.4-6.5c3.1-2.1,6.5-3.5,10-4.8c0.2,0,0.4-0.1,0.6-0.1c0.5,0,1-0.4,1.4,0.3c0.1,0.2,0.1,0.3,0.1,0.4
		c0.1-0.2,0.1-0.5,0-0.6c-0.2-0.5-0.7-1.1-1.4-0.9c-1.9,0.6-3.8,1.2-5.6,2c-2,1-2.1,1.2-3.3-0.7c-0.8-1.4-1.3-3-1.7-4.6
		c-0.2-1.1,0.1-1.2,1.2-1.4c1.4-0.3,2.7-0.5,4.1-0.9c1.2-0.4,2.3-0.9,3.5-1.3c1-0.3,1.9-0.4,2.9-0.6c0.1,0,0.3,0,0.3,0
		c1,1.3,2.6,2,2.6,3.9c0,0.2,0,0.5,0.1,0.8c0.4,1.8,0.9,3.6,1.4,5.4c0.1,0.5,0.4,0.9,0.7,1.4c0.5,0.9,1,1.8,1.5,2.7
		c0.3,0.4,0.1,0.7-0.3,1c-1.2,0.7-2.5,1.2-3.9,1c-0.1-0.1-0.3,0-0.4-0.1c-0.7-0.5-1.5-0.9-2.2-1.3c0.4-0.7,1-1.4,1-2.2
		c0-0.7-0.6-1.4-1.1-2.3C-296.6,314.5-296.3,314.3-296.4,314z M-289.3,321.4c-1.2,0.9-2.6,1.2-4.1,1c-0.7-0.1-1.1-0.5-1.2-1.2
		c2,0.3,3.7-0.3,5.4-1.4C-288.5,320.7-288.5,320.8-289.3,321.4z M-282.7,333.3c-0.5-0.9-0.8-1.9-1.2-2.8c-1.1-2.7-2.1-5.4-3.2-8.1
		c-0.7-1.6-1.3-3.1-1.9-4.7c-0.1-0.2-0.1-0.4-0.2-0.7c0.9-0.2,1.6-0.4,2.4-0.6c-0.1-0.2-0.1-0.3-0.1-0.4c-0.2-0.1-0.5-0.1-0.7-0.1
		c-2.5,0.5-2.7,0.1-3.6-2.2c-0.1-0.3-0.2-0.6-0.2-0.9c0.1-1.4-0.6-2.5-0.9-3.7c-0.3-0.9-0.4-1.8-0.6-2.8c0.7-0.3,1.3-0.7,1.4-1.8
		c-0.3,0.2-0.5,0.3-0.7,0.4c-1,0.8-1,0.8-2.1,0.1c-0.6-0.3-0.6-1.1-0.1-1.5c0.4-0.4,0.8-0.8,1.3-1c0.4-0.2,1-0.2,1.4,0
		c0.2,0.1,0.5,0.7,0.5,1c-0.1,1.2-0.2,2.5-0.3,3.7c-0.1,0.3,0.1,0.5,0.2,0.8c0.1-0.2,0.4-0.4,0.4-0.6c0.2-1.7,0.5-3.4,0.7-5.1
		c0.2-1.6-0.6-2.7-1.5-3.8c-0.5-0.7-1-1.4-1.4-2.1c-0.2-0.3-0.1-0.9,0.1-1.1c0.3-0.4,0.7-0.3,1.1,0.1c1.3,1.2,2.7,2.3,3.8,3.6
		c0.6,0.8,0.9,1.9,1.2,2.9c0.3,1.1,0.4,2.3,0.7,3.5c0.1,0.2,0.4,0.4,0.6,0.6c0-0.3,0.1-0.5,0.1-0.8c-0.2-1.3-0.4-2.5-0.7-3.7
		c-0.3-1.5-0.8-2.8-2.1-3.7c-1-0.7-1.9-1.8-2.9-2.7c-0.4-0.3-1-0.5-1.5-0.8c-0.7-0.4-1.2-0.8-1.2-1.6c0-0.7,0.4-1,1-0.7
		c0.8,0.4,1.6,0.7,2.3,1.2c1.2,0.8,2.4,1.6,3.6,2.5c1.3,0.9,1.4,2.4,1.7,3.8c0.1,0.4,0.1,0.8,0.2,1.2c0.1,0.2,0.3,0.3,0.4,0.4
		c0.1-0.1,0.3-0.3,0.3-0.4c0-0.4-0.1-0.7-0.2-1.1c-0.2-0.9-0.3-1.8-0.6-2.6c-0.7-1.8-2.4-2.7-3.8-3.8c-1-0.8-2-1.7-2.9-2.6
		c-0.2-0.3-0.1-0.9-0.1-1.3c0.4,0,0.9-0.2,1.2,0c2.2,1.3,4.3,2.6,5.5,4.9c0.6,1.2,1.2,2.5,1.2,3.8c0.1,4.6,1.1,9.1,1.9,13.6
		c0.1,0.6-0.2,1.3-0.4,1.9c-0.1,0.3-0.2,0.6-0.3,0.9c0.1,0.1,0.2,0.1,0.3,0.2c0.4-0.5,0.8-0.9,1.2-1.5c0.7,0.8,1.4,1.6,2.1,2.5
		c1.6,2,3.3,3.9,4.2,6.4c0.1,0.4,0.3,0.8,0.6,1c0.8,0.7,0.9,1.7,0.8,2.7c-0.3,2-0.6,4.1-1,6.1c-0.6,3.1-1.2,6.2-1.9,9.3
		c-0.1,0.4-0.3,0.8-0.4,1.2c-0.1,0-0.2,0.1-0.3,0.1c-0.5-0.6-1-1.2-1.1-1.7C-279.9,338.3-281.3,335.8-282.7,333.3z M-292.2,299.2
		c1,0.5,1.5,1.5,1.1,2.3C-292.5,301.3-292.8,300.6-292.2,299.2z M-280.1,343.2c-1.2-1.7-1.7-3.7-2-5.7c-0.1-0.2,0-0.4,0-0.6
		c0.1-0.1,0.1-0.1,0.2-0.1c1.4,2.2,2.7,4.3,4.1,6.6C-278.6,344.5-279.3,344.4-280.1,343.2z M-254.9,312.2c-0.3,1.7-0.7,3.5-1,5.2
		c-0.3,1.5-0.4,2.9-0.4,4.4c-0.1,4.1,0,8.3-0.2,12.4c-0.1,1.3-0.6,2.6-1,3.9c-0.7,2-1.3,4-2.2,5.8c-1.4,2.7-3.4,5-6.8,5.4
		c-1,0.1-1.8,0.1-2.7-0.4c-2.6-1.5-5.2-3-8-4c-0.2-0.1-0.4-0.2-0.7-0.4c2.1-1.7,2.1-4.1,2.5-6.4c0.4-2.2,0.8-4.3,1.4-6.4
		c0.8-2.8,1-5.6,1.2-8.5v-0.6c0-0.1,0.1-0.1,0.2-0.3c0.5,0.3,0.9,0.5,1.4,0.5c1.6,1.2,3.3,2.3,4.9,3.6c0.9,0.7,1.7,1.6,2.4,2.5
		c0.9,1.4,1.9,2.7,2.6,4.2c0.4,0.9,0.2,2.1,0.3,3.1c0.1,0.2,0,0.5,0.1,0.7c0.1,0.2,0.3,0.3,0.5,0.5c0.1-0.2,0.3-0.4,0.3-0.6
		c0-2.1,0-4.3-1.5-6.1c-0.9-1-1.5-2.2-2.4-3.1c-1.1-1.1-2.3-2-3.5-3s-2.4-1.9-3.6-2.8c-1.2-0.9-1.8-0.9-2.8,0.3
		c-0.1-0.5-0.3-0.8-0.2-1.1c0.6-1.9,1.2-3.7,1.8-5.5c0.2-0.6,0.5-0.8,1-0.3c0.4,0.5,0.9,0.9,1.4,1.3c2.5,1.7,5.2,2.9,8.4,2.8
		c1.4,0,2.4-0.5,3-1.8c1.4-2.8,2.2-5.8,2.2-9v-3.2c0.3,0.3,0.5,0.5,0.5,0.6C-255.4,308-254.6,310-254.9,312.2z"/>
	<path class="st0" d="M-366.7,351.9c-0.1-0.1-0.2-0.2-0.3-0.3c0.1-0.2,0.3-0.4,0.4-0.4c1.5-0.5,3.1-1,4.6-1.5
		c3.6-1.3,7.3-2.4,10.8-3.8c3-1.2,5.9-2.6,8.8-4c1.8-0.9,3.5-2,5.2-3c0.3-0.2,0.5-0.4,0.8-0.5c0.2-0.1,0.4,0.1,0.6,0.1
		c-0.1,0.2-0.1,0.5-0.2,0.6c-1.7,1.1-3.4,2.3-5.2,3.2c-4.2,2-8.5,3.8-12.9,5.5c-2.9,1.2-6,2-9,2.9c-1.1,0.4-2.2,0.7-3.3,1.1
		C-366.4,351.8-366.5,351.8-366.7,351.9z"/>
	<path class="st0" d="M-350.4,241.6c0,0.7-0.1,1.2-0.1,1.6c0.1,0.7,0.6,0.8,1.2,0.8c0.9,0,1.7,0,2.6,0.2c1.7,0.4,2.4,0.2,3.3-1.1
		c0.6-0.9,0.3-1.8-0.5-3.1c-0.9-1.5-1.8-3-2.4-4.6c-0.5-1.4-0.5-2.9,0.1-4.3c0.2-0.5,0.5-0.6,1-0.3c2.2,1.2,3.4,0.7,4.5-0.9
		c0.3-0.4,0.7-0.8,1.2-1.4c0.5,2.6-2.9,4.3-6.1,3.2c-0.5,1.1-0.7,2.3-0.2,3.5c0.7,1.6,1.5,3.1,2.5,4.6c1.1,1.7,1.2,2.8,0,4.3
		c-0.9,1.1-2,0.9-3.2,0.8c-0.9-0.1-1.9-0.1-2.8-0.2c-0.4-0.1-1.1-0.2-1.2-0.5c-0.3-0.6-0.4-1.3-0.4-2
		C-351.1,241.9-350.6,241.7-350.4,241.6z"/>
	<path class="st0" d="M-354,250.4c0.2-0.1,0.4-0.3,0.7-0.4c1.7-0.5,3.3-1.1,5-1.6c0.9-0.3,1.9-0.3,2.9-0.6c0.8-0.3,1.5-0.7,2.2-1.2
		c0.3-0.2,0.5-0.4,0.9-0.8c0.1,2-1.4,4.1-3.3,4.5c-1.1,0.2-2.3,0.3-3.3,0c-1.6-0.4-3-0.2-4.5,0.2c-0.1,0-0.2,0-0.3,0
		C-353.9,250.5-354,250.4-354,250.4z"/>
	<path class="st0" d="M-353.2,235.8c0.6,0.9,0.1,1.9-1.3,3.2c-0.9,0.8-1.9,1.1-3.1,1.2c-0.1,0-0.4-0.1-0.7-0.2
		c-0.9-0.3-1.7-0.5-2.6-0.9c-0.2-0.1-0.2-0.3-0.3-0.5c0.2-0.1,0.4-0.2,0.6-0.2c0.2,0,0.4,0.1,0.6,0.2c2.1,0.9,4.9,0.6,6.3-2
		C-353.6,236.3-353.4,236.1-353.2,235.8z"/>
	<path class="st0" d="M-363.1,236.8c0,0-0.2-0.1-0.4-0.2c0.2-0.2,0.3-0.4,0.5-0.5c0.9-0.2,1.9-0.4,2.8-0.5c2.2-0.1,4.2-0.9,6.3-1.4
		c0.3-0.1,0.5-0.2,0.7-0.2c0.2,0,0.3,0.2,0.4,0.3c0,0.1-0.1,0.3-0.3,0.4c-0.4,0.2-0.8,0.5-1.2,0.6c-1.8,0.4-3.6,0.7-5.4,1
		C-360.7,236.6-361.8,236.6-363.1,236.8z"/>
	<path class="st0" d="M-289,276.8c-2.7,0.9-5-0.5-7.3-1.5c1-1.9,2.6-2.5,4.3-1.5c1.1,0.7,2.1,1.7,3.1,2.5
		C-288.8,276.6-288.9,276.7-289,276.8z M-291.8,276.1c0.1,0.2,0.1,0.3,0.2,0.5c0.5-0.1,1.1-0.2,1.6-0.3c-0.2-0.3-0.5-0.8-0.7-0.8
		C-291.1,275.5-291.4,275.9-291.8,276.1z M-294.2,275.6c0.1-0.5,0.2-0.9,0.3-1.3c-0.1,0-0.1-0.1-0.2-0.1c-0.4,0.3-0.8,0.6-1.4,1
		C-294.9,275.3-294.6,275.4-294.2,275.6z"/>
	<path class="st0" d="M-308.9,273c1.1-1.1,2-2.1,3.6-2.2c1.4-0.1,2.8,0.9,3,2.3c0,0.2-0.1,0.5-0.3,0.5c-0.7,0.3-1.4,0.6-2.1,0.7
		c-1.2,0.1-2.4,0.1-3.5-0.7C-308.4,273.4-308.6,273.2-308.9,273z M-306.4,273.7c0-0.8,0-1.3,0-2c-0.6,0.4-1,0.8-1.6,1.3
		C-307.4,273.3-307,273.5-306.4,273.7z M-304.1,273.9c0.5-0.3,0.9-0.5,1.3-0.7c-0.3-0.5-0.5-1-0.9-1.5
		C-303.9,272.5-304,273.1-304.1,273.9z"/>
	<path class="st0" d="M-277.2,283.5c0.6-2.2,2.1-3.6,4.4-4c1.1-0.2,1.8,0.3,1.5,1.4c-0.3,1.4-0.7,2.8-1.3,4.1
		c-0.4,0.8-1.1,1.5-1.7,2.2c-0.3,0.4-0.9,0.5-1.2,0c-0.3-0.6-0.7-0.7-1.3-0.6c-0.1,0-0.3,0-0.4,0c-0.5-0.1-1-0.3-1.4-0.4
		c0.2-0.4,0.4-0.9,0.5-1.3s0.1-0.7,0.1-1.1c0-0.2,0.1-0.4,0.1-0.7C-277.8,283.2-277.5,283.3-277.2,283.5z M-275,287
		c2.4-1.8,2.4-4.4,3-6.9c-0.9,0.1-1.7,0.2-2.4,0.5c-0.8,0.3-1.3,0.9-1.7,1.8c-0.6,1.2-1.3,2.3-2,3.5C-277,286.3-275.6,285.5-275,287
		z"/>
	<path class="st0" d="M-295.6,269.8c0.3,0.1,0.6,0.2,0.9,0.3c1.8,0.8,3.7,1.6,5.5,2.5c0.1,0,0.2,0.1,0.3,0.2
		c0.2,0.3,0.4,0.6,0.6,0.9c-0.4,0-0.7,0.2-1,0c-1.9-0.7-3.8-1.5-5.8-2.2c-0.3-0.1-0.7-0.3-0.9-0.5s-0.3-0.5-0.2-0.8
		C-296.1,270-295.8,269.9-295.6,269.8z"/>
</g>
</svg>
