<?xml version="1.0" encoding="utf-8"?>
<!-- Generator: Adobe Illustrator 19.2.0, SVG Export Plug-In . SVG Version: 6.00 Build 0)  -->
<svg version="1.1" id="Layer_1" xmlns="http://www.w3.org/2000/svg" xmlns:xlink="http://www.w3.org/1999/xlink" x="0px" y="0px"
	 viewBox="0 0 199.7 279" style="enable-background:new 0 0 199.7 279;" xml:space="preserve">
<style type="text/css">
	.st0{fill:#E91E63;}
</style>
<g id="mother-child-flu">
	<path class="st0" d="M186.3,232.7c-2.1-1.1-4.3-1.7-6-3.5c-1.6-1.6-3.4-3-5.2-4.3c-2.2-1.6-4-3.5-5.4-5.8c-0.9-1.4-1.9-2.9-3.2-4
		c-3.2-2.6-5-6.5-7.8-9.4c-0.3-0.3-0.4-0.8-0.4-1.2c-0.3-2.1-0.6-4.2-0.8-6.3c-0.4-3.7-0.8-7.3-0.9-11c-0.1-4.6,0.1-9.1,0.1-13.7
		c0-1.7-0.5-3.4-0.6-5.1c-0.1-2.2,0.1-4.4,0.3-6.6c0.2-3.1,0.6-6.2,0.6-9.4c0.1-4.6,0-9.2-0.9-13.7c-0.5-2.8-1.1-5.6-0.5-8.4
		c0.2-1,0.5-2,0.7-3.1c0.7-3.4,2.8-5.6,5.5-7.5c1.4-1,3.1-1.7,4.3-2.9c1.6-1.5,3.3-3.3,4.1-5.2c1.2-2.7,2.2-5.5,3.8-8
		c1.2-2,1.9-4.1,1-6.5c-0.6-1.5-0.6-3.1,0.4-4.5c0.2-0.4,0.3-0.9,0.3-1.3c0-2.1,0.1-4.3,0-6.4c-0.2-4.9-1.7-9.2-5.4-12.7
		c-2.5-2.4-4.7-5.1-7-7.7c-1.4-1.6-3-3.2-4.2-5c-2-2.9-4.6-5-8-6c-1.3-0.4-2.7-1-3.9-1.8c-1.3-0.8-2.5-1.3-4-1.3
		c-3.2,0.1-6.3,0.1-9.5,0.3c-1.4,0.1-2.8,0.7-4.2,1.1c-0.7,0.2-1.4,0.5-2.2,0.6c-1.4,0.2-2.8,0.4-4.3,0.6c0.1-1.3,0-2.8,0.5-4.1
		c0.8-2.2,1.8-4.4,3.2-6.3c2.9-3.9,3-8.2,2-12.6c-0.6-2.4-1.7-4.8-2.2-7.2c-0.6-3-2.7-4.9-4.9-6.5c-2.9-2.2-5.8-4.2-7.9-7.3
		c-1-1.6-2.5-2.9-4.3-3.6c-2.6-1-5.2-2.1-7.8-3.1c-0.7-0.2-1.5-0.2-2.2-0.1c-1.3,0.1-2.7,0.5-4,0.3c-2-0.3-3.9-0.9-5.8-1.4
		c-1.7-0.4-3.4-0.8-5.1-1C81.1-0.3,78,0.6,75,1.6c-2.2,0.7-4.4,1.8-6.4,3c-2.4,1.4-4.7,3.1-7,4.7c-0.7,0.5-1.5,1.1-2,1.7
		c-1.5,1.8-2.9,3.6-4.3,5.5c-2.9,4-5.9,7.9-8,12.3C46.8,30,46,31,45.3,32c-1.3,1.9-2.6,3.7-3.3,6c-0.8,3.1-1.8,6.2-2.8,9.3
		c-0.9,2.8-0.4,5.5,1.8,7.5c0.9,0.8,1.9,1.6,2.6,2.6c0.6,0.7,1.1,1.5,1.3,2.4c0.1,0.4-0.7,1-1,1.5c-0.1,0.1-0.1,0.2-0.2,0.3
		c-1.7,1.9-3.3,3.8-5.1,5.5c-1.7,1.7-2.9,3.5-3.5,5.8c-0.7,2.5-1.1,5-1.6,7.5c-0.5,2.3-0.9,4.7-1.4,7.1c-0.1,0.3-0.2,0.6-0.1,0.9
		c0.3,2.1-0.6,3.5-2.5,4.5c-3.2,1.7-6.1,3.9-9.3,5.4c-5.4,2.5-9.7,6.1-13.1,10.9c-3.1,4.5-6.1,9-6.4,14.7c-0.2,3.9-0.6,7.8-0.7,11.7
		c-0.1,2.6,0.3,5.3,0.3,7.9c0.1,3.4-0.1,6.7,0.1,10.1c0.2,3,0.5,6,1,8.9c1,4.9,1.4,9.8,1.2,14.8c0,1,0.1,2,0.3,3
		c0.3,2.8,1,5.5,0.9,8.3c-0.2,4.7,1.1,9.2,1.7,13.8c0.5,3.1,0.9,6.2-0.3,9.3c-0.4,0.9-0.4,2.1-0.2,3.1c0.3,1.7,0.7,3.5,1.3,5.1
		c1.3,3.6,2.7,7.1,4.2,10.6c1.9,4.4,4.1,8.6,7.7,11.8c0.4,0.3,0.6,1,0.6,1.5c0.1,1.5-0.1,3.1,0,4.6c0.2,3.2,0.6,6.5,0.9,9.7
		c0.2,2.9,0.1,6.1,1.7,8.7c2.3,3.8,4.1,7.2,5.1,12.2h137.2c0.1-3,0.2-6,0.4-8.9c0-0.6,0.3-1.5,0.7-1.8c0.3-0.2,1.2,0.1,1.7,0.5
		c3.5,2.6,7.4,2.9,11.3,1.8c1.7-0.5,3.1-2.1,4.7-3.2c0.6-0.4,1.2-0.5,1.8-0.9c0.5-0.3,1.3-0.6,1.3-1c0.2-0.9-0.6-1-1.3-1.1
		c-1.2-0.1-2.2,0.2-2.9,1.2c-1.5,2.2-3.7,2.8-6.2,2.9c-2.9,0.2-5.6-0.2-8-2.2c-1.7-1.4-3.9-1.7-6-2.2c-1.7-0.4-3.4-0.7-5-1.3
		c-2.8-1.1-5.7-1.8-8.7-2.1c-0.2,0-0.4-0.2-0.6-0.6c0.9-0.2,1.8-0.6,2.7-0.7c1.9-0.1,3.8,0,5.6,0c1.8,0.1,3.6-0.3,5.4-0.8
		c2.5-0.7,5.1-0.9,7.7-1.3c3.1-0.5,6-1.6,8.7-3.3c0.6-0.4,1.2-1,0.7-1.6c-0.3-0.3-1.3-0.4-1.7-0.1c-3.9,2.4-8.2,3.3-12.7,3.5
		c-1.3,0.1-2.5,0.7-3.8,0.9c-1.7,0.3-3.3,0.5-5,0.6c-2.6,0.1-5.2-0.3-7.7,0.7c-0.5,0.2-1.1,0.4-1.3,0.8c-0.7,1.2-1.5,0.9-2.6,0.7
		c-1.1-0.2-2.2-0.2-3.3-0.4c-1.3-0.2-2.6-0.5-4-0.7c-1.8-0.2-3.6-0.4-5.4-0.6c-1-0.1-2,0-3.1-0.3c1,0,1.9-0.1,2.9,0
		c3.2,0.2,6-0.6,8.7-2.2c1-0.6,2.4-0.8,3.6-1.1c3.3-0.9,6.6-1.8,9.8-2.9c1.8-0.6,2.7-3,2.3-4.6c-0.4-1.3-2.5-2.7-4.1-2.7
		c-1.5,0-3,0-4.5,0c-0.1,0-0.1-0.1-0.3-0.2c4.5-5.8,9.2-11.6,11.4-18.6c6.3,1,12.1,3.1,17.8,5.3c3.9,1.5,7.6,3.7,11.4,5.5
		c1.1,0.5,2.1,1,3.3,1.3c4,1.1,7.2,3.2,10,6.2c0.2,0.2,0.4,0.3,0.4,0.5v-3.6C195.7,237.2,190.9,235.1,186.3,232.7z M149.7,64
		c0.3-0.4,0.8-0.8,1.3-0.8c1.3,0,2.5,0.4,3.2,1.6c0.2,0.3,0.4,0.6,0.7,1.1c-2,0.5-3.6,0.2-5-0.9C149.7,64.8,149.6,64.1,149.7,64z
		 M141,59c0.6,0.1,1.2,0.2,1.6,0.6c0.6,0.6,1.3,1.4,1.4,2.2c0.1,0.7-2.7,2.3-3.6,2.3c-1.3,0-2.3-0.9-2.2-1.9
		C138.4,59.8,139.4,58.7,141,59z M136,63c1,0,2.3,1.8,2.2,3.1c0,0.9-1,1.5-2.3,1.5c-1.5,0-2.7-0.9-2.7-2C133.2,64.3,134.7,63,136,63
		z M127.4,75.7c0.3-1.1,1.1-1.1,1.9-0.9c0.2,0.1,0.5,0.4,0.6,0.7c0.2,1.2-1.7,2.9-3.1,2.8C126.9,77.4,127.2,76.6,127.4,75.7z
		 M112.9,70.6c1.1-2.3,2.2-4.6,1.8-7.2c-0.1-0.6-0.4-1.3-0.4-1.9c0-0.6,0-1.4,0.4-1.7c0.2-0.2,1.2,0,1.6,0.3c1.4,1.1,0.9,2.7,1,4.7
		c0.5,2.3-1.1,4.7-2.1,7.2c-0.3,0.9-1.1,1.2-1.8,0.8C112.5,72.2,112.5,71.4,112.9,70.6z M112.5,118.6c0.5-0.8,1.2-0.6,1.9-0.3
		c1.5,0.6,2.5,0.3,3.5-1c1.6-2.1,3.1-2.5,5.6-1.6c0.8,0.3,1.7,0.4,2.4,0.6c0.5,0.2,1,0.5,1.2,0.9c0.7,1.7,1.3,3.4,1.9,5.2
		c0.5,1.5,0,2.2-1.6,2.4c-1.8,0.2-3.6,0.4-5.4,0.6c-2.9,0.3-4.7-1.7-6.7-3.1c-0.7-0.5-1.4-1-2.1-1.6
		C112.5,120.1,111.9,119.5,112.5,118.6z M126.3,148.1c0.3,3.8,0.2,7.6-0.4,11.4c-0.6,3.7-0.4,7.6-0.6,11.4c-0.3,4-0.2,8.1-2,12
		c-1.6,3.4-2,7.1-2.1,10.9c-0.1,3.4,0,6.8-1.1,10.2c-1,3-1.1,6.3-1.7,9.5c-0.2,1.3-0.7,2.5-1,3.7c-7.7,2.8-15.9,4.1-24.1,3.8
		c6.1-6.1,7.8-15.4,14.1-21.5c1.4-1.3-0.7-3.5-2.1-2.1c-7,6.7-8.2,17.7-16.3,23.3c-6.8-0.7-13.4-2.7-19.8-4.9
		c-6.9-2.2-13.7-4.6-19.5-8.9c-0.4-2.1-0.6-4.2-1-6.3c-0.5-2.6-1-5.2-1.4-7.8c-0.1-0.3-0.1-0.7-0.1-1c-0.2-4.6-0.3-9.3-0.5-13.9
		c-0.2-6-0.5-11.9-0.6-17.9c0-3.9-0.1-7.9,0.8-11.8c0.3-1.5,0-3.1,0.1-4.6c0-1.4,0.2-2.8,0.3-4.2c0.1-1.2,0.1-2.4,0.3-3.5
		c0.1-1.1,0.5-2.2,0.5-3.4c0-1.5,0.1-3-0.2-4.5c-1.1-5.2-3.9-9.8-6-14.6c-1.1-2.5-2-5-2.7-7.6c-0.2-1,0.4-2.3,0.9-3.3
		c2-3.7,4.8-6.6,7.9-9.4c0.3-0.3,1.4-0.3,1.8,0c1.8,1.6,3.4,3.4,5.1,5.1c0.4,0.4,0.6,0.8,1,1.1c1.5,1.3,2.4,2.8,3.3,4.6
		c1.9,3.7,4.9,6.3,8.9,7.3c1.8,0.5,3.6,0.9,5.4,1.2c2.3,0.4,3.4-1.2,4.4-2.9c0.6-1.1,1.3-2.2,2.2-3c1.6-1.5,3.4-2.8,5.1-4.1
		c0.2,0.1,0.3,0.2,0.5,0.2c-0.3,1.4-0.5,2.8-1,4.1c-0.5,1.4-0.6,2.8-0.2,4.2c0.2,0.9,0.2,1.8,0.3,2.8c0.3,4.6,0.4,9.3,1.9,13.8
		c0.8,2.4-0.1,4.2-2,5.7c-1.9,1.5-3.7,3.1-5.5,4.7c-1.7,1.6-3.3,3.2-4.8,4.9c0.4,0.5,0.9,1,1.3,1.4c0.3-0.4,0.6-0.8,0.9-1.2
		c1-1.1,1.7-2.4,3.3-2.7c0.5-0.1,0.9-0.7,1.2-1.1c1.9-2.1,4.4-3.4,7.2-5.1c0.7,7.4,5.2,11.8,11.2,15.2c0.8-1,0.4-2.2,0.4-3.4
		c-0.1-2.2-0.7-4.5-0.4-6.7c0.7-4.3,0.3-9,2.5-13c1.6-3,3.8-5.5,7.5-5.8c0.4,0,0.9,0.1,1.1,0.3c1.8,1.6,3.6,3.3,5.5,5
		c-2.2,0.7-4.6,1.5-7,2.1c-1.3,0.3-2.8,0.2-4.2,0.2c-1,0-1.4,0.3-1.7,1.3c-0.2,1,0.3,1.3,1,1.2c2.4-0.2,4.9-0.4,7.3-0.7
		c0.7-0.1,1.5-0.3,2.1-0.6c3-1.8,6.3-1.7,9.6-1.6c1.7,0.1,3.5,0.2,5.2,0.2c1.1,0,1.5,0.5,1.5,1.5c0,2,0.1,3.9,0.1,5.9
		c0,0.8-0.2,1.2-1.1,1.1c-0.5,0-0.9,0-1.4,0.1c-1,0.2-1.8,0.7-1.7,1.9C125.8,141.5,126,144.8,126.3,148.1z M115.7,231.1
		c0.4-0.6,0.5-1.4,0.8-2c0.2-0.4,0.4-0.9,0.7-1c0.3-0.1,0.9,0.3,1.1,0.6c0.6,1.3,1,2.6,1.5,3.9c0.2,0.5,0.2,1,0.3,1.3
		c-1.9-0.2-3.8-0.3-6-0.5C114.7,232.5,115.3,231.8,115.7,231.1z M111.7,232c-0.5,0.4-1.3,0.5-1.9,0.4c-2.5-0.3-4.7,0.4-6.9,1.4
		c-3.6,1.6-7,3.8-10.9,4.6c-2.4,0.5-4.8,1.7-7.3,1.2c-1.6-0.3-3.2-0.7-4.8-1c-3.1-0.7-6.2-1.4-9.3-2.1c-0.7-0.2-1.3-0.4-1.9-0.7
		c-4.3-2.6-9.3-3.9-13.4-6.9c-2.2-1.6-3.2-3.6-3.4-6.3c-0.3-3.8-0.3-7.8-1.3-11.4c4.7,2.9,9.9,4.9,15.3,6.8
		c7.4,2.5,14.9,4.9,22.7,5.8c9.6,1.1,19.1-0.1,28.2-3c-0.2,1-0.4,2-0.5,3.1C115.6,227,114.4,229.8,111.7,232z M40.3,217.3
		c-0.1-0.1-0.1-0.1-0.2-0.2c-0.2-0.5-0.3-1-0.5-1.6c0-0.1-0.1-0.2-0.1-0.2c0.2,0.2,0.5,0.5,0.7,0.7
		C40.3,216.4,40.3,216.8,40.3,217.3z M49.5,52.3c1.2-2.9,2.1-5.9,3.6-8.5c1.5-2.7,3.5-5.1,5.5-7.5c3.1-3.8,7.3-5.7,11.9-6.9
		c1.8-0.5,3.6-0.7,5.5-0.6c1.6,0.1,3.2-0.4,4.8-0.6c0.6,0,1.2,0.2,1.8,0.4c2.5,0.9,4.9,1.9,7.4,2.8c0.8,0.3,1.4,0.1,1.5-0.9
		c0.1-1.8,0.2-3.6,0.5-5.3c0.6-3.8,1.3-7.6,1.8-11.5c0.2-1.4,0.1-2.8,0.3-4.3c0.1-0.5,0.5-1,0.7-1.5c0.4,0.5,0.9,0.9,1,1.4
		c0.4,2,0.6,4-0.4,6c-0.3,0.6-0.3,1.3-0.3,2c-0.3,3-0.5,5.9-0.7,8.9c-0.1,1.4,0,2.8,0,4.3c1.6-0.1,2.6,0.5,3.6,1.5
		c1.9,1.7,4.1,3.1,5.9,5c2.1,2.2,4.1,4.7,5.8,7.2c1.5,2.1,1.5,4.7,1.4,7.2c0,0.6-0.7,1.4-1.3,1.8c-3.1,1.9-4.5,4.8-5.2,8.5
		c-1.9-0.5-3.8-0.7-5.5-1.5c-3.6-1.6-7.3-1.2-11-1.3c-0.4,0-0.9,0.5-1.3,0.8c0.2,0.4,0.4,1,0.8,1.2c1.5,0.6,2.9,1.3,4.5,1.5
		c3.6,0.4,7.2,0.6,10.8,0.8c1.1,0.1,1.2,0.5,0.8,1.4c-0.2,0.3-0.3,0.6-0.5,0.9c-1.6,2.7-1.6,2.7-4.4,1.4c-1.3-0.6-2.6-1.2-3.9-1.9
		c-1.8-0.9-3.6-0.6-5.3-0.1c-1.5,0.5-3,1.3-4.4,2.2c-1.2,0.7-1.2,1.2,0,1.9c1.9,1.1,3.7,2.3,5.6,3.1c3.1,1.2,6,0.6,8.5-1.6
		c0.3-0.3,0.7-0.5,1.3-0.9c0.1,0.5,0.2,0.8,0.2,1c-0.4,1.9-2.3,3.1-4.3,3.3c-6.3,0.5-12.7,0.6-18.9,2.2c-1.2,0.3-2.5,0.6-3.7,0.7
		c-2.2,0.2-3.7-1-4.9-2.7c-2-2.7-4.3-4.9-7.2-6.7c-4.8-2.8-8.4-6.8-10.9-11.8c-0.3-0.5-0.5-1.2-0.9-1.5C49.1,53.7,49.2,53,49.5,52.3
		z M90.2,68c0.1,1.6,1.1,2.5,2.9,2.4c1.4,0,2.2-0.9,2.2-2.5c0-0.3,0-0.5,0.1-0.8c1,0.4,2,0.7,3,1.1c0.6,0.3,1.1,0.8,0.3,1.3
		c-1.9,1.1-3.7,2.6-6.1,1.9c-1.6-0.4-3.1-1.2-4.6-1.9c-0.7-0.3-1.3-0.8-2.3-1.4c1.6-0.8,3-1.5,4.5-2.3C90.2,66.8,90.2,67.4,90.2,68z
		 M47.2,45.4c0.2,0.4,0.7,0.7,0.7,1.1c0.2,1.5,0.4,3.1,0.5,4.7c0,0.8-0.2,1.6-0.3,2.4c-0.2,0-0.4,0-0.6,0c-0.2-0.6-0.5-1.2-0.6-1.8
		c-0.2-1.7-0.4-3.4-0.5-5.1C46.5,46.2,46.9,45.8,47.2,45.4z M44.7,66.9c0.4-1.7,1.5-3.1,2.1-4.6c0.9-2.3,1.2-4.7,1.7-7
		c1.1,1.8,2.2,3.8,3.5,5.8c2,3.1,4.7,5.6,7.9,7.5c3.1,1.9,5.7,4.2,7.8,7.2c2,2.8,5.1,3.8,8.5,2.8c3.9-1.2,7.9-1.7,12-2
		c2.5-0.2,5.1-0.5,7.6-0.7c1.1-0.1,1.4,0.3,1.1,1.3c-0.3,0.9-0.5,1.8-0.9,2.6c-0.6,1.5-1.2,3.1-2,4.5c-1.3,2.2-2.7,4.4-4.1,6.6
		c-0.3,0.5-1.1,1-1.7,1.1c-3.4,0.1-6.9,0.1-10.3,0.1c-3-0.1-6-0.5-9-0.5c-2.7-0.1-4.9-1.2-6.5-3.3c-2.6-3.5-6-6.2-9.5-8.7
		c-1.1-0.7-1.9-1.8-2.9-2.7c-0.3-0.2-0.8-0.1-1.1-0.2c0.1,0.4,0,0.8,0.2,1c2.2,1.9,4.4,3.7,6.5,5.6c1.9,1.7,3.7,3.6,5.2,5.5
		c2.3,2.9,5.1,4.2,8.7,4.4c4.6,0.2,9.3,0.5,13.9,0.7c0.9,0,1.8-0.1,2.7,0c0.9,0.1,1.1,0.6,0.6,1.3c-1,1.6-1.8,3.3-2.9,4.8
		c-0.5,0.7-1.4,1.3-2.3,1.7c-2.9,1.3-4.8,3.4-5.9,6.3c-0.4,1.1-0.9,1.6-2.2,1.6c-3.2-0.1-6.5-0.1-8.9-2.3c-2.1-1.9-3.7-4.4-5.5-6.6
		c-1.9-2.5-3.5-5.3-5.8-7.3c-3-2.6-4.3-5.9-5.8-9.3c-1-2.2-2.3-4.3-3.6-6.2c-1.6-2.3-1.8-4.5-0.4-7C44,69.6,44.4,68.3,44.7,66.9z
		 M34.2,88.3c0.2-1.7,0.7-3.5,1-5.2c0.5-2.6,1.1-5.2,1.5-7.8c0.4-2.4,1.4-4.6,3.2-6.4c0.3-0.3,0.5-0.6,0.6-0.9
		c0.3-0.8,0.9-1.1,2.1-0.7c-0.6,1.3-1.1,2.5-1.7,3.6c-1.6,2.6-1.6,5.1,0.1,7.7c1,1.4,1.9,2.9,2.7,4.4c0.9,1.7,1.6,3.6,2.5,5.3
		c1.1,2.1,1.1,2-0.5,3.7c-2.7,2.8-5.5,5.6-7.4,9c-0.3,0.5-0.5,1-0.9,1.8c-0.6-1.9-1.2-3.5-1.7-5.1C34.6,94.6,33.7,91.6,34.2,88.3z
		 M87.5,271.2c-0.2,1-0.8,1.2-1.6,0.8c-2.7-1.4-5.6-1.4-8.6-1.5c-2.5,0-4.5-0.8-6.5-2.4c-3.2-2.6-6.6-5-10.1-7.4
		c-1.1-0.7-2.5-1.1-3.9-1.2c-2.4-0.1-4.5-1-6.6-1.7c-1.4-0.5-2.8-0.6-4.2-1c-5.4-1.3-11-1.7-15.9-4.7c-1.7-1.1-2.6-2.5-3-4.3
		c2.3,1,4.5,1.9,6.7,3c1.7,0.8,3.3,1.9,5,2.4c2.4,0.7,4.9,0.9,7.4,1.3c0.5,0.1,1,0,1.5,0.1c2.7,0.8,5.4,1.6,8,2.5
		c0.2,0.1,0.5,0.2,0.7,0.2c4.9,0.6,8.8,3.3,12.5,6.3c1.3,1.1,2.7,1.4,4.3,1.9c3.2,0.9,6.7,0.8,9.6,2.7c0.6,0.4,1.5,0.4,2.2,0.3
		C87.1,268.5,87.8,269.4,87.5,271.2z M150.1,246.2c1.1,0,2,0.4,2.2,1.5c0.3,1.2-0.6,2-1.6,2.2c-2.8,0.8-5.7,1.7-8.6,2.2
		c-2.1,0.4-4,1.3-5.9,2.2c-1.3,0.6-2.9,1-4.3,1.2c-2.4,0.2-4.9,0.1-7.4,0.3c-1.6,0.1-3.3,0.5-4.9,0.7c-0.8,0.1-1.5,0.5-1.3,1.4
		c0.2,0.8,0.9,0.9,1.7,0.9c1,0,2.1,0.3,3.2,0.5c1,0.2,2,0.7,3,0.8c2,0.2,4,0.1,6,0.3c1.3,0.1,2.6,0.5,3.9,0.7
		c1.1,0.2,2.3,0.3,3.4,0.5c0,0.1,0,0.3,0,0.4c-3.2,1.2-6.5,2.6-9.7,3.7c-1,0.3-2.2,0.2-3.3,0.1c-4.3-0.1-8.5-0.2-12.8-0.3
		c-1.2,0-2.1-0.4-3-1.2c-0.4-0.4-1-0.7-1.6-0.9c-0.3-0.1-0.8,0.1-1,0.3c-0.1,0.2,0,0.8,0.2,1c1.9,1.2,3.5,2.8,6.2,2.6
		c3.2-0.3,6.4-0.1,9.5-0.1c0,0.2,0.1,0.3,0.1,0.5c-1.3,0.4-2.6,0.8-3.9,1c-2.8,0.4-5.5,0.7-8.3,1.1c-1.7,0.2-3.2-0.2-4.4-1.3
		c-1.7-1.5-3.7-2.1-5.8-2.5c-0.9-0.2-1.7-0.5-2.6-0.6c-0.5,0-1,0.2-1.5,0.4c0.4,0.3,0.7,0.8,1.1,1c1.9,0.6,3.8,1.2,5.7,1.8
		c0.6,0.2,1.2,0.7,1.7,1c1.2,0.7,2.5,1.4,3.9,2.3c-0.3,0.2-0.6,0.6-0.9,0.6c-1.7,0.2-3.4,0.1-5.1-0.4c-2.7-0.9-5.6-1.2-8.4-2
		c-1.8-0.5-3.6-1.2-5.3-2.1c-0.7-0.4-1.4-1.5-1.6-2.3c-1.5-6.9-1.4-14-1.3-21.1c0-0.9,0.2-1.8,0.6-2.6c0.1-0.3,0.8-0.6,1.2-0.7
		c1.9-0.6,3.9-1,5.7-1.6c2-0.7,3.9-1.7,5.9-2.6c1.3-0.6,2.5-1.2,3.8-1.8c1.9-0.8,3.9-1.2,6-0.3c1.1,0.4,2.4,0.3,3.6,0.4
		c2.3,0.3,4.5,0.6,6.7,1.1c0.5,0.1,1,0.6,1.3,1.1c1.9,2.5,3.8,5.1,5.6,7.6c-3.2,0.8-9-0.5-9.2-1.9c-0.6-0.2-1.2-0.3-1.7-0.6
		c-1.5-0.9-4.2-0.8-5.6,0.2c-0.3,0.3-0.4,0.8-0.6,1.2c0.4,0,0.9,0.1,1.2,0c1.7-0.7,3.2-0.9,4.8,0.3c2.4,2,5.3,2.3,8.3,2.4
		c4.1,0.2,8.3,0.4,12.4,0.5c0.6,0,1.2-0.1,1.7-0.3c0.6-0.2,1.2-0.5,1.9,0.1c0.2,0.2,1.1-0.3,1.6-0.5c0.5-0.2,0.9-0.6,1.4-0.7
		C146.4,246.2,148.2,246.2,150.1,246.2z M153.3,130.7c-0.3,1.3-1.5,1.1-2.3,1.4c-1.3,0.4-2.6,0.7-3.9,1c-1.5,0.3-3,0.5-4.5,0.9
		c-1,0.2-2.1,0.6-3.1,1c-0.3,0.1-0.6,0.5-1,0.5c-2,0.3-4.1,0.5-6.3,0.8c0-0.5-0.1-0.9-0.1-1.3c0-2-0.1-3.9,0-5.9
		c0.2-2.9-0.5-5.6-1.4-8.3c-0.8-2.5-1.4-5.2-1.7-7.8c-0.4-2.8-0.4-5.6-0.5-8.5c0-0.3,0.3-0.6,0.4-1c0.1-0.3,0.2-0.6,0.1-0.8
		c-0.9-1.6-0.5-3.4-1.2-5.1c-0.6-1.7-1-3.5-1.5-5.3c-1.2-4.2-0.9-8.5-0.3-12.9c2.3,0.5,3.4-0.9,4.5-3c0.2,0.7,0.5,1.1,0.5,1.5
		c-0.1,2.3-0.3,4.6-0.4,7c0,0.5,0,1,0.2,1.5c1.5,3.9,3,7.8,4.6,11.6c0.2,0.4,0.7,0.7,1,1c0.1-0.5,0.4-1,0.3-1.4
		c-0.3-2.8-0.7-5.6-1.1-8.3c-0.2-1.4-0.8-2.8-1-4.2c-0.3-2.4-0.5-4.9-0.7-7.3c-0.3-2.9-0.6-5.8-0.8-8.8c0-0.3,0-0.7,0-1
		c1.9,1,3.7,1,5.6-0.1c0.4,2.7,0.8,5.3,1.3,7.9c0.4,1.8,0.9,3.6,1.4,5.4c0.3,1.1,0.2,1.9-1.1,2.2c-0.6,0.2-1.2,0.7-1.8,1
		c0.1,0.2,0.2,0.4,0.2,0.6c1-0.3,1.9-0.5,2.9-0.8c1,4.3,1,8.8,3.1,12.7c0.2-0.1,0.5-0.1,0.7-0.2c-2-10.5-4.1-21-6.1-31.7
		c2.3,0.5,3.7-1,5.5-2.5c0.4,1.3,0.8,2.5,1.1,3.7c0.9,3,1.9,6,2.8,9c0.3,1.1,0.6,2.2,1.1,3.2c0.3,0.8,0.1,1.2-0.6,1.6
		c-0.5,0.3-1,0.8-1.5,1.2c0.1,0.2,0.2,0.4,0.3,0.6c0.8-0.3,1.5-0.7,2.4-1c1,4.8,0.6,10,3.6,14.2c0.2,0,0.3,0,0.5-0.1
		c0-0.4,0.1-0.9,0-1.2c-1.2-3.5-1.9-7-1.5-10.8c0.2-1.8-0.3-3.7-0.8-5.5c-0.9-3.3-1.9-6.5-2.9-9.8c-0.1-0.5-0.1-1-0.1-1.6
		c0.3,0.1,0.5,0.1,0.7,0.3c1.5,1.1,3.3,1,5,0.7c0.3,0,0.8,0,0.9,0.2c2.1,3.6,3.9,7.3,4.9,11.3c0,0.1,0,0.4-0.1,0.4h-2.4l-0.1,0.4
		c1,0.3,2,0.6,3,0.9c0.1,1.8,0.3,3.6,0.3,5.4c0.2,4.7,0.4,9.4,0.4,14.1c0,3,0.4,5.9,0.9,8.9c0,0.3,0.4,0.5,0.6,0.8
		c0.2-0.3,0.5-0.6,0.5-1c0-0.7-0.1-1.4-0.4-2c-0.9-2-0.1-3.5,1-5.1c0.5-0.7,0.8-1.5,1.2-2.2c0.7,0,1.4,0,2,0c0.3,0,0.5-0.3,0.8-0.4
		c-0.2-0.2-0.4-0.7-0.6-0.7c-1.3,0-1.5-0.8-1.8-1.9c-0.7-2.2-1.1-4.4-0.2-6.4c0.6-1.3,1.8-2.3,2.8-3.5c0.3-0.4,0.7-0.7,1.3-1.1
		c0.2,0.6,0.3,1.2,0.4,1.9c0.2,1.4,0.3,2.9,0.6,4.3c0.2,0.9,0.8,1.8,1.2,2.7c1.6,3.6,1.2,7-1.1,10.3c-0.8,1.1-1.3,2.5-1.7,3.8
		c-1.5,4.3-4.1,7.5-8.2,9.7c-3.5,1.8-6,4.7-7,8.7C154.1,128,153.6,129.3,153.3,130.7z M158.5,223.6c0.6-2.2,1.3-4.1,1.5-6.1
		c0.3-2.1,0.1-4.2,0.1-6.6c0.7,0.9,1.2,1.6,1.7,2.3c2.8,3.1,5.5,6.2,7.8,9.7c1.5,2.2,4,3.6,6,5.4c0.1,0.1,0.2,0.2,0.3,0.4
		C170.1,226.7,164.5,224.4,158.5,223.6z"/>
	<path class="st0" d="M59.9,57.1c2.1,0.3,4.1,0.5,6.2,0.8c1.9,0.2,2.9,1.6,3.8,3.1c0.6,1.1,1.2,2.2,1.8,3.3c0.3,0.6,0,1-0.7,1
		c-2.3-0.1-4.6,0.1-6.9-0.3c-2.2-0.4-3.9-1.9-5.2-3.8c-0.7-1.1-1.3-2.6-3-2.5c-0.2,0-0.5-0.5-0.5-0.6c0.2-0.3,0.5-0.6,0.8-0.6
		c1.2-0.1,2.5,0,3.7,0C59.9,57.3,59.9,57.2,59.9,57.1z M61.5,58.4c-0.9,0.1-1.7,0.1-2.8,0.2c1.3,2.4,2.6,4.6,5.2,5
		c1.8,0.3,3.7,0.7,5.8,0c-0.9-1.4-1.6-2.5-2.4-3.8c-1.3,2.5-2.2,3.1-3.9,2.6C62.1,62.1,61.5,60.8,61.5,58.4z"/>
	<path class="st0" d="M73.3,57.6c0,1.2-0.6,1.8-1.4,1.4c-4-2-8.4-3.2-12-5.9c-1.1-0.8-2.4-1.3-3.6-1.9c-0.3-0.2-0.7-0.3-0.8-0.5
		c-0.2-0.3-0.2-0.7-0.4-1.1c0.4-0.1,0.8-0.3,1.1-0.1c1.2,0.4,2.3,1,3.5,1.4c1.9,0.7,3.8,1.3,5.7,2.1c2.4,1,4.7,2.2,7,3.4
		C72.9,56.7,73.2,57.4,73.3,57.6z"/>
</g>
</svg>
