<?xml version="1.0" encoding="utf-8"?>
<!-- Generator: Adobe Illustrator 19.1.0, SVG Export Plug-In . SVG Version: 6.00 Build 0)  -->
<svg version="1.1" id="Layer_1" xmlns="http://www.w3.org/2000/svg" xmlns:xlink="http://www.w3.org/1999/xlink" x="0px" y="0px"
	 viewBox="0 0 150 111.8" style="enable-background:new 0 0 150 111.8;" xml:space="preserve">
<style type="text/css">
	.st0{fill:#E91E63;}
</style>
<g id="child-mother-flu-2">
	<path class="st0" d="M0,110.1c1-0.1,1.9-0.1,2.9-0.2c2-0.3,3.9-0.6,5.8-0.9c1.6-0.2,3.3-0.4,4.9-0.6c1.1-0.1,1.7-0.9,2.1-1.8
		c1-1.9,1.9-3.9,2.7-5.9c0.3-0.7,0.6-1.5,0.7-2.3c0.2-1.9,0-3.8-0.8-5.6c-1.6-4-3.4-7.9-4.2-12.2c-0.1-0.4-0.2-0.8-0.4-1.2
		c-0.9-1.9-1-3.9-1.3-5.9c-0.4-2.2-0.6-4.5-0.8-6.7c-0.2-1.4-0.3-2.8-0.3-4.2c-0.1-2.5-0.1-5.1-0.1-7.6c0.1-4.5,1.7-8.3,5.1-11.3
		c0.2-0.2,0.4-0.3,0.6-0.5c2.4-1.2,4.8-2.2,7.5-2.5c1.8-0.2,3.7-0.5,5.5-0.9c1.6-0.3,2.8-1.3,3.6-2.7c0.4-0.7,0.8-1.3,1.2-1.9
		c0.7-1.3,0.5-3.3-0.5-4.4c-1.8-1.7-2.9-3.9-3.7-6.1c-0.5-1.2-0.5-2.6-0.7-3.9c-0.4-2.1-0.2-4.2,0.2-6.3c0.9-4.7,3.5-8.4,7.2-11.2
		c3.5-2.7,7.6-4.1,12.2-3.1c3.4,0.8,6.7,1.9,9.7,3.8c3.1,1.9,5.4,4.5,7.2,7.6c0.7,1.2,0.9,2.6,1.1,3.9c0,0.1,0,0.2,0,0.3
		c-0.6,1.1-0.3,2.1-0.1,3.2c0.5,3.2-0.1,6.2-1.4,9c-0.4,0.9-0.7,1.9-1,2.9c-0.1,0.3,0,0.6,0,0.9c0.3,1.2,0.6,2.4,0.9,3.6
		c0.1,0.4,0.1,0.8,0.1,1.2c0,0.6-0.3,1-0.9,1.2c-0.7,0.2-1.3,0.4-2,0.6c0,0.4,0,0.8,0,1.1c0,0.7-0.2,1.3-0.9,1.6
		c-0.2,0.1-0.3,0.5-0.3,0.7c0.1,1.2-0.3,1.7-1.5,1.7c-0.6,0-1,0.2-1.1,0.8c-0.1,0.3-0.3,0.7-0.5,1c-0.2,0.3-0.5,0.6-0.6,0.7
		c0.9,1.4,1.8,2.8,2.7,4.2c2,3,4.8,5,8,6.5c2.4,1.1,4.9,0.9,7.3,0.5c3.7-0.6,7.4-1.4,11-2.1c1.1-0.2,2.3-0.4,3.4-0.8
		c0.9-0.3,1.7-0.6,2.5-1c0.7-0.3,1.3-0.7,2.1-0.4c0.4,0.1,0.9-0.1,1.3-0.2c1.1-0.4,2.1-0.8,3.1-1.3c2.1-1,4.2-1.7,6.5-2
		c0.2,0,0.5-0.1,0.7,0c1.3,0.6,2.6,0.2,4,0.2c3.9,0.1,7.3,1.6,10,4.4c1.8,1.9,2.9,4.3,3.8,6.8c0.8,2.3,1.9,4.5,2.8,6.7
		c0.4,0.9,0.6,1.9,1,2.9c0.9,2.7,2.3,5.1,3.9,7.5c2.1,3.1,3.9,6.5,5.2,10c0.4,1,0.9,2,1.2,3.1c0.2,0.4,0.3,0.9,0.3,1.4
		c0.1,0.5,0.3,0.8,0.8,0.7c1.7-0.3,3.5-0.6,5.2-0.9c1.6-0.3,3.2-0.5,4.7-0.7c0.3,0.7,0,0.9-0.6,1c-2.9,0.5-5.7,0.9-8.6,1.4
		c-0.2,0-0.5,0-0.7,0c-0.2,0.1-0.5,0.3-0.6,0.5c-0.6,1.2-1.1,2.4-1.7,3.5c-1,1.7-2.5,1.8-4.3,1.6c-2.3-0.3-3.9-1.5-5.1-3.4
		c-0.2-0.4-0.4-0.5-0.9-0.5c-3.7,0.6-7.4,1.1-11.1,1.6c-2.6,0.3-5.1,0.5-7.7,0.7c-0.5,1.2-0.5,1.2-1.8,1.3c-0.3,0-0.6,0.2-0.8,0.3
		c-0.7,0.5-1.4,0.3-2.2,0.2c-0.5-0.1-1.1-0.1-1.6-0.1c-0.3,0-0.6,0-0.9,0c-1.3-0.3-2.5-0.4-3.8,0.1c-0.4,0.2-1,0-1.4,0.2
		c-0.5,0.2-1,0.5-1.5,0.7c-0.2,0.1-0.5,0.2-0.8,0.2c-2.2,0-4.4,0.2-6.6,0.7c-1.6,0.4-3.3,0.3-4.9,0.5c-3.7,0.3-7.5,0.6-11.2,0.9
		c-2.5,0.2-5,0.3-7.5,0.6c-3.6,0.4-7.1,0.8-10.7,1.2c-2.1,0.3-4.3,0.7-6.4,0.9c-1.4,0.2-2.8,0.2-4.2,0.4c-1.3,0.1-2.5,0.3-3.8,0.4
		c-2.6,0.3-5.2,0.6-7.7,0.9c-2.9,0.4-5.7,0.8-8.6,1.2c-4.3,0.6-8.5,1.2-12.8,1.8c-3.1,0.4-6.2,0.8-9.3,1.3C0,111.2,0,110.7,0,110.1z
		 M87,71.4c-0.1-0.1-0.2-0.1-0.3-0.2c-0.2,0.3-0.4,0.5-0.7,0.8c-1.3,1.2-2.6,2.4-3.9,3.6c-0.2,0.2-0.6,0.1-0.9,0.2
		c0.1-0.3,0.2-0.6,0.4-0.8c1.3-1.2,2.5-2.4,3.8-3.5c0.4-0.4,0.9-0.8,1.2-1.3c0.2-0.4,0.2-1,0-1.5c-0.1-0.2-1-0.3-1.2-0.1
		c-1.7,1.3-3.4,2.8-5.1,4.1c-0.2,0.2-0.6,0.1-1,0.2c0.1-0.3,0.2-0.7,0.4-0.9c1.1-0.9,2.3-1.7,3.5-2.6c0.9-0.7,1.7-1.5,2.4-2.4
		c0.2-0.2,0.1-0.9-0.1-1.2c-0.3-0.4-0.7-0.2-1,0.3c-0.2,0.3-0.7,0.5-1,0.7c-1.8,0.9-3.7,1.7-5.3,3.1c-0.2,0.2-0.7,0.1-1,0.1
		c0.1-0.3,0.2-0.5,0.3-0.8c0.1-0.1,0.2-0.2,0.4-0.3c1.8-1,3.6-2,5.4-3c0.2-0.1,0.5-0.3,0.6-0.5c0.5-0.9,1-1.8,1.4-2.7
		c0.1-0.3,0.1-0.8-0.1-1.1c-0.2-0.2-0.6-0.4-0.9-0.4c-0.8,0.1-1.4,0.5-1.9,1.3c-0.2,0.3-0.7,0.6-1.1,0.7c-0.6,0.3-1.3,0.4-1.9,0.6
		c-1.9,0.8-3.7,1.9-5.3,3.2c-0.2,0.1-0.5,0.1-0.7,0.1c0.1-0.2,0.1-0.5,0.3-0.6c0.7-0.6,1.5-1.2,2.3-1.7c1.7-0.8,3.4-1.5,5.1-2.2
		c0.5-0.2,0.7-0.4,0.7-0.9c-0.1-0.6-0.5-0.4-0.9-0.3c-0.9,0.2-1.7,0.3-2.6,0.5c-1,0.2-1.9,0.5-2.8,1.2c-1,0.9-2.1,1.6-3.1,2.4
		c-0.2,0.2-0.5,0.4-0.7,0.6c-1.2,1.5-1.7,3.3-2.1,5.1c-0.2,1.3-0.1,2.7-1.5,3.5c-0.7,0.4-1.3,1-2,1.4c-2.7,1.5-5.2,3.5-8.1,4.8
		c-0.3,0.1-0.5,0.3-0.8,0.4c-3.7,2.5-7.9,4.3-12,6.1c-1.5,0.7-3.2,1-4.7,1.7c-1.9,0.8-3.9,1.3-6,1.6c-0.9,0.1-1.8,0.3-2.6,0.6
		c-1,0.4-1.9,1-2.9,1.5c-0.2,0.1-0.4,0-0.8,0.1c0.9-1.2,2-1.7,3.1-2.2c0.9-0.4,1.4-0.9,1.5-2c0.1-3-0.1-5.9-0.7-8.8
		c-0.9-3.9-2-7.7-3-11.5c-0.1-0.4-0.5-0.8-0.5-1.2c-0.1-1.8-0.2-3.6-0.2-5.4c0-0.3,0.2-0.5,0.4-0.8c0.1,0.3,0.4,0.5,0.4,0.8
		c0.1,1,0.1,1.9,0.3,2.9c0,0.3,0.4,0.6,0.6,0.8c0.2-0.3,0.6-0.5,0.7-0.8c0.5-2.1,0.7-4.2,0.1-6.2c-0.6-2.2-1.3-4.3-2.1-6.4
		c-0.9-2.3-2.1-4.6-3.2-6.8c-0.4-0.7-1-1.5-1.7-1.9c-0.9-0.5-2-1.2-2.9-1c-4.8,1-7.3,4.4-8.3,8.9c-0.5,2.3-0.3,4.7-0.4,7
		c0,1.3,0,2.6,0.1,3.9c0,1,0,2.1,0.2,3.1c0.3,2.5,0.5,4.9,0.9,7.3c0.3,1.9,0.6,3.8,1,5.6c0.4,1.7,1,3.3,1.6,5
		c0.9,2.6,1.9,5.1,2.8,7.7c0.6,1.7,1,3.4,1.7,5c1.4,3.2,3,6.3,4.6,9.5c0.4,0.8,1,1,1.9,0.9c1-0.1,2.1-0.1,3.1-0.3
		c1-0.1,2-0.1,2.9-0.4c3-1.3,6-2.6,9-4.1c3.1-1.5,6.1-3.2,9.1-4.8c0.9-0.5,1.8-1.1,2.7-1.7c1.7-1.1,3.4-2.1,5.1-3.2
		c1.4-0.9,2.7-1.7,4.1-2.6c1.9-1.3,3.7-2.6,5.6-3.9c0.7-0.5,1.5-0.8,2.3-1.3c-0.4-0.5-0.8-0.9-1.2-1.3c-0.2-0.2-0.3-0.4-0.4-0.6
		c0.3,0,0.6-0.1,0.8,0c0.5,0.5,1,1,1.5,1.5c0.8-0.3,1.7-0.6,2.5-1c1.9-0.9,4-1.7,5.8-2.9c3-2,5-5.1,7.1-8C87,72,87,71.7,87,71.4z
		 M22.4,41.9c0.1,0.2,0.2,0.2,0.2,0.3c0.1,0,0.1,0.1,0.2,0.1c1.5,0.5,2.6,1.4,3.3,2.7c1.1,2,2.2,3.9,3,6c1,2.7,2.1,5.5,2.6,8.4
		c0.4,2.7,0.1,5.4-1.3,7.7C30,67.8,29.9,68.4,30,69c0.7,2.6,1.5,5.2,2.2,7.9c0.6,2.3,1,4.7,1.3,7.1c0.2,1.8,0.2,3.7,0.2,5.5
		c0,0.4,0.1,0.6,0.6,0.6c0.7-0.1,1.4-0.1,2-0.3c2.9-0.9,5.9-1.8,8.7-2.9c2-0.7,3.9-1.8,5.9-2.7c1.1-0.5,2.1-1,3.2-1.6
		c1.5-0.8,2.9-1.8,4.4-2.5c0.8-0.4,1.2-0.9,1.4-1.7c0.6-3.3,0.3-6.5-1.3-9.6c-1.4-2.8-2.8-5.6-2.7-8.8c0-0.1,0-0.2,0-0.3
		c-0.6-4-1.3-8-2-12c-0.1-0.4-0.4-0.8-0.8-1c-1.1-0.8-2.5-0.9-3.9-0.9c-0.2,1.1-0.9,2.3,0.3,3.4c0.1,0.1,0.3,0.3,0.3,0.5
		c0.2,0.8,0.5,1.6,0.4,2.4c-0.1,0.8-0.6,1.4-1.4,2c-2,1.4-4.5,1.1-6.3-0.1c-2.3-1.6-4.2-3.6-6-5.8c-1.8-2.2-3.5-4.5-5.3-6.7
		c-0.4-0.5-0.9-0.6-1.5-0.5c-1.6,0.3-3.1,0.6-4.7,0.8C24.1,41.8,23.3,41.8,22.4,41.9z M97.8,62.3c-0.1-0.1-0.4-0.3-0.7-0.4
		c-1.2-0.6-2.4-1.4-3.9-0.7c-2.3,1.2-4.7,2.2-7,3.3c-0.3,0.1-0.5,0.3-0.9,0.5c1.6,0.5,1.3,1.6,1.1,2.6c1.2,0.7,1.5,1.4,1.1,2.8
		c0,0.2,0,0.4,0.1,0.6c0.2,0.8,0.4,1.5-0.3,2.2c-0.9,1-1.7,2.1-2.5,3.2c-2.1,2.7-4.6,4.9-7.8,6.2c-3,1.3-6.1,2.4-8.8,4.3
		c-1.9,1.2-3.7,2.5-5.6,3.7c-2,1.3-3.9,2.6-5.9,3.9C55.9,95,56,95.2,56.4,96c0.6,1.1,1,2.3,1.5,3.4c0.3,0.9,0.5,1.8,0.7,2.7
		c0.1,0.5,0.4,0.6,0.9,0.6c0.8-0.1,1.6-0.2,2.3-0.3c1.5-0.1,3-0.1,4.6-0.3c2.5-0.2,5.1-0.6,7.6-0.7c4.1-0.2,8.3-0.4,12.4-1.4
		c0-1.6-0.1-3.3,0-5c0.1-1.8,0.5-3.6,0.7-5.4c0.1-0.6,0.2-1.1,0.2-1.7c0-0.2-0.2-0.4-0.3-0.6c-0.3-0.5-0.8-1-0.8-1.4
		c0.2-3,1.6-5.4,4-7.2c0.4-0.3,0.9-0.6,1.3-0.8c0.9-0.3,1.9-0.6,2.9-0.9c0.2-0.1,0.5-0.4,0.5-0.7c0.3-0.9,0.5-1.9,0.7-2.9
		c0.4-2,0.8-4.1,1.2-6.1C97.4,65.8,97.5,64.1,97.8,62.3z M66.1,18c-2.1,0.2-4.1,0.2-6,0.6c-0.9,0.2-1.9,0.7-2.5,1.3
		c-0.9,0.9-1.6,2.1-2.4,3.2c-1.2,1.8-2.8,2.7-4.9,3c-2.4,0.3-3.1,2-2.9,4.2c0,0.3-0.2,0.8-0.4,0.9c-0.2,0.1-0.7,0-1-0.1
		c-0.4-0.4-0.8-0.9-1.1-1.4c-1.1-1.9-2.9-3-4.6-4.2c-1.2-0.9-2.6-0.2-2.8,1.2c-0.1,0.9-0.1,1.8-0.1,2.7c0,2,2.1,4.1,3.7,4.7
		c0.3,0.1,0.7,0.1,1,0c0.3-0.1,0.7-0.3,0.8-0.6c0.1-0.1-0.2-0.5-0.3-0.7c0-0.3,0-0.6,0-0.9c0.3,0.1,0.8,0.1,0.8,0.2
		c0.1,0.6,0.2,1.3,0,2c-0.1,0.6-0.7,0.9-1.3,0.9c-0.9,0-1.7-0.2-2.3-0.8c-0.8-0.7-1.7-1.5-2.5-2.3c-0.5,1.1-1,2.3-1.6,3.5
		c-0.6,1.2-1.3,2.3-2.2,3.4c-0.6,0.7-1.4,1.2-2.2,1.8c0,0.1,0.1,0.2,0.1,0.2c1.7,1.5,2.9,3.3,4.1,5.2c0.6,0.9,1.2,1.9,2,2.7
		c1.1,1.2,2.4,2.2,3.6,3.4c1.1,1.1,2.3,1.8,3.9,2c2.7,0.4,4.2-0.8,4.1-3.5c0-0.4-0.3-0.7-0.5-1c-0.3,0.2-0.6,0.5-0.8,0.8
		c-0.3,0.4-0.6,1-0.9,1.4c-0.7-0.5-0.4-0.8-0.2-1.3c0.6-1.4,1.2-2.9,1.7-4.4c0.2-0.4,0-0.8-0.5-0.9c-1.9-0.5-3.4-1.6-4.5-3.1
		c-0.9-1.3-1.7-2.8-2.6-4.3c0.9,0,1.1,0.5,1.3,1c0.3,0.5,0.4,1,0.7,1.5c1,1.6,2.3,3.2,4.1,3.8c1.4,0.5,2.7,1.2,4.3,1.2
		c0.2,0,0.4,0.1,0.5,0.2c1,0.3,2,0.8,3,1c1.6,0.4,2.9-0.3,3.7-1.8c0.6-1.1,0.6-1.1-0.3-1.9c-0.2-0.2-0.3-0.5-0.4-0.7
		c0.3-0.1,0.5-0.2,0.8-0.3c1.1-0.4,2.2-0.8,3.3-1.2c0.6-0.3,0.7-0.9,0.5-1.4c-0.1-0.3-0.4-0.6-0.8-0.8c-0.5-0.2-1.2-0.1-1.1-1
		c0.1-0.5,0.1-1.1,0.3-1.6c0.1-0.3,0.6-0.4,0.9-0.5c0.1,0.1,0.1,0.2,0.2,0.2c-0.3,0.5-0.5,1-0.8,1.5c-0.2,0.4-0.1,0.7,0.4,0.7
		c0.9-0.1,1.7,0,2.6-0.2c1.1-0.2,1.3-0.4,1-1.5c-0.4-1.3-0.8-2.7-1-4c-0.1-0.7-0.1-1.4,0.1-2.1c0.2-0.8,0.6-1.5,1-2.2
		c1.4-2.8,1.4-5.8,1.2-8.9C66.2,18.4,66.1,18.1,66.1,18z M110.5,51.4c-1.2-0.4-2.3-0.7-3.5-1.1c-0.2-0.1-0.4-0.1-0.6,0
		c-1.6,0.4-3.2,0.6-4.7,1.2c-1.8,0.6-3.5,1.5-5.2,2.3c-0.4,0.2-1,0.3-1.4,0.1c-0.6-0.2-1-0.1-1.4,0.3c-0.2,0.2-0.5,0.5-0.9,0.5
		c-1.3,0.4-2.7,0.7-4,1c-4.1,1-8.2,2.1-12.5,2.5c-2.4,0.2-4.8,0.6-7.2-0.4c-4.2-1.6-7.3-4.2-9.5-8.1c-0.5-0.8-1.1-1.6-1.6-2.4
		c-0.1-0.2-0.4-0.4-0.6-0.4c-0.8,0.1-1.6,0.2-2.6,0.3c0.6,3.1,0.5,6.2,1.6,9.2c0.6-0.6,1-1.1,1.5-1.7c0.4,0.5,0.1,0.8-0.2,1.2
		c-0.7,1.1-1.2,2.1-1.2,3.6c0,1.8,0.6,2.8,2.1,3.3c0.1,0.1,0.3,0.2,0.4,0.2c1.2,0.6,2.3,1.4,3.5,1.9c2.4,1,5,1.5,7.6,1.5
		c0.3,0,0.7-0.2,0.9-0.4c0.4-0.4,0.8-0.9,1.2-1.4c-0.6-1.5-0.6-3.1-0.7-4.8c0-0.1,0.2-0.3,0.3-0.4c0.1,0,0.4,0.1,0.4,0.3
		c0.1,0.2,0.1,0.5,0.2,0.8c0.2,1.3,0.4,2.5,0.6,3.9c0.7-0.6,1.4-1.2,2.1-1.8c0.7-0.6,1.4-1.2,2.4-1.3c1.1-0.1,2.2-0.4,3.2-0.6
		c0.8-0.2,1.5-0.2,1.9,0.5c0.6-0.2,1.1-0.4,1.6-0.6c1.3-0.4,2.7-0.8,4-1.3c1.2-0.5,2.4-1.2,3.6-1.7c0.2-0.1,0.6,0,0.8,0
		c-0.1,0.3-0.2,0.5-0.3,0.8c-0.1,0.1-0.3,0.2-0.4,0.3c-1.6,1.2-3.1,2.5-4.7,3.7c-0.5,0.4-0.9,0.8-1.4,1.3c0.3,0,0.6-0.1,0.8-0.2
		c2-0.9,4-1.9,6-2.8c1.3-0.6,2.4-0.8,3.7,0.1c0.7,0.5,1.7,0.7,2.6,0.9c1.9,0.5,3.5-0.9,5.4-0.8c-0.7-1.3-0.7-1.6,0.1-2.8
		c-2,0.7-3.9,1.7-6,1.3c0-0.2,0.1-0.3,0.2-0.3c1.9-0.6,3.8-1.2,5.7-1.7c0.8-0.2,1.7-0.3,2.2,0.4c0.8,1,1.8,1.8,2.9,2.4
		c0.1,0,0.1,0.1,0.2,0.2c0.5,0.3,0.9,0.6,1.3,0.8c0.6-2-0.8-2.7-2-3.5c0,0,0,0-0.1-0.1c-1.6-1.1-3.3-2-5.3-2.3
		c-0.3,0-0.5-0.2-0.8-0.4c0-0.1,0.1-0.2,0.1-0.2c3.9,0,6.6,2.3,9.4,4.6c0.5-1,0.4-1.8-0.5-2.5c-0.2-0.2-0.4-0.4-0.6-0.6
		c-1.5-1.1-2.9-2.6-5-2.7c-0.2,0-0.5-0.3-0.7-0.4c2.9-0.4,4.7,1.5,6.7,2.9c0.7-0.8,0.4-1.3-0.4-1.8c-1.7-0.9-3.3-2.1-5.3-2.5
		c-0.5-0.1-1.1-0.2-1.6-0.3c0-0.1,0-0.2,0.1-0.3c2-0.3,3.8,0.5,5.5,1.6C110.5,52.4,110.5,52,110.5,51.4z M94.8,78.3
		c-0.2,0.1-0.4,0.2-0.7,0.3C92,79,90.3,80,88.8,81.5c-1.1,1.1-1.2,2.5-1.7,3.9c0.5,0.1,0.9,0.2,1.3,0.1c1.6-0.1,3.2,0.2,4.6,0.9
		c0.8,0.4,1.6,0.8,2.4,1.2c0.2-0.5,0.4-0.9,0.6-1.5c0.7,1.2,0.3,2.2,0.1,3.3c0.4,0,0.8,0.1,1.1,0.1c0,0.1,0,0.2,0,0.2
		c-0.3,0.1-0.5,0.2-0.8,0.3c-0.6,0.2-1.1,0.5-1.3,1.2c-0.1,0.6-0.3,1.2-0.3,1.8c-0.2,1.6-0.3,3.2-0.5,4.9c-0.1,0.5-0.1,1.1-0.2,1.8
		c0.8-0.2,1.5-0.5,2.1-0.6c0.5-0.1,0.7-0.3,1-0.7c0.4-0.8,1.1-1.2,2-1.2c0.3,0,0.6-0.1,0.9-0.3c0.7-0.5,1.5-0.5,2.3-0.4
		c0.2,0,0.4,0.1,0.5,0.1c1.5-0.6,2.9-0.2,4.3,0.3c0.9,0.3,1.7,0.4,2.6,0.4c0.3,0,0.7-0.1,1-0.1c3.5-0.4,7-0.8,10.5-1.2
		c0.5-0.1,0.6-0.2,0.7-0.7c0.1-1.1,0.2-2.3,0.5-3.4c0.5-2,0.5-3.8-0.9-5.4c-0.1-0.1,0-0.3,0-0.4c0.1,0,0.1-0.1,0.2-0.1
		c0.5,0.6,0.9,1.1,1.4,1.7c0.1-0.1,0.2-0.2,0.3-0.4c0.5-0.8,1-1.7,1.5-2.5c0.1-0.3,0.2-0.7,0.1-1c-0.4-1-0.8-2-1.3-3
		c-0.3-0.5-0.6-0.4-0.9,0c-1.1,1.5-2.6,2.4-4.4,2.8c-0.8,0.2-1.3,0.6-1.7,1.3c-0.7,1.4-1.7,2.5-3.1,3.2c-2.1,1-4.4,1.3-6.7,1.2
		c-0.1,0-0.2-0.1-0.4-0.1c-2.2-1.1-3.5-3.1-5-4.8c-0.7-0.8-1.2-1.9-1.8-2.9c-1.2,0.5-2.2,0.1-3-0.6C96.1,80.2,95.5,79.2,94.8,78.3z
		 M121.8,73.3c0.3,0.7,0.6,1.4,0.9,2.1c0.8,2.1,1.6,4.1,2.4,6.2c0.3,0.9,0.8,1.7,1.1,2.5c0.6,1.8,1.2,3.7,1.8,5.5
		c0.4,1.1,0.8,2.2,1.2,3.3c0.1,0.2-0.1,0.5-0.1,0.7c-0.2-0.1-0.4-0.3-0.4-0.4c-0.2-0.5-0.4-1-0.6-1.5c-0.8-2-1.6-4-2.3-6
		c-0.1-0.2-0.2-0.3-0.4-0.4c-0.1,0.1-0.3,0.2-0.4,0.4c-0.2,0.4-0.3,1-0.5,1.4c-0.5,0.7-0.3,1.4,0.2,2c1.5,2.3,3,4.6,4.5,6.9
		c0.9,1.3,2.1,2.2,3.6,2.7c1.4,0.4,3.5,0.1,4.3-1.1c1.2-1.8,1.8-3.7,0.9-5.9c-1.3-3.2-2.6-6.5-4-9.6c-0.4-1-1.1-2.1-1.8-2.9
		c-2.2-2.3-3.4-5.1-4.5-8c-0.7-1.8-2.3-3.4-4.3-3.7c-0.9-0.1-1.9-0.5-2.8-0.7c-0.5-0.1-0.9-0.4-1.4-0.5c-0.4-0.1-0.8,0-1.1,0.1
		c-0.5,0.2-0.9,0.5-1.4,0.8c-0.4,0.2-0.7,0.3-0.8,0.9c-0.3,1.2-0.8,2.3-1.3,3.4c-0.8,1.7-0.7,3.4-0.5,5.2c0,0.1,0.2,0.3,0.4,0.3
		c0.1,0,0.3-0.2,0.3-0.3c0.1-0.5,0.1-1,0.2-1.6c0.2-1.6,0.8-2.2,1.9-2.2c0.4,0,0.8-0.1,1.3-0.1c1.2-0.2,2.6,0.4,3.6-0.7
		c0,0,0.1-0.1,0.1,0c0.2,0.1,0.4,0.1,0.5,0.2c0.1,0.1,0,0.4-0.1,0.5C122.2,72.9,121.9,73.1,121.8,73.3z M100.8,62.5
		c-0.1,1-0.4,1.9-0.4,2.8c0.1,1.7,0.2,3.5,0.5,5.2c0.3,1.6,0.4,3.2,1.5,4.5c0.8,0.8,1.7,1.5,2.6,2.2c2.2,1.6,4.5,1.7,7,0.6
		c1.3-0.6,1.5-1.4,1.4-2.8c-0.1-0.9,0-1.8,0.2-2.6c0.4-1.6,1-3.1,1.5-4.7c0.2-0.7,0.5-1.1,1.2-1.2c1.3-0.1,1.9-1.4,1.4-2.6
		c-0.4-1.1-0.7-2.3-1.1-3.5c-0.2-0.7-0.6-1.4-0.9-2.1c-0.1-0.2-0.4-0.2-0.5-0.3c0.2,0.9,0.6,1.7,0.3,2.3c-0.2,0.6-1.1,0.9-1.7,1.3
		c0.3,0.4,1.6-0.1,1.5,1.1c-1.4-0.2-2.7-0.3-3.9-0.5c-0.5-0.1-0.9-0.2-1.2,0.3c-0.1,0.2-0.6,0.1-1,0.1c0.1-0.3,0.2-0.5,0.4-0.8
		c0.1-0.1,0.2-0.2,0.3-0.3c-0.4-0.3-0.7-0.7-1-1c-0.6-0.4-1.1-0.8-1.9-0.4c-0.7,0.4-1.3,0.8-2,1.3c0.1,0.2,0.1,0.4,0.3,0.9
		c-0.6-0.1-1.1-0.2-1.5-0.3c-0.5-0.1-1.1-0.2-1.6-0.1C101.8,62.1,101.3,62.3,100.8,62.5z M108.6,88.2c0.3,0,0.8-0.1,1.3-0.2
		c2.2-0.2,4-1.3,5.2-3c0.8-1.2,1.5-2.5,2-3.9c0.3-0.7,0.5-1.5,0.5-2.3c0-0.8-0.4-1-1.2-0.7c-0.3,0.1-0.9,0.2-1.1,0
		c-0.8-0.5-1.9-0.7-2.7-0.1c-2.2,1.5-6.1,1.1-7.8-0.3c-0.2-0.2-0.6-0.3-0.8-0.4c0,0.3,0,0.6,0.1,1c0,0.1,0.1,0.2,0.1,0.3
		c0.4,1.5,0.6,3-0.6,4.3c-0.5,0.6-0.9,1.2-0.1,1.9c0.1,0.1,0.1,0.2,0.2,0.3C104.8,86.7,106.1,88.2,108.6,88.2z M60.8,78.2
		c0.2,0,0.3,0.1,0.3,0.1c2.4-1.2,4.8-2.6,6.8-4.3c0.2-0.2,0.4-0.6,0.5-0.9c0.4-1.4,0.7-2.8,1-4.2c0.1-0.4,0.2-0.7,0.3-1
		c-2.3-0.5-4.5-0.8-6.6-1.5c-2.1-0.7-4-2-6-3c0.5,2,1.3,3.8,2.2,5.5c0.8,1.5,1.3,3,1.4,4.7C60.9,75,60.8,76.6,60.8,78.2z M87.1,97.4
		c0.1,0,0.2,0,0.2,0c0,0.7,0,1.4,0,2.1c0,0.6,0.2,0.8,0.9,0.7c1.4-0.2,2.9-0.4,4.3-0.5c0.7,0,1-0.3,1.1-0.9c0.2-1.4,0.3-2.8,0.5-4.2
		c0.2-1.4,0.5-2.8,0.9-4.2c0.3-0.9,0.1-1.7-0.8-2.2c-0.4-0.2-0.7-0.5-1.1-0.6c-1.1-0.4-2.1-0.9-3.2-1.2c-0.8-0.2-1.3,0.1-1.4,1
		c-0.1,1-0.2,1.9-0.3,2.9C87.8,92.7,87.4,95,87.1,97.4z M37.5,105.4c0.5-0.1,1-0.2,1.6-0.3c2.7-0.3,5.3-0.5,8-0.9
		c3.4-0.4,6.8-0.9,10.1-1.3c0.6-0.1,0.6-0.3,0.5-0.8c-0.3-1-0.5-1.9-0.8-2.9c-0.4-1.2-0.8-2.5-1.7-3.5c-0.7,0.5-1.4,0.9-2,1.3
		c-3,1.6-5.9,3.2-8.9,4.8c-0.7,0.4-1.5,0.7-2.2,1C40.4,103.6,38.8,104.2,37.5,105.4z M20.4,98.4c-1.4,3.1-2.9,6.3-4.4,9.7
		c3-0.4,5.8-0.7,8.6-1.1C23.1,104,21.7,101.1,20.4,98.4z M124,89.6c-0.6,0.4-0.9,0.7-0.9,1.4c0,1.1,0,2.2-0.1,3.3
		c0,0.4-0.1,0.8-0.1,1.4c1.6-0.2,3.1-0.5,4.6-0.7C126.3,93.1,125.2,91.3,124,89.6z M102.2,83c0.1,0,0.2,0,0.3-0.1
		c0.2-0.8,0.4-1.5,0.4-2.3c0-0.3-0.3-0.7-0.4-1c-0.3,0.2-0.7,0.4-1,0.6c-0.2,0.2-0.4,0.7-0.3,0.9C101.5,81.8,101.9,82.4,102.2,83z
		 M101,97.3c0.4,0.1,0.8,0.3,1.2,0.4c0.3,0.1,0.6,0.3,0.7,0.5c0.3,1,1.1,1,1.9,1.1c0.2,0,0.4-0.1,0.6-0.2c-0.1-0.2-0.1-0.6-0.3-0.7
		c-1.3-0.6-2.4-1.4-3.9-1.3C101.1,97.2,101.1,97.2,101,97.3z M97.9,98.8c0.7,0,1.3,0,1.9,0c0.6,0.1,1.2,0.2,1.8,0.3
		c0.2,0,0.4-0.1,0.6-0.2c-0.1-0.2-0.2-0.5-0.4-0.5c-0.6-0.2-1.1-0.4-1.7-0.5C99.2,97.9,98.3,97.8,97.9,98.8z M116.8,77.4
		c0.7,0.1,1-0.2,1-0.7c0.1-0.9,0.1-1.9,0.1-2.8c0-0.1-0.3-0.3-0.4-0.4c-0.1,0.2-0.4,0.3-0.4,0.5c-0.1,0.7-0.1,1.4-0.1,2.1
		C116.9,76.4,116.9,76.9,116.8,77.4z M105.8,58.3c-0.4,0.2-0.7,0.4-1.1,0.6c-0.6,0.4-0.6,1.1,0.1,1.4c0.5,0.2,1.3,0,1.6-0.6
		C106.8,59,106.3,58.7,105.8,58.3z M103.9,96.9c0.8,0.6,1.5,1.1,2.3,1.5c0.2,0.1,0.5,0.2,0.7,0.2c0.3,0,0.6-0.2,0.9-0.3
		c-0.2-0.3-0.4-0.7-0.6-0.8c-0.8-0.3-1.6-0.5-2.4-0.7C104.4,96.8,104.1,96.9,103.9,96.9z M116.5,73.9c-0.1,0-0.2,0-0.3-0.1
		c-0.1,0.1-0.3,0.2-0.3,0.2c-0.2,1.1-0.3,2.3-0.4,3.4c0,0.1,0.2,0.2,0.3,0.2c0.1,0,0.2-0.2,0.3-0.3C116.2,76.2,116.3,75,116.5,73.9z
		 M113.4,55.7c-0.1,0-0.2,0.1-0.3,0.1c0,0.5-0.1,1,0,1.4c0,0.2,0.4,0.5,0.6,0.5c0.2,0,0.6-0.2,0.7-0.4c0.1-0.2,0.1-0.6,0-0.7
		C114.2,56.3,113.8,56,113.4,55.7z M113.8,60.4c0,0.1,0.1,0.1,0.1,0.2c0.3-0.2,0.7-0.4,0.7-0.7c0.1-0.3-0.2-0.7-0.4-0.9
		c-0.2-0.2-0.7-0.4-0.8-0.4c-0.4,0.3-0.3,0.7,0.1,1.1C113.7,59.9,113.7,60.2,113.8,60.4z M111.3,51.8c-0.1,0.1-0.2,0.1-0.2,0.2
		c0.2,0.4,0.5,0.8,0.7,1.1c0.1,0.1,0.4,0.3,0.5,0.2c0.2-0.1,0.4-0.3,0.4-0.5c0-0.2-0.1-0.4-0.3-0.5C112,52.1,111.6,52,111.3,51.8z
		 M59.2,42.2c0,0.2,0,0.3,0,0.5c0.4,0.1,0.9,0.3,1.3,0.3c0.2,0,0.3-0.2,0.5-0.4c-0.2-0.2-0.3-0.6-0.5-0.6
		C60.1,42,59.6,42.2,59.2,42.2z M111.8,60c-0.1,0.1-0.2,0.1-0.3,0.2c0.2,0.4,0.3,0.8,0.6,1.1c0.1,0.1,0.4,0.1,0.6,0.2
		c0-0.2,0.1-0.6,0-0.7C112.4,60.4,112.1,60.2,111.8,60z"/>
	<path class="st0" d="M40,25.5c0.4,0.3,1,0.6,1.3,1c0.4,0.5,0.6,1,0.9,1.6c0.2,0.4,0,0.7-0.5,0.6c-0.7-0.1-1,0.2-1.2,0.7
		c-0.2,0.6-0.5,1.2,0,1.8c0.2,0.3,0.5,0.5,0.7,0.8c0.1,0.2,0.1,0.5,0.1,0.8c-0.2,0-0.6,0.1-0.7,0c-0.8-1-1.7-1.9-2.3-3.1
		c-0.7-1.3-0.1-2.9,1-3.8C39.4,25.8,39.6,25.7,40,25.5z M41.3,27.8c-0.4-0.5-0.8-1-1.2-1.4c-0.5,0.6-1.3,0.8-1.4,1.7
		c0,0.7-0.2,1.5,0.5,2.1C39.5,28.9,39.7,28.7,41.3,27.8z"/>
	<path class="st0" d="M57.2,29.7c0.9-0.9,4.5-1.7,5.9-1.4c0.2,0.6,0,0.9-0.7,0.9c-1.4,0.1-2.9-0.2-4.2,0.6
		C58,29.9,57.6,29.7,57.2,29.7z"/>
	<path class="st0" d="M61.7,31.1c0.3,0.5,0.1,0.8-0.3,1.1c-1,0.6-2.1,0.7-3.2,0.4c-0.5-0.1-1.1-0.4-1.5-0.7
		c-0.1-0.1-0.1-0.4-0.2-0.6c0.2,0,0.4-0.1,0.6-0.1c0,0,0.1,0,0.1,0C58.8,32.3,60.3,31.9,61.7,31.1z"/>
	<path class="st0" d="M110.3,73.3c-1.4,1-2.7,2-4.4,1.3c-0.6-0.3-1.2-0.7-1.7-1c-0.1-0.1-0.2-0.4-0.1-0.5c0.3-0.5,0.6-1.1,0.9-1.6
		c0.1-0.2,0.3-0.6,0.5-0.5c0.8,0,1.8-0.1,2.5,0.3C108.7,71.6,109.4,72.5,110.3,73.3z M109.2,73.4c-0.9-0.5-3.3-0.5-4.3,0.1
		C106.1,74.7,108.1,74.7,109.2,73.4z M108.5,72.5c-0.5-1.4-1.8-1.2-2.8-1.2c-0.4,0-0.8,1-1.4,1.7C105.9,72.8,107.2,72.6,108.5,72.5z
		"/>
	<path class="st0" d="M109.5,65.2c0.2-1,1.1-1.9,2-2c1.1-0.1,2,0,2.8,0.9c0.3,0.4,0.3,0.8-0.1,0.8c-1.4,0.2-2.9,0.7-4.4,0.4
		C109.7,65.3,109.6,65.2,109.5,65.2z M111.9,64.9c0.5-0.1,1-0.3,1.5-0.4c0-0.1,0-0.2,0-0.3c-0.5-0.1-1-0.3-1.5-0.4
		C111.9,64.2,111.9,64.5,111.9,64.9z"/>
	<path class="st0" d="M103.1,65.6c-0.4,0-0.7,0-1.1,0c-0.8,0-1.1-0.5-0.7-1.2c0.7-1.3,2.4-1.5,3.3-0.4c0.3,0.4,0.4,0.9,0.6,1.3
		c-0.5,0.1-1,0.2-1.5,0.3C103.6,65.7,103.4,65.6,103.1,65.6C103.1,65.6,103.1,65.6,103.1,65.6z M104.6,65.1c0-0.1,0.1-0.1,0.1-0.2
		c-0.3-0.4-0.7-0.7-1.1-1.1c-0.1,0.6-0.2,0.9-0.3,1.4C103.8,65.1,104.2,65.1,104.6,65.1z"/>
	<path class="st0" d="M106.1,67.2c-0.3,0.5-0.7,1-0.9,1.5c-0.1,0.2-0.1,0.5-0.1,0.8c0,0.1,0.3,0.1,0.7,0.2c-0.1-0.3-0.2-0.5-0.4-0.9
		c0.4,0.2,0.8,0.3,1,0.5c0.3,0.3,0.5,0.3,0.8,0.1c0.2-0.2,0.5-0.3,0.8-0.4c0.2-0.1,0.4-0.1,0.6,0c0.1,0.1,0,0.3,0,0.5
		c0.8,0.1,1.1-0.2,0.7-0.9c-0.1-0.2-0.2-0.3-0.4-0.5c-0.1-0.2-0.2-0.3-0.4-0.5c0.9,0.1,1.5,1,1.3,1.8c-0.1,0.6-0.7,0.8-1.5,0.7
		c-0.9-0.1-1.7-0.1-2.6-0.2c-0.3,0-0.8-0.1-0.8-0.3c-0.1-0.3-0.1-0.8,0.1-1.1c0.3-0.5,0.7-1,1-1.5C105.9,67.1,106,67.2,106.1,67.2z"
		/>
</g>
</svg>
