<?xml version="1.0" encoding="utf-8"?>
<!-- Generator: Adobe Illustrator 19.1.0, SVG Export Plug-In . SVG Version: 6.00 Build 0)  -->
<svg version="1.1" id="Layer_1" xmlns="http://www.w3.org/2000/svg" xmlns:xlink="http://www.w3.org/1999/xlink" x="0px" y="0px"
	 viewBox="0 0 120 102.4" style="enable-background:new 0 0 120 102.4;" xml:space="preserve">
<style type="text/css">
	.st0{fill:#03A9F4;}
</style>
<g id="cold-girl">
	<path class="st0" d="M68.2,9c-3,3.3-5.9,6.7-7.8,10.7c-1.9,4-2.5,8.8-0.9,12.9c4.5,0.3,9.1-1.4,12.4-4.6c-0.9,0.9-2.5-0.5-2.2-1.6
		c0.3-1.2,1.8-1.7,3-1.5c1.2,0.2,2.3,0.8,3.5,1.2c3.6,1.2,7.9-0.3,9.9-3.5c-3.5-0.2-7.1,0.9-9.9,3c1.9-3,5.6-4.7,9.1-4.2
		c0.8,0.1,1.8,0.5,1.9,1.3c0.1,0.5-0.2,1-0.6,1.4c-1.8,2.2-4.8,3.2-7.7,3.3c-2.9,0.1-5.7-0.7-8.5-1.5c4.7,3.4,11.6,3.2,16.2-0.3
		c2.1-1.7,3.7-3.9,5.2-6.1c2.2-3.2,4.6-6.8,4.4-10.7c2.7,1.7-1.4,6.3,0.4,8.9c2.3,3.3,3.2,7.5,2.4,11.4c-0.5,2.5-1.5,4.9-2.1,7.4
		c-0.6,2.5-0.6,5.3,0.9,7.4c1.1,1.5,2.9,2.5,3.9,4.1c1,1.6,0.2,4.4-1.7,4.3c0.8-1.7,0.8-3.8,0-5.4c-0.8,1.2-1.3,2.7-1.3,4.2
		c-0.9-2.3-1.7-4.7-2.6-7c-0.4-1.2-0.9-2.5-1-3.8c-0.2-2.5,1-4.9,1.8-7.3c1.6-5.4,0.8-11.4-2.1-16.1c-1.8,2.9-3.5,5.9-6,8.3
		c-2.4,2.4-5.6,4.2-9,4.3c-3,0.1-6.5-1-8.8,1c-3.1,2.7-7.5,3.1-11.5,3.3c0.4,2.6,0.4,5.3-0.1,7.8c-1.1-4.3-2.3-8.7-2.4-13.2
		c-0.1-4.5,1-9.1,3.8-12.6C65,11.3,68,6.3,72.7,3c4.7-3.3,11.7-4.3,15.8-0.4c6.3-3.9,15.6-1.9,19.6,4.3c1.2,1.9,2,4.1,3.3,5.9
		c2,2.8,5.2,4.9,5.7,8.3c0.5,3.6-2.4,6.8-3.1,10.4c-0.7,3.3,0.5,6.7,1.3,10c0.8,3.3,1.1,7.1-1,9.8c-3.1,4-10.3,3.6-12.3,8.3
		c1.5,0.7,2,2.6,1.7,4.3c-0.3,1.6-1.1,3.1-1.4,4.7c-0.4,2,0.1,4.1,1.3,5.8c3.5,4.9,11.8,4.6,14.7,9.8c1,1.8,1.1,4,1.2,6
		c0.2,3.8,0.4,7.5,0.6,11.3c-0.7,0.9-1.9-0.7-1.9-1.8c-0.3-5.5,1-11.7-2.5-16c-4.3,5-7,11.3-7.7,17.8c-0.5,0.3-1.2,0.3-1.7,0
		c1-7,3.9-13.7,8.3-19.2c-4.3-1.3-8.2-3.5-11.5-6.5c-0.4,3.2-0.8,6.5-1.1,9.7c-0.2,1.5-2.1,2.4-3.6,2.1c-1.5-0.3-2.8-1.4-4-2.4
		c-4.5,4.1-10.8,6.2-16.9,5.6c-6.1-0.6-11.8-3.8-15.5-8.7c-0.5-0.6-1.4-0.8-2.2-0.9c-4.1-0.5-8.1-1-12.2-1.5
		c-2.7,7.1,2.9,14.7,2.9,22.3c-1-0.1-1.4-1.3-1.7-2.2c-0.6-2.2-1.2-4.5-1.8-6.7c-1.1-4.3-2.2-8.8-1.4-13.1c-1-1.3-3.3-0.9-4.3,0.3
		c-1.1,1.3-1.2,3.1-1.2,4.7c0.1,5.9,1.8,12.2-0.8,17.5c-0.5-7.5-0.6-15-0.2-22.6C27.3,76.3,15.2,74,3,73.2c-1-0.1-2.1-0.3-2.3-1.3
		c9.4-0.3,18.9,1,27.9,3.8c4.3,1.3,8.8,1.8,13.3,2.4c10.5,1.2,21.4,2.4,31.3-1.4c5.2-2,9.8-5.3,13.4-9.6c-5.4,3.7-10.8,7.4-16.8,9.7
		c5.7-4,11.4-8,17.1-12.1c-1-1-1.7-2.3-1.9-3.7c-5.9,4-11.9,7.9-18.3,11c4.3-3.6,7.8-8.2,10-13.4c0.4-0.9,0.7-1.8,0.6-2.7
		c-0.1-0.9-0.9-1.8-1.9-1.8c-3,4.7-6.9,8.9-11.4,12.2c-1.3,0.9-3.2,1.8-4.2,0.6c0.3,1.1-0.2,2.3-1.2,2.8c-0.3-1-0.5-2.1-0.4-3.2
		c-1.7,0.3-3.3,1.5-4,3.1c-0.7-0.3-0.9-1.3-0.5-2c0.4-0.7,1.1-1.1,1.8-1.4c4-2.1,7.9-4.1,11.9-6.2c-1.5-0.8-2.7-2.3-3.1-4
		c-1-0.5-2.2,0.6-2.3,1.7c0,1.1,0.7,2.1,1.4,3c-1.5,0.1-2.9-1.5-2.6-3c-10-1.7-19.1,8-29.2,6.9c-3.1-0.3-6.1-1.7-9.1-2.6
		C14.7,59.7,5.5,59.6,0,53.7c2.2,0.3,4.2,1.2,6.1,2.1c5.6,2.4,11.5,4,17.3,5.6c3.4,0.9,6.9,1.9,10.4,1.9c3.5,0,7.2-1,9.8-3.4
		c0.5-6.4,2.6-12.7,6.1-18.1c0.5-0.8,1.2-1.7,2.1-2c1.4-0.6,3,0.1,4.3,0.8c2.9,1.5,5.9,2.9,8.8,4.4c1.7,0.8,4.4,1.2,4.8-0.6
		c-1.9-0.3-3.7-1.1-5.3-2.2c-0.6-0.4-1.1-0.9-1.2-1.5c-0.2-1.4,1.7-2.2,3-1.8c1.3,0.3,2.5,1.2,3.9,1.3c-1.9-1.6-3.7-3.1-5.6-4.7
		c2.7-0.1,5.4,1.5,6.6,3.9c1.2,2.4,0.9,5.5-0.8,7.6c-1,1.3,0.3,3.2,1.9,3.5c1.6,0.3,3.2-0.4,4.7-0.8c4.4-1.2,9.4-0.3,13.1,2.4
		c2.6,1.9,4.9,4.7,8.1,4.6c0.3,1.4,1.5,2.5,2.9,2.7c0.5-2.6,3.1-4.2,5.5-5.2c2.4-1,5.1-1.9,6.7-4c2-2.7,1.5-6.4,0.6-9.6
		c-0.9-3.2-2.1-6.5-1.2-9.7c0.8-2.8,3.2-5.2,3.2-8.2c0-3.4-3-5.9-5-8.6c-2.1-2.8-3.4-6.3-6-8.8C101,1.3,94.3,0.6,89.7,3.7
		c-0.6,0.4-1.5,0.8-2,0.3c-2.4-3-7-3.4-10.6-2C73.6,3.3,70.8,6.2,68.2,9 M68.4,60.1c1.2-0.1,1.9-1.3,2.6-2.3
		c1.2-1.9,2.7-3.7,4.3-5.4c0.7-0.7,1.6-1.4,2.6-1.6c1-0.2,2.2,0.5,2.3,1.5c0,0.4-0.1,0.8-0.3,1.2c-1.5,3.8-3.2,7.5-5.1,11.1
		c-0.4,0.7-0.8,1.5-1.2,2.2c3.1-2.3,6.2-4.4,9.5-6.5c1-0.6,2.1-1.3,3.2-1.5c1.2-0.2,2.5,0,3.3,0.8c0.8,0.9,0.9,2.5-0.1,3.2
		c-0.5,0.3-0.3,1.1-0.1,1.6c0.3,0.5,0.7,1,0.7,1.6c0,0.6-0.5,1-1,1.4c-2.7,2.2-5.5,4.4-8.2,6.7c-0.4,0.3,0,1,0.5,1.3
		c5.4,3.9,11.1,7.4,17.1,10.4c0.2,0.1,0.5,0.2,0.7,0.2c0.3-0.1,0.4-0.4,0.5-0.6c0.8-1.9,1.3-4,1.5-6.1c0.2-2.9-0.2-5.8-0.3-8.7
		c-0.1-2.9,0.3-5.9,1.8-8.4c-0.9-0.8-2-1.3-3.1-1.9c-2.8-1.5-5.4-3.6-8-5.5c-2.6-1.9-5.4-3.6-8.6-4.4c-3.1-0.8-6.7-0.5-9.3,1.5
		c-1,0.7-2.5,0.4-3.3-0.5c-0.9-0.9-1.3-2.1-1.5-3.3c-0.2-0.9-1.2-1.2-2-1.5c-4.4-1.4-8.6-3.3-12.6-5.7c-0.9-0.6-2.2-0.2-3,0.5
		c-0.8,0.7-1.2,1.8-1.7,2.8c-1.1,2.6-2.2,5.2-3.3,7.8c-1,2.4-2.1,5.2-1,7.6c2.9-0.3,5.5-2.4,8.5-2.6c4.8-0.2,9.5-1.8,13.5-4.4
		c1.2-0.7,2.8,0.4,3,1.8c0.2,1.4-0.4,2.7-1.1,3.9C69.1,58.9,68.8,59.5,68.4,60.1 M74.4,88.4c3.2,0.7,6.5,1,9.7,0.4
		c3.2-0.6,6.3-2.1,8.4-4.6c-4.6-2.4-8.9-5.3-12.8-8.6c-0.5-0.4-1.3-0.1-1.9,0.2c-4,2.2-8.4,3.6-12.9,4.2c-0.6,0.1-1.5,0.3-1.4,1
		c0,0.2,0.1,0.4,0.2,0.5C65.7,85.3,70.1,87.4,74.4,88.4 M66.1,57.6c0.8,0.3,1.8,0.5,2.4-0.1c0.2-0.2,0.3-0.4,0.4-0.7
		c0.3-0.6,0.4-1.3,0.4-2c0-0.4-0.1-0.9-0.5-1.1c-0.3-0.1-0.6-0.1-0.9,0.1c-0.9,0.3-1.8,0.9-2.4,1.5C65.7,56.1,65.9,56.8,66.1,57.6
		 M59.7,66.7c0.1-0.1,0.2-0.3,0.3-0.4c0.6,0,1.3-0.1,1.8-0.4c1.4-1,2.8-1.9,4.3-2.7c0.9-0.5,2-1.1,2.1-2.2c-0.5-0.1-1,0.3-1.4,0.6
		c-0.7,0.6-1.5,1-2.4,1.4c-1.6,1-3.3,1.8-5,2.4C59.5,65.9,59.6,66.3,59.7,66.7 M86.2,61.4c0.1,0.5,0.4,1,0.7,1.4
		c0.2,0.2,0.5,0.5,0.9,0.5c0.3,0,0.7-0.2,0.7-0.6c0-0.5,0.4-1,0.4-1.5c0-0.8-1-1.1-1.7-1.2c-0.2,0-0.4,0-0.6,0.1
		C86.2,60.3,86.1,60.9,86.2,61.4 M79.1,53.1c0-0.2,0.1-0.3,0.1-0.5c-0.1-0.6-0.9-0.9-1.4-0.6c-0.6,0.2-0.9,0.8-1.1,1.3
		c0.6,0.4,1.1,1.1,1.8,0.9C78.8,54,78.9,53.5,79.1,53.1 M87.5,67.2c0.3,0.1,0.6-0.1,0.8-0.4c0.3-0.4,0.5-0.8,0.5-1.3
		c-0.1-0.4-0.6-0.6-1-0.4c-0.4,0.2-0.6,0.6-0.7,1C87,66.5,87.1,67,87.5,67.2 M65.4,39.7c-0.4,0-0.6,0.5-0.5,0.8
		c0.1,0.3,0.4,0.6,0.8,0.7c0.1,0,0.2,0.1,0.3,0c0.2-0.2,0.2-0.7,0.5-0.6c-0.1-0.1-0.2-0.2-0.3-0.3C66.1,39.9,65.8,39.6,65.4,39.7
		 M70.5,42c-0.3-0.2-0.8-0.3-1.2-0.2c-0.2,0.4,0,1.1,0.5,1.2C70.3,43.1,70.7,42.4,70.5,42"/>
	<path class="st0" d="M98.6,52.9c0,0.7-0.3,1.3-0.6,2c-0.1,0.3-0.2,0.7-0.2,1c-0.2,0.3-0.8,0.2-1-0.1c-0.2-0.3-0.2-0.7-0.2-1.1
		c0.1-0.5,0.3-1,0.6-1.3C97.6,53,98.1,52.8,98.6,52.9"/>
	<path class="st0" d="M82.1,41.6c0.4-0.5,1.2-0.3,1.8-0.1c2.6,0.9,5.3,1.5,8,1.8c0.5,0.1,1.1,0.2,1.1,0.7c0,0.5-0.6,0.6-1.1,0.6
		c-1.8,0-3.5-0.5-5.2-1c-0.9-0.2-1.8-0.5-2.7-0.8c-0.7-0.2-1.3-0.4-1.9-0.7C82.1,42.1,82.1,41.9,82.1,41.6"/>
	<path class="st0" d="M81.5,44.7c0.7-0.3,1.4-0.4,2.2-0.4c0.7,0,1.4,0.2,2.1,0.3c0.4,0.1,0.7,0.1,1.1,0.3c0.6,0.2,1.2,0.6,1.7,1.1
		c0.4,0.5,0.8,1,0.8,1.7c0,0.6-0.3,1.3-0.9,1.5c-0.7,0.2-1.4,0.2-2.1,0.1c-1.3-0.2-2.6-0.6-3.9-1.2c-1-0.5-2.1-1.2-2.3-2.3
		C80.5,45.3,80.9,44.9,81.5,44.7 M87.1,46.3c-0.1-0.1-0.2-0.1-0.3-0.1c-0.1,0.3-0.2,0.6-0.4,0.9c0.2,0.6,0.9,0.9,1.5,0.6
		c0-0.4-0.1-0.7-0.1-1.1c-0.2-0.1-0.4-0.1-0.6-0.1C87.1,46.5,87.1,46.4,87.1,46.3 M83.7,46.5c-0.2-0.3-0.3-0.6-0.5-1
		c-0.3,0.1-0.7,0.1-1,0.2c-0.1,0.2-0.1,0.4,0,0.6C82.4,46.8,83.3,46.9,83.7,46.5"/>
	<path class="st0" d="M99.9,44.7c1-1.3,3-1.9,4.5-1.2c0.5,0.2,0.9,0.5,1.2,0.8c0.3,0.4,0.5,0.9,0.6,1.4c0.6,2.8-0.9,5.6-2.6,8
		c-1,1.4-2.2,2.8-3.8,3.5c-0.3,0.1-0.7,0.2-1,0c-0.2-0.2-0.2-0.6,0-0.8c0.2-0.3,0.4-0.4,0.7-0.6c2.6-1.8,4.5-4.6,5.3-7.7
		c0.2-1,0.3-2.2-0.4-3c-0.9-1-2.6-0.6-3.6,0.3C100.3,45.4,100,45.1,99.9,44.7"/>
</g>
</svg>
