<?xml version="1.0" encoding="utf-8"?>
<!-- Generator: Adobe Illustrator 19.2.0, SVG Export Plug-In . SVG Version: 6.00 Build 0)  -->
<svg version="1.1" id="Layer_1" xmlns="http://www.w3.org/2000/svg" xmlns:xlink="http://www.w3.org/1999/xlink" x="0px" y="0px"
	 viewBox="0 0 120 199.2" style="enable-background:new 0 0 120 199.2;" xml:space="preserve">
<style type="text/css">
	.st0{fill:#03A9F4;}
</style>
<g id="cold-girl-6">
	<path class="st0" d="M115.5,65.9c3.9-9.9,5.5-20.9,3.8-31.4s-6.9-20.6-15-27.5c-2.5-2.1-5.2-3.9-8.2-5c-3.7-1.4-7.7-1.6-11.7-1.8
		C76-0.2,66.9-0.5,60.1,4.4c-8.6,6.2-11.1,19-20.4,23.9c-4.7,2.5-10.4,2.5-14.8,5.4c-4.1,2.7-6.4,7.3-8.3,11.8
		C9.9,61,4.7,77.1,1.3,93.8c-0.9,4.2-1.7,8.6-0.8,12.8c0.9,3.9,3.4,7.5,6.8,9.8c0.9,0.6,1.2,1.8,1.5,2.8c2.6,10.8,5.2,21.5,7.9,32.2
		c1.5,6.2,3,12.5,3.4,18.9c0.5,9.5-1.6,19-3.7,28.3c0.8,0.6,2.1,0.7,3,0.1c0.1-5.6,1.8-11.1,2.6-16.6c3.7-26.3-14-52.6-10.1-78.4
		c0.3-1.1,0.7-2.1,1.1-3.1c2.6,21.3,6.9,42.3,12.9,62.8c3.4,11.8,8,24.2,18.1,31.1c2.3,1.5,5.5,1,7.8-0.6c2.3-1.6,3.8-4,5.3-6.4
		c11.4-18.6,20.7-38.4,27.8-59c2.4,6.6,3,13.6,3.6,20.6c1.4,16.7,2.7,33.4,4.1,50.1c1.1,0.2,2.4,0.2,3.5-0.1
		c-2.4-7.7-3.6-15.7-3.5-23.7c0.9,2.7,4.2,4.1,7,3.6c2.9-0.6,5.2-2.6,6.8-5c6.2-9.1,3.3-21.3,0.9-32c-1.8-8.1-3.2-16.3-4.2-24.5
		c-0.4-3-0.6-6.2,0.8-8.8c1-1.8,2.6-3.1,3.7-4.7c2.2-3,2.6-6.9,2.8-10.6c0.1-1.9,0-4.2-1.6-5.3c-1.5-1.1-4.4,0.7-3.3,2.3
		c-0.7,0.6-1.9-0.4-1.9-1.4s0.6-1.9,1-2.8c0.8-1.9,0.2-4.3-1.4-5.7C109.3,78.1,113.1,72,115.5,65.9z M38.4,31.5c0-0.3,0-0.5,0.1-0.7
		c0.1-0.2,0.2-0.3,0.4-0.4c0.8-0.5,1.7-1.1,2.7-0.9c0.1,0.3,0.1,0.6,0.2,1c0,0.1,0,0.2,0,0.3c0,0.7,0.2,1.3,0.4,1.8
		c0.2,1.1,0.3,2.2,0.4,3.3c-1.1,0.9-2.4,1.6-3.8,1.9c-0.4-0.7-0.4-1.5-0.4-2.2C38.4,34.1,38.3,32.8,38.4,31.5z M32,69.9
		c-0.4-4.9-0.9-9.9-0.4-14.8c0.5-5,1.9-9.9,4.9-13.8c1.4-1.7,3.5-2.8,5.7-2.8c1.1,1.6,0.8,3.6,0.5,5.5c-0.3,0.5-0.4,1-0.3,1.6
		c-1,4.7-1.6,9.7-0.3,14.4c1.3,4,4,7.9,3.3,12.1c-0.8,4.3-4.9,7.1-8.8,9.1c-2.4,1.2-4.8,2.3-7.4,3.4C31.5,80.1,32.5,74.9,32,69.9z
		 M107.4,152.8c0.8,2.6,0.6,5.4,0.4,8.2c-0.3,4.4-0.7,9-3.6,12.3c-0.6,0.7-1.4,1.4-2.2,2c-0.9,0.8-2,1.5-3.3,1.6
		c-2.5,0.2-4.5-2.1-5.4-4.4c-0.7-2.4-0.5-4.9-0.9-7.3c-0.2-1.4-0.7-2.8-1-4.2c-0.4-1.7-0.5-3.5-0.6-5.2c-0.2-3-0.4-6-0.6-9
		c-0.4-6.2-0.8-12.5-3.2-18.3c-0.7-1.7,0.5-3.6,1.7-5c3.7-4.4,7.6-8.5,11.9-12.2C101.3,125.3,103.5,139.3,107.4,152.8z M106.9,88.9
		c0.8-0.1,1.4,0.8,1.7,1.6c1.2,4-1.6,8.2-4.8,11c-3.2,2.8-7.1,5.1-9.1,8.8c5-3.1,9.6-6.9,13.5-11.3c-3.3,9-13.8,13.1-19.3,21
		c-1.4,2-4.5,2.7-6.5,1.3c0.6,1.4,2.2,2.3,3.7,2.1c-4.6,7.1-8.2,14.7-10.9,22.7c-0.9,2.8-1.7,5.7-2.8,8.4c-1.6,4.2-3.8,8.1-6,11.9
		c-4,7-7.9,13.9-11.9,20.8c-1.1,1.8-2.1,3.6-3.8,4.8c-1.6,1.2-4.1,1.6-5.7,0.3c-8-6.3-13-15.8-16.1-25.6c-3.1-9.8-4.5-20-7-29.9
		c-3.2-12.8-8.1-25.6-6.4-38.7c0.4-2.8,2.9-4.7,5.2-6.3c3.2-2.2,6.6-4.4,10.5-4.4c5.3,0.1,9.3,4.5,12.8,8.4
		c7.7,8.4,16.2,16.1,25.4,23c-2.3,12.7-8.8,24.7-18.2,33.6c-2.7-11.4-5.4-22.9-8.1-34.3c-1.6-6.7-3.7-14.2-9.6-17.8
		c-0.9-0.6-1.9-1-2.9-1c0.3,1.5,1.7,2.4,2.9,3.4c4.9,4.1,6.5,10.7,7.9,16.9c2.4,10.9,4.9,21.7,7.3,32.6c0.2,1,0.4,1.9,0,2.8
		c-2.3,5.4-3.5,11.2-3.7,17c1.7,0.2,2.5-1.9,2.7-3.6c0.5-4.5,0.7-9.4,3.5-13c1.5-2,3.6-3.4,5.3-5.1c2.4-2.4,4.1-5.4,5.8-8.4
		c5.9-10.5,11.8-22.1,9.8-34c-0.5-3-1.5-6-0.8-8.9c0.7-2.9,4.1-5.4,6.7-3.9c-0.4,2.9-1.8,5.7-3.9,7.8c2.3,0.1,4-2.1,4.6-4.3
		c0.6-2.2,0.5-4.5,1.3-6.6c1.5-4,5.8-6,9.5-7.8c0.8-0.3,1.6-0.6,2.4-0.3s1.1,1.5,0.4,1.9c-2.9,1.5-5.6,3.5-7.1,6.3
		c-1.5,2.9-1.5,6.7,0.7,9c4.2-3.5,7.9-7.6,11-12.1c0.6-0.8,1.3-1.8,2.3-2.2c1-0.4,2.4,0.2,2.4,1.3c0,0.4-0.2,0.8-0.4,1.2
		c-2.8,5-5.7,9.9-8.6,14.9C99.7,102.3,105.4,96.1,106.9,88.9z M70.1,98.6c-0.3,0.6-1,0.8-1.6,0.9c-0.6,0.1-1.2,0-1.8,0.2
		c0.1-2.4,2.2-4.2,4.2-5.6c0.8-0.7,1.7-1.3,2.5-1.9c2-1.4,4-2.9,6.4-3.3c-0.6,1.2-1.1,2.3-1.7,3.5c-0.2,0.3-0.3,0.6-0.6,0.8
		c-0.6,0.4-1.4,0.1-2,0.5c-0.7,0-1.3,0.1-2,0.3c-1.4,0.4-2.9,1-3.2,2.4C70.2,97.2,70.4,98,70.1,98.6z M85.9,94.1
		c0.3-1.6,1.8-2.7,3.2-3.6c0.7,1,1.3,2,1.9,3.2c0.1,0.1,0.1,0.2,0.1,0.3c0,0-0.1,0.1-0.1,0.2c-1,1.6-2.3,3.1-3.7,4.3
		c-0.4,0.1-0.9-0.3-1.1-0.7c-0.3-0.4-0.3-0.9-0.3-1.4v-1.1C85.9,94.9,85.8,94.5,85.9,94.1z M90.3,89.4c0.5-0.7,1.2-1.4,1.9-1.9
		c0.2-0.1,0.5-0.3,0.7-0.3c0.6-0.1,0.9,0.4,1.2,0.9c0.3,0.6,0.7,1.1,1,1.7c-1,0.9-1.8,2-2.4,3.1c-0.1,0-0.3,0-0.3-0.1
		C92.1,91.5,91.4,90.3,90.3,89.4z M93.9,84.5c0.2-1-0.8-1.9-1.8-2.1s-2.1,0.2-3,0.6c-2.5,1.1-4.9,2.5-7.1,4.3c1.5-1.9,3.3-3.4,5.1-5
		c1.3-1.2,2.9-2.3,4.5-1.9c0.8,0.2,1.4,0.8,2,1.2c2.8,2,6.4,2.8,9.8,2.4c0.2,0.9,0,1.9-0.3,2.7c-1-1.2-2.7-1.6-4.1-1.2
		c-1.4,0.4-2.5,1.7-2.8,3.2C95.1,87.5,93.9,86,93.9,84.5z M98.9,96c0.3-0.5,0.6-0.9,0.8-1.3c0.3,0.9,1,1.6,1.9,1.9
		c-0.5,0.6-1.1,1.2-1.6,1.8C99.8,97.5,99.4,96.7,98.9,96z M99,98.9c0,0.2-0.1,0.4-0.2,0.5c-0.7,0.9-1.6,1.6-2.6,2.1
		c0.6-1.4,1.2-2.8,2-4.2c0.2,0.4,0.4,0.7,0.6,1.1C98.9,98.6,99,98.8,99,98.9z M104.5,92.1c-0.2,1-0.6,2-1.3,2.7
		c-0.2,0.3-0.5,0.6-1,0.4c-0.2,0-0.4-0.1-0.6-0.3c-0.4-0.4-0.9-0.8-1.4-1.2c0.8-1.1,1.7-2.1,2.6-3.1
		C103.5,90.9,104.1,91.4,104.5,92.1z M103.5,82.6c0.1,0.1,0.1,0.2,0,0.3c-1.1-0.1-2.2-0.1-3.2-0.2c0.3-0.6,0.9-1.1,1.5-1.3
		C102.5,81.6,103.1,82,103.5,82.6z M100,81.3c-0.8,1-2.5,0.9-3.6,0.3c-1.2-0.6-2.1-1.6-3.3-2.1c-1.7-0.7-3.7-0.4-5.5-0.5
		c-3-0.1-6-1.2-8.4-3c0,1.6,1.3,3,2.8,3.6c1.4,0.7,3.1,0.8,4.7,0.8c-2.5,3.5-5.9,6.4-9.8,8.3c-3.9,1.8-7.5,4.4-10.6,7.6
		c-3-1.7-5.6-4.2-7.4-7.2C58,89,58,90.5,58.5,91.3c1.1,1.7,2.5,3.3,4.2,4.4c0.7,0.5,1.6,1,2.1,1.7s0.7,1.8,0,2.5
		c-0.6,0.6,0.4,1.5,1.2,1.4c0.9-0.1,1.6-0.7,2.4-0.5c1,0.2,1.4,1.5,1.6,2.5c0.8,4.3,0.9,8.7,0.5,13c-8.6-6-16.5-13.1-23.5-21
		c-1.7-2-3.4-4-5.5-5.7c-2.9-2.2-6.4-3.7-10.1-4.1c3.4-1,6.8-2.3,9.7-4.3c2.9-2,5.4-4.9,6.2-8.4c2.3,0.8,4.7,1.6,7,1
		c2.3-0.7,4.1-3.4,3-5.5c-0.6-0.4-1,0.7-1.1,1.4c-0.5,2.8-4.4,3.7-6.8,2.2c-2.3-1.6-3.3-4.5-3.8-7.3c-0.8-4.1-0.8-8.2-0.1-12.3
		c1.5,0.5,2.8,1.4,3.7,2.7c-1.5,0.6-2.6,2-2.8,3.6c-0.2,1.6,0.5,3.3,1.8,4.2c0.9,0.6,1.9,0.9,2.7,1.7c0.7,0.7,1,1.7,1.6,2.5
		s1.8,1.3,2.6,0.7c-1.7-2.6-3.9-4.9-6.5-6.6c-1-0.7-1.2-2.4-0.4-3.3c0.8-0.9,2.5-0.9,3.3,0c-0.5-1.8-1.4-3.5-2.6-4.9
		c-1.2-1.4-3.6-2.5-4.7-1c-0.4,0.5-0.5,1.1-0.5,1.7c-0.2,2.2-0.3,4.3-0.3,6.5c-0.8-2.3-1.1-4.9-0.7-7.4c0.3-1.7,1-3.7,2.7-4.1
		c0.1,0,0.1,0,0.2,0c0.4,0,0.9,0.1,1.5,0.2c0.7,0.2,1.4,0.7,2,1.3c3.9,3.9,2.8,10.7,6.3,15c0.4,0.5,1,1,1.6,0.9
		c0.3,0,0.6-0.2,0.8-0.4c4.6-3.6,8.6-8,11.7-13c1.1-1.8,2.1-3.6,3.6-5c1.1-0.9,2.2-1.6,3.5-2.2c2.8-1.1,6.2-1.2,9.3-1.2
		c-0.3,3.1-1.5,6.1-3.2,8.8c-0.4,0.6-0.8,1.1-1.2,1.7c-0.8,1-1.7,2-2.6,2.8c-3.8,3.5-8.4,6-13.1,7.9c-1.6,0.7-3.4,1.6-3.5,3.3
		c1.2-0.1,2.3-0.3,3.5-0.4c0.3,0.2,0.7,0.3,1,0c0.2-0.1,0.3-0.2,0.5-0.3c1.4-0.2,2.7-0.5,4-0.7c0.3,0,0.7-0.1,1-0.1
		c0.7-0.1,1.4-0.3,2-0.6c4.8-1.2,9.5-3,13.8-5.4c7-4.1,13.1-10.3,16.2-17.8c0-3.6-0.8-7.2-2.1-11c-1.3-3.7-1.9-10.1-5.8-12
		c-1-0.5-0.1-2,0.9-1.5c4.3,2.1,4.7,7.7,6,11.7c1.6,4.8,2.7,9.3,2.6,13.9c0.9,1.7,2.4,3.2,3.8,4.4c2.4,2.1,5.2,4.2,5.8,7.3
		c0.5,2.5-0.5,5-1.4,7.3c-1.4,3.4-2.9,7.1-6,9.1c-1.5,1-3.4,1.6-5.2,1.8c-1,0.1-1.2,1.7-0.4,2.4c0.8,0.7,2,0.6,3,0.6
		C103.4,78.1,101.4,79.5,100,81.3z M104,75.6c0.4-0.5,1.1-0.5,1.8-0.6c0.8-0.1,1.6-0.5,2.4-0.9c0.9-0.6,1.8-1.1,2.7-1.7
		c-0.4,1.4-1.2,2.7-2.2,3.6C107.1,76.3,105.5,76.1,104,75.6z"/>
	<path class="st0" d="M95.9,76.7c-0.3,0.1-0.5,0.3-0.6,0.5c-3.1,0.2-6.2-0.3-9-1.4c-1.1-0.4-2.1-1-3.1-1.5c-0.3-0.2-0.7-0.4-0.9-0.7
		c-0.3-0.3-0.4-0.7-0.2-1.1c0.9-0.3,1.9,0.3,2.8,0.8c2.9,1.6,6.2,2.5,9.5,2.4c0.3,0,0.7,0,1,0.1C95.8,76,96,76.3,95.9,76.7"/>
</g>
</svg>
