<?xml version="1.0" encoding="utf-8"?>
<!-- Generator: Adobe Illustrator 19.2.0, SVG Export Plug-In . SVG Version: 6.00 Build 0)  -->
<svg version="1.1" id="Layer_1" xmlns="http://www.w3.org/2000/svg" xmlns:xlink="http://www.w3.org/1999/xlink" x="0px" y="0px"
	 viewBox="0 0 150 205.2" style="enable-background:new 0 0 150 205.2;" xml:space="preserve">
<style type="text/css">
	.st0{fill:#8BC34A;}
</style>
<g id="coughing-child">
	<path class="st0" d="M145.1,205.2c0.2-3.1,0.4-6.3,0.8-9.4c0.2-1.5,0.5-3.1,0.8-4.6c0.4-2.1,1.1-4.1,1.4-6.2c0.4-2.4,0.6-4.8,0-7.2
		c-0.3-1.2-0.2-2.4-0.3-3.6c0-2.5,0.1-5,0-7.4c-0.1-3.3-0.5-6.5-0.7-9.8c-0.1-3-0.1-6,0-9.1c0-3.3,0.2-6.7,0.2-10
		c0-2.6-0.6-5.1-1.3-7.6c-0.4-1.6-0.8-3.2-0.7-4.8c0.2-4.4-1.8-7.7-5.1-10.4c-1.6-1.3-2.8-3-4.2-4.5c-1.8-1.9-3.7-3.9-5.6-5.8
		c-1.4,1.1-2.5,2.2-3.8,3c-2.4,1.4-4.8,2.7-7.2,4c-2.5,1.3-4.9,2.8-7.5,3.9c-3,1.2-6,2.1-9.4,2.1c-2.7,0-5.4,0.3-8,0.3
		c-3.8,0-7.7-0.2-11.5-0.4c-2.2-0.1-4.5-0.4-6.7-0.8c-1.1-0.2-2.2-0.8-3.2-1.4c-1.6-1-3.2-2.1-4.7-3.2c-0.7-0.5-1.4-1.2-2.1-1.7
		c-0.3-0.3-0.7-0.5-1.1-0.8c-0.1,0-0.2,0.1-0.3,0.1c0,0.5,0.1,1,0.1,1.5c0,1.3,0,2.6,0,3.9c-0.1,1.1-0.2,2.3-0.4,3.4
		c0,0.3-0.2,0.6-0.3,0.9c-0.8,1.8-1.4,3.6-1.3,5.5c0.1,2.7,0,5.5,0.2,8.2c0.1,1.7,0.7,3.4,1,5c0.3,1.6,0.6,3.3,0.6,4.9
		c0,3.6,0.7,7.1,1.5,10.5c0.8,3.5,1.3,7.2,2.3,10.7c0.7,2.4,1.9,4.6,2.9,6.9c2.1,4.9,4.2,9.9,5,15.2c0.1,0.5,0.2,1.2-0.5,1.3
		c-0.7,0.1-1-0.4-1.1-1c-0.5-2.1-0.8-4.2-1.5-6.1c-1.4-3.9-2.8-7.8-4.7-11.4c-1.7-3.3-2.2-6.9-3-10.5c-0.8-3.6-1.5-7.2-2.1-10.8
		c-0.2-1-0.2-2-0.2-2.9c0-2.8-0.5-5.4-1-8.1c-0.4-2.1-0.7-4.2-0.8-6.3c-0.1-2.6-0.1-5.1,0.2-7.7c0.2-1.8,0.9-3.5,1.3-5.3
		c0.6-3,1-6,0.5-9c-0.1-0.5-0.4-1.1-0.8-1.5c-0.5-0.6-1,0-1.5,0.2c-1.3,0.7-2.6,1.6-4,2.3c-1.2,0.6-2.5,1-3.7,1.5
		c-0.6,0.3-1.2,0.7-1.8,1.1c-1.6,1.1-3.5,1-5.1-0.1c-1.4-0.8-2-2.2-2.9-3.4c-0.6-0.8-1.2-1.3-2.3-0.9c-2.6,0.8-5.3,1.4-7.9,2.1
		c-2.7,0.7-5.4,1.3-8.1,0.5c-2-0.6-3.9-1.3-5.7-2.3c-1.3-0.7-2.3-1.9-3.4-3c-0.2-0.2-0.2-0.7-0.1-0.9c0.2-0.2,0.6-0.2,0.9-0.1
		c0.3,0.1,0.5,0.4,0.7,0.6c1.7,1.8,3.7,2.9,6,3.6c1.5,0.4,3,1.1,4.6,0.8c1.7-0.3,3.5-0.7,5.2-1.1c2-0.5,3.9-1.1,5.9-1.5
		c1.5-0.3,3.1-0.4,4.6-0.6c2.7-0.3,5.4-0.7,8.1-1c2.5-0.3,5.1-0.6,7.6-0.8c1-0.1,1.9,0.3,2.9,0.4c1.6,0.3,3.2,0.1,4.8-0.6
		c1.3-0.5,2.7-0.8,4.1-1.2c0-0.1,0-0.2,0-0.3c-1.2-0.4-2.3-0.7-3.5-1c-2.4-0.7-4.8-1.3-7.3-1.9c-3.5-1-7-1.8-10.7-1.7
		c-1.1,0-2.2-0.3-3.3-0.6c-0.2,0-0.4-0.4-0.4-0.6c0-0.2,0.3-0.4,0.5-0.5c0.4-0.1,0.8,0,1.2,0c1.1,0.1,2.3,0.3,3.4,0.3
		c2.3,0,4.6,0.3,6.8,0.9c2.6,0.7,5.3,1.4,7.9,2.1c2.6,0.7,5.1,1.4,7.7,2.1c0.2,0,0.4,0.1,0.5,0.1c1.9,0.1,3.8,0.1,5.7,0.2
		c1.5,0.1,2.9,0.3,4.4,0.9c1.2,0.5,2.7,0.5,4,0.8c0.7,0.1,1.4,0.2,2.1,0.3c0-0.5,0-1,0-1.5c0-2.3-0.1-4.7,0-7c0-1,0.4-1.9,0.6-2.8
		c0.9-2.9,1.5-5.9,1.8-9c0.1-1.6,0.7-3.1,1.1-4.6c0.2-0.7,0-0.9-0.6-1c-2.1-0.2-4.1-0.6-6.2-0.7c-1.6-0.1-3.1,0.2-4.7,0.3
		c-1.6,0.1-3.1,0.3-4.7,0.5c-1.6,0.2-3.2,0.5-4.8,0.5c-1.7,0.1-3.5-0.1-5.3-0.2c-2.5-0.2-4.9-0.6-7.4-0.9c-2.6-0.3-5.2-0.6-7.9-0.9
		c-1.4-0.2-2.7-0.4-4.1-0.5c-2.8-0.1-5.5-0.3-8.2-1.2c-2.9-0.9-5.6-0.5-8.4,0.2c-0.4,0.1-0.7,0.2-1.1,0.2c-2.7,0.1-5.5,0.1-8.2,0.2
		c-0.3,0-0.6,0-0.9-0.1c-3.4-1.4-6.3-0.2-9.1,1.6c-2.1,1.4-3.8,3.1-5.2,5.3c-1.4,2.2-3.1,4.2-4.4,6.4c-1.1,1.8-1.7,3.9-1.9,6.1
		c0,0.5,0.2,1.1,0.3,1.6c0.5,1.7,0.8,3.4,1.5,5c1.5,3.5,3.7,6.3,7.3,8c1.8,0.9,3.5,1.9,5.2,2.9c2.7,1.6,5.6,2.3,8.6,2.9
		c4,0.8,7.6,2.6,10.4,5.7c1.7,1.8,3.3,3.6,4.3,5.9c0.2,0.5,0.4,1,0.6,1.5c0.2-0.2,0.3-0.3,0.5-0.5c1.2-1.6,2.3-3.2,3.4-4.8
		c0.2-0.2,0.3-0.5,0.6-0.6c0.3-0.1,0.7-0.2,0.9-0.1c0.2,0.1,0.4,0.5,0.4,0.8c0,0.4-0.2,0.8-0.5,1.1c-1.2,1.6-2.6,3.1-3.7,4.8
		c-0.9,1.3-0.5,2.9-0.3,4.4c0.2,2.4,1.1,4.7,0.8,7.1c-0.3,2.7-0.6,5.4-1,8.1c-0.5,3.4-1.2,6.8-1.3,10.3c0,1.7-0.5,3.5-0.7,5.2
		c-0.2,1.2-0.2,2.3-0.3,3.5c-0.2,2.6-0.4,5.1-0.7,7.7c-0.3,2.4-0.7,4.8-1.1,7.2c-0.4,2.9-1.6,5.5-2.9,8.1c-1.7,3.4-2.9,6.9-3.9,10.6
		c-0.3,1.2-0.6,2.5-0.9,3.7c-0.6,0-1.1,0-1.7,0c0-0.2,0-0.4,0-0.6c0.4-1.6,0.8-3.1,1.2-4.7c0.9-3.3,2.1-6.5,3.7-9.6
		c1.9-3.7,3-7.6,3.5-11.7c0.3-2.8,0.8-5.6,1.1-8.4c0.2-2,0.3-3.9,0.4-5.9c0.1-0.8,0.3-1.6,0.4-2.5c0.2-1.6,0.4-3.1,0.6-4.7
		c0.3-2.5,0.7-5,1-7.6c0.5-3.3,1.3-6.5,1.1-9.9c-0.1-1.4-0.4-2.8-0.6-4.3c-0.3-2.1-0.7-4.1-1.4-6.2c-0.8-2.4-2.1-4.4-3.8-6.2
		c-2.1-2.3-4.4-4.2-7.3-5.1c-1.6-0.5-3.3-0.9-4.9-1.3c-3.4-0.9-6.6-2.2-9.5-4.2c-1.3-0.9-2.9-1.5-4.3-2.4c-3.5-2.1-5.5-5.3-6.7-9
		c-0.3-0.9-0.5-1.9-0.9-2.8c-1-2.4-0.8-4.7,0-7.1c1-2.8,2.6-5.1,4.3-7.5c1-1.4,2-2.7,3-4.1c1.5-2.1,3.6-3.5,5.9-4.7
		c0.7-0.4,1.4-0.7,2.1-1c0-0.1-0.1-0.2-0.1-0.2c-2.6-1.3-3.6-4-5.2-6.1c-1.1-1.6-1.1-3.5-1.4-5.4c-0.2-1.3-0.1-2.7-0.2-4.1
		c-0.1-2.1,0.3-4,1-5.9c0.7-1.9,0.8-3.9,1.2-5.9c0.3-1.2,0.8-2.4,1.1-3.6c1.1-3.8,2-7.6,3.2-11.3c1.6-4.9,4.1-9.3,7.9-12.9
		c0.6-0.5,1.1-1.2,1.7-1.7c0.9-0.8,1.9-1.5,3-2.2c1.4-0.9,2.9-1.8,4.2-2.8c2.3-1.7,4.8-2.7,7.5-3.5c2.1-0.7,4.1-1.7,6.2-2.6
		c2-0.9,3.9-2.2,5.9-2.9c2.7-1,5.6-1.9,8.4-2.6c1.2-0.3,2.5-0.2,3.7-0.2c1.3,0,2.5,0.1,3.8-0.1c1.9-0.2,3.7,0.5,5.5,0.8
		C74,1,74.4,1.4,74.9,1.6c0.7,0.2,1.3,0.4,2,0.5c0.2,0.1,0.4,0,0.6,0.1c3.5,1,6.8,2.4,9.2,5.3c1.2,1.4,2.1,3,3.2,4.5
		c2.2,2.9,4.4,5.8,6.6,8.7c1,1.3,1.8,2.7,2.7,4.1c0.1,0.1,0.1,0.2,0.1,0.3c-0.1,2.2,1.2,3.9,2,5.8c1.1,2.3,1.7,4.7,2.3,7.1
		c0.9,4,1.8,7.9,2.7,11.9c0.6,2.7,1,5.4,1.6,8c1,3.9,2.2,7.7,3.3,11.5c0.3,1.1,0.9,2.1,1.4,3.1c0.2,0.5,0.4,1.1,0.6,1.6
		c1-0.1,2.1-0.2,3.2-0.3c1.8-0.2,3.5,0.3,5.1,0.9c2.3,0.8,4.6,1.4,6.8,2.3c1.7,0.7,3.6,1.3,4.8,2.5c1.8,1.7,3.6,3.7,3.2,6.5
		c-0.2,1-0.9,2-1.5,2.9c-0.2,0.3-0.9,0.3-1.5,0.4c0.3,1.2,0.4,2.4-0.6,3.3c-0.8,0.8-1.9,1.4-3,2.2c0.7,2.3-0.8,3.9-3,5.1
		c1.8,1.6,3.4,3.1,5.2,4.5c2.4,2,4.4,4.3,6.4,6.7c1.1,1.3,2.4,2.4,3.6,3.5c2.6,2.4,4.6,5,4.6,8.8c0,3.5,0.9,6.9,1.7,10.2
		c0.3,1,0.6,2.1,0.4,3.1c-0.4,2.4,0.2,4.8,0.1,7.2c-0.2,3.1-0.5,6.3-0.5,9.4c0,2.4,0.4,4.8,0.7,7.3c0.1,1,0.2,2.1,0.2,3.1
		c0,3.6,0,7.2,0.1,10.8c0,1.5,0.4,3,0.5,4.6c0.3,3.5-0.3,6.9-1.2,10.4c-0.8,2.9-1,6-1.4,9c-0.3,2.3-0.4,4.5-0.6,6.8
		C146.2,205.2,145.7,205.2,145.1,205.2z M28.7,72.7c-0.6-0.8-1-1.6-1.6-2.3c-0.9-1-1.6-2.1-1.8-3.4c-0.1-0.3,0.2-0.6,0.3-0.9
		c0.3,0.2,0.6,0.3,0.8,0.5c0.1,0.1,0.2,0.3,0.3,0.5c0.6,1.1,1.2,2.1,1.9,3.2c0.7,1.1,1.5,2.2,2.2,3.3c0.3,0.6,0.6,0.8,1.3,0.6
		c3.1-1,6.3-1.2,9.5-0.3c1.4,0.4,2.9,0.7,4.3,0.8c2.5,0.3,5,0.5,7.5,0.7c2.6,0.3,5.2,0.6,7.9,0.9c1.8,0.2,3.5,0.4,5.3,0.6
		c1.8,0.2,3.5,0.6,5.3,0.6c1.5,0,3-0.2,4.6-0.4c3.1-0.3,6.2-0.6,9.4-0.9c0.8-0.1,1.9,0.1,2.4-0.4c0.8-0.8,1.2-1.9,1.7-3
		c0.1-0.2-0.2-0.7-0.4-0.9c-0.1-0.1-0.6-0.1-0.8,0.1c-1.3,1.2-2.9,1.6-4.6,1.4c-0.4,0-0.8,0.1-1.2,0.1c-2,0.2-3-0.4-3.5-2.3
		c-0.1-0.5-0.1-1.1-0.1-1.7c0-2.6,0.1-5.2-0.7-7.7c-0.5-1.4-0.7-1.6-2.1-1.6c-3,0.1-6,0-8.8-1.6c-2.2-1.2-4.6-2.1-6.5-3.9
		c-1-0.9-2.1-1.7-3.1-2.7c-1.9-1.8-4.4-2.8-5.9-5c-0.3-0.4-0.6-0.7-1-1c-1.3-1.3-2.8-2.4-3.9-3.9c-2.1-2.7-4.3-5.4-5.4-8.8
		c-1.9,2.1-1.9,4.9-1.3,7.2c2.1,7.2,6.8,12.4,13.6,15.7c0.9,0.4,1.9,0.8,2.8,1.2c0.5,0.2,0.8,0.7,0.5,1.2c-0.3,0.4-0.9,0.8-1.4,1
		c-3.9,0.9-7.7,1.7-11.6,2.4c-2.7,0.5-5.4,1-8.1,1.3c-1.5,0.1-3.1-0.3-4.6-0.3c-3.1,0-5.7-1.3-7.9-3.4c-1.9-1.8-3.1-4.1-3.9-6.6
		c-0.1-0.3-0.4-0.5-0.6-0.8c-0.2,0.2-0.6,0.4-0.7,0.7c-0.4,1.1-0.6,2.2-0.9,3.2c-0.2,0.6-0.6,1.2-0.4,1.7c0.3,1.3,0.7,2.6,1.2,3.8
		c1,2.3,2,4.7,2.4,7.2c0.1,0.6,0.5,0.9,1.1,0.9c0.5,0,1.1,0.1,1.6,0.1c1.3-0.1,2,0.6,2.4,1.8c-0.5,0-1,0.1-1.4,0
		c-1.1-0.2-1.7,0.3-1.4,1.4c0.1,0.4,0.2,0.7,0.4,1.3C25.1,73.9,26.8,73.4,28.7,72.7z M99.1,78.6c-1,0-1.8,0-2.5,0
		c-0.2,0-0.6,0.2-0.7,0.4c-0.4,1.7-0.7,3.3-1,5c-0.4,2.1-0.6,4.3-1.1,6.4c-0.3,1.7-1,3.3-1.3,5.1c-0.4,2.6-0.4,2.4,1.9,3.3
		c1.6,0.6,3.2,1.2,4.7,1.8c1.8,0.8,3.6,1.5,5.5,1.6c2.6,0.2,5.3,0.5,7.9,0.8c2.3,0.2,4.6,0.4,6.9,0.5c1.9,0.1,3.6-0.5,5.3-1.4
		c0.3-0.2,0.6-0.7,0.6-1.1c0-0.3-0.4-0.7-0.8-0.8c-1-0.3-2.1-0.6-3.1-0.8c-0.7-0.2-1.5-0.3-2.2-0.5c-0.3-0.1-0.6-0.3-0.9-0.5
		c0.3-0.2,0.6-0.7,0.9-0.6c1.1,0.1,2.1,0.3,3.1,0.6c2.1,0.6,4,0.8,5.7-0.9c1.1-1.1,0.9-3.2-0.5-3.7c-1.7-0.5-3.4-0.8-5.1-1.2
		c-0.3-0.1-0.6-0.4-1-0.6c0.3-0.2,0.6-0.5,0.9-0.5c2.1-0.2,4.1,0.5,6,1.2c1.5,0.6,2.8,0.3,3.7-1c0.6-0.9,0.4-2.4-0.5-2.9
		c-1.2-0.7-2.4-1.2-3.6-1.8c-1.3-0.6-2.6-1.2-3.9-1.9c-0.2-0.1-0.2-0.6-0.3-0.9c0.3,0,0.7-0.1,1,0c0.8,0.3,1.5,0.8,2.3,1.1
		c1.8,0.8,3.9,1,5.5,2.4c0.3,0.3,1.3,0.3,1.7,0.1c1-0.5,1.3-2.9,0.8-3.9c-0.8-1.7-2.3-2.8-3.7-3.9c-0.9-0.7-2.1-1.2-3.3-1.6
		c-2.2-0.8-4.4-1.3-6.6-2.2c-1.7-0.7-3.5-1.2-5.4-1c-1.2,0.1-2.4,0.3-3.5,0.5c-1,0.2-2,0.4-3,0.6c-1.9,0.4-3.8,0.7-5.6,1.2
		C102.4,78.1,100.7,78.9,99.1,78.6z M92.4,99.3c0,1.2,0,2.1,0,2.9c0,1,0.1,2,0.1,3.1c0,1-0.3,1.1-1.2,0.8c-0.8-0.3-1.5-0.6-2.4-0.7
		c-3.3-0.7-6.5-1.4-9.8-1.9c-2.1-0.3-4.3-0.6-6.3,0.7c-0.5,0.3-1.2,0.4-1.7,0.6c-0.4,0.2-0.8,0.4-1.1,0.6c0.3,0.3,0.5,0.7,0.8,1
		c1.8,1.7,4.1,2.4,6.5,3c0.9,0.2,1.8,0.6,2.7,0.7c2.7,0.5,5.5,1.1,8.2,1.4c2.5,0.3,5,0.4,7.5,0.2c2.8-0.2,5.5-0.8,8.2-1.3
		c2.6-0.5,5.2-1.1,7.6-2c2.4-0.9,4.7-2.2,7-3.3c0.1,0,0.1-0.1,0.1-0.3c-0.7,0-1.3,0-2,0c-0.8,0-1.6,0.2-2.3,0c-3-0.9-6-0.5-9-1
		c-2.4-0.4-4.8-0.8-7.1-1.8C96.6,101.2,94.6,100.3,92.4,99.3z M80.5,65.3c0.1,0.1,0.3,0.1,0.4,0.2c0.8-0.8,1.6-1.6,2.3-2.4
		c1-1.1,1.5-1.3,2.9-0.7c2.3,0.8,5.8-0.9,6-3.3c0.2-2.8,0.2-5.6-1.5-8.1c-0.5-0.8-1-1.5-1.7-2.2c-1.1-1.1-2.5-0.8-3.7-0.4
		c-1,0.4-2,1.3-1.8,2.7c0,0.3,0,0.6-0.1,0.8c-0.1,0.2-0.3,0.4-0.5,0.6c-0.2-0.2-0.4-0.5-0.5-0.7c-0.5-2.3,1.3-4.4,3.6-4.8
		c2-0.3,3.7,0.1,4.9,1.9c1.1,1.6,2.2,3.1,2.4,5.1c0.2,2.7,1,5.3-1.2,7.7c-1.8,2-3.6,2.6-6.3,1.9c-0.7-0.2-1.1-0.2-1.5,0.4
		c-0.5,0.6-0.9,1.4-1.5,1.7c-1.9,0.8-2.2,2.3-2,4.1c0,0.2,0,0.4,0,0.6c0,0.8,0.6,1.4,1.4,1.4c1.1,0,2.2-0.1,3.2-0.2
		c0.6-0.1,1.3-0.2,1.8-0.6c1.3-1.2,2.4-2.4,3.6-3.7c1.4-1.5,2.7-3,3.4-4.9c0.3-0.8,0.6-1.7,0.7-2.6c0.1-1.6,0.1-3.3,0-4.9
		c0-1.3-0.2-2.5-1-3.6c-0.8-1.1-1.4-2.4-2-3.6c-0.7-1.6-2.1-2.4-3.6-2.6c-1.4-0.2-2.8,0.1-4.2,0.3c-0.6,0.1-1.3,0.3-1.8,0.7
		c-0.7,0.5-1.3,1.1-1.7,1.8c-0.4,0.5-0.7,1.1-0.7,1.7c0,1.3,0.2,2.6,0.3,3.9c0.1,2.5-0.1,5,0,7.5C80,62.4,80.3,63.8,80.5,65.3z
		 M127.2,102.4c-0.8,0.5-1.5,1.1-2.3,1.4c-1.3,0.7-2.7,1.2-4,1.9c-2.9,1.4-5.7,2.9-8.5,4.3c-1.3,0.6-2.8,1.1-4.2,1.6
		c-1,0.3-2.1,0.6-3.2,0.8c-2.6,0.4-5.2,0.6-7.7,1c-0.9,0.1-1.9,0.3-2.8,0.3c-1.5,0-3.1-0.2-4.6-0.4c-2.6-0.3-5.3-0.6-7.9-1.1
		c-2.1-0.4-4.1-1.3-6.2-1.7c-2.2-0.4-4-1.5-5.6-3c-1-0.9-2-2.3-3.8-1.2c-0.2,0.1-0.7-0.3-1-0.2c-0.4,0-0.7,0.2-1,0.5
		c-0.1,0.1,0,0.5,0.2,0.7c0.8,0.7,1.6,1.5,2.5,2.2c2,1.4,3.9,2.9,5.9,4.2c1.1,0.7,2.4,1.6,3.7,1.8c3.6,0.6,7.2,0.9,10.9,1.2
		c3,0.2,6,0.2,9,0.2c2.4,0,4.7-0.4,7.1-0.5c3.1-0.1,6.1-0.9,8.8-2.3c4-2,8-4.1,11.8-6.3c1.7-1,3.2-2.4,4.8-3.6c-0.6-0.6-1-1-1.4-1.4
		C127.5,102.6,127.3,102.4,127.2,102.4z M60.8,106c-5.6-0.2-10.6,1.7-16,2c0.7,1.1,1.5,2.2,2.4,3c1,1,2.4,1.1,3.5,0.3
		c1.8-1.2,3.7-2,5.7-2.8C57.9,108.1,59.4,107.4,60.8,106z M18.9,69.1c-0.1-0.3-0.1-0.6-0.2-0.9c-0.5-1.3-1.2-2.5-1.6-3.9
		c-0.4-1.2-0.7-2.4-1-3.6c-0.1-0.4-0.3-0.7-0.3-1c0-0.7-0.4-1.2-1-1.1c-0.5,0.1-1.2,0.6-1.2,1c-0.1,1.2-0.1,2.4,0.1,3.6
		c0.3,2.1,1.5,3.7,3.1,5C17.3,68.7,17.9,69.3,18.9,69.1z"/>
	<path class="st0" d="M117.3,205.2c0.1-0.4,0.2-0.8,0.2-1.2c0.2-2,0.4-3.9,0.5-5.9c0.1-3.9,0.2-7.7,0.2-11.6c0-0.6-0.2-1.2-0.2-1.7
		c0-2.9,0.1-5.8,0.1-8.7c0-3.5-0.3-7-0.2-10.6c0.1-2.4,0.5-4.8,1-7.2c0.4-1.8,1.1-3.6,1.6-5.4c0.5-1.9,0.7-3.8,1.3-5.6
		c0.6-1.6,1.7-3,2.6-4.5c0.1-0.2,0.7-0.2,1.1-0.3c-0.1,0.3-0.1,0.7-0.2,1c-1.1,1.7-2.1,3.5-2.4,5.6c-0.3,2.1-1,4.2-1.4,6.3
		c0,0.1,0,0.2,0.2,0.5c1-1,1.8-2.2,2.9-3.1c1.5-1.1,3.2-1.9,4.8-2.8c0.4-0.2,0.9-0.3,1.1,0.3c0.2,0.6-0.2,0.8-0.6,1.1
		c-1.6,0.9-3.2,1.7-4.6,2.8c-2,1.6-3.4,3.6-4.4,6c-0.4,0.8-0.5,1.6-0.4,2.5c0.1,0.5,0,1.1-0.6,1.4c-0.2,0.1-0.2,0.5-0.2,0.8
		c0,4,0.1,7.9,0.1,11.9c0,4.5-0.1,9-0.1,13.5c0,2.5,0.3,4.9,0.2,7.4c-0.1,2.4-0.5,4.9-0.7,7.3C118.5,205.2,117.9,205.2,117.3,205.2z
		"/>
	<path class="st0" d="M50.9,66.9c-0.3,0.2-0.7,0.5-1,0.5c-2.5,0.6-5.1,1.2-7.6,1.9c-0.7,0.2-1.3,0.9-2,1.3c-0.5,0.3-1,0.7-1.5,0.1
		c-0.6-0.6-0.5-1.2,0-1.8c1.7-1.8,3.8-3,6.5-2.8c1.5,0.2,3.1,0,4.7,0c0.3,0,0.6,0.2,0.9,0.3C50.9,66.6,50.9,66.8,50.9,66.9z"/>
</g>
</svg>
