<?xml version="1.0" encoding="utf-8"?>
<!-- Generator: Adobe Illustrator 19.2.0, SVG Export Plug-In . SVG Version: 6.00 Build 0)  -->
<svg version="1.1" id="Layer_1" xmlns="http://www.w3.org/2000/svg" xmlns:xlink="http://www.w3.org/1999/xlink" x="0px" y="0px"
	 viewBox="0 0 150 294.5" style="enable-background:new 0 0 150 294.5;" xml:space="preserve">
<style type="text/css">
	.st0{fill:#8BC34A;}
</style>
<g id="doctor-female-2-green">
	<path class="st0" d="M132,290.8c-5.7-16-9.1-32.3-8.1-49.6c-2.8,0.1-5.3,0.3-7.8,0.3c-2.5,0.1-5,0-7.6,0c0.3,4,0.5,7.8,0.8,11.6
		c0.2,2,0.6,4.1,0.9,6.1c0.2,1.9,0.3,3.9,0.4,5.8c0.3,5,0.6,10,0.9,14.9c0.1,1.6,0.1,3.3,0.2,5c0.1,2.2,0.3,4.4,0.4,6.6
		c0,0.4,0,0.9,0,1.3c-0.1,0.1-0.2,0.1-0.3,0.1c-2.4,0.1-1.9,0.1-2-1.8c-0.2-5.5-0.4-11-0.7-16.5c-0.2-4.6-0.4-9.2-0.7-13.9
		c-0.1-2-0.5-4-0.8-6c-0.1-0.7-0.2-1.4-0.3-2.1c-0.2-3.4-0.4-6.9-0.5-10.3c0-0.2,0.1-0.4,0.2-0.7c-0.8,0.2-1.6,0.3-2.4,0.5
		c-0.2,0-0.4,0.2-0.4,0.3c-0.3,1-0.6,2-0.9,3c-0.3,0.9-0.6,1.7-0.9,2.6c-0.9,3.2-1.8,6.4-2.7,9.6c-0.1,0.3-0.2,0.7-0.4,0.9
		c-1.2,1.3-2.4,2.6-3.6,3.9c-1.1,1.1-2.5,1.4-4,1.3c-2.8-0.1-5.6-0.2-8.3-0.3c-0.4,0-0.7,0-1,0c-1.4,4-0.8,7.9-0.9,11.8
		c-0.1,3.8-0.4,7.6-0.5,11.4c0,1.7,0.3,3.4,0.5,5.1c0.1,1.4-0.2,1.6-1.6,1.6c-0.7,0-1.5,0.3-2.2,0.5c-1.6,0.5-3.1,0.9-4.7,0.3
		c-0.1,0-0.3,0-0.4,0c-1.5,0.4-2,0.1-1.9-1.3c0.2-4.1-0.9-8-1.5-12c-0.4-3.1-0.4-6.1-0.3-9.1c0.1-3.1,0.3-6.1,0.4-9.2
		c-3.5-0.4-6.9-0.8-10.3-1.3c-0.8-0.1-1.7-0.3-2.5-0.4c-2-0.4-4.1-1-6.1-1.2c-1.5-0.2-3,0-4.5-0.1c-2.1-0.2-4.1-0.7-6.1-1.1
		c-0.4-0.1-0.7-0.4-1.2-0.8c-0.3,2.3-0.5,4.3-0.8,6.4c-0.3,2.2-0.6,4.4-0.9,6.7c-0.2,1.9-0.5,3.8-0.7,5.8c-0.1,0.5,0.1,1,0,1.5
		c-0.2,0.5-0.7,0.9-1,1.3c-0.3-0.4-0.9-0.7-0.9-1.1c-0.1-1.2-0.1-2.4,0.1-3.6c0.5-4.2,1.1-8.4,1.7-12.6c0.1-0.7,0.3-1.3,0.4-2
		c0.1-0.8,0.2-1.5,0.4-2.4c-0.6-0.1-1.1-0.3-1.6-0.3c-2.1,0.2-3.8-0.5-5.5-1.5c-0.3-0.2-0.6-0.3-0.9-0.5c-0.7-0.5-1.2-0.3-1.7,0.5
		c-2.3,4.2-3.8,8.6-4.7,13.3c-0.4,2.2-1.1,4.2-1.5,6.4c-0.5,2.7-0.8,5.5-1.2,8.2c-0.3,2-0.6,4.1-0.8,6.1c-0.1,0.5,0,1-0.1,1.5
		c0,0.7-0.6,1-1.1,0.8c-0.4-0.1-0.9-0.6-0.9-1c0.1-2.2,0.3-4.5,0.6-6.7c0.3-2.7,0.7-5.3,1.2-8c0.4-2,0.9-4,1.3-6
		c0.7-2.8,1.2-5.7,2.1-8.4c0.8-2.5,2.1-4.7,3.2-7.1c0.1-0.3,0.3-0.5,0.5-0.9c-0.8-0.5-1.6-1.1-2.5-1.5c-3.7-1.9-7.5-3.6-11-5.8
		c-2.4-1.5-4.6-3.6-6.6-5.7c-1.2-1.3-1.8-2.9-1.5-5c0.4-2.3,0-4.7-0.1-7.1c-0.1-2.4-0.2-4.8-0.5-7.2C2.9,215.8,3,210.1,3,204.3
		c0-1.2,0.1-2.5-0.5-3.4c-0.8-1.4,0-3-0.8-4.4c-0.2,0.2-0.3,0.4-0.4,0.6c-0.4-1.8-1.1-3.6-1.2-5.3c-0.2-4.7-0.1-9.3,0-14
		c0-2.2,0.2-4.4,0.3-6.6c0-0.4,0.1-0.9,0.3-1.3c0,0.4,0.1,0.7,0.1,1.1c0.1,0,0.2,0,0.3,0c0.1-1,0.2-2.1,0.2-3.1c0-1.4-0.1-2.8,0-4.3
		c0.2-3.3,0-6.6-0.9-9.8c-0.2-0.7-0.3-1.4-0.3-2.1c0-3.3-0.1-6.6,0.6-9.9c0.3-1.5-0.1-3.1,0.2-4.6c0.8-3.5,2-6.8,3-10.3
		c0.6-2,1.6-3.8,3.1-5.2c1.5-1.3,3-2.6,4.7-3.5c1-0.6,2.4-0.7,3.7-0.8c3.8-0.2,7.5-1.1,10.6-3.1c2.7-1.6,5.8-2.7,7.9-5.2
		c0.7-0.8,0.8-1.6,0.6-2.6c-0.5-2-1-4-1.5-6c-0.5-1.9-1-3.8-1.4-5.7c-0.6-2.5-1.3-4.9-1.6-7.4c-0.6-4.2-1.8-8.3-2-12.6
		c-0.2-4-1-7.9-1.2-11.9c-0.2-3.5,0.1-7,0.3-10.5c0.1-1.5,0.3-3.1,0.5-4.6c0.1-0.8,0.2-1.6,0.4-2.3c0.1-0.6,0.2-1.2,0.3-1.8
		c0.4-2,0.7-4,1.1-6c0.3-1.3,0.7-2.5,1.1-3.7c1.4-4.8,3.4-9.3,5.9-13.5c2.6-4.3,5.5-8.4,9.3-11.8c2.4-2.2,5.2-4.1,8.3-5.3
		c2.2-0.8,4.4-1.8,6.7-2.1c2.6-0.4,5.2-0.7,7.8,0.4c0.9,0.4,1.6,0.2,2.5-0.2c1.3-0.7,2.8-1,4.3-1.2c2.9-0.4,5.8,0.2,8.4,1.4
		c5.5,2.4,10.5,5.5,14.6,9.9c2.2,2.4,4.4,4.9,5.7,8c1.7,4,3.6,7.9,5.2,12c1.5,3.7,2,7.6,2.1,11.5c0.2,6.6,0.4,13.2,0.4,19.8
		c0,2.1-0.4,4.2-0.7,6.3c-0.4,3-0.7,5.9-1.1,8.9c-0.3,2.4-0.5,4.8-0.8,7.3c-0.3,2.8-0.5,5.6-0.8,8.4c-0.2,2.4-0.4,4.9-0.8,7.3
		c-0.3,1.6,0.1,2.9,1,4.1c1.3,1.9,2.7,3.7,3.8,5.7c1.3,2.4,3.6,3.3,6,4c1.7,0.5,3.5,0.7,5.2,1.2c1.4,0.4,2.7,1.2,4.1,1.5
		c2.7,0.6,5.5,1.2,7.5,3.1c1.9,1.7,3.4,3.8,5,5.9c1.6,2,2.7,4.4,3.3,6.9c0.8,3.3,1.5,6.5,2,9.9c0.3,2.3,0.4,4.7,0.3,7
		c-0.1,2.7-0.5,5.4-0.8,8c-0.2,1.7-0.3,3.4-0.4,5.2c-0.1,2.8-0.3,5.6-0.2,8.4c0.1,2.6,0.4,5.2,0.7,7.8c0.1,1,0.7,1.9,0.9,2.8
		c0.5,2.2,1,4.5,1.3,6.7c0.2,1.4,0.1,2.9,0.2,4.3c0,0.1,0,0.2,0,0.3c-0.4,4.5,0.7,8.8,1.4,13.2c0.4,2.4,0.6,4.7,0.8,7.1
		c0.2,2,0.1,4.1,0.3,6.1c0.1,1.6-0.4,3-1.2,4.4c-1.2,2.2-2.4,4.4-3.6,6.6c-2,3.6-4.8,6.3-8.7,7.7c-0.4,0.2-0.9,0.4-1.2,0.8
		c-1.9,1.9-4.3,2.1-6.8,1.9c-0.4,0-0.9-0.1-1.3-0.1c-1.5,0-1.6,0.1-1.6,1.6c0,3.6,0,7.2,0.6,10.8c0.3,1.7,0.1,3.5,0.3,5.2
		c0.3,2.9,0.5,5.8,1.2,8.6c1.7,6.7,3.6,13.3,5.4,20c0.1,0.3,0.1,0.6,0.2,0.9C133.6,289.9,133.5,290.1,132,290.8z M102.1,211.1
		c2,0.9,3.9,1.6,5.7,2.4c0.6,0.3,1.2,0.6,1.8,1c0.2,0.2,0.4,0.8,0.3,1c-0.2,0.3-0.7,0.5-1,0.4c-1.4-0.5-2.9-0.9-4.2-1.6
		c-1.9-1-3.7-2.3-5.5-3.4c-0.6-0.4-1.3-0.9-2-0.9c-2.1-0.1-4.3,0-6.4,0.1c-2.6,0.2-5.1,0.5-7.7,0.8c-1.9,0.2-3.8,0.5-5.7,0.7
		c-1.1,0.1-2.3,0.2-3.4,0.1c-1.4-0.1-2.8-0.3-4.2-0.4c-0.4,0-0.9,0.2-1.4,0.4c-1.4,0.6-2.8,1.3-4.3,1.8c-2.5,0.7-5,1.2-7.4,1.8
		c-1.2,0.3-2.4,0.5-2.3,2.2c0,0.1-0.2,0.3-0.3,0.5c-2.3,3.4-3.8,7.2-4.5,11.2c-0.4,2.2-0.6,4.6,1,6.6c3.3,4.1,6.4,8.4,11.2,11
		c1.6,0.9,3.2,1.9,5.1,1.6c1.3-0.3,2.7,0,4-0.7c1.3-0.7,2.8-0.9,4.3-1.3c4.1-1.3,8.2-2.6,12.3-3.9c0.1,0,0.2-0.1,0.3-0.1
		c2.8-0.5,5.6-1,8.3-1.4c3.1-0.5,6.2-1,9.3-1.5c2.5-0.4,5-0.7,7.5-1.2c1.7-0.3,3.2-1.3,4.9-1.5c2.6-0.3,4.9-1.3,7.3-2.2
		c2.2-0.8,4.4-1.3,6.7-1.4c0.7-0.1,1.4,0.1,1.4,0.9c0,0.7-0.6,0.9-1.3,1c-2,0.3-3.9,0.8-5.9,1.3c-2.4,0.6-4.8,1.4-7.3,2.1
		c-1,0.3-1.9,0.6-2.9,0.9c0,0.1,0,0.2,0.1,0.3c0.7-0.1,1.5-0.3,2.2-0.3c3.6,0,7.2,0.1,10.7,0.1c0.3,0,0.6,0,0.9-0.1
		c1.9-0.7,3.8-1.6,5.8-2.2c3.5-1.2,6-3.4,7.8-6.6c1.1-2.1,1.9-4.3,3.3-6.2c1.4-1.9,1.5-4,1.4-6.2c-0.1-1.3-0.1-2.6-0.2-3.9
		c-0.3-2.8-0.7-5.6-1.1-8.4c-0.3-2-0.9-4-1.1-6c-0.3-3.4-0.3-6.8-0.5-10.2c-0.1-1.8-0.6-3.5-0.9-5.3c-0.5-2.9-1.4-5.8-1.5-8.8
		c-0.3-7.7-0.1-15.3,1-22.9c0.7-4.8,0-9.6-1-14.3c-0.5-2.7-1.1-5.4-2.4-7.9c-1.4-2.7-3.1-5.1-5.2-7.3c-1.3-1.3-2.7-2.3-4.5-2.9
		c-1.7-0.5-3.5-0.6-5-1.4c-3.2-1.6-6.7-1.8-10.3-3c0.3,1.9,0.3,3.7,0.8,5.4c1.4,4.4,1.4,8.9,1.1,13.4c-0.1,1.3-0.2,2.4-1.7,2.9
		c-0.2,0-0.3,0.2-0.4,0.4c-1,1-2,2-3,3c-0.3,0.3-0.6,0.6-0.6,1c-0.2,2.4-0.3,4.8-0.6,7.2c-0.3,2.9-0.4,5.8-1.1,8.6
		c-0.6,2.8-0.7,5.6-0.6,8.4c0,0.3,0.2,0.7,0.4,0.8c1.4,0.4,1.1,1.5,1.1,2.5c0,1-0.1,1.9-0.2,3c2.9-1.4,5,0.2,4.6,2.9
		c-0.3,2.1-0.3,4.3-0.4,6.4c-0.1,1.3-0.4,2.5-1.5,3.1c-1.1,0.6-2.3,0.2-3.3-0.7c-0.8-0.7-1.4-0.3-1.8,0.6c-0.4,0.9-1,1.8-1.8,2.4
		c-2,1.4-5.2,0.1-6.3-2.4c-0.9-2-1.3-4.1-1.2-6.3c0.1-2.5,1.3-4.4,3-6.1c1-1.1,2.2-1.1,3.2-1c0-1.2-0.1-2.3,0-3.3
		c0.1-1.4,0.5-2.8,0.7-4.2c-0.2-0.1-0.3-0.1-0.5-0.2c-0.3,0.4-0.6,0.7-0.9,1.1c-1,1.6-2,3.3-3,4.8c-3.6,5.4-5.5,11.3-5.8,17.9
		c-0.1,2.8-0.8,5.5-1.5,8.2c-0.9,4-2,8-3,12c-0.1,0.3,0,0.6,0,0.7c1.7,0,3.4,0,5,0c1.3,0,2.5,0.3,3.6,1.1c1.3,0.9,1.7,0.7,3-0.3
		c1-0.7,2.2-1.4,3.5-1.6c2-0.4,4.1-0.8,6.2-0.3c0.2,0.1,0.8-0.4,0.9-0.7c0.2-0.7,0.2-1.6,0.4-2.3c0.5-1.8,0.9-3.6,0.6-5.6
		c-0.2-1.2,0.1-2.5,0.2-3.7c0.2-1.8,0.4-3.6,0.8-5.3c1-4.5,2.3-9,2.6-13.7c0.3-4.7,0.6-9.4,1.1-14c0.4-3.9,1-7.7,1.6-11.7
		c0.5,0.3,0.9,0.5,1.4,0.7c-0.6,3.7-1.2,7.5-1.8,11.4c1.1-1.3,2.2-2.2,2.8-3.4c1-1.9,2-3.9,2.5-6c0.9-4.1,3-7.8,4.6-11.6
		c0.1-0.3,0.7-0.4,1-0.5c0,0.4,0.2,0.8,0.1,1c-0.8,2-1.7,3.9-2.5,5.9c-0.4,1-0.6,2-0.9,3c-0.5,1.6-0.8,3.3-1.5,4.8
		c-1.2,2.5-2.7,4.8-4.1,7.2c-0.8,1.4-1.7,2.8-2,4.3c-0.4,1.9-0.4,3.9-0.5,5.8c-0.1,1.8,0,3.7-0.3,5.5c-1,5.8-2.7,11.4-3.3,17.2
		c-0.1,1.2-0.2,2.3-0.4,3.7c1.9-2,3.6-3.7,5.2-5.5c0.9-1.1,1.6-2.3,2.4-3.5c0.8-1.3,1.8-1.4,2.6,0c0.4,0.7,0.5,1.6,0.8,2.4
		c0.1,0,0.2-0.1,0.3-0.2c1.2-0.9,1.7-0.8,2.3,0.6c0.5,1.2,0.6,2.5-0.2,3.6c-0.7,0.9-1.4,1.8-2,2.7c-0.7,1-1.3,2-2,3.1
		c1.6-1.5,3-3,4.2-4.7c0.7-0.9,1.2-2,1.8-3c0.2-0.3,0.2-0.7,0.4-0.9c1.5-1.9,2.7-4.1,4.9-5.5c0.5-0.3,0.8-1.5,1.5-0.8
		c0.7,0.7-0.3,1.2-0.7,1.7c-1.4,1.6-2.8,3.2-4.1,4.9c-0.9,1.2-1.3,2.5-0.3,4c0.8,1.1,0.6,2-0.3,3.1c-0.8,1-1.6,2-2.3,3
		c0.1,0.1,0.1,0.2,0.2,0.3c1.1-0.2,2.3-0.5,3.4-0.7c1.6-0.4,3.2-0.8,4.9-1.1c0.3-0.1,0.8,0.4,1.2,0.6c-0.3,0.3-0.5,0.8-0.8,0.9
		c-3,0.7-6,1.2-8.9,1.9c-0.3,0.1-0.5,0.1-0.8,0.1c0,0.1,0,0.2-0.1,0.3c0.5,0.3,1,0.7,1.6,0.9c2.1,0.9,4.3,1.7,6.3,2.8
		c1,0.5,1.9,0.9,3,1c1.5,0.2,3,0.6,4.5,0.9c0.8,0.2,1.2,0.7,1,1.5c-0.3,0.8-1,0.8-1.7,0.6c-0.2-0.1-0.4-0.2-0.6-0.3
		c-0.7-0.3-1.4-0.5-2.1-0.7c-0.9-0.2-1.8-0.1-2.6-0.4c-1.9-0.8-3.8-1.8-5.6-2.6c-1-0.5-2.2-0.7-3-1.3c-2-1.6-4.1-0.8-6.3-0.7
		c-1,0-2,0.2-3.1,0.4c1.6,1.3,3,2.6,4.5,3.7c1.1,0.9,2.4,1.7,3.5,2.6c1,0.8,1.9,1.5,2.7,2.4c0.3,0.3,0.1,1,0.2,1.5
		c-0.5-0.2-1.1-0.2-1.4-0.5c-1-1.2-2.2-2.1-3.6-2.8c-0.2-0.1-0.4-0.2-0.5-0.4c-2.4-1.9-4.7-3.7-7-5.6c-0.8-0.7-1.7-0.6-2.7-0.5
		c-1.5,0.1-2.9,0.2-4.4,0.1C108.2,208.2,105.1,208.5,102.1,211.1z M85.2,257.3c-0.2,0-0.3,0-0.5,0c-0.6-1.1-1.4-0.8-2.3-0.6
		c-2.6,0.6-5.1,1.2-7.7,1c-1.4-0.1-2.8,0-4.2,0c-2.7,0.1-5.5,0.1-8.2,0.2c-1.2,0.1-2.4,0.4-3.6,0.6c0,0.1,0,0.3,0,0.4
		c1.8,0.2,3.6,0.3,5.5,0.5c0.4,0,0.7,0.1,1.1,0.2c0.8,0.2,1.5,0.4,2.3,0.5c2.9,0.2,5.8,0.3,8.8,0.4c0.1,0,0.3,0,0.4,0.1
		c2,0.3,4,0.7,6.1,0.8c3.1,0.2,6.2,0.4,9.3,0.4c0.7,0,1.6-0.2,2.1-0.6c1.3-1.2,2.5-2.5,3.8-3.8c0.1-0.1,0.2-0.3,0.2-0.5
		c0.3-1,0.5-2,0.8-3c0.4-1.1,1.1-2.2,1.1-3.3c0.1-2.6,1.1-4.9,1.8-7.3c0.1-0.5,0.2-0.9,0.3-1.6c-0.7,0.1-1.3,0.1-1.8,0.2
		c-3,0.5-6.1,1.1-9.1,1.7c-1.3,0.2-2.7,0.4-3.9,0.8c-2.9,0.8-5.7,1.8-8.6,2.6c-2.1,0.6-4.3,1.1-6.3,2c-2.8,1.2-5.6,1.8-8.6,0.8
		c-0.5-0.2-1-0.1-1.6-0.2c-0.6-0.2-1.4-0.3-1.8-0.7c-2.4-2.1-4.7-4.2-6.9-6.5c-1.8-1.9-3.4-3.9-4.9-6c-1.6-2.4-1.3-5.1-1-7.8
		c0-0.4,0.1-0.7,0.1-1c-0.8-0.2-1.5-0.3-2.1-0.6c-1.9-0.9-3.8-1.2-5.9-1.2c-1,0-2.1-0.1-2.9-0.5c-1.5-0.7-2.7-0.7-4,0.4
		c-0.3,0.3-0.8,0.4-1.2,0.6c-3.6,1.3-6.7,3.3-9.5,5.8c-1.7,1.5-3.7,2.7-5.6,3.8c-0.3,0.2-0.8,0.1-1.2,0.1c0-0.1-0.1-0.3-0.1-0.4
		c0.6-0.5,1.2-1,1.9-1.4c2.1-1.6,4.3-3.2,6.4-4.9c1.7-1.4,3.3-2.7,5.4-3.4c1.6-0.5,3-1.4,4.5-2.1c0-0.2,0-0.3,0-0.5
		c-1.5-0.8-3-1.7-4.6-2.3c-1.5-0.5-3.1-0.5-4.6-1.1c-3.2-1.2-6.4-2.5-9.5-4c-1.2-0.6-2-1.7-3-2.7c-0.2-0.2,0-0.7,0-1.1
		c0.3,0.1,0.7,0.1,1,0.3c0.6,0.4,1.1,1.1,1.7,1.4c3.8,2.1,7.7,4.2,12.2,4.7c1.8,0.2,3.6,1.1,5.3,1.6c-0.1-2,0.5-4.1-1-5.9
		c-0.2-0.2-0.1-0.6-0.1-1c-0.1-1.6,0-3.1-0.2-4.7c-0.2-2.7-0.5-5.4-0.9-8c-0.3-2.1-0.3-4.4-2.1-6c-0.1-0.1-0.2-0.4-0.2-0.6
		c-0.2-0.9-0.2-1.9-0.7-2.7c-1-1.7-2.3-3.3-3.5-4.9c-1.8-2.4-3.7-4.6-5.3-7.1c-1.5-2.3-2.5-4.8-3.9-7.2c-0.8-1.3-0.9-2.4-0.4-4.1
		c4.1,7.6,8.8,14.5,14,21.2c-0.2-1.1-0.5-2.1-0.9-3.1c-1.6-3.7-2.9-7.5-5.3-10.8c-0.4-0.5-0.7-1.2,0.1-1.7c0.7-0.4,1.1,0.2,1.4,0.7
		c2,2.9,3.4,6,4.7,9.2c0.7,1.6,1.2,3.3,1.9,5c0.1,0.3,0.6,0.5,0.9,0.5c0.9,0.1,1.5,0.4,1.5,1.5c0,0.4,0.3,1,0.6,1.3
		c1.6,1.3,3.4,1,5.6,0.9c-0.5-0.4-0.6-0.6-0.9-0.8c-2.7-1.9-4.6-4.4-5.5-7.6c-0.6-2.1-1.1-4.2-1.6-6.4c-0.2-0.9-0.6-1.7-0.6-2.6
		c0-3.4,0.1-6.7,0.2-10.1c0.2-3.8,0.5-7.5,0.6-11.3c0.2-3.9,0.2-7.9,0.2-11.8c0-0.4-0.2-0.9-0.4-1c-1.4-0.9-2.9-1.9-4.4-2.7
		c-1.5-0.8-1.6-1.2-1-2.7c0.8-2,1.5-3.9,2.1-5.9c0.5-1.7,1-3.5,1.4-5.3c0.3-1.6,0.4-3.2,0.6-4.8c0.3-1.7,0.6-3.3,0.9-4.9
		c-0.1,0-0.2,0-0.2,0c-0.3,0.1-0.6,0.2-0.8,0.4c-2.4,1.8-5.1,2.8-8,3.5c-1.9,0.5-3.9,0.8-5.8,1.3c-2.7,0.6-5.2,1.8-7.1,3.7
		c-1.2,1.3-1.8,3.1-2.5,4.8c-0.4,0.8-0.6,1.8-0.9,2.6c-1,3-2.2,6-1.9,9.2c0.1,0.7,0,1.4-0.2,2.1c-0.7,3.3-0.7,6.7-0.4,10
		c0.2,3,1,5.9,1.1,8.9c0.1,3.7,0,7.5-0.4,11.2c-0.5,4.3-1.2,8.6-0.6,13c0,0.4,0,0.8-0.1,1.1c-0.4,2.6-0.4,5.2,0.8,7.7
		c1.4,2.7,1.9,5.7,2,8.7c0.1,6.4,0.1,12.8,0.9,19.2c0.5,4.1,0.4,8.3,0.5,12.5c0,0.4,0.1,0.7,0.1,1.1c0.2,1.1,0.3,2.2,0.5,3.3
		c0.1,0.4,0.1,1,0.3,1.3c1.4,1.3,2.8,2.8,4.4,3.8c3.1,2,6.4,3.8,9.7,5.5c2.3,1.2,4.8,2.2,7.1,3.5c2.5,1.3,4.9,2.4,7.8,2.5
		c2.1,0.1,4.1,0.2,6,1.4c0.7,0.5,1.8,0.5,2.7,0.5c1.6,0.1,3.3-0.2,4.9,0.1c2.4,0.4,4.8,0,7.1-0.5c3.6-0.7,7.1-1.3,10.8-1.2
		c2.7,0.1,5.4,0.1,8,0c1.1,0,2.3-0.3,3.4-0.4c1.6-0.2,3.2-0.5,4.7-0.6c0.5,0,1.4,0.3,1.5,0.7C85.8,255.9,85.3,256.6,85.2,257.3z
		 M94.9,42c0.6-1.4-0.3-2.4-0.7-3.5c-1.4-3.3-3-6.5-5.7-9c-1.8-1.6-3.3-3.6-4.9-5.4c-0.2-0.2-0.5-0.4-0.7-0.4
		c-0.2,0-0.4,0.4-0.5,0.6c-0.8,1.5-1.4,3.2-2.5,4.5c-2.6,3.1-5.4,6-8.1,9.1c-2.8,3.2-5.3,6.7-6.8,10.7c-0.4,1-1.1,1.5-2.3,1.9
		c0.2-2,0.3-3.8,0.7-5.5c0.3-1.6,0.8-3.3,1.3-4.8c0.7-2.1,1-4.4,2.5-6.2c0.2-0.2,0-0.8,0-1.3c-3.7,2.7-7.2,5.3-10.9,8
		c1.3,0.5,2.3,0.8,3.4,1.2c0.4,0.2,1,0.3,1.2,0.6c0.3,0.6,0.2,1.3,0.3,2c-0.4,0-0.9,0.2-1.3,0.1c-0.7-0.1-1.3-0.4-2-0.6
		c-1.3-0.4-2.6-0.8-3.9-1.1c-0.3-0.1-0.7,0.1-0.9,0.3c-2.4,2-4.7,4-7.1,6c-1.6,1.4-2.7,2.9-2.3,5.2c0.3,1.9,0.3,3.9,0.5,5.8
		c0,0.2,0,0.5,0.1,0.7c0.4,2.4,0.9,4.8,1.3,7.2c0.6,3.3,1.4,6.4,3,9.4c1.9,3.5,3.5,7.2,6.8,9.8c2.7,2.2,5.2,4.8,7.8,7.1
		c3.1,2.8,6.6,3.6,10.5,1.5c0.2-0.1,0.3-0.2,0.5-0.2c3-0.8,5.6-2.6,7.6-4.8c2.4-2.6,4.8-5.2,6.5-8.4c1.5-2.7,3.1-5.3,3.9-8.4
		c0.7-2.8,1.9-5.5,2.5-8.4c0.8-4,1.7-8,2-12.1c0-0.5,0-1.1,0.1-1.6c0.6-2.5-0.4-4.8-1-7.1c-0.1-0.3-0.4-0.5-0.7-0.7
		c-4.8-2.4-9.7-2.9-14.8-1.1c-0.7,0.3-1.4,0.7-2.2,0.9c-0.4,0.1-0.9-0.1-1.4-0.2c0.1-0.6,0.1-1.5,0.5-1.8c0.6-0.5,1.4-0.9,2.2-1
		c2.5-0.4,5-0.8,7.6-0.8c2-0.1,3.9,0.2,5.8,1C93.2,41.6,94.1,41.8,94.9,42z M53.9,89c0.1,0.8,0.3,2.1,0.4,3.4c0.1,2.1-0.1,4.3,0,6.4
		c0.1,1.7-0.5,3.1-1.4,4.4c-0.2,0.3-0.5,0.7-0.7,1c-0.9,2.1-2.6,3.5-4.5,4.6c-0.7,0.4-1.6,0.7-2.3,1.1c-0.3,0.2-0.6,0.8-0.6,1.1
		c0.4,2,0.4,4.1,1.6,5.9c0.3,0.4,0.7,0.8,1.1,0.9c1.8,0.3,3.7,0.4,5.5,0.8c3.2,0.8,6.3,1.9,9.4,3c0.2,0.1,0.3,0.6,0.4,0.8
		c-0.4,0.2-0.8,0.5-1.1,0.4c-4.7-1.4-9.4-3-14.5-3.5c0.1,0.2,0.1,0.5,0.2,0.8c1.3,2.6,2.4,5.2,3.8,7.7c1.6,2.9,3.2,5.8,5.1,8.4
		c1.6,2.2,3.6,4.2,5.5,6.2c0.7,0.7,1.7,1.2,2.3,2c1.8,2.5,4.4,4.1,6.6,6.2c0.8,0.8,1.4,0.5,2-0.2c1.8-1.9,3.6-3.8,5.4-5.8
		c2.6-2.9,5.2-5.8,7.7-8.8c1.4-1.7,2.6-3.6,3.8-5.4c0.9-1.3,1.7-2.7,2.5-4.1c0.7-1.3,1.2-2.8,1.8-4.2c0.5-1.3,1-2.6,1.5-4
		c-2.2-0.1-4.2,0.2-6.1,1.1c-2,0.9-4.1,1.7-6.4,1.4c-0.4-0.1-0.8-0.6-1.2-0.9c0.4-0.2,0.7-0.5,1.1-0.6c1.4-0.3,2.9-0.5,4.3-0.9
		c1.6-0.4,3.1-1.2,4.7-1.5c1.3-0.3,2.8-0.3,4.1-0.4c0.4-1.2,0.8-2.4,1.1-3.6c0.3-1.2-0.2-3.2-1.1-3.6c-2.3-1-3.4-3-4.7-4.9
		c-2.9-4.3-3.6-9.3-3.7-14.4c0-1.1,0-2.3,0-3.4c-0.5,0.3-0.8,0.6-1,1c-1.3,1.5-2.3,3.3-3.8,4.5c-2.7,2.2-5.5,4.1-8.9,5.4
		c-2.1,0.8-4.1,1.5-6.4,0.9c-1.4-0.3-3-0.6-4.1-1.4c-2.1-1.5-4-3.4-6-5.1C56.3,90.9,55,89.9,53.9,89z M83.5,209
		c0.1,0.1,0.3,0.3,0.4,0.4c1.6-0.3,3.1-0.6,4.6-0.9c0.2-0.1,0.5-0.5,0.5-0.8c0.4-2,0.7-4.1,1.1-6.1c0.4-2,1-3.9,1.5-5.9
		c0.4-1.7,0.6-3.4,0.9-5.1c0,0,0-0.1,0-0.1c0.4-2.1,0.9-4.1,1.3-6.2c0.4-2.1,0.5-4.3,1.1-6.4c1.4-4.8,4-9,6.8-13c1.4-2,2-3.8,1-6.2
		c-0.8-1.8-1.1-3.8-1.5-5.8c-0.4-2.1-0.3-4.3-1.7-6.1c-0.2-0.2,0-1.1,0.2-1.3c1.3-1.1,2.6-2.2,4.1-3c3.6-1.8,7.4-3.3,10.2-6.5
		c0.9-1,1.3-1.9,1.3-3.1c0-0.8,0-1.7,0-2.5c0-1.6,0.1-3.2-0.2-4.7c-0.4-2.6-1.3-5.2-1.4-7.9c-0.1-2-0.7-3.2-1.9-4.8
		c-2.3-3-4.1-6.5-6.1-9.7c-0.3-0.5-0.6-1-1-1.5c-3.6-4.1-8.3-5.8-13.5-6.4c-0.4,0-0.7,0-1.2,0c0,0.5,0,0.9,0.1,1.2
		c1,3.5,2.4,6.7,5,9.4c0.5,0.5,1.3,0.8,2.1,0.9c1.3,0.2,2.4,0.5,3.3,1.5c0.5,0.5,1.1,0.9,1.6,1.3c-0.1-1.2-0.2-2.3-0.6-3.4
		c-0.7-1.9-1.2-3.9-2.9-5.2c-0.2-0.2-0.3-0.8-0.1-1.1c0.1-0.2,0.8-0.3,1-0.2c0.6,0.4,1.2,0.9,1.5,1.4c2.8,4.1,3.3,8.7,2.9,13.4
		c-0.1,1.4-0.3,2.9-0.9,4.1c-1.4,2.6-2,5.4-2.9,8.1c-0.9,2.7-2.2,5.4-3.1,8.1c-1.9,5.7-3.7,11.4-5.5,17.1c-0.7,2.2-1.5,4.3-2,6.5
		c-0.6,2.9-0.9,5.8-1.4,8.7c-0.3,1.8-0.6,3.5-0.9,5.3c-0.4,2.7-0.7,5.4-1.3,8c-0.7,3.1-1.3,6.1-1.3,9.3c0,3-0.4,6-0.7,9.1
		C83.9,202.4,83.7,205.7,83.5,209z M27,136c3.4,2.5,6.6,4.8,9.9,7.2c0.6,0.5,1.3,0.9,1.9,1.4c0.7,0.5,0.9,1.2,0.6,2.1
		c-0.3,0.8-0.6,1.6-0.7,2.5c-0.5,3.3-1,6.6-2.5,9.6c-0.4,0.9-0.3,1.5,0.3,2.3c2.8,3.8,5.7,7.7,8.5,11.5c2.5,3.4,5.1,6.6,7.4,10.1
		c3,4.5,5.3,9.4,7,14.6c0.9,2.7,1.9,5.3,2.7,8c0.5,1.7,0.9,3.4,1.3,5.2c0.3,1.2,0.9,1.6,2.2,1c0.7-0.4,1.3-0.6,1.1-1.6
		c-0.1-0.7-0.1-1.4-0.2-2.1c-0.6-3.5-1.2-7.1-2-10.6c-0.6-2.6-1.5-5.2-2.3-7.8c-1-3.4-1.9-6.8-2.9-10.2c-1.3-4.4-2.9-8.7-4.2-13.1
		c-0.9-2.9-1.2-6-2.6-8.7c-0.7-1.5-1.2-3-1.7-4.6c-0.3-0.8-0.3-1.8-0.6-2.6c-0.6-1.7-1.5-3.4-2.1-5.2c-1.3-3.8-2.4-7.6-3.6-11.3
		c-0.2-0.5-0.3-1-0.4-1.5c-0.5-3.1-1-6.2-1.6-9.3c-0.3-1.9-1-3.8-1.1-5.7c-0.3-3.9-0.1-7.8,0.9-11.6c0.4-1.8,1.8-3.2,3.1-3.1
		c0.3,0,0.5,0.3,0.7,0.4c-0.1,0.2-0.2,0.5-0.4,0.6c-1.8,1.5-2.3,2.6-1.9,4.8c0.5-0.3,1.1-0.5,1.6-0.8c1.1-0.6,2.4-1,3.3-1.8
		c1-0.9,1.8-2.1,2.6-3.2c0.9-1.2,1.6-2.5,1-4.4c-1.9,0.4-3.9,0.6-5.7,1.3c-1.5,0.6-2.9,1.6-4.3,2.6c-2.5,1.8-4.4,4-5.5,6.9
		c-0.2,0.4-0.5,0.7-0.7,1c-0.5,0.8-1,1.7-1.4,2.5c-0.2,0.5-0.3,1-0.5,1.5c-1.2,2.2-1.8,4.7-2.2,7.2c-0.2,1-0.5,2-0.8,2.9
		c-0.6,1.8-1.6,3.4-1.8,5.2C29,131.5,28.1,133.8,27,136z M54.5,192c-0.9,0.1-1.8,0.4-2.4,0.2c-1-0.5-1.6,0-2.3,0.4
		c-1,0.5-1.9,1.1-3,1.3c-1,0.3-2.2,0-3.2,0.3c-1.3,0.4-2.5,1.2-3.8,1.5c-1.6,0.4-3.3,0.6-4.9,0.4c-1.2-0.1-2.2-0.9-3.4-1.3
		c-0.3-0.1-0.6-0.1-0.9,0c-0.2,0.1-0.3,0.5-0.2,0.7c0.8,2.1,1.1,4.3,1.3,6.5c0.4,3.4,0.9,6.7,0.8,10.2c0,0.4,0.1,0.9,0.2,1.3
		c0.4,1.2,0.9,2.5,1.4,3.6c0.7-0.3,1.5-0.9,2.3-1.1c1.3-0.2,2.6-0.2,3.9-0.3c1.6-0.1,3.1-0.4,4.7-0.4c2.1-0.1,4.2-0.2,6.3,0
		c1,0.1,1.9,0.6,2.5-0.6c0.1-0.2,0.5-0.4,0.9-0.5c1.9-0.6,3.8-1.1,5.8-1.7c0.4-0.1,0.8-0.3,1.1-0.4C60.3,205,57.9,198.3,54.5,192z
		 M33.9,143.8c-0.2,4.6-0.4,8.9-0.5,13.3c0,1.3,0.4,2.7,0.1,3.9c-0.7,3.4-0.7,6.9-0.6,10.3c0.1,2.3,0.4,4.7,1.1,7
		c0.9,2.7,2.1,5.3,3.4,7.8c0.8,1.4,2.1,2.6,3.2,3.9c0.4,0.4,0.9,0.5,1.2-0.1c1.6-3.1,3.6-6.1,3.3-9.8c-0.1-0.9-0.4-2-0.1-2.7
		c0.4-1,0.1-1.5-0.5-2.1c-0.5-0.5-0.9-1-1.3-1.6c-1.2-1.6-2.3-3.1-3.5-4.7c-0.7-1-1.6-1.9-2.3-2.9c-1.1-1.5-2.1-3.1-3.2-4.6
		c-0.6-0.8-0.7-1.5-0.4-2.4c0.5-1.2,1-2.3,1.3-3.5c0.7-2.9,1.3-5.9,2-8.8c0-0.2,0-0.5-0.1-0.6C36.1,145.3,35,144.6,33.9,143.8z
		 M52.3,217.2c-0.8-0.1-1.8-0.5-2.7-0.4c-3.8,0.2-7.6,0.5-11.5,0.7c-2.4,0.1-3.8,1.3-4.4,3.5c0.4,0.4,0.7,0.7,1,1.1
		c0.4,0.4,0.8,0.9,1.3,1.2c2.1,1,4.4,1,6.7,1c0.8,0,1.5,0.2,2.3,0.4c1.1,0.4,2.3,0.9,3.2,1.3C49.5,223,50.9,220.2,52.3,217.2z
		 M107.7,143.1c-2.2,0.7-4.1,1.5-5.7,3c-0.2,0.2-0.2,0.7-0.1,1.1c0.2,0.9,0.7,1.8,0.9,2.7c0.3,1.6,0.4,3.2,0.7,4.7
		c0.5,2,1.2,4,1.8,6c0.1,0,0.2,0,0.3,0C106.2,154.8,106.9,149.1,107.7,143.1z M124.5,190.2c-2.5,2.9-5.1,5.7-7.4,8.7
		c-1,1.3-1.8,2.9-2.3,4.5c-0.3,1-0.1,2.1-0.1,3.2c2,0.4,2.7-0.1,3.2-2c0.5-1.7,1-3.4,1.9-4.8c1.3-2.1,2.9-4.1,4.5-6.1
		C125.3,192.4,125.4,191.6,124.5,190.2z M127.7,192.5c-4,4.2-8.3,7.9-9,14c1.3-0.1,2.6-0.3,3.5-0.4c0.6-1.8,0.9-3.4,1.7-4.7
		c1.2-2.1,2.7-3.9,4-5.9C128.5,194.5,128.4,193.6,127.7,192.5z M106.1,184c-3.1-1.7-3.9-2.9-3.4-5.9c0.2-1.4,0.3-3,1.4-4.2
		c0.3-0.3,0.5-0.9,0.7-1.5c-2.3-0.3-2.9,1.4-3.7,2.6c-1.1,1.6-1.1,3.5-0.9,5.3c0.2,1.8,0.8,3.6,2.3,4.8
		C103.8,186.3,105.6,185.7,106.1,184z M42.4,56.1c-0.1,0-0.2,0-0.3,0c-0.6,1.2-1.3,2.4-1.8,3.6c-0.2,0.4-0.1,0.9-0.1,1.3
		c0.1,1.4,1,2.3,1.9,3.2c0.2,0.2,0.2,0.6,0.3,1c-0.4,0-0.8,0.1-1.1,0c-0.4-0.2-0.7-0.5-1-0.9c-0.4-0.4-0.6-0.9-0.9-1.3
		c-0.1,0-0.2,0-0.3,0c-0.1,0.6-0.5,1.4-0.2,1.8c0.9,1.4,1.9,2.7,3,4c0.3,0.4,1,0.5,1.5,0.6c0.6,0.1,0.8-0.2,0.8-0.8
		c-0.1-1.1-0.2-2.2-0.5-3.2c-0.7-2.6-1.3-5.3-1.1-8.1C42.6,57,42.4,56.6,42.4,56.1z M44.1,190.7c1.9,0.4,2.6,0.1,4.3-1
		c0.9-0.6,0.7-1.4,0.8-2.2c0.1-0.8,0.6-1.2,1.4-1.4c0.4-0.1,0.7-0.1,1.3-0.2c-1.2-2-2.3-3.8-3.5-5.6
		C47.1,183.9,47.4,187.9,44.1,190.7z M108.8,181.9c0-2.2,0-4.2,0-6.3c-1-0.1-2-0.1-2.9-0.3c-1-0.3-1.1,0.2-1.2,0.9
		c-0.2,0.8-0.3,1.6-0.4,2.4c-0.3,1.6,0.5,3,2.1,3.3C107.1,182,107.9,181.9,108.8,181.9z M95,69c0.6,0.1,0.9,0.2,1.3,0.1
		c0.9-0.2,2.6-2.3,2.5-3.2c-0.2-2.6-0.4-5.2-0.7-7.8c0-0.3-0.5-0.5-0.8-0.8C96.5,61.4,95.8,65.1,95,69z M113.3,176.4
		C113.3,176.4,113.3,176.4,113.3,176.4c-0.1-0.8-0.1-1.5-0.2-2.3c-0.1-0.7-0.9-1.2-1.4-0.7c-0.6,0.6-1.2,1.5-1.3,2.2
		c-0.1,2.1,0,4.1,0.1,6.2c0,0.5,0.7,0.9,1,1.4c0.4-0.4,1.1-0.8,1.1-1.3C113.1,180.1,113.2,178.2,113.3,176.4z M127,205.6
		c0.1-0.2,0.2-0.5,0.3-0.7c1.3-1.6,2.6-3.2,3.9-4.8c0.8-1,0.7-1.9-0.6-2.7c-2.1,2.6-4.6,4.9-5.8,8.4
		C125.6,205.7,126.2,205.7,127,205.6z M109.3,171.2c-0.7-0.1-1.3-0.2-2-0.1c-0.3,0-0.7,0.4-0.7,0.6c-0.1,0.8,0,1.6,0,2.5
		c0.6,0,1.2-0.1,1.6,0.1c1,0.4,1.1-0.3,1.1-0.9C109.3,172.6,109.3,171.9,109.3,171.2z M107.6,167.9
		C107.6,167.9,107.6,167.8,107.6,167.9c-0.4,0-0.8-0.1-1.1,0.1c-0.2,0.1-0.6,0.4-0.6,0.7c0,0.6,0.3,1.2,1.1,1.1
		c0.8-0.1,1.9,0.3,2-0.9c0-0.2-0.4-0.6-0.7-0.8C108.2,167.8,107.8,167.9,107.6,167.9z"/>
	<path class="st0" d="M51.9,48.3c2.3-0.1,4.4,0,6.2,1.1c1.4,0.9,2.6,2.2,3.8,3.5c0.7,0.8,0.4,1.7-0.5,2.4c-2.3,1.8-5,1.5-7.7,1.3
		c-2.9-0.3-5.2-1.8-7.4-3.6c-1.5-1.2-1.3-1.8,0.2-3C48.2,48.6,50,47.9,51.9,48.3z M51.7,55c0.1-0.1,0.2-0.2,0.3-0.3
		c-0.8-1.3-1.3-2.6-0.5-4.1c0.1-0.2,0-0.6-0.1-0.7c-1.1-0.5-1.6,0.5-2.3,1c-0.4,0.3-1.3,0.6-0.8,1.5c0.1,0.1,0.1,0.2,0.2,0.2
		C49.6,53.4,50.6,54.2,51.7,55z M61.1,53.9c-0.9-1-1.7-1.8-2.4-2.5c-0.1,0.1-0.3,0.1-0.4,0.2c0.8,1.5-0.3,2.5-1,3.6
		c0.1,0.1,0.1,0.2,0.2,0.3C58.6,55,59.7,54.5,61.1,53.9z M55.6,50.8c-0.5,0.6-0.9,1-1,1.4c0,0.2,0.7,0.8,0.8,0.8
		c0.4-0.3,0.8-0.7,1.1-1.1C56.6,51.7,56.1,51.3,55.6,50.8z"/>
	<path class="st0" d="M83.4,56.6c-1.6-0.3-3.2-0.5-4.7-1c-0.8-0.3-1.5-1-2.1-1.6c-0.1-0.1-0.1-0.5,0-0.6c0.9-1,1.8-2.3,2.9-3
		c3.5-2.3,8.7-2.9,12.2,0.2c0.6,0.6,0.7,0.9,0.1,1.5c-0.8,0.8-1.4,1.7-2.1,2.4C87.9,56.3,85.7,56.4,83.4,56.6z M87.6,50.1
		c0,1.3,0,2.6,0,4c1.1-0.6,2.3-1.1,2.9-2.4c-0.9-0.5-1.8-1.1-2.7-1.6C87.8,50.1,87.7,50.1,87.6,50.1z M81,51.3
		c-0.1-0.1-0.2-0.2-0.4-0.3c-0.8,0.9-1.7,1.7-2.7,2.8c1.3,0.4,2.3,0.7,3.6,1.1C80.1,53.6,80.6,52.4,81,51.3z M83.2,53.4
		c0.5-0.5,1.1-0.8,1.1-1.2c0-0.3-0.5-0.8-0.9-0.9c-0.9-0.2-0.9,0.6-1,1.1C82.4,52.6,82.8,52.9,83.2,53.4z"/>
	<path class="st0" d="M69.4,86.5c-2.9,0.2-5.1-0.8-6.8-2.9c-0.9-1.1-2.1-2.1-3.1-3.1c-0.2-0.2-0.3-0.6-0.4-1c0.3-0.1,0.7-0.2,1-0.2
		c1.8,0.2,3.5,0.2,5.2-0.6c1.1-0.5,2.1-0.6,3.2,0.2c0.3,0.2,1,0.1,1.4-0.1c1-0.6,2-0.6,3-0.3c1,0.3,2.1,0.7,3.1,0.9
		c0.6,0.1,1.3,0.1,1.9,0.1c0.3,0,0.8,0.1,0.8,0.2c0.1,0.3,0.1,0.8-0.1,1c-1.7,1.6-3.5,3.1-5.3,4.6C72.1,86.4,70.7,86.8,69.4,86.5z
		 M75.4,81.6c-1.6,0.4-3.2,1-4.8,1.2c-1.1,0.2-2.4,0.3-3.2-0.2c-1.5-0.8-2.9,0.1-4.4-0.6C65.9,86.7,72.8,86.2,75.4,81.6z M62.5,80.8
		c0,0.1,0,0.2,0,0.3c0.9,0,1.7,0,2.6,0.1c0.8,0.1,1.6,0.2,2.4,0.3c0.8,0.1,1.6,0.5,2.4,0.4c1.8-0.4,3.5-1,5.4-1.5
		c-0.7-0.2-1.4-0.4-2.1-0.7c-1.1-0.3-2-0.4-3.1,0.1c-0.6,0.3-1.5,0-2.3-0.1c-0.5,0-1.1-0.3-1.6-0.2C64.9,79.9,63.7,80.4,62.5,80.8z"
		/>
	<path class="st0" d="M75.6,70.9c0,1.3-0.7,2-1.9,2.2c-0.6,0.1-1.3,0.3-1.8,0.7c-2,1.5-3.3,1.4-5.1-0.1c-0.3-0.2-0.8-0.3-1.2-0.4
		c-0.7-0.3-1.8-0.4-2-0.9c-0.3-0.7,0-1.7,0.1-2.6c0-0.1,0.5-0.3,0.7-0.3c0.1,0,0.3,0.4,0.3,0.6c0,0.2-0.1,0.4-0.2,0.6
		c-0.2,1.1,0.1,1.3,1.2,1.3c0.5,0,1.2,0.2,1.5,0.6c1.4,1.4,2.5,1.4,4,0.2c0.5-0.4,1.2-0.7,1.9-0.8c1-0.1,1.4-0.5,1.2-1.4
		c-0.1-0.4-0.4-1.1,0.3-1.1c0.2,0,0.6,0.8,0.8,1.2C75.6,70.7,75.6,70.8,75.6,70.9z"/>
</g>
</svg>
