<?xml version="1.0" encoding="utf-8"?>
<!-- Generator: Adobe Illustrator 19.2.0, SVG Export Plug-In . SVG Version: 6.00 Build 0)  -->
<svg version="1.1" id="Layer_1" xmlns="http://www.w3.org/2000/svg" xmlns:xlink="http://www.w3.org/1999/xlink" x="0px" y="0px"
	 viewBox="0 0 150 207.7" style="enable-background:new 0 0 150 207.7;" xml:space="preserve">
<style type="text/css">
	.st0{fill:#03A9F4;}
</style>
<g id="earche-cold">
	<path class="st0" d="M99.6,207.7c5.4-6,8.3-13.4,11.4-20.7c2.2-5.1,4.4-10.8,10.1-13.5c1.4-0.6,2.7-1.3,4.3-2
		c-0.7-5.8-1.5-11.7-2.3-17.9c-3.2,1.2-4.9,3.6-5.9,6.7c-0.7,2.2-1.5,4.4-2.5,6.5c-0.3,0.7-1.4,1.1-2.1,1.7c-0.2-1-0.9-2.1-0.6-2.9
		c2.4-5.5,2.8-12.4,9.6-14.9c-3.4-6-6.8-11.6-9.6-17.4c-1.2-2.5-1.6-5.7-1.7-8.5c-0.4-7.1-0.3-14.2-0.8-21.2c-0.3-3.8-4.2-6.5-7.9-6
		c-0.6,0.1-1.2,0.8-1.5,1.4c-2.7,6-7.4,10.2-11.9,14.8c-3.9,4.1-8.1,5.5-13.5,5.6C60,119.6,51.4,111.6,46,98.9c-0.9-2.1-0.9-2.1-3-2
		c-0.6,4.6-1.2,9.1-1.9,13.7c-0.5,3.3-0.8,6.7-1.6,9.9c-0.7,2.8-1.3,5.9-2.9,8.1c-3.4,4.6-3.9,10-4.7,15.3c-1.3,8.6-1.9,17.4-3.5,26
		c-0.8,4.5-3.1,8.8-4.7,13.2c-0.3,0.7-0.3,1.4-0.6,2.8c4.9-3,9-5.6,10.7-11.2c1.6-5.2,4.7-9.5,10.2-12.3c3.6-1.9,6.2-6.5,8.4-10.3
		c2.4-4.1,5.5-6.8,9.8-8.4c0.8-0.3,2,0.3,3,0.4c-0.6,0.8-1,2-1.8,2.3c-4.2,1.7-6.9,4.7-9.1,8.7c-2.6,4.8-5.7,9.1-11.3,11.7
		c-2.8,1.3-5.3,5.3-6.2,8.6c-1.5,5.6-4.9,9.6-9.7,11.5c-7.1,2.8-7.5,8.3-7.9,14.2c-0.1,2.2,0,4.4,0,6.6c-0.9,0-1.8,0-2.7,0
		c-0.1-11.6,2.9-22.5,7.4-33c1.3-3,3.3-6.3,2.9-9.3c-0.5-4.5,1.2-8.7,0.8-12.8c-0.7-6.9-2.7-9.2-9.2-6.2c-5.6,2.6-11.1,0.3-14.1-5
		c-2.2-3.8-3.4-7.3-1.3-11.6c1.3-2.7,0.5-5.4-1.4-7.9c-1.8-2.3-2.3-10.5-0.1-13.4c2.9-3.9,5.8-8.1,6.6-13.4c0.3-1.8,2.2-3.9,3.9-4.9
		c5.2-3.2,9.2-7.4,12.5-12.4c2-3,2.7-5.8,0.5-9.1c-0.8-1.2-0.7-3-0.6-4.6c0.1-5.9,2.8-10.7,6.3-15.4c2-2.7,2.8-6.5,3.7-9.9
		c1.6-5.9,2.2-12,4.4-17.6c1.4-3.5,4.9-6.3,7.6-9.2c4.3-4.6,9.6-7.9,15.4-9.9C68.5-0.2,75.6-1.3,82.5,2c1.9,0.9,4.1,1.2,6.2,1.5
		c6.9,0.9,12.6,4.4,16.6,9.8c5.7,7.6,8.6,16.3,9.1,26.1c0.4,6.4,3.4,12.8,5.8,19c1.1,2.8,2.1,5,0.6,8c-4.4,8.8-0.4,16.3,5,22.8
		c4.7,5.7,10.4,10.4,15.5,15.8c5.3,5.5,7.7,12.4,8.5,19.7c0.2,1.8-1.5,3.8-1.9,5.8c-0.4,1.9-1,4-0.5,5.8c1.3,4.5-0.8,12.2-4.6,15.1
		c-4,3.1-8.4,2.6-12.8,1.5c-3.5-0.8-4.2-0.5-3.8,2.9c0.5,5.9,1.3,11.8,2.4,17.6c0.7,3.6,2.6,6.9,3.2,10.5c0.5,3.6,0.2,7.4-0.1,11.1
		c-0.3,4.2-1,8.5-1.6,12.7c-0.9,0-1.8,0-2.7,0c0.6-4.2,1.3-8.4,1.6-12.6c0.3-3.5,0.6-7.2-0.1-10.6c-0.6-3.1-2.4-5.9-3.6-8.7
		c-5,0.5-7.1,4.1-9.5,8.1c-4.6,7.7-5.7,17.3-12.4,23.9C102.3,207.7,100.9,207.7,99.6,207.7z M35.1,47.7c-1.6,2.1-2.9,4-4.3,5.8
		c-4.1,4.9-4.5,10.4-2.5,16.2c0.5,1.4,1.1,3.2,0.6,4.4c-2.5,6.4-6.3,12-12.2,16c-2,1.3-4.2,2.8-5.3,4.7c-3,5.2-5.6,10.8-8.3,16.2
		c-0.4,0.8-0.6,1.8-0.7,2.8c-0.4,4.7,2.8,7.8,4.9,11.5c3.7,6.5,8.8,9.1,16.3,9.6c7,0.4,15.3-9.2,14.4-15.5c-0.3-2.2-0.4-4.8,0.5-6.8
		c1.5-3.7,2-7.4,1.9-11.3c-0.2-4.7-0.1-9.4-0.2-14.1c-0.1-6-0.2-6,5.5-7.7c0-4.3,0-8.7,0-13.2c0-0.6-0.3-1.3-0.7-1.8
		c-1.4-1.9-3.1-3.6-4.3-5.6C38.8,55.4,37.1,51.8,35.1,47.7z M113.1,48.7c-0.5,0.6-1,1-1.1,1.5c-0.7,4.5-3.6,8-5.5,11.9
		c-2.5,5.2-2.7,11.7-3.8,17.6c-0.1,0.4,0,1,0.2,1.2c3.7,3,4,7.6,5.3,11.7c2,6.7,3.9,13.4,3.4,20.6c-0.3,4.1-0.3,8.2,0,12.3
		c0.5,6.1,2.2,12.3,8.4,14.8c4.3,1.7,9.4,1.6,14.1,2.1c0.8,0.1,1.9-0.5,2.6-1.1c4.7-3.9,7.6-9.2,10.3-14.5c0.4-0.9,0.4-2.2,0.2-3.2
		c-0.5-2.2-0.9-4.6-1.8-6.6c-1.6-3.5-3-7.2-5.5-10c-4.7-5.3-10.5-9.7-15.2-15c-6.6-7.6-10.3-16.2-6.2-26.6c0.5-1.2,0.7-2.9,0.3-4.1
		C117.2,57.3,115.2,53.3,113.1,48.7z M47.2,56.3c-0.2,1-0.7,2.3-0.7,3.6c0.1,3.5,0.2,7,0.7,10.5c0.8,5.2,2.1,10.4,2.9,15.7
		c0.9,5.3,3.9,9.4,7.4,13c3.3,3.4,7.2,6.5,11.4,8.7c2.6,1.4,7.3,2.4,9.2,1c5.5-4,10.8-8.7,14.7-14.2c5.3-7.4,9.5-15.5,9.2-25.2
		c-0.1-3,0.4-6,0.7-9.7c-7.2,2.7-7.2-4.1-10.6-6.7c-4.7,3.1-9.1,6.5-14,9c-5,2.6-14.1,1.5-16-1.5c1.4-0.5,2.8-0.7,4-1.4
		c0.9-0.5,1.5-1.6,2.2-2.5c-1.2-0.1-2.5-0.5-3.7-0.3c-1.6,0.3-3.1,1.5-4.6,1.4C55.9,57.6,51.9,56.9,47.2,56.3z M96.3,95.7
		c-1.3,0.4-2.5,0.5-3.1,1.1c-3.2,3.2-6,6.7-9.3,9.7c-2.6,2.3-4.8,5.5-9.4,4.8c-8.1-1.2-13.4-6.4-18.7-11.9c-1.7-1.8-3.5-2.8-6.1-2.7
		c2.2,7.8,7.4,12.9,13.8,16.5c5.2,3,11.4,3.2,16.6,0.5C87.5,110.3,93.4,104.7,96.3,95.7z M25.5,136.7c-7.7-0.8-14.8-1.9-18.7-10
		c-0.6,2-1.1,3.1-1.4,4.4c-1.1,4.7,1.2,11.4,4.5,12.9c4.5,2.1,8.6-0.6,12.6-1.7C23.8,141.9,24.4,138.9,25.5,136.7z M127.1,143.3
		c1.7,3.1,2.4,6,4.1,6.9c2.1,1.1,5.2,1.1,7.6,0.5c5.2-1.3,7.2-7.1,5.3-14.5C139.7,141.2,135.3,146.1,127.1,143.3z M107.3,97.5
		c-1.1-5.8-0.6-11.7-5.8-15.7c-1.8,3.5-3.4,6.7-5.2,9.8c-1,1.7-0.8,2.6,1.1,3.1C100.5,95.5,103.6,96.5,107.3,97.5z M51.9,95.4
		c-1.5-4.3-2.8-8.2-4.2-12.2c-0.7-2.1-2.5-2.2-3.9-1.5c-0.9,0.4-1.8,2-1.9,3.2c-0.2,2.6,0.2,5.2,0.2,7.8c0,1.8,0.4,2.9,2.5,2.8
		C46.9,95.3,49.2,95.4,51.9,95.4z M29.6,147.9c0.8-4.4,1.5-8.5,2.2-12.6c-0.3-0.2-0.6-0.3-0.9-0.5c-1.8,2.7-3.6,5.4-5.3,7.8
		C27.1,144.5,28.1,146,29.6,147.9z M125.7,149.6c0.3-0.3,0.5-0.6,0.8-0.9c-2-2.4-2.4-6.7-7.8-5.2C121,145.5,123.3,147.6,125.7,149.6
		z"/>
	<path class="st0" d="M65.9,69.3c-2.3-0.8-4.9-0.8-7.3-1.3c-3.4-0.8-5.2,0.7-6.7,4.9c4.6,0.5,8.5,0.9,12.5,1.3
		c0.6,0,1.2-0.5,1.7-0.8C68.4,71.6,68.4,70.2,65.9,69.3z M57.7,71.2c-0.2,0.2-0.4,0.3-0.7,0.4c-0.2,0.1-0.4,0-0.5-0.1
		c-0.6,0.4-1.4,0.5-2.1,0.3c-0.2-0.1-0.3-0.3-0.2-0.6c0.4-0.7,0.8-1.3,1.5-1.6c0.1-0.2,0.4-0.3,0.5-0.2c0.1,0,0.3-0.1,0.5-0.1
		s0.4,0.2,0.4,0.4v0.1c0.2-0.2,0.6-0.2,0.7,0.1C57.8,70.4,58,70.9,57.7,71.2z M65,71.8c0,0.1-0.1,0.2-0.2,0.2
		c-0.5,0.2-0.9,0.5-1.4,0.5c-0.2,0-0.4-0.2-0.4-0.4v-1.8c0-0.3,0.3-0.5,0.6-0.3c0.2,0.1,0.4,0.2,0.6,0.4c0.2-0.1,0.4-0.1,0.5,0.1
		c0.2,0.2,0.4,0.5,0.5,0.8l0,0l0,0C65.3,71.4,65.2,71.7,65,71.8z"/>
	<path class="st0" d="M93.1,69.1c-3.7-3-11.1-2.5-12.9,2.7c4.1,2.5,8.4,1.9,12.6,0.7C94.6,72,94.8,70.5,93.1,69.1z M86,70.8
		c0,0.1-0.1,0.3-0.2,0.3s-0.2,0.1-0.3,0.1h0.1c0.5,0,0.5,0.8,0,0.7c-0.7,0-1.3-0.2-1.7-0.6c-0.5-0.1-1-0.2-1.4-0.4
		c-0.2-0.1-0.2-0.4-0.1-0.6c0.7-0.6,1.6-1.1,2.5-1.3c0.1,0,0.2,0,0.2,0c0.1,0,0.1,0,0.2,0C86.1,69,86,70.2,86,70.8z M92.5,70.6
		c-0.4,0.2-0.8,0.5-1.2,0.6c-0.2,0.2-0.4,0.3-0.7,0.4c-0.2,0.1-0.5-0.1-0.5-0.4c0-0.6,0-1.2,0.2-1.8c0,0,0-0.1,0.1-0.1
		c-0.1,0-0.1-0.1-0.2-0.1c-0.4-0.2,0-0.9,0.4-0.6c0.7,0.4,1.3,0.9,2,1.3C92.7,70.1,92.7,70.4,92.5,70.6z"/>
	<path class="st0" d="M83,95.5c-6.6,6.7-11,6.6-18.5,0C70.4,91.8,79.7,91.8,83,95.5z M68.4,96.8c3.8,2.9,9,2.8,11.1,0
		C75.8,96.8,72.3,96.8,68.4,96.8z M68.3,95.3c4.3,0,7.9,0,11.6,0C77.6,93.5,71.7,93.4,68.3,95.3z"/>
	<path class="st0" d="M81.1,81.4c-0.4,0.1-0.8,0.2-1.1,0.3c0.6,0.6,0.9,1.1,1.2,1.5c0.1,0.1,0.2,0.2,0.2,0.3
		c0.1,0.2,0.1,0.3,0.1,0.5c0.3,1.3-1.1,2-2.6,2.9c-0.2,0.1-0.3,0.2-0.4,0.2c-0.6,1-1.6,1.5-2.7,1.5c-1.2,0.1-2.3-0.4-3.2-1.1
		c-0.2-0.1-0.4-0.1-0.5-0.2c-4-1.9-4.3-1.1-3-4.7c-0.3-0.1-0.6-0.3-0.9-0.4c-0.4,1.2-1.3,2.5-1.1,3.6c0.1,0.4,0.3,0.7,0.5,1.1
		c1.7,0.8,3.4,1.5,5,2.6c0.9,0.2,1.9,0.4,2.8,0.6c0.7,0.1,1.5-0.1,2.2-0.4c0.6-0.3,1.3-0.6,1.9-1c0.5-0.4,1-0.9,1.5-1.4
		c0.5-0.4,1-0.8,1.5-1c0.5-0.6,0.9-1.4,0.9-2C83.2,83.3,81.9,82.3,81.1,81.4z"/>
	<path class="st0" d="M84.1,64.6c2-2.4,8.4-2.4,13.6,0C92.7,64.6,88.6,64.6,84.1,64.6z"/>
	<path class="st0" d="M62,66.4c-3.3-0.5-6.6-0.9-10.4-1.4C54.4,63.1,58.9,63.5,62,66.4z"/>
</g>
</svg>
