<?xml version="1.0" encoding="utf-8"?>
<!-- Generator: Adobe Illustrator 19.2.0, SVG Export Plug-In . SVG Version: 6.00 Build 0)  -->
<svg version="1.1" id="Layer_1" xmlns="http://www.w3.org/2000/svg" xmlns:xlink="http://www.w3.org/1999/xlink" x="0px" y="0px"
	 viewBox="0 0 200 122" style="enable-background:new 0 0 200 122;" xml:space="preserve">
<style type="text/css">
	.st0{fill:#E91E63;}
</style>
<g id="father-child">
	<path class="st0" d="M198.4,72.7c-1-2.3-2.1-4.6-3.3-6.9c-2.9-5.8-6.3-12.4-12.4-15.2c0-0.3-0.9-0.6-1.5-0.8
		c-0.2-0.1-0.4-0.3-0.7-0.3c-2.8-0.5-5.2-1.7-7.8-2.7c-1.9-0.7-3.9-1.2-5.9-1.7c-3-0.8-6.1-1.1-9.2-1.3c-1.7-0.1-3.3,0.5-4.9,0.7
		c-2.7,0.3-4.5,2-6.4,3.7c-1.1,1-2.2,2.1-3.3,3.2c-1.3,1.3-2.7,2.7-4,4c-0.6,0.6-1.3,1.3-2,1.8c-0.5,0.4-1.1,0.5-1.8,0
		c-1-0.6-2-1.1-3.1-1.6c-1.5-0.6-2.6-1.7-3.8-2.8c-0.8-0.8-1.6-1.7-2.4-2.5c-0.7-0.7-1.7-0.8-2.6-0.7c-0.8,0.1-1.7,0.2-2.5,0.2
		c-1.9,0.1-3.8,0.1-5.7,0.2c-3.1,0.1-6.2,0.3-9.3,0.5c-0.5,0-1.1,0.3-1.6,0.5c-1.1,0.4-2.2,0.9-3.3,1.4c-0.7,0.4-1.3,0.5-2.1,0.3
		c-0.6-0.2-1.2-0.2-1.8-0.3c-0.8-0.1-1.1-0.3-1.1-1.2c0-2.6-0.2-5.1-0.1-7.7c0-1.3,0.3-2.6,0.4-3.9c0.1-1.2,0.2-2.4-0.4-3.5
		c-0.5-0.9-1-1.6-2.2-1.5c0.1-2.1-0.5-4.2,0.5-6.3c0.3-0.5,0.3-1.2,0.3-1.8c0.1-2.4,0-4.8-0.6-7.2c-0.6-2.2-1.6-4.1-3.2-5.8
		c-0.4-0.4-0.8-0.9-1.2-1.4c-0.9-1.2-1.8-2.5-2.8-3.6c-1.1-1.1-2.3-2-3.7-2.8c-1.9-1.2-3.8-2.3-5.8-3.1c-1.7-0.7-3.7-1.1-5.5-1.5
		c-1.2-0.3-2.4-0.5-3.6-0.7C67.8,0.3,67.4,0,67,0h-5.6c-1.5,1-3.1,1.1-4.6,1.7c-3.3,1.2-5.9,3.1-8.2,5.9c-2.8,3.6-5,7.6-7.3,11.5
		c-1,1.7-1.2,3.5-0.7,5.5c0.6,2.5,0.9,5,1.3,7.5c0.3,2.2,0.5,4.4,0.8,6.6c0.1,0.6,0.4,1.1,0.6,1.7c-2,0.2-2.2,1.6-2.4,3.1
		c-0.1,0.7-0.1,1.4-0.2,2.1c-0.1,1.6,0.2,3.1,0.7,4.6c0.7,2,1.3,3.9,2.1,5.8c0.5,1.2,1.2,2.3,1.7,3.5c-2.2,0.9-4.3,1.9-6.4,2.7
		c-0.8,0.3-1.7,0.2-2.5,0.5c-1.1,0.4-2.1,1-3.1,1.5c-1.3,0.6-2.6,1.3-3.9,1.9c-1.2,0.5-2.4,0.9-3.5,1.4c-0.5,0.2-1.1,0.5-1.6,0.8
		c-1.7,1-3.5,2-5.2,3c-1.2,0.7-2.3,1.5-3.4,2.3c-0.5,0.4-1,0.8-1.6,1.1c-1.9,1.1-3.6,2.4-5.1,4c-1.8,1.9-2.8,4.1-3.1,6.8
		c-0.1,1.6-1.1,3.2-1.7,4.7c-0.3,0.7-0.8,1.4-1.1,2.2c-1,2.1-2.1,4.2-3.1,6.3c0,7.6,0,15.2,0,22.8c0,0.3-0.1,0.7,0.4,0.5
		c0.3-0.3,0.5-0.6,0.8-0.9c0.4-0.3,0.8-0.6,1.3-0.8c0.5-0.2,1.1-0.3,1.7-0.4c1.2-0.4,2.5-0.7,3.7-1.2c1.2-0.5,2.3-0.5,3.5-0.5
		c2.2-0.1,4.3,0,6.5-0.2c1.3-0.1,2.5-0.4,3.9-0.7c0,0,0.1,0,0.1,0c0.5,1.7,1.5,3,2.9,4.1c0.2,0.2,0.3,0.6,0.5,0.6h1.5
		c-0.7-1-1.4-1.8-2.2-2.6c-0.9-0.8-1.3-2-1.7-3.1c-0.1-0.4,0.3-0.9,0.3-1.4c0.1-0.8,0.6-1.4,1.2-1.8c0.4-0.3,0.9-0.4,1.4-0.4
		c0.7,0,0.9-0.2,0.7-0.9c-0.2-0.7-0.5-1.5-0.6-2.3c0-0.4,0.2-1,0.5-1.3c1-1.1,2.2-1.2,3.4-0.3c0.2,0.1,0.4,0.2,0.6,0.3
		c0-0.2,0-0.5,0-0.7c0-0.7-0.1-1.4-0.1-2.1c0-0.5,1.4-1.2,2.1-1.1c1,0.1,2.1,0.1,2.9,0.8c0.1,0.1,0.4,0.1,0.5,0
		c0.1-0.1,0.2-0.5,0.1-0.6c-0.4-0.5-0.1-0.9,0.1-1.4c0.4-1.5,1.5-2.2,2.9-2.5c0.3-0.1,0.8,0.2,1.1,0.5c0.4,0.4,0.8,0.4,1.2,0.1
		c0.6-0.4,1.2-0.9,1.8-1.3c0.8-0.6,1.6-1.3,2.3-1.9c0.4-0.3,0.6-0.1,0.7,0.2c0.2,0.6,0.4,1.1,0.7,1.7c0.2,0.5,0.6,0.9,0.9,1.3
		c0.7,0.7,1.4,1.5,2.1,2.1c1.1,1,1.2,2.3,1.4,3.5c0.2,1.7,0.5,3.5,0.5,5.2c0,1.1-0.6,2.1-1,3.3c-0.8-0.7-1.5-1.3-2.3-1.9
		c-0.3-0.2-0.6-0.4-0.9-0.5c-0.2-0.1-0.4,0-0.6,0.1c0.1,0.2,0.1,0.5,0.3,0.6c0.7,0.7,1.3,1.3,2,1.9c0.5,0.5,0.7,1.1,0.6,1.7
		c-0.3,1.4-0.2,2.9,0,4.3c0,0.1,0,0.3,0,0.3h1.3c-0.1-1-0.2-1.4-0.3-2c-0.1-1.2,0.2-2.3,0.7-3.4c0.5-1.2,1.1-2.3,1.3-3.6
		c0.2-1.1,0.1-2.3,0.1-3.5c-0.1-1.1-0.3-2.1-0.5-3.2c1.6-0.5,3.2-0.6,4.9-0.4c1,0.1,2-0.1,3-0.1c1,0,1.9,0.2,2.9,0.2
		c1.7,0.1,3.4,0.2,5.1,0.4c0.4,0,0.8,0.3,1.1,0.6c1.2,1.3,2.4,2.6,3.6,3.8c-1,1-1.9,2-2.7,3c-0.6,0.7-1,1.6-1,2.6c0,0.2,0,0.4,0,0.6
		c-0.2,1.8,0.2,2.9,1.2,4.9H72c-1.3-2-1.6-3.7-1.5-5.7c0.1-0.6,0.3-1.2,0.7-1.7c0.5-0.7,1.1-1.4,1.7-2c0.2-0.2,0.6-0.3,1-0.4
		c0.5-0.1,1.1-0.1,1.4-0.3c1.5-1.4,3.4-1.9,5.1-3c1.1-0.7,2.2-1.6,3.4-2.1c1.1-0.5,2.3-0.8,3.4-1c1.7-0.3,3.4-0.5,5-1.2
		c0.9-0.4,2-0.5,3-0.8c0.6-0.1,1.2-0.5,1.7-0.4c1.4,0.2,2.7,0.6,4,1c2,0.5,4,1.1,6.1,1.7c0.7,0.2,1.4,0.5,2.1,0.7
		c1.3,0.5,2.5,1,3.8,1.5c2.5,1,4.9,2,7.4,3c0.7,0.3,1.2,0.8,1.5,1.5c0.2,0.6,0.6,1.1,1,1.6c0.9,1.4,2.5,1.5,3.9,1.9
		c2.3,0.7,4.7,0.4,7,0.6c1.4,0.1,2.8,0,4.1,0.6c0.7,0.3,1.6,0.1,2.4,0.2c0.5,0.1,1,0.3,1.5,0.5c0.6,0.2,1.1,0.5,1.7,0.7
		c0.4,0.2,0.8,0.4,1.1,0.7c0.7,0.7,1.3,1.3,2,2.3h1.5c0.1-1,0.1-0.6,0.2-0.8c0.5-0.7,1-1.4,1.6-2.1c0.3-0.4,0.6-0.7,0.8-1.1
		c0.9-1.7,2.3-3.1,3.6-4.6c0.6-0.6,1-1.3,1.6-2c1.6-1.8,3.3-3.5,5-5.4c3.3-3.7,7.5-6.1,11.8-8.5c0.8-0.4,1.5-0.9,2.3-1.3
		c0.4-0.2,0.9-0.4,1.4-0.7c0.4-0.2,0.7-0.4,1-0.7c1.2-1.1,2.4-2.1,3.7-3c4-1,7.8-4.6,11.1-6.8c2.5-1.7,7.8-3.8,8.3-7.2
		C200.2,76,199.1,74.2,198.4,72.7z M99,81c0-0.4,0-0.7,0-1c0-1.8,0-3.7-0.1-5.5c-0.1-1.2-0.3-2.4-0.5-3.6c0-0.3-0.1-0.6-0.2-0.9
		c-0.1-3.5-0.2-6.9-0.3-10.4c0-0.3,0-0.6,0.1-0.8c0.1-0.2,0.4-0.4,0.6-0.6c0.1,0.2,0.3,0.5,0.3,0.7c0.1,3.7-0.2,7.5,0.3,11.2
		c0.6,4.2,0.3,8.3,0.5,12.4c0,0.2,0,0.4,0,0.5c-0.1,0.2-0.3,0.6-0.5,0.6c-0.1,0.1-0.5-0.2-0.6-0.4c-0.2-0.3-0.4-0.7-0.5-1.1
		c-0.4-1.7-1.7-2.6-2.8-3.8c-0.6-0.6-1.4-0.8-2.3-0.8c-0.7,0-0.8-0.2-0.6-0.9C95.8,76.5,97.2,78.8,99,81z M93.3,37.2
		c0.6-0.3,0.6-0.9,0.5-1.5c0.5-0.2,0.7-0.1,1,0.3c0.6,1,0.7,2.1,0.5,3.1c-0.7,3.4-0.5,6.8-0.5,10.2c0,1.1,0.1,2.2,0.2,3.2
		c-0.7-2.5-1.2-5-1-7.6c0.1-1.1-0.3-2.1-0.3-3.2c-0.1-1.4-0.2-2.8-0.3-4.2C93.2,37.4,93.2,37.2,93.3,37.2z M48.8,22.5
		c0.3-1.3,1-2.6,1.9-3.5c1.3-1.4,3.1-2.3,5-2.6c0.9-0.2,1.8-0.3,2.7-0.4c1.7-0.1,3.3,0.5,4.8,1.4c1.8,1.1,3.8,1.7,5.9,1.3
		c0.9-0.2,1.7-0.7,2.5-1.2c1.4-0.8,2.7-1.6,4-2.4c0.2-0.1,0.4-0.2,0.6-0.2c1,0,1.8-0.5,2.5-1.2c0.6-0.7,2.2-0.7,3-0.2
		c0.6,0.4,1.2,0.7,1.8,1.1c0.9,0.7,2,1.3,2.6,2.2c1.2,1.6,2.3,3.3,3.2,5c1,1.9,1.6,3.9,1.7,6.1c0,1.6,0.3,3.2,0.5,4.8
		c0.2,1.6,0.3,3.1,0.5,4.7c0.2,2.1,0.5,4.1,0.8,6.2c0.1,0.9,0.1,1.8,0.1,2.7c-0.1,0-0.2,0-0.2,0c0.3,1.6,0.5,3.1,0.8,4.7
		c0.3,1.8,0.1,3.5-0.2,5.3c-0.3,2.6-0.5,5.3-0.9,7.9c-0.2,1.4-0.6,2.8-1,4.1c-0.3,1.1-0.7,2.2-1.1,3.2c-0.4,0.8-0.9,1.7-1.5,2.4
		c-0.8,1-1.8,2-2.6,3c-0.3,0.3-0.4,0.6-0.7,1c-0.9,1.2-2.2,1.4-3.6,1.4c-0.7,0-1.4,0.1-2.1,0.2c-1.8,0.2-3.6,0.5-5.3,0.6
		c-1,0-2-0.3-3-0.6c-0.8-0.3-1.5-0.2-2.1,0.2c-0.3,0.2-0.6,0.1-0.9,0c-1.7-0.9-3.4-1.7-5-2.6c-2.5-1.4-4.8-3.1-6.7-5.4
		c-1.3-1.5-1.6-3.5-2.4-5.2c-0.1-0.1-0.1-0.3-0.2-0.4c-0.9-1.3-1.3-2.7-1.4-4.2c-0.2-3.3-1.3-6.4-1.8-9.6c-0.1-1-0.5-1.8-0.8-2.6
		c-0.1-0.4,0-0.9-0.1-1.3c-0.2-1.8-0.5-3.5-0.6-5.3c-0.1-1.9-0.2-3.9-0.1-5.8c0.1-0.9,0.7-1.9,1.4-2.5c1.4-1.5,0.6-3.4-0.7-4.4
		c-1-0.8-1.4-2-1.5-3C48.4,25.7,48.5,24,48.8,22.5z M66.3,88c-1.6-1.9-3.7-1.1-4.9,0.2c-0.5,0.6-0.8,0.6-1.4,0.1
		c-1.2-1.1-3-1.1-4.4-0.1c0,0-0.1-0.1-0.2-0.1c-0.7-2.6-1.8-5.1-2.9-7.6c-0.7-1.4-0.9-3-1.3-4.6c-0.8-3.1-0.6-6.3-0.3-9.4
		c0.1-1.4,0-2.8,0-4.4c0.3,0.1,0.6,0.2,0.6,0.2c0.2,2.2,1.6,4,2.2,6c0.5,1.7,1.2,3.2,2.4,4.5c2.2,2.4,4.7,4.4,7.7,5.7
		c1.2,0.5,2.3,1.2,3.4,1.9c0.7,0.4,0.7,1.1,0.8,1.8c0,0.3,0.2,0.6,0.3,0.8c0.4,0.7,0.9,1.4,1.4,2c0.8,0.9,1.9,1.2,3.1,1.2
		c0.5,0,0.9,0.2,1.4,0.3c0,0.1,0,0.2,0,0.3c-0.9,0.2-1.7,0.4-2.6,0.7c-0.9,0.3-1.8,0.7-2.8,1C68,88.8,67,88.8,66.3,88z M67.2,89.8
		c-0.1,0.8-0.1,1.6-0.1,2.4c0,0.4-0.1,0.6-0.5,0.7c-1.2,0.5-2.3,1.2-3.3,2.1c-1,0.9-2.2,1.7-3.4,2.5c-0.1,0.1-0.3,0.1-0.5,0.2
		c-0.8,0.1-1,0-0.9-0.8c0.1-0.5,0.2-1,0.4-1.5c0.6-1.6,1.3-3.3,1.9-4.9c0.1-0.2,0.1-0.3,0.2-0.4c0.6-0.5,1.2-1,1.8-1.5
		c1-0.8,1.8-0.7,2.7,0.1C66,89,66.6,89.4,67.2,89.8z M43.1,51.6c-0.3-1.1-0.8-2.2-1-3.3c-0.2-1-0.2-2.1-0.2-3.1
		c0.1-1.1,0.9-1.5,1.6-0.7c1.1,1.2,2.6,2.1,2.9,3.8c0.1,0.3,0.3,0.6,0.6,0.8c0.2,0.1,0.5,0.1,0.7,0.1c0-0.3,0.1-0.5,0.1-0.7
		c-0.7-1.8-2-3.2-3.4-4.5c-0.7-0.7-1.5-1-2.4-0.9c0-0.3,0-0.6,0.1-0.8c0.2-0.3,0.4-0.8,0.7-0.8c0.3-0.1,0.9,0.1,1,0.3
		c0.5,0.8,1.1,1.5,1.9,2.1c1.6,1.2,2.3,3,2.7,4.9c0.1,0.5,0.2,1,0.5,1.4c1,1.8,1.2,3.9,1.6,5.7c-0.7,0.4-1.3,0.7-2,1
		c-0.2,0.1-0.5,0.1-0.6,0c-0.6-0.7-1.2-1.4-1.8-2.2c-0.1-0.2-0.2-0.4-0.3-0.6c-0.6,0.2-0.7,0.6-0.5,1c0.6,1.1,1.3,2.2,2.4,2.8
		c0.7,0.4,1.1,0.1,1.7-0.3c0.2-0.2,0.6-0.4,0.8-0.3c0.2,0.1,0.3,0.5,0.4,0.8c0.1,0.8,0.2,1.5,0.3,2.3c0.1,0.5-0.2,0.7-0.6,0.7
		c-0.8,0-1.5-0.1-2.3-0.2c-0.2,0-0.5-0.2-0.6-0.4C45.4,57.8,43.9,54.9,43.1,51.6z M45.8,89.2c-0.3-1.2-0.5-2.4-0.7-3.6
		c-0.4-2.2-1-4.5-1.1-6.7c-0.1-2.6-0.1-5.3,0.6-8c0.3-1,0.4-2.1,0.6-3.2c0.1-0.3,0.2-0.5,0.3-0.9c0.8,0.5,0.6,1.1,0.5,1.7
		c-0.3,2-0.7,3.9-1,5.9c-0.3,2.3-0.2,4.6,0.3,6.9c0.5,2.2,0.9,4.4,1.4,6.6c0.1,0.3,0.1,0.5,0.2,1c0.3-0.3,0.5-0.5,0.7-0.8
		c0.7-1,1.3-2.1,2-3.1c0.4-0.5,0.9-0.8,1.5-1.2c0.1-0.1,0.5,0.1,0.7,0.1c-0.1,0.2-0.1,0.6-0.3,0.6c-0.9,0.4-1.4,1.2-1.9,2.1
		c-0.4,0.7-0.9,1.5-1.4,2.1c-0.5,0.5-1.1,0.8-1.7,1.1C46.4,89.8,45.9,89.4,45.8,89.2z M48.3,100.2c-0.1,0-0.1,0-0.2,0.1
		c-0.3-0.6-0.5-1.1-0.8-1.7c-0.7-1.6-1.3-3.1-1.1-4.9c0.2-1.7,1-2.8,2.6-3.1c0.4-0.1,0.8,0,0.7,0.6c0,0.3-0.1,0.7-0.3,1
		c-0.7,1.3-0.9,2.8-0.9,4.2C48.3,97.6,48.3,98.9,48.3,100.2z M49.2,101c0-1,0-2,0-3c0.1-1.5,0.1-2.9,0.3-4.4c0.2-1,0.7-2,1-3
		c0.1-0.6,0.1-1.1,0.7-1.5c0.7-0.4,1.5-0.5,2.2,0c0.7,0.4,0.6,1.1,0.5,1.7c-0.2,0.9-0.6,1.8-1,2.6c-0.5,0.9-0.8,1.8-0.8,2.8
		c0,1.3-0.1,2.6-0.1,3.9c-0.1,1.2-1,1.7-2.1,1.1C49.8,101.1,49.6,101.1,49.2,101z M55,104.4c-0.2,0.2-0.4,0.2-0.7,0.3
		c-0.7,0.2-1.4,0.3-2,0.4c-0.6-0.9-1.1-1.7-1.6-2.6c0.5-0.2,1.1-0.5,1.7-0.7c0.1,0,0.3,0,0.4,0.1c1,0.6,2,0.5,3.1,0.3
		c0.1,0.2,0.3,0.5,0.4,0.7C55.9,103.5,55.5,104,55,104.4z M54.6,101.4c-0.2,0-0.4,0-0.7,0c-0.9-0.1-1.1-0.6-1-1.4
		c0.1-1,0.1-2.1,0.1-3.1c0-1.2,0.3-2.3,0.8-3.4c0.5-1,0.6-2.2,1-3.3c0.1-0.2,0.1-0.4,0.3-0.5c0.4-0.4,0.9-0.7,1.4-1
		c0.9-0.6,2.9-0.2,3.4,0.8c0.1,0.2,0.1,0.6,0,0.8c-0.4,1.2-0.8,2.4-1.4,3.5c-1,1.8-1.2,3.9-1.8,5.8
		C56.2,101.1,55.9,101.4,54.6,101.4z M67,105c-1.1,0-2.2-0.2-3.4-0.3c0-0.3,0-0.5,0-0.7c1.3-0.6,2.5-1.2,3.8-1.8
		c0.5-0.3,0.9-0.8,1.3-1.1c1-0.8,2.1-1.6,3.1-2.3c1.1-0.8,3-0.2,3.6,1c-2.5,1.4-3.2,4.3-5,6.4C69.5,105.2,68.3,105,67,105z
		 M74.1,105.4c-0.5,0-0.9-0.2-1.4-0.3c0.2-0.5,0.3-1,0.6-1.4c0.2-0.5,0.5-1,0.9-1.4c0.3-0.3,0.6-0.6,1-0.7c0.2,0,0.6,0.4,0.7,0.7
		c0.2,0.3,0.2,0.7,0.3,1.1C76.1,104.5,75.3,105.4,74.1,105.4z M110.1,105.9c-2-0.9-4-1.4-6.1-1.8c-1.9-0.4-3.7-1.1-5.6-1.7
		c-0.3-0.1-0.7-0.2-1.1-0.2c-2,0.2-3.9,0.3-5.8,1.2c-1.4,0.7-2.9,0.8-4.4,1c-1.3,0.2-2.6,0.7-4,1c-0.3,0.1-0.5,0.2-1,0.4
		c-0.2-1.1-0.4-2-0.5-3.1c0.9,0.1,1.5,0.1,2.2,0.1c0.2,0,0.4-0.2,0.6-0.4c-0.2-0.2-0.4-0.5-0.5-0.5c-1.6,0.2-2.7-0.9-4.1-1.2
		c-1-0.2-2-0.5-3-0.8c-0.7-2.5-3.3-3.4-5.6-1.8c-1.3,0.9-2.6,2-4,2.9c-2.6,1.7-5.5,2.4-8.6,2c-1.2-0.2-1.6-1-1.2-2.2
		c0.3-0.6,0.4-1.3,0.6-1.9c0.1-0.3,0.3-0.6,0.7-0.5c1,0.2,1.8-0.3,2.6-0.9c1.2-0.9,2.5-1.6,3.8-2.3c0.2-0.1,0.6-0.1,0.9-0.1
		c2.1,0,4.2,0,6.3,0c1.3,0,2.6-0.2,3.9-0.3c1.1-0.1,2.2,0.3,3.2,0.7c0.4,0.2,0.9,0.3,1.3,0.5c0.9,0.3,1.7,0.7,2.6,1
		c0.3,0.1,0.7,0,1-0.1c-0.1-0.3-0.2-0.6-0.5-0.8c-0.5-0.3-1.1-0.5-1.7-0.7c-1-0.4-2-0.7-3-1.1c-1.9-0.8-3.8-0.5-5.8-0.4
		c-1.8,0.1-3.7,0.2-5.5,0.3c0.2-0.7,0.3-1.4,0.4-2c1.9-0.3,3.9-0.7,6-0.9c1.7-0.1,3.4,0,5.1,0c0.7,0,1.5-0.1,2.2-0.2
		c0.3,0,0.5-0.3,0.7-0.5c-0.2-0.1-0.4-0.4-0.7-0.4c-0.5,0-0.9,0-1.4,0.1c-1.4,0-2.8,0.1-4.1,0.1c-2.3-0.1-4.5,0.4-6.7,0.9
		c-0.3,0.1-0.7,0-1,0.1c0.1-0.6,0.2-1.1,0.4-1.8c1.8-0.6,3.7-1.4,5.6-1.8c1-0.2,1.9-0.5,2.7-1c1.5-0.9,3.1-1.3,4.8-1.2
		c0.2,0,0.4,0.1,0.5,0c0.3-0.1,0.5-0.3,0.7-0.5c-0.2-0.2-0.4-0.4-0.7-0.4c-1.8,0-3.7-0.1-5.4,1c-0.7,0.4-1.4,0.4-2.1,0.2
		c-0.8-0.3-1.7-0.5-2.6-0.6c-1.1-0.1-1.9-0.6-2.4-1.5c-0.2-0.3-0.4-0.6-0.6-0.9c-0.4-0.5-0.5-1.5-0.3-1.9c0.3-0.5,1.4-0.8,1.9-0.7
		c1.2,0.3,2.5,0.6,3.7,0.8c0.5,0.1,1,0,1.5-0.1c1.5-0.2,3-0.5,4.4-0.6c1.8-0.1,3.5,0,5.3,0.1c1,0,2,0.3,3,0.3
		c2.3-0.1,4.1,0.8,5.8,2.2c1.8,1.5,3.5,3.1,5.6,4c2.1,0.9,3.9,2.4,6.2,2.9c0.7,0.2,1.4,0.2,2.1,0c2.3-0.6,4.7-1,7.1-1.1
		c1.1,0,2.2-0.3,3.3-0.5c0.2,0,0.4,0,0.7,0c0,0.2,0.1,0.3,0,0.3c-0.1,1.2,0.1,2.2,0.8,3.2c0.2,0.3,0.2,0.6-0.2,0.8
		c-1.7,1-2,2.5-0.9,4.1c0.6,0.9,0.5,1.2-0.4,1.8c-1.3,0.8-1.7,2.2-1.8,3.6c-0.1,1,0,2,0,3c-1.4,0.2-2.7,0.3-4,0.5
		c-0.8,0.1-1.6,0.3-2.4,0.4C110.6,106.1,110.3,106,110.1,105.9z M147,121c-0.8-0.8-1.6-1.5-2.3-2.1c-1.2-1.1-2.6-1.9-4.3-2
		c-1.8-0.2-3.6-0.4-5.4-0.6c-1.3-0.1-2.5-0.2-3.8-0.4c-1.3-0.2-2.6-0.5-3.9-0.6c-0.8-0.1-1.7-0.1-2.5-0.5c-0.7-0.3-1.3-0.7-1.7-1.4
		c-0.8-1.5-2-2.5-3.6-3.2c-1.6-0.7-3.2-1.6-4.8-2.3c-0.7-0.3-1.4-0.6-2.1-0.9c1.6-0.2,3.2-0.5,4.9-0.7c0.2,0,0.4,0.1,0.5,0.2
		c1.1,1.3,2.1,2.6,3.2,3.9c0.8,0.9,1.5,1.8,2.5,2.4c0.6,0.4,1.6,0.5,2.4,0.6c1.3,0.3,2.7,0.6,4,0.9c1.9,0.5,3.8,1,5.7,1.4
		c2.5,0.5,5.1,0.5,7.6,0.7c1.9,0.1,3.9,0.5,5.6,1.6c0.1,0,0.1,0.1,0.1,0.2C148.4,119,147.7,119.9,147,121z M168.1,98.8
		c-2.7,1.6-5.2,3.4-7.4,5.7c-0.6,0.6-1.5,0.6-2,0c-0.1-0.1-0.2-0.2-0.3-0.4c-0.2-0.5-0.8-0.9-0.3-1.5c1-1.2,1.3-1.2,2.3-0.7
		c0.2,0.1,0.7,0.1,0.8-0.1c0.1-0.2,0.2-0.6,0-0.8c-0.4-0.9-1.1-1.2-2-1c-1,0.2-2,0.3-2.8,1c-0.8,0.8-0.9,1.7-0.4,2.7
		c0.3,0.7,0.6,1.3,1,2c0.3,0.5,0.6,0.9,0.9,1.3c0.1-0.1,0.2-0.2,0.3-0.2c-0.2,0.2-0.4,0.5-0.6,0.7c-1.5,1.8-3,3.7-4.5,5.5
		c-0.8,0.9-1.6,1.8-2.4,2.7c-0.3,0.4-0.5,0.8-0.8,1.3c-0.5-0.2-1-0.3-1.5-0.6c-1.8-0.9-3.7-1-5.6-1.1c-2.9-0.2-5.9-0.3-8.8-0.8
		c-2.1-0.3-4.2-1.2-6.3-1.7c-0.9-0.2-1.8-0.3-2.7-0.5c-0.4-0.1-0.8-0.1-1-0.3c-0.7-0.6-1.4-1.3-2-2c-0.4-0.4-0.8-0.9-1.1-1.4
		c-0.8-1-1.6-2-2.3-3.1c-0.3-0.4-0.4-0.9-0.4-1.4c0-1.3-0.2-2.6,0.5-3.8c0.2-0.4,0.6-0.8,1-1.1c1.1-0.7,1.4-1.3,0.8-2.5
		c-0.4-0.7-0.7-1.3-0.7-2.2c0-0.7,0.4-1,0.9-1.1c0.3-0.1,0.7,0.2,1,0.4c0.6,0.5,1,1,1.6,1.5c0.1,0.1,0.4,0.1,0.6,0.2
		c0-0.3,0.1-0.6-0.1-0.7c-0.6-0.8-1.3-1.5-1.8-2.3c-0.6-0.8-1.1-1.7-1.4-2.6c-0.4-1,0.5-1.6,0.9-2.3c0.2-0.4,0.6-0.8,0.9-1.1
		c1.6,0.9,2.1,0.5,3-0.3c0.6-0.5,0.5-1.6-0.1-2.1c-0.1-0.1-0.4,0.1-0.6,0.2c-0.1,0,0,0.2,0,0.4c0,0.6,0,1.2-0.6,1.5
		c-0.6,0.2-1.5-0.3-1.9-0.9c-0.3-0.5-0.5-0.9-0.9-1.4c-0.8-1.1-0.6-2.3-0.3-3.4c0.1-0.7,0.8-1.1,1.5-1.4c1.4-0.6,2.9-1,4.2-1.7
		c0.9-0.4,1.6-1.2,2.5-1.7c1.9-1.4,2.5-3.4,2.8-5.6c0.2-1.6,0.5-3.1,0.8-4.7c0-0.2,0.2-0.4,0.3-0.6c1.1-1.7,2.1-3.5,3.2-5.2
		c0.3-0.5,0.7-1,1.2-1.3c1.3-1,2.6-2,3.8-3.1c1-0.8,2.1-1.3,3.5-1.3c1.5,0,3.1-0.1,4.4,0.9c0.3,0.3,0.6,0.6,0.8,0.9
		c0.6,1.3,1.2,2.6,1.8,3.9c0.2,0.5,0.3,1.1,0.4,1.7c0.1,0.7,0.2,1.5,0.1,2.2c-0.1,0.9-0.5,1.7-0.8,2.6c-0.5,1.4-1,2.7-1.5,4.1
		c-0.2,0.5-0.6,1-0.8,1.5c-0.3,0.9-0.8,1.9-0.8,2.9c0,2.5,0.1,5,0.3,7.5c0.1,1,0.6,2,1,3c0.1,0.2,0.6,0.3,0.8,0.4
		c0.1-0.3,0.3-0.6,0.2-0.8c-0.5-2.2-0.7-4.4-0.3-6.7c0.6-3.1,1.5-6,2.8-8.8c0.2-0.5,0.6-1,1-1.6c0.6,1.7,1.4,3.1,1.3,4.6
		c-0.1,1-0.6,1.9-0.8,2.8c-0.5,1.6-1.1,3.3-1.4,5c-0.4,2-0.5,4-0.2,6c0.2,1.2,0.3,2.4,0.6,3.5c0.4,1.6,1.1,3.1,1.7,4.7
		c0.1,0.2,0.4,0.4,0.6,0.3c0.2,0,0.5-0.3,0.5-0.5c0.1-0.4,0-0.8-0.1-1.2c-0.2-1.1-0.5-2.1-0.7-3.2c-0.1-0.7-0.2-1.5-0.3-2.3
		c0-1.1-0.1-2.3,0-3.4c0-0.6,0.2-1.3,0.4-1.9c0.1,0,0.2,0,0.2,0c0.3,0.8,0.6,1.6,0.9,2.4c0.6,1.8,1,3.7,1.9,5.3
		c0.7,1.3,0.7,2.4,0.3,3.7c-0.2,0.5-0.3,0.9-0.5,1.4c-0.3,0.6-0.5,1.2-0.2,1.8c0.1,0.2,0.2,0.4,0.3,0.4c0.2,0,0.5-0.1,0.6-0.3
		c0.3-0.5,0.5-1.1,0.8-1.7c0.3-0.5,0.4-1.1,1.1-1.2c0.1,0,0.2-0.4,0.3-0.7c0.2-0.5,0.3-0.7,1-0.6c1.6,0.2,3.1,0.4,4.7,0.3
		c2-0.1,3.9,1.1,4.4,3c0.1,0.3,0.3,0.5,0.5,0.8C170.8,97.2,169.5,98.1,168.1,98.8z"/>
	<path class="st0" d="M75.7,71.3c-2-0.2-4.1-0.5-6-1.8c-0.5-0.4-1.1-0.7-1.6-1c-0.2-0.2-0.3-0.5-0.5-0.7c0.2-0.1,0.4-0.2,0.7-0.3
		c1-0.3,2.1-0.6,3-1c1.6-0.7,3.2-0.9,4.9-0.4c0.8,0.2,1.6,0.1,2.3-0.4c1-0.7,2-0.7,3.2-0.1c0.7,0.4,1.7,0.4,2.5,0.6
		c0.4,0.1,0.7,0.4,1,0.7c0.1,0.1-0.1,0.6-0.3,0.7c-0.8,0.6-1.8,1-2.6,1.6C80.4,70.6,78.3,71.3,75.7,71.3z M70.7,69.1
		c2.2,2.1,9.6,1.4,11.4-1.3C78.4,69,74.5,68.6,70.7,69.1z M82.1,66.8c-0.2-0.1-0.5-0.1-0.7-0.3c-0.9-0.8-1.8-0.6-2.7,0
		c-0.7,0.5-1.5,0.6-2.4,0.4c-0.6-0.1-1.2-0.3-1.9-0.4c-1.6-0.1-3,0.8-4.5,1.5C74.1,67.9,78.2,68.1,82.1,66.8z"/>
	<path class="st0" d="M57.9,47.6c-0.5,0.4-0.9,0.5-1.2,0.1c-0.3-0.4-0.3-1,0.3-1.4c1-0.6,2-1.1,3-1.5c1.8-0.8,3.7-1.3,5.6-1.1
		c0.9,0.1,1.8,0.3,2.4,1.1c0.4,0.5,0.3,1.1-0.4,1.2c-0.7,0.1-1.2,0.6-1.8,1c-0.6,0.5-1.5,0.9-2.3,1c-1.1,0.1-2.3,0.3-3.5-0.1
		C59.5,47.8,58.7,47.7,57.9,47.6z M62,46.9c0-0.5,0-0.9,0-1.4c-0.7,0.3-1.5,0.6-2.2,0.9c0,0.1,0,0.2,0.1,0.3
		C60.6,46.7,61.3,46.8,62,46.9z M66,45.1c-0.7,0-1.3,0-1.8,0c0.2,0.3,0.3,0.6,0.4,0.9C65,45.8,65.5,45.5,66,45.1z"/>
	<path class="st0" d="M82.8,46.1c-0.5-0.2-1-0.3-1.3-0.6c-0.6-0.7-1.3-0.5-2.1-0.4c-0.3,0-0.6-0.2-0.9-0.3c0.1-0.3,0.1-0.7,0.3-0.9
		c1.2-1.4,2.9-2,4.6-2.4c1.4-0.3,2.9-0.4,4.3,0.3c0.3,0.2,0.7,0.1,1,0.3c0.3,0.1,0.6,0.4,0.7,0.6c0,0.2-0.3,0.6-0.5,0.8
		c-0.3,0.2-0.7,0.3-1.1,0.5c-0.2,0.1-0.2,0.4-0.3,0.6c-0.8,0.3-1.7,0.7-2.6,1.1c0,0.1,0.1,0.3,0.1,0.5c0,0-0.1,0-0.1,0
		c-0.1-0.2-0.2-0.3-0.3-0.5c-0.5,0-0.9,0.5-1.5,0.1C83.2,45.8,82.8,46.1,82.8,46.1z M83.2,44.4c-0.1-0.6-0.2-1-0.3-1.4
		c-0.5,0.2-1,0.4-1.6,0.6c0,0.1,0,0.1,0,0.2C82,44,82.6,44.2,83.2,44.4z M85.7,43.8c0.5-0.3,0.9-0.6,1.4-1c-0.5-0.1-0.9-0.2-1.4-0.3
		C85.7,43,85.7,43.3,85.7,43.8z"/>
	<path class="st0" d="M80.2,41c-0.5-0.5-0.2-1,0-1.4c1.1-1.4,2.3-2.5,4.1-2.9c1-0.2,2-0.2,3.1-0.2c1.3-0.1,2.3,0.6,3.1,1.6
		c0.1,0.2,0.2,0.7,0.1,0.8c-0.2,0.2-0.6,0.3-0.8,0.1c-0.8-0.6-1.6-0.4-2.4-0.2c-1.8,0.5-3.6,0.9-5.3,1.4
		C81.3,40.4,80.8,40.7,80.2,41z"/>
	<path class="st0" d="M66.8,41c-2.1,0.2-4.2,0.3-6.4,0.5c-0.7,0.1-1.3,0.2-2,0.4c-0.2,0-0.3,0.3-0.5,0.4c-0.2,0.1-0.5,0.2-0.8,0.3
		c-0.1-0.3-0.3-0.7-0.2-0.8c0.5-0.5,1-1,1.6-1.3c0.5-0.3,1.1-0.5,1.7-0.7c1.8-0.8,3.7-1.4,5.7-1.1c0.7,0.1,1.4,1,1.9,1.6
		C68.2,40.7,67.6,41.2,66.8,41z"/>
	<path class="st0" d="M71.2,55.4c-0.8,1-0.8,2.4-0.2,3.5c0.3,0.5,0.6,0.5,1.1,0.4c2.1-0.8,2.1-0.8,3.5,0.8c0.4,0.4,1.3,0.5,2,0.1
		c0.5-0.3,0.9-0.7,1.4-1.1c0.3-0.2,0.6-0.6,0.9-0.6c0.7,0,1-0.5,1.1-1c0.1-0.6,0.2-1.3,0-1.9c-0.3-0.8-0.8-1.6-1.1-2.4
		c-0.1-0.2,0.1-0.5,0.1-0.7c0.2,0.1,0.5,0,0.5,0.2c0.7,1.3,1.7,2.5,1.6,4.2c-0.1,1.2-0.8,2.2-1.8,2.6c-0.4,0.2-0.7,0.5-1,0.8
		c-0.9,0.9-2,1.3-3.2,1c-0.5-0.1-1-0.5-1.3-0.9c-0.7-0.9-0.8-1-1.8-0.4c-0.9,0.6-2,0.3-2.7-0.7c-0.9-1.3-0.6-2.6-0.2-3.9
		C70.2,54.8,70.6,54.8,71.2,55.4z"/>
	<path class="st0" d="M136.2,68.1c1.1,0.5,2.2,0.8,3.2,1.4c1.6,1,3,2.1,4.5,3.2c0.4,0.3,0.8,0.7,1,1.1c0.1,0.1,0,0.6-0.1,0.7
		c-0.2,0.1-0.7,0.2-0.9,0.1c-0.7-0.5-1.4-1.1-2.1-1.6c-1.5-1-2.9-1.9-4.4-2.8c-0.3-0.2-0.8-0.2-1.1-0.2c-0.8-0.1-0.7-0.7-0.6-1.2
		C135.7,68.7,135.9,68.5,136.2,68.1z"/>
	<path class="st0" d="M140,80.5c-1.6-0.1-3.1-0.5-4.4-1.3c-0.5-0.3-0.9-0.9-1.3-1.5c-0.1-0.2,0.1-0.6,0.1-0.9
		c0.3,0.1,0.6,0.1,0.7,0.3c1,1.5,2.5,1.8,4,2.2c0.4,0.1,0.8,0,1.2,0.1c0.3,0.1,0.5,0.3,0.7,0.4c-0.2,0.2-0.4,0.4-0.7,0.5
		C140.3,80.5,140.1,80.4,140,80.5z"/>
</g>
</svg>
