<?xml version="1.0" encoding="utf-8"?>
<!-- Generator: Adobe Illustrator 19.2.0, SVG Export Plug-In . SVG Version: 6.00 Build 0)  -->
<svg version="1.1" id="Layer_1" xmlns="http://www.w3.org/2000/svg" xmlns:xlink="http://www.w3.org/1999/xlink" x="0px" y="0px"
	 viewBox="0 0 120 123" style="enable-background:new 0 0 120 123;" xml:space="preserve">
<style type="text/css">
	.st0{fill:#E91E63;}
</style>
<g id="fever-check-flu-child">
	<path class="st0" d="M100.6,106.9c0,0.1,0.1,0.2,0.1,0.3c0.3,0.1,0.5,0.4,0.6,0.7c0.5,1.4,0.9,2.8,1.1,4.2c0.4,0,0.7,0,1.1-0.1
		c-0.9-2.9-2.1-5.8-1.6-8.8c0.6-3.2,3-7.1,0.5-9.2c-0.2,3.6-0.4,7.2-1.7,10.6c-0.2,0.4-0.4,0.8-0.6,1.2c0,0.1,0,0.1,0,0.2
		C100.3,106.3,100.5,106.6,100.6,106.9z"/>
	<g>
		<path class="st0" d="M119.2,107.4c0.2,0.9,0.5,1.9,0.9,2.7C119.8,109.1,119.5,108.2,119.2,107.4z"/>
		<path class="st0" d="M120.8,111.3c-0.3-0.4-0.5-0.8-0.7-1.2c0.1,0.4,0.2,0.9,0.3,1.3C120.5,111.4,120.7,111.3,120.8,111.3z"/>
		<path class="st0" d="M119.2,107.4c-0.2-0.7-0.3-1.4-0.5-2.1c-0.4-1.9-1.3-3.6-2.4-5c0.1-0.2,0.1-0.5-0.1-0.7
			c-0.4-0.3-0.9-0.6-1.3-0.9c-3.2-3.1-8-5.1-12.5-6.2c-0.3-0.1-0.5-0.1-0.8-0.2c-3.7-0.9-7.5-1.3-11-2.9c-1.7-0.8-3.2-1.5-5-1.8
			c-1.6-0.3-3.4,0.3-3.9-2c-0.2-0.9,0.5-2.7,0.6-3.7c0.8-4.5,2-9.2,1.9-13.7c0-0.1,0-0.1,0-0.2c0.1-0.6,0.2-1.1,0.3-1.7
			c1.8-0.5,2,2.5,1.5,4.3c-1.7,5.7-0.4,12.3,3.3,16.9c-2.9-6.4-3.5-13.8-1.6-20.6c4.3-1.2,6.9-5.4,8.1-10c1.3-0.7,1.1-3.5,1-5.2
			c0.1-0.5,0-1.1,0-1.6c0-1.4,0.2-2.9-0.3-4.1c-0.2-0.6-0.6-1.1-1.1-1.5c-0.3-1,0.2-1.7,0.8-2.3c0.3-0.9,0.4-1.8,0.7-2.7
			c0.1-0.5,0.1-0.9,0.2-1.4c0-0.1,0-0.2,0-0.2c0-0.1,0-0.1,0-0.2V35c0,0-0.1-0.1-0.1-0.2v-0.1c-0.1-0.7-0.1-1.4-0.1-2.1
			c-0.1-0.9-0.3-1.7-0.5-2.5c-0.4-2.5-1.2-5-2.6-7.1c-1.4-2.8-3.2-5.5-5-8c-2.9-3.9-6-7.9-10-10.8c-4.2-2.9-9.3-4.3-14.3-3.9
			c-0.1,0-0.2-0.1-0.3-0.1c-0.9,0.1-1.7,0.3-2.6,0.4c-0.9,0-1.9,0-2.8,0.1c0,0,0,0,0,0c-11-0.7-21.1,6.1-31.9,8
			c-8.5,1.3-17.2-0.3-26-1V9c4.6,0.4,9,0.7,13.4,1.1c3.1,0.2,6.2,0.5,9.3,0.1c3.9-0.5,7.6-2,11.4-3c11.8-2.8,24.1,0.3,35.8,3.4
			c1.2,0.3,2.5,0.7,3.2,1.8c0.6,1.1-0.2,2.9-1.4,2.5c1.6,1,3.9-1.3,3-2.9c1.1,0.4,1.2,1.7,0.7,2.7c-1.1,0.8-2.5,1.1-4.3,0.9
			c-0.4-0.2-0.8-0.1-1.1,0c0,0-0.1,0-0.1,0c-7.9-2.3-15.8-4.5-23.7-6.8c2.4,3.2,7,3.4,10.9,4.2c9,1.8,16.5,7.8,23.6,13.6
			c-0.2,0.9-0.8,1.8-1.5,2.4c-0.4,0.1-0.8,0.3-1.1,0.7c-0.1,0.1-0.3,0.1-0.4,0.2c0.1,0,0.2,0,0.3,0c-0.1,0.2-0.1,0.3-0.2,0.5
			c-1.7-0.7-2.9-2.2-4.2-3.5c-3.7-3.6-8.8-5.5-13.8-7.3c-6.3-2.3-12.5-4.5-18.8-6.8c5,2.2,10,4.3,15,6.4c8.5,3.7,17.3,7.5,23.9,14.1
			c0.3,0.3,0.6,0.6,0.8,0.9c-0.2,1-0.4,1.9-0.5,2.6c-0.5,0.4-1.2,0.7-1.8,0.7c-1.4,0-2.8-0.8-4-1.6c-9.6-5.9-20.3-10-31.4-11.9
			c9.3,3.5,18.5,7.1,27.8,10.6c2,0.8,4.2,1.7,5.1,3.7c0.8,2-1.2,4.9-3.1,3.9c-12.6-6.6-27.8-8.2-41.5-4.2c7.3-0.3,14.6-0.6,21.9-0.9
			c1.6-0.1,3.3-0.1,4.7,0.7s2.2,2.9,1.1,4.1c0.1-1.3-0.6-2.6-1.8-3.2c0.2,1.3,0.4,2.6,0.7,3.9c-6.7,1.8-13.4,3.6-20.3,3.7
			c-6.9,0-14.1-1.9-19.1-6.7c-5.2-5-12-8.2-19.1-9.4v1.3c5.4,0.8,10.6,2.9,14.9,6.2c4.5,3.4,8.7,8.3,14.4,8.3
			c0.2,6.8,1.3,13.5,3.2,20c1.7,5.7,3.9,12.1,2.4,17.4c-0.3,0-0.5,0.3-0.4,0.6c0,0.1,0,0.3,0.1,0.4c-0.3,0.7-0.7,1.4-1.1,2.1
			c0.1,0,0.2,0,0.3,0c-0.2,0.2-0.3,0.3-0.5,0.4c-0.2,0.1-0.3,0.4-0.2,0.6c-5.3,2.9-10.2,6.3-14.7,10.3c-2.5,2.2-5,4.8-5.3,8.1
			c-0.5,5.5-0.7,11.1-0.4,16.6c0.5,0,1,0,1.5,0.1c-0.1-1.8-0.2-3.6-0.3-5.3c-0.4-7.1,0.1-15.6,6.2-19.4c0.7-0.4,1.4-0.7,2.2-0.6
			c0.6,0.1,1.1,0.6,1.6,1c4.3,4.1,8.2,8.8,10.6,14.3c1.2,2.7,1.9,5.7,2.1,8.7c0.3-0.1,0.6-0.1,0.9-0.2c-0.8-10-6.4-19.7-14.9-25
			c2-1.3,4.1-2.7,6.1-4c8.7,7.2,11.7,20.6,20.6,26.7h1.4c0.4,0,0.7-0.1,1.1-0.1l-1.5-0.6c-3.3-1.8-5.3-5.2-7.3-8.4
			C38.9,103.2,34.5,97,29.6,91c4.1-2.7,8.6-4.9,13.2-6.6c-0.5,0.9,0,2.1,1,2.4c0.2-1.2,0.1-2.5-0.2-3.7c0.2,0.1,0.4,0.2,0.6,0.3
			c1.6,0.9,3,2,4.4,3.2c0.2,0.2,0.5,0.1,0.7,0c2.7,1.8,6,2.8,9.3,2.9c5.4,0.1,10.7-2.2,14.9-5.6c1.2-0.9,2.2-1.9,3.2-2.9v0.1
			l0.1-0.1c0.4-1,1.3-1.9,2-2.6c1.1-1.5,2.1-3.1,3.1-4.9c0.2-0.5,0.3-1,0.4-1.5c0-0.3,0.3-0.4,0.6-0.4c0.1-0.3,0.2-0.6,0.3-0.9
			c-0.1,1.5-0.3,3-0.5,4.5c0,0.1,0,0.1-0.1,0.2c0,0,0,0,0,0c-0.1,0.9-0.3,1.7-0.5,2.6c-0.1,0.3-0.2,0.7-0.3,1
			c-0.2,0.7-0.4,1.4-0.5,2.1c-0.1,0.4,0,0.8-0.1,1.2C81.2,83.1,81,84,80.8,85c-0.1,0.9-0.6,2.2,0.1,2.9c0.4,0.5,1.1,0.4,1.7,0.5
			c0.2,0,0.4,0,0.6,0.1c2.9,1.2,5.9,2.1,9,2.7c0.5,0.2,1.1,0.4,1.7,0.6c0.9,0.3,1.9,0.5,2.8,0.7c-0.2,2.7-0.2,5.4,0,8.1
			c0.2,0.2,0.3,0.4,0.4,0.6c0-0.1,0.1-0.1,0.2-0.2c0.8-2.6,1.1-5.4,0.8-8.2c1.1,0.2,2.2,0.4,3.2,0.6c0.4,0.1,0.8,0.2,1.2,0.3
			c-0.1,0.3-0.1,0.7,0,1.1c0.1,0.2,0.2,0.3,0.3,0.3c0,0.2,0,0.5,0,0.7c0,0.6,1,0.6,1,0c0-0.6-0.1-1.1-0.1-1.7c3.5,1.1,6.7,3,9.8,5
			C116,101.4,117.9,104.3,119.2,107.4z M79.7,30.6c0-0.4,0.3-0.8,0.7-0.7c0.2,0,0.4-0.1,0.5-0.2c1.1-0.4,2-1.4,2.2-2.6
			c0,0.1,0.1,0.1,0.1,0.2c0,0.8-0.3,1.5-0.5,2.3C81.9,30.3,80.7,30.8,79.7,30.6z M35.3,71.5c-0.4-1.6-0.9-3.3-1.3-4.9
			c-1.3-4.8-2.6-9.7-3.1-14.6c-0.2-1.9-0.3-3.8,0.1-5.6c0.4,1,2.3,1,2.3,2c-0.1,4.1,0.5,8.2,1.6,12.2c0.5,1.7,1.2,3.5,1.3,5.3
			C36.3,67.8,35.8,69.7,35.3,71.5z M39.3,84.5c-1.3,0.6-2.6,1.2-3.9,1.9c0-0.1,0.1-0.1,0.1-0.2c0,0,0,0,0,0c0,0,0,0,0,0
			c0,0,0-0.1,0.1-0.1c0-0.1,0-0.1,0-0.2c1.2-1.2,1.6-3.5,1.5-5.4c-0.1-3.7-0.2-7.5-0.4-11.2C38.7,74,39.6,79.3,39.3,84.5z
			 M40.6,84.4c-0.2-1.6-0.1-3.2,0-4.8c0.3,0.5,0.6,1,0.9,1.6c0.2,0.4,0.5,0.8,0.5,1.3C42,83.3,41.2,83.9,40.6,84.4z M83,68.6
			c-2.4,5.7-5.4,10.6-10.3,14.5l-0.1,0.1c-7.7,6.8-20.7,6.3-27.8-1.1c0.2,0.4,0.5,0.7,0.7,1c-0.7-0.4-1.7-0.9-2.3-1.4
			c-0.5-1.5-1.2-3-1.8-4.4C37.3,68,35.1,58,35,47.8c7.1,0.3,14.1-1.4,21-3.1c1.6-0.4,3.3-0.8,4.5-2c1.2-1.1,1.7-3.2,0.6-4.5
			c2.7,1.4,5.5,2.4,8.5,3c-2.3,0-4.5,1.2-5.7,3.2c2.7-1.3,5.8-0.9,8.8-1.2s6.3-1.9,6.7-4.9c6.2,4.7,6.5,13.8,6.3,21.6
			c1.4-4.7,1.6-9.7,0.5-14.5c1.9,2.4,4.5,4.3,7.3,5.4l-2-2c0.8-0.3,1.3-1.2,0.8-2.1c-0.1-0.5-0.3-1-0.4-1.6c0.1-0.3,0.1-0.6,0.3-0.8
			c0,0,0,0.1,0.1,0.1c0.2,0.1,0.6,0,0.9-0.1c0.1,0,0.1,0,0.2,0c0.6,0.4,1.2,1,1.7,1.6c0.3,0.5,0.6,1.1,0.7,1.9
			c0.1,0.7,0.2,5.3,0,7.4c-1.2,1.9-3.1,3.4-5.4,3.8c2.3-1.3,2.8-4.9,0.9-6.7c0.7,2.2-0.5,4.9-2.7,5.7c1.2,2.1,4.8,2.2,6,0
			c-0.7,1.9-1.3,3.9-2.7,5.3c-1.4,1.5-3.6,2.3-5.4,1.5c-1.5-0.7-2.6,1.2-3.1,3C83,67.9,82.9,68.3,83,68.6z M84.3,88.5
			c0.9,0.1,1.9,0.2,2.8,0.5c1.2,0.4,2.3,0.9,3.4,1.4C88.4,89.9,86.3,89.3,84.3,88.5z"/>
	</g>
	<path class="st0" d="M60.5,5.8c-0.6,1-1.1,2.1-1.5,3.3c-0.1,0.2,0,0.3,0,0.4c-0.1,0.4,0,0.9,0.1,1.3c0.2,0,0.4,0,0.6-0.1
		c0.1-0.1,0.2-0.2,0.2-0.3c0.2-0.4,0.4-0.8,0.4-1.2c0-0.1-0.1-0.3-0.1-0.4c0.3-0.8,0.7-1.6,1.2-2.4C61.7,5.7,60.8,5.2,60.5,5.8z"/>
	<path class="st0" d="M63.1,14.3c-0.1-0.6-0.9-0.9-1.2-0.3c-0.2,0.3-0.1,0.7-0.1,1c0,0.1,0,0.2,0,0.2c0,0-0.1,0-0.1,0
		c-0.2,0.2-0.2,0.5-0.2,0.7c0,0.4-0.1,0.8,0,1.2c0,0.3,0,0.6,0.1,0.9c0.2,0.3,0.5,0.5,0.8,0.4c0.1-0.5,0.1-1.1,0.1-1.6
		c0.2,0,0.4-0.2,0.4-0.5c0-0.3-0.1-0.7-0.1-1c0-0.2,0-0.3,0-0.5c0-0.1,0-0.1,0-0.2C63,14.7,63.2,14.6,63.1,14.3z"/>
	<path class="st0" d="M62.9,21.6c-0.2,0.4-0.4,0.7-0.5,1.1c0,0,0,0.1-0.1,0.1c-0.3,0.9-0.4,1.9-0.2,2.8c0.4,0,0.8,0,1-0.2
		c0.1-0.6,0.1-1.1,0.1-1.6c0-0.1,0-0.1,0-0.2c0-0.6,0.1-1.1,0.4-1.6C64.1,21.6,63.3,21.1,62.9,21.6z"/>
	<path class="st0" d="M61,29.3c-0.3,0-0.6,0.2-0.8,0.4c-0.1,0.2-0.2,0.3-0.4,0.5c-0.2,0-0.5,0.2-0.7,0.4c-0.8,0.9-1.3,2.1-1.4,3.3
		c0.2,0,0.4,0.3,0.5,0.5c0.1,0,0.2-0.1,0.3-0.1c0.4-0.8,0.4-1.7,0.9-2.2c0.2-0.2,0.3-0.3,0.5-0.4c0.2-0.1,0.4-0.1,0.5-0.2
		c0.4-0.1,0.4-0.6,0.2-0.8c0.1-0.1,0.1-0.2,0.2-0.3c0.1,0,0.1,0,0.2,0C61.7,30.3,61.7,29.3,61,29.3z"/>
	<path class="st0" d="M80.4,32.7c-0.3,0.4-0.6,0.9-0.8,1.3c-0.1,0.1-0.1,0.2-0.1,0.3c-0.3,0.4-0.6,0.7-0.9,1c0,0,0,0-0.1,0
		c-0.1-0.1-0.2-0.1-0.4-0.1c-0.5,0.1-1.4,0.4-1.6,0.9c-0.2,0.6,0.4,1,0.9,0.9c0.2-0.1,0.3-0.2,0.3-0.4c0.1,0,0.3,0,0.4-0.1
		c1.3-0.2,2.4-1.4,2.7-2.7c0.1-0.2,0.3-0.5,0.4-0.7C81.7,32.6,80.8,32.1,80.4,32.7z"/>
	<path class="st0" d="M53.8,81.3c1.1-0.6,2.3-0.8,3.6-0.7c0.4,0,0.8,0,0.9-0.3c0.2-0.1,0.4,0.1,0.4,0.3c0.2-0.1,0.3-0.2,0.5-0.3
		c1,0.4,1.9,0.7,2.8,1.1c0,0.2,0,0.5,0,0.7c-0.3,0.2-0.8,0-1.2-0.2C58.9,81,56.5,81,54.7,82c-0.4,0.2-0.9,0.5-1.3,0.2
		c0-0.1,0-0.3,0-0.5C53.6,81.8,53.9,81.5,53.8,81.3"/>
	<path class="st0" d="M60.7,65.3c-0.8-0.1-1.6-0.7-2.4-0.4c-0.8,0.8-1.9,1.2-3.1,1.3c-0.4-0.5-1.1-0.8-1.7-0.9
		c-0.4,0.4-0.9,0.7-1.4,1c-0.3,0.2-0.6,0.3-0.9,0.2c-0.8-0.2-1.6-0.5-2-1.1s-0.4-1.4-0.4-2.1c0-0.4,0-0.9,0.2-1.3
		c0.2-0.4,0.7-0.7,1.1-0.5c-0.2,0.7-0.5,1.4-0.4,2.1c0.1,0.7,0.5,1.4,1.1,1.7c0.3,0.1,0.6,0.1,0.8,0.3c0.1,0.1,0.3,0,0.4-0.2
		c0.3-0.5,0.7-1.1,1-1.6c1.2-0.1,2.1,1.5,3.3,1.3c0.7-1.5,2.9-2.1,4.2-1.1c0.3,0.2,0.8,0,1-0.3c0.2-0.4,0.2-0.8,0.2-1.2
		c0.2-0.3,0.7,0.1,0.8,0.5C62.9,64.2,61.8,65.4,60.7,65.3"/>
	<path class="st0" d="M47.5,50.5c0.7,0.2,1.5,0.4,2,0.9c0.6,0.5,0.9,1.3,0.8,2c-0.1,0.5-0.4,0.9-0.8,1.2c-1.6,1.6-4.2,1.6-6.4,1.4
		c-1.3-0.1-2.6-0.3-3.8-0.7c-0.6-0.2-1.2-0.5-1.6-0.9c-0.4-0.5-0.6-1.2-0.2-1.7c0.2-0.3,0.5-0.5,0.8-0.7c1.5-0.8,3.1-1.3,4.8-1.6
		c0.5-0.1,1-0.1,1.5-0.2C45.7,50.2,46.6,50.3,47.5,50.5 M42.4,52.3c-0.8,0.3-1.7,0.6-2.5,0.9c-0.4,0.1-0.7,0.3-1.1,0.4
		c1.4,0.7,2.9,1.1,4.4,1.3C42.6,54.2,42.3,53.3,42.4,52.3 M47.5,53.7c-0.5,0.4-1.1,0.7-1.6,1.1c1.3,0.2,2.7-0.7,3-1.9
		c-0.5-0.7-1.2-1.2-1.9-1.5C47.3,52.1,47.5,52.9,47.5,53.7"/>
	<path class="st0" d="M63.8,50.2c1.1-0.1,2.2-0.2,3.4-0.4c2.4-0.2,5.1-0.4,6.9,1.2c0.2,0.1,0.3,0.3,0.4,0.5c0.4,0.7-0.3,1.6-1,2.1
		c-1.2,0.8-2.7,1.2-4.2,1.2c-0.5-0.4-1.1-0.2-1.7-0.2c-1.9,0-3.7-1.2-5.2-2.3c-0.3-0.2-0.6-0.5-0.7-0.8c0-0.4,0.2-0.7,0.5-1
		c0.6-0.7,1.3-1.3,2.2-1.7c0.5-0.2,1-0.4,1.5-0.5c1.4-0.3,2.9-0.5,4.4-0.5c0.3,0,0.6,0,0.9,0.2c1.5,0.2,2.9,0.7,4.2,1.5
		c0,0.2-0.1,0.3-0.1,0.5c-1,0.3-2-0.3-3-0.6c-1.4-0.5-3-0.5-4.5-0.3C66.2,49.2,65,49.6,63.8,50.2 M70.5,52.6
		c-0.4,0.3-0.9,0.4-1.4,0.4c0,0.1,0,0.3-0.1,0.4c1.6,0.2,3.3-0.5,4.3-1.7c-0.6-0.2-1.2-0.5-1.7-0.7c-0.2,0.4-0.5,0.7-0.7,1
		C70.8,52.3,70.7,52.5,70.5,52.6 M66,52.8c-0.2-0.5-0.3-1.1-0.8-1.4c-0.5-0.3-1.1-0.2-1.7-0.1c0.7,0.9,1.8,1.5,3,1.7
		C66.5,52.9,66.2,52.7,66,52.8"/>
	<path class="st0" d="M64.2,74.7c-0.1,0-0.3,0-0.4,0c-0.2-0.1-0.3-0.3-0.5-0.4c-0.4-0.9-1.3-1.4-2.2-1.9c-1.6-0.8-3.4-1.6-5-0.9
		c-0.3,0.1-0.6,0.3-1,0.3c-0.5,0-0.9-0.4-1.4-0.4c-0.3,0-0.5,0.2-0.8,0.3c-1.8,1.1-3.4,2.4-4.7,4c-0.1,0.1-0.2,0.2-0.2,0.4
		c0,0.2,0.1,0.5,0.3,0.7c1.2,1.3,3,2.2,4.9,2.2c0.4,0,0.8,0,1.3,0c1.3-0.1,2.5-0.2,3.8-0.3c1.5-0.1,3.2-0.3,4.3-1.4
		c0.5-0.5,1-1.3,1.8-1.3c0.7,0,1.5,0.9,2,0.4C66.1,75.6,65.2,74.9,64.2,74.7z M50.9,74.6c0.8-0.5,1.6-1.1,2.3-1.6
		c1.1-0.7,2.7,0.1,3.7-0.6c0.6-0.4,1.3-0.1,1.9,0.1c0.9,0.4,1.9,0.8,2.8,1.1c0.2,0.2,0.4,0.4,0.5,0.5c-0.4-0.2-0.8-0.4-1.3-0.4
		c-1-0.4-2.2-0.4-3.3-0.2l-2.6,0.3c-0.9,0.2-1.8,0.4-2.6,0.7c-0.3,0.1-0.7,0.2-1,0.3c-0.1,0-0.2,0.1-0.2,0.2
		c-0.2,0.1-0.4,0.2-0.6,0.2c-0.1,0-0.2,0.1-0.3,0.1C50.4,75,50.7,74.8,50.9,74.6z M62,74.8L60,75c-2,0.1-4,0.3-6,0.7
		c-1,0.2-2.2,0.5-3.1,0.2c0.1,0,0.2-0.1,0.3-0.1c0.3-0.1,0.5-0.2,0.8-0.3c2-0.5,4.1-0.8,6.2-0.9c0.7,0,1.3-0.1,2-0.1
		c0.1,0.1,0.1,0.1,0.2,0.1C61,74.4,61.5,74.6,62,74.8z M62.8,76.1c-1,0.7-2.1,1.2-3.3,1.4c-0.7,0.1-1.5,0.2-2.3,0.2
		c-0.7,0.1-1.4,0.1-2.2,0.1c-0.5,0-0.9,0.1-1.3,0.1c-1.3,0-2.7-0.4-3.8-1c0-0.1,0-0.2,0.1-0.4c2.3,0.4,4.6-0.2,6.9-0.5
		c2-0.3,4-0.4,6-0.3C62.9,75.9,62.9,76.1,62.8,76.1z"/>
</g>
</svg>
