<?xml version="1.0" encoding="utf-8"?>
<!-- Generator: Adobe Illustrator 19.2.0, SVG Export Plug-In . SVG Version: 6.00 Build 0)  -->
<svg version="1.1" id="Layer_1" xmlns="http://www.w3.org/2000/svg" xmlns:xlink="http://www.w3.org/1999/xlink" x="0px" y="0px"
	 viewBox="0 0 120 123" style="enable-background:new 0 0 120 123;" xml:space="preserve">
<style type="text/css">
	.st0{fill:#03A9F4;}
</style>
<g id="fever-check-cold-child">
	<path class="st0" d="M100.6,106.9c0,0.1,0.1,0.2,0.1,0.3c0.3,0.1,0.5,0.4,0.6,0.7c0.5,1.4,0.9,2.8,1.1,4.2c0.4,0,0.7,0,1.1-0.1
		c-0.9-2.9-2.1-5.8-1.6-8.8c0.6-3.2,3-7.1,0.5-9.2c-0.2,3.6-0.4,7.2-1.7,10.6c-0.2,0.4-0.4,0.8-0.6,1.2c0,0.1,0,0.1,0,0.2
		C100.3,106.3,100.5,106.6,100.6,106.9z"/>
	<path class="st0" d="M118.7,105.3c-1.5-7.1-9.2-11.2-16.3-12.8C95.3,91,87.6,90.8,81.3,87c1.1-6.9,2.1-13.7,3.2-20.6
		c1.8-0.5,2,2.5,1.5,4.3c-1.7,5.7-0.4,12.3,3.3,16.9c-2.9-6.4-3.5-13.8-1.6-20.6c5.5-1.5,8.2-7.9,8.7-13.6c0.2-2.1,0.1-4.2,0.1-6.3
		c-0.4-0.9-0.9-1.7-1.1-2.5c-0.3-1,0.2-1.7,0.8-2.4c0.3-0.9,0.4-1.8,0.7-2.7c0.1-0.5,0.1-0.9,0.2-1.4c0-0.1,0-0.2,0-0.2
		c0-0.1,0-0.1,0-0.2V35c0,0-0.1-0.1-0.1-0.2v-0.1l0,0l0,0c-0.1-0.7-0.1-1.4-0.1-2.1c-0.2-1.3-0.4-2.6-0.8-3.8
		c-1.4-5.1-4.2-9.7-7.3-13.9c-2.9-3.9-6-7.9-10-10.8c-4.2-2.9-9.3-4.3-14.3-3.9c-0.1,0-0.2-0.1-0.3-0.1c-1.8,0.3-3.6,0.6-5.4,0.5
		c-11-0.7-21.1,6.1-31.9,8c-8.5,1.3-17.2-0.3-26-1V9c4.6,0.4,9,0.7,13.4,1.1c3.1,0.2,6.2,0.5,9.3,0.1c3.9-0.5,7.6-2,11.4-3
		c11.8-2.8,24.1,0.3,35.8,3.4c1.2,0.3,2.5,0.7,3.2,1.8c0.6,1.1-0.2,2.9-1.4,2.5c1.6,1,3.9-1.3,3-2.9c1.5,0.5,1.2,2.9-0.2,3.7
		c-1.4,0.8-3.1,0.4-4.6-0.1c-7.9-2.3-15.8-4.5-23.7-6.8c2.4,3.2,7,3.4,10.9,4.2c9,1.8,16.5,7.8,23.6,13.6c-0.4,1.5-1.6,2.7-3,3.2
		c1.9,0.6,4.2-0.7,4.5-2.7c1.1,1.9-1.6,4-3.6,3.5c-2.1-0.5-3.5-2.3-5-3.8c-3.7-3.6-8.8-5.5-13.8-7.3c-6.3-2.3-12.5-4.5-18.8-6.8
		c5,2.2,10,4.3,15,6.4c8.5,3.7,17.3,7.5,23.9,14.1c0.4,0.4,0.9,0.9,1,1.5c0.4,1.4-1.2,2.7-2.6,2.7s-2.8-0.8-4-1.6
		c-9.6-5.9-20.3-10-31.4-11.9c9.3,3.5,18.5,7.1,27.8,10.6c2,0.8,4.2,1.7,5.1,3.7c0.8,2-1.2,4.9-3.1,3.9c-12.6-6.6-27.8-8.2-41.5-4.2
		c7.3-0.3,14.6-0.6,21.9-0.9c1.6-0.1,3.3-0.1,4.7,0.7s2.2,2.9,1.1,4.1c0.1-1.3-0.6-2.6-1.8-3.2c0.2,1.3,0.4,2.6,0.7,3.9
		c-6.7,1.8-13.4,3.6-20.3,3.7c-6.9,0-14.1-1.9-19.1-6.7c-5.2-5-12-8.2-19.1-9.4c0,0.4,0,0.9,0,1.3c5.4,0.8,10.6,2.9,14.9,6.2
		c4.5,3.4,8.7,8.3,14.4,8.3c0.2,6.8,1.3,13.5,3.2,20c2,6.9,4.9,14.7,0.9,20.6c2.7,0.3,3.6-3.4,3.5-6.1c-0.1-3.7-0.2-7.5-0.4-11.2
		c2,4.8,2.9,10.1,2.6,15.3c-7.6,3.3-14.7,7.8-20.9,13.3c-2.5,2.2-5,4.8-5.3,8.1c-0.5,5.5-0.7,11.1-0.4,16.6c0.5,0,1,0,1.5,0.1
		c-0.1-1.8-0.2-3.6-0.3-5.3c-0.4-7.1,0.1-15.6,6.2-19.4c0.7-0.4,1.4-0.7,2.2-0.6c0.6,0.1,1.1,0.6,1.6,1c4.3,4.1,8.2,8.8,10.6,14.3
		c1.2,2.7,1.9,5.7,2.1,8.7c0.3-0.1,0.6-0.1,0.9-0.2c-0.8-10-6.4-19.7-14.9-25c2-1.3,4.1-2.7,6.1-4c8.7,7.2,11.7,20.6,20.6,26.7
		c0.3,0,0.6,0,0.9,0c0.2,0,0.4,0,0.5,0c0.4,0,0.7-0.1,1.1-0.1l0,0c-0.5-0.2-1-0.4-1.5-0.6c-3.3-1.8-5.3-5.2-7.3-8.4
		C38.9,103.2,34.5,97,29.6,91c4.1-2.7,8.6-4.9,13.2-6.6c-0.5,0.9,0,2.1,1,2.4c0.5-3.3-1-6.5-2.4-9.5C37.3,68,35.1,58,35,47.8
		c7.1,0.3,14.1-1.4,21-3.1c1.6-0.4,3.3-0.8,4.5-2c1.2-1.1,1.7-3.2,0.6-4.5c2.7,1.4,5.5,2.4,8.5,3c-2.3,0-4.5,1.2-5.7,3.2
		c2.7-1.3,5.8-0.9,8.8-1.2s6.3-1.9,6.7-4.9c6.2,4.7,6.5,13.8,6.3,21.6c1.4-4.7,1.6-9.7,0.5-14.5c1.9,2.4,4.5,4.3,7.3,5.4
		c-4.2-4.1-8.4-8.2-12.6-12.3c2.6-1.2,3-5.4,0.7-7c1.9,0.4,3.3-2.2,2.7-4c-0.6-1.9-2.4-3.1-4-4.1c-3.4-2.2-6.8-4.4-10.2-6.6
		c1.7,0.4,3.5,0.7,5.2,0.2s3.2-2,3.1-3.7c-0.2-2.4-3.1-3.4-5.4-3.9c-9.4-2-18.8-4-28.2-6c6.5-0.9,13-1.7,19.5-2.6
		c0.1,0.3,0.3,0.5,0.7,0.5c5-0.3,9.9,1,14,3.9c4,2.9,7.1,7.1,9.9,11.1c2.9,4,5.3,8.3,6.6,13.1c0.6,2.5,0.9,5.2,0.7,7.8
		c-0.1,1.5-0.4,3-0.7,4.5c-0.2,0.5-0.4,1-0.6,1.5c-0.7-0.2-1.6,0.2-1.9,0.9c2.8,1.7,4.3,5.2,3.7,8.4c-0.6,3.2-3.2,5.9-6.4,6.5
		c2.3-1.3,2.8-4.9,0.9-6.7c0.7,2.2-0.5,4.9-2.7,5.7c1.2,2.1,4.8,2.2,6,0c-0.7,1.9-1.3,3.9-2.7,5.3c-1.4,1.5-3.6,2.3-5.4,1.5
		c-1.6-0.7-2.7,1.3-3.1,3.2l0,0c-2.5,5.9-5.5,11.1-10.6,15.1l-0.1,0.1l0,0c-7.7,6.8-20.7,6.3-27.8-1.1c2.9,4.6,8.4,7.3,13.8,7.4
		s10.7-2.2,14.9-5.6l0,0c1.2-0.9,2.2-1.9,3.2-2.9v0.1l0.1-0.1c0.4-1,1.3-1.9,2-2.6c1.1-1.5,2.1-3.1,3.1-4.9c0.2-0.5,0.3-1,0.4-1.5
		c0-0.3,0.3-0.4,0.6-0.4c0.1-0.5,0.3-1,0.5-1.4l0,0l0,0c0,0,0,0,0-0.1c0.1-0.3,0.6-0.1,0.5,0.2c-0.2,0.8-0.4,1.5-0.6,2.2
		c-0.1,1-0.3,1.9-0.7,2.8c0.1-0.1,0.2-0.1,0.3,0c-0.3,1.2-0.7,2.4-1,3.6c-0.2,0.7-0.4,1.4-0.5,2.1c-0.1,0.6,0,1.1-0.1,1.7
		c0,1.5-0.2,3-0.5,4.5c0,0.1,0,0.1,0,0.2c0.3,0.2,0.6,0.3,0.8,0.5c0.1,0,0.1,0,0.2,0.1c-0.2-0.1-0.3-0.2-0.5-0.4
		c4.9,2.2,10.1,3.7,15.4,4.3c-0.3,2.9-0.3,5.8,0,8.6c0.2,0.2,0.3,0.4,0.4,0.6c0-0.1,0.1-0.1,0.2-0.2c0.9-2.8,1.2-5.9,0.7-8.9
		c10.7,0.3,20.3,9,22.4,19.4c0.1,0,0.3-0.1,0.4-0.1C119.6,109.7,119.2,107.5,118.7,105.3z M40.6,79.6c0.3,0.5,0.6,1,0.9,1.6
		c0.2,0.4,0.5,0.8,0.5,1.3c0,0.8-0.8,1.4-1.4,1.9C40.4,82.8,40.5,81.2,40.6,79.6z M34.9,60.6c0.5,1.7,1.2,3.5,1.3,5.3
		c0.1,1.9-0.4,3.8-0.9,5.6c-0.4-1.6-0.9-3.3-1.3-4.9c-1.3-4.8-2.6-9.7-3.1-14.6c-0.2-1.9-0.3-3.8,0.1-5.6c0.4,1,2.3,1,2.3,2
		C33.2,52.5,33.8,56.6,34.9,60.6z"/>
	<path class="st0" d="M59.9,10.3c0,0.1-0.1,0.2-0.2,0.3c-0.2,0.1-0.4,0.1-0.6,0.1c-0.3-0.8-0.1-1.8,0.4-2.5c0.5,0,0.8,0.5,0.8,0.9
		C60.3,9.5,60.1,9.9,59.9,10.3"/>
	<path class="st0" d="M61.6,16c0-0.2,0-0.5,0.2-0.7s0.6-0.1,0.6,0.1c0.2,1,0.3,2.1,0.1,3.1c-0.3,0.1-0.6-0.1-0.8-0.4
		c-0.1-0.3-0.1-0.6-0.1-0.9C61.5,16.8,61.6,16.4,61.6,16"/>
	<path class="st0" d="M62.2,25.7c-0.2-0.9-0.1-1.9,0.2-2.8c0.1-0.2,0.2-0.4,0.4-0.5s0.5-0.1,0.6,0.1c0.1,0.1,0.1,0.2,0,0.4
		c-0.1,0.9-0.1,1.7-0.2,2.6C63,25.7,62.6,25.7,62.2,25.7"/>
	<path class="st0" d="M58.6,34.3c-0.1,0-0.2,0.1-0.3,0.1c-0.1-0.2-0.3-0.5-0.5-0.5c0.1-1.2,0.6-2.4,1.4-3.3c0.3-0.3,0.8-0.6,1.1-0.3
		c0.3,0.2,0.2,0.7,0,1s-0.5,0.5-0.8,0.8C59,32.6,59,33.5,58.6,34.3"/>
	<path class="st0" d="M77.2,35.6c0.5-0.1,1-0.3,1.4-0.4c0.6-0.5,1.1-1.2,1.5-1.8c0.3,0,0.6,0,0.8,0.2c-0.1,1.4-1.3,2.7-2.7,2.9
		c-0.3,0.1-0.6,0.1-0.8-0.1C77.2,36.2,77,35.8,77.2,35.6"/>
	<path class="st0" d="M53.8,81.3c1.1-0.6,2.3-0.8,3.6-0.7c0.4,0,0.8,0,0.9-0.3c0.2-0.1,0.4,0.1,0.4,0.3c0.2-0.1,0.3-0.2,0.5-0.3
		c1,0.4,1.9,0.7,2.8,1.1c0,0.2,0,0.5,0,0.7c-0.3,0.2-0.8,0-1.2-0.2C58.9,81,56.5,81,54.7,82c-0.4,0.2-0.9,0.5-1.3,0.2
		c0-0.1,0-0.3,0-0.5C53.6,81.8,53.9,81.5,53.8,81.3"/>
	<path class="st0" d="M60.7,65.3c-0.8-0.1-1.6-0.7-2.4-0.4c-0.8,0.8-1.9,1.2-3.1,1.3c-0.4-0.5-1.1-0.8-1.7-0.9
		c-0.4,0.4-0.9,0.7-1.4,1c-0.3,0.2-0.6,0.3-0.9,0.2c-0.8-0.2-1.6-0.5-2-1.1s-0.4-1.4-0.4-2.1c0-0.4,0-0.9,0.2-1.3
		c0.2-0.4,0.7-0.7,1.1-0.5c-0.2,0.7-0.5,1.4-0.4,2.1c0.1,0.7,0.5,1.4,1.1,1.7c0.3,0.1,0.6,0.1,0.8,0.3c0.1,0.1,0.3,0,0.4-0.2
		c0.3-0.5,0.7-1.1,1-1.6c1.2-0.1,2.1,1.5,3.3,1.3c0.7-1.5,2.9-2.1,4.2-1.1c0.3,0.2,0.8,0,1-0.3c0.2-0.4,0.2-0.8,0.2-1.2
		c0.2-0.3,0.7,0.1,0.8,0.5C62.9,64.2,61.8,65.4,60.7,65.3"/>
	<path class="st0" d="M47.5,50.5c0.7,0.2,1.5,0.4,2,0.9c0.6,0.5,0.9,1.3,0.8,2c-0.1,0.5-0.4,0.9-0.8,1.2c-1.6,1.6-4.2,1.6-6.4,1.4
		c-1.3-0.1-2.6-0.3-3.8-0.7c-0.6-0.2-1.2-0.5-1.6-0.9c-0.4-0.5-0.6-1.2-0.2-1.7c0.2-0.3,0.5-0.5,0.8-0.7c1.5-0.8,3.1-1.3,4.8-1.6
		c0.5-0.1,1-0.1,1.5-0.2C45.7,50.2,46.6,50.3,47.5,50.5 M42.4,52.3c-0.8,0.3-1.7,0.6-2.5,0.9c-0.4,0.1-0.7,0.3-1.1,0.4
		c1.4,0.7,2.9,1.1,4.4,1.3C42.6,54.2,42.3,53.3,42.4,52.3 M47.5,53.7c-0.5,0.4-1.1,0.7-1.6,1.1c1.3,0.2,2.7-0.7,3-1.9
		c-0.5-0.7-1.2-1.2-1.9-1.5C47.3,52.1,47.5,52.9,47.5,53.7"/>
	<path class="st0" d="M63.8,50.2c1.1-0.1,2.2-0.2,3.4-0.4c2.4-0.2,5.1-0.4,6.9,1.2c0.2,0.1,0.3,0.3,0.4,0.5c0.4,0.7-0.3,1.6-1,2.1
		c-1.2,0.8-2.7,1.2-4.2,1.2c-0.5-0.4-1.1-0.2-1.7-0.2c-1.9,0-3.7-1.2-5.2-2.3c-0.3-0.2-0.6-0.5-0.7-0.8c0-0.4,0.2-0.7,0.5-1
		c0.6-0.7,1.3-1.3,2.2-1.7c0.5-0.2,1-0.4,1.5-0.5c1.4-0.3,2.9-0.5,4.4-0.5c0.3,0,0.6,0,0.9,0.2c1.5,0.2,2.9,0.7,4.2,1.5
		c0,0.2-0.1,0.3-0.1,0.5c-1,0.3-2-0.3-3-0.6c-1.4-0.5-3-0.5-4.5-0.3C66.2,49.2,65,49.6,63.8,50.2 M70.5,52.6
		c-0.4,0.3-0.9,0.4-1.4,0.4c0,0.1,0,0.3-0.1,0.4c1.6,0.2,3.3-0.5,4.3-1.7c-0.6-0.2-1.2-0.5-1.7-0.7c-0.2,0.4-0.5,0.7-0.7,1
		C70.8,52.3,70.7,52.5,70.5,52.6 M66,52.8c-0.2-0.5-0.3-1.1-0.8-1.4c-0.5-0.3-1.1-0.2-1.7-0.1c0.7,0.9,1.8,1.5,3,1.7
		C66.5,52.9,66.2,52.7,66,52.8"/>
	<path class="st0" d="M64.2,74.7c-0.1,0-0.3,0-0.4,0c-0.2-0.1-0.3-0.3-0.5-0.4c-0.4-0.9-1.3-1.4-2.2-1.9c-1.6-0.8-3.4-1.6-5-0.9
		c-0.3,0.1-0.6,0.3-1,0.3c-0.5,0-0.9-0.4-1.4-0.4c-0.3,0-0.5,0.2-0.8,0.3c-1.8,1.1-3.4,2.4-4.7,4c-0.1,0.1-0.2,0.2-0.2,0.4
		c0,0.2,0.1,0.5,0.3,0.7c1.2,1.3,3,2.2,4.9,2.2c0.4,0,0.8,0,1.3,0c1.3-0.1,2.5-0.2,3.8-0.3c1.5-0.1,3.2-0.3,4.3-1.4
		c0.5-0.5,1-1.3,1.8-1.3c0.7,0,1.5,0.9,2,0.4C66.1,75.6,65.2,74.9,64.2,74.7z M50.9,74.6c0.8-0.5,1.6-1.1,2.3-1.6
		c1.1-0.7,2.7,0.1,3.7-0.6c0.6-0.4,1.3-0.1,1.9,0.1c0.9,0.4,1.9,0.8,2.8,1.1c0.2,0.2,0.4,0.4,0.5,0.5c-0.4-0.2-0.8-0.4-1.3-0.4
		c-1-0.4-2.2-0.4-3.3-0.2l-2.6,0.3c-0.9,0.2-1.8,0.4-2.6,0.7c-0.3,0.1-0.7,0.2-1,0.3c-0.1,0-0.2,0.1-0.2,0.2
		c-0.2,0.1-0.4,0.2-0.6,0.2c-0.1,0-0.2,0.1-0.3,0.1C50.4,75,50.7,74.8,50.9,74.6z M62,74.8L60,75c-2,0.1-4,0.3-6,0.7
		c-1,0.2-2.2,0.5-3.1,0.2c0.1,0,0.2-0.1,0.3-0.1c0.3-0.1,0.5-0.2,0.8-0.3c2-0.5,4.1-0.8,6.2-0.9c0.7,0,1.3-0.1,2-0.1
		c0.1,0.1,0.1,0.1,0.2,0.1C61,74.4,61.5,74.6,62,74.8z M62.8,76.1c-1,0.7-2.1,1.2-3.3,1.4c-0.7,0.1-1.5,0.2-2.3,0.2
		c-0.7,0.1-1.4,0.1-2.2,0.1c-0.5,0-0.9,0.1-1.3,0.1c-1.3,0-2.7-0.4-3.8-1c0-0.1,0-0.2,0.1-0.4c2.3,0.4,4.6-0.2,6.9-0.5
		c2-0.3,4-0.4,6-0.3C62.9,75.9,62.9,76.1,62.8,76.1z"/>
</g>
</svg>
