<?xml version="1.0" encoding="utf-8"?>
<!-- Generator: Adobe Illustrator 19.2.0, SVG Export Plug-In . SVG Version: 6.00 Build 0)  -->
<svg version="1.1" id="Layer_1" xmlns="http://www.w3.org/2000/svg" xmlns:xlink="http://www.w3.org/1999/xlink" x="0px" y="0px"
	 viewBox="0 0 120 133.9" style="enable-background:new 0 0 120 133.9;" xml:space="preserve">
<style type="text/css">
	.st0{fill:#FF5722;}
</style>
<g id="fever-mom-daughter">
	<path class="st0" d="M116.9,56.9c-5-3.8-11-6.2-17.2-7c-2.4-0.3-4.9-0.4-7.1-1.4c-2.2-1-4.2-3.1-4.1-5.5c0.1-4.3,5.9-6.5,6.6-10.7
		c0.2-1.5-0.3-3-0.7-4.4c-1.6-5.1-3.2-10.2-6-14.7c-2.2-3.5-1.7-8.8-5.2-10.8c-1.1-0.6-2.4-0.8-3.7-0.9c-3.2-0.4-6.3-0.7-9.5-1.1
		c-3.4-0.4-6.8-0.8-9.8,0.2c-2.6,1-4.7,3-6.7,5c-2.3,2.3-4.7,4.6-7,6.9c-2.7,2.6-5.4,5.3-6.8,8.8c-1.3,3.2-1.3,6.7-1.3,10.1
		c0,1.4,0,2.8,0.6,4.1c0.7,1.5,2.1,2.6,3.4,3.7c1.1,1.1,2.1,2.2,3,3.4c0.1,0.3,0.2,0.6,0.2,1c-2.8,4.4-6.7,8.1-11.2,10.6
		c-3.8,2.1-5.3,7.1-4.6,11.4c0.7,4.4,3.1,8.2,5.5,11.8c-3.1,0.1-6.1-0.8-9.2-0.7C20.3,77,15.2,81,12,85.9
		c-3.1,4.9-4.6,10.7-6.1,16.3c-0.6,2.1-2.6,3.6-4.1,5.3c-1.5,1.7-2.5,4.5-0.9,6.1c1.7-2.8,5.7-4,8.8-2.6c1.6,0.7,2.9,2,4.2,3.2
		c13.6,12,34.5,9.9,50.9,17.6c-0.8,0.6-1.5,1.1-2.3,1.7c2.8,1,5.8-0.5,8.5-1.8c11.9-5.5,26.1-6.2,38.5-1.7c0.3-1.5-1.6-2.3-3-2.7
		c-13-3.3-25.4-8.9-36.5-16.5c0.2-0.5,0.5-0.9,0.7-1.3c-1.8,1.2-4.4,0.7-6.3-0.4c-1.9-1.1-3.5-2.7-5.4-3.9c-2.7-1.6-6-2.3-9.1-1.7
		c0-2,2.3-3.1,4.3-3.1s4.1,0.4,5.8-0.6c-3.6-1.2-7.7-0.5-10.8,1.7c-0.6-2.7,1.6-5.7,4.4-5.8c1.3-0.1,2.5,0.3,3.7,0.3
		c1.3,0,2.7-0.7,2.8-1.9c-2.6,2.4-7.6-0.8-9.8,1.8c-0.5,0.6-0.7,1.4-1,2.2c-0.5,0.6-1.5,1-2,0.4c0-3.4,3-6.5,6.4-6.7
		c2.8-0.2,5.7,1.4,8.2,0.3c-5-2-11.2-1.2-15.5,2.3c0.8-0.6,1.1-1.7,0.9-2.7c4.5-2.7,10.2-3.3,15.1-1.6c4.9,1.7,9,5.7,10.8,10.6
		c0.6,1.7,1,3.6,0.1,5.2c1.2-1.1,1.9-2.8,1.9-4.4c10.9,4.6,22.4,9.3,34.2,8.4c-2.4-6.2-4.3-12.5-5.9-19c-0.5-2.2-1-4.6-0.2-6.7
		c0.8-2.2,3.5-3.7,5.4-2.5c-2.5-1.6-6.4-0.3-7.4,2.5c-1.6-4.4-2.6-9-2.8-13.7c-1,3.6-0.7,7.6,0.8,11.1c-1.8-1.5-3.6-3.1-5.4-4.6
		c1.2,2.5,3.6,4.2,5.3,6.3c5.7,7.1,3.7,18.1,8.9,25.6c-10.9-0.3-21.8-3.1-31.6-8.1c-0.6-0.3-1.3-0.6-1.6-1.2c-0.6-0.9-0.3-2-0.1-3
		c1.5-6.1,3.1-12.3,6.5-17.6c6.1-9.5,17.7-15.6,20.6-26.6c7.2,0.3,14.1,4.4,18,10.5C120.8,60.7,118.8,58.3,116.9,56.9z M86.4,42.5
		c0.6,2.3,1.6,4.6,3.4,6.1c2,1.5,4.5,1.9,7,2.3c0.8,0.1,1.3,1.1,1.2,1.9s-0.6,1.5-1.1,2.2c-2.5,3.3-5.1,6.6-7.8,9.8
		c-0.7,0.8-1.4,1.7-2.2,2.5c-4,4.2-9.3,7.5-11.9,12.7c0.5-1.8-0.9-3.6-1.5-5.4c-0.9-2.5-0.4-5.1-0.1-7.7c0.3-2.6,0.4-5.5-1.2-7.5
		c3-1.8,5.1-5,6.2-8.1c1.2-3.4,1.4-7,1.6-10.5c1.5,0.7,3.3,0.7,4.8,0.1c0.4-0.2,0.8,0.1,1.1,0.4C86.2,41.7,86.3,42.1,86.4,42.5z
		 M68.4,60.8c0.8-0.1,1.5-0.2,2.3-0.3c0.4,0,0.7-0.1,1,0.2c0.7,1.2,0.5,2.8,0.1,4.2c-0.5,1.5-1.2,3.1-2.2,4.4
		c-0.3-0.2-0.2-0.7-0.1-1c0.2-0.7,0.2-1.5,0.2-2.2C69.6,64.2,69.2,62.4,68.4,60.8z M68.6,69.1c0.2,0.4-0.1,0.8-0.4,1
		c-0.2,0.3-0.5,0.7-0.7,1c-0.2,0.4-0.5,0.7-0.9,0.6c-0.5-0.1-0.4-0.8-0.3-1.3c0.9-3.1,1-6.5,0.5-9.7c0.5,0,0.9,0.6,1.1,1.1
		c0.8,2.1,1.1,4.5,0.7,6.7C68.6,68.7,68.5,68.9,68.6,69.1z M61.8,76.3c-3.1,3.5-7.9,5.6-12.5,4.8c-3.9-0.7-7.4-3.5-8.9-7.2
		c-0.2-0.6-0.4-1.3-0.3-2c0.4-2.1-0.4-4.4-2-5.8c0.6-0.3,1.2-0.5,1.8-0.8c-0.4,0.9,0.1,2.1,1,2.5c-0.4-1.2,0.1-2.6,1.1-3.3
		c0.8-0.6,1.2-1.8,0.8-2.8c1.6-0.4,3.2-1.3,4.4-2.4c0.8-0.8,2.2-0.3,3.1,0.4s1.8,1.6,2.9,1.7c-0.7-2.1-2.9-3.5-5.1-3.5
		c1-1.1,2-2.3,3.5-2.6c1-0.3,2.2-0.1,3.2,0.2c3.4,0.9,6.6,2.4,9.4,4.4c0.5,0.3,1,0.7,1.3,1.2c0.4,0.6,0.5,1.4,0.5,2.2
		C66.2,68,64.8,72.8,61.8,76.3z M62.9,77.5c-0.4,0.5-0.7,1.1-0.8,1.8c-0.1,0.4-0.1,0.8-0.2,1.2v2c-1.3-0.5-2.8-0.8-4.2-0.9
		c-0.4,0-0.9-0.1-1.2-0.3c1.6-0.3,3.1-1.2,4.2-2.4c0.3-0.3,0.5-0.7,0.9-1C62,77.6,62.5,77.4,62.9,77.5z M40.6,62.7
		c0,0,0-0.2,0.1-0.2c0.3-0.4,0.8-0.3,1.2-0.3c0.1,0.2,0.2,0.4,0.3,0.6c-0.2,0-0.3,0.2-0.4,0.4C41.3,63.3,40.8,63,40.6,62.7z
		 M53.6,43.1c0.1-0.1,0.2-0.2,0.2-0.4c0.3,0.1,0.4,0.6,0.3,0.9c-0.2,0.1-0.4,0.2-0.6,0.4c0-0.3,0.1-0.5,0.2-0.7
		C53.5,43.3,53.4,43.1,53.6,43.1z M54,44.3c0.1,0.1,0.2,0.1,0.3,0.1c0.2,0.8-0.3,1.6-0.2,2.4c0.1,0.7,0.5,1.5,0.1,2
		c-0.3-0.7-0.7-1.5-1-2.2c-0.2-0.4-0.4-0.8-0.2-1.2S53.9,44.8,54,44.3z M52.6,44.7c-0.2-0.1-0.4-0.1-0.6-0.2c-0.2,0-0.5-0.2-0.3-0.4
		c0-0.1,0.1-0.1,0.2-0.1c0.4,0,0.9,0,1.5,0.1C53.1,44.3,52.9,44.5,52.6,44.7z M64.2,75c0.7-0.9,1.4-1.9,1.6-3
		c0.2-0.1,0.5,0.1,0.5,0.4c0,0.1-0.1,0.1-0.1,0.2c-0.4,0.7-0.7,1.5-1,2.2c-0.3,0.6-0.6,1.2-1.1,1.6c-0.4,0.3-0.8,0.4-1.1,0.2
		C63.4,76,63.8,75.5,64.2,75z M71.1,70.9c0.1-1.9,0.3-3.9,1.5-5.2c-0.7,3.3-1.2,6.8,0.1,9.9c0.3,0.7,0.7,1.4,1,2.1
		c0.7,1.7,0.6,3.6-0.2,5.3c-0.5-2.2-1.1-4.4-1.9-6.5C70.9,74.7,71,72.8,71.1,70.9z M64.7,31.8c0.1,0.1,0.2,0.2,0.3,0.3
		c-0.8-0.7-1.7-1.6-2.1-2.6c-0.1-0.3-0.2-0.5-0.2-0.8C63,29.8,63.7,30.8,64.7,31.8z M54.4,23.9c0.3,1.5,1.6,2.7,3.1,3.1
		c1.4,0.4,3,0.2,4.5-0.2c-0.6,1.2-0.3,2.7,0.5,3.9c0.8,1.1,1.9,2,3,2.8c0.4,0.3,0.8,0.6,1.3,0.7c0.5,0.1,1.1,0,1.7,0
		c0.9,0.5,1.9,1,2.8,1.5c0.4,0.3,0.8,0.7,1.3,0.9c0.2,0.1,0.5,0.2,0.8,0.2c0,0,0.1,0.1,0.1,0.1c1.5,0.8,3,1.6,4.6,2.2
		c0,0,0.1,0,0.1,0c0.5,0.7,0.9,1.6,0.9,2.4c0.1,0.7,0,1.3-0.1,1.9c-0.4,3.3-0.9,6.7-2.5,9.7c-0.6,1.1-1.4,2.1-2.2,3.1
		c-1,1.1-2.1,2.2-3.4,2.9c-1.3,0.8-2.9,1.1-4.4,0.7c-0.9-0.3-1.7-0.8-2.5-1.3c-1.4-1-2.7-2.1-3.9-3.2c0.2-0.5,0-1.1-0.6-1.3
		c-0.3-0.1-0.6-0.2-0.8-0.3c-0.6-0.7-1.2-1.4-1.7-2.1c1.3,0.1,2.5-0.3,3.5-1.1c-0.2-0.3-0.7-0.3-1-0.1c0.4-1.1,2-0.8,2.9-1.5
		c1-0.8,0.4-2.5-0.7-3.1c-0.8-0.4-2-0.2-2.1,0.6c0.6,0,1.3-0.1,1.8,0.2c0.6,0.3,0.9,1,0.5,1.5c-0.4,0.4-1,0.3-1.5,0.5
		c-0.8,0.3-1.4,1.1-2,1.7c-0.6,0.7-1.5,1.2-2.3,0.8c-0.9-0.5-0.9-1.6-0.8-2.6c0.1-2.4,0-4.7-0.6-7c-1.3-0.2-2.6,0.5-3.3,1.6
		c-0.3,0.5-1.1,0.4-1.5,0c-0.3-0.3-0.4-0.6-0.5-1c0-0.2,0-0.4,0-0.6c0.6-0.3,1.3-0.1,2-0.1c0.6,0,1.5-0.3,1.5-1
		c-1.1-0.3-2.2-0.4-3.3-0.4C49.3,40,49.2,40,49,39.9c0.4-0.9-0.3-1.9-0.7-2.8c-0.1-0.2-0.2-0.5-0.2-0.7C48,36,48,35.5,47.9,35
		c0-1.8,0.9-3.6,2-5C51.4,28,53.3,26.2,54.4,23.9z M49.9,15.1c-1.6,1.6-2.9,3.3-4.1,5.1C47,18.3,48.4,16.5,49.9,15.1z M45.7,55.6
		c0.1,0.2,0.1,0.4,0.1,0.6c-0.1,0.3-0.2,0.6-0.4,0.8c0,0,0,0.1-0.1,0.1c-0.4,0.3-1.1,0.3-1.5-0.1c-0.3-0.6-0.1-1.3,0.4-1.8
		c0.4-0.1,1-0.2,1.3,0.1C45.6,55.4,45.6,55.5,45.7,55.6z M43.8,52.8c0.6-0.2,1.2,0,1.6,0.4c0.2,0.1,0.3,0.6,0.1,0.8
		c-0.1,0.1-0.3,0.2-0.5,0.2c-0.5,0.1-1,0.2-1.4-0.1C43.3,53.7,43.4,53,43.8,52.8z M44.3,58.4c0.1,0.1,0.1,0.1,0.1,0.2
		c-0.1,0.3,0,0.5,0.2,0.8c0,0.1,0,0.2,0,0.3c-0.3-0.1-0.5,0.1-0.8,0.2c-0.3,0.1-0.6,0-0.8-0.3c-0.2-0.3-0.2-0.8,0.1-1.1
		C43.5,58.1,44,58.1,44.3,58.4z M30.7,63.3c0-2.7,0.8-5.6,2.8-7.4c0.8-0.7,1.7-1.2,2.7-1.7c2-1,4.1-2,6.3-1.7
		c-0.2,0.6-0.1,1.3,0.2,1.8c-2-0.3-4.1,0-6.1,0.7c-0.7,0.2-1.4,0.8-1.1,1.4c0.3-0.1,0.7-0.2,1-0.3c0,0.3,0,0.6,0.1,0.8
		c0.2,0.2,0.5,0.3,0.7,0.1c-0.2-0.5,0.1-1.1,0.6-1.4s1.1-0.3,1.7-0.3c1.1,0,2.2-0.1,3.3-0.1c-0.4,0.7-0.4,1.6,0.1,2.3
		c-2,0.2-3.9,0.4-5.9,0.6c-1.4,0.2-3.1,0.6-3.4,1.9c0.5,0.2,1.1,0,1.5-0.4c0,0.3,0,0.7,0.2,1c0.2,0.2,0.7,0.3,0.9,0
		c-0.4-0.3-0.2-1,0.2-1.3c0.4-0.3,1-0.3,1.5-0.3c1.3,0,2.5-0.1,3.8-0.1c-0.2,0.8,0.5,1.7,1.4,1.7c-2.7,1.6-6.3,0.6-9.1,2
		c-0.5,0.2-1,0.7-0.7,1.2c0.6,0,1.1-0.2,1.6-0.5c0,0.5,0,1,0.2,1.5c0.4,0.2,0.7-0.3,0.7-0.7S35.8,63.3,36,63
		c0.2-0.3,0.6-0.3,0.9-0.3h2.6c-0.1,0.8,0.9,1.2,1.6,1.4c-1.5,0.3-3.1,0.6-4.5,1.3c-1.4,0.8-2.6,2-3,3.5c0.2,0.1,0.5,0.1,0.8,0.1
		c0.4-0.7,0.7-1.4,1.3-1.8c0.6-0.4,1.6-0.4,2,0.2c1.8,2.6,1.2,6.5-1.3,8.4c-0.2,0.1-0.4,0.3-0.6,0.4C32.5,72.7,30.7,68,30.7,63.3z
		 M31.8,78.5c0.3,0.3,0.8,0.3,1.2,0.3c0.5,0,1,0.3,1,0.7c-0.1,2.5,2.1,4.6,2.5,7.2c0.2,0.9,0.7,1.8,1.2,2.6c0.8,1.4,1.7,2.8,2.6,4.3
		c-0.6,0.2-1.2,0.4-1.8,0.4c-2.5-4.7-4.9-9.4-6.6-14.4C31.8,79.2,31.7,78.8,31.8,78.5z M66.9,130.2c-2.8-0.9-5.5-1.9-8.3-2.9
		c-1.5-0.6-3-1.1-4.6-1.5c-1.2-0.3-2.4-0.5-3.7-0.7c-9.5-1.5-18.8-4-27.7-7.4c-2.8-1.1-5.7-2.3-7.6-4.7c-2.9-3.6-8.2-5.2-12.6-3.7
		c2.6-2.1,6.3-2.8,9.5-1.8c0.9,0.3,1.8,0.8,2.7,1.2c5.7,2.8,11.3,5.8,16.9,8.8c5.5,3,12.4,2,18.1,4.5c3.5,1.5,8.1-0.3,11.1,2
		c0.6,0.5,1.1,1.1,1.5,1.5c0.9,0.7,2,1,3,1.4c2.1,0.7,4.1,1.4,6.1,2.1C70.3,130.2,68.4,130.7,66.9,130.2z M44.2,118.8
		c-1.1,0.2-1.9-1-2.5-2c-1.6-2.4-3.9-4.4-6.6-5.4c-0.1,0.8,0.7,1.3,1.3,1.7c2.2,1.3,4,3.1,5.2,5.2c-1.1,0.3-2.2-0.4-3.1-1.2
		c-1.1-0.9-2.1-1.8-3.2-2.7c-0.9-0.8-1.9-1.5-3-1.3c1.4,1.5,2.9,2.9,4.3,4.4c-2.5-0.1-4.4-2.2-6.8-3.1c-3-1.1-5.8-2.4-8.6-4
		c2.9-0.7,5.9-0.6,8.9-0.6c1.5,0,3,0,4.4,0.3C39,111,42.9,114.4,44.2,118.8z M39.4,111.5c0.1-0.3,0.5-0.2,0.8,0
		c0.6,0.4,1.3,0.5,2,0.6c0.4,0,0.9,0.1,1.3,0.2l-1,1c-0.1,0-0.1,0.1-0.1,0.2c-0.6-0.6-1.4-1-2.2-1.5C40,111.8,39.7,111.7,39.4,111.5
		z M38.2,118.1c-0.7-0.2-1.3-0.8-1.4-1.5c0.1,0,0.3,0.1,0.4,0.2C37.5,117.2,37.9,117.7,38.2,118.1z M64.7,110.5
		c2,0.5,3.9,1.3,5.6,2.5c1.2,0.9,2.6,1.3,4,1.9c6.9,2.8,12.9,7.4,19.8,10.3c-6,1.1-12.3,0.2-18,2.4c-0.6,0.3-1.2,0.5-1.8,0.6
		c-0.9,0.1-1.9-0.2-2.8-0.6c-1.1-0.4-2.2-0.8-3.3-1.3c-1.3-0.6-2.7-1.1-3.9-1.9c-1.3-0.9-2.5-2-4-2.7c-3.4-1.5-7.5,0-10.9-1.6
		c-0.7-0.4-1.4-0.9-2.2-1c-0.4,0-0.9,0.1-1.4,0c-0.4-0.1-0.9-0.5-0.8-1c3.5-1.2,7-2.4,10.3-4.2c0.9-0.6,1.9-1.1,2.9-1.6
		C60.2,111.3,62.5,110.9,64.7,110.5z M59.3,106.5c0.8,0.2,1.2,1.1,1.7,1.7c0.2,0.3,0.6,0.5,0.9,0.7c0.5,0.3,1.1,0.4,1.4,0.9
		c-1.5-0.2-2.9-0.3-4.4-0.2C59.2,108.6,59.3,107.5,59.3,106.5z M61.3,110.2c-1.5,0.2-2.9,0.7-4.2,1.4c-1.1,0.6-2.1,1.3-3.2,1.9
		c-2,1.1-4.2,1.7-6.3,2.4c-1.1,0.4-2.3,0.9-2.8,2c-0.4-1.5-1.1-2.9-2-4.2c2.5-1.1,4-3.9,6.6-4.6c2.2-0.6,4.6,0.6,6.9,1
		C58,110.4,59.6,110.3,61.3,110.2z M48.2,100.6c-0.3,2.1,1.9,4.3,4,3.9c1.8-0.3,3.6,0,5.2,0.9c0.3,0.2,0.7,0.5,0.8,0.9v0.7
		c0,0.9-0.1,1.7-0.2,2.5c-2.6-0.1-5.2-1.5-7.8-1.3c-1.9,0.1-3.6,1-4.8,2.5c-0.6,0.9-2,0.8-3.1,0.5c-1.1-0.4-2.2-0.9-3.3-0.7
		c-0.8,0.2-1.4-0.3-2.1-0.7c-1.3-0.6-2.7-0.7-4.1-0.8c-3.6-0.2-7.2-0.4-10.7,0.4c-1.1,0.3-2.3,0.6-3.2,0c-0.1-2.7,0.2-5.5,1-8.1
		c0.2-0.7,0.5-1.6,0-2.2c-0.9,0.1-0.8,1.4-1.1,2.2c-0.5,1.2-2.2,1.2-3.5,1.1c-2.1-0.2-4.5,0-6,1.5c0.3,0.4,1,0.3,1.5,0.1
		c2.4-0.7,4.9-0.9,7.3-0.6c0,1.8-0.1,3.5-0.1,5.3c-1.7-0.4-2.9-1.8-4.4-2.6c-2.2-1.1-4.7-0.9-7.1-0.7c0.7-5.1,2.3-10.2,4.7-14.8
		c0.5-1,1.1-1.9,1.6-2.8c1.8-3.1,3.7-6.3,6.8-8c2-1.2,4.4-1.5,6.7-1.7c1.4-0.1,2.9-0.2,4.2,0.4c1.8,5.5,4.2,10.8,7,15.8
		c-2.3,0.7-4.6,1.2-7,1.3c-0.4,0-0.9,0-1.3,0.2c-0.4,0.2-0.7,0.7-0.6,1.1c0.1,0.6,1,0.7,1.6,0.7c2.7-0.1,5.4-0.1,8.1-0.1
		c0.9,0,1.6,1.1,2.1,1.9c0.6,0.9,1.8,1.6,2.5,0.9c1-1,2.4-1.5,3.8-1.2C47.5,99.3,48.3,99.8,48.2,100.6z M40.6,97.7
		c2,0,3.9,0,5.8-0.2c-0.1,0.1-0.1,0.3-0.2,0.4c-1.4,0.3-2.9,0.9-4.2,1.7C41.4,99,41,98.4,40.6,97.7z M46.8,94.9
		c0.3,0.5,0,1.2-0.5,1.5s-1.2,0.3-1.8,0.3H30.8c-0.4,0-0.9,0-1.3-0.2c2.9-0.2,5.8-0.6,8.6-1.4c1.6-0.4,3.2-0.9,4.8-1
		c0.5,0,1.2,0.1,1.7,0.3C45.3,94.7,46,94.9,46.8,94.9z M44.4,93c0.4-0.7,1.1-1.2,1.9-1.4c0.2,0.4-0.1,1-0.4,1.4
		c-0.2,0.2-0.4,0.5-0.7,0.5C44.8,93.5,44.6,93.2,44.4,93z M62.3,87.6c0,0.1,0,0.3-0.1,0.4c-0.2,0.3-0.7,0.3-1.1,0.3
		c-4.8-0.5-9.7,0.1-14.2,1.8c-1.3,0.5-2.7,1.2-3.2,2.4c-0.4,0.9-1.6,1.2-2.4,0.8c-2.1-3.4-3.9-6.9-5.3-10.6c-0.5-1.3-1-2.6-1.2-4
		c2.1-0.9,3.8-2.7,4.2-4.8c0.9,2.6,2.7,5,5.1,6.5c2.4,1.5,5.3,2.1,8.1,1.7c0.6-0.1,1.3-0.2,1.9-0.2c0.7,0,1.3,0.2,2,0.3
		c1.5,0.3,3,0.7,4.5,1c0.9,0.1,1.5,1,1.7,1.8S62.4,86.7,62.3,87.6z M62.5,82.4c0.4-0.9,0.2-1.9,0.4-2.9c0.2-1,0.9-2,1.9-2.5
		c-0.1,0.4-0.2,0.9-0.2,1.4c0,1.6-1.1,3.1-1.6,4.6C62.8,82.8,62.7,82.6,62.5,82.4z M63.7,88.5c-0.4-1.8-0.2-3.7,0.5-5.4
		c0.4-1,1-2,1.3-3c0.3-1.2,0.3-2.6,0.5-3.8c0.5-2.7,2.6-5,4.8-6.7c-0.9,2.5-0.5,5.1,0.2,7.6s1.7,4.9,2.1,7.4
		c0.1,0.8,0.1,1.7-0.2,2.4c-0.3,0.5-0.7,0.9-1.1,1.4c-1.4,1.6-1.6,4-1.7,6.1C68.4,92,66.1,89.9,63.7,88.5z M95.7,61.5
		c-5.2,5-10.1,10.2-14.7,15.7c-0.6,0.8-1.3,1.6-1.7,2.5c-0.5,1-0.6,2-1,3c-0.5,1.2-1.4,2.1-1.8,3.3c-1,2.1-0.6,4.6-1.3,6.8
		c-0.6,2-2.1,3.9-1.9,6c-2.3-2.3-2.7-6.1-1-8.8c0.7-1.1,1.6-2,1.7-3.3c0.2-4,2.4-7.6,5.1-10.6c2.7-2.9,5.9-5.4,8.7-8.2
		c2.3-2.3,4.2-4.8,6.2-7.3c0.8-1.1,1.7-2.1,2.5-3.2c1.4-1.8,2.9-3.9,2.4-6.1c0.7,0,1.7,0.4,1.6,1.1C99.9,55.8,98.2,59.1,95.7,61.5z"
		/>
	<path class="st0" d="M50.8,69c0.2,0.2,0.2,0.6,0,0.9c-0.2,0.2-0.6,0.2-0.9,0c-0.2-0.4,0-1,0.4-1.2C50.5,68.8,50.6,68.9,50.8,69"/>
	<path class="st0" d="M54,70.8c-0.1,0.2-0.2,0.4-0.3,0.6c-0.4,0-0.7-0.2-0.8-0.6c-0.1-0.3,0.2-0.7,0.6-0.8
		C53.8,70,54.1,70.5,54,70.8"/>
	<path class="st0" d="M67,55.9c0.1,0.1,0.1,0.3,0,0.4c-0.8,0.3-1.7,0.7-2.5,1.1c-0.3-0.3,0-0.8,0.3-1C65.4,55.9,66.2,55.7,67,55.9"
		/>
	<path class="st0" d="M55.4,39.5c-1.3,0.4-2.7-0.6-2.8-2c0-0.1,0-0.3,0.1-0.4c0.1-0.2,0.4-0.2,0.6-0.1c0.2,1,1.1,1.8,2.1,2
		C55.4,39.2,55.4,39.4,55.4,39.5"/>
	<path class="st0" d="M74.2,93.3c-0.5,0.5-1.2,0.7-1.9,0.5c-0.5-0.5-0.6-1.4-0.2-2c0.5-0.4,1.2-0.5,1.7-0.1
		C74.3,92.2,74.4,92.8,74.2,93.3 M73.3,92.5c0-0.1,0-0.2,0-0.3c-0.3,0-0.6,0.3-0.4,0.6c0.1,0.3,0.6,0.2,0.7-0.1
		C73.4,92.7,73.3,92.6,73.3,92.5"/>
	<path class="st0" d="M76.2,82.8c-0.4-0.3-0.7-0.9-0.6-1.4s0.4-1,0.9-1.2c0.1-0.1,0.3-0.1,0.4-0.1c0.8-0.1,1.4,0.8,1.3,1.5
		c0,0.5-0.3,0.9-0.6,1.2C77.2,82.9,76.7,82.9,76.2,82.8 M77.5,81.7c0-0.2-0.1-0.4-0.1-0.6C77.2,81,77,81,76.7,81
		c-0.2,0.2-0.3,0.5-0.3,0.7C76.7,81.9,77.2,82,77.5,81.7"/>
	<path class="st0" d="M61.6,69.7c-1,0.2-2,0.3-3-0.1c-0.5-0.2-0.9-0.6-1.3-0.9c-0.3-0.2-0.5-0.5-0.8-0.7c-0.3-0.3-0.1-0.9,0.3-1.1
		c0.4-0.2,0.9-0.1,1.2,0.1c0.4,0.2,0.7,0.5,1.1,0.7c0.7,0.4,1.4,0.5,2.1,0.9C61.7,68.9,61.9,69.4,61.6,69.7"/>
	<path class="st0" d="M63.1,67.4c-0.3-0.8-1-1.3-1.6-1.8c-0.4-0.3-0.8-0.6-1.2-0.8c-0.4-0.2-0.8-0.2-1.1-0.4
		c-0.3-0.2-0.6-0.6-0.6-0.9c0.7-0.2,1.5,0.1,2.2,0.4c1.7,0.9,3.3,2.3,3.4,4.2C63.8,68.1,63.3,67.8,63.1,67.4"/>
	<path class="st0" d="M61,33.4c-0.1,0.2-0.2,0.5-0.3,0.7c-0.2-0.1-0.4,0.1-0.5,0.3c-1.8,0.4-3.4,1.6-4.3,3.2
		c-0.1,0.2-0.2,0.5-0.5,0.6c-0.2,0.1-0.6,0.1-0.7-0.1c-0.2-0.1-0.4-0.5-0.3-0.7c0.7-1.7,1.9-3.1,3.5-3.9c0.5-0.1,1-0.3,1.5-0.4
		C60,33,60.6,33.1,61,33.4"/>
	<path class="st0" d="M46.6,61.3c0.4,0.6,1,1.1,1.7,1.4c1,0.3,2,0.7,2.9,1c0.3,0.1,0.8,0.4,0.7,0.7c-0.6,0.2-1.2,0.4-1.8,0.5
		c-1.2,0.2-2.5-0.2-3.4-1c-0.6-0.7-0.9-1.7-0.8-2.7C46.2,61.2,46.4,61.2,46.6,61.3 M47.1,63.1c0.1,0.2,0.2,0.3,0.4,0.5
		c0.1,0,0.2,0,0.3-0.1c-0.1,0-0.2-0.2-0.2-0.3c-0.1-0.1-0.1-0.3-0.3-0.3C47.1,62.8,47,63,47.1,63.1 M49.7,64.4c0.2,0,0.4,0,0.6,0
		c0.1-0.1,0.1-0.2,0.1-0.3c-0.2,0-0.5,0-0.7,0.1C49.4,64.2,49.6,64.4,49.7,64.4"/>
	<path class="st0" d="M65,36.7c-0.3,0.5-0.7,1.1-1,1.6c-0.3,0.4-0.5,0.8-0.8,1.2c-0.3,0.3-0.7,0.6-1.1,0.8c-0.7,0.3-1.4,0.4-2.1,0.3
		c-0.6,0-1.4-0.2-1.7-0.7c-0.2-0.5,0-1.1,0.4-1.5c0.6-0.7,1.5-1,2.4-1.2c1.4-0.4,2.8-0.8,4.1-1.3c0.1,0.1,0.2,0.3,0.3,0.4
		c-0.2,0-0.3,0.2-0.2,0.3C65.2,36.7,65.1,36.7,65,36.7 M60.3,39.2c-0.2,0-0.3-0.3-0.2-0.5c-0.3-0.1-0.6,0.2-0.7,0.4
		c0,0.1-0.1,0.1-0.1,0.2c0,0.4,0.9,0.1,0.9,0.5c0.1-0.2,0.3-0.3,0.4-0.3C60.5,39.5,60.4,39.3,60.3,39.2 M62.7,37.9
		c0,0.2,0.1,0.5,0.3,0.6c0.3-0.4,0.5-0.8,0.6-1.3c-0.1-0.1-0.2-0.1-0.3,0C63.1,37.4,62.9,37.6,62.7,37.9"/>
	<path class="st0" d="M53.8,76.2c-0.7,0.3-1.5,0.4-2.2,0.4c-0.2,0-0.4,0-0.6,0c-1.7-0.2-3.3-1.1-4.3-2.4c-0.4-0.5-0.7-1-0.7-1.6
		c0.8,0.1,1.6,0.1,2.4-0.1c0.6-0.1,1.2,0,1.7,0.2c1.3,0.5,2.5,1.5,3.3,2.7C53.6,75.7,53.7,76,53.8,76.2 M47.5,73.8
		c0.3,0.5,0.8,1,1.3,1.3c1,0.6,2.1,0.8,3.3,0.7c0.1-0.2-0.3-0.3-0.5-0.4c-1.2-0.1-2.3-0.5-3.2-1.3C48.1,74,47.8,73.7,47.5,73.8
		 M50,73.5c-0.2-0.1-0.5-0.2-0.7-0.3c-0.3-0.1-0.7-0.1-1,0c1.1,0.6,2.2,1.1,3.4,1.5C51.4,74.1,50.7,73.8,50,73.5"/>
	<path class="st0" d="M67.6,51.9c-0.8,0.4-1.5,0.9-2.1,1.6c-0.2,0.2-0.3,0.3-0.4,0.6c-0.6,0.4-1.2,0.8-1.8,1.2
		c-0.5,0.3-1.1,0.7-1.7,0.5c-0.2,0-0.4-0.2-0.5-0.3c-0.7-0.7-0.7-2,0-2.7c0.4-0.4,1-0.5,1.5-0.7c1.1-0.3,2.3-0.6,3.4-0.9
		c0.7-0.2,1.5-0.2,2.2-0.2C68.4,51.4,67.9,51.7,67.6,51.9 M64.8,52.9c-0.9,0.4-1.7,0.9-2.4,1.6c-0.2,0.2-0.3,0.4-0.3,0.6
		c0.9-0.5,1.8-1.1,2.6-1.8C64.9,53.4,64.9,53.1,64.8,52.9 M62,54.2c-0.1-0.4,0.3-0.7,0.6-0.8c0.4-0.3,0.9-0.5,1.3-0.8
		c-0.7,0.1-1.4,0.3-2,0.7c-0.2,0.2-0.5,0.3-0.6,0.6c-0.1,0.2-0.1,0.6,0.1,0.8C61.7,54.4,61.9,54.3,62,54.2 M65.8,52.2
		c0.1,0,0.2-0.1,0.3-0.1c0.1,0,0.1-0.2,0-0.3s-0.2-0.1-0.3-0.1c-0.5,0.1-0.9,0.3-1.2,0.7C65.1,52.5,65.5,52.4,65.8,52.2"/>
</g>
</svg>
