<?xml version="1.0" encoding="utf-8"?>
<!-- Generator: Adobe Illustrator 19.2.0, SVG Export Plug-In . SVG Version: 6.00 Build 0)  -->
<svg version="1.1" id="Layer_1" xmlns="http://www.w3.org/2000/svg" xmlns:xlink="http://www.w3.org/1999/xlink" x="0px" y="0px"
	 viewBox="0 0 200 268.5" style="enable-background:new 0 0 200 268.5;" xml:space="preserve">
<style type="text/css">
	.st0{fill:#03A9F4;}
</style>
<g id="girl-bronchitis">
	<path class="st0" d="M0,26.4c3.1,1.7,6,3.7,8.3,6.5c2.9,3.5,5.9,7,8.9,10.5c1.9,2.2,3.7,4.5,5.7,6.4c3.5,3.3,7.2,6.2,10.7,9.4
		c1.5,1.4,2.9,2.9,4.3,4.5c0.6,0.6,0.5,1.4-0.3,2c-0.3,0.2-0.6,0.5-1.1,0.8c1.1,0.8,2.1,1.6,3.1,2.4c0.5-1.4,0.8-2.9,1.4-4.3
		c1.8-3.8,6.2-7.2,11-4.2c1.3,0.8,2.7,1.5,4.3,2.3c0.1-2.8,0.2-5.2-0.9-7.6c-0.4-0.9-0.5-2-0.5-3.1c-0.1-3.7-0.3-7.4,0-11
		c0.4-4,0.9-8,2.1-11.8c0.8-2.7,2.5-5.2,4.1-7.6c2.3-3.4,5.6-5.9,8.7-8.5c2-1.7,4.2-3.1,6.6-4.2c1.7-0.7,3.2-1.9,4.9-2.4
		c3.8-1,7.3-3,11.4-3c2,0,4-0.9,5.9-1.6c3.3-1.1,6.8-1.6,10.2-2.1c1.9-0.3,3.5,0.9,5.3,0.6c1.8-0.3,3.7-0.4,5.5-0.5
		c0.5,0,1-0.1,1.4,0.1c2.1,0.7,4.3,1.5,6.4,2.4c2.4,1,4.8,2.1,7.3,3.2c0.5,0.2,1.2,0.4,1.6,0.8c0.5,0.5,1,1.3,1,1.9
		c0,1.1,0.3,1.9,1.1,2.7c2.7,2.7,4.2,6.1,5.3,9.6c1.1,3.3,2.3,6.6,3.2,9.9c0.5,2,0.6,4.2,1,6.3c0.7,3.6,2.4,6.5,5.7,8.4
		c1.9,1.1,3.7,2.3,4.8,4.4c1.7,3.3,1.5,6.1-0.7,8.7c-0.4,0.4-0.6,1.3-0.5,1.8c0.4,1.2,1.1,2.4,1.9,3.5c0.2-1,0.3-2.1,0.7-3.1
		c0.6-1.5,0.7-3.1,1-4.7c0.1-0.7,0.6-1.4,0.9-2.1c0.5-1.2,1.7-1.4,2.6-1.1c0.7,0.3,1.1,1.2,1.5,1.9c0.2,0.3,0.1,0.7,0.2,1.1
		c1.3-1.3,2.3-1,3,0.5c1,2.2,1,4.5,1.1,6.8c0,1.3,0.2,2.7,0,4c-0.4,3.4,0.9,6.5,1.6,9.7c1.3,5.8,2.1,11.7,1.6,17.7
		c0,0.5-0.3,1-0.4,1.5c-0.2,0.6-1,1.3-0.1,2c0.1,0,0,0.2,0,0.3c-1.6,6-1.9,12.1-1.4,18.2c0.3,3.6,1.2,7.2,1.7,10.8
		c0.2,1.3,0.4,2.7,0.4,4.1c0.2,5.1,0.3,10.2,0.5,15.3c0.1,4.2-1,8.2-1.8,12.2c-0.3,1.5-0.7,3-1.1,4.4c-0.2,0.6-0.4,1.2-0.7,1.9
		c2.1,2.8,4.2,5.9,6.5,8.7c2.2,2.8,5.1,4.7,8.3,6.3c4.6,2.2,8.9,5,13.3,7.5c0.3,0.2,0.6,0.3,1,0.5c0,0.8,0,1.6,0,2.4
		c-0.7-0.3-1.3-0.6-2-0.9c-4.4-2.5-8.6-5.2-13.2-7.4c-3.8-1.9-7.1-4.3-9.7-7.6c-2.9-3.7-5.6-7.5-8.5-11.2c-1.3-1.6-2.6-3.2-4.2-4.5
		c-2.4-2-4.7-4-6.4-6.7c-1.2-1.9-2.3-3.9-2.6-6.2c-0.1-0.6-0.2-1.2-0.3-1.8c-0.3,0-0.5,0-0.6,0.1c-4,2-7.9,4-11,7.4
		c-1.2,1.3-2.3,2.7-3.5,3.9c-3.2,3.4-6.7,6.6-8.8,10.9c-0.9,1.9-1.8,3.7-1.5,5.9c0,0.3,0.4,0.7,0.7,0.9c1,0.6,2.2,0.8,3,1.6
		c4.2,3.9,8.7,7.3,13.7,10.1c0.3,0.2,0.6,0.4,0.9,0.6c2.1,1.5,4.1,3.2,6.2,4.6c2,1.3,4.3,2.3,6.2,3.8c2.2,1.7,4.2,3.8,6.3,5.7
		c2.1,1.9,4,4.1,6.3,5.6c2.8,1.8,6,3,9,4.4c0.9,0.4,1.9,0.7,2.8,1.1c4.7,2.3,9.4,4.6,14,7c1.1,0.6,2.1,0.8,3.2,0.2
		c0,1.1,0,2.3,0,3.4c-1.4-0.7-2.6-0.5-3.8,0.5c-0.3,0.2-0.6,0.4-0.9,0.6c-3.2,2.5-6.7,4.5-10.7,5.7c-7.8,2.3-14.8,6-21.5,10.5
		c-0.7,0.5-1,1-0.8,1.8c0.3,1.8,0,3.6-0.8,5.3c-0.5,1.1-0.7,2.3-0.9,3.5c-0.7,3.5-0.5,7.1-1.6,10.5c-0.8,2.7-1.1,5.5-1.6,8.3
		c-35,0-70.1,0-105.1,0c-0.2-1.1-0.5-2.1-0.5-3.2c0-4.6,0.1-9.2,0.2-13.8c0-1.7,0-3.4,0-5.1c0-0.3,0-0.6-0.1-1
		c-1.6,0.8-3,1.5-4.4,2.2c-3.7,2.1-7.4,4.1-10.9,6.5c-3.8,2.6-8,4.5-12,6.9c-2.8,1.6-5.4,3.5-8.1,5.2c-1.5,0.9-3.1,1.6-4.6,2.4
		c-0.8,0-1.6,0-2.4,0c0.8-0.6,1.5-1.4,2.3-1.9c2-1.1,4.1-2,6-3.2c3-1.8,5.9-3.9,8.9-5.7c2.7-1.6,5.5-3,8.2-4.6
		c2.2-1.3,4.2-2.9,6.5-4.2c2.3-1.4,4.6-2.6,7-3.8c0.7-0.3,0.8-0.6,0.6-1.4c-0.5-1.7-0.6-3.6-1.1-5.3c-0.8-2.6-0.6-5.4-1.9-7.8
		c-0.3-0.6-0.4-1.3-0.5-2c-0.2-1.3-0.3-2.5-0.6-3.8c-0.3-1.2-0.8-2.3-1.1-3.4c-1.9-5.5-3.7-11-5.6-16.4c-1.1-2.9-2.2-5.9-3.6-8.6
		c-2-3.9-4.2-7.6-6.3-11.4c-0.5-0.9-1.2-1.3-2.1-1.3c-1.9,0-3.6-0.8-5-1.9c-2.4-2-4.7-4.2-7.1-6.3c-2.5-2.2-5.3-3.7-8.8-3.6
		c-1.7,0.1-3.5-0.3-5.3-0.4c0-0.6,0-1.3,0-1.9c2,0.2,4,0.4,6,0.4c2,0,3.9,0.5,5.7,1.4c3,1.5,5.3,3.8,7.4,6.2
		c3.2,3.4,7.2,4.5,11.5,4.7c2.8,0.1,5.6-0.4,8.4-0.8c1.5-0.2,2.9-0.7,4.5-1.1c-0.3-0.1-0.3-0.2-0.4-0.2c-2.9-0.5-5.8-1-8.6-1.5
		c-0.3-0.1-0.6-0.4-0.9-0.7c0.3-0.3,0.5-0.6,0.9-0.7c0.4-0.1,0.9-0.1,1.3,0c3.3,0.7,6.6,1.3,9.9,2c2,0.4,4,0.5,5.7-1.1
		c2-1.8,3.9-3.7,5.9-5.7c-1.5-1-2.8-1.3-4.4-1.2c-2.4,0.1-4.9,0.2-7.3,0.1c-2.9-0.1-5.7-0.3-8.6-0.5c-0.4,0-0.8,0-1.1-0.1
		c-0.3-0.2-0.6-0.5-0.9-0.8c0.3-0.3,0.7-0.8,1-0.8c2.8,0,5.5,0.1,8.3,0.2c2.1,0.1,4.1,0.3,6.1,0.3c2.4,0,4.8-0.4,7.1,0.9
		c0.4,0.3,1,0.3,1.6,0.5c-0.7-2.4,1.1-3.5,2.4-5.2c-4.5-1.6-8.7-3.1-13.1-4.6c0,1.4,0.1,2.5,0,3.5c0,0.4-0.4,0.7-0.6,1.1
		c-0.3-0.3-0.7-0.6-0.8-1c-0.1-0.3,0-0.8,0.1-1.2c0.1-0.8,0.1-1.7,0.2-2.7c-1.1-0.1-2.1-0.3-3.1-0.4c-1.1-0.1-2.3-0.1-3.4-0.3
		c-1.5-0.3-3.2-0.5-4.5-1.2c-2.1-1.2-4-2.8-5.1-5c-0.2-0.3-0.1-0.8-0.2-1.1c0.4,0.1,0.9,0.1,1.2,0.4c0.8,0.8,1.4,1.6,2.2,2.4
		c2.4,2.4,5.5,2.8,8.6,3.2c2,0.3,4,0.5,5.9,0.9c2,0.4,2.1,0.4,2.9-1.6c-0.1-0.1-0.1-0.1-0.2-0.2c-5-2.9-9.9-5.8-14.9-8.6
		c-1.3-0.7-2.8-1.4-4.2-1.7c-2.2-0.4-4.4-0.5-6.6-0.6c-2.3-0.1-4.5,0-6.8,0c-2.6,0-5.2,0.3-7.7,0.1c-3.8-0.2-7.5-0.6-11.3-0.9
		c0-0.6,0-1.3,0-1.9c3.1,0.2,6.2,0.5,9.3,0.7c1.7,0.1,3.3,0.2,5.1,0.3c-0.1-0.5-0.2-0.8-0.3-1c-1.4-2.9-1.8-6-1.7-9.2
		c0-1.7-0.3-3.4-0.7-5.1c-1-5.1-2.2-10.1-3.2-15.2c-0.8-4-1.5-8-2.2-11.9c-0.6-3.1-1.1-6.2-1.7-9.2C4,90.4,3.5,87,2.6,83.7
		c-0.4-1.7-0.8-3.4-0.7-5.1c0-0.4,0-0.9-0.1-1.3c-0.2-2-0.5-4-0.6-6c0-0.4,0.5-0.9,0.7-1.3c0.3,0.4,0.8,0.7,0.9,1.1
		c0.3,1.5,0.4,3,0.5,4.5c0.1,1.2,0.5,2.3,0.4,3.5c-0.1,1.8,0.6,3.4,1.1,5c0.1,0.2,0.3,0.5,0.6,0.6c1.9,1.1,3.7,2.2,5.6,3.2
		c0.4,0.2,1.2,0.1,1.5-0.2c2.9-2.9,5.7-5.9,8.6-8.9c1.3-1.4,2.7-2.8,4-4.2c2.6-3,4.7-6.4,8.1-8.6c0.8-0.5,1.5-1.1,2.4-1.8
		c-1.1-1.1-2.1-2.1-3.2-3.1c-3.3-3-6.8-5.8-10.1-8.9c-2.4-2.3-4.5-4.8-6.7-7.4c-2.8-3.3-5.6-6.6-8.3-9.9c-2.1-2.6-4.5-4.7-7.4-6.3
		C0,27.9,0,27.1,0,26.4z M65.5,174.6c0,1.6,0.1,3.4,0,5.1c-0.1,1.6-0.2,3.3-0.4,4.9c-0.3,2.2-1,4.4-1,6.7c-0.1,4.5-0.3,9-1.5,13.4
		c-1.3,5.1-2.1,10.4-4.2,15.3c-1.2,2.9-1.3,5.9-1.4,9c0,0.9,0,1.9,0.4,2.6c1.5,2.8,3,5.5,4.7,8.1c2,2.9,4.3,5.6,6.4,8.4
		c1.2,1.6,2.4,3.3,3.7,4.8c2.1,2.4,4.7,3.9,7.8,4.1c4.4,0.3,8.7,0.2,13.1,0.2c0.6,0,1.2-0.3,1.7-0.5c3.1-0.9,6.2-1.9,9.3-2.8
		c1.2-0.4,2.5-0.7,3.6-1.2c2.8-1.5,5.5-3.2,8.3-4.7c2.7-1.4,5.4-3,8.3-3.8c3-0.9,5.2-2.6,7.2-4.8c0.2-0.2,0.2-0.5,0.3-0.8
		c0.3-1.7,0.5-3.4,0.8-5.1c0.7-3.1,1.5-6.2,2.2-9.2c0.4-1.7,0.8-3.3,1.1-4.8c-1.7,0.2-3.2,0.5-4.8,0.4c-2-0.2-3.9-0.7-5.9-1.2
		c-5.9-1.4-11.4-3.7-16.4-7.1c-2.6-1.8-5-3.9-7.3-6.1c-2.9-2.8-5.6-5.7-8.4-8.6c-0.7-0.7-1.2-1.9-2.1-2.1c-1-0.3-1.3-0.9-1.7-1.6
		c-0.2-0.5-0.4-0.9-0.7-1.4c-2.7-4.6-4.9-9.4-6.6-14.5c-1.7-5-3.3-10-5.2-14.9c-1.6-4.2-3.6-8.3-5.5-12.5c-0.8-1.8-1.6-3.6-2.4-5.4
		c-0.2,0.3-0.3,0.4-0.3,0.6c-0.4,2.8-0.9,5.6-1.2,8.5c-0.3,2.4-0.3,4.8-0.5,7.3c-0.1,1.4-0.3,2.7-0.5,4.4c0.4-0.3,0.7-0.4,0.7-0.5
		c0.4-1.2,0.6-2.4,1-3.5c0.5-1.5,2.2-2.7,3.7-2.7c1.3,0,2.3,0.9,2.9,2.7c0.1,0.2,0.1,0.3,0.2,0.5c1.7,5.1,1.6,10.4,1.4,15.6
		c-0.1,1.7-0.7,3.2-2,4.4c-1.5,1.4-3.4,1.3-4.4-0.4c-1-1.7-1.8-3.5-2.7-5.5C67,175.3,66.2,175,65.5,174.6z M146.4,37.3
		c-0.2,0.2-0.3,0.3-0.4,0.5c-1.3,1.5-2.6,3-4,4.5c-0.2,0.2-0.7,0.1-1,0.1c0-0.4-0.1-0.8,0-1.1c1.2-1.8,2.5-3.6,3.8-5.4
		c1.1-1.6,1.6-3.2,0.9-5.1c-1.2-3.3-2.2-6.6-3.3-9.9c-1.1-3.5-2.9-6.6-5.3-9.3c-0.9-1-2-1.1-3-0.1c-0.3,0.3-0.5,0.5-0.8,0.8
		c-4.9,4.3-9.8,8.7-14.7,13c-1.6,1.4-2.8,3-3,5.2c-0.3,3.9,0.4,7.8,0.9,11.7c0.3,2.6,0.5,5.2-0.2,7.8c-0.5,1.5-1,3.1-1.3,4.7
		c-0.7,3.2-3,5-5.7,6.3c-0.9,0.4-0.9,0.8-0.4,1.4c0.3,0.5,0.7,1.1,0.9,1.7c0.1,0.3-0.2,0.8-0.4,1c-0.2,0.1-0.8-0.1-0.9-0.3
		c-0.8-1.3-2-2.2-3.2-3.1c-1.4-1.1-4.1-1.2-5.4,0.1c-1.2,1.2-1.6,2.6-1.8,4.2c-0.5,4.2-0.1,8.1,3,11.4c0.5,0.5,0.8,1.1,1.3,1.6
		c1.6,1.5,3.2,3.1,4.9,4.5c0.3,0.2,0.7,0.4,1.1,0.4c1.4,0,2.9-0.1,4.3-0.3c1.2-0.2,2.7-1.7,2.8-3c0.2-1.5,0.3-3,0.2-4.5
		c-0.1-2-1.1-3.4-2.6-4.6c-1.1-0.9-1.5,0-2,0.6c-0.5,0.6-0.6,1.3,0.3,1.9c0.8,0.5,1.6,1.3,2,2.1c0.6,1.1-0.2,2.1-1.4,2.1
		c-1.5,0-2.9,0.1-4.4,0c-0.5,0-1.1-0.3-1.3-0.6c-1.2-2.1-3.2-3.9-3.1-6.7c0-0.5,0.3-1.1,0.7-1.4c0.3-0.2,1,0.1,1.3,0.4
		c0.5,0.3,0.6,0.8,0,1.3c-0.1,0.1-0.2,0.5-0.1,0.7c0.4,0.9,0.9,1.7,1.2,2.6c0.7,1.8,2.1,2.3,3.8,2.3c0.6,0,1.1-0.1,1.7-0.1
		c0-0.1,0.1-0.3,0.1-0.4c-0.5-0.4-1.1-0.8-1.6-1.2c-0.4-0.3-0.8-0.6-1-1c-0.7-1.6,1-4.2,2.8-4.3c0.8-0.1,1.4,0,2.1,0.7
		c1.8,1.7,3.3,3.5,3.1,6.3c-0.1,0.9,0.1,1.9,0.1,2.8c0,2-0.6,3.7-2.4,4.7c-1.4,0.7-2.8,1.5-4.3,2c-0.7,0.2-1.7,0.8-2.6-0.2
		c-0.6-0.7-1.5,0-1.8,0.9c-0.8,2.1-1.4,4.3-2.5,6.2c-0.9,1.6-1.9,3.3-3.9,3.9c-2.3,0.7-4.5,1.6-6.7,2.2c-2,0.5-4,0.7-6,1
		c-1.5,0.2-1.9,0.5-2.1,2c0,0.3-0.3,0.6-0.3,0.9c-0.1,0.4-0.1,0.7-0.1,1.1c0,0.7,0.2,1.4,0.2,2.1c0,0.6-0.2,1.2-0.2,1.8
		c-0.1,0.8,0.2,1.3,1.1,1.2c1.4-0.2,2.8-0.4,4.2-0.8c1.1-0.3,2.2-1,3.3-1c2.7-0.2,5.5-0.6,8,0c4.1,0.9,7.9,2.9,12.2,3
		c2.7,0.1,5.3,0.4,7.9,0.5c1,0,2.1-0.4,3.1-0.8c1.4-0.6,1.5-2.2,2-3.4c1.1-2.6,1.6-2.9,4.4-3c4.4-0.1,8.9,0.9,13.2-0.8
		c2.2-0.8,4.8-1,6.3-3.2c1-1.5,2-3.1,2.8-4.7c1.1-2.3,1.3-5.1,3.7-6.6c-1-2-2.1-3.8-2.9-5.7c-0.9-1.9-1.9-3.9-0.9-6.1
		c1-2.1,1.9-4.3,3-6.3c0.6-1.2,1.7-2.1,2.5-3.2c0.2-0.3,0.3-1,0.2-1.4c-0.8-1.6-1.6-3.2-2.5-4.9c-0.4,0.1-0.9,0.2-1.3,0.3
		c-2.4,0.4-4.1-1.4-3.6-3.7c0.1-0.5,0.2-1.1,0.4-1.6c0.1-0.3,0.4-0.5,0.6-0.8c0.2,0.3,0.5,0.6,0.5,1c0,0.6-0.2,1.3-0.2,1.9
		c-0.1,0.7-0.1,1.4,0.7,1.6c0.7,0.2,1.4,0.1,2.1,0.2c-0.4-3.2,0.5-4.5,3.2-4.5c0.1-2,0.1-3.9-1.4-5.4c-1.2-1.2-2.7-2.1-4.2-3.1
		c-2.6-1.6-4.5-3.8-5.5-6.7C147,39.1,146.7,38.3,146.4,37.3z M153,142.3c0-0.2-0.1-0.6-0.2-1c-0.8-2.5-1.2-5.1-3.3-7.1
		c-2.7-2.5-5.3-5.3-7.9-7.9c-0.6-0.6-1.2-1.2-2-1.6c-2.3-1.2-3.4-3.4-4.2-5.6c-1.1-2.8-2.5-5.2-5.2-6.5c-1.4-0.7-3-2.1-4.6-0.2
		c-0.1,0.1-0.3,0.1-0.5,0.1c-3.5,0.2-7,0.5-10.5,0.4c-1.8,0-3.7-0.6-5.5-1c-4-1-7.7-3.2-12.1-2.9c-2.7,0.2-5.3,0.3-7.9,1.4
		c-1.4,0.6-3.1,0.6-4.7,0.6c-1.3,0-2-0.9-1.9-2.3c0-2.1,0.1-4.2,0.2-6.3c0-1.4-0.1-1.4-1.4-1.3c-1,1.9-1.8,3.8-2.9,5.5
		c-0.6,0.9-0.6,1.7-0.2,2.6c0.8,1.8,1.6,3.7,2.2,5.6c0.4,1.2,0.3,2.5,0.4,3.8c0.2,2.9,0.6,5.7-0.1,8.6c-0.3,1.2-0.4,2.7,0,3.9
		c0.6,1.8,1.6,3.5,2.5,5.1c1.4,2.5,2.9,4.8,4.2,7.3c1,1.9,1.9,3.9,2.9,5.8c1.8,3.7,4.2,7.1,7.3,9.9c1.3,1.2,2.7,2.4,3.7,3.8
		c2,2.9,4.9,4.8,7.4,7.1c0.6,0.6,1.1,1.4,1.8,1.9c1.5,1.1,2.9,2.3,4.5,3.2c2.1,1.2,4.2,2.4,6.5,3.1c2.3,0.8,4.7,1.1,7.1,1.5
		c1.9,0.3,3.9,0.6,6,0.8c-0.4-0.5-0.7-0.8-1-1.1c-2-1.9-4-3.7-6.9-4.5c-2-0.6-3.8-1.7-5.7-2.6c-0.4-0.2-0.8-0.4-1.2-0.6
		c-3.5-1.7-6.9-3.5-9.8-6.1c-3.4-2.9-5.7-6.4-7-10.6c-0.1-0.4,0.3-0.9,0.4-1.3c0.3,0.2,0.9,0.3,1,0.7c0.7,1.4,1.1,2.9,1.9,4.1
		c2.6,4.2,6.2,7.3,10.6,9.5c2.2,1.1,4.3,2.3,6.5,3.5c0.8,0.4,1.7,0.8,2.8,1.3c0-1.1-0.2-2,0-2.8c1.1-3.3,2.7-6.5,4.9-9.2
		c1.9-2.3,4-4.3,6-6.5c3-3.3,5.8-6.8,10-8.8C149.1,144.6,151,143.4,153,142.3z M67.7,113.4c0.1,0.6,0.2,1.2,0.2,1.7
		c0.1,4.3,0.2,8.7,0.2,13c0,1.1,0,2.3,0,3.4c0,0.3-0.1,0.7,0.1,1c1.3,2.2,1.1,4.6,1.2,6.9c0,0.7,0.2,1.5,0.5,2.2
		c0.8,1.7,1.8,3.3,2.5,5c2.3,5,4.8,9.9,6.8,15c1.9,4.7,3.3,9.6,5,14.4c3,8.2,6.4,16.2,13,22.4c2.2,2.1,4.5,4.1,6.6,6.2
		c4.1,4.2,9,7,14.3,9.3c2.7,1.2,5.7,1.8,8.6,2.8c3.3,1.2,6.6,1.5,9.8-0.2c0.5-0.2,1-0.6,1.2-1c1.1-2.6,1.9-5.2,3-7.8
		c1.4-3.3,2.9-6.6,1.8-10c-1.3,1.4-2.7,2.9-4.2,4.4c-0.7,0.7-1.6,1.2-2.4,1.9c-2.6,2.1-5.6,3.4-8.9,3.6c-2,0.2-4-0.1-6-0.2
		c-0.4,0-0.7-0.6-1-0.9c0.3-0.3,0.6-0.9,1-0.9c0.8-0.1,1.6,0,2.4,0.1c2.6,0.4,5.3,0.4,7.5-1c2.8-1.7,5.3-3.9,7.9-6
		c0.7-0.6,1.1-1.6,1.6-2.5c0.4-0.6,0.6-1.4,1-2c0.9-1.4,2.3-2.4,2.3-4.3c0-0.8-0.1-1.5-0.1-2.3c0-1.2-0.9-1.9-2-1.3
		c-1.6,0.9-3.2,1.9-4.6,3c-1.1,0.9-2.2,1.3-3.6,1.4c-2.6,0.1-5-0.5-7.4-1.3c-2.6-0.8-5.3-1-7.8-1.9c-4.9-1.6-9.7-3.7-14.3-6
		c-0.4-0.2-0.8-0.6-1.1-0.9c-1.1-0.9-2.1-1.7-3.2-2.6c-0.6-0.5-1.2-0.9-1.8-1.5c-1.1-1.2-2.1-2.6-3.3-3.7c-3-2.4-5.2-5.4-7.4-8.5
		c-1.6-2.2-2.9-4.5-4.4-6.8c0.7-0.6,0.8-0.7,1.4,0c0.7,0.7,1.3,1.5,1.9,2.3c2.3,3,4.4,6.1,6.8,8.9c2,2.4,4.4,4.5,6.7,6.7
		c0.3,0.3,0.8,0.5,1.2,0.8c1.1,0.8,2.1,1.6,3.2,2.4c0.6,0.5,1.3,1.1,2,1.2c1.8,0.3,3.3,1.1,4.9,1.9c3,1.5,6.2,2.8,9.4,3.9
		c3.1,1,6.3,1.7,9.5,2.4c2.1,0.5,4.2,0.7,6.1-0.6c1.5-1,2.9-2,4.5-3.1c-1.3-0.8-2.1-2.5-4-1.4c-0.2,0.1-0.4,0-0.6,0
		c-3.9-0.8-7.7-1.7-11.6-2.4c-2.8-0.5-5.4-1.2-7.8-2.7c-2.3-1.5-4.7-2.8-6.6-4.9c-1.7-1.9-4.1-3.1-6.1-4.7c-0.8-0.6-1.5-1.4-2.2-2.1
		c-1.6-1.8-3.1-3.8-4.9-5.4c-4.2-3.7-6.8-8.3-9.3-13.1c-2.6-5.1-5.2-10.3-7.8-15.5c-0.7-1.3-0.9-2.7-0.7-4.2
		c0.3-2.1,0.5-4.2,0.6-6.3c0.1-1.3-0.5-2.1-1.7-2.8c-3.1-1.8-6.1-3.7-9.1-5.6C68.2,113.6,68,113.5,67.7,113.4z M64.5,165.8
		c0.2-1.6,0.6-3.1,0.7-4.6c0.2-3.1,0.3-6.2,0.5-9.3c0.1-1.1,0.1-2.3,0.4-3.4c1.1-4,1.5-8,1.3-12c-0.1-0.8-0.2-1.6-0.5-2.3
		c-0.4-1.4-1-2.7-1.5-4.1c-0.3,0.1-0.7,0.2-1.1,0.4c-2.9,1.4-6,1.9-9.3,1.5c-1-0.1-2.1-0.3-3-0.8c-4.3-2-6.5-6-8.8-9.8
		c-1.5-2.6-2.6-5.4-4-8.1c-1-1.9-2.2-3.8-3.6-5.4c-4.7-5.2-9.6-10.3-14.5-15.3c-1.7-1.7-3.7-3.1-5.6-4.7c-0.5,0.5-0.9,1-1.4,1.5
		c-1.1,1.1-2.5,1.3-3.8,0.5c-0.6-0.3-1.1-0.7-1.6-1.1c-0.9-0.6-1.8-1.2-2.8-1.7c-0.1,1,0.2,1.7,0.3,2.4c0.6,3.3,1.1,6.6,1.7,9.8
		c0.6,3.5,1.3,6.9,2,10.4c0.9,4.8,1.9,9.6,2.8,14.4c0.7,3.6,1.7,7.1,1.9,10.7c0.2,3.4,0.6,6.6,2,9.7c0.3,0.7,0.6,0.9,1.2,0.8
		c0.8-0.1,1.6-0.2,2.4-0.2c2.8,0,5.6-0.1,8.4,0c3.4,0.2,6.7,0.6,9.4,3.1c0.2,0.2,0.4,0.2,0.6,0.3c0.7,0.3,1.4,0.6,2,1
		c2.2,1.3,4.3,2.8,6.5,4.1c2.3,1.4,4.7,2.6,7.1,3.9c0.8,0.4,1.7,0.9,2.6,1.2c3,0.9,3.7,1.8,3,4.7C61.3,164.2,62.9,165,64.5,165.8z
		 M16.7,86.7c0.4,0.3,0.6,0.6,0.9,0.8c2.3,1.9,4.7,3.6,6.8,5.7c3.7,3.7,7.3,7.6,10.9,11.4c2.5,2.6,4.6,5.4,6.1,8.7
		c1.8,3.8,3.5,7.7,6.1,11.1c1.2,1.6,2.6,3.1,4.2,4.3c0.8,0.7,2,0.9,3.1,1.2c3.3,0.8,6.3-0.3,9.3-1.5c2.4-1,2.5-0.9,2.4-3.5
		c0-0.1-0.1-0.2-0.1-0.3c-2.1-0.5-4.1-1-6.1-1.6c-1.8-0.6-3.4-0.5-5.2,0.1c-0.8,0.3-1.8,0.5-2.7,0.6c-0.3,0-0.7-0.4-1.1-0.6
		c0.3-0.3,0.5-0.7,0.8-0.8c1.2-0.4,2.4-0.8,3.7-1.2c-2.4-1.8-4.6-3.5-6.8-5.1c-1.4-1-2.8-2-4.2-3.1c-0.2-0.2-0.3-0.5-0.5-0.8
		c0.3-0.1,0.6-0.4,0.9-0.4c0.3,0,0.6,0.1,0.9,0.3c1.7,1.2,3.3,2.4,5,3.7c3.1,2.4,6.2,4.7,10.1,5.8c1.7,0.5,3.4,0.9,5.2,1.3
		c0-2.3,0.1-4.2,0-6.2c0-0.6-0.6-1.2-1-1.7c-0.6-0.6-1.5-1-2.2-1.6c-1.2-1.1-1.6-1.1-3,0.3c-0.4,0.4-0.5,0.9-0.9,1.3
		c-0.3,0.3-0.8,0.8-1.1,0.7c-0.7-0.3-0.6-0.9-0.2-1.4c0.7-1,1.4-1.9,2.1-2.8c-2.1-1.9-4.3-3.8-6.4-5.8c-0.8-0.8-1.5-1.7-2.2-2.6
		c-0.1-0.2-0.1-0.8,0.1-0.9c0.2-0.2,0.7-0.2,0.9,0c0.5,0.4,1,0.9,1.5,1.4c1.6,1.8,3.5,2.9,5.8,3.4c3.3,0.8,6,2.6,8.6,4.7
		c1.6,1.3,3.4,2.5,4.9,3.6c0.8-0.9,1.3-1.6,1.9-2.3c1.6-1.7,1.6-1.7,0.3-3.7c-0.6-0.9-1.2-1.8-1.8-2.7c-0.2-0.2-0.4-0.4-0.6-0.6
		c-2.6-1.7-5.3-3.4-7.9-5.1c-0.9-0.6-2.1-1-2.9-1.8c-0.8-0.8-1.5-0.9-2.5-1c-2.4-0.1-2.8-0.4-3.3-2.7c-0.6-2.8-1.3-5.5-2.5-8.1
		c-0.5-1-1.1-2.1-1.9-2.9c-1.3-1.2-2.8-2.2-4.1-3.4c-2.6-2.7-5-5.6-7.6-8.3c-1.7-1.9-3.6-3.7-5.5-5.7c-1.4,1.3-2.7,2.4-3.9,3.7
		c-2,2.2-3.8,4.5-5.7,6.7C22.6,80.6,19.7,83.6,16.7,86.7z M161.1,68.9c2-0.6,3,0,3.4,2c0.3,1.4,0.4,2.9,0.7,4.3
		c0.6,2.7,1.1,5.5,2,8.2c0.7,2.2,1.3,4.3,1.2,6.6c0,0.6,0.2,1.5-0.8,1.4c-0.9,0-0.8-0.8-0.8-1.5c0-0.2,0-0.5,0-0.7
		c-0.2-1.4-0.1-2.9-0.6-4.1c-1.2-2.6-1.6-5.3-2.1-8c-0.4-2-0.6-4.1-1-6.1c-0.1-0.4-0.6-0.9-0.9-0.9c-0.5,0-1.1,0.3-1,1.2
		c0.2,2.3-0.4,4.5-1.1,6.6c-0.4,1-0.3,2.2-0.2,3.3c0.1,2.1,0.6,4.2,0.6,6.3c0,1.7-0.6,3.5-0.7,5.2c-0.1,3.3-1.1,6.2-2.9,8.9
		c-1.3,1.9-2.4,3.8-2.6,6.1c-0.1,0.9,0.2,1.8,0.1,2.8c-0.1,1.7,0.8,2.6,2.1,3.4c1.7,1,3.6,1.2,5.4,1.5c0.4,0.1,0.8,0.5,1.3,0.8
		c-0.5,0.2-0.9,0.6-1.4,0.7c-2.5,0.2-4.7-0.6-6.9-1.9c0,0.6,0,1,0,1.4c0,1.4,0.2,2.9-0.1,4.2c-1,5-1.2,10-1.1,15
		c0,0.8,0.2,1.6,0.4,2.4c0.5,2.1,1,4.2,1.5,6.3c0.3,1.2,0.3,2.5,0.7,3.7c1.1,2.6,2.6,5,4.7,7c2.2,2.1,4.4,4.2,6.6,6.4
		c0.6,0.6,1.2,1.3,1.9,2.1c0.2-1.1,0.4-2,0.6-2.9c1.6-5.6,2.6-11.4,2.3-17.3c-0.2-3.4-0.1-6.7-0.3-10.1c-0.2-2.6-0.5-5.2-0.8-7.8
		c-0.6-4-1.4-8-1.4-12.1c0-3.8,0.2-7.6,1-11.4c0.3-1.4,0.1-3,0.3-4.4c0.1-1,0.8-1.9,0.9-2.8c0.4-5.1,0.1-10.1-1.2-15.1
		c-1-3.8-2.7-7.4-3.1-11.3c-0.2-1.6-0.7-3.1-1-4.7c-0.2-1.2-0.1-1.2-1.5-1.4c0.2,1.9,0.1,3.8,0.8,5.5c1.6,3.8,2.2,7.8,3.3,11.7
		c0.3,0.9,0.4,1.9,0.4,2.8c0,0.6,0.5,1.6-0.6,1.7c-1,0.1-0.8-1-1-1.7c0-0.1,0-0.2,0-0.2c-0.7-3.2-1.1-6.6-2.1-9.7
		c-1-3.4-2.3-6.8-2.1-10.4c0-0.4-0.2-1-0.4-1.4c-0.2-0.3-0.6-0.7-0.8-0.7c-0.4,0.1-0.9,0.4-1,0.8C161,63.1,160.4,66,161.1,68.9z
		 M59.2,172.8c-1.9,1.7-3.6,3.4-5.3,5c-1.5,1.5-3.1,2.8-5.3,3.2c-1.8,0.3-3.7,0.8-5.5,1.2c-1.5,0.3-3,0.8-4.6,1
		c-2.9,0.4-5.8,0.6-8.8,0.9c0.8,1.3,1.6,2.5,2.3,3.8c1.7,3,3.6,5.8,5,8.9c2.6,5.8,5.2,11.6,6.9,17.8c0.9,3.4,2.3,6.7,3.2,10
		c0.5,1.6,0.5,3.3,0.9,5c0.9,4.3,1.8,8.5,2.7,12.8c0.1,0.5,0.3,0.9,0.6,1.8c0.5-0.6,0.9-0.9,1-1.3c0.4-1.7,1-3.4,1-5
		c-0.2-4.5,1.3-8.8,2-13.2c0.6-3.8,2.2-7.3,3.3-11c0.9-3.2,1.5-6.4,2.3-9.6c0.7-2.9,1.3-5.8,1.3-8.8c0-2.8,0.2-5.7,0.7-8.5
		c0.6-3,1.1-5.9,0.9-9c0-1.1,0.1-2.1,0.2-3.1C62.3,173.9,60.6,173.3,59.2,172.8z M193.4,219.5c0-0.1,0-0.3,0-0.4
		c-1.9-0.9-3.7-1.9-5.6-2.8c-2.2-1.1-4.3-2.6-6.6-3.4c-3.6-1.3-7-3-10.4-4.8c-0.8-0.4-1.7-0.9-2.4-1.5c-2.9-2.6-5.6-5.4-8.5-8
		c-1.3-1.2-2.7-2.5-4.3-3.3c-2.2-1.1-4.2-2.6-6.3-4c-1.2-0.8-2.4-1.7-3.6-2.5c-0.3,1.8-0.6,3.4-0.8,5c-0.2,2.2-0.1,4.4-0.6,6.5
		c-0.9,4.3-2,8.7-3.3,12.9c-0.9,3.1-2.3,6.1-3.4,9.1c-0.5,1.4,0.1,2.3,1.7,2.6c0.9,0.2,1.8,0.5,2.7,0.6c3.5,0.6,6.9,1.4,10.5-0.2
		c2.2-1,4.6-1.3,6.7,0.8c0.2,0.2,0.6,0.3,0.9,0.2c1.2-0.2,2.5-0.3,3.7-0.7c2.2-0.6,4.3-1.5,6.5-2c4.1-0.9,8.2-1.6,12.3-2.5
		c2.9-0.6,5.8-1.4,8.8-1.3C192.1,220,192.8,219.7,193.4,219.5z M126.8,109.5c2.9,0.5,5.5,1.4,7.4,3.6c1.3,1.6,2.2,3.5,3.3,5.3
		c0.7,1.2,1.5,2.4,2.4,3.5c1.1,1.3,2.4,2.4,3.6,3.6c1.8,1.8,3.5,3.7,5.3,5.5c0.8,0.8,1.7,1.4,2.6,2.3c0.1-2,0.1-3.7,0.3-5.4
		c0.2-1.7,0.3-3.4,0.6-5.1c0.8-3.6,0.7-7.1,0.3-10.7c-0.3-2.3-0.7-4.5-1-6.7c-0.2-1.3-0.2-2.7-0.3-3.9c-1,0.7-2,1.6-3.1,2
		c-3.7,1.4-7.6,2.1-11.6,2c-2.3,0-4.7,0-7,0c-0.5,0-1.3,0.3-1.4,0.6C127.5,107,127.2,108.2,126.8,109.5z M162,237.5
		c5.6-3.9,11.2-6.9,17.1-9.3c3-1.3,6.1-2.3,9.2-3.5c1.2-0.5,2.3-1,3.5-1.6c-0.1-0.2-0.1-0.3-0.2-0.5c-1.5,0.2-3.1,0.3-4.6,0.6
		c-4.5,0.8-9.1,1.6-13.6,2.4c-2.3,0.4-4.6,0.9-6.9,1.5c-2,0.5-3.9,1.2-5.9,1.8C160.7,231.6,163.4,234,162,237.5z M71.9,180.6
		c1.4-1,1.8-2.5,2.1-3.9c0.8-3.4,0.6-6.9,0.1-10.4c-0.2-1.7-0.7-3.3-1.8-4.8c-0.5-0.7-1-0.7-1.7-0.5c-0.9,0.4-2,2.3-1.8,3.3
		c0,0.2,0.1,0.5,0.3,0.6c1.6,0.8,2,2.2,2,3.7c0.1,1.9,0.7,3.9-0.5,5.5c-1.1,1.4-0.8,2.6-0.1,4C71,179,71.4,179.7,71.9,180.6z
		 M63.5,97.6c0,0.2,0,0.3,0,0.5c3.9,2.2,7.8,4.4,11.7,6.5c0.1-0.1,0.3-0.3,0.4-0.4c-0.7-2.3-1.4-4.5-2-6.8c-0.2-0.8-0.6-1-1.3-0.9
		c-1.6,0.1-3.3,0.1-4.9,0.2C66.1,96.9,64.8,97.3,63.5,97.6z M159.4,68.3c-0.3,0.1-0.4,0.1-0.4,0.2c-2.8,2.8-4.2,6.3-5.2,10
		c-0.1,0.2,0.1,0.7,0.3,0.9c1.2,0.9,2.4,1.8,3.8,2.7c0.1-0.7,0.1-1.2,0.1-1.8c0.1-1,0-2.2,0.4-3.1C159.8,74.3,159.4,71.4,159.4,68.3
		z M68.6,87c0.4,2.7,1.2,5.4-0.5,8c3.2,0,6.3,0,9.6,0C75.5,91.5,71.9,89.4,68.6,87z M158.4,89.4c-1.8,0.3-2.7,1.6-3.2,3.3
		c-0.5,1.7-1.2,3.4-1.8,5.1c-0.7,2.2-0.8,4.3,0,6.5c0.9-1.6,1.9-3,2.6-4.5c0.8-1.6,1.4-3.2,1.8-4.9C158.2,93,158.2,91.2,158.4,89.4z
		 M66.1,77.4c-0.2-0.5-0.3-0.9-0.5-1.2c-1.2-2.3-2.5-4.5-3.7-6.8c-0.4-0.7-1-1-1.6-0.6c-0.3,0.2-0.4,1.1-0.3,1.6
		c0.2,0.8,0.6,1.5,1,2.2c0.9,1.7,1.8,3.5,2.8,5.2c0.2,0.4,0.9,0.6,1.4,0.6C65.6,78.4,65.8,77.7,66.1,77.4z M65.6,171.3
		c-0.2-1-0.2-1.7-0.4-2.4c-0.4-1.4-1.7-2-2.8-1.4c-2,1.1-2.4,2.6-0.7,4.3c0.7,0.7,2.2,0.8,3.3,1C65.1,172.7,65.4,171.6,65.6,171.3z
		 M75.4,96.4c-0.1,0.2-0.1,0.3-0.2,0.5c0.4,0.8,1,1.6,1.2,2.5c0.3,1.3,0.3,2.6,0.6,3.9c0.1,0.4,0.6,0.8,0.9,1.2c0.3-0.3,0.8-0.6,1-1
		c0.3-0.7,0.3-1.6,0.5-2.3c0.5-1.8-0.1-3-1.7-3.9c-0.3-0.2-0.5-0.4-0.8-0.5C76.3,96.6,75.8,96.5,75.4,96.4z M67,173.3
		c1.8,0.7,2.5,0.6,2.6-0.8c0.1-1.5,0.1-3-0.2-4.5c-0.3-2-1.9-2.5-3.5-1.1C67,168.5,67.4,170.6,67,173.3z M53,159.1
		c-0.1,0.2-0.5,0.6-0.5,1c-0.1,0.3,0.1,0.9,0.3,1c1.5,0.5,3,0.9,4.5,1.3c0.3,0.1,0.7-0.3,1.1-0.4c-0.2-0.3-0.3-0.7-0.5-1
		c-0.2-0.2-0.5-0.4-0.8-0.5C55.7,160,54.4,159.6,53,159.1z M165.7,58.9c-0.3-1.3-0.6-2.8-1-4.2c-0.2-0.8-0.9-0.7-1.4-0.2
		c-1,0.9-1.3,2.1-1.2,3.3C163.4,58.2,164.5,58.5,165.7,58.9z M167.9,56.6c-1.1,0.8-1.1,0.8-0.8,2c0.4,1.8,0.7,3.7,1.1,5.5
		c0.1,0.6,0.4,1.2,0.5,1.9C168.7,62.8,169.3,59.6,167.9,56.6z M77.9,112.8c-1.2,1-2.4,1.6-2.2,2.8c0.3,1.3,1.6,1.6,3.1,2
		C78.5,116,78.2,114.6,77.9,112.8z"/>
	<path class="st0" d="M143.4,42.6c-0.1,0.6-0.2,1.3-0.3,1.9c0.5,0.8,1,1.6,1.5,2.6c0.3-0.2,0.6-0.4,0.9-0.6c0.3-0.1,0.8-0.4,0.9-0.3
		c0.2,0.2,0.4,0.7,0.3,0.9c-0.1,0.5-0.3,1.2-0.7,1.5c-1.7,1.2-3.1,2.9-5.5,2.7c-0.4,0-1,0.8-1.5,1.3c-0.2,0.3-0.4,0.7-0.5,1
		c-1.1-0.3-1.2-0.9-0.8-1.7c1.4-2.8,2.8-5.7,4.2-8.5c0.2-0.4,0.7-0.8,1-1.2C143.1,42.4,143.2,42.5,143.4,42.6z M142.7,46.1
		c-0.1,0-0.2,0.1-0.3,0.1c-0.6,1.1-1.1,2.3-1.7,3.4c0.1,0.1,0.2,0.2,0.3,0.4c0.8-0.4,2-0.6,2.1-1.1C143.3,48.1,142.8,47,142.7,46.1z
		"/>
</g>
</svg>
