<?xml version="1.0" encoding="utf-8"?>
<!-- Generator: Adobe Illustrator 19.2.0, SVG Export Plug-In . SVG Version: 6.00 Build 0)  -->
<svg version="1.1" id="Layer_1" xmlns="http://www.w3.org/2000/svg" xmlns:xlink="http://www.w3.org/1999/xlink" x="0px" y="0px"
	 viewBox="0 0 150 168.7" style="enable-background:new 0 0 150 168.7;" xml:space="preserve">
<style type="text/css">
	.st0{fill:#E91E63;}
</style>
<g id="girl-using-inhaler">
	<path class="st0" d="M103.6,168.7c0.4-2.5,0.7-5,1.2-7.5c0.5-2.5,1.3-5,1.8-7.6c0.3-1.5,0.1-3.2,0.2-4.7c0.3-3.2,0.7-6.5,1-9.9
		c-1.3-0.9-1.5-2.7-2.1-4.3c-0.2-0.5-0.6-1-1-1.2c-2.2-0.7-3.9-1.7-4.4-4.2c-0.1-0.4-0.8-0.7-1-1.2c-0.2-0.5-0.5-1.2-0.2-1.6
		c0.4-0.7,1.2-0.8,1.8-0.2c0.7,0.7,1.5,1.5,1.7,2.4c0.4,1.6,1.3,2.3,3.1,2.6c0-1.2,0.1-2.5,0-3.6c-0.7-7-0.3-14,1-20.9
		c0.2-1.1,0.9-2.2,1.2-3.3c0.4-1.4,0.6-2.8,0.9-4.2c0.1-0.6,0.1-1.1,0.3-1.7c0.4-1.3,0.9-2.6,1.3-3.8c-1.4-2.3-3.6-2.6-6-2.7
		c-1.6-0.1-3.1-0.4-4.7-0.6c-0.5-0.1-0.9-0.1-1.5-0.2c-0.9,3.8-3.2,6.8-5.7,9.7c-1,1.2-1.6,2.9-2.5,4.3c-1.4,2.3-3.4,4-6,5.1
		c-0.4,0.2-0.8,0.4-1.1,0.6c-3.6,3-7.6,3.8-12.1,3.1c-0.9-0.2-1.9-0.2-2.9-0.2c-3.6,0.2-7.1-0.9-10.6-1.5c-3.9-0.8-7.9-2-11.3-4.2
		c-1.3-0.8-2.6-2-3.3-3.4c-2.6-4.7-4.5-9.7-5.5-15c-0.5-2.3-1.4-4.6-2.1-6.8c-0.1-0.3-0.5-0.6-0.7-0.6c-2,0.4-3.8-0.4-5.6-0.8
		c-1.8-0.4-4.7,0.4-5.8,1.9c-0.2,0.3-0.2,0.9-0.1,1.3c0.8,3.9,1.7,7.8,2.6,11.6c0.4,1.6,0.8,3.1,1.2,4.7c1.1,4.3,2.3,8.6,2.2,13.1
		c0,2.6,0,5.2,0,7.8c0.1,0.1,0.3,0.1,0.4,0.2c0.5-0.4,1.1-0.8,1.6-1.1c0.7-0.4,1.4-0.7,2.2-0.8c0.4,0,1,0.5,1.2,0.9
		c0.1,0.3-0.4,0.9-0.7,1.2c-0.9,0.7-2,1.3-2.9,2c-1,0.9-1.5,1.9-1.5,3.3c0,2.1-1.7,3.3-3.1,4.7c-0.3,0.3-0.7,0.8-0.7,1.2
		c-0.1,1.8,0.1,3.5-0.1,5.3c-0.2,3.4-0.6,6.7-0.8,10.1c-0.1,1.4,0.2,2.9,0.2,4.3c0,1.7-0.3,3.5-0.2,5.2c0.2,3.8,0.5,7.5,0.8,11.3
		c-0.9,0-1.8,0-2.6,0c-0.1-0.9-0.3-1.8-0.3-2.7c-0.2-5.7-0.4-11.3-0.4-17c0-2.3,0.6-4.7,0.7-7c0.2-3.3,0.1-6.7,0.3-10
		c0.1-1.9,0.5-3.8,0.6-5.7c0.1-2.1-0.2-4.3-0.1-6.5c0.2-4.1-0.4-8.1-1.3-12.1c-0.9-4.2-1.5-8.5-2.2-12.7c-0.4-2.5-0.9-5-1.5-7.5
		c-0.1-0.7-0.6-1.3-0.8-2c-1.8,1.1-3.8,1.7-5,3.1c-2.1,2.2-4,4.7-5.4,7.4c-1.4,2.6-2.1,5.7-1.6,8.8c0.1,0.4,0.1,0.8,0.1,1.2
		c-0.3,3-0.6,6-1,9c-0.6,3.9-1.1,7.8-1.9,11.7c-0.8,3.7-0.9,7.4-0.3,11c0.6,3.8,1.1,7.6,1,11.4c-0.1,5.3-0.1,10.6,0,16
		c0,1.3,0.3,2.5,0.5,3.8c-0.9,0-1.8,0-2.6,0c-0.1-1-0.2-2-0.2-3c0-7.2,0-14.4,0-21.6c0-1.2-0.3-2.4-0.5-3.7
		c-1.2-6.2-0.5-12.2,0.8-18.3c1.1-5.1,1.5-10.4,2.2-15.6c0.1-0.7,0.1-1.5-0.1-2.2c-0.5-3.2,0.7-6.1,1.7-9c1-3.1,2.9-5.5,5.1-7.7
		c0.8-0.8,1.7-1.4,2.6-1.9c1.2-0.8,2.5-1.4,3.7-2.1c2.4-1.4,4.9-2.8,7.3-4.3c0.4-0.2,0.8-0.8,0.8-1.2c0.7-4.5,1.2-9.1,1.9-13.6
		c0.3-2,0.9-3.9,1.4-5.8c0.6-2.4,1.4-4.8,1.9-7.2c1.3-5.5,2.5-11.1,3.8-16.6c0.6-2.7,1.5-5.3,2-8.1c0.4-2.1,0.5-4.3,0.9-6.5
		c0.7-5.1,3.4-9.3,6.7-13.1c0.3-0.4,0.7-0.6,1.1-0.9c3.8-2.3,7.4-5,11.9-5.8c2.3-0.4,4.6-0.6,7-0.3c2.7,0.4,5.4,0.3,8.1,0.3
		c4.6,0,9,1,13.3,2.5c0.8,0.3,1.7,0.5,2.5,0.6c3.3,0.5,5.1,3,7.2,5.1c3.9,3.9,5.9,8.9,8.2,13.7c0.6,1.2,0.6,2.6,0.7,3.9
		c0.2,3.4,0.3,6.7,0.6,10.1c0.1,0.8,0.7,1.5,0.7,2.3c0.1,1.6,0.2,3.2-0.2,4.7c-1.2,4.2-1.3,8.4-0.7,12.6c0.4,3,0.3,5.8-0.8,8.6
		c-0.1,0.2-0.1,0.5-0.2,0.8c0.2,0.1,0.4,0.1,0.6,0.2c1.3,0.7,2,0.3,2.7-1c1.8-3.6,3.7-7.1,5.5-10.7c0.5-0.9,0.7-2.2,2.3-1.7
		c0.2,0.1,0.6-0.5,0.8-0.8c0.5-0.9,0.9-1.8,1.4-2.7c0.8-1.4,0.9-1.5,2.2-0.5c0.2,0.1,0.4,0.2,0.6,0.3c1.3-2.1,1.6-2.1,4-1.5
		c1.2,0.3,2.6,0.5,3.8,1c2.9,1.2,4.7,3.5,5.8,6.5c1.5,4.2,2.2,8.5,2.7,12.9c0.5,5.3,2.4,10.1,3.5,15.2c1.2,5.1,2.3,10.2,3.5,15.4
		c0.6,2.4,1.3,4.7,1.9,7c0.8,3.2,1.8,6.4,2.3,9.6c1,7.6,1.7,15.3,2.5,22.9c0.5,4.5,0.9,8.9,1.1,13.4c0.2,4.2-1.2,8.1-3.4,11.6
		c-3.3,5-8.1,6.6-13.4,5.1c-2.5-0.7-4.8-2.6-6.9-4.4c-5.1-4.3-7.9-10.1-10.5-16.1c-1.2-2.8-2.7-5.5-4.1-8.2
		c-0.1-0.3-0.4-0.5-0.6-0.7c-0.2,0-0.3,0-0.5,0.1c-0.4,3.1-0.8,6.3-1.2,9.4c-0.3,2.5-0.3,5-0.5,7.5c0,0.6-0.2,1.1-0.4,1.6
		c-1.4,3.8-1.8,7.8-2.3,11.8C105.3,168.7,104.5,168.7,103.6,168.7z M117.4,98.7c-0.2,0-0.3,0.1-0.5,0.1c-0.6,3.8-2.4,7.1-2.9,11
		c-1.2,8.8-2.3,17.5-0.6,26.4c0.2,1.2,0.6,2.3,1.1,3.4c1.3,2.9,2.9,5.7,4.2,8.6c2.3,5,5,9.8,9.1,13.5c1.8,1.6,4,3.2,6.3,3.9
		c3.8,1.3,8.3-0.7,10.4-4.1c1.9-3.1,3.4-6.5,3.2-10.3c-0.3-4.9-0.7-9.7-1.2-14.6c-0.6-6.7-1.3-13.4-2-20c0-0.3,0-0.7-0.1-1
		c-1-3.5-2.1-7-2.7-10.6c-0.8-4.5-2-8.8-2.9-13.2c-0.7-3.1-1.2-6.2-1.9-9.3c-0.6-2.5-1.5-5-2-7.5c-0.6-3.1-0.9-6.2-1.5-9.3
		c-0.7-3.6-1.1-7.2-2.4-10.7c-1-2.5-2.4-4.4-4.8-5.4c-1.3-0.5-2.8-0.8-4.1-1.1c-0.4-0.1-1.1,0-1.2,0.3c-0.2,0.4-0.2,1.1,0,1.4
		c0.5,0.5,1.2,1,2,1.2c1.9,0.6,2.6,2.4,3.9,3.6c0.1,0.1,0.2,0.4,0.2,0.6c0.1,1.9,0.3,3.8,0.2,5.6c0,1.1,0.1,1.9,1.5,1.8
		c0.4,0,0.8,0.2,1.1,0.4c0.3,0.3,0.4,0.7,0.6,1c-0.4,0.2-0.8,0.5-1.2,0.5c-0.4,0-0.9-0.4-1.4-0.4c-3.6-0.6-7.2-0.6-10.8-0.3
		c-2.6,0.2-3,0.6-2.9,2.5c2-0.2,3.9-0.5,5.9-0.6c0.4,0,0.8,0.3,1.2,0.4c-0.3,0.4-0.4,1-0.8,1.1c-0.9,0.3-1.9,0.4-2.8,0.4
		c-2.2,0-4.2,0.4-5.4,2.6c1.4-0.1,2.7-0.5,4.1-0.8c0.9-0.2,1.8-0.3,2.7-0.2c0.3,0,0.7,0.5,0.7,0.8c0,0.3-0.3,0.8-0.6,0.8
		c-1.5,0.4-2.9,0.7-4.4,0.9c-1.3,0.2-2.6,0.2-3.9,0.3c-0.4,1.5-0.7,3-1.1,4.6c1.5-0.2,2.6-0.4,3.7-0.5c0.3,0,0.8,0.1,1,0.4
		c0.4,0.6,0.8,1.2,1,1.8c1.2,4.9,3.9,8.9,7,12.7c1.4,1.8,2.9,3.6,3.3,5.9c0.3,1.9,0.5,3.9,0.6,5.9c0,2.2-0.2,4.4-0.2,6.6
		c-0.1,5.8-0.1,11.7-0.3,17.5c-0.1,2.8-0.4,5.6-0.8,8.4c-0.6,4-1.2,8.1,0,12.1c0.1,0.4,0.2,0.8,0,1.2c-0.2,0.5-0.7,0.9-1,1.4
		c-0.4-0.4-1-0.7-1.3-1.2c-0.2-0.4-0.2-1-0.2-1.5c-0.1-3.1-0.7-6.2-0.2-9.2c0.7-4.8,1.1-9.5,1.3-14.3c0.2-4.3,0-8.6,0.3-12.9
		c0.1-1.8-0.2-3.2-1.2-4.6c-0.3-0.5-0.6-1-0.9-1.5C120.1,103.1,118.8,100.9,117.4,98.7z M56.4,47.2c0.9,3.3,1.9,6.5,2.5,9.7
		c0.3,1.7,0.3,3.3,1.1,5c1.8,3.7,3.1,7.7,4.8,11.5c1.2,2.8,3.1,5.1,5.8,6.6c3.6,2.1,7.3,4,10.9,6.2c2.8,1.7,5.5,0.9,8-0.3
		c1.4-0.7,2.6-2.2,3.6-3.5c1.4-1.9,2.7-3.9,3.7-6c0.9-1.8,1.4-3.8,1.8-5.8c0.4-1.8,0.7-3.7,2.2-5c0.2-0.2,0.4-0.4,0.5-0.6
		c1.3-2.9,1.2-5.9,0.9-8.9c-0.2-2-0.3-4.1-0.4-6.2c0-0.8,0.2-1.7,0.3-2.6c-1.5,0-2.7,0-4.1,0c0.1,0.3,0.2,0.6,0.3,0.8
		c0.8,1.6,1.7,3.2,2.5,4.9c0.4,0.9,0.5,1.9-0.3,2.7c-0.8,0.7-1.5,1.5-2.4,2.1c-0.6,0.4-1.4,0.4-2.1,0.5c-1.1,0.1-2.3-0.2-3.4,0
		c-1.7,0.3-2.8,0-3.4-1.5c-0.6-1.5-0.2-2.8,1.3-3.5c0.3-0.2,0.9,0,1.3,0c-0.2,0.4-0.4,0.7-0.6,1.1c-0.3,0.6-0.9,1.1-0.9,1.7
		c0.1,1.2,1,1.5,2.3,0.9c1.4-0.6,2.7-1.1,4,0.1c0.1,0.1,0.4,0.2,0.5,0.1c0.9-0.8,1.9-1.4,2.6-2.4c0.3-0.4,0-1.5-0.3-2.1
		c-1-2.2-2.4-4.2-3.3-6.4c-0.5-1.3-0.4-2.8-0.5-4.2c0-0.2,0.5-0.5,0.7-0.8c0.2,0.3,0.4,0.6,0.5,0.9c0.1,0.2,0,0.4-0.1,0.4
		c2.1,0.4,4.1,0.7,6.3,1.1c0.1-0.9,0.4-2,0.4-3.1c0-1.3-0.5-1.9-1.9-1.9c-0.8,0-1.6,0.3-2.5,0.3c-0.3,0-0.7-0.3-1-0.5
		c0.2-0.3,0.4-0.7,0.7-0.8c1.2-0.3,2.3-0.5,3.7-0.8c0-0.2,0-0.6,0-1.1c-0.3-3.8-0.3-7.7-0.9-11.5c-0.3-2.1-1.7-4-2.6-6
		c-0.1-0.1-0.3-0.2-0.4-0.3c-1.7-0.9-3.4-1.5-5.5-1.4c-3.1,0.1-6.4,0.1-9.4-0.4c-3.3-0.6-6.2-0.1-9.1,1.3c-2.8,1.4-4.2,3.5-4.8,6.4
		c-0.6,3-1.2,6.2-3.1,8.7c-1.9,2.4-4,4.8-6.2,6.9c-1.1,1.1-1.9,2.2-2.3,3.7C57.5,44.5,56.9,46,56.4,47.2z M74.1,84.9
		c0.1-0.2,0.1-0.3,0.2-0.5c-0.5-0.3-1-0.7-1.5-0.9c-2.4-1-4.6-2.3-6.3-4.3c-3.2-3.8-4.7-8.4-6.5-12.8c-0.5-1.3-0.9-2.7-1.4-4.2
		c-1.4,1.7-3,2.7-5,2.3c-1.1-0.2-2.1-0.7-3.2-1c-0.4-0.1-0.8-0.1-1.2-0.2c0,0.3-0.2,0.7-0.1,1c1,2.4,0.9,4.9,1,7.3
		c0.2,3.1-2.5,8.1-6,9c-0.4,0.1-0.7,0.3-1.1,0.5c-1,0.4-0.4,1.1-0.3,1.6c0.1,0.6,0.4,1,1.1,0.9c2-0.1,3.9-0.1,5.9-0.3
		c1.2-0.1,2.3-0.2,3.5-0.3c-0.1-2.1-0.2-4-0.3-5.8c0.6-0.2,1.1-0.4,1.6-0.6c0.1,0.5,0.2,0.8,0.2,1.2c0,1.7,0,3.4,0.1,5.1
		c0.1,1.2-0.4,1.6-1.5,1.7c-2.7,0.1-5.3,0.2-8,0.3c-0.6,0-1.2,0.1-1.9,0.1c0.8,3.7,1.9,7.1,3.9,10c1.5,2.2,2.7,4.8,5.5,5.9
		c4.8,1.8,9.3,4.5,14.7,4.7c3.5,0.2,6.9,0.6,10-1.5c0.3-0.2,0.6-0.3,1-0.4c3-0.9,5.3-2.8,7.3-5.2c0.8-0.9,1.7-1.8,2.5-2.8
		c1.3-1.6,2.4-3.3,2.9-5.5c-1.1-0.1-2.1-0.1-3-0.3c-2.6-0.5-5.4-0.5-7.7-2.2c-0.6-0.5-1.4-0.9-2.1-0.9c-4.3,0-8.5-1.3-12.8-0.3
		c-0.4,0.1-0.9-0.2-1.3-0.3c0.3-0.4,0.5-1,0.9-1.3c1.8-1.2,3.7-0.9,5.7-0.5C71.8,84.6,73,84.7,74.1,84.9z M90.2,87.6
		c0.3,0.1,0.4,0.1,0.5,0.1c0.6,0,1.2,0,1.8,0c5.3-0.2,10.5,0.3,15.7,1.6c2.5,0.6,5,1.1,6.7,3.4c0.8,1.1,1.9,2.1,2.8,3.2
		c1.7,2.1,3.3,4.3,4.9,6.5c0.4,0.6,0.7,1.2,1.1,1.7c0.2-1.5,0-2.9,0-4.3c0.1-2.6-1.1-4.6-2.5-6.6c-1.9-2.7-3.9-5.4-5.5-8.2
		c-0.9-1.5-1.8-2.6-3.4-3.1c-0.2-0.1-0.4-0.2-0.6-0.3c-2.2-1.1-3.7-2.7-4-5.1c-1.2-0.2-2.8,0-3.4-0.6c-1.2-1.4-2.7-1.9-4.3-2.3
		c-0.1,0-0.2,0-0.2,0C97.7,78.9,94.9,83.8,90.2,87.6z M56.6,54.6c-0.4-3-1.1-5.6-2.5-8.1c-0.5-0.9-0.8-2-1.5-2.8
		c-1.6-1.8-3.5-3.2-5.8-3.9c-2.8-0.9-5.5,0.5-6.6,3.2C38.3,47.5,40,51.3,42,55c0.6,1.1,1.4,2.1,2.4,2.8c2.1,1.4,4.3,2.6,6.5,3.9
		c0.7,0.4,1.5,0.6,2.3,0.8c1.9,0.5,3.7-1,3.5-2.9c-0.2-1.2-0.7-2.4-1.2-3.9c-1.7,1.5-3.3,1.4-4.8,0.2c-0.2-0.1-0.8,0-1,0.2
		c-1.3,1.2-2.2,1.4-3.5,0.3c-1.3-1.1-2.3-2.6-3.4-4c-0.8-1.1-0.9-2.3-0.7-3.6c0.2-1,0.1-2.1,0.1-3.2c0-1.1,0.9-3,1.8-3.4
		c2-0.8,3.5-0.7,4.4,0.7c0.7,0.9,1.1,2.1,1.4,3.2c0.1,0.4-0.3,0.9-0.5,1.4c-0.4-0.4-1-0.6-1.3-1.1c-0.3-0.5-0.3-1.1-0.4-1.6
		c-0.3-1.1-1-1.7-2.3-1.4c-1.2,0.2-1.6,1-1.6,2.2c0,0.9,0.1,1.8,0,2.6c-0.4,2.4,1.3,6.2,3.4,7.2c0.3,0.2,1,0.1,1.2-0.1
		c1.2-1.2,2-1.3,3.4-0.5c0.5,0.3,1.1,0.4,1.7,0.6c-0.5-1-1.2-1.6-1.2-2.3c-0.1-1.4,0.1-2.8,0.3-4.2c0-0.3,0.5-0.5,0.8-0.7
		c0.2,0.3,0.5,0.6,0.5,0.9c0.1,1.1-0.1,2.1,0,3.2c0,0.5,0.4,1,0.8,1.3C55.2,53.9,55.8,54.2,56.6,54.6z M113.5,54.2
		c-0.2,0.4-0.4,0.7-0.5,1c-1.9,3.6-3.8,7.2-5.7,10.7c-0.4,0.7-1.1,1.6-1.8,1.8c-0.9,0.3-1,0.9-1.1,1.5c-0.1,0.5-0.1,1-0.3,1.4
		c-0.4,1.1-0.2,1.9,0.4,3c0.8,1.4,2,1.1,3.1,1c0.4-0.1,0.9-1.2,1-1.8c0.1-1.5,0.8-2.5,1.9-3.4c1-0.8,1.7-1.6,1.7-3.1
		c0-1.7,1.2-3.1,2.3-3.2c1.4-0.1,2.8-0.2,4.2-0.3c2.1-0.1,2.9-0.8,3.2-2.8C118.1,58.6,116,57.1,113.5,54.2z M121.1,58.3
		c0.7-1.4,1.2-2.5,1.9-3.6c0.7-1.1,0.2-1.5-0.7-2c-1-0.5-2-1.2-2.9-1.9c-0.6-0.4-1.2-0.9-1.8-1.3c-0.7,1.1-1.2,2.2-1.9,3.1
		c-0.6,0.8-0.5,1.5,0.3,2C117.6,55.9,119.3,57.1,121.1,58.3z M122.6,58.3c2.1,1.4,0.2,2.8,0.1,4.2c0.9,0.1,1.8,0.2,2.8,0.4
		c-0.4-2.7,0.6-5.4-1-8.2C123.8,56,123.3,57.1,122.6,58.3z M103.4,67.5c-2.3-0.9-2.8-0.7-3.2,1.6c-0.2,0.8-0.2,1.7-0.3,2.6
		c0.7,0.1,1.3,0.3,1.8,0.3c0.3,0,0.8-0.3,0.8-0.6C102.8,70.2,103.1,68.8,103.4,67.5z M99,46.3c0.8-0.1,1.7,0,2.6-0.2
		c0.2,0,0.4-0.7,0.5-1c-1-0.4-2-0.8-2.9-1.2C99.1,44.7,99.1,45.4,99,46.3z M110.5,78.8c1,0.6,2,1.2,3.1,1.9
		C113.6,78.4,113.5,78.3,110.5,78.8z"/>
	<path class="st0" d="M99.4,65.7c-0.5,1.3-0.7,2.7-1.4,3.6c-1.2,1.5-1,3.1-1.2,4.7c-0.2,2-1.3,4-2.5,4.4c-1.8,0.5-4.1-0.2-5.3-1.8
		c-1.5-2.1-2.9-4.2-4.2-6.5c-0.3-0.5-0.3-1.6,0-2.1c2.2-3.3,5.3-5.3,9.1-6.1c1.3-0.3,3,0.3,4.2,0.9C98.7,63.3,98.9,64.7,99.4,65.7z
		 M94.3,67.3c0-0.7-1.2-1.5-2.2-1.2C90.1,66.6,88,67.2,86,68c-0.7,0.3-0.9,1.2-0.3,1.7c1.5,1.3,3,2.8,5.1,3.3
		c1.2,0.3,1.9-0.3,1.8-1.2c-0.1-1.5,0.6-2.6,1.3-3.7C94.1,67.8,94.2,67.6,94.3,67.3z M89.4,64.8c0,0.2,0.1,0.3,0.1,0.5
		c0.7-0.2,1.4-0.3,2.1-0.5c2.1-0.5,4.4,1.1,4,2.9c-0.1,0.6-0.5,1.1-0.8,1.7c1.8,0.6,2.1-0.7,2.7-1.7c0.7-1.3,0.9-2.8-0.1-3.6
		c-0.9-0.7-2.5-1-3.7-0.9C92.2,63.3,90.9,64.2,89.4,64.8z M95.8,70.9c-0.6-0.1-1-0.2-1.3-0.3c-0.6,1.2-0.8,2.8-1.7,3.4
		c-0.9,0.6-2.4,0.1-3.7,0.1c0.8,1.2,1.6,2.3,3.3,2.5c1.9,0.2,2.7,0,3-1.9C95.8,73.5,95.7,72.2,95.8,70.9z"/>
	<path class="st0" d="M80.9,45.8c-2.3-0.1-4.2-1-5.9-2.4c-0.6-0.5-0.7-1,0-1.4c2.4-1.3,4.9-2,7.6-1.6c1.8,0.3,2.9,1.7,4,3
		c0.1,0.1-0.1,0.9-0.3,0.9C84.5,44.9,82.6,45.3,80.9,45.8z M80.8,44c0.1,0.1,0.2,0.2,0.3,0.3c1.1-0.2,2.2-0.5,3.3-0.7
		c-0.4-1.5-1.5-2.1-2.5-1.7C81.3,42,81.1,43.2,80.8,44z"/>
	<path class="st0" d="M86.7,36.9c-0.6-0.1-1-0.2-1.3-0.3c-3.1-1.8-5.9-0.5-8.7,0.7c-0.4,0.2-0.8,0.5-1.2,0.5
		c-0.4,0.1-0.7-0.1-1.1-0.2c0.2-0.3,0.2-0.8,0.5-1c2.1-1.4,4.5-2,6.9-2.5c1.8-0.4,3.5-0.3,5,0.7c0.4,0.2,0.7,0.9,0.7,1.3
		C87.6,36.4,87,36.7,86.7,36.9z"/>
</g>
</svg>
