<?xml version="1.0" encoding="utf-8"?>
<!-- Generator: Adobe Illustrator 19.2.0, SVG Export Plug-In . SVG Version: 6.00 Build 0)  -->
<svg version="1.1" id="Layer_1" xmlns="http://www.w3.org/2000/svg" xmlns:xlink="http://www.w3.org/1999/xlink" x="0px" y="0px"
	 viewBox="0 0 200 189.7" style="enable-background:new 0 0 200 189.7;" xml:space="preserve">
<style type="text/css">
	.st0{fill:#8BC34A;}
</style>
<g id="girl-using-inhaler-mask">
	<path class="st0" d="M66.2,189.7c-1.4-4.3-2.8-8.5-4.1-12.8c-1.1-3.6-2.1-7.2-2.9-10.8c-0.5-2.3-0.7-4.8-0.9-7.2
		c-0.1-1.1-0.4-1.4-1.5-1.4c-3.5,0-6.9,0-10.4-0.3c-2.1-0.2-3.8-1.7-5-3.4c-3.7-5.4-7.2-11-9.5-17.2c-0.7-1.8-1.9-3.4-2.9-5.1
		c-4.1-7-8.2-14-10.5-21.8c-1.2-3.9-1.9-8-3-12c-0.3-1.2-1.4-2.2-2.1-3.3c-0.7-1.1-1.4-2.2-2.1-3.3c-2-2.8-4.2-5.5-5.9-8.6
		c-2-3.7-3.7-7.5-5-11.4c-0.7-2.3-0.3-4.9,0.5-7.3c0.4-1.4,1-2.9,1.1-4.4c0.1-1.7-0.1-3.4-0.5-5c-1.2-6.1,1.7-10.7,7.4-12.6
		c1.9-0.6,3.7-0.8,5.7-0.1c1.5,0.5,1.8,1.8,2,3.1c1.8-0.1,2,0,2.3,1.7c0.2,0.7,0.1,1.7,1.4,1.5c0.2,0,0.5,0.4,0.6,0.6
		c0.5,1.3,0.8,2.5,1.3,3.8c0.1,0.4,0.3,0.7,0.6,1c1.7,1.3,2.6,2.5,1.4,5c-0.4,0.9-0.1,2.1-0.1,3.1c1.4,0.6,2.7,1.1,4,1.7
		c2.2,1,2.4,1.6,2.5,4.6c1.8-0.3,3.5-0.7,5.3-1c1.6-0.3,3.3-0.5,4.9-0.6c6.1-0.3,12-1.9,18.2-1.6c3.5,0.2,7.1-0.2,10.6-0.2
		c2,0,3.9,0.5,5.9,0.9c1.8,0.3,2.3,2,2.8,3.4c0.5,1.2,1.1,1.6,2.3,1.5c1.9-0.1,3.9,0,5.9,0c0-1.5-0.1-3.1,0-4.7
		c0.5-6.7,3.3-12.1,8.8-16.1c0.8-0.5,1.9-1.1,2-1.8c0.3-1.8,0.3-3.8-1.1-5.3c-2.8-3-4.1-6.7-4.9-10.5c-1.1-5.3,0.1-10,3.8-14
		c1.3-1.4,2.3-3.1,3.5-4.5c2.1-2.3,4.2-4.7,6.5-6.8c1.8-1.7,3.9-3,6.5-3.5c0.3-0.1,0.7-0.2,1-0.3c2.3-1.4,4.9-1.1,7.4-1.4
		c4.4-0.5,8.9-0.9,13.4-1.3c3.7-0.4,7.4-0.4,11.1,0.3c1.7,0.3,3.5,0.4,5.2,0.4c3.7,0.1,7.1,0.9,10.5,2.5c1.5,0.7,3.3,1,4.9,1.7
		c3.6,1.7,6.5,4.2,8.9,7.4c4.3,5.6,6.7,12.1,9,18.7c1.7,5,1.1,7.5,0.8,11.2c3.7,0.7,6.2,3.2,8.6,5.8c1.3,1.4,2.6,3.1,3.4,4.9
		c1.5,3.5,2.8,7,3.7,10.7c0.6,2.2,0.3,4.6,0.3,6.8c0,3.7-0.4,7.2-1.5,10.7c-0.9,3-1.3,6.1-2.1,9.1c-1.3,4.8-3.2,9.4-7.6,12.2
		c-2.5,1.6-5.3,3.1-8.1,4c-2.5,0.7-4.4-0.1-5.5-3.3c-1-2.8-2.2-5.5-4.2-7.9c-0.7-0.9-1.2-2-1.7-3c-0.8-1.7-1.5-3.4-2.3-5
		c-0.4-1-0.9-1.9-1.5-3.2c-1.1,4.2-0.7,8,0.5,11.8c0.8,2.5,1.1,5.2,1.9,7.7c1.1,3.4,2.3,6.8,3.8,10c1.3,2.9,3,5.5,4.4,8.4
		c0.6,1.2,0.9,2.6,1,3.9c0.2,3.1,0.4,6.3,0.2,9.4c-0.1,2-0.7,3.9-1,5.8c-0.2,1-0.4,2.1-0.4,3.1c-0.1,5.6-0.3,11.2-0.3,16.8
		c-0.1,6.9-0.2,13.7-0.2,20.6c0,2.6,0.2,5.2,0.2,7.8c-0.8,0-1.5,0-2.3,0c-0.2-3.9-0.5-7.7-0.5-11.6c0.2-11.2,0.5-22.5,0.7-33.7
		c0-0.8,0.1-1.7,0.3-2.5c1.2-4.4,1.3-8.9,1-13.4c-0.1-2.2-0.2-4.4-1.4-6.4c-0.8-1.3-1.4-2.7-2.1-4.1c-1.3-2.7-2.4-5.5-4-8
		c-0.9-1.5-2.3-3-3.8-3.6c-3.4-1.3-7.1-2.3-10.7-2.9c-3.5-0.6-7.1-0.4-10.7-0.6c-2-0.1-4-0.1-6-0.4c-4-0.8-8-1.4-11.8-2.8
		c-0.2-0.1-0.5,0-0.7,0.1c-1.6,0.6-3.2,1.2-4.8,1.9c-3,1.4-6,2.6-8.9,4.2c-2.2,1.2-4.1,2.8-6.2,4.1c-2,1.2-4,2.2-6,3.4
		c-1.4,0.8-2.6,1.9-4,2.7c-2.9,1.5-5.9,2.8-8.9,4.2c-0.2,0.1-0.4,0.2-0.6,0.2c-2.3-0.4-3.6,1.6-5.4,2.4c-0.4,0.2-0.7,0.8-0.8,1.3
		c-0.1,0.6,0.1,1.2,0.2,1.9c0.2,1.6,0.4,3.1,2.1,3.9c0.2,0.1,0.3,0.3,0.5,0.4c1.8,2.1,3.6,4.2,5.4,6.3c0.8,0.9,1.4,2,2.1,3
		c0.8,1.2,1.6,2.5,2.4,3.8c1.2-5.2,2.3-10.1,3.6-15.1c0.5-2.1,1.4-4.2,2.1-6.2c0.1-0.3,0.4-0.4,0.7-0.6c0.2,0.2,0.6,0.4,0.6,0.7
		c0.1,0.4,0,0.8-0.1,1.2c-1,3.9-2.1,7.7-3,11.6c-0.7,3.1-1,6.2-1.6,9.3c-0.7,3.5-1.4,7-2.1,10.5c-0.3,1.7-0.5,3.4-0.7,5
		c0.1,0.1,0.3,0.1,0.4,0.2c0.1-0.2,0.2-0.4,0.3-0.6c2.3-2.6,4.5-5.2,6.8-7.8c0.1-0.2,0.3-0.5,0.2-0.7c-0.4-1.2,0.5-1.7,1.2-2.3
		c2.6-2.3,5.2-4.5,7.7-6.8c0.2-0.2,0.4-0.6,0.4-0.9c0.1-1.9-0.2-4,0.3-5.8c1.4-5.2,4.2-9.6,8.7-12.6c0.4-0.2,1-0.1,1.5-0.1
		c-0.2,0.5-0.3,1.2-0.6,1.5c-1.9,1.2-3.2,2.8-4.5,4.6c-2.6,3.4-3.9,7.2-3.8,11.6c1.2-0.9,2.4-1.8,3.6-2.7c3.1-2,6.2-4.1,9.4-6
		c0.4-0.2,1.3-0.2,1.5,0c0.5,0.7-0.1,1.1-0.7,1.4c-2.3,1.4-4.6,2.9-7,4.3c-5.9,3.5-10.2,9-15.9,13.1c1.1,0.7,2,1.6,3.1,1.9
		c3.7,1,6.5,3.4,9.5,5.7c2.2,1.7,4.6,3.2,7.1,4.4c4,1.9,7.9,3.7,10.9,7c0.7,0.8,1.6,1.5,2.4,2.2c0.9-0.7,1.7-1.3,2.5-1.9
		c3-2.4,6.2-4.5,8.9-7.1c3.7-3.5,7-7.3,10.5-10.9c4.3-4.4,5.5-9.6,4.1-15.5c-0.4-1.7-1.1-3.3-1.5-4.9c-0.1-0.4,0.3-0.8,0.5-1.3
		c0.4,0.2,1.2,0.4,1.2,0.7c0.8,2.7,1.9,5.4,2.2,8.2c0.5,4.1-0.5,8.2-3.2,11.5c-2.7,3.3-5.7,6.4-8.6,9.6c-1.1,1.2-2.2,2.3-3.3,3.5
		c0.2,0.1,0.2,0.2,0.3,0.2c0.2,0,0.4,0,0.6,0c3.3-0.1,6.4-1,9.2-2.8c1.7-1.1,3.3-2.3,4.9-3.3c0.4-0.2,1.1-0.4,1.4-0.2
		c0.7,0.4,0.2,1-0.1,1.5c-0.1,0.1-0.2,0.3-0.4,0.4c-3.6,2.7-7.3,5.2-11.9,6c-1.8,0.3-3.7,0.8-5.4-0.3c-0.1-0.1-0.4-0.1-0.5,0
		c-1.3,0.8-2.7,1.6-3.9,2.5c-1.3,1-2.4,2.2-3.6,3.3c-1.5,1.4-3.2,2.6-4.7,4c-2.9,2.8-5.7,5.8-8.6,8.5c-2.3,2.2-4.8,4.2-7.2,6.3
		c-1.4,0-2.7,0-4.1,0c3-2.5,6.1-4.9,9-7.5c2.8-2.5,5.5-5.3,8.3-7.9c0.9-0.9,0.5-1.7-0.2-2.3c-2.6-2.1-4.9-4.6-8.2-5.8
		c-4.1-1.5-7.7-3.7-11-6.6c-2.5-2.2-5-4.3-8.3-5.1c-0.5-0.1-0.9-0.4-1.3-0.7c-1.6-1.2-1.3-1.3-2.7,0.3c-2.7,3-5.3,6.2-7.9,9.4
		c-0.9,1.1-1.7,2.3-1.8,3.9c-0.1,2.7-0.8,5.3-2.1,7.6c-0.4,0.7-0.7,2-1.8,1.5c-1-0.5-0.3-1.6,0.1-2.3c1.6-3,2.3-6.4,2.1-9.7
		c-0.1-3.5-1.7-6.8-3.7-9.7c-1.8-2.5-3.2-5.1-3.8-8.2c-0.8-4.4-1.8-8.7-1.7-13.3c0.1-2.5-0.8-5-1.2-7.4c-0.3-1.8-0.9-3.6-0.9-5.5
		c-0.2-3.4,0-6.9-0.1-10.3c-0.1-2-0.5-4-0.8-6c-0.4-2.7-1.2-5.3-1.1-8c0.2-4.8-0.1-9.5-0.8-14.2c-0.4-2.7-2.2-4.7-3.4-7
		c-0.5-0.9-1.1-1.8-1.4-2.4c-1.3,0.1-2.3,0.4-3.2,0.1c-0.9-0.3-1.7-1.1-2.5-1.6C62,72,62.1,73.1,63,74c2.7,2.7,3.5,6.2,4,9.8
		c0.3,2.5,0.5,5,0.7,7.5c0,0.5-0.4,1.1-0.5,1.6c-0.4-0.4-1-0.8-1.1-1.3c-0.5-3.1-1.7-6-3.3-8.7c-0.8-1.3-1.1-2.9-1.6-4.4
		c-0.7-2.2-1.8-4.2-3.4-6.1c-1.5,1.6-3.1,1.9-5,0.9c0.1,0.8,0.4,1.5,0.7,2.2C54.4,79,57,82.1,57,86c0,0.2,0.1,0.3,0.2,0.5
		c0.8,2,1.5,3.9,2.3,5.9c0.2,0.5,0.5,1,0.5,1.6c0,0.5-0.4,0.9-0.6,1.4c-0.4-0.3-1-0.5-1.1-0.8c-0.8-2.6-2.3-4.7-3.7-6.9
		c-1.7-2.6-3.3-5.3-4.9-8c-0.5-0.8-0.8-1.6-1.3-2.5c-1.2,1.7-2.6,2.3-4.7,1.6c0.8,1.5,1.3,2.8,2,4c2.8,5,4.8,10.4,5.9,16
		c0.1,0.3-0.3,0.8-0.4,1.1c-0.4-0.2-0.8-0.3-1-0.5c-0.4-0.5-0.5-1-0.8-1.6c-1.4-2.8-2.8-5.7-4.2-8.5c-1-1.9-1.3-1.9-3.2-0.8
		c-0.9,0.5-1.9,0.6-2.9,1c0.5,1.2,0.9,2.8,1.7,4.2c3.2,6,7,11.7,8.3,18.5c0.6,2.9,2.4,5.1,4.2,7.3c0.7,0.9,1.4,0.9,2.2,0.5
		c1.6-0.9,3.2-2,4.8-3.1c0.5-0.3,1.1-0.8,1.7-0.2c0.6,0.7,0.1,1.1-0.4,1.5c-2.1,1.4-4.2,2.7-6.2,4c0.3,1.2,0.7,2.4,1,3.7
		c0.2,0.9,0.1,1.9,0.4,2.7c1.3,4.1,1.5,8.4,1.9,12.6c0.3,3.6,0.4,7.2,0.5,10.8c0,0.2,0.1,0.5,0.1,0.7c0.4,2.5,0.7,4.9,1.1,7.4
		c0.6,3.6,1,7.3,2,10.8c1.8,6.3,4.1,12.5,6.1,18.7C67.7,189.7,67,189.7,66.2,189.7z M142.9,58.2c-0.6-0.4-1.1-0.6-1.4-0.9
		c-0.6-0.7-1.2-1.3-1.5-2.1c-0.3-0.9,0.4-1.4,1.3-1.2c0.9,0.2,1.7,0.7,2.5,0.8c1.8,0.3,3.2,1,3.6,3c0.1,0.5,0.4,0.9,0.5,1.4
		c1.3,3.6,0.8,6.1-2.1,8.4c-2.2,1.8-2.4,1.7-4.1,0.1c-1.2-1.2-2.2-1.2-3.2,0.3c-0.7,1-1.2,2-1.8,3.1c-1,2,0.2,3.9,2.5,3.9
		c1.7,0,2.5-1.2,3.6-2.1c0.6-0.5,1.2-1.1,1.9-1.2c1.9-0.3,3.1-1.3,3.9-3.1c0.6-1.5,1.3-3,2-4.5c0.8-1.6,1.2-3.3,0.5-5
		c-0.5-1.3-1.2-2.6-1.8-3.9c-0.7-1.6-2-2.5-3.7-2.7c-1.4-0.2-2.8-0.2-4.2,0c-1.3,0.2-2.5,0.6-3.6,1.6c-1.9,1.8-5.1,1.4-6.8-0.6
		c-0.4-0.5-0.7-1-1.1-1.4c-2.4-2.1-4.8-4.1-7.2-6.2c-1-0.9-2-2-3-3c-0.3-0.3-0.5-0.5-0.8-0.8c-0.6-0.5-1.3-0.8-1.8-1.4
		c-1.4-1.7-2.3-3.6-2.9-5.7c-0.5-1.7-1.4-3.3-1.8-5c-0.5-1.9-0.4-3.9,0.9-5.9c-2.4,0.9-3.9,2.5-5,4.4c-0.4,0.6-0.6,1.5-0.5,2.3
		c0.2,3,0.9,5.9,2.4,8.6c1.1,1.8,0.6,2.5-1.6,2.7c-1.3,0.1-2.6,0.5-4,0.7c1.6,1,3,1.9,4.3,2.9c0.3,0.3,0.6,1.1,0.5,1.4
		c-0.3,0.6-1,0.8-1.7,0.4c-1.4-0.8-2.8-1.6-4.2-2.3c-1.6-0.8-3.3-1.6-4.6-2.3c0.1,1.7,0.3,3.6,0.5,5.5c0,0.4,0.2,0.7,0.3,1.1
		c1.2,3.7,2.7,7.3,3.7,11c1.1,4.4,2.6,8.7,2.8,13.3c0.1,2,0.9,4.1,1,6.1c0.2,3.1,0,6.3,0.1,9.4c0,0.8,0.1,1.8,1.2,1.9
		c2.4,0.2,4.8,0.5,7.2,0.5c2.5,0,5-0.5,7.5-0.5c1.7,0,2.8-0.6,3.7-1.9c0.2-0.3,0.4-0.6,0.6-1c1.3-2.1,2.5-4.3,3.8-6.4
		c0.2-0.3,0.7-0.4,1.1-0.6c0,0.4,0.2,0.9,0.1,1.3c-0.3,0.8-0.7,1.5-1.2,2.3c-1.3,2.3-2.6,4.6-3.8,6.8c-0.1,0.2-0.1,0.6,0,0.8
		c1,2.4,1.7,4.7-0.7,6.7c1.5,0.3,2.8,0.6,4.1,0.9c1.7,0.4,3.4,1,5.1,1.1c5,0.4,10,0.5,15,0.8c1.9,0.1,3.9,0.3,5.8,0.8
		c3,0.8,6,1.8,9.3,2.7c-0.6-2.8-0.8-5.6-1.7-8.1c-1.6-4.4-1.3-8.7-0.9-13.2c0.1-0.8,0-1.5-0.9-1.9c-1.6-0.6-3.1-1.3-4.7-1.9
		c-3.2-1.3-5.6-3.5-7.4-6.4c-0.4-0.6-0.8-1.3-1.1-1.9c-1.3,0.5-2.5,0.9-3.6,1.4c-0.5,0.2-1,0.5-1.3,0.8c-1.5,1.7-3.2,2.8-5.6,2.5
		c-1.7-0.2-3.2-1.1-3.8-2.9c-0.9-2.2-0.6-3.7,0.8-5c0.5-0.5,0.9-1.1,1.3-1.7c1.1-1.5,2.6-2.3,4.4-2.1c0.8,0.1,1.4,1,2.1,1.5
		c0.1,0.1,0.2,0.1,0.3,0.2c2-1.1,3.7-2.9,3.1-5c-0.3-1.2-0.5-2.4-0.9-3.6c-0.5-1.6-1.2-2-2.9-1.6C142.9,56.9,142.9,57.4,142.9,58.2z
		 M13.9,91.6c0.2,0.4,0.6,0.9,1,1.5c0.8,1.4,1.7,2.7,2.2,4.2c1.2,3.8,2.1,7.7,3.3,11.5c1.6,5.1,3.8,10,6.6,14.7
		c1.4,2.4,2.8,4.8,4.2,7.2c1,1.6,2.2,3.2,2.8,5c2.2,6.2,5.7,11.7,9.4,17c1.2,1.7,2.7,2.6,4.8,2.5c0.8,0,1.6,0.2,2.4,0.2
		c2.4,0,4.7,0,7.1,0c-0.2-1.2-0.4-2.2-0.4-3.3c-0.2-4.5-0.3-9.1-0.6-13.6c-0.1-2-0.4-4-0.7-5.9c-0.3-2.1-0.7-4.1-1.1-6.2
		c0-0.2-0.1-0.4-0.3-0.5c-1.3-1.3-2.5-2.6-3.8-3.9c-3-3-6-5.9-8.9-9c-3.9-4.1-5.6-9.4-8.3-14.2c-1.2-2.1-2.4-4.3-4.3-5.9
		c-0.6,0.8-1.1,1.7-1.8,2.3c-0.4,0.3-1.3,0.4-1.6,0.2c-0.7-0.5,0.1-0.9,0.4-1.4c0.8-1,1.4-2.1,2.2-3.1c0.7-0.8,0.7-1.5,0.3-2.4
		c-0.3-0.7-0.6-1.3-0.9-2.1c-0.9-0.1-1.4-0.7-1.6-1.8c-0.1-0.9-0.5-1.8-0.8-2.6c-1.2,0.3-2.2,0.6-3.2,0.7c-3.9,0.6-4.7,0.3-6.2-2.3
		c0-0.1-0.1-0.1,0,0c-1.5,0.4-2.8,0.8-4.1,0.9c-0.6,0.1-1.6-0.4-1.7-0.7c-0.2-1,0.7-1,1.5-1c1.5,0,2.7-0.5,3.9-1.5
		c0.9-0.8,2.2-1.3,3.4-1.6c1.9-0.5,3.8-0.7,5.7-1.1c1.5-0.3,2.9-0.8,4.4-1.2c0-0.1,0-0.2,0-0.4c-1.8-0.3-2.9-1.3-3.5-2.8
		c-2.1,0.2-4.1,0.5-6.2,0.5c-1.9,0-3.7,0.1-5.4,1.1c-0.3,0.2-0.7,0.1-1.1,0.3c-1.1,0.4-2.1,0.7-3.1,1.1c-0.6,0.3-1.2,0.9-1.8,0.2
		c-0.6-0.7,0-1.3,0.6-1.7c1.9-1.2,3.9-2.4,5.9-3.5c0.2-0.1,0.5-0.2,0.7-0.2c2.4-0.2,4.7-0.4,7.1-0.5c1.3-0.1,2.6,0,3.9,0
		c0.1-0.1,0.2-0.1,0.2-0.2c-1.6-1.2-0.8-2.6-0.6-4.1C25,63.6,24,63.4,23,63.5c-2.6,0.1-5.2,0.4-7.9,0.4c-2.6,0-5,0.3-6.7,2.6
		c-0.2,0.3-0.9,0.3-1.3,0.4c0-0.5-0.1-1,0.1-1.3c0.5-0.7,1.2-1.3,1.8-1.9c0.7-0.6,1.2-1.2,1-2.4c-0.4,0.1-0.7,0.3-1,0.2
		c-0.4,0-0.9-0.2-1.3-0.4c0.2-0.4,0.3-1,0.6-1.2c0.8-0.3,1.7-0.6,2.5-0.6c3-0.1,6-0.2,9.1-0.3c1.3,0,2.7-1,2.9-2.1
		c-0.1,0-0.2-0.1-0.3-0.1c-2.1,0.1-3.9-0.1-4.5-2.6c0-0.1-0.1-0.2-0.2-0.2c-2.1-0.8-4.1-1.5-6.4-0.9c-1.4,0.4-2.9,0.7-4.3,0.9
		c-0.2,0-0.7-0.2-0.8-0.4c-0.1-0.2,0-0.7,0.3-0.9C7,52.5,7.5,52.3,8,52.2c0.8-0.2,1.2-0.5,0.7-1.3c-0.2-0.3-0.2-0.6-0.3-1
		c-0.5-2,0.1-2.8,2.2-3.2c1.3-0.3,2.6-0.9,3.8-1.6c0.7-0.4,0.7-0.6,0.1-1.4c-2.9,2.5-4.2,1.8-5.3-0.3c-0.4,0.2-0.8,0.3-1.1,0.5
		c-3.3,1.3-5.4,4.2-5.3,7.7c0.1,1.6,0.4,3.2,0.7,4.9c0.4,2.4-0.3,4.6-0.9,6.9c-0.9,3.8-1.4,7.5,0.6,11.2c1.2,2.2,2,4.6,3.3,6.7
		c1.6,2.6,3.5,5,5.3,7.5c0.2,0.3,0.5,0.6,0.9,0.7c1.9,0.6,3.8,1,5.7,0.1c1.1-0.5,2.1-1.3,3.1-1.9c0.3-0.2,0.8-0.1,1.2-0.1
		c-0.1,0.4-0.1,1-0.3,1.1c-1.4,0.9-2.7,1.9-4.2,2.5C16.9,91.5,15.3,91.4,13.9,91.6z M77.7,121.9c2.3-1,4-3,6.7-2.9
		c0.1,0,0.2-0.1,0.3-0.2c1.5-0.7,3.1-1.5,4.6-2.2c2.2-1.1,4.3-2.3,6.4-3.5c2-1.2,3.9-2.5,5.9-3.6c1-0.6,2.2-1,3.1-1.7
		c3.9-3.1,8.2-5.4,12.9-7.2c2.3-0.9,4.4-2.5,7.1-2.5c0.6,0,1.5-0.8,1.7-1.4c0.3-1.3,0.5-3-0.6-3.8c-0.9-0.6-2.5-0.5-3.7-0.4
		c-2.4,0.2-4.8,0.5-7.3,0.8c-1,0.1-2.1,0-3.1,0c-1.7,0.1-3.7,0.4-5-1c-1-1-1.9-1-3-1.1c-0.4,0-0.8-0.2-1.2-0.2
		c-2.7-0.2-5.3-1-7.5-2.6c-3.4-2.3-6.3-5-7-9.4c-2.3,0-4.5,0-6.7,0c-1.2,0-1.8,0.5-2,1.7c-0.3,1.7-1.4,2.6-3,2.9
		c-0.3,0.1-0.7,0.1-1,0.3c-0.2,0.1-0.4,0.4-0.4,0.6c0.1,1.2,0.2,2.5,0.3,3.7c0.1,2.5,0.5,5,0.2,7.4c-0.3,2,0.2,3.9,0.6,5.8
		c0.3,1.6,0.9,3.1,1,4.7c0.3,4.4,0.4,8.7,0.6,13.1C77.5,120,77.6,120.9,77.7,121.9z M97.3,50.8c-0.1-0.1-0.2-0.2-0.4-0.2
		c-0.7,0.5-1.5,1-2.1,1.5c-2.9,2.7-5,6-5.8,9.9c-0.5,2.7-0.4,5.5-0.6,8.2c0,0.2,0.1,0.5,0.3,0.7c1.5,2.1,1.8,4.6,1.4,6.9
		c-0.4,2.1,0.1,3.5,1.3,5.1c2.8,3.6,6.3,6,11.2,6.3c-1.7-1.6-1.8-3.4-1.4-5.5c0.3-1.8,0.2-3.5-1.8-4.6c-0.9-0.5-1.5-1.4-1.2-2.6
		c0.3-1.1,0-1.5-1-1.9c-2-0.9-2.1-1.7-1.4-3.8c0.4-1.3,0.3-2.7,0.3-4.1c0-0.4-0.5-0.8-0.9-1c-1-0.8-2.1-1.5-3.1-2.4
		c-0.3-0.2-0.5-0.6-0.5-0.9c-0.1-1.5,0-3,0.9-4.2c1.3-1.8,2.7-3.5,4-5.3C96.8,52.1,97,51.4,97.3,50.8z M44.1,83.3
		c-0.5-1-0.8-1.8-1.1-2.6c-0.6-1.4-1.3-2.7-1.1-4.3c0.2-1.6,1.2-2.8,2.9-3.2c1.8-0.5,3-0.1,3.9,1.4c1.5,2.6,2.9,5.2,4.4,7.8
		c0.4,0.8,1,1.1,1.9,0.8c-0.4-0.9-0.9-1.8-1.2-2.8c-0.9-2.9-3-5.4-2.6-8.7c0.1-0.9,0.4-1.3,1.1-1.6c2.5-0.8,4.9-1.3,6.6,1.5
		c0.1,0.2,0.3,0.3,0.4,0.5c1.7,2.1,3.1,4.4,3.7,7.2c0.3,1.5,1.3,2.8,1.9,4.3c0.4-2.5-1.1-6.6-2.8-8.3c-1-1-1.5-2.2-1.5-3.6
		c-0.1-1.8-0.4-3.6-0.6-5.4c-7.8-0.5-15.3,1.7-23.2,1.9c0.4,5.3,0.7,10.4,1.1,15.6C39.9,83.6,41.9,83.4,44.1,83.3z M98.7,51.4
		c-0.7,1.1-1.5,2.2-2.2,3.3c-1.2,1.8-2.4,3.5-3.4,5.3c-0.5,0.9-0.5,1.9,0.7,2.7c1.2,0.7,2.1,1.9,3.2,2.6c0.6,0.4,1.7,0.4,2.3,0.1
		c0.7-0.4,0.7-1.3-0.1-1.9c-0.2-0.2-0.1-0.6-0.1-0.9c0.3,0,0.7-0.1,0.9,0c0.4,0.2,0.8,0.5,1,0.9c0.6,1.9-0.6,3.5-2.6,3.5
		c-0.2,0-0.5,0-0.7,0c-0.1,0.2-0.2,0.2-0.2,0.3c0,1.6,0.3,3.3-0.7,4.8c-0.1,0.1,0.2,0.7,0.4,0.8c0.6,0.4,1.3,0.7,1.9,1
		c1.5,0.8,3.1,1.5,4.6,2.3c0.3,0.2,0.4,0.6,0.6,0.9c-0.4,0.1-0.8,0.3-1.3,0.3c-0.3,0-0.7-0.4-1-0.6c-0.7-0.4-1.4-0.8-2.1-1.3
		c-0.2,0.4-0.3,0.6-0.4,0.8c-0.2,1,0.5,1.5,1.1,2.1c0.7,0.7,1.6,1.4,1.8,2.2c0.3,1.1,0.2,2.5,0.1,3.7c-0.3,2.4,0.4,3.6,2.9,4.7
		C105.7,75.9,102.7,63.5,98.7,51.4z M29.9,86.2c0.6,1.9,1.1,3.7,1.6,5.5c0.1,0.4,0.2,0.9,0.5,1.3c1.7,2.7,3.4,5.4,5.1,8.1
		c1.6,2.6,2.9,5.4,4.7,7.9c2,2.9,4.2,5.6,7.2,8c-0.4-1.1-0.8-1.9-1.1-2.8c-0.9-2.9-1.6-5.9-2.8-8.6c-2.1-4.8-4.6-9.4-6.8-14.1
		c-0.9-1.9-1.7-3.9-0.6-6.3C34.9,85.5,32.4,85.8,29.9,86.2z M74.9,82.2c0.4-0.1,1.1-0.2,1.8-0.4c1-0.3,1.6-2.4,1-3.2
		c-0.5-0.8-0.9-1.6-1.2-2.5c-0.5-1.8-0.7-3.7,0.7-5.3c0.1-0.1,0.1-0.5,0.1-0.7c-0.5-2.4-1.8-3.5-4.2-3.8c-0.4-0.1-0.9-0.1-1.3-0.1
		c-3.5,0-7,0-10.7,0c0.1,0.9,0.3,1.8,0.4,2.7c0.8-0.3,1.5-0.6,2.3-0.8c0.6-0.1,1.3-0.1,1.8,0.2c1,0.7,2.1,1.5,2.8,2.5
		c1.3,1.6,2.4,3.4,3.4,5.2C72.8,78,73.8,80,74.9,82.2z M79.5,132.2c0,0.2,0,0.4,0,0.5c-0.1,3.4,0.1,6.8,1.2,10.2
		c0.8,2.5,1.4,5,2.2,7.5c0.3,1,1,1.1,1.9,0.9c1.4-0.3,2.8-0.6,4.2-1c0.3-0.1,0.6-0.5,0.8-0.8c0.7-1.6,1.2-3.3-0.7-4.5
		c-0.3-0.2-0.5-0.7-0.7-1c-1.8-3.8-4.8-6.8-7.2-10.1C80.8,133.2,80.1,132.8,79.5,132.2z M31,69.3c0.3,0.5,0.4,0.8,0.6,1
		c1.2,1.8,1,3.3-0.8,4.5c-0.9,0.6-2,1-3.1,1.4c-0.7,0.2-0.9,0.6-0.9,1.3c0,2.1,0.3,4.1,1.2,6c0.4,0.9,0.8,1.3,1.8,1.2
		c2.2-0.3,4.4-0.6,6.6-0.8c-0.2-5.1-0.5-10.1-0.7-15.1C34.2,68.9,32.6,69.1,31,69.3z M177.9,40.3c-0.7-0.9-1.5-1.6-2-2.5
		c-0.7-1.3-1.7-1.6-3-1.1c-0.3,0.1-0.7,0.2-1.1,0.3c-2.9,0.4-4.7,2.2-5.6,4.8c-0.4,1.3-0.3,2.8-0.3,4.1c0,2.3,2.1,4,4.3,3.6
		c0.5-0.1,1-0.3,1.5-0.4c0.8-0.1,1.1-0.6,1.1-1.3C172.9,44.4,174.5,41.9,177.9,40.3z M165.4,75.4c0.1-0.9,0.2-1.6,0.2-2.4
		c0.2-3.2,1-6.3,2.8-8.8c2.4-3.3,3.3-6.9,3.6-10.8c0-0.7-0.3-1.2-0.9-1.1c-0.5,0-1.2,0.4-1.4,0.8c-0.3,0.7-0.6,1.6-0.5,2.3
		c0.4,2.2-0.9,3.8-1.8,5.6c-1.4,3-3.7,5.6-4.1,9c-0.1,1.1-0.1,2.3,0.2,3.4C164,74,164.8,74.6,165.4,75.4z M17.2,46.6
		c-2.2,0.6-4.4,1.2-6.5,1.7c-0.7,0.2-0.9,0.5-0.7,1.2c0.1,0.4,0.3,0.9,0.4,1.3c0.1,0.6,0.3,0.8,1,0.7c1-0.2,2.1,0.1,3.1,0.1
		c0.5,0,1.1,0.1,1.4-0.1c2-1.5,2.1-2.1,1.3-4.6C17.3,46.8,17.2,46.7,17.2,46.6z M82.6,77.3c0.1-1.8,0.2-3.6,0.3-5.3
		c-3.9-0.3-4.6,0-4.6,1.7C78.1,77.4,78.1,77.4,82.6,77.3z M88.5,77.4c-0.1-1.3-0.2-2.6-0.4-3.8C88,72.8,87.7,72,86.5,72
		c-0.8,0-1.6-0.2-2.4-0.4c0,1.8,0,3.6,0,5.3c0,0.2,0.4,0.7,0.6,0.7C86,77.6,87.1,77.5,88.5,77.4z M84.7,153.3
		c1.2,2.2,2.3,4.3,3.4,6.4c0.4-2.4,0.8-4.8,1.2-7.5C87.6,152.6,86.2,153,84.7,153.3z M46.5,74.4c-2,0-3.1,0.7-3.1,1.7
		c0,0.9,0.9,1.7,2,1.6c1,0,2.3-1.2,2.1-2.2C47.3,75,46.7,74.6,46.5,74.4z M42.4,86.7c0-0.1,0-0.3,0-0.4c-1-0.2-2-0.6-3-0.7
		c-0.3,0-0.7,0.5-0.9,0.9c-0.2,0.5-0.2,0.9,0.6,1.2C40.7,88.4,41.4,87.1,42.4,86.7z M56.7,71.4c-1-0.8-3.1-0.8-3.9-0.1
		c-0.1,0.1-0.1,0.6,0,0.7C53.9,73.1,56,72.7,56.7,71.4z M66.8,71.2c-1.4-2.1-2.3-2.4-3.8-1.3C63.8,71.5,65.2,71.5,66.8,71.2z
		 M30.6,72.5c0.1-2.2-0.9-2.5-3.3-2.1C27.6,72.3,29.4,71.9,30.6,72.5z M27.4,64.7c-1.1,1.5,0.5,2.1,0.9,3.1
		C29.7,66.6,29.3,65.4,27.4,64.7z M43.3,84.9c1.2,1.1,2.4,2.2,3.6,3.4c-0.1,0.1-0.2,0.2-0.3,0.3c-0.3-0.7-0.6-1.3-0.8-2
		C45.5,85,44.6,84.5,43.3,84.9z M19.6,54.3c0.6,1.6,1.8,1.2,2.8,1.1c0-0.1,0.1-0.3,0.1-0.4C21.6,54.8,20.6,54.5,19.6,54.3z
		 M13.1,42.7c-1,0.1-1.7,0.1-2.6,0.2C11.4,44.3,11.9,44.3,13.1,42.7z"/>
	<path class="st0" d="M105.7,51.2c-1.1-0.6-2.1-1-2.9-1.6c-0.6-0.5-1.1-1.3-1.5-2c-0.1-0.2,0.1-0.8,0.3-1c0.2-0.2,0.9-0.1,1,0.1
		c1.2,1.6,3.1,2,4.8,2.8c1.7,0.8,1.7,1.6,0.1,2.7c-1.2,0.9-2.5,1.7-3.8,2.6c-1-0.7-1.1-1-0.1-1.9C104.3,52.4,104.9,51.8,105.7,51.2z
		"/>
</g>
</svg>
