<?xml version="1.0" encoding="utf-8"?>
<!-- Generator: Adobe Illustrator 19.2.0, SVG Export Plug-In . SVG Version: 6.00 Build 0)  -->
<svg version="1.1" id="Layer_1" xmlns="http://www.w3.org/2000/svg" xmlns:xlink="http://www.w3.org/1999/xlink" x="0px" y="0px"
	 viewBox="0 0 200 208.9" style="enable-background:new 0 0 200 208.9;" xml:space="preserve">
<style type="text/css">
	.st0{fill:#8BC34A;}
</style>
<g id="itchyeyes-child">
	<path class="st0" d="M157.2,208.9c-0.5-2.4-0.9-4.8-1.4-7.1c-0.4-2.2-0.8-4.3-1.1-6.5c-0.4-2.7-0.9-5.3-1.3-8
		c-1-6.6-3.4-12.7-5.2-19c-0.1-0.3-0.3-0.5-0.2-0.8c0.4-2.1-0.6-3.3-2.1-4.5c-1.2-0.9-2.1-2.2-3.3-3.2c-0.5-0.4-1.1-0.6-1.6-1.1
		c-0.4-0.4-0.6-1-0.9-1.5c0.6-0.3,1.3-0.9,1.8-0.8c0.9,0.3,1.7,1.1,2.5,1.7c0.4,0.3,0.8,0.8,1.1,1.2c1.9,2.8,4.5,2.9,7.3,1.8
		c3.4-1.3,6.7-2.8,10-4.3c2.7-1.2,5.4-2.3,8-3.6c1.4-0.7,2.6-1.7,3.9-2.5c0.6-0.3,1.3-0.5,1.8-0.7c0.1-3.3-2.3-5.3-3.8-7.8
		c-2.4-3.8-4.7-7.7-7.2-11.5c-1.2-1.8-2.8-3.3-4.2-4.9c-1.1-1.4-2.4-2.7-3.3-4.2c-0.5-0.8-0.9-1-1.7-0.8c-2,0.5-3.7,0.1-4.9-1.4
		c-1.8,0.3-3.4,0.6-5.1,0.9c-0.2,0.6-0.3,1.4-0.7,2.1c-1.6,2.7-6,2.8-7.6,0.1c-0.7-1.2-1.4-1.6-2.7-1.5c-0.8,0.1-1.5-0.2-2.5-0.3
		c-1.3,2.9-3.8,4.6-6.2,6.5c-1.2,0.9-2.1,2.4-2.9,3.8c-1.4,2.7-3.7,4.4-6.4,5.4c-2.6,1-5.4,1.5-8,2.5c-2,0.7-3.9,1.1-6.1,1.1
		c-3.8,0-7.2-1.5-10.8-2.6c-3-0.9-5.8-2.1-7.6-5.1c-2.8,3.7-5.5,7.2-8,10.9c-3.2,4.6-7,8.4-12,11c-0.4,0.2-0.9,0.9-0.8,1.3
		c0.2,3.5-0.9,6.7-1.8,10c-0.9,3-3,5.2-5.8,6.6c-3.3,1.7-6.8,3.1-10.2,4.8c-2.1,1.1-4.2,0.9-6.3,0.8c-2.8-0.2-5.4-1-7.9-2.1
		c-1.9-0.8-3.7-1.7-5.3-3.2c-1.1-1-2.6-1.6-3.9-2.4c-0.6-0.4-1.3-0.8-1.7-1.4c-1.2-2-2.3-4.1-3.2-6.3c-0.9-2.3-1.6-4.7-2.2-7.1
		c-0.3-1.3-0.6-2.6-0.6-3.9c0.1-4.5,0.1-9,0.6-13.4c0.3-2.4,1.5-4.7,2.3-7c1.8-5.1,5.7-8.5,9.8-11.7c1.1-0.9,2.4-1.7,3.5-2.5
		c0-0.1-0.1-0.2-0.1-0.4c-0.9,0.1-1.8,0.2-2.6,0.5c-2.8,1-5.4,2.4-7.6,4.4c-3.9,3.5-7.6,7.3-9.4,12.5c-0.4,1.1-1.1,2-1.7,3
		c-2.9,4.7-4.1,9.8-4.7,15.3c-0.3,3.1-1.3,6.1-2,9.1c-0.3,1.4-0.7,2.8-0.7,4.2c0,3.5-0.1,7,0.3,10.4c0.4,2.9,1.4,5.7,2.5,8.4
		c1,2.4,3.1,4,5.5,5.1c4,1.8,8.1,2.9,12.5,3.1c3.3,0.1,6.6,0.2,10,0.2c0.9,0,1.9-0.4,2.8-0.4c0.6,0,1.2,0.4,1.8,0.6
		c-0.2,0.6-0.3,1.3-0.8,1.7c-0.4,0.4-1.2,0.6-1.8,0.6c-7,0.2-14,0.6-20.7-1.7c-2.2-0.7-4.3-1.7-6.3-2.5c1.5,2.5,3.2,5.2,4.8,7.9
		c0.8,1.3,1.4,2.8,1.8,4.3c0.6,2.2,1.7,4.1,3.1,5.9c-1.1,0-2.2,0-3.3,0c-1.5-1-1.7-2.8-2.2-4.3c-1.4-4.2-3.4-8.1-6.3-11.6
		c-0.4-0.5-0.8-1-1-1.6c-1.1-2.4-2.3-4.8-3.1-7.4c-0.9-2.9-1.9-5.8-2.2-8.8c-0.3-4.4-0.1-8.8,0.1-13.1c0-1,0.6-1.9,0.8-2.9
		c0.7-3.4,1.3-6.8,1.9-10.2c0.9-5,2.2-9.9,5.1-14.3c1.2-1.8,1.9-3.8,2.9-5.7c2.6-4.9,6.6-8.5,11-11.7c2.7-1.9,5.7-3.3,9.1-3.6
		c1.3-0.1,2.8-0.7,3.7-1.5c1.5-1.4,3.1-0.8,4.6-0.6c0.4,0,0.9,0.1,1.2-0.1c1-0.7,1.9-1.4,2.9-2.2c0.3-0.2,0.5-0.5,0.9-0.7
		c2.6-1.5,5.1-3,7.7-4.4c0.7-0.4,1.1-0.7,1.3-1.6c0.2-1.1,0.5-2.2,1-3.1c2.3-4.3,2.2-8.7,0.5-13.1c-0.7-1.7-1.1-3.5-1.7-5.2
		c-0.7-2.2-1.5-4.4-2.2-6.7c-0.2-0.6-0.3-1.3-0.3-1.9c0-5.6-0.3-11.2,0.8-16.7c0.3-1.4,0.2-3,0.1-4.4c-0.1-4.6,0.7-9.1,2-13.5
		c0.3-1.1,0.4-2.3,0.4-3.4c0.1-1.9,0.6-3.6,1.8-5.1c0.3-0.3,0.4-0.8,0.6-1.2c0.7-1.5,1.2-3.1,2.1-4.4c2.2-3.5,4.7-6.8,8-9.3
		c2-1.5,4.2-2.8,6.4-4.1c2.7-1.5,5.5-2.8,8.2-4.3c0.9-0.5,1.8-0.9,2.6-1.5c3.1-2.4,6.5-3.7,10.4-3.9c2.2-0.1,4.4-0.5,6.6-0.6
		c3.6-0.3,7.1,0.4,10.6,1.4c2.6,0.8,5.2,1.4,7.5,3c1.4,1,3.4,1.2,4.9,2c4.1,2.2,8,4.8,12.2,6.9c5.2,2.6,8.3,7.1,12,11.3
		c4.7,5.3,7.8,11.6,10.7,18c0.4,0.8,0.6,1.8,0.6,2.7c-0.1,3.5,0.3,6.9,0.9,10.3c0.3,1.7,0.4,3.5,0.1,5.2c-0.1,1-0.8,2.2-1.6,2.9
		c-1.5,1.4-2.6,3-3.3,5c-0.8,2.1-2.1,4.1-3.4,5.9c-0.9,1.3-1.5,2.7-1.5,4.2c-0.1,1.5-0.7,2.7-1.8,3.8c-1.4,1.4-2.6,2.8-3.9,4.3
		c-0.5,0.5-0.8,1.2-1.2,1.8c0.1,0.2,0.1,0.3,0.2,0.5c2.2-0.2,4.4-0.4,6.5-0.7c2.4-0.4,4.8-0.7,7.1,0.4c1.6,0.8,3,2,4.5,3
		c1.2,0.8,2.3,1.7,3.5,2.5c2.1,1.4,4.5,2.2,7.1,1.9c4-0.4,7.5,0.9,11,2.6c3.2,1.5,5.7,4,7.7,6.8c2.5,3.7,5,7.5,7,11.6
		c2.7,5.5,2.7,8.5-1.3,13.2c-1,1.1-1.8,2.4-2.7,3.5c-2.2,2.7-5.2,4.1-8.2,5.6c-2.7,1.3-5.3,2.7-8.1,4.1c0.8,2.2,1.5,4.3,2.3,6.3
		c0.7,1.8,0.2,2.2-1.6,2.5c-1.6,0.2-3.2,1.1-4.8,1.9c-0.9,0.4-1.8,1.2-2.7,1.6c-4.5,2.1-8.9,4.1-13.5,6.1c-2.2,0.9-4.6,1.6-7,2.4
		c-0.5,2.1,0.4,4.3,1.1,6.4c2.1,6.1,3.9,12.2,4.9,18.5c0.3,2.2,0.6,4.4,1,6.6c0.6,3.1,1.3,6.2,1.9,9.3c0.2,1.2,0.3,2.4,0.5,3.6
		C159,208.9,158.1,208.9,157.2,208.9z M116.7,106.7c1.6,0.6,2.9,0.9,4.1,1.4c3.3,1.4,5.7-0.3,7.8-2.4c1.6-1.5,1.5-3.6,1.1-5.7
		c-0.6-3.6-2.3-6.6-3.9-9.8c-1.2-2.3-2.9-4.2-5.3-5.2c-2.1-0.9-4.3-1.4-6.4-2.3c-2.1-0.9-4.2-0.7-6.2-0.4c-3.6,0.5-6.6,2.5-9.3,4.8
		c-2.7,2.3-5.6,3.9-9.1,4.5c-1.1,0.2-2.2,0.7-3.2,1.3c-2.6,1.4-5,2.9-7.6,4.2c-3.7,1.8-7.5,3.7-11.4,4.9c-4.2,1.3-8.2,2.8-12.2,4.8
		c-0.6,0.3-1.4,0.4-2.1,0.5c-0.7,0.2-1.6,0.3-2.2,0.7c-2.7,1.8-5.4,3.7-8.1,5.5c-0.7,0.5-1.5,1-2.2,1.4c-3.9,1.9-7.5,4.1-11,6.6
		c-6.6,4.7-10.1,11.1-11,18.9c-0.4,3.1-0.3,6.4-0.2,9.6c0.1,7.2,3.3,12.9,9.6,16.5c1.6,0.9,3.6,1.5,5.5,1.7
		c4.5,0.5,8.9-0.3,12.9-2.6c2.7-1.5,5.4-3,6.7-6.1c0.2-0.6,0.8-1,1.3-1.4c1.9-1.3,3.8-2.5,5.8-3.8c1.3-0.8,2.5-1.7,3.8-2.5
		c3.3-1.8,6.2-4,8.6-6.9c3.1-3.8,6.2-7.6,9-11.7c2.3-3.2,4.7-6.2,7.3-9.1c2.6-2.9,5.4-5.5,8-8.4c2.7-2.9,5.2-5.9,5.8-10.1
		c0.1-0.4,0.7-0.7,1.1-1.1c0.2,0.5,0.7,1,0.6,1.4c-0.4,1.7-0.9,3.4-1.4,5.1c0,0,0.3-0.1,0.7-0.1c2.7-0.3,5.2-0.8,7.3-2.7
		c0.9-0.8,1.9-1.4,3-1.9c1.6-0.9,3.2-1.8,4.9-2.5c2.4-1.1,4.4-2.5,4.8-5.4c0,0,0-0.1,0.1-0.1c0.3-0.2,0.7-0.4,1-0.6
		c0.1,0.4,0.3,0.8,0.2,1.2c-0.1,0.6-0.4,1.2-0.6,1.8c0.5-0.2,0.7-0.6,1-0.7c0.4-0.2,0.9-0.1,1.4-0.2c-0.1,0.4-0.1,0.9-0.4,1.2
		c-0.4,0.4-1,0.7-1.5,1c0.1,0.2,0.2,0.3,0.3,0.5c0.6,0.1,1.2,0.1,1.7,0.2c0.4,0.1,0.7,0.5,1.1,0.8c-0.4,0.2-0.7,0.6-1.1,0.5
		c-1.4-0.1-2.7-0.3-4.2-0.4c0.3,0.5,0.7,0.9,0.9,1.3c0.1,0.3,0.1,0.7,0.1,1.1c-0.4-0.1-0.9,0-1.2-0.2c-0.5-0.5-0.8-1.1-1.2-1.6
		C120,105,118.6,105.8,116.7,106.7z M154.1,64c-1.4-0.4-3.1-1.1-4.9-1.4c-2.7-0.5-4.9-1.8-6.8-3.6c-2-1.9-4.1-3.7-6.2-5.5
		c-1.6-1.3-3.4-2-5.5-1.9c-2.8,0.1-5.6,0-8.3,0c-2.9,0-5.9,0.4-8.2,2.4c-2.7,2.2-5.8,3.5-8.9,5c-1.8,0.9-3.5,1.2-5.5,1.1
		c-2.8-0.2-5.2,1.1-7.5,2.3c-0.3,0.2-0.6,0.5-0.8,0.8c-0.9,2.7-1.9,5.3-2.7,8c-0.4,1.2-1.4,3.1-2.4,3.1c-2.3,0-4.7,0.7-6.7-1.2
		c-0.3-0.3-0.9-0.3-1.4-0.4c-1.2-0.2-2-0.8-2.2-2.1c-0.5-2.5-1-4.9-1.6-7.4c-0.6-2.5-1.8-4.7-3.9-6.2c-1.1-0.8-2.5-1.5-3.8-1.5
		c-4.7-0.2-8.5,4.3-9,7.7c-0.6,3.9-0.5,8.1,1.3,11.9c0.5,1.1,1.3,2,2,2.9c2.3,3,5.2,5.2,8.5,6.9c0.5,0.3,1.4,0.4,2,0.2
		c1.8-0.5,2.4-1.9,1.8-4.1c-0.3-1-0.5-2.4-1.9-2.3c-3.4,0.2-5.8-2-8.1-3.8c-2.9-2.3-3.9-5.7-3.6-9.4c0.1-1.1,0.6-2.1,0.8-3.2
		c0.4-3,3.5-5,6.3-4.1c2.8,0.9,6,5.8,5.6,8.7c0,0.3-0.1,0.7-0.3,0.9c-0.9,1-0.4,1.6,0.5,2.1c0.5,0.3,1,0.4,1.5,0.7
		c0.4,0.3,0.9,0.8,0.8,1c-0.1,0.4-0.6,0.9-1,0.9c-1.7,0.2-2.8-1-3.8-2.2c-0.8-0.9-0.8-2.2-0.1-3.1c0.6-0.9,0.5-1.6,0.3-2.4
		c-0.4-2.1-1.8-3.2-3.4-4.3c-1.3-0.9-3.6-0.1-4.1,1.4c-0.4,1.4-0.9,2.7-1,4.1c0,1.9,0.4,3.8,1.5,5.6c1.4,2.1,3.4,3,5.4,4.2
		c0.8,0.5,1.9,0.8,2.8,0.8c1.3,0,2.3,0.3,2.9,1.4c0.5,1,1.1,2.1,1.3,3.1c0.5,2.3-0.3,4.3-2.1,5.8c-1.4,1.2-3.2,0.8-4.6,0
		c-1.8-0.9-3.5-2.1-5.1-3.3c-1.2-0.9-2.2-2-3.3-2.9c-0.7-0.6-1.2-0.3-1.2,0.7c-0.1,4.3-0.1,8.7-0.3,13c-0.1,2.2-0.4,4.3-1.7,6.2
		c-0.7,1-0.9,2.2-1.2,3.1c3.9-1.3,7.9-2.3,11.6-3.9c5.8-2.5,11.4-5.5,17.1-8.2c1.6-0.7,3.2-1.2,4.8-1.9c2-0.8,4.2-1.5,6-2.7
		c3.2-2.2,6.2-4.9,10.1-6c3-0.8,6-1.3,9,0c0.8,0.4,1.7,0.4,2.5,0.6c0.1-0.2,0.1-0.3,0.2-0.5c-1.2-0.6-2.3-1.1-3.5-1.7
		c-0.3-0.2-0.6-0.6-0.8-0.9c0.4-0.2,0.8-0.5,1.1-0.5c1,0.3,2,0.7,2.9,1.2c2.9,1.8,5.3,5,9.4,3.8c0.2-0.1,0.7,0.3,0.7,0.6
		c0.1,0.2-0.2,0.7-0.5,0.8c-0.6,0.3-1.3,0.6-1.9,0.8c0.7,1.1,1.4,2.1,2.1,3.2c2.6,4.6,5,9.3,5,14.8c0,0.3,0.2,0.5,0.4,0.8
		c0.2,0.3,0.4,0.6,0.7,0.9c-0.4,0.2-0.8,0.4-1.2,0.6c-0.5,0.3-1,0.5-1.4,0.8c-2.2,1.9-4.3,3.9-7.4,3.7c-0.4,0-0.9,0.3-1.2,0.5
		c-3.2,2.3-7.1,3-9.9,0.3c-0.2-0.2-1-0.2-1.3,0c-1.7,1.4-3.8,1.5-5.8,1.9c-1.4,0.2-3,0.7-4,1.6c-2.5,2.2-4.6,4.8-7.1,7.3
		c0.2,0.2,0.5,0.3,0.7,0.5c3.8,2.5,7.5,5,11.3,7.5c0.5,0.3,1.1,0.7,1.8,0.8c2.1,0.4,4.2,0.8,6.3,1c2.6,0.2,5.1,0.2,7.3-1.7
		c2.1-1.9,4.3-3.6,6.6-5.2c2.2-1.6,3.8-3.6,4.3-6.4c0.2-0.9,0.1-2,0.4-2.9c0.7-2.5,0-5.4,2-7.1c-0.2-0.7-0.5-1.4-0.3-1.5
		c0.4-0.3,1.1-0.4,1.6-0.5c0.4-0.1,1,0.1,1.4-0.1c1.2-0.8,2.1-3,1.8-4.9c-0.7-3.6-1.6-7.2-1.5-11c0.1-3.2,0.8-6,3.1-8.4
		c2.3-2.4,5.1-3.6,8.4-3.9c0.5-1,0.9-2.3,1.6-3.4c1-1.7,2.3-3.4,3.3-5.1c0.4-0.8,0.7-1.7,0.8-2.6C154.4,65.8,154.2,64.9,154.1,64z
		 M160,119.7c-0.1,0.1-0.2,0.2-0.3,0.3c1,1.2,1.9,2.5,3,3.7c1.5,1.8,3.3,3.4,4.7,5.2c1.4,1.7,2.4,3.7,3.6,5.6
		c0.3,0.4,0.7,0.9,1.2,1.1c2.4,1,4.8,1.7,7.4,1.9c1.5,0.1,3.1,0.7,4.3,0.2c2.7-1.1,5.5-2.3,7.5-4.6c1.6-1.9,3.1-3.9,4.6-5.8
		c1.3-1.7,1.5-3.7,0.9-5.6c-0.4-1.4-1-2.7-1.7-3.9c-1.4-2.4-3-4.8-4.2-7.2c-1.6-3.1-3.7-5.7-6.4-7.8c-3.1-2.3-6.5-3.6-10.4-3.8
		c-1.9-0.1-4,0.1-5.8-0.4c-4.7-1.4-8.3-4.7-12-7.7c-0.3-0.2-0.6-0.5-0.9-0.5c-1.4,0-2.9-0.3-4.3,0.1c-2.3,0.6-4.5,0.8-6.8,0.5
		c-1-0.1-1.8,0.2-2.2,1.4c-0.4,1.5-1.1,2.8-1.5,4.3c-0.2,0.7-0.3,1.6-0.3,2.3c0.2,3.6,0.1,7.1-3.3,9.4c-0.2,0.2-0.3,1-0.2,1.2
		c2,2.5,2.4,5.4,2.6,8.4c1.3,0.1,2.7,0.2,4.2,0.3c-0.4-1.8-0.8-3.6-1-5.4c-0.2-1.5-0.5-3.1-0.3-4.6c0.6-3.5,1.6-7,2.4-10.5
		c0.1-0.3,0.4-0.5,0.7-0.7c0.2,0.3,0.6,0.5,0.6,0.8c-0.1,1.4-0.3,2.7-0.5,4.1c-0.5,2.6-1.5,5.1-1.7,7.7c-0.1,2,0.7,4.1,1,6.2
		c0.2,1.4,0.4,2.4,2.2,2.7c2.4,0.4,3.8-0.3,4.2-2.7c0.3-1.9,0.4-3.8,0.8-5.7c0.6-2.5,1.3-5,2-7.5c0.2-0.8,0.4-1.6,0.6-2.4
		c0.1-0.3,0.5-0.4,0.8-0.6c0.2,0.3,0.5,0.6,0.4,0.9c-0.2,1.5-0.3,2.9-0.7,4.3c-1.3,4-2.3,8.1-2.6,12.3c-0.1,1.3,0.3,2.2,1.3,2.4
		c2.8,0.6,4.8-0.6,5.6-3.4c1.1-3.7,2.3-7.5,2.3-11.4c0-0.7,0.4-1.4,0.7-2.1c0.1-0.2,0.5-0.2,0.8-0.2c0.1,0,0.3,0.4,0.3,0.5
		c-0.2,1.7-0.2,3.5-0.6,5.2c-0.7,3.4-1.6,6.8-2.4,10.3c1.6,0.9,3.2,0.6,4.6-0.7c1-1,2-2.1,2.8-3.2c1.2-1.9,2.3-3.8,3.1-5.9
		c0.5-1.5,0.4-3.2,0.6-4.8c0-0.3,0.3-0.6,0.5-1c0.3,0.3,0.6,0.5,0.7,0.9c0.1,0.3,0.2,0.6,0.1,1c-0.3,2.8-0.4,5.7-2.2,8.1
		c-0.9,1.2-1.7,2.5-2.6,4c4.5-0.7,9.1-6.6,7.4-11.8c-0.2-0.6-0.2-1.2-0.4-2c1.8,0.6,1.8,1.9,2,3c0.7,4.4-1,8-4.5,10.3
		c-2.8,1.9-6.2,2.9-9.4,4.1c-0.7,0.3-1.5,0-2.3-0.1C160.8,119.9,160.4,119.8,160,119.7z M92.5,123.2c-2.2,2.4-4.4,4.9-6.7,7.5
		c5.5,4.8,12,6.1,18.7,7c0.3-2.3,0.5-4.3,0.7-6.3C101,128.7,96.8,126,92.5,123.2z M42.1,175.6c1.9-0.7,4.4-1.5,6.7-2.5
		c2.2-1,4.4-2.2,6.4-3.5c1.6-1.1,3.3-2.3,4.1-3.9c1.1-2.2,1.5-4.7,2.2-7.1c0.1-0.3-0.1-0.7-0.1-1c-0.3,0-0.7,0-1,0.2
		c-1.5,0.9-3.1,1.9-4.6,2.9c-0.3,0.2-0.5,0.5-0.7,0.8c-1.9,3.2-4.5,5.6-7.9,7c-3,1.2-6.2,2-9.4,2.8c-2.4,0.6-4.8,1.1-7.2,0.1
		c-0.2-0.1-0.6,0.2-0.9,0.3c0.1,0.3,0.2,0.7,0.4,0.9c0.4,0.3,0.9,0.4,1.4,0.6c1.1,0.3,2.1,0.6,3.2,0.9
		C37,174.4,39.2,174.9,42.1,175.6z M147.7,80.9c-0.8,0-1.6-0.1-2.3,0c-0.9,0.1-2,0.2-2.7,0.7c-1.1,0.8-2,1.9-2.8,3
		c-1.3,2.1-1.3,4,1.3,4.2C143.5,86.1,145.5,83.6,147.7,80.9z M135.1,109.8c-0.3,0.5-0.6,0.8-0.7,1.3c-0.3,2.1-0.7,4.2-0.9,6.3
		c-0.2,1.8,1.1,2.8,2.7,2.1c0.8-0.4,1.7-1.6,1.7-2.4C137.8,114.3,137.4,111.7,135.1,109.8z M117.6,133.5c-3.1-0.3-6.6-0.6-10.2-1
		c-0.6,1.3-0.2,2.8-0.1,4.4c1.9-0.4,3.8-0.7,5.6-1.3C114.6,135,116.3,134.1,117.6,133.5z M141.9,123.1c0-0.1,0.1-0.2,0.1-0.3
		c0.2,0,0.5,0.1,0.7,0c0.6-0.5,1.4-0.9,1.8-1.6c0.5-0.8-0.4-1.1-0.9-1.3c-0.8-0.3-1.7-0.5-2.6-0.7c-0.9-0.2-1.5,0.2-1.6,1
		c-0.1,0.5,0,1.3,0.3,1.6C140.3,122.4,141.1,122.7,141.9,123.1z M112.4,109.1c2.3,2.7,5.6,2.6,7.5,0.4
		C117.4,109,115.1,107,112.4,109.1z M139,94.8c0.2,0,0.4,0.1,0.6,0.1c0.3-0.9,0.6-1.8,0.9-2.7c0.5-1.7,0.2-2.1-1.8-2.3
		C138.8,91.5,138.9,93.2,139,94.8z M175.7,141.9c1.2-0.6,2.2-1.1,3.2-1.6c0-0.1-0.1-0.3-0.1-0.4c-1.5-0.2-3-0.4-4.8-0.7
		C174.6,140.1,175.1,140.9,175.7,141.9z"/>
	<path class="st0" d="M126.6,114.2c0.6,0.3,1.2,0.7,1.9,1c0.3,0.1,0.7,0,1,0c0.4,0,1,0,1.1,0.2c0.2,0.3,0.1,0.9,0,1.3
		c-0.1,0.4-0.5,0.7-0.8,0.9c-1,0.7-1.7,1.5-1.2,2.9c0.3,1.1-0.9,1.9-2.1,1.7c-3.9-0.6-7.1-2.5-10.2-4.8c-0.2-0.2-0.2-1.1,0-1.3
		c0.4-0.4,1-0.6,1.6-0.7c2.9-0.4,5.7-0.6,8.6-0.9C126.5,114.4,126.5,114.3,126.6,114.2z M127.5,120.9c-0.4-1-0.4-1.9-0.9-2.3
		c-1-0.8-2.1-1.4-3.3-2c-1.9-1-3.7,0.3-5.6,0.2C120.6,118.8,123.4,120.6,127.5,120.9z M129,116.5c-1.4-0.3-2.5-0.5-3.7-0.7
		C126.7,117.4,127.7,117.6,129,116.5z"/>
	<path class="st0" d="M131.5,75.7c-0.9-0.2-1.7-0.1-2.3-0.4c-3-1.5-6.3-1.6-9.4-2.6c-0.7-0.2-1.3-0.4-1.9-0.8
		c-0.3-0.2-0.6-0.6-0.9-0.9c0.5-0.1,0.9-0.4,1.4-0.3c1.3,0.3,2.6,0.9,4,1c3,0.2,6.1,0.2,9.1,0.3c0.7,0,1.5,0,2.2,0
		c1.1,0.1,1.8,0.7,1.8,1.7c0,0.9-0.7,1.3-1.6,1.4C133.1,75.2,132.2,75.5,131.5,75.7z"/>
</g>
</svg>
