<?xml version="1.0" encoding="utf-8"?>
<!-- Generator: Adobe Illustrator 19.2.0, SVG Export Plug-In . SVG Version: 6.00 Build 0)  -->
<svg version="1.1" id="Layer_1" xmlns="http://www.w3.org/2000/svg" xmlns:xlink="http://www.w3.org/1999/xlink" x="0px" y="0px"
	 viewBox="0 0 120 315.8" style="enable-background:new 0 0 120 315.8;" xml:space="preserve">
<style type="text/css">
	.st0{fill:#E91E63;}
</style>
<g id="lung-child">
	<path class="st0" d="M30,92.7c-5.9-0.8-6.4-0.5-6.4,5.1c0,30.6,0.1,61.2,0.1,91.8c0,4.7-0.9,8.7-5.4,11.6
		c-8.5,5.4-18.3-2-18.3-10.3c0-27.4,0.1-54.8,0.1-82.2c0-8,0.5-16.1,0-24.1c-0.7-11,5.1-16.6,16.7-16.5c25.3,0.3,50.6,0.1,75.9,0.1
		c5.7,0,11.5,0,17.2,0.7c6.1,0.8,9.9,5.5,9.9,11.5c0.1,35.1,0.1,70.3,0.1,105.4c0,2.6,0.3,5.3-0.4,7.6c-2.3,7.5-7,10.2-14.8,8.9
		c-4-0.6-8.1-5.5-8.2-10.2c-0.4-21.1-0.9-42.3-1-63.4c-0.1-10.4,0.7-20.8,0.9-31.2c0.1-5.2-0.5-5.5-7.1-4.8c0,3.8,0,7.8,0,11.8
		c0.1,19.2,0.3,38.4,0.3,57.7c0,6.2-0.6,12.3-0.6,18.5c0,3.9,0.9,7.8,0.9,11.7c-0.1,35.7-0.4,71.5-0.4,107.2
		c0,10.3-3.9,13.7-13.5,16.1c-5.8,1.5-12.8-4.8-13-11.5c-0.2-4.7,0-9.4,0-14.1c-0.1-33.2-0.1-66.3-0.2-99.5c0-1.7-1.2-3.3-1.9-4.9
		c-1.1,1-3.2,2-3.3,3c-0.3,6.4-0.2,12.9-0.2,19.4c0,31.2-0.1,62.4-0.1,93.6c0,8.4-4.4,14.2-11.4,14.1c-7.4-0.1-13.5-5.8-14.6-13
		c-0.4-2.7-0.5-5.4-0.5-8.1c-0.1-29.7-0.3-59.4-0.3-89c0-19.6,0.4-39.2,0.5-58.8c0-16.6-0.1-33.2-0.3-49.8
		C30.5,95.5,30.2,94,30,92.7z M57.9,95.5c-2.9-4.4-4.8-5.5-9.5-5.1c-7,0.5-12.9,4.7-14.1,11.7c-1.1,6.3-1,12.9-0.7,19.4
		c0.2,3.3,3.1,4.3,6.5,3.9c14-1.8,16.3-4.3,16.8-18.2c0-0.3-0.1-0.6,0-0.9c0.7-1.9,1.4-3.8,2.1-5.7c0.7,0,1.3,0,2,0
		c0.7,2,1.7,3.9,1.9,5.9c0.4,3.3-0.1,6.7,0.5,9.9c0.3,1.8,1.7,4.3,3.3,4.9c4.4,1.8,9,3.1,13.7,4.1c3.8,0.8,5.9-1.3,6-5.3
		c0.1-5,0.2-10,0-15c-0.2-5.7-5.1-12.2-10.3-13.6c-2.6-0.7-5.5-1.5-8-0.8c-2.3,0.6-4.2,3.1-6.3,4.8c0-3.7,0.2-7.6-0.1-11.5
		c-0.1-1.2-1.4-2.2-2.1-3.3c-0.6,1.1-1.7,2.1-1.8,3.2C57.8,87.7,57.9,91.6,57.9,95.5z"/>
	<path class="st0" d="M90.3,31.7c2.7,11.5-16.7,28.7-27.5,29c-19.3,0.5-32.9-13.6-33.1-29.6C29.4,14.1,39.2,1.4,59.3,0.1
		C73.3-0.9,90.3,9.8,90.3,31.7z"/>
</g>
</svg>
