<?xml version="1.0" encoding="utf-8"?>
<!-- Generator: Adobe Illustrator 19.2.0, SVG Export Plug-In . SVG Version: 6.00 Build 0)  -->
<svg version="1.1" id="Layer_1" xmlns="http://www.w3.org/2000/svg" xmlns:xlink="http://www.w3.org/1999/xlink" x="0px" y="0px"
	 viewBox="0 0 150 101.6" style="enable-background:new 0 0 150 101.6;" xml:space="preserve">
<style type="text/css">
	.st0{fill:#E91E63;}
</style>
<g id="mom-girl-flu">
	<g>
		<path class="st0" d="M86,86.9c0.5-4.8,2.5-9.2,3.3-13.9c0.9-5.3,0.2-10.8-1.9-15.7c0.1,1,0.1,2,0.2,3c-6.5,0.1-12.9-0.2-19.4-0.9
			c-1.1-0.1-2.3-0.3-3.2-1s-1.2-2.2-0.3-3c3.1-2.6,5.4-6.1,6.6-9.9c0.2-0.7,1.1-0.8,1.8-0.8c3-0.1,5.9-0.1,8.9-0.2c0,0,0,0-0.1,0
			c-0.4-0.2-0.8-0.5-1.1-0.8c0,0,0,0-0.1-0.1h-0.1c-0.1,0-0.2,0-0.2-0.1v0.1c-3.2-0.4-6.5-0.2-9.6,0.4c-2.2-3.3-4.5-6.5-6.7-9.7
			c-1.8-2.6-3.7-5.2-6.5-6.5c-3.1-1.4-4.2-5.2-6-8.1c-4.3-6.9-14.2-9.5-21.4-5.7c-5.2,2.8-8.5,8.3-9.9,14.1
			c-1.3,5.8-0.9,11.8-0.1,17.6c0.4,2.9,0,7.1-3,7.3C12,53.5,6.9,56.4,3.7,60.7C0.6,65-0.7,70.7,0.4,76c1-0.7,1-2.2,1-3.4
			c-0.1-9.6,8.4-18.4,18-18.7c-0.9,3.5,1.2,7.1,3.2,10.1c2.6,3.8,6,7.9,10.6,7.7c4.8-0.2,7.8-5,9.8-9.3s4.3-9.3,8.8-10.6
			s9.3,1.8,11.4,5.9c2.1,4.1,2.1,9,1.6,13.7c-0.4,4.6-1.2,9.3-0.5,13.9c-0.8,1-2.3-0.2-3.1-1.2s-2.9-1.5-2.9-0.2
			c0.9-0.1,1.8,0.2,2.4,0.8c-2.5,0.4-4.7-1.9-5.2-4.4c-0.2-0.8-0.2-1.7-0.1-2.5v-1.6c0.2-1.7,0.6-3.4,1-5c0.2-0.9,0.5-1.8,0.8-2.7
			c0.2-0.6,0.4-1.2,0.5-1.8c0-0.4-0.1-0.7-0.1-1.1c-1.1,2.6-1.9,5.4-2.4,8.3c-0.3-1.3-1.1-2.5-2.3-3.2c0.1,0.2,0.1,0.5,0.2,0.7
			c0.1,0.1,0.2,0.2,0.2,0.4c0.6,0.8,1.2,1.7,1.3,2.8c0,0.3,0,0.8-0.1,1.2c0.1,0.8,0.2,1.6,0.2,2.4c0.1,0.7,0.1,1.5,0.1,2.2
			c0.3,1.2,0.2,2.4-0.6,2.4c-0.1,0-0.2-0.1-0.2-0.2c0-0.1,0-0.1,0-0.2c0.1-0.2,0-0.3,0-0.4c-0.1-0.2-0.3-0.3-0.5-0.5
			c-0.1-0.1-0.3-0.1-0.4-0.2c-0.3,0-0.6,0-0.9,0.1c-0.6,0.4-0.9,0.9-0.9,1.7c0,0.1-0.1,0.2-0.2,0.2h-0.4c-0.1,0.7-0.1,1.4-0.1,2.2
			c0,0.2,0,0.3,0.1,0.5c0,0,0,0,0.1,0c0.3,0.1,0.5,0.2,0.7,0.4s0.3,0.5,0.3,0.8c0,1.1,0.1,2.3,0.3,3.4c0.2,0.8,0.4,1.5,0.7,2.3
			c0.3,0.9,0.7,1.8,1.1,2.7c0.7,1.6,1.6,3.3,2.8,4.7c0,0,0.1,0,0.1,0.1h0.5c-3.3-3.8-5.2-8.9-5.2-13.9l0.5,0.3c0.4,0,0.8,0.1,1,0.3
			c0.3,0.1,0.6,0.4,0.6,0.7c0,0.6-0.8,1-1.2,1.4h0.3c0.3-0.3,0.7-0.7,1.1-0.5c0.5,0.2,0.7,0.9,0.9,1.3c0.3,0.6,0.4,1.1,0.1,1.7
			c-0.1,0.3-0.3,0.6-0.6,0.8c0.1,0,0.2,0.1,0.3,0.1c0.1,0,0.1-0.1,0.2-0.1c0.1-0.1,0.1-0.1,0.2-0.2c0,0,0,0,0.1-0.1
			c0.1,0,0.1-0.1,0.2-0.1H56c0.5-0.1,1,0.2,1.5,0.6c1.1,0.6,2.1,1.1,2.7,2.2c0.2,0.1,0.4,0.2,0.5,0.3c-1.3-3.4-3.3-6.4-5.9-8.8
			c0,0,0,0,0,0c-0.1,0.2-0.2,0.4-0.4,0.3h-0.1c-0.1,0-0.2,0-0.2-0.1c0,0-0.1,0-0.1-0.1c-0.3,0-0.7-0.1-0.9-0.2c-0.1,0-0.1,0-0.2-0.1
			h-0.5c-0.4-0.1-0.8-0.4-1.2-0.5c-0.1,0-0.1-0.1-0.1-0.2v-1.8c0-0.1,0.1-0.2,0.2-0.2c0.2,0,0.3,0,0.5,0.1h0.1c0.4,0,0.9,0,1.3,0.1
			h0.5c0.1,0,0.1,0,0.2,0.1c0.1,0,0.2,0.1,0.2,0.2c0,0.5,0.1,1,0.3,1.5c0,0.1,0.1,0.2,0.1,0.2c-0.1-0.4-0.2-0.8-0.3-1.3
			c0-0.1,0-0.1,0-0.2c0-0.3,0.2-0.7,0.4-0.9c0.5-0.4,1.1-0.3,1.6,0.1c1.4,1-0.4,2.2-1.5,2.4c-0.1,0-0.2-0.1-0.2-0.1
			c0.1,0.2,0.2,0.4,0.3,0.6c1.2-0.1,2.3-0.9,2.7-2c0.6,0.8,1.1,1.5,1.7,2.3c0,0,0,0,0,0.1c0.1,0.1,0.1,0.2-0.1,0.3
			c-0.6,0.2-1.6,0.7-1.7,1.4c0.8,0.1,1.7-0.4,2-1.1c5.5,4.4,11,8.6,16.7,12.8c-0.3-0.4-0.7-0.9-1-1.3c-0.5-0.2-1-0.8-1.5-1.1
			c-0.6-0.4-1.1-0.9-1.6-1.4c-1.3-1.2-2.8-2.3-4.1-3.5c-0.6-0.5-1.1-1-1.8-1.4c-0.2-0.1-0.7-0.3-0.7-0.7c0-0.3,0.2-0.6,0.6-0.8
			c0.5-0.5,0.8-1.1,0.9-1.7c0,0,0,0,0.1,0c0,0,0.1,0,0.2,0c0.3,0.1,0.5,0.1,0.8,0.2c0.4,0.1,0.9,0.1,1.3,0.2s0.9,0,1.3,0.1
			c0.4,0.1,0.7,0.3,1.2,0.3c0.3,0.1,0.7,0.1,1,0.1c0,0,0,0,0-0.1c-1-0.2-3.6-0.8-4.4-1c0,0.1,0,0.1-0.1,0.2c-0.1,0-0.1,0.1-0.2,0
			c-0.4,0-0.8-0.1-1.2-0.2c-0.3,0-0.6,0-0.9-0.1h-0.5c0,0-0.1,0-0.1,0.1c-0.1,0-0.1,0-0.2-0.1h-0.5c-1.3-0.1-2.7-0.2-4-0.5h-0.1
			c-0.2,0-0.4-0.1-0.6-0.3c-0.3-0.5-0.5-1.1-0.9-1.6c-0.1-0.1,0.1-0.3,0.2-0.2c0,0,0.1,0,0.1,0.1c0.4,0.1,0.7,0.1,1.1,0.2
			c0.7,0.1,1.5,0.4,2.2,0.5c0.8,0.2,1.8,0.3,2.7,0.6c0,0,0.1,0,0.1,0c0,0,0,0,0,0c0.5,0,1,0.2,1.5,0.3c0.2,0,0.3,0.1,0.5,0.1h0.1
			c0.2,0.1,0.4,0.2,0.5,0.3h0.1c0.1,0,0.2,0.1,0.2,0.2v0.1c1.6,0.2,3.1,0.9,4.7,1c0.2,0,0.2,0.4,0,0.4c0.2,0,0.3,0.1,0.5,0.1h0.6
			c0,0,0-0.1,0.1-0.1v-0.3c0-0.1,0-0.1,0.1-0.1c-3.1-0.9-6.1-1.8-9.2-2.6c1.2-8.6,1.5-17.3,1-26c7.1,1.1,14.3,1.6,21.5,1.6
			c0.9,5.5,0.7,11.3-0.7,16.7c-1.5,6-4.3,12.7-1,17.9c1.1,1.8,3.1,3.2,5.2,3C86.8,97.1,85.5,91.6,86,86.9z M32.2,32.8
			c0.4-0.5,1.2-0.8,1.8-0.6c-0.4,0.4-0.8,0.7-1.3,1C32.7,32.9,32.4,32.7,32.2,32.8z M24,49.6c0,0.1-0.1,0.3-0.2,0.4
			c-0.5,0.5-1.1,0.9-1.7,1.2c-0.2,0.3-0.7,0-0.6-0.3c0.8-0.6,1.4-1.6,1.3-2.7c-0.3,0-0.6,0-0.9,0.1c0.1,0.3-0.2,0.6-0.4,0.6v0.5
			c-0.1,0.1-0.3,0.1-0.5,0c0.1-0.8,0.8-1.5,1.3-2.2c0.5-0.7,0.8-1.6,0.4-2.4c-0.5,0.2-0.9,0.6-1.1,1.1c0,0.1-0.1,0.3-0.1,0.5
			c-0.1-0.1-0.3-0.1-0.4-0.2c0-1.5,0.3-3,1-4.3c0.2-0.1,0.4-0.2,0.6-0.3c0.2,1,1.1,1.6,1.4,2.6c0.3,1,0,2-0.6,2.9
			c-0.1,0.1-0.1,0.2-0.1,0.3c0,0,0,0.1,0,0.2C23.6,48.3,23.8,48.9,24,49.6z M21.4,41.6c-0.4-0.4-0.6-0.9-0.6-1.4v-0.6
			c0.1-0.4,0.2-0.9,0.5-1.2C21.6,39.5,21.6,40.6,21.4,41.6z M33.6,28.4c-0.3,0-0.6-0.2-0.6-0.5c0.5-0.3,1.1-0.5,1.7-0.8H35
			c0,0.4-0.4,0.7-0.6,0.9C34.2,28.2,33.9,28.4,33.6,28.4z M44.6,56.4c-0.9,1.1-2.4,1.3-3.8,1.1c-1.3-0.3-2.6-1-3.8-1.7
			c-1.6-0.9-3.2-1.9-4.8-2.8c-0.4,0.6,0.2,1.3,0.7,1.8c2.9,2.4,6.6,3.9,10.3,4.1c-1.2,3.1-2.5,6.3-4.9,8.6c-2.4,2.3-6.2,3.6-9.1,2
			c-1.4-0.7-2.4-2-3.4-3.2c-2.9-3.5-5.9-7.5-5.3-12c0.1-1.1,1.2-1.7,2.2-2.1c1-0.4,2.1-0.7,2.8-1.5c0.8-1.2,0.4-2.7,0.3-4.1
			c-0.1-1.5,0.3-3.1,1.1-4.4c-0.7-0.2-1.5,0.2-1.8,0.9c-0.3-0.6-0.1-1.4,0.3-1.9c-0.7-0.3-1.6,0.2-1.7,1c-0.4-0.9-0.8-1.7-1.3-2.6
			c-0.4-0.7-0.6-1.5-0.6-2.2c0.1-0.1,0.2-0.2,0.2-0.4c0-0.2,0.1-0.4,0.1-0.5c0.4-0.5,0.9-0.7,1.5-0.5c-0.8,0.5-1,1.7-0.6,2.5
			c0.4,0.9,1.2,1.5,1.9,2.1c0.5-0.3,0.6-1.1,0.2-1.6c-0.3-0.5-0.9-0.8-1.4-1.1c0-0.9,1-1.4,1.8-1.4c0.9,0,1.7,0.4,2.5,0.7
			c2.3,0.8,5,0.4,7-0.9c0.6-0.4,1.2-0.9,1.9-1.1c0.7-0.2,1.6-0.1,1.9,0.5c0.8,1.3,2.6,1.5,4,1.9c1,0.3,2,0.9,2.4,1.7v0.1
			c0.2,0.4,0.3,0.9,0.1,1.4c-0.3,0.7,0,1.6,0.4,2.2c0.4,0.7,0.8,1.4,0.8,2.2s-0.8,1.6-1.5,1.4c-0.2-0.8-1.2-1-2-1
			c-0.8,0.1-1.8,0.2-2.3-0.4c-0.5,0.5,0,1.4,0.7,1.6c0.7,0.2,1.4,0,2.1,0.1s1.3,0.8,1,1.4c0,0.1,0,0.2,0,0.2c0,0.1-0.1,0.1-0.2,0.2
			l-0.1,0.1c-1.7,0.3-3.6,0.8-5.2,1.4c-0.2,0.1-0.3,0.1-0.5,0.2c1.3,1.1,2.7,2.1,4.4,2.5c0.6,0.1,1.2,0.2,1.8,0.1
			c0.4-0.2,0.8-0.4,1.1-0.5c0.8-0.4,1.7-1.2,1.2-2.2c0-0.1-0.1-0.1-0.1-0.2c-0.1-0.1-0.3-0.2-0.4-0.3c-0.3-0.1-0.5-0.2-0.7-0.4
			c-0.1-0.1-0.1-0.1-0.2-0.2c-0.1,0-0.2-0.1-0.2-0.2c-0.1-0.2-0.2-0.3-0.2-0.5c0-0.1,0-0.3,0.1-0.5c0-0.2,0.1-0.5,0.3-0.6
			c1,0.3,2-0.8,2-1.9c0.1-1-0.4-2-0.8-3c-0.4-1-0.8-2-0.4-3H47c0,1.6,2.1,2.3,3.7,2.5c-0.1-0.4,0.5-0.9,0.9-0.6
			c0.4,2.8-0.4,5.8-1.8,8.3C48.4,52,46.5,54.2,44.6,56.4z M24.8,46.8c0.3,0.1,0.3,0.5,0.2,0.8c0,0.3,0,0.6-0.2,0.6
			C24.5,47.8,24.5,47.2,24.8,46.8z M41.2,50.5c0.1,0,0.3,0.1,0.4,0.1c0.5,0,1.1,0.2,1.4,0.3c0.7,0.1,1.4,0,2.1,0.1
			c0.2,0,0.3,0,0.5-0.1c0.1,0,0.2-0.1,0.3-0.1c0.1,0,0.2,0,0.2,0.1c0.1,0.1,0.2,0.3,0,0.4c-0.1,0-0.2,0.1-0.2,0.1
			c0,0.1-0.1,0.2-0.2,0.2c-1.2,0.5-2.6,0.4-3.8-0.1c-0.3-0.1-0.7-0.4-0.9-0.6c-0.1-0.1-0.3-0.1-0.4-0.2c-0.2-0.1-0.4-0.2-0.5-0.3
			c-0.1-0.1-0.1-0.3,0-0.3c0.1-0.1,0.3-0.2,0.5-0.2c1.1-0.2,2.3-0.3,3.4-0.5c0.9-0.1,1.8,0.2,2.4,0.9c-1.8,0-3.6-0.1-5.3-0.1
			c0,0.1,0,0.2,0,0.2C41.2,50.5,41.2,50.5,41.2,50.5z M56.8,50.8c-1.9-0.7-4-1-6-0.8c1.1-1.5,1.8-3.3,2.1-5.1c0-0.2,0.1-0.5,0-0.7
			c0-0.5-0.2-0.9-0.3-1.3c-0.1-0.5,0-1,0.4-1.2c0.3-0.2,0.7-0.2,1.1-0.1c0.5,0.1,1.1,0.1,1.6,0.2c-0.2,1.2,0,2.3,0.2,3.5
			c0.2,1.5,0.5,2.9,0.7,4.4c0.1,0.3,0.1,0.7,0.5,0.9C56.9,50.5,56.9,50.7,56.8,50.8z M58.5,51.2c-0.5-0.3-0.7-0.9-0.7-1.5
			c-0.3-2.7-0.6-5.4-0.9-8.1c-0.1-0.7-0.8-1.2-1.4-1.3c-0.7-0.1-1.4,0-2,0.1c-3,0.3-6.2-1-8.1-3.3c0.3-0.4,0.4-0.9,0.1-1.3
			c-0.5,0.1-0.9,0.6-0.9,1.1c-1.6-0.5-3.1-1-4.6-1.5c2.7-0.5,5.6-0.1,7.9,1.3c1.4,0.8,2.8,2,4.4,1.6c-2.5-2.4-5.8-3.9-9.2-4.1
			c-3.1-0.2-6.2-0.4-9.2-0.4c0.5-1.3,2.1-2,3.5-2.2c1.4-0.2,2.9-0.1,4.3-0.4c-0.1,0.8,0.2,1.6,0.8,2.1c0.1-0.6,0.2-1.2,0.3-1.7
			c1.8,0.1,3.7,0.1,5.6-0.2c-0.2-0.5-0.9-0.7-1.4-0.7c-4.1-0.3-8.2-0.3-12.2,0.4c-1,0.2-2,0.4-2.6,1.2c-0.3,0.1-0.6-0.3-0.5-0.6
			c0.1-0.1,0.2-0.2,0.3-0.2c4.6-1.7,9.5-2.6,14.4-2.7c0.6,0,1.2,0,1.7-0.3s0.9-0.9,0.6-1.5c-1.2,0.7-2.6,1-4,0.9
			c-3.5-0.1-7.1,0.5-10.4,1.8c0.6-0.7,1.3-1.5,1.9-2.2c0.1-0.2,0.3-0.3,0.5-0.4c0.2-0.1,0.4-0.1,0.6-0.2c2-0.4,4.1-0.7,6.1-1.1
			c-0.1,0.6-0.3,1.2-0.4,1.7c0.9,0.1,1.7-0.8,1.6-1.7c2.2,0.8,4.9,0.3,6.6-1.4c-3.2,0.7-6.6,0.6-9.9,0.3c-1.3-0.1-2.6-0.4-3.1-1.5
			c0.1-0.1,0.1-0.1,0.2-0.2c0.5-0.2,1-0.1,1.4,0.1v0.7c0.5-1,1.8-1.2,2.9-1.2c1.1,0.1,2.2,0.4,3.3,0.3c-0.3,0.5-0.6,0.9-0.9,1.4
			c0.3,0.3,0.9,0.2,1.2-0.1c0.4-0.3,0.7-0.6,1.1-0.7c2.2-0.4,4.4,0.7,6.1,2.1c1.7,1.4,3.2,3.1,4.9,4.4c1.3,0.9,2.9,1.7,3.8,3
			c0.5,0.7,0.8,1.5,1.1,2.2c1.2,2.8,2.8,5.4,5.1,7.3c0.5,0.4,1,0.7,1.3,1.2c0.6,0.9,0.6,2.1,0.3,3.1c-0.4,1-1,1.9-1.7,2.8
			c-1.7,2.2-3.4,4.4-5,6.6C62.3,53.9,60.5,52.2,58.5,51.2z M55,87.4c1.8,1.6,2.7,3.9,4.4,5.7c0.1,0.1,0,0.3-0.2,0.3h-0.1
			c-0.3-0.2-0.6-0.4-0.9-0.6c-0.4-0.2-0.7-0.4-1.1-0.7c-0.1-0.1-0.3-0.2-0.4-0.3c-0.1-0.1-0.2-0.3-0.3-0.5c-0.4-1.1-1-2.1-1.6-3
			l0.1,0.1c-0.1-0.1-0.1-0.2-0.2-0.4v-0.2c0-0.1,0-0.1,0-0.2C54.6,87.4,54.8,87.3,55,87.4z M52.7,83.4c-0.3,0-0.5,0-0.7-0.2
			c0,0,0,0-0.1-0.1c-0.2-0.2-0.5-0.5-0.3-0.8c0.1-0.1,0.1-0.2,0.2-0.2c0.2-0.2,0.6-0.3,0.8-0.3c0.5,0,1.1,0.3,1.2,0.9
			C53.9,83.3,53.2,83.4,52.7,83.4z M61.5,87.9c0.2,0.1,0.6,0.1,0.9,0.2c0.2,0,0.4,0,0.7,0.1c0.6,0.1,1.2,0.1,1.8,0.2h0.7
			c0.1,0,0.3,0.1,0.4,0.2c0,0.3,0,0.5-0.1,0.7c-0.1,0.2-0.3,0.4-0.5,0.5c0,0,0,0-0.1,0c0,0,0,0,0,0.1c-0.1,0.1-0.2,0.2-0.3,0.2
			c-0.1,0.2-0.3,0.4-0.5,0.5c-0.1,0.1-0.2,0-0.3-0.1c-0.7-0.4-1.2-0.8-1.8-1.3c-0.4-0.3-0.9-0.5-1.1-1
			C61.2,88.1,61.3,87.9,61.5,87.9z"/>
		<path class="st0" d="M54.8,86.4c0,0,0-0.1,0-0.1C54.7,86.3,54.7,86.3,54.8,86.4C54.7,86.3,54.8,86.4,54.8,86.4z"/>
		<path class="st0" d="M72.9,89.1h0.2c0,0,0,0,0,0C73,89.1,72.9,89.1,72.9,89.1C72.8,89.1,72.8,89.1,72.9,89.1z"/>
	</g>
	<path class="st0" d="M141.8,56.7c-3.5-2.1-7.1-5.8-5.7-9.6c3.6-9.5-2.1-21.3-11.7-24.5c-2.4-0.8-2.8-4-3.5-6.4
		c-1.4-4.7-5.1-8.3-8.7-11.6c-1.9-1.7-3.8-3.5-6.3-4.2c-2.3-0.7-4.9-0.3-7.2,0.3c-7.1,1.8-13.6,5.5-18.8,10.6
		c-3.2,3.1-5.9,6.9-6.5,11.2c-0.7,4.4,1.3,9.3,5.3,11.1c0.4,0.2,0.7,0.3,0.9,0.6c1.2,0.6,1.9,1.4,1.9,3c0,0.3,0,0.9-0.1,1.4
		c0,1.1-0.1,2.3-0.3,3.4c0,0.4,0.1,0.7,0.2,1c-0.1,0.1-0.2,0.1-0.3,0.2c-0.1,0.1-0.3,0.3-0.5,0.4c-0.1,0-0.2,0-0.3,0c0,0,0,0,0,0
		c-0.6-0.2-0.9,0.7-0.3,1c0.2,0.1,0.5,0.1,0.7,0c0.6,0,1.2-0.2,1.5-0.7c0.3,0.2,0.6,0.3,0.9,0.5c0,0,0.1,0,0.2,0
		c0.9,0.1,1.7-0.3,2.6-0.5c0.1,0,0.3,0,0.3,0.2c0.1,0.3,0.2,0.6,0.3,0.9c0.1,0.1,0.1,0.2,0.2,0.4c0.5,0.5,1.4,0.6,1.6,1.4
		c0.1,0.5,0.2,1,0.4,1.5c0.5,0.5,1.2,0.3,1.8,0.6c0.4,0.2,0.7,0.7,0.8,1.1c0.2,0.5,0.4,0.9,0.6,1.3c0.1,0.1,0.2,0.2,0.4,0.4
		c0.1,0.1,0.1,0.1,0.2,0.2c0.1,0,0.1,0.1,0.2,0.1c0.9,0.5,1.9,0.9,2.9,1c2.1,0,4.3-1,6-2.1c0.2-0.1,0.3,0,0.3,0.2
		c0.9,1.8,1.7,3.6,2.5,5.4c-0.8-0.3-1.6-0.6-2.4-0.9c3.3,4.4,8.9,6.9,14.3,6.7c5.5-0.1,10.8-2.7,14.5-6.7c1.4-1.5,3.7-1.7,5.7-1.1
		c1.9,0.6,3.6,2,5.1,3.3c2.9,2.4,5.8,4.9,8.7,7.3C149.5,61,145.2,58.8,141.8,56.7z M122.3,28.4c1.4-1.2,2.1-3.1,1.8-4.9
		c1,0.6,2,1.3,2.9,2c-0.4,0-0.9,0.2-1,0.7c-0.4,2.2-1.7,3.9-3.8,5c-0.2,0.1-0.3,0.2-0.3,0.3c0-0.4,0-0.8,0-1.2
		C121.9,29.6,121.8,28.8,122.3,28.4z M119.3,18.1c0.4,1.3,1.3,2.7,2.3,3.7c0.6,0.7-0.4,1.7-1,1c-1.1-1.2-2.2-2.8-2.7-4.3
		C117.7,17.6,119.1,17.3,119.3,18.1z M116.8,21.4c1.3,0.7,2.4,1.5,3.7,2.2c0.8,0.4,0.1,1.7-0.7,1.2c-1.3-0.7-2.4-1.5-3.7-2.2
		C115.3,22.3,116,21,116.8,21.4z M120.9,31.1c-0.1,0.2-0.1,0.5-0.1,0.8c-0.6,2-1.1,4.1-1.4,6.2c0,0.1,0,0.3-0.1,0.5
		c-0.8-1.4-1.3-2.9-1.7-4.4v-0.4c0.4-0.7,0.8-1.4,1.2-2.1c0.4-0.7,0.7-1.5,0.8-2.4c0.1-0.7,0.1-1.4,0.5-1.8l0.3,0.3
		C120.6,28.9,120.7,30,120.9,31.1z M116,25.7c1,0,2.1-0.1,3.1-0.2c0.9,0,0.9,1.4,0,1.4c-1,0-2.1,0.1-3.1,0.2
		C115.1,27.1,115.1,25.7,116,25.7z M86,8.6c0.1-0.3,0.4-0.5,0.6-0.7c0.2-0.2,0.4-0.4,0.7-0.5c0,0,0,0.1,0,0.1c0.7,7,3.7,12.3,7.9,17
		c0,0.2,0.1,0.3,0.2,0.5c1.7,1.9,3.5,3.5,5.4,5.1c0.1,0,0.1,0.1,0.2,0.1c-0.2,0.2-0.4,0.3-0.6,0.4c-0.9,0.3-1.8-0.3-2.5-0.9
		c-6-5.3-11.4-12-12.1-19.9C85.9,9.4,85.9,9,86,8.6z M129,55.4c-2.8,1.7-5.6,3.4-8.4,5.1c-2,1.2-4.5,1.3-6.8,0.8s-4.4-1.6-6.4-2.7
		c-1.3-0.7-2.8-1.6-2.9-3.1c-0.2-1.8-0.9-3.5-2-4.8c0,0-0.1,0-0.1-0.1c-0.1-0.1-0.1-0.3,0-0.4c0,0,0-0.1,0.1-0.1
		c0.6-0.6,1.5-0.9,2.2-1.3c0.5-0.3,1-0.7,1.5-1.1c0.1-0.1,0.2-0.1,0.3-0.2c0-0.2-0.1-0.5-0.4-0.5c-2.2,1.5-4.5,2.8-6.9,3.9
		c-1.3,0.6-2.7,1.1-4.1,1.1c-1.4-0.1-2.9-0.8-3.4-2.2c-0.3-0.7-0.3-1.5-0.9-1.9c-0.4-0.2-0.9-0.2-1.3-0.3c-0.4-0.1-0.8-0.6-0.6-0.9
		c0.7,0.2,1.5,0.2,2.2,0c-0.3-0.9-1.4-1.1-2.3-1.2c-0.8-0.1-1.7-0.6-1.8-1.2c-0.2-0.3-0.3-0.7-0.1-1.1c0.2-0.2,0.4-0.3,0.6-0.5
		c0.2-0.2,0.3-0.4,0.4-0.7c0.1-1-0.7-2.1-1.8-2.2v0.5c0.3,0.1,0.5,0.3,0.7,0.5s0.4,0.6,0.3,0.9c-0.2,0.9-1.2,1.5-2.1,1.4
		c0.3-0.3-0.2-0.8-0.6-0.8c-0.4,0.1-0.7,0.5-1.1,0.7c-0.4,0.3-1,0.2-1.1-0.2c0.1-3,0.3-6,0.4-9h1.8c-0.3,0.2-0.5,0.5-0.5,0.8
		c1.9,0.3,3.9,0.3,5.8-0.1c-1.7-0.3-3.4-0.5-5-0.8c1.6,0,3.2-0.1,4.8-0.3c2.8-0.4,5.2,2.1,6.9,4.4c0.5,0.1,0.8-0.7,0.6-1.2
		s-0.7-0.8-1.1-1.2c-0.4-0.4-0.7-1-0.8-1.6c0.2-0.2,0.2-0.5,0.1-0.8l-0.1-0.3c2.3,0.6,4.8,0,6.7-1.4c0.6-0.4,1.1-0.9,1.7-1.2
		c1.1-0.4,2.3,0.1,2.9,1c0.6,1,0.4,2.3-0.4,3.1c-0.2,0.2-0.5,0.4-0.8,0.6c0,0,0,0-0.1,0c0.1,0,0-0.1-0.1-0.2
		c-0.1-0.1-0.1-0.2-0.2-0.3c-0.1-0.4-0.1-0.9-0.2-1.3c0-0.2-0.1-0.3,0-0.4c0.2-0.4,0.3-0.9,0.1-1.3h-0.5c-0.6,0.8-0.7,1.7-0.5,2.6
		c-0.3,0.3-0.3,0.8,0.2,0.8c0.2,0,0.3,0.4,0.4,0.6c0.1,0.1,0.2,0.2,0.3,0.3c0,0.1,0,0.2,0,0.4c1.2,0,2.4-0.8,2.9-1.8
		c0.5-1.1,0.4-2.5-0.3-3.4c0.6,0.4,1.2,0.7,1.8,1.1c0,1.2,0,2.5-0.6,3.7c-0.6,1.1-1.9,1.9-3.1,1.5c-0.4-0.1-0.8-0.4-1.2-0.7
		c-0.2,1.5,1.7,2.5,3.1,1.9c1.3-0.6,2.1-2.1,2.4-3.5c0.3-1,0.5-2.1,0.5-3.1c0.3,0.4,0.6,0.7,0.9,1c0.6,0.8,1.3,1.2,2,1.3
		c0.8,0.4,1.7,0.6,2.5,0.6c0.8,0,1.3,1,1.6,1.8c1.5,3.9,3.8,7.7,7.5,9.6c3.6,1.7,7,4.1,9.8,6.9C132.5,53.3,130.7,54.3,129,55.4z"/>
	<path class="st0" d="M89.1,36.2c-0.7,0.1-1.3,0.3-2,0.4c-0.1,0-0.2,0-0.3,0c-0.3-0.2-0.8-0.2-1.1-0.3c-0.4-0.1-0.7-0.5-0.6-0.9
		c1.3,0,2.5,0,3.8,0C89,35.6,89.1,35.9,89.1,36.2"/>
	<path class="st0" d="M35.2,38.4c1-0.4,2,0.2,3,0.5c0.9,0.2,1.8,0.1,2.8,0c0.2,0,0.4-0.1,0.7,0c0.2,0.1,0.4,0.3,0.3,0.5
		c-0.1,0.2-0.3,0.3-0.5,0.4c-0.8,0.3-1.7,0.6-2.6,0.6c-1.2,0-2.3-0.7-3.3-1.2C35.4,39,35,38.7,35.2,38.4"/>
	<path class="st0" d="M130.5,86.2c0-0.9-0.1-1.9-0.1-2.8c0-0.7-0.1-1.3-0.2-2c-0.2-1.3-0.6-2.6-0.4-3.8c0.2-0.1,0.5-0.2,0.8-0.2
		c0.5,0.9,0.7,2,0.7,3c0.1,0.1,0.3,0.2,0.4,0.3c0.9-1.7,2-3.4,3.1-5c0.1-0.1,0.2-0.3,0.3-0.3c0.3-0.1,0.6,0.2,0.6,0.5
		s-0.1,0.6-0.2,0.8c-0.9,1.8-2,3.5-3.3,5.1c-0.6,0.8-0.6,1.8-0.6,2.8s0,2,0.1,3c0,0.4,0,0.9-0.2,1.2c-0.3,0.3-0.9,0.4-1.1,0.1
		c-0.1-0.7-0.1-1.4,0.1-2C130.5,86.6,130.5,86.4,130.5,86.2"/>
	<path class="st0" d="M42.2,79.3c-0.9,3.3-3.2,6.2-5.9,8.4c-2.7,2.2-5.9,3.7-9.2,4.8c-0.5,0.2-1,0.4-1.4,0.6c-0.1,0-0.2,0-0.3,0.1
		c-1.3,0.9-3,1-4.4,1.7c-1.1,0.6-2.3,0.9-3.3,1.6c-1-3.8-1.2-7.8-0.4-11.7c1-4.8,1.4-9.8,1.4-14.7c0-0.4,0-0.8-0.2-1.1
		c-0.2-0.3-0.7-0.5-1-0.3v6.7c-0.8-2.2-2-4.3-3.5-6.2c-0.5,0-0.8,0.6-0.7,1.1c0.1,0.5,0.5,0.9,0.8,1.3c1.7,2,2.6,4.6,2.7,7.2
		c0.1,2.4-0.6,4.8-1,7.2c-0.7,4.8-0.1,9.9,1.9,14.4c0.3,0.8,1.3,1.6,1.8,1c-0.6-1.2-1.1-2.5-1.5-3.8c1-0.9,2.6-1.4,3.8-2
		c0.8-0.4,1.7-0.6,2.6-0.8c0,0,0,0.1,0,0.1c2.5-0.8,4.9-1.8,7.3-2.9c1.4-0.6,2.8-1.3,4.1-2.2c3-2,5.3-4.7,6.9-7.8
		c0.7-1.3,1.2-2.7,1.1-4.2C43,77.6,42.6,78.5,42.2,79.3z"/>
</g>
</svg>
