<?xml version="1.0" encoding="utf-8"?>
<!-- Generator: Adobe Illustrator 19.2.0, SVG Export Plug-In . SVG Version: 6.00 Build 0)  -->
<svg version="1.1" id="Layer_1" xmlns="http://www.w3.org/2000/svg" xmlns:xlink="http://www.w3.org/1999/xlink" x="0px" y="0px"
	 viewBox="0 0 120 152.7" style="enable-background:new 0 0 120 152.7;" xml:space="preserve">
<style type="text/css">
	.st0{fill:#03A9F4;}
</style>
<g id="mom-baby-cold">
	<path class="st0" d="M113.8,81.2c-10.3-10.6-16.9-24.6-18.6-39.3c-0.5-4.9-0.5-9.9-2-14.6C90.4,18.5,83.1,12,76.1,6
		c-2.2-1.8-4.4-3.7-7.1-4.7c-2-0.7-4.2-0.9-6.3-1C51.5-0.4,39.8-0.1,30,5.3C20.2,10.7,13.2,22.4,16.2,33c1.5,5.1,5.2,10.2,3.3,15.2
		c-0.7,2-2.2,3.5-3.2,5.3c-1,1.8-1.4,4.3,0,5.8c0.4,0.5,0.9,1,1.3,1.4c0.7,0.4,1.5,0.7,2.2,0.8c0.2,0,0.5,0.1,0.6,0.4
		c0.6,1.3,1.1,3,1.2,4.7c0,0,0.1,0.1,0.1,0.1c0.7,0.4,1.3,0.4,1.5,1.3c0.1,0.5,0,1-0.1,1.5c1.3,1.8-0.2,5.1-1.3,7.6
		c0.5,2.6,2.3,5,4.7,6c-7.1,0.3-13.3,6.9-13.1,14c0,1.7,0.4,3.4,0.1,5c-0.1,1.2-0.6,2.2-1,3.3c-3.9,9.6-7.9,19.3-11.9,28.9
		c-0.7,2-1.1,4.8,0.8,5.5c3.9-11,8.3-21.7,13.4-32.2c4,9.6,8.2,19,12.7,28.4c1.8,3.8,3.7,7.7,6.5,10.9c2.8,3.2,6.7,5.7,11,5.9
		c2.8,0.1,5.5-0.7,8.1-1.6c16.6-5.7,31.4-15.5,45.8-25.4c4.1-2.8,8.3-5.8,10.5-10.3c1.9-3.8,1.9-8.6-0.3-12.2
		c-2.1-3.7-6.5-6-10.7-5.4c-1.9,0.3-3.9-1.1-4.9-2.8s-1.3-3.7-1.6-5.7c-0.2-1.1-0.3-2.2,0-3.2c0.6-2.2,3.2-3.2,5.5-3.2
		c4.5,0,8.7,3,11,6.9c2.4,3.9,3.3,8.5,3.8,13c1.4,11.8,0.6,23.9-2.4,35.5c2.8-0.3,3.7-3.9,4-6.7c1.1-8.7,4.4-17,5.7-25.7
		C120.9,97.3,119.9,87.5,113.8,81.2z M24.2,76.3c-0.2-2.5,2-4.9,0.8-7.3c-0.1-0.3-0.1-0.6,0.1-0.8c-0.1-0.2-0.1-0.5-0.2-0.7
		c2.4,0.8,5,1,7.5,0.5c0.5-0.1,1.2-0.5,0.9-1c-2.8-0.4-5.6-0.9-8.4-1.4c-0.7-0.1-1.5-0.3-2-0.8c-0.7-0.6-0.6-1.7-0.8-2.8
		c-0.7-1.9-3.3-2.7-4-4.7c-0.5-1.4,0.1-2.9,1-4.1c0.9-1.1,2-2.1,2.7-3.4c1.1-2,1.1-4.5,0.6-6.7s-1.5-4.3-2.3-6.5
		c-1.4-3.9-2.1-7.9-2.2-12c3.1,0.4,6.5-0.9,8.5-3.4c0.4-0.5,0.8-1,1.3-1.4c0.8-1.4,2.7-2.6,3.5-3.2c3.5-2.6,8.1-2.3,11.6-4.7
		c0.8-0.5,1.5,0.7,0.7,1.2c-2.3,1.6-5.1,1.9-7.7,2.8c-0.4,0.1-8,3.7-7,5.2c0.1,0.2,0.2,0.4,0.1,0.5c0.2,0.7,0.3,1.3,0.5,2
		c0.1,0.3,0.2,0.7,0.5,1c0.4,0.5,1,0.6,1.6,0.7c4.6,1,8,4.6,11.1,8c1.9,2.1,3.8,4.3,4.7,6.9C44.1,45,40.8,50.2,40.7,56
		c-0.1,4.8,2,9.5,2.5,14.3c0.2,2,0.1,4-0.8,5.8c-1.3,2.5-4.3,4-7.1,3.6c-1.4-0.2-2.8,0.1-4,0.9c-0.5,0.3-1,0.7-1.5,0.8
		c-0.4,0-0.8-0.1-1.1-0.3c-0.5,0.1-1,0-1.5-0.2C25.5,80.3,24.3,78.1,24.2,76.3z M93.9,99.4c2.7,0,5.4,0,8,0.7c2.6,0.7,5,2.4,6.1,4.8
		c0.4,1,0.7,2.2,0.7,3.3c0.2,5.8-3.7,10.9-8.4,14.3c-4.7,3.4-10.1,5.5-15,8.6c-3.3,2.1-6.3,4.6-9.5,6.8c-7.4,5-15.8,8-24.1,11
		c-2,0.8-4.1,1.5-6.3,1.5c-5.6,0-9.9-5-12.7-9.9c-1.9-3.4-3.6-6.9-5.2-10.4c-4.8-10.3-9.6-20.8-11.7-32.2c-0.5-3.3,0.6-6.8,3-9.1
		c1.8-1.7,4.1-2.7,6.3-3.6c3.5-1.4,7.1-2.7,10.7-3.8c-1.7,3.1-3.3,6.1-4.9,9.1c-0.3-1-0.5-2-0.8-3c-0.9-0.2-1.4,1-1.5,1.9
		c-0.7,8.4,4.2,16,8.9,22.9c3.7,5.4,7.4,10.8,11.1,16.2c0.2,0.3,0.4,0.6,0.7,0.7c0.7,0.2,1.3-0.4,1.8-1c4.1-5.4,8.2-10.8,12.3-16.2
		c0.3-0.4,0.8-0.4,1.3-0.3c4.1,0.6,8.1,2.2,12.2,2.9c4.2,0.8,8.8,0.5,12-2.2C92.6,109.4,93.4,104.1,93.9,99.4z M89.7,87.2
		c0,2.8,1.3,5.4,1.8,8.1c0.6,3.5-0.2,7-1,10.5c-0.9,3.9-4.5,6.9-8.4,7.1c-0.8,0-1.7,0-2.5-0.1c-8.9-0.9-17.7-3.7-25.5-8.2
		c-0.6-0.3-1.2-0.7-1.9-0.6s-1.3,0.8-1,1.4c0.1,0.3,0.4,0.5,0.7,0.6c3.2,1.6,6.4,3.3,9.6,4.9c-4,5.1-7.9,10.2-11.6,15.5
		c-5.2-8.1-10.5-16.1-15.7-24.2c-1.2-1.7-2.3-3.5-2.8-5.5s-0.3-4.3,1.1-5.8c2.9-3.1,3.8-8,7.7-9.7c4.2-1.8,5.4-7.2,4.8-11.7
		s-2.5-8.9-2.4-13.4c0.1-2.5,0.9-5.1,1.9-7.4c3.1-6.9,9.4-12.5,16.7-14.3c6.1-1.6,13.2-0.3,17.6,4.2c2.4,2.4,5.8,3.6,8.5,5.6
		c0.2,0.4,0.5,0.6,0.9,0.6c0.5,0.4,0.9,0.8,1.3,1.2c3.7,4,3.8,10,3.3,15.4c-0.4,3.4-1.1,7-3.4,9.6c-1.6,1.7-3.9,3.2-3.9,5.5
		c0,1.1,0.5,2.1,0.6,3.2c0.1,1.1-0.4,2.2-1.2,3c-0.7,0.7-2.1,1-2.8,0.2c-0.3-0.3-0.4-0.8-0.7-1.1c-0.3-0.3-0.9-0.4-1.1,0
		c-0.2,1.6,0.8,3.3,2.3,3.8c-3.5,1.3-6.4,4.3-7.4,7.9c-0.1,0.3-0.5,0.4-0.9,0.6c-4.9,0.5-8.6-4.5-13.4-5.7
		c-5.1-1.3-9.5-4.7-12.2-9.1c-0.8,0-1.3,0.9-1.1,1.7c0.2,0.7,0.8,1.3,1.4,1.8c1.9,1.7,3.7,3.3,5.6,5c-2.1-0.8-4.4-0.6-6.4,0.3
		c-0.1,1.1,1.6,1.2,2.7,1c4.4-0.9,9-0.1,12.8,2.2c1.8,1,3.3,2.4,5.2,3.1c2.4,1,5.3,1,7.2,2.7c0.5,0.4,0.9,1,1.6,1.3
		c0.7,0.3,1.6,0,1.7-0.7c-1.4-0.9-3-2.3-2.6-3.9c0.9-3.5,4.6-5.3,7.1-7.9c1.6-1.6,2.8-3.6,4.6-4.8c0.9-0.7,2.2-1,3.3-0.9
		c0.5,0.1,0.9,0.3,1.4,0.4c0.5,0.2,0.9,0.6,1.2,1.1C91.7,81.3,89.7,84.4,89.7,87.2z"/>
	<path class="st0" d="M80.7,73.9c0.5,0.4,0.4,1.2-0.1,1.7c-0.6,0.6-1.6,0.8-2.3,0.5c-0.5-0.2-0.9-0.7-0.8-1.2
		c0.1-0.4,0.5-0.8,0.5-1.2c0.6,0,1.2,0,1.8,0C80.1,73.7,80.4,73.7,80.7,73.9"/>
	<path class="st0" d="M82.7,73.3c-0.3,0-0.5,0.2-0.6,0.4c-0.7-0.3-1.4-0.7-2.1-0.8c-0.7-0.1-1.3,0-1.9,0.3c0-0.4-0.1-0.8-0.1-1.1
		c1.4-0.3,2.8-0.3,4.2,0C82.3,72.5,82.4,72.9,82.7,73.3"/>
	<path class="st0" d="M86.8,71.1c-0.6,0.7-1.6,0.4-2.4,0c-0.6-0.2-1.1-0.5-1.7-0.7c-0.4-0.2-0.8-0.3-1.2-0.5c-0.5-0.2-1.1-0.6-1-1.2
		c0.1-0.4,0.5-0.6,0.8-0.6c0.4,0,0.7,0.1,1,0.3c1.1,0.5,2.2,1,3.3,1.4C86.2,70.1,86.8,70.5,86.8,71.1"/>
	<path class="st0" d="M26.5,59.5c0,0.1,0,0.2,0.1,0.3s0.3,0.1,0.4,0.2c0.2,0.8-0.6,1.7-1.5,1.6c-1.1-0.1-1.7-1.5-2.8-1.7
		c-1.1-0.1-2.2-0.4-3.2-0.9c0-0.2,0-0.4,0-0.6c0.5-0.3,1.1-0.6,1.7-0.7c0.6-0.1,1.3,0,1.7,0.4c0.6-0.3,1.3,0,1.8,0.4
		C25.3,58.9,25.8,59.4,26.5,59.5"/>
	<path class="st0" d="M31.2,43.9c1.2,0,2.5,0,3.6,0.6c0.8,0.5,1.5,1.2,2.1,1.9c0.2,0.3,0.5,0.6,0.5,0.9c0,0.8-1.1,1.2-1.8,0.8
		s-1.1-1.1-1.5-1.8c-1.5-0.1-2.9-0.2-4.4-0.3c-0.6,0-1.3-0.2-1.4-0.8c0-0.4,0.3-0.7,0.6-0.9C29.7,44,30.4,43.9,31.2,43.9"/>
	<path class="st0" d="M54.8,69.9c-0.2,0.5-0.4,1.1,0,1.4c0.8,0.7,1.9,1,2.9,0.7c0,0.5,0,1-0.3,1.4c-0.3,0.3-0.8,0.3-1.2,0.3
		c-1.3-0.2-2.4-1-3-2.2c-0.3-0.9-0.3-2,0-2.9c0.1-0.4,0.3-0.8,0.6-1c0.7-0.7,1.9-0.5,2.9-0.4c0.2,0.4-0.1,0.9-0.4,1.2
		c-0.3,0.3-0.8,0.5-1.1,0.8C55,69.4,54.9,69.6,54.8,69.9"/>
	<path class="st0" d="M26.1,41.6c-0.4-0.8,0.1-1.7,0.8-2.2c1.4-1.1,3.4-1,5.2-0.8c0.9,0.1,1.8,0.5,2.6,1c0.7,0.4,1.5,0.8,2.2,1.2
		c0.5,0.3,1,0.6,1.4,0.8c0.2,0.1,0.4,0.3,0.5,0.5s0,0.6-0.3,0.6c-1.2,0.4-2.5,0.1-3.6-0.6c-0.8-0.5-1.7-0.9-2.6-1.3
		c-0.5-0.2-1.1-0.4-1.6-0.5c-0.2,0-0.4,0-0.6,0c-0.7,0-1.4,0.3-2,0.6C27.6,41.4,26.8,41.9,26.1,41.6"/>
	<path class="st0" d="M54.7,64.5c-2,1.7-2.9,4.6-2.2,7c0.4,1.5,1.5,2.9,3,3.4c0.6,0.2,1.2,0.2,1.8,0.2c1.1,0,2.4-0.1,3.1-1
		c0.2-0.2,0.5-0.5,0.6-0.3c0,0.7,0,1.4-0.2,2.1c-2.6,0.9-5.8,1.1-7.9-0.6c-2.2-1.8-2.6-5-2.4-7.9c0-0.3,0-0.6,0.2-0.8
		c0.8-1.3,1.7-2.5,3-3.3s2.9-1.1,4.2-0.4c0.2,0.3,0.6,0.5,1,0.5c0.1,0.4,0.5,0.8,0.8,1.1c1,1.1,1.2,2.8,0.7,4.1
		c-0.3,0.1-0.5,0.4-0.5,0.7c-0.3,0-0.5,0-0.7,0c0-1-0.1-2-0.4-2.9c-0.3-0.9-0.9-1.8-1.8-2.2C56.3,64,55.3,64,54.7,64.5"/>
</g>
</svg>
