<?xml version="1.0" encoding="utf-8"?>
<!-- Generator: Adobe Illustrator 19.2.0, SVG Export Plug-In . SVG Version: 6.00 Build 0)  -->
<svg version="1.1" id="Layer_1" xmlns="http://www.w3.org/2000/svg" xmlns:xlink="http://www.w3.org/1999/xlink" x="0px" y="0px"
	 viewBox="0 0 150 130.3" style="enable-background:new 0 0 150 130.3;" xml:space="preserve">
<style type="text/css">
	.st0{fill:#00BCD4;}
</style>
<g id="mom-baby">
	<path class="st0" d="M145.4,99.6c-6-5.6-12-11.3-18-17c4.2-6.5,8.5-13.3,9.5-21c0.4-3,0.4-6.4,2.5-8.6c2.8-2.9,2.8-7.4,2.7-11.4
		c-0.4-10.7-1.1-22.2-7.8-30.5c-4.4-5.4-11-8.8-17.9-10.2c-6.9-1.4-14-0.9-20.9,0.4c-5.9,1.1-11.9,2.9-16.6,6.6s-8.1,9.5-7.5,15.5
		C72,29,75.8,35,72.8,39.8c-1.6,2.5-4.6,3.7-6.5,5.9c-1.9,2.2-1.8,6.7,1.1,7.1c1.7,0.2,1.6,2.6,1,4.2c-0.6,1.6-0.6,4.1,1.1,4.2
		c0.4,2.3,0.8,4.7,1.2,7c-6.1,0.2-11.9-4.3-13.4-10.2c-1.1-4.3-2.4-8.5-4-12.6c-1.7-4.3-3.8-8.8-7.7-11.4c-4.8-3.3-11.2-3-17-2.6
		c-3.3,0.2-6.8,0.5-9.7,2.1c-2.7,1.5-4.7,3.9-6.3,6.5c-2.6,4.2-4.5,9.2-4.4,14.2c0.2,9.6,7.4,17.4,14.2,24.2
		C11.6,83,3.2,93,0.4,104.4c-0.5,2.2-0.8,4.6-0.2,6.8c0.7,2.2,2.4,4.2,4.7,4.6c7.4,1.2,14.9,2,22.4,2.5c-7.7,4.1-15.5,8-23.3,11.9
		c7.4-1.3,14.5-4.2,20.7-8.5c2.6-1.7,5-3.7,8-4.4c1.8-0.4,3.9-0.6,4.7-2.2c10.2-8.9,21.9-16.1,34.5-21.3c1.4-0.5,2.8-1.1,4.3-1
		c1.6,0.1,3.1,1,4.5,1.8c2.9,1.8,5.8,3.7,8.6,5.7c3.8,2.8,7.6,5.8,9.6,10c2.7,5.6,1.7,12.2,0.7,18.4c0.6,1.1,2.1-0.5,2.3-1.8
		c0.7-5.7,1.4-11.8-1.1-17c-1.6-3.4-4.5-6.1-7.4-8.5C88.8,97.5,83.8,94,78.5,91c4.3,0.4,8.1,2.8,11.5,5.4
		c9.6,7.3,17.8,16.4,24.1,26.7c1.7,2.7,4.2,6,7.3,5.3c-9.5-15.6-22.7-29-38.2-38.6c5.2-0.4,10.4-1.5,15.3-3.3
		c1.8-0.7,3.9-2.1,3.3-3.9c-2.6,2-5.6,3.4-8.7,4.3c0.9-3.1,0-6.7-2.3-9.1c3.5,1.2,7.5,0.4,10.4-1.9c-4.6,2.2-10.1,0.8-14.8-1.3
		c-4.7-2.1-9.3-4.9-14.4-5.3c0.7-1.5,0.6-3.4-0.2-4.8c2.4-0.4,4.7-1.4,6.7-2.9c-3-0.8-5.9-1.6-8.9-2.4c2-3,0.3-7.7-3.1-8.8
		c-1-0.3-0.6-1.9,0.1-2.7c1.9-2.2,4.4-3.8,6.4-6c1.9-2.1,3.3-5.3,2.3-8c-1.6-4.2-1-9.2,1.7-12.9c2.5-3.4,6.7-5.6,10.9-5.6
		c2.4-4.4,9.4-5.9,13.8-6.7c7.8-1.5,17.4-0.3,23.4,5.4c0.7,0.6-0.3,1.7-1,1c-5.3-5-13.8-6.4-20.8-5.2c-4.7,0.8-14.7,2.5-14.8,8.7
		c0,0.1,0,0.2-0.1,0.3c0.4,3.1,2.6,6,5.7,6.6c5.7,1.2,9,7.7,8.6,13.4c-0.4,5.8-3.6,11-6.9,15.8c-0.9,1.4-1.9,2.9-1.9,4.5
		c0.1,2.2,1.9,3.9,3.7,5.3c3.4,2.6,7,5,11.2,6c4.1,1,8.9,0.3,12-2.6c-1.1,8.8,5.7,16.5,12,22.8c5.8,5.7,11.5,11.5,17.3,17.2
		C150.2,104.5,147.7,101.8,145.4,99.6z M20.1,74.1c-1.4-1.3-2.5-3.4-1.5-5c0.6-0.9,1.8-1.4,2.9-1.1c0.7,0.2,1.2,0.7,1.9,1
		c0.7,0.3,1.5,0.5,2.1,0c-1-1.3-2.4-2.1-3.9-2.7c0.1-0.1,0.2-0.1,0.2-0.2c1.5-0.1,2.9-0.3,4.4-0.4c0.6-0.1,1.2-0.2,1.6-0.6
		c0.4-0.5,0.3-1.4-0.3-1.4c-1.7-0.1-3.3-0.7-4.7-1.7c0.6-0.1,1-0.6,1.2-1.2c-0.3-0.8-0.8-1.4-1.5-1.8c0.1-0.9,1.8-0.9,2.1-1.9
		c0.4-1.3-2.4-1.8-2.2-3.2c0.1-0.6,0.7-0.9,1.3-1.1c1.6-0.5,3.2-0.7,4.9-0.2c0.4,0,0.7-0.4,0.7-0.8c0-0.4-0.2-0.8-0.4-1.1
		c-0.7-1-1.6-1.7-2.7-2.2c0,0-0.1-0.1-0.1-0.1c1.5-0.4,2.9-0.8,4.3-0.6c1.4,0.1,2.9,1.1,3.3,2.5c-0.3,0.8-0.5,1.5-0.8,2.3
		c0.2,0,0.5,0.1,0.8,0.1c1.2-1,2.4-2.2,3-3.6c0.6-1.4,0.5-3.3-0.6-4.4c2.9,0.2,5.4,3,5.3,5.9c0,0.5,0.7,0.8,1.2,0.6s0.8-0.7,1-1.2
		c0.8-1.5,1.6-3,2.4-4.5c0.8,0.3,1.5,0.8,2.1,1.4c0.3-0.1,0.5-0.2,0.8-0.4c-0.8-1.6-0.8-3.5-0.1-5.1c2.1,0.9,3,3.3,3.7,5.4
		c2,5.9,4.1,11.9,6.1,17.8c0.4,1,0.7,2.1,0.8,3.2c0.2,2.7-1.3,5.2-2.7,7.5c-0.6,0.9-1.1,1.9-2,2.6c-0.9,0.7-2.1,1.1-3.2,1.5
		c-3.5,1.2-7,2.3-10.7,2.4c-3.7,0.1-7.6-1.1-9.9-4c-0.5-0.6-0.2-1.4-0.1-2.2c0-0.8-0.7-1.7-1.3-1.2c0.5,0.8-0.6,1.6-1.5,1.8
		C25.3,76.8,22.2,76,20.1,74.1z M65.9,90.7c-0.5,0.9-1.3,1.6-2.3,1.9c-0.7,0.2-1.5,0.1-1.9-0.5c-0.5-0.8,0.1-2.2-0.7-2.7
		c-0.2,0.2-0.3,0.5-0.4,0.8c-0.2,0.6-0.3,1.3-0.4,2.1c0.1,0.6,0.6,1.3,1.3,1.3c-0.9,0.4-1.8,0.5-2.7,0.4c-0.5-0.1-1.1-0.3-1-0.8
		c0.2-1.3,0.1-2.7-0.3-3.9c-0.3-0.1-0.6-0.2-0.9-0.1v3.9c-0.4,0.5-1.4,0.2-1.7-0.4c-0.3-0.7-0.2-1.4,0-2.1c0.2-0.7,0.4-1.4,0.2-2.1
		c0-0.1-0.1-0.2-0.2-0.3c-0.4-0.3-0.8,0.3-0.9,0.8c-0.2,1.1-0.3,2.2-0.2,3.2c-0.9-0.2-1.6-0.9-2-1.7c1-1.6,1.7-3.4,2.1-5.2
		c0.1-0.2,0.1-0.5-0.1-0.7c-0.3-0.3-0.8,0.2-1,0.6c-0.6,1.2-1.1,2.5-1.6,3.7c-0.8-0.9-0.2-2.2,0.4-3.2c0.7-1,1.4-2.1,2.4-2.8
		c1.2-0.8,2.7-0.9,4.1-0.8c3.4,0.4,6.7,2.3,8.7,5.2c0.5,0.7,1,1.6,1,2.5c0.1,1-0.4,1.9-1.3,2.2c0.5-0.8,0.9-1.7,0.9-2.6
		C66.7,89.2,66.2,90.1,65.9,90.7z M52.2,80c-0.3,1-1.1,1.7-1.9,2.3c-1.3,1.1-2.9,1.9-4.5,2.4c-0.6,0.2-1.2,0.3-1.8,0.4
		c-1.1,0.2-2.3,0-3.4-0.4c-1.3-0.5-2.4-1.3-3.4-2.5c1.3,0.7,2.8,0.9,4.2,0.7C45.1,82.4,48.7,81.4,52.2,80z M41.1,107.9l-0.9,0.6
		c-0.9-0.5-1.8-1-2.3-1.8c-0.2-0.4-0.6-0.8-1-0.6c-0.6,0.3-0.6,1.3-0.2,1.8c0.4,0.5,1.1,0.8,1.7,1.1c0.6,0.3,1.2,0.7,1.5,1.3
		c0.1,0.1,0.1,0.3,0.1,0.5c-0.2,0.6-1.1,0.5-1.7,0.2c-0.8-0.4-1.7-1-2.4-1.7c-0.3-0.4-0.9-0.1-1.1,0.3c-0.2,0.5,0,1,0.3,1.3
		s0.8,0.5,1.2,0.7c0.8,0.3,1.6,0.7,2.4,1c-0.9,0.6-2,0.8-3.1,0.7c-0.7-0.1-1.5-0.5-1.3-1.2c-0.8,0.2-1.4,0.8-1.5,1.5
		c0.5,1.3,3,0.6,3.4,1.9c-2.1,0.6-4.4,0.1-6.1-1.2c-0.2,0.4-0.4,0.8-0.6,1.3c-1.6,0.6-3.6-0.3-4.2-1.9c-0.2-0.6-0.3-1.2-0.3-1.8
		c0-2.3,0.9-4.5,2.6-6c1.7-1.5,4-2.3,6.2-2.1c-0.6,0.4-1,1.3-0.7,1.9h0.7c0.4-0.5,0.8-1.1,1.2-1.6c0.1-0.2,0.3-0.4,0.5-0.5
		c0.3-0.1,0.7,0,1,0.2c1.6,0.8,3,1.9,4.2,3.1C40.9,107.2,41.2,107.5,41.1,107.9z M42.7,109.3c-0.5-3.1-2.9-5.7-5.9-6.4
		c-4.8-1.1-9.7-1.5-14.6-1.1c-0.1-1,0.6-1.8,1.5-2.1c0.9-0.3,1.9-0.2,2.8-0.1c2.3,0.2,4.5,0.1,6.5-0.3c0.8-0.2,1.9-0.8,1.5-1.6
		c-3.5,0.6-7.1,0.8-10.6,0.6c-0.4-1.2,0.5-2.3,1.5-3c1-0.6,2.2-1.1,2.8-2.2c-1.2-0.3-2.5,0.2-3.3,1.2c0.2-1.6,0.3-3.2,0.5-4.8
		c0-0.5,0.1-1.1-0.2-1.5c-0.3-0.4-1-0.6-1.3-0.2c0.5,4.5-0.6,9.1-3,13c-0.2,0.4-0.4,0.7-0.8,0.9c-0.6,0.2-1.2-0.1-1.7-0.3
		c-4-1.7-8.6-1.8-12.6-0.2c-0.7,0.3-1.5,1.2-0.9,1.7c3.9-1.5,8.2-1.7,12.3-0.7c-2.8,0.8-5.5,2.2-7.7,4.1c-1.6,1.3-3,3.2-2.7,5.2
		c1.2-0.1,1.8-1.4,2.4-2.4c1.6-2.6,4.4-4.3,7.3-5.2c2.9-0.8,6-0.9,9.1-1c-0.4,0.4-0.9,0.9-1.3,1.3c2.1,0.4,4.2-2.2,6.1-1.3
		c-3.8,1-6.8,4.6-7,8.5c-0.2,2.1,0.8,4.6,2.9,5.1c1.1,0.2,2.3-0.1,3.3,0.4c-1.3,0.7-2.8,0.2-4.2-0.1c-3.7-0.9-7.6-0.7-11.4-0.9
		c-3.9-0.1-7.8-0.8-11-2.9c-0.4-0.2-0.8-0.6-1-1c-0.3-0.4-0.3-0.9-0.3-1.4c-0.1-8.4,3.3-16.9,9.1-23c0.9-0.9,1.9-1.8,3-2.5
		c1.8-1.1,4.1-1.5,5.6-3.1c0.6-0.6,1-1.4,1.8-1.6c0.5-0.2,1-0.1,1.4-0.3c0.7-0.5,0.6-1.6,1.2-2.1c0.5-0.4,1.1-0.3,1.6-0.3
		c0.9,0.1,1.7,0.2,2.6,0.3c1,0.1,2.2,0.4,2.4,1.3c0.8,3.3,3.1,6.1,6.2,7.5c0.7-0.5-0.1-1.4-0.8-1.8c-1.8-1.2-3.2-3-3.8-5.1
		c3.2,3.1,7,6.3,11.5,6.3c4.4,0.1,8.4-3.1,10.7-6.9c0.3,0.9-0.1,1.8-0.7,2.5s-1.4,1.2-2,1.8c-2.1,2.1-2.2,5.9-0.3,8.1
		c1.5,1.8,3.9,2.5,6.1,3.1c1.5,0.5,3.3,0.8,4.5-0.2c1.1-1,3-0.9,4,0.2C57.4,98.4,49.6,103.3,42.7,109.3z M84.3,75.1
		c2.7,0.7,4.7,2.9,6.2,5.2c0.7,1.2,1.4,2.5,1.4,3.9c0,1.4-1,2.9-2.4,3.1c-6.4,0.8-12.7,2.6-18.5,5.5c-0.9,0.5-1.8,1-2.8,1.1
		c-1,0.2-2.1-0.1-2.7-0.9c1.8,0.3,3.4-1.3,3.5-3.1c0.1-1.7-0.8-3.4-2-4.7c-1.2-1.3-2.7-2.4-4.3-3.1c2.6,0.1,5.2,0.5,7.6,1.1
		c0-0.3,0.1-0.7,0.1-1c-1.8-0.6-3.7-1.1-5.6-1.3c3.9-1.8,7.8-3.4,11.8-4.8C79.1,75.2,81.8,74.4,84.3,75.1z M76,73.5
		c0.2-0.9-0.2-1.8-0.9-2.3c1.8,0,3.5,0.7,4.8,1.9c-3.8,2.7-8.8,3.3-12.9,5.6c-1.6,0.8-3.1,2-4.9,2.3c-2.2,0.4-4.4-0.5-6.6-0.2
		c0.1-3.2,2.9-5.5,4.2-8.3c0.9-2,1.2-4.3,0.6-6.5C65.9,67.6,71.2,70.2,76,73.5z M74,62.1c0.1-0.2,0.3-0.2,0.5-0.1
		c-0.7,0.5-1.4,0.9-2.1,1.3c-0.5,0.2-1,0.4-1.5,0.4c0-0.2-0.2-0.5-0.3-0.5C71.1,62,72.8,61.4,74,62.1z"/>
	<path class="st0" d="M49.2,52.4c0.3-0.3,0.6-0.6,1-0.7c0.4-0.1,0.7-0.1,1.1,0c-0.3,1-1.3,1.8-2.4,1.8
		C48.7,53.1,48.9,52.6,49.2,52.4"/>
	<path class="st0" d="M47.3,68.3c-0.4-0.1-0.6-0.6-0.6-1c0.1-0.4,0.3-0.8,0.7-1c0.5-0.3,1.1-0.4,1.7-0.2c0.1,0.8-0.3,1.6-0.9,2
		C47.9,68.3,47.6,68.4,47.3,68.3"/>
	<path class="st0" d="M35.7,57.9c0.1-0.4,0.4-0.7,0.7-0.9c0.4-0.2,0.8-0.2,1.2-0.3c0.5,0,1.1,0,1.5,0.3c-0.7,0.8-1.7,1.3-2.8,1.4
		c-0.2,0-0.4,0-0.5-0.1C35.7,58.3,35.6,58,35.7,57.9"/>
	<path class="st0" d="M50.9,64.2c0.4-0.1,0.8-0.1,1.1,0c0.4,1,0.3,2.1-0.4,2.9c-0.3,0.2-0.8,0.3-1.2,0.2c-0.2-0.4,0.1-0.9,0.3-1.3
		C51,65.5,51.1,64.8,50.9,64.2"/>
	<path class="st0" d="M54.6,71.8c0.2,0.2,0,0.5-0.2,0.7c-0.6,0.5-1.3,0.9-2.1,1.1c-0.2,0.1-0.5,0.1-0.7,0s-0.4-0.4-0.3-0.6
		c0.1-0.1,0.2-0.2,0.3-0.2C52.5,72.2,53.5,71.6,54.6,71.8"/>
	<path class="st0" d="M31.7,109.1c-0.6,0.8-0.1,2.2-0.9,2.9c-0.3,0-0.6-0.2-0.8-0.5c-0.1-0.3-0.1-0.6-0.1-0.9
		c0.1-1.3,0.5-2.5,1.3-3.5c0.2-0.3,0.6-0.6,0.8-0.3c0.1,0.1,0.1,0.2,0.1,0.4C32.3,107.8,32.1,108.6,31.7,109.1"/>
	<path class="st0" d="M73.7,53.7c-0.3,0.5-0.9,0.7-1.5,0.6c-0.6-0.1-1-0.7-1-1.2c0-0.6-0.7-1-1.2-1.2c-0.6-0.2-1.2-0.6-1.2-1.2
		c1.4-0.3,2.9,0.4,4.1,1.1c0.3,0.2,0.7,0.4,0.9,0.8C74,53,74,53.5,73.7,53.7"/>
	<path class="st0" d="M80.2,41.4c-0.1-0.1-0.1-0.4,0-0.6c0.1-0.2,0.4-0.2,0.6-0.3c2.3-0.7,4.8-0.6,6.9,0.4c0.6,0.3,1.2,0.8,1.1,1.4
		c-0.6,0.3-1.3-0.1-1.9-0.4c-0.8-0.4-1.6-0.7-2.5-0.8C83.1,41.4,81.7,41.5,80.2,41.4"/>
	<path class="st0" d="M48.7,71.2c0.6-0.6,1.3-1.2,1.9-1.7c1.2-0.7,2.7-0.9,4.1-0.5c0.1,0.3,0.1,0.6,0.2,0.8c0,0.1,0,0.2,0,0.3
		c0,0.4-0.5,0.7-0.9,0.8c-1.2,0.4-2.5,0.7-3.6,1.4c-0.8,0.5-1.7,1.2-2.6,0.8C47.6,72.5,48.2,71.7,48.7,71.2"/>
	<path class="st0" d="M83,46.2c-0.8,0-1.7-0.2-2.4-0.8c-0.4-0.4-0.9-0.7-1.3-1.1c-0.3-0.4-0.5-1.1-0.3-1.6c1.7,0.1,3.3,0.2,5,0.3
		c0.8,0,1.5,0.1,2.3,0.1c1.1,0.1,2.2,0.2,3.2,0.6c0,0.4,0,0.7,0,1c-1.1,0.8-2.5,1-3.8,1.2C84.8,46.1,83.9,46.2,83,46.2"/>
	<path class="st0" d="M55,57.6c-0.3,0.3-0.6,0.7-0.9,0.9c-0.8,0.7-1.8,1.3-2.7,1.8s-1.9,1-2.9,0.8c-0.3-0.5-0.3-1.1-0.2-1.6
		c0.4-1.6,1.4-3.1,3-3.8c1-0.5,2.2-0.6,3.3-0.3C55.2,55.9,55.4,56.9,55,57.6 M50.6,59.4c0.2-0.1,0.4-0.2,0.5-0.4
		c0.3-0.4,0.2-0.9,0-1.3c-0.9,0.3-1.6,1.2-1.5,2.2C50,59.8,50.3,59.6,50.6,59.4"/>
	<path class="st0" d="M81.5,34c0.1,0,0.2,0,0.4-0.1c0-0.3,0.3-0.5,0.7-0.7c1.2-0.4,2.6-0.4,3.9-0.2c1,0.1,2.1,0.4,3,0.9
		c1.3,0.7,2.2,1.9,3,3.1c0.2,0.2,0.3,0.5,0.3,0.8c0,0.4-0.5,0.7-0.9,0.6c-0.4,0-0.8-0.3-1.1-0.5c-0.3-0.2-0.7-0.5-0.8-0.9
		c-0.4-0.1-0.7-0.5-1.1-0.7c-0.4-0.3-0.8-0.4-1.3-0.6c-1.6-0.4-3.2-0.4-4.8,0.1c-0.4,0.1-0.9-0.1-1.1-0.5
		C81.4,34.9,81.4,34.4,81.5,34"/>
	<path class="st0" d="M42.3,63.1c-0.3,0.9-1.1,1.5-1.8,2c-0.9,0.6-1.8,1.1-2.8,1.6c-0.9,0.5-1.9,0.9-2.9,0.8c-0.2,0-0.4-0.1-0.5-0.3
		c0-0.1,0-0.2,0-0.3c0.3-2.1,1.8-4,3.8-4.8c0.7-0.3,1.6-0.4,2.3-0.3C41.2,61.9,42,62.4,42.3,63.1 M37.8,65.2
		c0.1-0.1,0.3-0.2,0.3-0.4c0.1-0.4-0.4-0.8-0.4-1.2C37,64.3,36.5,65.2,36,66C36.7,66.2,37.3,65.7,37.8,65.2"/>
	<path class="st0" d="M23.7,71.6c0.1,0.8,0.6,1.5,1.3,1.9c0.7,0.4,1.6,0.4,2.3,0.1c-0.5-0.1-0.9-0.4-1.2-0.8
		c0.3-0.3,0.6-0.6,0.9-0.9c0.5,0.4,1,1,1.3,1.7c0.1,0.2,0.2,0.5,0.1,0.8s-0.6,0.5-0.9,0.5c-0.9,0.1-1.9,0.1-2.8,0
		c-1.2-0.1-2.5-0.5-3.4-1.3c-1.2-1-1.7-2.7-2.2-4.3c0.1,0,0.2,0,0.3-0.1c0.1-0.1,0.1-0.2,0.1-0.4c1.6-0.2,3.3,0.2,4.7,1.1
		c0.3,0.2,0.6,0.5,0.5,0.8c-1.3,0.2-2.7-0.5-3.9-1.1c0,1.6,1.1,3.1,2.6,3.7c-0.3-0.4-0.5-1-0.5-1.5C23.1,71.7,23.4,71.6,23.7,71.6"
		/>
</g>
</svg>
