<?xml version="1.0" encoding="utf-8"?>
<!-- Generator: Adobe Illustrator 19.2.0, SVG Export Plug-In . SVG Version: 6.00 Build 0)  -->
<svg version="1.1" id="Layer_1" xmlns="http://www.w3.org/2000/svg" xmlns:xlink="http://www.w3.org/1999/xlink" x="0px" y="0px"
	 viewBox="0 0 200 210.5" style="enable-background:new 0 0 200 210.5;" xml:space="preserve">
<style type="text/css">
	.st0{fill:#E91E63;}
</style>
<g id="mother-crying-child">
	<path class="st0" d="M0,183.1c2.5,0,5.1,0,7.6,0c1.2,0,1.5-0.9,1.4-1.8c-0.2-2.3,0.6-4.3,1.6-6.3c0.8-1.5,1.6-3,2.5-4.5
		c1.6-2.7,3.4-5.3,5-7.9c0.8-1.4,1.5-2.9,2.2-4.3c0.6-1.2,1.3-2.5,1.9-3.7c2.4-5.5,4.4-11.2,4.8-17.3c0.3-4.1,0.3-8.3-0.5-12.5
		c-0.7-3.5-1.1-7.1-1.5-10.6c-0.2-1.3-0.2-2.7-0.3-4.1c0-0.3-0.2-0.7-0.4-1c-2.5-3.8-4.5-7.9-5.8-12.2c-1.1-3.5-0.6-7,0.8-10.4
		c1.2-3,2.4-6.1,3.6-9.2c0.9-2.1,2.1-4,3.9-5.5c1.6-1.3,3-2.8,4.6-4c1.9-1.3,3.8-2.5,5.9-3.2c4.4-1.3,8.2-3.7,12.3-5.7
		c4.2-2.1,8-4.7,11.6-7.7c0.5-0.4,0.9-1.1,0.9-1.7c-0.4-2.9-0.7-5.8-1.4-8.7c-0.4-2-1.2-4-2-5.9c-1.8-4.6-1.9-9.5-1.6-14.3
		c0.1-1.8,0.4-3.5,0.8-5.2c1.3-5.5,4.7-9.4,9.5-12.2c5-3,10.6-4,16.2-2.9c4.2,0.8,8.1,2.9,11.5,5.6c2,1.6,4.2,2.8,6.3,4.3
		c1.1,0.8,2.3,1.7,3.3,2.7c2,1.9,2.7,4.3,2.9,7c0.3,4.1,0.6,8.2,0.8,12.3c0.3,4.8,0.5,9.5,0.8,14.3c0.2,2.2,0.6,4.4,0.8,6.6
		c0.3,2.7-1,5-2.5,7.1c-0.6,0.8-1.1,1.6-1.6,2.5c1.2,0.9,2.2,1.8,3.3,2.3c3.7,1.5,5.4,4.7,7,8c1.8,3.6,3.4,7.3,3.1,11.4
		c1.6,0.4,3.1,0.8,4.5,1c0.3,0.1,0.9-0.3,0.9-0.5c0.2-1.2,0.4-2.4,0.3-3.5c-0.4-2.4-0.3-4.8,0.5-7.1c0.5-1.4,0-2.6-0.6-3.8
		c-0.9-2-0.5-3.6,1.2-4.9c0.5-0.4,0.8-0.9,1.1-1.5c2.4-4.6,4.5-9.4,7.1-13.9c1.1-1.9,2.9-3.6,4.7-4.9c2.3-1.8,4.7-3.8,7.5-4.6
		c3.2-1,6.8-1.2,10,0.4c2.6,1.2,5.1,2.6,6.7,5.2c0.2,0.4,0.6,0.7,0.9,1c3,2,4.4,5.1,5.8,8.2c0.4,0.9,1.1,1.6,1.4,2.5
		c0.9,3,1.6,6,2.4,9c0.2,0.8,0.2,1.6,0.3,2.4c0.4,3.1-0.7,6.1-1.1,9.1c-0.5,3.1-0.9,6.2-1.4,9.5c2,0.3,3.6,0.6,5.3,0.9
		c0.2-0.7,0.4-1.4,0.7-2.1c0.7-1.5,1.6-2.1,3.1-1.9c1.2,0.2,2.4,1.3,2.4,2.7c0.1,1.6-0.2,3.2-0.2,4.7c0,0.4,0.2,1,0.5,1.3
		c0.9,0.9,2,1.7,2.9,2.7c0.9,0.9,1,2.7,0.5,3.9c-0.2,0.4-0.2,1,0,1.5c0.4,1.2,0.3,2.1-0.6,3.1c-0.4,0.4-0.5,1.2-0.5,1.9
		c0,1.1-0.2,2-0.9,2.9c-0.4,0.5-0.7,1.1-1,1.8c-0.9,2-2.4,3.3-4.3,4.4c-1.7,1-2.9,2.4-4,4.1c-1.9,3-2.1,6.4-2.7,9.7
		c-0.8,4.4-1.7,8.9-2.6,13.3c-0.3,1.2-0.7,2.4-1.2,3.6c-0.5,1.1-1.2,2.1-1.6,2.8c0.4,1.9,0.7,3.5,1.1,5.2c0.5,2.1,0.8,4.3,1.8,6.2
		c2,3.7,2.4,7.8,3.4,11.8c0.4,1.6,0.5,3.2,0.9,4.8c0.1,0.4,0.7,0.6,1,0.9c0.1,0.1,0.4,0,0.5,0c3.4-1.4,5.9-0.1,8.2,2.3
		c1.9,2,3.8,4,5.9,5.7c2.6,2.1,5.3,4.1,8,6.1c0.6,0.5,1.3,0.9,2,1.3c0,1.1,0,2.2,0,3.3c-0.2-0.1-0.5-0.2-0.7-0.3
		c-2.2-1.5-4.4-3-6.5-4.7c-2.1-1.6-4.2-3.3-6.2-5.1c-2.2-2-4.3-4.2-6.5-6.3c-0.3-0.3-0.9-0.6-1.3-0.5c-1,0.1-2,0.4-2.9,0.6
		c0.2,1.1,0.1,2.4,0.6,3.2c0.9,1.5,1.9,2.9,3.2,4.1c3.1,2.7,4.6,6.3,6.4,9.8c0.6,1.1,1.1,2.3,1.5,3.5c0.9,3.1,1.4,6.2,1.1,9.4
		c-19.4,0-38.7,0-58.1,0c-0.1-0.6-0.2-1.2-0.2-1.7c-0.6-4.3-3.1-7.5-5.5-10.9c-0.5-0.8-1.2-1.5-1.7-2.3c-1.2-2.3-2.4-4.7-3.6-7
		c-1-1.8-1-1.8-3-1.1c0.4,0.7,0.7,1.3,1.1,2c1,2.1,2,4.2,3.1,6.2c2.9,4.7,6.1,9.3,7.3,14.9c-31.7,0-63.4,0-95.1,0
		c-1.5-1.1-3-2.3-4.6-3.3c-2.3-1.6-4.7-3.2-7-4.8c-1.8-1.2-3.1-2.9-4.6-4.5c-3.1-3.3-5.3-7.1-7.2-11.1c-0.3-0.6-0.5-1.1-0.7-1.5
		c-3.2,0-6.1,0-9.1,0C0,184.5,0,183.8,0,183.1z M48.5,62.3c-2.7,1.2-5.5,2.6-8.5,3.7c-2.9,1.1-5.9,2.1-8.2,4.4
		c-1.2,1.1-2.5,2.1-3.7,3.2c-0.6,0.6-1.4,1.1-1.8,1.9c-1.4,2.9-2.7,5.9-3.9,8.9c-0.6,1.5-1.2,3-1.7,4.6c-0.1,0.4,0,1,0.2,1.3
		c3.1,3.6,6.1,7.3,9.5,10.8c1.5,1.6,3.6,2.7,5.6,3.7c1.8,0.9,3.8,1.2,5.6,2c2.9,1.2,5.8,2.6,8.8,3.9c0.4-1.8,1-3.5,0.5-5.5
		c-0.3-1.2-0.3-2.4-0.3-3.7c0-0.3,0.4-0.7,0.6-1c0.3,0.2,0.8,0.4,0.9,0.7c0.7,3,1.8,5.9,0.6,9.1c-0.6,1.6-0.7,3.3,0.4,4.9
		c2.3,3.5,4.3,7.3,5.2,11.5c0.8,3.8,1.5,7.7,2.3,11.9c3.4-1.2,6.1-3.7,9.5-5.5c-2.2-0.8-4.1-1.4-6-2.1c-0.3-0.1-0.8-0.7-0.8-0.9
		c0.1-0.4,0.6-0.9,0.9-0.9c0.5-0.1,1.2,0,1.7,0.3c2.1,1.1,4.5,1.4,6.8,1.8c0.2,0,0.5-0.1,0.8-0.2c2.6-1.4,5.4-2.8,7.9-4.4
		c1.4-0.9,2.5-2.2,3.7-3.4c0.2-0.2,0.2-0.7,0.2-1c-0.1-2.2-0.1-4.4-0.2-6.5c-0.2-2.2-0.3-4.5-0.8-6.6c-1-4.3-2.1-8.6-3.3-12.8
		c-0.7-2.5-1.9-4.8-3.9-6.5c-4.7-4.2-9.5-8.5-14.2-12.8c-2.3-2.1-4.6-4.1-6.8-6.3C53.6,67.7,51.1,65,48.5,62.3z M27.8,101.6
		c0.1,0.3,0.3,0.8,0.4,1.3c0.4,2.1,0.8,4.2,1.2,6.3c0.5,2.4,0.7,4.8,1.4,7.2c1.4,4.9,3.1,9.6,4.5,14.5c1.5,5.1,3.2,10.2,5.6,14.9
		c2.3,4.5,4.4,9.2,8.5,12.4c1.4,1.1,3.2,1.8,5,2.3c1.1,0.3,2.5,0.5,3.4,0c3.3-1.7,6.5-3.5,9.5-5.6c4.6-3,9-6.4,13.5-9.4
		c6.6-4.4,11.8-10.3,17-16.1c2.3-2.6,4.7-5.2,7.1-7.7c1.2-1.3,2.7-2.5,4-3.7c-0.4-0.5-0.7-0.8-0.9-1.2c-0.1-0.3-0.1-0.7-0.1-1.1
		c0.3,0.1,0.7,0.1,1,0.3c1.7,1.3,2.4,1.3,3.3-0.8c1-2.3,1.8-4.7,2.5-7.1c1-3.4,2.4-6.5,5-8.9c0.7-0.6,1.3-1.4,1.7-2.2
		c0.2-0.5,0.1-1.1,0.1-1.7c-0.6,0-1.3-0.1-1.8,0.2c-1.7,1.1-3.4,2.4-5.1,3.6c-0.4,0.3-0.9,0.5-1.4,0.8c-0.1-0.1-0.2-0.2-0.3-0.3
		c0.1-0.4,0.2-0.9,0.5-1.1c2.8-2.5,4.8-5.9,8.9-6.7c1.5-0.3,1.6-0.8,1.5-2.3c-1.7,0.2-3.3,0.7-5,0.7c-2.3-0.1-3.4,1.4-4.7,2.8
		c-0.9,1.1-1.8,2.3-2.9,3.3c-0.3,0.3-0.9,0.4-1.4,0.6c-0.1-0.2-0.2-0.4-0.3-0.5c1.5-1.7,2.9-3.6,4.5-5.2c1.1-1,2.4-2,3.8-2.5
		c1.5-0.5,3.2-0.4,4.9-0.7c0.4-0.1,0.9-0.3,1.3-0.4c-0.3-0.4-0.6-0.9-1.1-1.2c-0.3-0.2-0.9-0.2-1.3-0.3c-2.7-0.2-5.3,0.2-7.8,1.4
		c-0.7,0.3-1.4,0.8-2,1.3c-0.7,0.7-1.4,1.4-2,2.2c-0.8,1.1-1.6,2.2-2.4,3.3c-0.3,0.4-0.8,0.5-1.2,0.8c0-0.5-0.2-1.1,0-1.4
		c1.1-1.6,2.5-3.2,3.6-4.8c1.1-1.7,2.6-2.6,4.5-3.1c0.6-0.2,1.2-0.5,1.8-0.7c-1.7-0.3-3.3-0.6-4.8-0.2c-1.4,0.3-2.9,1.1-4,2.1
		c-1.2,1-2.1,2.4-3,3.7c-0.8,1.2-1.9,2.4-2.2,3.7c-0.7,3.2-1,6.5-1.4,9.8c-0.3,2-0.3,4.1-0.6,6.1c-0.5,2.7-2.7,4.2-4.5,5.9
		c-1.7,1.6-3.7,3-5.3,4.7c-3.6,3.6-7.3,7-11.8,9.3c-0.5,0.3-1,0.6-1.5,0.9c-5,2.9-10,5.9-15,8.8c-1.8,1-3.7,1.1-5.7,0.9
		c-0.6-0.1-1.2,0.1-1.9,0c-0.4-0.1-1-0.3-1.2-0.6c-0.1-0.2,0.2-0.9,0.5-1.1c0.4-0.3,0.9-0.4,1.4-0.4c0.9-0.1,1.9,0,3,0
		c-0.2-2.1-0.4-3.9-0.6-5.8c-0.5-3.9-1.3-7.8-3.1-11.4c-1.2-2.3-2.5-4.5-3.6-6.9c-0.5-1.2-1.2-2.1-2.4-2.6
		c-4.3-1.8-8.6-3.6-12.9-5.5c-0.7-0.3-1.5-0.5-2.1-0.9C31.4,104.4,29.5,103,27.8,101.6z M111.5,182.3c0.3,0.3,0.6,0.4,0.8,0.6
		c2.1,1.7,4,2.8,7.1,1.4c5.6-2.7,11.7-2.6,17.8-1.7c4.1,0.6,8,0.4,12-0.5c5-1.1,9.9-2,15-2c1.8,0,3.5-0.1,5.3-0.3
		c0.9-0.1,1.7-0.4,2.6-0.5c-0.2-3.4-2.5-13.6-3.2-14.6c-1.3,0.5-2.6,1-4,1.4c-0.9,0.3-1.9,0.5-2.8,0.9c-1.5,0.5-2.9,1.2-4.4,1.6
		c-0.6,0.1-1.3-0.3-1.9-0.5c0.2-0.5,0.3-1.4,0.7-1.5c2.6-1,5.2-1.9,7.9-2.8c0.9-0.3,1.9-0.6,2.8-0.8c1-0.3,1-0.7,0.7-1.6
		c-1.1-2.7-1.8-5.6-1.7-8.6c0-0.4-0.2-0.8-0.3-1.5c-1.8,3.2-4,5.3-7.4,5.9c-3.5,0.6-6.4-0.9-7.2-4.1c-0.4-1.7-0.7-3.4-0.7-5.1
		c0-6.2,0.1-12.3,0.3-18.5c0-1.1,0.3-2.2,0.5-3.4c0.3-2.1,0.6-4.2,0.9-6.3c0.2-1.6,0.5-3.1,0.7-4.7c0.2-2.5,0.4-5,0.6-7.5
		c-0.9,0.3-1.3,0.7-1.7,1.1c-2,2.2-3.9,4.5-6,6.7c-0.9,0.9-1.3,1.8-1.2,3c0.1,2.5,1.3,4.6,2.3,6.8c0.9,2.1,1.6,4.3,2.4,6.8
		c-1.8-0.9-3.1-1.5-4.4-2.2c-1.4-0.6-2.8-1.1-3.5-2.6c-0.1-0.2-0.5-0.3-0.7-0.2c-0.2,0.1-0.4,0.4-0.4,0.6c0,0.6,0.2,1.3,0.1,1.9
		c-0.6,3.9-1.1,7.8-1.9,11.6c-0.7,3.7-1.5,7.3-2.5,10.9c-0.3,1.2-1.3,2.4-2.3,3.2c-1,0.9-6.5,0.4-7.5-0.6c-1.2-1.2-2.6-2.3-3.4-3.7
		c-2.1-3.7-4-7.5-6-11.2c-0.7-1.4-1.5-2.8-2.3-4.2c-0.2,0.5-0.2,0.9-0.2,1.4c0.2,3.1,0.6,6.2,0.7,9.2c0.1,5.5,0,11,0,16.4
		c0,0.3,0.3,0.9,0.6,1c2.6,0.6,5.2,1.1,7.8,1.7c0.4,0.1,1,0.1,1.3,0.3c0.4,0.3,0.8,0.8,0.8,1.2c0,0.3-0.7,0.9-1.1,0.9
		c-2.2-0.4-4.3-0.8-6.5-1.4c-1.1-0.3-2.1-0.7-3.4-1.1C113.3,171.1,112.4,176.6,111.5,182.3z M104.5,157.4c-0.4,0.2-0.5,0.2-0.6,0.3
		c-0.2,0.2-0.4,0.3-0.6,0.5c-1.8,1.8-3.9,2.7-6.5,2.5c-2.3-0.2-4.4,0.6-6.4,1.6c-1.6,0.8-3.3,1.3-5,1.8c-0.4,0.1-0.9-0.5-1.4-0.7
		c0.4-0.4,0.6-0.9,1.1-1.1c1.4-0.7,2.9-1.2,4.4-1.8c1.5-0.6,3.1-1.6,4.6-1.6c4.2,0.1,7.5-1.6,10.4-4.4c0.5-0.5,1.1-1.2,1.3-1.9
		c1.8-5.8,1-11.9,2.2-17.8c0.7-3.5,0.9-7,1.3-10.5c0.1-0.5-0.2-1.3-0.6-1.6c-0.3-0.2-1.2,0.1-1.5,0.4c-1.8,1.8-3.5,3.6-5.2,5.4
		c-2.5,2.7-5,5.6-7.5,8.3c-3.6,3.8-7.1,7.6-11.5,10.5c-2.1,1.3-4.1,2.7-6.1,4.1c-4.3,2.8-7.7,6.8-12.6,8.8c-0.6,0.2-1,0.7-1.6,1
		c-1.7,0.8-3.4,2-5.2,2.2c-3.4,0.4-6.6-0.7-9.3-3c-2.7-2.3-4.7-5-6.4-8c-3.5-6.2-6.3-12.7-8.2-19.6c-1.1-3.7-2.3-7.4-3.4-11.1
		c-0.7-2.5-1.4-5-2.1-7.4c-0.2-0.6-0.7-1.1-1-1.7c-0.1,0.1-0.2,0.1-0.3,0.2c0.2,1.8,0.4,3.7,0.7,5.5c0.5,3,1.3,5.9,1.7,8.9
		c0.8,6.7,0.2,13.3-1.7,19.8c-0.4,1.3,0.1,1.6,1.1,1.9c2.3,0.9,4.6,1.7,6.9,2.7c0.4,0.2,0.6,0.9,0.9,1.3c-0.5,0.2-1,0.7-1.3,0.6
		c-1.8-0.5-3.5-1.2-5.2-1.8c-1.2-0.5-2.3-1-3.2-1.5c-1.7,3.6-3.2,7.1-4.8,10.5c-0.6,1.2-1.3,2.4-2,3.5c-1.5,2.5-3.2,4.8-4.6,7.4
		c-1.4,2.5-2.4,5.3-3.6,7.9c0.1,0.1,0.2,0.2,0.3,0.2c1-0.8,1.9-1.6,3-2.3c1.8-1.2,3.6-2.5,5.5-3.4c2.2-1.1,4.6-1.8,7-2.6
		c2.8-1,5.6-1.9,8.7-2c1.8-0.1,3.8-0.2,5.5-0.9c3.5-1.3,7.2-1.3,10.9-1.5c1.8-0.1,3.6,0.6,5.4,1c3,0.8,6.1,1.3,8.9,2.6
		c2.7,1.2,5.4,1.8,8.3,1.8c1.3,0,2.5,0.1,3.8,0.3c3,0.4,5.8,0.5,8.5-1.2c2.6-1.6,5.7-2.4,8.8-1.5c2.1,0.6,3.1-0.2,4.4-1.8
		C102.9,165,103.5,161.3,104.5,157.4z M137.3,77.2c-1,0.9-2,1.8-2.8,2.7c-0.9,1-2.2,1.8-2.4,3.3c-0.1,1.2-0.2,2.4-0.3,3.5
		c-0.3,2.9-0.5,5.8-0.8,8.6c-0.2,1.3-0.6,2.6-0.8,3.8c-0.7,5-1.1,10.1-2,15.1c-0.7,4.1-2,8-3.1,12c-0.6,2-1.4,4-2,6
		c-0.3,1-0.4,2.1-0.7,3.2c-0.1,0.3-0.7,0.4-1,0.6c-0.2-0.4-0.5-0.8-0.4-1.1c0.2-1.4,0.5-2.8,1-4.2c0.9-2.8,1.9-5.6,2.8-8.4
		c1.2-3.7,1.2-7.3-0.6-10.9c-1.2-2.4-2.9-4.1-5.5-4.8c-1.7-0.5-1.8-0.3-2.4,1.5c-1,2.9-2,5.8-3.2,8.6c-0.7,1.7-1,3-0.7,4.8
		c0.8,4.7,2.2,9.2,4.4,13.5c1.1,2.2,2,4.4,3.2,6.6c1.3,2.4,2.7,4.7,4.1,7c1.5,2.4,3,4.7,6.3,4.5c0.1,0,0.3,0.1,0.4,0.1
		c1.8,0.3,2.8-0.3,3.2-2c0.7-3,1.4-5.9,2-8.9c0.7-3.5,1.3-7,1.9-10.5c0.4-2.8,0.5-5.6,1.2-8.3c1-3.9,1.8-7.9,1.7-11.9
		c-0.2-4,0.6-7.7,1.2-11.6c0.2-1.3,0.8-2.4,2-3.2c3.5-2.3,6.9-4.8,8.9-8.6c0.9-1.7,1.8-3.5,2.8-5.3c-0.2-0.1-0.3-0.2-0.5-0.3
		c-1.4,3.2-3.6,5.7-6.2,8c-0.4,0.3-0.9,0.5-1.3,0.8c-0.1-0.2-0.3-0.3-0.4-0.5c0.4-0.5,0.7-1.2,1.2-1.6c3.8-3.2,5.8-7.6,8-11.8
		c0.4-0.7,0.7-1.5-0.3-2c-1-0.5-1.4,0.3-1.8,1c-1.2,2-2.2,4.2-3.5,6.1c-1,1.5-2.4,2.7-3.7,4c-0.2,0.2-0.8,0.1-1.2,0.1
		c0.1-0.4,0.1-0.8,0.3-1.1c0.4-0.6,1-1.1,1.5-1.6c2.7-2.4,3.8-5.8,5.6-8.7c-0.7-0.3-1.2-0.5-1.8-0.8c-1.9,3.7-4.6,6.7-7.7,9.3
		c-0.3,0.3-0.9,0.3-1.3,0.5c0.1-0.5,0.1-1.1,0.4-1.4c1.2-1.3,2.6-2.5,3.7-3.8c1-1.2,1.9-2.5,2.8-3.6c-0.8-0.6-1.4-1.1-2.2-1.7
		c-1.1,1.1-2.3,2.4-3.4,3.5c-0.8,0.8-1.7,1.7-2.6,2.4c-1.1,0.9-2.3,1.6-3.4,2.5c-0.5,0.4-0.9,1.2-1.5,0.4c-0.2-0.3,0.2-1.2,0.6-1.5
		c0.7-0.8,1.6-1.4,2.3-2C138.6,78.5,138.1,78,137.3,77.2z M174.8,111.7c-1.9-1-4.1-0.8-6.4-0.4c-0.9,0.2-1.2,0.7-1.2,1.5
		c-0.1,1.8-0.3,3.6-0.3,5.4c0,4.5-0.2,9,0.7,13.5c0.2,1.1,0.1,2.4,0,3.5c0,0.3-0.6,0.6-0.9,1c-0.3-0.3-0.6-0.6-0.7-1
		c-0.1-0.3,0-0.6-0.1-0.9c-0.2-2.2-0.4-4.4-0.6-6.6c-0.2-2.9-0.4-5.9-0.3-8.9c0-2.2,0.3-4.3,0.5-6.5c0.1-0.7,0.1-1.4,0.1-2.2
		c0-2.8-0.1-5.6-0.1-8.4c0-1.1-0.1-2.3,0-3.4c0.2-3.1,2.3-5.4,3.7-8c1.2-2.2,1.8-4.5,1.1-6.9c-0.9-2.8-2-5.5-3-8.2
		c-0.4-1.3-1.2-1.6-2.4-1.2c2.7,8.5,2.9,9.9,1.7,11.2c-1.2-1.9-0.6-4-1.3-5.9c-0.6-1.9-1.3-3.8-2-5.7c-0.9,0.1-1.6,0.2-2.4,0.3
		c0.8,2.7,1.6,5.2,2.3,7.9c0.3,1.2,0.5,2.4,0.5,3.6c0,0.4-0.5,0.9-0.7,1.3c-0.2-0.4-0.5-0.8-0.6-1.3c-0.1-0.6-0.1-1.3-0.2-1.9
		c-0.5-2-1.1-4.1-1.7-6.1c-0.4-1.4-0.8-2.7-1.4-4.1c-0.1-0.3-0.7-0.7-1-0.6c-0.3,0.1-0.6,0.6-0.7,1c-0.1,0.3,0,0.7,0.2,1
		c0.2,0.7,0.5,1.3,0.7,2c0.2,0.8,0.1,2,0.5,2.2c1.7,0.9,1.5,2.4,1.4,3.8c-0.3,2.7-0.7,5.5-1.1,8.2c0,0.3-0.5,0.4-0.8,0.6
		c-0.2-0.4-0.7-0.8-0.7-1.1c0.2-1.8,0.6-3.5,0.9-5.3c0.3-1.6,0.6-3.2,0-5.1c-0.4,0.6-0.7,1-0.8,1.4c-0.6,1.6-1,3.2-1.7,4.7
		c-1.7,3.6-1.4,7.3-1.1,11.1c0.2,2.6,0.3,5.2,0.3,7.8c0,1.3-0.3,2.6-0.1,3.9c0.2,2.4,0.3,4.7-0.6,7c-0.5,1.3-0.5,2.7-0.6,4.1
		c-0.1,1.1-0.1,2.2-0.2,3.3c-0.3,3.3-0.7,6.6-0.9,9.9c-0.2,3.8-0.2,7.7-0.1,11.5c0.1,2.7,0.3,5.4,0.7,8.1c0.1,1.1,1,2,2.2,2.1
		c2.5,0.3,4.8-0.1,6.6-2.1c3.5-4.3,6.1-9,7-14.6c0.7-4.2,1.1-8.3,2-12.5C172.1,121,173.5,116.5,174.8,111.7z M99.7,49.1
		c-0.3,0.8-0.6,1.5-1,2.5c1-0.1,1.6-0.2,2.3-0.2c1,0,2.1-0.2,3,0c1.1,0.2,1.7-0.1,2.2-1c0.5-0.8,0.3-1.4-0.3-2.2
		c-1-1.2-2-2.5-2.7-3.9c-1.6-3.2-1.3-3.8,1.3-6.4c1.5-1.5,2.8-3.3,2.5-5.7c-0.1-1.1-0.3-2.2-0.5-3.3c-0.3-1.7-0.6-3.4-1-5.4
		c-0.9,0.6-1.5,1.1-2.1,1.4c-3.5,1.8-4.3,1.9-6.9-0.7c-1.2-1.2-2.4-2.5-3.9-3.4c-2.7-1.6-5.5-3-8.4-4.4c-1.3-0.6-2-1.5-2.3-2.8
		c-0.4-2-1.9-3.2-3.5-4.3c-0.3-0.2-0.9,0-1.3,0c0.1,0.4,0.1,1,0.4,1.2c1.5,1.3,2.4,2.9,2.8,4.8c0.2,1.2,1.1,2,2.2,2.6
		c3.5,1.9,7,3.7,10.4,5.8c1.3,0.8,2.2,2.1,3.3,3.1c-2.1,1.5-4.1,2.8-7.4,2.4c-1.9-0.2-3,0.7-3.7,2.3c-0.8,2.2-2.3,3.7-4.4,4.8
		c-0.9,0.5-1.8,1-2.6,1.6c-0.6,0.5-1.2,1.1-1.5,1.8c-0.7,1.6-1.8,2.1-3.3,1.1c-0.8-0.5-1.6-1.1-2.4-1.6c-1-0.7-2.2-0.7-3.2-0.1
		c-2.1,1.3-2.8,5.8-1.3,7.8c1,1.4,4.2,2.1,5.9,1.2c0.5-0.3,0.7-1,1-1.5c-0.6,0-1.2-0.2-1.7,0c-0.9,0.4-1.5,0.2-2.1-0.6
		c-0.4-0.6-0.9-1-1.4-1.5c-0.2,0-0.3-0.1-0.5-0.1c0.5-0.8,1.1-1.7,1.6-2.5c0.2-0.3,0.6-0.6,0.9-0.8c0.2-0.1,0.5,0,0.7,0.2
		c0.1,0.2,0.2,0.5,0.1,0.7c-0.1,0.3-0.4,0.5-0.5,0.8c-0.1,0.6-0.2,1.2,0.1,1.7c0.1,0.2,0.9,0.3,1.3,0.2c1-0.3,1.8-0.1,2.3,0.7
		c0.4,0.7,0.9,1.9,0.6,2.5c-0.5,1.1-0.2,1.7,0.3,2.5c2.8,3.9,5.7,7.6,10.1,9.8c4.1,2.1,8.4,3.5,13.1,2.8c2.9-0.4,4.8-2.9,4.2-5.3
		c-1.4,0-2.8,0.1-4.1,0c-0.8-0.1-1.5-0.5-2.3-0.8c-0.2-0.1-0.4-0.4-0.6-0.6c0.2-0.1,0.5-0.4,0.7-0.4c0.5-0.1,1.1,0,1.6-0.2
		c2-0.6,4-1.3,6-2c0.3-0.1,0.5-0.5,0.7-0.8c-1.2-1.2-2.4-0.9-3.7-0.6c-0.6,0.1-1.2,0.1-1.8,0c-0.9-0.2-1.3-0.9-1.1-1.7
		C98.1,49.8,98.4,48.9,99.7,49.1z M85.2,62.5c-0.2-0.2-0.5-0.4-0.7-0.6c-0.2,0.4-0.3,0.9-0.5,1.3c-1.4,1.7-2.8,3.4-4.4,5.1
		c-0.3,0.3-1,0.1-1.5,0.2c0.1-0.5,0.1-1,0.3-1.4c1.6-2,3.2-3.9,4.9-6c-5-2.3-7.5-7-10.5-11c-1.1,0.1-2.3,0.3-3.3,0.1
		c-2.3-0.5-4.1,0.9-5.7,1.9c-3.2,2-5.9,4.6-8.9,7.1c0.5,0.6,1.1,1.4,1.8,2c3.1,3,6.2,5.9,9.3,8.8c1.5,1.4,3,2.6,4.5,4
		c2.2,1.9,4.4,3.7,6.6,5.7c1.8,1.7,3.4,3.6,5.3,5.5c1.1-1.4,1.9-2.4,2.6-3.3c-1.3-2-2.6-3.8-3.4-5.7c-0.5-1.1-0.4-2.6,0-3.8
		c1-2.9,2.2-5.7,3.4-8.5C85.1,63.4,85.1,62.9,85.2,62.5z M109.2,180.2c0.2-0.6,0.3-0.9,0.3-1.2c0.7-4,1.1-8,2-12
		c1.4-6.4,1-12.8,0.9-19.3c-0.1-3.5-0.5-7.1-0.6-10.6c-0.1-1.9,0.2-3.8,0.2-5.7c0-0.9-0.2-1.9-0.4-2.8c-0.2,0-0.5,0-0.7,0
		c-0.1,0.8-0.2,1.5-0.3,2.3c-0.5,4.4-0.9,8.8-1.3,13.2c-0.2,2.1-0.2,4.3-0.6,6.4c-0.7,3.3-1.6,6.6-2.4,9.9c-0.8,3.1-1.5,6.1-3.6,8.6
		c-0.6,0.8-1.2,1.6-1.7,2.4c-0.5,0.7-0.4,1.2,0.4,1.8c1.3,1,2.4,2.2,3.7,3.2C106.3,177.7,107.7,178.9,109.2,180.2z M87.3,120.3
		c1.2-1.3,2-2.7,1.8-4.5c-0.1-0.4-0.1-1,0-1.4c0.9-2.2,0.3-4.3-0.5-6.3c-1.2-3.1-2-6.1-1.7-9.5c0.3-2.7-0.2-5.5-2.2-7.7
		c-1-1.1-2.1-2.2-3.1-3.3c-2.1-2.2-4.2-4.5-6.4-6.6c-1.8-1.7-3.7-3.3-5.6-5c-2.2-1.9-4.4-3.9-6.6-5.8c-0.8-0.8-1.6-1.6-2.5-2.4
		c-1-0.9-2.1-1.8-3-2.7c-1.6-1.7-3.2-3.5-4.8-5.3c-0.8,0.4-1.7,0.8-2.9,1.4c1.8,2,3.4,3.9,5.2,5.6c5.1,4.8,10.4,9.6,15.6,14.3
		c2.3,2,4.5,4.2,6.9,6c2.8,2.1,4.4,4.9,5.4,8.1c1.1,3.6,2.1,7.2,2.9,10.9c0.7,3.4,0.9,6.8,1.3,10.2C87.2,117.7,87.2,119,87.3,120.3z
		 M105.4,65.1c-0.2,0.1-0.3,0.2-0.5,0.2c0.4,1.4,0.6,2.8,1.2,4.1c1.9,3.5,2.8,7,1.4,10.9c-0.4,1.2-0.1,2.7-0.1,3.8
		c1.5-0.4,2.9-0.9,4.3-1c1.7-0.2,3.4,0,5.2,0c-0.1-0.8,0-1.4-0.2-1.9c-1.1-3-2.2-6-3.5-8.9C111.9,68.6,108.6,67,105.4,65.1z
		 M175.3,117c1.2-1,2-1.9,2.9-2.4c2-1,3.4-2.4,4.3-4.5c0.2-0.6,0.6-1.1,1-1.6c0.7-1,0.8-2.6,0-3.5c-2.8-3.1-5.7-6.2-9.8-7.8
		c-2.1-0.8-2-0.9-3.2,0.7c3.4,2.6,6.7,5.2,10.1,7.8c0.3,0.2,0.4,0.7,0.6,1.1c-0.4,0.1-1,0.4-1.3,0.2c-0.6-0.2-1.2-0.7-1.7-1.1
		c-1.2-1-2.4-2.1-3.6-3.1c-0.4,0.6-0.8,1.1-1.1,1.4c1.1,1.7,2.2,3.2,3.2,4.8c0.7,1.1,0.6,2.3,0.1,3.5
		C176.2,113.9,175.8,115.3,175.3,117z M153.2,100.5c-0.8,0.4-1.3,0.5-1.8,0.9c-2.3,1.6-4.7,1.3-7.1,0.2c-0.6-0.3-1.3-0.3-1.3,0.3
		c0,1.8-0.9,3.5,0.2,5.3c0.7,1.1,0.9,2.5,1.3,3.8c0.2,0.6,0.5,1.3,0.8,2.2c2.4-2.7,4.4-5.3,6.6-7.5
		C153.7,104.2,153.5,102.6,153.2,100.5z M153.9,70c0.1-1.6,0.3-3.2,0.3-4.7c0-5.3-0.1-10.6-0.3-15.8c0-0.6-0.3-1.3-0.7-1.7
		c-0.3-0.3-0.9-0.3-1.4-0.4c-0.1,0.4-0.3,0.8-0.3,1.2c0.1,0.6,0.4,1.2,0.4,1.8c-0.1,6.5-0.2,13-0.2,19.5c0,0.4,0.1,0.7,0.1,1.2
		C152.7,70.6,153.2,70.3,153.9,70z M175.1,109.6c-0.2-0.4-0.4-0.9-0.8-1.4c-1.3-1.7-2.7-3.4-4-5.1c-0.6-0.8-1.2-1.7-0.6-2.8
		c0.3-0.7-0.6-1.7-1.6-1.9c-1.1-0.2-1.2,0.5-1.2,1.3c0,0.7,0.2,1.3,0.2,2c0,1.4,0.1,2.8,0.1,4.1c0,1.3,0,2.7,0,3.8
		C170,109.6,172.4,109.6,175.1,109.6z M27.1,109.3c0-0.4,0.1-0.7,0-1c-0.4-2.3-1.2-4.6-1.2-6.9c0-2-0.8-3.3-1.9-4.6
		c-1.2-1.6-2.5-3.1-3.9-4.8C19.6,95.9,23.2,104.9,27.1,109.3z M169.3,93.9c6.2,1.8,11.3,5.1,15.3,10.3c0.9-1.1,0.8-2.5-0.1-3.3
		c-1.1-1.2-2.2-2.4-3.4-3.6c-0.8-0.8-1.7-1.6-2.6-2.1c-2.2-1-4.5-1.9-6.8-2.7C170,91.8,169.9,92,169.3,93.9z M131.9,74.9
		c0.1-0.1,0.3-0.2,0.4-0.3c-1-2.6-1.4-5.4-3.9-7.2c-0.4-0.3-1.3-0.6-1.5-0.4c-0.4,0.4-0.9,1.3-0.7,1.7c1,2.9,2,5.7,3.2,8.4
		c0.3,0.7,1.3,1.1,2.1,1.6c0.4-0.7,0.8-1.3,1.3-2.2c-2.4-0.3-3.1-1.7-3.4-3.6c0-0.3,0.1-0.6,0.2-0.9c0.3,0.1,0.7,0.1,0.9,0.3
		c0.3,0.3,0.4,0.8,0.6,1.2C131.3,74.1,131.6,74.5,131.9,74.9z M146.7,97.1c1.6,0,3.1,0,4.6,0c0.3,0,0.8,0.2,0.9,0.4
		c0.1,0.2,0,0.8-0.3,0.9c-0.4,0.3-1,0.5-1.5,0.5c-1.6,0.1-3.2,0-4.6-0.9c-0.9-0.6-1.3,0.3-1.7,0.8c-0.1,0.2,0.3,1,0.7,1.2
		c0.8,0.4,1.6,0.5,2.4,0.7c1.2,0.3,5.2-1.4,5.8-2.5c0.1-0.1,0.1-0.3,0.1-0.4c-0.1-2.1-0.2-4.3-0.3-6.5
		C150.8,93.3,148.9,95.1,146.7,97.1z M171.7,89.7c0.1,0-0.2,0.1-0.4,0.3c0.2,0.3,0.4,0.6,0.7,0.7c1.5,0.6,3.1,1.1,4.6,1.7
		c2.7,1,5,2.5,6.6,5c0.4,0.6,1.1,1.1,1.7,1.5c0.2,0.1,0.6,0.2,0.7,0.1c0.1-0.1,0.2-0.6,0.1-0.7c-0.4-0.6-0.8-1.2-1.4-1.7
		c-1-1-2.1-2-3.1-3C178.7,91,175.6,89.8,171.7,89.7z M86.6,90.2c1.6-1.7,2.1-3.7,2.3-5.7c0-0.4-0.6-0.9-1-1.2c-0.2-0.1-0.8,0-1,0.2
		c-1.1,1.2-2.2,2.5-3.2,3.7C84.8,88.3,85.7,89.2,86.6,90.2z M181.2,91.6c0.6-1.5,0.6-3,0-4.4c-0.2-0.4-0.7-0.8-1.1-0.8
		c-0.4,0-1,0.3-1.2,0.6c-1,1.3-0.8,2.3,0.6,3.2C180.1,90.7,180.6,91.1,181.2,91.6z M120.2,100.5c-1.1,1.6-2,2.9-2.9,4.3
		c1.4,0.4,2.6,0.7,3.8,1C120.8,104.1,120.5,102.5,120.2,100.5z M141,74.3c0.9,0.8,1.4,1.3,1.7,1.5c1.1-1.1,2.3-2.1,3.5-3.3
		C144.5,73.2,142.8,73.7,141,74.3z M162.8,72.2c-0.2-0.7-0.2-1-0.4-1.3c-0.3-0.3-0.8-0.8-1-0.7c-0.7,0.4-1.3,0.9-2,1.4
		c0.2,0.2,0.5,0.7,0.7,0.7C161,72.4,161.8,72.3,162.8,72.2z M154.3,74c0.2-0.1,0.3-0.2,0.5-0.2c-0.2-0.7-0.1-1.8-0.6-2.2
		c-0.7-0.5-1.7,0.2-1.8,0.9C152.1,74.1,153.7,73.5,154.3,74z M103.6,54.7c-1.8,0.7-3.4,1.4-5,2.1C100.3,57.5,103.1,56.4,103.6,54.7z
		 M150.3,74.2c0.4-0.8,1.2-1.6,0.2-2.3c-0.3-0.2-1.4,0.2-1.6,0.6C148.4,73.5,149.4,73.8,150.3,74.2z M141.2,78
		c0.1-0.3,0.1-0.4,0.1-0.5c0.1-0.7-0.1-1.3-1-1.2c-0.5,0.1-1,0.3-1.5,0.5c0.4,0.3,0.9,0.7,1.3,1C140.5,77.9,140.8,77.9,141.2,78z
		 M172.3,103.2c1.2-1.5,1.2-1.5-1.1-2.6C170.6,101.9,171.8,102.3,172.3,103.2z M105.6,41.9c-0.7,0.3-1.3,0.5-1.9,0.8
		c0.4,0.8,0.7,1.5,1.1,2.2c0.1,0,0.3,0,0.4,0C105.4,44,105.5,43.1,105.6,41.9z M170,95.5c-0.8,0.1-1.5,0.3-2.3,0.4
		c0.1,0.4,0.1,1,0.4,1.1C169.1,97.4,169.6,96.6,170,95.5z M105.6,41.1c-0.1-0.7-0.1-1.2-0.2-1.7c-1.6,0.8-1.7,0.9-1.7,2.2
		C104.3,41.3,104.8,41.2,105.6,41.1z M164.2,70.5c-0.2,1.9,0,2.1,2,1.6C165.4,71.5,164.8,71,164.2,70.5z"/>
	<path class="st0" d="M92.5,43.4c-1.2,0.2-2.4,0.4-3.5,0.6c-0.2,0-0.6-0.1-0.6-0.2c-0.1-0.2,0-0.6,0.2-0.7c0.5-0.3,1-0.5,1.6-0.6
		c2.4-0.4,4.9-0.7,7.3-1.1c0.2,0,0.4-0.1,0.5,0c0.5,0.2,1,0.4,1.5,0.6c-0.4,0.3-0.9,0.6-1.3,0.7c-1.8,0.4-3.7,0.7-5.5,1.1
		C92.6,43.7,92.5,43.6,92.5,43.4z"/>
	<path class="st0" d="M88.4,45c2.8,2.2,5.2,1.1,7.8-0.7c0.2,1.8-1.1,2.2-1.9,2.7c-2,1.4-3.4,1.4-5.4-0.2c-0.4-0.3-0.5-0.9-0.8-1.3
		C88.2,45.3,88.3,45.1,88.4,45z"/>
</g>
</svg>
