<?xml version="1.0" encoding="utf-8"?>
<!-- Generator: Adobe Illustrator 19.2.0, SVG Export Plug-In . SVG Version: 6.00 Build 0)  -->
<svg version="1.1" id="Layer_1" xmlns="http://www.w3.org/2000/svg" xmlns:xlink="http://www.w3.org/1999/xlink" x="0px" y="0px"
	 viewBox="0 0 200 117.5" style="enable-background:new 0 0 200 117.5;" xml:space="preserve">
<style type="text/css">
	.st0{fill:#E91E63;}
</style>
<g id="mother-child-sleeping">
	<path class="st0" d="M0,21.7c1.3,0.2,2.6,0.4,3.9,0.4c0.4,0,1-0.5,1.3-1c2.2-4.4,5.6-7.7,8.9-11.3c2.7-2.8,6.2-4.2,9.3-6.4
		c2.6-1.9,5.5-2.1,8.4-2.8c4-0.9,7.9-0.7,11.9-0.6c2,0,3.9,0.4,5.7,1.4c2.7,1.6,5.3,3.5,8.1,4.9c4.8,2.5,8.3,6.5,12.5,9.7
		c2.1,1.7,4.4,3.3,6.6,4.8c2.7,1.8,4.9,4.1,6.5,6.9c1.5,2.4,2.9,4.8,4.3,7.1c1.5-2,2.9-4,4.5-5.9c0.7-0.9,1.7-1.7,2.7-2.2
		c2.2-1.1,3.3-3.1,4.3-5.2c1.6-3.4,4-6,7.3-7.8c3.1-1.8,6.6-2.4,10-3.2c1.4-0.3,2.8-0.9,4.3-1.2c1.4-0.3,2.6,0,3.8,0.9
		c0.6,0.4,1.7,0.2,2.6,0.3c0.8,0,1.7-0.2,2.5-0.1c1.1,0.1,1.9,0.7,2.3,1.7c0.4,1.3,1.2,2.1,2.6,2.6c1.6,0.5,2.7,1.5,3.3,3.1
		c0.1,0.3,0.3,0.6,0.6,0.8c2.9,1.6,4.5,4.4,6.5,6.9c2.3,2.9,4.9,5.6,7.3,8.4c1.2,1.3,2.2,2.8,3.5,3.9c1.6,1.3,3.3,2.5,5.2,3.3
		c1.6,0.7,3.5,1,5.3,1.1c1.4,0.1,3-0.2,4.4-0.6c4.9-1.6,9.8-3.4,14.7-5c4-1.3,8-2.3,12-3.4c1-0.3,2-0.7,3-1c0,1,0,2,0,3
		c-0.4,0.1-0.7,0.2-1.1,0.3c-5.4,1.5-10.8,3-16.2,4.5c-2.4,0.7-4.9,1.5-7.3,2.3c-1.5,0.5-3.1,0.8-4.4,1.9c-0.3,0.2-0.7,0.3-1,0.5
		c-4.2,2.2-8,4.8-8.5,10.1c-0.1,1.4-0.3,2.7-0.4,3.9c2-0.9,4-1.7,5.8-2.6c3.1-1.5,6.3-2.2,9.7-2c2.2,0.1,4.5,0.3,6.7,0.5
		c3.4,0.3,6.9,0.1,10.1,1.5c2.2,0.9,4.3,2,6.4,3c0,0.8,0,1.7,0,2.5c-3.2-1.8-6.4-3.8-10-4.4c-3.1-0.5-6.2-0.8-9.3-1.1
		c-5.4-0.5-10.7,0.2-15.6,2.8c-1.8,0.9-3.7,1.7-4.2,4.1c-0.1,0.8-0.4,1.6-0.7,2.4c-0.3,0.9-0.8,1.9-0.8,2.8
		c-0.2,2.1-0.1,4.2-0.7,6.4c-1.2,4.5,0.4,8.9,1.9,13c1.1,3.1,2.7,6,4.3,8.9c1.7,3,3.5,5.9,5.9,8.6c3.5,3.9,6.4,8.3,9.6,12.5
		c-0.9,0-1.8,0-2.8,0c-0.3-0.5-0.5-1-0.9-1.5c-1.7-2.2-3.4-4.4-5.1-6.6c-1.1-1.4-2.3-2.7-3.4-3.9c-3.3,2.2-6.5,4.4-9.7,6.5
		c-1.1-0.8-1.1-1.2,0-2.1c1.1-1,2.4-1.8,3.6-2.7c0.9-0.6,1.8-1,2.6-1.6c2.1-1.5,2.1-1.5,0.9-3.8c-0.1-0.2-0.2-0.4-0.3-0.6
		c-1.1-2-2.3-4-3.6-6.2c-2.1,3.2-6.2,2.7-8.6,5.2c-0.3-0.5-0.5-0.9-0.8-1.4c1.4-0.9,2.6-1.9,4.1-2.4c1.8-0.7,3.3-1.7,4.4-3.1
		c-1.1-2.5-2.3-5.1-3.3-7.4c-2.1,0.7-4.1,1.6-6.1,2c-1.9,0.4-4,0.3-5.9,0.4c-2.8,0.2-5.6,0.5-8.4,0.5c-1.4,0-2.9-0.2-4.3-0.5
		c-2.2-0.4-4.5-0.7-6.7-1.2c-2.9-0.6-5.6-2-8.6-2c-1.5,0-2.9-0.4-4.3-0.8c-0.9-0.2-1.3,0.1-1.8,0.7c-2,2.6-4.1,5.1-7.5,6
		c-0.4,0.1-0.8,0.3-1.3,0.6c0.3,0.3,0.4,0.4,0.6,0.5c4.7,3.1,9.3,6.2,14,9.2c3,1.9,6.5,2.9,9,5.8c2.1,2.5,4.6,4.6,6.9,6.8
		c1.2,1.2,2.5,2.3,3.8,3.4c-1.2,0-2.5,0-3.8,0c-1.7-1.7-3.4-3.3-5.1-5c-2.2-2.1-4.3-4.3-6.7-6.1c-1.9-1.4-4.4-2.2-6.4-3.5
		c-5.3-3.5-10.9-6.7-15.7-11c-2.5-2.2-5.3-4-8-6.1c-0.3-0.2-0.5-0.4-0.8-0.6c-3.6-1.8-7.4-3-11.6-2.9c-3.3,0.1-6.6,0-9.7,1.1
		c-1.5,0.5-2.9,1.2-4.4,1.7c-3.2,1.2-6.4,2.3-9.5,3.6c-0.6,0.2-1.3,1-1.4,1.6c-0.1,3.1-0.3,6.1,1.1,9.2c1.8,3.9,3.2,8.1,4.9,12.1
		c0.8,2,1.9,3.8,2.9,5.7c-0.9,0-1.8,0-2.8,0c-1.1-3.2-3-6-5.4-8.3c-3.1-3-6.5-5.5-9.8-8.2c-0.5-0.4-1-1-1.6-1.3
		c-3.4-2.1-6.8-4.3-10.2-6.2c-3-1.7-5.8-3.6-8.5-5.8c-2.5-2.1-5.2-3.8-7.8-5.6c-1.8-1.3-4-2-5.2-4.1c-0.1-0.3-0.9-0.5-1.1-0.3
		c-1.4,0.7-2.8,1.4-4,2.3c-1.8,1.5-3.8,2.8-5.9,3.7c0-0.9,0-1.8,0-2.8c1-0.8,2-1.7,3.1-2.5c1.6-1.2,3.4-2.2,5-3.4
		c0.7-0.5,1.3-1.5,1.4-2.3c0.1-1.1-0.2-2.3-0.4-3.4c-0.7-3.5-1.5-7-2.3-10.5C6,55,5.5,51.4,4.5,47.9c-0.9-3-1.5-6-1.8-9.1
		c-0.2-2.6-0.2-5.3-0.3-7.9c0-1.4,0-2.7,0-4.2C1.6,26.8,0.8,26.9,0,27C0,25.2,0,23.5,0,21.7z M140.9,39.5c0.1-0.4,0.2-0.8,0.3-1.2
		c0.1-0.4,0.2-0.9,0.4-1.3c0.9-1.5,0.8-2.5-0.8-3.3c-1.6-0.7-3.3-1.1-5-1.6c-0.3-0.1-0.7,0-1,0c0.1,0.4,0,0.9,0.2,1.3
		c0.2,0.4,0.7,0.8,0.9,1.2c0.1,0.3,0,0.7,0,1c-0.3,0-0.8,0.1-1-0.1c-0.6-0.7-1.2-1.5-1.6-2.3c-0.5-1.3,0.2-2.2,1.7-2.3
		c2.5-0.1,4.8,1,6.9,2c2.1,1.1,2.5,3.2,1,5.1c-0.7,1-0.6,1.5,0.5,2.1c0.7,0.5,1.4,1.1,2.1,1.6c0.5,0.3,1,0.4,1.6,0.5
		c0.2,0,0.7-0.4,0.7-0.7c0.2-2.8-0.4-5.4-2.2-7.5c-1.7-2-4.1-3-6.3-4.4c-1.5-0.9-3.1-1.5-4.9-1.3c-0.8,0.1-1.6,0.5-2.4,0.5
		c-1.3,0-1.7,0.8-1.6,1.7c0.2,1.2,0.7,2.4,1.3,3.5c0.6,1.2,1.5,2.2,2.5,3.4c-1.1-0.1-2-0.4-2.7-0.2c-3.8,0.9-7.5,1.9-11.2,2.8
		c-2.4,0.6-4.9,0.6-7.4,1.5c-5.2,1.8-9.3,4.7-12.1,9.6c-0.7,1.2-2,2.1-3.2,3.1c-0.6,0.5-1.2,0.4-1.7-0.3c-0.9-1.3-1.9-2.5-2.9-3.9
		c-1,1-1,1.9-0.4,3.1c0.5,1,1.2,2.1,1.3,3.2c0.4,2.9,0.6,5.8,0.8,8.8c0.1,1.6,0.4,2.9,1.5,4.2c2.6,3.3,6,5.2,9.9,6.6
		c1.9,0.7,3.9,1.3,4.9,3.3c0.1,0.1,0.7,0.1,1,0c0.2-0.1,0.3-0.6,0.5-0.8c1.2-1.4,2.4-2.8,3.7-4.1c0.2-0.2,0.9,0,1.4-0.1
		c-0.1,0.4-0.2,0.9-0.4,1.3c0,0.1-0.2,0.2-0.4,0.3c-1.8,1.4-2.5,3.4-3.5,5.5c1.2,0.4,2.2,0.8,3.2,1.1c1.3,0.3,2.3-0.1,3.3-1.2
		c1.7-1.8,2.6-3.8,2.9-6.2c0.1-0.9,0.5-1.5,1.7-1.2c0,0.3-0.1,0.5-0.1,0.7c0,0.2-0.2,0.4-0.2,0.6c0.1,2.9-1,5.3-3.2,7.3
		c-0.5,0.5-0.5,0.9,0.2,1.2c1,0.3,2.1,0.7,3.1,1c4.6,1.8,9.5,2.1,14.3,2.3c1.9,0.1,3.9-0.5,5.8-0.4c3.4,0.1,6.6-0.5,9.8-1.7
		c2.5-0.9,2.9-1.5,2.4-4.1c-0.5-2.9-0.4-5.7,0.7-8.4c0.3-0.8,0.2-1.9-0.1-2.7c-0.8-2.5-1.8-4.9-2.5-7.5c-1.3-4.6-2.4-9.2-3.7-13.9
		c-0.1-0.5-0.5-1.1-0.9-1.4c-1.2-1-2.5-1.9-3.8-2.7c-1.6-0.9-3.3-1.7-4.9-2.5c-0.9-0.5-1.8-0.9-2.7-1.4c-0.3-0.2-0.6-0.4-0.8-0.7
		c0.4-0.2,0.7-0.6,1-0.6C139.5,39,140.2,39.3,140.9,39.5z M63.3,13.5c-1.8-1.7-3.2-3.8-5.6-4.5c-0.6-0.2-1.3-0.5-1.7-0.9
		c-2-2.1-4.4-2.6-7.3-2.6c-4.1,0-6.9,1.4-8.7,5.1c-0.7,1.3-2,2.4-3.2,3.4c-1.8,1.5-3.7,2.8-5.4,4.3c-1.3,1.1-1.9,2.6-1.9,4.4
		c0,1.2-0.2,2.4-0.3,3.6c-0.2,2.5-0.8,5-0.4,7.4c0.6,3.9,2.4,7.5,5,10.6c1.2,1.5,2.6,2.8,3.6,4.4c4.3,7.1,10.5,12.1,17.8,15.8
		c1.9,1,4.2,1.2,6.2,2c1.5,0.6,2.9,0.6,4.5,0.5c1.3-0.1,1.3-0.7,1.4-1.8c0.1-2.6,0.5-5.3,0.7-7.9c0-0.3-0.1-0.7-0.1-1
		c0-0.6-0.2-1.3,0-1.8c0.7-1.7,1.6-3.3,2.5-4.9c0.7-1.3,1.5-2.5,2.4-3.6c0.3-0.4,1-0.8,1.5-0.8c1.3,0,1.7-0.8,2.1-1.8
		c0.1-0.3,0.3-0.7,0.5-1c1-2,2.9-3,4.8-4c0.4-0.2,1.1,0,1.7,0c-0.2,0.5-0.3,1-0.5,1.5c-0.6,1.1-1.3,2.2-2,3.3
		c0.1,0.1,0.2,0.2,0.3,0.3c1.7-1.6,3.9-2,6.1-2.3c0.3,0,0.7-0.5,0.7-0.7c-0.3-1-0.5-2-1-2.9c-1.9-3.1-4-6.2-6-9.3
		c-2.1-3.2-4.7-5.8-8-7.6c-1.3-0.7-2.6-1.5-3.7-2.4c-1.5-1.2-2.8-2.5-4-3.6c-0.8,0.4-1.3,0.9-2,1c-1,0.2-1.6,0.7-1.8,1.5
		c-0.6,1.8-1.1,3.7-1.6,5.5c-0.1,0.4-0.5,0.7-0.8,1c-0.3-0.3-0.7-0.6-0.9-1c-0.1-0.3-0.1-0.7,0-1c0.5-1.8,0.9-3.6,1.6-5.3
		c0.5-1.3,1.4-2.5,3.1-2.5C62.7,13.9,62.9,13.7,63.3,13.5z M86.4,81.2c0.5-1.7,0.2-2.2-1.4-2.8c-0.8-0.3-1.5-0.8-2.2-1.3
		c-0.9-0.8-1.6-1.8-2.6-2.5c-1.7-1.3-3.5-2.4-5.4-3.5c-1-0.6-2.3-0.7-3.2-1.4c-1.8-1.3-3.8-1.3-5.7-0.7c-3.5,1.1-6.5,3-9.4,5.2
		c-2.2,1.7-3.8,3.8-4.4,6.4c-0.8,3.3-2.4,6.1-3.8,9c-0.4,0.8-1.3,1.7-0.2,2.4c1,0.6,1.6-0.5,2-1.2c1.4-2.3,3.5-3.5,6-4.4
		c0.9-0.3,1.8-0.8,2.7-1.1c5-2.1,9.8-4.8,15.5-4.9c3.8-0.1,7.5-0.6,11.2,0.7C85.7,81.3,86,81.2,86.4,81.2z M149.9,34.9
		c-2.6-2.4-3.6-6.2-7-8c-0.2-0.1-0.3-0.4-0.5-0.6c-0.6-1-1.3-1.9-1.9-2.9c-1.5-2.5-3.8-3.2-6.5-3.2c-3.4-0.1-6.6,1-9.6,2.1
		c-2.4,0.9-4.5,2.7-6.7,4.2c-0.6,0.4-0.9,1-1.5,1.6c2.1,1.3,0.8,2.8,0.4,4.3c0.4-0.2,0.7-0.3,0.9-0.4c2.9-1.2,5.6-3,8.8-3.6
		c1.2-0.2,1.9-1.2,2-2.4c0-0.4,0-0.8,0.1-1.1c0.1-0.2,0.3-0.4,0.5-0.6c0.2,0.2,0.5,0.4,0.5,0.6c0.1,0.6,0.1,1.2,0.2,1.8
		c2.4,0.6,4.3,0,5.9-1.9c0.2-0.2,0.6-0.2,0.9-0.3c0.1,0.1,0.2,0.2,0.3,0.4c-0.5,0.7-1,1.4-1.3,1.8c1.4,0.6,3,1.1,4.4,1.9
		c2,1.1,4.3,2,5.8,3.6C146.9,33.6,148.4,34.2,149.9,34.9z M121.6,19c-0.1,0.1-0.2,0.3-0.3,0.4c-0.5-0.3-1-0.6-1.5-0.8
		c-0.7-0.2-1.7-0.8-2.2-0.5c-1.5,0.7-2.9,1.6-4.1,2.7c-2.1,1.8-3.9,3.8-5.9,5.8c-0.4,0.4-0.8,0.8-1.1,1.3c0.2-0.2,0.5-0.3,0.7-0.5
		c0.3,0.6,0.6,1.1,0.8,1.7c0.6,2.3-0.8,4-2.4,5.9c0.5-0.2,0.8-0.2,1-0.3c0.9-0.7,1.8-1.5,2.7-2.2c2.2-1.9,4.4-3.7,6.4-5.7
		c1.9-1.9,3.9-3.8,6.4-4.9c2.3-1,4.7-1.6,7.1-2.3c1.1-0.3,2.3-0.4,3.5-0.5c1-0.1,2.1,0,3.1,0c-0.3-2-2-2.9-4.3-2.4
		c-0.1-0.3-0.1-0.6-0.2-0.9c-3.1,0.2-6.1,0.3-9.1,0.6c-0.7,0.1-1.4,0.5-2.3,0.9c0.5,0.4,0.9,0.7,1.2,1
		C121.2,18.4,121.4,18.7,121.6,19z M112.4,18.5c-0.1,0.1-0.2,0.2-0.3,0.3c-0.3-0.2-0.6-0.3-0.8-0.5c-1.1-1-1.9-1.1-3.1-0.2
		c-3.5,2.5-5.6,6.2-7.9,9.7c-0.1,0.2,0.1,0.8,0.3,1c0.7,0.6,1.4,1,2.2,1.6c0.4-0.6,0.9-1.5,1.5-2.2c2.7-2.8,5.3-5.6,8.1-8.3
		c1.1-1,2.4-1.8,3.7-2.6c1.1-0.6,2.3-1.1,3.5-1.5c1.1-0.4,2.3-0.8,3.5-1c2.4-0.3,4.8-0.4,7.2-0.5c-0.3-1.8-0.7-2.1-2.5-1.9
		c-1.2,0.1-2.5,0.1-3.7,0.1c-1,0-2.2-0.2-3.1,0.2c-3.3,1.3-6.5,2.7-9.7,4.1C111.7,17.4,112,17.9,112.4,18.5z M51,92.7
		c-1.4,1.3-1.4,1.3-2,4.5c-0.6,3.6,0.6,6.5,3.6,8c0.3,0.2,1.1,0.2,1.2,0.1c0.2-0.4,0.3-1,0.1-1.4c-0.7-1.7-1.7-3.2-2.1-5
		C51.3,96.9,51.3,94.8,51,92.7z M116.5,13.2c-0.1-0.2-0.1-0.4-0.2-0.6c-1,0.2-2,0.4-3,0.6c-4,0.9-7.6,2.5-10.3,5.7
		c-1,1.1-1.7,2.4-2.4,3.7c-0.8,1.4-1.6,2.9-2.6,4.7c0.6-0.3,1.1-0.4,1.3-0.7c1.4-1.9,2.8-3.9,4.2-5.9c1.8-2.5,4.1-4.2,6.9-5.3
		C112.4,14.7,114.4,14,116.5,13.2z M70.9,51.4c0.1,0.1,0.3,0.2,0.4,0.4c3.7-3.3,7.6-6.4,9.4-11.5c-1.6,0.9-2.7,1.9-3.3,3.5
		c-0.5,1.5-1.1,2.8-3,2.7c-0.2,0-0.6,0.2-0.7,0.4C72.7,48.4,71.8,49.9,70.9,51.4z M99.3,29.8c-0.9,1.1-1.7,2.2-2.5,3.3
		c-0.2,0.2-0.3,0.7-0.2,0.9c0.5,0.8,2.9,1.1,3.6,0.3c0.5-0.5,1.1-1.3,1.2-2C101.4,31,100.9,29.9,99.3,29.8z M102.3,34.5
		c0.8,0.1,1.5,0.3,1.7,0.1c1-1.2,1.9-2.4,2.6-3.7c0.2-0.4,0.1-1.3-0.2-1.5c-0.6-0.4-1.2-0.1-1.6,0.6C104,31.4,103.2,32.7,102.3,34.5
		z M111.7,32c1.2,1.5,1.9,1.6,3,0.3c0.4-0.5,0.7-1,1-1.6c0.1-0.4,0-0.8,0-1.2c-0.5,0.1-1,0-1.4,0.2C113.5,30.5,112.7,31.2,111.7,32z
		 M98.5,28.8c-1.7-0.8-3.2,1.3-3.1,4.2C96.4,31.6,97.4,30.2,98.5,28.8z"/>
	<path class="st0" d="M200,105.7c-1.4,0.9-2.8,1.7-4.2,2.6c-0.9,0.6-1.6,1.5-2.5,2.2c-1.4,1.3-2.9,2.6-4.3,3.9c-1.1,1-2.1,2-3.1,3
		c-1,0-2,0-3,0c3.8-3.3,7.5-6.7,11.4-10c1.8-1.5,3.7-2.9,5.6-4.3C200,104.1,200,104.9,200,105.7z"/>
	<path class="st0" d="M150,67.1c0,1.8,0,3.5,0,5.3c0,1.6,0.2,3.2-0.2,4.6c-0.4,1.3-1.4,2.5-2.3,3.6c-0.8,1.1-1.8,2.1-2.6,3.2
		c-0.6,0.8-1.1,0.9-1.8,0c-1.3-1.6-1.5-3.6-1.6-5.6c0-0.3,0.3-0.6,0.5-1c0.2-0.4,0.6-0.7,0.7-1.2c0.2-1.8,1.3-3,2.4-4.3
		c1.1-1.2,2-2.6,3-3.9c0.4-0.5,0.9-0.7,1.4-1.1C149.7,66.9,149.9,67,150,67.1z M146.9,72.2c-0.1-0.1-0.2-0.1-0.3-0.2
		c-1,1.2-2.4,2.2-2.5,4c0,0.5-0.2,1-0.5,1.4c-1.6,1.6-0.4,3.2,0,4.9C144.7,78.8,145.8,75.5,146.9,72.2z M148.4,71.8
		c-0.9,2.8-1.8,5.6-2.7,8.5C148.8,78.1,149.3,75.2,148.4,71.8z"/>
	<path class="st0" d="M138.4,74.6c-1.5-1.1-1.5-2.8,0-3.7c0.9-0.6,0.8-1.3,0.4-1.9c-0.4-0.5-1.1-0.8-1.7-1.2c-0.1,0-0.3,0.5-0.6,0.6
		c-0.3,0.2-0.6,0.3-0.9,0.4c-0.1-0.3-0.4-0.7-0.3-1c0.3-0.9,1-1.5,2-1.3c2.4,0.3,3.6,2.6,2.6,4.9c-0.4,0.9-0.8,1.7-0.5,2.8
		c0.2,0.7-0.4,1.7-0.8,2.5c-0.5,0.8-1.1,1.4-1.8,2c-1.3,1.3-3.6,1.4-4.9,0.1c-1.1-1.1-2.2-2.2-3.2-3.4c-2-2.4-4.3-3.5-7.4-2.8
		c-0.3,0.1-0.7-0.3-1-0.4c0.3-0.3,0.5-0.9,0.9-1c1-0.1,2.1-0.2,3.1,0c1.7,0.4,3.3,0.9,4.5,2.2c1.1,1.2,2.2,2.4,3.3,3.6
		c0.3,0.3,0.6,0.6,0.9,0.8c1.6,0.9,2.1,0.8,3.3-0.7c0.4-0.5,0.8-0.8,1.2-1.3C137.8,75.5,138,75.1,138.4,74.6z"/>
	<path class="st0" d="M121.3,62.8c-2.4-1-2.2-3-2.2-4.7c0-2.2,0.5-4.5,1-6.7c0.5-1.8,1.8-3.2,3.4-4.2c0.4-0.2,1.1,0.1,1.7,0.2
		c-0.1,0.4-0.2,0.9-0.4,1.3c-0.7,1-1.7,1.9-2.2,3c-0.6,1.1-0.9,2.4-1,3.6c-0.2,2.1,0,4.2,0,6.2C121.5,62,121.4,62.4,121.3,62.8z"/>
	<path class="st0" d="M131.7,54.8c0.4,2.2-1.2,3.8-2.3,5.7c-0.4,0.7-0.7,1.4-1.2,2c-0.1,0.2-0.4,0.4-0.6,0.6
		c-0.2-0.3-0.6-0.6-0.6-0.8c0.1-0.6,0.2-1.1,0.5-1.6c0.5-0.8,1-1.6,1.6-2.4c1.3-1.5,1.4-3.2,1.3-5c0-0.3,0.3-0.6,0.5-1
		c0.2,0.3,0.6,0.6,0.7,1C131.8,53.6,131.7,54.1,131.7,54.8z"/>
	<path class="st0" d="M67.2,44.2c-0.8-1.2-0.5-1.8,0.8-2.3c0.5-0.2,1.1-0.2,1.6-0.2c1.8,0,2.8-1.2,2.8-3c0-0.5,0.1-1.2,0.4-1.5
		c0.6-0.6,0.7-1.1,0.3-1.7c-0.4-0.7-1-0.7-1.7-0.3c-0.1,0.1-0.3,0.1-0.9,0.2c0.4-0.8,0.5-1.5,0.9-1.9c0.7-0.6,1.4-0.2,2.1,0.5
		c1.4,1.4,1.5,2.3,0.5,4.1c-0.1,0.2-0.2,0.5-0.2,0.7c0.1,1.9-1,3.1-2.4,4.1c-1,0.8-2.1,1.5-3,2.3c-1.3,1.1-2.7,1.1-4.1,0.6
		c-1.5-0.5-2-1.8-2-3.4c0-1-0.5-2-0.8-2.9c-0.1-0.3-0.3-0.5-0.4-0.8c-0.8-2.9-2.9-4.7-5.2-6.4C55.4,32,55.3,31.4,55,31
		c0.1-0.1,0.2-0.2,0.3-0.3c0.4,0.2,0.8,0.3,1.2,0.5c2.5,1.7,4.6,3.7,5.7,6.7c0.6,1.7,1.5,3.2,1.4,5.2C63.5,44.5,65.7,45.2,67.2,44.2
		z"/>
	<path class="st0" d="M49.1,32.8c-0.7,0.2-1.5,0.3-2.1,0.6c-3.1,1.6-5.3,4-5.7,7.7c0,0.4-0.4,0.7-0.6,1.1c-0.4-0.3-0.9-0.6-1-1
		c-0.2-0.6-0.1-1.3,0.1-1.8c1.2-3.1,3-5.7,5.9-7.5c0.2-0.1,0.5-0.3,0.8-0.4C48.2,30.7,48.3,30.7,49.1,32.8z"/>
	<path class="st0" d="M46.7,45.3c-0.4-0.1-0.8-0.2-1.2-0.4c-0.2-0.1-0.4-0.5-0.3-0.7c0.1-0.3,0.4-0.6,0.6-0.6
		c2.2-0.3,3.9-1.5,5.2-3.2c0.8-1.1,1.4-2.4,2.2-3.6c0.3-0.4,0.6-0.9,1-1.2c0.2-0.2,0.7,0,1,0.1c0.2,0.1,0.3,0.5,0.2,0.7
		C54,40.1,52,43.3,48.3,45C47.8,45.2,47.2,45.2,46.7,45.3z"/>
	<path class="st0" d="M62.1,28.1c-0.3-0.2-0.7-0.4-0.7-0.6c0-0.3,0.1-0.8,0.4-1c0.7-0.6,1.6-1.1,2.3-1.7c1.1-1,2.1-2.1,3.2-3.1
		c0.4-0.3,1-0.4,1.5-0.6c0,0.6,0.2,1.2-0.1,1.6c-1.4,2.2-3.5,3.6-5.6,5C62.8,27.9,62.5,28,62.1,28.1z"/>
</g>
</svg>
