<?xml version="1.0" encoding="utf-8"?>
<!-- Generator: Adobe Illustrator 19.1.0, SVG Export Plug-In . SVG Version: 6.00 Build 0)  -->
<svg version="1.1" id="Layer_1" xmlns="http://www.w3.org/2000/svg" xmlns:xlink="http://www.w3.org/1999/xlink" x="0px" y="0px"
	 viewBox="0 0 150 166" style="enable-background:new 0 0 150 166;" xml:space="preserve">
<style type="text/css">
	.st0{fill:#00BCD4;}
</style>
<g id="runnynose-hand">
	<path class="st0" d="M149.8,154.1c-1.1-6.2-2.4-12.3-4-18.4c-1-3.9-1.9-8-4-11.4c-3-4.9-7.2-8.8-12.8-10.9
		c-4.8-1.8-9.5-3.6-14.3-5.1c-2.6,0.2-5.1,0.5-7.7,0.2c-1-0.1-2.4-0.1-3.4-0.7c-0.2,0-0.4,0-0.5,0c-3.4-0.2-6.2-1.3-6.6-4.9
		c-0.3-2.6,1.5-11.8,4.7-14.2c0.4-0.8,0.8-1.6,0.8-2.7c0-0.4,0.6-0.8,1-0.4c0.1,0.2,0.3,0.3,0.4,0.4c2.4,1.7,5.7-1,7.7-2.9
		c1.9-5.5,3.6-11,5-16.6c0-0.9-0.1-1.8-0.3-2.7c-0.2-0.8-0.3-1.5-0.4-2.2c-0.4-0.5-0.8-1-1.2-1.5c-0.6-0.7-1.6-1.4-1.7-2.4
		c-0.1-1.1,1-2.2,1.4-3.1c0.3-0.8,0.5-1.7,0.6-2.6c0.5-12-0.8-23.9-4.9-35.3c-0.2-0.5-0.3-1-0.6-1.3c-2.1-1.9-4.2-3.7-6.4-5.5
		c-4.8-3.8-10.4-5.8-16.2-7.6c-9.5-2.9-19-3.5-28.1,0.1c-7.8,3.1-15.8,6.3-22,12.4c-1.5,1.4-3,3-3.9,4.8c-4.8,9.4-6.2,19.5-5.4,29.8
		c0.6,2.5,1.7,4.7,3.5,6.7c0.3,0.3,0.2,0.7-0.1,0.9c-3.3,2.1-3.8,5.7-3.5,9.3c1,3.2,2,6.4,3,9.6c0.9,2.9,2.6,5.6,3.3,8.5
		c1.6,1.8,4.4,3.8,5.7,0.5c0-0.1,0.1-0.2,0.2-0.2c0.1-0.1,0.2-0.2,0.3-0.3c0.3-0.4,0.9-0.4,1,0.1c1.7,5,5.4,8.9,7.1,13.9
		c0.2,0.5,0.3,1.1,0.4,1.7c0.9,2.9-0.5,4.9-4.4,6.9c-0.3,0.1-0.6,0.3-0.9,0.4c-7,1.6-13.9,3.4-20.9,4.7c-3,0.5-5.2,1.5-7,4
		c-3.8,5.6-5.6,12-7.9,18.3c-3.4,9.3-5.2,18.9-6.8,28.6c-0.1,0.4,0.1,0.9,0.3,1.4c0.1-0.7,0.4-1.3,0.8-1.9l0-0.1
		c0-0.2,0.1-0.3,0.2-0.3c0,0,0-0.1,0.1-0.1c0.3-0.9,0.5-1.8,0.8-2.6c0-0.1,0.1-0.2,0.1-0.3c1-4.3,0.9-8.9,2.4-13c0-0.4,0-0.7,0.1-1
		c0.3-1.4,0.8-2.7,1.2-4c1-3.2,1.8-6.4,2.8-9.6c1-3,2.2-6,3.7-8.8c0.3-0.5,0.5-1.1,0.9-1.6c0.8-2.3,2.2-4.2,4.2-5.7
		c3-2.3,6-2.3,9.6-3.1c2.1-0.5,4.2-0.9,6.3-1.5c0.7,3,2.9,5.1,5.1,7.2c2.4,2.3,4.9,4.5,8,6c0.1,0.1,0.3,0.1,0.4,0
		c-0.3,0.7-0.6,1.4-0.8,2.2c-1,2.7-1.6,5.4-2.6,8.1c-0.9,2.3-1.7,4.7-2.9,6.9c-0.7,3.6-3.7,6.9-4.9,10.2c-1.4,4-2.1,8.2-4.3,11.8
		c0.3-0.2,0.6-0.3,0.9-0.5c0.2-0.2,0.3-0.6,0.4-0.9c3.5-6.9,5.6-14.5,9.7-21.2c1.1-1.8,1.5-4.1,2.3-6.2c1.9-5.3,3.6-10.7,6-15.8
		c1.4-3.1,2.9-6,3.4-9.4c0.6-4.3,1.5-8.4,4.3-12c0.9-1.1,1.5-2.8,1.6-4.3c0.5-5.2,0.6-10.5,1.1-15.8c0.1-1.7,0.7-3.4,1.2-5
		c0.5-1.5,1.6-2.5,3.4-2.1c1.9,0.5,2,2.1,2,3.5c0.3,5,0.5,10,0.8,15c0.1,2.2,1.3,3.2,3.5,3.3c1.7,0.1,3.5,0.1,5.1,0.5
		c1.2,0.3,2.8,1.1,3.1,2c0.3,1-0.6,2.5-1.2,3.7c-0.4,0.8-1,1.5-1.4,2.3c0.2,0.2,0.4,0.4,0.6,0.6c1.5-2.1,3.4-3.4,5.8-2
		c1.3,0.8,2.5,1.9,3.2,3.2c0.2,0.4-1.2,1.8-2,2.6c-0.4,0.5-1,0.9-1.5,1.3c0.8,0.4,1.4,0.3,1.9,0.2c2.3-0.7,3.9,0,4.7,2.4
		c0.5,1.7,0.7,3.3,0.2,4.9c-0.8,7.5-13.6,14.8-17.3,19.3c-0.3,0.4-1.2,0.3-1.4-0.2c-0.5-1.1-0.9-2.2-1.5-3.3
		c-0.5-0.6-0.9-1.3-1.4-2.1c-0.3,0.5-0.6,1-0.8,1.5c-0.1,0.3,0.3,0.9,0.6,1.3c1.9,3.5,2.8,7.1,1,11c-2,4.3-3.7,8.8-5.4,13.2
		c-1.2,3.1-2.4,6.3-3.5,9.5c-0.2,0.5,0.2,1.3,0.5,1.9c0.4-1.6,1.1-3.2,1.8-4.7c2.3-5.5,4.5-11,6.7-16.5c1.4-3.4,2.6-10.9,6.5-12.9
		c1.4-1.9,3.4-3.1,5.6-3.7c0.9-0.6,1.9-1.1,3.2-1.3c3-0.6,6.5-0.1,9.5-0.1c4.4,0,8.7-0.1,13-1.1c3.1-0.8,5-1.3,7-3.9
		c0.9-2,1.3-4.2,0.8-6c-0.7-1.3-1.6-2.4-2.8-3.2c-1.3-0.8-0.2-2.7,1.2-2c0.2,0.1,0.5,0.2,0.7,0.4c4.9-1.1,10.6,2.4,14.8,5.1
		c0.1,0,0.2,0.1,0.3,0.1c3.5,2.2,7.3,4.3,9.8,7.8c2,2.8,2.7,6.2,3.5,9.6c1.6,4.2,2.7,8.6,3.7,13c1.2,5.2,2.3,10.3,2.8,15.6
		c0.3-0.3,0.5-0.5,0.5-0.8C150,158.8,150.2,156.4,149.8,154.1z M53.4,107.5c-0.2,0.7-0.4,1.4-0.6,2.1c0,0.1,0,0.1,0,0.2
		c-0.1,0.7-0.4,1.4-0.6,2.1c0,0,0,0,0,0c0,0,0,0,0,0c-0.2,0.5-0.4,1-0.7,1.5c-0.2,0.3-0.3,0.7-0.5,1c0,0,0,0.1-0.1,0.1c0,0,0,0,0,0
		c0,0,0,0.1-0.1,0.1c-0.5,1.7-1.6,3.5-2,4.5c-0.2,0.4-0.3,0.7-0.5,1.1c0,0.6-0.3,1-0.6,1.6c-0.2,0.5-0.4,0.9-0.6,1.4
		c0-0.1-0.1-0.1-0.2-0.1c-2.7-1.3-5-3.2-7.1-5.2c-2.2-2.1-4.7-4.3-5.4-7.4c1.6-0.4,3.2-0.8,4.9-1.2c0.9-0.2,2.1-0.7,3.3-0.8
		c0.8-0.3,1.5-0.6,2.3-0.7c0.5-0.2,0.9-0.4,1.4-0.7c0.3-0.3,0.6-0.5,0.9-0.8c0,0,0,0,0,0c0.4-0.5,0.8-1,1.1-1.5
		c0.4-0.9,1.1-1.6,1.3-2.6c-0.2-0.5,0.5-0.8,0.8-0.6c0.8,0.4,1.4,1.1,2.1,1.7c0.5,0.4,1,0.6,1.2,1.2C54,105.4,53.6,106.8,53.4,107.5
		z M69.9,89.4c-0.7-1.5-0.7-3.6-0.6-5c0.1,0.1,0.3,0.2,0.4,0.1c0.1,0,0.2-0.1,0.3-0.1c0.1,0,0.2,0,0.2-0.1c0.2,0,0.3-0.1,0.5-0.1
		c0,0,0,0,0,0c0,0,0,0,0.1,0c0.1,0,0.2-0.1,0.3-0.2c0.1,0,0.1-0.1,0.2-0.1c0.7-0.1,1.7,0.1,2.3,0.6c1.9,1.3,3.6,2.8,5.4,4.2L79,89
		c0.6,0.4,1.2,0.8,1.8,1.3c-1.6-0.3-3.2-0.9-4.8-1.1c-2-0.2-3.9-0.1-5.9,0.1C70,89.3,70,89.4,69.9,89.4z M78.8,91.9
		c-0.7-0.1-1.5-0.2-2.3-0.4c-1.6-0.4-3.6,0.2-5.1-0.5c-0.4-0.2-0.7-0.4-0.9-0.7c2.3-0.3,4.7-0.3,7,0.1c1.4,0.3,2.8,0.8,4.2,1
		c0,0.2-0.2,0.4-0.4,0.4c0.1,0.3,0,0.7-0.5,0.8C80.2,92.7,79.5,92.4,78.8,91.9z M88.4,104.2C88.4,104.2,88.4,104.2,88.4,104.2
		c0,0-0.1,0.1-0.1,0.1c-0.4,0.5-1.3-0.2-0.9-0.7c0,0,0.1-0.1,0.1-0.1c0,0,0,0,0,0c0.3-0.3,0.4-0.6,0.6-0.9c-0.3-1-0.7-1.8-1.2-2.6
		c-1.4-1.4-3.1-2.4-5.1-2.6c-0.1,0-0.3,0.1-0.4,0.2c-0.5,0.2-1-0.2-0.8-0.8c0.5-1,0.8-2.1,1.3-3c0.1-0.5,0.3-1.1,0.7-1.5
		c1.4-2,0.9-2.9-1.2-3.8c-1.6-0.7-2.9-2.2-4.4-3.1c-0.8-0.5-1.7-1-2.6-1.5c-0.9-0.3-1.8-0.5-2.7-0.7c-2.2-0.5-2.5-1.6-2.7-3.8
		c-0.1-1.5-0.4-3.6,1.3-4.3c0.4-0.2,0.8-0.2,1.2-0.2c0.6-0.3,1.5-0.2,2.4,0.5c2.8,2,5.8,1.5,7.1-0.8c1.4-2.4-0.2-6.4-3.7-8.2
		c0.3,0.6,0.6,1.1,0.8,1.5c1.9,1.4,3,4.8,1.4,6.6c-1.1,1.2-2.9,1.2-4.2,0.6c-1.2-0.5-1.9-1.5-3.1-1.9c-0.1,0-0.1,0-0.2-0.1
		c-0.5,0.1-1.1,0.3-1.9,0.5c-0.2,0.6-1.2,0.3-1.1-0.4c0.4-2.3-2.1-4.4-4.2-4.2c-1.3,0.1-2.6,0.9-3.2,2c-0.4,0.7-0.5,1.4-0.9,2
		c-0.3,0.5-1,0.3-1.1-0.3c-0.3-2.5,0.4-5.1,2.2-7c0.5-0.5,1.3-1.2,2.1-1.6c-0.2-0.2-0.3-0.3-0.4-0.3c-4.1,0.9-6.5,7.2-4.1,10.3
		c0.1,0.2,0.2,0.4,0.3,0.6c0.2,0.2,0.4,0.4,0.5,0.7c0.7,1.5,0.1,4.2,0,5.8c-0.1,1.1,0.1,3.9-0.4,5.3c0,2.9-0.2,6-1.3,8.5
		c-0.7,1.6-2,2.8-2.7,4.5c-0.5,1.1-0.7,2.2-1.6,3.1c-0.4,0.4-0.9,0.1-1-0.3c0,0,0,0,0,0.1c-0.1-0.1-0.2-0.3-0.4-0.4
		c-1.4-0.3-2.8-1.8-3.6-2.9c-1.2-1.6-1.8-3.4-2.6-5.1c-0.5-0.8-0.9-1.6-1.4-2.3c-0.3-0.4-0.5-0.8-0.7-1.2c-1.4-1.4-2.5-4-3-5.2
		c-0.7-1.7-1.7-4.6-1.7-7.1c-0.6-2.6-1.1-5.4-1.3-8.2l-0.2,0c-0.6,2.1-0.9,4.3,0.2,6.4c0.3,0.5-0.3,1.1-0.8,0.8
		c-2.1-1.2-4.5-2.8-4-5.6c0.2-1.1,0.8-2.5,1.5-3.4c0.2-0.3,0.5-0.4,0.8-0.6c0.1-0.1,0.1-0.3,0.2-0.4c-3,0.4-3.5,2.6-3.8,4.6
		c-0.3,2.2,1.7,5.1,3.7,5.9c2.7,1,3.7,2.9,2.4,5.2c-0.4,0.8-1.5,1.5-2.5,1.7c-0.6,0.1-1.8-0.7-2-1.4c-2.1-6-4.1-12-6-18
		c-0.2-0.7-0.4-1.6-0.1-2.2c0.5-1.3,1-2.8,2-3.5c1.4-1,2.6,0.2,3.4,1.5c0.1,0.1,0.2,0.3,0.3,0.4c0.9,0.6,1.8,1.1,2.7,1.6
		c0.2-1.1,0.6-2.1,0.5-3.2c-0.2-3.4,0.1-6.5,1.9-9.5c0.8-1.5,1.2-3.3,1.5-5.1c0.2-1.4,0.1-2.8-0.1-4.2c-0.4-3.4,0.6-6.2,3.2-8.7
		c1-1,1.5-2.9,1.6-4.4c0.1-1.4,0.4-2.2,1.8-2.3c2.9-0.2,5.9-0.5,8.8-0.6c0.7,0,1.4,0.6,2.1,0.9c3.8,1.7,7.4,4,11.4,5
		c2.6,0.6,5.8-0.5,8.6-1.2c2.6-0.7,5.1-2.1,7.7-3c0.6-0.2,1.9,0.3,2.1,0.8c1.7,5.2,6.4,6.8,10.7,8.3c4.3,1.5,6.9,3.5,6.7,8.5
		c-0.2,6.6,0.2,13.2,0.2,19.7c0,1.5-0.2,2.9,2,2.8c0,0,0.1,0,0.1,0c0.6-0.4,1.5-0.4,2,0.3c1.2,1.7-0.3,4.9-0.6,6.7
		c-0.2,1-0.9,4.6-2.8,3.6c-0.2-0.1-0.4-0.3-0.5-0.4c-0.1,0-0.1,0.1-0.2,0.1c0,0.4-0.2,1.2,0,1.7c0.2,0.5,0.8,1.2,1.3,1.2
		c0.5,0.1,1.4-0.4,1.5-0.8c1.1-3.7,2.2-7.3,3-11.1c0.4-1.8-0.7-3.1-3.2-3c0.5-0.9,0.7-1.6,1.2-2.1c0.8-0.7,1.7-1.2,2.6-1.8
		c0,0.1,0.1,0.2,0.2,0.3c0.4-0.1,0.7,0.1,0.9,0.3c0.7,0.2,1.3,1.1,1.5,2.5c0.7,3.9-1.3,8.6-2.3,12.2c-0.7,2.8-2,6.3-4.6,8
		c-0.6,0.4-1.6,0.8-2.4,0.9c-0.1,0-0.1,0.1-0.2,0.1c0,0,0-0.1-0.1-0.1c-0.6-0.1-1-0.4-1.2-1.2c0-0.2,0-0.4,0.1-0.5
		c-0.5-0.7-0.8-1.5-0.8-2.2c0-2.9,0.7-5.8,1.1-8.8c0.1-0.6,0.2-1.2,0.4-2.4c-0.6,0.4-1,0.9-1.4,1.3c-0.1,2.5-0.5,5-0.8,7.5
		c-0.2,2.4-0.6,4.8-1.4,7c-0.6,1.6-1.5,3.2-2.7,4.5c-0.3,0.6-0.5,1.3-0.8,1.9c-1.6,3.7-4.2,6.5-6.6,8.7
		C90.4,102.4,89.2,103.1,88.4,104.2z M113.9,117.6c0.2,1.8-0.5,3.4-2,4.5c-1.7,1.3-5.2,2.6-8.1,2.6c-2.5,0.3-4.9,0.2-7.4,0.1
		c-0.2,0.1-0.4,0.1-0.5,0.2c-2,0.6-3.9,0.6-5.9,0.5c-0.9,0-1.7-0.2-2.5-0.4c-0.8-0.1-1.5,0-2.2,0.1c-0.3,0.2-0.6,0.4-0.8,0.5
		c-0.5,0.3-1.2-0.5-0.7-0.9c0-0.2,0-0.5,0.2-0.6c0.4-0.2,0.7-0.4,0.9-0.6c0.1-0.1,0.2-0.2,0.2-0.3c0,0,0,0,0,0
		c0.1-0.1,0.2-0.2,0.3-0.3c0.5-0.5,0.9-1.1,1.4-1.6c0-0.2,0-0.3,0.1-0.5c1.8-2.2,3-4.2,3.8-6.8c1-3.2,0.3-5.2-1.1-8.1c0,0,0,0,0,0
		c-0.1-0.1-0.2-0.2-0.4-0.4c-0.2-0.2-0.2-0.6,0-0.8c0.3-0.3,0.7-0.8,1.2-1.1c1.4-1.6,2.7-3,4-4.5c0.2,0,0.4,0.1,0.7,0.1
		c0,1.7,0.2,3.5,0,5.2c-0.3,2.5,1,2.8,3.1,3.3c3.7,0.9,7.4,2.1,10.7,3.8c1.1,0.5,1.8,1.3,2.4,2.2
		C112.7,114.9,113.7,115.9,113.9,117.6z"/>
	<path class="st0" d="M123.2,159.1c0.2,1.1,0.7,3,0.5,4.6c0.6-0.7,1.2-1.4,1.7-1.9c-0.6-4-1-7.4-1.7-10.8c-0.2-0.8-1.2-1.4-1.8-2
		c-0.2,0.3-0.4,0.7-0.6,1C121.6,153.1,122.7,156.2,123.2,159.1z"/>
	<path class="st0" d="M46.9,58.5c3.4,1.2,6.2,4.2,10,4.4c2.8,0.1,5.4-1.7,7.7-3.9c0.3-0.5,0.5-1,0.4-1.4c-0.1-0.3-0.3-0.6-0.5-1
		c-2.1-0.8-3.8-1.9-6.2-2.1c-4.9-0.5-7.9,1.6-11.6,3.8c0,0,0.1,0.1,0.1,0.1C46.7,58.5,46.8,58.5,46.9,58.5z M60.9,56
		c0.8,0.7,1.5,1.2,2.6,2.1c-1.5,1.1-2.6,1.9-3.7,2.7l-0.4-0.3C59.8,59.1,60.3,57.7,60.9,56z M53.1,56.1c0.6,1.8,1.2,3.4,2,5.5
		c-2-1.1-3.9-2.1-6.3-3.4C50.8,57.2,52,56.6,53.1,56.1z"/>
	<path class="st0" d="M81,58.4C81,58.4,81,58.5,81,58.4c0.1,0.1,0.1,0.2,0.2,0.2c0,0,0,0,0,0c0.5,0.7,1.2,1.4,2.1,2.1
		c1.5,0.5,2.9,1,4.4,1.2c3.8,0.7,7.2,0.1,10.1-3.7c-0.9-0.7-1.6-1.6-2.4-2.3c-1.4-0.4-2.7-0.8-3.8-1c-3.2-0.7-5.9-0.4-8.6,1.4
		c-0.5,0.4-1.3,1.1-2.1,1.7c0,0.1,0,0.1,0,0.2C80.9,58.3,80.9,58.4,81,58.4z M92.3,56.4c1.1,0.8,1.9,1.4,3.2,2.4
		c-1.7,0.9-2.8,1.5-4.4,2.4C91.6,59.3,91.9,58.1,92.3,56.4z M84.6,56.8c0.4,1,0.7,1.9,1.1,2.9c-0.3,0.2-0.6,0.4-0.9,0.6L83,58.1
		C83.6,57.7,84.1,57.3,84.6,56.8z"/>
	<path class="st0" d="M45.3,53.5c3.5-2.1,6.6-4.1,10.8-4.7c2.2-0.3,4.5-0.6,6.7-0.3c0.2-0.2,0.4-0.4,0.6-0.5c-0.5-0.4-0.9-1-1.4-1.1
		c-0.9-0.2-1.8-0.1-2.7-0.1c-5.5,0.4-11.1,0.8-15.4,5c-0.5,0.5-0.6,1.3-0.9,1.9C43.7,53.7,44.5,53.8,45.3,53.5
		C45.2,53.5,45.2,53.5,45.3,53.5z"/>
	<path class="st0" d="M90.2,49.8c3.6,0,7.2,0.6,9.7,2.9c0.2,0,0.5,0,0.8,0c-0.6-1.1-0.7-1.6-1-1.9c-2.6-3.2-11.8-4.4-15.2-2
		c-0.4,0.3-0.6,0.9-0.8,1.3c0.2,0.1,0.4,0.1,0.5,0.2C86.2,49.7,89.1,49.8,90.2,49.8z"/>
</g>
</svg>
