<?xml version="1.0" encoding="utf-8"?>
<!-- Generator: Adobe Illustrator 19.2.0, SVG Export Plug-In . SVG Version: 6.00 Build 0)  -->
<svg version="1.1" id="Layer_1" xmlns="http://www.w3.org/2000/svg" xmlns:xlink="http://www.w3.org/1999/xlink" x="0px" y="0px"
	 viewBox="0 0 120 139.1" style="enable-background:new 0 0 120 139.1;" xml:space="preserve">
<style type="text/css">
	.st0{fill:#E91E63;}
</style>
<g id="shortness-of-breath-boy">
	<path class="st0" d="M37.4,139.1c0.5-0.6,1-1.2,1.6-1.7c1.7-1.3,3.3-2.6,5.1-3.7c1.9-1.2,4-2.1,6-3.1c2.5-1.3,5-2.5,7.5-3.8
		c0.5-0.3,0.9-0.7,1.3-1.1c1.7-1.7,3.4-3.5,5-5.3c0.7-0.8,1.3-1.8,1.7-2.8c0.7-2.1,2.4-2.9,4.1-4c0.4-0.2,0.7-0.5,1.1-0.8
		c-1.9-0.7-3.6-1.4-5.4-2c-1.2-0.4-2.5-0.8-3.7-1.3c-1.5-0.5-3.6-3.5-3-5.6c0.1-0.5,0.1-1,0.2-1.5c0.1-0.3,0.2-0.6,0.5-0.8
		c0.3-0.3,0.7-0.5,1.1-0.7c-1-2.8-2-5.7,1.5-7.8c-0.7-1.4-0.1-2.7,1.1-3.8c0.9-0.8,1.5-0.8,2,0.3c1.2,2.6,3.2,4.2,5.6,5.6
		c0.3,0.1,0.6,0.2,0.9,0.3c0-0.1,0.1-0.1,0.1-0.2c-0.2-0.2-0.4-0.4-0.7-0.5c-1.9-1.1-3.6-2.5-4.7-4.4c-0.6-1-0.5-1.5,0.2-2.3
		c0.9-0.9,1.9-1.1,2.8-0.6c2.2,1.3,4.3,2.6,6.5,4c0.7,0.5,1.4,1,2.2,1.4c-0.1-0.2-0.2-0.5-0.4-0.7c-2.1-2-2.4-4.7-2.6-7.3
		c-0.1-0.9,1.4-2.7,2.3-2.8c1-0.1,1.5,0.8,1.8,1.5c1,1.9,1.9,3.9,2.8,5.8c0.8,1.6,1.7,3.1,2.3,4.7c1.1,2.5,2.5,4.6,4.5,6.4
		c1.5,1.3,2.7,2.9,4,4.4c0.2,0.2,0.4,0.5,0.5,0.8c0.1-0.1,0.2-0.1,0.4-0.2c0-1,0.1-2.1,0-3.1c-0.2-1.7,0.9-3.2,0.9-4.8
		c0.1-1.9,0-3.7-0.1-5.6c0-0.5-0.3-1,0.3-1.1c0.2,0,0.7,0.6,0.7,0.9c0.1,2.3,0.3,4.6,0.1,6.9c-0.1,1.4,0.2,2.4,0.9,3.4
		c2.4-1.6,4.8-3.1,7.2-4.7c1.9-1.2,3.7-2.5,5.6-3.7c0.6-0.4,1.3-0.8,1.9-1.2c0.7-0.5,1.5-0.9,2.1-1.6c0.2-0.2,0.1-0.9,0-1.2
		c-0.4-0.8-0.9-1.6-1.3-2.3c-2.4-4.4-4.9-8.8-7.2-13.3c-0.8-1.5-2.1-2.5-3.4-3.4c-3.3-2.2-7-3.4-10.5-4.8c-0.3-0.1-0.8,0-1,0.2
		c-1.1,0.7-2.2,1.6-3.3,2.3c-2.8,2-6.1,3.2-9.3,4.3c-2.9,1-5.9,2.1-8.8,3.1c-3.3,1.2-6.7,0.9-10.1,0.4c-4.1-0.6-7.8-2.5-11.4-4.4
		c-2.6-1.3-5-3.1-7-5.3c-0.4-0.5-0.8-0.5-1.3-0.2c-1.3,0.6-2.7,1-4.1,1.5c-2.7,0.9-5.2,2.1-7.2,4.2c-2.1,2.2-4.3,4.3-6.6,6.2
		c-1.4,1.2-3.1,2.1-4.6,3.2c-1.2,0.9-1.1,1-0.1,2.1c1.9,2.1,3.8,4.2,5.7,6.4c1.9,2.2,3.6,4.5,5.4,6.7c0.1,0.1,0.2,0.2,0.3,0.3
		c0.9,1,1.3,1,2.2,0c0.8-0.8,1.4-1.7,2.1-2.4c0.4-0.4,0.9-0.7,1.2-1.1c0.3-0.3,0.6-0.7,0.8-1.2c0.2-0.7,0.3-1.5,0.4-2.3
		c0.1-0.6,0.3-1.2,0.4-1.8c0-0.1,0.4-0.3,0.5-0.3s0.3,0.4,0.3,0.5c-0.6,1.8-0.2,3.9-1.7,5.5c-0.2,0.2-0.1,0.8,0,1.1
		c1,1.8,1.4,3.7,1.2,5.8c-0.2,2-0.4,4-0.4,6c0.2,5.6,0.5,11.1,2,16.5c0.2,0.6,0.3,1.3,0.3,2c0,4.6,0,9.2,0,13.8c-0.5,0-1,0-1.5,0
		c0.1-0.6,0.2-1.1,0.2-1.7c0-3.5,0-7.1,0-10.6c0-0.8,0-1.6-0.1-2.4c-0.4-2.8-1-5.5-1.4-8.3c-0.3-2.6-0.6-5.1-0.7-7.7
		c-0.1-2.4,0.1-4.8,0.3-7.3c0.2-2.1,0.1-4.1-1.3-6c-1,1.4-2,2.8-3.1,4.1c-0.3,0.3-0.8,0.5-1.2,0.7c-0.3,0.1-0.7,0.1-0.9,0.3
		c-0.9,0.9-1.6,1.9-2.5,2.8c-1.6,1.5-3.2,2.9-4.8,4.4c-1.2,1.2-2.4,2.4-3.5,3.7c-0.3,0.3-0.3,0.8-0.3,1.3c0.1,1.5,0.2,3,0.5,4.5
		c0.5,2.8,1.2,5.5,1.5,8.3c0.4,2.9,1,5.7,2.1,8.5c0.7,1.8,1,3.7,1.4,5.6c-0.4,0-0.8,0-1.2,0c-0.5-1.9-0.8-3.9-1.6-5.8
		c-1.2-2.8-1.8-5.7-2.1-8.7c-0.1-1.7-0.5-3.4-0.8-5.1c-0.4-2.2-0.8-4.4-1.2-6.6c-0.1-0.3-0.2-0.7-0.4-0.8c-1.8-0.9-3.7-1.7-5.5-2.6
		c-0.6-0.3-1.2-0.6-1.8-0.9c-0.2-0.1-0.3-0.3-0.5-0.5c0.1-0.1,0.1-0.2,0.2-0.3c2.6,1.1,5.2,2.2,7.9,3.3c1.1-1.7,2.4-3.5,4.2-4.6
		c2.4-1.4,4.3-3.4,6-5.5c0.5-0.6,1.2-1,1.7-1.6c0.2-0.2,0.3-0.8,0.2-1c-0.5-0.9-1.1-1.8-1.8-2.7c-2.1-2.5-4.2-5.1-6.4-7.6
		c-0.8-0.9-1.7-1.6-2.6-2.4c-0.1,0.2-0.3,0.4-0.5,0.7c-2,3.1-4,6.2-6.2,9.1c-2.3,3.3-4.5,6.5-6.3,10.2c-1.8,3.8-2.5,7.7-1.3,11.6
		c1.6,5.6,3.6,11,5.5,16.5c0.6,1.8,1.4,3.5,2.1,5.2c-0.4,0-0.9,0-1.3,0c-3-6.5-5-13.3-7.1-20c-1.5-4.7-1.2-9.2,0.9-13.7
		c1.8-3.8,4.1-7.3,6.5-10.7c2.3-3.2,4.4-6.5,6.6-9.8c0.3-0.5,0.3-0.8-0.1-1.3c-1.1-1.3-0.9-2.1,0.5-3.1c1.3-0.9,2.7-1.6,3.8-2.6
		c2.4-2.2,4.7-4.4,6.9-6.8c2.5-2.6,5.6-4.2,9-5.2c1-0.3,2-0.7,2.9-1.1c0.7-0.3,1.3-0.7,1.9-0.8c2.3-0.3,4.2-1.4,6.2-2.4
		c1.3-0.7,2.6-1.3,4-1.9c1.4-0.6,1.6-1,0.9-2.5c-0.9-1.9-1.8-3.9-2.6-5.9c-0.5-1.1-0.7-2.4-1.1-3.6c-0.2-0.6-0.5-0.9-1.2-1.1
		c-1.4-0.4-2.3-1.7-2.3-3.6c0-3-0.6-5.8-1.4-8.7c-0.3-1.2-0.7-2.5-1.2-3.6c-1.3-2.7-1.2-5.5-1-8.3c0.1-2.2,0.4-4.4,0.7-6.6
		c0.2-1,0.5-2,1.1-2.8c1.5-2.1,3.3-4.1,4.9-6.1c0.5-0.6,0.8-1.2,1.3-1.7c0.4-0.4,0.9-0.8,1.4-1c1.2-0.5,2.4-0.8,3.7-1.3
		c-0.1-0.1-0.2-0.2-0.4-0.4c1.2-0.3,2.4-0.6,3.5-0.9C57.3,2,58,2,58.6,1.8c0.5-0.2,0.8-0.7,1.2-0.9c2.8-1,5.7-0.9,8.7-0.9
		c1.7,0,3.4,0.1,5,0.9c2,1,4.1,1.9,6.1,3c0.7,0.4,1.3,1,1.9,1.6c1.2,1.1,2.4,2.2,3.4,3.4c0.7,0.8,1.4,1.7,1.7,2.7
		c0.7,2.2,1.4,4.5,1.9,6.8c0.6,2.5,0.4,5.1-0.5,7.5c-0.8,2.2-1.2,4.3-0.5,6.7c0.6,2,0.5,4.2-0.1,6.4c-0.5,1.8-1,3.7-1.6,5.5
		c-0.5,1.6-1.6,2.7-3.3,3c-0.3,0.1-0.7,0.4-0.7,0.7c-0.6,2.6-1.3,5.1-2.5,7.5c-0.7,1.5-0.1,2.3,1.4,3c1.6,0.8,3,1.9,4.4,2.8
		c0.5,0.3,1,0.6,1.6,0.9c3.9,1.6,7.8,3.2,11.6,4.8c2.7,1.2,5.1,2.8,7.2,4.9c0.1,0.1,0.1,0.1,0.2,0.2c1.4,2.4,2.9,4.8,4.2,7.3
		c1.8,3.5,3.5,7,5.2,10.6c0.3,0.5,0.2,0.8-0.3,1.1c-0.8,0.5-1.5,0.9-2.2,1.5c-0.2,0.2-0.4,0.8-0.3,1.1c0.8,2.7,1.8,5.3,2.6,8
		c0.7,2.1,1.1,4.3,1.8,6.4c0.9,3.2,2,6.4,2.9,9.6c0.7,2.6,0.1,5.2-0.4,7.8c0,0.2-0.1,0.4-0.1,0.6c0.1,2.5-1.6,3.7-3.3,4.8
		c-0.9,0.6-1.8,1-2.7,1.6c-1.5,0.9-3,0.8-4.5-0.1c-1.4-0.8-2.9-1.3-4.5-1.5c-2.1-0.3-4.2-0.2-6-1.6c-0.7-0.5-1.7-0.7-2.5-1.2
		c-0.6-0.3-1.1-0.8-1.5-1.1c0.5,3.8,1,7.7,1.5,11.5c-0.4,0-0.9,0-1.3,0c-0.2-2.2-0.3-4.4-0.5-6.6c-0.3-1.9-0.9-3.7-1.1-5.5
		c-0.2-1.5-0.9-2.7-2-3.7c-2.7-2.7-5.9-4.7-9.1-6.9c-1.3-0.9-2.8-1.2-4.3-1.7c-1.7-0.6-3.5-1.1-5.2-1.7c-0.4,0.3-0.6,0.7-1,0.9
		c-1.7,0.8-3.2,1.8-4,3.5c-1.1,2.3-2.9,4-4.5,5.9c-2.9,3.5-6.7,5.8-10.8,7.5c-3.3,1.3-6.5,2.9-9.3,5.1c-1.3,1-2.6,2.2-3.9,3.2
		C38.2,139.1,37.8,139.1,37.4,139.1z M83.1,33.1c-0.1,0-0.2,0-0.3,0c0.2-3.9-1.4-7.5-2.3-11.2c-0.1-0.4-0.3-0.7-0.5-1
		c-0.9-1.3-1.9-2.5-2.8-3.7c-1-1.2-2.2-1.5-3.7-1s-3,1.2-4.5,1.3c-2.1,0.1-4.3-0.3-6.5-0.4C61.6,17,60.7,17,59.7,17
		c-0.8,0-1.6,0.2-2.4,0.3c-2.6,0.4-5.3,0.4-7.4,2.4c-0.8,0.8-1.4,1.7-1.5,2.9c0,0.7,0,1.4-0.2,2.1c-0.4,1.9-0.8,3.7-1.2,5.6
		c-0.7,3.3-0.7,6.6-0.3,9.9c0.2,1.7,0.6,3.4,1,5c0.4,1.4,0.8,2.9,1.3,4.3c0.7,2,1.5,4.1,2.2,6.1c0.3,0.9,0.9,1.6,1.7,2.1
		c1.5,0.9,2.9,2.1,4.4,2.8c4.9,2.2,9.8,1.8,14.5-0.9c1-0.6,2.1-0.9,3.1-1.5c1.1-0.5,2.2-1,2.8-2.2c1.3-2.5,2.1-5.2,2.6-8
		c0.2-0.8,0.6-1.5,0.7-2.2c0.2-1.2,0.4-2.4,0.5-3.7C82.3,39.1,82.7,36.1,83.1,33.1z M77.5,83c-1,0.6-1.6,1.3-1.6,2.5
		c-0.1,2,0.6,3.7,1.7,5.3c0.5,0.8,1.2,1.6,1.7,2.4c0.2,0.3,0.4,0.6,0.5,0.9c-0.4,0.1-0.7,0.3-1.1,0.3c-0.3,0-0.6-0.2-0.8-0.4
		c-0.7-0.5-1.2-1.2-1.9-1.7c-1.6-1-3.3-1.8-4.8-2.6c-0.5,0.2-1,0.4-1.4,0.6c0-0.4,0-0.8,0-1.3c-0.1-0.1-0.4-0.3-0.6-0.5
		c-0.6-0.6-1.2-0.5-1.8,0c-0.9,0.7-0.9,1.5,0.1,2.3c1.9,1.7,4,3.3,5.9,5c0.4,0.4,1.1,1.1,1,1.3c-0.5,0.8-1.2,0.2-1.7-0.1
		c-2-1-4-2.1-6.1-3.3c-0.2,0.3-0.4,0.8-0.7,1.2c-0.2-0.1-0.3-0.3-0.5-0.4c0.2-0.5,0.5-1.1,0.7-1.6c-0.6-1.1-1.3-2.2-1.9-3.2
		c-1.8,1.1-1.8,3-0.8,4.4c0.8,1.2,1.9,2.3,2.9,3.4c1.2,1.2,2.6,2.3,3.8,3.5c0.2,0.2,0.2,0.8,0.3,1.2c-0.4-0.1-0.9,0-1.2-0.2
		c-0.5-0.3-0.9-0.7-1.4-1c-1.1-0.6-2.2-1.1-3.3-1.7c-1.3-0.6-1.8-1.6-1.8-3c0-0.8-0.3-1.5-1.1-1.8c-1.7,2-1.2,5.4,1.1,7.6
		c0.3-0.4,0.6-0.7,0.9-1.1c0.1,0.1,0.2,0.1,0.4,0.2c-0.2,0.6-0.4,1.2-0.7,1.9c0.9,0.4,1.7,0.7,2.5,1.1c1,0.5,2,1,3,1.6
		c0.2,0.1,0.1,0.5,0.2,0.8c-0.3,0-0.6,0.2-0.8,0.1c-0.9-0.5-1.8-0.4-2.7-0.3c-2.2,0.3-3.7-0.8-3.9-3.1c0-0.2-0.1-0.4-0.2-0.5
		c-0.2-0.2-0.5-0.7-0.6-0.6c-0.3,0.1-0.7,0.4-0.8,0.7c-0.2,0.6-0.2,1.2-0.3,1.8c-0.2,1.3,1.3,3.7,2.5,4.2c1.1,0.4,2.2,0.8,3.3,1.1
		c2.1,0.7,4.2,1.3,6.3,2c1.8,0.6,3.5,1.4,5.3,1.7c1.5,0.3,2.9,0.7,4.2,1.4c2.2,1.2,4.4,2.5,6.3,4.2c2.6,2.4,4.9,5.2,7.3,7.8
		c0.3,0.3,0.5,0.6,0.9,0.7c0.7,0.4,1.5,0.5,2.2,1c2,1.4,4.3,1.3,6.6,1.8c1.5,0.3,3,0.7,4.4,1.4s2.6,0.8,3.9-0.1
		c0.5-0.4,1.1-0.7,1.7-1c1.8-0.7,2.8-1.9,3.3-3.8c0.7-3.3,1.3-6.4,0.4-9.8c-1.2-4.9-3.6-9.4-4.4-14.5c-0.4-2.5-1.5-4.8-2.3-7.2
		c-0.1-0.4-0.3-0.9-0.5-1.5c-4.6,3.3-9.2,6.6-13.7,9.9c0.6,1.1,1.1,2.2,1.6,3.3c0.6,1.5,1.7,2.7,3.2,3.3c1.4,0.6,2.7,1.3,4.1,1.8
		s2.9,0.8,4.4,1.1c2.7,0.5,3.9,2.9,5.8,4.4c0.1,0.1,0.1,0.6,0,0.7c-0.2,0.2-0.7,0.3-0.8,0.1c-0.7-0.5-1.5-1-2-1.7
		c-1-1.4-2.3-1.9-3.9-2.2c-1.7-0.3-3.4-0.6-5-1.3c-2.6-1.2-5-2.6-7.4-4c-0.3-0.2-0.7-0.3-1-0.5c-1-0.6-2.1-1.1-2.9-1.9
		c-1.7-1.8-2.9-4-4.9-5.6c-1.9-1.5-3.3-3.3-4.3-5.6c-0.9-2.1-2-4.1-3-6.1c-0.8-1.7-1.7-3.4-2.5-5C78.3,84,77.9,83.5,77.5,83z
		 M43.5,64.9c0.7,0.6,1.1,1,1.7,1.3c1.4,0.8,2.8,1.6,4.2,2.2c2.3,1,4.7,2.1,7.1,2.9c1.9,0.6,3.9,0.6,5.8,1c1.7,0.3,3.3,0.4,5-0.1
		c2.1-0.6,4.3-1.2,6.4-1.8c3.5-1.1,6.9-2.5,10-4.6c0.8-0.5,1.5-1.2,2.2-1.8c-1.3-1-2.3-1.9-3.5-2.7c-0.9-0.6-1.9-0.9-2.9-1.4
		c-0.5-0.3-1-0.7-1.4-1.2c-0.2-0.3-0.3-0.7-0.4-1c-1.3,0.6-2.7,1.2-4,1.9c-3.4,1.7-6.8,3.5-10.9,3.1c-3.3-0.4-6.5-1.2-9.1-3.4
		c-0.3-0.3-0.7-0.5-1.1-0.8c-0.2,1.6-0.6,2.1-2,2.7c-0.6,0.2-1.2,0.5-1.8,0.8C47.3,62.8,45.5,63.8,43.5,64.9z M89.7,65.3
		c-0.5-0.3-0.6-0.4-0.8-0.5c-1.5-0.9-1.9-0.8-3.2,0.3c-2.4,2-5.2,3.5-8.1,4.5c-3.2,1.2-6.5,2.1-9.8,3.1c-1.7,0.5-3.5,0.6-5.3,0.2
		c-1.1-0.2-2.3-0.3-3.5-0.6c-1.6-0.3-3.2-0.5-4.7-1.1c-2.8-1.1-5.5-2.5-8.2-3.8c-0.8-0.4-1.6-0.9-2.3-1.5c-1.1-0.9-1.8-1-3.4-0.1
		c1.1,0.9,2.1,1.8,3.2,2.7c2.2,1.8,4.5,3.4,7.2,4.3c1.3,0.4,2.4,1.1,3.7,1.6c0.6,0.3,1.3,0.6,1.9,0.7c1,0.2,2.1,0.3,3.2,0.5
		c2.5,0.4,5.1,0.6,7.6-0.1c3.7-1.1,7.2-2.5,10.8-3.7c2.9-1,5.7-2.1,8.2-3.9C87.3,67.1,88.4,66.2,89.7,65.3z M82.4,42.4
		c-0.1,1.3-0.2,2.6-0.3,4c1.3-0.4,2-1,2.3-2c0.6-1.8,1.3-3.7,1.6-5.6c0.3-1.6,0.2-3.2,0.3-4.8c0-0.6-0.2-1.2-0.4-2.1
		c-1,1.4-1.9,2.5-1.1,4.2c0.4,0.7,0.5,1.5,0.7,2.3C86.1,40.9,85,42.4,82.4,42.4z M47.3,45.9c-0.1-0.4-0.1-0.8-0.2-1.1
		c-0.5-0.8-1.1-1.6-1.5-2.5c-0.2-0.5-0.2-1.4,0.1-1.8c0.5-0.5,0.4-1,0.3-1.5c-0.3-0.8-0.5-1.7-1.4-2.2c-0.1,0.3-0.1,0.4-0.1,0.5
		c0.3,2.4,0.5,4.7,0.9,7.1C45.5,45.3,46.1,45.8,47.3,45.9z M97.4,107.5c-0.7-1.7-1.5-3.3-2.2-5c-0.1,0-0.2,0.1-0.4,0.1
		c0,1.2-0.1,2.3,0,3.5C95,107.4,96.1,108,97.4,107.5z M84.1,36.1c-0.1,0-0.2,0-0.4-0.1c-0.3,1.5-0.6,3-0.8,4.5
		c-0.1,0.8,0.6,0.7,1,0.9c0.1,0.1,0.6-0.3,0.7-0.6C85.1,39.1,84.7,37.6,84.1,36.1z M63.6,96.1c0.3,1.5,3.4,4.1,4.9,4
		C66.8,98.7,65.2,97.5,63.6,96.1z M66.6,105.2c-1.4-0.6-2.7-1.2-4.1-1.8C63,105.1,65.2,106.1,66.6,105.2z M46.8,43.3
		c0.1,0,0.2,0,0.3,0c-0.2-0.8-0.5-1.6-0.8-2.7C45.7,41.8,46.5,42.5,46.8,43.3z"/>
	<path class="st0" d="M69.5,52.9c-2.1,0.4-4.1,0.8-6.1,1.1c-0.5,0.1-1,0-1.5-0.2c-1.4-0.4-2.8-0.8-4.3-1.2c0,0.1,0,0.1,0,0
		c1.2-1.3,2.6-2.2,4.3-2.6c1-0.2,2.1,0.5,3.1,0C66.6,51,68.4,51.2,69.5,52.9z M67.1,52.6c0-0.1,0-0.2,0-0.3c-2.3,0-4.6,0-7.1,0
		C62.4,53.9,64.8,53.6,67.1,52.6z M67.1,51.6c-1.2-0.3-2-1.5-3.3-0.7c-0.1,0.1-0.5,0-0.6-0.1c-1.1-0.6-2-0.1-3,0.8
		C62.5,51.6,64.7,51.6,67.1,51.6z"/>
	<path class="st0" d="M60.1,37.2c-2.1,0.9-4,0.7-6,0.5c-0.9-0.1-1.8-0.5-2.7-0.9c-0.1-0.1-0.2-0.6-0.1-0.8c0.3-0.3,0.7-0.6,1.1-0.8
		c1-0.5,2-1,3-1.2c0.7-0.2,1.5,0,2.2,0.3C58.9,34.9,59.6,36,60.1,37.2z M57.8,35.4c-1.3,1.8-2,1.8-3.7-0.2c-0.6,0.3-1.3,0.7-2,1
		c1.2,1.1,5.3,1.3,7,0.3C58.7,36.2,58.3,35.8,57.8,35.4z"/>
	<path class="st0" d="M71.6,38.2c-1.1-0.2-2.1-0.4-3.1-0.7c-0.2,0-0.4-0.6-0.3-0.8c0.6-1.4,1.7-2.2,3.3-2.1c1,0,2,0,2.8,0.3
		s1.4,1.1,2.1,1.7c0.1,0.1-0.1,0.6-0.3,0.7C74.6,37.7,73.1,37.9,71.6,38.2z M75.3,36.9c0-0.1,0.1-0.2,0.1-0.4
		c-0.6-0.4-1.3-0.8-1.9-1.2c-0.1,0.1-0.2,0.1-0.3,0.2c1,0.8-0.1,1.3-0.4,2C73.8,37.3,74.6,37.1,75.3,36.9z M70.5,35.5
		c-0.6,0.3-1.5,0.6-1.3,1.3c0.1,0.3,1.1,0.5,1.8,0.7C70.8,36.8,70.6,36.2,70.5,35.5z"/>
	<path class="st0" d="M61.2,42.5c-0.6,0.7-1.7,1.1-1.4,2.3c0.1,0.3,0.4,0.6,0.8,1c0.3-1.1,0.8-0.9,1.5-0.7c0.7,0.3,1.6,0.4,2.4,0.5
		c0.2,0,0.5-0.3,0.6-0.5c0.4-0.7,1-0.6,1.3-0.3c0.7,0.7,1.4,0.5,1.7,0c0.3-0.4,0-1.2-0.1-1.7c-0.1-0.3-0.4-0.5-0.8-0.9
		c1.3,0.3,1.7,0.9,1.8,2c0.1,1-0.6,1.4-1.4,1.5c-1.4,0.2-2.8,0.2-4.3,0.2c-0.4,0-0.8,0.1-1.1,0.1c-1.5,0.4-3.2-0.6-2.9-2.1
		C59.5,43.2,60.3,42.4,61.2,42.5z"/>
	<path class="st0" d="M54.9,32.4c-1.2,0.4-2.4,0.7-3.6,1.1c-0.3,0.1-0.7,0-1,0c0.2-0.3,0.4-0.6,0.7-0.7c1.7-1.1,3.6-1.1,5.6-0.9
		c0.2,0,0.4,0.3,0.6,0.4c-0.2,0.2-0.4,0.4-0.6,0.4c-0.5,0.1-1,0-1.5,0C54.9,32.6,54.9,32.5,54.9,32.4z"/>
	<path class="st0" d="M71.9,33.9c-0.3-0.1-1.2-0.4-1.2-0.5c0.1-0.9,0.9-0.4,1.4-0.5c1.6-0.4,3.2-0.7,4.8-1c0.2,0,0.5,0.1,0.8,0.1
		c-0.1,0.2-0.2,0.4-0.3,0.6c-0.1,0.1-0.3,0.3-0.5,0.3C75.3,33.2,73.7,33.5,71.9,33.9z"/>
</g>
</svg>
