<?xml version="1.0" encoding="utf-8"?>
<!-- Generator: Adobe Illustrator 19.2.0, SVG Export Plug-In . SVG Version: 6.00 Build 0)  -->
<svg version="1.1" id="Layer_1" xmlns="http://www.w3.org/2000/svg" xmlns:xlink="http://www.w3.org/1999/xlink" x="0px" y="0px"
	 viewBox="0 0 183.9 223.3" style="enable-background:new 0 0 183.9 223.3;" xml:space="preserve">
<style type="text/css">
	.st0{fill:#8BC34A;}
</style>
<g id="sinus-allergy-girl">
	<path class="st0" d="M50.1,223.3c-0.2-2.6-0.3-5.3-0.6-7.9c-0.2-1.9-0.6-3.9-0.8-5.8c-0.3-3.3-0.4-6.6-0.6-10
		c-0.2-2.8-0.3-5.7-0.5-8.5c0-0.6-0.2-1.1-0.6-1.7c-0.2,0.4-0.5,0.8-0.7,1.2c-1.9,3.1-3.5,6.5-5.7,9.3s-5,5.1-8.9,5.8
		c-2.9,0.6-5.6,1.8-8.4,2.6c-1.1,0.3-2.4,0.5-3.5,0.3c-4.3-0.5-8.4-1.9-11.6-4.7c-1.7-1.5-2.7-3.9-3.5-6.1c-0.6-1.6-0.4-3.6-0.7-5.3
		c-0.2-1.1-0.6-2.3-1.3-3.2c-1.4-1.6-2.2-3.4-2.5-5.4c-0.7-4.6,0-8.9,2.6-13c4.5-7.1,9.9-13.5,15.4-19.8c1.8-2.1,4.1-3.8,6.1-5.8
		c3.2-3.2,5.5-6.9,6.3-11.4c0.3-1.7,1.1-3.3,1.7-4.9c1.1-2.7,2.1-5.5,3.6-7.9c2.4-3.9,5-7.8,7.9-11.3c2.8-3.4,6.5-5.7,10.7-7.2
		c1.5-0.6,2.3-1.4,2-3.1c-0.3-2-0.4-4.1-0.7-6.1c-0.6-3.9-1.2-7.7-1.8-11.5c-0.1-0.7-0.2-1.6,0.1-2.2c1-2.4,2.2-4.8,3.2-7.2
		c0.4-1,0.9-2.1,1-3.2c0.3-5.6,0.8-11.2,2.1-16.7c0.1-0.5,0.3-0.9,0.4-1.4c0.3-1.4,1.1-2,2.4-1.7s1.6-0.3,1.7-1.5
		c0.5-6.3,0.8-12.6,1.9-18.8c1.4-8.1,5.4-15.1,12.1-20c2.4-1.8,5.4-2.7,8.1-4c2-1,4-1.9,6-2.8c1.2-0.6,2.5-1.3,3.8-1.5
		c5.1-1,10.2-1.1,15.4-0.4c6.8,0.8,12.7,3.4,18.2,7.3c2.6,1.9,4,4.6,5.8,7.1c4.3,6,6.6,12.8,9,19.7c1.6,4.7,3.6,9.3,5.2,14
		c1.6,4.7,3,9.2,3.3,14.1c0.2,3.6,1.1,7.2,0.3,10.8c-0.9,4.3-2,8.5-3.1,12.7c-0.2,0.9-0.8,1.7-1.2,2.6c-1.1,2.5-2.5,4.9-3.3,7.5
		c-0.9,3.1,0.5,5.4,4.1,5.8c3,0.3,5.9,0.2,8.7-0.7c0.7-0.2,2.1,0,2.4,0.5c1.3,1.9,3.3,2.4,5.2,3.4c0.5,0.3,1,0.5,1.6,0.7
		c3.7,1.3,6,4.1,8.1,7.4c2.3,3.7,3.4,7.6,3.3,11.7c-0.1,4.4,0.9,8.5,1.8,12.7c0.5,2.2,0.6,4.5,0.9,6.8c0.3,1.5,0.7,3,1.1,4.4
		c0.7,2.4,0.5,4.5-1.5,6.5c-1.4,1.4-2.3,3.5-2.9,5.4c-1.3,4.5-1.9,9.1-3.3,13.6c-1.3,4-1.6,8.1-1.8,12.2c-0.3,5.5-2.9,9.6-7.4,12.7
		c-1.7,1.1-2.8,2.6-3.1,4.7c-0.4,3.4-1.1,6.8-1.5,10.3c-0.3,3-0.5,6.1-0.7,9.1c-0.4,0-0.8,0-1.1,0c0-0.4,0-0.8,0-1.1
		c0-5,0.5-9.9,1.9-14.7c0.3-1.1,0.2-2.4,0.2-3.7c-2.6,2.2-4.7,4.2-7.1,5.9c-3.1,2.2-6.5,3.3-10.3,2.8s-7-2.5-9.8-4.8
		c-2-1.6-3.6-4.1-4.6-6.7c-1.5-4.2-2.9-8.4-4.1-12.7c-0.8-2.8-1.3-5.7-1.9-8.6c-0.6-2.8-1.2-5.6-1.8-8.5c-0.6-3.4-1.1-6.7-1.7-10.1
		c-0.5-3.2-1-6.5-1.4-9.7c-0.1-0.5-0.2-1-0.3-1.6c-2,1.4-3.9,2.6-5.7,3.8c-3.2,2-6.3,4.4-9.7,6c-4.6,2.2-9.5,2.7-14.1-0.1
		c-4.9-3-9.7-6.2-12.1-11.8c-0.1-0.2-0.2-0.4-0.3-0.5c-2.5-2.6-3.3-6-4.2-9.2c-0.2-0.9-0.6-1.4-1.4-1.7c-2-0.7-3.7-2-4.8-3.9
		c-0.4-0.7-0.5-1.7-0.7-2.5c0.7-0.2,1.4-0.4,2.1-0.4c3.4-0.1,3.4-0.6,2.9-3c0-0.2,0-0.4,0-0.6c-0.4-2.6-0.8-5.3-1.1-7.9
		c-0.2-0.1-0.4-0.1-0.6-0.2c-0.1,0.2-0.2,0.4-0.3,0.6c-1,2.3-2.1,4.7-3.1,7c-0.6,1.5-1.3,3-1.8,4.6c-1.1,3.7-2.1,7.5-3.1,11.2
		c-0.4,1.6-1,3.1-1.4,4.6c-1.4,5.4-2.8,10.7-2.6,16.5c0.2,6.1-0.8,12.4-3.9,18.1c-1.2,2.2-2.6,4.4-3.9,6.6c-0.3,0.6-0.7,1.3-0.7,1.9
		c0,1.8,0.2,3.6,0.4,5.4c0.6,5.8,0,11.6,1.2,17.3c0.2,1,0.3,2.1,0.3,3.1c0.2,2.9,0.4,5.8,0.6,8.7C50.9,223.3,50.5,223.3,50.1,223.3z
		 M131.8,81.8c-0.2-0.1-0.4-0.2-0.6-0.3c0.2-1.2,0.6-2.4,0.7-3.6c0.4-3.1,1.1-6.1,1.2-9.2c0.3-6.3,0.2-12.5,0.3-18.8
		c0-1.4-0.4-1.9-1.9-1.9c-1.2,0-1.9,0.5-2.1,1.8c-0.1,0.7-0.5,1.4-0.6,2.2c-0.2,0.8-0.3,1.6-0.4,2.4c-0.1,1.7-0.2,3.4-0.4,5.1
		c-0.3,2.1-0.7,4.2-1,6.3c-0.2,1.3,0.1,3-0.6,3.7c-1.6,1.6-2.3,3.5-3.3,5.4c-2.4,4.8-5.1,9.4-6.7,14.6c-1.1,3.4-1.6,7-1.1,10.5
		c0.3,2.6,1.4,5.1,1.7,7.6c0.6,4.5,0.8,9.1,1.2,13.6c0.3,4.5,0.6,9,1,13.5c0.3,4.6,0.7,9.2,1.1,13.8c0.2,2.6,0.4,5.3,0.8,7.9
		c0.4,2.4,1.1,4.8,1.4,7.3c0.6,3.7,0.9,7.4,1.5,11c0.3,1.9,1,3.7,1.5,5.5c1.5,5.5,2.8,11,4.5,16.5c1.5,4.9,4.5,9,8.6,12.2
		c3,2.3,6.6,3.4,10.3,2.6c3.5-0.8,6.5-2.7,9.3-5.1c1.5-1.3,2.3-2.8,2.1-4.8c-0.2-1.3-0.2-2.6-0.3-4c0-0.5,0-1,0-1.4
		c0.2,0,0.4-0.1,0.6-0.1c0.2,1,0.5,2,0.5,3c0.1,1,0,2.1,0,3.2c0.6-0.2,0.8-0.4,1-0.6c1.1-1,2.1-2.2,3.4-3c4.3-2.7,7-6.5,7.3-11.6
		c0.3-4.8,0.8-9.5,2.3-14.1c1.1-3.4,1.7-7,2.6-10.5c0.5-2.2,1.3-4.4,1.6-6.6c0.5-2.9,0.5-6,1-8.9c0.3-2.4-0.3-4.4-2.2-5.8
		c-4.2-3.2-9.2-4.5-14-6.5c-0.3-0.1-0.7-0.1-1-0.1c-3.1,0.2-6.3,0.3-9.4,0.7c-2.6,0.3-4.8,1.3-6.7,3.1c-0.6,0.6-0.6,1.1-0.2,1.7
		c0.3,0.4,0.7,0.8,1,1.2c1,1.5,2.5,2.8,2.9,4.5c1,4.5,3.9,7.7,6.5,11.1c2,2.6,4.4,4.9,6.2,7.6c3,4.4,4.7,9.4,6.1,14.5
		c0.1,0.5,0,1,0,1.5c-0.1,0-0.3,0-0.4,0c-0.8-2.4-1.7-4.9-2.5-7.3c-1.7-4.8-4.1-9.2-7.7-12.9c-1.3-1.4-2.6-2.8-3.7-4.4
		c-1.8-2.6-3.6-5.3-4.9-8.1c-0.9-2.2-1.9-4.2-3.4-6c-0.8-0.9-1.7-1.8-2.1-2.8c-1-2.6-1.7-5.4-2.7-8.1c-1.6-4.4-3.4-8.7-5-13
		c-1.1-2.9-2.3-5.9-3-8.9c-0.4-1.7-1-3.1-2.2-4.3c-0.6-0.5-1-1.3-1.5-2c0.1-0.1,0.2-0.2,0.3-0.2c0.9,1.1,1.9,2.2,2.9,3.5
		c0.5-2.2,0.7-4.1,1.4-5.7c2.8-6.4,6.7-12.2,10.3-18.2c0.6-1,0.8-1.9,0.1-2.9c-1.3-2-2.7-3.9-3.8-6c-1.8-3.2-4.1-6-5-9.6
		c-0.5-2.2-1.8-4.2-2.8-6.2c-0.1,0-0.3,0.1-0.4,0.1c0,1.4,0.1,2.7,0,4.1c-0.2,2.6,0.7,4.9,1.9,7.1c0.9,1.8,1.5,3.7,2.6,5.4
		c2.2,3.2,1.8,6.4,0.3,9.7c-0.1,0.2-0.2,0.4-0.4,0.6c-0.1,0-0.2-0.1-0.3-0.1c0.4-1.2,0.6-2.4,1.1-3.5c0.7-1.4,0.6-2.7-0.1-4.1
		c-0.6-1.1-1-2.3-1.6-3.5c-0.9-1.8-1.9-3.6-2.9-5.5c-0.1,0-0.2,0.1-0.4,0.1c0,0.3-0.1,0.5-0.1,0.8c0.4,4.2-0.5,8.3-1.3,12.4
		C132.3,80.9,132,81.3,131.8,81.8z M59,72.8c-0.2-0.1-0.3-0.2-0.5-0.3c-0.2,0.3-0.4,0.5-0.5,0.8c-1,2.2-2,4.4-2.9,6.7
		c-0.2,0.4-0.2,0.9-0.1,1.3c0.4,2.8,0.8,5.6,1.2,8.3c0.5,3.5,0.9,7.1,1.4,10.6c0.1,1.1-0.3,1.8-1.2,2.5c-0.8,0.6-1.4,1.6-1.7,2.5
		c-1.1,3.4-2.6,6.6-4.9,9.4c-1.9,2.4-3.6,4.9-5.2,7.5c-3.7,5.8-7.6,11.3-12.5,16.2c-1.6,1.7-3.1,3.5-4.7,5.2
		c-1.7,1.8-3.4,3.7-5.2,5.5c-0.9,0.9-2.1,1.7-3,2.7c-5.5,6.5-11.1,13-15.7,20.3c-2.8,4.5-3.2,9.2-1.5,14.2c0.3,0.8,0.8,1.5,1.4,2.1
		c1.2,1.2,1.7,2.6,1.7,4.2c0,3.4,0.8,6.5,2.6,9.3c0.5,0.7,1.1,1.3,1.8,1.8c2.5,2,5.6,2.8,8.6,3.6c1.5,0.4,3.2,0.4,4.6,0.1
		c2.9-0.7,5.7-2.1,8.6-2.7c3.5-0.7,5.9-2.9,8.2-5.3c2.4-2.5,4.3-5.4,4.9-9c0.4-2.5,1.5-4.8,2.2-7.2c1.8-5.8,3.4-11.7,5.3-17.5
		c1.9-5.8,4.7-11.1,6.1-17.1c1.8-7.6,3.9-15.2,6.8-22.6c1.2-3,2.7-6,4-9c1.4-3.5,4.2-5.9,6.3-8.9c0.5-0.7,0.9-1.7,1.6-2.1
		c1.5-1,2.1-2.4,2.1-3.9c0.1-2.4-0.1-4.8-0.3-7.3c-0.1-0.7-0.4-1.5-0.9-2c-2-2.3-4.1-4.4-6.1-6.7c-2.5-3-4.6-6.1-5.7-10
		c-1.5-5.5-1.9-11-1.5-16.6c0.2-2.3,0.4-4.5,0.5-6.8c0.1-0.8,0.2-1.8-1-2c-1.7-0.2-2-0.1-2.4,1.5c-1.3,4.9-1.8,10-2,15.1
		c-0.2,5.5-0.2,10.9-0.3,16.4c0,0.5-0.1,1-0.2,1.4c-0.1,0-0.3-0.1-0.4-0.1C58.7,80.9,58.9,76.9,59,72.8z M86.1,27.3
		c-1.6,0.1-2.8,0.2-3.9,0.2c-2.8,0-5.1,1.3-6.4,3.7c-1.4,2.7-2.2,5.7-3.2,8.6c-0.4,1,0.1,1.8,0.6,2.7c0.4,0.8,0.4,1.9,0.8,2.8
		c0.9,2,0.9,3.9,0.4,6c-0.3,1.4-0.6,2.9-0.7,4.3c-0.1,1.6-0.1,3.2-0.2,4.8c0,3.1-0.4,6.2,0.2,9.2c0.7,3.8,2.1,7.6,3.5,11.2
		c1.1,2.8,2.5,5.6,4.3,8.1c1.9,2.7,4.2,5.1,6.4,7.4c2.2,2.2,5,3.5,8.2,3.4c1.4,0,2.9,0,4.3,0c4.3,0,8.2-1.4,11.9-3.5
		c1.4-0.8,2.2-1.9,2.4-3.6c0.2-1.5,0.8-2.9,1.2-4.4c1.2-4.2,3.2-8.1,5.4-11.9c1.2-2.1,1.5-4.8,3.6-6.3c1.1-0.8,1-1.8,0.5-2.9
		c-0.4-1.1-0.9-2.2-1.2-3.3c-0.8-4.1-1.7-8.1-2.1-12.2c-0.3-2.8-1.1-6.3,3-7.7c-1.9-1.9-3.8-3.6-5.6-5.4c-2.4-2.3-5.3-3.2-8.5-3.4
		c-1.5-0.1-2.9-0.7-4.4-1.2c-1.4-0.4-2.9-1.1-4.3-1.2c-2.7-0.3-5.2-0.8-7.6-2.2c-1.2-0.7-2.6-1-4-1.6c-0.5-0.2-1-0.4-1.4-0.7
		c-1.5-1.6-2.9-3.4-4.5-4.9c-1.3-1.2-2.8-2.1-4.3-3c-0.4-0.3-1.1,0-1.7,0c0.3,0.5,0.6,1.2,1,1.4C82.5,22.9,84,25.2,86.1,27.3z
		 M145.3,136.4c1-2.6,1.6-4.8,2.6-6.8c1.2-2.3,2.8-4.5,4.3-6.7c0.2-0.3,0.8-0.3,1.2-0.4c-0.1,0.4-0.1,0.8-0.2,1.2
		c0,0.2-0.2,0.3-0.4,0.4c-2.9,3.4-4.8,7.3-6,11.9c0.4-0.3,0.5-0.4,0.7-0.6c1.6-2.1,3-4.4,4.7-6.4c1.6-1.9,3.6-3.7,5.4-5.4
		c0.3-0.3,0.8-0.3,1.2-0.4c0.1,0.2,0.2,0.3,0.3,0.5c-1.7,1.6-3.5,3.1-4.9,4.9c-1.5,1.8-3.2,3.4-4.4,5.6c2.8-0.3,5.4-0.5,7.9-0.8
		c3.7-0.4,7.3-0.4,10.6,1.7c0.6,0.4,1.4,0.4,2,0.8c3,1.6,5.9,3.1,8.8,4.8c0.6,0.3,1.1,1,1.6,1.5c0.1-0.1,0.2-0.1,0.4-0.2
		c-0.1-0.9-0.1-1.7-0.3-2.6c-1.2-5.5-2.6-10.9-2.4-16.6c0.2-3.5-1.7-6.3-3.3-9.3c-1.6-3.1-3.9-5.2-7.1-6.5c-2.5-1-5.3-1.6-6.9-3.9
		c-3.8,2.8-7.6,5.5-11.4,8.4c-0.7-0.7-0.1-1.3,0.6-1.7c2.6-1.8,5.2-3.6,7.9-5.4c0.7-0.5,1.3-1,2-1.6c-2.2,0.1-4,0.3-5.9,0.4
		c-0.2,0-0.4,0.3-0.6,0.4c-0.4,0.2-0.9,0.4-1.3,0.5c-0.9,0.3-1.8,0.5-2.6,1c-0.8,0.4-1.4,1-2.1,1.5c-3.3,2.4-6.5,4.9-8.5,8.5
		c-0.6,1-0.8,2.4-0.7,3.6c0.1,1.3,0.8,2.6,1.3,3.9c1.4,3.6,2.8,7.2,4.2,10.7C144.4,134,144.8,135.1,145.3,136.4z M91,99.9
		c0.1,0.6,0.1,0.9,0.2,1.2c1.5,8.6,4.6,16.6,7.8,24.7c1,2.6,0.8,5.3,0.3,7.9c-0.3,1.7-0.9,3.3-1.5,4.9c-0.2,0.7-0.6,1.4-1.1,2
		C94,144,90.3,144,86.6,143c-1.9-0.5-3.7-1.6-5.6-2.5c0,0.1-0.1,0.3-0.1,0.5c1.3,2.5,2.1,5.2,4.5,7c1.1,0.8,2.2,1.7,3.2,2.6
		c2.4,2,5.1,2.7,8.1,2.5c3.8-0.3,7.3-1.8,10.5-3.7c2.3-1.3,4.2-3.2,6.5-4.9c-0.6-0.4-1-0.9-1.4-1c-2.1-0.5-3.2-2-4.2-3.8
		c-0.3-0.5-0.6-1-1-1.4c-2.1-2.1-2.9-4.8-2.5-7.5c0.4-2.6,1.3-5.2,2.4-7.7c2-4.4,4.8-8.4,8.8-11.4c0.3-0.2,0.6-0.8,0.6-1.1
		c0-1.1-0.1-2.3-0.4-3.4c-1.1-3.3-1.9-6.7-1.8-10.2c0-0.1-0.1-0.1-0.2-0.3c-3.4,2-7,3.7-11,4C99.1,100.9,95.1,101.3,91,99.9z
		 M97.1,160.3c3.3-0.2,6.9-1.3,10.2-3.6c2.3-1.5,4.6-3,6.9-4.6c1.6-1.2,3.2-2.4,4.6-3.8c0.9-0.9,0.7-2.7-0.2-2.9
		c-2.3-0.3-4.7-0.9-6.5,1.3c-0.6,0.7-1.4,1.3-2.2,1.8c-1.2,0.9-2.5,1.8-3.8,2.4c-2,0.9-4.1,1.8-6.2,2.4c-1.5,0.4-3.1,0.7-4.6,0.5
		c-2.9-0.3-5.7-1-7.9-3.2c-0.9-0.9-2-1.5-2.9-2.2c-2.6-1.9-3.9-4.7-4.9-7.5c-0.7-1.8-1.2-3.1-3.1-3.6c-1.2-0.3-1.6-0.1-1.5,1.1
		c0,0.4,0.1,0.9,0.3,1.2c1.7,3.5,3.4,7.1,5.2,10.6c0.2,0.5,0.6,0.8,1,1.2c2,1.8,4,3.6,6.2,5.3C90.1,158.9,93.1,160.2,97.1,160.3z
		 M53.7,104.1c-0.9,0.4-1.5,0.7-2,1c-4.7,2.7-8.3,6.3-11.2,10.9s-5.6,9.3-7.5,14.3c-0.1,0.3-0.1,0.6-0.2,1c1.8-0.4,3.3-0.7,4.9-1.1
		c0.3-0.1,0.6-0.3,0.8-0.6c1-1.4,2-2.8,3-4.2c2.8-4.4,5.4-8.9,8.9-12.9c1.6-1.9,2.3-4.5,3.4-6.8C53.7,105.3,53.6,104.9,53.7,104.1z
		 M67.6,78.2c0.1,0,0.2,0,0.3,0c0.1-0.3,0.2-0.6,0.2-0.9c-0.1-1.4-0.3-2.8-0.5-4.2c-0.2-1.8-0.2-3.6,0.9-4.9
		c1.3-1.6,1.5-3.3,1.8-5.2c0.3-2.3,1-4.5,1.6-6.7c0.5-1.6,0.9-3.3,1.6-4.8c0.8-1.8,0.7-3.5,0-5.2c-0.5-1.2-1.5-1.4-2.4-0.5
		c-0.6,0.6-1.2,1.5-1.5,2.3c-1.4,4.1-2.6,8.2-3.9,12.3c-0.9,2.7-1,5.5-0.6,8.2c0.3,2.1,0.9,4.3,1.4,6.4C67,76,67.3,77.1,67.6,78.2z
		 M126.2,44.7c-1.8,0.1-3.1,0.6-3.3,2.4c-0.2,1.2-0.3,2.4-0.1,3.5c0.7,4.5,1.4,9,2.2,13.5c0.2,1,0.7,2,1,2.9c0.2,0,0.3-0.1,0.5-0.1
		c0-0.5,0.1-1,0.2-1.5c0.3-2,0.7-3.9,0.9-5.9c0.2-2.1,0.2-4.2,0.2-6.3c0-0.4-0.2-0.8-0.2-1.2C127.1,49.6,126.7,47.2,126.2,44.7z
		 M56.1,159.4c-0.2,0-0.3-0.1-0.5-0.1c-3.3,8.5-6.2,17.2-7.8,26.3c0.8-0.8,1.5-1.7,2.1-2.7c1.3-2.5,2.8-5,3.8-7.7
		c0.7-2.1,0.7-4.5,1-6.7C55.1,165.4,55.6,162.4,56.1,159.4z M73.1,128.1c1.7-1.8,3.4-3.4,3.3-5.7c-0.1-3-0.4-6-0.7-8.9
		c-0.1-0.6-0.2-1.1-0.4-1.6c-0.1-0.2-0.6-0.5-0.9-0.4c-1.3,0.4-3.1,3.1-2.9,4.5c0.3,2.6,0.7,5.2,1,7.7
		C72.7,125,72.8,126.3,73.1,128.1z M77.3,90.3c0.1-1.7,0.2-3.1,0.3-4.6c0-2.5-1.6-4.4-2.7-6.4c-0.1-0.1-0.3-0.2-0.5-0.3
		c-2.4-0.9-3.9,0.2-3.7,2.7c0.3,2.7,2.5,4.4,4.1,6.4C75.4,88.9,76.3,89.5,77.3,90.3z M142.4,50.6c-0.8-1.7-2.7-1.9-4-0.4
		c-1.3,1.4-2.5,3-3.7,4.5c-0.3,0.4-0.5,1-0.4,1.4c0.8,1.7,1.8,3.4,2.8,5.4c0.7-2.7,1.3-5.2,1.8-7.6c0.3-1.5,1-2.4,2.4-2.9
		C141.7,50.9,142.1,50.8,142.4,50.6z M72.9,58.3c-0.2,0-0.4-0.1-0.5-0.1c-0.9,2-1.5,4.1-1.4,6.3c0,1.2-0.3,2.1-1.1,3.1
		c-0.7,1-1.3,2.4-1.3,3.6c-0.1,2.8,0.1,5.6,0.2,8.4c0,0.4,0.2,0.8,0.4,1.2c0.1,0,0.2,0,0.4,0C70.6,73.3,71.8,65.8,72.9,58.3z
		 M70.4,78.4c1.5-0.2,2.9-0.4,4.5-0.6c-0.8-3.3-1.6-6.5-2.3-9.6C71.8,71.6,71.1,75,70.4,78.4z M137.6,62.2c0.1,0.1,0.2,0.1,0.2,0.2
		c0.3-0.3,0.6-0.6,0.8-0.9c1-1.5,2.1-3,3-4.6c0.6-1,1.1-2.1,1.4-3.2c0.1-0.5-0.4-1.2-0.6-1.9c-0.7,0.4-1.8,0.7-2,1.2
		C139.4,56,138.5,59.1,137.6,62.2z M128.6,51.1c0.2-0.7,0.3-1.1,0.4-1.6c0.1-0.4,0.2-0.9,0.5-1.3c0.8-1.1,0.8-2.7-0.2-3.6
		c-0.4-0.3-1.1-0.5-1.6-0.4c-0.3,0-0.8,0.6-0.8,0.8C127.2,47,127.2,49.1,128.6,51.1z M31.1,137.8c2.3-1.6,3.9-3.7,5.4-6
		C32.8,131.5,31,133.5,31.1,137.8z M71,45.1c0.4-0.1,0.7-0.2,1-0.3c0.9-0.2,0.9-1,0.8-1.7c-0.1-0.3-0.4-0.5-0.6-0.7
		c-0.4,0.5-0.8,0.9-1.1,1.4C70.8,44.1,71,44.5,71,45.1z"/>
	<path class="st0" d="M107,84.3c-1,0.8-1.9,1.6-2.9,2.1c-1.4,0.6-2.9,1.1-4.4,1.4c-3,0.5-5.9,0.2-8.7-1c-1.5-0.6-2.7-2-4-3.1
		c-0.1-0.1-0.1-0.8,0.1-0.9c2-2.2,4.5-2.6,7.3-2c0.5,0.1,1,0.3,1.4,0.2c4.1-1.1,7.5,0.7,10.7,2.8C106.8,83.9,106.9,84.1,107,84.3z
		 M105.4,84.6c0-0.2,0-0.4,0-0.5C99.7,84,94,83.8,88,83.7C91.5,88.4,101.5,88.8,105.4,84.6z M87.3,83.3c6.1,0,11.7,0,17.4,0
		c0.1-0.3-0.1-0.3-0.3-0.4c-2.6-1.3-5.2-2.7-8.3-1.7c-0.5,0.1-1.1,0-1.7-0.1C91.8,80.6,89.5,80.9,87.3,83.3z"/>
	<path class="st0" d="M101.2,69.6c1.2,0.3,1.5,1.1,1.7,2c0.2,1.2,0.1,2.6-1.1,3.1c-2.8,1.3-5.7,1.7-8.7,1c-1-0.3-2.1-0.7-3.1-1.1
		c-1.7-0.6-2.2-2.9-1-4.7c2.6-3.9,2.4-8.5,2.6-12.9c0.1-2.1-0.2-2.2-2.6-3.5c1.5,0,2.8,0.8,2.8,2.3c0.1,2.5-0.1,5-0.3,7.5
		c-0.2,1.7-0.6,3.3-1,5c-0.1,0.6-0.5,1.2-0.9,1.7c-0.8,1-0.9,2.6-0.1,3.8c1-0.7,1.7-0.7,2.4,0.7c0.3,0.6,1.6,0.9,2.4,1.1
		c0.7,0.2,1.4,0.1,2.2,0.2c-0.3-1.5,0.8-1.8,1.7-1.9c0.5-0.1,1.1,0.5,2,1C102.6,74.4,102.9,73.4,101.2,69.6z"/>
	<path class="st0" d="M102.1,52.7c0.4-0.3,0.8-0.7,1.3-0.8c4.4-1.1,8.8-2.2,13.2-3.1c0.6-0.1,1.4,0.4,2,0.6
		c-0.6,0.4-1.2,1.1-1.8,1.2c-2.4,0.4-4.8,0.4-7.2,0.8c-2,0.4-4,1.2-6,1.7c-0.4,0.1-0.9,0.1-1.3,0.2
		C102.2,53.1,102.1,52.9,102.1,52.7z"/>
	<path class="st0" d="M110.5,60.5c-1.3-0.5-2.5-1-3.8-1.5c-1-0.4-2-0.7-3-1.1c-0.3-0.1-0.5-0.3-0.7-0.5c0.3-0.2,0.6-0.5,0.8-0.5
		c1,0.2,2,0.4,2.8,1c2.1,1.6,4.1,1.3,6.3,0.5c1.2-0.5,2.3-1.1,3.5-1.6c0.3-0.1,0.6,0.1,1,0.1c-0.1,0.3-0.1,0.7-0.3,0.8
		c-2,1.2-3.9,2.7-6.4,2.6C110.6,60.3,110.5,60.4,110.5,60.5z"/>
	<path class="st0" d="M88,54.3c-3.8-1.3-7.4-2.6-11-3.9c0-0.2,0.1-0.3,0.1-0.5c0.5,0,1.1-0.1,1.6,0c3,0.7,5.9,1.6,8.9,2.3
		C88.6,52.4,88.7,53.2,88,54.3z"/>
	<path class="st0" d="M78.6,56.4c1,0.7,1.8,1.4,2.8,1.9c1.4,0.6,2.8,0.5,4.2-0.3c1-0.5,2.1-0.8,3.3-1.3c0.1,0.4,0.1,0.6,0.1,0.6
		c-2.6,1.4-5.1,2.9-8.2,2C80,59.2,78.7,57.4,78.6,56.4z"/>
</g>
</svg>
