<?xml version="1.0" encoding="utf-8"?>
<!-- Generator: Adobe Illustrator 19.2.0, SVG Export Plug-In . SVG Version: 6.00 Build 0)  -->
<svg version="1.1" id="Layer_1" xmlns="http://www.w3.org/2000/svg" xmlns:xlink="http://www.w3.org/1999/xlink" x="0px" y="0px"
	 viewBox="0 0 150 251.2" style="enable-background:new 0 0 150 251.2;" xml:space="preserve">
<style type="text/css">
	.st0{fill:#E91E63;}
</style>
<g id="sorethroat-boy-flu">
	<path class="st0" d="M10.6,251.2c-0.2-2.5,0.3-4.9,1.3-7.2c0.2-0.4,0.3-0.8,0.3-1.2c-0.2-2.1-0.4-4.1-0.7-6.2c-0.3-2-0.4-4.1-1-6.1
		c-1-3.4-0.5-6.8-0.5-10.2c0-2.9,1.3-5.4,2-8.2c0.6-2.6,1.4-5.1,2.7-7.5c1.1-2,1.2-4.2,0.8-6.5c-0.6-3.3-0.8-6.6-1.5-9.9
		c-0.6-2.8-1.4-5.6-1-8.6c-3.8-1.6-7.6-3.2-11.4-4.8c-1.4-0.6-2-1.5-1.3-3c2.9-6,4.2-12.4,5.3-18.9c0.4-2.4,1.1-4.8,1.5-7.2
		c0.5-3.7,0.9-7.4,1.3-11.1c0.2-1.9-0.1-3.9,0.1-5.8c0.2-1.9,0.6-3.8,0.9-5.7c0-0.1,0.1-0.3,0.1-0.4c-0.1-2.4,0.8-4.6,1.5-6.8
		c0.4-1.3,0.4-2.8,0.9-4.1c1.3-3.8,3.7-6.4,7.8-7.6c4.3-1.2,8.7-2.5,12.8-4.4c2.3-1.1,4.9-1.5,7.4-2.2c0.8-0.2,1.6-0.7,2.5-0.9
		c1.7-0.4,3.3-0.7,5-1.2c1.4-0.4,2.7-1,4-1.6c0.2-0.1,0.5-0.3,0.7-0.4c1.8-0.9,1.9-0.9,1.2-2.8c-1.3-3.6-2.7-7.2-4.1-10.7
		c-1.1,0.4-1.8,0.8-2.6,0.9c-2.4,0.3-3.5-0.3-4.5-2.7c-1.5-3.4-3.1-6.8-4.1-10.4c-0.9-3.2-2.1-6.2-3.4-9.2c-0.6-1.4-1.3-2.8-0.2-4.3
		c1.1-1.6,1.8-1.9,3.7-1.4c0.5,0.1,1,0.3,1.6,0.5c-0.1-0.5-0.1-0.9-0.2-1.3c-0.9-2.7-1.5-5.3-1-8.2c0.4-2.2,0.3-4.5,0.5-6.7
		c0.3-2,0.8-4.1,1.1-6.1c0.5-2.4,0.7-4.9,1.5-7.2c0.9-2.5,2.4-4.8,3.7-7.2c0.1-0.3,0.4-0.5,0.5-0.7c2.8-4.9,7-8.1,12-10.4
		c3-1.3,5.9-2.9,9.1-3.6c1.1-0.2,2.2-0.7,3.3-1.1c3-1.2,6-1.1,9.1-0.6c1.1,0.2,2.3,0.4,3.4,0.4c3.1,0,6,0.8,8.9,2.1
		c2.4,1.1,5,1.8,7.3,2.9c2.3,1.1,4.5,2.5,6.5,4c2.1,1.6,3.5,3.8,4.5,6.3c1.4,3.7,3.6,7.1,4.5,11c0.7,3,1.7,5.9,2.5,8.9
		c0.2,0.7,0.2,1.5,0.2,2.3c0.1,2,0.3,4,0.4,6c0.2,2.6-0.3,5.2-1,7.7c-0.1,0.4-0.1,0.7-0.2,1.2c0.4,0,0.7,0,1,0
		c1-0.1,1.8,0.2,2.3,1.1c0.5,0.9,0.4,1.8,0,2.7c-0.9,1.9-2,3.7-2.5,5.7c-0.7,2.7-0.8,5.4-1.3,8.2c-0.6,2.9-1.3,5.8-3,8.2
		c-0.6,0.9-1.9,1.2-2.8,1.9c-0.4,0.2-0.8,0.6-0.9,0.9c-0.5,1.6-0.8,3.3-1.2,4.9c-0.2,0.7-0.5,1.3-0.8,2c-0.4,1.1-0.8,2.1-1.2,3.2
		c1.1,0.4,2.1,0.9,2,2.2c-0.1,1-0.5,1.9-0.8,2.9c1.8,1,3.7,2.1,5.6,3.2c5.3,2.9,10.7,5.8,16,8.8c1.9,1.1,3.4,2.7,5.3,3.8
		c3.5,2,5.7,5.2,7.4,8.6c2,3.9,3.1,8.1,3.2,12.5c0.2,5.8,0.6,11.5,1.1,17.3c0.3,3.7,0.9,7.5,1.3,11.2c0.6,4.8,1.1,9.5,1.6,14.3
		c0.4,3.6,0.9,7.3,1.4,10.9c0.1,0.8-0.6,1.5-1.8,1.6c-4.5,0.4-9,0.8-13.5,1.1c-0.9,0.1-1.2,0.2-1.5,1.2c-1.1,5.3-2.5,10.5-3.7,15.7
		c-0.9,3.8-1.5,7.7-2.5,11.5c-0.6,2.3-0.8,4.5-0.9,6.8c-0.3,5.8,0.9,11.5,2,17.2c0.5,2.8,0.7,5.6,1.1,8.5c-4.9,0-9.9,0-14.8,0
		c0.6-1.1,1.3-2.1,1.9-3.2c3-5.2,4.9-10.8,6-16.7c0.5-2.6,0.9-5.3,1.4-7.9c0.9-4.1,2.1-8.2,3.1-12.4c1.4-5.6,2.7-11.2,4-16.7
		c0.3-1.3,0.6-2.6,0.9-4c-3.4,0.2-6.4,0.4-9.5,0.4c-2.6,0-5.2,0-7.9-0.2c-1.5-0.1-2.9-0.6-4.4-0.9c-0.1,0.5-0.3,0.9-0.4,1.2
		c-0.5,1.9-0.9,3.8-1.6,5.5c-2.5,6.4-3.7,13.3-5.6,19.9c-0.7,2.5-1,5.2-1.7,7.7c-0.5,1.8-1,3.6-1.8,5.2c-0.8,1.8-1.9,3.4-2.8,5.2
		c-1.5,2.7-3,5.4-4.6,8c-1.7,2.9-3.6,5.8-5.4,8.6C60.9,251.2,35.8,251.2,10.6,251.2z M76.8,148.4c-1.2,0.2-2.3,0.4-3.3,0.7
		c-0.3,0.1-0.7,0.3-0.9,0.1c-0.2-0.2-0.3-0.7-0.2-0.9c0.1-0.2,0.5-0.5,0.8-0.5c0.8-0.2,1.6-0.2,2.4-0.4c3.5-0.6,5.9-3,8.2-5.5
		c1.9-1.9,3.2-4.3,4.5-6.7c1.3-2.5,3.3-4.8,4.5-7.4c3-6.5,5.8-13.2,8.6-19.8c0.3-0.6,0.4-1.3,0.6-2.2c-0.4,0.3-0.6,0.4-0.8,0.5
		c-1.1,0.9-1.5,2.3-2.1,3.5c-3,6-6,12.1-9.4,17.9c-1.7,2.8-4.2,5.2-6.4,7.7c-0.2,0.2-0.6,0.1-0.9,0.2c0-0.3-0.1-0.7,0-0.9
		c1.1-1.4,2.3-2.7,3.5-4c1.4-1.6,2.6-3.4,3.6-5.3c2.1-4.2,4.4-8.2,6.6-12.3c0.6-1.1,1.1-2.1,1.6-3.2c-0.1-0.1-0.3-0.2-0.4-0.3
		c-0.9,0.9-1.7,1.9-2.6,2.8c-0.4,0.4-0.7,0.8-1,1.2c-1.9,2.1-3.8,4.2-5.7,6.3c-2.3,2.5-4.7,4.9-7,7.3c-0.3,0.3-0.5,0.8-0.9,1
		c-0.4,0.3-1,0.6-1.3,0.5c-0.6-0.4-0.3-0.9,0.1-1.3c1.1-1,2.3-2,3.3-3.1c1.9-2,3.7-4,5.5-6.1c1.6-1.7,3.3-3.4,4.9-5.2
		c-1.7,0.4-3.2,1-4.7,1.6c-2.2,0.8-4.5,1.4-6.7,2.5c-2.1,1-4.1,2.5-6.1,3.8c-0.3,0.2-0.7,0.1-1.1,0.1c0.1-0.4,0.1-0.8,0.3-1
		c0.4-0.4,0.8-0.7,1.3-0.9c2.1-1.2,4.1-2.5,6.3-3.5c3.8-1.7,7.9-2.7,11.5-4.9c3-1.8,5.6-4.1,7.8-6.6c-0.5-0.7-1.1-1.3-1.7-2.1
		c-0.4,0.5-1,1.1-1.4,1.7c-2,2.9-4.1,5.6-7.1,7.5c-3.5,2.4-7.4,3.6-11.6,2.6c-1.9-0.5-3.7-1.4-5.6-2c-0.5-0.2-1.2-0.1-1.7,0.1
		c-2.7,1-4.7,3-6.5,5.2c-0.3,0.3-0.9,0.7-1.2,0.6c-0.4-0.2-0.8-0.7-0.9-1.2c-0.5-2-0.9-4-1.5-6c-0.6-2-1.3-3.9-2.1-5.9
		c-0.9-2.2-1.8-4.4-2.8-6.6c-0.2-0.5-0.7-0.9-1.1-1.3c0,1.6-0.8,2.6-1.6,3.7c-0.4,0.5-0.7,1.3-0.7,1.9c0,2.4,0.1,4.8,0.4,7.2
		c0.4,4.3,1,8.5,1.5,12.7c0.3,2.1,0.6,4.3,0.8,6.4c0.4,3.6,0.3,7.1-1.4,10.4c-0.6,1.2-1,2.4-1.4,3.7c-1.6,5.7-3.1,11.5-4.7,17.2
		c-1,3.5-2.1,6.9-3.5,10.3c-1.8,4.1-4.1,7.9-5.8,12c-2,4.6-4.8,8.6-8,12.4c-2.5,3-4.6,6.1-5.1,10c-0.3,2-0.2,4.1-0.4,6.1
		c0,0.4-0.6,0.8-1,1.2c-0.3-0.3-0.9-0.7-0.9-1c-0.1-1.8-0.2-3.6,0-5.4c0.5-4.5,2.6-8.2,5.4-11.6c2.2-2.8,4.2-5.7,6.2-8.6
		c0.8-1.1,1.2-2.5,1.9-3.9c-7.9,0-15.5,0.4-23.2-1.4c0.3,1.7,0.5,3.3,0.7,4.8c0.7,4.4,1.7,8.7,2.2,13.1c0.4,3.9,0.7,7.9,1.7,11.7
		c1.1,4.6,1.8,9.3,3.7,13.6c0.5,1.1,1,2.2,1.4,3.4c1.2,4.4,4.4,6.9,8.5,8.2c2.3,0.7,4.7,0.8,7.1,0.9c2.3,0.1,4.7-1.7,5.3-3.6
		c0.4-1.3,0.8-2.7,1.4-3.9c1.4-3.2,3-6.4,4.5-9.6c2.5-5.6,5.1-11.1,7.4-16.8c1.9-4.7,3.5-9.5,4.8-14.3c1.2-4.4,1.8-9,3-13.4
		c1.3-4.6,3.1-9.1,4.7-13.6c1-2.9,1.9-5.9,3.6-8.5C75.2,150.9,76,149.8,76.8,148.4z M96.5,31.9c0.4,2.2,1.3,4,3,5.5
		c0.9,0.8,1.8,1.6,2.7,2.5c0.3,0.3,0.7,1.1,0.6,1.3c-0.3,0.4-0.9,0.6-1.4,0.8c-0.2,0.1-0.5,0-0.8-0.1c-1.8-0.5-3.6-1-5.4-1.5
		c-4-1-7.8-2.2-11.3-4.4c-1.6-1-3.3-1.9-5-2.8c-2.7-1.4-5.3-2.7-8-4c-0.3-0.1-0.7-0.1-0.9,0c-1.3,0.4-2.6,1-3.9,1.4
		c-1.9,0.6-3.7,1.1-5.7,1.1c-4.6,0-6.9,2.1-7.6,6.6c-0.5,3.1-1.8,6.1-2.8,9.1c-0.6,1.6-1.5,3.1-1.9,4.8c-0.6,2.4-0.8,4.8-1.1,7.3
		c-0.2,1.5-0.3,3-0.1,4.4c0.3,1.9,0.8,3.7,1.4,5.6c0.8,2.9,1.6,5.8,2.5,8.7c0.8,2.4,1.7,4.8,2.7,7.2c1.2,2.7,2.2,5.3,2.1,8.3
		c0,0.4,0.4,0.8,0.7,1.1c1,1.2,2.1,2.2,2.9,3.4c1.7,2.6,3.2,5.1,5.9,6.9c3.3,2.3,6.5,4.4,10.4,5.6c1.7,0.5,3.3,1.5,5,1.8
		c5.4,0.8,9.7-1.5,13.2-5.3c2.1-2.3,4-4.8,6-7.2c0.9-1.1,1.9-2.2,2.5-3.4c1.8-3.9,3.7-7.8,4.6-12.1c1.2-5.5,2.8-10.9,4.1-16.3
		c0.6-2.6,0.8-5.4,1.5-8c0.9-3.3,0.9-6.5-0.1-9.7c-0.8-2.5-1.1-5.1-1-7.7c0-1.4-0.1-2.8-0.5-4.1c-0.8-3.3-2.9-5.3-6.2-5.9
		c-1-0.2-2-0.2-2.9-0.6C99.8,31.3,98.2,31.2,96.5,31.9z M116.9,152.6c-0.2,1.4-0.4,2.7-0.7,4c-1.2,4.6-2.6,9.2-3.7,13.9
		c-1.3,5.1-2.3,10.2-3.5,15.3c-0.3,1.1,0.2,1.6,1.4,1.3c0.4-1.5,0.9-3,1.3-4.5c1.1-4.9,2.1-9.8,3.3-14.6c1.1-4.2,2.5-8.4,3.7-12.6
		C119,153.7,118.7,153.2,116.9,152.6z M47.4,72.2c-0.2-1.1-0.3-2.3-0.6-3.5c-0.1-0.6-0.4-1.2-0.8-1.6c-0.8-0.8-1.8-1.5-2.6-2.4
		c-1.7-1.9-3.3-3.9-5-5.7c-0.2-0.3-0.8-0.3-1.2-0.4c0,0.4-0.2,0.9,0,1.3c0.6,1.7,1.4,3.4,2,5.1c0.6,1.8,1,3.8,1.5,5.6
		c0.1,0.4,0.4,0.9,0.7,1c1.2,0.3,2.4,0.4,3.6,0.5C45.7,72.3,46.5,72.2,47.4,72.2z M109.6,79c0.1,0.1,0.2,0.1,0.3,0.2
		c0.6-0.5,1.5-1,1.8-1.6c0.9-2.3,1.8-4.6,2.3-7c0.6-2.7,0.9-5.5,1.3-8.3c0.4-2.2,1.4-4.1,2.6-6c0.3-0.4,0.3-1,0.1-1.5
		c0-0.2-0.8-0.2-1.2-0.2c-0.7,0-0.9,0.4-1.2,1c-0.4,1-1.3,1.8-1.6,2.8c-0.7,2.6-1.1,5.3-1.7,8c-0.9,3.9-1.7,7.7-2.6,11.6
		C109.7,78.4,109.7,78.7,109.6,79z M35.8,57.6c1.1,0,1.9-0.3,2.3,0c1.4,1,2.7,2.1,3.9,3.3c1.1,1.1,1.9,2.5,2.8,3.8
		c0.2,0.2,0.5,0.2,1.2,0.4c-0.6-1.5-0.9-2.8-1.5-3.9c-0.6-1.1-1.5-2.1-2.2-3c-1-1.3-1.8-2.8-3.5-3.3c-0.9-0.3-2-0.8-2.6,0
		C35.6,55.5,35.8,56.6,35.8,57.6z M70.5,111c-2.8-1.9-5.6-3.9-8.6-6c0.8,2.1,1.5,3.9,2.1,5.7c0.5,1.2,0.6,2.8,2.5,2.7
		C67.9,112.7,69.2,111.8,70.5,111z M41.9,73.5c0,0.4,0,0.7,0.1,0.9c0.7,1.3,1.4,2.6,2.1,3.9c0.2,0.3,0.5,0.6,0.8,0.7
		c1.3,0.3,2.5,0,3.5-1c0.8-0.8,0.1-1.7-0.2-2.3c-0.5-0.9-0.7-2.2-2.2-2.2C44.7,73.5,43.4,73.5,41.9,73.5z M103.8,100
		c0.8-1.6,1.7-3.3,2.5-4.9c0.1-0.2,0.2-0.6,0.1-0.8c-0.2-0.4-0.5-0.7-0.7-1c-0.3,0.2-0.7,0.4-0.9,0.8c-0.6,1.3-1.1,2.6-1.7,3.8
		c-0.3,0.6-0.6,1.1-0.9,1.6C102.9,99.7,103.4,99.9,103.8,100z M52.1,95.6c0.3,0.6,0.6,1.2,0.9,1.7c0.2,0.5,0.4,1.1,0.6,1.6
		c0.1,0,0.3,0,0.4,0c0.1-1,0.3-2,0.4-3.1c0.1-1-0.2-1.2-1.2-0.9C52.9,95.2,52.5,95.4,52.1,95.6z M100.7,100.8c0.4,1.8,1,2.5,1.9,2.2
		c0.3-0.1,0.6-0.9,0.5-1.2C102.8,100.2,101.6,101.3,100.7,100.8z"/>
	<path class="st0" d="M70.2,93.6c1.1-1.3,2.1-2.7,3.3-3.9c1.1-1.1,2.5-1.5,4.1-1.5c3.5,0.1,7,0,10.5,0.3c1.6,0.1,3,1.1,4.5,1.8
		c0.8,0.3,1.5,0.7,2.2,1.2c0.2,0.1,0.4,0.7,0.3,0.8c-0.8,1.3-1.6,2.7-2.5,4c-0.6,0.9-1.4,1.7-2.2,2.5c-0.8,0.8-1.9,1-3.1,1
		c-1.5,0-3.1,0.1-4.5,0.5c-4,1-6.8-0.6-9.1-3.6c-0.9-1.2-1.8-2.4-3.4-2.7c-0.2-0.1-0.4-0.3-0.6-0.5C69.8,93.5,70,93.5,70.2,93.6z
		 M93,93.4c-0.1-0.2-0.3-0.3-0.4-0.5c-0.5,0.2-0.9,0.3-1.4,0.5c-0.4,0.2-0.8,0.6-1.3,0.7c-1.7,0.4-3.3,0.8-5,1.1
		c-0.7,0.1-1.5,0.1-2.2,0c-1.3,0-2.6-0.4-3.9-0.1c-2,0.4-3.6-0.2-5.2-1.3c-0.5-0.4-1.2-0.6-1.8-0.9c1.6,1.5,3.1,3.2,4.6,4.8
		c1,1.1,2.2,1.7,3.7,1.5c2.5-0.3,4.9-0.4,7.4-0.7c0.9-0.1,1.9-0.4,2.5-1C91.2,96.4,92.1,94.8,93,93.4z M83.9,93.9
		c0,0.2,0.1,0.4,0.1,0.6c2.4-0.8,4.8-1.6,7.2-2.4c0.2-0.1,0.4-0.4,0.3-0.6c0-0.2-0.3-0.5-0.5-0.5c-0.3-0.1-0.7,0-1,0
		c-1.7,0.3-3.3,0.7-5,0.8c-2.4,0.2-4.7-0.5-6.9-1.2c-0.9-0.3-1.9-0.6-2.9-0.6c-1.1,0-1.6,0.9-1,1.7c0.6,0.8,1.5,1.9,2.4,2
		C79,94.1,81.5,93.9,83.9,93.9z M89.1,89.7c-3.6-0.1-7.1-0.2-10.7-0.4C81.9,91,85.5,91.1,89.1,89.7z"/>
	<path class="st0" d="M68.4,59.9c2.3-0.4,4,0.3,5.5,1.8c0.3,0.4,1,0.4,1.4,0.7c0.3,0.2,0.7,0.7,0.6,0.8C75.7,63.6,75.3,64,75,64
		c-1.3,0.2-2.7,0.1-3.9,0.5c-4,1.5-7.8,0.7-11.7-0.3c-0.7-0.2-1.4-0.1-2.2-0.2c-0.3,0-0.6-0.1-0.9-0.2c0.2-0.4,0.2-0.9,0.5-1
		C60.6,61.3,64.3,59.4,68.4,59.9z M65,60.9c-1.6,0.6-3.4,1.2-5.2,1.9c0,0.1,0.1,0.3,0.1,0.4c1.8,0.3,3.7,0.6,5.3,0.9
		C65.1,63.1,65.1,62.1,65,60.9z M69.7,61c-0.1,1-0.3,1.9-0.4,2.7c1.2-0.3,2.6-0.5,4.1-0.9C72.1,61.7,71.1,60.8,69.7,61z M67.2,61.2
		c-0.2,0.5-0.5,0.8-0.4,1c0,0.2,0.5,0.6,0.6,0.5c0.3-0.1,0.6-0.4,0.6-0.6C68,61.9,67.6,61.6,67.2,61.2z"/>
	<path class="st0" d="M106.8,63.7c-1.1,0.2-2.2,0.5-3.4,0.6c-1.8,0.1-3.7,0.1-5.5,0c-2.1-0.2-4.1-0.8-6.2,0.2
		c-0.2,0.1-0.6,0-0.7-0.2c-0.1-0.2-0.1-0.5,0-0.7c2.1-3.2,5-4.7,8.8-4.6c2.5,0.1,4.4,1.5,6.4,2.8c0.4,0.3,1,0.4,1.4,0.7
		c0.4,0.2,0.6,0.5,1,0.8c-0.4,0.2-0.7,0.4-1.1,0.5c-0.2,0.1-0.5,0-0.8,0C106.8,63.8,106.8,63.7,106.8,63.7z M102.3,60.5
		c-0.4,1.1-0.8,2.1-1.1,3c1.4,0.2,3.7-0.4,4.3-1.2C104.4,61.7,103.3,61,102.3,60.5z M97.3,60.2c-1.3,0.9-3.1,1-4.3,2.6
		c1.6,0,3,0,4.3,0C97.3,62.1,97.3,61.3,97.3,60.2z M99.6,62.1c0.2,0.1,0.4,0.3,0.6,0.4c0.1-0.4,0.4-0.7,0.3-1.1
		c-0.1-0.3-0.5-0.6-0.7-0.8c-0.3,0.2-0.6,0.4-0.7,0.7C99.1,61.5,99.5,61.8,99.6,62.1z"/>
	<path class="st0" d="M70.2,59c-2.4-0.4-4.9-0.9-7.3-1.3c-1.6-0.2-3.2-0.1-4.8-0.1c-0.5,0-1.2-0.1-1.3-0.3c-0.3-0.7,0.3-1,0.9-1.1
		c2.4-0.7,4.7-1.4,7.2-1.1c0.7,0.1,1.4,0.2,2,0.3c1.2,0.2,2.3,0.4,3.5,0.7c0.6,0.1,1.3,0.4,1.7,0.8c0.9,1,0.6,1.7-0.7,2
		c-0.4,0.1-0.8,0.1-1.2,0.1C70.2,58.8,70.2,58.9,70.2,59z"/>
	<path class="st0" d="M102.3,54.9c1.5,0.3,3.1,0.5,4.6,0.8c0.3,0.1,0.6,0.3,0.8,0.6c0.2,0.4,0.2,0.8,0.2,1.3c-0.4,0-0.8-0.1-1.2-0.1
		c-0.9-0.1-1.8,0-2.7-0.2c-2.3-0.4-4.5,0.1-6.6,1c-1.7,0.8-3.5,0.9-5.4,0.9c-0.7,0-1.2-0.3-1.2-0.9c0-0.3,0.5-0.8,0.9-1
		c3.4-1.1,6.8-2.2,10.5-2.2C102.3,55.1,102.3,55,102.3,54.9z"/>
	<path class="st0" d="M90.7,75.5c0.5,0.2,0.9,0.1,1,0.3c1.1,1.5,2.1,3,1.7,4.9c-0.2,1.1-1.2,1.5-2.1,1.8c-0.9,0.4-1.8,0.7-2.6,1.2
		c-1.6,1-3.3,1.6-5.1,1.3c-0.8-0.2-1.8-0.7-2.3-1.4c-1.1-1.4-2.4-1.8-4-1.8c-0.9,0-2-0.2-2.7-0.7c-1.8-1.5-1-4.4,1-5.6
		c0.2-0.1,0.6-0.1,0.6,0c0.1,0.2,0.1,0.5,0,0.7c-0.3,0.4-0.8,0.7-0.9,1.2c-0.2,0.8-0.5,1.6-0.3,2.4c0.2,0.7,0.9,1,1.8,1
		c2.2-0.2,4,0.4,5.4,2.3c0.7,1.1,2.8,1.3,4.2,0.6c1.7-0.9,3.2-2.2,5.2-2.5c0.8-0.1,1-1.5,0.5-2.5c-0.2-0.5-0.6-0.9-0.8-1.4
		C91.1,76.8,90.9,76.3,90.7,75.5z"/>
</g>
</svg>
