<?xml version="1.0" encoding="utf-8"?>
<!-- Generator: Adobe Illustrator 19.2.0, SVG Export Plug-In . SVG Version: 6.00 Build 0)  -->
<svg version="1.1" id="Layer_1" xmlns="http://www.w3.org/2000/svg" xmlns:xlink="http://www.w3.org/1999/xlink" x="0px" y="0px"
	 viewBox="0 0 102.2 153.7" style="enable-background:new 0 0 102.2 153.7;" xml:space="preserve">
<style type="text/css">
	.st0{fill:#03A9F4;}
</style>
<g id="stomachache-girl-cold">
	<path class="st0" d="M78.5,153.6c-0.7,0-1,0-1.3,0c-0.2-2.5-0.4-5-0.6-7.7c-0.4,0.2-0.8,0.2-1.1,0.4c-1.5,0.9-3.2,1.1-5,0.9
		c-0.8-0.1-1.7,0.2-2.4,0c-1.2-0.3-2.4-0.7-3.5-1.4c-1.3-0.8-2.6-1.8-3.7-2.9c-0.7-0.7-0.8-1.9-1.3-2.9c-1.7,0.2-3.7,0.4-5.7,0.5
		c-1.2,0.1-2.5,0.1-3.7,0.1c-0.7,0-1.1,0.3-1.1,1c0.1,2,0,4,0.3,6c0.2,1.9-0.3,3.4-1.8,4.4c-1.3,1-2.7,2-4.6,1.7
		c-0.6-0.1-0.8-0.2-0.9-0.9c-0.1-3.2-0.3-6.5-0.4-9.7c-0.1-1.8-0.2-2.1-2.1-1.7c-1.9,0.4-3.9,0.9-5.8,1.3c-1.1,0.2-2.3,0.4-3.4,0.5
		c-1.7,0.2-3.4,0.3-5.1,0.5c-0.3,0-0.6,0.4-0.7,0.7c-0.2,0.7-0.5,1.3-1.3,1.4c-0.4,0.1-0.7,0.3-1,0.4c-1.1,0.6-2.1,1-3.4,0.9
		c-1.5-0.1-1.8,0.2-1.7,1.8c0.1,1.5,0.2,3.1,0.3,4.7c-0.5,0-0.8,0-1.3,0.1c0-0.4,0-0.8,0-1.2c0-4.2-0.1-8.5,0.7-12.7
		c0.2-1.1,0.1-2.3,0.2-3.5c0.3-3.8,0.6-7.7,1-11.5c0.2-2,0.5-4,0.6-6c0-0.3-0.5-0.8-0.9-0.9c-0.9-0.2-1.8-0.2-2.6-0.4
		c-1.8-0.3-3.6-0.7-5.4-1c-0.9-0.2-1.8-0.2-2.7-0.4c-0.3-0.1-0.6-0.5-0.9-0.7c-0.4-0.4-0.7-0.8-1.1-1.1c-2.4-1.8-3.5-4.1-3.7-7.1
		c-0.2-3.3-0.6-6.6-1-9.9c-0.5-3.8-0.6-7.6-0.1-11.4c0.2-1.7,1-3.4,1.2-5.2c0.3-2.9,0.4-5.8,0.7-8.7c0-0.6,0.2-1.3,0.1-1.9
		c-0.1-0.6-0.2-1.3-0.6-1.6c-0.7-0.7-0.6-1.3-0.3-2c1.3-2.5,2.5-5.1,3.8-7.6c1-1.9,2.7-3,4.6-4c2.6-1.4,5.5-2.7,7.7-4.6
		c1.6-1.4,2.7-3.6,3.6-5.7c1.2-2.8,1.9-5.7,2.8-8.6c1.5-4.8,3-9.6,4.5-14.4c0.3-0.9,0.6-1.8,0.7-2.7c0.6-3.6,2.7-6.4,4.6-9.3
		c2-3,4.6-5.4,7.5-7.5c0.5-0.4,1.3-0.4,1.9-0.7c0.9-0.3,1.8-0.6,2.6-1c2.7-1.2,5.1,0,7.6,0.9c1.3,0.7,2.7,1.2,4,2
		c1.1,0.7,2.1,1.6,3.1,2.5c1.1,0.9,2.2,1.8,3.3,2.7c0.4,0.4,0.8,0.9,1.1,1.4c0.7,1.2,1.3,2.4,1.8,3.6c0.4,0.8,0.7,1.7,0.8,2.6
		c0.1,1.3,0.2,2.5,0,3.8c-0.3,3,1.1,5.1,3.3,6.8c2,1.6,3.9,3.2,5.9,4.8c2.3,1.9,4.7,3.7,7.1,5.6c3.6,3,7.3,5.9,10.7,9.1
		c1.7,1.6,2.8,3.9,4.1,5.9c0.5,0.8,1.1,1.7,1.6,2.5c0.6,1,1.3,2,1.7,3.1c0.6,1.3,0.3,2.7-0.7,3.7c-1.7,1.6-3.5,3-5.4,4.4
		c-0.5,0.4-1.3,0.4-2,0.5c-0.5,0.1-1.1,0-1.5,0.3c-1.8,1.4-3.7,1.1-5.7,0.7c-2.5-0.5-5-1.1-7.5-1.8c-0.9-0.3-1.8-0.9-2.7-1.3
		c-0.2-0.1-0.5-0.3-0.8-0.2c-1.1,0.3-2.1,0.5-3.2,0.9c-1.8,0.7-2.3,2.2-2.4,3.9c-0.3,3.2-0.4,6.3-0.7,9.5c-0.4,3.7-0.9,7.4-1.3,11.2
		c-0.3,2.6,0.1,5.1,0.6,7.6c1.2,6,2.9,11.9,4.4,17.8c1.3,4.8,2.2,9.7,2.6,14.7c0.2,3.1,1.1,6.2,1.5,9.4
		C77.6,143.9,78,148.7,78.5,153.6z M25.1,106c0.1,0.1,0.1,0.2,0.2,0.3c3,0.6,6,1.2,9,1.9c0.2,0,0.4,0,0.5-0.1c1.4-1,2.8-1.9,4.2-2.9
		c0.3-0.2,0.7-0.3,1-0.4c0.1,0.2,0.2,0.3,0.2,0.5c-1.5,1.1-3,2.2-4.6,3.3c0.1,0.1,0.2,0.2,0.3,0.2c0.2,0.1,0.4,0.1,0.6,0.1
		c2.9,0.3,5.7-0.4,8.2-1.8c3.8-2.2,7.8-3.3,12.2-3.3c1.6,0,3.3,0.2,4.9,0.4c0.5,0.1,1.2,0.7,1.4,1.3c0.3,0.8-0.2,1.5-0.9,2
		c-0.3,0.2-0.6,0.3-0.8,0.5c0,0.1,0,0.1,0,0.2c1.4,0,2.8,0,4.2,0c-0.3-1.7-0.7-3.3-0.9-5c-0.2-1.7,0.3-3.4,1.5-4.7
		c0.1,0.4,0,0.7-0.1,1.1c-0.2,1.2-0.7,2.4-0.6,3.6c0.1,1.4,0.5,2.7,0.8,4.1c0.2,0.8,0.5,1.2,1.4,1.1c1.4-0.1,1.8,0.4,1.9,1.8
		c0,0.4,0.2,0.8,0.5,1.1c0.8,0.9,0.8,1.8-0.1,2.5c-0.4,0.3-0.8,0.7-1.4,1.1c0.3,0.1,0.5,0.1,0.6,0.2c1.2,0.5,1.3,1.2,0.3,2
		c-0.6,0.4-1.3,0.8-2,1.1c-2.1,0.9-4.4,0.6-6.6,0.7c-0.5,0-0.9,0.2-1.4,0.3c0,0.1,0,0.2,0.1,0.3c0.2,0,0.4,0.1,0.7,0.1
		c1.5-0.1,3.1-0.2,4.6-0.2c0.7,0,1.4,0.1,2.1,0.4c1.1,0.5,1.1,1.4,0.1,2c-0.7,0.4-1.5,0.7-2.2,1c-2.9,0.8-5.9,0.5-8.9,0
		c-3.1-0.5-6.2-1.4-9.3-2.3c-3.2-0.9-6.3-1.6-9.6-1.4c-0.8,0-1.6,0.2-2.5,0.2c-4.7,0.2-9.3,0.2-13.9-0.6c-0.6-0.1-0.8,0-0.9,0.6
		c-0.2,2-0.3,4-0.6,5.9c-0.8,4.6-1,9.2-1,13.9c0,0.4-0.1,0.8-0.1,1.2c-0.1,1-0.3,2-0.5,3.2c3-1.3,5.8-0.9,8.6-1.2
		c1.7-0.1,3.5,0,5.2-0.3c3.3-0.5,6.5-1.1,9.8-1.7c2-0.3,4-0.7,6-0.9c3.5-0.3,7.1-0.3,10.7-0.5c3.1-0.2,6.1-0.4,9.2-0.8
		c2.5-0.3,4.9-0.7,7.4-1.1c0.8-0.1,1-0.6,0.9-1.5c-0.5-3.4-0.8-6.7-1.2-10.1c-0.2-1.3-0.3-2.7-0.5-4.1c-0.4,0.2-0.5,0.3-0.7,0.4
		c-2.8,1.4-5.5,2.9-8.3,4c-3.3,1.3-6.8,1.7-10.4,1.9c-1,0-2-0.1-3,0.1c-2.9,0.9-5.9,1.4-8.9,1.5c-0.2,0-0.4-0.1-0.5-0.2
		c0-0.1,0-0.2,0-0.3c0.5-0.1,1-0.2,1.5-0.3c1.5-0.2,3-0.1,4.4-0.5c2-0.6,4-1,6.1-1.1c2-0.1,4.1-0.4,6.1-0.6c4.4-0.6,8-3,11.9-4.8
		c0.4-0.2,0.7-0.5,1.1-0.7c0.5-0.3,0.6-0.7,0.4-1.2c-0.5-1.5-1-3.1-1.4-4.7c-0.7-2.5-1.3-5-1.9-7.6c-0.3-1.1-0.3-2.3-0.8-3.4
		C68.2,101,68,98,67.5,95c-0.3-2.3-0.1-4.6-0.1-6.9c0-0.1,0-0.3,0-0.4c0.3-2.2,0.6-4.5,0.8-6.7c0.2-2.9,0.3-5.7,0.5-8.6
		c0.2-2.5,0.5-4.9,1.6-7.2c0.2-0.3,0.1-0.9,0-1.2c-0.7-1.8-1.5-3.6-2.3-5.5c-1-2.4-1.5-4.9-0.8-7.5c0.7-2.5,1.5-5.1,2.2-7.6
		c0.1-0.2,0-0.4,0.1-0.6c-1.6,0.2-3.2,0.3-4.7,0.5c-2.1,0.2-4.1,0.5-6.2,0.7c-0.7,0.1-1.3,0.2-1.7,0.8c-0.4,0.5-0.8,0.9-1.1,1.4
		c-0.7,1.3-1.8,2.2-3.1,2.9c-0.8,0.4-1.4,0.9-1.4,2c0,0.8-0.2,1.5-0.3,2.3c-0.2,1.8-0.6,3.5-0.6,5.3c-0.1,3.8-0.8,7.4-2.9,10.6
		c-1.8,2.8-4.4,4.9-7.3,6.5c-0.6,0.3-1.3,0.4-2,0.5c-2.3,0.1-4.5,0-6.7-1c-1.1-0.5-2.2-1-2.6-2.1c-0.8-2.1-1.6-4.2-2.1-6.4
		c-0.7-3-1.2-6-1.7-9c-0.2-0.8-0.6-1-1.3-0.7c-1,0.4-2,0.8-3,1c-1.9,0.4-5.6-1.1-6.4-2.8c-0.4-0.9-0.8-0.6-1.3-0.4
		c-1.1,0.5-2.2,1-3.2,1.6c-1.5,0.8-2.7,1.8-3.5,3.4c-1,2-1.9,4-2.9,6c-0.6,1.1-0.8,1.7,0.3,2.8c2.2,2.1,4.2,4.6,6.3,6.9
		c0.9,0.9,2,1.7,3,2.5c0.8,0.6,1.6,1.1,2.6,1.7c-0.1-1.7-0.1-3.3-0.4-4.7c-0.6-2.2-0.8-4.4-0.7-6.6c0-0.4,0.2-0.7,0.3-1.1
		c0.1,0,0.3,0,0.4,0c0,0.3,0.1,0.7,0.1,1c0.1,1.1,0,2.1,0.2,3.2c0.3,1.9,0.7,3.8,0.9,5.6c0.3,3.6,0.2,7.3,1.6,10.8
		c0.3,0.7,0.3,1.4,0.5,2.1c0.3,1.2,0.7,2.3,1.1,3.5c0.8,2.2,1.9,4.3,2.5,6.6c0.4,1.5,0.3,3.2,0.5,4.8c0.1,1,1.1,1.4,1.9,0.9
		c0.4-0.2,0.9-0.4,1.4-0.6c0.6-0.3,1.4-0.4,1.9-0.8c1.1-0.8,2.1-1.8,3.2-2.7c0.3-0.2,0.7-0.4,1.1-0.4c0.1,0,0.3,0.4,0.4,0.5
		c-0.5,0.3-1,0.4-1.3,0.7C29.2,104,27.6,105.7,25.1,106z M58.6,29c1.3,1.6,2.5,3,3.6,4.5c0,0,0,0,0.1,0.1c0.9,1,1.9,2.1,2.8,3.1
		c1.6,1.7,2.9,3.7,4.9,4.9c0.6,0.4,1.1,0.9,1.5,1.5c2,3.1,3.8,6.3,6.3,9c0.2,0.2,0.4,0.5,0.6,0.8c1.5,2.9,3.5,5.4,5.8,7.7
		c0.2,0.2,0.2,0.6,0.3,1c-0.3-0.1-0.8-0.1-1-0.3c-1.8-2.2-3.5-4.4-5.2-6.7c-0.8-1-1.5-2.1-2.3-3.2c-0.9-1.3-1.8-2.5-2.7-3.8
		c-0.6-0.9-1.1-1.9-1.8-2.8c-0.3-0.4-0.7-0.6-1.1-0.8c-0.2,0.4-0.6,0.7-0.7,1.1c-0.3,1-0.5,2.1-0.7,3.2c-0.8,3.7-1.2,7.3,0.3,10.9
		c0.3,0.8,0.7,1.4,1.6,1.6c0.6,0.1,1.2,0.2,1.7,0.5c2,1,3.9,2.1,5.8,3.2c0.4,0.2,0.8,0.4,1.2,0.5c2.3,0.6,4.5,1.2,6.8,1.8
		c1.8,0.4,3.7,0.7,5.4-0.6c0.4-0.3,1.2-0.3,1.8-0.4c0.6-0.1,1.2-0.1,1.7-0.4c1.7-1.3,3.5-2.4,4.8-4.2c1-1.4,1-2.4,0.2-3.6
		c-0.8-1.3-1.9-2.6-2.5-4c-1.7-3.5-4-6.4-7-8.8c-3-2.3-5.9-4.9-8.9-7.3c-2.1-1.8-4.3-3.5-6.5-5.2c-2-1.6-3.9-3.2-5.9-4.8
		c-2.1-1.8-3.4-3.9-3.2-6.8c0.1-1.4,0.1-2.7,0-4.1c0-0.7-0.1-1.4-0.4-2c-1.3-2.6-3-4.8-5.5-6.5c-2.1-1.4-3.8-3.5-6.6-3.6
		c-1.3,0-2.6-0.2-3.7-0.3c-0.3,0.9-0.6,1.6-0.9,2.4C49.6,6.7,50,7,50.4,7.1c2.3,0.5,4.6,1,6.2,3c0.2,0.2,0.3,0.5,0.4,0.8
		c-0.3,0-0.7,0.1-0.9-0.1c-1.8-1.7-4-2.3-6.4-2.7c-1.5-0.2-3-0.3-4.1-0.4c-0.7,1.2-1.2,2-1.7,2.8c2,0.3,4.1,0.6,6.3,0.9
		c2.3,0.3,3.9,1.5,5.4,3.2c-0.4,0.1-0.8,0-1-0.2c-0.7-0.5-1.4-1.1-2.1-1.4c-2.6-1.2-5.4-1.4-8.2-1.5c-0.6,0-1.3,0-1.9,0.1
		c-0.3,0-0.6,0.4-0.6,0.6c0,0.3,0.2,0.7,0.4,0.9c0.2,0.1,0.7,0,0.9-0.1c0.4-0.4,0.6-0.9,0.9-1.3c0.1,0,0.1,0.1,0.2,0.1
		c-0.3,0.6-0.6,1.2-0.9,1.9c2.7,0.8,5.4,1.6,8.1,2.5c1,0.3,1.9,0.9,2.9,1.3c0,0.1-0.1,0.3-0.1,0.4c-0.5-0.1-1.1-0.1-1.6-0.3
		c-2.2-1.2-4.7-1.6-7.1-2c-0.3,0-0.6,0.1-0.8,0.2c-0.6,0.5-1.1,1.2-1.6,1.7c1.8,0.4,3.8,0.7,5.6,1.4c1.7,0.7,3.4,1.6,4.8,2.8
		c1,0.8,1.4,2.2,2.1,3.3c0.7,1.1,1.3,2.2,2,3.3c0.3,0.5,0.6,0.6,1.3,0.6c1.6-0.2,3-0.7,4.1-1.9c0.5-0.5,1.1-1,1.7-1.5
		c0.1,0.1,0.1,0.2,0.2,0.3C63.2,27.3,61.5,29,58.6,29z M3.7,70.6c-0.1,0-0.2,0.1-0.3,0.1c-0.1,1-0.1,2-0.2,3C2.8,77.2,2.8,80.7,2,84
		c-0.7,2.9-0.8,5.7-0.8,8.6c0.1,3.5,0.6,7.1,0.9,10.6c0.2,1.5,0.5,3,0.6,4.5c0.3,3.3,3.3,6.9,6.5,7.6c2.2,0.5,4.5,0.7,6.7,1.1
		c2.6,0.5,5.3,1.1,7.9,1.3c3.5,0.3,7.1,0.2,10.6,0.2c1.8,0,3.6-0.5,5.3-0.2c3.9,0.7,7.8,1.6,11.6,2.7c3.8,1.2,7.6,1.5,11.5,1.3
		c1.3-0.1,2.6-0.4,3.8-1.5c-0.7-0.1-1.2-0.3-1.7-0.3c-1.6,0-3.2,0.2-4.8,0.2c-0.7,0-1.4-0.2-2-0.4c0-0.1,0-0.2,0-0.2
		c-0.4,0.3-0.9,0.6-1.3,0.8c-0.1,0-0.2-0.1-0.3-0.1c0.1-0.3,0.1-0.7,0.3-0.9c1.2-1,2.4-1.8,4.1-1.8c1.5,0.1,3,0,4.4-0.2
		c1.2-0.2,2.5-0.4,3.4-1.6c-2-0.6-3.8-0.8-5.7-0.3c-0.9,0.3-1.8,0.4-2.7,0.5c-0.2,0-0.5-0.2-0.7-0.4c0.2-0.2,0.3-0.5,0.6-0.5
		c2.4-0.5,4.7-0.8,7.1-1.3c0.7-0.2,1.4-0.6,1.9-1.1c0.5-0.4,0.2-1.1-0.4-1.2c-0.9-0.1-1.8-0.1-2.7,0c-1.1,0.1-2.1,0.5-3.2,0.6
		c-0.8,0.1-1.6,0.2-2.4,0.2c-0.2,0-0.6-0.2-0.6-0.3c-0.1-0.2,0.1-0.5,0.3-0.6c0.3-0.1,0.7-0.2,1-0.2c2.3,0.3,4.4-0.6,6.5-1.1
		c0.7-0.2,0.7-0.5,0.5-1.3c-2.4,0-4.9,0.4-7.2-0.1c-2.3-0.4-4.7-0.4-6.9-1.5c0.2-0.3,0.4-0.4,0.6-0.4c1.2,0.1,2.3,0.3,3.5,0.3
		c0.9,0,1.8-0.2,2.7-0.4c0.7-0.2,1.3-0.7,1.1-1.5c-0.1-0.4-1-0.8-1.5-0.8c-2.8,0-5.7-0.5-8.6,0.3c-2.6,0.7-5.3,1.3-7.3,3.1
		c-1.3,1.2-2.8,1.6-4.3,1.8c-2.1,0.2-4.4,0.4-6.5-0.5c-0.5-0.2-1-0.3-1.6-0.4c-4.3-0.5-8.4-1.6-12.6-2.7c-2.1-0.5-4-1.6-6-2.3
		c-0.5-0.2-1.1-0.3-1.5-0.1c-1.3,0.6-2.5,1.4-3.8,2c-0.2,0.1-0.6,0-0.9,0c0.1-0.3,0.1-0.6,0.3-0.8c0.9-0.7,1.8-1.6,2.9-1.9
		c1.8-0.6,2-1.7,2.3-3.3c0.8-5.9,0.7-11.8,1.2-17.6c0.1-1.5-0.5-2.3-1.6-3c-2.1-1.3-3.9-2.9-5.4-4.8C6.1,73.1,4.8,71.9,3.7,70.6z
		 M29,50.3c-0.1,0-0.3,0-0.4,0c-0.1,0.3-0.3,0.6-0.3,0.9c-0.4,1.7-0.8,3.3-2.1,4.5c-0.3,0.3-0.3,0.9-0.4,1.3c-0.2,2,0.3,3.8,0.8,5.7
		c0.8,2.8,1.4,5.7,2.2,8.6c0.4,1.6,1.5,2.5,3,3.2c2,0.8,3.9,0.9,5.9,0.8c0.8-0.1,1.8-0.3,2.5-0.8c1.6-1.2,3.2-2.6,4.7-3.9
		c2.6-2.5,3.8-5.7,4.1-9.1c0.3-3.1,0.4-6.1,1-9.1c0.2-1,0.4-2.2-0.5-3c-0.7-0.7-0.9-1.4-0.9-2.3c0-1.2,0-2.4,0-3.7
		c-5.5,2.3-9.7,1-13-3.8c-0.2,0.5-0.3,0.9-0.2,1.2c0.2,0.6,0.5,1.2,0.6,1.8c0.2,2.5,0.3,4.9,0.4,7.4c0,0.9-0.1,1.9-0.2,2.8
		c-0.7,4.8-2.5,9.3-4.8,13.6c-0.4,0.7-1.2,1.2-1.7,1.7c-0.1-0.1-0.2-0.1-0.3-0.2C31.1,61.9,30.3,56.1,29,50.3z M41.8,9.5
		c-2.9,2.4-4.6,5.3-4.8,9c-0.1,1.5-0.4,3-0.6,4.5c-0.2,1.9-0.6,3.7-0.7,5.6c-0.1,1.4,0,2.9-0.2,4.3c-0.3,2.5-0.2,5,1.7,7
		c1,1.1,2.1,2.4,3.4,3c2,1,4.2,0.7,6.3-0.1c2.6-1,5-2.5,6.5-4.9c1.6-2.3,2.9-4.8,4.4-7.2c0.1-0.2,0.1-0.6,0-0.8
		c-0.7-1.4-1.6-2.6-3.4-2.5c-1.6,0.1-2.6-0.9-3.8-1.8c-0.7-0.5-0.6-0.9,0.3-1c1.2-0.1,2.4-0.2,3.5-0.2c-1.1-2.7-2.5-4.2-8.4-5.6
		c-0.1,0.7-0.7,1.1-1.2,0.7c-1.7-1.2-3.5-1.5-5.5-1.4c-0.3,0-0.6-0.4-1-0.7c0.3-0.2,0.6-0.6,1-0.7c0.7-0.1,1.4-0.1,2.2-0.2
		c-0.4-1.5,0.6-2,1.5-2.2c-0.6-0.6-1.4-1.1-1.7-1.8c-0.5-1,0.1-1.8,1.3-2.2C42.3,10,42.1,9.8,41.8,9.5z M61.6,139.7
		c1.1,2.7,3,4.1,5.4,4.8c1,0.3,2.1,0.5,3.1,0.8c2.1,0.6,4.5-0.2,5.7-1.9c0.2-0.3,0.3-0.8,0.3-1.2c0-0.8,0-1.6-0.1-2.3
		c-0.1-0.6-0.2-1.2-0.3-1.9c-1.4,0.2-2.6,0.4-3.8,0.5c-2.9,0.2-5.7,0.4-8.6,0.7C62.8,139.3,62.2,139.5,61.6,139.7z M21.2,105.7
		c0.1-2.7,0.1-5-0.9-7.3c-1.3-2.9-2.5-5.8-3.2-8.9c-0.3-1.5-0.8-2.9-1.3-4.3c-0.1,0-0.2,0-0.3,0.1c-0.2,1.4-0.4,2.7-0.5,4.1
		c-0.2,2.3-0.3,4.6-0.4,7c-0.1,1.7-0.3,3.5-0.5,5.2c-0.1,0.9,0.2,1.5,1.1,1.8C17.2,104.1,19,104.8,21.2,105.7z M59.9,32.1
		c-0.1,0-0.1,0-0.2,0c0.1,0.6,0.3,1.3,0.2,1.9c-0.1,2.6-0.6,5.1-1.8,7.4c-0.4,0.8-0.3,1.1,0.6,1.1c1,0,2-0.1,3.1-0.2
		c1.8-0.1,3.6-0.1,5.4-0.2c0.2,0,0.5-0.1,0.7-0.2c0.1-0.2,0.2-0.6,0.1-0.7c-0.4-0.6-1-1.1-1.4-1.6c-1-1-2-1.9-2.9-3
		C62.3,35.2,61.1,33.6,59.9,32.1z M44.1,152.9c1.7-0.6,2.8-1.4,3.7-2.7c0.2-0.3,0.4-0.8,0.3-1.2c-0.1-2.5-0.2-5-0.3-7.6
		c0-0.3-0.3-0.8-0.5-0.8c-1.8-0.6-3.9,0.8-3.8,2.6C43.6,146.4,43.9,149.5,44.1,152.9z M74.8,63.3c-1.3-0.7-2.5-1.3-3.6-1.8
		c-0.3-0.1-0.7,0-1,0c0.1,0.3,0.1,0.6,0.2,0.9c0.2,0.4,0.5,0.8,0.9,1.1C72,64.1,73.7,64.1,74.8,63.3z M45.2,7.6
		c-0.8,0-1.3-0.1-1.7,0c-0.4,0.2-0.9,0.6-0.9,0.9c0,0.4,0.3,1,0.6,1.2c0.2,0.1,0.8-0.2,1.1-0.4C44.6,8.9,44.8,8.3,45.2,7.6z
		 M49.5,4.1c-1.5-0.2-2,0-2,0.9c0,0.8,0.5,0.9,1.1,0.9C49.3,5.9,49.7,5.2,49.5,4.1z M44.1,15.3c-0.7-0.4-1.3-0.4-1.8,0.2
		c-0.1,0.2,0.2,1,0.3,1C43.4,16.5,44,16.2,44.1,15.3z M52.4,24.8c-0.5,0.1-0.9,0.2-1.4,0.3c0,0.1,0,0.2,0,0.3
		c0.4,0.3,0.9,0.5,1.3,0.8C52.4,25.7,52.4,25.3,52.4,24.8z M55.1,26.6c0-0.1,0.1-0.2,0.1-0.3c-0.3-0.3-0.5-0.6-0.8-1
		c-0.4,0.6-0.6,0.9-0.8,1.3C54.2,26.6,54.6,26.6,55.1,26.6z"/>
	<path class="st0" d="M38.7,33.3c1.6-0.1,3-0.5,4.1-0.2c1.2,0.3,2.4,0.6,3.5,1c0.9,0.3,1.5,1.2,2.2,2c0.1,0.1-0.1,0.6-0.3,0.7
		c-2.4,1.3-4.7,1.2-6.9-0.3C40.3,35.8,39.6,34.6,38.7,33.3z M39.9,34c1.2,2.9,5,4.2,7,2.7C44.6,35.8,42.3,34.9,39.9,34z M47.2,36
		c0-0.1,0.1-0.2,0.1-0.3c-0.7-0.7-1.2-1.5-2.4-1.3c-0.4,0.1-0.9-0.1-1.3-0.3c-1.1-0.7-1.1-0.7-2.4,0C43.3,34.7,45.2,35.4,47.2,36z"
		/>
	<path class="st0" d="M44.2,23.1c-3,0.5-5.1-0.1-6.6-2c1.3-0.9,2.9-1,4.3-0.7C43,20.7,43.8,21.7,44.2,23.1z M38.5,21.3
		c1.5,1.5,3.2,1.4,5.2,1.5c-0.5-0.6-0.9-1-1.2-1.4c0,0.1,0,0.3,0,0.4c-0.5,0.2-1,0.7-1.4,0.5c-0.5-0.2-0.8-0.8-1.4-1.3
		C39.6,21,39.1,21.1,38.5,21.3z"/>
	<path class="st0" d="M43.5,27.9c-0.4,0.5-0.8,1-1.1,1.5c-0.2,0.5-0.1,1.1,0.8,0.8c0.5-0.2,0.9-0.1,1,0.6c0.2,0.8,1,1.2,1.8,0.8
		c0.7-0.3,1.2-0.4,1.4,0.5c2.3-0.5,0.9-2,0.9-3.2c1.4,1.4,1.3,3.2-0.3,3.5c-1.3,0.3-2.7-0.1-3.9-0.9c-0.3-0.2-0.5-0.4-0.8-0.5
		c-0.8-0.2-1.4-0.4-1.4-1.4C42,28.6,42.5,28,43.5,27.9z"/>
</g>
</svg>
