<?xml version="1.0" encoding="utf-8"?>
<!-- Generator: Adobe Illustrator 19.2.0, SVG Export Plug-In . SVG Version: 6.00 Build 0)  -->
<svg version="1.1" id="Layer_1" xmlns="http://www.w3.org/2000/svg" xmlns:xlink="http://www.w3.org/1999/xlink" x="0px" y="0px"
	 viewBox="0 0 150 180.7" style="enable-background:new 0 0 150 180.7;" xml:space="preserve">
<style type="text/css">
	.st0{fill:#03A9F4;}
</style>
<g id="tired-boy">
	<path class="st0" d="M92.4,38.3c-0.4,1.1-1,2.1-1.8,2.9c-1.9,1.6-4,2.1-5.3,1.3c0.6-0.9,1.4-1.6,2.4-2c1.2-0.5,2.4-1.1,3.5-1.6
		c0.4-0.2,0.7-0.5,1-0.7C92.3,38.2,92.3,38.2,92.4,38.3z M86.4,42.4c0.4-0.2,0.8-0.3,1.2-0.5c0,0-0.1-0.2-0.1-0.3
		c-0.4,0.2-0.7,0.4-1.1,0.6C86.4,42.1,86.4,42.1,86.4,42.4z"/>
	<path class="st0" d="M78.2,38.5c-0.6-0.3-0.4-0.7,0-1c0.9-0.6,1.9-1.1,3-1.1c2.3-0.1,4.6-0.4,6.7-1.7c0.9-0.5,1.9-0.8,2.9-1.3
		c0,1.1-0.7,1.2-1.2,1.4c-0.8,0.4-1.7,0.8-2.5,1.3c-0.9,0.6-1.9,0.6-3,0.7c-1,0.1-2,0.3-3,0.3C79.9,37.1,79,37.7,78.2,38.5z"/>
	<path class="st0" d="M77.9,46.1c-0.1,0.2-0.1,0.4-0.3,0.6c-0.9,1.2-2.1,1.7-3.4,2.3c-1,0.4-1.9,0.7-2.9,0.2
		c-0.2-0.1-0.3-0.3-0.5-0.4c0.2-0.1,0.4-0.3,0.5-0.4c0.1,0,0.2,0,0.2-0.1c1.5-1.3,3.3-1.7,5.2-2.1c0.2,0,0.4-0.2,0.6-0.3
		c0.1-0.1,0.3-0.2,0.4-0.2C77.8,45.8,77.8,46,77.9,46.1z M75.8,48c0.3-0.4,0.5-0.8,0.9-1.2C75.4,46.8,75.3,47,75.8,48z M71.9,48.5
		c0,0.1,0,0.3,0.1,0.4c0.3,0,0.6,0,1-0.1c0-0.2-0.1-0.4-0.1-0.6C72.5,48.3,72.2,48.4,71.9,48.5z"/>
	<path class="st0" d="M149.9,172.4c0-1.9-1.2-3.4-1.3-5.3c-0.1-0.9-0.4-1.8-0.5-2.8c-0.3-1.6-0.5-3.2-0.7-4.8
		c-0.3-1.7-0.7-3.4-0.9-5.1c-0.2-1.6-0.1-3.2-0.2-4.8c0-0.9,0.1-1.8-0.1-2.7c-0.4-2.9-0.9-5.8-1.2-8.7c-0.3-3.4-0.3-6.7-0.3-10.1
		c0-0.7,0.1-1.5,0.2-2.2c0.3-2.4,0.7-4.7,0.8-7.1c0.1-2.5-0.1-4.9-0.3-7.4c-0.1-1.8-0.3-3.6-0.7-5.3c-0.9-3.5-1.9-7-2.8-10.5
		c-0.1-0.3,0-0.7,0.1-1.1c0.6-1.4,1.3-2.8,1.1-4.4c-0.2-1.7-0.5-3.3-0.9-5c-1.3-5.2-2.5-10.3-3.9-15.5c-0.9-3.4-1.7-6.7-1.5-10.2
		c0-0.2,0-0.5-0.1-0.7c-0.5-1.4-1-2.8-1.4-4.2c-1.1-3.5-3.3-6-6.8-7.3c-3-1.1-5.8-1.1-8.6,0.6c-0.6,0.4-1.2,0.7-1.8,0.9
		c-0.7-0.6-1.4-1.1-2-1.7c0.5-1.6,1-3.2,0.9-4.9c0-0.6-0.3-1.1-0.3-1.7c-0.1-2.3-0.1-4.5-0.2-6.8c0-0.7-0.1-1.4-0.1-2.2
		c-0.1-0.9-0.2-1.8-0.2-2.7c0-1.7,0.1-3.4,0.2-5.1c0.1-2.4-0.9-4.5-2.3-6.4c-1-1.3-1.8-2.7-2.8-4c-0.3-0.4-0.5-0.8-0.8-1.1
		c-1.2-1.2-2.4-2.4-3.8-3.4c-1.3-1-2.6-2-4.1-2.7c-2.7-1.3-5.5-2.4-8.2-3.7c-1-0.5-2-1-3.1-1.2c-0.9-0.2-1.9-0.4-2.8-0.6
		c-0.9-0.2-1.7-0.7-2.6-0.8c-2-0.1-4.1-0.1-6.1,0c-2,0.1-3.9,0.7-5.7,1.7c-1.4,0.8-2.7,1.8-4.3,2.1c-0.7,0.1-1.4,0.4-2,0.7
		C67.2,5,66.6,5.5,66.1,6c-1.3,1.1-2.5,2.3-3.7,3.5c-0.5,0.4-1,1-1.5,1.2c-2.3,1.1-3.8,2.7-4.6,5.2c-0.1,0.4-0.4,0.9-0.7,1.3
		c-0.4,0.5-1,1-1.5,1.5c-1.9,1.7-2.8,5.9-1.8,8.7c1.1,2.7,1.9,5.6,1.8,8.6c0,0.6-0.2,1.1-0.1,1.7c0,0.2,0.3,0.5,0.5,0.7
		c0.2-0.2,0.6-0.3,0.7-0.6c0.2-0.6,0.3-1.2,0.4-1.9c0.1,0.2,0.2,0.2,0.2,0.3c0.6,1.6,1.2,3.2,1.9,4.8c0.2,0.5,0.4,1,0,1.6
		c-1.5,2.4-2.8,4.9-4.2,7.4c-0.4,0.7-0.9,1.4-1.2,2.2c-1,2.6-2,5.3-2.9,8c-0.2,0.6-0.4,1.3-0.5,2c-0.4,1.4-0.7,2.8-1.1,4.2
		c-0.2,0.8-0.5,1.5-0.8,2.3c-1.2,3.8-2.2,7.7-2.6,11.8c-0.3,2.8,1.3,5.2,3.8,6c2.3,0.7,4.6,0.9,6.9,0.8c0.9,0,1.8-0.2,2.6-0.9
		c0.2-0.2,0.5-0.4,0.7-0.3c0.8,0.1,1.6,0.3,2.2,0.4c-0.6,1.1-1.2,2.3-1.7,3.5c-0.6,1.5-1,3.1-1.8,4.5c-2.1,3.8-4.2,7.5-6.6,11.1
		c-2,3.1-3.9,6.3-5.5,9.6c-1.2,2.7-2.5,5.4-3.7,8c-0.3,0.7-0.7,1.3-1.1,1.9c-1.1,2.1-2.2,4.2-3.5,6.2c-1.6,2.6-3.3,5.1-4.4,7.9
		c-0.2,0.4-0.5,0.7-0.8,1c-0.8,0.7-1.7,1.3-2.5,2c-0.3,0.3-0.6,0.3-1.1,0.2c-0.8-0.1-1.7-0.1-2.4,0.2c-2,1-3.7,2.4-5.1,4.2
		c-0.4,0.5-0.6,1-0.9,1.5c-0.9,1.2-1.7,2.4-2.7,3.5c-0.5,0.6-1.1,1.1-1.6,1.7c-0.3,0.4-0.6,0.4-1,0c-0.7-0.7-1.3-0.7-2.1,0
		c-0.4,0.3-0.9,0.6-1.2,0.9c-0.8,0.8-1.8,1.5-2.3,2.5c-0.5,1-1.2,1.4-2.1,1.5c-1.6,0.1-2.7,1.1-3.6,2.2c-0.8,0.9-1.3,2-2.3,2.8
		c-0.5,0.4-0.7,1.1-0.7,1.7c0,0.9,0.1,1.8,0,2.6c0,0.7,0.3,1.1,0.9,1.4c1,0.3,2,0.6,2.9,1c1.6,0.8,3.4,1.1,5.2,1
		c2.6-0.1,5.3-0.1,7.9-0.3c1.7-0.1,3.5-0.4,5.2-0.8c1.1-0.3,2.1-1,3.1-1.4c1.5-0.6,3-1.3,4.6-1.6c1.6-0.3,3.3-0.2,4.9-0.4
		c0.6,0,1.3-0.1,1.9-0.2c0.7-0.1,1.4-0.2,2.1-0.2c0.8-0.1,1.7,0,2.5-0.2c1.2-0.2,2.2-1.3,2.4-2.8c0.2-1.2-0.1-1.6-1.5-2.4
		c-0.2-0.1-0.4-0.4-0.3-0.6c0.3-1.4,0.7-2.8,1.1-4.2c0.2-0.7,0.3-1.4,0.4-2.1c0.1-0.5,0.2-1.1,0.5-1.5c1.1-1.5,1.8-3.3,2.3-5.1
		c0.1-0.5,0.2-0.9,0.5-1.4c2.3-4,4.7-7.8,8.2-11c1.8-1.6,3.1-3.5,4.7-5.4c2.1-2.4,4.1-4.9,6.1-7.4c1.4-1.7,2.7-3.5,4.1-5.4
		c0,0.6,0,1.1,0,1.6c0,1.2,0,2.3,0.6,3.3c0.8,1.5,1.4,3.1,2.2,4.6c0.5,1,1.1,2,1.6,3.1c0.6,1.4,1.5,2.6,2.5,3.7
		c1,1.1,1.9,2.5,2.7,3.8c0.9,1.4,1.6,2.9,2.4,4.3c1,1.5,2.2,3,3,4.6c1.4,2.7,3.2,5.1,5.2,7.3c0.3,0.3,0.7,0.7,1.1,0.9
		c1.3,0.6,2.7,1.3,4.1,1.7c2,0.6,4,1,6.1,1.5c0.2,0.8,0.5,1.6,0.7,2.4c0.2,0.5,0.3,1,0.6,1.4c0.4,0.7,1.4,1.1,2.1,0.9
		c0.6-0.1,1.2-1,1.4-1.7c0.2-1.3,0.4-2.7,0.6-4c0.2,0.3,0.5,0.6,0.6,0.9c0.4,0.8,0.8,1.6,1.3,2.4c0.5,0.8,1.2,1.4,2.2,1.2
		c0.9-0.2,1.2-0.9,1.3-1.7c0.1-0.4,0.1-0.7,0.1-1.1c0-0.4-0.1-0.8-0.1-1.2c0.7-0.1,1.4-0.3,2.1-0.3c0.8,0,1.6,0.2,2.4,0.3
		c1.2,0.1,2.5,0.1,3.7,0.1c0.9,0,1.8,0,2.7-0.1c2.1-0.3,4.1-0.7,6.2-1.1c-0.1,0.3-0.2,0.7-0.3,1.1c-0.3,1.1-0.6,2.3-1.1,3.3
		c-1,1.8-2.2,3.5-3.2,5.4c-0.8,1.4-1.4,3-1.9,4.5c-0.3,0.9-0.4,1.8,0.1,2.5c-0.4,0.7-0.9,1.3-1.1,2c-0.2,0.9-0.2,1.8-0.2,2.7
		c0,1.8,0.6,2.7,2.3,3.3c2.4,0.8,5,0.9,7.5,0.7c3.5-0.3,7-0.4,10.5-0.7c2.1-0.2,4.1-0.7,6-1.5c1.1-0.5,2-1.3,2.2-2.5
		C150.1,174.8,149.9,173.6,149.9,172.4z M10.1,158.7c-0.1-0.1-0.3-0.4-0.5-0.7c-0.2,0.1-0.4,0.2-0.7,0.4c0.5-0.9,2.3-0.6,3.5,0.4
		c-2,0.7-3.9,1.4-5.8,2.2c-0.5,0.2-1,0.6-1.6,0.9c-0.3-0.3-0.4-0.7,0.3-1C6.9,160.2,8.5,159.5,10.1,158.7z M9.8,161.3
		c-0.1,0.2-0.2,0.4-0.3,0.5c-0.6,0.3-1.1,0.3-1.6-0.4c0.5-0.1,1-0.3,1.4-0.4C9.4,160.9,9.6,161.2,9.8,161.3z M7.1,159.2
		c-1.1,0.6-2.1,1.2-3.1,1.7C4.8,159.8,5.7,159.1,7.1,159.2z M4.4,161.6c0.1,0,0.2,0,0.3,0.1c0,0.3,0,0.6-0.1,0.9
		c0,0.1-0.4,0.1-0.9,0.2C4,162.2,4.2,161.9,4.4,161.6z M3.8,164.3c-0.4-0.2-0.4-0.6-0.3-1c0.3-0.8,1-0.3,1.4-0.5
		c0.2,0.5,0.4,1,0.7,1.6C4.9,164.9,4.3,164.6,3.8,164.3z M15.1,163.9c0,0.2-0.3,0.5-0.4,0.5c-1.4-0.3-2.5,0.7-3.8,0.8
		c-1,0.1-2,0.1-3,0c-1.2-0.1-1.7-1.1-2.2-2c-0.1-0.2,0.2-1,0.5-1.2c0.5-0.3,1.1-0.7,1.8-0.1c0.3,0.3,1.1,0.2,1.6,0.1
		c0.3-0.1,0.4-0.7,0.5-1.1l-0.2-0.1c0.9-0.4,1.9-0.9,2.9-1.3c0.2-0.1,0.4-0.1,0.5,0c0.9,0.3,1.8,1.4,1.8,2.4
		C15.1,162.5,15.1,163.2,15.1,163.9z M23.3,152.7c-0.2,2.3-2,3.6-4.2,2.8c-0.5-0.2-0.9-0.4-1.4-0.6c-0.6-0.3-1.2-0.7-1.8-1.1
		c2.1-1.9,3.1-4.9,6-6.1C22.8,149.3,23.5,150.9,23.3,152.7z M61.9,30.6c1,0,2,0.3,3,0.3c0.9,0,1.8,0.1,2.6-0.2
		c1.4-0.4,2.8-0.9,3.8-2.2c0.2-0.3,0.5-0.4,0.8-0.6c0.6-0.5,1.2-0.9,1.8-1.5c0.7-0.7,1.4-1.3,2.3-1.8c2.1-1,3.9-2.4,5.6-4
		c0.5-0.4,1-0.8,1.5-1.3c0.8,1.8,2.3,2.4,3.8,3.2c1,0.5,1.9,1.1,2.7,1.8c1,0.9,2.1,1.2,3.4,1.2c1.7,0.1,3.3,0.4,4.5,1.7
		c0.7,0.7,1.2,1.5,1.9,2.2c0.5,0.6,1.1,1.2,1.8,1.7c0.6,0.5,1.9-0.1,2.1-0.9c0.2-0.7,0.3-1.4,0.5-2c0.3-0.7,0.7-1.3,1.1-1.9
		c0.6-0.9,1.6-0.6,2.5-0.7c0.8-0.1,1.4,0.3,2,0.7c1,0.8,0.4,1.7,0.3,2.7c-0.1,1.3-0.1,2.6-0.3,3.9c-0.1,0.8-0.3,1.6-0.7,2.3
		c-0.4,0.8-1.5,0.7-1.9,0c-0.1-0.1-0.3-0.2-0.4-0.4c-0.2-0.3-0.5-0.6-0.4-0.9c0.1-0.3,0.5-0.7,0.8-0.8c1.5-0.4,1.8-0.8,1.8-2.4
		c0-1.3-0.1-2.5-1.1-3.3c-0.3-0.2-0.8-0.3-1.2-0.2c-0.2,0-0.4,0.4-0.5,0.7c0,0.1,0.2,0.3,0.2,0.3c0.2-0.1,0.4-0.2,0.8-0.4
		c0.8,0.4,0.9,1.2,1,1.9c0,0.3,0,0.7,0,1c0,1.2-0.1,1.4-1.3,1.5c-0.7,0.1-1.3,0.8-1.4,1.6c-0.1,0.6-0.2,1.3,0.6,1.7
		c0.6,0.3,1.2,0.5,1.7,0.9c0.2,0.1,0.4,0.4,0.5,0.6c0.1,0.4,0.1,0.8,0.1,1.2c0,1.8,1.2,3,2.1,4.3c1.2,1.8,2.7,3.4,4.1,5
		c0.6,0.7,1.5,1.1,2.3,1.6c0.2,0.2,0.4,0.3,0.7,0.5c-0.8,2.4-1.7,4.8-2.4,7.2c-0.8,2.9-2.5,5.1-4.7,7c-1.9,1.7-4,3-6.5,3.4
		c-1.5,0.2-3,0-4.5-0.1c-1.3-0.1-2.5-0.6-3.5-1.4c-0.3-0.2-0.5-0.5-0.7-0.8c1-0.6,1.9-1.1,2.8-1.7c2.3-1.4,4.1-3.4,5-5.9
		c0.8-2.1,1.2-4.3,1.8-6.4c0.4-1.4,0.9-2.9,1.3-4.3c0.3-1.2,0.6-2.5,0.3-3.8c0-0.1-0.1-0.2-0.2-0.5c-0.3,0.5-0.7,0.8-0.6,1.1
		c0.2,2.3-0.7,4.3-1.3,6.4c-0.4,1.4-0.6,3-1.1,4.4c-0.5,1.5-1,3-1.7,4.3c-0.9,1.6-2.2,3-3.8,3.9c-1.2,0.7-2.4,1.6-3.9,1.8
		c-1.5,0.2-3,0.4-4.5-0.5c-1.1-0.7-2.4-0.9-3.6-1.4c-2.5-1-5.2-1.8-7.4-3.6c-1.2-1-2.2-2.2-3.1-3.4c-1.4-1.9-2.6-3.9-3.9-5.8
		c-0.8-1.1-1.7-2.1-2.6-3.2c0,0-0.1-0.1-0.1-0.1c0,0,0,0,0-0.1c0.1-0.4,0.4-0.8,0.6-1.1c0.1,0,0.1,0,0.2-0.1c0.3-0.3,0.5-0.6,0.7-1
		c0.7-1.2,1.6-2.1,3-2.5c0.1,0,0.2-0.1,0.3-0.2c0.7-0.3,1.5-0.5,2.3-0.2c0.5,0.4,0.9,0.8,1.3,1.3c1.6,1.8,2.8,3.9,3.4,6.3
		c0.5,1.7,1,3.4,1.5,5.1c0.2,0.7,0.6,1.1,1.3,1.2c0.4,0,0.7,0.1,1.1,0.1c0.8,0.1,1.5-0.3,1.9-1c0.3,0.4,0.4,0.8,0.5,1.2
		c0,0.1,0.1,0.1,0.1,0.2c0,0.1,0,0.2,0.1,0.4c0.2,1,0.3,2-0.2,3c-0.4,0.7-0.3,1.6-0.3,2.4c0,0.1,0.3,0.3,0.4,0.5
		c0.1,0,0.1-0.1,0.2-0.1c0-0.4,0-0.8,0-1.1c-0.1-0.9,0.3-1.6,1.2-1.9c1.1-0.4,2.2-0.7,3.3-0.9c1.4-0.2,2.8-0.3,4.3-0.4
		c0.2-0.5-0.1-0.7-0.5-0.7c-1.3,0.1-2.5,0.1-3.8,0.3c-1.2,0.2-2.4,0.4-3.7,0.7c-0.2-1.1-0.3-1.8-0.4-2.1c0-0.1,0.1-0.1,0-0.2
		c-0.1-0.6-0.4-1.2-0.8-1.7c0,0-0.1,0-0.1-0.1c0.2-0.2,0.4-0.3,0.6-0.4c2-0.3,2.6-1,2.3-2.7c-0.1-0.7-0.5-1.1-1.1-1
		c0.1,0.3,0.2,0.5,0.3,0.8c0.4,1,0,1.8-1.1,2.1c-1.6,0.3-1.9,0.6-2,1.9c-0.6,0-1.2-0.1-1.7,0c-0.8,0.1-1.2-0.3-1.3-1
		c-0.3-1.1-0.6-2.2-0.8-3.3c-0.6-2.4-1.6-4.6-3-6.7c-0.6-0.9-1.5-1.6-2.4-2.3c0-0.1,0-0.2-0.2-0.3c-0.1-0.1-0.2-0.1-0.4-0.1
		c0,0-0.1-0.1-0.1-0.1c0,0-0.1,0-0.3,0c-1.1-0.2-2.2,0.2-3.2,0.8c0,0,0,0-0.1,0c-0.3,0.1-0.6,0.3-0.9,0.5c-0.8,0.7-1.6,1.5-2.3,2.3
		c-0.2,0.2-0.3,0.4-0.4,0.6c0,0.1,0,0.1,0,0.2c-0.2,0.3-0.4,0.6-0.6,0.9c-1.2-1.5-2.3-3-3.2-4.7c-0.2-0.4-0.5-0.8-0.8-1.2
		c-0.7-0.8-0.8-1.8-1-2.9c-0.1-0.7-0.4-1.4-0.7-2.1c-0.3-1-0.7-2.1-1-3.1C60.7,31,61,30.5,61.9,30.6z M67.6,47.5
		c1.8,2.1,3.5,4.2,4.8,6.6c0.6,1.1,1.4,2,2.2,3c0.2,0.3,0.5,0.6,0.7,0.9c-1.7,1-2.7,2.8-3.9,4.3c-0.6,0.7-1.3,1.5-1.9,2.2
		c-0.8,0.9-1.7,1.7-2.6,2.6c-0.1,0.1-0.3,0.3-0.5,0.3c-1.1,0.4-2.3,0.7-3.5,1.1c1.4-7.1,2-14.4,4.2-21.5
		C67.3,47.2,67.5,47.3,67.6,47.5z M59.3,85.2c0-0.1,0-0.2-0.1-0.3c0.6-0.5,1.1-0.9,1.7-1.5c0.2-0.2,0.2-0.5,0.3-0.7
		c-0.3-0.1-0.5-0.2-0.8-0.2c-0.3,0-0.5,0.2-0.7,0.4c-1,0.8-1.9,1.6-2.9,2.3c-0.4,0.3-1,0.5-1.6,0.5c-1.9,0-3.9,0.2-5.7-0.6
		c-0.4-0.1-0.8-0.1-1.2-0.2c-1.5-0.4-2.6-1.9-2.6-3.4c0-2.7,0.3-5.4,1.2-8c0.6-1.7,0.9-3.4,1.4-5.1c0.3-1.2,0.9-2.3,1.1-3.5
		c0.8-4.5,2.6-8.7,4.3-13c0.4-1,1-1.9,1.5-2.8c1.3-2.3,2.6-4.6,3.9-7c0.3-0.6,0.3-1.3,0.4-2c-0.2,0.1-0.3,0.3-0.3,0.3
		c-1.1-2.5-2.3-4.9-3.4-7.4c-0.6-1.5-0.9-3.1-1.4-4.7c-0.1-0.2-0.1-0.5-0.2-0.7c0.1,0,0.1-0.1,0.2-0.1c4.1,6.2,8.1,12.3,12.2,18.5
		c-0.7,0.8-0.8,1.7-1,2.7c-0.1,1.2-0.7,2.3-0.9,3.5c-0.5,2.7-0.9,5.5-1.4,8.2c-0.3,1.7-0.6,3.4-0.9,5.1c-0.3,1.7-0.7,3.5-0.9,5.2
		c-0.1,1.1-0.6,2-1.2,2.9c-0.2,0.3-0.4,0.7,0,0.9c0.2,0.1,0.7-0.1,0.9-0.3c1-1.1,1.3-2.5,1.5-3.9c0.1-0.3,0.4-0.7,0.7-0.9
		c0.9-0.4,1.9-0.7,2.8-1c1.3-0.4,2.3-1.3,3.2-2.3c0.8-0.9,1.7-1.7,2.5-2.6c1-1.1,1.8-2.3,2.8-3.4c0.4-0.5,0.9-0.9,1.3-1.3
		c1,0.7,1.9,1.4,2.7,2.1c1.8,1.4,4,2,6.2,2.6c1.1,0.3,1.5,0.9,1.7,1.9c0.6,2.9,0.6,5.8,0.6,8.7c0,0.3-0.1,0.6-0.2,0.8
		c-0.2,1-0.6,2.1-0.6,3.1c0,1.4-0.7,2.6-1.2,3.7c-1.4-1-2.8-2-4.2-3c0.6-0.5,1.3-1.2,2-1.8c0.2-0.2,0.4-0.3,0.5-0.5
		c0.1-0.2,0-0.5-0.1-0.6c-0.1-0.1-0.4,0-0.6,0.1c-1.3,1.1-2.6,2.2-3.9,3.3c-0.7,0.5-1.5,1-2.3,1.3c-2.2,0.9-4.1,2.2-6.5,2.8
		c-2.2,0.5-4.4,1.1-6.6,1.5C62.2,85,60.7,85.1,59.3,85.2z M84.1,84c-0.1,0.1-0.1,0.2-0.2,0.2c-0.5,0.9-0.6,0.9-1.3,0.1
		c-0.9-1-2-1.8-2.3-3.2c-0.1-0.3-0.1-0.6-0.2-0.9c0.1-0.1,0.2-0.2,0.2-0.3c0.6,0.3,1.2,0.5,1.8,0.9c0.5,0.3,1.1,0.7,1.6,1.1
		C84.5,82.6,84.8,83.2,84.1,84z M79.8,83.1c-1.2-0.4-2.5-0.8-3.7-1.2c0.8-0.4,1.7-1,2.7-1.6C79.2,81.4,79.5,82.3,79.8,83.1z
		 M40.2,160.5c-0.4,1.1-1.5,1.5-2.5,1.4c-1.3,0-2.7-0.3-4-0.5c-0.7-0.1-1.4-0.2-2.1-0.4c0.6-1.3,0.4-3.1,2.1-3.8
		c0.9-0.4,1.9-0.6,2.8-0.7c1.5-0.1,3,0,4.8,0C40.9,157.9,40.6,159.2,40.2,160.5z M86,101.1c-0.3,1.3-0.8,2.6-1.4,3.9
		c-0.8,1.9-1.7,3.8-2.6,5.7c-0.4,0.8-0.6,1.8-1.1,2.4c-1,1.3-2.2,2.5-3.3,3.6c-0.7,0.7-1.4,1.4-2.2,1.9c-0.7,0.4-1.5,0.7-2.3,0.9
		c-0.1,0-0.4-0.1-0.4-0.3c-0.2-0.4-0.2-1-0.5-1.4c-0.4-0.7-0.9-1.5-1.5-2.1c-0.3-0.4-0.4-0.6-0.2-1c0.1-0.2,0.2-0.4,0.4-0.7
		c1.8-2.6,3.3-5.3,4-8.4c0.1-0.5,0.4-0.9,0.6-1.3c0.4-0.5,0.7-0.9,0.6-1.6c-0.1-0.4,0.3-0.8,0.4-1.2c0.1-0.2,0.1-0.5,0.1-0.7
		c0-0.2-0.2-0.5-0.4-0.5c-0.2,0-0.5,0.2-0.6,0.4c-1,2.4-1.8,4.9-2.8,7.2c-0.7,1.6-1.6,3-2.4,4.5c-0.7,1.3-1.5,2.6-2.4,3.8
		c-1.9,2.5-3.8,4.9-5.8,7.3c-1.3,1.6-2.8,3.1-4.1,4.6c-0.5,0.6-0.8,1.3-1.3,1.8c-0.7,0.8-1.5,1.6-2.3,2.4c-2.1,2.5-4.3,4.8-6.3,7.4
		c-1.6,2.2-3,4.5-3.8,7.1c-0.5,1.5-1.6,2.8-2.4,4.2c-0.1,0.1-0.3,0.1-0.5,0.2c-0.8,0.1-1.7,0-2.5,0.2c-1.3,0.2-2.5,0.2-3.8,0.2
		c-2.2,0-4.9-1.7-5.2-4.4c-0.1-1.4-0.5-2.8-1.5-3.9c1.3-1.1,2.6-2.1,3.8-3.2c0.4-0.4,0.7-0.9,0.9-1.5c1.2-3.2,3.2-5.9,5.1-8.7
		c2-3,3.6-6.2,4.9-9.6c0.7-1.9,1.6-3.7,2.6-5.6c1.3-2.5,2.6-4.9,4-7.3c2.3-3.9,4.8-7.6,7-11.5c0.8-1.3,1.2-2.9,1.8-4.3
		c0.5-1.2,0.8-2.4,1.3-3.5c0.4-0.9,1.1-1.6,1.7-2.4c0.1-0.1,0.3-0.2,0.4-0.2c3.5-0.2,6.8-1.1,10.1-2.3c0.3-0.1,0.6-0.2,0.9-0.3
		c0.1-0.1,0.4-0.2,0.4-0.1c0.8,0.8,1.7,0.1,2.5,0.2c0.5,0,1,0,1.5,0.2c1.2,0.5,2.3,1.1,3.4,1.8c0.6,0.4,1.1,1.1,1.6,1.7
		c0.7,0.7,1.3,1.6,2.2,2.1c0.8,0.5,1,1.2,1.1,1.9c0.2,1.9,0.5,3.8,0.5,5.7C86.5,98.2,86.3,99.7,86,101.1z M91.9,96.2
		c-0.6-0.5-0.8-1.1-1.1-1.8c-0.9-2.6-2.2-5-4.9-6.3c-0.8-0.4-1.3-0.9-1.5-1.5c0.7-1.2,1.3-2.2,1.9-3.2c1-1.5,1-3.2,1.4-4.9
		c0.7-2.8,0.9-5.6,0.8-8.5c-0.1-1.8-0.5-3.5-0.8-5.4c0.3,0,0.6,0,0.8,0.2c1.3,1.1,2.9,0.8,4.4,0.7c0.6,0,1,0.1,1.4,0.5
		c1,1.2,2.3,2.3,3.9,2.5c1.9,0.3,3.9,0.3,5.8,0.4c0.5,0,0.9-0.2,1.4-0.4c2.6-1.1,5-2.7,7.2-4.4c1.2-0.9,2.1-1.9,2.6-3.3
		c0.1-0.2,0.2-0.3,0.3-0.5c0.1,0,0.1,0,0.2,0.1c0,0.2,0,0.5,0,0.7c0.1,3,0.6,6,2.3,8.6c0.6,0.9,1.1,1.9,1.1,3.1c0,0.3,0.2,0.6,0.2,1
		c0.4,1.4,0.9,2.7,1.2,4.1c0.5,2.2,1.4,4.2,2.4,6.2c0.4,0.8,0.4,1.5-0.3,2.2c-1,0.9-1.9,1.9-2.9,2.9c-0.2,0.3-0.4,0.6-0.5,0.9
		c-0.6,1.3-1.1,2.7-1.9,3.9c-2.4,3.5-4.9,7-7.6,10.4c-1.5,2-3,3.9-4.3,6c-0.6,1-1.2,2.1-1.9,3.3c-0.9-2.7-2.4-4.7-4-6.7
		c-1-1.3-1.9-2.8-2.6-4.3C95.7,100.2,94.2,97.9,91.9,96.2z M119.2,117.6c-0.6,0.6-1.5,1-2.2,1.6c-0.8,0.7-1.4,1.6-2.1,2.4
		c-1.6,1.6-3.2,3.1-4.7,4.7c-0.9,0.9-1.6,1.8-2.4,2.8c-0.8,1-0.8,2.2-0.5,3.5c0.5,2.1,1.1,4.1,1.5,6.3c0.2,1,0.1,2,0,3
		c-0.1,1.4-0.4,2.9-0.3,4.3c0.1,1,0.5,2,1,3c0.7,1.4,1.4,2.7,2.2,4.1c0.2,0.4,0.7,0.7,1,1c0.2,0.2,0.4,0.4,0.3,0.6
		c-0.1,0.2-0.4,0.5-0.5,0.5c-0.6-0.2-1.3-0.3-1.7-0.7c-1.4-1.7-2.6-3.6-3.9-5.4c-0.2-0.2-0.2-0.5-0.4-0.7c-0.2-0.2-0.5-0.2-0.7-0.3
		c0,0.3-0.2,0.6-0.1,0.7c0.5,0.9,0.9,1.8,1.5,2.6c1.1,1.5,2.4,2.9,3.5,4.4c0.1,0.1,0.1,0.2,0.1,0.3c0,0.8,0.1,1.6,0,2.3
		c0,0.3-0.3,0.8-0.6,0.9c-0.3,0-0.7-0.3-0.9-0.5c-0.4-0.7-0.7-1.5-1.1-2.1c-1.1-1.5-2.3-2.9-3.3-4.5c-0.8-1.2-1.4-2.5-2.1-3.7
		c-0.1-0.3-0.4-0.4-0.6-0.6c-0.1,0.3-0.3,0.7-0.2,0.9c0.6,1.7,1.5,3.3,2.6,4.7c0.4,0.5,0.7,1,0.6,1.7c-0.2,1.4-0.2,2.8-0.3,4.2
		c0,0.5-0.2,1.1-0.8,1.2c-0.6,0-1-0.5-1.2-1.1c-0.4-1.2-0.8-2.5-1.2-3.7c-1.2-3.3-1.9-6.7-2.5-10.1c-0.2-1-0.6-1.9-1-2.8
		c-0.8-2.2-1.3-4.4-1.2-6.8c0.1-1.2,0.1-2.4,0-3.6c-0.1-1.7,0.2-3.4,0.7-5c0.4-1.4,0.6-2.9,1.1-4.2c1-2.1,2-4.2,3.4-6
		c2.3-2.9,3.7-6.2,5.8-9.1c1.2-1.7,2.6-3.3,3.8-5c1.9-2.6,3.9-5.2,5.8-7.9c0.8-1.2,1.5-2.4,2.2-3.7c0.2-0.4,0.3-1,0.4-1.5
		c0.1-0.3,0.2-0.7,0.5-0.9c1.6-1.3,3-2.9,5.1-3.6c0.4-0.1,0.8-0.3,0.8-0.9c0-0.2,0.4-0.4,0.9-0.8c-1.3-0.6-2,0.5-3,0.7
		c-0.7-1.6-1.5-3.2-2.1-4.9c-0.8-2.5-1.5-5-2.1-7.5c-0.2-0.9-0.2-1.9-0.2-2.9c0-2,0.1-4,0.1-6c0-0.3-0.2-0.5-0.4-0.8
		c-0.2,0.2-0.4,0.4-0.5,0.7c-0.2,0.5-0.3,1-0.4,1.6c-0.1-0.7-0.2-1.3-0.2-1.9l-0.2,0c0.2,1.8,0.4,3.6,0.5,5.4
		c-0.1,0-0.1,0.1-0.2,0.1c-0.3-0.8-0.8-1.5-1-2.3c-0.8-2.6-1.1-5.2-0.9-7.8c0.2-2.5,0.3-4.9,1.5-7.2c1.1-2.1,3-2.9,5.1-3.4
		c0.8-0.2,1.6-0.2,2.5,0.1c1.3,0.5,2.8,0.9,4.1,1.5c1.7,0.7,2.7,2.1,3.3,3.8c0.5,1.4,1.1,2.8,1.7,4.3c0.4,1,0.7,2,0.6,3.1
		c-0.2,3,0.6,5.8,1.3,8.6c0.3,1.4,0.4,2.9,0.8,4.3c0.5,2,1.1,3.9,1.7,5.9c0.6,2.1,1.2,4.2,1.7,6.4c0.4,1.6,0.7,3.2,0.8,4.8
		c0.1,1.4-0.6,2.7-1.3,4c-0.9,1.6-2.3,2.6-3.4,3.9c-0.3,0.4-0.5,1-0.9,1.3c-0.7,0.7-1.5,1.2-2.2,1.9c-1.4,1.4-2.9,2.8-4.2,4.2
		c-1.2,1.3-2.1,2.8-3.3,4.1C124.1,112.5,121.6,115.1,119.2,117.6z M110,147.9c-0.7-1.3-0.6-2.7-0.3-4.1
		C111,145.5,111.1,147.1,110,147.9z M128,130.9c-0.5-1.8-1-3.6-1.4-5.4c-0.3-1.3-0.3-2.7-0.6-4c-0.5-2.4-0.9-4.7-0.9-7.2
		c0-1.2,0.5-2.1,1.4-2.9c1.1-1,2.1-1.9,2.7-3.3c0.3-0.8,1-1.5,1.6-2.1c0.8-0.9,1.7-1.8,2.6-2.6c0.6-0.6,1.4-1,2-1.5
		c1.3-1.2,2.5-2.5,3.7-3.8c0.5-0.5,1-1,1.5-1.6c0.4,1.1,0.7,2.1,1,3.1c0.6,2.2,1.2,4.3,1.8,6.5c0.1,0.6,0.2,1.2,0.3,1.7
		c0.1,3.4,1.1,6.7,0.8,10.1c-0.2,2.5-0.6,5.1-0.8,7.6c-0.1,0.8-0.3,1.6-0.2,2.4c0.1,3.5,0.1,7.1,0.3,10.6c0.1,1.9,0.5,3.9,0.7,5.8
		c0.1,0.7,0.1,1.3,0.1,2c0.1,1.3,0.2,2.5,0.2,4c-0.6-0.6-1-1.1-1.6-1.4c-0.9-0.5-1.8-0.9-2.8-1.2c-0.9-0.3-1.9-0.6-2.9-0.6
		c-2.2-0.1-3.9,1-5.3,2.7c-0.2,0.3-0.4,0.6-0.6,0.9c-0.1,0-0.2-0.1-0.3-0.1c-0.1-2.7-0.1-5.4-0.4-8c-0.3-2.5-1.1-4.9-1.7-7.3
		C128.9,133.8,128.4,132.3,128,130.9z M130.8,158.1c0.7-1,1.6-1.9,2.3-2.9c0.7-1.1,1.6-1.5,2.7-1.9c1.4-0.5,2.5-0.3,3.6,0.6
		c1.3,1,2.5,2.1,3.7,3.1c1.5,1.2,1.9,2.9,2,4.7c0,0.5,0.1,1.1,0.1,1.7c-0.1,0-0.2,0-0.2,0c-2.1-2.3-4.9-2.6-7.7-2.8
		c-2.9-0.2-5.7,0-8.6,0.8C129.4,160.1,130,159.1,130.8,158.1z M146.5,172.6c-0.1,0-0.3,0-0.3-0.1v-1.1c0,0,0,0,0,0
		c-0.1,0.6-0.1,1.1-0.2,1.7c-0.2,0.9-1.7,1.5-2.3,0.8c-0.3-0.3-0.2-0.9-0.3-1.3c0.1-0.1,0.2-0.1,0.2-0.2c0.5,0.2,0.9,0.4,1.5,0.7
		c0.3-0.3,0.2-0.7,0-1.1c-0.4-0.5-0.9-0.6-1.5-0.1c-0.2-0.9,0.3-1.8-0.8-2.5c-0.1,1.1-0.1,2.1-0.2,3c0,0.5-0.1,1-0.3,1.4
		c-0.4,0.8-1,1-2,0.9c-0.8-0.2-0.9-0.8-1-1.5c-0.1-0.8-0.1-1.7-0.2-2.5c0-0.4-0.2-0.8-0.3-1.1c-0.1,0-0.2,0-0.3,0
		c-0.1,0.3-0.3,0.6-0.3,0.9c0.1,1,0.3,1.9,0.4,2.9c0.1,0.9-0.2,1.3-1.1,1.3c-1.8,0.1-2.4-0.5-2.2-2.3c0-0.5,0.1-0.9,0.1-1.4
		c0-0.2-0.1-0.5-0.4-0.7c-0.6,1.4-0.5,2.8-0.2,4.2c-1.3,0.9-3,0.1-3.3-1.5c-0.1-0.6-0.4-1.1-0.5-1.7c0-0.2,0-0.4,0-0.5
		c0-0.3,0-0.7-0.2-0.9c-0.1-0.1-0.6,0-0.8,0c0.1,1,0.2,1.9,0.2,2.8c-0.1,1.1-1.1,2.2-2.4,2.3c-1.5,0.1-3.6-1.1-4-2.5
		c-0.1-0.3-0.2-0.8-0.1-1c0.6-1.4,1.1-2.9,2.3-3.9c1.2-1,2.6-1.1,4-1c2.4,0.2,4.9,0.7,7.3,0.9c2.1,0.2,4.2,0.1,6.2,0.2
		c0.6,0,1.4-0.5,1.9,0.2c0.5,0.7,0.9,1.5,1.2,2.4c0.2,0.6,0.1,1.3,0.1,2C146.7,172.2,146.5,172.4,146.5,172.6z"/>
	<path class="st0" d="M93.3,59.9c-0.4,0.1-0.7,0.2-1.1,0.2c-1.3,0-2.4,0.2-3.2,1.4c-0.1,0.1-0.4,0.1-0.7,0.2c0.8-2,3-2.4,5-2
		C93.3,59.7,93.3,59.8,93.3,59.9z"/>
</g>
</svg>
