<?xml version="1.0" encoding="utf-8"?>
<!-- Generator: Adobe Illustrator 19.1.0, SVG Export Plug-In . SVG Version: 6.00 Build 0)  -->
<svg version="1.1" id="icon-anklesprain_1_" xmlns="http://www.w3.org/2000/svg" xmlns:xlink="http://www.w3.org/1999/xlink"
	 x="0px" y="0px" viewBox="0 0 100 141.1" style="enable-background:new 0 0 100 141.1;" xml:space="preserve">
<style type="text/css">
	.st0{fill:#00BCD4;}
</style>
<g id="icon-anklesprain-lady">
	<path class="st0" d="M99.8,55.1c0.6-5.5-0.2-10.3-5.6-13.3c-2.6-1.5-5-3.2-7.5-4.9c-1-0.7-2.3-1.2-3-2.1c-3.2-4.3-4.5-9.4-4.9-14.7
		c-0.3-3.9-1-7.8-3-11.2c-0.4-0.6-0.7-1.3-1.1-2.1c0.8,0.4,1.4,0.7,1.9,1c-0.6-1.2-1.4-1.9-2.2-2.7c-2.4-2.2-5.2-2.9-8.4-2.4
		c-0.6,0.1-1.3,0-1.9-0.3c-4.1-2.2-8.6-3-13-1.9c-7.5,1.9-11.6,7.6-14.4,14.3c-0.5,1.2,0.1,2.9,0.5,4.3c0.3,1,1,1.8,1.6,2.7
		c1.6,2.3,0.9,5.9,4,7.4c0.2,0.1,0.4,0.5,0.5,0.8c0.7,1.7,1.4,3.3,2,5c0.6,1.6,1.1,3.2-0.4,4.7c-0.7,0.7-1.3,1.8-1.5,2.8
		c-0.6,3.1-0.9,6.2-1.3,9.3c-0.3,2.1,0,4.4-0.8,6.2c-1.3,2.8-3.6,5.3-5.2,8c-1.2,2.1-2,4.4-3.1,6.6c-0.5,1.1-1.3,2.1-1.8,3.3
		c-0.4,1-0.6,2.1-1,3.6c0.3,0.3,1,1,1.7,1.6c3.1,2.8,4.6,4.7,2.4,8.8c-0.2,0.3-0.3,0.6-0.4,0.9c-0.8,3.2-1.7,6.4-2.4,9.6
		c-0.5,2.3-1.1,2.7-3.4,2.1c-2.7-0.7-5.4-1.5-8.2-1.7c-3.8-0.3-7.6,0-11.4-0.1c-3.3-0.2-5.4,1.5-6.8,4.2c-1.7,3.3-2.1,6.6-0.3,10.1
		c1.3,2.6,2.3,5.3,3.6,7.9c0.4,0.7,1,1.6,1.7,1.8c1.5,0.5,3.2,0.6,4.8,0.9c0.6,0.1,1.2,0.2,2.3,0.4c-1.1,0.9-1.8,1.9-2.6,2
		c-2.3,0.4-4.6,0.5-6.9,0.6c-1.6,0.1-3.1,0.2-4.7,0.2v2c1.7,2,3.8,2.4,6.3,2.6c1.9,0.1,3.8,1.4,5.7,2.3c2.7,1.3,5.4,2,8.5,2.1
		c3.8,0.1,7.9,0,11.3,2.3c0.5,0.4,1.4,0.2,2.1,0.4c0.5,0.1,1,0.3,1.5,0.4h0.4c3.2-1.2,6.4-2.3,9.6-3.5c0,0,0,0,0,0
		c0.1-0.1,0.1-0.1,0.2-0.2c0,0,0,0,0-0.1c0.1-0.3,0.3-0.6,0.5-0.8c0.2-0.2,0.4-0.3,0.6-0.3c0.2-0.2,0.4-0.3,0.7-0.3
		c0.3,0,0.6,0,0.8,0c0.4,0.2,0.7,0.5,0.7,1c0,0,0,0,0,0c0,0.1,0,0.2-0.1,0.3c0.5,0.1,0.8,0.5,0.8,1c0,0.1,0,0.2,0,0.3
		c2.8,1.1,5.8,1.8,8.8,1.3c0.5-0.1,1.3-0.6,1.5-1c0.9-2.5,2-4.7,4.4-6.2c1.2-0.8,5.8-1.6,6.7-0.6c1.1,1.4,2.5,1.4,4,1.4
		c2.4,0,4.8,0.1,7.2,0c3.2-0.1,6.6,0.6,9.2-2.3c1.5-1.7,3.6-3,4.8-4.8c1-1.6,1.4-3.7,1.7-5.6c0.7-5.3,1.6-10.6-0.5-16
		c-0.5-1.4-0.1-3.3,0-5c0.2-3.6,0.7-7.2,0.5-10.7c-0.3-4.4-1-8.8-0.4-13.3C98.6,68.9,99,62,99.8,55.1z M41.9,26.3
		c-0.8-0.9-0.9-2.3-1.3-3.5c2.3-1.3,4.4-0.8,6.2,0c2.6,1.2,5.3,1.2,8,1.3c1.6,0.1,3.3-0.1,4.2,1.9c0.2,0.4,1.9,0.5,2.7,0.2
		c0.9-0.4,1.7-1.3,2.3-2.2c0.5-0.7,0.3-1.7,0.8-2.4c0.4-0.6,1.4-1.2,2-1.1c0.6,0.1,1.4,1.1,1.4,1.8c0,1.4-0.2,2.8-0.7,4.1
		c-1.4,3.5,1.4,8.2,5.2,8.4c1.3,0.1,2.7-0.1,4,0c1.7,0.1,3.3,0.4,5.4,0.6c-4.3,6.8-5.4,14.2-7.7,21.2c-1,2.9-2.3,5.9-4,8.5
		c-1,1.4-3.1,2.2-4.7,3.1c-0.2,0.1-0.9-0.2-1.2-0.5c-2-2-3.8-4.1-5.9-6c-1.8-1.7-2.1-3.9-2.3-6c-0.3-3.1-0.2-6.1-0.2-9.2
		c0-0.4,0.5-1.1,0.9-1.2c2.7-0.8,3.8-3.4,5.8-4.9c-0.1-0.2-0.3-0.3-0.4-0.5c-1,0.9-2,1.9-3,2.8c-1.9,1.7-4.4,1.9-6.4,0.3
		c-1.7-1.3-3.3-2.7-4.9-4.1c-0.5-0.4-0.8-1-1-1.6C45.8,33.2,44.6,29.4,41.9,26.3z M43.3,53.9c0.2-3.9,0.1-7.8,1.9-11.5
		c1.5-3.2,1.7-3.3,4.6-1.2c2.7,1.9,2.8,2.6,2.2,5.8c-0.5,2.8-0.6,5.7-0.8,8.3c-2,0.2-3.9,0.2-5.8,0.5C43.9,55.9,43.2,55.7,43.3,53.9
		z M32.2,77.8c0.8-1.4,1.6-3,2.4-4.6c2.2-4.3,4.4-8.6,6.7-12.8c2.5-4.4,8.2-5.4,12-2.3c6.4,5.2,11.5,11.5,15.9,18.4
		c2.5,3.9,5.3,7.6,8,11.5c0.8,1.1,1.6,2.2,2.1,3.4c0.8,1.9-1.4,1.9-2.2,2.8c-3.4,3.5-6.9,7.1-10.5,10.5c-2.1,2-4.4,3.7-6.7,5.7
		c-3.5-6.3-4.7-12.8-4.8-19.4c0-1.6,1-3.1,1.3-4.7c0.3-1.6,0.9-3.4,0.6-5c-0.8-4.2-2-8.3-3.2-12.4c-0.4-1.5-1.3-2.9-2-4.4
		c-0.7-1.6-1.3-3.1-2.2-4.7c0.2,1,0.1,2.2,0.6,3C53,67,53.9,71.8,55,76.6c0.4,1.7,0.9,3.3,1.5,5c0.6,1.7,0.2,3.1-0.9,4.5
		c-1,1.2-1.9,2.5-2.8,3.6C46.1,85.8,39.2,81.8,32.2,77.8z M54.6,102.8c0.1,0.2-0.9,1-1.5,1.3c-0.3,0.2-0.8,0-1.2,0
		c-2.9-0.5-3-0.7-2.1-3.5c0.4-1.1,0.7-2.2,1.1-3.4c0.3,0,0.6,0,0.9,0C52.8,99,53.8,100.8,54.6,102.8z M53.3,94.3
		c0.5,2.1,0.9,3.9,1.3,5.8C53.9,98.3,51,97,53.3,94.3z M49.4,106.2c1.9-0.2,3.7-0.4,5.6-0.3c0.6,0,1.3,0.7,1.6,1.2
		c0.8,1.3,1.5,2.8,2.2,4.3c-4.1,2.7-8,5.8-13.8,4.7c1.1-3.1,2.1-6,3.2-8.9C48.5,106.7,49,106.2,49.4,106.2z M5.3,120.3
		c-1-2.1-1.8-3.9-2.7-5.8C0,108.7,3,102.8,9.3,102.4c5.7-0.4,11.6-1,17.3,1.1c3.1,1.1,3.6,1.9,1.9,4.7c-0.4,0.7-0.8,1.5-1.5,2.7
		c-1.8-1.1-3.6-2.2-5.2-3.4c-1.4-1.1-2.7-1.8-4.6-1.7c-2.5,0.3-5.1,0.4-7.6,0.6c-0.3,0-0.6,0.2-0.8,0.3c0,0.2,0,0.4,0,0.6
		c1.5,0,3,0.1,4.5,0c1.2-0.1,2.4-0.3,3.6-0.4c1.8-0.2,3.3,0.4,4.6,2.1C14.9,111,9.9,115.2,5.3,120.3z M10.3,124.1
		c-0.5-0.1-1.2-0.9-1.2-1.4c0.2-4.6,8.7-12.6,13.8-12.5c0.4,0.1,1.3,0.5,2.2,0.8c1.6,0.5,1.7,1.4,0.6,2.5c-2.3,2.4-4.6,4.7-6.9,7
		c-0.4,0.4-0.8,0.7-1.1,1.2C16,124.9,13.2,124.7,10.3,124.1z M62,133.5c-1.4,1.5-2.7,3.3-4.2,5c-0.4-0.3-0.9-0.6-1.5-1.1
		c-0.5,0.3-1,0.7-1.6,1.1c-0.2-0.3-0.5-0.5-0.6-0.8c-0.3-0.6-0.5-1.2-0.7-1.8c-0.5,0.4-0.9,0.8-1.4,1.1c-0.3,0.2-0.8,0.6-1,0.5
		c-0.3-0.2-0.8-0.7-0.7-1c0.2-1.4-0.5-1.9-1.8-2c-0.5,0-1.1-0.9-1.2-1.4c-0.3-1.6,1.8-4.9,3.4-5.2c1.4-0.3,2.8-0.5,3.7,1.3
		c0.9,1.8,2.2,3.4,3.3,5.1c0.2-0.1,0.4-0.2,0.6-0.4c-1.1-2.1-2.1-4.3-3.3-6.6c2.4-0.5,4.5-1.1,6.5-1.4c0.6-0.1,1.5,0.5,1.8,1.1
		C64.3,129.1,63.5,131.9,62,133.5z M52.7,125.7c1.6-3.5,5.8-3.8,8.3-6.5c0.9,1.9,1.7,3.4,2.4,4.8c-3.5,0.9-6.9,1.7-10.2,2.6
		C53,126.3,52.8,126,52.7,125.7z M67.9,129.7c-0.8,0.1-1.5,0.1-2.4,0.2c-0.2-1.3-0.3-2.4-0.5-4c1.3,1.3,2.2,2.3,3.1,3.3
		C68.1,129.4,68,129.5,67.9,129.7z M97.6,111.9c0.1,2.5-0.4,5.1-0.6,7.6c-0.3,5.1-3.7,8.3-7.2,11.3c-0.6,0.6-1.8,0.8-2.7,0.8
		c-3.4,0-6.8-0.1-10.2-0.1c-4-0.1-7.2-1.9-9.5-5.1c-1.7-2.4-3.3-4.8-5.1-7.4c4-2.2,7.8-4,11.4-6.2c5.5-3.3,11-6.7,16.4-10.1
		c0.9-0.6,1.4-1.8,2.2-2.8C96.8,102.5,97.5,107.1,97.6,111.9z M95.9,79.6c-0.1,1,0,2.1,0.2,3.2c0.7,3.7-1.4,6.7-2.2,10.1
		c-0.4,1.7-1.2,3.4-2.1,5c-1.1,2.1-2.3,4-4.7,5.3c-3.5,1.9-6.5,4.5-9.9,6.4c-7.8,4.5-15.7,8.8-23.5,13.3c-1.1,0.6-1.9,1.6-2.8,2.5
		c-1.1,1.2-2.3,2.5-3.2,3.9c-0.7,1.1-1.4,2.4-1.6,3.7c-0.4,3-2.2,5.1-5.1,5.3c0.2-0.4,0.4-0.8,0.5-1.1c-0.1-0.1-0.2-0.3-0.3-0.4
		c-1.6,1.1-3.2,2.1-4.8,3.2c-0.2-0.1-0.3-0.3-0.5-0.4c0.3-0.7,0.6-1.5,0.9-2.2c-0.6,0.2-1.2,0.4-1.9,0.6c0,0.1,0,0.1,0,0.2
		c0,0.4-0.3,0.8-0.6,0.9c-0.1,0-0.1,0.1-0.2,0.1c-0.3,0.2-0.8,0.2-1.1,0c0,0,0,0,0,0c-0.5,0-1-0.4-1.1-0.9c-0.1-0.1-0.1-0.1-0.2-0.2
		c-0.1-0.1-0.1-0.2-0.2-0.2c-0.6,0.3-1.5,0.3-2.5,0.1c-4-0.7-7.9-2-12.1-1.3c-1,0.2-2.2-0.9-3.3-1.3c-3.6-1.2-7.2-2.3-10.8-3.5
		c-0.6-0.2-1.1-0.5-1.7-1.2c5,0.1,9.7-0.7,13.9-3.3c-0.3-0.2-0.5-0.4-0.5-0.9c0-0.2,0.1-0.4,0.2-0.5c-0.3-0.5-0.1-1.2,0.6-1.5
		c0.3-0.1,0.7-0.2,1-0.4c0.1,0,0.2-0.1,0.3-0.1c0.2-0.1,0.5-0.2,0.7-0.3c1.5-1.7,2.9-3.3,4.4-5c0.3-0.3,0.7-0.6,1.1-0.9
		c3.4-2,4.9-5.5,6.8-8.6c2.4-3.8,3-8.2,4.1-12.5c0.2-0.8,0.4-1.5,0.7-2.5c-0.4,8.9-0.7,17.6-6.1,24.8c-1.9,2.5-4.9,4.2-7.4,6.2
		c-0.1,0-0.2,0-0.3,0c-0.2,0.3-0.5,0.5-0.9,0.5c-0.1,0.1-0.2,0.2-0.3,0.2c-0.2,0.1-0.4,0.2-0.5,0.3c0,0,0,0,0,0
		c0.6,0.4,1.7,1.1,2,0.9c2.2-1.5,4.6-3,6.4-5c3.6-4.1,5.5-9.3,7.3-14.4c0.6-1.8,0.3-4,0.4-6c0.4-4.6,1-9.1,1.3-13.7
		c0.2-2.1,0-4.1,0-6.5c3.1,1.8,6.2,3.5,9.2,5.3c1.6,1,3.1,2.1,4.7,3.1c1.4,0.8,1.7,1.9,1.2,3.4c-1,2.9-2.1,5.8-3.1,8.7
		c-1.3,3.8-3,7.5-3.7,11.4c-0.9,4.4-4,5.4-7.4,6.5c-1.2,0.4-2.4,0.8-3.5,1.4c-1.4,0.8-2.1,2.7-1.3,3.8c0.9,1.3,2.2,0.8,3.4,0.3
		c1.4-0.6,2.9-1.3,4.3-2c0.2,0.2,0.4,0.5,0.6,0.7c-1.7,1.6-3.3,3.3-5.1,4.9c-1,0.9-2.2,1.5-3.2,2.5c-2,1.9-1.6,3.3,1,4.1
		c-0.1,0.2-0.1,0.3-0.2,0.4c0.2,0.1,0.3,0.3,0.4,0.5c0.3,0.1,0.6,0.3,0.7,0.7c0,0,0.1,0,0.1,0c1.9-2.2,3.8-4.3,5.7-6.5
		c-0.1-0.1-0.3-0.3-0.4-0.4c-2.3,1.1-3.6,4.3-7.1,3.1c3.7-3.7,7.2-7.3,10.8-10.9c-0.2-0.3-0.4-0.6-0.6-0.9c-3.1,1-6.2,2-9.4,3.1
		c-0.6-1.8,0.3-2.4,1.3-2.9c3.5-1.5,7-2.9,10.6-4.3c0.2-0.1,0.5-0.2,0.8-0.1c6.6,0.4,11.5-3.4,16.1-7.1c5-4.1,9.6-8.8,14.3-13.2
		c0.2-0.2,0.4-0.6,0.7-0.7c3.1-1.8,3.7-4.5,3.8-8c0.1-4.3,1.2-8.6,1.9-12.9c0.4-2.4,0.6-4.8,1-7.2c0.1-0.6,0.3-1.1,0.5-1.7
		c0.9-1.8,0.8-3.5-0.4-5.2v4.1c-3.4-3.7-3-7.8-2.7-11.6c0.3-4.8,1.2-9.5,3.6-13.8c0.3-0.6,0.7-1.1,1.3-2.2c3.2,2.4,6.2,4.6,9.1,6.9
		c3.4,2.7,3.6,6.3,3.2,10.2C97.7,63.2,96.8,71.4,95.9,79.6z"/>
	<path class="st0" d="M20.7,125c-1.4,0.4-1.1,1.2-1.4,2.4c-0.1,0.2,0,0.4,0.2,0.5c-0.6,1.1-1.5,2-2.9,2.1c-1.7,0.1-2.3-1.2-1.4-2.5
		c0.4-0.5-0.5-1-0.9-0.5c-1.3,1.8-0.3,3.8,1.8,4c3,0.4,4.7-2.8,5.1-5.3C21.3,125.3,21.1,124.9,20.7,125z"/>
</g>
</svg>
