<?xml version="1.0" encoding="utf-8"?>
<!-- Generator: Adobe Illustrator 19.1.0, SVG Export Plug-In . SVG Version: 6.00 Build 0)  -->
<svg version="1.1" id="Layer_1" xmlns="http://www.w3.org/2000/svg" xmlns:xlink="http://www.w3.org/1999/xlink" x="0px" y="0px"
	 viewBox="0 0 100 108.9" style="enable-background:new 0 0 100 108.9;" xml:space="preserve">
<style type="text/css">
	.st0{fill:#00BCD4;}
</style>
<g id="ankle-wrap">
	<path class="st0" d="M56.8,0c0.3,0.3,0.3,0.8,0.3,1.2c0.1,3,0.7,5.9,1,8.9c0.2,2.6,0.3,5.2,0.6,7.8c0.2,2,0.5,3.9,0.8,5.9
		c0,0.3,0.2,0.5,0.5,0.5c0.2,0,0.4,0,0.6,0.1c1.8,1.1,3.8,0.8,5.8,1.1c5.1,0.6,10.2,0.9,15.3,0.7c2-0.1,4-0.1,6-0.7
		c1.5-0.4,3-0.2,4.5-0.6c1.1-0.2,2.2-0.5,3.3-0.7c0.8-0.2,1.1-0.6,1.1-1.4c0-0.9,0.1-1.9,0-2.8c-0.1-3.2,0.2-6.3,0.8-9.4
		c0.3-1.3,0.4-2.7,0.4-4.1c0-2.2,0.5-4.3,0.9-6.5c0.3,0,0.6,0,0.9,0c-0.5,1.7-0.7,3.5-0.9,5.2c-0.2,2.7-0.5,5.4-0.9,8
		c-0.5,2.7-0.2,5.5-0.4,8.2c-0.2,4-0.5,8.1-0.9,12.1c-0.3,2.9-0.1,5.8-0.1,8.6c0,2.1,0.1,4.2,0.2,6.4c0.1,2.3,0.5,4.5,0.6,6.8
		c0.2,3.6,0.5,7.3,1,10.9c0.2,1.9,0.8,3.6,1.1,5.5c0.4,2.3,0.8,4.5,0.5,6.8c-0.3,2.5-1.4,4.8-3.6,6.1c-2.5,1.5-5.2,2.8-8.2,3.2
		c-1,0.1-2-0.1-3,0.2c-3.8,1-7.8,1.6-11.6,2.7c-1.2,0.4-2.5,0.5-3.7,0.7c-2.5,0.5-5,1.3-7.5,2c-3.8,1.1-7.1,3.1-10.2,5.4
		c-2,1.5-4.1,3-6.5,4c-1.4,0.6-2.5,1.5-3.7,2.3c-2.4,1.5-5.1,2.3-7.8,3.1c-3.4,1.1-6.7,0.2-10-0.4c-1.7-0.3-3.4-0.4-5.1-0.3
		c-2.5,0.1-5,1-7.5,1.2c-5.3,0.5-8.8-2.1-10.9-6.5c-0.6-1.2-0.9-2.7,0.6-3.7c0.3-0.2,0.3-0.5,0.2-0.8c-0.2-1.8,1.4-3.5,3.2-3.3
		c0.8,0.1,1.2-0.1,1.3-0.9c0.2-0.9,1-1,1.7-1c0.9,0,1.6-0.3,2.2-0.8c0.7-0.6,1.5-0.9,2.3-1.1c1.5-0.2,2.7-1.1,3.8-2.1
		c1.4-1.3,3.1-2,5-2.4c2.3-0.5,4.5-1.1,6.7-1.9c1.2-0.4,2.3-0.7,3.5-0.7c0.5,0,1-0.2,1.3-0.6c1.7-2.6,4.4-4.3,6.5-6.5
		c3.5-3.8,7.3-7.3,10.6-11.4c1.8-2.2,3.3-4.5,4.5-7.1c1.4-3,2.4-6.1,4.3-8.9c1.1-1.6,0.8-2.6-0.6-4.2c-0.8-0.9-1.6-1.8-2.1-2.9
		c-0.3-0.6-0.7-1-1.5-0.6c-1.1,0.5-2.4,0.4-3.6,0.3c-1.6-0.1-2.8,0.4-4.1,1.3c-2.1,1.4-3.9,3.2-5.9,4.8c-2.4,1.8-4.6,3.8-6.8,5.8
		c-1.7,1.6-2.6,3.7-3.4,5.7c-0.1,0.4,0.1,0.7,0.3,1c1.4,2.2,2.8,4.4,4.2,6.6c0.2,0.3,0.5,0.7,0.8,0.9c1.6,1.1,2.9,2.6,4.3,4
		c0.5,0.4,0.7,1,1,1.5c0.2,0.3,0.2,0.6-0.1,0.8c-0.3,0.2-0.6,0.1-0.7-0.2c-1.3-2.4-3.6-3.8-5.4-5.7c-0.5-0.5-0.9-1.1-1.3-1.6
		c-1.2-1.9-2.4-3.8-3.6-5.7c-0.5-0.8-0.6-1.5-0.1-2.3C30,58,30,57.5,29.7,57c-0.6-0.9-1.3-1.6-2.1-2.2c-2.1-1.6-3.9-3.6-5.6-5.6
		c-1.5-1.8-3-3.7-4.5-5.5c-0.6-0.7-0.3-1.3,0.1-2c0.3-0.3,0.4-0.6,0-0.9c-2.5-2-4.9-4-7.5-6c-1.4-1-2.9-1.8-4-3.1
		c-1-1.2-1.7-2.5-2.2-3.9c-0.9-2.5-1.1-5.1-1.7-7.7c-0.4-2-0.5-4.1-0.6-6.1c0-0.2,0-0.5-0.1-0.7C0.2,9.8,0.3,6.2,0.2,2.5
		C0.2,1.7,0.1,0.8,0,0c0.3,0,0.5,0,0.8,0C1,1.4,1,2.8,1.1,4.2C1.3,6.8,1,9.4,1.9,12c0.4,1.1,0.6,2.3,0.5,3.4c0,1.2,0.1,2.3,0.3,3.5
		c0.6,2.7,1.1,5.5,1.8,8.2c0.5,2,1.4,3.7,3,4.9c2.5,2,5.2,3.8,7.7,5.8c0.8,0.6,1.6,1.3,2.3,1.9c0.7,0.6,1.2,0.4,1.7-0.3
		c1.2-1.9,2.5-3.9,3.8-5.8c0.1-0.2,0.2-0.4,0-0.6c-1-0.7-1.3-1.8-2.1-2.7c-0.7-0.8-1.4-1.1-2.4-0.8c-1.3,0.4-2.6,0.8-3.8,1.5
		c-0.3,0.2-0.7,0.4-0.9,0c-0.2-0.5,0.2-0.6,0.6-0.8c0.9-0.4,1.8-0.9,2.8-1.2c2.2-0.8,2.2-0.8,0.8-2.7c-0.4-0.6-0.8-0.7-1.4-0.2
		c-0.7,0.5-1.5,1.1-2.3,1.6C14,27.8,13.5,28,13,27.9c-0.2,0-0.4-0.2-0.4-0.4c0-0.2,0.2-0.3,0.4-0.4c1.5-0.3,2.4-1.4,3.5-2.3
		c0.6-0.4,0.2-0.8,0-1.2c-0.2-0.4-0.5-0.7-1.1-0.5c-0.6,0.2-1.1,0.4-1.7,0.5c-0.3,0.1-0.7,0.2-0.8-0.2c-0.1-0.4,0.3-0.5,0.6-0.6
		c0.4-0.2,0.9-0.3,1.4-0.4c0.5-0.2,0.6-0.5,0.3-0.9c-0.4-0.6-0.8-1.1-1.2-1.7c-0.1-0.2-0.5-0.5-0.1-0.7c0.3-0.2,0.6,0.1,0.8,0.4
		c1.1,1.4,2,2.9,3,4.4c1.3,2,2.6,4.1,4.3,5.9c0.5,0.5,1,0.8,1.6,0.1c0.6-0.7,1.4-1.3,2.1-1.9c0.3-0.3,0.6-0.7,0.9-0.3
		c0.4,0.4,0,0.7-0.3,0.9c-0.8,0.7-1.7,1.5-2.5,2.2c-0.4,0.3-0.4,0.6-0.1,0.9c0.7,0.6,1.3,1.2,2,1.8c0.3,0.3,0.5,0.2,0.9,0
		c1.1-0.7,1.7-1.7,2.6-2.6c0.6-0.6,1.2-0.8,2-0.4c1.1,0.5,2.3,0.8,3.2,1.7c-0.4-1.8-1-3.4-2.4-4.7c-1-0.9-2-1.7-3.1-2.5
		c-1.4-1.1-3.1-2.1-3.8-3.7c-0.9-1.9-1.9-3.7-1.7-5.9c0-0.2,0-0.4-0.1-0.5c-1.6-1.8-2.9-4-5.8-3.8c-0.3,0-0.7,0-0.7-0.5
		c0-0.4,0.3-0.4,0.6-0.4c1.4-0.1,2.5,0.2,3.6,1.2c0.7,0.7,1.5,1.2,2.3,1.9c0.1-1.5-1-7.4-1.6-9.1c-0.5-1.3-1.4-2.3-1.4-3.8
		c0.3,0,0.5,0,0.8,0c0.2,1.5,1.2,2.6,1.7,4.1c1.1,3.9,1.8,7.8,1.7,11.9c0,2.1,0.9,4.1,2.3,5.8c0.2,0.2,0.4,0.4,0.6,0.6
		c0.5,0.5,1,1.2,1.7,1.3c0.7,0.1,1.1-0.7,1.7-1.1c1.6-1.1,3.3-1.1,4.7,0c1,0.8,1.2,1.7,0.7,2.8c-0.2,0.5-0.2,0.8,0.1,1.3
		c1.6,2.4,3.8,4.1,5.4,6.5c1.5,2.3,3.5,4.1,5.5,5.8c0.5,0.4,0.9,0.9,1.5,1.3c1.8,1.1,3.6,0.8,5.4,0.2c0.7-0.3,1.1-0.2,1.6,0.4
		c0.9,1.4,1.8,2.9,3.2,4c0.1-0.7,0.4-1.4,0.4-2.1c-0.3-2.9,0.5-5.8,0.4-8.7c-0.1-3.2-0.4-6.4-1-9.5c-0.6-3.7-1.2-7.5-1.4-11.3
		c-0.2-3.7-0.8-7.4-1-11.1c0-0.7-0.2-1.5,0.3-2.2C56.7,0,56.7,0,56.8,0z M77.3,34C71.8,34,67,32.7,62,32.1c-0.2,0-0.5-0.1-0.7-0.3
		c-0.2-0.1-0.5-0.3-0.4-0.6c0.1-0.3,0.4-0.3,0.6-0.2c1.3,0.4,2.7,0.4,4,0.6c3.3,0.5,6.6,1.4,10.1,1.3c1.7,0,3.5,0.3,5.2-0.2
		c4.7-1.4,9.6-2,14.5-2.5c0.5-0.1,0.8-0.2,0.8-0.7c0-1.3,0.1-2.6,0.2-3.9c0-0.5-0.2-0.6-0.6-0.5c-2.4,0.7-5,0.7-7.4,1.2
		c-2.1,0.4-4.2,0.6-6.3,0.6c-5.2,0.2-10.4-0.1-15.6-0.7c-2-0.2-4.1,0.2-5.9-1c-0.5-0.3-0.7-0.1-0.6,0.5c0.4,2.9,0.8,5.8,0.7,8.8
		c0,0.6,0.2,1.1,0.6,1.4c1.5,1.2,2.8,2.7,4.5,3.7c1.5,0.9,2.9,2.1,4,3.5c1,1.2,1.9,2.4,3,3.6c1.6,1.7,3,3.5,4.1,5.6
		c1.5,2.8,3,5.5,3.9,8.5c0.1,0.3,0.2,0.9,0.7,0.7c1.1-0.4,2.2-0.2,3.3-0.5c2.1-0.6,4.3-1.2,6.5-1.6c1.7-0.3,3.3-0.9,4.8-1.7
		c0.6-0.3,0.7-0.6,0.7-1.3c-0.3-2.1-0.3-4.3-0.6-6.4c-0.4-2.3-0.2-4.6-0.2-6.9c0-3.6-0.3-7.3,0.3-10.9c0.1-0.6,0-1-0.8-0.8
		c-3.4,0.6-6.9,0.6-10.3,1.5C82.2,33.6,79.6,34.4,77.3,34z M59.9,45.9c0.1,1.1-0.1,2.2-0.7,3.3c-0.7,1.4-1.6,2.7-2.1,4.1
		c-0.9,2.4-2.7,4.5-1.7,7.4c0.2,0.6,0.2,1.3,0.6,1.8c1.5,2.2,3.1,4.3,4.6,6.5c2,3,3.6,6.2,4.6,9.6c0.9,2.9,1.5,5.9,2.5,8.8
		c0.3,0.9,0.6,1.7,0.6,2.6c0,0.5,0.1,0.5,0.5,0.5c0.8-0.1,1.7-0.1,2.5-0.3c3.5-0.7,6.9-2,10.5-2.4c0.9-0.1,1.1-0.5,0.9-1.4
		c-0.4-2.7-1.3-5.3-1.7-8c-0.3-2.2-1.2-4.2-1.8-6.4c-0.6-2.5-1.3-4.9-2.5-7.2c-1.4-2.9-2.9-5.8-4.4-8.7c-2-4.1-4-8.1-7.3-11.3
		c-1.6-1.6-2.8-3.5-4.2-5.3c-0.1-0.2-0.2-0.4-0.5-0.4c-0.3,0-0.2,0.3-0.2,0.4C60.4,41.9,59.8,43.8,59.9,45.9z M15.3,90.4
		c0.6,0.2,1,0,1.5-0.1c1.5-0.5,3-1.3,4.6-1.4c0.3,0,0.8-0.3,0.9,0.3c0.1,0.4-0.3,0.5-0.7,0.5c-1.3,0.1-2.4,0.6-3.6,1.1
		c-1.1,0.4-2.2,0.6-3.3,0.6c-1.2,0-2.4,0.1-3.4,0.7c-1.3,0.7-2.4,1.6-4,1.5c-0.3,0-0.6,0.3-0.6,0.6c0.1,0.4,0.4,0.2,0.7,0.2
		c2,0,3.9-0.9,5.8-1.1c1-0.1,2-0.4,2.9-0.7c0.9-0.3,1.8-0.5,2.6-0.8c0.3-0.1,0.6-0.1,0.7,0.2c0.1,0.3-0.2,0.4-0.5,0.5
		c-0.1,0-0.2,0.1-0.3,0.1c-3.6,1.3-7.3,2-11,2.6c-2.3,0.4-2.2,0.3-2.2,2.3c0,0.6,0.2,0.8,0.8,0.8c1-0.1,2.1-0.1,3.1-0.4
		c2.1-0.5,4-1.4,6.1-1.7c1.4-0.2,2.7-0.5,4-1.2c0.2-0.1,0.6-0.3,0.7,0c0.2,0.3-0.1,0.5-0.3,0.7c-0.8,0.4-1.6,0.9-2.6,1
		c-2.6,0.2-5,1.3-7.5,1.9c-0.3,0.1-0.6,0.1-0.7,0.6c-0.1,1.2-0.9,2.1-1.3,3.2c-0.1,0.2-0.3,0.5-0.6,0.4c-0.4-0.1-0.3-0.5-0.2-0.7
		c0.2-0.5,0.5-1.1,0.8-1.6c0.4-0.8,0.1-1.6-0.5-1.5C6.2,99,5,98.8,3.8,98.7c-1.8-0.2-3.1,1-2.6,2.8c0.5,1.8,1.7,3.3,3.1,4.6
		c2.1,1.9,4.6,2.3,7.4,2c1.9-0.2,3.6-0.9,5.5-1c2.2-0.1,4.4-0.5,6.6,0c3.5,0.8,6.9,1.6,10.5,0.4c2.3-0.7,4.5-1.5,6.6-2.6
		c0.8-0.4,1.2-0.9,0.7-1.9c-0.4-0.8-0.7-1.8-1.1-2.6c-0.5-1.1-1-2.1-1.3-3.2c-1.5-5.5-2.2-11.1-2-16.8c0-0.2,0.2-0.4-0.1-0.6
		c-1.3,1-2.5,2-3.5,3.3c-0.7,1-1.6,1.6-2.9,1.6c-1.1,0-2.1,0.4-3.1,0.7c-1.9,0.6-3.9,1.2-5.9,1.6C19.3,87.4,17.1,88.4,15.3,90.4z
		 M54.1,59.9c-0.3,0.5-0.6,1.1-0.9,1.6c-1.7,2.4-3.4,4.8-5.5,6.9c-0.3,0.3-0.5,0.6-0.6,0.9c-0.7,2.3-0.9,4.6-0.2,7
		c0.7,2.5,1.6,4.8,2.5,7.3c1.4,4,3.6,7.8,4.7,12c0.2,0.6,0.5,0.4,0.8,0.2c2.1-1.2,4.2-2.3,6.5-3c1.6-0.5,3.2-1.1,4.9-1.5
		c0.5-0.1,0.8-0.3,0.7-0.9c-0.2-1.5-0.3-3.1-0.9-4.5c-0.7-1.7-1.1-3.5-1.5-5.4c-0.2-0.8-0.4-1.7-0.7-2.5c-1.9-4.8-4.4-9.2-7.5-13.3
		C55.3,63.3,54.1,62,54.1,59.9z M33.2,26.9c0.1,0.5,0.4,0.6,0.5,0.9c1.2,2.3,2.6,4.5,2.3,7.3c-0.3,2.4-1.4,3.2-3.8,2.6
		c-0.2-0.1-0.5-0.1-0.7-0.2c-2.2-0.9-4.3-1.9-6.1-3.3c-0.7-0.6-1.2-0.6-1.7,0.2c-1.5,2.2-3,4.4-4.4,6.6c-0.3,0.5-0.5,1.1-1,1.5
		c-0.4,0.3-0.2,0.6,0.1,0.9c1.4,1.8,2.8,3.6,4.3,5.3c1.5,1.8,3.1,3.6,5,5c0.9,0.6,1.7,1.4,2.3,2.2c0.4,0.5,0.6,0.3,1-0.1
		c0.5-0.6,0.6-1.4,1.3-2c4.7-4.4,10-8.2,14.7-12.6c0.7-0.6,0.6-0.8,0-1.3c-1.4-1.2-2.8-2.4-4-3.7c-1.2-1.2-1.9-2.9-3.1-4.1
		c-1.4-1.4-2.7-3-3.9-4.7c-0.1-0.2-0.2-0.5-0.6-0.4C34.6,27.1,33.9,26.9,33.2,26.9z M45.7,70.7c-0.3,0.3-0.6,0.6-0.9,0.9
		c-1.8,1.9-3.6,3.8-5.5,5.6c-0.7,0.7-1.1,1.4-1.1,2.3c-0.4,5.5,0.4,10.9,1.6,16.3c0.6,2.5,2,4.7,2.9,7.1c0.2,0.6,0.5,0.3,0.8,0.2
		c3.2-1.5,6.2-3.3,9-5.4c0.7-0.6,0.9-1.1,0.7-1.8c-0.4-1.3-0.8-2.6-1.3-3.9c-2.2-5.1-4.2-10.2-5.7-15.5c-0.5-1.7-0.6-3.5-0.2-5.2
		C45.9,71.1,45.9,70.9,45.7,70.7z M60.6,37.6c-0.1,0.4,0.1,0.6,0.4,0.8c0.4,0.4,0.8,0.8,1.2,1.2c1.3,1.7,2.5,3.5,4.1,5
		c1.9,1.9,3.4,4,4.7,6.3c1,1.9,1.8,3.8,2.9,5.7c1.3,2.3,2.4,4.8,3.6,7.2c0.4,0.8,0.8,1.6,1.1,2.5c1,2.6,1.6,5.3,2.5,7.9
		c1,3.1,1.2,6.3,2.1,9.4c0.2,0.6,0.3,1.2,0.4,1.8c0.2,2.1,0.2,2.1,2.2,1.5c0.6-0.2,0.8-0.4,0.7-1c-0.7-5.1-2.2-9.9-3.6-14.8
		c-0.6-2.3-1.4-4.6-2.1-7c-1.3-4.8-3.4-9.2-6-13.4c-1.3-2.2-3.3-3.9-4.8-5.9c-0.5-0.7-1-1.3-1.6-2c-2.1-2.2-5-3.5-7-5.8
		c-0.2-0.2-0.3-0.5-0.6-0.3C60.6,37.1,60.7,37.4,60.6,37.6z M99.1,76.9c0.1-1.5-0.2-3-0.5-4.6c-0.2-1.2-0.4-1.3-1.5-0.6
		c-2,1.4-4.3,2.1-6.5,3c-1.4,0.5-2.9,0.8-4.4,1.2c-0.5,0.1-1.1,0.2-0.8,1c0.9,3,1.4,6,1.9,9.1c0.1,0.8,0.5,1,1.2,0.9
		c0.3,0,0.6-0.1,0.8-0.1c1.5-0.2,2.7-1.1,4.1-1.6C97.3,83.6,99.1,81.1,99.1,76.9z M97.4,66.2c-0.2-2-0.5-4-0.6-5.9
		c-0.2-1.9-0.1-2-1.9-1.2c-2,0.9-4.1,1.2-6.1,1.7c-2,0.5-4,1.1-6.1,1.2c-1.3,0.1-1.4,0.4-1.1,1.7c0.4,1.6,1.3,3,1.5,4.6
		c0.1,0.9,0.5,1.8,0.8,2.7c0.2,0.8,0.7,0.9,1.4,0.6c1.4-0.5,2.8-0.9,4.2-1.5c2.5-1.1,5.1-1.9,7.5-3.2C97.3,66.8,97.5,66.6,97.4,66.2
		z M98.1,69.7c-0.1-0.5-0.3-0.9-0.4-1.4c-0.1-0.4-0.3-0.5-0.7-0.3c-1.5,0.9-3.3,1.2-4.8,2c-2.2,1-4.4,1.9-6.7,2.6
		c-1.3,0.4-1.3,0.4-1,1.7c0,0.2,0.1,0.3,0.1,0.5c0.1,0.4,0.3,0.5,0.7,0.4c4.4-0.9,8.6-2.3,12.3-4.8C98,70.1,98.1,70,98.1,69.7z
		 M35.1,34.2c0-0.9,0-0.9-0.9-1.1c-0.1,0-0.2-0.1-0.2-0.1c-0.8-1-1.9-1.2-3-1.7c-0.5-0.2-0.9-0.2-1.3,0.2c-0.7,0.7-1.2,1.6-2,2.1
		c-0.6,0.4-0.5,0.6,0,1c1.2,1,2.7,1.5,4.1,2C34.2,37.5,35.1,36.8,35.1,34.2z M33.5,22.6c-1.3,0-2.2,0.6-3.1,1.4
		c-0.3,0.2-0.2,0.4,0,0.6c1.1,1,2.4,1.4,3.9,1.5c0.2,0,0.4-0.1,0.5-0.3c0.3-0.5,0.9-1,0.6-1.6C35,23.5,34.6,22.5,33.5,22.6z
		 M4.7,96.6c0-0.3,0-0.5,0-0.6c-0.1-0.8-0.4-1-1-0.6c-0.5,0.4-1.1,0.8-1.4,1.3c-0.3,0.3-0.4,1,0.2,1.2c0.6,0.2,1.4,0.1,2-0.1
		C5,97.7,4.7,97,4.7,96.6z"/>
</g>
</svg>
