<?xml version="1.0" encoding="utf-8"?>
<!-- Generator: Adobe Illustrator 20.1.0, SVG Export Plug-In . SVG Version: 6.00 Build 0)  -->
<svg version="1.1" id="Layer_1" xmlns="http://www.w3.org/2000/svg" xmlns:xlink="http://www.w3.org/1999/xlink" x="0px" y="0px"
	 viewBox="0 0 100 137.3" style="enable-background:new 0 0 100 137.3;" xml:space="preserve">
<style type="text/css">
	.st0{fill:#03A9F4;}
</style>
<g id="compare-icon">
	<path class="st0" d="M60.9,130c-0.3,0-0.5,0-0.7,0c-13.9,0-27.9,0-41.8,0c-4.9,0-9.8,0-14.7-0.1c-1.7,0-3.2-1.1-3.6-2.6
		c0-0.2-0.1-0.4-0.1-0.6c0-28.9,0-57.9,0-86.8c0-9.2,0-18.4,0-27.5v-0.1C0,10,0.5,9.2,2.7,9S7,8.9,9.2,8.9c5,0,10.1-0.1,15.1-0.1
		c0.2,0,0.4,0,0.5,0c1.9-0.8,3.9-0.5,5.8-0.6c2.9-0.1,5.7,0,8.7,0c0-0.7,0-1.3,0-1.9c0-3.3,1.7-5.4,4.9-6.1c4.2-0.9,7,2.2,7.3,5.8
		c0.1,0.6,0,1.3,0,2.1c0.3,0,0.5,0,0.8,0c4,0,7.9,0.1,11.9,0.1c0.7,0,1.4,0.3,2.1,0.5c0.3,0.1,0.5,0.1,0.8,0.1
		c6.7,0,13.4-0.1,20.1-0.1c1.7,0,3.4,1.3,3.8,2.9c0.1,0.3,0.1,0.7,0.1,1c0,20.1,0.1,40.3,0.1,60.4c0,2.2,0,4.3,0,6.5
		c0,0.2,0,0.4,0.1,0.6c0.5-0.7,1-1.4,1.4-2.2c0.8-1.3,2.1-1.7,3.5-1.5c1.5,0.2,2.7,1,3.5,2.3c0.6,1.1,0.6,2.3,0,3.4
		c-1.8,2.9-3.7,5.8-5.5,8.7c-0.9,1.5-1.9,2.9-2.8,4.4c-0.1,0.2-0.2,0.5-0.2,0.8c0,7.3,0,14.6,0,21.9c0,2.7,0,5.5-0.1,8.2
		c0,2.1-1.7,3.9-3.8,3.9c-5.8,0.1-11.7,0.1-17.5,0.1c-0.5,0-0.8,0.2-1.1,0.6c-0.2,0.4-0.5,0.8-0.9,1c-2.3,1.8-4.7,3.5-7,5.3
		c-0.1,0.1-0.2,0.2-0.3,0.2c-0.2,0.1-0.5,0.2-0.6,0.1c-0.1-0.1-0.3-0.4-0.2-0.6c0.2-1.2,0.5-2.3,0.7-3.4
		C60.5,132.2,60.7,131.1,60.9,130z M6.5,123.2c0.3,0,0.4,0,0.6,0c18.7,0,37.4,0.1,56.1,0.1c0.4,0,0.7-0.1,0.9-0.5
		c0.3-0.5,0.6-1,0.9-1.5c1.9-3,3.8-6,5.7-9.1c2.3-3.6,4.6-7.2,6.8-10.8c0.4-0.7,0.8-1.4,1.3-2.1c-0.3,0-0.5,0-0.6,0
		c-5.3,0-10.6,0-15.9,0c-0.6,0-0.7,0.2-0.7,0.7c0,4.6,0,9.2,0,13.8c0,0.3-0.1,0.5-0.2,0.8c-0.1,0.1-0.3,0.3-0.4,0.3
		c-0.1,0-0.2-0.2-0.3-0.4c-0.1-0.3-0.1-0.5-0.1-0.8c0-4.6,0-9.1,0-13.7c0-0.5,0-0.7-0.6-0.7c-5.2,0-10.4,0-15.5,0
		c-0.5,0-0.6,0.2-0.6,0.7c0,4.6,0,9.1,0,13.7c0,0.4,0,0.8,0,1.1c0,0.2-0.3,0.4-0.4,0.6c-0.1-0.2-0.3-0.4-0.4-0.6
		c-0.1-0.1,0-0.3,0-0.5c0-4.7,0-9.5,0-14.2c0-0.6-0.2-0.8-0.8-0.8c-4.7,0-9.4,0-14.1,0c-0.9,0-0.9,0-0.9,0.9c0,5.1,0,10.2,0,15.3
		c0,0.4-0.1,0.8-0.6,0.8s-0.5-0.5-0.5-0.8c0-5.2,0-10.3,0-15.5c0-0.6-0.1-0.8-0.8-0.8c-4.3,0-8.6,0-12.9,0c-0.3,0-0.7-0.1-1-0.1
		c0-0.1,0-0.2,0-0.3c0.3-0.1,0.7-0.2,1-0.2c4.3,0,8.6,0,12.9,0c0.8,0,0.8,0,0.8-0.8c0-7.1,0-14.2,0-21.3c0-1.2,0.2-1.1-1.1-1.1
		c-4.4,0-8.8,0-13.3,0c-0.3,0-0.6-0.1-0.9-0.2c0-0.1,0-0.2,0-0.3c0.3,0,0.6-0.1,0.8-0.1c4.5,0,9,0,13.5,0c0.8,0,0.8,0,0.8-0.8
		c0-6.6,0-13.1,0-19.7c0-0.6-0.2-0.8-0.8-0.8c-4.7,0-9.3,0-14,0c-0.4,0-1.1,0.3-1.1-0.3c0-0.5,0.8-0.3,1.2-0.3c4.7,0,9.3,0,14,0
		c0.6,0,0.8-0.2,0.8-0.8c0-6,0-12,0-17.9c0-0.6-0.2-0.8-0.8-0.8c-4.3,0-8.6,0-12.9,0c-1,0-2,0-3,0c-0.5,0-0.6-0.3-0.5-0.6
		c0.1-0.5,0.4-0.7,0.9-0.7c0.4,0.1,0.8,0.1,1.2,0.1c4.7,0,9.5,0,14.2,0c0.9,0,0.9,0,0.9-0.9c0-2.4,0-4.9,0-7.3
		c0-0.2,0.2-0.5,0.4-0.7c0.2,0.2,0.4,0.5,0.5,0.7s0,0.4,0,0.6c0,2.3,0,4.5,0,6.8c0,0.6,0.2,0.8,0.8,0.8c4.8,0,9.6,0,14.4,0
		c0.6,0,0.7-0.2,0.7-0.7c0-2.4,0-4.7,0-7.1c0-0.1,0-0.3,0-0.4c0.1-0.2,0.2-0.3,0.4-0.4c0.1,0.1,0.3,0.3,0.4,0.4c0.1,0.1,0,0.2,0,0.4
		c0,2.4,0,4.8,0,7.1c0,0.6,0.2,0.8,0.8,0.8c5.1,0,10.2,0,15.3,0c0.6,0,0.8-0.2,0.8-0.8c0-2.2,0-4.3,0-6.5c0-0.4,0-0.9,0-1.4
		c0.6,0.3,0.8,0.8,0.8,1.3c0,2.1,0,4.3,0,6.4c0,1,0,1,1,1c5.9,0,11.8,0,17.7,0c0.5,0,1,0.1,1.4,0.2c0.1,0,0.3,0.2,0.3,0.4
		c0,0.1-0.2,0.3-0.3,0.3c-0.5,0.1-1,0.3-1.5,0.3c-5.9,0-11.7,0-17.6,0c-1,0-1,0-1,1c0,5.9,0,11.7,0,17.6c0,0.9,0,0.9,0.9,0.9
		c5.8,0,11.6,0,17.4,0c0.2,0,0.4,0,0.6,0c0.1,0,0.2,0.2,0.3,0.3c-0.1,0.1-0.2,0.2-0.3,0.3c-0.2,0-0.3,0-0.5,0c-5.8,0-11.6,0-17.4,0
		c-0.9,0-0.9,0-0.9,0.9c0,6.5,0,13.1,0,19.6c0,0.8,0,0.8,0.9,0.8c6.3,0,12.5,0,18.8,0c0.3,0,0.5,0,0.8,0c0.1,0,0.2,0.2,0.2,0.3
		c0,0.1-0.1,0.2-0.2,0.2s-0.3,0-0.4,0c-6.4,0-12.8,0-19.1,0c-0.9,0-0.9,0-0.9,0.9c0,7.1,0,14.3,0,21.4c0,1,0,1,1,1
		c5.4,0,10.8,0,16.2,0c0.2,0,0.4-0.1,0.5-0.3c1.5-2.3,3-4.7,4.4-7c0.2-0.3,0.3-0.7,0.3-1c0-24.7,0-49.4,0-74.2c0-0.2,0-0.4,0-0.7
		c-4.8,0-9.4,0-14.1,0c-0.2,0.7-0.7,0.9-1.5,0.9c-15.5,0-30.9,0.1-46.4,0.1c-0.8,0-1.4-0.1-1.6-1c-4.8,0-9.5,0-14.2,0
		C6.5,51.5,6.5,87.3,6.5,123.2z M62.5,125.4c-0.2,0-0.4,0-0.6,0c-7.9,0-15.8,0-23.7-0.1c-10.7,0-21.4,0-32.1,0
		c-1.1,0-1.5-0.3-1.5-1.5c0-2.8,0-5.6,0-8.4c0-17.5-0.1-34.9-0.1-52.4c0-15.9,0-31.8,0-47.7c0-1.4,0.3-1.7,1.7-1.7
		c4.7,0,9.4,0,14.1,0c0.2,0,0.6-0.1,0.6-0.2c0.4-0.8,0.7-1.7,1.1-2.5c-0.1,0-0.2,0-0.3,0C16,10.9,10.3,11,4.6,11
		c-0.6,0-1.3,0.1-1.9,0.1c-0.4,0-0.6,0.2-0.6,0.7c0,8.7,0,17.5,0,26.2c0,13.2,0,26.4,0,39.5c0,16.3,0,32.7,0,49c0,0.5,0.1,0.8,0.5,1
		s0.8,0.4,1.2,0.4c4.8,0.1,9.7,0.1,14.5,0.1c14.1,0,28.2,0,42.3,0c0.2,0,0.5,0,0.7,0c-0.1-0.1-0.1-0.1-0.2-0.2
		C61.6,127,62,126.2,62.5,125.4z M60.9,87.1L60.9,87.1c0-3.6,0-7.2,0-10.9c0-0.6-0.1-0.8-0.8-0.8c-5.1,0-10.2,0-15.3,0
		c-0.6,0-0.8,0.1-0.8,0.8c0,7.2,0,14.4,0,21.7c0,0.8,0,0.8,0.8,0.8c5.1,0,10.1,0,15.2,0c0.6,0,0.8-0.2,0.8-0.8
		C60.9,94.3,60.9,90.7,60.9,87.1z M27.5,87.1L27.5,87.1c0,3.6,0,7.2,0,10.9c0,0.6,0.1,0.8,0.8,0.8c4.8,0,9.6,0,14.3,0
		c0.6,0,0.7-0.2,0.7-0.7c0-7.3,0-14.6,0-21.8c0-0.6-0.2-0.7-0.7-0.7c-4.8,0-9.5,0-14.3,0c-0.6,0-0.8,0.2-0.8,0.8
		C27.5,79.9,27.5,83.5,27.5,87.1z M43.3,64.4c0-3.3,0-6.6,0-10c0-0.6-0.1-0.8-0.7-0.8c-4.8,0-9.6,0-14.3,0c-0.6,0-0.8,0.1-0.8,0.7
		c0,6.6,0,13.3,0,19.9c0,0.5,0.1,0.7,0.7,0.7c4.8,0,9.6,0,14.4,0c0.6,0,0.7-0.1,0.7-0.7C43.3,71,43.3,67.7,43.3,64.4z M44.1,64.3
		c0,3.3,0,6.6,0,9.9c0,0.6,0.1,0.8,0.7,0.8c5.1,0,10.3,0,15.4,0c0.5,0,0.7-0.1,0.7-0.7c0-6.7,0-13.3,0-20c0-0.5-0.2-0.7-0.7-0.7
		c-5.1,0-10.3,0-15.4,0c-0.6,0-0.7,0.2-0.7,0.8C44.1,57.7,44.1,61,44.1,64.3z M60.9,43.3C61,43.3,61,43.3,60.9,43.3c0-3,0-5.9,0-8.9
		c0-0.8,0-0.8-0.8-0.9c-5,0-10.1,0-15.1,0c-0.9,0-0.9,0-0.9,0.9c0,5.9,0,11.8,0,17.7c0,0.6,0.1,0.8,0.8,0.8c5.1,0,10.2,0,15.3,0
		c0.6,0,0.8-0.2,0.7-0.8C60.9,49.3,60.9,46.3,60.9,43.3z M90.5,83c-9.3,14.8-18.6,29.5-28,44.3c1.6,1.1,3.2,2.2,4.9,3.2
		c1.2-1.9,2.4-3.7,3.6-5.5c2.5-3.9,4.9-7.7,7.4-11.6c1.7-2.7,3.4-5.4,5.1-8.1c2.1-3.3,4.2-6.6,6.3-9.9c1-1.6,2-3.3,3.1-4.9
		c0.7-1.1,1.5-2.2,2.2-3.4c0.1-0.1,0.2-0.4,0.1-0.5c-0.5-0.6-1-1.1-1.5-1.7c-0.2-0.2-0.6-0.4-0.9-0.6C92,84,91.3,83.5,90.5,83z
		 M43.3,43.3L43.3,43.3c0-3,0-6,0-9c0-0.6-0.2-0.8-0.8-0.8c-4.8,0-9.5,0-14.3,0c-0.6,0-0.8,0.2-0.8,0.8c0,6,0,12,0,18
		c0,0.6,0.2,0.7,0.7,0.7c4.8,0,9.6,0,14.4,0c0.6,0,0.7-0.2,0.7-0.7C43.3,49.3,43.3,46.3,43.3,43.3z M86.3,87.5
		C86.3,87.5,86.4,87.5,86.3,87.5c0.8-1.1,1.6-2.2,2.3-3.4c0.2-0.4,0.4-0.9,0.4-1.4c0-23.4-0.1-46.8-0.1-70.2c0-1.2-0.8-1.9-1.9-1.9
		c-5.6,0-11.2,0.1-16.7,0.1c-0.6,0-1.1,0-1.8,0c0.5,0.8,1,1.5,1.4,2.2c0.2,0.4,0.4,0.5,0.8,0.5c4.7,0,9.3,0.1,14,0.1
		c1.3,0,1.6,0.3,1.6,1.6c0,22.3,0,44.7,0,67C86.3,84,86.3,85.8,86.3,87.5z M67.9,13.3c-0.5-0.7-1-1.2-1.4-1.9
		c-0.3-0.4-0.6-0.5-1-0.5c-9.4-0.1-18.9-0.3-28.3-0.4c-3.8,0-7.5,0.1-11.3,0.2c-1.3,0-2.6,1.3-2.8,2.6
		C37.9,13.3,52.8,13.3,67.9,13.3z M70.3,128c0.2,0,0.3,0,0.3,0c5.5,0,10.9-0.1,16.4-0.1c1.1,0,1.9-0.8,1.9-1.9
		c0-7.8,0.1-15.6,0.1-23.4c0-1.3,0-2.5,0-4c-0.2,0.2-0.2,0.3-0.3,0.3c-0.5,0.8-0.9,1.6-1.5,2.3c-0.8,1-1,2.1-1,3.3
		c0.1,6.4,0,12.8,0,19.1c0,1.3-0.3,1.6-1.6,1.6c-4,0-8.1,0-12.1,0c-0.3,0-0.6,0.1-0.8,0.3C71.3,126.3,70.8,127.1,70.3,128z
		 M84.2,106.3C84.2,106.3,84.1,106.3,84.2,106.3c-3.7,5.6-7.3,11.2-10.9,16.9c3.7,0,7.3,0,11,0C84.2,117.6,84.2,112,84.2,106.3z
		 M41.3,8.6c2.7,0,5.4,0,8.2,0c0-1,0.1-2,0-3c-0.2-1.3-0.9-2.5-2.1-3.1c-1.9-1.1-5,0-5.9,2c-0.1,0.1-0.1,0.2-0.1,0.4
		C41.3,6,41.3,7.3,41.3,8.6z M97.8,82.9c0.7-1.1,1.6-2.1,0.9-3.5c-0.7-1.2-1.7-1.9-3.1-2c-1.6-0.1-2.1,1.1-2.8,2.2
		C94.4,80.7,96.1,81.8,97.8,82.9z M63.1,133.8c1.2-0.9,2.4-1.8,3.7-2.8c-1.5-1-2.9-1.9-4.5-2.9c-0.2,0.9-0.3,1.7-0.6,2.6
		C61.3,132.5,61.3,132.6,63.1,133.8C63.1,133.7,63.1,133.7,63.1,133.8z M60.9,135.2l0.1,0.1c0.3-0.2,0.7-0.5,1.1-0.8
		c-0.4-0.2-0.6-0.3-0.9-0.5C61,134.5,61,134.8,60.9,135.2z"/>
	<path class="st0" d="M68.7,92.9c-0.2-0.2-0.4-0.3-0.5-0.4c-0.4-0.3-0.4-0.6,0-0.9c1.3-1.5,2.5-3,3.8-4.5c0.4-0.5,0.3-0.9-0.2-1.2
		c-1.2-0.7-2.3-1.5-3.4-2.3c-0.4-0.3-0.7-0.7-1-1.1c-0.1-0.1,0-0.5,0.2-0.7c0.1-0.1,0.4,0,0.5,0.1c1.2,0.8,2.4,1.6,3.6,2.5
		c1.7,1.1,1.3,1.2,2.7-0.3c0.8-0.9,1.6-1.8,2.4-2.7c0.3-0.3,0.5-0.3,0.9-0.1c0.4,0.2,0.4,0.5,0.1,0.8c-1,1.1-2,2.3-3,3.4
		c-0.6,0.6-0.6,0.8,0,1.3c1.4,1.3,2.8,2.5,4.2,3.7c0.2,0.2,0.6,0.4,0.2,0.7c-0.3,0.3-0.5,0.7-1,0.2c-1.3-1.2-2.7-2.4-4-3.6
		c-0.7-0.7-0.8-0.6-1.4,0.2c-1,1.3-2.2,2.6-3.2,3.9C69.3,92.3,69.1,92.6,68.7,92.9z"/>
	<path class="st0" d="M34.4,95.2c-0.3-0.1-0.5-0.2-0.7-0.3c-1.3-1-2.6-2-4-3c-0.3-0.2-0.5-0.6-0.3-0.9c0.3-0.4,0.6-0.2,0.9,0
		c0.9,0.7,1.9,1.4,2.8,2.1c0.7,0.5,0.7,0.5,1.2-0.2c0.7-1,1.6-2,2.2-3c1-1.5,1.8-3.1,2.7-4.7c0.1-0.2,0.2-0.7,0.7-0.5
		c0.6,0.3,0.6,0.5,0.4,1.1c-0.9,2.1-2.2,4-3.5,6c-0.7,1-1.3,2-1.9,2.9C34.9,94.9,34.6,95,34.4,95.2z"/>
	<path class="st0" d="M51,72.1c-0.4-0.2-0.7-0.3-0.9-0.6c-1.1-1.1-2.2-2.1-3.3-3.2C46.5,68,46,67.5,46.4,67c0.5-0.5,0.9,0.1,1.2,0.4
		c1,0.9,1.9,1.8,2.8,2.7c0.3,0.3,0.6,0.3,0.9,0c2-2.2,4.1-4.5,6.1-6.7c0.3-0.3,0.5-0.5,0.9-0.2s0.4,0.6,0.1,1
		c-1.4,1.5-2.9,3.1-4.3,4.6c-0.7,0.8-1.4,1.6-2.1,2.4C51.8,71.6,51.4,71.8,51,72.1z"/>
	<path class="st0" d="M30.1,40.7c0.8-0.7,0.8-0.7,1.5-0.1c0.8,0.7,1.6,1.4,2.3,2.1c0.4,0.4,0.7,0.4,1,0c0.9-1,1.8-2.1,2.8-3.1
		c0.3-0.3,0.5-0.5,0.9-0.1c0.3,0.4,0.2,0.6-0.1,1c-0.9,1-1.8,2-2.6,3c-0.5,0.5-0.4,0.7,0.1,1.2c1.2,1.1,2.4,2.2,3.6,3.4
		c0.2,0.2,0.7,0.5,0.4,0.9c-0.4,0.5-0.7,0.4-1.2-0.1c-1.1-1.1-2.3-2.2-3.5-3.3c-0.6-0.5-0.8-0.6-1.3,0c-1,1.2-1.9,2.4-2.8,3.7
		c-0.3,0.4-0.6,0.5-1,0.1c-0.3-0.3-0.3-0.5-0.1-0.8c1-1.3,2-2.6,3.1-3.9c0.4-0.5,0.4-0.8,0-1.1c-0.8-0.7-1.6-1.4-2.4-2.1
		C30.5,41.1,30.3,40.9,30.1,40.7z"/>
	<path class="st0" d="M45.5,2.8c1.6,0,2.8,1.3,2.8,2.9S47,8.5,45.4,8.5c-1.5,0-2.8-1.3-2.8-2.9C42.7,3.8,44.4,2.8,45.5,2.8z
		 M47.9,5.7c0-1.3-1-2.3-2.3-2.3c-1.2,0-2.3,1-2.3,2.3s1,2.4,2.3,2.4C46.8,8,47.8,6.9,47.9,5.7z"/>
</g>
</svg>
