<?xml version="1.0" encoding="utf-8"?>
<!-- Generator: Adobe Illustrator 20.1.0, SVG Export Plug-In . SVG Version: 6.00 Build 0)  -->
<svg version="1.1" id="Layer_1" xmlns="http://www.w3.org/2000/svg" xmlns:xlink="http://www.w3.org/1999/xlink" x="0px" y="0px"
	 viewBox="0 0 261.6 300" style="enable-background:new 0 0 261.6 300;" xml:space="preserve">
<style type="text/css">
	.st0{fill:#03A9F4;}
</style>
<g id="coupon">
	<path id="dollar" class="st0" d="M127.4,115.3c0-6.1,0-12,0-18c2.7,0,5.3,0,8.1,0c0,5.9,0,11.9,0,17.9c3,0.3,5.9,0.5,8.7,0.9
		c6.9,1,13.5,2.8,19.4,6.7c2.4,1.6,4.7,3.5,6.6,5.7c4.5,5.3,4.8,13,1,18.3c-2,2.8-4.7,4.5-8.2,4.9c-3.1,0.4-6.1,0.1-9-1.1
		c-4.3-1.9-6.5-5.3-6.8-10c-0.2-3.7,0.7-7.2,1.9-10.7c0.5-1.2,0.8-2.5,1.3-3.7c0.3-0.9,0.1-1.3-0.7-1.5c-3-0.7-5.9-1.4-8.9-1.9
		c-1.6-0.3-3.3-0.3-5.1-0.4c0,11.4,0,22.6,0,33.8c4.5,0.8,8.9,1.5,13.3,2.4c4.7,1,9.1,2.7,13.2,5.2c10.4,6.3,14.8,15.7,14.3,27.7
		c-0.6,12.8-7.4,21.4-18.2,27.4c-6.7,3.8-14.1,5.6-21.7,6.3c-0.3,0-0.5,0.1-1,0.1c0,7.7,0,15.4,0,23.2c-2.8,0-5.4,0-8.2,0
		c0-7.7,0-15.4,0-23.1c-3.4-0.3-6.6-0.6-9.8-1c-9.5-1.4-18.2-4.8-25.6-11.2c-4.7-4.1-7.4-9-6.9-15.5c0.5-6.8,5.4-11.9,12.3-12.2
		c2-0.1,4,0,5.9,0.5c6.1,1.4,9.6,6,9.6,12.2c0,3.9-1,7.5-2.3,11.1c-0.5,1.3-0.9,2.7-1.4,4c4.4,2.8,14,5.3,18,4.7
		c0-12.3,0-24.7,0-37.1c-2.6-0.3-5.1-0.6-7.7-0.9c-7.8-1.1-15-3.5-21.2-8.5c-7.9-6.5-11.1-15.1-9.9-25.1c1.8-15,11-24,24.9-28.6
		c3.8-1.3,8-1.6,11.9-2.3C125.9,115.5,126.6,115.4,127.4,115.3z M135.6,218.2c4.6-0.4,9-1.2,12.8-3.6c6.5-4,9.1-10,8.4-17.4
		c-0.7-6.7-4.6-10.9-10.7-13.2c-3.4-1.3-6.9-1.9-10.5-2.2C135.6,194,135.6,206,135.6,218.2z M127.3,122.6c-4.2-0.3-11,2.3-14.4,5.4
		c-2.9,2.6-4.7,5.7-5,9.6c-0.5,8.2,2.5,13.1,9.2,15.8c2,0.8,4.2,1.2,6.3,1.7c1.3,0.3,2.6,0.4,3.9,0.6
		C127.3,144.5,127.3,133.6,127.3,122.6z"/>
	<path id="scissors" class="st0" d="M147.6,11.8c-1.1-1.8-2.8-2.6-4.5-3.1c-3.2-0.9-6.4-1-9.6-0.5c-12.9,2-25.3,5.6-36.8,11.8
		c-7.8,4.2-15.2,9.4-22.7,14.2c-0.8,0.5-1.4,0.6-2.2,0.1C65.5,30.6,59.3,27,53,23.3c-0.9-0.5-1.2-1.1-1.2-2.1
		C51.6,7.8,39-2.4,25.9,0.5C17.5,2.3,11.8,7.4,9.3,15.7C6.9,23.9,9,31.2,15,37.4c0.1,0.1,0.2,0.3,0.4,0.5c1.9,1.4,4,2.5,6.1,3.5
		c1.3,0.6,2.7,1.1,3.9,1.7v0c7,1.2,13.3-0.2,18.8-4.8c1.9,1.4,3.8,2.8,5.7,4.2c1.6,1.2,3.1,2.3,4.7,3.4c1.1,0.8,1.2,1.3,0.1,2.1
		c-2.7,2.1-5.5,4.3-8.2,6.4c-0.3,0.2-1.1,0.4-1.4,0.1c-5.8-4.2-12.2-5.3-19.1-3.6c-0.9,0.6-2.1,0.8-3,1.3c-1.7,0.8-3.1,1.9-4.6,3
		c-0.8,0.6-1.7,1.1-2.4,1.8c-0.7,0.7-1.3,1.5-1.8,2.4c-0.8,1.2-1.7,2.4-2.4,3.6c0.1,0,0.1,0.1,0.1,0.2c-0.1,0.1-0.2,0.3-0.2,0.5h0
		c-0.4,1.4-0.7,2.5-1,3.7c-0.2,1.2-0.4,2.4-0.4,3.6c-0.6,13.7,12,24.7,25.5,22.1c10.7-2.1,17.9-10.8,17.9-21.7
		c0-0.8,0.2-1.3,0.9-1.7c5.9-3.6,11.7-7.3,17.5-10.9c0.7-0.4,1.1-0.4,1.7,0c3,2,6.1,3.8,9.2,5.8c11.5,7.5,24,12.5,37.3,15.5
		c5.8,1.3,11.6,2.8,17.7,2.3c2.3-0.2,4.5-1,6.6-1.7c0.9-0.3,1.6-1.3,2.6-2.2c-18.5-10.9-36.7-21.5-55-32.3
		C110.8,34.8,129.2,23.3,147.6,11.8z M30.1,34.5c-7,0-12.7-5.7-12.7-12.7c0-7,5.6-12.7,12.7-12.8c7,0,12.7,5.7,12.8,12.7
		C42.9,28.7,37.2,34.5,30.1,34.5z M32,84.5c-7,0-12.7-5.7-12.6-12.7c0-7,5.7-12.7,12.7-12.7c7.1,0,12.7,5.7,12.7,12.7
		C44.9,78.8,39.1,84.6,32,84.5z"/>
	<g id="outline">
		<path class="st0" d="M14,59.4c1-1.5,2-2.7,3.4-3.8c1.6-1.2,3.2-2.4,4.9-3.4c1-0.5,2.2-0.8,3.2-1.3v-7.5c-1.3-0.7-2.7-1.2-4.1-1.8
			c-2.1-0.9-4-1.9-5.8-3.3H0v25.4h11.2C11.9,62.2,13.1,60.9,14,59.4z"/>
		<path class="st0" d="M236.2,55.4c0-5.8,0-11.3,0-17c8.5,0,16.9,0,25.3,0c0,8.4,0,16.8,0,25.3c-5.6,0-11.2,0-16.8,0
			c0-2.8,0-5.5,0-8.3C241.9,55.4,239.1,55.4,236.2,55.4z"/>
		<path class="st0" d="M261.6,274.7c0,8.5,0,16.8,0,25.3c-8.4,0-16.9,0-25.4,0c0-5.6,0-11.2,0-16.9c2.8,0,5.5,0,8.4,0
			c0-2.9,0-5.6,0-8.5C250.3,274.7,255.9,274.7,261.6,274.7z"/>
		<path class="st0" d="M0,300c0-8.5,0-16.9,0-25.4c5.6,0,11.1,0,16.8,0c0,2.8,0,5.5,0,8.4c2.9,0,5.7,0,8.5,0c0,5.7,0,11.3,0,17
			C16.9,300,8.5,300,0,300z"/>
		<path class="st0" d="M244.8,244.4c0-10,0-20,0-30c5.6,0,11.2,0,16.8,0c0,10,0,19.9,0,30C256,244.4,250.5,244.4,244.8,244.4z"/>
		<path class="st0" d="M16.8,244.4c-5.6,0-11.1,0-16.8,0c0-9.9,0-19.9,0-30c5.5,0,11.1,0,16.8,0C16.8,224.4,16.8,234.4,16.8,244.4z"
			/>
		<path class="st0" d="M206,283.2c0,5.6,0,11.2,0,16.8c-10,0-20,0-30,0c0-5.6,0-11.1,0-16.8C186,283.2,196,283.2,206,283.2z"/>
		<path class="st0" d="M145.8,283.2c0,5.6,0,11.2,0,16.8c-10,0-19.9,0-29.9,0c0-5.6,0-11.1,0-16.8
			C125.8,283.2,135.7,283.2,145.8,283.2z"/>
		<path class="st0" d="M55.6,300c0-5.6,0-11.1,0-16.8c10,0,19.9,0,30,0c0,5.6,0,11.1,0,16.8C75.6,300,65.7,300,55.6,300z"/>
		<path class="st0" d="M261.6,184.2c-5.7,0-11.2,0-16.8,0c0-10,0-19.9,0-29.9c5.6,0,11.2,0,16.8,0
			C261.6,164.2,261.6,174.1,261.6,184.2z"/>
		<path class="st0" d="M16.9,154.3c0,10,0,19.9,0,29.9c-5.6,0-11.2,0-16.8,0c0-9.9,0-19.9,0-29.9C5.6,154.3,11.2,154.3,16.9,154.3z"
			/>
		<path class="st0" d="M261.6,123.9c-5.6,0-11.2,0-16.8,0c0-10,0-19.9,0-29.9c5.6,0,11.1,0,16.8,0
			C261.6,103.9,261.6,113.9,261.6,123.9z"/>
		<path class="st0" d="M16.9,94c0,10,0,19.9,0,29.9c-5.6,0-11.2,0-16.8,0C0,114,0,104.1,0,94C5.6,94,11.1,94,16.9,94z"/>
		<path class="st0" d="M176.1,38.4c10,0,20,0,30,0c0,5.6,0,11.2,0,16.8c-10,0-19.9,0-30,0C176.1,49.6,176.1,44.1,176.1,38.4z"/>
		<path class="st0" d="M115.9,38.4c10,0,19.9,0,29.9,0c0,5.6,0,11.2,0,16.8c-9.9,0-19.8,0-29.9,0C115.9,49.7,115.9,44.1,115.9,38.4z
			"/>
	</g>
</g>
</svg>
