<?xml version="1.0" encoding="utf-8"?>
<!-- Generator: Adobe Illustrator 19.1.0, SVG Export Plug-In . SVG Version: 6.00 Build 0)  -->
<svg version="1.1" id="Layer_1" xmlns="http://www.w3.org/2000/svg" xmlns:xlink="http://www.w3.org/1999/xlink" x="0px" y="0px"
	 viewBox="0 0 100 81.9" style="enable-background:new 0 0 100 81.9;" xml:space="preserve">
<style type="text/css">
	.st0{fill:#03A9F4;}
</style>
<g id="dentist-icon">
	<path class="st0" d="M0,28c2.7-1.4,5.4-2.8,8-4.3C21.6,15.9,35.2,8,48.9,0.2c0.6-0.3,1.6-0.2,2.2,0.1C63.6,7.5,76,14.7,88.4,21.9
		c3.6,2.1,7.1,4.1,10.7,6.2c0.3,0.2,0.6,0.2,0.9,0.3c0,0.1,0,0.2,0,0.3c-1,1.2-2.1,2.4-3,3.7c-0.8,1.1-1.4,1.4-2.7,0.6
		C80.1,24.8,65.8,16.6,51.6,8.3c-1.4-0.8-2.3-0.7-3.6,0.1C33.9,16.6,19.6,24.8,5.5,33c-1.2,0.7-1.8,0.4-2.5-0.6
		C2.1,31.1,1,29.9,0,28.7C0,28.5,0,28.3,0,28z"/>
	<path class="st0" d="M88.6,58.7c0,7.2,0,14.3,0,21.5c0,1.3-0.4,1.6-1.6,1.6c-6.6,0-13.2,0-19.8,0c-1.2,0-1.7-0.3-1.7-1.7
		c0.1-10.4,0-20.8,0.1-31.2c0-1.6-0.5-2-2-1.9c-8.9,0.1-17.8,0-26.7,0c-2.2,0-2.2,0-2.2,2.1c0,10.3,0,20.6,0,30.8
		c0,1.3-0.3,1.8-1.7,1.8c-6.5-0.1-13-0.1-19.5,0c-1.3,0-1.8-0.2-1.8-1.7c0.1-14.3,0-28.6,0-42.8c0-1,0.3-1.6,1.2-2.1
		C23.4,29.1,34,23.1,44.6,17c1.4-0.8,2.8-1.8,4.3-2.4c0.6-0.3,1.7-0.4,2.2,0c12,6.8,24,13.7,36.1,20.5c1,0.6,1.4,1.2,1.4,2.4
		C88.6,44.5,88.6,51.6,88.6,58.7z"/>
	<path class="st0" d="M41.8,68.2c0.1-1.4,0.2-2.8,0.2-4.1c0-0.7-0.4-1.3-0.6-2c-0.4-1.3-1-2.6-1-3.9c0-3.6,2.1-5.3,5.6-4.3
		c2.2,0.6,4.3,0.7,6.5,0.1c1.7-0.5,3.7-0.1,4.5,1.4c0.7,1.4,1.1,3.5,0.5,4.9c-1.2,2.9-1.5,5.6-0.8,8.6c0.5,2.3-0.2,4.2-1.7,5.8
		c-1.5,1.6-2.8,1.3-3.3-0.7c-0.5-1.8-0.7-3.7-1.2-5.5c-0.1-0.6-0.7-1-1.1-1.5c-0.5,0.5-1.3,0.8-1.4,1.4c-0.5,1.5-0.7,3.1-1,4.7
		c-0.2,1.1-0.5,2.5-1.8,2.4c-0.9-0.1-2-1.1-2.4-1.9c-0.6-1.6-0.7-3.4-0.9-5.2C41.7,68.2,41.7,68.2,41.8,68.2z M52.8,73.5
		c0.2,0.1,0.3,0.1,0.5,0.2c0.3-0.7,0.9-1.4,1-2.1c0.1-2.3,0-4.6,0.1-7c0-1.1,0.4-2.2,0.7-3.3c0.3-1.1,0.8-2.2,0.9-3.3
		c0.2-2.1-1-3.4-3-2.8c-2.6,0.7-5.1,0.8-7.7-0.1c-0.6-0.2-2.1,0.3-2.2,0.7c-0.4,1.5-0.5,3.1-0.4,4.6c0.1,1.7,0.8,3.3,1,4.9
		c0.2,1.6-0.1,3.3,0,5c0.1,1.1,0.4,2.2,0.7,3.4c0.2,0,0.4,0,0.6,0c0.2-0.9,0.3-1.8,0.5-2.7c0.5-1.6,0.8-3.3,1.7-4.8
		c0.8-1.4,2.7-1.4,3.6,0c0.5,0.7,0.9,1.7,1.1,2.5C52.4,70.3,52.5,71.9,52.8,73.5z"/>
</g>
</svg>
