<?xml version="1.0" encoding="utf-8"?>
<!-- Generator: Adobe Illustrator 18.1.1, SVG Export Plug-In . SVG Version: 6.00 Build 0)  -->
<!DOCTYPE svg PUBLIC "-//W3C//DTD SVG 1.1//EN" "http://www.w3.org/Graphics/SVG/1.1/DTD/svg11.dtd">
<svg version="1.1" id="Layer_1" xmlns="http://www.w3.org/2000/svg" xmlns:xlink="http://www.w3.org/1999/xlink" x="0px" y="0px"
	 viewBox="0 0 146 139.9" style="enable-background:new 0 0 146 139.9;" xml:space="preserve">
<style type="text/css">
	.st0{fill:#E91E63;}
</style>
<g id="bottle">
	<path class="st0" d="M47.2,39.7c-1.5-1.2-1.4-2.7-1.1-4.3c0.3-1.1,0.8-2.1,1.2-3.2c-0.9-0.4-1.1-0.8-0.9-2
		c0.7-3.7,1.6-7.4,2.1-11.1c0.5-3.9,0.5-7.8,0.6-11.8c0.1-2,0-4.1,0-6.1c0-0.9,0.3-1.2,1.2-1.2C61.2,0.2,72,0.3,82.8,0.5
		c1.2,0,1.6,0.3,1.7,1.5c0,0.3,0,0.7,0,1c0,6.6,0,13.2,0,19.8c0,1.1,0.3,2.2,0.6,3.2c0.4,1.5,0.9,2.9,1.2,4.3c0.3,1.4,0,1.7-1.4,2
		c-0.1,0-0.2,0.1-0.4,0.1c0,0.1,0.1,0.2,0.1,0.2c1.6,0.3,1.6,0.3,1.6,2c0,1,0,1.9,0,2.9c0,1-0.1,1.9-1.5,2.2
		c0.6,0.4,0.9,0.7,1.3,0.9c1.5,0.9,3,1.8,4.5,2.8c1.2,0.8,1.8,2,1.8,3.5c-0.1,15.3-0.1,30.6-0.2,45.9c0,12.1,0,24.2,0,36.3
		c0,1.7-0.6,3.2-1.3,4.6c-0.5,1-1.4,1.6-2.4,1.9c-2.8,0.9-5.6,1.8-8.5,2.6c-3.8,1-7.8,1.4-11.8,1.5c-2.2,0-4.4-0.2-6.6-0.4
		c-3.9-0.3-7.8-0.7-11.7-1.1c-2.3-0.3-4.6-1-6.6-2.3c-1.7-1.1-2.9-2.7-3.3-4.8c-0.7-3.6-0.7-7.2-0.5-10.8
		c0.6-11.2,0.5-22.5,0.6-33.7c0.1-7.6,0-15.3,0.1-22.9c0.1-4.2-0.1-8.4-0.5-12.6c-0.3-2.8,0-5.5,2.1-7.7c1.1-1.2,2.6-2.1,4-3.1
		C46.1,40.2,46.6,40,47.2,39.7z M41.9,56.3c0,1.9,0,3.9,0,5.9c-0.2,19.2-0.4,38.4-0.7,57.6c0,0.8,0.1,1.1,1,1.1
		c15.6,0.1,31.3,0.2,46.9,0.3c0.3,0,0.6,0,0.9,0c0.2-21.7,0.9-43.2,0.6-64.9C74.4,56.3,58.2,56.3,41.9,56.3z M65.8,122.8
		c0-0.1,0-0.2,0-0.3c-7.4,0-14.7,0-22.1,0c-0.5,0-1,0-1.4,0.1c-0.7,0.1-1.1,0.6-1.1,1.3c0,1.9,0,3.8,0.2,5.7c0.2,2.4,1,4.5,3.4,5.4
		c1.5,0.6,3,1.3,4.5,1.5c3.9,0.6,7.9,0.9,11.8,1.3c2,0.2,4,0.5,5.9,0.3c3.8-0.3,7.5-0.6,11.2-1.3c2.8-0.5,5.6-1.4,8.3-2.3
		c2.2-0.7,3.6-2.2,3.6-4.7c0-1.6,0-3.3,0.1-4.9c0.1-1.6-0.9-2.2-2.3-2.2C80.7,122.7,73.2,122.8,65.8,122.8z M65.8,54.2
		C65.8,54.2,65.8,54.2,65.8,54.2c7.7,0.1,15.4,0.2,23.1,0.3c1.4,0,1.8-0.3,1.8-1.7c0-1.9,0-3.9,0-5.8c0-0.9-0.2-1.6-0.9-2
		c-1.4-0.9-2.8-1.7-4.1-2.6c-0.8-0.5-1.5-1.1-2.2-1.7c-0.4-0.4-0.7-0.6-1.3-0.6c-10.7,0-21.4,0-32,0c-0.2,0-0.5,0-0.7,0.1
		c-1.4,0.8-2.7,1.6-4,2.5c-2.8,1.8-4.3,4.4-4.1,7.8c0.1,0.8,0.1,1.6,0.1,2.4c0,0.7,0.3,0.9,1,0.9C50.2,54,58,54.1,65.8,54.2z
		 M48.1,30.2c12.2,1.1,24.3,0.9,36.7,0.7c-0.8-2.6-1.4-5-2.2-7.4c-2.1,0-4.3,0-6.4,0c-8.3,0-16.5,0-24.8,0c-1.1,0-1.6,0.3-2,1.4
		C48.9,26.6,48.5,28.4,48.1,30.2z M66.2,39.2C66.2,39.2,66.2,39.1,66.2,39.2c3.2,0,6.5,0,9.7,0c2.2,0,4.3,0,6.5,0
		c0.7,0,2.1-0.9,2.1-1.4c0-1,0.2-2,0-2.9c-0.3-1.5,0-1.4-1.5-1.4c-7.7,0-15.5,0-23.2,0c-3.5,0-6.9-0.1-10.4-0.1
		c-0.4,0-0.9,0.3-1.1,0.6c-0.3,0.7-0.5,1.4-0.7,2.1c-0.4,1.8,0.7,3.1,2.6,3.1C55.6,39.2,60.9,39.2,66.2,39.2z M67.6,22.8
		c0-0.6,0-1,0-1.5c0-5.3,0-10.6,0-16c0-0.9,0-1.8,0-2.7c0-0.2-0.3-0.6-0.4-0.6c-1.8,0-3.5,0-5.3,0c0,6.9,0,13.9,0,20.8
		C63.7,22.8,65.6,22.8,67.6,22.8z M55.8,1.9c0,0.3,0,0.5,0,0.8c0,6.4,0,12.8,0,19.3c0,0.2-0.1,0.4,0,0.5c0.1,0.2,0.3,0.5,0.5,0.5
		c1.7,0,3.4,0,5,0c0-7,0-14,0-21C59.4,1.9,57.6,1.9,55.8,1.9z M82.8,22.8c0-1.6,0-3.2,0-4.7c0-4.9,0-9.9,0-14.8
		c0-0.4,0.1-0.9-0.5-0.9c-1.5-0.1-3.1-0.2-4.7-0.3c0,0.5,0,0.9,0,1.2c0,4.9,0,9.9,0,14.8c0,1.4,0,2.7,0,4.1c0,0.3,0,0.6,0.5,0.6
		C79.6,22.8,81.2,22.8,82.8,22.8z M50.9,1.8c0,0.4,0,0.7,0,1c-0.1,4.5-0.2,8.9-0.3,13.4c0,1.9-0.1,3.8-0.2,5.8c0,0.7,0.2,1,0.9,1
		c1-0.1,2-0.1,3,0c0.8,0,1-0.2,1-1c0-6.4,0-12.8,0-19.2c0-0.3,0-0.6,0-0.9C53.8,1.8,52.4,1.8,50.9,1.8z M68.1,2.1
		c0,6.9,0,13.8,0,20.7c1.5,0,2.9,0,4.4,0c0-0.5,0-0.9,0-1.3c0-5.4,0-10.9,0-16.3c0-0.8,0-1.7,0-2.5c0-0.2-0.3-0.6-0.4-0.6
		C70.8,2.1,69.5,2.1,68.1,2.1z M73,2.3c0,0.3,0,0.6,0,0.9c0,4.3,0,8.6,0,12.9c0,2,0,4,0,6c0,0.6,0.1,0.9,0.8,0.8
		c0.8-0.1,1.6-0.1,2.4,0c0.7,0.1,0.9-0.2,0.9-0.9c0-3.4,0-6.9,0-10.3c0-2.9,0-5.7,0-8.6c0-0.4,0.1-0.8-0.6-0.8
		C75.5,2.3,74.3,2.3,73,2.3z"/>
</g>
<g id="syringe">
	<path class="st0" d="M8.6,139.8c-0.1-1.9-0.1-3.8-0.2-5.8c1.7,0,3.3,0,4.8,0c0-5.5-0.1-10.9-0.1-16.4c-4.4,0-8.8,0.1-13.2,0.1
		c0-2.3,0-4.6,0-6.8c2.1,0,4.2,0,6.6,0c-0.1-0.4-0.2-0.7-0.2-1C6.3,93.1,6.2,76.3,6.1,59.5c0-0.4,0.1-0.6,0.4-0.9
		c1.7-1.2,3.5-2.1,5.6-2.7c0-1.9-0.1-3.8-0.1-5.7c0-1.2,0-2.3,0-3.5c0-0.2,0.2-0.6,0.4-0.7c1-0.8,2.2-1.2,3.4-1.4
		c2.2-0.4,4.1,0.2,5.9,1.4c0.2,0.1,0.3,0.5,0.3,0.7c0,2.9,0.1,5.8,0.1,8.6c0,0.4,0.1,0.6,0.5,0.7c1.8,0.5,3.4,1.4,5,2.4
		c0.4,0.3,0.5,0.6,0.5,1c0.1,9.3,0.1,18.5,0.2,27.8c0.1,7.5,0.1,15,0.2,22.5c0,0.3,0,0.6-0.1,0.9c2.2,0,4.4-0.1,6.5-0.1
		c0,2.4,0,4.7,0,7c-4.3,0-8.7,0-13.1,0c0,5.5,0.1,10.9,0.1,16.4c1.5,0,3.1-0.1,4.6-0.1c0,2,0.1,4,0.1,5.9c0,0-0.1,0.1-0.1,0.1
		c-0.2,0-0.3,0-0.5,0c-5.6,0-11.1,0.1-16.7,0.1C9.3,139.8,9,139.9,8.6,139.8C8.7,139.9,8.7,139.8,8.6,139.8z M27.1,110.4
		c0-0.2,0-0.3,0-0.4c-0.1-16.7-0.3-33.3-0.4-50c0-0.4-0.2-0.6-0.5-0.8C20.1,55.6,14,55.6,8,59.3c-0.3,0.2-0.5,0.4-0.5,0.8
		C7.7,76.8,7.8,93.4,7.9,110c0,0.2-0.1,0.4-0.2,0.6C14.3,110.5,20.7,110.5,27.1,110.4z M33.7,112.1c-10.8,0.1-21.6,0.1-32.3,0.2
		c0,1.3,0,2.7,0,4c10.8-0.1,21.6-0.2,32.4-0.2C33.7,114.7,33.7,113.4,33.7,112.1z M20.5,133.8c0-5.4-0.1-10.8-0.1-16.1
		c-1.9,0-3.8,0-5.6,0c0,5.4,0.1,10.8,0.1,16.1C16.7,133.9,18.6,133.9,20.5,133.8z M20.7,55.4c0-2.8,0-5.5-0.1-8.3
		c0-0.2-0.2-0.4-0.3-0.5c-2.2-1.1-4.3-1.1-6.5,0c-0.3,0.2-0.4,0.4-0.4,0.7c0,2,0,4.1,0,6.1c0,0.6,0,1.3-0.1,2
		C15.9,55,18.3,55,20.7,55.4z M10.1,135.4c0,1,0,2,0,3c5,0,10.1-0.1,15.2-0.1c0-1,0-2,0-3C20.2,135.3,15.2,135.4,10.1,135.4z"/>
	<path class="st0" d="M24.8,83.8c-5,0-9.9,0.1-14.9,0.1c0-1.9,0-3.8,0-5.7c0-5.6-0.1-11.2-0.1-16.8c0-0.4,0.1-0.7,0.5-0.9
		c4.6-2.4,9.3-2.4,13.9-0.1c0.3,0.2,0.5,0.3,0.5,0.7c0,7.5,0.1,15,0.2,22.5C24.8,83.7,24.8,83.7,24.8,83.8z"/>
	<path class="st0" d="M13.2,105.5c2.8,0,5.6,0,8.5,0c0,0.4,0,0.8,0,1.1c-2.9,0-5.7,0-8.6,0C13.2,106.3,13.2,105.9,13.2,105.5z"/>
	<path class="st0" d="M21.6,88.2c0,0.4,0,0.8,0,1.1c-2.8,0-5.7,0-8.5,0c0-0.3,0-0.7,0-1.1C15.9,88.2,18.8,88.2,21.6,88.2z"/>
	<path class="st0" d="M21.7,94.6c-2.9,0-5.7,0-8.5,0c0-0.3,0-0.7,0-1.1c2.8,0,5.7,0,8.5-0.1C21.7,93.8,21.7,94.2,21.7,94.6z"/>
	<path class="st0" d="M21.7,100.5c-2.9,0-5.7,0-8.5,0.1c0-0.3,0-0.7,0-1.1c2.8,0,5.7,0,8.6-0.1C21.7,99.8,21.7,100.2,21.7,100.5z"/>
</g>
<g id="cup">
	<path class="st0" d="M121.2,97.4c7.7,0,15.3,0,23,0c0.6,0,1.6,0.4,1.8,0.8c0.2,0.5-0.1,1.4-0.5,1.9c-1.9,2.1-2.8,4.4-3.2,7.2
		c-1.4,9.8-3,19.6-4.6,29.5c-0.1,0.4-0.1,0.7-0.1,1.1c-0.1,1.4-0.7,2-2.2,2c-8.4-0.1-16.8-0.1-25.2-0.1c-1.3,0-2.6,0-3.9,0
		c-1.2,0-1.8-0.6-2-1.9c-1.4-8.5-2.8-17.1-4.2-25.6c-0.3-2.1-0.8-4.2-1.1-6.3c-0.2-2.2-1.3-3.9-2.4-5.7c-0.4-0.6-0.8-1.7-0.5-2.1
		c0.4-0.5,1.4-0.8,2.1-0.8C105.9,97.4,113.5,97.4,121.2,97.4C121.2,97.4,121.2,97.4,121.2,97.4z M120.7,103.3
		C120.7,103.3,120.7,103.3,120.7,103.3c-5.9,0-11.8,0-17.7,0c-1.9,0-2.2,0.4-1.9,2.2c0.8,4.9,1.6,9.9,2.5,14.8
		c0.9,5.3,1.8,10.6,2.6,15.9c0.2,1.1,0.8,1.2,1.7,1.2c8.6,0,17.2,0,25.8,0c1.2,0,1.6-0.4,1.8-1.6c1.5-10.1,3.2-20.2,4.7-30.2
		c0.3-2,0.1-2.2-1.9-2.2C132.5,103.3,126.6,103.3,120.7,103.3z M120.6,99.6C120.6,99.6,120.6,99.6,120.6,99.6
		c-6.6-0.1-13.1-0.1-19.7,0c-0.5,0-1,0.5-1.6,0.8c0.5,0.5,0.9,1,1.5,1.4c0.2,0.2,0.6,0,0.9,0c11.9,0,23.7,0,35.6,0c1,0,2,0.2,3,0
		c0.6-0.1,1-0.8,1.5-1.2c-0.5-0.3-1.1-0.8-1.6-0.8C133.7,99.6,127.2,99.6,120.6,99.6z"/>
	<path class="st0" d="M120.3,106.5c3.8,0,7.6,0,11.4,0c0.8,0,1.8-0.1,1.7,1c0,0.4-1,0.9-1.6,0.9c-7.7,0-15.5,0-23.2-0.1
		c-0.5,0-1.1-0.5-1.6-0.8c0.6-0.3,1.1-0.9,1.7-0.9C112.5,106.5,116.4,106.6,120.3,106.5C120.3,106.5,120.3,106.5,120.3,106.5z"/>
	<path class="st0" d="M119.8,118c-3.9,0-7.8,0-11.7,0c-0.5,0-1.5-0.5-1.5-0.8c-0.1-1.1,0.9-0.9,1.6-0.9c7.8,0,15.6-0.1,23.4,0
		c0.5,0,1.1,0.6,1.6,1c-0.5,0.3-1,0.9-1.6,0.9c-3.9,0.1-7.9,0-11.8,0C119.8,118.1,119.8,118.1,119.8,118z"/>
	<path class="st0" d="M120.6,128c-3.4,0-6.8,0-10.1,0c-0.5,0-1,0.1-1.4-0.1c-0.4-0.1-0.7-0.5-1-0.8c0.3-0.3,0.6-0.8,1-1
		c0.3-0.2,0.8-0.1,1.2-0.1c7,0,13.9-0.1,20.9,0c0.6,0,1.1,0.6,1.7,1c-0.5,0.3-1.1,1-1.6,1C127.7,128.1,124.1,128.1,120.6,128
		C120.6,128.1,120.6,128.1,120.6,128z"/>
</g>
</svg>
