<?xml version="1.0" encoding="utf-8"?>
<!-- Generator: Adobe Illustrator 19.1.0, SVG Export Plug-In . SVG Version: 6.00 Build 0)  -->
<svg version="1.1" id="Layer_1" xmlns="http://www.w3.org/2000/svg" xmlns:xlink="http://www.w3.org/1999/xlink" x="0px" y="0px"
	 viewBox="0 0 112.3 133.6" style="enable-background:new 0 0 112.3 133.6;" xml:space="preserve">
<style type="text/css">
	.st0{fill:#00BCD4;}
</style>
<g id="drugcard-icon">
	<path class="st0" d="M89.8,19.6c-12.9,0-25.6,0-38.5,0c-1,5.4-4.1,8.1-9.7,8.4c-4.4,0.2-7.1,3.9-7.2,8.8c-0.1,11,0,22.1,0,33.1
		c0,8,0,16,0,23.9c0,1,0,2.1,0,3.3c-1.9,0-3.6,0-5.4,0C29,96,29,95,29,94c0-18.7,0-37.4,0-56.1c0-9.5,4.2-14.3,13.6-15.7
		c1.1-0.2,2.1-1.1,3.7-1.9c-7.9-3.1-9.3-5.2-9-12.2c0.3-4.5,3.6-8,8.1-8C62.2,0,79,0,95.8,0.1c4.3,0,7.6,3.1,8.2,7.3
		c0.8,5.6-1.2,10-5.4,11.6c-0.9,0.3-1.8,0.5-3,1.6c1,0.6,2,1.5,3.1,1.7c9.6,1.6,13.7,6.3,13.7,16c0,22.1,0,44.1,0,66.2
		c0,9.6-5.6,15.3-15.2,15.3c-10,0-19.9,0-30.1,0c-0.2-1.8-0.4-3.4-0.7-5.4c1.2-0.1,2.3-0.1,3.4-0.1c9.1,0,18.3,0,27.4,0
		c6.5,0,9.6-3.2,9.7-9.7c0-22.3,0-44.5,0-66.8c0-6.4-2.5-9.2-8.9-9.8C93.6,27.3,91.3,25,89.8,19.6z M70.3,13.9c8,0,16-0.1,23.9,0
		c2.9,0,4.3-1.1,4.2-4.1c-0.1-3.6-0.6-4.2-4.2-4.2c-15.7,0-31.5,0-47.2,0c-2.9,0-4.3,1-4.1,4c0.1,3.5,0.7,4.3,4.2,4.3
		C54.8,13.9,62.6,13.9,70.3,13.9z"/>
	<path class="st0" d="M98.3,47.5c0,13.9,0,27.5,0,41.3c-18.4,0-36.7,0-55.2,0c0-13.7,0-27.4,0-41.3C61.4,47.5,79.7,47.5,98.3,47.5z
		 M48.6,53c0,10.3,0,20.2,0,30.1c14.8,0,29.4,0,44,0c0-10.2,0-20.1,0-30.1C77.9,53,63.3,53,48.6,53z"/>
	<path class="st0" d="M30.6,133.6c-5,0-10.1,0.1-15.1,0C6.6,133.4,0,126.9,0,118.2c0-8.6,6.6-15.3,15.4-15.4
		c10.1-0.1,20.2-0.1,30.2,0c8.8,0.1,15.5,6.8,15.5,15.3c0,8.5-6.7,15.2-15.5,15.4C40.7,133.6,35.6,133.6,30.6,133.6z M30.1,128
		c5.1,0,10.3,0,15.4,0c5.9-0.1,10-4.2,10-9.9c-0.1-5.5-4.2-9.6-9.9-9.6c-10-0.1-20,0-29.9,0c-6,0-10.1,4-10.1,9.7
		c0,5.7,4.1,9.7,10.1,9.8C20.5,128,25.3,128,30.1,128z"/>
	<path class="st0" d="M71.3,54.5c2.4,1.6,4.5,3,6.7,4.4c-0.1,0.3-0.1,0.6-0.2,0.9c-1.7-0.4-3.3-0.7-5.2-1.1c0,2.7,0,5.1,0,7.8
		c3.6,0.7,6.6,2,6.6,6.2c0,3-1.8,4.7-6.4,6.1c-0.2,1-0.4,2-0.6,3.6c-1.2-1.5-1.9-3-3.1-3.8c-1.4-1-3.2-1.4-4.8-2
		c0-0.4,0.1-0.8,0.1-1.3c0.8,0.1,1.7,0,2.5,0.2c1.2,0.3,2.3,0.8,3.9,1.4c0-2.7,0.1-4.9-0.1-7.1c-0.1-0.6-1.1-1.4-1.8-1.6
		c-2.7-0.9-4.4-2.6-4.4-5.5c0-2.8,1.5-4.6,4.1-5.8C70,56.3,70.9,54.9,71.3,54.5z M72.6,76.3c2.8,0,4.3-1.3,4.3-3.9
		c0-2.6-1.7-3.5-4.3-3.6C72.6,71.4,72.6,73.8,72.6,76.3z M70.7,58.5c-2.6,0.5-3.9,1.8-3.8,4.3c0.1,2.2,1.6,3.1,3.8,3.2
		C70.7,63.5,70.7,61.2,70.7,58.5z"/>
</g>
</svg>
