<?xml version="1.0" encoding="utf-8"?>
<!-- Generator: Adobe Illustrator 19.2.0, SVG Export Plug-In . SVG Version: 6.00 Build 0)  -->
<svg version="1.1" id="Layer_1" xmlns="http://www.w3.org/2000/svg" xmlns:xlink="http://www.w3.org/1999/xlink" x="0px" y="0px"
	 viewBox="0 0 100 110.4" style="enable-background:new 0 0 100 110.4;" xml:space="preserve">
<style type="text/css">
	.st0{fill:#00B0FF;}
	.st1{fill:#EC407A;}
	.st2{fill:#FFAB40;}
</style>
<g id="faces">
	<path class="st0" d="M82.3,0c0.3,0.4,0.5,1,0.9,1.1c0.8,0.2,1,0.9,1.4,1.4c0.6,1.1,1.3,2.3,1.8,3.5c2.1,4.7,4,9.4,5.4,14.4
		c0.5,1.9,1.2,3.8,1.9,5.7c0.4,1.3,0.3,2.5-0.5,3.6c-0.2,0.2-0.3,0.5-0.4,0.7c-0.3,0.7-0.3,1.4,0.1,2c1.9,2.8,3.7,5.5,5.6,8.3
		c0.6,0.9,1.2,1.8,1.5,2.9c0,0.3,0,0.7,0,1.1c-0.3,0.8-0.9,1.1-1.6,1.3c-0.7,0.1-1.3,0.3-1.9,0.5c-1.9,0.7-2.2,1.5-1.4,3.3
		c0.3,0.5,0.5,1,0.7,1.5c0.2,0.4,0.1,0.8-0.2,1.2c-0.5,0.5-0.9,1-1.3,1.5c0.3,0.4,0.5,0.7,0.8,1.1c0.7,1.1,0.7,1.2-0.3,2.2
		c-0.4,0.4-0.8,0.8-0.9,1.2c-0.3,1.3-0.3,2.7-0.2,4c0.1,1.4,0.2,2.7,0.1,4.1c-0.1,1.9-0.9,2.7-2.7,3s-3.7,0.5-5.5,0.5
		c-1.6,0-3.3-0.3-4.9-0.5c-1-0.1-1.9-0.2-2.9-0.2c-1.3,0-2.4,0.9-2.7,2.1s-0.5,2.3-0.6,3.5c-0.2,2.7-0.3,5.4-0.4,8.1
		c0,0.2,0.2,0.5,0.4,0.7c1,0.9,2.2,1.7,3.1,2.7c2.2,2.4,4.4,4.9,6.5,7.4c3.7,4.5,7,9.2,10.2,14c0.4,0.5,0.7,1.1,1.1,1.7
		c-0.1,0.1-0.2,0.1-0.3,0.2c-0.1-0.2-0.2-0.4-0.3-0.5c-4.4-5-8.8-10-13.2-14.9c-1.5-1.6-3-3.3-4.6-4.7c-2.3-2-4.6-4-7.2-5.6
		c-0.1-0.1-0.3-0.4-0.3-0.6c0-3.7,0-7.5,0.1-11.3c0.1-1.2,0.3-2.3,0.5-3.5c0.2-0.7,0.6-1.2,1.3-1.5c1.2-0.6,2.5-0.4,3.8-0.2
		c1.7,0.2,3.3,0.6,5,0.6c1.7,0.1,3.3-0.1,5-0.3c0.8-0.1,1.5-0.3,2.2-0.7c1.4-0.7,1.5-2.1,1.5-3.5c0-1.5-0.3-3-0.3-4.5
		c0-1.2,0.2-2.3,1.2-3c0.1-0.1,0.3-0.2,0.4-0.4c0.2-0.3,0.3-0.6,0.1-1c-0.3-0.5-0.6-1-1-1.5c-0.2-0.3-0.2-0.4,0-0.7
		c0.5-0.5,0.9-1.1,1.3-1.6c0.1-0.2,0.2-0.5,0.1-0.7c-0.3-0.8-0.7-1.6-0.9-2.5c-0.4-1.5-0.1-2.3,1.4-2.8c0.9-0.3,1.9-0.6,2.8-0.9
		c0.3-0.1,0.6-0.3,0.7-0.6c0.3-0.6,0.3-1.2-0.1-1.9c-0.4-1-0.8-1.8-1.3-2.7c-1.6-3-3.3-6-4.9-9.1c-0.1-0.3-0.2-0.9-0.1-1.3
		c0.1-0.4,0.4-0.8,0.6-1.2c0.2-0.6,0.6-1.2,0.6-1.8c0-0.9-0.2-1.9-0.4-2.9c-0.8-3.4-1.6-6.8-2.6-10.2C85.4,8,83.9,4.2,82.1,0.6
		C82,0.4,82,0.2,82,0C82.1,0,82.2,0,82.3,0z"/>
	<path class="st1" d="M64.6,46.1c0.1,0.2,0.1,0.4,0.2,0.6c0.4,1.5,1.2,2.7,2.1,3.9c0.7,1,1.5,2,2.2,3s0.5,1.7-0.6,2.3
		c-0.6,0.3-1.2,0.7-1.7,1.1c-0.8,0.6-0.9,1.4-0.5,2.3c0.2,0.5,0.3,1,0.2,1.5c-0.1,1.1-0.8,1.8-2.1,1.7c0.1,0.2,0.1,0.3,0.2,0.4
		c0.9,1.3,0.4,2.5-1.1,3c-0.3,0.1-0.6,0.2-0.9,0.3c-0.8,0.3-1.4,0.9-1.6,1.8c-0.1,0.5-0.2,1.1-0.2,1.6c0,1.1,0,2.2,0,3.3
		c-0.1,2.2-1.4,3.4-3.6,3.4c-2.7,0-5.1-0.8-7.6-1.7c-1.8-0.6-3.6-1.4-5.5-2.1c-0.1,0.4-0.3,0.7-0.3,1.1c-0.2,2-0.3,4-0.4,6
		c-0.1,3.5,0.2,7,0.8,10.4c0,0.4,0.1,0.8,0.5,0.9c0.6,0.2,1.2,0.3,1.8,0.5c1.4,0.5,2.8,0.8,4.1,1.4c1.8,0.9,3,2.5,4.1,4.1
		c2.6,3.8,4.6,8,6.4,12.3c0.1,0.1,0.1,0.2,0.1,0.3s-0.1,0.1-0.1,0.1c-0.2-0.4-0.5-0.8-0.8-1.2c0.1,0.5,0.1,0.8,0.2,1.2
		c-0.2-0.1-0.3-0.1-0.3-0.1c-0.1-0.2-0.4-0.4-0.5-0.6c-0.4-1-1-1.9-1.7-2.8c-1.2-1.6-2.2-3.2-3.4-4.8c-0.8-1-1.7-2.1-2.6-3.1
		c-0.8-0.9-1.6-1.9-2.6-2.6c-1.4-1-2.9-1.6-4.5-1.9c-1.3-0.3-2.6-0.7-4.1-1c-0.1-0.6,0-1.2-0.1-1.9c-0.2-1.7-0.5-3.5-0.7-5.2
		c-0.2-2.1-0.3-4.1-0.4-6.2c-0.1-1.3,0-2.7,0-4.1c0-1.6,0-3.3,0.1-4.9c0-0.3,0.1-0.7,0.2-1.1c0-0.1,0.3-0.2,0.4-0.2
		c0.9,0.3,1.7,0.7,2.6,1c2.1,0.8,4.1,1.6,6.2,2.4c1.5,0.6,3.1,1.1,4.8,0.8c0.8-0.2,1.5-0.5,2-1.1c0.6-0.9,0.7-2,0.8-3
		c0-0.9-0.1-1.8-0.1-2.7c0-1.8,0.9-3,2.7-3.5c1.4-0.4,2-1.4,1-2.9c-0.1-0.1-0.1-0.3-0.1-0.4c0.1,0,0.3-0.1,0.4-0.1
		c0.7,0,1.2-0.3,1.5-1c0.3-0.8,0.3-1.4-0.1-2.1c-0.5-1-0.5-1.4,0.3-2.1c0.7-0.6,1.5-1.1,2.2-1.6c0.7-0.4,0.8-1,0.3-1.7
		c-1-1.4-2.1-2.7-3-4.1c-0.9-1.3-1.7-2.7-1.5-4.4c0.1-0.8,0-1.7,0.1-2.5c0.1-0.9,0.2-1.7,0.3-2.6c0.2-1.3,0.4-2.7,0.5-4.1
		c0.1-0.9,0.1-1.7,0-2.6c-0.1-1-0.1-2-0.4-3c-0.4-1.8-1-3.5-1.6-5.3c-1-2.8-2.3-5.4-3.9-7.9c-1.2-2-2.6-3.7-4.3-5.3
		c-0.1-0.2-0.2-0.3-0.3-0.5l0.1-0.1C51,8.8,51.2,8.9,51.3,9c0.2,0.2,0.4,0.4,0.6,0.6c0.9,0.6,1.9,1.2,2.7,1.9
		c2.6,2.2,4.5,4.9,6.1,7.8c1.3,2.3,2.3,4.7,3.2,7.2C65.5,30.9,66,35.4,65,40c-0.3,1.3-0.5,2.7-0.8,4c1.2,0.6,2.4,0.5,3.5,0
		C66.9,45.2,65.8,46,64.6,46.1z"/>
	<path class="st2" d="M14.1,109.8c-0.2-0.6-0.5-1.1-0.7-1.7s-0.3-1.3-0.5-2c-0.5-1.9-1.4-3.7-1.7-5.7c-0.2-1.1-0.2-2.1,0-3.2
		c0-0.3,0-0.8-0.2-1c-0.5-0.5-0.5-1-0.4-1.6c0.3-1.9,0.8-3.7,1.2-5.6c0.3-1.3,1-2.3,2.5-2.5c1.2-0.1,2.5-0.4,3.8-0.5
		c1.5-0.2,3-0.3,4.5-0.4c1.4-0.1,2.8-0.3,4.1-0.9c1-0.5,1.7-1.1,1-2.5c-0.1-0.1-0.1-0.3-0.2-0.4C27.1,81,27.3,80.4,28,80
		c1.4-0.8,1.5-2.3,0.3-3.3c-0.1-0.1-0.1-0.4,0-0.5c0.2-0.3,0.5-0.5,0.8-0.8c0.7-0.6,0.7-1.2,0.2-2c-0.5-0.7-1-1.4-1.4-2.1
		c-0.1-0.2-0.1-0.6,0-0.8c0.3-0.3,0.6-0.6,0.9-0.8c0.9-0.6,1-1.4,0.3-2c-0.3-0.2-0.6-0.5-0.9-0.7c-1.3-1-2.4-2.2-3-3.7
		c-0.6-1.5-0.4-3-0.2-4.6c0.2-1.3,0.5-2.6,0.6-3.9c0.1-1.5,0-3.1-0.2-4.6c-0.2-2-1.1-3.8-2.5-5.2c-1.5-1.6-3.2-3-4.9-4.5
		c-0.4-0.4-0.7-0.7-0.7-1.3c0-0.3-0.1-0.8-0.3-1c-0.7-0.7-1.6-1.3-2.4-2c-0.9-0.7-2-0.9-3.1-1.1c-1.2-0.3-2.4-0.6-3.6-0.8
		c-1.1-0.2-2.3-0.3-3.5-0.4c-0.8,0-1.7-0.1-2.5-0.1c-0.6,0-1.2,0.1-1.8,0.1C0,33.2,0,33.2,0.5,33.2c1-0.1,2-0.1,3-0.2
		c-0.1,0-0.3-0.1-0.4-0.1c0.1-0.1,0.3-0.1,0.4-0.1c2.8,0.3,5.5,0.4,8.2,0.9c3.2,0.6,6.4,1.1,8.6,3.9c0.6,0.6,0.9,1.2,1,2
		c0.1,0.3,0.2,0.5,0.4,0.7c0.9,0.8,1.9,1.5,2.8,2.3c4.1,3.6,5.8,8.2,5.1,13.6c-0.2,1.5-0.5,2.9-0.7,4.4c-0.3,2.2,0.1,4.2,2.2,5.6
		c0.7,0.5,1.4,1.2,2,1.8c0.7,0.7,0.7,1.4,0.1,2.2c-0.3,0.4-0.7,0.8-1.1,1.1c-0.3,0.3-0.5,0.5-0.2,0.9c0.4,0.6,0.8,1.2,1.2,1.8
		c0.6,0.9,0.6,1.7-0.2,2.5c-0.3,0.2-0.6,0.5-0.7,0.6c0.3,0.5,0.7,0.9,0.8,1.4c0.2,0.9-0.1,1.6-0.9,2.2c-1,0.7-1,0.8-0.7,1.9
		c0.7,3-0.2,4.6-3.3,5.3c0,0-0.1,0-0.2,0c-2.3,0.2-4.6,0.4-6.9,0.7c-1.4,0.2-2.8,0.5-4.2,0.8c-0.6,0.1-1.1,0.7-1.3,1.4
		c-0.3,1.6-0.7,3.2-1,4.8c0,0.2,0.1,0.5,0.3,0.6c0.5,0.3,0.5,0.7,0.4,1.2c-0.2,0.8-0.4,1.7-0.4,2.5c0.1,3.4,0.3,6.8,0.5,10.2
		c0,0.1,0,0.1-0.1,0.3c-0.3-1-0.6-1.8-0.9-2.7c-0.1,0-0.1,0-0.1,0c0,0.7,0.1,1.4,0.1,2.2C14,109.8,13.9,109.8,14.1,109.8z"/>
</g>
</svg>
