<?xml version="1.0" encoding="utf-8"?>
<!-- Generator: Adobe Illustrator 19.1.0, SVG Export Plug-In . SVG Version: 6.00 Build 0)  -->
<svg version="1.1" id="Layer_1" xmlns="http://www.w3.org/2000/svg" xmlns:xlink="http://www.w3.org/1999/xlink" x="0px" y="0px"
	 viewBox="0 0 80 86.4" style="enable-background:new 0 0 80 86.4;" xml:space="preserve">
<style type="text/css">
	.st0{fill:#03A9F4;}
</style>
<g id="hospital-icon">
	<path class="st0" d="M80,43.3c0,10.1,0,20.2,0,30.4c0,7.4-5.3,12.8-12.8,12.8c-18.1,0-36.3,0-54.4,0C6.1,86.4,1,82.1,0.1,75.7
		C0,75.2,0,74.6,0,74.1C0,53.6,0,33,0,12.5c0-6.1,4.1-11.1,10-12.3C10.9,0,11.8,0,12.7,0c18.2,0,36.4,0,54.5,0
		C74.7,0,80,5.4,80,12.7C80,22.9,80,33.1,80,43.3z M78.1,43.2c0-10.3,0-20.5,0-30.8c0-5.8-4.7-10.4-10.4-10.4c-18.4,0-36.9,0-55.3,0
		c-0.6,0-1.2,0-1.8,0.2c-5.1,1-8.6,5.2-8.6,10.5c0,20.4,0,40.7,0,61.1c0,6.3,4.5,10.9,10.8,10.9c18.1,0,36.1,0,54.2,0
		c6.7,0,11.1-4.4,11.1-11.2C78.1,63.3,78.1,53.2,78.1,43.2z"/>
	<path class="st0" d="M75.8,43.2c0,10.1,0,20.2,0,30.4c0,5.2-3.5,8.6-8.6,8.6c-18.1,0-36.1,0-54.2,0c-5.4,0-8.8-3.4-8.8-8.8
		c0-20.1,0-40.2,0-60.3c0-5.5,3.4-8.9,8.9-8.9c18,0,35.9,0,53.9,0c5.4,0,8.8,3.4,8.8,8.8c0,0.3,0,0.6,0,0.9
		C75.8,23.6,75.8,33.4,75.8,43.2z M29.5,47.5c3,0,6,0,8.9,0c3.6,0,7.2,0.1,10.8,0c1.1,0,1.4,0.2,1.4,1.4c-0.1,7,0,14,0,21
		c0,1.5,0,1.5,1.5,1.5c3.3,0,6.6,0,9.9,0c1.5,0,1.5,0,1.5-1.5c0-10.2,0-20.3,0-30.5c0-7.7,0-15.5,0-23.2c0-0.9-0.2-1.3-1.2-1.3
		c-3.4,0.1-6.9,0.1-10.3,0c-1,0-1.4,0.3-1.3,1.3c0,6.3,0,12.5,0,18.8c0,0.5,0,0.9,0,1.3c-7.1,0-14,0-21,0c0-0.5,0-0.9,0-1.4
		c0-6.3,0-12.6,0-18.9c0-0.9-0.2-1.2-1.1-1.2c-3.4,0.1-6.9,0-10.3,0c-1.4,0-1.4,0-1.4,1.4c0,10.5,0,21,0,31.5c0,7.4,0,14.9,0,22.3
		c0,0.9,0.3,1.2,1.2,1.2c3.5,0,6.9-0.1,10.4,0c1.1,0,1.3-0.3,1.3-1.3c0-7,0-14.1,0-21.1C29.5,48.5,29.5,48.1,29.5,47.5z"/>
</g>
</svg>
