<?xml version="1.0" encoding="utf-8"?>
<!-- Generator: Adobe Illustrator 17.0.2, SVG Export Plug-In . SVG Version: 6.00 Build 0)  -->
<!DOCTYPE svg PUBLIC "-//W3C//DTD SVG 1.1//EN" "http://www.w3.org/Graphics/SVG/1.1/DTD/svg11.dtd">
<svg version="1.1" id="Layer_1" xmlns="http://www.w3.org/2000/svg" xmlns:xlink="http://www.w3.org/1999/xlink" x="0px" y="0px"
	 width="343.218px" height="549.967px" viewBox="0 0 343.218 549.967" enable-background="new 0 0 343.218 549.967"
	 xml:space="preserve">
<g>
	<g>
		<g>
			<path fill="#FF9327" d="M53.656,536.586c-2.052,0-3.977-1.264-4.724-3.301C20.502,455.61-7.335,365.142,1.752,283.118
				c8.041-56.389,22.087-99.732,33.372-134.56C53.298,92.477,65.302,55.429,43.925,7.063c-1.124-2.541,0.026-5.512,2.567-6.634
				c2.544-1.12,5.51,0.029,6.635,2.566c22.929,51.88,9.775,92.475-8.433,148.664C32.946,187.915,19.63,229.008,11.73,284.382
				C2.891,364.183,30.351,453.249,58.38,529.826c0.956,2.61-0.385,5.499-2.994,6.451C54.816,536.488,54.231,536.586,53.656,536.586z
				"/>
		</g>
	</g>
	<g>
		<g>
			<path fill="#EB00B7" d="M294.792,549.967c-0.534,0-1.077-0.085-1.612-0.266c-2.632-0.891-4.044-3.746-3.152-6.375
				c26.138-77.25,51.399-166.968,40.578-246.674c-9.235-55.01-23.558-95.766-36.193-131.72
				c-19.582-55.724-33.732-95.985-12.083-148.408c1.06-2.571,4.001-3.796,6.568-2.731c2.568,1.061,3.79,4.001,2.729,6.569
				c-20.182,48.877-7.269,85.617,12.277,141.234c12.138,34.539,27.245,77.528,36.647,133.547
				c11.125,81.926-14.48,173.051-40.994,251.405C298.847,548.648,296.889,549.967,294.792,549.967z"/>
		</g>
	</g>
	<g>
		<path fill="#9E5BFF" d="M180.772,533.465c-1.852,0-3.354-1.5-3.354-3.354c0-8.806-2.213-126.182-2.235-127.368l-0.027-1.483
			l23.695-22.328v-62.107h60.202v-48.303h-60.202v-60.201h-48.306v60.201H90.344v48.303h60.201v63.555
			c0,1.854-1.502,3.354-3.353,3.354c-1.853,0-3.354-1.5-3.354-3.354v-56.848H83.637v-61.718h60.202v-60.2h61.719v60.2h60.203v61.718
			h-60.203v58.295l-23.639,22.275c0.268,14.324,2.207,117.577,2.207,126.009C184.126,531.965,182.625,533.465,180.772,533.465z"/>
	</g>
</g>
</svg>
