<?xml version="1.0" encoding="utf-8"?>
<!-- Generator: Adobe Illustrator 18.0.0, SVG Export Plug-In . SVG Version: 6.00 Build 0)  -->
<!DOCTYPE svg PUBLIC "-//W3C//DTD SVG 1.1//EN" "http://www.w3.org/Graphics/SVG/1.1/DTD/svg11.dtd">
<svg version="1.1" id="Layer_1" xmlns="http://www.w3.org/2000/svg" xmlns:xlink="http://www.w3.org/1999/xlink" x="0px" y="0px"
	 viewBox="0 0 104.7 104.9" enable-background="new 0 0 104.7 104.9" xml:space="preserve">
<g>
	<defs>
		<rect id="SVGID_1_" x="0" y="0" width="104.7" height="104.9"/>
	</defs>
	<clipPath id="SVGID_2_">
		<use xlink:href="#SVGID_1_"  overflow="visible"/>
	</clipPath>
	<g clip-path="url(#SVGID_2_)">
		<g>
			<path fill="#81C683" d="M83.7,33.2c-0.6-2.1-1.8-3.9-3.7-5.1c-3.9-2.3-8.4-1.1-9.7,3.6c-0.2,0.7-0.4,1.3-0.6,2
				c-0.7,1.8-1.6,2.4-3.5,2.3c-0.9,0-1.8-0.1-2.7-0.2c-5.9-0.5-11,1.5-15,5.7c-6.1,6.5-10.3,14-12.4,22.7c-0.8,3.4,0.4,7.2,4,8.9
				c0.6,0.3,1.1,0.5,1.9,0.8h-0.1c0.7,0.3,1.4,0.8,2.1,1.2c1.5,0.4,3.1,0.7,4.8,0.7c4.2,0,8.6-1.4,12.8-1c-0.1-0.1-0.2-0.3-0.4-0.4
				c2-0.2,3.8-0.4,5.6-0.6c-2.4,2.1-3.5,4.8-4,7.7c-0.4,1.9-0.6,3.9-0.8,5.8c-0.2,4.2-0.9,8.2-2.7,12c-0.2,0.5-0.4,1-0.5,1.5
				c-0.4,1.6,0.5,2.7,2.1,2.9c0.6,0.1,1.2,0.1,1.9,0c2.2-0.3,4.3,0.1,6.5,0.6c1.6,0.3,3.2,0.4,4.8,0.4c0.7,0,1.4-0.3,2-0.7
				c0.6-0.4,0.6-0.9-0.1-1.3c-0.6-0.3-1.3-0.5-1.9-0.8c-2.1-0.7-4-1.6-5.7-3.1c-1.3-1.1-2-2.4-1.6-4.1c0.3-1.5,0.6-3.2,1.3-4.6
				c2.3-4.5,4.7-9,7.1-13.5c0.7-1.4,1.4-2.9,1.8-4.4c0.6-2.1,0.3-4.5-2.3-5.9c0,0,0-0.1,0-0.4c1.2,0.6,2.4,1.1,3.5,1.7
				c0.2,0.1,0.4,0.5,0.4,0.7c-0.2,1.1,0.3,2,0.8,2.8c0.7,1.2,0.6,1.9-0.6,2.6c-0.3,0.2-0.7,0.5-1,0.8c-0.2,0.2-0.2,0.6-0.3,0.9
				c0.3,0,0.6,0.2,0.9,0.1c2.4-0.5,4-2.5,4-4.9c0-0.8-0.1-1.6-0.1-2.3c0-1.8-0.9-3-2.3-4c-3.4-2.2-6.8-4.5-10.2-6.6
				c-1.1-0.7-1.8-1.6-1.9-2.9c-0.2-2-0.4-3.9-0.7-5.9c0-0.3,0-0.5,0.1-0.8c0.4-1,0.7-2.1,1.2-3c0.5-0.8,1.2-1.6,2-2.1
				c1-0.7,2-0.5,2.9,0.3c0.6,0.6,1.2,1.2,1.9,1.7c0.7,0.6,1.3,0.4,1.9-0.4c0.2-0.3,0.5-0.4,0.8-0.7c0.5-0.4,1.1-0.7,1.3-1.2
				c0.3-0.6,0.5-0.7,1-0.5c1.2,0.4,1.4,0.2,1.3-1.1c-0.1-1-0.1-1.9,0.9-2.6c0.4-0.2,0.4-0.9,0.6-1.4c0.1-0.3,0.2-0.7,0.3-1
				C84,35.5,84.1,34.4,83.7,33.2z M52.3,62.3c2.2-2.9,5.4-4.6,8.6-6.6c0.4,1.6,0.8,2.9,1,4.3c0.3,1.5,0.9,2.6,2.4,3.2
				c0.1,0.1,0.2,0.2,0.3,0.2C60.5,63,56.5,62.7,52.3,62.3z"/>
		</g>
		<path fill="#81C683" d="M20,104.4h30.9l2.7-16.1c0,0,8.6-1.8,8.6-9.8c0-1.9,0-4,0-4H34.5c0,0-2.6-0.8-2.6-3.2c0-1.9,0-14.4,0-14.4
			c0-1.7-1.1-3-2.5-3h-7c-1.4,0-2.5,1.4-2.5,3V104.4z"/>
		<g>
			<path fill="#81C683" d="M82.5,61.3c0,0.5,0.5,1,1.1,0.9v0c0,0,0,0,0,0c0.3,0,1.7,0.1,2.9,0.8c1.2,0.7,2.2,1.9,2.3,4.7
				c0,0.5,0.4,1,1,1c0,0,0,0,0,0c0.5,0,1-0.5,1-1c0-3.4-1.6-5.4-3.3-6.4c-1.7-1-3.4-1-3.9-1c-0.1,0-0.2,0-0.2,0
				C82.9,60.3,82.5,60.8,82.5,61.3z"/>
			<path fill="#81C683" d="M90.1,57.1c-2.5-1.4-5-1.4-5.1-1.4c-0.6,0-1,0.4-1,1c0,0.6,0.4,1,1,1h0c0,0,0.5,0,1.3,0.1
				c2.4,0.5,6.9,1.9,6.9,8.8c0,0.2,0,0.3,0,0.5c0,0.6,0.4,1,1,1c0,0,0,0,0,0c0.5,0,1-0.4,1-1c0-0.2,0-0.4,0-0.6
				C95.3,61.4,92.7,58.4,90.1,57.1z"/>
		</g>
		<g>
			<path fill="#81C683" d="M80.7,20.6c-2.5,0-4.2,1.3-4.3,1.4c-0.4,0.3-0.5,0.9-0.2,1.4c0.3,0.4,0.9,0.5,1.4,0.2c0,0,0.1,0,0.2-0.1
				c0.5-0.3,1.6-0.8,2.9-0.8c1.3,0,2.8,0.5,4.3,2.7c0.2,0.3,0.5,0.5,0.8,0.5c0.2,0,0.4-0.1,0.5-0.2c0.5-0.3,0.6-0.9,0.3-1.4
				C84.9,21.5,82.6,20.6,80.7,20.6z"/>
			<path fill="#81C683" d="M89.2,23c0.2,0,0.4,0,0.5-0.1c0.5-0.3,0.6-0.9,0.3-1.4c-2.6-4.4-6.2-5.8-9-5.8c-3.3,0-5.7,1.6-5.8,1.6
				c-0.5,0.3-0.6,0.9-0.3,1.4c0.3,0.5,0.9,0.6,1.4,0.3v0c0,0,0.1-0.1,0.3-0.2c0.7-0.4,2.4-1.1,4.4-1.1c2.3,0,4.9,0.9,7.3,4.8
				C88.5,22.8,88.9,23,89.2,23z"/>
		</g>
		<g>
			<path fill="#81C683" d="M16,31.3c0.2-0.1,0.4,0,0.6,0.3c0.1,0.2,0.2,0.4,0.3,0.7c0.1,0.3,0.2,0.5,0.2,0.7
				c0.1,0.2,0.3,0.3,0.5,0.4c0.2,0,0.4,0,0.5-0.1c0.2-0.1,0.3-0.3,0.5-0.6c0.2-0.3,0.2-0.6,0.2-0.8c-0.1-0.3-0.2-0.6-0.5-1.1
				c-0.3-0.4-0.7-0.7-1.2-0.9c-0.5-0.1-1.1,0-1.7,0.3c-0.9,0.6-1.7,1.5-2.2,2.9c-0.5,1.3-0.8,2.8-0.8,4.4c0,1.6,0.4,2.9,0.9,3.9
				c0.6,1,1.3,1.5,2.3,1.6c0.9,0.1,1.8-0.1,2.6-0.5c0.9-0.5,1.6-1.3,2.2-2.5c0.6-1.1,0.8-1.9,0.5-2.3c-0.2-0.3-0.4-0.4-0.8-0.2
				c-0.2,0.1-0.3,0.4-0.6,1c-0.2,0.5-0.5,1-0.9,1.5c-0.4,0.5-0.7,0.8-1.1,1c-0.5,0.3-1.1,0.4-1.5,0.2c-0.5-0.2-0.9-0.5-1.2-1
				c-0.4-0.7-0.7-1.7-0.7-3c0-1.3,0.1-2.5,0.5-3.6C14.9,32.4,15.4,31.7,16,31.3z"/>
			<path fill="#81C683" d="M23.7,37.7c0.7,0.2,1.3,0.1,1.9-0.2c0.8-0.5,1.4-1.3,1.8-2.4c0.4-1.1,0.4-2.3,0.1-3.4l0,0
				c-0.1-0.3-0.3-0.7-0.5-1c-0.4-0.7-1-1.2-1.8-1.5c-0.8-0.3-1.5-0.2-2.2,0.3c-1.1,0.6-1.6,1.7-1.7,3.2c-0.1,1.5,0.2,2.8,0.8,3.9
				C22.5,37,23.1,37.5,23.7,37.7z M23.1,31.5L23.1,31.5c0.1-0.4,0.3-0.6,0.7-0.8c0.3-0.2,0.7-0.2,1,0c0.4,0.2,0.7,0.5,0.9,0.9
				c0.5,0.8,0.6,1.6,0.4,2.6c-0.2,1-0.6,1.6-1.1,1.9c-0.2,0.1-0.4,0.1-0.7,0c-0.3-0.2-0.5-0.4-0.7-0.7c-0.3-0.6-0.5-1.2-0.6-2
				C22.9,32.5,22.9,32,23.1,31.5z"/>
			<path fill="#81C683" d="M41.6,27.3c0.2-0.1,0.4-0.4,0.6-0.7c0.1-0.3,0.1-0.6,0-0.8c-0.1-0.2-0.3-0.3-0.6-0.3
				c-0.3,0-0.7-0.1-1-0.4c-0.3-0.3-0.8-0.8-1.3-1.6c-0.7-0.9-1.2-1.5-1.7-1.8c-0.4-0.3-0.9-0.3-1.4,0c-0.4,0.2-0.7,0.6-0.8,1.2
				c-0.2,0.5-0.2,1.5,0,2.8c0.1,1.2,0.1,1.8,0.1,1.9c-0.1,0.1-0.4-0.4-1-1.4c-0.6-1.1-1.2-1.7-1.6-1.8c-0.4-0.2-0.8-0.1-1.2,0.1
				c-1,0.6-1.3,2.5-0.9,5.9c-0.2-0.3-0.4-0.8-0.6-1.4c-0.4-1.2-0.7-1.8-0.8-2.1c-0.5-0.8-1-1-1.6-0.6c-0.2,0.1-0.3,0.3-0.3,0.4
				c0,0.2,0,0.3,0.1,0.5c0.4,0.7,0.8,1.4,1.1,2.2c0.4,1,1,2.1,1.8,3.4c0.5,0.8,1,1,1.5,0.7c0.4-0.3,0.5-0.6,0.3-1.1
				c-0.2-1-0.2-2.3-0.2-3.7c0-1.4,0.2-2.2,0.3-2.3c0.1-0.1,0.6,0.5,1.3,1.6c0.8,1.3,1.4,2,1.8,2c0.4,0.1,0.7,0,0.9-0.1
				c0.3-0.2,0.5-0.5,0.6-1c0.1-0.5,0.1-1.2,0-2.3c-0.1-1.2-0.2-1.9-0.2-2.3c0-0.4,0-0.6,0.1-0.7c0.1-0.1,0.2,0,0.4,0.2
				c0.2,0.2,0.5,0.5,0.9,1.1c0.8,1.2,1.5,2,2,2.3C40.7,27.6,41.2,27.6,41.6,27.3z"/>
			<path fill="#81C683" d="M43.8,25.6c0.7,0.2,1.4,0.1,2.1-0.3c0.9-0.6,1.6-1.4,1.9-2.4c0.4-1,0.4-1.8,0.2-2.2
				c-0.2-0.3-0.4-0.3-0.6-0.2c-0.2,0.1-0.3,0.3-0.3,0.5c-0.3,1.4-0.9,2.3-1.7,2.8C45.1,24,44.8,24,44.5,24c-0.3-0.1-0.5-0.2-0.6-0.4
				c-0.1-0.1-0.1-0.2,0.1-0.3c0.9-0.9,1.6-1.9,1.9-3c0.3-1.1,0.2-2-0.2-2.7c-0.2-0.4-0.6-0.7-1.1-0.8c-0.5-0.1-0.9,0-1.4,0.2
				c-0.9,0.6-1.5,1.6-1.7,3.1c-0.2,1.5,0,2.9,0.7,4.1C42.6,24.9,43.2,25.4,43.8,25.6z M43,19.8c0.1-0.8,0.4-1.3,0.7-1.5
				c0.1-0.1,0.2-0.1,0.4,0c0.1,0,0.2,0.1,0.3,0.3c0.2,0.4,0.2,0.9-0.1,1.6c-0.2,0.7-0.7,1.4-1.2,1.9C42.9,21.4,42.9,20.6,43,19.8z"
				/>
			<path fill="#81C683" d="M59.6,12.3c-0.1-0.3-0.3-0.7-0.5-1c-0.4-0.7-1-1.2-1.8-1.5c-0.8-0.3-1.5-0.2-2.2,0.2
				c-1.1,0.6-1.6,1.7-1.7,3.2c-0.1,1.5,0.2,2.8,0.8,3.9c0.4,0.7,0.9,1.1,1.6,1.3c0.7,0.2,1.3,0.1,1.9-0.2c0.8-0.5,1.4-1.3,1.8-2.4
				C59.9,14.6,59.9,13.5,59.6,12.3L59.6,12.3z M58.1,14.9c-0.2,1-0.5,1.6-1.1,1.9c-0.2,0.1-0.4,0.1-0.7,0c-0.3-0.2-0.5-0.4-0.7-0.7
				c-0.3-0.6-0.5-1.2-0.6-2c-0.1-0.7,0-1.3,0.1-1.8l0,0c0.1-0.4,0.3-0.6,0.6-0.8c0.3-0.2,0.7-0.2,1,0c0.3,0.2,0.7,0.5,0.9,0.9
				C58.2,13.1,58.3,14,58.1,14.9z"/>
			<path fill="#81C683" d="M63.6,5.9c-1.1,0.7-1.5,2.3-1.1,5c-0.4-1.3-0.8-2.1-1-2.5c-0.3-0.5-0.6-0.8-0.8-0.9c-0.2,0-0.4,0-0.7,0.2
				c-0.2,0.1-0.3,0.3-0.3,0.7c0,0.3,0,0.6,0.1,0.8c0.8,1.3,1.4,2.5,1.8,3.5c0.3,0.8,0.5,1.3,0.6,1.5c0.4,0.6,0.8,0.7,1.5,0.3
				c0.1-0.1,0.2-0.2,0.2-0.3c0-0.2,0-0.3,0-0.5c-0.1-0.6-0.2-1.7-0.1-3.3c0.1-1.6,0.3-2.4,0.6-2.6c0.3-0.2,0.8,0.2,1.6,1.2
				c0.7,1,1.3,1.6,1.7,1.9l0,0c0.5,0.3,0.9,0.3,1.4,0c0.4-0.3,0.7-0.6,0.8-1c0.1-0.4,0.1-0.7,0-0.9c-0.1-0.2-0.3-0.3-0.5-0.2
				c-0.1,0.1-0.2,0.1-0.3,0.3c-0.1,0.1-0.2,0.2-0.3,0.3c-0.2,0.1-0.9-0.5-2-2C65.6,5.7,64.6,5.3,63.6,5.9z"/>
			<path fill="#81C683" d="M70.6,8.6c0.3,0.4,0.5,0.6,0.6,0.7c0.2,0,0.4,0,0.6-0.2C72,9,72.2,8.8,72.3,8.5c0.1-0.3,0.2-0.6,0.2-0.8
				c0-0.2-0.1-0.4-0.2-0.6c-0.1-0.1-0.2-0.2-0.4-0.3c-0.2,0-0.4,0-0.7,0.2c-0.3,0.2-0.6,0.4-0.7,0.6c-0.1,0.2-0.2,0.3-0.1,0.5
				C70.3,8.2,70.4,8.4,70.6,8.6z"/>
			<path fill="#81C683" d="M73.8,6.7c0.3,0.4,0.5,0.6,0.6,0.7c0.2,0,0.4,0,0.6-0.2c0.1-0.1,0.3-0.3,0.4-0.6c0.1-0.3,0.2-0.6,0.2-0.8
				c0-0.2-0.1-0.4-0.2-0.6c-0.1-0.1-0.2-0.2-0.4-0.3c-0.2,0-0.4,0-0.7,0.2c-0.3,0.2-0.6,0.4-0.7,0.6c-0.1,0.2-0.2,0.3-0.1,0.5
				C73.6,6.3,73.7,6.4,73.8,6.7z"/>
			<path fill="#81C683" d="M77,4.7c0.3,0.4,0.5,0.6,0.6,0.7c0.2,0,0.4,0,0.6-0.2c0.1-0.1,0.3-0.3,0.4-0.6c0.1-0.3,0.2-0.6,0.2-0.8
				c0-0.2-0.1-0.4-0.2-0.6C78.6,3.1,78.5,3,78.3,3c-0.2,0-0.4,0-0.7,0.2c-0.3,0.2-0.6,0.4-0.7,0.6c-0.1,0.2-0.2,0.3-0.1,0.5
				C76.8,4.3,76.9,4.5,77,4.7z"/>
		</g>
	</g>
</g>
</svg>
