<?xml version="1.0" encoding="utf-8"?>
<!-- Generator: Adobe Illustrator 19.2.1, SVG Export Plug-In . SVG Version: 6.00 Build 0)  -->
<svg version="1.1" id="Layer_1" xmlns="http://www.w3.org/2000/svg" xmlns:xlink="http://www.w3.org/1999/xlink" x="0px" y="0px"
	 viewBox="0 0 144.1 149.3" style="enable-background:new 0 0 144.1 149.3;" xml:space="preserve">
<style type="text/css">
	.st0{fill:#4CAF50;}
</style>
<g id="icon-allergy-lady">
	<path class="st0" d="M118.7,136c-1.5,0.9-2.3,3.1-3.2,4.5c-0.8,1.2-1.8,2.3-2.6,3.6c-1.1,1.7-1.6,3.4-1.9,5.3h33.1
		c-0.1-2.5-0.2-5.1-0.3-7.6c0-1.6-0.1-3.3-0.1-4.9c-0.2-5.3-0.5-10.5-1-15.8c-0.4-4.5-1.8-8.8-4.1-12.7c-1.1-1.9-2.4-3.9-4.4-5
		c-2-1.2-4-2.3-6.1-3.1c-2.3-0.8-4-2.3-5.5-4.1c-1.7-2-3.9-3.6-4.9-6.3c-1-2.8-2.1-5.7-3.3-8.5c-0.9-2.3-1.3-4.6-1.6-7
		c-0.3-2.9-0.6-5.8-1.2-8.6c-0.7-3.7-1.8-7.4-2.4-11.1c-0.8-4.8-1.3-9.6-2.7-14.3c-0.6-2.1-1.4-4.2-1.9-6.3
		c-1.2-5.2-2.3-10.5-4.9-15.4C98.7,16.9,98,15,97,13.4c-1.4-2.3-2.9-4.5-4.6-6.5c-3.9-4.7-9.3-6.2-15.1-6.6
		c-1.8-0.2-3.7-0.2-5.5-0.2c-1.8-0.1-3.5-0.2-5.2,0c-3,0.4-5.9,1-8.9,1.4C53.6,2.1,50,3.8,46.8,6.4c-4.6,3.7-9.1,7.6-12.1,12.8
		c-0.6,1-1.1,2-1.4,3.1c-0.5,1.6-0.6,3.2-1.1,4.8C31.5,29.4,32,31.7,32,34c0,2.1,0.4,4.3,0.2,6.4c-0.5,4.6-1.3,9.2-1.9,13.8
		c-0.5,3.9-1.1,7.7-1.3,11.6c-0.1,3.3,0.1,6.7,0.5,10.1c0.3,2.2,0.9,4.4,1.7,6.5c0.9,2.7,2.2,5.3,3.3,8c0.5,1.2-0.7,3.4-2,3.7
		c-2.1,0.5-4.2,1.2-6.3,1.7c-4.1,1-8.2,1.9-12.3,2.9c-4.1,0.9-7.2,3.3-9.2,6.9c-1.2,2.3-2.1,4.8-3.1,7.2c-0.4,0.8-0.6,1.7-0.7,2.6
		c-0.5,6.5-1.3,13-0.7,19.6c0.4,4.7,0.2,9.5,0.1,14.3h28.2c0-0.1,0-0.2,0-0.3c-0.1-0.6-0.3-1.1-0.4-1.7c0-0.1,0-0.3,0-0.4
		c-0.7-2.4-2-4.5-4.5-6c-1.8-1-0.2-3.8,1.6-2.8c4.3,2.5,6,6.5,6.6,11.1h8.8c0.6-1.2,1-2.5,1.3-3.9c0.8-3.7,2.5-6.9,4.5-10.1
		c1.2-1.9,2.1-3.9,3-6c0.4-0.8,0.5-1.8,0.5-2.7c0-5.9,0-11.7-0.1-17.6c0-1.8-0.7-3.5-1-5.3c-0.4-2.2-0.3-4.2,1-6.3s2.1-4.4,3-6.7
		c0.8-1.8,1.4-3.6,1.9-5.5c0.2-0.9,0.6-1.4,1.8-1c-0.1-0.2-0.1-0.3-0.2-0.4c-0.3-0.3-0.5-0.5-0.8-0.7c1.2-3.2,3.1-5.9,6.3-7.7
		c-0.8,2.1-1.5,4.3-2.3,6.3c-1.6,4-3.5,7.9-5,11.9c-0.8,2.1-2,3.9-3.4,5.6c-1.7,2.1-1.5,4.4-1.2,6.7c0,0.1,0.1,0.3,0.2,0.4
		c0,0,0.1,0.1,0.4,0.2c0-0.5,0.2-1,0.1-1.4c-0.6-2.4,0-4.5,1.7-6.3c1.6-1.7,2.4-3.7,3.1-5.8c0.7-1.9,1.4-3.8,2.2-5.7
		c0.9-2.1,0.4-1.8,2.8-1.9c-0.5-0.3-1-0.6-1.6-0.9c3.1-4.6,3.4-10.3,5.8-15.2c1.6,0.6,1.7,0.6,1.5,2.3c-0.3,2.7-0.5,5.4-1.2,8
		c-0.5,2.1-1.7,4.1-2.5,6.2c-0.5,1.3-0.8,2.6-1.3,3.8c-0.5,1.5-1.1,2.9-1.7,4.3c-1,2.5-1.9,4.9-3,7.4c-0.5,1-1,2-1.6,2.9
		c-0.6,1.1-0.9,2.3-0.5,3.6c2.7-6.2,5.4-12.4,8.1-18.6H64c-0.4-0.3-0.6-0.5-0.8-0.6c-0.7-0.2-0.7-0.6-0.5-1.1
		c0.7-1.4,1.1-2.9,1.8-4.3c1.2-2.3,1.6-4.8,2-7.3c0.1-1,0.3-1.8,1.5-2.1c1.1-0.2,1.4-1.2,1.4-2.2c0-0.8-0.2-1.6-0.2-2.5
		c0-0.3,0.1-0.5,0.2-0.8c0.3,0.1,0.7,0.1,0.8,0.3c0.4,0.6,1,1.3,1,2c0.1,3,0.3,6,0.1,9c-0.1,1.9-1.3,3.7-1.4,5.6
		c-0.2,3.6-2.5,6.3-3.8,9.5c-1,2.6-2.4,5.1-3.3,7.8c-0.5,1.6-0.3,3.3-0.4,5c0,0.1,0.2,0.3,0.3,0.4H63c0.1-0.7,0.4-1.4,0.7-2.1
		c-0.3-3.1,0.8-5.7,2.2-8.3c0.3-0.7,0.7-0.7,1.3-0.5c0.4,0.1,0.9,0.3,1.3,0.4c0.1-0.2,0.1-0.3,0.2-0.4c-0.7-0.4-1.3-0.8-2-1.2
		c0.8-1.8,1.6-3.7,2.6-5.5c0.9-1.5,1.7-3,1.5-4.8c1.1-0.5,2.1-1,3.1-1.5c-0.2,1-0.4,2.2-0.5,3.3c-0.2,2.4-0.2,4.9-0.3,7.4
		c-0.1,0.7-0.3,1.4-0.5,2.1c-0.2,0.8-0.4,1.6-0.6,2.4c-0.5,1.6-1,3.2-1.5,4.9c-0.2,0.9-0.4,1.8-0.4,2.7c-0.1,2.9,0.1,5.8-0.1,8.7
		c-0.1,2.6-0.6,5.1-0.9,7.7c-0.4,3.2-0.9,6.4-1.1,9.6c-0.2,3-1,5.7-3.3,7.8c-0.5,0.5-0.9,0.8-1.6,0.4c-0.7-0.4-1.4-0.6-2.1-0.7
		c-0.3,0-0.7,0.3-1,0.5c0.1,0.3,0.2,0.7,0.5,0.8c0.8,0.4,2.1,0.5,2.3,1.1c0.2,0.6-0.6,1.6-0.9,2.4c-0.5,1.4-0.9,2.8-1.4,4.2h13
		c-0.1-0.3-0.2-0.6-0.4-0.9c-0.9-1.9-1.7-3.8-2.7-6.1c1,0.3,1.7,0.6,2.4,0.7c0.4,0.1,0.9,0,1.3,0c-0.2-0.4-0.4-0.9-0.7-1.1
		c-0.9-0.5-1.9-1.3-3.3-0.5c-0.5-2.3-1.8-4.2-1.5-6.8c1-7,1.5-14,3.5-20.8c0.8-2.8,1.7-5.5,2-8.3c0.3-2.7,0-5.5-0.3-8.2
		c-0.4-3-0.5-5.9-0.1-8.9c0.2-1.6,0.4-3.3,0.9-4.8c0.6-1.5,1.4-3,2.4-4.3c0.8-1.2,1.4-1,2,0.4c0.7,1.4-0.2,2.7-0.4,3.9
		c0,0.3-0.1,0.5-0.2,0.8c-0.7-1.5-0.6-2.6,0.4-3.9c0.1-0.2,0.1-0.5,0.2-0.8c-1.4,0.7-2,2.1-1.9,4.2c0.2,0.7,0.3,1.4,0.6,2.1
		c0.2,0.6,0.5,1.1,0.6,1.7c0.4,2.1,0.8,4.2,1.1,6.3c0.2,1.5,0.8,2.1-1.6,2.2c-0.2,0-0.3,0.1-0.4,0.5h2.2c0.3,1.9,0.5,3.9,0.8,5.8
		c0.3,1.9,1,3.7,2,5.3c0.2,0,0.3-0.1,0.4-0.1c-0.1-0.5-0.1-1-0.3-1.4c-1.4-2.5-1.5-5.3-1.9-8.1c-0.5-3.5-1-6.9-1.5-10.4
		c0-0.3,0-0.5,0.2-0.8c0.9,2.2,1.6,4.5,2.5,6.7c0.9,2.3,1.9,4.5,2.9,6.7s2.1,4.3,3.1,6.5c0.2-0.1,0.3-0.1,0.5-0.2
		c-0.2-0.5-0.3-1.2-0.6-1.7c-2.1-4.3-4.3-8.6-5.9-13.2c-0.8-2.3-1.8-4.6-2.5-6.9c-0.1-0.6,0.2-1.3,0.3-2c0.1-0.6,0.3-1.3,0.3-2
		c0-1.8-0.8-2.7-2.7-2.9c0-1.5-0.1-3,0-4.5c0.1-1.8,0.5-3.3-0.8-5c-0.5-0.6,0.1-2.2,0.5-3.3c0.2-0.4,1.1-0.6,1.6-0.8
		c-0.2,1.1-0.7,2.1-0.6,3.1c0,0.8,0.6,1.9,1.3,2.3c1.1,0.6,1.1,1.6,1.3,2.5c0.5,3.2,0.8,6.3,1.6,9.4c0.7,2.7,1.9,5.3,2.8,8
		c0.5,1.3,0.8,2.7,1.3,4c0.6,1.5,1.2,3.1,2.1,4.6c1.2,2.1,2.6,4.2,2.2,6.8c-0.2,1.3-0.6,2.6-0.9,3.8c-1.6,6.2-3,12.4-3.5,18.8
		c-0.1,1.4-0.4,2.7-0.6,4.1c-0.4,2.8,0.1,5.2,2.5,7.1c0.5,0.3,0.8,0.9,1.1,1.5c0.1,0.1,0.1,0.2,0.2,0.3c0,0.1,0.1,0.1,0.1,0.2
		c0,0.1,0.1,0.1,0.1,0.2c0,0,0,0,0,0l0,0c0,0,0,0.1,0,0.1c0.1,0.1,0.1,0.2,0.2,0.3c0,0,0,0,0,0.1c0.5,0.6,1,1.2,1.4,1.7
		c1.3,1.8,2.7,3.8,3.7,5.9h13.3c0.3-2.3,1-4.5,2.3-6.6c1.2-1.9,2.6-3.6,3.8-5.5c0.8-1.3,1.6-2.6,2.9-3.4c0-0.1,0-0.1,0-0.2
		c0,0,0.1,0,0.2,0C118.9,133.1,120,135.2,118.7,136z M73.4,105c-0.4,2.4-1.4,4.7-2.1,7.1c-1.3-4.7,0.3-8.9,1.7-13.2h0.4
		C73.4,100.9,73.7,103,73.4,105z M99.1,45.8c0.3-0.5,1.2-0.6,1.9-0.8c0.2-0.1,0.4,0,0.6,0.1c0.8,0.6,1.2,3.7,0.4,4.8
		c-0.1-0.7-0.1-1.2-0.2-1.7c-0.1-0.4-0.3-1-0.6-1.1c-0.4-0.1-0.9,0.2-1.3,0.4c-0.2,0.1-0.4,0.3-0.9,0.7C99,47.2,98.8,46.3,99.1,45.8
		z M100.6,48.7c1.1,2.9-0.8,9.9-3,10.8C97.5,55.5,97,51.5,100.6,48.7z M100.7,57.6c0.2,0.2,0.4,0.4,0.4,0.5
		c-0.4,1.1-0.5,2.3-1.2,3.1c-1.1,1.4-1.6,1.2-2.4-0.6C99.6,60.8,99.8,58.9,100.7,57.6z M97.7,68.2v-5h2.2
		C100.4,66.3,99.7,68.4,97.7,68.2z M38,56.8c0-0.3,0.2-0.6,0.3-1.1c1.7,2.9,1.5,6.2,2.6,9.1c-1.2,0.5-2.2-0.1-2.7-1.7
		C37.6,61,37.8,58.9,38,56.8z M41.2,66.3c0.4,1.7,0.8,3.6,1.2,5.5c-2.1,0.4-3.9-2.5-3.6-5.5H41.2z M35.4,49c0.5-0.7,1.1-0.9,1.5,0
		c0.4,0.8,0.6,1.7,0.8,2.5c-0.2,0-0.3,0.1-0.4,0.1c-0.7-0.5-1.4-1-2.3-1.6C35.1,49.7,35.2,49.3,35.4,49z M35,51.8
		c1.4,0.2,2.6,1.9,2.3,2.9c-0.1,0.6-0.3,1.1-0.4,1.7c-0.1,0.5-0.1,1.1-0.3,1.6C35.8,56,34.5,54.1,35,51.8z M48.4,124.9
		c-0.4-0.6-1-1-1.6-1.3c-8.6-3.5-11.9-13.1-15.7-21.3c-0.6-2.1-1.3-4.2-1.9-6.5c1.1-0.1,2.2-0.3,3.2-0.3c0.3,0,0.7,0.7,0.9,1.1
		c1.1,2.8,1.8,5.7,3.1,8.3c1.9,3.7,4.1,7.3,6.5,10.7c1.2,1.8,3.2,3.1,4.7,4.7c0.5,0.5,0.8,1.2,0.9,1.9
		C48.5,123,48.4,123.8,48.4,124.9z M51.6,91.3c-0.9,2.1-1.6,4.3-2.7,6.2c-1.4,2.5-1.6,5-1,7.6c0.5,2.1,0.8,4.2,0.7,6.3
		c-0.1,2.1-0.1,4.2-0.1,6.3c0,0.4,0,0.8-0.1,1.6c-2-2.2-4-3.9-5.4-6c-2.1-3.1-3.9-6.5-5.6-9.9c-1.1-2.4-1.7-5-2.6-7.5
		c-0.3-0.8,0.2-1,0.8-1c1.6-0.1,3.2-0.1,4.8-0.2c1.5,0,2.9-0.1,4.4-0.3c0.5-0.1,0.9-0.6,1.3-0.9c1.9-1.3,3.2-2.9,2.9-5.4
		c-0.1-0.2,0.1-0.4,0.2-0.9c0.9,1.2,1.6,2.1,2.4,3.1C51.7,90.5,51.7,91,51.6,91.3z M60.5,75.3c-0.9-2.2-1.7-4.3-2.6-6.4
		c1.9-0.2,3.8-0.4,6-0.7C63.5,71.2,62.6,73.6,60.5,75.3z M65.7,68.9c-0.8-0.2-0.9-0.7-0.7-1.5s0.2-1.7,0.3-2.7c2,0.9,2.4,1.5,2,3.1
		C67.1,68.6,66.6,69.1,65.7,68.9z M67.1,73.1c-0.5-2.9-0.3-3.8,1.2-4.5C69.4,71,68.9,72.9,67.1,73.1z M68.2,67.8
		c0.4-2-0.9-2.9-2.4-3.9c2.7-0.2,3.8,0.7,4.1,3.2C69.4,67.3,68.9,67.5,68.2,67.8z M70.1,65.1c1.9-1.2,3.8-1.1,5.6-1
		c0.2,0,0.5,0.6,0.5,0.9c-0.1,1.1-0.3,2.2-0.4,3c-1.4,0.8-2.5,1.4-3.7,2.1C71.5,68.6,70.8,66.9,70.1,65.1z M73.4,82.9
		c0,0.8-1.4,1.6-2.6,1.5c0.3-1.1,0.6-2.2,0.9-3.2C72.9,81.2,73.5,81.9,73.4,82.9z M73.4,80.1c0.3,0,0.6,0.1,0.8,0.2
		c0.3,0.2,0.3,0.7,0.3,1.1C74.2,81,73.8,80.5,73.4,80.1z M76.9,70.4c-0.1,1.1-0.3,2.3-0.3,3.4c0,1.3,0.2,2.6,0,3.8
		c-0.1,0.9-0.6,1.7-0.8,2.3c-1.3-0.4-2.3-0.6-3.4-1.2c0-2-0.1-4.3,0-6.6c0.1-1.7,1.5-2.9,3.1-3C76.5,69.1,77,69.5,76.9,70.4z
		 M79.9,69.1c-1.7-1.4-1.7-2.8,0-4.5V69.1z M78.8,63.6c-1.4,0-2.4-0.2-3.1-1.6c-0.7-1.3-1.6-2.4-2.3-3.6c-1.1-1.9-0.8-4.1-0.6-6.2
		c0.1-0.5-0.1-0.9-0.3-1.4c-0.6,2.2-1,4.5,0,6.6c0.7,2,1.8,3.9,2.8,5.8c-0.8,0.1-1.9,0.2-3,0.3c-0.2,0-0.3-0.1-0.4,0
		c-1.3,0.8-2.4,0.5-3.6-0.3c-1.1-0.7-2.4-0.2-3.4,0.4c-0.2,0.2-0.3,0.7-0.3,1c-0.1,0.7,0,1.4-0.1,2.1c-0.1,0.3-0.4,0.5-0.6,0.8
		c-0.1-0.3-0.5-0.6-0.4-0.8c0.3-1.2,0.7-2.4,1-3.6c0.2-0.8,0.5-1.6,0.5-2.4c0.1-3.1,0.2-6.3-1-9.4c-0.3-0.7-0.6-1.4-0.9-2.1
		c-0.2,0.1-0.3,0.1-0.4,0.1c0,0.3-0.1,0.5,0,0.7c1.6,3.6,1.6,7.4,1.5,11.2c0,0.5-0.2,1-0.4,1.5c-0.4,1.6-0.9,3.1-1.5,5
		c-1,0.1-2.2,0.3-3.5,0.4c-1.6,0.1-1.9,0.6-1.2,2c0.7,1.5,1.3,3,1.9,4.5c0.3,1,0.1,1.7-0.7,2.5c-2.7,2.7-4.2,6-5.1,9.7
		c-0.2,0.8-0.5,1.5-0.9,2.6c-1.1-1.6-2.1-2.8-2.8-4.1c-1.8-3.2-3.7-6.4-5.2-9.8c-1-2.4-1.4-5.2-2-7.8c-0.9-3.9-1.7-7.9-2.6-11.8
		c-1.1-4.7-0.6-9.5-0.5-14.2c0.1-2.7,0.1-5.5,0.3-8.2c0.1-1.5,0.5-2.9,0.9-4.4c0.2-0.9,0.6-1.8,0.8-2.8c0.2-1.8,1.3-3,2.6-4
		c3.5-2.5,7.4-4.4,11.8-4.4c2.5-0.1,4.2,1.4,5.9,2.9l1.8,1.8c1.1,1.1,2.5,1.2,3.8,0.3c0.9-0.6,1.8-1.2,2.5-2
		c1.7-1.8,3.8-2.6,6.2-2.7c2.4-0.1,4.7-0.5,7.1,0.3c2.9,1,4.6,3.3,6.3,5.6C92,27.3,93,31,93.6,34.8c0.6,3.2,0.8,6.5,1.3,9.8
		c0.3,2.3,1.1,4.6,1.4,6.9c0.3,2.7,0.3,5.5,0.3,8.2c0,3.4,0.1,6.7,0,10.1c-0.1,4.4-1,8.6-3.4,12.4c-1.5,2.4-2.9,4.8-4.3,7.2
		l-0.4,0.4c-0.2-3.7-1.2-6.8-3-9.8c-1.7-2.6-1.8-5.4-0.4-8.2c0.5-1,0.8-2.1,0.9-3.2c0.1-0.5-0.4-1.2-0.9-1.5
		c-0.7-0.4-1.5-0.6-2.2-0.8c-1-0.3-2.1-0.3-2.3-1.8C80.5,64.1,79.4,63.6,78.8,63.6z M80.9,66.6c1,0.2,2,0.5,3,0.8
		c1.4,0.5,1.6,0.9,1.1,2.4c-0.6,1.7-1.3,3.4-1.9,5C81.6,72.8,80.6,69.2,80.9,66.6z M87.2,92.2c-2.6-5.5-4.4-11-5-17.4
		c0.3,0.5,0.5,0.7,0.6,1c1.1,2.5,2.2,5,3.5,7.4c1.2,2.3,1,4.8,1.1,7.2C87.4,91,87.3,91.6,87.2,92.2z M89.3,116
		c0.7-3.4,1.6-6.7,2.3-10.1c0.5-2.4-0.1-4.6-1.3-6.7c-0.4-0.7-1-1.3-1.4-2.1c-1.1-2.3-1.4-4.5,0.6-6.6c0.8-0.8,1.3-1.8,2-2.8
		c0.6,3.3,2.2,5.9,4.3,8c1,1,2.7,1.3,4.2,1.6c1.3,0.3,1.8,1,1.8,2.2c0,3.5-0.9,6.8-2.1,10c-0.6,1.7-1.3,3.5-2.4,4.9
		c-2.2,2.8-4.6,5.4-8,6.9c-0.2,0.1-0.5,0.2-0.8,0.3C88.7,119.7,88.9,117.8,89.3,116z M104.9,108.7c-0.3,1.5-0.8,3-1.3,4.4
		c-0.1,0.1-0.2,0.2-0.3,0.4c-0.5,0.9-0.8,1.7-1,2.5c-1.5,2.5-3.7,4.5-6.2,6.2c-2,1.4-4.3,2.5-6.5,3.7c-0.5,0.3-1,0.4-1.8,0.7
		c0.4-1.3,0-2.2,1.4-3c3.1-1.7,5.8-4,8.3-6.7c2.6-2.8,3.6-6,4.7-9.4c0.8-2.7,1.4-5.6,2.1-8.6c0.4,0.1,1.2,0.1,1.8,0.3
		c0.2,0.1,0.4,0.6,0.4,0.9C106,103,105.5,105.9,104.9,108.7z"/>
	<path class="st0" d="M55,56.1c-2.8-0.1-4.8-0.8-6.6-2c-0.8-0.6-0.8-1,0.1-1.4c1.6-0.8,3.2-1.8,4.9-2.2c2.5-0.7,4.9-0.1,7,1.4
		c0.8,0.5,1.3,1.5,1.8,2.3c0.1,0.1-0.2,0.7-0.3,0.7C59.4,55.3,56.9,55.8,55,56.1z M57,51.1c0.5,2.5-0.1,3.7-1.9,4.2
		c1.9-0.4,3.8-0.8,5.8-1.3C60.4,52,58.6,51.8,57,51.1z M51.7,52.3c-0.6,0.3-1.3,0.8-2.3,1.5c1.6,0.6,2.9,1.1,4.1,1.5
		C52.9,54.3,52.4,53.4,51.7,52.3z"/>
	<path class="st0" d="M87.7,51.3c-0.6,0.2-1.1,0.3-1.7,0.6c-2.5,1-5.1,1.4-7.7,1.3c-1.1,0-2.3,0-3.4,0c-0.3,0-0.7-0.2-0.9-0.4
		c-0.1-0.1,0.1-0.7,0.3-0.8c2.5-1.9,5.2-3.7,8.5-3.3c1.7,0.2,3.3,1.4,4.9,2.1C87.7,51,87.7,51.1,87.7,51.3z M75.8,51.9
		c0,0.1,0.1,0.3,0.1,0.4c1.1,0,2.2,0,3.3,0c-0.2-0.6-0.4-1.2-0.6-1.9C77.7,50.8,76.8,51.3,75.8,51.9z"/>
	<path class="st0" d="M50.3,44.1c1.7-0.1,3.4-0.4,5-0.2s3.2,0.8,4.7,1.3c0.3,0.1,0.4,0.8,0.5,1.2c-0.3,0.1-0.8,0.4-1,0.3
		c-3.2-1.4-6.4-0.7-9.7-0.2c-1.6,0.2-3.1,0.9-4.6,1.2c-0.6,0.1-1.3,0.6-1.7-0.3c-0.3-0.8,0.4-1.1,1-1.4c1.6-0.6,3.2-1.3,4.8-2
		c0.3-0.1,0.5-0.1,0.8-0.2C50.3,44,50.3,44,50.3,44.1z"/>
	<path class="st0" d="M83.8,41.5c2.3,0.2,4.3,0.2,5.9,1.6c0.4,0.3,0.5,0.9,0.7,1.4c-0.5,0-1.1,0.2-1.5,0c-2.8-1.3-5.6-1.3-8.5-0.3
		c-1.9,0.6-3.8,1.3-5.8,1.9c-0.4,0.1-0.9,0-1.3-0.1c0.2-0.4,0.3-1,0.7-1.2c2.2-1.7,4.8-2.5,7.6-2.9C82.4,41.8,83.3,41.6,83.8,41.5z"
		/>
</g>
</svg>
