<?xml version="1.0" encoding="utf-8"?>
<!-- Generator: Adobe Illustrator 19.2.1, SVG Export Plug-In . SVG Version: 6.00 Build 0)  -->
<svg version="1.1" id="Layer_1" xmlns="http://www.w3.org/2000/svg" xmlns:xlink="http://www.w3.org/1999/xlink" x="0px" y="0px"
	 viewBox="0 0 115.9 100" style="enable-background:new 0 0 115.9 100;" xml:space="preserve">
<style type="text/css">
	.st0{fill:#9C27B0;}
</style>
<g id="icon-sleep-lady">
	<g>
		<path class="st0" d="M22.1,46.6c0.2,0,0.4-0.2,0.6-0.6c-0.1,0.1-0.1,0.2-0.3,0.2C22.3,46.4,22.2,46.5,22.1,46.6z"/>
		<path class="st0" d="M22.7,45.9c0-0.1,0.1-0.1,0.1-0.2c-0.1,0-0.1-0.1-0.2-0.1C22.8,45.7,22.8,45.8,22.7,45.9z"/>
		<path class="st0" d="M74.4,83.6c1.9-2,3.4-4.3,5-6.4c0.9-1.1,1.7-2.1,2.6-3.2c1.1-1.6,2.1-3.2,3.1-4.8c0.7-1.3,1.7-2,3.1-2.6
			c0.8-0.3,1.3,0,1.9,0.3c1.6,0.8,3.1,1.6,4.7,2.3c0.8,0.3,1.7,0.3,2.7,0.5c1.5,0.5,3,1.3,4.4,1.7c2,0.5,4.2,0.9,6.3,1.3
			c0.9,0.1,1.9,0.3,2.7,0.8c0.3,0.1,0.7,0.3,1.1,0.4c1.2,0.4,2.6,0.7,3.8,1.2c0.1,0,0.2,0.1,0.2,0.1v-1.5c-0.9-0.8-1.5-1.9-1.5-3.3
			c-0.1-0.7-0.1-1.3-0.1-2c-0.1-1.7-0.1-3.5-0.4-5.1c-0.3-1.5-0.4-3-0.8-4.4c-0.3-1.2-0.7-2.4-1.1-3.6c-0.3-0.9-0.7-1.9-1.1-2.8
			c-0.5-1.2-1.3-2.4-2-3.6c-0.3-0.7-0.7-1.3-1.1-1.9c-0.1-0.3-0.4-0.4-0.5-0.7c-0.4-0.7-0.9-1.5-1.3-2.1c-1.1-1.7-2.1-3.5-3.1-5.2
			c-1.2-2-1.7-4.2-1.9-6.4c0-0.5-0.1-1.1-0.3-1.6c-0.4-2.4-0.9-4.8-1.2-7.3c-0.3-1.7-0.4-3.6-0.7-5.4c-0.3-1.9-0.9-3.5-2.1-5
			c-1.1-1.3-2.1-2.7-2.7-4.4c-0.5-1.3-1.5-2.4-2.8-3.2c-0.4-0.1-0.8-0.4-1.1-0.7c-2-1.6-4.3-2.8-6.9-3.5c-0.5-0.1-0.9-0.3-1.3-0.4
			c-1.1-0.5-2.3-0.8-3.6-0.9c-2-0.1-4,0-6,0.1c-2.3,0.3-4.4,1.1-6.7,1.5c-0.1,0-0.4,0.3-0.5,0.4c-0.7,0.7-1.6,0.9-2.6,0.8
			c-2.3,0.3-4.3,0.7-5.4,3c-0.4,0.8-0.7,1.6-0.7,2.6c0,0.4,0.1,0.8,0.1,1.2c0,0.3-0.3,0.7-0.4,0.7c-0.9,0.3-1.3,0.9-1.7,1.7
			c0,0.1-0.3,0.4-0.5,0.4c-3.4,0.3-6.7,0.5-10.1,0.5c-3.2,0-6.3,0.8-9.4,1.3c-1.7,0.3-3.4,0.8-5.1,0.8c-2.7,0-5.2,0.5-7.8,1.2
			c-0.9,0.3-2.1,0.4-3.2,0.4c-2.8,0-5.6-0.1-8.5,0.3c-1.6,0.3-2.6,1.2-3.1,2.4c-0.5,1.1-0.8,2.4-0.8,3.6c-0.1,2.3,0,4.7,0,7
			c0.1,0.8,0.3,1.5,0.4,2.3c0.1,1.1,0.4,2.1,0.5,3.2c0.3,2.6,0.4,5,0.5,7.5c0,0.3,0.1,0.8,0.3,1.1c0.3,0.4,0.1,0.5-0.3,0.8
			c-0.8,0.4-1.5,0.9-2.1,1.5c-0.4,0.5-0.7,1.1-0.7,1.7c0,0.5,0,1.1-0.1,1.6c-0.5,1.6-0.5,3.2,0.4,4.7c-1.3,1.3-2.6,2.8-3.8,4.2
			C0.7,59,0.3,59.5,0,59.9v1.6c0.3-0.4,0.6-0.8,0.9-1.2c2.1-2.1,4.3-4.3,6.4-6.4c1.1-1.1,2.1-2.1,3.1-3.2c0.7-0.5,1.2-1.1,2.1-0.9
			c-0.3,0.8-0.4,1.6-0.7,2.4c0.1,0,0.4-0.1,0.4-0.3c0.3-0.7,0.4-1.3,0.7-2c0.1-0.1,0.4-0.4,0.5-0.4c0.5,0.1,0.9,0.4,1.5,0.5
			c0,0,0.1,0,0.3,0v-0.1c-0.4-0.1-0.8-0.4-1.3-0.7c0.3-0.1,0.5-0.1,0.7-0.3c1.1-0.4,2-0.1,3,0.1c0.7,0.1,1.3,0.3,1.7,0
			c0.8-0.5,1.5-1.3,2.3-2c0,0-0.1,0-0.1,0c0.2-0.2,0.4-0.3,0.6-0.5c-0.2,0-0.5-0.1-0.9-0.3c-0.1-0.1-0.4-0.3-0.7-0.4
			c-0.4-0.1-0.4-0.5-0.4-0.9c0.1-0.3,0.1-0.4,0.5-0.3c0.4,0.2,0.8,0.4,1.2,0.6c-1.3-1-3.2-1.2-4.6-1.8c-0.3-0.1-0.7-0.3-0.9-0.4
			c0.1-0.1,0.1-0.1,0.1-0.3c0.7,0.1,1.3,0.4,2,0.5c0.5,0.1,1.1,0.4,1.6,0.4c0.2,0,0.4-0.1,0.7-0.2c-0.1,0-0.2-0.1-0.3-0.2
			c-0.4-0.3-0.9-0.7-1.3-0.9c-0.1-0.1-0.1-0.4-0.3-0.7c0.1-0.1,0.3-0.4,0.3-0.5c0.3,0,0.7,0,0.9,0.1c0.4,0.3,0.7,0.7,1.1,0.9
			c0.4,0.3,0.4,0.5,0.2,0.9c0,0,0.1,0,0.1-0.1c0.1-0.1,0.1-0.5,0-0.7c-0.7-1.3-1.9-2.3-3.2-2.8c-1.5-0.4-3.1-0.8-4.7-0.5
			c-0.9,0.1-1.7,0-2.3-0.9c-0.4-0.5-0.9-0.4-1.5-0.3c-0.5,0.1-0.5,0.5-0.5,1.1c0,0.3,0,0.5,0.1,0.8c0.3,0.8,0.3,1.6-0.3,2.3
			c-0.4,0.5-0.7,1.2-1.1,1.7c-0.3-0.3-0.3-0.5-0.3-0.7c-0.1-2.1-0.1-4.2-0.3-6.3c-0.1-1.1-0.3-2.1-0.4-3.2c-0.1-0.9-0.4-1.7-0.5-2.7
			c-0.1-1.1-0.3-2.3-0.3-3.4c0-1.6-0.1-3.4,0-5c0.1-0.8,0.4-1.6,0.7-2.4c0.4-0.9,0.9-1.7,2-1.9c0.8-0.1,1.7-0.3,2.6-0.3
			c1.9,0,3.6-0.1,5.5,0c1.7,0,3.2-0.1,4.8-0.5c2.3-0.7,4.4-1.2,6.7-1.1c0.4,0,0.9,0,1.3-0.1c2.1-0.4,4.3-0.8,6.4-1.2
			c2.8-0.5,5.5-0.9,8.3-0.8c1.3,0,2.6,0,3.9-0.1c1.3,0,2.7-0.1,4-0.3c1.1,0,1.3,0.3,1.2,1.2c0,0.8-0.1,1.6,0,2.4
			c0.1,1.2,0.5,2.4,0.7,3.8c0.3,2.4,0.9,4.7,1.7,7c0.3,0.9,0.4,2-0.3,3c-0.3,0.7-0.5,1.2-0.7,1.9c-0.7,2,0.8,3.4,2.4,3.4
			c0.5,0,0.8,0.1,0.8,0.7c0,0.3,0.1,0.7,0.1,0.9c0,0.8,0.1,1.3,0.8,1.9c0.1,0,0.1,0.3,0.3,0.4c-0.3,0-0.4-0.1-0.5-0.1
			c-0.1-0.1-0.3-0.3-0.4-0.3c-2.1-0.8-3.6-2.4-4.6-4.3c-1.1-2-1.7-4.2-2.6-6.2c-0.8-1.7-1.6-3.5-2.4-5.2c0-0.3-0.3-0.4-0.4-0.5
			c-0.1,0.1-0.1,0.1-0.3,0.1c0.1,0.4,0.1,0.8,0.3,1.1c0.9,2.1,1.7,4.4,2.7,6.6c0.5,1.3,1.1,2.6,1.6,3.9c0.4,1.1,0.5,2.3,1.6,3
			c0.1,0,0.1,0.1,0.3,0.3c0.9,1.5,2.4,2.3,4,2.8c0.4,0.1,0.8,0.1,0.9,0.7c0,0.3,0.3,0.7,0.5,0.8c0.8,0.5,1.1,1.3,1.3,2.3
			s0.5,1.9,0.9,2.7c0.4,0.8,1.1,1.2,2,1.5c1.9,0.5,3.5-0.3,5.2-0.8c0.8-0.3,1.5-0.5,2.3-0.7c0.3-0.1,0.7,0.1,0.9,0.3
			c0.1,0.1,0.3,0.5,0.1,0.7c-0.3,0.7-0.7,1.2-1.1,1.7c-1.2,1.7-2.7,3.4-3.2,5.5c-0.5,2-1.6,3.8-2.6,5.5c-0.1,0.3-0.4,0.4-0.7,0.1
			c-0.9-0.7-2-0.7-3.1-0.5c-0.8,0.1-1.5,0-2.3,0c-0.4,0-0.7-0.3-0.8,0.3c-0.1,0.5,0.1,0.7,0.7,0.7H63c0.8,0,1.7,0,2.4,0.5
			c0.1,0.1,0.3,0.5,0.3,0.7c-0.3,0.8-0.5,1.7-0.9,2.6c-1.7,3.1-3.2,6.4-5.8,9c-0.3,0.4-0.7,0.9-0.8,1.3c-0.1,0.7-0.5,1.2-1.1,1.7
			c-1.9,1.7-3.5,3.9-4.7,6.2c-0.1,0.1-0.3,0.3-0.4,0.5c-0.1-0.3-0.3-0.4-0.3-0.5c-0.5-1.1-0.9-2.3-1.5-3.4c-0.1-0.4-0.3-0.7-0.4-0.9
			c-0.5-1.7-0.8-3.6-1.6-5.2c-0.1-0.4-0.3-0.8-0.4-1.2c-0.7-1.5-1.2-3.1-1.9-4.6c-0.1-0.5-0.4-1.1-0.5-1.6c-0.4-1.3-0.8-2.8-1.1-4.2
			c-0.3-1.6-0.7-3.4-0.9-5c0,0,0.1-0.1,0.1-0.3c0.7,0.7,1.1,1.2,1.6,1.7c0.7,0.7,1.5,1.2,2.3,1.9c0.1,0.1,0.4,0,0.5,0
			c-0.1-0.1,0-0.4-0.1-0.5c-0.1-0.3-0.4-0.4-0.7-0.7c-0.4-0.4-0.8-0.7-1.2-1.1c-0.8-0.9-1.6-1.9-2.4-2.8c-0.1-0.1-0.3-0.4-0.3-0.5
			c0-0.7,0-1.5,0.1-2.1c0.3-0.8,0.5-1.3,0.8-2.1c0.4,0.5,0.5,0.9,0.9,1.3c0.7,0.8,1.2,1.6,2,2c1.3,0.7,2.8,1.2,4.3,1.7
			c0.1,0.1,0.4,0.3,0.7,0.1c0.3-0.1,0.5-0.4,0.5-0.5c-0.1-0.1-0.3-0.5-0.5-0.5c-0.9-0.1-1.7-0.3-2.6-0.5c-1.7-0.5-3.5-1.5-4.3-3.4
			c-0.3-0.5-0.7-1.2-0.5-1.9c0.1-1.1,0.5-2.1,0.9-3.2c0.9-2.3,1.1-4.4,0.4-6.7c-0.3-1.1-0.5-2-0.8-3.1c-0.3-1.2-0.4-2.4-1.2-3.4
			c-0.3-0.3-0.1-0.7,0.1-0.9c1.2-1.5,1.2-2.4-0.3-3.2c-0.7-0.3-1.3-0.4-2-0.7c-2.8-0.9-4.8,0.5-7,2c-0.7,0.5-1.3,1.1-2,1.6
			c-0.8,0.8-1.5,1.5-2.3,2.3c-0.4,0.4-0.8,0.9-1.2,1.2c-0.4,0.4-1.1,0.7-1.1,1.3c0,1.2-0.1,2.6,0.1,3.9c0.3,1.3,0.8,2.8,1.2,4.2
			c0.1,0.5,0.3,1.1,0.4,1.7c-0.5-0.3-0.8-0.4-1.2-0.5c-0.3-0.1-0.8-0.5-1.1,0c-0.1,0.5,0.4,0.7,0.8,0.8c1.9,0.7,2.8,2.1,3.1,4
			c0.1,0.5,0.1,1.1,0.3,1.6c-1.5-0.3-2.8-0.5-3.9-1.3c-0.3-0.3-0.7-0.4-0.9,0c-0.3,0.4,0.1,0.7,0.5,0.8c1.2,0.5,2.6,0.9,3.8,1.3
			c0.5,0.3,0.9,0.4,1.1,1.1c0.3,1.5,0.5,3,0.8,4.4c0.7,3.5,1.3,7.1,2,10.6c0.7,3.2,0.8,6.4,1.1,9.7c0.1,0.9,0.1,1.9,0.4,2.8
			c0.4,1.6,0.9,3.1,1.3,4.7c0.1,0.5,0,0.7-0.5,0.7c-2.4-0.1-5,0.1-7.3-1.1c-0.1-0.1-0.4-0.3-0.7-0.3c-1.2-0.1-2.3-0.4-3.5-0.7
			c-2-0.4-3.8-1.2-5.1-2.7c-0.4-0.5-0.9-1.1-1.3-1.5c-1.9-1.9-3.9-3.8-5.8-5.6c-1.2-1.2-2.6-2-4.3-1.9c-0.8,0.1-1.6,0-2.3,0.1
			c-1.1,0.3-2.3,0.4-3.2,1.2C3.6,75.7,3,76,2.4,76.4c-0.1,0.1-0.3,0.4-0.4,0.5c0.3,0.1,0.5,0.3,0.7,0.3c0.3,0,0.7-0.1,0.9-0.4
			c1.5-1.2,3.2-1.6,5.1-1.9c1.7-0.3,3.2,0.1,4.4,1.5c0.9,1.1,1.9,2,3,3.1c1.2,1.2,2.6,2.4,3.8,3.6c1.7,1.9,3.9,3,6.4,3.6
			c1.9,0.5,3.8,0.5,5.5,1.3c0.5,0.3,1.1,0.3,1.7,0.3c1.6,0.1,3.1,0.1,4.8,0.3c0.4,1.3,0.7,2.6,1.1,3.9c0.7,2.6,1.5,5,2.3,7.5h1.1
			c-0.3-1.1-0.7-2.1-0.9-3.2c-0.5-2.1-1.1-4.2-1.6-6.2c-0.8-2.8-1.6-5.8-2.6-8.6c-0.7-2.1-0.4-4.3-0.7-6.4c-0.3-1.5-0.3-3-0.5-4.4
			c-0.5-3.5-1.2-6.9-1.7-10.2c-0.4-1.9-0.7-3.8-1.1-5.6c-0.3-1.6-0.8-3.2-1.2-4.8c-0.4-1.2-0.7-2.4-1.1-3.6
			c-0.8-2.1-1.6-4.3-2.1-6.4c-0.1-1.1-0.7-2.3,0.5-3.2C30,37.1,30,37,30,37c0.1-0.3,0.4-0.5,0.7-0.8l0.1,0.1c0,1.2-0.3,2.6,0.1,4
			c0.1-0.4,0.3-0.5,0.4-0.7c0.7-0.4,0.5-0.9,0.5-1.5c0-0.5-0.1-0.9-0.1-1.5c0-0.5,0.1-1.1,0.1-1.6c0-0.8,0.3-1.2,1.1-1.5
			c0.3,0.8-0.4,1.6,0.1,2.3c0.7-0.5,0.8-1.2,0.8-1.9c0.1-0.8,0.4-1.3,1.2-1.7c0.3-0.1,0.4-0.4,0.7-0.7l0.7-0.7
			c0,0.1,0.1,0.1,0.1,0.1c-0.3,0.8-0.7,1.5-0.8,2.3c-0.3,0.8-0.9,1.5-0.9,2.3c0.4-0.1,0.7-0.3,0.9-0.4c0.1,0,0.4-0.1,0.4-0.3
			c0.4-1.2,0.9-2.3,1.2-3.5c0.3-1.1,0.7-1.6,1.6-1.7c0.7-0.3,1.3-0.8,2.1-0.5c0.5,0.3,1.1,0.3,1.6,0.4c0.5,0.3,1.1,0.5,1.5,0.8
			c0.4,0.4,0.3,0.8,0,1.2c-0.3,0.3-0.5,0-0.8-0.1c-0.3-0.3-0.8-0.5-1.1-0.4c-0.7,0.1-1.2,0.5-1.7,0.8c-0.1-0.3-0.3-0.4-0.7,0
			c-0.3,0.3-0.3,0.5-0.1,0.8c0.1,0.5,0.3,0.9-0.1,1.2C39.4,34,39,34,38.7,34.2c0.1,0.3,0.1,0.7,0.3,0.9c0.1,0.3,0.4,0.7,0.4,0.9v2.4
			c0,0.1,0,0.5,0.1,0.7c0.7,0.5,1.1,1.2,1.3,2c0.1,0.1,0.4,0.1,0.5,0.3c0.1-0.1,0.3-0.4,0.3-0.5c0-0.3-0.1-0.7,0-0.9
			c0.4-1.6,0.4-3.2-0.3-4.8c-0.3-0.7-0.3-1.3-0.1-1.9c0.7,0.1,1.3,0.3,1.9,0.4c0.4,0.1,0.9,0.8,0.9,1.3c-0.3,0-0.4-0.1-0.5-0.1
			c-0.3,0-0.7,0-0.8,0.1c-0.3,0.4,0.1,0.4,0.4,0.5c0.7,0.3,1.1,0.7,1.2,1.5c0.3,1.1,0.5,2.1,0.9,3.2c0.4,0.9,0.4,1.9,0.3,2.8
			c-0.1,0.8-0.3,1.5-0.5,2.3c-0.4,1.5-0.9,3-1.3,4.4c-0.3,0.7-0.4,1.3-0.7,2.1c-0.4-0.3-0.8-0.7-1.2-0.8c-0.3-0.1-0.5,0-0.8,0
			c0.1,0.3,0.1,0.7,0.3,0.8c0.4,0.3,0.8,0.5,1.2,0.8c0.1,0,0.3,0.3,0.3,0.4c0,1.5-0.3,3-0.1,4.4c0.5,3,1.1,6,1.7,9
			c0.5,2.3,1.5,4.7,2.1,7c0.1,0.4,0.3,0.9,0.5,1.5c0.5,1.3,1.2,2.7,1.7,4c0.7,1.7,1.3,3.6,2.1,5.5c0.3,0.8,0.1,1.3-0.3,2
			c-0.8,1.3-1.7,2.8-2.6,4.3c0,0,0,0.3,0,0.4c0.1,0,0.3,0,0.4-0.1c0.5-0.5,1.1-1.2,1.6-1.9c0.8-1.1,1.6-2.1,2.4-3.2
			c0.5-0.9,1.1-1.7,1.5-2.7c0.7-1.2,1.5-2.4,2.6-3.5c0.5-0.5,1.1-1.1,1.5-1.6c0.4-0.4,0.7-0.9,1.1-1.5c0.3-0.4,0.7-0.8,0.9-1.2
			c1.2-2,2.4-4.2,3.6-6.3c0.7-1.2,1.6-2.4,2-3.8c0.8-3,2.7-5.5,3.8-8.3c0.3-0.8,0.7-1.6,1.1-2.4c1.3-2.1,2.7-4.2,4-6.2
			c1.1-1.5,2.3-3,3.5-4.3c0.8-0.8,1.9-1.5,2.8-2.1c1.7-1.3,3.8-1.6,5.9-1.7c1.2-0.1,2.6,0.1,3.8,0.3c0.4,0.1,0.8,0.3,1.2,0.4
			c1.1,0.4,2,0.8,3,1.2c0.8,0.4,1.9,0.7,2.6,1.2c2.4,2.1,4.3,4.6,5.2,7.8c0.7,2.1,0.7,4.3,0.3,6.3c-0.4,2.6-2.1,4.3-4,5.9
			c-0.4,0.4-0.8,0.8-1.3,1.1c-0.9,0.5-2,0.8-3,1.2c-0.4,0.1-1.1,0.1-1.5,0.4c-0.4,0.1-0.7,0.5-1.2,0.4c-0.9-0.1-1.7-0.5-2.4-1.1
			c0.3-0.8,0.7-1.5,0.8-2.3c0.1-0.3-0.1-0.7-0.3-0.9c-0.3,0.1-0.5,0.3-0.8,0.5c-0.8,0.9-1.7,1.9-2.7,2.8c-0.4,0.4-0.8,0.5-1.1,0.9
			c-0.7,0.8-1.3,1.7-2,2.7c-1.5,2-3.1,4-4.7,6.2c-1.5,2-2.8,4-4.3,6c-2,2.7-4.3,5.2-6.4,7.9c-1.3,1.7-2.7,3.4-3.9,5.1
			c-1.2,1.7-2.3,3.6-3.4,5.4h1.3c0.1-0.5,0.8-0.9,1.1-1.5c1.2-2,2.6-3.9,3.9-5.8c1.1-1.5,2.1-2.8,3.4-4.2c0.5-0.5,0.9-1.3,1.9-1.2
			c0.5,0,1.2,0.1,1.7,0.3c1.5,0.3,3,0.7,4.4,0.9c3.2,0.5,6.4,0.8,9.8,0.7C93.5,88.9,99,89,104.5,89c1.2,0,2.3,0.1,3.4,0.3
			c0.3,0,0.8,0.1,1.1,0.4c0.9,0.9,2.1,1.5,3.4,1.7c1.2,0.2,2.4,0.3,3.6,0.3v-0.8c-1.7,0.1-3.4-0.2-4.9-0.8h-0.5
			c0.9-0.7,1.7-1.1,2.6-1.6c0.9-0.7,1.9-1.6,2.9-2.4v-1.1c-0.3,0.2-0.5,0.4-0.8,0.6c-0.7,0.4-1.3,0.9-2,1.3c-0.9,0.7-1.9,1.3-2.8,2
			c-0.4,0.1-0.5,0.1-0.9,0c-0.7-0.3-1.2-0.4-1.9-0.5c-1.1-0.1-2.1-0.3-3.2-0.4c-4.7-0.5-9.5-0.4-14.2,0.1c-3.2,0.3-6.6,0.1-9.9-0.3
			c-0.8-0.1-1.6-0.5-2.6-0.7c-0.8-0.1-1.6-0.1-2.3-0.3c-0.9-0.1-1.9-0.4-3-0.7C73.1,85.2,73.6,84.3,74.4,83.6z M20,47.3
			c-0.5-0.3-1.1-0.7-1.2-1.5c0.9,0.4,1.6,0.8,2.3,1.2C20.7,47.7,20.3,47.5,20,47.3z M11.4,38.5c0.3,0.3,0.5,0.7,0.8,0.9
			c-0.7,0.4-1.1,0.7-1.7,0.9c0-0.5-0.1-1.2-0.1-1.7C10.3,38.2,11,38.1,11.4,38.5z M10.5,41.7c1.5-2.4,3.8-2.4,6.2-2
			c0.9,0.3,2,0.3,2.8,1.1c-0.9,0.8-0.9,0.9-0.1,2.1c-1.5-0.3-3.1-0.5-4.7-0.8c-1.2-0.3-2.1,0-3.1,0.5c-0.8,0.5-1.7,1.1-2.7,1.7
			C9.4,43.3,9.9,42.5,10.5,41.7z M7.9,45.9c1.1-0.9,2.1-1.7,3.4-2.6c0.7-0.4,1.3-0.7,2.1-0.8c0.4-0.1,0.8,0,1.2,0.1
			c0.7,0.1,1.5,0.4,2.1,0.7c0.8,0.3,1.7,0.7,2.7,0.9c0.1,0,0.4,0.1,0.7,0.1c-0.5,0.9-0.1,1.6,1.1,2.1l-0.1,0.1
			c-0.4-0.3-0.9-0.4-1.3-0.7c-2.3-1.2-4.6-1.9-7.1-2c-0.5,0-1.2,0.3-1.7,0.5c-1.1,0.7-2.1,1.5-3.2,2.3c0.1,0,0.1,0.1,0.1,0.1
			c0.1,0,0.3,0,0.4-0.1c0.8-0.7,1.7-1.2,2.6-1.9c0.8-0.5,1.7-0.8,2.7-0.5c1.5,0.3,3.1,0.8,4.7,1.2c0.4,0.1,0.7,0.3,0.7,0.8
			c0.1,0.5,0.8,1.2,1.6,1.6c-0.4,0.3-0.7,0.3-1.1,0c-2.8-1.6-5.6-2.3-8.7-1.1c-1.1,0.4-2,1.1-3,1.7c0,0.1,0.1,0.1,0.1,0.3
			c0.5-0.3,1.1-0.7,1.6-0.9c1.6-0.9,3.2-1.5,5-1.3c0.8,0,1.6,0.3,2.4,0.5c0.4,0.1,0.8,0.3,1.2,0.4c0.3,0,0.4,0,0.5,0.1
			c0.3,0.3,0.4,0.7,0.7,0.9c-0.3,0-0.7,0.1-0.9,0c-1.6-0.5-3-0.3-4.4,0.3c-0.7,0.4-1.5,0.5-2.3,0.7c-0.8,0.1-1.2,0.7-1.7,1.2
			c-1.3,1.2-2.6,2.3-3.8,3.4c-0.1,0.1-0.4,0.1-0.5,0.3c-0.9-1.1-0.9-2.3-0.7-3.5c0.1-0.8,0.3-1.5,0.3-2.3c0-0.8,0.1-1.3,0.8-1.7
			c0.7-0.3,1.2-0.7,1.7-0.9C7.8,46,7.8,45.9,7.9,45.9z M41.1,39.4c-0.4-0.3-0.7-0.7-0.7-1.2c0-1.1-0.1-2-0.1-3
			c0-0.3,0.1-0.5,0.3-0.8C41.2,36.1,41.8,37.7,41.1,39.4z M43.4,33.2c-0.4-0.3-0.9-0.5-1.5-0.9c1.1-0.3,1.3-0.1,1.6,0.7
			C43.5,33.1,43.4,33.1,43.4,33.2z M60.1,38.9c-0.1-0.3,0.3-1.1,0.7-1.1c1.5-0.3,3.1-0.4,4.6-0.5c0,0.1,0,0.1,0,0.3
			c-0.4,0.3-0.9,0.5-1.3,0.8c-0.8,0.3-1.7,0.7-2.6,1.1C60.9,39.7,60.2,39.4,60.1,38.9z M61.8,39.5c0.9-0.4,1.9-0.8,2.8-1.2
			c0.5-0.3,0.9-0.7,1.3-0.9c0.1,0,0.1,0.1,0.1,0.1c-1.6,1.5-3.4,2.8-5,4.2C60.6,40.8,60.9,40,61.8,39.5z M81.6,29.3
			c-0.1,1.1-0.4,2.1-0.9,3c-0.6,1.1-1,2.4-1.4,3.7c0,0.1-0.1,0.1-0.1,0.2c0,0.1,0,0.1-0.1,0.2c-0.1,0.2-0.1,0.3-0.2,0.5
			c-0.1,0.2-0.2,0.4-0.3,0.6c-0.1,0.1-0.1,0.3-0.1,0.4c-0.2,0.4-0.3,0.8-0.4,1.2c-0.3,0.5-0.5,1.2-0.5,1.7c0,0.9-0.4,1.6-1.1,2.1
			c-0.7,0.5-1.3,0.9-2,1.5c-0.3,0.1-0.4,0.1-0.7,0.1c-0.5,0-1.1,0.1-1.1,0.9c0.8,0.4,1.6,0.1,2.4-0.4c0.8-0.4,1.5-1.1,2.4-1.6
			c-0.1,0.4-0.1,0.7-0.3,0.9c-0.8,0.9-1.7,2-2.7,3.1c-1.3-1.1-2.8-0.5-4.2-0.1c-0.8,0.3-1.5,0.7-2.3,0.9c-0.8,0.3-1.5,0-2.3,0
			c-0.8,0-1.5-0.3-1.9-0.9c-0.4-0.7-0.7-1.3-0.8-2c-0.3-0.9-0.5-2-1.3-2.8c-0.4-0.3-0.4-0.7,0-0.9c0.9-0.8,1.7-1.5,2.7-2.3
			c0.8-0.7,1.5-1.2,2.3-1.9v-0.1c-0.4-0.1-0.9-0.3-1.3-0.3c-1.5,0-2.8,0.1-4.3,0.3c-0.5,0-0.9,0.3-1.5,0.4c-0.1-0.5-0.4-1.2-0.4-1.9
			c0-0.1,0.3-0.4,0.4-0.7c-0.5,0-0.9,0-1.3,0.1c-1.1,0.1-2.3-0.8-2-1.9c0.3-0.9,0.7-1.7,1.1-2.7c0.4-1.1,0.8-2.1,1.2-3.2
			c0.1-0.4,0-0.9-0.1-1.5c0.3,1.1-0.3,2-0.7,2.8c-0.1-0.8-0.4-1.6-0.7-2.4c-0.1-0.4,0-0.5,0.4-0.7c0.1,0,0.4-0.3,0.5-0.4
			c-0.1-0.1-0.4-0.4-0.5-0.5h-0.1c-0.9,0.1-1.1-0.7-1.2-1.3c0-0.8-0.1-1.5-0.3-2.3c-0.3-1.7,0.3-3.2,1.1-4.7
			c0.5-0.9,1.2-1.9,1.6-2.8c0.6-1.4,2-2.1,3.4-2.1c0.4,0,0.7,0.1,1.1,0.1c0.8,0.2,1.6,0.5,2,1.1c0.5,0.7,1.2,1.1,1.9,1.5
			c0.8,0.5,1.6,1,2.3,1.5c0.1,0.5,0.4,1,0.9,1.3c0.6,0.4,1.2,0.6,1.9,0.9c0.8,0.4,1.6,0.8,2.4,1.3c1.5,0.9,3.1,2,4.4,3.1
			c1.3,1.1,2.4,2.4,2.3,4.4c0,0.4,0.1,0.8,0.1,1.2c0.1,0.3,0.1,0.7,0.1,1C81.6,29.1,81.6,29.2,81.6,29.3z M99.8,64.7
			c1.5-1.5,2.8-3.1,3.8-5c1.1-1.9,0.9-4,1.1-6c0-2.1-0.9-4-1.7-5.9c-0.8-2-2.4-3.2-4.2-4.4c0.1-0.1,0.1-0.1,0.3-0.3
			c1.1,0.5,2.1,1.1,3.4,1.6c1.2,0.9,2.4,1.7,3.5,2.8c0.9,0.9,1.9,2,2.6,3.1c0.9,1.5,1.6,3.1,2.3,4.7c0.3,0.7,0.4,1.6,0.7,2.4
			c0.1,0.8,0.5,1.5,0.7,2.1c0.3,0.9,0.4,2,0.7,3c0.7,2.6,0.5,5.2,0.5,7.8V73c-1.3-0.4-2.7-0.8-4.2-1.1c-2.1-0.5-4.3-0.8-6.3-1.3
			c-0.9-0.3-1.7-0.8-2.6-1.1c-1.9-0.7-3.9-1.5-5.8-2.1c-0.1,0-0.1,0-0.3-0.1C96.2,66.4,98.2,66.1,99.8,64.7z"/>
		<path class="st0" d="M22.3,45.5C22.3,45.5,22.4,45.5,22.3,45.5c-0.1,0-0.2-0.1-0.4-0.2c0,0,0.1,0,0.1,0.1
			C22.2,45.3,22.2,45.5,22.3,45.5z"/>
		<path class="st0" d="M22.7,45.9C22.7,46,22.7,46,22.7,45.9C22.7,46,22.7,46,22.7,45.9z"/>
		<path class="st0" d="M21.4,43.2C21.4,43.2,21.4,43.1,21.4,43.2c-0.1,0.1-0.3,0.2-0.5,0.3C21,43.5,21.2,43.4,21.4,43.2z"/>
		<polygon class="st0" points="21.6,47.1 21.6,47.1 21.8,47.1 		"/>
		<path class="st0" d="M22.4,45.5c0.1,0,0.2,0.1,0.3,0.1C22.6,45.6,22.5,45.5,22.4,45.5z"/>
	</g>
	<path class="st0" d="M15.5,29.7c0.5,0.1,1.1,0.3,1.7,0.4c0.7,0.1,1.2,0.1,1.7-0.3c2.3-1.3,4.4-2.6,7.3-2.7c1.2,0,2.3-0.4,3.2-1.1
		c0.4-0.4,0.9-0.5,1.5-0.8c0.3-0.1,0.5-0.4,0.8-0.7c0.3-0.3,0.4-0.7,0.8-0.4c0.4,0.3,0.5,0.9,0.1,1.2c-0.7,0.7-1.5,1.2-2.6,1.5
		c-1.2,0.3-2.4,0.8-3.6,1.1c-0.5,0.1-1.2,0.1-1.7,0.3c-2,0.3-3.6,1.3-5.4,2.4c-0.8,0.4-1.5,0.5-2.3,0.3c-0.5-0.1-1.2-0.3-1.9-0.4
		c-0.3,0-0.8,0-0.8-0.5s0.4-0.4,0.8-0.4C15.3,29.7,15.3,29.7,15.5,29.7L15.5,29.7z"/>
	<path class="st0" d="M68.5,20.1c-0.3,0-0.7,0.1-0.9,0.1c-2.4-0.5-4.4,0.4-6.2,1.9c-0.3,0.3-0.7,0.5-0.9,0.1
		c-0.1-0.3-0.1-0.9,0.1-1.1c1.7-1.6,3.8-2.1,6-2.1C67.7,19,68.2,19.3,68.5,20.1z"/>
	<path class="st0" d="M68.4,24c-0.1,0.8-0.8,1.2-1.6,1.6c-0.4,0.3-0.9,0.5-1.3,0.7c-0.4,0.1-0.7,0.3-1.1,0.3c-0.4,0-0.8-0.1-1.2-0.3
		c-0.1-0.1-0.3-0.5-0.3-0.8c0-0.1,0.3-0.4,0.4-0.4c1.5,0,2.7-0.7,4-1.3C67.6,23.8,68,23.6,68.4,24z"/>
	<path class="st0" d="M60.6,33.4c0.1,0.1,0.4,0.3,0.4,0.4c0,0.1-0.1,0.4-0.4,0.5c-0.4,0.1-0.9,0.3-1.3,0.4c-0.1,0-0.4-0.1-0.5-0.3
		c0.1-0.1,0.1-0.4,0.4-0.4C59.5,33.8,60.1,33.6,60.6,33.4z"/>
	<path class="st0" d="M61.9,33.9c0.3-0.3,0.5-0.5,0.7-0.8c0.1-0.4,0-0.8-0.4-1.1c-0.3-0.1-0.7-0.4-0.9-0.5c0.9-0.1,1.3,0,1.7,0.7
		c0.3,0.7,0.3,1.3-0.1,1.7C62.5,34.2,62.3,34.2,61.9,33.9z"/>
</g>
</svg>
