<?xml version="1.0" encoding="utf-8"?>
<!-- Generator: Adobe Illustrator 19.2.1, SVG Export Plug-In . SVG Version: 6.00 Build 0)  -->
<svg version="1.1" id="Layer_1" xmlns="http://www.w3.org/2000/svg" xmlns:xlink="http://www.w3.org/1999/xlink" x="0px" y="0px"
	 viewBox="0 0 199.8 193" style="enable-background:new 0 0 199.8 193;" xml:space="preserve">
<style type="text/css">
	.st0{fill:#00BCD4;}
</style>
<g id="icon-heartburn-man">
	<path class="st0" d="M155.7,186.9c0.3,1.4,0.6,2.7,0.8,4.1c-0.1-1.1-0.3-2.2-0.4-3.1C156,187.5,155.8,187.2,155.7,186.9z"/>
	<path class="st0" d="M1.4,188.7c0.9,1.5,1.8,2.9,2.8,4.3H38c1.7-0.5,3.4-1.1,4.9-2c1.4-0.8,3-1.4,4.5-1.9c0.2,1.3,0.5,2.6,0.7,3.9
		h28.2c0-0.5-0.1-1-0.1-1.4c-0.3-3.6-0.8-7.1-1-10.7c-0.2-3.4,0-6.8,0-10.1c2-0.5,3.8-0.9,5.8-1.3c0,0.3,0,0.7,0,1.1
		c-0.2,2.9-0.4,5.8-0.5,8.6c-0.1,3.1-0.1,6.1-0.1,9.2c0,1.6,0.1,3,0.3,4.6h74.5c-0.7-4.3-1.7-8.6-2.9-12.9c-1-3.5-2.1-6.9-2.9-10.5
		c-0.9-4.1-1.5-8.1-3.1-12c-0.3-0.6,0.2-1.2,0.7-1.2c0.3-1.8,1.2-3.5,1.9-5.2c1.9-4.3,3.6-8.7,5.3-13.1c0.2-0.6,0.1-1.3,0-1.9
		c-0.1-0.3-0.5-0.8-0.8-0.8c-0.3,0-0.8,0.5-0.8,0.8c0,0.3-0.1,0.6-0.1,0.9c0.4,0.2,0.6,0.6,0.4,1.1c-3.1,5.6-4.3,12.1-8,17.3
		c-0.1,0.3-0.3,0.6-0.4,0.8c-0.1-0.1-0.1-0.2-0.2-0.4c-0.6,0.1-1.3-0.5-0.8-1.1c0.4-0.5,0.7-1.1,1.1-1.7c0.9-2.1,1.7-4.2,2.4-6.4
		c0.5-1.6,1-3,1.9-4.5c0.8-1.4,1.3-3.8,2.3-4.9c1.6-2-1.2-4.8-2.8-2.8c-0.9,1.2-1.3,2.2-1.9,3.5c-0.7,1.6-1.7,2.8-2.4,4.4
		c-1.2,2.7-2,5.5-3,8.3c-5.4-5.5-13.5-5.1-20.6-2.5c0.8-1.8,0.8-4-0.3-5.5c-0.4-0.5-1.4-0.9-2.2-0.9c-3.6-0.1-6.6,1.7-9.6,3.3
		c-2.2,1.2-4.4,2.2-6.7,3.2c-1.2,0.5-2.5,0.5-3.8,0.8c0-0.1-0.1-0.2,0-0.2c2.5-1.9,4.8-4.2,8-5.1c0.7-0.2,1.2-0.6,1.8-1
		c3.9-2.5,7.9-4.9,11.8-7.5c1.5-1,2.9-2.1,4.1-3.4c2-2.3,1.4-5.6-1.2-7.2c-1.2-0.8-2.5-0.5-3.7,0.3c-2.5,1.8-5.1,3.3-7.5,5.2
		c-4,3.1-8.8,4.8-13.1,7.2c-0.2,0.1-0.5,0.2-0.8,0.3c-0.1-0.1-0.2-0.2-0.2-0.3c2-1.7,4-3.3,6-5.1c2.1-1.9,4.1-3.8,6.2-5.7
		c1.6-1.4,3.5-2.6,5.1-4.1c1.8-1.6,3.7-3.2,5.2-5.1c1.9-2.5,0.5-5.1-1.6-6.6c-1.5-1.1-3.8-0.3-5.7,1.6c-2.5,2.5-4.9,5-7.6,7.2
		c-3,2.5-6.3,4.6-9.4,6.9c-1,0.8-1.8,1.8-2.7,2.6c-0.9,0.8-1.8,1.5-2.8,2.3l-0.4-0.3c0.3-0.6,0.5-1.3,0.9-1.7
		c3.5-3.6,6.3-7.8,10.8-10.4c2-1.2,3.8-2.9,5.6-4.6c1-0.9,1.7-2.2,2.4-3.4c0.9-1.7-0.8-5.3-3.3-5.4c-1.5-0.1-2.7,0.3-3.8,1.2
		c-1.8,1.3-3.6,2.6-5.3,4.1c-1.5,1.2-2.8,2.7-4.2,4c-1.8,1.6-3.6,3.3-5.4,4.9c-0.1-0.1-0.2-0.1-0.3-0.2c0.6-1.5,1.3-3,1.7-4.6
		c1.2-4.2,3.9-7.4,6.4-10.8c1.6-2.3,3.7-2.6,6.4-2.1c2.1,0.4,4.4,0.2,6.5,0.2c1.5,0,2.5-1.1,3.5-2.1c0.8-0.9,1.3-1.2,2-1.2
		c0.2-1,0.4-2,0.6-3.1c-0.1-0.1-0.1-0.3-0.1-0.5c0.3-2.4,1-4.7,1.4-7.1c0.2-1.1,0.3-2.2,0.5-3.3c0.1-0.4,0.1-0.8,0.2-1.2
		c0-0.2,0.1-0.4,0.1-0.6c0,0,0.1,0,0.1,0c0.2-0.6,0-0.4,0.7-0.6c-1,0.3-1.4-1.2-0.4-1.5c0.1,0,0.1,0,0.2-0.1c0.3-0.1,0.6,0,0.8,0.2
		c1,1.1-0.1,3.7-0.3,5c-0.1,0.7-0.2,1.4-0.4,2.1c0.1,0.1,0.1,0.3,0.1,0.5c-0.6,3.5-1.3,7.1-2,10.6c0.1,0,0.1,0,0.2,0.1
		c3.8,2,7.9,3.1,12.2,3.5c1.6,0.2,3.1,0.1,4.7,0.4c0.3-0.7,0.5-1.3,0.7-2c-0.2,0-0.4,0-0.6-0.1c0.1-0.1,0.1-0.3,0.2-0.4
		c1-3.4-0.1-8.1-0.3-11.6c-0.1-2.2-0.1-4.4-0.1-6.7c0-0.3,0-0.6,0.1-0.9c-0.2-1.6-0.3-3.3-0.4-4.8c0-0.4,0.3-0.7,0.6-0.7
		c0-0.1,0-0.1-0.1-0.2c0.1,0.1,0.2,0.1,0.3,0.2c0.4,0,0.8,0.2,0.8,0.8c0,0,0,0,0,0.1c0,0.1,0.1,0.1,0.1,0.2c0.2,1.1,0.3,2.3,0.3,3.4
		c0,0.4,0,0.8,0,1.1c0.8,7.3,2.7,15.4-0.1,22.1c0.2,0.1,0.3,0.1,0.5,0.2c0.8,0.4,1.5-0.2,1.5-1.2c0-7.3,0-14.6,0-21.9
		c0.6,0.4,1.3,0.3,1.9-0.2c0.3-0.3,0.7-0.6,1-0.9c0.1,0,0.1-0.1,0.1-0.2c1.2,0.8,2.4,1.6,3.7,2.4c3.5,2.4,7.1,4.7,10.6,7.2
		c6.4,4.7,13,8.9,19.9,12.7c3.7,2,6.6,4.9,8.9,8.6c3.9,6.4,6.4,13.2,8.1,20.4c0.7,3,1.7,5.9,2.2,9c0.5,3.1,0.6,6.3,1,9.5
		c0.1,0.6,0.4,1.1,0.6,1.6c0.4,1.4,0.8,2.7,1,4.1c0.4,4.9,0.6,9.8,1.1,14.7c0.4,4.1,1.3,8.2,1.8,12.4c0.4,3.5,0.5,6.8,0.8,10.3
		c0,0.1,0,0.3,0,0.4h1.9c-0.2-3.3-0.5-6.8-0.9-10.2c-0.5-4.6-1.3-9.1-1.8-13.7c-0.5-4.8-0.7-9.5-1.1-14.3c-0.2-1.8-0.9-3.5-1.2-5.3
		c-0.4-2.6-1-5.2-1-7.9c-0.1-3.7-1.5-7-2.2-10.5c-1.2-5.8-3.3-11.2-5.7-16.5c-3.1-6.8-7.8-12.1-14.6-15.6
		c-5.4-2.8-10.4-6.3-15.5-9.6c-3.5-2.3-7-4.6-10.3-7.1c-3.9-3-8.1-5.4-12.3-7.8c-3-1.8-5.4-4.2-7.3-7.2c-2.1-3.2-4.3-6.3-7.4-8.6
		c-1.6-1.2-3.5-1.6-5.4-1.6c-1.8-0.1-3.6,0-5.2,0c0.9-2.1,1.9-4.2,2.7-6.3c0.3-0.9,0.3-1.9,0.3-2.8c-0.1-3.3-0.2-6.7-0.5-10
		c-0.5-4.7-5.3-4.8-8.3-3c-0.2,0.1-0.4,0.2-0.8,0.4c0-0.5-0.1-0.9-0.1-1.2c0.1-6.5-1.2-12.6-4.7-18.2c-1.2-1.9-2-4.2-3.1-6.2
		c-1.9-3.4-4.6-5.8-8.5-6.8c-2.8-0.7-5.5-1.5-8.3-2.2c-0.8-0.2-1.6-0.4-2.4-0.5c-4-0.1-8.1-0.4-12.1-0.2c-2.4,0.2-4.8,1.2-7.2,1.9
		c-0.9,0.3-1.8,0.8-2.7,1.2C50,3.9,48,4.9,46.5,6.8c-0.8,0.9-1.8,1.7-2.6,2.5c-1.8,1.9-2.2,4.6-3.3,6.8c-1,2-1.8,4-2.8,6
		c-1.6,3.3-3.1,6.6-3.7,10.2c-0.7,4.4-1,8.8-0.9,13.3c0.2,4.4,1.1,8.6,2.6,12.7c0.4,1,1.2,1.9,1.6,3c0.6,1.7,1.3,3.4,1.6,5.2
		c0.5,2.2,1.9,3.9,3.3,5.6c0.8,0.9,1.4,2,2.2,3.1c-0.5,0.3-0.8,0.5-1.1,0.6c-0.5,0.1-1,0.2-1.4,0.3c-2.9,0.1-5.8,1.9-8.2,4.2
		c-1.4,1.1-2.7,2.3-3.9,3.7c-4.4,4.8-7.6,10.5-10,16.5c-1.4,3.4-2.3,6.9-2.6,10.6c-0.2,2.2-0.8,4.4-1,6.7c-0.4,3.4-0.3,6.9-1.3,10.2
		c-0.4,1.3-0.9,2.6-1.6,3.8c-3.1,5.9-5.8,11.9-7.6,18.3c-1.4,5-2.8,9.9-4,14.9c-1.3,5.2-1.8,10.6-1.5,16
		C0.2,183.6,0,186.3,1.4,188.7z M135.1,77.7c0.2,0.1,0.4,0.2,0.5,0.4c0,0,0,0,0,0.1c-0.2,0.2-0.4,0.3-0.5,0.5
		C135.1,78.3,135.1,78,135.1,77.7z M117.2,143.1c1.7,0,2.4,0.9,2.4,3.1c0,1.2-0.8,2.3-1.8,2.4c-1.4,0.1-3.3-1.7-3.3-3
		C114.5,144.3,115.6,143.2,117.2,143.1z M120.7,125.7c1.4,0,2.4,1.5,2.4,3.3c0,1.7-1.1,3-2.6,3c-1.3-0.1-2.9-2-3-3.5
		C117.6,127.6,119.6,125.7,120.7,125.7z M115.6,111.9c1.7,0,3.1,1.4,3.1,3.1c0,1.6-1,3-2.2,3c-1.7,0.1-3.6-1.8-3.6-3.6
		C112.9,113.6,114.6,111.9,115.6,111.9z M104.9,107.1c1.4,0,2.8,1.4,2.8,2.8c0,1.1-1,2.2-2.1,2.2c-1.3,0-2.8-1.4-2.8-2.7
		C102.7,108.2,103.7,107.1,104.9,107.1z M114.7,83.4c-0.7,3.2-1.5,6.3-2,9.5c-0.4,2.2-1,4.1-2.5,5.7c-0.6,0.7-1.5,1.4-2.3,1.5
		c-2.6,0.2-5.2,0.1-8,0.1c3.2-4.3,6.2-8.3,9.1-12.2c2.2-2.9,3.8-6,4.9-9.4c0.1-0.2,0.1-0.4,0.2-0.6c-0.1,0.6-0.1,1.2-0.2,1.7
		c-0.1,1.2,0.3,2.1,0.9,2.7C114.7,82.7,114.7,83.1,114.7,83.4z M115.2,59.3c1.1,0.1,2.4,0.6,2.6,2.1c0.1,0.6,0.1,1.2,0,1.8
		c-0.5,1-0.7,2.1-0.9,3.3c-0.3,0.7-0.6,1.3-1,2c-4-2.3-7.3-5.3-9.9-9.6C109.4,58.9,112.3,59,115.2,59.3z M106.9,37.2
		c0.6,0.9,1.8,1.3,1.8,2.7c0,2.4,0.1,4.7,0.2,7.1c0.1,3-0.8,5.6-2.6,7.9c-0.8,1.1-2.1,1.8-3.3,2.4c-0.4,0.2-1.3-0.2-1.7-0.6
		c-0.4-0.5-0.5-1.3-0.8-2.1c2.6-0.2,3.4-0.9,3.7-3.2c0-0.4,0-0.9,0.1-1.3c0.1-0.5,0.3-1.2,0.6-1.5c1.1-1,1.6-2.2,1.6-3.6
		c0-0.4-0.3-0.7-0.5-1.1c-0.3,0.3-0.7,0.6-0.9,0.9c-0.3,0.7-0.3,1.7-0.7,2.2c-1.3,1.3-1.8,2.7-1.7,4.5c0.1,1.3-0.7,1.7-1.8,1.5
		c0.2-0.4,0.3-0.9,0.5-1.3c0.7-1.8,0.5-2.4-0.9-3.7c-0.8-0.7-0.8-2.6-0.2-3.5c1.6-2.1,3-4.3,4.7-6.4
		C105.5,37.4,106.8,37.1,106.9,37.2z M44.4,70.5c-1.7-0.6-2.9-1.8-3.4-3.7c-0.4-1.5-0.7-3.1-1.4-4.5c-2.5-5-3.9-10.2-4.4-15.7
		c-0.4-4.1,0-8.2,0.5-12.3c0.5-4.1,2.1-7.9,4-11.6c1.1-2.2,2.1-4.5,3-6.8c1.5-3.9,3.9-7.1,7.2-9.5c1.5-1.1,3.5-1.5,5.2-2.3
		c3-1.5,6.1-2.4,9.5-2.3c3,0.1,6,0.1,9,0.3c1.5,0.1,2.9,0.4,4.3,0.8c2.1,0.5,4.1,1.3,6.2,1.8c3.3,0.8,5.7,2.8,7.3,5.7
		c1.6,3,3,6.1,4.6,9.1c3,5.9,4,12.2,2.2,18.6c-0.3,1.2-0.2,2,1,2.7c1.8-1.5,2.6-4.3,5.6-4.9c-0.5,0.5-0.7,0.8-0.9,1.1
		c-1.6,2.1-3.1,4.3-4.6,6.4c-1,1.3-0.9,4.6,0.3,5.3c1.2,0.7,1,1.5,0.6,2.5c-0.9,2.2-1.1,4.3,0.3,6.3c0.6,0.9,1.2,1.7,2.5,1.3
		c0.3-0.1,0.8,0.2,1,0.5c1.6,2,3.1,4.1,4.9,5.9c1.6,1.6,3.5,2.9,5.3,4.3c0.9,0.7,0.9,1.2,0.5,2.2c-1.2,2.6-2.2,5.2-3.3,7.8
		c-0.3,0.8-0.6,1.7-1.1,2.5c-2.3,3.4-4.8,6.7-7,10.2c-2.5,3.9-6,6.8-9.1,10.1c-2.1,2.2-4.2,4.3-5.4,6.9c-1.8,3.8-3.2,7.9-4.8,11.8
		c-0.3,0.8-0.9,1.5-1.4,2.2c-0.4,0.5-1,0.9-1.5,1.3c-0.2,0.2-0.7,0.4-0.8,0.3c-0.2-0.2-0.4-0.5-0.4-0.8c-0.2-1.7-0.3-3.4-0.6-5.1
		c-0.6-3.5-1.1-7-1.8-10.4c-0.4-1.8-0.3-2.4,1.6-2.5c2.8-0.2,5.1-1.6,7-3.5c1.9-1.9,3.6-4.1,5.3-6.3c3.7-5.1,7.7-10,10.1-15.9
		c1.1-2.9,2.3-6,2.6-9.1c0.3-3.2-0.3-6.4-0.6-9.6c0-0.4-0.5-0.7-0.8-1.1c-0.2,0.4-0.6,0.8-0.6,1.3c0.1,1.8,0.3,3.6,0.5,5.3
		c0.3,3.1-0.6,5.9-1.4,8.8c-1.1,3.7-2.6,7.1-4.9,10.2c-1.3,1.8-2.4,3.8-3.8,5.6c-1.1,1.5-2.4,2.8-3.4,4.3c-2.2,3.7-5.2,6.4-9.1,8.1
		c-1.7,0.8-3.7,1.7-5.6,0.7c-2.3-1.1-4.4-2.5-6.6-3.8c-0.3-0.2-0.4-0.5-0.7-1c0.7,0.2,1.2,0.3,1.6,0.4c3.2,0.7,6.4,0.8,8.8-2
		c1.6-1.9,2.8-4.2,4.1-6.3c0.4-0.6,0-0.9-0.6-0.9c-0.8,0.1-1.6,0.1-2.4,0.3c-4.8,1.1-9.7,2.2-14.5,3.4c-0.9,0.2-1.5,0.1-1.7-0.9
		c0.8-0.2,1.6-0.2,2.4-0.5c0.8-0.3,1.6-0.6,2.3-1c1.3-0.7,2.6-1.3,3.8-2.2c0.9-0.6,1.8-1.4,2.4-2.2c0.8-1.1,0.5-2.5-0.2-3.6
		c-0.2-0.3-0.8-0.3-1.2-0.5c0,0.3-0.2,0.7-0.1,0.9c1.2,1.9,0.9,3.3-1,4.3c-1.7,1-3.4,2-5.1,3c-1.3,0.7-2.6,1.1-4.1,0.6
		c-2.5-0.7-4.1-3.2-3.7-5.7c0.4-2.9,1.2-5.8,0.6-8.8c-0.7-3.5-1.2-4.1-4.3-4.9C50.9,72.6,47.6,71.6,44.4,70.5z M76.2,95.4
		c0.7-0.5,1.6-0.9,2.3-1.4c0.1,0.1,0.1,0.2,0.2,0.3c-1.1,2-2.3,4.1-4.7,4.8c-1.2,0.3-2.5,0.3-3.7,0.3c-2.3-0.1-4.2-1.2-5.9-2.5
		c0-0.1,0.1-0.3,0.1-0.4c0.7,0.1,1.4,0.1,2,0.3C70,98.2,73.2,97.5,76.2,95.4z M67.6,95.4c2.5-0.6,5-1.2,7.7-1.8
		C74.8,95.4,69.8,96.7,67.6,95.4z M57.6,79.4c-0.1,3.4-0.5,6.8-0.7,10.4c-5.5-4.7-8.9-10.7-11.8-17.2c0.4,0.2,0.7,0.3,1.1,0.4
		c2.3,0.8,4.4,1.9,7,1.5c1.3-0.2,2.9,0.1,3.6,1.4C57.3,76.9,57.6,78.2,57.6,79.4z M30.5,135.8c0.1-0.5,0.5-0.6,0.8-0.5
		c0.1-0.1,0.2-0.1,0.3-0.2c0,0.1,0.1,0.3,0.1,0.4c0.2,0.2,0.3,0.4,0.3,0.7c0,0.1,0,0.2,0,0.3c0.3,1.4,0.7,2.9,1,4.3c0,0,0,0,0,0.1
		c0.5,1.1,1.1,2.1,1.5,3.2c0.6,1.4,0.8,3,1.1,4.5c0.4,2,0.8,4.1,0.8,6.2c0.2,0.8,0.4,1.7,0.6,2.5c0.1,0.5,0,1.5-0.2,1.6
		c-0.8,0.1-1.7,0.4-2.4,0.3c0.3-0.2,0.5-0.6,0.7-0.9c-0.3-0.2-0.5-0.5-0.4-0.8c0.1-0.9,0.2-2,0.1-3c-1.2-3-1.5-6.3-1.9-9.5
		c-0.1-0.4-0.3-0.8-0.5-1.1C31.5,141.1,30.1,138.8,30.5,135.8z M30.1,161c3.3,0.8,6.6,0.6,9.7-0.8c3.1-1.5,6.2-3,9.2-4.5
		c3.5-1.7,6-4.2,7.2-8.1c0.8-2.5,0.5-5.4,2.1-7.7c0.1-0.1,0-0.2,0-0.4c0-1.4-0.1-2.8-0.1-4.2c0.1-2.1,0.6-4.1,2-5.8
		c1.2-1.5,2-3.1,2.4-5.1c0.7-3.5,1.8-6.9,1.6-10.5c-0.1-1.4-0.2-2.9-0.3-4.3c0,0,0-0.1,0-0.1l1-0.3c0.1,0.1,0.2,0.2,0.3,0.2
		c0.1,0,0.1,0.1,0.2,0.1c0,0,0,0,0,0c0.9,2.1,2,4.2,2.8,6.4c0.4,1.2,0.7,2.5,0.6,3.8c-0.1,1.5-0.8,2.9-1.1,4.4
		c-0.7,2.9-1.5,5.8,0.7,8.3c-1,0.8-2,1.4-2.9,2.2c-0.3,0.3-0.3,0.9-0.4,1.3c0.5,0,1,0.1,1.4-0.1c1.6-1,3.2-2.1,4.8-3
		c2-1.2,4-2.2,6-3.4c1-0.6,1.9-1.3,2.7-2c3.3-2.8,6.7-5.5,9.9-8.3c0.8,0.8,1.4,1.6,2.1,2.2c0.2,0.2,0.7,0.1,1.1,0.1
		c0-0.4,0.2-0.8,0-1c-0.3-0.4-0.7-0.8-1.1-1.1c-0.9-0.7-1-1.2,0-2c1.3-1.1,2.5-2.3,3.8-3.4c1.7-1.4,3.4-2.8,5.3-4.3
		c0.1,2.7,2.2,3.2,3.6,4.4c-0.4,0.3-0.7,0.7-1,0.9c-4.5,3.3-9.3,6.3-12.6,10.9c-0.2,0.2-0.4,0.4-0.6,0.6c-1,1.3-2.4,2.5-2.7,3.9
		c-0.5,1.9-1.1,3.3-2.8,4.3c-0.3,0.1-0.3,0.8-0.4,1.2c0.5,0,1,0.1,1.4-0.1c1-0.6,2-1.2,3-1.9c1.5-1.1,3.3-2,4.4-3.4
		c1.5-1.9,3.5-3.1,5.5-4.5c0.5,0.6,0.8,1.2,1.3,1.7c0.2,0.3,0.7,0.3,1,0.5c0.1-0.4,0.3-0.9,0.2-1.2c-0.3-0.7-0.8-1.2-1.1-1.7
		c3.7-3.3,7.4-6.6,11.2-10c0,2.4,2,3.1,3.8,4.2c-1.3,1.1-2.4,2.1-3.6,3.1c-3.5,3-6.9,5.9-10.3,9c-2.1,1.8-4,3.8-6.1,5.6
		c-1.3,1.1-2.7,2-4,3.1c-0.4,0.4-0.8,1.3-0.6,1.7c0.3,0.8,1,0.5,1.6,0.1c0.2-0.1,0.3-0.3,0.5-0.4c3-1.4,6-2.7,9.1-4.1
		c0.5,0.7,1,1.5,1.6,2.3c0.3,0.3,0.8,0.5,1.2,0.7c0-0.5,0.1-1.2-0.1-1.6c-0.4-0.8-1-1.5-1.3-1.9c4.4-2.8,8.6-5.5,13.1-8.3
		c0.1,2.3,1.6,3.6,3.3,4.7c-0.3,0.3-0.5,0.4-0.7,0.6c-4,2.5-8.1,5.1-12.2,7.5c-1.7,1-3.7,1.5-5.2,2.7c-3.1,2.3-6,4.8-9,7.2
		c-0.5,0.4-1,0.9-1.3,1.5c-0.2,0.3,0,0.8,0.2,1.1c0,0.1,0.7,0.1,0.9-0.1c1.7-1.6,3.9-2,5.9-2.8c2.4-1,5.2-1,7.5-2.5
		c2.3-1.5,4.9-2.7,7.2-3.9c0.3,1.1,0.4,2.3,0.9,3.1c0.6,0.9,1.6,1.5,2.4,2.3c-0.1,0.1-0.3,0.2-0.5,0.3c-2.2,0.9-4.4,1.7-6.5,2.7
		c-4.6,2.1-9.1,4.4-13.7,6.6c-1.9,0.9-3.9,1.9-5.7,3c-0.8,0.5-1.5,1.2-2.3,1.7c-1.4,0.8-2.9,1.4-4.3,2.1c-3.5,1.9-7.3,2.8-11.2,2.7
		c-1.7,0-3.2,0.4-4.5,1.5c-1.4,1.3-2.6,2.7-4,4c-4.9,4.4-9.5,9.2-15.5,12.2c-4.3,2.1-8.7,4.3-13.5,5.3c-1,0.2-1.9,0.7-2.8,1
		c-0.3,0.1-0.8,0.2-1.1,0c-2.4-1.5-4.9-2.9-7.2-4.5c-4.2-2.8-7.2-6.4-6.5-11.9c0.2-1.4,0.1-2.9,0.2-4.3c0.1-0.8,0.3-1.6,0.7-2.2
		c2.2-4,5.5-6.9,9.7-8.5C28.2,161.1,29.2,160.8,30.1,161z M13.2,156.9c0.7-0.2,1.3-0.4,2-0.5c4.3-1.7,9.8-2.9,13.9-0.4
		c0.4,0.3,0.4,0.7,0.3,1c0.1,0.1,0.1,0.2,0.2,0.3c-0.1,0-0.3,0-0.4,0c-0.2,0.2-0.5,0.2-0.8,0c0,0,0,0-0.1,0c-0.3,0-0.6,0-1,0
		c-0.2-0.1-0.3-0.1-0.5-0.1c-0.9,0-1.7,0-2.6,0.1c-2.3,0-4.6,0-7,0c-0.1,0-0.1,0-0.2,0.1c-0.7,0.2-6.5,3.3-6.7,3.1
		c0.8,0.6-0.3,1.7-1.1,1.1c-1.1-0.9-0.2-1.9,1.1-2.8c-0.6,0.3-1.2,0.8-1.7,1.3C9.5,158.7,10.8,157.6,13.2,156.9z"/>
	<path class="st0" d="M69.5,71.2c3.3-1.9,6.4-3.7,9.6-5.5c0.5-0.3,1-0.7,1.4-1.1c0.2-0.3,0.1-0.8,0.2-1.2c-0.4,0-0.9-0.2-1.1-0.1
		c-3.2,1.7-6.4,3.6-9.6,5.3c-1.9,1-3.9,1.6-5.9,2.4c-0.4,0.2-1,0.2-1.3,0.6c-0.4,0.4-0.8,1.1-0.7,1.6c0.3,0.8,1,0.6,1.6,0.3
		c1.1-0.6,2.2-0.7,3.6-0.3c1.5,0.4,3.2,0.1,4.9,0.1c3.8,0,6.7-2,9.3-4.4c0.3-0.2,0.2-0.8,0.3-1.2c-0.4-0.1-1-0.3-1.3-0.1
		c-0.6,0.3-1.1,0.8-1.7,1.3C76.2,70.8,73.2,71.7,69.5,71.2z"/>
</g>
<path class="st0" d="M87.9,119.8c3.9-3.8,7.7-7.9,12.2-10.9c1.3-0.7,2.6-1.4,3.9-2.3c1.7,0.4,3.1,1.3,4.1,2.6
	c0.2,0.2,0.6,0.4,0.9,0.4c-1.9,4.4-7.3,8.4-10.7,11.3c-3.5,3-7.2,5.5-9.8,9.3c-1,1.4,1.2,3,2.4,1.8c4.1-4.2,9.5-6.6,13.8-10.6
	c3.5-3.2,6.8-6.5,10.2-9.8c1.8,0.1,3.3,0.6,4.5,1.6c-0.4,0.5-0.8,1.1-0.9,1.8c-0.3,1-0.2,2.1,0.2,3.1c-3.2,2.5-6.5,4.9-9.7,7.5
	c-4,3.2-7.1,7.2-11.9,9.6c-1.7,0.9-0.2,3.4,1.5,2.6c3.5-1.7,6.9-3.7,10.1-5.9c0,0,0.1,0,0.1,0c0.3,0.1,0.6,0,1-0.1
	c1.3-0.6,2.2-1.3,3-2.3c0.4-0.3,0.8-0.6,1.3-0.8c0.2-0.1,0.3-0.2,0.4-0.4c1.2-0.7,2.4-1.3,3.7-1.9c0.4-0.2,0.7-0.5,0.7-0.9
	c0.1,0,0.2-0.1,0.3-0.1l1.4-0.2c0.4-0.1,0.7-0.2,0.9-0.5c0.3,0.1,0.7,0.2,1,0.3c0.1,1.3,0.4,2.6,0.7,4c0.1,0.5,0.4,1,0.8,1.3
	c-0.1,0.5-0.1,1-0.3,1.5c-8,6.5-17.8,10.9-26.7,16.2c-1.4,0.9-0.5,3.3,1.2,2.7c5.4-1.7,18-12.8,22.5-5.7c0.1,0.1,0.2,0.2,0.3,0.3
	c-0.2,0.8-0.5,1.7-0.8,2.5c-1,3.1,2.9,4.7,4.9,2.9c0,0,0,0,0.1,0c-1,2.8,3.5,5.1,5.6,2.2c0.1-0.1,0.2-0.3,0.3-0.4
	c0.9,1.9,3.6,2.7,5.1,0.4c1,1.8,4,2.5,5.3,0.2c3-5.3,4.2-11.3,6.3-17c0.1-0.2,0.2-0.5,0.4-0.7c0,0,0-0.1,0-0.1
	c0.1-0.2,0.3-0.5,0.4-0.7c1,0.7,2.2,1.1,3,1.9c0.2,0.2,0.3,0.3,0.5,0.5c0.6-0.1,1.3,0.5,0.9,1.1c0.3,0.4,0.6,0.8,0.9,1.1
	c-2.3,3.9-4.4,7.8-6.2,11.9c-0.9,2.1-1,3.8-0.1,5.4c0.1,0.1,0.2,0.2,0.3,0.3c0,0.1,0.1,0.2,0.1,0.3c0.2,0.3,0.5,0.7,0.8,1
	c-0.1,0.3-0.1,0.6,0,0.9c0.1,0.4,0.2,0.8,0.3,1.3c0.4,1.4,0.8,2.9,1.1,4.3c1.2,4.2,2.6,8.3,3.7,12.4c1.4,5.3,2.5,10.6,3.4,16h41.1
	c-0.1-0.2-0.1-0.5-0.2-0.7c-0.2-0.8-0.2-1.5-0.2-2.3c0.1-0.4,0.1-0.8,0.1-1.3c-0.1-1.9-0.3-3.5-1-5.3c0-4.8-0.4-9.5-1.3-14.3
	c-0.1-0.7-0.3-1.2-0.6-1.7c0-2.3,0-4.5-0.1-6.8c-0.1-2.6,0.1-5.6-1.2-7.9c-0.2-2.2-0.3-4.4-0.5-6.5c-0.1-1.1-0.5-2.1-1-2.9
	c0.2-1.9-0.2-3.3-0.9-4.6c-0.6-3.5-1.3-7-2.3-10.5c-0.1-0.2-0.1-0.4-0.2-0.6c-1.6-6.6-3.9-13-7.9-17.9c0.2-1.4-0.2-2.8-1.5-3.8
	c-3.1-2.5-5.7-5.8-9.4-7.4c-2.5-1.1-5.1-2.1-7.8-2.8c-0.1-0.2-0.3-0.3-0.5-0.5c-0.7-0.4-1.4-0.8-2.1-1.1c-0.1-0.3-0.3-0.6-0.7-0.8
	c-1.1-0.7-2.1-1.3-3.2-2c-0.7-0.5-1.4-0.9-2.1-1.4c-0.2-0.1-0.4-0.2-0.6-0.2c-0.3-0.2-0.6-0.4-1-0.6c-1.1-1-2.2-2.1-3.3-3.2
	c-0.5-0.5-1.2-0.5-1.8-0.2c-1.7-2-3.2-3.6-5.7-4.7c-0.2-0.1-0.5-0.1-0.7,0c-0.5-0.6-1.1-1.2-1.6-1.8c-0.4-0.5-1.1-0.5-1.7-0.3
	c0-0.2-0.1-0.3-0.1-0.5c-0.4-1.6-3.1-1.3-2.9,0.4c0.1,1.5,0.3,3,0.4,4.4c-0.2,0.2-0.3,0.5-0.3,0.8c-0.2,1.3-0.3,2.6-0.4,3.9
	c0.7,5.3,1.1,10.7-0.7,15.4c0,0.3,0,0.5,0,0.8c0,0.3,0.1,0.5,0.2,0.7c0,0.1-0.1,0.2-0.1,0.2c-0.3,0-0.5,0.1-0.8,0.1
	c0,0.1-0.1,0.2-0.1,0.3c-0.4,0.7-1.3,0.4-1.4-0.3c-4.9-0.1-9.6-1.2-14.1-3c-4-1.5-5.2-0.1-8.6,1.2c-0.6-0.1-1.1-0.3-1.7-0.4
	c-0.3-0.3-0.6-0.6-1.1-0.6c-0.7-0.1-1.3-0.1-1.9-0.1c-0.1-0.2-0.2-0.3-0.4-0.5c5.2-0.3,8.8-2.6,10-8.7c0.1-0.4,0-0.8-0.2-1.1
	c1.2-3.1,1.9-6.5,2.8-9.4c-0.2-0.3-0.3-0.8,0.1-1.1c-0.1-0.3-0.3-0.6-0.5-0.7c0.3-0.6,0.6-1.3,1-1.9c0.9-1.7-1.7-3.2-2.6-1.5
	c-3.3,6.4-7,15.1-12.7,19.8c-0.3,0.2-0.4,0.5-0.5,0.8c-0.6,0.3-1.1,0.7-1.7,1c-1.2,0.7-0.8,2.3,0.4,2.7c-2,0.2-4,0.9-4.7,2.9
	c-3.8,3.8-6.3,9.2-9.1,13.6C84.6,119.4,86.7,121,87.9,119.8z"/>
</svg>
