<?xml version="1.0" encoding="utf-8"?>
<!-- Generator: Adobe Illustrator 19.2.1, SVG Export Plug-In . SVG Version: 6.00 Build 0)  -->
<svg version="1.1" id="Layer_1" xmlns="http://www.w3.org/2000/svg" xmlns:xlink="http://www.w3.org/1999/xlink" x="0px" y="0px"
	 viewBox="0 0 133.1 136.3" style="enable-background:new 0 0 133.1 136.3;" xml:space="preserve">
<style type="text/css">
	.st0{fill:#03A9F4;}
</style>
<g id="cold-lady">
	<path class="st0" d="M55.5,134.6c0.9-0.8,1.6-1.4,2.6-2.2c1,1,2.3,2,3.3,3.3c0.2,0.2,0.3,0.4,0.5,0.6h1.2c-0.3-0.4-0.6-0.8-0.9-1.1
		c-1.1-1.1-2.3-2-3.4-3.1c-0.9-0.9-1.6-1.9-2.5-3c1.8-0.9,2.3-2.4,2.1-4.2c2,0.7,3.6,2,4.8,3.5c1.6,2.1,3.5,3.5,5.5,5
		c1.2,1,2.5,2,3.9,2.9H74c-0.6-0.5-1.2-1-1.9-1.5c-2.2-1.8-4.6-3.4-6.8-5.3c-1.4-1.2-2.5-2.8-3.9-4c-1.4-1.2-3-2.2-5.2-1.6
		c-2.3,0.6-3,2-1.8,4.2c0.2,0.4,0.6,0.8,0.9,1.2c-2.2,1.9-1.6,1.4-0.6,6c0.1,0.4,0.3,0.7,0.5,1h1.1
		C55.9,135.7,55.7,135.1,55.5,134.6z M54.9,125.8c0.4-0.7,1.5-1,2.3-1.4c0.9,1.7,0.4,2.9-1.5,3.9C54.8,127.6,54.4,126.5,54.9,125.8z
		 M54.7,131.6c0-0.5,0.8-0.9,1.2-1.4c0.4,0.4,0.7,0.8,1.2,1.4c-0.6,0.6-0.9,1-1.3,1.5C55.4,132.6,54.7,132.1,54.7,131.6z"/>
	<path class="st0" d="M0.2,133.5c0,0.9-0.1,1.9-0.2,2.8h1.4c0.2-3.6,0.4-7.2,0.3-10.8c-0.1-2.6,0-5.1,0.3-7.6
		c0.3-2.1,0.7-4.3,1.1-6.4c0.5-2.9,0.8-5.8,1.6-8.6c1-3.4,2.2-6.7,4.4-9.5c0.7-0.8,1.8-1.3,2.7-1.8c1.2-0.7,2.6-1.2,3.8-1.8
		c0.9-0.5,1.7-0.5,2.4,0.2c1.8,1.8,3.7,3.6,5.3,5.6c0.4,0.5,0.4,1.8,0.2,2.6c-0.9,4-1.8,7.9-2.8,11.8c-0.3,1.4-0.8,2.8-1.2,4.1
		c-0.7-0.9-1.4-1.7-2.1-2.5c-0.2-0.3-0.7-0.4-1-0.5c0.1,0.4,0.1,0.9,0.3,1.2c0.6,1.1,1.4,2.1,1.8,3.3c0.3,1.1,0.1,2.3,0.3,3.4
		c0.1,1.1,0.5,2.1,0.7,3.1c0.1,0.3,0.2,0.8,0.1,1.1c-1.3,3.7-2.6,7.3-3.9,10.9c-0.3,0.7-0.5,1.5-0.8,2.2h1.2c0.2-0.5,0.4-1,0.6-1.5
		c0.3-1.1,0.7-2.2,1.1-3.3c2.1-5.7,4.3-11.5,5.6-17.5c0.1-0.6,0.3-1.2,0.6-1.8c1.5-3,1.6-6.2,1.3-9.4c-0.4-3.8-0.6-7.7-1.7-11.4
		c-1.1-3.7-0.6-7.3,0.3-11c0.4-1.6,0.6-3.3,1-5c0.3-1.2,0.8-2.4,1.3-3.5c0.1-0.3,0.7-0.4,1-0.5c2.4-0.4,4.7-0.8,7-1.1
		c2.5-0.4,4.9-0.7,7.4-0.9c1.6-0.1,2.5,0.7,2.4,1.9c0,0.4-0.3,1.1-0.6,1.2c-1,0.4-1.8,1-3.1,0.9c-2.1-0.2-4.2-0.1-5.9,1.6
		c-0.1,0.1-0.4,0.2-0.6,0.2c-1.7,0.1-2.5,0.7-3.1,2.3c-0.6,1.7-1.1,3.3-1.9,4.9c-0.4,0.8-1.2,1.4-1.8,2c-0.2,0.2-0.5,0.4-0.6,0.7
		c1.4,0.1,2.2-0.8,2.9-1.8c1.8-2.4,3.6-4.8,5.4-7.2c1.5-2,3.6-2.1,5.8-1.8c0.7,0.1,1.5,0.3,2.2,0.3c1.6,0.1,3.4,2.2,3.1,3.8
		c-0.2,0.9-1,1.2-1.9,1.2c-3.8,0.1-7.5,2.8-8.2,6.4c0.3-0.1,0.6-0.1,1-0.2c0.1,0.1,0.1,0.3,0.1,0.3c-0.5,0.4-1.1,0.7-1.7,1.1
		c-0.3,0.2-0.8,0.3-0.9,0.6c-0.5,1.2-0.9,2.5-1.2,3.9c0.3-0.3,0.7-0.5,0.8-0.8c0.6-1.7,1.6-2.7,3.1-3.7c1.5-0.9,2.5-2.6,3.7-4
		c0.6-0.8,1.3-1.7,2-2.4c0.8-0.8,3-0.5,3.6,0.3c0.1,0.1,0.2,0.3,0.3,0.4c1.6,2.4,1.2,4-0.8,6c-1.8,1.9-3.3,4.2-4.9,6.3
		c-0.3,0.4-0.7,0.8-1,1.3c-0.1,0.1-0.1,0.4-0.1,0.6c0.2,0,0.4,0.1,0.6,0c0.1-0.1,0.3-0.2,0.4-0.4c2-2.8,5.3-4.2,7.7-7.1
		c1,1.6,1.9,2.8,2.9,4.5c0.1,0.2-0.2,0.9-0.5,1.2c-0.9,0.8-1.8,1.6-2.7,2.4c-2,1.7-2.8,4-2.9,6.6c-0.1,3.3-0.5,6.5-2.1,9.5
		c-0.2,0.4-0.4,0.8-0.7,1.1c-2.3,2.9-4.5,6-5,9.9c-0.4,2.8-0.5,5.6-0.8,8.4c-0.1,1.5-0.3,3-0.4,4.5h8.2c-1.9-2.5-3.2-5.2-4.8-7.7
		c-2.3-3.8-1-6.9,0.8-10.2c1.5-2.6,3.4-4.9,4.4-7.8c0.8-2.2,0.8-4.4,1.1-6.6c0.1-0.3,0.1-0.5,0.1-0.8c1.6,0.9,3.2,1.8,4.8,2.7
		c0.5,0.3,1,0.7,1.5,0.7c1.7,0.1,2.3,1.2,3,2.5c0.6,1.1,1.3,2.1,2.1,3.1c0.2,0.2,0.7,0.3,1.2,0.6c0-2.2,0.2-4.3-0.1-6.2
		c-0.4-2.9-1.2-5.7-2.3-8.4c-0.9-2.2-1.1-4.6-1.6-7c-0.1-0.3,0.2-0.7,0.4-0.9c2.4-1.7,3.9-4.2,5.8-6.4c0.5-0.6,0.9-1.2,1.5-1.6
		c2.5-1.9,3.7-4.6,5.3-7.1c1.5-2.3,2.4-4.7,2.7-7.4c0.2-1.3,0.8-2.6,1.3-3.9c0.3-0.6,0.8-1.2,1.5-0.3c0.1,0.1,0.6,0,1,0
		c0.1,1.3,0.2,2.7,0.2,4c0.1,3.5,0.7,6.8,2.2,10c0.2,0.5,0.3,1,0.6,1.5s0.6,1.2,1.1,1.5c3.3,2,6.6,4,10.1,5.8
		c1.7,0.8,3.7,1.2,5.6,1.7c1.6,0.4,1.6,0.5,1.2,2.1c-0.5,2-0.9,4-1.2,5.9c-0.2,0.6-0.3,1.2-0.3,1.8c-0.1,0.4-0.2,0.8-0.2,1.3
		c-0.3,1.7-0.2,3.5-0.7,5.2c-0.2,0.8-1.4,1.6-2.3,2c-4.1,1.8-7.9,4.1-12.3,5.2c-1.9,0.4-3.7,1-5.7,1.6c0,0.1,0.2,0.3,0.4,0.3
		c0.8,0,1.7,0.1,2.5-0.2c3.6-1.4,7.6-2.1,11-4.2c2-1.2,4.1-2,6.2-3c-0.2,1-0.3,2-0.4,2.9c-0.2,0.9-0.3,1.7-0.5,2.6
		c-1,4.6-2.1,9.3-3.3,13.9c-0.4,1.4-1.1,2.8-1.7,4.2c-0.1,0.3-0.7,0.5-1,0.5c-1.1-0.1-2.2-0.7-3.3-0.6c-1.8,0.1-2.8-0.9-4-1.8
		c-2.1-1.6-4.2-3.2-6.4-4.7c-2.3-1.6-4.9-2.1-7.7-1.8c-1,0.1-1.4,1.4-0.9,2.7c0.7,1.8,1.8,3.2,3.4,4.3c3.3,2.4,6.2,5,8.9,7.9h0.6
		c-0.4-0.4-0.8-0.9-1.1-1.3c-2.6-3.1-6.2-5.2-9.2-7.9c-0.4-0.3-0.8-0.5-1.4-0.9c1.8-1.2,3-2.1,2.6-4.1c0.2-0.1,0.3-0.1,0.4-0.2
		c1.8,0.9,3.9,1.6,5.5,2.9c3.5,2.8,6.9,5.8,10.2,8.7c1,0.9,1.8,1.9,2.7,2.8h0.7c-0.2-0.4-0.3-0.8-0.5-1c-1.3-1.4-2.7-2.7-4.1-4
		c0.1-0.1,0.1-0.2,0.2-0.3h0.5c1.7,0.4,3.5,0.7,5.2,1c1.6,0.3,2.3,0.9,2.4,2.4c0.1,0.6,0.1,1.3,0.1,1.9h19.2
		c-2.9-13.3-3.3-26.7,1.7-40c0.1-0.1,0.1-0.3,0.2-0.4c0.1-0.1,0.1-0.3,0.2-0.4c1.2,0.6,2.4,1.1,3.5,1.8c3.5,2.1,7.1,4.2,10.5,6.6
		c1.5,1,3,2.4,3.5,4c0.9,2.4,1,5.1,1.2,7.7c0.3,3.3,0.4,6.6,0.5,9.9c0.1,3.6,1.2,7.2,1.5,10.8h1c-0.1-1.3-0.2-2.6-0.4-3.8
		c-0.3-1.9-0.7-3.7-0.9-5.6c-0.5-6.1-0.9-12.2-1.4-18.3c-0.2-2-1.1-3.6-2.5-4.8c-1.1-0.9-2.3-1.7-3.5-2.4c-3.3-2.1-6.6-4.4-10.1-6.2
		c-4.1-2.2-8.5-3.9-12.7-5.8c-2.7-1.2-5.5-2.3-8.2-3.4c-0.2-0.1-0.4-0.2-0.5-0.3c-0.7-1.3-1.7-2.6-1.4-4.3c0.4-2.2-0.4-4.2-2-5.7
		c-1-0.9-0.9-1.8-0.7-2.9c0.2-1.3,0.2-2.7,0-4c0-0.6-0.8-1.4-1.3-1.5c-1.4-0.2-1.5-1-1.5-2.1c0.1-2.3,0.1-4.5-1-6.6
		c-0.5-1-0.3-2.1,0.5-3.1c0.8-0.9,1.5-1.8,2.1-2.7c2-3,2.7-6.4,3-9.8c0.2-2.9-1-5.3-2.6-7.5c-0.6-0.8-0.7-1.6-0.5-2.6
		c0.8-3.7,1.2-7.2-1.3-10.6c-1.8-2.5-3.3-5.3-5.8-7.3c-0.9-0.6-1.5-1.5-2.3-2.3c-1.2-1.3-2.4-2.5-3.6-3.7c-1.1-1-2.3-1.9-3.4-2.9
		c-3.8-3.6-8.5-5.5-13.6-5.9c-5.1-0.5-10.3-0.1-15.3,1.5c-1.7,0.6-3.6,1-5.2,1.8c-1.8,0.9-3.5,2.1-5.3,3.1c-0.4,0.2-0.8,0.5-1.1,0.8
		c-1.7,1.7-3.6,3.2-5.1,5c-3.4,3.9-6,8.4-7.3,13.4c-0.5,1.9-0.5,4-0.2,5.9c0.6,3.9,1.5,7.8,2.2,11.7c0.2,1.1-0.2,2.2-0.2,3.3
		c0,0.9-0.2,2,0.2,2.7c1.2,2.1,1.6,4.4,2,6.7c0.4,2.1,0.5,4.2,0.7,6.3c0.1,0.4-0.1,0.9-0.3,1.1c-0.9,0.9-1.9,1.9-3,2.5
		c-2.8,1.5-5.6,2.9-8.4,4.4c-2,1.1-3.9,2.2-5.8,3.4c-0.5,0.2-1,0.6-0.5,1.3c1.9,2.6,3.8,5.2,5.7,7.8c1.4,1.8,2.9,3.5,4.4,5.3
		c-1.7,0.8-3.4,1.6-5.1,2.5c-0.7,0.4-1.4,0.8-1.9,1.4c-2.5,3.2-4,7-4.9,10.9c-0.9,3.6-1.4,7.3-1.9,11c-0.5,3.6-0.8,7.2-1,10.8
		C0,127.7,0.3,130.6,0.2,133.5z M30.7,80.3c-0.3-1.5,1.1-3.8,2.6-3.9C32.4,77.6,31.6,78.9,30.7,80.3z M37.5,85.5
		c-0.6-1.6,1.5-3.9,4-4.7c0,0,0.1,0.1,0.2,0.2C40.3,82.5,38.9,83.9,37.5,85.5z M42.6,92.4c-0.1,0-0.2-0.1-0.3-0.2
		c1.6-1.8,3.2-3.5,5-5.3C47.7,88.3,44.3,92,42.6,92.4z M66.2,122.9c-0.3,0.7-0.8,1.2-1.2,1.8c-0.2,0-0.4-0.1-0.6-0.1
		c-0.1-0.7-0.3-1.4-0.3-2.2c0-0.2,1-0.4,1.5-0.4C65.8,122,66.3,122.7,66.2,122.9z M57.6,110.9c-0.4-0.4-0.9-0.9-1.2-1.4
		c-0.5-0.7-0.7-1.6-1.2-2.3s-1.2-1.4-2-1.7c-2.5-0.9-4.8-2.2-6.8-3.8c-0.2-0.2-0.4-0.8-0.3-1c0.7-1.2,1.2-2.6,2.1-3.7
		c1-1.1,2.2-2.1,3.3-3.1c0.2,0.1,0.3,0.1,0.5,0.2c0.1,1.5,0.3,3.1,0.2,4.5c0,0.6,0.2,0.9,0.7,1.3c1.3,1.1,2.4,2.4,3.5,3.6
		C58.4,105.6,57.7,108.2,57.6,110.9z M80.1,43c1.6,0.4,2.8,1.1,2.7,3.2c-0.1,1.1-0.3,2.2-0.5,3.2c0,0-0.2,0.1-0.3,0.2
		c-0.3-1.6-0.4-3-0.6-4.5c-0.2-1.4-1.1-1.8-2.3-1c-0.6,0.4-1.2,0.8-1.9,1.2C77.3,43.8,78.8,42.7,80.1,43z M22.7,34.7
		c0.1-0.1,0.2-0.3,0.3-0.4c1.2-3,3.5-4,6.5-3.7c0.4,0,0.8,0.1,1.1,0.3c2.8,2.4,6,2.3,9.3,2c2.7-0.2,5.2-0.1,7.3,2.1
		c1.6,1.8,3.5,3.4,5.4,4.9c0.9,0.8,2.1,1.3,3.2,1.8c3.1,1.4,6.1,2.8,8.7,5.1c1.4,1.2,2.4,2.6,3,4.4c0.4,1.5,1,2.8,1.5,4.2
		c0.1,0.3,0.4,0.6,0.6,0.6s0.5-0.3,0.7-0.5c0.5-0.8,1-1.8,1.6-2.5c0.5-0.6,1.3-0.9,1.9-1.4c0.7-0.6,1.3-1.3,1.9-2
		c0.7-0.9,1.2-0.8,1.9-0.1c0.2,0.2,0.4,0.4,0.6,0.6c1.2,0.9,1.5,2.9,0.5,4c-0.7,0.8-1.6,1.6-2.5,2.2c-0.5,0.3-1.3,0.1-2,0.2
		c-0.3,0-0.7,0.1-1,0.1c0.3,0.3,0.5,0.9,0.7,0.9c0.9,0,2,0,2.8-0.3c2.3-1,4-3.6,3.7-6.1c-0.2-1.1-0.8-2.3-1.3-3.3
		c-0.1-0.3-0.9-0.3-1.4-0.3c-0.4,0-0.7,0.3-1.1,0.5c-0.1-1.3,0.4-1.8,1.3-2.3c2.3-1.2,2.3-1.2,2.8,1.3c0.4,1.8,0.7,3.5,0.9,5.3
		c0.1,0.8,0,1.9-0.5,2.6c-1.4,1.9-2.9,3.7-4.3,5.5c-0.1-0.1-0.2-0.3-0.2-0.4c-0.1-0.2-0.1-0.3-0.3-0.4c-0.3-0.5-0.6-1.1-1-1.2
		c-0.7-0.2-1.6-0.2-1.7,0.9c-0.2,1.4,0,1.7,1.2,1.8c0.1,0.2,0.2,0.3,0.3,0.4c-1,0.3-1.8,0.2-2.4-0.3c-0.7-0.6-1.2-0.8-1.5,0.5
		c-0.7,3.2-1.6,6.4-2.4,9.6c-0.2,0.7-0.6,1.4-0.9,2c-0.7,1.3-1.5,2.6-2.3,3.9c-0.6,0.9-1.3,1.8-2.1,2.7c-1.8,2.1-3.6,4.2-5.5,6.2
		c-1.1,1.2-2.3,2.4-3.7,3.8c-0.6-1.5-1-2.6-1.3-3.7c-0.8-3.7-1.5-7.3-2.3-11c-0.6-2.4-0.6-5.1-2.8-6.8c-0.1-0.1-0.2-0.2-0.2-0.3
		c0-1.9-1.6-1.7-2.7-2.1c-0.5-0.2-1.1-0.1-1.5-0.4c-1.8-1.1-3.3-0.5-4.8,0.7c-1.1,0.8-2.2,1.2-3.5,1c-1.2-0.2-2.3-0.1-3.5-0.2
		c-0.9-0.1-1.1-0.5-0.8-1.3c0.4-1.3,0.8-2.6,1.4-3.9c1.2-2.7,1.8-5.5,1.4-8.4c-0.1-0.7-0.6-1.4-1-2.4c-0.2,0.5-0.3,0.7-0.4,1
		c-0.8-0.6-1.6-1.1-2.4-1.7c0.7-1.4,0.2-2.6-1.5-3.1c-1.6-0.5-3.3-0.6-4.9-0.7c-1.2,0-1.5-0.4-1.5-1.5c0-2.5-0.2-5.1-0.2-7.6
		C21.9,36.6,22.4,35.6,22.7,34.7z M28.7,55c1.4-0.1,2.8-0.7,4.3-1.1c0.8,4-1.4,7.2-2.5,10.9c-1-1.3-1.8-2.4-2.7-3.7
		c-0.9,0.5-2,1.1-3,1.6c-0.5-3.4-1-6.7-1.6-10.3c0.5,0.4,0.9,0.7,1.1,1C25.4,55.1,27.1,55.2,28.7,55z M25.1,51.7c0.3-1,1-1.3,2-1.2
		c0.3,2.3,0.6,2.8,2.5,3.3v0.3c-1.2-0.1-2.5,0-3.6-0.3C25,53.6,24.8,52.7,25.1,51.7z M22.9,51.5c-0.5-1.2-0.9-2.1-1.5-3.3
		c2.8,0.4,5.2,0.9,7.6,1.3C26.7,49.1,24.7,49.6,22.9,51.5z M11.7,82.3c-1.8-2.4-3.5-4.9-5.4-7.5c0.8-0.5,1.5-1,2.2-1.4
		c1.4-0.8,2.9-1.6,4.4-2.4c1.2-0.6,2.4-1,3.6-1.6c2.8-1.4,5.2-3.2,7.5-5.2c1-0.8,2.2-1.4,3.5-2.2c0.8,1.9,3.3,2.8,2.2,5
		c0.7,0.2,1.3,0.5,1.9,0.5c2.8,0,5.6,0.8,7.9-1.5c0.9-0.9,1.9-0.9,3-0.3c0.1,0.1,0.3,0.2,0.5,0.3c1.1,0.3,2.8,0.3,3.3,1.1
		c1.6,2.3,3.1,4.7,3.3,7.6c0.5,5.2,1.9,10.2,3.6,15.1c0.8,2.4,1.1,4.8,1.7,7.2c0.2,0.8,0.6,1.5,0.9,2.2c0.4,1.3,0.9,2.5,1.2,3.9
		c-0.9-0.9-1.7-1.9-2.7-2.7c-1.2-1-1.5-2.2-1.4-3.7c0.1-2-0.6-3.9-1.8-5.5c-0.8-1.2-1.8-2.3-2.5-3.5c-0.3-0.5-0.5-1.3-0.4-1.9
		c0.4-1.9-0.3-3.4-1.2-4.9c-0.4-0.7-0.8-1.2-0.6-2.2c0.3-1.7-0.4-3.1-1.8-4.1c-0.5-0.3-0.9-0.7-1.3-1.1c1.5-1.3,1.7-2.1,1.1-3.4
		c-0.6-1.2-2.4-1.8-3.7-1.6c-3.9,0.4-7.8,1-11.7,1.6c-0.5,0.1-1,0.3-1.7,0.5c-0.1-1.6-0.3-3-0.4-4.5h-0.4c0,1,0,1.9-0.1,3
		c-0.7-0.9-1.4-1.7-2.1-2.5c-0.1,0.1-0.3,0.2-0.4,0.3c0.8,1.2,1.6,2.4,2.3,3.4c-1.1,1.8-2,3.5-2.2,5.6c-0.2,1.7-0.6,3.3-1,4.9
		c0,0.2-0.4,0.4-0.6,0.5c-1,0.7-2.1,1.3-3.1,2c0.1,0.2,0.2,0.3,0.3,0.5c1-0.6,2-1.2,3.3-2c-1.3,4.3-0.6,8.3,0.3,12.3
		c-1-1.1-1.9-2.3-3-3.3c-1.4-1.3-2.9-2.5-4.2-3.8C14.5,85.5,13,84,11.7,82.3z"/>
	<path class="st0" d="M45,50.8c-0.6,0.3-1.3,0.7-1.9,1c-0.1-0.1-0.2-0.2-0.3-0.3c0.4-0.4,0.7-1,1.1-1.3c2.7-1.6,8.2-2.3,11.4,0.6
		c1,0.9,1,1.5-0.1,2.3c-2.1,1.4-4.3,1.9-6.8,1.3c-1.1-0.2-2.2-0.2-3.3-0.3c-1.2-0.1-1.5-0.6-0.9-1.6c0.3-0.5,0.7-1,1-1.5
		C45.1,50.9,45,50.8,45,50.8z M54.4,52.2c-0.1-0.2-0.1-0.3-0.2-0.5c-0.3,0.1-0.6,0.2-0.8,0.4c-0.8,0.9-1.8,1.2-3,0.8
		c-1.3-0.4-1.4-1.5-1.6-2.5c0-0.2-0.1-0.4-0.1-0.7c-2.1,0.3-2.8,2.1-3.9,3.3c1.9,0.3,3.7,0.5,5.5,0.8c0.3,0,0.7,0,1.1-0.1
		C52.3,53.2,53.3,52.7,54.4,52.2z"/>
	<path class="st0" d="M51.8,44.9c0.7,0.4,1.7,0.8,2.6,1.3c0.2,0.1,0.2,0.5,0.2,0.7c-0.2,0.1-0.4,0.2-0.6,0.2
		c-0.7-0.1-1.4-0.4-2.1-0.5c-2-0.2-3.8,0.7-5.6,1.4s-3.6,1.4-5.6,1.3c-0.4,0-0.9-0.3-1-0.5c-0.1-0.5,0-1.1,0.7-1.3
		c1-0.2,2-0.4,3-0.7c2.3-0.6,4.6-1.2,6.9-1.7C50.8,45,51.2,45,51.8,44.9z"/>
	<path class="st0" d="M27.6,38.9c1.2-1,2.5-1.1,3.8-0.9c2.9,0.3,5.7,0.5,8.6,0.6c0.6,0,1.2-0.2,1.8-0.2c0.3,0,0.6,0,0.9,0
		c0,0.2,0,0.3,0.1,0.5c-0.8,0.2-1.6,0.5-2.3,0.5c-2.6-0.1-5.2-0.4-7.8-0.5c-1.4-0.1-2.8,0-4.2,0.1C28.1,38.9,27.8,38.9,27.6,38.9z"
		/>
	<path class="st0" d="M42.5,40.9c-4.7,1.2-9.3-0.6-14,0.2c0-0.2,0-0.4,0-0.6c1.5-0.1,3.1-0.3,4.6-0.3c1.6,0,3.2,0.3,4.8,0.4
		c1.6,0.1,3.1,0,4.7,0C42.5,40.7,42.5,40.8,42.5,40.9z"/>
</g>
</svg>
