<?xml version="1.0" encoding="utf-8"?>
<!-- Generator: Adobe Illustrator 19.2.1, SVG Export Plug-In . SVG Version: 6.00 Build 0)  -->
<svg version="1.1" id="Layer_1" xmlns="http://www.w3.org/2000/svg" xmlns:xlink="http://www.w3.org/1999/xlink" x="0px" y="0px"
	 viewBox="0 0 200 190.2" style="enable-background:new 0 0 200 190.2;" xml:space="preserve">
<style type="text/css">
	.st0{fill:#FF5722;}
</style>
<g id="icon-bodyache-man">
	<path class="st0" d="M98.7,60.1c0.4,0.7,1.2,1.1,2.1,1.5c2.8,1.4,5.8,1.9,8.8,2.6c3.7,0.9,7.3,1.8,11,2.5c3,0.6,6,0.7,9,1.2
		c3.2,0.6,6.5,0.6,9.7,0.5c1.4,0,2.8-0.3,4.2-0.4c0.6,0,1.3-0.1,1.9,0.1c2.7,0.4,5.5,0.9,8.2,1.4c0.7,0.1,1.3,0.3,2,0.3
		c3.6,0.2,7,0.9,10.4,1.8c1.7,0.4,3.5,0.6,5.1,1.2c3.5,1.3,7,2.7,10.4,4.2c2.1,0.9,4.2,1.9,6.2,2.9c1.5,0.7,2.8,1.6,4.3,2.4
		c0.7,0.4,1.5,0.6,2.2,0.9c3.1,1.5,5.1,3.7,5.5,7.3c0.2,2.1,0.6,4.3-0.3,6.3c-1.7,3.9-3.2,7.9-5.5,11.5c-1.4,2.1-2.8,4.1-5.1,5.2
		c-1.7,0.8-3.6,1.4-5.4,2c-5.8,2-11.7,4-17.6,5.9c-2.2,0.7-4.5,1.1-6.8,1.6c-3.1,0.7-6.3,1.3-9.4,2c-3.3,0.7-6.6,0.6-9.9,0.1
		c-2-0.3-3.9-0.5-5.9-0.8c-1.2-0.1-2.3-0.2-3.5-0.4c-1.7-0.3-3.2-0.1-4.8,0.4c-0.7,0.2-1.4,0.6-2.1,1.1c-0.2,0.2-0.4,0.6-0.4,0.9
		c0.1,1.7,0.4,3.3,0.6,5c0.1,0.8,0.1,1.7,0.1,2.5c0,2.3,0,4.5,0.1,6.8c0,1.1,0.3,2.1,0.4,3.2c0.2,2.4,0.5,4.8,0.4,7.2
		c-0.2,3.7-0.8,7.4-1.1,11.2c-0.2,3.1-0.3,6.1-0.5,9.2c-0.2,5-0.5,10.1-0.8,15.1c-0.1,1.1-0.5,2.2-0.8,3.3c-0.1,0.2-0.5,0.5-0.8,0.5
		c-0.2,0-0.4-0.4-0.5-0.7c-0.1-0.3,0-0.6,0.1-0.9c0.3-2.1,0.7-4.1,0.9-6.2c0.3-5.5,0.4-11.1,0.6-16.6c0.1-2.3,0.5-4.6,0.8-7
		c0.1-1.1,0.3-2.3,0.4-3.4c0-0.2,0.1-0.3,0-0.5c-0.9-1.7-0.5-3.3,0-5.1c0.3-1.1,0.1-2.2,0.1-3.4c-0.1-1.4-0.4-2.9-0.5-4.3
		c-0.1-2.3-0.3-4.7-0.2-7c0.2-2.8-0.6-5.4-0.8-8.1c-0.1-1.2-0.1-2.4-0.2-3.6c-0.2-2.3-0.6-4.6-0.7-6.9c-0.1-2.8-1.5-5.1-2.2-7.7
		c-0.7-2.7-1.4-5.5-0.8-8.3c0.5-2.2,1-4.4,1.5-6.5c0-0.1,0-0.2,0.1-0.3c0.3-0.3,0.6-0.5,0.8-0.8c0.2,0.3,0.5,0.7,0.5,1
		c-0.1,1-0.2,2-0.4,2.9c-0.3,1.5-0.8,2.9-1.1,4.4c-0.3,1.7-0.1,3.4,0.4,5.1c0.6,2.1,1.3,4.1,1.9,6.2c0.6,2,1.9,3,4,3
		c1.4,0,2.7-0.1,4.1,0c2.8,0.2,5.2-1.1,7.6-2.3c0.5-0.3,1.1-0.4,1.7-0.5c0.2,0,0.5,0.3,0.7,0.5c0.1,0.1-0.2,0.5-0.4,0.6
		c-1.8,0.9-3.5,1.8-5.3,2.6c-0.7,0.3-1.5,0.4-2.2,0.4c-2.2,0.1-4.5,0.1-6.7,0c-0.8,0-1.5-0.3-2.4-0.6c0.2,2.5,0.5,5.1,0.7,7.6
		c1-0.4,2.1-1,3.2-1.2c1.4-0.3,2.8-0.3,4.2-0.2c1.3,0,2.7,0.2,4,0.4c2.2,0.3,4.3,0.6,6.5,0.9c0.2,0,0.3,0.1,0.5,0.1c2,0,4,0.1,5.9,0
		c1.6-0.1,3.3-0.6,4.9-1c4.2-0.9,8.5-1.7,12.7-2.7c2.1-0.5,4.1-1.4,6.2-2.1c2.8-0.9,5.7-1.8,8.5-2.7c2.5-0.8,5-1.8,7.4-2.7
		c2.4-0.9,4.1-2.6,5.5-4.7c2.1-3.3,3.5-6.9,5.2-10.4c1.5-3.2,1.1-6.3,0.1-9.4c-0.7-2-2.6-3.1-4.5-4c-1.8-0.8-3.7-1.8-5.5-2.7
		c-1.7-0.9-3.4-1.9-5.1-2.6c-3.7-1.6-7.5-3.1-11.3-4.6c-1.6-0.6-3.3-0.8-5-1.2c-1.2-0.3-2.4-0.6-3.6-0.8c-2-0.4-4.1-0.6-6.2-1
		c-2.1-0.3-4.2-0.7-6.3-1c-1.8-0.3-3.6-0.8-5.4-0.9c-1.6-0.1-3.2,0.2-4.7,0.3c-1.8,0.1-3.5,0.1-5.3,0.1c-0.4,0-0.8-0.1-1.2-0.1
		c-2.4-0.3-4.9-0.4-7.3-0.8c-3.5-0.6-6.9-1.6-10.4-2c-4-0.5-7.7-1.7-11.6-2.6c-2.4-0.6-4.8-1.4-6.6-3.4c-1.3,1.7-3,3-3.8,5
		c-0.7,1.7-1.6,3.5-2.8,4.9c-1.3,1.6-1.1,3.2-1.1,5c0,1.1,0.4,1.9,1,2.7c1.3,1.9,1.4,4.2,1.8,6.4c0.3,1.7,0.4,3.3-0.2,5
		c-0.2,0.6-0.5,1.2-0.8,1.9c3.9-1.4,7.1-3.6,9.7-6.9c-0.4-0.1-0.8-0.2-1.2-0.3c-0.6-0.1-1.2,0-1.7-0.2c-0.4-0.2-0.6-0.6-0.9-1
		c-0.1-0.1,0.1-0.5,0.3-0.6c0.2-0.1,0.5,0,0.7,0.1c0.3,0.1,0.5,0.3,0.7,0.4c1.3,0.3,2.5,0.4,3.8,0.7c2.1,0.5,4.2,1.2,6.3,1.7
		c3.2,0.7,6.5,1.3,9.7,2.1c2.5,0.6,4.9,1.3,7.4,1.9c2.5,0.6,4.6,2.2,7,2.9c2.6,0.8,4.9,2.4,7.8,2.5c1.1,0,2.2,0.4,3.3,0.6
		c0.2,0,0.4,0.1,0.5,0.2c4.5,3.3,9.6,5.4,14.5,7.9c2.7,1.4,5.2,2.9,7.8,4.5c0.3,0.2,0.6,0.7,0.5,0.9c-0.2,0.3-0.6,0.6-1,0.6
		c-0.9,0-1.4-0.6-2-1.1c-1.1-0.9-2.4-1.6-3.7-2.3c-2.9-1.5-5.9-2.8-8.8-4.3c-2.6-1.4-5.1-3-7.7-4.3c-1.3-0.6-2.8-0.8-4.3-1.2
		c-1.6-0.5-3.1-1-4.7-1.4c-0.5-0.2-1.1-0.3-1.6-0.5c-1.1-0.5-2.3-0.9-3.4-1.5c-2.4-1.4-5-2-7.6-2.7c-1.9-0.5-3.8-1-5.7-1.4
		c-1.6-0.4-3.2-0.5-4.7-0.9c-2.2-0.6-4.4-1.3-6.6-1.9c-0.8-0.2-1.7-0.4-2.5-0.6c-1.1-0.2-1.5,0.6-2,1.3c-1.3,1.8-3.1,3.2-5,4.3
		c-1.7,1.1-3.5,2.2-5.6,2.6c-0.3,0.1-0.6,0.8-0.6,1.2c-0.1,0.6,0,1.3,0.3,1.9c0.6,1.6,0.7,3.3,0.7,5c-0.1,2.5-0.2,4.9-0.4,7.4
		c0,0.4-0.6,0.9-0.9,1c-0.6,0.1-0.6-0.5-0.6-1c0.1-2.5,0.3-5,0.4-7.5c0-1.2-0.2-2.4-0.3-3.8c-0.2,0.2-0.3,0.3-0.4,0.4
		c-0.6,2.4-2.4,4.1-3.7,6.1c-1.6,2.5-4.2,3.7-6.3,5.5c-5.1,4.2-10.8,7.4-16.5,10.6c-2.3,1.3-4.9,2.1-7.4,3c-3,1.2-6,2.2-8.9,3.5
		c-2.4,1-4.7,2.4-6.3,4.5c-1.3,1.7-2.3,3.6-2.5,5.7c-0.1,0.5-0.3,1-0.9,0.8c-0.3-0.1-0.6-0.6-0.6-1c0.2-2.1,0.9-4.1,2.2-5.7
		c0.9-1.2,1.9-2.3,2.9-3.4c-3.7,0.8-7.5,1-11.3,1c-2.6,0-5.2,0.4-7.8,0.7c-0.8,0.1-1.6,0.2-2.4,0.2c-0.2,0-0.5-0.2-0.5-0.3
		c-0.1-0.3-0.1-0.7,0.1-0.9c0.2-0.3,0.6-0.5,1-0.5c2.2-0.2,4.5-0.4,6.7-0.6c1.5-0.1,2.9-0.2,4.4-0.2c2.5,0,4.9-0.1,7.3-0.6
		c2.4-0.5,5-0.7,7.3-1.5c4.9-1.7,9.7-3.6,14.5-5.5c3.6-1.4,6.8-3.7,10-5.7c2-1.2,4.1-2.4,6-3.8c1.3-0.9,2.4-2.2,3.7-3
		c2.8-1.7,4.4-4.3,6.3-6.7c1.7-2.2,2.1-5,3-7.5c0.2-0.5,0.4-1.1,0.7-1.6c1.2-2,1.6-4,1.1-6.3C91,83,91,80.7,89.5,78.9
		c-1-1.3-2.1-2.5-3.2-3.8c-0.7-0.8-1.3-1.6-2.1-2.3c-1.1-0.9-2.3-1.8-3.5-2.6c-0.4-0.3-0.8-0.5-1.1-0.8c-0.9-0.9-2.1-1-3.3-1.1
		c-2.6,0-5.3,0.1-7.9,0.2c-1.3,0-2.7,0-4,0.2c-2.5,0.4-5,0.9-7.4,1.3c-1.8,0.3-3.5,0.9-4.9,2c-0.7,0.5-1.3,1.3-1.9,2
		c-2.4,3-4.7,6.1-7.2,9c-0.8,0.9-2.1,1.5-3.1,2.2c-0.2,0.1-0.5,0.3-0.6,0.5c-1.4,2.6-3.7,4.4-5.5,6.7c-1,1.4-2.4,2.7-2.6,4.6
		c0,0.2-0.1,0.5-0.3,0.6c-0.3,0.2-0.6,0.3-0.9,0.5c-0.1-0.3-0.5-0.7-0.4-1c0.3-1.8,1.1-3.3,2.3-4.7c1.3-1.5,2.6-3.1,4-4.8
		c-5.1-0.3-10.1-0.4-14.6,2.2c-3.4,2-6.9,4-10,6.4c-2.9,2.3-5.3,5.3-6.7,8.8c-1.2,2.8-2.5,5.5-2.7,8.6c-0.2,2.2-0.2,4.5,0,6.8
		c0.2,2.3,0.4,4.5,0.9,6.7c0.5,2.3,1.6,4.5,2.1,6.8c1.2,4.9,3.3,9.6,4.8,14.4c0.5,1.6,0.3,3.4,0.6,5.1c0.1,0.9,0.4,1.8,0.5,2.7
		c1.2,6.4,2.4,12.7,3.6,19.1c0.1,0.7,0.2,1.3,0.4,2c1.1,3.8,1.1,7.8,1.2,11.7c0,0.5,0,1.1-0.7,1.2c-0.7,0-0.8-0.5-0.8-1.1
		c0-0.5-0.2-1-0.1-1.4c0.4-4.9-1-9.5-1.8-14.3c-1-5.7-2.1-11.4-3.2-17.1c-0.2-0.8-0.5-1.7-0.7-2.5c-0.1-0.4-0.3-0.9-0.2-1.3
		c0.3-2.6-0.5-5-1.3-7.4c-1.4-4-2.6-8-3.9-12c-0.7-2.3-1.6-4.6-2.2-7c-0.4-1.8-0.5-3.6-0.7-5.4c-0.1-1.2-0.3-2.4-0.2-3.5
		c0.2-3.6,0.7-7.2,2.3-10.5c0.7-1.5,1.3-3.1,2.2-4.5c2.2-3.5,4.9-6.6,8.5-8.8c2.6-1.5,5-3.2,7.6-4.7c3.2-1.8,6.8-2.4,10.4-2.5
		c1.8,0,3.5,0,5.3,0c0.6,0,0.9-0.2,1.2-0.7c0.3-0.5,0.7-0.9,1.1-1.3c0.6-0.5,0.7-0.9,0.1-1.5c-1.6-1.3-3.1-2.7-4.7-4
		c-0.6-0.6-1.3-1.1-2-1.6c-2-1.9-4.2-3.7-6.1-5.7c-1.5-1.6-2.6-3.5-3.9-5.2c-1.7-2.2-3.5-4.3-4.5-6.9c-0.9-2.2-1.6-4.5-2.6-6.7
		c-1.3-3-1.7-6-1.5-9.2c0.1-2.2,0.2-4.4,0.2-6.6c0-2.5,0.7-4.9,1.5-7.3c0.7-1.9,1.5-3.7,2.3-5.4c0.4-0.9,1.3-1.6,1.4-2.5
		c0.4-2.1,1.7-3.7,2.9-5.4c1-1.5,2.3-2.8,3.5-4.2c1.9-2.2,3.9-4.3,6.3-5.9c1.6-1.1,3.4-1.8,5-2.9c1.4-1,3-1.6,4.6-2.1
		c1.6-0.5,3.2-1.1,4.9-1c1.6,0,3.2,0.5,4.7,1.2c2.8,1.2,5.6,2.2,8.7,2.9c2.5,0.5,5,1,7.2,2.4c0.3,0.2,0.7,0.2,1,0.3
		c2.1,0.8,3.9,2,5.7,3.3c1.8,1.4,3.4,3.1,5.7,4c1.4,0.6,2.6,1.9,3.8,2.9c0.2,0.2,0.4,0.5,0.4,0.8c0.3,2.2,1.9,3.1,3.6,3.9
		c1,0.5,1.9,1.1,2,2.2c0.1,1.6,0.2,3.3-0.1,4.9c-0.2,1.2,0.3,2.6,1.7,3.6c1.3,0.9,2.5,2,3.7,3.1c1,1,1,2.5,1.5,3.8
		c0.5,1.4,1,2.8,2.1,4c0.7,0.7,1.1,1.8,1.3,2.8c0.3,1.1,0.2,2.2,0.4,3.3c0.3,1.6,0.6,3.2,0.9,4.7c0.2,1,0.3,2-0.2,2.9
		C99.7,57.8,99.3,58.8,98.7,60.1z M80.2,45.1c0.2-0.8,0.4-1.3,0.5-1.9c0.3-1.8,0.5-3.7,1.5-5.3c1.2-1.9,3-2.8,5-3.5
		c0.9-0.3,1.9-0.5,2.8-0.7c-0.8-1-1.4-1.9-2.1-2.7c-0.1-0.1-0.2-0.2-0.3-0.2c-0.7-0.3-0.7-0.8-0.4-1.4c0.8-1.5,0.5-3.2,0.5-4.9
		c0-0.3-0.2-0.7-0.5-0.9c-0.8-0.6-1.6-1.2-2.4-1.6c-1.2-0.6-2.5-1.1-3.8-1.5c-1.5-0.4-3-0.6-4.5-1c-1.4-0.3-2.1-1.3-2.4-2.6
		c-0.1-0.4-0.2-0.8-0.5-1c-0.9-0.8-1.8-1.6-2.7-2.4c-0.2-0.2-0.5-0.4-0.7-0.7c-0.1-0.2,0-0.5-0.1-0.8c0.3,0,0.6-0.1,0.7,0
		c1.9,1.2,3.8,2.5,4.4,4.9c0.1,0.4,0.5,0.7,0.8,1.2c0-1.3,2-2.1,3.5-2.2c-0.7-0.4-1.2-0.7-1.7-1c-1.1-0.6-2.2-1-3.2-2
		c-1.2-1.3-2.5-2.5-4-3.3c-2.7-1.3-5.5-2.4-8.3-3.4c-2-0.7-4.1-1-6.1-1.6C55.2,4.4,54.1,4.5,53,5c-3.5,1.5-6.5,3.7-9.1,6.4
		c-1.8,1.9-4.3,3.4-4.8,6.3c-0.2,1.1-0.5,2.1-0.7,3c1.4,0.3,2.8,0.7,4.2,1c1.5,0.4,2.3,1.5,2.6,3c0.4,2.2,0,4.2-0.3,6.3
		c-0.2,1.5-0.5,3.1-0.2,4.6c0.6,3.2,2.1,6.1,4,8.7c0.7,1,1.2,2.3,1.6,3.5c0.1,0.3-0.2,0.8-0.4,1c-0.2,0.1-0.7,0-1-0.2
		c-0.3-0.3-0.5-0.7-0.9-1c-0.9-0.8-1.8-1.8-3.2-1.4c-0.3,0.1-0.5,0.1-0.8,0.2c-3.3,0.5-6.4,1.5-9.2,3.5c-3.4,2.4-3.5,7.4-0.8,10.1
		c1.1,1.1,2.4,1.9,3.6,2.9c1.1,1,2.4,1.1,3.8,0.9c1.1-0.2,2.3-0.4,3.4-0.8c2.4-1.1,4.8-1.7,7.4-2c0.8-0.1,1.5-0.3,2.6-0.4
		c-0.6-0.5-0.9-1-1.3-1.2c-1-0.5-2-1-3.1-1.4c-0.3-0.1-0.8-0.1-1.1,0.1c-1.5,0.9-3,2.2-4.6,2.6c-1.6,0.4-3.5,0.2-5.2,0
		c-1.2-0.2-2.5-0.6-3.5-1.3c-2-1.4-2.5-4.9-1.1-7c0.3-0.4,0.8-0.7,1.3-1c0.1-0.1,0.4,0.2,0.6,0.3c0,0.1-0.1,0.4-0.3,0.5
		c-1.3,1.1-1.7,3.1-1,4.6c0.6,1.5,1.6,2.5,3.2,2.6c1.7,0.1,3.4,0.6,5,0.3c1.4-0.2,2.7-1.3,4-2c0.2-0.1,0.3-0.4,0.5-0.7
		c-0.5-0.2-0.9-0.5-1.3-0.5c-1.3,0.1-2.3-0.5-3.2-1.3c-0.6-0.5-0.5-1-0.4-1.5c0.1-0.4,0.6-0.7,0.9-1c0.1-0.1,0.5,0.1,0.7,0.2
		c0.1,0.1,0.1,0.5-0.1,0.6c-0.8,0.8-0.3,1.2,0.4,1.6c0.4,0.2,0.9,0.2,1.4,0.3c0.6,0.1,1.3,0.2,1.8,0.4c1.2,0.5,2.3,1.1,3.5,1.7
		c1.5,0.7,3.2,1.1,3.6,3.1c0.7-0.1,1.2-0.2,1.8-0.2c3.1-0.3,5.8,1.2,8.7,1.8c1.5,0.3,2.9,1.2,4.4,1.8c3.6,1.4,7.2,3,10.4,5.2
		c2.3,1.5,4.4,3.2,6.2,5.3c0.4,0.4,0.7,0.9,1.1,1.3c0.1,0,0.2-0.1,0.2-0.1c-0.4-2.9,1-5.2,2.3-7.6c1-1.8,2.1-3.5,3.2-5.3
		c-2.5,0.4-4.9,0.9-7.3,1c-3.1,0.2-6.1,0.1-9.2,0c-1.4,0-2.7-0.2-4.1-0.3c-0.3,0-0.5-0.3-0.7-0.5c0.2-0.2,0.4-0.5,0.7-0.7
		c0.2-0.1,0.5-0.1,0.7-0.1c1.8,0.1,3.7,0.3,5.5,0.4c4.1,0.2,8.1-0.1,12.1-1c2.3-0.5,4.7-1,6.1-3.2c0.8-1.3,1.6-2.6,1.1-4.4
		c-0.5-1.9-0.9-3.8-1-5.8c-0.1-2.1-0.3-3.9-2.2-5c-0.7,0.2-1.4,0.5-2.2,0.6c-1.8,0.2-3.5,0.4-5.3,0.6c-1.4,0.1-2.9,0.1-4.4,0.2
		C82.9,44.7,81.6,44.9,80.2,45.1z M51.1,69.9c-0.7,0.3-1.2,0.5-1.6,0.8c-2.2,1.4-4.5,2.9-6.7,4.4c-0.4,0.3-0.7,0.8-0.8,1.3
		c-0.4,1.4-0.8,2.8-1.1,4.3c-0.2,0.8-0.2,1.5-0.3,2.6c0.5-0.4,0.9-0.6,1.1-0.9c2.4-2.9,4.9-5.7,7-8.7c1.5-2.1,3.3-3.7,5.7-4.4
		c1.6-0.5,3.3-0.7,4.9-1.1c3.2-0.9,6.5-0.8,9.8-1.1c1.4-0.1,2.8-0.2,4.5-0.3c-0.4-0.2-0.6-0.4-0.8-0.5c-2.1-0.9-4.2-1.8-6.3-2.6
		c-1.7-0.6-3.5-1.1-5.3-1.5c-1.3-0.3-2.6-0.4-3.9-0.4c-1.2,0-2.4,0.1-3.6,0.4c-2.2,0.4-4.4,0.9-6.6,1.4c-1.6,0.4-3.2,1-4.8,1.3
		c-2,0.4-2.8,1.2-2.7,2.7c0.1,0.5,0.2,0.8,0.8,0.8c0.9-0.1,1.9-0.4,2.8-0.4c1.7,0.1,3.2-0.3,4.5-1.5c1.2-1,2.7-1.1,4.2-1
		c0.2,0,0.6,0.3,0.6,0.6c0,0.2-0.3,0.5-0.5,0.7c-0.2,0.1-0.5,0.1-0.7,0.1c-1.3-0.2-2.3,0.4-3.3,1.2c-1,0.8-2.1,1.4-3.5,1.3
		c-1.3-0.1-2.6,0.2-3.9,0.4c-0.3,0-0.7,0.5-0.7,0.7c0.3,1.5,0.7,2.9,1.8,4.2c2.2-1.5,4.4-3,6.5-4.5C49.2,69.2,50,69.3,51.1,69.9z
		 M81.7,42.6c0.1,0.1,0.2,0.1,0.3,0.2c3.6-2.9,7.8-4.1,12.4-4c-0.1-0.7-0.1-1.3-0.4-1.7c-0.5-0.8-1.1-1.8-1.8-2.1
		c-1-0.3-2.2-0.8-3.2,0.2c-0.1,0.1-0.4,0.2-0.6,0.2c-1.7-0.1-2.9,0.8-4.1,1.7c-0.4,0.3-0.9,0.8-1.1,1.3
		C82.5,39.9,82.1,41.3,81.7,42.6z M82.9,43.4c4.2-0.6,8.6,0.6,12.7-1.4c-0.2-0.3-0.3-0.5-0.4-0.8c-0.3-1.2-1-1.6-2.2-1.4
		c-0.5,0.1-1,0.2-1.5,0.2c-2.6,0.1-4.8,1.1-7,2.3C83.9,42.6,83.4,43,82.9,43.4z M77.8,18.5c0,0.1,0,0.2,0,0.2
		c1.6,0.3,3.1,0.6,4.8,0.9c-0.2-0.5-0.3-1.1-0.6-1.6c-0.2-0.3-0.6-0.7-0.8-0.6C80,17.8,78.9,18.1,77.8,18.5z"/>
	<path class="st0" d="M91.3,154.4c-0.3,5.6-0.6,11.2-0.9,16.8c-0.2,3.3-0.4,6.7-0.2,10c0.1,1.7,1,3.3,1.6,4.9
		c0.3,0.8,0.5,1.6,0.6,2.4c0,0.2-0.3,0.7-0.5,0.8c-0.2,0.1-0.5-0.2-0.8-0.4c-0.1-0.1-0.1-0.3-0.2-0.4c-0.7-1.9-1.3-3.9-1.9-5.9
		c-0.1-0.5-0.3-0.9-0.3-1.4c0.1-3.7,0.2-7.4,0.4-11.1c0.5-7.4,0.8-14.7,0.5-22.1c-0.1-1.7-0.5-3.4-0.6-5.2c-0.3-2.9-0.5-5.8-0.7-8.7
		c-0.2-3.3-0.9-6.4-2.2-9.4c-0.3-0.7-0.5-1.4-0.7-2.1c-0.1-0.4,0-0.8,0.2-1.2c0.1-0.2,0.4-0.4,0.6-0.4c0.2,0,0.3,0.3,0.4,0.6
		c0.3,1.1,0.5,2.2,0.9,3.3c1.4,3.5,1.9,7.1,2.2,10.8c0.3,3.5,0.9,7.1,1.1,10.6c0.2,2.7,0,5.4,0,8.2C91,154.4,91.1,154.4,91.3,154.4z
		"/>
	<path class="st0" d="M79.7,92.1c0.4,1.4-0.4,2.5-1.1,3.7c-0.2,0.3-0.8,0.4-1.2,0.5c-0.1-0.4-0.3-0.9-0.2-1.2c0.4-1,1.2-1.9,1.1-3.2
		c-0.1-0.7-0.1-1.4-0.2-2c-0.1-0.4-0.5-0.7-0.8-1.1c-0.1-0.2-0.3-0.5-0.3-0.7c0.1-0.2,0.4-0.5,0.6-0.4c0.4,0.1,0.9,0.3,1.2,0.6
		C79.8,89.4,79.8,90.7,79.7,92.1z"/>
	<path class="st0" d="M56,25.1c-0.3-0.3-0.7-0.4-0.8-0.7c-0.1-0.3,0-0.7,0.2-0.9c0.9-0.8,1.9-1.4,2.8-2.3c1.6-1.5,3.5-2.3,5.6-2.8
		c1.2-0.3,2.4-0.6,3.5-0.2c0.4,0.1,0.8,0.6,0.8,0.9c0,0.3-0.5,0.8-0.9,0.8c-1.1,0.2-2.2,0.3-3.3,0.5c-2,0.4-3.7,1.4-5.3,2.7
		C57.9,24,57,24.5,56,25.1z"/>
	<path class="st0" d="M68.8,25c-0.6,0.2-1.2,0.5-1.8,0.6c-2.6,0.5-4.8,1.8-7.1,3.1c-0.2,0.1-0.6,0-0.9,0.1c0.1-0.3,0.1-0.8,0.3-1
		c2.2-2.3,5.1-3.1,8.1-3.6c0.4-0.1,0.9,0.3,1.4,0.4C68.8,24.8,68.8,24.9,68.8,25z"/>
	<path class="st0" d="M80.9,31.7c-0.1-1.8,1.1-2.7,2.2-3.6c0.5-0.4,1.3-0.3,2-0.4c0.3,0,0.8,0.4,0.8,0.6c0,0.4-0.2,1-0.4,1.2
		c-1.3,0.8-2.8,1.5-4.1,2.2C81.2,31.7,81.1,31.7,80.9,31.7z"/>
</g>
</svg>
