<?xml version="1.0" encoding="utf-8"?>
<!-- Generator: Adobe Illustrator 19.2.1, SVG Export Plug-In . SVG Version: 6.00 Build 0)  -->
<svg version="1.1" id="Layer_1" xmlns="http://www.w3.org/2000/svg" xmlns:xlink="http://www.w3.org/1999/xlink" x="0px" y="0px"
	 viewBox="0 0 200 196.4" style="enable-background:new 0 0 200 196.4;" xml:space="preserve">
<style type="text/css">
	.st0{fill:#2196F3;}
</style>
<g id="icon-eyedrops-woman">
	<path class="st0" d="M14.1,151.3C14.1,151.3,14.1,151.3,14.1,151.3c-0.2,0.8-0.1,1.7,0.3,2.5c7.2,14,15.2,27.9,21.2,42.6h108.1
		c-3.4-11.1-5.8-22.5-6.9-34.1c0,0,0-0.1,0-0.1h0.3c-0.7-2.5-0.7-5.9-2-8.7c-0.3-0.6,0.4-1.2,1.3-1.3c3.1-0.4,5.4-2.2,7.6-4.2
		c0.1-0.1,0.3-0.3,0.4-0.4c0.3-0.4,0.6-0.8,0-1.1c-0.3-0.1-0.8,0-1.1,0.2c-1.8,1.8-3.8,3.2-6.2,4.1c-1,0.4-2.1,0.7-3.4,1.1
		c-1.6-1.3-3.4-2.8-5.3-4.3c-0.1-0.1-0.3-0.3-0.3-0.5c-1.6-3.5-2.2-7-0.6-10.6c0.1-0.2,0.2-0.4,0.2-0.6c0.5-2.3,1.8-4.2,3.2-6
		c0.6-0.8,0.5-2.1,0.6-3.2c0.2-2.5,0.3-5,0.6-7.5c0.4-3,2.3-5,4.8-6.5c0.8-0.5,1.5-1.1,2.4-1.4c1.4-0.5,2.8-0.3,4.2,0.1
		c0.2,0.1,0.4,0.2,0.5,0.2c2.2,0.9,2.8,1.9,2.4,4.4c-2.4,0.2-4.7,0.2-7.1-0.2c-0.3,0-0.7,0-0.8,0.2c-0.4,0.6-0.8,1.3-1.1,2
		c-0.3,0.7-0.4,1.5-0.6,2.3c-0.2,0.8,0.2,1.3,1,1.3c1,0,2-0.2,3-0.3c0.9-0.1,1.8-0.1,2.9-0.1c-0.1,1.9-0.2,3.6-0.5,5.3
		c0,0.2-0.7,0.5-1.1,0.5c-1.5,0-3-0.1-4.5-0.2c-0.3,0-0.6,0.2-0.9,0.3c0.3,0.2,0.5,0.6,0.8,0.6c1.7,0.2,3.3,0.3,5,0.3
		c0.6,0,0.9,0.2,1.3,0.7c1.1,1.9,1.4,3.9,1.7,6c0.3,2.5,0.3,4.9-0.6,7.3c-0.1,0.3,0.2,0.7,0.3,1.1c0.3-0.3,0.7-0.5,0.9-0.8
		c1.1-2.7,0.8-5.4,0.5-8.2c-0.3-2.2-0.9-4.3-1.9-6.3c-0.3-0.6-0.2-1.3-0.2-2c0.1-1.5,0.3-3,0.3-4.4c0.1-1.6,0.7-3,1.8-4
		c0.9-0.8,1.1-1.8,0.9-2.9c-0.3-1.8-1-3.2-2.7-4c-1.8-0.8-3.7-0.9-5.8-0.8c0.2-2.4,0.4-4.6,0.6-6.8c1.3,0.2,2.4,0.4,3.5,0.5
		c0.2-0.9-0.1-1.2-0.8-1.3c-0.3,0-0.6,0-0.9,0c-1-0.1-1.6-0.8-1.6-1.8c0-2.2-0.9-4.1-1.7-6.1c-0.7-1.8-1.4-3.5-1.2-5.5
		c0.1-0.6,0.1-1,0.8-1.1c0.4-0.1,0.8-0.3,1.2-0.5c0.2-0.1,0.3-0.5,0.3-0.6c-0.1-0.2-0.4-0.3-0.6-0.3c-0.5,0.1-1,0.3-1.5,0.4
		c-0.1-0.2-0.2-0.3-0.3-0.5c-0.7-1.4-1.3-2.8-2.1-4.2c-2.4-4.1-5-8.1-7.1-12.3c-1.2-2.3-2.4-4.7-2.4-7.4c0-0.4,0.2-0.8,0.3-1.2
		c0.1,0,0.2,0,0.2,0c0.4,1,0.7,1.9,1.1,2.9c0.2,0.6,0.5,1.1,0.8,1.7c1.1,2.1,2.6,2.6,4.7,1.6c0.6-0.3,0.9-0.2,1.4,0.2
		c2.9,2.6,4.8,5.9,6.9,9.1c1,1.4,2.1,2.8,3.1,4.2c1.1,1.6,2.3,3.1,2.7,5.1c0.3,1.5,0.3,3.2,0.7,4.7c0.8,3.1,1.2,6.3,2.7,9.2
		c0.7,1.3,1.4,2.6,1.4,4.1c0,0.2,0.1,0.5,0.2,0.6c1.4,1.9,1.4,4.2,1.7,6.4c0,0.4,0.1,0.8,0.3,1.1c0.1,0.2,0.6,0.5,0.7,0.4
		c0.2-0.1,0.5-0.6,0.5-0.8c-0.3-1.8-0.5-3.6-1.1-5.3c-1-3-2.4-6-3.4-9c-1-3-1.9-6-2.1-9.2c-0.2-2.1-0.7-4.2-2-6.1
		c-2.3-3.2-4.5-6.4-6.8-9.6c-0.4-0.5-0.6-1.1-0.8-1.8c1.8,1.3,3.7,2.7,5.5,4c1.2,0.9,2.3,1.8,3.5,2.5c1.5,0.9,1.9,2.3,2.4,3.8
		c1.2,4,2.4,8,3.5,12.1c0.5,1.8,0.8,3.6,1.1,5.5c0,0.2,0.1,0.4,0.2,0.6c1.3,2.7,1.9,5.5,2.1,8.5c0.1,2.1,0.1,4.3,0.1,6.4
		c0,3-0.2,5.9-0.9,8.8c-0.3,1.1-0.3,2.3-0.2,3.5c0.2,3-0.5,5.9-0.7,8.9c-0.2,3.4-0.7,6.9-0.2,10.3c0,0.3,0,0.6,0.1,0.8
		c0.1,0.4,0.2,0.9,0.3,1.3c0.7,2.8,2,5.5,3,8.3c0.3,0.9,0.4,1.7,0.7,2.6c0.2,1,0.5,2,0.8,2.9c1,10.5,2.7,20.9,7,30.7
		c0.3,0.8,1.3,0.9,2.1,0.6c0.1,0,0.1,0,0.2,0c2,0,3.2-0.7,4.3-2.3c0.5-0.7,0.3-1.3-0.1-1.7c0-0.1,0-0.3,0-0.4
		c-0.2-1.2-0.5-2.5-0.7-3.7c0-0.2,0.3-0.4-0.3-0.5v0l-1.3-8.3c-0.1-0.4-0.2-0.7-0.4-0.9c-0.2-1-0.4-1.9-0.6-2.9c0-0.8,0-1.6,0.1-2.4
		c0-2.1,0.1-4.2,0.2-6.2c0-0.4,0-0.8,0-1.1h0.4c-0.1-0.7-0.3-1.3-0.4-2c-0.1-2.1-0.4-4.1-1.1-6.2c-0.3-1.8-0.5-3.6-0.8-5.4
		c0-0.3,0-0.6,0-1.1c0.9,0.4,1.7,0.8,2.4,1.2c2.7,1.6,5.5,2.6,8.5,3.4c1.7,0.5,3.5,1.2,5.1,2c2.5,1.3,4.8,3,7.4,4.2
		c2.7,1.3,5.7,2.3,8.3,3.4V107c0-0.2-0.3-0.4-0.4-0.6c-1.1-1.2-2.4-2.1-3.6-3.1c-0.3-0.2-0.6-0.5-0.7-0.7c-1.9-3.2-5.1-5-8-7
		c-1.8-1.2-3.3-2.7-5.1-3.8c-2.1-1.3-4.3-2.5-6.4-3.7c-1.1-0.7-2.2-1.3-3.4-2c0-0.1,0.1-0.3,0.1-0.4c0.6,0,1.1,0,1.7,0
		c4.4,0.1,8.6-1.2,12.5-3.1c0.7-0.4,1.4-0.8,2.1-1.3c0.3-0.2,0.4-0.8,0.3-1.1c-0.2-0.5-0.7-0.4-1.1-0.1c-3.2,2.5-7,3.5-10.9,4.1
		c-2,0.3-4.1-0.1-6.1,0c-1.7,0.1-2.9-0.7-3.8-2c-0.2-0.3-0.5-0.5-0.9-0.6c-3.2-1.3-6.4-2.6-9.6-4c-0.7-0.3-1.4-0.8-2.1-1.2
		c-1.2-0.6-2.4-1.2-3.5-1.8c-2-1-3.9-2.1-5.8-3.2c-1.5-0.9-2.7-4.1-2.5-5.8c0.3-1.9,0.4-3.8,0.6-5.8c0-0.3,0-0.6,0-1
		c2.9,0.3,5.2-0.5,6.9-2.8c0.2-0.3,0.5-0.5,0.7-0.8c0.1-0.2,0.2-0.6,0.2-0.8c-0.3-0.1-0.8-0.3-1-0.1c-0.4,0.2-0.8,0.6-1.1,1
		c-1,1.5-2.5,2-4.2,2.3c-1,0.1-1.4-0.4-1.8-1.3c-0.4-0.7-1.1-1.6-1.8-1.8c-1.5-0.5-3.2-0.8-4.8-1.1c-1.5-0.2-3-0.3-4.5-0.4
		c-0.4,0-0.8-0.1-1.1-0.4c-0.3-0.3-0.6-0.9-0.5-1.3c0.1-0.4,0.6-0.8,1-0.8c3.5-0.3,6.9-0.5,10.4-0.6c3.3-0.1,6.6,0,10.1,0
		c1.1,1.9,1.9,4.2,1.8,6.8c-0.1,1.2,0,2.5,0.2,3.7c0.3,2.7-0.6,5.3-1.4,7.8c-0.2-0.1-0.4-0.1-0.7-0.2c0,0.6-0.1,1.1,0,1.6
		c0.1,0.4,0.3,0.7,0.5,1.1c0.3-0.3,0.7-0.5,0.9-0.8c0.6-1.5,1.1-2.9,1.5-4.4c0.7-2.2,0.7-4.4,0.4-6.6c-0.1-1.5,0-3.1-0.2-4.6
		c-0.1-1.1-0.5-2.1-0.9-3.1c-0.4-1-0.1-1.6,1.1-1.6c0.5,0,1-0.1,1.5-0.1c1.2,0,1.6-0.2,1.7-1.8c0.1-1.1,0-2.1,0-3.5
		c1.4,0.3,2.7,0.5,4,0.8c2.6,0.7,5.2,0.7,7.9,0.7c1.1,0,2.1-0.4,3.2-0.8c0.2-0.1,0.3-0.5,0.5-0.7c-0.2-0.1-0.4-0.3-0.7-0.4
		c-0.1-0.1-0.3,0-0.4,0c-2.3,0.9-4.7,0.6-7.1,0.5c-1.6-0.1-3.3-0.5-4.9-0.8c-0.5-0.1-1.1-0.3-1.6-0.3c-0.7,0-0.9-0.2-0.9-0.9
		c0.2-2.1,0.4-4.3,0.7-6.4c0.2-1,0.8-1.9,1.3-3c1.8,1.1,3.7,1.3,5.7,1.3c1.1,0,2.3-0.4,3.4-0.7c0.2-0.1,0.4-0.6,0.6-0.9
		c-0.3-0.1-0.6-0.4-0.9-0.4c-0.7,0.1-1.3,0.3-2,0.4c-1.8,0.4-3.5-0.1-5.1-0.5c-0.2-0.1-0.4-0.3-0.5-0.4c1-1.3,2-2.6,2.8-3.9
		c0.6-1.1,0.8-2.3,1.1-3.5c0.1-0.4,0.2-0.8,0.2-1.2c0-0.2-0.2-0.4-0.3-0.6c-0.2,0.1-0.5,0.1-0.5,0.3c-0.2,0.5-0.5,0.9-0.5,1.4
		c-0.1,1.6-0.8,2.8-1.7,4c-0.8,1-1.7,1.8-2.5,2.8c-1.6,1.9-2.4,4.1-2.5,6.6c-0.1,2-0.9,3.7-1.8,5.3c-0.7,1.2-2,1.2-3.2,1.4
		c-0.7,0.1-1.4,0-2.4,0c1.1-0.6,2-1.1,2.8-1.6c0.9-0.5,2-1,2.1-2.2c0.1-1.5,0.2-3.1-0.7-4.4c-0.3-0.4-1-0.6-1.6-0.6
		c-1.2,0-2.3,0.2-3.6,0.3c-0.2-1.8-0.1-3.6,0.5-5.4c0.1-0.5,0.3-1,0.3-1.5c0.1-2.1,1.3-3.8,2.8-5c1.5-1.2,2.8-2.6,4.4-3.7
		c1.2-0.9,2.5-1.4,4.1-1.4c2.1,0.1,3.7,1.2,5.2,2.4c0.3,0.3,0.6,0.6,0.9,0.8c1.2,0.9,1.7,1.8,1.1,3.4c-0.5,1.2,0.1,1.9,1.2,2.5
		c1,0.5,2.1,0.8,3.3,0.5c0.5-0.1,1.2,0,1.8,0.2c1.1,0.4,2.1,0.8,3.1,1.4c0.4,0.2,0.7,0.8,1.1,1.2c0.3,0.2,0.8,0.6,1,0.5
		c0.3-0.1,0.6-0.7,0.6-1c-0.1-1.6-0.3-3.2-0.6-4.9c-0.1-0.8-0.4-1.5-0.5-2.2c1.2-0.4,2.6-0.7,3.8-1.2c0.3-0.1,0.4-0.6,0.6-0.9
		c-0.4,0-0.7-0.2-1-0.1c-1,0.3-2,0.6-3.2,1c0.4-1.4,0.8-2.5,1.1-3.7c0.1-0.2-0.1-0.6-0.3-0.8c-0.1-0.1-0.6,0-0.7,0.2
		c-0.3,0.6-0.6,1.3-0.8,2c-0.2,0.6-0.4,1.1-0.6,1.7c-0.6,1.1-1.2,2.2-1.9,3.3c-0.9,1.5-4.3,2.4-6.1,1.5c0.5-0.3,0.9-0.5,1.3-0.6
		c0.4-0.1,0.9-0.1,1.3-0.2c1.1-0.3,1.7-1.1,1.7-2.2c0-0.1,0-0.2,0-0.3c0.2-2-0.2-3.7-2.5-4.1c0.3-1.3,0.6-2.5,1-3.6
		c0.4-1,1.2-1.6,2.2-1.9c2.2-0.6,4.1,0.2,6,1c0.5,0.2,0.9,0.5,1.4,0.6c2.4,0.6,3.6,2.4,4.3,4.6c0.5,1.6,0.7,3.3,1.2,4.8
		c0.7,2.1,1.5,4.1,2.5,6.1c1.4,2.7,2.5,5.4,2.6,8.6c0.1,4.1,0.6,8.2,1.7,12.2c0.4,1.3,0.5,2.8,0.5,4.2c0,3.6,0.6,7.2,2.3,10.4
		c0.6,1.1,1.4,2.1,2.1,3.2c0.2,0.2,0.5,0.5,0.5,0.7v-2.4c0-0.4-0.5-0.8-0.8-1.3c-1.3-2.1-2.2-4.4-2.4-6.9c-0.2-3.8-0.5-7.7-1.6-11.4
		c-0.5-1.8-0.5-3.7-0.7-5.5c-0.3-2.4-0.3-4.8-0.8-7c-0.4-1.8-1.4-3.4-2.2-5.1c-0.2-0.5-0.4-0.9-0.7-1.4c-1.6-2.8-2.2-5.8-2.9-8.9
		c-0.7-3-2.3-5.2-5.5-6c-1.2-0.3-2.3-1.1-3.5-1.5c-2.3-0.7-4.5-0.3-6.5,1.1c-0.5,0.4-0.7,1.2-0.9,1.8c-0.7,2.2-1.4,4.4-2.2,6.8
		c-0.9-0.8-1.5-1.5-2.2-2.1c-1.2-0.9-2.5-1.8-3.9-2.5c-2.3-1.1-4.6-0.4-6.7,0.9c-0.8,0.5-1.4,1.3-2.2,1.9c-0.3,0.2-0.7,0.3-1,0.3
		c-1.6-0.3-3.2-0.8-4.8-1c-2.2-0.3-4.1,0.7-5.3,2.5c-1.7,2.7-3.1,5.6-4.7,8.3c-0.1,0.3-0.4,0.5-0.7,0.6c-1.2,0.3-2.3,0.4-3.5,0.6
		c-2.2,0.3-3.7,1.7-4.6,3.7c-0.7,1.5-1.4,3-1.8,4.6c-0.3,1-0.2,2.1-0.4,3.3c-1,0.5-2.1,1.3-3.3,1.8c-0.9,0.4-1.9,0.3-2.8,0.6
		c-1.7,0.4-2.3,1.6-1.8,3.2c0.3,0.8,1.4,1.3,2.6,1c0.4-0.1,0.9-0.2,1.3-0.3c0.8-0.3,1.4-0.1,2.2,0.3c0.9,0.5,2.1,0.5,3.4,0.7
		c0-0.1,0,0,0,0.1c0.1,2.2,0.9,2.9,3.1,3.1c2.3,0.2,4.5,0.5,6.8,0.8c0.7,0.1,1.4,0.4,1.9,0.7c0.4,0.3,0.7,0.8,0.8,1.3
		c0.6,3-0.2,6-0.7,9c-0.1,0.8,0.1,1.8,0.4,2.6c0.5,1.2,1.3,2.2,2.1,3.5c-0.7-0.5-1.1-0.8-1.6-1.2c-0.9-0.6-1.8-1.3-2.8-1.7
		c-2.7-1.2-4.7-3.1-6.4-5.4c-0.8-1-1.4-2.1-2.2-3.1c-1.1-1.3-2.4-2-4.1-1.5c-0.9,0.3-1.5,0-1.9-0.9c-0.8-1.6-1.7-3.1-3.3-4.1
		c-0.5-0.3-1-0.7-1.6-0.8c-1.2-0.3-1.8-1-2.1-2.1c-0.7-2.9-2.1-5.5-3.2-8.2c-1.3-3.1-2.2-6.3-3.3-9.4c-0.6-1.6-1.5-3.1-2.2-4.7
		c-0.2-0.5-0.4-1-0.5-1.5c-0.1-0.4-0.2-0.8-0.4-1.2c-1.3-1.9-2.6-3.9-4-5.8c-1.8-2.3-3.6-4.6-5.5-6.8c-2.5-2.9-5.3-5.5-9.1-6.8
		c-1.5-0.5-2.8-1.4-4.1-2.3c-3-2.2-6.3-3.9-9.9-4.7c-1.8-0.4-3.8-0.2-5.7-0.1c-2.6,0.1-4.9,1.1-7.3,2c-0.4,0.2-1.1,0.3-1.5,0.1
		c-2.2-1-4.4-0.8-6.7-0.8c-4.2,0-8.1,1.3-12.1,2.1c-3.8,0.7-7.3,1.9-10.5,4.1c-2,1.4-3.9,2.9-5.7,4.4c-2.9,2.5-5.6,5-8.4,7.6
		c-2.9,2.6-4.7,6-6.8,9.1c-3.1,4.6-4.9,9.6-6.3,14.9c-0.7,2.7-0.8,5.5-1.5,8.2c-0.5,2-1.1,3.9-1.5,5.9c-0.3,1.8-0.6,3.6-0.6,5.4
		c-0.1,2.6-0.1,5.1-0.2,7.7c0,1.5,0.2,3.1-0.5,4.6v21.4c0,0.1,0.3,0.3,0.3,0.4c0,2.4,0.4,4.8,1,7.1c0.6,2.5,0.7,5.2,1.1,7.7
		c0.6,3.7,1.1,7.4,1.9,11c0.6,2.9,1.6,5.6,2.4,8.5c0.9,3.7,1.8,7.5,3.4,11C11.2,145.6,12.7,148.4,14.1,151.3z M134.1,170.3
		c0.1,0,0.3,0.1,0.4,0.1c0.3,2.2,0.7,4.4,1.1,6.7C135.1,174.8,134.6,172.6,134.1,170.3C134.1,170.4,134.1,170.3,134.1,170.3z
		 M144.2,119.4c-0.1,0.2-0.3,0.4-0.5,0.4c-1.8,0.2-3.7,0.4-5.6,0.6c0.2-0.8,0.2-1.6,0.5-2.4c0.2-0.5,0.5-1.2,1.3-1.1
		c1.8,0.1,3.6,0.2,5.4,0.3C144.9,117.9,144.6,118.6,144.2,119.4z M144.8,73c0.5,0.3,1,0.6,1.5,0.9c1.6,0.8,3.2,1.6,4.9,2.4
		c0.4,0.2,0.9,0.3,1.3,0.6c1.6,1,3.1,2.1,5,2.5c1.4,0.4,2.8,1.2,4.1,1.8c1.3,0.6,2.6,1.1,3.9,1.7c0.4,0.2,0.7,0.5,1.1,0.8
		c1.1,0.8,2.1,1.7,3.2,2.4c1.3,0.9,2.6,1.8,4,2.6c1.7,0.9,3.5,1.6,5.1,2.5c1.5,0.9,2.9,2.1,4.4,3.1c2.3,1.7,4.7,3.3,7,5.1
		c1.3,1,2.3,2.3,3.4,3.5c0.6,0.6,1.3,1.2,2,1.8c1,0.9,2.1,1.8,3.1,2.8c0.5,0.5,0.8,1.1,1.1,1.9c-1.5-0.7-3-1.4-4.5-2.1
		c-0.1-0.1-0.3-0.2-0.4-0.3c-1.7-0.7-2.7-1.9-3.1-3.8c-0.3-1.5-1.5-2-2.9-1.4c-1.2,0.5-2.4,0.8-3.6,0.4c-0.3-0.1-0.7-0.2-0.9-0.4
		c-1.1-0.9-2.1-1.9-3.1-2.9c-0.3-0.2-0.5-0.5-0.9-0.6c-2.4-0.9-4.4-2.3-6.4-3.9c-0.8-0.6-1.9-1-2.9-1.5c-3.1-1.4-6.2-2.9-9.4-4.2
		c-1.6-0.7-3.4-0.9-5.2-1.3c-1-0.3-2.1-0.5-3.1-0.8c-0.2-0.1-0.3-0.4-0.4-0.6c-0.4-1.6-0.8-3.2-1.2-4.8c-0.6-2.3-1.2-4.6-3.6-5.8
		c-1.3-0.6-2.3-1.7-3.5-2.5C144.7,73.1,144.8,73,144.8,73z M178.1,24.5c0.3,1.6,0.6,3.1,0.9,4.8c-1.4-0.6-2.7-1.2-3.8-1.7
		C176.1,26.6,177,25.6,178.1,24.5z M171.3,20c0.6,0.4,1.4,0.8,1.6,1.2c0.2,0.9,0.1,2-0.1,2.9c-0.1,0.3-0.9,0.5-1.5,0.6
		c-0.6,0.2-1.3,0.3-2.1,0.5C169.9,23.6,170.6,21.9,171.3,20z M124.9,48.6c-1.3,0.2-2.6,0.5-3.9,0.8c-0.4-1.7-0.1-2.1,1.6-2.4
		c0.4-0.1,0.8,0,1.2-0.1c0.4-0.1,0.6-0.2,1.2-0.4V48.6z M148.9,36.9c1.3-0.1,2.3-0.1,3.4-0.2c0.7-0.1,0.9,0.3,1.1,0.9
		c0,0.1,0,0.2,0,0.3c0.3,2.7,0.4,2.9-2.1,4.2c-0.8,0.5-1.8,0.8-2.4,1.2V36.9z M139.8,33c-0.4-1.8,0.5-3,1.2-4.4
		c0-0.1,0.1-0.1,0.1-0.2c0.9-1.6,1.7-3.2,2.7-4.6c2-2.8,3.5-2.9,6.3-2.2c0.7,0.2,1.4,0.4,2.2,0.6c-1.6,1.7-3.2,3.3-3.8,5.5
		c-0.9,3.3-1.1,6.7-1.1,10.1c0,2.3-0.2,4.6-0.4,6.9c0,0.2-0.3,0.5-0.5,0.7c-1.6,1.2-3.4,1.3-5.3,1c-0.8-0.1-1.5-0.5-2.2-0.7
		c0-0.1,0-0.2,0.1-0.4c1.3-0.7,2.6-1.4,4.1-1.3c1.9,0,2.3-0.4,2.1-2.3c-0.1-1.1-0.1-2.1-0.3-3.2c-0.1-0.4-0.5-0.9-0.9-1.1
		c-1.6-0.7-3.2-0.9-5,0.1C139.5,35.8,140.1,34.3,139.8,33z M144.2,42c0,0.2-0.3,0.7-0.4,0.7c-1.9-0.2-3.6,0.6-5.5,1.5
		c0.5-1.9,0-3.8,1.3-5.5c0.9-1.2,2-0.9,3-0.8c0.9,0.1,1.7,0.4,1.5,1.7C144,40.4,144.3,41.2,144.2,42z M134.7,33.6
		c1-0.1,2-0.3,2.9-0.6c0.8-0.2,1,0.1,0.9,0.7c-0.3,2.2-0.7,4.5-1,6.7c-0.1,0.5-0.2,1.1-0.2,1.6c0,1.4-0.9,2.5-2.3,2.6
		c-1.3,0.1-2.6,0.1-4,0c-0.3,0-0.6-0.3-1-0.4c0-0.1,0-0.2,0.1-0.3c1.4-0.3,2.9-0.5,4.3-0.8c0.5-0.1,1.1-0.5,1.2-0.9c0.1-1,0.2-2,0-3
		c-0.3-1.4-0.7-1.6-2.1-1.6c-0.5,0-1,0-1.6,0c-0.5,0-0.9,0.1-1.4,0.2C131,35.2,132.5,33.7,134.7,33.6z M129.9,39.3
		c0.3-0.4,1-0.4,1.5-0.5c3-0.5,3.4-0.2,3,2.9c-1.8,0.4-3.6,0.7-5.5,1.1C128.7,41.4,129.1,40.3,129.9,39.3z M129.3,49.6
		c-0.9,0.1-1.7,0.1-2.6,0c-0.2,0-0.5-0.5-0.5-0.8c-0.1-1-0.1-1.9-0.2-3c1.2-0.9,2.5-1.2,3.9-0.2c0.4,0.3,1,0.4,1.5,0.4
		c1.6-0.1,3.2-0.2,4.8-0.4c0.4,0,0.8-0.3,1.2-0.5c0.9,1.6,2.3,2.3,4.1,2.3c0.9,0,1.8,0.2,2.7,0.1c0.9-0.1,1.8-0.3,2.5-0.8
		c1.3-1,2.7-1,4.2-1.1c1.1-0.1,2.2-0.2,3.2-0.5c1-0.3,1.8-0.9,2.8-1.5c-0.1,1.2-0.2,2.6-0.3,3.9c0,0.2-0.5,0.4-0.8,0.6
		c0,0-0.1,0-0.1,0c-3-0.2-5.9,0.2-8.8,0.5c-3,0.3-6.1-0.2-9.1-0.1C135,48.7,132.2,49.3,129.3,49.6z M129.3,61.3
		c0.5,0.6,0.9,1.3,1.4,2c0.6,0.9,1.2,1.8,1.9,2.7c-1.6,1.2-2.8,1-3.7-0.7c-0.8-1.5-1.3-3.2-2-4.8C128,60.2,128.7,60.6,129.3,61.3z
		 M129.9,128.6c-0.9,1.7-1.9,3.3-2.7,5c-0.9,2-1.7,4.1-1.6,6.5c0.1,1.2-0.2,2.4-0.1,3.6c0.1,1.1,0.1,2-0.6,2.9
		c-0.5,0.7-0.7,1.7-0.9,2.6c-0.4,2.4-2,4.2-3.1,6.3c-0.2,0.3-0.4,0.4-0.5,0.7c-0.8,2-2,3.7-3.3,5.3c-8.1,6.9-16.5,13.7-25.9,18.6
		c-0.6,0-1.2,0.1-1.9,0.6c-0.5,0.4-1,0.7-1.5,1c0,0,0,0,0,0c-1.1,0.5-2.2,1-3.4,1.5c-0.5,0.2-0.7,0.6-0.8,1.1
		c-4.2,2.2-8.7,3.7-13.4,4.4c0.3-0.6,0.6-1.2,0.9-1.9c3.4-7.7,3.9-16.2,3.9-24.5h0.9c0-0.6,0.1-1.9-0.1-2.9c-0.5-4-1.5-7.8-2.4-11.8
		c-0.7-3-1.7-5.9-3-8.6c-1.8-3.8-3.5-7.6-5.4-11.4c-0.9-1.8-2.1-3.4-3.9-4.5c-1-0.6-1-1.4-0.1-2.1c1.1-0.8,1.2-2,1.4-3.2
		c0.3,0.1,0.6,0.1,0.8,0.2c2.6,1.3,4.9,3.1,6.8,5.3c1.8,2.2,3.7,4.4,6.1,6c2.5,1.7,5.3,2.3,8.1,2.8c2,0.4,4.1,0.6,6.1,0.8
		c3,0.3,6,0.6,9,0.7c3.3,0.1,6.6,0.1,9.9,0c2-0.1,4.1-0.4,6.1-0.6c4.4-0.4,8.2-2.5,12-4.3c1-0.5,2-0.9,3.1-1.4
		C130.2,127.9,130.1,128.2,129.9,128.6z M136.6,93c0.3,0.7,0.7,1.4,0.9,2.1c1.2,3.1,1.9,6.2,0.9,9.6c-0.2,0.7-0.3,1.4-0.4,2.1
		c-0.1,0-0.1,0-0.2,0c-0.2-1.4-0.3-2.9-0.5-4.3c-0.3-1.8-0.6-3.6-1.1-5.3c-0.3-1.3-0.4-2.6-0.4-4c0-0.2,0.1-0.3,0.2-0.5
		C136.2,92.8,136.5,92.8,136.6,93z M132.9,81.9c2.4,1.7,3.8,5.2,2.9,9.5C135.1,91,132.7,83.3,132.9,81.9z M116,51.9
		c0.7,1.7,0.2,3.2-0.9,4.3c-1,1-2.3,1.8-3.6,2.6c-0.9,0.5-1.8,0.9-2.8,1.2c-1,0.3-2.1,0.5-3.2,0.7c-0.2,0-0.6-0.4-0.6-0.6
		c-0.5-2.2-0.2-4.3,0.5-6.4c0.3-1,0.8-1.9,1.3-2.9c-0.1,1.5,0.5,2.7,1.7,3.4c0.9,0.4,2.1,0.7,3,0.5c2.2-0.4,3.1-2.8,2.7-4.3
		c-0.8-3.1-3.2-3-5.4-2.7c0.5-0.3,1-0.6,1.6-0.9c1-0.5,1.9-0.4,2.9,0.3C115.1,48.2,115.3,50.1,116,51.9z M44.8,110.7
		c0.3,0.4,0.7,0.7,1,1.1c1.4,2.4,4.8,2.9,6.9,2.7c0.8-0.1,1.9-1.6,1.9-2.5c0-0.7-0.1-1.4,0-2c0.2-1.4-0.6-2.2-1.6-2.9
		c-0.6-0.3-1.1-0.7-1.7-1.1c-1-0.6-1.9-1.3-2.3-2.4c-0.2-0.6-0.7-0.9-1.4-0.7c-0.7,0.2-0.6,0.8-0.5,1.3c0.2,0.6,0.4,1.2,0.8,1.7
		c0.7,1.1,1.8,1.7,3,2.2c1.1,0.5,1.2,1.6,0.5,2.9c-0.6,1-1.5,1.3-2.4,0.6c-1-0.8-1.8-1.9-2.8-2.8c-1.8-1.6-1.3-3.7-1.1-5.7
		c0.1-1.7,0.7-3.5,0.7-5.2c0.1-4,0-8,0-12c0-2.4,1.4-4.3,2.9-5.9c2.1-2.4,4.5-4.5,6.7-6.8c1.2-1.2,2.3-2.6,3.5-3.9
		c0.7-0.8,1.6-1.4,2.4-2.1c1.5-1.4,3-2.7,4.5-4.1c0.9-0.9,1.9-1.7,2.8-2.6c0.4-0.5,0.6-1.2,1-1.8c0.1-0.3,0.3-0.5,0.5-0.8
		c0.7-1,1.6-1.9,2.2-2.9c0.9-1.4,1.8-2.7,2.5-4.2c1.2-2.2,1.7-4.5,1.2-7c-0.2-1.4-0.1-2.8-0.2-4.2c-0.1-1.2-0.1-2.4-0.4-3.5
		c-0.4-1.5-0.5-3-0.6-4.5c-0.1-2.6-0.2-5.1-0.6-7.7c-0.3-1.7-1.1-3.2-1.6-4.8c-0.1-0.4-0.3-0.8-0.3-1.2c0-0.3,0.2-0.8,0.5-0.9
		c0.3-0.1,0.8,0.1,1,0.4c1.3,2.3,3.5,3.4,5.6,4.9c3.1,2.1,6.7,3,9.9,4.8c1.4,0.8,2.9,1.5,4.2,2.5c1.4,1,3,1.7,4.7,1.7
		c2.8,0,4.8,1.6,6.9,3c0.5,0.3,0.9,0.7,1.4,1.1c0.8,0.7,0.9,1.6,0.3,2.5c-1.1,1.5-2.2,3-3.4,4.5c-0.6,0.7-1.2,1.4-1.7,2.2
		c-0.2,0.3,0,0.9,0,1.3c0.4-0.1,1,0,1.2-0.3c1.3-1.3,2.6-2.5,3.9-3.9c0.9-1,1.6-2.1,2.4-3.2c0.8,0.8,1.8,1.4,2.3,2.2
		c0.8,1.4,1.2,3,1.9,4.6c-3.2-0.9-5,1-6.7,3.1c-2,2.5-3.2,5.4-3.7,8.5c-0.4,2.2,0.6,4.1,1.9,5.7c1.2,1.5,2.6,2.8,3.9,4.2
		c1.1,1.2,2.2,2.3,3.2,3.5c1,1.2,2.1,2.1,3.5,2.8c2.4,1.2,4.7,2.3,6.7,4.1c0.7,0.7,1.5,1.3,2,2.2c0.6,1.1,0.6,2.3,0.1,3.5
		c-0.7,1.7-1.5,3.3-3.3,4.2c-0.2,0.1-0.4,0.3-0.6,0.5c-0.6,0.8-1.4,0.9-2.3,0.5c-2.6-1-4.9,0.1-5.6,2.8c-0.6,2.4-3.5,3.6-5.7,2.5
		c-3-1.5-3.5-3.5-3.1-6.7c0.1-0.4,0.6-0.8,0.8-1.2c0.2-0.3,0.3-0.6,0.4-0.9c-1.1-0.4-1.5,0.2-1.8,0.9c-1.1,1.9-0.8,5.5,1,7.1
		c2.2,2.2,4.3,3,7.3,1.3c1.2-0.7,2-1.8,2.4-3.2c0.5-1.7,2-2.6,3.6-1.9c1.5,0.6,2.7,0.4,3.7-0.8c0.3-0.3,0.7-0.5,1-0.8
		c0.7-0.8,1.4-1.5,2.1-2.4c0.4-0.5,0.8-1.2,1.1-1.7c0.1-0.2,0.3-0.4,0.3-0.6c0.3-2.4-0.2-4.4-2.1-6c-2-1.7-4.1-2.9-6.3-4.2
		c-2.2-1.2-4.4-2.8-6.1-4.8c-1.4-1.6-3-3.1-4.6-4.6c-0.3-0.3-0.5-0.6-0.8-1c2.6-0.1,4.6-1.4,6.7-2.5c1.9-1,3.9-2.2,4.6-4.6
		c0.1-0.2,0.2-0.3,0.3-0.5c2.7,0.5,4.5,2.1,5.7,4.4c0.2,0.3,0.3,0.7,0.6,0.9c1,0.9,1.2,2.1,1.2,3.4c0,1,0.2,2,0.6,3
		c0.9,2.7,1.9,5.5,3.5,7.9c1.1,1.6,1.2,3.3,1.7,5c0.2,0.7,0.4,1.5,0.6,2.2c0.9,3.6,1.8,7.1,2.7,10.7c0.1,0.4,0.2,0.9,0.2,1.3
		c0.1,3,1.5,5.9,1.8,8.8c0.3,2.8,0.7,5.7,1.4,8.4c0.1,0.2-0.2,0.6-0.4,0.7c-1.9,0.9-3.4,2.3-4.4,4.1c-0.7,1.3-1.2,2.8-1.5,4.2
		c-0.3,1.8-0.3,3.7-0.5,5.5c0,0.3-0.3,0.6-0.6,0.8c-0.6,0.5-1.3,1-2,1.3c-1.8,0.9-3.6,1.5-5.3,2.5c-1.8,1-3.6,1.6-5.6,1.9
		c-2.2,0.4-4.5,0.6-6.7,0.7c-3.5,0.1-7,0.2-10.5,0.2c-2.6,0-5.1-0.3-7.7-0.6c-3.2-0.4-6.3-0.8-9.4-1.4c-3.9-0.7-7-2.8-9.6-5.8
		c-1.8-2.1-3.7-4.1-5.8-5.9c-1.2-1.1-2.8-1.8-4.3-2.6c-1.3-0.8-2.7-1.6-4-2.3c-0.3-0.2-0.8-0.1-1.2-0.1c0.2,0.4,0.2,0.9,0.5,1.1
		c0.9,0.6,1.8,1.2,2.7,1.7c-0.1,0.6-0.2,1-0.1,1.5c0,0.8-0.3,1.5-0.9,2c-4.2,4.4-11.1,2-13.3-1.4c-0.6-1-1.4-2-2.1-3
		C43.6,114.4,43.7,112,44.8,110.7z"/>
	<path class="st0" d="M87.7,75.1c0.1,1.4-0.4,2.5-1.4,3.5c-1.3,1.2-2.5,2.5-3.9,3.5c-2,1.3-4.4,1.5-6.8,1.8
		c-1.2,0.1-2.4,0.1-3.6,0.2c-0.3,0-0.6,0.2-0.9,0.3c-0.2,0.1-0.6,0.2-0.7,0.1c-0.2-0.2-0.3-0.5-0.3-0.8c0-0.4,0.1-0.8,0.2-1.1
		c1-2.8,2-5.6,3.1-8.3c0.6-1.6,1.6-3,2.4-4.5c0.1-0.2,0.2-0.4,0.4-0.4c2.2-0.6,4.1-2.1,6.5-1.6c0.6,0.1,1.1,0.5,1.5,0.9
		c0.8,0.8,1.7,1.6,2.3,2.6c0.7,1.1,1,2.5,1.5,3.7C87.9,75,87.8,75,87.7,75.1z M85.3,71.9c-0.1,0.5-0.1,1-0.3,1.4
		c-0.5,1.5-1,2.9-2.7,3.3c-2.1,0.4-4.1-0.1-5.9-1.4c-0.3-0.2-0.5-0.6-0.8-1c-0.3,0.6-0.5,1.2-0.8,1.7c-1.1,1.8-1.9,3.8-2.3,5.9
		c-0.1,0.7,0.2,0.9,0.8,0.8c1.4-0.2,2.7-0.3,4.1-0.6c2.8-0.5,5.3-1.2,7.2-3.6C86.1,76.4,86.5,74.3,85.3,71.9z"/>
	<path class="st0" d="M108.6,114.4c0.6-1,1.3-2,1.9-2.9c0.7-1,1.5-1.9,2.2-2.8c1.2-1.6,2.5-3.2,3.7-4.8c0.9-1.3,1.8-2.6,2.8-3.7
		c0.4-0.5,1.2-0.7,1.9-0.9c1.2-0.3,2.3-0.7,2.9-2c1.3-2.7,3.9-4.1,6.9-3.7c0.7,0.1,1.4,0.3,2.1,0.5c0.6,0.2,0.8,1.1,0.5,1.7
		c-0.4,0.8-0.7,1.7-0.9,2.5c-0.2,1.3-0.1,2.7-0.5,3.9c-0.4,1.2-1.2,2.2-2,3.2c-2.3,3.1-5.2,5.5-9.1,6.2c-1.6,0.3-3.3,0.4-4.9,0.7
		c-2.3,0.4-4.5,1.3-6.3,2.8c-0.2,0.2-0.5,0.3-0.7,0.2C108.8,115.2,108.7,114.8,108.6,114.4z M131.8,96.7
		c-6.4,5.1-12.9,10.2-19.4,15.3c1.1-0.2,2-0.6,3-0.7c1.6-0.3,3.2-0.4,4.8-0.6c2.4-0.4,4.6-1.2,6.4-2.9c1.3-1.3,2.5-2.8,3.7-4.2
		c0.4-0.6,0.8-1.3,0.9-2C131.5,99.9,131.6,98.2,131.8,96.7z M113.3,109.5c0.1,0.1,0.2,0.2,0.2,0.3c6.1-4.9,12.2-9.7,18.6-14.7
		c-0.6-0.2-0.8-0.4-1.1-0.4c-2.9,0-4.8,0.2-6.1,3c-0.8,1.7-2,2.3-3.7,2.6c-0.5,0.1-1.1,0.4-1.4,0.7c-1.5,1.8-2.9,3.7-4.3,5.5
		C114.8,107.5,114.1,108.5,113.3,109.5z"/>
	<path class="st0" d="M85.1,56.5c0.3,0,0.5,0,0.8,0c0.7-0.1,1.3,0.1,1.6,0.8c0.3,0.7,0.2,1.5-0.4,2c-1.5,1.2-3,2.4-4.7,3.2
		c-1.8,0.9-3.8,1.2-5.7,1.8c-3.2,1.1-6.4,2.1-9.1,4.3c-0.2,0.2-0.4,0.4-0.7,0.5c-0.3,0.1-0.7,0.2-1,0.2c-0.1-0.4-0.4-0.9-0.2-1.2
		c0.6-0.8,1.3-1.5,2.1-2.2c0.4-0.4,0.9-0.6,1.4-0.8c3.1-1.3,5.3-3.6,8-5.5c1.9-1.3,3.8-2.3,5.9-3C83.6,56.5,84.4,56.5,85.1,56.5
		C85.1,56.4,85.1,56.4,85.1,56.5z"/>
	<path class="st0" d="M173.2,56.6c0.2,0.3,0.4,0.6,0.5,0.9c0.4,1.5,0.6,2.9,1,4.4c0.5,2,0.9,4.1,1.4,6c0.3,1.1,0.8,2.1,1.4,3
		c1.2,1.9,2.4,3.6,3.6,5.4c0.1,0.2,0.1,0.7-0.1,0.9c-0.2,0.2-0.7,0.1-0.9,0c-0.6-0.6-1.1-1.2-1.5-1.9c-0.9-1.5-2-2.9-2.7-4.5
		c-0.7-1.8-1.2-3.7-1.6-5.6c-0.6-2.5-1.1-5.1-1.7-7.7c-0.1-0.3,0.1-0.7,0.2-1C173,56.6,173.1,56.6,173.2,56.6z"/>
</g>
</svg>
