<?xml version="1.0" encoding="utf-8"?>
<!-- Generator: Adobe Illustrator 20.1.0, SVG Export Plug-In . SVG Version: 6.00 Build 0)  -->
<svg version="1.1" id="Layer_1" xmlns="http://www.w3.org/2000/svg" xmlns:xlink="http://www.w3.org/1999/xlink" x="0px" y="0px"
	 viewBox="0 0 98.3 174.2" style="enable-background:new 0 0 98.3 174.2;" xml:space="preserve">
<style type="text/css">
	.st0{fill:#03A9F4;}
</style>
<g id="info-icon">
	<path class="st0" d="M10.4,0C36.3,0,62.1,0,88,0c6.7,2.3,10.4,6.5,10.4,14c-0.1,48.7,0,97.5-0.1,146.2c0,1.6-0.1,3.2-0.5,4.7
		c-1.7,6-6.5,9.3-13.8,9.3c-22.9,0-45.8,0-68.7,0C4.7,174.2,0,169.5,0,158.9C0.1,111.2,0.2,63.6,0,16C0,8,2.6,2.5,10.4,0z M89,133.8
		c0-37.6,0-74.9,0-112.4c-26.6,0-53.1,0-79.7,0c0,37.6,0,74.9,0,112.4C35.9,133.8,62.3,133.8,89,133.8z M49.6,7.5
		c-5.5,0-11.1,0.1-16.6,0c-2.5,0-3.5,1-3.5,3.4s1.2,3.1,3.4,3.1c10.9,0,21.7-0.1,32.6,0c2.4,0,3.5-1,3.5-3.4
		c-0.1-2.3-1.2-3.1-3.4-3.1C60.2,7.6,54.9,7.5,49.6,7.5z M57.3,153.6c0-4.3-3.6-8-8-8c-4.6-0.1-8.3,3.5-8.3,8c0,4.2,3.7,8.1,8,8.2
		C53.2,161.9,57.3,157.9,57.3,153.6z"/>
	<path class="st0" d="M49.1,116.9c-20-0.1-36.6-16.6-36.6-36.6c0-19.9,17-36.9,36.9-36.8c20.1,0.1,36.6,16.9,36.5,37
		C85.7,100.7,69.2,117,49.1,116.9z M81.5,80.3c0-18-14.5-32.4-32.4-32.3C31.4,48.2,17,62.7,17,80.3c0,17.9,14.5,32.3,32.5,32.2
		C67.3,112.5,81.5,98.2,81.5,80.3z"/>
	<path class="st0" d="M50.3,94.3c1.8-1.5,3.6-3.1,5.7-4.8c-1.4,4.6-7.9,9.4-11.9,9c-2.6-0.2-3.8-1.9-2.8-4.9c1.5-4.7,3.4-9.3,5.1-14
		c0.4-1.1,0.6-2.2,0.9-3.3c-0.3-0.2-0.6-0.4-0.9-0.7c-1.9,1.6-3.7,3.2-5.6,4.8c0.4-4.5,8.8-9.6,12.4-7.5c1,0.6,1.8,3,1.4,4.2
		c-1.1,4.3-2.8,8.5-4.3,12.8c-0.4,1.1-0.8,2.3-1.2,3.4C49.6,93.7,49.9,94,50.3,94.3z"/>
	<path class="st0" d="M54.6,70.1c-2.8,0-4.1-1.1-4.2-3.5c-0.1-2.8,1.6-4.3,4.1-4.5c2.1-0.2,3.6,1.1,3.7,3.5
		C58.2,68.5,56.6,69.7,54.6,70.1z"/>
</g>
</svg>
