<?xml version="1.0" encoding="utf-8"?>
<!-- Generator: Adobe Illustrator 19.1.0, SVG Export Plug-In . SVG Version: 6.00 Build 0)  -->
<svg version="1.1" id="Layer_1" xmlns="http://www.w3.org/2000/svg" xmlns:xlink="http://www.w3.org/1999/xlink" x="0px" y="0px"
	 viewBox="0 0 100 100" style="enable-background:new 0 0 100 100;" xml:space="preserve">
<style type="text/css">
	.st0{fill:#FFC107;}
</style>
<g id="info-icon">
	<path class="st0" d="M47.7,0c1.6,0,3.1,0,4.7,0c0.3,0.1,0.7,0.1,1,0.2c2.2,0.3,4.5,0.4,6.6,0.9c11.8,2.5,21.5,8.4,29,17.8
		c5.7,7.1,9.1,15.1,10.4,24.1c0.2,1.6,0.4,3.1,0.6,4.7c0,1.6,0,3.1,0,4.7c-0.1,0.3-0.1,0.6-0.2,0.9c-0.3,2.2-0.4,4.5-0.9,6.6
		c-2.6,12.3-8.9,22.3-18.9,30c-6.8,5.2-14.5,8.4-23,9.5c-1.6,0.2-3.1,0.4-4.7,0.6c-1.6,0-3.1,0-4.7,0c-0.2,0-0.3-0.1-0.5-0.1
		c-2-0.2-4.1-0.3-6.1-0.7C28,96.7,17.4,90,9.5,79.2c-4.8-6.6-7.8-14-8.9-22.1c-0.2-1.6-0.4-3.1-0.6-4.7c0-1.6,0-3.1,0-4.7
		c0.1-0.3,0.1-0.7,0.2-1C0.5,44.4,0.6,42.2,1,40c2.6-12.2,8.8-22.1,18.7-29.7C26.6,5,34.4,1.7,42.9,0.6C44.5,0.3,46.1,0.2,47.7,0z
		 M6.3,50C6.1,74,25.9,93.8,50.1,93.8C74,93.7,93.6,74.1,93.8,50.3C93.9,26,73.9,6,49.5,6.2C25.8,6.4,6.2,26,6.3,50z"/>
	<path class="st0" d="M58.3,44.1c-0.4,1.6-0.7,3.2-1.3,4.8C55,54.2,53,59.5,51.1,64.9c-0.3,0.8-0.5,1.7-0.6,2.6
		c-0.1,1,0.6,1.5,1.5,1c0.6-0.3,1.3-0.7,1.7-1.2c1.4-1.4,2.7-2.9,4.1-4.3c0.4-0.4,0.8-1.1,1.4-0.6c0.7,0.5,0.5,1.2,0.2,1.8
		c-1.2,2.2-2.9,3.8-4.7,5.4c-2.7,2.3-5.6,4.2-9.1,5c-0.6,0.1-1.3,0.3-1.9,0.3c-3.5,0.2-5.4-2-4.9-5.4c0.7-4.3,2.3-8.2,3.9-12.2
		c1.4-3.6,2.8-7.1,4.2-10.7c0.1-0.3,0.3-0.6,0.3-0.9c0-0.5,0-1.1-0.3-1.4c-0.2-0.3-1-0.3-1.3-0.1c-0.8,0.4-1.6,0.9-2.2,1.6
		c-1,1-2,2.2-2.9,3.3c-0.3,0.4-0.6,0.7-1,1.1c-0.4,0.4-0.9,0.7-1.5,0.3c-0.6-0.4-0.5-1-0.1-1.5c3.8-5.3,8.4-9.7,15.4-9.9
		C56.4,39,58.1,40.8,58.3,44.1z"/>
	<path class="st0" d="M51.2,31.2c0-4,3.9-7,7.8-5.9c3,0.8,4.4,4.2,3.1,7.3c-1.2,2.9-4.5,4.4-7.5,3.5C52.4,35.4,51.2,33.6,51.2,31.2z
		"/>
</g>
</svg>
