<?xml version="1.0" encoding="utf-8"?>
<!-- Generator: Adobe Illustrator 19.2.1, SVG Export Plug-In . SVG Version: 6.00 Build 0)  -->
<svg version="1.1" id="Layer_1" xmlns="http://www.w3.org/2000/svg" xmlns:xlink="http://www.w3.org/1999/xlink" x="0px" y="0px"
	 viewBox="0 0 100 81.9" style="enable-background:new 0 0 100 81.9;" xml:space="preserve">
<style type="text/css">
	.st0{fill:#673AB7;}
</style>
<g id="pediatric-icon">
	<path class="st0" d="M0,28c2.7-1.4,5.4-2.8,8-4.3C21.6,15.9,35.2,8,48.9,0.2c0.6-0.3,1.6-0.2,2.2,0.1C63.6,7.5,76,14.7,88.4,21.9
		C92,24,95.5,26,99.1,28.1c0.3,0.2,0.6,0.2,0.9,0.3c0,0.1,0,0.2,0,0.3c-1,1.2-2.1,2.4-3,3.7c-0.8,1.1-1.4,1.4-2.7,0.6
		C80.1,24.8,65.8,16.6,51.6,8.3c-1.4-0.8-2.3-0.7-3.6,0.1C33.9,16.6,19.6,24.8,5.5,33c-1.2,0.7-1.8,0.4-2.5-0.6
		c-0.9-1.3-2-2.5-3-3.7C0,28.5,0,28.3,0,28z"/>
	<path class="st0" d="M88.6,58.9c0,7.1,0,14.2,0,21.3c0,1.3-0.4,1.6-1.6,1.6c-6.6,0-13.2,0-19.8,0c-1.2,0-1.7-0.3-1.7-1.7
		c0.1-10.4,0-20.8,0.1-31.2c0-1.6-0.4-2-2-2c-9,0.1-18,0.1-27,0c-1.6,0-1.9,0.5-1.9,2c0.1,10.3,0,20.6,0.1,30.8c0,1.7-0.5,2-2.1,2
		c-6.4-0.1-12.9-0.1-19.3,0c-1.3,0-1.7-0.4-1.7-1.7c0.1-14.3,0-28.6,0-42.8c0-1.1,0.4-1.7,1.3-2.2c12-6.8,24-13.7,36-20.6
		c0.9-0.5,1.6-0.5,2.4,0C63.2,21.3,75.1,28.1,87,34.8c1.2,0.7,1.7,1.5,1.7,2.9C88.5,44.8,88.6,51.8,88.6,58.9z"/>
	<path class="st0" d="M58.4,70.9c-0.8-1.3-2.4-1.8-3.9-1.2c-1,0.4-3.6-0.5-4.1-1.3c-0.8-1.4,0-3,1.3-3.7c1-0.5,2.2-1.4,2.7-2.3
		c0.8-0.9,1.3-2.2,1.5-3.4c0.2-1,0.3-2,0.3-2.9c0-0.6,0-1.2-0.1-1.8c0.1-1.2-0.8-2.1-2-2.4c-0.4-0.1-0.8-0.3-1.3-0.4
		c-0.1,0-0.2,0-0.3,0c-0.2-0.3-0.6-0.4-0.9-0.4c-0.6,0.1-0.7,0.7-0.9,1.2c-0.1,0.5-0.2,1.2,0.4,1.4c0.5,0.2,0.9,0,1.3-0.3h0.1
		c1.1-0.2,1.7,0,1.9,1.2c0.4,2.4-0.1,4.7-1.2,6.8c-0.8,1.6-2.4,2.3-4.2,2.3s-3.1-0.9-3.6-2.7s-1-3.7-1.1-5.5c-0.2-2.3,0.4-2.6,2.6-2
		c0.4,0.1,1.2-0.1,1.4-0.4c0.2-0.3,0.2-1,0-1.4c0-0.1,0-0.1-0.1-0.2c0-0.1-0.1-0.1-0.1-0.2c-0.1-0.2-0.2-0.3-0.3-0.4
		c-0.3-0.1-0.7-0.1-1,0.2c-0.2,0.1-0.4,0.3-0.6,0.4c-0.2,0.1-0.4,0.1-0.6,0.2c-1.8,0.2-2.6,0.9-2.7,2.7c-0.1,0.9-0.4,1.9-0.2,2.8
		c0.9,3.3,1.3,7.2,5.3,7.9v2.8c-4-0.6-6.3,0.4-6.8,3.6c-0.4,2.5,1.3,4.6,3.6,5c3.9,0.5,4.8-0.4,5.5-5.7c2,0.5,1.9,0.5,2.3,2.3
		c0.2,0.8,0.7,1.7,1.3,2.2c1.2,1,3.1,0.7,4.1-0.5C59,73.7,59.2,72.2,58.4,70.9z M48.7,71.6c0,2.8-0.6,3.5-2.6,3.4
		c-2,0-3.1-1.1-3.1-2.8c0-1.9,1.2-3.1,3.1-3.1C48.5,69.1,48.7,69.3,48.7,71.6z M57.2,72.7c-0.1,0.6-0.9,1.3-1.5,1.3
		c-0.4,0-1.3-0.8-1.3-1.4c0-0.3,0.2-0.6,0.6-1.1c0.6-0.2,1.2,0,1.7,0.2C57,72.2,57.2,72.5,57.2,72.7z"/>
</g>
</svg>
