<?xml version="1.0" encoding="utf-8"?>
<!-- Generator: Adobe Illustrator 19.1.0, SVG Export Plug-In . SVG Version: 6.00 Build 0)  -->
<svg version="1.1" id="Layer_1" xmlns="http://www.w3.org/2000/svg" xmlns:xlink="http://www.w3.org/1999/xlink" x="0px" y="0px"
	 viewBox="0 0 100 81.9" style="enable-background:new 0 0 100 81.9;" xml:space="preserve">
<style type="text/css">
	.st0{fill:#4CAF50;}
</style>
<g id="pharmacy-icon">
	<path class="st0" d="M0,28c2.7-1.4,5.4-2.8,8-4.3C21.6,15.9,35.2,8,48.9,0.2c0.6-0.3,1.6-0.2,2.2,0.1C63.6,7.5,76,14.7,88.4,21.9
		c3.6,2.1,7.1,4.1,10.7,6.2c0.3,0.2,0.6,0.2,0.9,0.3c0,0.1,0,0.2,0,0.3c-1,1.2-2.1,2.4-3,3.7c-0.8,1.1-1.4,1.4-2.7,0.6
		C80.1,24.8,65.8,16.6,51.6,8.3c-1.4-0.8-2.3-0.7-3.6,0.1C33.9,16.6,19.6,24.8,5.5,33c-1.2,0.7-1.8,0.4-2.5-0.6
		C2.1,31.1,1,29.9,0,28.7C0,28.5,0,28.3,0,28z"/>
	<path class="st0" d="M11.6,58.7c0-7.1,0-14.2,0-21.3c0-1.1,0.3-1.7,1.2-2.3c10.7-6,21.3-12.1,32-18.2c1.4-0.8,2.7-1.7,4.2-2.4
		c0.6-0.3,1.6-0.4,2.1-0.1c12.1,6.8,24.1,13.7,36.2,20.6c0.9,0.5,1.3,1.1,1.3,2.2c0,14.3,0,28.6,0,42.8c0,1.3-0.4,1.7-1.7,1.7
		c-6.6,0-13.1-0.1-19.7,0c-1.3,0-1.8-0.3-1.8-1.8c0.1-10.4,0-20.8,0.1-31.2c0-1.5-0.4-1.9-1.9-1.9c-9.1,0.1-18.1,0.1-27.2,0
		c-1.5,0-1.9,0.5-1.8,1.9c0.1,10.3,0,20.6,0.1,30.8c0,1.8-0.5,2.1-2.2,2.1c-6.4-0.1-12.8-0.1-19.2,0c-1.4,0-1.8-0.4-1.8-1.8
		C11.7,72.9,11.6,65.8,11.6,58.7z"/>
	<path class="st0" d="M44.1,65.6c-0.3-1.5-0.1-2.6,1.2-3.6c0.8-0.6,1.2-1.7,2-2.9c1.8,0,4.2,0,6.7,0c-0.2,1.6,0.7,2.6,2,3.5
		c0.5,0.3,0.7,1.2,0.7,1.9c0.1,3.2,0.1,6.3,0,9.5c0,2-0.8,2.8-2.9,2.8c-2.5,0-5,0-7.5,0c-2,0-3.2-2-2.4-3.8c0.1-0.3,0.7-0.5,1.1-0.5
		c1.5,0,3-0.1,4.5,0c1,0,1.5-0.2,1.5-1.4c0.2-5.5,0.2-5.5-5.3-5.4C45.2,65.6,44.6,65.6,44.1,65.6z"/>
	<path class="st0" d="M46.2,57.9c-0.1-0.2-0.1-0.2-0.1-0.3c-0.3-3-0.3-3,2.6-2.9c1.4,0,2.8,0,4.1,0c2.1,0,2.3,0.2,2,2.3
		c0,0.3-0.1,0.5-0.1,0.9C51.8,57.9,49,57.9,46.2,57.9z"/>
</g>
</svg>
