<?xml version="1.0" encoding="utf-8"?>
<!-- Generator: Adobe Illustrator 19.1.0, SVG Export Plug-In . SVG Version: 6.00 Build 0)  -->
<svg version="1.1" id="Layer_1" xmlns="http://www.w3.org/2000/svg" xmlns:xlink="http://www.w3.org/1999/xlink" x="0px" y="0px"
	 viewBox="0 0 80 65.5" style="enable-background:new 0 0 80 65.5;" xml:space="preserve">
<style type="text/css">
	.st0{fill:#F44336;}
</style>
<g id="urgentcare-icon_1_">
	<path class="st0" d="M-0.3,22.6c2.2-1.2,4.5-2.4,6.7-3.6C17.3,12.7,28.2,6.4,39.1,0.2c0.4-0.3,1.3-0.2,1.8,0.1
		c10,5.7,19.9,11.5,29.9,17.3c2.8,1.6,5.7,3.3,8.5,5c0.2,0.1,0.5,0.2,0.7,0.2c0,0.1,0,0.2,0,0.3c-0.8,1-1.6,1.9-2.4,3
		c-0.6,0.9-1.1,1.1-2.1,0.5C64.1,19.8,52.7,13.3,41.3,6.6c-1.1-0.6-1.8-0.6-2.9,0C27.1,13.3,15.7,19.8,4.4,26.4
		c-1,0.6-1.4,0.3-2-0.5C1.6,24.7,0.6,23.7-0.3,22.6z"/>
	<path class="st0" d="M70.9,47c0,5.7,0,11.5,0,17.2c0,1-0.3,1.3-1.3,1.3c-5.3,0-10.6,0-15.9,0c-1,0-1.4-0.3-1.4-1.4
		c0-8.3,0-16.6,0.1-24.9c0-1.3-0.4-1.6-1.6-1.6c-7.2,0-14.3,0.1-21.5,0c-1.2,0-1.7,0.3-1.7,1.6c0.1,8.3,0,16.5,0,24.8
		c0,1.4-0.4,1.6-2.6,1.3c-4.1-0.5-8.3-0.6-12.5-0.1c-2.9,0.4-3.4,0.2-3.4-1.5c0-11.6,0-23.1,0-34.7c0-0.3,0.2-0.6,0.4-0.7
		c8.7-4.9,17.3-9.9,26-14.8c1.1-0.6,2.3-1.3,3.3-1.9c0.9-0.6,1.7-0.4,2.9,0.5c7.8,6.2,16.4,11.3,25.7,14.8c2.5,0.9,3.3,1.5,3.3,3.3
		C70.8,35.9,70.9,41.4,70.9,47z"/>
	<path class="st0" d="M35,52.2c-0.4,0-0.8,0-1.2,0c-0.2,0-0.5,0-0.7-0.1c-1.9-0.8-0.9-2.5-1-3.7c-0.1-1,0.5-1.4,1.5-1.4
		c0.8,0,1.6,0,2.4,0c1.1,0.1,1.4-0.4,1.4-1.4c0-0.7,0-1.4,0-2.1c0-0.3-0.1-0.6,0.1-0.8c0.9-1.7,2.5-0.7,3.8-0.9
		c0.9-0.1,1.4,0.4,1.5,1.3c0,0.9,0,1.9,0,2.8c0,0.8,0.3,1.1,1.1,1.1c0.8,0,1.6,0,2.4,0c0.3,0,0.7-0.1,0.9,0.1
		c1.5,0.9,0.7,2.5,0.8,3.8c0.1,0.9-0.6,1.3-1.5,1.4c-0.8,0-1.6,0-2.4,0c-1-0.1-1.5,0.2-1.4,1.3c0.1,0.8,0,1.7,0,2.5
		c0,0.9-0.5,1.4-1.4,1.4c-4,0-4,0.4-3.9-3.4C37.4,52.1,37.3,52.1,35,52.2z"/>
</g>
</svg>
