<?xml version="1.0" encoding="utf-8"?>
<!-- Generator: Adobe Illustrator 18.1.1, SVG Export Plug-In . SVG Version: 6.00 Build 0)  -->
<!DOCTYPE svg PUBLIC "-//W3C//DTD SVG 1.1//EN" "http://www.w3.org/Graphics/SVG/1.1/DTD/svg11.dtd">
<svg version="1.1" id="Layer_1" xmlns="http://www.w3.org/2000/svg" xmlns:xlink="http://www.w3.org/1999/xlink" x="0px" y="0px"
	 viewBox="405.7 194.8 150 170.4" style="enable-background:new 405.7 194.8 150 170.4;" xml:space="preserve">
<style type="text/css">
	.st0{fill:#E91E63;}
</style>
<g id="sinus-lady">
	<g>
		<path class="st0" d="M449.7,305.5c0.3,0,0.6,0,0.9,0c0.7,0,1.4,0,2.1,0C451.7,305.5,450.7,305.5,449.7,305.5z"/>
		<path class="st0" d="M555.7,313.4c-0.1-2.4-0.1-4.8-0.1-7.1c0.1-1.9-0.4-3.8-0.8-5.6c-0.3-1.3-0.9-2.5-1.1-3.8
			c-0.4-2.1-1.1-4.3-2.3-6.1c-1.3-2.3-2.9-4.3-5-5.9c-1.1-0.9-2.1-1.8-2.5-3.1c-0.3-0.6-0.3-1.3-0.4-1.9v-1.5
			c0.1-1.8,0.5-3.6,0.6-5.5c0.1-1.6-0.1-3.1-0.6-4.6c-0.5-1.4-0.6-3-1.3-4.4c-0.8-1.9-1.8-3.5-2.8-5.3c-0.9-1.5-1.4-3.1-1.5-4.9
			c-0.2-2,0.2-4,0.8-6.1c0.3-0.7,0.5-1.4,0.6-2.1c0.5-2,0.8-4.1,0.6-6.3c-0.1-1.9-0.4-3.8-0.6-5.6c-0.4-2.3-0.6-4.6-1.3-6.9
			c-1.3-4.9-3-9.5-5-14c-0.9-2.1-1.8-4.1-2.9-6c-1.1-2-1.9-4.1-3.3-6c-0.6-0.9-1.3-1.5-2.3-2c-1.6-0.9-3.3-1.6-4.8-2.5
			c-1.4-0.9-3-1.1-4.6-1.1c-1.5-0.1-3.1-0.3-4.6-0.3h-4.9c-0.6,0-1.3,0.1-1.9,0.1c-0.8,0-1.4-0.1-2.1,0c-1.4,0.3-2.6,0.6-4,0.9
			c-1,0.2-2,0.3-3,0.4c-0.3,0-0.5,0-0.8,0c-2.2,0.1-4.7,0.9-6.7,1.7c-0.2,0.1-0.4,0.2-0.6,0.3c-1.1,0.5-2.3,1.1-3.4,1.7
			c-1.8,1-3.4,2.3-4.5,4c-1.5,2.3-2,4.9-2.4,7.5c-0.1,1.4-0.4,2.8-0.8,4c-0.6,1.9-1.5,3.9-2.3,5.6c-1.8-1.5-3.8-2.9-5.5-4.5
			c-2-1.8-4.1-3.4-6.6-4.4c-0.9-0.4-1.8-0.9-2.4-1.5c-1.4-1.4-3.8-1.6-5.1-0.3c-1,1-2.1,1.8-3.4,2.4c-0.4,0.3-0.9,0.5-1.1,0.9
			c-0.9,1-1.6,2.1-2.5,3.3c-1.3,1.6-2.5,3.1-3.8,4.6c-2.1,2.6-4.3,5.1-6.4,7.8c-1,1.3-2.1,2.6-2.3,4.3c-0.1,1.3-0.8,2.3-1.3,3.3
			c-0.8,1.5-1.6,3-2.5,4.5c-0.3,0.6-0.5,1.1-0.8,1.6c-1,1.8-1.9,3.5-2.9,5.3c-0.5,0.9-0.9,1.9-1.5,2.8c-1,1.4-2,2.6-3,4
			c-0.4,0.4-0.8,0.9-1,1.3c-0.4,0.5-0.9,1-1.1,1.6c-2,4.4-4,8.8-6,13.1c-0.8,1.8-1.5,3.5-2.3,5.3c-1.3,3.3-2.5,6.6-3.8,10
			c-1,2.5-2.1,4.9-2.5,7.5c-0.3,2-0.5,4,0.9,5.9c0.5,0.7,1.1,1.2,1.7,1.7c-0.2-0.2-0.4-0.4-0.6-0.6c-1.3-1.5-1.8-3.1-1.5-5.3
			c0.6-4.4,2.8-8.4,3.8-12.4c0.5-1.5,1.1-3,1.8-4.5c0.8-1.9,1.6-3.6,2.4-5.5c1-2.4,1.9-4.9,3-7.3c1.1-2.3,2.3-4.6,3.4-6.9
			c0-0.1,0.1-0.3,0.3-0.3c0.8,0,1.1-0.8,1.3-1.3c0.5-1.6,1.6-2.8,2.6-4c0.8-1.1,1.5-2.1,2.1-3.4c1.1-2.3,2.4-4.5,3.5-6.8
			c1-1.9,2.1-3.8,3.1-5.8c0.5-0.9,0.9-1.8,1-2.8c0.1-1.4,1-2.4,1.8-3.4c2-2.5,4.1-5,6.1-7.5c1.6-2,3.4-3.9,4.8-6
			c1-1.6,2.3-3,4.1-3.9c0.5-0.3,0.9-0.4,1.4,0c2.3,1.4,4.6,2.6,7,4c1.8,1.1,3.6,2.1,5.4,3.3c0.5,0.3,0.9,0.8,1.1,1.3
			c0.3,0.5,0,1.1-0.5,1.3c0.1,0.4,0.3,0.6,0.1,0.8c-0.6,1-1.1,1.9-1.8,2.9c0,0.1-0.5,0.1-0.6,0c-2.3-1.6-4.5-3.3-6.8-4.9
			c-0.8-0.6-1.4-1.5-2.1-2.3c-0.1-0.3-0.4-0.3-0.6-0.4c1.1,2.4,3.3,3.6,5.3,5c1.3,0.8,2.5,1.6,3.6,2.5c0.5,0.4,0.4,1-0.1,1.8
			c-0.5,0.6-1.1,1.3-1.6,1.9c-0.5,0.6-1.9,0.4-2.4-0.3c-0.4-0.6-1-1.1-1.6-1.6c-1-0.8-2.1-1.6-3.3-2.3c-1-0.5-2.1-0.8-3.1-1
			c-0.1,0-0.3,0.1-0.6,0.3c3.1,1.1,5.9,2.5,8.1,4.6c-0.1,0.1-0.1,0.1-0.3,0.1c0,0.4-0.1,0.9-0.3,1.3c-0.3,0.9-0.5,1.8-1,2.4
			c-0.1,0.3-1.3,0.3-1.5,0c-0.8-0.9-1.8-1.1-2.6-1.6c-1-0.5-1.9-0.9-3-0.6c-0.3,0-0.6-0.3-0.9-0.4c-0.5-0.4-1-0.8-1.6-1.1
			c-0.1-0.1-0.4,0-0.6,0c0.1,0.3,0.3,0.5,0.4,0.6c0.4,0.3,0.9,0.5,1.3,0.9c0.1,0.1,0.3,0.4,0.4,0.6c0,0.1-0.1,0.1-0.1,0.3
			c-0.8-0.1-1.5-0.4-2.3-0.5c-0.1,0.1-0.1,0.1-0.1,0.3c0.6,0.3,1.3,0.5,2,0.8c-0.4,1.3-1.5,2-2.5,2.8c-1,0.9-2.4,0.3-3.8,0.4
			c1.6,0.8,3.4,0.5,4.5-0.4c1-0.8,1.9-1.8,2.4-2.9c0.4-0.8,1-0.9,1.8-0.9c1,0.1,2.6,0.8,3.1,1.4c-0.8,1-1.9,0.9-2.6,0.6
			c-1.1-0.4-1.9,0-2.6,0.9s-1.6,1.6-2.5,2.5c-0.3,0.3-0.5,0.8-0.9,1s-0.8,0.6-1.3,0.6c-0.8,0.1-1.6,0.1-2.4,0
			c-0.4-0.1-0.8-0.4-1.1-0.5c-0.3-0.1-0.5,0-0.9,0c0.1,0.3,0.3,0.6,0.5,0.8c1,0.4,1.9,0.6,2.9,1c-0.3,0.3-0.4,0.8-0.6,1.3
			c-0.6,1.4-1.3,2.8-1.8,4.1c-1.1,3.6-2.3,7.3-3.3,10.9c-0.3,1.1-0.6,2.3-0.8,3.5c-0.5,3.4-1,6.6-1.5,9.9c-0.4,2.8-0.9,5.4-1.4,8.1
			c-0.3,1.3-0.3,2.4-0.4,3.6c-0.1,0.4-0.4,0.9-0.5,1.3c-0.8,1.9-1.4,3.8-2.3,5.5c-1,1.9-2.5,3.5-4.6,4.5c-0.3,0.1-0.4,0.4-0.8,0.8
			c0.9,0.4,1.3,0.1,1.9-0.3c1.6-1,2.9-2.4,3.8-3.9c1.1-2,2.1-4,3-6c0.3-0.6,0.5-0.8,1-0.8c1.8,0.1,3.4,0.4,5,0.3
			c1.1,0,2.3-0.5,3.4-0.9c1.1-0.4,2.4-0.8,3.5-1c1.3-0.3,2.6-0.5,3.9-0.8c1.9-0.3,3.6-0.9,5.5-1c3.4-0.3,6.8-0.6,10-2
			c1-0.4,2.1-0.4,3.3-0.5c0.5-0.1,1-0.1,1.8-0.3c0,0.5-0.1,0.9-0.3,1c0.1,1.5,0.3,2.9,0.5,4.4c0.6,4.3,2.4,7.9,4.4,11.5
			c0.4,0.9,1.3,1.5,1,2.6c-0.1,0.6-0.3,1.3-0.4,1.9c-0.5,1.4-1.3,2.6-1.3,4c0,1.4-0.8,1-1.4,1.1c-1,0.3-2,0.3-3,0.5
			c-1.8,0.3-3.6,0.9-5.4,1c-2,0.3-4.1,0-6.1,0h-3.4c-0.9,0-1.9,0-2.8,0.1c1.7,0,3.4,0,5.1,0h1.1c2.4-0.1,4.8,0.1,7.1-0.1
			c2.6-0.3,5.3-0.9,7.9-1.4h0.9c-0.1,0.3,0,0.5-0.1,0.8c-0.6,1.6-1.3,3.1-1.8,4.8c-1.3,4-2.5,8-3.9,11.9c-0.9,2.4-2.1,4.8-3,7.1
			c-0.6,1.5-1.3,2.9-1.1,4.5c0.1,3,0.4,6.1,0.5,9.1v0.1c0.4,2.5,0.9,5.1,1.1,7.6c0.3,2.6,0.3,5.3,0.4,7.9c0,2.1,0.1,4.4,0.3,6.5h1.1
			c0-0.1-0.1-0.3-0.1-0.4c-0.1-2.9-0.4-5.8-0.5-8.6c0-1.8-0.1-3.4-0.1-5.1v-0.4c-0.3-1.9-0.5-3.6-0.8-5.5c-0.3-1.5-0.3-3.1-0.4-4.6
			c-0.1-2.4-0.4-4.8-0.4-7.3c0-0.6,0.1-1.1,0.6-1.6c0.5-0.4,0.9-0.8,0.5-1.5c-0.1,0,0-0.1,0-0.3c0.5-1.4,1-2.8,1.5-4.1
			c1.3-3.5,2.6-7,3.9-10.6c1-2.8,1.9-5.6,2.8-8.5c0.4-1.1,1-2.3,0.9-3.5c-0.1-1.9,0.9-3.5,1.6-5.1c0.1-0.3,0.4-0.6,0.4-0.9
			c0-0.8,0-1.5,0.4-2.3c0.3-0.5,0.6-1,0.9-1.6c0.6-2,1.9-3.6,3-5.3c0.1-0.3,0.4-0.6,0.5-0.9c0-0.1-0.1-0.4-0.1-0.6
			c-0.3,0.1-0.5,0.1-0.6,0.3c-0.3,0.3-0.4,0.5-0.5,0.8c-0.5,0.8-1.3,1.5-1.6,2.3c-0.9,1.9-1.6,3.6-2.5,5.5l-0.4,0.4
			c-0.1-0.1-0.3-0.3-0.4-0.4c-1.1-2.3-2.3-4.5-3.3-6.8c-0.6-1.6-1.1-3.4-1.5-5c-0.3-0.8-0.1-1.6-0.1-2.5c0-1-0.1-2-0.1-3
			c0-0.3,0.1-0.5,0.4-0.6c0.5-0.3,0.9-0.4,1.4-0.5c1.1-0.4,2.3-0.8,3.4-1.3c1.5-0.6,3-1.4,4.5-2c1.3-0.5,2.5-0.8,3.8-1.3
			c2.3-0.9,4.6-1.4,7-1.8c0.1-0.1,0.5,0.1,0.6,0.3c0.8,1.1,1.6,2.3,2.3,3.5c0.5,1,0.8,2.1,1.1,3.1c0.4,1.3,0.8,2.5,0.5,3.9
			c0,0.1,0,0.1,0,0.3c0.5,2,0.1,4,0,6c0,0.9-0.3,1.8-0.5,2.5c-0.6,2-0.5,4.1-0.1,6.1c0.3,1.5,0.9,2.9,1.5,4.3
			c0.5,1.4,1.4,1.8,2.6,1.1c0.8-0.4,1.6-0.8,2.3-1.4c0.8-0.6,1.4-1.5,2.1-2.3c1.6-1.5,3.3-2.9,4.9-4.4c0.5-0.4,1-0.9,1.5-1.4l3-3
			c0.9-0.8,1.9-1.4,2.8-2.1c0.6-0.5,1.3-1,1.9-1.5c1.3-0.9,2.5-1.6,3.8-2.5c2.3-1.5,4.4-3.1,6.5-4.9c1-0.8,2.1-1.4,2.8-2.6
			c0.2-0.4,0.4-0.7,0.7-1c0.2,0.1,0.5,0.3,0.7,0.4c0.9,0.6,1.9,1.1,2.9,1.7c0.6,0.5,1.2,1,1.8,1.5c0.6,0.5,1.2,0.8,1.8,1.3
			c0.2,0.2,0.3,0.4,0.5,0.5c0.2,0.3,0.5,0.4,0.9,0.5c0.5,0.4,0.9,0.9,1,1.6c0.3,1.6,1.5,2.4,2.5,3.4c1,1.1,2.4,2,3.4,3.1
			c2.1,2.1,3.5,4.8,4.3,7.6c0.4,1.9,0.8,3.8,1.4,5.5c0.6,1.8,0.9,3.4,0.9,5.1v9.1c0,0.9-0.3,1.6-0.5,2.4c-0.4,1.4-1,2.8-1.4,4.1
			c-0.3,1-0.4,2.1-0.6,3.3c-0.8-0.6-1.6-1-2-1.8c-0.4-0.9-1-1.4-1.6-2c-1.4-1.4-3-2.5-5-2.5c-1.8-0.1-3.6-0.1-5.4,0.4
			c-1.6,0.5-3.3,0.5-4.8,1.1c-1.5,0.6-3,1.5-4.4,2.6c-1.5,1.1-2.6,2.6-3.9,3.9c-0.5,0.5-1.1,1-1.6,1.5c-0.8-1.6-1.4-3.3-2.1-4.8
			c-0.8-1.5-1.3-3.1-1.3-4.8c0-3,0-5.9,0.1-8.9c0-0.8,0-1.5,0.3-2.1c0.8-2.5,1.1-5.1,2.4-7.5c0.6-1.3,1.3-2.6,2-3.9
			c0.6-0.9,1.5-1.6,2.1-2.6c1.5-2.6,4.5-3.9,6.1-6.4c2.3-1.3,4.4-2.8,7.1-3c-0.4-0.6-1-0.5-1.5-0.3c-1.5,0.8-3,1.4-4.5,2.3
			c-1.1,0.6-2.1,1.6-3.3,2.4c-2.6,1.9-4.9,4.4-6.5,7.1c-1.4,2.3-2.5,4.6-3.4,7.1c-0.9,2.1-1.3,4.5-1.6,6.9c-0.3,1.8-0.3,3.5-0.3,5.3
			c-0.1,1.5-0.3,3.1,0,4.6c0.3,1.9,0.8,3.6,1.8,5.4c1,1.9,1.6,4,2,6.1c0.3,1.3,0.3,2.6,0.4,3.9c0.1,1,0,1.9,0.1,2.9
			c0.1,1.8,0.5,3.4,0.5,5.1c0.1,4.4,0,8.9,0.1,13.4c0.1,2.9,0.3,5.9,0.4,8.8h0.9V358c0-1.4-0.1-2.6-0.3-3.9v-0.8c0-4.5,0.1-9,0-13.5
			c-0.1-2.1-0.4-4.4-0.6-6.5c-0.1-1-0.3-2-0.1-3c0.1-0.5,0.4-1.1,0.8-1.5c0.8-0.9,1.4-1.9,2.3-2.6c1-0.9,2-1.6,3-2.3
			c1.1-0.8,2.4-1.6,3.6-2.1c2.1-0.9,4.1-1.6,6.3-2c2.3-0.5,4.5,0,6.8,1.3c2.4,1.5,3.6,3.8,5.3,5.8c0.3,0.4,0.1,1.1,0.1,1.6
			c-0.1,1.9-0.3,3.8-0.4,5.6c0,1.4,0.1,2.6,0.1,4v3c0.1,3.5,0.3,7,0.1,10.5c0,1.6-0.8,3.4-1,5c-0.4,2-0.6,4-1,6
			c-0.1,0.8-0.4,1.6-0.5,2.5h1.3c0-1.4,0.1-2.8,0.3-4.1c0.1-1.5,0.4-3,0.8-4.5c0.5-2,1.1-4.1,1.1-6.3c0-2.8-0.1-5.6-0.1-8.5
			c0-0.1,0-0.1,0-0.3c0-2.6-0.3-5.1-0.1-7.8c0.1-2.6,0.4-5.3,0.6-7.9c0.1-1.9,0.5-3.6,1.1-5.4C555.1,318.2,555.8,315.9,555.7,313.4z
			 M510.7,240.5c0.1-0.1,0.4-0.4,0.6-0.8c0.3,2,1,3.9-0.1,5.9c-0.1-0.4-0.1-0.6-0.1-1.1c-0.1-0.8-0.1-1.5-0.3-2.3
			c0-0.1,0.1-0.4,0.1-0.5v-1.3C510.8,240.5,510.8,240.5,510.7,240.5z M504.4,225.5c-0.3-0.6-0.6-1.3-0.9-2
			c-1.1-3.5-2.3-6.9-3.6-10.3c-0.3-0.8-0.6-1.7-0.9-2.5c0.3-0.1,0.6-0.2,0.9-0.3c0.4-0.1,0.9-0.4,1.2-0.1c0.3,0.3,0.6,1.1,0.8,1.7
			c0,0-0.1,0-0.1,0c0.1,0.5,0.3,0.9,0.4,1.4c0.9,2.5,1.8,5,2.6,7.5c0.6,1.8,1.3,3.6,1.9,5.5c-0.3,0.1-0.6,0.1-1,0.1
			c-0.3,0-0.6,0-0.8,0.1c-0.2,0.1-0.4,0.2-0.5,0.3C504.6,226.6,504.6,226,504.4,225.5z M465.4,220.3c-1.5-0.9-3-1.6-4.4-2.5
			c-1.5-0.9-3-1.9-4.5-2.8c-1.1-0.6-2.4-1.1-3.5-1.8c0.6-0.8,1.4-1.5,2.6-1.9c0.8-0.1,1.5,0,2,0.5c1.5,1.4,3.4,2.1,5.1,3.1
			c0.6,0.4,1.3,0.8,1.9,1.3c1.5,1.1,3,2.3,4.4,3.5c1,1,2,2,3.1,3c0.5,0.4,0.9,0.8,1.4,1s0.9,0.6,1.4,1c-0.9,0.1-1.5,0.5-1.8,1.3
			c-0.5,1,0.1,1.6,0.8,2.4c-2.6-0.8-4.5-2.9-6.5-4.1c0.1-0.8,0.3-1.4,0.1-1.9C467.1,221.4,466.4,220.8,465.4,220.3z M475.3,226.4
			c0,0.6,0.1,1.3,0.1,1.9c-1,0-1.4-0.8-1.8-1.4c-0.1-0.1,0-0.8,0.1-0.9c0.3-0.3,0.8-0.4,1.1-0.4C475,225.7,475.3,226.2,475.3,226.4z
			 M464,228.7c0-0.1,0.3-0.4,0.3-0.4c1,0.3,0.9-0.8,1.3-1.1c0.4-0.3,0.6-0.6,0.9-1s0.4-0.9,0.6-1.4c1.4,1.1,2.8,2.1,4.3,3
			c0.1,0.1,0.1,0.4,0.1,0.5c-0.1,0.9-1.3,1.5-2.1,1.5c-1.3-0.1-2.6,0-3.9,0c-0.5,0-1-0.1-1.6-0.1C463.9,229.2,463.9,228.9,464,228.7
			z M489.8,269.5c-2,0-3.8,0.8-5.5,1.4c-1,0.4-2,0.6-2.9,0.9c-0.4,0.1-0.6,0.3-1,0.4c-0.5,0.3-1,0.4-1.5,0.5
			c-0.3,0.1-0.5,0.1-0.6,0.3c-1,0.5-1.9,1.1-2.9,1.5c-1.4,0.6-2.9,1-4.4,1.5c-0.3-0.3-0.4-0.5-0.8-0.9c-0.1,0.3-0.3,0.5-0.3,0.6
			c-0.1,1.1-0.9,1-1.6,1.1c-1.3,0.1-2.6,0.4-3.9,0.6c-1.1,0.1-2.1,0.6-3.1,0.9c-1.4,0.3-2.9,0.5-4.3,0.6c-3.1,0.3-6,0.8-9,1.6
			c-1.5,0.5-3.1,0.6-4.6,1c-1,0.3-2,0.9-3,1c-1.1,0.1-2.4,0.1-3.6,0.1H435c-0.5,0-1.1,0.1-1.8,0.1c-0.1-2,0.3-3.9,0.6-5.8
			c0.5-2.1,0.8-4.3,1.1-6.4c0.3-1.5,0.5-2.9,0.8-4.4c0.3-1.1,0.3-2.4,0.5-3.5c0.3-1.5,0.6-3.1,1-4.8c0.9-3.1,1.8-6.3,2.8-9.4
			c0.8-2.3,1.8-4.5,2.8-6.8c0.1-0.3,0.5-0.6,0.8-0.9c0.9-0.6,1.6-1.3,2.4-2c1.1-1,2.3-2.1,3.4-3.1c0.3-0.1,0.6-0.3,0.9-0.3
			c1.3,0.1,2.5,0.4,3.6-0.5c0.1,0,0.4,0,0.5,0.1c0.5,0.3,0.9,0.5,1.4,0.6c0.6,0.1,1.3,0.1,1.6-0.6c0.4-0.9,0.8-1.6,1.3-2.4
			c0.1-0.1,0.4-0.3,0.5-0.4h0.4c1.4,0.1,2.4-0.3,3.1-1.4c0.1-0.3,0.6-0.4,0.9-0.4c1.6-0.1,3.1-0.1,4.8-0.1c0.4,0,0.6,0.1,0.9,0.3
			c-0.1,0.3-0.1,0.5-0.3,0.8c-0.6,1-1.4,1.9-2,2.8c-0.3,0.4-0.6,0.9-0.9,1.3c-0.9,1.5-0.8,2.1,0.6,3.3c0.8,0.6,1.5,1.4,2.3,2.1
			s0.5,1.6,0.1,2.4c-0.6,1.6-0.8,1.6,0.8,2.5c0.6,0.4,0.6,0.8,0.3,1.1c-0.3,0.4-0.6,0.6-1,1c-0.5,0.6-0.5,1,0.1,1.5
			c1.1,1,1.1,1.1,0.8,2.5c-0.3,1.3-0.6,2.6-0.6,3.9c-0.1,2.6,1.6,3.9,3.9,4.8c3.3,1.1,6.6,1.3,10,1.4c0.9,0,1.8,0,2.5,0.3
			c1.8,0.5,3,1.4,3.5,3.1c0.1,0.4,0.6,0.8,0.9,1.1c0.8,0.9,1.4,1.8,2.3,2.8C491.4,269.4,490.9,269.6,489.8,269.5z M469.4,244.5
			c0-0.1,0.1-0.1,0.1-0.3c1.1,0.5,2.3,1.1,3.4,1.6c0,0.1-0.1,0.1-0.1,0.3C471.5,246,470.1,245.7,469.4,244.5z M472.5,246.7
			c-0.6,0.3-1.3,0.5-2.1,0.9C470.9,246.2,471,246.2,472.5,246.7z M526.3,279c-1.3,1-2.5,2-3.8,2.9c-1.5,1.1-3,2-4.5,3.1
			c-1.9,1.5-3.8,2.9-5.5,4.4c-1.1,0.9-2,2-3,3c-1.8,1.6-3.6,3.1-5.4,4.8c-0.3,0.1-0.4,0.5-0.6,0.8c-1,1.1-2.3,2-3.6,2.5
			c-0.5,0.3-0.9,0.1-1.1-0.5c-0.4-1-0.9-1.9-1.3-2.9c-0.3-0.5,0-1.1,0-1.6c0-0.3,0-0.4-0.1-0.5c-0.3-0.3-0.4-0.6,0-1
			c0.1-0.1,0-0.4,0-0.6c-0.1-0.8-0.4-1.4-0.5-2.1c-0.1-0.4-0.1-0.8,0.3-1.1c1.1-1.4,1-3,0.9-4.6v-2.9c0.3-3.3-0.4-6.3-1.9-9
			c-1-1.9-2.3-3.6-3.5-5.4c-0.9-1.4-1.9-2.8-3-4.1c-0.5-0.6-1.3-1.3-2-1.8c-0.8-0.5-1.5-0.8-2.3-1c-0.4-0.1-0.8,0-1.1,0
			c-2.1-0.1-4.4-0.3-6.5-0.5c-1.4-0.1-2.6-0.4-3.9-0.8c-1.8-0.4-3.9-2.3-3.6-4.4c0.1-1.3,0.3-2.5,0.9-3.6c0.5-0.9,0.1-1.9-0.5-2.6
			c-0.5-0.6-0.4-1.3,0.5-1.5c0.9-0.4,1.6-0.8,2.5-1.1c0.5-0.1,0.5-0.4,0.1-0.8c-0.4-0.3-0.8-0.6-1.1-0.9c-0.8-0.4-1.4-0.8-2.1-1
			c-0.5-0.1-0.6-0.4-0.4-0.9c0.5-1.3,0.3-2-0.8-3c-0.9-0.9-1.6-1.8-2.5-2.6c-0.5-0.5-0.4-1,0-1.5c1.3-1.6,2.5-3.3,3.8-4.9
			c0.5-0.8,1-1.4,1.5-2c0.3-0.4,0.5-0.5,1-0.3s1.1,0.5,1.8,0.6s1.1,0.1,1.8-0.1c1.4-0.6,2.9-1,4.5-1.6c-0.4-0.1-0.5-0.3-0.6-0.3
			c-0.1,0-0.4,0-0.5-0.1c-0.9-1.5-2.4-1.5-3.8-1.5c-0.5-0.9-1-1.8-1.5-2.6c1.1-1.1,2.5-1.3,4-1.1c0.6,0.1,1.3,0.3,2,0.4
			c-0.4-1.4-2.4-1.5-6.1-0.8c0.3-0.9,0.5-1.8,0.8-2.5c0.4-1.4,0.9-2.8,1.4-4.1c0.3-0.5,0.5-1,0.6-1.5c0.1-0.8,0.3-1.5,0.4-2.3
			c2.4,4.8,6.3,8.3,10.6,11.3c4.3,2.9,9,5.1,14.1,6c-0.8,0.9-1.6,1.9-1.4,3.3c0,0.3,0.3,0.4,0.3,0.4c0.5-0.9,0.8-1.9,1.4-2.6
			c1-1.3,2.4-2,4-2.1c0.9,0,0.8,0.9,1,1.3c-0.9,0.1-1.6,0.1-2.4,0.4c-1.3,0.4-1.6,0.9-1.6,2.1c0,1.1,0.1,2.3,0.6,3.3
			c0.3,0.6,0.6,1.1,1.4,1c0.3,0,0.4-0.4,0.6-0.6c-0.3-0.1-0.5-0.4-0.6-0.5c-0.3-0.3-0.8-0.5-0.8-0.9c-0.1-0.9-0.3-1.9-0.1-2.8
			c0.1-0.8,0.9-1,1.5-1.1c0.4-0.1,1,0.3,1.4,0.5c1.6,1.3,1.8,3.4,2.3,5.1c0.3,0.9,0.4,1.9,0.6,2.8c0.3,1.1-0.3,1.9-1,2.5
			c-1.3,1.1-2.8,1.9-4.4,2.6c-1.3,0.6-2.4,0.3-3.4-0.6c-0.5-0.4-0.9-0.9-1.4-1.4c-0.5,0.3-0.6,0.6-0.6,1.1c0,1.5,0,3,0.1,4.5
			c0.1,1.4-0.9,2-1.8,2.8c-1.5,1.1-3,2.1-4.5,3.3c-0.3,0.3-0.4,0.4-0.6,0.6c0,0.1,0.1,0.1,0.1,0.3c0.4-0.3,0.8-0.4,1.1-0.6
			c1.1-0.8,2.1-1.4,3.1-2.1c0.9-0.6,1.8-1.5,2.5-2.3c0.8-0.6,0.5-1.6,0.5-2.4v-4c0.1,0.1,0.4,0.1,0.4,0.3c1.4,2.1,4.1,1.8,5.8,0.8
			c0.8-0.5,1.5-1,2.3-1.5c0.3-0.1,0.5-0.3,0.9-0.4c0.1,1.5,0.4,2.9,0.5,4.3c0.1,1.9,1,3.5,1.8,5.3c0.3,0.9,0.6,1.8,1,2.5
			c0.3,0.6,0.8,1.1,1,1.8c0.4,0.6,0.5,1.3,0.8,1.9c0,0,0.3,0,0.3,0.1c0.5,1,0.9,2.1,1.4,3.1c0,0.1,0,0.3,0.1,0.4
			c1.3,1,1.5,2.6,2.4,3.9c0.4,0.5,0.8,1,1.2,1.5c0.1,0.2,0.2,0.3,0.4,0.5c1,1.2,2,2.3,3.2,3.3c1.3,1,2.9,1.5,4.4,2.1
			c0.4,0.1,0.6,0.4,1,0.5c0.3,0.1,0.5-0.1,0.6,0c0.5,0.2,0.9,0.4,1.4,0.6l0.7,0.4C530.4,276,527.9,277.1,526.3,279z M476.8,226.7
			c0.9,0.3,1.6,0.5,2.5,0.8v0.1c-0.9,0.1-1.6,0.3-2.4,0.5c-0.6,0.1-0.9-0.3-0.9-0.8C475.9,226.7,476.4,226.6,476.8,226.7z"/>
		<path class="st0" d="M445.7,305.5c-1.9,0.3-3.6,0.6-5.5,0.8c-4,0.1-7.9,0.3-11.9,0.1c-1.6,0-3.4-0.5-5-0.8c-0.1,0-0.2,0-0.3-0.1
			c0.1,0,0.1,0,0.2,0.1c2.6,0.9,5.5,1,8.3,1h7.4c0.8,0,1.4-0.1,2.1-0.3c2.5-0.4,4.9-0.8,7.4-0.9c0.5,0,0.9,0,1.4,0
			c-0.5,0-1-0.1-1.5-0.1C447.3,305.4,446.6,305.4,445.7,305.5z"/>
		<path class="st0" d="M418.4,304.7c1.5,0.4,3,0.7,4.6,0.9c-2.5-0.7-4.9-1.3-7.3-1.9C416.6,304.1,417.5,304.4,418.4,304.7z"/>
		<path class="st0" d="M410.6,302.5c-0.7-0.3-1.4-0.7-2.1-1.2C409.1,301.8,409.8,302.2,410.6,302.5z"/>
		<path class="st0" d="M411.3,302.8c-0.2-0.1-0.5-0.2-0.7-0.2c0.3,0.1,0.6,0.3,1,0.4c0.9,0.3,1.9,0.3,2.8,0.5
			c0.5,0.1,0.9,0.2,1.4,0.3c-0.7-0.2-1.5-0.5-2.2-0.7C412.8,302.9,411.9,303,411.3,302.8z"/>
	</g>
	<path class="st0" d="M482.5,350.6c-0.1-0.6-0.4-1.3-0.5-2c-0.3-1.6-0.5-3.3-0.9-4.8c-0.3-1.4-0.9-2.6-1-3.9
		c-0.4-3.3-0.6-6.6,1.6-9.4c1.1-1.4,2.4-2.5,3.6-3.6c1.9-1.6,3.8-3.3,5.6-4.9c0.5-0.4,0.9-0.9,1.3-1.1c0.3-0.3,0.8-0.3,1.1-0.5
		c0,0.1,0.1,0.1,0.1,0.3c-0.4,0.3-0.8,0.6-1,0.9c-2.6,2.4-5.3,4.6-7.8,7c-1.5,1.4-3.3,2.9-3.5,5c-0.3,1.9-0.4,3.9-0.3,5.8
		c0.1,1.8,0.8,3.5,1.1,5.1c0.3,1.1,0.4,2.3,0.6,3.4c0.1,0.5,0.3,1.1,0.4,1.6c0,0.4-0.1,0.6-0.1,1
		C482.8,350.6,482.6,350.6,482.5,350.6z"/>
	<path class="st0" d="M505,237.5c0.1,1.5-2,2.8-3.3,2.8c-0.3,0-0.6-0.4-0.8-0.6c-0.1-0.1,0.1-0.4,0.3-0.6c0.3-0.5,0.5-0.9,0.9-1.4
		c0.4-0.6,0.6-1.1,1-1.8c0.4-0.5,0.9-0.4,1.3,0.1C504.7,236.3,504.8,237,505,237.5z M502.7,238.8c1.1-0.1,1.8-1.3,0.9-2.4
		C503.2,237.3,502.9,238.1,502.7,238.8z"/>
	<path class="st0" d="M473.4,236.2c0.3,0.4,0.4,0.6,0.5,0.8c0.1,0.8-0.1,1.5-0.6,2.1c-0.8,0.9-2,0.8-2.8-0.1c-0.4-0.4-0.5-0.6-1-0.3
		c-0.4,0.3-1.5-0.3-1.6-0.8c-0.1-0.4,0.4-0.8,0.8-0.6c0.8,0.4,1.6,0.8,2.4,1.3c0.9,0.8,1.9,0.6,2.3-0.5
		C473.4,237.6,473.2,237,473.4,236.2z"/>
</g>
</svg>
