<?xml version="1.0" encoding="utf-8"?>
<!-- Generator: Adobe Illustrator 18.1.1, SVG Export Plug-In . SVG Version: 6.00 Build 0)  -->
<!DOCTYPE svg PUBLIC "-//W3C//DTD SVG 1.1//EN" "http://www.w3.org/Graphics/SVG/1.1/DTD/svg11.dtd">
<svg version="1.1" id="Layer_1" xmlns="http://www.w3.org/2000/svg" xmlns:xlink="http://www.w3.org/1999/xlink" x="0px" y="0px"
	 viewBox="405.1 227.5 150 102.9" style="enable-background:new 405.1 227.5 150 102.9;" xml:space="preserve">
<style type="text/css">
	.st0{fill:#009688;}
</style>
<g id="snoring-man">
	<path class="st0" d="M550.1,289.1c1.6,1,3.3,2.6,5,2.1c-3-3.4-7.5-5.4-12.1-5.4l8.3-8.3c1.4-1.5,3-3.3,2.9-5.3
		c0-1.9-1.6-3.4-3.1-4.6c-6.1-4.8-13.6-7.5-21.4-7.8c1-1.6-1.5-2.9-3.4-3c-5-0.3-10.1-0.6-15.1-0.9c1.1-11.5-7.5-23-18.9-25.1
		c5.6,2.9,10.8,6.9,14.9,12.1c0.8,0.9,1.5,1.9,1.6,3c0.1,1.1-0.6,2.5-1.8,2.6c-4.3,0.6-4.3,8.1-8.4,9c-2.9,0.6-5.1,2.8-7.1,4.9
		c-2.1,2.1-4.3,4.3-7.1,5c-2.9,0.6-6.5-1-6.8-3.9c0-1,0.3-2,0-2.9c-0.1-1.1-1-2-1.8-2.8c-2.5-2.5-4.9-5.1-7.3-7.6
		c-2-2-4.6-4.4-7.4-3.6c-0.9,0.3-1.5-0.8-1.9-1.6c-1.6-3.9-3.1-7.8-4.8-11.6c-0.3,4.8,1.4,9.5,4.4,13.1c-4,0.3-7.8,2.1-10.5,5
		c-1,1.1-2.8,0.1-3.9-0.9c-1.1-1-3.1-1.8-3.9-0.5c2,1,4,2.1,6,3.1c-0.6,0.9-1,1.9-1.3,2.9c-0.1,0.1-0.2,0.3-0.2,0.5
		c0,0.1,0,0.1,0,0.2c-1.6,5.8,0.4,12.6,5.3,16.4c-3.9,3.5-7.6,6.9-11.5,10.4c-3.1,2.9-6.4,5.8-8.4,9.5c-4-9.8-10.9-18.4-19.6-24.3
		c2.4-2.9,4.8-5.8,6.8-9.4c1.6-2.9,2.8-6,4.5-8.8c1.6-2.8,3.9-5.1,6-7.4c3.8-4,7.4-7.9,11.1-11.9c1.3,4.1,3.4,8,6.3,11.3
		c0.5-2.5-1.8-4.8-3.3-6.9s-2.1-5.9,0.4-6.8c1.4-0.6,3.8-0.3,3.9-1.8c-4-0.3-7.6,2.3-10.4,5.1c-2.6,2.9-4.8,6.4-7.6,9.1
		c-2.3,2.3-5,4-6.9,6.5c-2.1,2.9-3,6.4-4.6,9.5c-2.1,4.1-5.1,7.5-7.8,11.3c-2.5,3.8-4.6,8.3-4.1,12.8c1.3-3.1,2.6-6.3,3.9-9.4
		c0.4-0.6,0.6-1.4,1.3-1.6c1-0.5,2.1,0.3,3,1c6.9,6,12.5,13.6,16.3,22c-5-1.9-10.5-2.5-15.8-1.6c-1.3,0.3-2.9,1-2.5,2.3
		c5.4-1.9,11.5-1.8,16.9,0.5c-2.5,3.3-5.1,6.5-7.6,9.8c-1.6,2-0.6,5.1,1.4,6.8c2,1.5,4.8,2,7.3,2.4c5.8,1,11.6,1.9,17.4,2.8
		c-2.6,1.8-5.6,2.4-8.5,3.4c-2.9,1-5.8,2.6-6.9,5.5c2.6-1.5,5.4-3,8.1-4.4c4.6-2.3,9.5-4.3,14.8-4.5c2.4-0.1,4.9,0.3,7.3,0.5
		c7.1,0.9,14.5,1.9,20.8,5.4c3.5,1.9,6.6,4.6,10.4,5.9c-0.5-0.8-1-1.4-1.5-2.1c5.1-1.1,10.4-2.3,15.5-3.4c-2.9,1.9-5.8,3.6-8.6,5.4
		c5-1.1,9.3-4.1,13.3-7.3c6.8-5.3,13.4-10.8,19.6-16.5c2.3-2,4.6-4.1,7.6-4.6c1.8-0.3,4.1-0.5,4.3-2.3c0.1-2.5,3.9-2.8,5.9-1.1
		c2,1.6,3.3,4.1,5.5,5c-1.3-4.3-5.6-7.4-10-7c-3,0.3-6-1-7.9-3.3C539.4,287.1,545.9,286.3,550.1,289.1z M504.2,252.7
		c0.3-0.5,0.5-0.9,0.8-1.3c0.6-0.9,1.6-1.6,2.6-2c0.8-0.3,1.5-0.9,2-1.5c0,1.8-0.1,3.5-0.1,5.3c0,0.5,0,1,0.1,1.5
		c0.3,0.5,0.6,1.1,1.1,1.4c-2.6,0-5.3,0.1-7.8,0C502.9,254.9,503.5,253.7,504.2,252.7z M484.6,268.7c0.5,0.3,0.9,0.8,1.1,1.4
		c0.8,1.9,0,3.9-0.9,5.6c-0.5,1.4-1.3,2.6-2.1,3.8c-2.3,3-5.4,5.1-8.5,7.1c-0.9,0.5-1.8,1.1-2.8,1.4s-2.3,0.1-3-0.5
		c0-0.8,0-1.6,0.3-2.5c0.5,0.9,1.5,1.4,2.5,1.3c1-0.1,1.9-0.6,2.8-1.1c3.8-2.3,6.9-5.6,8.9-9.4c0.6-1.1,1.3-2.3,1.4-3.5
		c0.1-1.3-0.4-2.6-1.4-3.4C483.4,268.5,484.1,268.5,484.6,268.7z M481.2,269.5c0.6,0.4,1.3,0.6,1.6,1.3c0.5,0.9,0.1,2.1-0.4,3
		c-2.3,4.5-5.9,8.1-10.1,10.6c-0.4,0.3-0.8,0.5-1.3,0.5c-0.8,0-1.4-0.4-1.9-0.8c-2.1-1.5-4.1-3-6.1-4.5c-2.4-1.8-4.6-3.5-6.6-5.5
		c-1.5-1.6-2.9-3.5-4.3-5.4c-1-1.5-2.1-3-2.6-4.8c-0.5-1.8-0.4-3.9,0.8-5.3c0,0.6,0.1,1.3,0.1,1.8c0.8,0.3,1.1-0.9,1.3-1.6
		c0.3-1.9,1.5-3.6,3.3-4.5c0,0.5,0,1.1,0.3,1.5c0.3,0.4,1,0.5,1.3,0.1c-0.3-0.9-0.5-1.8-0.8-2.8c0.6,0.4,1.4,0.8,2,1.1
		c-0.1-0.6-0.3-1.3-0.4-1.9c0.5,0.3,0.9,0.6,1.4,0.9c0-0.8,0.5-1.4,1.1-1.7c1,0.2,2,0.3,3.1,0.3c0.2,0.1,0.5,0.2,0.7,0.3
		c2.3,1.2,4.4,2.7,6.3,4.4c0.3,0.4,0.7,0.9,1,1.3c0.2,0.3,0.5,0.4,0.8,0.4c0.9,1,1.8,2,2.6,3.1C476.5,264.4,478.1,267.7,481.2,269.5
		z M467.4,286.3c-0.3,1.6-0.6,3.5-1.9,4.6c-1.3,1.1-2.9,1.5-4.4,2.3c-1.5,0.8-2.6,2-4.1,2.6c-1.1,0.5-2.4,0.8-3.8,1.1
		c-2.9,0.5-5.9,1-8.8,1.5c2.8-5.1,6.9-9.3,10.9-13.3c0.5-0.5,0.9-1,1.5-1.3c0.6-0.4,1.3-0.4,2-0.5c1.6-0.1,3.4-0.4,5-0.5
		c1.1-0.1,2.5-0.1,3.3,0.6C467.6,284.3,467.5,285.3,467.4,286.3z M455.9,274.9c0.3,0.4,0.8,0.9,1.3,1.1c0.1,0.9,1,1.5,1.9,1.5
		c0,0.5-0.6,0.8-1.1,0.6c-0.5-0.1-0.9-0.6-1.1-1c-0.4-0.4-0.6-0.9-1.1-1c-0.9-0.4-1.5-1.1-1.8-2
		C454.6,273.9,455.2,275.2,455.9,274.9z M475.5,259.4c1,0.5,1.5,1.8,1.1,2.8c0,0.3-0.3,0.5-0.5,0.4c0-0.3-0.1-0.5-0.5-0.6
		c-0.4-0.4,0.5-1.1,0.1-1.5C475.5,260.1,475.4,259.7,475.5,259.4z M473.4,256.7c0.5,0.5,1.1,1,1.6,1.5c-0.1,0-0.4,0.1-0.5,0.1
		c0.3,0.5,0.3,1.1,0.1,1.8C473.7,259.2,473.2,258,473.4,256.7z M452.7,315.8c-1.4,0-2.8,0.1-4.1,0.1c-1.1-0.1-2.3-0.3-3.4-0.4
		c-3.8-0.5-7.5-1-11.3-1.5c-3.1-0.4-6.4-0.8-9.3-2c-1.1-0.5-2.3-1.1-3-2c-0.8-1-1.3-2.3-0.9-3.4c0.3-1,1-1.8,1.8-2.5
		c1.6-1.8,3-3.5,4.4-5.4c6.1-8,13.3-15.1,21.3-21.3c1.4-1.1,2.4-2.8,2.8-4.5l4.1,4.5c0.6,0.5,1.1,1.1,1.9,1.5
		c0.8,0.4,1.8,0.4,2.3-0.3c0.3-0.3,0.8-0.1,1,0.1c1.3,0.9,2.5,1.6,3.8,2.5c-2.3,1.6-5.8,0-8.1,1.4c-0.5,0.3-1,0.8-1.5,1.3
		c-2.8,2.9-5.5,5.6-7.8,8.8c-0.9,1.1-1.6,2.4-2.8,3.9c-2.8,3.6-6.5,6.5-10.8,8.1c-0.4,0.3-0.9,0.4-1.1,0.9c-0.3,0.4,0.1,1,0.6,0.9
		c3.8-1.6,7.3-3.9,10.4-6.6c0.6-0.5,1.6-0.4,2.3,0.1c0.8,0.5,1.1,1.3,1.5,2c1.4,2.4,3.1,4.6,5.4,6.1c1.8,1.1,3.8,1.9,5.5,3
		c1.9,1.1,3.5,2.8,3.8,4.9C458.5,315.8,455.6,315.6,452.7,315.8z M537.5,293.6c1.4,0.8,2.5,1.9,3.6,3c0.8,0.6-0.1,1.9-1,2
		c-0.9,0.3-1.9-0.1-2.8,0c-1.1,0.1-2.1,0.9-3,1.6c-7.1,6.1-14.3,12.1-21.4,18.1c-4.9,4.1-11.8,5.1-18.1,6c3.3-4.6,4.8-10.5,4.3-16.3
		c-1,0.1-1.3,1.4-1.3,2.3c-0.1,5.3-1.4,10.8-5.1,14.4c-0.9,0.9-2.4,1.6-3.5,1c-3.5-2.1-6.9-4.1-10.4-6.3c-3.8-2.3-7.6-4.6-10.4-8.1
		c-3-3.8-4.8-8.8-9-10.9c2.8,4.1,5.5,8.3,8.6,12.1c2.1,2.6,4.6,5.4,8,5.9c-3.6-0.4-7.3-0.9-10.9-1.3c-0.6-0.1-1.3-0.3-1.8-0.6
		c-0.6-0.6-0.8-1.6-1-2.5c-1.1-3.6-5.4-4.8-8.5-6.8c-3.1-2-5.3-5-7-8.3c6.1-0.5,12.3-2.5,17.5-5.8c1.8-1.1,3.8-2.8,3.8-4.9
		c1.5,1.8,4.3,0.8,6.3-0.4c4.5-2.8,8.9-6.1,11.4-10.9c1.5-3,2.1-7-0.1-9.5c5.6-1.5,8.8-7.8,14.1-9.8c2.5-0.9,5.4-0.8,8-0.6
		c6.5,0.4,13.1,0.8,19.6,1.1c0.3,0,0.6,0,0.8,0.1c0.4,0.3,0.4,0.8,0.4,1.1c-0.1,5.6-1.3,11.3-3.4,16.5c-4.8,0.5-9.8-2-12.3-6.1
		c-1.5-2.6-3.8-4.6-6.4-5.9c-0.5,2.8,4.8,3.4,5.1,6.1c-0.8-0.4-1.6,0-1.9,0.6c2.4,1,4.5,2.4,6.3,4.1c-1.3,1.4-3,2.4-4.9,2.6
		c-4.5,0.6-8,4.4-10.8,8c-2.3,3-4.5,6.6-3.6,10.4c1.4-5.9,4.9-11.3,9.9-15.1c1.5-1.3,3.4-2.3,5.4-2.3c1.3,0,2.4-1.1,3.5-1.8
		c1.8-0.9,3.9-0.5,5.5,0.4c1.8,0.9,3,2.4,4.3,3.8c0.4,0.5,0.8,1,0.6,1.6c0,0.5-0.4,0.8-0.6,1c-1.9,1.6-3.8,3.4-5.6,5.1
		c-0.6,0.6-1.4,1.3-2.1,1.6c-1.1,0.5-2.4,0.6-3.6,0.8c-5.9,0.9-10.9,5.5-12.1,11.3c2.4-0.1,4.6-1.3,6.1-3.1
		c-1.8,2.8-3.4,5.5-5.1,8.3c-0.8,1.3-1.5,2.8-1.1,4.1c0.4,1.5,2.8,2,3.3,0.6c0.8-2.4,2.3-4.6,4.1-6.4c-1.4,2.6-2.9,5.3-4.4,7.9
		c-0.5,1-1,2.4-0.3,3.1c0.4,0.4,0.9,0.5,1.4,0.6c2,0.5,4.6,0.8,5.9-1c0.4-0.5,1.1-0.5,1.8-0.5c2.1-0.3,3.8-2,5.1-3.6
		c2.6-3,5.3-6.1,6.8-9.9c0.5-1.4,0.9-2.8,1.6-4c1.3-2.3,3.6-3.8,5.9-5.1C534.3,292.8,536.1,292.9,537.5,293.6z M525.8,278
		c1.3,0.1,2.4,0.3,3.5,0.4c0.3,0,0.6,0.1,0.8,0.4c-1.3,0.9-2.3,1.9-3,3.1c-0.5-1.9-2.6-2.9-3.6-4.5c0.4-0.1,0.9,0.3,1.3,0.4
		C525,277.9,525.4,278,525.8,278z M504.4,300.1c0,0.1-0.1,0.4-0.1,0.5c-0.1,0.5-0.9,0.9-1.4,0.6c0.4-0.5,0.8-1,1-1.4
		C504.1,300,504.2,300,504.4,300.1z M505.4,315.6c0.5,0,1,0.1,1.5,0.4c-0.5,0.6-1.8,0.4-1.9-0.4
		C505.1,315.5,505.2,315.5,505.4,315.6z M508.2,316.1c0.6,0.1,1.4,0.1,2,0.1c-0.1,0.3-0.1,0.4-0.1,0.5c-0.5,0-1,0.1-1.4,0.1v-0.3
		C508.5,316.8,508.1,316.4,508.2,316.1z M531.8,292.3c-2.5,1.5-4.9,3.4-6.1,6c-0.8,1.5-1.1,3.1-1.8,4.6c-0.6,1.3-1.4,2.4-2.3,3.5
		c-1.5,2.1-3.1,4.1-4.8,6.1c-1,1.3-2.4,2.6-4,2.4c2.5-2.8,4.9-5.6,7-8.6c-1.1-0.4-2.3,0.6-3,1.6c-2,2.5-3.9,5.1-5.9,7.6
		c-0.6-0.3-1.5-0.4-2.3-0.4c2.3-3.1,4.5-6.1,6.8-9.3c0.4-0.5,0.8-1.3,0.5-1.8c-2.4,2-4.5,4.5-6.1,7.3c-0.5,0.9-0.9,1.8-1.6,2.5
		c-0.6,0.8-1.6,1.3-2.6,1.1c2-3.5,4-7.1,5.9-10.9c0.4-0.8,0.8-1.8,0.3-2.5c-2.5,2.4-5.1,4.9-6.6,8c-0.5,1-0.9,2.1-1.8,2.8
		c-0.5-3.3,1.8-6.1,3.5-8.8c2-2.9,3.5-5.9,4.8-9.1c-0.5-0.5-1.3,0.3-1.6,0.9c-1.3,2.1-3.1,3.8-5.4,4.8c-0.5-0.6,0.1-1.5,0.8-2.1
		c1.4-1.4,2.9-2.9,4.4-4.3c2-1.9,5.4-0.8,7.9-1.8c1.1-0.4,2.1-1.3,3-2c3.3-3.1,6.4-6.3,9.4-9.6c1-1,1.9-2.1,2.6-3.4
		c0.6-1,1-2.1,1.6-3.3c1.4-2.4,3.4-4.4,5.8-5.8c-1.9-0.6-3.8,0.9-5,2.5s-2.3,3.3-3,5.1c-0.4,0.6-0.6,1.3-1.1,1.6
		c-1.3,0.9-3.1-0.5-4.8-0.1c0.6-1.6,1.3-3.1,1.8-4.8c0.4-1,0.8-2,1-3c0.6-2.8,0.8-5.5,0.8-8.3c7.5,0.4,14.9,3.3,20.8,7.9
		c1.3,1,2.6,2.4,2.5,4c-0.1,1.3-1.1,2.3-2,3.1c-3,3-6.1,6.1-9.1,9.1c-0.9,0.9-1.6,1.8-2.6,2.5C536.9,289.5,534.3,290.8,531.8,292.3z
		"/>
	<path class="st0" d="M465.2,264.5c0.1,0,0.3,0,0.3,0c0.5,0.3,0.1,1,0.3,1.4c-0.4,0.3-0.8,0.4-1.1,0.6c-0.1-0.4-0.3-0.8-0.1-1.3
		C464.5,264.9,464.7,264.5,465.2,264.5"/>
	<path class="st0" d="M463,268.6c-0.3,0.3-0.8-0.1-0.9-0.5s-0.1-0.9,0.1-1.3c0.3-0.4,0.8-0.6,1.1-0.4c0,0.5,0,1.1,0,1.6
		C463.1,268,462.9,268.2,463,268.6"/>
	<path class="st0" d="M463,261.1c0-0.1,0-0.3,0-0.5c1.1-1,2.5-1.5,4-1.5c0.4,0.5,0.1,1.4-0.4,1.8c-0.5,0.5-1.1,0.6-1.9,0.6
		C464.2,261.5,463.6,261.4,463,261.1"/>
	<path class="st0" d="M458.4,266.4c0.1,0,0.4,0.1,0.5,0.1c0.1,0.5-0.1,1.1-0.5,1.5c-0.5,0.8-1.6,0.9-2.3,0.3c0.5-1,1-2.1,1.5-3.1
		c0.1-0.5,0.8-0.8,1.3-0.8C459,265.1,458.9,265.7,458.4,266.4"/>
	<path class="st0" d="M456.1,262.1c0.3,0.5,0,1-0.3,1.4c-0.3,0.4-0.8,0.6-1,1c-0.9,0.9-1.3,2.4-0.9,3.6c-0.1,0.1-0.5,0.1-0.6,0
		c-0.3-0.1-0.3-0.4-0.4-0.6c-0.4-1.1-0.3-2.4,0.4-3.5C453.9,263,454.9,262.2,456.1,262.1"/>
	<path class="st0" d="M460.9,259.2c-0.3-0.6-0.1-1.4,0.4-2c0.4-0.6,1-1,1.6-1.4c1.1-0.6,2.5-1.3,3.8-0.8c0.3,0.3,0.4,0.6,0.3,1
		c-2.3-0.1-4.4,1.3-5.4,3.3C461.2,259.5,461,259.5,460.9,259.2"/>
	<path class="st0" d="M476.1,271.1c0.1-0.3,0.5-0.3,0.8-0.1c0.3,0.1,0.4,0.4,0.4,0.8c0.3,0.9,0.3,1.9,0,2.9
		c-0.3,1.1-0.6,2.3-1.3,3.3c-0.1,0.3-0.4,0.6-0.6,0.8c-0.6,0.6-1.5,1-2.4,1.3c-1.4,0.4-2.8,0.9-4.1,0.4c-0.1-0.3,0.1-0.6,0.4-0.8
		s0.6-0.1,0.9-0.1c0.6,0,1.1-0.1,1.8-0.3c0.8-0.1,1.6-0.5,2.3-1c1-0.8,1.5-2,1.8-3.1C476.2,273.5,476.1,272.2,476.1,271.1"/>
	<path class="st0" d="M552.6,328.1c0.1,0.1,0.1,0.4,0,0.5c-0.5,0.5-1.1,0.4-1.9,0.4c-1.9-0.1-3.8-0.4-5.6-0.8
		c-2.8-0.5-5.5,0.1-7.9,1.6c-0.4,0.3-0.8,0.5-1.3,0.5c-0.4,0-0.9-0.5-0.6-0.9c0-0.1,0.1-0.1,0.3-0.3c1.4-1.1,3.1-1.6,4.9-2.1
		c0.9-0.3,1.8-0.5,2.6-0.5c1.8,0,3.5,0.9,5.3,0.9C550,327.5,551.4,327.8,552.6,328.1"/>
	<path class="st0" d="M533.9,321.3c0.3-0.8,1.1-1.1,1.9-1.3s1.5,0,2.4,0c0.6,0,1.3-0.1,2-0.1c1.9-0.1,3.9-0.1,5.8,0
		c1.5,0.1,3.3,0.4,4.5-0.5c0.5-0.4,0.9-0.8,1.4-1.1c0.5-0.4,1.1-0.6,1.6-0.4c-0.8,1.9-2.8,3.1-4.8,3.1c-4,0-8.1,0-12.1-0.1
		c-0.4,0-0.8,0-1.1,0.3c-0.3,0.3-0.3,0.8,0,0.9C534.6,322.5,533.8,321.9,533.9,321.3"/>
	<path class="st0" d="M465.1,274.1c-0.6-0.6-0.6-1.5-0.6-2.3c0-0.6,0-1.4,0.4-1.9c0.3-0.4,0.5-0.8,0.9-1c0.8-0.8,1.5-1.4,2.4-1.6
		c1-0.3,2,0,3,0.3c0.3,0,0.4,0.1,0.6,0.3c0.3,0.3,0.4,0.8,0.4,1.1c0,1,0.1,2-0.6,2.6c-0.9,0.8-1.4,1.9-2.3,2.5
		c-0.5,0.3-1,0.4-1.5,0.4c-0.3,0-0.4,0-0.6-0.1C466.2,274.2,465.7,274.1,465.1,274.1 M466.4,273.1c0.4,0.5,1.1,0.5,1.6,0.3
		c0.5-0.3,1-0.8,1.4-1.1c0.6-0.8,1.3-1.5,1.8-2.3c-0.3-0.3-0.6-0.1-0.9,0c-0.3,0.1-0.4,0.5-0.5,0.8
		C469,271.9,467.7,272.7,466.4,273.1 M471,268.6c-0.8-0.5-1.9-0.6-2.8-0.4c-0.9,0.3-1.8,0.9-2.4,1.6c-0.3,0.3-0.4,0.6-0.5,0.9
		c-0.1,0.4,0,0.8,0.1,1.1c0-1.5,1.4-3,2.9-3C469.4,268.7,470.2,269,471,268.6 M466.5,271.6c0,0.1,0,0.3,0,0.4c0,0.1,0.1,0.4,0.3,0.4
		c0.9-0.9,1.8-1.8,2.6-2.6C468.1,269.5,466.7,270.4,466.5,271.6"/>
</g>
</svg>
