<?xml version="1.0" encoding="utf-8"?>
<!-- Generator: Adobe Illustrator 19.2.1, SVG Export Plug-In . SVG Version: 6.00 Build 0)  -->
<svg version="1.1" id="Layer_1" xmlns="http://www.w3.org/2000/svg" xmlns:xlink="http://www.w3.org/1999/xlink" x="0px" y="0px"
	 viewBox="0 0 100 171.7" style="enable-background:new 0 0 100 171.7;" xml:space="preserve">
<style type="text/css">
	.st0{fill:#00BCD4;}
</style>
<g id="stuffynose-lady">
	<path class="st0" d="M100,100.4c-0.2-1.5-1-3-0.8-4.7c0.1-0.7,0.2-1.4,0.3-2.1c0.1-1.2,0-2.4,0.2-3.6c0.4-2.3,0.5-4.6,0.3-6.9
		c-0.2-2.5-0.7-4.9-1.5-7.2c-0.7-1.9-1.7-3.6-3.2-4.9c-1-0.9-2.1-1.6-2.9-2.6c-0.5-0.6-1.2-1-1.7-1.6c-0.6-0.7-1-1.6-1.7-2.4
		c-0.9-0.9-1.5-2.1-2.1-3.3c-0.8-1.5-1.6-3-2.3-4.6c-0.7-1.5-1.1-3.1-1.7-4.7c-0.6-1.9-1.4-3.7-2-5.6c-0.8-2.5-1.6-5-2.3-7.5
		c-1.1-3.9-2.3-7.8-3.2-11.7c-0.7-3-2.4-5.7-3.6-8.5C71,16.6,70,14.8,69.1,13c-0.9-1.8-1.7-3.8-3.1-5.3c-1-1-1.9-2-2.8-3
		c-0.5-0.6-1.1-1.1-1.7-1.6c-1.6-1.2-3.5-1.6-5.4-2.3c-1.2-0.5-2.4-0.9-3.7-0.7c-0.9,0.1-1.8,0.1-2.7,0.2c-1.5,0.2-3.1,0.3-4.6,0.5
		C44.5,0.8,44,1,43.4,1c-0.9,0-1.7,0.3-2.4,0.7c-0.4,0.3-0.8,0.7-1.4,1c-2.7,1.3-5,3.2-7.2,5.3c-1.5,1.5-2.6,3.3-3.8,5.1
		c-0.8,1.3-1.7,2.7-2.1,4.2c-0.8,2.8-1.4,5.7-1.9,8.6c-0.4,2.2-0.7,4.5-0.9,6.8c-0.3,2.8-0.4,5.7-0.5,8.6c-0.1,2.4-0.3,4.7-0.3,7.1
		c0,1.7,0,3.5-0.1,5.2c-0.1,0.6-0.3,1.2-0.4,1.8c-0.1,0.6,0.1,1.1,0.4,1.4c0,2.7,0.2,5.3,0.8,7.9c0.2,0.7,0.2,1.4,0.4,2
		c0.3,0.9,0.9,1.7,1.5,2.4c0.1,0.1,0.2,0.3,0.3,0.4c0.1,0.1,0.1,0.1,0.2,0.2c0.5,0.6,0.4,1.1-0.5,1.2c-0.8,0.1-1.6,0.1-2.3,0
		c-1.3-0.2-2.6,0-3.7,0.8c-1.1,0.9-2.3,0.8-3.6,0.7c-1.4-0.2-2.7,0-3.9,0.7c-0.6,0.4-1.4,0.7-2.1,0.8c-1.1,0.2-2.1,0.6-3,1.2
		c-1.8,1.2-3.1,2.7-3.6,5c-0.6,2.6-1.1,5.1-1.8,7.6C1,89.5,1,91.2,1.2,93c0.2,1.5,0.5,3,1.1,4.7c0.2,1.7,0.2,3.3,0.2,5
		c0.1,2.3,0.1,4.5,0,6.7c-0.1,1.1-0.4,2.2-0.6,3.3c-0.2,1.9-0.5,3.7-0.7,5.6c-0.3,2.4-0.5,4.9-0.6,7.4c0,1.8-0.2,3.6,0.1,5.3
		c0.4,2.1,1.1,4.2,1.7,6.2c0.2,0.7,0.7,1.4,0.8,2.1c0.3,1.8,1.1,3.4,2,4.9c0.6,1.1,1.3,2.2,1.5,3.6c0.1,1.6,1.2,2.9,2.5,3.8
		c2.1,1.6,4.6,2.4,7.3,2.2c0.8,0,0.9,0.2,0.7,1c-0.3,1-0.6,2.1-0.8,3.2c-0.4,2.4-0.7,4.7-1.1,7.1c-0.4,2.3-0.9,4.5-1.3,6.8h1.5
		c0.4-2.6,0.9-5.1,1.4-7.7c0.5-2.9,1-5.8,1.6-8.6c0.2-0.9-0.1-2.2,1.1-2.8c-0.3-0.2-0.4-0.3-0.5-0.4c0.5-1.3,1-2.5,1.6-3.6
		c0.5-0.8,1-1.8,1.8-2.3c1.8-1.3,3-3,4.1-4.8c0.8-1.2,1.5-2.4,2.3-3.6c0.6-0.9,1.3-1.7,1.9-2.6c1.7-2.4,2.7-5.1,3.4-7.8
		c1.2-4.1,2.5-8.1,3.3-12.3c0.3-1.7,0.6-3.5,1-5.3c0.1-0.4,0.2-0.9,0.4-1.5c0.9,0.9,1.6,1.6,2.3,2.4c0.4,0.5,0.7,0.5,1.2,0.1
		c0.5-0.5,1-1,1.7-1.6c0.1,0.5,0.1,0.9,0.2,1.2c0.1,1.2,0.3,2.5,0.5,3.7c0.2,1.3,0.4,2.7,0.5,4.1c0.1,1.6,0.2,3.3,0.4,4.9
		c0.2,1.9,0.4,3.8,0.7,5.7c0,0.2,0,0.4,0.1,0.5c0.8,1.7,1.6,3.3,2.3,5c0.8,1.8,1.6,3.5,2.3,5.4c0.5,1.4,0.7,2.9,1.1,4.4
		c0.5,2,1.1,3.9,1.6,5.9c0.5,1.8,1,3.7,1.6,5.6c0.3,1,0.5,2.1,1.5,2.6c0.5,0.3,1.1,0.2,1.7,0.3c0.9,0.1,1.9,0.4,2.8,0.3
		c1.4-0.1,2.7-0.6,4.1-0.7c1.6-0.2,2.8-1,3.8-2.1c0.8-0.9,1.7-1.6,2.5-2.4s1.8-1.6,2.6-2.4c0.6-0.6,1.2-1.4,1.8-2.1
		c1-1.2,2.1-2.4,3-3.7c1-1.4,1.9-2.9,2.9-4.3c0.6-1,1.3-1.9,1.9-2.9c0.4-0.7,0.8-1.4,1.3-2.3c0.1,0.2,0.1,0.3,0.1,0.4
		c-0.2,0.8-0.4,1.7-0.4,2.5c-0.1,2.2,0,4.5,0,6.8v0.5c0.5,3.3,1,6.7,1.4,10.1c0.3,1.8,0.3,3.6,0.5,5.3c0.2,1.7,0.6,3.5,1,5.2
		c0.4,1.6,0.9,3.1,1.3,4.7h1.9c-0.1-0.1-0.2-0.3-0.3-0.5c-0.6-2.4-1.3-4.8-1.8-7.3c-0.4-1.9-0.5-3.8-0.7-5.7
		c-0.1-0.2-0.1-0.4-0.1-0.6c-0.2-1.4-0.3-2.9-0.5-4.3c-0.1-1.3-0.3-2.6-0.5-3.9c-0.3-2-0.8-3.9-0.7-6c0.1-2.7-0.3-5.4,0.7-8
		c0.3-0.8,0.5-1.6,0.8-2.4c1.2-3.1,2.6-6,3.7-9.1c0.7-1.9,0.9-4,1.4-6c0.6-2.2,1.3-4.3,1.8-6.5c0.3-1.3,0.4-2.6,0.6-3.9
		c0-0.2,0.1-0.4,0.1-0.6h0.9c0.9,0,1.5-0.6,2.2-1.2C100.5,104.3,100.2,102.3,100,100.4z M92.3,70.6c1,0.8,2,1.6,2.8,2.6
		c0.6,0.8,1.1,1.7,1.4,2.6c0.8,2.1,1.4,4.4,1.5,6.7c0,1.1,0.1,2.3,0.2,3.4c-0.1,0-0.1,0.1-0.2,0.1c-0.2-0.2-0.4-0.3-0.6-0.5
		c-0.8-0.8-1.8-1-3-0.9c-1.3,0.2-2.7,0.2-4,0.4c-1,0.2-2.1,0.6-3.1,1c-1.3,0.5-2.7,0.9-3.9,1.6c-1.4,0.8-2.6,1.9-3.9,2.8
		c-0.9,0.6-1.8,1.1-2.7,1.7c-1.2,0.9-2.3,1.9-3.5,2.8c-0.1,0-0.1,0-0.3,0.1c0.1-0.4,0.2-0.7,0.2-1c0.1-2.8,1.3-5.3,2.5-7.8
		c1.1-2.3,2.5-4.3,4.3-6c0.1-0.1,0.3-0.2,0.4-0.4c0.1-0.2,0.1-0.4,0.2-0.6c-0.2,0-0.5,0-0.6,0.1c-0.9,0.8-1.8,1.6-2.6,2.5
		c-2.1,2.5-3.3,5.4-4.4,8.3c-0.5,1.3-0.5,2.7-0.8,4c-0.2,1.3,0,2.6-0.8,3.8c-1.6,2.3-2.4,4.9-3.3,7.5c-0.8,2.4-1.7,4.8-2.6,7.2
		c-0.2,0.4-0.4,0.7-0.6,1.1c-0.1-0.1-0.2-0.1-0.3-0.1c-0.5-1.1-0.9-2.2-1.3-3.3c-0.6-1.7-1.2-3.4-1.7-5.2c-0.4-1.2-0.7-2.5-1-3.8
		c-0.5-2.5-1-4.9-1.6-7.4c-0.1-0.4,0-0.6,0.2-1c0.6-0.7,1-1.6,1.3-2.5c0.8-1.9,1.4-4,2.3-5.9c0.6-1.5,1.5-2.8,2.3-4.2
		c0.2-0.2,0.3-0.4,0.4-0.6c0.3-0.5,0.5-1,1.4-0.8c0.9,0.2,1.8,0.2,2.7,0.1c1.4-0.1,2.8,0,4.1-0.5c1-0.5,1.8-1.1,2.7-1.7
		c0.2-0.1,0.4-0.3,0.5-0.4c-0.9,1.7-1.8,3.4-2.7,5.2c-0.3,0.7-0.5,1.4-0.7,2.1c-0.1,0.2,0.1,0.5,0.2,0.7c0.3-0.2,0.6-0.3,0.7-0.5
		c0.9-2.1,1.8-4.2,2.8-6.3c0.8-1.6,1.8-3,2.8-4.4c1.3-1.1,2.6-2.1,4.3-2.7c1.6-0.5,3.2-0.9,4.8-1C90.3,69.4,91.4,69.9,92.3,70.6z
		 M48.9,45.1c-0.9-1.2-2.3-1.3-3.2-0.2c-1.6-1.5-2.2-1.7-3.5-1c-0.9,0.5-1.2,1.4-1,2.8c-0.3,0.2-0.6,0.5-1.1,0.9v-5.8
		c0-0.4,0.1-0.6,0.5-0.7c0.9-0.2,1.8-0.1,2.6,0.3c1.3,0.6,2.7,1.2,4,1.9c1.3,0.6,2.1,1.6,2.9,2.7c1.6,2.1,3,4.3,5,6
		c0.3,0.2,0.4,0.4,0.5,0.7c0,0.1,0,0.3,0,0.4c0,2.3-0.1,4.8-0.1,7.5c-0.8-2.3-1.5-4.6-2.2-6.7c-0.5-1.3-1.3-2.7-1.9-4
		c-0.2-0.4-0.4-0.8-0.5-1.2C50.6,47.3,49.7,46.2,48.9,45.1z M49.2,46.5c-0.1,0.5-0.7,1-1.1,1.3c-0.3,0.2-0.7,0-0.9-0.4
		c-0.3-0.7-0.7-1.3-1.1-1.9c0.1-0.7,0.5-0.9,1-0.9C47.8,44.6,49.3,45.9,49.2,46.5z M45.8,46c-0.5,0.3-0.9,0.7-1.3,0.9
		c-0.2,0.1-0.5,0-0.7-0.1c-0.3-0.3-0.5-0.6-0.7-0.9c-0.1-0.2,0-0.6,0.1-0.8c0.2-0.3,0.6-0.5,1-0.7c0.2-0.1,0.5,0.1,0.7,0.3
		C45.2,45.1,45.5,45.5,45.8,46z M58,75.2c0-0.1,0.1-0.3,0.2-0.3c0.1-0.1,0.3,0,0.4,0.1c1.2,1.5,2.8,2.1,4.4,2.8
		c0.1,0.1,0.3,0.2,0.6,0.3c-1.3,2.2-2.6,4.5-4.1,6.8c-0.6,1.1-0.9,2.3-1.3,3.5c0,0.3-0.2,0.6-0.4,1c-0.5-1.6-0.9-2.9-1.2-4.2
		c-0.1-0.5-0.1-1.1,0-1.7c0.3-2,0.7-4,1.1-6C57.9,76.8,58.1,76,58,75.2z M58.5,90.1c0.3-0.7,0.7-1.4,0.8-2.1c0.4-1.6,1.3-3,2.1-4.4
		c0.5-0.9,1-1.9,1.5-2.8c0.5-0.8,1-1.6,1.5-2.3c0.2-0.2,0.7-0.2,1-0.3c0,0.1,0.1,0.1,0.1,0.2c-2.6,4.4-4.9,9-6.6,13.8
		C58.4,91.6,58.2,90.6,58.5,90.1z M41.4,12.5c0.1-0.3,0.4-0.6,0.7-0.9c1.1-1.1,2-2.4,3.3-3.3c1.2-0.8,1.8-2.2,2.2-3.6
		c0.1,0,0.2,0,0.4,0c0,0,0.1,0,0.1,0c0.2,0.1,0.5,0.2,0.7,0.3c-0.3,0.7-0.8,1.5-0.9,1.7c-0.9,1.6-2.2,2.7-3.4,4
		c-1.5,1.7-2.7,3.5-2.7,5.8c-0.1,0-0.2,0-0.3,0c-0.6,0.2-1-0.1-0.9-0.7C40.8,14.7,41.1,13.6,41.4,12.5z M29.2,25.3
		c0.3-0.8,0.9-1.6,1.5-2.2c0.8-0.9,1.8-1.5,2.6-2.3c0.6-0.6,1.3-0.5,2-0.6c0.6-0.1,1.2,0.1,1.7,0c1.2-0.3,2.4-0.4,3.1-1.6
		c0.3-0.3,1.1-0.5,1.6-0.5c0.9,0,1.8-0.1,2.7,0.3c1.2,0.5,2.5,0.7,3.7,1c0.1,0,0.3,0.1,0.4,0.1c0.2-0.1,0.4,0.3,0.5,0
		c0.4,0.2,0.8,0.5,1.2,0.7c1,0.8,1.8,1.7,2.2,3.1c-0.1-0.1-0.3-0.2-0.5-0.3c0.1,0.3,0.1,0.6,0.3,0.5c0.6,0.3,0.6,0.9,0.7,1.5
		c0.1,0.7,0.5,1.3,0.7,2c0.3,0.6,0.5,1.2,0.7,1.8c0,0.2,0,0.4,0.1,0.5c1,1.2,0.6,2.7,0.8,4.1c-1.8-0.7-3.4-0.1-5,0.3
		c-0.9,0.3-1.9,0.5-2.8,0.8c-0.2,0.1-0.4,0.2-0.5,0.4c-0.4,0.4-0.2,0.7,0.3,0.7h0.4c1.5-0.7,3.3-0.3,4.9-0.8
		c0.6-0.1,1.2,0.1,1.8,0.1c0.2,0,0.4-0.1,0.8-0.2c0.2,1-0.1,1.9-0.4,3c-2-0.5-3.9-0.4-5.9,0.5c0.2,0,0.4,0.1,0.6,0.1
		c0.8-0.2,1.5-0.5,2.3-0.5c0.9,0,1.8,0.2,2.7,0.4c0.1,0.1,0.2,0.2,0.2,0.3c-0.1,0.1-0.2,0.3-0.3,0.3c-2,0.5-4.1,0.9-6.1,0
		c-0.3-0.2-0.7-0.1-1.1-0.2c0,0.1,0,0.1,0,0.2c1.8,1.2,3,2,7.7,0.9l0.1,0.1c-0.2,2,0.4,3.8,0.6,5.7c0.1,1,0,2.1,0,3.2
		c0,0.8,0.1,1.5,0.1,2.2v0.9c-0.2-0.1-0.3-0.1-0.4-0.2c-0.9-1.1-1.8-2.1-2.7-3.2c-1.2-1.4-2.2-2.9-3.5-4.2c-0.8-0.8-1.8-1.3-2.8-1.9
		c-0.6-0.3-1.2-0.5-1.8-0.8c-1.3-0.7-2.6-1-4.1-0.7c0-0.5,0-0.8-0.1-1.2c-0.4-1.4-1.6-2-2.7-2.6c-0.4-0.2-0.6-0.3-0.9-0.7
		c-0.3-0.5-1-0.7-1.6-0.9c-1.5-0.5-3.1-0.8-4.7-1.2c-0.2-0.1-0.4,0-0.6,0c-0.9,0.1-0.9,0.1-0.9-0.6c0,0,0-0.1,0-0.1
		c0-0.1,0-0.1,0-0.2c0-0.7,0.1-1.4,0.1-2c0-0.9-0.1-1.7-0.1-2.5C28.9,27.6,28.9,26.4,29.2,25.3z M39.6,42.1
		c-1.8-0.8-2.5-0.6-3.3,0.9c-0.5,1-1,1.8-2,2.5c-1.1,0.8-2,1.8-3,2.7c-0.5,0.4-0.8,0.3-0.9-0.3c-0.2-1.3-0.6-2.7-0.8-4.1
		c-0.3-2.1-0.5-4.2-0.7-6.4c-0.1-0.8,0-1.6,0-2.5c1.4,0.3,2.8,0.6,4,0.9c1.6,0.4,3.3,0.8,4.8,1.5c1.1,0.5,2.2,1.2,2.1,2.8
		c0,0.2,0.1,0.3,0,0.4C39.2,40.9,39.3,41.5,39.6,42.1z M26.1,56.6c-0.4-0.3-0.5-0.5-0.2-0.9c0.7-1,1.4-2.1,2.2-3.1
		c0.7-1,1.5-1.9,2.3-2.8c1.1-1,2.2-1.9,3.3-2.9c0.5-0.4,0.9-0.8,1.5-1.4c-0.6,5.3-1.3,10.4-1.9,15.6c-0.8-0.5-1.8-1-2.7-1.6
		C29.1,58.6,27.6,57.6,26.1,56.6z M28.1,71.7c-0.2-0.8,0.6-0.9,1.2-1.2c0,0.2,0.1,0.4,0.1,0.6c0,0.1,0,0.1,0,0.2
		c0.1,2,0.1,4.1,0.2,6.1c0.1,1.8,0.4,3.6,0.6,5.4c0.1,0.6,0.2,1.2,0.2,1.8c0.1,1.7,0.3,3.4,0.3,5.1c0,0.6-0.3,1.3-0.4,1.9
		c0,0-0.1,0-0.2,0c-0.3-1.5-0.6-2.9-0.9-4.3c-1-3.8-1.1-7.8-1-11.7C28.3,74.3,28.4,73,28.1,71.7z M31.1,79.4c0.5-0.5,0.8-1.2,1.3-2
		c0.1,0.6,0.2,1.1,0.2,1.7c0.1,1.9,0.3,3.9,0.2,5.8c0,1.3-0.6,2.6-0.9,3.9c0,0.1-0.1,0.1-0.3,0.2c0-0.9-0.1-1.8-0.2-2.6
		c-0.2-1.9-0.5-3.9-0.7-5.8C30.6,80.1,30.7,79.8,31.1,79.4z M2.8,88.2c0.6-2.4,1.2-4.9,1.7-7.4c0.5-2.2,1.7-3.6,3.6-4.6
		c0.8-0.4,1.7-0.6,2.6-0.9c0.7-0.3,1.4-0.6,2.1-0.9c0.7-0.4,1.5-0.5,2.3-0.5c1.3-0.1,2.5-0.1,3.7-0.2c0.6,0,1.2-0.3,1.6-0.7
		c1.1-0.8,2.2-0.6,3.3-0.4c1.2,0.1,2.6-0.1,3.6-0.9c0.1,0.5,0.2,0.9,0.2,1.4c0,0.9-0.2,1.8-0.2,2.7c0,0.9-0.1,1.9,0,2.8
		c0.2,2.4,0.3,4.8,0.6,7.2c0.3,1.9,0.8,3.8,1.3,5.6c0.3,1.1,0.2,2-0.3,3c-0.8,1.6-1.7,3.2-2.6,4.7c-1.4,2.4-2.9,4.7-4.4,7
		c-0.2,0.3-0.3,0.7-0.5,1h-0.1c-0.1-0.7-0.2-1.4-0.2-1.9c-0.2-1.2-0.4-2.4-0.6-3.6c-0.1-0.6,0.1-1.2,0.1-1.8c0-0.1,0.1-0.2,0.1-0.3
		c0.1-2.6,0.3-5.3,0.4-7.9c0-0.5-0.3-1-0.4-1.6c-0.6,0.2-0.6,0.5-0.6,0.9c0,1.5,0.1,3,0,4.5c-0.1,1.1-0.3,2.1-0.4,3.2
		c-0.1,0-0.1,0-0.2,0c-0.1-0.8-0.1-1.6-0.3-2.3c-0.7-2.5-1.2-5.1-2.6-7.4c-0.1-0.1-0.1-0.2-0.2-0.3c-0.2-0.2-0.4-0.2-0.6-0.3
		c0,0.2-0.1,0.5,0,0.7c1.4,2.2,1.7,4.9,2.6,7.3c0.1,0.2,0,0.5,0,1c-1.1-1.4-2.7-1.2-4-1.9c-2-1-4-2.2-6-3.3C8.2,92,8,91.9,7.7,91.9
		c-1.5-0.8-2.9-1.5-4.4-2.3C2.8,89.3,2.6,88.9,2.8,88.2z M37.5,108.4c-0.6,2.6-1,5.2-1.5,7.7c-0.3,1.2-0.8,2.5-1.1,3.7
		c-0.4,1.4-0.8,2.9-1.2,4.3c-0.6,1.8-1.2,3.7-1.8,5.6c-0.9,3.1-2.6,5.6-4.6,8.1c-1,1.2-1.7,2.7-2.4,4.1c-0.5,1.1-1.2,2-2.2,2.7
		c-1.6,1.3-2.9,2.8-3.6,4.7c-0.2,0.8-0.6,1.4-1,2.1c-0.3,0.4-0.6,0.7-1.2,0.6c-1.4-0.2-2.8,0-4.1-0.4c-1.3-0.4-2.5-1.1-3.6-1.9
		c-0.5-0.4-0.7-1.1-0.9-1.7c-0.6-1.7-1.3-3.4-2.3-4.9c-0.8-1.3-1.5-2.7-1.8-4.3c-0.2-1.1-0.9-2.1-1.2-3.2c-0.7-2.3-1.5-4.5-1.4-6.9
		c0.1-2.1,0-4.3,0.2-6.4c0.2-2.3,0.6-4.5,0.8-6.7c0.3-3.1,1.2-6.1,1-9.3c-0.2-2.2,0-4.5-0.1-6.8c-0.1-1.8-0.4-3.5-0.6-5.3
		c-0.1-1.4-0.2-2.8-0.3-4.3c1,0.6,1.8,1,2.6,1.5C5.6,91.6,6,91.8,6.4,92c1.9,1,3.7,2,5.5,3c1.5,0.9,3.1,1.5,4.8,2
		c1.5,0.5,2.4,1.7,2.7,3.3c0.2,1.2,0.4,2.3,0.6,3.5c0.1,0.3,0,0.7,0,1.1c0.1,0.3,0.2,0.6,0.3,0.9c0.2,0.7-0.2,1.4,0.2,2.1
		c0,0.1-0.1,0.3-0.2,0.4c-1,1.4-2,2.8-3,4.1c-0.3,0.4-0.7,0.7-1.1,1c-1.3,1.2-2.5,2.4-3.8,3.6c-0.7,0.7-1.7,1.2-2.4,1.9
		c-0.6,0.7-1.3,1.4-1.8,2.2c-1.5,2.6-3,5.1-3.7,8c-0.1,0.2,0.1,0.7,0.3,0.9c0.2,0.2,0.6,0.1,1,0c-0.5-0.6-0.3-1.1-0.1-1.6
		c1-2.6,2.2-5.1,3.8-7.5c0.5-0.8,1.4-1.4,2.2-2.1c1.3-1.1,2.7-2.2,4-3.4c0.8-0.7,1.6-1.5,2.3-2.3c1.3-1.6,2.5-3.2,3.7-4.9
		c1.5-2.1,3-4.3,4.4-6.5c0.7-1.2,1.3-2.4,2-3.5c1.4-2.1,2.4-4.5,3.4-6.9c0.2-0.5,0.5-0.9,0.8-1.3c1.8-2.7,1.8-5.7,1.6-8.8
		c-0.2-1.7-0.4-3.3-0.6-4.9c-0.1-1.2-0.6-2.2-0.7-3.4c-0.1-1.1-0.1-2.3-0.2-3.5c0-0.3,0-0.7-0.1-1c-0.4-2.2,0.7-4,1.4-5.9
		c0.4-1,0.5-2.1,0.6-3.2c0.1-1.6,0.3-3.2,0.5-4.8c0.2-1.6,0.4-3.2,0.6-4.8c0.2-1.5,0.4-3,0.7-4.4c0.2-0.8,0.8-1.6,1.2-2.4
		c0.4-0.6,0.9-0.8,1.6-0.7c0.6,0.1,0.8,0.6,0.9,1.1c0.2,0.5,0.2,1.1,0.2,1.6c-0.2,0-0.3,0-0.3,0c-1.7-0.7-2.3-0.5-2.8,1.3
		c-0.3,0.9-0.4,1.9-0.6,2.9c-0.1,0.5-0.4,1-0.5,1.6c-0.2,0.8-0.3,1.6-0.5,2.4c0,0,0.1,0.1,0.2,0.1c0.2-0.7,0.5-1.4,0.7-2.2
		c0.3-1.6,0.6-3.1,1-4.7c0.2-1,0.6-1.3,1.4-1.2c0.7,0.1,1.4,1.1,1.2,1.9c-0.2,0.7-0.4,1.5-0.6,2.3c-0.1,0.4-0.2,0.8-0.3,1.2
		c-0.1,0.4-0.1,0.8-0.2,1.3c-1,0-1.4,0.7-1.8,1.5c-1.1,2.3-2,4.7-2.4,7.2c-0.1,1.1-0.6,2.2-0.7,3.3c-0.1,1.1-0.1,2.2-0.1,3.3v2.5H34
		c0-0.3,0.1-0.7,0.3-1c0-1.2,0.1-2.3,0-3.4c-0.1-1.4,0.3-2.6,0.6-3.9c0.3-1,0.4-2.1,0.8-3.1c0.6-1.8,1.4-3.6,2.2-5.3
		c0.1-0.2,0.7-0.4,1-0.4c0.6,0.1,0.8,0.6,0.9,1.1c0.1,0.7,0,1.3,0,2c-0.1,0.5-0.5,0.7-0.9,0.9c-1.3,0.5-1.8,2-1,3.2
		c0.9,1.3,1,1.1-0.5,1.8c-1.4,0.6-2.1,0.9-1.7,2.9c0.2,1.2,0.2,2.5,0.3,3.7c0.2,1.4,0.4,2.7,0.6,4c0.1,1,0.3,2,0.4,3
		c0.2,1.8,0.4,3.7,0.7,5.5c0.1,0.4,0.4,0.7,0.8,1c-0.4-2,0.8-3.2,1.8-4.6c0.2,2.8,0.9,5.3,1.5,7.9c0.2,0.9,0.1,1.9,0.4,2.8
		c0.5,1.1,0.2,2-0.2,3.1c-0.6,1.5-0.9,3.1-1.3,4.7c-0.7,2.8-1.2,5.6-1.9,8.4C38.4,105.4,37.8,106.9,37.5,108.4z M39.8,52.8
		c-0.5-0.7-0.5-1.2-0.5-1.9c0-0.3,0.1-0.6,0.2-1c1.1,3.3,2.2,6.5,3.4,9.7c-0.1,0-0.1,0.1-0.2,0.1c-0.6-0.9-1.2-1.9-1.7-2.8
		c-0.4-0.1-0.8-0.3-1.1-0.4C40.3,55.2,40.5,53.9,39.8,52.8z M42.4,72.3c0.2,0.4,0.3,0.8,0.4,1.2c-0.6,0.3-1.6,0-2-0.5
		c-1.6-2.2-2.8-4.7-4-7.2c-0.2-0.5-0.3-1.1-0.5-1.6c-0.6-1.5-0.1-1.6,1.1-2.3c0.4-0.2,0.8-0.2,1.3-0.4c0.1,0.3,0.3,0.7,0.5,1.1
		c0.7,1.3,1.4,2.7,2,4.1c0.1,0.3,0.2,0.7,0.2,1.1C41.2,69.4,41.8,70.9,42.4,72.3z M42.5,74.4c-1.6,1.7-3.6,2.8-4.4,5.1
		c-0.1,0-0.1-0.1-0.2-0.1c-0.7-4.8-1.3-9.6-1.9-14.4h0.1c0.2,0.4,0.3,1,0.5,1.4c1,1.8,2,3.7,3,5.5c0.5,0.9,1,1.7,2,2.1
		C41.8,74.1,42.1,74.2,42.5,74.4z M43.6,100.1c0.3,1.8,0.1,3.6,0.1,5.4c0,0.7-0.7,1-1.2,1.5c-0.2,0.2-0.4,0.4-0.6,0.5
		c-0.8-0.6-1.5-1.2-2.3-1.8c-0.2-0.2-0.3-0.6-0.2-0.8c0.5-2.4,1.2-4.8,1.7-7.2c0.2-0.9,0.3-1.8,0.4-2.7c0.1-0.4,0.2-0.7,0.3-1
		c0.3-1,0.5-2,0.8-3c0-0.1,0.1-0.3,0.4-0.5V92C42.8,94.7,43.3,97.4,43.6,100.1z M43.6,108.5c-0.6,0.5-1.2,1-1.8,1.4
		c-0.1,0.1-0.5,0-0.7-0.1c-0.8-0.6-1.5-1.2-2.2-1.9c-0.5-0.5,0.1-1,0.1-1.7c0.6,0.5,1,0.9,1.4,1.3c0.4,0.4,0.8,0.8,1.2,1.1
		c0.2,0.1,0.6,0,0.8-0.2c0.5-0.3,0.8-0.8,1.2-1.3C44.1,107.7,44.1,108.1,43.6,108.5z M94.1,105.6c-0.2,1.2-0.2,2.5-0.4,3.7
		c-0.2,1.2-0.6,2.4-0.9,3.5c-0.5,1.4-0.9,2.8-1.3,4.2c-0.4,1.6-0.6,3.2-1,4.8c-0.3,0.9-0.6,1.7-0.9,2.5c-0.8,2-1.6,4-2.4,5.9
		c-0.5,1.2-1,2.3-1.6,3.4c-0.7,1.3-1.7,2.5-2.3,3.8c-0.9,2-2.4,3.5-3.6,5.3c-1,1.5-2,3-3.1,4.5c-0.7,1-1.7,1.9-2.5,2.9
		c-1.1,1.3-2.4,2.3-3.8,3.4c-0.9,0.7-1.6,1.7-2.4,2.5c-0.7,0.7-1.6,1.3-2.7,1.2c-0.2,0-0.4,0-0.5,0.1c-1.1,0.6-2.3,0.5-3.4,0.6
		c-1.3,0.1-2.6-0.1-3.9-0.3c-0.3,0-0.6-0.3-0.7-0.6c-0.5-1.2-0.9-2.5-1.3-3.7c-0.3-0.9-0.6-1.8-0.9-2.8c-0.5-1.6-1-3.3-1.4-4.9
		c-0.5-2-0.9-4.1-1.4-6.1c-0.2-0.9-0.6-1.8-1-2.7c-0.9-2.1-1.9-4.1-2.9-6.1c-0.6-1.2-0.9-2.4-0.9-3.8c0-0.9-0.3-1.7-0.4-2.5
		c-0.2-1.7-0.4-3.5-0.6-5.2c-0.1-1.5-0.3-2.9-0.5-4.3c-0.2-1.6-0.5-3.2-0.6-4.8c-0.1-1,0-2.1,0-3.2c-0.1-1.9-0.1-3.8-0.2-5.7
		c-0.1-1.5-0.4-2.9-0.5-4.3c-0.2-1.9-0.2-3.8-0.2-5.7V90c1.6,0.3,3,0.6,4.1-0.3c0-0.1-0.1-0.2-0.1-0.3c-0.3,0.1-0.6,0-0.8,0.2
		c-1,0.8-2.1,0.4-3,0.1c-0.9-0.3-1-1.3-1.2-2.2c-0.4-1.9-0.7-3.7-1-5.6c-0.3-1.4-0.4-2.9-0.8-4.2c-0.3-0.9,0.3-1.1,0.7-1.5
		c0.6-0.6,1.1-1.1,1.6-1.7c0.2-0.2,0.1-0.7,0-1c-0.2-0.6-0.4-1.2-0.7-1.7C42,70.5,42,69,41.9,67.6c-0.1-1.1-0.7-1.9-1.1-2.8
		c-0.7-1.6-1.5-3.1-2.3-4.6c-0.2-0.4-0.5-0.8-0.5-1.3c-0.1-0.9,0.3-1.4,1-1.7c0.8-0.4,1.2,0.3,1.7,0.7c0.3,0.1,0.4,0.4,0.5,0.7
		c0.3,0.6,0.1,1.1-0.6,1c-0.5,0-1-0.3-1.4-0.5c-0.3-0.2-0.4-0.5-0.7-0.7C38.4,59,39,59.8,39.6,60c0.9,0.3,1.6,0.1,2.1-0.6
		c0.7,0.9,1.5,1.8,2.2,2.8c0.5,0.8,0.9,1.6,1.4,2.4c0.3,0.5,0.8,1,1.1,1.6c0.3,0.4,0.4,1,0.4,1.5v3.8c0,0.3,0.1,0.5,0.2,0.8
		c0.1-0.1,0.2-0.1,0.3-0.1c0-1.3-0.1-2.6,0-3.9c0.1-1.5-0.5-2.7-1.4-3.9c-0.7-1-1.5-2-2-3.1c-0.8-2-1.5-4.1-2.2-6.2
		c-0.3-0.9-0.7-1.9-1-2.8c-0.3-1-0.8-1.9-0.7-3c0.1-0.9,1-1.9,1.8-1.8c-0.3,0.7-1.4,0.8-1.1,1.7c0.2,0.6,0.7,1.1,1.1,1.6
		c0.5,0.5,1.1,0.5,2-0.1c0.8,1.4,1.6,2.8,2.4,4.2c0.9,1.6,1.8,3.2,2.4,4.9c0.6,1.9,0.8,3.9,1.2,5.9c0.4,1.8,0.7,3.7,1.1,5.5
		c0,0.1,0.1,0.1,0.3,0.3c0-0.2,0.1-0.4,0.1-0.6c-0.4-2-0.7-3.9-1.1-5.9c-0.3-1.7-0.6-3.4-1-5.1c-0.2-0.9-0.7-1.7-1.1-2.5
		c-1.1-2.2-2.3-4.4-3.5-6.6c-0.2-0.4-0.3-0.8-0.5-1.1c-0.5-0.8-0.9-1.7-1.5-2.3c-1-0.9-0.8-2.5,0.7-2.9c0.1,0,0.3-0.1,0.6-0.2
		c-0.7,0.8-1.8,1.2-1.1,2.2c0.4,0.6,0.6,1.7,1.5,1.5c0.7-0.2,1.3-0.7,2.1-1.2c1,2.1,2,4.2,3.1,6.2c1.1,2.1,1.4,4.4,2.1,6.7
		c0.5,1.6,1.1,3.3,1.7,4.9c0.3,0.8,0.5,1.7,0.9,2.5c0.6,1.3,0.6,2.5,0.4,3.8c-0.1,0.6-0.1,1.3,0.1,2c0.1-0.1,0.2-0.3,0.2-0.4
		c0.1-1,0.3-2.1,0.3-3.2c0-0.6-0.1-1.2-0.3-1.7c-0.6-1.5-1.3-3-1.8-4.5c-0.7-2.1-1.1-4.3-1.8-6.4c-0.5-1.7-1.2-3.2-1.8-4.8
		c-0.4-1.1-0.9-2.2-1.4-3.2c0.6-0.4,1.2-0.8,1.8-1.3c0.2,0.6,0.4,1.3,0.7,2c0.5,1.2,1.3,2.3,1.7,3.5c0.6,1.6,0.9,3.4,1.5,5
		c0.5,1.5,1.1,3,1.7,4.5c0,0,0,0.1,0,0.1c0,0.3,0,0.6,0,0.8c-0.1,2.1,0,4.2,0.7,6.2c0.6,1.8,0.8,3.6,0.7,5.5c0,1.1-0.2,2.2-0.4,3.3
		c-0.3,1.8-0.7,3.6-1,5.4c-0.2,1.3-1.1,2.1-2.4,2.3c-0.1,0-0.2,0-0.4-0.1c-0.1,0.1-0.3,0.3-0.4,0.5c0.1,0.1,0.4,0.2,0.5,0.2
		c0.8-0.3,1.5-0.6,2.3-0.9c0.1,0,0.2-0.1,0.4-0.3c0.2,1,0.5,1.8,0.7,2.7c0.4,1.5,0.9,3,1.3,4.5c0.7,2.5,1.1,4.9,1.5,7.4
		c0.3,1.8,1,3.7,1.6,5.5c0.6,2.1,1.3,4.1,2,6.1c0.3,0.9,0.5,1.8,0.8,2.7c0,0.2,0.1,0.3,0.2,0.4c0.6,0.6,0.5,1.4,0.6,2.1
		c0.2,1,0.5,2,0.9,2.9c0.9,2.3,1.9,4.6,2.8,7c0.9,2.4,1.3,5,1.1,7.6c-0.1,0.6-0.2,1.3-0.3,1.9c0,0.2,0.1,0.4,0.1,0.6
		c0.2-0.1,0.4-0.2,0.6-0.3c0.6-0.6,0.5-1.4,0.6-2.1c0.3-3.6-0.6-7-2.1-10.3c-1-2.3-1.9-4.6-2.8-6.9c-0.3-0.6-0.1-1.4-0.1-2.1
		c0-0.1,0.1-0.2,0.1-0.2c1.1-0.5,0.8-1.6,1.2-2.5c0.5-1.3,1.1-2.5,1.6-3.8c0.5-1.5,0.9-3,1.4-4.4c0.7-1.7,1.5-3.5,2.3-5.2
		c0.4-0.8,1.1-1.5,1.4-2.3c0.8-2,2.7-2.9,4.3-4c1.7-1.1,3.4-2.2,5-3.4c1.1-0.8,2.4-1.4,3.6-1.9c1.2-0.5,2.5-1,3.8-1.3
		c1.4-0.3,3-0.6,4.4-0.5c1.3,0.1,2.7,0.4,3.5,2c0.3,0.7,0.5,1.4,0.5,2.2c0,2-0.5,3.9-1.3,5.8C95.6,98.8,94.8,102.2,94.1,105.6z
		 M42.7,48.4c0.3,0.5,0.6,1.1,0.9,1.7c-0.3,0.1-0.6,0.2-0.8,0.2c-0.3,0-0.6-0.1-0.9-0.2c-0.1-0.1-0.2-0.3-0.4-0.5
		c-0.6-0.7-0.5-1.1,0.3-1.5C42.2,47.9,42.5,47.9,42.7,48.4z M96.8,105.3c-0.2,0.2-0.6,0.1-0.9,0c-0.1,0-0.2-0.4-0.2-0.6
		c0.5-2.3,1.1-4.6,1.7-6.9h0.3c0.3,1.2,0.6,2.4,0.8,3.6c0,0.1,0,0.1,0,0.2C99,103.4,98,104.4,96.8,105.3z"/>
	<path class="st0" d="M38.8,39.2c-1.4,0.6-2.3,1.6-3.8,1.5c-0.2,0-0.4,0.1-0.6,0.2c-1,0.6-1.9,0.3-2.8-0.1c-0.2-0.1-0.4-0.1-0.5-0.3
		C31,40.4,31,40.1,31,39.9c0.3-0.1,0.6-0.2,0.8-0.1c1.6,0.6,3.1,0.3,4.6-0.2c0.1,0,0.2-0.1,0.2-0.4c-1.5-0.1-3-0.2-4.5-0.2
		C32.6,38.5,37.4,38.6,38.8,39.2z"/>
</g>
</svg>
