<?xml version="1.0" encoding="utf-8"?>
<!-- Generator: Adobe Illustrator 19.2.1, SVG Export Plug-In . SVG Version: 6.00 Build 0)  -->
<svg version="1.1" id="Layer_1" xmlns="http://www.w3.org/2000/svg" xmlns:xlink="http://www.w3.org/1999/xlink" x="0px" y="0px"
	 viewBox="0 0 206.1 300" style="enable-background:new 0 0 206.1 300;" xml:space="preserve">
<style type="text/css">
	.st0{fill:#03A9F4;}
</style>
<g id="allergic-rxn-lady">
	<path class="st0" d="M152.6,300c-0.1-1.3-0.2-2.6-0.2-3.9c0-5.2-0.1-10.4,0-15.5c0.1-4.1,0.5-8.1,0.8-12.2
		c-0.5,0.4-1.1,0.8-1.6,1.3c-1.9,2-4.1,3.5-6.6,4.7c-3.5,1.6-6.4,4.1-9.6,6.1c-3.1,1.9-6.1,3.9-9.2,5.7c-1.5,0.9-3.1,1.7-4.7,2.5
		c-2.1,1-4.6,0.6-6-0.7c-2-1.9-1.2-5.4,1-6.6c1.7-1,3.4-1.8,5.1-2.8c2-1.1,3.9-2.2,5.8-3.5c0.8-0.5,1.3-1.6,1.9-2.4
		c0.2-0.3,0.4-0.7,0.6-1.1c0.1-0.3,0.2-0.7,0.1-0.9c-0.2-0.2-0.6-0.4-0.9-0.3c-1.5,0.5-3,0.9-4.4,1.6c-3.3,1.6-6.8,2.7-10.4,3.7
		c-2.3,0.6-4.5,1.4-6.8,2.2c-2,0.6-4.1,1.3-6.3,1c-1.5-0.2-2.8-1.1-3.4-2.4c-0.5-1-0.3-2.1,0.4-3.1c0.9-1.5,2.5-2.1,4-2.8
		c2.8-1.4,5.8-2.6,8.7-4c2-0.9,3.9-1.9,5.8-2.8c0.1-0.1,0.2-0.1,0.3-0.2c0-0.1-0.1-0.1-0.1-0.2c-1.8,0.4-3.5,0.9-5.3,1.3
		c-3.5,0.7-6.9,1.3-10.4,2.1c-1.7,0.4-3.4,0.9-5.1,1.3c-2.1,0.5-4.1,1.1-6.3,0.9c-1.7-0.2-3.4-2.2-3.5-3.8c0,0,0-0.1,0-0.1
		c-0.5-2.3,1-3.3,2.7-4.3c2.2-1.3,4.6-2.3,7.1-2.8c3.8-0.8,7.3-2.5,11-3.6c2.2-0.6,4.4-1.3,6.6-1.9c0.2-0.1,0.4-0.2,0.6-0.4
		c-0.9-0.2-1.8-0.4-2.8-0.5c-0.7-0.1-1.4-0.2-2.2-0.2c-3-0.1-6-0.2-8.9-0.1c-2,0-4,0.5-6,0.6c-2.3,0.1-4.6,0.1-6.9-0.2
		c-1.7-0.2-2.3-2.1-2-3.6c0.3-1.6,1.4-2.6,2.9-3.2c1.4-0.5,2.8-1.3,4.2-1.8c2.1-0.7,4.2-1.3,6.5-1.3c2.9-0.1,5.9-0.2,8.8-0.3
		c2.6-0.1,5.1-0.3,7.6-0.5c2.5-0.2,5-0.4,7.3-1.3c0.3-0.1,0.7-0.1,1.1-0.2c-1.5-1.4-2.9-2.6-5.1-2.8c-3-0.2-5.9-0.7-8.9-1.1
		c-1.1-0.2-2.1-0.5-3.1-1c-1.5-0.8-2.4-3.2-1.9-4.7c0.3-1.1,1.4-1.8,2.5-1.9c2.4-0.2,4.7-0.5,7.1-0.6c2.7-0.1,5.4-0.2,8,0.2
		c2.8,0.4,5.6,0.6,8.4,0.8c1.8,0.1,3.6,0.8,5.1,1.9c0.5,0.3,1.1,0.6,1.6,0.8c2.4,1.1,4.7,2.5,6.7,4.2c1,0.9,2.2,1.4,3.7,1.3
		c1.4-0.1,2.8-0.1,4.3-0.2c-0.1-7.5,0-14.7,0.9-22c-1.2,0.6-2.2,1.3-3.3,1.8c-3.7,2-7.6,3.2-11.6,4.2c-1.7,0.5-3.2,1.4-4.9,1.9
		c-1.5,0.5-3.1,0.8-4.6,1c-0.3,0.1-0.8-0.2-1.1-0.4c-0.2-0.2-0.3-0.7-0.2-0.9c0.1-0.2,0.6-0.6,0.8-0.5c1.3,0.5,2.4-0.2,3.6-0.5
		c1-0.3,2-0.8,3.1-1.1c2.7-0.9,5.4-1.7,8-2.6c3.3-1.1,6.5-2.5,9.4-4.5c1.1-0.8,1.6-1.8,2.1-2.9c1.4-3,2.8-5.9,3.9-9
		c0.9-2.6,1.7-5.2,2-7.9c0.4-3.7,0.4-7.4,0.4-11.2c0-2-0.4-3.9-0.6-5.9c-0.1-1.1-0.1-2.3-0.3-3.4c-0.3-1.8-1.1-3.3-2.1-4.8
		c-0.5-0.7-0.5-1.3,0.1-2c1.9-2.4,3.1-5,3.9-8c0.6-2.4,0.7-4.9,0.9-7.3c0-0.6,0.1-1.3,0.4-1.8c0.1-0.3,0.6-0.8,1-0.7
		c0.5,0,0.8,0.5,0.7,1.1c-0.1,0.6-0.3,1.2-0.3,1.9c-0.1,3.1-0.5,6.2-1.4,9.1c-0.7,2.3-2,4.4-3.3,6.4c-0.3,0.5-0.3,0.8-0.1,1.2
		c0.4,0.8,0.9,1.6,1.3,2.4c0.1,0.2,0.6,0.3,0.8,0.2c1-0.6,2.1-1.1,3-1.9c2.3-1.8,4.2-3.9,5.9-6.3c0.7-1,1.2-2.2,1.9-3.3
		c0.3-0.5,0.8-0.9,1.3-1.2c0.2-0.1,0.8,0,0.9,0.2c0.2,0.4,0.3,1,0.1,1.2c-2.7,3.6-5,7.5-8.6,10.3c-1.3,1-2.8,1.8-4.1,2.8
		c-0.3,0.2-0.5,0.6-0.5,0.9c0.1,1.8,0.4,3.6,0.5,5.4c0.2,2.9,0.4,5.8,0.3,8.7c0,3.1-0.3,6.1-0.5,9.2c0,0.2-0.1,0.5-0.2,0.7
		c-1.1,1.2-1.1,2.8-1.3,4.2c-0.1,0.7,0.3,1.5,0.5,2.3c0.1,0.3,0.3,0.5,0.3,0.8c0.9,4.6,1.8,9.1,2.8,13.7c0.2,0.8,0.5,1.6,0.7,2.3
		c0.7,2.9,1.5,5.7,2.1,8.6c0.3,1.5,0.4,3,0.6,4.7c0.6-0.3,1-0.5,1.4-0.8c1.8-1.4,3.4-3,5.4-4.2c3.9-2.4,7.8-4.8,12.6-5.2
		c0.5,0,1.1-0.2,1.6-0.2c0.7,0,1.1,0.3,1,1c0,0.6-0.3,1.2-1,1.1c-2.3-0.3-4.3,0.4-6.4,1.1c-0.8,0.3-1.7,0.6-2.4,1
		c-2.7,1.8-5.4,3.7-8,5.6c-0.4,0.3-0.8,0.6-1.1,0.9c1.1,0.3,2.3,0.5,3.4,0.9c2.1,0.8,3.6,2.2,4.7,4.1c1,1.7,2.1,3.3,3,5
		c1,1.9,1.9,3.8,1.9,6.1c0,1.8,0.1,3.7-0.5,5.4c-0.4,1-1,2-1.5,3c-0.3,0.6-0.7,1.2-1.2,2c0.8-0.4,1.3-0.7,1.9-0.9
		c2.6-1.1,5.2-2,7.7-3.2c2.8-1.3,5.6-2.7,8.3-4.3c3.3-2,5.2-5.2,5.9-8.9c0.6-3.2,0.2-6.5-0.9-9.7c-0.6-1.9-1.2-3.9-1.8-5.8
		c-0.3-1.3-0.4-2.7-0.8-4c-0.6-1.8-1.5-3.5-2.1-5.3c-0.9-2.7-1.7-5.5-2.5-8.3c-1.3-4.4-2.5-8.8-3.8-13.2c-1.5-5.1-3-10.2-4.4-15.3
		c-0.7-2.6-1.2-5.2-1.5-7.9c-0.4-2.9-0.4-5.8-0.8-8.7c-0.2-2-0.5-4-0.9-6c-0.5-2.5-0.9-5-1.6-7.4c-0.5-1.7-1.2-3.4-2.1-5
		c-1.4-2.8-3-5.5-4.6-8.2c-1.3-2.2-2.5-4.4-4-6.5c-1.3-1.7-2.7-3.4-4.2-5c-1.2-1.3-2.7-2.1-4.4-2.7c-2.7-1-5.4-2.2-8.3-2.6
		c-0.9-0.1-1.8-0.2-2.7-0.3c-2.5-0.4-5-0.7-7.4-1.1c-1.4-0.2-2.9-0.2-4.2-0.7c-2.9-1.2-6-1.8-9-2.6c-0.2-0.1-0.4-0.1-0.7-0.1
		c0.6,1.5,1.3,2.9,1.8,4.3c1.2,3.4,2.1,6.8,2.8,10.4c0.6,3.3,1.4,6.5,2,9.8c0.4,1.8,0.6,3.6,1,5.4c0.4,2.1,0.9,4.2,1.3,6.3
		c0.5,2.4,1.1,4.7,1.4,7.1c0.2,1.2-0.6,2.2-1.4,3c-2.5,2.5-5.1,5-7.7,7.5c-1.3,1.3-2.6,2.6-4,3.8c-1.9,1.7-3.6,3.6-6,4.7
		c-1,0.5-1.8,1.2-2.7,1.9c-0.2,0.1-0.2,0.4-0.3,0.6c-0.1,0.1,0,0.3-0.1,0.4c-1.2,1.3-0.3,2.8-0.3,4.2c0,0.4,0,0.9,0,1.3
		c0,2.2-0.1,4.3-0.2,6.5c-0.1,1.7-0.2,3.5-0.4,5.2c0,0.3-0.4,0.7-0.6,0.7c-1.4,0-2.4,0.9-3.5,1.6c-0.1,0.1-0.3,0.2-0.4,0.3
		c-1.2,0.6-1.5,1.2-3-0.2c-1.1-1-2.1-2.1-3.8-2.3c-0.7-0.1-0.9-0.7-0.8-1.4c0.3-1.4,0.5-2.8,0.8-4.1c0.6-2.6,1.1-5.3,0.8-7.9
		c-0.3-3-0.8-5.9-2.3-8.6c-0.3-0.5-0.7-1-1.2-1.4c-3-2.3-6.5-3.4-10.2-3.9c-1.2-0.2-2.2-0.8-3.4-1.2c-0.2-0.1-0.6-0.2-0.8-0.1
		c-2.3,0.8-4.6,1.6-6.8,2.6c-1.2,0.5-1.9,1.8-2.4,3c-0.9,2.2-1.7,4.5-2.7,6.7c-1.5,3.4-3.3,6.7-4.8,10.1c-1.3,2.9-2.3,6-3.6,8.9
		c-1.4,3.4-2.9,6.8-4.4,10.1c-1.6,3.5-3.2,7.1-4.7,10.6c-0.8,1.8-1.5,3.7-2.2,5.6c0,0.1-0.1,0.2-0.1,0.2c0.3,1.5-0.7,2.4-1.3,3.6
		c-0.9,1.7-1.6,3.4-2.4,5.1c-0.2,0.4-0.4,0.8-0.7,1.2c0.8-0.2,1.5-0.5,2.3-0.7c2-0.4,4.1-0.8,6.2-1.2c2.9-0.7,5.9-0.5,8.9-0.5
		c0.5,0,1-0.2,1.5-0.4c1.7-0.7,3.3-1.5,4.9-2.3c0.6-0.3,1-0.1,1.3,0.3c0.3,0.5,0,0.9-0.5,1.1c-0.6,0.3-1.3,0.5-1.9,0.8
		c-1.2,0.6-2.3,1.2-3.5,1.7c-0.7,0.3-1.5,0.5-2.2,0.4c-3.7-0.1-7.3,0.4-10.9,1.2c-1.9,0.4-3.9,0.8-5.8,1.6c-2,0.8-3.5,2.1-4.8,3.9
		c-1.5,2-3.1,3.9-4.6,5.9c-1.5,1.9-3,3.9-4.5,5.8c-0.1,0.1-0.1,0.2-0.2,0.2c-1.3,0.8-1.4,2-1.3,3.4c0.1,1.7,0.1,3.3,0.2,5
		c0.1,2.3-0.6,4.5-1.3,6.7c-1.2,3.9-2.6,7.8-4,11.7c-0.1,0.4-0.3,0.7-0.4,1.1c-0.5,1.9-1,3.8-2,5.5c-0.5,0.9-1.1,1.7-1.4,2.7
		c-0.3,1.1-0.3,2.3-0.6,3.4c-0.4,1.6-0.9,3.2-1.4,4.8c-0.7,0-1.4,0-2.1,0c0.4-1.9,0.7-3.9,1.3-5.8c0.4-1.3,1-2.4,1.5-3.6
		c0.9-2.3,1.7-4.5,2.5-6.8c1.1-3.2,2.1-6.4,3.2-9.5c0.8-2.3,1.9-4.6,2.4-7c0.5-2.1,0.5-4.3,0.5-6.5c0-0.9-0.9-1.2-1.6-0.6
		c-0.5,0.4-1,0.9-1.5,1.4c-1.1,1-2.1,2-3.2,3c-1.2,1.1-2.6,1.8-4.2,1.8c-1.2,0.1-2.4,0-3.6-0.1c-1.9-0.2-3.3-1.2-4.7-2.4
		c-2.1-1.8-3.3-4.1-4.8-6.2c-1.5-2.2-3-4.4-4.5-6.6c-0.7-1-1.3-2-2-3c-2-3.1-4-6.2-6.1-9.2c-1.2-1.7-1.7-3.6-1.8-5.6
		C0,230.6,0,228,0,225.5c0.1-5.8,0.2-11.6,0.3-17.4c0.1-3,0.2-6.1,0.2-9.1c0-2.2-0.1-4.5-0.2-6.7c-0.1-2-0.1-3.9-0.2-5.9
		c0-0.9-0.2-1.8-0.1-2.7c0.2-2,0.5-3.9,0.8-5.9c0.4-2.5,0.8-5,1.1-7.5c0.4-3.3,0.5-6.6,0.9-9.9c0.3-2.5,0.8-4.9,1.2-7.3
		c0.1-1,0.1-2,0.2-3c0.2-2.5,0.9-4.9,1.9-7.2c0.5-1.1,0.8-2.3,1.3-3.3c0.5-1,1.3-2,2-2.9c1.6-2.2,3.1-4.4,4.8-6.5
		c0.5-0.6,1.2-1.1,1.8-1.6c0.2-0.2,0.5-0.4,0.5-0.5c-1.2-1.4-2.5-2.8-3.6-4.2c-0.7-0.8-0.1-2,1-2.2c0.9-0.1,1.8-0.2,2.7-0.2
		c2.4,0.1,4.4-0.8,6.2-2.2c2-1.6,3.5-3.6,5-5.6c1.3-1.6,2.2-3.4,2.6-5.4c0.3-1.4,0.3-2.9,0.3-4.4c0-1.4-0.2-2.8-0.3-4.1
		c-0.1-0.5-0.2-1-0.4-1.5c-0.3-1.2-0.8-2.4-1-3.6c-0.4-2.4-1-4.7-2-6.8c-1.5-3.2-2-6.5-1.7-10c0.2-2.8,1.1-5.5,2.1-8.1
		c0.4-1.2,0.5-2.6,0.7-3.9c0.3-2.1,0.5-4.3,0.7-6.4c0.1-0.7,0.2-1.3,0.2-2c0-3.3,0.5-6.6,1.3-9.8c0.9-3.8,2.1-7.4,3.4-11
		c0.7-2.1,1.3-4.2,2-6.3c0.7-2,1.5-3.9,2.7-5.6c0.8-1.2,1.5-2.5,2.1-3.8c0.9-2.1,2.4-3.9,3.9-5.6c1.7-1.9,3.5-3.9,5.3-5.8
		c1.1-1.1,2.3-2.1,4-2.5c1.2-0.3,2.2-1.1,3.4-1.5c2.6-0.8,5.2-1.5,7.8-2.3c0.7-0.2,1.4-0.4,2.2-0.5c0.6-0.1,1.2-0.1,1.8-0.2
		c0.1,0,0.1,0,0.2,0c2.3-1.9,5.1-1.6,7.7-2C78.8,0,81-0.2,83.1,0.5c1.3,0.4,2.6,0.9,3.7,1.7c1.4,1,3.1,1.7,4.6,2.7
		c0.6,0.3,1,0.9,1.4,1.4C93,6.5,93.1,6.9,93.3,7c1.4,0.6,2.1,1.9,3,3c2,2.4,4.2,4.6,6.7,6.6c2.9,2.5,5.6,5.2,7.6,8.6
		c2.7,4.5,5.2,9.2,7.2,14c1.1,2.5,1.8,5.3,2.5,8c0.5,2.1,0.8,4.3,1.2,6.4c0.4,2.2,1.1,4.4,1.4,6.6c0.3,2.2,0.3,4.5,0.2,6.8
		c-0.1,2.1-0.5,4.3-0.9,6.4c-0.3,1.5-0.7,3-1.4,4.3c-1,2-1.3,3.9-0.9,6c0.5,2.2,0.9,4.5,1.6,6.7c0.8,2.1,1.9,4.1,3,6.1
		c0.5,0.9,1.5,1.6,2.1,2.4c1.5,1.8,2.1,4,2.1,6.4c0,2.6-0.3,5-1.4,7.5c1.6,0.6,3.2,1.3,4.8,1.8c3.4,1,6.8,2.1,10.3,3
		c1.9,0.5,3.8,0.8,5.8,1c2.5,0.4,5.1,0.4,7.7,0.9c2.5,0.5,5,1.4,7.4,2.3c1.7,0.6,3.3,1.3,4.8,2.3c2.3,1.5,3.9,3.5,5.5,5.7
		c3,4.2,5.4,8.8,7.8,13.3c0.8,1.6,1.8,3.2,2.6,4.9c1.4,3.1,1.7,6.4,2.5,9.7c0.4,2,0.7,4,1,5.9c0.1,0.9,0.2,1.7,0.2,2.6
		c0.2,6.6,1.4,13,3.4,19.3c1.3,4.1,2.4,8.2,3.6,12.4c0.6,2.2,1.3,4.3,1.9,6.5c0.8,2.7,1.6,5.4,2.3,8.1c0.7,3.1,2.1,5.9,3.2,8.8
		c0.6,1.6,0.7,3.4,1,5.1c0.1,0.3,0.1,0.6,0.2,0.8c0.8,2.8,1.8,5.6,2.4,8.5c0.8,4,0.6,8-1.2,11.8c-1.5,3-3.7,5.1-6.6,6.6
		c-4.3,2.4-8.8,4.4-13.5,6.1c-1.2,0.5-2.3,1.2-3.5,1.8c-1.4,0.7-2.9,1.3-4.2,2.1c-1.3,0.8-2.6,0.6-3.8,0.2c-2.3-0.7-4.4-1.8-6.6-2.6
		c-0.8-0.3-1.7-0.3-2.5-0.2c-0.9,0.1-1.8,0.2-2.6,0.5c-1,0.4-2,0.9-2.9,1.3c-0.4,0.2-0.8,0.5-1.3,0.7c-1,0.6-1.3,1.6-1.6,2.7
		c-1.1,4.4-1.3,8.8-1.4,13.2c-0.1,5.4,0,10.9,0,16.3c0,1.2,0.2,2.4,0.3,3.6C153.7,300,153.2,300,152.6,300z M42.3,189.1
		c0.3-0.1,0.3-0.1,0.4-0.2c1.9-1.3,3.1-3.2,4.2-5.2c1-1.7,1.9-3.3,3-5c1.1-1.7,2.3-3.2,3.4-4.8c0.3-0.4,0.5-1,0.7-1.4
		c1-2,2.1-3.9,3-5.9c1.1-2.3,2-4.8,3-7.1c0.4-0.9,0.3-1.7-0.2-2.5c-1.3-1.8-1.4-4-1.6-6.2c-0.1-1.4,0-2.8,0-4.2c0-0.3,0-0.6-0.1-0.8
		c-1.5-3.2-2.9-6.4-4.5-9.6c-1.6-3-3.3-5.9-5.1-8.8c-0.2-0.3-0.7-0.5-1-0.5c-0.9,0.1-1.8,0.4-2.8,0.6c-1,0.2-2,0.6-3.1,0.7
		c-2.4,0.2-4.7-0.1-6.9-0.9c-2.6-0.9-5.3-1.1-8-1c-0.5,0-1.1,0.2-1.4,0.5c-0.8,0.8-1.8,1.2-2.9,1.2c-1.5,0.1-3,0-4.2,1.1
		c-1.1,0.9-2.2,1.6-3.2,2.6c-0.8,0.9-1.4,1.9-2.1,2.9c-1.9,2.8-4.3,5.4-5.3,8.8c-0.8,2.7-1.8,5.3-1.8,8.1c0,1.2-0.3,2.3-0.5,3.5
		c-0.2,1.6-0.5,3.2-0.7,4.9c-0.1,1-0.1,2.1-0.2,3.1c-0.3,2.6-0.5,5.1-0.9,7.7c-0.2,1.9-0.6,3.7-0.8,5.5c-0.3,2.8-0.8,5.6-0.9,8.4
		c-0.1,3.3,0.2,6.6,0.3,9.9c0.1,4.7,0,9.4,0,14.2c0,1.7,0,3.4,0,5.1c0,1.7,0.1,3.3,0,5c-0.1,1.8-0.3,3.5-0.3,5.3
		c-0.1,2.7-0.1,5.5-0.2,8.2c0,0.7,0.1,1.4,0.3,2.1c0.3,1.7,1.2,3.1,2,4.5c2,3.3,4.1,6.5,6.4,9.6c1.6,2.1,3.2,4.3,4.6,6.6
		c1.6,2.7,3.4,5.3,5.7,7.5c2,2,4.3,2.3,6.9,1.9c0.9-0.1,1.8-0.3,2.5-0.8c1.7-1.2,3.4-2.5,4.9-4c1.8-1.8,3.5-3.7,5.1-5.6
		c1.4-1.7,2.7-3.4,4.1-5.2c1.7-2.2,3.3-4.4,5.1-6.6c2.1-2.6,3.9-5.4,5.3-8.5c0.4-0.9,0.9-1.7,1.3-2.6c0.1-0.2,0.1-0.4,0.1-0.6
		c-0.9-0.1-1.8-0.1-2.7-0.3c-2.6-0.6-4.9-1.8-6.6-3.8c-2.5-3-4.8-6.1-7.1-9.2c-1.3-1.8-2.5-3.7-3.5-5.7c-1.2-2.6-2.2-5.3-3.2-7.9
		c-2.3,2-4.7,4.1-7.1,6.3c-1.1,1-2.1,2.2-3.1,3.3c-3.1,3.1-5.1,6.8-6.8,10.7c-0.8,1.9-1.8,3.7-2.6,5.6c-0.3,0.7-0.9,0.6-1.5,0.5
		c-0.1,0-0.3-0.8-0.1-1.1c0.6-1.5,1.3-3,2-4.5c0.9-1.9,1.8-3.7,2.7-5.6c1.6-3.2,4-5.8,6.4-8.4c0.9-1,2.1-1.9,2.9-3
		c0.6-0.9,1.4-1.3,2.4-1.5c0.4-0.1,0.7-0.4,1-0.7c1.2-1.3,2.3-2.6,3.4-3.9c0.9-1,1.7-2.1,2.5-3.1c1.5-1.9,3.2-3.6,4.2-5.8
		c0.1-0.2,0.4-0.3,0.6-0.5c0.3-0.3,0.7-0.7,0.7-1c0-1.3-0.1-2.6-0.2-3.8c-0.1-2.5,0-5-0.2-7.5c-0.2-2.8-0.6-5.6-0.8-8.4
		c-0.1-1.1,0.1-2.2,0-3.3c-0.4-3.2-2.3-5.8-3.7-8.5c-0.8-1.5-1.9-2.7-2.8-4.2c-1.1-1.9-2.2-3.8-3.3-5.7c-0.4-0.6-0.2-1.3,0.4-1.6
		c0.6-0.3,1,0.3,1.2,0.8c0.5,1.1,1,2.3,1.7,3.3c1.5,2.3,3.1,4.6,4.7,6.8c2.3,3.4,3.9,7.1,3.7,11.4c0,1,0.1,1.9,0.2,2.9
		c0,0.2,0.1,0.3,0.2,0.5c2-2.7,3.9-5.4,5.1-8.5c0.1-0.4,0.5-0.7,0.8-0.9c0.2-0.1,0.7-0.2,0.9-0.1c0.2,0.2,0.4,0.6,0.4,0.9
		c-0.1,0.4-0.3,0.8-0.5,1.2c-2.1,3.7-4.2,7.3-6.3,11c-0.1,0.1-0.1,0.3,0,0.5c0.1,0.9,0.4,1.8,0.4,2.7c0.1,2.4,0.1,4.8,0.2,7.2
		C42.1,187.9,42.2,188.5,42.3,189.1z M96.5,120c-0.2,0.1-0.4,0.1-0.5,0.2c-2.2,1.3-3.9,3.1-5.7,4.9c-0.6,0.6-1.2,1.1-1.7,1.7
		c-1.3,1.4-2.4,2.9-3.7,4.3c-2.2,2.3-4.4,4.5-6.7,6.7c-1.2,1.1-2.4,2.3-4.1,2.7c-2.6,0.7-5.3,1.2-6.9,3.8c-0.1,0.2-0.6,0.3-0.8,0.2
		c-0.3-0.2-0.5-0.5-0.6-0.9c-0.1-0.7-0.2-1.4-0.2-2.1c-0.2-3.1-0.1-6.3-0.7-9.4c-0.4-2.1-1.2-3.8-2.8-5.4c0,0.5,0,0.8,0,1.1
		c0,1.9-1.3,3.3-3.1,3.5c-0.4,0.1-0.6,0.2-0.5,0.7c0.4,2.9,0.8,5.8,0.9,8.8c0.2,3.6-0.1,7.2,0.1,10.7c0.1,1.7,0.4,3.4,1.5,4.9
		c0.9,1.3,1.1,2.9,0.3,4.4c-1.6,3.4-3.2,6.8-4.8,10.2c-1.3,2.8-2.8,5.4-4.7,7.8c-1.5,1.8-2.5,3.8-3.6,5.8c-1,1.7-2,3.4-3.5,4.7
		c-1.4,1.3-2.9,2.7-4.2,4.2c-2.1,2.4-4,4.9-6,7.4c-0.2,0.3-0.5,0.7-0.5,1c0,0.5,0.3,1,0.4,1.5c0.6,1.7,1.2,3.5,2,5.1
		c0.9,2,1.9,4,3.1,5.8c1.6,2.5,3.5,4.8,5.3,7.1c0.9,1.2,1.8,2.4,2.7,3.6c1.7,2.1,4,3.1,6.6,3.5c0.5,0.1,1-0.1,1.5-0.2
		c0.4-0.1,0.7-0.4,1-0.6c0.3-0.2,0.6-0.3,0.8-0.5c0.4-0.9,0.7-1.8,1.1-2.7c0.9-2.2,1.8-4.4,2.8-6.5c1.2-2.7,2.4-5.3,3.6-8
		c1.3-2.8,2.5-5.6,3.7-8.4c0.9-2.3,1.6-4.7,2.6-7c1.9-4.2,4-8.3,5.9-12.6c1.1-2.3,1.9-4.8,2.8-7.2c0.5-1.3,1.2-2.5,2.4-3.3
		c0.9-0.5,2-0.9,3-1.3c1.8-0.7,3.6-1.2,5.3-2c2.3-1.1,4.6-2.4,6.9-3.6c1.9-1,3.8-2,5.8-2.9c1.9-0.9,3.9-1.5,5.8-2.3
		c1.2-0.5,1.3-0.9,0.5-2c-0.2-0.2-0.1-0.6-0.2-1c0.3,0.1,0.8,0.1,1,0.3c0.3,0.4,0.5,0.9,0.8,1.5c2.7-1.8,5.3-3.6,7.8-5.3
		c-0.8-1.1-1.4-2-2.2-3.2c-1.8,1-3.7,1.9-5.6,3.1c-1.5,0.9-3,1.7-4.7,1.9c-2.3,0.2-4.6,0.5-6.9,0.8c-1.1,0.1-1.8-0.3-1.6-1.4
		c0.2-0.9,0.7-1.8,1.3-2.4c2-1.8,4.1-3.4,6.1-5.1c0.6-0.5,1.2-1,1.8-1.6c-0.5-0.4-0.9-0.8-1.2-1.1c-0.4-0.4-0.9-0.9-0.3-1.3
		c0.6-0.5,0.8,0.2,1,0.6c0.8,1.2,1.2,1.2,2.1,0.2c0.1-0.1,0.3-0.3,0.4-0.5c1.3-1.9,2.6-3.9,3.9-5.8c0.6-0.9,1.2-1.7,1.9-2.7
		c-1.7-0.1-3-0.8-4-2.1c-0.3,0.3-0.5,0.5-0.7,0.8c-1.8,2.5-4,4.6-6.4,6.4c-2.2,1.6-4.2,3.4-6.3,5.2c-0.9,0.7-1.7,1.5-2.6,2.1
		c-0.2,0.2-0.8,0.2-1.1,0c-0.2-0.1-0.2-0.7-0.1-1c0.9-1.5,1.8-2.9,2.8-4.3c0.8-1.2,1.7-2.4,2.6-3.6c0.4-0.6,0.4-1.1-0.2-1.6
		c-0.3-0.2-0.6-0.5-0.8-0.8c-0.1-0.2,0-0.6,0-0.8c0.2,0.1,0.5,0,0.7,0.2c0.4,0.3,0.7,0.7,1,1c1.1-1.4,2-2.7,3.1-3.9
		c1.4-1.4,2.9-2.7,4.4-4.1c0.2-0.2,0.5-0.4,0.7-0.6c0.5-0.5,1-1,1.6-1.6c-2.2-0.5-3.9-1.5-4.7-3.7c-0.8,0.4-1.6,0.6-2.2,1.1
		c-1.3,1.1-2.6,2.4-3.8,3.6c-1.1,1.1-2.1,2.3-3.1,3.4c-0.2,0.3-0.4,0.5-0.6,0.8c-1.9,2.6-3.7,5.4-6.2,7.6c-0.3,0.2-0.4,0.6-0.6,0.9
		c-0.2,0.2-0.5,0.5-0.7,0.4c-0.3-0.1-0.6-0.4-0.6-0.7c-0.1-0.3,0.1-0.7,0.3-0.9c0.9-1,1.9-2.1,2.9-3.1c1.2-1.3,1.2-1.3,0.3-2.8
		c-0.2-0.3-0.5-0.6-0.7-0.9c-0.3-0.3-0.7-0.7-0.2-1.1c0.2-0.1,0.8,0.1,1,0.4c0.5,0.6,1,1.2,1.4,1.8c2.8-3.3,5.6-6.5,8.4-9.9
		C98.6,122.9,96.9,122.4,96.5,120z M101.6,45.3c-0.3-0.6-0.6-1-0.8-1.4c-1-2-1.9-4-3-5.9c-1.4-2.2-2.4-4.6-4.1-6.7
		c-2.6-3.1-4.2-6.9-5.7-10.6c-1.2-3-2.8-5.7-4.6-8.3c-1-1.4-2.1-2.7-3.2-4c-0.8-0.9-1.6-1.8-2.4-2.6c-0.3-0.3-0.8-0.6-1.3-0.1
		c-0.4,0.5-0.3,0.9,0.1,1.3c1.1,1.4,2.2,2.8,3.4,4.1c2.4,2.5,3.9,5.5,5.4,8.6c0.8,1.6-0.1,2.9-1.5,3.3c-1.2,0.3-2.5,0.4-3.7,0.7
		c-1.5,0.4-2.9,1.2-3.7,2.5c-0.7,1.3-1.2,2.7-1.7,4.1c-0.3,0.7-0.5,1.4-0.8,2c-0.9,1.8-1.9,3.5-2.6,5.3c-1.6,4.3-2.9,8.8-5,13
		c-0.7,1.5-1.4,2.9-2.1,4.4c-0.1,0.2-0.1,0.4-0.1,0.7c0.2,0,0.5,0.1,0.6,0c2-1.3,4.3-1.2,6.6-1.1c0.9,0,1.1,0.2,0.9,1.2
		c-0.2,0-0.4,0-0.6,0c-1.9,0-3.8-0.2-5.6,0.7c-1.5,0.7-3.3,1-4,3c-0.2,0.5-0.7,0.9-1.1,1.3c-0.2,0.3-0.4,0.6-0.8,1
		c0.4-0.1,0.6,0,0.7-0.1c1.7-1.1,3.5-1.9,5.5-2.3c2.6-0.4,5.3-0.7,7.4,1.5c0.6,0.6,0.6,1.2-0.1,1.6c-0.3,0.2-0.6,0.3-0.9,0.6
		c-3.2,3-9.6,4.1-13.7,1.3c-0.4-0.3-0.7-0.2-0.9,0.1c-0.6,0.7-1.3,1.3-1.8,2c-2.2,3-4.7,5.6-7.2,8.3c-0.6,0.6-1.3,1.3-1.3,2.3
		c0,1.1,0.6,2,1.3,2.7c1,0.9,2.1,1.8,3.6,1.9c1,0.1,1.7-0.7,1.5-1.6c-0.4-1.4-0.8-2.9-1.3-4.3c-0.2-0.5-0.1-0.8,0.3-1
		c0.4-0.2,0.8,0,0.9,0.5c0.5,1.4,1,2.9,1.4,4.3c0.6,2.4,1.1,4.8,1.8,7.2c0.8,2.5,2,5,4,6.8c1.7,1.5,3.5,2.8,5.4,4
		c2.1,1.4,4.2,2.8,6.3,4.2c3,2,6.1,3.7,9.8,4.1c2.6,0.3,5,0,7.3-1.1c2-0.9,3.8-2.2,5.4-3.8c3.2-3.1,6.9-5.8,9-9.9
		c0.7-1.3,1.4-2.6,2.1-3.9c0.8-1.6,1.1-3.4,1.5-5.2c0.4-2.3,0.4-4.7,0.3-7c-0.1-2.3-0.2-4.7-0.3-7c0-0.7,0.1-1.4,0.2-2.1
		c0.1-3.3-0.2-6.6-1.4-9.7c-0.6-1.5-0.9-3.1-1.4-4.7c-0.6-1.8-1.9-3.1-3.1-4.5c-0.2-0.2-0.4-0.3-0.7-0.3c-1.6,0.2-3.2,0.2-4.8,0.6
		c-2,0.6-3.9,1.5-5.9,2.1c-1.4,0.4-2.6,0.8-3.7,1.8c-0.1,0.1-0.7,0.1-0.8-0.1c-0.1-0.2-0.2-0.7,0-0.8c0.7-0.5,1.5-1,2.3-1.4
		c1.2-0.5,2.4-0.9,3.6-1.4c2.5-0.9,4.8-2.1,7.5-2.2C100.6,45.5,101.1,45.4,101.6,45.3z M94,267.1c1.5-0.4,2.6-0.8,3.8-1
		c2.4-0.5,4.8-0.9,7.2-1.4c1.8-0.4,3.5-0.8,5.3-1.2c3.2-0.8,6.4-1.6,9.6-2.4c1.3-0.3,2.6-0.8,4-1.1c0.3-0.1,0.6,0.2,0.9,0.3
		c-0.2,0.3-0.4,0.7-0.6,0.9c-0.3,0.2-0.9,0.3-1.1,0.6c-0.8,1-1.8,1.5-2.9,1.9c-1.4,0.6-2.7,1.3-4.3,2c0.5,0.9,0.9,1.7,1.3,2.5
		c0.1,0.3,0,0.9-0.2,1.1c-0.4,0.4-0.8,0-1-0.4c-0.5-0.9-0.9-1.7-1.4-2.6c-3.6,1.6-7.1,3.2-10.7,4.8c1.6,2.2,1.8,4.2,0.2,6.3
		c1.1-0.3,2.1-0.6,3.2-0.9c3.4-1.1,6.9-2.1,10.3-3.1c2.5-0.7,5-1.6,7.2-3c1.5-0.9,3.2-0.9,4.7-1.4c0.7-0.3,1.5-0.5,2.3-0.7
		c0.3-0.1,0.8,0,0.9,0.2c0.1,0.2,0.1,0.7,0,0.9c-0.6,1.2-1.3,2.5-2,3.7c-0.4,0.8-0.9,1.5-1.3,2.2c-0.1,0.2-0.1,0.6,0,0.8
		c0.3,0.6,0.7,1.1,0.9,1.7c0.1,0.3,0,1-0.2,1.1c-0.4,0.3-0.7-0.1-1-0.5c-0.4-0.6-0.8-1.2-1.2-1.8c-2.5,1.5-4.9,2.9-7.4,4.4
		c2.1,1.2,2.3,3.3,2.3,5.6c0.4-0.2,0.7-0.3,1-0.5c3.8-2.3,7.6-4.6,11.4-7c2.8-1.7,5.4-3.6,8.2-5.3c1.1-0.7,2.4-1.1,3.5-1.8
		c1.7-1.1,3.3-2.3,4.5-4c0.8-1.3,2.1-2.2,3-3.4c1.2-1.5,2.9-2.3,4.5-3.2c0.6-0.4,1.4-0.5,2.2-0.7c0.8-0.2,1.7-0.3,2.6-0.4
		c0.9-0.1,1.9-0.2,2.7,0.1c2.6,0.6,5.1,0.6,7.7,0.2c2.9-0.4,4.9-2.1,6.7-4.1c0.3-0.3,0.5-0.8,0.6-1.2c0.5-1.6,0.6-3.2,0.5-4.9
		c0-2.2-0.9-4.1-2-5.9c-0.2-0.3-0.5-0.5-0.6-0.8c-0.6-1.1-1.2-2.3-1.9-3.3c-0.6-0.9-1.4-1.8-2.2-2.5c-1.6-1.4-3.5-1.8-5.5-1.6
		c-0.7,0.1-1.5-0.1-1.9,0.7c-0.1,0.1-0.4,0.2-0.6,0.2c-0.3,0.1-0.6,0.1-0.9,0.2c-2.9,1.2-6,1.7-9.1,1c-0.8-0.2-1.5-0.4-2.3-0.3
		c-2.4,0.1-4.8,0.3-7.3,0.5c-1.3,0.1-2.5-0.3-3.5-1.1c-2.2-1.6-4.3-3.4-6.9-4.4c-0.5-0.2-0.9-0.4-1.3-0.7c-2.3-1.7-4.9-2.3-7.8-2.3
		c-1.2,0-2.5-0.2-3.7-0.3c-2-0.2-4-0.4-6-0.5c-1.8-0.1-3.5,0-5.4,0c0.2,0.6,0.5,1.1,0.6,1.6c0.4,1.1,0.1,2.1-0.7,2.4
		c-0.9,0.3-1.8,0.5-2.7,0.7c-0.5,0.1-1,0.2-1.7,0.4c0.2,0.1,0.3,0.1,0.3,0.1c2.6,0.4,5.2,0.7,7.8,1.1c1.5,0.2,3,0.4,4.5,0.7
		c0.7,0.1,1.3,0.8,1.9,0.8c1.4,0,2,0.9,2.7,1.8c0.4,0.4,0.7,1.3,0.5,1.6c-0.3,0.5-1,0.7-1.6,0.9c-0.6,0.2-1.2,0.2-1.8,0.3
		c-1.9,0.4-3.8,0.9-5.8,1.1c-3,0.3-6,0.4-9,0.5c-0.6,0-0.7,0.3-0.7,0.8c0,0.6,0,1.3-0.2,1.9c-0.1,0.3-0.5,0.8-0.8,0.8
		c-0.5,0-0.7-0.5-0.5-1c0.2-0.7,0.2-1.4,0.3-2.3c-1.7,0.1-3.3,0.2-4.8,0.2c-2.2,0-4.3,0.1-6.4,0.7c-1,0.3-2,0.6-3,1
		c1.3,2,1.3,3.9,0.2,5.8c0.8,0,1.5,0,2.2,0c2.9-0.2,5.7-0.5,8.6-0.7c1.6-0.1,3.3,0.2,4.9,0.1c3.5-0.1,6.8,0.7,10.2,1.4
		c0.3,0.1,0.6,0.6,0.9,0.9c-0.3,0.3-0.6,0.7-1,0.8c-2.1,0.5-4.2,0.8-6.2,1.3c-1.1,0.2-2.1,0.6-3.3,1c0.3,0.7,0.5,1.3,0.8,1.9
		c0.2,0.5,0.3,1.1-0.3,1.2c-0.2,0.1-0.7-0.4-0.9-0.8c-0.4-0.6-0.6-1.4-0.8-2c-4.7,1.5-9.3,3-14,4.5c1,0.9,2.1,1.5,2.1,3
		C95.2,264.7,95,265.9,94,267.1z M99.7,154.3c2.3-0.2,4.4-0.4,6.4-0.7c1-0.1,2.1-0.4,3.1-0.8c1.3-0.6,2.4-1.4,3.7-2.1
		c2.1-1.1,4.3-2.2,6.5-3.2c1.1-0.5,2.7-0.2,3,0.5c0.8,1.7,1.2,3,0.1,4.1c-0.7,0.8-1.5,1.6-2.3,2.2c-1.5,1.1-3,2.1-4.5,3.1
		c-1.9,1.2-3.8,2.5-5.8,3.5c-1.8,0.9-3.8,1.5-5.7,2.3c-1,0.4-2,1-3.1,1.5c1,0.4,1.7,0.8,2.5,1.1c2.6,0.7,5.1,1.7,7.1,3.6
		c0.6,0.6,1.2,1.4,1.8,2c1.1,1,2.2,1.9,3.3,2.9c0.2-0.1,0.2-0.1,0.2-0.2c1.5-1.8,3-3.7,4.6-5.5c3-3.2,6-6.3,9-9.4
		c0.5-0.5,0.8-1.1,0.7-1.8c-0.2-1.2-0.4-2.4-0.5-3.6c-0.3-2.7-0.5-5.4-0.7-8.1c-0.3-3.6-0.6-7.2-0.9-10.8c-0.2-3-0.5-6.1-0.7-9.1
		c0-0.2-0.4-0.7-0.5-0.6c-1.6,0-3.1,0.2-4.7,0.3c-1.6,0.1-3.3,0.3-4.9,0.4c-0.2,0-0.6-0.2-0.6-0.4c-0.1-0.3,0-0.8,0.2-0.9
		c0.3-0.2,0.7-0.4,1.1-0.4c0.7-0.1,1.3,0,2-0.1c1.4-0.1,2.8-0.3,4.1-0.5c0.9-0.1,1.8-0.1,2.9-0.2c-0.7-1.7-1.4-3.2-2.1-4.7
		c-1-2-2.5-3.6-4.2-4.9c-2.2-1.7-4.2-3.6-6.7-4.8c-2.2-1.1-3.8-2.7-4.5-5.1c-0.9-2.9-1.7-5.9-2.6-8.8c-0.2-0.8-0.5-1.6-0.7-2.2
		c-1.3,1.5-2.5,3.1-3.9,4.5c-2.3,2.2-4.6,4.4-7,6.4c-1.6,1.4-3.4,2.5-5.5,3.1c-2.7,0.8-5.4,0.8-8.1,0.3c-1.8-0.3-3.6-1.1-5.2-1.9
		c-2.4-1.3-4.6-2.9-6.9-4.3c-1.5-1-3-2-4.4-3c-0.1-0.1-0.3-0.1-0.6-0.2c0.3,0.9,0.6,1.7,0.8,2.5c1,2.9,2.5,5.6,2.8,8.7
		c0.2,2.9,0.5,5.8-0.3,8.7c-0.5,2-1.2,4.1-2.6,5.7c-0.6,0.7-1.6,1.1-2.3,1.5c0.9,1.2,1.7,2.4,2.6,3.6c0.2,0.2,0.5,0.3,0.8,0.4
		c0.8,0,1.6,0,2.4,0c2.1,0,4.2-0.1,6.3-0.2c1.2-0.1,2.4-0.3,3.6-0.3c0.4,0,0.9,0.3,1.1,0.7c0.1,0.2,0,0.9-0.2,1
		c-0.4,0.2-0.9,0.2-1.3,0.2c-0.6,0-1.2-0.2-1.7-0.1c-2.9,0.5-5.9,0.6-8.8,0.3c-0.4,0-0.9,0-1.3,0c0.3,2.1,0.6,4,0.8,5.9
		c0.2,1.9,0.2,3.8,0.2,5.5c1.6-0.7,3.1-1.6,4.8-2c2.5-0.6,4.4-1.9,6.1-3.7c1.4-1.4,2.8-2.8,4.3-4.3c0.4-0.4,0.9-0.9,1.4-1.3
		c1.2-1.3,2.2-2.7,3.4-4c1.1-1.2,2.4-2.3,3.5-3.6c2.4-2.8,5.4-4.7,8.7-6c2.3-0.9,3.3-0.7,4.5,1.3c0.4,0.7,0.4,1.8,0.6,2.8
		c0.3-0.1,0.8-0.2,1.2-0.4c1-0.6,1.9-0.9,3.1-0.9c1.4,0.1,3.3,1.5,3.5,2.8c0.2,1.3,0.3,2.7-0.7,3.7c-1.6,1.8-3.3,3.5-5.1,5
		c-1.5,1.3-2.9,2.5-3.9,4.2c-0.8,1.2-1.3,2.5-2,3.7c-0.6,1-1.2,1.9-1.8,2.9c0.8-0.5,1.4-1.1,2-1.6c2.8-2,5.7-3.9,7.8-6.7
		c0.8-1,1.6-2,2.4-2.9c0.7-0.8,1.3-1.5,2.1-2.2c1.2-1,2.5-0.7,3.9,0.3c1,0.7,1.3,2.2,0.8,3.5c-0.8,2-1.8,4-3.1,5.8
		c-1.1,1.5-2,3.1-3.1,4.6c-0.6,0.9-1.2,1.9-2,2.6c-2.1,1.8-4.3,3.6-6.4,5.3C101.7,151.8,100.6,152.8,99.7,154.3z M159.1,203.9
		c0,0-0.1,0.2-0.1,0.3c-0.7,1.6-1.5,3.2-2.2,4.9c-0.5,1.1-1.2,2.3-1.5,3.5c-0.3,1.2-0.4,2.5-0.5,3.8c-0.3,3.1-0.5,6.2-0.7,9.3
		c-0.1,0.9,0,1.9,0,2.8c0,2-0.2,4-0.1,5.9c0,0.5,0.3,1.3,0.7,1.4c1.3,0.4,2.6,0.6,3.9,0.8c2.2,0.2,4.3-0.1,6.4-0.8
		c0.8-0.3,1.1-0.8,1.1-1.6c-0.1-0.9-0.1-1.7-0.3-2.6c-0.6-2.7-1.2-5.5-1.9-8.2c-0.7-2.8-1.7-5.5-1.5-8.5c0-0.5-0.1-1.2-0.4-1.7
		c-0.9-1.5-1.1-3.2-1.6-4.9C160,206.8,159.5,205.4,159.1,203.9z M92,267.8c0.5-0.8,0.9-1.5,1.4-2.2c0.7-0.9,0.9-2,0.3-3
		c-0.6-0.9-1.5-1.6-2.7-1.2c-0.8,0.2-1.6,0.7-2.3,1.1c-1.9,1.2-1.8,4,0.3,4.9C89.9,267.8,91,267.7,92,267.8z M121.4,285.4
		c0-0.3,0-0.6,0-0.8c0-1.6-1-2.7-2.6-2.6c-0.7,0-1.4,0.5-2.1,0.9c-0.8,0.5-1.3,2.7-0.9,3.4c0.7,1.4,2.9,2.1,4.4,1.5
		C121.4,287.3,121.4,286.3,121.4,285.4z M102.7,271.8c-0.3,0.1-0.5,0.2-0.8,0.4c-1.1,0.6-2.2,1-2.8,2.1c-0.3,0.6-0.6,1.3-0.1,1.8
		c0.5,0.5,1.2,1,1.9,1.3c0.8,0.4,1.5,0.4,1.9-0.6c0.1-0.2,0.3-0.4,0.4-0.6c0.2-0.5,0.5-1.1,0.7-1.6
		C104.1,273.4,103.4,272.6,102.7,271.8z M91,250.7c0.2-1.2,0.5-2.4,0.5-3.5c0-1.3-0.9-1.8-2-1.3c-0.7,0.3-1.2,0.9-1.9,1.1
		c-1.1,0.4-1,1.2-0.9,2c0,0.7,0.4,1.3,1.2,1.4C88.7,250.6,89.7,250.6,91,250.7z M105.9,231c0.3,0.6,0.6,1.3,1,1.8
		c0.1,0.1,0.8-0.2,1.2-0.3c0.1,0,0.3-0.1,0.4-0.1c1.1-0.2,2.2-0.5,3.3-0.7c0.2,0,0.4-0.3,0.5-0.4c0.1-0.7-1.1-2.2-1.9-2.2
		c-1,0-2,0.1-3,0.2C106.6,229.4,106.1,230,105.9,231z M97.5,119.9c0.3,0.5,0.4,0.8,0.6,1.1c0.5,0.7,1.2,0.8,1.9,1
		c1.5,0.3,2.7-0.6,2.8-2.1c0-1-0.9-2.1-1.8-1.9c-0.9,0.2-1.8,0.5-2.6,0.9C98,119,97.8,119.5,97.5,119.9z M61.1,127.9
		c0-0.3,0-0.4,0-0.5c0.1-2.2-1-2.3-2.7-1.7c-0.5,0.2-0.7,0.4-0.9,1c-0.3,1.1,0.3,2,0.4,2.9c0.1,0.9,0.7,1.1,1.5,0.6
		C60.5,129.8,61.6,129.2,61.1,127.9z M116.3,131.4c0-1-0.9-2-1.8-1.9c-0.9,0-2.4,1.4-2.4,2.1c0,0.9,1.5,2,2.8,1.9
		C115.7,133.5,116.3,132.7,116.3,131.4z M108.1,121.1c-0.2,0-0.6,0.1-0.9,0.2c-0.8,0.3-1,1-0.5,1.7c0.7,0.9,1.7,1.5,2.8,1.8
		c0.7,0.2,1.2,0,1.3-0.8C111,122.7,109.6,121.1,108.1,121.1z M68.6,64.5c1.2-0.8,2.4-1.5,3.6-2.3c0.6-0.4,0.4-0.7-0.1-1.1
		c-1.4-1-2.9-0.5-4.5-0.6C68.3,61.8,69,62.9,68.6,64.5z M121.7,150.3c0-0.9-0.4-1.6-1-1.6c-1,0-2.3,0.6-2.3,1.1
		c0,0.9,1.1,2.3,1.8,2.3C120.7,152.2,121.7,150.9,121.7,150.3z M116.3,176c-0.7,0-1.3,0.8-1,1.3c0.4,0.8,0.8,1.6,1.3,2.3
		c0.2,0.2,0.8,0.4,1,0.3c0.2-0.2,0.4-0.7,0.3-1c-0.3-0.9-0.8-1.7-1.2-2.5C116.6,176.2,116.4,176.1,116.3,176z M63,62
		c-0.8,0.5-1.7,1-2.6,1.5c1,0.7,2,1.2,3.3,1C63.5,63.7,63.3,63,63,62z M64.8,62.8c0.9,0.2,1.3,0.1,1.2-0.5c0-0.2-0.4-0.4-0.5-0.6
		C65.3,62.1,65.1,62.4,64.8,62.8z"/>
	<path class="st0" d="M84.9,84.9c0.5-0.2,1.1-0.4,1.6-0.7c1.6-0.8,3.4-1.1,5.1-0.9c1.8,0.2,3.5,0.4,5.3,0.7c0.3,0,0.7,0.1,0.9,0.2
		c0.1,0.1,0.3,0.5,0.2,0.6c-0.8,1.4-1.6,2.7-2.4,4c-1.9,3-4.8,4.6-8.1,5.5c-2.7,0.8-5.1,0.3-7.4-1.1c-1.1-0.7-2.4-1.1-3.6-1.6
		c-1-0.4-1.1-1-0.2-1.7c0.7-0.5,1.5-0.8,2.1-1.3c1.4-1.1,2.8-2.3,4.2-3.3c0.6-0.4,1.4-0.6,2-0.9C84.8,84.6,84.9,84.7,84.9,84.9z
		 M96.3,85.6c-1.1,0.5-2,0.9-2.9,1.4c-2.7,1.7-5.5,3.1-8.6,3.9c-1.2,0.3-2.4,0.7-3.7,0.4c-0.9-0.2-1.9,0-2.8,0
		c3.1,2.3,6.3,3.4,10.2,2C92.3,91.8,94.7,89.4,96.3,85.6z M80.5,88.4c0,0.1,0.1,0.2,0.1,0.2c4-1.3,8-2.6,12.1-3.9c0-0.1,0-0.2,0-0.3
		c-0.7,0-1.4-0.1-2.1-0.1c-1.3,0-2.5,0-3.7,0.8c-0.4,0.3-0.9,0.4-1.4,0.5c-0.6,0.1-1.3-0.1-1.7,0.2C82.6,86.6,81.5,87.5,80.5,88.4z"
		/>
	<path class="st0" d="M92.7,59.3c-2,0.2-4-0.4-5.9-0.9c-0.3-0.1-0.6-0.4-0.7-0.6c-0.1-0.2,0.3-0.5,0.5-0.7c0.9-0.8,1.7-1.7,2.7-2.4
		c2.4-1.8,5.1-3.1,8.2-2.9c0.4,0,0.9,0.1,1.3,0.2c1,0.4,2,0.8,2.9,1.3c0.9,0.4,1,1.1,0.2,1.7c-1.5,1.2-2.9,2.4-4.5,3.4
		c-0.8,0.5-1.9,0.7-2.9,0.9C93.9,59.4,93.3,59.3,92.7,59.3z M95.2,53c2.1,1.1,2.1,2.7,1.2,4.6c1.9-1,3.4-2,4.5-3.7
		C99.1,53.4,97.5,52,95.2,53z M87.7,57.3c1.1,0.8,3.2,1.1,3.8,0.6c-1.1-0.6-1.7-1.4-1.3-2.7C89.3,55.8,88.5,56.5,87.7,57.3z
		 M94.2,55c-0.4-0.2-0.7-0.5-0.9-0.5c-0.3,0.1-0.5,0.4-0.8,0.6c0.2,0.2,0.5,0.7,0.6,0.6C93.5,55.7,93.8,55.4,94.2,55z"/>
	<path class="st0" d="M76.8,75.3c0.2-0.7,0.4-1.5,0.7-2.2c0.1-0.4,0.4-0.9,0.9-0.6c0.2,0.1,0.1,0.7,0.1,1c-0.1,0.6-0.4,1.2-0.5,1.8
		c-0.2,0.8,0.3,1.3,1.1,1.3c1.4,0,2.3,0.6,3.2,1.5c0.5,0.5,1.1,0.6,1.7,0.2c0.3-0.2,0.7-0.4,0.9-0.6c1-1.1,2.2-1.7,3.6-2.1
		c1-0.3,1.6-1.4,1.4-2.3c-0.1-0.4-0.6-0.8-0.8-1.2c-0.2-0.3-0.5-0.6-0.6-1c-0.1-0.1,0.3-0.6,0.4-0.6c0.3,0.1,0.7,0.3,1,0.5
		c1.8,1.5,1.5,2.9,0.4,4.8c-0.2,0.4-0.8,0.8-1.2,0.9c-1.5,0.2-2.5,1-3.6,2c-1.4,1.3-3,1.3-4.4-0.2c-0.5-0.5-1.3-0.9-2-1
		C77.4,77.3,76.9,76.9,76.8,75.3z"/>
</g>
</svg>
