<?xml version="1.0" encoding="utf-8"?>
<!-- Generator: Adobe Illustrator 19.2.1, SVG Export Plug-In . SVG Version: 6.00 Build 0)  -->
<svg version="1.1" id="Layer_1" xmlns="http://www.w3.org/2000/svg" xmlns:xlink="http://www.w3.org/1999/xlink" x="0px" y="0px"
	 viewBox="0 0 233 300" style="enable-background:new 0 0 233 300;" xml:space="preserve">
<style type="text/css">
	.st0{fill:#673AB7;}
</style>
<g id="cellphone-lady">
	<path class="st0" d="M60.7,211.8c0.3-2,0.5-4,0.8-6c0.3-1.7,0.6-3.4,1-5.1c0.7-2.9,1.5-5.7,2.2-8.5c0.7-3.3,1.4-6.6,2-9.9
		c0.4-2.1,0.5-4.3,0.8-6.5c0.3-2.7,0.7-5.4,1.1-8.1c0.2-1.7,0.3-3.4,0.6-5.1c0.4-2.1,0.8-4.3,1.3-6.4c1.2-4.6,2.6-9.2,3.9-13.9
		c0.4-1.4,0.8-2.9,1.4-4.2c0.6-1.4,1.4-2.7,2.2-3.9c0.5-0.8,1.4-1.3,2.1-1.9c2.2-2,5.1-2.8,7.7-4c0.8-0.4,1.7-0.4,2.4-0.7
		c2.1-0.9,4.1-1.9,6.2-2.7c1.7-0.7,3.5-1.2,5.3-1.9c2.7-1,5.5-2,7.8-3.7c0.8-0.5,1.2-1.6,1.7-2.5c1-2.1,2.5-3.9,4-5.8
		c-0.6-0.9-1.3-1.8-1.9-2.7c-1.1-1.5-2.1-3.1-3.3-4.6c-1.9-2.5-3.9-5-5.9-7.4c-2.9-3.3-5.2-7-6.9-11c-1.3-3.1-2-6.4-2.7-9.7
		c-0.4-1.8-0.8-3.7-1.4-5.5c-0.3-0.9-0.9-1.7-1.5-2.5c-1.1-1.4-2.3-2.6-3.4-3.9c-0.7-0.9-1-2-1-3.2c0.1-2.7-0.3-5.4-0.5-8.1
		c-0.1-1.6-1-2.9-1.2-4.4c-0.3-2.3-0.7-4.5-0.6-6.9c0.1-3.5,1-6.9,1.7-10.3c0.2-0.9,0.2-1.9,0.4-2.8c0.5-2,1.3-3.9,2.3-5.7
		c0.8-1.2,1.3-2.7,2.2-3.8c1.2-1.5,2.6-2.8,4-4.1c1-1.1,2.1-2.2,3.2-3.2c1.2-1.1,2.5-2.3,3.9-3.2c1.8-1.3,3.6-2.6,5.5-3.5
		c2-1,4.1-1.7,6.2-2.3c2.1-0.6,4.2-1,6.3-1.4c1.4-0.3,2.9-0.4,4.3-0.5c3.7-0.2,7.4-0.5,11-0.3c4.7,0.3,9.2,1.4,12.8,4.9
		c1.5,1.4,3.3,2.6,4.8,4c0.9,0.8,1.6,1.7,2.4,2.6c1,1.3,2.1,2.5,3.1,3.8c1.1,1.5,2.1,3.1,3.1,4.6c0.7,1,1.3,2,1.9,3
		c0.4,0.6,0.7,1.3,1,1.9c0.7,1.7,1.5,3.5,2.2,5.2c0.5,1.2,0.7,2.5,1.1,3.8c0.6,2,1.3,4,1.9,6c0.4,1.5,0.7,3.1,0.9,4.6
		c0.2,1.9,0.2,3.7,0.3,5.6c0.1,1.7,0.2,3.5,0.3,5.2c0.1,2,0.1,4,0.2,5.9c0.1,2.9,0.2,5.8,0.7,8.7c0.3,2,0.6,3.9,1.2,5.8
		c0.5,1.4,1.2,2.8,1.7,4.2c1.1,3.2,2.2,6.5,3.4,9.8c1,2.8,2,5.6,3.7,8c0.6,0.9,1.1,1.9,1.5,2.9c0.4,1,1.1,1.6,1.7,2.4
		c1.2,1.4,2.2,3,3.4,4.4c1.1,1.4,2.3,2.8,3.4,4.2c0.7,0.9,1.6,1.8,2,2.8c0.5,1.2,0.2,2.5-0.2,3.8c0,0.1-0.1,0.2-0.1,0.4
		c1.4,0.7,2.9,1.2,4.3,2c2.6,1.4,5.2,2.8,7.7,4.3c1.5,0.9,2.8,2,4.3,2.8c1.3,0.7,2.7,1.3,4.1,1.9c2.9,1.2,5.6,2.8,7.9,4.8
		c1.3,1.1,2.7,2.1,4,3.2c2,1.9,3.5,4.2,4.3,6.9c0.4,1.2,0.8,2.3,1.1,3.5c0.2,1,0.3,2.1,0.4,3.1c0.2,1.4,0.3,2.9,0.5,4.3
		c0,0.2,0.1,0.4,0.1,0.6c0.1,3.2,0.1,6.3,0.2,9.5c0,1.3,0.2,2.6,0.1,3.9c-0.1,1.5-0.3,3-0.4,4.5c-0.1,0.9-0.1,1.7-0.2,2.6
		c-0.1,1.2,0,2.5-0.2,3.7c-0.2,2.1-0.5,4.3-0.8,6.4c-0.3,2-0.7,3.9-1,5.8c-0.5,2.8-0.9,5.7-1.4,8.5c-0.6,2.8-1.3,5.6-1.9,8.4
		c-0.7,3.2-1.4,6.4-2.3,9.6c-1.1,4.2-2.3,8.3-3.6,12.4c-0.7,2.3-1.7,4.5-2.5,6.7c-0.3,0.9-0.5,1.8-0.8,2.7c-0.6,1.6-1.2,3.3-1.9,4.9
		c-0.8,1.9-1.5,3.9-2.3,5.8c-0.6,1.4-1.3,2.8-1.9,4.3c-0.7,1.9-1.4,3.8-2.1,5.6c-1.1,2.7-2.2,5.5-3.3,8.2c-1.5,3.8-3,7.5-4.5,11.3
		c-0.2,0.4-0.2,1-0.2,1.4c0.4,2.5,0.7,5.1,1.6,7.5c1.2,3.3,2.3,6.6,3.4,9.9c0,0.1,0,0.2,0,0.3c-0.5,0-1,0-1.5,0
		c-1.5-5.2-4.1-10-4.7-15.6c-0.1,0.2-0.2,0.3-0.3,0.4c-0.8,2.2-1.5,4.5-2.5,6.7c-1.1,2.6-2.5,5.1-3.8,7.6c-0.4,0.7-0.9,1.1-1.7,0.9
		c-0.2,0-0.4,0-0.7,0c0.1-0.2,0.1-0.4,0.2-0.5c2.3-3.1,3.8-6.5,5.2-10.1c1.1-2.8,2-5.7,3.1-8.5c1.1-2.7,2.2-5.4,3.3-8.2
		c1.4-3.4,2.8-6.7,4.1-10.1c1.3-3.2,2.6-6.5,3.8-9.7c0.8-2.1,1.6-4.3,2.5-6.4c0.4-1,1-2,1.4-3c0.9-2.5,1.7-5.1,2.8-7.5
		c1.4-3.4,2.2-7,3.3-10.5c1.2-4,2.4-8.1,3.5-12.2c0.7-2.8,1.3-5.5,1.9-8.3c0.6-3.1,1.3-6.3,1.8-9.4c0.4-2.4,0.7-4.9,1.1-7.4
		c0.2-1.1,0.5-2.2,0.6-3.3c0.2-1.6,0.5-3.1,0.6-4.7c0.2-3.2,0.4-6.4,0.5-9.6c0.1-1.8,0-3.6,0-5.4c0-2,0.1-4,0-6
		c-0.1-2.2,0-4.4-0.5-6.6c-0.3-1.5-0.2-3-0.5-4.5c-0.7-2.8-1.7-5.5-3.5-7.9c-1.9-2.5-4.6-4.1-7-6.1c-2.4-1.9-5.2-2.9-8-4.1
		c-0.8-0.3-1.5-0.7-2.2-1.1c-3.8-2.3-7.6-4.7-11.5-6.9c-1.5-0.9-3.1-1.4-4.8-2.2c-0.5,1.3-1,2.5-1.4,3.8c-1.5,4-2.9,7.9-4.4,11.9
		c-0.1,0.3-0.2,0.7-0.2,1c0,0.8-0.3,1.1-1.1,1.3c-3.2,0.6-6.4,1.3-9.6,2c-1.3,0.3-2.7,0.4-3.8,1c-1.5,0.7-3.1,0.7-4.8,1
		c1.2,1.3,2.3,2.6,3.5,3.8c1.1,1.2,2.3,2.3,3.5,3.4c0.5,0.5,1.1,1,1.6,1.6c0.7,0.7,0.7,1.2,0.1,2c-2.1,3.1-4.6,5.7-7,8.5
		c-1,1.2-2.1,2.4-3.3,3.4c-2.3,2.1-3.8,4.7-5.6,7.1c-2.2,2.9-4.5,5.9-6.8,8.8c-2.5,3.2-5.2,6.2-7.7,9.4c-1.6,2.1-3.5,4-5.1,6.1
		c-1.4,1.8-3.2,3.3-4.2,5.4c-0.2,0.4-0.5,0.6-0.8,0.9c-1.1,1.2-2.2,2.4-3.4,3.6c-2.1,2-4.4,3.9-6.5,5.9c-0.8,0.8-1.5,1.7-2.3,2.5
		c-0.9,1-1.8,1.9-2.7,2.9c-1.7,1.9-3.3,3.7-5,5.6c-1.2,1.4-2.4,2.9-3.6,4.4c-1.1,1.3-2.1,2.7-3.2,4.1c-0.3,0.3-0.5,0.7-0.8,1
		c-0.7,0.6-0.7,1.4-0.8,2.2c-0.1,1.3-0.3,2.6-0.4,4c0,0.7,0.1,1.5,0.2,2.3c0,0.1,0.3,0.3,0.4,0.3c1.3,0.4,2.7,0.7,4,1.1
		c1.3,0.5,2.5,1.1,3.8,1.6c1.2,0.5,2.3,1.1,3.5,1.5c3.2,1.2,6.3,2.7,9.2,4.7c2.4,1.7,5.4,2.5,8.3,3.1c1.8,0.4,3.5,1.1,5.2,1.7
		c3.2,1.2,6.4,2.5,9.6,3.6c1.4,0.5,2.9,0.5,4.4,0.6c2.2,0.2,4.5,0.3,6.5,1.2c0.8,0.4,0.8,0.2,0.9-0.6c0.3-2.4,0.7-4.7,1.1-7
		c0.2-1.4,0.3-2.8,0.7-4.2c0.9-3.1,2.1-6.1,4.1-8.7c0.6-0.8,1-1.7,1.4-2.7c0.5-1,0.9-2.1,1.4-3.2c0.2-0.3,0.6-0.6,0.8-0.9
		c0.4-0.6,0.7-1.3,0.9-2c0.3-1.2,0.3-2.5,0.6-3.6c0.4-1.7,1.1-3.4,1.6-5.2c0.7-2.7,1.3-5.3,2-8c0.6-2.4,1.3-4.8,2-7.2
		c1-3.5,2.1-7,2.6-10.7c0.3-2.7,0.9-5.3,1.6-7.8c0.3-1.2,0.3-2.4,0.4-3.7c0.2-1.8,0.3-3.7,0.5-5.5c0.1-1.1,0.7-1.5,1.5-1.1
		c0.7,0.3,0.7,0.7,0.3,1.3c-0.2,0.2-0.4,0.6-0.4,0.9c-0.2,2-0.6,4-0.6,6c0,2.7-1.2,5.2-1.5,7.8c-0.2,1.3-0.2,2.7-0.5,4
		c-0.9,3.6-1.9,7.1-2.9,10.7c-0.6,2.4-1.2,4.7-1.8,7.1c-0.5,2-0.9,4-1.4,6c-0.2,0.9-0.6,1.8-0.9,2.7c-0.8,2-0.9,4.1-1.4,6.1
		c-0.3,1.1-0.7,2.2-1,3.4c0,0.1,0,0.2-0.1,0.2c-1.5,1-1.7,2.8-2.5,4.2c-0.7,1.3-1.5,2.5-2.2,3.8c-0.4,0.7-0.8,1.3-1.1,2
		c-0.6,1.5-1.3,2.9-1.7,4.5c-0.5,1.8-0.7,3.6-0.9,5.4c-0.3,2-0.6,3.9-0.9,5.9c0,0.2,0.2,0.5,0.4,0.6c3.2,0.8,6,2.2,8.5,4.3
		c1.1,0.9,2.1,2.1,3.1,3.2c1,1.1,2.1,2.2,3.1,3.3c1.4,1.6,3,3.2,4.2,5c2.1,3.2,4,6.5,5.9,9.8c0.1,0.2,0.4,0.4,0.5,0.7
		c0.1,0.4,0.3,0.8,0.2,1.2c0,0.2-0.5,0.5-0.7,0.4c-0.3-0.1-0.7-0.3-0.9-0.6c-1.6-2.7-3-5.4-4.6-8c-1.7-3-3.9-5.6-6.4-8
		c-1.8-1.7-3.3-3.7-5-5.5c-0.3-0.4-0.8-0.6-1.2-0.9c-2.1-1.6-4.4-2.7-6.9-3.4c-0.1,0-0.3-0.1-0.4,0c-1.1,0.6-2.1,0-3-0.4
		c-1.5-0.7-3.1-0.8-4.7-1c-2.3-0.3-4.6-0.3-6.8-1c-3.2-1-6.2-2.4-9.3-3.6c-1.9-0.7-3.8-1.3-5.8-1.7c-3.2-0.7-6.2-1.9-8.9-3.9
		c-2-1.5-4.2-2.4-6.4-3.3c-1.9-0.8-3.7-1.7-5.5-2.5c-2-0.8-4-1.4-6-2.1c-2.3-0.7-4.5-1.6-6.6-2.8c-1.2-0.7-2.5-1-3.7-1.5
		c-0.6-0.2-1.1-0.4-1.7-0.6c0,0.3,0,0.5,0,0.8c0.2,1.8-0.3,3.5-0.8,5.2c-0.5,1.8-0.7,3.7-1.1,5.5c-0.5,2.1-1.1,4.1-1.7,6.1
		c-0.4,1.6-0.9,3.1-1.2,4.7c-0.2,1.1-0.2,2.2-0.4,3.3c-0.4,3.2-1,6.3-2.4,9.2c-1,2.1-1.8,4.3-2.9,6.3c-1.4,2.6-3.1,5.1-4.7,7.6
		c-0.2,0.3-0.3,0.6-0.6,1.1c0.9,0.1,1.6,0.2,2.4,0.3c2.8,0.2,5.5,0.4,8.3,0.6c1.7,0.1,3.4,0.2,5.1,0.1c0.4,0,0.8-0.6,1.2-0.9
		c1-0.8,2-1.7,3-2.5c0.3-0.2,0.9-0.3,1.3-0.3c0.1,0,0.3,0.5,0.3,0.8c0,0.2-0.2,0.4-0.4,0.6c-0.7,0.5-1.3,0.9-2,1.3
		c-0.3,0.2-0.6,0.5-1,0.9c0.9,0.1,1.8,0.2,2.6,0.2c1.1,0.1,2.2,0.4,3.4,0.4c0.6,0,1.1-0.5,1.6-0.9c0.5-0.4,1-0.8,1.5-1.2
		c0.4-0.3,0.9-0.4,1.2,0c0.3,0.5,0.1,0.9-0.3,1.3c-0.5,0.4-1.1,0.8-1.8,1.4c1.6,0.6,3,1.2,4.4,1.8c0.1,0,0.3,0,0.4-0.1
		c0.9-0.9,1.8-1.9,2.8-2.7c0.3-0.2,0.7-0.3,1.1-0.3c0.2,0,0.6,0.3,0.6,0.5c0,0.3-0.2,0.7-0.4,0.9c-0.8,0.7-1.6,1.4-2.4,2.2
		c1,0.2,2,0.5,3,0.6c2.9,0.3,5.7,1.1,8.5,1.9c1.6,0.5,3.1,1.1,4.5,1.9c0.6,0.3,1.2,0.9,1.8,1.2c1.7,0.7,3.4,1.2,5.1,1.9
		c0.3,0.1,0.5,0.3,1,0.5c-2.8,0.4-5.2,0.1-7.4-1.4c-1.1-0.8-2.2-1.5-3.5-2.1c-1-0.5-2.2-0.7-3.3-1c-2.1-0.6-4.2-1.3-6.4-1.4
		c-0.4,0-0.8-0.1-1.2-0.2c-1.7-0.4-3.3-0.8-5-1.2c-0.1,0-0.2,0-0.5,0c0.3,2.4,0.6,4.8,0.9,7.3c-14.5,0-29,0-43.6,0
		c0.2-1.3,0.5-2.5,0.7-3.8c0.3-2.1,0.6-4.1,1-6.2c0.4-2.3,0.9-4.5,1.4-6.8c0.7-3.2,1.4-6.4,2.3-9.6c0.7-2.5,1.7-4.8,2.6-7.3
		c0.5-1.5,1-3,1.5-4.5c0.5-1.6,1.1-3.2,1.7-4.9c-1.8-1.2-3.8-1.8-5.8-2.2c-1.9-0.3-3.8-0.6-5.7-0.9c-0.9-0.1-1.8-0.1-2.7,0
		c-0.2,0-0.4,0.5-0.4,0.7c0.1,1.2,0.2,2.4,0.3,3.5c0,0.3,0.1,0.6,0.1,1c0.1,5.1,0.2,10.3,0.3,15.4c0,1.6,0.2,3.3,0.1,4.9
		c-0.2,2.7-0.6,5.3-0.9,8c-0.2,2.1-0.5,4.2-0.8,6.3c-0.2,1.8-0.3,3.7-0.5,5.5c0,0.2-0.1,0.5-0.2,0.8c-0.5,0-0.9,0-1.4,0
		c0.1-0.4,0.2-0.8,0.2-1.2c0.1-0.9-0.6-1.1-1.2-1.4c-2.3-1.1-4.6-2.1-6.9-3.3c-1.6-0.8-3.1-1.9-4.6-2.9c-1.4-0.9-2.8-1.7-4.2-2.5
		c-1.9-1.1-3.3-2.8-4.9-4.3c-1-1-1.9-2-3-2.9c-1.4-1.1-3-1.9-4.3-3c-1.4-1.1-2.6-2.3-3.8-3.6c-1.7-1.8-2.7-4.1-3.8-6.3
		c-0.7-1.3-0.7-2.8-0.4-4.3c0.7-4.8,2.9-9.1,5.1-13.4c0.1-0.3,0.3-0.5,0.5-0.8c0.6-0.9,0.6-1.3-0.2-2c-2-1.7-4.2-3.3-6.5-4.5
		c-1.9-1-3.7-2.4-5.4-3.8c-0.8-0.7-1.4-1.7-1.9-2.7c-0.3-0.5-0.2-1.2-0.2-1.8c0-0.7-0.1-1.3-0.8-1.7c-1.5-1-1.4-2.4-1-4.1
		c0.2-0.8,0.4-1.4,0.1-2.2c-0.2-0.4,0-1,0-1.5c0.1-0.4,0.2-0.7-0.5-0.8c-1.3-0.1-2.7-0.3-4-0.6c-1.8-0.4-3.7-0.6-4.7-2.5
		c-0.3-0.5-0.4-1.3-0.3-1.9c0.3-1.4,1-2.6,2.4-3.2c1.4-0.7,2.9-0.6,4.4-0.6c1.2,0,1.2,0,1.2-1.2c0-2.2,0-2.2,1.1-4.5
		c-1-0.7-1.9-1.4-3-2.1c-2.9-1.8-5.2-4.3-7.3-7c-1.4-1.9-2.5-3.9-3.1-6.1c-0.3-1.1-0.3-2.3,0.2-3.4c0.3-0.8,1-1.1,1.8-1.2
		c2-0.2,3.7,0.5,5.2,1.7c0.2,0.1,0.5,0.2,0.7,0.2c2.9,0.1,5.7,0.6,8.5,1.3c1.9,0.5,3.9,1,5.6,1.9c2,1.2,3.9,2.6,5.3,4.6
		c0.2,0.3,0.6,0.6,1,0.8c2,1.2,4,2.5,6.1,3.6c1.2,0.7,2.5,1.1,3.8,1.7c0.2-1.8-0.4-3.2-1.1-4.5c-0.4-0.8-0.4-1.6,0.1-2.4
		c0.2-0.3,0.4-0.5,0.6-0.7c2.2-1.2,4.5-1.6,7-1c1.9,0.5,2.9,1.9,3.5,3.6c0.6,1.6,1,3.3,1,5.1c0,1,0.2,2,0.3,3c0,0.2,0.3,0.4,0.4,0.5
		c1.7,0.2,3.5,0.4,5.2,0.6c1.1,0.1,2.3,0.3,3.4,0.5C59.4,211.6,60.1,211.7,60.7,211.8z M95.4,72.8c0.2,0.8,0.3,1.6,0.5,2.3
		c0.6,2.6,1.1,5.3,2,7.9c1.5,4.4,3.8,8.4,7,11.9c0.6,0.6,1.2,1.3,1.7,1.9c1.2,1.5,2.3,3.1,3.5,4.6c0.7,0.9,1.5,1.7,2.2,2.7
		c1.5,2,2.8,4.1,4.3,6.1c0.3,0.4,0.7,0.7,1.1,1c2.2,1.7,4.7,0.9,7.1,0.6c0,0,0.1,0,0.1,0c1.6-0.8,3.2-1.7,4.9-2.5
		c1.3-0.7,2.7-1.2,3.9-2c2.2-1.4,4.4-2.9,6.5-4.4c2.3-1.7,4.6-3.3,6.6-5.4c1.4-1.6,2.7-3.3,4.1-4.9c1.1-1.3,2.1-2.8,2.6-4.4
		c0.3-1,0.3-2,0.6-3c0.7-2.1,0.4-4.3,0.4-6.5c0-1.1-0.2-2.3-0.3-3.4c0-0.2,0.2-0.7,0.4-0.7c0.3,0,0.7,0.2,0.8,0.4
		c0.3,0.6,0.6,1.3,0.6,2c0,2.8,0.1,5.6-0.5,8.4c-0.4,1.5-0.5,3.1-1.1,4.6c-0.5,1.1-1.1,2.2-1.9,3.1c-0.9,1.1-2,2-2.8,3.2
		c-1.2,1.9-2.9,3.4-4.6,4.7c-2.7,2.2-5.5,4.4-8.5,6.2c-3.7,2.2-7.6,4.1-11.4,6.1c-0.3,0.2-0.6,0.3-0.5,0.8c0.1,1.2,0.1,2.5,0.1,3.7
		c0,1.6-0.1,3.1-0.2,4.7c-0.1,1.2-0.6,2.2-1.1,3.3c-0.6,1.1-1.1,2.2-1.4,3.4c-0.3,1.2-0.3,2.4-0.5,3.6c-0.2,1.1,0,1.6,1.1,1.6
		c2.1,0.1,4.2,0,6.2,0c0.6,0,1.2,0.4,1.2,0.8c0,0.6-0.5,0.8-1,0.9c-0.1,0-0.3,0-0.4,0c-2.3,0-4.6,0-6.8,0c0.3,0.8,0.6,1.8,0.9,2.8
		c0.6,1.8,0.4,3.5-0.4,5.2c-0.8,1.8-1.6,3.5-1.6,5.5c0,3.2,0.1,6.5,0,9.7c0,1-0.3,2-0.7,2.9c-0.7,1.8-2,3.3-3.4,4.6
		c-1.7,1.8-3.4,3.7-5.1,5.4c-1.3,1.4-2.6,2.7-2.8,4.8c-0.1,1.1-0.2,2.2,0,3.2c0.3,1.6,0.9,3.1,1.4,4.6c0.1,0.2,0.2,0.3,0.4,0.5
		c0.5-0.7,1-1.3,1.4-1.9c1.4-1.9,3-3.8,4-6.1c0.7-1.5,1.2-3,2-4.4c1.4-2.5,2.8-5,4.4-7.4c1.3-2,2.8-3.9,4.1-5.9
		c1.2-1.8,2.2-3.8,3.2-5.7c1.5-2.9,3.2-5.7,5.1-8.3c1.2-1.6,2.2-3.4,3.3-5.1c0.4-0.6,0.8-1.3,1.2-2c0.2-0.3,0.4-0.7,0.3-1.1
		c-0.2-1.6-0.3-3.2-0.7-4.8c-0.4-1.9-1.2-3.8-1.4-5.7c-0.2-1.6-0.8-3.4,1.2-4.5c1.3-0.7,2.3-1.9,3.5-2.9c0.9-0.8,1.7-1.6,2.6-2.4
		c1.7-1.4,3.5-2.8,5.1-4.2c1.1-1,2.2-2,3.6-2.6c0.7-0.3,1.5-0.7,1.9-1.2c1.3-1.9,3.2-3.2,4.9-4.6c1.3-1.1,2.7-1.9,4.1-2.9
		c0.4-0.3,0.8-1.6,0.6-2.1c-0.4-1-0.8-2-1.1-3c-0.4-1.5-0.4-3.1-0.8-4.6c-0.8-3.1-1.7-6.2-2.1-9.4c-0.2-1.6-0.6-3.1-0.9-4.6
		c-0.3-2-0.6-4-0.8-5.8c-0.9,0.1-1.8,0.3-2.6,0.2c-0.8-0.1-1.6-0.4-2.2-0.8c-1.5-1.3-1.6-3-1.3-4.8c0.1-0.8,0.2-1.5-0.5-2.1
		c-0.6-0.5-0.9-1.6-0.3-2.4c0.3-0.5,0.6-0.9,0.9-1.4c0.8-1.2,0.6-2.5-0.5-3.4c-0.2-0.2-0.4-0.4-0.6-0.7c-0.1-0.2-0.1-0.5,0-0.6
		c0.1-0.1,0.5-0.2,0.6-0.1c0.5,0.5,1,1,1.3,1.7c0.5,1.1,0.6,2.3-0.1,3.4c-0.3,0.5-0.7,1-0.9,1.5c-0.1,0.3-0.2,0.8,0,1.2
		c0.1,0.2,0.6,0.4,0.9,0.5c0.7,0.2,1.1-0.4,1.5-0.8c1.1-0.9,2.2-1.3,3.4-0.5c0.8,0.5,1.5,0.4,2.2-0.2c2.1-2.1,2.7-4.8,2.7-7.6
		c0-1.1-0.2-2.2-0.5-3.3c-0.6-2.4-2.4-3.6-5-3c-0.4,0.1-0.8,0.3-1.1,0.5c-1,0.6-1.8,1.4-2.2,2.6c-0.1,0.2-0.4,0.2-0.6,0.4
		c-0.1-0.2-0.2-0.5-0.2-0.7c0.8-2,2.2-3.3,4.4-3.7c2.6-0.5,4.7,1,5.4,3.3c0.5,1.8,0.6,3.6,0.5,5.5c-0.1,1.5-0.2,3-1.1,4.2
		c-0.6,0.9-1.2,1.8-1.8,2.6c-0.7,0.8-2.4,0.9-3.2,0.3c-0.5-0.4-1-0.5-1.5-0.2c-0.6,0.4-1.1,1-1.8,1.3c-0.7,0.3-1.1,0.6-1.2,1.5
		c-0.1,1.5-0.3,2.9,0.7,4.2c0.7,0.9,2.5,1.4,3.5,1c1.4-0.6,2.2-1.8,3-2.9c1.9-2.6,3.7-5.3,4.2-8.7c0.2-1.5,0.7-3,0.8-4.6
		c0.2-2.7-0.4-5.3-2.2-7.5c-1.8-2.2-3-2.7-5.8-1.8c-1.9,0.6-3.2,2-4.3,3.5c-0.5,0.7-0.8,1.5-1.3,2.2c-0.5,0.7-1.1,1.3-1.6,2
		c-1.2,1.7-3.3,2-4.8,0.9c-0.9-0.6-1.5-1.7-2.1-2.6c-1.1-1.9-3-2.8-4.9-3.4c-1.4-0.5-2.9-0.7-4.3-1.1c-1-0.3-2-0.8-3-1.2
		c-2.2-1-4.4-2-6.6-3c-1.3-0.6-2.5-1.5-3.8-2c-3.4-1.2-6.8-2.3-10.2-3.4c-2.1-0.6-4.2-0.9-6.3-1.4c-1.4-0.3-2.9-0.9-4.3-0.9
		c-2.7,0-5.5,0.2-8.2,0.4c-0.7,0-1.5,0.1-1.9,0.4c-1,0.8-2,1.7-2.2,3.1c-0.1,0.5,0,1.1-0.2,1.6c-0.7,1.9-0.6,3.9-0.7,5.8
		c-0.1,1.7,0.4,3.5,0.6,5.2c0.2,2.4,0.4,4.8,0.6,7.1c0,0.3,0,0.5,0,0.8c2.5-1.4,5-0.8,7.1-0.2c0.3,0.1,0.6,0.4,0.6,0.7
		c0,0.2-0.2,0.6-0.5,0.8c-0.4,0.2-0.8,0.3-1.3,0.4c-1.6,0.1-3.3,0-4.8,0.6c-0.6,0.2-0.7,0.4-0.3,0.9c0.8,0.9,1.7,1.8,2.5,2.8
		c1,1.1,2,2.2,2.5,3.6c0.2,0.7,0.6,0.7,1.2,0.4c1.4-0.6,2.8-1.1,4.2-1.6c0.9-0.3,1.9-0.4,2.9-0.5c-0.2-0.9-0.4-1.7-0.7-2.5
		c-0.1-0.3-0.5-0.7-0.8-0.8c-0.3-0.1-0.6-0.2-0.4-0.6c0.1-0.2,0.7-0.4,0.8-0.3c0.5,0.4,1.1,0.9,1.4,1.5c0.8,1.9,0.6,3.9,0.5,6
		c-0.1,1.8-0.3,3.7-0.2,5.5c0.2,2,0.3,4-0.3,6c-0.4,1.3-0.3,2.4,1.3,3c0.5,0.2,1.1,0.5,1.5,0.8c1.3,1,2.5,0.8,3.2-0.7
		c0.7-1.3,1.7-2.3,3.1-2.6c1-0.3,2-0.3,3-0.5c1.5-0.2,2-0.7,1.7-2.1c-0.3-1.4-0.9-2.6-2.4-3.2c-0.2-0.1-0.2-0.4-0.4-0.6
		c0.2-0.1,0.4-0.3,0.6-0.3c0.2,0,0.4,0.1,0.6,0.2c1.7,1,2.3,2.6,2.6,4.4c0.2,0.9-0.3,1.6-1.1,1.9c-0.8,0.3-1.7,0.6-2.6,0.7
		c-2,0.2-3.7,0.8-4.6,2.8c-0.7,1.4-2.7,1.8-3.9,1c-0.6-0.4-1.1-0.8-1.8-1.1c-1.8-0.7-2.2-2.2-1.7-3.9c0.4-1.5,0.5-3,0.5-4.5
		c-0.1-2.3-0.1-4.6-0.1-6.9c0-0.5,0.1-0.9,0.2-1.4c-0.4,0.3-0.7,0.6-1,0.9c-0.6,0.7-1,1.5-1.8,2C98.5,73.2,97,73.5,95.4,72.8z
		 M89.9,142.4c0-0.1-0.1-0.1-0.1-0.2c-0.6,0.1-1.2,0.1-1.8,0.2c-3.5,0.8-7,1.6-10.5,2.4c-1.1,0.2-1.2,0.5-1.4,1.6
		c-0.2,1.3-0.4,2.6-0.8,3.9c-1.2,4-2.7,7.8-3.4,11.9c-0.5,3-1.6,6-2.2,9c-0.6,2.8-0.9,5.6-1.4,8.4c-0.3,1.9-0.5,3.9-0.9,5.8
		c-0.5,2.2-0.5,4.5-1.3,6.8c-0.8,2.5-1.4,5.1-2,7.7c-0.5,2.1-0.9,4.3-1.2,6.4c-0.3,1.7-0.4,3.4-0.6,5.2c-0.1,0.6,0.2,0.8,0.7,1
		c0.7,0.2,1.4,0.6,2,0.9c2.7,1.5,4.7,3.8,6.6,6.2c1.2,1.5,2.6,3,3.9,4.4c0.6,0.7,1.5,1.2,2.1,2c1.8,2.2,4,3.8,6.5,5.2
		c0.4,0.2,0.8,0.3,0.8-0.4c0-0.3,0.1-0.5,0.1-0.8c0.1-0.9,0.2-1.7,0.3-2.6c0.2-1.4,0.3-2.9,0.5-4.3c0.2-1.4,0.3-2.9,0.6-4.3
		c0.3-1.6,0.7-3.2,1-4.8c0.4-1.9,0.7-3.8,1.1-5.7c0.3-1.3,0.6-2.5,0.9-3.8c0.4-1.6,0.7-3.2,1.2-4.8c0.3-1.2,0.8-2.5,1.1-3.7
		c0.5-1.7,0.7-3.5,1.5-5.1c0.5-1,1-2,1.3-3c1.6-4.4,3.2-8.8,4.8-13.2c0.8-2.1,1.3-4.2,2.3-6.2c1.3-2.7,2.4-5.6,3.5-8.4
		c1-2.7,1.9-5.4,2.9-8.1c0.1-0.2,0.2-0.5,0.3-0.7c0.7-1.5,1.4-3,2-4.5c0.5-1.3,0.9-2.6,1.4-4c0.4-1.2,0.9-2.5,1.3-3.6
		c-1.9-1.4-3.7-2.7-5.4-3.9c-0.8,0.7-1.6,1.4-2.4,2.1c-0.5,0.5-1,1-1.6,1.4c-0.8,0.6-1.7,1.1-2.4,1.7c-1.6,1.5-3.6,2.3-5.6,3.2
		c-1.6,0.8-3.5,0.5-5.2,0.7c-0.4,0-0.9-0.4-1.2-0.7c-0.1-0.1,0.3-0.7,0.5-1C89.6,142.5,89.8,142.4,89.9,142.4z M19.4,204.5
		c0.6,0.5,1.3,1.1,2,1.7c1.2,0.9,2.5,1.8,3.7,2.7c0.9,0.6,1.9,1,2.9,1.5c3.3,1.8,6,4.4,8.9,6.8c1.3,1.1,2.7,2.1,4.5,1.5
		c0.3-0.1,0.7,0,0.9,0.1c0.2,0.1,0.3,0.3,0.3,0.5c0,0.2-0.2,0.5-0.4,0.6c-0.3,0.1-0.6,0.1-0.9,0.2c-1.6,0.1-3.2,0.2-4.8,0.3
		c-1.9,0.1-3.9,0.2-5.8,0.1c-1.9-0.1-3.9-0.4-5.8-0.6c-1.4-0.2-2.8-0.4-4.2-0.6c-2.1-0.4-4.3-0.7-6.3-1.3c-1.7-0.5-3.5-0.6-5.2-0.6
		c-0.2,0-0.3,0.1-0.5,0.1c1.2,0.6,2.1,1.4,2.6,2.5c0.6,1.2,0.1,2.4-0.5,3.5c0.4,0.1,0.7,0.1,1,0.2c1.4,0.4,3,0.2,4.3,1.4
		c0.6,0.6,1.7,0.7,2.5,1c1.4,0.5,2.7,0.9,4.1,1.4c0-0.1,0.1-0.4,0.1-0.7c0-0.7,0-1.4,0-2.1c0-0.3,0.3-0.5,0.5-0.8
		c0.2,0.2,0.5,0.4,0.7,0.6c0.1,0.1,0.1,0.4,0.1,0.6c0,0.9,0,1.8,0,2.7c0.5,0.1,1,0.2,1.6,0.3c2.1,0.3,4.2,0.6,6.3,0.8
		c0.9,0.1,1.9,0.2,2.8,0.3c1.7,0.2,3.4,0.5,5.1,0.6c0.5,0.1,0.9,0.2,0.9,0.8c-0.1,0.6-0.6,0.5-1,0.5c-3-0.3-6-0.6-8.9-1
		c-2.6-0.3-5.2-0.8-7.8-1.2c-1.1-0.2-2.1-0.2-3.3-0.3c1.8,2.3,0.8,4.4-1.4,6.2c0.6,0.2,1.1,0.4,1.7,0.4c1.9,0.3,3.9,0.6,5.8,0.9
		c0.8,0.1,1.6,0.3,2.3,0.4c0-0.8,0-1.4,0-2.1c0-0.4,0-0.9,0.6-0.9c0.5,0,0.6,0.4,0.6,0.9c0,0.8,0,1.5,0,2.4c1.9,0.3,3.7,0.5,5.4,0.7
		c1.1,0.1,2.1,0.3,3.2,0.4c0.8,0.1,1.6,0.3,2.4,0.5c0.3,0.1,0.6,0.1,0.8,0.3c0.1,0.2,0.1,0.6,0,0.8c-0.1,0.2-0.5,0.3-0.8,0.2
		c-1.2-0.2-2.4-0.6-3.6-0.8c-0.9-0.2-1.8-0.2-2.6-0.2c0,0.1,0,0.1-0.1,0.2c1.2,1.3,2.4,2.6,3.6,4c0.4,0.5,0.8,1.1,1.3,1.4
		c1.2,0.8,2.4,1.7,3.7,2.4c2.2,1,4.5,2,6.8,2.7c2.6,0.8,5.3,1.3,7.9,2c3.1,0.8,6.3,1.1,9.5,0.9c0.3,0,0.5,0,0.8,0.1
		c1.3,0.2,2.6,0.3,3.9,0.6c1.8,0.4,3.7,0.7,5.5,1.3c2.2,0.8,4.4,1.8,6.6,2.7c0.3,0.1,0.6,0.2,0.8,0.5c1.5,1.8,3.6,2.2,5.6,3.2
		c0.1-0.3,0.2-0.5,0.2-0.7c0.6-2.3,1.1-4.6,1.7-6.8c0.4-1.6,0.9-3.3,1.3-4.9c0.4-1.8,0.7-3.7,1.2-5.5c0.4-1.4,0.8-2.8,0.6-4.2
		c-0.1-0.6,0-1.1-0.8-1.4c-1.4-0.5-2.7-1-4.1-1.6c-1.9-0.9-3.8-1.8-5.6-2.7c-2.7-1.3-5.2-2.9-7.2-5.2c-0.6-0.7-1.2-1.5-1.9-2
		c-1.9-1.6-3.6-3.5-5.1-5.5c-1.3-1.7-2.7-3.3-4.4-4.6c-1.9-1.5-4-2.3-6.3-2.5c-1.4-0.1-2.8-0.4-4.2-0.5c-1.3-0.1-2.6-0.2-3.9-0.2
		c0.5,0.4,1.1,0.8,1.6,1c2.6,1.2,5.2,2.3,7.9,3.5c0.5,0.2,0.9,0.6,0.5,1.1c-0.1,0.2-0.8,0.1-1.1,0c-1.3-0.6-2.6-1.3-3.9-2
		c-1-0.5-2.1-0.8-3.1-1.3c-1.3-0.7-2.5-1.5-3.9-2.1c-1.1-0.5-2.3-0.6-3.4-1.1c-3.4-1.4-6.7-2.8-10.1-4.3c-1.3-0.5-1.5-0.5-1.8,0.9
		c0,0.1,0,0.3,0,0.4c-0.2,0.2-0.5,0.4-0.7,0.6c-0.1-0.3-0.4-0.6-0.4-0.9c0.1-0.7,0.4-1.4,0.6-2c-3.6-2.3-7.3-4.6-10.9-7
		C22.6,201.6,21.7,203.4,19.4,204.5z M158.6,129.6c-0.7,1-1.4,1.8-1.9,2.7c-1.3,2.2-2.5,4.4-3.8,6.6c-0.8,1.4-1.5,2.9-2.4,4.3
		c-1.8,2.9-3.8,5.6-5.5,8.5c-1,1.6-1.6,3.5-2.6,5.1c-1.3,2-2.5,4.1-3.5,6.3c-0.7,1.6-1.5,3.1-2.2,4.7c-0.7,1.7-1.3,3.4-2,5.1
		c-0.4,0.8-1,1.5-1.4,2.3c-1.7,3-3.4,6-5.1,9c-0.9,1.7-1.9,3.4-2.8,5.1c-1.4,2.7-2.7,5.4-4.1,8.1c-0.4,0.7-0.9,1.3-1.2,2.1
		c-0.5,1.4-0.9,2.9-1.4,4.4c-0.2,0.7-0.4,1.4-0.8,2c-1.2,1.7-1.8,3.6-2.4,5.5c-0.7,2.3-1.5,4.5-2.7,6.7c-0.6,1.2-1.2,2.5-1.6,3.9
		c-0.5,1.5-0.8,3-1.2,4.5c-0.3,1-0.6,2-1,3c0.9-0.9,1.7-1.8,2.5-2.7c1-1.2,2.2-2.3,3.1-3.6c2-3,4.6-5.5,7.1-8.1
		c0.3-0.3,0.6-0.7,0.9-1c1.7-1.8,3.4-3.7,5.3-5.4c1.9-1.8,4-3.3,5.7-5.3c0.9-1.1,1.9-2.1,2.7-3.1c1.3-1.6,2.4-3.2,3.7-4.8
		c1.6-1.9,3.4-3.7,4.9-5.7c2.7-3.7,5.8-7.1,8.7-10.6c2.2-2.7,4.3-5.4,6.3-8.3c1.8-2.6,3.6-5.1,5.9-7.2c0.7-0.6,1.3-1.2,1.9-1.9
		c2-2.3,4-4.7,6-7.1c0.7-0.8,1.3-1.7,1.9-2.5c-1.4-1.4-2.6-2.7-3.9-4c-1.8-1.8-3.6-3.7-5.4-5.5c-0.4-0.4-0.7-0.9-1-1.4
		c-0.8-1.5-1.6-3.1-2.4-4.6c-0.6-1.1-1.3-2.1-1.9-3.1C160.1,132.1,159.4,130.9,158.6,129.6z M166.6,140.6c1.4-0.3,2.8-0.5,4.2-0.8
		c1.6-0.3,3.3-0.7,4.9-1.1c2.9-0.8,5.7-1.6,8.7-1.8c0.6,0,1.2-0.3,1.4-0.9c0.4-1.2,0.9-2.3,1.4-3.5c0.6-1.8,1.1-3.6,1.7-5.3
		c0.7-2,1.6-4,2.3-6c0.5-1.4,1.2-2.7,1.6-4.1c0.2-0.6,0.2-1.5-0.1-2.1c-0.4-0.8-1-1.5-1.6-2.2c-1.3-1.6-2.7-3.2-4-4.8
		c-1-1.3-1.9-2.8-3.1-4c-0.9-0.9-1.7-1.8-2.4-2.8c-0.5-0.6-0.7-0.6-1.3-0.2c-1,0.8-2.1,1.6-3.2,2.2c-1.3,0.6-2.1,1.6-2.9,2.6
		c-1.4,1.5-2.2,3.4-3.3,5.1c-2.3,3.5-4.4,7.3-6.8,10.8c-1.5,2.2-2.9,4.4-4.4,6.6c-0.1,0.2-0.1,0.6,0,0.7c0.8,1.4,1.7,2.7,2.6,4.1
		c0.7,1.1,1.4,2.2,2,3.3C165.1,137.7,165.8,139.1,166.6,140.6z M38.8,275.3c0.6,0.2,1,0.3,1.5,0.4c2.5,0.2,4.9,0.3,7.4,0.5
		c0.9,0.1,1.7,0.1,2.5,0.7c1.6,1.2,3.3,2.4,5,3.5c1.5,1,3.1,2,4.7,2.9c0.1,0.1,0.3,0.2,0.3,0.3c0.1,0.3,0.3,0.6,0.2,0.8
		c-0.1,0.2-0.5,0.4-0.7,0.4c-0.3,0-0.7-0.1-0.9-0.2c-1.1-0.7-2.1-1.5-3.2-2.2c-2-1.4-4-2.8-6-4.2c-1-0.7-2.2-0.6-3.3-0.7
		c-2.1-0.1-4.3-0.1-6.4-0.5c-2-0.4-3.9-1.2-5.9-1.7c-1.2-0.3-2.4-0.5-3.6-0.7c0,0.1-0.1,0.2-0.1,0.2c1,0.9,1.9,1.9,2.9,2.6
		c1.4,1,2.9,1.8,4.2,2.9c1.2,0.9,2.2,2,3.3,3.1c1.2,1.2,2.4,2.5,3.7,3.5c1.6,1.2,3.3,2,5,3.1c1.9,1.1,3.7,2.4,5.6,3.4
		c2,1.1,4.1,1.9,6.1,2.9c0.1,0,0.2,0,0.4,0c0.1-1.1,0.2-2.1,0.3-3.2c0.2-2,0.5-4.1,0.8-6.1c0.3-2.3,0.7-4.7,0.7-7
		c0.1-3.8,0-7.7-0.1-11.5c0-2,0-4.1-0.1-6.1c-0.1-2.5-0.4-5.1-0.6-7.6c0-0.4-0.2-0.6-0.6-0.7c-0.5-0.1-0.9-0.2-1.4-0.3
		c-2.2-0.5-4.3-1-6.5-1.5c-0.3-0.1-0.6-0.1-0.8-0.2c-0.2,0.8-0.4,1.5-0.5,2.3c-0.3,1.5-0.6,3.1-1,4.6c-0.5,1.6-1,3.2-1.6,4.7
		c-0.6,1.5-1.2,3-1.9,4.4c-0.9,1.9-2.6,2.9-4.3,4C42.3,273.1,40.6,274.1,38.8,275.3z M41.1,272.1c0.8-0.5,1.6-0.9,2.2-1.4
		c1.4-1,3-1.9,3.7-3.6c0.5-1.2,1.1-2.3,1.5-3.5c0.7-1.9,1.5-3.8,2-5.8c0.5-1.9,0.8-4,1.2-6c0,0-0.1-0.1-0.3-0.2
		c-1.6-0.5-3.2-0.9-4.7-1.4c-2.1-0.7-4.1-1.4-5.9-2.7c-0.6-0.4-1.3-0.6-1.8-1c-1.5-1.5-2.9-3.2-4.4-4.8c-0.7-0.8-1.4-1.6-2.2-2.4
		c-1.4,0.3-2.9,0.8-4,1.9c-0.7,0.6-1.4,1.4-2.1,2c-0.2,0.2-0.6,0.2-0.9,0.2c0-0.3-0.1-0.8,0.1-1c1-1,2-1.9,3.1-2.8
		c0.6-0.5,1.5-0.8,2.3-1.2c-1.2-0.2-2.2-0.4-3.3-0.6c-1.8-0.3-3.6-0.7-5.4-1c-1.1-0.2-2.1-0.3-3.2-0.5c-0.8-0.2-1.7-0.5-2.7-0.8
		c0.2,0.8,0.3,1.4,0.6,1.9c1.4,2.2,3.5,3.5,5.6,4.9c1.1,0.7,2.3,1.1,3.4,1.8c1.8,1.2,3.6,2.3,5,4c0.1,0.1,0.2,0.1,0.3,0.1
		c2.4,0.4,4.7,0.6,7-0.2c0.5-0.2,0.8-0.1,1,0.4c0.2,0.5,0.1,0.9-0.5,1.1c-1.1,0.2-2.2,0.5-3.4,0.6c-1,0.1-1.9-0.1-3-0.1
		c0.1,0.2,0.1,0.3,0.1,0.4c0.8,1.8,1.7,3.6,2.5,5.4c0.9,2,1.8,4.1,2.8,6.1c0.8,1.7,1.3,3.5,1.7,5.3
		C39.8,268.7,40.5,270.3,41.1,272.1z M31.1,251.1c-0.1,0-0.2,0-0.3,0c-0.5,0.9-0.9,1.8-1.4,2.7c-1.7,3-2.9,6.1-3.7,9.5
		c-0.4,1.6-0.6,3.3,0.1,4.8c0.6,1.4,1.3,2.7,2.1,4c0.3,0.5,0.9,1,1.4,1c2.3,0.2,4.6,0.6,6.8,1.5c0.2,0.1,0.6,0.2,0.8,0.1
		c0.8-0.4,1.5-0.9,2.2-1.4c0.3-0.2,0.4-0.5,0.3-1c-0.3-0.8-0.6-1.6-0.8-2.5c-0.9-3.5-2.1-7-3.6-10.3c-0.4-0.9-0.9-1.9-1.3-2.8
		C32.9,254.8,32,252.9,31.1,251.1z M93.1,127.8C93,127.8,93,127.7,93.1,127.8c-0.7,0.2-1.2,0.6-1.8,0.8c-1.2,0.4-2.3,0.8-3.5,1.2
		c-0.7,0.3-1.5,0.6-2.2,0.9c-3,1.2-5.5,2.9-7.1,5.7c-0.8,1.3-1.5,2.6-2,4c-0.4,1-0.6,2.2-0.9,3.4c1-0.2,1.9-0.5,2.7-0.7
		c1.5-0.3,2.9-0.6,4.4-0.9c1.7-0.4,3.3-0.8,4.9-1.1c1.3-0.3,2.6-0.5,4-0.7c0.9-0.1,1.6-0.5,2.1-1.2c-0.4-0.6-0.9-1.1-1.2-1.8
		c-1-1.7-2.1-3.2-3.6-4.5c-0.5-0.4-0.4-0.8,0.1-1.2C90.3,130.4,91.7,129.1,93.1,127.8z M84.1,259.7c-0.1,0.2-0.2,0.5-0.3,0.8
		c-0.5,1.7-1,3.4-1.3,5.1c-0.5,2-0.9,4.1-1.2,6.1c-0.2,1.2-0.4,2.3-0.5,3.5c-0.1,2.3,0,4.6,0,6.9c0,0.6,0.2,1.3,0.4,2.1
		c1.3-2.1,2.5-3.9,3.5-5.9c1.1-2.1,2-4.4,3-6.6c0.5-1,0.9-2.1,1.2-3.2c0.4-1.8,0.6-3.6,1-5.4c0.1-0.5,0-0.7-0.4-0.9
		C87.6,261.4,85.8,260.5,84.1,259.7z M108.6,121.8c-0.1-0.1-0.1-0.1-0.2-0.2c-0.1,0-0.2,0.1-0.3,0.1c-2.6,1.1-5.1,2.2-7.7,3.2
		c-1.7,0.7-3.4,1-4.8,2.4c-1.6,1.8-3.6,3.3-5.4,4.8c1.4,2,2.9,3.9,4.2,5.8c1.8-1.5,3.6-3,5.4-4.6c1.6-1.5,3.2-3.1,4.7-4.7
		c0.4-0.4,0.8-0.8,1-1.2C106.7,125.6,107.7,123.7,108.6,121.8z M48.3,210.7c0-1.5,0.1-3,0-4.4c-0.1-1.6-0.5-3.2-1.2-4.7
		c-0.5-1-1.1-1.9-2.3-2.1c-0.9-0.2-1.9-0.1-2.8-0.2c-1.4,0-1.2-0.2-1.1,1.4c0,0.1,0,0.1,0,0.1c0.6,2.1,0,3.9-1.2,5.6
		c-0.3,0.4-0.3,0.8,0.2,0.9C42.7,208.5,45.2,210.5,48.3,210.7z M22.2,209.8c-0.4,0.1-0.6,0.1-0.8,0.1c-1.5,0.2-3.1,0.5-4.6,0.7
		c-1.3,0.1-2.3,0.6-2.8,1.9c-0.5,1.2-0.4,2.4-0.4,3.6c0,0.1,0.3,0.3,0.5,0.4c1,0.3,2.1,0.5,3.1,0.7c0.5,0.1,1.1,0.2,1.6,0.1
		c0.6-0.1,1.1-0.5,1.6-0.6c1.1-0.3,2.2-0.6,3.3-1C21.4,213.9,21.1,211.5,22.2,209.8z M6,193.2c-1.1-1-2.4-1.2-3.7-1.1
		c-0.4,0-1,0.5-1,0.8c-0.1,0.9-0.2,1.9,0,2.8c0.4,1.3,1.1,2.7,1.8,3.8c0.9,1.4,2,2.7,3.1,4.1c2.2,2.7,5.3,4.3,8.1,6.3
		c0.1,0.1,0.3,0,0.4,0c0-0.1,0-0.3-0.1-0.4c-0.2-0.2-0.4-0.4-0.5-0.5c-1.1-1-2.3-2-3.4-3c-1.3-1.2-2.4-2.4-3.7-3.5
		c-1.1-0.9-2-1.9-2.5-3.2c-0.7-1.6-0.8-3.2,0.4-4.6C5.2,194,5.7,193.6,6,193.2z M21.6,200.2c0.1-1.4-0.3-2.2-1.4-2.5
		c-0.6-0.2-1.2-0.3-1.8-0.5c-1.7-0.4-3.4,1.5-3,3.2c0.3,1.1,1.2,1.7,1.9,2.4c0.4,0.3,2,0.6,2.4,0.3
		C20.7,202.2,21.4,201.1,21.6,200.2z M145.5,140.4c0.8,0,1.2-0.5,1.1-1.1c-0.7-2.9-1.4-5.8-2.2-8.6c-0.5-1.7-1.2-3.3-2.4-4.6
		c-0.2-0.3-0.6-0.5-0.9-0.6c-0.4-0.1-0.9,0-0.9,0.5c-0.1,0.3,0.1,0.7,0.2,1c0.1,0.2,0.4,0.3,0.5,0.5c1.5,1.8,2,4.1,2.6,6.3
		c0.5,1.9,0.8,3.9,1.3,5.8C144.8,139.9,144.8,140.5,145.5,140.4z M19.3,230.9c0.1-0.7-0.3-1.4-0.9-1.7c-0.6-0.4-1.4-0.6-2-0.9
		c0,0-0.1,0-0.1,0c-0.6,0.1-0.8,0.4-1.1,1c-1.1,2.1-0.7,3.6,1.3,4.7c0.1,0.1,0.3,0,0.4,0C18.3,233.5,19.3,232.2,19.3,230.9z
		 M22.8,211.9c-0.1,1.3,0.6,2.2,1.6,2.7c1.2,0.6,3.7-0.2,4.2-1.4c0.2-0.5,0.5-1.1-0.4-1.3c-0.3-0.1-0.5-0.3-0.7-0.4
		c-1.2-0.4-2.1-1.6-3.7-0.9C23,210.9,22.7,211.2,22.8,211.9z M10.4,221.3c-0.1-0.4-0.1-0.6-0.2-0.8c-0.5-1.1-1.4-1.8-2.6-1.9
		c-0.4,0-0.9-0.6-1.3,0C6,219,5.8,219.5,5.6,220c-0.3,0.7-0.1,1.2,0.4,1.9c0.8,1.1,2,1.1,3.1,1.5c0.1,0,0.4,0,0.4-0.1
		C9.8,222.5,10.1,221.9,10.4,221.3z M14.7,197.7c-0.4-0.5-0.8-0.7-1.5-0.7c-1.2-0.1-2.4-0.3-3.7-0.4c-1.2-0.1-2.4-0.3-3.7-0.3
		c-0.3,0-0.6,0.4-0.9,0.7c0.2,0.3,0.4,0.7,0.7,0.8c0.4,0.1,0.8,0,1.2,0c1.6,0.1,3.1,0.3,4.7,0.5c0.5,0.1,1.1,0,1.6,0.2
		C14.3,198.8,14.4,198.8,14.7,197.7z M39.5,204.5c0.7-1,0.7-2.7,0.1-4.3c-0.4,0.2-0.9,0.3-1.3,0.6c-0.4,0.4-0.1,0.9,0.1,1.4
		C38.8,202.8,39.1,203.6,39.5,204.5z M96.7,70.5c-0.3,0.1-0.8,0.3-1.2,0.5c-0.1,0.1-0.4,0.2-0.3,0.3c0,0.2,0.2,0.3,0.3,0.4
		c0.7,0.7,1.6,0.6,2.4,0.5C97.4,71.7,97.1,71.1,96.7,70.5z M99.8,71.1c0.6-0.6,1.2-1.2,1.8-1.9c-0.1-0.1-0.1-0.2-0.2-0.3
		c-0.9,0.2-1.7,0.4-2.6,0.6C99.2,70.1,99.5,70.6,99.8,71.1z M15,225.9c-0.1,0.3-0.2,0.5-0.2,0.7c0,0.2,0.2,0.7,0.3,0.7
		c0.7,0,1.5-0.1,2.3-0.2C16.6,226.6,15.8,226.3,15,225.9z"/>
	<path class="st0" d="M114.9,101.2c-1.5-0.1-2.7-0.2-3.8-1.1c-0.9-0.7-1.2-1.5-1.4-2.5c-0.1-0.6-0.3-1.1-0.9-1.4
		c-1.3-0.7-2.2-2.1-1-3.8c0.5-0.6,1.4-1,2.2-0.9c0.7,0.1,1.4,0.2,2-0.4c0.9-1,2.1-1,3.3-1c2-0.1,4.1-0.2,6.1-0.1
		c1.6,0.1,3.1,0.4,4.7,0.6c0.4,0.1,0.6,0.7,0.3,0.9c-1.4,0.9-1.8,2.5-2.8,3.7c-2.1,2.6-4.5,4.7-7.6,6
		C115.7,101.1,115.2,101.1,114.9,101.2z M110.4,96.5c0.3,0.8,0.3,1.7,0.8,2.3c1,1.4,3.5,1.8,5.1,1.1c2.5-1.1,4.5-2.8,6.3-4.9
		c0.7-0.8,1.3-1.8,1.9-2.7c0-0.1-0.1-0.1-0.1-0.2c-0.9,0.3-1.9,0.7-2.8,1C117.9,94.5,114.5,96.3,110.4,96.5z M123.9,91.1
		c0-0.1,0-0.2,0-0.2c-0.9,0-1.8-0.1-2.6-0.1c-1.8,0-3.6,0-5.5,0.2c-0.9,0.1-2-0.2-2.7,0.5c-0.9,0.8-1.9,1.1-3,1c-0.1,0-0.2,0-0.3,0
		c-0.6,0.1-1.5,0.7-1.6,1.2c-0.1,0.8,0.3,1.4,0.9,1.5c1.1,0.2,2.3,0.4,3.2,0.1c3.3-1,6.6-2.3,9.9-3.5
		C122.9,91.6,123.4,91.3,123.9,91.1z"/>
	<path class="st0" d="M114.5,63.6c1.3-0.1,2.6-0.2,3.9-0.3c2.6-0.2,4.8-1.6,7.2-2.4c0.7-0.3,1.6-0.3,2.4-0.4c0.2,0,0.5,0.2,0.8,0.4
		c-0.2,0.3-0.3,0.9-0.5,0.9c-1.6,0.2-2.5,1.4-3.6,2.3c-1.9,1.5-3.9,2.4-6.3,2.5c-1.9,0-3.5-0.6-4.9-1.9c-0.4-0.3-0.4-1.5,0-2.2
		c0.5-0.8,1.2-1.4,2.2-1.6c1.1-0.2,2.1-0.4,3.2-0.7c0.5-0.1,0.9,0,0.9,0.5c0,0.2-0.4,0.6-0.7,0.7c-1.1,0.3-2.2,0.4-3.2,0.7
		c-0.7,0.2-1.1,0.7-1.3,1.4C114.4,63.4,114.4,63.5,114.5,63.6z M125.2,62.4c-0.1-0.1-0.1-0.2-0.2-0.4c-1.3,0.3-2.4,0.9-3.5,1.5
		c0.1,0.4,0.2,0.7,0.4,1.2C123.1,64,124.1,63.2,125.2,62.4z M115.8,64.5c0,0.1,0,0.1,0,0.2c0.9,0.6,1.9,0.6,3,0.6
		c-0.1-0.3-0.1-0.6-0.1-0.8C117.6,64.5,116.7,64.5,115.8,64.5z"/>
	<path class="st0" d="M108.9,58.2c-0.3-0.2-0.8-0.3-0.9-0.6c-0.3-0.5-0.1-1.1,0.3-1.4c1.7-1.3,3.6-2.5,5.7-3.2
		c1.9-0.5,3.8-1,5.7-1.5c0.5-0.1,1.1,0.1,1.6,0.1c1.4-0.1,2.8-0.2,4.1-0.4c0.9-0.1,1.5,0.1,1.3,0.8c0,0.2-0.4,0.6-0.6,0.6
		c-2.1,0.3-4.2,0.4-6.3,0.7c-1.4,0.1-2.6,0.8-3.8,1.4c-1.8,1-3.7,2-5.6,3C110.1,58,109.6,58,108.9,58.2z"/>
</g>
</svg>
