<?xml version="1.0" encoding="utf-8"?>
<!-- Generator: Adobe Illustrator 19.2.1, SVG Export Plug-In . SVG Version: 6.00 Build 0)  -->
<svg version="1.1" id="Layer_1" xmlns="http://www.w3.org/2000/svg" xmlns:xlink="http://www.w3.org/1999/xlink" x="0px" y="0px"
	 viewBox="0 0 214.1 300" style="enable-background:new 0 0 214.1 300;" xml:space="preserve">
<style type="text/css">
	.st0{fill:#03A9F4;}
</style>
<g id="chestpain-man">
	<path class="st0" d="M3.3,299.9c-0.7,0-1.4,0-2.3,0c-0.3-1.8-0.7-3.6-0.8-5.5c-0.2-1.9-0.3-3.7-0.2-5.6c0.1-3.9,0.1-7.7,0.5-11.6
		c0.2-2.2,1-4.3,1.5-6.4c0.3-1.3,0.7-2.7,0.9-4c0.2-2.3,0.3-4.7,0.5-7c0.2-2,0.7-4,0.8-5.9c0.1-2-0.1-4.1,0.1-6.1
		c0.3-3.6,0.8-7.2,1.2-10.7c0.2-2.1,0.5-4.1,0.7-6.2c0.3-2.3,0.6-4.7,1-7c0.5-3,1.1-6,1.4-9c0.5-3.7,0.8-7.5,1.1-11.2
		c0.2-2.2,0.7-4.4,1.3-6.6c0.8-2.7,1-5.6,1.6-8.4c0.5-2.3,1.3-4.5,1.8-6.8c0.3-1.5,0.8-2.9,0.5-4.5c-0.2-1.1,0.4-2.3,0.6-3.5
		c0.3-1.7,0.5-3.3,0.7-5c0.2-2.2,0.9-4.3,1.9-6.2c1.6-3.1,3.5-6,5.2-9c1-1.9,1.9-3.8,3-5.7c1-1.7,2.2-3.2,3.2-4.9
		c1.3-2.3,3.2-4,5.3-5.5c3.2-2.4,6.3-5,9.6-7.3c2.3-1.5,4.4-3.2,6.4-5c1.1-1,2.6-1.7,4-2.5c2-1.2,3.9-2.5,5.9-3.4
		c2-0.9,4.1-1.5,6.1-2.2c4.2-1.4,8.4-2.6,12.3-4.7c2.5-1.3,4.9-2.8,7.4-4.1c2.4-1.2,4.9-2.3,7.3-3.3c1.7-0.7,2.7-2,3.5-3.7
		c1-2.3,2.3-4.5,3.5-6.7c1.8-3.3,4.3-6.1,7-8.6c1.3-1.3,3.1-2.1,4.8-2.9c0.8-0.4,2-0.1,3-0.1c-0.9-2.3-1.9-4.5-2.8-6.8
		c-0.6-1.4-1-2.7-0.9-4.2c0.1-2.8-0.1-5.6,0.1-8.4c0.2-3.2,0.8-6.4,2.7-9.1c0.7-1,1.8-1.7,2.8-2.4c0.8-0.6,1.2-1.3,1.2-2.2
		c0-0.9,0-1.9,0-2.8c-0.2-3.2,0.5-6.3,0.9-9.4c0.1-1,0.1-2,0.3-3c0.2-1.5,0.4-3,0.7-4.5c0.4-2,0.6-4.1,1.3-6
		c0.7-1.9,1.7-3.8,2.9-5.4c1.9-2.5,4.2-4.7,6.3-7c0.6-0.6,1.3-1.2,2-1.8c1.4-1.3,2.5-2.7,3.5-4.3c1.8-2.8,4.4-4.5,7.7-4.8
		c2.2-0.2,4.3-0.5,6.5-0.7c1.3-0.1,2.6-0.1,3.8,0.6c0.9,0.6,1.7-0.1,2.6-0.2c2.2-0.4,4.5-0.3,6.6,0.3c1.9,0.5,3.8,0.3,5.7,0.1
		c2-0.2,4.1-0.6,6-0.3c1.5,0.2,2.9,1.3,4.3,2c0.9,0.5,1.9,0.9,2.8,1.3c2.6,1.2,5.3,2.3,7.9,3.4c1.4,0.6,2.7,1.4,4.1,1.9
		c2.8,1.1,4.6,3.5,6.6,5.5c0.7,0.7,1.4,1.5,2.2,2.1c2.1,1.5,3.8,3.3,4.9,5.6c0.4,0.8,0.5,1.6,0.8,2.4c0.7,1.7,1.4,3.3,2,5
		c0.8,2.6,1.7,5.3,2.3,8c0.8,4.2,0.9,8.5-0.4,12.7c-0.3,1-0.8,1.9-1.1,2.8c-0.3,1-0.2,2.1-0.5,3.1c-0.2,0.9-0.5,1.8-1,2.6
		c-1.6,3.1-3.2,6.1-4.8,9.2c-0.3,0.6-0.3,1.3-0.5,2c-0.4,1.6-0.8,3.2-2.3,4.3c-0.6,0.4-1.1,1.3-1.3,2.1c-1.5,4.2-2.9,8.3-4.3,12.5
		c-0.7,2.1-1.2,4.3-1.8,6.5c-1.8,6-3.6,12-5.5,18c-1,3-2.2,5.8-3.3,8.7c-0.4,0.9-0.9,1.7-1.5,2.4c-0.4,0.6-0.3,0.8,0.2,1.1
		c0.9,0.6,1.7,1.2,2.6,1.7c2,1.1,3.2,2.8,4.3,4.7c1.6,2.8,3.4,5.5,4.7,8.4c1,2.2,1.6,4.7,2.3,7.1c0.7,2.6,1.4,5.3,1.9,8
		c0.5,2.4,0.7,4.9,1,7.3c0.2,1.4,0.3,2.8,0.2,4.2c-0.1,2.1-0.6,4.1-0.7,6.2c-0.2,2.5-0.5,5.1,0,7.5c0.3,1.5,0.5,3.1,0.8,4.6
		c0.3,1.4,1.1,2.7,1.8,3.9c1.5,2.5,1.7,5.2,0.8,7.7c-0.9,2.8-1.3,5.7-1.9,8.6c-1.3,6.4-1.1,12.8-1.1,19.2c0,3.2,0.3,6.4,0.2,9.6
		c-0.2,3.6-0.3,7.4-1.2,10.9c-1.4,5.6-1.3,11.2-1.5,16.8c-0.1,5.4,0.7,10.6,2.1,15.8c0.6,2.3,0.8,4.7,1.1,7
		c0.5,4.2,0.3,8.4,1.9,12.4c0.3,0.6,0.3,1.3,0.5,2.1c-0.7,0-1.4,0-2.1,0c-0.8-2.6-1.6-5.3-2.3-8c-0.3-1.3,0-2.7-0.1-4
		c-0.1-2.1-0.2-4.3-0.5-6.3c-0.7-3.8-1.6-7.5-2.3-11.3c-0.2-1.2-0.2-2.4-0.2-3.6c-0.1-2.5-0.2-5-0.2-7.5c0-1.9,0.2-3.8,0.4-5.7
		c0.2-1.9,0.3-3.8,0.7-5.6c0.7-2.9,1.2-5.8,1.3-8.7c0.1-2.7,0.3-5.4,0.3-8.1c0-5.5-0.1-11.1,0-16.6c0.1-2.7,0.6-5.3,1-8
		c0.2-1.4,0.3-2.8,0.5-4.2c0.3-1.3,0.6-2.7,1-4c1.1-3.1,1-6-1-8.8c-0.8-1.1-1.3-2.6-1.5-4c-0.5-2.8-0.8-5.6-0.9-8.4
		c-0.1-2.1,0.5-4.2,0.7-6.3c0.1-1.5,0.1-3.1,0.2-4.6c0.1-3.7-0.4-7.3-1.3-10.9c-1-3.9-1.9-7.8-3-11.7c-0.4-1.4-1.3-2.8-2-4.1
		c-1.4-2.5-2.8-4.9-4.2-7.4c-1-1.7-2.7-2.5-4.2-3.6c-1.9-1.3-1.9-1.3-3.6,0.4c-1.8,1.8-3.6,3.6-5.6,5.6c0.3,0.4,0.7,1.2,1.3,1.8
		c0.8,0.8,1.6,1.7,2.5,2.3c2.1,1.4,2.8,3.8,4.1,5.8c0.4,0.6,0.1,1.3-0.7,1.7c-0.5,0.2-1,0.7-1.1,1.1c-0.6,2-2.2,3.3-4.2,3.3
		c-1.5,0-2.9-0.4-4.3-0.4c-0.8,0-1.6,0.2-2.4,0.4c-2,0.5-3.7,1.8-5.4,2.9c-0.1,0-0.2,0.1-0.2,0.1c-2.1,2.6-5,4.6-6.5,7.7
		c-0.4,0.8-0.2,1.8-0.1,2.8c0,0.6,0.5,1.3,0.4,1.9c-0.2,1.9,1,3,2.1,4.2c0.8,0.9,1.6,1.7,2.4,2.6c1.3,1.7,1.3,3.6,0.7,5.5
		c-0.7,2.2-1.7,4.3-2.1,6.6c-0.4,2.2-0.2,4.4-0.2,6.6c0,0.3,0.3,0.7,0.5,0.9c1.4,0.9,2,2.2,2.2,4c1.3-1.5,2.8-2.7,3.1-4.5
		c0.2-1-0.3-2.2-0.5-3.3c-0.4-2-0.9-3.9-1.1-5.9c-0.2-1.2,0.5-1.9,1.7-2.3c3.3-1.1,4.8,0.4,6.7,2.7c1.9,2.3,2.6,5.1,3.4,7.9
		c0.2,0.8,0.6,1.6,0.9,2.6c0.9-1.3,2.1-1.5,3.4-1c0.5,0.2,1,0.5,1.3,0.9c1.4,1.9,2.6,3.8,4,5.7c0.2,0.3,0.5,0.5,0.7,0.8
		c0.2,0.2,0.5,0.4,0.5,0.7c0.3,1.6,0.6,3.2,0,4.8c-0.5,1.4-1.1,2.8-1.7,4.2c1,0.1,1.9,0.1,2.6,0.4c1.8,0.6,2.4,1.4,2.4,3.3
		c0,2.7,0.3,5.5-0.9,8.1c-0.8,1.7-1.6,3.4-2.7,4.9c-0.8,1.2-1.9,2.2-3,3c-1.3,0.9-2.8,1.5-4.3,2.2c-1.8,0.9-3.6,1.6-5.3,2.5
		c-1.9,1-3.7,2.2-5.7,3.4c1.5,0.6,2.8,1.3,4.2,1.6c2.8,0.7,5.7,1.2,8.6,1.8c1.4,0.3,2.2,1.3,2,2.7c0,0.1-0.1,0.1-0.1,0.2
		c0.8,2.5-0.7,3.8-2.4,5.2c-1.8,1.4-3.6,2.2-5.9,1.6c-1.4-0.4-3.1-0.7-4.3-0.2c-2.3,1-4-0.8-6-0.7c-1.7,0.1-3.3-0.1-4.7,1.3
		c-0.5,0.5-1.6,0.5-2.5,0.8c-0.2,0.1-0.4,0.1-0.5,0.3c-1,1.3-2,2.6-3,3.9c-0.3,0.4-0.8,0.8-1.3,1.1c-1.3,0.8-1.5,2.1-1.7,3.5
		c-0.2,1.9-0.3,3.8-0.8,5.6c-0.7,2.4-1.6,4.7-2.6,7c-1.4,3.3-2.5,6.6-2.4,10.3c0.1,5.1,0,10.2,0,15.3c0,0.4,0,0.8,0,1.3
		c-0.7,0-1.4,0-2.2,0c0.1-1.4,0.2-2.8,0.2-4.2c0-0.3,0-0.6,0-0.9c0-4.3,0.1-8.6,0-12.9c-0.1-2.7,0.7-5.1,1.6-7.6c1.1-3,2.4-6,3.4-9
		c0.5-1.4,0.4-2.9,0.4-4.5c-0.5,0.5-1,0.9-1.4,1.4c-0.9,1-1.9,1.7-3.2,2.2c-1.4,0.6-2.6,1.5-3.9,2.2c-0.5,0.3-1.1,0.3-1.7,0.4
		c-1,0.2-1.9,0.3-2.6,0.4c-0.5,2.8-0.9,5.4-1.3,7.7c-2.8,1.5-5.4,2.7-7.6,4.7c-0.3,0.3-0.8,0.4-1.2,0.6c-1.9,1.3-3.9,2.5-5.8,3.8
		c-3.5,2.3-7.1,4.6-10.5,7c-1.2,0.8-2.2,2-3.3,2.8c-2.8,2-5.6,3.9-8.6,5.6c-0.9,0.5-2.2,0.2-3.5,0.1c0.5-0.4,1-0.9,1.6-1.3
		c2.2-1.5,4.3-3,6.5-4.5c1.2-0.9,2.6-1.6,3.7-2.6c1.1-1,2-2.2,1.6-4.1c-0.4-1.7-0.1-3.5-0.1-5.2c0-0.8-0.1-1.6-0.2-2.4
		c-0.2-2.8-0.4-5.6-0.7-8.4c-0.3-2.6-0.7-5.3-1.4-7.8c-0.4-1.4-1.5-2.7-2.4-3.9c-0.6-0.8-1.5-1.4-2.2-2.1c-1-1-1.9-2.1-2.9-3
		c-0.6-0.5-1.5-1.1-2.3-1.1c-0.7-0.1-1.5,0.5-2.3,0.8c-1.6,0.6-3.1,1.4-4.7,1.9c-1.9,0.6-4,0.9-6,1.3c1.6,3.3,2.2,6.9,2.6,10.6
		c0.1,0.9,0.1,1.8,0.2,2.7c0.1,1.7-1.1,2.6-2.1,3.7c0.2-5.7-0.4-11.3-2.9-16.7c-1.6,0.5-3.3,1-4.9,1.6c-1.4,0.4-2.8,0.8-4.2,1.3
		c-0.9,0.3-1.7,0.6-2.5,1c-1.8,1.1-3.5,2.4-5.4,3.4c-1.4,0.7-2.2,2-2.4,3.3c-0.3,1.5-1.2,2.5-2,3.6c-1.1,1.4-2.4,2.7-3.6,3.9
		c-2.7,2.6-5.7,4.9-8.8,7c-1.9,1.3-3.5,2.8-5.4,4.1c-3.4,2.4-7.1,4.3-11,5.9c-0.7,0.3-1.4,0.4-1.7-0.3c-0.4-0.8,0.1-1.3,0.8-1.6
		c1.5-0.8,2.8-1.8,4.4-2.3c2.3-0.7,4.2-2.1,6.2-3.4c2.6-1.7,5.1-3.6,7.6-5.6c2.6-2.1,5.2-4.2,7.6-6.5c1.3-1.3,2.3-3.1,3.3-4.7
		c0.2-0.3,0.2-0.7,0.3-1.2c-1.7,0.8-3.3,1.4-4.7,2.2c-2.4,1.3-5,1.6-7.5,2.4c-1.1,0.3-2.3,0.7-3.4,1c-0.6,0.1-1.3,0.2-1.9,0.1
		c-0.2,0-0.6-0.6-0.6-0.7c0.1-0.4,0.4-1,0.8-1.1c1-0.4,2.1-0.6,3.1-0.9c1.8-0.4,3.5-0.8,5.3-1.2c3.4-0.8,5.9-3.1,9-4.5
		c1.8-0.8,3.5-1.8,5.2-2.7c2-1.1,4.1-2,5.8-3.4c2-1.6,3.1-3.9,2.4-6.4c-0.4-1.3-1.6-2.4-2.5-3.6c-0.6-0.8-1.3-1.5-2-2.2
		c-1.3-1.4-2.5-2.8-3.8-4.2c-2.8-3-6.9-3.4-10.5-4.7c-1.2-0.4-2.4-0.8-3.6-1.1c-0.6-0.2-1-0.7-0.7-1.2c0.2-0.4,1-0.8,1.3-0.7
		c2.6,1.2,5.5,1.8,8.2,2.6c2.9,0.8,5.3,2.7,7.6,4.6c1,0.9,1.8,2.1,2.7,3.2c1,1.2,2,2.4,3.1,3.6c0.1,0.1,0.2,0.1,0.3,0.1
		c0.2-1.6,0.3-3.1,0.6-4.6c0.6-2.5,1.2-5,2-7.4c1-2.9,2-5.9,3.2-8.7c1.1-2.6,2.4-5,3.7-7.5c1.4-2.7,2.9-5.3,4.3-7.9
		c0.2-0.3,0.2-0.7,0.4-1c0.6-1.1,1.2-2.3,2-3.3c0.9-1.2,1.1-2.5,1-3.9c-0.2-3.5-0.4-6.9-0.6-10.4c-0.1-1.1,0-2.2,0-3.2
		c0-4-0.7-7.9-1.6-11.8c-0.6-2.6-1.1-5.3-1.9-7.9c-0.6-2-1.6-3.8-2.5-5.8c-1-2.2-1.8-4.5-2.9-6.7c-0.9-1.9-2-3.9-3.2-5.6
		c-1.7-2.5-3.6-4.9-5.6-7.1c-0.9-1.1-2.2-2-3.5-2.7c-2.7-1.3-5.4-2.4-8.2-3.5c-0.5-0.2-1-0.3-1.5-0.3c-1.6,0-3.2,0-4.8,0
		c-4.3-0.2-8.4,0.6-12.5,1.6c-2.7,0.7-5.5,1.1-8.2,1.8c-0.8,0.2-1.7,0.9-2.2,1.6c-1.2,1.5-2.2,3.1-3.2,4.8c-1.1,1.9-2.1,4-3.2,5.9
		c-1.6,2.9-3.5,5.6-5,8.5c-1.7,3.3-2.6,6.8-2.7,10.6c-0.1,4-0.8,7.9-1.9,11.8c-0.8,3-1.8,6-2.2,9c-0.5,4-1.9,7.9-2,12
		c0,3.7-0.6,7.4-1.1,11c-0.5,3.4-1.3,6.7-1.9,10c-0.3,1.5-0.3,3-0.5,4.5c-0.3,2.6-0.7,5.2-1.1,7.8c-0.2,1.5-0.4,3-0.5,4.5
		c-0.3,4.6-0.6,9.3-0.9,13.9c-0.2,3.3-0.4,6.7-0.7,10c-0.2,1.6-0.2,3.1-1.1,4.7c-0.9,1.7-1.4,3.8-1.5,5.7c-0.3,5.5-0.3,11-0.2,16.5
		c0,1.6,0.6,3.3,1,4.9C3.3,299.3,3.3,299.6,3.3,299.9z M90.6,209.8c-0.6,1.3-1.3,2.7-2.1,4.2c-1,2-2.2,3.9-3.2,5.9
		c-1.5,2.9-2.9,5.8-4.2,8.8c-0.9,1.9-1.5,4-2.3,6c-1.8,5-3.1,10-2.6,15.4c0.2,2.7,0.3,5.5-2.1,7.7c1.3-0.4,2.4-0.8,3.6-1.2
		c1.6-0.4,3.1-1.3,4.9-0.9c0.6,0.1,1.3-0.3,1.9-0.5c0.4-0.1,0.8-0.3,1.2-0.4c3.4-0.7,6.8-1.7,9.9-3.3c2.3-1.2,4.5-2.3,6.9-3.4
		c4.6-2.1,9-4.6,13.7-6.7c2.8-1.2,5.5-2.6,8.3-3.9c1-0.4,2-1.7,1.9-2.7c-0.1-1.5-0.4-3-0.4-4.5c0-2.2,0.1-4.4,0.2-6.6
		c0.2-3.7,1.6-7.1,3.5-10.2c0.9-1.5,2.3-2.7,3.4-4.1c1.4-1.9,2.7-3.9,4.1-5.9c2.1-3,4.2-5.9,6.2-8.9c1.6-2.5,3.1-5.1,4.5-7.8
		c0.4-0.7,0.5-1.6,0.7-2.5c0.2-1.1,0.4-2.2,1.7-2.6c0.5-0.2,1-0.1,1.5-0.2c0.2,0,0.5-0.2,0.6-0.4c0.1-0.1-0.2-0.4-0.3-0.5
		c-1-0.8-2-1.6-2.9-2.5c-1.8-1.6-3.9-2.9-6.1-3.9c-1.2-0.5-2.4-1-3.5-1.7c-3-1.8-5.9-3.6-8.8-5.5c-1.6-1-3.2-2.1-4.9-3.1
		c-1.6-0.9-3.2-1.6-4.7-2.6c-1.7-1.1-3.4-2.4-5-3.6c-0.2-0.1-0.4-0.2-0.6-0.3c-2.5-1.3-5.1-2.5-7.5-3.9c-2.4-1.3-4.7-2.6-7-3.9
		c-0.6-0.4-1.3-0.8-1.8-1.3c-0.3-0.3-0.2-0.8-0.2-1.3c0.4,0,0.9-0.1,1.2,0.1c2.2,1.3,4.2,2.7,6.4,3.9c3.1,1.7,6.2,3.2,9.4,4.8
		c0.5,0.2,1,0.5,1.4,0.8c1.8,1.2,3.5,2.4,5.2,3.6c0.1-0.1,0.2-0.1,0.3-0.2c-0.2-0.7-0.4-1.5-0.7-2.1c-1.1-2-2.2-3.9-3.3-5.8
		c-1.3-2.2-2.7-4.5-4-6.7c-1.2-2-2.4-4-3.8-5.9c-1.2-1.6-2.5-3.1-3.7-4.8c-1.1-1.5-2.9-2.5-3.3-4.6c-0.1-0.7-0.5-1.3-0.8-1.9
		c-1.8-2.9-3.1-6-4.3-9.2c-1.5-4.1-3.6-8-3.5-12.8c-3.9,1.9-7.8,3.6-11.5,5.6c-3.4,1.8-6.6,4-10.4,5.1c-2.6,0.8-5.2,1.8-7.8,2.5
		c-1.8,0.5-3.6,1.1-5.2,2.1c-1.1,0.7-2.3,1.4-3.5,2.1c-1.7,1-3.5,1.8-5,3.1c-2.1,1.8-4.1,3.6-6.4,5.1c-2.4,1.5-4.6,3.3-6.9,5
		c-0.8,0.6-1.5,1.1-2.3,1.7c0.1,0.1,0.1,0.2,0.2,0.3c1.8-0.4,3.6-0.7,5.4-1.2c3.4-0.8,6.7-1.6,10.2-1.6c1.3,0,2.6-0.1,3.9,0
		c1.7,0,3.5-0.2,5.1,0.3c3.3,1.1,6.4,2.5,9.5,4c1.4,0.7,2.7,1.8,3.8,2.9c1.5,1.6,2.9,3.4,4.1,5.2c1.7,2.5,3.3,5,4.7,7.7
		c1.2,2.4,2.1,4.9,3.2,7.4c0.7,1.7,1.7,3.3,2.2,5.1c1,3.4,1.7,6.9,2.5,10.3c0.8,3.2,1.4,6.4,1.3,9.6c-0.1,2.3,0,4.6,0,6.9
		c0,1.5,0,3,0.3,4.4c0.6,3.1,0.5,6.2,0.1,9.3c-0.1,0.5-0.5,1-1,1.3C91.6,210.4,91.1,210,90.6,209.8z M117.1,54.1
		c0,0.1,0.1,0.2,0.1,0.3c0.1,0.1,0.3,0.2,0.4,0.3c2.3,1.6,3.7,3.8,4.6,6.4c0.6,1.8,1.1,3.7,1.4,5.7c0.2,1.1,0.5,2.3-0.4,3.4
		c-1.5,1.7-1.7,3.7-1,5.7c0.6,1.9,1.4,3.8,1.2,5.8c-0.2,3.8-0.7,7.6-0.8,11.4c-0.1,3.3-0.1,6.7,0.3,10.1c0.3,3,1.1,6,2,9
		c0.5,1.7,1.4,3.3,2.2,4.9c1.5,3,2.8,6,5.3,8.4c2.5,2.4,4.8,4.9,7,7.4c1.5,1.7,3.1,3.1,5.1,4c3.6,1.6,6.8,4.3,11,4.5
		c1.2,0.1,2.5,0.6,3.7-0.4c0.2-0.2,0.8,0,1.1,0.1c0.4,0.1,0.9,0.3,1.3,0.2c3.2-0.5,6-1.7,8.4-3.9c1.6-1.5,3.1-3,4.8-4.3
		c2.7-2.2,5.3-4.5,7.2-7.4c1.6-2.4,3.2-4.7,4.1-7.5c0.9-3,2.1-5.9,3-8.8c1.4-4.4,2.8-8.9,4.1-13.4c1.2-3.9,2.2-7.9,3.3-11.8
		c-0.7-0.4-1.6-0.6-2.1-1.1c-0.8-0.8-1.7-1.2-2.8-1.4c-2.9-0.5-5.8-1.1-8.7-1.5c-1.2-0.2-2.4-0.1-3.6-0.3c-0.6-0.1-1.2-0.2-1.2-1
		c0-0.9,0.6-0.7,1.2-0.7c2,0,4,0,6,0.6c2.2,0.6,4.5,0.7,6.7,1.3c1.8,0.5,3.5,1.5,5.3,2.3c0.2-0.6,0.5-1.5,0.7-2.4
		c0.8-3,3-5.4,3.4-8.7c0.3-2,0.7-4,0.7-6c0-4.1,0.1-8.3-1.3-12.3c-0.3-1-1-1.6-2.2-1.5c-0.8,0-1.5,0.3-2.3,0.3
		c-3.3-0.1-6.7-0.4-9.7-2c-1.4-0.7-2.7-1.5-4.1-2.2c-1.7-0.8-3.5-1.6-5.4-2.1c-2-0.6-4.1-1-6.2-1.2c-2-0.2-4.1,0.1-6.2,0.2
		c-1.4,0.1-2.8,0.1-4.2,0.2c-3.5,0.4-6.9,0.3-10.3-0.4c-2-0.5-4.1,0.8-4.5,2.8c-0.4,1.7-0.5,3.5-0.9,5.3c-0.7,3.4-2.4,6.1-5.7,7.6
		c-3.1,1.4-5.2,3.8-6.4,7c-0.8,2.1-1.5,4.3-2.3,6.4c-0.7,1.6-1.5,3.1-2.3,4.7c-0.2,0.4-0.4,0.9-0.8,1.2c-0.3,0.2-0.9,0.4-1.3,0.2
		c-0.3-0.1-0.5-0.8-0.5-1.2c0.2-2.2,0.4-4.4,0.6-6.6c0.1-1.1,0.2-2.1,0.2-3.2c0-1.7,0.1-3.4-0.2-5c-0.8-3.7-2.9-6.6-5.7-9.1
		C119,52.7,118.9,52.8,117.1,54.1C117.2,54.1,117.1,54.1,117.1,54.1z M137.7,265.1c2.2,0.1,4.1-0.5,5.9-1.5c0.6-0.4,1.1-0.9,1.8-1.2
		c1.9-0.9,3.2-2.4,4.6-3.8c0.4-0.5,0.8-1,1.3-1.4c1.2-1.2,2.8-2.1,3.7-3.5c1.6-2.3,3.3-4.3,6-5.2c0.8-0.3,1.7-0.6,2.6-0.6
		c3.6,0.1,7.3,0.4,10.9,0.6c0.7,0,1.4,0.1,2.1,0.3c2.9,0.7,5.2-0.2,7-2.5c1-1.2,0.5-3.5-0.9-3.8c-1-0.2-1.9-0.3-2.9-0.5
		c-2.8-0.6-5.7-1.1-8.3-2.3c-1.1-0.5-2.3-0.9-3.5-1.2c-0.7-0.1-1.1-0.2-1.1-1.1c0-0.9,0.5-1,1.2-1c0.2,0,0.5-0.1,0.7-0.2
		c2-1.1,4-2.2,6.1-3.2c2.3-1.2,4.5-2.5,6.9-3.4c2.6-1,4.8-2.5,6.4-4.7c1.5-2,2.6-4.2,2.7-6.7c0.1-1.8,0.1-3.6,0-5.3
		c0-0.4-0.3-1.1-0.7-1.3c-0.6-0.3-1.4-0.6-2,0.1c-0.6,0.8-1,1.6-1.5,2.4c-1.3,1.8-2.7,3.5-4.1,5.2c-1.1,1.3-2.3,2.5-4,2.9
		c-0.6,0.1-1.4,0-1.9,0.3c-1.3,0.7-2.5,1.5-3.6,2.4c-1.9,1.4-3.7,2.9-5.5,4.4c-0.3,0.2-0.5,0.5-0.8,0.6c-0.4,0.1-0.9,0-1.3,0
		c0.1-0.4,0-1,0.2-1.2c1.8-1.5,3.5-3.1,5.4-4.4c2.9-2,5.6-4.1,8.1-6.5c1.3-1.3,2.8-2.4,4.3-3.3c1.4-0.8,2.1-1.9,2.4-3.5
		c0.3-1.6,0.8-3.2,1.4-4.7c0.8-2.1,1.2-4.1-0.2-6c-0.3-0.4-0.5-0.9-0.8-1.3c-0.9-1.4-1.7-2.9-2.7-4.1c-0.9-1.1-2.1-1.1-2.8-0.2
		c-0.5,0.6-0.8,1.5-0.9,2.2c-0.1,1,0.1,2,0.2,3.1c0,0.2,0.5,0.5,0.8,0.5c0.6,0,1.2-0.1,1.9-0.1c0.3,0,0.6,0.5,0.8,0.7
		c-0.3,0.3-0.5,0.7-0.8,0.8c-0.9,0.3-1.8,0.4-2.8,0.5c0,0.9,0.1,1.8,0,2.6c-0.1,0.6-0.3,1.2-0.7,1.6c-1.9,1.8-3.8,3.6-5.7,5.3
		c-0.6,0.6-1.3,1-2,1.5c-1.2,0.9-2.7,1.6-2.4,3.5c0,0.1,0,0.3-0.1,0.4c-0.6,1.5-1.1,3.1-1.8,4.6c-0.2,0.4-0.7,0.7-1.2,0.8
		c-0.2,0.1-0.7-0.4-0.8-0.8c-0.1-0.4,0.1-0.9,0.3-1.2c1.9-2.2,1.9-4.9,2.2-7.5c0.3-2,0.7-3.9,1.9-5.5c0.8-1.1,2-1.9,2.9-3
		c1.7-2.1,3.3-4.3,4.8-6.6c0.8-1.2,0.6-2.5,0.4-3.8c-0.3-1.5-1-2.9-1.3-4.4c-0.4-2.7-1.6-5.1-3.4-7.1c-1-1.1-2.2-2-3.9-1.3
		c-0.6,0.2-0.8,0.4-0.7,1c0.2,1.4,0.5,2.7,0.8,4.2c0.5-0.2,0.8-0.3,1.1-0.4c0.7-0.3,1.3-0.4,1.6,0.5c0.2,0.8-0.4,1-1,1.1
		c-1,0.2-0.9,0.9-0.9,1.7c0.1,1,0.3,2.1-0.1,2.9c-0.9,1.7-2.1,3.4-3.4,4.7c-2.1,2.2-4.5,4.2-6.8,6.2c-2.3,2-4.6,4-7.5,5.2
		c-0.7,0.3-1.2,0.9-1.1,1.8c0.1,0.4-0.1,1-0.3,1.2c-0.4,0.3-1,0.4-1.4,0.3c-0.5-0.2-0.6-0.7-0.1-1.1c0.1-0.1,0.1-0.3,0.1-0.5
		c-0.1-1.2,0.2-2.3,0.9-3.3c0.3-0.5,0.3-1.1,0.5-1.7c0.2-1,0.3-2.1,0.6-3.1c1.2-3.5,2.4-7,3.6-10.4c0.2-0.5,0.3-1,0.6-1.6
		c-1.7-0.6-3.2-1.1-4.7-1.7c-1.3-0.5-2-0.2-2.6,1c-1.2,2.4-2.4,4.7-4,6.8c-2.2,2.9-4,6-6.1,9c-1.2,1.7-2.2,3.6-3.7,5
		c-2.7,2.6-4.5,5.7-5.6,9.3c-0.6,2-0.8,4.1-1,6.2c-0.1,1.9,0,3.8,0.1,5.7c0,0.5,0.2,0.9,0.4,1.6c0.1-0.3,0.2-0.4,0.2-0.5
		c0.7-2.2,1.5-4.4,3.8-5.6c0.5-0.3,1.2-0.4,1.8-0.4c0.1,0,0.4,0.4,0.4,0.7c0.2,0.8-0.6,0.9-1.1,1.2c-1.4,0.7-2.4,1.7-2.7,3.3
		c-0.4,2-1.2,3.8-2.7,5.2c-0.5,0.4-0.6,0.7-0.1,1.3c1.3,1.3,2.6,2.6,3.5,4.1c2,3.4,4,6.8,4.7,10.8c0.7,3.5,1.7,7,1.6,10.7
		C137.7,264.2,137.7,264.6,137.7,265.1z M109.5,87c0,0-0.1,0-0.2,0c-0.8,0.8-1.5,1.7-2.3,2.5c-3.5,3.9-6.3,8.1-8.2,13
		c-0.6,1.6-1.5,3-1.3,4.8c0.3,2,0.7,4.1,1.4,6c1.5,4,3.2,8,5,12c1,2.2,2.3,4.2,3.7,6.2c1.3,1.8,3,3.4,4.2,5.3c2.1,3.1,4.1,6.2,6,9.4
		c2.1,3.6,4.2,7.2,6.2,10.8c0.8,1.4,1,1.6,2.4,0.7c2.2-1.3,4.3-2.7,6.4-4.2c1.5-1.1,3-2.3,4.4-3.5c1.4-1.1,2.9-2.3,4.3-3.4
		c0.6-0.5,1.2-1,1.7-1.5c-1-0.9-1.8-1.9-2.8-2.6c-3.8-2.3-7-5.4-10.2-8.3c-1.7-1.6-3.3-3.4-5.1-4.9c-2.1-1.8-3.8-3.8-5.2-6.1
		c-0.8-1.2-1.7-2.4-2.5-3.6c-0.5-0.9-0.9-1.9-1.3-2.9c-0.9-1.7-2.1-3.3-2.7-5.1c-1.6-4.7-3-9.6-4.4-14.4c-0.3-1-0.5-2.2-0.4-3.2
		C108.9,91.6,109.2,89.3,109.5,87z M100,251.6c1.1,1.3,2,2.6,3.3,3.5c2.2,1.5,3.6,3.5,5,5.6c0.4,0.6,0.8,1.2,1,1.9
		c0.4,1.8,0.7,3.6,0.9,5.5c0.4,2.9,0.8,5.8,1.1,8.7c0.2,2.9,0.2,5.9,0.3,8.8c0,1.1,0.2,2.1,0.4,3.3c0.5-0.3,0.8-0.5,1.1-0.7
		c3.4-2.5,6.8-5,10.3-7.4c3-2,6.2-3.8,9.2-5.8c0.8-0.5,2-0.8,1.5-2.3c-0.1-0.4,0.6-1.2,0.9-1.8c0.1-0.2,0.3-0.4,0.3-0.6
		c0.1-1.7,0.2-3.4,0.2-5.1c0.1-3.1-0.1-6.2-0.9-9.3c-0.6-2.2-0.9-4.5-1.8-6.6c-1.4-2.9-3.2-5.7-4.9-8.4c-0.9-1.5-2.2-1.9-3.8-1.2
		c-2.3,1-4.5,2.2-6.8,3.3c-4.6,2.2-9.1,4.4-13.7,6.7C102.3,250.3,101.1,251,100,251.6z M164.2,197.3c-0.5-0.7-0.8-1.3-1.1-1.8
		c-0.3-0.5-0.4-1.2-0.9-1.6c-1.2-1.1-1.8-2.4-1.8-4c0-2.2,0-4.4,0-6.6c0-0.1,0-0.2,0.1-0.3c0.4-0.9,0.7-1.8,1.2-2.6
		c0.9-1.4,1.2-2.8,0.9-4.4c-0.4-1.7-1.3-3.2-2.2-4.6c-0.9-1.5-2-2.9-2.7-4.5c-0.8-2-1.9-3.7-4.1-4.4c-3.1-1-6.1-2.1-9.2-3.2
		c-0.6-0.2-1.2-0.3-0.9-1.2c0.3-0.9,1-0.9,1.6-0.7c1.1,0.3,2.1,0.7,3.1,1.1c2.2,0.7,4.2,2.2,6.6,2c0.1,0,0.1,0,0.2-0.1
		c-0.2-0.8-0.2-1.7-0.5-2.4c-0.5-1.1-0.4-2.4-1.5-3.3c-0.9-0.8-1.6-1.8-2.4-2.7c-1.5-1.6-2.9-3.2-4.4-4.8c-0.4-0.5-0.9-0.5-1.3-0.2
		c-1.8,1.4-3.6,2.7-5.3,4.2c-1.5,1.2-2.9,2.7-4.4,3.9c-1.2,0.9-2.6,1.5-3.9,2.3c-0.8,0.5-1.5,1.2-2.3,1.9c-0.2,0.2-0.4,0.4-0.6,0.5
		c-1.6,0.3-3.2,0.6-4.7,0.9c1.1,0.7,2.3,1.5,3.6,2.2c1.8,1,3.6,1.9,5.4,3c1.6,1,3,2.2,4.5,3.2c1.8,1.2,3.6,2.2,5.5,3.2
		c0.2,0.1,0.5,0.1,0.7,0.3c1.6,0.8,3.3,1.5,4.8,2.4c1.4,0.9,2.7,1.9,3.9,3c1.7,1.6,3.8,2.8,4.9,5.2c1,2.1,1.1,4.1,0.6,6.2
		c-0.5,1.8-1.4,3.6-2,5.4c-0.8,2.6-1.6,5.2-2.4,7.8c-0.4,1.4-0.8,2.9-1.2,4.3C156.7,204.2,160.4,200.5,164.2,197.3z M118.8,86.4
		c-0.7,1.6-1.2,3.3-2,4.7c-0.8,1.4-2.1,2.4-3.1,3.7c-1,1.3-2.2,2.5-1.6,4.4c1.3,3.9,2.4,7.9,3.7,11.9c0.2,0.8,0.8,1.4,1.2,2.1
		c0.9,1.8,1.6,3.6,2.6,5.4c0.6,1.1,1.5,2,2.3,3c0.6,0.7,1.3,1.5,1.9,2.1c1.8,1.8,3.4,3.9,5.3,5.4c2.7,2.1,5.7,3.8,8.6,5.7
		c0.3,0.2,0.7,0.5,1,0.7c0.1-0.1,0.1-0.2,0.2-0.2c-0.7-0.7-1.4-1.3-2-2c-1.7-1.9-3.4-3.8-5.1-5.7c-1.8-2-3.8-3.9-4.8-6.5
		c-0.3-0.7-0.7-1.3-1-1.9c-0.8-1.6-1.8-3.2-2.3-4.9c-0.9-2.8-1.6-5.6-2.2-8.5c-0.4-1.9-0.6-3.9-0.7-5.8c-0.1-3.5,0.1-6.9,0.2-10.4
		c0-0.6,0.1-1.2,0.1-1.9C120.3,87.2,119.5,86.7,118.8,86.4z M157.3,159.6c1-1,1.7-1.7,2.5-2.4c1.3-1.3,2.5-2.6,3.7-4
		c2.2-2.4,5-3.8,8-4.9c0.3-0.1,0.7-0.1,1.1-0.1c0.5,0,1.1,0,1.7,0c-1.1-1.2-2.2-2.2-3.4-3.1c-1-0.7-2.1-1.3-3.1-1.9
		c-0.8-0.4-1.8-0.8-2.7-0.8c-1.2,0-2.5,0.4-3.7,0.7c-0.3,0.1-0.6,0.3-0.7,0.5c-1.1,2.3-2.3,4.5-3.3,6.8c-0.9,2-1.1,4-0.7,6.2
		C156.8,157.6,157.1,158.5,157.3,159.6z M120.4,75.9c0-1.3-0.1-2.4,0-3.4c0.2-1.1,0.7-2.2,1-3.2c0.2-0.5,0.5-1,0.4-1.4
		c-0.5-2.3-1-4.6-1.6-6.9c-0.1-0.3-0.3-0.6-0.5-1c-0.8-2-2.4-3.2-4.1-4.6c-2.4,4.4-2.4,9.2-2.2,14c1.4,0,2.3,0.8,3.1,1.8
		C117.8,72.8,119,74.2,120.4,75.9z M167.8,141.4c1.4,0.8,2.5,1.5,3.7,2c0.9,0.3,1.5,0.9,2.1,1.5c1.1,1.2,2.2,2.4,3.5,3.4
		c1,0.9,3.2-0.2,3.4-1.5c0.2-1,0.6-1.9,1.4-2.5c-0.6-1.1-1.1-2.3-1.7-3.4c-0.1-0.3-0.4-0.5-0.6-0.6c-1.9-1.2-3.5-2.7-4.9-4.5
		c-0.1-0.1-0.2-0.1-0.4-0.2C172.4,137.5,170.2,139.4,167.8,141.4z M144.4,139.1c0.5,0.8,0.9,1.2,1,1.8c0.2,1.3,0.6,2.5,1.5,3.5
		c1.4,1.6,2.9,3.1,4.4,4.7c0.9,0.9,1.7,1.8,2.6,2.6c0.6,0.6,0.9,0.3,1.1-0.4c0.5-1.4,1.1-2.7,1.7-4.1c0.5-1.2,1-2.5,1.5-3.8
		c-2.5-0.5-4.9,0-7.1-1.1C149,141.2,146.9,140.3,144.4,139.1z M121.8,85.6c-0.3-2.7,0.4-5.2-0.6-7.5c-1.3-0.1-2-1.1-2.8-1.9
		c-1.3-1.5-2.5-3-3.8-4.4c-0.2-0.2-0.6-0.2-0.8-0.4c-0.1,0.3-0.3,0.6-0.3,0.9c0.1,0.8,0.3,1.7,0.6,2.5c0.9,2.3,1.8,4.6,2.7,6.9
		C117.7,83.8,119.3,85,121.8,85.6z M178.4,200.7c-0.1,0-0.3-0.1-0.4-0.1c-0.6,0.7-1.1,1.5-1.7,2.2c-1,1.2-1.9,2.7-3.1,3.6
		c-2.1,1.7-2.5,2.8-3.2,5.6c0.8-0.3,1.6-0.6,2.2-1.2c2-1.8,4-3.8,5.9-5.7c0.1-0.1,0.2-0.2,0.2-0.3
		C178.4,203.5,178.4,202.1,178.4,200.7z M116.4,84.8c-1.2,0-2.5,0-3.8,0c-0.6,2.3-1.2,4.5-1.7,6.7c-0.1,0.3,0.1,0.7,0.2,1.1
		c0.3,0.7,0.7,0.9,1.3,0.3c0.6-0.7,1.1-1.3,1.6-2C115.6,89,115.8,86.7,116.4,84.8z M149.8,186.6c2.1,0.6,4.2,1.3,6.5,2
		c-0.2-1.4-0.3-2.7-0.7-3.9c-0.5-1.7-3.1-2.7-4.6-1.8c-0.3,0.2-0.6,0.7-0.7,1C150.2,184.9,150,185.7,149.8,186.6z"/>
	<path class="st0" d="M165.5,127.4c-6.3-0.3-11.9-2.4-15.9-7.5c-1.3-1.7-2-3.9-2.8-5.9c-0.4-1,0.7-1.7,1.4-2.2
		c2-1.3,4.2-1.8,6.7-1.7c2.7,0.1,5,1.2,7.2,2.6c2.3,1.4,4.8,1.5,7.3,1.8c2.2,0.3,4.1,1,5.5,2.8c0.8,1.1,0.9,2,0.2,3.2
		c-0.4,0.7-0.6,1.5-1,2.3c-1.6,3.4-4.4,4.7-8,4.7C166,127.4,165.7,127.4,165.5,127.4z M148.5,115.1c0,0.2-0.1,0.3,0,0.4
		c0.8,2.8,2.5,5,4.8,6.6c4.7,3.4,10,4.8,15.8,3.8c1.9-0.3,3-1.5,3.4-3.6c-0.5-0.1-0.9-0.2-1.4-0.3c-3.9-0.2-7.7-1-11.4-2.1
		C155.7,118.9,151.5,118.3,148.5,115.1z M148.5,112.9c0.2,0.1,0.3,0.2,0.3,0.2c0.6,0,1.2,0.1,1.8,0c3.2-0.3,6.1,0.6,8.9,2.2
		c1.6,0.9,3.4,1.6,5.2,1.8c3.3,0.3,6.7,0.3,9.4,2.4c0.9-0.9,0.2-1.4-0.2-1.9c-1.2-1.5-3-1.9-4.8-2.1c-3.1-0.3-6.1-0.8-8.8-2.7
		c-2.1-1.4-4.4-1.9-7-1.5C151.7,111.4,150,111.6,148.5,112.9z M173.3,120.7c0.1-0.1,0.1-0.2,0.2-0.3c-0.5-0.3-0.9-0.8-1.4-1
		c-1.6-0.5-3.1-1-4.7-1.1c-3-0.2-5.8-0.7-8.5-2.1c-1.5-0.8-3.1-1.4-4.8-1.8c-1.5-0.4-3-0.4-4.6,0.1c0.3,0.3,0.5,0.5,0.7,0.7
		c2.3,2.2,5.3,2.8,8.2,3.5c1.3,0.3,2.7,0.4,4,0.9C165.9,121,169.6,120.6,173.3,120.7z"/>
	<path class="st0" d="M153.8,74.5c2.7-0.2,5.4,0.5,7.9,2.2c1.7,1.1,2.9,2.7,3.8,4.5c0.2,0.5,0.3,1,0.4,1.6c0.1,0.7-0.8,0.8-1.6,0.5
		c-1.7-0.7-3.3-1.5-5-2c-1.4-0.4-2.9-0.4-4.3-0.7c-1.7-0.4-3.3-1-4.9-1.3c-2.1-0.5-4.2-0.7-6.3-1.1c-0.4-0.1-0.7-0.5-1-0.8
		c0.2-0.3,0.4-0.6,0.7-0.7C146.6,75,150,74.4,153.8,74.5z M164.1,81.3c-1.6-2.3-3.5-4.2-6.4-5.2c0.1,1.3,0.1,2.5-0.9,3.2
		C159.2,80,161.6,80.7,164.1,81.3z M150.6,75.7c-1.6,0.4-3.4,0.7-5.1,1.1c0,0.1,0,0.3,0,0.4c1.7,0.3,3.5,0.5,5.2,0.8
		C150.7,77.2,150.6,76.6,150.6,75.7z M153.2,77.1c0.5,0.2,0.9,0.5,1.1,0.5c0.3-0.1,0.7-0.5,0.7-0.8c0-0.2-0.6-0.7-0.7-0.7
		C154,76.2,153.7,76.6,153.2,77.1z"/>
	<path class="st0" d="M175.5,85.4c-0.3-0.9-0.2-1.4,1.4-2.2c1.3-0.6,2.7-1.3,4.1-1.5c3.6-0.6,6.9,0.3,9.7,2.6c0.9,0.8,1.5,2,2,3.2
		c0.3,0.6,0.3,1.2-0.8,1c-3.1-0.4-6.2-0.8-9.3-1.2c-0.7-0.1-1.3-0.4-2-0.5C178.9,86.3,177.3,85.9,175.5,85.4z M182.4,83.1
		c0-0.1-0.1-0.2-0.1-0.3c-1.4,0.4-2.9,0.3-4.3,1.5c1.6,0.6,2.9,1.1,4.4,1.6c-0.3-0.8-0.4-1.4-0.6-2
		C181.9,83.7,182.2,83.4,182.4,83.1z M190.8,86.3c-1.1-0.8-2.1-1.5-3.1-2.3c-0.2,0.7-0.3,1.1-0.5,1.4c-0.3,0.3-0.7,0.5-1.2,0.7
		C187.1,87.1,189.8,87.1,190.8,86.3z"/>
	<path class="st0" d="M175.9,97.6c0.4,0,0.6,0,0.9-0.1c0.1,0.1,0.1,0.2,0.2,0.3c0.2,1.7,0.4,3.4,0.6,5.1c0.3,2.9-0.8,3.9-3.1,5.2
		c-1.6,0.8-3.4,1.4-4.9,2.4c-1.9,1.3-4.7,0.2-5.1-1.7c-0.7-2.7-2.7-3.7-5-4.4c-1.6-0.4-3.3-2.4-2.9-4.2c0.2-1.2,0.6-2.3,0.9-3.5
		c0.3-1.1,1.1-1.6,1.9-2.1c0.2-0.1,0.6,0,0.9,0c-0.1,0.3-0.2,0.6-0.5,0.8c-1.2,1-2.3,4.8-1.6,6.1c0.4,0.6,1.1,1.1,1.7,1.4
		c0.6,0.4,1.4,0.5,2,0.8c1.7,0.7,2.9,1.7,3.4,3.5c0.8,2.5,2.3,2.8,4.5,1.5c1.2-0.8,2.5-1.4,3.9-1.9c2.1-0.8,3-2.3,2.3-4.4
		c-0.1-0.3-0.2-0.7-0.2-1.1C175.9,100.2,175.9,98.9,175.9,97.6z"/>
	<path class="st0" d="M148.1,69.8c1.9,0.1,3.7,0.4,5.6,0.3c2.8-0.2,5.3,0.6,7.9,1.4c2.4,0.7,4.4,2.1,6.4,3.5
		c0.2,0.1,0.4,0.5,0.4,0.5c-0.2,0.3-0.6,0.7-0.8,0.6c-0.9-0.2-1.8-0.4-2.5-1c-1.8-1.6-4.2-1.8-6.2-2.8c-2.2-1-4.4-0.3-6.6-0.6
		c-1.7-0.2-3.4,0-5.1-0.1c-0.3,0-0.7-0.4-1-0.6c0.3-0.4,0.6-0.9,1-1.2c0.2-0.2,0.7-0.1,1-0.2C148.1,69.8,148.1,69.8,148.1,69.8z"/>
</g>
</svg>
