<?xml version="1.0" encoding="utf-8"?>
<!-- Generator: Adobe Illustrator 19.2.1, SVG Export Plug-In . SVG Version: 6.00 Build 0)  -->
<svg version="1.1" id="Layer_1" xmlns="http://www.w3.org/2000/svg" xmlns:xlink="http://www.w3.org/1999/xlink" x="0px" y="0px"
	 viewBox="0 0 181.2 300" style="enable-background:new 0 0 181.2 300;" xml:space="preserve">
<style type="text/css">
	.st0{fill:#673AB7;}
</style>
<g id="ipad-lady-2">
	<path class="st0" d="M23.3,300c0.2-1.1,0.4-2.2,0.5-3.3c0.2-1.4,0.3-2.8,0.5-4.2c0.2-1.7,0.4-3.4,0.6-5.1c0.4-2.7,0.9-5.3,1.5-8
		c0.2-1.2,0.7-2.5,1-3.7c0.8-3.2,2.4-6.1,3.6-9.1c0.2-0.4,0.4-0.9,0.7-1.3c0.9-1.1,1.1-2.4,1.2-3.7c0.2-3.2,0.7-6.3,2.1-9.2
		c0-0.1,0.1-0.2,0.1-0.3c0,0,0-0.1,0-0.1c-2.3,1.7-4.2,3.8-6,6.1c-0.7,0.9-1.6,1.7-2.4,2.5c-1.1,1-5.8,2.4-7.3,2.4
		c-1.7-0.1-3.2-0.6-4.6-1.4c-1.1-0.7-2.3-1.2-3.4-1.7c-2.7-1.3-4.8-3.2-6.4-5.7c-0.3-0.5-0.7-1.1-1.1-1.6c-1.5-2-2.3-4.4-3.2-6.7
		c-0.4-1.1-0.6-2.2-0.6-3.4c0.1-1.4,0-2.8,0-4.2c0.1-3.5,0.3-7,1.1-10.5c0.5-2.2,0.9-4.5,1.4-6.7c0.3-1.3,0.6-2.6,1.1-3.8
		c0.7-2.1,1.5-4.3,2.4-6.4c0.6-1.5,1.5-3,2.2-4.5c0.6-1.4,1.2-2.8,1.6-4.2c0.7-2.3,1.4-4.7,1.6-7.1c0-0.5,0.2-1,0.2-1.5
		c0-1.7,0.2-3.4,0.5-5.1c0.6-3.7,1.1-7.5,1.8-11.2c0.4-2.1,1-4.1,1.4-6.2c0.6-2.6,1-5.2,1.6-7.9c0.1-0.7,0.3-1.3,0.4-2
		c0.2-1,0.4-2,0.6-3c0.2-0.9,0.5-1.7,0.7-2.5c0.3-1.8,0.6-3.5,1-5.3c0.1-0.6,0.3-1.2,0.5-1.8c0.9-2.7,1.8-5.3,2.6-8
		c1-3.5,2.3-6.8,3.9-10.1c0.6-1.3,1.5-2.4,2.3-3.7c0.7-1.1,1.2-2.2,1.9-3.3c0.6-0.9,1.1-1.8,1.9-2.4c0.5-0.5,1.3-0.8,2-0.9
		c2-0.5,4-1.1,5.8-2.1c4-2.2,8.1-4.2,12.4-5.8c1.5-0.5,2.8-1.3,4.2-1.9c2.3-1,4.5-2,6.8-3c0.3-0.2,0.7-0.4,0.9-0.7
		c1.7-2.4,3.4-4.9,5.2-7.4c0.3-0.5,0.7-1,1-1.5c1.4-2.5,3.6-3.7,6.3-4.3c0.4-0.1,0.8-0.2,1.2-0.3c0.2-1.2,0-2.3-0.6-3.3
		c-2.2-3.4-3.8-7-5.3-10.7c-0.6-1.6-1.3-3.1-1.9-4.7c-0.3-1-0.6-1.9-1.7-2.1c-2.5-1.8-4.7-3.7-5.5-6.8c-0.4-1.7-1-3.4-1.5-5.1
		c-0.2-0.5-0.3-1.1-0.6-1.6c-0.9-2-0.8-4-0.3-6c0.2-1.1,0.9-1.9,2-2.4c-0.4-1.1-0.7-2.3-1.1-3.4c-0.6-1.8-1.1-3.6-1.2-5.5
		c-0.1-1.9-0.3-3.8-0.3-5.7c-0.1-3,0.6-5.9,1.6-8.8c0.7-2,1.3-4,2.2-5.8c1.2-2.6,2.2-5.3,4.2-7.5c1-1.1,2-2,3.1-3
		c0.3-0.3,0.8-0.6,1.1-1c1.7-2,3.8-3.3,6.1-4.4c0.4-0.2,0.8-0.5,1.1-0.7c1.9-1.5,4.1-2.8,6.4-3.4c1.9-0.6,3.9-0.7,5.9-1.1
		C92.5,0,93.1,0,93.8,0c1.3,0,2.6,0,3.9,0.3c2.5,0.6,5,1,7.5,1.6c0.3,0.1,0.5,0.1,0.8,0.2c1.5,0.7,3,1.4,4.4,2.1
		c1.2,0.6,2.3,1.3,3.2,2.2c0.8,0.8,1.8,1.5,2.7,2.4c1.3,1.2,2.4,2.6,3.8,3.8c2.3,1.9,3.2,4.6,4.4,7.1c0.6,1.4,0.9,2.9,1.4,4.3
		c0.4,1.2,0.9,2.3,1.3,3.5c0.3,0.7,0.5,1.3,0.8,2c0.4,1.1,0.7,2.2,1.1,3.3c0.5,1.5,0.5,3.1,0.9,4.7c0.6,2.5,0.6,5.1,0.5,7.6
		c0,0.5-0.2,1.1-0.3,1.6c-0.1,0.7-0.2,1.4,0,2c0.8,2.2,0.7,4.4,0.4,6.5c-0.5,3.8-1.8,7.5-3.2,11.1c-1.1,2.8-3.5,3.8-6.2,4.6
		c0,0-0.1,0.1-0.1,0.1c0,2.5-1.1,4.9-1.5,7.3c-0.1,0.8-0.6,1.6-0.7,2.4c-0.2,1.3-0.5,2.6-0.9,3.8c-0.2,0.6-0.2,1.3-0.1,2
		c0.1,1.5,0.3,3.1,0.5,4.6c0.1,0.5,0.1,1,0.1,1.5c0,0.6,0.3,1,1,1.1c2.2,0.4,4.2,1.4,6.3,2.3c0.1,0.1,0.3,0.2,0.3,0.3
		c0.9,2.7,2.8,4.7,4.5,6.9c1.3,1.7,2.6,3.3,4,5c0.4,0.5,0.9,1,1.5,1.3c1.5,0.8,3,1.6,4.6,2.3c2.2,0.9,4.6,1.7,6.8,2.6
		c2.4,1,4.7,2.2,6.8,3.8c2,1.5,4.1,2.6,6.3,3.7c2.3,1.2,4.7,2.5,6.7,4.1c0.9,0.7,1.9,1.2,2.9,1.8c1.1,0.6,2,1.4,2.5,2.7
		c0.2,0.5,0.4,1,0.7,1.4c1.3,1.6,1.8,3.5,2.1,5.4c0.2,1.2,0.3,2.4,0.5,3.7c0.2,1.3,0.3,2.5,0.5,3.8c0.3,2.3,0.4,4.6,0.7,6.9
		c0.2,1.3,0.6,2.7,0.8,4c0.2,1.3,0.3,2.6,0.3,3.9c0.1,4-0.1,7.9,0.1,11.9c0.2,3.5,0.4,7,0.4,10.5c0,3.5,0,7,0.1,10.4
		c0,1.1,0.2,2.2,0.1,3.2c-0.2,2.6,0.3,5,1.1,7.5c0.4,1.2,0.4,2.5,0.7,3.8c0.5,2.7,0.5,5.4,0.4,8.1c-0.2,4.4-1.1,8.7-1.5,13.1
		c-0.2,1.5-0.6,3-0.8,4.5c-0.2,1.3-0.2,2.7-0.4,4c-0.4,2.9-1.1,5.7-2,8.5c-0.5,1.8-0.6,3.6-0.7,5.4c-0.1,2.4-0.2,4.9-0.4,7.3
		c-0.1,1.6-0.1,3.3-0.6,4.9c-0.4,1.3-0.4,2.6-1,3.8c-0.8,1.8-1.9,3.4-3.7,4.6c-2.1,1.4-4.2,2.7-6.6,3.7c-3,1.2-6,0.9-8.8-0.5
		c-1.4-0.7-2.7-1.4-4-2.1c0.8,2.7,1.7,5.3,2.5,8c1,3.2,2,6.5,2.8,9.8c0.8,3.3,1.2,6.7,1.9,10.1C113,300,68.1,300,23.3,300z
		 M160.1,138.2c0.2,0.8,0.2,0.8-0.1,1.3c-0.6,1-1.2,2.1-1.7,3.1c-0.7,1.3-1.4,2.7-2.1,4c-0.9,1.7-1.9,3.4-2.8,5.2
		c-1.2,2.4-2.3,4.9-2.6,7.7c-0.2,1.5-0.3,3-0.6,4.5c-0.4,2.2-1,4.3-1.3,6.5c-0.5,3.1-0.8,6.2-1.3,9.4c-0.4,2.9-0.7,5.9-0.6,8.8
		c0,1.6,0,3.3,0,4.9c0,1.2,0,2.4,0,3.6c-0.1,3.4,0.4,6.7,0.3,10c-0.1,2.4,0,4.9-0.1,7.3c-0.1,1.9-0.3,3.7-0.7,5.6
		c-0.4,1.8-0.1,3.6-0.2,5.4c2.6,1.1,4.6,2.6,6.5,4.5c1.3,1.3,2.7,2.4,4.2,3.3c2.4,1.4,4.7,3.1,6.8,4.9c0.9,0.8,1.9,1.6,2.5,2.6
		c1,1.7,1.7,3.5,2.5,5.3c0.4,1,0.9,2,1.2,3c0.5,1.4,0.8,2.9,1.3,4.4c0.1,0.4,0.1,0.7-0.2,0.9c-0.3,0.2-0.8,0-1-0.5
		c-0.1-0.1,0-0.3-0.1-0.5c-0.4-1.6-0.8-3.3-1.4-4.8c-0.7-1.8-1.5-3.6-2.4-5.3c-0.6-1.1-1.2-2.4-2.1-3.2c-1.9-1.7-4-3.3-6.1-4.8
		c-1.8-1.2-3.6-2.3-5.1-3.7c-1.1-1-2.1-2.1-3.3-2.9c-2.3-1.7-4.8-2.9-7.7-2.8c-0.7,0-1.5-0.2-2.2-0.4c-0.9-0.2-1.8-0.5-2.7-0.7
		c0,1.1,0,2.1,0,3c0,2.4-0.1,4.8,0.4,7.2c0.4,1.9,0.5,3.8,0.5,5.7c0,1.3-0.5,2.2-1.5,2.9c-1.7,1.3-3.8,1.8-5.7,2.5
		c-2.5,1-5.1,1.5-7.7,1.3c-1.1-0.1-2.2,0-3.4,0c-0.3,0-0.5,0.1-1,0.1c0.8,0.6,1.5,1,2.1,1.4c1,0.7,2.1,1.4,3,2.1
		c1.8,1.4,3.6,2.9,5.8,3.7c0.5,0.2,1.1,0.4,1.5,0.8c1.2,1,2.3,2.1,3.4,3.2c0.4,0.4,0.8,0.8,1.2,1.1c1.7,1.3,3.5,2.5,5.2,3.8
		c1.9,1.4,3.8,2.8,5.7,4.2c2.7,2,5.7,3.8,8.7,5.3c2.6,1.3,5.3,1.5,8,0.5c2.4-0.9,4.6-2.2,6.6-3.8c2.4-1.9,3.7-4.2,3.3-7.3
		c0.3-0.3,0.7-0.6,0.7-0.9c0.2-1.8,0.5-3.6,0.5-5.4c0.1-3.2,0.2-6.4,0.8-9.5c0.4-2.2,1.1-4.3,1.5-6.4c0.4-1.9,0.7-3.9,1-5.9
		c0.3-1.7,0.5-3.4,0.7-5.1c0.1-0.9,0.4-1.9,0.5-2.8c0.3-1.9,0.5-3.7,0.7-5.6c0.6-4.2,1-8.5,0.5-12.8c-0.3-2.1-0.5-4.3-1.3-6.3
		c-0.3-0.7-0.3-1.6-0.5-2.3c-0.1-0.7-0.2-1.4-0.3-2.1c-0.1-0.7-0.1-1.4-0.1-2.1c0-1,0.1-1.9,0.1-2.9c0-1.3-0.2-2.6-0.2-3.9
		c0-2.5,0-5,0.1-7.4c0-0.6-0.1-1.2-0.1-1.9c0-0.8,0.1-1.6,0.1-2.4c-0.1-2.4-0.2-4.7-0.3-7.1c-0.1-3.7-0.1-7.4-0.2-11
		c0-0.6-0.1-1.1-0.2-1.7c-0.3-2-0.7-4-1-6c-0.1-0.7-0.1-1.5-0.2-2.3c-0.2-1.7-0.4-3.3-0.6-5c-0.3-2.1-0.4-4.1-0.8-6.2
		c-0.3-1.5-0.5-3.1-1.5-4.4c-0.5-0.7-1-1.4-1.3-2.2c-0.4-1.1-1.2-1.8-2.2-2.3c-1-0.6-2.1-1.1-3-1.8c-2.1-1.7-4.4-2.9-6.7-4.1
		c-2.2-1.1-4.4-2.3-6.4-3.8c-2-1.5-4.2-2.8-6.6-3.6c-3.1-1.1-6.2-2.3-9.2-3.7c-0.2-0.1-0.5-0.2-0.9-0.3c0.6,0.8,1,1.4,1.4,2.1
		c0.5,0.9,1,1.7,1.3,2.7c1,3.3,1.7,6.7,1.7,10.2c0,1.3,0.1,2.6,0,3.8c-0.1,1.1-0.2,2.3-0.4,3.4c-0.3,1.6-0.8,3.1-1.1,4.6
		c0,0.2-0.1,0.4-0.2,0.6c-0.2,0.4-0.6,0.4-1,0.3c-0.4-0.1-0.9-0.3-0.7-0.6c0.3-0.8-0.2-1.1-0.6-1.5c-1.1-1.1-2.2-2.2-3.4-3.2
		c-1.6-1.5-2.9-3.3-4.1-5.1c-0.5-0.8-1-1.5-1.6-2.2c-1.1-1.1-2.2-2.1-3.7-2.6c-0.8,0.9-1.5,1.6-2.2,2.4c-0.7,0.7-1.5,1.1-2.4,1.2
		c-1.7,0.1-3.4,0.3-5.1,0.4c-0.7,0-1.2,0.2-1.7,0.7c-1.1,1.1-2.2,2.2-3.4,3.2c-2.5,2.1-5.2,4-7.7,6.1c-1.7,1.4-3.5,2.8-5.1,4.4
		c-1.5,1.5-2.9,3.1-4.4,4.6c-0.9,0.9-1.9,1.8-3,2.6c-1.2,0.9-1.8,2-1.4,3.6c0.2,0.8,0.1,1.6,0.2,2.4c0,0.4,0,0.7,0.1,1.1
		c0.2,0.7,0.5,1.4,0.7,2.2c0.6,0.1,1.3,0.2,2.1,0.2c4.3,0.1,8.6,0.2,12.8,0.2c4.3,0.1,8.6,0.2,13,0.2c4.2,0.1,8.5,0.1,12.7,0.1
		c0.4,0,0.8,0,1.2,0.1c1.2,0.3,2.1,1.3,2,2.6c-0.1,2-0.2,4-0.3,6c-0.2,3.2-0.4,6.4-0.6,9.5c-0.1,1.9-0.2,3.7-0.3,5.6
		c-0.1,2.3-0.4,4.5-0.4,6.8c-0.1,3.5,0,7,0,10.6c0,0.4,0.1,0.7,0.2,1.1c0.2,1.2-0.1,2.3-1,3.1c-0.7,0.7-1.7,1.1-2.7,1.6
		c-0.5,0.3-1.1,0.5-1.7,0.5c-1.4,0-2.9,0-4.3-0.1c-1.6,0-3.3,0-4.9,0c-0.2,0.8,0.2,1.3,0.5,1.9c1.2,2,3.1,3.2,4.9,4.5
		c0.7,0.5,1.3,0.9,1.9,1.4c1.2,1,2.2,2.1,3.4,3c2.5,2,5,3.8,7.5,5.7c0.2,0.1,0.5,0.3,0.7,0.2c1.3-0.2,2.5,0,3.6,0.5
		c1.6,0.6,3.4,0.5,5.1,0.7c0.5,0.1,0.7-0.2,0.8-0.7c0-0.5,0-1,0-1.6c0.1-0.8,0.2-1.7,0.3-2.5c0.2-1.5,0.6-3.1,0.6-4.6
		c0-4.4-0.1-8.7-0.2-13.1c0-0.5-0.2-0.8-0.7-1c-1.2,0.9-2.4,1.7-3.5,2.7c-2.2,1.9-4.3,4-6.4,5.9c-0.3,0.3-0.6,0.6-0.9,0.7
		c-0.2,0.1-0.6-0.1-0.8-0.3c-0.1-0.1,0.1-0.5,0.2-0.7c0.3-0.3,0.6-0.5,0.9-0.7c1.6-1.5,3.3-3.1,4.9-4.6c0.8-0.7,1.5-1.4,2.4-2
		c1.3-0.9,2.4-2,3.3-3.3c0.5-0.7,0.8-1.4,0.7-2.3c-0.1-1.6-0.1-3.3-0.1-4.9c0-2.2,0.2-4.4-0.1-6.6c0-0.2,0-0.5,0-0.7
		c0.3-2.1,0.7-4.2,1.1-6.2c0.3-1.8,0.6-3.6,0.8-5.4c0.2-1.5,0.4-3,0.7-4.5c0.5-2.5,1.1-5.1,1.3-7.7c0.1-1.8,0.4-3.6,1-5.3
		c1.1-2.8,2.5-5.5,3.9-8.2c0.6-1.3,1.4-2.5,2-3.8c0.9-1.7,1.8-3.4,2.7-5.1C159.4,138.2,159.6,138,160.1,138.2z M63.3,108.8
		c-1.8,0.8-3.5,1.4-5.1,2.1c-1.8,0.8-3.4,1.7-5.2,2.4c-3.4,1.3-6.8,2.8-10,4.6c-2.4,1.3-4.7,2.7-7.5,3.1c-1.8,0.3-3,1.3-3.8,2.9
		c-0.9,1.7-1.8,3.4-2.9,5c-1.9,2.9-3.2,6.1-4.2,9.4c-1,2.9-1.7,5.8-2.7,8.7c-0.6,1.7-1.3,3.3-1.5,5.1c-0.3,1.9-0.3,3.8-1.2,5.6
		c-0.1,0.2-0.1,0.4-0.1,0.6c-0.2,1-0.4,2-0.6,3c-0.2,0.9-0.4,1.9-0.6,2.8c-0.4,2.2-0.8,4.5-1.3,6.7c-0.6,2.7-1.2,5.4-1.8,8.1
		c-0.5,2.3-0.8,4.6-1.2,7c-0.3,1.8-0.7,3.6-0.7,5.4c-0.1,2.7-0.6,5.4-0.8,8.1c0,0.2,0,0.5-0.2,0.7c-0.6,0.9-0.7,2-1.1,3
		c-0.5,1.2-0.9,2.5-1.4,3.7c-0.9,1.9-1.9,3.8-2.7,5.7c-1,2.6-1.9,5.2-2.7,7.8c-0.7,2.5-1.1,5.1-1.6,7.6c-0.6,2.8-0.9,5.6-1,8.4
		c-0.1,2.4-0.1,4.9-0.1,7.3c0,0.2,0,0.4,0.1,0.6c0.9,2.1,1.6,4.3,2.6,6.4c0.6,1.3,1.5,2.4,2.3,3.6c1.2,1.8,2.8,3.2,4.7,4.2
		c1.9,1,3.8,1.9,5.6,2.9c1.3,0.7,2.8,0.8,4.1,0.4c1.2-0.4,2.4-0.7,3.6-1.1c0.6-0.2,1.2-0.6,1.7-1c0.7-0.6,1.3-1.3,1.9-2
		c1.4-1.6,2.8-3.3,4.4-4.8c1.5-1.3,2.9-2.6,4.1-4.1c1.6-2,3.4-3.7,5.1-5.5c1.8-2,3.5-4.1,4.9-6.5c0.9-1.5,1.7-3.1,2.4-4.7
		c0.2-0.5,0.5-1,0.8-1.6c-3.2-1.6-5.7-3.9-8.3-6.2c-0.5,0.7-1,1.2-1.3,1.8c-1.5,3-4,5.2-6.1,7.6c-0.7,0.8-1.5,1.6-2.3,2.5
		c-0.2,0.2-0.4,0.5-0.7,0.7c-0.3,0.3-0.7,0.3-1-0.1c-0.3-0.3,0-0.6,0.2-0.8c1.6-1.7,3.2-3.4,4.8-5.2c1.2-1.4,2.4-2.8,3.4-4.3
		c0.7-1,1.3-2,2-3.2c-1.7-1.9-3.5-3.8-5.2-5.7c-2.2,1.5-4.2,2.9-6.2,4.3c-0.4,0.3-0.8,0.5-1.3,0.7c-0.2,0.1-0.6,0.1-0.8,0.1
		c-0.2-0.1-0.4-0.3-0.5-0.6c0-0.1,0.2-0.4,0.4-0.5c0.6-0.3,1.2-0.5,1.7-0.8c1.5-1,3.1-2,4.6-3.1c0.4-0.3,0.8-0.6,1.2-1
		c-1.5-1.8-2.8-3.6-4.2-5.2c-0.7,0.5-1.2,1-1.9,1.4c-0.7,0.4-1.4,0.8-2.1,1.1c-3.4,1.5-6.2,3.8-8.7,6.5c-1.5,1.6-3.2,3.1-5,4.3
		c-2,1.3-3.4,3-4.4,5c-0.2,0.4-0.5,0.7-0.7,1c-0.7-0.5-0.7-0.5-0.5-0.9c1-2.3,2.2-4.4,4.5-5.8c2.1-1.3,4-2.8,5.7-4.8
		c0.9-1,1.9-1.9,3-2.8c2.2-2,4.9-3.2,7.6-4.5c0.7-0.3,1.2-0.9,1.7-1.5c1.5-1.8,3-3.6,4.5-5.4c0.6-0.8,1.3-1.5,1.9-2.3
		c0.6-0.8,1.2-1.6,1.8-2.3c0.8-0.8,1.4-1.7,1.5-2.9c0.2-1.5,0.4-3,0.8-4.5c0.6-2.8,0.5-5.6,0.2-8.4c-0.2-2.4-0.8-4.8-1.3-7.2
		c-1-4.9-1.6-9.8-1-14.8c0.1-0.7,0.2-1.3,0.2-2c0-2,0.1-4.1,0-6.1c-0.1-3.1-0.1-6.3-0.9-9.4c-0.8-3.2-1-6.6-2-9.7
		c-0.1-0.3,0-0.6,0.1-0.9c0.1-0.2,0.5-0.4,0.7-0.3c0.2,0,0.4,0.4,0.4,0.6c0.1,0.5,0.2,1.1,0.3,1.6c0.7,3.6,1.5,7.3,2.2,10.9
		c0,0,0,0.1,0,0.1c0.1,1.9,0.2,3.8,0.2,5.7c0,4.3-0.2,8.6-0.2,12.8c0,1.3,0.1,2.6,0.2,3.8c0.2,1.8,0.2,3.7,0.6,5.5
		c0.6,2.4,1.3,4.8,1.5,7.4c0.3,3.4,0.6,6.8,0,10.1c-0.2,1.3-0.4,2.7-0.6,4.1c0.9-0.8,1.8-1.5,2.6-2.4c1.3-1.4,2.6-2.8,4.2-3.8
		c0.8-0.5,1.2-1.2,1-2.3c-0.5-3.2-1-6.4-1.5-9.6c-0.9-5.8-1.8-11.7-2.6-17.5c-0.3-2,0.8-3.2,2.8-3.3c1.2,0,2.5,0.1,3.7,0.1
		c1.3,0,2.5,0,3.8,0c0-0.4,0.1-0.6,0.1-0.7c0.1-1.5,1.4-2.8,3-2.7c0.6,0,1.1-0.1,1.7-0.1c0.8-0.1,1.5,0.2,2.1,0.7
		c0.2,0.1,0.4,0.3,0.5,0.4c0.2-0.4,0.3-0.9,0.5-1.2c1.8-2.3,5.6-3.1,7.8,0.1c0.9,1.3,1.9,2.5,2.9,3.9c4.5,0.1,9.1,0.2,13.7,0.3
		c0.1-1,0-1.9-0.3-2.8c-0.5-1.7-1.6-3.1-2.5-4.6c-1.1-1.9-2.3-3.9-4.1-5.2c-1.4-1-2.6-2.2-3.7-3.6c-0.3-0.4-0.7-0.7-1.1-1.1
		c-0.8-0.9-1.6-1.8-2.3-2.7c-0.7-0.8-1.3-1.6-2-2.4c-0.8-0.9-1.7-1.7-2.5-2.6c-0.8-0.9-1.3-1.9-1-3.2c0.4-1.8,0.8-3.6,1.4-5.3
		c0.5-1.5,0.5-3-0.2-4.4c-0.5-1-1.2-1.9-1.8-2.8c-0.4-0.6-0.9-0.5-1.2,0.1c-0.3,0.7-0.6,1.4-0.8,2.1c-0.3,1.4-1,2.6-1.8,3.7
		c-0.6,0.9-1.3,1.6-1.7,2.6c-0.9,2.2-2.4,4.1-3,6.4c-0.1,0.4-0.3,0.7-0.8,0.6c-0.4-0.1-0.5-0.5-0.4-0.9c0.2-1.6,0.4-3.2,0.6-4.7
		c0.2-1.7,0.5-3.4,0.6-5.1c0.2-3.3,0.9-6.4,2.6-9.2c0.8-1.4,1.6-2.7,2.5-4.1C63,109.4,63.1,109.2,63.3,108.8z M67.2,53.1
		c-0.1,2.3,0.2,4.6,0.8,6.9c1,3.8,2,7.7,3.1,11.6c0.2,0.9,0.4,1.9,0.7,2.8c0.6,1.6,1.3,3.1,1.9,4.7c1.2,3,2.5,5.9,4.1,8.7
		c1.1,1.9,2.2,3.8,4,5.2c0.7,0.6,1.5,1.2,2.2,1.9c1.6,1.6,3.4,2.8,5.4,3.7c0.7,0.3,1.5,0.6,2.3,0.7c1.3,0.2,2.5,0.4,3.8,0.4
		c1,0.1,2,0.2,3,0c3-0.7,5.7-1.9,8.2-3.8c1.5-1.1,2.9-2.3,4.3-3.7c1.2-1.2,2.6-2.4,3.8-3.7c1.6-1.7,2.5-3.8,3.2-6
		c0.5-1.5,0.9-3.1,1.3-4.6c0.5-2,1.1-4,1.3-6.1c0.2-2.9,0.5-5.7,0.8-8.6c0.1-1.3,0.3-2.7,0.4-4c0-1.9,0.7-3.8,0.4-5.8
		c-0.3-2.7-0.9-5.4-2.2-7.8c-1-1.8-2.3-3.4-3.6-5.1c-0.5-0.7-1.3-1.1-1.8-1.7c-3.2-3.7-7.3-6.1-11.9-7.6c-1.4-0.4-2.8-0.7-4.1-1.3
		c-4-1.7-8.2-2.2-12.5-2.3c-0.9,0-1.7-0.3-2.5-0.6c-0.9-0.5-1.4-1.2-1.3-2.2c0.1-3-0.7-5.9-1.4-8.8c-0.3-1.3-1.3-2.3-1.2-3.7
		c0-0.2-0.4-0.5-0.7-0.5c-0.4,0-0.7,0.2-0.6,0.7c0.1,0.7,0.3,1.4,0.5,2.1c0.3,0.8,0.7,1.6,0.9,2.5c0.3,1.1,0.5,2.2,0.6,3.3
		c0.2,1.3,0.4,2.7,0.5,4c0.1,0.8,0.1,1.5,0,2.3c0,0.5-0.2,1-0.4,1.3c-1,1.1-1.9,2.3-3,3.2c-3.4,2.8-5.8,6.2-7.5,10.2
		C67.9,45.1,67.1,49,67.2,53.1z M85.7,276.1c-0.2-5.5-0.5-10.9-0.7-16.5c-0.5,0.4-0.7,0.6-1,0.8c-0.8,0.5-2.2,0.1-2.5-0.8
		c-0.4-1,0-2.3,0.8-3c0.6-0.5,1.1-0.5,1.7,0c0.3,0.2,0.4,0.7,0.8,0.6c0.2-2.6,0.5-5.1,0.6-7.6c0.1-3,0.2-5.9,0.3-8.9
		c0-0.6,0-1.2,0.1-1.8c0.1-1.8,0.3-3.6,0.5-5.4c0.2-1.6,0.4-3.2,0.6-4.7c0.1-1,0.1-1.9,0.2-2.9c-0.4,0.1-0.5,0.2-0.6,0.3
		c-0.6,0.7-1.4,0.7-2.2,0.4c-0.9-0.3-1-1-0.9-1.7c0-0.3,0-0.6,0-0.8c0.1-1.6,1.7-2.4,3.1-1.5c0.2,0.1,0.3,0.2,0.5,0.3
		c0-2.1,0.1-4,0-6c-0.1-1.8-0.2-3.7-0.4-5.5c-0.1-1-0.2-2.1-0.3-3.1c-0.2-1.3-0.8-1.8-2.2-1.9c-0.2,0-0.3,0-0.5,0
		c-4.6,0-9.1,0-13.7,0c-1.1,0-1.7,0.4-2.2,1.3c-0.1,0.1-0.1,0.3-0.2,0.4c-1,2.1-2.2,4-3.9,5.6c-0.4,0.4-0.7,0.8-1.1,1.3
		c-1.7,2.3-3.3,4.7-5,7c-1,1.4-1.9,2.8-3.1,4c-1.7,1.6-3,3.4-4.1,5.3c-0.7,1.2-1.1,2.6-1.9,3.9c-1.2,2.1-2.3,4.2-3.9,6
		c-0.6,0.7-1.2,1.4-1.7,2.1c-0.2,0.3-0.4,0.7-0.4,0.9c0.2,0.8,0.5,1.6,0.9,2.3c1.7,2.8,3.4,5.6,4.8,8.6c0.4,1,0.9,2,1.9,2.7
		c0.1,0.1,0.3,0.5,0.2,0.6c-0.1,0.2-0.4,0.4-0.6,0.3c-0.4-0.1-0.8-0.3-1-0.6c-0.5-0.7-1-1.4-1.4-2.2c-1.3-2.8-2.7-5.4-4.4-7.9
		c-0.6-0.9-1.1-2-1.6-3.1c-0.9,1-1.9,2-2.8,3c-1.1,1.3-2.2,2.6-2.2,4.3c0,0.1-0.1,0.1-0.1,0.2c-1.3,2.5-1.6,5.2-2.1,7.8
		c-0.3,1.5,0.3,2.6,1.4,3.4c1,0.8,2.1,1.6,3.2,2.3c1.7,1.1,3.5,2.1,5.5,2.5c1.4,0.2,2.8,0.4,4.1,0.8c2.5,0.7,5,1.4,7.2,2.8
		c0.7,0.5,1.5,0.9,2.3,1.3c0.5,0.3,1.1,0.5,1.7,0.6c1.3,0.2,2.7,0.3,4,0.5c0.7,0.1,1.4,0.4,2.1,0.5c1.3,0.1,2.6,0,3.9,0
		c2.2,0,4.4,0.1,6.6,0.1c2.5,0.1,4.9,0.2,7.4,0.6C84.2,276.2,84.9,276.1,85.7,276.1z M102.9,189.6c0.1-0.1,0.2-0.2,0.3-0.3
		c-0.9-1.6-1.1-3.3-1-5.1c0.1-2.3,1.1-3.9,3.2-5c1-0.5,1.8-0.4,2.7,0.2c1.2,0.8,2,2,2.8,3.1c1.7,2.5,3.5,5.1,5.2,7.7
		c0.7,1.2,1.5,2.5,1.7,3.8c0.4,2.2,0.2,4.4-0.5,6.5c-0.4,1.3-0.8,2.5-1.2,3.8c-0.3,1.1,0,1.5,1.1,1.5c2.7,0,5.4,0,8.2,0
		c0.6,0,1.3-0.1,1.9-0.2c2.1-0.5,2.9-1.5,2.9-3.6c0-3,0-6,0-9c0-0.6-0.1-1.3-0.1-1.9c0.1-1.6,0.2-3.2,0.3-4.8
		c0.1-1.9,0.2-3.8,0.3-5.7c0.1-2.6,0.3-5.3,0.4-7.9c0.1-2.4,0.3-4.8,0.5-7.2c0.1-1,0.1-2,0.1-3c0-1.1-0.5-1.5-1.5-1.6
		c-3.6-0.1-7.1-0.2-10.7-0.2c-2.2,0-4.4-0.1-6.6-0.1c-4.3-0.1-8.6-0.2-13-0.2c-4.1-0.1-8.2-0.2-12.4-0.2c-4.4-0.1-8.9-0.2-13.3-0.2
		c-4.4-0.1-8.8-0.2-13.2-0.2c-4.5-0.1-9-0.1-13.6-0.1c-0.3,0-0.6,0-1,0c-0.8,0.1-1.3,0.6-1.3,1.4c0,0.3,0,0.6,0.1,0.9
		c0.6,4.1,1.2,8.1,1.8,12.2c0.7,4.9,1.5,9.8,2.3,14.7c0.4,2.3,0.9,4.6,0.9,7c0,1.7,0.7,3.3,1.1,5c0,0.2,0.1,0.4,0.3,0.5
		c2.1,2.4,4.7,4,8,4c7.3,0,14.7,0,22,0c0.3,0,0.5-0.1,1-0.2c-0.3-0.4-0.4-0.7-0.7-0.9c-2.4-1.8-4.8-3.5-7.7-4.4
		c-4-1.3-8-2.9-11.8-4.7c-1.1-0.5-2.2-1-3.2-1.6c-1.2-0.8-2.3-1.8-3.4-2.8c-0.2-0.2-0.4-0.4-0.6-0.6c-0.5-0.7-0.5-1.3,0.1-2
		c1-1.1,2.2-1.7,3.7-1.2c3.4,1.1,6.9,2.1,10.3,3.2c0.5,0.2,1,0.4,1.5,0.6c-0.8-1.4-1.7-2.8-2.9-3.8c-2.1-1.8-3.8-4-5.3-6.3
		c-1-1.5-0.6-2.6,1-3.3c0.3-0.1,0.7-0.3,1-0.3c0.9-0.1,1.7-0.1,2.7-0.1c-0.1-0.3-0.2-0.5-0.2-0.8c-0.2-1.4,0.7-2.9,2.1-3
		c1.6-0.2,3.1-0.1,4.5,0.8c1.5,0.9,3,1.8,4.3,3.1c1.5,1.6,3.1,3.1,4.7,4.7c0.6,0.6,1.2,1.2,1.9,1.8c-0.7-2.4-1.5-4.8-2.4-7.1
		c-0.4-1.1-0.4-2.1-0.3-3.2c0.1-1,0.7-1.5,1.7-1.7c1.7-0.3,3,0.4,4.2,1.5c2.6,2.4,4.2,5.5,6.1,8.4c0.9,1.4,1.7,2.7,3,3.7
		c0.8,0.6,1.6,1.3,2.4,2c0.8,0.7,1.6,1.5,2.4,2.1C101.8,189.4,102.4,189.5,102.9,189.6z M145.6,268.9c-1.1-1-2.1-1.7-3.2-2.2
		c-0.9-0.3-1.5-0.9-2.1-1.5c-0.8-0.7-1.5-1.4-2.3-2.1c-0.6-0.5-1.2-0.9-1.9-1.3c-1.2-0.8-2.3-1.6-3.2-2.7c-1.3-1.7-3.3-2.4-5.1-3.5
		c-1.8-1.2-3.5-2.3-5.2-3.6c-0.9-0.7-1.8-1.3-2.8-1.9c-1.4-0.9-2.8-1.8-3.8-3.1c-0.7-0.9-1.5-1.6-2.4-2.3c-0.2-0.2-0.5-0.4-0.7-0.6
		c-1.2-1.2-2.6-2-4.3-2.6c-1.8-0.6-3.3-1.7-4.4-3.2c-0.9-1.2-1.9-2.4-3.1-3.4c-1.8-1.6-2.5-3.9-2.5-6.3c0-2.9,0-5.7,0.9-8.6
		c-4-3.8-7.4-8.3-12.3-11.6c0.1,0.9,0.2,1.6,0.2,2.2c0.2,3.5,0.5,7,0.5,10.5c0.1,2.7,0.1,5.5-0.3,8.1c-0.4,2.8-0.6,5.6-0.8,8.4
		c-0.3,3-0.2,6-0.3,9c-0.1,1.7-0.2,3.4-0.4,5.1c-0.2,3-0.6,6-0.2,9c0.1,1.2,0.2,2.5,0.2,3.7c0.1,2.2,0,4.5,0.1,6.7
		c0.1,1.6,0.3,3.2,0.5,4.9c0.4,0,0.8,0.1,1.1,0.1c2-0.1,4.1-0.3,6.1-0.5c2.9-0.3,5.7-0.6,8.6-0.9c1.3-0.1,2.7-0.1,4.1-0.3
		c2.8-0.4,5.7-1,8.5-1.2c2.9-0.2,5.8-0.7,8.7-1c0.5-0.1,1.1,0,1.6-0.1c2.9-0.5,5.8-1.1,8.7-1.6c2.9-0.5,5.8-1,8.7-1.4
		C143.8,269,144.6,269,145.6,268.9z M87,149.4c0.1,0,0.2,0.1,0.3,0.1c0.3-0.5,0.7-1,1-1.6c1.5-2.1,2.8-4.1,4-6.4
		c1-1.8,2.1-3.5,3.3-5.2c0.5-0.8,1.3-1.6,1.8-2.4c1.1-1.6,2.5-2.8,4.3-3.5c3.1-1.4,6.3-2.7,9.5-4.1c0.5-0.2,1.1-0.3,1.6-0.3
		c0.6,0,1.1-0.2,1.4-0.7c0.1-0.2,0.4-0.4,0.6-0.6c1.7-1.8,3.1-3.9,4.2-6.1c1.9-4,3.7-8.1,4.7-12.5c0.3-1.7,0.2-2.3-1.2-3.2
		c-1-0.7-1.9-1.5-2.9-2.3c-0.8-0.7-1.3-1.6-1.2-2.7c0-0.4-0.1-0.9-0.1-1.3c-0.2-1.8-0.4-3.6-0.6-5.3c-0.2-1.4-0.4-2.7-0.6-4.3
		c-0.6,0.8-1,1.6-1.6,2.1c-2,2-3.9,4-6,5.8c-1.6,1.3-3.2,2.6-5.1,3.6c-1.8,0.9-3.7,1.6-5.6,2.2c-0.4,0.1-0.8,0.1-1.2,0.1
		c-1.7-0.1-3.4-0.2-5.1-0.4c-0.8-0.1-1.6-0.2-2.3-0.4c-1.7-0.6-3.3-1.5-4.8-2.7c-1.6-1.4-3.2-2.8-4.9-4.3c-0.2-0.2-0.4-0.3-0.7-0.5
		c-0.1,2.1-0.2,4-0.3,6c-0.1,1.1,0,2.2-0.3,3.2c-0.6,2-1.8,3.6-3.7,4.6c-0.7,0.4-1.4,0.7-2.1,1.1c-0.5,0.3-0.8,0.7-0.9,1.3
		c-0.2,1.5-0.3,3-0.9,4.3c-0.8,1.9-0.6,3.9-1,5.8c0.4,0.3,0.7,0.5,1,0.8c1.7,1.5,2.9,3.5,4.1,5.5c1.4,2.4,2.5,5,3.7,7.5
		c0.6,1.1,1.2,2.3,1.7,3.4c1.2,2.5,2.2,5,3.5,7.5C85.5,145.2,86.6,147.2,87,149.4z M73.9,193.7c-0.5-0.3-0.8-0.4-1.1-0.6
		c-1.6-0.8-3.1-1.6-4.7-2.3c-2.7-1-5.5-1.9-8.3-2.9c-1-0.3-2-0.6-3.1-0.3c-0.4,0.1-0.8,0.2-0.7,0.9c1.5-0.3,2.6,0.2,3.6,1.4
		c0.6,0.7,1.1,1.2,0.6,2.1c0,0.1,0,0.2,0,0.3c1.2,1,2.6,1.5,3.9,2.2c3.4,1.7,6.9,2.9,10.5,4.1c1.4,0.5,2.7,1,3.9,1.8
		c1.8,1.1,3.5,2.3,5.3,3.5c0.1,0.1,0.2,0.2,0.3,0.2c0.6,0.5,1.2,1,1.8,1.4c0.9,0.7,1.9,1.3,2.7,1.9c2.8,2.2,5.4,4.5,7.8,7.1
		c1.1,1.2,2.4,2.4,3.5,3.6c1,1.1,1.9,2.3,2.8,3.4c1.9,2.2,3.8,4.4,5.7,6.7c0.4,0.4,0.8,0.8,1.2,1.1c0.9,0.9,2,1.8,2.8,2.8
		c0.8,0.9,1.2,1.1,2.2,0.3c0.5-0.4,1-0.9,1.6-1.1c1.3-0.5,1.8-1.5,2.1-2.7c0.2-0.5,0.4-1.1,0.5-1.6c0.3-1.7,0.9-3.3,1-5
		c0-1.7,0.1-3.4,0.3-5.1c0.1-0.8,0-1.6-0.3-2.3c-0.5-1.2-1.2-2.2-2-3.1c-0.3-0.4-0.6-0.8-0.9-1.2c-0.6-1-1.1-2-1.5-3.1
		c-0.6-1.3-0.4-2.5,0-3.8c0.5-1.7,1.1-3.4,1.5-5.2c0.4-2.4,0.4-4.8-1.1-6.9c-0.8-1.3-1.8-2.4-2.7-3.6c0,0-0.1,0-0.3-0.1
		c-0.2,0.2-0.5,0.5-0.8,0.7c-0.2,0.1-0.4,0-0.6,0c0-0.2-0.1-0.5,0-0.6c0.3-0.4,0.7-0.8,1.1-1.2c-0.6-1-1.3-1.9-2-3
		c-0.6,1.8-1.8,2.8-3.3,3.5c-0.5,0.2-0.9,0.2-1.3-0.3c-0.4-0.6-0.8-1.2-1.3-1.7c-0.3-0.4-0.3-0.7,0-1.2c0.7-1,1.4-2,2-3.1
		c0.1-0.2,0.2-0.5,0.3-0.8c-1.4,0.2-2.4,0.9-3.1,2c-0.8,1.2-0.6,2.5-0.6,3.8c0,0.9,0.3,1.9,0.7,2.7c1.2,2.3,2.4,4.5,3.7,6.7
		c0.5,0.9,1.2,1.8,2.1,2.4c0.2,0.1,0.2,0.4,0.3,0.7c-0.2,0.1-0.5,0.2-0.7,0.2c-0.2,0-0.4-0.2-0.6-0.4c-0.6-0.7-1.3-1.4-1.8-2.2
		c-0.9-1.3-1.7-2.6-2.5-4c-0.3-0.6-0.8-0.9-1.5-1.1c-1.8-0.5-3.2-1.5-4.5-2.8c-0.4-0.5-0.9-0.9-1.4-1.3c-1.3-1.1-2.6-2.3-3.5-3.8
		c-1.3-2-2.6-4.1-3.9-6.1c-0.6-0.8-1.2-1.6-1.8-2.4c-0.8-0.9-1.7-1.8-3-2.1c-0.9-0.2-1.5,0-2.2,0.8c0.7,0,1.3,0,1.9,0
		c0.6,0,0.9,0.1,1.1,0.7c0.2,0.6,0.5,1.3,0.7,1.9c0.3,1.1-0.1,1.9-1.2,2.2c-0.5,0.1-1,0.2-1.5,0.2c0,0.3,0,0.6,0.1,0.8
		c1,2.5,2.1,4.9,3.2,7.4c0.2,0.4,0.5,0.7,1.1,0.5c0.4-0.1,0.9-0.1,1.3-0.1c0.2,0,0.4,0.3,0.6,0.4c-0.2,0.2-0.3,0.4-0.5,0.5
		c-0.5,0.1-1,0.1-1.5,0.2c0,0.1,0,0.2,0,0.3c0.7,1.5,1.4,3.1,2,4.6c0.2,0.5,0.3,0.9-0.5,1.1c-0.1-0.3-0.3-0.6-0.4-0.9
		c-0.6-1.3-1.2-2.5-1.8-3.8c-1.2-2.8-3.6-4.8-5.5-7.1c-1.1-1.3-2.4-2.4-3.6-3.5c-1.7-1.6-3.4-3.2-5.5-4.2c-0.9-0.4-1.9-0.8-2.9-0.6
		c-1,0.1-1.8,0.5-2.2,1.7c0.4-0.1,0.7-0.3,1-0.3c0.5-0.2,1.1-0.3,1.6-0.5c0.7-0.2,1.2,0.1,1.5,0.7c0.4,0.7,0.9,1.4,1.4,2.1
		c0.6,0.9,0.5,1.3-0.5,1.7c-0.4,0.2-0.8,0.4-1.3,0.6c1.6,1.7,3,3.2,4.4,4.8c0.8,0.9,1.7,1.7,2.2,2.8c0.4,0.9,0.5,0.9,1.5,0.5
		c0.4-0.2,0.7-0.3,1.1-0.3c0.2,0,0.4,0.2,0.6,0.3c-0.1,0.2-0.2,0.5-0.4,0.6c-0.5,0.3-1,0.4-1.5,0.6c0.8,1.3,1.5,2.4,2.2,3.6
		c0.3,0.4,0.5,0.9,0.8,1.4c0.2,0.4,0.2,0.8-0.3,1c-0.1-0.2-0.3-0.3-0.4-0.4c-0.8-1.3-1.6-2.6-2.4-3.9c-1.1-1.7-2.1-3.5-3.5-5
		c-0.6-0.6-1-1.3-1.6-1.8c-1.6-1.6-3.2-3.3-4.9-4.8c-1.5-1.3-3.4-1.8-5.4-1c-0.4,0.2-0.9,0.2-0.7,1c0.3-0.1,0.6-0.1,0.9-0.2
		c0.5-0.1,1-0.2,1.5-0.2c0.3,0,0.7,0.2,0.9,0.4c0.4,0.5,0.8,1,1.2,1.5c0.6,0.8,0.6,1.4-0.1,2.2c-0.3,0.4-0.7,0.7-1.1,1.1
		c1.9,2.1,3.8,4.1,5.7,6.1c1.7-0.4,1.7-0.4,1.9,0.4c-0.4,0.2-0.8,0.3-1.3,0.5C72.7,192.1,73.9,192.4,73.9,193.7z M30.6,210.3
		c0.4,0.5,0.7,0.9,1,1.3c1.6,2,3.2,4,4.9,5.9c0.9,1.1,2,2.1,2.9,3.2c1.5,1.9,3.3,3.4,5.2,5c0.7,0.6,1.4,1.1,2.1,1.7
		c0.4-0.4,0.7-0.7,1-1.1c1-1.2,2.1-2.3,3.1-3.5c1.2-1.5,2.5-2.9,3.7-4.4c1.2-1.5,2.2-3.2,3.4-4.7c1-1.2,1.4-2.3,0.8-4
		c-0.6-1.6-1.4-2.8-3-3.5c-1.7-0.9-3.2-2-4.5-3.3c-1.6-1.7-3.1-3.3-4.6-5c-0.7-0.8-1.3-1.7-1.6-2.8c-0.1-0.2-0.2-0.4-0.3-0.7
		c-1.4,1.6-2.8,3-4.1,4.5c-0.6,0.7-1.2,1.3-1.9,2c-0.9,0.9-1.9,1.9-2.5,3.1c-0.3,0.5-0.7,0.9-1.1,1.4c-0.9,1-1.9,2-2.7,3
		C31.8,208.9,31.2,209.6,30.6,210.3z M124.3,122.6c1.1,0.7,2.1,1.1,2.9,1.7c2,1.5,3.3,3.6,4.8,5.6c0.4,0.6,0.8,1.3,1.4,1.8
		c1.1,1.1,2.2,2.2,3.3,3.3c0.7,0.7,1.3,1.3,2.1,2.1c0.2-0.8,0.4-1.5,0.6-2.2c0.7-1.8,0.8-3.7,0.9-5.6c0.1-2.7-0.1-5.3-0.6-8
		c-0.6-3-1.2-6-3.2-8.5c-1.2-1.4-2.1-3.1-3.3-4.5c-1.6-2.1-3.3-4.1-4.9-6.2c-0.8-1-1.5-2.2-2.4-3.3c-0.2,1.9-0.4,3.7-0.5,5.6
		c-0.1,2.9,0,5.8-0.1,8.8c0,1.4-0.2,2.8-0.4,4.2C124.7,119.1,124.5,120.9,124.3,122.6z M104.7,236.6c0.3,0.5,0.5,0.8,0.8,1.1
		c1.1,1.2,2.4,2.1,4,2.7c1,0.4,2,0.8,2.8,1.4c1.5,1.2,3,2.6,4.4,3.8c0.2,0.2,0.5,0.3,0.7,0.3c2.3,0.1,4.6,0.2,6.9,0.3
		c0.4,0,0.8-0.1,1.2-0.1c3.2-0.4,6.1-1.7,9-2.8c0.4-0.1,0.7-0.4,0.9-0.6c0-1-0.7-1.4-1.3-1.8c-1.5-1-3-1.8-4.4-3
		c-3-2.5-6.3-4.4-9.9-6.1c-0.5-0.3-1-0.3-1.6,0c-0.9,0.5-1.7,1-2.6,1.5c-1.3,0.7-2.6,1.5-4,2.1c-1.6,0.7-3.3,1.1-5.1,1
		C106,236.6,105.5,236.6,104.7,236.6z M119.7,230.6c1.1,0.6,2.2,1.2,3.3,1.7c2.1,0.8,3.9,2.1,5.6,3.4c0.8,0.7,1.7,1.3,2.6,2
		c1.7,1.2,3.4,2.3,5,3.4c0.1,0.1,0.3,0.1,0.6,0.1c-0.1-1.8-0.1-3.5-0.4-5.1c-0.4-2.5-0.7-5-0.6-7.5c0-0.8,0-1.5,0-2.3
		c0-0.3-0.1-0.8-0.4-0.9c-1.3-1.1-2.6-2.2-4-3.1c-2.7-1.7-5.1-3.7-7.4-5.9c-1-0.9-2-1.9-3.4-2.3c0.1,0.4,0.3,0.8,0.4,1.2
		c0.1,0.7,0.3,1.4,0.3,2.1c0,1-0.1,2-0.1,3c-0.1,1-0.1,2.1-0.3,3.1c-0.3,2-0.7,4-1.1,6C119.6,229.8,119.7,230.1,119.7,230.6z
		 M86.5,154c0.1,0,0.2-0.1,0.2-0.1c-0.2-1-0.3-1.9-0.5-2.9c-0.4-1.7-0.7-3.4-1.6-5c-0.9-1.6-1.7-3.2-2.6-4.9c-0.7-1.5-1.3-3-2-4.5
		c-1.1-2.3-2.4-4.4-3.4-6.7c-1.3-2.9-2.7-5.6-4.5-8.1c-0.4-0.6-0.9-1.1-1.5-1.6c-0.3-0.3-0.7-0.4-1.1,0c0.6,1.9,0.4,3.7-0.1,5.5
		c-0.5,1.7-0.9,3.4-1.4,5.1c-0.2,0.7-0.1,1.4,0.4,1.9c0.8,0.9,1.6,1.8,2.5,2.8c0.8,0.9,1.6,1.9,2.4,2.8c0.7,0.8,1.4,1.7,2.2,2.5
		c0.5,0.6,1.1,1.2,1.6,1.7c0.7,0.7,1.3,1.4,2,2.1c0.8,0.8,1.8,1.4,2.5,2.2c1.1,1.4,2.1,2.9,3.1,4.4C85.4,152.1,85.9,153.1,86.5,154z
		 M68.9,119c0.2-0.5,0.4-0.8,0.4-1.2c0.2-1.1,0.2-2.1,0.4-3.2c0.4-2.2,1.4-4.3,1.4-6.6c0-0.7,0.5-1.2,1.2-1.6
		c1.1-0.6,2.1-1.3,3.2-1.9c1.3-0.8,2.1-2.1,2.3-3.5c0.3-1.9,0.4-3.9,0.6-5.8c0-0.2-0.1-0.4-0.1-0.6c-1.5,0.1-2.7,0.7-4,1.3
		c-0.2,0.1-0.4,0.4-0.5,0.7c-0.8,2-1.5,4-2.3,5.9c-1.4,3.5-2.8,6.9-4.2,10.4c-0.2,0.4-0.3,0.9-0.4,1.4c0,0.5-0.1,1.1,0.1,1.5
		C67.3,116.8,67.8,117.9,68.9,119z M58.7,206.5c0.4,1.1,0.7,2.1,1.2,3c0.8,1.7,0.4,3-0.8,4.4c-0.9,1.1-1.8,2.2-2.5,3.4
		c-1.5,2.3-3.2,4.5-5.1,6.5c-1.3,1.3-2.5,2.8-3.8,4.3c0.9,0.5,1.7,0.9,2.5,1.3c0.7-1,1.3-1.9,2-2.7c0.6-0.7,1.4-1.1,1.9-1.8
		c1.8-2.3,3.5-4.7,5.3-7.1c1.4-1.9,2.7-3.8,4.3-5.6c1.4-1.6,2.6-3.4,3.3-5.6C64.1,206.5,61.4,206.5,58.7,206.5z M100.7,221.3
		c-0.2,0.5-0.3,0.9-0.3,1.2c-0.3,1.9-0.4,3.9-0.4,5.8c0,1.6,0.4,3,1.2,4.3c0.7,1.3,1.8,2.4,3.2,2.6c1.5,0.3,3.2,0,4.8-0.1
		c0.6,0,1.2-0.3,1.7-0.5c0.7-0.3,0.8-0.7,0.4-1.3c-0.4-0.6-0.8-1.1-1.3-1.6c-1-1.1-2.3-1.9-3.2-3.2
		C104.8,226.2,102.8,223.9,100.7,221.3z M121.6,69.8c1.5-0.3,2.7-1.1,3.9-2c0.2-0.1,0.3-0.4,0.4-0.6c0.5-1.2,1.1-2.4,1.6-3.6
		c0.7-2.1,1.3-4.2,1.9-6.3c0.4-1.5,0.5-3,0.1-4.6c-0.4-1.6-1.7-2.4-3.3-1.8c-0.4,0.2-0.8,0.5-1.1,0.8c-0.7,0.8-1.4,1.7-2,2.6
		c-0.5,0.6-0.5,1,0.2,1.5c0.6,0.4,1.2,0.9,1.8,1.4c1.3,1.1,1.4,3.2,0.4,4.5c-1.2,1.5-2.8,2.7-3.7,4.5c-0.6,0.2-0.5,0.8-0.5,1.2
		C121.3,68.1,121.5,68.9,121.6,69.8z M58.4,128.4c0.1,0,0.1,0,0.2,0.1c0.1-0.2,0.3-0.4,0.4-0.6c0.7-1.2,1.3-2.5,2.1-3.6
		c1.3-1.9,2-4.1,2.9-6.1c1-2.3,1.8-4.6,2.6-6.9c0.2-0.6,0.5-1.2,0.8-1.9c1-2.6,2.1-5.2,3.1-7.8c0.2-0.6,0.4-1.2,0.7-1.8
		c-0.1,0-0.2-0.1-0.2-0.1c-1.4,1.9-2.9,3.8-4.2,5.8c-1.8,2.8-3.4,5.8-5.2,8.6c-1.5,2.4-2.2,5.1-2.5,7.9c-0.2,1.7-0.4,3.5-0.5,5.2
		C58.5,127.6,58.4,128,58.4,128.4z M90.5,146.8c0,0.1,0.1,0.1,0.1,0.2c0.9-0.9,2-1.8,2.8-2.8c2.6-3.2,5.7-5.6,9-8.1
		c3.2-2.5,6.6-4.8,9.3-7.9c0.3-0.3,0.6-0.6,1-0.9c-0.5-0.1-0.9,0-1.2,0.2c-3.2,1.4-6.5,2.8-9.7,4.2c-1.1,0.5-2.2,1.2-2.9,2.2
		c-0.9,1.2-1.8,2.3-2.6,3.6C94.3,140.5,92.4,143.7,90.5,146.8z M124.1,109.4c-0.7,1.6-1.3,2.9-1.8,4.3c-1.7,4.6-4,8.8-7.3,12.4
		c-0.2,0.2-0.3,0.5-0.6,0.9c1.7,0.2,3.2,0,4.6-0.2c2-0.3,3.9-2.2,4.2-4.2c0.2-1.1,0.2-2.3,0.4-3.4
		C124.2,115.9,124.2,112.8,124.1,109.4z M62,54.5c-0.1,1.3-0.2,2.4,0.3,3.6c0.3,0.7,0.5,1.4,0.8,2.1c0.5,1.8,1,3.7,1.6,5.5
		c0.4,1.4,1.2,2.7,2.3,3.7c0.7,0.6,1.5,1.2,2.3,1.8c0.3,0.2,0.6,0.5,1.2,0.2c-0.3-1-0.6-1.9-0.8-2.9c-0.2-1.2-0.8-1.9-1.8-2.5
		c-1.2-0.8-2-1.8-2.7-3c-0.4-0.6-0.6-1.3-0.7-2c-0.2-1.6-0.3-3.2-0.4-4.7C63.9,55.2,63.3,54.6,62,54.5z M71.1,158.6
		c-0.3-0.5-0.5-0.9-0.8-1.3c-0.5-0.6-1-1.1-1.4-1.8c-0.9-1.4-2.1-1.8-3.7-1.6c-0.8,0.1-2.3,1-2.3,1.6c-0.1,1-0.3,2,0.4,3
		C65.9,158.6,68.4,158.6,71.1,158.6z M119.1,95c0.1,0.8,0.2,1.5,0.2,2.2c0,1.4,0.8,2.3,1.8,3.1c0.7,0.5,1.4,1,2.1,1.5
		c0.3,0.2,0.7,0.4,1.2,0.7c0.5-2,0.3-3.8,0.3-5.7C122.8,96.2,121.2,95.2,119.1,95z M122.4,56.3c-0.3,2.8-0.6,5.5-0.8,8.1
		c0,0.1,0,0.2,0.1,0.6c1.1-1.2,2-2.4,3-3.4c0.9-0.9,1.1-2,0.7-3C124.8,57.5,123.8,56.7,122.4,56.3z M68.8,65.8
		c-0.7-2.5-1.3-4.9-1.9-7.2c0-0.2-0.1-0.4-0.2-0.5c-0.6-0.5-1.2-1-1.9-1.5c0.1,1.6,0.2,3.1,0.2,4.6c0,0.2,0.1,0.5,0.2,0.7
		C66.1,63.5,67.2,64.8,68.8,65.8z M55.3,158.4c2.2,0.2,4.3,0.2,6.6,0.1c-0.3-0.5-0.5-0.8-0.7-1.1c-0.9-1.1-1.9-1.6-3.4-1.4
		C56,156.2,55.6,156.5,55.3,158.4z M106.5,186.2c1-0.4,1.8-0.9,2.4-1.8c0.5-0.7,0.5-1.5,0.3-2.2c-0.2-0.7-0.8-1.3-1.5-1.6
		c-0.8,1.3-1.6,2.7-2.4,4C105.7,185.1,106.1,185.7,106.5,186.2z M49.3,198.6c-0.7-2.3-0.3-4.6-1.1-6.9c-0.7,0.4-1.3,0.8-1.7,1.2
		c-0.2,0.2-0.3,0.7-0.2,1C46.9,195.6,47.6,197.3,49.3,198.6z M66.4,56.8c0.2-1.9-1.5-4.6-3.1-5.1c-0.9,0.7-1,0.8-1.1,1.9
		C64,54.1,64.9,55.8,66.4,56.8z M72.3,178.3c-0.6-0.9-1.1-1.8-1.6-2.7c-1,0.1-1.9,0.2-2.6,1.1c0.4,0.5,0.7,0.9,1,1.3
		c1,1.1,1.2,1.1,2.5,0.5C71.8,178.5,72,178.4,72.3,178.3z M129.7,51.3c0.1,0,0.2-0.1,0.2-0.1c-0.3-0.8-0.4-1.8-0.9-2.4
		c-0.5-0.5-1.5-0.5-2.3-0.5c-0.6,0-1.2,0.5-1.6,0.9c-0.5,0.5-1,1.1-0.7,2C126.6,49.4,128.3,49.7,129.7,51.3z M84.7,174.1
		c-0.3,0-0.4-0.1-0.5-0.1c-1.9-0.1-2.2,0.4-1.5,2.2c0.3,0.9,1.6,1.3,2.4,0.7c0.4-0.3,0.5-0.6,0.3-1
		C85.1,175.3,84.9,174.7,84.7,174.1z M63,180.2c0.8,1.1,1.6,2.1,2.3,3.1c0.4-0.3,0.7-0.5,0.9-0.7c0.7-0.6,0.7-0.8,0.1-1.5
		c-0.4-0.5-0.8-0.9-1.2-1.4C64.5,179.8,63.8,180,63,180.2z M59.1,192.2c0.5-0.6,0.6-1,0-1.4c-0.3-0.2-0.5-0.6-0.8-0.9
		c-0.6-0.7-1.4-0.7-2.4-0.2C57,190.6,58,191.4,59.1,192.2z"/>
	<path class="st0" d="M84.6,83.3c0.4-0.3,0.7-0.5,1-0.6c1.7-0.7,3.5-1.4,5.2-2c1-0.4,2-0.5,3,0c0.6,0.3,1.3,0.4,1.9-0.1
		c1-0.7,2.2-0.6,3.2-0.4c2.1,0.3,4,1.2,6,2.1c0.6,0.3,0.6,0.6,0.2,1.1c-0.6,0.7-1.3,1.3-1.8,2c-2.3,3.1-5.5,4.1-9.2,3.7
		c-0.6-0.1-1.3-0.1-1.9-0.2c-2.1-0.2-3.7-1.2-4.9-2.8c-0.6-0.8-1.2-1.6-2.1-2.1C85,84,84.9,83.7,84.6,83.3z M104,83.3
		c-0.8,0.1-1.4,0.1-2,0.2c-1.5,0.3-2.9,0.7-4.3,0.8c-2.3,0.2-4.7,0.2-7.1,0.3c-1.1,0-2.3-0.1-3.4-0.1c1.3,2.4,3.1,3.8,6,3.9
		c0.6,0,1.1,0.1,1.7,0.2c1.9,0.1,3.8-0.1,5.4-1.1C101.8,86.5,102.9,85,104,83.3z M102.8,82.5c0-0.1,0-0.2,0.1-0.3
		c-1-0.3-2.1-0.7-3.1-1c-1.4-0.4-2.7-0.5-4,0.3c-0.7,0.5-1.5,0.3-2.3-0.1c-0.7-0.4-1.4-0.4-2.2-0.1c-1.5,0.6-2.9,1.2-4.6,1.9
		c1.4,0.3,2.6,0.5,3.9,0.4c1.3-0.1,2.7-0.1,4-0.2c1.2,0,2.5,0,3.7-0.1C99.8,83.2,101.3,82.8,102.8,82.5z"/>
	<path class="st0" d="M110.5,47.3c1.9-0.1,3.7,0.6,5.4,1.3c0.4,0.2,1.1,0.3,0.9,0.9c-0.2,0.7-0.9,0.2-1.3,0.1
		c-3-1.3-5.9-0.5-8.8,0.1c-2.2,0.5-4.4,1.2-6.6,1.8c-0.2,0-0.3,0.1-0.5,0.1c-0.3-0.1-0.7-0.2-0.7-0.4c-0.1-0.2,0-0.7,0.2-0.8
		c0.5-0.4,1.1-0.7,1.7-1c2.7-1,5.3-1.9,8.2-2C109.6,47.3,110,47.3,110.5,47.3z"/>
	<path class="st0" d="M80.1,57.2c1.9-0.8,3.7-0.9,5.5-0.5c0.7,0.2,1.4,0.3,2.1,0.5c0.3,0.1,0.7,0.3,0.8,0.6c0.2,0.4-0.3,0.6-0.6,0.7
		c-0.2,0.1-0.4,0.2-0.5,0.3c-1.5,0.5-3.1,1-4.7,1.5c-1.9,0.6-3.7,0.5-5.5-0.3c-0.7-0.3-1.4-0.6-2.1-0.9c-0.4-0.2-0.7-0.4-1-0.6
		c-0.3-0.2-0.6-0.5-0.4-0.9c0.3-0.4,0.7-0.3,1.1-0.1c0.8,0.4,1.5,0.7,2.2,1.1c1.9,1.1,3.9,0.9,5.9,0.3c0.9-0.3,1.8-0.7,2.9-1.1
		c-1.6-0.7-3-0.5-4.4-0.2C81.1,57.6,80.6,57.9,80.1,57.2z"/>
	<path class="st0" d="M108.7,56.4c-0.5,0-1.1,0-1.6,0c-1,0-1.9,0-2.9-0.1c-0.7,0-1.2,0.2-1.8,0.8c2,0.3,3.8,0.7,5.7,0.9
		c1.7,0.2,3-0.8,4.2-1.7c0.3-0.2,0.7-0.4,1-0.4c0.4,0,0.6,0.5,0.3,0.8c-1.3,0.9-2.4,2.2-4.1,2.4c-1.3,0.1-2.6,0.2-3.8-0.2
		c-0.8-0.3-1.7-0.4-2.6-0.3c-1,0-2.1-0.1-3.1-0.3c-0.2,0-0.5-0.4-0.6-0.6c-0.1-0.4,0.3-0.5,0.6-0.6c0.4-0.1,0.7-0.3,1.1-0.5
		c1.2-0.6,2.3-1.3,3.7-1.2c1.2,0.1,2.3,0.2,3.5,0.3c0.2,0,0.4,0.2,0.5,0.3C108.7,56.2,108.7,56.3,108.7,56.4z"/>
	<path class="st0" d="M79.7,49.1c1.8-0.1,3.5,0.1,5.1,0.6c0.4,0.1,0.8,0.3,1.2,0.5c0.4,0.2,0.8,0.5,0.6,1c-0.2,0.5-0.6,0.4-1,0.4
		c-0.7-0.1-1.4-0.3-2.1-0.4c-2.2-0.2-4.4-0.5-6.7-0.6c-1.5-0.1-3.1,0.2-4.4,1.1c-0.3,0.2-0.7,0.3-0.8-0.1c-0.1-0.2,0-0.7,0.2-0.8
		c0.6-0.4,1.2-0.7,1.8-0.9C75.6,49.1,77.7,48.9,79.7,49.1z"/>
	<path class="st0" d="M101,68.3c0.9,1,1.4,2.1,1.3,3.4c-0.1,1.3-1,2.2-2.3,2.2c-0.9,0-1.5,0.4-2.1,1c-0.4,0.4-0.8,0.9-1.3,1.3
		c-1.1,1-3.1,0.7-4-0.2c-0.2-0.2-0.5-0.4-0.7-0.6c-0.4-0.5-1-0.6-1.6-0.6c-0.6,0-1.1,0-1.7,0c-1-0.1-1.6-0.7-1.6-1.7
		c0-1.3,0.7-2.4,1.5-3.3c0.1-0.1,0.4-0.1,0.4-0.1c0.1,0.1,0.2,0.4,0.2,0.5c-0.1,0.3-0.4,0.5-0.5,0.8c-0.3,0.6-0.6,1.3-0.8,2
		c-0.2,0.7,0.1,1,0.8,1c0.5,0,1,0,1.6-0.1c0.8-0.1,1.4,0.2,2,0.7c0.3,0.3,0.7,0.6,1,0.9c1,0.8,2.1,0.8,3.1,0
		c0.3-0.3,0.6-0.6,0.8-0.9c0.7-0.9,1.6-1.4,2.8-1.4c0.8,0,1.5-0.6,1.6-1.5c0.1-0.9-0.1-1.7-0.7-2.4C100.7,69.1,100.4,68.8,101,68.3z
		"/>
</g>
</svg>
