<?xml version="1.0" encoding="utf-8"?>
<!-- Generator: Adobe Illustrator 19.1.0, SVG Export Plug-In . SVG Version: 6.00 Build 0)  -->
<svg version="1.1" id="Layer_1" xmlns="http://www.w3.org/2000/svg" xmlns:xlink="http://www.w3.org/1999/xlink" x="0px" y="0px"
	 viewBox="0 0 150 172.4" style="enable-background:new 0 0 150 172.4;" xml:space="preserve">
<style type="text/css">
	.st0{fill:#E91E63;}
</style>
<g id="medicine-taking2">
	<desc  xmlns:shape="http://adobe.com/products/shape">
		<shape:version>1.0</shape:version>
		<shape:captureDetail>1.000000</shape:captureDetail>
		<shape:sourceImage></shape:sourceImage>
		<shape:source>0</shape:source>
		<shape:platformVersion>shape-android-1.1.117</shape:platformVersion>
	</desc>
	<path class="st0" d="M142.9,88c-3.2-5.1-7.9-9.5-13.6-11.3c-4.7-1.5-9.7-1-14.6-1.5c-4.7-0.4-9.4-1.6-13.7-3.5
		c6.1-9.4,6.5-21.6,3.2-32.3C100.8,28.8,94,19.6,86.4,11.4c-2.6-2.8-5.4-5.6-8.6-7.6c-9.1-5.6-21-4.4-30.7,0
		c-6.8,3.1-13.1,8.1-15.9,15c-1.6,3.9-1.9,8.3-2.3,12.5c-0.7,8.4-1.4,16.9-0.1,25.3c0.7,4.2,1.8,8.6-0.1,12.4
		c-3.3,6.9-6.7,13.9-10,20.8c-7.1,14.7-14.2,29.5-18,45.3c-0.5,2.1-1,4.2-0.7,6.3c3.6-10.4,7.3-20.9,10.9-31.3
		c1.2-3.6,2.5-7.2,4.3-10.5c1.4-2.6,3.2-5,4.8-7.6c4.3-6.9,6.9-14.7,9.6-22.4c1.1-3.3,2.2-6.7,1.5-10.1c-1.9-8.3-1.1-16.9-0.3-25.4
		c0.8-9,2.3-19.1,9.4-24.5c0.1-0.1,0.2-0.2,0.3-0.3c0.4-0.4,1.1-0.1,1.1,0.5c0.1,1.2,0,2.3-0.2,3.5c0.2,1.9,0.2,3.8,0,5.7
		c0.2,1.3,0.3,2.5,0.5,3.8c0.2,1.3,0.3,2.6-0.1,3.9c-0.6,1.8-1.5,3.4-2.4,5c-0.8,3.9-1.5,7.8-2.3,11.7c-1.3,6.6-2.6,13.1-5.1,19.3
		c3-6.5,5.9-12.9,8.9-19.4c0.5,0.9,0.9,1.7,1.4,2.5c-1.5,0.9-2.2,2.6-2.9,4.2c-3.6,8.8-7.2,17.6-10.8,26.4l7.1-12
		c-2.7,5.7-5.4,11.3-8.1,17c5.7-5.5,8-13.6,10.1-21.3c1.2-4.3,2.3-8.6,3.5-12.9c2.3,1.1,2,4.3,1.5,6.8c-2.7,11.4-5.3,22.7-8,34
		c1.5-2,2.6-4.2,3.4-6.5c-0.3,2.1,2.2,3.5,4.3,3.2c2.1-0.3,3.8-1.6,5.8-2.2c3.5-1.1,7.6,0.1,10,2.9c-3.9-5.6-7.8-11.1-11.7-16.7
		c-1.4-2-2.8-4.1-3.4-6.4c-0.9-3.7,0.6-7.5,1-11.3c0.4-3.8-0.9-8.4-4.6-9.4c-0.2-3.4-0.4-7,1.1-10.1c1.4-3.1,5.1-5.5,8.3-4.3
		c10.2,3.7,20.5,7.4,30.7,11.1c2.1,0.7,4.2,1.6,5.5,3.3c1,1.2,1.4,2.8,1.8,4.3c2.6,10.3,3,21.1,1.2,31.5c-0.5,2.8-1.8,6.1-4.6,6.1
		c-0.9,0-1.7-0.4-2.4-1c-0.2,0.1-0.4,0.1-0.5,0c-0.2-0.1-0.3-0.2-0.4-0.4c0,0,0,0,0,0c-1-0.2-1.8-0.6-2.4-1.4c0,0,0,0,0,0
		c-0.3-0.1-0.6-0.3-0.8-0.6c-0.6-0.5-1.2-1.1-1.7-1.6c-0.2-0.2-0.4-0.4-0.5-0.6c-0.1-0.2,0-0.6,0.2-0.7c0.2,0,0.4,0,0.6,0
		c0.6,0.6,1.1,1.2,1.7,1.7c0.1,0,0.1-0.1,0.2-0.1c0-0.1,0.1-0.3,0.2-0.4c0.2-0.2,0.7-0.5,1.1-0.9c-0.5-1.5-1-3-2.1-4.1
		c-2.5-2.4-6.7-1.5-10-0.3c-2.2,0.7-4.7,1.9-4.9,4.2c-0.2,2.4,2.2,4,4.1,5.5c2.3,1.9,4,4.7,4.6,7.6c-5.6,1.6-10.8-6.6-16.2-4.4
		c-7,2.8-14.2,5.8-19.5,11.2c-8.4,8.5-10.4,21.2-11.8,33c-0.4,3.7-1,7.7-3.8,10.2c-2.1,1.9-1.4,5.2-0.7,7.9c1.8,7.8,1.8,16.1,0,23.9
		c1.6-1.5,2.6-3.5,2.8-5.7c0.4,2,1.2,3.9,2.4,5.5c-0.5-4.1-1.1-8.1-1.6-12.2c7.4,1.2,15,0.6,22.2-1.5c1.2-0.4,2,1.2,2.2,2.5
		c0.7,3.8,1.4,7.6,2.1,11.5c-0.2-10.1-0.4-20.2-0.6-30.3c0-0.7,0-1.4-0.4-2.1c-0.9-1.6-3.3-1.3-5.2-1s-4.5-0.2-4.5-2.1
		c0-3.8-2-7.5-5.2-9.6c2.6-2.5,4.1-6,4.3-9.6c-1.6,2.6-3.1,5.1-4.7,7.7c-2.5-0.3-4.5-2.6-5.1-5.1c-0.6-2.5-0.1-5.1,0.7-7.6
		c2.9-9.3,9.8-17.3,18.6-21.6c1,11.4,2.1,23,6.4,33.5c4.3,10.6,12.5,20.2,23.5,23.4c1.7,0.5,3.5,0.8,5.2,0.4c1.4-0.3,2.7-1.2,3.9-2
		c7.8-5.6,14.4-12.6,19.5-20.7c4.4,6.3,8.9,12.5,13.3,18.8c1.7,2.4,3.4,4.9,4.1,7.8c1.3,5.3-1.2,11.2,1.2,16.2
		c1.1-5.1,1.2-10.4,0.5-15.5c1.8,2.6,4.2,4.7,6.9,6.3c-9.2-12.4-18.3-24.9-27.5-37.3c-2.7-3.6-5.9-7.5-10.4-7.8
		c-3.8-0.2-7.9,2.5-11.3,0.7c-1.6-0.8-2.6-2.5-3.5-4.1c-2.5-4.2-5-8.5-7.5-12.7c-0.7-1.2-1.4-2.5-1.1-3.8c0.3-1.3,2.4-2.1,3.1-0.9
		c1.1,2.7,3.1,5.1,5.6,6.6c-4.6-5.8-8-12.4-10.1-19.5c-0.6,0.4-1.1,1.1-0.7,1.8c-1.9-0.9-3.7-2.2-5.2-3.6c2.4-5.2,9.9-7,14.4-3.6
		c-4.7-1.4-10.1-0.1-13.8,3.2c3,1.9,7.1,1.9,10-0.1c1,1,1.1,2.8,0.3,4c-0.6-0.4-1.3-0.9-2-1.2c-0.8-0.4-1.6-0.8-2.5-0.7
		c-0.2,0-0.3,0.1-0.5,0.2c4.4,4.9,8.7,9.8,13.1,14.8c0.8,0.9,2.2,1.8,2.9,0.8c-2.1-5.5-6-10.4-10.9-13.8c1,0.1,2-1.4,1.3-2.2
		c18.8,8.8,35.3,22.3,47.7,39c2.8,3.7,5.8,7.9,10.4,8.9c0.5-3.4-0.3-6.9-2.2-9.7c-0.9,2.6-0.6,5.7,0.9,8.1c-6-6.2-11.9-12.5-17.6-19
		c-1.9-2.2-4-4.9-3.4-7.8c1.6-7.3,1.2-15.1-1.1-22.2c8.5-0.7,17.8-1.2,24.9,3.7c6.8,4.7,9.6,13.3,12.9,20.9c0.5,1.3,1.4,2.7,2.8,2.6
		C148.1,98.9,146.1,93.1,142.9,88z M43.9,66.8c2.9,4.4,5.8,8.9,8.7,13.3c-2.8,1-5.5,2.1-8.3,3.1c-0.8,0.3-1.7,0.6-2.6,0.4
		c-0.6-0.2-1.1-0.6-1.6-1.1c-1-0.9-2-2.1-1.8-3.4c1.1-5.4,2.2-10.9,3.4-16.3c0.1-0.4,0.4-0.9,0.8-0.7C42,63.8,43,65.4,43.9,66.8z
		 M40.3,42.4c-0.3,1.1-0.7,2.1-1.2,3.2c-0.1,0-0.2-0.1-0.3-0.2c-0.1-0.1-0.1-0.3-0.1-0.5c0-0.6-0.1-1.2,0.2-1.7
		C39.1,42.7,39.7,42.2,40.3,42.4z M21.9,157.3c-0.1-0.1-0.2-0.3-0.2-0.5c-0.5-2.6-0.8-5.2-1-7.8c-0.2-1.7-1.3-3.3-0.9-4.9
		c0.9-0.2,1.9-0.2,2.8-0.3c1.3,0,2.7,0,4-0.1c0.8,0,1.6,0,2.3,0.3c-0.9,3-1.6,6-2.2,9c-0.2,1.1-0.7,2.2-1.5,3.1
		c-0.7,0.5-1.4,0.9-2.2,1.2C22.6,157.4,22.2,157.5,21.9,157.3z M29.8,143.5c1.8,0,3.6,0,5.3-0.1c0.3,0,0.6,0,0.8,0.1
		c0.5,0.3,0.5,1,0.5,1.6c0.1,1.2,0.8,2.2,1.2,3.3c0.7,2,0.5,4.3,1.7,6c0.3-0.1,0.8,0.1,0.6,0.4c-0.3,0.2-0.9,0.1-1.1-0.3
		c-0.2,0.3-0.8,0.4-1.1,0.2c-1.3,0.1-2.7,0.3-4,0.4c-2.4,0.2-4.8,0.5-7.1,0.9c1.9-2.9,1.6-6.8,2.9-10
		C30,145.3,30.1,144.4,29.8,143.5z M47,156.6c-7.8,2-15.8,2.7-23.8,2.2c1-0.8,2.2-1.3,3.5-1.4c6.7-0.9,13.6-1.3,20.4-1.2
		C47.2,156.3,47.2,156.6,47,156.6z M40.7,154.6c-0.5-2.9-1.3-5.7-2.4-8.4c-0.4-0.9-0.6-1.9-0.7-2.8c2.4-0.1,4.8-0.1,7.2-0.2
		c0.6,0,1.5,0.2,1.4,0.8c-0.2,3.5,0,7,0.3,10.5C44.6,154.7,42.6,154.8,40.7,154.6z M42.5,140.1c1.4-0.1,2.8-0.1,4,0.7
		c0.1,0.3-0.3,0.4-0.5,0.5c-3.6,0.5-7.3,0.6-10.9,0.7c-4.3,0.1-8.5,0.2-12.8,0.3c-0.8,0-1.7,0-2.2-0.6c0.2-0.5,0.9-0.6,1.4-0.6
		C28.4,140.8,35.5,140.5,42.5,140.1z M31.3,127.4c0.2,0.5,0.3,0.9,0.4,1.4l0.2,0c-0.1,0.1-0.2,0.3-0.3,0.4c-0.1,0-0.3,0-0.3-0.1
		C31.1,128.6,31.1,128,31.3,127.4z M31.5,131.4c0-0.4,0.2-0.8,0.5-1c0.2-0.1,0.5,0,0.7,0.1c2.2,0.9,3.6,3.3,3.5,5.7
		c0,0.6,0.4,1.2,0.3,1.8c-0.1,0.4-0.4,0.8-0.9,0.9c-0.4,0.2-0.9,0.2-1.3,0.2c-1.3,0.1-2.7,0.2-4,0.4
		C30.7,136.8,31.1,134.1,31.5,131.4z M28.5,126.3c0.3,0.3,0.6,0.5,0.8,0.8c0.3,0.5,0.3,1.2,0.3,1.8c0,3.2-0.2,6.4-0.5,9.6
		c0,0.3-0.1,0.5-0.2,0.7c-0.3,0.4-0.8,0.4-1.3,0.4c-1.7,0-3.5,0-5.2,0c0.9-3.9,1.7-7.9,2.3-11.9c0.2-1.4,0.4-2.9,0.4-4.3
		C26.3,124.4,27.4,125.3,28.5,126.3z M104,124.6c-4.8,8.2-12.3,14.5-19.6,20.6c-1,0.8-1.9,1.6-3.1,1.9c-0.9,0.2-1.9,0.1-2.8-0.1
		c-6.9-1.5-12.4-6.7-17.4-11.7c-1-1-2.1-2-2.9-3.2c-2.6-3.5-3.7-7.8-4.7-12c-1.3-5.5-2.6-11-3.9-16.4c-0.3-1.3-0.6-2.7-0.8-4
		c-0.2-1.3-0.3-2.6-0.3-3.9c-0.1-1.3-0.2-2.6-0.2-4c-0.1-0.9,0.2-2.1,1.1-2c1.6,11.1,3.2,22.3,7.4,32.6c3.4,8.3,9,16.3,17.2,19.9
		c2,0.9,4.2,1.5,6.3,1.1c1.3-0.2,2.4-0.8,3.6-1.4c8-4.5,13.8-11.9,19-19.5C103.1,123.2,103.5,123.9,104,124.6z M72.1,91.7
		c-0.8,0.8-2.2,0.5-3.2,1c-0.9,0.5-1.2,1.8-1,2.8c0.2,1,0.9,1.9,1.5,2.8c2.2,3.3,4.2,6.7,5.9,10.3c1.4,3.1,3,6.5,6.1,7.6
		c1.6,0.6,3.3,0.4,5,0.2c1.9-0.2,3.8-0.4,5.7-0.6c1.3-0.1,2.6-0.2,3.8,0.2c2.3,0.7,3.7,3,4.9,5.1c-5.1,8.7-12.6,16-21.3,20.9
		c0.4-2.8,0.5-5.6,0.4-8.5c0-0.7-0.3-1.6-1-1.5c-0.7,3.2-0.9,6.5-0.6,9.8c-6.8-1.7-12.4-6.7-16.2-12.6c-3.8-5.9-5.9-12.6-7.6-19.4
		c-1.5-6.1-2.7-12.2-3.4-18.4c-0.1-0.7-0.1-1.5,0.3-2c0.2-0.3,0.6-0.5,0.9-0.6c1.3-0.6,2.5-1.2,3.9-1.4c1.4-0.2,2.9,0.1,3.9,1
		c2.5,2.4,6.2,3.6,9.6,3.2C70.6,91.6,71.4,91.4,72.1,91.7z M77.3,75.7c0.2,0.4,0.3,1,0.1,1.5c-0.2,0.1-0.4,0-0.5-0.1
		C76.5,76.6,76.8,75.8,77.3,75.7z M81.7,93.2c-0.1,0.1-0.2,0.2-0.3,0.2c-0.8-1.1-1.8-2-2.9-2.8c0.3-0.5,1.1-0.3,1.6,0.1
		C80.8,91.5,81.4,92.3,81.7,93.2z M74.9,84.3c1.3,1.8,2.8,3.5,4.4,4.9c-0.5,0.3-1,0.6-1.6,0.5c-1.4-1.5-2.6-3.2-3.6-5
		C74,84.5,74,84.2,73.9,84C74.2,83.9,74.7,84,74.9,84.3z M72.5,77c-1.5,0.1-3,0-4.3,0.7c-0.8,0.5-1.9,0.6-2.9,0.2c1.4-1,3-1.7,4.7-2
		c0.7-0.1,1.4-0.1,2.1-0.1c0.8,0,1.7,0,2.5,0.1C74.4,76.7,73.4,76.9,72.5,77z M85.4,31.7c-1.6-4.5-3.7-9-7.2-12.4
		c-0.7,0.1-1.1,0.8-1.2,1.5c2.3,1.8,3.8,4.5,5,7.1c0.7,1.6,1.4,3.2,2,4.8c0.3,0.9,0.6,1.9,0.9,2.8c0.1,0.2,0.1,0.4,0.2,0.5
		c0.5,0.8,1,1.7,1.5,2.5c0.4,0.7-0.6,1.3-1,0.8c-0.2,0-0.5,0-0.6-0.3c-0.7-0.9-1.6-1.5-2.6-2.1c-4.2-1.8-8.6-3.3-13-4.4
		c-1.9-0.5-3.8-0.9-5.6-1.7c-1.4-0.6-2.6-1.4-3.9-2.1c-3.5-1.9-7.4-2.8-11.4-3.5c-2.8,0.5-5.6,0.3-5.3-2.5c0,0,0-0.1,0-0.1
		c-0.3-0.8-0.4-1.6-0.4-2.4c-0.1-0.4-0.1-0.7-0.1-1.1c-0.1-0.8-0.1-1.6-0.1-2.4c-0.2-1.8-0.3-3.7-0.1-5.5c0.3-2,1.2-3.8,3.1-4.7
		c0.6-0.3,1.6-0.7,2.6-1c0.2-0.1,0.4-0.2,0.6-0.3c4.1-1.7,8.5-3.2,12.9-3.7s9.1,0.1,13.1,2.2c3,1.6,5.5,4,7.9,6.4
		c8.3,8.4,16.3,17.9,19.5,29.3c1.2,4.4,1.7,9.1,2.2,13.6c0.3,2.7,0.6,5.4-0.2,8c-0.5,2-1.6,3.7-2.8,5.4c-3.2,4.7-7.3,8.8-11.9,12.1
		C92.2,62.9,90.7,46.6,85.4,31.7z M104.6,86.8c0,3.3,0,6.6-0.1,10C98.2,93,92,88.9,86.1,84.5c3.5-3.1,7-6.3,10.5-9.5
		c0.4-0.4,0.9-0.8,1.5-1c1.5-0.5,3.1,0.5,4,1.7C104.5,78.8,104.6,83,104.6,86.8z M109.4,85.2c0.5,5.4,0.4,10.8-0.5,16.2
		c-1.6-1.4-2.4-3.5-2.1-5.6c0.8-6.7,0.3-13.6-1.5-20.1c-0.1-0.5-0.4-1-0.9-1c0.1-0.3,0.1-0.5,0.2-0.8
		C108.1,76.3,109.1,81,109.4,85.2z"/>
	<path class="st0" d="M78.3,48.2c0.1,0.5,0.1,1,0,1.5c-1.7,2.4-4.9,3.6-7.8,3c-0.5-0.1-0.9-0.2-1.2-0.6c-0.3-0.3-0.5-0.9-0.3-1.3
		c0.9-0.3,1.8-0.1,2.7,0c1.5,0.1,3.1-0.4,4.4-1.3C76.8,49.1,77.5,48.4,78.3,48.2"/>
	<path class="st0" d="M47.9,56.4c0.6,0.1,1.2,0.2,1.8,0.3c1.4,0.2,2.9,0.1,4-0.7c1-0.7,1.8-2,3.1-2.1c0.7,0.6,0.2,1.7-0.4,2.4
		c-1.6,1.8-4.2,2.8-6.6,2.4c-0.6-0.1-1.2-0.3-1.7-0.7C47.8,57.6,47.6,56.9,47.9,56.4"/>
	<path class="st0" d="M50.7,48.7c-0.5,0.1-1,0.1-1.6,0.2c-0.3,0-0.6,0.1-0.9,0.2c-0.4,0.2-0.8,0.5-1.2,0.7c-0.5,0.2-1.1,0-1.2-0.5
		c0-0.2,0-0.4,0.1-0.6c0.5-1,1.8-1.4,2.9-1.5c1.1-0.2,2.4-0.2,3.3-0.9c1.2-0.8,2.5-1.5,4-1.9c0.2,0.8-0.2,1.7-0.9,2.2
		c-0.5,0.3-0.9,0.6-1.4,0.9c-0.7,0.4-1.4,0.9-2.1,1.1C51.3,48.6,51,48.7,50.7,48.7"/>
	<path class="st0" d="M78.4,41.3c-0.2,0.4-0.4,0.7-0.6,1c-1.5-0.3-3.1-0.5-4.6-0.4c-1.7,0.1-3.3,0.7-4.7,1.6c-0.9,0.6-2,1.4-3.1,1
		c-0.3-0.1-0.3-0.5-0.2-0.7c0.1-0.3,0.3-0.5,0.5-0.6c1.8-1.4,4-2.3,6.2-2.6C74.1,40.3,76.4,40.6,78.4,41.3"/>
	<path class="st0" d="M71.5,66.6c0.2-0.1,0.2-0.5,0.1-0.7c-0.2-0.2-0.4-0.3-0.6-0.5c-0.3-0.3-0.3-0.8-0.2-1.1c0.2-0.1,0.4-0.1,0.6,0
		c0.5,0.3,1,0.7,1.3,1.2c0.4,0.7,0.2,1.7-0.4,2.2c-0.3,0.2-0.6,0.4-0.9,0.5c-1.7,0.7-3.6,1.2-5.5,1.5c-0.8,0.1-1.6,0.2-2.4,0.3
		c-0.8,0.1-1.7,0.2-2.4-0.3c-0.9-0.5-1.2-1.9-0.6-2.8c0.2-0.2,0.5-0.4,0.7-0.2c0.2,0.4,0.2,0.8,0.3,1.2c0.1,0.4,0.3,0.9,0.8,0.9
		c0.3,0.1,0.6-0.1,0.9-0.2c1.5-0.5,3.4,0.3,4.6-0.7C68.9,67.2,70.2,66.8,71.5,66.6"/>
	<path class="st0" d="M119.8,98.1c0-1.3,0.1-2.5,0.1-3.8c0-0.6,0-1.2,0.3-1.7s1-0.9,1.5-0.6c-1.1,4.6-1.1,9.5,0,14.1
		c0.5,2.1,1.3,4.2,1.4,6.4c-0.6,0.2-1.1-0.5-1.4-1.1c-0.9-1.9-1.5-3.9-1.8-5.9c-0.1-0.8-0.2-1.6-0.2-2.3
		C119.7,101.4,119.7,99.8,119.8,98.1"/>
</g>
</svg>
