<?xml version="1.0" encoding="utf-8"?>
<!-- Generator: Adobe Illustrator 19.2.0, SVG Export Plug-In . SVG Version: 6.00 Build 0)  -->
<svg version="1.1" id="Layer_1" xmlns="http://www.w3.org/2000/svg" xmlns:xlink="http://www.w3.org/1999/xlink" x="0px" y="0px"
	 viewBox="0 0 100 142.5" style="enable-background:new 0 0 100 142.5;" xml:space="preserve">
<style type="text/css">
	.st0{fill:#03A9F4;}
</style>
<g id="taking-medicine">
	<path class="st0" d="M30,135.8c0,0.2-0.3,0.4-0.5,0.4s-0.5-0.1-0.7-0.1c-0.5-0.2-0.9-0.4-1.3-0.7c-0.2-0.1-0.4-0.3-0.5-0.5
		c-0.2-0.4-0.1-1,0.3-1.3c0.3,0.2,0.6,0.5,0.9,0.7c0.4,0.3,0.8,0.6,1.2,0.9C29.8,135.3,30,135.5,30,135.8"/>
	<path class="st0" d="M15.8,109.9c-0.3,0.2-0.7-0.1-1-0.3c-0.3-0.3-0.5-0.7-0.7-1c-0.3-0.5-0.7-0.9-1-1.5c-0.3-0.5-0.6-0.9-0.9-1.3
		c-0.3-0.4-0.5-0.8-0.8-1.2c-0.1-0.2-0.3-0.3-0.3-0.5c-0.1-0.2,0.1-0.5,0.3-0.5c0.3-0.1,0.5,0.1,0.7,0.4c1.3,1.6,2.5,3.3,3.5,5.1
		C15.7,109.2,15.9,109.5,15.8,109.9"/>
	<path class="st0" d="M32.7,33.7c-0.4,0.2-0.8,0.4-1.2,0.3c-0.4-0.1-0.8-0.6-0.5-0.9c0.1-0.1,0.2-0.1,0.3-0.1c0-0.6,0.5-1,1.1-1.3
		c2.1-1.1,4.6-1.6,7-1.3c0.1,0,0.1,0,0.1,0.1c0.2,0.1,0.2,0.4,0.1,0.5c-0.1,0.1-0.4,0.2-0.6,0.3c-1.1,0.3-2.3,0.6-3.3,1.1
		c-0.3,0.1-0.7,0.3-1,0.5C34,33.1,33.4,33.4,32.7,33.7"/>
	<path class="st0" d="M40,35.7c0.2-0.7,1.1-1.2,1.8-1c0.3,0.7-0.1,1.5-0.6,2.1c-0.4,0.5-0.9,1.1-1.6,1.3s-1.5,0.1-2.1,0.5
		c-1.1,0.7-2.6,0.5-3.5-0.4c-0.3-0.3-0.5-0.6-0.6-1c0.7-0.4,1.5,0.1,2.4,0.2c0.6,0.1,1.1-0.1,1.7-0.3C38.3,36.7,39.2,36.3,40,35.7"
		/>
	<path class="st0" d="M9.1,83.8c0.2,0,0.3-0.1,0.4-0.3c0.6,0.2,1.2,0.2,1.8,0.2c2.1,0,4.3,0,6.4,0c0.7,0,1.5,0,2.3-0.2
		c0.4-0.1,0.9,0,1.3,0.2c0.1,0.1,0.2,0.1,0.3,0.1c0.2,0.2,0.1,0.5-0.1,0.6s-0.5,0.2-0.7,0.2c-2.7,0.3-5.5,0.4-8.1,0.3
		c-1.1-0.1-2.3-0.1-3.5-0.5C9.1,84.2,9.1,84,9.1,83.8"/>
	<path class="st0" d="M38.6,132.2c0,0.3,0,0.6,0,0.9c-0.3,0.1-0.5,0.3-0.6,0.5c-0.4,0.4-1.1,0.3-1.6,0.3c-1.3-0.3-2.6-0.6-3.9-1.1
		c-0.2-0.1-0.4-0.1-0.6-0.3c-0.4-0.3-0.7-0.8-0.6-1.3c0.5-0.5,1.1-1.1,1.9-1.1c0.4,0,0.7,0.1,1.1,0.2c0.9,0.3,1.7,0.5,2.6,0.8
		c0.2,0.1,0.5,0.1,0.7,0.3C38,131.5,38.4,131.9,38.6,132.2 M37.7,132.5c-1.3-0.4-2.6-0.7-3.9-1.1c-0.2-0.1-0.4-0.1-0.6-0.1
		c-0.2,0-0.5,0.1-0.7,0.1c0.1,0.3,0.5,0.4,0.7,0.5c0.7,0.2,1.3,0.4,1.9,0.6C36,132.7,37,132.9,37.7,132.5"/>
	<path class="st0" d="M20.9,99.1c-0.3,0-0.6,0-0.9,0c-2.4-2.5-3.5-6-6.1-8.3c-0.3-0.3-0.7-0.6-0.9-1c-0.2-0.4-0.2-0.9,0.2-1.2
		c1.7,1.7,3.2,3.5,4.5,5.5c0.3,0.3,0.5,0.7,0.7,1.1c0.7,1.2,1.5,2.3,2.3,3.5C20.8,98.8,20.9,98.9,20.9,99.1"/>
	<path class="st0" d="M36.2,52.6c1.6,0,3.2,0,4.8,0c0.1,0.1,0.1,0.2,0.1,0.3c-0.2,0-0.4,0.2-0.3,0.4c-0.6,0.2-1,0.7-1.5,1.2
		c-1,1.1-2.1,1.9-3.4,2.6c-0.9,0.6-2.1,0.8-3.1,0.5c-0.1-0.2-0.3-0.3-0.4-0.3c-1.1-0.5-1.4-2.2-0.6-3.1c0.3-0.4,0.9-0.7,1.3-0.9
		c0.4-0.2,0.8-0.4,1.3-0.5C34.9,52.6,35.6,52.6,36.2,52.6 M32.7,56.4c0.2,0.1,0.3,0.2,0.4,0.4c0.6,0.1,1.2-0.1,1.7-0.3
		c1.2-0.5,2.3-1.3,3.1-2.2c-0.2,0-0.3-0.1-0.5-0.1c-0.1,0.2-0.3,0.3-0.5,0.4c-1.3,0.7-2.7,1.3-4.1,1.7c0-0.1-0.1-0.2-0.2-0.3
		C32.7,56.2,32.7,56.4,32.7,56.4 M32.6,55.2c0.2,0.1,0.4,0.1,0.6,0c0.5-0.2,1-0.4,1.5-0.7c0.7-0.3,1.3-0.7,2.1-1
		c-0.7-0.4-1.5-0.1-2.2,0.2c-0.6,0.3-1.2,0.5-1.7,0.9C32.6,54.8,32.6,55,32.6,55.2"/>
	<path class="st0" d="M39.1,118c-0.1-0.5,0.4-0.9,0.9-0.9c0.5-0.1,0.9,0.1,1.3,0.2c0.9,0.3,1.7,0.7,2.7,1c9.1,3.3,19.3,2.1,28.9,3.7
		c0.3,0.3,0.1,0.7-0.2,0.9c-0.3,0.2-0.7,0.1-1,0.1c-3-0.2-6.1-0.5-9.1-0.7c-3.9-0.3-7.9-0.6-11.9-1.1
		C46.7,120.7,42.8,119.4,39.1,118"/>
	<path class="st0" d="M99.9,118.5c-1.1-15.7-4.9-31.1-8.8-46.4c-0.6-2.5-1.3-5.2-2.9-7.4c-2.5-3.5-6.7-5.1-10.7-6.9
		c-3.9-1.8-8-4.3-9.3-8.4c-2-6.5-3.9-12.9-5.9-19.3c-2.1-6.9-4.3-14.1-8.6-19.9S42.7-0.2,35.4,0c-5.3,0.3-10.1,3-14.1,6.4
		c-1.3,1.2-2.7,2.5-3.7,3.9c-3.1,4.4-3.9,10-4.5,15.3c-1.6,13.9-3.3,28.1,0.5,41.4c0.1,0.4,0.3,0.8,0.4,1.2c0,0.4,0.1,0.8,0.2,1.5
		c0.1,0.8,0.8,1.1,1.4,1.2c0.1,0.1,0.3,0.2,0.4,0.4c-3.3,0-6.7,0.1-10.1,0.3c-0.5,1.4-0.5,2.8-0.1,4.2C3,76,1.8,80.5,4.2,82
		c-3.5,3.2-5.1,8.5-3.8,13.1c1.2,4.7,5,8.6,4.9,13.4c0,2.5,3,3.6,5.4,3.8c2.4,0.2,5.3,0.3,6.5,2.4c2.3,4.1,6.1,7.2,10.5,8.7
		c0,1.3-0.1,2.6-0.1,3.9c-2.1,0.1-4.1-0.7-6-1.7c-1.9-0.9-3.8-1.9-5.9-2.1c-2.1-0.2-4.4,0.5-5.4,2.4c-0.9,1.9,0.3,4.7,2.4,4.7
		c-1.8,0.3-2.3,2.9-1.3,4.5c1,1.5,2.9,2.3,4.6,2.9c8.1,2.9,16.7,5.9,25.1,3.7c2.8-0.7,5.4-1.9,8.2-2.8c9.9-3,20.6-0.3,31-0.6
		c7.1-0.1,15.2-2.5,18.2-9C100.2,126,100.1,122.2,99.9,118.5z M75.3,58.5c1.5,0.4,3,0.8,4.5,1.2c0.4,0.1,0.8,0.3,1.1,0.5
		c0.3,0.3,0.5,0.8,0.2,1.1c-4.9,1.7-8.9,6.1-9.9,11.1c-1,5.1-4.6,9.3-8.5,12.9c-4.7,4.2-10.1,8-16.3,8.8c-0.3,0-0.5,0.1-0.7-0.1
		c-0.4-0.2-0.5-0.8-0.5-1.3c0.1-2,0.1-4.1,0.2-6.1c-0.5,0-1.1,0.1-1.6,0.1c0,1.7-0.1,3.4-0.1,5.1c0,0.7-0.1,1.4-0.5,1.9
		C42.9,94,42.4,94,42,94c-2.5,0.1-4.9-0.9-6.9-2.3c-2-1.5-3.6-3.4-5.2-5.3c-0.5-0.5-0.9-1.1-1.1-1.7c-0.3-0.9-0.2-1.8-0.1-2.7
		c0.2-1.9,0.3-3.8,0.5-5.7c0.1-1.2,0.3-2.4,0.9-3.5c0.6-1.1,1.9-1.8,3-1.5c1.1,0.3,2.1-0.5,2.7-1.5c0.6-0.9,1-2,1.9-2.7
		c1.1-0.9,2.8-1.1,3.2-2.4c0.3-0.8,1-1.3,1.7-1.8c0.9-0.6,1.8-1.2,2.7-1.8c0.3-0.2,0.8-0.3,0.9,0c1.5,3.2,4.2,6.2,7.7,6.7
		c1,0.1,2,0.1,3-0.1c6-0.9,11.7-4.1,15.3-8.9C72.9,58,74.2,58.2,75.3,58.5z M80.7,118.6c-0.1,0.6,0.2,1.3,0.6,1.7
		c0.1,0.1-0.1,0.4-0.3,0.5c-0.7,0.5-1.5,0.8-2.3,0.9c0.1-0.5,0.3-1.1,0.4-1.6c0.3-1.1,0.6-2.2,0.9-3.3c0.1-0.2,0.1-0.4,0.3-0.4
		c0.1,0.4,0.1,0.8,0.3,1.1c-0.1,0.1-0.1,0.3-0.2,0.4C80.8,118,80.8,118.4,80.7,118.6z M78.1,118.2c-0.3,1-0.2,2.1-0.7,3.1
		c-0.7,1.5-2.7,2-4.4,2.2c-2.7,0.3-5.4,0.7-8.1,1.1c-4.5,0.6-9.1,1.2-13.7,0.9c-1.2-0.1-2.4-0.2-3.6-0.3c-6.2-0.3-12.3,0.9-18.4,2.3
		c0.7-3.5,1.3-6.9,2-10.4c0.5-2.7,0.9-6-1.1-7.9c-4.5-4.3-5.5-11.7-2.4-17.1c0.7-1.3,1-2.9,0.7-4.4c0.7-0.1,1.1,0.6,1.5,1.1
		c3.1,4.7,9.2,7,14.9,6.7c3.5-0.1,7.1-1.1,10.1-2.9c1.9-1,3.6-2.3,5.3-3.6c3-2.3,6-4.5,8.4-7.4c-0.1,1,0.7,1.8,1.3,2.6
		c1.5,1.8,2.5,4,3,6.3c0.3,1.2,0.4,2.4,0.5,3.7c0.7,6.6,2.5,13.1,5.2,19.1c0.3,0.7,0.6,1.3,0.5,2C79.1,116.5,78.4,117.3,78.1,118.2z
		 M36.2,47.2c-0.2-0.9-1.3-1.6-2.2-1.3v0.7c0.5,0.2,0.9,0.5,1.3,0.9c-0.1,0.9-1.4,0.8-2.3,1.2c-1,0.4-1.6,1.7-2.7,1.6
		c-1.1-0.1-1.5-1.4-1.7-2.5c-0.5-3.4-1-6.9-1.5-10.1c-0.5,0-0.5,0.7-0.6,1.1c-0.1,1.7-1.3,3.3-3,3.7c-1.7,0.3-3.5-0.7-3.9-2.4
		c-0.1-0.7,0.5-1.5,1.3-1.8c0.7-0.3,1.6-0.3,2.3-0.6c0.8-0.3,1.5-0.9,1.5-1.7c-2-0.7-4.2,0.1-6.1,0.9c-0.3-2.4-0.4-4.7-0.3-7.1
		c0-0.7,0.1-1.5,0.2-2.2c0.3-1.7,1.2-3.1,2.1-4.5c1.1-1.5,2.3-2.9,3.9-3.8c2.9-1.6,6.5-1.1,9.8-0.7c1,0.2,2,0.6,2.9,1.1
		c3,1.7,5.4,4.4,7.1,7.5c0,0.2,0.1,0.5,0.2,0.7c0.5,1,1,2,1.4,3c1.3,3.8,1.8,7.9,2,11.9c0.3,3.7,0.3,7.5-0.7,11.1
		c-0.6,2.3-1.7,4.7-3.5,6.3c-1.8,1.7-4.4,2.6-6.7,1.9c-1.3-0.4-2.5-1.3-3.6-2.1c-4.9-3.9-8.9-8.9-11.7-14.5
		c-0.3-0.5-0.5-1.1-0.3-1.7c2,0.2,4.1-0.7,5.4-2.1c0,2,0.2,3.9,0.5,5.9c0.2,1.5,0.9,3.4,2.4,3.7c1.8,0.3,3.1-1.8,4.8-2.1
		C35.7,49.2,36.4,48.2,36.2,47.2z M39.5,64.6c-1.2,1.3-2.7,2.4-4.2,3.4c-0.1-0.2-0.2-0.4-0.4-0.6c-3.3-3.5-5.6-7.7-8-11.8
		C30.4,59.3,34.7,62.5,39.5,64.6z M24.7,89.8c0.1,0.5,0.5,0.9,0.7,1.3c0.2,0.5,0.2,1.1-0.3,1.4c-0.4,0.3-1-0.1-1.2-0.5
		c-0.1-0.5-0.1-1,0-1.5c0-0.1,0.1-0.2,0.1-0.3c0-0.2,0.1-0.4,0.2-0.5C24.4,89.6,24.6,89.6,24.7,89.8z M23.9,93.8
		c0.1-0.1,0.4-0.2,0.5,0c0.1,0.1,0.1,0.2,0.1,0.3c0.1,1.5,0.1,3,0.2,4.5c0.1,1,0.1,1.9,0.1,2.9c0,0.3,0,0.6-0.1,0.9
		c-0.1,0.3-0.5,0.5-0.7,0.4c-0.2-0.3-0.3-0.7-0.5-1.1c-0.1-0.3-0.1-0.7-0.1-1.1c0-2,0.1-4.1,0.3-6.1C23.7,94.2,23.8,94,23.9,93.8z
		 M25.5,104.1c0.1,0.3,0.1,0.5,0.1,0.7c-0.3,0-0.6-0.1-0.8-0.3C24.8,104.2,25.2,104,25.5,104.1z M25.1,88.5
		c-0.5-0.5-0.5-1.3-0.5-1.9c0.1-2.7,0.2-5.3,0.3-7.9c0-0.7,0-1.4,0.1-2.1c0.1-0.7,0.3-1.4,0.5-2.1c0.5-1.5,1.2-3.1,2.6-3.3
		c0,0,0,0,0,0c0.5,0.8,0.1,1.8-0.1,2.7c-1.3,4.7-1.1,9.6-1,14.4c0,1.1,0.1,2.3-0.4,3.3C26.6,90.5,26,89.3,25.1,88.5z M28.5,86.3
		c0,0.2,0,0.4-0.1,0.5c-0.1,0-0.2,0-0.3-0.1c0.1-0.2,0.1-0.4,0.1-0.6C28.4,86.2,28.4,86.3,28.5,86.3z M4,79.4
		c-0.1-0.7,0.3-1.3,0.9-1.5C6.3,77.5,8,78.5,8.2,80c0.1,0.5-0.4,0.9-0.9,1.1c-0.3,0.1-0.6,0.3-0.9,0.3c-0.2,0-0.4,0.1-0.7,0
		C5.5,81.4,5.2,81.2,5,81C4.5,80.6,4.1,80,4,79.4z M4.8,101.6c-1.9-2.7-3.9-5.8-3.7-9.1c0.1-1.9,1-3.7,1.8-5.3
		c0.3-0.6,0.5-1.3,0.9-1.9c0.3-0.8,1.1-1.7,1.9-1.3c0.7,0.4,0.4,1.3,0.2,2.1c-0.3,1.1-0.3,2.5,0.2,3.5c0.7,1.3,2.2,2.1,3.5,2.8
		c0.5,0.3,1.1,0.7,1.3,1.2c0.3,0.5,0.2,1.3-0.3,1.6c-0.3,0.2-0.8,0.1-1.2,0c-2.7-0.7-5-3.1-5.7-5.9c-0.5,0.1-0.7,0.7-0.7,1.3
		c0,0.5,0.3,0.9,0.6,1.4c1.9,2.9,4.2,5.4,6.8,7.6c-0.2,0.7-1.1,1-1.9,0.9c-0.7-0.2-1.3-0.8-1.8-1.3c-1.3-1.5-2.7-2.9-3.2-4.9
		c-0.2-0.2-0.6-0.2-0.7,0.1c0.1,1.1,0.4,2.3,1.1,3.3c0.6,0.9,1.3,1.5,1.9,2.4c0.6,0.8,1.1,1.9,0.9,2.9
		C5.8,102.9,5.3,102.2,4.8,101.6z M16.6,111.3c-1.9,0.1-3.9-0.1-5.9-0.3c-0.9-0.1-1.7-0.1-2.5-0.6c-1.7-1-1.7-3.3-1.6-5.2
		c0-0.3,0.1-0.7,0.3-0.9c0.9-0.7,1.2-1.9,0.7-2.9c1.3,0.2,2.9,0.1,3.4-1.1c0.4-1.1-0.5-2.1-1.4-2.8c-0.9-0.7-2-1.3-2.3-2.3
		c1.2,0.7,2.9,1.5,3.9,0.7c0.9-0.7,0.9-2,0.4-2.9c-0.5-0.9-1.5-1.5-2.4-2.1c-1.1-0.6-2.5-1.3-2.7-2.6c-0.1-0.7,0.1-1.3,0.3-1.9
		c0.3-1.2,0.3-2.5,0.1-3.7c1.4-0.3,2.5-1.7,2.3-3.1S7.8,77,6.4,77C7,77,7.2,76.2,7.2,75.6c0-0.6-0.2-1.3,0.1-1.9
		c0.4-0.7,1.3-0.9,2.1-1c4.4-0.5,8.9,0,13.3,0.5c0.2,0,0.4,0.1,0.5,0.2c0.1,0.1,0.2,0.3,0.2,0.5c0.4,4.3,0,8.7-0.4,13.1
		c-0.7,7.3-1.3,14.5-2,21.8c-0.1,0.9-0.9,1.7-1.7,2.1C18.5,111.2,17.6,111.3,16.6,111.3z M27.1,121.3c-1-0.1-1.8-0.8-2.5-1.5
		c-2.2-1.9-4.3-3.9-6.4-6c-0.1-0.1-0.3-0.3-0.4-0.6c-0.1-0.3,0.1-0.5,0.3-0.6c2-0.3,4.1-1.3,4.7-3.2c0.5-1.6-0.2-3.5,0.9-4.7
		c1.1,1.1,2.1,2.1,3.2,3.1c1.3,1.2,2.6,2.5,2.9,4.3c0.1,0.9,0.1,1.7,0,2.5c-0.1,1.8-0.3,3.6-0.5,5.3
		C29.2,120.9,28.1,121.5,27.1,121.3z M36.4,139.4c0,0.3-0.1,0.7-0.3,0.9c-0.3,0.3-0.7,0.2-1.1,0.2c-0.5,0-1-0.1-1.5-0.1
		c-0.3,0-0.5-0.1-0.7-0.2c-0.3-0.3-0.3-0.7-0.4-1.1c-0.1-0.4,0-0.9,0.3-1.1c0.1-0.1,0.3-0.1,0.4-0.1c0.8,0,1.6,0.1,2.4,0.1
		c0.3,0,0.7,0.1,0.9,0.3C36.5,138.7,36.4,139.1,36.4,139.4z M89.5,135.2c-4.9,1.9-10.2,1.8-15.4,1.6c-5.8-0.1-11.6-0.3-17.4-0.5
		c-1.7,0-3.5-0.1-5.1,0.3c-5.2,1.1-9.8,5.9-14.9,4.6c0.9-0.7,1.2-1.9,0.7-2.9c-0.3-0.8-1.2-1.4-2.1-1.4c1.5-0.1,2.9-0.1,4.3-0.6
		c1.5-0.6,2.9-1.8,3.3-3.4c-1,1.5-2.9,2.1-4.6,2.4c-1.7,0.3-3.5,0.4-5.1,1.2c-1.6,0.8-2.9,2.6-2.3,4.3c-5.7-0.9-11.2-2.5-16.5-4.9
		c-0.8-0.3-1.7-0.9-1.6-1.8c0.1-1,1.5-1.2,2.4-0.9c2.9,0.9,5.4,3.9,8.1,2.8c-3.5-1.5-6.8-3.5-9.8-5.9c-0.7-0.6-1.5-1.3-1.5-2.3
		c0-0.9,1.5-1.7,2-0.9c2.5,3.7,6.2,6.5,10.1,7.9c0.8,0.3,2.2,0.1,2-0.7c-5.3-0.6-9.3-5.1-12.6-9.4c2.2-0.7,3.7,1.9,5.1,3.7
		c1.3,1.8,3.1,3.3,5.1,4.1c1,0.4,2.2,0.7,3.3,0.3c1.1-0.4,1.8-1.7,1.2-2.7c-0.3,1.3-1.8,1.9-3.1,1.7c-1.3-0.1-2.4-0.9-3.3-1.8
		c-1.4-1.2-2.7-2.7-3.7-4.2c2,0.4,3.5,2.1,5.4,2.9c3.2,1.4,6.9,0.2,10.3-0.5c13.8-3.1,28.7,0.9,42.2-3.5c1.9-0.6,3.7-1.3,5.7-1.6
		c2-0.3,4.1,0.1,5.6,1.3v-2.3c-2.4,0.3-4.2-2.3-5.3-4.5c-3.5-7.2-5.8-14.9-6.9-22.9c-0.4-3.1-0.7-6.3-2.4-8.9
		c-0.8-1.2-1.9-2.2-2.3-3.6c-0.7-1.9,0.1-4.1,0.9-5.9c0.7-1.9,1.5-3.7,2.3-5.5c1.5-3.1,3.6-6.4,7-7.3c3-0.8,6.4,0.9,7.7,3.7
		c0.8,1.7,0.8,3.5,1.1,5.3c0.4,2.7,1.3,5.3,2,7.8c4.2,14.1,6.6,28.7,7.2,43.4C98.5,128.7,94.3,133.3,89.5,135.2z"/>
</g>
</svg>
