<?xml version="1.0" encoding="utf-8"?>
<!-- Generator: Adobe Illustrator 19.2.1, SVG Export Plug-In . SVG Version: 6.00 Build 0)  -->
<svg version="1.1" id="Layer_1" xmlns="http://www.w3.org/2000/svg" xmlns:xlink="http://www.w3.org/1999/xlink" x="0px" y="0px"
	 viewBox="0 0 300 271" style="enable-background:new 0 0 300 271;" xml:space="preserve">
<style type="text/css">
	.st0{fill:#03A9F4;}
</style>
<g id="reading-lady">
	<path class="st0" d="M0,271c1.4-3.4,2.8-6.8,4.1-10.2c1.2-3.3,2.2-6.7,3.2-10.1c0.6-2,1.5-3.7,2.9-5.3c1.6-1.8,2.9-3.8,4.3-5.8
		c2-2.8,4.8-4.7,7.6-6.5c4.1-2.7,8.5-5.1,13-7.1c8.1-3.7,16.3-7.5,25-9.8c3.9-1.1,3.9-1.2,3.9-5.2c-0.1-6.4-0.2-12.9-0.2-19.3
		c0-4.6,0.1-9.2,0.2-13.8c0.1-2.8,2.1-4.3,4.2-5.7c1.9-1.3,3.9-1.9,6.3-1.9c12.3,0.1,24.6,0.1,37.3,0.1c-1.4-2.5-2.8-4.8-4-7.2
		c-2.1-4.3-4.2-8.6-6-13c-1.4-3.4-2.5-7-3.7-10.5c-0.1-0.4-0.6-0.9-0.9-0.9c-1.9,0.1-3.3-1.1-4.6-2.2c-2.7-2.2-5.4-4.3-7.3-7.3
		c-2.2-3.5-3.4-7.4-4.3-11.5c-0.5-2.2-1.5-4.3-2.4-6.4c-1.5-3.7-2.1-7.4-0.9-11.2c0.6-2.1,2.1-3.5,4-4.7c-1-2.2-2.1-4.4-3-6.6
		c-1.6-4.2-2.8-8.4-2.6-13c0.1-1.9,0.1-3.8,0-5.6c-0.1-6.1,1.3-12,2.9-17.8c0.7-2.7,1.3-5.5,2-8.2c0.8-2.8,1.6-5.6,2.8-8.1
		c1.9-4,3.9-7.9,6.2-11.7c1.8-3,4.5-5.3,7.1-7.6c2.3-1.9,4.6-3.4,7.4-4.4c4.2-1.6,7.5-4.5,11-7.2c3.3-2.5,6.9-3.8,10.9-4.2
		c6-0.5,12.1-1,18.1-0.8c3.9,0.1,7.9,1.2,11.7,2.1c3.1,0.7,6.1,1.7,9,3c2,0.9,3.7,2.5,5.5,3.9c3.2,2.4,6.3,4.8,9.4,7.2
		c1.1,0.9,2.2,1.7,3.2,2.7c3.2,3.1,6.9,5.9,9.4,9.7c1.4,2.1,2.8,4.3,3.8,6.6c2.5,6.2,5,12.4,7.2,18.7c1.5,4.4,2.4,9,3.6,13.5
		c0,0.1,0,0.3,0,0.5c0.2,3.3,0.5,6.6,0.6,9.9c0.1,2.5-0.2,5-0.2,7.5c0,1.9-0.4,3.8,0.7,5.6c0.4,0.6,0.4,1.4,0.4,2.2
		c0.1,2.8,0.4,5.6,0.2,8.3c-0.2,2.5-0.9,4.9-1.5,7.3c-0.9,3.8-1.8,7.6-3.1,11.3c-1,2.8-2.4,5.5-4.1,7.9c-1.3,1.9-3.5,3-5.9,3.2
		c-0.3,2-0.5,4.1-0.9,6.2c-0.9,4.4-2,8.7-2.8,13.1c-1,5.4-3.1,10.3-5.7,15c-0.8,1.5-1.8,3-2.9,4.6c0.5,0,1.1,0,1.6,0
		c11.3,0,22.6,0,33.9,0c2.7,0,6.4,1.8,6.8,5.3c0.1,0.8-0.2,1.7-0.2,2.5c0,9.1,0,18.3,0,27.4c0,1.8,1.6,2,2.5,2.8
		c1,0.9,2.5,1.5,3.8,2.1c3.6,1.7,7.1,3.3,10.7,4.9c7.6,3.4,15.2,6.8,22.8,10.2c2.4,1.1,4.6,2.4,7,3.5c3.2,1.5,6.4,3.3,9.8,4.4
		c2.5,0.8,4.3,2.1,5.9,4c1.7,2,3.3,4.2,5.4,5.9c3.3,2.7,3.6,6.6,4.8,10.1c1.2,3.7,1.8,7.7,2.6,11.6c0.4,2.1,0.4,4.2,0.6,6.3
		c-0.9,0-1.8,0-2.7,0c-0.1-1.4,0-2.7-0.2-4.1c-0.6-3.2-1.5-6.4-2.2-9.6c-1-4.8-1.8-9.5-5.4-13.2c-1.1-1.1-2.1-2.3-3.2-3.6
		c-3.5,3.4-7,6.5-10.2,9.9c-3.2,3.4-5.3,7.5-6.4,12.1c-0.7,2.8-1.6,5.6-2.4,8.4c-1,0-2,0-3,0c0.6-1.8,1.4-3.5,1.8-5.3
		c1-4.3,2-8.6,4.5-12.4c2.1-3.1,4.3-6,7.2-8.5c2.3-1.9,4.4-4.1,6.7-6.2c-0.9-0.8-1.6-1.8-2.5-2.2c-1.9-0.9-4-1.4-6-2.2
		c-1.7-0.7-3.3-1.4-4.9-2.2c-2.7-1.4-5.4-2.9-8.1-4.1c-7.5-3.4-15-6.7-22.5-10.1c-5.2-2.4-10.4-4.9-15.6-7.4c0,9.3,0,18.6,0,27.9
		c1.1,0.2,2.3,0.2,3.2,0.7c2.7,1.5,4.7,3.7,5.2,6.9c0.1,1,0.2,2,0.5,2.9c0.8,2.3,1.7,4.5,2.5,6.8c1.8,5.1,3.5,10.2,5.2,15.4
		c-0.8,0-1.6,0-2.4,0c-0.6-1.8-1.2-3.7-1.8-5.5c-1.3-3.6-2.7-7.2-3.9-10.9c-0.8-2.5-1.8-5-2.1-7.6c-0.3-3-2.2-4.7-4.4-6.3
		c-1-0.7-2.4,0.1-2.4,1.3c-0.1,2-0.2,3.9-0.3,5.9c-0.1,0.7-0.3,1.3-0.4,2c-0.1,0.4-0.1,0.9,0.1,1.3c2.3,4.2,4.8,8.4,7,12.6
		c1.2,2.3,2.1,4.7,3.1,7.1c-0.8,0-1.6,0-2.4,0c-0.3-0.7-0.6-1.5-0.9-2.2c-2-4.2-3.9-8.5-6.2-12.6c-2.2-3.7-5.1-7-7.5-10.6
		c-2.6-4-5-8.1-7.6-12.1c-1.1-1.7-2.5-3.2-3.8-4.7c-2,4.9-5.9,4.5-10.1,3.5c1.4,2.7,2.5,5.3,4.1,7.6c3.8,5.4,6.3,11.4,9.5,17.2
		c2.5,4.5,3.9,9.7,8,13.2c0.2,0.1,0.2,0.4,0.2,0.7c-1,0-2,0-3,0c-0.3-0.4-0.7-0.8-1-1.1c-2.4-2.2-5.1-4.1-7.3-6.6
		c-3.6-4.1-6.9-8.4-10.2-12.8c-2.1-2.8-4.2-5.6-7-7.8c-2.1-1.6-4.1-3.3-6-5.1c-1.4-1.2-2.6-2.7-3.9-4.1c0.2,5-1.1,6.5-6.7,8.6
		c1,1.3,2,2.5,3,3.7c1.5,1.6,3.2,3.1,4.5,4.8c2.1,3,3.8,6.3,6,9.3c2.8,3.8,5.9,7.3,8.9,10.9c-1.3,0-2.6,0-4,0
		c-2.4-2.2-4.7-4.4-7.1-6.6c-2.6-2.4-5.2-4.7-7.7-7.1c-1.8-1.7-3.6-3.5-5.3-5.3c-0.7-0.7-1.3-1.4-2-2.3c-0.3,3.9-2.2,6.3-5.6,7.3
		c0.3,0.4,0.5,0.9,0.8,1.2c1.1,1.4,2.1,2.7,3.2,4.1c0.7,0.9,1.3,1.8,2.2,2.5c2.2,1.7,3.9,3.8,5.4,6.2c-1,0-2,0-3,0
		c-0.6-0.8-1-1.7-1.7-2.4c-1-1.1-2.2-2-3.1-3c-2-2.4-3.9-4.8-5.9-7.2c-1.5-1.8-3.1-3.5-4.5-5.4c-2.4-3.3-2.7-5.9-0.3-9
		c1.8-2.5,5-4,8-1.7c2.6,2,4.9,4.5,7.2,6.9c1.7,1.7,3.3,3.7,5,5.4c1.7,1.7,3.6,3.1,5.3,4.7c-1-3.4-3.1-6.3-5.5-8.7
		c-1.9-1.9-3.4-4.2-5.2-6c-2.2-2.2-3.9-4.7-5.5-7.3c-2.7-4.2-0.3-7.3,2.4-9.3c1.5-1.1,3.5-1.6,5.3-0.7c2.9,1.5,5.9,2.8,8.1,5.5
		c1.6,2,3.5,3.8,5.4,5.5c2.6,2.3,5.6,4.2,7.9,6.8c3.2,3.5,5.8,7.5,8.8,11.3c1.5,1.9,3.1,3.8,4.7,5.6c0.1-0.1,0.3-0.2,0.4-0.3
		c-0.2-0.4-0.3-0.8-0.5-1.2c-1.2-2.6-2.2-5.1-3.5-7.6c-1.6-3.1-3.3-6.3-5.2-9.3c-2.8-4.6-5.6-9.2-7.4-14.3c-1.1-3-1.6-5.8,0.4-8.7
		c1.1-1.5,3.3-2.7,5.1-2.2c3.4,0.9,6,3,8,5.8c3.4,4.6,6.7,9.2,10,13.8c0.1-1.6,0.3-3.3,0.3-4.9c0-16.8,0-33.6,0-50.3
		c0-0.2,0-0.4,0-0.6c-0.1-2.1-0.7-2.7-2.8-2.7c-45.2,0-90.4,0-135.7,0c-0.4,0-0.9-0.1-1.2,0c-0.5,0.2-1.1,0.6-1.2,1
		c-0.3,1-0.4,2.1-0.4,3.1c0,15.1,0,30.1,0,45.2c0,1,0.2,2,0.4,3.1c0.8-0.1,1.5-0.3,2.1-0.3c2-0.1,4-0.1,5.9-0.4
		c5.9-1.1,11.7-2,17.7-2c1.7,0,3,0.5,3.8,2.1c0.8,1.7,0.9,3.4,0,5c-1.5,2.6-4.2,3.7-6.8,4.8c-3.7,1.6-7.4,3.1-11.2,4.4
		c-4.2,1.5-8.4,2.8-12.6,4.2c-0.5,0.2-1.2,0.5-1.4,0.9c-0.6,1.4-0.9,2.9-1.3,4.4c1.1-0.4,2.4-0.7,3.6-1.2
		c8.2-3.4,16.5-6.9,24.7-10.4c2.8-1.2,5.4-2.5,8.1-3.8c2.7-1.3,5.5-2.4,8.6-2.2c2.5,0.2,4.2,1.7,5.1,3.8c0.8,1.8,0.9,3.9-0.4,5.6
		c-1.6,2-3.6,3.5-6,4.6c-5.2,2.4-10.4,4.9-15.4,7.6c-3.5,1.9-6.6,4.3-9.9,6.4c-0.9,0.6-1.7,1.2-2.5,1.8c2.2-0.7,4.2-1.6,6.3-2.2
		c7.2-2.1,13.7-5.8,20.4-9c2.6-1.2,5.2-2.5,8.1-2.3c2.1,0.1,4.2,0.4,5,2.8c0.7,2,1.2,4.1-0.2,5.9c-1.1,1.5-2.4,2.9-3.9,4
		c-2.5,1.8-5.2,3.3-7.8,4.9c-1.4,0-2.8,0-4.3,0c1.9-1.3,3.9-2.6,5.8-3.9c-2.1-0.1-3.4-1.4-4.1-2.8c-0.7-1.4-0.5-3.2-0.6-4.9
		c-0.4,0.2-1,0.4-1.6,0.7c-7.5,4.2-15.8,6.6-23.8,9.9c-0.9,0.3-1.7,0.7-2.5,1.1c-2,0-4.1,0-6.1,0c0.4-0.5,0.8-1,1.3-1.4
		c2-1.5,4.1-3,6.1-4.5c0.9-0.7,1.6-1.5,2.6-2.1c1.6-1,3.3-1.7,4.8-2.7c4.4-3,8.8-5.9,13.7-8.1c1.2-0.5,2.3-1,3.6-1.6
		c-3.4-2-4.1-4.9-3.1-8.4c-8.6,3.7-17,7.3-25.4,10.9c0.6,1.5,1.3,2.7,1.7,4c0.2,0.7,0.6,1.7-0.5,2c-1,0.3-1.4-0.4-1.7-1.2
		c-0.4-1-0.8-1.9-1.2-2.9c-0.3-0.7-0.7-0.9-1.4-0.5c-1.3,0.6-2.6,1.1-3.9,1.5c-5.3,1.9-10.6,3.8-15.9,5.5c-1.8,0.6-3.8,0.9-5.7,1.2
		c-0.4,0.1-1-0.7-1.5-1.1c0.5-0.4,0.8-1,1.4-1.2c0.7-0.3,1.6-0.1,2.4-0.3c3.3-1.1,6.6-2.2,9.8-3.5c2.1-0.8,4.3-3.8,4.7-5.5
		c-0.7-0.4-1.6-0.6-1.7-1c-0.1-0.6,0.3-1.3,0.7-1.9c0.1-0.2,0.6-0.2,1-0.3c2.4-0.7,4.9-1.3,7.3-2.1c4-1.3,8-2.7,11.9-4.1
		c1.9-0.7,3.8-1.4,5.7-2.1c-1.3-1.1-2.7-2-3.6-3.1c-0.9-1.2-1.3-2.7-1.9-4.3c-0.5,0.1-1.3,0.2-2.1,0.3c-3.5,0.4-7.1,0.7-10.6,1.3
		c-3.1,0.5-6.2,0.6-9.2,1.9c-3.7,1.7-4.1,2.2-3.8,6.2c0,0.5-0.5,1-0.7,1.5c-0.5-0.3-1.2-0.6-1.4-1c-0.3-0.9-0.4-1.9-0.6-3.4
		c-2.5,2.4-4.9,4.4-6.8,6.8c-2.9,3.7-5.4,7.6-8,11.5c-0.7,1.1-1.4,2.4-1.5,3.7c-0.3,3.4-0.3,6.8-0.4,10.1c-0.7,0-1.4,0-2.1,0
		c0-2.9-0.1-5.9,0-8.8c0.1-1.4,0.3-2.9,1-4c1.2-2.2,2.8-4.2,4.2-6.3c2-2.9,3.8-6.1,6.1-8.7c1.5-1.8,2.4-3.6,2.7-5.8
		c0.2-1.2,0.3-2.4,0.7-3.5c1.1-3.6,2.7-6.8,7.3-6.9c0.3,0,0.9-0.5,0.9-0.8c0.1-2.7,0-5.3,0-8.1c-3.7,1.2-7.3,2.1-10.7,3.4
		c-9,3.4-17.8,7.2-26.1,12.1c-2.4,1.4-4.7,3.2-7,4.9c-0.3,0.2-0.5,1.2-0.3,1.4c2.3,2,2.6,5,3.5,7.6c0.9,2.4,1,5.1,1.7,7.5
		c0.9,3.4,1.1,6.8,1.1,10.3c0,1.9,0,3.9,0,5.8c-0.9,0-1.8,0-2.7,0c-0.1-3.2,0-6.5-0.3-9.7c-0.3-3.4-0.9-6.8-1.5-10.2
		c-0.4-2.1-1.5-4.1-2-6.2c-0.4-1.6-1.2-2.8-2.5-3.9c-0.3,0.4-0.6,0.8-0.9,1.2c-1.5,1.9-3,3.8-4.4,5.7c-0.7,0.9-1.2,1.9-1.6,3
		c-0.8,2.3-1.3,4.8-2.1,7.1c-1.6,4.3-3.3,8.6-4.9,12.9C2,271,1,271,0,271z M114.8,170.3c0.2,0,0.5,0,0.8,0c19.4,0,38.7,0,58.1,0
		c1.6,0,3.2-0.2,4.8-0.3c0.3,0,0.6-0.2,0.7-0.4c1.7-2.7,3.5-5.5,5.1-8.3c1-1.9,1.9-4,2.5-6c1.2-4.6,2.3-9.4,3.3-14.1
		c0.6-2.6,0.9-5.2,1.3-7.8c0.2-1.2,0.1-2.5,0.2-3.7c0.5-4,1.1-7.9,1.6-11.9c0.2-1.7,0.1-3.5,0.4-5.3c0.9-4.7,0.9-9.5,0.9-14.3
		c0-0.3-0.1-0.7-0.2-1c-1.2-3.3-2.2-6.6-3.5-9.8C189,83.5,187,79.7,185,76c-0.7-1.3-2.1-2.1-3.1-3.3c-4.4-5.4-9.7-9.7-15.9-12.7
		c-6.8-3.3-14.3-4.7-21.9-5.1c-3-0.2-6-0.7-8.9-1.1c-2.8-0.4-5.5-1.1-8.3-1.3c-5.1-0.4-8.5-2.8-9.5-8.1c-0.6-3.3-1.7-6.5-2.5-9.8
		c-0.9-4-1.7-8-2.7-11.9c-0.2-0.7-1-1.3-1.5-1.9c-0.5,0.5-1.1,0.9-1.6,1.5c-0.2,0.3-0.3,0.9-0.2,1.3c0.6,3,1.1,6.1,1.8,9
		c1.5,6.2,3.2,12.3,4.9,18.4c0.5,1.8,0.5,3.4-0.9,4.9c-0.9,1-1.6,2.1-2.5,3c-2.6,2.8-5.4,5.5-7.8,8.5c-4.1,5.3-8.3,10.5-10.3,17.1
		c-1.7,5.8-2.7,11.6-2.9,17.5c-0.1,3.1,0.8,6.2,1.1,9.4c0.4,4.5,1.8,8.8,3.2,13c1.6,4.6,3,9.2,4.6,13.8c1.7,5,3.2,10.1,5.3,15
		c1.8,4.3,4.3,8.3,6.6,12.4C113,167.2,113.8,168.6,114.8,170.3z M221.4,248.5c0.3-2.4,0.6-4.5,0.7-6.6c0.1-1.8-0.2-3.5-0.3-5.3
		c-0.1-9.6-0.3-19.1-0.3-28.7c-0.1-9.7-0.2-19.5,0.1-29.2c0.1-3.7-2.2-5.6-5.7-5.6c-47.2,0-94.3,0-141.5-0.1c-2.8,0-4.9,1.4-6.8,3.2
		c-0.3,0.3-0.6,0.8-0.6,1.2c-0.2,1.2-0.3,2.5-0.3,3.7c0,3.6,0.2,7.2,0.2,10.8c0,5.3-0.1,10.5-0.2,15.8c-0.1,8.2-0.2,16.3-0.3,24.5
		c0,0.3,0.1,0.5,0.1,0.7c2.1-0.4,4-0.8,5.8-1.2c0.1-1,0.2-1.9,0.2-2.9c0-16,0-31.9,0-47.9c0-1.9,0.6-2.8,2.4-3.3
		c0.7-0.2,1.5-0.3,2.2-0.3c45.4,0,90.9,0,136.3,0c1.5,0,2.5,0.7,3,2.1c0.3,0.7,0.4,1.6,0.4,2.3c0,17.1,0,34.2,0,51.3
		c0,1.1,0.4,2.3,0.2,3.3c-0.7,3.3-0.3,6.2,2,8.8C219.7,246.1,220.4,247.3,221.4,248.5z M200,98.3c0.6,1.4,1.2,2.7,1.8,4
		c1.4,3.1,1.4,6.1-0.4,9c-1.4,2.3-2.7,4.7-5.1,6.2c-0.5,0.3-0.8,1-0.9,1.6c-0.5,2.5-0.8,5.1-1.3,7.6c-0.1,0.6-0.2,1.2-0.4,2.2
		c1.2-0.5,2.2-0.7,2.9-1.2c3.2-2.2,4.5-5.7,5.6-9.1c1.1-3.4,1.9-6.9,2.8-10.3c0.8-2.9,1.3-5.7-0.3-8.6
		C203.6,97.5,202.2,96.9,200,98.3z M88.3,107.7c-2.2-1.2-4.1-2.4-6.1-3.3c-1.7-0.7-2.9,0.3-2.5,2.1c0.3,1.4,0.9,2.8,1.4,4.2
		c0.8,2.3,2,4.6,2.5,7c0.7,3.6,1.8,6.9,3.7,10c1.8,3.1,4.9,5,7.4,7.4c0.6,0.6,1.6,0.8,2.9,1.3c-0.5-1.6-0.8-2.7-1.3-3.8
		c-0.3-0.6-1-1.2-1.5-1.3c-2.4-0.3-3.8-1.7-4.9-3.8c-0.8-1.6-1.4-3.5-2.7-4.6c-1.7-1.5-2-3.3-2.3-5.1c-0.3-1.7-0.2-3.6,0-5.4
		c0.1-1,0.6-2.1,1.2-2.9C86.6,108.9,87.4,108.5,88.3,107.7z M199.1,231.1c0.3,0,0.6,0,0.9,0c1.4-0.2,2.8-0.6,3.3-2.2
		c0.4-1.4,0.7-2.6-0.4-4c-1.5-1.9-3.2-3.2-5.4-4.2c-1.5-0.7-2.9-0.3-3.9,1c-1.6,2.1-1,3.9,0,6.1
		C194.8,230.4,196.6,231.1,199.1,231.1z M124.4,259.3c0-2.2-0.4-3.1-1.6-3.4c-2.2-0.5-4.3-0.1-6.4,0.7c-1.5,0.6-2.3,1.6-2.9,3
		c-1,2.1-0.9,3.4,0.6,4.8c1,1,4.6,1.5,5.6,0.8c0.6-0.4,1.2-0.7,1.7-1.2C122.9,262.6,124.9,261.6,124.4,259.3z M166.1,233.6
		c0.5,2.3,1.8,4.2,3.2,6.1c0.1,0.2,0.4,0.2,0.7,0.3c2.1,0.8,3.8-0.3,5.3-1.4c2.3-1.7,1.5-4,0.8-6.2c-0.2-0.6-0.9-1-1.4-1.4
		c-0.4-0.3-0.9-0.4-1.3-0.7c-1.8-1.8-3.6-0.9-5.2,0.2C167,231.1,165.9,232,166.1,233.6z M107.7,244.6c-0.2,3.7,3.1,5.2,5.8,4.1
		c1.7-0.7,3.2-2,4.5-3.3c1.5-1.5,1.3-3.2-0.1-4.8c-1.4-1.6-3.1-1.6-5-1.2C109.7,239.9,107.7,241.8,107.7,244.6z M162.3,255.5
		c0.9-0.6,1.8-0.8,2.2-1.4c2.3-2.8,2.8-6-0.7-8.8c-2.8-2.2-3-2.3-5.5-0.9c-1.8,1-2.7,3.3-1.7,5.1c0.6,1.3,1.4,2.6,2.4,3.6
		C159.8,254.1,161.1,254.7,162.3,255.5z M89.8,109.3c-1.4,0.6-2.6,1.3-2.8,2.8c-0.2,1.9-0.1,3.9,0,5.8c0,0.5,0.2,1,0.4,1.4
		c1.6,2.8,3.1,5.6,4.7,8.3c0.6,1,1.4,1.7,2.9,1.5c-1.2-3.3-2.4-6.4-3.3-9.6C90.9,116.2,90.5,112.9,89.8,109.3z M99.5,230.5
		c-0.1,0.1-0.1,0.3-0.2,0.4c-1.3,0.1-2.5,0.1-3.8,0.2c-1.3,0.1-2.6,0.1-3.9,0.3c-0.3,0.1-0.8,0.5-0.9,0.9c-0.3,1.7,0.6,2.9,1.8,3.9
		c2.9,2.4,5.6,2.1,8.6-0.8c1-1,1.5-2.2,0.8-3.3C101.4,231.4,100.3,231.1,99.5,230.5z M198.1,99.2c-2.4,2.4-1.3,5.4-1.8,7.9
		c-0.6,2.6-0.6,5.4-0.9,8c0.2,0.1,0.3,0.2,0.5,0.2c1.9-2,3.7-4.2,4.6-7C201.7,104.9,199.5,102.3,198.1,99.2z M205.4,96.4
		c0-1.6,0.1-2.8,0-3.9c-0.1-2.2-1.1-3.2-3.2-3.7c-1.4-0.3-2.7,0.3-3.4,2.1c-0.6,1.5-0.8,3.1-1.2,5C200.3,95.5,202.8,94.1,205.4,96.4
		z M64.3,229.2c-4.8-0.6-6.7,4.2-7,9c1.6-0.9,3.3-1.9,5-2.9c0.5-0.3,1.3-0.7,1.4-1.2C64,232.5,64.1,230.8,64.3,229.2z M79.4,102.4
		c3.6-1.1,5.6,1.6,8.4,2.4c-0.3-1.1-0.4-2.3-0.9-3.2c-0.5-1-1.5-1.7-2.2-2.6c-1.1-1.3-2.8-1.2-3.7,0.2
		C80.4,100.1,80,101.1,79.4,102.4z"/>
	<path class="st0" d="M151.7,167.6c-2.8,0-5.7,0.2-8.5-0.1c-3.8-0.4-6.5-2.9-9-5.6c-1.4-1.5-2.6-3.4-4.9-3.8
		c-0.3-0.1-0.9-0.6-0.8-0.9c0.1-0.4,0.5-0.9,0.9-1.1c4.5-1.7,9.1-3.4,13.6-5c1.8-0.6,3.7-0.6,5.6,0.2c0.6,0.3,1.6,0.5,2.1,0.2
		c3.5-1.9,6.9-1.2,10.3,0c2.2,0.8,4.3,1.7,6.4,2.5c1,0.4,1.1,1.4,0.3,2.3c-2.4,2.5-4.8,4.9-7.1,7.4
		C158.2,166.3,155.2,167.6,151.7,167.6z M165.1,156.6c-5.2,0.8-10.3,2-15.4,2.3c-5.2,0.3-10.5-0.3-16.1-0.5c0.5,0.7,0.7,1.1,1.1,1.5
		c1.2,1.2,2.2,2.6,3.6,3.5c1.5,1,3.2,2,4.9,2.2c3.3,0.4,6.6,0.5,9.9,0.3c1.7-0.1,3.6-0.9,4.9-1.9
		C160.5,161.7,162.7,159.1,165.1,156.6z M164.1,154.7c-1.2-0.6-2.2-1.3-3.3-1.6c-3.2-1-6.3-2.1-9.6-0.1c-0.6,0.3-1.6,0.3-2.3,0
		c-2.3-0.9-4.6-0.9-6.9-0.1c-3,1.1-6,2.2-9,3.3C143.5,157.3,153.8,158.2,164.1,154.7z"/>
	<path class="st0" d="M187,94.1c-2-0.4-3.7-0.8-5.4-1.1c-4.9-0.7-9.6,0.4-14.2,1.6c-2.5,0.7-5.1,1-7.7,1.4c-0.3,0.1-0.7-0.1-0.9,0.1
		c-0.8,0.5-1.6,0.2-1.7-0.5c-0.1-0.6,0.4-1.5,0.8-1.8c4.6-2.2,9.3-4.2,14.5-4.4c2.7-0.1,5.4-0.4,8.1-0.2c2.5,0.2,5,1,6.9,2.8
		c0.4,0.3,0.7,1,0.6,1.5C188.1,93.7,187.3,93.9,187,94.1z"/>
	<path class="st0" d="M131.2,98.7c-3.6-0.4-7.3-1-10.9-1.2c-5.5-0.3-11-1-16,2.2c-0.4,0.3-1.2,0-1.9,0c0.2-0.6,0.2-1.5,0.7-1.8
		c2.9-2,6-3.7,9.6-4c5.1-0.4,10.2,0.2,15.3,1.2c1.4,0.3,2.7,0.7,4,1.3c0.5,0.2,1.1,1.1,0.9,1.5c-0.2,0.5-1,0.7-1.5,1.1
		C131.3,98.9,131.2,98.8,131.2,98.7z"/>
	<path class="st0" d="M133.5,138.1c0.8-1.7,1.5-3.6,2.4-5.4c0.1-0.3,0.8-0.3,1.2-0.4c0,0.4,0.2,0.9,0.1,1.3
		c-0.5,1.4-1.2,2.8-1.7,4.3c-0.5,1.5,0.5,2.3,2.1,2.1c1.2-0.2,2.5-0.4,3.7-0.4c1.6,0,2.9,0.6,3.9,1.9c1.2,1.6,2.7,3.1,4.9,2.3
		c1.1-0.4,2-1.3,2.8-2.2c1.4-1.6,2.9-2.9,5-3.3c2.8-0.6,3.4-2.2,1.8-4.7c-0.6-0.9-1.2-1.9-1.6-2.8c-0.1-0.3,0.1-0.8,0.2-1.2
		c0.4,0.2,0.9,0.2,1.1,0.5c0.8,1.2,1.5,2.4,2.2,3.6c1.3,2.3,0.4,5.2-2.2,5.7c-2.9,0.6-4.8,2.5-6.7,4.5c-1.8,2-4,2.3-6.4,1
		c-0.6-0.3-1.2-0.9-1.7-1.4c-1.9-2.3-3.3-2.8-6.2-2c-1.4,0.4-2.9,0.7-3.9-0.8C134.1,140,133.9,139.2,133.5,138.1z"/>
	<path class="st0" d="M170.9,111.7c-3.1-0.7-6.2-1.3-9.4-1.9c-0.9-0.2-1.8-0.1-2.6-0.1c-0.4,0-1,0.2-1.3,0c-0.5-0.3-0.8-0.9-1.1-1.4
		c0.5-0.3,1-0.9,1.4-0.9c2.6,0.3,5.2,0.6,7.7,1c3.3,0.5,6.7,1.6,9.9,0.1c2.1-1,4-2.3,6-3.5c0.3-0.2,0.6-0.5,0.9-0.5
		c0.5,0,1.3,0.1,1.5,0.5c0.2,0.3-0.1,1.3-0.4,1.5c-3.1,1.7-6.1,3.3-9.3,4.8c-0.9,0.4-2.1,0.2-3.2,0.2
		C170.9,111.5,170.9,111.6,170.9,111.7z"/>
	<path class="st0" d="M118.7,115.2c-3.6,0.1-6.9-0.5-9.5-3.2c-0.3-0.4-0.7-0.8-0.9-1.2c-0.2-0.5-0.2-1-0.3-1.5
		c0.6,0.1,1.3,0,1.8,0.3c0.8,0.5,1.5,1.4,2.3,2c3.7,2.4,7.7,2.3,11.7,0.8c2-0.8,3.9-2,6-2.8c1.5-0.6,3.1-0.8,4.6-1
		c0.4-0.1,0.9,0.6,1.4,0.9c-0.4,0.4-0.8,1.1-1.2,1.1c-3.5,0.2-6.5,2-9.6,3.3c-1.9,0.8-4.1,1.2-6.1,1.8
		C118.8,115.5,118.8,115.4,118.7,115.2z"/>
</g>
</svg>
