<?xml version="1.0" encoding="utf-8"?>
<!-- Generator: Adobe Illustrator 19.1.0, SVG Export Plug-In . SVG Version: 6.00 Build 0)  -->
<svg version="1.1" id="Layer_1" xmlns="http://www.w3.org/2000/svg" xmlns:xlink="http://www.w3.org/1999/xlink" x="0px" y="0px"
	 viewBox="0 0 150 159" style="enable-background:new 0 0 150 159;" xml:space="preserve">
<style type="text/css">
	.st0{fill:#03A9F4;}
</style>
<g>
	<path class="st0" d="M34.9,79.9c-0.7-0.2-1.4-0.5-1.9-1c-1.6-1.7-1.9-2.7-0.1-4.3c0.6-0.5,1.2-0.9,1.8-1.2c0.4-0.2,0.6-0.5,0.5-1
		c-0.1-0.8-0.1-1.6-0.2-2.4c-0.2-2.2-0.7-4.3-1.7-6.3c-0.6-1-1.3-1.9-2.4-2.5c-1.4-0.7-2.2-1.9-2.5-3.4c-1.9-7.2-4.4-14.1-7.7-20.8
		c-2.7-5.5-5.9-10.7-10.1-15.1c-2.9-3.1-6.2-5.6-10.3-6.9c-0.1,0-0.4,0-0.3-0.3c0.1-0.3,0.3-0.2,0.4-0.1c0.2,0.1,0.3,0.1,0.5,0.2
		c2.7,0.9,5.1,2.4,7.3,4.3c3.1,2.6,5.7,5.7,7.9,9.1c4.7,7.1,8.1,14.8,10.7,22.9c0.3,1,0.9,1.5,1.9,1.8c1.7,0.5,3.5,0.5,5.2,0.1
		c2.2-0.5,4.1-1.5,5.6-3.2c1-1.3,1.4-2.7,0.8-4.3c-1.8-5.1-3.8-10.1-6.2-15c-3.2-6.5-7-12.7-11.9-18c-5-5.4-10.7-9.6-17.8-11.7
		c-0.1,0-0.1,0-0.2-0.1C4.1,0.4,4,0.3,4.1,0.1C4.1,0,4.3,0,4.4,0c0.1,0,0.3,0.1,0.4,0.1C8.6,1.3,12,3.1,15.2,5.3
		c5.3,3.8,9.5,8.6,13.2,14c3.3,4.9,6.1,10.2,8.5,15.7c2.7,6.2,4.9,12.6,6.6,19.2c0.4,1.4,0.2,2.8-0.7,4.1c-0.5,0.8-0.8,1.6-1.1,2.5
		c-0.5,1.7-0.8,3.5-1.1,5.3c-0.1,1.1-0.3,2.1-0.4,3.4c0.7-0.6,1.3-1,1.8-1.3c3.6-2.2,7.3-4.2,10.8-6.5c1.6-1.1,3.4-1.7,5.5-1
		c2.1,0.6,4.3,0.7,6.3,1.4c2.8,1,5.7,1.7,8.6,2.4c2.8,0.6,5.6,1.2,8.4,0.5c0.6-0.2,1.2-0.3,1.8-0.4c2.3-0.1,4.4-1,6.3-2.3
		c4.4-2.8,8.8-5.6,13.4-8.2c3-1.7,6-3.3,8.9-5.1c10.9-6.8,21.6-13.9,31.3-22.4c0.2-0.1,0.3-0.6,0.6-0.3c0.3,0.3-0.2,0.4-0.3,0.6
		c-0.1,0.1-0.2,0.2-0.3,0.3c-11.3,9.6-23.5,17.8-36.3,25.2c-3.9,2.3-7.9,4.4-11.7,6.9c-2.1,1.3-4.2,2.7-6.4,4c-1.5,1-3.2,1.6-5,1.7
		c-0.4,0-0.7,0.1-1.1,0.2c-2.9,0.8-5.8,0.7-8.7,0c-3.7-0.8-7.3-1.8-10.9-3c-2.2-0.7-4.5-0.7-6.7-1.3c-0.4-0.1-0.8,0-1.1,0.2
		c-1.2,0.4-2.4,1-3.5,1.8c-2.1,1.4-4.3,2.7-6.5,4c-1.7,1-3.4,1.9-4.9,3.1c-0.4,0.3-0.5,0.6-0.5,1.1c-0.3,3-0.2,6-0.2,9
		c1.9,0,3.7-0.6,5.5-1.2c1.1-0.3,1.8-1,2.3-2c0.2-0.4,0.2-0.6-0.2-0.8c-1.2-0.6-2.1-1.5-2.9-2.6c-0.1-0.1-0.2-0.2-0.1-0.4
		c0.3,0.1,0.3,0.3,0.5,0.5c0.8,1,1.8,1.8,2.9,2.5c0.4,0.2,0.8,0.4,1.3,0.3c0.8-0.1,1.6-0.5,2.4-0.6c0.2,0,0.4-0.1,0.5-0.4
		c-1.3-0.5-3.2-3.8-3-5.1c0.2,0.1,0.1,0.2,0.2,0.3c0.3,1.3,1,2.5,1.7,3.6c0.3,0.4,0.6,0.8,1.1,0.9c0.1-0.9-0.2-1.6-0.5-2.4
		c-0.3-0.7,0-1.4,0.3-2.1c-0.4,1.2-0.2,2.2,0.4,3.2c0,0.1,0.1,0.1,0.1,0.2c-0.1,1.3,0.7,2.1,1.4,3c0.1,0.2,0.4,0.3,0.3,0.6
		c-0.5-0.4-0.8-0.8-1.1-1.2c-0.5-0.6-0.7-0.6-1.2,0.1c-0.2,0.3-0.2,0.7-0.1,1c0.1,0.5,0.1,1.1-0.1,1.6c-0.2,0.4-0.1,0.9,0.1,1.2
		c1,1.9,2,3.8,3.7,5.1c0.8,0.6,1.5,1.1,2.2,1.7c1,0.8,1.5,1.9,2.3,2.9c-0.4-0.2-0.6-0.5-0.8-0.8c-0.8-1.3-1.8-2.3-3-3
		c-2-1.2-3.2-3.1-4.4-5.1c-0.3-0.5-0.6-1.1-0.4-1.7c0.3-1,0-2.1,0.2-3.1c-0.4,0-0.8,0.1-1.1,0.2c-0.5,0.2-1,0.4-1.6,0.3
		c-0.4,0-0.5,0.1-0.7,0.4c-0.5,1.1-1.4,1.9-2.6,2.2c-0.4,0.1-0.7,0.2-1.1,0.3c-0.2,0.1-0.4,0.1-0.3,0.4c0.3,0.9,0.1,1.8-0.1,2.7
		c-0.5,2.5-0.1,4.7,2.1,6.3c0.7,0.5,0.8,1.5,0.5,2.6c-0.2-0.5-0.1-1-0.2-1.4c-0.1-1-0.9-1.6-1.9-1.3c-0.4,0.1-0.7,0.2-1.1,0.3
		c-1.1,0.2-2.2,0.5-3.3,0.8c-0.3,0.1-0.5,0.2-0.5,0.6c0,2.5,0,5.1-0.1,7.6c0,0.3,0.1,0.5,0.4,0.3c0.7-0.4,1.4-0.6,1.9-1.3
		c0.2-0.3,0.5-0.5,0.8-0.7c0.5-0.4,1.1-0.5,1.6,0c0.2,0.2,0.3,0.1,0.5,0.1c0.7-0.1,1.4-0.2,2.1-0.2c0.1,0,0.4,0.1,0.3-0.2
		c-0.1-1,0.6-1.8,0.4-2.8c0.4,0.4,0.3,0.8,0.2,1.2c-0.1,0.3-0.2,0.6-0.3,0.9c-0.2,0.8,0,1.2,0.8,1.5c0.7,0.3,1.4,0.2,2.1,0.1
		c0.8-0.2,1.7-0.3,2.4,0.2c1.2,0.8,2.5,1,3.8,1c0.4,0,0.7-0.1,1-0.2c4.3-2.4,8.8-4.5,13.3-6.4c3.8-1.6,7.7-2.7,11.9-2.3
		c1.7,0.2,3.5,0.4,5.2,0.5c1.7,0.1,3.2,0.4,4.7,1.2c1.5,0.7,3.1,1.2,4.8,1.5c1.6,0.3,3.2,0.7,4.8,1.1c0.3,0.1,0.6,0.1,0.8,0
		c1.7-0.6,3.4-1.2,4.9-2.1c3.3-1.9,6.5-3.7,9.8-5.6c10-5.8,20.5-10.4,31.3-14.3c0.3-0.1,0.7-0.5,0.8-0.1c0.1,0.4-0.4,0.4-0.7,0.4
		c-8,3-15.9,6.2-23.5,10.1c-5.7,2.9-11.2,6.2-16.8,9.4c-1.5,0.9-3.1,1.6-4.8,2.2c-0.2,0.1-0.4,0.1-0.5,0.3c2.4,0.7,4.6,1.7,6.8,2.9
		c4.1,2.3,8.1,4.9,12.2,7.3c5.3,3.1,10.6,6.2,16.2,8.6c0.1,0,0.1,0,0.2,0.1c0.1,0.1,0.2,0.1,0.1,0.3c-0.1,0.2-0.2,0.1-0.3,0.1
		c-0.2-0.1-0.4-0.1-0.6-0.2c-3.2-1.4-6.4-3-9.4-4.7c-5.7-3.2-11.2-6.6-16.7-10c-3.9-2.3-8.1-4-12.5-5c-1.9-0.4-3.9-0.6-5.7-1.4
		c-2.2-1-4.5-1.8-7-1.8c-0.4,0-0.8-0.1-1.2-0.1c-4.9-0.7-9.6-0.2-14.3,1.8c-7.4,3.1-14.4,6.8-21.2,11c-2.3,1.4-4.7,2.9-6.9,4.5
		c-0.9,0.6-1.9,1-3,0.9c-3.9-0.4-7.6,0.6-11.2,1.6c-1.5,0.4-2.9,1.2-4.1,2.2c0.3,0.1,0.5,0,0.8,0c1.2-0.2,2.4-0.2,3.6,0.3
		c0.3,0.1,0.5,0.3,0.5,0.7c-0.1,1.8,0,3.6,0.3,5.4c0.3,1.4,0.2,1.4-1.1,1.8c-1.1,0.3-2.3,0.3-3.6,0.4c0.8,0.6,1.5,1,2.4,1.2
		c1.3,0.2,2.6,0.4,3.9,0.4c0.5,0,1,0,1.4,0.1c0.9,0.3,1.8,0.5,2.7,0.5c-0.1-0.3-0.5-0.2-0.5-0.8c1,1.1,2.2,0.9,3.4,0.9
		c2,0.1,3.7-0.4,5.4-1.4c1.2-0.7,2.5-1.3,3.9-1.8c3.5-1.3,7.3-1.5,10.9-2.4c0.2,0,0.3,0,0.3,0.1c0.1,0.2-0.1,0.2-0.2,0.3
		c-0.3,0.1-0.5,0.2-0.8,0.3c1,0.1,1.9,0.4,2.8,0.8c0.5,0.3,1.1,0.2,1.7,0.1c0.8-0.1,1.6-0.3,2.4-0.6c0.1,0,0.3-0.2,0.5,0
		c-0.6,0.3-1.2,0.4-1.8,0.5c-1.3,0.3-2.6,0.3-3.9-0.3c-1.9-0.8-3.9-0.7-5.7,0.6c-0.1,0.1-0.3,0.1-0.2,0.3c0.1,0.2,0.2,0.2,0.4,0.2
		c0.5,0,1,0.1,1.5,0.3c0.8,0.3,1.6,0.4,2.5,0.3c0.5-0.1,1.1-0.2,1.6-0.2c0,0.2-0.1,0.2-0.2,0.2c-2,0.7-3.9,0-5.8-0.5
		c-0.4-0.1-0.5-0.1-0.7,0.2c-0.4,0.4-0.6,0.9-0.7,1.5c-0.1,0.5-0.2,1.1-0.3,1.6c-0.2,1.1-1,1.4-1.8,0.6c-0.3-0.3-0.5-0.2-0.6,0.2
		c-0.1,0.3-0.2,0.5-0.2,0.8c-0.1,1.1-0.3,2.2-0.4,3.3c-0.1,0.6-0.2,1.3-0.3,1.9c-0.1,0.6-0.3,1.3-1.1,1.3c-0.7,0-0.9-0.7-1.1-1.2
		c-0.1-0.5-0.2-1-0.4-1.4c-0.1-0.3-0.2-0.6-0.3-0.9c-0.2-0.3-0.4-0.4-0.6,0c-0.2,0.4-0.4,0.7-0.9,0.7c-0.5-0.1-0.8-0.5-1-0.9
		c-0.2-0.6-0.4-1.3-0.5-1.9c-0.5-1.8-1-2.2-2.9-2.1c-0.6,0-1,0.1-0.7,0.8c0,0.1,0.1,0.3-0.1,0.3c-0.1,0-0.3-0.1-0.3-0.2
		c-0.1-0.1-0.2-0.3-0.2-0.4c0-0.5-0.3-0.5-0.7-0.5c-1.1,0.2-2.3,0.1-3.3-0.2c-2-0.5-4-0.6-6-0.9c-1.4-0.2-2.6-0.7-3.6-1.6
		c-0.1-0.1-0.3-0.2-0.5-0.3c-1.2-0.5-1.9-1.4-2.3-2.6c-0.7-2.4,0-4.4,2-5.9c0.3-0.2,0.8-0.5,0.8-0.8c0-0.4-0.6-0.5-0.9-0.7
		c-0.2-0.1-0.3-0.3-0.5-0.4c-1.3-1.1-2.7-2.3-4.1-3.4c-1.1-0.9-2.3-1.5-3.7-1.9c-2-0.6-3.9-0.5-5.5,0.8c-1.5,1.2-1.6,2.4-0.3,3.8
		c0.9,0.9,1.7,1.9,2.6,2.8c3.4,3.3,6.7,6.7,10.2,9.8c0.2,0.2,0.4,0.3,0.5,0.5c1.2,1.8,2.9,3,4.8,4c0.6,0.3,1,0.6,1.5,1
		c1.1,1.1,2.4,1.9,3.9,2.4c1.6,0.5,3.3,1.1,4.9,1.6c3.3,1,6.6,2.3,9,4.9c0.2,0.3,0.6,0.5,0.8,0.7c0.5,0.4,1.1,0.6,1.8,0.8
		c1.7,0.4,3.2-0.1,4.6-0.9c3.5-1.9,7.2-3.5,10.8-5.2c0.2-0.1,0.4-0.3,0.7-0.1c-4.1,2-8.3,3.7-12.3,5.9c0.7,0.5,1.4,0.8,2.2,0.9
		c2.2,0.2,4.1-0.5,5.9-1.6c7-4.4,14.3-8.1,21.7-11.7c2.9-1.4,5.9-2.2,9.1-2.4c0.3,0,0.7,0,1-0.3c-1.2-0.7-1.8-1.8-2.2-3.1
		c-0.5-1.7-0.6-3.4-0.5-5.1c0.1-1.7,0.4-3.3,0.7-4.9c0.1-0.4,0-0.8,0.3-1.1c0.1,0.3,0,0.5,0,0.7c-0.4,2.8-1,5.6-0.6,8.5
		c0.2,1.4,0.5,2.8,1.5,4c0.6,0.7,1.4,1.2,2.4,0.9c0.4-0.1,0.4-0.2,0.2-0.5c-1.9-2.4-2-5.3-1.7-8.2c0-0.2,0-0.3,0.2-0.3
		c0.2,0,0.2,0.2,0.2,0.3c0,0.5-0.1,1-0.1,1.5c-0.3,3.7,1.1,6.7,4,8.8c2.6,2,5.2,4,7.5,6.4c6,5.9,12.4,11.5,18.2,17.6
		c3.4,3.6,7,7.1,10.6,10.5c0.1,0.1,0.5,0.3,0.2,0.6c-0.3,0.3-0.4-0.1-0.5-0.2c-1.5-1.4-3-2.8-4.4-4.2c-3-3-6-6-9-9.1
		c-3.7-3.8-7.7-7.4-11.5-11.1c-3.2-3-6.2-6.2-9.7-8.9c-1.1-0.9-2.4-1.6-3.3-2.8c0-0.1-0.2-0.1-0.2-0.1c-0.6,0.3-1.3,0.1-1.9,0.3
		c-0.7,0.2-1.5,0.3-2.2,0.4c-2.1,0.2-4.1,0.6-6,1.4c-4.3,1.9-8.5,4.1-12.7,6.3c-3.7,1.9-7.2,3.9-10.7,6.2c-1.1,0.7-2.3,1.2-3.6,1.5
		c-1.8,0.5-3.5,0.4-5-0.6c-0.2-0.1-0.3-0.1-0.6-0.1c-2.2,0.8-4.2,0.2-6-1.2c-0.4-0.3-0.7-0.6-1.1-0.9c-0.3-0.3-0.7-0.5-1.1-0.6
		c-0.9-0.2-1.8-0.1-2.6,0.2c-0.8,0.4-1.3,0.2-1.8-0.5c-0.2-0.2-0.3-0.5-0.5-0.7c-1.1-1.6-3.1-2.3-5-1.6c-1.9,0.7-3.4,2-4.4,3.8
		c-0.2,0.4-0.4,0.7-0.6,1.1c-0.4,0.7-0.7,0.8-1.4,0.5c-0.8-0.3-1.1-0.1-1.4,0.6c-0.3,0.8-0.2,1.5,0,2.3c0.1,0.7,0.3,1.5,0,2.2
		c-0.2,0.6-0.7,0.9-1.3,0.8c-0.6-0.1-0.9-0.5-1-1.1c-0.1-0.3,0-0.6,0-0.9c0-0.4,0-0.8,0-1.2c-0.1-0.4-0.2-0.7-0.7-0.3
		c-0.6,0.5-1.3,0.4-1.6-0.4c-0.3-0.6-0.4-1.2-0.4-1.8c0-1.3,0-2.7,0-4c0-0.9,0-1.8-0.3-2.6c-0.1-0.5-0.3-0.8-0.9-0.4
		c-0.6,0.4-1.2,0.2-1.5-0.6c-0.1-0.4-0.2-0.9-0.2-1.3c-0.1-1.5,0-3-0.1-4.5c-0.2-2.2-0.5-4.4-1.9-6.3c-1.2-1.6-2.4-3.3-3.9-4.7
		c-1.5-1.5-2.9-3-4.3-4.5c-1.2-1.3-1.1-2.6,0.2-3.9c0.7-0.7,1.5-1.1,2.5-1.4c0.5-0.2,0.9-0.4,0.7-1.1c-0.4-2.1,0.4-3.6,2.3-4.7
		c0.2-0.1,0.5-0.1,0.6-0.4c-0.6-0.2-1-0.5-1.3-0.9c-0.7-0.9-1.1-1.9-1.3-3c-0.1-0.8,0-1.4,0.5-2c0.6-0.9,1.5-1.6,2.4-2.2
		c1.4-0.9,3-1.7,4.6-2.4c2.3-1,4.7-2,6.8-3.4c1.9-1.3,4-2.2,6.2-2.9c0.6-0.2,1.3-0.5,2-0.7C35.3,80,35.1,79.9,34.9,79.9z M22,96.3
		c3.6-1.5,7.4-2.6,11-4.2c0.8-0.4,1.7-0.6,2.5-0.9c0.3-0.1,0.5-0.2,0.5-0.6c-0.1-3-0.2-6-0.4-9c0-0.9-0.1-0.9-0.9-0.6
		c-2.7,0.9-5.3,1.9-7.6,3.5c-2.5,1.7-5.4,2.7-8.1,4c-1.4,0.7-2.8,1.4-3.9,2.4c-2,1.7-2,4.4,0.1,6.1c0.5,0.4,1,0.5,1.6,0.4
		C18.6,97.4,20.4,96.9,22,96.3z M20.2,126.3c0.1,1.3-0.1,2.6,0.1,3.8c0.1,0.9,0.3,1,1.2,0.6c0.5-0.3,0.9-0.1,1.2,0.5
		c0.3,0.7,0.4,1.4,0.4,2.2c0,1.5,0,3,0,4.4c0,0.7,0.1,1.4,0.4,2c0.2,0.6,0.5,0.6,1,0.3c0.7-0.5,1.1-0.3,1.3,0.5
		c0.1,0.4,0.1,0.9,0,1.3c0,0.2-0.1,0.5,0,0.7c0,0.4,0.2,0.8,0.7,0.8c0.5,0,0.7-0.3,0.8-0.7c0.1-0.5,0.1-1.1,0-1.6
		c-0.2-0.9-0.3-1.7,0-2.6c0.3-1.1,0.9-1.4,2-1c0.4,0.2,0.7,0.1,0.9-0.3c0.2-0.3,0.3-0.7,0.5-1c1-1.8,2.4-3.1,4.4-3.9
		c2.2-0.9,4.5-0.2,5.8,1.8c0.2,0.3,0.4,0.5,0.6,0.7c0.2,0.3,0.5,0.4,0.9,0.2c0.4-0.2,0.9-0.4,1.3-0.4c0.4,0,0.9,0,1.4-0.1
		c-0.5-0.5-1-0.7-1.5-0.9c-2.5-1.2-5.2-2-7.8-2.8c-2.1-0.6-4.2-1.3-5.8-2.8c-0.8-0.7-1.7-1.3-2.6-1.8c-1.6-0.8-3-2-4.1-3.5
		c-0.1-0.1-0.2-0.3-0.3-0.4c-1.9-1.4-3.4-3.3-5.2-4.8C19.9,120.3,20,123.3,20.2,126.3z M35.7,71.8c0.1,2.4,0.4,4.8,0.4,7.2
		c0,3.9,0.3,7.8,0.4,11.7c0.1,2.7,0.2,5.5,0.3,8.2c0,0.9-0.1,1.9,0.1,2.8c0,0.1,0,0.3,0.2,0.4c0.2,0,0.3-0.1,0.4-0.2
		c0.2-0.3,0.3-0.7,0.3-1.1c0-0.6,0.3-1,0.8-1.1c0.4-0.1,0.5-0.3,0.5-0.7c0-3.5,0.1-7,0.1-10.5c0-2.8,0-5.6,0.1-8.3
		c0.2-3.1,0.1-6.3,0.4-9.4c0.3-3.6,0.7-7.2,1.7-10.6c0,0,0-0.1,0-0.2c-2.6,1.8-5.5,2.4-8.6,2C35,64.8,35.5,68.3,35.7,71.8z
		 M36.1,91.8c0-0.4-0.1-0.5-0.5-0.4c-1.2,0.4-2.4,0.8-3.5,1.3c-4.9,1.9-9.7,4-14.8,5.2c-1.2,0.3-2.1,0.9-3,1.7
		c-0.7,0.6-1.1,2.5-0.8,3.3c0.1,0.3,0.2,0.2,0.4,0.1c1.3-0.7,2.7-0.7,4.2-0.3c0.2,0,0.3,0.1,0.5-0.1c1.1-1.8,2.9-1.9,4.7-1.7
		c1,0.1,2,0.4,2.9,1c0.2,0.1,0.4,0.2,0.7,0.1c1.2-0.4,2.4-0.5,3.7-0.6c0.9-0.1,1.6-0.6,2.5-0.6c0.3,0,0.2-0.3,0.1-0.5
		c-0.1-0.5,0.1-0.9,0.5-1.1c0.5-0.2,0.9,0,1.2,0.4c0.2,0.3,0.3,0.7,0.9,0.5c0.5-0.2,0.7-0.3,0.7-0.9c-0.1-1.2,0-2.4,0-3.6
		c-0.1,0-0.2,0-0.2,0C36.1,94.3,36.1,93,36.1,91.8z M29,53.3c-0.5-0.1-0.9-0.3-1.5-0.5c0.2,0.7,0.4,1.4,0.6,2.1
		c0.2,0.9,0.5,1.8,0.7,2.7c0.5,2.3,2,3.6,4.2,3.9c2.6,0.4,5.1,0,7.3-1.4c1.8-1.1,2.8-2.6,2.8-4.8c0-0.6-0.2-1.2-0.4-1.8
		c-0.5-1.9-1-3.8-1.7-5.7C39.6,52.6,32.9,54.3,29,53.3z M37.6,105.7c-0.8-0.2-1-0.6-0.5-1.3c0.8-1.2,2-1.3,3.1-0.3
		c0.2,0.2,0.3,0.3,0.4,0.5c0.2,0.4,0.5,0.7,1,0.3c0.2-0.1,0.3-0.1,0.4,0.1c0.1,0.2,0,0.3-0.2,0.4c-0.6,0.4-1.2,0.2-1.5-0.4
		c-0.7-1.3-1.9-1.6-2.8-0.8c-0.2,0.2-0.3,0.4-0.3,0.6c0.1,0.3,0.3,0.2,0.5,0.3c0.1,0,0.3,0,0.4,0.1c0.2,0.1,0.4,0.2,0.5,0.4
		c0.1,0.3-0.2,0.4-0.4,0.6c-1.4,0.9-3.5-0.2-3.6-1.8c0-0.3,0.1-0.7-0.2-0.9c-0.6-0.3-1-0.7-1.7-0.8c-0.2,0-0.4,0.1-0.5,0.3
		c-0.1,0.2,0.1,0.4,0.2,0.5c0.2,0.2,0.5,0.3,0.7,0.4c0.6,0.4,1,0.9,0.8,1.7c0,0.2-0.1,0.3-0.2,0.4c-0.2,0-0.2-0.2-0.2-0.3
		c0.1-0.8-0.4-1.1-1-1.3c-0.5-0.2-0.9-0.5-1-1.1c-0.1-0.6,0.3-1.1,1-1.1c0.4,0,0.8,0.1,1.2,0.3c0.1,0.1,0.3,0.3,0.5,0.1
		c0.1-0.1,0.2-0.3,0.1-0.5c0-0.4-0.8-1-1.2-0.9c-0.3,0-0.7,0-0.9,0.2c-1.3,0.7-2.8,0.4-4.1,0.7c-0.3,0.1-0.6,0-0.9,0.3
		c1.4,1.1,2.5,2.3,3.5,3.7c0.3,0.3,0.7,0.5,1.1,0.6c0.7,0.3,1.5,0.6,2.2,0.9c0.6,0.3,1.2,0,1.8-0.1c0.9-0.2,1.7-0.2,2.6-0.2
		c0.4,0,0.9,0,1.3,0.1c2.1,0.3,3.6-0.7,5.3-2c-0.6-0.1-1.2-0.6-1.6,0.3c0,0.1-0.2,0.2-0.3,0.1c-0.1,0-0.1-0.2-0.1-0.2
		c0-0.1,0.1-0.3,0.2-0.4c0.1-0.1,0.2-0.3,0.2-0.4c-0.3-0.6-0.6-1.1-0.2-1.8c0.1-0.2-0.3-0.2-0.5-0.2c-0.3,0.1-0.6,0.2-0.8-0.2
		c-0.2-0.4-0.1-0.8,0.1-1.1c0.2-0.3,0.5-0.4,0.8-0.7c0.3-0.2,0.5-0.4,0.7-0.7c0.1-0.3,0.1-0.7-0.2-0.9c-0.3-0.3-0.6-0.1-0.9,0.1
		c-0.4,0.3-0.7,0.6-0.9,1c-0.6,0.9-1.2,1-2,0.2c-0.2-0.2-0.4-0.6-0.8-0.5c-0.4,0.1-0.3,0.5-0.4,0.9c0,0.3,0,0.5-0.1,0.8
		c-0.3,0.4-0.4,1-1,1c-0.6,0-1.2-0.2-1.5-0.8c-0.4-0.6-0.8-1.3-1.2-1.9c-0.1-0.2-0.3-0.4-0.5-0.3c-0.3,0.1-0.2,0.4-0.2,0.6
		c0,0.5,0.3,0.7,0.6,0.9c0.9,0.5,0.8,1,0.8,2c-0.1,0.7-0.1,1.6,0.6,2.3c0.5,0.6,1.2,0.9,2,0.7c0.2,0,0.4-0.1,0.5-0.3
		C38,105.7,37.8,105.7,37.6,105.7z M52.4,97.4c-0.5-0.3-1.1-0.2-1.7-0.1c-0.8,0.2-1.6,0.2-2.4-0.1c-0.6-0.2-1.3-0.1-1.9,0
		c-2.2,0.5-4.3,1.3-6.5,1.6c-0.2,0-0.3,0.1-0.3,0.3c0,0.4,0,0.7,0.2,1c0.3,0.5,0.9,0.6,1.3,0c0.3-0.5,0.6-0.9,1.1-1.2
		c0.5-0.3,1-0.5,1.4,0c0.4,0.4,0.5,0.9,0.3,1.5c-0.2,0.4-0.5,0.6-0.8,0.9c-0.2,0.2-0.5,0.4-0.7,0.6c-0.1,0.1-0.2,0.3-0.1,0.5
		c0.1,0.2,0.3,0.1,0.4,0c0.8-0.1,1.1,0.2,1,1c-0.2,0.7,0.3,1.2,0.9,1.5c0.9,0.4,1.4,0,2-0.4c3-1.9,5.9-3.7,9-5.5
		c0.2-0.1,0.4-0.3,0.8-0.5C54.8,98.4,53.5,98.2,52.4,97.4z M42.1,122.9c0.9,0.6,1.2,1.7,1.5,2.8c0.1,0.5,0.2,1.1,0.5,1.6
		c0.3,0.5,0.6,0.5,0.9,0c0.2-0.3,0.3-0.6,0.8-0.6c0.4,0,0.7,0.3,0.8,0.7c0.2,0.5,0.3,1,0.4,1.5c0.1,0.3,0.2,0.7,0.3,1
		c0.1,0.3,0.2,0.7,0.6,0.7c0.4,0,0.5-0.4,0.6-0.7c0.4-1.2,0.4-2.5,0.5-3.7c0.1-0.8,0.1-1.6,0.4-2.4c0.3-0.9,0.8-1.1,1.5-0.4
		c0.4,0.4,0.7,0.2,0.9-0.2c0.1-0.2,0.2-0.5,0.2-0.7c0.2-1.7,0.8-3.2,2.4-4C50,119,45.9,120.6,42.1,122.9z M29.7,112.9
		c0-0.3-0.1-0.5-0.4-0.6c-1.6-0.6-3.2-0.5-4.7,0.1c-1.2,0.5-1.8,1.7-2,3c-0.1,0.7-0.1,1.5,0.1,2.2c0.3,1.3,1.5,2.7,3.4,2.5
		c1.1-0.1,2.2-0.2,3.2-0.5c0.9-0.2,0.9-0.3,0.7-1.2c-0.1-0.7-0.3-1.4-0.4-2c-0.1-0.6-0.1-1.2-0.1-1.9c0,0,0,0,0.1,0
		C29.7,114,29.7,113.4,29.7,112.9z M31.5,107.2c-0.6-0.2-1-0.6-1.4-1.1c-1.6-2.2-3.6-4-6.3-4.6c-1.2-0.3-2.5-0.3-3.7,0.3
		c-0.2,0.1-0.5,0.3-0.7,0.4c-0.8,0.7-0.8,1,0.2,1.4c0.5,0.2,1,0.4,1.5,0.7c2.5,1.7,5.4,2.8,7.8,4.7c0.2,0.1,0.3,0.2,0.5,0.2
		c1.3-0.4,2.7-0.7,4.2-1.1C32.8,107.7,32.1,107.5,31.5,107.2z M43.7,82.7c0.1-0.9,0.3-1.7,0.2-2.6c-0.1-0.4-0.2-0.6-0.7-0.4
		c-0.9,0.3-1.8,0.4-2.7,0.5c-0.4,0-0.6,0.2-0.6,0.6c-0.1,2.8-0.1,5.5-0.1,8.3c0,0.3,0,0.6,0.4,0.4c1.4-0.5,2.9-0.7,4.3-1
		c0.2-0.1,0.5-0.1,0.7-0.3C43.3,86.7,43.4,84.7,43.7,82.7z M20.5,106.9c1.1,0.9,2.2,1.9,3.3,2.8c0.1,0.1,0.2,0.1,0.3,0.2
		c1.2,1,1.2,1,2.5,0.3c0.3-0.2,0.7-0.4,1-0.5c0.3-0.2,0.7-0.3,1.1-0.5c-1-0.8-2-1.6-3.1-2.1c-1-0.4-1.9-1-2.7-1.5
		c-1.4-0.9-2.9-1.7-4.5-2.3c-1.5-0.5-3-0.7-4.4,0.1c-0.2,0.1-0.3,0.2-0.5,0.3c-0.1,0.1-0.2,0.1-0.4,0.3
		C16.1,104.1,18.5,105.1,20.5,106.9z M35.4,73.9c0-0.2,0-0.5-0.3-0.3c-1,0.6-1.9,1.2-2.6,2.1c-0.3,0.4-0.5,0.7,0,1.1
		c0.1,0.1,0.1,0.2,0.1,0.3c0.3,1.2,1.2,1.7,2.2,2.1c1,0.3,0.8,0.4,0.9-0.8C35.4,77.1,35.5,75.5,35.4,73.9z M43.3,97.5
		c0.3,0,0.5-0.2,0.6-0.4c0.1-0.2,0-0.4-0.1-0.5c-0.2-0.2-0.4-0.2-0.7-0.1c-0.3,0.1-0.6,0.3-0.9,0.7C42.7,97.3,43,97.5,43.3,97.5z
		 M44.6,96.7c-0.2,0-0.2,0.2-0.2,0.4c0,0.3,0.2,0.1,0.4,0.1c0.9-0.2,1.7-0.5,2.6-0.6C46.5,96.3,45.5,96.5,44.6,96.7z M36.3,101
		c0-0.1,0-0.4-0.2-0.3c-0.2,0-0.5,0.1-0.5,0.3c0,0.4,0.2,0.7,0.6,0.9c0.3,0.2,0.2-0.2,0.2-0.3C36.3,101.4,36.3,101.2,36.3,101z
		 M40.9,98.2c0.5-0.1,1-0.2,1.6-0.3C41.8,97.4,41.4,97.9,40.9,98.2z"/>
	<path class="st0" d="M26.8,149.1c-0.4,0.2-0.8,0.1-1.1-0.2c-0.4-0.4-0.5-0.9-0.3-1.5c0.2-0.6,0.5-1.1,0.8-1.6
		c0.2-0.4,0.4-0.3,0.6,0c0.5,0.6,0.7,1.3,0.8,2C27.6,148.4,27.4,148.9,26.8,149.1z M25.8,147.8c-0.1,0.4,0,0.9,0.5,1
		c0.5,0.1,0.7-0.3,0.8-0.8c0-0.6-0.2-1.1-0.5-1.7C26.3,146.8,26,147.2,25.8,147.8z"/>
	<path class="st0" d="M41.3,142.6c0.1-0.2,0.4-0.5,0.6-0.1c0.4,0.6,0.9,1.3,1,2c0.1,0.8-0.4,1.4-1.1,1.5c-0.7,0-1.2-0.5-1.2-1.5
		C40.7,143.9,41,143.2,41.3,142.6z M41.1,144.4c-0.1,0.4,0,0.7,0.3,1c0.2,0.2,0.5,0.2,0.7,0c0.3-0.2,0.4-0.6,0.3-1
		c-0.1-0.6-0.4-1-0.8-1.5C41.4,143.5,41.2,143.9,41.1,144.4z"/>
	<path class="st0" d="M41.3,136.8c0.1-0.2,0.4-0.4,0.6-0.1c0.4,0.7,0.9,1.3,1,2.1c0.1,0.8-0.4,1.4-1.1,1.4c-0.7,0-1.2-0.5-1.2-1.4
		C40.7,138.2,41,137.5,41.3,136.8z M41.1,138.8c-0.1,0.3,0,0.7,0.3,0.9c0.2,0.2,0.5,0.1,0.7,0c0.3-0.2,0.4-0.5,0.3-0.9
		c-0.1-0.6-0.4-1-0.8-1.6C41.4,137.8,41.2,138.3,41.1,138.8z"/>
	<path class="st0" d="M41.1,94.3c0.2-0.5,0.6-0.9,1.1-0.9c0.4,0,0.7,0.2,0.9,0.5c0.3,0.5,0.2,1-0.2,1.4c-0.2,0.3-0.5,0.5-0.7,0.7
		c-0.4,0.2-0.6,0.9-1,0.7c-0.4-0.2-0.3-0.9-0.4-1.5C41,95,41,94.6,41.1,94.3z M42.6,95.1c0.2-0.2,0.3-0.6,0.2-0.9
		c-0.1-0.3-0.3-0.4-0.6-0.3c-0.4,0-0.6,0.3-0.7,0.6c-0.2,0.5-0.1,1,0,1.6C41.9,95.7,42.3,95.4,42.6,95.1z"/>
	<path class="st0" d="M59.9,94.5c-0.2-0.6-0.5-1-0.9-1.4c-1-1-2-2-2.9-3.1c-0.6-0.7-1.4-1-2.3-1.2c-0.9-0.2-1.8-0.2-2.6-0.7
		c0,0.3,0.2,0.3,0.3,0.4c0.5,0.2,0.9,0.3,1.4,0.4c1.4,0.2,2.7,0.6,3.6,1.9C57.5,92.1,58.9,93.1,59.9,94.5z"/>
	<path class="st0" d="M39.5,120.3c0.6-2.1,0.7-4.2-0.4-6.2C39.9,116.1,39.9,118.2,39.5,120.3z"/>
	<path class="st0" d="M43.9,74.1c0.6,1.2,2.3,2.2,3.6,2.2C46,76,44.9,75.1,43.9,74.1z"/>
	<path class="st0" d="M55.9,78.8c-0.5-0.4-1-0.8-1.5-1.2c0.3,0.6,0.8,1,1.4,1.4C55.8,78.9,55.8,78.8,55.9,78.8z"/>
	<path class="st0" d="M27,92.8c-0.3-1.9-1-3.6-2.1-5.2C25.7,89.3,26.4,91,27,92.8z"/>
	<path class="st0" d="M34,83.7c0.3,1,1.2,1.5,1.4,2.5c0.2,0.9,0,1.8,0.3,2.7C35.9,86.9,35.7,85.1,34,83.7z"/>
	<path class="st0" d="M35.7,98.3c0,0.2-0.1,0.4-0.2,0.3c-0.9-0.3-1.8-0.3-2.6-0.9c-0.4-0.3-0.4-0.7-0.3-1.1c0.1-0.4,0.5-0.5,0.8-0.5
		C34.3,96.1,35.6,97.4,35.7,98.3z M33.9,96.7c-0.3-0.1-0.7-0.3-0.8,0.2c-0.1,0.4,0.1,0.6,0.5,0.7c0.5,0.2,1,0.3,1.6,0.4
		C34.7,97.3,34.4,96.9,33.9,96.7z"/>
	<path class="st0" d="M26,97.4c0.3,1.1,0.8,2,1,3.1C27,99.4,26.5,98.4,26,97.4z"/>
	<path class="st0" d="M29.6,113.4c-0.9,1.1-0.6,4.1,0.4,5.6C29.5,117.2,28.8,115.4,29.6,113.4z"/>
</g>
</svg>
