<?xml version="1.0" encoding="utf-8"?>
<!-- Generator: Adobe Illustrator 19.1.0, SVG Export Plug-In . SVG Version: 6.00 Build 0)  -->
<svg version="1.1" id="Layer_1" xmlns="http://www.w3.org/2000/svg" xmlns:xlink="http://www.w3.org/1999/xlink" x="0px" y="0px"
	 viewBox="0 0 99.7 140" style="enable-background:new 0 0 99.7 140;" xml:space="preserve">
<style type="text/css">
	.st0{fill:none;stroke:#E91E63;stroke-miterlimit:10;}
</style>
<g id="hand-washing">
	<path class="st0" d="M56.6,34.4c0.7-0.3,1.4-0.7,2-1.3c0.7-0.7,1-1.7,1.4-2.6c1.3-3.2,3.9-6,7.1-7.3c3.2-1.3,7.1-1,9.9,1.1
		c2.1,1.6,3.4,4,4.6,6.3c5.2,9.8,10.4,19.5,15.6,29.3c1,1.8,1.9,3.6,2.1,5.7c0.2,1.6-0.1,3.2-0.4,4.8c-3.8,20.2-7.6,40.3-11.3,60.5
		c-0.3,1.6-0.6,3.3-1.4,4.8c-1.5,2.8-5,4.5-8.2,4c-3.2-0.5-5.9-3.2-6.5-6.3c-0.4-1.9,0-3.9,0.4-5.8c3.2-16.7,6.4-33.5,9.6-50.2
		c0.1-0.7-0.2-1.4-0.6-2c-6.5-10.9-12.5-22.1-18.1-33.5c-7,3.4-14.1,6.8-21.1,10.2c-1.6,0.8-3.4,1.6-5.1,1.4
		c-1.9-0.3-3.6-1.9-3.9-3.8c-0.3-1.9,0.8-4,2.5-4.8C42.2,41.2,49.4,37.8,56.6,34.4"/>
	<path class="st0" d="M25.8,50.6c0.2,0,0.5,0,0.7,0c0.8,0.9,1.7,1.9,2.5,2.8c0.2,0.2,0.3,0.4,0.4,0.6c0.3,0.8-0.4,1.7-1.3,1.8
		c-0.9,0.1-1.7-0.4-2.3-0.9C25.5,53.5,25.5,52,25.8,50.6"/>
	<path class="st0" d="M18.6,39.7c-0.6,0-1.4,0-1.8,0.4c-0.5,0.5-0.6,1.2-0.7,1.9c-0.1,0.7-0.3,1.4-1,1.7c-0.2,0.1-0.5,0.1-0.8,0.1
		c-1.7,0-3.4,0-5-0.1c0.5-1.7,1.1-3.4,1.6-5c0.1-0.4,0.3-0.9,0.7-1.1c0.2-0.1,0.5-0.1,0.8-0.1c4,0,8,0,12,0c0.2,0,0.4,0,0.6,0.1
		c0.5,0.3,0.4,1,0,1.4c-0.4,0.4-1,0.4-1.5,0.5C21.9,39.6,20.2,39.7,18.6,39.7"/>
	<path class="st0" d="M21.8,48.7c-1.9,0.2-3.9,0.7-5.7,1.4c0.3,1.7,0.5,3.4,0.5,5.1c0,0.1,0,0.3-0.1,0.4c-0.1,0.1-0.3,0.2-0.5,0.2
		c-3.3,0.4-6.6,0.4-9.9,0.1c0.6-3.5,1.5-6.9,2.4-10.3c0.1-0.2,0.1-0.4,0.3-0.5C8.9,45,9.1,45,9.3,45c5.1-0.3,10.2-0.5,15.2-0.8
		c0.5,0,1.1,0,1.4,0.4c0.3,0.4,0.1,1.1,0.3,1.6c0.2,0.5,0.7,0.8,0.9,1.3c0.2,0.6-0.1,1.3-0.7,1.7c-0.5,0.4-1.2,0.5-1.9,0.6
		c-0.7,0.1-1.6,0.1-1.8-0.6C22.7,48.8,22.2,48.7,21.8,48.7"/>
	<path class="st0" d="M59.1,0.3c2,0,4,0.5,5.8,1.5c4.4,2.4,6.9,7.6,6.2,12.4c-0.8,4.9-4.8,9.1-9.7,10c-4.9,0.9-10.2-1.5-12.7-5.7
		c-2.2-3.6-2.2-8.4-0.1-12.1C50.7,2.7,54.8,0.3,59.1,0.3"/>
	<path class="st0" d="M5.9,83.9c0-6.6-0.1-13.2-0.1-19.8c0-0.8-0.4-1.9-1.1-1.7c-1.1,0.3-2.3,0.3-3.2-0.4c-0.9-0.6-1.4-2-0.8-2.9
		c0.6-1,2-1.1,3.2-1.1c16.3-0.2,32.6-0.4,48.9-0.6c1.1,0,2.2,0,3.2,0.5c1.5,0.7,2.2,2.6,1.6,4.1c-0.3,0.8-0.8,1.4-1.3,2
		C51,70,45.8,76,40.6,81.9c-0.4,0.5-0.9,1-1.4,1.2c-0.5,0.2-1.1,0.3-1.6,0.3C27,83.8,16.5,83.9,5.9,83.9"/>
</g>
</svg>
