<?xml version="1.0" encoding="utf-8"?>
<!-- Generator: Adobe Illustrator 19.2.0, SVG Export Plug-In . SVG Version: 6.00 Build 0)  -->
<svg version="1.1" id="Layer_1" xmlns="http://www.w3.org/2000/svg" xmlns:xlink="http://www.w3.org/1999/xlink" x="0px" y="0px"
	 viewBox="0 0 150 121.9" style="enable-background:new 0 0 150 121.9;" xml:space="preserve">
<style type="text/css">
	.st0{fill:#E91E63;}
</style>
<g id="kidneys">
	<path class="st0" d="M150,63.8c-0.8,2.9-1.6,5.8-2.4,8.7c-2.9,9.5-8.8,16.5-17.9,20.4c-8.7,3.7-25.5,0.6-28.6-14.3
		c-1.8-8.8-2.4-12,0.4-21.8c-2.2-0.9-3.7,0-4.4,2c-0.7,2.2-1.4,4.4-1.4,6.7c-0.1,17.6-0.1,35.1-0.1,52.7c0,1.2,0,2.4,0,3.7
		c-2.3,0-4.3,0-6.3,0c-0.1-0.2-0.3-0.5-0.3-0.8c-0.1-19.5-0.1-39.1-0.2-58.6c0-5.7,2.2-10.4,6.1-14.7c-6.2-3.4-11.1-7.9-12.9-14.5
		C78.1,19,83.4,3.4,101.4,0.7c16.8-2.5,28.6,5.5,37.6,18.5c5.8,8.4,9,18,10.3,28.1c0.1,0.4,0.4,0.7,0.6,1.1
		C150,53.6,150,58.7,150,63.8z"/>
	<path class="st0" d="M55.5,48.2c4.6,4.6,5.9,10.3,5.8,16.8c-0.2,17.4-0.1,34.9-0.1,52.4c0,1.4,0,2.8,0,4.5c-2.2,0-4.3,0-6.5,0
		c0-0.8-0.1-1.5-0.1-2.3c0-17.1,0.1-34.2,0-51.4c0-3-0.6-6.1-1.5-9c-0.4-1.3-2.3-2.2-3.8-3.6c0.2,6.6,0.8,12.1,0.5,17.6
		c-0.5,8.7-3.8,15.9-12.6,19.1C27,96.1,17.3,94.6,9.6,85.2c-9.2-11.4-11-24.6-8.8-38.6C3.2,31.9,8.4,18.6,20.2,9
		C30.7,0.3,42.7-2.8,55.8,2.8c8.6,3.7,12.7,10.7,13.4,19.9C70,33.5,65.7,41.5,56.5,47c-0.4,0.2-0.7,0.5-1,0.8
		C55.4,47.8,55.5,48,55.5,48.2z"/>
</g>
</svg>
