<?xml version="1.0" encoding="utf-8"?>
<!-- Generator: Adobe Illustrator 19.2.0, SVG Export Plug-In . SVG Version: 6.00 Build 0)  -->
<svg version="1.1" id="Layer_1" xmlns="http://www.w3.org/2000/svg" xmlns:xlink="http://www.w3.org/1999/xlink" x="0px" y="0px"
	 viewBox="0 0 100 109.9" style="enable-background:new 0 0 100 109.9;" xml:space="preserve">
<style type="text/css">
	.st0{fill:#00BCD4;}
</style>
<g id="swipe-left-right">
	<path class="st0" d="M45.8,37.4c0,7.7,0,15.4,0,23.1c0,1.6-0.7,2.7-2.1,3.3c-1.5,0.6-3,0.6-4.2-0.7c-1-1.1-1.9-2.3-2.8-3.6
		c-1.7-2.5-3.2-5.2-5.1-7.5c-2.1-2.5-4.6-4.5-8-4.9c-1.9-0.2-3.6,0.3-5,1.5c-0.6,0.6-0.8,1.2-0.3,1.9c1.2,1.6,2.5,3.2,3.6,4.8
		c2.3,3.2,4.8,6.4,6.8,9.8c2.4,4.2,4.4,8.7,6.5,13.1c2.8,5.8,6.1,11.1,11.5,15c4.1,3,6.2,7.3,6.8,12.3c0.1,0.9,0.3,1.8,0.3,2.7
		c0,0.4-0.1,1.2-0.4,1.3c-0.6,0.2-1.3,0.2-1.9,0.1c-0.3-0.1-0.5-0.7-0.6-1.1c-0.2-1.5-0.2-3.1-0.6-4.6c-0.6-2.8-2.2-5.1-4.2-7
		c-2-2-4.3-3.7-6.2-5.7c-2.5-2.5-4.4-5.5-5.9-8.7c-1.3-2.8-2.7-5.6-4.1-8.4c-0.9-1.8-1.7-3.7-2.7-5.5c-2.6-4.4-5-8.8-8.7-12.4
		c-1.6-1.5-2.7-3.3-3.3-5.5c-0.5-1.8,0.4-4.2,2-5.2c2.2-1.3,4.6-1.7,7.2-1.4c3.6,0.5,6.2,2.5,8.7,4.9c2.8,2.8,4.8,6.3,6.8,9.7
		c0.3,0.5,0.5,1.1,0.9,1.5c0.3,0.3,0.8,0.6,1.1,0.5c0.3-0.1,0.6-0.5,0.8-0.9c0.1-0.2,0.1-0.5,0.1-0.7c0-9.5-0.1-19-0.1-28.5
		c0-5.7,0-11.4-0.1-17c0-3.5,2.7-6,5.8-6.4c2.4-0.4,4.6-0.1,6.6,1.3c1.7,1.1,2.6,2.7,2.6,4.6c0.1,5.4,0,10.7,0,16.1
		c0,0.1,0,0.3,0,0.4c-0.2,1.9,0.2,2.3,2.2,1.9c3-0.6,5.6,0.3,7.8,2.2c0.8,0.8,1.3,2,1.8,3.1c0.5,1.3,0.6,1.2,1.9,0.9
		c1.3-0.2,2.8-0.4,4,0c2.8,0.8,5.2,2.2,6,5.4c0.2,0.6,0.6,0.8,1.1,0.6c4.4-1.5,10.5,2,10.4,7.9c-0.1,6.8,0.1,13.5,0.2,20.3
		c0,3.2,0.1,6.4,0.2,9.7c0.1,2.9-0.9,5.5-2.3,8c-2,3.5-3.8,7.2-4.8,11.1c-0.6,2.4-0.6,4.9-1,7.4c-0.1,0.5-0.2,1.4-0.5,1.4
		c-0.7,0.2-1.6,0.2-2.3,0c-0.7-0.2-0.5-1-0.3-1.6c0.2-0.8,0.3-1.6,0.3-2.4c-0.1-2.8,0.6-5.4,1.5-8c0.8-2.2,2-4.4,2.9-6.6
		c1.1-2.5,2.4-5,3.1-7.6c0.5-2.1,0.3-4.4,0.3-6.7c-0.2-8.1-0.4-16.1-0.6-24.2c0-1.3,0.1-2.7-0.8-3.8c-1.4-1.8-3.2-2.4-5.4-2.2
		c-1,0.1-2,1.5-2,2.7c0,3.8,0,7.7,0,11.5c0,0.5-0.3,1.5-0.6,1.5c-0.7,0.2-1.6,0-2.3-0.2c-0.2-0.1-0.3-0.7-0.3-1
		c0-5.2,0-10.4,0.1-15.6c0-3-1.6-4.7-4.6-4.7c-0.7,0-1.6-0.1-2.2,0.2c-1.1,0.5-1.7,1.5-1.7,2.8c0,3.8,0,7.7,0,11.5
		c0,1.4-0.3,1.7-1.5,1.7c-1.5,0-1.8-0.2-1.8-1.6c0-5.4,0-10.8,0.1-16.2c0-1.9-0.7-3.2-2.2-4c-1.7-0.9-3.5-1.1-5.3-0.1
		c-0.9,0.5-1.2,1.3-1.2,2.3c0,3.8,0,7.6,0,11.4c0,1.3-0.5,1.9-1.8,1.9c-1,0-1.4-0.6-1.4-1.9c0.1-4.7,0.2-9.3,0.2-14
		c0-6.5-0.1-13,0-19.4c0.1-4.3-4-6.3-7.2-4.5c-1.4,0.8-1.9,1.9-1.9,3.4C45.8,21.9,45.8,29.6,45.8,37.4
		C45.8,37.4,45.8,37.4,45.8,37.4z"/>
	<path class="st0" d="M15.5,20.6c0,0.6,0,1.2,0,1.8c0,0.7-0.4,0.9-1,0.6c-2.3-1.2-4.6-2.3-6.9-3.5c-2.2-1.1-4.5-2.2-6.8-3.3
		c-0.4-0.2-0.7-0.6-0.8-1c0-0.1,0.5-0.5,0.9-0.7C1.9,14,3,13.5,4.1,13c3-1.5,6-3,9-4.5c0.4-0.2,0.7-0.5,1-0.6
		c0.4-0.1,0.9-0.4,1.1-0.2c0.3,0.2,0.3,0.7,0.3,1.1c0,0.9-0.1,1.9-0.1,2.8c0,1.1,0.5,1.4,1.6,1.4c4.6-0.1,9.2-0.1,13.9-0.1
		c0.7,0,1.1,0.4,1.1,1.1c0.1,0.9,0.1,1.7,0.1,2.6c0,0.9-0.5,1.3-1.6,1.3c-4.4,0-8.9-0.1-13.3-0.1c-1.7,0-1.8,0.1-1.8,1.8
		C15.4,19.9,15.4,20.3,15.5,20.6C15.4,20.6,15.5,20.6,15.5,20.6z"/>
	<path class="st0" d="M100,15.5c-0.3,0.2-0.5,0.5-0.8,0.6c-2.8,1.5-5.6,3-8.4,4.5c-1.6,0.8-3.2,1.5-4.8,2.2
		c-0.9,0.4-1.3,0.1-1.2-0.9c0.1-0.9,0.2-1.8,0.2-2.7c0-1.1-0.3-1.5-1.4-1.5c-4.6,0-9.1,0-13.7,0c-1.4,0-1.8-0.4-1.6-1.8
		c0.1-0.6,0-1.1,0-1.7c0-0.8,0.2-1.4,1.2-1.4c4.2,0,8.5,0,12.7,0c2.7,0,2.8,0.1,2.7-2.7c0-0.6-0.2-1.1-0.2-1.7
		c0-0.3,0.1-0.7,0.3-0.9c0.2-0.1,0.6,0,0.9,0.1c1.6,0.7,3.1,1.5,4.6,2.3c2.9,1.6,5.8,3.3,8.7,4.9C99.6,15.1,99.8,15.3,100,15.5z"/>
	<path class="st0" d="M64.5,14.8c0.1,2.6-1,5.5-2.8,8.1c-0.2,0.2-0.6,0.3-0.8,0.5c-0.2-0.3-0.5-0.7-0.5-1c0-1.8,0.2-3.7,0.2-5.5
		c0.1-1.7,0.4-3.5,0-5.1c-0.6-2.8-2.3-5-4.7-6.6c-3-1.9-6.3-2-9.5-0.9c-2.3,0.8-4.1,2.5-5.3,4.5c-1.5,2.4-1.6,5.1-1.2,7.8
		c0.2,1.9,0.2,3.9,0.2,5.8c0,0.3-0.3,0.6-0.5,0.9c-0.3-0.2-0.8-0.3-0.9-0.6c-2-3.4-3.1-6.9-2.4-10.9c1-5.5,4.2-9,9.3-11
		C47.9,0,50.4-0.3,53,0.3c3.9,0.9,6.9,3,9.2,6.1C63.9,8.8,64.5,11.4,64.5,14.8z"/>
</g>
</svg>
