<?xml version="1.0" encoding="utf-8"?>
<!-- Generator: Adobe Illustrator 19.2.1, SVG Export Plug-In . SVG Version: 6.00 Build 0)  -->
<svg version="1.1" id="Layer_1" xmlns="http://www.w3.org/2000/svg" xmlns:xlink="http://www.w3.org/1999/xlink" x="0px" y="0px"
	 viewBox="0 0 200 214.7" style="enable-background:new 0 0 200 214.7;" xml:space="preserve">
<style type="text/css">
	.st0{fill:#00BCD4;}
</style>
<g id="stuffynose-girl2">
	<path class="st0" d="M0,214.7c0.4-4.5,0.7-9.1,1.1-13.6c0.2-2.9,0.5-5.9,0.6-8.8c0.3-5.8,1.8-11.2,3.7-16.6
		c1.9-5.5,4.7-10.5,8.7-14.6c2.7-2.7,5.6-5.3,9.2-7.1c3.4-1.7,6.9-3.1,10.4-4.6c1.4-0.6,2.5-1.6,3.8-2.5c0.3-0.2,0.5-0.7,0.9-0.7
		c1.5-0.4,2-1.6,2.5-2.8c0.6-1.3,0.6-2.5,0.4-3.9c-1.2-8.3-4.4-16-6.6-24c-1.7-6.2-3.7-12.2-5.6-18.3c-0.8-2.6-1.7-5.2-2.6-7.8
		c-0.5-1.4-1-2.9-1.5-4.3c-0.6-1.7-1-3.5-1.6-5.2c-1.5-3.9-2.6-7.9-3.2-12c-0.4-2.8-0.5-5.7-0.3-8.5c0.2-2.9,0.9-5.9,1.7-8.7
		c1.2-4.3,3.4-7.7,8.4-8.4c2-0.3,3.9-0.6,6-0.9c0.7-4.4,2.1-8.8,4.2-12.9c0.7-1.3,1.8-2.5,2.8-3.6c3-3.5,6.6-6.4,10.5-8.9
		c2.8-1.9,5.4-4.1,8.3-5.9c2.8-1.6,5.4-3.7,8.8-4.1c1-0.1,2-0.9,3-1.3c3-1.1,5.9-2.4,9-3c4.5-0.9,9.1-2,13.7-1.3
		c3.2,0.5,6.4,1.4,9.6,2.3c3.5,1,7,2,10.3,3.4c2.6,1.1,4.9,2.7,7.3,4.2c0.9,0.5,1.7,1.1,2.6,1.6c3.4,1.6,5.5,4.4,7.5,7.4
		c1.2,1.8,2.4,3.5,3.3,5.4c0.8,1.6,1.4,3.4,1.7,5.1c0.6,4.1,1,8.2,1.3,12.3c0.1,1.4-0.5,2.8-0.4,4.2c0.1,1.2,0.7,2.3,1.2,3.4
		c1.2,3,2.4,5.9,1.8,9.3c-0.4,2.1-0.7,4.1-0.9,6.2c-0.4,3,0.4,5.8,1.3,8.6c0.3,1,0.6,2,0.7,3.1c0.1,1.4,0.6,2.3,2.2,2.5
		c2.9,0.3,5.3,1.7,7.8,3c2.2,1.1,4.5,2,6.9,2.7c4.5,1.3,9.2,4.4,9.8,10.6c0.6,6.7,0.7,13.4,0.4,20.1c-0.1,1.5,0.2,3.2,0.8,4.6
		c2.6,7,6.6,13.4,8.4,20.7c1.5,5.8,3.1,11.5,5.4,17c1.4,3.3,3,6.5,4.4,9.8c2.8,6.6,5.7,13.3,8.3,20c1,2.6,1.6,5.5,1.8,8.2
		c0.4,3.9,0.5,7.8,0.2,11.8c-0.1,1.9-1.2,3.8-1.9,5.7c-0.2,0.5-0.4,0.9-0.6,1.4c-1,0-1.9,0-2.9,0c1.6-3,3.1-6,3-9.6
		c-0.1-4.9,0.1-9.8-1.3-14.5c-1.1-3.6-2.4-7.2-3.9-10.7c-2.9-7.2-6.1-14.3-8.9-21.5c-2-5.2-4.1-10.4-5.5-15.9
		c-1.8-7.5-5.3-14.3-8.6-21.2c-0.1-0.2-0.3-0.4-0.4-0.5c-1.1,0.6-2.1,1.2-3.1,1.6c-0.4,0.1-0.9-0.2-1.4-0.3c0.2-0.5,0.4-1.1,0.8-1.3
		c0.8-0.5,1.7-0.7,2.5-1.1c0.3-0.2,0.6-0.7,0.6-1c0-1.1-0.1-2.1-0.2-3.2c0-5.4,0.1-10.8-0.1-16.2c-0.1-3.6-0.2-7.5-3.7-9.8
		c-1.4-0.9-2.9-1.6-4.4-2.2c-3.3-1.4-6.8-2.3-9.8-4.1c-2.1-1.3-4-2.2-6.5-1.7c-1.7,0.3-3.5,0.5-5.3,0.6c-5,0.3-10-1.4-15.1-0.7
		c-1.3,0.2-2.8,1-3,2.1c-0.2,1.1,0.6,2,2.2,2.3c2,0.5,4.1,0.9,6.2,1.1c0.9,0.1,1.9,1.3,2.9,0c0.6-0.9,1.3-1.7,2-2.6
		c0.1-0.1,0.2-0.4,0.3-0.5c0.5-0.3,1-0.4,1.5-0.7c-0.9,3.3-4,5.2-3.7,8.8c0.1,0.7-0.2,1.4-0.3,2.1c-0.4,1.9-0.9,3.8-1.3,5.8
		c4.2,0.7,2.6,4.2,3.5,6.7c0.8-0.9,1.7-1.9,2-3c0.6-2.4,0.9-5,1.3-7.5c0.3-1.8,0.4-3.7,0.9-5.5c0.8-2.5,1.8-5,4.5-6.2
		c0.4-0.2,1,0,1.5,0c-0.3,0.4-0.5,1-0.8,1.2c-1.6,0.8-2.5,2.2-3.2,3.8c-2.1,4.5-1.4,9.2-0.8,13.9c0,0.3,0.6,0.8,1,0.9
		c2.1,0.4,3,1.2,3.3,3.2c0.1,1,0.3,1.9,0.5,3.2c0.5-0.6,0.8-0.9,0.9-1.2c0.3-1.1,0.9-2.3,0.8-3.4c-0.3-2.6-0.8-5.3-1.6-7.8
		c-0.8-2.5-1.1-4.9,0.5-7.1c1-1.5,2.2-2.9,3.3-4.4c0.1-0.2,0.5-0.2,0.7-0.3c0,0.3,0.2,0.6,0.1,0.8c-0.5,0.9-1,1.8-1.7,2.6
		c-2.3,2.5-3,5.3-1.3,8.4c0.7,1.2,1.3,2.4,2.1,3.6c1.1,1.7,2.5,1.8,3.7,0c0.5-0.7,0.6-1.7,0.8-2.6c0.2-1.1-0.2-1.7-1.5-1.7
		c-0.4,0-0.8-0.4-1.2-0.7c0.4-0.2,0.9-0.7,1.2-0.7c1.4,0.1,1.7-0.7,1.9-1.8c0.1-0.4,0.1-0.8,0.2-1.1c0.2-0.3,0.5-0.6,0.8-0.9
		c0.2,0.3,0.4,0.7,0.4,1c-0.1,1.2-0.3,2.3-0.4,3.6c1.9-1.1,3.7-2.2,5.5-3.3c0.3-0.2,0.8-0.1,1.2-0.1c-0.2,0.4-0.3,0.9-0.6,1.1
		c-0.6,0.4-1.3,0.7-2,1.1c-1.3,0.7-2.5,1.5-3.8,2.3c0.1,0.1,0.1,0.2,0.2,0.4c0.4,0,0.8-0.1,1.2-0.1c2-0.2,4-0.5,6-0.7
		c0.4,0,0.8,0.4,1.1,0.6c-0.3,0.3-0.7,0.7-1,0.8c-2,0.3-4.1,0.5-6.1,0.7c-0.8,0.1-1.7,0.1-2,1.2c-0.8,2.8-3.3,4-6.2,2.8
		c-0.1,0.5-0.2,0.9-0.3,1.3c-0.1,1.2-0.2,2.5-0.3,3.7c-0.2,1.4-0.9,2.6-2.5,3c-2.5,0.6-5.3-1-5.9-3.6c-0.3-1.2-0.3-2.4-0.4-3.6
		c-0.1-0.8-0.1-1.6-0.2-2.4c-0.4,0.2-0.5,0.4-0.6,0.6c-0.2,2.1-0.8,3.9-2.6,5.2c-0.2,0.1-0.4,0.5-0.3,0.7c0.6,1.8,1,3.9,2.1,5.5
		c2,2.9,4.4,5.4,6.8,8.1c1.4,1.6,2.9,2.9,4.3,4.5c1.4,1.7,2.3,2.1,4.4,1.3c1.6-0.6,3-1.5,4.5-2.1c0.4-0.2,1,0.1,1.5,0.2
		c-0.1,0.5-0.1,1.2-0.4,1.5c-1,0.7-2.1,1.3-3.3,1.8c-1.2,0.5-2.5,0.8-3.9,1.2c0.2,0.6,0.4,1,0.6,1.5c0.7,2.3,1.8,4.7,1.8,7
		c0.1,6.2,2.1,12,2.7,18c0.3,3.2,1,6.5,1.1,9.7c0.4,8.9,0.5,17.8,0.8,26.7c0.1,3,0.6,5.9,0.7,8.9c0,0.5-0.7,1-1.1,1.6
		c-0.4-0.5-1-1-1.1-1.5c-0.2-1,0-2.1-0.1-3.2c-0.4-4.6-0.9-9.3-1.1-13.9c-0.2-5.1-0.4-10.3-0.3-15.5c0.2-6-1.2-11.7-2-17.6
		c-0.4-3.1-1.1-6.2-1.6-9.4c-0.3-2.1-0.3-4.2-0.6-6.2c-0.2-1.4-0.9-2.6-2.3-2.8c-3-0.4-6,0-8.6,0.5c1.8,5.4,3.6,10.6,5.3,15.9
		c0.4,1.4,0.3,2.9,0.6,4.4c0.1,0.4,0.4,0.8,0.7,1.1c0.1,0,0.3-0.1,0.4-0.1c0.3-1.2,0.6-2.4,1-3.5c0.1-0.4,0.7-0.7,1.1-1
		c0.3,0.4,0.8,0.8,0.9,1.3c0.1,0.6-0.2,1.2-0.3,1.8c-1.1,5-3,9.8-2.7,15.1c0.2,3.8,0.3,7.5,0.3,11.3c0,2.9,0.3,5.8,1.2,8.5
		c1.8,5.5,3.8,10.9,5.7,16.4c1.1,3,2.2,6,3.3,9c-41.5,0-83.1,0-124.6,0c0.1-3.5,0.4-7,0.4-10.5c0-2.1-0.6-4.2-1-6.2
		c-0.4-2.2-1.1-4.3-1.4-6.5c-0.6-5.2-0.8-10.6-1.6-15.8c-0.9-5.6-2.3-11.1-3.5-16.7c-0.2-0.8-0.8-1.6-1.3-2.6
		c-1.8,1.5-3.4,2.8-4.9,4.2c-5.6,4.8-9.6,10.7-11.6,17.8c-1.5,5.4-2.7,10.9-2.8,16.5c0,3-0.5,6-0.8,9c-0.4,3.6-0.8,7.2-1.2,10.7
		C1.4,214.7,0.7,214.7,0,214.7z M128,88.7c0-0.2,0-0.4,0-0.6c-2.2-0.4-4.4-0.8-6.6-1.3c-2.2-0.5-3-3.1-1.5-4.8
		c0.3-0.3,0.4-0.7,0.7-1.1c-1.3-0.2-2.4-0.5-3.5-0.4c-3.6,0.4-5-1.9-4-5.1c0.5-1.5,2.2-2.8,3.4-2.7c0,0.1,0.1,0.3,0,0.4
		c-0.5,0.6-1,1.1-1.5,1.7c-0.9,1-1.1,2.8-0.4,3.6c0.9,1,2.3,0.9,3.6-0.1c0.4-0.3,0.7-0.6,1.1-0.9c1.5-0.9,3.3-0.6,4.1,0.8
		c0.8,1.5,1.4,1.7,2.9,1c1-0.5,1.9-1.3,2.9-1.9c2.3-1.4,2.8-2.6,1.6-4.9c-1.7-3.2-3.5-6.3-5.3-9.3c-1.6-2.6-1.8-5.4-1.1-8.2
		c0.7-2.7,3.2-5.9,6.8-5.6c2.2,0.2,4.5,0,6.3,0c-0.6-2.9-1.2-6-1.7-9.1c-0.1-0.5,0-1.1-0.2-1.6c-1.3-3.8-2.5-7.6-4-11.4
		c-2.2-5.7-6.7-8.9-12.2-10.7c-1.6-0.5-3.4-0.4-5.1-0.5c-4.4-0.1-8.4-1.1-11.9-3.9c-2-1.6-4.2-3.2-6.9-3.6c-3.3-0.5-6.6-1-10-1.4
		c-0.8-0.1-1.7,0.1-2.4,0.4c-0.5,0.2-1,0.9-1,1.4c0,0.4,0.7,0.9,1.2,1.1c2.9,1.1,6,0.8,9,0.9c2.7,0.1,5.2,0.9,7.8,2.8
		C99.2,14,98.8,14,98.4,14c-2.4,0-4.9-0.3-7.3,0.1c-6.5,1.2-10.9,5.2-13,11.5c-0.9,2.7-0.7,5.7-1.4,8.5c-1.4,5.4-3,10.8-4.7,16.2
		c-1.5,4.6-4.5,8.4-7.8,11.9c-1.4,1.5-2.3,3.3-2.4,5.5c-0.1,1.9-0.3,3.8-0.4,5.9c-0.9-0.1-1.9-0.6-2.7-0.3c-1.3,0.4-1.8-0.3-2.3-1.1
		c-0.5-0.9-0.9-1.8-1.5-2.6c-1.8-2.5-4.4-4-7.2-5.3c-1.2-0.6-2.3-0.4-3.2,0.3c-3.9,2.5-6.4,9.2-4.7,13.5C41.9,84.1,45,89.4,50,93.6
		c2.3,1.9,4.8,3.5,7.4,4.8c1.3,0.7,2.6,0.5,3.7-0.3c2-1.5,2.4-6.4,0.6-8.2c-0.6-0.6-2.5-1.1-2.6-1c-1,1.6-2.5,1.3-4.1,1.4
		c0,0.8,0.1,1.4,0,2.1c-0.1,0.4-0.5,1-0.7,1c-0.5,0-1.1-0.3-1.3-0.7c-0.4-0.7-0.4-1.6-0.7-2.3c-0.2-0.5-0.4-1.2-0.9-1.5
		c-2.8-1.9-5.4-3.9-7.2-7.1c-1.9-3.4-3.6-6.7-2.7-10.8c0.7-3.1,4.8-5.4,7.5-3.6c1.7,1.1,3.1,2.6,4.5,4c0.3,0.3,0,1,0,1.6
		c-0.5-0.1-1.2,0.1-1.5-0.2c-1.5-1.2-2.8-2.4-4.3-3.6c-1-0.8-2.1-0.8-2.6,0.3c-1.2,2.6-2.6,5.3-0.5,8.2c0.4,0.5,0.5,1.2,0.8,1.6
		c1,1.3,2,2.4,3,3.6c0.4-1.8,0.5-3.5,1.1-5c0.8-1.9,1.8-2.1,4.3-1.3c-0.3,0.4-0.5,0.8-0.9,1c-2,1-2,2.9-2.1,4.7
		c-0.2,2.6,0.8,4.3,3.1,5.3c1.5,0.6,2.6,0.5,3.8-0.6c0.4-0.3,1.1-0.8,1.5-0.7c1.6,0.5,3.4,0.8,4.2,2.4c1.7,3.2,1.1,6.6-0.2,9.6
		c-1,2.4-3.4,3.6-6.4,2c-0.6-0.3-1.3-0.5-2.3-0.9c1.2,2.4,2.3,4.4,3.2,6.4c0.7,1.5,1.1,3.1,1.9,4.5c1.8,2.9,2.9,6,3.1,9.3
		c0.1,2.5,0.4,5.3-0.4,7.6c-1.5,4.1-4,7.7-7.9,10.1c-2,1.3-3.8,2.9-5.7,4.4c-2.5,2.1-4.7,4.7-8,5.8c-0.1,0-0.1,0.2-0.2,0.3
		c0.5,0.5,1,1,1.5,1.5c2.2,1.9,4.5,3.8,6.6,5.8c3.3,3.1,6.5,6.5,9.9,9.5c2.2,2,4.8,3.7,7.3,5.3c2.4,1.6,5.3,1.9,8.2,2.5
		c4.6,1,9.2,2,13.9,1.6c1.9-0.2,3.8,0,5.6,0c1.4,0,2.9-0.1,4.3-0.4c5.7-1,11.4-2.1,17.1-3.1c2.3-0.5,4.1-1.3,4.8-4.2
		c0.7-3.1,1.5-6,1.3-9.2c-0.2-3.9-0.1-7.7-0.4-11.6c-0.2-3.3-0.7-6.6-1.1-9.9c-0.1-0.8-0.5-1.2-1.3-1.1c-1.3,0.1-2.6,0.1-3.9,0
		c-2.1-0.2-4.1-0.7-5.9-1.9c-2-1.4-4.3-2.5-6.5-3.6c-2.1-1-4.5-1.4-6.5-2.4c-4.2-2.1-8.2-4.6-12.4-6.8c-3.6-1.9-6.7-4.2-8.7-7.8
		c-1.7-3.1-3.5-6.1-5.2-9.1c-0.7-1.3-1.4-2.6-2-4c-0.2-0.4,0.1-1,0.2-1.5c0.5,0.3,1,0.6,1.3,1c0.6,1,1,2,1.6,3
		c1.3,2.2,2.5,4.4,3.9,6.6c1.3,2,2.6,4,4,5.8c0.6,0.8,1.5,1.5,2.4,2.1c2.5,1.5,5.1,2.9,7.7,4.3c3.9,2,7.7,4.3,11.7,5.9
		c3.5,1.4,7,2.6,10.1,4.8c2.6,1.8,5.7,1.7,8.5,1c5-1.2,8-5,9.6-9.6c0.9-2.6,1.9-5.1,3.4-7.5c1.1-1.7,1.6-3.3,0.7-5.4
		c-0.4-0.8-0.7-1.1-1.5-1.1c-1,0-0.8,0.7-0.9,1.3c-0.3,4.6-4.4,7.7-8.9,6.7c-0.3-0.1-0.6-0.1-1-0.2c-4.2-0.6-7.7-2.3-10-5.9
		c-1.9-2.9-3.5-6.1-5.2-9.1c-0.2-0.3,0.1-0.9,0.3-1.3c1.7-2.5,3.8-4.6,6.4-6.1c3-1.7,6-3.5,9-5.1c1.4-0.8,2.8-1.2,4.5-0.2
		C125.9,89,127.1,88.7,128,88.7z M134.5,114.6c-0.2,0-0.3,0-0.5,0.1c-1,2.2-2.2,4.2-2.8,6.5c-0.8,2.9-1.9,5.6-4.1,7.7
		c-0.4,0.5-0.7,1.1-1.2,1.9c7.4,2.1,14.6,1.2,22.4,0.9C144,125.4,138.2,120.9,134.5,114.6z M119.5,110c0.6,0,1.2,0,1.7,0
		c1.7-0.1,3-1,3.9-2.4c0.8-1.3-0.5-2.2-1.1-3.2c-0.2-0.3-0.4-0.5-0.6-0.8c-1.7-2.1-3.6-4.1-5-6.3c-1.3-2.1-1.8-2.6-4.6-1
		c-2,1.1-3.7,2.5-5.7,3.7c-1,0.6-1,1.3-0.6,2.2C109.7,107.5,113.7,110.1,119.5,110z M142.2,80.1c-1.2-4.9-2.3-9.7-3.5-14.6
		c-1.1-0.5-2.6-1-4.1-1.6c-0.3-0.1-0.6-0.2-1-0.2c-2,0-4.1,0-6.2,0c0.2,0.5,0.4,1.1,0.8,1.6c1.2,2.1,2.5,4.2,3.6,6.3
		c0.4,0.7,0.8,1.6,0.9,2.4c0.2,1.9-1,3.2-2.3,4.3c-0.5,0.4-1,0.8-1.5,1.2c0.1,0.1,0.1,0.3,0.2,0.4C133.3,80.2,137.6,80.9,142.2,80.1
		z M125.4,58.3c0.1,0.1,0.3,0.2,0.4,0.2c1.6-2.1,3.8-1.8,5.9-1.6c3.5,0.3,6.1,2.7,6.9,6.1c0.1,0.3,0.4,0.5,0.7,0.8
		c1.2-3.4,1.1-6.7,0.9-10c-0.1-1.1-0.6-2-2.2-1.9c-3.2,0.2-6.3,0.2-9.5,0.8c-1.6,0.3-2.3,1.1-2.6,2.3
		C125.6,56.1,125.6,57.2,125.4,58.3z M111.1,108.9c0.2,0.6,0.2,0.8,0.3,1c3,3.9,7.1,5.6,11.8,5.6c1.8,0,3.6-0.6,4.4-2.5
		c0.9-2,2-4,0.8-6.4c-0.1-0.2,0-0.6,0-0.9c0.3-3.1,0.5-6.2,0.8-9.3c0.1-0.9,0.1-1.6-1.3-1.8c0,0.9,0.2,1.7,0.1,2.4
		c-0.3,2.9-0.7,5.8-1,8.7c-0.1,1.2-0.1,2.3-1,3.2c-2.5,2.7-9.3,3.4-12.3,1.3C113,109.7,112.1,109.4,111.1,108.9z M126.3,103.2
		c0.2-0.1,0.3-0.1,0.5-0.2c-0.1-2-0.2-4.1-0.4-6.1c-0.3-3-2.3-4.3-5.2-3.3c-1.8,0.6-2.2,1.6-1.1,3.3c0.1,0.2,0.2,0.3,0.3,0.5
		c1.4,1.6,2.8,3.2,4.3,4.7C125.1,102.5,125.7,102.8,126.3,103.2z M111.4,95.6c0,0.1,0.1,0.3,0.1,0.4c0.4-0.1,0.8,0,1.2-0.2
		c0.8-0.4,1.5-0.9,2.3-1.2c3-1.5,6.1-2.7,9.5-2.2c1.6,0.2,3.1,0.7,4.6,0.9c0.3,0.1,0.8-0.1,1.1-0.4c0.2-0.2,0.3-0.8,0.1-1.1
		c-0.4-1.1-2-1.7-3.2-1.6c-0.8,0.1-1.7,0-2.4-0.4c-1.4-0.9-2.7-0.6-4,0.1c-2.5,1.4-5,2.9-7.4,4.3C112.6,94.7,112,95.2,111.4,95.6z
		 M40.9,58.8c-2.8-3.3-2.6-7.3-2.7-11.5c-1.1,0.2-1.9,0.3-2.8,0.4c-0.1,0.3-0.3,0.6-0.2,0.9c0.3,3.1,0,6.3,1.6,9.2
		C38,60.2,38.4,60.4,40.9,58.8z M131.9,107c-0.1-1.6-0.1-3.3-0.3-4.9c0-0.3-0.6-0.6-0.9-0.9c-0.3,0.3-0.7,0.6-0.7,0.9
		c-0.1,1.2-0.1,2.4-0.1,3.6C129.9,106.7,130.4,107.3,131.9,107z M142,109.7c0-0.7,0.1-1.4,0-2.1c-0.1-1.2-0.7-2.1-2-2.3
		c-0.3-0.1-0.8,0.2-0.9,0.4C138.6,107.3,140.2,109.7,142,109.7z M134.2,62.2c0.4-0.2,0.8-0.4,1.2-0.6c1.1-0.4,1.1-1.1,0.4-1.7
		c-0.8-0.7-1.9-1.1-2.9-1.7C133.4,59.7,133.8,60.9,134.2,62.2z M127.8,63c0.1-0.1,0.3-0.2,0.4-0.3c-1.4-1.1-1.4-1.3-1.2-3.3
		c-0.4,0.4-1,1-0.9,1.3C126.6,61.4,127.2,62.2,127.8,63z"/>
	<path class="st0" d="M102.6,63.9c-3.4-0.5-6.3-1-9.2-1.5c-1.7-0.3-3.3-0.2-4.8,0.7c-0.4,0.2-0.8,0.5-1.2,0.5
		c-0.3,0-0.7-0.3-0.9-0.5c-0.1-0.1,0.1-0.7,0.3-0.8c3.9-2,7.1-5.4,11.5-6.3c2.2-0.5,4.6-0.7,6.8-0.7c2.3,0,4.3,2.7,3.8,4.9
		c-0.1,0.6-0.8,1.3-1.4,1.6C105.8,62.6,104.1,63.3,102.6,63.9z M98.7,61.6c-0.3-0.9-0.6-1.4-0.6-1.9c0-0.5,0.3-1,0.5-1.7
		c-1.6,0.7-3.1,1.3-4.5,1.9c-0.2,0.1-0.4,0.4-0.4,0.5c0.1,0.3,0.4,0.7,0.6,0.7C95.7,61.4,97.1,61.5,98.7,61.6z M104.6,61.2
		c0.2,0.1,0.4,0.3,0.5,0.4c0.6-0.6,1.5-1,1.7-1.7c0.2-0.6-0.1-1.6-0.5-2.1c-0.4-0.4-1.2-0.4-1.8-0.6c-0.1,0.1-0.3,0.3-0.4,0.4
		C105.8,58.6,104.9,59.9,104.6,61.2z"/>
	<path class="st0" d="M108,47c0.8,0.1,2,0.2,3.1,0.5c1.1,0.3,2.4,0.6,2.3,2.1c0,0.8-1.7,2.1-3,2.1c-0.9,0.1-1.8,0.2-2.6,0
		c-3.7-1.3-7.1,0-10.6,1.2c-1.6,0.6-3.1,1.2-4.7,1.8c-0.3,0.1-0.6-0.1-0.9-0.1c0.1-0.3,0.1-0.8,0.4-1c4.3-2,7.9-5.3,12.6-6.3
		C105.6,47.1,106.6,47.1,108,47z"/>
</g>
</svg>
