<?xml version="1.0" encoding="utf-8"?>
<!-- Generator: Adobe Illustrator 18.1.1, SVG Export Plug-In . SVG Version: 6.00 Build 0)  -->
<!DOCTYPE svg PUBLIC "-//W3C//DTD SVG 1.1//EN" "http://www.w3.org/Graphics/SVG/1.1/DTD/svg11.dtd">
<svg version="1.1" id="Layer_1" xmlns="http://www.w3.org/2000/svg" xmlns:xlink="http://www.w3.org/1999/xlink" x="0px" y="0px"
	 viewBox="0 0 120 201.6" style="enable-background:new 0 0 120 201.6;" xml:space="preserve">
<style type="text/css">
	.st0{fill:#03A9F4;}
</style>
<g id="stuffynose-girl">
	<g>
		<path class="st0" d="M15.1,201.6c0.9-3.1,1.7-6.2,2.6-9.3c0.1-0.5,0.2-1.1,0.3-1.6c0.2-1.1-0.4-1.6-1.4-2c-2.1-1-4.2-2.1-6.1-3.4
			c-2-1.4-4.2-2.8-5.8-4.6c-3.7-4-5.8-8.6-4.2-14.4c0.6-2,0.3-4.2,0.6-6.3c0.3-2.7,0.5-5.4,1.3-7.9c2-5.8,3-11.7,3.4-17.7
			c0.3-4.3,0.1-8.6,0.3-12.8c0.2-5,0.6-10.1,2.6-14.8c0.4-0.9,0.9-1.8,1.5-2.6c3-4.1,6.7-7.5,11-10.3c1.2-0.8,1.9-1.7,1.8-3.3
			c-0.3-3.3-1.4-6.3-2.6-9.3c-1.8-4.5-2.9-9.1-3.6-13.9c-0.1-0.6-0.1-1.2-0.3-1.7c-0.8-3-1.1-6.1-1.1-9.2c-0.1-2.1-0.2-4.1-0.2-6.2
			c0-2.5,0.4-4.8,1.3-7.1c1.3-3.3,1.8-6.7,1.9-10.2c0-1.9,0.7-3.7,1.7-5.3c0.7-1.1,1.2-2.3,1.5-3.6c1.1-4.6,3.5-8.5,6.5-12.1
			c1.8-2.2,4-4,6.5-5.4c1.8-1,3.7-1.9,5.5-2.8C45,0.9,50.5-0.3,56.3,0c3.9,0.2,7.8,0.8,11.7,1.2c1.4,0.2,2.9,0.2,4.2,0.6
			c2.7,0.7,5.2,2,7.1,4.2c3.6,4.2,7.1,8.3,9.2,13.4c1.1,2.7,2.8,5.3,4,8c1.4,3.3,2.8,6.7,3.9,10.1c0.7,2.1,0.8,4.4,1.2,6.5
			c1.1,5.2,2.1,10.4,3.4,15.6c0.9,3.5,2.1,6.9,3.3,10.3c0.8,2.2,1.8,4.3,3,6.2c2.1,3.5,2,7.2,1.7,11c-0.1,1.8,0.2,3.1,1.3,4.6
			c2,2.6,3.4,5.7,5.3,8.4c3,4.4,3.4,9.4,3.6,14.3c0.3,6.8,0.3,13.7,0.4,20.5c0.1,2.9,0.2,5.7,0.2,8.6c0.1,5.4,0.2,10.9,0,16.3
			c0,1.8-0.8,3.5-1.2,5.3c-1,4-2.2,8-3.2,12c-1.7,6.9-0.7,14-0.4,20.9c0,1.2,0.3,2.3,0.5,3.5c-0.5,0-1,0-1.5,0
			c-0.2-0.8-0.6-1.6-0.7-2.4c-0.2-1.3-0.1-2.7-0.2-4c-0.4-4.7-0.4-9.4,0.3-14.1c0.1-0.6,0-1.1,0-1.9c-0.4,0.2-0.6,0.2-0.7,0.3
			c-2.2,1.9-4.7,3.4-7.3,4.8c-2.1,1-4.1,1-5.9-0.1c-3.5-2.2-7-4.6-10.2-7.2c-1.9-1.5-3.6-3.4-5-5.3c-2.6-3.7-5.1-7.3-8.5-10.4
			c-2.8-2.6-5.1-5.6-7.5-8.5c-1.9-2.2-3.6-4.4-5.5-6.6c-0.7,1-1.3,1.9-2,2.8c-0.3,0.4-1,0.6-1.5,0.6c-2.7-0.2-5.3-0.6-7.8-0.9
			c-0.5,0.5-0.9,0.8-1.3,1.1c-0.4,0.3-0.9,0.5-1.1,0.8c-3,5.1-5.9,10.3-8.8,15.4c-2.7,4.8-5.2,9.8-9.2,13.8c-3.4,3.3-6.4,7-11.2,8.2
			c-0.4,0.1-0.7,0.8-0.8,1.3c-0.1,0.8,0.2,1.7,0,2.5c-0.9,3.3-2,6.6-3,9.9C15.8,201.6,15.5,201.6,15.1,201.6z M47.3,82.6
			c-0.3,0.1-0.7,0.1-0.8,0.3c-1,1.5-2.2,2.9-3,4.4c-1.3,2.6-2,5.4-2.4,8.3c-0.1,0.6-0.4,1.2-0.6,1.8c-0.1,0-0.3-0.1-0.4-0.1
			c0.1-0.7,0.3-1.4,0.3-2.1c0.5-4.3,1.9-8.2,4.4-11.6c1.1-1.5,2.3-3,3.6-4.4c1.1-1.3,1.8-2.8,2-4.5c0.1-0.6-0.2-1.3-0.2-2
			c-1.2,1.1-1.7,2.6-3.5,2.4c-1-0.1-1.5,0.3-2,1.1c-3.3,5.2-5.7,10.7-7,16.7c-0.1,0.4-0.3,0.8-0.5,1.3c-0.2-0.1-0.4-0.1-0.5-0.2
			c0.7-2.9,1.4-5.8,2.1-8.8c-0.6,0-1.1,0-1.7,0c0.2-0.3,0.4-0.4,0.7-0.4c1.1-0.1,1.8-0.5,2.3-1.6c1.2-2.4,2.6-4.6,3.9-6.9
			c0.1-0.2,0.1-0.3,0.2-0.6c-0.2,0-0.3,0-0.4,0c-3.5,2.1-7,4.3-10.5,6.5c-0.5,0.3-1,1.1-1,1.7c0,1.5,0.3,2.9,0.5,4.4
			c0,0.2,0,0.5,0,0.7c-0.1,0-0.3,0-0.4,0c-0.2-1.3-0.5-2.5-0.6-3.8c-0.2-2.3,0.1-3.4,2.7-4.5c1.9-0.8,3.7-2.1,5.5-3.3
			c0.8-0.5,1-1.4,0.5-2.3c-2.5,2.1-2.5,2.1-4.3,0.5c-1.2,0.9-2.6,1.6-3.6,2.6c-1.3,1.4-2.1,3.1-3.3,4.6c-1.1,1.4-0.9,2.6-0.2,4.1
			c1.9,3.8,4.2,7.5,5.1,11.8c0.1,0.5,0.4,1,0.5,1.5c1.6,4.3,3.2,8.6,4.9,12.9c0,0.1,0.2,0.2,0.4,0.4c0.5-2,1.2-3.8,1.5-5.7
			c0.9-4.4,1.7-8.7,2.6-13.1c0.6-2.9,1.6-5.7,3.3-8.2c0.8-1.2,1.3-2.6,2-3.8C48.7,82.8,48,82.7,47.3,82.6c0.8-0.3,1.6-0.5,2.3-0.9
			c0.2-0.1,0.2-0.8,0-1.1c-0.2-0.3-0.9-0.5-1-0.4C48,81,47,81.4,47.3,82.6z M77.6,116.7c-1.9,1.7-3.9,3.4-5.7,5.2
			c-4.4,4.5-8.7,9.1-13,13.7c-1.2,1.2-1.3,1.6-0.2,3c2.8,3.7,5.6,7.3,8.5,10.9c2.7,3.3,5.4,6.6,8.3,9.6c3.3,3.4,6.6,6.8,9.2,10.8
			c1.8,2.8,3.9,5.2,6.7,7.1c3,2,5.8,4.1,8.9,6c0.9,0.6,2.5,0.7,3.5,0.3c3-1.2,5.8-2.9,8.2-5.2c1.6-1.6,2.6-3.5,3.2-5.6
			c0.6-2,1.1-4.1,1.8-6.1c1.1-3.6,2.1-7.2,1.8-11c-0.2-2.3-0.3-4.5-0.3-6.8c0-2.4,0.2-4.9,0.2-7.3c-0.1-6.9-0.2-13.7-0.4-20.6
			c-0.1-2.4-0.2-4.8-0.3-7.2c-0.4-7.5-3.2-14-7.5-20c-0.6-0.8-1.9-1.2-2.3-2c-0.8-1.4-2-1.5-3.3-1.6c-2.4-0.1-4.8-0.5-6.8-1.9
			c-0.4-0.3-0.9-0.6-1.4-0.8c-1.2-0.6-2.6-0.9-3.7,0c-2.8,2.1-5.5,4.4-8.3,6.5c-1.8,1.4-3.2,3.4-5.7,4c-0.2,0.1-0.5,0.4-0.6,0.7
			c-0.8,2.9-1.7,5.8-2.4,8.7c-0.4,1.8-0.8,3.7,0.2,5.4c0.6,1.2,1.4,2.4,2.2,3.5c0.4,0.5,0.9,0.9,1.5,1.2c1.9,1,2.8,2.5,2.4,4.7
			c-0.3,1.6,0.4,2.6,1.8,3.4c2,1.1,3.8,2.6,4.9,4.7c0.2,0.3,0.5,0.5,0.8,0.7c0.2-0.3,0.5-0.6,0.7-0.9c0.1-0.3,0-0.7,0.1-1
			c0.3-1.9,0.5-3.9,0.9-5.8c0.6-2.5,1.3-4.9,2-7.3c0-0.2,0.2-0.3,0.3-0.4c0.3,0.6,0.4,1.3,0.3,1.8c-0.5,2-1,4-1.7,5.9
			c-0.9,2.4-0.9,4.8-0.8,7.3c0.1,1.8,0.4,3.5,2.1,4.5c0.3,0.2,0.5,0.5,0.7,0.7c1.1,2.2,3.1,3.5,4.9,5c2.4,2,4.9,4,7.3,5.9
			c2.7,2.2,4,5.5,6.1,8.1c1,1.3,1.7,2.9,2.4,4.4c0.1,0.3-0.1,0.7-0.1,1c-0.3-0.2-0.7-0.3-0.8-0.5c-2-3.2-3.9-6.5-6-9.7
			c-0.7-1.1-1.7-2.1-2.7-3c-2.3-2-4.8-4-7.2-5.9c-1.1-0.9-2.2-1.6-3.5-2.6c-2.4,4.5-3,9.4-3.7,14.2c-0.1-1.2,0.1-2.3,0.1-3.5
			c0-3.6,1.4-6.8,2.6-10.1c0.5-1.3,0.6-2.3-0.6-3c-1.7-1.1-2.7-2.8-3.8-4.3c-1.5-2-2.9-4.1-5.4-5.2c-2.4-1.1-2.7-1.7-2.4-4.3
			c0.2-1.5-0.3-2.8-1.7-3.7C79.1,118,78.4,117.4,77.6,116.7z M29.8,126.8c0.1-0.5,0.3-0.9,0.3-1.3c0-1.3,0.2-2.5,1-3.6
			c0.3-0.4,0.3-1.3,0.2-1.9c-0.7-2.8,0.5-4.8,3.3-5.3c1.4-0.2,2.8-0.4,4.3-0.7c-0.9-5.7-4.4-10.5-6.2-15.9c-1.1,3.8-4.3,4.9-7.3,6.2
			c-1.8,0.8-3.6,1.6-5.4,2.3c-0.6,0.2-1.3,0.3-2.3,0.4c1.5-2.4,2.6-4.3,3.9-6.2c1.3-2.1,1.7-4.3,1.1-7c-2.9,2.3-5.8,4.2-8.2,6.6
			c-1.9,1.8-3.8,4-4.7,6.4c-1.6,4.5-2.3,9.3-2.5,14.1c-0.2,5.7,0.5,11.5-0.7,17.2c-0.8,3.9-0.9,7.9-2.4,11.7c-1.4,3.5-1.7,7.3-2,11
			c-0.2,2.1-0.4,4.2-0.7,6.2c-0.4,2.9-0.8,5.7,1.1,8.2c0.1,0.1,0.1,0.3,0.2,0.4c1.5,2.4,3,4.8,5.5,6.3c1.3,0.9,2.6,1.8,4,2.7
			c3.1,2,6.3,2.9,9.9,0.8c4.9-2.8,8.7-6.8,11.7-11.4c2.7-4.2,5-8.8,7.5-13.1c1.2-2.2,2.6-4.3,3.9-6.4c1.1-1.9,2.2-3.8,3.3-5.7
			c-0.5-0.3-0.7-0.4-1-0.5c-4.6-2.1-9.3-4.2-13.9-6.2c-1.2-0.5-1.3-1.2-1-2.3c0.7-2.4,1.2-4.8,1.8-7.2c0.1-0.4,0.2-1.1-0.1-1.3
			c-1.4-1.3-3-2.6-4.6-3.9c-0.8,0.5-0.8,1.8-1,3c-0.1,1-0.2,2.2-0.7,2.9c-2.8,3.6-6.3,6.6-8.9,10.4c-0.9,1.3-1.4,2.6-1.4,4.2
			c0,2,0.1,4,0.1,6.1c0,1.1-0.3,2.1-0.4,3.2c-0.1,0-0.1,0-0.2-0.1c0.1-3.8,0.3-7.6,0.4-11.6c-4,2.7-7.5,5.5-10.5,9.4
			c-0.2-1.5,0.4-2.4,1.1-3c1.9-1.7,3.7-3.4,5.8-4.9c2.2-1.6,4.2-3.3,5.8-5.5c2.2-2.9,4.8-5.6,7.1-8.4c0.5-0.6,0.7-1.3,0.9-2.1
			c0.2-1,0.4-2.1,0.5-3.2c0.1-0.5,0.2-1.2,0-1.6c-0.6-1.3-1.4-2.5-2.2-3.7c-2.3-3.6-4.5-7.3-6.8-10.9c-0.3-0.5-0.6-1-1-1.5
			c0.1-0.1,0.2-0.1,0.3-0.2C23,115.3,25.7,121.4,29.8,126.8z M49.2,69.1c0.4,0.1,1.2,0,1.7,0.2c1.6,0.8,3.2,0.6,4.9,0.3
			c0.8-0.1,1.7,0,2.6,0.1c1.7,0.2,3,1.2,4.2,2.4c2.2,2.1,5,3.2,7.8,4.2c1.7,0.6,2.9,1.6,3.6,3.3c0.2,0.4,0.5,0.7,0.8,1.2
			c0.3-0.5,0.5-0.8,0.7-1.2c2.5-6,3.9-12.3,4.1-18.8c0-1.1,0-2.3-0.3-3.4c-0.7-2.5-1.5-5-2.3-7.5c0,0,0-0.1-0.1-0.1
			c-2.1-1.8-2.9-4.2-3-6.8c-0.1-1.3-0.8-2.1-2-2.7c-0.9-0.5-1.7-1-2.5-1.7c-2-1.7-4.2-2.4-6.8-1.8c-2.9,0.7-5.4-0.4-7.6-2.2
			c-0.5-0.4-0.8-1.2-0.9-1.8c-0.4-5.5-0.7-11-1-16.5c0-0.1,0.1-0.2,0.1-0.4c0.6,0,1.2-0.1,1.7,0c3.7,0.9,7.4,1.6,10.9,2.8
			c2.5,0.8,4.7,2.2,7.1,3.2c2.7,1.1,4.6,3.3,6.3,5.4c1.1,1.3,1.7,3,2.4,4.5c0.5,1,0.9,2.1,1.3,3.1c0.3,0.6,0.5,1.3,0.7,2
			c0.4,1.8,0.8,3.7,1.2,5.6c1.2-0.2,2-0.7,1.9-2c-0.1-0.9-0.1-1.8-0.2-2.8c-0.2-1.5-0.5-3-0.6-4.5c-0.1-3-0.7-5.7-2.7-8
			c-2.1-2.4-3.9-5.2-5.9-7.7c-2.1-2.6-9.9-6.9-13.1-7.5c-0.7-0.1-1.5-0.3-2.2-0.6c-2.9-1.5-6-1.9-9.2-1.5c-1.2,0.1-2.3,0.5-3.5,0.5
			c-6.2,0-11.1,2.8-15,7.4c-0.7,0.8-1.4,1.6-1.9,2.5c-0.9,1.3-1.7,2.7-2.6,4.1c0.5,0.1,0.8,0,1-0.1c1.9-1.1,3.7-2.2,5.5-3.4
			c1.7-1.1,3.5-1.9,5.6-2.2c2.5-0.3,5-0.5,7.5-0.9c1.4-0.2,1.5-0.2,1.5,1.3c0.2,5.3,0.3,10.6,0.5,15.9c0.1,1.8-0.4,2.3-2.2,2.3
			c-1.9,0-3.8,0.1-5.8,0.2c-4.9,0.1-8.8,2.4-12.5,5.3c-0.8,0.6-1.7,1.3-1.6,2.5c0.1,3.8,0.1,7.5,0.3,11.3c0.4,7,2.2,13.7,3.9,20.4
			c0.1,0.3,0.2,0.6,0.3,0.8c1.4-0.7,2.7-1.5,4.1-2.1c2.3-0.9,2.9-0.5,3.5,2c0,0.1,0.1,0.1,0.2,0.1c1.4-0.6,1.5-0.7,1.5-1.9
			c0.1-2.4,1.8-4.4,4.1-5c0.4-0.1,1-0.6,1-0.9c0.1-1.8,0.4-3.7,0.1-5.5c-0.2-1.2-0.9-2.6-1.7-3.5c-0.5-0.5-1.7-0.4-2.5-0.6
			c-0.1,0-0.2,0-0.2-0.1c-3.1-1.4-6.4-1.6-9.7-1.9c-0.3,0-0.6-0.2-0.8-0.3c0-0.1,0-0.3,0-0.4c0.9-0.2,1.8-0.7,2.7-0.7
			c2.1,0.2,4.3,0.4,6.3,1.1c1.8,0.6,3.5,1.8,5.2,2.8c0.1,0.1,0.3,0.2,0.3,0.4c0.4,1.6,0.9,3.1,1.1,4.7
			C49.3,65.8,49.2,67.4,49.2,69.1z M49.6,79c1.2,1.3,1.4,3,0.6,4.5c-1.3,2.4-3,4.7-4,7.3c-1.1,2.8-1.9,5.9-2.2,8.9
			c-1,8.2-3.2,16-5.7,23.8c-1.8,5.6-3.1,11.4-4.5,17.1c-0.1,0.3,0.4,0.8,0.8,1c4.7,2.1,9.5,4.1,14.2,6.1c0.8,0.3,1.5,0.9,2.1-0.2
			c0.1-0.2,0.5-0.2,0.8-0.2c2.1,0.2,4.2,0.2,6.2,0.6c1.8,0.3,2.6-0.5,3.4-1.8c0.5-0.9,0.5-1.5-0.1-2.3c-2.7-3.4-5.2-6.9-6.8-11
			c-0.1-0.3-0.4-0.6-0.8-1.2c-0.9,1.7-1.7,3-2.3,4.5c-0.6,1.4-0.9,3-1.4,4.5c-0.9-1.2,1.1-6.9,3.3-9.4c-0.2-0.4-0.4-0.8-0.7-1.2
			c-0.6-0.7-0.4-1.5,0.1-2.1c1.4-2,2.9-3.9,4.4-5.8c0.5-0.7,0.7-1.2,0.5-2.1c-0.6-2.2-1.2-4.5-1.5-6.7c-0.2-1.3,0.1-2.8,0.1-4.1
			c0-4.1-0.3-8.2-0.1-12.2c0.2-3.6-0.6-6.8-1.9-10c-0.2-0.5-0.4-1-0.6-1.4c-0.1,0-0.2,0.1-0.4,0.1c0.1,1.3,0.1,2.6,0.2,3.8
			c0.1,1.2-0.1,2.1-1.2,2.8c-1.3,0.8-1.8,2.1-1.9,3.6c0,2.7,0.9,5,2.7,7c1.2,1.4,2.4,5.1,2.1,7c-0.3-1.2-0.4-2.1-0.8-2.9
			c-0.4-1.2-0.9-2.3-1.5-3.4c-0.7-1.4-1.8-2.6-2.2-4.1c-0.5-1.8-0.7-3.8-0.4-5.6c0.1-0.9,1.5-1.6,2.2-2.5c0.3-0.3,0.5-0.9,0.5-1.3
			c0-1.3-0.2-2.6,0-3.9c0.2-1.2,0-2.3-0.4-3.4c-0.7-1.9,0.1-3.6,1.8-4.5c-0.5-1.2-1-2.4-1.5-3.6c-0.8-1.8,1.1-5,3.5-4.3
			c0.4,0.1,0.8-0.1,1.2-0.1c0-0.2,0-0.3,0-0.5c-0.5,0.1-1.1,0.2-1.6,0.2c-1.4,0-3,0.3-4.2-0.2c-2.6-1.2-5.9,0.3-6.9,2.2
			c-0.4,0.7-0.4,1.6-0.6,2.4c0.1,0.1,0.3,0.1,0.4,0.2c0.3-0.2,0.6-0.4,0.8-0.7c0.5-0.6,0.9-1.3,1.3-2c0.6-1,1.6-1.1,2.5-0.7
			c1.1,0.5,1.8,1.4,1.9,2.8C51.1,75.9,50.7,77.6,49.6,79z M60.7,124.9c1.7-1.6,3.1-2.7,4.4-4.1c2.8-2.8,5.5-5.7,8.1-8.6
			c0.8-0.9,1.3-2,1.6-3.2c1.2-4.8,2.2-9.6,3.3-14.5c0.1-0.6,0.2-1.3,0-1.9c-1.3-4.7-2.8-9.4-5.6-13.6c-0.8-1.3-2.7-2.4-3.8-2.3
			c1.4,2.3,3.1,4.5,4.2,7.1c1.1,2.5,2.3,5.1,2.3,8.1c-0.4-0.3-0.7-0.6-0.9-1c-0.5-1.4-1-2.9-1.4-4.3C71.1,80.6,67.5,76,61.9,73
			c-0.3-0.2-0.8-0.3-1.2-0.2c-0.7,0.1-1.4,0.4-2.4,0.8c4.4,5.4,8.8,10.8,10.5,17.8c-0.5-0.2-0.9-0.5-1.1-0.9c-0.5-1.1-1-2.3-1.5-3.5
			c-1.2-2.8-2.5-5.4-4.5-7.7c-1.3-1.5-2.4-3.1-3.6-4.7c-0.3-0.4-0.6-0.8-0.9-1.3c-1.4,1.6-2.6,1.1-3.9-0.2c-0.1,0.8-0.1,1.5,0.1,2
			c1.9,3.5,3.7,7.1,6,10.3c2.2,3.1,3.8,6.3,4.4,10c0,0.3-0.2,0.6-0.3,0.9c-0.2-0.2-0.7-0.5-0.7-0.7c-0.4-5.5-4-9.4-6.7-13.5
			c-1.1,0-2.1,0-3.2,0c0.1,0.4,0.2,0.9,0.4,1.4c1,2.7,2.1,5.3,3.1,8c0.3,0.7,0.3,1.6,0.3,2.4c0,2.4,0,4.8,0,7.2
			c0,3.3,0.4,6.7,0.1,10c-0.2,2.8,0.2,5.4,1.2,7.9C58.8,120.8,59.8,122.7,60.7,124.9z M57.5,136.4c1.6-1.8,3.2-3.5,4.7-5.1
			c1-1,2.2-1.9,3.2-2.9c3.6-3.6,6.4-8,10.6-11.1c0.3-0.2,0.7-0.5,0.9-0.9c0.2-0.3,0.3-0.7,0.2-0.9c-0.7-1.1-1.5-2.2-2.3-3.4
			c-1.6,1.9-3,3.5-4.5,5.1c-3.2,3.3-6.3,6.7-10,9.6c-1.9,1.5-3.4,3.5-6.1,3.6C55.2,132.5,56.3,134.4,57.5,136.4z M80.2,61
			c0.1,0,0.2,0,0.3,0c0,0.5-0.1,1.1,0,1.6c0.1,0.6,0.3,1.5,0.7,1.6c0.6,0.2,1.6,0,2.1-0.4c1.5-1.2,2.7-2.7,3-4.8
			c0.2-1.3,0.7-2.6,1.3-3.8c1.5-2.8,2.1-5.8,1.4-8.8c-0.2-1.2-1.3-2.1-2-3.2c-0.9,0.5-2,0.8-2.7,1.6c-0.7,0.7-1.1,1.7-1.4,2.6
			c-0.5,1.9-0.9,3.8-1.3,5.7C81,55.9,80.6,58.4,80.2,61z M36.6,125.4c0.5-1.4,0.9-2.6,1.2-3.8c0.4-1.7,0.8-3.5,1.2-5.3
			c0.2-0.8-0.2-1.1-1-1c-1.3,0.2-2.7,0.2-4,0.5c-1.9,0.5-2.6,2.5-1.5,4.1c0.1,0.2,0.2,0.5,0.3,0.8C33.3,122.9,34.6,124.2,36.6,125.4
			z M34.7,131c0.4-1.5,0.8-2.9,1.2-4.4c0.1-0.2,0-0.6-0.2-0.8c-1.2-1.2-2.4-2.3-3.6-3.5C29.9,124.1,30.3,128.5,34.7,131z
			 M53.3,129.1c1,0.6,1.9,0.5,2.7-0.1c1.2-0.9,2.3-1.9,3.5-2.9c0.2-0.2,0.5-0.6,0.4-0.8c-0.4-0.9-0.9-1.7-1.6-2.9
			C56.5,124.7,54.9,126.9,53.3,129.1z M55.7,70.8c-0.9,0.8-1.4,1.3-1.9,1.8c0.5,0.4,1,1.2,1.5,1.2c0.5,0,1.2-0.7,1.4-1.2
			C56.9,72.3,56.2,71.6,55.7,70.8z M49.2,72.1c-1.3-1-2.4-0.3-3.3,2.3C47.8,74.5,48.4,74.1,49.2,72.1z M54.3,82.3
			c0.6-0.5,1.4-0.9,1.3-1.1c-0.3-0.6-0.7-1.2-1.1-1.8c-0.4,0.4-1.1,0.8-1.2,1.3C53.2,81.1,53.8,81.7,54.3,82.3z M60.5,72.2
			c-1.5-1.8-1.7-1.9-2.9-0.8C58.3,72.9,59.3,73.2,60.5,72.2z M40.1,75.1c-0.1-0.2-0.3-0.4-0.4-0.6c-0.7,0.1-1.3,0.2-1.9,0.4
			c-0.3,0.1-0.5,0.6-0.7,1c0.5,0.1,1,0.4,1.4,0.3C39.1,76.1,39.6,75.5,40.1,75.1z"/>
		<path class="st0" d="M67.5,57.5c0.6,0,1.2,0,1.8,0c1.4,0.1,2,1.1,1.1,2.2c-1.5,1.9-3.6,2.9-6,2.8c-1.6-0.1-3.2-0.2-4.8-0.4
			c-0.5-0.1-1.2-0.2-1.4-0.6c-0.2-0.3,0.2-1,0.4-1.4c0.8-1.2,2.1-1.8,3.5-2C63.9,57.8,65.7,57.6,67.5,57.5
			C67.5,57.4,67.5,57.4,67.5,57.5z M59.1,61.3c1.3,0,2.5,0,3.5,0c-0.2-0.8-0.3-1.4-0.5-2.1C61,59.5,59.6,59.6,59.1,61.3z M66.7,61.2
			c1.1-0.8,2.5-1.1,3.2-2.7c-1.2,0-2.1,0-3,0C66.8,59.4,66.7,60.3,66.7,61.2z"/>
		<path class="st0" d="M47.2,62c-2.3,1.8-4.8,2.4-7.7,1.7c-1.8-0.5-3.6-0.9-4.5-2.8c-0.1-0.3,0-0.9,0.2-1c2.7-1,5.4-1.6,8.2-0.8
			C45,59.6,46.4,60.3,47.2,62z M46.1,61.5c-1.1-0.6-2.1-1.2-3-1.7c-0.3,0.9-0.3,1.8-0.7,2.1c-0.7,0.4-1.8,0.6-2.4,0.3
			c-0.6-0.3-0.8-1.3-1.4-2.3c-0.7,0.1-1.8,0.3-2.9,0.5C37.2,63.3,43.5,64,46.1,61.5z"/>
		<path class="st0" d="M72,53c-0.3,0.2-0.7,0.4-1,0.5c-4.4,0.8-8.4,2.8-12.5,4.5c-0.4,0.2-0.8,0.1-1.2,0.1c0.3-0.3,0.5-0.7,0.8-0.9
			c3.8-2,7.7-3.6,11.9-4.5c0.6-0.1,1.2-0.1,1.8-0.1C71.9,52.7,72,52.8,72,53z"/>
		<path class="st0" d="M82.4,58.9c2.3-0.9,3.1-2.6,3.5-4.7c0.4-1.8,1.1-3.6,1.5-5.4c0.2-0.7-0.1-1.6-0.4-2.3
			c-0.3-0.7-1.2-0.5-1.5,0.3c-0.6,1.5-1,3-1.6,4.5c-0.2,0.4-0.3,0.9-0.5,1.3c-0.1,0-0.3,0-0.4-0.1c0.1-0.9,0.1-1.9,0.4-2.8
			c0.4-1.1,1-2.2,1.5-3.3c0.4-0.8,1.1-1.2,1.8-0.9c0.5,0.2,0.9,0.8,1.1,1.4c0.7,1.7,0,3.4-0.5,5c-0.7,2.3-1.2,4.7-2.8,6.6
			C84,59.4,83.4,59.6,82.4,58.9z"/>
	</g>
</g>
</svg>
