<?xml version="1.0" encoding="utf-8"?>
<!-- Generator: Adobe Illustrator 19.2.1, SVG Export Plug-In . SVG Version: 6.00 Build 0)  -->
<svg version="1.1" id="Layer_1" xmlns="http://www.w3.org/2000/svg" xmlns:xlink="http://www.w3.org/1999/xlink" x="0px" y="0px"
	 viewBox="0 0 253.5 87.7" style="enable-background:new 0 0 253.5 87.7;" xml:space="preserve">
<style type="text/css">
	.st0{fill:#999999;}
	.st1{fill:#666666;}
	.st2{font-family:'BradleyHandITCTT-Bold';}
	.st3{font-size:24px;}
</style>
<path id="arrow" class="st0" d="M36.2,77.3c-3.3-3.1-6.4-6.1-9.5-9.1c-0.2,0.1-0.4,0.3-0.6,0.4c0.7,1.6,1,3.4,2,4.7
	c3.5,4.7,7.2,9.3,10.8,13.8c0.7,0.9,1.6,0.7,2.3-0.1c1-1.3,2-2.6,2.9-4c2.3-3.6,4.7-7.2,6.9-10.8c0.3-0.4,0.3-1,0.2-1.6
	c-4.4,2.5-7.1,6.7-10.4,10.3c-0.1-0.1-0.3-0.1-0.4-0.2c-0.1-1.2-0.2-2.5-0.2-3.7c0.2-5.3-0.2-10.7,0.7-15.9
	c1.3-7.7,5.6-13.9,11.8-18.9c5.5-4.4,11.6-7.2,18.4-8.9c1.1-0.3,2.2-0.3,3.3-0.6c0.6-0.2,1-0.6,1.6-1c-0.1-0.2-0.2-0.4-0.3-0.6
	c-2,0.2-4.1,0.1-6,0.5c-5.4,1.1-10.8,2.2-15.5,5.3c-4.7,3.1-8.7,6.9-11.6,11.7c-4.7,8-6.3,16.7-6.2,25.9c0,0.6,0,1.2,0,1.8
	C36.4,76.8,36.3,77,36.2,77.3z"/>
<text transform="matrix(1 0 0 1 2.136230e-04 18.5155)" class="st1 st2 st3">Tap here to enter address</text>
</svg>
