<?xml version="1.0" encoding="utf-8"?>
<!-- Generator: Adobe Illustrator 18.1.1, SVG Export Plug-In . SVG Version: 6.00 Build 0)  -->
<!DOCTYPE svg PUBLIC "-//W3C//DTD SVG 1.1//EN" "http://www.w3.org/Graphics/SVG/1.1/DTD/svg11.dtd">
<svg version="1.1" id="Layer_1" xmlns="http://www.w3.org/2000/svg" xmlns:xlink="http://www.w3.org/1999/xlink" x="0px" y="0px"
	 viewBox="0 0 200 128.5" style="enable-background:new 0 0 200 128.5;" xml:space="preserve">
<style type="text/css">
	.st0{fill:#03A9F4;}
</style>
<g id="acne-girl">
	<path class="st0" d="M0,113.5c2.5-1.8,5.1-3.5,7.5-5.4c1.7-1.4,3.4-2.3,5.7-1.4c0.4,0.2,1.1-0.1,1.5-0.4c3.9-3,7.9-5.9,11.7-9
		c5.1-4.1,9.7-8.8,13.5-14.1c1.9-2.7,2.9-5.9,4.2-8.9c0.1-0.2,0-0.4,0.1-0.7c-1.2-0.2-2.2-0.4-3.3-0.5c-2.8-0.2-4.5-1.9-5.9-4.1
		c-1.7-2.7-3.3-5.5-4.9-8.2c-0.8-1.3-1.7-2.5-2.2-3.8c-1.3-3.4-1-6.8,0.8-10c0.2-0.3,0.4-0.6,0.6-0.8c3-2.6,5.9-5.2,9-7.6
		c1.2-0.9,3-1.1,4.5-1.8c0.7-0.3,1.4-0.6,1.8-1.1c1.8-2.7,3.6-5.4,5.3-8.2c0.6-0.9,1-2,1.4-3c1.3-4.3,3.3-8.2,6.5-11.5
		c2.6-2.7,5.4-5.1,8.5-7.3c4.1-2.9,8.5-4.6,13.4-5.2C82.2,0.2,85,0.2,87.9,0c0.4,0,0.8,0.1,1.2,0.2c2.9,0.7,5.7,1.4,8.6,2.1
		c1.9,0.5,3.9,0.8,5.8,1.4c1.2,0.4,2.4,1.1,3.5,1.8c1.4,0.9,2.7,1.9,4.1,2.8c0.3,0.2,0.7,0.5,1.1,0.6c3.3,1,4.9,3.5,5.7,6.6
		c0.5,2,1,4,2.2,5.6c1.7,2.4,2.4,5.3,3.3,8c0.5,1.4,1.4,2.7,2.1,4.1c0.2,0,0.3-0.1,0.5-0.1c0.3-1.6,0.7-3.1,0.8-4.7
		c0.2-2.4,1.8-3.7,3.7-4.7c1.4-0.7,2.5,0,2.7,1.5c0.1,0.7,0.1,1.3,0.1,2c-0.2,2.5,0,5,1,7.2c1.2,2.8,2.5,5.6,5.1,7.5
		c2.7,2,5.2,4.4,7.7,6.7c0.7,0.6,1.3,1.2,2,1.7c1,0.9,2.2,1.7,3,2.8c1.2,1.6,2.6,2.9,4.5,3.6c0.5,0.2,0.9,0.6,1.3,1
		c0.7,0.8,1.5,0.8,2.2,0.1c3.4-3.5,7.8-4.4,12.3-3.6c1.8,0.3,3.8,1.5,4.9,3c4.1,5.2,5.1,11.2,3.6,17.6c-0.2,1-0.3,2.1-0.7,3
		c-0.7,1.5-1.5,2.9-2.4,4.4c-0.4,0.8-0.5,1.3,0,2.1c1.4,2.1,2.4,4.4,3.8,6.4c2.3,3.3,4.6,6.5,7.2,9.6c1.2,1.5,2.1,3,2.7,4.8
		c0.5,1.3,1.1,2.5,1.7,3.7c1,2.1,2.1,4.1,3.1,6.2c1.3,2.7,2.5,5.5,3.7,8.3c0,0.7,0,1.3,0,2c-0.4-0.4-0.9-0.7-1.1-1.1
		c-1.3-3.3-2.5-6.7-3.9-10c-0.6-1.5-1.4-2.8-2.1-4.2c-0.8-1.6-1.7-3.2-2.4-4.9c-0.6-1.4-1.1-2.8-2.3-4c-1.6-1.6-2.9-3.5-4.3-5.3
		c-1-1.3-2-2.7-3.1-4c-0.1,0-0.2,0-0.3,0.1c-0.2,1.3-0.3,2.5-0.6,3.8c-0.5,2.1-1.1,4.3-1.7,6.4c-0.1,0.2-0.4,0.5-0.6,0.6
		c-2.3,2-5,3-8,3.2c-1.2,0.1-2.4,0.4-3.6,0.6c0.1,1.5,0.1,2.7,0.4,4c0.4,2.2,1.1,4.4,1.4,6.6c0.3,2.5,1.4,4.6,2.6,6.7
		c0.8,1.5,1.5,3.1,2.2,4.6c-0.2,0-0.5,0-0.8,0c-0.8-1.4-1.8-2.8-2.5-4.3c-0.9-1.9-1.7-3.9-2.3-5.9c-0.2-0.7-0.5-0.9-1.1-1
		c-3.5-0.4-7-0.8-10.5-1.1c-3.3-0.3-6.6-0.3-9.8-0.5c-0.5,0-1.2-0.1-1.6,0.1c-1.3,0.7-2.6,1.4-3.8,2.4c-2.2,1.9-4.3,3.9-6.3,6
		c-1.3,1.3-2.4,2.8-3.6,4.3c-0.4,0-0.8,0-1.2,0c0.4-0.4,0.8-0.7,1.2-1.1c2.1-2.3,4.1-4.7,6.4-6.8c1.9-1.8,3.9-3.6,6.1-4.9
		c4-2.3,8.2-4.4,12.4-6.4c2.5-1.1,5.3-1.7,8-2.5c2-0.6,4.1-1.2,6.2-1.5c2.7-0.4,5.2-1,7.3-2.8c0.5-0.4,0.9-1,1.1-1.6
		c0.7-2.8,1.4-5.5,1.9-8.4c0.2-1.3,0.1-2.7-0.3-3.9c-0.5-1.3-1.5-2.5-2.3-3.7c-0.3-0.3-1.1-0.7-1.3-0.5c-1.1,0.8-2.2,1.6-3,2.6
		c-0.3,0.4,0,1.4,0,2.1c0,0.3,0,0.7,0,1c0.2,2.5-0.6,5.2,0.6,7.6c0.1,0.2,0,0.4-0.1,0.9c-0.3-0.3-0.5-0.4-0.5-0.5
		c-0.1-0.9-0.8-1.2-1.5-1c-1.6,0.3-3.1,0.9-4.7,1.2c-1.6,0.3-3.2,0.6-4.7,0.6c-0.9,0-1.4,0-2,0.6c-1,1.1-2.2,2.1-3.2,3.1
		c-0.1-0.1-0.2-0.2-0.3-0.3c0.1-0.2,0.1-0.4,0.2-0.5c1.6-1.5,3.1-3.2,5-4.5c3.9-2.7,8-5.1,9-10.4c0.5-2.8,1.3-5.6,2-8.5
		c0.2-0.7,0-1-0.8-1.2c-1.7-0.4-2-0.9-1.9-2.7c0.1-1,0.3-2,0.4-3c-0.7,0.3-1.3,0.6-1.5,1.1c-0.8,1.6-1.7,3.3-2.2,5
		c-0.7,2.3-1.4,4.4-3.4,6c-0.6,0.5-1,1.1-1.4,1.8c-1.9,3.5-4.9,5.8-8.3,7.7c-1.2,0.7-2.4,1.4-3.6,2c-1.3,0.6-2.6,1.4-3.9,1.5
		c-1.4,0.1-2.3,0.6-3.3,1.5c-1.1,1-2.2,2-3.3,2.9c-0.2,0.2-0.6,0.2-0.9,0.3c0.1-0.4,0-0.9,0.2-1.1c1.1-1.1,2.2-2.2,3.4-3.1
		c4.4-3.5,9.1-6.7,12.5-11.2c0.3-0.4,0.7-0.8,1.1-1.3c-1.6,0-3,0-4.4,0c-0.9,0-1.6-0.4-2-1.2c-0.3-0.8-0.6-1.6-1-2.6
		c-0.4,0.2-0.8,0.4-1.1,0.7c-1.7,1.6-3.5,3.2-5.1,4.9c-3.6,4.1-8.2,6.8-13.1,8.9c-2.7,1.2-4.6,3.1-6.3,5.3c-1.2,1.6-1.9,3.7-2.7,5.5
		c-1.6,3.6-3.2,7.3-4.9,10.9c-1.8,3.8-3.8,7.6-5.7,11.4c-0.4,0-0.8,0-1.2,0c1.2-2.2,2.5-4.5,3.7-6.7c1.5-2.9,2.9-5.8,4.4-8.7
		c0.8-1.6,1.5-3.2,2.3-4.8c-2.3-1.3-4.6-1.7-7-2.2c-3.6-0.7-7.1-1.8-10.9-1.4c-1.2,0.1-2.5-0.3-3.6-0.8c-2.1-0.8-4-1.9-6.4-1.9
		c-0.7,0-1.5-0.5-2.1-1c-2.6-2.6-5.2-3.2-8.6-1.9c-2,0.8-3.9,1.5-5.9,2.2c-0.5,0.9-1,1.9-1.5,2.9c-0.2,0.5-0.3,1.2-0.1,1.6
		c1,2.3,1.9,4.7,3.1,6.9c2.6,4.9,3.7,10.1,3.5,15.6c-0.3,0-0.7,0-1,0c0-1.1,0.1-2.2-0.1-3.2c-0.4-2.7-0.7-5.4-1.6-7.9
		c-1.1-3.4-2.7-6.6-4.1-9.9c-0.2-0.4-0.4-0.7-0.6-1c-0.1,0-0.3-0.1-0.4-0.1c-1.3,2.4-2.6,4.9-4,7.4c-0.9-0.2-0.6-0.9-0.3-1.6
		c1.2-2.2,2.6-4.3,3.8-6.5c1.4-2.6,2.8-5.4,4.2-8c0.3-0.5,0.7-1,1-1.6c1.1-1.7,1.1-1.7-0.4-3c-1.7-1.5-3.3-3-4.8-4.7
		c-1.6-1.9-2.7-4.1-4.4-5.8c-1.7-1.7-3-3.7-4.3-5.7c-2.4-3.9-3-8.1-3.4-12.5c-0.1-1.5,0-3.1,0-4.6c0.2,0.5,0.5,1,0.4,1.4
		c-0.3,6.5,1.2,12.5,4.9,17.9c0.6,0.9,1.6,1.7,2.3,2.6c0.4,0.5,0.9,1,1.3,1.5c0.9,1.2,1.7,2.5,2.6,3.6c1.5,1.7,3.1,3.5,4.8,5
		c1.4,1.2,2.9,2.4,4.5,3.3c1.4,0.7,3,1.1,4.5,1.5c0.7,0.2,1.6,0.5,2.2,0.3c2.1-0.7,4.4-1,6.2-2.7c1.9-1.9,4.2-3.4,6.2-5.2
		c3.5-3.4,6.2-7.4,8.6-11.6c1-1.7,2.1-3.2,2.5-5.3c0.2-1.4,0.9-2.7,1.4-4.1c0.6-1.7,1.3-3.3,2.1-5.2c-0.6,0.3-1,0.6-1.5,0.8
		c-1.1,0.6-2.2,0.9-3.3-0.3c-0.4-0.5-1.2-0.7-2-1.2c0.2,2.9-0.7,5.5,0.2,8.1c0.4,1.3,0.8,2.7,0,4.1c-1,1.7-2.7,2-4.3,2.3
		c-0.9,0.1-2,0-2.7-0.6c-1.2-1-2.4-1.6-4-1.6c-1.4,0-2.8-1.4-3-2.4c-0.2-1,0.8-2.5,2-3.2c-0.4,1.1-2,1.8-1.4,3.3
		c0.4,1.1,1.5,1.6,2.6,1.8c0.4-1.4,0.9-1.6,2.1-1.2c1.8,0.6,2.2,1.2,1.7,2.7c1.5,0.8,2.9,0.8,4.5,0.2c2.1-0.8,2.8-1.7,2.5-3.9
		c-0.2-1.3-0.7-2.5-0.7-3.8c-0.1-3.1,0.1-6.2,0.2-9.4c0-0.5,0.4-1.4,0.8-1.5c0.9-0.4,2-0.6,3-0.6c2.2-0.1,3.6,1.1,3.9,3.3
		c0.1,0.6,0.2,1.3,0.3,2.1c0.5-0.5,0.9-0.7,1.2-1c2.3-3,2.3-3-0.4-5.7c-0.8-0.8-1.4-1.9-2.1-2.9c0.1-0.1,0.3-0.2,0.4-0.3
		c2,0.5,2.9,2.3,4.2,3.7c0.6-1.5,1.2-2.9,1.8-4.2c0.1,0.6-0.1,1.1-0.2,1.6c-0.4,1.4-0.7,2.9-1.1,4.3c-0.1,0.5-0.3,1-0.6,1.4
		c-1.1,1.6-2.5,3.1-3.4,4.9c-1.5,2.9-3.1,5.9-3.7,9.2c-0.1,0.6-0.3,1.3-0.6,1.9c-2.6,4.1-4.8,8.3-8,12c-2.5,3-5.7,5.1-8.6,7.6
		c-1.1,1-2.2,1.9-3.7,2.2c-1.3,0.3-2.4,1-3.4,1.4c1.2,0.9,2.5,1.8,3.8,2.7c0.5,0.3,1.1,0.4,1.6,0.6c1.4,0.4,3,0.5,4.3,1.1
		c2.4,1.1,4.8,1.8,7.5,1.6c1.6-0.1,3.1,0.1,4.7,0.3c1.8,0.3,3.5,0.8,5.2,1.2c1.6,0.4,3.2,0.9,4.8,1.4c0.4,0.1,0.8,0.3,1.3,0.5
		c0.3-0.8,0.5-1.5,0.7-2.2c1.2-4.3,4.1-7.3,7.7-9.6c2.2-1.4,4.8-2.3,7-3.7c2.4-1.5,4.6-3.2,6.7-5.1c2.6-2.3,4.7-5.3,7.8-7.1
		c2.6-1.5,2.5-1.6,1.1-4.5c-0.5-1-1.1-2-2.4-2c-1.2,0-2-0.7-2.7-1.6c-0.2-0.3-0.6-0.7-1-0.7c-1.1,0-2.2,0-3.2,0.1
		c-2.3,0.2-4.6,0.6-6.9,0.5c-1.8,0-2.5-1.1-2.8-2.8c-0.1-0.3-0.4-0.7-0.7-0.7c-2.9-0.4-3.8-1.2-4.4-4.2c-1.8,0.2-3.2-0.6-4.3-2
		c-1.2-1.5-0.6-4.6,0.9-5.7c2.5-1.8,5-3.7,7.5-5.5c0.2-0.1,0.3-0.4,0.5-0.8c-0.5-0.1-0.9-0.3-1.2-0.2c-3,0.2-6,0.5-9.1,0.7
		c-1.5,0.1-3.1,0.3-4.6,0.2c-1.1-0.1-2-0.6-2.2-1.9c-0.2-1.4,0.9-3.4,2.2-3.9c1.6-0.6,3.3-1,5-1.5c0.3-0.1,0.8-0.5,0.8-0.8
		c0-1.3,0-2.7-0.4-3.8c-1.1-2.8-2.2-5.7-3.9-8.2c-1.8-2.7-3.7-5.6-7.3-6.3c-0.6-0.1-1.2-1-1.4-1.6c-0.7-1.8-1.1-3.6-1.8-5.4
		c-1.6-4.1-3.2-8.1-4.9-12.1c-0.3-0.8-1.6-1.6-2.1-1.2c-0.8,0.6-0.5,1.4-0.1,2.1c0.9,1.8,1.9,3.6,2.7,5.5c0.9,2.2,1.6,4.5,2.3,6.8
		c0.6,1.9,1.1,3.8,1.5,5.7c0.1,0.3-0.1,0.9-0.3,1.1c-0.6,0.3-1.3,0.6-1.9,0.6c-2-0.2-3.9-0.2-5.9,0.4c-2.1,0.6-4.2,0.8-6.3,1.3
		c-2.7,0.6-5.1,2.1-7.4,3.5c-1.6,1-3.3,1.8-4.7,3c-2.4,2.1-4.7,4.3-7,6.6c-3.3,3.3-6.3,6.7-8.4,10.8c-0.5,0.2-0.9,0.6-1.3,0.9
		c-0.4,0.3-0.8,0.5-1.2,0.7c-0.2-0.4-0.5-0.8-0.6-1.2c-0.1-0.7-0.3-1.1-1.1-0.9c-0.8,0.2-1.2-0.1-1.2-1c0-0.3-0.2-0.5-0.3-0.9
		c-1,1.3-1.3,3.3-0.8,5.1c2.2,0.2,2.7,0.5,2.8,1.4c0.4,2-0.3,3.7-1.7,4.4c-1.2-0.1-2.6,0-3.7-0.5c-1.8-0.9-3.3-2.1-4.9-3.2
		c-1.8,3.5-3.2,8.8-3.8,13.4c-0.2,1.7-0.4,3.5-1,5.1c-0.7,1.9-1.9,3.6-2.9,5.3c-0.2,0.4-0.3,0.9-0.5,1.3c-0.6,1.3-1.2,2.6-2,3.8
		C39,86,38,87,37.1,88.1c-3.5,4.3-7.6,8-12,11.4c-3.1,2.4-6.2,4.8-9.3,7.2c-0.3,0.2-0.5,0.9-0.4,1.2c0.6,1.3,1.2,2.6,2,3.7
		c1.3,1.7,2.7,3.4,4.1,5c1.6,1.8,3.2,3.6,4.9,5.3c2.2,2.2,4.6,4.4,6.9,6.5c-0.4,0-0.8,0-1.2,0c-1.2-1.2-2.4-2.5-3.6-3.7
		c-1.7-1.6-3.5-3-5.1-4.7c-1.7-1.8-3.2-3.8-4.7-5.8c-1.1-1.4-2.2-2.9-3-4.4c-1.3-2.6-4.6-3.6-6.8-1.5c-2.6,2.5-5.7,4.4-8.7,6.4
		C0,114.3,0,113.9,0,113.5z M136.1,56.6c0.1,0.2,0.3,0.3,0.4,0.5c-0.3,0.2-0.5,0.5-0.8,0.7c-2.8,1.7-5.7,3.4-8.5,5.2
		c-0.3,0.2-0.6,0.5-0.7,0.8c-0.2,1.2,0.2,2.2,1.3,2.8c1,0.6,1.8,1,3,0.3c2.4-1.3,4.9-2.4,7.4-3.6c0.6-0.3,1.2-0.3,1.8-0.5
		c0.1,0.1,0.1,0.3,0.2,0.4c-0.3,0.2-0.6,0.4-0.9,0.5c-2.1,1-4.2,1.9-6.4,2.9c-1,0.4-1.7,1.1-1.5,2.3c0.2,1.2,1,1.8,2.2,1.9
		c1.1,0.1,2.3-0.1,3.5-0.2c2.3-0.2,4.5-0.4,6.8-0.6c0.3,0,0.6,0.3,0.9,0.3c0.8,0.1,1.6,0.3,2.3,0.2c0.7-0.1,1.3-0.5,2-0.8
		c0.1,0.1,0.1,0.3,0.2,0.4c-1,0.5-2.1,1-3.3,1.6c0.4,0.2,0.8,0.5,1.1,0.5c2.3,0,3.3,1.4,3.8,3.4c0,0.2,0.1,0.3,0.2,0.5
		c0.3,0.5,0.5,1.4,1.3,1c0.7-0.3,1.5-0.6,1.5-1.7c0.1-2.4,0-4.8,0.6-7.1c0.6-2.8,1.4-5.6,3.4-7.8c0.2-0.2,0.2-0.8,0.1-1.1
		c-0.4-1.3-1.6-1.8-2.7-2.4c-0.9-0.5-1.7-1.1-2.5-1.8c-3-2.8-5.8-5.7-8.8-8.5c-2-1.8-4.2-3.3-6.2-5c-1-0.9-1.9-1.1-3.2-0.7
		c-1.3,0.4-2.7,1-4,1c-2.6-0.1-5,0.6-7.4,1.3c-1.6,0.5-3.2,1-5.1,1.5c2.5,1.4,1.9,3.1,0.8,4.9c0.5,0,0.8,0,1,0
		c3.1-0.3,6.3-0.5,9.4-0.8c0.4,0,1,0,1.3,0.2c1.1,0.6,1.9,0.3,2.7-0.4c0.5-0.4,1.1-0.8,1.6-1.1c0.2-0.1,0.5-0.1,0.8-0.2
		c0,0.1,0.1,0.2,0.1,0.3c-0.7,0.5-1.4,1.2-2.2,1.6c-3,1.7-5.8,3.5-8.3,5.8c-0.4,0.4-1,0.9-1.5,1.1c-2,0.4-2.3,1.9-2.5,3.5
		c-0.2,1.2,0.5,1.8,1.2,2.4c0.8,0.7,1.7,1.4,2.8,0.8c1.8-1,3.5-2.1,5.2-3.1C132.5,58.8,134.3,57.7,136.1,56.6z M171.8,85.6
		c0.1,0.1,0.2,0.2,0.3,0.2c1.8-1.1,3.5-2.4,5-4c2.1-2.4,2.7-5.4,3.3-8.4c0.8-3.9,0.5-7.7-1.3-11.4c-0.1-0.3-0.2-0.6-0.3-0.9
		c-0.4-1.9-1.7-3.2-3.1-4.3c-1.9-1.5-4.1-2-6.5-1.8c-1.4,0.1-2.6,0.4-3.6,1.3c-0.3,0.3-0.7,0.5-1,0.8c-3.6,2.7-6.1,6.2-7.3,10.6
		c-0.5,2.1-0.6,4.3-0.9,6.4c-0.2,1.4-0.4,2.7,0.7,3.9c0.5,0.6,0.9,1.5,1,2.3c0.2,1.7,1.2,2.8,2.5,3.7c0.3,0.2,1.1,0.2,1.4-0.1
		c2.1-1.6,3.1-3.8,3.8-6.3c0.6-1.9,1.4-3.7,2.6-5.3c0.7-1,2-1.6,3.2-2.1c1.4-0.5,2.5,0.3,2.4,1.8c-0.2,3-0.6,5.9-1,8.9
		C172.5,82.5,172.1,84,171.8,85.6z M47.6,45.9c0.1,3.1,0.7,5.3,2,8c1.3,2.6,3.6,4.1,6.2,5.1c0.8,0.3,1.9,0.3,2.8,0.1
		c0.9-0.2,1.5-2.4,1.1-3.6c-0.3-1.1-1.3-1-2.2-1c-0.7,0-1.3,0.1-2,0.2c-1.2,0.1-2.4-0.2-3.1-1.2c-2.2-3.2,0-8.1,3.9-8.7
		c0.3-0.1,0.8-0.3,0.8-0.6c0.1-1.8,0.2-3.7-1.3-5.1c-1.7-1.7-4.4-1.9-5.7-0.4c-1,1.2-2.3,2.2-2.4,3.9C47.8,43.7,47.7,44.8,47.6,45.9
		z M167,116.6c-0.6-3.4-1.1-6.5-1.6-9.5c-7.1,0.7-13,4.6-19.6,7.7C153.1,115.5,160,116,167,116.6z M135.9,39.6c-0.6-1-1.2-2-1.7-3
		c-0.3-0.5-0.6-1.1-0.8-1.7c-0.7-2.5-1.1-5-0.9-7.6c0.1-0.6,0-1.3-0.1-1.9c-0.2-0.9-0.8-1.3-1.6-0.9c-1.6,0.9-3.1,1.9-3.2,4.1
		c0,0.9-0.3,1.9-0.4,2.8c-0.3,2.7-1.6,5.4,0.5,8.1c0.9,1.2,1.7,2,3.3,1.6C132.6,40.8,134.1,40.2,135.9,39.6z M44.8,37.5
		c-0.4,0.1-0.8,0.2-1.2,0.3c-1.4,0.3-1.6,0.6-1.3,2.1c0.5,2.1,1,4.3,1.6,6.3c0.9,3.1,2,6.2,3,9.3c0.1,0.4,0.6,0.8,1,1.2
		c0.9-1,1.1-1.9,0.6-3c-1.4-3.1-2.1-6.4-1.8-9.8c0-0.5-0.3-1-0.5-1.5c-0.2-0.6-0.6-1.1-0.7-1.7C45.3,39.7,45.1,38.6,44.8,37.5z
		 M153,83.9c0.2,0,0.7,0.1,1.2,0c0.9-0.2,2.2-0.3,2.5-0.9c0.9-1.5,0.5-3.2-0.5-4.6c-0.6-0.9-1.2-1.4-2.7-0.6c-1.2,0.7-2.7,1-3.7,2
		c-0.8,0.8-0.8,1.6-0.4,2.6C150.1,84.1,151.4,84,153,83.9z M145.7,95.4c0.1,0.1,0.2,0.3,0.2,0.4c1.3-0.6,2.6-1.2,3.9-1.8
		c3.3-1.6,6.2-3.8,9.1-6c0.3-0.3,0.8-0.7,0.8-1c0-0.8-2.3-2.1-3.1-1.6c-0.7,0.4-1.4,0.9-2,1.5c-2.4,2.7-4.5,5.8-7.7,7.7
		C146.5,94.7,146.1,95.1,145.7,95.4z M57,45.7c-0.1-0.1-0.1-0.3-0.2-0.4c-0.5,0.1-1,0.1-1.5,0.3c-2.7,1.4-3.7,3.8-2.8,6.6
		c0.5,1.5,2.2,2.4,3.7,1.8c0.2-0.1,0.5-0.4,0.5-0.7c0.3-1.9,0.5-3.8,0.8-5.9c-0.2-0.1-0.7-0.2-1.2-0.4C56.6,46.6,56.8,46.1,57,45.7z
		 M74.1,100.3c3.2-1.1,6.1-2.1,8.9-3.1c0-0.1,0-0.2,0.1-0.3c-1.8-0.5-3.5-1-5.3-1.5c-0.2-0.1-0.7,0-0.8,0.2
		C76,97.1,75.2,98.5,74.1,100.3z M116.6,50c1.1,0,2.6-1.5,2.6-2.7c0-1-1.2-2-2.6-2c-1.2,0-2.6,1.7-2.6,3.2
		C114,49.3,115.1,50,116.6,50z M169.7,91.9c-0.1,0-0.2,0-0.3-0.1c-1,1.1-1.9,2.4-3,3.4c-1.1,1-2.5,1.8-3.8,2.6
		c0.1,0.2,0.2,0.4,0.2,0.6c1.8-0.5,3.6-1,5.4-1.6c0.2-0.1,0.4-0.5,0.5-0.8c0.3-1,0.6-1.9,0.9-2.9C169.7,92.8,169.7,92.3,169.7,91.9z
		 M172.6,76.8c0.1-1.6,0.3-3.3,0.4-4.9c0-0.4-0.5-1-0.9-1.1c-0.3-0.1-1,0.4-1.1,0.8c-0.3,1-0.5,2-0.6,3
		C170.3,76.2,170.7,76.6,172.6,76.8z M106.2,58.7c1.6-0.1,3.1-0.4,4.4-0.1c1.6,0.4,1.6,2.2,1.9,3.7c0.3-0.8,0.5-1.5,0.4-2.2
		c-0.4-2.5-2.8-3.7-5.6-2.9C106.4,57.5,106,58.1,106.2,58.7z M171.3,88.1c-0.2,0-0.4-0.1-0.5-0.1c-0.1,0.9-0.1,1.7-0.2,2.6
		c-0.1,1.2-0.3,2.4-0.4,3.5c0,0.4-0.3,0.7-0.2,1.1c0.1,0.3,0.4,0.9,0.6,0.8c0.4-0.1,0.8-0.3,1-0.6c0.2-0.4,0.2-1,0.2-1.5
		C171.7,92,172.2,90,171.3,88.1z M111.6,60.7c-0.8,1.5-1.4,1.9-2.5,1.6c-2.1-0.6-0.7-2.2-0.8-3.7c-0.8,0.5-1.7,0.7-2,1.2
		c-0.4,0.8,0.1,1.6,0.8,2.1c0.7,0.5,1.4,1.1,2.2,1.5c0.8,0.4,1.6,0.3,2-0.6C111.5,62.2,111.5,61.4,111.6,60.7z M127.8,41.1
		c-0.6-1-1.1-1.9-1.7-2.9c-0.7,1.4-1.1,2.5-1.8,3.9C125.6,41.8,126.6,41.5,127.8,41.1z"/>
	<path class="st0" d="M57.9,117.5l2.7,10.1C58.9,126.7,56.3,119.5,57.9,117.5z"/>
	<path class="st0" d="M149.1,90c-1.8,0.5-4.4-1.2-4.5-2.7C146,88.2,147.5,89,149.1,90z"/>
	<path class="st0" d="M85.4,50.7c0.3-0.3,0.5-0.7,0.7-0.7c3.1-1,6.3-1.2,9.6-0.8c2,0.2,3.2,1.4,3.5,3.4c0.1,0.8,0.3,1.5,0.6,2.3
		c0.4,1.1-0.1,1.5-1,1.6c-3,0.3-5.8-0.1-8.2-2.3c-1.2-1.1-2.6-2-4-3C86.4,50.9,86,50.9,85.4,50.7z M99.2,55.5
		c-0.4-1.3-0.9-2.4-1.1-3.5c-0.2-0.9-0.8-1.3-1.4-1.5c-2.8-0.8-5.6-0.7-8.5-0.4c-0.3,0-0.6,0.2-1.3,0.4c2.1,1.4,3.8,2.7,5.6,3.9
		c0.2-0.5,0.1-0.8,0-1c-0.6-1-0.1-1.8,0.6-2.5c0.9-1,2.4-0.8,2.9,0.4c0.3,0.8,0.5,1.8,0.2,2.5c-0.3,0.7-1.1,1.1-1.8,1.6
		C95.9,55.5,97.5,55.5,99.2,55.5z"/>
	<path class="st0" d="M85.7,78.9c2.9,0.3,5.6,0.5,8.4,0.8c0.1,0,0.3,0,0.4,0.1c1.3,0.8,2.5,1.5,4,2c0.8,0.3,1,2.3,0.4,3.4
		c-1.4,2.7-2.7,3.3-5.7,1.7c-3-1.6-5.6-3.8-8.1-6.1c-0.4-0.3-0.5-0.9-0.8-1.4C84.8,79.2,85.3,79.1,85.7,78.9z M85.3,80.5
		c2,1.5,3.7,3,5.6,4.3c1.4,0.9,3,1.6,4.5,2.2c0.4,0.2,1.3-0.2,1.5-0.6c0.2-0.4,0-1.4-0.4-1.6c-2.3-1.6-4.6-3.4-7.6-3.8
		C87.9,80.8,86.8,80.7,85.3,80.5z M98.1,84.9c0.9-1.8,0.5-2.7-1.4-3c-0.5-0.1-0.9-0.5-1.4-0.8c-0.3-0.2-0.6-0.6-1-0.7
		c-1-0.2-2-0.4-3.1-0.5c-1-0.1-2.1,0-3.1,0C92.1,80.4,95.1,82.6,98.1,84.9z"/>
	<path class="st0" d="M89.1,44.6c0.4-0.3,0.7-0.6,1.1-0.8c2.8-1.1,5.5-0.8,8.3,0c1.8,0.6,3.6,0.9,5.4,1.4c0.7,0.2,1.6,0.3,1.4,1.2
		c-0.1,0.4-0.9,0.6-1.4,0.8c-1.9,0.4-3.4-0.8-5.1-1.4c-3.2-1.1-6.2-1.5-9.4-0.9C89.3,44.8,89.2,44.7,89.1,44.6z"/>
</g>
</svg>
