<?xml version="1.0" encoding="utf-8"?>
<!-- Generator: Adobe Illustrator 19.2.1, SVG Export Plug-In . SVG Version: 6.00 Build 0)  -->
<svg version="1.1" id="Layer_1" xmlns="http://www.w3.org/2000/svg" xmlns:xlink="http://www.w3.org/1999/xlink" x="0px" y="0px"
	 viewBox="0 0 200 293.6" style="enable-background:new 0 0 200 293.6;" xml:space="preserve">
<style type="text/css">
	.st0{fill:#00BCD4;}
</style>
<g id="bites-girl">
	<path class="st0" d="M200,288.9c-0.9,0.2-2-0.4-2.8,0.7c-0.1,0.2-1-0.2-1.6-0.2c-9-0.1-18,0-26.9-0.4c-4-0.2-7.9-1.2-11.8-1.9
		c-0.2,0-0.4-0.2-0.5-0.2c-3.3,0.5-6.1-1.4-9.2-2.1c-0.2,0-0.4-0.1-0.7-0.2c0,2.2,0,4.4,0,6.5c0,0.3,0.2,0.7,0.1,1
		c-0.3,0.5-0.7,1-1,1.5c-0.5-0.4-1.3-0.7-1.4-1.2c-0.3-1.2-0.2-2.5-0.2-3.8c0-1.5,0-3,0-4.4c-2-0.7-3.9-1.7-5.8-2
		c-4.3-0.8-8.3-2.5-12.5-3.5c-3.7-0.9-7.4-2.1-11.1-2.9c-1.1-0.3-2.4,0.2-3.6,0.3c-5.1,0.1-10.3,0.5-15.4,0.1
		c-3.3-0.3-6.4-1.6-9.6-2.5c-3.6-1.1-7.2-1.9-11-2.1c-1.9-0.1-3.8-0.7-5.7-1.1c-0.9-0.2-1.7-0.3-2.6-0.3c-1,0-1.8-0.4-1.7-1.3
		c0-0.5,1.1-1.2,1.7-1.1c1.5,0.1,3,0.5,4.5,0.8c2.1,0.3,4.3,0.4,6.3,0.8c3.7,0.8,7.5,1.5,11.1,2.6c6.8,2.1,13.7,2.2,20.9,1.6
		c-1.1-0.5-2.2-0.9-3.2-1.4c-2.9-1.3-5.9-1.4-9-1.5c-2.3,0-4.2-1.7-5.8-3.3c-2.1-2-3.8-4.3-5.7-6.5c-2.1-2.4-4.2-4.8-6.2-7.4
		c-1.8-2.3-3.3-4.8-5.1-7.1c-3.6-4.4-6.5-9.3-9.4-14.2c-1.8-2.9-3.4-5.9-5.3-8.7c-2.4-3.7-4.9-7.2-7.3-10.9
		c-1.4-2.2-2.5-4.5-3.7-6.8c-1.6-3.3-3.1-6.6-4.7-9.8c-0.3-0.7-0.7-1.3-1.1-1.9c-0.5-1.1-1.2-2.1-1.2-3.4c0-1.1-0.7-2.2-1.2-3.3
		c-1.2-2.8-2.8-5.6-3.7-8.5c-1.7-5.3-4.2-10.5-4.5-16.2c-0.1-2,0-4,0.3-6c0.2-2,0.8-4,1.1-6c0.3-2.4,1.9-4,3.7-5.4
		c4.7-3.6,10.1-4.1,15.7-2.8c0.5,0.1,0.9,0.4,1.4,0.6c0.5,0.2,0.9,0.4,1.6,0.6c-0.2-0.6-0.3-1-0.5-1.2c-2.1-1.9-4-4.1-6.3-5.6
		c-1.6-1-3.8-1.1-5.7-1.5c-0.6-0.2-1.4-0.1-1.9-0.4c-1.4-1-2.3-0.2-2.8,0.9c-2.1,3.9-4.3,7.8-6.2,11.9c-0.7,1.5-0.7,3.3-0.9,5
		c-0.2,2.4-0.4,4.8-0.3,7.1c0.1,2.3,0.6,4.6,0.9,6.8c0.4,3,1.1,6,1.2,9c0.2,3.6,0.2,7.1,1.1,10.6c0.3,1-0.3,2.1-0.2,3.2
		c0.2,2.8,0.6,5.5,0.9,8.3c0.4,3,0.9,5.9,1.3,8.9c0.5,4.4,1,8.8,1.4,13.3c0.3,3.6,0.7,7.2,0.8,10.8c0.3,7,0.4,13.9,0.6,20.9
		c0.1,1.8,0.4,3.5,0.6,5.2c0.1,0.9,0.1,1.8,0.2,2.6c0.3,3.1,0.7,6.2,1.1,9.4c0.3,2.1,0.6,4.2,0.9,6.3c0.1,0.5,0,1,0,1.5
		c0.1,1.9,0.1,3.9,0.2,5.8c0,0.5-0.1,1-0.2,1.5c-1.1,0-2.2,0-3.3,0c0.1-2,0.4-4,0.3-5.9c-0.3-4.8-0.8-9.5-1.2-14.2
		c-0.5-5.9-1.1-11.9-1.5-17.8c-0.2-2.5,0.3-5,0.2-7.6c-0.2-4.6-0.5-9.2-0.8-13.8c-0.4-5.1-0.8-10.3-1.4-15.4
		c-0.4-3.5-1.2-7-1.5-10.6c-0.3-3.1-1.2-6.2-0.9-9.4c0.2-2.4-0.3-4.9-0.5-7.3c-0.2-2.7-0.4-5.4-0.8-8.1c-0.4-3.5-1.1-6.9-1.5-10.4
		c-0.3-2.8-0.3-5.6-0.2-8.4c0-2,0.4-4,0.6-5.9c0.1-0.8,0.2-1.6,0.5-2.3c1.8-3.6,3.9-7.1,5.6-10.8c1.6-3.4,4.6-4.9,7.9-6
		c1-0.3,1.7-0.8,2.1-1.9c0.9-2.6,2.3-4.8,5.3-5.1c1.4-0.1,2.8-0.2,4.1-0.4c0.7-0.1,1.4-0.2,1.9-0.3c-2.9-3.5-5.8-6.9-8.6-10.4
		c-1-1.2-1.5-2.8-2.4-4c-1.9-2.5-3.8-5-5.8-7.5c-0.1-0.1-0.3-0.3-0.4-0.4c-1-1.8-2.2-3.4-3.9-4.7c-3.6-2.8-5.8-6.9-8.4-10.5
		c-2-2.7-3.9-5.5-5.4-8.5c-1.7-3.3-2.9-6.8-4.2-10.3c-0.4-1-0.1-2.3-0.1-3.5c0-0.5-0.2-1.1-0.2-1.5c-1.6-0.1-2,0.9-2.3,2
		c-1.9,6.5-1.2,12.5,2.8,18c1.3,1.7,3,3.1,4.3,4.8c2.6,3.4,5.7,6.5,6.7,10.8c0.5,2,0.5,4.2,0.2,6.3c-0.5,3.8-6.5,6.5-9.8,4.6
		c-0.8-0.4-1.5-1-2.2-1.5c-1.3-1-2.6-1.9-3.8-3c-4.5-4.2-8.8-8.4-10.3-14.7C3,84.9,1.6,81.6,0.7,78.2c-1.1-4.4-1-8.9,0.5-13.3
		c1.5-4.3,3.1-8.5,5.9-12.1c2.6-3.4,5.8-5.5,10.4-4.4c0-0.7,0-1.4,0-2.1c-0.3-5.5,1.2-10.6,3.9-15.3c1.4-2.6,3-5.1,4.5-7.6
		c1.5-2.5,3.7-4.1,6.1-5.5c1.7-1,3.4-2.2,5.1-3c1.3-0.6,2.7-0.9,4.1-1.4c0.8-0.3,1.6-0.6,2.4-1c3.1-1.4,6.2-3,9.3-4.2
		c1.6-0.6,3.5-0.7,5.3-1C59.3,7,60.4,7,61.5,6.9c4.5-0.4,8.5,1,12.3,3.1c2,1.1,3.7,0.9,5.5-0.2c2-1.2,4.2-2,6.1-3.2
		c3.7-2.4,7.5-4.3,11.7-5.4c4-1,8.1-1.8,12.1-0.4c2.9,1,5.7,2.4,8.1,4.7c5.3,5.1,8.2,11.5,10.2,18.4c0.5,1.7,1.1,3.4,1.7,5.1
		c1,2.6,0.9,5.2,0.4,7.9c-0.5,2.6-0.7,5.3-1,8c-0.6,4.6-2.3,8.6-6,11.6c-0.3,0.2-0.5,0.5-0.8,0.7c-1.7,1.4-3.3,1.1-4.1-1
		c-0.6-1.5-1-3.2-1.4-4.8c-0.3-1-0.4-2-0.6-3c-0.9-4.3-1.9-8.6-2.7-12.9c-1.2-6.5-4.6-11.8-8.9-16.4c-1.9-2.1-4.3-4.1-7.2-4.7
		c-2.5-0.6-5-0.3-7.2,1.1c-0.3,0.2-0.6,0.6-0.9,0.9c-0.6,1-1.2,2-1.9,3.2c9,6,12.4,15.5,15,25.4c1.3-0.5,2.7-1.1,4.2-1.5
		c1.4-0.4,3.9,1.2,4.7,2.8c1.7,3.4,2.8,7,2.7,10.9c-0.1,2.2,0.6,4.4,0.4,6.6c-0.2,3.2-0.1,6.7-2.9,9.1c-0.7,0.6-1.5,1.3-2.3,1.6
		c-1,0.3-1,1-0.8,1.6c2.3,6,2.7,12.4,4.1,18.5c0.7,3.1,0.8,6.3,1.5,9.4c0.5,1.9,1.6,3.6,2.7,5.2c0.8,1.1,2.1,1.5,3.5,1.4
		c0.9-0.1,1.8,0.2,2.7,0.4c0.4,0.1,0.8,0.4,1.2,0.4c4.4-0.4,8.2,1.6,12.2,2.8c3.8,1.1,7.7,2.3,11.5,3.2c2.1,0.5,4.4,0.5,6.5,1.1
		c4.1,1.1,7.9,2.9,11.1,5.6c2.5,2.2,3.6,5.3,4.4,8.6c0.7,3,1.1,5.9,1.1,8.9c0,2,0.5,4,0.8,6c0.3,2.2,0.5,4.3,0.8,6.5
		c0.3,1.9,0.7,3.7,1,5.6c0.2,1.2,0.2,2.5,0.1,3.8c0,0.4-0.4,0.9-0.8,1.2c-0.3,0.3-0.8,0.5-1.2,0.7c-3,1.5-3.1,1.5-2.7,4.8
		c0.2,2.2,0.6,4.4,0.8,6.6c0.5,4.6,0.9,9.2,1.4,13.7c0.4,3.4,1,6.7,1.3,10.1c0.3,3.5,0.4,7,0.7,10.5c0.3,4.9,0.8,9.9,1.1,14.8
		c0.1,2.1-0.2,4.3-0.6,6.4c-0.5,2.5-1,5-2,7.3c-1.3,3.1-3.4,5.8-6,7.9c-1.1,0.9-2.8,1.1-4.2,1.7c-0.3,0.1-0.8,0.2-1,0.5
		c-1.3,1.3-2.8,0.8-4.3,0.4c-1.9-0.6-3.7-1.2-5.8-1.8c0,1.9,0,3.6,0,5.5c1.1,0.4,2.3,1.1,3.6,1.4c3.5,0.8,6.5,2.7,9.5,4.4
		c2.4,1.3,5,2.1,7.7,2.4c2.3,0.3,4.6,0.8,6.9,1.2c3.1,0.5,6.3,0.7,9.4,1.4c2.1,0.4,4.1,1.4,6.2,1.9c2.2,0.6,4.4,1.1,6.7,1.7
		c0,0.7,0,1.3,0,2c-0.7,0.1-1.4,0.3-2,0.1c-1.8-0.4-3.5-1-5.3-1.6c-2.2-0.7-4.5-1.5-6.7-1.9c-4.7-0.9-9.3-1.6-14-2.3
		c-4.3-0.7-8.4-1.8-12-4.3c-0.5-0.3-1-0.7-1.5-0.9c-3.9-1.5-7.7-2.9-11.6-4.4c-1.4-0.6-2.7-1.6-4.1-1.9c-5.1-1.3-9.7-3.5-14.5-5.4
		c-4.1-1.6-8.2-3.3-12.3-4.9c-1.6-0.6-3.3-1.2-5.1-1.8c-0.4,1.1-0.9,2.3-1.4,3.5c-0.2,0.5-0.4,1.1-0.8,1.4c-0.3,0.3-1,0.4-1.3,0.2
		c-0.3-0.2-0.5-0.9-0.4-1.3c0.2-0.8,0.4-1.5,0.9-2.2c1.4-2.1,1-3.6-0.4-5.8c-2.7-4.1-4.9-8.5-7.1-13c-2.3-4.8-5.1-9.3-8.2-13.6
		c-0.6-0.8-0.9-1.9-1.4-2.8c-0.2-0.4-0.5-0.7-0.9-0.9c-2.5-0.8-5-1.7-7.5-2.2c-2.5-0.5-5-0.6-7.5-0.9c-2.8-0.3-5.5-0.5-8.3-0.9
		c-2.2-0.3-4.4-0.2-6.4-1.5c-1.9-1.2-3.1-2.7-3.1-5.1c0-2.6,0.8-4.9,2.3-7.2c-1-0.5-2-0.9-2.9-1.4c-2.8-1.3-3.5-1.8-3.3-4.5
		c0.1-2.3,1.4-3.7,3.8-3.9c1.1-0.1,2.2-0.6,3.3-0.9c-1.2-0.9-2.3-1.7-3.5-2c-4-1-4.5-6.7-1.8-8.8c1.4-1.1,2.8-2,4.2-2.1
		c0.6-2,0.8-3.9,1.8-5.4c1-1.4,2.7-2.3,4.2-3.6c-0.2-0.2-0.5-0.7-0.8-1.1c-1.3-1.5-2.8-2.9-3.9-4.6c-1.4-2.1-3.2-3.6-5.5-4.6
		c-6-2.8-11.6-2.1-16.7,1.9c-0.9,0.7-1.6,1.9-1.8,3c-0.6,2.2-1,4.5-1.2,6.8c-0.2,1.8-0.4,3.7,0,5.4c0.8,3.3,1.9,6.6,3,9.9
		c1,3.2,2,6.4,3.2,9.5c1.5,3.8,3.1,7.6,4.8,11.3c2.7,5.6,5.3,11.3,8.3,16.8c2.2,4.1,4.8,7.9,7.2,11.8c1.4,2.2,2.8,4.3,4.2,6.5
		c4.9,7.3,9.7,14.6,14.8,21.8c2.1,3,4.6,5.6,6.9,8.4c1.9,2.2,3.7,4.5,5.7,6.5c1.6,1.6,3.6,3.1,6,3c3.3-0.2,6.2,1.1,9.1,2.1
		c2.6,1,5.1,2.3,7.8,3.2c2.3,0.8,4.8,1.4,7.2,1.9c4.8,1,9.4,2.7,14.3,3.8c4.8,1,9.4,2.9,14.2,4.4c0.8,0.3,1.7,0.4,2.6,0.6
		c1.1,0.2,2.2,0.2,3.3,0.5c6,1.5,12,2.6,18.2,2.4c8.1-0.4,16.2-0.4,24.2-0.6C200,287.4,200,288.1,200,288.9z M166.1,168.1
		c-1.3,0.6-2.7,1.1-3.9,1.9c-1.8,1.3-3.7,2.5-3.6,5.2c0.1,1.7,0.1,3.4-0.3,5c-1.1,4.6-2.4,9.3-3.7,13.9c-0.9,3.4-2,6.7-2.9,10.1
		c-0.3,0.9,0,1.7,1.1,2.1c1.6,0.6,3.2,1.3,4.7,2c4,1.6,6.8,4.4,8.3,8.4c0.3,0.9,0.2,1.7-0.7,2.1c-1,0.4-1.5-0.2-1.7-1.1
		c-1.1-3.7-3.7-5.9-7.2-7.1c-2.4-0.8-4.6-2.5-7.4-1.8c-0.2,0.1-0.5-0.1-0.8-0.2c-2.5-1-5-2-7.6-3c-5-1.8-9.7-4.3-14.1-7.3
		c-3.9-2.7-7.8-5.5-11.5-8.4c-1.2-0.9-2.1-2.4-3.4-3.2c-1.9-1.3-3.6-2.7-4.6-4.7c-0.7-1.4-1.5-2.8-2.1-4.2c-1.3-2.6-2.8-5-3.7-7.7
		c-1.3-3.6-2.3-7.4-3.1-11.1c-0.8-3.8-0.6-7.5,2.4-10.5c0.7-0.7,0.3-1.7-0.9-1.8c-1.3-0.1-2.5,0-3.7,0.8c-2.2,1.5-3.9,3.7-4.2,6.1
		c-0.6,4-0.5,8.2-0.6,12.3c0,0.2,0.6,0.6,0.9,0.7c1.5,0.5,3,0.9,4.4,1.5c0.7,0.3,1.5,1,0.9,1.8c-0.2,0.3-1.3,0.2-2,0c-1-0.3-2-1-3-1
		c-1.6,0-3.1,0.4-4.6,0.6c0.8,1.2,1.7,2.6,2.5,4.1c0.2,0.4,0,1,0,1.5c-0.5-0.2-1.2-0.2-1.5-0.6c-0.9-1.2-1.5-2.5-2.4-3.8
		c-2.3-3.2-5.4-5.5-8.6-7.7c-2.5-1.7-5.3-2.8-8.1-3.9c-0.4,0.9-0.7,1.6-1.2,2.2c-0.2,0.3-0.8,0.3-1.2,0.5c0-0.4-0.2-0.8-0.1-1.2
		c0.2-0.7,0.6-1.3,0.9-2c-3-0.4-4.8,0.5-6.1,3c-1.1,2.1,0.1,4,2.5,4.1c2.3,0.1,4.8,0.7,6.8,1.8c2.9,1.6,5.4,3.8,8.1,5.8
		c0.4,0.3,0.4,1,0.6,1.6c-0.6-0.1-1.4,0-1.8-0.3c-1.2-1-2.2-2.3-4-2.3c-0.2,0-0.4-0.3-0.6-0.5c-2.3-2.3-5.1-3.5-8.4-3.9
		c-2.4-0.3-2.4-0.3-3.6,1.9c0,0.1,0,0.2-0.1,0.3c-0.4,0.2-0.8,0.4-1.2,0.6c-0.1-0.5-0.2-0.9-0.2-1.3c0.1-0.6,0.5-1.2,0.7-1.7
		c-1.8-0.8-4.9,0.5-5.4,2.3c-0.4,1.5,0,3.2,1.1,3.7c2.5,1.2,5,2.3,7.5,3.4c3.2,1.4,6.3,2.9,9.5,4.3c0.9,0.4,1.3,1.1,0.7,1.8
		c-0.3,0.3-1.4,0.2-1.9,0c-2.9-1.6-5.8-3.1-8.8-3.2c-0.8,0.9-1.4,1.7-2,2.4c-0.2-0.7-0.5-1.4-0.7-2.1c-1.3,0.3-2.8,0.5-4.3,0.9
		c-1,0.3-1.4,1-1.5,2.1c0,1.1,0.6,1.6,1.4,1.9c1.1,0.5,2.2,1,3.3,1.5c1.3,0.5,2.6,1.1,4,1.3c2.9,0.6,5.9,1.1,8.6,2.5
		c1.3,0.7,2.8,0.9,4.1,1.5c0.5,0.2,1.3,0.8,1.3,1.2c0.1,0.8-0.7,1-1.5,1c-2.1,0.1-4.2,0.1-6.3,0.3c-1.6,0.1-3.2,0.5-4.8,0.5
		c-1.1,0-2.1-0.5-3.1-0.8c-0.4-0.1-0.7-0.4-1-0.7c0.3-0.3,0.5-0.9,0.8-1c1.2-0.3,0.7-1,0.2-1.4c-0.6-0.6-1.4-0.7-1.8,0.2
		c-0.5,0.9-0.9,1.8-1.1,2.8c-0.5,2.3,0.1,3.9,1.8,4.9c0.8,0.4,1.6,0.9,2.4,1c3.6,0.5,7.2,0.8,10.8,1.1c2.3,0.2,4.5,0.3,6.7,0.8
		c3.4,0.8,6.8,2,10.2,2.7c4,0.9,8.1,1.5,12.2,2.5c1.5,0.4,3.1,1.2,4.2,2.3c1.9,2,3.3,4.6,5.3,6.6c4.5,4.7,9.1,9.3,13.8,13.8
		c1.7,1.7,3.4,3.4,5.4,4.6c5.7,3.6,11.5,7,17.5,10.2c2.5,1.4,5.5,2,8.2,2.9c0.3,0.1,0.7-0.1,1-0.2c1.2-0.5,2.4-1,3.5-1.6
		c1.2-0.6,2.6-1.1,3.5-2.1c3.8-4.5,5.3-9.9,5.7-15.6c0.6-7.5-0.6-15-1.1-22.4c-0.1-2.2-0.5-4.3-0.8-6.5c-0.3-2.3-0.6-4.7-0.8-7
		c-0.2-1.5-0.2-3.1-0.3-4.6c-0.3-3.4-0.8-6.8-1.1-10.2C166.5,174.4,166.3,171.4,166.1,168.1z M49.2,94c-0.3,0-0.6,0.1-0.9,0.2
		c-2.1,0.6-4.3,1.2-6.4,1.9c-0.9,0.3-1.1,0.8-0.4,1.6c1.9,2.3,3.9,4.6,5.6,7.1c1.4,2,2.4,4.4,3.9,6.3c2.8,3.7,5.6,7.4,9.3,10.3
		c2.2,1.7,4.3,3.5,7.2,3.9c1.4,0.2,2.7,0.3,4.1,0.6c4.6,1.1,8.8,3.6,13.6,3.9c2.2,0.1,4.3,0.2,6.1-1.2c1.4-1.2,2.6-2.6,4-3.7
		c4.6-3.3,7.3-8.1,9.3-13.1c2.2-5.4,3.4-11.3,5-17c0.1-0.2-0.1-0.4-0.1-0.6c-0.7-3.9-1.2-7.7-2.1-11.6c-0.7-3-0.9-6.1-3-8.6
		c-0.6-0.7-1-1.5-1.4-2.3c-1.3-2.4-2.5-4.8-3.9-7.2c-1.2-2-3.1-2.8-5.4-2.8c-0.6,0-1.2,0-1.8,0c-3.1-0.3-6.3-0.5-9.4-0.8
		c-1.8-0.2-3.7-0.4-5.4-1.1c-4-1.8-8.1-1.4-12.1-0.5c-2.5,0.5-4.8,0.5-7.3,0.1C54.1,58.7,51,57,48,55.1c-3.6-2.2-6.1-5.3-7.2-9.4
		c-0.6-2.2-0.7-4.5-1.4-6.6c-1-2.8-0.9-5.7-0.6-8.6c0.5-4.3,1.4-8.6,2.1-12.9c0.1-0.6,0.4-1.6-0.7-1.7c-0.9-0.1-1.2,0.7-1.3,1.5
		c-0.2,1.5-0.4,3-0.8,4.5c-1.4,5.2-2.8,10.3-1.5,15.8c1.1,4.9,2.1,9.8,4.3,14.3c1.2,2.5,1.4,5,0.6,7.6c-0.4,1.4-0.4,2.8-0.6,4.2
		c-0.1,1-0.2,2-0.5,3c-1.2,4.9-2.6,9.7-3.5,14.6c-0.7,3.8-0.2,7.7,1,11.4c0.5,1.5,1.8,1.9,3.3,1.3c1.8-0.7,3.5-1.5,5.4-2.1
		C48.5,91.3,49.8,92,49.2,94z M127.8,114.1c0.3,0.5,0.5,1,0.8,1.5c1.3,2.1,2.3,4.2,2,6.8c-0.2,1.2-0.1,2.5-0.3,3.7
		c-0.6,2.9-1.1,5.8-2.2,8.5c-1.6,4.2-4.7,7.2-8.2,10.1c-4.9,4-10.4,5.2-16.4,5c-1.3-0.1-1.8,0.4-2.4,1.3c-1.3,2-1.4,4.3-1.1,6.4
		c0.6,3.5,1.4,7.1,2.6,10.4c0.9,2.8,2.5,5.3,3.8,8c0.9,1.9,1.6,4,3,5.6c1.8,2.2,3.9,4.2,6.1,5.9c4.5,3.4,9.1,6.7,13.8,9.8
		c2.7,1.8,5.7,3.3,8.8,4.6c3.3,1.5,6.8,2.6,10.2,4c0.2-0.5,0.4-1,0.6-1.5c1.8-6,3.5-12,5.3-18c1.2-3.9,2.1-7.7,2.1-11.8
		c0-2.1,0.5-4.2,1-6.3c0.4-1.9,1.4-3.8,1.5-5.7c0.3-4.7,0.2-9.4,0.2-14c0-2.3,0-4.6,0-6.9c0-0.6,0-1.5,0.8-1.2
		c0.5,0.1,1.1,0.9,1.1,1.4c0.2,2.3,0.3,4.6,0.3,7c0,3.5,0,7,0,10.5c0,0.7,0,1.3,0,2.2c0.6-0.4,1-0.5,1.3-0.8c2-1.5,3.9-3.1,6-4.5
		c0.9-0.6,1-1.3,0.9-2.1c-0.5-3.7-1.1-7.4-1.3-11.1c-0.2-3.3-0.3-6.5-1.2-9.6c-0.7-2.8-1.6-5.4-3.8-7.4c-2.9-2.5-6.4-4.1-10-5.1
		c-2.8-0.8-5.8-0.8-8.7-1.6C138.8,117.6,133.4,115.8,127.8,114.1z M80.9,131.3c0.6,0.5,1,1.1,1.6,1.4c6,3.6,11.7,7.7,18.9,8.8
		c4.3,0.7,8.3,0.3,11.9-2.2c1.4-1,2.8-2.2,4.1-3.3c3.2-2.6,5-5.8,5-10.1c0-3.7-0.9-7.2-2.1-10.7c-0.6-1.6-1.6-2.2-2.9-2.7
		c-1-0.4-2.2-0.8-2.8-1.6c-1.7-2.2-3.2-4.6-3.6-7.5c-0.1-0.8-0.3-1.6-0.5-2.9c-0.9,2.7-1.9,4.9-2.4,7.2c-1.2,5.6-4.1,10.2-7.5,14.6
		c-2.3,2.9-5.2,5.3-8,7.7c-1.2,1-3.1,1.5-4.7,1.6C85.6,131.8,83.3,131.4,80.9,131.3z M42.8,133c0,0.1,0,0.2,0,0.3
		c0.4,0,0.7,0,1.1,0.1c2.6,0.4,5.4,0.6,7.6,2.3c2,1.6,3.9,3.4,5.8,5.2c0.5,0.5,0.7,1.4,1.1,2.1c0.5,0.9,0.7,2,1.4,2.8
		c2.5,3,5.2,5.8,7.6,8.9c1,1.3,1.8,2.7,3.8,2.4c0.2,0,0.3,0.3,0.5,0.4c2,1,4.1,1.9,6.1,2.9c0.2-0.1,0.3-0.3,0.5-0.4
		c-1-2.2-2.1-4.3-3.1-6.5c-1.6-3.7-4-6.9-7-9.6c-1.1-1-2-2.2-3.1-3.2c-0.5-0.5-1.8-0.7-1.1-1.8c0.7-1.1,1.5-0.2,2.3,0.1
		c0.1,0.1,0.3,0.1,0.4,0.2c2,1.9,4.3,3.6,6,5.8c3.9,5.1,7.2,10.6,8.2,17.1c0,0.2,0.2,0.5,0.4,0.7c1.2,0.8,2.4,1.6,3.5,2.4
		c0-2.8-0.1-5.5,0-8.2c0.1-2.6-0.7-4.9-1.9-7.1c-1.1-2.3-2.1-4.6-3.3-6.9c-1.6-3.1-3.2-6.2-5.9-8.4c-2.2-1.9-4.6-3.5-7-5.2
		c-2.4-1.7-4.7-3.4-7.2-5.1c-1.7,0.2-3.7,0.3-5.6,0.6c-2.1,0.3-4.7,0.2-5.4,2.9c-0.7,2.6-2.3,4.1-4.8,4.7
		C43.4,132.7,43.1,132.9,42.8,133z M147.5,252.4c0-1.1-0.1-2.4,0-3.6c0.1-1.1-0.1-1.9-1-2.4c-2.1-1.2-4.1-2.5-6.3-3.4
		c-3.6-1.4-7-3.3-10-5.8c-2.1-1.7-4.2-3.3-6.1-5.2c-3.3-3.3-6.3-6.9-9.5-10.2c-2.8-2.8-5.4-5.7-7.7-9c-1.1-1.6-2.5-3.3-4.7-3.7
		c-2.9-0.5-5.9-0.9-9-1.4c0.6,1,1,1.8,1.5,2.5c1.8,2.8,3.9,5.5,5.5,8.4c3.1,5.3,5.9,10.8,9,16.2c0.7,1.3,1.9,2.6,3.1,3.3
		c3.7,2,7.6,3.9,11.4,5.6c4,1.8,8,3.4,12.1,4.9C139.7,249.9,143.6,251.1,147.5,252.4z M67.8,127.2c-0.1,0.1-0.1,0.2-0.2,0.3
		c0.2,0.2,0.4,0.3,0.7,0.5c2.1,1.6,4.3,3.1,6.4,4.8c1.9,1.5,3.6,3.4,5.7,4.6c4.5,2.7,9.2,5.1,13.9,7.7c0.7,0.4,1.3,0.4,2.1,0.1
		c2.8-1.1,5.5-0.6,6.5,2.5c1.3,0,2.6,0.1,3.9,0c3.3-0.2,6.5-0.9,9.2-2.8c1.5-1,2.8-2.4,4.3-3.4c3.2-2.3,5.1-5.5,6.2-9.1
		c0.9-2.7,1.5-5.6,1.9-8.4c0.4-2.7-0.1-5.2-1.8-7.5c-0.7-0.9-1.2-1.8-1.8-2.7c-1.1,0-2.1,0-3.3,0c0.1,0.3,0.2,0.6,0.3,0.8
		c2.5,4.4,2.6,9.2,2.4,14.1c0,0.8-0.3,1.6-0.6,2.4c-2.2,5.1-6.3,8.4-10.9,11c-3.5,2-7.5,2.9-11.7,1.6c-3-0.9-6.1-1.5-8.9-2.7
		c-3-1.3-5.9-3-8.6-4.8c-2.4-1.6-5.4-2.7-6.5-5.8c-0.1-0.2-0.2-0.3-0.4-0.4C74,128.4,71,127.4,67.8,127.2z M108.2,58.9
		c2,1.7,1.8,5.5,0.1,7.5c-1.2,1.3-2.7,2.6-2.9,4.6c0,0.5,0.5,1.6,0.7,1.6c0.9,0,2.1-0.1,2.7-0.7c1.8-1.6,2.6-3.8,2.6-6.2
		c0-3.9-0.3-7.8-0.5-11.7c-0.1-1.2-0.4-2.4-0.7-3.6c-0.3-1.1-1.3-1.6-2.4-1.3c-2.2,0.5-3.2,2.2-3.5,4.1c-0.4,2.3-0.2,4.7-0.3,7.1
		c0,0.9,0,1.5,0.9,2.1c0.6,0.4,0.8,1.5,1,2.3c0.2,0.6,0,1.3,0,2.1c2.5-2,3.1-3.6,2.4-6.4C108.2,59.9,108.2,59.4,108.2,58.9z
		 M80.7,140.2c1.2,2.6,2.3,5.2,3.8,7.8c3.1,5.4,2.9,11.3,2.5,17.2c0,0.3-0.3,0.7-0.6,1.1c0.8,0.3,1.6,0.5,2.6,0.8
		c0-3.9-0.1-7.6,0-11.3c0.1-1.4,0.4-2.9,1-4.2c0.8-1.7,1.9-3.2,2.7-4.7C88.7,144.7,84.6,142.5,80.7,140.2z M108.8,47.7
		c-1.4-2.4-4-2.8-5.2-0.8c-1,1.8-1.7,3.7-2.3,5.7c-0.6,1.7-0.8,3.6-1.4,5.3c-0.8,2.1-0.9,4,0.6,5.8c0.7,0.9,1.3,2,2,3
		c0.5,0.8,1.1,1.5,1.6,2.3c0.1,0,0.3,0,0.4-0.1c0.1-1,0.2-2,0.2-2.9c0-2.7,0-2.7-2.5-3.1c0.2-0.6,0.5-1.2,0.5-1.8
		c0.2-2,0.2-4.1,0.3-6.1C103.1,50.7,104.7,48.7,108.8,47.7z M159.8,168.1c3.1-1.5,6.2-2.9,9.3-4.4c1.1-0.5,2-1.2,1.6-2.6
		c-0.3-1.2-0.6-2.3-0.9-3.4c-2.4,1.8-4.8,3.6-7.2,5.4C160.8,164.3,160,166,159.8,168.1z M78.7,12.3c0.5,0.7,0.7,1.5,1.3,2
		c1,1,2.1,1.8,3.1,2.7c0.2,0.2,0.6,0.3,0.7,0.3c0.7-0.7,1.6-1.3,2-2.1c0.2-0.4-0.2-1.3-0.5-1.9c-0.1-0.3-0.6-0.4-0.9-0.7
		C82.1,10.3,80.6,10.3,78.7,12.3z M18.1,53.9c0-2-0.7-2.9-2.3-2.8c-0.4,0-1,0.4-1,0.6c-0.2,1.3-0.3,2.6-0.3,3.9
		c0,0.8,0.4,1.1,1.2,1.1C17.4,56.6,18.1,55.8,18.1,53.9z M63.8,189.9c0.2,0.9,0.3,1.3,0.4,1.7c0.2,1.1,0.9,1.5,2,1.3
		c1.4-0.3,2.9-0.6,4.3-0.8c0-0.1,0-0.2,0-0.4C68.4,191.2,66.2,190.6,63.8,189.9z"/>
	<path class="st0" d="M68.5,119.8c0.9-0.3,1.6-0.6,2.3-0.9c1.1-0.6,2.3-1.2,3.4-1.9c0.4-0.2,0.8-0.4,1.2-0.5
		c0.3-0.1,0.8-0.1,0.9-0.3c0.8-2.2,3.2-2.2,4.8-3.3c2.5-1.6,5.1-3,7.8-4.5c0.3-0.2,0.8-0.2,1.1,0c0.2,0.1,0.3,0.7,0.2,1
		c-0.6,2.3-1.1,4.5-1.8,6.8c-0.7,2.2-2.3,3.7-4.2,4.9c-2.2,1.4-4.6,2.4-7.3,2c-0.4-0.1-0.9-0.1-1.3-0.3c-2.2-0.8-4.3-1.6-6.4-2.4
		C68.9,120.3,68.8,120.2,68.5,119.8z M73.6,120.6c0.8,0.4,1.7,0.9,2.6,1.3c2.3,0.9,4.3-0.2,6.3-1.1c3.4-1.5,4.9-4.4,5.8-7.8
		c0.2-0.7,0.2-1.5,0.3-2.3c-1.1,0.6-2,1.3-2.8,2c-1.5,1.4-2.7,3.2-4.4,4.2C79,118.5,76.3,119.4,73.6,120.6z M84.3,112.4
		c-4.3,1.7-7.5,4.6-11.3,6.8C77.5,118.2,81.3,116.3,84.3,112.4z"/>
	<path class="st0" d="M72.7,102.8c1.5,0.1,3-0.5,4.4,0.6c1.2,1,1.3,3,0,4.3c-0.8,0.8-1.8,1.4-2.7,2.2c-0.7,0.6-1.4,1.3-1.7,2
		c-0.7,1.7-1.7,2.3-3.6,1.9c-1.7-0.4-3.5-0.6-5.3-0.9c-1.6-0.2-2.3-0.9-1.8-3c0.6-3,0.8-5.8-0.3-8.7c-0.1-0.1,0-0.4,0.4-0.7
		c0.3,0.4,0.6,0.7,0.8,1.1c1,2.7,1.1,5.4,0.2,8.2c-0.6,1.8,0,2.3,1.9,2.2c1.3,0,2.7,0.5,4,0.9c1.9,0.5,2.1,0.2,2.9-1.6
		c0.4-0.9,1.4-1.5,2.1-2.2c0.8-0.8,1.9-1.4,2.5-2.3c0.9-1.5,0.2-2.6-1.6-2.7c-0.4,0-0.9,0.1-1.3,0c-0.4-0.1-0.7-0.4-1.1-0.7
		C72.6,103.1,72.6,102.9,72.7,102.8z"/>
	<path class="st0" d="M77.3,90.3c-1.6,0-3.2-0.1-4.7-0.1c-0.2,0-0.4,0.2-0.5,0.1c-0.5-0.3-0.9-0.6-1.4-0.9c0.4-0.3,0.8-0.7,1.2-0.7
		c3.5,0.1,6.4-0.9,8.7-3.6c0.5-0.6,0.9-1.2,1.2-1.8c0.7-1.4,0.9-1.5,2.2-0.5c-0.6,1.2-1.4,2.4-1.9,3.6c-0.8,1.6-2.3,2.2-3.7,3.1
		C77.9,89.8,77.5,90.1,77.3,90.3z"/>
	<path class="st0" d="M83.1,76.3c-4.3,2.5-8.5,5.1-12.8,7.6c-0.1-0.1-0.3-0.3-0.4-0.4c0.5-0.6,0.8-1.4,1.4-1.9c2-1.4,4-2.8,6.1-4.1
		c1.3-0.8,2.8-1.3,4.3-1.9c0.4-0.1,0.9,0,1.3,0C83,76,83.1,76.1,83.1,76.3z"/>
	<path class="st0" d="M56,95.7c0,0.7,0.2,1.5,0,2.1c-0.9,2.6-2.8,4-5.4,4.3c-1.3,0.1-2.7-0.5-4-0.8c-0.2-0.1-0.3-0.6-0.5-0.9
		c0.3-0.1,0.6-0.3,0.9-0.3c2.9,0.5,6-0.9,7.6-3.4c0.2-0.4,0.6-0.8,0.9-1.1C55.6,95.7,55.8,95.7,56,95.7z"/>
</g>
</svg>
