<?xml version="1.0" encoding="utf-8"?>
<!-- Generator: Adobe Illustrator 19.1.0, SVG Export Plug-In . SVG Version: 6.00 Build 0)  -->
<svg version="1.1" id="Layer_1" xmlns="http://www.w3.org/2000/svg" xmlns:xlink="http://www.w3.org/1999/xlink" x="0px" y="0px"
	 viewBox="0 0 150.1 208" style="enable-background:new 0 0 150.1 208;" xml:space="preserve">
<style type="text/css">
	.st0{fill:#FF5722;}
</style>
<g id="burn-mother-child">
	<path class="st0" d="M137.1,170.7c2.8,2,5.6,4.1,8.5,6c1.4,1,3.5,1.7,4.5,2.5v-1.2c-1-0.6-2.3-1.2-3.4-1.9c-1-0.6-2.1-1.3-3.1-2
		c-2.6-1.8-5.1-3.6-7.6-5.4c-0.5-0.3-0.8-0.7-0.7-1.3c0.4-2.1-0.8-3.9-1.4-5.8c-0.2-0.7-0.8-1.2-1.5-1.4c-0.3-0.1-0.6-0.3-1.1-0.5
		c0.7-0.3,1.2-0.6,1.8-0.7c1.7-0.5,3.1-1.3,4.3-2.6c0.5-0.5,0.7-1.4,0.3-1.8c-0.3-0.5-1.1-0.6-1.8-0.2c-0.1,0.1-0.3,0.2-0.4,0.2
		c-1,0.4-2,0.8-3.1,0.5c0-1,0-2,0-2.9c-0.1-1.9-0.2-3.9-0.4-5.8c-0.1-0.8,0.1-1.3,1-1c0.2,0,0.4,0,0.6-0.1c0.4-0.3,0.7-0.1,1,0.2
		c0.3,0.3,0.6,0.5,0.8,0.8c1.3,1.6,3.2,2.5,5.1,3.3c0.4,0.2,1,0.1,1.4,0c0.6-0.1,1.2-0.3,1.8-0.6c0.4-0.2,0.8-0.7,1.1-1.1
		c0.1-0.1-0.2-0.5-0.4-0.6c-1.8-1-2.8-2.7-4-4.3c-2.7-3.6-4.9-7.3-5.6-11.8c0-0.2-0.2-0.5-0.4-0.6c-0.9-0.6-1.8-1.5-2.9-1.7
		c-1.3-0.2-2-0.9-2.5-2c-0.1-0.3-0.3-0.6-0.5-0.9c-1.1-2-2.6-3.6-5-4c-2.3-0.5-4.6-1.5-7-0.9c0-2,0-3.9,0-5.8c0-8-0.1-16-0.1-23.9
		c0-6.2,0-12.5,0-18.7c0-7.6,0-15.2,0-22.8c0-9,0-17.8,0-26.8c0-7.7-0.1-16.1-0.1-23.1h-3.9c0,0-0.1,0.5-0.1,0.9
		c0,6.8,0.1,13.6,0.1,20.4c0,9.6,0,19.1,0,28.6c0,6.4,0,12.8,0,19.2c0,4.7-0.1,9.4-0.1,14.1c0,8.8-0.1,17.7-0.1,26.5
		c0,3.9,0,7.8,0,11.8c-1-0.3-2.2-0.5-3.3-0.9c-0.7-0.2-1.4-0.5-2.1-0.7c-1.3-0.5-2.6-1-3.9-1.6c-1-0.4-1.9-0.8-2.8-1.3
		c-2.1-1.1-4.3-2.1-6.1-3.5c-2.6-2-5.3-3.6-8.3-4.8c-3.3-1.4-6.7-2.6-10-4.1c-2.8-1.3-5.7-1.9-8.6-2.5c-1.2-0.3-2-0.9-2.9-1.7
		c-0.5-0.4-0.3-0.8-0.3-1.2c0-0.1-0.1-0.2-0.1-0.2c-0.5-1.7-1-3.4-1.5-5.1c-0.3-1.4-0.4-2.8-1.3-4.1c-0.1-0.2-0.1-0.4-0.1-0.6
		c0-0.3,0-0.7-0.1-0.9c-1.4-2.5-3.5-4.1-5.9-5.5c-0.6-0.4-1.2-0.7-2-1.2c0.9-0.7,1.5-1.2,2.4-1.3c1.2-0.1,2.2,0.3,3.3,0.6
		c0.7,0.2,1.3,0.4,2,0.4c0.8,0,1.5-0.2,1.7-1.1c0.4-1.5,1.3-2.7,2.4-3.7c0.6-0.6,0.9-1.2,1-2.1c0-0.3,0.2-0.7,0.4-1
		c0.8-1,1.6-2,2.5-3.1c0,0,0.1,0.1,0.3,0.1c1.4,0.3,2.5-0.6,2.3-2c-0.1-0.5-0.2-1-0.4-1.6c-0.2-1-0.4-2,0.1-2.8
		c0.5-0.9,1.3-1.7,1.9-2.6c0.3-0.5,0.6-1,0.8-1.5c0.1-0.2,0.1-0.6,0.3-0.8c0.9-0.9,0.9-2.1,1.2-3.2c0.5-1.8,0.8-3.8,2.1-5.4
		c0.3-0.4,0.6-1,0.6-1.5c0-2.3-1.3-3.9-2.9-5.3c-0.8-0.6-1.6-1.4-2-2.2c-0.7-1.4-1.5-2.6-2.7-3.5c-1-0.7-1.8-1.5-2.7-2.2
		c-1.5-1.1-3-2.4-4.7-3.2c-2.5-1.3-5.3-1.6-8.2-1.5c-1.2,0-2.3,0.3-3.4,0.9c-0.8,0.5-1.7,0.8-2.5,1.3c-0.9,0.5-1.9,1-2.7,1.7
		c-2.6,2.4-4.5,5.3-6.4,8.3c-0.8,1.4-1.4,2.9-2.1,4.4c-0.7,1.4-1.5,2.7-2.1,4.1c-0.6,1.2-1,2.5-1.5,3.7c-0.4,0.9-0.7,1.9-1.1,2.8
		c-0.6,1.6-1.3,3.1-2,4.6c-0.5,1.2-1.2,2.3-1.8,3.5c-0.3,0.7-0.6,1.2-1.5,1.1c-0.6,0-1.1,0.3-1.7,0.5c-0.9,0.4-1.8,0.8-2.7,1.2
		c-3.1,1.3-6.3,2.6-8.6,5.3c-0.1,0-0.2,0-0.2,0.1c-2.4,2.8-4.7,5.7-6.4,9c-1.8,3.3-2.6,7-3.5,10.6c-2.1,8-3.9,16-4.4,24.2
		c0,0.6,0.9,0.6,0.9,0c0.5-7.9,2.2-15.5,4.1-23.1C6,91.9,6.5,88,8.3,84.6c1.6-3.1,3.8-5.9,5.8-8.6v0.3c2-2,3.2-3.4,5.3-4.4
		c2.3-1.1,4.7-2.1,7-3.1c0.9-0.4,1.7-0.4,2.7,0.3c1.3,0.9,2.9,0.5,4.4,0.3c0.6-0.1,1.3-0.1,1.9,0.1c2.9,1.1,3.5,3.6,3.6,6.3
		c0.1,1.2-0.1,2.4-0.1,3.6c0,0.8,0.3,1.6,0.3,2.5c-2.3-3.2-5.4-5.6-8.5-7.9c-0.4,0.4-0.4,0.7,0.2,1.2c0.9,0.7,1.7,1.6,2.7,2.2
		c2,1.3,3.2,3.2,4.7,4.9c0.5,0.6,0.7,1.4,1.1,2.2c-0.5,0.1-0.7,0.1-1,0.1c-1.9-0.1-3.5,0.7-5.1,1.4c-4.3,2-8.4,4.2-13,5.5
		c-1.7,0.5-2.9,1.7-3.8,3.2c-0.3,0.5,0.2,0.8,0.5,0.8c0.8,0.1,1.7,0.1,2.5,0c1.3-0.1,2.6-0.4,3.9-0.5c0.7,0,1.4,0.2,2,0.5
		c2.4,1.4,4.7,2.8,7.1,4.3c2.3,1.4,4.6,3,7,4.3c2.5,1.3,5.2,2.3,7.9,3.4c2.8,1.2,5.6,2.6,8.1,4.5c0.3,0.2,0.6,0.5,0.9,0.8
		c-1.4,2.4-3.6,4.3-4.2,7.2c-1.4-0.6-2.6-1.1-3.8-1.6c0.1-2.4,0.2-4.7,0.3-7c-0.1,0-0.3-0.1-0.4-0.1c-0.1,0.3-0.3,0.5-0.4,0.8
		c-0.1,0.9,0,1.8-0.1,2.7c-0.1,1-0.2,2-0.4,3.1c-1.8-0.3-3.4-0.6-5.1-0.8c-1.4-0.2-2.7-0.5-4.1-0.5c-2.7-0.1-5,1-7,2.7
		c-1.2,1.1-2.2,2.4-3.3,3.6c-1.5,1.6-2.3,3.6-3,5.7c-0.1,0.2-0.2,0.4-0.3,0.8c-0.3-0.7-0.4-1.2-0.7-1.7c-0.6-1.4-1.2-2.8-1.8-4.1
		c-0.5-0.9-0.9-1.8-0.9-2.9c0.1-2.4,0-4.8,0.8-7.2c0.3-0.8,0.7-1.4,1.1-2.1c0.1-0.2,0.2-0.4,0.2-0.7c-0.8,0.1-1.3,0.7-1.5,1.4
		c-0.5,1.4-0.9,2.8-1.2,4.3c-0.2,1.4-0.2,2.9-0.3,4.3c-0.1,1.3,0.3,2.4,1,3.4c1.3,2,1.8,4.3,2.4,6.6c0.6,2.3,0,4.5,0.3,6.8
		c0.2,1.8,0.3,3.6,0.5,5.4c0.3,2.4,0.6,4.9,0.9,7.3c0.1,0.6,0.2,1.3,0.1,1.9c-0.1,0.5-0.3,0.9-0.6,1.3c-1,1.6-2.2,3.1-3.1,4.8
		c-1.3,2.3-1.5,4.9-1.7,7.4c-0.2,2.9-0.4,5.9-0.2,8.8c0.1,1.9,0.6,3.9,1.1,5.8c0.7,2.3,0.9,4.7,1,7.1c0,1.7,0.1,3.3,0.1,5
		c0,1.8-0.1,3.5-0.1,5.3c0,0.7,0,1.4,0,2.1c0,0.1,0,0.3,0.1,0.4c1.1,1.1,1.1,2.5,1.3,3.9c0.2,1.4,0.2,3.3,0.3,4.3h1
		c-0.2-2-0.3-4-0.5-6c-0.3-2-0.9-3.9-1.1-5.9c-0.2-2,0-4-0.1-6.1c-0.1-2.3,0-4.7-0.4-7c-0.3-2.3-1.1-4.5-1.6-6.8
		c-0.2-0.7-0.3-1.5-0.3-2.2c0.1-3.2,0-6.3,0.4-9.5c0.2-2,0.8-4.1,1.5-6c0.6-1.5,1.7-2.8,2.7-4.1c0-0.1,0.1-0.1,0.2-0.2
		c1.3-1.9,1.4-1.8,3.6-1.3c1.5,0.4,3.2,0.4,4.7,0.7c0.5,0.1,1,0.3,1.4,0.6c0.9,0.8,1.7,1.7,2.7,2.3c1.1,0.7,2.4,0.8,3.6,0.4
		c0.9-0.3,1.5-1.2,1.4-2c-0.1-0.9-0.7-1.4-1.5-1.7c-0.7-0.3-1.5-0.4-2.2-0.5c-0.1,0,0,0.1-0.2,0.2c0.3,0.2-0.1,0.4,0.9,0.6
		c0,0.1,0,0.2,0,0.3c-1,0-1.1,0.1-1.5,0c-0.7-0.2-1.4-0.6-1.6-1.3c0-0.2-0.1-0.3-0.1-0.5c-0.2-1.5,0.5-1.9,2-1.5c-0.5,0.6-1.4,1-1,2
		c0.8-0.7,1.5-1.4,2.3-2c-0.3-0.7-1.6-1-3-0.7c-0.9,0.2-1.3,1-1.1,2.6c0.1,1.2,1.2,2.1,2.7,2.3c0.7,0.1,1.4,0,1.5-0.9
		c0.3,0,0.6,0,0.9,0.1c0.4,0.2,1.1,0.5,1.1,0.8c0.1,0.4-0.2,1-0.6,1.3c-0.3,0.3-0.9,0.4-1.4,0.3c-2.2-0.3-4-1.4-5-3.3
		c-0.5-1-0.3-2.3-0.3-3.5c0.1-0.7,1.1-1.1,2.2-1.1c1.6,0,3,0.5,4.1,1.8c0.5,0.6,1.2,1,2,1c0.8,0,1.5-0.2,2-0.9
		c0.4-0.6,0.8-1.1,1.2-1.7c0.9-1.4,2.3-2.3,3.8-2.9c0.4-0.2,0.8-0.4,1.2-0.5c1.4-0.5,1.9-1.5,2-3c0.2-2.6,1.7-4.8,4.6-4.9
		c0.7,0,1.4-0.1,2.1-0.2c1.9-0.3,3.4-1.1,4.4-2.9c0.1-0.1,0.1-0.2,0.5-0.2c0,1,0,2.1,0,3.1c0,2.2-0.4,4.2-1.5,6.1
		c-0.5,0.8-0.4,1.9-0.5,2.9c0,0.3,0.3,0.7,0.6,1.1c0.4,0.6,1,1.1,1.3,1.7c0.5,0.8,0.2,1.6-0.5,2.1c-0.6,0.4-1.2,0.8-1.8,1.2
		c-1.2,0.7-1.9,0.4-2.1-1c-0.1,0.3-0.4,0.6-0.3,0.9c0.2,1.2,1.2,0.9,2,1c-0.4,1.7-1.9,2.1-3.4,2.7c0.2-0.5,0.4-0.9,0.5-1.2
		c0,0-0.1,0-0.1-0.1c-0.6,0.8-1.2,1.7-1.9,2.4c-0.7,0.7-1.6,1.3-2.4,2c0.1,0.1,0.1,0.2,0.2,0.3c0.4-0.3,0.7-0.6,1.1-0.8
		c0.4-0.2,0.9-0.5,1.3-0.6c0.5-0.1,1-0.1,1.6-0.1c-1,2.9-2.5,3.5-5.9,3.1c-1.5-0.2-2.9-0.7-4.4-1.1c-1-0.3-1.9-0.7-2.8-1
		c-0.9-0.4-1.9-0.7-3-1.2c0.1,0.4,0,0.7,0.2,0.8c0.5,0.5,0.1,0.8-0.2,1.2c-0.4,0.4-0.7,0.7-1.3,0.3c-1.6-1.1-3.3-2.1-4.9-3.2
		c-0.2-0.2-0.5-0.3-0.7-0.4c-0.1,0.1-0.1,0.1-0.2,0.2c0.2,0.3,0.4,0.7,0.7,1c1.1,0.9,2.2,1.9,3.5,2.6c1.7,1.1,3.4,2.1,4.8,3.5
		c0.5,0.5,1,1,1.4,1.5c0,0.1,0,0.2-0.1,0.3c-1.2,0.2-2.3,0.6-3.5,0.6c-0.6,0-1.3-0.7-1.9-1.1c-0.4-0.3-0.8-0.8-1.3-0.8
		c-1.5-0.1-2.5-1-3.6-1.9c-1.6-1.3-3.1-2.7-4.5-4.1c-0.9-0.9-1.6-2.1-2.4-3.1c-0.1-0.2-0.3-0.3-0.6-0.5c-0.2,0.3-0.3,0.5-0.4,0.6
		c0.9,1.2,1.7,2.4,2.7,3.5c1,1.1,2.1,2,3.1,3c0.4,0.4,1.3,0.8,0.9,1.5c-0.1,0.3-1,0.1-1.5,0.2c-1.1,0.3-2.3,0.6-3.4,1
		c-0.6,0.3,0,0.6,0.2,0.9c1.9-1.2,4-1,6.1-1.1c0.1,0,0.2,0,0.2,0.1c1.2,0.5,2.5,1,3.7,1.6c0.9,0.5,1.8,1.1,2.6,1.8
		c1.3,1,2.5,2,3.7,2.9c0.8,0.6,1.7,1.2,2.5,1.8c0.9,0.7,2,1.4,2.9,2.1c0.8,0.6,1.4,1.3,2.4,1.9v1.1c-3,2.1-4.4,4.2-6.5,6.4
		c-1.9,2.1-3.7,4.3-5.6,6.4c-0.9,1.1-1.2,1-2.4,0.4c-2.4-1.4-4.4-3.2-6.4-5.1c-0.9-0.9-2-1.6-3.1-2.3c-1.4-1-2.8-2-4.3-3.1
		c-0.6,0.2-0.3,0.6,0.1,1c1.2,1,2.4,2,3.7,2.9c2.3,1.6,4.3,3.6,6.5,5.3c1.3,1.1,2.7,2.1,4.1,3.1c0.4,0.3,0.8,0,1.2-0.4
		c1-1,2-2,3-2.9c1.5,0.7,2.3,2,3,3.4c1.5,3.2,3.7,5.7,6.3,8c1.9,1.7,3.8,3.5,5.8,5.1c1.2,1,2.5,1.5,3.7,2.5h2c-0.5,0-0.8-0.8-1.4-1
		c-3.6-1.2-5.9-4.2-8.7-6.5c-1-0.9-2.1-1.7-2.9-2.8c-1.4-1.8-2.6-3.7-3.9-5.5c-1-1.5-2-3-3.1-4.5c0.3-0.3,0.6-0.7,1-1.1
		c0.4-0.5,1-0.4,1.1,0c0.5,1.4,1.8,1.8,2.8,2.6c1.7,1.2,3.4,2.4,5,3.6c2.1,1.5,4.4,2.5,7,2.8c2.4,0.3,4.9,0.5,7.3,1.1
		c6.1,1.6,12.3,2.1,18.5,2.4c3.3,0.1,6.6,0.4,9.8,0.5c4.3,0.1,8.6-0.2,12.9-0.9c2-0.4,4.1-0.3,6.1-0.5c2-0.3,4-0.7,6.1-1
		c2-0.3,4-0.6,6-0.7c0.9,0,1.7,0.1,2.6-0.2c1.3-0.5,2.6-1,3.9-1.4c3.5-1,7-1.8,10.5-2.8c1.4-0.4,3.2-0.8,4.2-1.2v-1
		c-2,0.7-4.5,1.4-6.7,2c-3.8,1.1-7.6,2-11.5,3.1c-0.8-0.6-0.9-1.8-0.8-2.7c0.1-1.5-0.6-2.7-1-3.9c-1.2-3.1-2.5-6.1-4.4-8.8
		c-0.7-1-1.6-1.9-2.5-2.6c-3.2-2.5-6.8-4.6-10.4-6.4c-2.1-1-4.2-1.9-6.4-2.9c-0.5-0.2-1.1-0.3-1.7-0.4c0.8-0.4,1.7-0.8,2.5-1.3
		c0.1-0.1,0.3-0.1,0.3-0.2c0.4-1.1,1.2-0.7,2-0.7c1.5,0,2.9,0,4.4,0c0.5,0,1-0.2,1.4-0.4c0.2,0,0.4-0.1,0.6-0.1
		c1.9,0.1,3.9,0.1,5.8,0.2c0.2,0,0.5,0,0.7,0c0.2,0.8,0.3,1.6,0.6,2.4c0.4,1.1,0.8,2.1,1.4,3.1c0.4,0.8,0.3,1.6,0.1,2.4
		c-0.5,2.3-0.4,2.5,2,2.6c1.6,0.1,3.1,0.3,4.7,0.3c0.8,0,1.6-0.2,2.4-0.4c0.3-0.1,0.5-0.5,0.6-0.8c0.1-0.2,0.1-0.4,0-0.7
		c-0.3-1.5,0.1-2.9,1.2-4.1C136,170.1,136.5,170.4,137.1,170.7z M133.2,163.2c0.2,1.2-0.5,2.1-1.1,2.8c-1.3,1.5-3.9,1.7-5.4,0.4
		c-0.6-0.5-0.9-1.2-1.5-2c1.5-0.6,1.4-1.6,1.3-2.8c0-0.2,0.1-0.4,0.2-0.6c0.1,0.1,0.3,0.3,0.4,0.4c0.4,1.1,0.8,1.5,1.6,1.5
		c0.7,0,1.6-0.8,1.8-1.7c0.1-0.2,0.1-0.5,0.1-0.8C131.9,161.1,132.9,161.8,133.2,163.2z M127.5,161.1c0.1-1.1,1.2-0.4,1.5-0.7
		c0.8-0.1,0.9,0.3,0.9,0.7c0,0.6-0.6,1.3-1.3,1.3C128,162.4,127.5,161.9,127.5,161.1z M136.9,155.2c0.1,0.1,0.1,0.5,0,0.7
		c-0.5,0.7-1,0.3-1.6-0.2C135.9,155.4,136.2,154.7,136.9,155.2z M132.8,156.2c1-0.1,2,0.3,2.9,0.5c0,0.1,0,0.3,0.1,0.4
		c-0.8,0.4-1.5,0.8-2.3,1.2c-0.1,0.1-0.5,0-0.6-0.2c-0.6-0.8-1.5-0.8-2.3-0.7c-1.9,0.2-3.9,0.5-5.8,0.8c-0.1,0-0.3,0.2-0.4,0.2
		c0,0.1,0,0.2,0.1,0.3c0.8-0.1,1.6-0.2,2.4-0.2c1.5-0.2,3.1-0.3,4.6-0.5c0.3,0,0.6,0.2,0.8,0.3c0,0.1,0,0.2,0,0.4
		c-1.3,0.3-2.6,0.7-3.8,1c-0.5,0.1-1.1,0.2-1.5,0.4c-1.5,0.6-3,1.4-4.5,1.8c-1.2,0.3-2.5,0.1-3.8,0.2c-1.5,0.1-3.1,0.2-4.6,0.2
		c-0.2,0-0.5-0.1-0.7-0.2c-0.3-0.2-0.6-0.5-0.9-0.8c-1-1-1-2-0.3-3.1c0.1-0.2,0.3-0.4,0.4-0.6c0-0.1,0-0.4-0.2-0.5
		c0-0.1-0.4,0-0.4,0.1c-0.3,0.6-0.8,1.3-0.9,1.9c-0.3,1.3,0.4,2.3,1.3,3.2c0.1,0.1,0.2,0.2,0.3,0.3c-1,0.5-1.4,0.4-1.8-0.5
		c-0.3-0.7-0.8-1-1.6-1.1c-2.2-0.1-4.3-0.1-6.5-0.2c-0.6,0-1.1-0.2-1.7-0.3c0-0.1,0-0.2,0-0.2c0.4-0.3,0.8-0.6,1.2-0.8
		c2.3-1.1,4.7-2.1,7.1-3.1c0.5-0.2,1.1-0.5,1.6-0.7c0.2-0.1,0.5-0.2,0.7-0.1c0.7,0.3,1.2,0,1.7-0.5c1.5-1.6,3.6-1.9,5.5-1.5
		c1.3,0.3,2.6,1.3,3.4,2.7c0.6,1.1,1.7,1.1,2.7,1C127.6,156.7,130.2,156.4,132.8,156.2z M107.2,148c0,0.6-0.7,1.1-1.1,1.6
		c-0.1-0.1-0.2-0.1-0.3-0.2c0.2-2.6,0.3-5.2,0.5-7.9c0.7-0.2,1-0.1,1,0.5C107.2,144.1,107.3,146,107.2,148z M105.2,137
		c0,0.9,0,1.8,0,2.8c0,0.2-0.4,0.4-0.7,0.4c-2.4-0.2-4.9-0.4-7.2-1.3c-0.7-0.3-1.5-0.2-2.3-0.4c-0.5-0.1-1.1-0.1-1.5-0.3
		c-2-1.1-4.3-1.3-6.5-2c-1.1-0.4-2.1-1-3.2-1.4c-1.6-0.7-3.3-1.3-4.9-2.1c-1.7-0.8-3.5-1.6-4.8-3c-0.7-0.8-1.1-1.7-1.5-2.7
		c-0.8-1.8-1.5-3.7-2.2-5.5c-0.2-0.4-0.4-0.8-0.6-1.2c0.2,0,0.3,0,0.4,0c3.8,1.8,8,2.6,12,4c0.6,0.2,1.2,0.3,1.8,0.4
		c3.6,0.7,7.1,1.3,10.7,2c1.3,0.3,2.6,0.7,3.9,1c2.3,0.6,4.7,1.1,7,1.6c0.5,0.1,1,0.3,1.6,0.5c-0.5,0.8-1,1.4-1.3,2.2
		c-0.6,1.4-1,2.9-1.4,4.4C104.3,136.5,104.8,136.8,105.2,137z M107.2,150.6c0,0.7-0.5,1-1.2,0.8c-0.4-0.1-0.6-0.4-0.3-0.8
		c0.4-0.4,0.8-0.8,1.2-1.2c0.1,0,0.2,0.1,0.2,0.1C107.2,149.9,107.2,150.2,107.2,150.6z M107.2,140.1c0,0.2-0.2,0.4-0.4,0.5
		c-0.1-0.2-0.3-0.4-0.3-0.6c0-0.9,0-1.9,0-2.9c0.7-0.1,1,0.1,1,0.8C107.3,138.7,107.3,139.4,107.2,140.1z M106.2,136.1
		c-0.5,0-0.7-0.2-0.6-0.7c0.4-1.7,0.8-3.5,1.9-5c0.5-0.7,1.1-1,1.9-0.7c0.7,0.3,1.5,0.5,2,0.7c-0.8,1.7-1.7,3.3-2.4,4.8
		c-0.3,0.7-0.6,1.1-1.4,0.8C107.2,136,106.7,136.1,106.2,136.1z M108.3,139.3c0-0.3-0.1-0.7-0.1-1c-0.1-0.5-0.2-0.9,0.6-1
		c0.2,0,0.5-0.4,0.7-0.8c0.5-1.1,0.9-2.2,1.3-3.3c0.3-0.7,0.6-1.4,1.5-1.7c-0.2,3.5-0.3,6.8-0.5,10.3c-0.5-0.1-1.1-0.2-1.7-0.3
		c-0.6-0.1-1.4-0.1-1.7-0.5C108.2,140.6,108.3,139.8,108.3,139.3z M108.1,147.6c0.1-1.8,0.2-3.7,0.3-5.8c1.7,0.5,3.2,1,4.8,1.6
		c2.4,1,4.5,2.5,6.4,4.3c1,1,1.9,2.1,2.8,3.2c1.2,1.5,2.3,3,4.1,3.8c0.5,0.2,1,0.4,1.5,0.5c0.5,0.1,1.1,0.3,1.6,0.4
		c0,0.1,0,0.2,0,0.3c-0.6,0.1-1.1,0.4-1.7,0.4c-1.5,0.1-3,0.5-4.3-0.5c-1.1-0.8-2.2-1.7-3.3-2.6c-0.2-0.2-0.3-0.6-0.3-1
		c-0.2-0.9-0.3-1.8-0.4-2.6c0-0.2-0.3-0.3-0.4-0.4c0,0.2-0.1,0.4-0.1,0.6c0.1,0.7,0.2,1.5,0.3,2.2c0,0.2-0.3,0.5-0.5,0.5
		c-0.6,0.1-1.2,0.1-1.8,0.1c-0.2,0-0.5-0.3-0.7-0.5c-0.7-0.8-1.4-1.6-2.1-2.4c-0.2-0.2-0.5-0.3-0.8-0.4c-0.1,0.1-0.1,0.2-0.2,0.2
		c0.5,0.5,0.9,0.9,1.3,1.4c0.4,0.5,0.8,1.1,1.2,1.8c-0.4,0.1-0.7,0.2-1,0.3c-0.6,0.3-1.1,0.7-1.7,1.1c-0.3,0.2-0.6,0.4-0.9,0.6
		c-0.2-0.3-0.4-0.5-0.5-0.8c-0.3-0.8-0.8-1.4-1.8-1.3c-1.1,0.1-1.5-0.8-1.6-1.3c-0.2-0.9-0.4-2.1,0.2-3
		C108.3,148.1,108,147.8,108.1,147.6z M131,148.1c0,0-0.1,0-0.1,0c0.1,1.6,0.3,3.2,0.4,4.8c0,0.8-0.1,1.5-0.1,2.3
		c0,0.1-0.2,0.3-0.2,0.3c-0.6-0.3-1.1-0.5-1.7-0.8c-0.1-0.1-0.1-0.4-0.1-0.6c0.4-1.3-0.3-2.2-1.6-2.2c-0.7,0-0.8-0.3-0.8-0.8
		c0-1.5,0.1-3,0.1-4.5c0-1-0.3-2-0.4-3c0-0.3,0.1-0.5,0.1-0.8c0.2,0.1,0.5,0.2,0.7,0.3c1,0.5,1.9,1,2.9,1.5c0.6,0.3,0.8,0.7,0.8,1.3
		C131,146.6,131,147.4,131,148.1z M127.4,152.6c0.4,0,0.8,0.3,1.2,0.6c0.1,0.1,0.1,0.5,0,0.5c-0.4,0.3-0.8,0.8-1.5,0.5
		c-0.5-0.3-1.1-0.6-1.6-1c0-0.1,0-0.1,0.1-0.2C126.1,152.9,126.7,152.6,127.4,152.6z M125.5,152.4c-0.7,0.3-1.2-0.2-1.6-0.6
		c-0.8-1-1.5-1.9-2.3-2.9c-1.5-1.9-3.5-3.3-5.5-4.7c-0.2-0.1-0.3-0.2-0.4-0.4c0.1,0,0.2,0,0.3,0c0-0.9,0-1.8,0-2.7
		c0-1.6,0-3.2,0-4.9c2.2,0.7,3.9,2.2,5.7,3.5c1,0.7,2.1,1.3,3.1,1.9c0.5,0.3,0.9,0.6,0.9,1.3c0.1,2.7,0.3,5.3,0.5,8
		C126.2,151.5,126.2,152.1,125.5,152.4z M130.7,143.7c-1.8-0.9-3.5-1.8-5.3-2.7c-1.2-0.7-2.4-1.4-3.6-2.2c-1.5-1-2.9-2-4.4-2.9
		c-1.3-0.8-2.3-1.8-2.9-3.1c-0.3-0.5-0.5-1.1-0.8-1.6l0.2-0.2c0.4,0.3,0.8,0.5,1.1,0.9c1.4,1.8,3.3,2.7,5.4,3.3
		c1.6,0.5,3.2,1,4.8,1.6c0.3,0.1,0.6,0.3,0.9,0.5c-0.8,0.5-1.5,1-2.2,1.4c0,0,0.1,0.3,0.1,0.3c0.9-0.3,1.6-0.6,2.4-0.8
		c0.1,0,0.2,0,0.3,0c0.8,0.4,1.6,0.9,2.4,1.2c1.8,0.6,2.5,2.2,3.3,3.7c0.2,0.4,0.5,0.8,0.8,1.3C132.2,144.6,131.4,144.1,130.7,143.7
		z M126.7,137.2c0.6-0.3,1-0.4,1.5-0.6c0.2,0.5,0.5,1,0.7,1.5c-0.1,0.1-0.1,0.1-0.2,0.2C128.1,138,127.5,137.7,126.7,137.2z
		 M117.3,121.8c1.6,0.2,3.1,0.5,4.7,0.8c0.9,0.2,1.8,0.4,2.6,0.7c1.1,0.5,1.9,1.2,2.5,2.3c0.5,0.9,1,1.7,1.6,2.7
		c-5.3-0.6-9.2-3.6-13.6-6.2C116,121.9,116.6,121.7,117.3,121.8z M53.3,83c1,0.7,2.1,1.3,3.1,2c0.5,0.3,0.9,0.7,1.4,1.1
		c1,0.8,2,1.6,2,3c0,0.1,0,0.3,0.1,0.4c1.5,2.5,1.4,5.4,2.3,8.1c0.2,0.5,0.3,1,0.4,1.6c-0.7-0.4-1.1-0.6-1.6-0.9
		c-2.6-1.4-5.2-2.8-7.8-4.3c-0.3-0.2-0.6-0.6-0.6-0.9c0.1-0.5,0.2-1.1,0.9-1.1c1.2-0.1,2.3-0.3,3.5-0.3c1.1-0.1,1.8-1.4,1.3-2.6
		c-0.1-0.3-0.3-0.6-0.6-0.8c-1.2-1.2-2.5-2.4-3.7-3.7c-0.4-0.4-0.7-0.9-1-1.4C53.1,83.2,53.2,83.1,53.3,83z M54.7,86.6
		c0.8,0.8,1.7,1.5,2.4,2.3c0.3,0.3,0.5,0.9,0.4,1.4c-0.1,0.6-0.7,0.4-1.1,0.5c-1.2,0.1-2.4,0.2-3.4,0.6c-0.6,0.2-1,1-1.5,1.5
		c-1-0.3-1.2-0.5-1.3-1.7c-0.1-1.4-0.3-2.9-0.4-4.3c0-0.3,0-0.8,0.2-1.1c0.6-1.1,1.3-2.1,2-3.4C52.4,84.4,53.6,85.4,54.7,86.6z
		 M50.1,84.1C49.5,85,48.8,86,48.2,87c-0.1,0.2-0.2,0.4-0.3,0.6c1-0.1,1.2,0,1.2,1c0,0.6,0.1,1.3,0,1.9c0,0.2-0.1,0.4-0.3,0.8
		c-0.7-0.6-1.3-1.1-1.8-1.7c-0.8-0.8-1.5-1.6-2.2-2.4c-0.6-0.6-0.5-1.3-0.1-2c1.1-1.9,1.7-4,2.1-6.1c0.5-2.9,0.3-5.8-0.6-8.7
		c-0.2-0.5-0.2-1.1-0.2-1.7c0.1,0,0.3-0.1,0.4-0.1c1.3,4.6,4.4,7.9,8.1,10.8C52.3,80.4,51.4,82.4,50.1,84.1z M64.5,76.2
		c-2.1-0.6-2.7-2.6-3.7-4.3c1.8,0.7,2.8,2.4,4.3,3.4C64.9,75.7,64.7,75.9,64.5,76.2z M65.1,74.7c-1.5-1.2-3-2.4-4.5-3.6
		c0-0.1,0-0.1,0-0.2c1.7,0.8,3.6,1,5,2.2C65.5,73.7,65.3,74.1,65.1,74.7z M65.5,72.5c-1-0.6-2.1-1-3.4-1.6c1.8,0,3.3,0.2,4.7,1.1
		C66.5,72.7,66.3,73,65.5,72.5z M42.7,56.5c0.2-1.1,0.1-2.2,1-3.1c0.6-0.7,1.3-1.3,2.4-1.2c0.7,0,1.2,0.3,1.7,0.7
		c0.4,0.4,0.7,0.8,1.1,1.1c0.6,0.6,1.3,0.3,1.8-0.3c0.5-0.6,1.2-1.2,2-1.4c3.2-0.9,6.1-2.7,8.9-4.3c0.8-0.4,1.3-1.2,2-1.8
		c1.7-1.8,3.7-2.2,6-1.1c1.8,0.9,3.6,1.9,4.5,3.8c0.5,1.1,1,2.2,1.2,3.4c0.1,0.8-0.4,1.6-0.6,2.4c-0.5,1.7-0.9,3.4-1.3,5.1
		c-0.1,0.4-0.3,0.9-0.5,1.2c-0.6,0.9-1.3,1.8-2.1,2.8c-0.1-1.3,0-2.5,1.4-3.2c-0.9,0-1.5,0.5-1.6,1.3c-0.2,2-0.5,4,0.2,5.9
		c0.1,0.3,0.1,0.7,0.2,1c0.1,0.8-0.2,1.2-1,1.4c-0.7,0.2-1-0.1-1.5-0.7c-0.5-0.6-1.3-1.1-2-1.3c-1.6-0.6-1.8-0.8-0.6-2.1
		c0,0,0-0.1,0.1-0.2c-0.7,0.2-1.1,0.6-1.1,1.3c0,0.7,0.3,1,0.9,1.2c0.7,0.2,1.3,0.4,1.9,0.7c0.7,0.3,0.8,0.9,0.4,1.5
		c-0.3,0.4-0.6,0.9-0.9,1.3c-2.3-1.3-4.8-1.1-7.4-1.1c1.5,1.9,1.9,4.6,4.2,5.7c-0.6,1.2-1.2,2.4-2,3.5c-0.2,0.4-0.9,0.7-1.4,0.7
		c-1.7-0.1-3.2-0.7-3.9-2.4c-0.1-0.3-0.2-0.6-0.4-0.8c-0.1-0.1-0.3-0.2-0.5-0.3c0,0.2-0.1,0.4-0.1,0.6c0.3,0.6,0.6,1.2,0.9,1.8
		c-0.1,0.1-0.1,0.2-0.2,0.2c-0.7-0.4-1.4-0.8-2.1-1.2c-3.1-2.4-5.4-5.4-6.8-9.2c-0.9-2.6-0.8-5,0.3-7.5c0.7-1.7,0.9-3.5,0.8-5.4
		c-0.1,0-0.2,0-0.3-0.1c-0.2,1.1-0.4,2.1-0.6,3.1c-1.1,0.4-1.8,0-2.4-0.6c-0.7-0.6-1-1.6-0.5-2.4c0.4-0.7,1.1-1.2,1.9-1.9
		c-2.2,0.4-3,1.7-2.5,3.4c0.3,1.2,1.8,2.3,2.8,2c0.7,0.5,0.2,1.2,0.2,1.8c0,0.3-0.2,0.6-0.4,0.8c-0.5,1-0.8,1.1-1.7,0.3
		C43,61.2,42.2,59.1,42.7,56.5z M17.6,94.9c0-0.1-0.1-0.2-0.1-0.4c0.3-0.3,0.6-0.7,0.9-0.9c0.4-0.3,0.8-0.6,1.2-0.9
		c0.6-0.5,1.7-0.3,2.5,0.5c0.3,0.3,0.5,0.7,0.7,0.9C21.1,94.4,19.4,94.6,17.6,94.9z M46.9,106.2c-2.5-1.1-5.1-2.1-7.7-3.2
		c-0.9-0.4-1.8-1.1-2.7-1.6c-4-2.4-7.9-4.8-11.8-7.2c-1-0.6-1.9-1.5-2.9-2.3c1.4-0.6,2.8-1.1,4.1-1.7c2.6-1.2,5.2-2.3,7.7-3.7
		c2.2-1.2,4.5-1.3,6.9-1.2c0.1,0,0.3,0,0.3,0.1c1.2,1.5,3.2,2,4.4,3.6c2,2.7,4.9,4.6,7.9,6.1c2.9,1.5,5.7,3,8.5,4.6
		c0.8,0.5,1.5,1.1,2.2,1.7c0.9,0.8,1.8,1.3,3,1.5c2,0.4,4,0.8,5.9,1.4c0.8,0.2,1.6,0.8,2.3,1.1c1.1,0.5,2.2,1.1,3.4,1.5
		c3.9,1.5,7.9,2.8,11.6,5c1,0.6,1.9,1.3,2.8,2c2.1,1.8,4.6,3,7.1,4.1c0.3,0.1,0.7,0.2,1,0.4c2.2,1.5,4.6,2.2,7.1,2.9
		c1.9,0.5,3.9,0.8,5.8,1.4c1.4,0.4,2.7,1.1,4,1.8c1.6,0.9,3.1,2.1,4.8,2.7c2.6,1,5.4,1.7,8.2,2.4c1.8,0.4,3.1,1.6,3.5,3.4
		c0.4,2,1.2,3.8,2.3,5.6c0.4,0.6,0.6,1.2,1,1.8c1.4,2,2.8,4,4.2,5.9c0.4,0.5,1,0.8,1.4,1.2c0.2,0.2,0.2,0.5,0.3,0.8
		c-0.3,0-0.6,0.2-0.8,0c-0.4-0.2-0.7-0.5-1-0.9c-0.8-1.1-1.7-2.1-2.4-3.2c-1.1-1.7-2.2-3.4-3.3-5.2c-0.5-0.8-0.9-1.6-1.3-2.4
		c-0.1,0-0.2,0.1-0.3,0.1c0.1,0.3,0.1,0.6,0.2,0.9c1.6,2.9,2.9,6,5.3,8.4c0.7,0.8,1.2,1.8,1.8,2.9c-0.5,0.2-0.9,0.5-1.1-0.4
		c-0.1-0.6-0.5-1.2-1-1.7c-2-2-3.5-4.3-4.9-6.7c-0.9-1.8-1.7-3.6-2.5-5.5c0-0.1-0.1-0.2-0.2-0.3c-0.1,0-0.2,0-0.2,0
		c0,0.5-0.1,1,0,1.4c1.5,3.6,3.3,7,5.7,10c0.4,0.5,0.8,0.9,1.2,1.3c0.3,0.3,0.5,0.7,0.8,1c0,0.1-0.1,0.2-0.1,0.2
		c-0.4-0.1-0.9-0.2-1.2-0.4c-2.5-2-4.9-4.1-6.2-7.1c-0.4-0.8-0.7-1.5-1.6-1.9c-0.6-0.3-1-1.3-1.3-2.1c-0.4-0.8-0.8-1.1-1.6-0.7
		c-0.4,0.2-0.9,0.1-1.3,0c-2.6-0.8-5.1-1.6-7.7-2.6c-0.9-0.3-1.7-1-2.3-1.7c-1-1-2.1-2-3.7-1.7c-0.1,0-0.2,0-0.3-0.1
		c-1.8-1.1-3.9-1.1-5.9-1.5c-0.9-0.2-1.8-0.6-2.7-0.8c-1.1-0.3-2.2-0.5-3.4-0.7c-0.3-0.1-0.7-0.1-1-0.2c-4.2-1.6-8.7-2.3-13.1-3
		c-3.8-0.6-7.3-1.8-11-2.9c-1.9-0.6-3.9-1.2-5.7-2.1c-2.4-1.1-4.9-2.3-7.1-3.8c-1.9-1.3-4-2.4-5.9-3.7
		C53.4,109.3,50.2,107.7,46.9,106.2z M55.9,122.1c-0.9-0.4-1.8-0.8-2.6-1.3c-0.2-0.1-0.4-0.5-0.3-0.7c0.3-1,0.7-1.9,1.2-3.1
		c0.7,1.8,1.3,3.4,1.9,4.9C56.1,121.9,56,122,55.9,122.1z M63.3,127.3c-1.3-1.2-2.7-2.3-4.2-3.2c-1-0.7-1.5-1.6-2-2.6
		c-0.8-1.6-1.4-3.3-2.1-4.9c-0.1-0.2,0-0.4,0.1-0.6c0.6-0.8,1.3-1.6,1.9-2.5c0.3-0.4,0.5-0.5,0.9-0.2c0.7,0.4,1.5,0.8,2.1,1.3
		c2.1,1.8,4.5,3.1,7,4.2c1.5,0.6,2.3,1.6,2.9,3c0.7,1.8,1.4,3.6,2.1,5.4c0.8,2.4,2.4,4.1,4.7,5.2c3.1,1.4,6.2,2.9,9.4,4.4
		c0.9,0.4,1.9,0.6,2.8,0.8c1.6,0.5,3.1,1,4.7,1.4c0.2,0.1,0.4,0.2,0.6,0.2c2.9,0.6,5.8,1.1,8.7,1.7c0.7,0.1,1.3,0.1,2,0.2
		c0.2,0,0.6,0.3,0.6,0.5c-0.1,2.9-0.3,5.9-0.5,8.7c-2.7-0.4-5.2-0.7-7.8-1c-4.8-0.5-9.6-1-14.1-2.6c-2-0.7-4-1.4-6.1-2
		c-0.5-0.2-1.1-0.1-1.6-0.3c-2.8-0.7-5.6-1.5-8.4-2.3c-0.8-0.2-1.2-0.8-1.1-1.6c0.1-1.3,0.3-2.6,0.3-3.9c0-1.3-0.1-2.7-0.1-4
		C66,130.3,64.8,128.7,63.3,127.3z M57.7,157.3c0.5-1.2,1.6-1,2.5-1.4C59.8,157.2,59.1,157.5,57.7,157.3z M53,161.8
		c0.9,0,1.8,0,2.7,0c0.1,0,0.2,0.2,0.2,0.4c0,0.6,0,1.1,0,1.7c-0.1,0-0.2,0.1-0.3,0.1l-2.7-2C53,162,53,161.9,53,161.8z M43.2,160.7
		c0.3-0.4,0.6-0.9,0.9-1.2c0.2-0.2,0.6-0.2,0.8-0.1c0.8,0.2,1.5,0.6,2.2,0.8c1.3,0.3,1.8,1.2,2,2.4c0.2,1.3,0.3,2.6,0.5,3.9
		c-1.1-0.3-2.1-0.8-2.9-1.8C45.7,163.2,44.4,162,43.2,160.7z M53.1,174.3c-1.4-1.1-2.8-2.2-4.3-3.2c-1.2-0.9-2.4-1.6-3.7-2.5
		c-0.4-0.3-0.7-0.6-1-1c-0.1-0.1,0-0.5,0.2-0.6c0.9-0.4,1.7-0.9,2.7-0.4c0.7,0.3,1.5,0.4,2.2,0.7c0.9,0.4,0.9,1.3,1.1,2.1
		c0.2,0.6,0.4,1.3,0.7,1.9c0.1,0.2,0.5,0.3,0.8,0.4c0-0.3,0.2-0.6,0.1-0.8c-1-2.8-1.7-5.7-1.7-8.7c0-0.4-0.2-0.7-0.3-1.1
		c0.1,0,0.1-0.1,0.2-0.1c2,1.6,4.1,3.2,6.3,4.9c0.1-0.7,0.3-1.4,0.5-2.2c0.1-0.7,0.1-1.4,0.2-2c0-0.1,0.1-0.3,0.2-0.4
		c1.7-0.8,2.2-2.4,3-3.9c1-1.9,2.4-3.4,3.8-5c0.2-0.2,0.5-0.4,0.8-0.6c1.4-0.8,1.7-2.1,0.8-3.5c-0.2-0.4-0.5-0.7-0.8-1.1
		c-1-1.2-1.2-2.4-0.5-3.8c0.2-0.5,0.5-0.9,0.9-1.4c1.2,1.2,2.8,1.3,4.3,1.7c1.1,0.3,2.2,0.7,3.3,1c0.7,0.2,1.4,0.3,2,0.5
		c2.6,0.8,5.3,1.5,7.9,2.3c3.3,1.1,6.8,1.6,10.2,2.1c3.4,0.5,6.8,0.8,10.2,1.2c0.5,0.1,1,0.3,1.5,0.5c0,0.1,0,0.2,0,0.3
		c-0.3,0.1-0.6,0.3-0.9,0.4c-1.4,0.2-2.8,0.4-4.2,0.6c-0.3-1.4-0.5-1.4-2.1-1.6c-1.9-0.2-3.6-0.1-5.1,1.3c-0.2,0.2-0.6,0.4-1,0.4
		c-1.7,0.2-2.8,1.2-3.7,2.5c-0.5,0.7-1.2,1.2-2,1.2c-2.8,0.1-5.6,0.2-8.3-0.7c-0.4-0.1-0.6-0.5-1-0.7c-0.4-0.3-0.7-0.6-1.2-0.8
		c-2.5-0.7-4.8-1.6-6.9-3.2c-0.4-0.3-1-0.4-1.5-0.5c-0.1,0-0.4,0.2-0.5,0.3c0.1,0.1,0.2,0.3,0.3,0.4c1.5,0.9,2.9,1.7,4.4,2.5
		c0.9,0.5,1.9,0.8,2.9,1.1c0.4,0.1,0.8,0.3,1.2,0.4c-1.4,1.5-2.8,2.9-4.1,4.4c-0.6,0.7-1.1,1.6-1.6,2.5c-1,1.8-2.4,3.4-3.8,4.5
		c-1.4-0.5-2.8-0.9-4-1.6c-0.9-0.5-1.9-0.9-2.2-2.1c-0.1-0.2-0.4-0.4-0.6-0.6c-0.1,0.1-0.2,0.1-0.3,0.2c0.1,0.6,0.1,1.3,0.3,1.8
		c0.7,1.6,0.4,3.3,0.5,4.9c0.1,0.8-0.3,1.3-1,1.8c-1.3,1-2.5,2-3.8,3C54,174.6,53.6,174.7,53.1,174.3z M55.5,176.5
		c-0.3-0.3-0.6-0.6-1-1c1.4-1.1,2.6-2.2,3.9-3.1c0.8-0.6,1.7-1,2.6-1.3c3.1-0.8,6.1-1.6,9.2-2.3c2.4-0.5,4.7-0.9,7.1-1.4
		c0.1,0,0.1,0,0.3,0.1c-0.5,0.4-0.9,0.7-1.3,1c-2.8,2.3-5.7,4.6-8.5,6.9c-0.6,0.5-1.3,0.9-2.1,1.3c-1.4,0.7-2.8,1.5-4,2.6
		c-0.3,0.3-0.7,0.5-1.2,0.2c-1.3-0.7-2.7-1.3-4-1.9c-0.3-0.1-0.6-0.1-0.5-0.6C56.1,177,55.7,176.7,55.5,176.5z M60.1,166.4
		c0-0.2,0.1-0.5,0.1-0.9c1.3,0.6,2.5,1.1,3.7,1.7c0.2,0.1,0.3,0.2,0.5,0.4c0.7,0.7,1,0.7,1.6,0c0.8-0.8,1.5-1.5,2.2-2.3
		c0.5-0.5,0.9-0.4,1.5-0.2c1.6,0.5,3.2,1.1,4.9,1.5c0.4,0.1,0.8,0.1,1.2,0.1c0,0.1,0,0.1,0,0.2c-0.5,0.1-1,0.2-1.6,0.3
		c-1.3,0.2-2.6,0.3-3.8,0.6c-3,0.7-6.1,1.4-9.1,2.2c-1.2,0.3-1.3,0.2-1.2-1C60.1,168.2,60.1,167.3,60.1,166.4z M77.6,166.3
		c-1.3-0.4-2.7-0.4-4-0.8c-1.5-0.4-3-1-4.4-1.6c1-2.3,2.5-4.1,4.2-5.8c2.4-2.4,1.6-1.9,4.7-1.1c1.5,0.4,3.1,0.4,4.6,0.5
		c0.8,0.1,1.6,0,2.6,0c-0.5,0.7-0.9,1.1-1.3,1.7c-1.6,2.2-3.3,4.4-4.9,6.6C78.7,166.4,78.4,166.6,77.6,166.3z M54.6,191.5
		c-1.5-1.2-3-2.2-4.6-3.3c-0.3-0.2-0.7-0.5-1-0.7l0.3-0.4c0.6,0.2,1.2,0.3,1.8,0.5c2.1,0.6,3.8,1.9,5.5,3.1c1.9,1.3,3.8,2.5,5.8,3.7
		c0.4,0.2,0.8,0.4,1.4,0.6C60.2,194.9,57.3,193.6,54.6,191.5z M105.3,168.4c0.8,0.2,1.6,0.6,2.3,0.9c4.5,1.7,8.5,4.2,12.6,6.7
		c2.8,1.7,5,3.9,6.4,6.9c1,2.2,2.1,4.4,2.9,6.7c0.6,1.5,0.8,3.2,1,4.8c0.2,1.1-0.9,1.1-1.5,1.2c-1.4,0.3-2.9,0.4-4.3,0.6
		c-2.2,0.3-4.3,0.7-6.5,1c-1.1,0.2-2.2,0.2-3.3,0.3c-3,0.4-5.9,0.9-8.9,1.1c-3.5,0.2-7.1,0.1-10.6,0.1c-0.6,0-1.2-0.1-1.9-0.1
		c-5.9-0.2-11.8-0.4-17.7-1.4c-3.4-0.6-6.8-1.5-10.2-2.3c-0.2,0-0.4-0.1-0.6-0.2c1.2-0.9,2.4-1.7,3.5-2.7c3.1-2.8,6.3-5.6,8.9-8.8
		c0.1-0.1,0.2-0.2,0.3-0.4c1.6-2.3,3.3-4.6,4.9-6.9c0.8-1.2,1.8-2.2,2.7-3.4c0.3-0.5,0.5-1,0.9-1.5c0.6-0.8,1.3-1.5,2-2.2
		c0,0,0.1-0.1,0.1-0.1c0.8-1.7,2.3-1.5,3.8-1.4c1.6,0.1,3.2,0,4.8,0c1.7,0,3.3,0,5,0.1c0.4,0,0.7,0.3,1.1,0.4
		C103.9,168.2,104.6,168.2,105.3,168.4z M100.7,163.6c-0.6-0.2-1.2-0.2-1.8-0.2c-0.3,0-0.6,0.1-0.9,0.2c0,0.1,0,0.2-0.1,0.3
		c0.3,0.1,0.5,0.3,0.8,0.3c2.6,0.2,5.2,0.5,7.8,0.7c0.2,0,0.4,0.2,0.6,0.3c-0.1,0.2-0.2,0.4-0.4,0.5c-0.9,0.7-2,1-3.1,1
		c-2,0-3.9,0-5.9,0c-1.2,0-2.4,0.2-3.6,0.2c-1.5,0-3.1-0.2-4.5-0.3c-0.4-0.4-0.8-0.9-1.3-1.3c-0.1-0.1-0.3,0-0.4,0
		c0,0.2-0.1,0.4,0,0.5c1.3,1.2,0.4,2.1-0.4,3.1c-2,2.6-4,5.2-6,7.9c-2.4,3.1-4.7,6.3-7.3,9.1c-2.3,2.5-5,4.7-7.7,6.9
		c-1.2,1-2.7,1.5-4.3,0.4c-2-1.4-4.2-2.7-6.3-4.1c-2.1-1.4-4.3-2.4-6.8-2.8c-0.6-0.1-1.2-0.4-1.9-0.7c0.3-0.4,0.4-0.7,0.6-0.9
		c2.2-2.2,4.3-4.3,6.5-6.4c0.2-0.2,0.5-0.3,0.7-0.2c1.9,0.8,3.7,1.8,5.6,2.6c0.3,0.1,0.8,0.1,1-0.1c2.3-2.3,5.5-3.2,7.9-5.3
		c2.9-2.5,6.1-4.8,8.9-7.4c1.6-1.4,2.6-3.4,3.9-5.1c1.2-1.5,2.4-3.1,3.6-4.6c0.8-1,1.8-2,2.6-3.1c0.7-0.8,1.5-1.3,2.6-1.5
		c0.7-0.2,1.4-0.5,1.9-0.9c1.5-1.2,3.2-1,4.9-0.7c0.2,0,0.4,0.4,0.6,0.6c-0.2,0.2-0.4,0.4-0.7,0.5c-2,0.7-4,1.2-5.9,1.9
		c-0.6,0.2-1.1,0.6-1.7,0.9c0.5,0.7,0.9,0.6,1.4,0.2c0.2-0.2,0.3-0.4,0.6-0.4c1.6-0.6,3.1-1.1,4.7-1.6c0.4-0.1,1,0,1.5-0.1
		c0.2,0,0.5-0.1,0.7-0.2c1.3-0.6,2.7-0.9,4.1-1c0.9-0.1,1.7-0.4,2.5-0.6c0.3-0.1,0.6-0.1,1.1-0.2c-0.2,0.3-0.2,0.4-0.5,0.7
		c0.6-0.1,1.1-0.2,1.6-0.2c0,0,0.1,0.1,0.1,0.1c-0.2,0.2-0.5,0.4-0.7,0.5c-2.8,1-5.6,2-8.4,3.1c-0.5,0.2-1,0.3-1.6,0.5
		c0.4,0.8,0.9,0.6,1.4,0.4c2.7-1,5.3-2.1,8-3.1c0.7-0.3,1.5-0.5,2.2-0.7c0.1,0,0.3-0.1,0.4-0.1c0.6,0,1.3,0,1.3,0.7
		c0,0.4-0.5,1-0.9,1.2c-0.9,0.4-1.9,0.6-2.8,1c-2.1,1-4.1,2-6.1,3c-0.3,0.2-0.7,0.3-1,0.5c-0.2,0.1-0.3,0.3-0.5,0.5
		c0.2,0.2,0.4,0.4,0.6,0.5c2.3,1.2,4.8,0.6,7.2,0.9c0.6,0.1,1.3,0,1.9,0.1c0.6,0,1,0.3,1,1.1c-0.5,0.2-1.1,0.4-1.7,0.6
		C106,164.1,103.4,164.4,100.7,163.6z M108.6,163.9c1.2-0.2,2.2-0.4,3.2-0.5c0.4-0.1,0.8,0,1.1-0.1c0.9-0.4,1.3,0,1.6,0.7
		C113.3,164.8,109.5,164.8,108.6,163.9z M118.6,164.4c-0.7,0-1.5-0.1-2.2-0.3c-0.6-0.2-1.1-0.5-1.7-0.8c0-0.1,0.1-0.3,0.1-0.3h5.1
		C119.9,164,119.8,164.5,118.6,164.4z M120.4,164.3c0.2-0.5,0.3-0.9,0.5-1.4c0-0.1,0.1-0.1,0.2-0.1c0.7-0.1,1.3-0.1,2-0.2
		C122.8,164.1,122.3,164.4,120.4,164.3z M125.9,161.4c0.2,1.9-0.6,2.7-2.6,2.7c0.1-0.3,0.3-0.5,0.3-0.7
		C123.4,161.7,124.9,161.8,125.9,161.4z M133.4,173.9c0,0.2-0.4,0.6-0.7,0.7c-1.9,0.4-3.8,0.3-5.7-0.1c-0.2,0-0.5-0.1-0.7-0.1
		c-1.2,0-1.2,0-1-1.2c0.1-0.5,0.1-1.2,0.4-1.3c0.3-0.2,0.9,0.2,1.4,0.2c2,0.1,4.1,0.5,6-0.6c0.1,0,0.2,0.1,0.3,0.1
		C133.4,172.3,133.5,173.1,133.4,173.9z M134.3,167.8c-0.1,0.7,0.1,1.7-0.3,2.1c-0.7,0.7-1.8,1.2-2.8,1.4c-1.2,0.2-2.4,0.1-3.6,0
		c-1.6,0-2.5-1.1-3.1-2.4c-0.5-1.1-0.7-2.3-1-3.5c-0.1-0.2,0.1-0.7,0.2-0.7c0.5,0,1-0.3,1.3,0.4c0.3,0.7,0.8,1.3,1.3,1.9
		c0.7,0.9,1.9,0.9,2.9,1c2.1,0.2,3.5-0.7,4.3-2.6c0.1-0.2,0.3-0.4,0.4-0.6c0.1,0,0.2,0,0.3,0c0.1,0.7,0.2,1.5,0.2,2.2
		C134.4,167.4,134.3,167.6,134.3,167.8z"/>
	<path class="st0" d="M59.8,148.2c-0.1,0.3-0.1,0.6-0.3,0.8c-1.1,1.1-2.4,1.8-3.9,2.3c-0.2,0.1-0.5-0.1-0.8-0.3
		c1.9-0.6,3.5-1.5,4.8-2.9C59.6,148.1,59.7,148.2,59.8,148.2z"/>
	<path class="st0" d="M57.6,147.8c0.2-0.1,0.4-0.3,0.6-0.4c0.7-0.6,1.5-1.2,2.2-1.8c0.4-0.3,0.8-0.5,1.3-0.7
		c0.1-0.1,0.5,0.1,0.5,0.2c0.1,0.1-0.1,0.5-0.2,0.5c-1.3,0.8-2.7,1.6-4,2.3c-0.1,0-0.2,0-0.2,0C57.7,148,57.6,147.9,57.6,147.8z"/>
	<path class="st0" d="M116.5,181.8c0-1.1,0.2-2.2,1.1-3.1c0.8-0.8,1.5-0.6,1.8,0.5c0.3,1.2,0.2,2.4-0.2,3.6
		c-0.2,0.7-0.5,1.3-1.3,1.3c-0.6,0-1.3-0.8-1.4-1.6C116.5,182.3,116.5,182.1,116.5,181.8z"/>
	<path class="st0" d="M70.1,58.6c-0.2,0.3-0.2,0.6-0.4,0.7c-0.2,0.1-0.5-0.1-0.6-0.2c-1-1.8-2.8-1.8-4.5-2.1
		c-0.3-0.1-0.5-0.4-0.8-0.6c0.3-0.2,0.5-0.4,0.8-0.5c1.6-0.2,3.2,0,4.5,1.1C69.6,57.4,69.8,58.1,70.1,58.6z"/>
	<path class="st0" d="M63.1,59.3c1.5,0.7,3.2,0.9,4.2,2.4c-1.8,0.6-4.2-0.1-4.5-1.7c-0.1-0.6-0.1-1,0.7-1.2c1.3-0.3,2.6-0.3,3.6,0.7
		c0.1,0.1,0.2,0.3,0.2,0.5C66,58.9,64.7,58.5,63.1,59.3z"/>
	<path class="st0" d="M45.9,62.3c-0.3-0.5-0.8-0.8-0.7-0.9c0.1-0.3,0.5-0.6,0.8-0.7c0.1,0,0.6,0.4,0.6,0.6
		C46.6,61.6,46.3,61.9,45.9,62.3z"/>
</g>
</svg>
