<?xml version="1.0" encoding="utf-8"?>
<!-- Generator: Adobe Illustrator 18.1.1, SVG Export Plug-In . SVG Version: 6.00 Build 0)  -->
<!DOCTYPE svg PUBLIC "-//W3C//DTD SVG 1.1//EN" "http://www.w3.org/Graphics/SVG/1.1/DTD/svg11.dtd">
<svg version="1.1" id="Layer_1" xmlns="http://www.w3.org/2000/svg" xmlns:xlink="http://www.w3.org/1999/xlink" x="0px" y="0px"
	 viewBox="0 0 150 274" style="enable-background:new 0 0 150 274;" xml:space="preserve">
<style type="text/css">
	.st0{fill:#8BC34A;}
</style>
<g id="poisonivy-girl">
	<path class="st0" d="M42.2,164c-1.6-4.4-2.8-7.9-4.1-11.5c-1.4-3.8-4.6-4.5-8.1-4.8c-1.7-0.2-3.5-0.5-5.2-0.5
		c-5.1,0.2-8.9-2.3-12.4-5.6c-0.2-0.1-0.3-0.3-0.5-0.4c-2.2-1-4.4-2-6.6-3c-0.7,2.2-1.7,4.3-2.1,6.6c-2.6,15.7,1.3,30.6,6.1,45.4
		c3.1,9.6,5.7,19.5,7.1,29.5c1,7.3,0,14.9-0.6,22.4c-0.7,8.5-1.9,17-3,25.5c-0.1,1-1.1,1.9-1.7,2.8c-0.3-1-1.1-2-1-2.9
		c1-8.7,2.1-17.4,3.1-26.1c1.4-11.9,1.7-23.8-1.9-35.5c-3.4-10.9-6.3-21.9-9.1-32.9c-2.6-10.2-3.5-20.6-0.7-31
		c0.8-3.1,0.3-6.6,0.2-9.9c-0.1-2.6,0.9-4.6,3.6-4.9c2.5-0.3,2.6-1.7,2.2-3.7c-1.5-7.1-0.5-9.6,6.4-11c4.8-1,9-3.4,12.7-6.7
		c2.8-2.5,3.3-5.9,4.1-9.3c2.6-10.4,6.1-20.7,8-31.3c1.8-10.3,4.4-20.2,8-30c3.6-9.8,9.5-18.2,16.4-26c3.4-3.9,7.6-6.3,12.8-6.9
		C81.8,1.5,87.6-0.2,93.3,0c10.1,0.4,19.1,3.5,25.3,12.8c4.3,6.4,6.5,13.1,7.6,20.4c0.8,5.1,1.8,10.3,1.9,15.4
		c0.2,7.1-0.3,14.3-0.5,21.4c-0.4,9.2-4,17.3-8.6,25c-2.4,3.9-5.7,7.2-8.5,10.6c6.7,2.4,12.9,4.5,19,6.7c8.3,3,11.5,9.8,12.4,17.8
		c1.3,11.4,2.1,22.8,3.3,34.2c1.2,11.8,2.6,23.5,4,35.3c0.9,7.6,1.3,15.1-0.7,22.5c-1.2,4.4-5.8,8-10.3,7.5
		c-8.8-0.9-16.8-3.8-22.6-11.1c-1.5-1.9-2.6-1.5-3.3,0.3c-1.4,3.8-2.5,7.7-3.6,11.6c-0.4,1.3-0.1,3-0.8,4.1c-2.3,3.8-1.8,7.9-1.8,12
		c0,7.4,0,14.7,0,22.1c0,1.2-0.1,2.4-0.3,3.5c-0.1,0.6-0.6,1.2-1,1.7c-0.4-0.6-1.2-1.2-1.2-1.9c-0.1-3.5-0.1-6.9-0.1-11.1
		c-1.4,0.9-2.4,1.4-3.2,2.1c-8.2,6.9-17.8,9.4-28.3,9.2c-5.3-0.1-9.8-1.7-14.5-3.9c-3.8-1.8-8.3-2.2-12.5-3.5
		c-3.8-1.1-7.4-2.4-11.2-3.7c0.1-0.4,0.2-0.8,0.3-1.2c0.6,0.1,1.2,0,1.7,0.2c3.7,1.1,7.4,2.3,11.1,3.5c5,1.7,10,3.5,15,5.1
		c12.1,3.8,23.4,2.3,34.4-4.5c6.6-4.1,8.3-9.7,7.9-16.8c-0.6-11,3.7-21,6.6-31.3c0.4-1.5,0.3-3.7-0.5-5c-1.8-2.7-4-5.1-6.3-7.4
		c-0.7-0.7-2.1-0.8-3.2-0.7c-2.9,0.2-5.8,0.9-8.7,1.1c-1.7,0.1-2.5,0.7-2.2,2.4c0.6,3.5,0.9,7.1,2,10.5c2.5,7.3,2.7,14.9,2.5,22.5
		c-0.2,5.4-4.8,9.5-10.2,9.8c-5.6,0.3-10.3-1.7-15.3-4.1c-12.1-5.8-21.7-14.4-30-24.5c-7-8.5-12.6-18.1-18.8-27.2
		c-3-4.4-5.8-8.9-8.9-13.1c-3.6-4.9-2.4-11.2,3.5-13.1c5.6-1.9,11.5-2.5,17.4-3.3C35.2,163.6,38.4,164,42.2,164z M43.1,142
		c0.2,0.4,0.4,0.7,0.6,1.1c-0.8,0.6-1.6,1.4-2.5,1.9c-2.4,1.1-2.7,2.6-1.4,4.9c1,1.8,1.7,3.7,2.5,5.6c2.3,6.3,4.6,12.5,5.7,19.3
		c1.1,7,2.1,14,1.2,21c-1.2,10.1,0.1,19.2,6.6,27.2c0.7,0.8,0.8,2,1.2,3.1c-0.3,0.1-0.6,0.2-0.9,0.3c-5.3-7.3-9.9-14.5-9.5-24.4
		C47,192,46.1,182,45.6,172c-0.1-2.5-0.4-6-3.4-5.8c-8.8,0.5-17.6,1.4-26.3,2.8c-3.4,0.5-5,4.4-4,7.7c0.5,1.7,1.3,3.4,2.3,4.9
		c6.1,9.2,11.9,18.7,18.5,27.5c5.5,7.3,12,13.9,18,20.9c7.4,8.6,17.3,13.3,27.6,16.9c8,2.9,13.7-1.2,14.2-9.1
		c0.5-6.9,0.3-13.8-2.4-20.5c-1.1-2.7-1.8-5.9-1.7-8.8c0.2-4.1-0.6-7.4-3.8-10.2c-0.9-0.8-1.7-2.4-1.6-3.6c0.6-5.1,0.1-6.7-4.3-9.1
		c-2.3-1.3-2.6-2.5-1.2-4.6c1.6-2.3,0.7-4-2.2-4.2c-0.4,0-0.9,0.1-1.3-0.1c-1.2-0.6-3.1-1.1-3.3-1.9c-0.3-1,0.7-2.6,1.4-3.7
		c0.4-0.7,1.3-1,2-1.5c-2.6-0.3-5.5,1.5-6.9-1.6c-0.6-1.5-0.2-4.1,0.7-5.3c2.6-3.3,1.5-6.1,0-9.2c-2.4-5-4.8-9.9-6.8-15.1
		c-1.6-4.1-1.9-8.8-4-12.5c-2.3-4.1-3.5-8.2-4.7-12.6c-1.4-5.1-3.5-6.1-8.8-4.5c0.4,1.7,0.8,3.3,1.2,5c-0.5,0.2-1,0.3-1.5,0.5
		c-0.8-1.9-1.6-3.7-2.3-5.6c-0.9-2.4-2.9-1.7-4.4-1.4c-1.8,0.4-1.8,1.8-0.9,3.3c0.6,1,1,2.2,1.7,3.7c-3.5-0.1-3.7-2.7-4.4-4.5
		c-0.8-1.9-2-2.7-3.7-2.1c-2.2,0.8-4.2,2.1-6.5,3.4c2.5,1.9,4.4,3.4,6.2,4.8c-0.3,0.4-0.5,0.7-0.8,1.1c-0.9-0.4-1.9-0.6-2.6-1.2
		c-4.3-3.7-8.7-2.9-13.3-0.7c-1.8,0.9-3.1,2-2.6,4.3c0.5,2.4,2.5,2.2,4.1,2c3.9-0.5,7,1.2,8.7,4.4c1,1.9,0.8,4.5,1.1,6.7
		c-2,0.3-4,1.1-5.8,0.7c-3.2-0.8-6.2-2.4-9.3-3.5c-1.5-0.5-3.6-1.4-4.3,1c-0.6,2.1-0.1,4,2.5,4.8c2.1,0.7,4.1,1.9,5.8,3.2
		c3.9,3.1,7.9,5.6,13,6c2.4,0.2,4.8,0.2,7.1,0.7c3.2,0.7,5.7,0.1,7.9-2.3C41.2,142.7,42.2,142.4,43.1,142z M52,67.4
		c1.1,5.5,2.2,10.9,3.3,16.4c1.6,8.1,5.3,14.9,11.7,20.3c5.6,4.7,11.8,4.2,17.9,1.9c5.2-2,9.6-5.4,12.5-10.3c3.7-6.2,8-12,11.1-18.4
		c1.9-4,4.2-8.5,2-13.3c-1.8-4-4-7.8-5.9-11.8c-2.4-5-3.9-9.9-0.4-15.2c4.1-6.3,4.7-13.6,5-20.8c0-0.6,0.1-1.4-0.2-1.9
		c-0.5-0.7-1.3-1.3-2-1.9c-0.6,0.7-1.3,1.3-1.6,2.1c-0.3,0.8,0.1,1.7-0.1,2.6c-1.2,5.5-2.2,11.2-3.9,16.6c-1.1,3.5-2.6,3.7-6.3,3
		c-4.9-0.9-9.8-1.6-14.6,0.3c-3.1,1.2-6.2,2.6-9.3,3.6C60.3,44,51.4,55,52,67.4z M72.7,175.2c2-0.1,3.5-0.2,5-0.3
		c5.5-0.2,11.1-0.4,16.6-0.6c1.9-0.1,3.9,0.2,4,2.7c0,2.6-1.9,2.6-3.9,2.7c-4.1,0.2-8.2,0.7-12.2,1.2c-1.2,0.1-2.2,0.9-3.3,1.3
		c0,0.4-0.1,0.8-0.1,1.2c2.5,0.9,5,2.2,7.6,2.7c2.4,0.4,5-0.2,7.5,0.1c1.5,0.2,4,1.2,4.1,2.2c0.3,1.9-0.2,4.4-1.3,6
		c-0.6,0.9-3,0.9-4.6,1c-1.6,0-3.1-0.6-4.7-0.7c-0.4,0-1.3,1.7-1,2.1c2.8,5,7.2,6.4,12.7,4.3c1-0.4,2-0.9,3.1-1
		c0.7-0.1,1.8,0.1,2.2,0.6c3.1,3.5,6.6,6.8,8.8,10.8c5,9.2,13,13.2,22.5,15.5c4.4,1.1,9.5-1.2,10.6-4.8c0.7-2.2,1.4-4.7,1.3-7
		c-0.5-8.5-1-17.1-2.1-25.6c-1.4-11.1-3.3-22.1-4.9-33.1c-0.6-3.8-0.8-7.7-1.3-12.1c-5.6,1.9-10.4,4.4-14.4,8.2
		c-0.8,0.7-1.5,2.1-1.5,3.1c0,5-0.2,10,0.4,14.9c0.5,4.2,2.2,8.3,3.1,12.5c1.2,5.5,1.4,5.8,6.9,6.2c3.4,0.3,5.8,1.8,7.4,5.4
		c-1.3,0-2.9,0.4-3.2-0.1c-1.9-2.8-4.8-2.6-7.5-2.9c-4.7-0.5-8.7-2.5-12.3-5.5c-2.2-1.9-4.4-4.2-7-5.2c-5.1-2.1-6.4-6.3-7.8-11
		c-1-3.4-3-7.4-5.8-9.4c-6.5-4.5-13.7-6.3-21-1.1c-1.1,0.8-2.6,1.1-3.8,1.9c-1.8,1.3-4.1,2.6-3.6,6.2c2.3-0.6,4.4-1.3,6.5-1.8
		c4.6-1.1,9.1-2.4,13.8-3.2c1.1-0.2,2.4,1.4,3.6,2.2c-1.2,0.7-2.2,1.7-3.5,2.1c-2,0.6-4.2,0.8-6.3,1.3c-1.6,0.4-3.1,1.1-4.6,1.3
		C75.8,170.2,74,171.8,72.7,175.2z M70.3,152c3.5,0.4,6.3,0.7,9.1,1.1c1.3,0.2,2.5,1,3.9,1.2c2.6,0.3,5.3-0.1,7.7,0.7
		c3.6,1.2,7.4,2.7,10.1,5.1c2.2,2,3.2,5.5,4.6,8.3c0.7,1.4,1.6,1.8,2.7,0.6c2.6-3,4.6-6.3,4.2-10.5c-0.7-6.4-1.4-12.8-2.5-19.2
		c-1.1-6.3-2.6-12.6-4.2-18.9c-1-4-3.7-5.7-7.8-5.4c-1.9,0.1-3.8-0.4-6.4-0.7c-0.9,2.7-1.9,6-3,9.2c-1.6-6.1,3.5-11,3.2-17.5
		c-1.8,0.9-2.9,1.5-4.1,2.1c-7.7,3.9-15.1,3.3-22.1-1.7c-1.1-0.8-1.9-2.1-3-3c-0.6-0.5-1.6-0.6-2.3-0.6c-0.2,0-0.5,1.1-0.6,1.8
		c-0.7,2.9-0.8,6.3-2.3,8.7c-2.2,3.6-1.3,6.5,0.4,9.7c1.4,2.8,3.3,5.5,3.9,8.4C63.4,139.2,66.5,146.2,70.3,152z M124.8,187.5
		c-0.4-1.9-0.6-3.1-0.9-4.2c-0.8-2.4-2.2-4.7-2.3-7.1c-0.6-7.6-0.8-15.3-0.8-23c0-1.3,1.6-3.1,2.9-3.9c3.6-2.4,7.5-4.3,11.2-6.5
		c2.4-1.4,4.5-3,4.1-6.3c-0.3-2.7,0.2-5.4-0.3-8.1c-0.8-4.8-2.7-9-7.1-11.8c-6.5-4.1-13.5-6.6-21-8c-2.5-0.5-4,0.7-3.9,3.3
		c0,1.1,0.2,2.2,0.5,3.2c1.2,4.1,2.8,8.1,3.5,12.3c1.4,7.9,1.8,16.1,3.6,23.9c1.7,7.7,1.7,14.5-4.5,20.3c-2.5,2.4-1.5,4.4,0.8,6.1
		c3.7,2.8,7.5,5.6,11.2,8.3C122.5,186.6,123.3,186.8,124.8,187.5z M19.1,131.9c2.5-0.5,3.3-1.9,2.3-4.2c-1.3-2.7-6.1-4.9-8.9-3.9
		c-0.9,0.3-1.8,1.2-2.2,2.1c-0.2,0.5,0.3,1.8,0.8,2.1C13.7,129.4,16.4,130.6,19.1,131.9z M92.4,193.7c1.1-0.5,2.2-1,3.4-1.6
		c-0.5-1-0.7-2.6-1.4-2.8c-2.3-0.7-4.8-1-7.2-1.1c-0.7,0-1.8,1.1-2.2,1.9c-0.2,0.3,0.9,1.6,1.6,1.9
		C88.3,192.7,90.2,193.1,92.4,193.7z M95.7,177.8c-0.1-0.3-0.1-0.7-0.2-1c-5.2,0-10.3,0-15.5,0c0.3,1.2,0.9,2.2,1.4,2.1
		C86.2,178.6,90.9,178.2,95.7,177.8z M78.7,156.5c-0.1-0.4-0.1-0.7-0.2-1.1c-2,0-4.1-0.2-6.1,0.2c-0.5,0.1-0.5,2.1-1,4.3
		C74.6,158.4,76.7,157.4,78.7,156.5z M76.4,167.2c0.1,0.4,0.2,0.8,0.3,1.2c4.1-1,8.3-2,12.4-3.1c-0.1-0.4-0.2-0.9-0.3-1.3
		C84.6,165.1,80.5,166.2,76.4,167.2z"/>
	<path class="st0" d="M85.2,95.7c-7.1,7-13.7,5.9-19.4-2.9C71.8,89.5,80.4,90.7,85.2,95.7z M70,95.7c3.1,4,7.1,4.4,10.9,1.2
		C77.3,96.5,73.8,96.1,70,95.7z M80.7,95.2c0-0.6,0.1-1.1,0.1-1.7c-3.7-0.4-7.5-0.8-11.2-1.2c-0.1,0.5-0.1,0.9-0.2,1.4
		C73.2,94.2,76.9,94.7,80.7,95.2z"/>
	<path class="st0" d="M86.3,63.9c-4.8,5.2-3.8,11-2.4,16.9c0.6,2.6-0.5,4.2-2.8,5.1c-2.3,1-6.5,0.2-7.6-1.3
		c-1.1-1.5-0.3-2.9,2.5-3.9c-0.7,1-1.2,1.7-2.4,3.4c2.8,0.2,5.1,1,6.9,0.4c2.7-1,2.2-3.7,1.6-5.9c-1.3-4.7-1.6-9.2,1.6-13.3
		c0.5-0.7,0.9-1.4,1.4-2.1C85.4,63.4,85.8,63.7,86.3,63.9z"/>
	<path class="st0" d="M103.1,69.4c-1,1.2-1.7,2.7-2.8,3.3c-3.1,1.5-7.8-0.5-10.5-5c1.9,1,3.7,2.7,5.7,3
		C97.7,70.9,100.1,69.9,103.1,69.4z"/>
	<path class="st0" d="M62.3,61.8c3.5,4.8,7.6,3.9,12.3,0.9c-0.3,3.6-2.8,3.8-4.8,4.1C65.5,67.5,63.4,66.1,62.3,61.8z"/>
	<path class="st0" d="M91.1,62.9c4.2-0.5,8.3-0.9,13.1-1.5C101.7,64.3,95.5,65.1,91.1,62.9z"/>
	<path class="st0" d="M75.4,59.5c-4.3,0.9-8.1-0.6-11.9-2.3c0.1-0.4,0.1-0.8,0.2-1.1c3.9,0.9,7.8,1.7,11.8,2.6
		C75.4,58.9,75.4,59.2,75.4,59.5z"/>
</g>
</svg>
