<?xml version="1.0" encoding="utf-8"?>
<!-- Generator: Adobe Illustrator 19.2.1, SVG Export Plug-In . SVG Version: 6.00 Build 0)  -->
<svg version="1.1" id="Layer_1" xmlns="http://www.w3.org/2000/svg" xmlns:xlink="http://www.w3.org/1999/xlink" x="0px" y="0px"
	 viewBox="0 0 200 295.6" style="enable-background:new 0 0 200 295.6;" xml:space="preserve">
<style type="text/css">
	.st0{fill:#8BC34A;}
</style>
<g id="poisonivy-girl2">
	<path class="st0" d="M118.7,227.8c2.4-2.1,4.5-3.9,6.6-5.8c1.5-1.4,3.2-2.2,5.3-2.2c1.2,0,2.4-0.2,3.6-0.3c3.9-0.4,6.8,1.6,10,3.4
		c3.1,1.8,6.5,2.6,10,3c5.2,0.5,9.9-1.7,14.9-2.7c4-0.8,8-1.2,12-1.8c1.6-0.2,3,0.4,4,1.6c2,2.5,5,3,7.7,4.1c3,1.2,5.9,2.4,7,6
		c0.5,1.8,0.3,3.3-1.2,4.5c-0.9,0.7-1.4,1.4-1.1,2.7c0.4,1.7-0.2,3.1-1.8,4.1c-0.7,0.4-1.3,1.2-1.6,2c-0.7,2-2,3.1-4.1,3.2
		c-0.2,0-0.4,0-0.6,0.1c-3,1.8-6.1,0.8-9.2,0.3c-2.2-0.4-4.5-0.2-6.6-0.8c-3.9-0.9-7.8-0.2-11.7-0.6c-7.2-0.7-14.3,0.9-21.5,1
		c-5,0.1-9.9,0.6-14.9,0.9c-0.9,0.1-1.9,0.2-2.8,0.4c-1.7,0.4-2.3,2-1.5,4.6c1.2,3.8,2.5,7.6,4,11.3c1.4,3.6,2.2,7.3,2.5,11.2
		c0.2,2.9,0.1,5.8,0,8.7c0,0.8-0.7,1.9-1.3,2.4c-1.4,1.1-2.9,2.4-5.1,1.5c-0.3-0.1-1.1,0.4-1.3,0.8c-0.9,1.6-2.2,1.7-3.6,1.1
		c-1.4-0.6-2.5-0.6-3.7,0.7c-1.4,1.6-3.4,1.1-4.9,0.4c-1.2-0.5-2.1-0.2-3,0.4c-3,1.9-5.3,1.4-7.3-1.6c-0.6-0.9-1.5-0.9-2.1,0
		c-1.7,2.7-4.1,3.7-7.2,3c-1.3-0.3-2.7-0.4-3.8-1.1c-3.1-1.9-2.6-5-1.9-7.7c1.4-5.4,3.3-10.7,4.8-16.1c1-3.5,1.5-7.1,2.3-10.7
		c0.1-0.6,0.4-1.2,0.4-1.8c0-0.7,0.1-1.6-0.3-1.9c-0.4-0.4-1.4-0.6-2-0.3c-6.8,2.6-14,3.1-21,4.6c-3.8,0.8-7.6,1.6-11.5,1.8
		c-4.4,0.3-8.9-0.1-13.4-0.2c-1.2,0-2.4,0-3.6-0.1c-5.6-0.2-11-1.2-16.1-3.6c-1.8-0.9-3.7-1.2-5.5-1.9c-2.8-1-5.5-2.3-7.2-5.1
		c-2.1-3.4-4.5-6.6-6.7-9.9c-1.9-2.8-2.8-5.8-2.1-9.3c0.3-1.8,0.2-3.6,0.4-5.5c0.4-3.7,2.3-6.8,4.6-9.5c2.2-2.6,4.7-4.8,7.1-7.3
		c0.4-0.4,0.7-0.9,0.8-1.4c1.5-6.1,3.5-12,7-17.3c1.5-2.3,2.8-4.7,4.1-7.1c0.2-0.3,0.1-0.9,0-1.3c-1.2-4.2-2.4-8.5-3.8-12.7
		c-0.3-1,0.3-2.6-1.5-2.9c-0.1,0,0-0.3-0.1-0.4c-0.6-2.8-1.3-5.5-1.9-8.3c-0.6-2.8-1.1-5.7-1.6-8.5c-0.4-2-0.8-4-1-6
		c-0.4-3.3-0.8-6.7-1.2-10c-0.4-3.1-0.8-6.3-1.4-9.4c-1.2-6.9-3.3-13.7-2.7-20.8c0.3-3.1-0.3-6.4,1.9-9c2-2.3,4-4.5,6.2-6.5
		c3-2.8,6.3-5.3,9.4-8c0.4-0.4,0.7-1.2,0.7-1.8c0.1-2.5,0-5.1,0-7.6c0.2-5.9,0.1-11.8,0.7-17.6c0.4-3.8,1.2-7.7,3.7-10.8
		c1.6-2,3.6-3.6,5.5-5.3c0.8-0.8,1.7-1.6,2.6-2.3c1.8-1.4,3.8-2.3,6.2-1.9c0.4-2.1,0.6-4.1,1.2-6c0.7-2.3,1.6-4.6,2.5-6.8
		c1.3-3,2.4-6.1,4.1-8.8c2.3-3.6,5.6-6.1,9.7-7.5c4-1.3,8-2.6,12.1-3.5c2.1-0.4,4.3,0,6.5,0.1c0.5,0,1,0.2,1.5,0.2
		c1.6,0,3.2,0.2,4.8,0c4-0.5,7.5,1.1,10.9,2.6c2.5,1.1,5,2.3,7.3,3.7c3,2,4.9,5.1,5.8,8.4c1.2,4.4,1.8,8.9,2.6,13.4
		c0.6,3.4,1.1,6.7,1.5,10.1c0.2,1.3,0.1,2.7,0.1,4.1c0,1.4,0,2.9,0,4.3c0.1,1.6,0.3,3.1,0.3,4.7c0,6.1,0,12.2,0,17.9
		c3.1,1.4,5.8,2.5,8.4,3.9c3.4,1.9,5.3,5,7.2,8.2c3.4,5.8,5.1,12.1,6.4,18.5c0.4,2,0.6,4,0.7,6c0.3,4.6,1.5,8.9,3.5,13.1
		c2.3,4.7,4.2,9.5,6.4,14.3c1.7,3.6,3.6,7.1,5.3,10.7c2.2,4.5,2.5,9.3,1.2,14.1c-0.8,3-1.8,6-2.5,9.1c-1,4.8-3.9,8-7.9,10.4
		c-1.9,1.1-4.2,1.7-6.4,2.3c-1.6,0.4-1.6,1.8-1.5,2.7c0.7,4.4-0.5,8.5-1.2,12.7c-0.9,5.2-2.9,10.1-5.1,15
		c-2.7,5.9-6.9,10.4-12.4,13.9C118.3,225.3,118.3,225.3,118.7,227.8z M121.9,288.5c0.1,0.1,0.2,0.2,0.3,0.3c1.1-0.7,2.8-0.6,3.2-2.4
		c0.8-3.9,0-7.8-0.9-11.5c-1.1-4.7-2.9-9.4-4.7-13.9c-1.5-3.9-2.2-7.8-1.4-11.9c0.6-3,0.4-6-0.6-8.9c-0.9-2.5-2.1-5-2-7.7
		c0.1-4.3-0.1-8.7,0.3-13c0.4-5,1.2-9.9,1.7-14.8c0.4-3,0.7-6.1,1-9.1c0.5-4.2,1-8.3,1.5-12.5c0.3-2.7,0.4-5.4,1-8c1-4,1.4-8,1.5-12
		c0.1-4.6-0.2-9.2-1-13.7c-0.5-3.2-1-6.4-1.5-9.6c-0.9-5.2-2.5-10.3-2.7-15.6c-0.2-4.8-2.2-8.9-3.6-13.3c-0.7-2.2-2.4-4.1-4.1-5.8
		c-2.4-2.4-5.1-4.4-7.7-6.6c-0.3,0.3-0.6,0.7-0.9,1c-3.9,2.8-8.2,3.6-12.9,2.8c-1.2-0.2-2.4-1.1-3.4-0.8c-1.5,0.4-2.9,1.4-4,2.6
		c-2.2,2.5-3.3,5.5-3.1,8.8c0.2,3.4,0.4,6.8,0.6,10.1c0.2,2.8,0.6,5.5,1,8.3c0.4,3.5,0.9,6.9,1.2,10.4c0.2,2,0.2,4.1,0.3,6.1
		c0.4,5.4,0.8,10.8,1.3,16.2c0.2,2.4,0.3,4.8,0.8,7.1c0.9,4.2,1.8,8.5,3,12.6c1.4,5.2,2.3,10.6,4.7,15.5c0.4,0.9,0.5,1.9,0.6,2.9
		c0.2,1.2,0.3,2.4,0.5,3.5c0.5,2.9,1.3,5.8,1.7,8.7c0.4,2.6,0.3,5.2,0.7,7.8c0.6,3.1,0.2,6.2-0.9,9c-1.3,3.4-2,6.8-1.7,10.4
		c0.2,2.8,0.9,5.6,0.9,8.4c0,3.7-0.4,7.4-0.7,11.1c-0.2,2.1-0.2,4.2-0.7,6.2c-1.2,4.1-2.8,8.2-4.2,12.3c-0.7,2.1-1.4,4.1-2.2,6.5
		c4.5-1.6,7.7-0.1,10.7,2.8c0.1-1.6,0.2-2.9,0.3-4.3c0.2-1.4,0.3-2.9,0.7-4.3c0.1-0.5,0.9-0.8,1.3-1.2c0.3,0.5,0.7,0.9,0.8,1.4
		c0.1,0.9-0.2,1.7-0.3,2.6c-0.2,1.9-0.3,3.7-0.5,5.9c2.6-1.5,4.9-2.1,7.4-0.2c0-0.9,0-1.4,0-1.9c0-2.7,0-5.5,0-8.2
		c0-0.9,0.1-1.8,1.3-1.8c1.2,0,0.9,1,1,1.8c0,2,0,4,0,6c0,0.8-0.2,1.7-0.3,2.9c2.5-1.6,4.4-0.5,6.5,0.7c-0.2-2.4-0.3-4.5-0.5-6.7
		c-0.1-0.9-0.3-1.8-0.3-2.6c0-0.4,0.6-0.8,1-1.1c0.3,0.3,0.8,0.7,0.8,1c0.5,2.5,0.8,5.1,1.2,7.5c1.2-0.3,2.4-0.7,4-1.2
		c-0.1-2.4-0.3-5.3-0.4-8.2c0-0.7-0.1-1.7,0.9-1.6c0.5,0,1.2,0.9,1.3,1.4c0.2,3.3,0.3,6.6,0.4,9.9C122.3,287,122,287.7,121.9,288.5z
		 M27.3,83.7c-4.5,3.2-8.7,6.1-11.9,10.2c-1.4,1.8-3,3.5-3.2,6c-0.6,8,0.7,15.9,2.3,23.7c1.3,6.4,2.4,12.9,2.2,19.5
		c0,1.5,0.5,3,0.9,4.5c1,4.3,2,8.7,3.1,12.9c1.8,6.5,3.7,12.9,5.5,19.3c0.2,0.8,0.2,1.7,0.6,2.4c1.9,3.7,4.4,7.1,7.4,10
		c1.2,1.2,2.3,2.7,3.8,3.4c3.8,2,7.8,3.8,11.8,5.4c3.7,1.5,7.5,2.6,11.2,4.1c4.3,1.8,8.4,3.8,12.6,5.7c0.8,0.4,1.2,0.3,1.7-0.5
		c0.6-0.9,1.5-1.7,2.4-2.4c0.6-0.6,1.5-0.8,2,0c0.5,0.8,0.2,1.6-0.5,2.2c-0.9,0.7-1.7,1.6-2.6,2.5c2.6,1.4,3.6,3.6,4.1,5.9
		c1,4.1,2.5,8,4.4,11.8c1.1,2.2,1.8,4.6,2.3,7c0.5,2.2,0.7,4.6,1.1,6.9c0.1,0.4,0.6,0.7,1,1.1c0.3-0.4,0.8-0.9,0.8-1.3
		c-0.1-1.7-0.5-3.4-0.5-5.1c0-2.1-0.8-4.1,0.1-6.3c1.8-4.4,2.2-9,1.9-13.7c-0.1-2.1-0.3-4.3-0.6-6.3c-0.7-4.1-1.6-8.1-2.5-12.1
		c-0.1-0.5-0.6-1-1.1-1.2c-2.4-0.8-4.9-1.4-7.2-2.4c-3.6-1.5-7.3-3-10.7-4.9c-5.4-3.1-10.3-7-16-9.6c-1.9-0.9-3.7-2.3-5-3.9
		c-1.3-1.7-2.8-1.4-4.5-1.4c-2.2,0-4.5,0-6.7-0.1c-0.9,0-1.8-0.3-1.7-1.5c0.1-1.3,1.2-0.9,1.9-1c2.8,0,5.7-0.1,8.9-0.1
		c-4.2-11.2-4.5-22.7-6.7-33.6c-1.6-0.4-2.5,0.2-3.1,1.3c-0.4,0.7-0.8,1.5-1.3,2.1c-0.3,0.3-0.9,0.5-1.3,0.5c-0.2,0-0.6-0.6-0.6-0.9
		c-0.3-3.7-0.5-7.4-0.6-11.1c-0.1-3,0.1-6-0.1-9c-0.3-4.9-0.6-9.8-1.2-14.7c-0.5-4.1-1.3-8.2-2.2-12.2c-0.7-2.9-1.6-5.8-1.6-8.8
		C28.1,86.8,27.6,85.4,27.3,83.7z M25.5,216.4c0-0.2,0-0.3-0.1-0.5c-2.2,0.5-4.4,0.9-6.6,1.4c-1.3,0.3-2.6,0.7-3.8,1.3
		c-1.9,1.1-4.4,2-5.4,3.7C7.2,226.6,4.8,231,4,236c-0.2,1.4,0,2.4,0.7,3.5c1.9,2.9,4,5.6,5.7,8.5c1.7,2.9,4.1,4.8,7.3,5.8
		c0.8,0.3,1.7,0.4,2.6,0.6c3.5,1.1,7,2.3,10.6,3.4c4.6,1.4,9.2,2,14,1.8c2.3-0.1,4.5,0,6.8-0.1c3.6-0.3,7.2-0.8,10.9-1.1
		c1.8-0.2,3.5-0.3,5.3-0.5c2.9-0.5,5.7-1.1,8.6-1.6c4.2-0.8,8.5-1.5,12.7-2.3c0.4-0.1,1-0.9,0.9-1.2c-0.4-1.2-1.1-2.3-1.6-3.4
		c-0.7-1.5-1.6-3-2.1-4.7c-0.9-2.9-1.3-5.8-2.3-8.7c-1.3-3.7-2.9-7.3-4.5-10.9c-0.2-0.6-0.9-1.1-1.5-1.3c-1-0.5-2.1-0.7-3.2-1
		c-3-1.1-6.1-1.8-9.4-1.9c-2-0.1-4-0.6-6-0.7c-3.3-0.2-6.6-0.4-9.9-0.1c-4.7,0.3-9.4,0.5-13.9-1.3C32.3,217.4,29.2,215.7,25.5,216.4
		z M103.6,31.2c-2.1,0.3-3.8,0.5-5.5,0.9c-4.9,1.3-9.9,2.1-15,1.9c-0.3,0-0.6-0.1-0.9,0c-5.1,1.3-10.1,2.8-14.8,5.3
		c-5.8,3-8.6,7.5-8.3,14.1c0.1,1.6,0,3.2,0,4.7c0,1-0.3,1.8-1.3,1.8c-0.6,0-1.5-0.7-1.6-1.2c-1.3-3.8-4.8-5-7.8-6.6
		c-0.3-0.2-1.5,0.4-1.5,0.6c0,2-0.5,4.1,0.5,6c1.6,3,3.1,6.1,4.8,9c1.1,1.9,2.2,3.8,3.7,5.4c0.6,0.6,2,0.6,3,0.6
		c0.3,0,0.7-1.1,0.8-1.8c0.2-1.2,0.1-2.4-1.1-3c-1.2-0.6-2.4-1.2-3.6-1.6c-1.5-0.5-3.2-2.8-3.2-4.6c0-2,0-3.9-2.2-4.9
		c-0.4-0.2-0.4-1.1-0.6-1.6c0.6-0.1,1.3-0.4,1.7-0.2c2.7,1.1,3.3,3.4,3.3,6c0,1.5,0.4,2.6,1.9,3.3c1.1,0.5,2.2,1.1,3.4,1.5
		c1.8,0.6,2.4,2.1,2.7,3.8c0.2,1.5,0.1,3.2,0.7,4.5c1.2,2.8,2.6,5.6,4.2,8.1c1.2,1.9,2.7,3.7,4.4,5.2c2.5,2.1,5.2,3.9,7.8,5.8
		c1.8,1.3,3.6,2.6,5.4,4c3.3,2.5,7.2,2.5,10.9,1.7c1.9-0.4,3.8-1.5,5.2-2.9c2-2,3.6-4.4,5.3-6.7c3.2-4.6,6.4-9.1,7.5-14.8
		c0.2-1.1,0.5-2.1,0.6-3.2c0.3-1.8,0.7-3.6,0.7-5.4c0.1-4.5,0.1-9,0-13.4c-0.1-4.2-0.1-8.4-1.6-12.5c-0.9-2.5-1.4-5.5-4.1-6.7
		c-2.2-1-2.6-2.8-3.5-4.5c-1.7-3.3-3.7-6.6-5.7-9.8c-0.7-1.1-1.7-1.1-2.4,0C99.5,23.7,101.5,27.4,103.6,31.2z M77.4,138.3
		c-1.1,0.1-1.8,0.2-2.5,0.2c-6,0-12,0-18.1,0c-0.6,0-1.2,0-1.7-0.2c-3.4-0.8-6.8-1.6-10.3-2.3c-1.2-0.3-2.4,0.4-2.5,1.5
		c-0.1,0.8-0.1,1.7,0.1,2.5c1.4,4.8,2.1,9.8,2.8,14.7c0.9,5.9,2.5,11.6,3.8,17.4c1.2,5.4,5.1,8.2,9.9,10.1c3.1,1.2,6.1,2.7,8.8,4.9
		c3.4,2.8,7.3,4.7,11.4,6.2c1.2,0.4,2.9-0.6,2.9-1.8c0.1-4.1,0.5-8.3-0.1-12.3c-1.1-6.7-1.5-13.5-2.1-20.3c-0.2-1.9-0.4-3.8-0.6-5.7
		c-0.3-2.6-0.6-5.1-1-7.7C78.1,143,77.7,140.7,77.4,138.3z M116.9,109.9c0.8,2.3,1.5,4.1,2,6c0.6,2.1,1.2,4.2,1.4,6.4
		c0.3,4.1,0.9,8,1.8,12c1,4.1,1.9,8.3,2.6,12.4c0.6,3.9,0.7,7.8,1,11.7c0.1,1.7,0.2,3.3,0.4,5c0.5,3,2.3,5.3,4.1,7.6
		c0.9,1.1,2.3,2.1,3.6,2.6c1,0.3,1.6,0.6,2.1,1.5c0.8,1.4,3,2.4,4.4,2c4.6-1.2,8.4-3.6,10-8.4c0.4-1.1,0.6-2.2,1.1-3.2
		c2.3-4.7,3.3-9.6,2.6-14.7c-0.4-3.3-0.5-7-4.5-8.6c-0.3-0.1-0.6-0.5-0.8-0.7c-1.1-0.9-2.3-1.8-3.3-2.8c-3.7-3.4-7.3-6.9-9.6-11.4
		c-2.3-4.6-4.4-9.3-6.7-14c-1.9-3.9-4-7.8-6-11.7c-1.7-3.2-4.3-5.7-7.3-7.5c-2.4-1.4-5.2-2-7-4.2c-1.7,2.3-3.4,4.5-5.1,6.9
		c4.4,3.4,9,6.7,12,11.5c1-0.9,1.9-1.7,2.8-2.4c1.3,0.7,1.3,1.4,0.4,2.2C118,108.8,117.3,109.5,116.9,109.9z M121.9,248.2
		c0.5-0.1,1.3-0.2,2.2-0.3c3.6-0.4,7.1-0.8,10.7-1.2c3.4-0.4,6.8-0.7,10.2-1c1.9-0.2,3.8,0,5.6-0.5c1.8-0.5,3.5-0.2,5.2,0
		c1.8,0.2,3.6,0.6,5.4,0.7c2,0.1,4.1-0.4,6.1-0.2c5,0.5,9.9,1.2,14.9,1.9c0.2-0.4,0.4-1,0.8-1.9c-1.1-0.5-2.3-0.9-3.3-1.5
		c-0.4-0.2-0.6-0.8-0.9-1.1c0.4-0.2,0.9-0.6,1.3-0.5c1.2,0.4,2.4,0.9,3.5,1.5c1.4,0.8,2.8,1.7,4.5,1.3c0.2-0.8,0.4-1.6,0.7-2.5
		c-0.5,0-0.9,0.1-1.3,0c-1.9-0.4-3.8-0.8-5.7-1.2c-0.3-0.1-0.5-0.6-0.8-1c0.4-0.2,0.8-0.5,1.3-0.6c0.4-0.1,0.8,0.2,1.2,0.3
		c2.4,0.3,4.8,0.6,7.3,0.9c0-0.7,0-1.1,0.1-1.4c0.3-2,0.2-2.3-1.8-3c-0.3-0.1-0.6-0.3-0.9-0.3c-2.1-0.1-4.3-0.2-6.4-0.3
		c-0.5,0-0.9-0.4-1.3-0.7c0.4-0.4,0.7-1.1,1.1-1.1c1.5-0.2,3-0.3,4.5-0.2c1.3,0.1,2.6,0.4,4.1,0.7c0.1-1.7,0.7-3.2,2.4-3.3
		c1.4-0.1,2.8,0.6,4.6,1c-1.8-1.6-3.5-2.8-5.5-3.3c-3-0.8-5.9-1.5-7.9-4.2c-0.7-0.9-1.7-1.3-2.9-1.3c-4.8,0-9.4,1.3-14,2.4
		c-2.6,0.6-5.1,1.7-7.8,1.9c-6.6,0.6-12.8-0.8-18.4-4.6c-1.7-1.2-3.7-1.8-5.9-1.7c-1.4,0.1-2.7,0.1-4,0.3c-1,0.2-2.1,0.4-2.9,0.9
		c-2.5,1.9-4.8,4.2-7.4,6c-2,1.3-2.3,2.8-1.6,4.8c0.7,2,1.5,4.1,1.9,6.2C121.3,242.7,121.5,245.4,121.9,248.2z M73.2,92.9
		c-4.1-2.9-7.3-6.7-9.7-11c-0.9-1.6-1.8-3.3-2.5-5c-0.5-1-1-1.3-2.1-0.9c-1.9,0.7-3.8,0-5-1.6c-0.4-0.5-1.2-0.8-1.8-1.1
		c-0.2,0.8-0.5,1.5-0.5,2.3c0,0.8,0.6,1.6,0.7,2.4c0.3,3.1,0.6,6.1,0.6,9.2c0.1,3.1-0.2,6.2-0.3,9.3c-0.1,3.6-0.2,7.2-0.3,10.8
		c-0.1,1.2-0.3,2.4-0.6,3.5c-0.6,2.8-1.5,5.6-1.9,8.4c-0.3,1.9-0.3,2.3,1.9,2.5c1.4,0.1,2.7,0.6,4,0.9c0.6,0.2,1.3,0.5,1.9,0.6
		c1.7,0.2,3.4,0.3,5.1,0.4c4.5,0.3,8.9-0.5,13.1-1.7c0.2-3.6,0.3-7,0.5-10.4c0.1-0.9-0.2-1.4-1.2-1.6c-1.5-0.5-2.3-1.4-2.4-3.2
		c0-1.7,0.7-2.9,1.6-4.1c0.8-1.1,1.4-2.2,2.2-3.5C73.6,98.4,71.7,97.2,73.2,92.9z M109.7,88.7c1.9,1.1,3.6,2.2,5.5,3.1
		c3.3,1.5,6.1,3.6,8.2,6.6c1.8,2.6,3,5.5,4.5,8.3c2.5,4.6,5.4,9.1,7.7,13.8c1.8,3.6,3.1,7.5,6,10.4c2.5,2.5,5.1,4.8,7.7,7.1
		c-0.3-0.3-0.6-0.8-0.8-1.3c-1-1.9-2-3.7-2.9-5.6c-1.7-3.7-3.3-7.3-4.8-11.1c-1-2.5-2.2-5.1-2.7-7.7c-0.8-4.1-1-8.2-1.7-12.3
		c-0.9-6.1-2.8-12-6.1-17.3c-0.8-1.3-1.5-2.6-2.4-3.8c-3-3.6-7-5.4-11.7-6.4C115.8,78.5,112.6,83.3,109.7,88.7z M35.5,198
		c-3.2-3.7-6.1-7.1-8.9-10.4c-2.3,2.8-9.1,16.4-9.3,18.8C22.9,202.7,28.9,199.8,35.5,198z M77.1,135.1c0-0.5,0-1.1,0-1.7
		c0-1.9-0.3-2.1-2.3-1.9c-3.2,0.3-6.5,0.7-9.7,0.5c-4.8-0.3-9.8-0.3-14.4-2.2c-0.7-0.3-1.5-0.2-2.2-0.4c-1.2-0.3-1.7,0.5-2,1.4
		c-0.3,0.7-0.4,1.5-0.6,2.2C56.1,136.8,66.5,135.9,77.1,135.1z M76.5,128.2c-0.1-1.1-0.1-2-0.2-2.9c-0.7,0.1-1.4,0.3-2,0.3
		c-4,0-7.9,0.2-11.9,0c-3.3-0.2-6.7-0.7-10-1.2c-2.6-0.4-3.4-0.1-3.7,2C57.9,128.9,67.1,130,76.5,128.2z M94.7,290.1
		c-0.6-0.5-1.1-1-1.7-1.4c-1.9-1.4-3.8-2.3-6.3-1.6c-1.4,0.4-2.1,1.5-2.2,2.5c-0.1,1.1,0.4,2.7,1.3,3.5c2.1,1.9,6.6,0.9,8.1-1.5
		C94.1,291,94.4,290.5,94.7,290.1z M75.9,108.3c1-1.6,1.8-3.3,2.9-4.8c1.1-1.4,2.6-2.6,4-4c-1.1-0.8-2.4-1.8-4.1-3.1
		c-0.1,3.7-2,6.1-3.8,8.5C74.1,106.3,74.4,107.5,75.9,108.3z M46.7,37c-0.2-0.2-0.4-0.3-0.5-0.5c-0.9,0.4-2.6,0.7-2.7,1.3
		c-0.7,2.8-1,5.6,0.2,8.4c0.1,0.3,0.7,0.6,1,0.6c0.4-0.1,1-0.5,1.1-0.8C46.1,42.9,46.4,39.9,46.7,37z M104.8,289.8
		c-0.9-0.3-1.8-0.8-2.7-0.7c-0.9,0-1.9,0.5-2.7,1c-0.4,0.2-0.7,1.2-0.6,1.5c0.6,1.1,3.2,1.6,4.7,1.1
		C105,292.2,105.1,291.1,104.8,289.8z M108.9,292.6c1.5-0.6,2.7-1,3.7-1.5c0.3-0.1,0.5-0.9,0.4-1.2c-0.3-0.9-2.5-2-3.6-1.8
		c-1.7,0.3-2.3,1-2,3C107.6,291.6,108.4,292,108.9,292.6z M197.3,235.3c-1.1-0.6-2.1-1.2-3-1.8c-1.1-0.8-1.9-0.2-2.3,0.6
		c-0.4,0.8-0.5,1.7,0.7,2.3C194.8,237.4,195.2,237.4,197.3,235.3z M116.6,290.9c1.8-0.1,3-1.3,2.8-2.7c0-0.4-0.6-1-0.9-1.1
		c-0.9-0.2-2.8,1.9-2.7,2.9C115.8,290.4,116.4,290.8,116.6,290.9z M75.3,94c-0.4,0.7-0.9,1.3-0.8,1.4c0.5,0.7,1.2,1.2,1.8,1.8
		c0.4-0.4,1.1-1.1,1-1.1C76.8,95.4,76.1,94.8,75.3,94z M194.6,242.2c0.1-0.8,0.4-1.7,0.2-2.3c-0.2-0.5-1.2-0.7-1.9-1
		C192.5,240.5,192.7,241.6,194.6,242.2z M192.7,243.4c-2.1-0.3-2.2-0.2-2.6,2.1C192.2,246.4,191.7,244.2,192.7,243.4z M187.3,247.7
		c-2.8-0.7-2.8-0.7-3,0.7C185.3,248.1,186.3,247.9,187.3,247.7z"/>
	<path class="st0" d="M103.6,172.5c0.1-1.7,0.7-2.4,2.1-2.3c1.2,0.1,1.3,1,1.3,2c0,1.4-1,2.5-2,2.3
		C103.8,174.3,103.5,173.5,103.6,172.5z"/>
	<path class="st0" d="M105.2,162.1c-0.1,2.2-1,3.3-2,3c-0.6-0.2-1.3-1-1.4-1.6c-0.2-1.2,1.4-3,2.2-2.7
		C104.6,161.1,105,161.9,105.2,162.1z"/>
	<path class="st0" d="M99.8,155.1c0.1-1.3,0.4-2.3,1.7-2.3c1.1,0,1.5,0.7,1.4,1.7c-0.2,1.1-0.1,2.7-1.6,2.8
		C99.9,157.4,100,156,99.8,155.1z"/>
	<path class="st0" d="M104,86.9c-0.1,0.4,0,0.9-0.2,1.1c-2,1.8-4.1,3.6-6.2,5.2c-2.2,1.7-6.6,1.5-8.9-0.3c-1.2-0.9-2.6-1.5-3.9-2.3
		c-0.3-0.2-0.5-0.6-0.8-1c0.3-0.2,0.5-0.6,0.8-0.5c2.7,0.1,4.9-1.3,7.1-2.4c0.4-0.2,0.8-0.5,1.1-0.4c2.9,0.5,5.9-1.1,8.8,0.5
		C102.4,86.9,103.2,86.8,104,86.9z M101,88.8c-4.1,0.8-8.1,1.5-12.2,2.3C91.3,94.5,97.3,93.7,101,88.8z M100.3,87.7
		c-1.8-1.1-2.2-1-3.7-0.5c-1.1,0.3-2.5-0.1-3.6,0.2c-1.3,0.4-2.4,1.3-3.5,1.9c0.1,0.1,0.1,0.3,0.2,0.4
		C93.2,89.1,96.6,88.4,100.3,87.7z"/>
	<path class="st0" d="M104.7,64c-1.7-0.5-3.4-0.9-5-1.4c-0.9-0.3-1.1-0.9-0.8-1.8c1.5-4.5,8.5-6.8,12.2-3.9c0.4,0.3,0.5,1.1,0.4,1.6
		C110.6,62.4,108.8,63.7,104.7,64z M107,62.1c1.5,0.1,3.2-1.3,3.2-3.3c0.1-2-1.8-1-2.5-1.7C107.5,58.9,107.2,60.5,107,62.1z
		 M104.4,62.6c-0.8-1.4-1.4-2.6-2.2-4c-0.7,0.9-1.4,1.9-2.3,3.1C101.6,62.1,103,62.3,104.4,62.6z"/>
	<path class="st0" d="M88.3,63.4c-3.1,2.6-6.2,4.6-10.3,3.4c-0.8-0.2-1.5-0.8-2.2-1.1c-0.8-0.4-1.6-0.7-2.3-1.1
		c-0.3-0.1-0.6-0.3-0.7-0.5c-0.1-0.2,0.1-0.6,0.3-0.8c1-0.9,2-1.7,3-2.5c2.6-2,7.4-1.8,10,0.6C86.8,62.1,87.5,62.7,88.3,63.4z
		 M74.8,63.2c3,3.7,8.4,3.6,11.5-0.2c-1.3-0.8-2.5-1.6-3.8-2.4c-0.2,0.6-0.2,0.9-0.1,1.1c0.5,1.6-0.4,3.6-1.8,3.9
		c-1.4,0.3-2.7-1-2.9-2.8c-0.1-1-0.6-1.2-1.4-0.7C75.8,62.4,75.4,62.8,74.8,63.2z"/>
	<path class="st0" d="M99.1,72.6c0,0,0.1-0.1,0.1-0.1c1.7-0.2,2.3,1.3,3.2,2.3c0.7,0.8,1,1.9,0.3,3c-0.2,0.3-0.4,0.7-0.6,0.6
		c-1.8-0.1-2.5,1.4-3.5,2.3c-1,0.9-2.5,1-3.5,0.1c-1.1-1-2.2-1.3-3.5-0.7c-0.3,0.1-0.6,0.1-0.9,0.1c-2,0-2.8-0.7-2.6-2.8
		c0.1-0.9,0.5-1.9,0.9-2.7c0.1-0.2,0.7-0.2,1-0.3c0,0.3,0,0.6-0.1,0.9c-0.2,0.6-0.5,1.2-0.7,1.9c-0.1,0.4-0.1,1.1,0.2,1.3
		c0.5,0.3,1.3,0.6,1.8,0.5c1.7-0.6,3.2-0.6,4.6,0.8c0.9,0.9,2,0.5,2.7-0.4c0.7-1,1.5-1.6,2.7-1.8c1.4-0.3,0.8-1.6,0.3-2.2
		c-0.7-0.9-1.7-1.5-2.6-2.3C98.8,72.8,99,72.7,99.1,72.6z"/>
</g>
</svg>
