<?xml version="1.0" encoding="utf-8"?>
<!-- Generator: Adobe Illustrator 19.2.1, SVG Export Plug-In . SVG Version: 6.00 Build 0)  -->
<svg version="1.1" id="Layer_1" xmlns="http://www.w3.org/2000/svg" xmlns:xlink="http://www.w3.org/1999/xlink" x="0px" y="0px"
	 viewBox="0 0 200 205.7" style="enable-background:new 0 0 200 205.7;" xml:space="preserve">
<style type="text/css">
	.st0{fill:#E91E63;}
</style>
<g id="ringworm-boy2">
	<path class="st0" d="M5.9,205.7c0.6-3.3,1.1-6.6,1.7-9.9c0.8-4.5,1.5-9,2.2-13.5c0.5-2.8,0.9-5.6,1.3-8.5C9.9,173.5,9,173.3,8,173
		c-2.4-0.8-4.3-2.1-5.5-4.5c-1.4-2.9-1.6-6-2-9.1c-0.3-2.4-0.6-4.8-0.5-7.1c0-2.9,0.3-5.8,0.5-8.6c0.1-1.5,0.3-3,0.2-4.5
		c0-3.2-0.2-6.4-0.2-9.6c-0.1-6.2-0.3-12.4-0.2-18.6c0-3.4,0.3-6.8,0.9-10.2c0.8-4.6,4.3-7.2,7.9-9.5c4.9-3.1,10.3-3.4,15.9-2.4
		c1.4,0.2,2.9,0.1,4.4,0.1c0.3,0,0.7-0.4,0.9-0.7c0.8-1.7,2.2-2.8,3.8-3.8c2-1.2,4-2.3,5.8-3.6c4.5-3,11.2-2.5,15.2,1.2
		c0.7,0.6,1.5,1.1,2.6,1.9c0.5-1.2,1-2.2,1.2-3.3c0.5-2.1-0.7-3.5-2.2-4.7c-2.1-1.7-4.3-3.2-6.2-5.1c-1.6-1.5-3-3.3-4.3-5.2
		c-1.8-2.6-1.3-5.5-0.6-8.3c0.9-3.5,1.6-7.1,1.6-10.8c0-3.7-0.4-7.5,0.5-11.2c0.8-3.3,2-6.3,4.3-8.8c3-3.2,5.2-6.7,6.8-10.8
		c2-5.1,5-9.6,9.3-13.1C70,1.2,72.3,0,75.2,0.1c2.4,0,4.7,0.1,6.9,1c0.9,0.4,1.8,1.1,2.5,1.8c0.8,0.8,1.7,1,2.4,0
		c1.4-2.1,3.6-2.5,5.8-2.8c4.5-0.7,8.5,1.2,12.5,3c2.6,1.2,5.4,2.2,7.9,3.5c8.1,4.3,15.6,9.5,20.7,17.3c3.4,5.2,6.1,10.9,6.9,17.1
		c0.4,3.1,0.9,6.3-0.7,9.2c-1.3,2.3-2.6,4.7-5.2,5.8c-0.4,0.2-0.9,0.9-0.8,1.3c0.2,3.4-1.9,5.7-3.9,8c-2.1,2.6-2.5,5.6-1,8.6
		c0.7,1.4,1.3,2.8,1.9,4.2c0.5,1,0.3,1.9-0.5,2.6c-1.2,1-2.3,2.2-3.6,2.9c-1.4,0.8-1.6,1.8-1.4,3.2c0.3,1.5,0.6,2.8-1.3,3.5
		c-1,0.4-0.9,1.4-0.5,2.3c0.6,1.1,0.4,1.8-0.7,2.6c-0.7,0.5-1,1.3-1.5,2c0.8,0.1,1.6,0.1,2.4,0.3c1.2,0.3,2.4,0.7,3.4,1.3
		c2.4,1.4,4.7,3.3,7.2,4.5c4.7,2.3,9.1,5.2,12.8,8.9c3.6,3.6,7.3,7.3,10.6,11.2c1.9,2.3,3.2,5.1,4.7,7.7c0.1,0.2,0.3,0.5,0.4,0.7
		c2.1,3.2,4.2,6.5,6.4,9.6c1.2,1.8,2.7,3.3,3.9,5.1c1.4,1.9,2.8,3.9,4.1,5.8c1.7,2.5,3.3,5,5.2,7.4c1.3,1.7,3,3.1,4.3,4.7
		c1,1.3,1.8,2.8,2.7,4.2c0.8,1.2,1.8,2.4,2.5,3.7c1.2,2.1,2.5,4.1,3.5,6.3c1.2,2.6,2.3,5.3,3.2,8c1.6,4.8,1.2,9.5-0.7,14.2
		c-0.6,1.5-1,3.1-1.5,4.6c-0.9,0-1.9,0-2.8,0c0.6-1.2,1.4-2.3,1.8-3.5c0.9-2.6,1.9-5,1.8-7.9c-0.2-6.1-2.8-11.5-5.4-16.8
		c-2.3-4.7-5.8-8.8-8.9-13.1c-1.9-2.6-4.2-4.8-6.1-7.4c-3-4.2-5.9-8.6-8.8-12.9c-1.8-2.7-3.5-5.5-5.3-8.3c-0.4-0.5-0.8-1-1.2-1.5
		c-0.6-0.8-1.2-1.5-1.7-2.4c-1.2-2.1-2.2-4.2-3.5-6.2c-1.1-1.7-2.5-3.2-3.7-4.8c-2.4,2-5,2.6-6.7,1.6c-3.2-1.9-3.5-2.6-2.8-6.3
		c-3.2-1.3-6.3-2.6-9.4-4c0.4,2.8,1.3,5.6-1.1,7.9c0,0,0,0.1-0.1,0.1c-0.9,1.7-1.7,3.3-2.6,5c-0.3,0.5-0.7,0.9-1.2,1.2
		c-1.1,0.6-2.3,1-3.5,1.5c2.4,3.4,4.8,7,7.4,10.5c1.5,2,2.6,4.2,3.3,6.6c1.1,4.2,2.2,8.2,5.1,11.8c3.9,4.9,7.2,10.3,11.5,14.9
		c2.6,2.7,5.1,5.5,7.5,8.4c2.6,3.2,5.1,6.6,7.7,9.9c0.9,1.2,1.9,1.4,3.2,0.9c1.4-0.5,2.7-1.1,4.1-1.5c0.8-0.3,1.6-0.1,1.9,0.9
		c0.3,0.9-0.2,1.5-0.9,1.8c-1.3,0.5-2.7,0.9-3.9,1.5c-0.8,0.4-1.7,0.9-2.2,1.7c-2,3.4-3.9,7-5.8,10.5c-0.9,0-1.9,0-2.8,0
		c0.6-1.2,1.2-2.5,1.9-3.7c1.3-2.3,2.7-4.6,4-6.9c0.4-0.7,0.5-1.3-0.2-2c-2.1-2.2-4.1-4.4-6-6.7c-1.8-2.3-3.2-5-5.2-7.1
		c-5.8-6.4-11.8-12.7-16.1-20.3c-1.1-2-2.9-2.5-4.6-3.2c-1.3-0.5-1.8,0.3-2,1.4c-0.8,3.9-1.9,7.7-2.5,11.6c-1,5.9-1.6,11.8-2.6,17.7
		c-1.1,6.5-2.6,12.8-3.9,19.3c-0.8,0-1.7,0-2.5,0c0.1-0.5,0.1-0.9,0.2-1.4c0.6-2.6,1.3-5.2,1.8-7.9c1.1-5.4,2.1-10.8,3.1-16.2
		c0.3-1.6,0.4-3.3,0.6-5c-1,0.9-1.6,1.8-2.3,2.8c-2.3,3.3-4.4,6.7-6.9,9.8c-2.2,2.8-3.9,5.7-5.2,9c-0.7,1.7-1.7,3.2-2.5,4.9
		c-0.3,0.6-0.4,1.3-0.6,2c-0.1,0.3-0.3,0.7-0.5,0.7c-0.7,0-1.6,0.2-2.1-0.2c-0.3-0.3-0.2-1.4,0-2c1.3-2.7,2.8-5.3,4.3-7.9
		c1.4-2.5,2.9-4.9,4.5-7.3c0.6-0.9,1.4-1.8,2.1-2.7c2.9-4,5.8-7.9,8.7-11.9c0.4-0.6,0.9-1.2,1.1-1.9c0.8-4.3,1.1-8.7,2.7-12.9
		c0.1-0.3-0.1-1-0.4-1.2c-2-1.8-4-3.6-6.1-5.4c-2.1-1.8-4.2-3.6-6.2-5.5c-0.3-0.3-0.5-0.9-0.7-1.4c0.6-0.2,1.1-0.5,1.7-0.6
		c0.3,0,0.7,0.3,1,0.5c2.2,2,4.5,4,6.7,6c1.4,1.2,2.7,2.5,4,3.7c0.1-0.1,0.2-0.2,0.3-0.3c-0.1-0.5-0.1-1.1-0.3-1.6
		c-1.8-3.8-3.3-7.7-5.4-11.4c-2.8-4.9-5.8-9.6-8.9-14.3c-0.5-0.8-1.7-1.5-2.6-1.6c-1.1-0.1-2.4,0.5-3.5,0.9
		c-3.2,1.3-6.3,0.5-9.4-0.2c-0.8-0.2-1.3-0.1-1.9,0.4c-3.6,3.2-7.1,6.4-10.8,9.5c-0.8,0.7-1.6,1.2-2.5,1.8c0.8,1.1,0.8,1.1,0,1.9
		c-1.1,1.2-1.8,2.6-1.9,4.2c0,0.8-0.2,1.6-0.4,2.4c-0.7,4.9-1.5,9.9-2.2,14.8c-0.2,1.6-1.1,2.3-2.7,2.1c-1.4-0.1-2.8-0.2-4.2-0.3
		c-1.4-0.1-2.8,0-4.2,0c-1.5-0.1-2.1-0.9-1.8-2.2c0.3-1.6,0.7-3.3,1-4.9c0.4-1.8,0.7-3.5,1.1-5.3c-0.1-0.1-0.3-0.1-0.4-0.2
		c-0.2,0.3-0.3,0.6-0.5,0.8c-2.4,2.6-4.6,5.3-7.1,7.8c-2,2-4.1,3.9-6.5,5.3c-4.5,2.5-9.2,4.6-13.8,6.9c-0.5,0.2-0.9,0.8-1.1,1.3
		c-1.7,5.3-3.3,10.6-5.1,15.9c-1.5,4.3-3.4,8.4-5.1,12.6c-0.4,0.9-1,1.4-1.9,1c-1-0.4-0.9-1.2-0.5-2c0.5-1,0.9-2.1,1.3-3.1
		c1.9-4.9,3.9-9.7,5.7-14.6c1.2-3.1,2-6.4,3.2-10.1c-3.4,1.2-6.6,2.1-9.5,3.5c-3.1,1.5-6.2,2.1-9,0.2c-2.3-1.6-4.5-0.6-6.5-0.8
		c-0.5,3.6-1.1,6.9-1.6,10.3c-0.7,4.8-1.5,9.5-2.3,14.3c-0.4,2.3-0.7,4.6-1,6.9C7.9,205.7,6.9,205.7,5.9,205.7z M27.6,135.8
		c-4,0.1-7.8,1.2-11.2,3.6c-2.3,1.6-4.3,3.6-6.4,5.5c-1.5,1.3-1.7,2.6-0.9,4.4c0.6,1.4,1.1,2.8,1.7,4.2c2.1,5.3,4.3,10.5,6.4,15.8
		c0.7,1.7,2,2.7,3.6,3.3c2.4,0.9,4.6,0.8,7-0.1c5.2-1.9,10.6-3.5,15.8-5.4c2.4-0.9,4.5-2.3,6.8-3.4c5.2-2.4,9.9-5.5,13.4-10.1
		c1.5-1.9,3.1-3.8,4.9-5.4c4.9-4.2,10-8.3,15.1-12.4c5.7-4.6,11.3-9.2,17-13.8c2-1.6,4.1-3.2,6.3-4.7c0.3-0.2,1.4,0,1.6,0.2
		c0.3,0.6,0.2,1.2-0.7,1.7c-1.9,1.1-3.6,2.6-5.7,4.2c0.6,0.1,0.8,0.2,0.9,0.2c2.7,0.2,5.4,0.4,8-0.7c3.6-1.5,7.9-1.7,10.6-5.2
		c0.1-0.1,0.3-0.3,0.4-0.3c0.4-0.1,0.8-0.1,1.3-0.1c0,0.5,0.2,1,0,1.4c-0.3,0.6-0.9,1-1.4,1.5c1.7,1.6,3.9,2.6,4.1,5.2
		c2.9-0.7,3.8-2.5,2.5-5.1c-0.8-1.7-1.8-3.2-2.7-4.9c-0.2-0.3,0.1-0.9,0.2-1.3c0.4,0.1,0.9,0.2,1.3,0.4c0.2,0.1,0.3,0.4,0.5,0.7
		c0.9,1.6,1.9,3.1,2.9,4.7c0.8-1.2,0.5-2.1-0.2-3c-1.1-1.6-2.1-3.3-3-5c-0.2-0.4-0.1-1.3,0.2-1.6c0.7-0.5,0.9,0.3,1.3,0.8
		c1,1.6,2.1,3.2,3.3,4.9c0.1-0.3,0.1-0.4,0.1-0.5c-0.2-2.6-0.1-5.2-2.5-7c-1.9-1.5-3.2-3.9-6.2-3.4c-0.3,0.1-0.7-0.6-1.1-0.9
		c0.4-0.3,0.7-0.7,1.1-0.8c2-0.3,3.8,0.1,5.3,1.6c1,1,1.9,1.9,2.9,2.9c2.4,2.5,5.6,3.8,8.7,5.2c0.1-0.9,0.3-1.6,0.3-2.3
		c0-0.4-0.2-1-0.6-1.3c-1.7-1.2-3.4-2.4-5.3-3.3c-2.9-1.4-5.7-2.9-8.2-5c-0.8-0.7-2-1.1-3.2-1.3c-1.4-0.2-2.9-0.1-4.3,0
		c-3.4,0.2-6.7,0.7-9.8,2.2c-1,0.5-2.1,1-3.2,1.1c-5.3,0.9-10.1,3.2-14.7,5.9c-7.1,4.2-14.8,7.4-22.4,10.6
		c-3.5,1.5-6.9,3.1-10.3,4.7c-1.3,0.6-2.6,1.4-4,2c-6,2.5-12.1,5.1-18.2,7.5c-4.7,1.8-8.9,4.2-11.2,9.1c-0.3,0.7-0.9,1.4-1.8,0.9
		c-0.9-0.5-0.7-1.4-0.2-2.1C24.9,139.7,26.2,137.8,27.6,135.8z M72.4,59.1c-0.2,0-0.4,0-0.6,0c-0.1-0.6-0.4-1.1-0.3-1.7
		c0.1-0.8,0.4-1.5,0.6-2.3c0.6-1.7,1.5-3.2,3.4-3.6c2.2-0.5,4,0.3,5.4,2.1c1.1,1.5,1.5,3.7,0.7,4.9c-1,1.5-3.2,2.5-4.9,2
		c-1.1-0.4-1.9-0.2-2.2,0.9c-0.3,1,0,2,1.2,2.6c1.4,0.7,2.7,1.5,4,2.3c0.4,0.2,0.8,0.3,1.4,0.4c-0.1-1-0.2-1.7-0.2-2.4
		c0-0.9,0.1-1.8,0.4-2.6c0.1-0.3,0.8-0.4,1.3-0.5c0.1,0.4,0.5,0.8,0.4,1.1c-0.8,2-0.2,3.7,0.7,5.5c0.9,1.7,0.3,4.6-1.3,5.2
		c-4.7,2-7.2,1.6-9.5-2.6c-0.9-1.5-1.9-3-2.9-4.5c-0.3,0.1-0.5,0.2-0.6,0.3c-2,1.1-3.9,2.6-6.4,2.8c-0.3,0-0.6,0.5-0.7,0.8
		c-0.2,0.6-0.2,1.3-0.2,1.9c-0.2,3.2-0.2,6.5-0.7,9.6c-0.6,3.9-2.5,7.1-6.1,8.8c-1.3,0.6-3,0.6-4.5,0.9c-1.7,0.4-2.2,1.3-1.5,2.9
		c0.6,1.3,1.5,2.6,2.3,3.8c2,3,4.3,5.8,7.7,7.3c0.1,0,0.1,0.1,0.2,0.2c3.8,2.8,6,6.8,8.3,10.6c1,1.6,1.2,1.8,2.8,0.9
		c6.2-3.3,13-5.5,18.9-9.4c0.9-0.6,1.8-1.1,2.8-1.6c-0.1-0.1-0.1-0.3-0.2-0.4c-0.3,0-0.6-0.1-0.9-0.1c-3.5,0.1-6.8,0.8-10,2.2
		c-0.3,0.1-0.9,0.1-1.2-0.1c-0.1-0.1-0.1-0.7,0-1c0.1-0.2,0.5-0.4,0.8-0.5c4.7-2.3,9.9-2.1,14.9-2.3c0.5,0,1.1,0.1,1.6,0
		c2.6-0.7,5.1-1.5,7.6-2.1c4.6-1.2,8.8-4.2,13.7-3.6c0.5-1,0.9-1.7,1.1-2.2c-1.7-1.4-3.2-2.7-4.7-4.1c-1.3-1.2-1.1-1.8,0.7-2.3
		c2.5-0.7,5.1-1.3,7.7-2c0.1-1.2,0.1-2.5,0.2-3.3c-1.3-0.8-2.3-1.3-3.3-2c-0.9-0.7-0.7-3,0.2-3.6c0.3-0.2,0.8-0.1,1.3-0.1
		c0,0.4,0.1,1-0.1,1.2c-0.9,0.9-0.2,1.4,0.3,1.9c1.8-0.9,2.8-1,4.9-0.5c0.3,0.1,0.7,0,0.8-0.2c1-0.8,1.7-1.7,0.9-3.1
		c-0.5-0.9-0.7-1.9-1.1-2.8c-1.8-4.2-1.6-8,1.8-11.3c1.7-1.7,2.2-3.8,2.6-6.1c0.1-0.3,0-0.8-0.3-1c-1.4-1.1-2.8-2.3-4.7-2.7
		c-1.2-0.2-2.3-1.2-3.4-1.8c-0.6-0.3-1-1-1.6-1.1c-4.2-0.5-8.4-1.9-12.6-0.5c-1.3,0.4-2.7,0.6-4.1,1c-4.2,1.1-7.3,3.5-9.1,7.5
		c-0.9,2-1.5,4.2-2.2,6.3c-0.4,1.2-1.1,1.5-2.3,0.9c-1.5-0.7-2.8-1.6-3.5-3.3c-1-2.7-2.1-5.4-3.1-8.1c-1.7-4.4-6-6.6-10.2-5.1
		c-3.5,1.3-5.7,5.8-4.9,10.2c0.7,3.6,2.5,6.8,4.4,9.9c1.6,2.6,3.8,3.1,6.7,1.9c1.1-0.5,1.2-1.4,1.1-2.3c0-1-0.9-0.6-1.5-0.8
		c-1-0.4-2-0.8-2.8-1.5c-0.9-0.8-1.8-1.5-3.2-1.6c-0.3,0-0.7-0.2-1-0.5c-0.7-0.7-0.9-3.8-0.4-4.7c0.9-1.6,2.2-1.9,3.8-1.6
		c1.2,0.3,2.1-0.3,2.8-1.2c0.6-0.9,0.2-1.8-0.4-2.6c-0.9-1.4-2.2-1.9-3.8-1.6c-1.5,0.3-1.9,1.7-2.4,2.9
		C73.2,57.1,72.8,58.1,72.4,59.1z M13.1,92.2c1.7,0.5,3.3,1,4.9,1.4c4.8,1.2,8.1,4.5,11.2,8c0.4,0.5,1.1,1.1,0.2,1.6
		c-0.3,0.2-1.1-0.3-1.5-0.6c-0.8-0.7-1.4-1.5-2.1-2.3c-2.9-3-6.4-4.5-10.3-5.9c-5.8-2-10.7,2.1-11.7,6.8c-0.4,1.6-0.6,3.3-0.6,5
		c0,7.8,0,15.7,0,23.5c0.1,5.9,0.7,11.9-0.5,17.8c-0.4,1.9,0,3.9,0,5.9c0.2,0,0.3,0,0.5,0c0.3-0.9,0.7-1.7,1-2.6
		c1.5-3.8,3.4-7.1,6.5-10c5-4.7,10.6-7.3,17.5-7.5c1.5,0,3.2,0.1,4.6-0.4c2.6-0.9,5.1-2.3,7.6-3.5c0.3-0.1,0.6-0.6,0.6-0.9
		c-0.2-1.1-0.4-2.2-0.9-3.2c-3-5.8-5.5-12-11.2-16c-0.3-0.2-0.2-0.9-0.3-1.4c0.4,0.1,0.9,0,1.2,0.2c3.1,2.2,5.9,4.8,7.6,8.3
		c1.9,3.9,4.6,7.5,5.4,11.7c8.3-2.4,15.9-6.2,23.3-10.3c-1.3-3.2-3.2-6.1-5.6-8.7c-1.2-1.3-2.7-1.9-4.5-2.1
		c-1.9-0.2-3.6-0.5-4.8-2.1c-0.2-0.3-0.6-0.5-0.8-0.6c0.7,3,1.5,5.9,2.2,8.9c0.8,3.4,0.9,6.7,0,10.1c-0.1,0.4-0.7,0.7-1.1,1.1
		c-0.2-0.4-0.5-0.8-0.5-1.2c-0.1-3.1,0-6.3-0.3-9.4c-0.5-3.7-1.4-7.4-3.8-10.5c-1.1-1.5-2.6-2.3-4.6-1.9c-2.1,0.4-3.3,1.6-4.2,3.4
		c-0.3,0.7-0.7,1.5-1.5,1.2c-0.5-0.2-0.8-0.9-1.2-1.4c-0.1-0.1-0.1-0.4-0.1-0.5c-0.2-2.6-1.3-4.8-3.2-6.7c-1.6-1.7-3-3.4-2.5-6.1
		C23.9,92,18.4,89.6,13.1,92.2z M52.7,103.4c-0.8-0.9-1.7-1.8-2.5-2.7c-3.9-4-5.2-8.7-3.6-14.1c0.2-0.7,0.7-1.5,1.2-2
		c0.3-0.3,1.1-0.1,1.6-0.1c0,0.5,0,1-0.1,1.5c-0.2,0.6-0.6,1.1-0.7,1.6c-0.2,0.8,0.1,1.5,1.1,1.3c1.5-0.4,3-0.9,4.4-1.4
		c0.5-0.2,1.1-0.6,1.5-1c0.2-0.2,0.2-0.9,0-1.1c-3-2.9-7.7-5.5-12.3-3.3c-3.4,1.6-6.7,3.7-9.9,5.8c-1.5,1-2.2,4.9-1.2,6.1
		c1.9,2.2,4,4.3,4.8,7.4C43.2,96.6,47.9,99.9,52.7,103.4z M78.9,159.9c1-6.5,2-13,3-19.5c-2,1.6-4.1,3.3-6.2,4.9
		c-1.7,1.3-3.2,2.4-3.2,5.1c0,3.1-1,6.2-1.6,9.5C73.6,159.9,76.3,159.9,78.9,159.9z M7.2,150.6c-0.2,0-0.3,0-0.5,0
		c-0.2,0.4-0.4,0.7-0.5,1.1c-0.5,1.3-0.7,2.9-1.6,3.9c-1.6,1.7-1.7,3.5-1.2,5.6c0.3,1.3,0.6,2.5,0.9,3.8c0.7,3,2.3,5.2,5.6,5.7
		c1.7,0.2,3.5,0.5,5.5,0.8C11.3,164.7,9.4,157.6,7.2,150.6z M135.2,153.7c0.1-0.1,0.2-0.3,0.4-0.4c-0.4-1.4-0.7-2.8-1.1-4.2
		c-0.7-2.9-1.2-5.8-2.9-8.4c-2.5-3.7-5-7.4-7.4-11.2c-0.8-1.3-1.7-2-3.5-1.3c1.6,2.6,3.1,5.1,4.7,7.6c3.4,5.3,6.2,10.8,8.4,16.7
		C134,153,134.7,153.3,135.2,153.7z M146.3,114.3c-1.9,1.3-1.1,3.1-1.6,4.6c-0.1,0.3,0.4,0.8,0.7,1.1c0.4,0.4,0.9,0.6,1.4,0.9
		c1.4,0.9,3.7,0.2,4.4-1.2c-0.8-1-1.4-2.1-2.2-3C148.2,115.8,147.2,115,146.3,114.3z M122.3,123.3c-0.1,0.3-0.2,0.3-0.2,0.4
		c-0.1,0.8-0.3,1.7-1.3,1.5c-0.4-0.1-0.6-1-1-1.5c-0.3-0.4-0.7-0.8-1.1-1.1c-0.1-0.1-0.8,0.2-0.8,0.3c0,0.5,0,1,0.2,1.4
		c1,1.6,3.6,2,6.2,1C123.6,124.6,123,124,122.3,123.3z M117.8,90.1c0,0.2,0.1,0.3,0.1,0.5c0.7,0.2,1.4,0.3,2.2,0.5
		c1.8,0.4,2.3,0.1,2.6-2.1C121,89.4,119.4,89.7,117.8,90.1z M117.9,92c0,0.2,0,0.4-0.1,0.6c1.3,0.5,2.7,1,4,1.5
		c0.8-0.8,0.7-1.3-0.3-1.5c-0.8-0.2-1.6-0.5-2.4-0.7C118.7,91.8,118.3,92,117.9,92z M144.6,113.2c-0.6-0.8-1.1-1.5-1.7-2.2
		c-0.2,0.1-0.4,0.3-0.5,0.4c0.4,0.8,0.7,1.5,1.1,2.4C143.9,113.6,144.2,113.4,144.6,113.2z"/>
	<path class="st0" d="M120.9,62.7c-1.7-0.5-3.3-0.8-4.9-1.3c-0.4-0.1-0.7-0.7-1-1c0.5-0.2,1-0.6,1.4-0.6c2.1,0.3,4.2,0.8,6.3,1.2
		c1.2,0.2,2.4,0,3.6,0.2c0.6,0.1,1.1,0.6,1.6,0.9c-0.5,0.3-1.1,0.9-1.6,0.9c-1.2,0.1-2.3,0-3.7,0c-0.6,1.5-1.2,3.1-1.9,4.7
		c-0.1,0.2-0.6,0.4-0.9,0.4c-2.3-0.3-4.7-0.6-7-1.2c-0.7-0.2-1.3-1-1.8-1.6c-0.2-0.2-0.2-0.9,0-1.1c0.2-0.2,0.8-0.3,1.1-0.2
		c1.8,0.6,3.6,1.2,5.4,1.8c1,0.4,1.6,0.1,2-0.8C120,64.2,120.5,63.5,120.9,62.7z"/>
</g>
</svg>
