<?xml version="1.0" encoding="utf-8"?>
<!-- Generator: Adobe Illustrator 19.2.1, SVG Export Plug-In . SVG Version: 6.00 Build 0)  -->
<svg version="1.1" id="Layer_1" xmlns="http://www.w3.org/2000/svg" xmlns:xlink="http://www.w3.org/1999/xlink" x="0px" y="0px"
	 viewBox="0 0 200 271.9" style="enable-background:new 0 0 200 271.9;" xml:space="preserve">
<style type="text/css">
	.st0{fill:#00BCD4;}
</style>
<g id="skinrash-girl2">
	<path class="st0" d="M23,271.9c0.3-1.7,0.7-3.3,1-4.7c-2.6-0.5-5.1-1.2-7.7-1.5c-4.9-0.6-6.9-4.2-8.5-8.1c-2.1-5.3-4.2-10.6-6-16
		c-1.1-3.2-2.3-6.3-1.6-9.9c0.4-1.9,0.3-3.9,0.3-5.9c-0.1-3.5,0.7-6.8,2-10.1c1.4-3.7,2-7.6,2.6-11.5c0.8-5.2,0.6-10.4,1-15.6
		c0.4-5.5,0.6-11.1,1.8-16.5c0.4-1.9,0.3-3.9,0.6-5.9c0.3-2.3,0.7-4.6,1.2-6.9c0.6-3,1.2-6,1.9-8.9c0.6-2.7,1.1-5.6,2-8.2
		c1.1-3.2,2.5-6.4,3.9-9.5c1-2.1,3.1-2.6,5.1-3.2c3-0.9,5.9-1.9,8.9-2.8c1.7-0.5,3.4-1,5.1-1.5c5-1.5,9.8-3.3,14.4-5.6
		c2-1,3.8-2.4,5.7-3.7c1-0.7,0.8-1.6,0.3-2.6c-1.5-3.1-3.1-6.2-4.4-9.3c-1.4-3.3-2.2-6.7-2.3-10.3c-0.1-3.2-0.4-6.5-0.4-9.7
		c0-2.7,0.4-5.4,0.6-8.1c0-0.2,0-0.4,0-0.6c-0.1-4.1-0.1-8.2,0.6-12.2c0.6-3.1,1.1-6.1,2.6-8.9c0.8-1.5,1-3.1,1.1-4.7
		c0.2-3.4,0.6-6.7,0.9-10.1c0.3-2.6,0.4-5.3,1-7.8c1-3.6,2.2-7.2,3.6-10.6c1.4-3.3,3.9-6,6.6-8.4c1.4-1.3,2.6-2.8,4-4
		c4.1-3.7,8.5-6.8,14.3-6.8c2.2,0,4.4,0.1,6.6,0c1.3-0.1,2.7-0.5,4-0.8c1.3-0.3,2.7-0.7,4-0.8c1.6-0.1,3.3,0.1,5-0.1
		c3.3-0.3,6.1,1,8.9,2.3c4,1.8,7.4,4.4,10.2,7.7c1,1.2,1.8,2.6,2.8,4c1.9,2.7,3.8,5.5,5.8,8.2c3.4,4.6,5.2,9.8,6.7,15.2
		c0.7,2.4,0.8,5,1,7.5c0.3,3.7,0.6,7.3,0.4,11c-0.1,2.1-0.9,4.2-1.6,6.2c-0.9,2.2-2.4,4.2-3.2,6.5c-1,2.8-1.4,5.9-2.2,8.8
		c-1.1,3.8-2.3,7.6-3.6,11.3c-0.9,2.6-1.6,5.2-2.8,7.6c-2,4.1-4.4,8.1-6.7,12.1c-0.5,0.9-0.4,1.4,0.4,2c1.8,1.3,3.7,2.5,5.3,4.1
		c1.7,1.7,3.7,2.9,5.7,4.2c1.8,1.2,3.6,1.9,5.7,2.1c2.9,0.3,5.8,0.9,8.6,1.9c1.9,0.7,3.9,1,5.9,1.5c3,0.7,5.1,2.7,7.2,4.7
		c1.1,1.1,2,2.3,3.1,3.7c1.6-1,3.3-2.1,4.9-3.1c3.5-2.3,6.9-4.7,10.4-6.8c1.5-0.9,3.3-1.5,5-2.1c1-0.4,1.9,0.1,2.2,1.2
		c0.1,0.3,0.2,0.6,0.3,0.9c0.1,0.2,0.3,0.4,0.4,0.6c1.1-1.2,2.2-1,3.4-0.3c1.1,0.6,2.3,1.3,3.4,1.7c2,0.8,3,2.4,3.6,4.3
		c0.7,2.5,1.3,5.1,2,7.6c0.3,1.2,0.8,2.3,1.3,3.4c0.8,1.9,1,3.8,0.8,5.8c0,0.4-0.1,0.9-0.3,1.2c-1.2,1.4-1,3.1-1.1,4.7
		c-0.2,2.7-0.9,5.2-2.6,7.3c-0.3,0.4-0.9,0.8-1.4,1c-1.2,0.6-2.5,1-3.7,1.6c-0.3,0.2-0.6,0.7-0.7,1.1c-0.1,5.8-4.7,8.8-9.8,8.9
		c-1.3,0-2.6,0.1-3.9,0.3c-0.2,0-0.6,0.5-0.6,0.7c0,1.7-0.7,2.9-2.1,3.9c-0.9,0.7-0.9,1.6-0.5,2.6c0.4,0.9,1.1,1.6,1.4,2.4
		c0.9,2.1,2,4.2,2.4,6.4c0.5,2.8-1.3,4.9-3.3,6.4c-1.9,1.5-2.6,3.3-2.5,5.5c0,2.6,0,5.1,0.2,7.7c0.2,2.2-0.6,4.1-1.6,6.1
		c-0.7,1.3-1.2,2.6-1.6,4c-0.6,2-0.6,4.3-1.4,6.2c-0.7,1.8-0.2,3.5-0.4,5.2c-0.2,2.4-0.2,4.8-0.8,7.1c-1,3.9-2.1,7.8-4.4,11.1
		c-1.3,1.9-3.2,3.5-4.8,5.2c-0.8,0.9-1.6,1.7-2.3,2.7c-0.2,0.3-0.2,0.7-0.2,1.1c0,5.3,0,10.7,0,16c-0.7,0-1.4,0-2.1,0
		c0-4.9,0-9.8,0-14.7c-2.5,1.4-5,2.8-7.6,4.1c-2.5,1.3-6.6,0.7-8.5-1.1c-3.8-3.5-6-8-7.8-12.6c-1-2.6-1.6-5.3-2.5-7.9
		c-1.9-5.3-1.6-10.7-0.7-16.1c0.5-3.6,1-7.2,1.5-11c-3.3,0-6,1-8.2,2.8c-2.1,1.7-3.7,4.1-5.7,6c-1.5,1.5-3,3-4.8,4.2
		c-3,2.2-6.7,2.9-10.2,3.6c-3.8,0.7-6.8,2.6-9.8,4.7c-2.9,2-5.7,4.1-8.6,6c-2.9,1.9-6,3.6-9,5.3c-3.5,2-7,3.9-10.5,5.9
		c-0.7,0.4-1.5,0.6-1.7,1.6c0,0.3-0.7,0.6-1.1,0.8c-0.8,0.4-1.7,0.6-2.5,1c-1.3,0.6-2.4,1.5-3.7,2.1c-3.3,1.6-6.6,3.1-9.8,4.6
		c-1,0.4-2,1-3,1.1c-3.5,0.4-6.6,1.6-9.8,2.9c-0.9,0.4-1.4,0.9-1.6,1.8c-0.3,1.6-0.8,3.2-1.2,4.8C24.5,271.9,23.8,271.9,23,271.9z
		 M42.2,213.2c0-1.8,0.3-3.6-0.1-5.4c-1.3-6.8-2.9-13.6-4.3-20.3c-0.5-2.4-1-4.8-1.2-7.3c-0.3-4-0.1-8-1.2-11.9
		c-0.7-2.2-1.2-4.5-2-6.7c-0.3-0.8-0.9-1.5-1.2-2.3c-0.1-0.4,0.2-0.9,0.3-1.4c0.4,0.2,0.9,0.2,1.1,0.5c0.7,1.1,1.5,2.3,2,3.5
		c2.1,5,3,10.2,3.1,15.6c0.1,2,0.1,4.1,0.6,6.1c1.6,7.5,3.3,15.1,5.1,22.6c0.5,2,0.8,4,0.3,6c-0.1,0.4-0.3,0.9-0.2,1.3
		c0.2,1,0.3,2.1,0.8,3c0.2,0.3,1.2,0.2,1.9,0.3c0.7,0.1,1.5,0.1,2,0.4c2,1.2,4.1,1.2,6.2,0.5c4.1-1.4,8.2-2.6,12.2-4.1
		c3.9-1.4,7.8-2.9,11.9-4.5c-0.4-0.6-0.7-0.9-0.9-1.3c-1-1.4-2-2.8-2.8-4.3c-2.3-4.2-3.4-8.8-4.8-13.4c-0.5-1.8-1.2-3.6-2-5.2
		c-0.4-0.8-0.6-1.4,0.2-2.2c0.5,0.4,1.2,0.6,1.4,1.1c1.2,2.8,2.3,5.6,3.3,8.4c1.2,3.1,2.1,6.4,3.4,9.4c1.1,2.4,2.7,4.5,4.2,6.8
		c0.3-0.1,0.6-0.1,0.9-0.2c2.5-0.7,5.1-1.4,7.6-2c2.7-0.7,5.1-1.8,7.1-3.7c1.9-1.9,3.8-3.9,5.6-6c1.6-1.9,3.2-3.8,4.5-5.9
		c1.6-2.5,2.8-5.2,4.3-7.8c1.2-2.2,3.1-3.8,5.5-4.5c1.5-0.4,3-0.7,4.5-1c0.8-0.1,1-0.5,1-1.2c0-1.9,0-3.7,0.1-5.6
		c0.3-3.1,0.4-6.3,1.1-9.4c0.8-3.4,1.9-6.8,3.2-10.1c1.4-3.5,3.1-6.9,4.7-10.3c0.1-0.3,0.6-0.4,0.9-0.6c0.1,0.4,0.5,1,0.4,1.3
		c-0.6,1.7-1.3,3.4-2,5c-2.9,6.5-5.7,13.1-6.2,20.4c-0.2,2.7,0,5.5,0,8.2c1.2-1.3,1.9-2.8,2.4-4.6c0.9-2.8,1.8-5.7,3-8.4
		c1.5-3.4,3.3-6.6,5.1-9.9c0.4-0.8,1.1-1.5,1.7-2c0.3-0.2,1,0,1.5,0c0,0.4,0.1,0.8-0.1,1.2c-1.4,2.6-3.1,5.1-4.3,7.7
		c-1.7,3.5-3.2,7.1-4.5,10.7c-0.7,2-1,4.2-2.5,5.9c-0.1,0.1-0.1,0.3-0.1,0.4c3.2,0.1,6.3,0.3,9.6,0.4c0.1-0.8,0-1.8,0.2-2.7
		c1-4.2,2-8.4,3.2-12.6c0.6-2.3,1.4-4.6,2.1-6.8c0.6-1.8,1.1-3.7,2-5.4c2.4-4.4,5.9-8.1,9.8-11.2c2.1-1.7,4.4-3,6.6-4.4
		c-0.5-0.6-0.9-1.1-1.4-1.7c-1.8-2-3.6-4.1-6.2-5.2c-2.3-0.9-4.7-1.6-7.1-2.2c-2.5-0.6-5-1.5-7.7-1.5c-1.1,0-2.3-0.1-3.3-0.6
		c-2.3-1.1-4.5-2.2-6.6-3.6c-2.2-1.5-4.2-3.4-6.3-5.2c-0.2,0.4-0.5,0.8-0.7,1.2c-1.8,4.6-4.2,8.9-7.5,12.8
		c-3.3,3.9-6.7,7.7-10.9,10.6c-3.1,2.1-6.6,3.9-9.9,5.8c-3.8,2.2-8,2.4-12.2,1.8c-3.6-0.5-7.1-1.4-10.7-2c-2.1-0.4-4.3-0.5-6.6-0.7
		c0.2,2.9,0.6,5.5,0.6,8.1c0,6.3-0.3,12.6-0.5,19c0,0.4-0.6,1.2-0.9,1.2c-0.8,0-0.9-0.7-0.8-1.4c0.2-4.7,0.5-9.5,0.6-14.2
		c0-4.2-0.3-8.4-0.4-12.6c0-0.7-0.2-1-0.7-1.5c-1.4-1.6-3.2-3.2-3.9-5.1c-1-2.9-1.6-6.1-1.8-9.2c-0.2-2.6,0.4-5.2,0.6-7.8
		c-0.3,0.2-0.8,0.5-1.3,0.7c-3.1,1.5-6.1,3-9.2,4.4c-4,1.8-8.1,3.2-12.4,4.3c-2.9,0.7-5.7,2-8.6,3c0.5,0.7,1.2,1.3,1.5,2.1
		c1.6,3.8,3.8,7.4,4.7,11.5c0.2,0.8,0.2,1.4-0.5,1.7c-0.9,0.3-1.2-0.4-1.5-1.1c-1.1-3-2.2-6-3.3-8.9c-0.4-1.1-1-2.2-1.6-3.2
		c-1.2-1.7-3.4-2-4.4,0c-1.4,3-2.8,6-3.9,9.2c-0.9,2.6-1.3,5.4-1.9,8.1c-0.7,3.1-1.3,6.1-1.9,9.2c-0.4,2-0.9,3.9-1.1,5.9
		c-0.4,2.8-0.3,5.7-0.8,8.5c-0.8,4.7-1.4,9.5-1.6,14.3c-0.2,5.4-0.1,10.9-0.9,16.3c-0.7,4.1-1.3,8.1-2.8,12c-1.2,3.3-1.9,6.5-1.8,10
		c0,1.4,0,2.9-0.2,4.3c-0.5,3.8,0.6,7.4,1.8,10.9c1.7,4.9,3.6,9.7,5.6,14.5c1,2.5,1.9,5.3,4.7,6.4c2.4,0.9,4.9,1.2,7.4,1.7
		c2,0.5,3.4-1.1,5.2-1.5c2.6-0.6,5-1.7,7.6-2.6c2.2-0.8,4.5-1.5,6.7-2.4c2.6-1,5.2-2.1,7.7-3.2c1.2-0.5,2.3-1.2,3.5-1.8
		c-2.4-1-4-2.6-5-4.8c-0.5-1-1-2-1.5-3.1c-2.5-6-2.9-12.2-1.5-18.5c0.6-2.6,1.7-5,2.5-7.4c-2.7-0.8-5.2,0-7.5,1.8
		c-0.8,0.6-1.7,1.2-2.5,1.8c-1.4,1.1-2.9,2.2-4.3,3.3c-0.5,0.4-1.2,0.8-1.6,0.1c-0.2-0.4,0.1-1.1,0.3-1.7c0-0.1,0.2-0.2,0.4-0.3
		c1-0.8,2-1.6,3-2.3c1.7-1.3,3.5-2.6,5.2-3.9c0-0.1,0-0.2-0.1-0.3c-1.4,0-2.9-0.2-4.3,0c-6.1,1-10.8,4.4-14.6,9.1
		c-1,1.2-1.9,2.6-2.9,3.8c-0.2,0.3-1.1,0.5-1.2,0.4c-0.3-0.3-0.6-0.9-0.5-1.4c0.1-0.6,0.5-1.2,0.9-1.6c2.3-2.5,4.5-5.1,6.9-7.4
		c3.2-3,7.2-4.4,11.5-5c1.7-0.2,3.4,0,5.1,0c-1.1-0.9-2.3-1.6-3.4-2.3c-4.6-2.7-9.4-4.8-14.9-4.3c-0.7,0.1-1.3-0.1-1.2-0.8
		c0.1-0.4,0.7-0.9,1.2-1c3.2-0.6,6.3,0,9.2,1.2C35.3,209.7,38.8,210.9,42.2,213.2z M116.7,78.2c0.9,0.1,1.6,0,2.3,0.2
		c1.2,0.4,2.3,1,3.4,1.3c1.6,0.5,3.2,1,4.6-0.6c0.1-0.2,0.7-0.1,0.9,0c0.1,0.1,0.2,0.6,0.1,0.8c-1.1,2.5-3.3,3.6-6,3
		c-2.2-0.5-4.4-0.9-6.1-2.7c-0.2,0.4-0.3,0.6-0.3,0.9c-0.1,2.4-0.2,4.8-0.1,7.2c0,1.6,0.5,3.2,0.4,4.8c0,0.9-0.6,1.9-1.1,2.7
		c-1.3,1.9-3.5,2.2-5.6,2.4c-0.6,0-1.6-0.4-1.7-0.8c-0.3-1.5-1.5-1.4-2.5-1.5c-0.7-0.1-1.5,0.1-2.2,0c-0.7-0.1-1.4-0.4-1.9-0.8
		c-1.1-0.9-1.4-2.4-0.8-3.8c0.5-1.1,2.3-2.4,3.4-2.3c0.3,0,0.5,0.3,0.7,0.4c-0.2,0.2-0.3,0.5-0.5,0.7c-0.6,0.4-1.3,0.6-1.8,1
		c-0.9,0.6-0.8,1.6-0.5,2.4c0.3,0.6,1.1,1,1.8,1.2c0.7,0.2,1.6,0,2.4,0.1c1.4,0.2,2.9,0.3,3.2,2.1c4,0.3,5.9-1.5,5.8-5.3
		c-0.1-2.9-0.4-5.7-0.4-8.6c0-4.5,3.2-8.7,7.5-9.5c3.6-0.7,7.2-0.6,10.7-0.1c1-2.8,1.9-5.6,2.9-8.4c0.1-0.1,0.1-0.3,0.1-0.5
		c-0.2-2.7-0.7-5.4-2.9-7.3c-2.5-2.2-5-4.2-7.6-6.2c-0.8-0.7-1.8-0.4-2.4,0.4c-0.5,0.7-0.9,1.6-1.4,2.3c-0.5,0.8-1,1.5-1.5,2.2
		c-0.8-1-1.5-1.8-2.2-2.6c-3.2-3.3-7.1-5.8-11-8.1c-0.9-0.5-1.9-1-2.8-1.1c-4.8-0.5-9.4-0.4-13.4,3.1c-1.5,1.3-2.3,2.5-2.5,4.3
		c-0.3,2.1-0.7,4.3-2.4,5.8c-2.6,2.4-5.8,3.9-9.3,4.4c-1.8,0.3-3.4,0.7-4.4,2.3c-0.9,1.5-1.7,3-2.5,4.5c-0.3,0.6-0.5,0.8-1.2,0.4
		c-1.8-0.9-3-2.3-3.3-4.3c-0.5-2.8-1.3-5.3-3-7.6c-1.2-1.5-2.7-2.2-4.5-2.5c-0.4-0.1-0.8,0.4-1.3,0.5c3.7,1,5.2,3.6,6.5,6.6
		c0.1,0.3-0.2,0.8-0.3,1.1c-0.4-0.1-0.9-0.2-1.2-0.5c-0.3-0.4-0.4-0.9-0.7-1.3c-0.8-1.1-1.7-2.3-2.7-3.3c-0.7-0.8-2.4-0.7-2.5-0.1
		c-0.4,1.6-1,3.3-1.1,4.9c-0.3,3.1,0.5,6,1.2,8.9c0.7,3.1,2,5.9,4.3,8.2c1.3,1.3,3.5,1.5,4.7,0.5c1.3-1.1,1.3-2.6,1-4
		c-0.3-1.4-1.4-2-2.6-2.4c-1.6-0.5-3.2-1-4.7-1.9c-2.7-1.6-3.2-6-0.9-8.3c0.4-0.4,1.4-0.6,1.7-0.4c0.8,0.5,0.1,1-0.3,1.5
		c-1.3,1.4-1.4,4-0.1,5c0.9,0.7,1.9,1.4,3,1.7c1.7,0.5,3.4,0.6,4.8,1.9c0.1-0.7-0.1-1.2-0.1-1.8c0-0.4,0.3-0.9,0.5-1
		c0.3-0.1,0.9,0.2,1,0.5c0.2,0.5,0.3,1.1,0.3,1.6c-0.3,2.5-0.6,5-0.9,7.4c-0.1,1.2-0.4,2.5-0.2,3.6c0.5,3.5,1.1,7,1.8,10.4
		c0.8,4.1,1,8.2,0.8,12.4c0,0.6-0.2,1.2-0.4,1.7c-0.9,2.3-1.8,4.5-3.5,6.4c-0.6,0.7-1,1.6-1.3,2.5c-1.4,4.5-1.9,9-0.3,13.7
		c1.4,4.2,6.4,7.1,10.1,7.4c2.4,0.2,4.9,0.2,7.3,0.6c3.6,0.5,6.9-0.1,10-1.8c3.6-2,7.3-4,10.9-6.2c1.3-0.8,2.6-1.7,3.4-2.9
		c2.6-3.5,5-7.1,7.5-10.8c0.2-0.2,0.1-0.6,0.2-0.9c-0.3,0.1-0.7,0.1-1,0.2c-1.2,0.7-2.3,1.4-3.5,2c-1.8,0.9-3.5,2.1-5.4,2.5
		c-2.6,0.5-5.3,0.3-7.9,0.3c-0.9,0-1.8-0.4-2.6-0.8c-1.9-0.9-3.8-1.8-5.6-2.8c-3.2-1.7-6.7-3-9.2-5.9c-2.2-2.5-4.5-4.9-5.6-8.1
		c-0.4-1.3-0.9-2.5-1.3-3.8c-0.1-0.3,0.1-0.8,0.3-1c0.2-0.1,0.8,0,1,0.2c0.4,0.6,0.8,1.3,1,2c0.6,2.3,1.6,4.4,3.1,6.3
		c2.4,2.9,4.8,5.6,8.4,7.1c1.8,0.8,3.5,1.7,5.2,2.7c4.3,2.6,8.9,3.1,13.5,1.6c3.2-1,6.2-2.9,9.2-4.6c1.3-0.7,2.7-1.5,3.6-2.6
		c4-5.3,7.4-11,10-17.1c1.3-3.1,2.5-6.3,3.6-9.5c1.1-3.4,2-6.9,3.1-10.7c-2.9,0-5.4-0.1-8,0c-2.5,0.1-4.9,0.5-6.7,2.6
		C117.3,77.6,117,77.9,116.7,78.2z M180.9,163.8c-0.2,0.1-0.4,0.2-0.5,0.3c-0.2-0.4-0.5-0.8-0.5-1.1c0-0.3,0.6-0.4,0.9-0.7
		c0.3-0.3,0.7-0.7,0.7-1.1c0-1.9-0.3-3.9-0.1-5.8c0.2-2.4,0.5-4,3-4.6c-0.7-2.1-1-4.2-0.1-6.3c0.1-0.2-0.1-0.5-0.2-0.7
		c-0.4-0.9-0.8-1.9-1.1-2.8c-0.4-1.1-0.7-2.2-1-3.2c-2.3,0.4-4.2,0.9-6.2,1.2c-2.8,0.4-5.7,0.7-8.5,1.1c-1.3,0.2-2.7,0-3.7,1.2
		c-0.1,0.1-0.7-0.1-0.8-0.2c-0.4-0.7,0-1.3,0.7-1.4c1.1-0.3,2.3-0.7,3.4-0.7c2.8-0.1,5.3-0.8,7.2-3c-2.5-2.2-2.8-2.8-2.1-3.4
		c0.9,0.8,1.8,1.5,2.7,2.2c0.3,0.2,0.8,0.4,1,0.2c1.9-1.4,3.9-2.7,5.7-4.3c1.7-1.5,1.9-3.9,2.5-6c0.3-0.8,0.4-2-0.5-3
		c-2.2,1.2-4.4,2.3-6.6,3.5c-1.6,0.9-3.2,2-4.8,3c-2.9,1.9-5.7,4.1-8.7,5.9c-4.9,3-9.8,5.8-13.5,10.4c-2.5,3-4.9,6-5.7,10
		c-0.1,0.6-0.3,1.1-0.6,1.9c3.3-2.1,6.7-1.5,10.1-1.5c0.6,0,1.3,0.2,1.9,0.5c0.2,0.1,0.5,0.6,0.4,0.8c-0.1,0.2-0.6,0.5-0.8,0.5
		c-2.7-1-5.4-0.6-8.1-0.3c-2.3,0.2-4.2,1.7-4.8,3.9c-0.5,1.8-0.9,3.6-1.3,5.4c-0.6,2.2-1.3,4.4-1.8,6.6c-0.6,2.9-1.2,5.9-1.6,8.9
		c-0.3,2.3-0.4,4.7-0.5,7.1c-0.1,1.1-0.1,2.3-0.1,3.4c0,0.7,0.1,1.4,0.4,1.9c1.4,2.2,1.4,3.6-0.4,5.5c-0.5,0.5-0.7,1-0.5,1.8
		c0.3,1.6,0.2,3.1-1,4.5c-1,1.1-2.1,2.4-2.5,3.8c-0.9,3.4-2,6.9-1.8,10.6c0.1,1,0.1,2.1,0,3.1c0,0.4-0.5,0.7-0.8,1
		c-0.3-0.3-0.7-0.7-0.7-1c-0.1-0.9,0-1.8,0-2.7c0.1-1.9,0.2-3.7,0.2-5.6c0-0.8-0.5-1.2-1.2-0.8c-0.4,0.3-0.8,1-0.9,1.5
		c-0.4,3.7-0.9,7.4-1.1,11.2c-0.2,3.1-0.3,6.2,0,9.2c0.2,2.1,1.1,4.2,1.6,6.2c1.6,6.1,4.1,11.9,8.5,16.6c1.7,1.8,4.5,2.5,6.8,1.3
		c2.3-1.1,4.5-2.4,6.6-3.7c0.8-0.5,1.4-1.2,2.1-1.9c1.5-1.6,3-3.3,4.5-4.8c1.6-1.6,3.3-3.2,4.2-5.4c0.7-1.8,1.3-3.6,2-5.3
		c2.1-5.2,2.1-10.5,1.1-15.8c-1.1-6.2-2.4-12.4-3.5-18.7c-0.5-2.7-0.5-5.4-0.8-8.1c-0.7-4.8-0.7-9.6-0.5-14.4c0.1-2.3,0.2-4.6,0.3-7
		c-0.6-0.1-1.1-0.2-1.6-0.2c-4.6-0.1-7.7-2.3-9.7-6.3c-0.3-0.5-1.1-1.3-0.2-1.7c0.9-0.5,1,0.7,1.2,1.2c1.8,3.7,4.8,5.6,8.9,5.5
		c1.9,0,3.9-0.7,5.8-1.3c5.4-1.7,11-2,16.7-2.3c1.5-0.1,3.1-0.6,4.4-1.3c1-0.6,2-1.6,2.5-2.7c1.3-2.6,0.6-5.5,0.3-8.3
		c-2.5,0.3-4.3-0.3-4.9-3.1c-0.1,2.4-0.1,4.6-0.1,6.8c0,0.6-0.1,1.2-0.2,1.7c-0.1,0.6-0.3,1.1-0.4,1.6c-0.1,0.4-0.4,0.8-0.5,1.1
		c-0.2-0.4-0.5-0.7-0.7-1.1C180.9,164.1,180.9,163.9,180.9,163.8z M131.8,180.6c-0.2-0.1-0.3-0.2-0.5-0.2c-2.3-0.3-4.6-0.7-6.9-0.8
		c-2.5-0.1-5,0.2-7.5,0.4c-0.6,0.1-1.3,0.5-1.7,1c-2.2,2.4-3.8,5.2-5.1,8.2c-0.8,1.7-1.6,3.4-2.7,4.8c-2.2,2.7-4.7,5.2-7,7.9
		c-2.8,3.3-6.2,5.2-10.4,6.3c-4.4,1.1-8.6,2.7-12.9,4.1c-4.4,1.5-8.8,3.2-13.2,4.7c-2.1,0.7-4.3,1.2-6.4,2c-2.2,0.9-4.4,1.4-6.8,1
		c-0.4-0.1-1.2,0.3-1.4,0.6c-0.6,0.8-1,1.7-1.3,2.6c-1.5,3.8-1.9,7.8-1.8,11.8c0.2,4.9,1.6,9.4,4.3,13.4c1.3,1.9,4.3,2.8,6.3,1.8
		c4.8-2.6,9.7-5.1,14.4-7.9c4.8-2.9,9.6-5.7,14.1-9.1c3.8-2.9,7.6-5.6,12.9-6c5.1-0.4,9.5-3.1,13-6.9c1.8-2,3.4-4.1,5.2-6.1
		c2.5-2.8,5.5-5.1,8.8-6.9c2-1,4.1-1.8,6.3-2.8c-1.8-0.8-2.8-2.1-2.9-3.9c-4.4,1.1-8.6,2.1-12.7,3.2c-0.5,0.1-1,0.4-1.5,0.7
		c-1.3,0.9-2.4,2-3.8,2.8c-0.7,0.4-1.6,0.4-2.4,0.5c-0.2,0-0.7-0.5-0.6-0.8c0-0.3,0.5-0.5,0.8-0.7c0.7-0.3,1.6-0.5,2.2-0.9
		c1.6-1.3,3.1-2.7,4.5-4.2c2-2.1,4.3-3.7,7-4.5c2.1-0.6,4.4-0.6,6.6-0.6c1.4-0.1,2.9,0.2,4.6,0.3c-1.8-0.9-2.3-2.3-2-4
		c-1.1-0.2-2.2-0.3-3.1-0.5c-3.7-1-7.4-1-11.1,0c-1.6,0.4-3.2,1.2-4.4,2.4c-1.5,1.5-2.5,3.4-3.7,5.1c-0.7,1.1-1.4,2.2-2.2,3.2
		c-0.2,0.2-0.7,0.2-1,0.3c0-0.4-0.2-0.8-0.1-1c2-2.9,4-5.8,6-8.6c0.2-0.3,0.6-0.7,1-0.8c1.9-0.8,3.8-1.5,5.6-2.3
		c0.4-0.2,0.8-0.3,1.1-0.6c0.8-0.8,0.8-1.8,0.3-2.8c-0.2-0.3-0.1-0.8-0.1-1.2c0.5,0.1,1,0.2,1.3,0.4c0.3,0.2,0.4,0.6,0.5,0.8
		c1.2-0.2,2.3-0.3,3.4-0.7c1.1-0.4,2.4-0.5,2.7-2.1c0-0.2,0.5-0.4,0.8-0.4c0.1,0,0.4,0.4,0.4,0.7c0,0.5-0.1,0.9-0.1,1.6
		c1.5,0.3,3,0.5,4.8,0.8C130.9,183.8,130.8,183.1,131.8,180.6z M169.3,204c0-2.2-0.3-4.3,0.1-6.2c0.5-2.4-0.5-4-2.1-5.3
		c-1.8-1.5-2.7-3.5-4-5.4c-0.2-0.2,0-0.7,0.1-1.1c0.4,0,0.8,0,1.1,0.2c0.3,0.1,0.4,0.5,0.6,0.7c1.8,2.3,3.6,4.6,5.6,7.1
		c0.5-0.5,0.8-1,1.2-1.4c0.4-0.4,0.7-0.9,1.2-1.1c1.1-0.7,2.2-2.5,2-3.7c-0.4-2.1-1-4.1-2.3-5.9c-2.5-3.3-2.4-5.1,0.4-8
		c0.7-0.7,0.8-1.5,0.5-2.4c-1,0.1-1.9,0.2-2.8,0.4c-2.8,0.6-5.5,1.2-8.2,1.9c-0.4,0.1-1,0.6-1,1c-0.2,3.2-0.5,6.5-0.3,9.7
		c0.3,5.9,0.7,11.8,1.3,17.6c0.5,4.4,1.3,8.7,2,13c0.2,1.4,0.6,2.7,0.9,4.1c0.7-2.9,1.5-5.7,3.2-8.1c0.2-0.3,0.4-0.7,0.5-1.1
		c0.1-0.8,0.3-1.6,0.1-2.3c-0.3-1-0.7-1.9-1.3-2.7c-1.3-1.7-2.6-3.3-4-4.9c-0.6-0.7-0.6-1.3,0.1-2.2
		C165.7,199.9,167.4,201.8,169.3,204z M118.8,110.7c-0.5,0.8-0.8,1.3-1.1,1.9c-2.8,4.3-5.5,8.6-8.3,12.9c-2,3.1-4.4,5.8-7.7,7.7
		c-3,1.6-5.9,3.4-8.9,5.1c-3.1,1.7-6.3,3.2-10,2.9c-2.3-0.2-4.6-0.3-6.8-0.5c-1.8-0.2-3.5-0.3-5.2-0.7c-3.6-1-6.7-2.8-8.5-6.2
		c-1.6-3.2-2.4-6.6-1.9-10.3c0.4-2.9,0.7-5.8,2.3-8.4c0.1-0.1,0-0.3,0-0.4c-2.3,0.4-3.4,2.1-4.3,3.9c-1,2-1.2,4.1-1.2,6.2
		c0.1,5.1,0.1,10.2,4,14.2c1.3,1.3,2.6,2.5,4.7,2.3c1.1-0.1,2.2,0.1,3.3,0.3c3,0.6,6,1.4,9.1,1.9c4.9,0.8,9.6,0.6,14.4-1.6
		c9.3-4.3,16.3-11.1,22.3-19.1c2.3-3.1,3.6-6.9,5.3-10.2C119.7,111.8,119.3,111.4,118.8,110.7z M191.5,149c0.5,0.2,1,0.2,1.4,0.4
		c0.2,0.1,0.3,0.5,0.5,0.8c-0.3,0.1-0.6,0.3-0.9,0.2c-0.4-0.1-0.8-0.3-1.2-0.5c-0.2,0.7-0.5,1.2-0.5,1.8c-0.2,1.3-0.7,2.4-1.6,3.3
		c-0.2,0.2-0.3,0.5-0.3,0.7c0.2,1.5,0.5,3,0.8,4.5c1.6-0.6,3.2-1.2,4.8-1.9c0.3-0.1,0.5-0.4,0.6-0.7c0.7-1.4,1.5-2.8,1.9-4.3
		c0.6-2.6,0.9-5.2-0.3-7.7c-0.4-0.8-0.9-1.3-1.8-1.1c-2.7,0.6-4.6-3-3.5-5.2c0.2-0.5,0.4-1,0.7-1.5c-2-0.1-3.3,1-3.2,2.9
		c0,0.9,0.4,1.8,0.8,2.7C190.4,145.4,191.7,146.9,191.5,149z M198.1,146.2c0.1,0,0.2,0,0.3,0c0.1-0.3,0.3-0.7,0.3-1
		c-0.2-1.7-0.4-3.5-0.8-5.2c-0.4-1.6-1.2-3.1-1.4-4.7c-0.2-1.5-1.1-2.1-2.2-2.8c-0.5-0.3-1.1-0.5-1.6-0.8c-0.6-0.4-1.1-0.4-1.6,0.2
		c-1.1,1.1-2.4,1.1-3.8,0.5c-1.5-0.7-2.2-1.7-1.9-3.4c-1.7,1-2,3-0.7,4.4c1.1,1.2,2.5,2.1,3.7,3.2c0.7,0.6,1.2,0.8,2.2,0.4
		c1.3-0.6,2.9-0.1,3.3,0.7C195.3,140.5,196.7,143.4,198.1,146.2z M188.2,154c1.6-1.2,1.5-3.2,1.9-4.8c0.6-2.2-1.1-3.9-2.2-5.9
		c-0.9,0.6-1.9,0.9-2.3,1.7c-1.1,2-0.5,4.1,0.2,6C186.3,152,187.3,152.9,188.2,154z M135.1,188.2c-2.8,0.1-5.4-0.1-7.8-1.4
		c-0.2-0.1-0.6,0-0.8,0.1c-1.5,0.6-0.8,2-1.4,2.9c3.4,0.7,6.6,1.4,10,1.3C135.1,190.1,135.1,189.2,135.1,188.2z M195.3,131.6
		c0.1-0.1,0.2-0.1,0.3-0.2c-0.6-1.5-1.1-3.1-1.9-4.5c-0.7-1.3-1.8-1.4-3-0.7c-1.1,0.7-2.2,0.6-3.3,0c-0.6-0.4-1.1-0.9-1.9-1.5
		c-0.1,0.8-0.3,1.5-0.1,2.2c0.2,0.7,0.9,0.6,1.6,0.7c0.7,0.1,1.3,0.2,1.9,0.5C191,129.2,193.1,130.4,195.3,131.6z M182.6,131.5
		c-2.7,1.9-5.6,4-8.5,6.1c0.7,0.1,1.3,0,2-0.1c2.7-0.2,5.2-1.1,7.7-2.1c0.6-0.3,0.6-0.6,0.3-1.1C183.5,133.4,183,132.4,182.6,131.5z
		 M183,137.1c0.3,0.9,0.6,1.7,0.9,2.5c0.3,1,0.6,1.9,1,2.8c0.2,0.3,0.9,0.6,1.2,0.5c0.6-0.2,1.4-0.2,1.5-1.2
		c0.1-1.2,0.4-2.4,0.6-3.8C185.8,135.8,185.5,135.7,183,137.1z M134.1,199c-1,0.2-1.9,0.3-2.8,0.6c-1.1,0.3-1.5,0.9-1,1.9
		c0.2,0.5,0.8,1,1.2,1.3c0.5,0.4,1.1,0.7,1.7,1.1C134.9,203.2,135.1,202.6,134.1,199z M136,178.4c-0.8-0.2-1.7-0.4-2.6-0.4
		c-2.7-0.1-5.4,0-8.2,0c1.4,0.5,2.8,0.9,4.3,0.9c1.8,0,3.4,0.5,5,1.3c0.3,0.2,0.7,0.3,1,0.5C135.6,179.9,135.8,179.2,136,178.4z
		 M131.2,207c-2.7,0.9-5.4,1.5-7.6,3.8c0.7,0,1.2,0,1.6-0.1c1.4-0.3,2.8-0.8,4.2-1.1C130.7,209.3,131.2,208.5,131.2,207z
		 M135.7,197.2c1-1,1.1-1.5,0.3-2.7c-0.3-0.5-0.5-1.1-0.9-1.3c-0.7-0.3-1.7-0.6-2.2-0.3c-0.7,0.4-0.3,1.3,0.3,1.8
		c0.4,0.4,0.9,0.7,1.3,1.1C134.9,196.2,135.2,196.7,135.7,197.2z M135.4,185.8c0-0.6-0.1-1.2,0-1.8c0.3-1.2-0.2-1.9-1.3-2.4
		c-0.7-0.3-1-0.2-1.2,0.5C132.5,183.5,133.6,185.1,135.4,185.8z M184.1,152c-0.1,3,1.2,4.4,3.4,3.7C186.2,154.5,186.7,152,184.1,152
		z M124,198c0,0.8,0,1.4,0,2.1c2-0.6,4.1-0.7,5.9-2.1C127.8,198,126,198,124,198z M190.7,130.6c-1.3-0.7-2.5-1.3-3.7-2
		c-0.8,1.3-0.8,1.6-0.2,2.2C188.2,131.9,189.4,131.9,190.7,130.6z M195.2,143.4c-0.8-1.6-1.4-3-2.2-4.5c-1.1,1.4-1,2.5-0.2,3.7
		C193.3,143.5,194.1,143.6,195.2,143.4z M122.4,198.3c-1.8,1.1-3.5,2.1-5.3,3.1c0.3,0.1,0.3,0.2,0.4,0.2c1.2-0.3,2.4-0.7,3.6-0.9
		C122.4,200.5,122.7,199.8,122.4,198.3z M186.3,123.9c1.6,2,2.7,2.3,3.9,1C188.9,124.5,188.1,122.8,186.3,123.9z M123.7,190
		c0.1-0.7,0.1-1.4,0.2-2.1c-2.7,0.6-2.7,0.6-2.5,2.1C122.1,190,122.8,190,123.7,190z M117.8,79.3c-0.2,1.3,0.6,1.3,1.3,1.7
		c0.1-0.4,0.3-0.7,0.4-1.1C118.9,79.6,118.4,79.5,117.8,79.3z M122.7,81.9c0.9-0.1,1.6-0.3,2.3-0.4c0-0.1-0.1-0.3-0.1-0.4
		C124.2,81.3,123.3,80.1,122.7,81.9z"/>
	<path class="st0" d="M94.1,104.3c-0.2,0-0.3,0-0.3,0.1c-0.5,0.2-1,1-1.5,0.2c-0.1-0.2,0.4-1,0.8-1.2c0.9-0.4,1.9-0.9,2.9-1
		c2.5-0.2,5,0.2,7.3-0.7c0.1-0.1,0.3-0.1,0.5,0c1.3,0.4,2.5,0.5,3.8,0c0.2-0.1,0.4,0,0.6,0.1c1.2,0.7,2.4,1.5,3.6,2.3
		c0.9,0.6,0.9,1.3,0.1,2.1c-1.6,1.7-3.2,3.4-5.6,3.9c-3.2,0.5-8.8-0.4-10.9-4.2C95,105.3,94.5,104.8,94.1,104.3z M96.1,104.3
		c1.7,3.9,4.3,4.4,8.2,4.7c2.3,0.2,4.3-0.9,5.8-3c-0.5,0-0.8,0-1.1,0.1c-2.3,0.6-4.5,0.5-6.8-0.3C100.1,105.1,98.1,104.8,96.1,104.3
		z M99.7,103.7c3.4,1.2,6.6,2.1,10,0.6c-1.2-0.6-2.1-2-3.7-0.9c-0.2,0.2-0.8,0.1-1-0.1c-0.9-0.7-1.8-0.3-2.7-0.1
		C101.5,103.4,100.7,103.5,99.7,103.7z"/>
	<path class="st0" d="M89.4,69.4c2.2,0.4,4,0.7,5.8,1c2.9,0.4,5.8,0.8,8.8,1.2c0.4,0.1,0.7,0.6,1.1,0.9c-0.4,0.2-0.9,0.7-1.3,0.7
		c-4.4-0.7-8.8-1.5-13.2-2.2c-0.3,0-0.6,0-0.8-0.1c-0.5-0.2-0.9-0.5-1.3-0.7C88.8,69.8,89.3,69.5,89.4,69.4z"/>
	<path class="st0" d="M102.4,77.2c0.6,0.8,0.7,1.4-0.3,1.8c-3.1,1.4-6.3,1.9-9.6,0.6c-1.8-0.7-3.3-1.9-4.6-3.4
		c-0.1-0.2-0.1-0.5-0.1-0.8c0.4,0,0.8-0.2,1,0c0.7,0.5,1.2,1.2,1.9,1.6C93.9,78.6,97.4,79.8,102.4,77.2z"/>
	<path class="st0" d="M138,190.1c0-0.2,0-0.4,0.1-0.7c0.1-0.8,0.5-1.4,1.4-1.2c1,0.2,0.9,0.9,0.7,1.6c-0.1,0.3-0.1,0.7-0.2,0.9
		c-0.2,0.4-0.5,1.1-0.8,1.1c-0.7,0-1.2-0.5-1.2-1.3C138,190.5,138,190.3,138,190.1z"/>
	<path class="st0" d="M139.8,195.1c0-1.2,0.5-1.8,1.5-1.7c0.9,0,1.2,0.6,1.2,1.4c0,1-0.6,1.6-1.5,1.6
		C140.2,196.4,139.7,195.9,139.8,195.1z"/>
	<path class="st0" d="M145.3,188.7c-0.8,0.7-1.3,1.1-1.7,1.5c-0.4-0.5-0.9-1-1-1.6c-0.2-0.7,0.3-1.4,1.1-1.3
		C144.1,187.4,144.6,188,145.3,188.7z"/>
	<path class="st0" d="M141.2,185.7c-0.4,0.3-1,1-1.3,0.9c-0.5-0.2-1-0.7-1.2-1.3c-0.2-0.5-0.1-1.4,0.8-1.2c0.6,0.1,1.1,0.7,1.7,1
		C141.2,185.3,141.2,185.5,141.2,185.7z"/>
</g>
</svg>
