<?xml version="1.0" encoding="utf-8"?>
<!-- Generator: Adobe Illustrator 18.1.1, SVG Export Plug-In . SVG Version: 6.00 Build 0)  -->
<!DOCTYPE svg PUBLIC "-//W3C//DTD SVG 1.1//EN" "http://www.w3.org/Graphics/SVG/1.1/DTD/svg11.dtd">
<svg version="1.1" id="Layer_1" xmlns="http://www.w3.org/2000/svg" xmlns:xlink="http://www.w3.org/1999/xlink" x="0px" y="0px"
	 viewBox="0 0 120 276.6" style="enable-background:new 0 0 120 276.6;" xml:space="preserve">
<style type="text/css">
	.st0{fill:#00BCD4;}
</style>
<g id="skinbite-girl">
	<path class="st0" d="M1,276.6c0-2.4-0.2-4.8,0-7.1c1.3-11.7,1.5-23.5,4.2-35.1c1.5-6.5,1.7-13.4,3.7-19.8c1.8-5.8,1.8-11.7,3-17.5
		c2.2-10.6,4-21.3,5.8-32c0.7-4.2,0.6-8.6,1-13.4c-2.7,0.7-4.9,1-7,1.7c-8.2,2.9-10.9-2.1-11.6-8.5c-0.7-7.3,1.8-13.9,4.6-20.4
		c3-6.8,6.1-13.6,9.1-20.4c1-2.2,1.7-4.5,2.5-6.7c0.2-0.4,0.3-1.1,0.1-1.4c-1.7-3,0.6-4.9,1.7-7.1c1-1.9,1.8-3.9,2.7-5.9
		c1.3-2.9,2.4-6.1,5.6-7.2c2.4-0.8,5-1,7.5-1.4c3-0.4,5.9-0.8,9.6-1.2c-1.7-2.4-2.9-4-3.9-5.6c-2.2-3.5-4.3-7.1-6.4-10.7
		c-1.5-2.5-2.7-5.2-4.2-7.7c-4.7-7.4-6.3-15.5-5.5-24.2C24.1,18,27.8,13,32.7,8.6c5.6-5.1,12-8.5,19.6-8.6c8.4-0.1,14.9,3.9,19.3,11
		c1.7,2.8,3.3,5.8,4.6,8.8c1.3,3,2.1,6.2,3.2,9.4c-0.1,0,0.1,0.1,0.2,0.1c4.6-1.4,5.3-0.8,6.2,3.9c1,4.9,0,9.4-2,13.8
		c-0.3,0.7-0.6,1.6-1.2,2.1c-4.6,4-3.4,9-2.3,14c0.1,0.6,0.3,1.2,0.6,1.8c0.1,0.4,0.4,0.7,0.6,1.2c0.5-0.2,1.1-0.2,1.5-0.5
		c6.1-3.2,12.2-3.5,18.9-1.2c6.6,2.3,10.6,6.3,12.2,12.8c0.5,2.2,1.8,3.3,3.6,4.4c1,0.6,1.9,1.7,2.2,2.7c0.4,1.4-0.6,2.3-2.2,2
		c-3.2-0.7-6.7-0.8-9.1-3.7c-0.4-0.5-1.3-0.5-2-0.8c-0.4,2.7-0.2,4.8,2.2,6.4c1.1,0.7,2.2,2.2,2.4,3.5c1.1,6.3,1.6,12.7-0.6,19
		c-1.3,3.6-4.4,5.3-7.3,7.3c-1.6,1.1-2.9,2.6-4,4.2c-1.3,1.9-2.3,4-3.4,6.1c-0.8,1.5-1.5,3-2,4.6c-2.2,7-4.4,14.1-6.3,21.1
		c-1,3.7-1.8,7.5-2.1,11.3c-0.4,6.3-0.4,12.7-0.3,19c0,1.6,0.8,3.2,1.3,4.8c1.6,4.5,2,9.1,2,13.8c0,1.5,0.3,3,0.5,4.5
		c0.2,1.8,0.1,3.4-0.3,5.3c-0.6,2.5-0.1,5.3,0.4,7.8c1.7,8.3,1.2,16.6-0.2,24.9c-0.7,4-1,8-1.3,12c-0.2,2.9-1.4,4.7-4.2,5.7
		c-4,1.3-4,1.4-4,5.6c0,2.6,0,5.2,0,7.7c-1.1,0-2.3,0-3.4,0c0.4-4,0.7-7.9,1.1-12.4c-1.2,0.4-1.9,0.7-2.6,1
		c-6.4,2.6-12.9,3.5-19.6,1.4c-0.8-0.3-1.7-0.4-2.6-0.6c-2.2-0.3-2.5,0-2.1,2.2c0.5,2.7,0.7,5.5,1.1,8.3c-0.8,0-1.6,0-2.4,0
		c-0.5-3.6-1-7.3-1.5-11.1c-2.6-0.2-3.1-2.3-3.5-4.4c-0.5-2.5-1.2-4.9-1.8-7.4c-0.1-0.5-0.8-1.2-1.1-1.2c-0.6,0.1-1.4,0.6-1.6,1.1
		c-0.8,1.6-1.2,3.5-2.1,5.1c-3.2,5.6-5.2,11.6-6.2,17.9c-0.8,0-1.6,0-2.4,0c1-3.8,1.8-7.7,3-11.4c1.2-3.6,4-6.7,4.9-11
		c-10.9,5-21.1,1.8-31.9,0.5c-0.4,4.3-0.9,8.4-1.2,12.5c-0.2,3.1,0,6.3,0,9.4C2.6,276.6,1.8,276.6,1,276.6z M97.6,121
		c-4.4-0.5-7.9,1.2-8.6,4.3c-1.6,7.1-7.2,11.2-12,15.8c-0.2,0.2-0.6,0.4-0.9,0.4c-3.3,0-6.7,0.6-9.6-1.4c-1.2-0.8-2.2-0.7-3.6-0.3
		c-2.2,0.8-4.5,1.9-6.9,0.6c-2.6-1.3-5.2-1.1-7.9-0.1c-8.8,3.3-17.6,6.6-26.3,10c-0.7,0.3-1.6,1.5-1.6,2.2
		c0.6,11.5-2.7,22.4-4.3,33.6c-0.7,5.1-1.9,10.2-2.8,15.1c6.1,2.3,11.6,4.7,17.3,6.5c8.1,2.7,16.7,3.1,25.2,3.3
		c8.7,0.2,17.4-0.1,26-0.4c5.3-0.1,5.3-0.2,4.8-5.3c-0.5-5.2,0-10.6-1.9-15.7c-1-2.7-1.7-5.6-1.8-8.4c-0.2-4.6-0.1-9.3,0.5-13.9
		c0.7-5.4,1.9-10.7,3-16c0.3-1.4,0.8-2.8,1.4-4.8c-1.2,0.8-2,1.1-2.5,1.6c-6.1,5.6-12.3,11.1-18.1,16.9c-3.2,3.1-5.7,6.9-9.9,8.9
		c-3.5,1.7-7.2,2.3-11.4,2.8c0.4-0.6,0.5-0.8,0.6-0.8c0.3-0.1,0.6-0.2,0.9-0.2c4.3-0.7,8.6-1.4,12-4.3c2.2-1.8,4-4.1,6.1-6.1
		c4.8-4.6,9.6-9.3,14.4-13.9c2-1.9,4.3-3.3,6.3-5.1c1-0.9,2-2,2.4-3.2c2.3-6.4,3.6-13.1,7.6-18.8C96.9,123.5,97.1,122.3,97.6,121z
		 M53.2,4.9c-0.2,0.2-0.3,0.5-0.5,0.7c4.3,2.9,4.5,7.3,4.4,11.8c0,1.3-0.5,2.7-0.4,4c0.2,2.7-1.3,3.9-3.4,4.9
		c-5.3,2.5-10.5,4.9-15.8,7.4c-2.1,1-3.4,2.7-4.2,5c-1.6,4.8-1.5,9.7,0.3,14.1c4.3,10.5,10.2,20,20.9,25.3c2.9,1.4,6.1,2.4,9.1,3.5
		c3.1,1.1,5.3,0.6,7.1-2c1.4-2.1,2.3-4.7,3.3-7.1c0.5-1.3,0.8-2.7,1.2-4.1c0.3,0,0.6,0.1,0.9,0.1c0,0.5,0.1,1.1,0,1.6
		c-1,2.8-1.8,5.8-3.1,8.5c-2.3,4.7-6.1,6.1-11,4.2c-2.8-1-5.5-2.2-8.2-3.2c-1-0.3-2.1-0.2-3.1-0.3c0,1.1-0.3,2.3,0.1,3.3
		c0.8,1.9,2,3.5,4.3,3.8c3.9,0.4,7.7,0.7,11.6,1c1.8,0.2,3.2-0.5,4.1-2.2c2.8-5.2,5.8-10.3,8.6-15.5c0.4-0.8,0.3-2.1,0.1-3.1
		c-0.5-2.4-1.6-4.8-1.6-7.2c0.1-5.8-0.2-11.5-2.2-17C75.1,40.9,75,39,74.1,38c-2.5-2.8-5.3-5.4-8.1-7.7c-3.8-3.1-6.5-6.7-6.4-11.9
		c0.1-2.2,0-4.4-0.6-6.5c-0.6-2.1-1.7-4.1-2.9-5.9C55.6,5.3,54.2,5.2,53.2,4.9z M45.7,74.9c-0.9,0-1.3-0.1-1.8,0
		c-5,0.8-10,1.6-15,2.3c-2.2,0.3-3.8,1.4-4.7,3.3c-2.1,4.5-4.2,9-6.3,13.6c2.8,2,5.7,4,8.6,6.1c0.3-0.6,0.7-1.4,1.1-2.2
		c1.2-2.8,2.3-5.6,3.7-8.3c0.5-1,1.7-1.6,2.6-2.4c-0.8,2.7-2.1,4.8-2.8,7.1c-1.4,4.3-2.6,8.7-3.4,13.1c-1.2,6.4-2,13-2.9,19.5
		c-0.3,1.9,1.1,2.1,2.5,2c2.9-0.1,5.8-0.3,8.7-0.5c3.8-0.2,7.6-0.1,11.3-0.6c3.5-0.5,3.9-0.4,4.3-4.4c0.3-3.3,1.2-6.7,2.6-9.7
		c3-6.6,6.5-13,9.7-19.2c-3.6-0.8-7.3-1.6-11-2.5c-6-1.5-9-6.3-7.8-12.3C45.3,78.4,45.5,76.8,45.7,74.9z M112.2,77.5
		c0.3-0.3,0.7-0.6,1-0.9c-1.7-2.3-3.2-4.9-5.3-6.8c-4.9-4.4-11-5.8-17.4-4.9c-3.9,0.5-7.6,1.9-9.8,5.9c-5.1,9.1-10.7,17.9-16.3,26.7
		c-4.3,6.7-7.2,14.5-10.4,21.9c-1.4,3.3-1,6.9,0.3,10.4c0.6,1.8,1.9,2.7,3.8,2.7c2.8,0,5.6,0.1,8.5,0c4.1-0.2,8.3-4.3,8.6-8.3
		c0.2-2.5,1-4.6,2.7-6.5c1.3-1.5,2.4-3.3,2.9-5.2c1.6-6.2,3-12.4,4.4-18.6c1.3-5.7,3.4-11,6.7-15.8c2-2.9,4-3.7,6.9-2.2
		c4.2,2.2,8.2,4.9,12.4,7.2c1.8,1,3.9,1.7,5.9,2.4c0.4,0.1,1.1-0.4,1.5-0.8c0.1-0.2-0.3-1-0.7-1.3c-3-2.4-6-4.7-8.9-7.2
		c-1.2-1-1.9-2.5-2.9-3.7c0.3-0.3,0.6-0.5,0.9-0.8C108.7,73.5,110.4,75.5,112.2,77.5z M18.6,97.3c-1,2.9-1.7,5.4-2.7,7.7
		c-2.8,6.5-5.9,12.9-8.6,19.4c-2.9,6.9-6.1,13.6-4.8,21.5c0.8,4.9,2.7,6.7,7.7,6.3c1.3-0.1,2.7-0.4,4-0.8c10.9-4,21.7-8,32.6-12.1
		c3-1.1,5.9-1.5,8.9-0.6c3.3,0.9,6.6,1.1,8.4-1.9c1.9,1,3.5,2.2,5.3,2.8c3.2,1,6.3,1.5,9-1.5c1.2-1.4,3-2.3,4.1-3.7
		c1.7-2.3,3.2-4.8,4.7-7.2c0.2-0.4,0.1-1.1-0.2-1.6c-1.2-2.4-2.4-4.8-3.6-7.2c-0.5-0.9-1.2-1.7-1.7-2.6c-0.2,0.1-0.5,0.2-0.7,0.3
		c0.1,0.6,0,1.2,0.2,1.7c1.1,2.3,2.4,4.5,3.3,6.9c0.5,1.3,0.3,2.9,0.4,4.3c-0.2,0-0.4,0-0.6,0c-2.7-9.2-2.8-9.5-5.5-10.5
		c0.4,1,0.6,1.7,0.9,2.3c1.4,2.8,2.7,5.7,2.3,8.9c-0.1,0.6-0.5,1.2-0.8,1.9c-0.3-0.1-0.6-0.1-0.8-0.2c0.6-3.9-0.1-7.4-2.8-10.3
		c-0.3,1.7-0.3,3.5,0.2,5c0.9,2.5,1.2,4.9,0.5,7.3c-0.3,0-0.5,0-0.8,0.1c-0.2-1.9-0.3-3.7-0.6-6.2c-0.8,1-1.2,1.5-1.6,1.9
		c-2.4,2.7-5.2,4.8-8.9,5.2c-2.7,0.3-5.5,0.3-8.2,0c-1.4-0.1-2.8-1-3.9-1.9c-0.9-0.8-1.5-2.1-2.1-3c-3.3,0.3-6.5,0.6-9.6,0.7
		c-6.7,0.2-13.3,0.3-20,0.4c-0.6,0-1.2,0.3-1.8,0.5c-2,0.7-4,1.6-6.1,2.2c-0.5,0.1-1.2-0.4-1.8-0.6c0.4-0.4,0.7-1,1.2-1.2
		c2.3-1,4.6-1.8,6.9-2.8c0.7-0.3,1.4-1.2,1.6-2c1.1-6.4,1.8-12.9,3-19.3c0.6-2.9-0.2-4.9-2.1-6.7C22,99.4,20.4,98.6,18.6,97.3z
		 M87.3,239.6c-1.2,0.1-2.1,0.1-2.9,0.3c-3.3,0.5-6.5,1.1-9.8,1.6c-9.4,1.4-19.2-7.2-19.6-14.3c-0.2-3-0.6-5.9-0.7-8.9
		c-0.1-1.6-0.2-2.8-2.3-2.9c-3.6-0.2-7.2-0.6-10.7-0.9c-2.2-0.2-2.8,0.8-2.6,2.9c0.5,6.1,0.7,12.2,1.3,18.2c0.4,4,1.1,8,2.2,11.8
		c1.1,3.8,2.9,7.3,4.3,11c0.9,2.2,2.1,4.1,4.5,4.6c6.5,1.4,13,2.8,19.7,0.4c4.3-1.5,8.8-2.6,13.1-4c0.5-0.1,1.1-0.8,1.1-1.3
		C85.8,252.2,86.5,246.1,87.3,239.6z M13.5,204.9c-0.1,1.6-0.1,2.9-0.4,4.2c-0.4,2-1.1,4-1.5,6c-1.3,6-2.6,11.9-3.6,18
		c-0.9,5.4-1.5,10.8-2.3,16.2c-0.3,2,0.7,3,2.6,3.3c3.6,0.5,7.2,1.3,10.8,1.4c4.2,0.1,8.5,0,12.7-0.7c3.3-0.6,6.5-5.6,6.2-8.9
		c-0.3-4.2-0.9-8.3-1.1-12.5c-0.3-5.5-0.5-11-0.8-16.6c0-0.7-0.3-1.8-0.8-2.1c-1.5-1-3.1-1.8-4.7-2.4c-4.6-1.6-9.2-3-13.7-4.5
		C15.6,206,14.6,205.4,13.5,204.9z M85.9,213.6c-1.6,0.2-3.1,0.6-4.5,0.6c-4.3,0.2-8.7,0.3-13,0.5c-3.1,0.1-6.1,0.7-9.1,0.5
		c-2.4-0.1-2.8,1-2.7,2.8c0.1,2,0.6,4,0.6,6c0,7.4,6.3,14.7,13.8,14.7c4.6,0.1,9.2-1.1,13.8-1.8c3.4-0.6,3.6-0.7,3.3-4.2
		C87.4,226.5,86.6,220.2,85.9,213.6z M88.7,122.2c3.5-2.3,6.9-4.5,10.3-6.7c3.1-2,6.1-4.1,7.2-8c0.6-2.3,0.3-4.4-1.8-5.4
		c-3.3-1.7-6.6-3.5-10.6-3.2c-4.9,0.5-10,2.9-10.5,7.8c-0.2,2-0.7,3.9-1,5.9c-0.2,0.9,1.8,5.1,2.6,5.1
		C88.1,117.8,88.5,120,88.7,122.2z M101.5,90.6c-1,0.9-2.2,2.2-2.4,2.1c-1.3-0.9-2.4-2.1-3.8-3.4c-3.8,2.1-3.2-3.3-6.1-4.6
		c-1.5,5.2-2.9,10.3-4.5,15.9c10.2-5.6,18.1-2.9,25,4.6c1.9-4.3,0-14.6-3-16C104.6,92.8,104.6,92.8,101.5,90.6z M67.6,89.3
		c-4-0.4-8.1-0.6-12.1-1.3c-4.7-0.8-6.6-3.4-6.6-8.1c0-0.8,0.2-1.7-0.1-2.4c-0.2-0.5-1-0.9-1.5-1.3c-0.3,0.5-0.7,0.9-0.8,1.5
		c-0.2,1-0.1,2.1-0.3,3.1c-0.6,4.4,1.4,8.2,5.6,9.6c3.1,1.1,6.4,1.9,9.7,2.4C65.8,93.3,67.1,92.3,67.6,89.3z M79.6,49
		c4.7-3,6-12.9,2.8-18.6c-2.8,0.6-4,2.1-3.8,5.1c2-0.7,3.7-0.3,4.3,1.9c0.5,1.7,1.3,4-0.7,5C79.3,43.9,79.6,46.2,79.6,49z
		 M96.4,118.9c3.7,0.7,12.4-5.7,12.9-9.2c0.1-1-0.5-2.1-0.8-3.1c-0.3,0-0.6-0.1-0.8-0.1C106.4,112.9,101.4,115.9,96.4,118.9z
		 M96,76.9c0.6,4.6,1.2,9,1.9,13.4c0.1,0.5,0.9,0.8,1.4,1.2c0.2-0.1,0.4-0.3,0.6-0.4c-0.3-4-0.5-8-0.8-11.9
		C98.9,77.5,97.8,76.7,96,76.9z M103.3,79.5c-0.2,0.1-0.4,0.3-0.6,0.4c0,2.9-0.1,5.9,0.1,8.8c0,0.7,0.9,1.4,1.3,2.1
		c0.5-0.7,1.3-1.5,1.3-2.2c0-2.4-0.2-4.8-0.5-7.1C104.8,80.7,103.9,80.1,103.3,79.5z M77.6,44.3c1.4-1.2,2.6-1.9,3.4-2.9
		c0.5-0.7,0.8-1.9,0.6-2.7c-0.1-0.6-1.3-1.5-1.8-1.4c-0.8,0.2-2,1-2.1,1.7C77.4,40.6,77.6,42.3,77.6,44.3z M92.3,79.8
		c-2.9,2.7-0.7,4.6,0.1,6.4c0.3,0.7,1.2,1.2,1.8,1.9c0.3-0.2,0.6-0.4,0.9-0.7C94.3,85,93.3,82.6,92.3,79.8z"/>
	<path class="st0" d="M67.8,71.6c0.1,3.2-2.2,4.6-4.3,5.6c-2.6,1.2-5.5,0.9-8.3-0.7C58.1,71.8,62.4,70.8,67.8,71.6z M57.1,75.1
		c0.1,0.3,0.3,0.7,0.4,1c2.3-1.1,4.7-2.2,7-3.3c-0.1-0.3-0.2-0.6-0.4-0.8C61.8,73,59.5,74.1,57.1,75.1z M59.4,76.7
		c3.3,0.6,5.1-0.9,6.5-3.3C63.8,74.4,61.7,75.5,59.4,76.7z"/>
	<path class="st0" d="M61.4,63.8c0.7,0.4,1.7,0.6,1.9,1.1c0.2,0.7,0.1,1.9-0.4,2.4c-1.3,1.2-2.8,2.4-4.4,3.2
		c-2.8,1.3-4.2,0.5-5.1-2.4c-0.7-2.3-1-4.7-1.9-6.9c-0.9-2.1-2.3-3.9-3.5-5.9c0.1-0.2,0.3-0.3,0.4-0.5c0.9,1,2.2,1.9,2.8,3
		c1.2,2.8,2.2,5.8,3,8.7c0.7,2.9,2.8,3.8,5.2,1.8c0.3-0.3,0.6-0.5,0.9-0.8C62.9,66.2,62.9,66.2,61.4,63.8z"/>
	<path class="st0" d="M55.9,50.8c-1.6-2.3,0.6-3,1.6-3.9c2.9-2.7,5.2-3.3,6.9-2C61.6,46.9,58.8,48.8,55.9,50.8z"/>
	<path class="st0" d="M45.1,54.5c-0.8,0.4-1.6,0.9-2.5,1c-1.3,0.3-2.7,0.5-4,0.4c-0.8-0.1-1.5-1-2.3-1.5c0.6-0.4,1.3-1.1,1.9-1.1
		c2.2-0.1,4.4,0.1,6.7,0.2C45,53.7,45.1,54.1,45.1,54.5z"/>
	<path class="st0" d="M57.6,54c0.6-0.1,1.3-0.4,1.9-0.4c2.5-0.1,4.5-0.9,5.9-3.1c0.3-0.5,1.2-0.7,1.8-1.1c0,0.7,0.2,1.5-0.1,2.1
		C65.7,54.4,61.4,55.8,57.6,54z"/>
	<path class="st0" d="M39.3,60.4c0.9,0,1.8,0.2,2.6,0c1.5-0.4,2.9-0.9,4.3-1.4c0.5-0.2,1.1-0.2,1.7-0.3c0,0.5,0.2,1.4-0.1,1.6
		c-1,0.8-2.1,1.6-3.2,1.9c-1.1,0.3-2.4,0.2-3.6,0c-0.7-0.1-1.4-0.8-2-1.2C39.1,60.8,39.2,60.6,39.3,60.4z"/>
	<path class="st0" d="M66.1,111.3c0.5,0.6,1.6,1.4,1.9,2.4c0.4,1.4-1.4,3.2-2.9,3.1c-1.8-0.1-3-1-2.9-2.8
		C62.2,112.1,63.6,111.5,66.1,111.3z"/>
</g>
</svg>
