<?xml version="1.0" encoding="utf-8"?>
<!-- Generator: Adobe Illustrator 18.1.1, SVG Export Plug-In . SVG Version: 6.00 Build 0)  -->
<!DOCTYPE svg PUBLIC "-//W3C//DTD SVG 1.1//EN" "http://www.w3.org/Graphics/SVG/1.1/DTD/svg11.dtd">
<svg version="1.1" id="Layer_1" xmlns="http://www.w3.org/2000/svg" xmlns:xlink="http://www.w3.org/1999/xlink" x="0px" y="0px"
	 viewBox="0 0 150 238.1" style="enable-background:new 0 0 150 238.1;" xml:space="preserve">
<style type="text/css">
	.st0{fill:#03A9F4;}
</style>
<g id="skinrash-girl">
	<path class="st0" d="M0,154.9c0.6-0.7,1.4-1.4,1.9-2.2c5.5-9.4,12.9-17.1,20-25.2c3.2-3.7,5.5-8.1,8.3-12.1c3.1-4.6,6-9.4,9.6-13.6
		c2.3-2.8,5.6-4.8,8.4-7.2c0.4-0.3,1-0.5,1.4-0.8c4.1-4.1,8.9-3.5,13.9-2.2c3.8,1,7.6,1.8,11.3,2.7c0.2-0.2,0.3-0.5,0.5-0.7
		c-0.3-0.6-0.5-1.3-0.9-1.9c-3.2-4.9-6.3-9.9-9.6-14.7c-2.9-4.1-6-7.9-9.1-11.8c-0.6-0.8-1.5-1.4-1.9-2.3c-4.6-9.4-7-19.2-3.6-29.5
		c1.6-4.9,3.7-9.7,5.7-14.5c1.8-4.3,6.3-5.8,9.6-8.5c1.9-1.6,4-2.9,6-4.2c2.7-1.8,5.1-3.8,8.8-3.6c2,0.1,4.1-1.6,6.2-2.5
		c4.6,0,9.1,0,13.7,0c1.2,0.8,2.4,1.6,3.7,2.3c4.7,2.6,8.6,6,11.4,10.7c4,6.7,7.8,13.4,9,21.2c0.2,1.2,1.5,2.9,2.6,3.3
		c2.8,1,4.2,2.2,4.1,5.2c-0.1,2-0.6,4-1.3,5.8c-2.5,6.7-3,12.8,1.6,19.1c2.4,3.3,3.2,7.8,4.4,11.9c0.9,2.9,1.1,5.9,1.8,8.8
		c0.3,1.3,1.2,2.5,2.1,3.5c2,2.1,3.5,4.3,3.7,7.4c0.3,5.8,0.8,6.3,6.7,6.9c0,0.9,0,1.8,0,2.7c-1.8-0.4-3.6-0.9-6-1.5
		c0.7,1.6,1.2,2.5,1.6,3.3c1.4,3.1,0.5,6.8-2.3,8.8c-2.5,1.7-5.3,1.2-7.9-1.6c-1.3-1.4-2.3-1.4-2.6,0.5c-1.3,7.9-2.4,15.8-3.6,23.8
		c-0.2,1.4,0.6,1.9,2.1,2.1c1.8,0.3,3.8,0.9,5.3,1.9c3.4,2.4,4.2,6.4,5.6,10c0.2,0.5-0.1,1.2-0.2,1.9c-1.2-1.3-1.5-2.9-2.3-4.1
		c-1.7-2.5-3.5-5.1-5.7-7.2c-1.8-1.7-4.6-0.8-4.6,1.3c0,4.8-0.5,9.8,0.7,14.4c1.1,4.3,2,8.5,2,12.8c0,1-0.2,2.1-0.3,3.1
		c0,0.1-0.9,0.1-0.9,0c-0.2-1.1-0.4-2.2-0.4-3.3c-0.2-2.7-0.3-5.4-0.4-8.1c-0.3-0.1-0.6-0.1-0.9-0.2c-2.4,1.9-4.9,3.7-7.2,5.7
		c-3,2.6-6.3,4.4-10.1,5.7c-7.1,2.6-13.8,0.6-20.5-1.4c-1.9-0.5-3.3-2.6-4.8-4.1c-0.6-0.6-0.8-1.5-1.3-2.3c-3,2.4-3.5,3.3-2.2,6.4
		c1.7,4.4,3.7,8.7,5.6,13c1.5,3.6,4.3,5.8,7.9,7c2.4,0.8,4.8,1,6.7-1.4c0.5-0.7,1.4-1.2,2.3-1.5c4.4-1.2,7-4.3,9.4-7.9
		c0.4-0.6,1.2-1.1,1.8-1.6c0.2,0.2,0.4,0.5,0.6,0.7c-2.1,5.9-6.9,9.1-12.5,11.7c2,0.3,3.9,0.5,5.4-0.1c5.4-2.3,11-4.4,16-7.6
		c5.2-3.3,10.3-7.2,13.2-13c1.6-3.2,3.1-6.4,4.7-9.5c2-3.9,4-7.7,6-11.5c0,1.3,0,2.6,0,3.8c-3,6.1-5.8,12.3-9.1,18.3
		c-2.4,4.2-3.5,8.6-3.4,13.3c0.1,3.6-0.7,6.9-2.8,9.8c-4.2,5.6-3.5,11.7-1.8,18c1.3,4.9,2,10,2.9,15c0.3,1.5,0.4,3,0.6,4.6
		c-0.9,0-1.8,0-2.7,0c0-6.7-0.9-13.2-3-19.5c-2.2-6.3-2.6-12.8,1.8-18.5c3.6-4.7,2.6-10.3,3.1-15.9c-1.9,1.4-3.2,3.6-5.1,4.8
		c-4.4,2.8-9.2,4.8-13.5,7.6c-7.1,4.5-14.6,3.5-22.2,2.4c-0.8-0.1-1.7-0.5-2.2-1.1c-2.6-3.2-5.8-6-7-10.3c-0.7-2.2-1.7-4.4-2.9-6.4
		c-2.9-4.5-2.7-8.9,0.8-13c0.4-0.5,0.8-1,1.3-1.8c-3.5-0.4-6.2,0.3-8,3c-1.8,2.7-4.4,4.2-7.5,3.5c-5.1-1.3-9.4,0.1-13.6,2.7
		c-0.4,0.2-0.8,0.4-1.3,0.5c-5.4,1.7-10.9,3.3-16.3,5.1c-0.9,0.3-2.1,1.1-2.2,1.9c-0.6,3.3-1.2,6.7-1.2,10
		c0.1,9.1-0.2,18.2-2.4,27.1c-0.6,2.6-0.3,5.4-0.6,8.1c-0.5,3.3-1.3,6.5-1.9,9.7c-0.9,0-1.8,0-2.7,0c0.2-0.4,0.4-0.8,0.4-1.3
		c0.9-6.1,1.8-12.3,2.8-18.4c0.5-3.2,1.3-6.4,1.6-9.6c0.7-8.1,1.1-16.1,1.7-24.2c0.1-2-0.3-2.9-2.5-2.6c-6.4,1-12.7,1.7-19.2,0.3
		c-4.5-1-8-2.8-9.6-7.4c-0.6-1.6-1.4-3.1-2.1-4.7C0,165.1,0,160,0,154.9z M82.8,8.3c-3.4,0.3-5.2,3.1-4.1,6.1c1,2.7,2.4,5.3,3.5,7.9
		c1.8,4.4,3.6,8.8,5.2,13.3c0.8,2.1,0.7,3.9-1.8,5.2c-1.4,0.7-2.6,2.1-3.4,3.4c-1.7,2.9-3.1,5.9-4.5,9c-2.6,5.7-6,10.9-11.9,13.7
		c-2.4,1.1-2.6,2.4-1.5,4.3c3.6,6.2,6.7,12.8,11,18.5c7.1,9.4,16,16.2,28.7,15.6c1.3-0.1,3.3-0.7,3.6-1.6c1.8-5,5.6-8.4,9.3-11.8
		c1-0.9,1.9-2.3,2.3-3.6c2.3-6.8,3.1-13.8,2.4-20.9c-0.4-4.4-0.8-8.8-1.4-13.2c-0.1-1-1.2-2.2-2.1-2.6c-4-1.9-7.6-4-9.4-8.5
		c-1.5-3.8-4.9-5.3-8.7-5.7c-2.1-0.2-4.4,0-6.5,0.3c-1.5,0.2-1.9-0.2-2.3-1.7c-1.3-4.6-2.6-9.3-4.6-13.6C84.6,17.8,80.7,14,82.8,8.3
		z M140,112.7c0.1,0.3,0.3,0.6,0.4,0.8c-0.6,0.5-1.2,1-1.7,1.5c-0.5,0.5-0.8,1.2-1.2,1.8c0.7,0.5,1.4,1.2,2.1,1.3
		c2.6,0.3,4.9-3.2,4.2-6c-1.1-4.4-2.1-8.9-3.1-13.4c-0.6-2.9-1.7-5.4-5.1-5.8c-3.3-0.4-6.7-1.2-10-0.8c-8.2,0.8-13,3.8-16.3,12.3
		c-1.9,4.9-3.5,9.9-5.4,14.8c-1.2,3.2-2.8,6.3-3.8,9.6c-1,3.3-1.4,6.9-2.2,10.3c-0.7,3.3-1.6,6.5-2.5,9.7c-0.2,0.9-0.8,1.9-0.7,2.8
		c0,2.8-1,4.7-3.5,6c-0.5,0.3-1.4,0.8-1.3,1.1c0.3,3.1-2,5.2-2.7,7.8c-0.4,1.3-0.1,3.1,0.6,4.3c2,3.6,5.6,5,9.5,5.5
		c4.8,0.6,9.6,1.6,14.5-0.2c5.4-2.1,9.8-5.5,13.9-9.5c1-1,1.7-2.8,1.8-4.3c0.2-3.4-0.2-6.7-0.3-10.1c-0.4-13.4,1.7-26.5,4.7-39.4
		c0.2-0.7,0.7-1.2,1.1-1.9c0.2-0.2,0.5-0.4,0.7-0.7c-0.1,4.8,2,4,4.3,2.6C138.5,112.7,139.3,112.8,140,112.7z M41.1,151.7
		c-3.9-6.4-10.2-8.5-15.6-11.8c6.9,0.6,11.7,4.9,16.1,9.3c1.7-5.9,3.6-11.7,5.2-17.6c1.8-6.6,3.4-13.3-1.2-19.6
		c-0.2-0.3,0-0.9,0-1.4c0.2-0.1,0.5-0.2,0.7-0.3c1.5,2.4,2.9,4.9,4.4,7.3c0.9-1.4,1.9-2.7,2.8-4.1c0.3,0.2,0.7,0.4,1,0.6
		c-1,1.6-2,3.3-2.9,4.9c-0.6,1-1.3,2.1-1.4,3.3c-0.3,5.8-1.5,11.2-3.7,16.6c-1.5,3.7-2,7.9-3.1,12.5c4-0.7,7.2-1.2,10.4-1.9
		c5.3-1.1,9.1-4.2,11.4-9.2c1-2.1,2.1-4.2,3.1-6.3c2-4,5.3-5.8,9.7-5.6c2,0.1,4.1,0.2,6-0.1c4.7-0.7,8.8,0.3,12.3,3.6
		c0.1,0.1,0.3,0,0.9,0c0.8-2.2,1.7-4.5,2.6-6.8c-4.4-1.2-8.5-2.2-12.4-3.5c-4.3-1.5-8.7-3.2-11-7.5c-2.2-4.2-4.1-8.7-5.8-13.2
		c-1-2.7-1.2-5.5-5.1-5.6c-1.1,0-2.1-0.9-3.2-1.3c-2.8-1.1-5.6-1.6-8.3,0.2c-1.9,1.3-3.7,2.6-5.8,3.6c-3.4,1.6-5.9,4.1-7.9,7.3
		c-1.8,3-3.5,6-5.5,8.8c-3.9,5.7-7.4,11.8-12,16.8c-6.5,7.1-12.6,14.5-18.1,22.5c-1.3,1.9-2.3,4-3.5,6c0.2,0.2,0.5,0.4,0.7,0.7
		c3.3-5.1,8.5-6.9,13.7-8.7c2.2-0.8,4.8-0.9,7.1-0.5C28.7,151.5,34.5,152.2,41.1,151.7z M61.7,154.7c-0.3-0.1-0.7-0.1-1-0.2
		c-0.1-0.9-0.3-1.7-0.3-2.6c0-2.2-0.8-2.7-2.9-1.9c-2.1,0.8-4.4,1.2-6.5,1.8c-9,2.5-18.3,2.9-27.3,1.1c-7-1.4-17.8,4.3-20.9,10
		c-0.7,1.2-1,3-0.7,4.4c0.5,2.4,1.5,4.6,2.3,7c0.9,3,3.1,4.9,6,5.4c5.3,0.8,10.7,1.8,16,1.5c12-0.8,23.4-4.2,34.3-9.4
		c2.5-1.2,4.7-1.5,7.3-0.6c2.3,0.8,4.6,0.6,6.3-1.4c2.8-3.3,5.9-5.7,10.6-5.4c2,0.1,3-1.6,3.2-3.5c0.3-1.9-0.7-3.3-2.5-3.7
		c-1.6-0.4-3.2-0.4-4.8-0.5c-1.7-0.2-3.3-0.4-5-0.5c0-0.3,0-0.5,0-0.8c0.3-0.1,0.6-0.4,0.9-0.4c3.5,0.4,7,0.5,10.5,1.2
		c2.5,0.5,5,0,5.8-1.7c0.9-1.9,0-4.7-2.4-5.7c-2.5-1-5.2-1.3-7.9-1.8c-1.4-0.3-2.8-0.2-4.3-0.3c0-0.3,0.1-0.6,0.1-0.9
		c5.3-0.5,10.5-1.2,14.8,3.2c2.5-3.6,2.2-4.4-0.3-7.4c-2.8-3.5-6.2-3.9-10.2-3.4c-1.2,0.2-2.3,0.1-3.5,0.1c-0.6,0-1.2-0.3-1.8-0.5
		c0.3-0.4,0.6-0.8,0.8-1.3c1.9,0,3.9,0.2,5.8,0c4.1-0.6,7.5,0.4,9.9,3.9c0.3,0.4,1.2,0.7,1.6,0.5c0.4-0.2,0.7-1,0.8-1.5
		c0.5-3.9-3.7-8.7-7.6-8.9c-3.9-0.1-7.8-0.2-11.7-0.1c-2.4,0.1-4.6,0.8-5.9,3.2c-1.6,2.8-3.2,5.5-5,8.1
		C63.4,145.6,60.1,149.2,61.7,154.7z M72.1,96.3c1.8,6.6,3.4,12.5,7.3,17.5c0.1,0.1,0.3,0.3,0.4,0.4c6,3.9,12.2,7.3,19.5,8
		c1.5,0.1,2.2-0.2,2.7-1.5c1-2.6,2.2-5.2,3.1-7.9c2-5.7,2-5.8-4-5.5c-5,0.3-9.6-0.6-13.6-3.8c-1.9-1.5-3.9-2.9-5.7-4.5
		C79.2,96.8,76.1,96.7,72.1,96.3z M122.2,54.4c4.6-1.9,5.3-4.8,2.2-8.7C123.6,48.9,122.9,51.6,122.2,54.4z M128.2,46.8
		c1.4-1.7,1.6-3.8,0.3-5.8c-0.5-0.7-2-0.6-3-0.8c-0.1,0.9-0.6,2.1-0.3,2.7C125.9,44.4,127.1,45.5,128.2,46.8z M122.3,56.9
		c0.4,2.2,0.8,4.2,1.3,6.7c2.7-2.5,2.4-4.8,2.1-7.4C124.6,56.4,123.8,56.6,122.3,56.9z"/>
	<path class="st0" d="M89.8,98.5c1.7-0.3,3-0.5,4.2-0.8c4.5-1.4,8.9-2.8,13.4-4.2c0.7-0.2,1.5,0,2.2,0.1c-0.1,0.7-0.1,1.4-0.4,2
		C106,102.3,95.2,104.3,89.8,98.5z M106.8,95.4c-4.3,1.5-8.5,2.9-12.9,4.4C97.4,101.9,104.4,99.8,106.8,95.4z"/>
	<path class="st0" d="M98.6,82.8c1.2,0.8,3,1.3,3.5,2.4c0.4,0.9-0.5,2.7-1.4,3.7c-1,1.2-2.5,2.2-3.9,2.8c-1.6,0.6-3.9,1.4-5,0.7
		c-1.5-1-2.6-3.1-3.1-4.9c-0.8-2.9-0.5-6-1.3-8.8c-0.5-1.9-2-3.6-3.1-5.4c0.2-0.2,0.4-0.3,0.5-0.5c1.1,1.2,2.6,2.2,3.1,3.6
		c1,2.8,1.4,5.8,1.9,8.7c0.2,1.2,0,2.6,0.4,3.8c0.9,2.9,3.1,3.7,5.7,2c1.1-0.7,2.2-1.6,3.3-2.4c2.5-1.8,2.4-2.5-0.2-3.8
		c-0.3-0.1-0.6-0.4-0.8-0.6C98.3,83.5,98.5,83.1,98.6,82.8z"/>
	<path class="st0" d="M111.9,59.1c-1.1,1.1-1.5,1.6-2,1.9c-4.4,2.4-8.8,4.7-13.3,7c-0.5,0.3-1.4,0-2.1-0.1c0.3-0.7,0.4-1.7,0.9-2
		c4.4-2.5,8.9-4.9,13.5-7.2C109.5,58.4,110.4,58.9,111.9,59.1z"/>
	<path class="st0" d="M67.8,72.8c5.1,0,9.7,0,14.4,0C80.4,75.4,69.8,75.8,67.8,72.8z"/>
	<path class="st0" d="M96.8,70.8c2.8,0,5.8,0.8,8-0.2c2.2-1,3.6-3.8,5.4-5.8c0.8,1.3-2.3,6.6-4.4,7.9C103.7,73.8,98,72.7,96.8,70.8z
		"/>
	<path class="st0" d="M71.4,78.4c1,0.1,2,0,2.9,0.3c3,1.2,5.4,0.5,7.5-1.9c0.6-0.8,1.6-1.3,2.7-2C84.3,80.1,77.8,82,71.4,78.4z"/>
	<path class="st0" d="M103.5,146.8c0.4-1.4,0.4-2.7,1.1-3.4c0.7-0.7,2-0.6,3.1-0.9c0.2,0.8,0.6,1.6,0.5,2.4c-0.1,0.9-0.5,1.8-1,2.5
		c-0.5,0.6-1.5,1.6-1.9,1.4C104.4,148.4,104,147.4,103.5,146.8z"/>
	<path class="st0" d="M98,156.9c1.7-1.5,2.6-2.5,3.8-3.1c0.4-0.2,1.4,1,2.2,1.6c-1,1.1-1.8,2.4-3,3.3
		C100.8,158.9,99.5,157.9,98,156.9z"/>
</g>
</svg>
