<?xml version="1.0" encoding="utf-8"?>
<!-- Generator: Adobe Illustrator 18.1.1, SVG Export Plug-In . SVG Version: 6.00 Build 0)  -->
<!DOCTYPE svg PUBLIC "-//W3C//DTD SVG 1.1//EN" "http://www.w3.org/Graphics/SVG/1.1/DTD/svg11.dtd">
<svg version="1.1" id="Layer_1" xmlns="http://www.w3.org/2000/svg" xmlns:xlink="http://www.w3.org/1999/xlink" x="0px" y="0px"
	 viewBox="0 0 150 239.2" style="enable-background:new 0 0 150 239.2;" xml:space="preserve">
<style type="text/css">
	.st0{fill:#FF5722;}
</style>
<g id="sunburn-girl">
	<path class="st0" d="M113.6,211.8c1.5,0,3.1-0.2,4.6,0.1c1.8,0.4,2.3-0.3,2.1-1.9c-0.3-2.6-0.5-5.2-0.9-7.8
		c-0.5-3.2-1.1-6.4-1.7-9.8c-1.8,0.6-3.6,1.2-5.4,1.8c-0.1-0.2-0.2-0.4-0.3-0.6c0.5-0.4,0.9-0.9,1.5-1.2c1.3-0.7,2.7-1.3,4-2.1
		c0.4-0.3,0.6-1.1,0.6-1.7c-0.1-3.1-0.4-6.2-0.3-9.2c0.3-8.5,1.4-16.9,4.1-25c0.9-2.5,2.1-4.9,3.9-6.8c0.2,0.1,0.4,0.2,0.6,0.2
		c-0.4,1.1-0.8,2.2-1.3,3.2c-3,6.4-4.8,13.2-4.9,20.3c0,1.2,0.3,2.5,0.8,3.6c1.3,2.8,2.7,5.5,4.2,8.2c0.7,1.2,1.8,2.1,2.8,3.4
		c2.3-3.6,3.4-7.2,3.8-10.9c0.3-2.5,0.3-5.1,0.4-7.6c0.2-8.9,0.2-17.8,0.5-26.7c0.2-4.8,1.3-9.7,1-14.5c-0.4-5.9-3.5-10.7-8.6-14
		c-2.4-1.5-4.9-1.6-7.3-0.8c-4.2,1.3-8.4,3.1-12.5,4.7c-0.4,0.2-0.8,0.6-1,1.1c-1.2,2.6-2.3,5.1-3.5,7.7c-0.3,0.6-0.8,1.1-1.2,1.7
		c-0.2-0.1-0.4-0.2-0.6-0.3c0.9-2.8,1.9-5.7,2.9-8.7c-3.9,0.1-7.4-0.2-10.3-3c-0.3-0.3-1.5-0.1-1.9,0.3c-1.3,1.3-2.4,2.8-3.6,4.1
		c-0.4,0.4-1,0.7-1.7,0.8c0.6-2.8,3-4.4,4.6-6.7c-3.3-2.7-6.1-5.8-5.7-10.3c0.2-0.1,0.5-0.2,0.7-0.4c0.2,0.4,0.5,0.8,0.6,1.2
		c0.7,3.4,2.4,6.1,5.3,7.9c1.9,1.2,3.8,2.6,5.7,3.8c1.4,0.9,3,1.1,4.3-0.2c4.3-4.3,8.9-8.4,12.9-12.9c1.7-1.9,2.5-4.6,3.2-7.1
		c0.7-2.5,1.6-4.7,3.5-6.5c2.1-1.9,3.3-4.3,3.3-7.1c0-2.7,0.9-5,3.5-6.3c-1.6-1.5-4.2-1.2-6.2,0.5c-1.5,1.3-3,2.6-4.6,3.7
		c-0.8,0.5-1.8,0.9-2.7,1c-2.4,0.2-3.3-0.8-3.4-3.2c0-0.4,0-0.8-0.1-1.6c-1.1,0.7-2,1.2-3.2,1.9c0.1-1.3,0.3-2.5,0.4-4
		c-2.1,0.3-2.8,1.9-3.4,3.2c-1.4,3.2-3.7,6.3-2.1,10.7c0.8-1.3,1.3-2.2,1.9-3c0.2,0.1,0.4,0.2,0.6,0.2c-0.1,0.5-0.1,1-0.4,1.5
		c-0.6,1.2-1.2,2.3-2,3.4c-1.4,2-3.4,2.5-5.4,1.1c-0.6-0.5-1-1.7-1-2.5c0.1-4.4,1-8.6,3.3-12.4c0.1-0.2,0.1-0.4,0.1-0.5
		c-0.2-0.1-0.3-0.2-0.5-0.3c-0.8,1.4-2,2.7-2.5,4.2c-1.1,3.2-2,6.5-3,9.8c-0.2,0.7-0.6,1.5-1.1,2c-6.6,6.7-14.6,8.1-23.2,5.4
		c-2.4-0.7-4.5-3.1-6.4-5.1c-2.9-3.1-5.8-5.5-8.4-6.3c-0.1,0.2-0.2,0.5-0.2,0.7c0.9,6.8-1.3,13-4.1,18.8c-2.3,4.8-5.7,9.1-11,11.4
		c-2.4,1-4.6,2.4-6.9,3.6c0.2,2.5,0.4,4.8,0.5,7.1c0,0.5-0.5,0.9-0.8,1.4c-0.3,0-0.5-0.1-0.8-0.1c-0.2-2.4-0.3-4.7-0.4-6.9
		c-3,0.6-5.9,1.1-9,1.7c-0.2,2.4-0.4,4.9-0.6,7.5c-0.2,0-0.5,0-0.7,0c0-2.4,0-4.9,0-7.3c-5.3-1.2-9.7-0.5-13.3,3.8
		c-3.4,4-4.5,8.6-4.7,13.7c-0.3,6.7,1.4,13,2.7,19.4c1.5,7.5,2.9,15,4.8,22.3c1.5,5.6,3.8,11,5.8,16.5c0.1,0.3,0.4,0.5,0.7,0.9
		c0.3-0.6,0.6-1,0.8-1.5c0.9-2.5,1.9-4.9,2.5-7.5c0.3-1.4,0.2-3.1-0.2-4.5c-2.4-7.8-5-15.5-7.5-23.2c-0.3-0.9-0.2-2,0.1-3.1
		c4,12.2,6.7,24.9,14.5,35.3c1.1-0.4,2.2-0.8,3.3-1.2c0.1,0.2,0.2,0.3,0.2,0.5c-0.3,0.4-0.5,1-0.8,1.2c-2.4,1.2-1.5,2.7-0.7,4.4
		c1.2,2.5,2.2,5.2,3.2,7.8c0.4,1,1,1.6,2,1.2c4.8-1.7,9.7-0.4,12.3-0.5c-2.9,0.5-8,1.4-13.1,2.3c1.7,8.1,0.5,16-0.4,23.9
		c0,0.2,0,0.4-0.1,0.6c-0.3,0.6-0.7,1.2-1.1,1.8c-0.2-0.7-0.6-1.4-0.5-2c0.4-4.8,1-9.6,1.3-14.5c0.3-5.2-0.8-10.1-3.2-14.8
		c-2-4-3.7-8.1-5.5-12.2c-0.3-0.6-0.5-1.2-0.9-1.7c-0.3-0.4-0.8-0.8-1.2-0.7c-0.4,0.1-1,0.6-1,1c-0.5,3.7-2.3,6.9-3.7,10.3
		c-0.7,1.7-0.3,3.7-0.6,5.6c-0.7,5.5-1.8,10.8-4.1,15.9c-1.3,2.9-2.1,6-3.2,9.1c-0.4,1.2-0.5,2.8-1.9,3.4c-0.2-0.1-0.5-0.2-0.7-0.3
		c0.8-2.6,1.3-5.4,2.5-7.9c2.2-4.9,4-9.9,4.5-15.4c0.2-2.1,0.7-4.1,1.2-6.2c1-4.4-0.4-8.4-1.9-12.4c-1.8-4.9-3.7-9.8-4.9-14.9
		c-2.2-9.7-4.2-19.5-5.8-29.3c-1-5.9-1.5-12,0.6-17.9c1.6-4.6,4.6-8.1,9-10.3c1.3-0.6,2.9-0.7,4.4-0.9c3.9-0.3,7.8-0.3,11.8-0.7
		c1.1-0.1,2.2-0.8,3.2-1.3c3-1.6,5.9-3.4,9-4.9c3.7-1.8,6.1-5,8-8.2c3.7-6.4,6-13.4,4.8-21c-0.1-0.7-1-1.3-1.7-1.9
		c-0.4-0.3-1-0.4-1.5-0.4c-4.6-0.3-8.2-2.7-11.7-5.2c-2.6-1.8-3.8-4.3-3.9-7.5c-0.1-6.3,3.1-11.4,6-16.6c1.3-2.3,3-4.5,4.4-6.8
		c2.5-3.9,3.1-8.3,3.4-12.8c0.3-4.8,0.8-9.5,2.8-14c1.8-4.1,4.5-7.4,8.3-9.7c1.4-0.8,2.9-1.6,4-2.8c4-4.2,9.2-5.9,14.8-6.7
		c8.4-1.3,16.8-1.6,25.1,0.8c6,1.7,10.8,5.1,14.9,9.8c2.9,3.4,5.8,6.8,7.5,11c1.8,4.4,3.6,8.9,5.6,13.2c1.9,4,3.2,8.2,3.8,12.6
		c0.4,3.1,1.2,6.2,1.7,9.3c0.4,3.1,0.7,6.3,0.7,9.4c0.1,4.5-3,8.7-7.3,10.1c-2.6,0.8-3.7,2.1-3.8,4.8c0,3.5-1.3,6.2-3.8,8.8
		c-1.4,1.5-2.6,3.6-3,5.6c-1.3,5.9-5.2,9.8-9.4,13.7c-1.7,1.5-3,3.4-4.2,5.2c3.2-1.2,6.2-2.6,9.5-3.5c2.6-0.7,5.3-1,7.9-1.4
		c3.8-0.6,6.6,1.4,8.4,4.3c2.3,3.6,4.3,7.5,5.8,11.6c0.7,2,0,4.6-0.4,7c-1.4,9.6-2.3,19.2-1.9,28.8c0.1,2,0.2,4.1,0.3,6.1
		c0,1.9-0.1,3.8,0,5.7c0.1,4.3-1.2,8.3-3.1,12.1c-0.3,0.7-0.3,1.8,0,2.5c1.6,3.9,3.2,7.7,5,11.5c1.5,3.3,3.1,6.5,4.8,9.7
		c2.4,4.6,4.2,9.2,5.2,14.4c0.9,4.4,2.6,8.7,3.9,13c0.2,0.6,0.3,1.3,0.5,2c-0.2,0.1-0.5,0.2-0.7,0.4c-0.4-0.7-1-1.3-1.2-2
		c-2-7-4-14-6.1-20.9c-0.5-1.8-1.2-3.7-2.3-5.2c-3.8-5-5.5-11-7.9-16.7c-1.2-2.7-2.6-5-4.8-6.9c-1.5-1.3-2.7-3.1-3.7-4.9
		c-1.1-1.7-1.8-3.6-2.7-5.5c-0.2-0.3-0.5-0.6-1.3-0.8c0,2.3,0.1,4.6,0,6.9c-0.5,7.2,1.3,14.2,2.1,21.3c0.5,4.7,0.7,9.6,0.2,14.2
		c-0.6,5.1-0.3,10.1,0.3,15.1c0.1,1.1,0.2,2.2,0.3,3.3c-0.2,0.1-0.4,0.2-0.7,0.3c-0.3-0.6-0.7-1.2-0.8-1.8
		c-0.9-6.2-1.1-12.4-0.6-18.6c0.2-3,0.1-3-3-3.4c-0.7-0.1-1.3,0-2-0.1c-0.7-0.2-1.3-0.5-1.9-0.8
		C113.4,212.4,113.5,212.1,113.6,211.8z M108.7,75.5c0.6-0.7,1.4-1.3,1.6-2.1c0.2-0.9,0-2.3-0.6-2.9c-0.4-0.5-2-0.5-2.7-0.1
		c-1.9,1.1-3.7,2.3-5.2,3.8c-3.9,3.8-4.8,8.9-5.3,14C96.3,90.4,97,91,99,90.7c0.8-0.1,1.6-0.9,2.7-1.6c-2.3-1.1-2.3-2.8-2.1-4.4
		c0.6-4.2,2.5-7.9,5.3-11c0.7-0.8,2-1,3-1.5C108.1,73.1,108.3,74.1,108.7,75.5z"/>
	<path class="st0" d="M83.1,165.2c-0.4,6.7,2.4,12.8,4.1,19.1c-0.3,0.1-0.5,0.2-0.8,0.3c-0.3-0.5-0.8-0.9-1-1.4
		c-1-2.9-2.1-5.8-2.9-8.7c-0.4-1.6-0.6-3.1,0.5-4.8C83.7,168.6,83.1,166.7,83.1,165.2z"/>
	<path class="st0" d="M108.1,211.6c-3.1,2-12,1.2-14-0.8c1.3-1,2.4-1.3,4-0.1c1,0.7,2.7,0.2,4,0.3
		C103.9,211.1,105.7,211.3,108.1,211.6z"/>
	<path class="st0" d="M71.9,207c2.9-2.3,11.7-1.1,13.8,1.8C81,208.3,76.6,207.7,71.9,207z"/>
	<path class="st0" d="M96.7,133.8c1,2.6-3.6,10.6-6.7,11.2C92.3,141.1,94.4,137.6,96.7,133.8z"/>
	<path class="st0" d="M53.3,162.6c1,0.1,1.7,0,2.2,0.4c2.7,1.8,4.2,1.8,6.7-0.1c0.7-0.5,1.4-1,2.1-1.5c0.7,1.3,0.1,2.4-2,3.7
		C60.1,166.6,55.7,165.5,53.3,162.6z"/>
	<path class="st0" d="M103.9,194.4c-3.5,2.2-10.9-0.6-12.1-4.6c1.6,1,2.7,1.9,4,2.5c1.3,0.6,2.6,1.1,4,1.5
		C101.1,194.1,102.5,194.2,103.9,194.4z"/>
	<path class="st0" d="M61.9,207.4c-3.9,0.9-7.7,1.8-11.6,2.6c-0.2,0-0.6-0.7-0.9-1.1C51.5,207.6,60.4,206.3,61.9,207.4z"/>
	<path class="st0" d="M87.5,150.8c-0.3,1-0.5,2.2-1.1,3c-1.5,2.1-2.5,4.2-2.5,6.8c0,0.5-0.2,1.1-0.3,1.7c-2.4-1.5-0.6-7.7,3.1-11.7
		C87,150.7,87.3,150.8,87.5,150.8z"/>
	<path class="st0" d="M35.2,166.3c1,2.5,2.4,5,2.9,7.6c0.5,2.5,0.1,5.2-0.1,7.9c0.9-5.5-3.4-9.9-3.5-15.3
		C34.7,166.5,35,166.4,35.2,166.3z"/>
	<path class="st0" d="M73.2,143.3c-1.4,3.8-2.9,7.6-4.4,11.6C67.7,152.1,71,143.5,73.2,143.3z"/>
	<path class="st0" d="M34.5,134.8c1.5,3.1,3,6.2,4.6,9.5C35.9,143.2,32.9,136.8,34.5,134.8z"/>
	<path class="st0" d="M32,160.6c-2.2-3.4-4.2-6.4-6.2-9.5C28,151.1,32.8,158,32,160.6z"/>
	<path class="st0" d="M43.4,150.5c2.3,2.9,5.1,5.3,6.9,9.1C48,158.9,43.1,152.3,43.4,150.5z"/>
	<path class="st0" d="M75.3,136.6c0.7-3.5,3.4-6,5-9.2C81.1,129.4,79.5,132.3,75.3,136.6z"/>
	<path class="st0" d="M20.6,135.1c0.9,2.9,1.8,5.8,2.8,8.9C20.8,143.1,19.4,138.3,20.6,135.1z"/>
	<path class="st0" d="M37.7,185.5c-1.5,2.1-3,4.2-4.6,6.4c-1.1-1.7,1.8-6.1,4-6.9C37.4,185.1,37.5,185.3,37.7,185.5z"/>
</g>
</svg>
