<?xml version="1.0" encoding="utf-8"?>
<!-- Generator: Adobe Illustrator 19.2.1, SVG Export Plug-In . SVG Version: 6.00 Build 0)  -->
<svg version="1.1" id="Layer_1" xmlns="http://www.w3.org/2000/svg" xmlns:xlink="http://www.w3.org/1999/xlink" x="0px" y="0px"
	 viewBox="0 0 150 381.2" style="enable-background:new 0 0 150 381.2;" xml:space="preserve">
<style type="text/css">
	.st0{fill:#FF5722;}
</style>
<g id="sunburn-boy">
	<path class="st0" d="M70.9,274.3c-0.8,4-1.2,7.8-2.3,11.4c-0.9,2.6-2.6,5.1-4.3,7.3c-5.6,6.8-9.7,14.3-12.1,22.7
		c-1.1,3.8-2.6,7.4-4,11.1c-1.6,4-0.3,7.4,2.4,10.1c2,2,4.8,3.2,7.4,4.6c1.4,0.7,3,0.9,4.4,1.6c1.7,1,3.3,2.2,4.9,3.4
		c2.3,1.8,4.5,3.6,6.7,5.5c1.7,1.5,1.7,4.1,0,5.6c-2.9,2.6-6.4,3.3-10.1,3.6c-3.4,0.3-6.6-0.8-9.9-1.4c-3.4-0.6-6.9-0.8-10.4-0.7
		c-5.5,0.2-10.7-0.5-15.7-2.7c-2.2-0.9-4.2-2.1-5.5-4.1c-0.8-1.3-1.2-2.9-1.5-4.4c-0.8-4.4-0.2-8.6,2.3-12.5c1.3-2,1.9-4.3,1.9-6.9
		c-0.1-5.7,0-11.5,0.3-17.2c0.3-5.1,1.6-10,3.6-14.7c1-2.4,2-4.8,3.3-7c1-1.6,2.6-2.9,4.2-4.6c-0.7,0-1.2,0-1.7,0
		c-5-0.1-10.1-0.2-15.1-0.3c-2.5-0.1-5.4-3.3-5.8-6.3c-0.5-3.5-1.2-7.1-1.7-10.6c-0.4-3-0.8-6.1-1-9.1c-0.3-4.7-0.5-9.4-0.6-14.1
		c0-2.3,0.2-4.5,0.6-6.8c0.4-2.3,1.8-3.2,4.2-3.5c2.2-0.2,4.5-0.6,6.7-0.9c0.4-0.1,0.9-0.5,1-0.9c0.5-1.2,0.9-2.4,1.2-3.6
		c0.2-0.7,0.2-1.5,0-2.1c-1.6-4.6-2.8-9.4-3.3-14.3c-0.4-3.8-0.8-7.7-4-10.5c-1-0.9-1.9-2.1-2.5-3.3c-1.2-2.5-2.2-5.1-3.4-7.6
		c-1.2-2.5-2.5-5-3.7-7.5c-1.3-2.5-2.6-5.1-3.7-7.6c-1-2.3-1.8-4.6-2.7-7c-1.7-4.4-0.8-8.8,0.8-13c2.4-6.4,5.3-12.7,7.7-19.1
		c1.6-4.4,2.7-8.9,4.2-13.3c1.7-4.9,3.4-9.9,5.5-14.7c1-2.3,2.5-4.3,3.9-6.4c1.5-2.1,3-4.3,4.7-6.2c2.3-2.4,4.7-4.7,7.2-6.8
		c3.6-3.1,7.5-5.8,11-8.9c1.7-1.5,3.1-3.5,4.6-5.3c1.9-2.2,1.7-5.1,2.6-7.7c0.6-1.8-0.1-3.1-1.3-4.2c-2-1.9-2.7-4.3-3.2-6.8
		c-0.5-2.6-0.7-5.1-0.9-7.7c-0.1-2.3-0.1-4.5,0-6.8c0.1-3.3,1.6-4.8,4.9-4.9c0.3,0,0.6,0,0.8,0c0.6-3,0.9-6,1.8-8.9
		c1.3-4,3.6-7.5,6.2-10.8c2.8-3.4,5.6-6.9,8.4-10.3c3.3-3.9,7.4-6.5,12.6-6.9C85.7,0.3,89-0.1,92.3,0c9,0.4,16.8,3.5,22.8,10.7
		c3.1,3.7,4.8,8,7,12.1c0.6,1,0.6,2.4,0.8,3.6c0.4,2.9,0.9,5.8,1,8.6c0.2,3.6,0.1,7.3,0.2,11c0.1,3.7-1.7,6.8-2.5,10.2
		c-0.3,1.1-1.3,2-1.9,3c-1.1,1.7-2.1,3.5-3.2,5.3c-1.7,2.8-3.4,5.6-5.3,8.3c-2,2.9-4.2,5.6-6.3,8.5c-0.5,0.7-0.8,1.6-1.3,2.3
		c-1.2,2-2.4,3.9-3.6,5.9c-0.5,0.8-1,1.7-1.5,2.5c-1.1,1.5-2.2,3-3.3,4.6c2.5,1.3,4.4,3.6,6.1,6.3c1.3,2.1,1.8,4.4,2.1,6.7
		c0.4,3.6,0.6,7.2,1,10.8c0.5,4.2,0.1,8.4-0.2,12.6c-0.4,5.8,0,11.4,2.1,17c2.5,6.7,4.3,13.6,5.6,20.6c0.7,4,0.6,8.1,2,12.1
		c1.4,4,2.5,8.1,3.6,12.2c0.5,2.1,1.2,4,2.8,5.5c0.7,0.6,1.4,1.2,2.1,1.8c0.8,0.7,2.3,1.2,1.1,2.8c-0.1,0.1,0.2,0.6,0.3,0.9
		c1.3,3.3,3,6.5,3.7,9.9c0.8,3.4,0.8,7-1.7,10c-1.1,1.4-1.9,3-3.1,4.3c-0.6,0.6-1.6,0.8-2.8,1.3c0.2,1,0.4,2.5,0.7,4
		c0.5,2,1,4.1,1.7,6.1c0.4,1.2-0.1,2-0.6,2.9c-0.3,0.5-0.6,1.1-0.6,1.6c0,2.2,0.2,4.4,0.3,6.5c0.1,4.5,1.2,8.8,2.6,12.9
		c2.4,7.5,3.1,14.9,0.9,22.5c-0.7,2.4-0.6,4.8,0.2,7.2c0.6,2,0.9,4,1.1,6.1c0.4,3.6,0.8,7.3,0.9,10.9c0,2.7-0.3,5.5-0.9,8.2
		c-1.4,5.8-2.1,11.6-1.6,17.5c0.2,2.7,0.1,5.4,1.3,8c2,4.4,4.8,8,9.6,9.9c1.4,0.6,2.4,2.2,3.7,3.1c2.7,1.9,5.6,3.6,8.3,5.6
		c1.6,1.1,2.4,2.7,2.5,4.7c0,1.1,0.3,2.2,0.1,3.3c-0.2,0.8-0.7,1.6-1.4,2.1c-1.7,1.3-3.6,2.4-5.4,3.5c-0.3,0.2-0.8,0.1-1.2,0.2
		c-1.5,3.4-5.9,3.6-8.6,2c-1-0.6-2.1-1.1-3.2-1.6c-2.7-1.2-5.2-3-7.8-4.5c-1.6-1-3.1-2.1-4.8-2.8c-4.3-1.7-7.7-4.6-10.5-8.1
		c-1.8-2.2-2.6-5.1-2.7-8.1c-0.1-2.1,0.1-4.3,0-6.4c-0.2-3.7-0.5-7.4-0.7-11.1c-0.3-5-1.4-9.8-2.9-14.6c-0.9-2.9-1.7-5.8-2.4-8.8
		c-0.5-2.2-0.7-4.5-0.9-6.8c-0.2-2.7-0.5-5.5-0.5-8.3c0-2.3,0.4-4.5,0.5-6.8c0-0.5,0-1.1-0.3-1.6c-1.8-3.1-4-5.9-5.3-9.2
		c-1.4-3.5-2.1-7.3-3.1-11c-0.8-3.2-1.6-6.5-2.4-9.7c-0.7-2.7-2.2-5.1-4-7.3c-2.3,1.6-1.7,3.7-1.3,5.8c0.8,4.2,2,8.4,1.8,12.8
		c-0.1,1.6-0.8,2.6-1.9,3.6c-3.3,2.8-6.4,2.1-8.9-0.7C71.7,274.9,71.4,274.7,70.9,274.3z M42.8,127.7c0.1,0.1,0.2,0.2,0.2,0.3
		c1-0.4,2.1-0.8,3-1.3c2.5-1.5,4.9-3.2,7.3-4.7c0.4-0.2,1.1,0,1.7,0c-0.1,0.5,0,1.2-0.3,1.5c-3.6,3.1-7.7,5.5-12.3,6.8
		c-0.7,0.2-1.4,0.7-1.7,1.3c-3.3,7.1-6.6,14.2-9.8,21.4c-0.2,0.4-0.2,1,0,1.4c2.8,9.3,4.2,18.9,4.1,28.7c0,1.3,0.2,2.6,0.3,3.8
		c0.1,0.8,0.5,1.4,1.5,1.5c0.9,0.1,1.8,0.4,2.7,0.8c4.5,2.1,9.3,3.2,14.2,3.4c1.2,0.1,2.7-0.1,3.6,0.5c1.1,0.7,2,0.7,3.1,0.7
		c1.3,0,2.5,0,3.8,0c6.8,0.3,13.5-0.4,20.2-1.5c3.7-0.6,7.3-1.4,10.9-2.4c2.1-0.6,4.2-1.6,6.2-2.6c0.5-0.2,0.8-1.1,0.9-1.7
		c0.2-1.3,0.1-2.6,0.2-3.9c0.5-3.3,1.3-6.6,1.5-9.9c0.4-5,0.6-10,0.6-15c0-1.9-0.4-3.9-1-5.6c-2-5-3.3-10-2.8-15.4
		c0.2-2.4,0.8-4.8,0.8-7.2c0.2-6.8-0.4-13.6-1.5-20.3c-0.7-4.4-2.7-7.9-7.1-9.5c-1.2-0.4-2.6-0.5-3.8-0.2c-2.3,0.5-4.5,1.4-6.7,2.2
		c-3.2,1.2-6.6,1.3-9.8,0.9c-3-0.3-5.2-2.6-7.2-4.6c-2.4-2.3-4.3-5.2-6.5-7.7c-2.2-2.5-3.5-5.4-4.3-8.6c-0.4-1.8-0.8-3.6-1.2-5.6
		c-0.3,0.4-0.5,0.6-0.7,0.9c-2.4,2.7-4.5,5.7-7.3,8c-5,4-10.1,7.8-14.7,12.3c-1.1,1.1-2.1,2.4-3,3.6c-2.2,3.1-4.6,6.2-6.5,9.5
		c-1.6,2.9-2.5,6.2-3.6,9.3c-1.4,4.1-2.9,8.1-4.2,12.2c-1.1,3.3-1.9,6.7-3.1,9.9c-2.1,5.4-4.6,10.7-6.7,16.2
		c-1.5,3.8-2,7.8-0.7,11.9c0.8,2.3,1.8,4.5,2.7,6.7c0.8,1.9,1.5,3.9,2.5,5.8c1.7,3.3,3.7,6.5,5.2,9.9c1.7,4.1,3.6,7.8,6.6,11.1
		c1.2,1.3,2,3.1,2.4,4.8c0.8,3.7,1.4,7.5,1.8,11.3c0.5,4.3,2.2,8.1,4,11.9c0.8,1.6,1.9,2.2,3.7,1.8c-0.8-0.9-1.6-1.6-2.3-2.4
		c-0.4-0.4-0.9-0.9-1-1.4c-1.3-4.3-3.3-8.6-2.2-13.3c0.1-0.4,0.4-0.8,0.6-1.2c0.2,0.3,0.5,0.7,0.6,1c0.1,1.4-0.2,2.9,0.1,4.3
		c0.7,2.6,1.4,5.3,2.7,7.7c0.9,1.7,2.6,3,4,4.4c0.1-0.1,0.3-0.2,0.4-0.4c-0.8-1.1-1.8-2.1-2.2-3.3c-1.7-4.2-3.4-8.4-2.4-13.1
		c0.1-0.4,0.5-0.7,0.7-1.1c0.3,0.4,0.8,0.8,0.7,1.2c-0.6,4,1.3,7.4,2.3,11c0.2,0.8,0.9,1.5,1.2,2c1.3-0.1,2-1.8,3.6-0.5
		c-0.6,0.7-1.3,1.3-1.9,2c2.2,2,3.8,2.2,6.5,0.5c-0.7-0.6-1.4-1.3-2.1-1.9c-1.1-1-2.3-1.9-2.1-3.7c0-0.3-0.4-0.9-0.8-1.2
		c-2.4-1.8-4.2-3.9-3.9-7.2c0.1-1.4-0.1-2.8,0.1-4.2c0-0.5,0.5-1,0.8-1.5c0.3,0.5,0.9,1,1,1.5c0.1,1.6-0.2,3.2,0.1,4.8
		c0.2,1.2,1,2.3,1.7,3.4c1,1.6,3,1.6,4.5,2.3c0.9,0.5,1.7,0.4,2.4-0.3c0.9-0.9,1.9-1.7,2.7-2.7c0.6-0.7,0-2-0.8-2
		c-1.4-0.1-2.9,0-4.4,0c-0.4,0-0.9-0.3-1.3-0.5c0.2-0.4,0.4-0.9,0.8-1.3c0.2-0.2,0.6-0.1,1-0.2c0.1-1.5,0.1-2.9,0.3-4.4
		c0.1-1.1,0.3-2.1,0.6-3.2c0.1-0.4,0.7-0.7,1.1-1c0.2,0.4,0.5,0.8,0.6,1.3c0.1,0.4,0,0.9-0.1,1.3c-0.3,1.3-0.3,2.4,0.7,3.5
		c1.6,1.7,3,3.5,4.6,5.2c0.5,0.6,1.2,1.1,1.8,1.5c1,0.5,1.5-0.4,2-1c0.2-0.2,0.1-0.9-0.1-1.1c-2.2-1.5-3.1-3.9-4.2-6.1
		c-0.5-1-0.7-2.1-1.2-3c-3-4.8-6.8-8.9-11-12.6c-2.6-2.3-3.9-5.6-6.5-7.8c-0.1-0.1-0.1-0.3-0.2-0.4c-1.7-3.3-3.3-6.7-5-10
		c-2.1-4.2-2.6-8.8-3.6-13.3c-0.4-2.1-0.7-4.2-1.3-6.3c-0.4-1.3-1.3-2.3-1.7-3.6c-0.2-0.6-0.2-1.8,0.2-2.1c0.9-0.5,1.3,0.3,1.7,1.1
		c0.9,1.6,1.8,3.2,2.8,4.9c0.2-0.3,0.4-0.4,0.5-0.6c1.9-3.7,4-7.2,5.7-11c3.7-8.1,7.2-16.3,11.6-24c1-1.7,1.6-3.6,2.5-5.4
		c0.2-0.5,0.7-1,1.1-1.3c0.3-0.2,0.9-0.1,1.1,0.1c0.2,0.1,0.3,0.7,0.2,1c-0.7,2-1.5,3.9-2.3,5.9C44.5,124.6,43.6,126.1,42.8,127.7z
		 M119.3,246c-3.4,0.6-6.4,1.5-9.5,1.7c-4.3,0.4-8.6,0.3-13,0.4c-0.4,0-0.8,0-1.2-0.1c-2.5-0.7-5-1.4-7.5-2.1
		c-1.2-0.3-2.3-0.1-3.2,0.8c-1.8,1.8-1.7,4.8-0.1,6.7c1.1,1.2,2.1,2.7,2.6,4.2c1.6,4.9,2.9,10,4.3,14.9c0.8,2.8,1.1,5.9,2.5,8.4
		c2.4,4.3,5.4,8.1,8.2,12.2c0.6,0.8,1.2,1.5,1.6,2.4c0.2,0.4-0.1,1.2-0.4,1.5c-0.2,0.2-1,0-1.4-0.3c-0.9-0.6-1.6-1.4-2.4-2.2
		c-0.1,0.6-0.3,1.4-0.2,2.1c0.3,4.3,0.4,8.6,0.9,12.9c0.5,3.6,1,7.2,2.2,10.6c2.5,7,3.6,14.2,4,21.5c0.2,4.7,0.2,9.4,0.3,14
		c0,0.3,0.1,0.7,0.2,1c1.1,5,4.2,8.5,8.5,10.9c2.4,1.4,4.9,2.6,7.3,4.1c1.2,0.7,2.3,1.7,3.4,2.6c0-0.9-0.4-1.6-0.5-2.4
		c-0.1-0.5,0.3-1,0.5-1.5c0.4,0.3,1,0.6,1.2,1c0.8,1.3,1.3,2.7,2.1,4c1,1.6,2.9,1.5,3.9,0c0.4-0.7,0.9-1.4,1.5-1.8
		c0.8-0.5,0.7-0.8,0.1-1.5c-0.6-0.8-1.1-1.7-1.6-2.6c-0.6-0.9-0.2-1.4,0.8-1.9c2.3,2.7,3.9,6.1,7.4,7.7c0.3-0.3,0.6-0.7,0.6-0.8
		c-1-2.4-1.9-4.5-2.9-6.6c-0.3-0.7-0.7-1.4,0.2-1.7c0.4-0.1,1.2,0.5,1.5,0.9c1.1,2,2,4,3,6c0.7-0.4,1.3-0.8,2-1.3
		c-1.1-1.6-2.2-3.2-3.1-4.8c-0.2-0.4,0.1-1,0.1-1.5c0.5,0.1,1.1,0.1,1.3,0.4c1,1.2,1.9,2.5,2.9,3.8c0.2-1.8-0.5-3-2.1-3.9
		c-1.4-0.8-2.8-1.7-4.1-2.6c-2.5-1.7-4.8-3.6-7.3-5.2c-3.8-2.3-7.1-4.9-9.5-8.8c-1.7-2.8-2.7-5.7-2.7-8.9c-0.1-3.2,0.1-6.5,0.3-9.7
		c0.2-2.8,0.7-5.7,1.1-8.5c0.4-3.3,1.1-6.5,1.2-9.8c0-4.1-0.4-8.3-0.8-12.4c-0.2-1.9-0.7-3.8-1.2-6c-0.8,1.4-1.5,2.5-2.3,3.6
		c-0.3,0.4-1,0.4-1.5,0.6c-0.2-0.6-0.4-1.1-0.5-1.7c0-0.3,0.2-0.6,0.3-0.9c1.4-3.4,2.9-6.7,4.3-10.1c1.2-2.7,0.8-5.6,0.9-8.5
		c0.1-3.6-0.4-7.1-1.5-10.5c-2-5.9-3-12-2.7-18.3C119.3,247.6,119.3,246.7,119.3,246z M49.8,41.7c1.4,0.3,2.8,0.3,3.7,1
		c1.1,0.7,1.9,2,2.8,3c0.4,0.5,0.9,1,0.1,1.6c-0.9,0.8-1.3-0.1-1.7-0.5c-0.8-0.8-1.5-1.7-2.3-2.5c-0.7-0.7-1.4-0.5-1.9,0.4
		c-1.2,2-0.9,4.2-0.8,6.8c0.8-0.9,1.3-1.5,1.9-2.1c0.4-0.4,0.9-0.8,1.4-0.8c0.5,0,1.1,0.4,1.6,0.7c-0.3,0.5-0.6,1-1.1,1.3
		c-0.5,0.5-1.2,0.8-1.7,1.3c-0.1,0.1,0.2,1,0.3,1c2.3,0.1,3.3,2,4.5,3.5c1.9,2.2,1.6,6.2-0.5,8.1c-0.4,0.3-0.6,0.9-0.7,1.4
		c-0.8,3.2-0.8,6.5,0,9.7c0.8,3.4,1.5,6.9,3.2,9.9c2.3,4.1,5.3,7.8,8.9,11c3.6,3.4,7.7,4,12.2,2.8c3.2-0.9,6.4-2.1,9.6-3.1
		c3-0.9,5.3-2.6,6.7-5.4c0.3-0.7,0.8-1.2,1.2-1.8c1.9-3,3.8-6,5.7-9c-3.8,0.3-6.5-0.9-8.8-3.4c-2.3,1.7-2,4.2-2.1,6.4
		c-0.2,4.5-0.1,4.5-4.3,5.3c-0.8,0.1-1.7,0-2.5-0.2c-0.3-0.1-0.7-0.5-0.8-0.8c-0.3-1.6-1.4-1.7-2.7-1.6c-1.9,0.1-3.2-1.3-3.3-3.2
		c-0.1-1.7,0.8-2.5,3-2.5c-0.2,0.4-0.5,0.7-0.9,0.9c-1.3,0.8-1.6,1.7-0.6,2.8c0.5,0.5,1.5,0.8,2.2,0.8c1.5,0,2.4,0.4,3.1,1.8
		c0.2,0.4,0.9,0.8,1.4,0.9c0.7,0.2,1.4,0.1,2.1,0c1.3-0.1,2.2-0.6,2.2-2.1c0-1.7,0.2-3.5,0.1-5.2c-0.1-2.1,2.7-5.3,4-6.1
		c0.2-0.1,0.6-0.1,0.8,0c0.1,0.1,0.1,0.5,0.1,0.8c0,0.3,0,0.8,0.2,1c1.6,2,4.1,1.6,6.3,2c1.5,0.3,2.5-0.3,3.4-1.6
		c1.7-2.4,3.5-4.8,5.1-7.2c1.6-2.4,3-5,4.5-7.5c-2.5-0.6-4.3,0.1-6.1,1.4c-1.5,1.1-2.1,0.5-2.5-1.3c-0.4-2-1.1-4.1-2-5.9
		c-0.9-1.8-2.3-3.3-3.2-5.1c-0.6-1.3-1.5-1.6-2.8-1.6c-3.1,0.1-6.1-0.2-8.7-2.3c-2-1.6-4-3.2-5.8-5c-2.6-2.7-5.6-3.2-9.1-2.3
		c-1,0.2-2,0.2-2.9,0.5c-1.1,0.2-2.3,0.4-3.3,0.9c-4.3,2.2-5.9,6.6-8.1,10.6c-0.3,0.5-0.9,0.9-1.3,1.3c-0.3-0.5-0.8-1-1-1.6
		c-0.1-0.3,0.1-0.8,0.1-1.1c0.2-1.4,0.2-2.6-0.8-3.8c-1.4-1.7-2.8-3.4-4.1-5.3c-0.8-1.2-1.8-1.3-3-1C50.2,39.9,49.8,40.9,49.8,41.7z
		 M67.2,348.1c-0.4-0.3-0.7-0.6-1.2-0.8c-4.2-1.8-8.3-3.6-12.5-5.4c-1.7-0.7-3.3-1.4-4.6-2.8c-0.3-0.3-1.4-0.3-1.9-0.1
		c-3.4,1.7-6.7,3.6-10,5.3c-0.3,0.1-1,0-1.2-0.3c-0.8-1-0.1-2,1.4-2.8c2.3-1.1,4.7-2.3,6.8-3.7c2.3-1.5,2.2-1.8,1.3-4.2
		c-0.1-0.3-0.2-0.6-0.3-0.8c-0.8-3.2,0.1-6.2,1.1-9.1c0.7-2.3,1.7-4.5,2.5-6.7c1.5-4,2.7-8.2,4.6-12c2.2-4.1,5.2-7.8,7.8-11.6
		c1.7-2.6,4-4.9,5.1-7.7c1.5-4.1,2.2-8.5,3.1-12.8c0.2-1.2-1.1-2.5-2.2-2.2c-2,0.5-3.9,1.2-5.9,1.8c-0.9,0.3-1.2,0.9-1.1,1.8
		c0.1,1.4,0.1,2.8,0,4.2c-0.1,1.9-1.1,3.4-2.5,4.4c-1.7,1.3-3.9,1.6-6,1.8c-3,0.2-6,0.4-9,0.6c-0.9,0.1-2,0.1-2.5,0.6
		c-2.2,2-4.6,3.9-6.2,6.4c-1.8,2.9-2.9,6.2-3.9,9.5c-0.9,2.6-1.6,5.4-1.8,8.2c-0.4,6.4-0.6,12.7-0.6,19.1c0,2.7-0.3,5.3-1.9,7.5
		c-2.3,3.2-2.6,6.7-2.4,10.5c0.1,3.2,1.2,5.6,4.2,7c1.5,0.7,3,1.2,4.5,1.8c4.9,2,10.1,1.6,15.2,1.5c3.8-0.1,7.4,0.8,11.1,1.2
		c1.3,0.1,2.6,0.3,4,0.4c0-0.2,0.1-0.3,0.1-0.5c-0.4-0.3-0.8-0.7-1.2-1c-1.3-1-2.6-1.9-3.9-2.9c-0.3-0.2-0.2-1.1,0-1.5
		c0.1-0.2,1-0.3,1.3-0.1c0.9,0.4,1.7,1,2.5,1.6c1.4,0.9,2.8,1.9,4.5,3c0.3-0.2,0.9-0.6,1.5-1c-1.9-1.9-3.6-3.6-5.4-5.4
		c0-0.1,0.1-0.2,0.1-0.3c1,0.1,2,0.2,3.1,0.4C63.7,348.7,63.8,348.7,67.2,348.1z M41.3,225c3.8,3.2,7.3,6.8,6.6,12.6
		c0.6,0,0.9,0,1.2,0c0.9,0,2.1-0.2,2,1.1c0,1.1-1.1,1-2,1c-6.9,0-13.8,0-20.7,0c-1.5,0-2.9,0.3-4.4,0.5c-0.9,0.1-2.2,0.4-2.4-0.7
		c-0.2-1.2,1-1.3,2-1.4c0.1,0,0.1-0.1,0.2-0.1c0-0.8,0-1.5,0-2.1c-2.1,0.3-4.1,0.6-6.1,0.8c-4.1,0.4-4.6,0.9-4.6,5
		c0,1.2-0.1,2.4-0.3,3.5c-0.3,2.2,0,2.6,2.2,2.5c4-0.1,8.1-0.2,12.1-0.3c1.8-0.1,3.7-0.2,5.5-0.3c6.2-0.3,12.4-0.6,18.6-0.9
		c2.9-0.2,5.8-0.5,9-0.7c-0.1-1.4-0.2-2.6-0.4-3.9c-0.1-0.3-0.6-0.7-1-0.8c-3-0.5-2.6-0.4-3.1-3.2c-0.3-1.7-0.2-3.4-0.4-5.2
		c-0.4-3.2-2.9-4.9-4.8-7c-1-1.1-2.3-1.3-3.7-1.1C45.1,224.6,43.3,224.8,41.3,225z M60,247.8c-1.9,0.1-3.5,0.2-5.2,0.3
		c-4.3,0.4-8.6,0.9-13,1.2c-3.7,0.2-7.3,0.2-11,0.3c-5,0.1-10,0.2-15.1,0.3c-0.9,0-1.7-0.1-2.9-0.2c0.3,2.7,0.5,5.4,0.8,8
		c0.7,0,1.2,0,1.7,0c7.3-0.1,14.6-0.2,22-0.3c6.3-0.1,12.6-0.2,19-0.3c0.4,0,0.9-0.2,1.2-0.5c0.7-0.7,1.4-1.4,2.1-2.2
		c0.2-0.2,0.3-0.5,0.3-0.7C60,251.8,60,249.9,60,247.8z M55.8,264.9c-3.7,0-7.1,0-10.5,0c-0.1,0-0.2,0-0.3,0
		c-3.3,0.4-6.5,0.9-9.8,1.1c-6.3,0.4-12.7,0.7-19,0.9c-1.2,0.1-1.6,0.7-1.4,1.7c0.3,1.6,0.7,3.3,0.8,4.9c0.1,1.4,0.8,1.6,2,1.5
		c1.6-0.2,3.1-0.5,4.7-0.6c8.2-0.2,16.3-0.4,24.5-0.6c3.6-0.1,7.2,0,11.2,0C56.1,270.9,55.5,267.9,55.8,264.9z M16.3,276.9
		c-0.3,3.2,2.2,5.6,4.1,5.7c1.9,0.1,3.8,0.3,5.6,0.3c5.5,0,11-0.1,16.6-0.3c3.5-0.1,7.1-0.5,10.6-0.9c3-0.3,4.6-2.4,4.2-5.9
		C43.7,276.1,30.1,276.5,16.3,276.9z M109.7,202.1c0.3,1.9,0.6,3.7,0.9,5.5c0.2,1.1,0.2,2.4,0.8,3.2c1.7,2.6,2.8,5.5,3.8,8.4
		c0.3,1.1,0.8,2.1,1.3,3.2c1.6-0.9,2.3-2.1,2-3.7c-0.2-1-0.3-1.9-0.5-2.9c-0.3-2-0.7-4-1-6.1c0-0.4,0.4-0.8,0.6-1.2
		c0.4,0.3,1,0.6,1.1,1c0.4,1,0.5,2,0.7,2.8c0.9,0,1.6,0.1,2.2,0.1c-0.2,0.6-0.5,1.2-0.7,1.7c-0.4,0.8-1.6,1.4-0.3,2.5
		c0.2-0.1,0.3-0.4,0.5-0.4c0.6-0.1,1.6-0.4,1.9-0.1c0.6,0.7,0,1.3-0.7,1.7c-0.5,0.3-0.8,0.7-1.3,1.1c1.4,1.5,1,3-0.1,4.4
		c-0.5,0.7-1,1.3-1.5,2c-1.3,1.9-1.8,2.4,1,4.3c1.6-2.4,3.2-4.8,4.6-7.3c0.4-0.7,0.4-1.6,0.5-2.4c0.3-3.7-1.3-6.9-2.5-10.2
		c-1-2.6-2.5-4.8-4.6-6.6c-1.7-1.6-3.5-3.2-6.2-2C111.4,201.5,110.6,201.8,109.7,202.1z M56.4,258.7c-2.9,0.1-5.6,0.4-8.3,0.4
		c-10.7,0.1-21.4,0.2-32.1,0.3c-0.3,0-0.7,0-1,0c-0.4,0-0.8,0-1.3,0.1c0.3,1.9,0.5,3.7,0.7,5.6c1.3,0,2.4,0.1,3.5,0
		c3.4-0.3,6.8-0.9,10.3-1.1c4.6-0.3,9.2-0.4,13.8-0.6c1.8-0.1,3.7-0.2,5.5-0.3c2.7-0.2,5.5-0.3,8.2-0.5
		C55.9,261.4,56.1,260.2,56.4,258.7z M115.4,198.1c0-0.2,0.1-0.4,0-0.6c-1.2-3.8-2.4-7.7-3.5-11.5c-0.8-2.7-1.4-5.5-1.9-8.3
		c-0.7-4.1-1.1-8.2-1.7-12.3c-0.2,0-0.3,0-0.5,0c-0.1,0.3-0.3,0.6-0.3,0.9c-0.2,2.5-0.3,4.9-0.7,7.4c-0.8,4.8-1.9,9.5-1.4,14.4
		c0.2,1.8,0.2,3.7,0.6,5.5c0.3,1.7,0.9,3.4,1.5,5c0.3,0.9,1,1.5,2.2,1.1C111.6,199.1,113.5,198.6,115.4,198.1z M57.6,264.3
		c0.3,1.7,0.7,3.2,0.8,4.7c0.1,1.4,0.8,1.2,1.6,0.9c2.7-0.9,5.4-1.8,8.1-2.6c1.8-0.5,2.1-1,1.5-2.8c-0.9-2.4-1.7-4.8-2.5-7.2
		c-0.5-1.6-0.9-1.9-2.5-1.5c-0.6,0.2-1.3,0.1-1.9,0.3c-3,0.7-2.9-0.5-3.9,3C58.2,260.9,58,262.7,57.6,264.3z M28.9,156.7
		c-0.9,1.3-1.6,2.5-2.4,3.6c-1,1.4-1.7,2.8-1,4.6c0.2,0.4,0.2,0.9,0.3,1.3c0.8,3.7,1.4,7.5,3.3,10.9c0.7,1.4,1.3,2.8,2,4.2
		c0.4,0.9,0.9,1.8,1.4,3C32.4,174.8,31.3,165.7,28.9,156.7z M79.9,271.1c0.2-0.1,0.3-0.1,0.5-0.2c0-0.2,0-0.5,0-0.7
		c-0.5-5.4-1.5-10.7-2.9-15.8c-0.9-3.1-1.8-6.2-4-8.8c-0.6-0.7-1.4-1.2-2.1-1.8c-0.2,0.1-0.4,0.2-0.7,0.4c0.5,2.9,0.7,5.8,1.6,8.6
		c1.1,3.7,2.6,7.4,4.1,11C77.4,266.2,78.7,268.6,79.9,271.1z M79,274.4c-1.5-2.9-3-5.7-4.3-8.7c-1.6-3.8-3.2-7.7-4.3-11.6
		c-0.9-3.2-1.2-6.6-1.8-10.1c-0.3,0.3-1.2,0.6-1.3,1.1c-0.1,2-0.5,4.1,0,6c1.5,5.5,3.2,10.9,5,16.2c0.8,2.3,2.2,4.4,3.4,6.7
		c0.9,1.8,1.2,1.9,3,0.7C78.8,274.4,78.9,274.4,79,274.4z M87.5,240.6c0.6-0.4,1.1-0.6,1.4-1c3.3-3.2,5.1-7.4,7.1-11.4
		c0.2-0.4-0.2-1.2-0.6-1.6c-0.3-0.3-1.2-0.2-1.5,0c-0.6,0.5-1.1,1.1-1.4,1.8c-1.4,3.5-3.5,6.4-6.1,9.1c-0.3,0.3-0.7,1-0.5,1.3
		C86.3,239.5,86.9,240,87.5,240.6z M50.3,54.3c0.6,3,1.1,6,3.5,8.3c0.9,0.8,2.1,0.6,2.2-0.5c0.1-1.5,0.4-3-0.6-4.6
		C54.2,55.6,52.3,55,50.3,54.3z M26.4,237.3c1.4,0,2.9,0,4.4,0c2,0,2,0,1.8-2.1c-3.1,0.1-3.4-0.1-6.5-3.9c-0.2,0.6-0.6,1.2-0.5,1.7
		C25.7,234.4,26.1,235.7,26.4,237.3z M134.4,378.1c2.4,1.4,4.7,0.9,5.5-1.3C136.3,373.9,136.1,374,134.4,378.1z M69,353
		c0.1-0.1,0.1-0.2,0.2-0.2c-1-0.6-2.1-1.2-3.1-1.8c0,0.1,0,0.1,0,0.2c1.6,1.7,3.2,3.5,4.9,5.2c0.1-0.9,0-1.9-0.4-2.8
		C70.2,353.2,69.4,353.1,69,353z"/>
	<path class="st0" d="M82.3,96c-2.5-0.3-4.4-1.3-6.1-2.9c-0.9-0.8-1.7-1.7-2.5-2.6c-0.2-0.2-0.1-0.7-0.1-1c0.3,0,0.6,0,0.9,0
		c1.6,0.3,3.3,0.6,4.9,1c1,0.2,2,0.7,3,1c1.1,0.4,2.1,0.7,3.2,1c0.5,0.2,0.9,0.5,1.3,0.7c-0.3,0.5-0.5,1.1-0.9,1.3
		C84.9,95.2,83.6,95.5,82.3,96z"/>
	<path class="st0" d="M82.1,72.6c-4.9,0.4-7.6-2.3-9.3-6.3c-0.2-0.5-0.1-1.6,0.3-1.9c0.9-0.6,1.2,0.5,1.5,1c0.7,1,1.3,2.1,2,3.1
		c0.9,1.1,2.1,1.7,3.7,1.6c1.1,0,2.2,0,3.3,0.1c0.5,0,0.9,0.4,1.4,0.6c-0.3,0.5-0.5,1.1-0.9,1.4C83.4,72.4,82.7,72.4,82.1,72.6z"/>
</g>
</svg>
