<?xml version="1.0" encoding="utf-8"?>
<!-- Generator: Adobe Illustrator 19.2.1, SVG Export Plug-In . SVG Version: 6.00 Build 0)  -->
<svg version="1.1" id="Layer_1" xmlns="http://www.w3.org/2000/svg" xmlns:xlink="http://www.w3.org/1999/xlink" x="0px" y="0px"
	 viewBox="0 0 200 194.2" style="enable-background:new 0 0 200 194.2;" xml:space="preserve">
<style type="text/css">
	.st0{fill:#00BCD4;}
</style>
<g id="warts-girl">
	<path class="st0" d="M66.8,194.2c-0.1-0.9-0.2-1.8-0.2-2.7c0-3.1,0.3-6.2,0.2-9.2c-0.2-3.6-0.7-7.2-1-10.8
		c-0.2-1.6-0.2-3.2-0.5-4.8c-0.3-1.9-0.8-3.8-1.2-5.8c-1.4,0.8-2.6,1.5-3.9,2.3c-3.8,2.2-6.9,5.1-10.1,8.1
		c-3.1,2.9-6.9,4.6-10.8,6.1c-4.6,1.8-9.2,3.8-13.9,5.6c-2.2,0.8-4.5,1.1-6.7,1.9c-2.7,0.9-5.4,0.9-8.2,0.9
		c-3.1-0.1-5.6-1.5-7.5-3.8c-1.2-1.4-2.5-2.9-2.7-4.9c-0.1-1.1-0.2-2.3-0.1-3.4c0.2-1.9,0.5-3.9,0.8-5.8c0.3-2.2,2.1-3.7,3.1-5.5
		c2.1-3.7,5.3-6.1,8.7-8.4c1.7-1.2,3.3-2.4,5.1-3.5c2.5-1.6,5.2-2.9,7.8-4.5c2.4-1.5,4.7-3.2,7-4.9c4.2-3.1,7-7.5,10.8-11
		c0.6-0.6,1.1-1.3,1.5-2c0.2-0.3,0.2-0.8,0-1.1c-0.4-0.9-0.2-1.3,0.8-1.6c0.5-0.1,0.9-0.6,1.4-0.8c2.8-1.3,5.2-3.3,7.8-5.1
		c1.6-1.1,3.4-1.9,5-2.9c2.8-1.6,5.7-3.2,8.5-4.7c1.4-0.8,2.9-1.7,4.4-2.2c1.9-0.6,2.7-1.9,3.1-3.7c0.6-2.4,1.1-4.8,1.5-7.3
		c0.9-5.2,1.9-10.5,1.9-15.8c0-3.7,0.5-7.5,0.8-11.2c0.1-1.3,0.1-2.6,0.2-3.9c0.2-2.8,0.4-5.5,0.7-8.3c0.1-1.7,0.4-3.4,0.4-5.1
		c-0.1-4.4-0.5-8.9-0.4-13.3c0.1-3.3-0.1-6.6,0.9-9.8c0.6-2,1.3-4,2.3-5.9c1-2,2.3-3.8,3.4-5.8c0.4-0.6,0.5-1.4,0.9-2
		c0.5-0.9,0.9-1.7,1.5-2.5c0.7-0.9,1.6-1.6,2.2-2.5c2.4-3.8,5.8-6.3,10-7.8c0.7-0.3,1.3-0.9,2.1-1.2c1.6-0.7,3.3-1.3,5-1.8
		c1.1-0.4,2.2-0.7,3.4-0.9c1.4-0.3,2.8-0.5,4.2-0.7c5.1,0,10.1,0,15.2,0c0.7,0.1,1.5,0.4,2.2,0.4c3.4-0.1,6.8,0.4,10,1.4
		c2.4,0.8,4.8,1.7,7.1,2.9c2.8,1.6,5.2,3.9,7.3,6.4c1.7,2,3.2,4.2,4.1,6.7c1.9,5.6,2.6,11.4,3.2,17.2c0.3,3.3,0.8,6.5,1.4,9.8
		c0.8,4.7,1.2,9.5,1.1,14.3c-0.1,5.1,0.1,10.2,0.2,15.4c0,0.1,0,0.3,0.1,0.4c0.7,3.4,1.5,6.8,2.2,10.2c0.7,3.7,1.1,7.5,2.1,11.2
		c1.1,3.9,1.5,7.9,1.8,11.9c0.4,4.8,0,9.6-1.5,14.2c-0.3,0.8-0.6,1.6-0.8,2.5c-0.3,1.1,0.2,1.7,1.4,1.9c1.5,0.3,3,0.7,4.5,1.3
		c1.7,0.7,3.3,1.6,4.9,2.5c1.5,0.8,3.1,1.5,4.5,2.5c1.9,1.3,3.6,2.7,5.4,4.2c0.9,0.7,1.8,1.6,2.3,2.6c1,1.9,1.8,3.9,2.5,5.9
		c0.3,1,0.4,2.2,0.3,3.2c0,1.1-0.4,2.3-0.3,3.4c0.2,4.1,0.4,8.1,0.7,12.1c0.1,0.8,0.3,1.7,0.7,2.5c0.8,1.4,1,2.8,1,4.3
		c0,0.5-0.4,1-0.8,1.3c-1,0.8-2.1,1.5-3.1,2.2c-0.2,0.2-0.5,0.4-0.5,0.7c-0.1,0.8-0.2,1.5-0.2,2.3c-0.1,1.7-0.2,3.5-0.2,5.2
		c0,3.7,0,7.5,0,11.2c-0.6,0-1.2,0-1.8,0c-0.1-0.3-0.2-0.6-0.2-0.8c0-2.7-0.1-5.4,0-8.1c0.1-2.7,0.4-5.3,0.6-8.3
		c-5,5.4-11.4,7.9-17.5,10.8c0,2.1,0,4.3,0,6.4c-0.6,0-1.2,0-1.8,0c-0.1-1.7-0.4-3.4-0.4-5.2c-0.1-1.7-0.1-3.5,0.1-5.2
		c0.5-4.2,1.1-8.4,1.7-12.6c0.1-0.4,0.5-0.7,0.8-1.1c0.3,0.4,0.7,0.8,0.7,1.2c0,1.3-0.1,2.7-0.2,4c-0.2,2.3-0.5,4.6-0.8,6.9
		c-0.1,1.2-0.2,2.4-0.4,3.7c0.6-0.2,0.9-0.2,1.2-0.4c2.2-1.1,4.4-2.1,6.6-3.2c3.1-1.6,5.9-3.7,8.4-6.1c1.3-1.2,2.7-2.3,4.1-3.3
		c2-1.4,2.5-2.5,1.4-4.3c-1.2-2-1.1-4.1-1.3-6.3c-0.1-1.7-0.2-3.5-0.2-5.2c0-2.3,0-4.6,0-6.8c0-1,0.3-2,0.1-2.9
		c-0.4-1.8-1-3.6-2.4-5c-0.5-0.4-0.9-1.1-1-1.7c-0.2-0.9-0.8-1.4-1.4-1.8c-0.5-0.4-1.1-0.7-1.6-1.1c-2.4-2.1-5-4.1-8.1-5.2
		c-1.2-0.5-2.4-1.2-3.5-1.7c-1,1.4-2,2.6-2.9,3.9c-0.8,1.1-1.3,2.4-2.1,3.4c-1.5,1.9-3.2,3.7-4.8,5.5c-0.7,0.8-1.4,1.8-2.2,2.4
		c-2,1.4-4.4,2.4-6.1,4.3c-0.8,0.9-1.6,1.8-2.5,2.5c-3.1,2.1-6.2,4.1-9.7,5.2c-0.9,0.3-1.8,0.6-2.8,0.6c-1.8,0-3.6,0.1-5.3-0.2
		c-2-0.3-3.9-0.9-5.8-1.5c-2.1-0.7-4.1-1.6-6.1-2.4c-0.7-0.3-1.4-0.5-2-0.8c-1.1-0.6-2.2-1.3-3.3-1.9c-0.6-0.4-1.3-0.6-1.7-1.2
		c-0.8-1-1.6-1.2-2.7-0.4c-0.2,0.2-0.5,0.2-0.8,0.2c-1.5,0.3-3,0.8-4.3-0.4c-0.1-0.1-0.2,0-0.3,0c-2.5-0.2-5.1-0.3-7.6-0.7
		c-3.8-0.6-7.5-1.5-11.3-2c-1.5-0.2-3.2-0.2-4.7,0.3c-1.7,0.6-3.2,1.7-4.9,2.5c-2.8,1.4-5.5,3.2-8.4,4.2c-3.8,1.4-7.1,3.3-10.2,5.5
		c0.5,2.3,1.1,4.4,1.5,6.5c0.3,1.7,0.5,3.5,0.7,5.2c0.4,2.9,0.9,5.8,1,8.7c0.2,3.3,0,6.6,0,9.9c0,0.8,0.1,1.6,0,2.3
		c0,0.6-0.2,1.2-0.3,1.9C68,194.2,67.4,194.2,66.8,194.2z M107.5,89.2c-0.1,0.1-0.2,0.1-0.2,0.2c0.7,2.7,0.1,5.3-1.9,6.4
		c-1.6,0.9-2.2,2.2-2.6,3.8c-0.9,3.2-1.8,6.4-2.7,9.7c-1.1,3.8-2.2,7.5-5.6,10.2c-3.5,2.8-7.1,5.1-11.3,6.8c-2.6,1-5.2,1.8-7.9,2.7
		c-6,2.1-12,4.2-18,6.3c-3.3,1.1-6.7,1.9-9.9,3.5c-1.8,0.9-3.9,1.3-5.9,2c-1.7,0.6-3.4,1.4-5,2.1c-2.5,1-5,2-7.4,3.1
		c-1.5,0.7-2.8,1.8-4.3,2.6c-2,1.2-4.1,2.2-6.1,3.4c-1.6,1-3.1,2.1-4.6,3.2c-3,2.1-6.1,4.1-8.1,7.4c-0.3,0.5-0.6,0.9-0.9,1.4
		c-0.9,1.6-2.3,2.9-2.6,4.8c-0.2,1.4-0.2,2.7-0.4,4.1c-0.4,2.4-0.1,4.6,1.4,6.6c2,2.7,4.5,4.1,8,4.2c3.3,0.1,6.3-0.8,9.4-1.6
		c3.4-0.9,6.7-2.3,10.1-3.6c2.1-0.8,4.2-1.9,6.4-2.6c5.4-1.9,10.3-4.6,14.2-8.9c0.6-0.7,1.4-1.3,2.2-1.9c2.8-1.9,5.7-3.7,8.5-5.6
		c2.6-1.7,5.1-3.5,7.8-5c1.9-1.1,4.1-1.7,6.1-2.7c3.5-1.8,7-3.7,10.5-5.5c1.2-0.7,2.5-1,4-1.1c4.2-0.4,8.1,1.4,12.2,1.7
		c3,0.2,6.1,0.7,9.1,1c0.8,0.1,1.6,0.3,2.5,0.5c1.2,0.3,2.4,0.6,3.4-0.3c1.1-1,1.9-2.2,3.1-3.6c-1.3-0.5-2.4-0.9-3.3-1.4
		c-0.4-0.2-0.7-0.7-1-1.1c0.5-0.2,1-0.6,1.4-0.5c1,0.3,2,0.8,2.9,1.2c0.6,0.3,1,0.4,1.6-0.1c1.3-1,2.3-4,1.6-5.4
		c-0.1-0.1-0.3-0.2-0.4-0.3c-0.9-0.5-1.8-1.1-2.8-1.6c-0.5-0.3-1.1-0.5-0.8-1.2c0.3-0.7,0.9-0.4,1.4-0.2c1.3,0.6,2.5,1.3,3.7,1.9
		c1.2-0.7,1.4-1.6,1.4-2.8c-0.1-0.9,0-1.9,0.2-2.8c0.2-0.8-0.2-1.1-0.8-1.5c-1.6-1.1-3.1-2.4-4.5-3.7c-0.2-0.2-0.1-0.7-0.2-1.1
		c0.3,0,0.7-0.1,1,0c0.2,0.1,0.4,0.3,0.6,0.5c1.4,1,2.8,2.1,4.3,3.1c0.2,0.2,0.7,0.2,0.9,0.1c0.8-0.5,1.5-3,0.9-3.7
		c-1.4-1.6-2.9-3-4.4-4.4c-0.5-0.4-1.1-0.7-1.7-1c-0.9-0.5-1.7-1.3-2.6-1.6c-3.4-1.1-6.9-2-10.4-3c-0.2,0-0.4-0.1-0.5-0.3
		c-0.7-0.9-1.7-1.8-1.6-3.1c0-1.1,0.1-2.3,0.2-3.4c0.2-1.6,0.2-3.3,0.8-4.7c1.3-3.6,1.7-7.1,0.3-10.7
		C108.8,90.8,108.1,90,107.5,89.2z M111.7,95.8c-0.1,1.2-0.1,2.2-0.3,3.2c-0.4,1.8-1,3.5-1.4,5.3c-0.2,1.1-0.7,2.4,0.3,3.2
		c0.8,0.7,1.9,1.3,2.9,1.7c3,0.9,6,0.9,9.1,0.1c5.3-1.3,10.3-3.3,14.5-6.9c2.5-2.2,4.7-4.8,6.8-7.3c2.5-2.9,3.9-6.4,4.5-10.2
		c0.1-0.9,0.4-1.8,0.4-2.7c0-1.8-0.2-3.6-0.2-5.3c0.1-3.6,0.4-7.1,0.6-10.7c0.1-1.2,0.2-2.3,0.2-3.5c0-1.4,0.2-2.9-0.2-4.2
		c-0.6-2.6-2.1-4.7-3.8-6.7c-2.5-3-4.4-6.3-4.1-10.4c0.1-1.1-0.7-1.7-1.8-1.8c-0.9-0.1-1.8-0.3-2.7-0.5c-1.3-0.4-2.5-0.9-3.8-1.4
		c-1.5-0.6-3.1-1.1-4.4-1.9c-1.6-1.1-3-2.4-4.3-3.8c-1-1-2.3-1.9-2.1-3.7c0-0.3-0.6-0.8-1-1c-0.2-0.1-0.7,0.5-1,0.8
		c-0.6,0.7-0.9,1.6-1.6,2c-2.4,1.6-4.7,3.2-7.6,3.9c-2,0.5-4,1.4-6.1,1.8c-2,0.4-4,0.4-6,0.7c-1.8,0.3-3.6,0.8-4.4,2.8
		c-1.2,2.9-2.7,5.6-3.7,8.6c-1,2.9-2.1,5.9-1.9,9.1c0.2,3.1,0.5,6.3,0.6,9.4c0.2,4.5,0.3,9.1,0.5,13.6c0.1,1.9,0.1,3.9,0.5,5.7
		c1.2,6.4,4.7,11.3,9.8,15.3c0.2-0.6,0.4-1.2,0.7-1.7c1.2-2.6,1.3-5.4,0.9-8.2c-0.2-1.1,0.7-3.1,1.7-3.8c0.7-0.4,3.2-0.2,3.9,0.5
		c1.1,1.1,2.3,2,4,1.6c0.6-0.1,1.3-0.4,1.9-0.4c0.5-0.1,1.2-0.1,1.6,0.1c0.8,0.3,1.5,0.3,2.3-0.1c0.7-0.4,1.5-0.8,2.3-0.7
		c2.9,0.4,5.8,1,8.6,1.5c0.8,0.1,1.6,0.3,2.7,0.4c-0.5,0.3-0.7,0.4-0.8,0.4c-1,0.4-2,0.6-2.9,1.2c-1.2,0.7-2.1,1.7-3.3,2.4
		c-2.5,1.5-5.3,1.7-8.1,2C114.6,96,113.2,95.8,111.7,95.8z M143.9,97.8c-0.1,0-0.3-0.1-0.4-0.1c-1.3,1.3-2.6,2.6-3.9,3.9
		c-1.5,1.4-3,2.8-4.6,4c-3.4,2.5-7.5,3.7-11.5,5c-3.6,1.1-7.1,0.9-10.6,0.1c-1.2-0.3-2.2-1-3.3-1.5c-0.6,1.4-0.1,2.6,1.2,3.1
		c1.5,0.5,2.9,0.8,4.4,1.2c2.1,0.6,4.2,1,6.1,1.9c3,1.4,5.7,3.2,7.9,5.8c2.1,2.4,2.4,4.4,0.8,7.1c-0.3,0.5-0.9,0.9-1,1.4
		c-0.3,1.2-0.4,2.4-0.5,3.6c-0.1,1.2-0.3,2.4-1.3,3.3c-0.8,0.8-1.8,1.4-1.2,2.7c0.1,0.1,0,0.4-0.1,0.5c-0.6,1.4-1.2,2.8-1.8,4.2
		c0.6,0.5,1.5,1.1,2.2,1.7c2.1,1.8,4.8,2.4,7.2,3.5c2,0.9,4,1.5,6.2,1.5c2.6,0,5-0.3,7.4-1.2c1-0.4,2.2-0.4,3.1-1
		c2.6-1.7,5-3.5,7.6-5.3c3.4-2.4,6.1-5.4,9-8.4c1.7-1.7,2.7-3.9,3-6.3c0-0.2-0.6-0.9-0.9-0.8c-1.8,0.2-3.6,0.5-5.4,0.8
		c-2.9,0.4-5.8,0.5-8.6-0.7c-1.3-0.6-2.7-1.1-3.9-2c-1.1-0.8-2.1-1.9-2.9-3c-1.3-1.8-2.5-3.7-3.4-5.6c-1.1-2.3-1.7-4.7-2.1-7.2
		c-0.6-3.9-0.5-7.6,1-11.2C143.9,98.5,143.9,98.2,143.9,97.8z M48.6,127.5c1.6,2,3.2,4,4.8,6.1c0.5,0.7,1,0.8,1.7,0.6
		c3.2-1,6.4-2,9.6-3.1c5.6-2,11.2-3.9,16.8-6c2.8-1,5.5-2.3,7.9-4.1c-0.2-0.2-0.4-0.3-0.4-0.5c-1.9-3.3-3.9-6.5-5.8-9.8
		c-0.1-0.2-0.1-0.5-0.2-0.7c-0.3-0.9-0.5-1.8-0.9-2.5c-0.3-0.6-3.2-0.3-3.7,0.2c-0.7,0.7-1.2,1.6-2,2.2c-1.2,0.8-2.5,1.3-3.8,2
		c-4,2.2-8,4.6-12.1,6.7c-3.3,1.6-6.2,3.9-9,6.2c-0.7,0.6-1.4,1.3-2.1,2C49.1,126.8,48.9,127.2,48.6,127.5z M124.3,5.5
		c-2.7,0.1-5.4,0-8.1,0.4c-2.8,0.5-5.6,1.4-8.3,2.3c-4.1,1.3-7.7,3.8-11.3,6.2c-1.8,1.2-3.5,2.5-4.6,4.6c-0.6,1.1-1.2,2.2-1.8,3.4
		c-1.4,2.9-3.9,5.2-4.7,8.4c-0.6,2.3-1.5,4.5-2.1,6.7c-0.1,0.3,0.2,0.9,0.5,1.1c0.2,0.2,0.8,0,1.1-0.2c0.3-0.2,0.5-0.7,0.7-1.1
		c1-2.6,1.8-5.3,3-7.8c0.9-1.9,2.4-3.5,3.3-5.4c1.2-2.5,3.1-4.2,5.5-5.5c2.6-1.4,5-3.1,7.7-4.3c2.1-0.9,4.1-1.7,6.3-1.9
		c2.3-0.2,4.6-0.4,6.9-0.7c3.1-0.4,6.1-0.7,9.2,0c3.3,0.8,6.5,2,9.4,3.7c2.1,1.3,4.2,2.8,6.3,4c2.8,1.6,5.1,3.6,6.6,6.5
		c0.8,1.5,2.1,2.8,2.1,4.7c0,0.2,0.2,0.5,0.3,0.5c1.1,0.6,1.1,1.7,1.3,2.6c0.2,0.8,0.2,1.6,0.4,2.4c1.2,5.2,3.4,10.1,3.6,15.5
		c0,0.3,0.2,0.7,0.4,0.9c0.3,0.3,0.7,0.7,0.9,0.6c0.4-0.2,0.7-0.6,0.9-1c0.1-0.2,0.1-0.5,0-0.8c-0.3-1.8-0.6-3.7-1-5.5
		c-1-4-2-8-3.2-11.9c-0.6-2-1.2-4-2.1-5.8c-1.4-3-2.9-5.9-4.7-8.7c-2-3.1-4.6-5.9-7.6-8.2c-2-1.5-4.1-3.1-6.5-4
		C131.6,6.1,128.1,5.1,124.3,5.5z M122.6,145.1c-0.6,0.8-1.1,1.5-1.6,2.1c-0.4,0.6-0.4,1.2,0.2,1.5c2.4,1.4,4.8,2.7,7.3,3.9
		c0.9,0.4,1.9,0.6,2.8,1c1.6,0.6,3.1,1.3,4.6,1.9c2.6,1,5.4,1,8.2,0.9c1.4-0.1,2.8-0.3,4.1-0.7c1.4-0.5,2.7-1.2,4-1.9
		c1.5-0.9,3.1-1.7,4.4-2.9c1.8-1.8,3.5-3.5,5.7-4.8c1.6-1,3.4-1.7,4.4-3.4c0.3-0.5,0.7-1,1.2-1.4c3-2.8,5.1-6.2,6.9-9.9
		c0.3-0.7,1-1.3,1.5-2.1c-1.3-0.3-2.7-0.6-4.2-0.9c0,0.3-0.1,0.4-0.1,0.6c-0.3,2.6-1.2,4.9-3,6.7c-4,4.3-8.3,8.4-13.3,11.6
		c-2.3,1.4-4.2,3.4-7.1,3.8c-0.6,0.1-1.3,0.2-1.9,0.4c-3.1,1.2-6.4,0.9-9.5,0.6c-2.3-0.3-4.4-1.6-6.7-2.3c-1.9-0.6-3.7-1.6-5.2-2.8
		C124.4,146.5,123.6,145.9,122.6,145.1z M162.7,65.1c-0.4-0.8-0.7-1.3-0.8-1.8c-0.2-0.9-1.3-1.9-2.2-1.6c-1.3,0.4-2.6,0.9-3.2,2.4
		c-0.1,0.2-0.3,0.4-0.5,0.5c-0.1,0-0.5-0.2-0.5-0.3c-0.1-0.4-0.2-1.1,0-1.3c1.4-1.4,2.7-2.9,4.9-2.6c0.6,0.1,1.2,0.4,1.8,0.6
		c0.2-1.7-1.5-3.6-3-3.3c-1.6,0.3-3.1,0.8-3.9,2.5c-0.6,1.2-1.5,2.2-2.3,3.2c-1.2,1.4-2.2,2.7-2.5,4.7c-0.4,2.1-0.4,4.1-0.5,6.3
		c1.2-0.2,2-0.7,2.5-1.8c0.2-0.5,0.8-1,1.3-1.1c1-0.1,2.1,0.1,3.2,0.1c1.2,0.1,2.4,0,3.1-1.2C161,68.6,161.9,66.7,162.7,65.1z
		 M47,128.8c-4,4.3-7.7,8.4-11.5,12.4c0,0,0.1,0.1,0.1,0.1c5.4-2.1,10.7-4.1,16.4-6.3C50.3,132.9,48.7,130.9,47,128.8z M126.1,91.3
		c-1.1,0-2-0.1-2.9,0c-2.9,0.3-5.8,0.6-8.8,0.8c-1.1,0.1-2.2-0.1-3.3-0.2c0,0.4,0,0.7,0,1c0,1.8,0.3,2.2,2.2,2.2
		c2.3-0.1,4.7-0.1,6.9-0.5C122.5,94.2,124.6,93.3,126.1,91.3z M158.9,73c-1.2,0-2.2,0.2-3.1,0c-1.3-0.4-1.8,0.2-2.5,1.2
		c-0.5,0.7-1.4,1.3-2.2,1.5c-0.8,0.2-1.1,0.6-1.1,1.3c0,1,0.1,2.1,0.3,3.1c0.1,0.3,0.6,0.8,0.9,0.8c0.8-0.1,1.7-0.2,2.2-0.7
		c1.7-1.7,3.2-3.6,4.7-5.4C158.4,74.2,158.6,73.7,158.9,73z M93.1,118.1c-0.3-0.4-0.5-0.6-0.7-0.8c-0.8-1.9-1.6-3.8-2.2-5.5
		c-1-0.5-2.1-0.9-3-1.5c-1.1-0.8-2.1-1.8-3.2-2.7c-0.1,0.1-0.2,0.2-0.3,0.2c1.9,4.3,4.4,8.1,7.1,12.1
		C91.6,119.3,92.4,118.7,93.1,118.1z M98.8,106.9c-0.1-0.1-0.2-0.2-0.3-0.3c-0.4,0.2-0.8,0.5-1.2,0.7c-1.2,0.8-2.4,1.8-3.7,2.5
		c-1.5,0.7-1.7,0.8-1.2,2.4c0.5,1.6,1.2,3.2,2,5C97,114,97.9,110.4,98.8,106.9z M110.1,90.2c0.4,0.4,0.7,0.8,1.1,0.9
		c1.1,0.2,2.3,0.3,3.4,0.2c2.5-0.1,4.9-0.2,7.4-0.4c1.6-0.1,3.2-0.4,4.8-0.5c-1.4-0.5-2.8-1-4.2-1.2c-1.8-0.3-3.6-0.6-5.3,0.5
		c-0.5,0.3-1.4,0-2.2-0.1c-0.4,0-0.8-0.2-1.2-0.2C112.7,89.6,111.6,89.9,110.1,90.2z M104,94.8c2.5-1.6,2.6-3.4,0.5-6.4
		C103,90.4,104,92.5,104,94.8z"/>
	<path class="st0" d="M105,99c0.1-1,0.6-1.6,1.4-1.6c0.8,0,1.4,0.8,1.4,1.6c-0.1,1-0.7,1.6-1.5,1.6C105.5,100.5,105,100,105,99z"/>
	<path class="st0" d="M101.7,68.1c-1.8,0-3.9-0.6-5.8-2.1c-0.4-0.3-0.8-0.6-1.2-0.7c-0.5-0.2-1-0.3-0.9-1c0-0.7,0.2-1.1,0.9-1.4
		c0.8-0.3,1.4-1.2,2.3-1.4c1.3-0.3,2.7-0.3,4.1-0.4c1.6-0.1,3.3,0,4.6,1c1.2,1,2.3,2.3,3.3,3.5c0.1,0.1-0.3,0.8-0.6,1
		C106.4,67.7,104.4,68.1,101.7,68.1z M100,62.6c-1.2,0.4-2.3,0.7-3.3,1c-0.3,0.1-0.6,0.4-0.6,0.6c0,0.2,0.2,0.6,0.5,0.7
		c1,0.6,2,1.1,3,1.6C99.6,65.3,99.8,64.1,100,62.6z M107.1,65.6c-0.4-0.7-0.7-1.1-1-1.5c-0.1-0.2-0.5-0.3-0.6-0.2
		c-0.1,0-0.3,0.4-0.3,0.6c-0.1,0.7-0.2,1.4-0.3,2.3C105.7,66.3,106.3,66,107.1,65.6z"/>
	<path class="st0" d="M127.9,67.1c-1.2-0.1-2.4-0.2-3.5-0.4c-0.9-0.1-1.1-0.6-0.6-1.4c0.6-0.9,1.2-1.9,2-2.6
		c0.7-0.7,1.6-1.6,2.4-1.7c2.4-0.1,4.9-0.4,7.1,0.8c0.7,0.4,1.5,0.8,2.2,1.2c0.8,0.5,0.8,0.9,0,1.4c-0.8,0.5-1.7,1-2.6,1.2
		C132.7,66.4,130.5,67.6,127.9,67.1z M127.4,62.7c-0.7,0.8-1.5,1.5-2.1,2.3c-0.1,0.1,0.4,0.8,0.6,0.8c0.8,0.1,1.7,0,2.5,0
		C128.1,64.9,127.8,64,127.4,62.7z M133.2,65.2c0.9-0.3,1.6-0.6,2.4-1c0.1-0.1,0.2-0.7,0.1-0.7c-0.8-0.4-1.6-0.8-2.5-1.2
		C133.2,63.4,133.2,64.1,133.2,65.2z"/>
	<path class="st0" d="M131.4,54.5c2.2-0.2,4.2,0.3,6.1,1.1c0.6,0.2,1.3,0.5,1,1.3c-0.3,0.8-1,0.7-1.7,0.4c-3.2-1.3-6.4-1.4-9.6-0.4
		c-1.2,0.3-2.3,0.7-3.5,1c-0.3,0.1-0.8,0-1-0.3c-0.2-0.2-0.2-0.8,0-0.9c0.6-0.5,1.3-1.1,2-1.3c2.2-0.5,4.4-0.9,6.6-1.3
		C131.4,54.3,131.4,54.4,131.4,54.5z"/>
	<path class="st0" d="M98.2,55.1c2.7,0.1,5,0.2,6.9,1.5c0.2,0.2,0.5,0.3,0.7,0.5c0.5,0.4,0.8,0.9,0.3,1.4c-0.3,0.2-0.9,0.2-1.3,0.1
		c-0.4-0.1-0.7-0.5-1.1-0.6c-1-0.4-1.8-1-3-0.5c-0.5,0.2-1.2,0-1.7-0.1c-1.4-0.4-2.7-0.3-4.1,0.3c-0.5,0.2-1.1,0.5-1.7,0.5
		c-0.4,0-0.8-0.3-1.2-0.5c0.2-0.4,0.4-0.9,0.7-1C94.5,55.9,96.5,54.9,98.2,55.1z"/>
	<path class="st0" d="M109.7,77.2c-0.6,0.4-1.3,0.8-1.8,1.4c-0.4,0.4-0.6,1-0.6,1.5c0,0.3,0.7,0.6,1.2,0.7c0.5,0.1,1.1,0.1,1.7,0
		c1.6-0.1,2.9,0.5,3.9,1.8c0.7,1,1.8,1,2.5-0.1c1.1-1.8,2.7-2.4,4.7-2.2c0.2,0,0.4,0,0.7,0c0.9-0.1,1.6-0.6,1.7-1.5
		c0.1-0.5-0.4-1.3-0.8-1.7c-0.5-0.6-1.4-0.9-1.6-2.2c1.3,1,2.6,1.5,3.1,2.9c0.6,1.7-0.8,3.2-2.9,3.4c-0.2,0-0.4,0-0.6,0
		c-1.7-0.3-2.9,0.5-3.8,1.9c-0.8,1.4-2.6,1.3-3.4,0.3c-1.1-1.5-2.7-1.7-4.4-1.7c-0.6,0-1.3,0-1.8-0.2c-1.2-0.4-1.7-1.5-1-2.6
		c0.5-0.8,1.4-1.4,2.2-2.1c0.2-0.1,0.6,0.1,0.9,0.1C109.6,77,109.6,77.1,109.7,77.2z"/>
</g>
</svg>
