<?xml version="1.0" encoding="utf-8"?>
<!-- Generator: Adobe Illustrator 18.1.1, SVG Export Plug-In . SVG Version: 6.00 Build 0)  -->
<!DOCTYPE svg PUBLIC "-//W3C//DTD SVG 1.1//EN" "http://www.w3.org/Graphics/SVG/1.1/DTD/svg11.dtd">
<svg version="1.1" id="Layer_1" xmlns="http://www.w3.org/2000/svg" xmlns:xlink="http://www.w3.org/1999/xlink" x="0px" y="0px"
	 viewBox="404.5 168.5 150 221.9" style="enable-background:new 404.5 168.5 150 221.9;" xml:space="preserve">
<style type="text/css">
	.st0{fill:#03A9F4;}
</style>
<g id="elbowpain-lady">
	<path class="st0" d="M554.2,287.9c-0.7-3.5-1.2-7.1-3.8-9.9c-1.8-1.9-3.4-4-6-4.9c-2.1-0.8-4.2-0.8-6.4-0.9c-1.4,0-3,0-4-0.8
		c-1.8-1.5-3.7-2.7-5.8-3.7c-0.3-0.1-0.5-0.5-0.5-0.8c-0.5-5-2.2-9.5-4.3-13.9c-0.6-1.3-1.1-2.6-1.5-3.9c-0.3-1-0.4-2.2-0.7-3.3
		c-0.6-2.2-1.7-4.2-3.2-6.1c-1.7-2.1-3.2-4.3-5.5-5.9c-1.1-0.8-2.7-1.7-2.3-3.7c0.3-1.4,0.3-2.7,2.2-3c1-0.2,2-1.1,2.5-1.9
		c1.3-2,2.2-4.1,3.3-6.2c0.2-0.3,0.3-0.6,0.3-0.9c0.5-3.8,0.5-7.6-0.2-11.4c-0.2-1-0.6-1.9-0.5-2.9c0.3-3.7-0.3-7.1-1.7-10.5
		c-0.8-1.9-1.2-4-2.2-5.8c-1.6-2.9-3.4-5.6-5.4-8.2c-1.8-2.3-3.8-4.5-6.1-6.3c-3.7-2.9-7.9-4.5-12.8-4.1c-2.6,0.2-5.2-0.1-7.9-0.5
		c-1.7,0.1-3.5,0.2-5.1,0.8c-3.5,1.2-6.9,2.7-10.3,4.2c-1.1,0.5-2.1,1.4-3.3,1.9c-0.9,0.4-1.7,0.9-2.4,1.6c-0.2,0.1-0.4,0.3-0.6,0.5
		c0,0,0,0,0,0.1c-0.7,0.8-1.3,1.7-1.9,2.6c-1.3,2.4-2.5,4.8-3.7,7.2c-0.8,1.7-1.7,3.5-2.4,5.3c-0.1,0.2-0.1,0.5-0.2,0.7
		c-0.1,0.2-0.1,0.4-0.2,0.6c-0.6,2-1,4.6,0.3,6c0.7,2.4,1.7,4.8,2.9,6.8c2.1,3.6,2.5,7.5,2.6,11.5c0.1,2.9,0.3,5.7,1.2,8.4
		c1.1,3.2,2.4,6.3,3.8,9.3c0.8,1.6,1.9,3,2.8,4.6c1.8,3.1,3.3,6.4,5.8,9c0.3,0.4,0.6,0.8,0.7,1.3c0.2,2,0.4,3.9,0.5,5.8
		c0,0.3-0.1,0.6-0.3,0.8c-1.5,1.4-3.2,2.5-5.4,2.6c-1.6,0.1-3.2,0-4.8,0.3c-2.4,0.5-4.6,0.5-7-0.2c-0.7-0.2-1.7,0.3-2.4,0.6
		s-1.2,0.9-2,1.5c-0.4-0.7-0.9-1.4-1.1-2.1c-1.5-4.3-4.9-6.5-9-6.3c-2.9,0.2-5.9,0.4-8.8,0.5c-1.6,0-2.7,0.8-3.7,1.9
		c-1.1,1.3-2.4,2.6-3.8,3.7c-1.5,1.2-2.5,2.6-2.9,4.4c-0.5,2.3-1.3,4.5-1.6,6.8c-0.2,2-0.3,4.3,0.3,6.2c0.6,1.7,0.5,2.6-0.4,4.1
		c-2.2,3.5-3.9,7.1-5.8,10.7c-1.1,2-2.2,4.1-3.2,6.2c-1.2,2.3-2.3,4.6-3.5,6.9c-0.7,1.3-1.5,2.7-2.2,4v1.8c0.6-0.7,1.3-1.4,1.7-2.2
		c1.1-2.5,2.1-5,3.3-7.4c1.7-3.4,3.5-6.6,5.2-9.9c1.6-3.1,3.1-6.2,4.7-9.2c0.9-1.7,2.5-2.4,4.4-1.9c1.6,0.4,3.1,1.1,4.6,1.2
		c1.4,0.1,1.9,0.9,2.4,2c1.8,4.6,3.8,9.2,5.6,13.9c0.9,2.3,0.2,5.5-1.5,7.1c0-1.2,0.2-2.4,0-3.5c-0.1-0.7,0.2-1.8-1.2-2.2
		c0.1,1,0.3,1.8,0.3,2.6c0,1.2-0.4,2.5-0.3,3.7c0.4,5.5-0.3,10.7-2.5,15.8c-0.8,2.1-1.5,4.2-2.4,6.3c-0.7,1.7-1.5,3.6-2.6,5.1
		c-1.8,2.3-3.9,4.5-5.9,6.7c-2,2.4-4,4.7-6,7c-0.2,0.3-0.6,0.6-0.9,0.6c-2.3-0.1-4.7-0.2-7-0.4h-1.2c0,0.1-0.1,0.3-0.1,0.4
		c0.3,0.2,0.6,0.4,1,0.5c1.1,0.2,2.1,0.3,3.2,0.4c2.4,0.2,4.7,0.7,7-0.1c4.9-1.7,10.2-2.7,14.8-5.5c2.7-1.6,5.6-2.5,8.7-3.4
		c3.3-1,6.4-2.8,9.5-4.5c1.8-1,3.8-1.3,5.5-0.7c3.6,1.2,7,2.9,10.5,4.4c1.5,0.7,3,1.5,4.5,2.2c0.3,0.2,0.7,0.4,0.9,0.5
		c-0.6,0.8-1.3,1.3-1.5,2c-0.3,0.8-0.1,1.7-0.1,2.7c-1.4-0.2-2.8-0.1-4-0.5c-2.5-0.9-4.9-2.1-7.3-3.2c-1.1-0.5-2.2-1.1-3.3-1.5
		c-0.7-0.2-1.5-0.2-2.3-0.3c-0.1,0-0.3,0.3-0.5,0.4c0.2,0.1,0.3,0.4,0.5,0.4c2.2-0.1,4.1,0.9,5.7,2.1c3.8,2.9,8.2,3.3,12.6,3.8
		c3.1,0.4,5.7-1.3,8.5-2c2.6-0.6,5.2-1.7,7.8-2.4c1.5-0.4,3,0.5,3.5,2.1c-1.2,0.8-2.4,1.7-3.7,2.6c-0.5-2.1,1.8-2.6,1.7-4.2
		c-1,1.2-2.7,1.8-2.8,3.8c0,0.5-0.5,1.3-1,1.6c-1.6,1-3.2,2.1-5,2.8c-2,0.9-4.2,1.6-6.3,2c-2.3,0.3-4.7,0.1-7.1,0.3
		c-1.1,0.1-2.2,0.5-3.3,0.8c0,0.2,0.1,0.3,0.1,0.5c0.3,0,0.6,0.1,0.9,0.1c2.2-0.3,4.5-0.8,6.8-0.7c3.3,0.1,6.3-0.8,9.2-2.3
		c2.8-1.5,5.5-3.2,8.3-4.8c1-0.6,2.1-0.9,3.5-0.6c-0.2,0.3-0.3,0.5-0.5,0.6c-1.3,1-2.6,2-2.2,4c0,0.2-0.3,0.6-0.6,0.8
		c-2.5,1.8-5,3.7-7.7,5.4c-1.5,1-3.2,1.8-5,2.2c-3,0.6-6.1,0.9-9.2,1.3c-0.4,0.1-0.7,0.2-1.1,0.3v0.5c0.5,0.1,0.9,0.2,1.4,0.2
		c2-0.2,3.9-0.4,5.9-0.7c1-0.1,2-0.1,2.9-0.4c4.6-1.2,8.3-4.3,12.2-6.9c1.2-0.8,2.5-1.5,3.8-2.1c0.3-0.2,0.9,0,1.4,0.1
		c-2.1,0.6-4.1,2.6-4.4,4.4c0,0.3-0.4,0.7-0.7,0.9c-2.1,1.3-4.2,2.6-6.3,3.9c-1.1,0.6-2,1.5-3.2,1.9c-1.5,0.5-3.2,0.8-4.8,1.2
		c-2.6,0.7-5.1,1.3-7.7,2c-2.8,0.7-5.4,0.1-7.8-1.3c-2.2-1.3-4.5-2.5-6.8-3.8c-1.1-0.6-2.2-1.3-3.2-2c-0.9-0.6-1.8-1.4-2.7-2.1
		c-0.2-0.2-0.6-0.2-0.9-0.2c-0.1,0.1-0.1,0.2-0.2,0.3c0.5,0.7,1.1,1.4,1.7,2.1c-0.8,0.4-1.4,0.7-2,1c-2.3,1-4.5,2-6.7,3.1
		c-2.2,1.2-4.2,2.6-6.4,3.7c-3.7,1.9-7.7,3.2-11.3,5.4c-3.3,2-6.6,4-10,5.9c-1.6,0.9-3,2.1-5,2.1c0,0.5,0,1-0.3,1.5
		c3.1-0.8,5.7-2.7,8.4-4.3c3.4-2,6.9-3.8,10.3-5.6c0.4-0.2,0.9-0.3,1.7-0.5c-0.3,0.9-0.4,1.6-0.6,2.2c-0.3,1.1-0.7,2.2-0.9,3.4
		c-0.2,0.9-0.3,1.6-1.2,2.2c-1.1,0.7-1.7,1.8-1.6,3.2c0.1,1.2,0.1,2.5,0.3,3.8c0.2,1.8-0.3,3.4-1.3,4.8h1.5c0.7-1.4,1.1-2.8,1-4.4
		c-0.2-1.5-0.3-3-0.1-4.5c0.1-0.9,0.7-1.8,1.3-2.4c0.8-0.7,1.5-1.3,1.4-2.5c-0.1-0.7,0-1.5,0.2-2.2c0.4-1.4,0.9-2.7,1.4-4.1
		c1.9-1,4.3-0.9,6.6-0.9c2,0,4.1-0.1,6.1,0c0.8,0.1,1.6,0.2,2.3,0.5c2.1,0.7,4.1,1.5,6.1,2.3c0.8,0.3,1.6,0.6,2.4,1
		c0.6-0.9,0.4-1.4-0.9-1.8c-1.5-0.4-3.2-0.8-4.6-1.5c-2.5-1.2-5-1.8-7.8-1.6c-2.3,0.1-4.6,0-7.2,0c0.4-0.3,0.6-0.5,0.8-0.6
		c1.2-0.5,2.6-0.9,3.7-1.7c3.2-2.2,6.5-4.1,10.1-5.5c1.8-0.7,3.1-1.3,5,0.1c2.7,1.9,5.8,3.3,8.8,4.7c1.6,0.7,3.2,1.5,4.9,1.6
		c2,0.1,4.1-0.4,6.1-0.9c1.8-0.4,3.5-1.2,5.3-1.6c2.8-0.5,5.5-1.2,7.8-3c1.3-1.1,3.1-1.6,4.4-2.7c1.7-1.3,3.6-2.2,5.5-3.2
		c1.1-0.6,2.3-0.7,3.2-1.8c0.6-0.7,1.8-1,2.7-1.4c2.1-1,4.6-0.9,6.4-2.5c0.2-0.1,0.4-0.1,0.6-0.2c2.2-1.1,4.5-2.2,6.6-3.5
		c1.7-1.1,3.2-2.6,5-3.7c2.5-1.6,5.2-3.1,7.8-4.6c3.8-2.2,7.4-4.5,10.4-7.7c0.6-0.6,1-0.6,1.5,0.1c1.1,1.5,2.2,3,3.3,4.6
		c0.1,0.2,0.1,0.6,0,0.8c-0.4,1-0.9,2-1.3,3c-1.5,3.9-3.7,7.5-4.2,11.7c-0.1,0.7-0.4,1.3-0.6,2c-1.1,3.4-2.2,6.9-3.3,10.3
		c-0.2,0.9-0.6,1.8-1,2.6c-0.9,1.9-1.9,3.7-1.7,5.9c0,0.9,0,1.9-0.3,2.8c-1,2.8-2.2,5.4-3.2,7.9c-2.2-1.7-4.3-3.4-6.5-4.8
		c-3.6-2.3-7.3-4.3-10.9-6.4c-2-1.2-4.1-1.8-6.4-1.7c-3.7,0.2-7.4,0.4-11.1,0.6c-0.5,0-1,0.2-1.5,0.4c0,0,0,0.6,0.1,0.6
		c0.4,0.1,0.9,0.1,1.4,0.1c0,0,0.1,0,0.2,0c3.5-0.2,7.1-0.4,10.6-0.6c2.6-0.2,4.9,0.7,7,2.1c0.4,0.2,0.7,0.4,1.1,0.6
		c2.4,1.3,4.8,2.4,7,3.9c3,1.9,5.7,4.1,8.3,5.9c-0.5,2.9-0.8,5.4-1.2,7.9h1c0.2-1.2,0.2-2.5,0.6-3.7c1.2-3.5,2.6-6.9,3.8-10.4
		c0.5-1.6,1-3.3,1-5c0.1-2.2,0.8-4.1,1.9-6c0.4-0.6,0.7-1.4,0.9-2.1c1.1-3.3,2.2-6.7,3.2-10c0.4-1,0.4-2.2,0.7-3.2
		c0.8-2.4,1.6-4.8,2.6-7.1c1.1-2.6,2.3-5.3,3.6-7.8c1.2-2.1,2.7-4.1,3.8-6.3c1.4-2.7,2.8-5.5,4-8.4c0.6-1.3,0.7-2.8,0.8-4.3
		c0.6-5.9,1.7-11.7,3.9-17.2c0.5-1.3,0.8-2.5,1.2-3.8v-6.8C554.4,288.3,554.2,288.1,554.2,287.9z M528.6,269.5c1-0.5,3.3,0.7,3.6,2
		c-0.3,0.1-0.6,0.3-0.9,0.3c-2.9,0.1-5.1,1.7-7,3.4c-4.8,4.1-8.6,8.9-10.8,14.9c-0.3,0.7-0.6,1.4-0.9,2c1-4.5,1.7-9.1,2.9-13.6
		c1-3.8,2.6-7.3,4.9-10.5c0.5-0.7,0.9-0.8,1.8-0.6c1.6,0.4,3.3,0.5,4.9,0.9C527.7,268.5,528.6,268.5,528.6,269.5z M510.3,233.6
		c2.6,1.8,4.8,3.4,6.3,6.1c1.3,2.1,2.8,4,3.4,6.4s1.3,4.8,2,7.2c0.2,0.7,0.5,1.4,0.9,2c1.9,3.4,3.2,7,3.5,10.9
		c0,0.1-0.1,0.3-0.1,0.7c-1.1-0.3-2.1-0.5-3.1-0.7c-0.5-0.1-1,0-1.5-0.1c-3.1-0.8-6-2-8.2-4.3c-1.2-1.3-1.9-3.4-2.3-5.2
		c-0.5-2.4-0.6-4.9-0.8-7.4c-0.3-3.4-0.7-6.7-0.9-10.1c0-1.1,0.4-2.3,0.6-3.4C510.2,235.1,510.2,234.4,510.3,233.6z M462,279.9
		c0.4-2.5,0.3-5,0.4-7.5c0.1-3,0.2-6.1,0.2-9.1c0-1.1,0.3-1.7,1.6-1.6c2.6,0.3,5-0.1,7.2-1.7c1.8-1.4,2.6-3.2,2.1-5.5
		c-0.2-0.6-0.3-1.1-0.5-1.9c0.3,0.1,0.5,0.2,0.6,0.3c1.4,1.7,3.3,2,5.4,2.2c4.5,0.4,8.3-1,11.9-3.3c1.8-1.2,3.5-2.5,5-4
		c2.9-2.8,6.1-5.3,8.2-8.9c1.1-1.8,2-3.7,2.9-5.6c-0.2-0.1-0.3-0.1-0.4-0.2c-0.2,0.2-0.5,0.4-0.6,0.7c-1,3.6-3.2,6.4-5.6,9
		c-1.9,2-4,3.8-6.1,5.5c-1.7,1.3-3.4,2.6-5.2,3.7c-2.3,1.3-4.7,2.5-7.5,2.3c-1.5-0.1-3-0.1-4.5-0.3c-1.9-0.2-2.8-1.8-4-3
		c-2.9-2.9-4.7-6.6-6.9-10c-2.6-4.1-4.5-8.6-6.2-13.1c-1.1-2.9-1.5-6-1.6-9.1c-0.1-2.8-0.5-5.5-1-8.2c-0.3-1.5-1-3-1.5-4.5
		c-0.5-1.4-0.2-2.6,0.8-3.6c1.1-1,2.2-2,3.4-2.9c1.8-1.5,3.5-3.2,5.6-4.3c3.3-1.8,6.9-3.2,10.4-4.7c0.7-0.4,1.4-0.7,2.2-1
		c1.9-0.7,3.8-1.1,5.6-1.9c1.3-0.6,2.4-1.5,3.7-2.4c0.7-2.4,1.7-4.7,3.1-6.7c0.4-0.6,0.9-1.1,1.3-1.6c0.2,0,0.5,0.1,0.8,0.1
		c0.6,0,1.1,0.1,1.5,0.1c-0.8,0.7-1.5,1.4-2.1,2.3c-1.3,1.9-2.2,4-2.9,6.2c0.2,0.2,0.5,0.4,0.8,0.5c1,0.9,2.1,1.7,3.2,2.5
		c0.7,0.7,1.4,1.4,2.2,2c1.1,1.2,2.2,2.5,3.2,3.7c1.1,1.3,2.3,2.5,3,4c1.1,2.3,2,4.8,2.7,7.3c0.5,1.7,0.5,3.5,0.8,5.3
		c0,0.1,0.1,0.2,0.1,0.3c0,0.1,0,0.1,0,0.2c-0.1,1.1,1.3,1.5,2,0.8c0.1-0.1,0.3-0.2,0.4-0.3c0.5-0.2,0.9-0.6,0.9-1.1
		c0-0.1,0-0.3,0-0.4c0.9-1.2,1.7-2.3,2.6-3.5c1.1-1.4,2.5-1.7,4-0.8c1.4,0.8,2.3,1.8,2.6,3.5c0.5,2.8,0.8,5.7-0.2,8.5
		c-0.8,2.3-2,4.6-3.3,6.7c-0.9,1.6-3.7,1.8-4.9,0.4c-0.3-0.3-0.4-0.8-0.5-1.3s-0.2-1-0.3-1.6c-0.8,0.9-0.9,2.5-0.1,3.1
		c2.4,1.6,1.3,3.8,1.1,5.7c-0.4,3.8-1,7.7-0.8,11.6c0.2,3.4,0.4,6.9,0.7,10.3c0.3,3,0.5,6.1,2.3,8.6c1.4,2,3.6,3.1,5.8,4.1
		c0.8,0.3,1.6,0.6,2.6,1c-0.4,0.6-0.7,1-1,1.4c-2.3,3.7-4.2,7.6-5,12c-0.8,4.1-1.7,8.2-2.7,12.3c-0.3,1.1-1.2,2.2-2,3.1
		c-1.9,2.3-3.8,4.5-5.8,6.6c-1.2,1.2-2.7,2-3.7,3.3c-2.5,2.9-5.7,4.9-8.6,7.2c-2,1.5-3.7,3.4-5.6,5.1c-1.1,1-2.3,2-3.6,2.9
		c-0.4,0.2-1.1,0.3-1.4,0.1c-0.9-0.5-1.8-1.1-2.5-1.9c-2.6-2.8-5.1-5.8-7.6-8.7c-1.7-1.9-3.6-3.8-5.1-5.9c-2.2-3.2-4.3-6.5-6-10
		c-0.5-1.1-0.1-2.8,0.2-4.2C460.5,286.7,461.5,283.3,462,279.9z M453.6,261.6c2.6,0.2,5.2,0.4,7.7,0.7c0,9.8-0.1,19.8-3.4,29.7
		c-1-2.1-2-3.9-2.9-5.8c-1-2-1.8-4.1-2.7-6.2c-0.2-0.4-0.3-0.9-0.2-1.2c2-5.5,1.5-11.2,1.5-16.9V261.6z M450.7,265.5
		c-0.3-1.6,0.5-2.4,1.8-3.4c-0.2,5.2,0.6,10.3-1.5,15.6c-0.8-2.5-1.7-4.7-2.3-6.9c-0.2-0.6,0.3-1.4,0.7-2
		C450.1,267.8,451,266.8,450.7,265.5z M426.5,343.3c-3.2,1.2-6.5,2.3-9.8,3.4c-0.1-0.2-0.2-0.3-0.3-0.5c3.2-3.8,6.5-7.6,10-11.7
		c0.2,0.7,0.4,1,0.4,1.3c0.1,2.2,0.2,4.4,0.2,6.6C427,342.7,426.7,343.2,426.5,343.3z M447.7,334c-2.5,1.3-5,2.6-7.6,3.9
		c-0.4,0.2-0.7,0.3-1.1,0.3c-3.4,0.1-6.1,2.1-9.1,3.5c-0.3,0.2-0.6,0.4-0.9,0.5c-0.6,0.2-1.1,0.2-1.1-0.6c0.1-2.5,0-5.1,0.2-7.7
		c0.1-1.2,0.8-2.3,1.2-3.5c0.4-1.3,0.9-2.6,1.4-3.9c0.7-1.7,1.5-3.5,2.1-5.2c1.4-3.6,2.5-7.3,2.4-11.2c-0.1-2.7,1.3-4.8,2.4-7.1
		c0-0.1,0.2-0.1,0.7-0.4c1.8,5.5,3.7,10.7,5,16c1,3.7,2.6,7.2,3.8,10.8c0.4,1.2,0.8,2.3,1,3.5C448.2,333.2,448,333.8,447.7,334z
		 M473.2,345.6c-0.2,0.1-0.4,0.2-0.6,0.2h-2.3c-0.4-1.8-1-3.6,1.5-4.5c0.6,0.6,1.4,1.2,2.1,1.9C474.7,344.1,474.3,345.2,473.2,345.6
		z M492.2,349.6c-0.3,0.1-0.5,0.3-0.8,0.4c-0.6,0.2-1.1,0.4-1.6,0.6c-0.2-0.2-0.3-0.3-0.4-0.4c1-1.2,1.9-2.4,2.9-3.6
		C493.7,347.7,493.7,348.8,492.2,349.6z M490.1,355.4c-0.1-1.4,1.8-2.9,3.6-2.9c0,0.5,0.1,0.8,0.2,1.3
		C492.6,354.3,491.4,354.9,490.1,355.4z M552,300.2c-1.2,3.3-2.2,6.7-2.6,10.2c-0.4,3.4-0.7,6.9-1.8,10.2c-1.5,4.7-4.1,9-7.2,12.9
		c-0.1,0.1-0.2,0.1-0.4,0.2c-0.6-0.8-1.3-1.7-1.6-2.2c-0.1-0.2-0.2-0.4-0.4-0.6c-1.6-1.6-1.4-2.1,0.3-3.5c1.9-1.7,3.7-3.5,5.6-5.3
		c0.1-0.1,0.1-0.4-0.1-0.8c-0.7,0.5-1.4,0.9-2,1.5c-2.8,2.6-5.6,5.3-8.4,7.8c-3.1,2.9-6.5,5.4-10.3,7.3c-4.6,2.4-8.8,5.5-13.1,8.4
		c-3.2,2.2-6.6,3.9-10.4,4.9c-1.3,0.4-2.6,0.8-3.9,1.3c-0.6,0.3-1,0.1-1.3-0.4c-0.3-0.3-0.6-0.6-0.8-1c-0.1-0.3-0.1-0.8,0-1
		c1.2-1.7,0.6-3.5-1.3-4.3c-0.4-0.1-0.7-0.3-1.1-0.4c0.5-2.1-0.5-3.6-2.7-3.6c-1.2,0-2.4,0.2-3.6,0.5c-2.4,0.7-4.7,1.6-7,2.3
		c-0.8,0.2-1.6,0.2-2.3,0.3c-1.2-2.7-3.3-4.2-5.9-5.3c-1.3-0.5-2.5-1.1-3.7-1.7c-3.6-1.7-7-3.7-10.9-4.8c-1.8-0.5-3.7-0.3-5.6,0.5
		c-0.3-0.8-0.4-1.6-0.7-2.3c-1-2.6-2.1-5.1-2.9-7.7c-1.3-3.8-2.3-7.7-3.5-11.5c-1.1-3.1-2.3-6.2-3.4-9.3c-2.3-6.2-4.7-12.5-7-18.7
		c-0.8-2.2-1.7-4.3-2.6-6.4c-0.2,0-0.4,0.1-0.6,0.2c0.4,1,0.8,2.1,1.3,3.5c-1.5-0.4-2.8-0.7-4-1c-0.9-0.2-1.9-0.5-2.8-0.7
		c-1.9-0.3-2.6-1.3-3-3.1c-0.7-3.4,0.5-6.4,1.1-9.6c0.1-0.6,0.2-1.3,0.4-1.9c0.5-1.6,1.3-3,2.8-4c1.4-0.9,2.6-2.3,3.7-3.6
		c0.8-1,1.7-1.7,3-1.8c3.2-0.1,6.5-0.1,9.8-0.3c2.5-0.1,5.5,1.9,6.5,4.4c0.5,1.2,1.1,2.4,1.7,3.6c0.7,1.2,0.4,3.6-0.7,4.6
		c-1.2,1.1-1.3,2.4-0.8,3.7c1.6,4,3.3,8,5,12c0.9,2.1,1.9,4.3,3,6.3c1.9,3.3,4,6.5,5.8,9.8c2.1,3.9,4.9,7.3,7.9,10.5
		c2.9,3,5.4,6.3,8.1,9.5c0.5,0.6,1.1,1.2,1.7,1.6c1.6,1.1,0.9,2.3,0.5,3.6c-0.2,0.4-0.3,0.8-0.4,1.2c0.2,0.1,0.3,0.2,0.5,0.3
		c0.3-0.5,0.9-1,0.9-1.6c0.1-2,1.2-3,2.8-3.9c0.6-0.4,1.2-1,1.7-1.6c3.5-3.9,7.7-7,11.9-10c0.2-0.1,0.3-0.2,0.4-0.3
		c2.8-2.7,5.7-5.4,8.4-8.2c1.4-1.5,2.6-3.2,4-4.7c1-1.1,2.2-2.1,3.2-3.2c0.3-0.3,0.5-0.8,0.7-1.2c1.4-4,3.4-7.5,6.1-10.7
		c2.3-2.6,4.5-5.1,7.5-6.9c2.1-1.2,4.2-1.7,6.6-1.3c2,0.3,4.1,0.2,6.1,0.3c2.1,0.1,4.3,0.5,5.9,1.8c3.4,2.8,6.4,5.9,6.9,10.7
		c0.2,1.9,0.8,3.8,0.9,5.7C554.1,294.5,553,297.4,552,300.2z"/>
	<path class="st0" d="M475.8,244.8c-2.1-0.3-3.3-1-4.2-2.3c-0.6-0.9-1.5-1.7-2.2-2.6c-0.3-0.4-0.5-1.2-0.3-1.6
		c0.3-0.9,0.7-1.8,1.2-2.7c0.6-1.1,1.7-1.4,2.8-1.1c0.8,0.3,1.4,0,2.2-0.3c0.8-0.3,1.7-0.4,2.5-0.3c2.5,0.3,4.9,1.1,7,2.7
		c0.2,0.2,0.4,0.9,0.2,1c-1.7,1.8-3.4,3.8-5.3,5.3C478.5,243.9,476.8,244.3,475.8,244.8z M470.6,239.2c-0.1,0.1-0.2,0.3-0.3,0.4
		c0.9,1.2,1.7,2.4,2.8,3.4c1.6,1.7,5,0.5,6.6-0.8c1.3-1.2,2.5-2.5,3.8-3.7c0.2-0.2,0.3-0.5,0.5-0.8c-0.7,0.2-1.2,0.4-1.6,0.7
		c-2.8,2-5.7,2.9-9.1,1.4C472.4,239.5,471.5,239.4,470.6,239.2z M469.8,239.1c0.8-0.4,1.5-0.7,2.1-1.1c0.5-0.3,1-0.9,1.5-0.9
		c2.4-0.3,4.8-1.1,7.3-0.5c0.9,0.2,1.8,0.2,2.7,0.3c-2-2-4.6-2.3-7.2-2.5c-0.3,0-0.7,0.4-1.1,0.5c-0.5,0.2-1.1,0.4-1.6,0.3
		C471.2,234.9,469.6,236.3,469.8,239.1z M482.3,237.6c-1.4-0.1-2.4-0.2-3.5-0.2c-1.7,0-3.4,0.2-5.1,0.4c-0.3,0-0.5,0.6-0.7,1
		c0,0.1,0.4,0.4,0.6,0.5C476.8,240.7,479.5,239.8,482.3,237.6z"/>
	<path class="st0" d="M460.7,214.9c0.8-1.9,4.7-3.1,7.9-2.9c-3.1-1-6.1-3.2-9.6-1.3c-0.2,0.1-0.4,0-0.6,0c0-0.2,0-0.5,0.1-0.6
		c0.4-0.3,0.8-0.8,1.3-0.8c2.4-0.2,4.8-0.3,7.1,0.7c3.2,1.4,4.2,3.8,3.7,6.8c-0.5,2.9-1.2,5.7-1.9,8.6c-0.5,2.3,2.7,5,4.9,4.2
		c0.2-0.1,0.4-0.5,0.4-0.7c-0.3-1,0.7-1.4,1.3-1.8c0.4-0.3,1.3-0.4,1.8-0.2s0.7,0.9,1.1,1.5c1.2,0.1,2-0.2,1.9-1.2
		c-0.1-0.8-0.5-1.6-0.8-2.3c1.2,0.5,1.8,1.6,1.4,2.7c-0.6,1.6-1.5,1.9-3.1,1.5c-0.7-0.2-1.9,0.1-2.4,0.6c-2.3,2.1-6,0-7-2.2
		c-0.3-0.8-0.2-1.9,0.1-2.8c1-3,1.4-6.1,1.5-9.3c0-1.6-0.6-2.3-2.3-2.3C465.3,213,462.9,213.2,460.7,214.9z"/>
	<path class="st0" d="M509.8,218.7c1.5,0.3,3-0.3,3.6-1.6c0.3-0.7,0-1.6,0-2.4c0-1-0.4-1.5-1.4-1.6c-0.8-0.1-1.3-1.9-0.7-2.9
		c0.5-0.9,1.2-1.7,1.9-2.4c0.3-0.2,1.3-0.2,1.4,0c0.8,1.2,1.6,2.5,2,3.9c0.4,1.6,0.3,3.3,0.3,4.9c0,1.2-0.9,2.2-2.2,2.5
		c0.5-1.2,1.2-2.2,1.4-3.4c0.2-1.2,0-2.6-0.3-3.8c-0.3-1.2-1.1-2.4-1.6-3.5c-1.4,0.5-2.3,2.1-2,3.1c0.1,0.2,0.3,0.4,0.5,0.5
		c1.4,0.2,1.6,1.3,1.7,2.5c0,0.3,0,0.7,0,1c0,1.8-1.3,3.6-3,4.2C510.4,220.2,509.9,219.9,509.8,218.7z"/>
	<path class="st0" d="M471.7,266c0.3,0.2,0.6,0.4,0.8,0.7c3.1,4.3,6.1,8.6,9.2,12.9c0.9,1.2,1.9,2.3,2.8,3.5
		c0.2,0.3,0.1,0.8,0.1,1.2c-0.3-0.2-0.7-0.4-0.9-0.7c-0.9-1.1-1.9-2.3-2.8-3.4c-1.9-2.6-3.7-5.1-5.5-7.7c-1.2-1.6-2.3-3.3-3.5-4.9
		c-0.2-0.3-0.4-0.8-0.6-1.1C471.5,266.2,471.6,266.1,471.7,266z"/>
	<path class="st0" d="M488.7,212.9c-1.2-1.4-2.5-2.1-4.1-2c-2,0.2-4,0.3-6.3,0.4c0.2-0.3,0.4-0.6,0.6-0.6c3.7-0.2,7.8-1.5,10.8,2.2
		c-0.3,0.4-0.6,0.7-0.9,1.1c-0.8,1-1.9,1.5-3.2,1.6c-2.2,0.2-4.2-0.5-6.2-1.2c-0.2-0.1-0.3-0.4-0.5-0.6c0.3-0.2,0.5-0.5,0.8-0.5
		c0.5,0,1,0.1,1.4,0.3c1.6,0.8,3.3,0.8,5,0.6C487,214.1,487.8,213.4,488.7,212.9z"/>
	<path class="st0" d="M505.3,263.9c0,0.4,0.1,0.8,0,1c-0.8,1.5-1.6,3-2.5,4.5c-0.7,1.2-1.4,2.5-2.2,3.7c-1.7,2.3-3.5,4.5-5.2,6.7
		c-0.5,0.6-0.8,1.3-1.2,1.9c-0.2-0.1-0.3-0.2-0.5-0.2c0.1-0.4,0.1-0.8,0.3-1.1c1.8-2.4,3.7-4.8,5.5-7.3c0.9-1.3,1.6-2.7,2.4-4
		C503,267.4,504.1,265.7,505.3,263.9z"/>
	<path class="st0" d="M489.1,206.1c-0.3,0.2-0.6,0.6-0.9,0.6c-2.1,0.3-4.2,0.4-6.2,0.8c-1.8,0.4-3.6,1.2-5.4,1.8
		c-0.4,0.1-0.8,0.1-1.2,0.1c0.2-0.4,0.3-1,0.6-1.2c1.1-0.5,2.3-1.1,3.6-1.3c2.7-0.4,5.4-0.7,8-1c0.4-0.1,0.9-0.2,1.3-0.2
		C488.9,205.8,489,206,489.1,206.1z"/>
	<path class="st0" d="M460.5,217c0.7,0,1.1,0,1.5,0c2.1,0.3,3.9-0.4,5.6-1.6c0.3-0.2,0.8-0.2,1.2-0.2c-0.1,0.4-0.2,1.1-0.4,1.2
		c-1.2,0.7-2.4,1.6-3.8,1.8c-1.1,0.2-2.4-0.3-3.6-0.5C460.9,217.7,460.8,217.4,460.5,217z"/>
</g>
</svg>
