<?xml version="1.0" encoding="utf-8"?>
<!-- Generator: Adobe Illustrator 18.1.1, SVG Export Plug-In . SVG Version: 6.00 Build 0)  -->
<!DOCTYPE svg PUBLIC "-//W3C//DTD SVG 1.1//EN" "http://www.w3.org/Graphics/SVG/1.1/DTD/svg11.dtd">
<svg version="1.1" id="Layer_1" xmlns="http://www.w3.org/2000/svg" xmlns:xlink="http://www.w3.org/1999/xlink" x="0px" y="0px"
	 viewBox="404.1 162.7 150 233.5" style="enable-background:new 404.1 162.7 150 233.5;" xml:space="preserve">
<style type="text/css">
	.st0{fill:#03A9F4;}
</style>
<g id="elbowpain-lady2">
	<path class="st0" d="M553.1,326.8c-1.4-7.1-5.3-13.4-7.4-20.3c-0.6-2-1.8-3.9-2.5-5.9c-2.4-6-4.8-12.1-7-18.1
		c-1.5-4-3.1-8.1-4.3-12.3s-2.4-8-4.1-11.8c-1.4-2.8-2.5-5.6-3.6-8.4c-1.8-4.3-4.1-8-7.6-11.1c-2.6-2.4-5.6-3.4-9.3-3.3
		c-4,0.1-7.8,0.5-11.5,2c-1.5,0.6-3.1,1-4.8,0.9c-2.5-0.1-4.9-0.6-7.5-1c0-0.3,0-0.8,0.1-1c0.9-1.9,1.9-3.5,2.8-5.4
		c1-2.3,2.1-4.5,2.8-6.9c0.5-1.8,0.5-3.6,0.8-5.5c0.5-4.1,1-8.3,1.6-12.4c0.3-1.6,0.4-3.3,1-4.6c2.8-5.9,2.4-11.8,0.3-17.5
		c-1.3-3.5-3.3-6.8-5-10c-1.5-2.9-3.6-5-6.8-6.4c-3.8-1.6-7.4-3.1-11.4-3.8c-2.1-0.4-4.3-1.3-6.4-1.4c-3.6-0.3-7.3,0.1-10.8,1.5
		c-1,0.4-2.1,0.5-2.9,1c-2.1,1.5-4.3,3.1-6.3,4.8c-4.8,4-8.9,8.6-10.1,15.1c-0.3,1.9-1.1,3.8-1,5.6c0.1,2.5,0.4,5.1,1.8,7.5
		c0.6,1,1.3,2.3,0.6,3.5c-1.5,2.9-1.5,6-1.3,9.1c0.3,2.9,1.4,5.5,3.9,7.4c1.6,1.1,3.4,2.1,2.8,4.6c-0.1,0.5,0.3,1,0.3,1.5
		c-0.1,0.9,0,1.8-0.4,2.4c-1.3,2.6-2.8,5-3.9,7.6c-1.8,4-3,8-3.3,12.4c-0.1,1.8-0.5,3.5-2.6,4c-0.8,0.1-1.5,0.4-2.4,0.5
		c-1.9,0.1-3.9-0.1-5.8,0.4c-4.3,1.1-8.5,2-12,5c-2,1.8-3.9,3.5-4.5,6.1c-0.5,1.9-0.8,3.9-1.1,5.8c-0.6,3.8-0.4,7.6,0.6,11.3
		c2.1,7.6,4.4,15,6.6,22.5c0.9,3,1.8,6.1,2.9,9.1c1.4,3.4,3.1,6.6,4.6,9.9c2.1,4.4,4.3,8.9,6.3,13.4c2.4,5.4,4.9,10.8,8.8,15.3
		c1,1.1,1.8,2.5,1.8,4.3c0,2.3,0.6,4.4,0.9,6.6c0.1,1,0.1,2.3-0.4,3.1c-1,1.9-2.3,3.8-3.5,5.5c-1,1.4-2.5,2.4-3.3,3.9
		c-3.1,5.9-6.1,11.8-9.1,17.8c-0.8,1.4-1.4,2.9-2,4.4c0.1,0.1,0.3,0.3,0.4,0.4c0.5-0.3,1-0.5,1.3-0.9c0.6-1.1,1.1-2.5,1.8-3.6
		c1-2,2.1-3.9,3.1-5.9c1.8-3.6,3.4-7.4,5.1-11c0.1-0.3,0.5-0.5,0.8-0.8c0.5-0.5,1.1-1.1,1.6-1.8c1.9-2.8,3.6-5.6,5.5-8.5
		c0.8,0.9,1.4,1.8,2.3,2.4c1.8,1.1,2.6,2.8,3.3,4.5c0.8,1.8,1.8,3.1,3.5,3.9c1.5,0.6,3,1.1,4.5,1.6c4,1.3,8,2.5,12,3.5
		c1.5,0.4,3.3,0.6,4.5-0.9c0.9-1,1.9-1.9,2.8-3c1.1-1.6,2.3-3.1,3.3-4.9c1.6-3,3.1-6.3,4.9-9.3c1-1.9,2.8-3.3,5-3.6
		c3.1-0.4,6.3-0.8,9.4-1.1c1.9-0.3,3.9-0.5,5.8-0.9c1-0.1,1.9-0.9,2.8-1c3.5-0.4,7-0.6,10.5-0.9c0.1,0,0.3,0,0.5,0.1
		c0,2.4,0.1,4.6,0,7c-0.1,0.9-0.5,2-1.1,2.8c-1.8,2-3.8,3.6-6.3,4.6c-3.4,1.4-6.5,3.1-8,6.6c-0.1,0.4-0.5,0.8-0.9,1.1
		c-2.5,2.4-5,4.9-7.6,7.3c-0.9,0.9-2.1,1.3-3.3,1.8c-1.4,0.6-2.8,1.3-4,1.9c-0.3,0.3-0.4,0.8-0.5,1.1c0.4,0,0.9,0.1,1.3,0
		c1.4-0.5,2.6-1.1,3.9-1.8c0.9-0.4,1.8-0.6,2.5-1.3c3.9-3.4,8-6.5,10.6-11c0.6-1,1.5-1.9,2.5-2.5c1.3-0.9,2.8-1.4,4.1-2.3
		c1.9-1.1,3.6-2.4,5.4-3.6c0.4-0.3,0.8-0.6,1.3-1.1c0,1.9,0.1,3.5,0,5.1c-0.1,1.3-0.9,2.6-0.9,4c-0.1,4.8,0,9.4,0,14.1v7.3
		c0,0.4,0.1,0.6,0.3,1c0.3,0,0.4,0,0-0.3c0.3-0.9,0.5-1.9,0.5-2.8c0-1.9-0.4-3.9-0.3-5.8c0.3-5-0.9-10.1,0.8-15.1
		c0.6-1.8,0.4-3.8,0.4-5.6v-11.4c0-1.3,0.6-1.8,1.8-2c4-0.8,7.9-1.6,11.9-2.4c3.5-0.6,6.9-1.4,10.3-2.1c4.8-1,9.5-2,13.3-5.4
		c1.6-1.4,2.8-2.9,3.1-5C554.5,334.4,553.8,330.7,553.1,326.8z M496.3,239.8c0.9,3.4,1.6,6.9,2.5,10.4c0.3,1.4,0.9,2.6,1.4,4
		c1.4,4.3,2.9,8.4,4.1,12.6c1.3,4.3,3.1,8.1,4.9,12.3c0.9,2.1,1.9,4.3,2.8,6.4c0.9,2.3,1.6,4.5,2.6,6.8c1.1,2.5,2.1,5.1,3.5,7.5
		c2,3.5,3.5,7.1,4.5,11c0.6,2.3,0.3,4.4,0.1,6.6c-0.1,1.8-0.3,3.4-0.8,5c-0.4,1.6-1.1,3.1-1.9,4.6c-1.4,2.9-4,4.4-6.9,5.6
		s-5.8,2.6-8.6,4c-1.9,0.9-3.9,1.6-6.1,1.1c-0.9-0.1-1.9,0.1-2.9,0.3c-2.3,0.3-4.6,0.8-7,0.8c-2.3,0.1-4.6-0.4-6.9-0.5h-2.6
		c-0.3,1.3,0.4,1.5,1.1,1.5c4.5,0.1,9,0.3,13.5,0.3c0.5,0,1.1-0.3,1.8-0.4c0.6-0.1,1.1-0.1,1.8-0.3c0,0.3,0.1,0.5,0.1,0.8
		c-8.3,3.3-17,4.4-25.8,6.1c0.3-1.6,0.6-3.1,0.9-4.8c0.6-3.5,1.3-7.1,1.8-10.6c0.3-2.1,0.3-4.1,0.3-6.3c0-0.6-0.4-1.1-0.4-1.8
		c0-0.8,0.3-1.5,0.3-2.3c0-1.1-0.1-2.4,0.1-3.5c0.9-4.5,0.5-9,0.6-13.6c3.6,0.4,7.1,0.8,10.6,0.9c2.1,0,4.3-0.4,6.3-0.9
		c2.4-0.5,4.9-1.3,7.1-2.3c4.3-1.9,6-5.4,6.4-10c0.3-3.4,0.4-6.9-0.5-10.1c-1.3-4.6-2.8-9.1-4.1-13.8c-1.5-4.8-3.1-9.6-4.6-14.4
		c-1-3.3-1.9-6.6-3-9.9c-0.4-1.1-1.1-2-1.8-3C493.1,240,494.5,240,496.3,239.8z M524.1,316.5c0.8,2.5,1.4,5,2,7.4
		c0.1,0.5-0.1,1.4-0.5,1.6c-1.4,1.1-2.9,2-4.3,3c-0.3,0.1-0.4,0.1-0.6,0.3c0-0.1-0.1-0.1-0.3-0.3C523.2,325,523.9,320.9,524.1,316.5
		z M485.3,239.1c0.8-0.1,1.4,0.3,2.1,0.3c2.9,0,3.6,2.3,4.4,4.4c2.5,7.6,4.9,15.4,7.4,23c1.5,4.6,3.1,9.3,4.4,13.9
		c1,3.8,1,7.6,0.6,11.5c-0.4,4.4-3.4,7.3-7.4,8.6c-3.6,1.3-7.4,2.4-11.4,2.1c-1-0.1-1.5-0.4-1.9-1.3c-0.6-1.6-1.4-3.1-2.1-4.6
		c-0.3-0.5-0.6-0.9-0.9-1.4c-0.1,0.1-0.4,0.1-0.5,0.1c0,0.6-0.1,1.1-0.1,1.6c0.8,1.6,1.5,3.1,2.4,5.3c-2.6-0.1-4.8-0.3-7-0.5
		c-0.3,0-0.6-0.9-0.6-1.3c0-5,0-9.9,0.3-14.9c0.3-4.9,0.6-9.6,1.1-14.5c0.1-1.5,0.8-2.9,0.9-4.3c0.3-1.8,0.4-3.6,0.4-5.4
		c-0.1-1.5-0.1-3-0.8-4.4c-0.6-1.4-1.8-2.6-2.8-3.9c-0.9-1.1-1.9-2.4-2.7-3.6c0.4-0.2,0.9-0.5,1.4-0.6c2.3-0.6,3.5-2.3,4.8-4.1
		c1.4-2,2.9-4,4.6-5.6C482.6,239,484.2,239.1,485.3,239.1z M442.7,193.3c0.5-0.8,0.6-1.8,1-2.5c0.4-0.8,1-1.6,1.6-2.4
		c1.1-1.1,2.4-2.1,3.6-3.3c2.9-2.6,6.4-4.1,10.3-4.9c2.1-0.4,4.1,0,6.3,0.1c2.3,0.1,4,1.5,6,2.1c0.3,0.1,0.6,0.2,0.9,0.3
		c-0.2-0.6-0.4-1.2-0.6-1.8c-0.2-0.1-0.5-0.2-0.7-0.3c0.2-0.3,0.3-0.8,0-1.2c-0.3-0.5-0.5-1-0.8-1.5c-0.2-0.4-0.5-0.8-0.7-1.2
		c-0.8-1.3-1.6-2.7-2.3-4.1c-0.3-0.6-1-1.6-1.1-2.5c-0.1-0.2-0.3-0.3-0.4-0.4c-0.3-0.3-0.3-0.7-0.2-1c0,0,0-0.1-0.1-0.1
		c0.1,0,0.1-0.1,0.2-0.1c0.3-0.4,0.8-0.5,1.2-0.2c0.3,0.2,0.5,0.4,0.7,0.6c0.1,0,0.2,0,0.3-0.1c0,0.2,0,0.3,0,0.4c0,0,0,0,0.1,0
		c0.3,0.2,0.4,0.4,0.4,0.7c0.7,1,1.2,2,1.7,3.1c0.1,0.1,0.1,0.2,0.2,0.3c0.5,1,1.1,2,1.6,3.1c1.3,2.3,2.6,4.6,3.1,7.1
		c1.4,0.4,2.8,0.8,4.2,1.2c0.2,0,0.3,0.1,0.4,0.1c0.4,0.4,0.8,0.8,1.3,1.2c0.5,0.4,1.3,0.4,1.8,0c2.8,1.4,5,3.4,6.6,6.5
		c0.8,1.5,1.5,2.9,1.9,4.4c0,0.1,0,0.2,0,0.4c0,0.4,0.1,0.6,0.3,0.8c0.2,0.8,0.3,1.7,0.3,2.6c0,1.5-0.4,2.9-0.6,4.4
		c-0.4,2.6-0.8,5.4-1.1,8c-0.5,3.9-0.9,7.9-1.8,11.8c-0.4,2.1-1.8,4.1-2.4,6.3c-1.4,4.1-4.6,6.9-7.3,10c-0.9,0.9-1.6,1.8-2.1,2.9
		c-1.4,3.1-4.3,4.3-7.3,5.1c-0.6,0.3-1.1,0-1.3-1c-0.4-4.5-2.6-8.3-6.4-10.6c-1.8-1.1-3.9-2-5.8-3c-0.6-0.4-1.9,0.4-3.1,0.6
		c-2.5-1.9-4.8-0.6-6,1.6c-2.3-1.6-2.9-4.1-3.8-6.5c-1.3-3.5-1.3-7.3-1.9-10.9c-0.1-0.5,0.1-1.1,0.3-1.6c0-0.9,0.4-1.9,0.1-2.5
		c-0.9-1.8-0.6-3.5-0.1-5c0.4-1.1,0.5-2.2,0.5-3.3c0.2-0.3,0.4-0.7,0.2-1.1c-0.1-0.3-0.2-0.6-0.3-0.9c-0.1-1.2-0.3-2.3-0.5-3.5
		C440.9,198.6,441.1,195.8,442.7,193.3z M441.4,208.6c-0.3,0.9-0.4,1.8-0.4,2.6c-0.1,0.9-0.3,1.8-0.4,3c-1-0.8-2.1-1.1-2.6-1.9
		c-0.6-1.1-0.9-2.6-1-3.9c-0.1-1.1,0.5-1.3,1.6-0.8C439.4,208.2,440.4,208.3,441.4,208.6z M440.2,218c-1.6,0.4-2.6-0.8-3.4-1.8
		c-2.3-3.3-2.8-8.6-0.9-12.1c0.4-0.8,0.6-0.8,1.4-0.4c1.3,0.6,2,1.6,2.3,3.3c-1.1-0.6-2.1-1.4-3.1-0.3c-0.9,1-1.3,3-0.6,4.4
		c0.6,1.6,1.6,3.1,3.5,3.8C440.7,215.3,440.8,216.2,440.2,218z M440.8,228.5h0.5c0.8,2.3,1.5,4.4,2.3,6.6c-1-0.3-2.1-0.5-3.3-0.8
		c-1-0.1-1.5,0.5-1.9,1.4c-0.8,1.8-0.5,3.4,0.4,5c0.9,1.5,0.8,3,0.8,4.6c0,0.3-0.1,0.6-0.3,0.8c-1.5,0.9-3.1,1.8-5,2.8
		C434.4,241,437.4,234.6,440.8,228.5z M443.6,236.5c-0.3-0.1-0.4-0.1-0.6-0.3c-0.5,0.8-1.1,1.5-1.5,2.4c-0.4,0.8-0.6,1.6-1,2.5h-0.5
		c-0.3-1.4-0.6-2.9-0.6-4.3c0-1.6,1-2.1,2.5-1.4C442.4,235.7,442.9,236.1,443.6,236.5z M432.7,251.4c2.3-1.3,4.5-2.6,7-4
		c0,2.3,0.1,3.9,0,5.4c-0.1,1.5,0.8,3.5,2.1,4.3c4.3,2.1,8.6,4.3,13,6.3c4,1.9,5.6,3.1,5.4,7.6c-0.1,2.9-0.8,5.6-1.3,8.5
		c-0.5,3-1,6.1-1.5,9.1c0,0.6-0.3,1.1-0.5,2.1c-1.3-1.8-2.4-3.3-3.4-4.8c-2.9-4.6-5.5-9.5-8.8-13.9c-2.8-3.8-4.9-7.6-6.6-11.9
		c-0.9-1.9-2.4-3.4-3.3-5.3c-0.5-1.3-1.3-2.1-2.3-3C432.6,251.9,432.6,251.4,432.7,251.4z M431.6,252.6c1,1.8,2.4,3.9,3.6,6.1
		c1.1,2.1,2.3,4.4,3.1,6.6c1.4,3.3,3.9,5.5,5.8,8.4c0.8,1.3,1.5,2.4,2.3,3.6c2.3,3.8,4.5,7.5,6.9,11.3c0.9,1.3,1.9,2.4,2.6,3.8
		c0.3,0.5,0.4,1.3,0.3,1.8c-1,3.6-2,7.4-3.1,11c-0.8,2.6-1.8,5.4-2.6,8h-0.6c-1-2.3-1.9-4.5-2.9-6.4c-0.8-1.6-1.6-3.1-2.5-4.6
		c-0.5-1-0.5-1.6-0.1-2.8c1.5-4,1.9-8,1.4-12.3c-0.3-2.4-0.8-4.6-1.9-6.6c-2.5-4.6-5.1-9.3-7.9-13.6c-2.3-3.6-5-6.9-7.5-10.3
		c-0.8-1-1.3-2.3-2-3.5C427.9,253,429.5,252.7,431.6,252.6z M430.2,341.9c-2.8-5.4-4.9-11.1-7.4-16.8c-1.6-3.5-3.5-6.9-5.1-10.4
		c-0.9-2-2-3.9-2.3-6.3c-0.3-2.4-1.6-4.6-2.4-6.9c-1.4-4.5-2.6-9.1-4-13.6c-0.6-1.8-1.1-3.5-1.8-5.3c-0.9-2.1-1.6-4.4-1.5-6.8
		c0.1-4-0.1-8,1.1-11.9c0.9-2.6,2.6-4.6,4.6-6.3c3.1-2.6,7.1-3.4,10.9-4.5c0.4-0.1,1.1,0.3,1.5,0.6c0.6,0.5,1.4,1,1.9,1.6
		c2.3,3,4.6,6,6.9,9.1c1.6,2.3,3.3,4.5,4.8,6.9c1,1.4,1.5,3.1,2.3,4.6c1.4,2.9,3.6,5.4,4.4,8.6c0,0.3,0.3,0.5,0.3,0.8
		c0.1,4.1,0,8.1-1.3,12c0,0.1-0.1,0.3-0.5,0.5c-1-2.1-2-4.1-2.8-6.3c-0.6-1.8-1-3.5-1.4-5.3c-0.1-0.5,0.3-1,0.3-1.5
		c0-3.3-0.9-6.1-2.3-9c-0.3-0.4-1-0.4-1.8-0.8c0.9,1.9,1.6,3.3,2,4.8c0.5,1.8,0.8,3.6,0.6,5.4c-0.3,3,0.6,5.6,1.8,8.1
		c1.8,3.9,3.6,7.6,5.5,11.4c1.3,2.8,2.5,5.4,3.8,8.1c0.8,1.5,0.3,3.8-1.4,5c-1.4,1.1-2.1,2.6-2.9,4.3c-1,2.3-2.3,4.4-3.3,6.6
		c-1.5,3.8-2.6,7.8-2.3,12c0,0.3-0.1,0.6,0,0.8c0.1,0.3,0.4,0.5,0.6,0.8c0.3-0.4,0.6-0.6,0.6-0.9c0.1-0.5,0-1,0-1.5
		c-0.4-3.9,0.8-7.5,2.3-10.9c1.5-3.3,3.1-6.4,5.4-9.4c3.6-4.9,6.1-10.4,7.6-16.4c1.3-4.6,2.5-9.3,3.5-14c0.8-3.6,1.3-7.4,1.9-11.1
		c0.4-2.5,0.8-5.1,0.9-7.8c0.1-4.5-2.1-6.4-5.5-7.9c-4.4-2-8.8-4-13-6.3c-1.3-0.8-2.4-2-2.3-3.9c0.3-3.6,0.4-7.3,0.6-10.8
		c0-1,0.5-2,0.9-3c0.4-0.9,2.4-1.6,4-0.5c-1.1,3.8-2.9,7.1-2.9,11c0.3,0,0.4,0,0.1,0c0.1-0.5,0.4-1,0.5-1.6c0.6-3.9,2-7.5,3.9-11
		c0.4-0.6,1.1-1.1,1.9-1.4c0.5-0.3,1.4,0.1,1.8,0.5c0.3,0.3,0.1,1.1-0.1,1.6c-1.1,2.9-2.4,5.6-3.5,8.5c-0.4,1-0.6,2-0.5,3
		c0.1,0.9,0.9,1.6,1.4,2.5h0.5c0-0.4,0.1-0.9,0-1c-1.4-1.3-0.9-2.8-0.5-4.1c0.9-3.4,2.4-6.5,4.3-9.5c1-1.5,2.6-1.9,3.8-0.8
		c0.3,0.3,0.4,1,0.3,1.3c-1.5,3-3.1,5.9-4.8,8.8c-1,1.8,0,5,1.9,5.4c-0.1-0.3-0.1-0.5-0.3-0.8c-1.1-1.8-1.3-3.4-0.3-5.1
		c1.3-2.1,2.3-4.5,3.5-6.6c0.8-1.3,2.6-1.5,3.9-0.6c3.5,2.5,5.4,5.9,6.1,10.4c-1.3-0.5-2.4-1-3.4-1.5c-0.1-0.1-0.3-0.9,0-1.1
		c0.3-0.4,0.8-0.4,1.3-0.6c-1.3-1.1-2.3,1-2.8-0.6c-0.3-0.8-0.1-1.8-0.3-2.9c-0.3,0.5-0.5,0.9-0.8,1.4c-0.5-0.1-1-0.4-1.5-0.5
		c0,0.1-0.1,0.3-0.1,0.4c0.4,0.1,0.8,0.1,1.1,0.4c0.3,0.3,0.4,0.5,0.5,0.8c0,0.1-0.3,0.4-0.5,0.5c-0.6,0.3-1.1,0.6-1.8,0.9
		c0.1,0.1,0.1,0.3,0.1,0.4c0.4-0.1,0.9,0,1-0.3c0.9-1.1,1.5-0.8,2,0.3c1.3,2.4,3.9,2.8,6,3.9c3.5,1.9,6.1,4.6,7.9,8.1
		c0.5,0.9-0.5,2.4-1.5,3c-1.9,1.1-3.9,1.6-6,1.3c0,0.1-0.1,0.4-0.1,0.5c0.4,0.3,0.8,0.5,1.1,0.6c2,0.3,3.6-0.5,5.3-1.4
		c0.5-0.3,0.9-0.6,1.6-1.1c0,1.9,0.3,3.6,0,5.3c-0.3,1.9-1,3.6-1.5,5.5c-0.1,0.4,0,0.8,0,1.1c-0.1,2.9-0.4,5.8-0.5,8.6
		c-0.1,0.9-0.4,1.9-0.4,2.8c-0.1,4-0.3,7.9-0.3,11.9c0,4.3,0.1,8.4,0,12.5c-0.1,3.6-0.6,7.3-0.8,10.9c-0.1,1.8,0.1,3.6,0.3,5.4
		c0.3,6-1,11.8-2.3,17.5c-0.6,3.3-1.8,6.3-3.5,8.9c-1.5,2.1-2.1,4.9-5.1,5.9c-1.8,0.6-3.1,2-4.8,3.1c-1.3-3-2.4-5.8-3.5-8.6
		c-0.5-0.9-1-1.9-1.6-2.8c-0.6-1-1.6-1.4-2.8-1c-1.1,0.4-2,1.1-1.8,2.5c0,0.1,0,0.3-0.1,0.5c-0.4-0.5-0.6-0.9-1-1.3
		c-1.9-2.1-2.6-2.4-5.1-1.3c-0.5,0.3-0.9,1.1-0.9,1.8c0.1,1.9,0,2.1-1.9,2.1c-0.5,0-1,0.1-1.6,0.3
		C434.8,349,432.1,345.7,430.2,341.9z M460.6,362.2c0.5,0,1.1,1,1.4,1.6c0.3,0.8,0.1,1.6,0.3,2.4c-1.6,0.5-3.1,1.3-4.9,1.4
		c-0.8,0.3-1.9-0.1-2.4-0.6c-0.4-0.4,0-1.5,0.4-2.3c0.4-0.8,1-1.4,1.5-2C457.9,361.3,459.3,362.2,460.6,362.2z M449.4,354.3
		c-0.3-1.3-0.5-2.5-0.5-3.8c0-0.5,0.6-1,0.9-1.5c0.1,0.4,0.5,0.8,0.6,1.1C450.9,351.7,450.4,353,449.4,354.3z M445.9,350.8
		c-0.4,1.1-1.3,2.3-2.3,3c-0.5,0.5-1.9-1.5-1.9-2.6c0-1.5,0.5-2.1,2.4-2.1C444.6,349.4,446.1,350.3,445.9,350.8z M437.9,353.8
		c0.5-0.4,1.4-0.5,1.9-0.4c0.6,0.1,1.1,0.9,1.6,1.4c-0.4,1.4-0.6,2.4-1,3.4c-0.3,0.9-0.9,0.9-1.4,0.1c-0.6-0.9-1.1-1.9-1.4-2.9
		C437.6,354.9,437.6,354,437.9,353.8z M437.8,358.8c1.5,1.8,2.8,3.6,3,6C438.8,363.2,438.4,360.9,437.8,358.8z M553.3,337.8
		c-0.8,3.8-3.5,5.6-6.5,7c-4.8,2.3-9.9,3.1-15,4.3c-2.4,0.5-5,0.5-7.4,1c-2.1,0.4-4.1,1.4-6.3,1.8c-4.1,0.8-8.1,1.3-12.3,1.6
		c-2.4,0.3-4.8,0.4-7.1,1.1c-2.1,0.8-4.3,0.9-6.4,1.1c-2.5,0.4-5.1,0.8-7.8,1h-1.8c0.5-0.5,0.8-0.6,0.6-0.9c0.1-0.4,0.3-0.8,0.4-1.1
		c-0.5,0.1-1,0-1.4,0.3s-0.6,0.8-1,1.3c-1.5,1.9-3.3,3.6-4.4,5.6c-1.6,2.8-2.8,5.8-4.1,8.5c-1.3,2.5-3.3,4.5-4.9,6.8
		c-2,2.8-4.4,2-6.5,1.4c-4.8-1.3-9.5-3-14.1-4.8c-0.9-0.4-1.8-1.4-2.3-2.3c-1.5-3-2.8-6.1-4.1-9.1c-0.1-0.3-0.3-0.6-0.5-0.9
		c-0.9-0.8-0.8-1.4,0-2.3c0.5-0.6,0.6-1.5,1.1-2.5c0.5,1.4,1,2.4,1.4,3.5c0.9,2.5,1.5,5,2.8,7.4c0.9,1.6,1.6,3.5,3.6,4.5
		c3.1,1.5,6.3,3.4,9.4,5.1c0.3,0.1,0.6-0.1,0.9-0.1c0-0.3,0-0.8-0.3-0.9c-0.6-0.4-1.4-0.6-2-1c-2.6-1.5-5.4-2.9-8-4.5
		c-0.6-0.4-1-1.3-1.4-2c-1.9-4.4-3.6-8.8-5.3-12.5c1.4-1.8,2.5-2.9,3.6-4.3c0.4,0.9,0.9,1.8,1.3,2.8c1,3.1,1.9,6.3,2.8,9.4
		c0.1,0.4,0.1,0.8,0.1,1.1c-0.4,2.4,1,3.9,2.8,4.8c4,2,8.1,3.8,12.3,5.6c0.3,0.1,0.6,0,1.1,0.1c-0.3-1.3-1.3-1.4-2-1.6
		c-4-1.6-8.1-3.1-11.6-5.9c-0.8-0.6-1.1-1.8-1.4-2.8c-0.8-2.9-1.4-5.9-2.1-8.8c-0.1-0.3-0.3-0.6-0.1-0.8c2.1-1.5,1.4-3.8,1.9-6.1
		c1,2.1,1.9,3.9,2.6,5.8c0.8,1.8,1.3,3.6,1.6,5.4c0.1,0.6-0.3,1.5-0.5,2.1c-0.3,0.6-0.6,1.1-1,1.6c-0.8,1-1,2.5-0.3,3.3
		c0.6,0.8,2.3,1.1,3.3,1c2.3-0.4,4.5-0.9,6.4-2c2.1-1.1,3.6-1,5.1,0.9c0.3-0.9,0.3-0.9-1.5-2.9c1.1-1,2.3-2,3.4-3
		c0-0.3-0.1-0.4-0.3-0.5c-2.8,0.8-4.4,3.6-7.4,4.4c0.4-2.5-0.9-4.1-3.6-4.9c1.5-1,2.8-1.9,4-2.5c1.6-0.9,3-1.6,3.6-3.6
		c0.5-1.6,1.6-3.1,2.5-4.5c1.3-1.9,3.3-2.4,5.4-2.9c6.5-1.4,13.1-2.8,19.5-4.5c3-0.8,5.9-2.4,8.9-3.6c4.9-2.1,9.8-4.1,14.5-6.5
		c2.4-1.1,4.3-3,6.4-4.6c0.6-0.5,1.3-0.9,1.9-1.3c0.8-0.5,2-3,1.5-3.4c-1.6-1.1-1.4-3-1.8-4.5c-0.6-2.5-0.9-5.3-1.5-7.8
		c-0.9-3-1.8-6-3-8.8c-2.6-6-5.4-12-8.1-18c-0.1-0.4-0.3-0.9-0.3-1.3c-0.1-3.5-0.1-6.9-0.4-10.4c-0.1-2.1-0.8-4.3-1.1-6.4
		c0-0.3-0.5-0.5-0.9-0.9c0.4,4.9,0.6,9.4,1,13.9c-0.1,0-0.4,0.1-0.5,0.1c-0.3-0.6-0.4-1.4-0.8-2c-1.6-2.9-2.8-6-3.9-9.3
		c-1.5-4.8-3.3-9.4-4.8-14c-1.5-4.8-2.9-9.5-4.3-14.3c-0.3-0.8,0.1-1.4,0.9-1.5c2.5-0.5,4.9-1.1,7.4-1.5c1.8-0.3,3.8-0.3,5.6,0
		c2.5,0.3,4.3,2,5.9,3.6c2.5,2.4,4.6,5.1,5.9,8.3c2.5,6,5,11.8,7.4,17.8c0.6,1.6,0.6,3.6,1.3,5.4c1.1,3.3,2.5,6.5,3.8,9.8
		c2.3,5.8,4.3,11.4,6.5,17.1c0.9,2.3,2,4.4,2.9,6.6c0.9,2,1.1,4.3,2.3,6.1c3,5.1,4.6,10.6,5.9,16.3
		C553.4,331.2,553.9,334.5,553.3,337.8z"/>
	<path class="st0" d="M460.3,234.1c2-0.5,3.9-1,5.8-1.5c0.9-0.3,1.8-0.4,2.6-0.5c0.8,0,1.5,0.3,2.3,0.4c0.4,0.1,0.9,0.4,1,0.3
		c1.4-1.1,2.8-0.6,4.1-0.3c1.3,0.4,2.4,0.8,3.6,1.3C475.5,241.7,466.6,243.1,460.3,234.1z M461.8,234.7c2.6,4.1,6.3,5.5,10.5,4.8
		c2.6-0.4,4.5-2.1,5.5-4.8C472.6,237.5,467.3,236.8,461.8,234.7z M478.1,233.7c-0.8-0.3-1.4-0.6-1.9-0.6c-1.4-0.1-2.9-1.3-4.3,0.1
		c-0.1,0.1-0.6-0.1-1-0.3c-0.8-0.1-1.4-0.5-2.1-0.5c-1.3,0.1-2.5,0.4-3.8,0.6c-0.5,0.1-0.9,0.3-1.4,0.5c-0.4,0.1-0.8,0.3-1.4,0.5
		C467.7,236.7,472.8,236.8,478.1,233.7z"/>
	<path class="st0" d="M466.9,222.2c-0.4,0.4-0.8,0.9-1.1,1.3c-0.9,1.1-0.9,2.6,0,3.3c0.4,0.1,0.9,0.1,1.3,0c1.1-0.4,2-0.4,3,0.5
		c1.4,1.4,2.8,1.4,4.4,0.1c0.4-0.3,0.9-0.4,1.3-0.6c1.8-0.6,2.1-1.3,1.5-3.3c-0.5-1.4-1.1-2.6-1.6-4c-1.3-3-0.6-5.9,0.3-8.8
		c0-0.1,0.4-0.1,0.6-0.3c-0.4,1.6-0.8,3.3-0.9,4.8c-0.3,2.5,0.6,4.9,1.9,7c0.5,0.9,0.6,2,0.6,3.1c0,0.5-0.5,1.3-1,1.5
		c-0.9,0.6-1.9,1-2.9,1.5c-1.4,0.6-2.6,0.4-3.9-0.4c-0.5-0.3-1.1-0.4-1.8-0.5c-0.4-0.1-0.6,0-1,0c-3,0-3.4-1.8-2.4-4
		c0.4-0.6,1-1.3,1.5-1.8C466.6,222,466.7,222.1,466.9,222.2z"/>
	<path class="st0" d="M477,213.6c1.1-1,2-0.1,3,0c2.8,0.5,5.5,0.8,8-1.1c-2.8-2-5.8-1.4-8.6-0.8c0-0.1,0-0.4,0-0.5
		c1.5-0.3,3.1-0.8,4.6-0.8c1.5,0.1,3.1,0.8,4.5,1.3c0.3,2.1-1.3,2.8-2.5,3.1c-2.9,0.8-5.8,0.5-8.4-0.8
		C477.2,214.1,477.2,214,477,213.6z"/>
	<path class="st0" d="M465.4,212.7c-2.3-1.8-4.4-2.4-6.8-2.1c0-0.3,0.1-0.4,0.1-0.6c1.4,0.1,2.8,0.3,4.1,0.5c0.8,0.1,1.5,0.6,2.1,1
		c0.4,0.3,0.8,0.6,1,1c-0.4,0.4-0.8,1.1-1.3,1.1c-1.6,0.3-3.1,0.4-4.8,0.4c-3,0-5.5-1-7.9-2.8c0-0.1,0-0.3,0-0.5c0.4,0,1-0.1,1.3,0
		c2.9,2.1,6.1,2.5,9.6,2C463.6,212.7,464.3,212.7,465.4,212.7z"/>
	<path class="st0" d="M480.3,209c-0.4-0.4-0.8-0.6-0.9-1c0-0.3,0.4-0.9,0.6-1c2.6-0.4,5.3-0.6,7.9-0.9c0.3,0,0.6,0.4,0.6,0.6
		c0,0.1-0.4,0.6-0.5,0.6c-2.6,0.4-5.1,0.8-7.8,1.1C480.3,208.6,480.3,208.7,480.3,209z"/>
	<path class="st0" d="M456.7,204.1c2.1,0.6,4.4,1.3,6.5,1.9c0.9,0.3,1.8,0.4,2.6,0.6c0.3,0.1,0.5,0.4,0.6,0.6
		c-0.3,0.1-0.5,0.5-0.8,0.5c-0.6,0-1.4,0-1.9-0.3c-1.4-0.4-2.6-1-4-1.4c-1.4-0.4-2.9-0.5-4.4-0.8c-0.4-0.1-0.8-0.4-1.1-0.5
		c0.4-0.3,0.8-0.5,1.3-0.6c0.4-0.1,0.8,0,1.1,0V204.1z"/>
</g>
</svg>
