<?xml version="1.0" encoding="utf-8"?>
<!-- Generator: Adobe Illustrator 18.1.1, SVG Export Plug-In . SVG Version: 6.00 Build 0)  -->
<!DOCTYPE svg PUBLIC "-//W3C//DTD SVG 1.1//EN" "http://www.w3.org/Graphics/SVG/1.1/DTD/svg11.dtd">
<svg version="1.1" id="Layer_1" xmlns="http://www.w3.org/2000/svg" xmlns:xlink="http://www.w3.org/1999/xlink" x="0px" y="0px"
	 viewBox="405 156.9 150 247.8" style="enable-background:new 405 156.9 150 247.8;" xml:space="preserve">
<style type="text/css">
	.st0{fill:#03A9F4;}
</style>
<g id="elbowpain-man">
	<path class="st0" d="M554.8,243.1c-0.2-2.2-1.3-4.2-2.1-6.3c-1.5-3.7-3.9-6.7-7-9.2c-0.3-0.2-0.7-0.4-1.1-0.5
		c-2.8-0.8-5.6-1.6-8.3-2.4c-4.4-1.4-8.4-4.2-13.4-4.6c0.5-0.8,0.9-1.4,1.1-2c1.4-3.7,2.6-7.5,4.1-11.2c1.1-2.8,2.3-5.6,3.7-8.3
		c0.6-1.2,1.1-2.3,1.5-3.5c0.4-0.3,0.8-0.7,0.9-1.3c0.2-1.3,0.4-2.5,0.6-3.8c0.1-0.3,0.2-0.6,0.3-1c1.6-5.4,2-10.9-0.1-16.3
		c-1.5-3.9-3.5-7.2-7.7-8.8c-1.2-0.5-2.3-1.4-3.5-2.1c-2.1-1.2-4.1-2.6-6.7-2.6c-0.8,0-1.5-0.4-2.3-0.6c-1.8-0.5-3.6-1.3-5.5-1.4
		c-4-0.2-8.1-0.6-11.8,1.4c-0.3,0.2-0.6,0.3-0.9,0.5c-0.3,0.1-0.6,0.2-0.9,0.3c-2.1,0.8-5.5,2-6.5,4.2c-1.5,1.2-2.7,2.8-3.4,4.6
		c-2,4.8-3.8,9.7-3.4,15c0.1,1.1-0.2,2-1.3,2.8c-1.1,0.7-2,1.9-2.1,3.5c-0.2,2.4-0.7,4.8-0.9,7.2c-0.2,2.1,0,4.1,1.7,5.6
		c1.8,1.6,2.1,3.6,1.4,5.8c-0.3,0.8-0.4,1.8-0.3,2.7c0.3,2.3-1.4,3.3-2.9,4.4c-3.4,2.4-7.6,1.6-11.4,2.8c-2.9,0.9-6.1,1.1-8.9,2.3
		c-4,1.7-7.9,3.2-12.3,3.7c-6.1,0.7-10.8,4.6-14.4,9.1c-3.2,4-5.3,9-7.6,13.6c-1.5,3-2.5,6.2-3.8,9.3c-1.2,2.7-2.4,5.4-3.4,8.1
		c-0.8,2.1-1.4,4.4-2.2,6.6c-0.7,1.7-1.6,3.3-2.2,5c-1.3,4.1-2.6,8.3-3.9,12.5c-0.7,2.2-1.7,4.4-1.9,6.7c-0.4,4.2-0.3,8.5-0.7,12.8
		c-0.3,3.4,1.4,6.2,2.3,9.2c0.2,0.5,0.7,1,1.2,1.2c1.7,0.6,3.3,1.1,5,1.4c4.1,0.6,8.1,1,12.2,1.6c4.8,0.7,9.7,1.6,14.6,2.4
		c1.7,0.3,2.7,1.7,2.4,3.5c-0.4,1.9-0.8,3.8-0.9,5.7c-0.3,5-0.4,9.9-0.7,14.9c-0.1,1.9-0.4,3.7-0.6,5.6c-0.4,2.9-0.7,5.9-1,8.8
		c-0.1,1.6-0.3,3.1-0.5,4.7c-0.4,3-0.9,5.9-1.3,8.9c-0.3,2.2-0.2,4.6-0.7,6.8c-1.4,5.7-1.7,11.5-1.8,17.3v4.6h1.5
		c0-3.3-0.1-6.6,0-9.9c0.1-2.3,0.3-4.7,0.6-7.1c0.5-3.5,1.1-6.9,1.6-10.3c0.1-0.9,0.3-1.9,0.4-2.8c1.4,0.5,2.5,1.2,3.8,1.4
		c4.6,0.8,9.1,1.6,13.7,2.2c3,0.4,5.9,0.6,8.9,0.6c6.2-0.1,12.4,0.1,18.6-0.6c3-0.4,6.1,0,9.2-0.1c1.9-0.1,3.9-0.2,5.8-0.4
		c3-0.3,6-1,9-1.1c5.1-0.2,10.3-0.2,15.4-0.1c2.6,0,5.3,0.4,8,0.7c-0.3,0.6-0.5,0.9-0.9,1.6c1.1-0.4,1.9-0.6,2.8-0.9
		c0.2,0.5,0.4,1.1,0.5,1.7c0.7,3.2,1.3,6.4,1.9,9.7c0.6,3.7,1.2,7.4,1.8,11.1c0.2,1.4,0.4,2.8,0.6,4.2c0.4,0,0.8,0,1.2,0.4
		c0.2-1.5,0.5-2.9,0.5-4.4c0-0.7-0.7-1.4-0.8-2.2c-0.5-2.8-0.9-5.6-1.4-8.4c-0.5-2.4-1.3-4.8-1.8-7.3c-0.5-2.6-0.8-5.2-1.2-7.8
		c-0.3-1.4-0.9-2.7-0.9-4c-0.2-9.6,0.1-19.2-0.5-28.9c-0.3-5.4-1.2-10.7-1.9-16c-0.2-1.5-0.4-3.2,0.1-4.6c0.8-2.2,1.3-4.1-0.3-6.2
		c0.9-0.4,1.7-0.9,2.5-1.3c2.2-1.2,2.9-3.6,1.9-5.8c-0.2-0.4,0-1.1,0.2-1.5c0.9-1.6,2.2-3.1,2.9-4.8c2.3-5.3,4.3-10.7,6.5-16.1
		c0.4-1,0.7-2.2,1.9-2.3c1.8-0.2,2.2-1.4,2.4-2.7c0.7-3.8,1.3-7.7,1.9-11.5c0.9-5.9,2.1-11.7,2.9-17.5
		C555.1,248.6,555.1,245.8,554.8,243.1z M482.1,186.7c0.5,0,1.1,0.9,1.3,1.5c0.5,1.1,0.6,2.3,0.7,3.5c-1.2-1.3-2.3-2.6-3.6-4.1
		C480.9,187.3,481.5,186.6,482.1,186.7z M474.9,217.6c1.9-0.7,3.6-2,5.7-3.1c0.1,3.2-1.4,5.9-2,8.8c0.2,0.1,0.3,0.1,0.5,0.2
		c0.4-1.1,1-2.3,1.2-3.5c0.5-2.6,0.8-5.2,1.2-7.8c0.4-2.5,0.7-5,1-7.5c0-0.2,0.3-0.4,0.5-0.6c1.5-1.2,1.5-3,2-4.6
		c-0.1,0-0.3-0.1-0.4-0.2c-0.4,0.5-0.7,0.9-1.1,1.4c-1.3-3.4-1.3-4,1-5.4c-0.7-0.6-1.6-0.5-2.2,0.5c-0.7,1.2-0.8,2.5-0.4,3.8
		c0.4,1.1,0.6,2.2,1,3.5c-0.6,0-1.2,0.1-1.3-0.1c-1-1.3-2.7-2.3-2.6-4.4c0.1-1.4-0.1-2.9,0.1-4.3c0.2-1.5,0.7-3,1.1-4.8
		c0.6,0.6,1,0.9,1.5,1.3c0.7,0.5,1.5,0.9,2.1,1.6c0.6,0.7,1.1,1.5,1.4,2.4c0.3,1,0.1,2.3,1.8,2.3c0-0.2-0.1-0.4-0.1-0.6
		c0.8,0.7,2,0.8,2.9-0.1c0.3-0.4,0.7-0.7,1-1.1c2.6-1.3,4.3-3.4,5.4-6.3c0.4-1.3,0.9-2.7,1.7-3.8c1.2-1.6,4.6-1.8,7.1-0.6
		c1.9,0.9,3.7,2.2,5.6,3c2.4,1.1,5,0.9,7.5,0.4c0.7-0.2,1.5-0.4,1.9-0.1c1.7,1.3,3.7,1,5.6,1c2.8,0,3.2,0.5,4.1,3.2
		c0,0.1,0.1,0.2,0.1,0.4c0,0.2,0,0.5,0,0.7c0,0.5,0.1,0.9,0.4,1.2c0.3,2.8-0.6,5.5-1.9,8.1c-0.4,0.8-0.8,1.6-1.1,2.2
		c-2.1,0.3-4,0.5-5.9,0.8c-1,0.1-2.1,0.4-3.1,0.4c-0.3,0-0.7-0.7-1.1-1.1c-1.3,1.7-2.2,3.8-2.5,6c-0.3,2.6-0.4,5.2-0.3,7.7
		c0,1.5-0.9,2.1-2,2.5c-1.1,0.4-1.9-0.4-2.5-1.3c-0.5-0.7-1.1-1.4-1.8-1.8c-2.9-1.6-2.4-2-1.6-4.4c-2.5,0.5-4.1,2.2-5.8,3.8
		c1.5-1,3-2,4.8-3.2c-0.6,2.8,0.5,4.1,2.7,4.8c0.5,0.1,0.8,0.9,1.2,1.4c0.9,1.3,2.4,1.8,3.8,1.3c1.4-0.5,1.6-1.5,1.7-2.9
		c0.2-3.1,0.5-6.3,0.9-9.5c0.1-0.8,0.7-1.6,1-2.2c1.1,0.2,1.9,0.5,2.9,0.7c-0.2,0.3-0.4,0.6-0.6,1c2,1.4,5.7,0.6,5.9-1.3
		c-0.5-0.1-0.9-0.2-1.4-0.3v-0.4c1.1-0.2,2.2-0.4,3.7-0.6c-0.8,2.2-1.5,4.2-2.2,6.1c-0.5,1.5-1.1,3-1.8,4.5
		c-0.3,0.6-0.8,1.1-1.2,1.7c-1,1.2-1.9,2.5-2.8,3.7c-1,1.3-1.8,2.8-2.9,4c-2.5,2.6-5,5.1-7.6,7.6c-0.6,0.5-1.5,0.9-2.3,0.9
		c-4.1,0.3-7.6-1.1-10.6-4.2c-2.6-2.7-5.7-5.1-8.5-7.7c-0.8-0.8-1.4-1.9-2.1-2.9c-0.2,0.1-0.4,0.3-0.6,0.5c0,0.1-0.1,0.3-0.1,0.3
		c2.6,2.8,5.1,5.6,8.3,7.9c1.3,0.9,2.4,2.2,3.5,3.4c2,2,4.3,3.1,7.1,3.2c0.7,0.1,1.5,0.3,2.7,0.5c-3.8,2.2-7.3,4.4-10.9,6.3
		c-4.4,2.3-8-0.4-11.7-2.2c-5.6-2.7-8.4-7.9-11.4-12.9c-1.2-1.8-2-3.9-2.9-5.9c-0.2-0.5-0.2-1.1-0.3-1.7
		C470.9,218.6,473,218.3,474.9,217.6z M465.1,220c0.8-0.2,1.5-0.4,2.1-0.6c0.8,2,1.4,4.1,2.4,5.8c2.5,4.2,4.7,8.6,8.4,12
		c3.2,2.9,6.6,5.1,10.9,5.9c0.9,0.1,1.8,0.5,2.4,1c0.9,0.7,1.5,0.4,2.3-0.1c2.2-1.3,4.6-2.4,6.8-3.7c2.8-1.6,5.6-3.4,8.3-5.2
		c0.9-0.6,1.7-1.4,2.7-1.9c-0.8,1-1.5,2-2.4,2.9c-4.8,4.9-10.1,9.2-16.1,12.5c-1.6,0.9-2.7,0.7-4.2,0.3c-4.5-1.3-7.7-4.3-10.8-7.4
		c-3-3-5.7-6.2-7.9-9.7c-2.1-3.3-3.3-7.2-4.9-10.8C465,220.8,465.1,220.4,465.1,220z M531.7,332.1c0.3,1.9,0.6,3.7,0.7,5.5
		c0.2,5,0.3,9.9,0.4,14.8c0.1,5.8,0.1,11.6,0.2,17.4c0.1,1.5,0.6,3,0.7,4.5c0.1,0.3-0.5,1.1-0.8,1.1c-4.8-0.2-9.6-0.6-14.4-0.7
		c-6.4-0.2-12.8,0.1-19.2,1.1c-4.6,0.7-9.5,0.3-14.2,0.5c-5.5,0.2-11,0.6-16.5,0.6c-3.7,0.1-7.5-0.2-11.2-0.6
		c-4.3-0.5-8.6-1.2-12.8-2c-1.6-0.3-3-1.1-4.4-1.9c-0.4-0.2-0.5-1.1-0.4-1.7c0.4-4.1,0.9-8.2,1.4-12.3c0.2-1.1,0.8-2.2,0.9-3.3
		c0.3-3.9,0.4-7.8,0.7-11.7c0.3-5.2,0.7-10.4,1.1-15.6c0-0.8,0.1-1.6,0.2-2.3c4,0,7.9,0,12,0c4.3-0.1,8.5,0.2,12.7-0.9
		c1.3-0.4,2.7-0.2,4.1-0.4c2.6-0.4,4.9,1,7.4,1.4c5.1,0.9,10.2,2,15.4,2.7c4,0.5,8,0.7,12,1c2.7,0.2,4.4-0.7,5.2-3.2
		c2,0.4,4,0.7,6,1.1c3.4,0.7,5.7-0.2,7.7-2.9c0.8-1.1,2-1.9,3-2.9c0.2,0,0.3,0.1,0.5,0.2c0.1,0.4,0.1,0.8,0.2,1.2
		C530.8,325.9,531.3,329,531.7,332.1z M532.8,312c-3.6,1.6-7.6,1.1-11.3,1.9c-0.6,0.2-1.3,0.5-1.5,1c-0.3,0.7-0.1,1.5,0.8,1.9
		c1.8,0.9,6.5,0.6,7.7-0.6c0.7-0.6,1.3-1.2,2.2-0.3c0.8,0.8,1,2.2,0.2,3c-2.6,2.6-5.6,3.5-9.1,2.2c-1.7-0.6-3.1-0.2-4.9,0.9
		c3.1,0.3,5.7,0.5,8.4,0.7c0,1.5-2,3.6-3.6,3.4c-2.8-0.4-5.5-1-8.3-1.6c-3-0.7-6-1.4-9-2c-0.5-0.1-1.1,0.2-1.7,0.3v0.6
		c2.7,0.2,5.6,0,7.8,1.4c-0.6,1.8-2.6,3.1-5.1,3c-2.3,0-4.5-0.3-6.8-0.6c-2.8-0.3-5.7-0.7-8.5-1.2c-3.5-0.6-7-1.3-10.4-2.1
		c-3.5-0.8-6.9-0.9-10.6-0.4c-4.1,0.6-8.4,0.3-12.6,0.4c-3.9,0.1-7.7,0-11.6,0c-0.4,0-0.9,0.2-1.1,0c-2.8-2.6-6.5-1.8-9.8-2.4
		c-4.2-0.7-8.5-1.2-12.7-1.9c-3.6-0.6-7.3-1.4-10.9-2.2c-0.6-0.1-1.2-0.5-1.5-1c-1.8-2.8-3.2-5.8-2.9-9.4c0.3-3.8,0.4-7.5,0.6-11.2
		v-0.3c1.3-4.5,2.4-9.1,3.9-13.6c1.5-4.3,3.3-8.4,5-12.5c0.5-1.3,1.5-1.7,2.8-1.5c3.7,0.6,7.2,1.6,10.8,2.7
		c4.1,1.3,7.6,3.5,11.2,5.6c0.9,0.6,1.6,1.7,2.3,2.6c0.1,0.2,0.2,0.6,0.1,0.8c-0.7,1.4-1.3,2.8-2.2,4.1c-0.4,0.6-1.5,0.6-2,1.2
		c-2,2.5-5.3,4.2-5.3,8.1c-2.8-0.5-5.5-0.9-8.2-1.3c-0.1,0.2-0.1,0.4-0.2,0.6c0.8,0.3,1.7,0.7,2.6,0.9c1.5,0.3,3.1,0.1,4.3,0.8
		c5,2.7,10.6,3.8,15.6,6.5c2.8,1.4,6.1,1.9,9.2,2.8c3.2,0.9,6.5,1.8,9.7,2.7c5.7,1.6,11.7,2.5,17.6,1.9c3.8-0.4,7.6-1.3,10.6-4.3
		c1.6-1.7,4-2.9,6.2-3.9c2.1-1,4.5-1.4,6.8-1.9c2.1-0.5,4.2-0.9,6.4-1.1c1.7-0.2,3.4-0.1,5.1-0.1c0.3,0,0.9,0.7,0.8,0.9
		c-0.1,0.6-0.3,1.5-0.8,1.7c-2.8,1.3-5.5,3-8.7,3.3c-0.2,0-0.4,0-0.6,0.1c-0.5,0.3-1,0.7-1.5,1.1c0.4,0.4,0.8,1.1,1.3,1.3
		c3.3,1.5,6.6,3,10.3,2.9c2.3,0,4.5,0.1,6.8,0c1.7-0.1,3.3-0.4,5-0.6h0.8c1.2,0,2.5-0.1,3,1.4C535.6,309.5,533.7,311.6,532.8,312z
		 M528.7,314.4c-1.5,2.3-3.2,2.6-7.5,1.4C523.5,314.2,526.1,314.7,528.7,314.4z M439.2,287.3c0.4,2.9,0.8,5.7,1.2,9
		c-2.1-0.7-3.8-1.2-5.4-1.9c-1-0.4-0.6-1.5-0.5-2.4c0.2-2.5,2.3-3.6,3.8-5.1C438.4,286.8,439.2,287.1,439.2,287.3z M545.5,282.2
		c-0.4,0.5-0.7,1-0.9,1.6c-1.7,4.2-3.4,8.4-4.9,12.7c-1,2.9-2.3,5.4-4.1,7.9c-1.1,1.5-2.5,2.1-4.2,2.2c-3.4,0.2-6.9,0.1-10.4,0.4
		c-3.7,0.3-6.9-0.9-10.2-2.2c-0.2-0.1-0.4-0.3-0.5-0.4c-0.1-0.1-0.1-0.2-0.2-0.6c1.2-0.2,2.4-0.3,3.6-1c2.4-1,4.7-2.2,7-3.4
		c1-0.6,0.9-1.7,0.6-2.6c-0.3-0.9-0.9-1.6-2.1-1.6c-3.7,0.1-7.4,0.4-11,1.4c-2.8,0.8-5.9,1.2-8.5,2.4c-2.8,1.3-5.2,3.5-7.8,5.2
		c-1,0.7-2.3,1-3.4,1.5c-0.2,0.1-0.5,0-0.6-0.1c-0.8-0.8-1.7-1.6-2.5-2.4c-2.2-2.2-4.5-4.4-6.7-6.7c-2.6-2.7-6.2-4.3-8.2-7.6
		c-0.6-0.9-1.8-1.5-2.6-2.3c-1.9-2-3.6-4.1-5.6-5.9c-2.6-2.4-5.4-4.6-8.1-6.9c-0.8-0.7-1.7-1.3-2.4-2.1c-1.8-2-4-3.1-6.1-4.6
		c-2-1.4-3.6-3.5-5.4-5.3l-3.6-3.6c-2.2-2.3-4.6-4.7-5.5-8c-0.2-0.7,0-1.7,0.3-2.4c0.2-0.5,1.1-1.1,1.7-0.2c0.9,1.2,1.5,2.6,2.5,3.7
		c1.3,1.5,2.9,2.8,4.3,4.2c0.2-0.2,0.4-0.3,0.6-0.4c-0.5-1-0.8-2.2-1.5-3.1c-1-1.6-2.1-3.1-3.5-4.4c-1.5-1.4-2-3.2-2.6-4.9
		c-0.5-1.2-0.1-2.5,1.1-3.4c2.8,3.5,5.7,7,8.5,10.4c0.1-0.2,0.3-0.3,0.4-0.4c-0.8-1-1.4-2-2.2-3c-1.7-2.2-3.7-4.3-5.2-6.6
		c-0.9-1.4-1.5-3.2-1.8-4.9c-0.2-1.2,1-1.9,2.2-2.1c0.5-0.1,1,0,1.6,0c0.8,4.2,3.7,6.8,6.8,9.3c1.1,0.9,2.2,2,3.4,3.1
		c0-0.4,0.3-0.9,0.1-1.2c-1.7-2.4-3.5-4.9-5.3-7.2c-1.1-1.4-2.4-2.6-3.6-4c-0.8-0.9-0.9-2.8,0-3.1c1-0.4,2.6-0.6,3.2-0.1
		c2.9,2.7,5.5,5.6,8.2,8.4c1.1,1.1,2.3,2.1,3.5,3.1l6.9,6.3c0.2,0.1,0.6,0.1,1,0.3c-0.2-1,0-1.6-1.3-1.7c-0.6-0.1-1.6-0.8-1.5-2.1
		c0.1-0.7-0.4-1.5-0.8-2.2c-1.1-1.7-1.9-3.5-1.7-5.3c1.3,0.3,2.6,0.7,3.8,0.7c1.1,0,1.6,0.6,1.8,1.4c0.6,2.5,1.9,4.6,3.1,6.8
		c0.8,1.5,0.3,3.9,0.2,5.9c-0.1,2.4-0.3,4.7-0.4,7c0,1.8-0.1,3.5-0.1,5.3c0,0.5,0.1,1.1,0.1,1.6h0.5v-4.6c0.2,0,0.3-0.1,0.5-0.1
		c0.9,1,1.6,2.1,2.6,3c2.8,2.7,5.7,5.3,8.7,7.8c2.3,1.9,4.7,3.8,7.1,5.6c0.7,0.5,1.6,1,2.4,1.5c2.9,1.8,5.8,3.7,8.7,5.5
		c4.2,2.8,9.1,3.9,13.8,5.4c3.1,1,6.2,2.5,9.7,4c-0.3-0.6-0.5-1.1-0.8-1.3c-1.6-0.7-3.1-1.6-4.7-2.1c-1.5-0.5-1.6-1.4-1.4-2.7
		c0.6-3.5,2.5-6.4,4.4-9.3c1.6-2.4,2.9-4.9,4.5-7.3c0.4-0.6,1.5-1.1,2.2-1c1.9,0.2,3.8,0.8,5.7,1.2c5.7,1.4,11,3.6,16,6.8
		C547.6,279.2,547.5,279.9,545.5,282.2z M438.5,234.3l0.3-0.3c2.2,2.6,4.3,5.1,6.5,7.6c-0.1,0.1-0.2,0.2-0.3,0.3
		C442.1,240,439.6,237.8,438.5,234.3z M458.2,232.2c0.2,0.1,0.4,0.1,0.6,0.2c0.5,1.2,1,2.5,1.4,3.9c-2,0.3-3.4-0.4-3.4-2
		C456.7,233.6,457.7,232.9,458.2,232.2z M553.3,250.7c-0.6,2.8-1.1,5.6-1.6,8.5c-0.4,2.1-0.8,4.2-1.1,6.4c-0.6,3.9-1.1,7.8-1.7,11.7
		c-0.1,0.3-0.3,0.6-0.4,0.9c-2.7-1.7-5.3-3.4-8.1-4.8c-3.9-1.9-7.9-3.3-12.2-4.1c-1.4-0.3-2.8-0.9-4.2-1.2c-0.7-0.1-1.6,0.1-2.4,0.1
		c0.9-2.3,1.7-4.7,2.5-7.1c0.5-1.5,0.9-3.1,1.5-4.6c0.2-0.6,0.6-1.2,1.1-1.6c2.3-1.7,4.6-3.3,6.9-5c2-1.5,3.3-3.4,4.4-5.5
		c-0.1-0.1-0.2-0.3-0.3-0.4c-0.5,0.3-1.1,0.5-1.3,0.9c-1.9,3.4-5.4,5.1-8.4,7.3c-0.2,0.1-0.4,0.1-1,0.1c2.7-7.3,4.9-14.5,10.4-20.3
		c-1.3-0.6-2,0.1-2.6,0.8c-3.1,4.1-5,8.8-7,13.5c-1.1,2.6-1.7,5.3-3,7.8c-1.5,3-2,6.4-3,9.6c-0.4,1.4-1.1,2.6-1.5,4
		c-1.2,4.6-4.3,8.1-6.7,12.1c-1.2,2-2,4.4-2.8,6.6c-0.4,1.2-1,1.6-2.1,1.3c-2.2-0.6-4.2-1.5-6.4-2c-3.6-0.9-6.7-3-9.7-4.9
		c-4.7-3-9-6.4-13.5-9.7c-1.5-1.1-3.1-2.1-4.5-3.4c-2.3-2.1-4.4-4.6-6.8-6.7c-3.2-2.9-2.3-6.4-1.8-9.9c0.4-2.9,0.7-5.7-1.6-8.1
		c-0.2-0.3-0.4-0.5-0.5-0.8c-1.3-2.9-2.5-5.9-3.8-8.8c-0.3-0.8-0.9-1.6-1.6-1.9c-0.4-0.1-1.3,0.7-1.8,1.2c-1.6,1.6-1.5,3.6-1.1,5.5
		c0.3,1.6,1.2,3,1.8,4.4c0.2,0.5,0.4,0.9,0.6,1.4c-0.1,0.1-0.2,0.1-0.3,0.2c-0.2-0.2-0.4-0.4-1-0.8c-1.7-1.6-3.5-3.2-5.2-4.9
		c-1.4-1.4-2.5-3-3.8-4.4c-1.9-1.9-3.8-3.7-5.8-5.4c-1.1-0.9-4.1-0.4-4.7,0.9c-0.2,0.5,0,1.4,0,2.2c-0.6,0.1-1.1,0.1-1.5,0.2
		c-2.4,0.3-3.9,1.9-2.9,4.4c0.5,1.1,0.2,2.1-0.6,3.2c-0.6,0.8-0.7,2-0.6,3.1c0.1,1,0.6,1.9,0.9,2.9c-2.7,0.5-4,2.5-3,5.2
		c1.3,3.5,3.4,6.4,6.4,8.7c1.2,0.9,2.1,2,2.9,3.2c1.7,2.5,3.8,4.5,6.4,6.1c0.8,0.6,1.7,1.1,2.6,1.6c-0.2,0.2-0.4,0.4-0.6,0.6
		c0.4-0.1,0.9-0.3,1.1-0.1c3.7,3.2,7.5,6.4,11.2,9.7c3,2.7,5.9,5.5,8.5,8.5c4.3,5.1,10,8.7,14.5,13.5c1,1,2,2.1,3.1,3.4
		c-0.8,0.3-1.5,0.7-2.2,0.7c-4.6,0.1-9.1,0-13.6-1.2c-5.9-1.6-12-2.9-17.9-4.7c-3.4-1.1-6.6-2.7-9.8-4.2c-0.3-0.1-0.6-0.7-0.7-1.2
		c-0.4-2.6-0.7-5.3-1.1-8c-0.3-2,1.4-3,2.3-4.4c1.3-2,3.1-3.7,4.3-5.7c0.7-1.1,0.7-2.6,0.9-3.9c0.1-0.3-0.4-0.7-0.6-1.1
		c-0.3,0.3-0.9,0.6-1,1c-0.2,0.5-0.1,1.1-0.1,1.7c0.1,1.4-0.6,2.5-1.9,3.5c-0.3-0.3-0.5-0.7-0.8-1c-4.4-4.3-9.9-6.9-15.7-8.6
		c-3-0.9-6.1-1.4-9.2-1.9c-1.7-0.4-2.2-0.7-1.5-2.9c0.5-1.9,1.6-3.5,2.4-5.3c0.5-0.9,0.9-1.8,1.2-2.8c0.9-2.8,2.1-5.4,3.5-8
		c1.6-3,2.9-6.1,4.2-9.2c1.5-3.4,4.1-6,6.8-8.5c2.5-2.2,5.3-4,8.6-4.7c2-0.5,4.1-0.6,6.1-1.2c2.2-0.7,4.4-1.6,6.6-2.4
		c1.8-0.6,3.6-1.2,5.4-1.6c1.3-0.3,1.8,0.6,2.3,1.7c1.9,4,3.6,8.2,5.9,12c1.6,2.7,4,4.9,6,7.3c2.5,3.1,5.7,5.4,9.1,7.4
		c1.6,1,3.5,1.5,5.3,2c0.6,0.2,1.4-0.1,1.9-0.4c4.5-3,9-6,13.4-9.2c1.7-1.3,3-3.1,4.4-4.7c1.5-1.9,3.3-3.7,4.4-5.8
		c1.2-2.4,3-4.2,4.6-6.3c0.1-0.2,0.3-0.3,0.4-0.5c2-3.3,2.4-3.6,6.2-2.3c3.3,1.1,6.5,2.6,9.8,3.8c2,0.7,4.1,1.1,6.1,1.8
		c3.9,1.4,7.1,3.6,8.7,7.6c1.1,2.7,2.5,5.3,3.2,8.1C554.2,245.4,553.9,248.1,553.3,250.7z"/>
	<path class="st0" d="M487.8,404.3c0-1.9,0-3.8,0-5.7c-0.1-1.9-0.3-3.7-0.4-5.6c0-0.4,0.2-0.8,0.3-1.5c1.8,1.3,1.8,3.1,1.9,4.6
		c0.2,2.7,0.1,5.4,0.1,8.2C489.1,404.3,488.5,404.3,487.8,404.3z"/>
	<path class="st0" d="M514.7,223.4c-0.8,3.5-4.8,5.7-8,5.1c-4.1-0.9-6.8-3.1-8.4-7.1c3.3,0.1,6.6-0.7,9.5,1.6
		c1.1,0.9,2.2,0.9,3.6,0.7C512.4,223.4,513.5,223.5,514.7,223.4z M499.7,222.5c1.7,4.6,6,5.7,9.7,5.5c1.6-0.1,2.9-1.3,3.9-3.2
		C508,227,503.6,226.1,499.7,222.5z M501.6,222.4c1.9,2.9,7.1,4,9.1,2.6C507.7,224.2,504.7,223.3,501.6,222.4z"/>
	<path class="st0" d="M500.2,198.5c3.4,0.3,6.4,1.1,9,2.8c0.6,0.4,1.2,0.7,1.8,1.2c0.2,0.2,0.2,0.7,0.3,1.1c-0.3,0-0.7,0.2-1,0.1
		c-0.6-0.2-1.2-0.5-1.8-0.9c-2.4-1.6-5-2.4-7.8-2.9c-0.4-0.1-0.7-0.5-1.1-0.8C499.9,198.8,500.1,198.5,500.2,198.5z"/>
	<path class="st0" d="M500.2,202.1c0.4-0.1,0.9-0.4,1.3-0.4c2.2-0.1,4.2,0.6,6.2,1.7c0.3,0.2,0.4,0.6,0.6,1
		c-0.3,0.1-0.6,0.3-0.9,0.2c-1.8-0.4-3.6-0.9-5.4-1.4c-0.6-0.2-1.2-0.5-1.7-0.8C500.2,202.4,500.2,202.2,500.2,202.1z"/>
</g>
</svg>
