<?xml version="1.0" encoding="utf-8"?>
<!-- Generator: Adobe Illustrator 18.1.1, SVG Export Plug-In . SVG Version: 6.00 Build 0)  -->
<!DOCTYPE svg PUBLIC "-//W3C//DTD SVG 1.1//EN" "http://www.w3.org/Graphics/SVG/1.1/DTD/svg11.dtd">
<svg version="1.1" id="Layer_1" xmlns="http://www.w3.org/2000/svg" xmlns:xlink="http://www.w3.org/1999/xlink" x="0px" y="0px"
	 viewBox="404.6 146.6 150 269.4" style="enable-background:new 404.6 146.6 150 269.4;" xml:space="preserve">
<style type="text/css">
	.st0{fill:#E91E63;}
</style>
<g id="shoulderpain-lady">
	<path class="st0" d="M554.5,287.9c-0.4-3.4-0.9-6.7-1.3-10.1c-0.7-4.8-1.2-9.8-2.2-14.6c-1.3-6.6-3.7-12.9-7.3-18.6
		c-1.8-2.6-4.2-4.5-6.1-6.9c-2.6-3.4-6.3-5.6-8.9-9.1c-1.8-2.3-4.7-3.7-6.7-5.9c-3.5-3.7-7.6-6.9-11.6-10.2c-1-0.9-1.8-1.8-2.6-2.5
		c-0.6-0.6-1.3-0.7-1.9-1.2c-0.6-0.4-0.9-1.2-1.5-1.6c-1.6-1.5-3.2-2.9-4.7-4.4c-2-2.3-4.1-4.7-6.3-6.9c-1.5-1.5-1.9-2.9-1-4.8
		c1-1.9,1.3-3.8,0.7-6c-0.6-2.6-1-5.3-2-7.8c-0.9-2.5-2-5-3.7-7c-1.2-1.6-3.2-2.5-4.7-4c-1.5-1.5-3.2-2.9-2.9-4.1
		c-2-3.7-5-6.6-7.3-9.8c-0.3-0.3-0.6-0.4-0.9-0.6c-1-0.6-2.2-1-3.2-1.6c-2.5-1.3-5-3.2-7.6-3.5c-7.5-0.7-14.8,0.1-22.1,1.7
		c-0.4,0.1-0.8,0.1-1.2,0.2c-3.4-0.7-6.6,0.1-9.8,2.1c-4.3,2.6-8.6,5.4-12.4,8.9c-2.1,1.9-3.9,4.1-5.4,6.4c-1.3,1.5-2.5,3.2-3.4,5
		c-3.1,6.2-1.9,13.1-0.5,19.6c0,0,0,0,0,0c0.1,1.2,0.9,2.5,1.4,3.5c0.7,1.5,1.6,2.8,2.5,4.2c0.3,0.6,0.7,1.1,1,1.7
		c0,0.1,0.1,0.2,0.1,0.2c0.6,1,1.2,2,1.8,3c0.4,0.6,0.8,1.2,1.3,1.8c3.5,4.5,8.5,7.2,13.3,10c0.9,0.4,1.9,1,2.5,1.8
		c1.2,1.5,2,3.4,3.5,4.7c1.3,1.3,1,2.5,0.4,3.8c-1.2,2.9-2.6,5.6-3.4,8.5c-1.9,6.7-3.1,13.8-2.9,20.8c0,3.7,0.6,7.2,0.6,10.8
		c0,2.9-0.3,5.9-0.7,8.8c-0.7,4.7-1.6,9.4-2.3,14c-0.7,4.8-1.6,9.5-2.2,14.3c-0.3,2.2-0.3,4.4-0.4,6.6c-0.3,2.9-0.9,5.7-1,8.6
		c-0.4,4.4-0.7,8.6-0.7,13c-0.1,6-0.7,12,1.3,17.9c1.8,5,2.9,10.5,8.5,13.2c1.3,0.6,2.3,0.9,3.7,0.1c4.4-2.6,8.6-5.1,13-7.6
		c0.6-0.3,1-0.7,1.9-1.3c-0.1,0.9-0.1,1.2-0.3,1.5c-0.6,2.2-1.3,4.4-1.9,6.6c-0.6,2.3-0.9,5-1.8,7.2c-1.6,4.1-3.8,8-4.8,12.6
		c-1.2,4.7-3.1,9.4-4.4,14c-0.9,2.9-1.6,5.9-1.9,8.9c-0.4,4-0.3,7.8-0.4,11.7h2v-7.8c0-2-0.1-4.1,0.1-6c0.1-1.3,0.9-2.6,1.2-4.1
		c0.6-2.3,0.7-4.7,1.5-6.9c1.3-4.2,2.9-8.5,4.5-12.7c1.5-4,3.2-7.8,4.4-11.7c1-2.9,1.3-6.1,2-9.2c0.6-1.9,1.3-3.8,2.2-5.6
		c0.6-0.9,1.6-1.5,2.5-2c3.2-2.3,6.7-4.2,9.7-6.9c7.6-6.6,15.1-13.3,21.9-20.6c4-4.4,7.9-8.8,12-13.2c0.3-0.4,0.9-0.6,1.5-0.9
		c0,0.6,0.3,1.2,0.1,1.8c-1.3,7-2.6,14-4.2,20.9c-1.2,5.3-3.1,10.4-4.5,15.7c-1.9,6.6-3.7,13.3-5.6,19.9c-0.3,1.2-1.2,2.2-1.8,3.4
		c-0.1,0.1-0.3,0.4-0.3,0.6c-1.6,5.1-5.4,7.9-10,10.1c-5.1,2.5-10.5,4-15.9,5.4c-6,1.8-11.6,4.5-15.9,9.2c-0.3,0.1-0.4,0.4-0.3,1
		c0.7-0.7,1.6-1.5,2.5-2.2c4.1-3.8,9.1-6.1,14.5-7.5c6.6-1.6,13-3.8,18.9-7.3c1.9-1.2,3.4-2.8,5.3-4.1c-1.3,2.6-2.5,5.4-4.1,7.9
		c-4,6.3-8.2,12.4-12.3,18.7c-1.2,2-2,4.2-3.2,6.3c-1.5,2.6-3.2,5.3-4.8,7.9h1.8c1.2-1.9,2.3-3.7,3.4-5.6c1.8-3.2,3.2-6.7,5.1-9.8
		c3.1-5.1,6.7-10,10-15.1c2-3.4,3.5-6.9,5.1-10.4c0.4-1,0.1-2.5,1.8-2.8c0.1,0,0.3-0.6,0.3-0.9c0.6-2.9,0.9-5.9,1.8-8.6
		c2.9-9.5,6.1-18.9,8.9-28.4c1.3-4.5,2.3-9.1,3.2-13.8c0.7-3.7,1.3-7.2,1.8-10.8c0.3-2.5,0.1-3.1,3.2-3.2c2-0.1,4.2,0.1,6.3,0
		c1.3,0,2.6-0.3,4-0.6c2.6-0.7,5.3-1.6,7.9-2.2c6.7-1.3,13.2-2.9,19-6.4c1.8-1,3.8-2.6,3.1-4.8c-0.7-2.5,0.4-3.4,1.9-4.5
		c0.4-0.4,0.9-0.7,1.2-1.2c1.3-1.5,1.3-3.2,0-4.7c-0.6-0.6-1.2-1.2-1.8-1.6c1.2-1.2,2.2-2.3,3.2-3.5c1-1.2,1.5-2.5,0.4-4
		c-1-1.6-2.6-1.8-4.2-1.3c-1.3,0.3-2.5,0.9-3.8,1.2c-3.1,0.7-6.1,1.5-9.4,2c-0.9,0.1-1.8,0-2.6,0c-0.1-0.3-0.1-0.4-0.1-0.7
		c1.8-0.7,3.5-1.9,5.4-2.3c2.8-0.6,5.6-0.7,8.5-1c2.5-0.1,4.5-1.6,4.5-3.2c0-2.2-2.2-5.3-4-5.4c-4.8-0.4-9.8,0-14.5,1.2
		c-3.8,0.9-7.3,2.5-11,3.7c-1.9,0.6-3.7,2.2-6.1,1.2c0.1-1,0.1-2,0.4-3.1c0.7-3.1,3.4-4.4,5.7-5.9c2-1.3,4.1-2.8,6.1-4.2
		c1.2-0.9,1.2-2.5,0.6-3.7c-0.1-0.4-1.6-0.7-2.5-0.7c-2.2,0-4.5,0.1-6.7,0.3c-2.2,0.1-4.5,0.4-7,0.6c0.3-1.2,0.7-2.2,1-3.2
		c0.4-1,1-1.5,2.2-1.8c2.2-0.6,4.2-1.6,6.4-2.6c0.3-0.1,0.3-0.7,0.6-1.3c-2.8,1-5,2-7.2,2.9c-0.1-0.1-0.3-0.4-0.4-0.6
		c4-6.6,8.8-12.4,15.4-17c0.7,1,1.3,2.2,2.2,2.9c3.7,3.2,7.5,6.4,11.1,9.8c2.8,2.5,4.1,5.9,5.9,9.1c4.2,8,5.4,16.8,6.9,25.5
		c0.7,4.8,0.6,9.8,0.7,14.8c0.1,3.7-0.1,7.2-0.3,10.8c-0.1,1.5-0.1,2.9-0.6,4.4c-0.7,2-1.6,4-2.5,6c-0.1,0.4-0.7,1-1,1h-8
		c0.1-5.9,2.3-10.7,6.3-14.9c-0.7,0-1.2,0-1.3,0.3c-1.6,2.3-3.5,4.4-4.5,6.9c-1.3,3.1-1.5,6.4-2.5,9.7c-1.5,5.1-3.2,10.2-5,15.2
		c-2,5.7-4.1,11.6-6.7,17c-3.1,6.1-6.7,12.1-10.1,18.1c-1.3,2.2-2.6,4.4-3.5,6.7c-1.3,3.8-2.2,7.9-3.4,11.9
		c-0.4,1.2-0.7,2.5-1.6,3.2c-1.3,1-3.1,1.6-4.7,2.5c-2,1.2-3.8,2.8-4.4,5.3c2.5-2.6,5-4.8,8.8-6.1c-0.4,1-0.6,1.9-1,2.5
		c-2.3,4-4.8,7.9-7.3,12c-2.6,4.2-5.1,8.6-7.8,13c0.7,0,1.5,0,1.9,0.4c2-3.8,4-7.8,6.1-11.6c2.6-4.4,5.3-8.6,7.9-12.9
		c2.5-4.2,3.1-9.2,4.5-13.9c0.6-1.8,1-3.7,2.2-5.3c1.2-1.6,1.5-4,2.3-5.9c1.5-2.9,3.4-5.3,6.7-6.4c4.7-1.8,8.2-5,11.3-8.9
		c0.4-0.6,0.9-1,1.3-1.6c-0.1,0-0.1-0.1-0.3-0.3c-0.4,0.4-1,0.7-1.3,1.2c-3.2,4.4-7.5,7.6-12.6,9.7c-0.3,0.1-0.6,0.1-1.3,0.4
		c1.5-2.8,2.8-5.6,4.2-8c3.4-5.7,5.7-11.9,8-18c1.2-2.9,2.3-6,3.4-8.9c1-2.9,1.9-5.9,2.9-8.8c0.4-1.3,1-2.5,2.9-1.9
		c1,0.3,2.2-0.1,3.4-0.1c1.6,0,1.9,0.6,1.5,2c-0.6,2.5-1.8,4.8-1.8,7.2c0,4.1-1.5,7.9-2.3,11.9c-0.7,3.7-2.3,7-3.4,10.5
		c-0.6,1.8-0.7,3.7-1.2,5.6c-0.6,3.5-1.5,6.9-2,10.2c-0.4,2.5-0.7,5-1,7.5c-0.1,2.2-0.6,4.4-0.6,6.6c0,2,0.6,4.1,0.9,6.1
		c0.4,2.5,0.7,5,1.2,7.5c0.4,2.3,0.9,4.8,1.3,7.2c0,0.1,0.1,0.3,0.1,0.4c0.4,3.1,0.9,6.1,1.5,9.2c0.4,2.3,1,4.5,1.5,6.9
		c0.1,0.9,0.1,1.8,0.1,2.6h1.8c-0.3-1.8-0.7-3.5-1-5.3c-0.7-4.2-1.3-8.3-2-12.4c-0.6-3.7-1.8-7.2-1.5-10.8c0-1-0.4-2-0.6-3.1
		c-0.6-3.1-1.3-6-1.5-9.1c-0.1-2.5,0.1-5.1,0.6-7.6c1-5.9,2-11.7,3.4-17.6c1.2-5.6,3.1-11.1,4.5-16.7c0.9-3.4,1.6-6.7,2.2-10.2
		c0.7-4.2,1.6-8.3,3.7-12.1c1.2-2.2,2.2-4.4,2.6-6.7c0.4-2.9,0.3-6,0.4-9.1c0-1.8,0.4-3.5,0.6-5.3
		C554.6,289.4,554.6,288.6,554.5,287.9z M426,162.5c-0.1,0.1-0.2,0.2-0.2,0.3c0,0-0.1,0-0.1,0.1c0-0.1-0.1-0.1-0.1-0.2
		C425.7,162.7,425.9,162.6,426,162.5z M432.9,218.7c-1.3-1.3-1-1.6,0.6-2.3c1.6-0.7,3.1-1.3,4.4-2.3c2-1.6,4.4-2.5,6.9-2.9
		c0.6,0,1.5,0.6,1.9,1c3.2,3.5,5.9,7.5,7.9,11.7c0.9,1.9,2.2,3.4,4.5,3.5c1.9,0.1,3.4-0.9,4.5-2.3c1-1.2,1.9-2.5,2.9-3.5
		c1.3-1.3,1.5-2.6,0.4-4.5c-1-1.6-2.5-1-3.8-0.7c1.3,0.6,3.2,0.1,3.4,2.3c0.1,0.7-0.1,1.5-0.1,2.3c-2.2-1-2.8-0.7-3.1,1.3
		c-0.3,1.9-2,4-3.5,4.2c-1.8,0.3-3.4-0.6-4.4-2.8c-2.2-4.2-4.5-8.3-7.9-11.7c-2-2.2-4.4-4.1-6.7-6.1c-0.4-0.4-1-0.6-1.5-0.7
		c0,0.1-0.1,0.3-0.3,0.4c1.6,1.5,3.2,2.8,4.8,4.2c0,0.1-0.1,0.4-0.1,0.6c-5.3,0-8.3,4.4-13.2,5.7c-2.3-2.5-4.8-5.1-7.3-7.9
		c0-0.6-0.2-1.2-0.7-1.7c-3-2.9-4.9-6.5-5.7-10.2c0-1.6,0.4-3.2,1-4.8c0.3-0.7,0.6-1.6,1-2.3c0.4-0.8,0.9-1.6,1.5-2.2
		c0.6-0.5,1.3-0.9,2-1.3c0.5-0.2,1-0.4,1.5-0.4c2.9-0.4,5-2.3,7-4.2c1.6-1.5,3.2-2.9,4.7-4.7c1.5-1.8,3.4-2.7,5.4-3.3c0,0,0,0,0-0.1
		c-0.1-0.5-0.1-0.7,0-0.7c0-0.2-0.1-0.4-0.1-0.6c0-0.1,0-0.2,0-0.3c-0.1,0-0.2,0-0.2,0c0.2-1.3,0.3-2.6,0.4-3.9
		c-0.3-1.1-0.7-2.2-1-3.3c-0.3-0.7-0.5-1.5-0.5-2.2c0-0.5,0.3-0.9,0.7-1c0-0.1-0.1-0.3-0.1-0.5c0.3,0,0.7,0.1,1,0.1
		c0.3,0,0.5,0,0.7-0.1c0.1,0.3,0.2,0.7,0.3,1c0.2,0.2,0.3,0.4,0.4,0.8c0,0.2,0,0.4,0,0.6c0.1,0.5,0.3,1.1,0.4,1.7
		c0.1,0.1,0.1,0.3,0.1,0.4c0,0.3,0.1,0.5,0.1,0.8c0.4,1.5,0.9,3,1.2,4.5c0.3,0.3,0.5,0.5,0.8,0.6c-0.2,0-0.5,0.1-0.7,0.1
		c0.1,0.4,0.1,0.9,0.2,1.3c0,0,0.1,0,0.1,0c2.8-0.6,5.7-1.2,8.5-1.3c4.2-0.1,8.5-1.3,12.3,1.5c1,0.9,2.2,1.5,3.2,2.3
		c2.6,2,5.3,4.4,7.9,6.4c1.2,0.9,2.3,0.1,2.3-1.2c0-0.6-0.1-1.2-0.1-1.7c0.1-0.4,0.2-0.8,0.1-1.3c0-0.2-0.1-0.6-0.2-1.1
		c0.4-1.7,1.6-3.7,2.7-3.7c1.3-0.1,2.8,0.4,4,0.9c2.8,1.2,4.5,3.2,5,6.3c0.3,1.6,0.7,3.2,1.2,4.8c0.7,2.6-0.1,5.1-1,7.5
		c-0.1,0.4-1.2,0.7-1.8,1.2c-0.4-0.6-0.9-1.2-1-1.9c-0.3-1.6-0.4-3.1-0.6-4.7c0-1.3,0-2.6,0.3-3.8c0.6-2.3-1-5.7-3.4-6.3
		c-0.6-0.1-1.2,0.1-1.8,0.1c0,0.1-0.1,0.3-0.1,0.4c0.4,0.3,0.7,0.6,1.2,0.7c2.8,0.9,3.7,2.6,2.3,5.3c-0.3,0.6-0.3,1.5-0.1,2
		c0.3,2.2,0.9,4.5,1.2,6.7c0.1,1.3,0.7,2,2.2,2c0.9-0.1,1.6,0,2.2,0.9c1.8,2.5,3.7,5,5.7,7.2c3.7,4,7.5,7.8,11.4,11.3
		c4,3.5,8.2,6.7,12.3,10.1c0.4,0.3,0.7,0.7,1,1c-2.6,2.3-5.1,4.5-7.8,6.7c-4.1,3.5-6.3,8.3-8.3,13.3c-0.1,0.1-0.1,0.4-0.3,0.6
		c-0.6,1.8-1.6,2.9-3.7,3.5c-2.8,0.9-5.3,2.3-7.8,3.5c-0.1-1.8-0.1-3.7-0.4-5.4c-0.3-1.6,0-3.5-1.8-4.7c0.3,2.5,0.7,5.1,0.9,7.6
		c0.1,1.2-0.4,2.2-0.6,3.2c-0.1,1-0.3,2-0.1,3.1c3.1-3.4,7.2-4.7,11-6.4c0.1,0.1,0.3,0.3,0.4,0.4c-0.1,0.6-0.1,1.2-0.4,1.8
		c-1,2.3-2.2,4.5-2.9,6.9c-0.6,2.3-0.6,5-1,7.3c-0.6,3.2-2.2,6-4.2,8.5c-1.8,2-2.9,4.4-4.4,6.6c-1.2,1.8-2.6,3.1-4.7,4
		c-1.9,0.9-3.7,2.2-5.3,3.7c-5,4.2-9.8,8.8-14.8,13c-0.9,0.7-2.6,0.7-3.7,0.4c-3.4-1.2-5.4-4-5.1-7.6c0.3-3.8,0.6-7.8,1.5-11.4
		c2.5-10.7,5.1-21.2,7.9-31.9c0.9-3.2,2.2-6.1,3.4-9.4c1.3,0.7,2.5,1.3,3.7,2c2.5,1.5,5.1,1.8,7.9,1.6c0.7,0,1.6-0.7,2.3-1.2
		c2.2-1.6,5.1-2.6,6.3-5.4c1.2-3.1,2.2-6.1,2.9-9.4c0.7-3.5,1.3-7.2,1.3-10.8c0.1-4.4-0.4-8.6-0.7-12.9c-0.1-1.6-0.4-3.1-0.6-4.5
		h-0.6c0.3,2.3,0.7,4.5,0.9,6.9c0.1,3.5,0.3,7,0.1,10.5c0,3.2-0.3,6.6-1,9.7c-1,4.4-1.5,8.9-5.1,12.1c-4.5,3.8-9.7,5.3-15.4,1.8
		c-3.5-2.3-7.9-3.2-11.9-5c-5.4-2.5-11.3-3.8-16.1-7.3c-0.3-0.3-0.6-0.4-0.9-0.7C439.2,225.3,436.1,222,432.9,218.7z M461.9,302.8
		c-4.1,2.8-8,5.4-12.1,8.2c-0.4-0.4-0.7-0.7-1.2-1.2c3.4-23.4,8-47,16.1-69.8c2.2,0.3,2.6,1,1.8,3.2c-2.6,6.4-3.7,13.3-5.7,20
		c-1.3,4.2-2.3,8.6-3.2,13c-1.2,5.9-2,11.7-2.6,17.7C454.4,298.9,457,301.8,461.9,302.8z M508.5,254.1c0.1-0.1,0.4-0.6,0.7-0.6
		c1.6-0.3,3.4-0.7,5-0.9c2.2-0.3,4.5-0.4,6.9-0.6c0.9,0,1.6,0.3,2.5,0.4c-0.4,0.9-0.4,2-1.2,2.6c-1.8,1.5-3.5,2.6-5.4,3.5
		c-4,1.9-6.3,4.8-6.6,9.4c-0.1,0.9-0.9,1.9-1.3,2.9c3.5,0,6.7-1.2,9.8-2.6c1.3-0.6,2.8-1,4.2-1.3c4.4-1.2,8.8-2.3,13.3-3.2
		c2-0.4,4.2-0.3,6.3-0.3c1.5,0,3.5,2.3,3.5,3.8c0,1.2-1.3,2.3-3.1,2.5c-2.9,0.3-6,0.6-8.9,1c-0.6,0.1-1.2,0.3-1.8,0.6
		c-3.1,1.2-6.1,2.3-9.2,3.7c-0.4,0.1-0.7,0.7-1,1c0.6,0.1,1.2,0.6,1.5,0.4c1.6-0.9,3.1-0.4,4.8-0.4c2.8,0,5.6-0.6,8.3-1.2
		c2.9-0.6,5.9-1.3,8.8-1.9c0.6-0.1,1.9,0.3,2,0.7c0.3,0.9,0.3,2.2-0.3,2.8c-1,1.3-2.3,2.3-3.8,3.2c-3.4,1.9-7,2.8-10.8,3.5
		c-2.5,0.4-5,1-7.5,1.5c-0.4,0-0.7,0.1-1,0.1h-1c0,0.3,0,0.6,0.1,0.7c0.4,0.1,0.9,0.3,1.2,0.3c2.6-0.6,5.4-1.2,8-1.8
		c3.5-0.9,7-1.9,10.7-2.5c1-0.1,2.3,0.7,3.1,1.5c0.7,0.7,0.4,1.9-0.4,2.9c-2.9,3.1-6.4,4.5-10.5,5.1c-3.8,0.6-7.6,1.2-11.4,1.8
		c-0.6,0.1-1,0.6-2,1.2c0.9,0.3,1.3,0.4,1.6,0.4c4.8-0.9,9.5-1.6,14.3-2.5c1.3-0.3,2.5-0.9,3.7-1c1.3-0.3,1.8,0.6,1.2,1.9
		c-0.7,1.9-2.2,2.9-4,3.7c-3.1,1.2-6.1,2.6-9.4,3.5c-3.7,1-7.3,1.6-11,2.3c-0.3,0-0.6,0-0.7,0.1c-4.4,2.5-9.2,1.9-14,2
		c-1.9,0-4,0.4-5.9,0.6c-0.3,0-0.6,0.1-0.7,0c-2.8-1.5-6.1-1.2-8.3-3.8c0,0-0.1,0-0.3,0c-0.1,1.3,1.3,2.8,3.5,3.4
		c1.8,0.6,3.5,1,5.4,1.6c-0.4,0.6-0.4,1-0.7,1.3c-3.4,3.2-6.7,6.4-10.1,9.8c-1.3,1.5-2.3,3.1-3.7,4.4c-1.6,1.6-3.4,3.1-5,4.7
		c-3.1,2.9-6.1,6-9.2,9.1c-4.5,4.2-9.4,7.9-14.5,11.3c-6.1,4-12.3,7.9-18.3,12c-4,2.6-7.5,0.4-9.1-2.2c-3.1-5.1-4.8-10.7-5.1-16.7
		c-0.1-4.2,0.4-8.5,0.6-12.7v-2.8c0.4-6,0.9-12,1.3-18c0.1-3.2,0.3-6.4,0.7-9.7c0.3-2.6,0.9-5.1,1.3-7.8c0.7-3.8,1.6-7.6,2-11.6
		c0.6-4.2,0.9-8.5,1-12.7c0.1-3.8-0.4-7.8-0.6-11.6c-0.1-2.2,0-4.4,0.3-6.4c0.4-3.7,1-7.5,2-11c1-3.5,2.6-7,4-10.5
		c0.1-0.4,0.6-1,1.2-1.9c3.8,4,7.6,7.8,13.5,10.2c5,2,10,4,15.1,5.9c-3.2,10.4-6.3,20.8-9.5,31.2c-0.4-0.9-1-2-1.5-3.1
		c-0.4-1-0.7-2.2-1.5-2.9c-2.8-2.8-1.6-6.6-2.6-9.8c-0.7-2.3-0.7-4.8-3.1-6.9c0.1,1,0.1,1.6,0.3,2c1.5,3.2,1.9,6.6,2.2,10.1
		c0,1.3,0.7,2.6,1.5,3.8c2.3,3.2,4,6.9,4,10.8c-0.1,3.4-1,6.9-1.9,10.2c-2.3,8.3-3.1,16.8-4.8,25.2c-0.3,1.6-0.9,2.9-2.5,3.4
		c-0.6,0.3-1.5,0.1-2-0.1c-1.2-0.6-2.3-1.5-3.5-2.2c-0.4-0.1-1-0.1-1.5-0.3c0,0.1-0.1,0.3-0.1,0.4c1.6,1.2,3.1,2.3,5,3.8
		c-2,0.9-3.7,1.6-5.1,2.3c-2.6,1.5-3.8,4.2-5.3,6.6c-1,1.6-1.9,3.4-2.9,5.1c0.1,0.1,0.3,0.3,0.4,0.4c0.4-0.1,1.2-0.3,1.3-0.6
		c1.8-2.8,3.2-5.7,5.1-8.3c0.7-1,2-1.8,3.2-2.5c1.8-1,3.8-2,5.7-2.9c1.2-0.6,2.3-0.7,3.5-1.2c0.9-0.4,1.8-0.9,2.6-1.5
		c4-2.3,7.9-4.7,11.7-7.3c2.5-1.8,4.5-4,6.9-5.9c2.3-1.9,4.5-3.7,6.9-5.6c0.4-0.4,0.7-0.9,1.2-1.3c2.6-2.2,5.3-4.5,8-6.7
		c1.3-1.2,2.9-1.8,4.1-2.9c1.3-1.5,2.3-3.1,3.4-4.7c2.3-3.4,4.7-6.7,6.9-10.2c1.5-2.3,2.8-4.8,4.2-7.2
		C505.8,258.5,507.2,256.3,508.5,254.1z M515,235.7c-2.5,2.9-4.7,6-6.6,9.4c-1.2,2-1.9,4.4-2.2,6.7c-0.6,4.1-3.2,7-5.9,10
		c0.1-0.7,0-1.5,0.3-2.2c2.3-6,4.5-11.9,7-17.7c1-2.5,2.3-4.8,3.7-7c0.7-1.2,1.9-1.9,2.9-2.8c2.5-2,5.1-4.1,7.6-6.1
		c0.3-0.1,0.3-0.3,0.3-0.3c0.4,0.4,1,0.9,1.6,1.2C520.8,229.7,517.6,232.4,515,235.7z"/>
	<path class="st0" d="M476.4,229.9c-0.3,2.6-1.9,4.5-4.1,5.7c-2.5,1.3-5,1.3-7.3-0.4c-0.7-0.4-1.5-0.9-2.6-1.5
		c1.8-1.3,3.4-2.3,4.8-3.5c0.4-0.4,0.9-0.9,1.2-1.5c2-4,5.6-5.9,10.2-6.7C477.8,224.7,477.1,227.5,476.4,229.9
		c0.4-1.9,0.7-3.8,1.2-5.7c-0.1-0.1-0.3-0.1-0.3-0.3c-3.4,4.4-7,8.3-12.3,10.4c2.2,2.5,6.9,2.2,8.9-0.4
		C474.7,232.6,475.5,231.3,476.4,229.9z M476.9,222.6c-1,0.6-2,1-3.1,1.6c-2.5,1.3-4.7,2.8-5.6,5.6c-0.1,0.3-0.6,0.7-1,0.7
		c-1.8,0.4-2.5,1.8-3.4,3.2C469.9,232,473.7,227.8,476.9,222.6z"/>
	<path class="st0" d="M460.7,191.9c-0.6,0.6-1.2,1.2-1.8,1.5c-2,1.2-3.1,3.2-4.4,5c-1.8,2.5-3.7,4.8-5.7,7c-2,2.3-5.4,0.6-7-2.6
		c1,0.7,1.8,1.5,2.6,2c1.9,1.5,3.5,1,5-1.2c2.2-3.2,4.4-6.4,6.7-9.5c0.9-1,2.2-1.6,3.4-2.5c0.3-0.1,0.7-0.1,1.2-0.1
		C460.6,191.6,460.6,191.8,460.7,191.9z"/>
	<path class="st0" d="M442.4,215.6c-1.6,1.5-3.4,3.1-5,4.5c0,0.1,0.1,0.3,0.1,0.4c0.7-0.3,1.6-0.4,2.2-1c1.5-1.5,2.9-3.1,4.4-4.5
		c0.4-0.4,1-0.7,1.5-1c0.1,0.1,0.1,0.3,0.3,0.4c-0.9,1-1.6,1.9-2.5,2.9c-1.2,1.3-2.3,2.8-3.7,4.1c-0.9,1-2,0.6-2.8-0.3
		c-0.3-0.3,0.1-1.6,0.6-2c1.5-1.3,3.1-2.6,4.5-3.8C442.3,215.3,442.4,215.5,442.4,215.6z"/>
	<path class="st0" d="M465.1,197.9c-0.7,1-1.3,2-2.2,2.8c-1.9,1.5-3.8,2.8-5.9,4.1c-0.3,0.1-0.9,0-1.3,0c0.3-0.3,0.4-0.6,0.9-0.9
		c2.3-1.9,4.5-3.7,6.9-5.4c0.4-0.3,0.7-0.6,1.2-0.9C464.8,197.8,464.9,197.8,465.1,197.9z"/>
	<path class="st0" d="M469.9,214.1c4,0,7.5,1,9.8,4.5C477.2,215.5,473.6,214.6,469.9,214.1z"/>
	<path class="st0" d="M458.2,199.4c2-1.2,4.1-2.3,6-3.5c0,0.1,0.1,0.3,0.1,0.3c-2,1.2-4,2.3-6,3.4
		C458.4,199.5,458.4,199.4,458.2,199.4z"/>
</g>
</svg>
