<?xml version="1.0" encoding="utf-8"?>
<!-- Generator: Adobe Illustrator 19.2.1, SVG Export Plug-In . SVG Version: 6.00 Build 0)  -->
<svg version="1.1" id="Layer_1" xmlns="http://www.w3.org/2000/svg" xmlns:xlink="http://www.w3.org/1999/xlink" x="0px" y="0px"
	 viewBox="0 0 200 212.4" style="enable-background:new 0 0 200 212.4;" xml:space="preserve">
<style type="text/css">
	.st0{fill:#00BCD4;}
</style>
<g id="wrist-pain-lady">
	<path class="st0" d="M48.8,212.4c0.9-0.4,1.7-0.8,2.6-1.2c1.4-0.6,2.9-1.2,4.3-1.8c3.4-1.5,6.7-2.9,10.1-4.5
		c2.4-1.1,4.8-2.5,7.2-3.7c2.4-1.3,4.8-2.7,7.3-3.8c1.4-0.6,3.2-0.6,4.5-1.3c2.8-1.5,5.4-3.2,8.1-4.9c3.8-2.4,7.5-4.9,11.2-7.4
		c0.3-0.2,0.7-0.4,0.9-0.7c0.2-0.2,0.3-0.7,0.2-0.8c-1.2-1.8-2.5-3.6-3.7-5.4c-1.4-2.2-3-4.4-4.1-6.8c-0.8-1.8-1.1-4-1.4-6
		c-0.2-2.1,0-4.2,0-6.6c-1.4,0.7-2.5,1.3-3.7,1.9c-3.9,1.9-7.8,3.9-11.8,5.7c-3.5,1.6-7.1,3-10.8,4.2c-3.5,1.1-7.1,1.5-10.6,2.5
		c-2.9,0.8-5.5,0.9-8.4,0.1c-1.5-0.4-3.4,0.3-5.1,0.5c-3.1,0.4-5.3,2.4-7,4.7c-1.5,2-2.5,4.5-3.7,6.9c-0.2,0.3,0,0.8-0.1,1.2
		c-0.1,0.4-0.1,0.9-0.3,1.1c-0.3,0.2-0.9,0.4-1.2,0.2c-0.3-0.1-0.6-0.7-0.6-1.1c0.1-0.9,0.2-1.8,0.5-2.5c1.4-3,2.7-6.1,5.2-8.4
		c0.7-0.7,1.5-1.2,2.2-2c-2.3,0.1-3.8,1.6-5.2,3.1c-2,2.1-3.8,4.3-5.6,6.5c-0.4,0.5-0.5,1.1-0.9,1.6c-0.3,0.3-0.7,0.7-1.1,0.6
		c-0.3,0-0.7-0.6-0.7-0.9c0.1-0.5,0.3-1.1,0.7-1.6c1.7-2.1,3.5-4.2,5.3-6.3c0.8-1,1.8-1.8,2.7-2.7c1.6-1.6,3.5-2.3,5.7-2.3
		c1.3,0,1.7-0.8,1.2-2c-3-6.3-6.1-12.5-8.8-18.9c-1.6-3.9-2.5-8.2-3.8-12.3c-1.3-4.2-2.5-8.5-3.9-12.7c-0.8-2.5-1.8-5.1-3-7.5
		c-0.7-1.5-2-2.8-3-4.1c-0.1-0.2-0.4-0.4-0.5-0.6c-0.1-0.4,0-0.9,0-1.3c0.4,0.2,0.9,0.2,1.2,0.5c3.5,3.5,5.5,8,7,12.7
		c1.3,4.1,2.6,8.2,3.8,12.3c1.1,3.6,2,7.3,3.2,10.8c1,2.9,2.3,5.7,3.7,8.5c2.2,4.6,4.6,9.2,6.9,13.7c0.2,0.3,0.6,0.7,1,0.7
		c2.2,0,4.3-0.2,6.4,0.5c1.9,0.6,3.8-0.2,5.7-0.7c4.1-1.1,8.2-1.9,12.3-3.1c1.9-0.5,3.6-1.5,5.4-2.2c3.2-1.4,6.5-2.7,9.7-4.2
		c3.6-1.7,7.1-3.7,10.7-5.5c3.1-1.5,6.3-2.9,9.4-4.5c1.9-1,3.6-2.3,5.5-3.5c0.5-0.3,1.1-0.5,1.7-0.8c1.1-0.6,2-0.6,2.6,0.7
		c0.1,0.1,0.8,0.2,1,0.1c1.2-0.9,2.4-1.8,3.5-2.8c0.3-0.2,0.5-0.6,0.6-1c0.5-2.5,0.8-5.1,1.3-7.6c0.1-0.4,0.1-0.8,0.2-1.2
		c1.3-4.7,2.5-9.3,3.8-14c0.3-1.1,1-2.1,1.7-3c0.2-0.2,0.7-0.2,1.1-0.3c0.1,0.3,0.3,0.8,0.2,1c-1.9,2.3-1.9,5.2-2.6,7.9
		c-0.8,3-1.6,6-2.3,9c-0.5,2.1-0.6,4.3-1,6.7c1.4-0.3,2.4-1.3,3.4-2.1c1.5-1.4,2.8-3.2,4.5-4.3c1.6-1.1,3.7-1.5,5.6-2.2
		c1.4-0.5,2.4-2.2,2.1-3.7c-0.2-0.9-0.6-1.9-0.5-2.8c0-0.8,0.4-1.8,0.9-2.4c1.5-1.7,3.2-3.1,4.7-4.8c0.3-0.3,0.4-0.8,0.4-1.2
		c-0.4-3-0.9-5.9-3-8.2c-1.1-1.1-2.2-2.4-3.5-3.1c-4.7-2.7-9.2-5.7-14.3-7.4c-1.1-0.4-1.6,0.1-2.2,0.8c-2.1,2.6-3.8,5.5-6.2,7.8
		c-4.7,4.5-9.8,8.6-16.4,10.1c-5,1.1-9.9,2.7-14.8,4.1c-0.6,0.2-1.1,0.3-1.7,0.4c-1.9,0.3-1.8,0.3-2.2,2.2c-0.5,1.9-1.3,3.8-2.1,5.7
		c-0.4,1-0.8,2.1-1.4,3.1c-1.6,2.5-3.3,5-4.9,7.5c-1.3,2-2.7,4-5,4.9c-2.9,1-2.8,3.4-3,5.7c-0.1,1.6,0,3.3,0,4.9
		c0,0.8-0.2,1.7-1.1,1.6c-0.9,0-1.2-0.8-1.1-1.7c0.2-3,0.2-5.9,0.6-8.9c0.2-1.4,1.1-2.7,1.9-3.9c3.2-4.4,3.6-9.2,2.9-14.4
		c-0.5-4.2-3.6-5.1-6.7-6.3c-1.7-0.7-3.4-1.4-5-2.3c-1.7-0.9-3.4-2-5-3c-1.3-0.9-2.5-1.9-3.8-2.9c-0.7-0.5-1.5-0.9-2.1-1.5
		c-1.2-1.1-2.3-2.3-3.4-3.5c-2-2-4-3.9-5.9-6c-0.9-1-1.7-2.2-2.5-3.3c-1.8-2.5-3.6-5-5.4-7.5c-0.2-0.2-0.5-0.5-0.8-0.5
		c-4.2,0.6-8.7,0-12.4,3c-1.9,1.6-3.9,3.1-5.8,4.7c-0.5,0.4-1,0.9-1.5,1.3c-2.4,1.8-3.1,4.5-3.6,7.2c-0.7,3.5-1.1,7.1-1,10.6
		c0,4.1,0.6,8.1,0.9,12.2c0.2,2.4,0.4,4.8,0.8,7.2c0.7,4.1,1.4,8.2,2.3,12.3c1.1,5.4,2.2,10.9,3.5,16.3c0.7,3.1,1.6,6.2,2.5,9.3
		c0.4,1.2,1.1,2.3,1.8,3.4c2.2,3.3,3,7.2,4.6,10.7c1,2.3,2.1,4.5,3.2,6.8c0.9,1.9,1.6,3.9,2.7,5.7c1.6,2.6,2.7,5.7,5.8,7.3
		c0.6,0.3,1,1.2,1.5,1.8c-0.8,0-1.5,0-2.3,0c-1.7-0.9-3.1-2.2-4-3.9c-1.5-2.6-2.8-5.2-4.3-7.8c-0.1-0.2-0.2-0.3-0.3-0.6
		c-0.2,0.1-0.3,0.2-0.4,0.4c-1.9,4-3.9,7.9-5.8,11.9c-0.8,0-1.5,0-2.3,0c2.3-4.6,4.6-9.1,6.8-13.7c0.3-0.5,0.2-1.4,0-1.9
		c-1.2-3.2-2.5-6.3-3.9-9.4c-0.8-2-1.6-4.1-2.7-5.8c-1.7-2.5-2.4-5.2-3.2-8c-1.1-4.1-2.1-8.2-3.1-12.4c-1-4.5-1.8-9-2.6-13.5
		c-0.4-2-0.6-4.1-0.9-6.1c-0.6-3.2-1.3-6.3-1.9-9.5c-0.1-0.6,0.1-1.3,0.1-1.9c-0.1-2.6-0.4-5.1-0.5-7.7c-0.1-2.3-0.1-4.6,0-6.9
		c0.2-3.9,0.7-7.8,2.3-11.4c0.7-1.5,1.8-3,3.1-4.1c2.6-2.2,5.3-4.3,8.1-6.2c2.1-1.4,4.4-2.3,7.1-2.3c4.1,0,7.9-1.3,11.7-2.8
		c1.3-0.5,2.6-1.2,3.9-1.6c1.4-0.4,2.9-0.5,4.5-0.7c-0.1-0.8-0.1-1.7-0.3-2.7c-0.3-2.3-0.5-4.6-1-6.8c-1.1-4.8-0.6-9.6-0.7-14.5
		c-0.1-2.8-0.8-5.4-2.2-7.9c-0.9-1.6-1.4-3.5-1.5-5.3c-0.2-4.2-0.4-8.3-1.2-12.4c-0.6-2.9-1.1-6-0.3-8.9c0.4-1.6,1-3.1,1.8-4.6
		c1.3-2.6,2.7-5.1,4.2-7.6c1.1-1.9,2.4-3.8,3.8-5.6c2.6-3.4,6.1-5.8,10-7.4c0.7-0.3,1.4-0.6,2.2-0.9C56.6,1.5,57.8,1.3,59,1
		c1.7-0.3,3.5-0.6,5.3-0.9c1.6-0.3,3.1-0.2,4.6,0.5c2.7,1.2,5.5,2.1,8.3,3.1c3,1,5.3,3,7.7,5c3.1,2.5,4.5,6.2,6.9,9.3
		c0.7,0.9,1.3,1.7,2,2.6c1.3,1.7,2.1,3.5,2.6,5.6c0.5,1.7,1.4,3.4,2,5.1c0.9,2.4,1.6,4.9,2.4,7.4c0.4,1.4,1.1,2.7,1.3,4.1
		c0.5,3,0.8,6.1,1.2,9.1c0.4,3.2,0.8,6.4,1.2,9.7c0.4,3.4,0.5,6.8-0.2,10.2c-0.7,3.2-1.3,6.4-2,9.6c-0.2,1.1-0.8,2.1-1.1,3.2
		c-0.2,0.9-0.4,1.8-0.4,2.7c0,0.2,0.3,0.5,0.6,0.6c2.9,0.9,5.2,2.7,7.4,4.7c0.6,0.5,1,0.7,1.7,0.2c1.8-1.2,3.3-0.7,5.1,0.4
		c3.2,2,6,4.6,9.9,5.6c1.8,0.5,3.5,1.5,5.1,2.4c3,1.7,6.1,3.2,8.9,5.2c3.7,2.5,6,6,6.3,10.6c0,0.1,0,0.3,0,0.4
		c0.1,0.3,0.2,0.6,0.4,1.1c1.5-0.7,3.2-1.3,4.5-2.3c3.1-2.3,5.9-4.8,9-7.1c2.4-1.8,4.9-3.3,7.3-4.9c0.3-0.2,0.8-0.2,1.2-0.2
		c2.7,0.4,4.5,2.9,3.8,5.6c-0.2,0.8-0.6,1.7-1.2,2.4c-2,2.2-4.2,4.3-6.3,6.4c-0.3,0.3-0.5,0.6-1,1.1c1-0.2,1.7-0.3,2.3-0.6
		c2.2-0.9,4.5-1.6,6.9-2c2.8-0.4,5.5-1.4,8.3-2c1.8-0.4,3.1-1.2,4.4-2.4c0.4-0.3,0.7-0.8,0.9-1.2c1-2.2,2-4.3,3-6.5
		c0.7-1.6,3.2-3,4.8-2.5c0.4,0.1,1.1,0.5,1.1,0.8c0.2,2,1.5,3.4,2.5,5c1.9,3,3,6.2,1.3,9.6c-1.3,2.7-1.6,5.6-2,8.5
		c-0.2,1.4-0.4,2.7-0.6,4c-0.1,0.5-0.3,1-0.6,1.5c-1.1,2-2.3,3.9-3.5,5.9c-0.7,1.1-1.5,1.9-3,1.8c-4.4-0.2-8.6,1.1-12.8,2.3
		c-4.3,1.2-8.7,2.5-13.1,3.8c0,0.3,0,0.5,0.1,0.6c1.2,1.9,0.9,3.4-1.1,4.4c-1.1,0.6-1.9,1.1-2.2,2.5c-0.2,0.9-1,1.8-1.8,2.5
		c-0.6,0.5-0.6,0.8-0.3,1.3c0.9,1.7,0.7,3.3-0.6,4.8c-0.2,0.3-0.4,0.8-0.3,1.1c0.2,1.9-0.9,3.1-2.1,4.3c-0.2,0.2-0.5,0.6-0.5,0.9
		c0.2,3.9,0.3,7.8,0.6,11.6c0.1,1.6,0.6,3.2,1,4.8c0.4,2,0.4,3.9-0.6,5.8c-1.3,2.4-2.6,4.9-3.8,7.4c-0.2,0.4-0.4,0.9-0.4,1.3
		c0.3,3.8-0.7,7.2-2.5,10.5c-0.6,1.1-1,2.2-1.5,3.3c-0.6,0-1.2,0-1.8,0c0.1-0.5,0.1-1,0.3-1.4c0.7-1.5,1.3-3,2.1-4.5
		c1.2-2.2,1.6-4.6,1.3-7.2c-0.3,0-0.6,0-0.7,0.1c-1.9,1.1-4.1,0.7-6.1,0.7c-0.5,0-1.2-0.5-1.3-0.9c-0.2-0.8,0.6-0.9,1.3-1
		c1.3-0.1,2.6,0.1,3.9-0.2c1.3-0.3,2.9-0.8,3.7-1.7c1.3-1.6,2.1-3.6,3-5.5c0.5-1.1,1.3-2.3,1.3-3.4c-0.1-2.8-0.5-5.6-0.9-8.6
		c-0.6,0.2-0.9,0.2-1.1,0.4c-1.8,1.6-4.1,2-6.1,2.9c-3.1,1.4-6.3,1.4-9.5,0.8c-3-0.6-5.8-1.7-7.8-4.2c-1.3-1.6-2.9-3-4.4-4.6
		c-0.6,0.6-1.2,1.1-1.6,1.8c-1,1.6-1.9,3.3-2.9,4.9c-1.3,2.1-2.6,4.3-4.8,5.8c-0.3,0.2-0.5,1.4-0.2,1.7c1.1,1.3,2.4,2.4,3.5,3.7
		c0.3,0.4,0.4,1,0.5,1.6c-0.5-0.1-1.3,0.1-1.6-0.2c-1.3-1.2-2.5-2.4-3.6-3.7c-0.8-0.9-1-1-1.8,0c-0.4,0.6-0.7,1.2-1.2,1.7
		c-3,3.3-3.6,7.4-3.1,11.4c0.4,3.2,1.7,6.4,2.6,9.5c-0.7,0-1.3,0-2,0c-0.3-0.7-0.7-1.4-1-2.1c-0.5-1.2-1-2.4-1.4-3.7
		c-0.5-1.6-1.3-3.3-1.2-4.9c0.2-5.7,2.2-11,4.1-16.3c0.3-0.8,0.5-1.5,0.8-2.6c-0.7,0.2-1.2,0.2-1.5,0.4c-2.2,1.4-4.4,2.8-6.6,4.3
		c-3.3,2.3-6.5,4.7-9.8,6.8c-2.5,1.6-5.1,3.1-7.8,3.9c-2.7,0.8-5.3,1.7-7.8,3.1c-2.9,1.7-5.8,3.5-8.9,4.8c-4.5,1.9-9,3.6-13.2,6.1
		C52.5,212.4,50.7,212.4,48.8,212.4z M103.1,66.4c-0.4-3.5-0.7-6.9-1.1-10.3c-0.3-3-0.8-6-1-9c-0.3-3.4-1-6.7-2.9-9.6
		c-1-1.5-2.2-2.5-3.9-2.9c-2.2-0.5-4.4-1.1-6.6-1.5c-2.6-0.4-4.6-1.7-6.1-3.8c-1-1.4-1.6-3.1-2.4-4.7c-0.4-0.8-0.9-1.6-1.1-2.5
		c-0.4-1.7-0.7-3.4-1.1-5.1c-0.2-0.6-0.6-1.2-1.1-1.6c-1.3-1.4-2.7-2.4-4.4-3.4c-1.4-0.8-2.5-2.2-3.8-3.4C67.5,8.4,67.4,8,67.2,8
		c-0.4-0.1-1-0.3-1.4-0.1c-0.2,0.1-0.2,0.8-0.2,1.2c0,0.3,0.3,0.5,0.4,0.8c1.7,2.6,4,4.5,6.7,5.8c1.5,0.8,2.2,1.9,2.5,3.6
		c0.4,2.1,0.6,4.4,1.8,6.1c1.4,2.1,1.8,4.4,2.3,6.7c0.1,0.3-0.1,0.7-0.3,0.9c-0.9,1.2-1.8,2.4-2.8,3.5c-3.2,3.3-6.4,6.6-9.7,9.8
		c-2.2,2.2-4.5,4.3-6.9,6.4c-1.9,1.7-3.9,3.2-6.1,4.6c-1.1,0.7-2,1.3-1.9,2.6c0,1.5-0.1,3.1,0.4,4.5c0.9,2.7,2.2,5.3,3.3,7.9
		c1.1,2.6,2,5.4,3.5,7.8c1.2,2,3,3.7,4.6,5.4c1.1,1.1,2.3,2.2,3.6,3.1c1.7,1.1,3.6,1.8,5.3,2.8c2,1.2,4.4,1.2,6.6,1.9
		c6.3,2,12,0.9,17.3-2.7c1.4-0.9,2.7-2.1,2.4-4.2c-0.1-0.4,0.1-0.8,0.3-1.2c1.5-3.5,2.6-7,3.1-10.8
		C102.4,71.6,102.7,68.9,103.1,66.4z M159.7,141c0-0.9-0.1-1.9,0-2.9c0.1-0.8-0.1-1.4-1-1.6c-1.7-0.4-3.4-0.9-5.2-1.3
		c-2.1-0.6-4.3-0.5-6.4-0.8c-3.8-0.6-7.7-0.3-11.4,1.1c-1.1,0.4-2.4,0.6-3.3,1.3c-3.4,2.9-6.4,6.1-10.2,8.4
		c-2.8,1.7-5.3,3.7-7.9,5.6c-0.3,0.2-0.6,0.7-0.6,1c0,2.1,0,4.2,0.3,6.2c0.2,1.3,0.6,2.8,1.4,3.8c2,2.6,4.3,5,6.5,7.4
		c0.3,0.3,0.9,0.5,1.4,0.5c2.1,0,4.2-0.1,6.3-0.2c0.4,0,0.8,0,1.3-0.1c3.5-0.5,7.1-1,10.6-1.4c1.4-0.2,2.8-0.3,4.2-0.4
		c1.9-0.2,3.7-0.6,5.5-0.8c2.1-0.2,3.5-1.3,4.5-3c0.1-0.2,0-0.6,0-1.1c-0.9,0.3-1.7,0.5-2.4,0.9c-1.3,0.7-2.7,1-4.2,0.8
		c-1.3-0.2-2.6-0.6-3.9-0.8c-2.7-0.4-5.4-0.8-8.1-1.3c-0.3-0.1-0.6-0.6-0.9-0.9c0.3-0.2,0.6-0.5,0.9-0.6c0.3-0.1,0.7-0.1,1,0
		c2.3,0.4,4.7,0.8,7,1.2c2,0.4,4,0.7,6,1.1c0.6-1,0.3-2.3,1.5-2.6c0.1,0.5,0.1,0.9,0.2,1.3c0.2,0,0.3,0,0.4,0
		c0.7-0.2,1.5-0.3,2.1-0.7c0.7-0.4,1.3-1,1.7-1.6c0.6-1.1,0-1.9-1.3-1.9c-1.7-0.1-3.3-0.1-5-0.3c-3.4-0.4-6.8-0.7-10.1-1.2
		c-1.1-0.2-2.1-0.8-3.1-1.3c-0.2-0.1-0.1-0.8-0.1-1.2c0.4,0,0.8,0,1.2,0.1c0.6,0.2,1.1,0.7,1.6,0.8c1.5,0.3,2.9,0.4,4.4,0.6
		c1.6,0.1,3.3,0.1,4.9,0.3c1,0.1,1.9,0.4,2.9,0.5c0.2-0.9,0.3-1.6,0.4-2.3c0.8,0.2,0.8,0.2,1,2.2c0.8,0.4,1.6,0.4,2.2-0.4
		c0.4-0.4,0.9-0.7,1.4-1.1c1.5-1.1,1.9-2.9,1-4.5c-0.2-0.3-0.6-0.5-0.9-0.6c-2.7-0.4-5.5-0.7-8.2-1.2c-1.7-0.3-3.5-1-5.2-1.1
		c-2.4-0.1-4.3-1.3-6.1-2.7c-0.3-0.2-0.2-0.8-0.3-1.2c0.5,0,1-0.1,1.4,0.1c0.8,0.4,1.5,0.9,2.3,1.4c1.4-2.7,3.7-3.4,6.3-3.4
		C151.8,141,155.9,141,159.7,141z M165.7,143c0,0,0.2,0,0.3,0c3.5-1,7.1-2,10.6-3.1c4.1-1.3,8.2-2.3,12.6-2.2c0.5,0,1.3-0.3,1.5-0.7
		c1.2-3.1,4.4-5.3,4.2-9.1c0-0.1,0.1-0.2,0.1-0.2c0.6-2.9,1.1-5.7,1.7-8.6c0-0.1,0-0.3,0-0.4c-1.1-2.1-2.2-4.3-3.4-6.3
		c-0.2-0.4-1.2-0.7-1.7-0.5c-0.6,0.2-1.2,0.9-1.4,1.5c-0.4,1.2-0.1,2.5,0.8,3.5c1.6,1.9,2.1,4.1,2.1,6.4c0,0.3-0.3,0.7-0.5,0.9
		c-0.2,0.1-0.6-0.1-0.8-0.3c-0.3-0.3-0.6-0.7-0.9-1.1c-0.5-0.7-2.3-0.8-2.8-0.3c-0.8,0.8-1,2.8-0.1,3.6c1.4,1.2,2,3.1,4,3.6
		c0.2,0.1,0.3,0.7,0.5,1c-0.3,0.1-0.7,0.3-1,0.3c-0.7-0.1-1.3-0.5-1.9-0.7c-0.7,0.8-1.8,1.2-1.4,2.5c-0.4,0.1-1.2,0.4-1.3,0.3
		c-0.4-0.7-0.9-0.4-1.5-0.4c-1.5,0.1-3.1,0.1-4.6,0.1c-0.2,0-0.6-0.3-0.6-0.5c0-0.3,0.3-0.7,0.5-0.7c0.8-0.2,1.7-0.3,2.5-0.3
		c2.1,0.1,3.9-0.6,5.4-2c-0.9-2-1.8-2.6-3-2c0.1,0.4,0.3,0.8,0.3,1.2c0,0.3-0.2,0.7-0.4,0.8c-0.3,0-0.9-0.1-0.9-0.3
		c-0.4-1.4-1.5-1.2-2.5-1c-0.5,0.1-1,0.2-1.5,0.1c-0.3-0.1-0.6-0.4-0.7-0.7c0-0.2,0.3-0.7,0.6-0.8c0.6-0.2,1.3-0.1,2-0.3
		c1-0.3,2.2-0.4,3-1c0.4-0.2,0.3-1.3,0.4-2c0.3-1.8,1.5-2.8,3.4-2.8c0.7,0,1.4,0.2,2.2,0.3c-0.2-0.4-0.4-0.6-0.5-0.8
		c-0.5-1.3-1.1-1.3-2.1-0.5c-0.7,0.5-1.7,0.8-2.4,1.3c-1.2,1-3.6,0.8-3.1,3.6c-0.5-0.2-1-0.3-1.1-0.5c-0.4-0.8-1-0.7-1.7-0.5
		c-0.5,0.1-1.1,0.1-1.6,0.1c-0.6,0-1.4,0.2-1.4-0.8c0-0.9,0.8-0.8,1.3-0.9c1.2-0.3,2.6-0.4,3.7-0.9c2.2-1,4.4-2.3,6.5-3.5
		c-1.7-3.7-0.3-6.7,2.5-7.4c-0.6-2.5,0.8-4.4,2.2-6.4c-1,0.2-2.2,0.3-2.6,1c-1.1,1.9-2.1,3.9-2.9,5.9c-0.6,1.5-1.3,2.9-2.7,3.8
		c-0.7,0.4-0.8,0.8-0.4,1.5c0.2,0.3,0,0.7,0,1c-0.3-0.1-0.8-0.2-1-0.4c-0.4-0.6-0.8-0.7-1.5-0.5c-2.8,0.8-5.6,1.6-8.5,2.1
		c-2.4,0.4-4.9,0.6-7,1.8c-0.5,0.3-1.1,0.8-1.4,1.4c-1.6,4-4.8,6.2-8.7,7.6c-0.3,0.1-0.7-0.2-1-0.3c0.1-0.3,0.2-0.7,0.3-1
		c0.1-0.2,0.4-0.2,0.6-0.4c1.4-0.7,2.8-1.4,4.1-2.3c1.5-1.1,2.8-2.4,3.4-4.4c-0.6,0.1-1,0.2-1.4,0.2c-1.1,0-2.2,0.2-3.3,0
		c-1.2-0.2-2.4-0.6-3.6-1c-0.3-0.1-0.6-0.5-0.6-0.7c0-0.2,0.4-0.7,0.6-0.7c0.7-0.1,1.4-0.2,2,0c1.4,0.7,2.4,0.1,3.5-0.7
		c2.2-1.5,2.6-1.5,0.1-3.6c-0.3-0.2-0.5-0.6-0.7-1c0.5-0.1,1-0.4,1.3-0.2c0.6,0.2,1.1,0.6,1.5,1.1c0.9,0.9,1.6,1,2.4-0.1
		c1.1-1.3,2.3-2.4,3.4-3.7c1.1-1.3,0.8-4.1-0.6-4.4c-1-0.2-2.4,0.2-3.3,0.7c-3.4,1.9-6.3,4.6-9.3,7.1c-1.9,1.6-3.9,3-6,4.1
		c-3.3,1.7-6.6,3.4-8.9,6.4c-0.7,0.9-2.1,1.6-1.6,3c0.6,1.7,1,3.4,0,5.3c0.7-0.1,1.2-0.2,1.7-0.2c2.3-0.2,4.6-0.3,6.8,0.4
		c0.9,0.3,1.8,0.5,2.7,0.5c3-0.1,5.7,1.3,8.5,1.8c1,0.2,2,0.6,3,0.7c2.1,0.3,3.6,1.5,3.3,3.5C166.1,140.7,165.9,141.8,165.7,143z
		 M60.9,85.2c-0.1,0.1-0.2,0.1-0.3,0.2c0.3,1.5,0.5,3,0.9,4.5c0.5,1.8,1.1,3.6,1.9,5.3c0.8,1.9,1.6,3.7,3.2,5.1
		c1.9,1.6,3.9,3.2,5.8,4.8c0.8,0.6,1.6,1.2,2.2,2c0.9,1.2,1.6,2.5,2.5,3.7c0.3,0.4,0.7,0.9,1,0.9c2.1-0.3,4.2-0.6,6.3-1
		c0.9-0.2,1.7-0.7,2.5-0.7c2.1,0,4-0.7,5.9-1.7c1.2-0.7,2.4-1.4,3.6-1.8c4.5-1.6,8.6-3.7,12-7.1c0.7-0.7,1.2-1.4,1.8-2.2
		c0.6-0.7,0.4-1.2-0.3-1.7c-1.2-0.9-2.4-2-3.6-2.8c-1.7-1.1-3.4-2.2-5.2-3.1c-0.4-0.2-1.5-0.1-1.7,0.2c-3.3,4.2-8.1,5.4-13,6.2
		c-4.1,0.7-7.9-1.3-11.9-1.7c-0.2,0-0.4-0.2-0.6-0.3c-1.6-0.8-3.2-1.8-4.9-2.5c-2.4-1-4.5-2.3-6.3-4.2
		C62.2,86.6,61.5,85.9,60.9,85.2z M112.2,149.1c-0.4,0.2-0.9,0.5-1.3,0.8c-1.2,0.8-2.4,1.7-3.6,2.4c-2.9,1.5-5.9,2.8-8.9,4.3
		c-0.3,0.1-0.7,0.5-0.7,0.8c0,2.5-0.2,5,0.1,7.5c0.2,1.7,0.6,3.5,1.4,5.1c1.1,2.2,2.7,4.3,4,6.4c0.8,1.3,1.6,2.6,2.5,3.9
		c1.1,1.7,1.8,1.8,3.3,0.5c0.4-0.3,0.7-0.6,1-0.9c3.1-2,6.1-3.9,9.2-5.9c2.8-1.8,2.8-1.9,0.4-4.4c-2-2.1-3.8-4.3-5.6-6.5
		c-1.9-2.3-1.7-5.2-1.9-8C111.8,153.1,112.1,151.2,112.2,149.1z M80.6,121.4c0,0,0.3,0.1,0.6,0c5.1-1.3,10.2-2.6,15.2-4
		c2.6-0.7,5.2-1.7,7.7-2.8c3.3-1.5,6.1-3.8,8.7-6.4c1.3-1.3,2.4-2.7,3.6-4.1c0.5-0.6,0.9-1.2,1.4-1.8c0.8-1,1.6-2.1,2.5-3.1
		c0.5-0.5,0.3-0.8-0.2-1.2c-0.9-0.6-1.7-1.3-2.6-1.9c-1.2-0.8-2.4-1.4-3.5-2.1c-1,1.8-1.7,3.6-2.8,5.1c-2,2.6-4.7,4.6-7.5,6.1
		c-3.8,2-7.7,3.7-11.5,5.5c-1.3,0.6-2.8,0.8-4.1,1.1c-1,0.2-2,0.4-3,0.6c-1,0.2-2,0.4-3,0.6c-1.1,0.2-2.2,0.3-3.2,0.5
		C79.3,116.3,79.9,118.8,80.6,121.4z M28.6,92.2c0.2,0.5,0.3,0.9,0.6,1.2c2.4,3.1,4.6,6.3,7.2,9.2c2.9,3.2,6,6.2,9.2,8.9
		c2.8,2.4,5.9,4.5,8.9,6.6c1.3,0.9,2.8,1.6,4.3,2.3c1.2,0.6,2.4,1.1,3.6,1.6c0.2,0.1,0.5,0.2,0.9,0.3c-0.6-1.5-1-3-1.7-4.2
		c-0.7-1.1-1.7-2.1-2.6-3c-1.8-1.9-3.7-3.6-5.5-5.5c-0.6-0.6-1-1.5-1.6-2.1c-1.9-2-4-3.8-5.6-6c-1.5-2.1-3.6-3.2-5.5-4.9
		c-2.2-1.9-4.4-3.8-5.2-7C33.3,90.4,31,91.2,28.6,92.2z M126.6,171.5c-0.3,0.8-0.4,1.3,0.4,2.2c1.2,1.5,2.5,3,3.9,4.4
		c3.2,3.2,7.3,3.9,11.5,3.3c3.8-0.5,7.2-2.1,10.3-4.3c0.5-0.4,1-1.2,0.9-1.9c-0.1-2.3-0.4-4.6-0.6-6.9
		C144.3,169.4,135.5,170.4,126.6,171.5z M143.4,144.9c0.3,0.1,0.5,0.3,0.7,0.3c3.2,0.6,6.3,1.2,9.5,1.9c2.3,0.5,4.5,0.5,6.3-1.5
		c0.3-0.4,0.9-0.5,1.4-0.8c0.7-0.4,1.5-0.7,2.4-1.2c-0.8-0.1-1.3,0-1.8-0.2c-2.9-0.9-5.8-1-8.8-0.9c-2.3,0.1-4.7,0.1-7,0.3
		C144.9,142.9,143.8,143.5,143.4,144.9z M110.2,187.9c0.2,0.1,0.3,0.2,0.5,0.3c3.9-4,8.5-7.4,10.5-13.3c-1.3,0.9-2.4,1.6-3.4,2.3
		c-1.8,1.3-4.3,1.7-5.1,4.3C112,183.8,111.1,185.8,110.2,187.9z M41.1,60.9c0.3,0.6,0.5,1.1,0.9,1.5c1.1,1,2.2,1.9,3.3,2.8
		c1.2,1,2.5,1.9,2.8,3.7c0.1,0.3,0.4,0.6,0.6,0.9c0.7,0.8,1.3,1.6,2.1,2.3c0.5,0.4,1.2,0.7,1.9,0.8c0.2,0,0.8-0.6,0.7-0.8
		c-0.6-2-1.3-4.1-2.1-6.1c-0.3-0.7-0.8-1.6-1.9-0.9c-1.6,0.9-3,0.6-3.9-0.9c-0.6-1-0.9-2-1.5-3.2C43.4,60.9,42.4,60.9,41.1,60.9z
		 M197.5,116.4c0.2,0,0.4,0,0.6,0c0.1-1.2,0.7-2.6,0.3-3.7c-0.8-2.3-2.1-4.3-3.3-6.5c-0.1-0.2-0.7-0.3-0.9-0.2
		c-1.1,0.8-1.3,3.4-0.4,4.6c0.8,1.1,1.6,2.2,2.3,3.3C196.6,114.7,197,115.6,197.5,116.4z M41.9,94.3c-0.2-1-0.5-1.9-0.6-2.7
		c-0.1-0.9-0.2-1.9-0.3-2.9c-1.3,0-2.5,0-3.6,0C37.7,91,39.9,93.8,41.9,94.3z M45.7,60.9c0.4,0.9,0.8,1.9,1.3,2.7
		c0.2,0.3,1,0.5,1.3,0.4c0.7-0.3,1.6-0.7,1.7-1.2c0.2-1.2-0.1-2.4-0.2-3.6C48.7,59.7,47.4,60.2,45.7,60.9z M162.2,142
		c0.8-0.2,1.9-0.3,2.1-0.7c0.4-0.7,0.3-1.8,0.1-2.6c-0.3-1.1-1.5-1.1-2.4-1.1c-0.9,0-1.3,0.7-1.1,1.6
		C161.3,140,161.7,140.9,162.2,142z M160.2,149.3c0.2,0.1,0.3,0.2,0.5,0.2c0.7-0.6,1.4-1.2,2-1.8c0.1-0.1-0.4-0.9-0.5-0.9
		c-0.7,0.1-1.6,0.2-2.1,0.6C159.8,147.8,160.1,148.7,160.2,149.3z"/>
	<path class="st0" d="M79.7,85c0.7-0.6,1.2-1.2,1.7-1.5c1.8-1,3.7-2,5.5-3c1-0.5,2-1.1,3.3-0.6c0.3,0.1,1,0,1.2-0.3
		c0.9-1.3,2.3-1.5,3.7-1.7c0.9-0.2,1.9-0.4,2.8-0.6c0.5-0.1,1.1-0.1,0.9,0.6c-0.4,1.6-0.6,3.3-1.5,4.6c-1.8,2.9-4.6,4.4-8,4.7
		c-2.8,0.2-5.4-0.5-7.9-1.8C81,85.3,80.6,85.2,79.7,85z M82.8,84.5c0,0.2,0,0.3,0,0.5c0.3,0.2,0.6,0.3,1,0.5
		c1.7,0.8,3.6,0.9,5.4,0.7c3.5-0.3,6.3-1.8,8-5c0.2-0.4,0.2-1,0.4-1.5c-0.1-0.1-0.2-0.1-0.3-0.2c-0.4,0.3-0.9,0.5-1.2,0.8
		c-3.1,2.5-6.6,3.5-10.5,3.6C84.5,84,83.6,84.3,82.8,84.5z M95.7,78.9c-1.4-0.1-2.6,0.2-3.7,1.3c-0.4,0.5-1.3,0.7-2,0.6
		c-1.8-0.2-3.1,0.3-4,1.8C89.7,82.5,93,81.4,95.7,78.9z"/>
	<path class="st0" d="M73,55.9c1.1,0.1,2.2,0.2,3.3,0.4c0.2,0,0.5,0.5,0.5,0.7c0,0.2-0.4,0.6-0.7,0.6c-2.5-0.2-4.7,0.8-7,1.2
		c-2.9,0.5-5.8,1.3-8.7,1.9c-0.3,0.1-0.7-0.2-1-0.3c0.1-0.3,0.2-0.8,0.4-0.9c0.5-0.3,1.1-0.5,1.7-0.7c1.1-0.4,2.4-0.5,3.4-1.1
		C67.5,56.4,70.2,55.9,73,55.9z"/>
	<path class="st0" d="M82.5,70.3c-0.1,0.7-0.1,1.4-0.4,2.1c-0.3,0.9-0.2,1.8,0.5,2.3c0.7,0.5,1.5,0.7,2.4,0.2c0.5-0.3,1.3-0.1,2,0
		c0.8,0.1,1.6,0.5,2.4,0.5c1.6,0.1,2.4-0.7,2.6-2.3c0.1-0.4,0.4-0.8,0.7-1.2c0.6-0.8,1-1.6,0.5-2.6c-0.4-0.7-0.8-1.5-1.2-2.3
		c0.1-0.1,0.2-0.2,0.2-0.2c0.3,0.1,0.7,0.2,0.9,0.4c1.2,1.7,2,3.9-0.1,5.6c-0.2,0.1-0.2,0.4-0.3,0.7c-0.4,2.5-2,3.6-4.5,2.8
		c-1.3-0.4-2.4-0.8-3.8-0.4c-1.6,0.4-2.7-0.3-3.2-1.5C80.9,73.3,81.3,71.2,82.5,70.3z"/>
	<path class="st0" d="M67.8,66.3c-1.3-0.2-2.7-0.4-4-0.8c-0.2-0.1-0.5-0.5-0.5-0.8c0-0.2,0.4-0.5,0.7-0.5c0.5,0,1,0,1.5,0.2
		c3.7,1.3,6.3-0.4,8.8-2.8c0.4-0.3,0.6-0.9,1-1.1c0.3-0.2,0.9-0.1,1.3-0.2c0,0.4,0.2,1.1,0,1.3c-0.8,0.9-1.7,1.8-2.7,2.5
		C71.9,65.2,70.1,66.4,67.8,66.3z"/>
	<path class="st0" d="M88,53.1c0.2-0.3,0.3-0.6,0.5-0.8c2.4-2.5,4.9-5,7.3-7.5c0.4-0.4,0.7-1,1.2-1.3c0.4-0.2,1-0.1,1.5-0.2
		c-0.1,0.4,0.1,1.1-0.2,1.3c-2.1,2-4.3,4-6.5,6c-0.6,0.5-1.1,1-1.7,1.5c-0.6,0.5-1.2,0.8-1.7,1.3C88.2,53.3,88.1,53.2,88,53.1z"/>
	<path class="st0" d="M98.9,49.1c0,0.8,0,1.6,0,2.4c0,1.2-1,1.5-1.8,2c-1.5,0.8-2.9,1.9-4.8,1.8c-0.7,0-1.3,0.6-2,0.9
		c-0.4,0.1-0.9,0-1.4-0.1c0.2-0.5,0.4-1.2,0.7-1.3c1.2-0.5,2.5-0.7,3.7-1.1c1-0.4,2.1-0.8,3-1.3c0.9-0.5,1.4-1.4,1.3-2.5
		C97.6,49,98,48.9,98.9,49.1z"/>
</g>
</svg>
