<?xml version="1.0" encoding="utf-8"?>
<!-- Generator: Adobe Illustrator 18.1.1, SVG Export Plug-In . SVG Version: 6.00 Build 0)  -->
<!DOCTYPE svg PUBLIC "-//W3C//DTD SVG 1.1//EN" "http://www.w3.org/Graphics/SVG/1.1/DTD/svg11.dtd">
<svg version="1.1" id="Layer_1" xmlns="http://www.w3.org/2000/svg" xmlns:xlink="http://www.w3.org/1999/xlink" x="0px" y="0px"
	 viewBox="405 158.6 150 242" style="enable-background:new 405 158.6 150 242;" xml:space="preserve">
<style type="text/css">
	.st0{fill:#FF9800;}
</style>
<g id="wristpain-lady2">
	<g>
		<path class="st0" d="M504.3,292.9c-0.3,0.1-0.5,0.2-0.8,0.3c3.1-1.1,6.1-2.6,9.1-4.2C509.9,290.4,507.2,291.7,504.3,292.9z"/>
		<path class="st0" d="M554.5,334.1c0.9-1.7,0.4-3.4,0-5c-1.1-5-1.6-10-2-15.1c-0.2-2.5-0.6-5.1-1-7.6c-0.2-2.2-0.9-4.4-1.1-6.6
			c-0.4-2.9-0.4-5.7-0.9-8.6c-1-5.7-2.2-11.4-3.5-17.1c-0.5-2.6-1-5.2-2.1-7.6c-2.5-4.9-6.5-8.1-11.6-9.9c-3.6-1.1-7.4-1.9-11.1-2.7
			c-1.7-0.5-3.6-0.9-5.4-1.2c-1.4-0.2-2.4-0.6-3-2c-0.2-0.5-1.2-0.7-1.9-0.9c-1.9-0.4-3.9-0.2-5.5-0.9c-3.2-1.2-6.2-2.9-9.4-4.4
			c-2.2-1.1-3.5-4-3-6.5c0.2-1.1,0.5-2.2,0.7-3.4c0.5-2.9,0.9-5.7,1.4-8.6c0.2-1.9,0.6-3.6,1.1-5.5c0.1-0.5,0.7-0.7,1.1-1.1
			c0.7-0.6,1.7-1.1,2.4-2c1.6-2.2,2.5-4.9,3-7.6c0.5-3,1.9-5.9,1.5-9.1c-0.1-1.7-0.6-3.4-2.2-4.5c-0.4-0.1-0.5-0.7-0.5-1.1
			c-0.1-1.9-0.1-3.7-0.4-5.6c-0.5-3-0.6-6-1.6-8.7c-1.6-4.7-3-9.6-6.4-13.7c-3.1-3.9-7-6-11.6-7.1c-2-0.4-4.1-0.4-6.1-0.9
			c-2.6-0.5-5-0.5-7.5,0.4c-0.9,0.4-1.9,0.2-2.9,0.4c-0.5,0-1.1-0.1-1.5,0.1c-4.7,2.2-9.5,4.5-12.9,8.7c-1.5,2-2.7,4.2-4,6.5
			c-0.3,0.5-0.4,1.1-0.6,1.6c-0.1,0.2-0.3,0.5-0.4,0.7c-0.2,0.4-0.2,0.7-0.1,1c-0.1,0.2-0.2,0.4-0.3,0.6c-1.4,3-2,6-1.7,9.1
			c0.2,2.9,0.6,5.6,1,8.4c0.1,0.9,0.5,1.9-0.6,2.6c-0.5,0.2-0.7,1.2-0.9,1.9c-0.4,1.9-0.1,3.6,0.5,5.5c1.2,3.7,2,7.5,3.4,11.1
			c1.1,3.1,2.4,6.2,3.4,9.4c1.5,4.4,3.4,8.5,5.1,12.7c0.5,1,1.1,2,1.5,3.1c0.9,2.7,0.9,5.5-1.7,7.4c-0.9,0.7-2,1.1-2.9,1.9
			c-2.1,1.6-4.1,3.5-6.4,5c-2.6,1.9-5.6,3.5-8.2,5.4c-3.1,2.2-6.7,3.4-10.2,4.6c-5.4,1.9-10.7,3.2-15.6,6.2c-2.7,1.6-4.9,3.9-5.7,7
			c-0.6,2.1-1,4.4-1.1,6.6c-0.1,3-0.2,6.1,0.2,9c0.7,4.4,2.4,8.7,3.4,13.1c0.6,3,1,6,1.5,9.1c0.2,1.9,0.4,3.7,0.6,5.6
			c0.4,3.4,0.7,6.6,1.1,10c0,0.4,0,0.7,0.1,1.1c0.7,2.2,1.5,4.5,2.4,6.7c1.1,3.2,2.4,6.4,3.5,9.5c0.6,1.4,1,2.7,1.6,4.1
			c0.9,1.7,2,3.4,2.9,5.1c2,3.9,4.2,7.7,7.6,10.6c2.4,2.1,5,3.9,7.5,5.7c1.2,1,1.6,2,1.2,3.5c-1.4,4.6-2.6,9.4-3.9,14.1
			c-0.5,2.1-1.1,4.1-1.6,6.1h1.4c0.1-1.2,0.2-2.5,0.6-3.6c0.6-2.4,1.4-4.6,2-7c1-3.9,2-7.9,2.9-11.6c1.5,0,2.9,0.1,4.1,0
			c1.9-0.2,3-1.9,4.2-3.1c2.5-2.5,4.9-5.1,7.1-7.9c2.6-3.2,6-6,8.1-9.7c1.1-1.9,2.6-3.5,3.9-5.2c1.6-2.2,3.1-4.6,4.6-7
			c0.5-0.7,1.1-1.2,2.1-1.1c2.2,0.2,4.4,0.5,6.6,0.7c2.2,0.2,4.4,0.4,6.4,1.6c0.5,0.2,1,0.4,1.5,0.6c1.1,0.7,2.4,1.4,3.4,2.1
			c1,0.7,1.7,1.9,2.6,2.6c1.2,1,2.7,1.7,3.6,2.9c2.1,2.7,4.7,4.7,8,6c0.2,0.1,0.5,0.4,0.7,0.7c-2.5,2-4.9,3.9-7.4,5.7
			c-6.7,5-13.9,9.2-22.2,10.7c-1.4,0.2-2.6,0.7-3.9,1.4c-7.2,3.9-12.7,9.6-17.2,16.5c-0.1,0.2-0.2,0.6-0.1,0.6
			c0.2,0.1,0.6,0.2,0.7,0.1c0.4-0.2,0.9-0.6,1.1-1c0.9-1.1,1.6-2.4,2.5-3.5c5.1-6.9,11.5-11.9,20.2-13.7c3.4-0.7,6.6-2,9.6-3.6
			c5.6-3,10.7-6.6,15.5-10.7c1.4-1.1,1.6-1.6,4.2-0.4c4,1.9,8,3.7,12,5.7c0.4,0.1,0.7,0.4,0.9,0.6c0.7,1.9,1.7,3.6,2.2,5.6
			c1.5,6.1,2.9,12.1,4.2,18.2c0.5,2.2,0.6,4.6,0.9,6.9c0.5,0,1,0,1.7-0.6c-0.1-0.4-0.2-0.7-0.4-1.1c-0.5-2.7-0.9-5.5-1.5-8.2
			c-0.7-3.1-1.5-6.2-2.4-9.4c-1-3.2-2-6.5-3-9.7c-0.1-0.4-0.1-0.6-0.2-1.1c0.5,0,1-0.1,1.4-0.1c4.2,0.1,8.1,1.6,11.6,3.9
			c2.5,1.6,5,1.5,7.2,0.2c3.4-1.9,6.5-4.2,7.1-8.6c0.2-1.9,1.4-3.7,1.6-5.7c0.5-3.9,0.7-7.7,0.9-11.6c0.1-3.9-0.1-7.7-0.2-11.6
			C554.4,335.8,554.1,334.8,554.5,334.1z M511.8,251.1c-1.7,1.7-4.1,1.6-5.4-0.4C508.3,250.8,510,250.9,511.8,251.1z M501.1,198.1
			c0.4-0.7,1.2-0.4,1.6,0.5c1.1,2.2,0.9,4.5,0,6.9c-0.1-0.5-0.2-1.1-0.2-1.6c0-2.4-0.1-2.5-2.6-1.9
			C500.2,200.6,500.6,199.3,501.1,198.1z M447.2,212.9c-0.9-2.4-1.7-5-2.7-7.5c-0.6-1.6-0.2-3.1,0.4-4.6c0.1-0.4,0.6-0.5,1-0.7
			c0.2-0.2,0.4-0.3,0.6-0.5c0.3,0.2,0.6,0.2,0.9,0.2c-0.5,1.4-0.1,3.2,0.1,4.7C447.7,205.9,447.5,211.9,447.2,212.9z M451,225
			c-0.9-3-1.9-6-2.6-9.1c-0.2-1-0.2-2.1-0.1-3.1c0.2-3.6,0.4-7.1-0.2-10.6c-0.2-1.2,0.5-2.7,0.7-4.1c0.5-2.2,0.9-4.6,1.4-6.9
			c0.2-0.9,0.6-1.7,1.2-2.5c3.1-4,7.1-6.4,12.2-7.1c3.2-0.5,6.5-1.1,9.2-3.2c1.5-1.1,3.2-0.7,4.2,0.7c1.9,2.7,4.5,4.5,7.5,6
			c4.3,2,7.8,5,10.3,9c0.2,0.5,0.5,1.1,0.6,1.7c0,0.2,0,0.4,0.1,0.7c0.2,0.5,0.3,0.9,0.5,1.4c0.1,0.3,0.3,0.5,0.5,0.7
			c0.1,0.8,0.2,1.5,0.4,2.3c0.2,1.4,0.1,2.9,0.2,4.2c0.1,0.4,0.4,0.9,0.5,1.2h0.5c0.1-0.7,0.2-1.4,0.4-1.7c0.9-0.5,1.6-1,2.6-1.6
			c0,0.1,0.4,0.4,0.4,0.6c0.1,2.9,0.9,5.9-0.2,8.9c-0.6,1.6-1.2,3.2-2,4.9c-0.2,0.6-0.7,1.5-1.6,0.7c-0.4-0.4-0.7-1.1-0.7-1.7
			c0-2,2-3,2.5-4.7c0.2-0.7,0.6-1.5,0.9-2.2c-0.2-0.1-0.4-0.1-0.5-0.2c-0.2,0.4-0.4,0.6-0.6,1c-0.5,0.9-0.7,2-1.5,2.6
			c-1.1,1-1.5,2.2-1.5,3.6c0,0.9,0.4,1.9,0.6,2.9c-1.9,0.1-1.2,1.9-1.5,3.4c-0.1,1.2-0.7,2.5-1,3.9c-0.5,2.7-0.9,5.6-1.4,8.5
			c-0.5,3.2-2,6-4,8.6c-2.4,3.2-5.4,5.7-9,7.4c-4.7,2.1-9.5,2-14.1-0.5c-1-0.5-1.9-1.2-2.7-2c-1.2-1.1-2.5-2.2-3.6-3.4
			c-0.5-0.5-0.7-1.2-1-1.9c-0.4-0.6-0.5-1.4-0.9-2C454.5,236,452.8,230.5,451,225z M450.8,256.3c0-1.6,1.2-2.6,2.7-3.2
			c2.9-1.4,5-3.5,5.6-7c1.6,1.4,3,2.7,4.5,4.1c2.5,2,5.4,3,8.7,3.1c6.1,0.2,10.9-2.5,15-6.5c1.5-1.5,2.7-3.4,4.4-5.2
			c2.7,5.2,8,6.5,12.9,9c-0.6,0.2-1.1,0.6-1.7,0.9c-3,1-5.1,3.4-7.4,5.5c-3,2.7-4.2,6.6-6,10.1c-0.4,1-1,1.4-2.1,1.5
			c-1.4,0.1-2.9,0.7-4.1,1.4c-1.5,0.7-2.9,1.6-4.7,1.5c-0.5,0-0.9,0.1-1.7,0.1c1.1,1,2.2,1.2,3.1,0.9c1.5-0.6,2.9-1.5,4.2-2.1
			c1-0.5,2.2-0.9,3.4-1.1c0.2-0.1,0.9,0.7,0.9,1c-0.5,2.9-1,5.7-1.9,8.5c-0.9,2.7-2.5,5.4-4.6,7.5c-3.5,3.6-6.1,7.7-8.6,12
			c-0.7,1.2-1.5,2.5-2.2,3.6c-0.1,0.1-0.6,0.2-0.9,0.1c-1.6-0.7-3.1-0.2-4.6,0.6c-1.5,0.9-2,1-3.2-0.2c-1.9-2-3.5-4-4.5-6.6
			c-2.4-6-3.6-12.2-5.1-18.5c-0.4-1.1-0.2-2.5-0.4-3.7c0-1.1,0.6-1.2,1.5-1.2c1.5,0,3,0.4,4.4-0.1c2.2-0.7,4.4-0.2,6.6,0.2
			c0.5,0.1,1,0.1,1.5,0.1c0.1,0,0.4-0.4,0.5-0.5c-0.2-0.2-0.4-0.5-0.6-0.5c-1.5-0.4-3-0.7-4.5-0.9c-0.7-0.1-1.6,0.1-2.4,0.2
			c-2.1,0.2-4.1,0.5-6.2,0.5c-0.5,0-1.2-0.7-1.4-1.4C450.7,265.4,450.5,260.8,450.8,256.3z M449.8,256.1v2.1
			c-0.1,5.1,0.7,10.2,1.6,15.4c0.7,4.2,1.2,8.4,2.2,12.5c1.1,4.5,2.1,9,4.6,13c1.2,2,3,3.5,4.7,5.4c0,0.1-0.2,0.5-0.6,0.7
			c-0.2,0.2-0.2,0.5-0.4,0.7c-2.4,0.1-4.6,0.2-6.1,2.5c-0.4,0.6-0.4,1.4-0.4,2.1c0,0.7-0.2,1.2-0.9,1.7c-0.9,0.6-1.7,1.4-2.1,2.4
			c-0.4,0.9-0.1,2.1-0.1,3.1c0,0.1,0.1,0.1,0.1,0.2c0.1,1.4,1.7,2.6,0.9,4c-0.6,1.2-1.6,2.2-2.6,3.2c-1.1,1.2-2.4,2.4-3.6,3.5
			c-0.1,0.1-0.9-0.1-0.9-0.2c-0.4-1.4-0.5-2.7-0.9-4c-0.2-1.2-0.7-2.5-1-3.7c-0.5-2.5-1-4.9-1.6-7.2c-0.1-0.6-0.5-1.2-0.7-1.9
			c-0.7-2-0.7-4,0.1-6.1c1.6-4,2-8.1,1.7-12.4c-0.4-3.7-0.9-7.5-1.4-11.2c-0.5-4.2-1-8.5-1.6-12.7c-0.2-2.1-0.7-4.1-1.1-6.2
			C442.9,260.8,446.2,258.4,449.8,256.1z M469.4,348.7c-1.9,2.6-3.7,5.1-5.6,7.6c-0.7,1-1.7,1.6-2.5,2.6c-0.9,1.1-1.5,2.5-2.5,3.6
			c-1.7,2-3.5,3.7-5.2,5.7c-1,1-1.9,2.2-2.9,3.2c-1.7,1.9-3.4,3.9-5.4,5.2c-1,0.7-3,1-4.1,0.5c-5.1-2.5-9.5-5.9-13.2-10.2
			c-2.1-2.5-3.4-5.4-5-8.1c-1.1-1.7-2.2-3.4-3-5.2c-1.2-3.2-2.4-6.6-3.5-10c-0.9-3-1.9-6-2.6-9c-0.6-2.6-0.9-5.4-1.2-8.1
			c-0.6-4.4-1.2-8.9-1.7-13.2c-0.7-6.2-3.1-12.2-4.6-18.3c-0.2-1.1-0.2-2.4-0.2-3.6c0.1-2.4,0.2-4.7,0.5-7.1c0.5-3.7,2-6.7,5.1-9
			c4.6-3.2,9.9-4.7,15.1-6.5c1.1-0.4,2.2-0.9,3.4-1.4c3-1.2,6.1-2.5,8.9-3.6c0.5,3,1.1,6.4,1.6,9.4c0.5,3,0.9,5.9,1.2,8.9
			c0.4,2.2,0.7,4.6,0.9,6.9c0.1,3.2,0.1,6.5-0.1,9.7c-0.2,2.5-1,4.9-1.6,7.2c0,0.1-0.2,0.2-0.4,0.5c-1.6-2.2-1.5-4.7-1.4-7.4
			c-1.2,1.5-1.2,3.2-0.7,4.9c1,3.1,2.2,6.1,3.4,9.1c0.5,1.4,0.7,2.7,1.1,4.2c0.5,2.4,1,4.9,1.5,7.2c0.2,1.5,0.7,2.9,0.9,4.4
			c0,0.6-0.5,1.5-1,1.9c-3.1,2.7-6.6,5.2-9.6,8.2c-1.5,1.4-2.2,3.6-3.2,5.5c-0.1,0.2,0,0.6,0,1c0.7-0.1,1.4,0.4,1.4-1.1
			c0-1.2,1-2.6,1.7-3.9c1.6-2.5,4.1-4,6.5-5.7c2.2-1.5,4.2-3.2,6.4-5c1.1-1,2.2-2.1,3.5-3.2c0.6,1.9,1.4,3.5,1.9,5.2
			c0.4,1.1,1.1,2,2.2,2.5c2.6,1.2,5.2,2.4,7.7,3.9c1.9,1.1,3.5,2.7,5.4,3.9c1.2,0.9,2.6,1.2,4.2,1.9
			C471.4,345.4,470.5,347.2,469.4,348.7z M553.4,346.1c0,3.4-0.5,6.6-0.7,10c-0.2,2-0.2,4-0.6,6c-0.4,1.7-1,3.2-1.6,4.9
			c-1.5,3.9-4.5,5.9-8.2,7.1c-2.4,0.9-3.9-0.9-5.6-1.9c-3.2-1.9-6.7-2.9-10.5-3.4c-0.9-0.1-1.6-0.9-2.5-1c-3-0.6-5.5-2-8.1-3.5
			c-1.5-0.9-3.1-1.5-4.5-2.4c-1.9-1.2-3.6-2.6-5.5-4.1c-1.1,0.6-2-0.6-2.9-1.2c-1.7-1.4-3.1-3-4.7-4.4s-3.2-2.9-4.9-4.4
			c2.5-0.1,4.1,2,6.5,2.2c-1.9-2-4.1-2.9-6.6-3.5c-1.6-0.4-3.4-0.7-4.9-1.5c-2.6-1.1-5.2-1.9-8.1-1.7c-3.4,0.1-6.4-1.1-9.5-2
			c-3.5-0.9-5.7-3.5-8.5-5.4c-1.2-0.9-2.5-1.5-4-1.9c-3.6-0.9-4.9-4-5.9-7.2c-0.4-1.4,0-2.5,0.6-3.6c0.7-1,1.6-1.6,2.9-1.4
			c1.2,0.4,1.9,1.1,2,2.5c0.2,3,2.5,5.1,5.5,5.2h0.5c0.5-0.1,1-0.1,1.5-0.1c-0.1-0.5-0.1-1.2-0.4-1.7c-0.1-0.4-0.5-0.6-0.9-0.9
			c-2.9-2.2-5.2-5-8.7-6.4c-0.4-0.1-0.6-0.5-0.7-0.9c-0.5-1.1-1-2.2-1.4-3.5c-0.2-1.1,0.9-3,2-3.5c0.1-0.1,0.6,0,0.7,0.1
			c2.5,2,5,4.1,7.5,6.1c0.5,0.4,0.9,0.9,1.2,1.2c1,1.1,1.9,2.1,2.9,3.2c0.1-0.1,0.4-0.1,0.5-0.2c0.1-0.4,0.2-1,0.1-1.4
			c-0.1-0.4-0.5-1.1-1.2-0.5c0,0-0.6-0.4-0.9-0.7c-1.4-2.2-3.6-3.6-5.6-5.2c-0.9-0.6-1.7-1.1-2.6-1.9c-1.4-1.1-1.4-2.9-1.2-4.5
			c0.1-1.2,1.5-1.6,2.6-2c2.5-0.7,2.1-0.7,3.5,1.6c1.2,2.1,2.6,3.7,4.7,4.9c1.5,0.9,3.1,1.5,4.7,2.2c0.2,0.1,0.5,0,0.7,0
			c0.5-1.6-0.6-3.7-2.4-4.7c-2.1-1.2-4.2-2.6-6.4-4c-0.6-0.5-1-1.2-0.4-2c1.1-1.5,2.5-2.5,4.2-2.9c0.6-0.1,1.6,0,2,0.5
			c1,1.2,2.5,1.7,3.7,2.6c3,2,5.9,4,8.9,6c0.6,0.5,1.6,0.6,2.4,0.9c2,0.7,4,1.4,6.2,2.2c-0.4-0.5-0.6-1.1-1-1.2
			c-1.9-0.7-3.7-1.4-5.6-2.1c-0.9-0.4-1.7-0.9-2.7-1.4c0.6-1,1.1-1.7,1.6-2.5c-0.1-0.1-0.1-0.1-0.2-0.2c-1,0.6-1.9,1.2-3,1.9
			c-1-0.7-2-1.5-3.4-2.4c2.1-0.7,2.4-2.2,2.5-4c0-0.2,0.5-0.6,0.7-0.6c1.4-0.2,2.6-0.4,4-0.5c0.4,0,0.9,0.4,1.1,0.6
			c0.9,0.7,1.6,1.6,2.4,2.4c0.5,0.6,1.1,1.1,1.6,1.7c1.1,1.2,2.4,2.4,3.4,3.7c0.6,0.7,0.9,1.9,0.9,2.7c-0.1,4.1,0.1,8.2,0.9,12.4
			c0.1,0.5,0.2,1,0.5,1.4c1,1.4,1.1,3,1.1,4.7c0,0.5,0.1,1.1,0.1,1.6h0.5v-4c0.1-0.1,0.2-0.2,0.4-0.4c3.5,1.9,7,3.7,10.5,5.6
			c1.9,0.9,3.6,1.7,5.5,2.5c3.9,1.6,7.9,3.2,11.9,4.7c3,1.1,6,1.9,9.2,2c3,0.1,6,0.7,9,1.4c1,0.1,2,1,3,1.6c0.5,0.2,0.9,0.4,1.2,0.6
			c0-0.1,0.1-0.2,0.2-0.4c-0.1-0.2-0.2-0.6-0.7-1.5c-2-1.4-4.1-2.5-6.7-2.7c-3.6-0.4-7.4-1-11-1.4c-1.1-0.1-1.5-0.9-1.6-1.9
			c-0.4-3.6-0.7-7.2-1.1-10.9c-0.5-4.2-1.1-8.4-1.6-12.6c-0.5-3.7-0.5-7.5,0.1-11.2c0.5-3,0.9-6.1,1.1-9.1c0.1-1.6,0.1-3.4,0-5
			c0-0.6-0.4-1.1-0.5-1.6c-0.1,0.1-0.4,0.1-0.5,0.1c0,2.9,0.2,5.7,0,8.6c-0.2,2.7-0.9,5.6-1.5,8.5c-4.5-5-7.1-10.7-8.5-17.2
			c-0.1,0-0.4,0.1-0.5,0.1c0.1,1,0.2,2.1,0.5,3.1c1.4,4.4,3.2,8.4,5.9,12.1c0.7,0.9,1.5,1.7,2.1,2.6c0.2,0.5,0.5,1,0.5,1.5
			c-0.4,4.1,0.5,8,1.1,12c0.4,2.2,0.2,4.6,0.4,6.9c0.1,1.4,0.4,2.6,0.5,3.9v0.1c-0.6,3.1,1.2,5.9,1.1,9.2c-1.1-0.4-2.2-0.7-3.2-1.1
			c-4.5-1.7-9-3.5-13.5-5.5c-2.2-1-4.4-2.4-6.6-3.5c-1-0.6-2.1-1.2-3.2-1.6c-3.6-1-5.1-3.6-5.5-7.1c-0.2-3-0.5-5.9-0.5-8.7
			c0-1.6-0.2-3.1-1.4-4.5c-0.6-0.7-0.6-1.4,0-2.2c1.9-2.5,4-4.9,5.4-7.6c1.3-2.7,3.5-3.7,5.8-4.7c-0.3,0.1-0.6,0.2-0.8,0.3
			c-1.9,0.6-3.5,0.9-5.2-0.4c-0.5-0.4-1.4-0.4-2-0.6c-0.1,0.1-0.1,0.4-0.2,0.5c0.9,0.6,1.6,1.1,2.5,1.6c0.9,0.5,1.2,0.9,0.5,2
			c-2,2.7-3.9,5.6-5.7,8.4c-0.2,0.2-0.5,0.5-0.6,0.9c-0.4,0.9-0.7,1-1.5,0.1c-1.1-1.2-2.4-2.2-3.6-3.4l-0.5-0.5
			c-0.6-0.6-1.1-1.6-1.7-1.7c-1.6-0.1-3.4-0.1-5,0.2c-2,0.5-4,1.6-6,2.2c-0.6,0.2-1.2,0-2.2-0.1c2-3.2,3.6-6.4,5.6-9.2
			c1.7-2.5,3.9-4.9,5.9-7.2c2.6-3.4,4.7-7,5.2-11.4c0.7-5.7,3.1-10.9,6.1-15.7c1-1.6,2.6-2.7,4.1-4c1.2-1.1,2.5-2,3.7-2.9
			c0.5-0.4,1.2-0.4,1.7-0.7c1-0.6,1.6-0.7,2.4,0.4c0.6,1.1,3.5,1.4,5,0.7c0.2-0.1,0.6-0.1,0.9-0.2c0,0.1,0.1,0.1,0.2,0.2
			c-0.2,0.6-0.5,1.2-0.7,1.7c-1.2,0.9-2.7,1.5-4.1,2.4s-2.7,1.7-3.9,3c-1.2,1.4-2.7,2.6-3.1,4.6c-0.1,0.5-1.1,0.9-1.6,1.5
			c-0.2,0.2-0.2,0.9-0.4,1.2c0.4-0.1,0.7-0.1,1.1-0.2c1.2-0.5,2.5-1.5,3.7-1.6c3.4-0.5,7-4.6,7.2-7.7c0.1-1.6,1.4-2.9,2.7-3.2
			c0.9-0.2,2.1,0.5,3.1,1c1,0.5,1.5,1.6,1.1,2.9c-0.1,0.2-0.1,0.6-0.2,0.9c-0.6,2.5-1.2,5-2,7.4c-0.2,0.6-1.1,1.1-1.7,1.6
			c-0.7,0.5-1.5,0.7-2.2,1.4c1.4,0.2,2.6-0.5,3.5-1.2c1-0.7,1.5-2.2,2-3.5s0.5-2.6,0.7-4c1.2,0.4,2.1,1,2.5,2.1
			c0.7,1.9,0.2,3.6-0.6,5.4c-0.6,1.2-1.4,2.6-2,4c0.2,0.1,0.4,0.1,0.5,0.2c0.9-1.5,1.6-2.9,2.5-4.2c0.1,2.1,0.7,4.2-0.6,6.1
			c-1.1,1.6-2.4,3.2-3.7,5c2.4-0.4,2.5-2.9,4.2-4c0,0.5,0.1,0.9,0.1,1.2c0,1.9,0.1,3.7,0.2,5.6c0.1,2.2-1.5,3.2-3,4.1
			c-1.6,0.9-3.3,1.8-4.9,2.7c0.8-0.4,1.6-0.8,2.5-1.2c1.1-0.6,2.4-1.4,3.5-2c1.6-0.9,2.5-2.2,2.4-4.1c-0.1-2-0.2-4.1-0.2-6.1
			c0-2.7,0.2-5.4,0.2-8.1c0-1.9,0-3.6-0.4-5.4c-0.2-1-1.2-1.7-2-2.6c-0.5-0.6-0.9-1-0.7-2c0.1-1.1-0.5-2.4-0.7-3.7
			c0.2,0.1,0.6,0.1,1,0.2c4.2,1,8.5,1.7,12.6,3c5.1,1.6,9.2,4.7,11.9,9.5c0.9,1.5,1.1,3.4,1.5,5.1c0.6,2.5,1.2,5.1,1.7,7.7
			c0.9,4.9,1.7,9.7,2.5,14.6c0.7,4.4,1.5,8.7,2.1,13.1c0.4,2.6,0.5,5.2,0.9,7.9c0.5,4.1,1.1,8.2,1.6,12.4c0.1,1.5,0.2,3.1,0.2,4.7
			C553.3,336.7,553.5,341.3,553.4,346.1z M459.2,325.2c1.7,1.2,3.2,2.5,4.7,3.6c0,0.1-0.1,0.4-0.2,0.6c-0.9-0.1-1.9,0-2.5-0.5
			C460.2,328.2,458.8,327.5,459.2,325.2z M463.1,308.4c0.4,0.1,0.9,0.1,1.1,0.2c1.9,1,3.5,2.2,5.4,3.2c1.2,0.7,1.9,1.6,2.4,3.5
			c-1.1-0.6-2-1-2.9-1.2c-2.1-1.1-4.1-2.6-5.6-4.6C463.3,309.1,463.3,308.7,463.1,308.4z M473.8,304c0.7-0.5,1.4-1.1,2.2-1.4
			c0.6-0.2,1.5-0.9,2,0.1c0.4,0.7-0.4,2.4-1.2,2.5C475.6,305.5,474.5,305.6,473.8,304z M506.7,262.1c-1.2,1.2-2.7,2.5-4.9,2.1
			c-0.9-1.7,3.6-6.2,7.2-7C509.3,259.4,508,260.8,506.7,262.1z"/>
	</g>
	<path class="st0" d="M481.9,237.7c-1.7,1.7-3.2,3.4-4.9,4.9c-2.9,2.6-6.6,2-9,0c-1.2-1-2.6-2-3.9-3c-0.6-0.5-0.6-1.1,0.2-1.4
		c1.7-0.6,3.5-1.4,5.4-1.9c0.5-0.1,1.1,0.2,1.6,0.2c0.6,0.1,1.4,0.4,1.6,0.1c1-1,2-0.6,3.1-0.5c1.6,0.2,3.1,0.5,4.7,0.9
		C481.1,237.2,481.4,237.3,481.9,237.7z M465.5,239.5c5.2,5.4,9.7,5.5,13.9-0.9C474.9,240.7,470.3,240.8,465.5,239.5z M465.6,238.6
		c5-0.9,10-1,15-0.7c-0.7-0.4-1.4-0.6-2.1-0.6c-0.9-0.1-1.9-0.2-2.9-0.2c-0.7,0-1.4,0.2-2.1,0.4c-0.6,0.1-1.4,0.4-1.7,0.2
		C469.4,236.5,467.6,238,465.6,238.6z M469,239c2.9,1,5,1.4,6.5-0.5C473.3,238.6,471.1,238.8,469,239z"/>
	<path class="st0" d="M467.9,226.7c-0.1,0.7-0.2,1.4-0.4,2c-0.2,1.5,0.1,2.1,1.5,2.4c0.6,0.1,1.2,0.5,1.9,0.7c1.7,0.7,3.9-0.2,4.4-2
		c0.1-0.4,0.1-1-0.1-1.4c-1.1-2-2.4-4-2.7-6.2c-0.4-2.6-0.4-5.1,1.1-7.5c-0.2,1.7-0.7,3.5-0.7,5.2c0,2.7,0.7,5.4,2.7,7.6
		c0.5,0.6,0.5,2.1,0.1,3.1c-0.6,1.6-2.9,2.4-4.6,1.9c-1-0.4-2.1-0.5-3-1c-0.6-0.4-1.1-1.2-1.4-2C466.1,228.5,466.9,227,467.9,226.7z
		"/>
	<path class="st0" d="M474,206.5c0,1.5,0,3,1.9,3.6c3.9-0.9,8-1.9,12.1-2.9c0.1,0.1,0.1,0.4,0.2,0.5c-0.2,0.2-0.4,0.6-0.7,0.7
		c-2.2,0.7-4.5,1.4-6.7,2c-1.5,0.4-3.1,0.5-4.7,0.5c-1.1,0-2.6-1.5-2.6-2.6c0-0.6,0-1.1,0-1.7C473.8,206.5,473.9,206.5,474,206.5z"
		/>
	<path class="st0" d="M454.8,214.6c0.2,0,0.4,0,0.5,0c2.6,2.6,5.7,1.6,8.7,1c0.6-0.1,1.4-0.2,2-0.2c-1.9,2.1-4.4,2.7-7,2.5
		c-1.1-0.1-2.2-0.4-3.2-0.7C454.7,216.5,454.5,216,454.8,214.6z"/>
	<path class="st0" d="M466.9,212c-2-0.2-4.1-0.4-6-0.7c-2-0.4-4-1.1-6.1-1.6c0-0.5,1-1.2,2-1c3,0.6,5.9,1.4,8.9,2.1
		c0.5,0.1,0.9,0.4,1.4,0.6C467,211.6,467,211.9,466.9,212z"/>
	<path class="st0" d="M477.3,215.1c0.6-0.1,1.2-0.5,1.6-0.4c2.9,1.2,5.5,1.2,8.2-0.2c0.1,0,0.2,0,0.5,0c-0.1,1.5-1.6,1.6-2.5,2.1
		C483.5,217.6,479.6,216.7,477.3,215.1z"/>
	<path class="st0" d="M468.3,213.3c0-2.2,0-4.4,0-6.5C469.3,207.8,469.4,212.5,468.3,213.3z"/>
	<path class="st0" d="M515.3,283.9c1.5-0.9,2.7-1.6,4.1-2.5C519.3,282.9,517.1,284.3,515.3,283.9z"/>
</g>
</svg>
