<?xml version="1.0" encoding="utf-8"?>
<!-- Generator: Adobe Illustrator 19.1.0, SVG Export Plug-In . SVG Version: 6.00 Build 0)  -->
<svg version="1.1" id="Layer_1" xmlns="http://www.w3.org/2000/svg" xmlns:xlink="http://www.w3.org/1999/xlink" x="0px" y="0px"
	 viewBox="0 0 156.6 214.7" style="enable-background:new 0 0 156.6 214.7;" xml:space="preserve">
<style type="text/css">
	.st0{fill:#03A9F4;}
</style>
<g id="doctor-male-illus">
	<path class="st0" d="M24,183.3c0,0.3,0,0.6,0.1,0.9c0.1,0.3,0.2,0.6,0.3,0.9c0.4,3.8,0.7,7.5,1,11.3c0.2,2.5,0.6,4.9,0.9,7.4
		c0.3,2,0.5,3.9,0.8,5.9c0.1,0.5,0.2,1,0.4,1.5c0.5,1.1,0.5,2.1-0.4,2.9c-0.4,0.3-1.1,0.7-1.4,0.6c-0.6-0.3-1-0.9-1.3-1.5
		c-0.2-0.4,0-1,0.1-1.4c0.6-2.1-0.3-4-0.8-6c-0.6-2.3-1-4.7-1.3-7.1c-0.4-3.6-0.7-7.2-1-10.9c-0.2-2.7-0.3-5.3-0.4-8
		c-0.1-1.1-0.4-2.2-0.5-3.3c-0.5-3.7-3.8-5.9-5.1-9.2c-0.8-1.9-1.5-3.8-2.2-5.8c-0.6-1.8-1.1-3.7-1.6-5.6c-0.4-1.4-0.7-2.9-1.1-4.3
		c-0.4-1.5-1-2.9-1.5-4.4c-0.4-1.1-0.6-2.2-1-3.2c-0.6-1.7-1.4-3.4-2-5.1c-0.3-0.8-0.4-1.6-0.6-2.4c-0.4-1.5-0.9-3.1-1.4-4.6
		c-0.4-1.2-0.8-2.5-1.2-3.7c-0.5-1.5-1-2.9-1.6-4.4c-0.1-0.1-0.2-0.3-0.2-0.4c-0.4-3.5-1.5-7.1-0.8-10.7c0.4-2.4,1.3-4.7,2.1-7
		c1.6-4.3,5.3-6.8,8.8-9.5c2.6-2,5.2-3.9,7.9-5.8c2.4-1.7,4.9-3.3,7.2-5.1c1.2-0.9,2.2-2,3.2-3c0.3-0.4,0.4-1,0.5-1.5
		c0.2-1.9,0.2-3.8,0.5-5.7c0.1-0.7,0.8-1.5,1.4-1.7c2-0.8,4-1.3,6.2-0.3c1.1,0.5,2,0.3,2.8-0.7c2.3-3.3,4.8-6.4,6.7-9.9
		c1-1.8,1.9-4.1,0.5-6.4c-0.3-0.4-0.6-0.9-1-1.1c-1.5-0.9-2.7-2-3.5-3.7c-1-2.1-2.2-4.2-3.1-6.3c-0.4-0.8-0.6-1.9-0.6-2.8
		c0-2.1,0-4.3,0.5-6.3c0.3-1.1,1.4-2.1,2.3-2.9c0.9-0.8,1.3-1.6,0.8-2.6c-1.3-2.9-0.9-5.9-0.7-8.9c0.3-3.6,1.5-7,3.4-10.1
		c1.5-2.5,3.6-4.7,6.3-5.9c3.1-1.4,6.3-2.5,9.4-3.7c4.4-1.8,9-2.1,13.6-1.6C79,0.5,82.2,1.9,85.1,4c1.6,1.1,3.1,2.4,4.5,3.7
		c2.2,1.9,3.5,4.5,4.9,7c0.5,0.8,0.7,1.9,0.9,2.8c0.8,4.1,1.4,8.3,1,12.5c-0.1,1.2-0.7,2.3-0.8,3.4c-0.1,0.6,0.1,1.4,0.5,1.7
		c1.3,1.2,1.5,2.8,1.6,4.4c0.1,2.8,0.1,5.6-1,8.2c-0.5,1.1-0.4,2.4-1,3.4c-0.6,1-1.4,2.1-2.4,2.7c-1.2,0.8-1.8,1.7-2.1,3.1
		c-0.4,1.8-0.9,3.6-1.4,5.3c-0.1,0.2-0.2,0.4-0.2,0.7c-0.5,3.4-2,6.2-4.5,8.5c-0.8,0.8-1.3,1.6-0.3,2.7C85,74.5,85,75,85,75.5
		c0,1.3,0.5,1.6,1.7,2c1.9,0.5,3.7,1.3,5.5,2.1c3.1,1.5,6.1,3.2,9,4.9c2,1.2,4,2.4,6,3.7c2.7,1.8,5.3,3.7,7.9,5.6
		c2.4,1.8,3.6,4.6,4.8,7.2c1.7,3.6,3.1,7.3,4.8,10.9c1.8,3.7,3.6,7.4,5.6,10.9c1.1,2,2.3,4,3.9,5.6c2.1,2.1,3.3,4.8,4.8,7.2
		c2.2,3.6,4.5,7.2,6.8,10.7c0.7,1.1,1.5,2.2,2.4,3.3c0.8,1.1,1.7,2,2.4,3.1c1.7,2.4,3.5,4.8,4.8,7.4c0.8,1.7,0.9,3.9,1.1,5.9
		c0.2,1.4,0.1,2.8,0,4.2c-0.1,1-0.4,2-0.6,3c-0.1,0.2-0.2,0.4-0.2,0.7c-0.3,1.7-0.5,3.5-0.9,5.2c-0.2,1-0.6,2-1,3
		c-1,2.5-1.7,5.1-3.3,7.3c-2.9,4-6.3,7.2-10.7,9.3c-4.5,2.2-8.9,4.4-13.4,6.6c-3.8,1.9-7.6,3.7-11.3,5.6c-0.3,0.1-0.7,0.1-1,0.2
		c-0.6,0.1-1.3,0.2-1.9,0.5c-2,1-3.5,0.5-4.4-1.5c-0.7-1.6-1.3-3.3-1.9-4.9c-0.4-1.1-1.5-2.1-2.8-2.2c-0.4,0-0.8,0-1.2,0
		c-3.9,0.3-7.7-0.6-11.6-1.3c-1.8-0.3-3.6-0.4-5.4-0.5c-3.9-0.2-7.1,1.8-10.7,2.6c-3.3,0.7-6.6,1.4-10,1.8c-1.7,0.2-3.4,0.1-5.1,0
		c-0.8,0-1.7-0.1-2.5-0.4c-1.5-0.5-3.1-0.1-4.5-1.1c-1.8-1.3-3.7-2.3-5.5-3.5c-2.2-1.4-4.3-2.8-6.5-4.2c-1.5-1-3-1.9-4.4-2.9
		c-1.8-1.2-3.5-2.5-5.3-3.7c-2.1-1.4-3.2-3.5-4.5-5.5c-0.4-0.6-1-1-1.5-1.5C24.3,183.1,24.2,183.2,24,183.3z M63.9,202.6
		c1.9-0.1,4.4,0.3,6.7-0.7c1.5-0.6,3.2-0.9,4.8-1.3c2.3-0.7,4.6-1.5,6.8-2.3c0.7-0.2,1.4-0.6,2.1-0.8c1.8-0.5,3.6-0.9,5.4-1.5
		c1.7-0.6,3.4-1.3,5.1-1.9c2.1-0.7,4.2-1.3,6.3-2c2.4-0.8,4.7-1.6,7.1-2.4c0.7-0.2,1.4-0.7,2.1-0.9c2.6-0.6,4.9-1.8,7.1-3.1
		c1.5-0.9,2.2-2,1.8-3.7c-0.1-0.4-0.2-0.8-0.4-1.2c-0.4-1.1-0.9-2.1-1.3-3.2c-0.7-2-1.3-4.1-2-6.1c-0.3-0.9-0.5-1.8-0.9-2.6
		c-1-1.9-2.1-3.9-3.2-5.7c-1.2-2-2.5-3.9-4.4-5.3c-0.3-0.2-0.8-0.4-1.2-0.4c-3.3,0-6.6,0-10,0.1c-0.8,0-1.5,0.4-2.2,0.6
		c-0.3,0.1-0.8,0.2-1,0c-1.7-1.1-3.4-0.6-5.1-0.2c-2.1,0.5-4.1,0.9-6.2,1.3c-0.3,0.1-0.7,0-1.1,0c-0.5,0-1,0-1.4,0.2
		c-1.2,0.7-2.4,0.7-3.7,0.7c-0.5,0-1,0-1.4,0.2c-3,1.5-6.3,1.6-9.5,1.5c-3.3-0.1-6.6-0.5-9.9-0.9c-0.4,0-0.9-0.4-1.3-0.6
		c-0.9-0.5-1.6-0.4-2.4,0.2c-3,2.4-6,4.9-9.1,7.2c-0.6,0.5-1.9,0.2-2.3-0.5c-0.5-0.9,0.2-1.2,0.7-1.6c2.2-1.6,4.4-3.1,6.6-4.7
		c0.7-0.5,1.4-1.1,1.9-1.8c0.3-0.4,0.5-1.2,0.3-1.7c-0.6-1.5-1.6-2.8-2.1-4.2c-0.6-1.8-1-3.8-1.4-5.7c-0.2-1-0.4-2.1-0.6-3.2
		c-0.1-0.8-0.3-1.6-0.4-2.4c-0.1-1.8,0.3-3.6-0.6-5.4c-0.2-0.4,0.2-1.1,0.3-1.7c0.1-0.4,0.3-0.8,0.3-1.2c0.1-0.7-0.2-1.4,0.1-2
		c0.2-0.5,0.9-0.9,1.4-1c0.3,0,1,0.6,1,0.9c0.1,2.1,0.5,4.3-0.1,6.2c-1,3.6,0.8,6.6,1.3,9.8c0,0.1,0.1,0.2,0.2,0.3
		c0.7,2.2,1.5,4.3,2.2,6.5c0.4,1.5,1.7,2.9,3.2,3.2c2.4,0.4,4.8,0.7,7.2,1.1c0.8,0.1,1.6,0.5,2.4,0.4c1.5,0,3-0.2,4.5-0.4
		c1-0.1,2-0.3,3.1-0.5c1.4-0.2,2.8-0.4,4.2-0.7c0.6-0.1,1.2-0.2,1.7-0.3c0.6-0.2,1.3-0.4,1.9-0.5c0.5-0.1,0.9-0.1,1.4-0.3
		c1-0.3,1.9-0.7,2.9-1.1c0.3-0.1,0.5-0.7,0.5-0.9c-0.6-1.5-1.4-2.9-2.1-4.4c-1.5-2.8-3.3-5.4-5.5-7.8c-3.8-4.3-7.3-8.8-11-13.3
		c-0.4-0.5-0.7-1-1.1-1.4c-1.6-1.7-3.1-3.5-4.8-5.1c-1.5-1.4-3.1-2.6-4.6-4c-2.6-2.4-5-5.1-8.1-6.9c-1.3-0.8-1.4-1.4-0.4-2.6
		c1.1-1.3,2.3-2.7,3.4-4c0.7-0.9,0.5-1.4-0.7-1.6c-0.3,0-0.6-0.1-0.8-0.1c-2.1,0.3-4.3,0.5-6.4,0.8c-0.2,0-0.6,0.6-0.6,0.9
		c0.4,1.4,0.8,2.8,1.5,4.1c1.1,2,2.4,3.9,3.6,5.8c1.2,1.9,2.4,3.8,3.6,5.8c1.4,2.2,2.9,4.4,4.3,6.7c1.2,2,2,4.2,3.3,6.1
		c1.4,2.1,3.1,3.9,6.1,3.5c0.8-0.1,1.7,0,2.4,0.3c3.5,1.5,4.4,4.6,4.4,8c0,3.9-3.9,7.9-7.8,8c-0.2,0-0.3,0-0.5,0
		c-1.5-0.6-3.1-1-4.5-1.7c-1.7-0.9-2.7-2.7-3-4.4c-0.3-1.4-0.4-3,0-4.7c0.4-1.4,0.6-2.7,1.8-3.6c0.7-0.6,0.6-1,0-1.7
		c-0.9-1.2-2.1-2.4-2.6-3.7c-1-2.7-2.2-5.2-3.7-7.5c-2.2-3.4-4.4-6.7-6.6-10.1c-1.4-2.2-2.7-4.4-3.9-6.7c-1-1.9-1.7-4.1-2.8-5.9
		c-2.9-4.9-4.5-10.1-5.9-15.6c-0.3-1.1-0.4-1.3-1.4-0.6c-2.2,1.6-4.2,3.4-6.4,5c-2.5,1.9-5.1,3.7-7.6,5.6c-2.3,1.7-4.8,3.4-6.9,5.3
		c-2.6,2.4-4.1,5.6-4.7,9.2c-0.5,2.8-0.5,5.5,0,8.3c0.1,0.6,0,1.3,0.2,1.9c0.4,1.1,0.9,2.1,1.3,3.2c0.4,1,0.8,1.9,1.1,2.9
		c0.4,1.5,0.7,3,1.1,4.5c0.3,1.1,0.5,2.2,0.8,3.3c0.8,2.6,1.7,5.1,2.6,7.7c0.3,1,0.6,2,1,3c1.1,3.3,2.2,6.6,3.2,9.9
		c0.8,2.5,1.4,5.1,2.5,7.5c1.7,3.6,3.7,7,5.7,10.5c1.5,2.6,3,5.2,4.8,7.6c1.8,2.4,3.8,4.8,6.1,6.7c3.2,2.5,6.8,4.5,10.2,6.8
		c2.4,1.6,4.7,3.4,7,5c1.2,0.8,2.6,1.9,3.9,2.1C57.9,202.8,60.7,202.6,63.9,202.6z M74.4,73.3c1.4-0.2,2.6,0,3.5-0.5
		c2.1-1.3,4-2.8,5.8-4.4c1.9-1.6,2.6-3.9,3.3-6.1c0.5-1.5,0.6-3,0.9-4.6c0-0.1,0.1-0.2,0.1-0.3c0.5-1.4,1.1-2.9,1.5-4.3
		c0.2-0.8,0.6-1.3,1.3-1.7c1.3-0.7,2.3-1.6,2.5-3.2c0.3-1.8,0.8-3.6,1.2-5.4c0.6-2.5,0.8-4.9-1.6-6.7c-0.9-0.8-1-2.1-0.5-3.3
		c0.5-1.3,1.1-2.6,1.3-3.9c0.2-1.3,0.1-2.7-0.1-4c-0.3-2-1.1-4-1.2-6.1c-0.1-3-1.8-5.2-3.4-7.5c-2.1-3-5.2-5.1-8.5-6.6
		c-0.9-0.5-2-0.9-3-1c-2.9-0.2-5.9-0.4-8.8-0.3c-1.6,0-3.2,0.3-4.7,0.7c-1.2,0.3-2.4,0.9-3.6,1.4c-1.8,0.7-3.7,1.2-5.4,2
		c-2.7,1.4-5.2,3.1-6.7,5.9c-0.3,0.6-0.4,1.2-0.7,1.8C47,16.5,46.2,18,46,19.6c-0.4,2.3-0.8,4.7-0.4,7c0.4,2.5,0.5,4.9,0.6,7.4
		c0,0.9-0.4,1.7-1.5,1.7c-1.3,0-2,1-2,2c0,2.2,0.3,4.5,0.8,6.6c0.4,1.6,1.2,3.2,2,4.7c0.8,1.5,1.7,2.7,3.4,3.5
		c2,0.8,2.5,1.4,2.5,3.6c0,1,0,2,0,3c0.1,1.9-0.8,3.6-1.5,5.3c-0.3,0.7-0.4,1.2,0.2,1.8c1.9,1.8,3.6,3.8,5.6,5.5
		c2.2,1.9,4.8,3.5,6.9,5.5c3.8,3.4,8.1,6,12.6,8.1c0.4,0.2,1.2,0.2,1.6,0c1.5-0.9,2.9-1.8,4.3-2.8c0.3-0.2,0.6-0.7,0.7-1.1
		c0.6-1.9,0.8-3.8,0.4-5.8c-0.2-1.2-0.4-1.3-1.6-0.7c-1.3,0.7-2.6,1.3-4,1.7c-0.7,0.2-1.5-0.2-2.3-0.3c-0.7-0.1-1.3-0.4-2-0.5
		c-0.7-0.1-1.5,0-2.1-0.3c-2.2-1-4.4-2.1-6.5-3.3c-1.7-1-3.4-2.3-5-3.5c-0.3-0.2-0.5-0.8-0.3-1.1c0.1-0.3,0.7-0.4,1.1-0.5
		c0.3,0,0.7,0.1,1,0.3c1,0.6,2,1.3,3.1,1.9c1.9,1.1,3.8,2.2,5.8,3C71,72.8,72.9,73,74.4,73.3z M137.9,172.3
		c-2.4,0.1-4.2-0.9-6.1-1.8c-1.9-0.8-4-1.5-6-1.8c-2.2-0.3-4.4-0.1-6.6-0.1c-1.2,0-1.4,0.2-1,1.3c0.6,1.7,1.2,3.3,1.8,5
		c1.1,2.9,2.2,5.8,3.4,8.6c0.4,0.9,0.1,2.3-0.8,2.7c-3.3,1.6-6.6,3.2-9.9,4.7c-1.1,0.5-2.4,0.8-3.6,1.2c-1.7,0.5-2.3,1.2-2.3,3
		c0,1.8,0.3,3.4,0.8,5.1c0.7,2.2,1.1,4.4,2,6.6c0.8,2.2,2.7,2.4,4.5,1.5c3.2-1.6,6.3-3.4,9.5-5c4.7-2.3,9.4-4.5,14.1-6.9
		c2.6-1.4,5.4-2.6,7.3-5c1.8-2.3,3.4-4.7,4.9-7.1c0.5-0.7,0.5-1.7,0.8-2.6c0.8-2.3,1.6-4.7,2.4-7c0.1-0.3,0-0.7,0.1-1.1
		c0.1-0.8,0.1-1.7,0.4-2.5c0.6-2.2,0.6-4.4-0.1-6.6c-0.1-0.4-0.3-0.9-0.2-1.3c0.3-1.6-0.7-2.8-1.4-4.1c-0.9-1.6-2.2-2.9-3.2-4.4
		c-2.8-3.9-5.6-7.7-8.2-11.6c-1.6-2.3-3.1-4.7-4.2-7.2c-1.3-2.8-3.5-4.9-5.2-7.3c-1.3-1.9-2.8-3.6-4.2-5.3c-0.2-0.3-0.4-0.6-0.5-1
		c-1-2.3-1.9-4.5-2.9-6.8c-1.9-4.4-3.8-8.8-5.8-13.1c-0.8-1.8-1.6-3.8-3.2-5.1c-1.8-1.5-3.5-3-5.4-4.4c-2-1.5-4-2.9-6.1-4.3
		c-0.4-0.3-0.9-0.3-1.4-0.5c-0.1,0.1-0.2,0.3-0.3,0.4c1,0.9,1.9,2,3,2.7c1.2,0.8,2.4,1.6,2.9,3.1c0.2,0.4,0.6,0.8,1,1.2
		c1.4,1.5,3,2.9,4.1,4.6c1.4,2.2,2.3,4.7,3.4,7c0.4,0.9,0.7,1.9,1,2.9c0.4,1.4,0.7,2.8,1.3,4.1c1.3,3.2,2.8,6.3,3.1,9.7
		c0.1,1.1,0.2,2.3,0.3,3.4c0.2,1.8,0.3,3.6,0.6,5.5c0,0.4,0.2,1,0.4,1c0.9,0,2,0.2,2.8-0.2c0.8-0.3,1.4-1.1,1.2-2.2
		c-0.1-0.6,0-1.3,0.3-1.8c0.5-0.8,1.3-1.4,2.4-1c1,0.4,1.8,1.5,1.6,2.6c-0.2,0.9-0.5,1.8-1.1,2.5c-1.2,1.4-2.5,2.7-4.5,2.8
		c-1.9,0.1-3.6,0.6-4.8,2.1c-1.7,2.2-4.2,3.2-6.8,3.4c-1.1,0.1-2.4-0.2-3-1.4c-0.2-0.5,0.1-1.3,0.3-1.9c0.1-0.2,0.7-0.5,0.8-0.4
		c1.5,0.9,2.9-0.4,4.4,0c0.4,0.1,1.1-1,1.7-1.5c-0.4-0.4-0.7-0.9-1.2-1.2c-0.8-0.6-1.7-1.1-2.6-1.7c-3-2.1-6.1-4.2-8.5-7.1
		c-0.4-0.5-0.8-0.9-1.3-1.2c-0.3-0.2-0.6-0.3-0.9-0.3c-0.1,0-0.2,0.5-0.3,0.8c-0.1,0.4-0.1,0.9-0.2,1.3c-0.2,1.1-0.4,2.2-0.6,3.3
		c-0.3,1.8-0.6,3.7-0.9,5.5c0,0.1,0,0.2-0.1,0.2c-0.8,0.8-0.8,1.8-0.7,2.8c0,0.3-0.1,0.7-0.2,1c-0.2,0.6-0.3,1.2-0.6,1.8
		c-0.8,1.6-1.1,3.4-1,5.2c0,0.2-0.2,0.5-0.4,0.7c-0.7,1.1-1.6,2.2-1.4,3.7c0,0.1-0.1,0.3-0.1,0.5c-0.6,1.7-0.4,2,1.3,2.4
		c0.5,0.1,1,0.2,1.5,0.2c2.9-0.2,5.7-0.5,8.5-0.8c1.3-0.1,2.7-0.3,4-0.3c0.7,0,1.5,0.4,2.2,0.2c1.9-0.4,3.6,0.5,5.3,1.1
		c1.9,0.6,3.8,1.6,5.6,2.6c2.1,1.1,4,1.6,5.8-0.4c0.2-0.2,0.5-0.4,0.8-0.6c1.7-1.3,3.5-2.1,5.5-2.7c0.7-0.2,1.4,0,1.5,0.8
		c0,0.5-0.3,1.3-0.7,1.6c-2,1.3-4.1,2.5-6.1,3.8c-2.1,1.3-4.2,2.6-6.3,3.9c-0.4,0.2-0.6,0.8-0.8,1.1c0.5,0.1,0.9,0.2,1.4,0.3
		c0.5,0.1,1-0.1,1.4,0.1c2.5,1,5.1,1.9,7.5,3.1C136.2,169.4,137.5,170.5,137.9,172.3z M49.9,100.1C49.9,100.1,49.9,100.1,49.9,100.1
		c1.4-0.1,2.8-0.2,4.2,0c0.6,0.1,1.2,0.6,1.5,1.1c0.2,0.3-0.1,1.1-0.5,1.5c-1.3,1.4-2.6,2.7-4,4c-2.3,2.2-2.2,2.4,0.1,4.6
		c1.4,1.3,2.6,2.8,4,4.1c4,3.9,8.2,7.6,12.1,11.7c2.5,2.6,4.4,5.6,6.7,8.3c3.3,3.8,6.7,7.6,9.1,12.2c0.9,1.8,2,3.6,2.8,5.6
		c0.6,1.5,2.3,2.3,3.7,1.5c0.6-0.4,0.9-0.8,0.6-1.6c-0.3-0.9-0.5-1.9-0.6-2.8c-0.4-2.2-0.3-4.5-1.1-6.6c-1.1-3-2.7-5.8-4.1-8.6
		c-2.1-3.9-4.2-7.8-6.4-11.6c-1.2-2.1-2.6-4-3.9-6.1c-1.5-2.4-2.8-4.9-4.3-7.2c-2.3-3.4-4.7-6.6-7.2-9.8c-3.3-4.2-6.8-8.4-10.2-12.6
		c-0.5-0.6-1.1-1.3-1.5-2c-1.2-2.1-2.4-4.2-3.5-6.4c-1-2-2.4-4-2.1-6.4c0-0.2-0.3-0.6-0.4-0.6c-0.2,0-0.5,0.2-0.7,0.4
		c-1.4,2.2-4.1,3.4-4.7,6.3c-0.2,1.2-0.5,2.2-0.1,3.4c0.2,0.6,0.4,1.2,0.5,1.8c0.3,3.6,0.7,7.3,0.9,10.9c0.1,1.7,0.5,3.3,1.1,4.9
		c0.3,0.9,0.9,1,1.7,0.8c0.6-0.2,1.3-0.5,1.9-0.6C47,100.1,48.4,100.1,49.9,100.1z M92.4,145.8c0.2,0,0.3-0.1,0.5-0.1
		c0.4-1.6,1-3.1,1.1-4.7c0.2-3.4,0.1-6.9,0.1-10.3c0.1-5.6,0-11.3-1.8-16.7c-0.1-0.2,0-0.4-0.1-0.6c-0.3-0.8-0.5-1.7-0.9-2.5
		c-0.5-1-1.1-1.8-1.7-2.7c-0.5-0.8-1-1.5-1.5-2.3c-0.7-1.1-1.5-2.3-2.2-3.4c-0.4-0.7-0.7-0.8-1.4-0.4c-0.6,0.3-1.4,0.6-2.1,0.5
		c-1.6,0-1.8,0.2-1.8,1.9c0,2.9-0.3,5.9-0.4,8.8c-0.1,2.6-0.2,5.3-0.3,7.9c0,0.1,0,0.2,0.1,0.3c0.9,1.7,1.7,3.4,2.7,5.1
		c1.8,3.1,3.9,6,5.7,9.1c0.9,1.6,1.4,3.4,2,5.2c0.4,1,0.5,2.1,0.9,3.2C91.6,144.8,92,145.3,92.4,145.8z M107.6,107.3
		c-1.6-0.7-3-1.3-4.4-1.9c-0.9-0.4-1.7-0.8-2.6-1.1c-1.4-0.4-2-1.6-1.3-2.9c0.9-1.6,1.8-3.2,2.8-4.7c1.3-1.9,1.2-2.9-0.5-4.3
		c-3.9-2.9-7.3-6.4-10.6-9.9c-0.2-0.2-0.4-0.5-0.7-0.6c-1.4-0.7-2.7-1.3-4.1-1.9c-0.3-0.1-0.9,0.1-1.2,0.3c-0.1,0.1,0.1,0.6,0.1,1
		c0,0.5,0.1,1,0,1.4c-0.3,0.9,0,1.4,0.6,2c4,3.5,6.4,7.9,7.3,13.1c0.1,0.4,0.3,0.7,0.5,1.1c0.2,0.4,0.5,0.9,0.5,1.3
		c-0.1,2,0.5,3.9,0.6,5.9c0.2,2.5,0.4,4.9,1,7.3c0.2,0.9-0.1,2.1,0.2,3c0.7,1.9,0.6,3.8,0.7,5.7c0.2,4.1-0.3,8.3,0.5,12.4
		c0.1,0.4,0.3,0.7,0.4,1.1c0.3-0.4,0.7-0.7,0.9-1.1c0.2-0.5,0.2-1,0.3-1.5c0.2-0.8,0.5-1.6,0.6-2.4c0.1-1.3-0.2-2.5,0.7-3.6
		c0.2-0.2,0.1-0.8,0.2-1.2c0.4-1.7,0.6-3.5,1.1-5.2c0.4-1.3,1-2.5,1.5-3.7c0.7-1.7,1.4-3.3,2.2-4.9
		C105.7,110.3,106.7,108.9,107.6,107.3z M47.6,72c0.5,1.7,0.8,3.2,1.4,4.5c2.1,4.4,4.8,8.4,7.9,12.2c2.3,2.8,4.5,5.6,6.7,8.4
		c0.9,1.1,1.7,2.3,2.6,3.5c0.2,0.3,0.8,0.4,1.1,0.4c0.2-0.1,0.4-0.6,0.6-0.9c0.2-0.6,0.3-1.2,0.5-1.8c0.4-1.1,0.9-2.3,1.4-3.4
		c1-2.1,2-4.2,3.1-6.3c0.4-0.7,0.3-1.2-0.4-1.5c-0.3-0.1-0.6-0.3-1-0.4c-3.2-1.6-6.2-3.5-9-5.9c-3.9-3.3-7.8-6.4-11.8-9.6
		c-0.6-0.5-1.4-0.9-2.1-1.4C48.3,70.5,47.9,71.3,47.6,72z M111.8,106.7c-0.8,1.1-1.6,2-2.3,3c-0.9,1.3-1.8,2.5-2.5,3.9
		c-0.8,1.6-1.3,3.4-2.1,5.1c-0.8,1.6-0.9,2.9,0.3,4.2c2.7,2.9,5.2,5.9,8.8,7.9c0.9,0.5,1.8,1.3,2.7,1.8c0.4,0.2,1.2,0.5,1.4,0.3
		c0.4-0.4,0.6-1,0.6-1.6c0-0.9-0.2-1.7-0.3-2.6c-0.4-2.2-0.6-4.4-1.1-6.6c-0.7-2.9-2.1-5.6-2.4-8.6c0-0.3-0.3-0.6-0.4-0.8
		c-0.2-0.4-0.3-0.8-0.5-1.2c-0.4-1.2-0.7-2.5-1.2-3.7C112.6,107.4,112.2,107.1,111.8,106.7z M84.9,99.2c0.5-0.8,0.9-1.4,1.2-2
		c0.6-1.4,1.2-2.8,1.7-4.3c0.1-0.4,0-1.1-0.3-1.4c-1.7-1.8-3.5-3.5-5.4-5.2c-0.3-0.3-1-0.3-1.5-0.2c-0.7,0.2-1.3,0.6-2,0.8
		c-1.4,0.5-2.5,1.4-3.2,2.8c-0.6,1.3-1.4,2.6-2.1,3.9c-0.5,0.9,0.1,2.1,1.1,2c1.9-0.2,3,0.9,4.2,2c0.7,0.6,1.4,0.8,2.4,0.8
		C82.3,98.4,83.7,97.9,84.9,99.2z M77.5,103.9c0.1,0,0.2,0,0.2,0c0-0.4,0-0.7,0-1.1c0-1.8-0.5-3.3-2.3-4.1c-0.6-0.3-1.4-0.2-2-0.5
		c-1.1-0.5-1.5,0-2,0.8c-0.8,1.4-1.7,2.8-2.5,4.2c-0.2,0.3-0.1,0.8,0.1,1.1c1.6,2.4,3.2,4.8,4.8,7.2c0.8,1.2,1.5,2.5,2.3,3.7
		c0.2,0.2,0.6,0.3,0.9,0.5c0.2-0.3,0.4-0.6,0.5-0.9C77.5,111.2,77.5,107.6,77.5,103.9z M56.5,144.7c-0.6,1.5,0.6,2.5,1.5,3.7
		c1,1.4,2.7,1.6,4.1,1.7c2.9,0.1,5.2-2.9,5.2-5.9c0-2.6-2.4-5.1-4.7-5.1C58.5,139.1,56.5,140.9,56.5,144.7z M112.2,156.3
		c-0.3,0-0.5,0-0.7,0c-0.4,0.1-0.7,0.2-1,0.4c0.2,0.3,0.3,0.6,0.5,0.9c0.4,0.5,0.8,1,1.1,1.5c1.4,2.2,2.9,4.4,4.3,6.6
		c0.4,0.7,0.9,0.7,1.5,0.3c1.9-1.4,3.8-2.7,5.8-4c0.9-0.6,0.9-1.4-0.1-1.7c-2.5-0.8-4.5-2.4-7-3.1
		C115,156.7,113.6,156.6,112.2,156.3z M98.1,199.9c0,0.1,0,0.1,0,0.2c1.6,0,3.1,0,4.7,0c1.2,0,1.7-0.7,1.4-1.6
		c-0.3-0.8-0.4-1.6-0.5-2.5c-0.1-0.5-0.1-1-0.2-1.5c-0.1-0.2-0.6-0.6-0.7-0.5c-1.5,0.5-2.9,1.1-4.3,1.7c-1.9,0.8-3.9,1.6-5.8,2.3
		c-0.4,0.2-0.8,0.3-1.2,0.5c0.4,0.3,0.7,0.8,1.1,1c0.4,0.2,1,0.3,1.5,0.4C95.3,200,96.7,199.9,98.1,199.9z M37.7,90.5
		c-0.2-2-0.5-4-0.7-6c-0.1-0.9-0.2-1.8-0.3-2.7c0-0.3-0.2-0.7-0.4-0.8c-0.2-0.1-0.6,0.1-0.8,0.3c-0.4,0.4-0.9,0.8-1.1,1.3
		c-0.4,1.1-1.1,2.4-0.9,3.4c0.4,2.5,1.2,4.8,2,7.2c0.5,1.5,1.1,3,1.7,4.4c0.1,0.4,0.5,0.6,0.7,0.9c0.2-0.4,0.4-0.8,0.5-1.2
		c0.1-0.2,0-0.5-0.1-0.7C37.1,94.7,37.5,92.6,37.7,90.5z M105.6,97.3c-0.3,0.2-0.6,0.2-0.8,0.4c-0.8,1.2-1.6,2.3-2.2,3.5
		c-0.1,0.3,0.2,1.1,0.6,1.3c2.2,1,4.5,1.9,6.7,2.7c0.3,0.1,1,0.1,1.2-0.1c0.2-0.2,0.3-0.9,0.1-1.2c-1.3-2.2-2.5-4.5-4.7-6
		C106.2,97.7,105.9,97.5,105.6,97.3z M91.4,102.3c-0.3-1.7-0.6-3.4-1-5.1c0-0.1-0.7-0.3-0.7-0.2c-0.5,1-1.4,2.1-1.3,3
		c0.1,1.2,1,2.4,1.7,3.5c0.1,0.2,0.6,0.4,0.9,0.4c0.2,0,0.3-0.5,0.4-0.7C91.4,102.9,91.4,102.6,91.4,102.3z M32.9,78
		c0.1,0.4,0.3,0.7,0.4,1.1c0.3-0.2,0.7-0.3,1-0.5c0.7-0.6,1.4-1.2,2-1.9c0.2-0.3,0.4-1,0.3-1.1c-0.4-0.3-1.1-0.7-1.4-0.5
		C34,75.7,32.7,76.3,32.9,78z"/>
</g>
</svg>
