<?xml version="1.0" encoding="utf-8"?>
<!-- Generator: Adobe Illustrator 19.2.1, SVG Export Plug-In . SVG Version: 6.00 Build 0)  -->
<svg version="1.1" id="Layer_1" xmlns="http://www.w3.org/2000/svg" xmlns:xlink="http://www.w3.org/1999/xlink" x="0px" y="0px"
	 viewBox="0 0 159 200" style="enable-background:new 0 0 159 200;" xml:space="preserve">
<style type="text/css">
	.st0{fill:#4CAF50;}
</style>
<g id="pharm-joe-green">
	<path class="st0" d="M159,141.5c-1.7-0.9-3.4-2-5.2-2.8c-2.7-1.2-5.5-2.3-8.3-3.3c-2.2-0.8-4.4-1.3-6.6-1.9c-0.8-0.2-1.7,0-2.6,0
		c0,0.3,0,0.7,0,1.1c-0.2,1.5-0.3,2.9-0.6,4.4c-0.3,1.6-0.6,3.1-1.1,4.6c-0.6,2.1-1.4,4-2,6.1c-0.8,2.7-1.6,5.3-2.3,8
		c-0.8,2.9-1.4,5.9-2.1,8.8c-0.2,0.8-0.3,1.7-0.6,2.5c-0.1,0.2-0.4,0.5-0.7,0.5c-0.4,0-0.8-0.1-1.2-0.3c-1.1-0.4-2.2-0.7-3.3-1.1
		c-2.1-0.9-4.1-1.8-6.2-2.7c-2.2-1-4.5-1.9-6.7-2.9c-1.1-0.5-2.3-1-3.5-1.5c-1.1-0.4-2.2-0.6-3.3-0.9c-0.1,0-0.3,0.1-0.4,0.2
		c-1.1,1-2.2,2-3.4,2.9c-1,0.8-2,1.5-3.1,2.2c-1.3,0.9-2.4,1.9-3.2,3.4c-0.7,1.2-1.6,2.4-2.3,3.5c-0.8,1.3-1.7,2.6-2.5,3.9
		c-0.5,0.8-1.1,1.6-1.7,2.4c-1,1.4-1.1,2.9-0.5,4.5c1.4,3.5,2.4,7.1,3.6,10.7c0.4,1.1,1,2.2,1.5,3.3c0.4,0.8,0.8,1.7,1.2,2.6
		c-10.1,0-20,0-30,0c0.7-4.5,1.9-8.9,4-12.9c1.7-3.4,3.5-6.8,5.2-10.2c0.1-0.2,0-0.5-0.1-0.7c-1.2-2.7-2.4-5.4-3.6-8.1
		c-0.6-1.4-1-2.9-1.6-4.3c-0.3-0.7-0.8-1.4-1.2-2c-0.3-0.4-0.6-0.8-0.9-1.3c-0.8,0.5-1.6,0.9-2.4,1.4c-1.7,1.2-3.4,2.6-5.1,3.8
		c-0.6,0.4-1.2,0.8-1.9,1c-0.2,0.1-0.7-0.2-0.8-0.4c-0.4-1-0.8-2.1-1-3.1c-0.6-2.4-1.2-4.8-2.5-6.9c-1.4-2.1-3-4.2-4.7-6.1
		c-0.8-0.9-1.9-1.5-2.7-2.3c-1-0.9-1.7-2.1-2.6-3.1c-1.9-2-3-4.4-4.2-6.8c-0.8-1.7-1.7-3.3-2.5-5.1c-0.3-0.8-0.4-1.6-0.7-2.6
		c-1.4,0.2-2.8,0.5-4.3,0.7c-1.7,0.1-3.4,0.2-5.1,0.2c-2-0.1-3.9-0.3-5.9-0.4c-1.7-0.1-3.3-0.2-5-0.1c-2.3,0.1-4.6,0.3-6.7,1.3
		c-1.6,0.8-3.2,1.4-4.6,2.6c-0.3,0.3-0.8,0.3-1.2,0.5c0-0.4,0-0.8,0-1.2c1.3-0.9,2.7-1.7,4.1-2.4c2.7-1.4,5.5-1.8,8.5-1.9
		c3.3-0.1,6.5,0.3,9.7,0.5c3.4,0.2,6.7,0,10-0.9c-1.6-4.5-0.8-9.1,0.7-13.7c-0.8,0.2-1.4,0.3-2,0.5c-2.2,0.8-4.3,1.6-6.4,2.4
		c-1.7,0.6-3.4,1.3-5.1,1.7c-2.7,0.8-5.4,1.7-7.9,2.9c-2.1,1-4.1,2.2-6.2,3.3c-1.1,0.7-2.3,1.4-3.3,2.2c-0.7,0.5-1.4,1.2-2.1,1.8
		c0-0.6,0-1.1,0-1.7c2.5-2.1,5.3-3.6,8.1-5.2c2.7-1.5,5.6-2.7,8.5-3.7c3.3-1.1,6.6-2.2,9.8-3.3c1.6-0.5,3.1-1.2,4.6-1.8
		c0.9-0.3,1.9-0.6,2.9-0.9c-1.2-3.5-2.4-6.9-3.5-10.3c-1.3-4.1-2.4-8.2-3.5-12.3c-0.7-2.4-1.6-4.8-2.8-7c-0.5-0.9-0.9-1.9-1.4-2.8
		c-0.5-1-1.1-1.9-1.7-2.9c-1.8-2.9-2.9-6-3.8-9.2c-0.3-0.9-0.7-1.7-1-2.6c-0.5-1.3-1-2.5-1.3-3.8c-0.5-1.6-1-3.1-1.3-4.8
		c-0.2-1.3-0.3-2.6-0.3-3.9c0-1.6,0-3.2,0-4.8c0-1.9-0.1-3.9,0.2-5.8c0.3-2.4,0.1-4.8,1-7.1c0.8-2.2,1.4-4.6,2.4-6.7
		c1.3-2.9,2.9-5.6,4.5-8.3c0.8-1.4,1.9-2.5,3.2-3.4c0.1,0,0.1-0.1,0.2-0.2c1.5-1.8,3.1-3.6,4.5-5.5c1.3-1.8,3-3.1,4.5-4.6
		c1.7-1.6,3.6-2.8,5.7-3.9c2.2-1.1,4.4-2,6.9-2.6c0.7-0.2,1.4-0.5,2.1-0.7c0.8-0.2,1.6-0.5,2.5-0.5C54,0,57.1,0,60.1,0
		C64,0,68,0.1,71.9,0.1c1.8,0,3.6,0.4,5.4,0.9c2,0.5,4,0.9,5.9,1.5c1.1,0.3,2.1,0.9,3.1,1.5c1.6,1,3.2,2.1,4.8,3.2
		c0.7,0.5,1.3,1.2,2,1.7c1.2,0.8,2.5,1.6,3.8,2.4c0.4,0.2,0.7,0.6,0.9,1c1.5,2,2.9,4,4.4,6.1c0.1,0.1,0.1,0.2,0.2,0.2
		c1.3,1,1.9,2.5,2.7,3.8c0.6,1.1,1.3,2,1.9,3.1c0.5,1.1,0.8,2.3,1.2,3.5c0.2,0.8,0.4,1.6,0.7,2.4c0.3,0.9,0.7,1.7,0.8,2.6
		c0.2,1,0.6,1.9,1,2.9c0.4,1,0.5,2,0.8,3.1c0.5,1.8,1.1,3.6,1.5,5.5c0.2,0.8,0.3,1.7,0.4,2.6c0.1,0.7,0.3,1.4,0.4,2.1
		c0,0.1,0.2,0.3,0.3,0.3c1.6,0.5,2.7,1.6,3.7,2.9c1.1,1.3,2.1,2.7,2.4,4.5c0.2,0.8,0.3,1.6,0.4,2.4c0.1,1.3,0.1,2.6,0.1,3.9
		c0,1.6,0.1,3.3,0.1,4.9c0.1,1.6,0.3,3.2,0.2,4.7c0,1.6-0.3,3.1-0.5,4.7c-0.1,1.1-0.3,2.2-0.5,3.3c-0.4,1.9-1.2,3.6-2.6,4.9
		c-0.7,0.7-0.8,1.4-0.7,2.2c0.2,2.1,0.4,4.2,0.6,6.2c0.1,1.3,0.2,2.6,0.4,4c0.2,1.2,0.8,2.1,1.6,2.9c0.6,0.7,1.1,1.4,1.7,2
		c1.1,1,2.2,2.1,3.3,3c1.2,1,2.5,2,3.8,2.9c2.2,1.5,4.4,2.9,7,3.5c1.3,0.3,2.7,0.6,4,1c1.5,0.5,3,1.1,4.6,1.6
		c1.7,0.6,3.4,1.1,5.2,1.7c2.2,0.7,4.5,1.3,6.7,2c1,0.3,2.1,0.6,3.1,0.9c0,0.4,0,0.9,0,1.3c-1.2-0.4-2.4-0.7-3.6-1.1
		c-2.2-0.7-4.4-1.3-6.6-2c-2.7-0.9-5.5-1.8-8.2-2.6c-1.6-0.5-3.3-1.2-4.9-1.5c-1.6-0.4-3.1-0.8-4.5-1.6c-0.4-0.2-0.8-0.5-1.3-0.7
		c4.3,5.9,5.9,12.7,6.5,19.7c0.4,0,0.7,0.1,1.1,0.1c1.6-0.1,3.2,0.4,4.7,0.8c1.9,0.5,3.7,1.2,5.5,1.9c2.4,0.9,4.7,1.9,7.1,2.9
		c1.5,0.7,2.8,1.6,4.2,2.4C159,140.6,159,141,159,141.5z M26.7,86.2c0.1-0.2,0.2-0.4,0.3-0.5c0.6-1.1,1.3-2,2.4-2.6
		c2-1.2,4-2.5,6.3-3c2.4-0.5,4.9-0.8,7.1,0.6c0.2,0.1,0.4,0.6,0.3,0.9c-0.1,0.2-0.5,0.5-0.7,0.5c-1.9,0.1-3.8-0.1-5.6,0.2
		c-3.4,0.7-6.3,2.3-8.6,5c-0.5,0.6-0.8,1.1-0.5,2c0.4,0.8,0.6,1.7,0.8,2.5c1.2,4.3,2.5,8.6,3.7,13c0.7,2.5,1.5,4.9,2.4,7.4
		c0.8,2.3,1.7,4.5,2.6,6.7c0.2,0.4,0.3,0.9,0.5,1.3c0.9,1.3,1.7,2.6,2.7,3.8c1.4,1.8,2.7,3.7,4.4,5.3c1.6,1.4,2.8,3.2,4.2,4.7
		c1.5,1.5,3.2,2.8,4.8,4.2c1.2,1,2.5,2,3.7,3c1.1,0.9,2.2,1.9,3.3,2.9c0.7,0.7,1.4,1.4,2.2,2c0.6,0.6,1.2,1.1,1.9,1.6
		c0.7,0.5,1.5,0.8,2.3,1.1c1.5,0.6,2.9,1.1,4.5,1.1c0.9,0,1.7,0,2.6,0c0.9,0,1.7-0.2,2.5-0.5c0.2-0.1,0.5-0.2,0.7-0.3
		c2.2-1,4.6-1.8,6.7-3c2.1-1.2,3.9-2.7,5.8-4.3c1.6-1.3,3-2.8,4.4-4.3c1.1-1.1,2.1-2.3,3.1-3.5c1.6-1.9,3.2-3.7,4.8-5.6
		c0.8-0.9,1.6-1.8,2.2-2.8c0.9-1.5,1.6-3.1,2.3-4.6c0.9-1.8,1.8-3.6,2.7-5.3c1.1-2.1,1.6-4.4,2.3-6.6c0.7-2.2,0.7-4.5,0.6-6.7
		c0-1.3-0.1-2.6-0.1-4c-0.1-1.7-0.2-3.4-0.4-5c-0.2-1.3-0.3-2.6-0.9-3.7c-0.5-0.9-0.6-1.8-0.9-2.7c-0.5-1.5-1.2-2.9-1.9-4.3
		c-0.1-0.3-0.5-0.6-0.8-0.7c-1.8-0.6-3.1-1.7-3.6-3.5c-0.5-1.6-0.9-3.2-1.5-4.7c-0.6-1.4-1-2.9-1.7-4.2c-1.1-2.2-2.3-4.4-3.4-6.6
		c-0.6-1.1-1.3-2-2.5-2.5c-1.1-0.5-2.2-1.1-3.3-1.6c-0.6-0.2-0.8-0.7-0.8-1.2c0-1.3,0.1-2.6,0.1-3.9c0-1.6,0.3-3.2-0.1-4.7
		c-0.6-2.8-1.5-5.5-3.8-7.4c-0.1-0.1-0.2-0.2-0.3-0.3c-0.5-0.7-1.3-0.9-2.1-1c-0.5-0.1-1-0.2-1.5-0.3c-0.6-0.1-1.1-0.3-1.7-0.3
		c-1.4,0-2.8,0-4.2,0.2c-0.6,0.1-1.5-0.2-1.8,0.6c-0.2-0.1-0.4-0.4-0.6-0.4c-1.6,0-3.2,0.1-4.8,0.3c-1.1,0.1-2.2,0.1-3.2,0.7
		c-0.7,0.4-1.8,0.1-2.7,0.2c-1.5,0.2-2.9,0.4-4.4,0.6c-1.2,0.2-2.3,0.6-3.4,0.8c-2.6,0.6-5.2,1.2-7.5,2.6c-0.3,0.2-0.7,0.2-1,0.2
		c-0.9-0.2-1.9-0.5-2.8-0.9c-2.3-0.9-4.5-1.8-7.1-1.5c-1.1,0.1-2.3-0.1-3.4,0.1c-1.9,0.3-3.8,0.6-5.6,1c-1.3,0.3-2.6,0.7-3.9,1
		c-1,0.3-1.7,1.1-2.5,1.7c-0.9,0.6-1.3,1.4-1.4,2.4c-0.2,2-0.2,4.1-0.3,6.1c-0.1,2.2-0.1,4.3-0.1,6.5c0,0.1,0,0.2,0,0.3
		c0,1.2-0.2,2.3-0.1,3.4c0.3,2.3,0.8,4.5,1.3,6.8c0.5,1.9,1.1,3.8,1.6,5.8c0.2,0.9,0.2,1.8,0.7,2.6c0.3,0.5,0.4,1.1,0.7,1.6
		C25.3,83.4,26,84.7,26.7,86.2z M92.8,154.7c1.5,0.3,2.8,0.8,4,1.5c0.9,0.5,1.8,1.1,2.7,1.4c3,1.1,6,2.1,9,3.3
		c2.4,0.9,4.8,1.9,7.2,3c1.9,0.8,3.7,1.8,5.7,2.6c1.6,0.6,3.3,1.1,4.9,1.6c0.1,0,0.3-0.1,0.3-0.2c0.2-0.5,0.3-1,0.4-1.6
		c0.7-2.9,1.3-5.9,2-8.8c0.9-3.4,1.9-6.7,2.9-10c0.8-2.7,2.1-5.3,2.4-8.1c0.2-2,0.7-4,0.6-6.2c-0.1-2.4-0.4-4.7-0.7-7
		c-0.4-2.8-1.3-5.6-2.6-8.1c-1.3-2.6-3.1-5.1-4.6-7.6c0-0.1-0.1-0.1-0.1-0.1c-0.8-0.6-1.6-1.2-2.3-1.8c-1.8-1.4-3.5-2.8-4.9-4.5
		c-0.3-0.3-0.6-0.6-1.1-1.1c0.1,0.5,0.1,0.8,0.1,1c0.1,0.9,0.1,1.8,0.3,2.7c0.6,2.1,0.5,4.2,0.7,6.3c0.2,1.8-0.2,3.6-0.5,5.3
		c-0.4,2.9-1.3,5.7-2.4,8.5c-1.1,2.7-2.8,5.2-4.2,7.7c-1.8,3.1-3.9,5.9-6.3,8.5c-1.9,2-3.9,3.8-6,5.6
		C98,150.7,95.4,152.6,92.8,154.7z M112.4,89.3c0.1,0.7,0.4,1.4,0.5,2.2c0.3,2,0.5,4,0.7,6c0.1,1.2,0,2.3,0,3.5
		c0.2,2.7,0.2,5.3-0.5,7.9c-0.7,2.6-1.4,5.3-2.7,7.7c-1,2-2.1,4-3,6c-1,2.2-2.1,4.2-3.7,6c-1.4,1.6-3,3.2-4.3,4.9
		c-1.7,2.3-3.7,4.5-5.7,6.5c-1.2,1.2-2.5,2.3-3.8,3.3c-2.2,1.7-4.2,3.6-6.9,4.6c-1.9,0.7-3.7,1.5-5.5,2.3c-2.3,1-4.7,0.8-7,0.6
		c-0.5,0-1-0.2-1.6-0.3c0.5,0.4,0.8,0.7,1.2,1c1.2,1.3,2.5,2.5,3.7,3.8c0.9,1.1,1.9,1.8,3.3,2c0.9,0.1,1.8,0.2,2.7,0.4
		c2,0.5,4,0.3,5.8-0.7c0.3-0.2,0.6-0.4,0.9-0.5c2.1-1.2,4.2-2.2,6.2-3.5c1.3-0.8,2.4-1.9,3.6-3c1.5-1.3,2.9-2.7,4.4-4
		c1.4-1.3,2.9-2.6,4.3-4c2.5-2.4,4.8-5.1,6.5-8.2c0.9-1.6,1.9-3.1,2.8-4.6c1.3-2.2,2-4.6,2.8-7c0.6-1.7,0.9-3.5,1.3-5.2
		c0.5-2.1,0.4-4.2,0.1-6.4c-0.2-1.5-0.4-3-0.6-4.6c-0.1-0.9-0.2-1.8-0.4-2.7c-0.2-1.4-0.5-2.9-0.7-4.3c-0.1-1.1-0.2-2.1-0.3-3.2
		c-0.2-1.5-0.3-3-0.5-4.5c-0.1-1-0.2-2.1-0.3-3.1C114.5,88.7,113.5,89,112.4,89.3z M34.5,115.3c-0.1,0-0.1,0-0.2,0
		c-0.2,0.9-0.5,1.7-0.7,2.6c-0.4,1.6-0.8,3.1-0.9,4.8c-0.1,2.2,0.3,4.3,0.9,6.3c0.4,1.3,0.5,2.7,1.1,3.9c0.9,2.1,2.1,4,3,6
		c1.5,3.1,3.5,5.6,5.9,8.1c0.8,0.8,1.8,1.4,2.6,2.1c1.9,1.7,3.1,3.9,4.6,5.9c1.3,1.7,1.9,3.6,2.5,5.6c0.4,1.2,0.7,2.5,1,3.8
		c0.2,0.6,0.6,0.8,1.1,0.4c0.4-0.3,0.8-0.8,1.2-1.1c2.2-1.5,4.4-3.1,6.6-4.5c1.5-0.9,3.1-1.7,4.7-2.5c1.4-0.7,2.9-0.8,4.4-0.8
		c-0.1-0.1-0.1-0.2-0.1-0.3c-1.2-1.1-2.3-2.2-3.5-3.4c-1.4-1.4-3.3-1.9-4.6-3.6c-1-1.3-2.5-2.2-3.6-3.4c-1.7-1.8-3.7-3.2-5.6-4.8
		c-2-1.7-4.1-3.3-6-5.1c-2-1.9-3.8-3.9-5.6-5.9c-1.8-2-3.5-4.2-5.2-6.3c-0.4-0.5-0.9-0.9-1.1-1.5c-0.4-1-0.7-2-1.1-3
		C35.5,117.5,35,116.4,34.5,115.3z M112.2,79.3c0.1,0,0.2,0.1,0.2,0.1c0.2-0.2,0.4-0.4,0.4-0.7c0.2-0.7,0.4-1.5,0.7-2.2
		c0.3-0.8,0.8-1.5,1.2-2.3c0.4-1.1,1.1-2.1,2.1-2.8c0.2-0.1,0.3-0.3,0.3-0.5c0.2-1-0.3-1.7-1.1-2.3c-0.4-0.3-0.8-0.7-1.1-1.1
		c-0.1-0.2,0-0.6,0.2-0.8c0.1-0.1,0.6,0,0.8,0.1c0.6,0.5,1.3,1.1,1.8,1.7c0.7,0.7,0.8,1.5,0.7,2.4c-0.1,0.8-0.6,1.3-1.1,1.9
		c-1.6,1.7-2.6,3.9-3.2,6.2c-0.3,1-1.1,1.8-2.2,1.6c-0.8-0.1-1.3-1.1-1.2-2.1c0.2-1,0.4-1.9,0.5-2.9c0.4-2-0.4-4.1-2.1-5.2
		c-0.6-0.4-0.9-0.9-0.9-1.7c0-2,0.5-3.8,1.2-5.6c0.6-1.6,1.1-3.3,1.5-5c0.4-1.5,1.1-2.9,2.4-3.8c0.7-0.5,1.6-0.8,2.4-1.2
		c-0.4-0.3-0.9-0.7-1.4-1c-1.1-0.7-1.6-0.6-2.5,0.4c-1.8,2-2.8,4.4-3.4,7c-0.4,1.4-0.5,2.8-0.9,4.2c-0.4,1.9-1,3.7-1.2,5.7
		c-0.2,2.3-0.2,4.6,0.4,6.9c0.3,1.1,1,2,1.5,3.1c1.2,2.8,2.4,5.6,3.6,8.4c1.2,0.2,2.5-0.2,3.5-1c1.8-1.4,3-3.3,3.4-5.5
		c0.3-1.5,0.4-3.1,0.7-4.6c0.4-2.1,0.3-4.1,0.2-6.2c0-2.3-0.3-4.6-0.4-7c-0.1-1.3-0.1-2.6-0.1-4c0-0.4-0.1-0.9-0.2-1.3
		c-0.3-1.5-1.1-2.8-2.1-3.8c-0.6,0.1-1.1,0.1-1.6,0.3c-1.7,0.5-3,2.8-3.2,4.4c-0.1,1-0.2,2.1-0.8,3c-0.9,1.7-1.3,3.5-1.6,5.4
		c-0.1,0.7-0.3,1.5,0.6,1.9c1.5,0.8,2,2.3,2.3,3.8c0.3,1.6,0.3,3.3-0.3,4.9C112.3,78.6,112.3,79,112.2,79.3z M102.9,144.4
		C102.9,144.4,102.9,144.4,102.9,144.4c-0.5,0.6-1,1.1-1.6,1.6c0.1,0.1,0.2,0.2,0.3,0.3C102,145.6,102.4,145,102.9,144.4z"/>
	<path class="st0" d="M66.3,129.9c-3-0.1-5.6-1.2-7.6-3.6c-0.8-1-1.6-2-2.1-3.2c-0.8-1.8-2.3-2.7-4.1-3c-0.2,0-0.6-0.3-0.6-0.5
		c0-0.4,0.4-0.5,0.8-0.4c0.3,0.1,0.6,0.2,0.9,0.4c1,0.4,2,0.3,3,0.4c2.6,0.3,5.1-0.4,7.6-0.8c1.5-0.2,3.1-0.5,4.6-0.8
		c1-0.2,1.9-0.6,2.6-1.4c0.8-0.8,1.8-1.2,2.8-1.6c2.5-0.9,4.9-1.9,7.4-2.8c1.4-0.5,2.8-0.9,4.1-1.4c0.3-0.1,0.7-0.3,0.9-0.6
		c0.7-0.6,1.3-1.3,1.9-2c0.1-0.1,0.4-0.2,0.6-0.1c0.1,0.1,0.2,0.4,0.2,0.5c-1.3,2.4-1.9,5.2-3.5,7.5c-1.3,2-2.3,4.1-3.9,5.9
		c-2.1,2.4-4.6,4.3-7.5,5.6c-2.2,0.9-4.5,1.1-6.8,1.8C67.1,130,66.7,129.9,66.3,129.9z M87.1,112.3c-0.9,1-1.7,1.8-2.6,2.7
		c-0.7,0.7-1.4,1.5-2.1,2.2c-1.3,1.3-2.5,2.7-4.2,3.6c-1.8,0.9-3.6,1.8-5.4,2.7c-2.1,1-4.3,1.9-6.8,1.5c-0.4-0.1-0.9,0-1.3-0.1
		c-1-0.3-2-0.7-3-1.1c-1.3-0.5-2.6-1.1-3.9-1.6c-0.4-0.1-0.7-0.3-1.1-0.4c0,0.1-0.1,0.1-0.1,0.2c0.7,1.1,1.3,2.3,2.1,3.4
		c1.2,1.5,2.4,2.8,4.3,3.5c1.6,0.5,3.2,0.8,4.9,0.5c1-0.2,1.9-0.5,2.9-0.6c2.4-0.5,4.6-1.5,6.6-2.8c2.3-1.5,4.1-3.6,5.6-5.9
		c1.5-2.3,2.7-4.6,4-7C87.1,112.7,87,112.5,87.1,112.3z M59.8,121.2c-0.2,0.7,0,1,0.7,1.2c0.6,0.2,1.2,0.5,1.8,0.7
		c1.3,0.4,2.6,0.9,3.9,1c2.4,0.2,4.7-0.6,6.9-1.6c1.7-0.8,3.5-1.7,5.2-2.6c0.2-0.1,0.3-0.2,0.5-0.3c1.3-1.1,2.4-2.3,3.4-3.7
		c0.6-1,0.7-1.3-0.2-2.1c-0.6,0.3-1.2,0.5-1.7,0.8c-1.5,0.8-3.1,1.6-4.6,2.5c-1.4,0.8-2.6,1.9-4,2.7c-1.8,1-3.7,1.5-5.8,1.6
		C63.8,121.2,61.8,121.2,59.8,121.2z M76.5,115.5c-0.2-0.1-0.3-0.1-0.4-0.1c-1.1,0.5-2.3,1-3.3,1.5c-1.1,0.6-2.1,1.5-3.2,1.9
		c-2.5,0.9-5,1.2-7.6,1.4c-0.3,0-0.6,0.1-0.9,0.2c0,0.1,0,0.2,0,0.2c2.9,0.2,5.8,0.3,8.6-0.7C72.2,118.9,74.3,117.2,76.5,115.5z"/>
	<path class="st0" d="M82.1,68.6c2.4-0.3,4.5,0.4,6.7,1.3c0.2,0.1,0.4,0.2,0.5,0.3c0.1,0.3,0.4,0.8,0.2,1c-0.1,0.3-0.6,0.5-0.9,0.6
		c-0.6,0.1-1.2-0.1-1.8-0.1c-1.9,0.1-3.8,0-5.7,0.5c-1.5,0.4-3.2,0.4-4.7,0.8c-2.2,0.7-4.3,1.6-6.5,2.5c-1,0.4-1.9,0.8-2.9,1.2
		c-1.4,0.6-1.7-0.2-1.8-1.4c0-1.2,0.8-1.8,1.6-2.4c1.5-1,3.1-1.7,4.8-2.2c1.4-0.5,2.8-1.1,4.3-1.3C77.9,69,79.9,68.3,82.1,68.6z"/>
	<path class="st0" d="M67.8,82.1c0.5-0.6,1.1-1.3,1.6-1.9c0.8-0.9,1.5-1.8,2.4-2.5c0.5-0.5,1.3-0.7,1.9-1c0.3-0.2,0.7-0.2,1-0.4
		c2-1.1,4.1-1.5,6.4-1.2c1,0.1,2.1,0,3.1,0.3c0.7,0.2,1.3,0.6,1.9,1.1c0.4,0.3,0.2,0.9-0.2,1c-2.2,0.5-3.9,2.1-5.9,3
		c-1.8,0.8-3.6,1.2-5.5,1.3c-1.2,0-2.5,0.1-3.7,0.2c-0.5,0.1-1.1,0.4-1.6,0.6C68.6,82.9,68.2,82.7,67.8,82.1z M75.7,81
		c-1.5-0.9-1.9-1.7-1.8-3.2c-1.9,0.3-2.5,2-3.7,3c0,0.1,0,0.1,0.1,0.2C72,81,73.8,81,75.7,81z M80.9,79.1c1.2-0.7,2.3-1.3,3.3-2
		c0.3-0.2,0.4-0.6,0-0.7c-0.4-0.2-0.9-0.2-1.4-0.3c-0.8-0.1-1.5-0.1-2.3-0.2c0,0-0.1,0.1-0.1,0.1C81.5,76.9,81.1,77.9,80.9,79.1z
		 M77.2,78.4c0.5,0.1,0.8-0.3,0.8-0.8c0-0.4-0.2-0.7-0.7-0.7c-0.5,0-0.8,0.3-0.8,0.8C76.4,78.3,76.7,78.4,77.2,78.4z"/>
	<path class="st0" d="M40,90.5c-1.4-0.2-2.7-0.5-4.1-0.7c-0.3,0-0.5,0.1-0.8,0.1c-0.2,0-0.5,0.2-0.6,0.1c-0.1-0.1-0.2-0.4-0.2-0.6
		c0.6-1,0.9-2.3,2.1-2.8c2.3-1,4.6-2.1,7.2-2.2c2-0.1,4.1-0.1,5.9,1.1c0.8,0.6,0.8,1-0.1,1.5c-1.1,0.6-2.3,1.2-3.4,1.8
		c-1.9,1-3.8,1.6-6,1.5C40,90.4,40,90.5,40,90.5z M35.9,88.9c1.4,0.7,2.9,0.6,4.3,0.7c-1.2-0.7-1.2-1.9-1.1-3.2
		C37.8,87,36.7,87.7,35.9,88.9z M45.5,85.4c0.1,0.9,0.2,1.7,0.3,2.5c1-0.5,1.8-0.9,2.6-1.3c0.2-0.1,0.3-0.4,0.3-0.5
		c-0.1-0.2-0.3-0.4-0.5-0.4C47.4,85.5,46.5,85.5,45.5,85.4z M42.5,87.6c0.6,0.1,0.8-0.4,0.9-0.8c0-0.2-0.5-0.7-0.7-0.6
		c-0.3,0.1-0.7,0.5-0.8,0.8C41.8,87.2,42,87.6,42.5,87.6z"/>
	<path class="st0" d="M55.6,111c1.2-0.2,2.4,0.4,3.5,1.1c0.3,0.2,0.5,0.4,0.8,0.6c1,0.7,2.2,0.9,3.4,0.6c0.6-0.1,1.3-0.6,1.8-1
		c0.9-1,1.7-2.1,2.6-3.1c0.5-0.5,1-1,1.7-1.3c1.2-0.7,2.6-1.1,3.8-1.8c0.7-0.4,1.3-1,1.9-1.6c0.3-0.3,0.4-0.8,0.5-1.2
		c0.5-2.2-0.3-3.7-2.4-4.4c-0.7-0.2-1.4-0.3-2.2-0.5c-0.2-0.1-0.3-0.2-0.5-0.4c0.2-0.2,0.4-0.4,0.5-0.5c2-0.2,4.5,1.1,5.4,3.1
		c0.6,1.4-0.1,4.2-1.3,5.2c-1.3,1.1-2.7,1.8-4.3,2.4c-1.2,0.4-2.2,1-3,2.2c-0.9,1.5-2.2,2.8-3.9,3.6c-0.2,0.1-0.4,0.2-0.5,0.2
		c-1.8,0.2-3.4-0.2-4.8-1.3c-0.9-0.7-1.9-1.1-3.1-1.1c-0.6,0-1.3,0-2-0.1c-1.6-0.2-2.9-2-2.8-3.4c0-1.6,0.1-3.1,1.1-4.3
		c0.1-0.2,0.4-0.2,0.6-0.3c0,0.2,0.1,0.6,0,0.7c-1,1.4-1.1,2.9-0.8,4.5c0.2,1.1,1.2,2,2.7,2.1C54.7,111,55.1,111,55.6,111z"/>
</g>
</svg>
