<?xml version="1.0" encoding="utf-8"?>
<!-- Generator: Adobe Illustrator 19.2.1, SVG Export Plug-In . SVG Version: 6.00 Build 0)  -->
<svg version="1.1" id="Layer_1" xmlns="http://www.w3.org/2000/svg" xmlns:xlink="http://www.w3.org/1999/xlink" x="0px" y="0px"
	 viewBox="0 0 176 300" style="enable-background:new 0 0 176 300;" xml:space="preserve">
<style type="text/css">
	.st0{fill:#03A9F4;}
</style>
<g id="pharm-john">
	<path class="st0" d="M137.3,146.5h-31.5c-0.6,0-1.5-0.1-1.8,0.2c-0.3,0.5-0.1,1.3-0.1,2v0.1c0.5,0.1,1.1,0.1,1.6,0.2v0
		c0.4-0.1,0.8-0.2,1.2-0.2h31.1v0.2c0.4,0,0.7,0,1.1-0.1v-0.7C138.9,146.7,138.7,146.5,137.3,146.5z"/>
	<path class="st0" d="M174.7,189.9c-0.6-1.3-0.9-2.7-0.3-4.2c1-2.5,0.9-5.1,0.6-7.7c-0.2-1.8-0.4-3.6-0.5-5.4c0-1.3-0.4-2.5-0.9-3.7
		c-0.3-0.8-0.5-1.6-0.7-2.4c0-0.1-0.1-0.3-0.2-0.5c-0.3-0.4-0.6-0.8-0.8-1.2c-0.3-0.6-0.5-1.3-0.8-1.9c-0.5-1-1.1-2-1.5-3.1
		c-1.5-3.6-2.8-7.3-4.3-11c-0.6-1.4-1.3-2.6-1.9-3.9c-0.6-1.4-1.1-2.7-1.6-4.1c-0.7-2.1-1.6-4.1-2.1-6.2c-0.6-2.9-0.9-5.9-1.4-8.8
		c-0.5-2.5-0.9-4.9-1.5-7.4c-0.5-2.5-1.1-5-1.9-7.5c-0.9-2.9-2.5-5.5-4.3-7.9c-1.4-1.9-2.9-3.6-4.8-4.8c-3.5-2.3-7-4.4-10.7-6.3
		c-3.4-1.7-6.6-3.9-10.3-4.9c-1.7-0.4-3.3-1.4-4.9-2.2c-0.4-0.2-0.9-0.4-1.3-0.7c-3.5-3.3-7.1-6.6-10.6-9.9
		c-0.9-0.8-1.7-1.6-2.5-2.4c-1-1-2.1-1.9-3.1-2.9c-0.6-0.7-1.4-1.6-1.5-2.5c-0.2-1.9-0.1-3.9,0.1-5.8c0.2-2.1,0.6-4.1,0.9-6.2
		c0.1-0.5,0.3-0.5,0.7-0.6c2.8-0.6,4-1.4,4.6-4.1c0.3-1.4,0.3-2.8,0.4-4.2c0.1-2.2,0.4-4.3,0.4-6.5c0-1.3-0.1-2.7-0.9-3.8
		c-0.9-1.2-1.6-2.5-3.4-2c0.1-0.8,0.2-1.6,0.2-2.4l-0.6-9c-0.1-1.8-0.2-3.6-0.7-5.3s-1.2-3.3-2-4.8C99.5,9.4,98,7.5,96,5.9
		c-1.6-1.3-3.4-2.6-5.2-3.7c-1.2-0.7-2.5-1.5-3.8-1.7c-2.5-0.4-5-0.6-7.5-0.5c-2.8,0.2-5.6,0.6-8.4,1.1c-3.7,0.7-7.2,2.2-10.3,4.4
		c-0.2,0.1-0.4,0.2-0.5,0.4c-1.5,2.2-3.7,4-4.7,6.6c-0.5,1.3-1.4,2.5-1.7,3.9c-0.4,1.7-0.5,3.5-0.7,5.3c-0.1,1.5-0.2,3-0.2,4.5
		c0,1.9-0.1,3.8,0.2,5.6c0.4,2.3,1.1,4.5,1.7,6.8c-1.2-0.1-1.9,0.7-2.1,1.7c-0.2,1.3-0.4,2.8-0.1,4c1.1,3.8,2.4,7.5,3.7,11.2
		c0.5,1.3,1.3,2.2,2.8,2.3c2,0,2,0,2.5,1.9c1.1,3.8,1.6,7.7,2.1,11.6c0,0.5-0.2,1-0.4,1.5c-0.3,0.5-0.8,1-1.1,1.5
		c-1.3,1.9-2.4,3.8-3.8,5.6c-1.3,1.6-2.8,3.1-4.3,4.5c-1.5,1.3-3,2.6-4.6,3.7c-2.4,1.6-4.9,3-7.3,4.6c-2,1.4-3.8,3-5.8,4.4
		c-3.1,2-6.2,4-9.3,5.9c-3.1,1.9-6.2,3.8-9.3,5.7c-0.8,0.6-1.7,1.2-2.3,2c-1.3,1.6-2,3.4-2.3,5.5c-0.3,1.9-0.8,3.8-1.1,5.7
		c-0.3,1.8-0.6,3.7-0.6,5.5c0.1,2.6-0.1,5.2-0.6,7.8c-0.5,3.2-1.2,6.4-2,9.5c-0.8,3-1.8,5.9-2.7,8.9c-0.6,1.7-0.9,3.5-1.5,5.3
		c-0.6,2.2-1.4,4.3-2.2,6.4c-1.2,2.9-1.7,6-2.4,9.1c-0.5,2.4-0.3,4.6,0.3,6.9c0.4,1.5,0.6,3.2,0.6,4.8c0.1,4.8,0.1,9.6,0.2,14.4
		c0,0.9-0.1,1.8,0.2,2.7c0.5,1.7,1.1,3.3,1.8,4.9c1.2,2.7,2.6,5.4,4.9,7.5c0.5,0.5,1.1,1.1,1.6,1.7c2.8,3.3,5.9,6.2,9.4,8.7
		c2.7,1.8,5.4,3.5,8.2,5.2c1.2,0.8,2.5,1.2,4,1c0,0.6-0.1,1.3-0.1,1.9c0.1,3.8,0.3,7.5,0.3,11.2c0,6.5,0.2,13-0.4,19.5
		c-0.5,5.2-0.4,10.6-0.6,15.9c0,1-0.1,2-0.1,3c0,2.4,0.1,4.8,0,7.2c-0.1,2.5-0.5,4.9-0.7,7.4v1.4H31c0.2-2.4,0.3-4.7,0.5-7.1
		c0.1,0,0.1,0,0.2,0v-0.3c0-0.4,0.1-0.9,0.2-1.2v-5.4c0.1-3.4,0.1-6.9,0.2-10.3c0.1-3,0.1-6.1,0.4-9.1c0.5-5.5,0.7-10.9,0.6-16.4
		c-0.1-5.5-0.2-10.9-0.3-16.4V233c0-1.4,0.1-1.6,1.5-1.5c2.3,0.1,4.5,0.4,6.7,0.6c0.9,0.1,1.7,0.2,2.6,0.2h8.6
		c0.6,0,1.2,0.1,1.9,0.2c0,0,0,0,0,0c0.3,0,0.6,0,0.9-0.1c0.1,0,0.1,0,0.2,0V232c0-0.8-0.2-1.1-1-1.2c-1.2-0.1-2.4-0.2-3.6-0.2
		c-4.7,0.1-9.4,0.1-14.1-0.7c-0.8-0.1-1.6-0.1-2.6-0.2c0.2-0.3,0.4-0.6,0.6-0.9c0.6-0.9,1.4-1.8,1.8-2.9c1.2-3.5,2.5-7,3.5-10.5
		c0.7-2.3,1.1-4.7,1.4-7.1c0.3-1.8,0.3-3.4,1.5-5c1.4-1.9,1.7-4.2,1.8-6.4c0.1-2.4-0.1-4.8,0-7.2c0-1.7,0.2-3.5,1.3-5
		c2-2.7,3-5.5,2.5-8.9c-0.3-2.2-1.6-3.4-3.3-4.2c-1.5-0.7-3.7,0.4-4.5,2.1c-1.2,2.4-1.8,5-2,7.7c-0.1,1.3-0.2,2.5-1.6,3
		c0.1-1.3,0.3-2.6,0.2-3.9c0-1.5-0.3-3-0.5-4.5c-0.3-2.1-0.7-4.1-1.1-6.2c-0.9-4-2.1-8-3.6-11.8c-0.7-1.8-1.5-3.7-2.2-5.6
		c-0.7-2.1-1.4-4.3-2-6.5c-0.2-0.9-0.4-1.7-0.5-2.6c-0.1-0.5-0.1-1-0.7-0.9c-0.2,0-0.5,0.6-0.6,0.9c-0.3,1.5,0.3,2.8,0.8,4.1
		c0.8,2.5,1.3,5.2,2.4,7.6c2.3,5.4,4.1,10.9,5.3,16.6c0.4,2.3,0.8,4.7,1.1,7.1c0.3,2,0.1,4-0.5,6c-0.2,0.5-0.1,1-0.2,1.5
		c-0.1,0.3-0.2,0.6-0.4,0.7c-0.9,0.5-1.4,0.2-2.4-0.4c-1.4-0.9-2.2-2.2-3.1-3.5c-0.5-0.7-1-1.3-1.6-1.9c-0.7-0.8-1.5-1.5-2.4-2.1
		c-1-0.6-2-1.3-3-1.8c-1-0.4-2-0.8-3.1-1.1c-0.7-0.2-1.5-0.3-2.3-0.3c-0.1,0-0.5,0.4-0.5,0.6c0.1,0.2,0.4,0.5,0.6,0.6
		c1.1,0.3,2.3,0.6,3.5,0.9c2.8,0.6,4.6,2.8,6.7,4.6c-2.7,1-3.8,4-2.9,7.6c-2.3,0.3-1.7,0.2-3.2,1.2c-2.3,1.6-2.6,4.9-0.5,6.6
		c0.6,0.5,1,1.2,1.6,1.8c-1.3,0.1-2.4,0.2-3.6,0.3c-1.4,0.2-2.7,0.6-3.6,1.6c-2.1,2.2-1.5,4.1,1,5.1c0.7,0.2,1.3,0.3,2,0.4
		c1,0.2,2,0.3,3,0.4c0,0,0,0.1,0,0.2c-0.4,0.2-0.8,0.3-1.2,0.5c-0.9,0.4-1.8,0.7-2.6,1.2c-1.7,1.1-2.1,2.4-1.6,4
		c0.4,1.4,1.6,2.1,3,2.4c0.6,0.1,0.7,0.4,0.9,0.8c1.7,3.6,2.9,7.5,5.1,10.8c0.1,0.2,0.1,0.3,0.2,0.4c-0.7-0.3-1.2-0.7-1.8-1
		c-2.9-1.7-5.4-3.8-7.8-6.2c-1.6-1.6-3-3.4-4.7-4.9c-2.7-2.3-4.2-5.4-5.6-8.6c-0.2-0.4-0.2-0.9-0.4-1.3c-0.1-0.3-0.2-0.5-0.4-0.8
		c-0.2-0.4-0.5-0.6-0.6-1c-0.1-0.8-0.3-1.5-0.3-2.3v-14.8c0-0.2,0.1-0.5,0.2-0.6c0.6-0.5,1.2-1,1.8-1.5c2.1-1.6,4.3-2.3,6.9-1.8
		c0.3,0,0.7-0.3,1.1-0.5c-0.2-0.3-0.4-0.7-0.7-0.8c-2.8-0.6-5.3,0.1-7.6,1.7c-0.5,0.3-1.1,0.8-1.7,1.3c-0.1-0.7-0.2-1.2-0.3-1.8
		c-0.3-1.6-0.7-3.2-0.8-4.8c-0.2-2.7,0.5-5.3,1.2-7.8c0.5-2.1,1.4-4.2,2.1-6.3c1.3-3.9,2.4-7.7,3.6-11.6c1.7-5.6,3.1-11.4,4.1-17.2
		c0.6-3.6,0.7-7.2,1-10.8c0.1-1.2,0.2-2.3,0.4-3.5c0.3-1.4,0.7-2.8,0.9-4.2c0.2-2.1,1-4,2.5-5.5c0.9-0.9,2.1-1.4,3.2-2.1
		c3.9-2.5,7.8-5,11.7-7.4c3.3-2.1,6.6-4.3,9.7-6.7c2.6-2.1,5.5-3.7,8.3-5.5c0.1,0.1,0.1,0.1,0.2,0.2c-0.3,1-0.6,2-1,3
		c-1.1,2.6-2.2,5.2-3.2,7.8c-0.4,1-0.1,1.2,0.9,1.5c1.9,0.4,3.7,1,5.8,1.6c-2,1.7-3.8,3.2-5.6,4.7c-1.1,0.9-1.3,1.8-0.4,2.9
		c1.7,2,3.4,4,5.1,6c1.5,1.6,3,3.2,4.5,4.8c1.1,1.2,2.2,2.3,3.3,3.5c1.2,1.3,2.4,2.7,3.7,4.1c0.9,1,1.9,1.9,2.9,2.9
		c0.8,0.9,1.7,1.7,2.5,2.6c1.3,1.4,2.7,2.7,4,4.2c1.1,1.3,2.1,2.6,3.2,3.9c2.2,2.5,4.4,4.9,6.5,7.4c0.2,0.2,0.3,0.6,0.3,0.9
		c-0.1,0.9-0.3,1.8-0.4,2.7c-0.4,2.9-0.7,5.9-1,8.9c-0.2,2.2-0.3,4.3-0.4,6.5c-0.3,4.1-0.8,8.3-0.8,12.4c0,5.7-0.3,11.3-0.5,17
		c-0.2,4.8-0.1,9.6-0.2,14.4v0.5c-0.2,2.6-0.4,5.1-0.5,7.7c-0.1,3.7,0,7.5,0,11.2c0,1.5,0.1,3.1,0.2,4.6c0.2,2.9,0.4,5.7,0.5,8.6
		c0,1.8-0.3,3.6-0.3,5.4c-0.1,3.6-0.1,7.2,0,10.8c0,2.1,0.5,4.2,0.8,6.2c0.4,2.5,1.1,5,1.4,7.5c0.3,2.6-0.3,5.2-0.6,7.8
		c-0.2,1.8-0.5,3.7-0.6,5.5c-0.1,3.1,0,6.3,0,9.4c0,0.5,0.1,0.9,0.2,1.3c0.5-0.1,0.8-0.1,1.1-0.1v-6.5c0-3.6,0.2-7.1,0.8-10.6
		c0.2-1.5,0.6-3,0.5-4.5c-0.1-2.1-0.5-4.3-0.8-6.5c-0.3-1.7-0.7-3.3-1-5c-0.2-1.5-0.3-3-0.5-4.5c-0.1-0.5-0.2-0.9-0.2-1.4
		c0.1-4.1,0.3-8.2,0.3-12.3c-0.1-4.1-0.4-8.1-0.5-12.2c-0.1-3.4,0.1-6.8,0.1-10.2c0-2.3-0.1-4.5,0-6.8c0-3.8,0.2-7.5,0.3-11.3
		c0.1-3.8,0.1-7.7,0.2-11.5v-1.2c0.2-4.3,0.5-8.5,0.7-12.8c0.1-1.3,0.1-2.7,0.2-4.1c0.3-5.5,0.6-11,0.9-16.5c0-1.1,0.2-2.1,0.3-3.1
		l0.6-4.5c0.3-2,0.5-4.1,1.9-5.7c1.1-1.3,2.3-2.5,3.4-3.8c1.9-2.3,3.8-4.6,6.2-6.6c2.2-1.8,4-3.9,6-5.9c2.1-2.1,4.2-4.3,6.3-6.5
		c0.7-0.8,1.4-1.8,2.2-2.6c1.7-1.8,3.3-3.7,5-5.4c1.6-1.6,3.5-3.1,5.1-4.7c1.5-1.5,2.9-3.2,4.3-4.8c0.3-0.4,0.3-0.8-0.1-1.1
		c-0.2-0.2-0.5-0.3-0.8-0.5c-1.9-1.2-3.8-2.4-5.9-3.7c0.4-0.2,0.5-0.3,0.6-0.3c3.4-0.8,6.8-1.7,9.9-3.4c0.9-0.5,1-0.8,0.5-1.7
		c-1.5-3.1-4.1-5.3-6.1-7.9c-1-1.3-2.1-2.5-3.2-3.7c0,0,0.1-0.1-0.3-1c1.3,0.6,2.5,1.2,3.8,1.8c0.7,0.3,1.4,0.6,2.1,0.9
		c0.5,0.2,1.1,0.2,1.5,0.4c3.3,1.7,6.5,3.4,9.8,5.2c1.8,1,3.7,1.9,5.4,3.1c1.7,1.1,3.6,2,4.9,3.9c0.6,1,1.8,1.7,2.6,2.6
		c0.7,0.7,1.3,1.4,1.8,2.2c2.2,3.5,3.4,7.4,4.2,11.4c0.7,3.7,1.4,7.3,2.1,10.9c0.3,1.6,0.5,3.3,0.8,5c0.3,1.6,0.6,3.3,1.2,4.9
		c2,5.2,4.2,10.3,6.3,15.5c1.8,4.6,3.7,9.2,5.7,13.7c1,2.3,1.9,4.4,2.1,7c0.2,2.9,0.4,5.8,0.4,8.7c0,0.7-0.3,1.4-0.5,2.4
		c-2-3-4.8-4.2-8-4.9c2.1-0.1,3.9-0.7,5.2-2.3c0.2-0.2,0.6-0.1,0.8-0.3c0.3-0.3,0.6-0.7,0.8-1.1c0-0.1-0.2-0.6-0.3-0.6
		c-0.4,0.1-0.8,0.2-1.1,0.4c-0.4,0.3-0.8,0.7-1.1,1.1c-0.9,1-2,1.6-3.3,1.7c-0.7,0.1-1.3,0.1-1.9,0.2c-1.8,0.1-3.7,0.6-5.4-0.4
		c-0.2-0.1-0.4-0.1-0.6-0.2c-1.6-0.5-3.3-0.7-5-0.5c-0.7,0.1-1.1,0.5-1,1.1c0.1,0.3,0.8,0.8,1.1,0.7c1.4-0.3,2.8,0,4.2,0.4
		c1.9,0.5,3.7,1.2,5.8,1.2c2.4,0,4.8,0.8,6.8,2.4c1,0.8,1.7,1.9,2.5,2.9c0.1,0.1,0,0.3,0,0.4c-0.1,1.3,0.4,2.5,0.9,3.7
		c0.3,0.7,0.5,1.5,0.6,2.3c0.3,1.7-0.5,3.3-0.6,5c-0.1,1.8-1.4,2.9-2.1,4.5c-0.2-0.4-0.2-0.5-0.3-0.7c-0.8-2.3-1.3-4.8-2.9-6.9
		c-0.1-0.1-0.2-0.3-0.2-0.5c0-0.5-0.1-0.9-0.7-0.9c-0.7,0-0.7,0.6-0.7,1.1c0,0.2,0.1,0.5,0.2,0.7c1.2,1.7,1.7,3.7,2.5,5.6
		c1.2,3.1,0.9,6.2,0,9.3c-0.3,1.2-1.1,2.3-1.6,3.5c-1.2,2.9-2.5,5.7-3.7,8.6c0,0.1-0.1,0.1-0.1,0.1c-0.2-1.7-0.2-3.5-0.6-5.2
		c-0.5-2.1-1-4.2,0.2-6.2c0.1-0.1,0.2-0.3,0.2-0.5c0.2-0.9,0.3-1.8,1.1-2.4c0-0.1,0.1-0.2,0.1-0.3c0.1-0.6,0.1-1.2,0.3-1.7
		c0.4-1.3,0.4-2.5-0.2-3.7c-0.5-0.9-0.6-1.8-0.6-2.8c0-1.2-0.2-2.6-1.2-3.4c-1.7-1.4-1.9-3.2-2-5.2c0-0.5-0.2-1.2-0.6-1.5
		c-0.7-0.5-1.6-0.8-2.4-1.1c-0.9-0.2-2.1-0.1-2.8-0.9c-0.4-0.4-0.7-1-1-1.6c-0.5-0.9-1.3-1.5-2.4-1.5c-0.2,0-0.4,0-0.6-0.1
		c-0.5-0.3-1.1-0.5-1.8-0.9c0-0.8,0.1-1.9,0-2.9c-0.3-2.7-0.3-5.4,1.2-7.8c0.1-0.2,0.1-0.6,0-0.8c-0.3-0.5-0.8-0.9-1.3-1.3
		c-0.2-0.1-0.6-0.2-0.8-0.1c-0.1,0.1-0.2,0.5-0.2,0.8c-0.1,0.6-0.1,1.2-0.1,1.8c-0.1,0.5-0.4,0.6-0.9,0.6c-1,0.1-2,0.2-3,0.4
		c-0.6,0.1-1.3,0.4-1.9,0.5c-1.4,0.2-1.7,0.5-1.7,2v0.5c-0.5,2.5-0.9,5.1-0.7,7.7c0,0.3-0.2,0.6-0.4,0.8c-0.2,0.3-0.6,0.5-1,0.8
		c0-0.4-0.1-0.6-0.1-0.9c0.3-3-0.3-6.1,0.4-9.2c0.3-1.3,0.1-2.7,0.2-4.1c0.1-1.1,0.2-2.2,0.6-3.2c1.2-3,2.5-5.8,3.6-8.8
		c1.2-3.3,2.3-6.6,2.8-10.2c0.3-2.2,0.1-4.3,0.1-6.4c0-0.5-0.2-0.9-0.8-0.8c-0.6,0.1-0.6,0.5-0.5,1c0,0.2,0.1,0.4,0.1,0.6
		c0.2,3.1,0,6.2-0.9,9.1c-1.1,3.7-2.5,7.3-3.8,10.9c-0.4,1.1-0.9,2.2-1.4,3.3c-0.1,0-0.1-0.1-0.2-0.2c-0.1,0.1-0.1,0.2-0.2,0.3
		c0,0.3-0.1,0.6-0.1,0.9c-0.1,0.7-0.4,1.2-0.8,1.6v16.8c0,1.1-0.1,2.1-0.2,3.1c0,0.7-0.3,1.1-1,1.4c-2,0.8-3.2,2.3-3.9,4.2
		c-0.2,0.4-0.3,0.5-0.5,0.6c0,0.3-0.1,0.5-0.2,0.8c0.2,0.8,0.3,1.6,0.5,2.4c0.6,1.9,1.3,3.9,2,5.8c0.3,1,0.7,1.8,1.6,2.4
		c0.2,0.1,0.3,0.5,0.3,0.8c0.1,1.7,0.1,3.3,0.2,4.9c0.1,1.7,0.2,3.3,0.7,4.9c0.9,3,2.9,5.2,5,7.3c0.7,0.7,1.4,1.4,1.9,2h-5.2
		c-3.7,0-7.4,0.1-11.1,0.1c-1.6,0-3.2,0.1-4.8,0.1c-1.3,0-2.7,0.2-4.1,0.1c-1.4,0-1.8,0.3-1.8,1.6c0,0.1,0,0.2,0,0.4
		c0.6,0,1.1,0.1,1.7,0.2v-0.1c1.6-0.1,3-0.2,4.5-0.4c5.6-0.1,11.2-0.2,16.8-0.2c1.8,0,3.7,0.3,5.5,0.5c0.2,0.1,0.5,0.1,0.7,0
		c0.8-0.2,1.4,0.3,1.4,1.1c0.1,3,0.2,6.1,0.3,9.1c0,1-0.2,2-0.2,3c0,2.6,0,5.2,0.1,7.8v0.9c0,2.9-0.1,5.8,0,8.7
		c0.1,3.1,0.4,6.2,0.7,9.3c0.2,3,0.5,6,0.9,8.9c0.5,3.3,0.8,6.6,0.7,9.9c0,0.5,0.1,1.2-0.2,1.5c0,0,0,0,0,0v0.4c0,0,0,0,0,0.1
		c0,0.7-0.1,1.5-0.3,2.2c-0.1,0.2-0.1,0.4-0.2,0.6c-0.2,2.1-0.2,4.3-0.3,6.4h1.5c0-1.7-0.1-3.3,0-4.9c0.2-2.4,0.5-4.7,0.6-7
		c0.2-4.3-0.5-8.5-1-12.7c-0.3-2.9-0.8-5.7-1-8.6c-0.3-4.1-0.3-8.2-0.4-12.3c0-4,0.1-8.1,0-12.1c0-3.3-0.2-6.6-0.3-9.9v-1.3
		c0.2,0,0.3,0,0.3,0c0.3,0.1,0.6,0.3,0.9,0.4c2.3,1.2,4.7,1.5,7.1,0.6c1.7-0.6,3.2-1.6,4.9-2.3c1.3-0.5,2.1-1.6,2.6-2.9
		c0.2-0.5,0.4-1.1,0.6-1.6c1.3-4.1,3.1-8,5.1-11.8c1.1-2.1,1.6-4.3,1.9-6.5c0.3-2.1,1.1-3.8,2.3-5.5c0.3-0.4,0.5-1,0.6-1.5
		c0.2-1,0.3-1.9,0.5-2.8C175.9,194.5,175.8,192.2,174.7,189.9z M105.5,51c-0.7,1.1-1.9,1.3-3.1,1.5c-0.2,0-0.7-0.4-0.8-0.7
		c-0.2-0.7-0.2-1.5-0.2-2.3c0-0.1,0.5-0.4,0.8-0.4c1.6-0.1,2.4-0.7,2.6-2.4c0.1-1,0.8-1.6,1.8-2.1C106.4,46.9,106.7,49.2,105.5,51z
		 M103.2,35.8c0-0.1,0.1-0.1,0.2-0.2c1.5-1.4,1.9-1.4,2.9,0.4c0.4,0.9,0.5,1.9,0.8,2.8c-0.1,0-0.2,0.1-0.3,0.1
		c-0.2-0.5-0.4-1-0.6-1.5c-0.4-1-1.4-1.2-2.2-0.5c-0.5,0.5-1,1.1-1.7,1.8C102.2,37.4,102.6,36.6,103.2,35.8z M101.1,42.8
		c0-0.9,0.1-1.9,0.1-2.8c0-0.5,0.2-0.8,0.7-0.7c0.9,0.1,1.4-0.3,1.8-0.9c0.2-0.2,0.3-0.3,0.5-0.5c0.8-0.9,1.1-0.8,1.4,0.3
		c0.3,1.1,0.6,2.2,0.9,3.3c0.3,1.2,0,2-1,2.7c-0.9,0.6-1.5,1.4-1.6,2.5c-0.1,1.2-0.7,1.6-2.1,1.5c0.5-0.9,0.9-1.7,1.3-2.6
		c0.7-1.2,0.4-2.5,0.2-3.8c0-0.2-0.3-0.4-0.4-0.4c-0.2,0-0.4,0.2-0.5,0.4c-0.1,0.3,0,0.5,0,0.8c0.3,1.7,0,2.8-1.3,4.3V42.8z
		 M17.2,213.9c-1.1-0.9-1.2-2.1-0.2-3c1.3-1.2,3.1-1.5,4.7-2c0.6-0.2,1.2-0.2,1.8-0.4c0.3,0,0.6-0.4,0.6-0.6c0-0.2-0.2-0.6-0.4-0.7
		c-1.1-0.4-2.3-0.8-3.5-1.1c-1.3-0.3-2.6-0.4-3.9-0.7c-0.6-0.2-1.5-0.8-1.5-1.2c0-0.7,0.5-1.5,1-1.9c1.8-1.2,3.9-1.5,6-1
		c0.9,0.2,1.7,0.4,2.6,0.5c0.2,0.1,0.6-0.2,0.7-0.4c0.1-0.2,0-0.7-0.2-0.8c-1.4-0.5-2-1.8-2.9-2.7c-0.4-0.4-0.8-0.8-1.2-1.2
		c-0.9-0.9-1.1-2.4-0.3-3.3c0.7-0.7,1.5-1.3,2.3-1.8c0.7-0.4,1.5-0.1,2.1,0.4c0.7,0.5,1.2,1.1,1.8,1.7c0.2,0.2,0.3,0.5,0.5,0.6
		c0.3,0.1,0.7,0.1,1,0.2c0-0.4,0.3-0.9,0.1-1.1c-0.5-0.7-1-1.4-1.6-1.9c-1.3-1.2-2.1-2.6-1.9-4.4c0.1-1.2,0.8-2.2,1.7-2.9
		c0.5-0.4,1.4-0.2,1.8,0.4c0.9,1.1,1.8,2.3,2.8,3.4c0.2,0.2,0.5,0.3,0.7,0.4c1.8,0.6,4.1-0.3,5.1-1.9c0.3-0.4,0.6-0.8,1-1.1
		c1.2-0.9,1.7-2,1.8-3.4c0.2-2.6,0.7-5.1,1.9-7.5c0.3-0.5,0.8-1.1,1.3-1.4c0.7-0.5,1.4-0.5,2.1,0c2,1.4,2.6,3.8,2,6
		c-0.5,2-1.4,3.7-2.5,5.4c-0.9,1.3-1.2,2.8-1.2,4.4c0,3,0,5.9-0.2,8.8c-0.1,1.9-0.5,3.9-1.8,5.5c-1,1.2-2.1,2.3-3.3,3.3
		c-1.1,0.9-1.7,1.9-2.3,3.1c-0.3,0.7-0.7,1.4-1.1,2c-0.4,0.8-1,1.5-1.5,2.2c-1.3,1.8-3,2.9-5.2,3.2c-0.6,0.1-1.1,0.2-1.6,0.3
		c-0.9-0.2-1.7-0.3-2.4-0.6c-0.4-0.1-0.8-0.3-1-0.6c-0.8-1-1.6-1.6-2.9-1.6C19,214.5,18,214.6,17.2,213.9z M21.8,219.6
		c-0.3-0.7-0.7-1.5-0.9-2c1.3,0.8,2.6,1.9,4,2.7c2.4,1.4,5,1.9,7.7,1.6c1.4-0.2,2.7-1.2,4-1.8c0.2-0.1,0.3-0.2,0.7-0.4
		c-0.2,0.7-0.4,1.2-0.6,1.7c-1,2.9-2.2,5.6-4.1,8c-0.4,0.5-0.9,1.2-1.4,1.4c-0.5,0.2-1.2,0.2-1.7-0.1c-1.7-1-3.1-2.3-4.3-4
		C23.7,224.5,22.9,222,21.8,219.6z M101.1,72.3c0.6,2.6,0.3,5-1.5,7.1c-1.8,2.2-3.6,4.5-5.3,6.7c-1,1.3-1.8,2.6-2.9,3.8
		c-1.6,1.8-3.3,3.4-5,5.1c-0.1,0.1-0.3,0.2-0.4,0.2c-2.2,0.2-4.4,0.3-6.2-1.6C76.3,90,72.9,86.5,69.3,83c-1.6-1.6-2.7-3.4-3.6-5.4
		c-0.5-1.1-0.5-2.5-0.6-3.8c-0.1-1.8-0.2-3.5-0.3-5.3v-0.7c1.6,1.9,3,3.7,4.7,5.3c2.7,3,6,4.7,10.1,4.8c2.7,0.1,5.4-0.2,8-1
		c1.6-0.5,3.1-1.6,4.4-2.6c3.1-2.5,5.6-5.4,7.3-9c0,0,0.1-0.1,0.2-0.2C100,67.6,100.5,69.9,101.1,72.3z M58.9,45.8
		c0.5,1.7,1,3.3,1.5,5.1c-0.3-0.1-0.4-0.1-0.5-0.2c-2.5-1-2.7-1.5-1.5-3.8C58.6,46.6,58.7,46.2,58.9,45.8z M54.8,40.1
		c0.6-0.2,1.2-0.2,1.6,0.5c0.6,0.9,1.1,1.9,1.6,2.8c0.1,0.2,0,0.5,0.1,1c-0.5-0.3-0.9-0.5-1.1-0.7c-0.2-0.3-0.4-0.6-0.6-1
		c-0.5-0.9-1.1-1.5-2.3-1.4c0-0.1-0.1-0.2-0.1-0.3C54.3,40.7,54.6,40.2,54.8,40.1z M56.9,52.3c-1.5-3-3.1-8.5-2.8-10
		c0.9-0.3,1.2,0.2,1.6,0.6c0.3,0.5,0.5,0.9,0.8,1.3c0.4,0.4,0.9,0.7,1.5,1.1c-0.1,0.3-0.2,0.8-0.4,1.3c-0.1,0.3-0.3,0.7-0.5,1
		c-0.6,1.3-0.3,2.3,0.8,3C57.5,51.2,57.2,51.8,56.9,52.3z M60.5,56.5c-1.7,0.3-2.9-0.9-2.8-2.2v-1c0-1.3,1-1.8,2.1-1.1
		c0.2,0.1,0.4,0.1,0.6,0.2c0.2,1.2,0.4,2.3,0.7,3.2C61.2,56.2,61,56.4,60.5,56.5z M63.5,61.6c-0.4-1.9-0.5-3.9-1.3-5.6
		c-0.8-1.8-0.6-3.7-1.1-5.5c-0.3-1-0.6-2.1-0.9-3.1c-0.3-1.1-0.6-2.1-0.7-3.2c0-1.1,0.3-2.1,0.4-3.2c0.2-2,0.5-3.9,0.7-5.9
		c0.3-2.2-0.2-4.4-0.4-6.6c-0.2-2,0.1-4,0.4-5.9c0.1-0.7,0.8-1.4,1.3-2c0.3-0.4,0.6-0.6,0.8-1c0.5-1.1,1.4-1.3,2.5-1.4
		c3-0.3,6,0,8.9,0.7c3.5,0.9,6.7-0.2,9.9-1.6c1.9-0.8,3.6-1.8,5.5-2.4c2.3-0.8,3.8,0.1,4.7,2.3c0.6,1.4,1.3,2.8,1.8,4.3
		c0.3,0.8,0.6,1.8,0.6,2.7c-0.1,3.1,0.5,6,1.4,8.9c0.6,1.8,1.3,3.6,1.9,5.4c0.2,0.6,0.4,1.2,0.4,1.8v5.5c0,1.5,0,3,0.1,4.7
		c0,1-0.1,2.1,0.2,3.2c0.3,1.2-0.1,2.6-0.3,3.9c-0.4,2.5-0.8,4.9-2,7.2c-1.7,3.3-3.9,6-6.7,8.4c-1.5,1.3-3.1,2.6-5.1,3
		c-3.7,0.9-7.5,1.2-11.2,0.1c-0.6-0.2-1.2-0.6-1.7-0.9c-3.4-2-5.5-5.2-7.9-8.1C64.4,65.7,63.9,63.6,63.5,61.6z M61.6,78.8
		c0.4-1.4,1.2-2.6,1.8-3.8c0.1,0,0.1,0.1,0.2,0.1c0.3,1,0.3,2.1,0.8,3c1,1.9,2.1,3.7,3.4,5.3c1.3,1.6,3,3,4.5,4.5
		c2.6,2.5,5.2,5,7.8,7.5c-4,3.8-7.8,7.4-11.7,11.1c-0.5-1.2-1-2.1-1.2-3.2c-0.5-2.3-1.6-4.3-2.4-6.4c-1.1-3.3-2.3-6.6-3.1-10
		C61.1,84.3,60.8,81.5,61.6,78.8z M77.9,116.1c-0.8,2.3-1.6,4.6-2.4,7.1c-0.5-1-1.2-1.9-1.6-2.8c-1.4-3.3-2.8-6.6-4.2-9.9
		c-0.3-0.7-0.4-1.5-0.6-2.2c-0.1-0.2,0-0.6,0.2-0.8c1.4-1.4,2.8-2.7,4.4-4.2c0.7,1.1,1.4,1.9,1.8,2.9c0.9,2.2,1.7,4.5,2.5,6.7
		C78.4,114,78.3,115,77.9,116.1z M84.4,148.3c-0.3,0.3-0.5,0.7-0.8,1.2c-2.2-2.4-4.5-4.8-6.6-7.2c-1.9-2.1-3.7-4.3-5.6-6.4
		c-1.8-1.9-3.7-3.8-5.5-5.7c-2.9-3.1-5.9-6.1-8.8-9.2c-3.1-3.3-6-6.7-9-10c-0.4-0.5-0.4-0.9,0.1-1.3c1.5-1.3,3-2.7,4.6-4
		c0.5-0.4,1.2-0.5,1.7-0.9c1.4-1,2.4-2.5,3.6-3.8c0.1-0.2,0-0.7,0-1c-0.4,0-0.9,0-1.1,0.2c-0.8,0.7-1.4,1.6-2.2,2.3
		c-0.2,0.2-0.6,0.3-0.9,0.2c-1-0.2-1.9-0.5-2.9-0.8c-0.8-0.3-1.6-0.5-2.5-0.6c-0.9-0.1-1.1-0.5-0.8-1.3c1.2-3.1,2.5-6.2,3.7-9.3
		c0.1-0.2,0.2-0.5,0.2-0.7c-0.2-1.2,0.5-1.7,1.3-2.4c2.3-2,4.6-4.1,6.9-6.2c0.1,1.2,0.2,2.5,0.4,4c0.4,2.3,0.8,4.7,1.5,6.9
		c0.9,2.8,2.2,5.4,3.2,8.2c0.9,2.3,1.5,4.7,2.4,7.1c1,2.9,2.2,5.7,3.3,8.5c0.5,1.2,1,2.4,1.6,3.6c1.6,3,3.4,6,5,9
		c1.2,2.3,2.2,4.7,3.3,7.1c1.4,2.9,2.6,5.8,4,8.6C85.1,145.8,85.4,147,84.4,148.3z M85.8,115h-2.3c-0.8,0-1.7,0.1-2.6,0
		c-0.5,0-1.1-0.3-1-0.9c0.1-0.6,0.2-1.3,1-1.4c1.6-0.2,3.3-0.3,4.9-0.4c1,0,1.2,0.3,1.2,1.5C87,114.8,86.8,115,85.8,115z M88,95.1
		c3-2.5,5.3-5.4,7.6-8.5c1.9-2.5,3.8-4.9,5.7-7.4c1-1.4,1.4-3,1.6-4.6c0.1-0.7,0.2-1.5-0.4-2.2c-0.3-0.4-0.3-1-0.5-1.7
		c0.8,0.7,1.6,1.1,2.1,1.8c1.7,2.2,3,4.5,3.1,7.4c0.3,5.5-1.1,10.5-3.1,15.4c-1.4,3.5-2.7,7.1-4,10.7c-0.1,0.3-0.2,0.5-0.2,0.6
		c-4.8-2.7-8.8-6.5-12.9-10.3C87.3,95.9,87.6,95.4,88,95.1z M98.7,108.6c-1.6,5-3.3,9.9-4.9,14.8c0,0.1-0.1,0.2-0.2,0.5
		c-0.4-0.9-0.7-1.6-1.1-2.6c-0.9-1.8-1.6-3.6-2.6-5.3c-1.2-1.9-1.2-3.8-0.6-5.8c0.7-2.3,1.4-4.6,2.1-6.8c0.2-0.7,0.6-0.8,1.2-0.4
		c1.4,1,2.8,2,4.1,3c0.7,0.6,1.4,1.2,2,1.9C98.8,108.1,98.8,108.4,98.7,108.6z M121.9,91.2c1.8,2.2,3.6,4.5,5.6,6.9
		c-1.1,0.5-1.8,1-2.7,1.3c-2.7,0.9-5.5,1.7-8.3,2.4c-0.3,0.1-0.8-0.1-1-0.3c-1.3-1.2-2.6-2.5-3.9-3.8c-0.2-0.2-0.7-0.4-0.7-0.3
		c-0.2,0.3-0.4,0.6-0.4,0.9c0,0.1,0.2,0.4,0.3,0.5c1.3,1.3,2.3,2.6,3.7,3.7c2.6,2,5.3,3.8,7.9,5.6c-2.2,2.8-4.3,5.8-7.4,7.9
		c-3,2-4.7,5-7,7.5c-2.5,2.7-4.7,5.8-7.8,8c-0.4,0.3-0.8,0.6-1,1c-1.4,2.3-3.7,3.8-5.6,5.6c-1.5,1.4-2.8,2.9-4.1,4.3
		c-0.3,0.3-0.6,0.6-1,0.9c0.5-1.7,1.1-3.3,1.6-4.9c1.4-4.2,2.7-8.3,4.2-12.5c0.8-2.2,1.7-4.4,2.5-6.6c1-2.8,1.6-5.6,2.8-8.3
		c1.2-2.7,2.1-5.5,3.3-8.2c0.8-1.9,1.4-3.8,2.1-5.8c1.2-3.3,2.3-6.7,3.3-10c0.4-1.1,0.5-2.3,0.5-3.5c0-1.8-0.1-3.6-0.2-5.4v-0.9
		c0.1-0.1,0.1-0.1,0.2-0.2c1.1,1,2.3,1.9,3.4,2.9c1,0.9,1.9,1.8,2.8,2.8c0.7,0.7,1.1,1.7,1.8,2.5L121.9,91.2z M164.8,205.9
		c-0.1,0.1-0.3,0.1-0.4,0.2c-1.4-1.3-3.6-0.7-5-2.4c0.9-1.1,1.7-2.2,3.2-2.7c0.7-0.2,1-0.1,1.1,0.7c0,0.5,0.3,1.1,0.4,1.6
		C164.4,204.1,164.6,205,164.8,205.9z M156.6,192.1c0.4-0.2,0.6-0.9,1-1.6c0.4,0,1.1,0,1.7,0.2c0.9,0.2,1.2,0.9,1.2,1.8
		c0,1.1-0.1,2.3,0.6,3.3c0.4,0.6,0.9,1.1,1.3,1.7c0.5,0.6,0.9,1.3,1.3,1.9c-0.1,0.1-0.1,0.2-0.2,0.3c-0.8,0.1-1.6,0.2-2.6,0.6
		c0.4-1.9-1-2.5-2-3.5c-0.2-0.2-0.5-0.3-0.8-0.4c-0.1,0.1-0.2,0.1-0.3,0.2c0.1,0.3,0.3,0.7,0.5,1c0.3,0.4,0.8,0.7,1.2,1.1
		c0.6,0.5,0.3,1.4-0.4,1.7c-1.6,0.6-3.6-0.1-4.1-1.7c-0.3-1-0.2-2.3-0.1-3.4c0.1-0.5,0.3-1.1,0.5-1.6
		C155.6,193,155.9,192.5,156.6,192.1z M149.5,192.1c0.3-0.4,0.4-0.9,0.4-1.3v-3.9c0-0.6,0.4-0.7,0.9-0.6c0.4,0.1,0.9,0.1,1.3,0.1
		c0.8,0,1.3,0.3,1.7,1c0.5,1,1,2.2,2.3,2.6c-1.4,2.7-2.8,5.4-4.2,8.1c-1.4-1.6-2.7-2.8-5-2.4C147.8,194.4,148.7,193.3,149.5,192.1z
		 M143.8,199.6c0.1,0.3,0.2,0.4,0.1,0.5c0.4,1.6,1.8,1.7,3.1,1.9c0.6,0.1,0.8,0.2,0.9,0.8c0.4,2.7,0,5.4-0.4,8c-0.1,0.8-0.5,1-1,0.4
		c-0.7-0.8-1.2-1.6-1.6-2.5c-1.3-2.7-1.5-5.6-1.4-8.6C143.5,200.1,143.6,200,143.8,199.6z M143.9,192.4c0.1-0.3,0.3-0.5,0.5-0.7
		c0.4-0.3,1.1-0.9,1.3-0.8c0.5,0.4,0.8,1,1.2,1.6c-0.2,1.1-1.7,2.3-2.5,2.1C143.7,194.4,143.4,193.2,143.9,192.4z M147.3,201.3
		c0-0.1-0.1-0.1-0.1-0.2c-0.3-0.1-0.6-0.1-0.9-0.2c-1.5-0.4-1.9-1.9-0.9-3.1c1.5-1.8,3.8-1.6,5.1,0.4c0.4,0.7,0.4,1.4-0.5,1.9
		C149.2,200.6,148.2,200.9,147.3,201.3z M149.7,204.2c0.1-0.6,0-1.3,0-2c-0.1-0.7,0.4-0.9,0.9-1.1c0.1,0,0.5,0.4,0.5,0.6
		c0.2,1.4,0.3,2.9,0.4,4.4C149.9,206.4,149.4,205.9,149.7,204.2z M146.5,175.5c0.6-0.1,1.2,0.1,1.8,0.3c0.1,0,0.2,0.5,0.1,0.8
		c-0.4,2.1-0.8,4.1-1.2,6.1c-0.1,0-0.1,0-0.2,0c-0.3-1.3-0.6-2.6-0.8-3.8c-0.2-0.6-0.3-1.3-0.5-1.9
		C145.5,176.4,145.9,175.5,146.5,175.5z M142.6,178.1c0.1-0.2,0.1-0.3,0.3-0.6c0.5,1.5,0.8,2.8,1.3,3.9c0.3,0.7,0.7,1.4,0.9,2.1
		c0.2,0.8,0.4,1.7,0.5,2.5c0.1,0.8,0.2,1.6,0.2,2.4c0,1.5-0.3,1.9-1.7,2.4c-0.6,0.2-1.1-0.1-1.3-0.6c-0.4-1.2-1-2.4-1.1-3.6
		C141.5,183.8,141.7,180.9,142.6,178.1z M140.7,187.9c0.5,1.6,0.9,3,1.4,4.5c-0.8-0.5-1.5-1.1-2.2-1.6c-0.1,0-0.1-0.2-0.1-0.3
		C139.8,189.6,140.2,188.8,140.7,187.9z M137.5,192.5c0.4-0.8,1.8-1.1,2.5-0.5c1.4,1.2,2.3,2.7,2.5,4.5c0,0.2-0.2,0.5-0.4,0.5h-1.5
		c-0.7,0-1.6,0-2.4-0.8C137.3,195.3,136.9,193.7,137.5,192.5z M133.9,199.8c-0.8-2.4,0.2-5.4,2.3-6.8c0,0,0.1,0,0.2,0v1
		c-0.3,1.6,1.1,3.6,2.7,3.8c0.9,0.2,1.7,0.2,2.6,0.3c-0.2,1.6-1.9,3.5-3.7,3.5h-1.6C134.6,201.6,134.5,201.6,133.9,199.8z
		 M137.8,207.7c-2-1.2-2-3.3-2.8-5.3c3.1,0.5,5.7,0.3,6.9-2.6c0.1,0.1,0.1,0.1,0.2,0.2v2.7c-0.1,2.8,0.7,5.4,1.7,8
		c0.4,0.9,0.8,1.7,1.2,2.6c0.5,1,1.2,1.3,2.8,1c1.1-0.2,1.5-0.5,1.6-1.7c0.1-0.9,0.1-1.7,0.2-2.5c0-0.2,0.1-0.6,0.3-0.7
		c0.2-0.1,0.6-0.1,0.8,0.1c0.5,0.4,0.9,0.8,1.3,1.3c0.3,0.4,0.6,0.7,1,1.2c0.5-0.9,0.9-1.6,1.2-2.4c0.1-0.2-0.1-0.7-0.3-0.9
		c-0.3-0.3-0.7-0.5-1-0.8c-0.5-0.4-0.5-0.7-0.4-1.3c0.2-1.4,0.1-2.9,0-4.3c0-0.9-0.4-2-0.3-2.9c0.1-0.8,0.8-1.5,1.4-2.3
		c-0.2,1.8,0.6,3.3,1.9,3.9c1.3,0.6,2.9,0.4,4.3,0.6c-0.3,0.5-0.7,1.1-1.1,1.6c-0.5,0.7-0.4,1.3,0.2,1.7c0.7,0.5,1.3,0.8,2,1.2
		c0.6,0.3,1.2,0.5,1.7,0.9c1,0.8,1.1,1.3,0.7,2.6c-0.3,0.8-0.5,1.7-0.8,2.5c-0.3,0.7-0.7,1-1.6,0.7c-1.5-0.6-2.6-1.6-3.4-3
		c-0.4-0.8-0.8-1.5-1.2-2.3H156c0,0.4-0.1,0.9,0,1.3c0.4,1.4,1.1,2.8,2.4,3.7c0.6,0.4,1.3,0.8,2.2,1.3c-0.5,0.6-1,1.1-1.4,1.6
		c-1.5,1.8-3.6,2.1-5.8,2.3c-1.7,0.2-3.5,0.1-5-0.7s-2.8-1.9-4.1-2.9c-1.1-0.9-2.2-2-3.3-2.9c-1-0.9-2.2-1.5-2.6-2.9
		C138.3,208.1,138,207.8,137.8,207.7z M162.5,226.9c-0.3,0.7-0.9,1.5-1.5,1.9c-1.7,0.9-3.5,1.7-5.3,2.3c-1,0.3-2.3,0.2-3.3-0.1
		c-3.7-1.2-6.8-3.4-9.3-6.3c-1.3-1.5-2.5-3.2-3.7-4.8c-0.3-0.4-0.4-0.9-0.7-1.5c1.4,1.1,2.8,2.2,4.1,3.2c1,0.8,2,1.7,3.4,1.8
		c2.7,0.1,5.2-0.1,7.5-1.6c2.5-1.6,4.7-3.5,6.7-5.6c0.4-0.5,0.9-0.8,1.5-1.4c0.4,2,0.8,3.8,1.1,5.6
		C163.2,222.6,163.2,224.8,162.5,226.9z"/>
	<path class="st0" d="M89,158.2c0,1.2-0.9,2-2.1,2c-1.4,0-2.4-0.9-2.4-2.1c0-1.4,1.1-2.6,2.2-2.6C88,155.6,89,156.7,89,158.2z"/>
	<path class="st0" d="M84.5,213.6c-0.2-1,1.1-2,2.2-2c1.3,0,2.3,1,2.4,2.1c0,1.4-0.8,2.3-2.3,2.3C85.4,216.1,84.7,215.4,84.5,213.6z
		"/>
	<path class="st0" d="M70.3,43.3c-0.8-0.3-1.8-0.6-2.9-0.9c-0.5-0.1-1-0.3-1.5-0.3c-0.8-0.1-1-0.3-0.6-1c1.6-2.3,3.7-3.7,6.6-3.5
		c1,0.1,1.9,0.7,2.8,1.1c0.5,0.2,1.1,0.5,1.5,0.8c0.5,0.4,0.6,0.9-0.1,1.3c-1,0.6-2,1.4-3.1,1.9C72.4,43.1,71.5,43.1,70.3,43.3z
		 M66.3,41.2c1.1,0.4,1.9,0.6,2.7,0.9c0-1,0-2,0-3.1C68.1,39.7,67.3,40.4,66.3,41.2z M73,39.2c0,1,0,1.8,0,2.8
		c0.7-0.5,1.3-1,1.9-1.5c0.1-0.1,0-0.6-0.1-0.6C74.2,39.6,73.6,39.4,73,39.2z"/>
	<path class="st0" d="M88.8,35.6c1.6,0.1,3.1,1.2,4.7,2.1c0.1,0.1,0.2,0.1,0.3,0.2c0.2,0.3,0.5,0.6,0.7,0.9
		c-0.4,0.2-0.7,0.3-1.1,0.5c-1,0.4-2.1,0.6-3.1,1.2c-1.2,0.7-2.3,0.4-3.4,0s-2.1-0.7-3.2-1.1c-0.2-0.1-0.3-0.6-0.3-0.7
		C84.9,37.5,86.1,35.6,88.8,35.6z M92.4,38.5c0-0.1,0-0.2-0.1-0.3c-0.5-0.2-1.1-0.5-1.7-0.7c-0.2,0.8-0.3,1.4-0.5,2.2
		C91,39.3,91.7,38.9,92.4,38.5z M86.7,37c-0.6,0.5-1.1,1-1.8,1.6c0.8,0.4,1.4,0.6,2,0.9C86.8,38.6,86.7,37.9,86.7,37z"/>
	<path class="st0" d="M80.9,64.8c-1.9,0.2-3.6-0.3-5-1.5c-0.7-0.6-1.5-0.6-2.3-0.6c-0.3,0-0.7-0.2-1-0.3c0.3-0.2,0.5-0.6,0.8-0.6
		c2-0.3,3.9-0.8,5.7-1.9c0.3-0.2,0.8-0.1,1.2-0.1c0.5,0,1.1,0.1,1.5,0c1.4-0.6,2.6-0.1,3.9,0.2c0.9,0.3,1.9,0.4,2.8,0.7
		c0.3,0.1,0.5,0.3,0.8,0.4c-0.2,0.2-0.4,0.4-0.7,0.6c-0.8,0.5-1.7,1-2.5,1.5C84.6,64.3,82.9,65.1,80.9,64.8z M86.6,61.9
		c-3.4,0.5-6.8,1.4-10.2,0.6C78.1,65,84.3,64.6,86.6,61.9z M85.9,61c-1.1-0.5-2.3-1.1-3.6-0.6c-0.5,0.2-1.1,0.3-1.5,0.1
		c-1.3-0.4-2.1,0.6-3,1.1C80.5,62,83.2,61.5,85.9,61z"/>
	<path class="st0" d="M83.4,53.3c-0.1,0-0.2,0-0.3,0c-0.9-0.3-1.4,0-1.8,0.8c-0.7,1.2-2.6,1.2-3.4,0c-0.3-0.5-0.7-0.6-1.2-0.5
		c-0.9,0.2-1.9,0.4-2.5-0.5s-0.3-1.9,0-2.9c0.2-0.6,0.5-1.2,0.8-1.8c0.1-0.2,0.4-0.4,0.6-0.3c0.2,0,0.4,0.4,0.3,0.6
		c-0.1,0.4-0.3,0.8-0.5,1.2c-0.2,0.6-0.5,1.2-0.7,1.9c-0.1,0.3,0.1,0.8,0.4,1c0.2,0.1,0.7,0,1-0.2c0.8-0.5,1.6-0.4,2.1,0.5
		c0.3,0.6,0.7,1.1,1.4,0.9c0.4-0.1,0.8-0.6,1.1-1c0.3-0.4,0.5-1,0.9-1.2c0.3-0.2,1,0,1.3,0.2c0.4,0.3,0.8,0.6,1.2,0.2
		c0.3-0.3,0.6-0.9,0.4-1.2c-0.3-0.8-0.9-1.5-1.4-2.2c-0.1-0.2-0.3-0.3-0.3-0.5s0-0.5,0.1-0.5c0.2-0.1,0.5-0.1,0.6,0
		c0.7,1.1,1.9,2,1.9,3.5C85.6,52.6,84.8,53.4,83.4,53.3z"/>
	<path class="st0" d="M69.8,34.6c1.5,0.2,2.6,0.3,3.7,0.5c0.4,0.1,0.9,0.2,0.7,0.8c-0.1,0.5-0.5,0.5-1,0.4c-2.3-0.3-4.6-0.7-6.8,0.6
		c-0.6,0.4-1.2,0.7-1.9,0.9c-0.3,0.1-0.8-0.2-1.2-0.2c0.2-0.3,0.4-0.7,0.6-0.8c1-0.5,2-1.1,3.1-1.5C68.1,34.9,69.1,34.8,69.8,34.6z"
		/>
	<path class="st0" d="M89.6,32.8c1.4,0.2,2.7,0.4,4.1,0.7c0.3,0.1,0.6,0.4,0.8,0.7c0.1,0.1-0.1,0.5-0.2,0.5c-0.3,0-0.7-0.1-1-0.1
		c-0.6-0.1-1.2-0.4-1.8-0.4c-2.5,0-5,0-7.3,1.1c-0.2,0.1-0.7-0.1-0.8-0.3c-0.1-0.3,0.1-0.8,0.3-0.8c1.4-0.4,2.8-0.8,4.2-1.1
		c0.6-0.1,1.2-0.1,1.8-0.1C89.6,32.9,89.6,32.8,89.6,32.8z"/>
</g>
</svg>
