<?xml version="1.0" encoding="utf-8"?>
<!-- Generator: Adobe Illustrator 19.2.1, SVG Export Plug-In . SVG Version: 6.00 Build 0)  -->
<svg version="1.1" id="Layer_1" xmlns="http://www.w3.org/2000/svg" xmlns:xlink="http://www.w3.org/1999/xlink" x="0px" y="0px"
	 viewBox="0 0 151 182.9" style="enable-background:new 0 0 151 182.9;" xml:space="preserve">
<style type="text/css">
	.st0{fill:#00BCD4;}
</style>
<g id="pharm-henry-cyan">
	<path class="st0" d="M134.2,120.1c2.1,1,4.3,1.8,6.6,2.5c3.4,1.2,6.8,2.4,10.2,3.5c0-0.5,0-0.9,0.1-1.4c-3-1.1-6-2.1-9.1-3.1
		c-3.6-1.2-7.1-2.6-10.4-4.4c-2.3-1.2-4.6-2.3-6.9-3.4c-2.1-1-3.9-2.3-5.7-3.8c-0.9-0.8-2-1.4-2.8-2.3c-0.9-1.1-2-1.9-3-2.8
		c-0.4-0.4-0.9-0.6-1.3-0.9c-1.7-1.2-3.3-2.4-5-3.6c-0.3-0.2-0.5-0.3-0.8-0.5c0.4-3.5,0.9-7.1,1.3-10.7c1.4-0.1,1.9-1.5,3-2.2
		c1.3-1,1.5-2.6,1.8-4c0.4-1.6,0.4-3.3,0.6-4.9c0.6-4.4,0.2-8.8,0.2-13.2c0-1.9-0.8-3.7-2.5-4.8c-0.3-0.2-0.8-0.3-1-0.4
		c0.5-1.8,1.1-3.6,1.3-5.4c0.2-1.8,0.1-3.6,0.1-5.4c0-1.1-0.1-2.2-0.2-3.3c-0.1-1.5-0.3-3.1-0.5-4.6c-0.3-2-0.8-3.9-1.1-5.9
		c-0.2-1.3-0.3-2.7-0.4-4c-0.1-1.6-0.7-3-1.3-4.5c-0.6-1.4-1.2-2.8-1.9-4.1c-1.1-2.1-2.4-3.9-4-5.6c-0.4-0.4-0.8-1-1.3-1.4
		c-1.9-1.7-3.9-3.4-5.8-5.1c-0.7-0.6-1.3-1.3-2-2c-1.3-1.5-3-2.4-4.7-3.4c-0.4-0.2-0.8-0.5-1.3-0.7c-2.6-1.5-5.3-2.6-8.3-3.1
		c-1.2-0.2-2.3-0.5-3.5-0.7c-0.9-0.2-1.8-0.3-2.7-0.4C70.8,0.1,69.6,0,68.5,0c-1,0-2,0.2-3,0.2c-0.9,0-1.9-0.1-2.8-0.1
		c-1.2,0-2.4,0.1-3.5,0.2c-0.6,0-1.2,0.2-1.8,0.2c-1.9-0.1-3.8,0.3-5.7,0.7c-2,0.4-4,0.9-5.9,2c-1.8,1-3.2,2.4-4.5,3.9
		c-1.5,1.8-3.1,3.6-5,5c-1.3,1-2.5,2.1-3.7,3.1c-2.2,1.8-3.9,4-5.2,6.5c-0.5,1-1.2,1.9-1.7,2.9c-1.3,2.7-2.6,5.4-3.6,8.1
		c-0.6,1.5-0.7,3.2-1,4.8c-0.2,1.1-0.4,2.3-0.6,3.4c-0.4,1.7-0.8,3.4-0.6,5.2c0.1,1.6,0.1,3.2,0,4.8c-0.1,1.8,0.5,3.5,1.1,5.2
		c0.9,2.4,2.5,4.3,3.9,6.4c1,1.6,2,3.2,2.4,5.1c0,0.1,0.1,0.3,0.1,0.4c0.2,0.6,0.4,1.1-0.4,1.6c-0.6,0.4-1.1,1.3-1.2,2.1
		c-0.2,1.5-0.2,3.1-0.2,4.7c0,0.9,0.3,1.9,0.7,2.8c0.8,1.8,1.2,3.7,1.5,5.5c0.6,2.9,1.5,5.6,2.9,8.2c0.5,0.9,1.1,1.9,1.7,2.7
		c0.3,0.4,0.7,0.8,1.2,0.9c1.5,0.5,2.3,1.4,2.5,3c0.3,1.5,0.8,3,1.2,4.4c0.6,2.2,1.2,4.4,1.8,6.8c-0.5,0.1-1,0.3-1.6,0.2
		c-2.1-0.1-3.9,0.5-5.7,1.5c-0.8,0.4-1.7,0.5-2.5,0.8c-1.5,0.5-3,1-4.6,1.5c-2,0.7-4.1,1.4-6,2.2c-1.3,0.5-2.5,1.2-3.7,1.8
		c-1.7,0.9-3.5,1.3-5.4,1.7c-1.7,0.4-3.3,1-5,1.4C4,122,3.3,122,2.6,122.1c-0.7,0.1-1.5,0.2-2.2,0.3c-0.1,0.5-0.2,1-0.3,1.5
		c0.1,0,0.2,0,0.3,0c0.8-0.1,1.6-0.1,2.4-0.2c1.1-0.1,2.2-0.2,3.2-0.5c2.1-0.6,4.3-1.2,6.4-1.9c0.8-0.3,1.6-0.7,2.3-1
		c0.5-0.2,1.1-0.4,1.6-0.6c1.6-0.8,3.2-1.7,5-2.1c1.4-0.3,2.8-1,4.2-1.6c0.5-0.2,1.1-0.3,1.6-0.4c1.4-0.5,2.9-0.8,4.2-1.4
		c1.4-0.6,2.8-0.6,4.2-1c1-0.3,2-0.4,3-0.6c0.1,0.1,0.1,0.2,0.2,0.3c-0.2,0.1-0.4,0.1-0.5,0.2c-1.6,1.3-3.2,2.6-4.7,4
		c-0.9,0.8-1.6,1.9-2.4,2.8c-0.9,1-1.9,1.9-2.9,2.8c-1.4,1.5-2.8,2.9-4.2,4.4c-0.9,1-1.8,2.1-2.7,3.2c-0.4,0.4-0.9,0.3-1.4,0
		c-1.1-0.6-2.1-1.2-3.1-1.8c-0.1,0-0.2,0-0.3-0.1c-0.4,1-0.1,2,0.2,3c0,0.1,0.1,0.2,0.1,0.3c0.1,2.4,0.3,4.8,0.4,7.3
		c0,0.8,0.1,1.5,0.2,2.3c0.1,1.7,0.1,3.4,0.3,5.1c0.2,1.5,0.5,3,0.7,4.4c0.1,0.6,0.2,1.2,0.2,1.7c0.3,2.5,0.6,5,0.9,7.4
		c0.2,1.6,0.7,3.1,0.7,4.7c-0.1,1.8,0.3,3.5,0.3,5.2c0,2,0.1,3.9,0.3,5.9c0.1,1.4,0.4,2.8,0.5,4.2c0.1,1,0,2,0,3h1.6
		c0-2.1-0.1-4.3-0.1-6.4c-0.1-2.2-0.3-4.4-0.4-6.6c-0.1-1.9-0.3-3.7-0.5-5.6c-0.1-0.5-0.3-1-0.4-1.5c-0.3-2.2-0.6-4.4-0.8-6.6
		c-0.3-2.3-0.4-4.6-0.7-6.9c-0.4-4.1-0.9-8.2-1.3-12.3c-0.2-1.6-0.2-3.1-0.3-4.7c0-0.3,0.1-0.5,0.1-0.8c2.2,0.4,4.1,1.4,6,2.4
		c1.9,1,3.8,1.9,5.6,2.9c0.2,0.1,0.3,0.2,0.5,0.2c0.3,0.1,0.6,0.3,0.8,0.2c0.2-0.1,0.3-0.5,0.4-0.7c0-0.1-0.1-0.3-0.2-0.4
		c-0.9-0.5-1.7-1-2.6-1.4c-1.3-0.7-2.5-1.4-3.8-2.1c-0.8-0.5-1.7-0.9-2.6-1.4c0-0.1,0.1-0.2,0.2-0.4c1.1-1.2,2.1-2.5,3.2-3.7
		c2.1-2.1,4.4-4.1,6.3-6.4c1.6-2,3.7-3.5,5.5-5.3c0.7-0.7,1.5-1.3,2.3-2c0.3,0.6,0.6,1.1,0.9,1.6c1.1,1.8,2.2,3.6,3.2,5.4
		c0.2,0.4,0.3,1.1,0.3,1.6c-0.2,2.7-0.5,5.3-0.8,8c-0.1,1.2-0.3,2.4-0.3,3.6c-0.1,2.9-0.5,5.9-0.3,8.8c0.2,4,0.2,7.9,0.4,11.9
		c0.1,2.6,0.6,5.2,1,7.8c0.2,1.5,0.4,3,0.6,4.5c0.1,1,0,2,0,3.1c0,1.7,0.1,3.4,0.2,5.1c0.2,2.7,0.4,5.5,0.5,8.2h1.7
		c-0.1-2.3-0.4-4.6-0.6-6.9c0,0,0-0.1,0-0.1c-0.1-2.7-0.2-5.4-0.3-8c0-0.4,0.1-0.8,0.2-1.3c0.6,0.6,1.2,1,1.6,1.6
		c0.3,0.4,0.7,0.6,1.2,0.4c0.5-0.3,0.3-0.7,0.1-1.1c-0.8-1.6-1.6-3.1-2.4-4.7c-0.2-0.4-0.4-0.8-0.7-1.2c-0.7-1-0.7-2.1-0.4-3.3
		c0.1-0.4,0.1-0.7,0.1-1.1c0.1-1.3,0.6-2.4,1.7-3.2c1-0.7,2-1.2,3.1-1.4c0.5-0.1,1-0.1,1.5,0c0.3,0.1,0.6,0.4,0.7,0.7
		c1.2,2.5,1.7,5.2,2.7,7.8c0.5,1.3,0.7,2.6,1.1,3.9c0.3,1,0.9,2,1.2,3c0.5,1.7,0.9,3.4,1.3,5.1c0.3,1.4,0.9,2.7,1.8,3.8
		c1,1.2,2,2.5,3.1,3.7c0.7,0.8,1.7,1.4,2.6,2.1c0.2,0.1,0.3,0.3,0.5,0.4h2.1c-0.5-0.4-0.9-0.8-1.4-1.2c-1.3-1-2.6-2-3.7-3.1
		c-0.8-0.8-1.4-1.7-2.1-2.6c-0.7-0.9-1.3-2-1.5-3.2c-0.2-1.3-0.6-2.5-0.9-3.8c-0.4-1.7-1.1-3.4-1.8-5c-0.7-1.6-0.9-3.3-1.4-4.9
		c-0.4-1.3-1-2.5-1.2-3.8c-0.2-1.4-0.8-2.6-1.6-3.8c-0.5-0.7-1.2-1.3-2.3-0.6c-0.2,0.1-0.5,0.2-0.8,0.3c-2.4,0.6-4.4,1.9-5.7,4.3
		c-0.1-1.6-0.3-3.1-0.4-4.6c-0.1-3.4-0.1-6.9-0.1-10.3c0-2.1,0-4.2,0-6.2c0-0.8,0.1-1.5,0.1-2.3c0.3-2.5,0.5-5.1,0.8-7.6
		c0.1-0.7,0.1-1.3,0.2-2.2c0.4,0.7,0.7,1.3,1,1.8c1.1,2.2,1.7,4.6,2.5,7c0.1,0.3,0.2,0.5,0.3,0.8c0.4,1.6,0.8,3.2,1.3,4.7
		c0.6,1.7,1.3,3.4,1.9,5.1c0.5,1.4,0.6,2.9,1.2,4.3c1,2.1,1.7,4.3,2.5,6.4c0.3,0.8,0.7,1.6,0.9,2.4c0.4,1.2,0.7,2.5,1.1,3.8
		c0.4,1.2,1,2.3,1.5,3.5c1,2.3,1.8,4.7,2.9,7c0.7,1.5,1.8,2.8,2.7,4.2c1.4,2.3,2.8,4.7,4.3,7c0.5,0.8,1.1,1.6,1.6,2.4h1.4
		c-0.6-1.1-1.2-2.1-1.9-3.1c1.7-0.5,3.4-1,5-1.5c0.5-0.2,0.9-0.4,1.4-0.5c1.9-0.6,3.8-1,5.7-1.7c2-0.7,3.8-1.6,5-3.4
		c0.7-1.1,1.7-2,2.4-3.1c0.9-1.4,1.8-3,2.6-4.5c0.5-1,0.9-2.1,1.5-3c0.5-0.9,1.4-1.1,2.4-0.8c1.9,0.6,3.6,1.7,4.9,3.3
		c1.2,1.4,2.3,2.9,3.4,4.3c0.2,0.2,0.4,0.4,0.5,0.5c-0.2,1.7-0.4,3.4-0.6,5.1c-0.2,1.3-0.4,2.6-0.6,3.8c-0.1,0.9-0.2,1.8-0.3,2.7
		c-0.1,0.7-0.2,1.3-0.3,2h1.4c0-0.2,0.1-0.3,0.1-0.5c0.4-2.4,0.7-4.8,1.1-7.1c0.3-2.1,0.7-4.2,0.9-6.3c0.2-2.5,1-4.8,1.9-7.1
		c0.4-0.9,0.6-2,0.5-2.9c-0.2-2.6,0.6-5.1,0.5-7.7c0-0.8,0.4-1.6,0.5-2.3c0.3-1.4,0.6-2.8,0.8-4.2c0.1-0.6,0.2-1.2,0.3-1.8
		c0.5-1.8,0.8-3.5,0.9-5.4c0.1-1.2,0.3-2.4,0.4-3.7c0.1-0.8,0.1-1.6,0.1-2.4c0-2.3,0.1-4.7,0.1-7c0-2.4,0-4.8-0.1-7.2
		c-0.2-3.6-0.9-7.1-2.6-10.3c-0.3-0.5-0.6-1-0.9-1.5c0.5-0.4,0.9-0.2,1.3,0.1c0.5,0.5,1,1,1.5,1.5c1.1,1,2.2,2.1,3.4,3.1
		c1.7,1.3,3.4,2.6,5.1,3.8c0.6,0.4,1.3,0.7,1.9,1.1c0.2,0.1,0.4,0.3,0.5,0.5c0.3,0.3,0.5,0.6,0.7,1c0.5,0.9,0.9,1.8,1.4,2.7
		c0.9,1.8,1.9,3.5,2.7,5.3c1.4,3.1,2.8,6.1,4.1,9.2c0.4,0.9,0.3,1.1-0.5,1.6c-1.9,1.2-3.9,2.4-5.8,3.6c-1.4,0.8-2.7,1.6-4.1,2.4
		c-0.3,0.2-0.7,0.3-1,0.3c-0.6,0.1-1.1,0.6-1.1,1.1c0,0.3,0.1,0.7,0.3,0.9c0.2,0.1,0.7,0.1,0.9-0.1c1.2-0.6,2.4-1.3,3.5-2
		c1.4-0.9,2.9-0.9,4.3-0.5c2.1,0.6,4,1.5,6.1,2.3c1,0.4,2,0.9,3,1.3c0.2,0.1,0.5,0.1,0.8,0.2c-0.1,0.7-0.2,1.4-0.4,2.1
		c-0.6,2.2-1.3,4.4-2,6.6c-0.7,2.1-1.4,4.2-2.1,6.3c-0.7,2-1.5,3.9-2.1,5.9c-0.4,1.3-0.8,2.5-1.2,3.8c-0.5,1.8-1.1,3.6-1.6,5.4
		c-0.2,0.6-0.2,1.3-0.4,1.9c-0.3,1-0.8,1.9-1.1,2.9c-0.3,1-0.6,2.1-0.9,3.1h1.5c0.4-1.1,0.7-2.2,1.1-3.3c0.5-1.7,1-3.4,1.5-5.2
		c0.6-2,1.2-3.9,1.8-5.9c0.5-1.4,1-2.8,1.4-4.3c0.4-1.3,0.8-2.6,1.3-3.9c0.6-1.6,1.2-3.2,1.7-4.8c0.8-2.6,1.6-5.1,2.3-7.7
		c0.2-0.6,0.3-1.3,0.4-1.9c0.3-0.9,0-1.8-0.2-2.7c-0.1-0.5-0.4-0.6-0.8-0.3c-0.5,0.4-0.9,0.3-1.4,0c-2.5-1.1-4.9-2.4-7.5-3.2
		c-0.7-0.2-1.4-0.3-2.2-0.4c0.9-0.6,1.8-1.1,2.6-1.6c1-0.6,2-1.3,3-2c0.5-0.3,0.6-0.9,0.4-1.4c-1.1-2.6-2.1-5.2-3.2-7.7
		c-1.1-2.4-2.4-4.7-3.5-7c-0.5-1-0.9-2-1.3-3.2c0.2,0.1,0.3,0.1,0.5,0.2C129.5,117.8,131.8,119,134.2,120.1z M108.9,60.9
		c1.4,0.3,1.9,1.2,2.2,2.2c-0.5,0.2-1.2,0.2-1.5,0.5c-0.5,0.5-0.8,1.2-1.1,1.8c-0.4,0.6-0.7,1.3-1.1,1.9
		C107.2,65,107.6,62.8,108.9,60.9z M108,68.2c0.2-0.1,0.3-0.4,0.5-0.6c0.6-1,1.2-2,1.7-3c0.3-0.5,0.5-0.4,0.9-0.1
		c0.6,0.5,0.6,1.3,0.6,2c0,4.7,0.2,9.4-0.5,14.1c-0.2,1.6-0.6,3.1-1,4.6c0,0.2-0.2,0.4-0.3,0.5c-0.7,0.7-1.4,1.4-2.1,2.1
		c-0.1,0.1-0.4,0.1-0.7,0.2c0.1-1.4,0.2-2.6,0.4-3.8c0-0.3,0-0.6,0.1-0.9c0.4-0.7,0.8-1.4,1.3-2c1.5-2.1,1.9-4.4,1-6.9
		c-0.2-0.6-0.3-1.2-0.7-1.6c-0.5-0.8-1.2-1.5-1.8-2.2c-0.1,0.1-0.2,0.2-0.3,0.3c0-0.2,0.1-0.4,0.1-0.7
		C107.1,69.3,107.2,68.6,108,68.2z M107.7,80.9c-0.3-3-0.6-5.9-0.9-9C109.6,73.2,110.1,79,107.7,80.9z M26.8,72.6
		c0.1-0.6,0.4-1.2,0.7-1.8c0-0.1,0.5,0,0.5,0c0.7,1.4,1.9,2.5,2.2,4.1c0.2,0.8,0.4,1.6,0.6,2.3c-2.7-2.8-2.9-2.9-4.1-2.7
		C26.8,73.9,26.7,73.2,26.8,72.6z M29.9,88.4c-0.9-4-1.8-8-3.2-11.9c0.1,0,0.2,0,0.3,0c0.2-0.3,0.4-0.5,0.6-0.8
		c0.3,0.2,0.7,0.3,0.9,0.6c0.8,1.1,1.5,2.3,2.2,3.4c0.3,0.5,0.4,1.2,0.8,1.7c0.7,0.8,0.7,1.8,0.9,2.7c-1.3,0.8-1.9,1.9-1.9,3.3
		c0,0.3-0.1,0.7-0.2,1C30.1,88.3,30,88.3,29.9,88.4z M32.5,85.2c0.2,1,0.3,1.8,0.5,2.6c0.2,0.8,0.4,1.6,0.7,2.4
		C30.4,88.2,31.1,86.9,32.5,85.2z M30.4,89.1c0.4,0.2,0.7,0.4,1,0.6c0.7,0.5,1.3,1.2,2,1.6c0.6,0.4,0.9,0.7,1,1.4
		c0.2,1,0.4,2,0.6,3.1C33.3,95.4,30.9,91.8,30.4,89.1z M44.4,117.5c-1.7-1.7-2.6-3.8-3.5-5.9c-0.6-1.4-1.1-2.8-1.5-4.2
		c-0.5-1.8-0.9-3.7-1.4-5.6c-0.4-1.4-0.8-2.8-1.2-4.2c-0.1-0.3-0.1-0.7-0.2-1c-0.2-0.6-0.6-1.1-0.8-1.7c-0.4-1.6-0.7-3.2-1.1-4.8
		c-0.3-1.2-0.7-2.4-0.9-3.6c-0.4-1.9-0.7-3.8-1.1-5.7c-0.3-1.2-0.5-2.4-0.5-3.7c0-3.9,0-7.8,0-11.6c0-0.7-0.1-1.4-0.1-2.1
		c-0.2-1.9-0.5-3.8-0.6-5.8c-0.1-2.2,0-4.5,0-6.7c-0.1,0-0.2,0-0.2,0c0.2-2.3,0.3-4.5,0.5-6.8c0.2-1.7,0.5-3.4,1.3-5
		c0.8-1.6,1.7-3.2,2.4-4.8c0.4-0.9,1-1.2,1.8-1.5c0.3-0.1,0.6-0.1,0.9,0c0.9,0.3,1.7,0.7,2.5,1c2.1,0.9,4.1,1.9,6.2,2.7
		c1.9,0.7,3.9,1.4,5.9,1.9c3.2,0.9,6.2,2.1,9.5,2.7c1.5,0.2,3,0.8,4.5,0.9c3.2,0.1,6.5,0.2,9.7-0.4c2.9-0.5,5.7-1.6,8.2-3.2
		c0.9-0.6,1.8-1.2,2.8-1.8c1.3-0.7,2.8-1.2,4.3-1.3c0.8-0.1,1.7-0.1,2.4,0.2c1.2,0.5,2.2,1.3,2.5,2.7c0,0.1,0.1,0.2,0.2,0.4
		c0.6,1.2,0.7,2.5,0.6,3.8c-0.1,1.5,0,3.1,0,4.6c0,1.1,0.7,2.1,1.1,3.1c0.7,1.9,1.2,4,1.8,5.9c0.5,1.7,0.9,3.4,1.6,5
		c1.1,2.5,2.3,4.9,2.9,7.6c0.3,1.3,0.6,2.5,0.9,3.8c0.1,0.7,0.2,1.4,0.3,2.1c0.2,1.8,0.4,3.6,0.5,5.4c0.1,1.4,0,2.9-0.1,4.4
		c-0.1,1.3-0.2,2.6-0.3,3.8c-0.2,1.9-0.3,3.8-0.5,5.6c-0.2,1.5-0.4,2.9-0.6,4.4c-0.1,0.8-0.5,1.6-0.4,2.4c0.1,0.8-0.1,1.4-0.5,2
		c-0.5,0.7-1,1.5-1.3,2.2c-0.6,1.3-1.2,2.7-1.8,4c-1,2-2,4.1-3.1,6.1c-0.5,0.8-1,1.6-1.6,2.4c-0.9,1.2-2,2.3-2.9,3.5
		c-1.7,2.2-3.1,4.5-5.2,6.3c-1.3,1.1-2.4,2.3-3.7,3.4c-1,0.9-2,1.7-3,2.5c-1.3,0.9-2.7,1.7-4.3,1.9c-1.1,0.1-2.3,0.3-3.4,0.4
		c-0.8,0.1-1.8,0.3-2.5,0.1c-2.3-0.8-4.6-1.6-6.8-2.6c-1.8-0.9-3.5-2.1-5.2-3.3c-1.8-1.2-3.6-2.3-5.2-3.6c-1.7-1.3-3.2-3-5.2-4.1
		c-0.6-0.3-1-1-1.5-1.5C46.3,119.2,45.3,118.4,44.4,117.5z M70.9,176.2c-0.4,0.4-0.7,1-0.9,1.4c-1.2-1.9-2.5-3.8-3.7-5.7
		c-0.8-1.3-1.6-2.7-2.3-4c-1.1-2-1.8-4.2-2.6-6.4c-0.9-2.3-1.9-4.5-2.4-6.9c-0.3-1.3-0.9-2.6-1.4-3.9c-0.5-1.4-1.1-2.7-1.6-4.1
		c-0.3-1-0.5-2-0.9-3c-0.5-1.4-1.1-2.9-1.6-4.3c-0.7-2.3-1.4-4.6-2.1-7c-0.6-2.1-1.1-4.3-2.1-6.3c-0.5-0.9-0.8-1.9-1.3-2.9
		c0.1-0.1,0.1-0.1,0.2-0.2c0.9,0.7,1.9,1.4,2.8,2.2c0.9,0.7,1.7,1.6,2.6,2.2c1.6,1.1,3.2,2.2,4.8,3.2c1.8,1.1,3.5,2.3,5.3,3.3
		c1.5,0.8,3.1,1.4,4.7,2c1,0.4,2.1,0.7,3.1,0.8c1.6,0.1,3.2-0.1,4.7-0.3c1.5-0.2,3.1-0.4,4.4-1.3c1.7-1.2,3.3-2.5,4.9-3.7
		c0.8-0.6,1.6-1.3,2.3-2.1c1.3-1.3,2.6-2.5,3.7-3.8c1.2-1.3,2.1-2.8,3.2-4.2c0.9-1.2,1.9-2.3,2.8-3.5c0.7-0.9,1.2-1.9,1.8-2.9
		c1-1.8,1.9-3.6,2.7-5.4c0.4-0.9,0.7-1.8,1.1-2.8c0.1,0.2,0.2,0.3,0.2,0.4c1,1.8,1.1,3.7,1.2,5.6c0.1,1.5,0.3,3,0.5,4.6
		c0.2,1.1,0.6,2.1,0.7,3.2c0.1,1.7,0,3.4-0.1,5c0,0.5-0.2,1.1-0.4,1.6c-0.6,1.9-1.3,3.9-1.9,5.8c-1.1,3.3-2.1,6.6-3.4,9.8
		c-1.2,2.8-2,5.8-3.8,8.3c0,0.1-0.1,0.1-0.1,0.2c-1.2,2.8-2.6,5.6-4.3,8.1c-1.4,2-2.8,4-4.8,5.6c-0.7,0.6-1.4,1.1-2.2,1.6
		c-1.3,0.8-2.7,1.5-4.1,2.3c-1.8,1.1-3.5,2.5-5.3,3.6C73.7,173.4,72.2,174.7,70.9,176.2z M112.5,119.1c-0.1,5.7,0.3,11.4-0.4,17.1
		c-0.2,1.5-0.4,3.1-0.6,4.6c-0.2,1.2-0.5,2.4-0.7,3.6c-0.3,1.5-0.6,2.9-0.8,4.4c-0.2,0.8-0.3,1.7-0.4,2.5c-0.1,0.8,0,1.6-0.2,2.4
		c-0.3,1.4-0.6,2.9-0.5,4.3c0,0.9,0,1.8-0.2,2.6c-0.3,1.5-0.8,2.9-1.2,4.4c-0.2,0.8-0.3,1.7-0.5,2.5c-0.1,0-0.2,0.1-0.3,0.1
		c-0.2-0.3-0.5-0.6-0.7-0.8c-0.1-0.1-0.1-0.1-0.2-0.2c-1.3-2.2-3.2-3.9-5.2-5.3c-1.4-1-3-1.8-4.8-1.6c-1.1,0.1-2.5,1.3-2.6,2.4
		c-0.1,0.5-0.2,1.1-0.5,1.6c-1.4,2.8-2.9,5.5-4.9,8c-0.9,1.1-1.9,2.2-3.2,2.7c-1.5,0.6-3.1,1.1-4.6,1.6c-1.2,0.4-2.4,0.7-3.6,1.1
		c-1.6,0.5-3.2,0.9-5,1.4c0-0.3,0-0.3,0.1-0.4c1-1.9,2.7-3.1,4.4-4.3c1.1-0.8,2.3-1.4,3.5-2.2c1.2-0.8,2.4-1.7,3.6-2.5
		c1.3-0.8,2.6-1.4,3.8-2.3c1.8-1.3,3.4-2.8,4.6-4.6c1.3-1.9,2.5-3.8,3.7-5.8c0.6-0.9,1-1.9,1.5-2.8c0.5-0.9,0.9-1.9,1.4-2.8
		c0.4-0.7,0.8-1.5,1.1-2.2c0.2-0.5,0.3-1,0.5-1.5c1.2-3.2,2.5-6.3,3.7-9.5c0.8-2.1,1.4-4.3,2.1-6.5c0.4-1.3,1.2-2.5,1.4-3.9
		c0.4-2,0.5-4.1,0.6-6.1c0.1-1.2,0-2.5-0.1-3.7c-0.1-1.2-0.2-2.4-0.4-3.6c-0.5-2.6-1.1-5.1-2.4-7.5c-0.1-0.1-0.1-0.3-0.1-0.5
		c0.9,0.8,1.7,1.7,2.4,2.6c1.2,1.6,2.4,3.3,3.7,4.8C111.9,114.8,112.6,116.8,112.5,119.1z"/>
	<path class="st0" d="M65.2,115.5c-1.3-0.3-2.6-0.5-3.7-1.2c-2.2-1.5-4.3-3.2-6.4-5c-0.8-0.7-2-1.1-2.2-2.3c0-0.2-0.1-0.4-0.1-0.5
		c0.2,0,0.4-0.1,0.6,0c0.8,0.1,1.6,0.7,2.6,0.3c0.5-0.2,1-0.4,1.6-0.5c1.8-0.4,3.7-0.7,5.5-1.1c1.3-0.3,2.5-0.4,3.8,0
		c0.9,0.3,1.7,0.7,2.5,1.1c0.5,0.2,1,0.1,1.3-0.3c0.2-0.2,0.4-0.4,0.6-0.6c1-0.8,2.1-1.6,3.5-1.5c1.1,0.1,2.2,0.1,3.3,0.2
		c1.1,0.1,2.3,0.2,3.4,0.3c0.7,0.1,1.4,0.2,2.1,0.2c0.4,0,1,0.1,1.2-0.1c0.8-0.7,1.5-0.3,2.3-0.1c0.2,0.1,0.4,0.4,0.4,0.5
		c0,0.2-0.2,0.4-0.4,0.5c-0.3,0.2-0.6,0.3-0.9,0.5c-0.6,0.5-1.2,1-1.9,1.6c-1.3,1.1-2.6,2.1-3.8,3.2c-0.6,0.5-1.1,1.3-1.8,1.7
		c-2,1.3-4.2,2.2-6.5,2.9c-1.5,0.4-3.1,0.4-4.3,0.5C66.9,115.7,66,115.7,65.2,115.5z M61.8,113.6c1.5,1,3.4,1.4,5.2,1.3
		c1.7-0.1,3.5,0.1,5.1-0.4c2.2-0.6,4.4-1.3,6.3-2.7c0.6-0.4,1.1-1,1.6-1.5c1.5-1.3,3-2.5,4.6-3.8c0.2-0.1,0.3-0.3,0.6-0.6
		c-0.6,0.1-1.1,0.2-1.6,0.4c-1.6,0.4-3.2,0.9-4.8,1.3c-2.3,0.6-4.6,1.2-7,1.7c-2.5,0.5-5,0.7-7.6,0.4c-1.5-0.2-3-0.3-4.5-0.4
		c-1.2-0.1-2.4-0.1-3.6-0.6c-0.1,0-0.2,0-0.3,0c0,0.1-0.1,0.1-0.1,0.2C57.7,110.5,59.7,112.1,61.8,113.6z M77.5,104.7
		c-0.6-0.1-1.2-0.1-1.8-0.1c-1.8-0.2-3.1,0.5-4.2,1.8c-0.6,0.6-1.3,0.8-2.1,0.6c-0.5-0.1-1-0.4-1.4-0.6c-1.3-0.8-2.7-1-4.1-0.7
		c-2.1,0.5-4.1,0.9-6.2,1.4c-0.3,0.1-0.5,0.2-0.8,0.5c1,0.3,2,0.7,3,0.9c1.3,0.3,2.5,0.4,3.8,0.5c1.6,0.1,3.1,0.2,4.7,0.1
		c1.7,0,3.5-0.3,5.1-0.9c1.4-0.5,2.9-0.7,4.3-1c1.2-0.3,2.4-0.5,3.7-0.8c0.5-0.1,1.1-0.4,1.6-0.6c0.1-0.1,0.2-0.3,0.4-0.5
		C81.3,105.1,79.4,104.9,77.5,104.7z"/>
	<path class="st0" d="M78.1,72.8c-1.2-0.2-2.4-0.5-3.5-0.8c-0.2,0-0.4-0.2-0.5-0.4c0-0.1,0.1-0.3,0.3-0.4c0.7-0.5,1.5-0.9,2.2-1.4
		c0.9-0.6,1.9-1.1,2.7-1.8c0.8-0.7,1.7-1,2.7-1.1c2.6-0.2,5.2,0.1,7.6,1.2c1,0.4,2,0.7,2.9,1.1c0.2,0.1,0.4,0.4,0.4,0.5
		c-0.1,0.2-0.3,0.5-0.5,0.6c-1.4,0.5-2.9,1-4.3,1.5c-2.2,0.7-4.3,1.5-6.6,1.4C80.3,73.1,79.2,73,78.1,72.8z M80.3,68.6
		c-1.4,0.8-2.7,1.6-4,2.4c1.5,0.8,2.9,1.1,4.6,0.9C79.8,70.9,80.8,69.8,80.3,68.6z M87.2,71.2c1.2-0.5,2.3-1,3.5-1.5
		c0-0.1,0-0.2,0-0.3c-1.2-0.3-2.3-0.7-3.5-1C87.2,69.4,87.2,70.2,87.2,71.2z M85.1,69.4c0-0.4-0.4-0.8-0.9-0.8c-0.6,0-1,0.3-1,0.8
		c0,0.6,0.3,0.8,0.9,0.7C84.6,70.1,85.1,70,85.1,69.4z"/>
	<path class="st0" d="M55.5,72.4c0.7,0.4,1.4,1,2,1.5c0.1,0.1,0.2,0.6,0.1,0.7c-0.2,0.2-0.5,0.2-0.8,0.3c-0.6,0.1-1.3-0.1-1.9,0.1
		c-1.2,0.3-2.3,0.8-3.4,1.2c-1.1,0.3-2.1,0.7-3.2,0.9c-1.8,0.2-3.6-0.1-5.4-0.6c-0.9-0.3-2-0.2-3-0.3c-0.2,0-0.4-0.1-0.5-0.2
		c-0.1-0.1,0-0.4,0.2-0.5c0.9-0.7,1.8-1.3,2.7-1.9c1.1-0.7,2.1-1.6,3.5-1.9c1.2-0.2,2.3-1.2,3.5-0.9C51.6,70.7,53.6,71.4,55.5,72.4z
		 M45.3,72.7c-0.9,0.5-1.7,0.9-2.4,1.3c-0.3,0.1-0.6,0.2-0.8,0.4c-0.2,0.2-0.4,0.5-0.5,0.7c0.2,0.2,0.4,0.4,0.7,0.5
		c0.8,0.2,1.6,0.4,2.4,0.6c0.4,0.1,0.9,0.1,1.5,0.2C45.1,75.2,44.8,74.1,45.3,72.7z M55.7,73.7c-0.2-0.2-0.5-0.5-0.8-0.6
		c-0.9-0.4-1.8-0.8-2.7-1.1c-0.5-0.2-0.8,0.2-0.7,0.7c0.1,0.6,0.2,1.3,0.2,1.9C53.1,74.4,54.4,74.1,55.7,73.7z M48.5,72.7
		c-0.3,0.1-0.6,0.3-0.7,0.6c-0.1,0.3,0.6,1,0.9,0.8c0.3-0.1,0.4-0.4,0.7-0.7C49.3,72.8,48.9,72.6,48.5,72.7z"/>
	<path class="st0" d="M60.6,86.4c-0.3,0.4-0.7,0.7-1,1.1c-1,1.1-2,2.2-2.4,3.6c-0.6,2.3-0.3,3.5,1.8,4.8c0.8,0.5,1.5,0.7,2.5,0.4
		c1-0.2,1.9-0.1,2.8,0.7c1.3,1.1,2.8,1.3,4.5,1.1c1.8-0.3,3.1-1.4,4.4-2.5c0.5-0.4,1.2-0.7,1.8-1c1.3-0.6,2.6-1.1,3.8-1.6
		c1.4-0.6,1.4-1.8,1.3-3c-0.1-1.8-1.4-2.5-2.7-3.1c-0.2-0.1-0.4,0.1-0.6,0.1c0.1,0.2,0.2,0.5,0.3,0.6c0.5,0.4,1.2,0.7,1.7,1.2
		c1,1,0.7,3-0.6,3.6c-1.1,0.5-2.3,0.7-3.4,1.1c-0.8,0.4-1.6,0.9-2.4,1.4c-0.2,0.2-0.4,0.4-0.6,0.6c-1.4,1.6-3.2,1.8-5.1,1.7
		c-0.8-0.1-1.6-0.7-2.3-1.1c-1-0.6-2-0.8-3.1-0.6c-1.2,0.3-3.1-0.7-3.5-1.8c-0.4-1.1-0.2-2.3,0.5-3.3c0.7-1,1.5-1.9,2.2-2.8
		C61,87.3,61.2,86.9,60.6,86.4z"/>
	<path class="st0" d="M84,62.6c-2.8-0.2-5.4,0.7-8,1.2c-0.9,0.2-1.7,0.6-2.5,0.9c-0.3,0.1-0.6,0.6-0.5,0.8c0.1,0.4,0.5,0.6,1,0.5
		c1.1-0.4,2.2-0.8,3.4-1.1c2.9-0.8,5.9-1.1,8.9-0.8c1.9,0.2,3.8,0,5.6,0.6c0.2,0.1,0.5,0.1,0.7,0c0.3-0.2,0.6-0.4,0.8-0.6
		c-0.3-0.2-0.5-0.7-0.8-0.7c-1.8-0.2-3.6-0.4-5.4-0.6C86.1,62.7,85.1,62.7,84,62.6z"/>
	<path class="st0" d="M36.9,65.7c0.1,0.1,0.2,0.4,0.4,0.5c0.2,0.1,0.5,0,0.7-0.1c0.4-0.1,0.8-0.4,1.1-0.3c1.3,0.1,2.7,0.4,4,0.6
		c1.9,0.3,3.8,0.6,5.8,0.8c2.1,0.2,4.2,0.1,6.2,0.7c0.1,0,0.1,0,0.2,0c0.4,0,1,0.2,1.1-0.5c0.1-0.7-0.5-0.7-1-0.9
		c-2-0.6-4.1-0.6-6.2-0.7c-2.3-0.1-4.7-0.4-6.9-1c-1.5-0.4-3-0.6-4.5-0.2C37.5,64.6,36.9,64.8,36.9,65.7z"/>
</g>
</svg>
