<?xml version="1.0" encoding="utf-8"?>
<!-- Generator: Adobe Illustrator 19.2.1, SVG Export Plug-In . SVG Version: 6.00 Build 0)  -->
<svg version="1.1" id="Layer_1" xmlns="http://www.w3.org/2000/svg" xmlns:xlink="http://www.w3.org/1999/xlink" x="0px" y="0px"
	 viewBox="0 0 137.7 189" style="enable-background:new 0 0 137.7 189;" xml:space="preserve">
<style type="text/css">
	.st0{fill:#03A9F4;}
</style>
<g id="pharm-peter">
	<path class="st0" d="M136.9,161c-1.2-0.7-2.2-1.7-3.1-2.9c-1.2-1.7-2.7-3.2-4.1-4.7c-0.6-0.7-1.4-1.3-2-1.9
		c-1.4-1.5-2.8-2.9-4.1-4.4c-1.1-1.2-2-2.4-3.1-3.6c-1-1.2-2.1-2.3-3.4-3.2c-0.8-0.5-1.5-1-2.3-1.6c-0.9-0.7-1.9-1.5-2.7-2.3
		c-0.6-0.5-1.2-1.1-1.5-1.7c-0.7-1.3-1.3-2.8-1.7-4.2c-1.1-3.1-2.1-6.2-3.4-9.3c-0.2-0.5-0.5-1.1-0.5-1.7c0-1.9-1.1-3.1-2.5-4.1
		c-0.5-0.3-0.8-0.7-0.8-1.3c0-0.3,0.1-0.6,0-0.9c-0.4-1.5-0.2-3.1-0.1-4.6c0.1-1.5,0.3-3,0.4-4.5c0-0.3,0.1-0.6,0.2-0.9
		c0.1-0.4,0.2-0.7,0.2-1.1c0.1-0.8,0.5-1.3,1.4-1.4c0.1,0,0.3,0,0.4-0.1c0.7-0.2,1.4-0.5,2.1-0.6c0.6-0.1,1-0.4,1.3-0.9
		c0.6-0.9,1.2-1.9,1.8-2.8c1.1-1.5,2.3-3,3.4-4.6c0.7-1.1,1.4-2.3,1.7-3.6c0.6-2.3,1-4.6,1.5-6.9c0.2-0.9,0.2-1.8,0.4-2.6
		c0.2-1.4,0.5-2.8,0.7-4.2c0.1-1.1,0.3-2.2,0.2-3.2c-0.1-1.1-0.5-2.1-1.9-2.3c0.1-0.4,0.3-0.7,0.4-1.1c0.2-1.1,0.4-2.3,0.6-3.4
		c0.1-0.9,0.3-1.7,0.5-2.6c0.2-1.5,0.5-3,0.7-4.6c0.2-1.4,0.5-2.8,0.5-4.3c0.1-2.8,0.1-5.7,0.1-8.5c0-3.5,0.2-7.1-0.5-10.6
		c-0.3-1.5-0.5-2.9-1-4.4c-0.2-0.5-0.4-1-0.7-1.5c-0.5-0.8-1.2-1.6-1.7-2.5c-1.4-2.6-3.3-4.9-5.3-7c-1-1-2.2-1.9-3.3-2.8
		c-1.2-1-2.3-2-3.5-2.9c-0.5-0.4-1-0.8-1.5-1.1c-2.4-1.4-4.7-2.8-7.1-4.1C92.3,7,91,6.2,89.7,5.4c-0.2-0.1-0.3-0.2-0.5-0.4
		c-0.8-0.5-1.6-1.1-2.5-1.6c-2.5-1.4-5.2-1.8-8-2.2C77,1,75.3,0.8,73.5,0.6c-1.4-0.2-2.9-0.5-4.3-0.6c-2.9-0.1-5.8-0.2-8.7,0.2
		c-3,0.3-6.1,0.9-9,1.8c-2.6,0.7-5.1,2-7.2,3.8c-0.4,0.3-0.8,0.8-1.2,1c-0.4,0.2-0.9,0.3-1.3,0.5C40.5,8.2,39.2,9,38.1,10
		c-2,1.7-3.2,4-4.3,6.3c-1,2-1.9,4.1-3,6c-1,1.8-2.4,3.4-3.5,5.1c-0.5,0.7-1,1.6-1.1,2.4c-0.3,1.6-0.3,3.2-0.4,4.8
		c-0.1,3.3-0.2,6.6-0.2,9.8c0,1.1,0.1,2.3,0.1,3.4c0,1.9,0.1,3.8,0.1,5.7c0,1.6,0,3.1,0,4.7c0,2.5-0.2,5.1,0.4,7.4
		c-0.3,0.5-0.7,0.8-0.9,1.3c-0.9,2-1.2,4.2-1.2,6.3c-0.1,2.4,0.1,4.8,0.2,7.2c0,1,0.2,1.9,0.3,2.9c0.1,0.7,0.3,1.4,0.3,2.1
		c0.1,1.2,0.2,2.5,0.4,3.7c0.1,0.9,0.3,1.8,0.7,2.6c0.6,1.1,1.4,2.1,2.6,2.7c0.7,0.4,1.1,0.9,1,1.8c-0.1,0.9,0,1.9,0.1,2.8
		c0.1,0.8,0.3,1.5,0.4,2.3c0.3,1.9,0.6,3.8,0.9,5.6c0.5,2.5,1.5,4.8,2.6,7c0.6,1.2,1.4,2.4,2.3,3.5c1,1.2,2,2.5,2.6,4
		c1.3,2.8,2.7,5.5,4.1,8.3c-0.3,0.1-0.4,0.3-0.6,0.3c-1,0.2-1.9,0.4-2.9,0.5c-1.2,0.2-2.4,0.4-3.7,0.5c-1.6,0.2-3.1,0.2-4.7,0.4
		c-2.4,0.2-4.8,0.3-7.2,0.4c-1.2,0.1-2.4,0.2-3.5,0.7c-0.8,0.4-1.7,0.6-2.2,1.2c-1.2,1.4-2.3,3-3.4,4.5c-1,1.4-2.3,2.4-3.8,3.1
		c-1.3,0.6-2.6,1.2-3.8,1.9c-2.4,1.5-4.7,3.1-7.1,4.7v1.4c0.3-0.2,0.6-0.5,0.9-0.7c0.9-0.6,1.7-1.1,2.6-1.7c2.4-1.8,4.9-3.4,7.7-4.5
		c1.3-0.5,2.5-1.3,3.4-2.3c1.1-1.3,2-2.7,3-4.1c0.4-0.6,0.8-1.3,1.3-1.6c0.9-0.6,2-1.2,3.1-1.3c2-0.4,4-0.5,6-0.6
		c1.9-0.1,3.8-0.2,5.7-0.4c1.4-0.1,2.8-0.2,4.1-0.4c1.8-0.3,3.6-0.6,5.3-0.9c0.1,0,0.3-0.1,0.3,0c0.4,0.5,0.9,0.9,0.9,1.6
		c0,0.3-0.1,0.6-0.1,1c0,1.3,0,2.6,0,3.8c0,1.3-0.1,2.6-0.2,3.9c-0.3,1.7-0.6,3.4-1.1,5.1c-0.4,1.6-0.8,3.1-1.3,4.7
		c-0.4,1.2-1.1,2.2-1.5,3.4c-0.6,1.9-1.1,3.9-1.8,5.9c-1,3-1.4,6-1.6,9.1c0,0.4-0.1,0.8-0.1,1.2c0,0.9,0,1.7,0,2.6
		c0,0.1-0.1,0.2-0.1,0.3c0.1,0.9-0.3,1.6-0.9,2.3c-1.3,1.7-2.5,3.5-3.8,5.2c-1.8,2.5-3.6,5-5.3,7.5c-0.1,0.2-0.2,0.3-0.3,0.5
		c0.5,0,0.9,0,1.4-0.1c0.9-1.1,2.2-1.8,3.4-2.6c1.8-1.1,3.7-2,5.4-3.2c2.2-1.5,4.6-2.7,7-3.7c1.4-0.6,2.7-1.4,3.9-2.3
		c0.5-0.4,0.9-0.4,1.5-0.4c-0.1,0.7-0.2,1.2-0.3,1.8c-0.1,0.4-0.2,0.6-0.6,0.7c-0.4,0.1-0.7,0.5-1,0.8c-0.4,0.3-0.8,0.5-1.2,0.8
		c-1,0.7-2.1,1.4-3.1,2.1c-1.8,1.3-3.8,2.5-5.8,3.4c-1.5,0.7-2.9,1.5-4.4,2.3c3.9-0.1,7.7-0.2,11.6-0.3c0.5-0.4,1.1-0.8,1.7-1.1
		c0,0.2,0,0.3,0,0.3c-0.1,0.3-0.1,0.5-0.2,0.8c0.4,0,0.7,0,1.1,0c0-0.1,0-0.1,0.1-0.2c0.8-2.9,1.8-5.7,2.7-8.6
		c0.3-0.8,0.3-1.7,0.5-2.6c0.2-0.6-0.1-1.3,0.5-1.8c1-1,1.9-2.1,2.8-3.1c0.2-0.2,0.5-0.5,0.7-0.7c0.1,0.1,0.2,0.1,0.2,0.2
		c1.2,2.1,2.3,4.3,3.6,6.3c1.1,1.8,2.5,3.5,3.7,5.3c0.5,0.7,0.9,1.5,1.3,2.2c0.4,0.7,0.8,0.8,1.3,0.1c0.1-0.1,0.1-0.2,0.2-0.2
		c0.8-0.6,1.7-1.1,2.5-1.6c2.8-1.8,5.2-4.2,7.7-6.5c0.6-0.6,1.2-1.2,1.8-1.8c1.2-1.1,2.5-2.2,3.8-3.2c1.5-1.3,3-2.7,4.6-4
		c2.4-1.9,4.8-3.7,7.2-5.6c1.3-1,2.6-2.1,3.8-3.2c0.6-0.5,1.2-1,1.8-1.5c1.4-1.3,2.9-2.5,4.3-3.9c0.9-0.9,1.5-2,2.3-3.1
		c0.2-0.3,0.5-0.5,0.7-0.7c0.2-0.3,0.5-0.5,0.7-0.8c0.5-0.8,1-1.6,1.6-2.3c0.9-1.2,1.8-2.3,2.6-3.6c0.5-0.8,0.9-1.7,1.3-2.6
		c0.5-1.2,0.8-2.4,0.7-3.8c0.3,0.2,0.5,0.3,0.7,0.5c1,0.8,2,1.6,3,2.4c1,0.8,2.2,1.5,3.1,2.4c1,1,1.9,2.2,2.8,3.2
		c2.1,2.4,4.3,4.7,6.5,7.1c0.5,0.5,1,0.9,1.5,1.4c0.6,0.6,1.2,1.2,1.8,1.9c0.4,0.4,0.8,0.9,1.2,1.4c1.2,1.6,2.3,3.3,4.1,4.4
		c0.6,0.3,1,0.9,1.6,1.4c0-0.3,0-0.5,0-0.7C137.8,161.7,137.5,161.3,136.9,161z M107.1,84.1c0.4-1.2,0.8-2.4,1.2-3.6
		c0.1-0.2,0.1-0.4,0.2-0.6c0.7-1.6,1.4-3.1,2.1-4.7c0.1-0.2,0.2-0.3,0.3-0.5c0.4,1.3,0.8,2.6,1,3.9c0.2,1.1,0.1,2.3,0,3.4
		c-0.1,1.3-0.5,2.6-0.6,4c-0.1,1.3-0.8,2.1-2,2.6c-0.3,0.1-0.7,0.3-1,0.4c-0.7,0.2-1.2-0.1-1.2-0.9c0-1.1-0.1-2.3-0.1-3.4
		C107,84.4,107,84.3,107.1,84.1z M106.2,86c0,0.9,0,1.6,0,2.4c0,0.8,0.6,1.4,1.4,1.4c1.7,0,3-0.7,4-2c0.4-0.5,0.5-1.3,0.6-1.9
		c0.2-1,0.4-2,0.5-3c0.1-0.7,0.1-1.4,0.1-2.2c0.1-1.7-0.1-3.3-0.7-5c-0.3-0.7-0.3-1.6-0.5-2.4c0-0.1,0-0.2,0.1-0.2
		c0.6-0.8,1.3-1.6,1.9-2.4c0.5-0.7,1.4-0.6,2-0.5c0.6,0.1,0.7,0.9,0.8,1.5c0.2,1.1-0.2,2-0.4,3.1c-0.3,1.3-0.5,2.7-0.6,4.1
		c-0.3,2.8-0.8,5.6-1.5,8.3c-0.6,2.2-1.8,4.1-3.2,5.8c-1.2,1.6-2.3,3.3-3.4,4.9c-0.4,0.6-0.8,1-1.6,1.1c-0.9,0.1-1.8,0.4-2.7,0.6
		c-0.2,0-0.4,0-0.5,0C101.9,94.6,103,90,106.2,86z M26.4,67.3c0.1,0,0.1,0,0.2,0c0.4,1.6,0.8,3.1,1.3,4.7c-0.3,0.1-0.6,0.1-0.8,0.2
		c-0.6,0.2-1,0.6-1.2,1.2c-0.1,0.3-0.3,0.6-0.6,0.9C25.2,71.9,25.4,69.5,26.4,67.3z M25.3,77.9c0-1.1,0.3-2.3,1-3.2
		c0.2-0.3,0.3-0.7,0.5-1c0.2-0.3,0.4-0.5,0.7-0.6c0.3-0.1,0.5,0,0.5,0.3c0,0.4,0.1,0.8,0.1,1.2c0.1,0.8,0.2,1.6,0.3,2.4
		c0,0.1,0,0.2,0,0.2c0,1.7,0.1,3.5,0.1,5.2c0,0.1,0,0.2,0,0.4c-0.5,0-0.6,0.1-0.7,0.5c-0.1,0.4-0.5,0.8-0.8,1
		c-0.1,0.1-0.7-0.1-0.7-0.3c-0.3-0.6-0.6-1.3-0.7-1.9C25.4,80.8,25.3,79.3,25.3,77.9z M28.5,93.1c-0.7-0.7-1.5-1.5-1.8-2.6
		c-0.2-0.9-0.3-1.8-0.5-2.7c-0.1-0.8-0.2-1.7-0.2-2.4c0.5-0.1,1.1-0.1,1.5-0.3c0.4-0.2,0.8-0.6,1.1-0.9c0.3,3.1,0.6,6.3,0.9,9.6
		C29.1,93.5,28.7,93.3,28.5,93.1z M44.3,130.2c-0.6-0.8-1-1.8-1.5-2.8c-1.1-2.3-2.2-4.5-3.3-6.8c-0.8-1.7-1.9-3.1-3.1-4.4
		c-0.8-0.9-1.3-2-1.9-3.1c-1.3-2.3-2-4.9-2.6-7.5c-0.2-1.1-0.3-2.2-0.5-3.2c-0.2-1.1-0.4-2.1-0.6-3.2c-0.1-1-0.1-1.9-0.1-2.9
		c0-0.8,0.1-1.5-0.3-2.3c-0.1-0.3-0.1-0.6-0.1-0.9c-0.2-1.4-0.3-2.9-0.4-4.3c-0.1-1.1-0.2-2.2-0.2-3.2c-0.1-1.7-0.3-3.4-0.3-5.2
		c0-2-0.1-3.9,0.8-5.8c0.4-0.9,0.4-1.9,0.6-2.8c0.1-0.9,0.3-1.7,0.4-2.6c0.1-1.1,0.3-2.2,0.4-3.3c0.2-1.3,0.3-2.5,0.4-3.8
		c0.1-0.6,0.1-1.1,0.1-1.7c-0.1-2.2,0.7-4.1,1.7-5.9c0.9-1.6,1.4-3.2,1.7-5c0.5-2.7,0.3-5.4-0.5-8.1c-0.5-1.7-0.3-3.3,0.3-4.9
		c0.4-1.2,0.8-2.5,1.5-3.6c0.2-0.4,0.3-1,0.5-1.3c0.7-1.1,1.9-1.6,3.1-1.9c1-0.3,1.9-0.5,2.9-0.7c1.1-0.2,2.1-0.4,3.2-0.4
		c1.7-0.1,3.4,0,5.1,0c0,0,0-0.1,0-0.1c0.9,0,1.8,0,2.7,0c1.1,0,2.2,0.2,3.2,0.8c0.4,0.3,0.9,0.3,1.4,0.5c0.3,0.1,0.5,0.3,0.7,0.4
		c0.8,0.7,1.6,1.4,2.4,2.1c1.3,1.4,3.5,1.7,5.3,0c1.1-1,2.1-2.1,3.6-2.4c1.8-0.4,3.5-0.7,5.3-1c1.5-0.2,3-0.4,4.6-0.5
		c1.8-0.1,3.5,0,5.3,0.2c1.6,0.2,3.2,0.4,4.7,0.5c1,0.1,2,0.1,2.9,0.7c0.6,0.4,1.2,0.9,1.8,1.4c0.6,0.5,1.2,0.9,1.9,1.4
		c0.8,0.6,1,1.6,1.1,2.4c0.2,1.8,0.3,3.6,0.2,5.4c0,1.2-0.3,2.5-0.4,3.7c0,0.1,0,0.1,0,0.2c0,1.4-0.1,2.8-0.1,4.2
		c0,1.3,0.4,2.6,1.1,3.7c0.3,0.5,0.5,1.1,0.8,1.6c0.8,1.6,1.6,3.2,2.5,4.7c0.4,0.8,0.9,1.6,1.2,2.4c0.3,0.9,0.4,1.8,0.6,2.7
		c0.1,0.5,0.2,1,0.3,1.5c0,0.4,0.1,0.8-0.1,1.2c-0.4,1.3-1,2.5-1.4,3.8c-0.6,2-0.9,4-0.7,6.1c0.1,0.8,0.4,1.6,0.7,2.4
		c0.6,1.7,0.9,3.4,0.8,5.2c0,0.8,0,1.7,0,2.5c0,0.7-0.2,1.2-0.6,1.8c-0.3,0.4-0.5,0.9-0.8,1.3c-0.1,0.1-0.1,0.3-0.1,0.4
		c0,1.5-0.4,3-0.6,4.5c-0.1,0.8-0.1,1.6-0.2,2.4c-0.1,2-0.1,3.9-0.5,5.9c-0.5,2.3-1.3,4.5-2.1,6.8c-0.6,1.7-1.5,3.4-2.3,5
		c-0.5,0.9-1.2,1.6-1.8,2.3c-1.3,1.4-2.6,2.8-3.9,4.2c-1.3,1.4-2.8,2.5-4.4,3.5c-2.5,1.5-5.1,2.9-7.7,4.4c-2.2,1.3-4.4,2.8-6.6,4.2
		c-2.2,1.4-4.5,2.7-7.1,3.1c-1.2,0.2-2.5,0.1-3.8,0.1c-0.7,0-1.3,0-2-0.1c-2.3-0.1-4.7-0.2-7-0.8c-0.5-0.1-1-0.2-1.6-0.2
		c-1.3,0-2.5-0.5-3.4-1.4C46.3,132.5,45.2,131.4,44.3,130.2z M100.7,108.4c0,0.6-0.1,1.3-0.1,1.9c-0.1,4.8-0.3,9.7-0.3,14.5
		c0,1.1-0.4,1.8-1,2.5c-0.9,1-1.9,2-2.9,3c-1.4,1.4-2.9,2.5-4.6,3.6c-1.8,1.2-3.5,2.6-5.3,3.9c-2.6,2-5.4,3.4-8.3,4.9
		c-2.3,1.1-4.6,2.4-6.9,3.6c-1.4,0.7-2.8,1.4-4.3,2c-1.7,0.7-3.3,1.5-5,2.1c-0.8,0.3-1.7,0.5-2.6,0.7c-0.7,0.2-1.4,0.5-2.1,0.8
		c-1.6,0.7-3.2,1.5-4.9,2.3c-1-1.3-1.9-2.5-2.9-3.7c-1.2-1.6-1.8-3.3-1.8-5.3c0-1.4-0.4-2.6-0.6-4c-0.3-1.4-0.4-2.8-0.7-4.2
		c-0.2-0.8-0.5-1.6-0.7-2.4c-0.1-0.4-0.2-0.7-0.3-1.1c0,0,0.1,0,0.1-0.1c0.5,0.5,1.1,0.9,1.6,1.4c0.7,0.7,1.6,0.9,2.5,1
		c1.3,0.1,2.6,0.4,3.8,0.6c0.5,0.1,1.1,0.2,1.6,0.2c3.2,0.1,6.3,0.3,9.5,0.3c0.8,0,1.7-0.2,2.5-0.5c1.7-0.5,3.2-1.3,4.7-2.3
		c1.8-1.2,3.7-2.3,5.5-3.4c2.3-1.4,4.6-2.7,6.9-4.1c1.7-1,3.5-2,5.1-3.3c1.4-1.1,2.5-2.4,3.7-3.7c0.6-0.6,1.1-1.2,1.7-1.8
		c0.6-0.6,1.1-1.3,1.7-2c1.8-1.9,2.4-4.5,3.5-6.8c0.2-0.4,0.3-0.9,0.6-1.4C100.7,108.1,100.7,108.3,100.7,108.4z M38.2,164.9
		c0.7-2.8,1.4-5.6,2.2-8.3c0.4-1.3,1-2.6,1.6-3.9c0.9-1.8,1.4-3.7,1.8-5.7c0.4-1.8,0.8-3.6,1.1-5.4c0.2-1.5,0.2-3,0.3-4.4
		c0-0.2,0-0.4,0-0.6c0.1,0,0.1,0,0.2,0c0.1,0.8,0.2,1.5,0.4,2.3c0.3,1.8,0.7,3.5,1,5.3c0,0.2,0.1,0.5,0.1,0.7
		c-0.2,2.5,0.7,4.7,2.2,6.7c0.7,1,1.5,2,2.3,3.1c-0.4,0.2-0.7,0.3-1.1,0.5c-0.8-1-1.7-0.6-2.6-0.4c-1.5,0.5-2.7,1.3-3.5,2.7
		c-0.7,1.2-1.8,2.1-2.4,3.3c-1,1.7-1.9,3.6-2.8,5.3c-0.2,0.4-0.4,0.8-0.7,1.2c-0.1,0-0.1,0-0.2,0C38,166.5,38,165.7,38.2,164.9z
		 M43.7,175.7c-1.1-0.2-2.1-0.4-3.2-0.7c-0.9-0.2-1.8-0.5-2.6-0.7c-0.2,0-0.4-0.3-0.4-0.4c0.1-1.2,0.1-2.3,0.4-3.5
		c0.2-0.8,0.7-1.6,1.1-2.4c1.3,2.8,2.2,5.7,4.8,7.5C43.7,175.5,43.7,175.6,43.7,175.7z M50.8,173c-0.1,0.1-0.5,0-0.6-0.1
		c-1.2-0.8-2.3-1.8-3.2-3c-1.2-1.4-2.3-3-3.1-4.7c-0.4-0.8-0.6-1.8-0.9-2.6c-0.1-0.5-0.2-1-0.3-1.5c0,0,0-0.1,0.1-0.2
		c0.5-0.6,0.9-1.2,1.5-2c0.6,5.6,3.7,9.4,8.1,12.4C51.8,172,51.3,172.6,50.8,173z M110.1,140c-0.6,2-1.9,3.7-3.1,5.3
		c-0.6,0.8-1.1,1.7-1.7,2.5c-0.4,0.6-0.9,1.1-1.4,1.7c-0.2,0.3-0.5,0.5-0.7,0.8c-1.3,2.1-3,3.9-4.9,5.5c-1.2,1.1-2.4,2.1-3.6,3.1
		c-1.1,1-2.3,1.9-3.4,2.8c-2.4,1.9-4.9,3.7-7.2,5.6c-1.8,1.4-3.5,2.9-5.2,4.5c-2.2,1.9-4.3,3.9-6.4,5.8c-1.5,1.3-3,2.7-4.6,4
		c-0.7,0.6-1.6,1.1-2.4,1.7c-0.4,0.3-0.9,0.6-1.3,0.9c-0.2,0.2-0.4,0.1-0.6,0c-1.3-0.9-1.9-2.3-2.7-3.5c-0.7-1-1.5-1.9-2.2-2.9
		c-1.5-2.4-2.9-4.8-4.2-7.4c-0.8-1.7-1.8-3.2-2.5-4.9c-0.8-1.8-1.6-3.7-2.3-5.6c-0.4-1-0.3-2-0.1-3.1c0-0.1,0.2-0.3,0.3-0.3
		c2.9-1,5.6-2.4,8.4-3.6c0.9-0.4,1.9-0.5,2.8-0.9c1.8-0.7,3.6-1.4,5.3-2.1c1.8-0.8,3.7-1.6,5.5-2.5c1.8-0.9,3.6-1.9,5.4-2.9
		c1.6-0.8,3.3-1.6,4.9-2.5c1.3-0.7,2.6-1.4,3.8-2.2c1.9-1.3,3.7-2.8,5.6-4.2c1.2-0.9,2.4-1.7,3.6-2.6c0.4-0.3,0.9-0.7,1.3-1.1
		c1-1,2-2,3-3c1-1,1.9-2,2.6-3.2c0.8-1.3,1.6-2.6,2.5-4c0.2,0.6,0.5,1.2,0.7,1.8c0.5,1.3,1,2.5,1.5,3.8c0.9,2.4,1.7,4.8,2.6,7.2
		c0.2,0.6,0.7,1.1,1.1,1.6c0.1,0.1,0.2,0.2,0.2,0.3C110.4,137.5,110.5,138.8,110.1,140z"/>
	<path class="st0" d="M80.8,60.8c3.1,0.1,5.7,0.5,8.3,1.7c1.2,0.5,2.5,0.8,3.7,1.2c0.9,0.3,1.7,0.8,2.4,1.4c0.3,0.3,0.5,1.4,0.3,1.7
		c-0.2,0.3-0.5,0.5-0.9,0.3c-1-0.4-2.1-0.8-3.1-1.3c-2.2-1-4.5-2.1-7-1.8c-2.7,0.3-5.5-0.1-8.1,0.6c-1,0.3-2,0.7-3,1
		c-0.5,0.1-1.1,0.2-1.6,0.1c-0.7-0.1-0.9-0.7-0.5-1.3c0.8-1.1,1.9-1.7,3-2.1c1.3-0.5,2.6-0.9,3.9-1.3C79.2,60.9,80.2,60.9,80.8,60.8
		z"/>
	<path class="st0" d="M78.6,108.7c-0.4,0.1-0.7,0.1-1.1,0.2c-0.3,0-0.6,0-0.8,0.1c-1.7,0.9-3.3,1.9-5,2.9c-0.3,0.2-0.6,0.4-0.9,0.7
		c-1.4,1.4-3.1,2-5,2.2c-1.5,0.2-3,0.5-4.5,0.4c-2.2-0.1-4.4-0.2-6.6-0.6c-1.7-0.3-3.3-1.1-4.6-2.3c-0.6-0.6-1.4-1.1-2-1.7
		c-0.6-0.6-1.1-1.4-1.7-2.1c-0.9-1.2-2.1-1.6-3.5-1.3c-0.1,0-0.1,0.1-0.2,0.1c-0.2-0.1-0.4-0.2-0.6-0.3c0.2-0.2,0.3-0.4,0.5-0.5
		c1.1-0.3,2.2-0.2,3.1,0.4c0.5,0.3,0.9,0.4,1.4,0.4c1.7,0,3.4,0,5,0c1.2,0,2.3-0.1,3.5-0.1c1.2,0.1,2.4,0.3,3.6,0.4
		c0.9,0.1,1.8,0.3,2.6,0.3c1.6,0.1,3.2,0,4.8,0.1c1.7,0.1,3.4,0.3,5.1,0.6c1.3,0.2,2.5,0,3.8-0.2c0.8-0.1,1.7-0.1,2.5-0.1
		c0.2,0,0.3,0.2,0.5,0.2C78.6,108.5,78.6,108.6,78.6,108.7z M73.7,109.7C73.7,109.6,73.7,109.6,73.7,109.7c-0.4-0.1-0.8,0-1.1,0
		c-0.7,0.1-1.4,0.3-2,0.4c-0.9,0.1-1.8,0.2-2.8,0.2c-1.4,0.1-2.8,0.4-4.3,0.4c-2.2,0.1-4.4,0.2-6.6-0.4c-1.2-0.3-2.4-0.5-3.6-0.9
		c-1.9-0.7-3.9-1.3-6.1-1.1c0.4,0.5,0.6,1.1,1.1,1.5c0.7,0.7,1.5,1.2,2.2,1.9c1.3,1.2,2.7,2,4.4,2.3c2,0.3,4,0.6,6,0.6
		c2,0,4.1-0.2,6.1-0.6c1-0.2,2-0.7,2.8-1.3c1.1-0.7,2-1.5,3-2.3C73.1,110.1,73.4,109.9,73.7,109.7z M71.3,109.3c0-0.1,0-0.1,0-0.2
		c-0.3,0-0.5-0.1-0.8-0.1c-1.6-0.2-3.3-0.4-4.9-0.5c-1.7-0.1-3.4,0-5.1,0c-0.2,0-0.4,0-0.6-0.1c-1-0.2-2-0.5-3-0.6
		c-1.9-0.1-3.8,0-5.6,0c0,0,0,0.1,0,0.2c0.8,0.3,1.6,0.6,2.4,0.8c1.8,0.5,3.6,1,5.5,1.2c1.4,0.2,2.9,0.2,4.3,0.1
		c1.5-0.1,2.9-0.3,4.4-0.4C68.9,109.5,70.1,109.4,71.3,109.3z"/>
	<path class="st0" d="M52.3,64.1c-0.7-0.4-1.5-0.7-2.2-1.2c-0.7-0.4-1.5-0.7-2.3-0.7c-1.8-0.1-3.6,0.5-5.3,0.7
		c-1.3,0.2-2.5,0.5-3.7,1c-0.2,0.1-0.5,0.2-0.7,0.3c-0.9,0.7-1.9,0.8-2.9,1c-0.4,0.1-0.9,0-1.3-0.1c-0.4-0.1-0.7-0.5-0.8-1
		c0-0.5,0.4-0.5,0.6-0.6c1.3-0.6,2.6-1.2,3.9-1.8c2.7-1.2,5.5-1.7,8.5-1.7c2,0,3.9,0.4,5.8,1c0.7,0.2,1.2,0.8,1.8,1.3
		c0.1,0,0.1,0.2,0.1,0.2c0,0.5-0.9,1.4-1.5,1.4C52.3,64,52.3,64,52.3,64.1z"/>
	<path class="st0" d="M37.8,70.6c0.9-0.6,1.8-1.2,2.8-1.7c0.8-0.4,1.7-0.8,2.5-1.1c1.6-0.6,3.2-0.6,4.8-0.3c1.4,0.3,2.7,0.8,3.8,1.7
		c0.2,0.1,0.3,0.3,0.4,0.4c0.6,0.7,1.2,1.5,1.8,2.3c0.1,0.2,0.3,0.5,0.2,0.6c-0.1,0.2-0.4,0.3-0.6,0.3c-0.3,0-0.7-0.1-1-0.1
		c-1.7,0-3.5-0.1-5.2-0.1c-2.2,0-4.3-0.4-6.4-1c-0.5-0.2-1-0.5-1.5-0.7C39.3,71,39.1,71,39,71C38.3,71.4,38.3,71.4,37.8,70.6z
		 M48.3,71.6c0,0.1,0,0.1,0.1,0.2c1.3,0,2.6,0,3.9,0c-0.6-1.3-1.3-2.6-3-2.9C48.8,69.7,49.4,71,48.3,71.6z M42.8,68.9
		c-1.1,0.2-2,0.7-3,1.6c1.2,0.4,2.2,0.9,3.5,1C42.6,70.6,43,69.7,42.8,68.9z M46,69.8c0.4,0,0.8-0.3,0.7-0.6
		c-0.1-0.4-0.4-0.7-0.8-0.7c-0.3,0-0.6,0.4-0.7,0.7C45.3,69.5,45.6,69.8,46,69.8z"/>
	<path class="st0" d="M71.4,74c0.2-0.6,0.3-1,0.8-1.2c2.2-0.8,4.4-1.8,6.6-2.5c1.5-0.5,3.1-0.3,4.6,0.4c1.9,1,3.8,2.1,5.6,3.2
		c0.2,0.1,0.4,0.4,0.6,0.7c0.1,0.1,0,0.3-0.1,0.4C89.4,75,89.2,75,89.1,75c-0.6-0.2-1.2-0.5-1.9-0.4c-1.1,0.2-2.3,0.3-3.4,0.6
		c-1.3,0.4-2.6,0.4-3.9,0.1c-1.4-0.3-2.8-0.8-4.1-1.2c-1-0.4-2-0.4-3-0.2C72.3,74,71.9,74,71.4,74z M78.9,74.4
		c-0.6-1.4-0.6-1.3-0.5-2.8c0-0.1-0.2-0.4-0.3-0.4c-0.5,0.1-1,0.2-1.5,0.5c-0.4,0.2-0.8,0.5-1.2,0.8c-0.2,0.2-0.5,0.3-0.7,0.5
		C76.2,73.4,77.5,73.9,78.9,74.4z M83.6,74.4c0.4-0.1,1-0.1,1.5-0.2c0.4-0.1,0.9,0,1.3-0.1c0.2,0,0.5-0.2,0.5-0.4
		c0.1-0.1-0.1-0.4-0.3-0.5c-0.8-0.4-1.7-0.8-2.5-1.1C84,72.8,83.8,73.6,83.6,74.4z M80.9,72.9c0.6,0,1-0.4,1-0.8
		c0-0.5-0.4-0.6-0.7-0.6c-0.4-0.1-0.9,0.4-0.9,0.9C80.3,72.7,80.5,72.9,80.9,72.9z"/>
	<path class="st0" d="M68.2,97.8c-1,0-2.1-0.1-3.1,0c-0.7,0.1-1.3,0.5-2,0.7c-0.3,0.1-0.6,0.3-0.9,0.5c-1.2,0.9-2.6,0.9-4,0.6
		c-1.2-0.2-2-1-3-1.7c-0.9-0.6-1.8-1.3-2.8-1.7c-0.6-0.3-1.4-0.2-2.1-0.4c-0.6-0.1-1.2-0.2-1.7-0.5c-1-0.6-1-2.6-0.5-3.4
		c0.4-0.6,0.9-1.2,1.5-1.8c0.1-0.1,0.4-0.1,0.6-0.1c0,0.2,0,0.4-0.1,0.6c-0.4,0.5-0.8,1-1.2,1.5c-0.4,0.6-0.4,1.2-0.2,1.9
		c0.1,0.6,0.5,1.1,1.2,1.1c0.7,0.1,1.4,0.2,2.1,0.3c1.3,0.2,2.3,1,3.3,1.7c0.7,0.5,1.3,1.1,2.1,1.5c1.4,0.7,2.9,0.8,4.3-0.1
		c0.6-0.4,1.1-0.7,1.7-1c1.2-0.6,2.6-0.5,3.9-0.6c1,0,2.1-0.1,3.1-0.2c1.7-0.2,2.6-2.1,2.3-3.4c-0.1-0.6-0.3-1.3-0.6-1.9
		c-0.3-0.8-0.9-1.3-1.6-1.8c-0.1-0.1-0.1-0.4-0.1-0.5c0.1-0.3,0.4-0.3,0.6-0.1c0.5,0.6,1.2,1.1,1.5,1.8c0.4,0.7,0.6,1.5,0.8,2.3
		c0.5,2-0.9,4.3-3.2,4.4C69.5,97.6,68.9,97.7,68.2,97.8C68.2,97.7,68.2,97.8,68.2,97.8z"/>
</g>
</svg>
