<?xml version="1.0" encoding="utf-8"?>
<!-- Generator: Adobe Illustrator 19.2.1, SVG Export Plug-In . SVG Version: 6.00 Build 0)  -->
<svg version="1.1" id="Layer_1" xmlns="http://www.w3.org/2000/svg" xmlns:xlink="http://www.w3.org/1999/xlink" x="0px" y="0px"
	 viewBox="0 0 176.1 200" style="enable-background:new 0 0 176.1 200;" xml:space="preserve">
<style type="text/css">
	.st0{fill:#E91E63;}
</style>
<g id="pharm-justin-red">
	<path class="st0" d="M176.1,160c-0.9-0.7-1.8-1.4-2.7-2.1c-1.3-1.2-2.5-2.6-3.9-3.7c-2-1.6-4.2-3.1-6.3-4.7
		c-0.1-0.1-0.2-0.1-0.3-0.2c-2.6-1-4.8-2.5-7.1-4c-0.6-0.4-1.3-0.5-2-0.6c-1.6-0.2-3-1-4.3-1.7c-2.5-1.4-5-2.9-7.5-4.4
		c-1.9-1.2-3.9-2.4-6-3.4c-2.3-1.1-4.4-2.5-6.6-3.7c-1.1-0.6-2.3-1.2-3.4-1.8c-0.2-0.1-0.4-0.3-0.6-0.4c-0.7-0.7-0.8-0.7-1.3,0.1
		c-0.7,1.1-1.4,2.2-2.1,3.3c-1.4,2.3-3,4.5-4.9,6.6c-2.3,2.5-4.7,4.8-6.5,7.7c-1,1.6-1.8,3.3-2.8,4.8c-2,3.1-4,6.3-6.1,9.4
		c-1.2,1.8-2.8,3.4-4.1,5.2c-1.5,2.2-2.8,4.5-4.3,6.7c-1,1.5-2.2,2.8-3.2,4.3c-1.9,3.1-3.7,6.3-5.5,9.4c-0.4,0.7-0.7,1.3-0.8,2.2
		c0,0.7-0.7,0.9-1.5,0.9c-0.6,0-1,0-1.1-0.8c-0.1-0.4-0.6-0.8-1-1.1c-1.8-1.5-3.7-3-5.6-4.5c-0.9-0.7-1.8-1.3-2.6-1.9
		c-0.6,0.6-1,1-1.5,1.5c-1.6,1.9-3.2,3.8-4.9,5.6c-1,1-2.2,1.8-3.3,2.6c-0.5,0.4-1,0.8-1.4,1.2c-0.2,0.2-0.2,0.5-0.3,0.8
		c0,1.6,0,3.2,0,4.8c0,0.7-0.2,1.4-0.3,2c-7.4,0-14.7,0-22.1,0c0.3-0.8,0.6-1.7,1-2.5c0.8-1.6,1.4-3.3,2.5-4.7c1.6-2,3.3-4,4.5-6.3
		c0.1-0.2,0.3-0.5,0.2-0.7c-0.5-1.3-1-2.6-1.6-4c-0.9,0.7-1.7,1.3-2.4,2.1c-0.9,1.1-1.5,2.4-2.3,3.5c-0.8,1.2-1.7,2.3-2.5,3.4
		c-0.3,0.4-0.7,0.7-1.2,0.3c-0.5-0.3-0.6-0.7-0.4-1.3c0.6-1.3,1.2-2.6,1.9-3.9c1.5-2.8,3.1-5.5,4.4-8.3c1-2.2,1.7-4.6,2.4-7
		c0.5-1.5,0.8-3,1.2-4.6c-0.1,0-0.2-0.1-0.3-0.1c-0.1,0.1-0.2,0.1-0.2,0.2c-0.2,0.2-0.4,0.4-0.6,0.6c-1.5,1.8-3.3,3.3-5.4,4.1
		c-3.8,1.5-7.7,2.9-11.5,4.1c-3.8,1.2-7.7,2.3-11,4.7c-2.5,1.8-4.9,3.9-6.8,6.3c-1.3,1.7-2.7,3.4-4,5.1c-2,2.7-3.3,5.9-4.9,8.9
		c-0.5,0-1.1,0-1.6,0c1.5-2.9,2.7-5.9,4.4-8.7c1.5-2.4,3.4-4.5,5.2-6.7c1.1-1.4,2.4-2.7,3.7-3.9c2.5-2.3,5.3-4.2,8.5-5.3
		c3.7-1.3,7.4-2.3,11-3.6c2.5-0.9,4.9-1.9,7.3-3c2-1,3.6-2.6,5-4.3c1-1.3,1-2.7,0.6-4.1c-1.2-4.5-1-9.1-1-13.6
		c0-1.2,0.3-2.5,0.5-3.7c0.2-1.6-0.4-3-0.6-4.5c-0.3-1.8-0.8-3.5-1.8-5c-0.9-1.3-2-2.5-3.2-3.6c-1.8-1.6-3.3-3.4-4.7-5.3
		c-1-1.5-2-2.9-3.1-4.2c-1.3-1.5-2.6-3-3.5-4.8c-0.6-1.1-1.2-2.1-1.7-3.2c-0.5-1-1-2-1.5-3c-0.6-1.3-1.1-2.6-1.7-3.9
		c-0.1-0.2-0.2-0.5-0.4-0.6c-2.1-1.2-3-3-3.1-5.3c0-0.4-0.2-0.8-0.2-1.3c0-4-0.7-7.8-1.5-11.7c-0.6-2.9-1.7-5.7-2.4-8.6
		c-0.5-2-0.9-4.2-1.1-6.3c-0.2-2.2,0.6-2.8,2.7-2.9c0-0.6,0-1.3,0-1.9c0-1.5,0-3.1,0-4.6c-0.1-3.7-0.2-7.3-0.9-11
		c-0.3-1.6-0.3-3.2-0.7-4.8c-0.5-1.8-1.3-3.5-1.9-5.2c-0.6-1.7-0.7-3.4-0.6-5.3c0.2-3,1.8-5.2,3.4-7.6s3.3-4.8,4.9-7.2
		c1-1.6,1.9-3.2,3-4.8c1.2-1.8,2.6-3.3,4.3-4.6c1.2-0.9,2.3-2,3.5-2.8c1.5-0.9,3.1-1.6,4.6-2.5c1.7-1,3.2-2.1,4.8-3.1
		c2.1-1.3,4.5-2,7-2.4c1-0.2,2.1-0.5,3.1-0.7c1.3-0.2,2.6-0.4,3.9-0.5c3.9-0.1,7.8-0.1,11.7,0C69.5,0,72,0.3,74.4,0.7
		c1.8,0.3,3.5,1.2,5.2,2.2c2.6,1.6,5.3,3,8,4.5c2.1,1.2,4.3,2.2,5.7,4.3c0.2,0.2,0.4,0.3,0.6,0.5c2.6,1.5,4.4,3.7,5.6,6.5
		c0.8,1.6,1.6,3.2,2.4,4.9c1.1,2.3,2,4.7,2.2,7.3c0.3,3.5,0.8,7,1.3,10.5c0.5,3.7,0.8,7.4,0.8,11.1c0,1.2-0.2,2.4-0.3,3.6
		c0,0.3,0,0.5,0,0.9c0.6-0.1,1.2-0.1,1.8-0.1c2.7,0,4.6,1.7,4.7,4.4c0.1,1.5,0.1,2.9,0.2,4.4c0.1,3.2,0.3,6.4,0.3,9.5
		c0,1.6-0.3,3.2-0.5,4.9c-0.1,1.1-0.1,2.2-0.3,3.3c-0.2,1.7-0.5,3.3-0.9,5c-0.5,2.4-2.1,4-4.3,4.9c-0.7,0.3-1.3,0.5-2.2,0.9
		c0.1,0.8,0.1,1.6,0.2,2.5c0.3,2.4,0.6,4.8,0.9,7.2c0.1,0.5,0.1,1,0.2,1.5c0.2,0.9,0.9,0.9,1.6,1.2c1.4,0.5,2.7,1.1,3.8,2.3
		c2.6,2.8,4.1,6.2,6.3,9.2c1.4,1.9,2.9,3.8,4.4,5.7c0.7,0.9,1.2,1.9,2.1,2.5c2,1.5,3.9,3.2,6.2,4.1c1,0.4,1.8,1.3,2.8,1.8
		c1.5,0.8,3,1.6,4.5,2.4c1.7,0.9,3.7,1.6,5.2,2.9c1,0.9,2.1,1.6,3.2,2.3c2.6,1.4,5,3.3,8.1,3.9c1,0.2,2,0.9,3,1.4
		c1.5,0.8,3,1.5,4.5,2.3c4.9,2.7,6.4,4,9.4,6.8c1.5,1.4,3.1,2.8,4.7,4.2C176.1,158.7,176.1,159.4,176.1,160z M58.5,162.3
		c0.8-0.7,1.5-1.3,2.2-2c0.9-0.9,1.7-1.9,2.6-2.6c2.7-2,5.1-4.3,7.6-6.6c2.2-2.1,4.4-4.2,6.4-6.4c2.4-2.6,5.4-4.7,8.2-6.8
		c1-0.7,2.1-1.3,3.1-2c0.4-0.3,0.7-0.7,1.1-1c2.7-2.2,5.3-4.5,7.3-7.4c0.9-1.4,2.1-2.5,3.1-3.8c2.1-2.7,4.2-5.5,6.4-8.3
		c0.5-0.7,0.6-1.4,0.3-2.2c-0.5-1.4-1-2.8-1.3-4.3c-0.5-2.5-0.9-5.1-1.3-7.6c-0.3-1.7-0.4-3.4-0.7-5.2c0-0.2-0.2-0.3-0.4-0.7
		c-0.2,1.8-0.5,3.4-0.5,5c0,2.2-0.3,4.4-1.2,6.4c-0.2,0.5-0.5,1-1,0.7c-0.2-0.1-0.4-0.8-0.3-1.1c1.1-2.2,1.2-4.6,1.3-7
		c0-1.3,0.3-2.5,0.4-3.8c0.1-0.9,0.4-1.9,0.1-2.6c-1-2.4-1.7-4.8-2.4-7.2c-0.9-3.1-0.7-6.2-0.7-9.4c0-2.7,0.3-5.4,0.3-8.1
		c0-1.5-0.3-3-0.5-4.5c-0.3-1.5-0.5-3-1.2-4.4c-1-2-2.2-3.8-3.4-5.7c-1.4-2.1-2.8-4.2-4.6-6c-0.6-0.6-1.1-1.5-1.6-2.2
		c-0.1-0.2-0.2-0.5-0.2-0.7c0-1.6-0.1-3.3,0.6-4.8c0.2-0.4,0.1-1,0.1-1.5c0-0.2-0.1-0.4,0-0.6c0.5-0.6,0.1-1.2,0-1.7
		c-0.2-0.7-0.4-1.3-0.5-2c-0.3-1.9-1.5-3.3-2.7-4.5c-3.1-3-7.3-3.6-11.3-4.5c-2-0.4-3.9-1.2-5.9-1.8c-0.1,0-0.1-0.1-0.2-0.1
		c-1.2-1.1-2.7-1.5-4.3-1.4c-0.9,0-1.7,0.3-2.5,0.3c-3.6,0.1-7.1,0.1-10.5-1.3c-2.4-1-4.8-0.8-7.2,0.1c-2.6,1.1-5.1,2.4-7.7,3.4
		c-2,0.8-3.9,1.5-5.7,2.8c-1.2,0.9-2.4,1.7-3.7,2.2c-2.5,1-4,2.9-4.8,5.3c-0.7,2-1.3,4-1.8,6.1c-0.6,2.6-1,5.2-1.5,7.7
		c-0.2,1-0.2,2.1-0.1,3.1c0,0.9,0.4,1.8,0.4,2.7c0.2,2.1,0.3,4.3,0.3,6.4c0.1,3.8,0.1,7.7,0.2,11.5c0,0.1,0,0.3,0,0.4
		c1,4.2,1.5,8.5,2.1,12.8c0.4,2.7,0.9,5.4,1.4,8.2c0.3,1.5,0.6,3.1,0.8,4.6c0.3,1.5,0.3,3.1,1,4.6c0.2,0.5,0.3,1,0.5,1.5
		c0.1,0.5,0.2,1,0.4,1.5c0.5,1.2,1.1,2.4,1.6,3.6c1.3,3.3,3,6.3,5.5,8.9c0.9,0.9,1.8,1.9,2.4,3.1c1.2,2,2.8,3.7,4.3,5.4
		c1.7,1.8,3.5,3.5,5.2,5.2c0.2,0.2,0.4,0.3,0.6,0.5c1.6,1.1,3.2,2.2,4.8,3.3c1.2,0.8,2.3,1.8,3.6,2.5c2.9,1.6,5.9,1.9,9.1,1
		c1.4-0.4,2.8-1.1,4.2-1.4c2.8-0.5,5.2-1.7,7.8-2.8c2.3-0.9,4.1-2.6,6.1-4.1c1.1-0.8,2.3-1.5,3.2-2.4c1.5-1.6,2.8-3.5,4.2-5.2
		c1.3-1.6,2.6-3.3,3.9-4.9c0.3-0.4,0.7-0.6,1.1-0.2c0.4,0.3,0.2,0.7-0.1,1c-1.6,2-3.2,3.9-4.6,6c-1.7,2.4-3.6,4.5-5.9,6.2
		c-1.5,1-2.9,2.3-4.4,3.1c-2,1.1-4.1,2-6.2,3c-0.7,0.3-1.3,0.7-2,1c-1.7,0.5-3.4,0.9-5.1,1.5c-1.7,0.6-3.4,0.9-5.2,1
		c-2.3,0-4.4-0.3-6.4-1.5c-1.5-0.9-2.9-2-4.3-3c-1.1-0.7-2.2-1.5-3.5-2.3c0.5,1.9,0.9,3.5,1.5,5.1c0.5,1.4,0.6,2.9,2,3.9
		c0.1,0.1,0.2,0.2,0.2,0.3c0.2,0.7,0.3,1.3,0.5,2c0.4,1.5,0.7,3.1,1.3,4.5c1.3,3.2,2.7,6.4,5.2,9C56.5,160,57.4,161.1,58.5,162.3z
		 M82.5,187.7c0.7-1.3,1.4-2.5,2-3.6c1.3-2.3,2.6-4.7,4-6.9c1.5-2.3,3.3-4.5,4.8-6.9c1.2-1.8,2.3-3.8,3.6-5.5
		c1.1-1.5,2.5-2.9,3.5-4.5c2.2-3.2,4.3-6.5,6.4-9.8c1-1.5,1.8-3.2,2.8-4.7c1.8-2.9,4.2-5.1,6.4-7.6c1.2-1.4,2.4-2.8,3.4-4.3
		c1.4-2,2.6-4.1,3.9-6.2c-4.4-5.1-8.1-10.8-11.7-16.6c-0.4,0.6-0.6,1-0.9,1.4c-0.4,0.5-0.9,0.8-1.2,1.3c-1.2,1.7-2.3,3.4-3.5,5
		c-1.3,1.8-2.6,3.6-4.1,5.2c-1.8,2.1-3.8,4.1-5.7,6.1c-0.1,0.2-0.4,0.3-0.4,0.5c-0.7,1.6-2,2.8-3.2,3.9c-2,1.8-3.9,3.6-6.3,5
		c-2.3,1.4-4.6,2.8-6.4,4.9c-1.6,1.7-3.2,3.4-4.8,5c-1.3,1.3-2.6,2.5-4,3.7c-1.9,1.7-3.8,3.4-5.7,5c-1,0.9-2.1,1.8-3.2,2.7
		c-0.9,0.8-1.8,1.7-2.7,2.6c-0.3,0.3-0.9,0.7-0.9,1.1c-0.1,0.7-0.1,1.6,0.3,2.2c1,1.5,2.2,3,3.4,4.3c1.6,1.7,3.3,3.2,4.9,4.8
		c1.2,1.1,2.4,2.1,3.7,3.1c1.5,1.2,3.2,2.2,4.7,3.4C78.1,183.9,80.2,185.8,82.5,187.7z M111.2,67c0.1,0,0.2,0,0.3,0
		c-0.1-2.1-0.2-4.1-0.4-6.2c0-0.4-0.3-0.8-0.6-1.1c-1.3-1.6-2.9-1.4-4.6-0.9c-0.4,0.1-0.8,0.5-1.1,0.9c-0.4,0.5-0.7,1-1.1,1.5
		c-1.4,1.5-2.4,3.3-2.6,5.3c-0.4,3.2-0.3,6.4-0.4,9.7c0,0.7-0.1,1.3-0.1,2c0,1.7,0,3.3,0.1,5c0.1,0.9,0.5,1.9,0.6,2.8
		c0.3,2,1,3.8,1.8,5.6c0.1,0.2,0.3,0.4,0.5,0.5c2.5,0.6,5.3-0.9,6.1-3.4c0.6-2,0.9-4.1,1.3-6.2c0.1-0.6,0.1-1.3,0.1-2
		c-0.7,0.8-1.5,1.5-2.1,2.3c-1.2,1.7-3,1.8-4.8,1.6c-0.6-0.1-1.1-0.6-1.1-1.3c-0.1-1.5-0.1-2.9,1-4.1c0.9-1,0.5-2.3-0.8-2.7
		c-0.5-0.2-0.8-1-0.4-1.4c0.5-0.5,0.3-1,0.2-1.6c-0.1-0.5-0.3-0.9-0.3-1.4c0-0.3,0.2-0.5,0.2-0.8c0.3,0.1,0.7,0.2,0.8,0.5
		c0.3,0.8,0.4,1.6,0.6,2.3c0.2,0.6,0.4,1.5,0.8,1.8c0.9,0.6,0.9,1.4,0.9,2.3s-0.6,1.5-0.9,2.2s-0.4,1.5-0.5,2.3
		c0,0.1,0.2,0.4,0.3,0.4c0.8-0.2,1.7-0.2,2.2-0.6c1.1-1,2.2-2.2,2.8-3.7c0.2-0.4,0.5-0.8,1.1-0.6c0.1,0,0.4-0.3,0.4-0.4
		c0-2.2,0-4.3,0-6.5c0-0.1-0.2-0.4-0.3-0.4c-0.7-0.1-0.8-0.8-1-1.3c-0.6-1.9-1.2-3.7-1.8-5.6c-0.1-0.4-0.4-0.8-0.6-1.2
		c-1,0.5-1.5,1.2-1.8,2.2c-0.1,0.2-0.3,0.4-0.5,0.4c-0.3,0-0.7-0.1-0.8-0.3c-0.1-0.3-0.2-0.9,0-1.1c0.6-0.8,1.2-1.6,2-2.3
		c0.9-0.8,1.9-0.7,2.6,0.4c0.4,0.6,0.6,1.2,0.8,1.9C110.5,64.7,110.9,65.8,111.2,67z M44.3,177.8c0.1,0,0.1,0.1,0.2,0.1
		c0.1-0.1,0.1-0.2,0.2-0.3c0.9-2,1.7-4.1,2.6-6.1c0.6-1.4,1.2-2.7,1.9-4.1c0.8-1.6,2.1-2.3,4-2.2c1.1,0.1,2.2,0,3.2,0
		c0.2,0,0.7-0.1,0.7-0.2c0.1-0.3,0.1-0.7-0.1-1c-0.9-1.3-1.8-2.5-2.8-3.8c-0.8-1.1-1.8-2.1-2.5-3.3c-1.7-2.8-3-5.9-3.6-9.1
		c-0.2-1.1-0.6-2.2-0.9-3.2c-0.1,0-0.2,0-0.3,0c-0.1,1-0.4,2-0.4,3c-0.1,2.7-0.2,5.4,0,8.1c0.2,2.6,0.7,5.1,1.1,7.6
		c0.4,2.5-0.1,4.8-0.8,7.2C46.1,172.9,45.1,175.3,44.3,177.8z M23.1,103.3c-0.2-0.6-0.4-1-0.5-1.5c-0.4-2.2-0.8-4.3-1.1-6.5
		c-0.3-1.8-0.6-3.7-0.9-5.5c-0.4-2.3-0.8-4.7-1.2-7c-0.3-1.9-0.5-3.8-0.8-5.6c-0.3-2-1-3.9-0.8-6c0.1-0.7-0.4-0.7-0.9-0.7
		s-1,0-0.9,0.7c0.1,0.8,0.2,1.7,0.3,2.5c0.2,1.9,0.4,3.9,1.3,5.6c1,2.2,1.3,4.5,1.9,6.8c0.8,3.1,1.3,6.3,1.5,9.5
		c0.1,1.5,0.1,3.1,0.4,4.6C21.5,101.4,21.9,102.5,23.1,103.3z M107,107.9c-0.1,0.1-0.2,0.1-0.2,0.2c0.5,1.4,0.9,2.9,1.4,4.3
		c0.1,0.2,0.3,0.5,0.6,0.6c0.1,0.1,0.4-0.1,0.5-0.2c0.4-0.6,0.8-1.2,1-1.9c0.1-0.5,0.1-1.2-0.2-1.5
		C109.4,108.3,108.2,108.1,107,107.9z"/>
	<path class="st0" d="M78,101.3c-1.1-0.4-2.1-0.7-3.2-0.9c-1.8-0.3-3.7-0.6-5.5-1c-2.2-0.5-4.4-0.5-6.6,0c-1.3,0.3-2.6,0.9-3.9,1.3
		c-1.3,0.4-2.5,1-3.9,0.9c-1-0.1-2-0.3-3-0.3c-2.3-0.1-4.5,0.5-6.6,1.4c-2.1,0.9-4.1,1.8-6.2,2.7c-0.4,0.2-0.6,0.5-0.4,0.8
		c0.5,0.6,1,1.2,1.5,1.7c0.6,0.7,1.4,1.3,1.9,2c1.6,2.4,2.7,5.1,4.8,7.3c1.6,1.5,3.3,2.7,5.3,3.2c1.4,0.4,2.9,0.4,4.3,0.5
		c1.4-0.1,2.6-0.2,3.8-0.3c1.3-0.2,2.5-0.6,3.8-0.8c2.5-0.4,4.5-1.7,6.4-3.2c1.5-1.2,2.5-2.9,3.2-4.8c0.7-1.9,1.7-3.8,2.4-5.7
		c0.5-1.3,1.1-2.6,2-3.7C78.4,102,78.6,101.5,78,101.3z M73.8,104.3c-0.3,1.1-1.3,2-2.3,2.7c-0.1,0.3-0.3,0.5-0.4,0.7
		c-2.1,2.2-4.4,4.3-7.2,5.5c-1.3,0.5-2.7,0.7-4.1,0.8c-1.7,0-3.5-0.3-5.2-0.3c-1.6-0.1-3-0.4-4.4-1.2c-0.7-0.4-1.4-0.8-2.1-1.2
		c-0.8-0.3-1.5-0.7-1.8-1.4c-0.1,0-0.2-0.1-0.3-0.2c-0.4-0.2-0.8-0.5-1.1-0.8c-0.4-0.4-0.7-0.7-0.8-1c5.6,0.8,11.3,1.4,17,0.4
		c3.1-0.5,6-1.6,8.8-2.9c1.4-0.6,2.7-1.3,4.1-2C73.9,103.7,73.9,104,73.8,104.3z M46.1,103.2c1.7-0.4,3.4-0.9,5.1-1.1
		c1-0.1,2,0.1,3,0.3c1.5,0.4,2.7-0.2,4-0.6c1.6-0.5,3.2-1.2,4.9-1.6c1.3-0.3,2.7-0.2,4.1-0.2c0.2,0,0.5,0.2,0.7,0.5
		c-1,0.3-2.1,0.6-3.1,0.8c-2.1,0.5-4.1,0.8-6.2,1.2c-2.3,0.4-4.6,0.6-7,0.5c-2.2-0.1-4.3,0.2-6.2,1.4
		C45.1,103.5,45.8,103.3,46.1,103.2z M45.5,105.4c0.1-0.2,0.2-0.3,0.4-0.4c1.4-0.7,2.9-1.3,4.5-1.2c1.2,0.1,2.5,0.1,3.7,0
		c1.9-0.2,3.9-0.4,5.9-0.7c2.9-0.5,5.7-1.2,8.6-1.7c1-0.1,2.1,0,3.3,0c0,0,0,0,0,0.1c0.7,0.1,1.3,0.5,1.7,1.1
		c-0.6,0.3-1.5,0.7-1.8,0.8c-1.3,0.7-2.7,1.3-4.1,1.9c-2.8,1.1-5.6,2-8.6,2.3c-5,0.6-10.1,0-15.1-0.7
		C44.2,106.2,44.8,105.7,45.5,105.4z M73.6,109.7c-0.3,0.7-0.6,1.5-0.9,2.2c-0.9,1.8-1.7,3.5-3.5,4.6c-1.6,0.9-3.1,1.9-4.9,2.4
		c-3.5,1-7,1.3-10.5,1c-2.6-0.2-4.8-1.6-6.6-3.6c-2.2-2.3-3.3-5.3-5-7.9c0.1-0.1,0.1-0.1,0.2-0.2c0.6,0.4,1.3,0.8,1.7,1.3
		c1.3,1.7,3.3,2.4,5,3.4s3.6,1.7,5.7,1.7c1.7,0,3.4,0.3,5.1,0.3c3.1-0.1,5.7-1.3,8.1-3.2c0.8-0.6,1.7-1.2,2.4-1.9
		c0.7-0.7,1.2-1.4,1.8-2.1c0.6-0.6,1.2-1.1,1.8-1.7c0.3-0.3,0.6-0.6,0.9-1c0.3-0.3,0.5-0.7,0.8-1c0.1,0.1,0.2,0.1,0.3,0.2
		C75.2,106,74.4,107.8,73.6,109.7z"/>
	<path class="st0" d="M84.3,66.3c-0.2,0.7-0.5,0.9-1.2,0.5c-0.7-0.5-1.2-0.4-1.9-0.1c-1.2,0.4-2.4,0.6-3.6,0.9
		c-1.4,0.4-2.8,0.7-4.2,1.1c-0.5,0.1-1,0.1-1.4,0.1c-2.2,0-4.4-0.1-6.6-0.2c-0.8,0-1.6-0.1-2.4-0.2c-0.3-0.1-0.8-0.3-0.9-0.6
		c-0.1-0.3,0-0.8,0.2-1c1.2-1,2.5-2.1,3.8-3c1.4-1,2.9-1.8,4.7-2c2-0.2,4-0.8,5.9-0.1c2,0.8,4.1,1.2,5.6,2.9
		C82.7,65.4,83.5,65.8,84.3,66.3z M69.8,67.9c-1.2-1.3-2-2.4-1.1-4.2c-2.2,1-3.7,2.4-5.4,3.5c0,0.1,0,0.2,0.1,0.3
		C65.4,67.6,67.5,67.7,69.8,67.9z M74.8,67.5c1.9-1,4.2-0.9,6.1-2.1c-1-1.1-4-1.8-5.4-2.2C76.2,65.3,75.9,66.2,74.8,67.5z"/>
	<path class="st0" d="M33.8,73.3c-1.3,0-2.6,0-4,0c-1,0-2.1,0.2-3.1,0.3c-0.3,0-0.7,0-1-0.1c0.1-0.3,0-0.7,0.2-1
		c2.1-3.4,5.3-5.1,9.2-5.7c2.5-0.4,4.7,0.2,6.7,1.5c0.8,0.5,1.6,0.9,2.3,1.4c0.3,0.2,0.7,0.6,0.7,0.9s-0.5,0.6-0.8,0.8
		c-0.5,0.3-1.1,0.4-1.7,0.6C39.7,73.1,37.6,73.6,33.8,73.3z M27.8,72c0.6,0.5,4.6,0.7,6.3,0.3c-0.9-1.2-1.2-2.4-0.2-3.7
		C32.6,68.1,29.1,70.1,27.8,72z M43.2,70.2c-1.6-0.9-3-1.8-4.8-2c0.7,1.4,0.7,2.7-0.2,3.9C40,72,41.5,71.3,43.2,70.2z"/>
	<path class="st0" d="M73.9,54.9c3.4-0.5,6.5,0.7,9.4,2.1c1.2,0.6,2.4,1.4,3.1,2.6c0.1,0.2,0.1,0.6,0.1,0.8c-0.3,0-0.7,0.2-0.9,0.1
		c-0.8-0.3-1.5-0.8-2.3-1.2c-1.5-0.7-3-1.4-4.5-2c-0.6-0.2-1.2-0.4-1.8-0.5c-1.8-0.2-3.5-0.2-5.4,0.1c-2.2,0.4-4.2,1.2-6,2.3
		c-1.6,0.9-3,2-4.5,3c-0.1,0.1-0.2,0.2-0.2,0.2c-0.3,0.6-0.8,0.7-1.3,0.3c-0.6-0.4-0.2-0.9,0.1-1.2c2.7-2.7,5.6-5.2,9.4-6.3
		c1.6-0.4,3.2-0.4,4.9-0.6C73.9,54.7,73.9,54.8,73.9,54.9z"/>
	<path class="st0" d="M53,95.1c-1.5,0.1-2.6-0.4-3.7-1.3c-1.7-1.3-3.5-2.2-5.6-2.6c-1-0.2-2.1-1.6-2.1-2.6c0-1.3,0.1-2.5,1-3.5
		c0.3-0.3,0.6-0.7,1-0.2c0.1,0.2-0.1,0.7-0.3,0.9c-1.1,1.2-1.1,3.3,0.1,4.2c0.4,0.3,1.1,0.4,1.6,0.6c2,0.6,3.6,1.6,5.3,2.8
		c1.3,0.9,2.7,1,4.1,0.5c1.1-0.4,2.1-1.1,3-1.9c0.9-0.9,2-1.7,3-2.4c0.6-0.4,1.4-0.4,2.1-0.6c0.6-0.1,1.2-0.1,1.8-0.2
		c0.7-0.2,1.3-0.4,1.7-1.3c1-2.2-0.3-4.7-2.5-5.8c-0.2-0.1-0.5-0.2-0.6-0.3c-0.2-0.2-0.3-0.6-0.3-0.8c0.1-0.2,0.5-0.4,0.7-0.3
		c1.8,0.5,4.1,3.4,4.1,5.2c0,1.2-0.3,2.4-1.1,3.3c-0.5,0.5-1.3,0.7-2,0.9c-0.9,0.3-1.8,0.3-2.7,0.5c-0.4,0.1-0.7,0.3-1,0.5
		c-1.3,1-2.5,2.1-3.8,2.9C55.6,94.4,54.4,95.3,53,95.1z"/>
	<path class="st0" d="M35.6,62.1c1.6,0,3.2,0,4.9,0c1.1,0,1.7,0.7,2.3,1.4c0.1,0.2,0.1,0.7-0.1,0.8c-0.3,0.2-0.8,0.4-1.1,0.4
		c-0.8-0.1-1.6-0.5-2.4-0.7c-1.8-0.4-3.7-0.3-5.5-0.1c-1.7,0.2-3.3,0.4-5,0.8c-1,0.2-1.9,0.6-2.8,1s-1.7,0.9-2.6,1.2
		c-0.3,0.1-0.7,0-1-0.1c0.1-0.3,0.1-0.8,0.3-1c1-0.7,2-1.4,3.1-1.8C28.9,62.9,32.2,62.3,35.6,62.1z"/>
</g>
</svg>
