<?xml version="1.0" encoding="utf-8"?>
<!-- Generator: Adobe Illustrator 19.2.1, SVG Export Plug-In . SVG Version: 6.00 Build 0)  -->
<svg version="1.1" id="Layer_1" xmlns="http://www.w3.org/2000/svg" xmlns:xlink="http://www.w3.org/1999/xlink" x="0px" y="0px"
	 viewBox="0 0 282.4 300" style="enable-background:new 0 0 282.4 300;" xml:space="preserve">
<style type="text/css">
	.st0{fill:#E91E63;}
</style>
<g id="pharm-justin-red">
	<path class="st0" d="M0,239.9c0.8-0.9,1.6-1.7,2.3-2.6c1.5-1.8,2.9-3.6,4.4-5.3c1.1-1.3,2.2-2.6,3.3-3.8c1.5-1.6,3.2-3,5.1-4.1
		c3.1-1.7,6.1-3.5,9.3-5c2.9-1.4,5.9-2.6,8.9-3.8c1.9-0.8,3.8-1.5,5.7-2.2c3.3-1.1,6.6-2,9.8-3.2c1.9-0.7,3.6-1.8,5.4-2.7
		c2-1,4-1.9,5.8-3.2c2.5-1.7,5.2-3,8-4.2c1.8-0.8,3.8-1.2,5.7-1.8c2.1-0.7,4.2-1.5,6.4-2.2c-0.4-0.7-0.8-1.3-1.1-1.9
		c-0.7-1.5-1.4-2.9-2-4.5c-0.8-2.1-1.7-4.2-3.1-6c-1-1.3-1.5-2.9-2.1-4.4c-0.6-1.3-0.6-1.4-1.8-0.8c-1.5,0.7-3,0.2-4.4-0.4
		c-3.3-1.6-6-3.9-7.8-7.1c-1-1.9-1.9-3.8-3.1-5.6c-1.4-2-2.3-4.2-2.8-6.6c-0.8-3.2-2.3-6.1-3.8-9c-0.8-1.6-2-2.9-2.8-4.5
		c-1.7-3.4-3.3-6.8-4.7-10.3c-0.7-1.8-0.5-3.7,1.1-5.1c0.3-0.3,0.6-0.6,0.8-1c0.1-0.2,0.1-0.5,0-0.7c-1-1.7-1.9-3.5-3.2-4.9
		c-1.8-1.9-2.9-4.2-4.2-6.3c-1.6-2.8-3.4-5.5-4.8-8.4c-1.2-2.5-2.2-5.1-3.1-7.8c-0.8-2.4-1.4-5-2-7.5c-0.1-0.2,0-0.5,0-0.8
		c0-2.7,0-5.3,0-8c0-2.3-0.1-4.6-0.2-6.9c-0.1-1.4-0.2-2.8-0.3-4.2c-0.2-2.8,0.4-5.6,1.1-8.3c0.6-2.3,0.8-4.6,1.3-6.9
		c0.3-1.5,0.8-3,1.2-4.5c0.6-2.3,1-4.6,1.7-6.8c0.5-1.6,1.2-3.1,2-4.5c2.2-3.6,4.4-7.1,6.7-10.6c1.1-1.6,2.4-3.2,3.8-4.5
		c1.6-1.5,3.4-2.7,5.1-3.9c3.6-2.5,7.2-5,10.8-7.3c3.3-2.1,6.6-4,9.9-6c0.6-0.4,1.4-0.6,2-0.9c1.2-0.6,2.5-1.1,3.7-1.8
		c0.9-0.5,1.8-0.7,2.7-0.8c0.8-0.1,1.5-0.5,2.3-0.7c2.7-0.9,5.3-1.8,8-2.6c2.4-0.7,4.9-1.3,7.4-1.8c1.2-0.3,2.4-0.4,3.6-0.4
		c2-0.1,4-0.1,6-0.2c4.2-0.1,8.3,0,12.5-0.2c3-0.1,5.8,0.6,8.6,1.5c3.5,1.1,7,2.1,10.4,3.1c0.8,0.3,1.6,0.6,2.4,1.1
		c1.7,1,3.6,1.4,5.4,2c3.8,1.2,7.3,2.9,10.7,5c2.4,1.5,4.8,3,6.7,5.1c1.7,1.9,3.1,4.1,4.2,6.4c0.6,1.4,1.5,2.7,2.8,3.8
		c1.5,1.3,2.8,2.9,4.1,4.4c0.8,1,1.5,2.1,2.1,3.2c0.4,0.8,0.6,1.8,0.9,2.7c0.2,0.5,0.5,1,0.8,1.4c1.2,1.4,1.4,3.1,1.9,4.8
		c0.9,2.7,1.9,5.4,2.8,8.2c0.7,2,1.4,4,1.9,6c0.5,1.9,0.8,4,1.1,5.9c0.4,2.5,0.8,5,1.3,7.4c0.3,1.8,0.9,3.5,1.2,5.3
		c0.3,1.7,0.4,3.4,0.6,5.2c2.2-0.3,3,1.4,3.6,2.9c1,2.1,1.6,4.5,2.6,6.6c1.1,2.4,1,5,1.7,7.5c0.7,2.9,1.4,5.7,2,8.6
		c0.4,1.9,0.8,3.8,1.2,5.7c0.4,1.7,0.9,3.5,1.2,5.2c0.5,2.7,0.7,5.4,0.3,8.1c-0.3,1.8-0.5,3.7-1,5.4c-0.8,2.8-2.5,5.1-5.5,5.9
		c-0.7,0.2-1.5,0.3-2.2,0.4c-0.6,0.1-1.2,0.2-0.9,1.2c0.5,1.8,0.8,3.7,1.2,5.6c0,0.1,0,0.4,0.1,0.4c1.3,0.7,1.8,2.1,2.8,3
		c1.4,1.3,2.9,2.7,4.3,4.1c0.7,0.6,1.4,1.2,2.1,1.9c1.9,1.7,3.7,3.5,5.6,5.2c0.7,0.7,1.3,1.6,2.1,2.2c1.6,1.3,3.2,2.6,4.8,3.9
		c2.5,2,5,4,7.6,6c1,0.7,2.1,1.2,3.1,2c1.5,1.1,2.9,2.4,4.3,3.5c0.4,0.3,0.8,0.5,1.3,0.7c0.7,0.4,1.4,0.7,2.2,1
		c2,0.9,3.9,1.8,5.9,2.7c1.7,0.8,3.4,1.6,5.2,2.2c4.6,1.5,9.2,2.9,13.8,4.3c2.9,0.9,5.9,1.6,8.9,2.6c1.8,0.6,3.5,1.5,5.2,2.4
		c3.2,1.7,6.3,3.5,9.5,5.3c0.6,0.3,1.2,0.8,1.9,1c1.1,0.5,1.2,1.3,1,2.4c-0.5-0.3-0.9-0.5-1.4-0.8c-1.2-0.6-2.4-1.3-3.6-1.9
		c-1.2-0.7-2.5-1.4-3.7-2.1c-2.2-1.2-4.4-2.4-6.6-3.6c-2.4-1.4-5.1-1.8-7.7-2.6c-1.9-0.6-3.9-1.3-5.8-1.9c-2.7-0.9-5.5-1.6-8.2-2.5
		c-2.8-0.9-5.7-1.6-8.3-3c-1.4-0.7-2.9-1.3-4-1.8c1.4,1.5,3.1,3.3,4.8,5c3.2,3.3,6.3,6.7,8.2,10.9c1.5,3.4,3,6.9,4.3,10.4
		c0.7,1.7,1,3.5,1.5,5.2c0.9,2.8,1.9,5.6,2.6,8.4c0.6,2.1,0.8,4.2,1.2,6.3c0.3,1.5,0.6,3,0.9,4.6c0.3,1.5,0.4,3,0.7,4.5
		c0.2,1.3,0.4,2.5,0.5,3.8c0.2,1.3,0.4,2.7,0.6,4c0,0.3,0.1,0.6,0.2,0.8c0.5,0.6,0.2,1-0.3,1.3c-2.6,1.5-5.1,3.1-8.1,4
		c-1.5,0.5-3,1.1-4.5,1.5c-0.8,0.2-1.8,0.2-2.6,0.3c-0.6,0.1-1.3,0.4-1.9,0.5c-1.1,0.2-2.2,0.5-3.3,0.5c-4.5,0.2-9.1,0.4-13.6,0.5
		c-0.1,0-0.2,0-0.3,0c-1.1,0.3-2.2,0.7-3.4,1.1c1.4,1.7,2.7,3.5,4.2,5.2c1.8,2,3.3,4.2,4.7,6.5c0.9,1.5,2,2.8,3.1,4.2
		c1.3,1.6,2.6,3.1,3.9,4.6c0.6,0.7,1.2,1.4,1.9,2.2c1.1,1.2,2.2,2.4,3.3,3.7c0.6,0.7,0.5,1.4-0.2,2.1c-0.5,0.5-0.8,1-1.3,1.5
		c-2.2,2.1-4.3,4.3-6.5,6.3c-1.2,1.1-2.7,2-4,3.1c-1.4,1.2-2.7,2.4-3.9,3.7c-0.8,0.9-1.8,0.7-2.9,0.7c0.7-0.8,1.3-1.6,2-2.3
		c2.2-1.9,4.4-3.7,6.6-5.6c0.5-0.4,1-0.7,1.4-1.2c1.7-1.7,3.5-3.3,5.2-5c0.8-0.8,1.5-1.7,2.3-2.6c-1.2-1.3-2.4-2.5-3.5-3.8
		c-1.4-1.6-2.7-3.2-4-4.8c-1.3-1.6-2.7-3.2-3.9-4.9c-0.8-1-1.4-2.2-2.1-3.3c-0.9-1.3-1.9-2.7-3-3.9c-2-2.3-3.9-4.6-5.5-7.2
		c-0.5-0.8-1.1-1.4-1.8-2.1c-1.5-1.5-3-3-4.4-4.6c-0.5-0.5-0.9-1.1-1.2-1.8c-0.1-0.3,0-0.7,0.1-1.1c0.4,0.1,1.1,0,1.2,0.2
		c0.9,1.9,2.5,3.1,3.7,4.6c0.3,0.3,0.6,0.6,0.9,0.9c0.7,0.7,1.3,1.5,2,2.2c0.2,0.2,0.5,0.6,0.7,0.5c0.9,0,1.9,0,2.8-0.3
		c0.9-0.4,1.9-0.5,2.8-0.6c1.8,0,3.6,0,5.4-0.1c2.9-0.1,5.9-0.3,8.8-0.5c1-0.1,1.9-0.6,2.9-0.8c1.4-0.3,2.8-0.4,4.2-0.7
		c1.5-0.4,3-1,4.5-1.6c1.8-0.8,3.5-1.8,5.2-2.7c0.4-0.2,0.6-0.5,0.5-0.9c-0.2-1.2-0.4-2.4-0.6-3.6c-0.3-2.3-0.6-4.7-1-7
		c-0.3-2-0.7-4-1.1-5.9c-0.6-2.9-1.1-5.9-1.8-8.8c-0.4-1.6-1-3.1-1.5-4.7c-0.6-2-1.2-4-1.9-6c-0.5-1.6-1.1-3.1-1.7-4.7
		c-0.9-2.2-1.9-4.5-3-6.6c-1.2-2.5-2.7-4.9-4.6-6.9c-1.9-2-3.8-4-5.8-5.9c-1.8-1.7-3.6-3.3-5.5-5c-1-1-2-2-3.1-2.9
		c-1.2-1-2.4-1.8-3.7-2.7c-1.2-0.8-2.4-1.6-3.5-2.5c-1.9-1.4-3.7-2.9-5.6-4.3c-2-1.6-4.1-3.2-6-4.9c-2.5-2.3-4.8-4.7-7.3-7
		c-2.1-1.9-4.2-3.8-6.3-5.7c-0.5-0.5-1-1.1-1.6-1.7c0.1,1,0.1,2.1,0.2,3.1c0.1,1.4,0.4,2.9,0.5,4.3c0.1,2.1,0.1,4.3,0.2,6.4
		c0,0.2,0.1,0.3,0.2,0.5c1.4,1.5,2.9,2.9,4.3,4.4c1.8,1.9,3.2,4,4.3,6.3c1.7,3.5,2.9,7.2,3.5,11c0.3,1.8,0.3,3.7,0.5,5.6
		c0.2,1.5,0.5,2.9,0.7,4.4c0.1,0.5,0.1,1.1,0.1,1.7c0,2,0,4.1-0.2,6.1c-0.1,1.2-0.6,2.5-0.8,3.7c-0.1,0.8-0.1,1.7-0.2,2.6
		c0,2-0.6,3.8-1.7,5.5c-1.9,3.2-3.8,6.5-5.6,9.8c-1,1.8-1.9,3.7-2.9,5.5c-1.2,2-2.5,3.8-3.7,5.8c-1.3,2-2.6,4-3.3,6.4
		c-0.2,0.7-0.6,1.2-0.9,1.9c-0.7,1.8-1.3,3.6-2,5.3c-0.3,0.7-0.7,1.4-1,2.1c-1.1,2.3-2,4.7-3.2,6.9c-1.7,3.4-3.7,6.7-5.3,10.1
		c-1.4,2.9-2.6,6-3.9,9.1c-1.1,2.6-2.1,5.2-3.1,7.8c-0.9,2.6-1.7,5.3-2.4,8c-0.6,2.2-1,4.5-1.5,6.7c-0.6,0-1.1,0-1.6,0
		c0.3-1.5,0.7-2.9,1-4.4c0.3-1.5,0.7-2.9,1-4.4c0.3-1.4,1.2-2.6,1.3-4.3c-1.2,0.9-5.8,9.4-7.2,13.1c-0.2,0-0.5,0-0.7,0
		c-8.8,0-17.7,0-26.5,0c-0.6,0-0.9-0.1-1.2-0.7c-1.2-2.5-2.3-5-3.6-7.5c-1.3-2.7-2.7-5.4-4.1-8.1c-1.5-3-3.4-5.8-5.5-8.4
		c-0.4-0.5-0.8-0.9-1.3-1.3c-0.2-0.1-0.4-0.2-0.8-0.1c3.5,8.5,6.2,17.2,8.7,26.1c-0.1,0-0.2,0.1-0.2,0.1c-1.4,0.1-1.3,0-1.7-1.3
		c-0.7-2.2-1.4-4.4-2.1-6.6c-0.7-2.3-1.2-4.7-2.1-6.9c-1.5-4-3.1-7.9-4.7-11.8c-0.4-1-0.6-2-1-3c-1.3-3.7-2.4-7.4-3.9-11.1
		c-1.3-3.2-2.9-6.3-4.2-9.5c-0.7-1.6-1.1-3.4-1.6-5.1c-0.3-1.1-0.8-2.2-1.1-3.3c-0.4-1.8-0.8-3.7-1.1-5.5c-0.5-2.9-0.9-5.8-1.4-8.8
		c-0.3-1.8-0.6-3.7-1-5.5c-0.5-2.2-1-4.3-1.5-6.4c-0.3-1.3-0.5-2.5-0.9-3.8c-0.1-0.3-0.3-0.6-0.6-0.9c-2.7-2.3-5.6-4.3-7.8-7
		c-0.7-0.9-1.6-1.6-2.6-2.5c-0.4,0.7-0.8,1.5-1.3,2.3c-0.8,1.4-1.6,2.9-2.6,4.3c-1.4,1.9-2.9,3.6-4.4,5.4c-1.6,2-3.1,4-4.6,6
		c-0.9,1.2-2,2.3-2.9,3.5c-1.4,1.9-2.7,4-4.1,5.9c-2.8,3.9-5.7,7.7-9.2,11c-1.7,1.6-3.1,3.6-4.6,5.4c-1.9,2.3-3.7,4.6-5.5,6.9
		c-0.7,0.9-1.4,1.8-2,2.7c-0.1,0.2,0,0.8,0.2,0.9c2,1,3.6,2.6,5.9,3.2c1.4,0.4,2.7,1.2,4,2c3.3,2,6.9,3.1,10.6,3.8
		c2.5,0.5,5.1,0.5,7.7,0c1.3-0.3,2.8-0.3,4.2-0.4c0.7,0,1-0.2,1.3-0.9c0.4-1.1,1-2.2,1.5-3.3c0.9-1.8,1.8-3.5,2.6-5.3
		c1-2.3,1.8-4.6,2.7-6.9c0.2-0.6,0.4-1.2,0.7-1.8c0.2-0.5,0.7-0.6,1.2-0.3c0.5,0.3,0.3,0.7,0.1,1.2c-0.6,1.6-1.1,3.2-1.6,4.7
		c-1.2,3.3-2.7,6.5-4.5,9.5c-0.7,1.1-1,2.5-1.6,3.6c-1.2,2.3-2.5,4.6-3.7,6.9c-1.2,2.3-2.3,4.8-3.6,7.1c-1.4,2.6-2.9,5.2-5,7.4
		c-2.1,2.3-4,4.7-6,7c-0.2,0.2-0.3,0.4-0.4,0.5c1.8,2.2,3.6,4.3,5.4,6.4c-1.6,0.4-2,0.1-3.4-1.5c-1-1.2-2-2.3-3.1-3.4
		c-0.8-0.8-0.9-1.7,0.1-2.9c2.2-2.6,4.5-5.1,6.7-7.7c1.9-2.3,3.4-4.9,4.7-7.6c1.2-2.6,2.7-5.1,4.1-7.6c0.6-1.2,1.3-2.4,2-3.7
		c-0.5,0.1-0.9,0.1-1.2,0.1c-2.1,0.2-4.2,0.6-6.3,0.7c-3.1,0.1-6.2-0.6-9.2-1.5c-3.1-0.9-5.7-2.4-8.4-3.9c-0.5-0.3-1.1-0.7-1.6-0.8
		c-2.5-0.5-4.4-2.3-6.5-3.4c-1.3-0.7-1.5-1.9-0.6-3.1c1.8-2.4,3.7-4.7,5.5-7.1c1.1-1.4,2.2-2.9,3.4-4.3c1.3-1.5,2.6-3,4-4.4
		c2.1-2.1,4.2-4.2,5.9-6.7c2.3-3.3,4.5-6.5,6.9-9.7c2.6-3.4,5.4-6.6,8-9.9c2-2.6,4.4-5,5.9-8c0.6-1.2,1.2-2.4,1.9-3.7
		c-0.8-0.8-1.6-1.8-2.3-2.6c-3.4,1-6.8,2-10,3.1c-1.6,0.5-3.1,1.2-4.6,2c-2.2,1.1-4.3,2.4-6.4,3.6c-2.1,1.2-4.2,2.4-6.4,3.5
		c-2,1-4,2-6.1,2.7c-3.1,1.1-6.3,1.9-9.4,3.1c-4.5,1.7-8.9,3.5-13.2,5.6c-3.6,1.7-7.1,3.8-10.6,5.8c-2.2,1.3-3.7,3.3-5.4,5.2
		c-1.1,1.3-2.2,2.6-3.3,4c-1,1.3-2,2.6-3.1,3.8c-0.8,1-1.8,1.8-2.7,2.7C0,241.3,0,240.6,0,239.9z M187.4,131
		c-0.1-1.4-0.2-3.1-0.2-4.8c0-2.5-0.6-5-1.2-7.4c-0.6-2.6-0.8-5.2-2-7.7c-0.7-1.5-1-3.3-1.9-4.8c-2.6-4.8-5.1-9.8-8.7-14
		c-1.7-2-3.4-4-5.3-5.8c-1.5-1.5-2.9-3-4.3-4.6c-0.7-0.9-1-2.1-2.4-2.3c-0.2,0-0.4-0.4-0.5-0.7c-0.3-0.6-0.6-1.2-0.9-1.9
		c-0.7-1.4-1.4-2.7-2.1-4.1c-0.2-0.5-0.5-1-0.7-1.5c-0.8-1.6-1.7-3.2-2.4-4.9c-1.2-2.8-2.2-5.8-3.5-8.6c-1.4-3.1-2.6-6.3-3.6-9.5
		c-0.6-1.8-1.2-3.7-2.9-5c-1.5-1.2-3.1-2.4-4.7-3.4c-1.2-0.8-2.6-1.2-4.2-1c-1.1,0.1-2.2,0.1-3.4,0.2c-1.5,0.2-3,0.3-4.3,0.7
		c-3.2,1.1-6.4,2.4-9.6,3.8c-2.4,1.1-4.9,2.1-7.1,3.6c-1.5,1-3.4,1.7-5,2.5c-1.5,0.8-3,1.6-4.6,2.4c-3,1.4-6.2,2.6-9.1,4.1
		c-2,1-4,2.2-6.2,2.7c-1.8,0.5-3.6,1-5.4,1.4c-3.1,0.7-6.2,1.4-9.3,1.9c-1.7,0.3-3.3,0.7-4.9,1.5c-1.4,0.7-3,1-4.5,1.6
		c-1.5,0.6-3.1,1-4.5,1.9c-1.5,1-3,2.2-3.8,3.9c-0.4,0.7-0.8,1.6-1.4,2c-2.1,1.3-3,3.5-4.7,5.2c-0.7,0.7-0.8,1.9-1.2,2.8
		c-1,2.2-0.9,4.5-0.5,6.7c0.5,2.6,1.6,5.1,2.2,7.8c0.7,3.2,1.8,6.4,3.2,9.5c0.8,1.6,1,3.5,1.4,5.3c0.6,3,1,6,0.8,9.1
		c0,0.5-0.1,1.1-0.2,1.5c-0.5,1.7-1,3.5-0.4,5.2c1.2,3.5,1.5,7.2,1.7,10.9c0.1,1,0.2,2,0.5,3c0.4,1.7,0.9,3.4,1.4,5.1
		c0.3,1.1,0.8,2.1,1.2,3.2c0.4,1,0.5,2.1,1,3c1,2,2.2,4,3.3,5.9c1.8,3.1,3.1,6.5,5.1,9.5c0.9,1.3,1.5,2.8,2.3,4.2
		c1.2,2.3,2.4,4.6,3.6,6.9c0.8,1.6,1.4,3.4,2.5,4.8c1.1,1.5,1.9,3.2,2.5,5c1,2.9,2.2,5.7,4.3,8c2.2,2.5,4.6,4.9,6.9,7.4
		c0.7,0.8,1.4,1.7,2.2,2.3c2.9,2.3,5.9,4.5,8.9,6.8c1.6,1.2,3.2,2.5,4.9,3.5c2.9,1.6,5.2,3.8,7.6,6c3.1,3,6,6.1,10.3,7.4
		c1.3,1.1,3.1,1.1,4.6,1.6c0.9,0.3,1.8,0.4,2.7,0.3c1.9-0.1,3.7-0.3,5.6-0.5c1.9-0.2,3.7-0.4,5.6-0.8c2-0.4,3.9-1.1,5.8-1.8
		c1.5-0.5,2.9-1.2,4.3-1.9c1.7-0.8,3.3-1.9,5.1-2.6c2.8-1.1,5.1-2.9,7.1-5c2.1-2.1,3.8-4.6,5.7-7c2.3-2.9,4-6.1,5.6-9.4
		c0.8-1.7,1.7-3.4,2.6-5.1c0.9-1.8,1.8-3.6,2.6-5.4c0.9-1.8,1.7-3.7,2.6-5.4c0.6-1.2,1.5-2.2,2-3.4c1.3-3.1,2.5-6.2,3.7-9.3
		c0.6-1.5,0.9-3.1,1.3-4.6c0.2-0.7,0-1.4,0.1-2.1c0.2-1.4,0.6-2.8,0.6-4.2c0.2-3.6-0.1-7.3-0.5-10.9c-0.1-1-0.2-2.1-0.4-3.1
		c-0.4-2.2-0.8-4.5-1.4-6.6C187.7,138.6,187.1,135,187.4,131z M102.9,216c-0.1,0.1-0.1,0.1-0.2,0.2c0.6,1,1.3,2,1.8,3.1
		c1.2,2.6,2.2,5.2,3.4,7.8c2.3,5.4,5.9,10,10,14.2c2.8,2.9,6,5.4,9.4,7.6c2.1,1.3,4.2,2.6,6.4,3.9c1.8,1.1,3.5,2.2,5.3,3.2
		c0.6,0.3,1.3,0.4,1.9,0.6c1.6,0.7,3.1,1.5,4.6,2.2c1.1,0.5,2.3,1.2,3.6,0.9c0.9-0.2,1.8-0.7,2.8-1c2.8-1,5.2-2.6,7.3-4.8
		c1.2-1.3,2.6-2.5,4-3.7c1.4-1.2,3-2.3,4-3.9c2-3,4.5-5.5,6.8-8.2c1.7-1.9,3.3-4,4.6-6.1c1.5-2.3,2.7-4.9,4.1-7.3
		c0.3-0.5,0.6-0.9,0.8-1.3c1-2,2.3-3.8,3.8-5.5c0.6-0.7,1.3-1.4,1.8-2.2c0.7-1.3,1.4-2.7,1.9-4.1c0.7-2.3,1.3-4.7,1.7-7.1
		c0.8-4.2,1.6-8.4,2.4-12.5c0.6-3,0.3-6,0.2-9c0-0.7,0-1.4-0.2-2.1c-0.5-1.9-1.1-3.8-1.8-5.6c-0.5-1.3-1.3-2.5-2-3.9
		c-0.8,2.2-1.4,4.2-2.2,6.2c-1,2.4-1.9,4.8-3.1,7.1c-0.8,1.7-2,3.3-2.8,5.1c-1.2,2.4-2.2,4.8-3.4,7.2c-0.8,1.6-1.6,3.1-2.4,4.7
		c-1.2,2.3-2.2,4.8-3.6,7c-1.2,2-2.7,3.8-4.1,5.6c-1.8,2.2-3.2,4.6-5.4,6.4c-1.9,1.5-3.6,3.1-5.8,4.1c-2.1,1-4.1,2-6.2,3
		c-2.2,1-4.4,2.1-6.8,2.9c-1.7,0.6-3.5,0.6-5.2,1.1c-2.4,0.7-4.8,0.6-7.2,0.9c-2,0.2-4,0-6,0c-0.3,0-0.6,0-0.8-0.2
		c-0.6-0.6-1.4-0.6-2.1-0.9c-1.2-0.5-2.5-0.9-3.7-1.6c-1.7-1-3.3-2-4.8-3.2c-2.1-1.7-3.9-3.8-6-5.5
		C107.6,219.5,105.2,217.7,102.9,216z M153.7,259.9c1.7,0.9,3.4,1.8,5,2.9c1.8,1.2,3.7,1.6,5.7,2c2.8,0.5,5.7,0.9,8.5,1.3
		c2,0.3,1.5,0.6,2.4-1.1c0.1-0.3,0.3-0.5,0.5-0.8c0.7-1.2,1.4-2.4,2-3.7c1.3-2.7,2.4-5.4,3.7-8.1c0.5-1.1,1.1-2.1,1.6-3.2
		c0.7-1.8,1.3-3.6,2-5.4c0.3-0.8,0.9-1.4,1.1-2.2c0.7-2.5,2-4.6,3.5-6.6c1.6-2.1,2.5-4.6,4.1-6.7c1.1-1.3,1.6-3,2.4-4.5
		c1.7-3.1,3.6-6.2,5.2-9.4c0.8-1.5,1.6-3,1.7-4.6c0.2-2.2,0.3-4.4,0.9-6.5c0.7-2.3,0.3-4.7,0.3-7.1c0-1-0.2-1.9-0.4-2.9
		c-0.3-2-0.8-4-0.9-6c-0.1-2.5-0.7-4.9-1.4-7.3c-0.6-2-1.6-3.9-2.5-5.9c-0.8-1.7-1.9-3.3-3.3-4.7c-0.8-0.8-1.5-1.8-2.3-2.7
		c-0.3-0.4-0.7-0.8-1.1-1.1c-0.4-0.3-0.7-0.2-0.8,0.3c-0.1,0.9-0.1,1.7-0.2,2.6c0,0.2,0,0.3,0.1,0.5c0.4,0.8,0.8,1.5,1.2,2.3
		c2.6,4.7,4.3,9.7,3.9,15.2c0,0.6-0.1,1.1-0.1,1.7c0.1,3.3-0.1,6.6-0.9,9.9c-0.6,2.5-1.1,4.9-1.7,7.4c-0.7,2.8-1.2,5.6-2.5,8.3
		c-0.9,2-1.9,3.9-3.5,5.5c-1.6,1.7-3,3.7-3.7,6c-0.1,0.2-0.2,0.3-0.3,0.5c-0.5,0.7-1.2,1.3-1.5,2.1c-1.2,2.5-2.4,5-4.2,7.3
		c-1.7,2.2-3.3,4.4-5.2,6.4c-1.6,1.6-3,3.3-4.3,5.2c-0.8,1.1-1.6,2.2-2.6,3c-2.4,2.1-5,3.8-7.1,6.3c-0.6,0.8-1.5,1.4-2.4,1.9
		C156,258.5,154.8,259.2,153.7,259.9z M140.3,258.4c-0.7-0.3-1.4-0.5-2-0.8c-2-1.2-4-2.4-6-3.6c-2-1.2-4-2.4-6-3.7
		c-3.6-2.3-6.9-5-9.9-8c-2.6-2.6-4.8-5.6-6.9-8.7c-2-2.9-3.5-6-4.7-9.3c-0.9-2.2-1.6-4.5-3-6.4c-0.6-0.9-1.4-1.8-1.6-2.9
		c-0.2-1-0.8-1.3-1.5-1.8c-0.2-0.1-0.5-0.2-0.7-0.1c-0.2,0.2-0.2,0.5-0.2,0.7c0,0.3,0.1,0.5,0.2,0.8c0.5,1.7,1,3.4,1.3,5.2
		c0.5,2.3,0.8,4.6,1.1,7c0.5,2.9,0.9,5.8,1.4,8.7c0.3,1.9,0.7,3.7,1.2,5.6c0.4,1.6,1,3.2,1.4,4.8c0.8,3.2,2.5,6.1,3.7,9.1
		c1,2.5,2.3,5,3.2,7.5c1,2.8,1.8,5.7,2.7,8.5c0.2,0,0.3,0,0.4,0c2-0.8,4.1-1.6,6.1-2.5c2-1,4-2.1,5.9-3.1c2.1-1.2,4.2-2.5,6.4-3.7
		C135.4,260.6,137.8,259.6,140.3,258.4z M189.1,90.4c-0.4,0.3-0.7,0.5-1,0.8c-1.3,1.3-1.9,2.9-2.4,4.6c-0.6,2.1-0.8,4.3-1.2,6.5
		c-0.1,0.5,0.2,0.6,0.6,0.7c2.2,1,4.2,2.1,5.9,3.8c2.5,2.5,2.7,7.5,0.4,9.9c-1,1.1-1.9,2.4-2.1,4.1c-0.1,0.6,0.1,1.3-0.2,1.7
		c-0.5,0.9-0.4,1.8-0.4,2.8c0,0.9,0.1,1.9,0.1,2.8c0,1.7,0,3.4,0,5.1c0,1.4,0.2,2.9,0.3,4.3c0.7-0.1,1.2-0.2,1.7-0.3
		c2.4-0.3,4.2-1.3,5.2-3.6c1.2-2.6,1.7-5.3,1.8-8.1c0.1-2.9-0.3-5.7-1-8.6c-1-4.1-1.9-8.3-2.9-12.4c-0.5-2.3-0.9-4.5-1.4-6.8
		c-0.3-1.3-0.5-2.7-0.8-4c-0.3-1.1-0.8-2.1-1.2-3.2C190,91.2,189.5,91.1,189.1,90.4z M70.4,176.1c-0.4-0.7-0.7-1.3-1.1-1.9
		c-1.1-2.1-2.2-4.1-3.4-6.2c-0.5-0.9-1.2-1.8-1.7-2.8c-0.6-1.2-1.1-2.5-1.7-3.7c-0.3-0.5-0.6-1.2-1.1-1.3c-0.8-0.2-1.8-0.5-2.5,0.4
		c-0.1,0.1-0.3,0.2-0.4,0.2c-1.6,0-3.2,0.3-4.4-1.2c-0.1-0.1-0.2-0.1-0.3-0.2c-0.1,0-0.1,0.1-0.2,0.1c0.6,1.3,1.1,2.5,1.8,3.8
		c0.9,1.6,1.9,3,2.7,4.7c1.1,2.4,2.4,4.6,4.7,6.1c1.2,0.8,2.3,1.7,3.6,2.3c1.1,0.5,2.3,1,3.4,0C70,176.2,70.2,176.2,70.4,176.1z
		 M54.6,144.8c-1-1.7-2-3.5-3-5.2c-0.1-0.2-0.4-0.3-0.6-0.3c-1.1-0.4-2.3-0.7-3.3-1.2c-1-0.5-2-1.2-3-1.7c-0.6-0.3-1.3-0.4-2-0.6
		c2.1,5.8,5.4,10.6,8.2,15.6C51.9,149.1,52,146.4,54.6,144.8z M55.3,146.5c-0.5,0.4-0.9,0.6-1.1,1c-0.5,1.1-0.9,2.3-1.4,3.4
		c-0.5,1.1-0.6,2.2,0.2,3.3c0.8,1.1,1.5,2.1,1.8,3.5c0.4,1.6,2.3,2.2,3.8,1.4c0.7-0.4,1.4-0.6,2.1-0.9c-1-1.7-2.2-3.5-3.1-5.5
		C56.7,150.8,56.1,148.7,55.3,146.5z M187.8,119.4c0.6-1,1.1-1.9,1.7-2.7c0.4-0.6,0.8-1.2,1.2-1.8c0.8-1.2,0.6-2.5,0.5-3.8
		c0-0.7-0.3-1.5-0.7-2.1c-1.4-2.3-3.8-3.4-6.2-4.6c0.1,0.9-0.6,1.5-0.2,2.4c0.3,0.6,0.4,1.3,0.7,1.9c0.7,1.5,0.8,3.3,2.3,4.4
		c0.1,0.1,0.2,0.5,0.2,0.7c0,1,0,2.1,0,3.1C187.4,117.7,187.6,118.5,187.8,119.4z M182.6,101.5c0.1,0,0.2,0,0.3,0
		c0.2-0.6,0.4-1.2,0.5-1.9c0.2-1.1,0.2-2.3,0.5-3.4c0.5-1.6,1.2-3.1,1.8-4.7c0.5-1.3,1.7-2,2.8-2.6c0.4-0.2,1-0.1,1.5-0.1
		c-0.4-1.6-1.2-2.9-2.2-4.2c-0.2-0.3-0.9-0.4-1.3-0.3c-0.3,0-0.4,0.5-0.6,0.9c-0.1,0.2-0.1,0.5-0.2,0.7c-0.6,2-1.3,4-1.9,6
		c-0.9,2.8-1.6,5.6-1.4,8.6C182.5,100.8,182.6,101.1,182.6,101.5z M43.7,129.8c-1.4,0.9-2,2.2-1.7,4c0.1,0.5,0.1,0.7,0.7,0.6
		c0.6-0.1,1.3-0.1,1.9,0.1c1.3,0.6,2.4,1.4,3.7,2.1c0.3,0.2,0.7,0.3,1.1,0.5c-0.1-0.6-0.5-1-0.6-1.5c-0.2-0.9-0.9-1.5-1.5-2.1
		C46.1,132.2,45,131,43.7,129.8z"/>
	<path class="st0" d="M124.3,196.2c-2.9,0.1-5.7-0.3-8.3-1.4c-1.4-0.6-2.7-1.5-4.1-2.2c-2.1-1-4.1-2.1-6.3-2.8
		c-1.1-0.4-2.4-0.2-3.5-0.3c-0.3,0-0.9-0.2-1-0.5c-0.2-0.6,0.3-0.9,0.8-1c3.9-0.6,7.4-2.4,10.8-4.4c2.5-1.5,5-3.1,7.4-4.7
		c1.2-0.8,2.6-0.8,4-0.6c1.6,0.2,3.2,0.4,4.7,0.6c1,0.1,1.6-0.6,2.3-1.2c2.8-2.5,5.7-4.7,9.6-5.2c1.9-0.2,3.8-0.8,5.5-1.5
		c4.4-1.7,8.8-3,13.3-4.1c0.7-0.2,1.4-0.6,2.2-0.8c0.3-0.1,0.7,0.1,1.1,0.1c-0.1,0.4-0.2,0.8-0.3,1.1c-0.2,0.4-0.3,0.8-0.6,1.1
		c-0.9,1-1.7,2.1-2.7,3c-1.8,1.6-3.1,3.6-4.2,5.7c-1.1,2.2-2.4,4.2-4,6c-1.4,1.7-2.9,3.4-4.6,4.9c-1.5,1.3-3.4,2.1-5.1,3.2
		c-3.6,2.2-7.6,3.2-11.6,4.3C128,195.8,126.1,196.3,124.3,196.2z M106.4,188.4c0,0.1,0,0.2,0,0.3c0.1,0.1,0.2,0.1,0.3,0.2
		c2.3,1.1,4.6,2.1,6.8,3.4c2.1,1.2,4.3,2.4,6.7,2.6c2.1,0.2,4.1,0.4,6.2,0.2c1.7-0.1,3.4-0.8,5-1.2c3.4-0.9,6.8-2,9.8-3.9
		c1.5-0.9,3-1.7,4.4-2.7c2.4-1.7,4.2-4.2,5.9-6.5c1.5-2,2.6-4.3,3.9-6.5c-1.3,0.6-2.5,1.3-3.7,2c-2,1.1-3.9,2.3-5.9,3.3
		c-1.8,0.9-3.7,1.6-5.5,2.4c-4.6,2.2-9.2,4.3-14.2,5.3c-2,0.4-4,0.7-6.1,0.9c-1.5,0.1-3,0-4.5,0c-2.2,0-4.4,0.1-6.6,0.2
		C108.2,188.4,107.3,188.4,106.4,188.4z M108.3,187.1c0,0.1,0,0.2,0,0.3c2.9,0,5.8,0,8.7,0c1.5,0,3-0.1,4.5-0.3
		c2.3-0.3,4.6-0.6,6.8-1.3c3.2-1,6.4-2.4,9.5-3.7c1.7-0.7,3.3-1.6,4.9-2.4c1.2-0.6,2.5-1,3.6-1.6c2.1-1.1,4.1-2.3,6.1-3.6
		c1.4-0.9,2.7-1.8,3.9-2.9c1.1-1,2-2.2,3-3.3c0.1-0.1,0.2-0.3,0.5-0.6c-0.4,0.1-0.6,0.2-0.8,0.2c-3.9,0.8-7.8,2.1-11.6,3.4
		c-2.1,0.7-4.2,1.3-6.3,1.8c-2,0.4-3.9,0.8-5.6,1.9c-1.5,1-2.8,2.2-4.2,3.3c-0.6,0.4-1.1,1.2-1.7,1.2c-2,0-4.1-0.2-6.1-0.5
		c-0.9-0.1-1.7-0.2-2.5,0.3c-1.1,0.6-2.2,1.2-3.2,1.8c-1.9,1.2-3.8,2.5-5.7,3.7C111,185.6,109.7,186.3,108.3,187.1z"/>
	<path class="st0" d="M84.6,125.1c1.8,0,3.6-0.2,5.4,0c1.4,0.2,2.8,0.6,4.1,1.2c2,0.9,3.9,2,5.8,3c0.1,0.1,0.3,0.1,0.3,0.2
		c0.1,0.2,0.4,0.5,0.3,0.7c0,0.2-0.4,0.4-0.6,0.4c-1.6-0.2-2.8,0.6-4.1,1.2c-2.5,1.2-5.2,2.2-7.7,3.3c-1.9,0.8-3.8,1.5-5.8,1.6
		c-1.9,0.1-3.7-0.2-5.6-0.4c-1-0.1-2.1-0.3-3.1-0.4c-1.5-0.1-2.2,1.1-3,2c-0.2,0.3-0.3,0.7-0.8,0.5c-0.6-0.2-0.5-0.7-0.3-1.1
		c0.3-0.6,0.7-1.1,1.1-1.6c1.3-1.8,2.7-3.6,4.1-5.3c0.5-0.7,1.1-1.3,1.6-2c0.1-0.1,0.1-0.2,0.2-0.2c2-0.6,3.3-2.4,5.4-2.7
		c0.9-0.1,1.8-0.5,2.7-0.8C84.6,124.9,84.6,125,84.6,125.1z M88.3,126.3c1.9,2.2,2.9,4.4,1.4,7.1c0.1,0,0.1,0.1,0.2,0.1
		c2.7-1.3,5.4-2.5,8.1-3.8c0-0.1,0-0.2,0-0.3C95,128,92.2,126.1,88.3,126.3z M78.8,128.8c-2.5,1.8-4.4,3.8-6.1,6.3
		c3.5-0.2,6.5,1.2,9.7,0.7C80.1,134,78.7,131.8,78.8,128.8z M84,130.7c0.5,0,1.2-0.7,1.1-1.2c-0.1-0.4-0.2-1-0.8-1
		c-0.7,0-1.3,0.5-1.3,1.1C82.9,130.1,83.5,130.7,84,130.7z"/>
	<path class="st0" d="M155.8,108.1c-0.4,0.2-0.6,0.5-0.8,0.5c-1.2,0.1-2,0.7-2.9,1.3c-2.7,1.8-5.2,3.8-8.3,5c-2.9,1.1-5.8,2-8.8,2.9
		c-1,0.3-2.1,0.3-3.1,0.6c-0.6,0.2-1.2,0.7-1.8,1c-0.3,0.1-0.6,0.2-1,0.2c-0.1-0.3-0.3-0.7-0.1-1c1.3-2.4,2.6-4.8,4-7
		c1.2-1.8,2.6-3.5,4.5-4.7c0.9-0.5,1.9-0.9,3-1.1c1.4-0.3,2.8-0.5,4.1-0.5c3,0,5.9,0.4,8.7,1.3c0.3,0.1,0.7,0.1,1,0.3
		C155,107.3,155.3,107.7,155.8,108.1z M131.2,117.3c2.8-0.5,5.6-0.7,8.2-2c-2.4-0.7-3-2.6-3.3-4.7
		C135,110.8,131.1,116.2,131.2,117.3z M152.9,108.1c0-0.1-0.1-0.3-0.1-0.4c-1-0.2-2-0.5-3-0.5c-1.5-0.1-2.9-0.1-4.4,0
		c-0.1,0-0.4,0.2-0.4,0.3c0,0.2,0,0.5,0.1,0.6c0.9,0.5,1.2,1.3,1.1,2.3c-0.1,0.7-0.1,1.5-0.2,2.4
		C148.4,111.1,150.6,109.6,152.9,108.1z M140.9,109.4c-0.8,0.1-1.2,0.4-1.1,1c0,0.3,0.6,0.8,0.7,0.7c0.4-0.2,0.8-0.5,1-0.9
		C141.6,110.1,141.1,109.6,140.9,109.4z"/>
	<path class="st0" d="M152.1,94.9c1.5,0.1,3,0.2,4.5,0.4c0.8,0.1,1.4,1.1,1.1,1.9c-0.3,0.8-1.2,0.6-1.8,0.6
		c-1.9,0.1-3.8-0.1-5.6,0.1c-3.6,0.4-7.3,1-10.9,1.6c-2.4,0.4-4.6,1.5-6.7,2.6c-2.5,1.2-4.9,2.5-7.4,3.6c-0.7,0.3-1.5,0.4-2.3,0.3
		c-0.4,0-0.9-0.5-1.1-0.9c-0.3-0.9-0.3-1.7,0.4-2.5c1.9-1.8,4.2-3,6.7-3.8c3-0.9,6-1.7,9.1-2.4c2-0.5,4.1-0.7,6.1-0.9
		C146.9,95.2,149.5,95,152.1,94.9z"/>
	<path class="st0" d="M90.6,113c0.9,0.3,1.9,0.6,2.9,1.1c0.3,0.1,0.6,0.8,0.5,1.1c-0.2,0.5-0.6,1-1.1,1.1c-1.2,0.3-2.4,0.5-3.6,0.7
		c-3.5,0.7-6.8,1.9-9.9,3.6c-2.3,1.2-4.7,2.3-6.9,3.7c-2.3,1.4-4.4,3-6.6,4.6c-0.6,0.5-1.1,1.1-1.6,1.6c-0.5,0.5-1,0.7-1.7,0.3
		c-0.6-0.4-1-0.9-0.7-1.6c0.3-0.6,0.6-1.3,1.1-1.7c1.4-1.3,2.9-2.5,4.5-3.6c3.3-2.4,6.6-4.7,10.3-6.5c0.8-0.4,1.8-0.7,2.6-1
		c2.2-0.8,4.3-1.7,6.5-2.4C88,113.5,89.2,113.3,90.6,113z"/>
	<path class="st0" d="M104.3,154.7c0.7,0.3,0.8,0.6,0.6,1.1c-1.2,3-0.5,5.7,1.1,8.4c0.6,1.1,1.8,1.5,3,1.6c1.8,0.2,3.5-0.4,5.2-0.6
		c1.1-0.2,2.1,0,3.2,0.4c1.8,0.8,3.4,1.8,5.5,1.8c3.3-0.1,5.2-1.5,6.5-4.5c0.3-0.7,0.5-1.4,0.7-2.1c0.6-1.6,2-2.3,3.4-2.8
		c1.3-0.4,2.7-0.6,4-1.1c2.6-1,4-2.6,4-5.6c-0.1-1.8-1-3.3-2.6-4.3c-0.5-0.3-1.1-0.5-1.5-0.8c-0.2-0.2-0.3-0.6-0.4-0.9
		c0.3,0,0.6-0.1,0.9,0c0.3,0.1,0.6,0.3,0.9,0.5c3.5,1.6,4.9,5.9,2.7,9.4c-1.1,1.7-2.9,2.5-4.8,3c-0.9,0.2-1.8,0.4-2.7,0.7
		c-1.5,0.5-2.6,1.4-3.1,3c-0.8,2.5-2.1,4.6-4.6,5.8c-2.4,1.1-4.8,0.9-7.2-0.2c-1.8-0.9-3.6-1.6-5.7-1.1c-1.2,0.3-2.5,0.3-3.7,0.4
		c-3.1,0.2-4.7-1.7-5.7-4.3c-0.7-1.8-0.5-3.7-0.4-5.6C103.5,156.2,104,155.5,104.3,154.7z"/>
</g>
</svg>
