<?xml version="1.0" encoding="utf-8"?>
<!-- Generator: Adobe Illustrator 19.2.1, SVG Export Plug-In . SVG Version: 6.00 Build 0)  -->
<svg version="1.1" id="Layer_1" xmlns="http://www.w3.org/2000/svg" xmlns:xlink="http://www.w3.org/1999/xlink" x="0px" y="0px"
	 viewBox="0 0 164 200" style="enable-background:new 0 0 164 200;" xml:space="preserve">
<style type="text/css">
	.st0{fill:#E91E63;}
</style>
<g id="pharm-darrell-pink">
	<path class="st0" d="M163.7,141.5c-2.1-1.9-4.2-3.8-6.4-5.7c-1.6-1.4-3.3-2.7-4.8-4.1c-3.4-3.3-6.9-6.4-10.6-9.3
		c-2.4-1.9-4.7-4-7-6c-1.5-1.3-3.1-2.6-4.6-3.9c-1.7-1.3-3.5-2.5-5.2-4c-1.7-1.5-3.3-3.3-5-4.9c-1.3-1.2-2.1-2.6-2.3-4.3
		c-0.2-2.2-0.3-4.5-0.5-6.7c-0.1-0.9,0.3-1.6,0.9-2.2c1.7-1.5,3.1-3.2,3.9-5.3c0.6-1.7,0.9-3.6,1.2-5.4c0.5-3.8,1.2-7.5,1-11.3
		c-0.1-2.8-0.9-5.5-2.6-7.9c-1.1-1.6-2.2-3.2-3.4-4.6c-1-1.2-1-2.6-1.3-3.9c-0.3-1.2-0.4-2.5-0.5-3.8c-0.1-2.5-0.2-5.1-0.2-7.6
		c0-2.2-0.2-4.2-0.9-6.3c-0.8-2.6-1.3-5.3-2.2-7.9c-1.2-3.7-3-7.2-5.6-10.2c-1.7-2-3.3-4-5.7-5.1c-1.7-0.8-3.1-2-4.3-3.5
		c-0.5-0.6-1-1.3-1.7-1.6C94,5.2,92,4.4,90,3.8c-1.8-0.5-3.7-0.8-5.6-1.2c-0.7-0.1-1.5-0.3-2.2-0.4c-1.8-0.3-3.5-0.7-5.3-1
		c-1.9-0.4-3.8-1.3-5.7-1.2c-4.7,0.3-9.4,0.2-14.1,0.4c-0.9,0-1.7-0.2-2.6-0.1c-1.8,0.2-3.6,0.5-5.3,0.9c-2.2,0.5-4.4,0.9-6.5,1.7
		c-2.7,1.1-5.3,2.5-8,3.8c-0.2,0.1-0.3,0.3-0.5,0.5c-1.2,1.1-2.3,2.2-3.5,3.3c-0.8,0.7-1.6,1.5-2.3,2.3c-2.3,2.4-4.6,4.9-6.8,7.3
		c-0.5,0.6-1,1.4-1.3,2.1c-0.5,1.3-1,2.6-1.3,4c-0.4,1.8-0.5,3.7-0.7,5.5c-0.2,2.1-0.5,4.1-0.6,6.2c-0.1,1.1,0.3,2.1,0.4,3.2
		c0.1,3.1,0.2,6.2,0,9.3c-0.3,4.7,0.8,9.1,2.2,13.4c1.2,3.7,2.4,7.5,3.5,11.2c0.3,1.1,0.4,2.2,0.5,3.3c0.3,2,0.4,4,0.8,6
		c0.6,2.8,1,5.6,1,8.4c0,3-0.1,6.1,0.3,9.1c0.4,3.6,1.9,6.9,3.8,10c1.7,2.8,3.8,5.5,5.7,8.2c0.1,0.2,0.2,0.3,0.3,0.4
		c2,2.4,4,4.7,6,7.1c1.7,2.1,3.7,3.7,6.2,4.9c0.4,0.2,0.9,0.8,0.9,1.2c-0.1,1.8-0.3,3.6-2.2,4.5c-0.3,0.1-0.5,0.3-0.8,0.5
		c-1.7,1.2-3.4,2.3-5.1,3.5c-1,0.7-2,1.6-3.1,2.2c-2.9,1.7-5.7,3.6-8.2,5.9c-3.5,3.1-7.7,5.3-11.6,7.8c-5.3,3.4-10.8,6.6-16.1,9.9
		c-0.7,0.4-1.4,0.9-2.1,1.3c0,0.1,0.1,0.2,0.1,0.3c0,0.3,0.1,0.6,0.1,0.9c0,0,0,0,0,0c0,0,0,0,0,0c0,0.2,0,0.3,0,0.5
		c2.1-1.3,4.2-2.4,6.3-3.6c1.8-1,3.5-2.3,5.3-3.5c1.1-0.8,2.2-1.6,3.4-2.3c3.3-2,6.7-3.8,9.9-5.9c3.1-2,6-4.4,9-6.5
		c0.6-0.4,1.3-0.8,1.9-1.2c3.8-2.7,7.7-5.4,11.5-8.2c0.5-0.3,0.9-0.7,1.6-1.1c0,0.4,0.1,0.6,0,0.8c-0.6,1.2-1.2,2.4-1.8,3.6
		c-2.4,4.2-4.9,8.4-7.4,12.5c-0.3,0.6-0.7,1.1-1,1.7c-3.1,4.3-6.8,8.3-10.5,12.2c-0.7,0.7-0.7,1.3,0.1,1.9c2.2,1.7,4.3,3.6,6.7,5.1
		c1.8,1.1,3.2,2.6,4.8,4c0,0,0,0.1,0,0.3c-0.6,0.5-1.2,1-1.8,1.4c-1.8,1.3-3.7,2.6-5.4,4.1c-2.1,1.8-4,3.8-6,5.8
		c-0.6,0.6-0.7,1.2-0.3,1.9c1.1,1.9,2.1,3.7,3.2,5.5c0.2,0.3,0.8,0.3,1.2,0.5c0.1-0.4,0.3-0.8,0.3-1.2c0-0.3-0.2-0.6-0.4-0.8
		c-0.9-1.6-1.9-3.2-2.9-5c1.7-1.4,3.2-3.1,5-4.3c3.1-2.1,6-4.5,8.7-7.1c2.1-1.9,4-4.1,6-6.2c0.2-0.2,0.1-0.8,0.1-1.1
		c-0.4,0-0.9-0.1-1.2,0.1c-0.6,0.5-1.1,1.1-1.7,1.6c-0.9,1-1.9,1.9-2.7,2.9c-0.6,0.8-1.2,0.6-1.8,0c-1.8-1.7-3.7-3.2-5.8-4.5
		c-1.3-0.9-2.5-2-3.8-2.9c-1.1-0.8-1.2-1.1-0.2-2.1c2-2.2,4.1-4.3,6-6.5c1.8-2.2,3.6-4.4,5-7c2.1-3.9,4.4-7.6,6.7-11.3
		c0.6-1,1.2-2,1.7-3c0.3,0.7,0.5,1.5,0.6,2.2c0.1,1.6,0.3,3.2,0.3,4.8c0.1,4.1,0.1,8.2-1.9,11.9c-0.9,1.7-1.4,3.6-1.2,5.6
		c0.1,1.1,0.4,2.2,0.6,3.3c0.2,0.9,0.1,1.9,0.4,2.7c2.2,5.5,2.9,11.2,2.7,17.1c0,0.5-0.2,1-0.4,1.4c-1.6,2.7-3.2,5.4-4.8,8.2
		c-0.2,0.3-0.1,0.8-0.1,1.2c0.4-0.2,0.8-0.2,1-0.5c0.8-1.1,1.5-2.4,2.2-3.5c0.4-0.6,0.6-1.3,1.1-1.8c1.5-1.5,2.2-3.3,2.3-5.3
		c0.2-4.7-0.4-9.4-1.7-13.9c-0.8-2.7-1.3-5.5-1.9-8.3c-0.4-2.2,0-4.1,0.9-5.9c1.2-2.4,1.8-5,1.9-7.6c0-2.6-0.1-5.2-0.2-7.7
		c0-0.8,0-1.5,0.6-2.2c0.9-1.1,1.6-2.3,1.4-3.8c-0.2-1.5-0.3-2.9-0.5-4.4c0.3,0.2,0.7,0.4,1.1,0.7c1.5,1.4,2.9,2.8,4.5,4.1
		c2,1.6,2.6,5.5,1.9,7.2c-0.5,1.4-1.3,2.8-2.1,4.2c-0.7,1.3-1.6,2.5-2.3,3.8c-0.7,1.2-1.2,2.4-2,3.5c-1.4,1.8-2,3.9-2.2,6.1
		c0,0.3,0.1,0.5,0.1,0.8c0.1,0,0.3,0,0.4,0c0.2-0.9,0.5-1.7,0.8-2.6c0.4-1.1,0.7-2.2,1.3-3.2c1.7-3,3.7-5.8,5.2-8.9
		c1.2-2.3,2.9-4.2,4.5-6.1c1.6-1.8,3.4-3.5,5.2-5.2c1.5-1.4,2.9-2.9,4.4-4.2c3.4-2.8,7.4-4.6,11.7-5.5c1.9-0.4,3.9-0.5,5.8-0.5
		c2.1,0.1,2.1,0.2,2.1,2.4c0,1.6,0.6,2.2,2.2,2.5c1,0.2,1.9,0.5,2.8,0.8c0.1,0.1,0.1,0.2,0.2,0.3c-0.4,0.3-0.8,0.6-1.1,0.9
		c-0.9,1-2,1.4-3.4,1.3c-1.9-0.1-3.8,0.1-5.7,0.1c-1.1,0-1.9,0.4-2.6,1.2c-0.8,0.8-1.6,1.5-2.3,2.3c-0.8,0.8-1.5,1.6-2.3,2.4
		c-2.2,2.3-4.6,4.3-8,4.1c-0.2,0-0.4-0.1-0.5,0c-0.2,0.2-0.4,0.4-0.6,0.6c0.3,0.1,0.5,0.4,0.8,0.4c0.5,0,1-0.1,1.5-0.2
		c1-0.3,2.1-0.5,3.1-0.9c2-0.7,3.3-2.4,4.9-3.7c2.1-1.6,4.2-3.1,6.9-3.5c2.1-0.2,3.7,0.7,5.1,2c1.4,1.3,1.4,3.2,1.9,5
		c-0.6,0.3-1.1,0.7-1.7,1c-1.7,1-3.3,1.9-4.9,3c-2,1.3-3.9,2.8-5.9,4.1c-1.8,1.1-3.1,2.7-4.5,4.3c-0.4,0.4-0.4,0.8,0.3,1.2
		c0.5-0.5,1-1,1.4-1.5c1.1-1.6,2.5-2.9,4.2-3.7c0.4-0.2,0.8-0.5,1.2-0.7c3-2,6-3.9,8.9-5.9c1.9-1.3,3.9-1.4,5.8-0.2
		c0.2,0.1,0.3,0.2,0.5,0.3c1.3,0.5,1.6,1.5,1.6,2.7c0,1.3,0.1,2.6,0.1,3.9c0,0.4-0.1,0.8-0.3,1.1c-0.7,1.2-1.8,1.6-3,2
		c-0.5,0.2-1.1,0.4-1.5,0.8c-1.1,0.8-2,1.8-3.1,2.6c-1.7,1.2-3.5,2.2-5.1,3.4c-1.8,1.3-3.5,2.8-5.2,4.2c-0.6,0.5-0.4,0.9,0.1,1.2
		c0.9-0.8,1.7-1.7,2.6-2.4c2.4-2,4.8-3.8,7.6-5.3c2-1.1,3.6-2.9,5.8-3.8c1.9-0.8,3.5-0.8,4.4,0.6c0.5,0.8,0.9,1.7,1.1,2.6
		c0.1,0.7-0.1,1.6-0.3,2.3c-0.3,1.1-0.8,2.2-1.2,3.2c-0.1,0.3-0.3,0.7-0.5,1c-1.3,2-2.5,4-3.9,5.9c-1,1.4-2.1,2.7-3.2,3.9
		c-1.1,1.2-2.4,2.2-3.6,3.4c-0.2,0.2-0.2,0.6-0.2,0.8c0.3-0.1,0.7,0,0.9-0.2c1.4-1.3,2.8-2.6,4.2-3.9c0.3-0.3,0.6-0.6,1-0.9
		c0.2,2.9-0.4,5.4-1.7,7.8c-1,1.8-1.8,3.7-2.6,5.6c-1,2.5-2.4,4.7-4.1,6.7c-0.2,0.2-0.3,0.4-0.4,0.7c0.3,0.1,0.4,0.1,0.5,0.1
		c3.9-0.1,7.8-0.3,11.7-0.5c0.2,0,0.5-0.3,0.5-0.5c0.1-1.1,0.2-2.3,0.3-3.4c0.2-1.7,0.3-3.5,0.6-5.2c0.8-3.6,1.9-7.2,2.6-10.9
		c0.9-4.6,1.7-9.2,2.4-13.9c0.6-3.6,1.3-7.1,2.6-10.6c1-2.8,1.8-5.6,2.7-8.4c1.5-4.3,3.1-8.4,4.5-12.7c1.1-3.6,1.9-7.3,2.1-11.2
		c0-0.6,0.1-1.2,0.3-1.7c0.7-2.1,0.6-4.4,0.7-6.6c0-0.6-0.1-1.2-0.3-1.7c-0.3-1-0.6-2-0.8-3c0.1-0.1,0.1-0.1,0.2-0.2
		c1.7,1.3,3.5,2.5,5.2,3.9c1.9,1.5,3.5,3.2,5.5,4.5c1.5,1,2.5,2.2,3,3.9c0.5,1.7,1.1,3.4,1.6,5.1c0.4,1.1,0.8,2.3,1.2,3.4
		c0.2,0.5,0.2,1,0.4,1.5c0.6,1.6,1.2,3.1,1.9,4.6c1.4,3,2.2,6.3,3,9.5c0.2,0.9,0.4,1.8,0.7,2.7c0.1,0.5,0,0.9-0.5,1.1
		c-2.8,1.3-5.6,2.6-8.4,3.9c-2.1,1-4.3,1.8-6.4,2.9c-2.1,1.1-2.1,1.3-3.7-0.6c-0.7-0.8-1.5-1.6-2.2-2.4c-0.4-0.5-0.9-0.7-1.5-0.3
		c-0.6,0.5-0.2,0.9,0.2,1.3c2.1,2.3,4.1,4.7,6.8,6.3c2.3,1.4,4.3,3.2,6.1,5.1c0.9,1,2,1.9,3,2.9c0.9,1,1.8,2,2.9,3.1
		c-0.3,0.2-0.6,0.4-0.8,0.6c-2.1,1.9-3.8,4.1-5.2,6.6c-2.3,4-4.6,7.9-6.9,11.9c-1,1.8-1.9,3.5-2.8,5.4c-0.2,0.3,0,0.8,0,1.3
		c0.5-0.2,0.9-0.4,1.4-0.6c0.2-0.1,0.2-0.4,0.4-0.6c1.8-3.1,3.7-6.3,5.5-9.4c1.1-2,2.5-3.9,3.3-6c1.4-3.6,4.4-6,6.8-8.8
		c0.6-0.8,0.7-0.9-0.1-1.5c-1.8-1.4-3.6-2.7-5.1-4.4c-2.3-2.7-4.8-5.1-7.8-7c-0.2-0.1-0.4-0.3-0.8-0.6c1.2-0.6,2.2-1.3,3.4-1.7
		c4.7-1.5,8.9-4.2,13.4-6.3c0.4-0.2,0.9-1.1,0.8-1.6c-0.1-1-0.4-2.1-0.7-3.1c-1-3.1-1.9-6.3-3-9.3c-1.3-3.7-2.8-7.4-4.1-11.1
		c-0.5-1.4-0.9-2.8-1.4-4.4c0.3,0.1,0.4,0.1,0.5,0.2c4.8,3.7,9.6,7.5,13.9,11.9c1.1,1.1,2.2,2.2,3.5,3.1c2.8,2.1,5.5,4.2,7.7,7
		c0.1,0.2,0.4,0.3,0.5,0.3c0.3,0,0.9-0.2,0.9-0.3C164,142.3,164,141.8,163.7,141.5z M92.1,139.6c-2.1-0.8-3.9-0.1-5.8,0.8
		c-0.4,0.2-0.8,0.5-1.2,0.7c1.4-1.4,2.6-3,4.9-2.8c1.3,0.1,2.7,0,4.1,0C93.8,139.6,93.1,140,92.1,139.6z M51.7,142
		c-0.5-1.6-1.1-3.2-1.4-4.8c-0.1-0.8,0.2-1.6,0.4-2.5C52.7,135.2,53.3,139.7,51.7,142z M64.9,142.3c-1.1-0.8-2.6-1.9-4.1-3.1h7.7
		C67.1,140.4,66,141.4,64.9,142.3z M91.2,127.4c-2.6-0.1-5,0.8-7.5,1.5c-5.3,1.4-9.7,4.5-13.6,8.3c-0.5,0.5-1.4,0.9-2.1,0.9
		c-2.5,0.1-5-0.1-7.5,0.1c-2.4,0.2-3.8-1.3-5.3-2.7c-0.6-0.6-1.3-1.1-2-1.5c-2-1.2-4.1-2.3-5.9-3.6c-1.4-1-2.5-2.4-3.7-3.6
		c-2.1-2.2-4.1-4.5-6.2-6.8c-0.2-0.3-0.4-0.5-0.6-0.8c-1.3-2-2.5-4.1-4-6c-1.3-1.8-2.5-3.7-3.3-5.8c-0.7-1.7-1.1-3.5-1.6-5.3
		c-0.8-3.4-0.2-6.9-0.4-10.3c-0.2-2.5-0.5-5-0.8-7.5c-0.3-2.1-0.5-4.2-0.9-6.3c-0.6-2.8-1.2-5.6-2-8.4c-0.6-2.1-0.6-2.3,1.3-3.4
		c1.7-1,3.3-2,5.3-2.1c2.1-0.1,4.3-0.2,6.4-0.3c0.7,0,1.3-0.2,2.1-0.3c-0.6-1.4-1.4-1.8-2.6-2c-1.5-0.4-3-0.7-4.6-0.5
		c-1.2,0.2-2.5,0.5-3.7,0.8c-2,0.5-3.9,1.5-5.2,3.3c-1-3.1-2-6-2.9-9c-0.1-0.4-0.2-0.8-0.1-1.2c0-2.5,0-4.9,0.2-7.4
		c0.1-1.3,0.7-2.6,1.2-3.9c0.7-2,1.4-3.9,2.2-5.9c0.9-2,2.1-3.7,4.1-4.8c0.8-0.5,1.5-1.3,2.2-2c2.4-2.5,5.5-3.4,8.9-3.4
		c1.1,0,2.2,0,3.4,0.1c1,0.1,1.9-0.3,2.6-0.8c3.1-2.4,6.9-3.2,10.6-4.3c3.5-1,7-1.6,10.6-1.7c2.4,0,4,0.9,5.2,2.8
		c0.4,0.6,0.8,1.1,1.2,1.6c1,1,1.9,2.2,3,3c2.3,1.8,4.9,2.8,7.8,2.8c1.8,0,3.1,0.4,4.2,1.9c1.8,2.5,3.4,5,4.4,7.8
		c0.9,2.6,2.1,5,3,7.6c1.2,3.4,2.3,6.7,4,9.8c0.5,1,1.3,1.8,1.9,2.7c0.5,0.8,1.2,1.6,1.5,2.5c0.8,1.9,1.4,3.8,2.1,5.8
		c0.3,0.9,1,1.5,2,1.5c0.6,0,1-0.3,1.2-1c0.7-3,1.8-5.8,3.1-8.5c0.4-0.9,0.8-1.8,1-2.7c0.3-1,1.3-1.1,2-1.7c0.3-0.3,0.8-0.6,1.2-0.7
		c0.3-0.1,0.7,0,1,0c2.8,0.7,3.5,3.3,5,5.2c1.1,1.4,1.8,2.9,2.1,4.6c0.6,2.9,0.7,5.8-0.4,8.7c-0.3,0.7-0.3,1.5-0.3,2.2
		c-0.1,1.8-0.1,3.5-0.3,5.3c-0.3,2.9-1.9,5.1-3.9,7c-1.3,1.3-3.1,1.3-4.5,0.1c-0.4-0.3-0.7-1-0.7-1.6c0-2.2,0-4.4,0.1-6.6
		c0-0.5,0.1-0.9,0.8-1.1c0.5-0.2,0.9-0.7,1.3-1.1c0.7-0.7,1.4-0.8,1.9,0c0.4,0.5,0.6,1.2,0.8,1.8c0.3,0.9,0.9,1.2,1.5,0.4
		c0.6-0.7,1-1.5,1.3-2.3c0.6-1.7,0.9-3.5,0.8-5.3c0-2.3,0.2-4.6,0.3-6.9c0.1-1.2-0.3-2.3-1.2-3.1c-1.1-1-1.5-2.3-1.8-3.7
		c-0.4-1.9-1.7-2.5-3.3-1.5c-1.4,0.8-2.7,1.7-2.4,3.8c0.2-0.3,0.5-0.5,0.6-0.8c0.4-1.1,2-2.6,3.1-2.6c0.3,0,0.6,0.3,0.9,0.5
		c0.1,0.1,0.2,0.3,0.2,0.4c0.3,2,1.3,3.7,2.7,5.2c0.4,0.4,0.4,1.3,0.4,1.9c-0.1,2.6-0.3,5.3-0.5,7.9c-0.1,2-0.6,3.9-1.6,5.7
		c-0.4-0.7-0.7-1.3-1-1.9c-0.7-1.2-2.2-1.4-3.2-0.5c-0.4,0.3-0.7,0.7-1.1,1c-0.2,0.1-0.4,0.2-0.9,0.5c0.1-0.8,0.2-1.5,0.3-2.1
		c0-0.8,0-1.7-0.1-2.5c-0.2-1-0.7-2-0.8-3c-0.1-0.7,0.3-1.5,0.6-2.2c0.1-0.1,1.2,0,1.4,0.3c1.1,1.9,2.9,3.6,2.6,6.1
		c0,0.3,0.3,0.6,0.5,0.8c0.2-0.3,0.5-0.5,0.6-0.8c0.3-1.2,0-2.3-0.6-3.3c-0.6-1-1.2-2-1.8-3.1c-0.6-1.1-1.4-1.6-2.7-1.4
		c-0.3,0-0.6,0-0.9,0c-0.2,1.1-0.6,2.1-0.6,3.2c0,1,0.2,2,0.6,2.9c0.5,1.2,0.6,2.3,0.3,3.5c-0.2,0.7,0,1.5-0.1,2.2
		c-0.1,1.3-0.3,2.7-0.2,4c0,1.8,0.3,3.6,0.4,5.4c0.1,1.5,0.1,3,0,4.5c-0.1,2.1,0.1,4.1,0.5,6.1c0.4,2.6-0.4,4.9-1.4,7.2
		c-0.3,0.8-0.8,1.6-1,2.4c-0.3,1.4-1,2.6-2,3.6c-2.3,2.3-4.7,4.5-7,6.7c-1.3,1.2-2.4,2.6-3.7,3.8c-1.4,1.2-2.9,2.2-4.4,3.3
		C92.3,127.1,91.7,127.4,91.2,127.4z M98.7,133.5c-1-0.2-2.1-0.4-3-0.8c-0.3-0.1-0.6-0.6-0.6-0.9c-0.1-0.6,0-1.2,0-2
		c1.2,0.6,2.4,1.1,3.4,1.8c0.4,0.3,0.5,1.1,0.7,1.7L98.7,133.5z M117.4,106.2c-0.3,0.9-0.4,1.9-0.5,2.8c-0.2,2.1-1.1,3.9-2.4,5.5
		c-2.1,2.8-4.3,5.7-6.5,8.4c-1.8,2.2-3.8,4.1-5.6,6.2c-0.7,0.8-1.3,1.6-2,2.5c-1.9-1.9-4.3-2.9-6.9-3.7c0.8-0.7,1.5-1.3,2.2-1.9
		c1.7-1.5,3.4-2.9,5-4.4c1.3-1.2,2.6-2.6,3.9-3.9c1.5-1.5,3-2.9,4.5-4.5c0.5-0.5,0.8-1.3,1.1-1.9c0.6-1.2,1-2.5,1.6-3.8
		c1.4-3.1,1.9-6.3,1.5-9.7c-0.3-2.2-0.1-4.5-0.1-6.7c0.8,0.1,1.7,0.2,2.7,0.3c0.1,0.7,0.1,1.6,0.2,2.4c0.2,2.6,0.4,5.3,0.7,7.9
		c0,0.4,0.1,0.8,0.4,1.1C117.9,103.9,117.7,105,117.4,106.2z"/>
	<path class="st0" d="M56.8,115.1c-3.2,0.2-5.9-0.8-8.6-2.4c-1.6-1-3.2-1.8-4.8-2.7c-0.7-0.4-0.8-1-0.1-1.4c2.9-2.3,5.9-4.6,8.8-6.9
		c0.8-0.6,1.5-0.8,2.5-0.4c1.5,0.6,3,0.5,4.1-0.9c1-1.4,2.7-1.9,4.4-1.9c3.5,0,7,0,10.5-0.1c1.8,0,3.5-0.3,5.3-0.4
		c0.7,0,1.4,0,2,0.1c0.7,0.1,0.9,0.5,0.5,1.2c-1.6,3.1-3.9,5.7-6.2,8.2c-1.8,2-4.2,3-6.4,4.4c-2.8,1.9-6,2.3-9.1,3
		C58.7,115.2,57.7,115.1,56.8,115.1z M48.3,109c1.7,0.9,3.3,1.1,5,1.1c1,0,2-0.2,2.9-0.2c1.3-0.1,2.7,0.1,4-0.2
		c2.8-0.6,5.7-1,8.2-2.6c0.8-0.5,1.6-1,2.4-1.4c2.6-1.3,5.2-2.7,7.3-4.8c0.2-0.2,0.4-0.4,0.7-0.8c-1.1,0.2-1.8,0.3-2.6,0.4
		c-1.6,0.2-3.2,0.2-4.8,0.5c-2.6,0.5-5.2,1.1-7.8,1.7c-2.1,0.5-4.2,1.4-6.3,1.9c-2.1,0.4-4.1,1.3-6,2.4
		C50.2,107.5,49.4,108.3,48.3,109z M79.4,101.1c-1.7,1.2-3.1,2.4-4.8,3.3c-3.9,2.2-7.5,5.1-12.2,5.6c-1.9,0.2-3.8,0.8-5.8,0.9
		c-1.8,0.1-3.7,0-5.5-0.2c-1.2-0.2-2.4-0.6-3.5-1.1c-1.2-0.5-1.5-0.6-2.7,0.3c1.9,1,3.7,2.1,5.6,3c0.9,0.5,1.9,1,2.9,1.1
		c2.8,0.3,5.6,0.5,8.4-0.5c2.1-0.7,4.4-1.2,6.4-2.3c3.6-2,6.8-4.5,9.3-7.8C78.1,102.8,78.7,102,79.4,101.1z M78.8,99.1
		c0-0.1,0-0.2,0-0.3c-1.4,0.1-2.9,0.3-4.3,0.4c-3.7,0.1-7.3,0.2-11,0.1c-1.7,0-3,0.3-4.1,1.6c-1.4,1.6-3.2,1.7-5.1,1.1
		c-0.7-0.2-1.2-0.1-1.8,0.3c-1.1,0.9-2.3,1.7-3.4,2.6c-1.5,1.3-3,2.6-4.6,3.8c0.9-0.1,1.6-0.6,2.4-0.7c1.8-0.3,3.2-1.2,4.7-2.1
		c0.4-0.2,0.8-0.5,1.2-0.7c1.7-0.6,3.3-1.1,5-1.6c3.6-1,7.3-2.1,11-2.9C72.1,100,75.5,99.7,78.8,99.1z"/>
	<path class="st0" d="M69.5,50.9C69.5,50.9,69.4,50.7,69.5,50.9c1.6-0.4,3.3-0.7,4.9-0.9c2.2-0.2,4.5-0.6,6.8,0.1
		c0.8,0.3,1.7,0.1,2.5,0.2c0.2,0,0.4,0,0.6,0.1c1.3,0.5,2.3,1.3,3.3,2.3c0.4,0.4,0.9,0.9,1.2,1.4c0.2,0.3,0.1,0.8,0.1,1.2
		c-0.4,0-0.8,0-1.1-0.1c-0.7-0.3-1.4-0.6-2.1-0.9c-3.2-1.5-6.7-1.2-10.1-1.2c-1.2,0-2.4,0-3.5,0.3c-1.9,0.6-3.8,1.4-5.6,2.1
		c-1.4,0.6-2.8,1.2-4.1,1.9c-0.9,0.5-1.7,1-2.5,1.6c-0.5,0.3-1,0.6-1.1-0.4c0-0.1-0.1-0.2-0.2-0.3c-0.8-0.9-0.2-1.5,0.4-2.1
		c0.8-0.8,1.8-1.3,2.6-2.1c1.4-1.4,3.3-1.7,5.1-2.4C67.4,51.3,68.4,51.1,69.5,50.9z"/>
	<path class="st0" d="M63,67.5c0.2-0.2,0.4-0.5,0.6-0.7c2-1.6,3.9-3.3,6-4.6c1.5-0.9,3.4-1.1,5.1-1.6c0.4-0.1,0.8,0,1.2,0
		c2.5-0.3,4.5,1,6.6,2.1c0.5,0.3,0.5,0.7,0,1c-3.8,2.4-8,3.9-12.6,3.9c-1.8,0-3.5,0-5.3,0c-0.5,0-1,0.1-1.6,0.2
		C63.1,67.7,63.1,67.6,63,67.5z M72.4,66.4c-0.7-0.8-1.2-1.4-1.6-2.1c-0.8-1.5-0.8-1.5-2.1-0.3c-0.4,0.3-0.8,0.6-1.2,0.9
		c-0.5,0.4-1.1,0.8-1.6,1.2c0,0.1,0.1,0.1,0.1,0.2C68.1,66.4,70.1,66.4,72.4,66.4z M77,61.8c0,1.1,0,2.2,0,3.5
		c1-0.7,1.9-1.3,2.9-1.9c0.3-0.2,0.5-0.6,0-0.7C78.8,62.3,77.9,62.1,77,61.8z M74,62.2c-0.3,0.5-0.6,0.8-0.6,1.1
		c0,0.2,0.5,0.6,0.6,0.6c0.3-0.1,0.6-0.4,0.7-0.7C74.8,63,74.4,62.7,74,62.2z"/>
	<path class="st0" d="M33.4,77.7c-0.9-0.1-1.9-0.1-3-0.3c-0.7-0.1-1.3-0.1-1.8,0.6c-0.1,0.1-0.4,0.2-0.6,0.2
		C28,78,27.9,77.8,28,77.7c0.8-1.6,1.5-3.3,2.8-4.6c1.8-1.8,4-2.7,6.6-2.7c1.8,0,3.6,0,5.4,0.2c2.1,0.3,2.4,1.1,1.1,2.8
		c-0.4,0.5-1,1.1-1.6,1.4c-2.2,0.9-4.3,1.8-6.6,2.6C35,77.7,34.3,77.6,33.4,77.7z M29.9,76.1c0.1,0.1,0.1,0.2,0.2,0.3
		c1.9,0,3.8,0.3,5.8-0.4c-1.5-0.7-2.4-1.6-2.4-3.4C32.1,73.9,31,75,29.9,76.1z M40.3,71.4c-0.1,1.2-0.2,2.3-0.4,3.6
		c1.1-0.9,2.2-1.8,3.3-2.6c-0.1-0.1-0.1-0.2-0.2-0.2C42.2,71.9,41.2,71.6,40.3,71.4z M36.8,71.8c-0.3,0.5-0.7,0.9-0.6,1.1
		c0,0.2,0.4,0.5,0.7,0.7c0.2-0.3,0.6-0.5,0.7-0.8C37.5,72.6,37.1,72.3,36.8,71.8z"/>
	<path class="st0" d="M44.2,64.9c0.5,0.7,1.2,1.4,1.5,2.2c0.4,1.2,0.9,2.4,0.9,3.7c0.1,2.5,0,5.1-0.2,7.6c-0.2,2.1-0.9,4.2-1.2,6.3
		c-0.2,1.5-0.6,2.6-1.5,3.7c-1.1,1.4-0.7,2.9,0.6,3.2c0.4,0.1,0.8,0.1,1.1-0.1c1.4-0.8,2.9-0.6,4.3-0.3c0.7,0.2,1.4,0.3,2.2,0.5
		c1.5,0.3,2.7-0.6,3.6-1.6c1.7-2,3.8-2.8,6.3-3.1c1.4-0.2,2.7-0.5,3.7-1.6c0.8-0.8,0.7-2.3-0.2-3c-1.2-0.8-2.4-0.5-3.6-0.3
		c-0.3,0-0.5,0-0.8,0c0-0.1-0.1-0.2-0.1-0.3c0.4-0.2,0.7-0.5,1.1-0.5c1.4-0.3,2.8-0.3,4.1,0.6c1.4,1,1.3,3.9-0.4,4.9
		c-0.9,0.5-2.1,0.8-3.2,0.9c-2.1,0.2-4,0.8-5.5,2.4c-1.3,1.4-2.7,2.8-4.9,2.5c-1-0.1-2.1-0.4-3.1-0.7c-1-0.3-1.9-0.2-2.9,0.3
		c-1.7,0.9-2.6,0.6-3.6-1c-0.4-0.8-0.2-2.5,0.7-3.3c1.1-0.9,1.2-2,1.4-3.2c0.3-2.2,0.9-4.4,1.2-6.7c0.5-3.1,0.2-6.1-0.2-9.2
		c-0.1-0.8-0.7-1.6-1.1-2.3c-0.2-0.4-0.5-0.8-0.8-1.2C43.9,65.1,44,65,44.2,64.9z"/>
</g>
</svg>
