<?xml version="1.0" encoding="utf-8"?>
<!-- Generator: Adobe Illustrator 19.2.1, SVG Export Plug-In . SVG Version: 6.00 Build 0)  -->
<svg version="1.1" id="Layer_1" xmlns="http://www.w3.org/2000/svg" xmlns:xlink="http://www.w3.org/1999/xlink" x="0px" y="0px"
	 viewBox="0 0 156.4 200" style="enable-background:new 0 0 156.4 200;" xml:space="preserve">
<style type="text/css">
	.st0{fill:#03A9F4;}
</style>
<g id="pharm-michael">
	<path class="st0" d="M0,161.7c1.6-1.5,3.2-2.9,4.7-4.5c1.5-1.6,3.3-2.7,5.1-3.6c2.3-1.1,4.7-2,7.2-2.6c3.1-0.7,6.2-1.4,9.4-2.1
		c2.8-0.6,5.7-1.4,8.5-2c1.3-0.3,2.8-0.3,4.1-0.5c1.5-0.2,3-0.6,4.6-0.9c0.2,0,0.4-0.3,0.5-0.5c0.6-1.7,1.1-3.3,1-5.2
		c-0.1-2.1,0-4.2-0.2-6.2c-0.2-2.1-0.8-4.1-1.2-6.2c-0.1-0.6-0.2-1.2-0.4-1.8c0-0.2-0.2-0.4-0.3-0.5c-0.7-0.7-1.5-1.3-2.1-2
		c-0.9-1.1-1.7-2.2-2.4-3.4c-1.3-2-2-4.3-2.5-6.5c-0.6-2.4-1-4.9-1.5-7.4c-0.2-1.1-0.6-2.2-0.9-3.3c-0.1-0.2-0.1-0.4-0.1-0.6
		c-0.1,0-0.1,0-0.2,0c-2.6,1.4-4.7,0.3-5.3-2.6c-0.3-1.5-0.6-3-0.9-4.5c-0.1-0.7-0.2-1.4-0.2-2.1c-0.1-2.2-0.1-4.3-0.3-6.5
		c-0.1-1.3-0.5-2.6-0.6-3.9c-0.1-1.1,0-2.3,0-3.4c0-0.5,0.1-1.1,0.1-1.7c-1.4,0.1-2.2-0.8-3-1.7c-0.5-0.5-1-1-1.5-1.6
		c-1.2-1.6-1.8-3.5-2.1-5.4c-0.3-2-0.3-4-0.6-6c-0.1-0.9-0.5-1.8-1-2.6c-1.3-2.1-0.9-4.2-0.1-6.3c0.6-1.5,1.4-2.9,2-4.5
		c0.4-1,0.7-2.1,0.7-3.2c0.1-2.6,1-4.9,2.5-6.9c1-1.4,1.6-2.9,1.9-4.5c0.8-3.5,1.7-7,3.8-10c1.6-2.2,3.3-4.2,6-5.2
		c1.6-0.6,2.6-1.8,2.5-3.7c-0.1-2,0.9-3.4,2.5-4.6c1.5-1.1,3-1.9,4.8-2.2c2-0.4,3.2-1.6,3.8-3.5c0.4-1.3,1-2.3,2.4-2.7
		c0.2-0.1,0.4-0.1,0.6-0.1c2.1-0.1,4.2,0.1,6.3,0.4c0,0,0.1,0,0.1,0c1.4,1,2.4,0,3.4-0.6c1-0.6,2.1-0.8,3.2-0.7
		c0.5,0.1,0.9,0.5,1.3,0.8c0.6,0.5,1.2,0.4,1.7-0.2c1.3-1.5,3.2-2.1,5-2.2c1.4-0.1,2.8,0.2,3.7,1.6c0.2,0.4,0.5,0.7,1,0
		c0.6-1,1.8-1.2,2.8-1.3c1.6-0.2,3.3-0.2,4.8,0.8c0.4,0.3,0.8,0.6,1.2,0.9c0.5,0.5,1.1,0.7,1.8,0.7c0.9,0,1.7,0,2.6,0
		c1.1,0,2.1,0.4,2.8,1.4c0.5,0.8,1,1.5,1.5,2.3c0.1,0.2,0.3,0.3,0.4,0.5c0,0,0.2,0,0.2,0.1c0.8,0.7,1.1,0.8,2.3,0.8
		c1.4,0,2.8,0.1,4.1,0.6c1.3,0.5,2.1,1.3,2.8,2.5c0.2,0.4,0.5,0.8,0.8,1.2c0.6,0.7,0.8,1.5,1,2.4c0.1,1.1,0.6,2.2,1,3.2
		c0.4,1.2,0.8,2.4,1.1,3.6c0.1,0.5,0.3,0.7,0.8,0.9c1.3,0.4,2.7,0.7,3.9,1.2c0.8,0.3,1.6,0.9,2,1.6c1.2,2.1,2.5,4,3,6.4
		c0.2,1,0.4,2.1,0.6,3.1c0.1,0.9,0.3,1.7,0.4,2.6c0.1,0.6,0,1.2,0.2,1.8c0.6,1.6,1.6,2.9,3.1,3.8c1.7,1,2.4,2.6,2.6,4.6
		c0.2,1.9-0.7,3.2-1.7,4.5c-0.4,0.5-0.6,1.1-0.5,1.7c0.5,1.9,1,3.9,1.5,5.8c0.2,0.9,0.5,1.8,0.5,2.7c0,1.4,0.2,2.7-0.2,4.1
		c-0.7,1.9-1.8,3.5-3.2,4.8c-0.2,0.2-0.4,0.2-0.6,0.4c-0.5,0.3-0.7,0.7-0.5,1.3c0.8,2.2,0.9,4.5,0.8,6.7c-0.1,1.1-0.6,2.2-0.9,3.4
		c-0.3,1.1-0.5,2.3-0.7,3.4c-0.2,1.6-0.4,3.2-0.6,4.8c-0.2,1.4-0.4,2.8-0.9,4.2c-0.5,1.5-1.3,3-2.1,4.4c-0.6,1-1.7,1.2-2.8,1.4
		c-0.6,0.1-1.2,0-2,0c-0.1,0.4-0.2,0.9-0.3,1.3c-0.3,1.5-0.5,3-0.8,4.5c-0.1,0.6-0.4,1.2-0.4,1.8c0.1,1.9-0.5,3.6-1.1,5.3
		c-0.6,1.6-1.2,3.2-1.5,4.8c-0.3,1.8-0.6,3.6-0.3,5.5c0.1,0.7,0,1.4,0,2c0.1,0.9,0.2,1.8,0.3,2.6c0,0.1,0.3,0.2,0.4,0.4
		c0.2,0.2,0.5,0.3,0.6,0.6c0.3,1.5,1.2,2.8,2,4c0.3,0.4,0.4,0.8,0.6,1.3c0.8,1.8,1.6,3.5,2.8,5.1c1.9,2.5,3.6,5.3,5.4,7.9
		c0.9,1.3,2.1,2.4,3.2,3.4c1.3,1.2,2.5,2.6,3.9,3.6c1.9,1.3,4,2.4,6.2,3.2c1.6,0.6,3.1,1.5,4.6,2.3c0.6,0.3,1.3,0.5,2,0.8
		c1.1,0.5,2.2,1.1,3.3,1.7c1.1,0.6,2.2,0.8,3.3,1.2c1.3,0.4,2.5,1.1,3.8,1.7c1.7,0.8,3.3,1.6,5,2.4c0.8,0.4,1.7,0.7,2.6,1.1
		c0,0.4,0,0.9,0,1.5c-1.1-0.5-2.2-0.9-3.3-1.5c-2.2-1.1-4.4-2.3-6.6-3.3c-1-0.5-2.2-0.6-3.3-1.1c-1.7-0.7-3.3-1.6-5-2.4
		c-1.8-0.9-3.6-1.9-5.4-2.7c-1.2-0.5-2.4-0.9-3.6-1.4c-0.3,1.6-0.5,3.2-0.9,4.8c-0.4,1.7-1.1,3.4-1.5,5.1c-1.1,4-2.1,8-3.2,12
		c-0.6,1.9-1.4,3.7-2.2,5.5c-0.3,0.7-1.1,1.2-1.7,1.6c-0.9,0.6-1.9,1-2.8,1.4c-0.8,0.4-1.6,0.8-2.4,1.2c-0.8,0.4-1.6,0.9-2.4,1.3
		c-0.3,0.2-0.4,0.5-0.1,0.8c1.4,1.3,2.8,2.6,4.1,3.9c0.3,0.2,0.6,0.5,0.8,0.7c1.1,1.2,2.4,2.1,3.9,2.6c0.1,0,0.2,0.2,0.5,0.4
		c-1.7,0-3.2,0.3-4.6-1.1c-2.4-2.5-5-4.8-7.8-6.9c-2.3-1.8-4.8-3.5-6.9-5.7c-0.5-0.5-1-1.2-1.5-1.8c-0.1-0.2-0.3-0.4-0.5-0.4
		c-0.5-0.2-0.8-0.6-0.4-1.1c0.3-0.5,0.9-0.4,1.3-0.1c0.5,0.4,0.9,0.8,1.3,1.3c0.8,1.3,2,2.3,3.1,3.2c1.1,0.9,2.2,1.7,3.3,2.6
		c0.6,0.6,1.3,0.5,1.9,0.2c2.2-1,4.5-2,6.7-3c1-0.5,1.9-1.1,2.8-1.7c0.2-0.1,0.4-0.4,0.5-0.7c0.7-1.9,1.5-3.8,2.2-5.8
		c0.6-2,1-4,1.5-6c0.8-2.9,1.8-5.7,2.6-8.5c0.5-1.8,0.8-3.7,1.1-5.6c0.1-0.7-0.3-1.4-1-1.7c-1.8-0.9-3.4-2.2-4.8-3.8
		c-0.9-1-2-1.8-2.8-2.8c-1.2-1.5-2.3-3-3.4-4.6c-1.1-1.5-2.1-3.1-3.2-4.7c-0.2,1.3-0.4,2.3-0.6,3.3c-0.7,3-1.3,6.1-2.2,9
		c-1.1,3.5-2.1,7-4,10.1c-1.2,2-2,4.3-3.1,6.4c-1.1,2-2.3,3.8-3.5,5.8c-0.8,1.3-1.3,2.8-2.1,4.1c-2.2,3.4-3.2,7.3-5.1,10.7
		c-1.3,2.4-2.7,4.8-4.1,7.2c-0.2,0.3-0.4,0.7-0.6,1c-0.6,1.2-0.6,1.2-2.1,1c0.6-1.1,1.2-2.2,1.8-3.3c1.9-3.2,3.7-6.4,5.2-9.8
		c0.8-1.9,1.6-3.8,2.5-5.7c1.3-2.5,2.7-4.9,4-7.4c0.6-1.1,1.4-2.2,2.2-3.5c-2.4,1.3-4.7,2.6-6.8,3.9c-3,1.8-5.9,3.7-8.8,5.6
		c-1.6,1.1-3,2.4-4.6,3.6c-1.2,0.9-2.5,1.7-3.6,2.7c-2.2,1.7-4.3,3.4-6.5,5c-1.5,1.1-3,2-4.5,3.1c-0.9,0.6-1.7,1.4-2.5,2
		c-0.2,0.1-0.3,0.3-0.5,0.4c-0.9,0.3-1.4,0.5-1.8-0.8c-0.3-1.2-0.8-2.4-1.2-3.6c-0.4-1.4-0.7-2.8-1.2-4.2c-0.3-0.8-0.6-1.6-1-2.5
		c-0.7,0.5-1.3,0.9-1.9,1.3c-0.8,0.5-1.7,0.8-2.6,1.2c-0.3,0.1-0.6,0.5-0.6,0.8c-0.3,1.3-0.6,2.6-0.9,3.9c-0.4,1.6-0.7,3.3-1.1,4.9
		c-0.1,0.5-0.2,1-0.3,1.5c-0.1,0.6-0.4,0.8-1,0.8c-3.2,0-6.5,0-9.7,0c-1.9,0-3.9,0-6,0c1-2.4,1.8-4.8,2.9-7.1
		c1.3-2.7,2.5-5.4,3.5-8.2c0.4-1.1,1-2.1,1.4-3.2c0.1-0.3,0.3-0.7,0.3-1.1c0-0.9,0-1.8,0-2.9c-1.5,2-2.9,3.9-4.3,5.8
		c-0.5,0.7-1,1.5-1.5,2.2c-0.2,0.3-0.3,0.6-0.5,0.8c-0.2,0.2-0.5,0.5-0.7,0.5c-0.2,0-0.5-0.4-0.5-0.7c0-0.7,0.2-1.5,0.3-2.2
		c0.7-2.9,1.4-5.7,2.1-8.6c0.7-2.8,1.3-5.6,1.9-8.5c0.4-1.5,0.9-3,1.2-4.5c0.2-1,0.2-2,0.4-3c0.1-0.5,0.2-0.9,0.3-1.5
		c-1,1.4-2.1,2.6-2.7,4.2c-0.4,1.1-1.1,2-1.6,3c-0.9,1.9-1.7,3.8-2.6,5.7c-0.8,1.7-1.6,3.3-2.3,4.9c-1,2.4-2,4.9-2.9,7.4
		c-1,3-1.9,6-2.9,8.9c-0.7,2.2-1.4,4.4-2.2,6.5c-0.5,1.4-0.5,1.5-2.1,1.3c0,0-0.1-0.1-0.1-0.1c0.8-2.3,1.5-4.6,2.3-6.9
		c1.1-3.2,2.2-6.5,3.4-9.7c0.7-2,1.6-3.9,2.3-5.9c0.7-2,1.5-3.9,2.6-5.8c0.6-1.1,0.9-2.4,1.5-3.5c1.3-2.7,2.3-5.6,4.2-8
		c0.6-0.8,1.1-1.9,1.6-2.8c0.9-1.7,1.8-3.3,2.6-5c0.6-1.3,1-2.6,1.5-3.9c-0.1,0-0.1-0.1-0.2-0.1c-0.5,0.4-1,0.7-1.5,1.1
		c-2.5,1.7-5,3.3-7.6,4.9c-1.5,0.9-3,1.8-4.6,2.7c-0.4,0.3-0.9,0.5-1.3,0.8c-0.2,0.1-0.3,0.4-0.3,0.6c0.2,1.6-0.6,3.1-0.8,4.6
		c-0.1,0.5-0.1,1-0.3,1.7c0.9-0.3,1.7-0.5,2.5-0.9c1.7-0.7,3.4-1.5,5-2.3c0.5-0.2,0.9-0.2,1.1,0.3c0.2,0.4,0,0.8-0.5,1
		c-2.1,0.9-4.2,1.9-6.4,2.8c-1.7,0.7-3.5,1.3-5.2,2c-1.3,0.6-2.6,1.3-3.9,2c-0.4,0.2-0.7,0.7-0.9,1.1c-0.2,0.3-0.2,0.6-0.4,0.9
		c-1.4,2.2-2,4.6-3,7c-0.7,1.8-1.7,3.5-2.3,5.3c-0.7,2.2-1.2,4.4-1.7,6.6c-0.6,2.3-1.1,4.6-1.7,6.8c-0.2,0.9-0.4,1.8-0.6,2.7
		c-0.5,0-1,0-1.4,0c0.3-1.4,0.7-2.7,1-4c0.8-3.3,1.5-6.6,2.3-9.9c0.7-2.6,1.7-5.1,2.9-7.5c0.7-1.4,1.2-2.9,1.8-4.4
		c0.4-0.9,0.8-1.7,1.2-2.5c0.4-0.9,0.8-1.7,1.2-2.6c0.2-0.3,0.4-0.6,0.7-0.8c1.3-0.7,2.7-1.3,4-2c0.6-0.3,1.3-0.7,1.9-0.9
		c0.7-0.2,1.1-0.6,1.3-1.4c0.3-1.6,0.6-3.1,0.9-4.7c0-0.2,0.1-0.4,0.1-0.6c-0.2-1.5,0.7-2.3,1.8-2.9c1.7-1,3.4-1.9,5-3
		c2.7-1.7,5.3-3.4,7.9-5.1c0.2-0.1,0.4-0.3,0.6-0.5c-1.3,0.2-2.5,0.4-3.7,0.5c-1.3,0.2-2.6,0.3-3.9,0.5c-1.8,0.4-3.6,0.9-5.5,1.3
		c-2.1,0.5-4.2,0.9-6.3,1.3c-1.5,0.3-2.9,0.9-4.3,1.1c-2.5,0.4-4.8,1.4-7.1,2.3c-2.4,1-4.4,2.4-6.1,4.3c-1,1.2-2.3,2.2-3.5,3.3
		c-0.4,0.4-0.7,0.9-1.1,1.4c-0.1,0.2-0.3,0.3-0.5,0.5C0,163.2,0,162.4,0,161.7z M66.9,139.6c0,0.1,0,0.1,0,0.2c1-0.2,2-0.4,3.1-0.6
		c1.2-0.2,2.3-0.3,3.5-0.5c1.6-0.3,3.1-0.7,4.6-1.1c1.8-0.5,3.7-1.1,5.5-1.8c2.2-0.8,3.7-2.5,5.4-4c1.5-1.4,2.9-2.9,4.3-4.3
		c0.8-0.8,1.6-1.5,2.4-2.3c1-1,1.9-2.1,3.1-2.9c1.3-0.9,2.5-2,3.3-3.4c0.3-0.4,0.6-0.8,0.9-1.2c1-1.2,2-2.5,3-3.7
		c1.4-1.8,2.2-3.8,2-6.1c0-0.2,0-0.4,0.1-0.6c0.9-2.2,0.7-4.7,1.3-6.9c0.1-0.2,0-0.5,0-0.8c0-4.8,0-9.7,0-14.5c0-0.3,0-0.6-0.1-0.8
		c-0.2-1-0.6-2-0.7-3c-0.3-2.3-0.6-4.5-0.6-6.8c0-2.5-0.7-4.8-0.9-7.2c-0.2-2.1-0.6-4.2-0.8-6.2c-0.2-2.2-0.2-4.4-0.3-6.6
		c-0.1-2.4-0.3-4.9-0.9-7.3c-0.6-2.3-1.4-4.6-1.9-6.9c-0.6-2.5-2-4.5-3.2-6.6c-1-1.7-2.3-3.2-4-4.1c-2.8-1.5-5.5-3.1-8.6-3.8
		c-3-0.7-5.9-2.1-9.1-2.3c-1.9-0.1-3.8-0.4-5.7-0.4c-2.5,0-5,0.2-7.5,0.4c-1.1,0.1-2.3,0.3-3.4,0.3c-1.6,0-3.1,0.4-4.6,1
		c-2,0.8-3.7,2.1-5.4,3.3c-0.5,0.4-1,0.7-1.4,1.1c-0.9,0.9-1.6,1.9-2.5,2.8c-1.7,1.6-3.4,3.1-5.1,4.7c-0.7,0.7-1.4,1.5-2.1,2.1
		c-1,0.9-2,1.7-2.4,3c-0.1,0.2-0.3,0.3-0.4,0.4c-0.4,0.6-1,1.2-1.3,1.9c-0.4,0.9-0.4,1.9-0.8,2.8c-0.9,2.7-1.2,5.4-1.3,8.2
		c0,1.6,0,3.2,0,4.7c0,2,0,4-0.2,5.9c-0.3,2.6-0.6,5.1-0.5,7.7c0,1.2-0.2,2.3-0.6,3.4c-0.7,1.9-0.6,3.9-0.4,5.8
		c0.2,1.6,0.4,3.2,0.5,4.8c0.1,1.1,0.1,2.3,0.2,3.5c0,0.6,0.1,1.3,0.2,1.9c0.2,1.3,0.4,2.7,0.5,4c0.2,1.4,0.3,2.8,0.5,4.2
		c0,0.4,0.1,0.8,0.2,1.3c0.3,1.1,0.6,2.2,0.9,3.3c0.6,2.5,1,5,1.6,7.4c0.3,1.1,0.6,2.1,1,3.2c0.7,2,1.6,3.9,3.1,5.4
		c1.3,1.4,2.7,2.6,4.1,3.9c0.9,0.8,1.9,1.6,2.9,2.4c1.9,1.5,3.8,3,5.7,4.5c1.4,1.1,2.6,2.3,4,3.3c1.3,0.9,2.7,1.6,4,2.5
		C63.6,139.2,65.1,139.8,66.9,139.6z M107.4,132.7c-1.3,2.6-2.5,5.2-3.9,7.7c-0.6,1.1-1.6,2.2-2.6,3c-2,1.6-4.1,3-6.2,4.4
		c-1.9,1.3-3.9,2.7-5.8,4c-1.4,0.9-3,1.6-4.5,2.5c-2.3,1.3-4.5,2.7-6.8,4c-3.3,1.8-6.5,3.7-9.8,5.4c-2.5,1.3-5,2.5-7.6,3.7
		c-1,0.5-2,0.7-2.9,1.3c-0.9,0.6-2,1-2.1,2.4c-0.1,2,0.2,4,0.7,5.8c0.9,2.8,2.1,5.6,3.2,8.4c0.5,1.2,1,2.5,1.4,3.7
		c0.6,2,1.2,4,1.8,6.1c0.3-0.2,0.6-0.3,0.7-0.4c0.8-0.6,1.5-1.2,2.3-1.8c1.6-1.2,3.3-2.2,4.9-3.4c2.3-1.7,4.5-3.4,6.8-5.2
		c1.7-1.3,3.3-2.8,5.1-4c2.9-2,5.8-4,8.7-5.9c3.1-2,6.3-3.9,9.5-5.7c1-0.6,1.8-1.3,2.3-2.5c0.5-1.1,1-2.3,1.5-3.4
		c0.7-1.5,1.5-2.9,2.1-4.3c0.7-1.8,1.3-3.7,1.9-5.6c0.5-1.5,0.8-3.1,1.2-4.6c0.3-1.4,0.5-2.8,0.9-4.2c0.5-1.6,0.6-3.2,0.2-4.7
		C109.9,137,109.1,134.6,107.4,132.7z M45.3,127.1c0,0.1-0.1,0.1-0.1,0.2c0,0.1,0,0.2,0,0.3c0.4,2.3,1,4.7,1.2,7
		c0.2,2.2,0.1,4.4,0.2,6.6c0,0.6,0.1,1.1,0.2,1.7c0.5,2.1,1.2,4.2,1.6,6.4c0.5,2.5,0.8,5,1.2,7.5c0.3,1.9,0.7,3.8,1,5.7
		c0.2,1.4,0.4,2.8,0.8,4.1c0.1,0.5,0.4,1.1,0.8,1.3c1.1,0.6,2.2,0.6,3.4,0.2c1.3-0.6,2.6-1.2,4-1.7c4-1.6,7.7-3.7,11.3-5.8
		c1.9-1.1,3.8-2.1,5.7-3.2c1.2-0.7,2.4-1.3,3.6-2c1.5-0.8,2.9-1.8,4.4-2.6c1.2-0.7,2.5-1.3,3.6-2c3.5-2.4,6.8-4.9,10.3-7.2
		c1.9-1.3,3.5-2.7,4.4-4.8c0.5-1.2,1.2-2.4,1.8-3.5c0.8-1.4,1-3,0.8-4.6c-0.2-1.3-0.4-2.7-0.4-4c-0.1-1.1,0.1-2.1,0.1-3.2
		c0-2.1-0.2-4.2,0.4-6.2c-0.9,1-1.8,1.9-2.6,3c-0.9,1.3-1.9,2.3-3.1,3.2c-0.5,0.4-1.1,0.8-1.6,1.2c-1.5,1.4-2.9,2.9-4.3,4.3
		c-1.9,1.9-3.8,3.7-5.7,5.5c-0.9,0.9-1.9,1.7-3,2.3c-3.3,1.7-6.9,2.5-10.4,3.3c-1.3,0.3-2.7,0.3-4,0.6c-1.7,0.4-3.4,0.7-5.1,0.5
		c-1-0.1-2-0.3-2.8-0.7c-1.8-0.9-3.5-2-5.2-3.1c-1.4-0.9-2.6-2.1-3.9-3.1C51.1,131.8,48.2,129.4,45.3,127.1z M45.9,144.7
		c-0.1,0-0.1,0-0.2,0c-0.1,0.1-0.1,0.2-0.2,0.4c-0.2,0.8-0.2,1.6-0.5,2.4c-0.6,2-1.3,3.9-1.8,5.9c-0.7,2.6-1.2,5.2-1.8,7.7
		c-0.9,3.6-1.7,7.3-2.6,10.9c-0.7,3.2-1.5,6.4-2.2,9.5c0,0.2-0.1,0.4-0.1,0.5c1-1.3,2.1-2.6,3.2-3.8c0.8-1,1.7-2.1,2.5-3.1
		c1.5-1.7,2.9-3.4,4.8-4.7c1.2-0.8,2.5-1.4,3.7-2.1c-0.3-1.4-0.8-2.9-1.1-4.4c-0.4-1.9-0.9-3.9-1.2-5.8c-0.3-1.7-0.4-3.4-0.6-5
		c-0.3-1.8-0.7-3.5-1.1-5.3C46.5,146.8,46.2,145.7,45.9,144.7z M110.6,88.4c0,3.2,0,6.4,0,9.6c0,0.3,0,0.7,0.1,0.8
		c0.3,0.3,0.8,0.6,1.2,0.7c1.1,0.2,2.2-0.5,2.7-1.5c0.4-0.7,0.8-1.4,1-2.1c0.6-1.6,1.2-3.3,1.5-4.9c0.3-1.9,0.3-3.9,0.5-5.9
		c0.1-0.9,0.3-1.8,0.6-2.7c0.3-1.2,0.9-2.4,1-3.7c0.1-1.5-0.2-3-0.4-4.5c-0.2-1.6-0.3-2-1.9-0.9c-1.1,0.7-2.1,1.6-3.1,2.4
		c0.8,1.4,1.7,2.5,2,3.9c0.1,0.7,0.1,1.5,0.4,2.1c0.5,1,0.4,2,0.4,3c-0.1,2-0.3,4-0.4,6c-0.1,0.6-0.2,1.1-0.5,1.6
		c-0.3,0.7-1.4,0.9-2,0.4c-0.6-0.6-1.2-1.3-1.7-1.9C111.4,90.1,110.7,89.4,110.6,88.4z M32.3,90.6c-0.1-0.8-0.1-1.6-0.3-2.3
		c-0.1-0.7-0.4-1.5-0.4-2.2c0-1.5-0.2-2.9-0.7-4.3c-0.6-1.6-1.3-3.1-2.7-4.2c-0.2-0.2-0.6-0.3-0.9-0.3c-0.2,0.1-0.4,0.4-0.5,0.7
		c-0.1,0.2,0,0.5,0,0.8c0.1,0.7,0.2,1.4,0.3,2c0.1,0.6,0.1,1.3,0.1,1.9c0.1,1,0.4,2,0.4,3c0.1,1.5,0.1,3,0.2,4.5
		c0,0.7,0.2,1.3,0.3,1.9c0.1,0.4,0.3,0.7,0.4,1.1c0.1,0.3,0.1,0.7,0.2,1c0.1,0.4,0.4,0.6,0.9,0.3c0.9-0.7,1.3-1.6,1.6-2.7
		C31.4,91.3,31.6,90.8,32.3,90.6z M112.8,76.7c-0.1,0.2-0.3,0.3-0.3,0.5c-0.1,1-0.3,2-0.9,2.9c0,0,0,0,0,0.1
		c-0.1,0.8-0.3,1.6-0.3,2.5c-0.2,2.7-0.1,5.4,1.7,7.7c0.4,0.5,0.7,1,1.1,1.4c0.3,0.4,0.7,0.2,0.8-0.3c0.1-0.7,0.3-1.5,0.3-2.2
		c0.1-2.1,0.2-4.2,0.1-6.3c0-0.9-0.3-1.7-0.4-2.6c-0.1-0.4-0.2-0.9-0.4-1.3C114.1,78.2,113.8,77.2,112.8,76.7z M32.4,92.1
		c0,0-0.1,0-0.1,0c-0.1,0.4-0.2,0.7-0.4,1.1c-0.7,1.4-1.3,2.9-3.3,2.7c0,0-0.1,0-0.1,0.1c0,0.2,0.1,0.4,0.1,0.6
		c0.3,1.2,0.5,2.4,0.9,3.5c0.3,1.1,2.1,1.5,3,0.7c0.6-0.5,0.7-1.2,0.6-1.9c-0.1-1.7-0.3-3.4-0.4-5.1C32.6,93.1,32.5,92.6,32.4,92.1z
		"/>
	<path class="st0" d="M68.1,116.7c-2.4,0-4.7,0-6.8-1.3c-1.3-0.8-2.5-1.7-3.6-2.6c-0.9-0.8-1.5-1.7-2.3-2.7
		c-1.1-1.4-2.5-2.6-4.2-3.1c-0.3-0.1-0.6-0.3-0.8-0.6c-0.2-0.3-0.1-0.6,0.3-0.8c1.8-0.6,3.6-1.1,5.4-1.8c2.1-0.8,4.1-1.8,6.1-2.5
		c2.1-0.8,4.2-0.6,6.3,0.1c0.6,0.2,1.1,0.1,1.7-0.2c1.7-1,3.5-1.4,5.5-1c1.1,0.2,2.3,0.1,3.4,0.4c1.6,0.5,3.2,1.2,4.7,1.8
		c1.1,0.5,2.2,1,3.4,1.5c0.6,0.2,1.3,0.3,1.9,0.5c0.9,0.2,1.1,0.5,0.5,1.3c-1.5,2.3-3.2,4.4-5.2,6.3c-2.2,2-4.7,3.3-7.7,3.8
		c-2.9,0.4-5.8,0.7-8.7,1.1C68.1,116.8,68.1,116.7,68.1,116.7z M55,107.8c0,0.1-0.1,0.1-0.1,0.2c0.4,0.4,0.8,0.8,1.1,1.2
		c0.8,1.5,2,2.7,3.4,3.8c2.2,1.8,4.5,2.8,7.4,2.8c3.3,0,6.5-0.2,9.8-0.9c3.5-0.7,6.5-2.1,8.6-5.1c0.2-0.3,0.5-0.7,0.7-1.1
		c-0.3-0.1-0.6-0.2-0.8-0.2c-0.9,0.2-1.9,0.6-2.8,0.8c-2.1,0.5-4.2,1-6.3,1.3c-2.2,0.3-4.4,0.5-6.6,0.8c-2,0.3-3.9,0.1-5.8-0.2
		c-2.8-0.5-5.4-1.8-8-3.1C55.3,108,55.2,107.9,55,107.8z M56.2,107.2c0,0.1,0,0.1-0.1,0.2c0.2,0.1,0.4,0.3,0.6,0.4
		c0.8,0.4,1.6,0.8,2.4,1.2c2.4,1.1,5,1.8,7.7,1.8c1.7,0,3.5-0.3,5.2-0.4c1.3-0.1,2.6-0.2,3.9-0.5c1.7-0.3,3.3-0.7,5-1.1
		c1.1-0.3,2.1-0.7,3.2-1.1c0.6-0.2,0.5-0.7,0.5-1.1c0-0.2-0.3-0.6-0.5-0.6c-0.7-0.1-1.5-0.1-2.2,0c-1.3,0.1-2.6,0.2-4,0.3
		c-2.5,0.1-5.1,0.1-7.6,0.2c-1.5,0-2.9,0.1-4.4,0.1c-2.4,0.1-4.9,0.3-7.3,0.4C58,106.9,57.1,107,56.2,107.2z M54,105.6
		c0.9,0.9,1.9,0.7,2.8,0.6c2.5-0.2,4.9-0.5,7.4-0.7c1.7-0.1,3.4-0.1,5.1-0.2c2.1-0.1,4.2-0.1,6.3-0.1c0.5,0,1,0,1.6,0
		c2.1-0.1,4.3-0.2,6.4-0.3c0.8,0,1.5-0.1,2.4-0.2c-0.1-0.1-0.1-0.2-0.2-0.2c-1.1-0.5-2.2-1.1-3.3-1.6c-1.2-0.5-2.5-1-3.7-1.4
		c-0.7-0.2-1.6-0.2-2.3-0.3c-1.9-0.4-3.8-0.4-5.5,0.7c-1,0.7-2,0.7-3.1,0.3c-2.1-0.7-4.1-0.6-6.1,0.2c-2.1,0.8-4.1,1.7-6.2,2.6
		C55.1,105.2,54.6,105.4,54,105.6z"/>
	<path class="st0" d="M102.4,63c-0.2,0.2-0.4,0.5-0.7,0.7c-0.1,0.1-0.5,0-0.6-0.1c-0.6-0.4-1.1-0.8-1.7-1.2c-2-1.1-4-2.2-6.1-3.1
		c-1-0.4-2.1-0.3-3.2-0.4c-2.5-0.2-4.9,0.3-7.4,0.6c-1.4,0.2-2.8,0.1-4.1-0.3c-0.2-0.1-0.5-0.2-0.7-0.4c-0.9-0.8-0.8-1.6,0.4-2
		c4.5-1.7,9.2-2.6,14-1.5c1.2,0.3,2.4,0.6,3.5,1c0.5,0.2,0.9,0.5,1.3,0.8c1.9,1.5,3.8,2.9,4.9,5.1C102.2,62.5,102.3,62.7,102.4,63z"
		/>
	<path class="st0" d="M56.2,60.1c-1.3-0.3-2.7-0.6-4-0.8c-0.9-0.2-1.9-0.4-2.8-0.4c-2.3,0.2-4.7,0-6.8,1.2c-1.2,0.7-2.4,1.5-3.4,2.5
		c-0.7,0.8-0.9,2-1.4,3c-0.1,0.2-0.2,0.5-0.4,0.6c-0.2,0.2-0.7,0.3-0.9,0.2c-0.2-0.1-0.4-0.7-0.3-0.8c0.9-1.5,1.2-3.2,2.2-4.7
		c1.1-1.6,2.5-3,4.1-4.1c0.8-0.6,1.9-0.7,3-1c0.8-0.2,1.6-0.3,2.4-0.5c0.7-0.1,1.4-0.3,2.1-0.2c1.7,0.1,3.5,0,5.2,0.6
		c1.2,0.4,2.3,1.2,3,2.3c0.6,0.9,0,1.9-1.1,1.9c-0.3,0-0.5,0-0.8,0C56.2,60,56.2,60,56.2,60.1z"/>
	<path class="st0" d="M86.1,65c2.3,0,4.1,0.8,5.8,1.7c1.4,0.8,2.8,1.7,4.1,2.6c0.2,0.1,0.3,0.5,0.2,0.7c0,0.2-0.3,0.4-0.5,0.4
		c-1.1,0.3-2.3,0.6-3.5,0.9c-2.7,0.8-5.3,1.2-8,0.4c-1.8-0.6-3.7-0.7-5.6-1.1c-0.3-0.1-0.9-0.2-0.9-0.4c-0.1-0.4,0-1,0.3-1.3
		C80.3,66.5,83.1,65.2,86.1,65z M83.3,70.3c0-0.9,0-1.8,0-2.7c0-0.2,0-0.5,0-0.7c-0.2,0-0.5,0-0.7,0.1c-0.2,0.1-0.4,0.2-0.6,0.3
		c-0.8,0.5-1.6,1-2.3,1.6c-0.2,0.1-0.3,0.5-0.3,0.7c0,0.1,0.3,0.3,0.5,0.4C81.1,70.1,82.2,70.2,83.3,70.3z M89.5,70.5
		c0,0.1,0.1,0.2,0.1,0.2c0.2,0,0.4,0,0.7-0.1c0.8-0.2,1.7-0.5,2.5-0.7c0.3-0.1,0.7-0.3,0.7-0.5c0-0.3-0.2-0.7-0.4-0.8
		c-0.6-0.4-1.2-0.7-1.8-1c-0.3-0.1-0.5-0.2-0.9-0.4C90.2,68.5,90.6,69.7,89.5,70.5z M86.2,67.5c-0.1,0.7,0.3,1,0.8,1
		c0.3,0,0.8-0.5,0.9-0.9c0.1-0.5-0.4-1.1-0.9-1C86.5,66.6,86.1,66.9,86.2,67.5z"/>
	<path class="st0" d="M51.3,73.1c-2.2-0.4-4.5-0.8-6.7-1.2c-0.5-0.1-1-0.1-1.4,0.1c-0.3,0.1-0.7,0.3-0.9,0c-0.1-0.3-0.2-0.9,0-1
		c0.6-0.5,1.2-1,1.9-1.4c1.5-0.9,2.9-1.8,4.4-2.6c0.7-0.4,1.5-0.6,2.3-0.7c1.4-0.1,2.9-0.1,4.2,0.1c0.9,0.2,1.8,0.7,2.5,1.2
		c1.1,0.8,2,1.8,3,2.8c0.4,0.4,0.2,0.8-0.3,0.9c-2.2,0.5-4.3,1-6.5,1.4c-0.8,0.2-1.7,0-2.6,0C51.3,72.9,51.3,73,51.3,73.1z
		 M55.4,67.6c-0.1,1.4,0.7,2.7-0.4,3.8c1.2-0.2,2.4-0.4,3.5-0.6c0.5-0.1,0.6-0.6,0.2-1c-0.5-0.5-1.1-0.9-1.7-1.4
		C56.6,68.1,56,67.9,55.4,67.6z M48.6,68.3c-1.4,0.8-2.7,1.6-4,2.4c0,0.1,0,0.2,0,0.3c1.4,0.2,2.8,0.5,4.2,0.7
		C48.2,70.7,48.5,69.6,48.6,68.3z M52.8,68.6c0-0.6-0.3-0.9-0.8-0.9c-0.5,0-0.8,0.4-0.8,0.9c0,0.5,0.2,0.7,0.7,0.7
		C52.5,69.4,52.8,69.1,52.8,68.6z"/>
	<path class="st0" d="M81.9,88.2c0,2.4-1.1,3.4-3.2,3.1c-1.6-0.2-3.2-0.4-4.7,0.5c-1,0.6-1.9,1.4-2.8,2.2c-0.7,0.6-1.4,0.7-2.2,0.7
		c-1.2,0-2.2-0.5-3.1-1.3c-1.8-1.8-4-1.9-6.4-1.5c-0.8,0.1-1.8-0.1-2.6-0.4c-1.1-0.4-0.8-2.2-0.4-3.2c0.6-1.4,1.7-2.4,2.7-3.5
		c0.1-0.1,0.2-0.3,0.4-0.3c0.2,0,0.5,0,0.5,0.1c0.1,0.1,0.1,0.4,0,0.6c-0.2,0.3-0.5,0.6-0.8,0.8c-1,1-1.9,2.1-2.3,3.5
		c-0.3,1.1,0.2,1.7,1.4,1.7c0.5,0,0.9-0.1,1.4-0.2c2.5-0.6,4.7-0.1,6.6,1.7c1.1,1,2.2,1.3,3.5,1.1c0.6-0.1,1.2-0.8,1.7-1.3
		c1.3-1.3,2.9-2.2,4.8-2.3c0.8,0,1.7,0.2,2.6,0.3c0.6,0.1,1.2,0.3,1.6-0.4c0.5-0.7,0.5-1.5,0.1-2.3c-0.6-1.5-1.6-2.8-3.1-3.6
		c-0.5-0.3-0.9-0.6-1.3-1c-0.2-0.2-0.1-0.5-0.1-0.8c0.3,0,0.7-0.2,0.9,0c0.9,0.7,1.8,1.4,2.6,2.2C81,85.6,81.7,87.1,81.9,88.2z"/>
</g>
</svg>
