<?xml version="1.0" encoding="utf-8"?>
<!-- Generator: Adobe Illustrator 19.2.1, SVG Export Plug-In . SVG Version: 6.00 Build 0)  -->
<svg version="1.1" id="Layer_1" xmlns="http://www.w3.org/2000/svg" xmlns:xlink="http://www.w3.org/1999/xlink" x="0px" y="0px"
	 viewBox="0 0 158.6 200" style="enable-background:new 0 0 158.6 200;" xml:space="preserve">
<style type="text/css">
	.st0{fill:#03A9F4;}
</style>
<g id="pharm-tony">
	<path class="st0" d="M0,173.6c0.2-0.4,0.3-0.9,0.5-1.3c0.7-2.2,1.2-4.5,2-6.7c0.6-1.6,1.6-3,2.4-4.5c0.7-1.2,1.5-2.3,2.2-3.5
		c1.5-2.6,3.7-4.3,6.4-5.5c0.9-0.4,1.7-0.8,2.6-1.1c1.3-0.4,2.7-0.7,4-1.1c2.7-0.8,5.3-1.6,7.9-2.7c2.5-1.1,5.1-1.9,7.5-2.9
		c2.4-1.1,4.8-2.3,7.2-3.6c0.5-0.3,0.6-0.9,0.4-1.5c-0.8-2-1.9-3.8-3.3-5.4c-1-1.1-1.8-2.5-2.8-3.7c-1.1-1.5-2.2-2.9-3.3-4.3
		c-0.9-1.1-1.9-2.1-2.7-3.2c-0.9-1.3-1.7-2.7-2.5-4.1c-1.5-2.5-2.8-5.1-3.8-7.9c-0.5-1.4-1.2-2.7-1.7-4c-0.7-1.7-1-3.5-1.2-5.3
		c-0.2-1.6-0.6-3.2-0.8-4.8c-0.2-1.3-0.3-2.7-0.5-4c-0.1-0.7-0.3-1.4-0.4-2.1c-0.3-1.6-0.5-3.1-0.8-4.7c-0.3-1.7-0.7-3.4-1-5.2
		c-0.2-1.1-0.3-2.3-0.4-3.4c-0.1-0.5-0.1-0.9-0.5-1.3c-0.3-0.4-0.3-1-0.5-1.6c-0.6-2.1-1.1-4.1-1.7-6.2c-0.6-2-1.2-4.1-1.8-6.1
		c-0.8-3.1-1.6-6.3-2.2-9.4c-0.3-1.4-0.3-2.9-0.5-4.3c-0.3-2.1-0.6-4.1-0.9-6.2c-0.1-0.5-0.1-1-0.1-1.5c0-2.4,0-4.8,0-7.2
		c-0.1-2,0.8-3.6,2.1-5.1c1.6-1.9,3.3-3.6,4.8-5.6c0.9-1.1,1.5-2.4,2.2-3.6c0.9-1.6,2.2-2.7,3.6-3.7c1-0.8,2.2-1.5,3.3-2.2
		c0.3-0.2,0.7-0.2,1-0.3c1.4-0.5,2.7-1.1,4.1-1.5c2.1-0.7,3.8-2,5.1-3.8c0.8-1.1,1.7-2.3,2.6-3.4c1.5-1.8,3.4-2.9,5.7-3.4
		c1-0.2,2.1-0.3,3.2-0.4c2.1-0.1,4.1,0,6.2,0c1.3,0,2.7-0.2,4-0.3c0.2,0,0.5,0,0.7,0c2.4-0.3,4.6,0.3,6.9,0.9C67,1.5,69,2,70.9,2.7
		c1.8,0.7,3.6,1.5,5.4,2.3c1.6,0.7,3.3,1.3,4.9,2c0.8,0.4,1.6,1,2.4,1.4c1,0.5,2,1.1,3,1.5c1.3,0.5,2.5,1.1,3.6,1.9
		c0.7,0.6,1.5,1.1,2.3,1.6c1.2,0.7,2,1.7,2.8,2.8c0.9,1.2,1.8,2.4,2.6,3.7c0.4,0.6,0.7,1.4,0.8,2.1c0.3,1.5,0.9,2.8,1.9,4
		c1.1,1.2,1.5,2.7,1.7,4.3c0.1,0.8,0.3,1.6,0.4,2.4c0.2,1.3,1.1,2.3,1.6,3.4c0.4,0.8,0.7,1.6,0.7,2.5c0.1,3.2,0.2,6.4,0.2,9.5
		c0,1.6,0,3.1,0,4.7c0,1.1-0.1,2.1-0.2,3.2c-0.1,1.4,0.3,2.8,0.5,4.2c0.1,0.9,0.1,1.9,0.2,2.9c0,0.1,0,0.2,0,0.3
		c0.8,1.7,1,3.5,1.3,5.3c0.6,3,0.7,6,0.7,8.9c0,1.5-0.3,3-0.4,4.5c0,0.4,0,0.8,0,1.3c0.1,3-0.7,5.7-1.8,8.5c-0.7,1.7-1.6,3.4-3,4.7
		c-0.4,0.4-1.1,0.7-1.6,1.1c-0.1,0.1-0.3,0.2-0.2,0.3c0,0.9,0.1,1.8,0.2,2.7c0.1,1.1,0.3,2.2,0.4,3.3c0.2,1.5,0.6,2.9,0.8,4.4
		c0.4,2.3,1.2,4.4,2.1,6.5c0.4,1,1.3,1.5,2.1,2.1c0.5,0.4,1,0.7,1.4,1.1c0.6,0.6,1.2,1.3,1.8,1.9c0.7,0.8,1.4,1.5,2.2,2.3
		c0.2,0.2,0.4,0.3,0.6,0.5c0.3,0.3,0.7,0.5,1,0.8c0.6,0.5,1.2,1.1,1.7,1.7c0.9,0.9,1.7,1.9,2.5,2.7c0.9,0.9,1.8,1.7,2.7,2.6
		c1.1,1.1,2.2,2.3,3.4,3.4c0.4,0.4,0.8,0.6,1.2,1c0.3,0.3,0.7,0.6,0.9,0.9c0.4,0.8,1.2,0.9,1.9,1.3c1.7,1,3.5,1.9,5.3,2.8
		c0.3,0.2,0.7,0.3,1.1,0.5c1.7,0.8,3.4,1.7,5.1,2.5c1.5,0.7,3,1.2,4.6,1.3c0.3,0,0.5,0.1,0.7,0.2c1,0.5,1.9,1.2,2.9,1.7
		c0.9,0.5,1.8,1.1,2.8,1.5c2.2,0.8,4.3,1.9,6.3,3.2c0.7,0.4,1.3,1,2,1.4c0,0.4,0,0.9,0,1.3c-0.1-0.1-0.3-0.1-0.4-0.2
		c-0.7-0.5-1.4-1.1-2.2-1.6c-1.8-1.1-3.5-2.1-5.5-2.8c-1.4-0.5-2.7-1.4-4.1-2.1c-1-0.5-2-1-3.1-1.3c-1.9-0.6-3.9-1.1-5.7-2.1
		c-1.1-0.6-2.3-1.3-3.5-1.8c-1.8-0.7-3.3-1.8-5-2.6c-0.9-0.4-1.7-0.8-2.7-1.3c0.1,0.8,0.3,1.5,0.3,2.2c0.1,2.9-0.2,5.7-0.5,8.5
		c-0.2,1.5-0.4,3-0.5,4.6c-0.1,1.9-0.2,3.7,0,5.6c0.2,1.8,0.7,3.5,1.1,5.2c0.1,0.5,0.1,1-0.4,1.3c-1.2,1-2.4,2-3.7,2.9
		c-2.1,1.4-4.3,2.8-6.4,4.2c-0.9,0.5-1.8,1-2.6,1.5c-0.2,0.1-0.4,0.5-0.4,0.6c0.1,0.5,0.3,1,0.7,1.3c1.8,1.5,3.6,3,5.4,4.5
		c1.3,1.1,2.6,2.3,3.9,3.5c0.4,0.3,0.4,0.7,0.1,1.2c-0.5,0.8-0.9,1.6-1.4,2.4c-1.3,2.2-2.5,4.5-3.8,6.7c-0.8,1.3-1.6,2.6-2.4,3.8
		c-0.4,0.7-0.8,1.3-1.3,1.9c-0.5,0-1,0-1.6,0c0.2-0.4,0.4-0.8,0.7-1.1c1.4-1.8,2.6-3.8,3.7-5.8c0.9-1.5,1.7-3,2.6-4.5
		c0.7-1.3,1.4-2.5,2.2-3.8c-0.6-0.5-1.1-1-1.7-1.5c-1-0.9-2.1-1.9-3.2-2.8c-1.3-1.1-2.7-2.1-4-3.2c-0.6-0.4-1.1-0.9-1.7-1.3
		c-0.4-0.3-0.9-0.6-1.2-1c-0.2-0.1-0.1-0.5-0.2-0.7c-0.9-0.9-1.9-1.7-2.9-2.6c-1.3-1.2-2.6-2.3-3.5-3.8c-0.1-0.3-0.4-0.5-0.6-0.7
		c-1-1-2.2-1.8-3-3.1c-0.2-0.3-0.2-0.7-0.2-1c0-0.2,0.4-0.4,0.5-0.4c0.3,0.1,0.5,0.4,0.7,0.6c0.3,0.4,0.5,0.9,0.8,1.2
		c0.6,0.6,1.3,1,1.8,1.6c1.2,1.2,2,2.7,3.3,3.8c1,0.8,1.8,1.7,2.7,2.6c0.5,0.4,1,0.8,1.5,1.2c0.9-0.4,1.9-0.9,2.8-1.4
		c2.3-1.4,4.6-2.8,6.9-4.2c0.9-0.6,1.8-1.4,2.7-2.1c0.5-0.4,1-0.8,1.5-1.2c0.1-0.1,0.2-0.4,0.2-0.5c-0.2-0.8-0.4-1.7-0.5-2.5
		c-0.3-1.7-0.7-3.3-0.6-5.1c0.1-1.7,0.1-3.5,0.2-5.2c0.1-0.9,0.2-1.7,0.3-2.5c0.2-1.7,0.5-3.4,0.5-5.1c0.1-1.9,0.1-3.9-0.3-5.8
		c-0.2-1-0.4-1.9-1.4-2.3c-0.2-0.1-0.4-0.3-0.6-0.4c-1.1-1.2-2.3-2.4-3.4-3.5c-1.1-1.1-2.2-2.2-3.3-3.2c-0.2-0.2-0.6-0.4-0.7-0.7
		c-0.9-1.5-2.4-2.4-3.5-3.7c-0.3-0.3-0.8-0.4-1.1-0.7c-0.4-0.3-0.8-0.7-1.2-1.2c0.1,0.5,0.1,0.9,0.1,1.3c0,1.2,0,2.4,0,3.5
		c0,0.5-0.1,0.9-0.2,1.4c-0.5,1.6-1.1,3.2-1.4,4.9c-0.4,2.3-1.2,4.5-2.3,6.6c-1.2,2.6-2.3,5.2-3.6,7.7c-1.1,2.3-2.5,4.5-3.6,6.8
		c-1.2,2.3-2.2,4.7-3.4,7c-1,2-2.1,4.1-2.8,6.2c-0.7,2.2-1.6,4.3-2.4,6.4c-0.5,1.2-1.2,2.4-1.6,3.6c-0.4,1.2-0.6,2.6-1,3.8
		c-0.8,2.5-1.7,4.9-2.6,7.3c-0.3,0.9-0.9,1.8-1.2,2.8c-0.6,1.8-1.1,3.7-1.6,5.5c-0.2,0.9-0.5,1.8-0.7,2.7c-0.4,0-0.8,0-1.2,0
		c0-0.2,0.1-0.4,0.1-0.6c0.3-1,0.6-2,0.8-3c0.4-1.6,0.8-3.2,1.4-4.7c0.5-1.6,1.2-3.1,1.8-4.7c0.4-1.1,0.9-2.1,1.3-3.2
		c0.2-0.6,0.4-1.2,0.6-1.8c-0.1,0-0.2,0-0.2,0c-1.4,1.1-2.8,2.2-4.2,3.3c-0.3,0.2-0.5,0.5-1,0.3c-0.6-0.3-1.2-0.5-1.8-0.9
		c-1.5-0.8-2.9-1.5-4.4-2.3c-0.4-0.2-0.6-0.2-0.9,0.1c-0.8,0.8-1.7,1.6-2.6,2.5c-0.7,0.7-1.4,1.4-2,2.1c-1.8,2-3.6,4-4.8,6.5
		c-0.2,0.4-0.3,0.7,0,1.2c0.4,0.8,0.7,1.6,1,2.4c0.3,1,0.5,2,0.7,3c-5.6,0-11.2,0-16.9,0c0.1-0.4,0.2-0.7,0.2-1.1
		c-0.1-0.8,0.2-1.5,0.5-2.3c0.4-0.9,0.8-1.8,1.2-2.8c0.3-0.7,0.4-1.5-0.3-2.1c-0.1-0.1-0.2-0.3-0.2-0.4c-0.1-0.8-0.1-1.7-0.3-2.5
		c-0.2-1.4-0.4-2.7-0.7-4.1c-0.5-2.2-1.2-4.3-1.8-6.4c-0.1-0.3-0.2-0.6-0.3-1c-0.1,0.2-0.2,0.2-0.3,0.3c-0.3,0.5-0.6,1.1-1,1.5
		c-0.9,0.9-1.9,1.6-2.9,2.3c-1.4,0.9-2.7,2-4.1,3.1c-0.1,0.1-0.2,0.3-0.2,0.4c-0.3,1.3-0.7,2.6-1,3.9c-0.6,2.7-1.2,5.4-1.8,8.1
		c-0.2,1-0.4,1.9-0.6,2.9c-0.4,0-0.8,0-1.2,0c0.1-0.7,0.2-1.4,0.4-2.2c0.6-3.1,1.2-6.2,2-9.2c0.7-2.8,1.5-5.6,2.3-8.5
		c0.6-2.1,1.1-4.2,1.7-6.3c0.3-1,0.6-1.9,0.8-2.8c0.4-1.4,0.6-2.9,1-4.3c0.6-1.9,0.8-3.9,0.9-5.9c0.1-1.5-0.1-3-0.1-4.4
		c0-4.7,0-9.4,0-14c0-0.2,0-0.4,0-0.7c-0.2,0.1-0.2,0.1-0.3,0.1c-2,1-4,2.2-6.1,3.1c-1.3,0.6-2.2,1.6-2.7,2.8
		c-0.3,0.6-0.6,1.3-0.7,1.9c-0.5,1.8-1,3.6-1.4,5.4c-0.3,1.6-0.5,3.2-0.7,4.8c-0.1,0.9-0.2,1.8-0.3,2.9c0.3-0.1,0.4-0.2,0.6-0.3
		c1.4-0.8,2.8-1.6,4.2-2.5c0.6-0.4,1.1-0.8,1.6-1.2c0.1-0.1,0.4-0.2,0.5-0.2c0.2,0.1,0.4,0.3,0.4,0.5c0.2,0.6-0.3,0.9-0.7,1.1
		c-1.8,1.1-3.7,2.2-5.5,3.3c-0.4,0.2-0.9,0.4-1.1,0.8c-0.3,0.4-0.6,0.6-1,0.7c-0.2,0.1-0.4,0.1-0.6,0.2c-0.7,0.5-1.4,1-2,1.4
		c-2.1,1.5-4.2,2.9-6.4,4.4c-0.4,0.3-0.7,0.6-0.8,1.2c-0.1,1-0.3,1.9-0.4,2.9c-0.2,1.3-0.4,2.5-0.5,3.8c-0.1,1-0.2,2-0.3,3
		c-0.1,0.9-0.3,1.8-0.4,2.6c-0.1,1-0.2,2.1-0.3,3.1c-0.2,1.8-0.3,3.6-0.5,5.4c-0.1,0.9-0.2,1.8-0.3,2.7c-0.1,1.5-0.3,2.9-0.5,4.4
		c-0.4,0-0.8,0-1.2,0c0-0.4,0.1-0.7,0.1-1.1c0.2-2.3,0.5-4.5,0.7-6.8c0.2-2,0.2-4,0.4-6c0.1-0.8,0.2-1.6,0.3-2.4
		c0.1-1.1,0.3-2.1,0.4-3.2c0.1-1,0.1-2,0.3-3c0.3-2,0.6-4,0.9-6c0.1-0.7,0.3-1.2,1-1.5c0.9-0.5,1.7-1,2.5-1.6
		c2.3-1.6,4.6-3.2,6.8-4.8c0.2-0.2,0.3-0.5,0.4-0.8c0.1-1,0.2-2.1,0.3-3.1c0.2-1.4,0.4-2.9,0.7-4.3c0.3-1.7,0.6-3.5,1.1-5.2
		c0.4-1.4,1-2.6,1.5-4c-0.1,0-0.2,0-0.4,0.1c-0.6,0.2-1.2,0.5-1.9,0.8c-2.4,0.9-4.9,1.8-7.3,2.8c-1.9,0.8-3.8,1.3-5.8,1.7
		c-1.8,0.4-3.5,1.2-5.2,2c-1.8,0.8-3.4,1.9-4.4,3.6c-0.2,0.4-0.6,0.7-0.9,1.1c-0.5,0.8-1,1.6-1.5,2.4c-1.3,1.9-2.7,3.8-3.3,6.1
		c-0.7,2.6-1.5,5.3-2.3,7.9c-0.3,1.1-0.7,2.3-1,3.4C0,176.6,0,175.1,0,173.6z M81.4,35.9c-1.8-0.1-3.7-0.1-5.5-0.3
		c-2-0.2-4-0.5-6-0.9c-1.7-0.3-3.3-0.8-4.9-1.2c-1-0.3-2-0.7-3-0.7c-2,0-4.1,0-6.1,0.3c-2.2,0.3-4.3,1.2-6.2,2.4
		c-2.3,1.4-4.6,2.8-7.1,3.8c-1.6,0.7-3.3,1.1-5.1,1.1c-1.4,0-2.7,0-4.1,0c-0.6,0-1.2-0.1-1.7-0.2c-2-0.3-3.9-1-5.9-1.6
		c-0.7-0.2-1.6-0.2-2.3,0c-1.1,0.3-2.2,0.8-2.9,1.8c-0.4,0.5-0.9,1-1.1,1.6c-0.2,1.2-0.8,2.2-1.4,3.2c-0.3,0.4-0.5,0.9-0.5,1.4
		c-0.2,2.1-0.3,4.2-0.4,6.3c-0.1,1.9,0,3.8,0,5.7c0,1.7,0.3,3.3,0.8,4.8c0.5,1.8,1,3.5,0.9,5.4c-0.1,1.7,0,3.5,0,5.2
		c0,0.6,0,1.2,0.1,1.8c0.3,1.9,0.5,3.9,0.8,5.8c0.3,1.8,0.6,3.5,0.9,5.2c0.3,1.7,0.7,3.5,1,5.2c0.2,1.3,0.3,2.7,0.5,4.1
		c0.2,1.6,0.5,3.2,0.8,4.8c0.3,1.5,0.5,3.1,1,4.5c1,2.7,2,5.4,3.2,8c1.2,2.7,2.6,5.2,4.4,7.5c1.8,2.3,3.4,4.6,5.2,7
		c1,1.4,2.1,2.7,3.1,4.1c0.3,0.4,0.5,0.7,0.8,1.1c1,1.1,1.9,2.2,2.5,3.6c0.3,0.7,0.5,1.4,1,2c1.2,1.5,2.7,2.8,4.2,4
		c0.7,0.5,1.4,1,2.2,1.2c1.1,0.3,2.2,0.7,3.4,0.7c1.6-0.1,3.2,0.1,4.8-0.1c2.6-0.3,4.9-1.4,7.2-2.5c1.4-0.7,2.7-1.5,4.1-2.2
		c1.3-0.6,2.4-1.5,3.5-2.4c1.4-1.2,2.8-2.5,4.4-3.6c1.6-1.2,2.8-2.7,4-4.3c0.5-0.7,0.9-1.4,1.5-2c1.5-1.4,2.7-3.1,3.8-4.8
		c1.4-2.1,2.5-4.4,3.4-6.7c0.5-1.2,1.2-2.3,1.5-3.5c0.6-2.1,1.1-4.4,1-6.6c0-0.8,0-1.5,0-2.3c0-0.2,0.3-0.6,0.4-0.6
		c0.2,0,0.5,0.2,0.7,0.4c0.1,0.1,0.1,0.3,0.1,0.5c0.1,2.1-0.1,4.3-0.5,6.4c-0.3,1.3-0.5,2.6-1,3.9c-0.8,2-1.8,3.9-2.7,5.8
		c-1,2.3-2.4,4.3-3.9,6.2c-1.6,1.9-3.2,3.8-4.6,5.8c-0.4,0.7-1.1,1.2-1.7,1.7c-1.4,1.2-2.9,2.4-4.3,3.6c-1,0.9-2,1.8-3.2,2.5
		c-1.8,1.1-3.6,2.1-5.5,3c-1.7,0.8-3.4,1.6-5.1,2.2c-1.5,0.5-3.1,0.9-4.7,0.8c-1.4-0.1-2.7,0-4.1-0.2c-1.2-0.2-2.4-0.5-3.5-0.9
		c-0.7-0.3-1.4-0.8-2.1-1.2c0.7,2.4,1.3,4.8,2.1,7.1c0.6,1.7,1.6,3.2,2.5,4.8c0.5,1,1.1,1.9,1.6,2.8c0.9,1.9,1.8,3.9,2.7,5.8
		c0.6,1.1,1,2.3,1.3,3.5c0.2,0.8,0.5,1.6,0.9,2.2c0.3,0.5,0.7,1.1,1.4,0.9c1.5-0.4,2.9-1.1,4-2.1c0.9-0.8,1.9-1.6,2.8-2.4
		c0.8-0.7,1.6-1.3,2.4-2c1-1,2-2,3-3c0.7-0.7,1.4-1.3,2-2c1.8-2.2,3.4-4.6,5.5-6.5c1.3-1.2,2.4-2.5,3.6-3.7c1.3-1.4,2.7-2.7,3.9-4.1
		c1.4-1.6,2.8-3.3,4.1-5c0.7-0.9,1.3-1.9,2-2.9c0.6-0.8,1.2-1.5,1.7-2.3c1.4-2.1,2.8-4.3,4.5-6.2c0.9-1,1.8-2.1,2.2-3.4
		c0.1-0.4,0.4-0.7,0.6-1.1c0.2-0.3,0.4-0.6,0.5-0.9c0.2-0.7,0.3-1.4,0.4-2.1c0.1-0.9,0.2-1.8,0.2-2.7c0-0.3,0-0.6-0.1-0.8
		c-0.1-0.5-0.2-1-0.3-1.5c0-0.3,0-0.5-0.1-0.8c-0.6-1.9-1.3-3.8-1.8-5.7c-0.5-2-0.8-4-1.1-6c-0.3-1.6-0.5-3.2-0.6-4.8
		c0-0.6-0.2-0.7-0.7-0.8c-0.5-0.1-1-0.3-1.5-0.5c-0.1-0.1-0.2-0.4-0.1-0.5c0.1-0.2,0.3-0.3,0.5-0.3c0.2,0,0.4,0.1,0.6,0.1
		c0.7,0.1,1.3,0.2,2,0.1c1-0.1,1.6-1,2.2-1.7c1.3-1.6,2.1-3.5,2.7-5.5c0.6-1.9,1-3.8,0.9-5.8c0-0.1,0-0.3,0-0.4
		c0.2-1.5,0.4-3,0.4-4.5c0.1-1.4,0-2.8-0.1-4.1c-0.1-2-0.3-3.9-0.5-5.9c-0.6,0.1-1,0-1.1-0.6c0-0.1-0.2-0.2-0.3-0.2
		c-1.2-0.1-2.3-0.2-3.2,0.9c-0.3,0.3-0.6,0.5-0.9,0.2c-0.4-0.3-0.3-0.8,0.1-1c0.5-0.4,1-0.8,1.5-1c1.2-0.4,2.4-0.4,3.7,0.1
		c-0.4-1-0.7-2-1-2.9c-0.1-0.2-0.4-0.3-0.6-0.3c-0.3,0-0.5,0.1-0.8,0.1c-0.9,0.1-1.8,0.2-2.3,1c-0.6,0.9-1.2,1.7-1.5,2.6
		c-0.5,1.4-0.8,2.8-1.1,4.2c-0.1,0.6-0.2,1.1-0.2,1.6c0.4,0,0.9-0.1,1.2,0c1,0.4,2,0.9,2.9,1.4c0.1,0.1,0.2,0.2,0.3,0.4
		c0.3,0.5,0.7,1,1,1.5c0.3,0.4,0.6,0.8,0.7,1.3c0.2,1.6,0.1,3.2-0.9,4.7c-0.6,0.8-1.2,1.4-2.2,1.6c-0.2,0-0.3,0.3-0.4,0.5
		c-0.4,0.8-0.8,1.6-1.3,2.4c-0.2,0.3-0.4,0.7-0.7,0.9c-0.1,0.1-0.4,0.1-0.5,0c-0.1-0.1-0.2-0.3-0.3-0.4c0-0.2,0.1-0.4,0.2-0.5
		c0.5-1,1-2,1.5-3c0.3-0.6,0.7-1.1,1.4-1.1c0.2,0,0.5-0.1,0.7-0.3c0.7-1,1.5-1.9,1.3-3.3c0-0.3,0-0.5,0-0.8
		c-0.1-0.3-0.1-0.7-0.3-0.9c-0.5-0.6-1.1-1.1-1.5-1.7c-0.4-0.6-1-0.7-1.4-1.1c-0.7-0.6-1.4,0-2.1,0.2c-0.1,2.2-0.2,4.3-0.3,6.5
		c0,0.4,0,1-0.6,1c-0.7,0.1-1.3,0.1-2,0c-0.2,0-0.4-0.3-0.5-0.5c-0.6-1.2-1-2.5-1.2-3.8c-0.2-1.9-0.6-3.7-0.9-5.6
		c-0.2-1.6-0.3-3.3-0.8-4.9c-0.6-1.8-1.2-3.5-2.4-5c-1-1.3-1.7-2.7-2-4.3c-0.2-1.2-0.4-2.4-0.6-3.6c-0.2-1.1-0.6-2.1-1-3.1
		c-0.6-1.4-1.3-2.8-2-4.2c-0.3-0.6-0.8-1.1-1-1.8c-0.7-1.6-0.6-3.4-0.8-5.1C81.5,39,81.5,37.5,81.4,35.9z M104.7,117.3
		c0,1.4,0.3,2.7-0.2,4c0,0.1,0,0.2,0,0.4c-0.1,0.5-0.1,1-0.2,1.4c-0.4,0.9-0.9,1.6-1.3,2.5c-0.4,1.2-1.2,2.1-1.9,3.1
		c-0.9,1.1-1.8,2.2-2.6,3.3c-0.9,1.2-1.6,2.5-2.4,3.7c-1,1.4-2,2.8-3,4.2c-0.6,0.8-1.3,1.4-1.8,2.2c-1.2,1.8-2.6,3.3-4.1,4.8
		c-0.8,0.8-1.6,1.6-2.5,2.5c-1.6,1.7-3.3,3.3-4.9,5c-0.6,0.7-1.2,1.4-1.8,2.1c-1.1,1.3-2,2.7-3.2,3.9c-1.5,1.6-3,3-4.6,4.5
		c-1.2,1.1-2.4,2.1-3.7,3.2c-0.8,0.7-1.5,1.4-2.3,1.9c-1.2,0.7-2.5,1.2-3.7,1.8c-0.1,0.1-0.3,0.1-0.4,0.2c-0.3,0.6,0,1.7,0.7,1.9
		c2,0.7,3.8,1.7,5.7,2.8c1.2,0.7,2.3,1.3,3.5,1.9c1.8,0.9,3.7,1.7,5.5,2.7c1.9,0.9,3.7,1.9,5.6,2.9c0.2,0.1,0.4,0.2,0.7,0
		c1.3-1.1,2.6-2.1,4-3.1c0.7-0.5,1.1-1.3,1.4-2c0.5-1,0.8-2.2,1.3-3.3c1-2.2,2-4.4,2.8-6.7c0.6-1.9,1.3-3.7,2.2-5.5
		c1.1-2.3,2.2-4.5,3.4-6.8c0.4-0.7,0.7-1.5,1.1-2.2c1.1-2.1,2.4-4.1,3.4-6.2c1.2-2.4,2.3-4.9,3.4-7.4c0.8-1.8,1.7-3.7,2.3-5.6
		c0.6-1.8,1-3.8,1.5-5.6c0.2-0.9,0.5-1.8,0.6-2.7c0.1-1.1,0.1-2.1,0-3.2c-0.2-1.3-0.4-2.6-1-3.7C107.3,118.9,106,118.1,104.7,117.3z
		 M39.8,182.7c0,0,0.1,0,0.1,0.1c1.5-1.1,3.1-2.2,4.6-3.4c0.5-0.4,1.1-0.9,1.5-1.4c0.7-0.8,1.3-1.8,2.1-2.6c1.4-1.4,3.3-1.9,5.2-2.1
		c1.8-0.2,3.7,0,5.6,0c0.1-1,0.1-1-0.6-1.9c-0.8-1.1-1.3-2.2-1.6-3.5c-0.2-0.7-0.3-1.4-0.6-2c-0.4-1-1-1.9-1.4-2.8
		c-1.3-3.2-3-6.2-4.7-9.1c-0.5-0.8-1-1.7-1.3-2.6c-0.9-2.9-1.6-6-2.8-8.8c-0.2-0.4-0.5-0.7-0.7-1c-0.1,0-0.2,0-0.3,0.1
		c0,2.3,0,4.5,0,6.8c0,3.6,0.1,7.3,0.1,10.9c0,0.1,0,0.1,0,0.2c0.4,1.7,0,3.5-0.2,5.2c-0.3,2.1-0.9,4.1-1.5,6.1
		c-0.4,1.5-0.8,3-1.2,4.4c-0.3,1-0.4,2-0.7,3c-0.1,0.3-0.3,0.6-0.4,1c-0.3,0.8-0.5,1.7-0.7,2.5C40.1,181.9,40,182.3,39.8,182.7z"/>
	<path class="st0" d="M54.1,125.9c-1.7-0.1-3.3-0.2-4.8-0.4c-1.6-0.3-2.7-1.4-3.6-2.7c-1.1-1.4-2-2.9-3-4.3c-0.7-1-1.4-1.9-2.2-2.9
		c-0.3-0.4-0.7-0.8-1.1-1.1c-0.4-0.3-1-0.6-1.5-0.8c-0.2-0.1-0.6-0.1-0.4-0.5c0.1-0.1,0.4-0.3,0.6-0.3c1.3,0.3,2.6-0.2,3.9-0.4
		c1.3-0.3,2.6-0.5,4-0.7c1-0.1,2.1-0.2,3.1-0.2c0.6,0,1.3,0,1.9,0.3c0.9,0.3,1.7,0.2,2.5-0.2c2.2-1.2,4.6-1.6,7-2
		c1-0.2,2-0.2,2.9-0.4c1.4-0.2,2.8,0.2,4,0.8c0.9,0.4,1.8,0.6,2.8,0.5c0.2,0,0.5,0.1,0.6,0.3c0,0-0.1,0.4-0.2,0.5
		c0,0.1-0.1,0.2-0.2,0.3c-1,2.6-2.7,4.7-4.3,6.9c-1.5,2-3.1,4-5.4,5.3C58.5,125.1,56.3,125.7,54.1,125.9z M39.9,113.6
		c0,0.1-0.1,0.1-0.1,0.2c0.1,0.1,0.1,0.3,0.2,0.4c0,0.1,0.1,0.1,0.2,0.2c1.3,1.1,2.1,2.4,3.1,3.8c1.1,1.6,2.3,3.3,3.5,4.8
		c0.7,0.9,1.6,1.6,2.8,1.7c0.6,0.1,1.3,0,2,0.1c1.5,0.3,3,0.3,4.5,0c2.8-0.6,5.2-1.8,7.1-3.9c1.1-1.3,2.2-2.6,3.2-4
		c0.9-1.2,1.6-2.4,2.4-3.6c0.2-0.4,0.4-0.8,0.7-1.1c-0.1,0-0.1-0.1-0.2-0.1c-0.9,0.6-1.8,1.3-2.7,1.9c-1.2,0.8-2.5,1.7-3.8,2.4
		c-1.3,0.7-2.6,1.3-3.9,1.8c-1.6,0.6-3.3,1.2-5.1,1c-1.6-0.1-3.1-0.4-4.7-0.6c-2.1-0.3-3.7-1.4-5-3c-0.4-0.4-0.7-1-1.1-1.2
		C41.9,114,40.9,113.8,39.9,113.6z M67.1,111.6c-0.5-0.1-0.9-0.3-1.3-0.2c-1.2,0-2.3,0-3.5,0.1c-0.9,0.1-1.9,0.1-2.8,0.3
		c-2,0.4-4,0.8-6,1.3c-0.5,0.1-1.1,0.2-1.6,0.3c-1,0.1-2,0.2-3,0.3c-1.2,0.1-2.4,0.1-3.7,0.1c-0.5,0-1,0-1.7,0.1
		c0.3,0.3,0.4,0.4,0.5,0.6c0.9,1.5,2.2,2.5,3.8,3.2c0.4,0.2,1,0.2,1.4,0.3c1.3,0.2,2.5,0.5,3.8,0.7c1.9,0.2,3.6-0.3,5.4-1
		c0.8-0.3,1.5-0.7,2.3-1.1c1.5-0.7,3.1-1.2,4.2-2.5c0.1-0.1,0.3-0.2,0.4-0.2c0.8-0.2,1.4-0.6,1.6-1.5C66.9,112,67,111.9,67.1,111.6z
		 M53.5,112.1c0,0.1,0,0.2,0.1,0.3c0.8-0.1,1.5-0.2,2.3-0.4c1.7-0.3,3.3-0.7,5-1c0.7-0.1,1.4-0.1,2.1-0.2c1.4-0.1,2.8-0.3,4.2,0.2
		c0.3,0.1,0.7,0.1,1,0.2c-0.9-0.5-1.9-1-2.9-1.2c-1.3-0.2-2.7-0.1-4,0c-1.5,0.2-3,0.5-4.5,0.9C55.7,111.3,54.6,111.7,53.5,112.1z
		 M51,112.7c0-0.1,0-0.1,0-0.2c-3.1-0.8-6.1,0.1-9.1,0.7c0.6,0.1,1.1,0.1,1.7,0c0.6-0.1,1.1-0.1,1.7-0.2c0.3,0,0.6,0.1,0.9,0.1
		C47.8,113,49.4,112.9,51,112.7z"/>
	<path class="st0" d="M31.7,80c-1.4,0.1-2.6-0.3-3.8-0.7c-0.9-0.4-1.5-0.3-2.2,0.5c-0.1,0.1-0.1,0.2-0.2,0.3
		c-0.2,0.1-0.4,0.1-0.6,0.2c0-0.2-0.1-0.5,0.1-0.7c0.5-0.6,1-1.2,1.6-1.8c1.5-1.4,3.2-2.3,5.1-2.8c2.4-0.7,4.9-0.6,7.4,0.3
		c1.5,0.5,2.7,1.3,3.8,2.3c0.5,0.4,0.3,0.9-0.3,1.1c-0.5,0.1-1,0.3-1.5,0.2c-1.6,0-3.2,0.3-4.7,0.7c-1.5,0.3-3,0.5-4.5,0.7
		C31.7,80.1,31.7,80.1,31.7,80z M41.9,77.8c-1-1.2-4.4-2.6-5.7-2.3c0.6,1,0.7,2,0.3,3C38.2,78.3,40,78.1,41.9,77.8z M31.8,79.3
		c-0.7-1-1.1-2.1-0.7-3.3c-1.1,0.2-3.4,1.6-3.9,2.3C28.7,78.7,30.1,79.6,31.8,79.3z"/>
	<path class="st0" d="M64,75.2c-0.8,0-2.4,0-4,0c-0.6,0-1.2,0.2-1.7,0.4c-0.4,0.1-0.6,0-0.7-0.3c-0.1-0.1,0-0.4,0.2-0.5
		c1.4-1.1,2.8-2.2,4.2-3.2c1.7-1.2,3.6-1.6,5.6-1.9c2.5-0.3,4.6,0.4,6.7,1.5c0.3,0.2,0.7,0.3,1,0.4c0.1,0.1,0.3,0.3,0.3,0.4
		c0,0.1-0.2,0.3-0.3,0.3c-1.7,0.2-3.2,1.2-4.7,1.9C68.7,75.1,66.8,75.5,64,75.2z M66.4,74.6c-1.7-0.8-1.7-1-2-3.3
		c-1.9,0.8-3.5,1.9-5.1,3.1c0,0.1,0,0.1,0.1,0.2C61.7,74.6,64.1,74.6,66.4,74.6z M73.9,71.9c0-0.1,0-0.1,0-0.2
		c-0.4,0-0.9-0.1-1.3-0.1c-0.1,0-0.2,0-0.3-0.1c-0.5-0.7-1.2-0.9-2-0.4c-0.1,0.9,0.3,1.9-0.7,2.6c0.1,0,0.1,0.1,0.2,0.1
		C71.2,73.2,72.5,72.6,73.9,71.9z"/>
	<path class="st0" d="M72.6,63.2c-1.9,0.2-3.6,0.3-5.3,0.7c-1.7,0.4-3.4,1-5,1.9c-1.1,0.7-2.2,1.3-3.6,1.1c-0.1,0-0.2,0-0.3,0
		c-0.5,0.2-0.9,0-1.1-0.4c-0.2-0.4,0-1.1,0.3-1.4c1.5-1,3-2.1,4.8-2.5c1.7-0.4,3.3-1,5.1-0.9c0.9,0.1,1.8-0.2,2.7-0.2
		c1.1,0.1,2.3-0.1,3.3,0.5c0.4,0.2,0.8,0.3,1.2,0.4c1.1,0.2,1.9,0.9,2.9,1.3c0.4,0.2,0.9,0.4,1.3,0.6c0.6,0.2,0.9,0.6,0.7,1
		c-0.2,0.5-0.6,0.4-1,0.2c-1-0.5-2.1-1.1-3.1-1.5C74.4,63.7,73.4,63.5,72.6,63.2z"/>
	<path class="st0" d="M38.3,70.6c-0.2,0.2-0.4,0.5-0.7,0.7c-0.2,0.1-0.3,0.3-0.5,0.3c-0.3,0.1-0.6,0.2-0.8,0.1
		c-1-0.4-2.1-0.2-3.1-0.2c-1.1,0-2.2,0.2-3.3,0.2c-1.3,0-2.7,0-3.9,0.5c-0.1,0-0.1,0.1-0.2,0.1c-2.2,0.1-3.3,1.5-4.1,3.3
		c-0.2,0.4-0.3,0.8-0.6,1.2c-0.1,0.2-0.5,0.3-0.7,0.2c-0.2,0-0.4-0.5-0.3-0.7c0.3-0.9,0.6-1.9,1.1-2.6c1.4-1.7,3.2-2.9,5.1-3.8
		c1.3-0.6,2.6-0.7,3.9-0.8c2.1-0.1,4.1-0.2,6.2-0.3c0.2,0,0.3-0.1,0.5-0.1c0.6-0.1,1,0.2,1.1,0.7c0.1,0.3,0.1,0.6,0.2,0.9
		C38.3,70.5,38.3,70.6,38.3,70.6z"/>
	<path class="st0" d="M48.9,104.7c-1.2-0.3-2.3-0.7-3.4-0.8c-1.6-0.2-2.8-1.1-4-1.9c-1.4-0.9-1.5-2.3-1.1-3.8
		c0.4-1.6,0.7-3.2,1.1-4.7c0-0.1,0.2-0.2,0.3-0.3c0.1,0.1,0.4,0.3,0.4,0.4c0,0.3-0.1,0.7-0.2,1c-0.3,1.7-0.7,3.4-1,5.1
		c-0.1,0.8,0.4,1.3,1,1.8c0.6,0.4,1.2,0.8,1.8,1.1c1,0.4,2,0.7,3,0.9c0.5,0.2,1.1,0.3,1.6,0.4c1.2,0.2,2.1-0.3,3.1-1
		c1.3-0.8,2.6-1.6,4-2.4c1.7-1,3.5-1.8,5.2-2.8c1.4-0.8,1.6-2.5,1-3.6c-0.5-0.8-1.3-1.5-2.2-1.8c-0.5-0.2-1-0.2-1.5-0.3
		c-0.2,0-0.4-0.1-0.4-0.2c0-0.1,0.1-0.4,0.2-0.4c0.2-0.1,0.5-0.2,0.7-0.1c1.6,0.3,2.8,1.2,3.8,2.4c0.2,0.2,0.3,0.6,0.3,0.9
		c0.1,1.8,0.1,3-1.9,4.1c-2.3,1.2-4.5,2.4-6.8,3.7c-1.1,0.6-2,1.3-3.1,1.9C50.2,104.4,49.6,104.5,48.9,104.7z"/>
</g>
</svg>
