<?xml version="1.0" encoding="utf-8"?>
<!-- Generator: Adobe Illustrator 19.2.1, SVG Export Plug-In . SVG Version: 6.00 Build 0)  -->
<svg version="1.1" id="Layer_1" xmlns="http://www.w3.org/2000/svg" xmlns:xlink="http://www.w3.org/1999/xlink" x="0px" y="0px"
	 viewBox="0 0 196.1 200" style="enable-background:new 0 0 196.1 200;" xml:space="preserve">
<style type="text/css">
	.st0{fill:#FF5722;}
</style>
<g id="pharm-greg-orange">
	<path class="st0" d="M0,175.8c1.2-0.5,2.4-1,3.6-1.5c4.7-2.1,9.4-4.3,14.1-6.3c2.8-1.1,5.3-2.6,8-3.9c2.1-1,4.5-1.6,6.7-2.4
		c1-0.4,2-0.8,3-1.2c2.9-1.1,5.4-3,7.6-5.2c3.4-3.3,7.1-6.3,11.2-8.7c1.5-0.9,2.7-2.1,4-3.2c1.2-1.1,2.4-2.3,3.5-3.5
		c0.9-1,1.6-2.2,2.4-3.3c0.8-1.2,0.6-2.5,0.6-3.8c0-0.7,0.1-1.4,0.1-2c0-0.3,0.1-0.5,0.1-0.8c0.1-1.6,0.1-3.3,0.2-4.9
		c0.1-3.4,0.3-6.8,0.3-10.2c0-1.7-0.3-3.4-0.6-5.1c-0.3-2-0.6-4-0.9-6c-0.2-1.4-0.4-2.8-0.7-4.2C63,98.4,62,98,61,97.5
		c-2.4-1.4-4.5-3-5.7-5.6c-0.9-2-1-4-0.3-6.1c0.3-0.8,0.3-1.6,0.3-2.5c0-1.8,0-3.5-0.2-5.3c-0.1-0.7-0.4-1.4-0.7-2.1
		c-1.1-3-1.6-6-1.1-9.1c0.2-1.7,1.4-3.1,2.7-3.3c0-0.7,0-1.5,0-2.2c0-3.7-0.1-7.4-0.1-11.1c0-0.7,0-1.4,0.1-2.1
		c0.1-3.4,0.5-6.7,0.9-10.1c0.4-2.9,1.5-5.4,2.6-8c1.2-2.8,2.8-5.5,4.5-8c0.1-0.1,0.2-0.3,0.3-0.4c1.7-1.8,3.4-3.7,5.3-5.4
		c0.9-0.8,2-1.4,3.1-2c3.1-1.6,5.8-3.6,8.5-5.7C82.8,7.3,84.4,6.2,86,5C89.2,2.4,93,1.2,97,0.3c2.1-0.5,4.1-0.2,6.1-0.1
		c2.7,0,5.3,0.3,7.9,1c2.7,0.7,5.5,0.6,8.3,0.2c3.1-0.4,6.3-0.9,9.4,0.1c1.1,0.4,2.1,1.2,3.1,1.9c1.1,0.8,2.3,1.6,3.3,2.6
		c2.3,2.5,4.4,5.1,6.2,8c1.3,2.1,3.1,3.6,5.1,5.1c2.4,1.7,4.8,3.5,6.3,6.2c0.9,1.6,1.5,3.3,1.9,5.2c0.5,2.7,1.1,5.4,1.6,8.2
		c0.3,2,0.6,3.9,0.7,5.9c0.2,2.8,0.3,5.5,0.3,8.3c0,2.7-0.3,5.3-0.4,8c0,0.9,0,1.8-0.1,2.8c-0.1,1.7,0,3.4-0.3,5.1
		c-0.2,1.7-0.7,3.3-1.1,5c0,0.2,0,0.4,0.1,0.6c0.8,2.1,0.8,4.1,0.2,6.2c-0.6,1.9-1.1,3.8-1.6,5.8c-0.2,0.7-0.2,1.4-0.3,2.1
		c-0.1,2.3,0,4.7-0.4,7c-0.5,3.2-1.9,6-4.5,8.1c-1.3,1.1-2.7,1.9-4.4,2c-0.2,0-0.4,0.3-0.5,0.5c-0.2,1.1-0.3,2.2-0.5,3.3
		c-0.2,1.5-0.4,2.9-0.7,4.4c-0.3,1.6-0.7,3.2-1.1,4.7c-0.6,2-1.2,4.1-2.1,6c-0.9,1.9-2.1,3.7-3.3,5.5c-0.6,0.9-1.3,1.8-2,2.7
		c-0.8,1-0.6,2.2-0.8,3.4c0,0.2,0,0.5,0,0.7c-0.5,3.8,1.2,7,2.9,10.1c0.7,1.4,2.2,2.2,3.5,3c1.9,1.1,3.7,2.2,5.7,3.1
		c2.7,1.2,5.1,2.9,7.9,3.7c2.6,0.7,5.1,1.6,7.7,2.5c2.1,0.7,4.2,1.6,6.3,2.3c3,1,6.1,2,9.2,2.9c2.1,0.6,4.2,1.2,6.2,1.8
		c3.7,1.1,7.5,2.3,11.2,3.4c0.7,0.2,1.3,0.4,2,0.6c0,0.5,0,1.1,0,1.6c-0.9-0.3-1.7-0.6-2.6-0.8c-2.7-0.8-5.3-1.6-8-2.4
		c-2.5-0.8-5.1-1.5-7.6-2.3c-2.3-0.7-4.7-1.6-7-2.3c-1.7-0.5-3.4-0.9-5-1.4c-2.1-0.7-4.1-1.6-6.2-2.3c-1.6-0.6-3.2-1.1-4.8-1.6
		c0,0.1-0.1,0.2-0.1,0.3c0.4,0.3,0.8,0.7,1.2,1c1.7,1,3.4,2,5.1,3c0.5,0.3,0.6,1,0.2,1.4c-0.6,0.5-1.1,1-1.7,1.6
		c-1.3,1.4-2.5,2.7-3.8,4.1c0.2,0.1,0.4,0.2,0.6,0.3c1.9,0.6,3.9,1.2,5.9,1.5c2.3,0.4,4.5,1.2,6.7,1.9c0.3,0.1,0.6,0.5,0.6,0.8
		c0.3,1.8,0.6,3.6,0.7,5.4c0.2,3.1,0.2,6.3,0.3,9.4c0.1,1.9,0.1,3.8,0.2,5.7c0,1.5,0,3.1,0,4.6c-0.6,0-1.2,0-1.8,0c0-2,0-3.9,0-5.9
		c-0.1-4.3-0.2-8.7-0.3-13c-0.1-1.4-0.4-2.8-0.5-4.2c0-1.4-0.8-1.8-2-2c-1.5-0.3-2.9-0.8-4.3-1.2c-1.6-0.4-3.1-0.7-4.7-1.1
		c-2.6-0.6-4.8-2.2-7.3-3.1c-0.4-0.1-0.8-0.5-1-0.9c-0.3-0.5-0.2-1,0.3-1.3c0.5-0.3,0.9-0.1,1.1,0.3c0.1,0.2,0.2,0.4,0.3,0.4
		c0.9,0.4,1.9,0.8,2.8,1.3c0.5,0.3,0.8,0.2,1.2-0.2c1.4-1.7,2.9-3.3,4.4-5c-0.9-0.6-1.9-1.1-2.7-1.8c-1.6-1.2-3.4-2.2-4.2-4.2
		c0-0.1-0.2-0.1-0.3-0.2c-1.8-0.9-3.5-1.7-5.3-2.6c-2.3-1.2-4.6-2.5-6.9-3.7c-0.8-0.4-1.6-0.9-2.4-1.4c0,0.4,0,0.7,0,1
		c0.1,1.2,0.3,2.4,0.5,3.5c0.3,2.4,0.6,4.8,0.9,7.2c0.4,2.8,1.5,5.3,2.4,7.8c1.4,3.5,2.4,7.1,2.9,10.8c0.2,1.7,0.3,3.3,0.5,5
		c0.2,1.9,0.5,3.7,0.8,5.6c0.4,2.7,0.8,5.4,1.2,8.1c0,0.3,0.1,0.5,0.1,0.8c-0.6,0-1.1,0-1.6,0c-0.2-1.7-0.4-3.4-0.7-5
		c-0.2-1.5-0.6-3-0.8-4.5c-0.3-2.2-0.4-4.4-0.7-6.6c-0.4-2.5-0.8-5-1.3-7.5c-0.2-0.9-0.5-1.8-0.9-2.9c-0.2,0.4-0.3,0.6-0.4,0.8
		c-0.7,2.4-1.4,4.8-2.2,7.1c-1.2,4-2.4,8-3.7,12c-0.3,0.8-0.4,1.7-0.7,2.6c-0.5,1.3-1.3,1.7-2.3,1.1c-0.3-0.2-0.5-0.6-0.8-0.9
		c-0.9-0.9-1.9-1.8-2.8-2.6c-2-1.7-4.1-3.4-6.1-5.1c-1.1-1-2.2-2-3.2-3.1c-1-1-1.9-2-2.9-3c-0.6-0.6-1-0.4-1.4,0.3
		c-0.1,0.3-0.3,0.5-0.5,0.8c-0.5,1.1-1.3,2.1-1.6,3.3c-0.7,2.5-0.8,5.2-0.3,7.7c0.3,1.8,0.1,3.8,1.4,5.5c-4.8,0-9.5,0-14.4,0
		c0.3-1,0.6-1.8,0.8-2.7c0.1-0.5,0.2-1.2,0-1.6c-1.1-1.9-2.3-3.7-3.6-5.5c-1.1-1.6-2.4-3.1-3.5-4.7c-0.7-1-1.5-1.8-2.5-2.4
		c-1.1,0.8-2.1,1.5-3.1,2.4c-3,2.6-5.9,5.3-9.2,7.6c-1.9,1.3-3.6,2.8-5.5,4.3c-0.8,0.6-1.9,1.1-1.5,2.5c0,0,0,0-0.1,0.1
		c-0.5,0-0.9,0-1.5,0c-0.1-0.3-0.1-0.7-0.2-1c-0.3-1.7-0.6-3.4-1-5.1c-0.3-1.2-0.8-2.3-1.1-3.5c-0.8-3.2-1.6-6.3-2.4-9.5
		c-0.9-3.7-1.8-7.3-2.7-11c-0.5,0.3-1.2,0.6-1.8,0.8c-2.9,1.3-5.8,2.6-8.8,3.8c-1.8,0.8-3.8,1.3-5.6,2c-0.7,0.3-1.4,0.7-2.1,1
		c-2,0.8-4,1.6-6,2.4c-1.6,0.6-3.1,1.4-4.7,1.9c-1.6,0.5-3.2,0.9-4.8,1.4c-0.5,0.1-0.6,0.4-0.3,0.9c1.1,2,2,4.2,3.2,6.1
		c1.4,2.3,2.2,4.9,3.2,7.4c0.3,0.8,0.6,1.6,0.9,2.4c-1.7,0.2-1.7,0.2-2.3-1.3c-0.1-0.4-0.2-0.8-0.4-1.1c-0.8-2-1.3-4.1-2.5-5.9
		c-1.1-1.7-2-3.6-2.9-5.4c-0.3-0.5-0.5-1.1-0.8-1.6c-0.5-0.9-0.4-2,0.7-2.5c0.4-0.2,0.8-0.4,1.2-0.5c1.4-0.4,2.8-0.7,4.1-1.2
		c2.4-0.9,4.8-1.9,7.2-2.9c0.6-0.2,1.2-0.5,1.9-0.8c-0.8-0.5-1.6-0.9-2.3-1.3c-2.4-1.5-4.8-2.8-7.5-3.7c-0.5-0.2-1.1-0.4-1.6-0.6
		c-0.8-0.4-0.9-1-0.3-1.6c1.7-1.7,2.4-3.9,3.6-6.1c-0.3,0.1-0.5,0.1-0.7,0.1c-1.7,0.6-3.4,1.1-5,1.8c-1.8,0.8-3.4,1.9-5.2,2.7
		c-2.1,1-4.3,1.9-6.4,2.8c-4,1.7-8,3.5-11.9,5.3c-1.3,0.6-2.6,1.3-3.9,1.9C0,177.1,0,176.5,0,175.8z M131.9,135.6
		c-0.4,0.4-1.1,0.8-1.6,1.4c-1.7,2.1-3.3,4.3-5,6.4c-2.5,3-5.4,5.5-8.7,7.4c-2.5,1.3-5.1,2.3-7.7,3.4c-2.6,1.1-5.4,0.9-8.1,0.8
		c-1.2,0-2.5-0.2-3.5-0.7c-2.7-1.1-5.6-1.8-8.3-3.1c-2.5-1.2-4.4-2.9-6.1-4.9c-1.8-2.2-3.4-4.7-5.1-7c-1.5-2-3.1-3.9-4.6-5.9
		c-0.6-0.8-1.2-1.7-1.8-2.6c-0.3-0.4-0.2-0.9,0.3-1.1c0.4-0.2,0.8,0,1.1,0.5c0.3,0.5,0.6,1,1,1.5c1.6,2.1,3.2,4.1,4.8,6.2
		c1.5,2,3.1,4,4.5,6.1c1.2,1.7,2.4,3.4,4.2,4.5c1.9,1.1,4,2.2,6.1,2.9c2.4,0.8,4.7,1.9,7.2,2c2.4,0.1,4.9,0.4,7.2-0.5
		c1.6-0.6,3.1-1.4,4.7-2c2.4-0.8,4.5-2.1,6.5-3.7c3.3-2.5,5.9-5.7,8.5-8.9c0.9-1.1,1.6-2.4,2.6-3.3c1-1,1.3-2.6,2.9-3.1
		c0.1,0,0.1-0.1,0.2-0.2c1.4-2,2.8-4,4.1-6c0.6-0.9,1-1.9,1.4-2.9c0.5-1.2,0.8-2.4,1.2-3.6c0.2-0.6,0.5-1.1,0.6-1.7
		c0.3-1.1,0.5-2.2,0.7-3.3c0.5-2.9,1-5.8,1.4-8.7c0.3-2.4,1-4.7,2-6.8c0.7-1.5,1.2-2.9,1.3-4.6c0.1-1.2,0.2-2.4,0.4-3.6
		c0.2-1.4,0.6-2.7,0.7-4.1c0.2-3.3,0-6.6-0.5-9.9c-0.3-1.7-0.8-3.3-2-4.7c-1.6-1.8-2.6-3.8-2.4-6.3c0.1-1.5,0.3-3,0.4-4.4
		c0.2-2.3,0-4.4-1.7-6.2c-1-1.1-2-2.2-2.9-3.4c-1.8-2.4-3.5-4.8-5.3-7.2c-0.3-0.4-0.6-0.7-1-0.9c-1.9-1-3.8-1.9-5.7-2.8
		c-0.5-0.2-1.1-0.5-1.7-0.5c-3.8-0.1-7.6,0.1-11.4,1c-1.8,0.4-3.8,0.3-5.7,0.1c-1.2-0.2-2.2-1-3.3-1.5c-1.2-0.5-2.5-0.9-3.4-2
		c-0.1-0.1-0.3-0.2-0.5-0.3c-0.9-0.4-1.9-0.7-2.8-1.1c-1.7-0.6-3.4-0.5-5.2-0.3c-1.5,0.2-3.1,0.4-4.5,0.2c-1.6-0.2-3,0.3-4.3,1.2
		c-1.6,1.1-3.2,2.3-4.7,3.5c-1,0.8-2,1.8-2,3.1c0,2.3-0.4,4.4-0.9,6.6c-0.6,2.6-1.3,5.3-2.7,7.6c-1.1,1.9-2.5,3.8-3.8,5.5
		c-2.4,3.1-3.5,6.7-4.5,10.3c-0.7,2.2-0.6,4.7-0.7,7c-0.2,4.7,0,9.4,0.8,14.1c0.4,2.3,0.6,4.7,0.8,7.1c0.2,1.4,0.4,2.7,0.6,4.1
		c0.4,2.4,0.9,4.8,1,7.1c0.2,2.5,0.1,5,0,7.4c-0.1,3.1-0.3,6.1-0.5,9.2c0,0.9,0.1,1.9,0.1,2.8c0,0.6-0.3,1.1-0.3,1.6
		c0.1,0.8,0.2,1.6,0.5,2.4c0.9,3.3,2,6.5,4.1,9.3c0.9,1.2,2,2.3,3.1,3.3c1.1,1.1,2.2,2.1,3.4,3c2.9,2.1,5.8,4.1,8.8,6.2
		c3.3,2.3,6.3,5,9.2,8c1.6,1.6,3.4,3,5.2,4.4c0.6,0.4,1.4,0.7,2.1,0.8c2.1,0.5,3.7-0.8,5.2-1.9c1.7-1.2,3.1-2.8,4.6-4.2
		c1.9-1.7,3.8-3.4,5.8-4.9c1.8-1.4,3.1-3.1,4.3-5c1-1.5,2.1-2.9,3.2-4.4c1-1.4,2.1-2.7,3-4.2c0.9-1.5,1.6-3.1,2.3-4.7
		c0.1-0.3,0.2-0.7,0.1-1c-0.2-0.6-0.1-0.9,0.5-1.1c0.2-0.1,0.4-0.3,0.4-0.4C131.9,138.5,131.9,136.9,131.9,135.6z M70.4,196.6
		c0.5-0.3,1.1-0.7,1.6-1.1c2.3-1.7,4.6-3.4,6.8-5.2c2.6-2.1,5.1-4.4,7.6-6.6c2-1.7,4-3.3,5.9-5c2.4-2.1,4.7-4.3,7.1-6.5
		c-0.2-0.2-0.4-0.3-0.6-0.5c-2.7-1.8-4.9-4.1-7.2-6.4c-0.6-0.6-1.1-1.1-1.8-1.7c-1.3-1.1-2.7-2.1-4-3.2c-1.7-1.3-3.4-2.5-5.1-3.7
		c-2.1-1.6-4.3-3.1-6.4-4.7c-0.9-0.7-1.6-1.8-2.6-2.5c-1.7-1.2-2.8-2.9-3.6-4.7c-1.1-2.3-2-4.7-3.1-7.2c-0.4,0.8-1,1.4-1.1,2.2
		c-0.5,2-0.7,4.1-1.2,6.1c-0.6,2.5-0.7,4.9-0.7,7.5c0,1.3-0.1,2.6,0,3.9c0.2,2.1,0.5,4.3,0.7,6.4c0.1,1.2,0.5,2.3,0.5,3.5
		c0,3,0.9,5.8,1.5,8.7c0.8,3.8,1.9,7.5,2.9,11.2C68.6,190.4,69.5,193.5,70.4,196.6z M132.2,195.5c0.6-1.8,1.1-3.5,1.6-5.1
		c0.6-2.2,1.2-4.4,1.8-6.6c0.5-1.6,1.1-3.1,1.6-4.7c0.5-1.6,0.9-3.3,1.3-5c0.3-1.4,0.6-2.7,0.2-4.2c-0.5-1.8-1-3.7-1.4-5.6
		c-0.3-1.6-0.5-3.2-0.7-4.7c-0.2-1.7-0.5-3.5-0.6-5.2c-0.2-1.5-0.2-3-0.4-4.5c-0.1-0.6-0.1-1.2-0.3-1.7c-0.5-1.3-1.2-2.6-1.8-3.8
		c-0.2-0.5-0.4-1-0.7-1.7c-0.2,0.5-0.4,0.8-0.6,1.2c-0.8,1.7-1.5,3.4-2.5,4.9c-1,1.6-2,3.1-3.3,4.4c-1.5,1.7-2.6,3.7-4,5.5
		c-1.3,1.6-2.9,3.2-4.4,4.6c-2.3,2.2-4.8,4.2-7.2,6.3c-1.1,0.9-2.3,1.7-3.4,2.5c-0.2,0.1-0.4,0.3-0.7,0.4c1.3,1.2,2.5,2.3,3.7,3.4
		c1,0.9,2,1.7,3,2.6c1.5,1.3,3.1,2.6,4.5,4c1.8,1.7,3.3,3.6,5.1,5.2c2.4,2.2,4.9,4.3,7.3,6.4C131,194.5,131.6,195,132.2,195.5z
		 M61.9,142.6c-3,2.3-5.6,4.7-8.7,6.6c-4.1,2.5-7.4,6-11.1,9c-1.3,1.1-2.8,2.1-4.3,2.9c-1.4,0.7-2.8,1.2-3.4,2.8
		c-0.1,0.4-0.3,0.7-0.5,1.1c-0.8,1.6-1.7,3.2-2.5,4.8c0.3,0.1,0.6,0.3,0.9,0.4c1.8,0.8,3.7,1.5,5.4,2.4c1.7,0.9,3.3,1.9,4.8,2.9
		c0.5,0.3,0.9,0.2,1.3,0c1.3-0.5,2.6-1,3.9-1.5c2.8-1.1,5.6-2.2,8.3-3.3c0.7-0.3,1.4-0.7,2.1-1c1.1-0.5,2.2-1.1,3.3-1.7
		c0.2-0.1,0.3-0.4,0.3-0.6c-0.1-0.7-0.2-1.4-0.3-2.1c-0.2-1.4-0.3-2.7-0.5-4.1c-0.2-1.3-0.4-2.7-0.5-4c0-2.2,0.1-4.4,0.1-6.6
		c0-1.5,0.3-2.9,0.6-4.3C61.5,145.1,61.7,143.8,61.9,142.6z M58.4,69.3c-0.1,0-0.2,0-0.3,0c-0.1,1-0.3,2-0.4,3
		c-0.1,1.1-0.3,2.2-0.5,3.3c-0.1,0.5-0.5,1-0.5,1.6c0,0.9,0,1.7,0.2,2.6c0.4,2.2,0.2,4.3-0.3,6.4c-0.8,3.1-0.3,5.7,2.1,7.7
		c1.4,1.2,3,2.2,4.5,3.3c0.1-0.1,0.2-0.1,0.3-0.2c-0.1-0.9-0.2-1.8-0.3-2.7c-0.1-0.4-0.2-0.8-0.5-1.1c-1.1-1.3-2.2-2.5-3.2-3.8
		c-0.8-1-1.5-2.1-1.2-3.5c0.1-0.4,0.4-0.8,0.6-1.3c0.2,0.4,0.4,0.9,0.5,1.3c0.1,1.1,0.3,2.3,1,3.2c0.5,0.7,1.2,1.3,1.7,2
		c0-1.1,0.1-2.1-0.2-2.9c-1-2.5-1.2-5.2-1.4-7.8c-0.2-2.1-0.1-4.3-0.4-6.4C59.9,72.3,59.6,70.6,58.4,69.3z M154.2,75.8
		c-0.6,0.8-0.9,1.5-1.4,2c-1.3,1.3-1.9,2.9-2.4,4.5c-0.1,0.5-0.2,1,0,1.5c0.5,1.4,0.9,2.9,1,4.4c0,1,0.1,1.9,0.3,2.9
		c0.4,1.7-0.3,2.8-1.9,3.5c-0.6,0.3-1.1,1-1.6,1.6c-0.2,0.2-0.4,0.6-0.6,0.6c-0.7,0-0.7,0.4-0.8,0.9c0,0.3-0.2,0.5-0.3,0.7
		c-1,1.2-1.5,2.6-1.9,4.1c-0.1,0.4-0.3,0.9-0.5,1.6c0.9-0.3,1.7-0.4,2.3-0.8c2-1.3,3.6-3,4.5-5.3c0.8-2,1-4.1,1.1-6.1
		c0.1-2.2,0-4.4,0.5-6.5c0.5-1.8,1-3.7,1.5-5.5C154.5,78.6,154.6,77.3,154.2,75.8z M56,65.2c-1.9,1.1-1.2,7.9,0.1,10.1
		c0.1-1.4,0.2-2.6,0.4-3.8c0.1-1,0.3-2,0.7-2.9c0.3-0.6,0.2-1-0.1-1.5C56.7,66.5,56.4,65.8,56,65.2z M147.3,95
		c0.7-0.5,1.1-1.1,1.6-1.3c1.3-0.5,1.8-1.3,1.5-2.7c-0.3-1.5-0.4-3.1-0.5-4.9c-0.2,0.4-0.3,0.5-0.3,0.6c-0.1,0.8-0.1,1.6-0.4,2.4
		c-0.4,1.2,0,2.7-1.5,3.5c-0.1,0-0.1,0.1-0.1,0.2C147.5,93.5,147.4,94.1,147.3,95z"/>
	<path class="st0" d="M85,114.7c0.7-0.7,1.5-0.7,2.4-0.6c1.6,0.2,3.1,0.5,4.7,0.6c3.7,0.2,7.3,0.6,10.7,1.9c0.9,0.3,1.9,0.1,2.9,0
		c0.9-0.1,1.7-0.4,2.6-0.5c1.9-0.2,3.9-0.4,5.8-0.3c1.7,0.1,3.3,0.5,4.9,0.7c1,0.2,2.1,0.4,3.1,0.6c0.9,0.2,1.1,0.7,0.6,1.5
		c-1.7,2.3-3.4,4.6-5.8,6.2c-1.8,1.2-3.6,2.5-5.5,3.6c-3.1,1.8-6.5,2.2-9.9,1.3c-1.6-0.4-3-1.6-4.5-2.5c-0.9-0.6-1.7-1.5-2.6-2.1
		c-2.3-1.5-3.9-3.6-5.7-5.6c-1.2-1.3-2.2-2.7-3.4-4C85.3,115.2,85.1,114.9,85,114.7z M90.4,116.6c-0.3,0.8-0.1,1.2,0.3,1.6
		c1,0.8,1.9,1.7,2.9,2.4c1.9,1.2,3.7,2.3,5.7,3.2c3.3,1.5,6.7,0.9,10,0.3c2.8-0.5,5.2-2.1,7.7-3.5c1.1-0.6,1.2-1,0.8-2.3
		c-0.2,0-0.4,0-0.6,0c-2.3,0.3-4.6,0.5-7,0.8c-1.4,0.2-2.8,0.4-4.2,0.5c-1.4,0.1-2.9,0.2-4.3,0c-2.4-0.5-4.8-1.3-7.2-2
		C93.2,117.2,91.8,116.9,90.4,116.6z M88.2,117.2C88.1,117.3,88.1,117.3,88.2,117.2c0.3,0.5,0.7,1,1.1,1.4c1.2,1.3,2.2,2.8,3.5,4
		c1.3,1.2,2.8,2.3,4.2,3.4c0.7,0.6,1.4,1.1,2.2,1.5c1.4,0.7,2.8,1.5,4.5,1.6c1.7,0.1,3.4,0.1,4.9-0.5c1.8-0.7,3.5-1.6,5.1-2.6
		c1.7-1.1,3.3-2.5,4.9-3.8c0.7-0.6,1.3-1.4,1.9-2.1c-0.1-0.1-0.1-0.1-0.2-0.2c-1.6,0.9-3.2,1.8-4.9,2.6c-1.4,0.7-2.8,1.5-4.3,1.9
		c-1.7,0.5-3.6,0.8-5.4,1c-1.3,0.1-2.7,0-4.1-0.1c-2.4-0.3-4.5-1.4-6.5-2.7c-1.5-0.9-2.9-2-4.3-3C90,118.9,89.1,118,88.2,117.2z
		 M90.9,115.7c0.1,0.1,0.3,0.2,0.5,0.2c2.5,0.7,5,1.5,7.6,2.1c1.4,0.3,2.8,0.6,4.2,0.7c1.4,0.1,2.7-0.2,4.1-0.3
		c2.6-0.2,5.1-0.4,7.7-0.7c0.9-0.1,1.7-0.3,2.6-0.5c-0.7-0.3-1.3-0.6-2-0.6c-2.2,0-4.4,0.1-6.6,0.2c-0.1,0-0.3,0-0.4,0.1
		c-1.3,0.2-2.6,0.5-3.8,0.7c-1.2,0.2-2.2-0.3-3.3-0.6c-1.9-0.5-3.8-1-5.7-1.3C94.2,115.5,92.5,115.7,90.9,115.7z"/>
	<path class="st0" d="M90.4,83.3c-2.6,0.1-5-0.5-7.3-2c-1.8-1.1-3.8-1.7-5.9-2c-0.2,0-0.5-0.3-0.5-0.4c0-0.3,0.2-0.7,0.4-0.7
		c0.6-0.2,1.2-0.3,1.8-0.4c2.1-0.5,4.2-1.1,6.3-1.5c2.6-0.6,5.2-0.4,7.7,0.8c2,1,3.9,2.1,5.4,3.8c0.6,0.7,0.6,0.9-0.3,1.3
		C95.5,83.1,93,83.3,90.4,83.3z M91.1,82.1c0.9,0.5,5.1-0.2,5.8-1c-1.8-1.9-4-3.2-5.2-2.9C92.1,79.6,91.9,80.6,91.1,82.1z
		 M85.3,77.6c-2,0.3-3.8,0.6-5.9,0.9c2,1,3.8,1.8,5.7,2.7C84.7,79.8,84.6,78.7,85.3,77.6z"/>
	<path class="st0" d="M137.3,84.5c-2.1-0.5-3.9,0.1-5.7,0.3c-2.2,0.2-4.4-0.1-6.6-0.5c-1.2-0.2-2.5-0.3-3.8-0.4
		c-1.7-0.1-3.4-0.1-5-0.1c-0.5,0-0.9-0.6-0.6-1c1.1-1.3,2-2.8,3.7-3.5c1.4-0.5,2.9-1,4.3-1.2c2.9-0.3,5.7,0,8.3,1.4
		c0.9,0.5,1.6,1.3,2.4,1.9c0.9,0.6,1.8,1.2,2.7,1.8c0.3,0.2,0.5,0.6,0.7,0.9C137.7,84.2,137.4,84.4,137.3,84.5z M127.9,83.6
		c2.1,0.3,4.7,0.1,6.3-0.4c-0.3-0.9-4.1-3.4-5.2-3.3C130,81.4,129.2,82.5,127.9,83.6z M122.8,82.8c-0.2-0.4-0.4-0.7-0.4-1
		c0.1-0.7,0.2-1.3,0.3-1.9c0-0.1,0-0.3,0-0.4c-0.1-0.1-0.3,0-0.4,0c-0.6,0.2-1.3,0.4-1.9,0.7c-0.9,0.4-1.9,0.9-2.7,1.4
		c-0.3,0.1-0.4,0.5-0.7,0.8C119,82.5,120.9,82.7,122.8,82.8z"/>
	<path class="st0" d="M98.6,74.9c-1.1-0.5-2.1-0.9-3.2-1.4c-0.8-0.3-1.5-0.7-2.3-1c-1.1-0.4-2.2-0.8-3.4-1.1c-2-0.6-3.9-0.5-6-0.2
		c-2.5,0.4-5.1,0.9-7.5,1.7c-1.2,0.4-2.3,0.7-3.5,1.2c-0.6,0.2-0.9,0-1.1-0.4c-0.2-0.5,0.2-0.9,0.6-1c0.9-0.3,1.8-0.7,2.7-1
		c3-0.7,5.9-1.6,8.9-2.1c2.6-0.4,5.3-0.7,7.8-0.5c2,0.1,4,1.1,6,1.7c0.9,0.3,1.8,0.6,2.7,1.1c0.4,0.2,0.7,0.7,0.8,1.1
		c0.2,1-0.1,1.3-1.1,1.6c-0.5,0.1-1,0.2-1.5,0.3C98.6,74.8,98.6,74.8,98.6,74.9z"/>
	<path class="st0" d="M126.6,71.9c1.9,0.2,4.6,0.6,7.2,1.3c2.4,0.7,4.4,1.9,6.5,3.3c0.5,0.3,0.6,0.8,0.3,1.3
		c-0.3,0.5-0.8,0.5-1.3,0.2c-1.4-0.8-2.7-1.7-4.1-2.3c-1.7-0.8-3.6-1-5.4-0.4c-0.5,0.1-1-0.1-1.5-0.1c-2.3-0.1-4.6-0.1-6.9,0.6
		c-1.2,0.4-2.5,0.5-3.8,0.7c-0.8,0.1-1.5-0.3-1.9-0.9c-0.2-0.3-0.1-0.9,0.1-1.1c0.4-0.4,1-0.8,1.5-1C120,72.6,122.8,71.8,126.6,71.9
		z"/>
	<path class="st0" d="M118.2,102.1c0.1,2.7-1.1,3.7-2.4,4.1c-3.5,0.9-6.7,2.5-10,3.9c-2.2,0.9-4.4,0.4-6.1-1.3
		c-1.4-1.3-2.8-2.4-4.8-3c-1.4-0.4-2.7-1.6-3.3-3.2c-0.6-1.6-0.4-3.1,0.7-4.4c0.3-0.4,0.6-0.9,0.9-1.3c0.1-0.2,0.5-0.2,0.7-0.2
		c0,0.3,0.2,0.6,0.1,0.8c-0.2,0.4-0.5,0.8-0.8,1.2c-1.5,1.6-1.1,4.1,0.9,5.4c0.7,0.5,1.4,0.9,2.3,1.1c1.5,0.4,2.5,1.4,3.6,2.4
		c2.3,2.2,4.6,2.1,7.2,0.7c2.4-1.3,5-2.4,7.7-3c1.4-0.3,2.4-1.5,2.4-2.8c0-1.2,0.1-2.4-0.9-3.3c-0.5-0.5-1.2-0.9-1.8-1.3
		c-0.2-0.2-0.4-0.4-0.6-0.6c0.3-0.1,0.7-0.4,1-0.3c1.9,0.6,3.6,2.9,3.3,4.7C118.2,101.8,118.2,101.9,118.2,102.1z"/>
</g>
</svg>
