<?xml version="1.0" encoding="utf-8"?>
<!-- Generator: Adobe Illustrator 19.2.1, SVG Export Plug-In . SVG Version: 6.00 Build 0)  -->
<svg version="1.1" id="Layer_1" xmlns="http://www.w3.org/2000/svg" xmlns:xlink="http://www.w3.org/1999/xlink" x="0px" y="0px"
	 viewBox="0 0 283.3 300" style="enable-background:new 0 0 283.3 300;" xml:space="preserve">
<style type="text/css">
	.st0{fill:#00BCD4;}
</style>
<g id="pharm-ryan-cyan">
	<path class="st0" d="M283.3,237.3c-3.1-0.9-6.2-2-9-3.6c-2.2-1.3-4.9-1.7-7.2-2.8c-3.1-1.3-6.3-2.4-9.1-4.3
		c-0.8-0.5-1.8-0.7-2.8-1.1c-3.1-1.1-6.2-2.2-9.3-3.3c-3.1-1.1-6.2-2.2-9.3-3.1c-2.9-0.8-5.7-1.9-8.4-3.1c-1.7-0.8-3.3-1.2-4.1-1
		c0.1,1.8,0.3,3.6-0.6,5.3c-1.2,2.2-2.4,4.5-3.6,6.8c-0.4,0.8-0.8,1.6-1.2,2.3c-0.8,1.4-1.8,2.6-2.6,4c-1.1,1.9-2,3.8-3,5.7
		c-1.2,2.1-2.3,4.3-3.5,6.4c-0.8,1.5-1.6,3-2.5,4.3c-1.1,1.6-2.3,3.2-3.5,4.7c-1.4,1.7-2.8,3.5-4.2,5.2c-1.4,1.7-2.7,3.4-4,5.1
		c-2.5,3.3-4.9,6.6-7.9,9.5c-1.3,1.3-2.2,3-3.3,4.6c-1.3,1.9-2.6,3.8-3.9,5.7c-2.1,3-4.2,6-6.3,9c-1.1,1.6-2.2,3.2-3.3,4.8
		c-0.3,0.5-0.6,1-0.8,1.5c-0.5,0-1.1,0-1.9,0c1.1-1.7,2.1-3.3,3.1-4.9c1.6-2.4,3.3-4.7,5-7c1.8-2.5,3.6-4.9,5.3-7.4
		c1-1.5,1.8-3.1,2.8-4.6c1.2-1.7,2.7-3.2,4-4.8c1.5-1.9,3-3.8,4.5-5.7c0.9-1.2,1.8-2.3,2.7-3.5c0.5-0.6,0.8-1.3,1.3-2
		c0.6-0.7,1.3-1.4,1.9-2.1c1.9-2.3,3.6-4.7,5.6-7c2.4-2.9,3.9-6.3,5.7-9.5c1.1-1.9,2.2-3.8,3.2-5.8c1-1.8,2-3.5,2.9-5.3
		c1.6-2.9,3.2-5.8,4.7-8.7c0.6-1.1,1.3-2.2,1.6-3.4c0.5-1.8,0.5-3.6-1.1-5c-0.4-0.4-0.8-0.9-1.1-1.4c-0.9-1.7-2.4-2.8-3.8-4
		c-2.4-1.9-4.6-4.1-6.3-6.7c-1.1-1.6-2.2-3.3-3.3-4.9c-0.3-0.4-0.7-0.8-1-1.2c-0.8-1.3-1.7-2.5-2.4-3.9c-1.1-2-2.3-3.8-3.8-5.5
		c-0.5-0.6-1.1-1.2-1.7-1.8c0.2,1.8,0.3,3.5,0.4,5.3c0.2,2.2-0.3,4.3-1.2,6.3c-0.9,2-1.6,4.1-2.3,6.2c-0.6,1.8-1.7,3.4-2.8,4.9
		c-1.8,2.5-3.6,5-5.3,7.5c-1.1,1.6-2.1,3.3-3.3,4.8c-0.7,1-1.6,1.8-2.4,2.7c-1.5,1.7-2.9,3.4-4.4,5c-1.1,1.2-2.2,2.5-3.6,3.4
		c-0.6,0.5-1.2,1.1-1.8,1.6c-0.7,0.5-1.4,1-2,1.6c-0.6,0.5-1.2,1.1-1.8,1.6c-1.2,1.2-2.5,2.3-3.7,3.5c-1,1-1.7,2.1-2.7,3
		c-1.7,1.5-3.5,2.8-5.2,4.2c-0.4,0.3-0.9,0.7-1.3,1.1c-1.7,1.5-3.2,3.2-5,4.6c-1.2,1-2.7,1.7-4.1,2.4c-3.2,1.7-6.1,3.7-8.9,6
		c-3,2.4-6.1,4.5-9.2,6.7c-0.4,0.3-1.1,0.3-1.5,0.1c-1.6-0.8-3.2-1.7-4.8-2.6c-1.6-0.9-3.2-1.7-4.7-2.7c-1.8-1-3.4-2.2-4.7-3.9
		c-1.3-1.6-2.8-3.1-4.1-4.7c-1.3-1.5-2.6-2.9-3.7-4.4c-1.4-1.9-2.8-4-4-6c-1.6-2.8-2.4-5.8-2.9-9c-0.3-2.3-0.6-4.7-1-7
		c-0.5-2.3-1.2-4.5-1.8-6.7c-0.1,0-0.2,0-0.3,0c-0.4,1.4-0.9,2.8-1.2,4.3c-0.4,2.1-0.6,4.2-0.9,6.3c-0.3,2.5-0.6,5-1,7.5
		c-0.4,2.7-0.8,5.4-1.2,8.1c-0.4,2.4-0.8,4.8-1.1,7.2c-0.2,1.3-0.2,2.6-0.4,3.9c-0.8,4.3-0.4,8.7-0.5,13c0,1.4,0,2.7,0,4.1
		c0,8.2,0,16.4,0,24.6c0,1.5-0.1,1.6-1.6,1.2c0-0.6,0.1-1.3,0.1-1.9c0-4.8,0-9.6,0-14.4c0-4.5-0.1-9-0.1-13.5c0-3.5,0.1-7,0.2-10.5
		c0-1.2,0.3-2.3,0.5-3.5c0.2-1.6,0.5-3.2,0.7-4.7c0.4-2.9,0.8-5.8,1.2-8.7c0.2-1.3,0.5-2.6,0.7-4c-1.3,0.7-2.6,1.4-3.8,2.1
		c-3.5,2.1-6.9,4.2-10.5,6.2c-2.1,1.2-4.3,2.1-6.3,3.2c-2,1.1-3.9,2.5-5.8,3.8c-1.6,1.1-3.2,2.1-4.7,3.2c-1.7,1.2-3.4,2.6-5.2,3.8
		c-2.3,1.6-4.8,3-7.1,4.7c-3.4,2.5-7.1,4.4-10.6,6.6c-2.6,1.6-4.9,3.7-7.3,5.5c-1.6,1.2-3.2,2.4-4.9,3.5c-3.6,2.3-7.3,4.6-11,6.9
		c-2.4,1.6-4.7,3.2-7.1,4.8c-0.1,0.1-0.3,0.2-0.4,0.3c-1.7,0.6-2.9,1.8-4.3,2.8c0-0.7,0-1.3,0-2c0.3-0.2,0.6-0.5,0.9-0.7
		c0.6-0.4,1.2-0.7,1.7-1.1c0.8-0.5,1.5-1,2.3-1.5c2.6-1.7,5.3-3.5,7.9-5.2c4.2-2.7,8.5-5.4,12.7-8.2c2.3-1.6,4.4-3.5,6.7-5.2
		c1.1-0.8,2.3-1.7,3.5-2.3c3.2-1.6,6.2-3.6,9.1-5.7c2.2-1.5,4.5-2.9,6.6-4.4c2-1.4,4-2.9,6-4.4c2.5-1.7,5-3.5,7.5-5.1
		c2.2-1.4,4.6-2.6,6.9-3.9c2.2-1.2,4.3-2.5,6.5-3.8c2.1-1.2,4.2-2.3,6.3-3.6c1.1-0.7,2.1-1.5,3-2.4c0.5-0.5,0.9-1.2,1-1.9
		c0.4-2.1,0.7-4.3,0.8-6.5c0.2-3.1,0.8-6.1,1.8-9c0.5-1.6,0.8-3.2,0.5-4.8c-0.7-3.6-1.6-7.1-2.3-10.6c-0.7-3.1-2.3-5.6-4.6-7.9
		c-3.3-3.2-6.6-6.5-8.4-10.9c-1.5-3.6-2.8-7.3-4.2-11c-0.5-1.3-1-2.6-1.4-3.9c-0.8-2.4-1.6-4.8-2.4-7.3c-0.5-1.6-1.1-3.1-1.7-4.7
		c-0.4-0.9-1.2-1.1-2.1-1.2c-0.6-0.1-1.2-0.1-1.8-0.2c-1-0.2-1.9-0.7-2.5-1.6c-0.9-1.3-1.9-2.4-2.7-3.7c-1.1-1.6-1.4-3.5-1.5-5.5
		c-0.1-3.1-0.3-6.1-1.5-9c-0.9-2.2-1.6-4.4-2.4-6.6c-0.9-2.7-1-5.5-0.8-8.2c0.2-1.9-0.2-3.7-0.5-5.6c-0.2-1.6-0.4-3.3-0.6-4.9
		c-0.1-1-0.3-2.1-0.3-3.1c0-1.1,0.1-2.1,0.1-3.2c0.1-0.9,0.1-1.9,0.2-2.8c0-1.4,0.3-2.7,1.8-3.4c0.1,0,0.2-0.1,0.2-0.2
		c0.5-1.8,0.7-3.6,0.5-5.5c-0.3-2.8-1-5.5-1.2-8.3c-0.2-2.8-0.2-5.8-1.1-8.5c-0.1-0.2,0-0.4,0-0.7c0.1-2.7,0.1-5.3,0.2-8
		c0-0.9,0.5-1.8,0.6-2.6c0.3-1.5,0.4-3.1,0.7-4.7c0.4-2.6,0.9-5.2,1.4-7.7c0.6-2.9,1.1-5.9,1.9-8.8c0.6-2.2,1.6-4.4,2.5-6.5
		c0.7-1.7,1.3-3.5,2.2-5c1.1-1.8,2.3-3.6,3.7-5.2c1.3-1.4,3-2.5,4.4-3.9c2.7-2.7,5.6-5.1,8.8-7.2c3.2-2,6.4-3.9,9.7-5.9
		c2.2-1.3,4.4-2.5,6.6-3.7c0.6-0.3,1-0.9,1.6-1.2c2.1-1.1,4.2-2,6.2-3.2c1.6-1,3.4-1.4,5.2-1.5c1.8-0.1,3.7-0.2,5.5-0.3
		c2.4-0.2,4.7-0.4,7.1-0.7c0.1,0,0.1,0,0.2,0c3.4-0.1,6.9-0.3,10.3-0.3c2.6-0.1,5.1,0.2,7.6,0.9c3.5,1,6.9,2,10.4,3
		c2.2,0.7,4.4,1.3,6.6,2.2c2.4,1,4.8,2,6.8,3.6c2.1,1.7,4.7,2.4,6.7,4c1.3,1.1,2.7,2,4.1,3.1c1.1,0.8,2.2,1.6,3.4,2.4
		c0,0,0.1,0.1,0.1,0.1c1.8,1.8,4.3,2.7,5.5,5.1c0.2,0.4,0.7,0.7,1,1.1c0.8,1.2,2,2.2,2.4,3.7c0.1,0.5,0.6,0.9,0.9,1.3
		c1.3,1.8,2.7,3.7,4,5.5c1.4,1.9,2.2,4,2.8,6.2c0.7,2.3,1.6,4.6,2.3,6.9c0.7,2.4,1.4,4.9,2,7.4c0.3,1.3,0.3,2.7,0.6,4.1
		c0.2,1,0.6,2,0.8,3c0.3,1.8,0.5,3.7,0.9,5.6c0.2,1.1,0.6,2.1,0.8,3.2c0.3,1.6,0.4,3.2,0.6,4.9c0.2,1.4,0.3,2.7,0.5,4
		c1.2-0.2,2.3-0.5,3.3-0.7c1.1-0.2,1.8,0.5,2.5,1.2c0.9,1,1.8,2,2.6,3.1c1.1,1.5,2.2,3.1,2.9,4.8c0.6,1.3,0.5,2.8,0.8,4.3
		c0.2,1.1,0.5,2.2,0.7,3.3c0.1,0.3,0.1,0.6,0.1,1c0,2.7,0.1,5.4,0,8.1c-0.1,1.8-0.3,3.6-0.5,5.4c-0.2,1.9-0.4,3.7-0.6,5.6
		c-0.2,1.4-0.4,2.7-0.5,4.1c-0.2,1.4-0.4,2.8-0.5,4.2c-0.2,2.4-0.6,4.8-1.8,6.9c-0.8,1.6-2.3,2.6-3.7,3.7c-1.4,1.1-2.9,0.8-4.4,1.1
		c-0.8,0.2-1.6,0.2-2.4,0.4c-0.4,0.1-0.6,0.5-0.9,0.9c-0.2,0.2-0.2,0.6-0.3,0.6c-0.9,0.2-0.7,0.9-0.7,1.4c-0.1,2.1-0.1,4.2-0.2,6.4
		c0,1.6-0.1,3.3-0.2,4.9c0,1.3-0.2,2.6-0.1,3.8c0.1,1.8,0.3,3.6,0.4,5.4c0.1,0.7,0.2,1.5,0.2,2.2c0.1,3,0.2,6,0.2,9
		c0,2.6-0.2,5.2-0.3,7.8c0,1.6,0.5,2,1.8,2.8c1.1,0.7,2,1.7,2.9,2.7c0.9,1.1,1.8,2.2,2.6,3.4c0.8,1.3,1.5,2.6,2.2,4
		c0.1,0.2,0.2,0.5,0.4,0.7c1.8,1.8,3,3.9,4.4,6c1.6,2.5,3.6,4.7,5.9,6.6c1.8,1.5,3.7,2.8,4.9,5c0.6,1.2,1.7,1.8,3.2,2.1
		c1.7,0.3,3.4,1,5,1.7c2.7,1.1,5.4,2,8.3,2.8c3.1,0.9,6.2,2.1,9.3,3.2c3.6,1.3,7.1,2.5,10.7,3.8c0.1,0,0.3,0.1,0.4,0.2
		c2.6,2,5.8,2.8,8.7,4.3c1.2,0.6,2.6,0.7,3.8,1.2c1.5,0.6,3.1,1.2,4.5,2c2.2,1.3,4.6,2.1,7,2.8c0.2,0.1,0.4,0.1,0.6,0.2
		C283.3,236.1,283.3,236.7,283.3,237.3z M91.6,203.5c0,0-0.1,0.1-0.1,0.1c0.2,0.9,0.5,1.7,0.7,2.6c0.8,3.4,1.6,6.9,2.5,10.3
		c0.7,2.6,1.6,5.2,2.3,7.8c0.4,1.5,0.7,3,1,4.5c0.4,1.8,0.8,3.6,1.2,5.4c0.2,1.2,0.2,2.6,0.6,3.7c0.6,1.6,1.4,3.2,2.2,4.7
		c0.5,0.9,1.1,1.7,1.6,2.5c1,1.4,1.9,2.9,3,4.2c1.9,2.2,3.9,4.3,5.8,6.5c1.1,1.3,2,2.7,3.5,3.5c0.9,0.5,1.9,0.8,2.8,1.4
		c1.4,0.8,2.7,1.8,4.1,2.7c1,0.6,2.1,1.2,3.1,1.7c0.2,0.1,0.7,0.1,0.9-0.1c2.9-2.1,5.8-4.1,8.6-6.3c2.8-2.3,5.8-4.4,9-6
		c2.5-1.3,4.8-2.7,6.7-4.9c1.7-2,4-3.4,6.1-5.1c1.1-0.9,2.2-1.7,3.2-2.6c0.7-0.7,1.3-1.6,2-2.3c1.7-1.7,3.5-3.5,5.3-5.1
		c1.6-1.5,3.3-2.8,5-4.2c0.4-0.3,0.6-0.9,1-1.3c1-1,2.1-2,3.1-3c1.3-1.4,2.6-2.9,3.9-4.4c1.1-1.3,2.2-2.5,3.2-3.9
		c1.8-2.5,3.5-5.1,5.3-7.6c1.9-2.6,3.8-5.2,4.7-8.4c0.2-0.7,0.6-1.3,0.8-2c0.7-2.3,2.2-4.3,2.3-6.8c0.2-2.2,0.1-4.3-0.8-6.3
		c-0.6-1.5-0.8-3-0.8-4.6c0-2.9,0.2-5.7,0.3-8.6c0-1.5-0.1-2.9-0.2-4.4c-0.1-1.6-0.1-3.3-0.2-4.9c0-0.6-0.2-1.2-0.3-1.8
		c-0.1-1.3-0.4-2.7-0.4-4c0-1.6,0.2-3.1,0.3-4.7c0.1-4.6,0.3-9.2,0.3-13.7c0-3,0.2-6.1-0.3-9.1c-0.3-2.1-0.5-4.2-0.5-6.3
		c0-3.6-0.4-7.1-0.9-10.7c-0.1-0.6-0.1-1.2-0.8-1.6c-0.2-0.1-0.3-0.5-0.4-0.8c-0.4-1.5-0.6-3.1-1.1-4.5c-0.5-1.1-0.9-2.3-1.2-3.5
		c-0.6-2.4-1.4-4.7-2.1-7c-0.5-1.5-1-3-1.5-4.5c-0.3-1-0.4-2-0.7-3c-0.5-1.6-1.3-3-1.7-4.6c-0.6-2.1-1.3-4.1-2.4-5.9
		c-0.7-1.1-1.4-2.1-2.3-3c-1.2-1.2-2.5-2.2-3.8-3.2c-0.9-0.7-1.8-1.4-2.7-2.1c-1.1-0.9-2.4-1.7-2.8-3.2c-0.4-1.9-0.8-3.8-1.2-5.7
		c-0.1-0.6-0.1-1.3-0.2-1.9c-0.5-1.8-0.9-3.5-1.5-5.2c-0.5-1.6-0.9-3.1-1.6-4.6c-0.9-2-2.1-4-3.1-6c-0.1-0.1-0.2-0.3-0.2-0.5
		c-0.2-0.9-0.8-1.4-1.5-1.9c-1-0.8-2.4-0.9-3.5-1.4c-2.5-1.3-5-1-7.5-0.7c-1.2,0.1-2.3,0.3-3.5,0.4c-1.2,0.1-2.4-0.1-3.5,0.2
		c-2,0.4-4,0.9-6,1.5c-1.6,0.5-3.4,0.8-4.8,1.6c-2.4,1.3-4.8,2.3-7.5,2.9c-2.5,0.6-5,1.1-7.5,1.7c-1.5,0.4-3.1,0.9-4.6,1.1
		c-1.9,0.2-3.9,0.2-5.8,0.2C103,46.8,99.4,47,95.9,47c-2.8,0-5.7-0.1-8.5-0.2c-0.1,0-0.2,0-0.3,0c-3.7-0.9-7.6-0.7-11.4-0.9
		c-0.8,0-1.7,0.2-2.4,0.7C72,47.4,71,48.4,70,49.3c-0.9,0.7-1.8,1.4-2.6,2.2c-1.6,1.9-2.7,4.1-3.3,6.4c-0.4,1.7-0.5,3.4-0.7,5.2
		c-0.1,1-0.2,1.9-0.3,2.9c-0.2,1.4-0.3,2.8-0.5,4.3c-0.1,1-0.2,2.1-0.4,3.1c-0.2,2-0.6,4.1-0.6,6.1c-0.1,4.4,0,8.8-0.1,13.2
		c0,2.1-0.3,4.3-0.5,6.4c-0.3,3.1-0.1,6.1,0.3,9.1c0.3,2,0.8,3.9,1,5.9c0.2,2.2,0.2,4.5,0.2,6.7c0,2.3,0,4.6,0,7
		c0,0.8,0,1.6,0.1,2.4c0.4,1.9,0.8,3.8,1.2,5.6c0.6,2.8,1.2,5.5,1.8,8.3c0.3,1.6,0.4,3.3,0.7,5c0.3,1.5,0.4,3.2,1.6,4.4
		c0.1,0.1,0.2,0.4,0.2,0.7c0.3,1.6,0.5,3.2,0.9,4.8c0.7,2.4,1.8,4.7,2.4,7.2c0.6,2.7,1.7,5.3,2.5,8c0.8,2.8,1.9,5.4,2.9,8.1
		c1.1,3,2.6,5.7,4.7,8.1c2.1,2.4,4.4,4.6,6.5,6.9c1.9,2.1,3.7,4.3,5.6,6.4c1.8,2.1,3.5,4.2,5.3,6.3c1.9,2.2,3.6,4.6,5.5,6.8
		c1.6,1.8,3.3,3.4,4.9,5.1c1.1,1.1,2.2,2.1,3.5,2.9c1,0.5,1.8,1.3,2.8,1.8c1.6,0.7,3.3,1.4,5,1.9c2.4,0.6,4.8,1.2,7.3,1.5
		c2,0.2,4,0.3,5.9-0.6c0.3-0.1,0.7-0.1,1-0.2c1.5-0.4,3.1-0.7,4.5-1.2c1.9-0.7,3.7-1.6,5.6-2.5c1.3-0.6,2.6-1.2,3.7-1.9
		c1.4-1,2.7-2.2,4.1-3.2c4.1-2.9,8.1-5.8,12.2-8.7c2.5-1.8,5-3.5,7.4-5.3c1.5-1.1,2.9-2.3,4-3.7c3-3.8,5.8-7.7,8.6-11.6
		c1.4-2,2.6-4.1,3.3-6.4c0.4-1.4,1.2-2.7,1.8-4.1c0.3-0.6,0.5-1.1,0.8-1.6c0.3-0.5,0.7-0.8,1.3-0.5c0.5,0.3,0.6,0.7,0.2,1.2
		c-0.2,0.3-0.3,0.6-0.4,0.9c-0.9,2-1.7,4.1-2.6,6.1c-1,2.4-2.4,4.4-4,6.5c-2.4,3-4.5,6.2-6.8,9.2c-1.5,2-3.3,3.7-5.3,5.2
		c-3,2.3-6.1,4.4-9.2,6.6c-1.3,0.9-2.7,1.6-3.9,2.5c-2.5,1.9-5,3.9-7.4,5.9c-2.6,2-5.4,3.7-8.4,4.9c-3.1,1.3-6.3,2.4-9.5,3.4
		c-3.3,1.1-6.7,0.9-10,0.3c-1.8-0.3-3.6-0.9-5.4-1.5c-2.6-0.8-5.1-1.9-7.3-3.4c-1.6-1.1-3.1-2.4-4.6-3.7c-2.7-2.4-4.9-5.3-7.2-8.1
		c-2.3-2.9-4.7-5.7-7.1-8.5C92.8,205,92.2,204.3,91.6,203.5z M210.6,111.5c0.1,0,0.2,0,0.3,0c0.2-1.7,0.5-3.5,0.6-5.2
		c0.1-1.8,0-3.7,0-5.5c0-1,0-2-0.2-3c-0.2-1.5-0.7-2.9-0.7-4.5c0-0.8-0.4-1.7-0.9-2.3c-1-1.2-2.3-2.1-3.5-3.3
		c-0.5-0.5-1-0.6-1.6-0.4c-0.9,0.2-1.7,0.7-2.2,1.5c-0.9,1.6-1.8,3.2-2.7,4.8c-0.3,0.6-0.5,1.2-0.6,1.9c-0.7,2.5-1.3,5.1-2,7.5
		c-0.3,1-0.9,1.9,0.4,2.6c0,0,0.1,0.1,0.1,0.1c0.9,1.5,1.8,3,2.7,4.5c0.5,0.8,1.2,1.5,1.5,2.3c0.5,1.3,0.4,2.7,0,4.1
		c-0.5,1.6-1.2,3.2-1,4.9c0.1,0.6,0.2,0.8,0.8,0.8c1.2,0,2.1-0.8,2.9-1.5c1-1,1.9-2.1,2.8-3.2c0.4-0.5,0.6-1.1,0.9-1.7
		c0.2-0.4,0.4-0.8,0.7-1.1c1-0.8,1.1-1.6,0.6-2.8c-0.6-1.4-1.1-2.7-1.6-4.1c-0.7-2-1.3-4.1-2-6.2c-0.2-0.7-0.4-1.3-0.5-2
		c0-0.3,0.4-0.7,0.6-1c0.2,0.3,0.5,0.5,0.7,0.9c0.1,0.1,0,0.3,0.1,0.5c0.7,2.4,1.4,4.8,2.2,7.2C209.6,108.8,210.1,110.1,210.6,111.5
		z M51.8,108.5c0.2,2.3,0.3,4.6,0.6,6.9c0.2,1.5,0.6,3,0.7,4.5c0.2,2.5,0,5.1,0.2,7.6c0.1,1.5,0.5,3,1,4.5c0.8,2.5,1.9,4.8,2.7,7.3
		c0.5,1.5,0.7,3,1,4.6c0.2,1.4,0.3,2.9,0.6,4.3c0.4,1.9,1.7,3.4,2.7,4.9c0.6,1,1.5,1.6,2.7,1.8c0.9,0.2,1.6-0.3,2.2-0.8
		c0.5-0.5,0-0.9-0.1-1.3c-0.2-1.2-0.6-2.4-0.8-3.6c-0.2-1.1-0.3-2.3-0.5-3.4c-0.3-1.5-0.5-2.9-0.8-4.4c-0.2-1.1-0.6-2-1.4-2.8
		c-0.8-0.8-1.5-1.7-2.1-2.6c-0.7-1.2-1.4-2.4-2-3.7c-0.2-0.3-0.3-0.7-0.3-1.1c0.1-1.9,0.2-3.9,0.3-5.8c0.2-2.4,1.2-4.5,2.9-6.4
		c-0.3-0.8-0.6-1.7-1.2-2.6c-0.4-0.6-1.1-1.1-1.5-1.6c-1.4-1.7-2.7-3.5-4.2-5.1C53.8,108.9,53.2,108.1,51.8,108.5z M196.1,105.8
		c-0.2,0.5-0.3,0.7-0.3,1c-0.2,0.5-0.4,1.1-0.6,1.6c-0.2,0.6-0.6,1.2-0.5,1.8c0.1,1.6,0.4,3.1,0.6,4.7c0.1,0.7,0.3,1.4,0.3,2.1
		c0,3.8,0.2,7.5,0.7,11.3c0.3,2.6,0.3,5.3,0.4,7.9c0,0.2,0,0.4,0.1,0.7c1.5-1.2,3.2-1.1,4.9-1.3c1.1-0.1,2.2-0.2,3.1-0.9
		c1.5-1.1,2.9-2.2,3.6-4c0.9-2.5,1.1-5.1,1.3-7.7c0.1-1.3,0.3-2.5,0.4-3.8c0.1-1.2,0.3-2.5,0.4-3.7c-0.1,0-0.1-0.1-0.2-0.1
		c-0.3,0.4-0.6,0.7-0.8,1.1c-0.2,0.4-0.2,1-0.5,1.3c-1.5,1.6-2.7,3.3-4.4,4.7c-1,0.7-2,1.2-3.2,1.2c-0.9,0-1.7-0.6-1.8-1.5
		c-0.1-0.8-0.1-1.7,0.1-2.5c0.3-1.4,0.8-2.8,1.1-4.2c0.3-1.2,0.1-2.3-0.6-3.3c-1-1.4-1.8-2.9-2.7-4.4
		C197,107.2,196.6,106.6,196.1,105.8z M208.3,87.7c-0.1-0.3-0.1-0.4-0.1-0.5c-0.8-1.7-2.1-3.1-3.4-4.4c-1.2-1.2-3.7-0.7-4.4,0.9
		c-0.8,1.8-1.6,3.5-2.5,5.2c-0.5,1.1-1.2,2.1-1.5,3.3c-0.7,2.7-1.2,5.5-1.9,8.3c-0.5,2-0.2,3.9-0.3,5.9c0,0.1,0.1,0.2,0.3,0.4
		c0.3-1,0.6-2,0.9-2.9c0.7-2.2,1.4-4.4,2.1-6.6c0.4-1.4,0.6-2.9,1.1-4.2c0.4-1.2,1.2-2.2,1.8-3.3c1.1-1.9,2.3-3.7,4.7-4
		c0.7-0.1,1.4,0,1.9,0.5C207.3,86.7,207.7,87.1,208.3,87.7z M61.2,121.5c-0.1,0-0.1,0-0.2,0c-0.1,0.1-0.1,0.2-0.2,0.2
		c-1,1.6-1.3,3.5-1.5,5.3c-0.1,1.4-0.1,2.7-0.2,4.1c0,0.2,0.2,0.5,0.3,0.7c0.6,1.1,1.2,2.1,1.8,3.2c0.4,0.6,0.8,1.2,1.1,1.8
		c-0.3-2.6-1-5-1.2-7.5C61,126.7,61.2,124.1,61.2,121.5z M59.1,113.2c0.1,0,0.1-0.1,0.2-0.1c-0.4-0.7-0.7-1.4-1-2.2
		c-0.6-1.6-1.3-3.1-2.4-4.4c-0.5-0.6-1-1.2-1.4-1.9c-0.7-1.1-1.3-2.3-2-3.7c-0.7,2.1-0.4,4-0.5,5.9c0.8,0.2,1.6,0.3,2,0.7
		c1,0.8,1.8,1.8,2.6,2.7C57.4,111.2,58.2,112.2,59.1,113.2z"/>
	<path class="st0" d="M153.3,299.9c-1,0-1.8,0.1-2.5,0c-0.5-0.1-0.9-0.6-1.4-1c-1.3-1-2.7-1.9-3.9-3c-1.9-1.8-4.4-3.2-5.8-5.6
		c-0.2-0.3-0.6-0.6-1-1c-0.6,1.6-1.1,3-1.6,4.5c-0.6,1.9-1.2,3.8-1.9,5.6c-0.1,0.2-0.4,0.5-0.6,0.5c-7.9,0-15.8,0-23.7,0
		c0,0-0.1,0-0.2-0.1c0-2.1,0.1-4.2,0-6.3c-0.1-1.9-0.1-3.9-0.6-5.8c-0.3-1.4-1.1-2.8-2.7-3.3c-0.2-0.1-0.5-0.2-0.8-0.3
		c-0.5,0.8-1,1.7-1.5,2.5c-0.9,1.6-1.8,3.3-2.9,4.8c-0.9,1.4-2,2.7-3,4.1c-0.8,1.1-1.6,2.2-2.3,3.4c-0.5,0.8-1.1,1-1.9,0.9
		c-0.3,0-0.5,0-0.9,0c1.1-1.3,2.2-2.5,3.1-3.8c1-1.4,1.7-3,2.8-4.3c1.9-2.3,3.1-5.2,4.7-7.7c1.5-2.3,2.7-4.7,4.8-6.5
		c3.4-3,7-5.6,11.1-7.4c1.2-0.5,2.4-1.3,3.5-1.9c0.7-0.4,1.7-0.2,2.1,0.8c1.7,3.6,4.2,6.8,6.3,10.1c1.3,1.9,2.7,3.8,4.4,5.4
		c1.7,1.7,3.1,3.7,4.8,5.6c0.8,0.9,1.7,1.8,2.7,2.6c2.1,1.7,4.2,3.4,6.4,5.1C151.6,298.6,152.4,299.2,153.3,299.9z"/>
	<path class="st0" d="M95.9,174.1c1.8-0.5,3.4-1,5.1-1.5c1.1-0.4,2.2-1,3.3-1.4c1.9-0.7,3.8-1.4,5.8-1.8c3.3-0.7,6.5-1.7,10-1.5
		c0.8,0.1,1.5,0.2,2.3,0.4c1,0.3,1.9,0.8,2.8,1.2c0.6,0.3,1.2,0.4,1.9,0c1.1-0.7,2.3-1.2,3.4-1.9c1.3-0.8,2.7-1,4-1
		c2.6-0.2,5.3-0.2,8-0.2c1.2,0,2.3,0.2,3.5,0.1c2-0.1,4-0.4,6-0.5c0.9-0.1,1.7-0.1,2.6-0.1c1.8-0.1,3.7-0.1,5.5-0.2
		c0.9,0,1.9-0.2,2.9-0.3c0,0.2,0,0.5-0.1,0.6c-1.1,1.2-1.4,2.8-1.9,4.3c-0.3,0.7-0.6,1.4-1,2c-1.3,2.1-2.6,4.2-4.6,5.7
		c-0.5,0.4-0.8,0.9-1.1,1.4c-1,1.4-1.9,3-3.1,4.1c-2.4,2.2-4.9,4.3-7.4,6.3c-1.4,1.1-3,2-4.6,2.7c-2.4,1.1-5,1.7-7.6,2.1
		c-2.3,0.3-4.7,0.8-7,1.2c-2.6,0.4-5.2,0.4-7.7-0.6c-1.7-0.7-3.5-1.3-5.2-2.2c-1.8-1-3.6-2.2-5.2-3.5c-1.8-1.5-3-3.4-4.2-5.4
		c-1.1-1.7-2.4-3.3-3.6-4.9c-0.9-1.2-2-2.3-2.4-3.9C96,174.8,96,174.4,95.9,174.1z M97.9,176.1c-0.1,0.1-0.1,0.1-0.2,0.2
		c0.6,0.8,1.1,1.7,1.7,2.4c1.5,1.6,2.8,3.4,3.9,5.3c1.3,2.2,2.8,4.3,5,5.7c2.7,1.8,5.5,3.2,8.4,4.4c2.3,0.9,4.7,1,7,0.8
		c3-0.3,6-0.8,8.9-1.5c3-0.7,5.9-1.4,8.6-3.1c2.6-1.8,5.2-3.5,7.4-5.7c0.6-0.6,1.3-1,1.8-1.6c2-2.1,3.2-4.8,5.4-6.8
		c1.6-1.5,2.7-3.6,3.9-5.5c0.3-0.5,0.3-1.1,0.4-1.6c-0.1,0-0.1-0.1-0.2-0.1c-0.2,0.2-0.4,0.3-0.6,0.5c-1.9,1.5-3.7,3.1-5.7,4.5
		c-2,1.3-4.1,2.4-6.2,3.6c-2.5,1.4-5,2.8-7.5,4.1c-1.2,0.6-2.6,1-3.9,1.5c-1.7,0.6-3.3,1.5-5,1.8c-2.2,0.4-4.4,0.4-6.6,0.5
		c-1.5,0.1-3,0.2-4.4,0c-2.6-0.5-5.2-1.2-7.7-2c-2.4-0.8-4.7-1.7-6.9-2.8c-1.9-0.9-3.7-2.2-5.5-3.3
		C99.2,176.9,98.6,176.5,97.9,176.1z M151.7,169.7c-1.9,0.3-3.7,0.7-5.5,1c-3,0.5-6,1-8.9,1.6c-1.9,0.4-3.8,1-5.9,0.9
		c-1,0-2,0.1-3,0.2c-2.8,0.2-5.5,0.4-8.3,0.7c-1.4,0.1-2.8,0.3-4.2,0.5c-1.2,0.2-2.3,0.4-3.5,0.5c-2.1,0.2-4.2,0.4-6.5,0.5
		c0,1.1,0,2.2,0,3.2c0,0.2,0.2,0.4,0.4,0.5c1.6,0.9,3.2,1.8,4.8,2.6c1.1,0.5,2.4,0.7,3.6,1.1c2.3,0.7,4.7,1.5,7.1,1.6
		c2,0.1,4,0,6-0.2c1.7-0.2,3.4-0.3,5-1.1c1.1-0.6,2.2-1,3.4-1.4c2.4-0.8,4.6-1.9,6.8-3.1c2-1.2,4-2.3,6-3.3c1.2-0.6,2.4-1.2,3.4-1.7
		C152.2,172.4,151.9,171.1,151.7,169.7z M156.6,167.2c0-0.1,0-0.2-0.1-0.2c-1.5,0-3-0.1-4.5,0c-1.6,0.1-3.2,0.5-4.8,0.5
		c-1.6,0.1-3.2-0.1-4.8-0.1c-2.7,0-5.4,0-8,0.2c-1.3,0.1-2.7,0.2-3.8,1.1c-0.9,0.7-1.9,1.1-2.9,1.6c-1.1,0.6-2.1,0.6-3.2,0
		c-1.9-1-3.8-1.7-6-1.4c-0.9,0.1-1.9,0.2-2.8,0.4c-2,0.4-4,0.8-6,1.3c-1.2,0.3-2.4,0.9-3.6,1.2c-2.2,0.5-4.1,1.7-6.2,2.5
		c0,0-0.1,0.1-0.1,0.2c0.5,0,1-0.1,1.4-0.1c1.1,0.1,2.3,0.4,3.4,0.3c2-0.1,3.9-0.3,5.9-0.5c2.3-0.2,4.6-0.5,6.9-0.7
		c2.1-0.2,4.1-0.4,6.2-0.6c1.1-0.1,2.1-0.1,3.2-0.2c2.2-0.2,4.4-0.2,6.6-0.5c2.4-0.3,4.8-0.8,7.2-1.2c3.7-0.7,7.5-1.5,11.2-2.3
		C153.3,168.2,155,167.6,156.6,167.2z"/>
	<path class="st0" d="M91.5,121.5c-3.2,0.2-6.5-0.4-9.7-1.3c-1.9-0.5-3.7,0.1-5.5,0.8c-0.6,0.2-1.1,0.6-1.6,0.9
		c-0.5,0.4-1.2,0.4-1.5,0c-0.4-0.6-0.1-1,0.4-1.3c1.9-1.2,3.7-2.4,5.6-3.6c1.3-0.8,2.6-1.7,3.9-2.5c3.2-2,6.7-3.2,10.4-4
		c2.4-0.5,4.7-0.2,7,0.5c3.1,0.9,5.7,2.7,7.7,5.3c0.2,0.2,0.5,0.3,0.6,0.6c0.2,0.3,0.4,0.7,0.3,1c0,0.3-0.4,0.6-0.7,0.7
		c-2.4,0.6-4.9,1.1-7.3,1.6c-2,0.4-4,0.9-6,1.2C93.9,121.6,92.7,121.5,91.5,121.5z M106.6,117.2c-0.3-0.4-0.5-0.7-0.7-0.9
		c-1.2-1.4-2.8-2.3-4.5-2.9c-0.7-0.2-1.4-0.6-2.1-0.8c-0.2-0.1-0.5,0.1-0.8,0.2c-0.1,0,0,0.4,0,0.5c0.7,1.7,0.3,3.3-0.3,4.9
		c-0.1,0.3-0.4,0.6-0.5,0.9c0,0.1,0.1,0.1,0.1,0.2C100.7,118.6,103.6,117.9,106.6,117.2z M89.7,119.8c-0.3-0.4-0.6-0.6-0.8-0.9
		c-0.8-1-0.8-2.2-0.8-3.4c0-1.3,0-1.3-1.2-0.9c-1.7,0.6-3.3,1.2-4.5,2.6c-0.5,0.6-0.5,0.8,0.2,1.2c0.5,0.2,1,0.4,1.5,0.6
		C85.9,119.6,87.7,120,89.7,119.8z M93,115.9c0.5,0,1.1-0.7,1.1-1.2c0-0.5-0.7-1.1-1.3-1c-0.6,0-1,0.4-1,1
		C91.7,115.4,92.4,116,93,115.9z"/>
	<path class="st0" d="M134.9,115.5c0.3-0.5,0.5-1.1,0.8-1.6c1.9-2.6,4.3-4.6,7-6.3c1.8-1.1,3.5-2.3,5.5-3c1.1-0.4,2.4-0.6,3.6-0.7
		c2.4-0.3,4.8-0.4,7.2,0.2c1.5,0.4,3.1,1,4.5,1.7c1.5,0.8,3,1.4,4.8,1.6c0.5,0.1,1.3,0.1,1.1,1c-0.1,0.6-0.4,0.9-1.1,0.8
		c-1.4-0.2-2.9-0.5-4.3,0.1c-0.9,0.4-1.8,1.1-2.7,1.6c-2.7,1.7-5.6,2.8-8.7,3.7c-0.9,0.3-2,0.2-3,0.2c-2.5,0-4.9-0.1-7.4,0
		c-1.2,0-2.5,0.1-3.7,0.4c-0.8,0.2-1.5,0.7-2.2,1.1c-0.3,0.1-0.7,0.2-1,0.1C135.1,116.3,135.1,115.8,134.9,115.5z M148.8,113.3
		c-0.2-0.3-0.5-0.7-0.7-1c-0.9-1.1-1.2-2.5-1.3-3.9c0-0.7-0.3-0.8-0.9-0.5c-0.2,0.1-0.4,0.2-0.6,0.3c-2.2,1.6-4.3,3.1-6.5,4.7
		c-0.1,0.1-0.2,0.4-0.3,0.5c0.2,0.1,0.4,0.2,0.7,0.2c0.3,0,0.7-0.3,1-0.3c2.3,0,4.6,0,6.9,0C147.7,113.3,148.3,113.3,148.8,113.3z
		 M156.3,111.4c0.4,0,0.6,0.1,0.7,0c1.7-0.9,3.4-1.7,4.7-3.1c0.6-0.6,0.5-0.9-0.3-1.2c-0.7-0.2-1.3-0.5-2-0.6
		c-1.1-0.2-2.1-0.9-3.3-0.2C157.2,107.8,157.1,109.5,156.3,111.4z M152.2,108.4c0.1-0.7-0.3-1.1-0.9-1.1c-0.6-0.1-1.1,0.6-1.1,1.2
		c0,0.6,0.6,1.2,1.1,1.1C151.9,109.4,152.4,109.1,152.2,108.4z"/>
	<path class="st0" d="M161.6,93.2c2.5,0,5.5,0,8.6,0c1.9,0,3.6,0.9,5.2,1.9c0.3,0.2,0.3,0.8,0.5,1.2c-0.4,0.1-0.9,0.3-1.2,0.2
		c-4.2-1.6-8.4-1.2-12.6-0.3c-2.5,0.5-5,1-7.5,1.7c-2.3,0.6-4.6,1.6-6.9,2.1c-2.5,0.6-5.1,0.9-7.6,1.3c-0.7,0.1-1.5-0.1-2.3-0.3
		c-0.3-0.1-0.7-0.4-0.8-0.8c-0.1-0.5,0-1.1,0.6-1.3c3.4-1.5,6.7-3.5,10.4-4.3c1.9-0.4,3.9-0.6,5.9-0.8
		C156.1,93.5,158.6,93.4,161.6,93.2z"/>
	<path class="st0" d="M94.6,103c1.9-0.3,3.6,0.4,5.2,1.1c1.1,0.5,1.9,1.6,0.9,2.3c-0.5,0.4-1.3,0.5-2,0.6c-2.3,0.2-4.5-0.2-6.6-0.9
		c-1.9-0.6-3.8-0.6-5.8-0.3c-1.4,0.2-2.8,0.2-4.2,0.4c-2.7,0.3-5.3,1-7.7,2.4c-1.2,0.7-2.4,1.2-3.6,1.8c-0.9,0.4-1.5,0.3-1.7-0.3
		c-0.2-0.5,0.1-1.3,0.8-1.6c1.5-0.8,3.1-1.6,4.7-2.3c2.8-1.2,5.8-2,8.9-2.2c3.7-0.3,7.4-0.7,11.1-1C94.6,102.9,94.6,103,94.6,103z"
		/>
	<path class="st0" d="M122.5,158.2c-2,0-3.6-0.7-5.1-1.9c-2.3-2-4.9-3.2-7.8-3.9c-1.8-0.5-3.8-0.6-5.5-1.6c-2.3-1.3-2.9-3.8-2.2-6.1
		c0.5-1.3,1.3-2.5,2.5-3.2c0.2-0.1,0.5-0.1,0.8-0.2c-0.1,0.3,0,0.7-0.2,0.9c-0.5,0.7-1.3,1.2-1.7,2c-0.9,1.6-1.1,3.2,0.1,4.7
		c0.8,1,1.8,1.4,3,1.6c2.5,0.4,4.9,1.2,7.3,2c1.7,0.6,2.9,1.7,4.2,2.8c2.9,2.3,6.7,2.1,9.5-0.8c1.6-1.6,2.9-3.6,5.1-4.7
		c2.1-1,4.3-1.5,6.6-1.6c1.1-0.1,2.3-0.1,3.4-0.3c3.1-0.8,3.9-2.9,3-5.7c-0.3-1-1-1.9-1.6-2.8c-0.7-1.1-2-1.2-3.1-1.5
		c-0.6-0.2-1.2-0.2-1.8-0.4c-0.2-0.1-0.4-0.3-0.5-0.4c0.2-0.2,0.4-0.5,0.5-0.5c0.6,0,1.3,0.1,1.9,0.3c1.1,0.4,2.4,0.7,3.3,1.4
		c2.4,1.8,3.6,6.1,1.9,8.5c-1.1,1.6-2.8,2.3-4.8,2.5c-2.5,0.2-4.9,0.2-7.3,1.2c-1.8,0.7-3.2,2-4.3,3.5c-1.3,1.9-3.1,3.2-5.3,3.9
		C123.8,158,123.1,158.1,122.5,158.2z"/>
</g>
</svg>
