<?xml version="1.0" encoding="utf-8"?>
<!-- Generator: Adobe Illustrator 19.2.1, SVG Export Plug-In . SVG Version: 6.00 Build 0)  -->
<svg version="1.1" id="Layer_1" xmlns="http://www.w3.org/2000/svg" xmlns:xlink="http://www.w3.org/1999/xlink" x="0px" y="0px"
	 viewBox="0 0 162.7 200" style="enable-background:new 0 0 162.7 200;" xml:space="preserve">
<style type="text/css">
	.st0{fill:#FF5722;}
</style>
<g id="pharm-donald-orange">
	<path class="st0" d="M0,183.7c0.5-0.4,1.1-0.8,1.6-1.2c1.1-1,2.2-2.2,3.4-3c2-1.3,4.2-2.4,6.3-3.6c2.5-1.4,5-2.9,7.5-4.3
		c1.9-1,4-1.8,5.9-2.7c2.3-1.1,4.6-2.3,7-3.5c2.4-1.2,4.5-2.7,7.1-3.6c2.2-0.8,4.3-2.2,6.4-3.3c0.6-0.3,1.1-0.7,1.7-0.9
		c1.3-0.4,1.7-1.5,2.1-2.6c0.5-1.7,0.9-3.5,1.2-5.3c0.2-1-0.1-1.8-0.9-2.7c-1.5-1.5-2.7-3.2-4-4.8c-1.7-2.1-3.2-4.4-5.1-6.4
		c-1.9-2-4.1-3.6-6-5.6c-1-1-1.9-2.3-2.7-3.5c-0.6-0.8-1-1.8-1.5-2.7c-1.2-2.2-2.5-4.3-3.7-6.5c-0.6-1.1-0.9-2.4-1.5-3.6
		c-1.3-2.4-2.1-4.9-2.5-7.5c-0.4-2.5-0.2-5.1-0.4-7.6c-0.2-3.2,0-6.5-1-9.6c-0.6-1.7-1.2-3.5-1.9-5.2c-0.5-1.3-0.5-2.5-0.3-3.9
		c0.2-1.6,0.7-3.3-0.2-4.8c-1.2-2-2.1-4.1-2.6-6.4c-0.4-1.8-1.3-3.4-2.2-5c-1.6-2.6-2.6-5.4-3-8.4c-0.4-2.2-0.5-4.4-0.4-6.6
		c0.2-2.3,0.2-4.6,0.8-6.8c0.1-0.5,0-1-0.1-1.5c-0.2-1.4-0.3-2.8-0.6-4.1c-0.7-2.4-0.3-4.7,0.7-6.9c0.6-1.2,1.7-2.3,2.6-3.4
		c1.4-1.6,2.9-3.1,4.4-4.6c1.5-1.5,2.9-2.9,4.5-4.3c2.2-1.9,4.6-3.7,6.9-5.5c1.9-1.5,3.8-3,5.7-4.5c0.6-0.5,1.1-1.1,1.7-1.6
		c0.6-0.6,1.2-1.3,2.2-1.5c1-0.3,1.9-1,2.9-1.3c0.9-0.3,1.9-0.5,2.9-0.6c3.5-0.6,7.2-0.3,10.6-1.4c2.1-0.6,4.3-0.9,6.4-0.9
		c1.8,0,3.5-0.1,5.3-0.1c4.8-0.1,9.3,1.1,13.6,3.2c3.8,1.9,7.5,4.1,11.1,6.4c1.4,0.9,2.6,2.1,3.9,3.1c0.7,0.5,1.4,1.1,1.9,1.7
		c0.7,0.7,1.3,1.5,2,2.3c0.9,1,1.9,1.9,2.7,2.9c0.8,0.9,1.6,1.9,2.3,2.9c0.9,1.3,1.6,2.7,2.5,4.1c0.9,1.5,1.2,3.3,1.7,4.9
		c0.3,1,0.6,1.9,0.8,2.9c0.3,1.3,0.4,2.7,0.6,4c0.2,1.5,0.4,3.1,0.6,4.6c0,0.3,0,0.5,0,0.8c0.1,1.8,0.1,3.7,0.2,5.5
		c0.1,2.1,0.4,4.1,0.4,6.2c0,0.9-0.2,1.8-0.4,2.7c-0.2,0.7-0.1,1.3,0.2,1.9c0.5,1.1,1.1,2.1,1.7,3.2c0.7,1.3,0.7,2.7,0.8,4
		c0.2,1.3,0.3,2.6,0.5,3.9c0,0.3,0.1,0.5,0.1,0.8c0,1.3,0,2.6,0,4c0,3.8-0.5,7.6-2,11.2c-0.4,0.9-1.1,1.8-1.7,2.5
		c-0.8,1-1.8,1.9-2.7,2.7c-0.9,0.7-1.1,1.6-1,2.7c0.1,1.7,0.3,3.3,0.3,5c0,1.8,0.5,3.6-0.1,5.4c-0.3,1,0.2,2.2,0.2,3.3
		c0.1,1.3,0.1,2.6,0.2,3.9c0.1,1.3,0.4,2.7,0.6,4c0.1,0.5,0.2,1,0.3,1.7c0.7,0.1,1.5,0.3,2.3,0.3c1.1,0,2.1,0.5,3.1,0.9
		c1.7,0.6,2.3,2.2,3.2,3.5c1.2,1.6,2.1,3.4,3.2,5.1c1.8,2.7,3.6,5.4,5.5,8.1c0.4,0.5,0.8,0.9,1.3,1.4c1.4,1.4,2.9,2.7,4.4,4.1
		c1.3,1.2,2.6,2.5,4.4,3c2.2,0.6,3.9,2.2,5.8,3.3c0.8,0.4,1.6,0.8,2.3,1.2c2.5,1.3,5.1,2.3,7.8,3.2c2.2,0.7,4.4,1.4,6.5,2.3
		c1.5,0.7,3,1.7,4.3,2.6c0.3,0.2,0.2,1,0.3,1.5c-0.1,0.1-0.1,0.1-0.2,0.2c-1-0.7-2.1-1.3-3-2c-1.5-1.1-3.3-1.6-5.1-2.2
		c-3.1-1.1-6.2-2.1-9.3-3.4c-2.6-1.1-5.1-2.3-7.3-4c0,0,0,0-0.1,0c-1.5-0.1-2.4-1.4-3.7-1.7c-0.9-0.2-1.6-1-2.4-1.5
		c-0.6-0.5-1.1-1-1.7-1.5c-0.2-0.1-0.6-0.2-0.7,0c-1.2,1.3-2.3,2.6-3.4,4c-2.2,3-4.2,6.1-6.4,9c-1.3,1.7-2.7,3.3-4.1,5
		c-1.5,1.7-2.9,3.5-4.6,5c-3,2.8-5.4,6.1-7.9,9.3c-0.8,1-1.5,2.1-2.4,3.1c-0.1,0.2-0.6,0.3-0.8,0.2c-1.1-0.3-2.2-0.6-3.3-1
		c-1.7-0.6-3.3-1.3-5-1.9c-2.9-1-5.8-2-8.7-3c-0.3-0.1-0.5-0.1-0.6-0.2c-1.8,2.2-3.5,4.3-5.4,6.4c-0.9,1-2.1,1.7-3.1,2.6
		c-1.2,1-2.5,2-3.6,3.1c-1.8,1.7-4,2.7-6,4.2c-0.8,0.6-1.5,1.3-2.2,2c-0.5,0.4-0.6,1-0.6,1.6c0,2.3-0.2,4.7-0.3,7
		c0,0.4-0.1,0.9-0.2,1.4c-0.4,0-0.8,0-1.3,0c0.2-2.6,0.4-5.3,0.6-7.9c-0.1,0-0.2-0.1-0.3-0.1c-0.2,0.4-0.4,0.9-0.7,1.2
		c-1.1,1.1-2.2,2.2-3.4,3.2c-1.6,1.3-3.4,2.4-5.1,3.5c-0.2,0.1-0.4,0.2-0.6,0.2c-2.4,0-4.8,0-7.3,0c3.8-4.4,7.9-8.3,13.4-10.7
		c-1-0.3-1.8-0.6-2.6-0.8c-0.8-0.2-1.5-0.4-2.3-0.6c-0.4-0.1-0.8-0.2-1,0.4c-0.1,0.2-0.3,0.3-0.5,0.4c-1.8,1-3.5,2-5.3,2.9
		c-1.8,1-3,2.6-4,4.5c-0.7,1.3-1.4,2.5-2.2,3.7c-0.1,0.2-0.3,0.3-0.5,0.3c-0.4,0-0.8,0-1.3,0c0.9-1.5,1.7-3,2.6-4.4
		c1.9-2.8,4-5.5,5.8-8.4c0.7-1.1,1.1-2.6,1.6-3.9c0.6-1.5,1.1-3,1.6-4.5c0.3-0.8,0.4-1.7,0.6-2.6c-0.1,0-0.1-0.1-0.2-0.1
		c-0.7,0.6-1.4,1.2-2.1,1.8c-0.3,0.2-0.7,0.4-1,0.4c-0.6,0-0.5-0.6-0.4-1c0.2-1.9,0.4-3.7,0.7-5.6c0.6-3.2,1.4-6.4,2.1-9.6
		c0.2-1.2,0.3-2.4,0.5-3.7c-1.3,0.7-2.5,1.4-3.7,2.1c-2,1.2-4.1,2.2-6.3,3c-1.2,0.4-2.3,1.2-3.5,1.8c-3.2,1.6-6.4,3.3-9.7,4.9
		c-3.2,1.5-6.5,2.9-9.5,4.8c-1.3,0.8-2.7,1.5-4.1,2.2c-2.6,1.4-5.3,2.8-7.5,4.9c-1.2,1.2-2.6,2.3-3.9,3.4C0,185,0,184.3,0,183.7z
		 M102.1,101.4c0,1.2,0,2.2,0,3.2c0.1,2.9,0.3,5.9,0.4,8.8c0,0.1,0,0.1,0,0.2c0.5,2.6,0.1,5-1.2,7.3c-0.8,1.4-1.6,2.8-2.6,4.1
		c-1.3,1.8-2.6,3.6-4.1,5.2c-1.6,1.7-3.4,3.1-5,4.6c-2,1.9-3.9,3.9-5.9,5.8c-2,1.8-3.8,3.8-6.2,5.2c-1.2,0.7-2.2,1.9-3.4,2.6
		c-1.9,1.2-3.9,2.2-5.9,3.2c-0.8,0.4-1.5,0.9-2.4,1.1c-2.2,0.5-4.3,1-6.5,1.3c-1.3,0.1-2.6-0.2-3.8-0.4c0.3,0.7,0.7,1.5,1,2.3
		c0.9,2.5,2.2,4.6,4.1,6.5c0.6,0.6,1.3,1,1.9,1.6c0.4,0.5,0.6,0.4,1.1,0.1c0.8-0.6,1.6-1.1,2.5-1.5c2.1-1.1,4.4-2,6.3-3.7
		c2.4-2.2,5.2-3.8,7.9-5.6c1.2-0.8,2.6-1.3,3.7-2.2c1.9-1.4,3.6-3.1,5.4-4.6c1.5-1.3,3.1-2.5,4.6-3.8c0.9-0.8,1.8-1.7,2.8-2.6
		c1.5-1.4,3-2.7,4.6-4.1c1-0.9,2.1-1.9,3.1-2.9c2-1.8,4-3.5,6-5.3c0.6-0.6,0.6-1.1,0-1.7c-1.4-1.5-2.7-3.2-3.2-5.2
		c-0.4-1.5-0.6-3.1-0.8-4.6c-0.1-0.7-0.4-1.5-0.4-2.2c-0.1-2.2-0.3-4.4-0.3-6.7c0-1.4,0.1-2.8,0.1-4.2c0-1.9-0.1-3.8-0.2-5.6
		c-0.1-1.2-0.2-2.4-0.3-3.6c-0.5,0.3-1,0.7-1.5,0.9c-0.5,0.2-1.1,0.3-1.6,0.5c-1.4,0.3-2.6-0.5-2.7-2c-0.1-1.6-0.1-3.1-0.2-4.7
		c-0.1-1.6-0.3-3.2-0.6-4.8c-0.3-1.4-0.8-2.8-1.1-4.3c-0.5-2.6-1.7-5-3.2-7.2c-0.8-1.2-1.7-2.4-2.4-3.7c-0.9-1.8-1.9-3.5-3.6-4.8
		c-1.2-0.9-2.3-2-3.9-2.4c-0.5-0.1-1-0.5-1.3-0.8C81.5,58.8,79.7,57,78,55c-1.2-1.4-1.9-3.2-1.2-5.1c0.5-1.5,0.4-2.9,0.4-4.4
		c0-0.5-0.2-1-0.4-1.5c-0.4-0.8-0.9-1.4-1.8-1.4c-1.4,0.1-2.8,0.2-4.2,0.4c-1.6,0.2-3.3,0.5-4.9,0.7c-1.3,0.1-2.6,0-3.9-0.1
		c-1.9-0.2-3.8-0.5-5.7-0.7c-1.6-0.1-3.3-0.1-4.9,0c-1.4,0.1-2.9,0.5-4.3,0.6c-2.1,0.2-4.1,0.9-5.9,2c-1.1,0.6-2.1,1.4-3.3,1.8
		c-2.4,0.9-5,1-7.6,1.3c-1.5,0.2-2.9,0.3-4.4,0.5c-1.3,0.2-2.5,0.6-3.8,0.6c-2.1,0.1-3.8,1.3-3.8,3.7c-0.1,2.6-0.3,5.2-0.4,7.8
		c-0.1,1.2-0.1,2.5,0,3.7c0.1,2,0.4,4.1,0.6,6.1c0.1,1.2,0.3,2.5,1,3.6c0.4,0.6,0.5,1.4,0.6,2.2c0.1,0.8,0,1.7,0,2.5
		c0.2,0,0.4,0,0.6,0c1.8-0.8,3.7-1.1,5.7-1c2.4,0.1,4.8,0.3,7.2,0.4c1.6,0.1,3.3,0.2,4.2,2.1c-0.2,0.2-0.5,0.6-0.8,0.7
		c-0.6,0-1.2-0.1-1.8-0.3c-2.3-0.5-4.5-0.2-6.8,0.1c-1.2,0.2-2.5,0.3-3.7,0.6c-1.3,0.3-2.5,0.7-3.7,1c-0.5,0.1-0.7,0.5-0.5,1
		c0.2,0.6,0.5,1.2,0.7,1.8c0.6,2.1,1.5,4.2,1.8,6.3c0.4,2.6,0.4,5.2,0.5,7.9c0.1,1.9,0.1,3.8,0.2,5.7c0.1,2.4,1.2,4.6,2,6.8
		c0.3,0.8,0.9,1.4,1.2,2.1c0.4,1,0.6,2.1,1.1,3.1c1.5,2.7,3.1,5.2,4.6,7.9c1.7,3,4.4,5.1,6.7,7.5c0.9,0.9,2,1.7,2.8,2.7
		c1.6,1.9,3.1,3.9,4.6,5.9c1,1.2,1.8,2.7,2.9,3.7c1.4,1.3,2.5,2.8,3.6,4.3c1.4,2,3.3,3.3,5.8,3.1c1.6-0.1,3.3-0.3,4.9-0.7
		c3.2-0.7,5.8-2.4,8.6-4c2.4-1.4,4.6-3.1,6.7-4.8c2.4-2,4.6-4.3,6.8-6.4c1.5-1.4,2.9-2.8,4.4-4.2c1.4-1.3,2.9-2.6,4.2-4
		c2.3-2.4,4.3-5.1,5.7-8.2c0.5-1.1,1.1-2.3,1.2-3.5c0.2-2,0-4.1-0.1-6.2c0-1-0.1-1.9-0.2-2.9c0-2,0-4,0-6
		C101.3,101.7,101.6,101.5,102.1,101.4z M46.2,175.6c0.1,0,0.2,0.1,0.3,0.1c0.2-0.2,0.3-0.3,0.5-0.5c0.9-1.3,1.8-2.6,2.7-3.9
		c1.6-2.3,3.5-4.1,6.3-4.8c1-0.2,2.1-0.3,3.1-0.4c1.2-0.1,2.4-0.2,3.4,0.6c0.1,0.1,0.4,0.2,0.5,0.1c1.3-0.6,2.7-0.4,4-0.5
		c1.2-0.1,2.5-0.1,3.7,0.1c1.5,0.3,2.9,0.9,4.3,1.4c2,0.7,3.9,1.5,5.9,2c4,1,7.9,2.4,11.8,4c2.1,0.9,4.3,1.5,6.5,2.1
		c0.2,0,0.5,0,0.6-0.2c1.2-1.5,2.4-3,3.6-4.5c1.3-1.6,2.5-3.3,3.9-4.8c2.9-3,6-5.9,8.6-9.2c1.9-2.4,3.7-5,5.5-7.4
		c1.3-1.7,2.5-3.5,3.8-5.1c1-1.3,2.1-2.5,3.2-3.8c-0.9-0.8-1.8-1.7-2.7-2.5c-0.4-0.4-0.8-0.7-1.1-1.2c-1.9-2.8-3.9-5.6-5.7-8.4
		c-1-1.5-1.9-3.1-2.9-4.6c-0.4-0.7-1-1.3-1.5-2.1c-0.2,0.6-0.4,1.1-0.5,1.5c-0.4,1-1,1.9-1.3,2.8c-0.4,1.6-1.3,2.8-2.5,3.8
		c-2.2,1.9-4.5,3.6-6.7,5.5c-2.8,2.5-5.5,5.1-8.3,7.7c-0.8,0.7-1.6,1.4-2.4,2c-1.4,1.2-2.9,2.5-4.3,3.7c-1.7,1.4-3.3,3-5.1,4.2
		c-3.1,2.1-6.3,4-9.4,6.1c-2.4,1.7-4.8,3.2-7.4,4.5c-1,0.5-2.1,1-2.9,1.8c-0.4,0.4-0.9,0.5-1.4,0c-1.4-1.4-2.8-2.7-4.2-4.1
		c-0.6-0.6-1.1-1.2-1.4-1.9c-0.7-1.5-1.2-3.1-1.8-4.6c-0.8-1.8-1.6-3.7-3.2-4.9c-0.1,0.6-0.3,1.2-0.4,1.8c-0.5,2-1,4-1.4,6
		c-0.3,1.6-0.5,3.2-0.8,4.7c-0.6,2.7-1.3,5.4-1.9,8.1C46.7,172.4,46.5,174,46.2,175.6z M106.7,63.6c0.5,0.3,0.9,0.5,1.2,0.7
		c0.9,0.8,1.7,1.5,2.5,2.4c0.1,0.1,0,0.5,0,0.8c-0.3,0-0.8,0.1-1-0.1c-0.6-0.4-1-1-1.5-1.5c-0.3-0.3-0.6-0.6-0.9-0.8
		c-0.9-0.6-1.2-0.5-1.5,0.6c-0.5,1.7-0.9,3.3-0.7,5.1c0.1,0.6,0.2,1.3,0.6,1.7c1.3,1.3,2.7,2.5,4,3.8c0.4,0.3,0.7,0.8,0.9,1.2
		c0.6,1.7-0.3,3.7-1.7,4.8c-0.7,0.5-1.2,1.2-1.8,1.9c-0.3,0.3-0.6,0.8-0.9,1.1c-0.5,0.5-1.4,0.8-2,0.5c-0.7-0.3-0.9-0.8-0.9-1.6
		c0.2-2.5-0.7-4.7-2-6.7c-0.3-0.4-0.4-0.8,0.1-1.1c0.5-0.3,0.8,0,1,0.4c0.2,0.4,0.3,0.8,0.5,1.2c1.1,1.7,1.5,3.6,1.4,5.6
		c0,0.4,0.2,0.7,0.3,1.1c0.3-0.2,0.7-0.4,1-0.7c0.1-0.1,0.1-0.2,0.2-0.3c0.5-1,1.3-1.8,2.3-2.4c1.2-0.8,1.6-2.2,1.2-3.5
		c-0.1-0.2-0.3-0.5-0.5-0.6c-0.3-0.3-0.7-0.5-1.1-0.8c-0.9-0.8-1.6-1.6-2.5-2.3c-1.8-1.2-2.5-3.3-1.8-5.4c0.4-1.2,0.8-2.5,1.2-3.7
		c0.2-0.5,0.3-1.1,0.7-1.4c1.3-1.2,2.7-2.2,4-3.3c0.1-0.1,0.3-0.3,0.3-0.5c0-0.2-0.2-0.6-0.3-0.6c-0.9,0-1.8-0.3-2.5,0.3
		c-0.8,0.7-1.5,1.4-2.3,2.1c-0.6,0.6-1.2,1.2-1.6,1.8c-0.7,0.9-1.3,1.9-1.8,2.8c-0.6,1.2-1.3,2.3-1.6,3.6c-0.3,1.7-0.3,3.5-0.4,5.3
		c0,0.3,0,0.6-0.1,0.9c-0.5,1.2-0.4,2.3,0,3.4c1.1,3.4,1.4,6.9,1.6,10.4c0.1,1.1,0.1,2.1,0.2,3.2c0,0.5,0.2,0.8,0.8,0.8
		c1.1,0,2-0.2,2.8-0.9c0.4-0.3,0.8-0.7,1.2-0.9c1.6-0.8,2.8-1.8,3.8-3.3c0.6-0.8,1.3-1.6,1.7-2.5c1.3-3.3,1.8-6.7,1.9-10.3
		c0-1.5,0-3-0.2-4.6c-0.1-1.3-0.3-2.5-0.4-3.8c-0.1-0.8,0-1.6-0.3-2.4c-0.5-1.4-1.1-2.7-1.7-4c-0.4,0.2-0.6,0.4-0.8,0.5
		C108.3,61.9,107.7,62.9,106.7,63.6z M64.1,186c0.2-0.1,0.5-0.2,0.7-0.4c0.5-0.4,1.1-0.7,1.6-1.1c1.5-1.1,2.9-2.2,4.3-3.4
		c0.2-0.1,0.4-0.5,0.3-0.6c-0.4-1.2-0.7-2.4-1.3-3.6c-1.1-2.3-2.5-4.5-4.5-6.2c-0.9-0.8-1.8-1.6-3-2c-0.2-0.1-0.4-0.3-0.5-0.5
		c-0.3-0.8-1-1-1.8-0.7c-0.4,0.2-0.8,0.2-1.2,0.3c-1.6,0.2-3.2,0-4.7,0.9c-0.9,0.6-1.8,1.2-2.3,2.1c0.8,0.7,1.6,1.4,2.4,1.9
		c2.1,1.5,4,3.2,5.8,5.1c0.3,0.3,0.6,0.6,0.8,1C62.2,181.2,63.3,183.5,64.1,186z M50,176.8c-1,2.9-1.9,5.6-2.9,8.4
		c2,1.1,4.2,1,6.3,1.4c1,0.2,2,0.3,3,0.9c0.8,0.6,1.8,1,2.6,1.5c0-0.1,0-0.3,0-0.5c-0.5-1.2-1-2.4-1.7-3.5c-0.8-1.2-1.9-2.2-2.9-3.2
		c-0.8-0.8-1.6-1.6-2.3-2.5C51.5,178.5,50.8,177.7,50,176.8z M80.3,171.2c-2.7-0.9-5.3-1.8-7.9-2.7c1.3,2.6,2.6,5.2,4,7.9
		C77.6,174.7,78.9,173.1,80.3,171.2z M108.5,119.9c0,0.2-0.1,0.3,0,0.3c0.6,1.7,1.6,3.2,2.8,4.5c0,0,0.4,0,0.5-0.2
		c0.5-0.9,0.9-1.8,1.3-2.8c0.2-0.6-0.1-1.3-0.6-1.4C111.1,120.2,109.8,120,108.5,119.9z"/>
	<path class="st0" d="M55.1,132.5c-2.7,0.3-5.2-0.6-7.4-2c-1-0.7-1.8-1.7-2.6-2.6c-0.7-0.7-1.4-1.5-2-2.3c-0.9-1.1-1.8-2.2-2.8-3.3
		c-1-1.1-2-2.2-3.1-3.3c-0.4-0.4-1-0.5-1.4-0.8c-0.2-0.1-0.4-0.4-0.5-0.7c0.3-0.1,0.5-0.3,0.7-0.2c0.3,0,0.6,0.2,0.8,0.4
		c1.8,1.2,3.9,1.6,6.1,1.7c1,0.1,2-0.3,3-0.4c2.1-0.3,4.1-0.7,6.2-0.3c0.5,0.1,1.1,0,1.6-0.1c3.4-0.8,6.8-1.8,10.2-2.6
		c2.2-0.5,4.5-0.9,6.7-1.4c1.7-0.4,3.3-1,4.9-1.6c1-0.4,2.1-0.9,3.1-1.3c0.3-0.1,0.6-0.5,0.8-0.4c0.6,0.2,0.6,0.8,0,1.4
		c-1.4,1.2-2.1,2.8-2.7,4.5c-0.2,0.6-0.4,1.2-0.7,1.7c-0.9,2.1-1.8,4.1-3.2,5.9c-3,3.6-6.5,6.2-11.2,7.1c-2.1,0.4-4.3,0.7-6.5,1
		C55.1,132.7,55.1,132.6,55.1,132.5z M46.6,121.1c-0.9,0-1,0.2-0.8,1.2c0.1,0.8,0.5,1.5,1.3,1.9c0.2,0.1,0.3,0.3,0.4,0.4
		c1.1,0.7,2.2,1.5,3.4,2.2c1.3,0.7,2.8,0.7,4.2,0.6c2.3-0.1,4.6-0.4,6.8-1.2c1.2-0.4,2.4-1.1,3.6-1.6c1.3-0.6,2.4-1.6,3.5-2.6
		c0.7-0.7,1.4-1.4,2.2-1.9c1.4-0.8,1.8-1.8,1.4-3.3c-0.3-0.9-0.6-1.1-1.5-0.7c-1,0.4-1.9,0.9-2.9,1.2c-2.7,0.9-5.5,1.9-8.3,2.8
		c-1.6,0.5-3.2,0.9-4.8,1.4c-0.5,0.1-1.1,0.2-1.6,0.2C51.1,121.4,48.9,121.3,46.6,121.1z M39.7,120.4
		C39.7,120.5,39.7,120.5,39.7,120.4c0.3,0.5,0.8,1,1.2,1.4c0.9,1,1.7,2.1,2.5,3.1c0.7,0.8,1.5,1.6,2.2,2.4c0.8,0.8,1.4,1.8,2.3,2.4
		c3.3,2.3,7,2.5,10.8,1.7c0.4-0.1,0.7-0.2,1.1-0.2c2.1-0.2,4.1-0.8,5.9-1.6c2.1-1,3.9-2.6,5.4-4.4c1.1-1.3,2.1-2.8,3.1-4.3
		c0.4-0.5,0.5-1.2,0.7-1.9c0.5-1.2,1-2.5,1.5-3.7c-0.3,0.1-0.4,0.2-0.5,0.3c-0.6,0.9-1.2,1.8-1.9,2.6c-1.6,1.6-3.3,3.1-4.9,4.7
		c-0.6,0.5-1.1,1.1-1.8,1.5c-1.2,0.7-2.5,1.4-3.7,2c-1.7,0.8-3.4,1.3-5.3,1.5c-1.7,0.2-3.4,0.6-5.2,0.3c-2.5-0.3-4.4-1.4-6.2-3
		c-0.8-0.7-1.5-1.6-2.4-2.2C42.9,122,41.3,121.3,39.7,120.4z M44.4,120c0.3,0.1,0.4,0.2,0.5,0.3c2,0.2,4,0.3,6,0.5
		c2.4,0.2,4.7-0.2,6.9-0.9c2.7-0.8,5.5-1.7,8.2-2.6c1.1-0.4,2.1-0.9,3.2-1.3c-1.8,0.2-3.5,0.5-5.2,0.9c-2.8,0.7-5.5,1.4-8.3,2.1
		c-1.4,0.3-2.7,1.2-4.2,0.7c-0.4-0.1-0.8-0.2-1.2-0.2c-1.2,0.1-2.5,0.2-3.7,0.3C46,119.7,45.3,119.8,44.4,120z"/>
	<path class="st0" d="M63,83.5c-1.2-0.1-2.5-0.4-3.6,0.4c-0.1,0.1-0.6-0.1-0.8-0.3c-0.3-0.3-0.2-0.7,0.2-1c1.6-1.1,3.1-2.3,4.3-3.8
		c1.1-1.3,2.4-2.4,4.1-2.9c1.7-0.5,3.5-0.3,5.2,0c1.8,0.3,3.2,1.3,4.5,2.4c0.5,0.4,1.1,0.8,1.7,1.2c0.2,0.1,0.4,0.4,0.4,0.6
		c0,0.2-0.3,0.4-0.5,0.4c-2,0.4-4,0.8-6,1.3c-1.1,0.3-2.2,0.8-3.4,1C67.1,83.1,65,83.3,63,83.5z M71.7,81.2c1.9-0.5,3.6-1,5.5-1.5
		c-1.7-1.4-3.1-2.9-5.4-3C72.5,78.9,72.5,79.1,71.7,81.2z M65.1,78.1c-1.4,1.3-2.7,2.7-4.1,4c0.8,0.4,5.6,0.3,5.9-0.1
		C65.3,81.3,65.2,79.8,65.1,78.1z M68.3,79.5c0.8,0,1.2-0.3,1.1-0.8c-0.1-0.3-0.4-0.8-0.7-0.8c-0.5-0.1-1,0.2-0.9,0.8
		C67.8,79,68.2,79.3,68.3,79.5z"/>
	<path class="st0" d="M34.6,83.5c1.9,0,3.7,0.2,5.3,1.3c0.7,0.5,1.6,0.9,2.3,1.5c0.9,0.8,0.7,1.7-0.5,2.1c-1.3,0.4-2.7,0.7-4,1.1
		c-1.4,0.4-2.8,1-4.2,1.3c-1.9,0.4-3.8,0.2-5.6-0.6c-0.8-0.4-1.5-0.7-2.4-0.4c-0.4,0.1-0.8-0.5-0.5-1c1.7-2.7,3.8-5,7.3-5
		C33.1,83.7,33.8,83.6,34.6,83.5z M31.3,85.1c-1.4-0.2-4.5,2.3-4.4,3.6c1.9,0.5,3.6,1.6,5.7,1.2C31.8,88.4,30.6,87,31.3,85.1z
		 M37.8,88.5c1.3,0,2.3-0.4,3.3-1.1c0.1-0.1,0.2-0.5,0.1-0.6c-0.9-0.8-1.9-1.5-3.3-1.8C38.6,86.3,38.2,87.3,37.8,88.5z M34.9,87.1
		c0.2-0.3,0.6-0.6,0.6-0.8c-0.1-0.3-0.5-0.6-0.8-0.7c-0.5-0.1-0.8,0.1-0.8,0.7C33.9,86.8,34.2,87,34.9,87.1z"/>
	<path class="st0" d="M74,69.7c0.4,0,1,0,1.6,0.2c1,0.2,1.5,1.3,1.2,2.2c-0.1,0.2-0.4,0.4-0.5,0.4c-3.1-0.3-6,0.5-8.9,1.4
		c-2.9,0.9-5.7,2-8.6,3C57.9,77,56.9,77,56.1,77c-0.8,0-1-0.7-1.1-1.3c-0.1-0.7,0.3-1,0.8-1.2c2.7-1,5.5-2.1,8.2-2.9
		C67.2,70.6,70.5,69.7,74,69.7z"/>
	<path class="st0" d="M63.9,105c0.2,2.9-1.7,4.7-4.1,5.2c-0.5,0.1-1.1,0.1-1.6,0.1c-1.5-0.2-2.7,0.6-3.7,1.6c-0.7,0.6-1.3,1.4-2,2
		c-1.6,1.3-3.4,1.3-5.2,0.8c-0.9-0.2-1.7-0.7-2.5-1.1c-1.2-0.6-2.4-1.3-3.6-2c-0.5-0.3-0.9-0.5-1.3-0.8c-2.1-1.5-1.6-3.4-0.7-4.9
		c0.4-0.8,0.9-1.5,1.5-2.2c0.2-0.2,0.6-0.2,0.9-0.2c0,0.3,0,0.6-0.1,0.8c-0.5,0.8-1.1,1.5-1.5,2.3c-0.9,1.7-0.6,2.8,1,3.7
		c1.9,1.1,3.8,2.3,5.8,3.1c2.1,0.9,4.2,0.8,5.9-1c0.6-0.6,1.3-1.3,2-1.9c1.2-1,2.7-1.4,4.2-1.3c1.3,0.1,2.4-0.4,3.2-1.4
		c0.4-0.5,0.6-1.2,0.8-1.8c0.5-1.9-0.1-3.9-2.6-4.7c-0.3-0.1-0.7-0.6-0.6-0.8c0.2-0.5,0.5-0.2,0.9-0.1c1.5,0.4,2.4,1.3,3,2.6
		C63.7,103.7,63.7,104.4,63.9,105z"/>
</g>
</svg>
