<svg id="Layer_1" data-name="Layer 1" xmlns="http://www.w3.org/2000/svg" viewBox="0 0 162.7 200"><defs><style>.cls-1{fill:#e91e63;}</style></defs><title>pharm-donald-red</title><g id="pharm-donald-red"><path class="cls-1" d="M0,183.7l1.6-1.2a34.1,34.1,0,0,1,3.4-3c2-1.3,4.2-2.4,6.3-3.6s5-2.9,7.5-4.3,4-1.8,5.9-2.7l7-3.5c2.4-1.2,4.5-2.7,7.1-3.6a48.5,48.5,0,0,0,6.4-3.3,11.5,11.5,0,0,1,1.7-.9,3.3,3.3,0,0,0,2.1-2.6c0.5-1.7.9-3.5,1.2-5.3a2.8,2.8,0,0,0-.9-2.7,55.4,55.4,0,0,1-4-4.8c-1.7-2.1-3.2-4.4-5.1-6.4s-4.1-3.6-6-5.6a24.8,24.8,0,0,1-2.7-3.5c-0.6-.8-1-1.8-1.5-2.7s-2.5-4.3-3.7-6.5-0.9-2.4-1.5-3.6a23.2,23.2,0,0,1-2.5-7.5c-0.4-2.5-.2-5.1-0.4-7.6s0-6.5-1-9.6-1.2-3.5-1.9-5.2a8.2,8.2,0,0,1-.3-3.9c0.2-1.6.7-3.3-.2-4.8a21.4,21.4,0,0,1-2.6-6.4,16.5,16.5,0,0,0-2.2-5,23.7,23.7,0,0,1-3-8.4,28.6,28.6,0,0,1-.4-6.6,33,33,0,0,1,.8-6.8,3.8,3.8,0,0,0-.1-1.5,32.2,32.2,0,0,0-.6-4.1,9.3,9.3,0,0,1,.7-6.9,16.8,16.8,0,0,1,2.6-3.4L18,21.8c1.5-1.5,2.9-2.9,4.5-4.3s4.6-3.7,6.9-5.5L35,7.6A21,21,0,0,0,36.7,6a4.8,4.8,0,0,1,2.2-1.5c1-.3,1.9-1,2.9-1.3a18.1,18.1,0,0,1,2.9-.6c3.5-.6,7.2-0.3,10.6-1.4A22.2,22.2,0,0,1,61.8.2h5.3A28.7,28.7,0,0,1,80.7,3.2,96.4,96.4,0,0,1,91.8,9.6c1.4,0.9,2.6,2.1,3.9,3.1l1.9,1.7,2,2.3,2.7,2.9a28,28,0,0,1,2.3,2.9c0.9,1.3,1.6,2.7,2.5,4.1a19.7,19.7,0,0,1,1.7,4.9,29.4,29.4,0,0,1,.8,2.9c0.3,1.3.4,2.7,0.6,4l0.6,4.6c0,0.3,0,.5,0,0.8,0.1,1.8.1,3.7,0.2,5.5s0.4,4.1.4,6.2a8.9,8.9,0,0,1-.4,2.7,2.5,2.5,0,0,0,.2,1.9l1.7,3.2a10.9,10.9,0,0,1,.8,4l0.5,3.9a6.8,6.8,0,0,1,.1.8c0,1.3,0,2.6,0,4a29.3,29.3,0,0,1-2,11.2,9.8,9.8,0,0,1-1.7,2.5,23.5,23.5,0,0,1-2.7,2.7,2.9,2.9,0,0,0-1,2.7c0.1,1.7.3,3.3,0.3,5s0.5,3.6-.1,5.4,0.2,2.2.2,3.3,0.1,2.6.2,3.9,0.4,2.7.6,4l0.3,1.7a15.1,15.1,0,0,0,2.3.3,8.5,8.5,0,0,1,3.1.9c1.7,0.6,2.3,2.2,3.2,3.5s2.1,3.4,3.2,5.1l5.5,8.1a9,9,0,0,0,1.3,1.4l4.4,4.1a11,11,0,0,0,4.4,3c2.2,0.6,3.9,2.2,5.8,3.3l2.3,1.2a47.9,47.9,0,0,0,7.8,3.2,69.4,69.4,0,0,1,6.5,2.3,25.2,25.2,0,0,1,4.3,2.6,3,3,0,0,1,.3,1.5l-0.2.2-3-2a19.9,19.9,0,0,0-5.1-2.2c-3.1-1.1-6.2-2.1-9.3-3.4a30.4,30.4,0,0,1-7.3-4h-0.1c-1.5-.1-2.4-1.4-3.7-1.7a7.4,7.4,0,0,1-2.4-1.5l-1.7-1.5a0.8,0.8,0,0,0-.7,0c-1.2,1.3-2.3,2.6-3.4,4-2.2,3-4.2,6.1-6.4,9s-2.7,3.3-4.1,5a58.9,58.9,0,0,1-4.6,5,70.1,70.1,0,0,0-7.9,9.3l-2.4,3.1a0.9,0.9,0,0,1-.8.2l-3.3-1-5-1.9-8.7-3-0.6-.2c-1.8,2.2-3.5,4.3-5.4,6.4a30.2,30.2,0,0,1-3.1,2.6l-3.6,3.1c-1.8,1.7-4,2.7-6,4.2a25.1,25.1,0,0,0-2.2,2,2.2,2.2,0,0,0-.6,1.6c0,2.3-.2,4.7-0.3,7a13.9,13.9,0,0,1-.2,1.4H59.3l0.6-7.9H59.6a5.8,5.8,0,0,1-.7,1.2,38.7,38.7,0,0,1-3.4,3.2c-1.6,1.3-3.4,2.4-5.1,3.5l-0.6.2H42.5c3.8-4.4,7.9-8.3,13.4-10.7l-2.6-.8-2.3-.6a0.7,0.7,0,0,0-1,.4,1,1,0,0,1-.5.4l-5.3,2.9a10.7,10.7,0,0,0-4,4.5l-2.2,3.7-0.5.3H36.2c0.9-1.5,1.7-3,2.6-4.4s4-5.5,5.8-8.4a19.8,19.8,0,0,0,1.6-3.9c0.6-1.5,1.1-3,1.6-4.5s0.4-1.7.6-2.6H48.3L46.2,178a1.6,1.6,0,0,1-1,.4c-0.6,0-.5-0.6-0.4-1s0.4-3.7.7-5.6,1.4-6.4,2.1-9.6c0.2-1.2.3-2.4,0.5-3.7l-3.7,2.1a35,35,0,0,1-6.3,3,32.9,32.9,0,0,0-3.5,1.8c-3.2,1.6-6.4,3.3-9.7,4.9a77.8,77.8,0,0,0-9.5,4.8c-1.3.8-2.7,1.5-4.1,2.2a31,31,0,0,0-7.5,4.9c-1.2,1.2-2.6,2.3-3.9,3.4v-2Zm102.1-82.3c0,1.2,0,2.2,0,3.2,0.1,2.9.3,5.9,0.4,8.8a1.1,1.1,0,0,0,0,.2,10.3,10.3,0,0,1-1.2,7.3,44.3,44.3,0,0,1-2.6,4.1,54.1,54.1,0,0,1-4.1,5.2c-1.6,1.7-3.4,3.1-5,4.6s-3.9,3.9-5.9,5.8a38.3,38.3,0,0,1-6.2,5.2c-1.2.7-2.2,1.9-3.4,2.6s-3.9,2.2-5.9,3.2a10.7,10.7,0,0,1-2.4,1.1,51.9,51.9,0,0,1-6.5,1.3,17.5,17.5,0,0,1-3.8-.4c0.3,0.7.7,1.5,1,2.3a17.1,17.1,0,0,0,4.1,6.5c0.6,0.6,1.3,1,1.9,1.6s0.6,0.4,1.1.1l2.5-1.5c2.1-1.1,4.4-2,6.3-3.7a75,75,0,0,1,7.9-5.6c1.2-.8,2.6-1.3,3.7-2.2s3.6-3.1,5.4-4.6l4.6-3.8,2.8-2.6,4.6-4.1,3.1-2.9,6-5.3a1,1,0,0,0,0-1.7,12.4,12.4,0,0,1-3.2-5.2c-0.4-1.5-.6-3.1-0.8-4.6a19.6,19.6,0,0,1-.4-2.2c-0.1-2.2-.3-4.4-0.3-6.7s0.1-2.8.1-4.2-0.1-3.8-.2-5.6-0.2-2.4-.3-3.6l-1.5.9-1.6.5a2.1,2.1,0,0,1-2.7-2c-0.1-1.6-.1-3.1-0.2-4.7a46.8,46.8,0,0,0-.6-4.8c-0.3-1.4-.8-2.8-1.1-4.3a19.5,19.5,0,0,0-3.2-7.2A30.1,30.1,0,0,1,92,68.6a12.1,12.1,0,0,0-3.6-4.8c-1.2-.9-2.3-2-3.9-2.4a3,3,0,0,1-1.3-.8C81.5,58.8,79.7,57,78,55a5,5,0,0,1-1.2-5.1,12.2,12.2,0,0,0,.4-4.4,3.9,3.9,0,0,0-.4-1.5,2,2,0,0,0-1.8-1.4l-4.2.4c-1.6.2-3.3,0.5-4.9,0.7a23.7,23.7,0,0,1-3.9-.1l-5.7-.7a34.7,34.7,0,0,0-4.9,0c-1.4.1-2.9,0.5-4.3,0.6a14.4,14.4,0,0,0-5.9,2,24.5,24.5,0,0,1-3.3,1.8c-2.4.9-5,1-7.6,1.3l-4.4.5c-1.3.2-2.5,0.6-3.8,0.6s-3.8,1.3-3.8,3.7-0.3,5.2-.4,7.8a33.8,33.8,0,0,0,0,3.7c0.1,2,.4,4.1.6,6.1a7.5,7.5,0,0,0,1,3.6,5.2,5.2,0,0,1,.6,2.2,20.6,20.6,0,0,1,0,2.5h0.6a13.3,13.3,0,0,1,5.7-1l7.2,0.4c1.6,0.1,3.3.2,4.2,2.1a2,2,0,0,1-.8.7,6.3,6.3,0,0,1-1.8-.3,18,18,0,0,0-6.8.1l-3.7.6-3.7,1a0.7,0.7,0,0,0-.5,1c0.2,0.6.5,1.2,0.7,1.8a46.7,46.7,0,0,1,1.8,6.3,73.8,73.8,0,0,1,.5,7.9c0.1,1.9.1,3.8,0.2,5.7s1.2,4.6,2,6.8,0.9,1.4,1.2,2.1,0.6,2.1,1.1,3.1c1.5,2.7,3.1,5.2,4.6,7.9s4.4,5.1,6.7,7.5,2,1.7,2.8,2.7,3.1,3.9,4.6,5.9a28.6,28.6,0,0,0,2.9,3.7,25.9,25.9,0,0,1,3.6,4.3,6.5,6.5,0,0,0,5.8,3.1,33.8,33.8,0,0,0,4.9-.7c3.2-.7,5.8-2.4,8.6-4a48.6,48.6,0,0,0,6.7-4.8c2.4-2,4.6-4.3,6.8-6.4l4.4-4.2c1.4-1.3,2.9-2.6,4.2-4a33.6,33.6,0,0,0,5.7-8.2,10.3,10.3,0,0,0,1.2-3.5,55,55,0,0,0-.1-6.2c0-1-.1-1.9-0.2-2.9s0-4,0-6ZM46.2,175.6h0.3l0.5-.5,2.7-3.9a10.3,10.3,0,0,1,6.3-4.8,17.5,17.5,0,0,1,3.1-.4c1.2-.1,2.4-0.2,3.4.6h0.5c1.3-.6,2.7-0.4,4-0.5a12.5,12.5,0,0,1,3.7.1,37.5,37.5,0,0,1,4.3,1.4c2,0.7,3.9,1.5,5.9,2a82.8,82.8,0,0,1,11.8,4,44.5,44.5,0,0,0,6.5,2.1,0.7,0.7,0,0,0,.6-0.2l3.6-4.5c1.3-1.6,2.5-3.3,3.9-4.8a116.4,116.4,0,0,0,8.6-9.2c1.9-2.4,3.7-5,5.5-7.4l3.8-5.1c1-1.3,2.1-2.5,3.2-3.8l-2.7-2.5a8,8,0,0,1-1.1-1.2l-5.7-8.4-2.9-4.6-1.5-2.1-0.5,1.5a19.9,19.9,0,0,0-1.3,2.8,7.7,7.7,0,0,1-2.5,3.8c-2.2,1.9-4.5,3.6-6.7,5.5s-5.5,5.1-8.3,7.7l-2.4,2L88.4,149c-1.7,1.4-3.3,3-5.1,4.2s-6.3,4-9.4,6.1a51,51,0,0,1-7.4,4.5,9.9,9.9,0,0,0-2.9,1.8,0.9,0.9,0,0,1-1.4,0L58,161.6a7.1,7.1,0,0,1-1.4-1.9c-0.7-1.5-1.2-3.1-1.8-4.6a10.9,10.9,0,0,0-3.2-4.9l-0.4,1.8c-0.5,2-1,4-1.4,6s-0.5,3.2-.8,4.7-1.3,5.4-1.9,8.1S46.5,174,46.2,175.6ZM106.7,63.6l1.2,0.7,2.5,2.4a1.6,1.6,0,0,1,0,.8,2,2,0,0,1-1-.1,19.6,19.6,0,0,1-1.5-1.5l-0.9-.8c-0.9-.6-1.2-0.5-1.5.6a12.7,12.7,0,0,0-.7,5.1,3,3,0,0,0,.6,1.7c1.3,1.3,2.7,2.5,4,3.8a3.3,3.3,0,0,1,.9,1.2,4.5,4.5,0,0,1-1.7,4.8,13.7,13.7,0,0,0-1.8,1.9l-0.9,1.1a1.9,1.9,0,0,1-2,.5,1.4,1.4,0,0,1-.9-1.6,10.4,10.4,0,0,0-2-6.7c-0.3-.4-0.4-0.8.1-1.1a0.7,0.7,0,0,1,1,.4,11.2,11.2,0,0,0,.5,1.2,9.2,9.2,0,0,1,1.4,5.6,3.3,3.3,0,0,0,.3,1.1l1-.7,0.2-.3a6.3,6.3,0,0,1,2.3-2.4,3.1,3.1,0,0,0,1.2-3.5,1.6,1.6,0,0,0-.5-0.6l-1.1-.8a24.2,24.2,0,0,0-2.5-2.3,4.6,4.6,0,0,1-1.8-5.4l1.2-3.7a3.4,3.4,0,0,1,.7-1.4l4-3.3a0.7,0.7,0,0,0,.3-0.5,0.8,0.8,0,0,0-.3-0.6c-0.9,0-1.8-.3-2.5.3l-2.3,2.1a15,15,0,0,0-1.6,1.8,24,24,0,0,0-1.8,2.8A13.9,13.9,0,0,0,99.4,70a40.4,40.4,0,0,0-.4,5.3,2.9,2.9,0,0,1-.1.9,4.8,4.8,0,0,0,0,3.4A38.1,38.1,0,0,1,100.5,90c0.1,1.1.1,2.1,0.2,3.2a0.8,0.8,0,0,0,.8.8,3.6,3.6,0,0,0,2.8-.9l1.2-.9a9.9,9.9,0,0,0,3.8-3.3,13,13,0,0,0,1.7-2.5,29.4,29.4,0,0,0,1.9-10.3c0-1.5,0-3-.2-4.6s-0.3-2.5-.4-3.8a11.5,11.5,0,0,0-.3-2.4c-0.5-1.4-1.1-2.7-1.7-4a2.6,2.6,0,0,1-.8.5C108.3,61.9,107.7,62.9,106.7,63.6ZM64.1,186l0.7-.4,1.6-1.1,4.3-3.4a0.8,0.8,0,0,0,.3-0.6,27.2,27.2,0,0,0-1.3-3.6,18.2,18.2,0,0,0-4.5-6.2,8.4,8.4,0,0,0-3-2,0.9,0.9,0,0,1-.5-0.5,1.3,1.3,0,0,0-1.8-.7l-1.2.3c-1.6.2-3.2,0-4.7,0.9a5.9,5.9,0,0,0-2.3,2.1l2.4,1.9A35,35,0,0,1,60,178l0.8,1A27.7,27.7,0,0,1,64.1,186ZM50,176.8l-2.9,8.4c2,1.1,4.2,1,6.3,1.4a7.6,7.6,0,0,1,3,.9l2.6,1.5a1.2,1.2,0,0,0,0-.5,22.4,22.4,0,0,0-1.7-3.5,30.9,30.9,0,0,0-2.9-3.2l-2.3-2.5Zm30.3-5.5-7.9-2.7,4,7.9Zm28.2-51.4a1.3,1.3,0,0,0,0,.3,13,13,0,0,0,2.8,4.5l0.5-.2c0.5-.9.9-1.8,1.3-2.8a1,1,0,0,0-.6-1.4Z"/><path class="cls-1" d="M55.1,132.5a11.1,11.1,0,0,1-7.4-2,16.3,16.3,0,0,1-2.6-2.6l-2-2.3-2.8-3.3L37.2,119a9,9,0,0,0-1.4-.8,2.6,2.6,0,0,1-.5-0.7,2,2,0,0,1,.7-0.2l0.8,0.4a12.1,12.1,0,0,0,6.1,1.7,16.7,16.7,0,0,0,3-.4,20.6,20.6,0,0,1,6.2-.3,4,4,0,0,0,1.6-.1L63.8,116l6.7-1.4a50.1,50.1,0,0,0,4.9-1.6l3.1-1.3a2.1,2.1,0,0,1,.8-0.4c0.6,0.2.6,0.8,0,1.4a9.7,9.7,0,0,0-2.7,4.5l-0.7,1.7a21.8,21.8,0,0,1-3.2,5.9c-3,3.6-6.5,6.2-11.2,7.1l-6.5,1v-0.2Zm-8.4-11.4c-0.9,0-1,.2-0.8,1.2a2.5,2.5,0,0,0,1.3,1.9l0.4,0.4,3.4,2.2a7.8,7.8,0,0,0,4.2.6,21.1,21.1,0,0,0,6.8-1.2c1.2-.4,2.4-1.1,3.6-1.6a13.6,13.6,0,0,0,3.5-2.6,15.2,15.2,0,0,1,2.2-1.9,2.6,2.6,0,0,0,1.4-3.3c-0.3-.9-0.6-1.1-1.5-0.7L68,117.3l-8.3,2.8-4.8,1.4-1.6.2Zm-6.9-.7H39.6l1.2,1.4,2.5,3.1,2.2,2.4a15.5,15.5,0,0,0,2.3,2.4c3.3,2.3,7,2.5,10.8,1.7l1.1-.2a17,17,0,0,0,5.9-1.6,16.6,16.6,0,0,0,5.4-4.4,40.3,40.3,0,0,0,3.1-4.3A10.3,10.3,0,0,0,75,119l1.5-3.7a0.8,0.8,0,0,0-.5.3,23.3,23.3,0,0,1-1.9,2.6c-1.6,1.6-3.3,3.1-4.9,4.7a11.2,11.2,0,0,1-1.8,1.5l-3.7,2a17,17,0,0,1-5.3,1.5,20.6,20.6,0,0,1-5.2.3,11.4,11.4,0,0,1-6.2-3,21.1,21.1,0,0,0-2.4-2.2C42.9,122,41.3,121.3,39.7,120.4Zm4.7-.5,0.5,0.3,6,0.5a18.2,18.2,0,0,0,6.9-.9l8.2-2.6,3.2-1.3a41.5,41.5,0,0,0-5.2.9l-8.3,2.1c-1.4.3-2.7,1.2-4.2,0.7l-1.2-.2-3.7.3Z"/><path class="cls-1" d="M63,83.5c-1.2-.1-2.5-0.4-3.6.4a1,1,0,0,1-.8-0.3,0.6,0.6,0,0,1,.2-1,19,19,0,0,0,4.3-3.8,8.2,8.2,0,0,1,4.1-2.9,11.3,11.3,0,0,1,5.2,0A10.1,10.1,0,0,1,77,78.2l1.7,1.2a0.9,0.9,0,0,1,.4.6,0.7,0.7,0,0,1-.5.4l-6,1.3c-1.1.3-2.2,0.8-3.4,1S65,83.3,63,83.5Zm8.7-2.3,5.5-1.5c-1.7-1.4-3.1-2.9-5.4-3C72.5,78.9,72.5,79.1,71.7,81.2Zm-6.6-3.1-4.1,4c0.8,0.4,5.6.3,5.9-.1C65.3,81.3,65.2,79.8,65.1,78.1Zm3.2,1.4c0.8,0,1.2-.3,1.1-0.8a1.1,1.1,0,0,0-.7-0.8,0.8,0.8,0,0,0-.9.8A2.1,2.1,0,0,0,68.3,79.5Z"/><path class="cls-1" d="M34.6,83.5a8.7,8.7,0,0,1,5.3,1.3c0.7,0.5,1.6.9,2.3,1.5s0.7,1.7-.5,2.1l-4,1.1c-1.4.4-2.8,1-4.2,1.3a8.7,8.7,0,0,1-5.6-.6,3.2,3.2,0,0,0-2.4-.4c-0.4.1-.8-0.5-0.5-1,1.7-2.7,3.8-5,7.3-5Zm-3.3,1.5c-1.4-.2-4.5,2.3-4.4,3.6,1.9,0.5,3.6,1.6,5.7,1.2C31.8,88.4,30.6,87,31.3,85.1Zm6.5,3.4a5.9,5.9,0,0,0,3.3-1.1,0.6,0.6,0,0,0,.1-0.6,7.4,7.4,0,0,0-3.3-1.8C38.6,86.3,38.2,87.3,37.8,88.5Zm-2.9-1.4a1.8,1.8,0,0,0,.6-0.8,1.3,1.3,0,0,0-.8-0.7,0.6,0.6,0,0,0-.8.7C33.9,86.8,34.2,87,34.9,87.1Z"/><path class="cls-1" d="M74,69.7l1.6,0.2A1.7,1.7,0,0,1,76.7,72a0.7,0.7,0,0,1-.5.4c-3.1-.3-6,0.5-8.9,1.4l-8.6,3a7.9,7.9,0,0,1-2.6.3A1.2,1.2,0,0,1,55,75.7a1.1,1.1,0,0,1,.8-1.2c2.7-1,5.5-2.1,8.2-2.9A35.6,35.6,0,0,1,74,69.7Z"/><path class="cls-1" d="M63.9,105a4.8,4.8,0,0,1-4.1,5.2H58.2a4.6,4.6,0,0,0-3.7,1.6l-2,2a5.5,5.5,0,0,1-5.2.8,12.7,12.7,0,0,1-2.5-1.1l-3.6-2-1.3-.8c-2.1-1.5-1.6-3.4-.7-4.9a15.4,15.4,0,0,1,1.5-2.2,1.8,1.8,0,0,1,.9-0.2,2.2,2.2,0,0,1-.1.8c-0.5.8-1.1,1.5-1.5,2.3s-0.6,2.8,1,3.7a62.2,62.2,0,0,0,5.8,3.1,4.9,4.9,0,0,0,5.9-1l2-1.9a5.5,5.5,0,0,1,4.2-1.3,3.5,3.5,0,0,0,3.2-1.4,4.5,4.5,0,0,0,.8-1.8c0.5-1.9-.1-3.9-2.6-4.7a1,1,0,0,1-.6-0.8c0.2-.5.5-0.2,0.9-0.1a4.2,4.2,0,0,1,3,2.6A9.1,9.1,0,0,1,63.9,105Z"/></g></svg>