<?xml version="1.0" encoding="utf-8"?>
<!-- Generator: Adobe Illustrator 19.2.1, SVG Export Plug-In . SVG Version: 6.00 Build 0)  -->
<svg version="1.1" id="Layer_1" xmlns="http://www.w3.org/2000/svg" xmlns:xlink="http://www.w3.org/1999/xlink" x="0px" y="0px"
	 viewBox="0 0 137 200" style="enable-background:new 0 0 137 200;" xml:space="preserve">
<style type="text/css">
	.st0{fill:#03A9F4;}
</style>
<g id="pharm-danny">
	<path class="st0" d="M136.1,108.7c-0.6-0.2-1.3-0.5-1.9-0.8c-1.3-0.6-2.8-1.1-4.1-1.9c-2-1.2-4.2-1.8-6.5-1.8
		c-0.9,0-1.7-0.2-2.6-0.3c-0.7-0.1-1.4-0.3-2.1-0.4c-2.1-0.3-4.2-0.5-6.3-0.8c-2.1-0.3-4-1.4-6.1-1.4c-1.2-0.7-2.3-1.6-2.5-3.1
		c0-0.1,0.1-0.3,0.2-0.4c0.8-0.5,1.6-1,2.5-1.5h1.2c0-0.2,0-0.4-0.1-0.7c0.2-0.2,0.5-0.5,0.7-0.8c1-1.8,1.7-3.6,1.7-5.6
		c0-1.1-0.1-2.3-0.2-3.5c-0.1-2.2-0.1-4.3-0.2-6.4c0-0.4,0-0.9-0.1-1.4c-0.3-2-0.6-4.1-0.7-6.1c-0.2-2.9-0.1-5.9-0.2-8.8
		c-0.1-0.7-0.2-1.5-0.4-2.3c-0.1-0.6-0.4-1-1-1.3c-0.6-0.3-1.3-0.6-1.2-1.6c0.1-0.3-0.2-0.5-0.3-0.8c-0.1-0.3-0.3-0.6-0.4-0.9
		c-0.2-1.1-0.3-2.3-0.5-3.4c0-0.2,0-0.3-0.1-0.5c-0.1-0.2-0.2-0.4-0.2-0.6c-0.2-1-0.3-2-0.5-3c-0.3-1.5-0.8-2.9-1.2-4.4
		c-0.2-0.9-0.4-1.9-0.7-2.8c-0.8-2.1-1.6-4.1-2.4-6.2c-1.1-3.1-2.6-6.1-5.2-8.4c-1.1-1-1.9-2.2-2.7-3.5c-0.3-0.6-0.4-1.3-0.8-1.8
		c-0.9-1.4-1.8-2.9-3-4.2c-1.6-1.7-2.9-3.6-4.7-5.2c-1.6-1.4-3.2-2.5-5-3.4c-1.6-0.8-3.3-1.5-5-2.2c-0.9-0.4-1.7-1-2.6-1.2
		c-1.6-0.5-3-1.3-4.4-2c-1.6-0.8-3.2-1.4-4.9-1.9c-1.5-0.5-3.2-0.6-4.7-1c-1.5-0.3-2.9-0.5-4.4-0.2c-0.2,0.1-0.4,0-0.6,0
		C51.2,0.1,50.6,0,50,0c-1.9-0.1-3.8,0.1-5.6,0.3c-1.2,0.2-2.5,0.1-3.7,0.3c-1.7,0.3-3.4,0.8-5.1,1.1C34,2,32.5,2.5,31.2,3.2
		c-1.8,0.8-3.6,1.5-5.4,2.3c-0.5,0.2-1,0.5-1.5,0.8c-1.1,0.7-2.1,1.4-3.2,2c-0.6,0.4-1.3,0.6-1.9,1c-1.4,0.9-2.7,1.8-4,2.7
		c-1,0.7-2,1.4-2.8,2.2c-1.2,1.3-2.4,2.6-3.3,4.2c-1.2,2.1-2.8,4-3.5,6.4c-0.1,0.4-0.3,0.7-0.4,1c-0.9,2-1.2,4.2-1.6,6.3
		c-0.3,1.4-0.4,2.9-0.8,4.3c-0.6,2.3-2,4.4-2.2,6.9c-0.1,1.1-0.5,2.2-0.5,3.3c-0.1,3-0.1,5.9,0.5,8.9c0.6,2.7,1.2,5.4,2.2,8
		c0.6,1.4,1,2.8,1.1,4.3C4,69.5,4,71.2,4.2,73c0,1.4,0,2.9,0.1,4.4c0,1.2,0.2,2.4,0.8,3.5c0.6,1,1.2,2.1,1.8,3.1
		C7,84.2,7,84.3,7,84.5c0.3,0.7,0.3,1.5,0.8,2c0.4,0.4,0.7,1,0.7,1.5c0.2,2.2,0.3,4.5,0.4,6.7C9,95.6,9,96.5,9.2,97.3
		c0.5,2.2,1.1,4.5,1.9,6.6c0.8,2.2,2,4.3,3,6.5c0.8,1.7,2,2.9,3.3,4.1c1.1,1,2.4,1.5,3.9,1.2c0.2,0,0.4,0.1,0.5,0.3
		c0.3,0.6,0.5,1.3,0.8,1.9c0.9,2,1.7,4,2.6,5.9c1.1,2.2,2.3,4.4,3.5,6.6c0.8,1.3,1.6,2.5,2.5,3.8c-0.1,0.1-0.2,0.2-0.3,0.4
		c-0.8,0.8-1.5,1.7-2.2,2.6c-1.1,1.4-2.3,2.9-3.3,4.4c-1.2,1.8-2.3,3.7-3.5,5.5c-1.4,2.1-3.1,3.9-4.9,5.7c-2.4,2.4-4.8,4.8-7.2,7.1
		c-1.1,1.1-2.3,2.1-3.5,3.2c-2,1.8-3,3.9-3.4,6.5c-0.4,2.4-0.5,4.8-0.5,7.3s0.2,5.1,0.5,7.6c0.3,2.4,0.4,4.7,0.5,7.1
		c0.1,1.1,0,2.2-0.1,3.3c-0.1,0.8-0.2,1.6-0.3,2.4c-0.1,0.9-0.2,1.7-0.3,2.6c1.1,0.2,1.1,0.2,1.2-0.8V199c0.1-1.5,0.5-3,0.5-4.5
		c0.1-2.6,0-5.2-0.1-7.8c0-0.5,0-0.9-0.1-1.3c-0.1-1.4-0.4-2.8-0.5-4.2c-0.1-1.7-0.1-3.3-0.1-4.9c0-0.8-0.1-1.7,0-2.5
		c0.1-1.3,0.3-2.5,0.4-3.8c0.2-2.2,1-4.1,2.3-6c1.5-1.4,3-2.9,4.5-4.3c0.8-0.8,1.7-1.6,2.5-2.4c2.4-2.5,4.9-5,7.3-7.6
		c0.9-0.9,1.5-1.9,2.2-2.9c1-1.4,1.7-3,2.8-4.4c1.9-2.5,3.7-5,5.7-7.4c0.4-0.4,0.6-0.4,1-0.1c0.6,0.5,1.2,1,1.8,1.5
		c1.1,1,2.2,2,3.3,3c0.1,0.1,0.2,0.3,0.2,0.5c-0.1,0.7-0.2,1.5-0.3,2.2c-0.1,1.2-0.4,2.3-0.5,3.5c-0.1,1.4-0.1,2.9-0.1,4.4v10.3
		c0.2,1.4,0.4,2.9,0.6,4.3c0.2,1.4,0.3,2.8,0.5,4.2c0.2,1.8,0.5,3.6,0.7,5.4c0.2,1.4,0.3,2.8,0.6,4.2c0.5,1.9,1,3.7,1.5,5.6
		c0.5,1.7,0.9,3.5,1,5.3c0,0.6,0,1.2,0.1,1.8c0.1,1.5,0.4,3.1,0.4,4.6c0,1,0.1,1.9,0.5,2.8c0.1,0.3,0.3,0.6,0.5,0.6
		c0.2,0,0.5-0.3,0.6-0.5c0.4-1.3,0.8-2.6,1.2-3.9c0.5-1.5,0.8-3,0.8-4.6c0-2.1,0.3-4.1,0.7-6.1c0.6-3.1,1.3-6.2,2.5-9.1
		c0.5-1.2,1.1-2.3,2-3.2c0.2-0.2,0.5-0.5,0.7-0.4c0.6,0.3,1.2,0.5,1.7,0.9c1.1,0.9,2.3,1.8,3.7,2.3c1.6,0.6,3.2,1.3,4.5,2.4
		c1.5,1.2,3.1,1.9,4.9,2.5c0.9,0.3,1.8,0.3,2.7,0.5c0.6,0.1,1.3,0.1,1.8,0.7c0.5,0.6,1.2,1.2,1.9,1.7c1.1,0.8,2,1.7,2.4,3.1
		c0.4,1.5,1,2.9,1.2,4.4c0.3,2.7,1.8,4.7,3.8,6.3l3,2.4c0.1,0,0.1,0.1,0.2,0.2c0.7,0.9,1.7,1.2,2.8,0.8c-1.1-0.8-2.1-1.7-3.2-2.6
		c-1-0.9-2.1-1.8-3.1-2.7c-0.9-0.8-1.6-1.8-1.9-3c-0.2-1.2-0.4-2.4-0.7-3.5c-0.3-1-0.8-1.9-1-2.9c-0.2-0.9-0.7-1.6-1.3-2.2
		c-0.8-0.7-1.7-1.5-2.6-2.2c0.6-0.3,1-1,0.8-1.7c0.6,0.6,1.2,1.2,1.8,1.9c1.4,1.5,2.7,3.1,4.1,4.7c0.2,0.2,0.4,0.5,0.6,0.7
		c0.2,0.1,0.5,0.2,0.6,0.1c0.1,0,0.2-0.3,0.2-0.5c-0.1-0.3-0.3-0.6-0.5-0.9c-1.1-1.3-2.2-2.6-3.4-3.8c-1.9-2-3.8-3.9-5.4-6.1
		c-1-1.5-2.1-2.9-3.3-4.3c-1.2-1.5-2.6-2.9-4-4.2c-2.1-1.9-4-4.2-5.7-6.5c-0.8-0.9-1.3-2-1.9-3.1c0.9,0.1,1.7,0.1,2.5,0.2
		c2.6,0.4,5.1-0.2,7.5-0.8c2.6-0.6,5.1-1.5,7.6-2.5c2.3-0.9,4.4-2.1,6.3-3.7c1.1-0.9,2.2-1.8,3.3-2.7c1.5-1.3,2.9-2.8,3.9-4.6
		c1-1.9,1.9-3.8,2.9-5.8c1.4-2.9,2.9-5.7,4.1-8.6c0.6-1.4,1.4-2.8,2.2-4.1c0.8-1.2,1.8-2.3,2.5-3.6c1.8-3.1,3.2-6.3,3.9-9.8
		c0.1-0.4,0.1-0.7-0.3-0.8c-0.5-0.1-0.7,0.2-0.8,0.6c-0.1,0.4-0.1,0.7-0.2,1.1c-0.8,2.6-1.7,5.1-3,7.4c-0.7,1.2-1.5,2.3-2.2,3.5
		c-0.8,1.3-1.8,2.6-2.5,4c-1.3,2.5-2.3,5.1-3.4,7.6c-0.6,1.5-1.4,2.8-2.1,4.2c-0.5,0.9-1,1.7-1.4,2.6c-0.8,1.9-2,3.4-3.4,4.8
		c-0.9,1-2,1.8-3,2.6c-2,1.6-3.9,3.3-6.3,4.2c-2.8,1.1-5.6,2.1-8.5,2.9c-1.8,0.5-3.7,0.7-5.7,0.7c-1.9,0-3.8-0.3-5.6-1
		c-0.1,0-0.2-0.1-0.3-0.2c-0.6-0.6-1.2-1.2-1.8-1.7c-0.7-0.7-1.5-1.3-2.3-1.9c-0.6-0.7-1.2-1.3-1.9-1.9c-0.1-0.1-0.2-0.2-0.3-0.2
		c-0.4-0.4-0.8-0.8-1.1-1.2c-0.4-0.5-0.7-1.2-1.2-1.7c-1.8-1.9-3.6-3.7-5.4-5.5c-1-1-2.1-1.8-3.1-2.7c-1.3-1.2-2.5-2.3-3.8-3.4
		c-0.8-0.7-1.7-1.4-2.3-2.2c-1.2-1.7-2.4-3.5-3.3-5.4c-1.5-2.9-2.8-5.9-4.1-8.9c-0.6-1.2-1-2.4-1.4-3.6c-0.3-1-0.3-2-0.6-3
		c-0.4-1.3-0.8-2.6-1.3-3.8c-0.7-1.6-1.5-3.2-2.2-4.8c-0.1-0.1-0.3-0.2-0.4-0.3c0,0-0.2-0.1-0.2-0.2c-0.4-1.1-1-2.1-1.7-3.1
		c-0.3-0.4-0.4-1-0.6-1.6c0.1-0.1,0.2-0.1,0.3-0.2c0.1,0.2,0.1,0.3,0.2,0.4c0.7,1.1,1.8,1.6,3,1.9c0.9,0.3,1.9,0.3,2.9,0.4
		c0.7,0,1.5,0,2.2-0.1c1-0.2,2-0.5,3.1-0.5c2.1-0.1,4.2-0.4,6.3-0.9c2.8-0.7,5.6-1.3,8.2-2.4c1.2-0.4,2.2-1,3.1-1.9
		c0.9-0.9,1.2-2.1,1.4-3.3c0.2-1.2,0.4-2.3,0.5-3.5c0.1-1.2,0.1-2.3,0-3.5c-0.1-0.7-0.1-0.9,0.6-1.1c1-0.2,2-0.4,2.9-0.8
		c1.1-0.4,2.2-0.3,3.3-0.3c0.1,0,0.3,0.1,0.4,0.2c0.9,1.1,1.8,2.2,2.6,3.3c0.7,1,1.4,2.1,2.2,3c1.2,1.5,2.8,2.4,4.6,2.6
		c2.5,0.2,5.1,0.1,7.6-0.5c3.4-0.9,6.7-1.9,10.1-2.8c2.2-0.7,4.4-1.5,6.3-2.9c1.1-0.8,1.8-1.8,2-3.1c0.3-1.7,0.3-3.4,0.4-5.1
		c0-0.5,0.2-0.9,0.5-1.2c0.5-0.4,0.9-0.8,1.4-1.2c0.4-0.4,0.9-0.7,1.2-1.1c1.1-1.4,2.2-2.8,3.4-4.3c0.1,0.2,0.1,0.3-0.1,0.5
		c0.4,0.7,0.4,1.6,1.4,1.9c0.1,0.1,0.2,0.3,0.2,0.4c0,1.5,0,3,0.1,4.5c0,1,0,2.1,0.2,3.1c0.6,3.2,1.1,6.4,1.8,9.5
		c0.6,2.6,1.3,5.3,2,7.9c0.5,2,1.4,3.8,2.8,5.3c0.2,0.1,0.4,0.3,0.5,0.5c1,1.7,1.2,3.5,1.3,5.4c0.1,1.8,0.1,3.7,0.1,5.5
		c0.1,1.7,0.1,3.3,0.1,4.9c0,1.5-0.1,3-0.3,4.5c-0.2,1.4-0.5,2.9-0.7,4.3c-0.3,1.4-0.5,2.9-0.7,4.3c-0.2,1.3-0.3,2.5-0.5,3.8
		c-0.1,1.2-0.3,2.5-0.5,3.8c-0.3,1.5-0.6,3.1-0.9,4.7c-0.2,1-0.3,1.9-0.5,2.8c-0.2,0.9-0.3,1.9-0.5,2.9c-0.3,1.2-0.6,2.4-1,3.6
		c-0.3,0.8-0.5,1.5-0.5,2.4c0.1,2.3,0.1,4.7,0.1,7c0,1.5-0.3,2.9-1,4.2c-1.1,2.2-2.1,4.4-2.2,6.9c-0.1,1.8,0.2,3.5,1.3,4.9
		c1,1.2,2.2,2.2,3.4,3.2c0.8,0.7,1.7,1.4,2.5,2.2c0.6,0.6,1.2,1.3,1.3,2.3c0,0.7,0,1.4,0.1,2c0.3,1.3,0.1,2.6-0.2,3.8
		c-0.6,2.2-1.4,4.4-2.1,6.6c-0.2,0.4-0.4,0.9-0.6,1.4c1.2,0.2,1.2,0.2,1.6-0.9c0.4-1.2,0.7-2.5,1.2-3.7c0.8-2.1,1.4-4.2,1.3-6.5
		c0,0,0-0.1,0-0.2c0.3-1.2,0.6-2.4,1-3.5c0.4-1.3,1.1-2.6,1.6-3.9c0.9-2.3,1.8-4.6,2.5-7c0.8-2.4,1.4-5,2.1-7.5
		c0.2-0.9,0.7-1.8,0.4-2.8c1,0.2,2,0.3,2.9,0.5c1.4,0.3,2.7,0.7,4.1,1c1.5,0.4,3,0.8,4.4,1.6c1.3,0.7,2.6,1.4,3.3,2.8
		c0.1,0.2,0.4,0.5,0.7,0.7c0.6,0.4,1.2,0.9,1.9,1.3c0.2,0.1,0.4,0.2,0.6,0.3c0.6,0.2,1.3-0.2,1.4-0.8c0.1-0.6,0.1-1.1,0.1-1.7
		c-0.1-0.9-0.2-1.8-0.3-2.7c-0.2-1.4-0.3-2.7-0.4-4c-0.2-1.3-0.5-2.7-0.5-4c-0.1-5.5,0-11.1-0.4-16.6c-0.2-2.7-0.4-5.3-0.5-8
		c-0.2-3.5-1-6.9-2-10.2c-0.8-2.6-1.7-5.1-2.6-7.6c-0.8-2.3-1.9-4.4-3.8-6.1c-0.7-0.6-1.3-1.3-2-1.9c-1.4-1.3-2.8-2.5-4.2-3.8
		c0.7-0.1,1.3,0,2,0.1c1.7,0.2,3.5,0.5,5.2,0.6c1.2,0.1,2.3,0.4,3.4,0.9c2.8,1.3,5.6,2.6,8.4,3.9c0,0,0.1,0,0.2,0
		C136.5,109.6,136.9,109,136.1,108.7z M103,62.7c0.6-1,1.4-1.9,2.1-2.9c0.3-0.4,0.6-0.3,0.9-0.2c1,0.4,1.7,1,1.7,2.2
		c0,1.7,0.1,3.5,0.2,5.2c0,0,0,0-0.1,0.2c-0.4-0.9-0.7-1.7-1-2.4c-0.3-0.8-0.8-1.4-1.7-1.5c-1-0.1-1.7,0.4-2.1,1.3
		c-0.3,0.6-0.6,1.2-1.3,1.6c-0.1,0-0.1-0.1-0.2-0.1C102,64.9,102.4,63.8,103,62.7z M9,86.3c-0.4-0.3-0.8-0.6-0.7-1.1v-1.9
		c0-0.2,0.2-0.5,0.3-0.7c0.3,0.1,0.5,0.1,0.7,0.3c1,1,2,1.9,3,2.9c0.2,0.2,0.5,0.4,0.7,0.6c0.4,0.4,0.2,0.9,0.2,1.4
		s-0.1,0.9-0.2,1.4c-0.1,0.2-0.2,0.5-0.4,0.5c-0.2,0-0.4-0.2-0.6-0.4C11,88.3,10.1,87.2,9,86.3z M21,112.7c0.1,0.5,0.2,1,0.3,1.4
		c0.2,0.4,0,0.5-0.3,0.5c-0.9,0.1-1.8-0.1-2.5-0.8c-1.1-1.1-2.4-2.1-3.1-3.5c-2-4-4-8-4.9-12.4c-0.2-1-0.3-2.1-0.4-3.2
		c-0.1-1.3-0.1-2.5-0.2-3.8v-2c0.8,0.7,1.6,1.2,1.9,2.1c0.6,1.8,1.3,3.6,1.9,5.4c0.2,0.7,0.5,1.3,0.7,1.9c0.1,0.2,0.3,0.5-0.2,0.6
		c-0.1,0-0.3,0.3-0.3,0.5c-0.2,1.3-0.2,2.6-0.4,3.9c-0.2,1.5,0.6,2.5,1.7,3.2c0.7,0.5,1.5,0.7,2.2,1c0.4,0.1,0.7,0.4,1,0.5
		c0.4,0.2,0.7,0.3,1.2,0.4C20.3,109.6,20.7,111.1,21,112.7z M16.8,103.6c0.1,0.1,0.1,0.3,0.2,0.3c1,0.5,1.2,1.5,1.7,2.3
		c0.2,0.2,0.3,0.4,0.4,0.7c-1.6-0.5-3.3-0.8-4.2-2.4c-0.2-0.2-0.2-0.5-0.2-0.8c0.1-1.2,0.3-2.3,0.5-3.6
		C16.1,101.2,16.5,102.3,16.8,103.6z M44.6,91.8c-0.3,1.3-1.4,2.1-2.6,2.7c-3.1,1.6-6.4,2.2-9.6,2.9c-1.8,0.4-3.7,0.4-5.6,0.6
		c-0.5,0-1.1,0.1-1.6,0.2c-0.8,0.1-1.6,0.2-2.5,0.3c-1.1-0.1-2.3-0.2-3.4-0.4c-1.3-0.3-2.1-1.3-2.7-2.3c-0.8-1.4-1.4-2.9-1.9-4.4
		c-0.3-0.6-0.1-1.4-0.1-2.1c0-0.1,0.1-0.3,0.1-0.4c-0.1-0.9,0.5-1.4,1.2-1.7c1.6-0.6,3.2-1.1,4.9-1.5c1.3-0.4,2.7-0.6,4.1-0.9
		c1.6-0.4,3.2-0.9,4.8-1.2c0.9-0.2,1.7-0.2,2.6-0.2c1.5-0.1,2.9-0.2,4.4-0.2c1.4,0,2.9,0,4.3,0.1c0.7,0.1,1.4,0.1,2.1,0.3
		c1.5,0.3,1.8,0.5,2,1.9C45.4,87.6,45.2,89.8,44.6,91.8z M87.8,81.4c-0.1,1-0.8,1.6-1.6,2.2c-1.9,1.4-4,2.1-6.2,2.7
		c-3.3,1-6.6,1.9-9.9,2.7c-2.1,0.6-4.3,0.6-6.4,0.4c-1.1-0.1-2.2-0.7-3.1-1.5c-0.9-0.9-1.7-1.9-2.4-3c-0.5-0.8-1.2-1.4-1.8-2.2
		c-0.3-0.4-0.6-0.8-0.8-1.2c-0.2-0.4-0.2-0.8,0.2-1.1c1-0.6,2-1.4,3.1-1.9c1.7-0.8,3.6-1.4,5.4-2.1c0.1,0,0.1,0.1,0.2,0.1
		c-1.1,1.3-2.2,2.7-3.2,3.9c-0.2,0.2-0.3,0.6-0.2,0.8c0,0.2,0.4,0.4,0.6,0.4c1.9,0.2,3.6-0.4,5.3-1.1c0.9-0.4,1.8-0.7,2.8-1
		c0.7-0.2,1.4-0.3,2.1-0.4c1.9-0.1,3.7-0.6,5.5-1.1c1.2-0.3,2.2-0.6,3-1.5c0.4-0.4,0.3-0.7-0.2-0.9c-1.6-0.5-3.1-0.9-4.6-1.2
		c-1-0.2-2.2-0.1-3.2-0.8c0.7-0.2,1.4-0.4,2-0.5c1.4-0.3,2.8-0.7,4.2-1c1.7-0.3,3.3-0.5,5-0.7c0.9-0.1,1.9,0,2.8,0
		c0.1,0,0.3,0.1,0.4,0.2c0.3,0.5,0.6,0.9,0.8,1.4c0.4,0.8,0.8,1.7,0.7,2.7C88.1,77.6,88,79.5,87.8,81.4z M68.8,78.8
		c-2.2,0.8-4.1,1.7-6.3,2c0.2-1.4,3.5-4.5,5.2-4.9C67.7,77,67.6,78,68.8,78.8z M73.5,77.6c0.4-0.6,0.4-1.2,0.4-1.9
		c0-0.6,0-0.7,0.7-0.6c1.4,0.2,2.7,0.4,4.1,0.7c0.2,0,0.4,0.2,0.7,0.4c-1.8,1.2-3.7,1.4-5.5,1.9c-0.1,0-0.3,0-0.4-0.1
		C73.4,77.9,73.4,77.7,73.5,77.6z M87.9,68.9c-0.3,0.3-0.9,0.4-1.3,0.4c-1.4,0.1-2.9,0.1-4.3,0.2c-1.2,0.1-2.3,0.3-3.5,0.6
		c-2.7,0.6-5.4,1.2-8.1,1.9c-2.7,0.6-5.3,1.9-8,2.9c-1,0.3-2,0.6-3.1,0.9c0.7-1.3,1.7-2.3,2.9-2.9c2-1.1,4.1-2,6.3-2.6
		c1.1-0.3,2.2-0.7,3.3-1c0.3,0,0.6-0.1,0.9-0.1c0.7,0,1.2-0.5,0.9-1c-0.2-0.4-0.9-0.9-1.2-0.8c-3.5,1-6.9,2.1-10.2,3.7
		c-1.6,0.8-2.8,2-3.9,3.3c-0.4,0.5-0.8,1.1-1.2,1.7c0,0.1-0.1,0.2-0.1,0.3c0,0.9-0.7,1.1-1.3,1.4c-2.2,1.3-4.5,1.9-6.9,2.4
		c-2.6,0.6-5.3,0.7-8,0.6c-0.6,0-1.1,0-1.6-0.5c-0.3-0.3-1-0.4-1.5-0.6c-0.2-0.1-0.6-0.1-0.8-0.3c-0.6-0.5-1.4-0.2-2.1-0.4
		c-1.4-0.4-2.9-0.5-4.3-0.4c-2.1,0.2-4.2,0-6.2,0.7c-1.5,0.5-3,0.9-4.4,1.8c-0.4,0.3-0.3,0.7-0.2,0.9c0.2,0.3,0.7,0.4,1,0.5
		c0.1,0.1,0.2,0,0.3-0.1c1.3-0.9,2.9-1,4.5-1.3c1.3-0.3,2.7-0.5,4.1-0.6c1.6-0.2,3.1,0,4.7,0.8c-0.9,0.1-1.7,0.3-2.5,0.3
		c-2.5,0.1-4.9,0.6-7.3,1.1c-2.4,0.6-4.9,1.1-7.3,1.6c-0.7,0.2-1.4,0.3-2.1,0.5c-0.3,0.1-0.6,0.3-0.9,0.4c-1.5-0.9-2.8-2.3-3.9-3.7
		c-0.1-0.1-0.2-0.3-0.2-0.5c0-1.2-0.1-2.4,0-3.6c0.1-1,0.3-2,0.6-2.9c0.3-1,0.6-1.9,1-2.9c0.6-1.6,1.3-3.2,1.5-5
		c0.1-0.8,0.3-1.6,0.3-2.4c0.1-2.1,0.1-4.2-0.3-6.3c-0.2-1-0.5-2-0.6-3c-0.2-1.5-0.3-3-0.3-4.5s0.1-3,0.2-4.5
		c0.1-1.7,0.2-3.4,0.2-5.1c0-0.8,0.5-1.2,1-1.7c0.4-0.4,0.9-0.7,1.3-1.1c0.6-0.6,1.3-0.8,2.1-0.9c1.6-0.1,3.2-0.3,4.8-0.3
		c3.9-0.1,7.8-0.1,11.7-0.2c3-0.1,6-0.6,8.7-1.9c2.3-1.1,4.5-2.4,6.7-3.5c1.9-0.9,3.8-2.1,5.9-2.6c2.1-0.5,4.2-0.6,6.4-0.5
		c0.4,0,0.8,0.2,1.2,0.4c1,0.5,1.9,1.1,2.8,1.6c1.8,0.9,3.2,2.4,4.7,3.7c2,1.8,4.2,3.3,6.6,4.4c1.9,0.9,3.8,1.8,5.5,3.1
		c0.8,0.6,1.4,1.5,1.7,2.5c0.6,1.8,1.1,3.7,1.9,5.4c0.9,2,1.3,4.2,1.9,6.4c0.6,2.4,1.7,4.6,3.4,6.4c0.4,0.5,1,0.9,1.5,1.4
		c0.1,0.1,0.2,0.3,0.3,0.4c-0.9,0.9-1.6,1.7-2.4,2.1C89.8,66.9,88.9,68,87.9,68.9z M97.6,65.7c-1.7,1.7-3.3,3.5-4.7,5.5
		c-0.6,0.8-1.3,1.4-1.9,2.1c-0.2,0.2-0.6,0.3-0.7-0.1c-0.4-1.2-0.7-2.4-1-3.6c0.2-0.2,0.2-0.4,0.4-0.6c1.3-1.3,2.5-2.5,3.7-3.8
		c1.2-1.3,2.3-2.5,3.5-3.8c0.6-0.5,1-0.5,1.4,0.2c0.3,0.6,0.6,1.1,0.9,1.6c0.1,0.2,0.1,0.6,0,0.7C98.7,64.5,98.2,65.1,97.6,65.7z
		 M102.3,94c-0.3-1.3-0.6-2.6-0.9-3.9c-0.5-2-0.8-3.9-1.2-5.9c-0.3-1.8-0.7-3.5-1-5.3c0-0.4-0.1-0.7-0.1-1.1c-0.1-2-0.2-4.1-0.2-6.1
		c0-0.3,0.2-0.6,0.4-0.9c0.4-0.6,0.9-1.2,1.2-1.8c0.4-0.7,1-1.2,1.6-1.7c0.8-0.6,1.4-1.3,1.8-2.2c0.1-0.4,0.4-0.8,0.9-0.8
		s0.7,0.5,0.9,0.9c0.5,1,1,2.1,1.5,3.2c0.2,0.3,0.5,0.5,0.7,0.8c0,0.1,0.1,0.2,0.1,0.3s0,0.1,0,0.1c0.1,2.1,0.1,4.2,0.2,6.1
		c-0.7-0.7-1.4-1.6-2.5-2.2c-0.7-0.6-1.5-1.3-2.5-1.2c-0.3,0-0.6,0.2-0.8,0.4c-0.1,0.1,0,0.4,0.1,0.6c0.2,0.3,0.5,0.4,0.9,0.2
		c0.1-0.1,0.3,0,0.4,0c1,0.4,2.9,2.2,3.4,3.2c-0.2,0.3-0.5,0.6-0.7,1c0,0.2-0.1,0.5,0,0.6c0.3,0.4,0,0.7-0.3,1
		c-0.6,0.7-1.3,1.3-1.7,2.1c-0.4,0.8-0.5,1.8-0.7,2.7c-0.1,0.3-0.1,0.6-0.2,0.9c-0.1-1.1-0.1-2.1-0.2-3.2c0-0.5-0.1-1.1-0.3-1.7
		c-0.2-0.8-1.5-0.7-2-0.1c-0.1,0.2-0.1,0.5,0,0.7c0.1,0.2,0.3,0.3,0.5,0.3c0.2,0,0.4-0.1,0.7-0.2c0,1.5,0.1,2.9,0.2,4.4
		c0,0.7,0.5,1.2,1.2,1.3c0.4,0,0.8-0.3,1-1c0.1-0.4,0-0.9,0.1-1.3c0.1-1,0.3-2.1,1-2.9c0.4-0.5,0.9-1,1.3-1.5c0.4-0.5,0.7-1.1,1-1.6
		c0.1-0.2,0.2-0.3,0.3-0.5c0.1,0.1,0.1,0.1,0.2,0.1c0.1,0.7,0.2,1.4,0.2,2.1c0.1,2.3,0.1,4.5,0.2,6.8c0.1,1.3,0.2,2.5,0.1,3.8
		c-0.1,0.9-0.5,1.7-0.8,2.6c-0.4,1.5-1.6,2.4-2.9,3.1c-0.7,0.4-1.4,0.7-2.2,1.1C102.9,96.1,102.6,95.1,102.3,94z M113.6,165.2
		c0,1.5-0.6,2.9-1,4.3c-0.5,2-1,4.1-1.7,6.1c-1.1,3-2.3,5.9-3.5,8.8c-0.1,0.3-0.3,0.8-0.4,1.2c-0.6-1.6-1.7-2.8-2.9-3.8
		c-1.1-0.9-2.1-1.8-3.2-2.6c-1.4-1.1-2.1-2.6-2.3-4.3c-0.2-1.3-0.1-2.6,0.4-3.9c0.7-1.6,1.4-3,2-4.6c0.4-1,0.5-2.1,0.7-3.1
		c0.2-0.8,0.1-0.9,0.9-0.9c1.1,0,2.2,0,3.3,0.1c0.8,0,1.6,0.1,2.4,0.2c1.4,0.2,2.9,0.4,4.3,0.6c0.5,0.1,1,0.1,1.4,0.2
		C113.9,164.1,113.7,164.5,113.6,165.2z"/>
	<path class="st0" d="M58.2,132.4c-2.1-0.1-4.3-0.2-6.4-0.5c-1.9-0.2-3.7-1.1-5.1-2.3c-2-1.6-3.8-3.3-5.7-5.1
		c-1.1-1-2.2-2.2-3.3-3.3c-0.1-0.1-0.3-0.3-0.5-0.4c-0.3-0.2-0.6-0.5-0.9-0.8c0,0,0.1-0.4,0.3-0.4c0.7-0.2,1.4-0.3,2.2-0.4
		c1.2-0.2,2.4-0.4,3.7-0.5c1.1-0.1,2.2-0.2,3.3-0.4c1.5-0.2,2.9-0.4,4.3-0.7c1-0.2,2-0.3,3-0.5c0.7-0.1,1.3-0.2,2-0.2
		c1.5,0,3,0,4.5,0c0.3,0,0.5-0.1,0.8-0.2c2.2-0.9,4.3-1.9,6.6-2.6c3.5-1.1,7-2,10.5-2.9c1.1-0.3,2.3-0.3,3.5-0.6
		c0.7-0.1,1.4-0.4,2.1-0.6c0.1,0,0.3-0.1,0.4-0.1c0.2,0,0.3,0.2,0.5,0.2c-0.1,0.2-0.2,0.5-0.3,0.5c-0.8,0.3-1.2,0.9-1.5,1.6
		c-0.9,1.8-1.9,3.7-2.9,5.5c-0.4,0.8-1,1.4-1.6,2.2c-0.6,0.8-1.2,1.6-1.9,2.4c-0.3,0.3-0.6,0.6-0.9,0.9c-1.5,1.5-3,3-4.6,4.5
		c-0.7,0.7-1.7,1.1-2.6,1.5c-1.7,0.9-3.5,1.6-5.3,2.4C60.9,132.5,59.5,132.3,58.2,132.4z M78,113.9c0-0.1-0.1-0.1-0.1-0.2
		c-0.4,0.1-0.8,0.2-1.1,0.4c-1.8,0.9-3.6,1.8-5.4,2.7c-1.9,0.9-3.8,1.5-5.8,1.8c-1.8,0.3-3.5,0.7-5.3,1c-1.7,0.3-3.5,0.6-5.2,0.8
		c-0.7,0.1-1.5,0.2-2.2,0.3c-1.4,0.2-2.8,0.6-4.2,0.7c-1.3,0.1-2.6,0.1-3.9,0.1c-0.2,0-0.5,0.2-0.6,0.3c-0.1,0.2,0,0.5,0.2,0.7
		c0.3,0.3,0.6,0.5,1,0.6c1.6,0.7,3.2,1.3,4.7,2.2c1.5,0.8,3.2,1.2,4.8,1.4c1.7,0.2,3.5,0.2,5.2,0.2c0.2,0,0.4,0,0.6-0.1
		c1.3-0.4,2.6-0.7,3.9-1.2c2-0.8,4-1.6,5.6-3.1s3.2-3.1,4.8-4.7c1-1,1.9-2.1,2.8-3.2C77.8,114.5,77.9,114.2,78,113.9z M38.2,120.8
		c0,0.1-0.1,0.1-0.1,0.2c0.9,0.9,1.7,1.8,2.6,2.7c2,1.8,4,3.7,6.1,5.4c1.2,0.9,2.6,1.6,4,2.1c1.2,0.4,2.6,0.4,3.9,0.5
		c1.8,0.1,3.5,0.1,5.3,0.1c0.4,0,0.9-0.1,1.3-0.2c1.2-0.5,2.4-1,3.5-1.5c2.6-1.1,5.1-2.4,7-4.4c1.2-1.3,2.5-2.5,3.7-3.9
		c1-1.1,1.9-2.2,2.7-3.4c0.8-1.2,1.5-2.6,2.2-3.9c0.3-0.5,0.5-1.1,0.7-1.6c0-0.1-0.1-0.1-0.1-0.2c-0.5,0.3-1,0.6-1.5,0.9
		c-0.2,0.1-0.3,0.4-0.5,0.6c-0.5,0.5-1,1-1.5,1.5c-1.3,1.4-2.6,2.8-3.8,4.2c-0.1,0.1-0.3,0.3-0.4,0.4c-1,1-2,2-3,3
		c-1.6,1.4-3.5,2.2-5.3,3c-2.3,1-4.7,1.7-7.3,1.5c-0.6-0.1-1.2-0.1-1.9-0.1c-1-0.1-2-0.3-3-0.4c-1.2-0.1-2.2-1.1-3.5-1.1
		c0,0-0.1,0-0.1-0.1c-0.8-0.4-1.7-0.9-2.5-1.3c-1.3-0.7-2.7-1.3-4-2c-0.5-0.3-0.9-0.8-1.6-0.8c-0.1,0-0.2-0.1-0.3-0.2
		c-0.2-0.1-0.4-0.3-0.7-0.4c-0.5-0.2-0.9-0.3-1.4-0.4C38.6,120.9,38.4,120.9,38.2,120.8z M38.5,120c1.2,0.9,2.6,1,4,0.9
		s2.8-0.1,4.2-0.1c1.4-0.1,2.8-0.1,4.1-0.2c1.1-0.1,2.1-0.4,3.2-0.6c1.4-0.2,2.7-0.3,4.1-0.5c2.3-0.4,4.5-1,6.8-1.4
		c2.8-0.4,5.5-1.4,8-2.7c1.5-0.7,2.9-1.5,4.4-2.2c1.1-0.5,2.3-0.9,3.5-1.4c0.3-0.1,0.5-0.1,1-0.2c0,0,0.1-0.2,0.3-0.5
		c-0.6,0.1-1.1,0.3-1.6,0.3c-1,0.2-2,0.2-3,0.5c-2.9,0.7-5.8,1.6-8.7,2.4c-2.8,0.8-5.5,1.8-8.2,3.1c-0.4,0.2-0.9,0.3-1.3,0.3
		c-1.6,0-3.3,0-4.9,0c-0.9,0-1.7,0.2-2.6,0.3c-1.3,0.2-2.5,0.4-3.7,0.6c-1,0.1-1.9,0.3-2.9,0.4c-1.1,0.1-2.3,0.3-3.4,0.4
		C40.6,119.7,39.6,119.8,38.5,120z"/>
	<path class="st0" d="M65.8,97c0.8-0.2,1.5,0.2,2.1,0.7c0.8,0.7,1.6,1.6,1.9,2.7c0.3,1.3,0.3,2.7-0.8,3.6c-0.7,0.5-1.6,0.8-2.5,1.1
		c-0.9,0.3-1.7,0.7-2.4,1.3c-1.1,0.9-1.7,2.2-2.6,3.2c-1.3,1.4-2.7,2.5-4.8,2.5c-1.8,0-3.3-0.6-4.9-1.5c-1.5-0.9-3.2-1.2-5-1.1
		c-1.4,0.1-2.7-0.1-3.7-1.3c-0.8-1-0.6-2.1-0.4-3.2c0.1-0.3,0.3-0.6,0.4-0.9c0.2-0.6,0.3-1.3,0.5-1.9c0-0.2,0.2-0.3,0.3-0.4
		c0.1,0.1,0.4,0.3,0.4,0.4c-0.1,0.7-0.2,1.4-0.4,2c-0.3,0.9-0.8,1.7-0.6,2.6c0.1,0.4,0.3,0.8,0.6,1.1c0.7,0.7,1.6,1,2.6,0.8
		c2.7-0.4,4.9,0.7,7.2,1.9c2.4,1.3,4.7,1.2,6.6-0.8c0.8-0.9,1.5-1.9,2.3-2.9c1.1-1.4,2.5-2.3,4.2-2.7c0.2-0.1,0.5-0.1,0.7-0.2
		c0.6-0.3,1.3-0.4,1.6-1.2c0.3-1,0.5-2.1-0.2-3c-0.5-0.7-1.1-1.3-1.8-1.9c-0.2-0.2-0.5-0.2-0.8-0.3C65.9,97.6,65.6,97.5,65.8,97z"/>
	<path class="st0" d="M24.5,88.9c0.1-0.2,0.2-0.5,0.4-0.7c1.1-0.8,2.3-1.5,3.5-2.3s2.5-1,3.9-1.4c1.7-0.5,3.5-0.6,5.2-0.4
		c1.1,0.1,2.1,0.5,3.2,0.9c0.6,0.2,1.2,0.6,1.8,1c0.3,0.2,0.3,0.3,0,0.7c-1,1.1-2.4,1.5-3.7,2.1c-1.1,0.5-2.3,0.8-3.6,1.1
		c-1,0.2-2,0.1-3,0.1c-0.9,0-1.8-0.1-2.7-0.2c-1.3-0.2-2.5-0.4-3.8-0.7c-0.3-0.1-0.7,0-1.1,0C24.6,89,24.5,88.9,24.5,88.9z
		 M37.1,88.6c1.6-0.5,3-1.2,4.3-2.3C41.2,86.2,41.1,86,41,86c-1.2-0.4-2.3-0.8-3.5-1.2c-0.2-0.1-0.5,0-0.9,0
		C37.3,86.1,37.6,87.2,37.1,88.6z M31,89.1c-0.8-1-1.1-1.9-1-3.1c0,0,0,0-0.1,0c-1.1,0.7-2.3,1.5-3.4,2.2c0,0.1,0,0.2,0.1,0.2
		C28,88.7,29.4,88.9,31,89.1z"/>
</g>
</svg>
