<?xml version="1.0" encoding="utf-8"?>
<!-- Generator: Adobe Illustrator 19.2.1, SVG Export Plug-In . SVG Version: 6.00 Build 0)  -->
<svg version="1.1" id="Layer_1" xmlns="http://www.w3.org/2000/svg" xmlns:xlink="http://www.w3.org/1999/xlink" x="0px" y="0px"
	 viewBox="0 0 162.2 200" style="enable-background:new 0 0 162.2 200;" xml:space="preserve">
<style type="text/css">
	.st0{fill:#009688;}
</style>
<g id="pharm-kerry-teal_1_">
	<path class="st0" d="M162,194.5c-0.2-0.2-0.3-0.5-0.5-0.7c-1.1-1.6-2.2-3.1-3.2-4.8c-1.4-2.3-2.6-4.7-4-7c-0.8-1.4-1.7-2.9-2.6-4.3
		c-1.1-1.8-2.3-3.6-3.5-5.3c-1-1.4-2-2.8-3-4.2c0.1-0.1,0.1-0.2,0.2-0.2c5.1,2.8,10.7,4.2,16.4,5.3c0-0.5,0-1,0-1.6
		c-1.8-0.4-3.7-0.7-5.5-1.1c-1.7-0.4-3.3-0.9-4.9-1.6c-2.2-0.9-4.5-1.8-6.6-3c-1.9-1.1-3.6-2.4-5.6-3.3c-0.2-0.1-0.4-0.3-0.5-0.5
		c-0.5-0.5-0.9-0.9-1.4-1.4c-0.5-0.5-1.2-0.8-1.7-1.3c-3-3.1-6.3-5.8-9.8-8.3c-1-0.7-1.9-1.6-2.8-2.4c-0.1-0.1-0.2-0.1-0.4-0.2
		c-0.3-0.2-0.7-0.3-1-0.6c-1.1-1.2-2.2-2.4-3.3-3.5c-0.4-0.5-0.7-0.9-0.6-1.6c0.1-4.8-0.3-9.5,0.3-14.3c0.1-1.2,0.2-2.3,0.7-3.5
		c0.4-1,0.5-2,0.6-3.1c0.1-1.3,0-2.5,0.1-3.7c0.2-0.1,0.3-0.1,0.3-0.1c0.4,0,0.8,0,1.2,0c2.2-0.1,4.2-0.9,5.7-2.4
		c1.2-1.2,1.8-2.9,2.4-4.4c1.1-2.6,2-5.3,2.8-7.9c0.7-2.4,1.6-4.9,1.8-7.4c0.3-2.8,0.3-5.6-0.2-8.3c-0.3-1.5-0.7-2.9-2.1-3.9
		c-0.9-0.6-1.7-1.4-3-1.4c0.3-0.5,0.5-1.1,0.8-1.4c1-1,1.5-2.4,2-3.7c0.5-1.4,0.9-2.9,1.3-4.3c0.6-2.5,1.4-4.9,1.6-7.4
		c0.1-2.3,0.4-4.6,0.5-7c0.1-1.4-0.1-2.8-0.1-4.2c0-1.4-0.2-2.8-0.6-4.1c-0.4-1.2-0.6-2.5-0.6-3.7c0-0.7-0.1-1.5-0.2-2.2
		c-0.1-1-0.4-2.1-0.4-3.1c-0.1-1.3-0.1-2.7-0.2-4c-0.1-1.5-0.3-3-1-4.4c-0.8-1.4-1.5-2.9-2.3-4.3c-0.6-1.1-1.4-2.2-2.1-3.2
		c-1.1-1.6-2.2-3.1-3.1-4.8c-1.1-2.1-2.8-3.8-4.5-5.4c-0.8-0.8-1.7-1.4-2.7-2.1c-1.7-1.1-3.3-2.3-5.1-3.2c-2.5-1.3-5.1-2.2-7.6-3.4
		c-3.4-1.5-6.8-3-10.1-4.6c-1.3-0.6-2.6-1.1-4.1-0.7c-0.4,0.1-1,0.3-1.3,0.1c-0.9-0.5-1.9-0.5-2.9-0.7C83.5,0,81.4,0.2,79.2,0
		c-1.3-0.1-2.6,0-3.9,0.1c-1.3,0.1-2.6,0.3-3.8,0.7c-2.2,0.6-4.3,1.3-6.5,1.7c-1.9,0.3-4,0.2-5.8,1.1c-1.2,0.5-2.4,0.8-3.6,1.2
		c-0.4,0.1-0.7,0.3-1.1,0.4c-1.6,0.6-3.3,1.1-4.9,1.7c-2.3,1-4.6,2.1-6.8,3.3c-1.1,0.5-2.2,1.1-3.2,1.8c-1.2,0.8-2.1,1.9-2.6,3.4
		c-0.4,1.3-1.2,2.5-1.7,3.7c-0.7,1.6-1.2,3.2-1.6,4.9c-0.5,2.6-1.8,4.8-3.1,7c-0.5,0.8-1.1,1.6-1.6,2.5c-0.2,0.3-0.3,0.7-0.5,1.1
		c-0.6,1.5-1.8,2.7-2.2,4.3c-0.4,1.8-0.8,3.6-0.9,5.5c-0.1,2.5-0.4,5-0.4,7.6c-0.1,3.5,0,6.9,0,10.4c0,0.2,0,0.4,0,0.6
		c0.3,1.5,0.6,3,1,4.6c0.1,0.5,0.2,1,0.3,1.4c0.3,1.7,0.5,3.4,0.8,5c0.3,1.6,0.8,3.1,1.2,4.7c0.1,0.3,0,0.5,0.1,0.8
		c-1.4-0.1-2,0.7-2.5,1.7c-1.4,2.5-1.8,5.2-2,8c-0.2,2.6,0,5.3,0,7.9c0,1.1,0.2,2.2,0.5,3.2c0.6,1.9,1.1,3.8,1.8,5.6
		c0.5,1.5,1,2.9,1.6,4.3c0.6,1.4,1.6,2.6,3,3.2c0.6,0.3,0.8,0.7,0.7,1.3c-0.1,1.3,0.2,2.6,0.6,3.9c0.7,2.1,1.3,4.2,1.9,6.2
		c0.8,2.6,1.6,5.1,2.5,7.6c0.9,2.5,1.9,5,3,7.4c0.6,1.4,1.3,2.7,1.9,4c0.1,0.1,0.1,0.3,0.1,0.5c0.1,1.6,0,3.1,0.2,4.7
		c0.1,1.3,0.4,2.6,0.6,3.9c0.1,1,0.3,2,0.4,3c0.1,0.8,0.2,1.7,0.1,2.5c-0.1,0.6-0.7,1-1.1,1.5c-1.6,2.2-3.1,4.6-5.1,6.5
		c-0.3,0.3-0.6,0.6-0.9,0.9c-1.5,1.5-2.9,3-4.4,4.4c-0.5,0.4-1,0.8-1.6,1.1c-2.8,1.2-5.6,2.2-8.4,3.4c-2.5,1-5.1,2.1-7.6,3.2
		c-1.1,0.5-2.2,1.2-3.3,1.7c-1,0.5-2.2,0.8-3.2,1.3c-1.9,1-3.8,2.1-5.7,3.1c-0.4,0.2-0.9,0.4-1.3,0.6c0.1,0.5,0.1,1.1,0.2,1.6
		c2.3-1.1,4.6-2.3,6.9-3.6c1.8-1,3.7-2.1,5.7-2.8c1.6-0.6,3.2-1.4,4.8-2.1c0.7-0.3,1.5-0.7,2.2-0.9c1.6-0.6,3.2-1.1,4.8-1.7
		c0.6-0.2,1.2-0.4,1.9-0.7c-0.8,1.6-1.6,3.1-2.1,4.6c-0.9,2.2-1.9,4.2-3.1,6.2c-0.9,1.5-1.8,2.9-2.6,4.4c-1.4,2.6-2.7,5.1-4.8,7.2
		c-0.4,0.4-0.8,1-1.2,1.5c0.4,0,0.5,0,0.7,0c0.4,0,1,0.1,1.3-0.2c1.3-1.2,2.4-2.5,3.3-4c1.5-2.6,2.9-5.2,4.4-7.8
		c1-1.7,1.9-3.5,2.8-5.3c0.7-1.3,1.2-2.8,1.8-4.1c0.7-1.4,1.2-2.9,2.8-3.6c0.3-0.1,0.4-0.7,0.7-1c1.1-1.1,2.4-2.1,3.5-3.2
		c1-1,2-2.2,3-3.2c0.9-0.9,1.8-1.6,2.5-2.3c-0.2,1.6-0.5,3.5-0.8,5.4c-0.3,1.6-0.6,3.1-0.8,4.7c-0.2,1.3-0.3,2.7-0.3,4
		c0,2.9,0,5.9,0.1,8.8c0.1,1.8,0.4,3.6,0.6,5.4c0.2,1.9,0.4,3.7,0.6,5.6c0,0.2,0.2,0.5,0.3,0.5c0.5,0.1,1,0,1.5,0
		c-0.2-1.6-0.5-3.1-0.7-4.6c-0.2-1.5-0.4-2.9-0.6-4.4c-0.2-1.4-0.5-2.8-0.5-4.2c-0.1-2.5,0-5.1,0.1-7.6c0.1-2.1,0.4-4.2,0.7-6.3
		c0.2-1.7,0.6-3.5,0.8-5.2c0.2-1.3,0.6-2.5,0.5-3.8c0-0.9,0.2-1.4,0.7-2c0.5-0.6,1-1.3,1.6-2c0.8,2.5,0.9,4.8,0.8,7.2
		c0,0.7-0.1,1.5,0,2.2c0.2,1.6,0.4,3.3,0.8,4.9c0.3,1.2,0.8,2.3,1.1,3.5c1,3.7,2.6,7,4.6,10.3c0.8,1.3,1.5,2.7,2.3,4.2
		c-0.2,0-0.2,0.1-0.2,0c-0.2-0.1-0.3-0.1-0.5-0.2c-1.9-0.8-3.7-0.7-5.3,0.5c-1.2,0.9-2.4,1.8-3.1,3.2c-0.4,0.8-0.9,1.5-1.3,2.2
		c-0.4,0.6-0.7,1.3-1.1,1.9c0,0.1,0.1,0.1,0.1,0.2c0.5-0.1,1.1,0,1.4-0.3c0.5-0.4,0.8-1.1,1.2-1.7c0.8-1.4,1.6-2.8,2.9-3.9
		c1.9-1.6,3.6-1.6,5.6-0.4c0.9,0.6,1.6,1.3,2,2.3c0.5,1.1,1.3,2.1,1.9,3.1c0.6,0.9,1,1,2.1,0.7c-0.5-0.9-1.1-1.7-1.6-2.7
		c-1.4-2.7-2.7-5.3-4-8c-0.3-0.7-0.7-1.3-1.1-2c-0.8-1.5-1.6-2.9-2.4-4.4c-1.1-2-1.6-4.3-2.2-6.4c-0.4-1.2-0.9-2.4-1-3.7
		c-0.3-2.1-0.4-4.2-0.4-6.4c-0.1-2.3-0.3-4.6-1-6.9c-0.6-2.1-1-4.2-1.2-6.4c-0.1-1.2-0.3-2.3-0.5-3.5c-0.2-1.2-0.3-2.4-0.5-3.7
		c0.3,0.2,0.3,0.2,0.4,0.3c1.4,1.7,2.8,3.5,4.3,5.2c0.4,0.5,0.8,0.9,1.2,1.4c0.4,0.4,0.8,0.7,1.2,1.1c0.7,0.7,1.3,1.5,2.1,2.1
		c2.3,1.8,4.8,3.3,7.5,4.5c0.9,0.4,2,0.7,3,1c2,0.7,4.1,1.3,6.3,1.5c1.7,0.1,3.3,0.1,5,0.2c1.8,0.1,3.5-0.2,5.2-0.7
		c1.9-0.6,3.7-1.3,5.6-1.9c1.7-0.6,3.5-1.2,5.2-1.9c1.4-0.6,2.9-1.2,4.2-2c1.7-1.1,3.3-2.4,4.9-3.6c2-1.5,4.1-2.9,6-4.6
		c2.1-1.9,4.1-4.1,6.1-6.2c2-2.1,3.2-4.7,4.3-7.4c0.5-1.3,1-2.6,1.5-3.9c0.1,0,0.1,0,0.2,0.1v0.7c0,3.6,0,7.1,0,10.7
		c0,0.2,0.1,0.4,0,0.5c-0.5,0.9,0,1.8,0.2,2.6c0.3,1.6,0.8,3.2,1.1,4.8c0.2,1,0.2,2.1,0.6,3.1c0.7,1.7,0.8,3.4,0.8,5.1
		c0,0.7,0,1.5-0.1,2.2c-0.2,1.7-0.3,3.5-0.6,5.2c-0.6,2.8-1.4,5.5-2.1,8.2c-0.4,1.5-0.7,3.1-1.4,4.5c-1.1,2.4-2.4,4.7-3.8,6.9
		c-1.7,2.7-2.8,5.6-3.6,8.7c-0.5,1.7-0.8,3.4-2,4.7c-0.3,0.3-0.6,0.7-0.9,1.2c0.4,0,0.6,0,0.8,0c1,0.1,1.7,0,1.9-1.2
		c0-0.2,0.2-0.4,0.3-0.5c0.8-1.2,1.8-2.2,2.8-3.1c0.3-0.3,0.5-0.6,0.9-0.8c2-1.1,4.1-1.2,6.2-0.8c2.1,0.4,4.1,1.2,5.6,2.9
		c0.5,0.5,1.1,1,1.6,1.5c0.5,0.6,1.2,1.1,0.9,1.9h1.8c-0.5-0.9-0.8-1.7-1.3-2.3c-0.5-0.7-1.3-1.1-1.8-1.8c-0.9-1.2-2.2-1.9-3.4-2.5
		c-1.4-0.7-3-1.1-4.6-1.2c-2.6-0.2-4.9,0.2-6.7,2.1c-0.2,0.2-0.5,0.4-0.7,0.7c-0.1-0.3-0.1-0.4-0.1-0.6c0.9-3.4,2.4-6.5,4.2-9.6
		c1.5-2.5,3.2-5,4-7.9c1.4-5.1,3-10.1,3.4-15.4c0.2-2.9,0.3-5.9-0.9-8.7c-0.1-0.3-0.2-0.7-0.3-1.1c-0.3-1.3-0.5-2.7-0.7-4
		c0-0.1,0-0.2-0.1-0.2c1.1,0.9,2.1,1.8,3.1,2.7c0.5,0.4,0.8,1,1.1,1.5c0.5,1,0.9,2,1.2,3c0.6,1.7,1.3,3.4,1.8,5.1
		c0.9,2.8,1.8,5.6,2.6,8.4c0.6,2.1,1,4.3,1.3,6.5c0.3,2.4,0.6,4.9,0.7,7.3c0.1,3.2-0.2,6.4-0.2,9.6c-0.1,2.7-0.1,5.3-0.1,8
		c0,0.1,0,0.3,0.1,0.4h1.3c0-0.1,0.1-0.2,0.1-0.2c0.1-3.9,0.2-7.7,0.3-11.6c0-2.5,0-5.1,0-7.6c0-1.2,0-2.5-0.2-3.7
		c-0.2-1.7-0.5-3.5-0.8-5.2c-0.5-2.5-1-4.9-1.8-7.3c-0.8-2.8-1.9-5.5-2.9-8.2c-0.5-1.3-1-2.6-1.6-4c0.1,0,0.2,0.1,0.3,0.1
		c1.1,0.8,2.2,1.6,3.3,2.4c1.8,1.5,3.5,3,5.3,4.6c0.8,0.7,1.5,1.5,2.3,2.1c0.8,0.7,1.8,1.2,2.4,2.2c0.1,0.2,0.4,0.3,0.6,0.4
		c0.9,0.4,1.7,0.8,2.6,1.2c0.3,0.2,0.6,0.3,0.8,0.6c1,1.5,1.8,3,2.8,4.4c1,1.5,2.2,2.8,3.2,4.3c1.1,1.7,2.1,3.5,3.2,5.3
		c0.9,1.5,1.8,2.9,2.7,4.4c1.4,2.4,2.7,4.9,4.2,7.3c1.2,1.9,2.6,3.8,4,5.7C162.1,196.3,162,195.4,162,194.5z M123.2,93.7
		c0-1.2,0.3-2.3,1.2-3.2c0.5-0.6,1-1.1,1.5-1.7c0.9-0.9,2-1.2,3.2-1c0.8,0.2,1,0.5,1.1,1.5c0.1,1.1,0.3,2.2,0.5,3.2
		c0.1,0.3,0.4,0.4,0.6,0.7c0.1-0.3,0.3-0.5,0.3-0.8c-0.1-1.2-0.2-2.4-0.4-3.6c-0.2-1.3-1-1.9-2.3-1.9c-1.3,0-2.5,0.2-3.5,1.1
		c-0.3,0.3-0.6,0.7-1.1,1.1c0.4-1.9,0.9-3.5,2.4-4.6c1-0.8,2.3-1.2,3.4,0.1c0.2,0.2,0.5,0.4,0.7,0.6c1.1,0.8,1.3,2,1.4,3.1
		c0.2,2.4,0.5,4.9,0.2,7.3c-0.2,2.4-1,4.8-1.7,7.1c-0.8,2.8-1.8,5.5-2.8,8.2c-0.4,1.1-1,2.2-1.5,3.2c-1.2,2.1-3.2,2.5-5.3,2.9
		c-0.5,0.1-1,0-1.6,0c0-0.2,0-0.4,0-0.6c0.1-2.1,0.1-4.3,0.3-6.4c0.1-1,0.4-2.1,0.8-3c0.4-1.2,1.5-1.2,2.5-1.3
		c0.8-0.1,1.6-0.1,2.4-0.2c1.8-0.2,2.9-1.7,2.6-3.4c-0.3-1.6-1.2-2.8-2.4-3.7c-0.6-0.5-1.1-1-1.7-1.5c-0.7-0.6-0.6-1.5-0.6-2.3
		C123.1,94.3,123.2,94,123.2,93.7z M123.5,97.8c1,1,2,1.9,2.9,2.9c0.7,0.8,0.6,1.8,0.5,2.7c0,0.5-1.4,1.3-2.2,1.3
		c-1.4,0-2.8,0-4.2,0.6c0.7-2.9,1.3-5.6,2-8.5C122.9,97.3,123.2,97.5,123.5,97.8z M29.9,103.4l-0.2,0.1c-0.4-0.7-0.8-1.3-1.1-2.1
		c-0.3-1-0.4-2.1-0.6-3.1c-0.3-1.2-0.6-2.3-1-3.5c-0.6-1.6-0.4-3.2-0.3-4.8c0.1-1.1,0.6-2.1,0.9-3.2c0.1-0.2,0.2-0.4,0.4-0.8
		c0.3,0.5,0.4,0.7,0.6,1c0.2,0.4-0.1,1,0.6,1.2c0.1,0,0.1,0.3,0.1,0.5c0,1.1,0,2.2,0,3.2c0.1,2.1,0.2,4.1,0.3,6.2
		c0.1,1.2,0.1,2.5,0.2,3.7C29.8,102.4,29.9,102.9,29.9,103.4z M28.8,109.4c-0.7-1.6-1.2-3.4-1.8-5.1c-0.6-1.8-1.1-3.5-1.7-5.3
		c-0.5-1.5-0.4-3.1-0.3-4.7c0.1-1.3,0-2.6,0-3.8c0-2.8,0.4-5.5,1.5-8c0.2-0.5,0.6-1.1,1-1.5c0.4-0.4,0.8-0.3,1,0.3
		c0.2,0.7,0.4,1.3,0.6,2c0,0,0,0.1,0,0.1c1,0.6,0.5,1.5,0.4,2.3c0,0.2,0,0.3,0,0.7c-0.3-0.3-0.5-0.5-0.6-0.7
		c-0.7-0.7-1.4-0.7-1.8,0.2c-0.5,1.2-1,2.4-1.2,3.7c-0.2,1.4-0.1,2.8,0,4.2c0.1,0.7,0.5,1.4,0.7,2.1c0.3,1.2,0.7,2.4,0.8,3.7
		c0.1,1.4,0.6,2.5,1.3,3.7c0.5,0.8,1.1,1.7,1.6,2.5c0.1,0.2,0.1,0.5,0.2,0.7c0.3,1.6,0.5,3.1,0.8,4.7c0,0.3,0.1,0.6,0.1,0.9
		C30,111.6,29.3,110.5,28.8,109.4z M116.1,127.8c-1.1,2.4-2,5-3.1,7.4c-0.8,1.8-1.6,3.6-3,5c-1.6,1.7-3.1,3.4-4.6,5.1
		c-1.9,2.1-4.1,3.9-6.5,5.5c-2.4,1.7-4.6,3.4-7.1,5c-0.9,0.6-1.9,0.8-2.9,1.1c-2.6,1-5.1,2-7.7,2.9c-2,0.7-4,1.2-6.1,1.6
		c-1.2,0.2-2.5,0.1-3.7,0.1c-1.8-0.1-3.7-0.2-5.5-0.6c-1.7-0.3-3.3-0.9-5-1.5c-1.1-0.4-2.2-1-3.2-1.5c-1.1-0.6-2.2-1.2-3.3-1.9
		c-1.1-0.7-2.1-1.4-3.1-2.2c-0.3-0.2-0.3-0.6-0.6-0.9c-0.7-0.7-1.4-1.2-2-1.9c-0.9-1-1.7-2.1-2.6-3.1c-0.6-0.7-1.3-1.5-1.9-2.2
		c-0.3-0.3-0.5-0.6-0.7-0.9c-0.3-0.5-0.6-1.1-1-1.5c-1.3-1.6-1.8-3.6-2.5-5.4c-1.2-2.9-2.4-5.9-3.5-8.8c-0.6-1.6-1-3.2-1.4-4.8
		c-0.7-2.4-1.4-4.7-2.1-7.1c-0.2-0.8-0.3-1.6-0.4-2.3c-0.1-0.8,0-1.6-0.4-2.4c-0.4-0.8-0.5-1.7-0.6-2.6c-0.2-1.4-0.4-2.8-0.6-4.2
		c-0.2-1.4-0.4-2.9-0.5-4.3c-0.1-0.5-0.2-1-0.2-1.5c-0.1-3.6-0.2-7.3-0.1-10.9c0-2.1,0.4-4.2,0.6-6.2c0.1-1.2,0.3-2.3,0.5-3.5
		c0.1-0.4,0.4-0.7,0.4-1.1c0.1-1.2,0.9-1.5,2-1.5c1.9-0.1,3.7-0.6,5.6-0.6c2.1,0,4.3,0.3,6.4,1c2,0.6,4,1,6,1.5
		c0.9,0.2,1.7,0.4,2.6,0.6c0.7,0.1,1.3-0.2,1.5-0.7c0.2-0.8-0.1-1.6-0.8-1.8c-1.6-0.6-3.2-1.3-4.8-1.7c-2.1-0.5-4.2-0.8-6.3-0.8
		c-1.3,0-2.5-0.2-3.8-0.2c-1.3,0-2.6,0.1-3.9,0.2c-1,0.1-2.1,0.3-3.1,0.5c0.6-1.8,1.1-3.6,1.6-5.3c0.1-0.2,0-0.5,0-0.7
		c0.1-4.4,0.2-8.7,0.3-13.1c0-1.7,0.2-3.4,0.1-5c-0.1-1.6,0.3-3,0.9-4.4c0.7-1.7,1.4-3.4,2.2-5c0.5-1,1.3-1.8,2-2.6
		c0.3-0.3,0.6-0.5,0.9-0.9c1-1.2,2.5-1,3.8-1.2c0.9-0.2,1.8-0.3,2.7-0.3c1,0,2.1,0.2,3.1,0.3c2.1,0.2,4.2,0.2,6.4,0.4
		c2,0.2,4,0.5,6.1,0.7c1.1,0.1,2.1,0.2,3.2,0.4c1.7,0.2,3.4,0.5,5.2,0.7c1.4,0.2,2.8,0.3,4.2,0.5c1.5,0.2,3,0.4,4.5,0.6
		c1.3,0.2,2.6,0.4,3.9,0.4c3,0,6.1,0.3,9.1,0.7c2.3,0.3,4.6,0.6,6.9,0.9c2.4,0.3,4.8,0.4,7.1,0.7c1.8,0.2,3.7,0.6,5.5,0.8
		c0.9,0.1,1.8,0.2,2.7,0.3c0.3,0,0.6,0.3,0.7,0.5c0.6,0.8,0.8,1.8,0.8,2.9c0.1,2.4-0.4,4.7-1.2,6.9c-0.9,2.5-1.9,5-2.8,7.5
		c-0.7,1.8-0.6,3.6,0,5.4c1,2.7,2.6,5.1,4.4,7.3c1.2,1.4,2.4,2.9,2.6,4.9c0.1,1,0.2,1.9,0.4,2.9c0.2,1.9,0.3,3.8,0.6,5.7
		c0.4,2.4,0.6,4.8,0.5,7.2c0,0.6-0.2,1.2-0.3,1.7c0,0.2-0.1,0.4-0.1,0.6c0.2,1.5-0.2,2.9-0.8,4.3c0,0.1,0,0.3,0,0.4
		c0,0.3,0.1,0.6,0,0.8c-0.8,1-0.5,2.3-0.8,3.4c-0.5,2.2-0.7,4.6-1,6.8c-0.1,0.9,0,1.8,0,2.6c-0.1,0.9-0.2,1.8-0.3,2.6
		c-0.1,0.8-0.2,1.6-0.2,2.5C117.9,122.9,117.2,125.4,116.1,127.8z"/>
	<path class="st0" d="M68.6,138.5c-3.4,0.5-6.4-0.9-9.4-2.4c-1.4-0.7-2.8-1.6-4.1-2.6c-0.5-0.4-0.9-0.9-1.4-1.4
		c-1.2-1.3-2.4-2.6-3.5-4c-0.5-0.6-0.3-1.1,0.6-1.2c3-0.2,5.9-0.8,8.7-1.7c0.6-0.2,1.1-0.4,1.7-0.7c2-0.9,3.7-0.6,5.3,0.9
		c0.7,0.7,1.5,0.6,2.3,0.3c1.2-0.5,2.3-1.3,3.7-1.1c1.1,0.2,2.2,0.5,3.3,0.9c2.4,0.9,4.9,1.4,7.4,1.8c0.6,0.1,1.2,0.4,1.8,0.5
		c1.2,0.3,2.5,0.5,3.7,0.9c0.3,0.1,0.5,0.3,0.7,0.5c-0.2,0.2-0.4,0.5-0.6,0.7c-0.4,0.3-0.8,0.6-1.2,0.9c-2.1,1.9-4.5,3.3-7,4.4
		c-1.5,0.6-2.9,1.3-4.4,1.9C73.8,138.1,71.3,138.8,68.6,138.5z M86.7,130.7c-2.5,0.2-4.9,0.4-7.3,0.5c-2,0-3.9-0.2-5.9-0.3
		c-2-0.1-4-0.1-6-0.2c-2.9-0.1-5.8-0.1-8.6-0.3c-1.4-0.1-2.7-0.5-4.1-0.8c-1-0.3-2-0.6-3.2-1c1.1,1.2,2.1,2.2,3.1,3.2
		c0.6,0.7,1.2,1.4,2,1.9c2.2,1.3,4.4,2.4,6.8,3.3c1.7,0.6,3.5,0.6,5.2,0.6c1,0,2,0.1,2.9-0.1c2.1-0.5,4.2-1.1,6.2-1.9
		c2-0.8,4-1.9,5.9-3C84.8,132.1,85.7,131.3,86.7,130.7z M86.9,129.4c0-0.1,0-0.1-0.1-0.2c-0.3,0-0.6-0.1-0.8-0.2
		c-0.8-0.2-1.6-0.6-2.4-0.7c-1.6-0.4-3.2-0.6-4.7-1c-1.7-0.5-3.5-1.1-5.2-1.6c-0.9-0.3-1.7-0.4-2.6-0.1c-0.7,0.3-1.4,0.5-2.1,0.8
		c-1.3,0.7-2.4,0.5-3.4-0.5c-1.1-1.1-2.4-1.4-3.9-0.8c-1.6,0.7-3.3,1.2-5,1.6c-1.4,0.4-2.8,0.6-4.3,0.8c0.4,0.3,0.9,0.5,1.3,0.6
		c2.5,1,5.1,1.4,7.8,1.5c0.9,0,1.8,0,2.7,0c0.4,0,0.8,0.1,1.2,0.1c1.5,0,3-0.2,4.5-0.1c2.3,0.1,4.6,0.4,6.9,0.5
		c2.6,0.1,5.2,0.1,7.8-0.4C85.4,129.8,86.2,129.6,86.9,129.4z"/>
	<path class="st0" d="M106.6,90.3c-0.8-0.4-1.5-0.7-2.2-1.1c-0.5-0.2-1-0.6-1.6-0.6c-1.1-0.1-2.3-0.1-3.4,0.1
		c-2.6,0.4-5.2,0.5-7.8,0.3c-1-0.1-2.1-0.4-3.1-0.6c-2.1-0.4-4.1-0.8-6.2-1.2c-0.3-0.1-0.7,0-1,0c-0.2,0-0.6-0.1-0.6-0.2
		c0-0.2,0-0.6,0.2-0.7c2.2-1.5,4.4-2.8,7-3.5c2.9-0.7,5.6-0.1,8.4,0.7c2.9,0.8,5.2,2.5,7.5,4.2c0.9,0.6,1.7,1.4,2.9,1.4
		c0.2,0,0.3,0.3,0.5,0.5C107.1,89.9,106.9,90.1,106.6,90.3z M83.3,86.1c2.3,0.8,4.7,1.2,7.2,1.4c-0.8-1.2-0.8-2.5-0.6-3.8
		C88.5,83.3,84.3,84.8,83.3,86.1z M101.8,87.6c0-0.1,0-0.2,0-0.2c-1.2-0.9-2.4-1.6-3.9-1.8c-0.2,0.8-0.4,1.4-0.6,2
		C98.8,87.6,100.3,87.6,101.8,87.6z M94.5,85.4c0-0.6-0.4-0.8-0.8-0.8c-0.4,0-0.7,0.2-0.7,0.7c0,0.5,0.3,0.8,0.8,0.8
		C94.3,86.1,94.6,85.9,94.5,85.4z"/>
	<path class="st0" d="M93.2,76.3c2.3,0.2,4.9,0.3,7.5,0.7c3.3,0.6,6.6,1.2,9.7,2.5c0.5,0.2,1.1,0.6,1.5,1c0.4,0.4,0.4,1.2,0,1.6
		c-0.5,0.4-1.1,0.3-1.6-0.1c-0.3-0.2-0.6-0.5-0.9-0.6c-3-1.2-6.1-1.7-9.2-2.3c-0.1,0-0.3-0.1-0.3-0.1c-1.4,0.7-2.9,0.2-4.4,0.3
		c-2.3,0.2-4.6,0.3-6.9,0.5c-0.9,0.1-1.8,0.1-2.7,0.2c-0.6,0-1-0.2-1.1-0.7c-0.1-0.6,0.1-1.2,0.7-1.4c1.4-0.5,2.8-1,4.2-1.3
		C90.7,76.4,91.8,76.4,93.2,76.3z"/>
	<path class="st0" d="M49.5,80.3c2.3,0.1,4.2,0.9,6,2.1c1.1,0.7,2.4,1.3,3.5,2c0.3,0.2,0.7,0.4,1,0.7c0.1,0.1,0.2,0.5,0.1,0.7
		c-0.1,0.2-0.4,0.4-0.6,0.3c-1.9-0.5-3.7,0-5.6,0c-2.4,0.1-4.7,0.1-7.1,0.1c-1.4,0-2.8,0-4.2-0.2c-1-0.1-2-0.5-2.9-0.9
		c-0.6-0.2-0.6-0.7-0.1-1.1c1.7-1.5,3.8-2.1,5.9-2.8c0.7-0.2,1.4-0.4,2.1-0.6C48.2,80.5,48.8,80.4,49.5,80.3z M46.9,82
		c-0.1,0-0.2-0.1-0.3,0c-1.6,0.6-3.2,1.1-4.7,1.8c-0.1,0-0.2,0.4-0.2,0.5c0,0.1,0.2,0.3,0.3,0.4c1.1,0.3,2.3,0.6,3.4,0.7
		c0.6,0.1,1.2,0,2-0.1C46.3,84.2,46.5,83.2,46.9,82z M54.3,84.9c1,0,2.1,0,3.2,0c0-0.1,0.1-0.1,0.1-0.2c-1-0.6-1.9-1.1-2.9-1.7
		C54.4,83.8,54.3,84.3,54.3,84.9z M50.4,83.7c0.7,0,0.9-0.2,0.9-0.6c0-0.5-0.4-0.9-0.9-0.9c-0.4,0-0.7,0.2-0.8,0.6
		C49.6,83.2,50.2,83.7,50.4,83.7z"/>
	<path class="st0" d="M59.4,111.8c1.7-0.1,3.1,0.6,4.5,1.5c1.3,0.8,2.6,1.7,4.2,1.8c1.3,0.1,2.3-0.5,2.9-1.7c0.6-1.3,1.6-1.8,3-1.8
		c1.5,0,2.9,0.1,4.1,1.1c0.5,0.5,1.7,0.2,2.2-0.3c1.7-1.6,1.6-3.3-0.2-5c-0.2-0.2-0.2-0.5-0.3-0.7c0.3,0,0.6,0,0.8,0.1
		c1.1,0.8,2,3.3,1.6,4.5c-0.5,2-3.3,3-5.1,2c-1.5-0.9-3.1-1-4.7-0.4c-0.3,0.1-0.5,0.4-0.7,0.7c-1.2,2.3-3.5,3.1-5.8,1.9
		c-1.5-0.7-2.9-1.6-4.4-2.3c-0.6-0.3-1.4-0.3-2.1-0.3c-1.4,0-2.6-0.3-3.6-1.4c-0.8-0.9-1-3.1-0.3-4c0.7-1,1.5-2,2.3-3
		c0.1-0.1,0.4,0,0.7-0.1c0,0.3,0.1,0.6-0.1,0.8c-0.6,0.8-1.3,1.6-2,2.4c-0.7,0.9-0.6,1.9-0.2,2.7c0.4,0.9,1.2,1.4,2.3,1.3
		C58.9,111.8,59.1,111.8,59.4,111.8z"/>
</g>
</svg>
