<?xml version="1.0" encoding="utf-8"?>
<!-- Generator: Adobe Illustrator 19.2.1, SVG Export Plug-In . SVG Version: 6.00 Build 0)  -->
<svg version="1.1" id="Layer_1" xmlns="http://www.w3.org/2000/svg" xmlns:xlink="http://www.w3.org/1999/xlink" x="0px" y="0px"
	 viewBox="0 0 134 189.2" style="enable-background:new 0 0 134 189.2;" xml:space="preserve">
<style type="text/css">
	.st0{fill:#FF9800;}
</style>
<g id="pharm-shaun-orange">
	<path class="st0" d="M133.8,138.5c-1.1-0.7-2.2-1.4-3.3-2.1c-1.1-0.7-2.4-1.3-3.4-2.1c-1.8-1.4-3.5-2.8-5.6-3.9
		c-1.1-0.6-2.1-1.3-3.3-1.7c-1.5-0.5-3.1-0.4-4.7,0.2c0-0.1,0-0.2,0-0.3c0.2-1.5,0.4-3,0.2-4.5c-0.1-0.7-0.2-1.5-0.5-2.2
		c-0.6-1.7-1.9-2.9-3.4-4c-1.6-1.2-2.6-2.7-3.5-4.4c0.6,0.2,1.1,0.4,1.7,0.6c1.2,0.4,2.4,1,3.6,1.3c1.7,0.5,3.4,0.8,5,1.3
		c2.4,0.7,4.7,1.6,7,2.4c2.6,0.9,5.1,2.1,7.5,3.5c0.9,0.5,1.9,1,2.8,1.6c0-0.2,0-0.3,0-0.5c0.1-0.5-0.1-0.8-0.6-1
		c-0.5-0.2-1-0.5-1.5-0.8c-3-1.9-6.2-3.1-9.5-4.4c-1.5-0.6-3.1-1.1-4.7-1.5c-1.4-0.4-2.8-0.8-4.3-1.2c-1.4-0.3-2.7-0.6-4-1.2
		c-0.8-0.4-1.6-0.9-2.4-1c-1.2-0.1-1.7-0.8-2.2-1.7c-0.6-1.2-1.3-2.3-1.3-3.7c0-1.7,0-3.4,0.1-5.1c0.1-1.7,0.2-3.3,0.6-5
		c0.5-2.4,1-4.8,1.2-7.2c0-0.3,0.2-0.8,0.5-1c0.7-0.3,1.5-0.5,2.2-0.7c2.1-0.6,3.2-2,3.3-4.2c0.1-1-0.1-2,0.5-2.9
		c0.5-0.8,1-1.6,1.5-2.5c0.6-1,1.1-2.1,1-3.4c-0.1-1-0.1-2.1-0.2-3.1c-0.1-0.8-0.2-1.6-0.5-2.4c-0.5-1.8-1.3-3.6-1.1-5.6
		c0.1-0.6,0-1.2,0.1-1.8c0.1-0.7,0.3-1.4,0.5-2.1c0.1-0.4,0.1-0.8,0.1-1.2c0-0.4-0.2-0.9-0.3-1.3c-0.2-0.7-1.5-1.8-2.3-1.8
		c-1,0-1.9,0-2.9,0c0-0.1,0-0.3,0.1-0.5c0.2-1.5,0.5-3,0.6-4.5c0.1-2.4,0-4.8-0.1-7.1c0-0.7-0.1-1.5-0.3-2.2
		c-0.2-1.4-0.4-2.7-0.6-4.1c-0.2-1.6-0.3-3.2-0.6-4.7c-0.5-2.2-1.1-4.3-1.6-6.5c-0.1-0.3-0.3-0.6-0.4-0.9c-0.3-0.8-0.4-1.7-0.7-2.5
		c-0.6-1.3-1.1-2.5-1.9-3.7c-1-1.5-2.2-2.8-3.3-4.2c-0.9-1.2-2.2-2.1-3.4-3.1c-0.9-0.7-1.9-1.2-2.8-1.9c-0.9-0.6-1.8-1.4-2.8-2
		c-1.4-0.8-2.8-1.5-4.2-2.4c-1.1-0.7-2.2-1.1-3.4-1.5c-1.3-0.5-2.6-1-3.9-1.4c-0.7-0.2-1.3-0.5-2-0.7c-0.3-0.1-0.6-0.3-0.9-0.4
		c-0.7-0.3-1.5-0.7-2.2-0.9c-0.9-0.3-1.9-0.6-2.9-0.7c-2.2-0.1-4.4,0-6.6,0.1c-0.1,0-0.2,0-0.3,0c-2.5,0.6-5.1,1.2-7.6,1.8
		c-1.9,0.5-3.7,1.1-5.6,1.6c-2.6,0.7-5,2-7.3,3.4c-0.6,0.4-1.2,0.9-1.8,1.3c-1.3,0.8-2.5,1.6-3.8,2.4c-2.1,1.3-4,3-5.7,4.8
		c-1.4,1.4-2.4,3.1-3.6,4.7c-1.1,1.6-1.7,3.4-2.2,5.2c-0.4,1.6-1,3.3-1.4,4.9c-0.4,1.4-0.5,2.9-0.9,4.3c-0.4,1.5-0.5,3-0.5,4.6
		c0,0.8-0.1,1.5-0.2,2.2c-0.4,1.8-0.3,3.6-0.1,5.3c0.2,2,0.5,4.1,0.6,6.1c0,0.9,0.2,1.9,0.3,2.8c0.1,0.6,0.2,1.3,0.4,2
		c-2.1-0.6-2.5-0.3-3.3,0.3c-1.3,0.8-2,2-1.9,3.6c0.1,1.4,0.2,2.8,0.2,4.2c0,1.5,0,2.9,0,4.4c0,0.5-0.1,0.9-0.2,1.4
		c-0.3,1.5-0.8,3-0.7,4.7c0,1.6,0.6,3,1.3,4.3c1,2,2,4,3,6c0.6,1.2,1.2,2.4,2.3,3.2c0.2,0.1,0.5,0.3,0.6,0.5
		c0.2,0.9,0.4,1.9,0.6,2.8c0.3,1.4,0.4,2.9,0.7,4.3c0.2,1,0.6,2.1,0.8,3.1c0.4,1.4,0.8,2.8,1.5,4.1c0.2,0.4,0.5,0.9,0.6,1.3
		c0.6,2.2,1.9,4,3.5,5.5c1.5,1.4,2.7,3.1,3.9,4.8c0.1,0.2,0.1,0.3,0,0.5c-0.8,1.3-1.3,2.8-1.3,4.4c0,0.2-0.2,0.4-0.3,0.5
		c-1.7,0.7-3.4,1.5-5.1,2.2c-2.4,1-4.7,1.9-7.1,2.9c-2.9,1.2-5.7,2.5-8.6,3.7c-1.8,0.8-3.7,1.5-5.6,2.1c-3,0.9-6.1,1.7-9.2,2.5v1.1
		c1.2-0.3,2.4-0.7,3.7-1c2.3-0.6,4.6-1.1,6.8-1.9c2.2-0.7,4.3-1.7,6.4-2.6c2.6-1.1,5.1-2.2,7.6-3.3c2.1-0.9,4.3-1.8,6.5-2.6
		c1.7-0.7,3.4-1.4,5.2-2.1c0,0.1,0.1,0.3,0.1,0.4c0,0.9,0.1,1.8,0,2.7c-0.1,0.8-0.3,1.5-0.6,2.3c-0.3,1.2-0.6,2.4-1,3.6
		c-0.1,0.3-0.3,0.6-0.6,0.7c-2.5,0.7-4.8,2-7.2,2.9c-2.1,0.8-4.1,1.5-6.3,1.9c-1.3,0.2-2.4,0.8-3.7,1.2c-1.4,0.4-2.8,0.8-4.2,1.2
		c-1.1,0.4-2.2,0.8-3.3,1.2c-2.6,1.1-5.2,2.3-7.9,3.5c-0.5,0.2-1,0.5-1.5,0.7c0,0.4,0,0.8,0,1.2c0.2-0.1,0.4-0.2,0.7-0.3
		c2-0.9,4.1-1.8,6.1-2.7c0.9-0.4,1.7-0.8,2.5-1.2c1.8-1,3.9-1.4,5.9-2c2.2-0.6,4.4-1.4,6.6-2.1c3-0.8,5.9-1.8,8.7-3.2
		c1.2-0.6,2.5-1,3.9-1.5c0,1.2,0,2.2,0,3.2c0,0.9-0.1,1.9,0.1,2.8c0.6,2.5,1.3,5,1.9,7.5c0.4,1.6,0.7,3.2,1,4.9
		c0.2,1.1,0.3,2.2,0.5,3.3c0.2,1.3,0.6,2.5,0.8,3.8c0.4,2.5,0.8,4.9,1.6,7.3c0.4,1.2,1,2.3,1.4,3.5c0.5,1.6,0.8,3.2,1.1,4.8
		c0.1,0.4,0.2,0.5,0.6,0.5c0.3,0,0.6-0.1,0.7-0.5c0.3-1.1,0.6-2.1,0.9-3.1c0.7-2.3,1.9-4.3,2.9-6.4c0.5-0.9,0.9-1.8,1.4-2.7
		c0.9-1.8,1.7-3.6,2.7-5.3c0.7-1.2,1.5-2.3,2.3-3.4c0.4-0.5,0.9-0.7,1.2-0.4c0.9,0.7,1.7,1.4,2.5,2.2c0.2,0.2,0.3,0.5,0.3,0.8
		c-0.1,1-0.2,2-0.3,3c-0.2,1.8-0.2,3.6-0.7,5.3c-0.2,0.6-0.1,1.3-0.3,1.9c-0.4,1.1-0.9,2.2-1.3,3.3c-0.3,0.7-0.7,1.4-1,2.2
		c-0.4,1.1-0.7,2.3-1,3.5c-0.2,0.7-0.5,1.4-0.9,2.1c-0.9,1.5-2.1,2.7-2.6,4.4c-0.3,0.8-0.4,1.5-0.7,2.3c-0.5,1.8-1,3.6-1.6,5.3
		c0,0.1-0.1,0.2-0.1,0.3c9-0.6,18-0.9,27-0.8c-0.1-0.7-0.3-1.3-0.4-2c-0.3-3-1-5.8-2.1-8.6c-0.4-1.1-0.9-2.1-1.3-3.1
		c-0.5-1.2-0.8-2.5-1.2-3.7c-0.6-1.8-1.3-3.6-2-5.4c-0.1-0.3-0.2-0.7-0.1-1c0.3-1.7,0.9-3.4,1.7-5c0.7-1.4,1.4-2.7,2.1-4.1
		c0.5-1,0.9-2.1,1.3-3.1c0.2-0.5,0.5-0.6,0.9-0.3c1.2,1.1,2.4,2.2,3.6,3.4c1.4,1.3,2.6,2.7,4.2,3.7c0.1,0.1,0.1,0.1,0.2,0.2
		c0.8,0.8,1.6,1.7,2.4,2.5c0.7,0.7,1.3,1.3,2,2c0.7,0.7,1.4,1.4,2.1,2.1c1.5,1.4,3,2.8,4.4,4.3c0.6,0.7,1.1,1.5,1.7,2.2
		c0.4,0.5,0.9,1,1.3,1.5c0.4,0.4,1.2,0.4,1.4-0.1c0.5-1.1,0.9-2.2,1.4-3.3c0.6-1.4,1.2-2.9,1.9-4.3c0.9-1.8,1.8-3.5,2.6-5.4
		c1.3-3.1,2.5-6.3,3.7-9.5c0.4-1.1,0.9-2.3,1.3-3.4c0.7-1.9,1.6-3.8,2.2-5.8c0.5-1.7,0.9-3.4,1.3-5.1c0.5-1.9,0.9-3.9,1.4-5.8
		c0.1-0.4,0.2-1,0.5-1.3c0.6-0.4,1.3-0.7,2-0.8c1.6-0.2,3,0.2,4.3,1.1c0.9,0.6,1.8,1,2.7,1.6c1.3,0.9,2.6,2,3.9,2.9
		c1.4,1,3,1.8,4.4,2.7c1.1,0.7,2.1,1.4,3.3,2.1c0-0.4,0-0.7,0-1C133.9,138.8,133.9,138.6,133.8,138.5z M105.6,79.7
		c0-1.6,0.1-3.2,0-4.7c-0.1-1.4-0.3-2.8-0.5-4.1c-0.1-0.7-0.3-1.4-0.2-2.1c0-0.5,0.4-0.9,0.8-1.3c0.1-0.1,0.6,0,0.7,0.2
		c0.6,0.7,1,1.4,1.6,2.1c0.9,1.2,1.5,2.5,1.7,4c0.1,1,0.2,2,0.1,2.9c-0.2,1-0.7,1.8-1.5,2.5c-0.6,0.5-1.3,0.7-2.1,0.7
		C106,79.7,105.8,79.7,105.6,79.7z M110.3,84.4c-0.2,1.4-1,2.3-2.3,2.7c-0.5,0.1-0.9,0.3-1.3,0.5c-0.4,0.2-0.6,0-0.6-0.4
		c-0.1-0.7-0.1-1.4-0.1-2.1c0-1.4,0-2.7,0-4c0,0.1,0.1,0.2,0.2,0.4c0.3-0.6,0.7-1,1.4-1.1c0.4,0,0.6,0,0.8,0.3
		c0.4,0.5,0.9,1,1.4,1.4c0.2,0.1,0.5,0.1,0.7,0.2C110.4,83,110.4,83.7,110.3,84.4z M113.3,76.2c0,0.6-0.4,1.3-0.8,1.8
		c-0.5,0.9-1,1.7-1.5,2.5c-0.1,0.2-0.2,0.5-0.3,0.7c-0.9-0.2-1.4-0.8-1.7-1.5c0.5-0.8,0.9-1.5,1.3-2.3c0.6-1.2,0.4-2.5,0.3-3.7
		c-0.3-2.6-1.7-4.7-3.1-6.8c-0.2-0.4-0.6-0.6-0.9-0.9c-0.1-0.1-0.2-0.4-0.1-0.5c0.3-1.1,0.6-2.1,0.8-3.2c0.2-1,0.8-1.6,1.8-1.9
		c0.4-0.1,0.9-0.3,1.3-0.3c0.5,0,1.1,0.2,1.5,0.3c-0.1,1.5-0.1,2.9-0.2,4.3c-0.1,1.3,0.2,2.5,0.6,3.7
		C113.2,71,113.4,73.6,113.3,76.2z M104.1,62.8c0.1,0,0.2-0.1,0.3-0.2c0.8-1.3,1.5-2.6,2.3-3.9c0.1-0.1,0.1-0.2,0.2-0.3
		c0.3-1.4,1.4-1.5,2.5-1.6c0.3,0,0.6,0,0.8,0c1,0,1.6,0.5,1.9,1.4c0.1,0.4,0.2,0.9,0.4,1.4c-0.9-0.7-1.8-0.6-2.7-0.4
		c-0.6,0.1-1.2,0.3-1.7,0.6c-1.2,0.7-1.4,1.9-1.7,3.1c-0.3,1.4-0.6,2.8-1.7,4.1c-0.2-0.7-0.3-1.3-0.4-1.9c-0.1-0.6-0.2-1.2-0.3-1.8
		C103.8,63.2,103.8,63,104.1,62.8z M22.3,58.4c0.7-0.2,1.9,0.4,2.3,1c0.2,0.3,0.3,0.6,0.4,0.8c0,0.3,0,0.5,0,0.6
		c0.1,0.4,0.3,0.8,0.3,1.3c0,0.7,0,1.5,0,2.2c-0.1,0-0.1,0-0.2,0c-0.4-0.5-0.8-1-1.2-1.6c-0.9-1.4-2.5-1.6-3.8-0.8
		C19.7,60.4,20.9,58.9,22.3,58.4z M25.4,88.5c-0.1,0-0.3,0-0.3-0.1c-0.5-0.7-0.9-1.3-1.3-2.1c-1.1-2.1-2.1-4.3-3.2-6.4
		c-1.1-2.2-1.4-4.4-0.7-6.8c0.6-2,0.7-4.1,0.6-6.2c0-0.8-0.2-1.6-0.2-2.4c0-0.5,0.1-1.1,0.4-1.4c0.3-0.3,0.8-0.5,1.3-0.7
		c0.3,0.1,0.6,0.1,0.7,0.3c0.5,0.5,1,1.1,1.5,1.6c0.3,0.3,0.6,0.6,0.8,0.9c0.1,0.1,0.1,0.3,0.1,0.5c-0.1,0.9-0.2,1.9-0.3,2.8
		c-0.1,0.5,0,1-0.1,1.5c-0.1,0.4-0.4,0.7-0.6,1c-0.6,0.8-1.3,1.6-1.8,2.5c-0.4,0.7-0.6,1.5-0.8,2.2c-0.3,1.3-0.1,2.6,0.8,3.7
		c0.4,0.5,0.9,1,1.4,1.5c0.8,0.9,1.3,1.9,1.5,3.1c0.2,1.4,0.4,2.7,0.6,4.1C25.6,88.3,25.5,88.4,25.4,88.5z M24.4,71.8v9
		c-0.6-0.7-1.3-1.3-1.8-2c-0.8-1-0.6-2.2-0.5-3.4c0.2-1.2,1-2,1.7-2.8C24,72.3,24.2,72.1,24.4,71.8z M55.8,149.5
		c-0.4,0.5-0.9,1-1.3,1.5c-1.2,1.7-2.5,3.4-3.5,5.2c-1.2,2-2.1,4.2-3.1,6.3c-0.8,1.5-1.6,2.9-2.3,4.4c-0.5,1.1-0.9,2.2-1.3,3.3
		c-0.2,0.5-0.4,1.1-0.6,1.7c0,0-0.1,0-0.1,0c-0.2-0.8-0.3-1.6-0.5-2.4c-0.4-1.2-0.9-2.4-1.4-3.6c-0.7-1.9-1.2-3.8-1.5-5.8
		c-0.3-1.7-0.7-3.4-1-5.2c-0.2-1.1-0.4-2.3-0.5-3.4c-0.4-2.7-1.1-5.4-1.9-8c-1-3.2-1.6-6.4-1.3-9.8c0.1-1.5,0.4-3,0.9-4.4
		c0.9-2.5,1.1-5,1-7.7c0-0.6-0.2-1.3-0.2-1.9c0.1-0.6,0.4-1.2,0.5-1.8c0.2,1.3,0.5,2.5,0.6,3.8c0.3,2.3,1.2,4.5,2.4,6.4
		c1.1,1.7,2.3,3.4,4,4.6c0.8,0.6,1.5,1.4,2.2,2.2c1.4,1.5,3,2.9,4.8,4c1.5,0.9,3,2,4.6,2.9c1.2,0.6,2.4,1.1,3.7,1.6
		c0.2,0.1,0.4,0.2,0.7,0.3c-0.5,0.6-0.9,1.2-1.4,1.7C58,146.7,56.9,148.1,55.8,149.5z M67.3,161.8c0,0,0,0.1,0,0.1
		c-0.2,1.6-0.3,1.6-1.9,1.9c-1.5,0.2-2.9,0.5-4.4,0.8c-0.5,0.1-1,0-1.6,0c0.1-0.7,0.2-1.4,0.4-2c0.1-0.2,0.5-0.4,0.8-0.5
		c1.6-0.4,3.2-0.8,4.8-1.1c0.4-0.1,0.9-0.1,1.3,0C67.2,161,67.5,161.3,67.3,161.8z M63.6,143.4c-1.7-0.2-3.2-1.2-4.8-1.7
		c-0.5-0.2-1.1-0.4-1.6-0.7c-1.2-0.7-2.3-1.5-3.4-2.2c-0.1,0-0.1-0.1-0.2-0.1c-1.5-0.6-2.5-1.8-3.7-2.8c-1.7-1.5-3.4-2.9-5-4.5
		c-0.9-0.9-1.6-2-2.4-3c-1.4-1.8-2.4-3.8-3-6c-0.3-1.2-0.4-2.5-0.6-3.8c0.1,0,0.1,0,0.2-0.1c0.5,0.6,1,1.2,1.5,1.8
		c1,1.3,2,2.6,3,3.9c1.4,1.8,2.9,3.5,4.4,5.3c0,0,0.1,0.1,0.1,0.1c1.1,1.2,2.3,2.4,3.4,3.6c1.1,1.1,2.4,1.6,3.9,1.7
		c0.5,0,1,0.3,1.6,0.5c1.1,0.3,2.1,0.6,3.3,0.5c1.7-0.1,3.4,0,5.1,0.1c2.4,0.2,4.6-0.1,6.9-0.7c2.2-0.6,4.3-1.4,6.3-2.6
		c0.9-0.6,2-1,2.9-1.4c0.3-0.1,0.5-0.3,0.7-0.5c1-0.8,1.9-1.6,2.8-2.4c0.3-0.2,0.4-0.6,0.7-0.9c1-1.2,2-2.4,3.1-3.6
		c1.8-2,3.5-4,5.4-5.8c1.3-1.3,2.2-2.9,3.2-4.5c0.9-1.4,1.8-2.9,2.7-4.3c0.1-0.2,0.2-0.4,0.3-0.6c0.2-0.4-0.1-0.5-0.3-0.7
		c-0.3-0.2-0.6,0-0.7,0.2c-0.9,2-2.3,3.6-3.4,5.5c-0.9,1.7-2.2,3.2-3.5,4.5c-1.1,1.2-2.3,2.3-3.4,3.5c-1.8,2-3.5,4.1-5.2,6.2
		c-0.6,0.7-1.3,1.3-2.1,1.7c-2,1.1-4,2.3-6.1,3.2c-1.5,0.7-3.2,1-4.8,1.6c-1,0.4-2.1,0.5-3.2,0.4c-1.7,0-3.3-0.1-5-0.1
		c-1.4,0-2.8-0.1-4.2-0.2c-0.2,0-0.5,0-0.7-0.1c-1.3-0.6-2.8-0.5-4.2-1c-0.6-0.2-1.1-0.7-1.6-1.2c-1-1-2.1-2.1-3-3.2
		c-1.1-1.2-2.1-2.5-3.1-3.7c-0.7-0.8-1.4-1.6-2.1-2.5c-0.8-1-1.6-2.1-2.4-3.2c-0.7-0.9-1.5-1.7-2.1-2.6c-1.1-1.5-2.1-3-3.2-4.4
		c-0.5-0.7-1.2-1.3-1.9-2c-1.4-1.4-2.6-3-3.2-4.9c-0.1-0.5-0.4-1-0.7-1.5c-1.2-2.3-1.9-4.8-2.4-7.3c-0.5-2.2-0.8-4.4-1.2-6.6
		c-0.2-1-0.2-2-0.4-3c-0.2-1.4-0.5-2.7-0.7-4.1c-0.1-0.8-0.3-1.6-0.3-2.5c0-2.5,0-4.9,0-7.4c0-2,0.1-4.1,0.2-6.1
		c0.1-1,0.4-1.9,0.6-2.8c0-0.1,0-0.3,0.1-0.4c0-1.1-0.1-2.3,0.2-3.4c0.2-0.9,0-1.8,0.3-2.7c0.1-0.3,0.1-0.7,0.1-1.1
		c0-1.5,0.1-3,0-4.5c-0.1-1.2-0.2-2.3-0.4-3.4c0-0.1,0-0.2,0-0.3c0-2.1-0.1-4.3,0-6.4c0-1.1,0.2-2.2,0.5-3.3
		c0.3-1.5,0.7-3.1,1.1-4.6c0.6-1.9,1.4-3.8,2-5.7c0.6-2,2.1-3.1,3.7-4.2c0.3-0.2,0.9-0.2,1.4-0.2c2.4-0.1,4.7-0.1,7.1-0.1
		c0.9,0,1.7-0.2,2.6-0.4c0.6-0.1,1.2-0.1,1.8-0.2c1.1-0.1,2.3-0.1,3.4-0.2c1.4-0.1,2.7-0.3,4.1-0.4c1-0.1,2.1-0.2,3.1-0.2
		c1.3-0.1,2.6-0.1,3.9-0.1c0.7,0,1.3,0.1,2,0.1c0.4,0,0.8-0.1,1.2-0.1c1.6,0.2,3.2,0.4,4.8,0.6c1.1,0.1,2.1,0.4,3.2,0.4
		c2,0.1,4,0.1,6,0.1c2.2,0,4.3,0,6.5,0.1c1.5,0.1,3.1,0.4,4.6,0.3c1.6,0,2.9,0.7,4.3,1.5c1,0.6,2.1,1.1,3.1,1.8
		c0.5,0.3,0.9,0.7,1.1,1.2c0.5,0.9,0.9,1.8,1.1,2.8c0.3,1,0.3,2,0.4,2.9c0.2,1.7,0.3,3.4,0.6,5c0.3,1.9,0.6,3.8,0.9,5.7
		c0.3,1.9,0.5,3.8,0.8,5.7c0.1,0.7,0.1,1.3,0.1,2c0.1,1.3,0.3,2.6,0.5,3.9c0,0.3,0,0.5,0,0.8c0,0.1,0,0.3,0,0.4
		c0.2,1.2,0.4,2.4,0.6,3.5c0.4,2.3,0.8,4.5,1.1,6.8c0.3,2,0.7,4,0.9,6c0.1,1.4,0.1,2.8,0.1,4.3c0.1,2.7,0.3,5.3,0.3,8
		c0,1-0.3,2.1-0.5,3.1c-0.1,0.7-0.2,1.4-0.3,2.2c-0.3,1.6-0.6,3.2-0.8,4.9c-0.2,1.2-0.5,2.4-0.6,3.7c-0.2,2.1-0.2,4.1-0.2,6.2
		c0,1.9-0.2,3.7-0.8,5.5c-0.1,0.4-0.3,0.7-0.4,1.1c-0.9,1.9-1.7,3.8-2.7,5.6c-0.7,1.3-1.7,2.5-2.8,3.5c-1,1-2,1.9-3.1,2.9
		c-2.1,2-4.3,3.9-6.3,6c-1.4,1.4-3.1,2.4-4.6,3.6c-0.6,0.5-1.2,1-1.7,1.5c-2.1,1.8-4.3,3.4-6.6,5.1c-0.9,0.7-1.8,1.3-2.9,1.8
		C68.3,143.6,66,143.7,63.6,143.4z M112.5,126.2c-0.1,1-0.1,2-0.3,3c-0.3,1.8-0.8,3.6-1.2,5.3c-0.3,1.5-0.6,3.1-1,4.6
		c-0.5,2.1-1.2,4.1-2,6.1c-0.9,2.1-1.5,4.3-2.5,6.3c-0.7,1.4-1,2.9-1.6,4.3c-0.6,1.4-1.1,2.9-1.7,4.3c-0.3,0.7-0.6,1.3-0.9,2
		c-1.6,3.3-3.1,6.7-4.7,10c-0.1,0.3-0.3,0.6-0.4,1.1c-0.4-0.4-0.8-0.6-1-1c-1-1.8-2.6-3.1-4-4.5c-1-1-2.1-1.9-3.1-2.9
		c-0.5-0.5-0.9-1-1.3-1.5c-0.9-0.9-1.8-1.7-2.7-2.6c-0.4-0.4-0.7-0.9-1.1-1.3c-0.7-0.6-1.4-1.2-2.1-1.8c-0.7-0.6-1.5-1.3-2.2-2
		c-1-1-1.9-2-2.9-2.9c-0.7-0.7-1.5-1.2-2.2-1.9c-0.3-0.3-0.6-0.6-0.9-0.9c-0.8-1.3-1.8-2.4-3-3.4c-0.4-0.3-0.8-0.7-1.3-1.1
		c0.9-0.5,1.6-1,2.4-1.3c1.5-0.6,2.9-1.6,4.2-2.6c1.6-1.2,3-2.6,4.5-3.9c0.9-0.8,2-1.4,2.9-2.1c2.5-2.2,5-4.4,7.5-6.7
		c1.5-1.3,3-2.7,4.4-4c1.9-1.8,3.9-3.4,5.1-5.7c1-1.9,1.9-3.9,2.9-5.9c0.4-0.9,0.7-1.8,1-2.8c0.5,0.9,1,1.8,1.4,2.7
		c0.9,1.7,1.8,3.4,3.1,4.9c0.2,0.3,0.6,0.4,0.8,0.6c1.5,1.1,2.8,2.3,3.5,4.2C112.6,123.8,112.6,125,112.5,126.2z"/>
	<path class="st0" d="M44.8,102.9c1.8-0.2,3.6-0.4,5.3-0.7c1.8-0.3,3.6-0.3,5.4-0.3c1.5,0,3,0,4.4-0.1c0.8,0,1.5,0.1,2.2,0.5
		c0.7,0.4,1.5,0.4,2.3,0.1c1.4-0.5,2.9-0.8,4.4-0.8c2,0,4-0.1,6.1-0.1c1.5,0,3.1,0.1,4.6,0c0.9,0,1.8-0.3,2.7-0.5
		c0.3-0.1,0.7-0.1,1.2-0.2c-0.4,0.9-0.7,1.7-1.1,2.4c-0.8,1.4-1.7,2.8-2.5,4.2c-1.2,2.3-2.8,4.3-4.7,6c-0.6,0.5-1.3,0.9-2.1,1.1
		c-2.6,0.8-5.2,1.3-7.9,1.2c-2-0.1-4,0-6,0c-1.4,0-2.7-0.1-4-0.5c-1.5-0.4-2.6-1.3-3.4-2.5c-1.8-2.4-3.6-4.8-5.3-7.2
		c-0.5-0.7-0.9-1.5-1.3-2.2C44.9,103.4,44.8,103.1,44.8,102.9z M46,104c0.1,0.3,0.1,0.4,0.2,0.5c0.7,1,1.3,2.1,2.1,3.1
		c1.4,1.9,2.8,3.7,4.2,5.5c0.6,0.8,1.3,1.4,2.2,1.6c1.2,0.3,2.3,0.6,3.5,0.6c3.7,0,7.5,0.4,11.2-0.3c1.3-0.2,2.7-0.6,3.9-1.1
		c1.9-0.8,3-2.4,4.1-4c1.2-1.7,2.1-3.6,3.2-5.4c0.1-0.2,0-0.5-0.1-0.6c-0.1-0.1-0.4-0.1-0.6,0c-1.1,0.8-2.2,1.6-3.4,2.4
		c-0.8,0.5-1.6,1-2.4,1.4c-1.8,0.8-3.7,1.3-5.6,1.7c-1.3,0.3-2.6,0.6-4,0.5c-1.8-0.1-3.6-0.3-5.3-0.3c-1.9,0-3.6-0.7-5.3-1.5
		c-1.1-0.5-2.1-1.1-3.1-1.7c-1.2-0.7-2.7-0.9-3.8-1.9C46.8,104.4,46.5,104.2,46,104z M47.4,103.9c0,0.1,0,0.1-0.1,0.2
		c0.6,0.3,1.3,0.6,1.9,0.9c1.6,0.8,3.2,1.6,4.8,2.3c1,0.5,2,1.1,3.1,1.3c1.6,0.3,3.3,0.5,4.9,0.6c1.4,0.1,2.8,0,4.2,0
		c0.2,0,0.3,0,0.5,0c1.2-0.3,2.4-0.6,3.5-0.9c2.2-0.5,4.3-1.4,6.2-2.7c0.7-0.5,1.4-1,2.1-1.6c0.1-0.1,0.2-0.3,0.1-0.4
		c0-0.1-0.3-0.2-0.4-0.2c-0.5,0.1-0.9,0.2-1.4,0.3c-1.6,0.3-3.1,0.5-4.7,0.7c-1,0.2-2.1,0.3-3.2,0.4c-2,0.3-3.9,0.9-5.9,0.7
		c-0.5,0-1,0-1.5-0.1c-1.2-0.2-2.4-0.3-3.6-0.5c-1.2-0.2-2.5-0.4-3.7-0.6c-0.9-0.1-1.8-0.2-2.8-0.3c-1-0.1-2-0.3-3-0.3
		C48.3,103.7,47.8,103.8,47.4,103.9z M79,102.6c0-0.1,0-0.2,0-0.2c-0.3,0-0.6-0.1-1-0.1c-1.3,0-2.6,0-4,0c-1.8,0-3.6,0.1-5.4,0.1
		c-1.2,0-2.3,0.1-3.4,0.5c-1.2,0.5-2.4,0.6-3.7-0.1c-0.6-0.3-1.3-0.5-2.1-0.4c-2.1,0.1-4.1,0.1-6.2,0.2c-1.5,0.1-3,0.3-4.5,0.4
		c0.9,0.2,1.7,0.2,2.6,0.3c1.3,0.1,2.7,0.3,4,0.5c1.3,0.2,2.6,0.4,4,0.6c1.3,0.2,2.7,0.3,4,0.5c0.6,0.1,1.3,0.2,1.9,0.1
		c0.7-0.1,1.4-0.3,2.1-0.5c1.2-0.2,2.4-0.5,3.6-0.7c0.8-0.1,1.6-0.1,2.4-0.2c1.2-0.2,2.5-0.2,3.7-0.6
		C77.6,102.8,78.3,102.7,79,102.6z"/>
	<path class="st0" d="M95.7,61.3c-0.1,0.6-0.3,0.8-0.8,0.6c-0.3-0.1-0.7-0.3-0.9-0.6c-1.1-1.3-2.6-2.1-4.2-2.6
		c-1.2-0.4-2.3-0.9-3.5-1.2c-0.5-0.2-1-0.3-1.5-0.3c-2-0.1-3.9-0.1-5.9,0.1c-1.3,0.2-2.4,0.5-3.6,1c-0.6,0.2-1.2,0.6-1.7,0.9
		c-0.3,0.2-0.6,0.3-1,0.4c-0.4,0.2-0.8,0.2-1-0.4c-0.1-0.2-0.3-0.3-0.3-0.4c-0.1-0.3-0.3-0.6-0.2-0.9c0.3-1.1,0.9-1.9,1.9-2.3
		c1.5-0.5,3-1.1,4.5-1.5c0.8-0.2,1.8-0.2,2.6-0.2c1.2,0,2.3,0,3.5,0c2.1,0,4.1,0.2,6,1c0.7,0.3,1.4,0.6,1.9,1.3
		c0.5,0.6,1.2,1.1,1.8,1.6c0.7,0.8,1.4,1.6,2.1,2.4C95.5,60.5,95.5,61,95.7,61.3z"/>
	<path class="st0" d="M91,66.4c-1.4,1.1-2.8,2-4.4,2.4c-1.2,0.3-2.5,0.7-3.7,1c-1.3,0.3-2.6,0.1-3.9-0.1c-2.1-0.4-4.1-1.2-6.3-1
		c-0.3,0-0.7-0.1-1-0.1c-0.7-0.2-0.9-0.4-0.6-1.2c0.8-2.1,2.2-3.7,4-5c0.3-0.2,0.6-0.4,0.9-0.7c0.8-0.7,1.8-1.1,2.9-1.2
		c1.3-0.2,2.6-0.5,3.9-0.7c0.6-0.1,1.3,0,1.9,0.1c1,0.2,1.9,0.5,2.9,0.8c0.2,0.1,0.4,0.3,0.6,0.4c0,0.1-0.1,0.1-0.1,0.2
		c-0.6-0.1-1.3-0.3-1.9-0.4c-1.6-0.2-3.2-0.4-4.8-0.1C80,61,78.7,61.3,77.4,62c-1.5,0.9-2.9,1.9-4,3.2c-0.4,0.4-0.6,0.9-0.9,1.4
		c0.4-0.1,0.8-0.2,1.1-0.4c1.1-1,2.4-1.5,3.7-2.1c1.6-0.7,3.2-1.1,5-0.9c1.1,0.1,2.3,0.4,3.4,0.7c1.3,0.4,2.7,1,4,1.5
		C90.2,65.6,90.5,66,91,66.4z M83.1,69.1c1.1-0.3,2-0.6,2.9-0.9c1.1-0.4,2.2-0.7,3.3-1.1c0.2-0.1,0.4-0.4,0.5-0.6
		c-0.2-0.2-0.3-0.4-0.5-0.5c-0.4-0.1-0.9-0.1-1.3-0.3c-0.9-0.3-1.9-0.6-2.8-0.9c-0.2-0.1-0.5,0-0.8,0.1c-0.1,0,0,0.4,0,0.6
		c0.1,0.8,0.1,1.5-0.4,2.2C83.6,68.2,83.4,68.6,83.1,69.1z M78.5,68.8c0,0,0-0.1,0.1-0.1c-0.1-0.1-0.2-0.3-0.3-0.4
		c-0.4-0.5-0.9-1-0.8-1.7c0.1-1.1-0.3-1.3-1.3-0.8c-0.1,0-0.1,0.1-0.2,0.1c-0.8,0.4-1.5,0.8-2.3,1.2c-0.4,0.2-0.8,0.4-1.2,0.6
		c0,0.1,0,0.2,0,0.2c0.3,0.1,0.6,0.2,1,0.2c0.9,0,1.8,0.1,2.7,0.3C77,68.6,77.7,68.7,78.5,68.8z M81.5,65.8c0-0.5-0.3-0.7-0.6-0.8
		c-0.3-0.1-0.8,0.4-0.7,0.8c0.1,0.4,0.2,0.7,0.7,0.7C81.4,66.4,81.4,66,81.5,65.8z"/>
	<path class="st0" d="M52.8,66.8c-1.8-2.7-4.3-4.2-7.4-4.7c-3.1-0.5-5.9,0.1-8.5,2c-0.5-0.8-0.1-1.6,0.9-1.9
		c0.8-0.3,1.6-0.4,2.4-0.7c1.2-0.4,2.4-0.4,3.6-0.4c1.3,0,2.6,0.3,3.9,0.5c1.9,0.2,3,1.5,4.1,2.8c0.8,1,1.6,1.9,2.4,2.9
		c0.4,0.4,0.2,1.2-0.3,1.3c-1.3,0.4-2.5,0.8-3.8,1.3c-2.6,1-5.2,1.3-7.9,1c-0.9-0.1-1.8-0.5-2.6-0.9c-0.9-0.4-1.7-0.8-2.5-1.3
		c-0.4-0.3-0.8-0.6-1.2-1c0.8-0.7,1.6-1.4,2.7-1.7c1.1-0.4,2.2-0.9,3.3-1.2c0.6-0.2,1.3-0.2,1.9-0.3c0.7-0.1,1.4,0,2.1-0.1
		c1.3-0.1,2.4,0.5,3.6,1c0.9,0.4,1.7,0.8,2.6,1.2C52.2,66.5,52.5,66.6,52.8,66.8z M52.6,68c-0.3-0.2-0.5-0.4-0.8-0.5
		c-1-0.5-2-0.9-3-1.4c-0.6-0.3-0.8-0.1-0.8,0.5c-0.1,1.6-0.7,2.8-2.3,3.5C48.1,69.7,50.4,68.9,52.6,68z M41.8,66
		c-0.2,0.1-0.4,0.1-0.5,0.1c-0.7,0.3-1.4,0.6-2.1,0.9c-0.3,0.1-0.7,0.2-1,0.3c-0.2,0.1-0.3,0.3-0.3,0.4c0,0.1,0.1,0.3,0.2,0.4
		c0.5,0.3,1,0.6,1.6,0.9c1.3,0.7,2.6,1.2,4.2,0.9C42,69.3,41.6,67.8,41.8,66z M44.3,66.9c0,0.3,0.4,0.5,0.8,0.5
		c0.4,0.1,0.8-0.5,0.8-0.9c0-0.4-0.4-0.8-0.7-0.8C44.7,65.7,44.3,66.2,44.3,66.9z"/>
	<path class="st0" d="M30.8,61.9c0.2-0.4,0.4-0.7,0.7-1c0.3-0.4,0.7-0.7,1-1.1c2-2.1,4.4-3.4,7.2-4c2.2-0.5,4.5-0.7,6.8-0.6
		c0.7,0,1.5,0.2,2.2,0.3c0.9,0.2,1.8,0.5,2.6,0.8c0.1,0,0.2,0.1,0.3,0.1c0.4,0.2,0.7,1.3,0.4,1.9c-0.2,0.4-0.6,0.5-1.2,0.4
		c-2.2-0.6-4.5-0.8-6.8-0.4c-1.4,0.2-2.7,0.3-4.1,0.6c-0.8,0.2-1.6,0.5-2.4,0.8c-1.2,0.5-2.5,1-3.7,1.6c-0.6,0.3-1.1,0.7-1.6,1.2
		c-0.4,0.3-0.7,0.2-1.1,0.1C31,62.4,30.9,62.1,30.8,61.9z"/>
	<path class="st0" d="M75.8,85.5c0.1,1.7-0.7,2.8-2.1,3.5c-0.5,0.2-1.1,0.2-1.6,0.3c-0.7,0.1-1.3,0.1-2,0.3c-1.3,0.4-2.5,1-3.1,2.3
		c-0.6,1.2-1.7,1.9-3,2.1c-1.4,0.1-2.7,0.1-3.9-0.7c-0.6-0.4-1.3-0.8-1.7-1.3c-0.6-1-1.5-1.4-2.6-1.6c-0.9-0.1-1.9-0.1-2.9-0.1
		c-1.1,0-2.2,0.2-3.3-0.6c-1.1-0.8-1.6-2.1-1.5-3.4c0.1-0.7,0.4-1.4,0.8-2c0.6-1,1.1-2,1.6-3c0.1-0.1,0.1-0.3,0.3-0.4
		c0.1-0.1,0.3-0.1,0.4-0.1c0.1,0.1,0.2,0.3,0.2,0.5c-0.1,0.2-0.3,0.4-0.4,0.6c-0.6,1.2-1.3,2.4-1.9,3.6c-0.6,1.3-0.1,2.9,1,3.6
		c0.3,0.2,0.7,0.3,1,0.3c1,0,2,0,3,0c1.4,0,2.7,0.3,3.9,1.1c0.5,0.3,1,0.8,1.4,1.2c1.4,1.5,3.1,1.8,5,1.4c0.4-0.1,0.8-0.5,1.2-0.8
		c0.6-0.6,1-1.3,1.6-1.9c1.1-1.2,2.5-1.7,4.2-1.8c0.8,0,1.5-0.2,2.3-0.4c0.6-0.2,1.4-1.3,1.4-2c0-1,0.1-2.1-0.4-3.1
		c-0.5-1.1-1.3-2-2.2-2.8c-0.2-0.1-0.4-0.3-0.5-0.4c-0.1-0.1-0.1-0.4,0-0.5c0.1-0.1,0.4-0.1,0.5,0c1.3,1,2.4,2.1,2.9,3.6
		C75.6,83.9,75.7,84.7,75.8,85.5z"/>
</g>
</svg>
