<?xml version="1.0" encoding="utf-8"?>
<!-- Generator: Adobe Illustrator 19.2.1, SVG Export Plug-In . SVG Version: 6.00 Build 0)  -->
<svg version="1.1" id="Layer_1" xmlns="http://www.w3.org/2000/svg" xmlns:xlink="http://www.w3.org/1999/xlink" x="0px" y="0px"
	 viewBox="0 0 143.9 179.2" style="enable-background:new 0 0 143.9 179.2;" xml:space="preserve">
<style type="text/css">
	.st0{fill:#03A9FE;}
</style>
<g id="pharm-henry">
	<path class="st0" d="M0.7,123.1c2.2-0.6,4.3-1.2,6.4-1.9c0.8-0.3,1.5-0.7,2.3-1c0.5-0.2,1.1-0.3,1.6-0.6c1.6-0.8,3.2-1.7,5-2.1
		c1.5-0.4,2.8-1.1,4.2-1.6c0.5-0.1,1.1-0.2,1.6-0.4c1.4-0.4,2.9-0.8,4.2-1.4c1.3-0.6,2.8-0.6,4.2-1c1-0.2,2-0.4,3-0.6
		c0.1,0.1,0.1,0.2,0.2,0.3c-0.2,0.1-0.4,0.1-0.5,0.2c-1.6,1.3-3.2,2.6-4.7,4c-0.9,0.8-1.5,1.9-2.4,2.8c-0.9,1-2,1.8-2.9,2.8
		c-1.4,1.4-2.8,2.9-4.2,4.4c-0.9,1.1-1.8,2.2-2.7,3.2c-0.4,0.4-1,0.2-1.4,0c-1-0.6-2-1.2-3.1-1.8c-0.1-0.1-0.2-0.1-0.3-0.1
		c-0.3,1,0,2,0.2,3c0,0.1,0.1,0.2,0.1,0.3c0.1,2.5,0.3,4.9,0.4,7.3c0.1,0.8,0.2,1.5,0.2,2.3c0.1,1.7,0.1,3.4,0.3,5.1
		c0.2,1.4,0.5,2.9,0.7,4.4c0.1,0.5,0.1,1.1,0.2,1.7c0.3,2.4,0.6,4.9,0.9,7.4c0.2,1.6,0.8,3.2,0.7,4.7c-0.1,1.8,0.3,3.5,0.3,5.2
		c0,2,0.2,3.9,0.3,5.9c0.1,1.2,0.3,2.4,0.4,3.6h1.5c0-1,0-1.9-0.1-2.9c0-2.2-0.2-4.4-0.4-6.6c-0.2-1.9-0.3-3.7-0.5-5.6
		c-0.1-0.5-0.3-1-0.4-1.5c-0.3-2.2-0.6-4.4-0.8-6.6c-0.3-2.3-0.5-4.6-0.7-6.9c-0.4-4.1-0.9-8.2-1.3-12.3c-0.1-1.6-0.2-3.1-0.3-4.7
		c0-0.3,0.1-0.5,0.1-0.8c2.2,0.5,4.1,1.4,6,2.4c1.8,1,3.7,1.9,5.6,2.9c0.2,0,0.3,0.1,0.5,0.2c0.3,0.1,0.6,0.3,0.8,0.2
		c0.2-0.1,0.3-0.4,0.4-0.7c0.1-0.1-0.1-0.3-0.2-0.4c-0.9-0.5-1.7-0.9-2.6-1.4c-1.3-0.7-2.5-1.4-3.8-2.1c-0.9-0.5-1.7-0.9-2.6-1.4
		c0-0.1,0.1-0.3,0.2-0.4c1-1.2,2.1-2.5,3.2-3.7c2.1-2.2,4.4-4.1,6.3-6.4c1.6-2,3.7-3.5,5.5-5.3c0.7-0.7,1.5-1.3,2.3-2
		c0.3,0.5,0.6,1.1,0.9,1.6c1.1,1.8,2.2,3.6,3.2,5.4c0.2,0.5,0.3,1.1,0.3,1.6c-0.2,2.7-0.5,5.3-0.8,8c-0.1,1.2-0.2,2.4-0.3,3.6
		c-0.2,2.9-0.5,5.9-0.3,8.8c0.3,4,0.2,7.9,0.4,11.9c0.2,2.6,0.7,5.2,1,7.8c0.2,1.5,0.5,3,0.6,4.5c0.1,1.1,0,2.1,0,3.1
		c0.1,1.7,0.1,3.4,0.2,5.1c0.1,1.5,0.2,3,0.3,4.6h1.6c-0.1-1.1-0.2-2.2-0.3-3.4v-0.1c-0.1-2.6-0.2-5.3-0.3-8c0-0.4,0.1-0.8,0.2-1.3
		c0.6,0.6,1.2,1.1,1.6,1.6c0.4,0.4,0.8,0.7,1.2,0.4c0.5-0.3,0.3-0.7,0.1-1.1c-0.8-1.6-1.6-3.1-2.4-4.7c-0.2-0.4-0.4-0.8-0.7-1.2
		c-0.7-1-0.6-2.1-0.4-3.3c0.1-0.4,0.1-0.7,0.1-1.1c0-1.4,0.6-2.4,1.7-3.2c0.9-0.6,1.9-1.2,3.1-1.4c0.5-0.1,1-0.1,1.5,0
		c0.2,0.1,0.6,0.4,0.7,0.7c1.2,2.5,1.7,5.2,2.7,7.8c0.5,1.2,0.7,2.6,1.1,3.9c0.3,1,0.9,2,1.2,3c0.5,1.7,0.9,3.4,1.3,5.1
		c0.3,1.4,0.9,2.7,1.8,3.8c0.7,0.8,1.4,1.6,2,2.5h1.6c-0.2-0.2-0.4-0.4-0.6-0.6c-0.8-0.8-1.4-1.7-2.1-2.6c-0.7-1-1.3-2-1.5-3.2
		c-0.2-1.3-0.6-2.5-0.9-3.8c-0.5-1.7-1.1-3.3-1.8-5c-0.6-1.5-0.9-3.3-1.4-4.9c-0.4-1.3-1-2.5-1.2-3.8c-0.3-1.4-0.9-2.6-1.6-3.8
		c-0.5-0.7-1.2-1.2-2.3-0.6c-0.3,0.2-0.5,0.2-0.8,0.3c-2.5,0.6-4.4,1.9-5.4,4.5c-0.2-1.7-0.4-3.1-0.4-4.6c0-3.4-0.1-6.9-0.1-10.3
		v-6.2c0-0.8,0-1.5,0.1-2.3c0.2-2.5,0.5-5.1,0.8-7.6c0-0.7,0.1-1.4,0.2-2.2c0.4,0.7,0.7,1.2,1,1.8c1.1,2.2,1.7,4.7,2.5,7
		c0.1,0.2,0.2,0.5,0.3,0.8c0.4,1.6,0.8,3.2,1.3,4.7c0.5,1.7,1.3,3.4,1.9,5.1c0.5,1.4,0.5,2.9,1.2,4.3c0.9,2.1,1.7,4.3,2.5,6.4
		c0.3,0.8,0.6,1.6,0.9,2.4c0.4,1.3,0.7,2.6,1.1,3.8c0.5,1.2,1,2.3,1.5,3.5c0.9,2.3,1.8,4.7,2.9,7c0.7,1.5,1.8,2.8,2.7,4.2
		c1.2,1.9,2.3,3.8,3.5,5.7h4.6c0.8-0.3,1.7-0.5,2.5-0.8c0.5-0.1,0.9-0.4,1.4-0.5c1.9-0.6,3.8-1.1,5.7-1.7c2-0.6,3.8-1.6,5-3.4
		c0.8-1.1,1.7-2,2.4-3.1c0.9-1.5,1.8-3,2.6-4.5c0.6-0.9,0.9-2,1.5-3c0.5-0.9,1.4-1.1,2.4-0.8c1.9,0.6,3.6,1.7,4.9,3.3
		c1.1,1.4,2.2,2.9,3.4,4.3c0.1,0.2,0.3,0.4,0.5,0.5c-0.2,1.7-0.4,3.4-0.6,5.1c-0.2,1.2-0.4,2.5-0.6,3.8c0,0.3-0.1,0.5-0.1,0.8h1.5
		c0.2-1.2,0.4-2.4,0.6-3.7c0.3-2.1,0.7-4.2,0.9-6.3c0.2-2.5,0.9-4.8,1.9-7.1c0.4-0.9,0.6-1.9,0.5-2.9c-0.3-2.6,0.6-5.1,0.5-7.7
		c0-0.7,0.3-1.5,0.5-2.3c0.3-1.4,0.5-2.8,0.8-4.2c0.1-0.6,0.1-1.2,0.3-1.8c0.5-1.8,0.8-3.6,0.9-5.4c0-1.3,0.3-2.5,0.4-3.7
		c0.1-0.8,0.1-1.6,0.1-2.4c0-2.3,0.1-4.7,0.1-7c0-2.4,0-4.8-0.1-7.2c-0.2-3.6-0.9-7.1-2.6-10.3c-0.3-0.5-0.6-1-0.9-1.5
		c0.5-0.4,0.9-0.3,1.3,0.1l1.5,1.5c1.1,1.1,2.2,2.2,3.4,3.1c1.6,1.3,3.4,2.6,5.1,3.8c0.6,0.5,1.3,0.7,1.9,1.1
		c0.2,0.1,0.3,0.3,0.5,0.5c0.2,0.3,0.5,0.6,0.7,1c0.5,0.9,0.9,1.8,1.4,2.7c0.9,1.8,1.9,3.5,2.7,5.3c1.4,3,2.7,6.1,4.1,9.2
		c0.4,0.9,0.3,1.1-0.5,1.6c-1.9,1.2-3.9,2.4-5.8,3.6c-1.4,0.8-2.7,1.6-4.1,2.4c-0.3,0.2-0.7,0.2-1,0.3c-0.5,0.1-1.1,0.6-1.1,1.1
		c0,0.3,0.1,0.8,0.3,0.9c0.2,0.1,0.6,0,0.9-0.1c1.2-0.6,2.3-1.3,3.5-2c1.4-0.9,2.9-0.9,4.3-0.5c2.1,0.6,4.1,1.5,6.1,2.3
		c1,0.4,2,0.9,3,1.3c0.2,0.1,0.4,0.1,0.8,0.2c-0.1,0.7-0.2,1.4-0.4,2.1c-0.6,2.2-1.3,4.4-2,6.6c-0.6,2.1-1.4,4.2-2.1,6.3
		c-0.6,2-1.4,3.9-2.1,5.9c-0.4,1.2-0.8,2.5-1.2,3.8c-0.5,1.8-1.1,3.6-1.6,5.4c-0.2,0.6-0.2,1.3-0.4,1.9c-0.2,0.7-0.5,1.4-0.8,2.1
		h1.7c0.4-1.6,0.9-3.1,1.3-4.7c0.6-2,1.2-3.9,1.8-5.9c0.4-1.5,0.9-2.9,1.4-4.3c0.4-1.3,0.8-2.6,1.3-3.9c0.5-1.6,1.2-3.2,1.7-4.8
		c0.8-2.6,1.5-5.1,2.3-7.7c0.1-0.6,0.2-1.3,0.4-1.9c0.3-1,0-1.8-0.2-2.7c-0.1-0.5-0.4-0.6-0.8-0.3c-0.5,0.4-0.9,0.2-1.4,0
		c-2.5-1.2-4.9-2.4-7.5-3.2c-0.7-0.2-1.4-0.2-2.2-0.4c0.9-0.5,1.8-1.1,2.6-1.6c1-0.7,2-1.3,3-2c0.5-0.3,0.6-0.8,0.4-1.4
		c-1.1-2.5-2-5.2-3.2-7.7c-1-2.4-2.3-4.6-3.5-7c-0.5-1-0.8-2.1-1.3-3.2c0.2,0.1,0.4,0.1,0.5,0.2c2.3,1.2,4.5,2.4,6.9,3.5
		c2.2,0.9,4.4,1.7,6.6,2.5c2.9,1.1,5.9,2,8.8,3v-1.3c-2.4-0.9-4.9-1.7-7.4-2.6c-3.6-1.2-7-2.6-10.4-4.4c-2.3-1.2-4.6-2.3-6.9-3.4
		c-2.1-1-3.9-2.4-5.7-3.8c-1-0.8-2-1.4-2.8-2.3c-0.9-1.1-2-1.9-3-2.8c-0.4-0.3-0.9-0.6-1.3-0.9c-1.7-1.2-3.3-2.4-5-3.6
		c-0.2-0.2-0.5-0.3-0.8-0.5c0.4-3.5,0.8-7.1,1.3-10.7c1.4-0.1,2-1.4,3-2.2c1.4-1,1.5-2.6,1.8-4c0.4-1.6,0.4-3.3,0.6-4.9
		c0.6-4.4,0.2-8.8,0.2-13.2c0-1.9-0.8-3.7-2.5-4.8c-0.3-0.2-0.8-0.3-1-0.4c0.5-1.9,1.1-3.6,1.3-5.4c0.3-1.8,0.1-3.6,0.1-5.4
		c0-1.1-0.1-2.2-0.2-3.3c-0.1-1.5-0.3-3.1-0.5-4.6c-0.3-2-0.8-3.9-1.1-5.9c-0.2-1.3-0.3-2.7-0.4-4c-0.1-1.6-0.7-3.1-1.3-4.5
		c-0.6-1.4-1.2-2.8-1.9-4.1c-1-2.1-2.4-4-4-5.6c-0.5-0.4-0.8-1-1.3-1.4c-1.9-1.7-3.9-3.4-5.8-5.1c-0.7-0.7-1.4-1.3-2-2
		c-1.4-1.5-3-2.4-4.7-3.4c-0.5-0.2-0.9-0.5-0.9-0.8c-2.6-1.5-5.3-2.6-8.3-3.1c-1.2-0.2-2.3-0.5-3.5-0.7c-0.9-0.2-1.8-0.3-2.7-0.4
		C65.6,0.1,64.4,0,63.3,0c-1,0-2,0.2-3,0.2c-0.9,0-1.9-0.1-2.8-0.1c-1.1,0-2.3,0.1-3.5,0.2c-0.6,0-1.2,0.2-1.8,0.2
		c-2-0.1-3.8,0.3-5.7,0.7c-2.1,0.4-4.1,1-5.9,2c-1.7,1-3.2,2.3-4.5,3.9c-1.5,1.8-3.1,3.6-5,5c-1.2,1-2.5,2.1-3.7,3.1
		c-2.2,1.8-3.9,4-5.2,6.5c-0.5,0.9-1.2,1.9-1.7,2.9c-1.3,2.6-2.6,5.3-3.6,8.1c-0.6,1.5-0.7,3.2-1,4.8c-0.2,1.2-0.4,2.3-0.6,3.4
		c-0.3,1.7-0.7,3.4-0.6,5.2c0.1,1.6,0.1,3.2,0,4.8c-0.1,1.9,0.5,3.5,1.1,5.2c0.9,2.4,2.6,4.3,3.9,6.4c1,1.6,2,3.2,2.4,5.1
		c0,0.1,0.1,0.3,0.1,0.4c0.2,0.6,0.4,1.1-0.4,1.6c-0.6,0.4-1.1,1.3-1.2,2.1c-0.3,1.6-0.3,3.1-0.2,4.7c0,1,0.3,1.9,0.7,2.8
		c0.8,1.7,1.1,3.6,1.5,5.5c0.5,2.9,1.5,5.6,2.9,8.2c0.5,0.9,1.1,1.8,1.7,2.7c0.3,0.4,0.8,0.8,1.2,0.9c1.5,0.5,2.2,1.4,2.5,3
		c0.3,1.5,0.8,2.9,1.2,4.4c0.6,2.2,1.2,4.5,1.8,6.8c-0.5,0-1.1,0.2-1.6,0.2c-2.1-0.1-3.9,0.5-5.7,1.5c-0.7,0.5-1.7,0.5-2.5,0.8
		c-1.6,0.5-3.1,1-4.6,1.5c-2,0.7-4,1.4-6,2.2c-1.3,0.5-2.5,1.2-3.7,1.8c-1.7,0.9-3.6,1.3-5.4,1.7c-1.5,0.4-3,0.9-4.4,1.3
		c0,0.5,0.1,1.1,0.1,1.6C0.3,123.2,0.5,123.2,0.7,123.1z M64.6,177.8c-1.3-1.9-2.5-3.8-3.7-5.7c-0.8-1.3-1.6-2.6-2.3-4
		c-1-2.1-1.8-4.2-2.6-6.4c-0.9-2.3-1.8-4.5-2.4-6.9c-0.3-1.3-0.9-2.6-1.4-3.9c-0.5-1.4-1.1-2.7-1.6-4.1c-0.4-1-0.6-2-0.9-3
		c-0.5-1.4-1.1-2.8-1.6-4.3c-0.7-2.3-1.4-4.7-2.1-7c-0.6-2.1-1.1-4.3-2.1-6.3c-0.5-0.9-0.9-1.9-1.3-2.9c0.1-0.1,0.1-0.1,0.2-0.2
		c0.9,0.7,1.9,1.4,2.8,2.2c0.9,0.7,1.7,1.5,2.6,2.2c1.6,1.1,3.2,2.2,4.8,3.2c1.7,1.1,3.5,2.3,5.3,3.3c1.5,0.8,3.1,1.4,4.7,2
		c1,0.4,2.1,0.8,3.1,0.8c1.5,0,3.1-0.1,4.7-0.3c1.5-0.2,3.1-0.4,4.4-1.3c1.7-1.1,3.3-2.4,4.9-3.7c0.8-0.7,1.6-1.4,2.3-2.1
		c1.2-1.2,2.5-2.5,3.7-3.8c1.1-1.3,2.1-2.8,3.2-4.2c0.9-1.2,1.9-2.3,2.8-3.5c0.7-0.9,1.3-1.9,1.8-2.9c0.9-1.8,1.8-3.6,2.7-5.4
		c0.4-0.9,0.7-1.8,1.1-2.8c0.1,0.2,0.1,0.3,0.2,0.4c1,1.7,1.1,3.6,1.2,5.6c0.1,1.6,0.3,3.1,0.5,4.6c0.2,1.1,0.6,2.1,0.7,3.2
		c0.1,1.6,0,3.3-0.1,5c0,0.5-0.2,1.1-0.4,1.6c-0.6,1.9-1.2,3.9-1.9,5.8c-1.1,3.3-2.1,6.6-3.4,9.8c-1.2,2.8-2.1,5.7-3.8,8.3
		c-0.1,0.1-0.1,0.1-0.1,0.2c-1.2,2.8-2.5,5.5-4.3,8.1c-1.4,2.1-2.9,4-4.8,5.6c-0.7,0.6-1.4,1.1-2.2,1.6c-1.4,0.8-2.8,1.5-4.1,2.3
		c-1.8,1.2-3.5,2.5-5.3,3.6c-1.7,1-3.3,2.3-4.6,3.8C64.9,176.7,64.6,177.3,64.6,177.8z M101,108.4c1.3,1.6,2.4,3.3,3.7,4.8
		c1.5,1.7,2.2,3.7,2.1,6c-0.1,5.7,0.4,11.4-0.4,17.1c-0.2,1.5-0.3,3.1-0.6,4.6c-0.2,1.2-0.5,2.4-0.7,3.6c-0.3,1.5-0.5,2.9-0.8,4.4
		c-0.1,0.8-0.3,1.7-0.4,2.5s-0.1,1.6-0.2,2.4c-0.3,1.4-0.5,2.8-0.5,4.3c0.1,0.9,0,1.8-0.2,2.6c-0.3,1.5-0.8,2.9-1.2,4.4
		c-0.2,0.8-0.3,1.7-0.6,2.4c-0.1,0-0.2,0.1-0.3,0.1c-0.2-0.2-0.5-0.5-0.7-0.8c-0.1-0.1-0.2-0.1-0.2-0.2c-1.3-2.1-3.2-3.8-5.2-5.3
		c-1.4-1-3-1.7-4.8-1.6c-1.1,0.1-2.4,1.3-2.6,2.4c-0.1,0.6-0.3,1.1-0.5,1.6c-1.4,2.8-2.9,5.6-4.9,8c-0.9,1.1-1.8,2.2-3.2,2.7
		c-1.5,0.6-3.1,1.1-4.6,1.6c-1.2,0.4-2.4,0.8-3.6,1.1c-1.7,0.5-3.3,0.9-5,1.4c0.1-0.3,0.1-0.3,0.1-0.4c1-1.9,2.7-3.1,4.4-4.3
		c1.2-0.8,2.4-1.5,3.5-2.2c1.2-0.8,2.4-1.7,3.6-2.5c1.2-0.8,2.6-1.4,3.8-2.3c1.8-1.3,3.4-2.8,4.6-4.6c1.3-1.9,2.5-3.8,3.7-5.8
		c0.6-0.9,1-1.8,1.5-2.8c0.5-0.9,0.9-1.9,1.4-2.8c0.4-0.7,0.8-1.4,1.1-2.2c0.2-0.5,0.3-1,0.5-1.5c1.2-3.2,2.5-6.3,3.7-9.5
		c0.8-2.1,1.4-4.3,2.1-6.5c0.4-1.3,1.2-2.6,1.4-3.9c0.4-2,0.5-4.1,0.6-6.1c0.1-1.2,0-2.5-0.1-3.7c-0.1-1.2-0.2-2.4-0.4-3.6
		c-0.5-2.6-1.2-5.1-2.4-7.5c-0.1-0.2-0.1-0.3-0.1-0.5C99.5,106.6,100.3,107.5,101,108.4z M103.3,61c1.4,0.3,1.9,1.2,2.3,2.2
		c-0.6,0.2-1.2,0.2-1.5,0.5c-0.5,0.5-0.7,1.2-1.1,1.8c-0.4,0.6-0.7,1.3-1.1,1.9C101.6,65,102,62.9,103.3,61z M102.3,68.2
		c0.2-0.1,0.4-0.4,0.5-0.6c0.6-1,1.1-2,1.7-3c0.3-0.5,0.6-0.4,0.9-0.1c0.5,0.6,0.6,1.3,0.6,2c0,4.7,0.2,9.4-0.5,14.1
		c-0.2,1.6-0.6,3.1-1,4.6c0,0.2-0.2,0.4-0.3,0.5c-0.7,0.7-1.4,1.4-2.1,2.1c-0.1,0.1-0.4,0.1-0.7,0.2c0.2-1.3,0.3-2.6,0.4-3.8
		c0-0.3,0-0.7,0.1-0.9c0.4-0.7,0.8-1.3,1.3-2c1.5-2.1,2-4.4,1-6.9c-0.3-0.5-0.4-1.1-0.7-1.6c-0.5-0.8-1.1-1.5-1.8-2.4
		c-0.1,0.1-0.2,0.2-0.3,0.3c0-0.3,0.1-0.5,0.1-0.7C101.4,69.2,101.6,68.6,102.3,68.2z M102.1,81c-0.3-2.9-0.6-5.9-0.9-9
		C104.1,73.3,104.5,79,102.1,81z M21.3,72.8c0.1-0.6,0.4-1.2,0.7-1.8c0-0.1,0.5-0.1,0.5,0c0.7,1.4,1.9,2.5,2.2,4.1
		c0.2,0.8,0.4,1.5,0.6,2.3c-2.7-2.8-2.8-2.9-4-2.6C21.3,74.1,21.2,73.4,21.3,72.8z M24.3,88.5c-0.9-4-1.8-8-3.2-11.9h0.3
		c0.1-0.2,0.3-0.5,0.5-0.8c0.3,0.2,0.7,0.3,0.9,0.6c0.8,1.1,1.5,2.2,2.2,3.4c0.4,0.6,0.4,1.3,0.8,1.7c0.7,0.9,0.6,1.9,0.9,2.7
		c-1.2,0.8-1.8,1.9-1.9,3.3c-0.1,0.3-0.1,0.7-0.2,1H24.3z M26.8,85.3c0.2,1,0.3,1.8,0.5,2.6s0.5,1.6,0.7,2.4
		C24.8,88.3,25.5,87,26.8,85.3z M24.7,89.2c0.5,0.3,0.8,0.4,1,0.6c0.7,0.5,1.3,1.2,2,1.6c0.6,0.4,0.9,0.7,1,1.4c0.1,1,0.4,2,0.6,3.1
		C27.7,95.5,25.3,91.9,24.7,89.2z M33.8,107.5c-0.5-1.9-0.9-3.7-1.4-5.6c-0.4-1.4-0.8-2.8-1.2-4.2c-0.1-0.3-0.1-0.7-0.2-1
		c-0.3-0.6-0.6-1.1-0.8-1.7c-0.4-1.6-0.7-3.2-1.1-4.8c-0.3-1.2-0.7-2.4-0.9-3.6c-0.4-1.9-0.7-3.8-1.1-5.7c-0.3-1.3-0.5-2.4-0.5-3.7
		V65.6c0-0.7,0-1.4-0.1-2.1c-0.2-2-0.5-3.9-0.6-5.8c-0.1-2.3,0-4.5-0.4-6.8c0,0-0.1,0-0.2,0c0.2-2.3,0.3-4.6,0.5-6.8
		c0.2-1.8,0.5-3.4,1.3-5c0.8-1.6,1.7-3.2,2.4-4.8c0.3-0.9,1-1.3,1.8-1.5c0.3,0,0.6-0.1,0.9,0c0.8,0.3,1.7,0.6,2.5,1
		c2.1,0.9,4.1,1.9,6.2,2.7c1.9,0.7,3.9,1.3,5.9,1.9c3.1,1,6.2,2.2,9.5,2.7c1.5,0.3,3,0.8,4.5,0.9c3.2,0.1,6.5,0.2,9.7-0.4
		c2.9-0.5,5.7-1.7,8.2-3.2c1-0.6,1.8-1.3,2.8-1.8c1.4-0.7,2.8-1.2,4.3-1.3c0.8-0.1,1.7-0.1,2.4,0.2c1.1,0.5,2.1,1.3,2.5,2.7
		c0.1,0.2,0.1,0.3,0.2,0.4c0.6,1.2,0.7,2.5,0.6,3.8c-0.1,1.5-0.1,3.1,0,4.6c0,1.1,0.7,2.1,1.1,3.1c0.7,1.9,1.2,3.9,1.8,5.9
		c0.5,1.7,0.9,3.4,1.6,5c1.1,2.5,2.3,4.9,2.9,7.6c0.3,1.3,0.6,2.5,0.9,3.8c0.2,0.7,0.2,1.4,0.3,2.1c0.2,1.8,0.4,3.6,0.5,5.4
		c0.1,1.5,0,3-0.1,4.4c-0.1,1.2-0.2,2.5-0.3,3.8c-0.1,1.8-0.3,3.7-0.5,5.6c-0.1,1.5-0.4,2.9-0.6,4.4c-0.1,0.8-0.5,1.6-0.4,2.4
		c0.1,0.8-0.1,1.4-0.5,2c-0.4,0.7-0.9,1.4-1.3,2.2c-0.6,1.3-1.2,2.7-1.8,4c-1,2.1-2,4.1-3.1,6.1c-0.5,0.9-1,1.6-1.6,2.4
		c-0.9,1.2-2,2.3-2.9,3.5c-1.6,2.2-3.1,4.5-5.2,6.3c-1.3,1.1-2.5,2.3-3.7,3.4c-0.9,0.9-1.9,1.7-3,2.5c-1.3,1-2.7,1.7-4.3,1.9
		c-1.1,0.1-2.3,0.3-3.4,0.4c-0.8,0.1-1.8,0.3-2.5,0.1c-2.3-0.7-4.6-1.5-6.8-2.6c-1.8-0.9-3.5-2.2-5.2-3.3c-1.7-1.2-3.5-2.3-5.2-3.6
		c-1.8-1.4-3.2-3-5.2-4.1c-0.6-0.3-1-1-1.5-1.5c-0.9-0.9-1.8-1.7-2.7-2.6c-1.6-1.7-2.6-3.8-3.5-5.9
		C34.7,110.4,34.2,108.9,33.8,107.5z"/>
	<path class="st0" d="M59.6,115.6c-1.3-0.3-2.6-0.5-3.7-1.2c-2.2-1.5-4.3-3.2-6.4-5c-0.8-0.7-2-1.1-2.2-2.3c0-0.2-0.1-0.4-0.1-0.5
		c0.2,0,0.4-0.1,0.6,0c0.8,0.1,1.6,0.7,2.6,0.3c0.5-0.2,1-0.4,1.6-0.5c1.8-0.4,3.7-0.7,5.5-1.1c1.3-0.3,2.5-0.4,3.8,0
		c0.9,0.3,1.7,0.7,2.5,1.1c0.5,0.2,1,0.1,1.3-0.3c0.2-0.2,0.4-0.4,0.6-0.6c1-0.8,2.1-1.6,3.5-1.5c1.1,0.1,2.2,0.1,3.3,0.2
		c1.1,0.1,2.3,0.2,3.4,0.3c0.7,0.1,1.4,0.2,2.1,0.2c0.4,0,1,0.1,1.2-0.1c0.8-0.7,1.5-0.3,2.3-0.1c0.2,0.1,0.4,0.4,0.4,0.5
		c0,0.2-0.2,0.4-0.4,0.5c-0.3,0.2-0.6,0.3-0.9,0.5c-0.6,0.5-1.2,1-1.9,1.6c-1.3,1.1-2.6,2.1-3.8,3.2c-0.6,0.5-1.1,1.3-1.8,1.7
		c-2,1.3-4.2,2.2-6.5,2.9c-1.5,0.4-3.1,0.4-4.3,0.5C61.3,115.8,60.4,115.8,59.6,115.6z M56.2,113.7c1.5,1,3.4,1.4,5.2,1.3
		c1.7-0.1,3.5,0.1,5.1-0.4c2.2-0.6,4.4-1.3,6.3-2.7c0.6-0.4,1.1-1,1.6-1.5c1.5-1.3,3-2.5,4.6-3.8c0.2-0.1,0.3-0.3,0.6-0.6
		c-0.6,0.1-1.1,0.2-1.6,0.4c-1.6,0.4-3.2,0.9-4.8,1.3c-2.3,0.6-4.6,1.2-7,1.7c-2.5,0.5-5,0.7-7.6,0.4c-1.5-0.2-3-0.3-4.5-0.4
		c-1.2-0.1-2.4-0.1-3.6-0.6c-0.1,0-0.2,0-0.3,0c0,0.1-0.1,0.1-0.1,0.2C52.1,110.6,54.1,112.2,56.2,113.7z M71.9,104.8
		c-0.6-0.1-1.2-0.1-1.8-0.1c-1.8-0.2-3.1,0.5-4.2,1.8c-0.6,0.6-1.3,0.8-2.1,0.6c-0.5-0.1-1-0.4-1.4-0.6c-1.3-0.8-2.7-1-4.1-0.7
		c-2.1,0.5-4.1,0.9-6.2,1.4c-0.3,0.1-0.5,0.2-0.8,0.5c1,0.3,2,0.7,3,0.9c1.3,0.3,2.5,0.4,3.8,0.5c1.6,0.1,3.1,0.2,4.7,0.1
		c1.7,0,3.5-0.3,5.1-0.9c1.4-0.5,2.9-0.7,4.3-1c1.2-0.3,2.4-0.5,3.7-0.8c0.5-0.1,1.1-0.4,1.6-0.6c0.1-0.1,0.2-0.3,0.4-0.5
		C75.7,105.2,73.8,105,71.9,104.8z"/>
	<path class="st0" d="M72.5,72.9c-1.2-0.2-2.4-0.5-3.5-0.8c-0.2,0-0.4-0.2-0.5-0.4c0-0.1,0.1-0.3,0.3-0.4c0.7-0.5,1.5-0.9,2.2-1.4
		c0.9-0.6,1.9-1.1,2.7-1.8c0.8-0.7,1.7-1,2.7-1.1c2.6-0.2,5.2,0.1,7.6,1.2c1,0.4,2,0.7,2.9,1.1c0.2,0.1,0.4,0.4,0.4,0.5
		c-0.1,0.2-0.3,0.5-0.5,0.6c-1.4,0.5-2.9,1-4.3,1.5c-2.2,0.7-4.3,1.5-6.6,1.4C74.7,73.2,73.6,73.1,72.5,72.9z M74.7,68.7
		c-1.4,0.8-2.7,1.6-4,2.4c1.5,0.8,2.9,1.1,4.6,0.9C74.2,71,75.2,69.9,74.7,68.7z M81.6,71.3c1.2-0.5,2.3-1,3.5-1.5
		c0-0.1,0-0.2,0-0.3c-1.2-0.3-2.3-0.7-3.5-1C81.6,69.5,81.6,70.3,81.6,71.3z M79.5,69.5c0-0.4-0.4-0.8-0.9-0.8c-0.6,0-1,0.3-1,0.8
		c0,0.6,0.3,0.8,0.9,0.7C79,70.2,79.5,70.1,79.5,69.5z"/>
	<path class="st0" d="M49.9,72.5c0.7,0.4,1.4,1,2,1.5c0.1,0.1,0.2,0.6,0.1,0.7c-0.2,0.2-0.5,0.2-0.8,0.3c-0.6,0.1-1.3-0.1-1.9,0.1
		c-1.2,0.3-2.3,0.8-3.4,1.2c-1.1,0.3-2.1,0.7-3.2,0.9c-1.8,0.2-3.6-0.1-5.4-0.6c-0.9-0.3-2-0.2-3-0.3c-0.2,0-0.4-0.1-0.5-0.2
		s0-0.4,0.2-0.5c0.9-0.7,1.8-1.3,2.7-1.9c1.1-0.7,2.1-1.6,3.5-1.9c1.2-0.2,2.3-1.2,3.5-0.9C46,70.8,48,71.5,49.9,72.5z M39.7,72.8
		c-0.9,0.5-1.7,0.9-2.4,1.3c-0.3,0.1-0.6,0.2-0.8,0.4c-0.2,0.2-0.4,0.5-0.5,0.7c0.2,0.2,0.4,0.4,0.7,0.5c0.8,0.2,1.6,0.4,2.4,0.6
		c0.4,0.1,0.9,0.1,1.5,0.2C39.6,75.3,39.2,74.2,39.7,72.8z M50.1,73.8c-0.2-0.2-0.5-0.5-0.8-0.6c-0.9-0.4-1.8-0.8-2.7-1.1
		c-0.5-0.2-0.8,0.2-0.7,0.7c0.1,0.6,0.2,1.3,0.2,1.9C47.5,74.5,48.8,74.2,50.1,73.8z M42.9,72.8c-0.3,0.1-0.6,0.3-0.7,0.6
		c-0.1,0.3,0.6,1,0.9,0.8c0.3-0.1,0.4-0.4,0.7-0.7C43.7,72.9,43.3,72.7,42.9,72.8z"/>
	<path class="st0" d="M55,86.5c-0.3,0.4-0.7,0.7-1,1.1c-1,1.1-2,2.2-2.4,3.6c-0.6,2.3-0.3,3.5,1.8,4.8c0.8,0.5,1.5,0.7,2.5,0.4
		c1-0.2,1.9-0.1,2.8,0.7c1.3,1.1,2.8,1.3,4.5,1.1c1.8-0.3,3.1-1.4,4.4-2.5c0.5-0.4,1.2-0.7,1.8-1c1.3-0.6,2.6-1.1,3.8-1.6
		c1.4-0.6,1.4-1.8,1.3-3c-0.1-1.8-1.4-2.5-2.7-3.1c-0.2-0.1-0.4,0.1-0.6,0.1c0.1,0.2,0.2,0.5,0.3,0.6c0.5,0.4,1.2,0.7,1.7,1.2
		c1,1,0.7,3-0.6,3.6c-1.1,0.5-2.3,0.7-3.4,1.1c-0.8,0.4-1.6,0.9-2.4,1.4c-0.2,0.2-0.4,0.4-0.6,0.6c-1.4,1.6-3.2,1.8-5.1,1.7
		c-0.8-0.1-1.6-0.7-2.3-1.1c-1-0.6-2-0.8-3.1-0.6c-1.2,0.3-3.1-0.7-3.5-1.8c-0.4-1.1-0.2-2.3,0.5-3.3s1.5-1.9,2.2-2.8
		C55.4,87.4,55.6,87,55,86.5z"/>
	<path class="st0" d="M78.4,62.7c-2.8-0.2-5.4,0.7-8,1.2c-0.9,0.2-1.7,0.6-2.5,0.9c-0.3,0.1-0.6,0.6-0.5,0.8c0.1,0.4,0.5,0.6,1,0.5
		c1.1-0.4,2.2-0.8,3.4-1.1c2.9-0.8,5.9-1.1,8.9-0.8c1.9,0.2,3.8,0,5.6,0.6c0.2,0.1,0.5,0.1,0.7,0c0.3-0.2,0.6-0.4,0.8-0.6
		c-0.3-0.2-0.5-0.7-0.8-0.7c-1.8-0.2-3.6-0.4-5.4-0.6C80.5,62.8,79.5,62.8,78.4,62.7z"/>
	<path class="st0" d="M31.4,65.8c0.1,0.1,0.2,0.4,0.4,0.5s0.5,0,0.7-0.1c0.4-0.1,0.8-0.4,1.1-0.3c1.3,0.1,2.7,0.4,4,0.6
		c1.9,0.3,3.8,0.6,5.8,0.8c2.1,0.2,4.2,0.1,6.2,0.7c0.1,0,0.1,0,0.2,0c0.4,0,1,0.2,1.1-0.5s-0.5-0.7-1-0.9c-2-0.6-4.1-0.6-6.2-0.7
		c-2.3-0.1-4.7-0.4-6.9-1c-1.5-0.4-3-0.6-4.5-0.2C31.9,64.7,31.3,64.9,31.4,65.8z"/>
</g>
</svg>
