<?xml version="1.0" encoding="utf-8"?>
<!-- Generator: Adobe Illustrator 19.1.0, SVG Export Plug-In . SVG Version: 6.00 Build 0)  -->
<svg version="1.1" id="Layer_1" xmlns="http://www.w3.org/2000/svg" xmlns:xlink="http://www.w3.org/1999/xlink" x="0px" y="0px"
	 viewBox="0 0 100 97.2" style="enable-background:new 0 0 100 97.2;" xml:space="preserve">
<style type="text/css">
	.st0{fill:#03A9F4;}
</style>
<g id="pharm-male-icon">
	<path class="st0" d="M2.7,97.2c-0.6-1.6-1.2-3.3-1.8-4.9c0-0.1-0.1-0.2-0.1-0.2c-0.3-2.6-1.1-5.3-0.6-8c0.3-1.8,1-3.5,1.6-5.2
		c1.2-3.2,4-5.1,6.6-7.1c2-1.5,3.9-2.9,5.9-4.4c1.8-1.3,3.6-2.5,5.4-3.8c0.6-0.4,1.1-1,1.7-1.5c1.6-1.4,3.2-2.7,4.8-4.1
		c1-0.9,1.8-2,2.8-2.8c1.9-1.6,3.2-3.6,4.7-5.5c1.4-1.8,2.2-3.8,2.7-6c0.2-0.9-0.7-2.5-1.4-3c-0.9-0.7-1.7-1.5-2.3-2.4
		c-0.9-1.5-1.7-3.1-2.4-4.8c-0.3-0.7-0.4-1.4-0.5-2.2c-0.1-1.8-0.3-3.7,0.7-5.4c0.3-0.6,0.9-1.1,1.4-1.5c0.7-0.5,0.9-1.2,0.6-1.9
		c-1-2.1-0.7-4.4-0.5-6.5c0.2-2.7,1.1-5.2,2.5-7.5c1.1-1.9,2.7-3.5,4.8-4.5c2.3-1,4.6-1.8,6.9-2.8C49.4,0,52.8-0.1,56.2,0
		c0.5,0,1,0.3,1.6,0.4c0.5,0.1,1,0.2,1.5,0.3c0.5,0.2,1,0.4,1.5,0.7c2.3,1.1,4.6,2.3,6.3,4.3c1.3,1.6,2.5,3.4,3.6,5.2
		c0.5,0.8,0.5,1.9,0.8,2.9c0.6,2.6,0.8,5.2,0.7,7.9c0,0.5-0.2,1-0.4,1.5c-0.3,1-0.7,2.1,0.1,3c0.9,1,1.1,2.2,1.2,3.4
		c0.1,2,0.1,4.1-0.8,6.1c-0.3,0.8-0.3,1.7-0.7,2.4c-0.5,0.8-1.1,1.6-1.9,2.1c-0.8,0.6-1.2,1.3-1.4,2.2c-0.3,1.4-0.7,2.7-1.1,4.1
		c0,0.2-0.1,0.3-0.2,0.5c-0.3,2.5-1.4,4.6-3.3,6.3c-0.8,0.8-0.8,1.1-0.3,2.1c0.2,0.3,0.2,0.7,0.2,1c0,1,0.4,1.2,1.3,1.5
		c1.4,0.4,2.7,0.9,4,1.6c2.3,1.2,4.6,2.4,6.8,3.7c1.5,0.9,3.1,1.8,4.5,2.8c1.9,1.3,3.8,2.7,5.7,4.1c1.9,1.4,2.8,3.4,3.7,5.4
		c1.3,2.7,2.4,5.6,3.7,8.3c1.3,2.7,2.7,5.4,4.1,8.1c0.8,1.4,1.8,2.6,2.7,3.9c0,0.5,0,1.1,0,1.6c-0.5,0-1.1,0-1.6,0
		c-0.2-0.4-0.4-0.8-0.6-1.1c-1-1.3-2.1-2.6-3.1-3.9c-0.2-0.3-0.4-0.6-0.5-0.9c-0.7-1.7-1.4-3.3-2.1-5c-1.4-3.3-3-6.5-4.3-9.8
		c-1-2.6-2.7-4.6-4.9-6.2c-1.9-1.4-3.9-2.7-5.9-4.1c-0.3-0.2-0.8-0.3-1.2-0.5c-0.1,0.1-0.1,0.1-0.2,0.2c0.3,0.4,0.5,0.8,0.9,1.1
		c0.9,0.8,1.9,1.5,2.8,2.3c0.3,0.3,0.6,0.9,0.5,1.3c-0.2,0.7-0.7,1.3-1.1,1.9c-0.7,1-1.4,1.9-2,2.9c-0.1,0.2,0.1,0.9,0.3,1
		c1.9,0.8,3.8,1.5,5.7,2.2c0.7,0.3,0.8,0.6,0.4,1.3c-0.3,0.4-0.6,0.8-0.9,1.2c-0.8,1.2-1.7,2.4-2.4,3.6c-0.6,1.2-1,2.5-1.6,3.7
		c-0.2,0.5-0.4,1-0.6,1.6c-0.3,1-0.5,2.1-0.8,3.1c-0.4,1.4-0.8,2.7-1.2,4c-0.6,0-1.2,0-1.8,0c0.1-0.7,0.2-1.4,0.3-2.1
		c0.1-0.5,0.3-0.9,0.4-1.4c0.3-1.3,0.5-2.6,0.9-3.8c0.4-1.3,1.1-2.6,1.7-3.9c0.6-1.3,1.3-2.6,1.9-3.9c0.4-0.7,0.8-1.4,1.2-2.1
		c-1.2-0.5-2.2-1-3.3-1.5c-0.6-0.3-1.2-0.6-1.9-0.8c-1.1-0.3-1.5-1.3-0.9-2.2c0.7-1.1,1.3-2.2,2-3.4c1.1-1.8,0.9-2.2-0.6-3.5
		c-2.5-2.2-4.9-4.5-7.3-6.7c-0.5-0.5-1.1-1.1-1.7-1.4c-0.7-0.4-1.5-0.7-2.3-0.9c-0.7-0.2-1,0.2-0.8,0.9c0.1,0.4,0.1,0.8,0,1.1
		c-0.2,0.6,0,1,0.5,1.4c3,2.6,4.9,5.9,5.5,9.9c0,0.2,0.2,0.4,0.3,0.7c0.2,0.6,0.4,1.1,0.4,1.7c0.1,0.8,0.1,1.5,0.1,2.3
		c0.1,0.9,0.3,1.8,0.4,2.7c0.1,0.7,0,1.4,0.1,2.1c0.4,2,1,4.1,1.1,6.1c0.2,2.9,0.1,5.8,0.1,8.7c-0.6,0-1.2,0-1.8,0c0-1.7,0-3.3,0-5
		c0-0.8-0.2-1.7-0.3-2.5c-0.1-0.9-0.3-1.8-0.4-2.7c-0.2-1.2-0.5-2.3-0.8-3.5c0-0.1-0.1-0.2-0.1-0.2c-1.5-2.3-3.1-4.7-4.6-7
		c-0.8,0.1-1.7,0.2-2.5,0.2c-1.1,0-1.3,0.2-1.3,1.3c0,2,0,3.9-0.1,5.9c-0.1,2.2-0.3,4.3-0.4,6.5c0,0.3,0.1,0.6,0.3,0.8
		c1.2,2.1,2.4,4.1,3.6,6.1c-0.8,0-1.7,0-2.5,0c-1-1.8-2-3.6-3.1-5.4c-0.9-1.5-1.8-2.8-2.7-4.3c-1.1-1.7-2-3.6-3.2-5.3
		c-1.7-2.5-3.6-5-5.5-7.4c-2.5-3.2-5.1-6.2-7.6-9.4c-0.4-0.5-0.8-0.9-1-1.4c-0.9-1.7-1.9-3.3-2.7-5c-0.7-1.5-1.7-2.9-1.5-4.6
		c0-0.1-0.2-0.4-0.3-0.4c-0.1,0-0.4,0.1-0.5,0.3c-0.8,0.8-1.5,1.6-2.3,2.4c-1,1.1-1.4,2.5-1.5,4c0,0.6,0.4,1.1,0.5,1.7
		c0.4,2.5,0.1,5,0.6,7.5c0.3,1.6,0.1,3.2,0.9,4.8c0.3,0.6,0.6,0.8,1.2,0.6c0.4-0.1,0.8-0.4,1.2-0.4c2.3-0.1,4.6-0.1,6.9-0.1
		c0.4,0,0.8,0.5,1,0.9c0.1,0.3-0.1,0.8-0.3,1.1c-1,1.1-2.1,2.1-3.1,3.2c-1.2,1.2-1.8,1.8,0,3.1c0.2,0.1,0.3,0.3,0.5,0.4
		c0.9,1,1.8,2,2.7,2.9c1.3,1.2,2.7,2.3,4,3.6c2.4,2.4,5.1,4.6,6.9,7.5c-0.9,0-1.8,0-2.7,0c-0.6-0.7-1.2-1.5-1.9-2.2
		c-1.2-1.3-2.3-2.6-3.5-3.8c-1.1-1.1-2.4-2-3.6-3.1c-1.9-1.8-3.7-3.7-5.9-5.1c-1.1-0.7-1.1-1.1-0.3-2c0.6-0.7,1.3-1.4,1.9-2.2
		c0.3-0.5,0.5-1,0.8-1.6c-0.7-0.1-1.3-0.2-2-0.3c0,0-0.1,0-0.1,0c-1.7,0-3.3,0.1-5,0.1c-0.4,0-1.1-0.2-1.1-0.4c-0.2-1-0.3-2-0.3-3
		c0-0.6,0.1-1.2,0-1.7C28.4,70.9,28,70,28,69c-0.1-2.4,0.2-4.8-0.7-7.1c-0.1-0.2,0-0.4,0-0.6c-0.1-0.3-0.2-0.6-0.2-0.9
		c-0.3,0.2-0.6,0.3-0.8,0.6c-0.4,0.5-0.7,1.3-1.2,1.7c-1,0.8-2.2,1.3-3.2,2.1c-2.3,1.7-4.6,3.5-6.9,5.2C12.1,72,9.4,74,6.7,76.1
		c-2.1,1.6-3.3,3.8-3.9,6.3c-0.5,1.9-0.8,4-0.4,6c0.2,1,0.2,2,0.5,2.9c0.2,0.9,0.7,1.8,1,2.7c0.4,1.1,0.7,2.2,1.1,3.3
		C4.2,97.2,3.5,97.2,2.7,97.2z M55.5,54.7c1.1-0.1,2,0.1,2.6-0.3c1.6-1,3.1-2.3,4.6-3.5c1.3-1.1,1.8-2.8,2.3-4.4
		c0.4-1.1,0.5-2.3,0.7-3.4c0-0.1,0.1-0.2,0.1-0.3c0.4-1.1,0.8-2.1,1.1-3.2c0.2-0.6,0.4-1,1-1.2c1-0.5,1.7-1.2,1.9-2.3
		c0.3-1.5,0.7-3,1-4.5c0.3-1.7,0.4-3.3-1.2-4.6c-0.8-0.6-0.8-1.6-0.5-2.5c0.4-1,0.8-1.9,1-2.9c0.1-1,0-2-0.1-3
		c-0.2-1.5-0.9-3-0.9-4.4c-0.1-2.3-1.4-4-2.6-5.7c-1.6-2.2-3.8-3.7-6.3-4.9c-0.7-0.3-1.5-0.7-2.2-0.8c-2.2-0.2-4.4-0.3-6.6-0.3
		c-1.2,0-2.4,0.2-3.5,0.5c-0.9,0.2-1.8,0.7-2.7,1c-1.4,0.5-2.8,0.9-4.1,1.5c-2,1-3.9,2.3-4.9,4.3c-0.2,0.4-0.3,0.9-0.5,1.3
		c-0.4,1.2-1.1,2.3-1.3,3.6C34,16.4,34,18.2,34,20c0,1.8,0.3,3.6,0.5,5.4c0,0.7-0.3,1.2-1.1,1.2c-1,0-1.5,0.8-1.5,1.5
		c0,1.6,0.2,3.3,0.5,4.8c0.3,1.3,0.9,2.4,1.5,3.6c0.5,1,1.1,2,2.3,2.4c1.6,0.5,2.2,1.2,2.1,2.9c0,0.6,0,1.2,0,1.8
		c0.1,1.6-0.5,3-1.2,4.4c-0.2,0.5-0.2,0.9,0.2,1.3c1.4,1.4,2.7,2.8,4.2,4.1c1.7,1.5,3.6,2.7,5.3,4.2c2.8,2.5,6,4.4,9.3,6
		c0.3,0.2,0.9,0.1,1.2,0c1.1-0.6,2.1-1.3,3.1-2.1c0.2-0.2,0.5-0.5,0.6-0.8c0.4-1.3,0.6-2.7,0.4-4.1c-0.2-1.2-0.3-1.2-1.4-0.7
		C59,56.4,58,56.8,57,57.1c-0.5,0.1-1.1-0.1-1.6-0.3c-0.5-0.1-1-0.3-1.5-0.4c-0.5-0.1-1.1,0-1.6-0.2c-1.2-0.5-2.4-1.1-3.6-1.8
		c-1.7-1-3.3-2.1-4.9-3.2c-0.2-0.1-0.4-0.6-0.3-0.9c0-0.2,0.5-0.3,0.8-0.3c0.2,0,0.5,0.1,0.8,0.2c0.8,0.4,1.5,1,2.3,1.4
		c1.4,0.8,2.8,1.7,4.3,2.2C53,54.3,54.4,54.4,55.5,54.7z M35.7,53.9c-0.1,0-0.2,0.1-0.2,0.1c0.5,1.3,0.8,2.6,1.5,3.8
		c1,1.9,1.9,3.8,3.2,5.5c2.4,3.2,4.9,6.2,7.4,9.3c0.6,0.8,1.2,1.7,1.8,2.4c0.2,0.2,0.6,0.4,0.9,0.4c0.2,0,0.3-0.5,0.4-0.8
		c0.1-0.3,0.1-0.7,0.3-1c0.4-1,0.8-2,1.3-2.9c0.7-1.5,1.5-3.1,2.3-4.6c0.3-0.5,0.2-0.9-0.3-1.1c-0.2-0.1-0.5-0.2-0.7-0.3
		c-2.4-1.2-4.7-2.6-6.7-4.4c-3-2.6-6.1-5-9.1-7.5c-0.4-0.3-0.7-1.1-1.3-0.6c-0.4,0.3-0.4,1-0.6,1.5C35.7,53.6,35.7,53.7,35.7,53.9z
		 M61,73.3c0.6,0,1.1,0,1.5,0c0.5-0.1,1.1-0.1,1.5-0.4c1.1-1,1.2-2.5,1.6-3.8c0.1-0.3-0.2-0.9-0.5-1.1c-1.1-1.1-2.3-2.1-3.4-3.2
		c-0.7-0.7-1.3-0.8-2.1-0.4c-0.4,0.2-0.8,0.3-1.1,0.5c-0.7,0.6-1.5,1.2-2.1,2c-0.6,0.8-1,1.8-1.4,2.7c-0.2,0.4-0.4,0.9-0.2,1.2
		c0.2,0.3,0.7,0.4,1.2,0.6c0.5,0.2,1,0.2,1.4,0.4C58.6,72.4,59.3,74,61,73.3z M57.9,77.5c0.2-1.5,0.1-3-1.5-3.8
		c-0.5-0.2-1.1-0.2-1.6-0.4c-0.8-0.4-1.1,0-1.4,0.6c-0.6,1.1-1.3,2.1-1.9,3.2c-0.1,0.2-0.1,0.6,0.1,0.8c1.2,1.9,2.5,3.7,3.7,5.6
		c0.6,0.9,1.1,1.8,1.6,2.6c0.1,0.2,0.5,0.3,0.7,0.4c0.1-0.2,0.3-0.4,0.3-0.6C57.9,83,57.9,80.3,57.9,77.5z M65.7,74.4
		c0.4,0.8,0.6,1.6,1,2.2c0.5,1,1.1,2,1.6,2.9c0.2,0.3,0.4,0.4,0.7,0.7c0.1-0.3,0.2-0.6,0.2-0.9c-0.5-2.2-1.1-4.3-1.6-6.5
		c-0.1-0.5-0.4-0.7-0.7-0.3C66.4,73.1,66.1,73.8,65.7,74.4z"/>
</g>
</svg>
