<?xml version="1.0" encoding="utf-8"?>
<!-- Generator: Adobe Illustrator 19.1.0, SVG Export Plug-In . SVG Version: 6.00 Build 0)  -->
<svg version="1.1" id="Layer_1" xmlns="http://www.w3.org/2000/svg" xmlns:xlink="http://www.w3.org/1999/xlink" x="0px" y="0px"
	 viewBox="0 0 150 101.7" style="enable-background:new 0 0 150 101.7;" xml:space="preserve">
<style type="text/css">
	.st0{fill:#03A9F4;}
</style>
<g id="doctor-patient">
	<path class="st0" d="M41.3,89.6c0.3-1.3-0.7-2.4-1.6-3.4c-4.1-4.3-7.1-9.7-8.6-15.5c-1.5,2.1-1.3,5.3,0.5,7.2
		c1.8,2,1.6,5.5-0.5,7.2c-2.1,1.7-5.6,1.3-7.2-0.9c-1.6-2.2-1-5.6,1.3-7.1c1.5-0.9,1.6-3,1.7-4.7c0.5-8.5,3-16.9,7.1-24.3
		c-2.2,1.6-5.2,1.4-7.9,1.7c-7.2,0.9-13.1,6.4-16.4,12.8c-3.4,6.4-4.6,13.6-5.8,20.7c-0.8,5.1-1.7,10.3-2.5,15.4
		c-0.5-0.1-1-0.2-1.5-0.4c1-7.4,2.1-14.9,3.6-22.2c1.3-5.9,2.9-11.9,6.1-17C13,54.2,18.1,50,24,49c3-0.5,6.1-1,9.1-1.5
		c0.5-0.3,0.4-1,0-1.4c-0.4-0.3-1-0.4-1.5-0.5c-4.4-0.6-8-4.9-7.8-9.4c-3.1-4-4.3-9.5-3.1-14.4c1.1-4.3,3.8-8.1,6.6-11.6
		C28.4,9,29.5,7.6,31,6.9c1.9-1,4.2-0.8,6.4-0.5c4.6,0.5,9.3,1.1,13.4,3.3s7.5,6.2,7.6,10.8c0,1.6-0.3,3.2,0,4.8
		c0.5,2.4,2.4,4.8,1.5,7.1c-1.2,3,0,6.3,0.1,9.5c0.2,4-1.4,7.8-2.9,11.4c-2.1,5-4.1,10-6.2,15c-1.7,4.2-3.5,8.5-6,12.4
		c-0.9,1.5-2,3-2.1,4.7c-1.2-0.5-1.7-1.8-2.1-3c-1.7-4.7-3.5-9.4-5.2-14c-0.5-1.3-0.9-2.6-1.2-3.9c-0.3-1.8-0.1-3.8,0.5-5.5
		c0.4,3.8,1.4,7.5,3.2,10.9c1.5-1.6,3-3.3,4.4-5c0.2-0.2,0.4-0.5,0.4-0.7c0-0.3-0.2-0.6-0.4-0.9c-2.4-3.3-4.7-6.5-7.1-9.8
		c-0.9,2.9-1.7,5.7-2.6,8.6c-0.9,2.9-1.7,6-0.5,8.8c2.7,5.9,5.5,11.9,10.2,16.3c4.8-4.7,9.7-9.3,14.5-14c0.6-0.6,1.2-1.2,1.4-2
		c0.2-1-0.3-2-0.8-2.9c-1.3-2.5-2.4-5.4-1.6-8c0.4-1.2,1.1-2.2,1.7-3.3c1.9-3.4,2.6-7.4,2-11.2c0.5,0,0.9,0.5,1,1
		c1.9,5.8-2.9,11.7-2.4,17.8c1.4-1.9,4.7-1.5,6.3,0.2c1.6,1.8,1.9,4.4,1.8,6.7c-0.3,5.4-2.4,10.7-6,14.8c-3-2.4-4.6-6.5-4-10.3
		c-4,3.8-8,7.5-12,11.3c-3.9,3.6-0.7,11.2-4.7,14.7C39.9,97.7,40.5,93.6,41.3,89.6 M53,22.9c-0.8-0.9-1.6-1.9-2.3-2.8
		c-0.7,2.5-3.6,3.8-6.2,4.3c-2,0.4-4.1,0.5-6.1,0.4c-4,1.7-6,6.3-6.1,10.7c0,4.3,1.6,8.5,3.2,12.5c0.6,1.4,1.9,2.4,3.3,3.2
		c3.5,2.1,7.5,3.5,11.6,4.1c0.8,0.1,1.7,0.2,2.4-0.1c0.6-0.2,1.1-0.7,1.5-1.2c1.9-2,3.2-4.6,3.8-7.3c0.7-3.3,0.4-6.7,0.1-10.1
		c-0.2-2.2-0.4-4.4-0.7-6.6c-0.2-2-0.4-4-1.2-5.8c-0.3-0.7-0.7-1.3-1.4-1.6C54.3,22.2,53.4,22.3,53,22.9 M50.1,10.7
		c-1.4-0.7-2.9-1-4.4-1.3c-1.7-0.3-3.4-0.7-5-1.1c-2.9-0.6-6.1-1.2-8.7,0.1c-2.1,1-3.5,3-4.8,4.9c-1,1.5-2.1,3.1-3.2,4.6
		c-0.7,0.9-1.3,1.9-1.7,3c-0.5,1.5-0.4,3-0.3,4.6c0.2,3.4,0.5,7.2,3,9.5c0.6-0.7,1.6-1,2.4-0.6c0.8,0.4,1.3,1.4,1,2.3
		c-0.5,1.7,1,3.3,2.3,4.4c-2,0.7-4.3-1.3-4.1-3.3c0.1-0.7,0.4-1.3,0.2-1.9c-0.1-0.7-1.1-1.1-1.5-0.6c-0.6,4.3,3,8.7,7.3,9.1
		c-1.9-3.9-2.4-8.5-1.5-12.7c0.8-3.8,3.2-7.7,7.1-8.5c1.8-0.4,3.7,0,5.6-0.1c1.9-0.1,3.9-0.8,4.7-2.6c0.4-1,1.5-1.6,2.5-1.4
		c1,0.2,1.9,1.2,1.9,2.2c0.1-0.7,0.1-1.3,0.2-2c0.4-0.1,0.8-0.2,1.2-0.3c0.7,1.5,1.7,2.9,3,4C56.4,18.1,54.5,12.9,50.1,10.7
		 M64.7,67.4c-0.2-0.9-0.6-1.7-1.2-2.4c-1.6-0.3-3.4-0.3-5,0.1c-0.2,2,2.1,3.5,2.1,5.5c0,0.6-0.3,1.2-0.7,1.7
		c-0.8,0.8-0.7,2.2-0.5,3.3c0.5,2.6,1.1,5.1,2,7.6c0.6-1.1,1.1-2.2,1.7-3.3c0.6-1.2,1.2-2.4,1.6-3.7c0.3-1.2,0.5-2.4,0.5-3.6
		c0-0.4,0-0.7-0.1-1.1c0-0.7-0.1-1.4-0.1-2.2C64.8,68.7,64.8,68,64.7,67.4 M52.8,56.8c-2.1-0.1-4.3-0.4-6.4-0.8
		c-0.9-0.2-1.9-0.4-2.8-0.7c-2.9-0.9-5.6-2.6-7.7-4.9c-0.3,0.9,0.4,1.8,1,2.5c3.1,3.2,5.6,6.9,7.6,10.9c0.3,0,0.5,0,0.8,0
		C47.7,61.3,50.2,59,52.8,56.8 M45.4,75.3c0-0.1,0-0.3,0-0.4C45,74,44.6,73,44.2,72.1c-0.6-0.5-1.6-0.2-1.9,0.5
		c-0.4,1.2-0.8,2.3-1.2,3.5c-0.1,0.3-0.2,0.6-0.2,0.9c0,0.2,0,0.5,0.1,0.7c0.4,1.7,0.8,3.3,1.2,5c0.2-0.3,0.6-0.5,0.9-0.5
		c-0.5-1.4,0.8-2.6,1.4-3.9C45,77.3,45.2,76.3,45.4,75.3 M29,76c-0.4-2.1,0.1-4.3,0.6-6.4c0.4-1.8,0.8-3.6,1.3-5.4
		c0.8-3.4,1.6-6.7,2.9-10c0.6-1.4,1.3-3,0.7-4.5c-0.2,0.2-0.3,0.4-0.4,0.7c-3.3,8.2-5.4,16.9-6.3,25.6C28.2,76,28.6,76,29,76
		 M48.8,67.5c0.2,0,0.4,0.1,0.6,0.1c0.3-1,0.6-2.1,1.1-3c1.2-2.3,2.5-4.7,3.7-7c-0.5-0.2-1,0.3-1.3,0.7c-1.8,2.2-3.8,4.1-6,5.8
		c-0.2,0.2,0,0.5,0.2,0.7C48,65.5,48.6,66.5,48.8,67.5 M30.4,80c0-0.3,0-0.6-0.1-0.8c-0.4-1-1.6-1.7-2.7-1.6
		c-1.1,0.1-2.1,1.1-2.2,2.2c0.8,1.6,3.3,2.1,4.6,0.9C30.2,80.5,30.4,80.2,30.4,80 M42.7,70.2c0.7,0.2,1.5,0.1,2.1-0.4
		c0.7-1,1.4-2.1,2-3.2c-0.7-0.7-1.8-1.1-2.7-0.9c-0.7,0.2-1.3,0.7-1.5,1.4C42.2,68.1,42.6,69.2,42.7,70.2 M31.5,80.8
		c-0.5,1.4-2,2.4-3.5,2.3c-1.5,0-2.9-1-3.4-2.5c0-0.1-0.3-0.2-0.4,0c0,1.6,1.1,3.1,2.6,3.6c1.5,0.5,3.3,0,4.3-1.3
		C31.5,82.4,31.7,81.5,31.5,80.8 M45.7,71.5c0,0.2,0.1,0.5,0.2,0.7c0.4,0.8,0.6,1.7,0.5,2.5c1.4-2,2.2-4.4,2.2-6.8
		c-0.3-0.3-0.7,0.1-0.9,0.4c-0.6,0.9-1.2,1.7-1.7,2.6C45.9,71.1,45.7,71.3,45.7,71.5 M38.7,70.5c0.5,1.4,0.8,2.8,1,4.2
		c0.1,0.1,0.2,0.1,0.4,0.1c0.7-1.9,1.1-3.9,1.2-6C40.4,69.4,39.5,69.9,38.7,70.5 M57.9,74.6c-0.2,0.3-0.4,0.5-0.6,0.8
		c0.4,0.3,0.4,1,0.5,1.6c0.1,2.7,1,5.3,2.6,7.5c0.3-0.7-0.2-1.4-0.6-2.1c-0.7-1.2-0.9-2.5-1.2-3.9C58.4,77.2,58.2,75.9,57.9,74.6
		 M57.3,62.4c0.2-0.6,0.4-1.3,0.6-1.9c0.1-0.4,0-1-0.4-0.9c-0.2,0.7-0.3,1.3-0.5,2C56.9,61.9,56.9,62.4,57.3,62.4"/>
	<path class="st0" d="M63.3,61.9c-1.1,0.1-2.2,0.1-3.4,0.2c-0.3-0.8-0.3-1.6-0.1-2.4c0.1-0.5,0.3-0.9,0.5-1.4c0.5-1,0.9-2,1.3-3
		c0.3-0.3,0.8-0.1,1,0.3c0.2,0.3,0.1,0.8,0.2,1.1c0.2,1.5,1.6,2.8,1.4,4.3c0,0.3-0.1,0.6-0.4,0.7C63.7,61.9,63.5,61.9,63.3,61.9
		 M61.8,58.1c-0.4,0.9-0.8,1.8-1.3,2.7c0.8,0.3,1.7,0.1,2.3-0.3C62.8,59.5,62.4,58.7,61.8,58.1"/>
	<path class="st0" d="M107.8,38.5c0.1,1.7,0.3,3.5,1.1,5c0.6,1.2,1.5,2.3,1.8,3.6c0.1,0.4-0.1,1-0.5,0.9c-3-3-4.3-7.5-3.3-11.7
		c-0.3-1.5-0.3-3.1-0.2-4.6c0.3,0,0.6-0.1,0.9-0.1C108.1,33.8,107.8,36.2,107.8,38.5"/>
	<path class="st0" d="M83.7,101.5c-0.6-1-0.4-2.4,0.2-3.5c0.4-0.7,0.9-1.4,1.4-2c1.5-1.8,3.1-3.6,5.1-4.8c1.6-0.9,3.4-1.5,5.2-1.5
		c0.4,0,0.9,0,1.1,0.4c0.2,0.3,0,0.7-0.3,0.9c-0.3,0.2-0.7,0.3-1,0.3c-1.8,0.3-3.5,1-4.9,2.1c-1.2,0.9-2.2,2-3.2,3.1
		c-0.7,0.8-1.4,1.5-1.7,2.5c-0.2,0.5-0.3,1-0.5,1.5C84.7,101.1,84.3,101.5,83.7,101.5"/>
	<path class="st0" d="M113.7,26.9c-0.1,0.4-0.3,0.7-0.4,1.1c-0.2,0-0.4,0-0.6,0c-0.8-2.1-1.7-4.1-2.6-6.2c-0.5-1.1-1-2.3-1.7-3.3
		c-0.7-1-1.7-1.8-3-2.1c-1.7-0.4-3.5,0.3-5.1-0.3c-0.3-0.2-0.2-0.7,0.1-1c0.3-0.2,0.7-0.2,1.1-0.2c0.7,0,1.4,0,2.2,0
		c1.4,0,2.9,0,4,0.8c0.8,0.5,1.3,1.2,1.8,2C111.5,20.5,112.9,23.6,113.7,26.9"/>
	<path class="st0" d="M15.6,69.8c0.3,0,0.6,0,0.9,0.1c0.8,3.1,1.4,6.2,1.8,9.4c0.9,6.8,1.1,13.7,1.2,20.6c0,0.4-0.1,1-0.5,1
		c-0.3,0-0.5-0.2-0.6-0.5c-0.7-1.3-0.7-2.8-0.7-4.2c0-7.3-0.6-14.5-1.9-21.7C15.6,72.9,15.3,71.4,15.6,69.8"/>
	<path class="st0" d="M126.7,59.5c-0.6,0.6-1.6,0.1-2.3-0.4c-3.7-2.6-7.4-5.5-9.3-9.6c-0.9-1.9-1.4-4.1-1.8-6.2
		c-0.6-2.9-1-6-0.1-8.9c0.8,0.3,1,1.4,1,2.3c0,3.9,0.6,7.9,2.2,11.5c1.6,3.6,4.3,6.7,7.8,8.6C125.3,57.5,126.7,58.2,126.7,59.5"/>
	<path class="st0" d="M67.1,67.9c-0.9-7.5-6.3-14.5-5-22c9,2.5,17.3,7.6,23.8,14.4c2-1.7,4-3.4,6-5c-3.8-4.3-7.7-9-8.8-14.6
		c-0.4-2.1-0.4-4.2-1.1-6.2c-0.6-1.7-1.7-3.4-1.3-5.1c0.2-0.7,0.6-1.3,0.7-1.9c0.3-1.8-1.6-3.2-2.4-4.9c-0.9-1.9-0.4-4.2,0.4-6.3
		C83.7,5.6,95.9-1.4,107.3,0.2c2,0.3,3.9,0.8,5.7,1.7c7.1,3.5,10.1,12,10.7,19.9c0.3,4.3,0.2,8.8,1.3,13c1.1,4.2,3.9,8.3,8.1,9.5
		c4.4,1.2,7.4,5.3,9.1,9.6s2.7,8.8,5,12.8c1.7,3.1,1.9,6.8,2.1,10.4c0.2,5.5,0.5,11.1,0.7,16.6c0,0.8-0.3,1.9-1,1.7
		c-2.3-9.6,0.7-20.4-3.8-29.2c-2-3.9-2.9-8.3-4.8-12.3c-1.8-4-4.9-7.8-9.2-8.8c3.1,3.2,0.7,9,3.3,12.7c0.9,1.3,1.9,2.7,2.3,4.3
		c0.4,1.6,0.2,3.4-1,4.6s-3.4,1.1-4.3-0.2c-1-1.6-3.1-2-5-2.2c-6.4-0.9-12.8-1.7-19.2-2.6c-2.2-0.3-3.9-2.1-4.8-4.1
		c-0.8-2-1-4.3-1.1-6.5c-5.7,3.3-11,7.3-15.6,12C77.1,71.8,70.7,82.8,62,92c-3.7,3.9-8,7.6-13.2,9.2c5.3-4.4,10.7-8.8,15.1-14.1
		c-3.7,2.5-9.1,1.8-12.1-1.5c-0.9-1,0.3-2.6,1.6-2.6s2.4,0.9,3.4,1.7c1,0.8,2.3,1.6,3.5,1.3c-0.2,1.4-2.3,1.4-3.4,0.6
		c-1.1-0.8-2.1-2-3.4-2.2c0.6,2.7,4.4,3.8,6.9,2.5c2.5-1.3,3.9-4,4.9-6.6C66.7,76.3,67.6,72.1,67.1,67.9 M135.4,63.7
		c-0.6-2.3-1.5-4.4-2.5-6.6c-0.4-0.7-0.9-1.5-1.7-1.7c-5-1.3-8-6.3-10.5-10.9c-0.3-0.6-0.6-1.2-0.6-1.9c0.1-0.7,0.8-1.3,1.4-1.1
		c1.3,5.4,5,10.2,9.9,12.6c1.4-4.1-1.2-8.3-3.8-11.7c-2.6-3.4-5.6-7.2-5.1-11.4c0.7-5.9-0.3-11.8-2-17.4c-0.7-2.1-1.5-4.3-2.8-6.1
		c-0.9-1.2-2.1-2.2-3.4-3.1c-5.6-3.8-13.2-4.1-19.4-1.5C88.6,5.6,83.7,11,81,17.2c-0.4,0.9-0.7,1.7-0.7,2.7
		c-0.1,1.4,0.5,2.7,1.3,3.9c2.1,3.5,5.7,6.1,9.6,7.1c2.7,0.7,4.9,2.8,6.4,5.2c1.4,2.4,2.2,5.1,3,7.9c1.1,3.8,2.2,7.6,3.3,11.4
		c0.3,1.1,0.6,2.2,1.4,3.1c1.4,1.7,3.8,2.1,6,2.4c5.4,0.6,10.8,1.3,16.2,1.9c1.1,0.1,2.2,0.3,3.2,0.8c0.9,0.6,1.5,1.5,2.5,2
		c0.9,0.5,2.4,0.2,2.5-0.9C135.5,64.2,135.5,64,135.4,63.7 M62.9,47.9c0.6,4.5,1.9,9,3.9,13.1c3.7,7.9,1.5,17.5-3.2,24.9
		c1.1,0.3,2.1-0.7,2.8-1.6c6.1-7.7,12.2-15.3,18.3-23C78.7,55.1,71.1,50.5,62.9,47.9 M92.9,34.5c0.6,0.6,0.9,1.5,0.7,2.4
		c-0.2,0.8-1.1,1.5-1.9,1.2c0.6-1.6-0.3-3.3-1.2-4.7c-0.5-0.8-1.1-1.7-2-1.9c-2.1-0.4-4-1.6-5.3-3.4c-1,0.6-1.2,1.9-0.8,3
		c0.3,1.1,1,2,1.5,3.1c0.7,1.9,0.4,4,0.7,6c0.8,5.5,5.7,9.3,8.3,14.2c0.9-0.5,1.9-0.9,2.8-1.4c1.5-0.8,3.2-1.7,3.8-3.2
		c0.6-1.4,0.3-2.9-0.1-4.4c-0.6-2.5-1.4-4.9-2.4-7.2c-0.2,1-0.4,2.1-1.3,2.7c-0.8,0.6-2.4,0-2.2-1c0.5,0.2,1.2,0,1.5-0.5
		c0.3-0.5,0.4-1.1,0.4-1.7c-0.1-2.2-1.5-4.3-3.5-5.3C91.6,33.2,92.4,33.9,92.9,34.5"/>
</g>
</svg>
