<?xml version="1.0" encoding="utf-8"?>
<!-- Generator: Adobe Illustrator 19.0.1, SVG Export Plug-In . SVG Version: 6.00 Build 0)  -->
<svg version="1.1" id="Layer_1" xmlns="http://www.w3.org/2000/svg" xmlns:xlink="http://www.w3.org/1999/xlink" x="0px" y="0px"
	 viewBox="0 0 198.5 271.3" style="enable-background:new 0 0 198.5 271.3;" xml:space="preserve">
<style type="text/css">
	.st0{fill:#E91E63;}
</style>
<g id="flu-lady-mask">
	<desc  xmlns:shape="http://adobe.com/products/shape">
		<shape:version>1.0</shape:version>
		<shape:captureDetail>1.000000</shape:captureDetail>
		<shape:sourceImage></shape:sourceImage>
		<shape:source>0</shape:source>
		<shape:platformVersion>shape-android-1.1.117</shape:platformVersion>
	</desc>
	<path class="st0" d="M135.9,179.5c-6.8,8.6-13.8,17.6-15.7,28.4c-0.9,5.2-0.5,10.4-0.3,15.7c0.5,13.6-0.4,27.3-2.6,40.7
		c-0.3,1.9-1.8,4.5-3.5,3.6c2.4-13.2,3.4-26.7,3-40.1c-0.2-6.4-0.6-12.8,0.5-19.1c2.2-11.6,9.8-21.4,17.2-30.6
		c2.4-3,4.9-6.1,8.3-7.6c2-0.9,4.3-1.3,6-2.8s2.2-4.6,0.2-5.7c-0.8-0.4-1.7-0.4-2.7-0.3c-5.1,0.4-10.2,0.8-15.3,1.2
		c5.7-1.5,11.3-3,17-4.4c0.8-2.3-2.2-4-4.6-4.4c-5.4-1-10.9-0.9-16.3,0.2c1-3.2,5.4-3.5,8.6-2.8c3.2,0.7,7.1,1.7,9.5-0.6
		c2.7-2.5,1-7.5-2.3-9.2c-3.3-1.7-7.3-1-10.8,0.3c-3.5,1.2-6.9,2.9-10.6,3c5.5-4.2,12.7-6.3,19.6-5.6c1.1-1.9-0.3-4.6-2.3-5.5
		c-2-1-4.4-0.7-6.6-0.5c-5.2,0.6-10.5,1.2-15.2,3.5c-4.7,2.3-8.7,6.6-9.3,11.7c-1.5-2.7-0.6-6.3,1.4-8.7c2.1-2.4,5-3.8,7.9-4.8
		c5-1.9,10.2-3.1,15.4-3.6c2.7-0.3,5.7-0.4,8,1.1c2.4,1.4,3.6,4.9,2,7c1.9,0.6,3.4-1.7,4.1-3.6c2.5-7.1,5-14.2,7.5-21.3
		c0.6-1.6,1.1-3.3,0.8-5c-0.3-1.7-1.8-3.3-3.5-3c-22.6,3.2-45.7,2.9-68.2-1c-0.8,5.7-1.6,11.5-0.9,17.2c0.7,5.7,3.2,11.4,7.8,14.9
		c3.3,2.4,7.3,3.5,10.8,5.6c3.5,2.1,6.5,5.9,5.6,9.9c-5.5,24.7-11,49.3-16.5,74c-2.9,13.3-5.9,26.6-10.7,39.3
		c-0.6,1.7-2.1,3.8-3.8,3.1c4.1-2.3,2.4-8.5,0.2-12.7c-4.9-9.2-9.8-18.4-14.8-27.5c-0.6-1-1.1-2.1-2.1-2.8c-1.2-0.8-2.8-0.8-4.2-0.8
		c-11.7,0.3-23.5,2.4-34.6,6.2c6.3,12.8,12.5,25.7,18.8,38.5c-1.8,2-4.8-0.9-5.9-3.4c-3.3-7.5-6.6-14.9-9.8-22.4
		c-1.4-3.1-3.3-6.6-6.7-6.8c-1.6-0.1-3.2,0.7-4.8,1.2c-1.6,0.5-3.5,0.7-4.7-0.3c-1.3-1.1-0.9-3.7,0.8-3.8c-0.9-0.7-2.4,0.3-2.1,1.4
		c-1.3-9.1-2.6-18.3-3.9-27.4c-2-14.1-3.8-29.5,3.2-41.8c8.6-15.1,27.5-20.7,44.7-22.3c6.3-0.6,12.7-0.8,18.5-3.2
		c5.8-2.4,11-7.6,11.2-13.9c-4.4-3.1-8.2-7-11.4-11.3c5.1,2.1,9.5,5.9,12.4,10.7c1.9-8.7-0.4-18.3-6.1-25.1
		c-4.1-4.9-10.4-10-8.8-16.2c5.9,6.5,11,13.9,15,21.7c0.4-1.4,0.8-2.9,1.3-4.3c16.4,2.4,33,3.6,49.7,3.6c-1.6-4.6,0-10,3.6-13.1
		c-0.7,4.1-1.4,8.1-2.1,12.2c6.4-0.7,12.9-1.4,19.3-2.1c2.7-0.3,3.5-3.8,3.6-6.5c0.3-7.4,0.6-14.8,0.8-22.2
		c0.1-3.8,0.3-7.7-1.1-11.3c-2.2-6-8.2-9.8-14.1-12.2c-15.7-6.4-35.4-5.6-47.5,6.2c-2.4,2.4-4.6,5.8-3.4,9c1.7,4.4-2.3,8.6-5.3,12.2
		c-4,4.9-6.8,10.8-7.8,17.1C75.6,90.9,79,85,82.5,80.5C86.1,76,90,70.8,89,65.2c-1-5.4,4.3-9.6,9-12.4c3.2-1.9,6.5-3.9,9.7-5.9
		c-10.2-6.2-17.8-16.4-21.1-27.9c-0.6-2.2-0.1-5.6,2.1-5.3c-1.2,6.6,2.5,13.1,6.8,18.2c4.4,5.1,9.7,9.5,12.9,15.3
		c13-3.1,27.1-1.4,39,4.6c3.8,1.9,7.5,4.4,9.5,8.1c1.8,3.3,2.1,7.2,2.2,10.9c0.8,21.9-2.2,43.9-9,64.7c-0.8,2.5-2.5,5.4-5,5
		c2.9,2.9,9.2,1.4,10.9,5.1c1.7,3.8-3.3,7-7.4,8.1c1.6,3,3.1,6.2,3.2,9.6c0,3.4-2,7.1-5.3,7.7C142,172,138.8,175.9,135.9,179.5
		 M61.6,223.1c2.8,3.6,3.7,8.3,5.4,12.5c3.5,8.8,10.6,16.1,13,25.3c0.1-5.2,1.5-10.4,4.1-14.9c1.1-2,1.6-4.3,2.1-6.6
		c3.5-17.2,6.9-34.4,10.3-51.6c-6.6-5.7-13.2-11.5-19.9-17.2c-1.5-1.3-3.1-2.7-4.5-4.1c-4-4.1-7.2-9-11.4-13c-4.2-4-9.8-7-15.5-6
		c-9.5,1.7-18.5,5.5-26.3,11.1c-1.8,1.3-3.6,2.7-5.7,3.5c-2.2,0.9-3.3,3.3-4.2,5.6c-1.3,3.3-2.6,6.7-3.9,10.1
		c-0.6,1.5-1.2,3.1-1.6,4.7c-0.6,3-0.4,6-0.1,9c1.2,13.6,2.9,27.2,5,40.7c16.3-5.6,33.5-8.7,50.8-9.3c0.3-4.1,0.7-8.2,1-12.3
		c0.3-3.2,0.5-6.4-0.1-9.5c-0.6-3.3-2.3-6.4-4.6-8.8c-1-1.1-2.3-2.5-1.6-3.8c5.2,2.7,8,8.7,8.6,14.6c0.6,5.9-0.5,11.7-1.1,17.6
		C61.1,221.5,61,222.4,61.6,223.1 M61.3,145.6c-3.2,0.1-6.3,0.1-9.5,0.2c6,2.1,11.4,6.1,15.2,11.3c3.1,4.3,6.9,8,11.2,11
		c1.2,0.9,2.5,1.7,3.6,2.6c1.4,1.2,2.6,2.6,3.8,3.9c3.6,4,7.5,7.6,11.7,11c2.1-7.3,3.8-14.8,5.6-22.2c1-3.9,1.9-7.8,2.9-11.8
		c0.1-0.5,0.2-1,0-1.5c-0.1-0.3-0.4-0.5-0.6-0.7C98.7,144.2,90,141.6,85,135c-1.2-1.6-2.8-3.6-4.6-2.9c-1.3,2-0.7,4.8-2.2,6.7
		c-0.6,0.8-1.5,1.3-2.4,1.7c-1.6,0.8-3.1,1.6-4.7,2.4c-1.8,0.9-3.6,1.9-5.6,2.3C64.1,145.5,62.7,145.6,61.3,145.6 M147.3,150.7
		c-0.5,0.6-1.1,1.2-1.3,1.9c1.7,0.5,3.4-0.6,4.8-1.7c0.6-0.5,1.2-0.9,1.7-1.3c1-0.8,2.1-1.8,1.9-3c-0.5-0.1-0.7-0.6-1-0.9
		c-1.2-1.3-3.7-0.2-5.1-1.3C149.2,146.4,148.7,148.9,147.3,150.7 M8.9,234c-0.1,0.8,0.2,1.7,0.8,2.2c0.4-0.2,0.8,0.3,1.3,0.4
		c0.2,0,0.4,0,0.6-0.1c1.6-0.3,3.2-0.7,4.8-1.1c0.9-0.2,1.7,0.7,2.6,0.5c-0.4-1.4-1.1-2.6-2.1-3.6c-1,0-2,0.3-2.9,0.8
		c-0.1,0.2-0.2,0.4-0.3,0.5c-1.4,0.3-2.9,0.7-4.3,1C9.5,234.3,9.3,233.8,8.9,234 M81.8,129.5c-0.3,0-0.7,0.2-1,0.3
		c0,0.3,0,0.5,0.1,0.7c0.4-0.1,0.8-0.2,1.2-0.3C82,130.1,81.9,129.8,81.8,129.5"/>
	<path class="st0" d="M137.3,118.9c-0.3-0.3-0.4-0.7-0.3-1.1c0.8-0.3,1.6-0.4,2.5-0.4c3-0.2,5.9-0.7,8.7-1.6
		c0.5-0.2,0.8,0.8,0.4,1.2c-0.4,0.4-1,0.6-1.4,1C144,118.9,140.7,119.2,137.3,118.9"/>
	<path class="st0" d="M92.3,127.7c0.4,0,0.7,0.3,1,0.5c1.9,1.4,4.1,2.2,6.4,2.3c0.5,0,1.1,0,1.5,0.2c0.5,0.2,0.9,0.6,0.8,1.2
		c-2,0.7-4.2,0.2-6.2-0.3c-1.1-0.3-2.2-0.5-3.2-1c-0.5-0.2-1-0.5-1.3-1c-0.3-0.5-0.4-1.1,0-1.5C91.6,127.8,91.9,127.6,92.3,127.7"/>
	<path class="st0" d="M105,121.6c-0.4,0-0.8,0-1.2,0c-2.1-0.2-4.1-0.8-5.9-1.9c-0.6-0.3-1.3-0.4-1.9-0.7c-0.6-0.3-1.1-1.1-0.7-1.7
		c1.9-0.3,3.6,1,5.3,1.7c1.3,0.5,2.6,0.8,4,0.8c1,0,2.2-0.1,2.7,0.7C106.6,121.1,105.8,121.5,105,121.6"/>
	<path class="st0" d="M91.2,153.7c-0.1-0.6-0.2-1.3-0.2-1.9c1,0.2,2,0.6,2.9,1.2c2.4,1.4,4,3.8,5.5,6c0.8,1.1,2,2.3,1.6,3.6
		c-1,0.4-1.9-0.7-2.5-1.6c-1.4-2.1-3-4-4.8-5.8C93,154.5,92.2,153.7,91.2,153.7"/>
	<path class="st0" d="M140,91.7c-0.1,0.2-0.2,0.4-0.3,0.6c-0.3-0.3-0.8-0.6-1.2-0.7c-0.3-0.3-0.2-0.9,0-1.2c0.3-0.4,0.6-0.6,1-0.8
		c2-1.1,4.2-2.3,6.5-1.8c0-0.5,0.6-0.8,1.1-0.9c1.4-0.4,2.8-0.8,4.3-1.2c1.1-0.3,2.3-0.5,3.2,0.3c-0.1,0.4-0.3,0.8-0.4,1.1
		c0,0.2-0.1,0.3-0.2,0.5c-0.2,0.2-0.4,0.3-0.6,0.4c-1.6,0.6-3.3,1.1-5.1,1.4c-0.7,0.2-1.4,0.2-2.1,0.4C144,90.1,141.9,90.8,140,91.7
		"/>
	<path class="st0" d="M151.7,100.1c-0.1,0.1-0.2,0.3-0.3,0.4c-1.3,0.6-2.7,0.9-4.1,1c-1.5,0.1-3,0-4.5-0.1c-1.6-0.2-3-1-4-2.2
		c-0.1-0.2-0.3-0.3-0.2-0.5c0.2-0.5,0.5-1.1,0.9-1.4c0.5-0.3,1.1-0.4,1.6-0.1c0.5,0.3,1,0.4,1.6,0.5c1.6,0.2,3.2,0.4,4.8,0.3
		c1.6-0.2,3.2-0.7,4.3-1.8c0.8-0.8,1.7-1.9,2.7-1.4c0.2,1.3,0,2.8-0.7,3.9C153,99,152.4,99.6,151.7,100.1"/>
	<path class="st0" d="M142.4,175.4c-0.5,0.4-1.4,0.3-1.8-0.2c-0.1-0.2-0.1-0.4-0.2-0.6c1.6-0.4,3.2-0.8,4.6-1.4c1-0.4,1.9-1,2.8-1.5
		c2-1.1,3.9-2.3,5.9-3.4c0.8-0.5,1.7-1.1,1.7-2.1c0-0.5,0.7-0.8,1.1-0.5c0.4,0.3,0.6,0.8,0.6,1.3c0.5,0.2,0.8,0.8,0.6,1.3
		c-2.4,2.2-5.3,3.9-8.4,4.9c-1.1,0.4-2.1,1.2-3.2,1.7c-1,0.4-2,0.6-3.1,0.7C142.8,175.6,142.5,175.6,142.4,175.4"/>
	<path class="st0" d="M110.9,99.4c0.7-0.6,1.6-1,2.4-0.8c0.9,0.2,1.5,1.3,0.9,2c-0.9,1.4-2.9,1.7-4.5,1.8c-1.2,0.1-2.4,0.2-3.6,0.2
		c-3,0-5.9-0.3-8.8-1c-0.8-0.2-1.6-0.4-2.2-1c-0.6-0.5-1-1.4-0.6-2.2c1.6-0.5,3.4-0.4,4.9,0.4c1.6,0.8,3.3,1,5.1,1.3
		c0.6,0.1,1.3,0.2,1.9,0.3c0.5,0,0.9,0.1,1.4,0.1C108.9,100.5,110.1,100.1,110.9,99.4"/>
	<path class="st0" d="M65.4,101.9c-0.2,0.6-0.2,1.3,0,1.9c0.4,2.1,1.4,4,2.9,5.4c0.5,0.5,1,0.9,1.7,1c1.2,0.2,2.5-0.9,3.6-0.5
		c0.5,0.6,0.3,1.5-0.2,2c-0.5,0.6-1.2,0.9-1.9,1.2c-1.3,0.6-2.9,1.1-4.3,0.6c-1.1-1.6-2.1-3.2-3-4.9c-0.4-0.8-0.8-1.6-1-2.4
		c-0.3-1.2-0.5-2.4-0.4-3.6c0.1-1.2,0.4-2.4,1.3-3.2c0.2-0.2,0.5-0.5,0.6-0.8c0.6,0,1.1,0,1.7,0c0.3,0.5,0.1,1.2-0.2,1.7
		S65.6,101.3,65.4,101.9"/>
	<path class="st0" d="M119.7,91.1c0,0.3,0.3,0.5,0.4,0.7c0.1,0.3-0.1,0.6-0.3,0.5c0.7,0.6,0.3,2-0.6,2.4c-0.9,0.4-2,0.2-2.9-0.3
		c-0.9-0.5-1.7-1.1-2.6-1.4c-0.7-0.3-1.4-0.3-2.2-0.4c-4-0.5-8-0.9-11.9-1.4c-0.9-0.1-2-0.5-2-1.4c0-0.3,0.1-0.5,0.3-0.7
		c0.7-1,2.1-1.5,3.2-1.2c3.6,1,7.4,1.5,11.1,1.6c1.5,0,3-0.3,4.4-0.9C117.1,89.9,119.6,89.7,119.7,91.1 M115.2,91.4
		c0.7,0.6,1.4,1.3,2.4,1.6c0.4,0.1,0.9,0.2,1.3,0c-0.4-1.4-2.1-2.4-3.6-2.1C115.3,91,115.2,91.2,115.2,91.4"/>
	<path class="st0" d="M143.8,221c1.5,14.2,0.3,28.7-3.6,42.5c-0.6,2.1-2.4,4.7-4.3,3.6c10.9-22.9,1.6-51.3,11.2-74.7
		c1,3,0.5,6.4-1.1,9.1c0.7-1.4,2.2-2.5,3.8-2.8c-3.6,5.6-5.4,12.3-5.4,19c7.4-5.8,16.5-9.3,25.9-9.8c0.2-3-1-6-3.1-8.1
		c-8-8-11.2-20.5-8.1-31.4c-0.7-1.2-1.5-2.4-2.2-3.6c4.5-6,6.7-13.8,6-21.3c-0.6,8.5-4.3,16.8-10.2,22.9
		c14.6-32.2,18.9-69,12.1-103.6c-2.6-13.2-6.8-26.3-14.6-37.3c-7.8-11-19.4-19.7-32.6-21.9C106.9,1.9,96.1,4.4,86,8.1
		c-4,1.5-8.1,3.2-11.6,5.6C68.5,17.9,64.3,24,61.1,30.5c-9.4,18.6-11.9,40.3-8.7,60.9c1.4,8.9,3.8,17.7,4.4,26.7
		c0.6,9-0.8,18.6-6.2,25.7c7-20.3-0.8-42.3-2.1-63.7c-1-16.3,2-32.8,8.6-47.8c3.5-8,8.2-15.7,15.3-20.8c6.5-4.7,14.5-6.8,22.3-8.7
		c4.7-1.2,9.4-2.4,14.2-2.5c5.2-0.2,10.4,0.9,15.3,2.7c21.4,7.7,35.9,28.7,41.6,50.8c5.7,22,4.1,45.2,2.2,67.9
		c-1.3,15.1-2.8,30.4-8.1,44.6c5.3,8.6,0.5,21.8,8,28.5c4.1,3.7,5.9,9.3,7.5,14.6c5.9,19,13.6,37.4,22.7,55c-1.1,0-2.2-0.1-3.3-0.1
		c-8.6-17.8-16.4-35.9-23.6-54.2c-8,0.8-15.8,3.1-22.9,6.8c-0.9,0.5-2,1.1-2.1,2.2c-0.1,0.7,0.2,1.4,0.5,2
		c7.1,14.8,14.3,29.6,21.4,44.4c-0.6,1.6-3,0-3.7-1.5C157.6,249.5,150.7,235.3,143.8,221 M160.6,173.3c-0.2,0-0.4-0.1-0.6-0.1
		c0.5-0.9,0.6-1.9,0.4-2.9c-0.2-0.1-0.4-0.2-0.5-0.1c0,0.3-0.2,0.6-0.5,0.8c-0.1,0.3,0.1,0.6,0.4,0.6c0.1,0.2,0,0.6-0.3,0.6
		c0.3,0.5,0.6,1.1,0.9,1.6c0,0.2-0.1,0.4-0.2,0.6c0.2,0.3,0.4,0.6,0.4,0.9C160.6,174.7,160.6,174,160.6,173.3"/>
</g>
</svg>
