<svg xmlns="http://www.w3.org/2000/svg" version="1.1" x="0" y="0" viewBox="0 0 111.7 188.2" xml:space="preserve"><style type="text/css">
	.st0{fill:#E91E63;stroke:#E91E63;stroke-width:0.3601;stroke-miterlimit:10;}
</style><desc xmlns:shape="http://adobe.com/products/shape"><shape:version>1.0</shape:version><shape:captureDetail>1.000000</shape:captureDetail><shape:source>0</shape:source><shape:platformVersion>shape-android-1.1.117</shape:platformVersion></desc><path class="st0" d="M23.8 97c1.6 19.2 5.2 38.2 10.8 56.6 1 3.3 2.1 6.7 4 9.6 1.5 2.3 3.4 4.2 5.4 6.1 6.9 6.6 14.6 12.3 22.9 17.1 -3.2 0.5-6.2-1.4-8.8-3.3 -5.8-4.2-11.3-8.7-16.5-13.6 -1.9-1.8-3.8-3.7-5.1-5.9 -1.4-2.3-2.1-4.9-2.8-7.5 -2.6-9.6-5.1-19.1-7.7-28.7 -5.8 0.3-11.6 0.6-17.4 0.9 4.4 11.8 8.8 23.5 13.2 35.3 3.5 9.3 7.8 19.4 16.8 23.4 -3.9-0.3-7.6-2.5-9.7-5.8 0.6 2.4-0.2 5-2.1 6.6 0.7-4.9-1.2-9.8-3-14.4C18.9 160.8 14 148.2 9 135.7c-1.6-4.2-4.4-9.1-8.9-8.8 0.1-8 0.1-16 0.2-24.1 0-2.5 0-5.1 0.6-7.5 2-8.2 9.6-13.5 14.8-20.2 6.2-8 8.9-18.1 11-27.9 2.1-9.9 3.8-20 8.4-29C39.8 9.2 48 1.4 58.1 0.3c11.7-1.2 22.8 7.1 28.4 17.4 2.8 5.2 4.6 11.3 3 16.9 -3.8 13.1-5.7 26.8-5.6 40.4 0 1.5 0.6 3.5 2.1 3.4 2.9-0.2 6 0.5 8.5 2.1 4.9 3.1 7.4 8.8 8.4 14.5 1 5.7 0.8 11.5 1.6 17.1 1.8 11.9 8.4 23.2 6.9 35.1 -0.6 4.8-3.6 10.3-8.5 10.4 -4 0.1-7.1-3.5-9.3-6.9 -4.3-6.8-7.7-14.3-9.8-22 -3.1 12.9-6.1 26.8-1.4 39.3 2.5 6.4 6.8 11.8 11.1 17.2 -1 1.2-2.9 0-3.9-1.2 -3.5-4.3-6.5-9.1-8.5-14.3 -4.7-11.9-4.5-25.7 0.5-37.5 2.3-5.4 0.2-11.5-1.8-16.9 -2.9-7.8-5.9-15.5-8.8-23.3 -2.4 8-11.8 12.7-20.1 11.1 -8.2-1.6-14.8-8.3-18.1-16 -1.8-4.3-6.7-6.9-11.4-6.8 -4.7 0.1-9.1 2.4-12.6 5.6 -2 1.8-3.8 4-4.8 6.6 -1.1 2.8-1.2 6-1.2 9 -0.1 7.4-0.2 14.7-0.3 22.1 0 0.5 0 1.1 0.3 1.5 0.4 0.6 1.2 0.7 1.9 0.7 6.9 0.4 13.8 0.3 20.7-0.5 0.4-4.8-1.2-9.8-4.3-13.5 -1.5-1.8-3.4-3.6-3.3-5.9 2.1 2 4.1 3.9 6.2 5.9 -0.5-4-1.1-7.9-1.7-11.9C22.1 98.6 22.6 96.7 23.8 97M29.2 79.6c2.3 0.5 4.6 1.2 7 1.2 2.4 0 4.9-1.1 5.9-3.2 0.8-1.8 0.4-4.1 1.2-5.9 2.3 2.9 0.7 7.7-2.5 9.5 -3.2 1.9-7.4 1.4-10.8-0.2 3.2 1.2 4.1 5.2 5.7 8.2 1.4 2.4 3.4 4.4 5.4 6.4 2.2 2.2 4.5 4.4 7.3 5.5 5.9 2.4 12.8-0.4 17.8-4.5 1.9-1.5 3.7-4 2.5-6.1 -0.5-0.9-1.5-1.4-2.5-1.9 -7.9-4.2-14.3-10.8-20.6-17.3 -0.9-0.9-1.8-1.9-1.8-3.2 -0.6-10.3-1-20.9 1.7-30.8 1.2-4.2 3-8.3 6.2-11.2 1.8-1.6 3.9-2.8 6-3.8 4.5-2.2 9.5-3.8 14.5-3.5 5 0.3 10.1 3 12.3 7.5 1.6 3.3 1.5 7.2 1.3 10.8 -0.1 1.5-0.1 3-0.2 4.5 3.5-5.2 3.7-12.2 1.6-18.1 -2.1-5.9-6.2-10.9-10.9-15.1 -2.4-2.2-4.9-4.2-7.9-5.4C60.5-0.4 51 2.5 44.7 8.3c-6.3 5.8-9.9 13.9-12.3 22.1 -2.5 8.5-4 17.3-5.4 26.1 -1.5 9.5-6.7 18.3-14.2 24.2C18 78.9 23.8 78.5 29.2 79.6M58.5 58.4c-0.5-0.3-1.2-0.6-1.8-0.5 -0.6 0.1-1.1 1-0.6 1.4 4.4 3.9 8.8 7.9 13.2 11.8 0.8 0.7 1.6 1.6 1.3 2.6 -0.5 0.5-1.4 0.2-2-0.2 -6.5-4.4-10.9-11.8-18.2-14.7 -0.2 1.2 0.6 2.4 1.4 3.4 4.1 5.1 10.3 8.6 13.1 14.6 -4.1-2.9-7.9-6.3-11.4-9.9 -1.4-1.5-3-3.2-5.1-3.3 -0.7 0.9 0.1 2.2 0.9 3 3.3 3.4 6.8 6.6 10.5 9.6 1.1 0.9 2.3 2.5 1.3 3.4 -3.6-3.1-7.3-6.2-10.9-9.2 -0.4 2.5 1.7 4.6 3.6 6.2 2.8 2.5 5.7 4.9 8.5 7.4 1.3 1.2 2.7 2.3 4.4 2.9 3.5 1.1 5.6 4.6 7.1 7.9 8.5 17.8 10.5 38.5 21 55.2 1.1 1.8 2.3 3.5 4.1 4.7 1.7 1.2 4 1.7 5.9 0.9 3.1-1.3 4-5.2 4.4-8.5 0.4-2.8 0.7-5.5 0.4-8.3 -0.2-1.8-0.7-3.5-1.1-5.2 -2.1-7.7-4.2-15.5-6.3-23.2 -0.3-1.1-1.5-1.8-2.6-1.9s-2.3 0.2-3.4 0.6c-0.5 0.6 0 1.5 0.5 2.1 3.5 4.4 5.7 9.7 6.3 15.3 -0.9 0-1.4-1.1-1.6-2 -1.2-4.4-3.2-8.5-5.9-12.2 -1.1-1.6-1.9-3.4-2.6-5.2 -2.5-6-4.9-12-7.3-17.9 -1.1-2.6-2.1-5.2-2.6-7.9 -0.7-4.4 0.1-9.1-1.6-13.2 -1.6-3.9-5.5-6.7-9.7-7 -0.6 2.3 1.5 4.4 3.5 5.8 1.9 1.4 4.1 3.5 3.5 5.8C72.4 67.3 65.7 62.5 58.5 58.4M65.9 50c0.8 0 1.8-0.1 2.1-0.8 0.4-1.1-1.1-2.6-0.1-3.3 0.7-0.5 1.6 0.5 1.8 1.4 0.2 0.9 0.3 2.1 1.2 2.3 4.5 1.1 9.2 1.1 13.7 0.2 -0.6-6.6-0.8-13.3-0.8-20 0-2.5-1.9-4.5-3.8-6 -1.6-1.3-3.4-2.5-5.4-2.9 -2-0.4-4-0.1-6 0.3C63.8 22.1 59 23.3 55 26c-4.3 3-7.2 7.8-8 12.9 -0.4 2.4-0.3 5-1.7 7 -0.5 0.7-1.1 1.4-0.8 2.2 0.3 0.8 1.3 1 2.2 1C53.1 49.5 59.5 49.7 65.9 50M73.9 59.8c3.4 0.4 6 3 8.1 5.7 0.1 0.5 0.2 1.1 0.4 1.6 0.6-3.4 1.2-6.9 1.8-10.3 -1.9 0.5-3.9 0.6-5.9 0.3 -0.5-0.1-1.2-0.4-1.1-0.9 0.1-0.4 0.5-0.5 0.9-0.5 1.9-0.2 3.8-0.2 5.7 0 0.1-1.6 0.3-3.3 0.5-4.9 -1.7 0.8-3.6 1.2-5.5 1.2 -2.8 0-5.6-0.7-8.4-0.7 -3-0.1-6.1 0.7-9.1 0.2 -4.9-0.8-9.9-0.9-14.8-0.4 -0.4 0-0.8 0.1-1.1 0.4 -0.3 0.3-0.3 0.8-0.3 1.2 0 4.5 0 9-0.1 13.5 0 0.6 0 1.3 0.2 1.9 0.5 1.8 2.2 2.9 3.7 3.9 -0.7-0.2-0.5-1.3-0.1-2 0.4-0.6 0.8-1.6 0.2-2 -1-0.8-2-1.8-2.4-3 -0.4-1.2 0.1-2.8 1.3-3.4 1.2-0.6 0-2.8 0.9-3.8 0.2-0.3 0.6-0.4 0.9-0.5 1.9-0.5 4.1 0.3 5.2 1.9 -0.8-0.9-0.5-2.4 0.5-3.1 1-0.7 2.3-0.6 3.4-0.2 1.1 0.5 2 1.2 2.9 2 2.6 2 5.4 3.8 8.5 5.1 -0.5-0.8-0.2-2.1 0.6-2.7C71.8 59.8 72.9 59.7 73.9 59.8M102.1 106.8c-0.6-6.2-1.8-12.3-3.5-18.2 -0.4-1.4-1.3-2.6-2.4-3.6 -1.2-1.1-2.5-2-3.9-2.8 -1.2-0.6-2.4-1-3.7-1.5 -1.4-0.5-2.9-1.1-4.3-1.6 0.5 2.8 1.6 5.4 2.7 8.1 1.8 4.5 3.7 9.1 5.6 13.6 0.7 1.8 1.5 3.6 2.2 5.4 0.1 0.2 0.2 0.5 0.4 0.6 0.3 0.2 0.6 0.2 0.9 0.2C98.1 107 100.1 106.9 102.1 106.8M5.4 126.8c0.4 0.7 1 1.2 1.8 1.4 -0.1-0.3 0-0.8 0.2-1C6.8 127.1 6.1 127 5.4 126.8M51.4 45.6c0.2-0.3 0.4-0.7 0.6-1 0.2-0.4 0.5-0.8 0.9-1.1 0.4-0.3 0.9-0.3 1.4-0.4 2.6-0.2 5.3 0.6 7.4 2.1 -0.2 0.5-0.8 0.8-1.4 0.9 -1.7 0.3-3.4 0.3-5.1-0.1 -0.7-0.2-1.4-0.1-2 0.1C52.6 46.3 51.9 46.1 51.4 45.6M72.9 41.3c0.4-0.1 0.8-0.2 1.2-0.4 1.8-0.6 3.7-1.1 5.6-1.2 0.9 0 1.8 0.1 2.6 0.6 0.7 0.6 1.1 1.7 0.6 2.4 -2.1-0.8-4.5-0.9-6.7-0.3 -1.3 0.3-2.8 0.2-4-0.4C72.1 41.7 72.5 41.5 72.9 41.3M79.5 47c-0.7 0.4-1.5 0.3-2.3 0.3 -0.8-0.1-1.5-0.1-2.3-0.2 -0.7-0.1-1.5-0.3-1.6-1 0-0.5 0.5-0.9 0.9-1.1 0.9-0.4 1.8-0.7 2.8-0.8 0.8 0 1.7 0 2.4 0.4 0.9 0.5 1.7 1.5 2.7 1.2 -0.2 0.8-1.1 1.4-1.9 1.2C80 47 79.7 46.9 79.5 47M78 45.6c-0.5 0-1 0-1.4 0.1 0.6 0.1 1.2 0.2 1.8 0.2C78.4 45.7 78.2 45.6 78 45.6M55.9 38.5c2.8 0.1 5.6 0.8 8.1 2.2 0.4 0.2 0.7 0.8 0.6 1.2 -0.1 0.5-0.5 0.8-1 0.9 -1.2-0.4-2.4-0.7-3.6-1.1 -0.3-0.1-0.7-0.2-1.1-0.3 -0.8-0.3-1.7-0.5-2.5-0.8 -1.2-0.4-2.5-0.8-3.7-1.1 0-0.2 0.1-0.4 0.1-0.6 0.3 0.1 0.6-0.1 0.9-0.2C54.3 38.5 55.1 38.5 55.9 38.5M33 67.8c-0.9 1.6-2.3 2.9-3.7 4 -0.9 0.7-1.8 1.4-2.9 1.6 -0.2 0-0.5 0.1-0.6 0 -0.2-0.1-0.3-0.4-0.2-0.5 1.1-1.4 2.8-2 4-3.2 0.7-0.7 1.2-1.6 1.9-2.5 0.2-0.3 0.4-0.5 0.5-0.8 0.1-0.3 0.2-0.6 0.2-0.9 0.2-1.4 0.2-2.9 0-4.4 0-0.4-0.1-0.9 0.1-1.3 0.2-0.4 0.8-0.6 1.1-0.3 0.2 1.7 0.3 3.4 0.4 5.2 0 0.5 0 1-0.1 1.5C33.6 66.7 33.3 67.3 33 67.8M43.2 133.8c1.1-1.6 2.8-2.6 4.4-3.7 5.6-3.9 9.5-9.8 13.2-15.5 0.2-0.3 0.8-0.1 0.9 0.3 0.1 0.3-0.1 0.7-0.3 1.1 -3.7 7-9.2 13.1-15.7 17.5C44.9 134 43.8 134.5 43.2 133.8M68.7 157.7c-0.6 1-1.1 2-1.8 3 -1.2 1.6-2.7 2.9-4.2 4.2 -2.5 2-5.2 3.8-7.9 5.4 -0.5 0.3-1 0.5-1.5 0.4 -0.5-0.2-0.8-0.9-0.3-1.2 5.9-3.4 12.1-7.2 15-13.4 1.9-4 4.2-7.7 6.8-11.3 0.8 0.2 0.6 1.4 0.2 2.1C72.8 150.6 70.8 154.1 68.7 157.7"/></svg>