<svg xmlns="http://www.w3.org/2000/svg" version="1.1" x="0" y="0" viewBox="0 0 191 211.8" xml:space="preserve"><style type="text/css">
	.st0{fill:#ff5722; stroke:#ff5722;stroke-width:0.4647;stroke-linecap:round;stroke-linejoin:round;}
</style><desc xmlns:shape="http://adobe.com/products/shape"><shape:version>1.0</shape:version><shape:captureDetail>1.000000</shape:captureDetail><shape:source>0</shape:source><shape:platformVersion>shape-android-1.1.117</shape:platformVersion></desc><path class="st0" d="M113.6 201.3c-11.4-1.2-22.6-3.1-33.8-5.7 -0.2 5-1.6 10-4.1 14.4 -1.7-3.8 0.3-8.2 1.3-12.3 1-4.1 0.3-9.6-3.8-10.6 -1.6-0.4-2-2.4-2.1-4 -0.9-12.7-1.9-25.4-2.8-38.2 -0.4-4.9-5.8-8-10.7-8.1 -4.9-0.1-9.5 2-14.3 3.3s-10.3 1.6-14.1-1.4c-3.4-2.7-6.1-8.1-10.3-6.9 -2.6 0.7-5.4-0.9-6.9-3.1 -1.5-2.2-2-4.9-2.5-7.6 -3.6-21.2-5.4-42.6-5.3-64.1 0-8.2 0.3-16.6-2.7-24.2C0.9 31 0 29 0.3 27c0.4-2 2.8-3.7 4.4-2.5 0.7 0.5 1.1 1.4 1.4 2.3 1.3 3.9 2.6 7.7 3.9 11.6C9.7 33 9.4 27.6 9 22.3 8.9 20 9.7 16.7 12 17.1c1.7 0.2 2.3 2.3 2.5 4 0.7 5.6 1.5 11.1 2.2 16.7 -0.3-6.2-0.5-12.4-0.8-18.6 0-0.8-0.1-1.7 0.4-2.4 0.9-1.3 3.1-1 4.2 0.1 1.1 1.2 1.3 2.8 1.6 4.4 0.9 6 1.7 12 2.6 18 1.7-5.4 3.5-10.8 5.2-16.3 0.6-1.8 1.7-4 3.6-3.7 1.9 0.3 2.3 2.8 2.2 4.7 -0.5 9-2 17.9-4.4 26.5 -0.8 2.7 3.1 4.5 5.8 3.7 2.7-0.8 4.9-3 7.6-3.5 2.8-0.5 6.2 2.4 4.6 4.7 -0.3 0.4-0.6 0.7-1 0.9 -7 5.6-14.4 10.7-22.1 15.4 -3 1.8-2.8 6.1-2.2 9.5 0.8 4.6 1.5 9.1 2.3 13.7 0.4 2.4 0.8 5 2.3 7 1.5 2 4.4 3.1 6.5 1.8C53.9 92 75 83.8 96.7 79.7c-1-7.5-2-14.9-2.9-22.4 -0.5-4.2-1.8-9.2-5.8-10.4 -6.4-1.9-8.3-11.8-3.1-16 2.9-2.3 7.3-3.1 8.4-6.6 3.2-9.8 8.4-20.3 18.2-23.4 8.1-2.6 17.8 1.6 21.6 9.2 1.9 3.8 2.3 8.2 3.6 12.3 1.3 4.1 3.9 8.2 8 9.4 4.7 1.4 6.1 8 3.7 12.4s-7 6.9-11.4 9.1c-1.6 8.8-3.2 17.5-4.9 26.2 6 5.1 15.4 2.8 22.8 5.8 6.3 2.5 10.4 8.7 13.7 14.7 8 14.6 13.6 30.4 19.2 46.1 2.8 7.9 5.1 18-1.1 23.5 -6.7 5.9-19.2 2.4-24.2 9.7 -1.8 2.7-2.1 6.1-2.1 9.3 -0.1 7.6 0.6 15.3 2.1 22.8 -3.3-4.4-4.7-10.2-3.9-15.6C144.9 202.9 128.8 202.9 113.6 201.3M153.5 183c3.6-1.4 7.4-3.4 8.8-7 -3.9-1-8 0.9-11.3 3.3 -3.3 2.3-6.2 5.3-10 6.8 -8.2 3.5-17.8-0.7-24.4-6.7 -0.3-0.3-0.6-0.6-0.8-1 -0.5-1.4 1.2-2.5 2.7-3 6.3-2 12.6-4 18.9-6 -1.3-1.3-3.3-1.6-4.9-2.3 -1.6-0.8-3.2-2.6-2.4-4.3 0.6-1.4 2.4-1.8 4-1.9 7.8-0.7 15.6-0.7 23.3-0.1 0.4-11.6 1.5-23.1 3.1-34.5 0.1-1 0.7-2.4 1.8-2.2 -0.1 7.4-0.9 14.9-2.4 22.2 -0.8 4.1 7.3 6.2 5.7 10.1 7.2-1 14.4-1.9 21.6-2.9 -4.6-18.5-11.6-36.4-20.6-53.2 -2.7-4.9-5.8-10.1-10.8-12.6 -5.1-2.6-11.2-2-16.6-3.9 2.1 3.8 3.7 7.9 4.6 12.1 0.3 1.2 0.4 2.4 0 3.5 -0.4 1.1-1.7 2-2.8 1.6 -5.6-1.9-12.6-2.1-16.7 2.2 -4.1 4.3-3.5 11.2-2.7 17.1 -3.1-2-1.2-6.7-1.4-10.3 -0.3-5.2-5.8-8.8-11-8.9 -5.2-0.1-10 2.2-14.7 4.5 -2-3.6-4-7.3-5-11.3 -1-4-0.8-8.5 1.5-11.9 -10.9 3.5-21.8 7-32.7 10.6 -2.4 0.8-4.8 1.6-7 2.7 -6.7 3.5-12.1 10.6-19.6 10.5 4.8 10 6.3 21.4 4.3 32.3 3.9 1.1 8 0.1 11.9-1.1 3.8-1.2 7.7-2.7 11.7-2.6 4 0.2 8.3 2.6 9.2 6.5 2.9 12.8 4.2 26 3.9 39.2 0 1.4 0 3 0.9 4 1.9 2.1 5.4 0.2 8.2-0.5 3.3-0.8 6.8 0.4 10 1.4C111.8 191.6 134 190.8 153.5 183M26.9 38.2c-0.5 1.2-1.4 2.5-2.7 2.5 -1.6-0.1-2.2-2.2-2.3-3.8 -0.4-5.1-0.8-10.3-1.2-15.4 -0.1-1.1-0.2-2.4-1.1-3.2 -0.9-0.8-2.7-0.3-2.6 0.9 0.7 6.8 1 13.6 0.9 20.4 -0.6 0.6-1.7 0.4-2.3-0.3 -0.6-0.7-0.7-1.6-0.8-2.4 -0.9-6.2-1.7-12.4-2.6-18.7 -0.9-0.4-1.4 1-1.4 2 0.3 6.4 0.6 12.8 0.9 19.2 -0.3 0.5-1.3 0.3-1.4-0.3 -0.2 0.7-0.4 1.3-0.6 2C7 36.3 5 30.9 4 25.3c-1.3 0.8-1.8 2.4-1.6 3.9 0.1 1.5 0.8 2.9 1.4 4.3 3 7.9 2.1 16.6 2.1 25.1 0 3.5 0.2 7 0.4 10.6 0.2 3.5 0.4 7 0.6 10.5 0.9 15.4 1.7 30.9 6 45.7 0.3 1.1 0.7 2.3 1.4 3.1 1.4 1.6 3.8 1.9 6 2.1 4.3 0.3 8.7 0.6 13 0 0.3 0 0.7-0.1 1-0.3 0.3-0.3 0.4-0.8 0.4-1.2 0.8-8.9-1.8-18.1-7.2-25.3 -1.6-2.1-2.3-4.8-2.8-7.4C23.5 90.8 22.6 85 22 79.2c-0.2-2.1-0.4-4.4 0.6-6.3 1.1-2.2 3.4-3.4 5.6-4.5 3-1.5 6.3-2.9 8.5-5.5 3.3-3.7 7.5-6.7 12.1-8.4 -1.4-1.8-4-2.3-6.2-1.7 -2.2 0.6-4.1 2.1-5.8 3.6C35 57.8 32.3 56.8 31 55c-1.2-1.8-1.2-4.2-1-6.4 0.9-9.2 5.2-18.2 3.5-27.2 -1.8-0.2-2.6 2.1-2.9 3.9C30 29.7 28.7 34 26.9 38.2M109.7 50.7c-1.5 0.9-3.2 1.2-4.9 1.3 -1.8 0.1-3.6-0.1-5.1-1.1 -1.5-1-2.4-2.9-1.7-4.6 -1.1-1-3-0.2-3.6 1.1 -0.6 1.3-0.4 2.9-0.1 4.3 0.7 3.9 1.4 7.7 2.1 11.6 0.9 5.3 1.9 10.6 1.9 16 2.7 2.6 5.2 5.6 7.2 8.8 1.1 1.8 2.2 3.6 3.6 5.2 1.5 1.5 3.5 2.7 5.6 2.6 2-0.1 3.4 1.9 4.2 3.7 0.8 1.7 1.4 3.5 1.8 5.3 0.6 0 1-0.7 1.1-1.3 0.1-0.6 0-1.2 0-1.8 0.1-0.7 0.3-1.4 0.6-2 3.7-8.3 8.9-16.4 9-25.5 0-6.3 3.3-12.2 3.6-18.5 0.1-1.8 0-3.9 1.3-5.1 0.4-0.2 0.7 0.5 0.7 1 1.1-0.3 2.4-0.9 2.7-2 0.3-1.1-0.6-2.1-1.6-2.5 -1-0.4-2.1-0.3-3.2-0.2 -1.2 0.1-2.6 0.5-2.7 1.7 -0.1 1.1-1 2.1-2 2.5 -1.1 0.4-2.2 0.3-3.3 0.2 -2.2-0.2-4.5-0.6-6.6-1.3 -0.7-0.2-1.4-0.4-1.9-0.9 -1.5-1.2-1.4-3.4-1.1-5.3 -1.2-0.2-2.4-0.4-3.6-0.5C113.7 46.2 112.2 49.2 109.7 50.7M132.1 45.1c2.4 0.1 4.9 0.1 7.4 0 0-0.9-1-1.7-1.9-1.3 0.8-4.2-2-8.5-5.7-10.7 -3.7-2.2-8.1-2.8-12.4-3.4 -3.6-0.4-7.3-0.8-11-0.5 -3.6 0.3-7.3 1.5-10.2 3.8 -1.5 1.2-2.6 2.7-3.7 4.2 -1.3 1.9-2.5 4-2.7 6.3 0 0.5-0.9 0.6-1.2 0.1 -0.3-0.4-0.2-1.1-0.1-1.6 1.3-5 3.9-10 8.5-12.3 1.2-0.6 2.4-1 3.7-1.3 6.9-1.7 14.1-1.1 21.1 0.1 4 0.7 8.2 1.6 11.2 4.3 4 3.5 5.2 9.2 6.2 14.4 1.8 0 3.2-1.5 4.3-2.8 1.5-1.8 3.2-3.9 2.6-6.2 -0.3-1.5-1.5-2.6-2.7-3.5 -7.9-6.4-18.1-9.4-28.2-10.1 -7.1-0.5-14.3 0.1-21.3 1.7 -0.3-1.6 0.9-3.1 2.2-4.1 1.7-1.3 3.6-2.3 5.7-2.9 1.9-0.5 3.9-0.7 5.8-0.9 4.8-0.4 9.6-0.8 14.2 0.2 4.7 1 9.2 3.4 11.7 7.5 -0.5-5.6-2.3-11.1-5.2-15.9 -1.9-3.2-4.5-6.2-8-7.4 -3-1.1-6.4-0.6-9.6-0.2 -3.3 0.4-6.1 2.6-8.4 5 -4.9 5.1-8.5 11.4-10.3 18.3 -1.2 4.8-8.8 4.9-10.8 9.3 -1.2 2.7 0.2 5.9 2.2 8.2 0.8 0.9 1.8 1.7 2.9 2.1 2.3 0.8 4.7-0.3 6.9-1.3 1-0.5 2.2-1.2 2.1-2.3 -0.1-1 0.6-1.8 1.5-2.3 0.9-0.4 1.8-0.5 2.8-0.6 2.2-0.2 4.3-0.3 6.5-0.3 1 0 2.1 0 3 0.5s1.6 1.5 1.5 2.5c1.4-0.1 2.9 0 4.3 0.2 0.1-1.4 1.3-2.5 2.6-3 1.3-0.5 2.7-0.5 4.1-0.6 2.2 0 4.5-0.1 6.4 1C132.2 40.6 133.4 43.3 132.1 45.1M126.8 182.2c2.2-0.5 4.3-1.2 6.3-2.2 1.5-0.7 3.4-1.5 4.8-0.6 -3.4 2.5-7.5 4.1-11.8 4.6 1.8 1.8 4.9 1.4 7.2 0.1 2.3-1.2 4.3-3.1 6.7-3.9 -1 2.5-3.3 4.5-5.9 5.1 1 0.8 2.4 0.6 3.6 0.2 4.9-1.5 8.5-5.9 13-8.5 5.4-3 11.8-3.2 18-3.8 6.2-0.6 12.7-1.8 17.1-6.2 1.1-1.1 2.1-2.5 2.6-4.1 0.4-1.4 0.4-2.9 0.4-4.3 0-1.1-0.1-2.4-1-3 -0.6-0.4-1.4-0.3-2.1-0.3 -4.9 0.4-9.8 1-14.6 1.9 -1 0.2-2 0.4-2.4 1.3 -0.6 1.6-2 2.7-3.6 3.2 -1.6 0.5-3.2 0.6-4.9 0.6 -9.3 0.1-18.6-0.9-27.8 0.4 -0.3 0.6-0.1 1.4 0.4 1.9 0.5 0.5 1.2 0.7 1.8 0.9 1.4 0.5 2.8 1 4.2 1.4 0.4 0.1 0.8 0.3 1.1 0.6 1 1-0.3 2.7-1.6 3.4 -1.5 0.9-3.2 1.4-4.9 1.7 -5.4 0.9-10.7 2.5-15.6 4.8 0.9 1.7 3.4 1.3 5.2 0.7 4.7-1.6 9.5-2.8 14.4-3.7 0.7-0.1 1.6-0.1 1.8 0.6 -1.7 0.8-3.5 1.3-5.3 1.8 -4.2 1.1-8.4 2.3-12.6 3.5C122 182.6 124.8 182.7 126.8 182.2M139.7 199.5c3.2 0.2 6.2-0.8 9.2-1.9 2.4-0.8 4.9-1.7 7.3-2.5 0.7-0.3 1.5-0.6 1.9-1.2 0.2-0.4 0.2-1 0.2-1.5 -0.1-3.4-0.1-6.8-0.2-10.2 -14.1 8.3-31.4 9.3-47.7 8.4 -7.4-0.4-15-1.2-21.7-4.4 -3.3-1.6-7.6-1-10.3 1.5 0.4 1.6 0.8 3.3 1.2 4.9 0.1 0.4 0.2 0.8 0.5 1.1 0.3 0.3 0.8 0.4 1.2 0.5 9.2 1.7 18.5 3.5 27.8 4.6 5.6 0.7 11.3 1.1 16.9 1.3 2 0.1 4 0.1 6 0.2C134.7 200.3 137.2 199.3 139.7 199.5M111.3 99.2c2.5 0.3 4.7 1.8 6.8 3.3 -0.7-2.2-1.9-4.8-4.2-5.2 -4.2-0.6-7.9-3.4-9.8-7.1 -1.4-2.9-3.2-5.6-5.4-7.9 -0.6-0.6-1.5-1.2-2.1-0.7 -0.6 0.5-1.5 0.1-2.3 0.1 -1.9-0.1-2.9 2.3-3.1 4.2 -0.7 6.2 1 12.7 4.5 17.8 0-0.8 1-1.3 1.8-1.5 2.6-0.7 5.2-1.5 7.9-2.2C107.3 99.5 109.3 99 111.3 99.2M128.8 98c0.5-0.1 1-0.1 1.4 0 4.1 0.4 8.2 0.9 12.2 1.3 -0.9-5.1-2.5-10-4.7-14.7 -0.2-0.4-0.5-0.6-0.9-0.8 -1.3-0.8-2.5-1.6-3.8-2.4 -0.1-0.1-0.2-0.2-0.3-0.2 -0.5-0.1-0.8 0.5-0.9 1 -2 6.2-4.8 12.3-8.1 17.9 -0.7 1.1-1.3 2.6-0.4 3.6 1.4-1.5 2.7-3 4.1-4.5C127.8 98.7 128.2 98.2 128.8 98M105.2 20.8c-2.5 0.8-4.9 2-7 3.6 11.9-2.5 24.6-1.8 36.1 2.1 -2.4-3.2-6.2-5.3-10.1-6.3 -3.9-1-8-1-12.1-0.6C109.8 19.8 107.4 20.1 105.2 20.8M110.5 40.7c-0.3-0.2-0.7-0.2-1-0.3 -2.2-0.1-4.4-0.1-6.6 0.1 -1.1 0.1-2.3 0.2-2.9 1 -0.7 0.9-0.5 2.1-0.3 3.2 0.2 1 0.3 1.9 0.5 2.9 0.2 0.8 0.4 1.8 1.3 2 2.9 0.7 6.1 0.2 8.7-1.4 0.2-0.6 0.6-1 1.1-1.3 0.2-1.6 0.3-3.3 0.1-4.9C111.1 41.7 111 41 110.5 40.7M127.3 40.5c-2.4 0.1-4.8 0.2-7.2 0.2 -0.1 0.3-0.3 0.5-0.6 0.6 -0.1 1.3-0.3 2.6-0.5 3.9 -0.3 1.5 0.7 3.1 2.1 3.5 0.4 0.1 0.8 0.2 1.2 0.2 1.8 0.1 3.6 0.3 5.4 0.4 0.7 0.1 1.6 0.1 2.2-0.4 0.4-0.3 0.6-0.8 0.7-1.2 0.6-1.7 0.5-3.6-0.1-5.3 -0.3-0.7-0.6-1.4-1.3-1.7C128.5 40.4 127.9 40.4 127.3 40.5M34.7 138.6c0.1-1.3-0.1-2.7-0.4-4 -0.2-0.8-0.6-1.6-1.4-1.8 -0.2-0.1-0.5-0.1-0.7-0.1 -2 0-4.1 0-6.1 0 0 0.3 0.2 0.5 0.3 0.7 0.5 0.6 1 1.3 1.5 1.9 0.7 0.9 1.4 1.8 2.3 2.4C31.6 138.7 33.2 139 34.7 138.6M163.7 155.6c-0.3-1.2-1.2-2.2-2-3.1 -0.4-0.3-1.2-0.2-1.5 0.3 -0.2 0.2-0.2 0.4-0.3 0.7 -0.4 1.7-0.6 3.4-0.6 5.1 0 0.9-0.2 1.7-0.6 2.5 1.5-0.2 3.1-0.4 4.6-0.5 0.3 0 0.6-0.1 0.7-0.4 0.1-0.1 0.1-0.2 0-0.4 0-1.2-0.1-2.4-0.1-3.6C164 156 164 155.7 163.7 155.6M166.9 157.8c-0.1-0.4-0.7-0.7-1.1-0.5 -0.2 0.3-0.4 0.7-0.6 1 0.3 0.1 0.5 0.4 0.5 0.7 0.2 0 0.4 0 0.6 0 0.1-0.4 0.1-0.8 0.2-1.2M117.6 55.9c-0.1-1.1 0.8-2.3 2-2.4 0.3 0 0.5 0 0.7 0C120.6 55 119 56.3 117.6 55.9M113.3 54.9c-0.3 0.5-1 0.7-1.6 0.5 -0.6-0.2-1.1-0.6-1.6-1 0-0.4 0-0.8 0-1.1C111.3 52.9 112.9 53.6 113.3 54.9M126.1 45.6c-0.8 0.4-1.8 0.5-2.7 0.4 -0.3-0.1-0.7-0.2-0.9-0.4 -0.2-0.3-0.3-0.7-0.1-0.9 0.3 0 0.4-0.3 0.5-0.5 0.7-1 2.2-0.7 3.4-0.3C126.5 44.4 126.4 45.1 126.1 45.6M102.9 45.2c0-0.3 0-0.5 0.1-0.7 1.1-1.2 3-1.5 4.4-0.6 0.6 0.3 0.5 1.2 0 1.7 -0.5 0.4-1.2 0.5-1.9 0.4C104.6 45.9 103.7 45.6 102.9 45.2M22.5 71.9c-1.7 0.3-3.5 0-4.9-0.8 -0.6-0.3-1.2-1-0.9-1.6 2 0.1 4 0.7 5.8 1.7C22.5 71.4 22.5 71.7 22.5 71.9M119.3 75.4c0 0.4 0.1 0.8 0.1 1.1 -2.3 0.3-4.7 0.3-7 0.2 -1.2-0.1-2.4-0.3-3.4-0.9 -0.4-0.3-0.9-0.8-0.7-1.3 0.8-0.4 1.7 0 2.5 0.3C113.6 75.7 116.5 74.8 119.3 75.4M120.9 62.6c-4 0.3-8.1 0.3-12.2 0 -0.4 0-0.9-0.1-1.1-0.5 -0.3-0.6 0.5-1.2 1.1-1.4 2.1-0.6 4.4-0.4 6.6-0.1 1.9 0.2 3.8 0.4 5.6 1C120.9 61.9 120.9 62.2 120.9 62.6M107.1 83.3c-0.3-0.3-0.7-0.8-0.5-1.2 0.7-0.3 1.6 0 2.3 0.4 0.7 0.5 1.1 1.2 1.7 1.8 0.8 0.9 1.6 1.6 2.6 2.2 2.1 1 4.6 0.7 6.4-0.6 1.1-0.8 2.3-1.7 3.4-2.5 0.7-0.5 1.5-1 2.2-0.7 0.4 0.8-0.4 1.7-1.2 2.2 -0.9 0.6-1.9 1.3-2.8 1.9 -0.8 0.6-1.6 1.1-2.6 1.5 -2.3 1-5.2 0.6-7.2-1 -0.4-0.3-0.8-0.7-1.2-1.1C109.1 85.3 108.1 84.3 107.1 83.3"/></svg>