<?xml version="1.0" encoding="utf-8"?>
<!-- Generator: Adobe Illustrator 19.0.1, SVG Export Plug-In . SVG Version: 6.00 Build 0)  -->
<svg version="1.1" id="Layer_1" xmlns="http://www.w3.org/2000/svg" xmlns:xlink="http://www.w3.org/1999/xlink" x="0px" y="0px"
	 viewBox="0 0 138.8 285.3" style="enable-background:new 0 0 138.8 285.3;" xml:space="preserve">
<style type="text/css">
	.st0{fill:#e91e63;}
</style>
<g>
	<g>
		<path class="st0" d="M62,285.3c-1.7-2.7-2.6-5.6-3.4-8.5c-2-7.3-3.3-14.7-4-22.2c-0.3-3.3-0.8-6.6-1.3-9.9c-0.4-2.9-2.1-5.1-4.2-7
			c-5.2-4.6-9.1-10-11.3-16.6c-2.3-7-1.2-14.1,0.6-21c1.1-4.2,2.6-8.2,5-11.9c0.4-0.6,0.8-1.3,0.7-2c-0.4-7.1,3.1-12.7,6.9-18
			c1.5-2.1,1.1-3-1-4.3c-6.6-3.9-13.8-6.2-20.7-9.3c-7.3-3.3-14.2-7.1-20-12.6c-2.5-2.3-5-4.8-7.7-6.7c-2.3-1.6-1.9-3.4-1.1-5.2
			c4.7-9.5,9.9-18.6,17.5-26.2c5.6-5.6,10.7-11.7,14.9-18.5c0.9-1.5,1.5-2.5,0.1-4.5c-4.8-6.8-2.1-14.5,4.6-18
			c5.8-3,12.1-3.8,18.3-5.2c5.2-1.2,10.2-2.8,14.7-5.8c0.3-0.2,0.6-0.5,1.1-0.1c-3.4,4.7-8.6,6.2-13.7,7.8
			c-6.6,2.1-13.6,2.9-19.8,6.3c-5.3,2.9-7.3,7.2-5.4,12.3c0.4,1.2,1.1,2.3,2.4,3.1c2.3-3.6,4.4-7.3,6.9-10.8
			c2.5-3.5,5.7-5.8,10.3-5.4c1.6,0.1,2.9,0.6,3.8,2.3c-7-3.4-10-0.7-13.7,5.7c-4.5,7.7-8.6,15.7-14.2,22.7c-3.1,3.8-6.5,7.3-9.6,11
			c-6,7-12.3,13.7-15.6,22.6c-0.6,1.7-0.6,3.2,0.8,4.4c6.6,6.3,13.6,11.9,21.7,16.1c8.7,4.4,17.5,8.7,26.3,13
			c3.3,1.6,3.4,1.9,1.3,4.9c-3,4.3-5.1,8.9-6.2,14.1c1.8-0.7,2.2-2.5,3.3-3.6c1.1-1.1,2.1-2.5,2.8-3.9c1.4-2.4,3.5-3.9,5.8-5.1
			c2.4-1.3,2.7-3,1.6-5.2c-1.2-2.6-3.5-4.3-5.7-6.1c-4.8-3.7-9.7-7.4-14.1-11.5c-5.6-5.1-11.7-9.7-17-15.2c-3.2-3.3-4-3.1-0.5-7.5
			c6.2-7.7,12.9-14.9,21.2-20.5c1.7-1.1,2.4-1.3,5.1-1.1c-2.8,2-5.6,3.3-7.9,5.3c-6.3,5.5-12,11.5-16.8,18.4
			c-0.8,1.1-0.6,1.6,0.3,2.4c8.4,8.6,16.9,16.9,25.7,25.1c3,2.8,6.8,4.6,9.9,7.6c2.6-4.3,2.4-8.9,1.6-13.3
			c-1.7-9.8-7.3-17.9-12.7-26c-2.4-3.6-4.8-7.1-7.6-11.2c2.2,0.7,2.7,2.3,3.6,3.4c1.5,1.9,3.3,3.1,5.8,3.4c6.7,0.6,13.2,0.2,19-3.7
			c5.9-3.9,7.9-9.2,6-16.4c-2-7.6-6.2-13.9-10.8-20.1c-1.8-2.5-3.8-4.9-5.4-7.5c10,9.3,20,18.5,30.4,27.2c0.2-0.2,0.4-0.4,0.6-0.6
			c-0.9-0.9-1.8-1.8-2.7-2.7c-1-1-1.9-2-2.9-2.9c-6-5.1-10.8-11.2-15.2-17.8c-2.2-3.2-1.6-6-0.2-9c1.6-3.4,3.3-6.7,6.6-8.7
			c1.1-0.7,0.5-1.4,0.4-2.1c-0.4-1.3-0.9-2.7-0.9-4.7c2.2,3.4,3,6.9,4.4,10c1.3,2.8,3.7,4.7,5.8,6.8c1.4,1.3,2.6,1.3,3.3-1
			c1-3.4,1.1-3.3,4.6-2c0.1-1.7,0.5-3,2.7-2.2c1,0.4,1.3-0.4,1.4-1.4c0.3-3.1,1-3.6,3.6-2.4c2.2,1.1,2.5,0.1,2.4-1.7
			c-0.1-1.2-0.1-2.4,0-3.5c0.3-3.6,1.9-5.8,5.7-6.8c2.6-0.7,4.1-3.2,5.1-5.7c0.7-1.7,0.8-3.4,3.2-3.8c1.3-0.2,1.9-1.9,1.8-3.4
			c-0.8-8.4-3-16.4-9.2-22.5c-3.9-3.9-9-6-14.6-6.4c-3.9-0.3-7.5,1.5-11.3,2.4c-10.3,2.4-15.6,9.5-18.5,19.2
			c-2,6.6-5.9,12.1-10.6,17.1c-6.3,6.8-13.6,12-22,16c-8.2,3.9-11.2,12.1-8.5,21.3c1,3.4,2.2,6.6,3.6,10.2c-2.1-1.1-2.1-3.1-2.9-4.7
			c-1.8-3.5-3-7.2-3.1-11.1c-0.1-6.3,2.5-11.5,7.6-15.4c5.3-4,11.2-7.2,16.6-11.2C56,40,61.4,32.3,64.6,22.8
			C67.1,15.5,71.1,9,78.1,5.4c9.3-4.8,18.9-8,29.4-2.6c7.9,4,11.4,10.9,13.3,19c0.7,3.3,1.3,6.7,1.2,10.2c-0.1,2.1-0.9,3.6-3,3.8
			c-1.6,0.1-1.9,0.8-2,2.2c-0.2,3.5-1.8,6-5,7.4c-4.8,2.1-5.1,3.8-4.7,9.7c0.1,1.4,1,2.9-0.5,4c-1.4,1.1-2.9,0.5-4.3-0.2
			c-0.3-0.1-0.6-0.2-1.1-0.4c-0.1,2.4-1.1,3.4-3.2,4.7c-1.8,1.1-2.7,2.2-4.8,1c-0.9-0.5-0.8,0.7-1,1.2c-1.7,3.6-4.2,4-7.3,1.4
			c-2.9-2.6-4.9-5.8-6.2-9.4c-0.6-1.6-1-1.4-2-0.4c-3.3,3.3-4.5,7.5-5.4,11.9c-0.1,0.7,0.1,1.1,0.7,1.2c3.8,0.4,5.6,2.9,6.6,6.2
			c2.4,7.8,8.5,12.3,15.1,16.2c5,2.9,10.2,5.3,14.9,8.7c9.8,7.1,5.3,20-2,23.3c-3.5,1.6-6.7,3.9-10.6,4.6
			c-5.4,0.9-10.8,0.7-16.2-0.2c-8.4-1.5-16.6-4.1-24.7-6.6c-0.8-0.3-1.7-0.4-3-0.6c3.7,5.3,7.3,10.2,9.8,15.8
			c3.4,7.7,5.3,15.3,0.2,23.1c-0.5,0.8-0.7,1.6-0.1,2.7c1.3,2.1,0.7,5.1-1.2,6.4c-6.4,4.4-10,10.8-12.9,17.7c-1.3,3-3.7,5.1-4.9,8.2
			c-2.3,6-4.5,12-3.9,18.6c0.1,1.8,0.6,3.7,1.1,5.5c1.9-5.3,4.8-9.7,9.6-12.6c4.6-2.9,9.7-4.1,15.1-4.4c11.9-0.6,23.1,2.1,33.6,7.6
			c3,1.6,5.6,3.9,8.6,5.7c0.6-2.4-0.7-4.4-0.4-6.6c0.1-0.9-0.9-0.7-1.5-0.8c-12.8-2-25.1-5.4-36.5-11.7c-5.9-3.3-11.2-7.4-14-13.9
			c-0.2-0.4-0.4-0.8-0.1-1.5c2.8,3.2,5.5,6.2,8.8,8.7c6.8,5,14.4,8.3,22.1,11.2c6.6,2.5,13.4,4.2,20.1,6.3c2.1,0.7,4.1,0.3,6-0.4
			c11.4-4,18.9-11.7,22.1-23.4c1-3.8,1.7-7.7,1.9-11.7c0-0.8,0.4-1.8-1.1-2c-2.1-0.3-2.1-1.8-1.1-3c2.1-2.4,1-4.7,0.2-7
			c-2.5-6.9-6.7-12.7-11.9-17.8c-4.8-4.8-9.8-9.4-14.7-14.2c-0.6-0.6-1.1-1.2-1.4-2.2c3.2,2.6,6.5,5,9.6,7.7
			c3.1,2.6,6.1,5.3,9.1,8.1c6.2,5.8,10.7,12.6,13,20.8c3.4,12.4-2.2,29.9-10,37.4c-5.1,4.9-11.3,7.7-18.2,8.8
			c-1.8,0.3-1.5,0.8-1.3,2.1c1,7,1.9,14.1,2.3,21.2c1.1,16.6-0.6,32.7-6.7,48.2c-0.5,1.3-1.2,2.5-2.3,3.6c1-3.4,2.1-6.8,2.8-10.3
			c1.4-6.5,2.4-13,2.9-19.7c0.6-7.9,1-15.9,1.1-23.8c0-3.9-0.8-7.7-0.6-11.6c0.1-1.1-0.5-1.5-1.4-2.1c-7.7-5.1-16.2-8.2-25.1-10.2
			c-3.9-0.9-7.9-1.5-11.7-1.4c-10.4,0.2-20.1,2.4-26,12.4c-2.9,4.9-2.1,8,2.4,13.4c2.6,3,5.8,5.4,7.8,8.9c2.8,5.2,3.4,11,4.3,16.6
			c1.4,9.5,1.9,19.1,4.4,28.4C62.3,284.7,62.2,284.9,62,285.3z M94.8,95.6c-0.6,4.3-1.7,5-5.3,3.1c-3.2-1.7-5.9-4.1-8.2-6.8
			c-2.3-2.6-5-4.8-7.2-7.5c2.1,3.7,4.2,7.3,5.4,11.4c1.8,6.3,1.4,12.2-3.7,17c-6.6,6.1-14.5,7.7-23.1,5.9c-0.8-0.2-1.9-0.7-2.1,0.1
			c-0.2,1.2,1.1,1,1.9,1.2c6.4,1,12.7,2.4,19,3.8c8.1,1.8,16.1,4.1,24.6,3.3c7.5-0.6,13.5-5.2,15.9-12.3c1.2-3.4,0.3-6.4-1.8-8.8
			C106.1,101.3,100.3,98.8,94.8,95.6z M78.6,80.4c-2-3-2.1-7.4-7.1-8.6C73.5,75.3,75.6,78.2,78.6,80.4z"/>
		<path class="st0" d="M78.2,36.5c-0.2,0.2-0.4,0.4-0.5,0.6c-0.8,7-5.1,11.3-11.3,14c-5.6,2.5-11.1,4.8-18.1,3.6
			c6.3-1,11.5-2.9,16.7-5.3c6.7-3.1,9.8-8.1,10.4-15.1c0.3-3.3,1.1-6.5,2.5-9.6c2.8-6,7.9-8.3,13.8-8.9c7-0.8,13.6,1.2,19.6,4.8
			c0.4,0.2,0.8,0.5,1.1,0.8c0.5,0.5,0.9,1,1.3,1.7c-2.4-1-4.6-2.4-7-3.2c-5.5-1.9-11-2.8-16.7-1.5c-7.2,1.6-11.3,8.8-11.4,15.3
			C78.6,34.7,78.4,35.6,78.2,36.5z"/>
		<path class="st0" d="M53.3,45.7c2.1-1.3,4.2-2.7,6.3-4c4.1-2.5,6.3-6.4,7.6-10.8c1.2-4.3,3-8.2,5.7-11.8c3.6-4.7,8.4-7,13.9-8.1
			c7-1.4,14-0.1,21,0.6c0.3,0,0.5,0.2,0.8,0.3c-0.1,0.2-0.2,0.5-0.3,0.7c-3.6,0-7.3,0.1-10.9,0c-4.8-0.1-9.6,0.2-14,2.2
			c-7.4,3.2-11.4,9.3-13.6,16.6C67.3,39.6,61.2,43.6,53.3,45.7z"/>
		<path class="st0" d="M78.2,36.5c0.2-0.9,0.4-1.8,0.5-2.7c1.1-2.1,2.1-4.1,3.8-5.8c1.5-1.4,3.3-1.7,5-1.2c1.5,0.5,1.9,2,2.1,3.5
			c0.3,2,3.7,3.5,6.2,2.7c2-0.6,3.6-1.6,5-3.4c2.2-2.9,5.2-5.1,9-4.4c3.9,0.7,6.1,3.6,7.8,7.6c-1.9-0.4-2.5-1.6-3.3-2.4
			c-3.9-3.5-7.2-3.5-11-0.1c-1.1,1-2.3,2-3.5,3c-2.2,1.6-4.5,2-7.1,1.1c-1.1-0.4-1.8-2.2-3.5-0.9c-0.4,0.3-0.4-1.1-0.7-1.8
			c-0.6-1.3-1.2-2.9-2.8-3c-0.9-0.1-2.1,0.6-2.1,2c-0.5,0.9-1.1,1.8-1.6,2.7c-2,2.9-3.4,5.9-0.2,9.1C78.6,42.5,78.1,41.7,78.2,36.5z
			"/>
		<path class="st0" d="M111.8,24.2c-4.7-1.4-9.1-1.7-13.4-1.1c-4.3,0.6-8.4,2-12.9,2.3C92.2,20.9,105.7,18.2,111.8,24.2z"/>
		<path class="st0" d="M82,33.2c0.5-0.9,1.1-1.8,1.6-2.7c0.7-0.5,1.5-0.7,2.3-0.6c0.6,0.1,1.3,0.4,0.6,0.9c-1.2,0.7-0.3,0.6,0.1,0.9
			c2,1.6,1.9,3.1-0.3,4.2c-0.7,0.3-1.3,0.8-1.5,1.5c-0.2,0.7-0.3,1.4-1.4,1.7c-0.6-0.9-0.4-1.9-0.2-3c0.5-1,1.7-1.3,2.5-2
			c0.7-0.7,0.2-1.1-0.3-1.5c-0.6-0.6-1.1-0.5-1.4,0.3c-0.4,1.1-1,2.1-0.8,3.3c-1-0.1-0.5,1.6-1.6,1.4C81,36.1,82.4,34.7,82,33.2z"/>
	</g>
</g>
</svg>
