<?xml version="1.0" encoding="utf-8"?>
<!-- Generator: Adobe Illustrator 19.0.1, SVG Export Plug-In . SVG Version: 6.00 Build 0)  -->
<svg version="1.1" id="Layer_1" xmlns="http://www.w3.org/2000/svg" xmlns:xlink="http://www.w3.org/1999/xlink" x="0px" y="0px"
	 viewBox="0 0 167.9 208.1" style="enable-background:new 0 0 167.9 208.1;" xml:space="preserve">
<style type="text/css">
	.st0{fill:#9c27b0;stroke:#9c27b0;stroke-width:0.4064;stroke-linecap:round;stroke-linejoin:round;}
</style>
<g>
	<desc  xmlns:shape="http://adobe.com/products/shape">
		<shape:version>1.0</shape:version>
		<shape:captureDetail>1.000000</shape:captureDetail>
		<shape:sourceImage></shape:sourceImage>
		<shape:source>0</shape:source>
		<shape:platformVersion>shape-android-1.1.117</shape:platformVersion>
	</desc>
	<path class="st0" d="M132.8,206.7c-2.2-0.1-5.1-1-4.9-3.2c1-10.3-6.5-20-5.6-30.4c0.6-7.1,5.2-13.4,5.9-20.5
		c0.9-8.5-3.8-16.5-7.8-24.1c-4-7.6-7.4-16.6-4.1-24.5c1.3-2.9,3.3-5.4,4.6-8.4c6.2-14.5-10.1-31.9-3.3-46.2
		c2.3-4.9,6.9-8.2,9.9-12.7c0.6-0.8,1-2.1,0.2-2.7c-7.8-5.9-9.7-18.2-4-26.2c5.7-8,18-10.1,26.1-4.6c4.4,3.1,7.5,9.3,4.5,13.8
		c-0.9,1.4,0.6,3.1,1.7,4.5c1,1.4,0.5,4.3-1.1,3.7c-0.7,2.9-1.3,5.9-2,8.8c-0.2,1-0.5,2-1.2,2.7c-0.9,0.9-2.4,1.1-3.3,2
		c-2.1,2-0.3,5.3,1.6,7.5c4.2,4.7,8.7,9.2,13.5,13.3c4.5,3.9,3.3,12.4-2.1,14.9c1.4,7.1,4.7,13.7,5.9,20.8
		c1.1,7.1-0.6,15.5-6.9,19.2c-4,2.4-2.7,8.3-1.9,12.9c1.6,8.3-0.1,17.2-4.6,24.3c-1.8,2.9,0.3,7.2-2,9.8c-6,7-7.4,16.8-8.5,26
		c-0.4,2.8-0.7,5.8,0.7,8.3c1.5,2.9,4.9,4.4,7.9,5.6c2.2,0.9,4.3,1.7,6.5,2.6c-0.9,3.3-5.3,3.8-8.7,3.6
		C144.3,207.3,138.5,207,132.8,206.7 M142.2,195.2c-1.2-3.3-0.5-6.9,0.1-10.3c1-4.9,2-9.8,3-14.8c0.4-1.9,0.8-3.8,2-5.3
		c1.2-1.5,3-2.4,3.9-4.1c1.4-2.8-0.5-6.6,1.2-9.3c4.5-7,6.2-15.8,4.8-24c-0.7-3.8-2-8.1,0.1-11.4c1-1.6,2.7-2.7,4-4
		c4.2-4,5.5-10.3,4.9-16.1c-0.6-5.8-3-11.2-5.3-16.5c-2.2-5.1,5.3-9.9,4.8-15.5c-5.1-5.1-10.3-10.2-15.4-15.3
		c-1.5-1.4-2.9-2.9-3.7-4.8c-0.8-1.9-0.7-4.3,0.7-5.8c1.5-1.5,4.4-2.2,4.4-4.3c0-4,1.5-8,4.1-11c-1.9,0-3-2.3-2.9-4.2
		c0.2-1.9,1.1-3.7,1.2-5.6c0.2-3.1-1.8-6-4.3-7.9c-7.1-5.5-18.6-4.2-24.3,2.8c-5.7,7-4.5,18.6,2.5,24.3c2.1,1.7,1.6,5.1,0,7.2
		c-1.6,2.1-4,3.5-5.8,5.4c-6.1,6.3-4.8,16.6-2.3,25.1c2.5,8.4,5.8,17.5,2.6,25.7c-1.4,3.6-4.1,6.7-5.3,10.5
		c-2.8,8.5,2.3,17.2,6.4,25.2c4,7.6,7.2,16.2,5.5,24.7c-1.2,6-4.9,11.4-5.4,17.4c-0.8,9.3,5.9,18,5.6,27.3c-0.1,1.5-0.1,3.4,1.2,4.2
		c0.5,0.3,1.1,0.3,1.7,0.4c5.4,0.3,10.8,0.7,16.2,1c3,0.2,6.3,0.2,8.5-1.7C151.1,203.1,144.4,200.9,142.2,195.2"/>
	<path class="st0" d="M14.5,188.3c0,0.2,0,0.5,0,0.7c-0.1,0.1-0.3,0.1-0.4,0.1c-0.2-0.3-0.3-0.6-0.2-0.9
		C14.1,188,14.5,188.1,14.5,188.3"/>
	<path class="st0" d="M8.5,38.8c-6.6-4-9.9-12.7-7.6-20.1C3.3,11.4,11.1,6.2,18.8,6.8c7.2,0.6,14.1,7.1,13,14.3
		c-0.2,1.5-0.8,3.2-0.2,4.6c0.5,1.1,1.6,1.9,2.1,3.1c0.4,1.2-0.7,2.9-1.7,2.2c0.1,2.3,0.2,4.7-0.6,6.9c-0.7,2.2-2.5,4.2-4.8,4.7
		c-2.5,0.4-2.6,4.1-1.7,6.5c2.1,5.8,5.7,11.1,10.3,15.2c2,1.8,4.4,3.7,4.7,6.4c0.5,4.7-6.1,8.4-4.8,13c2.5,9.1,5.1,18.6,2.9,27.7
		c-0.9,3.9-2.7,7.8-1.8,11.7c4.7,20.8-6.1,41.7-7.1,63c-0.1,2.7-0.1,5.5,1,8c2.3,5.5,8.6,8,14.2,9.7c1.2,0.4,1.1,2.2,0.1,2.9
		c-1,0.7-2.3,0.7-3.5,0.6c-5.8-0.4-11.6-0.9-17.4-1.3c-1.5-0.1-3.2-0.3-4.2-1.4c-1.4-1.6-0.7-4.1-0.5-6.3c0.5-4.8-1.8-9.4-3.1-14
		c-1.7-6-1.9-12.4-0.6-18.4c2.9-12.9,1.5-26.8-4.1-38.9c-1.4-3.1-3.1-6.2-3.6-9.6c-0.9-6.7,3.1-13,3.9-19.7
		c1.9-15-12.2-29.8-7.2-44.1c1.3-3.9,4-7.2,5.1-11.1C9.6,41.1,9.7,39.5,8.5,38.8 M43.7,205.4c-5.6-2-11.6-4.3-14.5-9.5
		c-1.9-3.4-2-7.5-1.7-11.4c1.2-18.8,9.9-37,7.9-55.7c-0.4-3.9-1.3-7.9-0.6-11.8c0.4-2.4,1.4-4.7,2-7.1c1.6-6.7-0.3-13.7-2-20.4
		c-1.3-5-2.1-11.2,1.9-14.4c1.8-1.5,1.7-4.3,0.6-6.3c-1.1-2-3-3.4-4.7-5c-4.6-4.2-7.9-9.8-9.4-15.8c-0.7-2.8,0-7,2.9-6.9
		c2.5,0.1,3.7-3,3.9-5.5c0.2-2.5,0.5-5.5,2.7-6.5c-1.9-0.7-3.2-3-2.7-5c1.7-6.8-3.6-14.4-10.5-15.7C12.7,7,5.3,11.6,2.9,18.3
		s0.1,14.5,5.5,19c0.6,0.5,1.3,1,1.7,1.6c0.7,1.1,0.7,2.6,0.5,3.9c-0.7,3.5-3.1,6.3-4.5,9.6c-3.1,7.2-0.9,15.5,1.8,22.9
		s6,15,4.9,22.8c-1.1,7.4-6.1,15-3,21.9c5.7,12.4,9.8,26.1,7.8,39.6c-0.8,5.1-2.4,10.2-2.1,15.4c0.4,8.3,5.7,16.1,4.7,24.4
		c-0.2,1.5-0.5,3.3,0.7,4.2c0.5,0.4,1.2,0.5,1.9,0.6C29.6,205.2,36.7,205.6,43.7,205.4"/>
	<path class="st0" d="M75.7,4c4,0.6,8,2.1,10.7,5.1c2.7,3,3.6,7.7,1.5,11.2c-0.6,1-0.1,2.3,0.7,3.2c0.7,0.9,1.6,1.8,1.8,2.9
		c0.2,1.1-1,2.5-2,1.9c-0.1,2.6-0.1,5.3-1,7.8c-0.9,2.5-2.9,4.7-5.5,5.2c-1.6,0.3-2.5,2.4-2.1,4c0.4,1.6,1.5,3,2.6,4.2
		c3.2,3.5,6.4,7.1,9.6,10.6c1.7,1.9,3.5,3.9,4.4,6.4c0.9,2.4,0.6,5.5-1.3,7.3c-2.8,2.5-2.1,7-1.4,10.7c1.2,5.8,2.2,11.6,3,17.4
		c0.3,2.4,0.6,5-0.3,7.3c-0.9,2.3-2.8,4-3.8,6.2c-1.8,3.8-0.8,8.1-0.4,12.3c2,18.8-7.9,36.8-10.3,55.6c-0.5,4.1-0.7,8.6,1.3,12.3
		c2.8,5.1,8.9,7.4,14.6,8.9c0.5,1.1-0.3,2.5-1.4,3c-1.1,0.5-2.4,0.5-3.6,0.4c-6.2-0.4-12.4-0.9-18.6-1.3c-2.5-0.2-5.9-1.6-5.1-4
		c1.7-4.8-1-9.8-2.6-14.6c-2.5-7.1-2.7-15.1-0.6-22.4c1-3.5,2.6-7,3-10.6c0.5-4.5-0.6-9-1.7-13.4c-1.5-5.9-3.1-12-6.3-17.2
		c-2.9-4.8-2.6-10.9-1.3-16.4c1.2-5.5,3.3-10.8,3.4-16.4c0.2-7.6-3-14.7-5.2-22c-2.1-7.3-3-15.7,1.4-21.9c1.4-2,3.3-3.6,4.2-5.9
		c1-2.2,0.5-5.3-1.7-6.3c-2.2-1-3.3-3.5-3.9-5.8c-2.3-8.3-1.8-18.8,5.3-23.5C66.8,3.8,71.4,3.4,75.7,4 M96.9,206
		c-5.9-2-12.4-4.4-15.2-10c-1.8-3.7-1.7-8-1.2-12.1c1-8.1,3.2-16,5.3-23.9c1.2-4.3,2.3-8.5,3.5-12.8c2.4-8.8,2.6-18.2,0.5-27.1
		c-0.9-3.9,3.2-6.9,4.9-10.6c1.5-3.3,0.9-7,0.3-10.6c-1.1-6.6-2.2-13.3-3.4-19.9c-0.7-4.4,5.2-8.2,3.9-12.4
		c-4.5-5.1-9-10.1-13.5-15.2c-1.6-1.8-3.3-3.8-3.7-6.1c-0.4-2.4,1-5.2,3.4-5.4c2.8-0.2,4.1-3.6,4.5-6.4c0.4-2.8,0.7-6.1,3.1-7.6
		c-2-0.1-3.1-2.5-2.9-4.5c0.2-2,1.1-3.9,1-5.9c-0.1-1.6-0.8-3.1-1.7-4.4C82.2,6,75.2,3.7,69.3,5.4c-6,1.7-10.6,7.2-11.6,13.3
		c-1,6.1,1.6,12.6,6.3,16.6c1.9,1.6,1.8,4.7,0.7,6.9c-1.1,2.3-2.9,4-4.3,6.1c-4.2,6.6-3.1,15.2-0.8,22.7c2.3,7.5,5.5,15,4.8,22.8
		c-0.8,9.5-7.2,19.1-3.2,27.7c5.4,11.6,10.9,24.1,8.4,36.6c-0.8,4-2.5,7.8-3.2,11.8c-1.3,7.2,0.3,14.6,3,21.4c1,2.5,2.2,5.2,1.8,7.9
		c-0.3,1.6-1,3.4,0,4.7c0.7,0.8,1.8,1,2.9,1.1C81.7,205.9,89.3,206.2,96.9,206"/>
</g>
</svg>
