<?xml version="1.0" encoding="utf-8"?>
<!-- Generator: Adobe Illustrator 19.1.0, SVG Export Plug-In . SVG Version: 6.00 Build 0)  -->
<svg version="1.1" id="Layer_1" xmlns="http://www.w3.org/2000/svg" xmlns:xlink="http://www.w3.org/1999/xlink" x="0px" y="0px"
	 viewBox="0 0 120 139.6" style="enable-background:new 0 0 120 139.6;" xml:space="preserve">
<style type="text/css">
	.st0{fill:#8BC34A;}
</style>
<g id="allergy-lady2">
	<path class="st0" d="M88.6,45.2c-1.2,3.9-3,7.7-3,11.8c-0.1,6.1-5.4,11-6,17.1c6.9,3.9,15.5,2.4,23.2,0.8c-3.7,3-6.9,6.7-9.3,10.8
		c-1.5,2.6-2.7,6-0.9,8.4c2.2,2.9,2.3,7.2,0.2,10.1c5.6,1,11.3,2.1,16.3,4.7c5.1,2.6,9.5,6.9,11,12.4c-5.7-8.7-15.7-14.4-26.1-14.9
		c-0.7,0-1.5,0-2.1,0.3c-0.6,0.4-1,1.1-1.4,1.7c-2,3.8-4.1,7.6-5.2,11.7c-1.1,4.1-1.1,8.7,0.9,12.5c1,1.8-0.3,4.2-2.2,5.2
		c-1.9,1-4.1,0.9-6.1,0.8c-0.6,0-1.2-0.1-1.7-0.4c-0.5-0.4-0.8-1.1-1-1.7c-2.4-6.6-4.7-13.8-2.4-20.3c-4.6,1.2-9.7-0.1-13.3-3.2
		c-1.1,0.6-1.1,2.2-0.6,3.4c0.5,1.1,1.5,2.1,1.8,3.3c0.8,2.6-1.3,5.4-3.8,6.3c-2.5,0.9-5.3,0.5-8,0.1c-1,3.8-2.1,7.7-3.1,11.5
		c-0.2,0.6-0.3,1.2-0.8,1.6c-0.6,0.5-1.4,0.5-2.2,0.4c-2.6-0.2-5.5-0.4-7.6-2.1c-2.1-1.6-2.9-5.2-0.9-6.9c1.9-1.6,1-5-1-6.4
		c-2-1.5-4.6-1.7-7.1-2.2c-3.3-0.6-6.5-1.7-9.5-3.2c-1.5-0.8-3-3-1.5-3.8c3.8-2,7.1-4.9,9.7-8.2c-10,0.2-19.7,5.9-24.7,14.6
		c1-5.4,5.2-9.7,10-12.3s10.3-3.6,15.7-4.7c-2.7-2.7-1.7-7.2-0.5-10.9c1.5-4.7,3.4-9.7,7.6-12.3c1.2-0.7,2.5-1.2,3.4-2.1
		c1-0.9,1.6-2.5,0.8-3.6c-3.2-5-5.6-10.5-7.1-16.2c-0.6-2.3-1.8-4.4-2.7-6.7c-2.1-5.6-1.4-12.2,1.9-17.2c-0.9,0.8-1.7,1.6-2.6,2.4
		c0-2.6,0.3-5.3,0.9-7.8c-0.6,0.5-1.1,1-1.7,1.5c1.3-8.8,6.5-16.9,13.9-21.8C47,4.9,56.5,3.4,65.1,5.6c-1.9-3-5.5-4.9-9.1-4.6
		c4.7-1.1,10,0.7,13.1,4.4c-0.1-2-0.9-3.9-2.2-5.4c3-0.8,3.9,5.6,7,5.4c3.9-0.2,8,1.2,10.9,3.9c-2.4-1.1-5.5-0.8-7.6,0.8
		c6.3,2.4,10.9,8.5,12.6,15C91.5,31.7,90.7,38.7,88.6,45.2 M46.1,81.5c2.1,0,4.2,0,6.3,0c0.3,0,0.7,0,1,0.2c0.8,0.5,0.5,1.6,0.1,2.4
		c-1.1,1.8-3.1,3.1-5.3,3.3c1.9,0.4,3.7,0.9,5.6,1.3c0.5,0.1,1,0.2,1.3,0.6c0.7,0.6,0.5,1.8-0.1,2.5c-0.6,0.7-1.5,1.1-2.3,1.4
		c0.9,2.2-1,4.6-3,6c-2,1.4-4.4,2.5-5.3,4.8c-0.6,1.7-0.1,3.7,0.4,5.4c0.6,1.9,1.2,3.7,1.9,5.5c1.2,3.3,2.7,6.7,2,10.2
		c2.1,0.2,4.3,0.1,6.4-0.2c1-0.2,2-0.4,2.9-1c0.8-0.6,1.3-1.7,1-2.7c-0.7-1.8-1.4-3.6-2.1-5.4c-0.4-1.1-0.8-2.4-0.1-3.3
		c0.9-1,2.5-0.7,3.7,0c1.7,0.9,3.3,2.1,5.1,2.9c1.8,0.8,4,1,5.6,0c1.9-1.2,2.5-3.6,3-5.8c0.6-2.5,1-5.6-0.9-7.3
		c-1.9-1.8-3.8-3.6-5.7-5.3c-1.2-1.1-2.4-2.8-1.4-4c-1.2-0.3-2.4-0.6-3.1-1.6c-0.7-1-0.4-2.7,0.7-2.9c5.5-1,11.4,0.6,15.7,4.1
		c0.6,0.5,1.4,1.1,2.1,0.9c-1.3-1.7-2.6-3.3-4.5-4.4c-2.5-1.4-5.5-1.3-8.3-1.8c-2.8-0.5-5.8-2.2-6.3-5c3.6-0.1,7.1-0.1,10.7-0.2
		c-2.4-1.8-4.3-4.2-5.4-7c-0.2-0.6-0.4-1.2,0-1.7c0.5-0.7,1.7-0.4,2.5,0c4.9,2.5,9.8,5.1,14.7,7.6c1,0.5,2,1,2.7,1.9
		c0.5,0.6,0.8,1.3,1.1,2.1c0.6,1.6,1.3,3.1,1.9,4.7c1.2-4.6,3.8-8.9,7.3-12.2c-5.4,0.8-11.1,1.5-16.2-0.6c-4.8-2-8.3-6.3-12.9-8.7
		c-3.9-2-8.5-2.6-12.7-1.7c-2.3,0.5-4.5,1.5-6.7,2.5c-4.5,2.2-9.1,5.2-11.2,9.7c2.5-1.4,4.9-2.9,7.4-4.3c1.9-1.1,3.9-2.3,6-2.9
		C52,75.5,49.7,79.5,46.1,81.5 M37.9,46.2c-2.3,2.2-3.6,5.4-3.6,8.6c-1.8-1.7,0.4-5-1-7.1c-0.8,2-1.2,4-1.3,6.1
		c-0.1,2.3,0.3,4.5,0.7,6.7c1.1,5.6,3,11.1,5.5,16.3c4.6-7,13-10.7,21.3-12.2c-0.4-1.9-0.3-3.9,0.2-5.8c0.8,0.8,0.5,2.1,0.4,3.3
		c-0.1,1.1,0.3,2.6,1.5,2.6c3.3,0,6.5,1.2,9.3,2.9c2.8,1.7,5.3,3.9,7.8,6c1.6-4.2,2.8-8.6,3.7-13.1c1-5,1.5-10.3-0.6-15
		C80,47.2,79,49.6,79,52c-2-3.3,0-7.6-0.6-11.4c-0.3-2.4-1.8-4.7-3.9-6c-1.2,4-4,7.5-7.6,9.6c-0.6,0.3-1.3,0.6-2,0.4
		c3.1-2.2,4.8-6.2,4.2-10C67,38.2,63,40.2,59,41.2c-4,1-8.2,1.3-12.1,2.6c-3.9,1.3-7.7,3.9-9.1,7.8c-0.7-0.6-0.6-1.8-0.4-2.7
		C37.7,48,38.1,47.1,37.9,46.2 M43.2,103.7c0.3-0.7,0.8-1.3,1.3-1.9c1.7-1.8,3.5-3.3,5.6-4.6c0.6-0.4,1.2-0.7,1.5-1.3
		c0.4-0.6,0.4-1.4-0.1-1.9c-0.2-0.2-0.5-0.3-0.7-0.3c-2.1-0.6-4.4,0.1-6.3,1.2c-1.9,1.1-3.4,2.8-4.9,4.4c-0.5,0.5-1.3,1.1-1.8,0.6
		c1.5-1.9,3.3-3.6,5.1-5.2c0.9-0.7,1.8-1.4,2.8-1.8c1.6-0.5,3.3-0.2,5-0.3c1.7-0.1,3.5-0.9,3.9-2.5c-3.1-1.2-6.9-2.4-9.7-0.6
		c-3.4,2.1-6.9,4-10.6,5.6c0-1,1.2-1.5,2.1-2c2-1.2,2.6-3.9,4.4-5.4c1.7-1.3,4.1-1.3,6.2-1.4c2.2-0.2,4.6-0.8,5.6-2.7
		c0.1-0.2,0.2-0.6,0-0.7c-0.1,0-0.2-0.1-0.3-0.1c-3.6-0.2-7.2-0.2-10.7,0.1c-0.8,0.1-1.6,0.2-2.3,0.5c-1,0.5-1.7,1.4-2.4,2.3
		c-1.7,2.1-3.6,3.9-5.6,5.6c-0.2-0.5,0.2-1.1,0.5-1.5c1.5-1.7,2.9-3.3,4.4-5c1.2-1.4,2.7-2.9,4.5-2.8c5,0.2,9.7-4.2,9.9-9.2
		c-4.9,3.1-10,5.8-15.2,8.1c-1.7,0.7-3.5,1.5-4.6,2.9c-0.7,0.9-1.1,2-1.5,3.1c-1.2,3.3-2.3,6.7-3.5,10c-0.3,0.9-0.7,1.9-0.7,2.9
		c0,1.3,0.6,2.6,1.2,3.8c2.4,4.8,4.8,9.7,7.2,14.5c1.3,2.6,2.6,5.3,2.9,8.2c0.2,2.9-0.8,6.1-3.4,7.6c2.9,2.7,6.8,4.4,10.7,4.7
		c0.5,0,1.1-0.1,1.1-0.6c-0.3-4.8,2.7-9.2,3-14c0.3-6.3-4.2-11.8-4.7-18.1C43,105.1,43,104.4,43.2,103.7 M64.3,83.1
		c1,2,3.4,3,5.7,3.3c2.3,0.3,4.6,0.2,6.7,1.1c3.3,1.3,5.3,4.7,7,7.8c-3.9-1-7-4-10.8-5.4c-2.9-1.1-6.2-1.1-9.1-0.2
		c0.2,1,1.1,1.8,2.1,2.1c1,0.3,2.1,0.3,3.1,0.5c5.2,0.8,9.1,5.2,12.4,9.3c-0.2,0.4-0.7,0.2-1-0.1c-3.5-3.2-6.7-7.3-11.3-8.2
		c-0.6-0.1-1.2-0.1-1.6,0.2c-0.5,0.3-0.7,1-0.3,1.4c1.8,1.7,3.6,3.5,5.4,5.2c1.4,1.4,3,2.9,3.4,4.9c0.3,1.4,0,2.8-0.4,4.2
		c-1.3,4.9-3.2,9.8-2.8,14.8c0.1,1.5,0.5,2.9,0.8,4.4c0.7,2.7,1.3,5.5,2,8.2c0.2,1,1.6,1.2,2.6,1c2-0.3,4.1-0.8,6-1.5
		c0.9-0.3,2-1.2,1.4-2c-3.3-4.9-2.7-11.6-0.5-17.2c2.2-5.6,5.6-10.5,7.7-16.1c0.2-0.6,0.5-1.3,0.4-2c0-0.5-0.2-0.9-0.4-1.4
		c-1.5-3.7-3-7.4-4.6-11.1c-0.6-1.5-1.4-3.2-2.9-4c-5.5-2.9-11-5.8-16.5-8.7c0.3,3,2.5,5.4,4.7,7.4c0.5,0.5,1,0.9,1.6,1.1
		c1,0.4,2.2,0,3.2,0.2c1.3,0.3,2.4,1.3,3.3,2.3c1.5,1.6,3.1,3.3,4.6,4.9c0.4,0.4,0.8,1.1,0.4,1.5c-2.4-2-4.6-4.2-6.7-6.5
		c-1-1.1-2.7-1.2-4.3-1.2C71.9,83.2,68.1,83.1,64.3,83.1 M16.6,115.7c-0.4,0.2-0.5,0.8-0.2,1.2c0.3,0.4,0.7,0.6,1.1,0.8
		c4.8,2.1,9.8,3.8,14.9,5c0.6,0.1,1.2,0.3,1.8,0.2c-2.8-5.8-5.5-11.5-8.2-17.3C24.2,109.9,20.8,113.6,16.6,115.7 M84.8,53.6
		c-0.7,0.1-0.8,1-0.9,1.6c-0.2,2.5-0.6,5-1.1,7.5c0.9-0.1,1.4-1,1.6-1.8c0.1-0.9,0-1.8,0.2-2.6c0-0.2,0.1-0.4,0-0.6
		C84.9,56.4,85,54.9,84.8,53.6 M39.7,90.7c-0.2,0.2-0.3,0.7,0,0.8c2.2-1.4,4.4-2.6,6.7-3.7c-1.7-0.3-3.6-0.2-4.9,1
		c-0.2,0.2-0.5,0.5-0.7,0.7C40.4,89.8,40.1,90.3,39.7,90.7 M31.3,60.9c0,1.2,0.2,2.5,0.5,3.7c0.1,0.3,0.2,0.6,0.3,0.8
		c0.2,0.3,0.5,0.5,0.8,0.6c0.1-0.2,0.1-0.4,0-0.6c-0.4-1.8-0.7-3.6-1.1-5.4C31.5,60,31.3,60.5,31.3,60.9"/>
	<path class="st0" d="M41,55c0.9-0.7,1.8-1.5,2.9-1.7c1.6-0.3,3.2,0.5,4.5,1.6c1.3,1,2.4,2.3,3.8,3c0.2,0.1,0.5,0.3,0.5,0.5
		c-0.7,0.5-1.6,0-2.3-0.4c-2.3-1.2-4.9-1.7-7.5-1.3c-1.2,0.2-2.4,0.6-3.6,0.9C39.3,56.5,40.2,55.7,41,55"/>
	<path class="st0" d="M63.2,57.7c2.7-1,4-4.4,6.8-4.9c1.9-0.4,3.8,0.8,5.1,2.1c0.3,0.3,0.7,0.7,1.1,0.8c0.4,0.1,1,0.1,1.1,0.6
		c-0.6,0.7-1.7,0.5-2.5,0.2c-3.2-1-6.8-0.5-9.6,1.3c-0.3,0.2-0.6,0.5-1,0.5C63.7,58.3,63.2,58.1,63.2,57.7"/>
	<path class="st0" d="M41,48.8c1.5-0.8,3.3-1.1,5-0.6c0.8,0.2,1.5,0.6,2.1,1c1.7,1,3.2,2.5,4.2,4.1c0.6,1,1.2,2.2,2.3,2.8
		c-0.3,0.4-0.9,0.5-1.4,0.2c-0.5-0.2-0.8-0.6-1.1-1c-1.1-1.5-2.2-3.1-3.6-4.3c-1.4-1.3-3.2-2.2-5.1-2c-1.1,0.1-2.1,0.5-3,0.9
		C40.2,49.5,40.6,49,41,48.8"/>
	<path class="st0" d="M76.1,49.7c-0.5,0.3-1.1,0.1-1.5-0.3c-1.1-1.2-2.9-1.4-4.4-1c-1.5,0.5-2.8,1.5-3.9,2.7c-1.1,1.1-2,2.4-2.8,3.8
		c-0.2,0.4-0.5,0.8-0.8,1.1c-0.4,0.3-0.9,0.4-1.3,0.1c1.4-2.7,2.9-5.5,5.5-7.3c0.6-0.4,1.2-0.7,1.9-1c1.3-0.5,2.7-0.7,4.1-0.4
		C74.1,47.7,75.4,48.5,76.1,49.7"/>
</g>
</svg>
