<?xml version="1.0" encoding="utf-8"?>
<!-- Generator: Adobe Illustrator 19.1.0, SVG Export Plug-In . SVG Version: 6.00 Build 0)  -->
<svg version="1.1" id="Layer_1" xmlns="http://www.w3.org/2000/svg" xmlns:xlink="http://www.w3.org/1999/xlink" x="0px" y="0px"
	 viewBox="-429 197.2 100 167.8" style="enable-background:new -429 197.2 100 167.8;" xml:space="preserve">
<style type="text/css">
	.st0{fill:#8BC34A;}
</style>
<g id="allergy-lady">
	<path class="st0" d="M-329.1,277.4c-0.4-3.5-2.1-7.2-5.1-9.1c-2.5-1.6-5.5-1.9-8.2-2.9c-2.7-1-5.3-3.4-5-6.3
		c0.9-8.5,0.2-17-0.9-25.5c-1.5-12.3-4.4-25.9-14.7-32.7c-6.7-4.5-15.9-4.9-23-1.3c-1.3,0.5-2.6,1.2-3.7,2c-2.1,1.4-3.4,2.9-4.1,4.7
		c-4.1,5.2-6.4,11.8-7.4,18.3c-1.1,7.9-0.7,15.8-0.8,23.7c-0.1,1.6-0.3,3.3-0.2,4.9c0,0.1,0,0.2,0,0.4c0,0.6-0.1,1.3-0.2,1.9
		c-0.6,1.1-1,2.3-1.2,3.6c-0.7,1.3-1.7,2.2-3.2,2.4c-4.8,0.8-9.5,2-13.6,4.5c-4.1,2.6-7.4,6.6-8.3,11.3c-0.4,2.7-0.1,5.4,0.2,8.1
		c2.3,19.5,4.7,39.2,10.7,58c0.7,2,0.5,4.3,0.2,6.4c-0.7,5.1-1.8,10.2-3.2,15.1c2.2,0.2,3.3-2.7,3.2-4.9c-0.1-2.2-0.3-4.8,1.6-6
		c7.4,4.7,15.9,7.5,24.6,8.3c-5.8-2.1-11.6-4.1-17.4-6.2c-2.3-0.8-4.6-1.6-6-3.5c-1.6-1.8-2-4.8-0.3-6.4c2.3,3.8,5,7.8,9.2,9.5
		c4.2,1.6,10.2-0.5,10.6-5c0.2-2.1,3-2.7,5.1-2.7c8.9,0,17.9,0.3,26.9,0.8c0.4,1.2,0.9,2.4,1.3,3.6c-10,3.7-21,3.3-31.7,2.8
		c4.8,1.6,9.9,2.2,15,2c4.6-0.2,9.1-1.1,13.6-2.1c5.1-1.1,10.3-2.2,15.5-3.3c4.1,2.9,2.4,11.2,7.2,12.4c-1.6-4-3.2-8.1-4.8-12.1
		c-0.6-1.5-1-3.7,0.4-4.6c5.9-3.7,7.7-11.3,9-18.2c2.6-13.7,5.2-27.5,7.8-41.2C-329.4,284.6-328.7,281-329.1,277.4z M-357.4,301.9
		c0.6-0.1,1.1-0.3,1.6-0.5c0.5-0.1,0.9-0.3,1.4-0.5c-0.5,2.6-1.1,5.3-1.9,7.8c-0.4,1.2,0.1,2.5-0.6,3.5c-0.7-1.1-0.5-2.6-1-3.8
		c-0.9-2.1-1.6-4.3-2-6.6C-359.1,302-358.2,302.1-357.4,301.9z M-356.5,258.4c0.3,0.1,0.6,0.1,0.8,0.3c0.2,0.2,0.3,0.5,0.2,0.7
		c-1.1,1.8-2.1,3.8-2.9,5.8c-2.8-3.7-5.5-7.4-8.3-11.1c-0.1-0.2-0.3-0.4-0.4-0.6c2.9,1,5.6,2.3,8.2,3.8
		C-358.1,257.8-357.3,258.1-356.5,258.4z M-380.8,199.1c0.8-0.2,1.7-0.5,2.5-0.1c0.6,0.3,1,0.9,1.3,1.5c2.3,4.1,4.8,8.5,4.7,13.3
		c0,2.3-0.6,4.4-1.5,6.5c0.2-1.5,0.2-3.1-0.1-4.7c0.3-2.2-0.1-4.6-0.7-7.1c-0.7-3-3-8.6-6.6-8.8c-0.2-0.1-0.3-0.2-0.5-0.2
		C-381.4,199.3-381.1,199.2-380.8,199.1z M-387.4,244.2c1.9,1.6,5.1,1,6.3-1.1c-1.4,0-2.7,0-3.9-0.1c-0.9,0-1.2-1.4-0.6-2.1
		c0.6-0.6,1.7-0.7,2.6-0.5c0.9,0.2,1.8,0.5,2.7,0.3c0.6-0.1,1.3,0.3,1.6,0.9c0.3,0.6,0.3,1.2,0.3,1.9c0,1.1,0.1,2.2,0.1,3.3
		c0.4,0.2,0.8,0.3,1.2,0.2c0.3-1.6,0.3-3.3,0.1-5c-0.2-1-0.4-2-1.1-2.7c-1.3-1.4-3.5-1.3-5.4-1c0.6-2.4,2.4-4.2,4-6.1
		c2.8-3.2,5.1-6.8,7-10.5c0.7,0.5,1.4,1,2.2,1.5c2.5,1.6,5,3.3,6.9,5.6c2.9,3.4,4.1,8,4.3,12.4c0.1,4.4-0.7,8.8-1.6,13.2
		c-2.7-0.9-5.4-1.8-7.7-3.5c-2.3-1.7-4-4.4-3.8-7.2c0.1-0.8,0.3-1.7,1-2.2c0.3-0.2,0.8-0.4,1.2-0.5c2.9-0.8,5.7-1.6,8.5-2.4
		c0.2-0.6-0.3-1.4-1-1.7c-0.7-0.3-1.5-0.2-2.2-0.1c-3.2,0.5-6.5,1.7-8.1,4.4c-1.5,2.7-0.9,6.4,1.4,8.4c-3.6-1.3-7.5-1.4-11.2-0.4
		c-0.8,0.2-1.5,0.8-2.1,1.4c-1.4,1.4-2.9,2.8-4.3,4.2C-390.1,251.3-389.5,247.2-387.4,244.2z M-375.6,253.8c-0.3,0.4-0.1,0.8,0,1.2
		c0.2,0.6,0.3,1.3,0.1,1.9c-0.1,0.3-0.5,0.5-0.9,0.5c0.1-1.1,0.2-2.2,0.2-3.4c0.1-0.7,0.1-1.4-0.2-2c-0.4-0.7-1.2-1.1-2-1.5
		c0-0.3,0-0.6-0.2-0.9c1.6-0.2,3.4,0,5,0.5c0.1,0.6-0.7,0.9-1.2,1.3C-375.5,252-375.9,253-375.6,253.8z M-372.8,276.3
		c0,0.9-0.6,1.6-1.1,2.4c-1,1.5-1.6,3.1-1.9,4.8c-0.4,0.1-0.8,0-1.2-0.2c0.2,0,0.3-0.3,0.3-0.6c0-0.3-0.2-0.5-0.3-0.8
		c-0.3-0.8,0.1-1.8,0.5-2.6c0.9-1.8,2.1-3.5,3.5-5c0.2,0.1,0.3,0.3,0.5,0.4C-373,275-372.8,275.7-372.8,276.3z M-376.4,312.6
		c-0.1-0.4-0.2-0.8-0.2-1.2c-0.1-1.4-0.3-2.7-0.4-4.1h-0.6c-0.9,1.8-0.2,4.1-1.2,5.8h-1.8c0.3-1.5,0.6-3,0.9-4.4
		c0.7-3.4,1.4-6.7,2.1-10.1c0.1-0.7,0.4-1.6,1.2-1.7c0.5,0,1,0.4,1.2,0.8c0.2,0.5,0.3,1,0.3,1.5c0.3,3.9,0.5,7.8,0.7,11.6
		c0.1,1,0.2,2,0.8,2.7C-374.4,314.1-375.9,313.7-376.4,312.6z M-373.1,316.7c1.1,6,2.1,11.9,3.2,17.9c-6,0.3-11.9,0.6-17.9,0.8
		c2.8-6.1,4.8-12.6,6-19.3c0.2-1.2,1.9-1.4,3.2-1.3c1.2,0.1,2.4,0.2,3.6,0.3c0.5,0.1,1.1,0.2,1.5,0.6
		C-373.2,316-373.2,316.4-373.1,316.7z M-375.9,286.7c-0.6,0.7,0,1.7,0.1,2.6c-0.4,0.5-1.1,0.8-1.7,0.7c-0.1-0.6-0.2-1.2-0.5-1.8
		c0.3-0.9,0.6-1.8,0.8-2.7c0.1-0.2,0.1-0.5,0.3-0.7c0.3-0.3,0.7-0.5,1.1-0.5C-376.3,285-376.3,286-375.9,286.7z M-375.3,294.4
		c0.1,0.5,0.2,1,0.3,1.5c-0.5,0.4-1.4,0-1.7-0.6c-0.2-0.6-0.1-1.3,0.1-2c0.1-0.5,0.2-0.9,0.3-1.3c0.1-0.2,0.2-0.4,0.4-0.3
		c0.1,0.1,0.1,0.1,0.1,0.2C-375.6,292.7-375.5,293.6-375.3,294.4z M-374.6,273.7c-1.4,1.6-2.5,3.4-3.2,5.4c-0.1-0.2-0.2-0.3-0.3-0.5
		c-0.4-0.6-0.8-1.2-0.9-1.9c-0.1-0.9,0.2-1.7,0.6-2.5c0.4-0.8,0.8-1.7,1.2-2.6c0.6-1.3,1-2.7,1.2-4.1c0.1-0.3,0.2-0.7,0.5-0.7
		c0.6,1.6,1.1,3.2,1.6,4.8c0,0.3,0.1,0.5,0.1,0.8C-373.9,272.9-374.3,273.3-374.6,273.7z M-394.8,261.4c2.4-2,4.8-4.1,7-6.2
		c1.3-1.2,2.7-2.4,3.9-3.8c0.6-0.6,1.2-1.4,2-1.5c-2.4,4.1-6.1,7.2-9,10.9c-0.8,1.1-1.6,2.3-1.6,3.7c-1-0.6-1.9-1.4-2.6-2.4
		C-395,261.9-394.9,261.7-394.8,261.4z M-395.6,296c1.8-1,3.3-3.2,5.3-2.8c-1.7,4.6-3.5,9.3-5.3,14c-0.2,0.5-0.8,1.2-1.2,0.7
		c-1.2-1.5-3.6-1.4-4.8-2.9c-0.5-0.5-0.7-1.3-0.9-2c-0.7-2.4-1.4-5-1.4-7.4C-401.1,296.6-398,297.5-395.6,296z M-397.2,311.4
		c-1,2-2.1,4-3.1,5.9c-0.4-1.1-0.7-2.2-1-3.4c-0.2-1.1-0.4-2.1-0.6-3.2c-0.2-1-0.4-2.1-0.7-3.3c-0.1-0.2-0.1-0.4,0-0.6
		c0.1-0.1,0.3-0.3,0.5-0.1c1.4,1.4,3,2.5,4.8,3.3C-396.8,310.2-396.9,310.9-397.2,311.4z M-397.9,352.7c-0.4,1.5-2.4,1.8-3.9,1.7
		c-3.2-0.1-7-0.7-8.2-3.6c-1-2.5-3.4-4.2-5-6.3c-1.8-2.3-2.6-5.2-3.5-8c-1.7-5.7-3.5-11.5-4.2-17.5c-0.5-3.6-0.5-7.3-0.9-10.9
		c-0.6-6.2-2.1-12.3-3.3-18.5c-0.8-4.5-1.5-9.4,0.1-13.9c1.6-4.3,5.2-7.6,9.3-9.6c4.1-2.1,8.6-3,13.1-3.7c0.2,0,0.3,0,0.5,0.1
		c0,2.1,0.3,4.2,0.8,6.2c0.3,4.5,0.3,9.1,0.1,13.6c-0.9-3.9-2-8.1-5-10.8c-0.6,1.2,0.1,2.7,0.8,3.9c3,5.3,5.1,12.1,2.1,17.5
		c0-1.3-1.5-2.3-2.7-1.9c5.1,7.2,2.3,17.5,5.8,25.6c0.9,2.1-0.8,4.2-2.3,5.9c-3.3,3.7-6.4,7.8-9,12c-0.9,1.5-1.7,3.5-0.7,5
		c1.9-3.9,4.2-7.6,6.9-11c2-2.6,4.1-5,6-7.5c5.8-7.9,9.2-17.2,12.5-26.4c0.7-1.8,1.3-3.7,1.2-5.6c-0.2-2.1-1.2-3.9-2.2-5.7
		c-1.8-3.1-3.5-6.2-5.3-9.3c-0.4-0.7-0.1-1.5,0.2-2.3c3.2-8.2,8.5-15.6,15.3-21.2c-3.6,6.2-7.1,12.5-10.7,18.8c-0.6,1-0.8,2.9,0.4,3
		c0.8,0.1,1.3-0.8,1.6-1.5c2.8-6.5,6.2-12.7,10.1-18.6c1.1,3-0.4,6.3-1.8,9.2c-1.8,3.6-3.6,7.3-5.4,11c-0.5,1.1-1.1,2.7-0.1,3.6
		c3.2-5.8,6.2-11.7,8.8-17.8c0.6,3.6,0.1,7.4-1.3,10.7c-0.8,1.9-1.9,3.7-2.4,5.7s-0.4,4.3,1,5.8c2.4,2.5-1.6,7.5,0.8,10.2
		c0.6,0.7,0.5,1.8,0.3,2.8c-3.4,17.4-7,35.1-15.7,50.6C-395.4,346.8-397.1,349.6-397.9,352.7z M-380,346.5c-1.3-0.1-2.5-0.2-3.7-0.1
		c-1.3,0.1-2.5,0.4-3.8,0.5c-1.9,0.2-3.9,0.2-5.9-0.1c1.5-2.8,2.9-5.6,4.4-8.4c0.2-0.4,0.4-0.8,0.8-1.1c0.6-0.4,1.3-0.5,1.9-0.5
		c5.2-0.4,10.5-0.5,15.8-0.3c0.4,0,0.8,0,1.1,0.2c0.3,0.2,0.5,0.6,0.7,1c1.6,3.3,3.2,6.6,4.9,9.8
		C-369.2,347.2-374.6,346.8-380,346.5z M-330.8,281.1c-0.5,11.7-5.3,22.9-6,34.6c-0.2,3.1-1,6.2-1.8,9.2c-1.1,4-2.1,7.9-3.2,11.9
		c-0.3,1.3-0.6,2.5-1.2,3.7c-0.6,1.3-1.5,2.4-2.4,3.5c-1.7,2.2-3.5,4.4-5.8,6c-2.3,1.6-5.2,2.5-7.9,1.9c-0.6-0.2-1.2-0.5-1.5-1
		c-7.1-13.5-11.3-28.6-12.1-43.5c-0.2-3-0.2-6-0.6-8.9c-0.4-3.1-1.2-6.2-1.4-9.3c-0.3-3.1,0.1-6.4,1.8-9c1.9-3,1-7.1-0.3-10.5
		c-1.2-3.5-2.8-7.1-1.8-10.6c2.5,5.1,5.1,10.2,7.7,15.2c0.5,0.9,1.9,2,2.4,1c-3.8-6.3-7-13-9.4-19.9c-0.3-1-0.4-2.5,0.6-2.8
		c1.9,2.8,3.7,5.6,5.6,8.4c1.2,2,2.5,3.9,3.3,6c1.2,3,1.7,6.8,4.7,8.1c-2.9-8.4-7.2-16.2-12.6-23.2c0.2-0.6,1-0.8,1.6-0.6
		c0.6,0.2,1,0.7,1.4,1.2c4.6,5.7,8.8,11.7,12.7,17.9c0.9,1.4,1.7,3.2,0.8,4.5c-2.2,3.1-4.3,6.2-6.5,9.3c-0.7,1-1.4,2.1-1.8,3.3
		c-0.6,2-0.1,4.2,0.5,6.2c1.4,5.2,3,10.5,4.5,15.6c0.8,2.3,1.6,4.6,2.6,6.8c1.1,2.3,2.5,4.5,3.8,6.6c2.8,4.4,5.6,8.9,8.4,13.4
		c0.2,0.2,0.5,0.5,0.8,0.4c-0.3-3.3-2.2-6.2-4-9c-2.3-3.7-4.7-7.3-7.1-11c-0.5-0.7-0.5-1.6-0.5-2.4c0.1-7.1,2.7-14,7.2-19.4
		c0.9-1.1,1-2.7,1-4.2c0-8.5,0.1-17.1,0.2-25.6c3.3,0.9,6.6,1.8,9.5,3.5c2.9,1.7,5.5,4.2,6.4,7.5
		C-330.7,277.6-330.7,279.4-330.8,281.1z"/>
	<path class="st0" d="M-366.3,242.2c0.1,0,0.3,0,0.4,0c0.9,0,1.7-0.1,2.6-0.1c0.3,0.9-0.5,1.9-1.4,2.3c-1.2,0.5-2.6,0.3-3.6-0.5
		c-0.2-0.2-0.5-0.4-0.6-0.7s0-0.7,0.3-0.8c0.1,0,0.2,0,0.3-0.1C-367.6,242.2-366.9,242.2-366.3,242.2"/>
</g>
</svg>
