<?xml version="1.0" encoding="utf-8"?>
<!-- Generator: Adobe Illustrator 18.1.1, SVG Export Plug-In . SVG Version: 6.00 Build 0)  -->
<!DOCTYPE svg PUBLIC "-//W3C//DTD SVG 1.1//EN" "http://www.w3.org/Graphics/SVG/1.1/DTD/svg11.dtd">
<svg version="1.1" id="Layer_1" xmlns="http://www.w3.org/2000/svg" xmlns:xlink="http://www.w3.org/1999/xlink" x="0px" y="0px"
	 viewBox="0 0 178.2 285.4" style="enable-background:new 0 0 178.2 285.4;" xml:space="preserve">
<style type="text/css">
	.st0{fill:#8BC34A;}
</style>
<g id="allergy-lady">
	<path class="st0" d="M18.5,285.4c0.3-3.2,1.3-6.2,2.5-9.1c1.1-2.7,2.1-5.5,3.2-8.3c0.3-0.8-0.2-1-0.8-1c-3.5-0.2-6.2-2.1-8.9-4.1
		c-0.6-0.5-1.3-1-2-1.4c-3.6-2-5.7-5.3-7-9c-1.2-3.4-2.2-7-2.8-10.5c-1.3-7-2.3-14-2.3-21.1c0-2.3-0.3-4.5-0.4-6.8
		c-0.3-4.7,0.4-9.4,1.1-14c0.7-4.6,1.5-9.3,2-13.9c0.3-3.1,0.2-6.3,0.2-9.5c0-7.5-0.2-15.1-0.1-22.6c0.1-5.2,0.5-10.4,1-15.6
		c0.4-4.2,1-8.5,1.9-12.6c1.4-5.9,4.5-10.6,9.8-13.9c2.7-1.6,5.4-3.1,8.4-4.1c0.6-0.2,1.3-0.3,1.9-0.3c2.4-0.1,4.9,0.1,7.3-0.2
		c2-0.2,3.9-0.8,5.9-1.3c0.3-0.1,0.6-0.7,0.7-1c1.3-4.4,2-8.8,1.8-13.4c-0.1-2.6,0.3-5.4-0.3-7.8c-0.9-3.7-0.5-7.2-0.4-10.9
		c0.3-6.6,0.8-13.1,1.4-19.6c0.1-1.3,0.8-2.5,1-3.7c0.6-3.2,1.2-6.4,1.6-9.6c0.6-4.7,1.5-9.2,4.1-13.3c1.5-2.4,2.5-5.1,3.7-7.6
		c1.7-3.7,4.1-6.9,6.6-10c0.3-0.3,0.7-0.7,1.1-0.7c1.4,0,2.2-0.9,3.1-1.7c3.4-2.8,7-4.9,11.6-4.9c0.4,0,0.8,0,1.2-0.2
		c2.5-1.2,5.1-1.2,7.7-1.2c1.2,0,2.4,0,3.6,0c1.2,0,2.2,0.1,3.2,1c0.7,0.7,1.4,0.7,2.4,0.1c3.3-2,10.8-2.4,14,1.4c0.8,0.9,2,1.3,3,2
		c4.9,3.8,8,8.9,10.2,14.6c1.6,4.2,2.7,8.5,3.9,12.8c1.7,6.2,3.6,12.4,5.1,18.7c0.7,3.2,0.7,6.5,1.1,9.7c0.4,3.8,0.9,7.6,1.4,11.3
		c0.2,1.7,0.4,3.5,0.4,5.2c0,5.8-0.2,11.6-0.3,17.4c0,0.6,0,1.2,0,1.8c0,2.3,0,2.4,2.3,2.7c1.8,0.3,3.6,0.4,5.4,0.6
		c3.6,0.3,7.3,0.6,10.9,1c0.4,0,0.9,0.1,1.2,0.3c1.6,1.2,3.5,1.3,5.3,1.7c1.7,0.4,3.2,1.2,4.3,2.6c2.5,3.2,4.6,6.5,6,10.3
		c1.4,3.9,2.4,7.9,2.4,12.1c0,0.6,0.3,1.2,0.4,1.8c0.7,3.2,1.6,6.3,1.9,9.5c0.4,3.4,0.2,6.9,0.3,10.3c0.1,4.8,0,9.6,0.6,14.3
		c1,7.6,1.7,15.2,2.4,22.8c0.1,1.1,0.4,2.1,0.6,3.2c0.6,4.1,1.3,8.2,1.6,12.3c0.6,7.3,0.1,14.7,0.2,22.1c0,3,0,6-0.5,8.9
		c-0.7,4.6-1.8,9.1-2.9,13.6c-0.8,3-3.1,5-5.2,7.1c-2.6,2.6-5.8,4-9,5.7c-3,1.5-6.2,0.9-8.6-1.8c-2.1-2.3-3.9-5-5.8-7.5
		c-0.3-0.4-0.6-0.7-0.9-1c-0.1,0.1-0.3,0.1-0.4,0.2c0.3,0.8,0.4,1.7,0.8,2.5c0.9,1.7,1,3.4,0.4,5.1c-0.8,2.4-0.2,4.6,1.5,6.4
		c1.2,1.2,1.8,2.7,1.2,4.2c-1,2.6-0.9,5.1-0.5,7.7c0.4,2.7,0.6,5.5,1,8.2c0.1,0.7,0.3,1.4,0.5,2.1c-0.4,0-0.8,0-1.2,0
		c-0.4-3.3-0.8-6.5-1.3-9.8c-0.4-2.7-0.9-5.3,0.2-7.9c0,0-0.1-0.1,0,0c-3.7,1.8-7.4,3.7-11.2,5.2c-2.9,1.2-6,1.8-9,2.7
		c-0.2,0.1-0.5-0.2-0.8-0.3c0.2-0.2,0.4-0.5,0.6-0.6c1.6-0.5,3.1-1.1,4.7-1.5c3.7-0.9,7.2-2.1,10.4-4.2c1.8-1.1,3.7-2,5.8-3.1
		c-0.2-0.5-0.4-1.2-0.9-1.7c-2.4-2.4-3-5.2-1.9-8.4c0.1-0.2,0-0.5,0-0.7c-0.2,0-0.2-0.1-0.3-0.1c-3,1.2-5.9,2.3-8.9,3.5
		c-2.1,0.8-4,2.1-6.4,2.1c-0.4,0-0.7-0.3-1.1-0.5c0.3-0.2,0.6-0.5,1-0.6c1.1-0.3,2.2-0.4,3.3-0.9c1.5-0.6,2.9-1.4,4.4-2
		c2.3-0.9,4.7-1.7,7.1-2.5c1.1-0.4,1.2-0.9,0.6-1.8c-0.8-1.4-1.2-2.9-0.7-4.5c0.1-0.3-0.1-0.7-0.3-1c-3.7-4.1-6.5-9-10.8-12.6
		c-2.4-2-4.2-4.7-6.2-7c-0.9-1-1.7-2-2.4-3.1c-1.4-1.9-2.7-3.9-4-5.9c-0.2-0.3-0.7-0.5-1-0.6c-1.4-0.2-2.9-0.2-4.3-0.4
		c-2.7-0.5-5.4-1-8.1-1.7c-1.1-0.3-2.2-1-3.2-1.6c-0.3-0.1-0.3-0.7-0.4-1.1c0.4,0.1,0.9,0,1.2,0.2c1,0.9,2.1,1.1,3.3,1.3
		c2.4,0.4,4.8,1,7.1,1.5c1.3,0.2,2.6,0.2,4.1,0.4c-0.6-1-1-1.7-1.5-2.4c-1.3-2.1-2.7-4.1-4-6.2c-1.9-3.2-3.7-6.5-5.5-9.8
		c-1.7-3.1-3.3-6.3-5.1-9.4c-1.2-2.1-2.5-4.2-3.7-6.4c-0.6-1-1.1-2.1-1.5-3.3c-0.6-1.9-0.5-1.9-2.6-2c-0.3,0-0.6,0-1,0
		c-5.2,0.2-10.4-0.1-15.4-2.2c-0.2,0.6-0.3,1.1-0.4,1.6c-0.7,2.4-1.3,5-2.2,7.3c-1.9,5-4.1,10-6,15c-1.4,3.6-2.6,7.4-4.2,11
		c-1.4,3.2-3.2,6.2-4.9,9.3c-0.5,0.9-0.3,1.5,0.6,1.5c2.6,0.1,5.2,0.3,7.7-0.1c2.9-0.5,5.6-1.6,8.4-2.4c0.2,0,0.3-0.1,0.5-0.1
		c0.3,0.1,0.6,0.3,0.8,0.4c-0.2,0.2-0.3,0.6-0.5,0.7c-1,0.4-2,0.8-3.1,1.1c-1.7,0.5-3.4,0.9-5.1,1.3c-3.2,0.8-6.5,0.8-9.7,0
		c-0.7-0.2-1,0-1.3,0.6c-0.7,1.4-1.1,3.1-2.2,4.1c-1.7,1.5-2.8,3.5-3.7,5.4c-2,4.1-4.4,7.9-7.3,11.5c-2,2.5-4.3,4.8-6.3,7.3
		c-2.6,3.1-5.2,6.2-7.4,9.5c-1.3,1.9-2.6,3.7-4.4,5.1c-2.2,1.7-3.6,3.6-4.3,6.3c0,0.1-0.1,0.2-0.1,0.3c-0.3,1.1-0.7,2.3-1.1,3.7
		c2.1,0.1,4,0.3,5.9,0.3c2.1,0,4.3-0.1,6.4-0.1c0.3,0,0.7,0.3,1,0.4c-0.3,0.2-0.6,0.6-1,0.7c-0.6,0.1-1.2,0.2-1.8,0.1
		c-3.2-0.2-6.5-0.3-9.7-0.6c-0.9-0.1-1.6,0.1-1.9,1.1c-0.6,2.2-1.2,4.3-1.9,6.5c-0.2,0.5-0.3,1.1-0.4,1.6
		C19.2,285.4,18.9,285.4,18.5,285.4z M148.1,140.6c0.2,0,0.3,0,0.5,0c0,0.5,0.2,1,0.1,1.4c-0.9,3.2-1.6,6.6-3.4,9.5
		c-0.7,1.1-1.3,2.3-1.8,3.5c-0.4,1.1-0.4,2.3-0.6,3.4c0,0.2-0.2,0.5-0.1,0.7c0.4,3.9,0.7,7.8,1.4,11.5c1.2,6.4,1.2,12.7,0.7,19.1
		c-0.1,1.9-0.2,3.8,2.1,4.6c0.3,0.1,0.6,0.4,0.8,0.7c2,2.2,4.2,4,7,5c0.8,0.3,1.6,0.8,2.2,1.4c1.3,1.3,2.6,2.6,3.8,4
		c1,1.1,1.7,2.5,2.7,3.6c1.8,2.2,3.7,4.3,5.5,6.5c0.3,0.3,0.3,0.9,0.4,1.3c-0.4-0.3-0.9-0.5-1.2-0.8c-1.5-1.7-2.9-3.5-4.4-5.2
		c-0.9-1.1-1.8-2.1-2.7-3.3c-1.9-2.6-4-5.3-6.9-6.7c-2.9-1.3-5.3-3.1-7.5-5.5c-0.3-0.3-0.7-0.7-1.1-0.8c-1.4-0.1-1.8-1.2-2.5-2.1
		c-0.9-1.2-1.9-2.5-3-3.6c-2.2-2.2-4.7-4.2-6.8-6.6c-2.4-2.8-4.4-5.9-6.6-8.8c-1.2-1.5-2.6-2.9-3.9-4.3c-1.7-1.8-3.4-3.7-5.2-5.5
		c-1.2-1.3-2.7-2.5-3.6-4c-2.6-4.3-4.9-8.8-7.4-13.3c0.2-0.1,0.2-0.1,0.1,0c-0.1,0.1-0.2,0.2-0.2,0.3c-1.5,2.3-3.3,4.1-6.2,4.6
		c-0.8,0.1-1.5,0.6-2.3,0.9c-0.3,0.1-0.6,0.1-0.9,0.2c0.7-1.3,1.9-1.5,2.9-1.7c2.9-0.5,4.6-2.3,6.1-4.5c0.6-0.9,0.6-1.8,0.7-2.7
		c0.1-1,0-2.2,0.4-3.1c1.3-3,3-5.8,4-8.9c1.2-3.8,3.6-6.9,5-10.5c0.8-2,1.7-3.9,0.9-6.2c-0.1-0.4-0.1-0.8-0.1-1.2
		c0.3-2.7,0.5-5.4,0.8-8.1c0.3-2.6,0.2-5-1.8-6.9c-1.4-1.4-2.9-2.7-4.4-3.9c-0.9-0.8-2-1.4-3.1-1.9c-1.3-0.6-2.7-1.1-4-1.7
		c-0.9-0.3-1.8-0.6-2.8-0.9c1.3,2-0.1,3.7-2.9,4c0,0.2,0,0.5,0.1,0.7c0.6,1.5,2.3,1.8,3.5,2.3c1.4,0.6,2.5,1.5,3.6,2.5
		c1.1,1,2.5,1.7,3.7,2.6c0.2,0.2,0.4,0.3,0.9,0.8c-1.6-0.1-1.7,0.7-1.6,1.6c0.1,1.2-0.2,2.5,0.1,3.6c0.3,1.5,0,2.7-1.2,4
		c2.3,2.1,4.6,4.1,6.8,6.1c-0.1,0.1-0.2,0.2-0.3,0.4c-0.3-0.2-0.6-0.3-0.9-0.5c-0.9-0.8-1.8-1.6-2.7-2.4c-2-1.8-4-3.5-5.3-6
		c-0.8-1.6-1.6-3.3-2.4-4.9c-0.4-0.8-0.9-1.5-1.4-2.4c-0.9,0.7-1.6,1.2-2.3,1.7c-0.2-0.7-0.2-0.7,1.6-2.1c-1.8-4.8-3.6-9.5-5.3-14.2
		c-0.9,0.5-1.9,0.9-3,1.5c0.1,0.5,0.1,1.2,0.3,1.9c0.3,1.6,0.8,3.1,1.1,4.7c0.5,3.7,1.2,7.2,3.3,10.4c0.2,0.3,0.2,0.6,0.3,0.9
		c1.2,2.7,2.3,5.4,3.6,8c0.9,1.9,2.3,3.5,3.3,5.3c0.5,0.8,0.6,1.9,0.9,2.8c-0.1,0-0.2,0.1-0.3,0.1c-2.8-5.3-5.7-10.5-8.6-15.8
		c-0.3,0.2-0.8,0.4-1.3,0.7c0-0.2-0.1-0.3-0.1-0.3c0.5-0.4,0.9-0.9,1.5-1.4c-3-4.1-2.9-9.1-4.1-14.1c-1,1.5-2,1.7-3.2,0.6
		c0.2,1.3,0.4,2.3,0.6,3.3c0.6,0.3,1.6-0.3,1.8,0.9c0.2,2.3,0.5,4.6,0.8,6.8c0.3,2.5,0.5,5,1,7.4c0.4,2,0.9,4,1.5,6
		c0.4,1.5,0.8,3.2,1.4,4.6c0.8,1.8,2,3.4,3,5.1c0.2,0.3,0.1,0.7,0.2,1.1c-1.6-2.3-3.3-4.6-4.3-7.1c-1-2.5-1.4-5.3-2.2-8.1
		c-0.6,0.4-1,0.7-1.4,0.9c-0.1-0.1-0.1-0.1-0.2-0.2c0.3-0.3,0.6-0.6,0.9-0.9c0.2-0.3,0.5-0.6,0.4-0.9c-0.6-4.7-1.2-9.3-1.8-14
		c0-0.3-0.4-0.6-0.5-0.9c-0.2,0.3-0.6,0.6-0.6,0.9c0,5.9,0,11.7,0.1,17.6c0,1.6,0.4,3.3,0.5,4.9c0,0.5-0.2,1.3-0.5,1.5
		c-1.7,0.8-2.9,1.8-2.6,3.9c0.1,0.6,0.2,1.3,0,1.9c-0.6,1.9,0.5,2.9,1.6,4c0.3,0.2,0.5,0.4,0.9,0.7c-0.1,0.2-0.2,0.3-0.3,0.4
		c-0.9-0.8-1.7-1.5-2.8-2.5c-0.5,2.2-1.7,4.2-0.6,6.5c0.5,1.2,0.7,2.5,0.9,3.7c0.3,2,0.3,4,0.6,6c0.3,2.5,0.6,4.9-0.9,7.1
		c-0.2,0.2,0,0.8,0.2,1.2c0.8,1.6,1.6,3.1,2.4,4.6c1.8,3.5,3.4,7.1,5.2,10.5c1,2,2.6,3.8,3.2,5.8c1.1,3.4,3,6.4,4.6,9.6
		c1.8,3.6,3.9,7.1,5.9,10.6c2.3,4.1,4.5,8.3,6.9,12.3c2.5,4.1,5.3,8.1,8,12.1c1.4,2.1,3.2,3.9,4.5,6c1.3,2.1,3,3.9,4.8,5.6
		c1.8,1.7,3.7,3.5,5.3,5.4c1.7,2,3.2,4.3,4.9,6.4c1,1.2,2.3,2.3,3.1,3.6c1.9,3.1,4,6.2,6.8,8.7c1.1,1,2.5,1.6,3.9,2
		c1.1,0.3,2.2,0,3.2-0.9c0.7-0.6,2-0.7,2.9-1.2c3.3-1.5,6-3.8,8.3-6.6c1-1.2,2-2.5,2.4-3.9c1.2-4.6,2.2-9.2,3-13.9
		c0.5-2.9,0.4-6,0.4-9c0-6.6,0.1-13.3-0.1-19.9c-0.1-3.6-0.3-7.3-1.1-10.7c-1.1-4.6-1.3-9.2-1.8-13.8c-0.4-3.3-0.6-6.5-1-9.8
		c-0.3-2.2-0.8-4.4-0.9-6.6c-0.3-7-0.5-14-0.7-21c-0.1-3.7-0.4-7.4-1.6-10.9c-0.3-1-0.7-2-0.7-3.1c0-4-1-7.7-2.3-11.5
		c-1.3-3.5-3.3-6.6-5.4-9.6c-1.3-1.8-3.2-2.7-5.4-3c-1.1-0.1-2.1-0.5-3.1-0.9c-0.9-0.3-1.8-0.7-2.7-0.8c-4.2-0.4-8.4-0.7-12.6-1.2
		c-1.7-0.2-3.3-0.5-5.1-0.8c-0.1,1.6-0.1,3.2-0.4,4.8c-0.3,1.7,0.3,3.3,0.8,4.8c1.3,4,2.8,8,3.9,12.1c1,3.5,1.4,7.2,2.1,10.8
		c1.2,5.8,2.5,11.6,3.8,17.4c0.2,0.8,0.4,1.7,0.6,2.6c2.2-2.1,2.2-4.5,1.6-7c-0.3-1.4-0.4-2.9-0.4-4.3c0-0.3,0.3-0.6,0.5-0.9
		c0.2,0.3,0.4,0.6,0.5,0.9c0.1,0.7,0,1.5,0.1,2.2c0.1,1.1,0.3,2.2,0.4,3.3c0.2,0,0.3,0,0.5,0C147,144.5,147.6,142.6,148.1,140.6z
		 M69.7,103.7c-0.4,0.6-0.8,1.1-1.1,1.6c-3.3,5.4-6.5,10.8-9.8,16.2c-0.2,0.4-0.2,1-0.3,1.6c-0.2,0-0.6,0-0.9-0.2
		c-0.1-0.1,0.1-0.6,0.2-1c0.1-0.2,0.2-0.4,0.3-0.5c2.7-3.8,5.1-7.9,7.2-12c0.2-0.4,0.5-0.9,0.5-1.3c0.3-4,1.9-7.4,4.8-10.1
		c2.1-1.9,3.1-4.4,3.9-6.9c0.1-0.3-0.2-0.9-0.5-1.1c-1-0.8-2-1.5-3.2-2.4c-0.5,0.6-1.2,1.4-1.9,2.2c-2.5,2.9-4.8,6-7.4,8.8
		c-1.1,1.2-1.8,2.4-2.1,4c-0.3,1.8-0.4,3.7-0.9,5.5c-0.8,3.1-1.1,6.4-2.4,9.4c-1.2,2.9,0.5,5.6,1.4,8.3c1.4,3.8,3,7.5,4.3,11.3
		c1.1,3.2,1.7,6.6,2.7,9.8c0.8,2.6,0.6,5-0.7,7.3c-1.4,2.5-2.9,5.1-4.3,7.6c-2.1,3.6-4.2,7.2-6.4,10.7c-2.3,3.7-4.6,7.3-6.9,11
		c-1.7,2.8-3.2,5.7-5.7,8c-2,1.8-3.8,3.9-5.7,5.8c-1.8,1.9-3.6,3.9-5.5,5.6c-3.4,2.9-7,5.6-10.4,8.4c-4.4,3.5-7.7,7.8-9.9,13
		c-0.1,0.2-0.3,0.4-0.5,0.6c-0.1-0.1-0.3-0.1-0.4-0.2c0.2-0.8,0.4-1.6,0.7-2.4c1.3-2.8,2.9-5.4,5.2-7.6c2.9-2.8,5.7-5.6,8.9-8.1
		c3.6-2.9,7.5-5.5,10.6-9.1c0.8-1,1.8-2.2,1.9-3.4c0-2.8-0.6-5.5-0.7-8.3c-0.1-4.4,0-8.8,0-13.2c0-2.3,0.1-4.6-0.7-6.8
		c-0.8-2.3-1.5-4.6-2.1-7c-0.6-2.3-1.4-4.4-3.1-6.1c-0.5-0.5-0.8-1.3-1.3-2c0.2-0.1,0.3-0.2,0.5-0.3c0.6,0.8,1.2,1.7,1.9,2.5
		c0.2,0.2,0.5,0.5,0.8,0.5c0.2,0,0.5-0.4,0.6-0.6c0.2-0.6,0.3-1.3,0.4-1.9c0.2-2.7,0.3-5.3,0.5-8c0-0.5,0.2-0.9,0.3-1.4
		c0.4,0.2,0.6,0.4,0.6,0.6c0,2.4,0,4.8-0.2,7.2c-0.1,1.9-0.9,3.8-0.7,5.6c0.3,2.4,1.3,4.8,2,7.2c0.1,0.2,0.4,0.4,0.6,0.5
		c0.1,0,0.4-0.2,0.5-0.4c0.6-1.4,1.3-2.8,1.6-4.3c0.5-2.1,0.7-4.2,0.9-6.3c0.3-2.6,0.6-5.1,0.7-7.7c0.2-4.1,0.2-8.2,0.3-12.3
		c0-0.8,0-1.6,0-2.8c-1.4,1.1-2.5,1.9-3.6,2.7c-3.6,2.6-7.8,3.4-12,4.5c-0.4,0.1-0.8,0.2-1.2,0.1c-0.3,0-0.8-0.2-0.9-0.5
		c-0.1-0.3,0.1-0.8,0.3-1.1c1-1.2,2.1-2.3,3.1-3.5c1.6-1.9,3.3-3.6,4.6-5.7c3.4-5.1,6.4-10.5,9.1-16c0.2-0.4,0.4-0.9,0.7-1.7
		c-3.4,1.5-6.6,1.6-9.9,1.4c-3.9-0.2-7.4,1-10.7,2.8c-6.5,3.5-10.5,8.8-11.9,16c-0.5,2.5-0.7,5.1-1,7.7c-0.6,6.3-1.4,12.6-1.6,19
		c-0.2,8.8,0.1,17.6,0.2,26.4c0,0.9,0.4,1.8,0.3,2.6c-0.1,1.3-0.5,2.5-0.7,3.8c-0.6,4-1.2,7.9-1.7,11.9c-0.5,3.6-1.1,7.2-1.1,10.9
		c-0.1,10.4,0.5,20.7,2.4,31c0.7,4,1.8,7.9,3.1,11.7c1.2,3.5,3.2,6.5,6.6,8.4c0.8,0.4,1.5,1.1,2.3,1.6c1.9,1.1,3.8,2.4,5.8,3.2
		c1.4,0.5,3.3,1.2,4.7,0.2c1.7-1.2,3.6-2.6,4.5-4.4c3.1-6,7.9-10.6,12.1-15.6c3.3-3.9,6.4-7.9,8.9-12.4c1.6-2.8,2.5-6.1,5.3-8.2
		c0.4-0.3,0.6-1,0.8-1.6c0.6-1.2,1.2-2.5,1.8-3.7c2.2-4.2,4.6-8.4,6.5-12.8c2.9-6.8,5.3-13.7,7.9-20.6c1.3-3.5,2.7-7,3.6-10.7
		c0.6-2.5,1.2-5.1,2-7.6c1.5-4.8,3.8-9.3,6.8-13.4c1.2-1.7,1.8-3.7,1.2-6c-2.8,4.2-6.5,5.1-10.9,3.5c-1.9-0.7-3.6-2.1-3.8-3.4
		c0.3,0.2,0.5,0.3,0.6,0.4c1.4,1.7,3.3,2.4,5.3,2.9c2.9,0.7,5.1-0.4,7.1-2.3c1.4-1.3,1.5-2.8,1.4-4.6c-0.3-4.2-1.2-8.2-3.1-12
		c-1.2-2.4-2.8-4.6-1.7-7.5c0.1-0.2-0.4-0.8-0.7-1c-0.7-0.4-1.5-0.7-2.2-1c-0.7-0.3-1-0.7-0.7-1.6c0.5-1.6,0.9-3.3,1.3-4.9
		c1-4.5,2-9.1,2.9-13.6c0.1-0.6,0.3-1.2,0.4-1.8c-0.9-0.1-1.6-0.2-2.3-0.2c-0.9,3.5-1.7,6.9-2.6,10.2c-0.3,1.2-0.9,2.3,0.5,3.1
		c0,0-0.1,0.1-0.1,0.2c-0.4-0.2-0.8-0.4-1.3-0.7c-0.1,0.3-0.2,0.5-0.3,0.7c-0.1,0.2-0.2,0.5-0.3,0.7c-2.1,4-3.4,8.3-4.1,12.8
		c0,0.3-0.4,0.6-0.7,1c-0.1-0.4-0.3-0.6-0.2-0.7c0.7-2.6,1.3-5.3,2.1-7.8c1.1-3.4,2.6-6.6,3.7-9.9c0.8-2.3,1.2-4.7,1.7-7
		c0.4-1.6,0.7-3.1,1-4.7c0.2-1,0.5-2,0.8-3c0.1-0.3,0.3-0.7,0.5-0.7c1.2-0.2,1.1-1,0.9-1.8c-0.5-1.8-0.7-3.5-0.5-5.4
		c0.1-0.5,0-1-0.1-1.4c-0.2-0.6-0.3-1.4-1.3-1.1c0.8,1.5,1,2.9,0.4,4.4c-0.5,1.2-1.2,2.1-2.7,2.1c-0.7,0-1,0.3-1.2,0.9
		c-1.5,4.5-3,8.9-4.6,13.4c0.8,0.6,1.5,1.1,2.2,1.5c-0.1,0.1-0.2,0.2-0.2,0.4c-0.5-0.2-0.9-0.5-1.4-0.7c-0.5-0.3-0.9-0.5-1.2,0.3
		c-1.6,3.9-3.3,7.9-5,11.8c-0.4,1-0.9,2.1-1.6,3c-1.1,1.3-1.9,2.6-2.2,4.3c-0.1,0.5,0,1.1,0,1.8c-0.5,0.3-1.1,0.1-0.8-0.8
		c0.4-1.5,0.7-3.1,1.6-4.2c1.5-1.9,2.4-4.1,3.2-6.3c0.6-1.5,1.3-2.9,1.9-4.4c1.3-3.2,2.7-6.3,3.9-9.5c1.3-3.5,2.5-7.1,3.6-10.6
		c0.5-1.4,0.7-2.9,1.1-4.2c-0.9-0.5-1.5-0.8-2.3-1.3c-0.5,5.7-3.4,10.5-5.5,15.4c0.4,0.5,0.8,1.1,1.2,1.6c-0.1,0.1-0.2,0.1-0.3,0.2
		C70.7,104.6,70.3,104.2,69.7,103.7z M81.4,78.1c1.9,0,3.7-0.1,5.5,0c1.1,0.1,2.5,0.2,3.2,0.9c1.9,1.7,5,2,5.7,5.1
		c0,0.1,0.2,0.1,0.3,0.2c1.1,1.3,2.6,1.7,4.1,2.1c3.3,0.7,6.5,1.7,8.1,5.1c0.5,1.1,1.5,1.4,2.8,1.8c0.7-2.4,1.4-4.6,2-6.9
		c0.3-1.3,0.5-2.6,0.9-3.9c0.6-2.8,1.5-5.5,1.9-8.3c0.3-2.3,0.3-4.7,0.2-7c-0.1-3.3-0.4-6.6-0.5-9.9c-0.1-1.6-0.6-2.9-1.4-4.2
		c-0.6-0.8-0.9-1.8-1.3-2.7c-0.2-0.5-0.4-1.2-0.7-1.6c-1.6-1.9-3.2-3.8-4.9-5.7c-0.7-0.8-1.5-1.5-2.2-2.3c-2-2.4-4.3-4.2-7.2-5.4
		c-1.8-0.8-3.5-1.8-5.1-2.9c-0.5-0.3-0.9-1.2-0.8-1.7c0.4-4.3,0.9-8.6,1.5-12.8c0.8-4.9,0.2-9.6-1-14.4c-0.1-0.2-0.5-0.4-0.8-0.4
		c-0.1,0-0.5,0.3-0.5,0.4c0,1.8-0.6,3.7,0.2,5.5c0.4,1,0.6,2.3,0.5,3.4c-0.1,2.2-0.5,4.4-0.8,6.6c-0.4,3.8-0.7,7.7-1.1,11.5
		c-0.1,1.1-0.3,2-1.6,2.4c-1,0.3-1.8,0.8-2.7,1.3c-1.5,0.8-2.9,1.6-4.3,2.5c-1.9,1.1-2,3.3-2.8,5c-1.2,2.6-2.3,5.2-3.5,7.9
		c-0.8,1.8-1.5,3.6-2.1,5.4c-1.4,4.1-3.1,8-6.9,10.4c-0.3,0.2-0.6,0.4-1,0.8c0.7,0.2,1,0.4,1.4,0.5c2.3,0.5,4.7,0.9,7,1.3
		c0.2,0,0.3,0.1,0.5,0.2c0.2,0.1,0.5,0.4,0.4,0.5c-0.1,0.2-0.3,0.5-0.5,0.5c-0.7,0.1-1.4,0.2-2,0.1c-1.5-0.3-3-0.7-4.6-1
		c-1.4-0.2-2.8-0.1-4.2-0.5c-1.3-0.4-2.4-0.3-3.5,0.4c-1.2,0.9-2.3,1.7-3.4,2.7c-0.3,0.3-0.6,0.8-0.6,1.2c-0.1,1.2-0.2,2.4-0.1,3.6
		c0.2,1.6,0.8,3.3,0.8,4.9c0,2.8,0.7,5.5,1.5,8.1c0.3,1.1,0.5,2.3,0.9,3.4c0.1,0.3,0.8,0.6,1.1,0.5c0.7-0.3,1.4-0.8,2.1-1.2
		c1.8-1.2,3.6-2.3,5.3-3.6c1.5-1.1,3.5-1.5,4.8-2.8c1.1-1.1,2.1-2.3,3.3-3.4c1.5-1.3,3.1-2.4,5-3.8c0.2-1.2-1.2-2.5-0.9-4.1
		C80.9,74.9,81.2,76.4,81.4,78.1z M118.3,118.9c-0.1,0.1-0.2,0.2-0.3,0.3c-1.3,3-2.3,6.1-4.3,8.8c-0.2,0.3-0.3,0.7-0.5,1.1
		c-1.4,3.4-2.7,6.7-4.1,10.1c0,0.1-0.1,0.2-0.2,0.3c-1.8,2.8-1.8,5.9-0.3,8.7c2.6,4.7,4.6,9.8,8.4,13.8c1.9,2,3.7,4,5.7,6.1
		c1.1-0.8,2.2-1.6,3.3-2.4c3.4-2.5,7.2-4.6,9.9-8c0.5-0.7,0.8-1.4,0.5-2.1c-0.7-1.9-1.3-3.8-2.2-5.6c-1-2-2.4-3.8-3.5-5.8
		c-2.6-4.4-3.8-9.3-5.4-14c-0.2-0.6-0.3-1.2-0.6-2c-1.4,1.8-2.7,3.3-4,4.8c-0.1,0-0.2,0-0.4,0C119.7,128.2,119,123.6,118.3,118.9z
		 M141.7,155c0.1,0,0.3,0,0.4,0c0.1-0.4,0.2-0.8,0.1-1.1c-1.4-7.2-2.9-14.4-4.3-21.6c-0.2-0.9-0.5-1.9-0.7-2.8
		c-0.5-2.8-0.9-5.6-1.6-8.3c-0.6-2.6-1.5-5.2-2.3-7.8c-0.4-1.3-0.9-2.6-1.4-3.8c-0.1,0-0.3,0-0.4,0.1c-0.2,1-0.5,2-0.7,3
		c-0.6,3.4-2.2,6.6-2.2,10.2c0,2.1,0.2,4.1,0.9,6c0.7,1.9,1.3,3.8,1.9,5.7c0.4,1.2,0.6,2.5,1,3.7c2,5.1,4.1,10.2,6.1,15.3
		c0.4,1.1,1,2.1,1.3,3.3c0.1,0.5,0,1.3-0.2,1.8c-0.9,1.6-1.9,3.2-2.9,4.8c-0.4,0.6-0.8,1.3-1.3,1.7c-1.6,1.3-3.2,2.6-4.9,3.8
		c-1.3,1-2.7,1.8-4.1,2.8c0.5,0.6,1,1.1,1.5,1.7c0.9,1.2,2,2.3,2.8,3.5c2.6,4.5,6.1,8.1,10.1,11.3c0.9,0.7,1.8,1.5,2.8,2.4
		c0.1-1.2,0.3-2.1,0.2-3c0-4.1,0-8.2-0.1-12.2c-0.1-2.2-0.7-4.3-1-6.5c-0.4-3.6-0.6-7.3-1.3-10.9c-0.7-3.3-1.9-6.6-2.9-9.8
		c-0.9-2.8-1.7-5.6-2.5-8.3c-0.1-0.5,0-1,0-1.6c0.2,0,0.3,0,0.5,0C138.1,143.8,139.9,149.4,141.7,155z M46.7,122.8
		c-0.1-0.1-0.3-0.1-0.4-0.2c-0.4,0.6-1.2,1.3-1.2,1.9c-0.1,5-0.1,10-0.2,15c-0.1,3.5-0.2,7.1-0.6,10.5c-0.3,2.1-1.2,4.2-1.9,6.2
		c-1.1,3.3-1.8,6.8-3.9,9.7c-1.4,2-2,4.2-2.2,6.5c-0.5,6.1-0.2,12.1,0.4,18.2c0.1,0.9,0.1,1.7,0.2,2.7c3.4-2.7,6-5.6,8-9.2
		c2-3.6,4.3-7.1,6.4-10.6c1.8-2.9,3.6-5.7,5.4-8.5c0.4-0.6,0.5-1-0.1-1.6c-2.6-2.7-4.9-5.6-6.3-9.2c-1.9-4.7-3.1-9.6-3.5-14.6
		c-0.3-4.9-0.1-9.8-0.1-14.7C46.7,124.4,46.7,123.6,46.7,122.8z M85.1,125.9c1.6-1.3,3-2.6,4.5-3.6c0.5-0.4,0.8-0.7,0.7-1.3
		c-0.2-2-0.4-4-0.5-6c-0.1-5.9,0-11.8,0-17.7c0-0.5-0.1-1-0.1-1.6c-0.3-2.6-0.7-5.1-0.8-7.7c-0.1-1.8,1.3-3.1,2-4.7
		c0.2-0.4,0.8-0.7,1.2-1c0.2-0.2,0.4-0.3,0.7-0.4c-3.7-4.9-14.6-4.1-17.2,1.1c0.5,0,1,0.1,1.4-0.1c1.2-0.8,2.1-0.8,3,0.3
		c0.5,0.6,0.8,1.7,1.4,2.1c1.4,0.9,1.3,2.2,1.5,3.6c0.2,2,0.5,3.9,0.8,5.8c0,0.3,0.2,0.6,0.4,0.8c1.5,1.2,1.5,1.3,1,3.2
		c-0.7,2.4-1.5,4.7-2,7.1c-1.3,5.4-2.4,10.9-3.7,16.4c-0.1,0.7,0.1,1,0.7,1.3C81.9,124.3,83.8,125.3,85.1,125.9z M55.2,116.8
		c-0.9,0.4-1.8,0.8-2.7,1.1c-0.7,0.2-0.9,0.6-1,1.3c-0.2,4-0.2,7.9,0.8,11.8c1,4.1,1.6,8.3,1.5,12.5c-0.1,3.5,1.2,6.5,2,9.7
		c0.4,1.8,2.1,3.3,3.4,4.9c0.5,0.7,1.1,0.7,1.6-0.1c0.9-1.6,1.8-3.1,2.6-4.7c0.9-1.7,1.2-3.6,0.7-5.5c-0.7-3.1-1.4-6.2-2.4-9.2
		c-1.5-4.4-3.2-8.7-4.8-13c-1-2.6-2.3-5.2-1.6-8.2C55.3,117.2,55.2,117,55.2,116.8z M86.6,156.3c-0.5,0.5-0.7,0.8-0.9,1
		c-2.2,3.4-3.9,7-5.1,10.9c-0.4,1.3-0.2,1.6,1.2,1.7c2.4,0.2,4.8,0.5,7.2,0.7c1.5,0.1,2.9,0,4.7,0C91.3,165.7,89,161.1,86.6,156.3z
		 M99.8,97c0.2,0.5,0.2,0.7,0.4,0.9c1.4,2.6,2.9,5.2,4.3,7.8c0.8,1.4,2,2.2,3.3,2.8c0.6,0.3,1,0.1,1-0.6c0-0.9,0-1.8,0-2.7
		c0-1.5-0.1-3-1.8-3.7c-0.3-0.1-0.6-0.4-0.7-0.6c-1.2-2.1-3.5-2.5-5.4-3.7C100.7,97.1,100.3,97.1,99.8,97z M60.7,98.9
		c3.3-4,6.4-7.8,9.5-11.6c-0.1-0.1-0.2-0.2-0.3-0.4c-3.7,2.5-7.4,5-11.1,7.6c-0.3,0.2-0.4,0.9-0.3,1.1
		C59.1,96.6,59.8,97.6,60.7,98.9z M96,85.6c0.5,1.5,1.1,3.1,1.7,4.9c3.6-1.3,6.7,0,9.8,1.3c-0.6-1.6-1.6-2.8-3.1-3.3
		c-1.2-0.4-2.3-0.9-3.5-1.3C99.2,86.6,97.6,86.1,96,85.6z M85.6,127.2c-0.2-0.2-0.4-0.5-0.7-0.6c-0.5-0.3-1-0.5-1.5-0.7
		c-0.2,0.5-0.4,1-0.6,1.5c0,0.1,0,0.2,0,0.4c-0.2,2.3,1.6,3.8,2.3,5.7c0,0.1,0.8,0.1,0.8,0c0.8-2.4,1.7-4.7,1.1-7.5
		C86.4,126.3,86,126.8,85.6,127.2z M92.8,92.8c-0.1-1.4-0.1-2.7-0.3-4c-0.1-0.6-0.2-1.4-0.6-1.8c-0.5-0.4-1.3-0.6-1.9-0.5
		c-0.3,0-0.4,1-0.7,1.7c1-0.3,1.7-0.5,2.3-0.7c0,0.1,0.1,0.2,0.1,0.3c-0.3,0.1-0.6,0.2-0.8,0.4c-0.5,0.6-1.3,1.1-1.5,1.8
		c-0.3,1.3,0.1,2.5,1.3,3.3c0.3,0.2,0.9,0,1.4-0.1C92.3,93.3,92.6,93,92.8,92.8z M94.6,82.8c-1-0.5-1.8-0.3-3.2,0.7
		c-1.1,0.9-1,1.9,0.2,2.7c0.6,0.4,1.1,1,1.3,1.6c0.4,1.2,0.9,1.4,1.9,0.6c0.4-0.3,0.7-0.6,1-0.9c-0.4-1.4-0.7-2.6-1.1-4
		c-1.2,0.6-2.6,0.8-2.5,2.7c-0.2-0.5-0.5-1.2-0.3-1.4C92.9,84,93.8,83.4,94.6,82.8z M74.5,89.2c0.7-1.5,1.2-2.7,1.7-3.9
		c0.2-0.4,0.3-1.2,0-1.5c-0.2-0.3-1.1-0.4-1.4-0.1c-1,0.9-1.9,1.9-2.7,2.9c-0.1,0.2,0.1,0.9,0.4,1.1C73.1,88.4,73.9,88.8,74.5,89.2z
		 M71.9,98c-2,0.5-5.5,6.8-5.1,9.4C68.7,104.2,70.8,101.4,71.9,98z M80.4,85.1c0-0.1,0.1-0.2,0.1-0.4c-0.5-0.5-1-1.1-1.6-1.5
		c-1-0.6-1.6-0.2-1.8,1c-0.1,0.6-0.3,1.4-0.6,1.9c-0.6,0.8-0.4,1.3,0.4,1.7c0.4,0.2,0.9,0.4,1.3,0.5C78.8,87,78.6,85.4,80.4,85.1z
		 M79.5,85.8c-0.6,2.2-1.1,4.1-1.6,6.1c1.6,0.4,2.3-0.4,2.8-1.3C81.5,88.9,81.2,87.5,79.5,85.8z M81.8,96.8
		c-0.2,1.1-0.4,2.2-0.5,3.2c-0.1,1,0.6,1.5,1.5,1.2c0.5-0.2,1-0.7,1.2-1.1C84.5,99,83.6,97.5,81.8,96.8z M100,93.9
		c0.6-0.6,1.1-1.2,1.7-1.8c-0.6-0.5-1.2-1.2-2-1.4c-0.4-0.1-1.7-0.2-1.7,1C98.1,92.7,98.9,93.7,100,93.9z M107.4,111.5
		c1.3-0.7,1.7-1.2,1.2-1.6c-0.8-0.6-1.7-1-2.5-1.5c-0.1,0.1-0.2,0.2-0.3,0.3C106.3,109.6,106.8,110.6,107.4,111.5z M84.4,98.1
		c0.1,0,0.2,0,0.3-0.1c0-0.5,0.1-1.2-0.1-1.3c-0.4-0.3-1.1-0.3-1.6-0.4c0,0.1,0,0.2-0.1,0.3C83.4,97,83.9,97.5,84.4,98.1z"/>
	<path class="st0" d="M89.9,75.3c-0.4-2.1,1-4.1,0.5-6.4c-1.2-0.5-3.1-0.2-3.7-2c-0.3-0.8-0.2-1.6-0.3-2.5c0.2,0,0.4-0.1,0.5-0.1
		c0.1,0.4,0.2,0.8,0.2,1.2c0.1,1.4,0.6,1.9,2,2.2c3.2,0.9,6.1,0,9-1.3c2.6-1.1,5.2-2.1,7.8-3.1c0.4-0.2,1,0.1,1.5,0.1
		c-0.3,0.4-0.6,0.9-1,1.1c-1.6,0.8-3.2,1.6-4.8,2.3c-1,0.4-2.1,0.8-3.2,1.1c-1.8,0.5-3.6,0.9-5.4,1.3c-0.3,0.1-0.6,0.2-0.9,0.3
		c-0.2,0.1-0.4,0.4-0.4,0.5c0.1,0.2,0.3,0.5,0.5,0.6c0.5,0.2,0.9,0.3,1.4,0.3c2.6,0.1,5.2,0.2,7.9,0.2c0.8,0,1.6-0.5,2.4-0.8
		c1.3-0.5,2.5-1.1,3.7-1.7c0.1,0.1,0.2,0.2,0.3,0.3c-0.2,0.3-0.3,0.7-0.5,0.9c-2.3,2.2-4.9,3.3-8.1,2.6c-1.6-0.3-3.4-0.2-5.1-0.3
		c-0.5,0-1.1,0-1.6-0.1c-1.3-0.3-1.8,0.1-1.9,1.5c-0.1,0.6-0.2,1.2-0.3,1.8C90.3,75.3,90.1,75.3,89.9,75.3z"/>
	<path class="st0" d="M81.8,66.6c0,1.9-1.1,2.8-2,4c2,1,3.8-1.1,5.9-0.1c-0.3,0.2-0.5,0.4-0.8,0.4c-1,0.2-2.2,0.8-3.1,0.6
		c-2.3-0.4-3.7,1.3-5.6,2c-3.9,1.6-7.7,1.6-11.4-0.5c-0.7-0.4-1.3-1-1.9-1.7c-0.2-0.2,0-0.7,0-1.1c0.3,0.1,0.7,0.1,0.8,0.2
		c1.6,2.1,4.1,2,6.4,2.6c2.5,0.7,4.6-0.8,6.9-1.1c0.4,0,0.8-0.4,1-0.7c1.1-1.4,2.1-2.8,3.1-4.2C81.2,67.1,81.4,67,81.8,66.6z"/>
</g>
</svg>
