<?xml version="1.0" encoding="utf-8"?>
<!-- Generator: Adobe Illustrator 19.1.0, SVG Export Plug-In . SVG Version: 6.00 Build 0)  -->
<svg version="1.1" id="Layer_1" xmlns="http://www.w3.org/2000/svg" xmlns:xlink="http://www.w3.org/1999/xlink" x="0px" y="0px"
	 viewBox="0 0 150 130.3" style="enable-background:new 0 0 150 130.3;" xml:space="preserve">
<style type="text/css">
	.st0{fill:#8BC34A;}
</style>
<g id="asthmatic-man-green">
	<desc  xmlns:shape="http://adobe.com/products/shape">
		<shape:version>1.0</shape:version>
		<shape:captureDetail>1.000000</shape:captureDetail>
		<shape:sourceImage></shape:sourceImage>
		<shape:source>0</shape:source>
		<shape:platformVersion>shape-android-1.1.117</shape:platformVersion>
	</desc>
	<path class="st0" d="M72.2,5.8c1.7-1.2,3.6-1.9,5.5-2.6c3.5-1.3,7.1-2.7,10.9-3.1c5.3-0.5,10.6,0.9,15.7,2.8
		c5.4,2,10.8,4.7,14.4,9.3c4.7,6.1,5.1,14.7,3,22.1s-6.6,14-10.9,20.4c-1.6,2.4-1.1,5.7-0.4,8.6c1.2,5,2.8,10.5,7.2,13.1
		c6.8,4,13.1,8.9,18.6,14.6c4.6,4.7,8.8,10.2,10.1,16.6c0.8,3.7,0.9,8,3.8,10.5c-0.5,0.7-1.6,0.7-2.2,0.1c1.3,3.2,2,6.6,2.2,10
		c-2.7-1.3-1.1-5.8-3-8.2c-1.6-2-4.7-1.6-7.2-0.9c-7.7,2-15.3,4.1-23,6.1c0.4,1.7,0.8,3.4,1.2,5.1c-1.4-0.9-2.4-2.5-2.6-4.1
		c-0.9,0-1.8-0.1-2.7-0.1c11.1-4.7,22.8-7.8,34.8-9c-3.1-15.3-13.1-29.1-26.6-36.8c-0.7-0.4-1.7-0.8-2.3-0.2
		c-7.7,6.9-18.1,10.6-28.5,10c-4-0.2-8.1-1.2-10.9-3.9c-2.8-2.8-3.8-7.7-1.2-10.7c-7.7-0.1-15.4,1.9-22,5.9
		c-0.7,0.4-1.5,0.9-1.9,1.7c-0.4,0.8-0.4,1.6-0.3,2.5c0.4,8,0.8,16,1.2,24c3.4-0.3,6-3.7,6.2-7.2c0.2-3.4-1.4-6.8-3.6-9.4
		c2.5,1.2,4.4,3.5,5.2,6.2c1-3,2.9-5.7,5.6-7.5c-7.3,11.8-12.1,25.2-14,39c-1.3-7.1,1.2-14.2,3.8-21c-17.8,3.7-36.5,7.5-54,2.5
		c-1.1-0.3-2.2-0.7-2.9-1.5c-0.7-0.8-0.9-1.9-1-3c-0.9-9,4.4-17.6,11.1-23.6c6.7-6,14.8-10.3,21.9-15.9c1.6-1.3,3.2-2.7,4.3-4.5
		c1-1.9,1.3-4,1.8-6.1c1.3-6.5,3.5-12.7,6.7-18.5c0.5-0.9,1.1-2,2.1-2.5c1-0.5,2.4-0.3,2.8,0.8c1.5-2.1,3.5-3.9,6.1-4.3
		c5.1-0.7,8.6,4.8,10.8,9.4c-0.5-4.1-0.9-8.1-1.4-12.2c-0.5-4.4-1-8.8-0.3-13.1C66.6,12.6,68.6,8.3,72.2,5.8 M47.4,46.1
		c-0.3,1.1-0.5,2.3-1.3,3.1c-0.6-2.7,0.1-5.7,1.8-7.9c0.9-1.2,2.3-2.5,1.8-4c-1.1-0.4-2.1,0.8-2.7,1.8c-3.3,6.1-5.6,12.7-6.9,19.4
		c-0.2,1.3-0.5,2.7-0.9,4c-1.3,3.4-4.5,5.7-7.4,7.7c-3,2.1-6,4.2-9.1,6.3c-5.4,3.8-10.9,7.6-15,12.7c-4.2,5.1-6.9,11.7-6,18.2
		c0.1,0.8,0.3,1.5,0.8,2.1c1.1,1,2.9,0.5,4.1-0.3c1.2-0.8,2.5-1.9,4-1.9c-0.9,1.9-2.8,3.2-4.9,3.4c15.7,3.4,32.3,2.4,47.6-2.7
		c0.5-7.8,0.1-15.7-1.1-23.4c-6.4,2.5-12.8,5.1-19.1,7.8c-2,0.9-4.1,1.8-5.7,3.3c-1.4,1.3-2.7,3.2-4.6,3.4
		c6.7-8.5,13.7-16.8,20.9-24.9c1.5-1.6,3-3.3,4.9-4.4c3.3-1.9,7.7-2,10.6-4.5c-0.5-0.1-1.1-0.1-1.6-0.2c0.1-0.8,1-1,1.8-1.1
		c3.9-0.5,7.6-2,10.7-4.3c0.4-0.3,0.8-0.7,0.8-1.2c-0.1-0.6-0.8-0.8-1.4-0.8c-2.5-0.1-4.9,1.1-6.4,3.1c0-0.5-0.1-1-0.1-1.5
		c-3.4,0.1-6.8,1.4-9.3,3.7c-0.7-0.1-0.3-1.3,0.3-1.7c1.5-1.1,3.1-2.1,4.9-2.8c0.3-0.1,0.3-0.4,0.4-0.7c0.9-5.9,0.6-12-0.9-17.7
		c-1,1.9-1.8,3.9-2.4,5.9c1.2,0.3,2.2,1.4,2.3,2.7c-1-0.4-1.9-0.9-2.7-1.6c-0.3,0.8-0.9,1.5-1.7,1.8c0-0.7-0.1-1.3-0.1-2
		c-0.5-0.2-1.1-0.4-1.6-0.5c-0.3-0.3,0.4-0.6,0.9-0.6c1.6,0.1,2.5-1.9,3-3.5c0.2-0.6-0.2-1.7-0.7-1.3c2.3-1.9,4.3-4,6.1-6.3
		c-0.7-0.5-1.6,0.1-2.2,0.7C55.8,39,53.1,42.8,51,47c-0.8-0.7-0.2-2.1,0.5-3c0.6-0.9,1.1-2.4,0-2.9c3.2-1.4,5.7-4.4,6.5-7.8
		C52.9,35.7,48.8,40.6,47.4,46.1 M68.8,12.2c-0.9,1.6-1.8,3.2-2.1,5c-0.4,1.8-0.2,3.7,0.8,5.3c1.1-2.7,2.8-5,5-6.9
		c1.1-0.9,2.4-1.7,3.9-1.9c2.4-0.2,4.5,1.5,6,3.4c1.5,1.9,2.6,4.1,4.4,5.7c3,2.5,7.6,3.1,9.6,6.4c0.8,1.3,1.1,2.8,1.4,4.2
		c0.5,2.8,1.1,5.6,1.6,8.5c0.6-0.8,1.2-1.6,1.8-2.3c1.1-1.5,2.3-3,3.9-3.9c1.6-0.9,3.8-1.2,5.2,0c0.7,0.5,1.1,1.3,1.4,2
		c0.8,2,0.5,4.3-0.4,6.3c-0.9,2-2.3,3.7-3.7,5.3c-0.8,0.9-0.9,2.2-0.6,3.3c0.3,1.1,0.9,2.1,1.5,3.1c0.6-1.4,1.6-2.7,2.5-3.9
		c4.1-5.7,7.2-12.1,9.3-18.9c0.4-1.3,0.8-2.7,0.9-4.1c0.1-1.2,0-2.3-0.1-3.5c-0.3-4.1-0.7-8.4-3-11.7c-1.3-1.8-3.2-3.2-5-4.6
		c-1.7-1.3-3.5-2.5-5.5-3.2c-2-0.6-4.4-0.6-6.1,0.7c-0.4,0.3-0.7,0.6-1.2,0.7c-0.5,0.1-1-0.2-1-0.7c1.1-1.1,2.4-2,3.7-2.8
		c-2.9-0.6-5.8-1.4-8.5-2.5c-3.8-1.5-8.1,0.1-11.8,2.1c-1.3,0.7-2.6,1.4-4,1.4c-2.1,0-4.2,0.9-5.9,2.3C71.1,8.5,69.9,10.3,68.8,12.2
		 M76.9,55.1c0.2,0.2,0.4,0.4,0.4,0.7c0,0.2-0.1,0.5-0.2,0.7c-0.9,1.6-2.1,3-3.5,4.2c-1.4,1.2-1.6,3.4-0.5,4.9
		c0.9,1.2,2.4,1.6,3.8,1.9c7.2,1.3,14.4-2.5,19.5-7.7c1.2-1.2,2.4-2.6,3-4.2c1-2.5,0.8-5.3,0.3-7.9c0.4-0.5,1.1,0.1,1.5,0.6
		c0.7,1.2,1.4,2.5,2.1,3.7c1.2-0.3,1.9-1.4,2.6-2.4c0.6-0.9,1.2-1.7,1.9-2.6c1-1.4,2-2.8,2.5-4.4c0.6-1.6,0.6-3.4-0.2-4.9
		c-0.3-0.5-0.7-1-1.2-1.2c-1-0.5-2.3-0.2-3.2,0.4c-2.6,1.6-3.8,4.8-6.1,6.9C99.4,44,99,44.1,98.8,44c-0.2-0.1-0.2-0.3-0.3-0.5
		c-1.2-3.8-2.1-7.7-2.6-11.6c-0.2-1.5-1.3-2.7-2.6-3.5c-1.3-0.8-2.7-1.3-4-1.9c-2.4-1.2-4.5-3-6-5.2c-1.6-2.4-3-5.4-5.9-5.9
		c-2.4-0.4-4.6,1.5-6.2,3.4c-0.9,1.1-1.7,2.2-2.2,3.5c-0.8,1.8-0.9,3.7-1.1,5.6c-0.1,1.2-0.2,2.5-0.3,3.7c-0.1,0.6,0.1,1.5,0.7,1.4
		c1.3-0.1,2.5,1,2.8,2.3c0.3,1.3-0.1,2.6-0.7,3.8c-0.6,1.2-1.4,2.2-2,3.4C68,43.2,67.7,44,68,44.7c0.8,1.8,1.3,3.7,1.4,5.7
		c0.5,0.1,0.7-0.7,0.5-1.1c-0.2-0.5-0.6-0.9-0.4-1.4c1.3,0.2,2,2.2,1,3.1C73,51.7,75.2,53.2,76.9,55.1 M83.6,69.1
		c0.2,2.5,1.4,4.9,3.3,6.5c0.7,0.6,1.6,1.4,1.3,2.3c-2.1-0.9-3.8-2.7-4.6-4.8c-1.5,2.1-2.9,4.8-1.8,7.2c0.4,0.8,0.9,1.4,1.6,1.9
		c3.3,2.7,8,3,12.3,2.5c6.7-0.9,13.1-3.6,18.4-7.9c0.3-0.2,0.5-0.6,0.3-0.8c-2.4-2.3-3.7-5.7-4.5-8.9c-0.8-3.3-1.3-6.7-2.6-9.8
		c-0.7-1.7-1.6-3.4-1.7-5.2c-0.8,0.9-2.1,1.3-3.2,1c-0.4-0.7-0.8-1.4-1.2-2.1c0,1.8-0.1,3.6-0.7,5.3c-0.6,1.6-1.7,2.9-2.9,4.2
		C93.8,64.5,88.9,67.5,83.6,69.1 M59.9,66.4c-2.8,2.7-7.2,2.7-10.6,4.6c-1.7,1-3.1,2.5-4.4,4C39.7,80.7,34.8,86.5,30,92.5
		c7.1-3,14.3-5.9,21.4-8.9c0.3-0.1,0.5-0.2,0.7-0.4c0.3-0.3,0.3-0.8,0.5-1.2c0.2-0.5,0.7-0.8,1.2-1c1.6-0.9,3.1-1.8,4.7-2.7
		c1.7-1,3.4-1.9,5.2-2.5C66,75,68.5,75,71,74.7c4.1-0.4,8.1-1.3,12-2.6c-0.1-0.8-0.1-1.6-0.5-2.3c-0.4-0.7-1.1-1.3-1.8-1.2
		c-2,0.1-4,0.3-5.9-0.4c-1.9-0.7-3.5-2.4-3.4-4.4c0-0.6,0.2-1.3,0-1.9c-0.2-0.6-1.1-1-1.5-0.5C67.5,64.4,62.6,63.8,59.9,66.4
		 M81.6,73.9c-2.3,0.2-3.9,2.5-4.1,4.7c-0.1,2.3,1,4.4,2.5,6.2c0.5,0.6,1.1,1.2,1.7,1.6c1.3,0.9,2.9,1.2,4.4,1.4
		c2.1,0.4,4.2,0.7,6.3,0.8c9.6,0.4,18.5-4.6,26.2-10.2c-1.2-0.8-2.8-1.5-3.9-0.5c-1.2,1.2-2.7,2.1-4.2,3c-4.2,2.5-8.7,4.6-13.5,5.3
		c-4.8,0.7-10,0-14-2.8c-1.2-0.8-2.3-1.9-2.7-3.3C79.6,78,80.5,75.8,81.6,73.9 M65.5,54.1c1.3-0.4,2.6-0.9,3.9-1.4
		c-0.6-1-1-2.1-1.3-3.2c-0.9-2.9-1.7-5.8-2.6-8.7c-0.2-0.6-1.1-0.6-1.7-0.4c-0.8,0.2-1.7,0.5-2.3,1c0.7,2.2,1.5,4.4,2.2,6.5
		c0.1,0.4,0.3,0.7,0.4,1.1C64.8,50.7,65.2,52.4,65.5,54.1 M70.7,57.1c1.1,0.2,2.2-0.5,2.7-1.5c0-0.1,0.1-0.2,0-0.3
		c0,0-0.1-0.1-0.1-0.1c-0.9-0.6-1.9-1.1-2.8-1.5c-1.7,0.5-3.3,1.1-4.9,1.8c-0.9,0.4-1.9,1.1-1.8,2.1c1,0.2,2-0.2,2.9-0.4
		C68.1,57,69.4,56.9,70.7,57.1 M60.9,46.2c0.6,2.1,1.2,4.2,1.8,6.4c0.3,1,0.6,2.1,0.8,3.2c0.5-0.3,0.8-0.8,0.9-1.4
		c-0.2-0.7-0.4-1.4-0.6-2.1c-0.3-1-0.6-2-0.9-3c-0.6-1.8-1.2-3.6-1.8-5.4c-0.3-0.8-0.6-1.5-0.5-2.3c-0.3,0-0.6,0.1-0.8,0.3
		c-0.2,0.7,0.1,1.5,0.4,2.2C60.5,44.7,60.7,45.4,60.9,46.2 M63.3,37.4c-0.6-0.2-1.3-0.2-1.9,0c-0.6,0.4-1.2,0.7-1.9,1
		c-0.5,0.6-0.6,1.5-0.1,2.2c0.1,0.1,0.2,0.3,0.4,0.3c0.1,0,0.2,0,0.4-0.1c1.3-0.7,2.6-1.4,4-1.5c0-0.1,0-0.2,0-0.3
		C63.7,38.5,63.4,38,63.3,37.4 M60.8,58.6c0.7,0.1,1.5,0,2.2-0.4c-0.3-0.3-0.4-0.7-0.5-1.1c-0.4-2.5-1-4.9-1.8-7.2
		c0,1.4,0,2.7-0.1,4.1c0,0.2,0,0.5-0.1,0.7c0,0.1,0,0.2,0,0.3C60.6,56.2,60.7,57.4,60.8,58.6 M71.6,60.4c0.6,0.1,1.2-0.4,1.6-0.9
		c0.9-1.1,1.9-2.1,2.8-3.2c-0.6-0.3-1.4-0.1-1.8,0.4c-0.6,0.7-1.2,1.3-2,1.7C72.3,59.1,72.1,59.8,71.6,60.4 M68.7,35.7
		c0.2-0.1,0.4-0.1,0.6-0.1c0.1,0.1,0.1,0.2,0.1,0.4c0.1,0.1,0.3,0.1,0.4,0c0.2-0.1,0.3-0.4,0.2-0.6c-0.1-0.2-0.3-0.3-0.5-0.5
		c-0.5-0.3-1.1-0.6-1.6-0.9c-0.1,0.2-0.1,0.5-0.1,0.7c0,0.7,0,1.4,0.2,2.1c0.2,0.7,0.7,1.3,1.4,1.5c0.2-0.2,0.3-0.6,0.2-0.9
		C68.9,37.1,68.5,36.3,68.7,35.7 M75.5,55.1c-1.3-1.1-2.7-2-4.2-2.8c-0.2-0.1-0.4-0.2-0.6-0.2c-0.2,0-0.4,0.3-0.3,0.5
		c1.5,0.4,2.8,1.2,4,2.2C74.6,55.1,75.1,55.2,75.5,55.1 M62.8,36.2c0.3-0.3,0.2-0.9,0-1.2c-0.2,0-0.4,0-0.6,0
		c-0.1,0.4-0.1,0.7-0.1,1.1C62.3,36.2,62.6,36.2,62.8,36.2"/>
	<path class="st0" d="M72.2,48c-0.4,0-0.8,0-1.2-0.1c-0.4-0.2-0.7-0.6-0.6-1c1-0.1,2-0.1,3,0.1c0.2,0.3,0,0.7-0.3,0.8
		C72.9,48,72.6,48,72.2,48"/>
	<path class="st0" d="M75.2,46.9c-0.2-0.8-0.9-1.2-1.6-1.6c0-0.3-0.1-0.6-0.2-0.9c1.3-0.1,2.7,0.8,3,2.1c0,0.1,0,0.2,0,0.4
		c-0.1,1-1.1,1.8-2.1,1.7C74.2,47.9,74.5,47.2,75.2,46.9"/>
	<path class="st0" d="M88.6,81.3c0.4-0.1,0.7,0.1,1,0.4c0.3,0.3,0.5,0.6,0.8,0.7c0.3,0.1,0.6,0.1,0.9-0.1c0.3-0.2,0.5-0.7,0.6-1.1
		c0.4-1.4,0.9-2.8,1.3-4.3c0.1-0.3,0.6-0.3,0.8,0c0.2,0.3,0.1,0.6,0.1,0.9c-0.3,1.5-0.7,3-1.4,4.5c-0.4,0.9-1.5,1.5-2.5,1.2
		C89.3,83.3,88.6,82.3,88.6,81.3"/>
	<path class="st0" d="M105.6,45.8c-0.4-0.4-0.2-1.1,0.1-1.5c0.3-0.5,0.7-0.8,0.9-1.3c0.4-0.7,0.2-1.5,0.1-2.3
		c-0.1-0.4-0.3-1-0.7-0.9c-0.3,0.6-0.6,1.1-0.9,1.6c0,0.1-0.1,0.2-0.2,0.2c-0.2,0.2-0.6,0.1-0.7-0.1c-0.2-0.2-0.2-0.5-0.2-0.8
		c0-0.9,0.7-1.7,1.5-2s1.9,0,2.4,0.7c0.1,0.8,0.2,1.6,0.3,2.3c0,0.8-0.2,1.7-0.5,2.4c-0.2,0.5-0.5,0.9-0.9,1.2
		C106.5,45.7,106,45.8,105.6,45.8"/>
	<path class="st0" d="M126.1,96.4c0.6-0.5,1.2-1.1,1.8-1.6c0.6-0.5,1.2-1,1.8-1.4c1.1-0.7,2.2-1.3,3.5-1.5c0.3-0.1,0.7-0.1,1,0.1
		c0.3,0.2,0.3,0.7,0,0.8c-2.8,0.9-5.4,2.6-7.3,4.8c-0.4,0.5-1,1.1-1.7,1C124.8,97.8,125.5,97,126.1,96.4"/>
	<path class="st0" d="M87.3,29.6c0,0.1,0,0.2,0.1,0.4c-0.2,0.3-0.6,0.4-0.9,0.3c-0.3-0.1-0.6-0.3-0.9-0.4c-2.2-1.3-5.2-1.2-7.3,0.2
		c-0.6,0.4-1.4,0.9-2,0.4c-0.2-0.3-0.2-0.7-0.1-1.1c0.2-0.9,1.2-1.4,2.1-1.7c2.4-0.7,5-0.5,7.3,0.5C86.2,28.5,86.9,28.9,87.3,29.6"
		/>
	<path class="st0" d="M45.2,61.8c-0.3,0.1-0.5-0.2-0.6-0.4c0-0.3,0-0.6,0.1-0.8c1.6-1.9,3.5-3.5,5.7-4.9c0.4-0.2,0.8-0.5,1.2-0.7
		c0.9-0.5,2-1,3-0.7c0,0.7-0.8,1.1-1.5,1.4c-3,1.1-5.4,3.6-7.6,6C45.4,61.6,45.3,61.7,45.2,61.8"/>
	<path class="st0" d="M83.1,33.1c0.9,0.3,1.6,1,2.1,1.8c0.2,0.3,0,0.7-0.2,0.9c-0.2,0.2-0.6,0.4-0.9,0.5c-1.2,0.5-2.4,0.9-3.6,1.4
		c-1,0.4-2,0.7-3.1,0.6c-0.4-0.1-0.8-0.3-0.9-0.6c-0.1-0.3,0-0.6,0.1-0.9c0.5-1.1,1.2-2.1,2.1-3c0.6-0.6,1.3-1,2.1-1.1
		c0.4,0,0.7,0.1,1.1,0.1C82.3,32.9,82.7,32.9,83.1,33.1 M82.5,35.3c-0.1-0.1-0.2,0.2-0.1,0.3c0.4,0.1,0.8-0.1,1.1-0.4
		c-0.2-0.3-0.4-0.7-0.5-1.1c-0.2,0-0.4,0-0.6,0c-0.2,0.4-0.1,0.8,0.2,1.1 M79.6,36.3c-0.2-0.4-0.5-0.8-0.4-1.2c-0.1,0-0.2,0-0.4-0.1
		c-0.2,0.5-0.4,0.9-0.6,1.4c0.4,0.2,0.9,0.1,1.3,0"/>
	<path class="st0" d="M47.2,54c1.3-0.3,2.4-1.1,3.5-1.9c0.6-0.5,1.3-1,2-1.5c0.5-0.4,1.1-0.7,1.6-0.4c0,0.5-0.3,0.9-0.7,1.2
		c-1.4,1.2-2.9,2.2-4.4,3.2c-0.3,0.2-0.5,0.3-0.8,0.5c-0.9,0.5-1.8,1.1-2.7,1.6c-0.7,0.4-1.4,0.8-2.1,1.3c-0.2-0.3-0.2-0.8,0-1.1
		s0.5-0.6,0.9-0.8c0.5-0.4,1.1-0.7,1.6-1c-1.4,0.1-2.8,0.1-4.2,0.2c-0.2-0.2-0.1-0.6,0.1-0.8c0.2-0.2,0.5-0.3,0.8-0.4
		C44.3,53.9,45.8,54.3,47.2,54"/>
</g>
</svg>
