<?xml version="1.0" encoding="utf-8"?>
<!-- Generator: Adobe Illustrator 19.1.0, SVG Export Plug-In . SVG Version: 6.00 Build 0)  -->
<svg version="1.1" id="Layer_1" xmlns="http://www.w3.org/2000/svg" xmlns:xlink="http://www.w3.org/1999/xlink" x="0px" y="0px"
	 viewBox="0 0 133.9 166.9" style="enable-background:new 0 0 133.9 166.9;" xml:space="preserve">
<style type="text/css">
	.st0{fill:#03A9F4;}
</style>
<g id="cold-lady">
	<path class="st0" d="M0,166.9c0-7-0.1-14,0-21c0.1-4.1,0.6-8.2,0.8-12.4c0.1-2.9-0.2-5.8,0-8.7c0.2-3.6,0.5-7.2,1-10.8
		c0.5-3.7,1-7.4,1.9-11c0.9-3.9,2.4-7.7,4.9-10.9c0.5-0.6,1.2-1,1.9-1.4c1.7-0.9,3.4-1.7,5.1-2.5c-1.5-1.8-3-3.5-4.4-5.3
		c-1.9-2.6-3.8-5.2-5.7-7.8c-0.5-0.7,0-1.1,0.5-1.3c1.9-1.2,3.8-2.3,5.8-3.4c2.8-1.5,5.6-2.9,8.4-4.4c1.1-0.6,2.1-1.6,3-2.5
		c0.2-0.2,0.4-0.7,0.3-1.1c-0.2-2.1-0.3-4.2-0.7-6.3c-0.4-2.3-0.8-4.6-2-6.7c-0.4-0.7-0.2-1.8-0.2-2.7c0-1.1,0.4-2.2,0.2-3.3
		c-0.7-3.9-1.6-7.8-2.2-11.7c-0.3-1.9-0.3-4,0.2-5.9c1.3-5,3.9-9.5,7.3-13.4c1.5-1.8,3.4-3.3,5.1-5c0.3-0.3,0.7-0.6,1.1-0.8
		c1.8-1,3.5-2.2,5.3-3.1c1.6-0.8,3.5-1.2,5.2-1.8C47.8,0.1,53-0.3,58.1,0.2c5.1,0.4,9.8,2.3,13.6,5.9C72.8,7.1,74,8,75.1,9
		c1.2,1.2,2.4,2.4,3.6,3.7c0.8,0.8,1.4,1.7,2.3,2.3c2.5,2,4,4.8,5.8,7.3c2.5,3.4,2.1,6.9,1.3,10.6c-0.2,1-0.1,1.8,0.5,2.6
		c1.6,2.2,2.8,4.6,2.6,7.5c-0.3,3.4-1,6.8-3,9.8c-0.6,0.9-1.3,1.8-2.1,2.7c-0.8,1-1,2.1-0.5,3.1c1.1,2.1,1.1,4.3,1,6.6
		c0,1.1,0.1,1.9,1.5,2.1c0.5,0.1,1.3,0.9,1.3,1.5c0.2,1.3,0.2,2.7,0,4c-0.2,1.1-0.3,2,0.7,2.9c1.6,1.5,2.4,3.5,2,5.7
		c-0.3,1.7,0.7,3,1.4,4.3c0.1,0.1,0.3,0.2,0.5,0.3c2.7,1.1,5.5,2.2,8.2,3.4c4.2,1.9,8.6,3.6,12.7,5.8c3.5,1.8,6.8,4.1,10.1,6.2
		c1.2,0.7,2.4,1.5,3.5,2.4c1.4,1.2,2.3,2.8,2.5,4.8c0.5,6.1,0.9,12.2,1.4,18.3c0.2,1.9,0.6,3.7,0.9,5.6c0.3,2.5,0.5,5,0.7,7.6
		c0,0.4-0.4,0.8-0.6,1.2c-0.2-0.4-0.7-0.8-0.7-1.1c0.6-5-1.3-9.8-1.5-14.7c-0.1-3.3-0.2-6.6-0.5-9.9c-0.2-2.6-0.3-5.3-1.2-7.7
		c-0.5-1.6-2-3-3.5-4c-3.4-2.4-7-4.5-10.5-6.6c-1.1-0.7-2.3-1.2-3.5-1.8c-5.6,14.2-4.9,28.4-1.6,42.6c0.2,0,0.4,0,0.6,0.1
		c0.7-1.6,1.3-3.2,2-4.7c0.2,0.1,0.4,0.1,0.6,0.2c-0.1,0.3,0,0.7-0.2,1c-1.2,2.1-1.5,4.4-1.6,6.7c-0.1,3.3,0,6.5,0.1,9.8
		c0.1,3.3,0.3,6.6,0.4,9.9c0.1,2,0.1,4.1,0.1,6.1c-0.3,0-0.6,0-1,0c0-0.8-0.1-1.5-0.1-2.3c-0.1-5.5-0.3-10.9-0.4-16.4
		c0-2.8,0.2-5.7-0.6-8.4c-1,0.3-2,0.7-3,0.9c-0.4,0.1-0.8-0.1-1.2-0.2c0.3-0.4,0.6-0.8,0.9-1c0.7-0.4,1.6-0.6,2.4-0.9
		c0.6-0.2,0.8-0.6,0.5-1.2c-0.4-0.7-0.8-1.4-1-2.2c-0.4-2-0.8-4-1.1-6c-0.3-2.5-0.3-5-0.5-7.6c-0.4-4.7-0.4-9.5,0.4-14.1
		c0.5-2.6,1.2-5.2,1.9-7.7c0.4-1.6,1-3.2,1.5-4.9c-4.6-2-9.1-4-13.6-6.1c-0.2,0.3-0.4,0.6-0.4,0.8c-0.7,2.8-1.4,5.7-1.9,8.5
		c-0.4,2.3-0.3,4.7-0.7,7.1c-0.7,4-1.7,8-2.6,12c-0.9,4.1-1.6,8.3-3.4,12.1c-0.1,0.3-0.1,0.6-0.2,0.9c0.3,0.1,0.4,0.2,0.6,0.2
		c2,0.4,3,1.5,3.2,3.5c0.4,4.2,0.7,8.3,1.2,12.5c0.2,1.9,0.6,4,1.5,5.7c2.1,4,4.6,7.7,8.2,10.7c1.3,1.1,2.4,2.7,3.5,4
		c-0.3,0-0.6,0-1,0c-0.7-0.8-1.3-1.5-2-2.3c-2.3-2.6-5.3-4.6-7-7.7c-0.2-0.4-0.5-0.7-0.8-1.2c-0.1,1-0.2,1.8-0.4,2.5
		c-0.1,0.3-0.4,0.6-0.6,0.9c-0.1-0.3-0.2-0.7-0.2-1c0.3-2,0.5-4-0.8-5.7c-0.2-0.3-0.3-0.8-0.4-1.2c-0.4-1.9-0.8-3.8-1.3-5.7
		c-0.3,0.4-0.6,0.8-0.9,1.1c-0.1-0.1-0.3-0.1-0.4-0.2c0.1-0.4,0.2-0.8,0.4-1.2c0.6-0.9,1-1.8,0.3-2.9c-0.2-0.4-0.2-1-0.2-1.5
		c-0.2-2.2-0.3-4.4-0.5-6.6c-0.1-1.5-0.8-2.1-2.4-2.4c-1.7-0.3-3.5-0.6-5.2-1c-0.2,0-0.4,0-0.5,0c-0.1,0.1-0.1,0.2-0.2,0.3
		c1.4,1.3,2.8,2.6,4.1,4c0.3,0.3,0.4,0.8,0.6,1.2c-0.1,0.1-0.3,0.2-0.4,0.2c-1-1.1-1.9-2.2-3-3.2c-3.3-2.9-6.7-5.9-10.2-8.7
		c-1.6-1.3-3.7-2-5.5-2.9c-0.1,0.1-0.2,0.1-0.4,0.2c0.4,2-0.8,2.9-2.6,4.1c0.6,0.4,1,0.6,1.4,0.9c3,2.7,6.6,4.8,9.2,7.9
		c2.4,2.9,5,5.5,7.5,8.3c0.3,0.3,0.2,0.8,0.3,1.3c-0.1,0.1-0.2,0.1-0.3,0.2c-0.2-0.2-0.5-0.3-0.7-0.5c-0.6-0.5-1.1-1.1-1.8-1.5
		c-2.3-1.5-4.5-3.2-6.2-5.4c-0.3-0.3-0.6-0.7-1-0.9c-1.4-1-2.8-2-4.1-3.1c-2-1.5-3.9-2.9-5.5-5c-1.2-1.5-2.8-2.8-4.8-3.5
		c0.2,1.8-0.3,3.3-2.1,4.2c0.9,1.1,1.6,2.1,2.5,3c1.1,1.1,2.3,2,3.4,3.1c1.4,1.6,2.6,3.4,4.2,4.8c2.6,2.4,5.4,4.6,8.1,6.9
		c0.4,0.3,0.6,0.7,0.9,1.1c-0.1,0.1-0.2,0.2-0.2,0.3c-0.3-0.1-0.7-0.2-0.9-0.4c-1-0.9-2-1.9-3-2.7c-3.6-2.9-7.1-5.8-9.9-9.5
		c-1-1.3-2.3-2.3-3.3-3.3c-1,0.8-1.7,1.4-2.6,2.2c0.3,0.7,0.7,1.7,1.2,2.5c1,1.6,2.3,3.1,3.1,4.8c1.8,3.4,4.2,6.2,7.4,8.3
		c1,0.7,1.9,1.6,2.8,2.5c0.2,0.2,0.1,0.6,0.2,1c-0.3-0.1-0.7-0.1-0.9-0.3c-1.5-1.2-3-2.3-4.3-3.7c-1.6-1.6-3.2-3.4-4.6-5.2
		c-1.1-1.4-1.9-2.9-2.8-4.5c-0.9,0.9-1.6,1.6-1.1,2.9c1.2,2.8,2.3,5.5,4.3,7.9c1.2,1.4,2.3,2.9,3.6,4.4c2.1,2.5,4.1,4.9,6.3,7.3
		c0.2,0.3,0.9,0.2,1.4,0.2c0.3,0,0.6-0.3,1-0.5c0.1,0.4,0.3,0.8,0.2,0.8c-0.3,0.3-0.8,0.6-1.2,0.8c1,1.1,2,2.2,3.1,3.2
		c-0.5,0-1,0-1.4,0c-0.5-0.6-0.9-1.2-1.5-1.7c-1.6-1.7-3.3-3.2-4.8-4.9c-1.9-2.2-3.8-4.4-5.6-6.7c-1.4-1.8-2.6-3.9-3.9-5.8
		c-0.7-1-1.5-2.2-2.5-2.8c-1.7-1.1-3.7-1.8-5.6-2.8c-1.2-0.7-2.6-1.3-3.5-2.3c-2.5-2.5-4.7-5.2-6.2-8.4c-0.6-1.2-1.2-2.4-1.8-3.6
		c-0.1,0-0.2,0-0.3,0.1c0,1-0.1,2-0.2,2.9c-0.5,4.6-1.1,9.3-1.5,13.9c-0.6,5.7-1.1,11.4-1.6,17.1c-0.1,1.7,0.1,3.3,0.1,5
		c-0.8,0-1.6,0-2.4,0c0.2-0.9,0.4-1.9,0.6-2.8c0.8-4.7,0.8-9.5,1.5-14.2c1-6,1.4-12.1,2-18.2c0.3-2.8,0.4-5.6,0.8-8.4
		c0.5-3.9,2.7-7,5-9.9c0.3-0.3,0.5-0.7,0.7-1.1c1.6-3,2-6.2,2.1-9.5c0.1-2.6,0.9-4.9,2.9-6.6c0.9-0.8,1.8-1.6,2.7-2.4
		c0.3-0.3,0.6-1,0.5-1.2C50.9,91,50,89.8,49,88.2c-2.4,2.9-5.7,4.3-7.7,7.1c-0.1,0.2-0.3,0.3-0.4,0.4c-0.2,0.1-0.4,0-0.6,0
		c0-0.2,0-0.5,0.1-0.6c0.3-0.5,0.7-0.9,1-1.3c1.6-2.1,3.1-4.4,4.9-6.3c2-2,2.4-3.6,0.8-6c-0.1-0.1-0.2-0.3-0.3-0.4
		c-0.6-0.8-2.8-1.1-3.6-0.3c-0.7,0.7-1.4,1.6-2,2.4c-1.2,1.4-2.2,3.1-3.7,4c-1.5,1-2.5,2-3.1,3.7c-0.1,0.3-0.5,0.5-0.8,0.8
		c0.3-1.4,0.7-2.7,1.2-3.9c0.1-0.3,0.6-0.4,0.9-0.6c0.6-0.4,1.2-0.7,1.7-1.1c0,0,0-0.2-0.1-0.3c-0.4,0.1-0.7,0.1-1,0.2
		c0.7-3.6,4.4-6.3,8.2-6.4c0.9,0,1.7-0.3,1.9-1.2c0.3-1.6-1.5-3.7-3.1-3.8c-0.7,0-1.5-0.2-2.2-0.3c-2.2-0.3-4.3-0.2-5.8,1.8
		c-1.8,2.4-3.6,4.8-5.4,7.2c-0.7,1-1.5,1.9-2.9,1.8c0.1-0.3,0.4-0.5,0.6-0.7c0.6-0.6,1.4-1.2,1.8-2c0.8-1.6,1.3-3.2,1.9-4.9
		c0.6-1.6,1.4-2.2,3.1-2.3c0.2,0,0.5-0.1,0.6-0.2c1.7-1.7,3.8-1.8,5.9-1.6c1.3,0.1,2.1-0.5,3.1-0.9c0.3-0.1,0.6-0.8,0.6-1.2
		c0.1-1.2-0.8-2-2.4-1.9c-2.5,0.2-4.9,0.5-7.4,0.9c-2.3,0.3-4.6,0.7-7,1.1c-0.3,0.1-0.9,0.2-1,0.5c-0.5,1.1-1,2.3-1.3,3.5
		c-0.4,1.7-0.6,3.4-1,5c-0.9,3.7-1.4,7.3-0.3,11c1.1,3.7,1.3,7.6,1.7,11.4c0.3,3.2,0.2,6.4-1.3,9.4c-0.3,0.6-0.5,1.2-0.6,1.8
		c-1.3,6-3.5,11.8-5.6,17.5c-0.4,1.1-0.8,2.2-1.1,3.3c-0.4,1.1-0.9,2.2-1.2,3.4c-1.1,4.1-1.9,8.4-3.4,12.4c-2.2,5.8-5.4,11.2-9,16.3
		c-0.2,0-0.3,0-0.5,0c-0.1-0.4-0.3-0.9-0.1-1.2c1.1-1.9,2.3-3.8,3.5-5.7c4.3-6.6,6.8-14,8.4-21.7c0.3-1.4,0.8-2.8,1.3-4.2
		c1.3-3.6,2.6-7.2,3.9-10.9c0.1-0.3,0-0.8-0.1-1.1c-0.2-1-0.6-2-0.7-3.1c-0.2-1.1,0-2.3-0.3-3.4c-0.4-1.2-1.2-2.2-1.8-3.3
		c-0.2-0.3-0.2-0.8-0.3-1.2c0.3,0.1,0.8,0.2,1,0.5c0.7,0.8,1.4,1.6,2.1,2.5c0.4-1.3,0.9-2.7,1.2-4.1c1-3.9,1.9-7.8,2.8-11.8
		c0.2-0.8,0.2-2.1-0.2-2.6c-1.6-2-3.5-3.8-5.3-5.6c-0.7-0.7-1.5-0.7-2.4-0.2c-1.2,0.6-2.6,1.1-3.8,1.8c-0.9,0.5-2,1-2.7,1.8
		c-2.2,2.8-3.4,6.1-4.4,9.5c-0.8,2.8-1.1,5.7-1.6,8.6c-0.4,2.1-0.8,4.3-1.1,6.4c-0.3,2.5-0.4,5-0.3,7.6c0.1,4.6-0.3,9.2-0.4,13.8
		c-0.2,4.9-0.5,9.9-0.5,14.8c-0.1,4.3,0.1,8.6,0.2,12.8C1,166.9,0.5,166.9,0,166.9z M76.4,61.3c0.2-0.1,0.5-0.3,0.7-0.4
		c1.5-2,3.1-3.9,4.6-6c0.5-0.7,0.6-1.8,0.5-2.6c-0.2-1.8-0.5-3.5-0.9-5.3c-0.5-2.5-0.5-2.5-2.8-1.3c-0.9,0.5-1.4,1-1.3,2.3
		c0.4-0.2,0.7-0.5,1.1-0.5c0.5,0,1.3,0,1.4,0.3c0.5,1,1.1,2.2,1.3,3.3c0.3,2.5-1.4,5.1-3.7,6.1c-0.8,0.3-1.9,0.3-2.8,0.3
		c-0.2,0-0.4-0.6-0.7-0.9c0.3,0,0.7-0.1,1-0.1c0.7-0.1,1.5,0.1,2-0.2c0.9-0.6,1.8-1.4,2.5-2.2c1-1.1,0.7-3.1-0.5-4
		c-0.2-0.2-0.4-0.4-0.6-0.6c-0.7-0.7-1.2-0.8-1.9,0.1c-0.6,0.7-1.2,1.4-1.9,2c-0.6,0.5-1.4,0.8-1.9,1.4c-0.6,0.7-1.1,1.7-1.6,2.5
		c-0.2,0.2-0.5,0.5-0.7,0.5c-0.2,0-0.5-0.3-0.6-0.6c-0.5-1.4-1.1-2.7-1.5-4.2c-0.6-1.8-1.6-3.2-3-4.4c-2.6-2.3-5.6-3.7-8.7-5.1
		c-1.1-0.5-2.3-1-3.2-1.8c-1.9-1.5-3.8-3.1-5.4-4.9c-2.1-2.2-4.6-2.3-7.3-2.1c-3.3,0.3-6.5,0.4-9.3-2c-0.3-0.2-0.7-0.3-1.1-0.3
		c-3-0.3-5.3,0.7-6.5,3.7c-0.1,0.1-0.2,0.3-0.3,0.4c-0.3,0.9-0.8,1.9-0.8,2.8c0,2.5,0.2,5.1,0.2,7.6c0,1.1,0.3,1.5,1.5,1.5
		c1.6,0.1,3.3,0.2,4.9,0.7c1.7,0.5,2.2,1.7,1.5,3.1c0.8,0.6,1.6,1.1,2.4,1.7c0.1-0.3,0.2-0.5,0.4-1c0.4,1,0.9,1.7,1,2.4
		c0.4,2.9-0.2,5.7-1.4,8.4c-0.6,1.3-1,2.6-1.4,3.9c-0.3,0.8-0.1,1.2,0.8,1.3c1.2,0.1,2.3,0,3.5,0.2c1.3,0.2,2.4-0.2,3.5-1
		c1.5-1.2,3-1.8,4.8-0.7c0.4,0.3,1,0.2,1.5,0.4c1.1,0.4,2.7,0.2,2.7,2.1c0,0.1,0.1,0.2,0.2,0.3c2.2,1.7,2.2,4.4,2.8,6.8
		c0.8,3.7,1.5,7.3,2.3,11c0.3,1.1,0.7,2.2,1.3,3.7c1.4-1.4,2.6-2.6,3.7-3.8c1.9-2,3.7-4.1,5.5-6.2c0.8-0.9,1.5-1.8,2.1-2.7
		c0.8-1.3,1.6-2.6,2.3-3.9c0.3-0.6,0.7-1.3,0.9-2c0.8-3.2,1.7-6.4,2.4-9.6c0.3-1.3,0.8-1.1,1.5-0.5C74.1,61.8,75.2,61.9,76.4,61.3z
		 M55.9,129.3c-0.3-0.4-0.7-0.8-0.9-1.2c-1.2-2.2-0.5-3.6,1.8-4.2c2.2-0.6,3.8,0.4,5.2,1.6c1.4,1.2,2.5,2.8,3.9,4
		c2.2,1.9,4.6,3.5,6.8,5.3c0.8,0.6,1.6,1.2,2.3,1.9c1.7,1.5,3.2,3.1,4.9,4.6c0.4,0.4,1,0.6,1.5,1c-4.3-5.2-8.8-10-14.2-13.9
		c-1.6-1.1-2.7-2.5-3.4-4.3c-0.5-1.3-0.1-2.6,0.9-2.7c2.8-0.3,5.4,0.2,7.7,1.8c2.2,1.5,4.3,3.1,6.4,4.7c1.2,0.9,2.2,1.9,4,1.8
		c1.1-0.1,2.2,0.5,3.3,0.6c0.3,0,0.9-0.2,1-0.5c0.6-1.4,1.3-2.8,1.7-4.2c1.2-4.6,2.3-9.3,3.3-13.9c0.4-1.9,0.7-3.8,1-5.6
		c-2.1,1-4.3,1.8-6.3,3c-3.4,2.1-7.4,2.8-11,4.2c-0.8,0.3-1.7,0.2-2.5,0.2c-0.2,0-0.4-0.2-0.4-0.3c2-0.6,3.8-1.2,5.7-1.6
		c4.4-1.1,8.2-3.4,12.3-5.2c0.9-0.4,2.1-1.2,2.3-2c0.5-1.7,0.4-3.5,0.7-5.2c0.5-3,1.1-6,1.8-9c0.4-1.6,0.4-1.7-1.2-2.1
		c-1.9-0.5-3.9-0.9-5.6-1.7c-3.5-1.8-6.8-3.8-10.1-5.8c-0.5-0.3-0.8-1-1.1-1.5c-0.3-0.5-0.4-1-0.6-1.5c-1.5-3.2-2.1-6.5-2.2-10
		c0-1.3-0.1-2.7-0.2-4c-0.4,0-0.9,0.1-1,0c-0.7-0.9-1.2-0.3-1.5,0.3c-0.5,1.3-1.1,2.6-1.3,3.9c-0.3,2.7-1.2,5.1-2.7,7.4
		c-1.6,2.5-2.8,5.2-5.3,7.1c-0.6,0.4-1,1-1.5,1.6c-1.9,2.2-3.4,4.7-5.8,6.4c-0.2,0.2-0.5,0.6-0.4,0.9c0.5,2.4,0.7,4.8,1.6,7
		c1.1,2.7,1.9,5.5,2.3,8.4c0.3,1.9,0.1,4,0.1,6.2c-0.5-0.3-1-0.4-1.2-0.6c-0.8-1-1.5-2-2.1-3.1c-0.7-1.3-1.3-2.4-3-2.5
		c-0.5,0-1-0.4-1.5-0.7c-1.6-0.9-3.2-1.8-4.8-2.7c0,0.3,0,0.5-0.1,0.8c-0.3,2.2-0.3,4.4-1.1,6.6c-1,2.9-2.9,5.2-4.4,7.8
		c-1.8,3.3-3.1,6.4-0.8,10.2c1.8,2.9,3.3,6,5.6,8.7c2.2,2.6,5,4,7.7,5.6c1,0.6,2,1.1,3.2,1.7c-0.4-1.4-0.8-2.6-1-3.9
		c-0.1-0.7-0.2-1.7,0.1-2.3c0.6-0.8,0.4-1.3,0-2c-0.2-0.4-0.4-0.7-0.5-1.1C54.3,130.7,53.7,131.2,55.9,129.3z M28.1,62
		c-1.3,0.8-2.5,1.4-3.5,2.2c-2.3,2-4.7,3.8-7.5,5.2c-1.2,0.6-2.4,1-3.6,1.6c-1.5,0.8-3,1.6-4.4,2.4c-0.7,0.4-1.4,0.9-2.2,1.4
		c1.9,2.6,3.6,5.1,5.4,7.5c1.3,1.7,2.8,3.2,4.3,4.7c1.3,1.3,2.8,2.5,4.2,3.8c1.1,1,2,2.2,3,3.3c-0.9-4-1.6-8-0.3-12.3
		c-1.3,0.8-2.3,1.4-3.3,2c-0.1-0.2-0.2-0.3-0.3-0.5c1-0.7,2.1-1.3,3.1-2c0.2-0.1,0.6-0.3,0.6-0.5c0.4-1.6,0.8-3.2,1-4.9
		c0.2-2.1,1.1-3.8,2.2-5.6c-0.7-1-1.5-2.2-2.3-3.4c0.1-0.1,0.3-0.2,0.4-0.3c0.7,0.8,1.4,1.6,2.1,2.5c0.1-1.1,0.1-2,0.1-3
		c0.1,0,0.3,0,0.4,0c0.1,1.5,0.3,2.9,0.4,4.5c0.7-0.2,1.2-0.4,1.7-0.5c3.9-0.6,7.8-1.2,11.7-1.6c1.3-0.2,3.1,0.4,3.7,1.6
		c0.6,1.3,0.4,2.1-1.1,3.4c0.4,0.4,0.8,0.8,1.3,1.1c1.4,1,2.1,2.4,1.8,4.1c-0.2,1,0.2,1.5,0.6,2.2c0.9,1.5,1.6,3,1.2,4.9
		c-0.1,0.6,0.1,1.4,0.4,1.9c0.7,1.2,1.7,2.3,2.5,3.5c1.2,1.6,1.9,3.5,1.8,5.5c-0.1,1.5,0.2,2.7,1.4,3.7c1,0.8,1.8,1.8,2.7,2.7
		c-0.3-1.4-0.8-2.6-1.2-3.9c-0.3-0.7-0.7-1.4-0.9-2.2c-0.6-2.4-0.9-4.8-1.7-7.2c-1.7-4.9-3.1-9.9-3.6-15.1c-0.2-2.9-1.7-5.3-3.3-7.6
		c-0.5-0.8-2.2-0.8-3.3-1.1c-0.2-0.1-0.4-0.2-0.5-0.3c-1.1-0.6-2.1-0.6-3,0.3c-2.3,2.3-5.1,1.5-7.9,1.5c-0.6,0-1.2-0.3-1.9-0.5
		C31.4,64.8,28.9,63.9,28.1,62z M52.6,94.1c-0.2-0.1-0.3-0.1-0.5-0.2c-1.1,1-2.3,2-3.3,3.1c-0.9,1.1-1.4,2.5-2.1,3.7
		c-0.1,0.2,0.1,0.8,0.3,1c2,1.6,4.3,2.9,6.8,3.8c0.8,0.3,1.5,1,2,1.7c0.5,0.7,0.7,1.6,1.2,2.3c0.3,0.5,0.8,1,1.2,1.4
		c0.1-2.7,0.8-5.3-1.2-7.4c-1.1-1.2-2.2-2.5-3.5-3.6c-0.5-0.4-0.7-0.7-0.7-1.3C52.9,97.2,52.7,95.6,52.6,94.1z M31.1,64.8
		c1.1-3.7,3.3-6.9,2.5-10.9c-1.5,0.4-2.9,1-4.3,1.1c-1.6,0.2-3.3,0.1-4.4-1.6c-0.2-0.3-0.6-0.6-1.1-1c0.6,3.6,1.1,6.9,1.6,10.3
		c1-0.5,2.1-1.1,3-1.6C29.3,62.4,30.1,63.5,31.1,64.8z M24.9,100.1c-0.2,0-0.3-0.1-0.5-0.1c-0.1,0.3-0.2,0.7-0.3,1
		c-0.1,1-0.1,1.9-0.3,2.9c-0.7,3.2-1.6,6.4-2.4,9.5c-0.3,1.4-0.8,2.7-1.1,4.1c-0.2,0.9-0.4,2,0.7,2.9c0.3-0.6,0.5-1.1,0.7-1.6
		c0.9-3,1.9-6,2.5-9c0.5-2.4,0.5-4.9,0.6-7.4C25,101.6,24.9,100.9,24.9,100.1z M82.6,49.6c0.1-0.1,0.3-0.2,0.3-0.2
		c0.2-1,0.4-2.1,0.5-3.2c0.1-2.1-1.1-2.8-2.7-3.2c-1.3-0.3-2.8,0.8-2.9,2.3c0.7-0.4,1.3-0.8,1.9-1.2c1.2-0.8,2.1-0.4,2.3,1
		C82.2,46.6,82.3,48,82.6,49.6z M27.7,50.5c-1-0.1-1.7,0.2-2,1.2c-0.3,1-0.1,1.9,0.9,2.1c1.1,0.3,2.4,0.2,3.6,0.3c0-0.1,0-0.2,0-0.3
		C28.3,53.3,28,52.8,27.7,50.5z M23.5,51.5c1.8-1.9,3.8-2.4,6.1-2c-2.4-0.4-4.8-0.9-7.6-1.3C22.6,49.4,23,50.3,23.5,51.5z
		 M56.3,128.3c1.9-1,2.4-2.2,1.5-3.9c-0.8,0.4-1.9,0.7-2.3,1.4C55,126.5,55.4,127.6,56.3,128.3z M42.9,92.2c0.1,0.1,0.2,0.2,0.3,0.2
		c1.7-0.4,5.1-4.1,4.7-5.5C46.1,88.7,44.5,90.4,42.9,92.2z M42.3,81c-0.1-0.1-0.2-0.2-0.2-0.2c-2.5,0.8-4.6,3.1-4,4.7
		C39.5,83.9,40.9,82.5,42.3,81z M65,124.6c0.2,0,0.4,0.1,0.6,0.1c0.4-0.6,0.9-1.1,1.2-1.8c0.1-0.2-0.4-0.9-0.6-0.9
		c-0.5,0-1.5,0.2-1.5,0.4C64.7,123.2,64.9,123.9,65,124.6z M57.7,131.6c-0.5-0.6-0.8-1-1.2-1.4c-0.4,0.5-1.2,0.9-1.2,1.4
		c0,0.5,0.7,1,1.1,1.5C56.8,132.6,57.1,132.2,57.7,131.6z M33.9,76.4c-1.5,0.1-2.9,2.4-2.6,3.9C32.2,78.9,33,77.6,33.9,76.4z
		 M56.7,140c0.8-1.2,0.8-1.4-0.1-2C55.9,139.3,55.9,139.3,56.7,140z"/>
	<path class="st0" d="M76.4,61.3c-0.3-0.1-0.5-0.1-0.8-0.2c-1.3-0.1-1.5-0.4-1.3-1.8c0.1-1.1,1-1.1,1.7-0.9c0.4,0.1,0.7,0.7,1,1.2
		c0.2,0.4,0.1,0.8,0.2,1.3C76.8,61.1,76.6,61.2,76.4,61.3z"/>
	<path class="st0" d="M45.6,50.8c-0.6,0.3-1.3,0.7-1.9,1c-0.1-0.1-0.2-0.2-0.3-0.3c0.4-0.4,0.7-1,1.1-1.3c2.7-1.6,8.2-2.3,11.4,0.6
		c1,0.9,1,1.5-0.1,2.3c-2.1,1.4-4.3,1.9-6.8,1.3c-1.1-0.2-2.2-0.2-3.3-0.3c-1.2-0.1-1.5-0.6-0.9-1.6c0.3-0.5,0.7-1,1-1.5
		C45.7,50.9,45.6,50.8,45.6,50.8z M55,52.2c-0.1-0.2-0.1-0.3-0.2-0.5c-0.3,0.1-0.6,0.2-0.8,0.4c-0.8,0.9-1.8,1.2-3,0.8
		c-1.3-0.4-1.4-1.5-1.6-2.5c0-0.2-0.1-0.4-0.1-0.7c-2.1,0.3-2.8,2.1-3.9,3.3c1.9,0.3,3.7,0.5,5.5,0.8c0.3,0,0.7,0,1.1-0.1
		C52.9,53.2,53.9,52.7,55,52.2z"/>
	<path class="st0" d="M52.4,44.9c0.7,0.4,1.7,0.8,2.6,1.3c0.2,0.1,0.2,0.5,0.2,0.7c-0.2,0.1-0.4,0.2-0.6,0.2
		c-0.7-0.1-1.4-0.4-2.1-0.5c-2-0.2-3.8,0.7-5.6,1.4c-1.8,0.7-3.6,1.4-5.6,1.3c-0.4,0-0.9-0.3-1-0.5c-0.1-0.5,0-1.1,0.7-1.3
		c1-0.2,2-0.4,3-0.7c2.3-0.6,4.6-1.2,6.9-1.7C51.4,45,51.8,45,52.4,44.9z"/>
	<path class="st0" d="M28.2,38.9c1.2-1,2.5-1.1,3.8-0.9c2.9,0.3,5.7,0.5,8.6,0.6c0.6,0,1.2-0.2,1.8-0.2c0.3,0,0.6,0,0.9,0
		c0,0.2,0,0.3,0.1,0.5c-0.8,0.2-1.6,0.5-2.3,0.5c-2.6-0.1-5.2-0.4-7.8-0.5c-1.4-0.1-2.8,0-4.2,0.1C28.7,38.9,28.4,38.9,28.2,38.9z"
		/>
	<path class="st0" d="M43.1,40.9c-4.7,1.2-9.3-0.6-14,0.2c0-0.2,0-0.4,0-0.6c1.5-0.1,3.1-0.3,4.6-0.3c1.6,0,3.2,0.3,4.8,0.4
		c1.6,0.1,3.1,0,4.7,0C43.1,40.7,43.1,40.8,43.1,40.9z"/>
</g>
</svg>
