<?xml version="1.0" encoding="utf-8"?>
<!-- Generator: Adobe Illustrator 19.1.0, SVG Export Plug-In . SVG Version: 6.00 Build 0)  -->
<svg version="1.1" id="Layer_1" xmlns="http://www.w3.org/2000/svg" xmlns:xlink="http://www.w3.org/1999/xlink" x="0px" y="0px"
	 viewBox="0 0 150 211.8" style="enable-background:new 0 0 150 211.8;" xml:space="preserve">
<style type="text/css">
	.st0{fill:#03A9F4;}
</style>
<g id="cold-lady-2">
	<path class="st0" d="M2.3,211.8c-2.2-5-2.9-10.1-1.9-15.4c0.3-1.3,0.9-2.6,1.2-4c0.3-1.3,0.7-2.6,0.6-3.9
		c-0.2-6.5,0.8-12.9,1.5-19.3c0.3-2.7,0.4-5.4,0.6-8.1c0.2-3.4,0.5-6.7,0.5-10.1c0.1-5.3,0.3-10.7-0.1-16
		c-0.6-6.6,0.2-13.1,0.7-19.6c0.1-0.9,0.3-1.8,0.7-2.6c1-2.4,1.9-4.9,3.1-7.2c2-3.6,5.1-6,9.2-6.9c4.1-1,8.2-1.9,12.3-2.9
		c2.1-0.5,4.2-1.2,6.3-1.7c1.3-0.3,2.5-2.5,2-3.7c-1.1-2.7-2.4-5.3-3.3-8c-0.8-2.1-1.4-4.3-1.7-6.5c-0.4-3.4-0.6-6.8-0.5-10.1
		c0.2-3.9,0.8-7.7,1.3-11.6c0.6-4.6,1.4-9.2,1.9-13.8c0.2-2.1-0.2-4.3-0.2-6.4c0-2.3-0.5-4.6,0.2-6.9c0.5-1.6,0.6-3.2,1.1-4.8
		c0.3-1.1,0.8-2.1,1.4-3.1c3-5.2,7.5-9.1,12.1-12.8c3.2-2.6,6.8-4.3,10.9-4.9c3-0.4,5.9-1,8.9-1.4c1.7-0.2,3.4-0.1,5.2,0
		c1.8,0,3.7,0,5.5,0.2c5.8,0.4,11.2,1.9,15.1,6.6c1.7,2,3.2,4.2,4.6,6.5c1,1.6,1.7,3.5,2.6,5.2c2.6,4.9,3.7,10.2,4.9,15.4
		c0.5,2.1,1.3,4.2,1.9,6.3c1.4,4.7,1.9,9.5,2.7,14.3c0.6,3.7,1.7,7.4,2.4,11.1c0.6,2.8,0.9,5.7,1.2,8.6c0.3,2.4,0.7,4.7,1.6,7
		c1.2,2.8,2.3,5.7,3.3,8.5c1,2.7,3.2,4.3,4.9,6.3c1.5,1.8,3.2,3.3,5.5,4.1c2.1,0.8,4.1,1.9,6.1,3.1c2,1.1,3.3,3.1,4.4,5
		c2.3,3.9,3.7,8.2,4.1,12.7c0.5,5.3,0.8,10.5,1,15.8c0.2,6.6,0.4,13.2,0.4,19.8c0,7-0.3,14-0.3,21c0,2.9,0.5,5.7,0.7,8.6
		c0.4,4.2,0.8,8.4,1.1,12.6c0.2,2.9-0.5,5.7-2.5,8c-1.4,1.6-2.6,3.3-3.8,4.9c-0.7,0-1.3,0-2,0c0.3-0.4,0.7-0.8,1-1.2
		c0.7-0.7,1.3-1.4,2-2.2c0.2-0.2,0.3-0.6,0.3-0.9c-0.5-1.8-0.9-3.6-1.7-5.2c-1-2-2.2-4-3.5-5.9c-2.8-4-5.5-8.1-9.6-10.9
		c-0.7-0.5-1.2-1.2-1.8-1.7c-1.5-1.1-3-2.2-4.5-3.3c-0.7-0.5-1.5-0.7-2.1-1.3c-2.3-2.4-4.6-4.9-6.8-7.4c-0.7-0.8-1.2-1.7-1.9-2.5
		c-0.1,0-0.2,0-0.4,0c0.5,3-1.2,5.1-2.5,7.4c-2.2,3.8-5.1,7.1-8.2,10.2c-2.4,2.5-5.2,3.8-8.9,3.8c0.9,1.4,1.7,2.7,2.4,4
		c2,3.7,4,7.3,5.9,11c1.1,2,2.2,3.9,3.2,5.9c-0.5,0-1,0-1.5,0c-0.9-1.6-1.8-3.2-2.7-4.8c-0.2-0.3-0.7-0.5-1.1-0.5
		c-2.5-0.1-5-0.1-7.5-0.2c-2.1-0.1-4.1-0.6-5.8-1.8c-0.3-0.2-0.3-0.7-0.5-1.1c0.4-0.1,1-0.4,1.3-0.2c3.8,2.1,8,1.6,12,1.5
		c0.1,0,0.1-0.1,0.2-0.3c-0.7-1.2-1.4-2.5-2.1-3.8c-1.3-2.4-2.4-4.9-3.9-7.1c-2.2-3.4-4.1-6.9-4.4-11c-0.3-3.1-1.2-6-2.6-8.7
		c-1.4-2.6-2.5-5.4-3.5-8.2c-1.3-3.5-2.2-7.1-3.5-10.6c-2-5.1-4.2-10.1-6.2-15.2c-0.2-0.4-0.3-0.9-0.5-1.4c-1.3,1.6-2.6,3.1-3.7,4.7
		c-0.6,0.9-1,1.9-1.4,2.9c-1.5,4.3-2.9,8.6-4.4,12.9c-0.4,1.1-1,2-1.4,3.1c-0.7,2.3-1.2,4.6-1.7,6.9c-0.7,2.8-1.8,5.6-1.2,8.7
		c0.1,0.7,0.2,1.5,0,2.2c-0.4,1.2-0.7,2.8-1.5,3.3c-1.3,0.8-1.5,1.9-2,3.1c-0.3,0.8-0.8,1.6-1.2,2.4c-1.2,2.5-2.5,5-3.6,7.5
		c-0.8,1.8-1.5,3.6-2.2,5.4c-0.3,0.9-0.6,1.8-0.8,2.6c3.5-0.1,6.7-0.3,10-0.3c2.7,0,5.4,0.6,8.1,0.6c3.8,0,7.5-0.2,11.3-0.3
		c0.5,0,1.1,0,1.5,0.3c0.3,0.2,0.4,0.8,0.4,1.2c0,0.1-0.6,0.4-0.9,0.4c-1.7,0-3.4-0.1-5.1-0.1c-4.1,0-8.3,0-12.4-0.1
		c-1.3,0-2.5-0.3-3.8-0.3c-2,0-4,0-6,0.2c-1.3,0.1-2.5,0.4-3.7,0.6c-0.2,0.1-0.5,0.4-0.6,0.7c-0.6,1.6-1.1,3.2-1.7,4.7
		c-0.6,0-1.1,0-1.7,0c1.9-4.7,3.7-9.3,5.7-14c2-4.6,4.1-9.2,6.1-13.8c-0.4-0.1-0.7-0.2-0.9-0.2c-1.3,0.1-2.4-0.3-3.3-1.3
		c-0.7-0.7-1.4-1.2-2.2-1.8c-1.7-1.4-3.5-2.8-5.2-4.3c-1.2-1.1-2.3-2.4-3.4-3.7c-2-2.2-3.8-4.4-4.3-7.7c-0.6,0.6-1.2,1.1-1.6,1.7
		c-0.4,0.5-0.8,1-1.2,1.6c-4,5.8-7.8,11.8-12.9,16.8c-3.6,3.5-6.5,7.9-9.7,11.9c-1.7,2.2-2.6,4.7-2.5,7.5c0,0.5-0.4,1-0.7,1.4
		c-0.1,0.2-0.6,0.2-0.8,0.1c-0.2-0.1-0.3-0.4-0.4-0.7c0-0.3,0.1-0.6,0.2-0.8c0.5-2.1,1-4.2,1.6-6.3c-1.1,0.5-1.9,1.3-2.8,2
		c-0.3,0.2-0.8,0.1-1.2,0.1c0.1-0.4,0.1-0.9,0.4-1.1c1.6-1.2,3.3-2.2,4.9-3.4c0.5-0.4,0.9-0.8,1.5-1.4c-2-0.6-3.6,1.9-5.6-0.1
		c1.3-0.4,2.3-0.8,3.3-1.1c2.7-0.7,5-1.8,6.7-4.1c1.5-2,3.2-3.9,4.9-5.8c0.8-0.9,1.8-1.5,2.5-2.4c3.2-4.4,6.3-8.8,9.4-13.2
		c0.6-0.9,1.3-1.7,2-2.5c1.4-1.4,2.3-3,2.1-5c-0.2-2.1-0.3-4.2-0.6-6.2c-0.5-3.2-1.2-6.4-1.9-9.6c-0.2-0.9-0.3-2.1-0.9-2.7
		c-2.4-2.6-5.1-4.8-8.6-6c-0.8-0.3-1.5-0.8-2.1-1.3c-0.4-0.3-0.5-0.9-0.8-1.3c0.1-0.1,0.2-0.2,0.3-0.3c3,1.6,6.1,3.2,9.2,4.9
		c-0.2-0.8-0.4-1.5-0.7-2.2c-1.2-3.2-2.4-6.4-3.6-9.6c-0.2-0.6-0.5-1.2,0.4-1.5c0.1,0.2,0.3,0.4,0.3,0.5c1.9,4.8,3.8,9.6,5.7,14.4
		c0.3,0.8,1.1,1.5,1.3,2.3c0.9,3.4,1.7,6.9,2.3,10.4c0.5,2.5,0.7,5.1,1,7.8c0.3-0.2,0.4-0.3,0.5-0.4c2.1-3.4,4.3-6.9,6.4-10.3
		c0.6-1,0.9-2.2,1.2-3.3c0.8-2.3,1.3-4.6,2.3-6.8c0.8-1.9,2.2-3.5,3.2-5.4c1-1.9,1.8-3.9,2.5-5.8c0.4-1.1,0-1.8-1.2-2.2
		c-1.1-0.4-2.3-1-3.2-1.7c-4.3-3.3-8.1-7-10.2-12.2c-1.5-3.6-3-7.2-4.4-10.9c-0.6-1.4-0.9-2.9-1.4-4.1c-1.5,0.6-2.9,1.3-4.4,1.7
		c-2,0.5-4.1,0.9-6.2,1.2c-3.2,0.5-6.4,1.2-8.8,3.5c-1,1-2.1,2.1-2.8,3.4c-1.2,2.2-2,4.5-3,6.7c-0.3,0.7-0.5,1.5-0.6,2.2
		c-0.9,7.9-1,15.8-0.5,23.7c0.3,4.7,0,9.4-0.1,14.1c-0.1,2.6-0.2,5.1-0.4,7.7c-0.3,4.3-0.7,8.7-1.1,13c-0.3,3.6-0.8,7.3-1,10.9
		c-0.2,3.9-0.1,7.7-1.5,11.6c-1.2,3.4-0.9,7.2,0,10.7c0.5,1.8,0.9,3.5,2.5,4.7C4,211.8,3.2,211.8,2.3,211.8z M83.6,79.7
		c-0.1,0.3-0.1,0.6-0.2,0.8c-1,1.3-1.1,2.4-0.4,3.9c0.1-0.3,0.2-0.5,0.2-0.8C83.4,82.4,84.3,81.1,83.6,79.7c-0.6-1.4-1.2-1.6-2-0.4
		c-1,1.3-1.8,2.8-2.4,4.3c-0.5,1.5-0.7,3.2-0.9,4.8c-0.4,3-0.3,5.9,0.1,8.9c0.3,2.7,0.6,5.5,0.3,8.2c-0.3,2.8-1.2,5.5-2,8.3
		c-2,6.8-2.5,13.8-3.5,20.8c-0.3,2.6,1,4.5,1.5,6.8c1.4-0.8,2.4,0,3.3,0.5c0.3,0.2,0.5,0.7,0.7,1.1c-0.4,0-0.9,0.1-1.3,0
		c-0.7-0.1-1.4-0.4-2.4-0.7c1,2.3,1.8,4.2,2.7,6.1c2.6,5.6,4.5,11.5,6.3,17.5c1,3.2,2.8,6.2,4,9.3c0.9,2.3,1.7,4.7,2.4,7.1
		c0.3,0.9-0.1,2,0.3,2.8c0.6,1.4,1.4,2.7,2.4,3.8c0.4,0.5,1.4,0.8,2,0.7c2.2-0.2,4-1.2,5.6-2.8c3.9-4,7.7-8.2,10-13.4
		c0.6-1.3,0.9-2.6,0.6-4c-0.2-0.8-0.6-1.5-1-2.2c-1.2-2.7-2.8-5.3-4.9-7.5c-1.7-1.8-3.5-3.7-5-5.7c-1.6-2.2-2.8-4.6-4.2-6.9
		c-1.1-1.8-2-3.7-2.3-5.9c-0.1-0.8-0.6-1.8-1.3-2.3c-2.4-1.9-2.9-4.3-2.5-7.1c0.2-1.4,0.5-2.7,0.6-4.1c0.5-6.4,1.9-12.6,3.5-18.8
		c0.3-1.2,0.7-2.5,0.9-3.8c0.4-2.6-1-4.7-2.2-6.8c-0.9-1.5-1.5-3.1-2.1-4.6c-0.5-1.3-0.8-2.7-1.3-4c-0.9-2.7-2.1-5.3-2.8-8
		c-0.8-3.1-1.1-6.2-1.6-9.4c-0.2-0.9-0.2-1.9-1.3-2.5c-0.7-0.4-1.3-1.5-1.3-2.3c-0.1-1,0.4-2,0.6-3.1c-0.5,0.2-1.4,0.4-1.6,0.8
		c-0.4,1.1-1,2.7-0.5,3.3c1.3,1.7,0.9,3.2,0.8,5c-0.1,1.5,0,3,0,4.5c1.9,0.2,2.7,1.1,2.7,2.9c0,0.7-0.2,1.4-0.3,2
		c-0.1,0.7-0.4,1.4-0.3,2c0.7,2.3,1.7,4.6,2.5,6.9c1.6,4.6,3.8,8.9,5.9,13.2c0.3,0.5,0.4,1.2,0.6,1.7c-0.2,0.1-0.3,0.1-0.5,0.2
		c-1-2.2-2.1-4.3-3.1-6.5c-1-2.2-2-4.4-2.9-6.7c-0.9-2.2-1.6-4.5-2.5-6.7c-0.2,0.3-0.2,0.5-0.2,0.8c0.5,3.5,1,6.9,1.5,10.4
		c0.4,2.8,0.5,5.6,1.9,8.1c0.2,0.4,0.2,0.9,0.3,1.4c-0.1,0-0.2,0.1-0.4,0.1c-1-1.6-1.7-3.4-2-5.3c-0.3-1.9-0.5-3.9-0.8-5.8
		c-0.9,0-1.5,0-2.2,0c0.1-0.4,0.2-0.5,0.4-0.5c2.4-0.1,1.8-0.7,1.6-2.2c-0.3-2.1-0.7-4.2-1.1-6.3c-0.1-0.6-0.4-1.1-0.6-1.7
		c-0.3-0.7-0.4-1.4-0.6-2.1C81.6,81.8,82.2,80.4,83.6,79.7z M124.8,133.1c0.1,0.1,0.3,0.2,0.4,0.3c1-1,2-2,3-3
		c0.7-0.7,1.4-1.3,2.2-1.9c0.3-0.2,0.7-0.1,1.1-0.1c-0.1,0.3-0.2,0.8-0.4,1c-1.9,1.8-3.8,3.4-5.7,5.2c-1,0.9-1.8,2-2.6,3.1
		c-1.5,2-2.7,4.2-4.3,6.1c-1.2,1.5-2,3.1-2.3,5c-0.3,2-0.4,4-0.9,5.9c-1,4.1-1.8,8.2-1.5,12.5c0,0.5,0,1.1,0.2,1.4
		c2.5,3.1,5.1,6.1,7.7,9c0.7,0.7,1.7,1.1,2.5,1.7c1.5,1,3.2,1.8,4.4,3.1c2,2.2,4.3,3.4,7.2,3.8c1.8,0.2,3.5,0.8,5.1,1.5
		c1.4,0.7,2.5,1.8,3.6,2.9c0.2,0.2,0,0.9,0,1.4c-0.4-0.1-0.8-0.2-1.1-0.4c-0.5-0.4-0.9-0.9-1.3-1.3c-2.1-1.6-4.4-2.6-7.5-2.6
		c4.5,5.8,9.4,11.1,11.1,18.3c1.9-1.4,3-3.3,2.9-6.1c-0.2-4.3-0.3-8.6-1-12.9c-0.8-4.5-1.1-9-1-13.6c0.1-1.9,0.2-3.8,0.3-5.7
		c0-4.9,0-9.8,0-14.6c-0.1-5.6-0.1-11.2-0.3-16.9c-0.2-5.3-0.7-10.6-1.2-15.9c-0.4-4.3-1.8-8.4-4.1-12.1c-1.1-1.8-2.6-3.5-4.5-4.5
		c-1.2-0.6-2.5-1.1-3.6-1.8c-3.5-2.1-7.1-2.4-11-1.8c-1.5,0.2-3,0.2-4.5,0.1c-1.8-0.2-3.7-0.6-5.6-1c-0.1,0.3-0.2,0.5-0.2,0.7
		c0,4.3-1.4,8.3-2.6,12.4c-0.8,2.5-2,4.8-3.8,6.8c-3.5,3.7-8,6-12.5,8.2c-0.4,0.2-0.9,0.7-1,1.2c-0.3,1.4-0.5,2.9-0.6,4.4
		c-0.1,1.6,0.3,3.2,1.6,4.2c1.4,1.1,2.1,2.5,2.4,4.1c0.2,1.1,0.4,2.2,0.9,3.2c1.2,2.3,2.4,4.6,3.8,6.7c1.1,1.6,2.2,3.3,3.6,4.6
		c2.6,2.6,5.2,5.2,6.9,8.4c0.4,0.7,0.9,1.4,1.5,2.3c0.2-2.2,0.3-4.1,0.6-5.9c0.5-3.1,1.2-6.1,1.8-9.1c0.3-1.7,0.4-3.4,1-5
		c1.1-2.9,3.1-5.3,4.9-7.8c1.2-1.7,2.7-3.5,3.1-5.5c0.9-4.1,3.2-7.5,5.1-11.1c0.2-0.3,0.6-0.4,0.9-0.6c0,0.4,0.1,0.9,0,1.2
		c-1,2-2,3.9-3,5.9C125.9,130.2,125.4,131.7,124.8,133.1z M93,89.8c0.1-0.1,0.3-0.3,0.4-0.4c1.4-2.4,2.8-4.8,4.3-7.2
		c2.4-3.8,3.3-8,3.4-12.4c0.1-3.4,0-6.7,0-10.1c0-2.7,0-5.5-0.3-8.2c-0.3-2.3-1.1-4.6-1.4-6.9c-0.5-3.3-0.7-6.6-1.3-9.8
		c-0.6-3.8-1.6-7.5-3.9-10.7c-1.7-2.3-3.4-4.6-6.3-5.6c-2.4-0.8-4.7-0.4-7.1-0.3c-2.4,0.1-4.5,0.9-6.2,2.7c-0.7,0.8-1.6,1.4-2.5,2
		c-1.3,0.9-2.7,0.8-3.8-0.3c-0.6-0.6-1.2-1.2-1.8-1.8c-1.7-1.5-3.4-3-5.9-2.9c-4.4,0-8.3,1.9-11.8,4.4c-1.3,1-2.4,2.2-2.6,4
		c-0.2,1-0.6,1.9-0.8,2.8c-0.4,1.5-0.8,2.9-0.9,4.4c-0.2,2.7-0.2,5.5-0.3,8.2c-0.1,4.7-0.6,9.5,0.5,14.2c0.9,3.9,1.7,7.9,2.6,11.8
		c0.6,2.6,1,5.4,2,7.8c1.5,3.4,3.4,6.6,5.2,9.8c0.7,1.3,1.7,2.5,2.8,4.1c0.4-1.1,0.7-1.8,0.9-2.6c0.9-3.7,2.4-7,5.1-9.7
		c0.8-0.8,1-1.5,0.7-2.5c-0.6-1.5-1.2-3-1.9-4.5c-0.7-1.4-0.4-1.9,1.2-2c1.3-0.1,2.5-0.3,3.5-0.4c0.6-1.9,1.1-3.4,1.5-5
		c0.2-0.5,0.4-1,0.4-1.5c0.1-3.8,0.1-7.6-1.5-11.2c-0.1-0.2,0-0.4,0-0.7c0.1,0,0.2,0,0.4-0.1c0.3,0.7,0.6,1.4,0.9,2.1
		c1.2,3.1,1.1,6.3,1,9.4c0,0.8-0.3,1.6-0.5,2.4c-0.3,1.2-0.7,2.4-1,3.6c-0.1,0.2,0.3,0.5,0.4,0.8c0.2-0.3,0.5-0.5,0.6-0.8
		c0.1-0.7,0-1.4,0.1-2.1c0-0.3,0.1-0.8,0.3-1c1-0.6,2.3-1.1,3.4-0.4c1.2,0.8,2.3,1.1,3.6,0.3c0.1-0.1,0.2,0,0.4,0
		c1.1-0.1,2.2-0.2,3-0.3c-1-1.9-2.1-3.8-2.8-5.8C76,55.3,76.4,53,77,50.8c0.2,0.5,0.4,0.9,0.3,1.4c-0.2,2.1-0.5,4.3,0.6,6.2
		c0.7,1.2,1.6,2.3,2.3,3.6c0.7,1.4,1.7,1.6,3.1,1.6c0.6,0,1.7,0.5,1.8,0.9c0.2,1.5,1.3,1.5,2.3,1.8c0.7,0.2,1.5,0.4,2.2,0.8
		c0.5,0.3,1,1,0.9,1.5c-0.1,1.1-0.4,2.2-0.9,3.2c-1.4,2.8-1.3,5.6,0.4,8.2C91.8,83,92.8,86.1,93,89.8z M67.5,107.9
		c-0.1,0-0.2,0-0.3,0c-0.1-0.1-0.3-0.3-0.3-0.4c0.1-1.7-0.1-3.4,0.4-5c0.9-2.7,2.3-5.2,3.3-7.8c1.3-3.2,3.6-5.9,3.8-9.5
		c0.1-1.9,1.3-3.7,1.4-5.6c0.2-3,0-6-0.1-9c0-0.7-0.6-1.4-1-2c-0.1-0.2-0.5-0.2-0.8-0.3c-0.1,0.3-0.2,0.5-0.2,0.8
		c0,0.9,0.2,1.7,0.2,2.5c0,1-0.3,2-1.4,2.2c-1.2,0.3-1.4,1.1-1.5,2.1c-0.4,2.5-0.8,5-2,7.3c-0.7,1.4-1.1,2.9-1.8,4.3
		C67,88,67,88.4,67.7,88.6c0.2,0.1,0.4,0.3,0.8,0.6c-0.8,0-1.3,0-1.7,0c-2.7,6.2-5.4,12.4-8.1,18.6c-0.4-1.3-0.1-2.5,0.5-3.6
		c0.6-0.9,1.1-1.9,1.6-2.9c1.1-2.5,2-4.9,3-7.4c0.6-1.4,1.2-2.8,1.7-4.3c0.5-1.2,0.8-2.5,1.3-3.8c0.8-2.1,2-4.1,2.5-6.2
		c0.7-2.6,0.9-5.3,1.2-8c0.2-1.7,0.1-1.7-1.5-2.3c-2.4,4.9-2.7,10.6-5.8,15.2c0.6,0.3,1.1,0.6,1.6,0.9c-2.4,0.1-1.9-0.2-2.8,1.9
		c-0.8,1.9-1.5,3.8-2.2,5.7c-0.7,2.1-1.5,4.1-3.1,5.8c-1.7,1.8-2.3,3.9-1.7,6.3c0.1,0.4-0.1,0.9-0.1,1.4c-0.3-0.1-0.4-0.2-0.4-0.2
		c-0.1-0.1-0.2-0.3-0.2-0.4c-0.3-2.3-0.5-4.6,1.2-6.7c1.4-1.7,2.6-3.5,3.4-5.6c1.5-4,3.4-7.9,5-11.9c0.8-2,1.5-4.2,2.3-6.3
		c-3.2,1.8-5.1,4.5-6.3,7.7c0.3,0.2,0.5,0.4,0.8,0.7c0.1,0.1,0.1,0.2,0.2,0.4c-1.2-0.4-1.6,0.1-1.8,1c-0.5,1.9-1.1,3.7-1.9,5.5
		c-0.9,2.3-1.7,4.6-3,6.7c-1.3,2.1-1.4,4.1-1,6.3c0.3,1.8,1,3.5,1,5.3c0.1,5.9,0.1,11.7,0.1,17.6c0,0.9-0.1,1.9-0.5,2.7
		c-0.9,2.1-1.8,4.1-3,6c-2,3.2-3.7,6.4-4.5,10.1c-1,4.8-4,8.5-6.5,12.6c-1,1.7-2,3.4-3,5.1c-0.2,0.3-0.2,0.6-0.2,0.9
		c-0.2,2.1,0.6,3.8,1.8,5.3c1.7,2.1,3.5,4.3,5.5,6.1c2.6,2.4,5.5,4.4,8.4,6.6c0.8,0.6,1.8,0.2,2.2-0.5c1.3-2.7,2.4-5.6,3.1-8.6
		c1.3-5.2,2.5-10.4,4.6-15.4c1.6-4,2.8-8.3,4.2-12.4c0.3-0.8,1.1-1.8,0.9-2.4c-0.2-0.6-1.5-0.7-2.3-1.1c-0.3-0.1-0.4-0.5-0.5-0.8
		c0.3-0.2,0.7-0.5,1-0.5c0.7,0.1,1.4,0.3,2.1,0.7c0.7,0.4,1.1,0.1,1.6-0.4c2.3-2.1,3.1-4.8,3.3-7.8c0.2-3.2,0.7-6.4,1.1-9.6
		c0.3-2.6,0.8-5.1,0.9-7.7c0.2-2.9,0-5.8,0.1-8.7c0-0.9,0.2-1.8,0.4-2.7c0.5-1.7,1-3.3,1.5-4.9c0.2-0.8,0.4-1.6,0.6-2.4
		c0.2-0.7,0.4-1.4,0.5-2.1c0.1-2.5,0.1-5,0.3-7.4c0.1-1.1,0.3-2.3,0.5-3.3c-1,0.5-2,1-3.1,1.5c0.2,1.8-0.6,3.3-1.5,4.8
		c-1,1.8-1.8,3.7-2.6,5.5c0.7,0.4,1.3,0.8,2,1.2c-0.1,0.1-0.1,0.2-0.2,0.4c-0.4-0.1-0.9-0.3-1.3-0.4c-0.6-0.2-1-0.2-1.3,0.5
		c-1.4,2.6-2.5,5.2-2.2,8.3C67.9,106.5,67.6,107.2,67.5,107.9z M96,87.7c-0.7,1-1.2,2-2,2.8c-2,2.1-1.7,4.3-0.6,6.6
		c0.4,0.8,1,1.4,1.4,2.1c1.2,2.1,1.8,4.3,1.3,6.7c-0.7,3.4-1.6,6.7-2.3,10.1c-0.4,1.8-0.6,3.7-0.8,5.6c0.3-0.1,0.6-0.2,0.8-0.3
		c3.4-1.5,5.8-4.1,8-6.9c1.1-1.4,1.8-3.2,2.4-4.9c1.2-3.2,2.1-6.5,2.1-10c0-1.2-0.5-1.9-1.8-2.2c-1.5-0.3-3.2-0.6-4.2-1.6
		C98.2,93.6,96.6,91,96,87.7z M53.7,87.2c-0.1,0.5-0.3,0.7-0.2,0.9c0.3,2.5-1,4.1-2.9,5.4c-0.4,0.3-0.8,0.8-1.3,0.9
		c-1.5,0.2-2.9,0.3-4.4,0.3c-1.6,0.1-3.2,0.1-4.8,0.2c-0.6,0-1.1,0.2-0.8,1c0.9,2.5,1.5,5.1,2.6,7.5c1.7,3.4,3.5,6.8,5.6,9.9
		c1.4,2.1,3.4,3.8,5.4,6c0.1-0.8,0.1-1.2,0.1-1.6c0-2.1,0-4.2,0.1-6.3c0.1-2.1-0.2-4.2-0.7-6.3c-0.6-2.6-0.4-5.1,1-7.6
		c1.1-1.9,1.8-4.1,2.7-6.2c0.1-0.3,0.1-0.8,0-1C55.3,89.3,54.6,88.4,53.7,87.2z M52.9,125c0-1.2,0.1-2,0-2.8
		c-0.1-0.7-0.4-1.4-0.9-1.9c-1.5-1.6-3.5-2.9-4.7-4.7c-2.4-3.4-4.6-7-6.5-10.7c-1.3-2.6-2-5.5-3.1-8.3c-0.2-0.4-0.6-1.1-0.9-1.1
		c-1,0-2.1,0.2-3.2,0.3c0.9,3.2,1.8,6.1,2.7,9c0.3,1,0.7,2,1.2,2.9c1.2,2.4,2.3,4.8,3.7,7.1c2,3.2,4.8,5.7,7.8,8
		C50.1,123.7,51.4,124.2,52.9,125z M108.7,98.9c-0.7,3-1.3,5.9-2.1,8.6c-1.1,3.4-2.1,6.6-4.7,9.4c-2.5,2.7-5.2,5-8.3,6.7
		c-1.4,0.8-1,1.7-1.4,3c0.8-0.3,1.3-0.4,1.8-0.7c2.2-1.2,4.5-2.3,6.5-3.7c3.3-2.2,6.1-4.9,7.5-8.8c0.5-1.5,1.1-3.1,1.4-4.7
		c0.6-2.8,1.1-5.7,1.5-8.6c0-0.3-0.2-0.8-0.4-0.9C109.9,99,109.1,99,108.7,98.9z M80.3,79.9c0.2-0.6,0.7-1.4,0.8-2.3
		c0.2-1.2,0-2.5,0-3.8c0-1.1,0.2-2.3,0.3-3.4c0.1-0.9-0.4-1.3-1.4-1.3c-1.6,0.1-3,1.3-3.1,3c-0.1,2.3,0,4.6,0,6.6
		C78,79.3,79,79.5,80.3,79.9z M91.7,92.2c0.1-0.6,0.2-1.2,0.2-1.8c-0.1-2.4,0.1-4.9-1.1-7.2c-1.3-2.4-2.4-4.9-3.5-7.4
		c-0.1-0.3-0.3-0.5-0.6-1C87.3,81.2,89.1,86.7,91.7,92.2z M80.3,68c0.1-0.8,0.3-1.9,0.4-3c0-0.3-0.3-0.9-0.5-0.9
		c-1.8-0.1-3.7-0.2-5.6,1c0.7,1.8,1.4,3.5,2,5C77.8,69.4,78.9,68.8,80.3,68z M68.4,68.2c-2.2,0.3-4.1,0.5-6,0.7
		c0.9,2.1,1.7,4.2,2.6,6.4C67.1,73.6,68,71.2,68.4,68.2z M87.6,74.8c0.6-1.6,1.3-3.3,1.9-5c0.5-1.5,0.3-1.9-1.1-2.4
		c-1-0.3-2-0.6-3-0.8C85.1,69.2,86.1,72.8,87.6,74.8z M102.1,59.5c2.2-0.9,4.1-7.9,3-10.8C101.5,51.5,102,55.5,102.1,59.5z
		 M77.9,98.9c-0.1,0-0.3,0-0.4,0c-1.4,4.3-3,8.5-1.7,13.2c0.7-2.4,1.7-4.7,2.1-7.1C78.2,103,77.9,100.9,77.9,98.9z M45.4,64.8
		c-1.1-2.9-0.9-6.2-2.6-9.1c-0.1,0.5-0.3,0.8-0.3,1.1c-0.2,2.1-0.4,4.2,0.2,6.3C43.2,64.7,44.2,65.3,45.4,64.8z M46.9,71.8
		c-0.4-1.9-0.8-3.8-1.2-5.5c-0.9,0-1.7,0-2.4,0C43,69.3,44.8,72.2,46.9,71.8z M102.2,68.2c2,0.2,2.7-1.9,2.2-5c-0.7,0-1.5,0-2.2,0
		C102.2,64.8,102.2,66.5,102.2,68.2z M39.5,51.8C39,54.1,40.3,56,41.1,58c0.2-0.5,0.2-1.1,0.3-1.6c0.1-0.6,0.3-1.1,0.4-1.7
		C42.1,53.7,40.9,52,39.5,51.8z M106.5,49.9c0.8-1.1,0.4-4.2-0.4-4.8c-0.2-0.1-0.4-0.2-0.6-0.1c-0.7,0.2-1.6,0.3-1.9,0.8
		c-0.3,0.5-0.1,1.4-0.1,2.4c0.5-0.4,0.7-0.6,0.9-0.7c0.4-0.2,0.9-0.5,1.3-0.4c0.3,0.1,0.5,0.7,0.6,1.1
		C106.4,48.7,106.4,49.2,106.5,49.9z M69.8,64.7c-0.1,1-0.1,1.9-0.3,2.7c-0.2,0.8-0.1,1.3,0.7,1.5c0.9,0.2,1.4-0.3,1.6-1.1
		C72.2,66.2,71.8,65.6,69.8,64.7z M71.6,73.1c1.8-0.2,2.3-2.1,1.2-4.5C71.3,69.3,71.1,70.2,71.6,73.1z M70.3,63.9
		c1.5,1,2.8,1.9,2.4,3.9c0.7-0.3,1.2-0.5,1.7-0.7C74.1,64.6,73,63.7,70.3,63.9z M102,60.6c0.8,1.8,1.3,2,2.4,0.6
		c0.7-0.8,0.8-2,1.2-3.1c0-0.1-0.2-0.3-0.4-0.5C104.3,58.9,104.1,60.8,102,60.6z M75.3,84.4c1.2,0.1,2.6-0.7,2.6-1.5
		c0.1-1-0.5-1.7-1.7-1.7C75.9,82.2,75.6,83.3,75.3,84.4z M84.4,69.1c0-1.5,0-2.9,0-4.5C82.7,66.3,82.7,67.7,84.4,69.1z M41.8,51.6
		c0.1,0,0.2-0.1,0.4-0.1c-0.2-0.8-0.4-1.7-0.8-2.5c-0.4-0.9-1-0.7-1.5,0c-0.2,0.3-0.3,0.7-0.4,1C40.4,50.6,41.1,51.1,41.8,51.6z
		 M79.1,81.5c0,0.2,0,0.3,0,0.5c-0.1-0.6,0-1.4-0.4-1.7c-0.4-0.3-1.2-0.2-1.8-0.2c0.2-0.1,0.4-0.2,0.7-0.3
		C78.1,80.3,78.6,80.9,79.1,81.5z M57.6,179.4c-0.2-0.1-0.3-0.1-0.5-0.2c-0.4,0.9-0.8,1.9-1.1,2.8c0.2,0.1,0.4,0.1,0.5,0.2
		C56.9,181.3,57.2,180.4,57.6,179.4z"/>
	<path class="st0" d="M59.5,56.1c-2.8-0.1-4.8-0.8-6.6-2c-0.8-0.6-0.8-1,0.1-1.4c1.6-0.8,3.2-1.8,4.9-2.2c2.5-0.7,4.9-0.1,7,1.4
		c0.8,0.5,1.3,1.5,1.8,2.3c0.1,0.1-0.2,0.7-0.3,0.7C63.9,55.3,61.4,55.8,59.5,56.1z M61.5,51.1c0.5,2.5-0.1,3.7-1.9,4.2
		c1.9-0.4,3.8-0.8,5.8-1.3C64.9,52,63.1,51.8,61.5,51.1z M56.2,52.3c-0.6,0.3-1.3,0.8-2.3,1.5c1.6,0.6,2.9,1.1,4.1,1.5
		C57.4,54.3,56.9,53.4,56.2,52.3z"/>
	<path class="st0" d="M92.2,51.3c-0.6,0.2-1.1,0.3-1.7,0.6c-2.5,1-5.1,1.4-7.7,1.3c-1.1,0-2.3,0-3.4,0c-0.3,0-0.7-0.2-0.9-0.4
		c-0.1-0.1,0.1-0.7,0.3-0.8c2.5-1.9,5.2-3.7,8.5-3.3c1.7,0.2,3.3,1.4,4.9,2.1C92.2,51,92.2,51.1,92.2,51.3z M80.3,51.9
		c0,0.1,0.1,0.3,0.1,0.4c1.1,0,2.2,0,3.3,0c-0.2-0.6-0.4-1.2-0.6-1.9C82.2,50.8,81.3,51.3,80.3,51.9z"/>
	<path class="st0" d="M54.8,44.1c1.7-0.1,3.4-0.4,5-0.2c1.6,0.2,3.2,0.8,4.7,1.3c0.3,0.1,0.4,0.8,0.5,1.2c-0.3,0.1-0.8,0.4-1,0.3
		c-3.2-1.4-6.4-0.7-9.7-0.2c-1.6,0.2-3.1,0.9-4.6,1.2c-0.6,0.1-1.3,0.6-1.7-0.3c-0.3-0.8,0.4-1.1,1-1.4c1.6-0.6,3.2-1.3,4.8-2
		c0.3-0.1,0.5-0.1,0.8-0.2C54.8,44,54.8,44,54.8,44.1z"/>
	<path class="st0" d="M88.3,41.5c2.3,0.2,4.3,0.2,5.9,1.6c0.4,0.3,0.5,0.9,0.7,1.4c-0.5,0-1.1,0.2-1.5,0c-2.8-1.3-5.6-1.3-8.5-0.3
		c-1.9,0.6-3.8,1.3-5.8,1.9c-0.4,0.1-0.9,0-1.3-0.1c0.2-0.4,0.3-1,0.7-1.2c2.2-1.7,4.8-2.5,7.6-2.9C86.9,41.8,87.8,41.6,88.3,41.5z"
		/>
</g>
</svg>
