<?xml version="1.0" encoding="utf-8"?>
<!-- Generator: Adobe Illustrator 19.1.0, SVG Export Plug-In . SVG Version: 6.00 Build 0)  -->
<svg version="1.1" id="Layer_1" xmlns="http://www.w3.org/2000/svg" xmlns:xlink="http://www.w3.org/1999/xlink" x="0px" y="0px"
	 viewBox="-419 186.8 120 189.2" style="enable-background:new -419 186.8 120 189.2;" xml:space="preserve">
<style type="text/css">
	.st0{fill:#03A9F4;}
</style>
<g id="cold-lady-landing">
	<path class="st0" d="M-299.6,326.9c-1.2-1.9-3.3-2.9-5-4.4c-5.9-5.4-4.1-14.8-3.4-22.8c0.7-7.6,0-15.3-2-22.6
		c-1.1-3.7-2.5-7.4-5.3-10.1c-1.8-1.7-3.9-2.9-6-4c-8.7-4.7-17.7-8.9-26.8-12.5c2.1-2,2.2-5.4,2.2-8.3c0-3.4-0.1-6.8-0.1-10.2
		c-0.1-6.6-0.2-13.4-2.8-19.4c-1.8-4.1-4.6-7.6-7.4-11c-5.8-7-12.9-14.3-22-14.8c-5.9-0.3-11.5,2.3-16.1,5.6
		c-2.4,1.7-4.6,3.4-6.5,5.6c-1.5,1.8-2.8,3.8-3.8,5.8c-0.3,0.2-0.6,0.4-0.8,0.7c-2.9,4.2-3.7,9.8-3.3,15.4c-0.2,1.2-0.3,2.5-0.4,3.7
		c-0.9,8.2-1.2,17.8,5.2,22.9c2.1,1.6,2.5,4.7,1.8,7.3c-0.7,2.6-2.2,4.8-3.4,7.2c-4.7,9.4-3.9,20.7-6.9,30.9
		c-2.2,7.2-6.3,14-6.4,21.5c-0.1,3.6,0.8,7.2,1.7,10.7c1,3.9,2.7,8.6,6.7,9.4c3.2,0.6,6.2-1.7,8.2-4.3c2-2.6,3.6-5.6,6.3-7.4
		c-1.1,3.2-0.9,6.8,0.6,9.8h-2.3c0,4.6-2.5,8.7-4.8,12.6c-5.2,9.2-9.4,19.3-9.5,29.9c0,1,0.6,2.3,1.4,1.8
		c0.5-12.1,4.4-24.1,11.2-34.2c1.7-2.6,3.7-5.6,2.8-8.6c3.5-1.8,7.5-2.8,11.4-2.8c4.5,0,8.9,1.1,13.4,1.7c6.1,0.8,12.2,0.5,18.2-0.7
		c3-0.6,7.3-1,8.3,2c0.9,2.5,3.8,4.1,6.4,3.7c-12.7,3.6-26.3,2-39.5,0.4c-4.8-0.6-9.7-1.1-14.6-1.7c19,5.6,39.5,6.2,58.9,1.8
		c0.3,0.8,0.6,1.5,0.9,2.3c-2.3,1.8-2.8,5.5-1.1,7.9c-11.9,4.6-24.2,8-36.7,10.1c13.1-0.5,26-3.6,37.8-9.2
		c0.3,7.6,1.6,15.1,3.8,22.4c0.5,1.7,1.2,3.4,2.5,4.6c-1.6-7.4-3.1-14.8-4.7-22.2c-0.4-1.6-0.7-3.1-1-4.7c-0.5-2.7-1.1-5.6,0.1-8.1
		c-0.3,2.7,2.1,5.3,4.7,5.2c2.6-0.1,4.9-2.9,4.4-5.5c7.7,2.3,14-7.7,22-8.1C-299.1,332.1-298.4,328.8-299.6,326.9z M-329.7,260.8
		c1-0.5,2.1,0.1,3,0.6l6.6,3.9c1.4,0.7,2.7,1.5,3.8,2.6c1.7,1.7,2.8,4,3.5,6.2c2.9,7.6,4.1,15.7,3.6,23.8c-0.4,6.7-1.9,13.5-0.4,20
		c-0.9-1.7-2.9-2.8-4.8-3c-1.9-0.2-3.9,0.2-5.7,0.9c-3.2,1.2-6.2,2.9-8.7,5.2c-0.4-0.9,0.2-2,1.1-2.5c0.8-0.5,1.9-0.7,2.7-1.3
		c0.9-0.6,1.4-1.8,0.8-2.6c-0.9-1.2-1-2.8-1.4-4.2c-0.4-1.4-1.3-2.9-2.8-3c-1.1-0.1-1.4-1.6-1.4-2.7c0.1-5.7,0.5-11.3,1.4-16.9
		c0.1-0.4-0.5-0.6-0.9-0.4c-0.3,0.2-0.4,0.7-0.5,1.1c-0.4,2.4-0.6,4.9-0.6,7.4c-3.5-5.7-5.1-12.6-4.4-19.3c0.2-1.8,0.5-3.5,0.9-5.3
		c0.6-3.3,1.4-6.6,3.2-9.4C-330.5,261.4-330.2,261-329.7,260.8z M-332.3,258.5c0.8-0.1,1.6,0.2,1.9,0.9c-2.9,2.2-3.8,6-4.6,9.5
		c-1.1,5.1-2.1,10.3-1.3,15.5c0.7,4.5,2.6,8.6,4.6,12.6c1,2,0.6,4.5,0.2,6.7c-2.7-2.3-4.9-5.5-6.1-8.9c-0.6-1.5-0.9-3-1.3-4.6
		c-0.7-3.4-1.4-6.8-1.4-10.3c0-4.4,1.2-8.7,2.4-13c0.3-1.2,0.6-2.3,1.1-3.4c0.7-1.4,1.5-2.7,2.6-3.8
		C-333.7,259.2-333,258.7-332.3,258.5z M-355.5,226.5c0.2-0.2,0.4-0.3,0.6-0.2c0.1,0.1,0.2,0.1,0.2,0.2c0.4,0.7,0.5,1.6,0.2,2.4
		c-0.1,0.1-0.1,0.3-0.2,0.4c-0.3,0.3-0.6,0.5-0.9,0.9c-0.2,0.1-0.4,0.2-0.7,0.3C-356.5,229.1-356.5,227.4-355.5,226.5z
		 M-357.2,252.2c-0.3,0.6-0.3,1.1-0.2,1.6c-0.2,0.8-0.4,1.7-0.5,2.6c1.3,1,3.1-0.1,4.4-1.1c1.5-1.3,3.1-2.5,4.6-3.7
		c4.8,2.1,9.4,4.5,13.8,7.3l-3,3.9c-0.3,0.4-0.6,0.9-1.1,1.1c-4.4,2.2-8.6,4.5-12.8,7c-0.2,0.3,0.1,0.7,0.5,0.8c0.3,0,0.7-0.1,1-0.3
		c3.9-2.2,7.9-4.3,11.8-6.4c-1.1,4-2.3,7.9-2.7,12c-0.1,0.8-0.2,1.7-0.5,2.5c-0.3,0.8-0.9,1.5-1.5,2.2c-2.8,3.2-5.6,6.4-9.2,8.7
		c-1.6,0.9-3.2,1.7-4.9,2.5c-1.8,0.9-3.7,1.7-5.7,2c-2.7,0.4-5.4-0.4-8-1.1c-2.6-0.8-5.2-1.5-7.3-3.2c-3.1-2.5-4.5-6.5-5.8-10.2
		c-0.2-0.5-0.4-1-0.3-1.5c0-0.4,0.2-0.7,0.4-1.1c1.4-2.4,4.2-3.5,6-5.6c0.7-0.9,1.2-1.8,1.7-2.8c1.4-2.8,2.6-5.6,3.5-8.5
		c2.5-1.9,5.3-3.3,8.2-4.3c0.6-0.2,1.4-0.5,1.4-1.2c0.1-1.9,0.9-3.7,2.2-5.1c1.1,0.3,2.3,0.1,3.2-0.6c0.3-0.1,0.6,0.1,0.8,0.3
		C-357.2,250.8-357.2,251.5-357.2,252.2z M-341.3,287.5c-0.1,0.3-0.3,0.5-0.6,0.8c-5.9,5.7-13.3,10.5-21.6,11
		c-3.7,0.2-7.4-0.5-11-1.4c-1.5-0.4-2.9-0.8-4.3-1.5c-2.8-1.4-4.8-4.1-6.7-6.6c-0.6-0.8-1.2-1.7-1-2.7c0.3-1.8,0.7-3.7,0.9-5.5
		c1.4,4.1,3.2,8.4,6.7,10.8c1.4,1,3.1,1.6,4.7,2.2c2.1,0.7,4.3,1.5,6.5,1.7c2.8,0.2,5.6-0.3,8.2-1.2c6.9-2.3,13-6.9,17.1-12.9
		c0.4,1.4,0.7,2.8,1,4.2C-341.3,286.8-341.2,287.1-341.3,287.5z M-380,240.7c-1.1,0.1-2,1-2.7,1.9c-1.7,2-3.4,4-5.1,6
		c0.2-2,0.3-4.1,0.4-6.1c0-0.2,0-0.4,0.1-0.6c0.2-0.4,0.6-0.5,1-0.6c1.1-0.3,2.1-0.6,3.2-0.9c1.4-0.4,2.8-0.7,4.2-0.4
		c0.9,0.2,1.6,0.7,2.4,1.2c3.8,2.4,7.2,5.4,10.2,8.7c0.7,0.8,1.4,1.6,1.7,2.6c0.3,1,0.1,2.2-0.8,2.8c-1,0.7-2.4,0.2-3.5-0.3
		c-1.5-0.6-3-1.3-4.5-1.9c-0.9-2.3-1.5-4.8-1.6-7.3c0-0.6,0-1.1-0.4-1.7c-0.5-1.1-1.8-1.7-2.9-1.3
		C-377.7,241.8-378.9,240.6-380,240.7z M-396.6,249.1c-0.1-0.1-0.1-0.3-0.2-0.4c-0.1-1.3-0.1-2.6,0.5-3.8c1.9-0.5,3.9,1,5.8,0.6
		c0.3-0.1,0.6-0.2,0.8-0.4c0.4-0.4,0.3-1.2,0.6-1.8c0.1-0.3,0.4-0.5,0.7-0.6c-0.1,2.2-0.4,4.3-0.9,6.4c-0.1,0.5-0.5,0.9-0.8,1.2
		c-0.7,0.7-1.5,1.3-2.3,1.8c-0.8,0.5-1.5,1.3-1.9,2.2c-0.5-0.9-1.4-1.5-1.9-2.3c-0.2-0.3-0.3-0.7-0.4-1.1
		C-396.3,250.4-396.3,249.7-396.6,249.1z M-390.7,233.8c-0.3,0-0.6,0.2-0.9,0.3c-1.2,0.5-2.6,1.2-3,2.5c-0.2-1.5-0.7-2.9-1.4-4.2
		c1.1-0.9,2.4-1.6,3.8-1.8c0.4,0,0.7-0.1,1.1,0c0.4,0,0.8,0.3,1.1,0.5c0.8,0.6,1.7,1.1,2.4,1.8
		C-388.4,233.6-389.7,233.5-390.7,233.8z M-388.7,235.1c-0.3,0.4-0.6,0.7-1,1c-0.1-0.4-0.3-0.8-0.4-1.2c0.6,0.1,1.1,0,1.6-0.3
		C-388.3,234.8-388.5,235.1-388.7,235.1z M-391.9,236.9c-0.3,0.1-0.7,0.1-1-0.1c-0.1-0.1-0.1-0.4,0-0.3c0.2-0.3,0.4-0.6,0.5-0.9
		c0.2,0,0.3,0,0.4,0.1C-392,236.1-391.9,236.5-391.9,236.9z M-388.7,240.9c-1,0.7-1.7,1.9-1.9,3.1c-0.4-0.2-0.7-0.6-0.9-1
		c-0.4-0.7-0.8-1.3-1.2-2c-0.5-0.9-1-1.8-1.4-2.7c-0.3-0.5-0.5-1.1-0.3-1.6c0.2,0.5,0.5,0.9,0.9,1.3c1.8,0.5,4,0,5.3-1.4
		c0.3-0.3,0.6-0.7,0.7-1.1c0.2-0.5,0.1-1.1,0.6-1.4c0.1,0.1,0.2,0.1,0.3,0.2c0,1.1,0.1,2.3,0.1,3.4c0,0.7,0,1.4,0.4,1.9
		c-0.4,0.2-0.7,0.3-1.1,0.5C-387.7,240.3-388.2,240.6-388.7,240.9z M-372.3,254.6c1,1,2.4,1.6,3.8,1.8c-0.4,0.4-0.9,0.8-1.4,1.1
		c-0.9,0.6-1.9,1.1-2.9,1.5C-372.2,257.6-372.3,256.1-372.3,254.6z M-393.6,201.1C-393.6,201.1-393.6,201.1-393.6,201.1
		c0,0,0-0.1,0-0.1c0.5-0.1,1.5-0.2,2.6-0.2c-0.1,0.4-0.2,0.9-0.3,1.5c-0.6,3.5-0.4,6.9-1.3,10.4c-0.1,0.4,0,0.7,0.3,1
		c-1.2,0-2.5,0.2-3.7,0.7C-394.7,210-393.9,205.6-393.6,201.1z M-398.3,219.2c0.4-1.8,2-3.2,3.8-3.7s3.7-0.4,5.5-0.1
		c6.1,0.9,12,2.6,17.6,5c1,0.5,2,1,2.9,1.6c4.1,3,5.1,9,9.4,11.7c1.7,1.2,1.5,3.8,0.9,5.8c-1.2,4.2-3,8.3-5.3,12
		c-2.6-4.6-7-7.7-11.2-10.8c-1.1-0.8-2.3-1.7-3.6-2.1c-1.4-0.4-2.9-0.4-4.1,0.4c-0.6,0.4-1.4,0.7-2.2,0.7c-0.6-1.3-0.4-2.8-0.6-4.2
		c-0.4-3.1-2.9-5.8-5.9-6.5c-2.1-0.5-4.6,0-5.7,1.8C-398.5,227.2-398.9,223.1-398.3,219.2z M-405.8,330.5c-0.8,0.8-1.7,1.7-2.9,1.9
		c-1.6,0.3-3-1-4.1-2.1c-1.7-1.6-3.5-3.7-3.1-6c0.5-2.8-1.5-5.5-2-8.3c-0.4-2.1,0.1-4.1,0.6-6.1c1-4.1,2-8.2,3.9-11.9
		c3.5-6.8,4-14.6,5-22.1c1.1-7.5,2.8-15.4,7.9-21c0.1,1.1,0.5,2.1,1,3c2,3.6,2.3,8.1,0.8,11.9c-4.4,11-8.8,22-13.1,33
		c0.7,0.4,1.5-0.4,1.8-1.2c3.4-7.3,6.3-14.8,8.9-22.5c0.8-2.7,1.7-5.4,3.4-7.7c1.1-1.5,1.1-3.5,1.4-5.1c0.2-3.9,1.1-7.8,3.5-10.9
		c0.9-1.2,2-2.3,3.1-3.3c3.6-3.4,7.1-6.7,10.7-10.1c-2.3,5.1-5.2,10-8.6,14.5c-0.3,0.5,0.3,1.1,0.8,1c0.5-0.1,0.9-0.6,1.2-1
		c1.9-2.7,3.6-5.6,5.1-8.6c0.9-1.9,2.5-4.1,4.4-3.4c-0.4,4.5-2.1,9-4.8,12.6c-1,1.3-2.2,2.6-2.6,4.2c0.7,0.3,1.5-0.3,2-0.9
		c2.8-3.2,4.7-7.1,5.6-11.2c1.7,2.4,0.8,5.8-0.6,8.4c-1.4,2.6-3.4,5.1-3.8,8c0.5,0.5,1.2-0.2,1.5-0.8c1.7-3.5,3.5-7,5.3-10.4
		c0,8.1-3.9,16.1-10.2,21.2c-1.1,0.9-2.8,1.7-3.9,0.8c-0.4,0.1-0.2,0.7,0.1,0.9c0.3,0.2,0.8,0.2,1.1,0.4c0.6,0.4,0.5,1.4,0.3,2.1
		c-2.4,9.2-4.7,18.4-7,27.6c-1.1,4.3-2.2,8.6-4.3,12.5C-399.6,323.8-402.7,327.2-405.8,330.5z M-346.3,329.3
		c-5.6,0.8-11.3,1.4-17.1,1.9c-1.5,0.1-3.1,0.2-4.6,0.1c-7-0.3-13.9-3.2-20.7-1.8c-1.1,0.3-2.3,0.6-3.4,0.7c-1.2,0-2.4-0.2-3.2-1.1
		c-0.8-0.9-0.9-2.4,0-3.1c0.9-0.7,1-2,0.7-3.1c-0.3-1.1-1.1-2-1.8-2.8c2.3-3,3.2-6.7,4.1-10.4c0.9-4.1,1.9-8.1,2.8-12.1
		c0.6-2.7,1.2-5.4,2.3-7.9c1.2,2.7,2.8,5.2,5.2,6.9c0.8,0.5,1.8,1,2.7,1.4c6.5,2.8,14,3.5,20.9,1.8c6.9-1.7,13.2-5.6,17.7-11.1
		c0.4,6.1,3.2,12,7.7,16c0.9,0.8,1.9,1.6,2.1,2.8c-3-0.9-6.6,0.7-7.9,3.6c-0.4,0.8-0.6,1.8-1.1,2.6c-0.5,0.9-1.5,1.6-2,2.6
		c-0.8,1.5-0.6,3.2-0.6,4.9c-0.1,1.7-0.6,3.6-2.2,4.2C-346.2,325.9-347,327.9-346.3,329.3z M-325,341.7c-0.1,0.5-0.4,1-0.7,1.4
		c-0.2,0.3-0.4,0.6-0.7,0.9c-1.1,0.9-2.9,0.4-3.8-0.7c-0.6-1.4-1-2.8-1.3-4.3c-0.1-0.4-0.3-0.6-0.5-0.9c-0.2-0.3-0.3-0.6-0.1-0.9
		h3.3c0.3,0,0.6,0.1,0.7,0.3c0.6,1.1,1.5,2.1,2.6,2.8C-325.1,340.6-324.9,341.2-325,341.7z M-324,339c-0.1,0.1-0.2,0.2-0.3,0.2
		c-0.1,0-0.2-0.1-0.3-0.1c-0.7-0.3-1.3-0.9-1.7-1.5c-0.1-0.3-0.1-0.6,0-0.8c0.4-0.1,0.7-0.1,1-0.2c0.8-0.5,1.4-1.3,1.7-2.2
		c0.7-0.7,1-2.1,2-2.2c0.3-0.1,0.6,0,0.8,0.2c0.5,0.1,1,0.3,1.4,0.6c0.7,0.5,1,1.3,0.8,2.1c-0.1,0.5-0.3,1-0.6,1.4
		c-0.4,0.5-1.2,0.7-1.8,0.9C-322.1,337.8-323.1,338.3-324,339z M-313,336.5c-0.6,0.4-1.3,0.7-1.9,1c-1,0.5-1.9,0.9-2.9,1.2
		c-1.3,0.4-2.7,0.6-4.1,0.5c1.2-1.1,3.5-0.7,4.2-2.1c0.2-0.8,0.5-1.6,0.6-2.4c0.3-0.3,0.7-0.2,1-0.1c0.4,0.1,0.6,0.3,1,0.4
		c0.3,0,0.6,0,0.9-0.1c1.4-0.3,2.8-0.7,4.1-1.1C-310.8,334.9-311.9,335.8-313,336.5z M-301.7,331c-1.3,1-3.5,0.6-4.2-0.9
		c-0.9-1.7-2.5-3-4.1-4.1c-1.6-1.2-3.1-2.4-4.7-3.5c-0.6-0.5-1.2-0.9-1.9-1.1c-0.7-0.2-1.5,0-2,0.6c0.1,0.2,0.2,0.5,0.3,0.7
		c1.6-0.1,3,0.9,4.3,1.9c3,2.3,6.1,4.7,8.5,7.7c-4-1-8.5,2.3-12.3,0.7c-0.6-1.4-2.2-2.2-3.6-2c0.6-1.8-1.4-3.9-3.3-3.4
		c0,0.7,1,0.9,1.5,1.5c0.6,0.8,0.2,1.9-0.3,2.7c-0.8,1.4-1.6,2.8-3,3.5c-0.8,0.5-1.8,0.6-2.7,0.7c-4.5,0.4-9.1,0.1-13.5-0.8
		c-0.6-0.2-1-0.8-1.3-1.4c-0.8-1.6-1.2-3.3-1.3-5.1c-0.1-0.4,0-0.8,0.1-1.1c0.5-1.1,2.2-1,3-1.9c1-1,0.6-2.5,0.6-3.8
		c0-2.5,1.2-4.7,2.3-6.9c0.5-1,1-1.9,1.5-2.8c0.4-0.8,0.9-1.6,1.5-2.2c1.6-1.6,4.2-1.5,6.5-1.3c0.5,0.1,1.1,0.1,1.6,0.4
		c0.8,0.4,1.2,1.4,1.4,2.3c0.4,1.5,0.6,3.2,0.7,4.8c-2.5,0.3-4.5,2.6-4.5,5.1c-1.3-0.1-2.6-0.2-3.9-0.3c0,0.7,0.6,1.2,1.3,1.4
		c1.5,0.5,3.3-0.2,4.7,0.7c1.4,0.8,2.1,3,3.7,2.9c0.3-0.1,0.5-0.4,0.5-0.7c-1.2-1.1-2.2-2.2-3.2-3.5c3.6-3.1,8.1-5.1,12.8-5.7
		c0.8,0,1.5,0.5,2.1,1c3.7,3.1,7.5,6.3,11,9.6C-300.4,327.8-300.4,330-301.7,331z"/>
	<path class="st0" d="M-371.1,224.1c-0.2,0.6-1,0.7-1.6,0.8c-1.3,0.2-2.5,0.7-3.6,1.5c-0.4,0.3-0.8,0.5-1.2,0.6
		c-1.2,0.5-2.5,1-3.7,1.5c-0.6,0.2-1.2,0.5-1.8,0.5c-0.5,0-1.1-0.4-1-0.9c0.1-0.2,0.2-0.3,0.4-0.5c1-0.8,2-1.4,3.2-1.9
		c0.3-0.1,0.6-0.2,0.9-0.4c0.9-0.3,1.8-0.7,2.7-1c0.9-0.3,1.8-0.7,2.8-0.8C-373,223.4-372,223.5-371.1,224.1"/>
	<path class="st0" d="M-379.4,233.3c-0.7,0.1-1.6,0.1-1.9-0.5c-0.4-0.6,0-1.3,0.4-1.8c0.7-0.8,1.6-1.3,2.6-1.5
		c2.4-0.4,4.7-0.9,7.1-1.3c0,0.9-0.3,1.7-0.9,2.4c-0.5,0.6-1.3,1-2,1.5c-0.6,0.3-1.3,0.7-2,0.9c-0.4,0.1-0.8,0.1-1.2,0.2
		C-377.9,233.1-378.7,233.2-379.4,233.3 M-380,231.8c0.3,0.3,0.8,0.4,1.2,0.1c0.3-0.3,0.4-0.8,0.1-1.2
		C-379.1,231.1-379.5,231.4-380,231.8 M-373.8,230.6c0.3-0.3,0.6-0.5,0.9-0.8c-0.7-0.2-1.4,0.3-1.6,0.9c0.1,0,0.2,0,0.3,0.1
		C-374.2,230.7-374,230.5-373.8,230.6"/>
</g>
</svg>
