<?xml version="1.0" encoding="utf-8"?>
<!-- Generator: Adobe Illustrator 19.2.0, SVG Export Plug-In . SVG Version: 6.00 Build 0)  -->
<svg version="1.1" id="Layer_1" xmlns="http://www.w3.org/2000/svg" xmlns:xlink="http://www.w3.org/1999/xlink" x="0px" y="0px"
	 viewBox="0 0 146.3 239.1" style="enable-background:new 0 0 146.3 239.1;" xml:space="preserve">
<style type="text/css">
	.st0{fill:#E91E63;}
</style>
<g id="coughing-lady-pink">
	<path class="st0" d="M2.2,104.2c0.6,0.5,1.1,1.1,1.3,1.8c0.9,2.9,2.6,5.4,4.8,7.5c6.2,6.1,10.2,13.2,12.3,21.6
		c0.6,2.4,1.6,4.8,2.7,7.1c1.4,2.9,2.6,5.8,2.2,9.1c-0.3,2.2-0.7,4.3-1,6.5c-0.7,4.8-1.8,9.6,1.4,13.8c1.7,2.2,2,4.5,1.8,7
		c-0.1,1.1-0.2,2.2,0,3.3c0.4,2.9,0.8,5.7,1.5,8.5s1.8,5.5,2.7,8.2c1.8,5.4,2,11.4,4.7,16.5c0.3,0.5,0.7,1,1.1,1.4
		c2,1.9,4.1,3.7,5.1,6.4c0.9,2.4,2.4,4.7,3.6,7c0.4,0.7,0.9,1.5,0.9,2.3c-0.2,2.3-0.3,4.7-0.6,6.9h2.8c0.2-1.7,0.3-3.3,0.2-5
		c-0.1-0.3,0-0.7,0-1c0-0.1,0.1-0.1,0.1-0.2c2.4,1,4.7,2.2,7.3,3c2.8,1,5.6,1.8,8.5,2.3c3,0.5,3.5,0,4.9-3.1
		c1.4,0.2,2.8,0.6,4.1,0.6c3.6,0.1,4-0.4,4-4.1c0.4-0.1,0.8-0.2,1.2-0.2c1.4,0.1,2.6-0.6,2.8-1.9c0.1-1-0.6-2.1-0.9-3.1
		c-0.2-0.6-0.8-1.3-0.6-1.8c0.6-1.9-0.1-3.2-1.5-4.2c-1.2-0.8-2.5-1.3-3.7-1.9c-3.5-1.6-7.2-2.7-10.2-5.4c-0.7-0.6-1.8-0.6-2.6-1
		c-1.1-0.5-2.2-1.1-3.3-1.7c0.1-0.2,0.1-0.3,0.1-0.5c1.2-0.3,2.5-0.7,3.7-1.1c3.9-1.3,7.2-3.2,9.7-6.6c2.1-2.9,4.4-5.8,6.6-8.6
		c3.1-4,6.4-7.7,9.2-11.9c2.2-3.3,3.7-7.1,5.5-10.6c3.6-7.2,7.4-14.2,10.9-21.4c1.4-3,2.7-6.1,3.6-9.3c1.4-4.9,3.6-9.2,6.7-13.1
		c3.1-4,5.1-8.4,5.1-13.5c0-1.5,0.3-3,0.8-4.6c0.5,1.1,1,2.2,1.4,3.4c0.8,2.7,1.8,5.4,2.3,8.1c1.1,6.7,2.1,13.4,2.9,20.1
		c0.8,7,1.5,13.9,2.1,21c0.4,5.1,0.5,10.3,0.7,15.3c0,0.7-0.4,1.5-0.6,2.3c-0.1,0.3-0.3,0.7-0.3,1.1c0.6,7.4,1.8,14.5,4.3,21.6
		c2.8,7.9,5.3,15.9,6.4,24.3c0.5,4,2.1,7.7,3.1,11.6c0.1,0.4,0.1,0.8,0.2,1.1h2c0-0.2-0.1-0.4-0.1-0.6c-1.4-6.2-3.1-12.2-4.4-18.3
		c-1.7-8.1-3.1-16.2-6.5-23.9c-2.3-5.1-2.5-10.4-2.4-15.8c0.1-6.2-0.2-12.5-0.6-18.6c-0.5-6.4-1.7-12.7-2-19
		c-0.4-7-0.9-13.7-2.4-20.5c-0.9-4-1.7-8.1-3.2-12c-2.4-6.4-5.3-12.6-8.1-18.7c-0.7-1.4-1.7-2.8-2.8-3.9c-2-2-4.2-3.8-6.4-5.7
		c-2-1.8-4-3.6-6.2-5.2c-3.8-2.7-6.6-6.4-8.7-10.4c-2.6-4.9-4.9-10-6.8-15.1c-2.4-6.6-2.2-13.6-3.2-20.4c-0.8-5.6-2.1-11.2-5.7-15.6
		c-2.1-2.7-4.8-5-7.4-7.4c-3.6-3.4-7.9-5.8-12.7-7.1c-3.9-1.1-7.9-1.1-11.9-0.5c-2.3,0.4-4.6,0.5-6.7,1.3c-3.2,1.1-6.2,2.7-9.3,4.2
		c-2.3,1.1-5,1.9-6.8,3.7c-1.4,1.4-2.8,2.8-4.1,4.2c-1.3,1-2.6,2.1-3.9,3.2c-0.6,0.5-0.7,1.2-0.6,1.8c-1,1.2-2,2.4-2.9,3.6
		c-3.2,4.1-3.9,9.2-4,14.3c-0.2,6.8,0.8,13.5,2.4,20.1c1.4,6.5,3.8,12.8,5.3,19c0.2,0.9,0.4,2.5,0.1,2.7c-1.3,0.7-2.2,2.3-4.2,1.7
		c-2.9-0.9-4.2,0.4-3.8,3.4c0.1,0.6,0.2,1.4-0.1,1.8c-1.5,2.3-1.3,5.1-3,7.4c-1,1.4-1.4,3.7-2.4,5.5C-0.7,100.8-0.1,102.5,2.2,104.2
		z M27.4,167.5c-0.5-3.7,0.1-7.5,0.3-11.2c0-0.4,0.3-0.7,0.4-1.1c0.2,0,0.3-0.1,0.5-0.1c1.6,6.4,3.2,12.9,4.9,19.6
		C30,173.2,27.8,170.7,27.4,167.5z M68.1,235.5c0,0.4-0.7,1-1.1,1c-0.9,0-1.9-0.3-3-0.5c0.5-0.9,0.8-1.5,1.1-2.1
		c0.8,0.1,1.5,0.1,2.1,0.4C67.6,234.5,68.2,235.1,68.1,235.5z M74.8,233.9c-1.1,0-2.3-0.3-3.8-0.6c1.3-1.8,2.6-2.5,4.1-2.1
		c0.6,0.1,0.9,1.2,1.4,1.8C75.9,233.3,75.4,233.9,74.8,233.9z M80.4,228.6c-0.4,0.3-0.8,0.7-1.3,0.9c-0.4,0.2-0.9,0.4-1.3,0.3
		c-0.7-0.2-1.3-0.7-1.9-1c0.5-0.4,1-0.7,1.4-1c0.9,0.2,1.4,0.2,1.8,0.3C79.5,228.2,80,228.4,80.4,228.6z M79.3,223.4
		c-1.2,0.2-2.4,0.5-3.5,0.4c-0.4,0-0.6-1.1-0.9-1.9C77,221.8,78.7,220.7,79.3,223.4z M62.7,214.3c2.9,1.5,5.9,2.9,8.8,4.3
		c0.8,0.4,1.6,0.8,2.3,1.2c-0.5,1.1-0.9,2.1-1.2,3.1c-3.8-1.7-7.6-3.4-11.5-5.1c-1.8-0.7-3.6-1.4-5.4-2c-0.6-0.2-1.3,0-1.8,0.2
		c-0.2,0.1-0.4,1-0.2,1.1c0.5,0.3,1,0.6,1.6,0.8c2,0.7,4.1,1.4,6.1,2.2c3.7,1.6,7.4,3.3,11.2,4.8c1.4,0.5,2.9,0.4,4.4,0.7
		c0.8,0.2,1.5,0.5,2.2,1c-3.5,0.9-3.5,0.9-4.1,2.3c-2.3-0.8-4.8-1.6-7.2-2.4c-3.2-1-6.4-1.9-9.6-2.9c-1-0.3-1.8-0.9-2.8-1.2
		c-1.8-0.6-3.5-1.2-5.3-1.5c-0.4-0.1-1,1-2,2c2.7,0.8,5,1.5,7.3,2.2c4.6,1.3,9.3,2.6,13.8,3.9c1.3,0.3,2.5,0.6,3.9,0.9
		c-1.1,0.9-2,1.8-3.2,2.8c-3.8,0-7.6-1.3-11.3-3.4c-1.7-0.9-3.9-0.7-5.9-0.9c-0.5,0-1,0.5-1.5,1.1c2.2,0.3,4.5,0.4,6.6,1.1
		c2.1,0.7,4,2,6,3.1c-0.3,0.7-0.7,1.5-1.1,2.3c-0.8-0.1-1.7-0.2-2.5-0.4c-7.3-2.1-12.8-6-15.1-13.8c-0.6-2.1-2-4.3-3.6-5.8
		c-2.8-2.7-4.3-6-4.9-9.8c-0.6-3.4-1.7-6.9-2.5-10.3c-1.2-4.8-2.4-9.7-3.5-14.5c-0.3-1.7-0.2-3.4-0.3-5.5c2.3,1,4.4,1.5,5.5,4
		c3.7,8.8,8.4,16.8,15.1,23.6c1.3,1.3,2.2,3.1,3,4.8c0.6,1.3,1.1,2.1,2.6,2.6C58.8,211.6,60.6,213.2,62.7,214.3z M112.9,127.4
		c-4.8-4.3-10.5-4.5-16.4-4c-4.4,0.4-8.7,0.5-13,0.9c-3.8,0.3-7.5,0.9-11.3,1.3c-0.6,0.1-1.2,0-1.9,0c0.1-1.7,0.7-2.8,2.4-2.9
		c0.4,0,0.8-0.2,1.2-0.2c4.3-0.3,8.6-0.5,12.9-0.8c5.4-0.4,10.7-0.8,15.9-1.3c3.4-0.4,6.3,0.6,8.6,3.1c0.6,0.6,1.3,1.1,1.7,1.8
		c0.4,0.5,0.4,1.3,0.6,1.9C113.3,127.2,113.1,127.3,112.9,127.4z M73.9,115.3c0.5-1.4,0.8-2.7,0.8-4.1c0-2.5,0.6-4.8,1.5-7.1
		c1.6-4.1,3-8.2,4.9-12.1c2.2-4.4,5.9-7.6,10-10.3c0.7-0.4,1.5-0.7,2.2-1c1-0.5,2-1,3.2-1.5c1.1,0.1,2.3-0.7,2.4-1.7
		c0.5,0.4,1,0.8,1.5,1.1c2.2,1.5,4,3.8,6,5.7c1.1,1,2.1,2.3,3.3,3.1c3.3,2.2,5,5.4,6.3,8.9c1.1,3.2,2.3,6.4,3.2,9.7
		c0.4,1.7,0.3,3.5,0.2,5.2c-0.2,4-0.4,8.1-2.5,11.7c-0.2,0.3-0.4,0.7-0.6,1c-0.2,0.4-0.5,0.7-0.9,1.3c-0.9-0.8-1.6-1.3-2.2-2
		c-3.1-3.6-7-4.7-11.7-3.8c-2.6,0.4-5.2,0.2-7.8,0.3c-1.2,0.1-2.4,0.2-3.6,0.3c-3.6,0.4-7.2,0.9-10.8,1.2c-2.4,0.2-4.8,0-7.2,0
		C72.7,119.3,73.4,117.3,73.9,115.3z M72.5,108.7c0.8,5.1-0.9,9.3-2.7,13.4c-1.6,3.9-3.9,7.4-5.3,11.3c-1.5,4.1-2.4,8.4-3.6,12.6
		c-0.8,2.8-1.8,5.5-2.7,8.2c-0.4,0.9-1,1.1-1.8,0.5c-0.3-0.3-0.8-0.5-1-0.9c-1.4-2.3-3.2-4.5-4.2-6.9c-1.6-3.8-2.7-7.8-4.2-12.1
		c4.4,0.8,7.1-1.4,9.6-3.8c2.2-2.3,4.3-4.7,6.4-7.1c2-2.3,2.5-5.2,3.2-8c0.3-1.1,0.5-2.3,0.8-3.4c0-0.3,0.5-0.6,0.7-0.6
		C70.2,112.5,71.6,111.2,72.5,108.7z M43.6,99.6c-0.1-0.4-0.2-0.8-0.3-1.3c0.7-0.3,1.3-0.4,1.8-0.6c1.9-0.9,2.5-0.8,3.3,1.3
		c1.3,3.3,3,6.6,2.9,10.3c0,0.3,0.5,0.6,0.9,0.8c-0.1-3.1-0.1-6.1-1.6-8.9c-0.7-1.3-1.3-2.7-1.7-4.1c-0.1-0.5,0.1-1.4,0.5-1.7
		c3.2-2.6,6.6-5,9.9-7.5c0.2-0.1,0.4-0.2,0.7-0.4c-0.5,5.8,1.8,11.1,3.1,16.5c0.3,1.4,1.1,2.8,1.9,4c1,1.7,1.1,3.3,0.5,5.1
		c-1,2.8-1.2,6-2.7,8.4c-1.8,3-4.6,5.3-7.1,7.8c-1.1,1.1-2.5,2.1-3.8,3.1c-0.6,0.5-1.5,0.6-2.2,0.9c-0.1,0-0.2-0.1-0.2-0.1
		c-3.7,1.1-4.3-2-5.6-4.1c-1.1-1.7-1.9-3.7-2.8-5.5c-0.5-1.1-0.5-1.8,0.6-2.5c2.8-1.9,4-4.6,4.1-8C46,108.4,45.5,103.8,43.6,99.6z
		 M14,54c-0.2-5.1-0.5-10-0.7-15.1l0.1,0.1c0.3,0.1,0.6,0.2,0.9,0.2c0.5,0.4,1,0.8,1.5,1.1c1,1,2,1.9,3.2,2.7
		c0.3,0.2,0.6,0.3,0.8,0.3c2,1.5,4.2,2.8,6.6,3.6c3.4,1.2,6.9,2.2,10.5,2.9c2.8,0.6,5.3,1.3,7.6,3.2c4.5,3.7,9.8,5.2,15.5,5.1
		c3.2,0,5.9,1.1,8.1,3.3c0.7,0.8,1.4,1.9,1.7,2.9c0.2,0.6-0.1,1.8-0.6,2.2C68.6,67,67.6,67,66.8,67c-0.4,0-0.9-0.4-1.4-0.7
		c-0.5,1.1-0.4,1.8,0.7,2.2c3.5,1.3,3.8,2.9,1.4,5.9c-1.7,2.2-3.2,4.7-4.8,7c-3.7,5.2-8.8,9-13.9,12.7c-1.8,1.3-4.1,2-6.3,2.7
		c-3.3,1-5.9-0.2-7.8-3c-0.7-1-1.4-1.9-2.1-2.8c4.5-1.5,5.4-5.7,7.2-9.6c-3.3-0.4-6.2-1-9.1-1.1c-1.5,0-3,0.5-4.4,1.1
		c-1,0.4-1.5,0.7-2.1-0.4c-1-1.6-2.1-3.1-3-4.9c0.3,0.1,0.7,0.3,0.9,0.5c1.2,1.2,2.4,0.9,3.7,0.3c1-0.4,2-1,3-1c1.7,0,2.7-0.9,3-2.3
		c0.3-1.5-0.8-2.3-2.5-2.9c0.4,0.7,0.7,1.1,0.8,1.5c0.2,0.7,0.4,1.6,0.1,2c-0.4,0.5-1.4,0.8-2,0.7c-1.3-0.3-2.4-0.5-3.2,1
		c-0.2,0.3-0.8,0.5-1.2,0.4c-1.6-0.2-3-1.9-2.7-3.6c0.3-1.8,0.9-3.6,1.3-5.5c0.9-3.8,0.9-7.4-1.9-10.6c-1.5-1.6-3.6-2-5.7-2.5
		C14.5,54,14.2,54,14,54z M37.8,116.3c-1.6-2.5-4.4-13.1-3.6-14.2C37.3,106.5,37.9,111.3,37.8,116.3z M29.8,86
		c2.3-0.8,4.6-1.5,7.4-2.3c-1.7,2.4-3.3,4.2-6,4.5c-0.5,0.1-1.1-0.1-1.6-0.3c-0.4-0.2-0.7-0.7-1-1.1C29,86.5,29.4,86.1,29.8,86z
		 M28.2,85.1c-0.3,0.1-1.1-0.5-1.3-0.9c-0.1-0.2,0.4-1.1,0.7-1.2c1.4-0.4,2.8-0.8,4.2-0.8c1.7-0.1,3.4,0.2,5.1,0.3
		c0,0,0.1,0.1,0.1,0.2C34.1,83.5,31.2,84.4,28.2,85.1z M17.7,60.8c1.3-0.1,2.6-0.2,4.3-0.4c-0.2,2.4-0.3,4.7-0.6,6.8
		c-0.3,2.2-0.8,4.4-1.2,6.5C18.9,72.2,17.3,64.5,17.7,60.8z M16.8,57.2c2.7-0.4,2.7-0.4,4,1.6C18.7,59.8,17.6,59.4,16.8,57.2z
		 M3.7,98.5C5.1,96,6.9,93.6,7.5,91c0.5-2.7,2.5-5.1,1.8-8.1c-0.2-1,0.3-1.5,1.3-1.2c1.6,0.5,3,0.5,4.3-0.8c0.5-0.4,1.6-0.3,2.3-0.1
		c1.9,0.5,3.7,1.4,5.6,2c2.8,0.8,3.5,3.5,4.9,5.5c2.9,4.3,3.4,9.4,4.7,14.1c1.2,4.6,1.9,9.2,3.5,13.5c1.7,4.5,4.3,8.6,6.3,13
		c2.2,4.6,4.3,9.2,6,13.9c2,5.5,4.8,10.2,8.9,14.4c5.4,5.6,8.9,12.3,8.4,20.4c0,1,0.2,2.1,0.3,3.1c0.3,0,0.5,0.1,0.8,0.1
		c0.3-0.8,0.7-1.6,0.8-2.4c0.3-3.6-0.2-7.1-1.5-10.5c-1.3-3.1-2.6-6.3-5-8.8c-1.4-1.4-1.5-3-0.9-4.8c1.1-3.2,2.3-6.4,3-9.7
		c1.2-5.6,2.8-11.1,5.8-16c0.7-1.1,1.4-1.8,2.9-1.9c4.5-0.4,9.1-1.2,13.5-1.5c5.8-0.3,11.6-0.3,17.3-0.6c3.5-0.1,5.8,2.1,8.3,4.1
		c0.3,0.2,0.2,1.2,0,1.7c-3.7,11.1-8.5,21.6-14.1,31.8c-3,5.5-5.7,11.2-9,16.4c-2.8,4.6-6.1,8.8-9.3,13.1c-2.4,3.2-5.1,6.3-7.6,9.5
		c-3.4,4.4-8.2,5.7-13.2,6.6c-0.5,0.1-1.5-0.5-1.7-1c-1.6-4.2-4.7-7.3-7.7-10.5c-2.7-2.9-5.2-6.1-7-9.6c-4.7-9.3-7.9-19.2-10.2-29.5
		c-1.4-5.7-2.5-11.9-5.7-17.5c-1.1-1.9-1.4-4.3-2.2-6.5c-0.9-2.7-1.9-5.4-2.9-8.1c-0.2-0.4-0.3-0.8-0.6-1.5c1.2,0,2.3,0.1,3.7-0.3
		c0.4,0,0.7-0.5,1.1-0.8c-0.4-0.3-0.8-0.9-1.1-0.8c-3.9,0.7-5.8-1.6-7.5-4.6c-0.9-1.6-2.5-2.9-3.9-4.3c-2.4-2.4-4.5-5.1-5.6-8.4
		c-0.4-0.9-1.2-1.9-2-2.5C2.9,100.9,3,99.8,3.7,98.5z"/>
	<path class="st0" d="M26.7,56.8c0.3-0.3,0.6-0.9,1-1c3-0.8,5.9-1.6,8.9-2.3c1.6-0.4,3.3-0.5,4.9-0.7c0.5,0,1,0.4,1.4,1.1
		c-5.5,0.3-10.7,1.5-15.6,3.7C27,57.3,26.9,57.1,26.7,56.8z"/>
	<path class="st0" d="M31.3,58.7c1.8,0.7,3.4,1.8,5,1.8s3.3-1.2,5-2c-0.4,1.5-3,3.4-4.6,3.5C34.6,62.3,32.1,60.8,31.3,58.7z"/>
	<path class="st0" d="M69.4,63.6c-0.9,0.9-1.5,1.4-2,1.9c-0.6-0.8-1.3-1.5-1.6-2.4c-0.1-0.2,1.1-1.4,1.5-1.3
		C67.9,62,68.5,62.8,69.4,63.6z"/>
</g>
</svg>
