<?xml version="1.0" encoding="utf-8"?>
<!-- Generator: Adobe Illustrator 19.2.0, SVG Export Plug-In . SVG Version: 6.00 Build 0)  -->
<svg version="1.1" id="Layer_1" xmlns="http://www.w3.org/2000/svg" xmlns:xlink="http://www.w3.org/1999/xlink" x="0px" y="0px"
	 viewBox="0 0 99.3 71" style="enable-background:new 0 0 99.3 71;" xml:space="preserve">
<style type="text/css">
	.st0{fill:#E91E63;}
</style>
<g id="dizzy-lady-flu">
	<path class="st0" d="M1.6,71c0.1-0.2,0.2-0.3,0.4-0.4c0.9-0.9,1.6-2,2.3-3.1c2-3.1,3.6-6.4,5.2-9.8c0.4-0.9,1.1-1.6,1.5-2.5
		c0.6-1.3,1.2-2.6,1.7-3.9c1.1-2.7,2.7-5.2,4.4-7.6c0.1-0.2,0.2-0.5,0.4-0.7c0.1-0.3,0.3-0.4,0.5-0.6c0.1,0,0.1,0.1,0.2,0.1
		c0,0.8-0.1,1.5-0.1,2.2c0,1.9,0.6,3.6,1.7,5.1c0.1,0.2,0.3,0.3,0.5,0.4c0.7,0.5,1.4,1,2.1,1.4c0.5,0.3,0.9,0.3,1.4-0.2
		c0.3-0.2,0.5-0.5,0.8-0.8c0.4,1,0.8,1.9,1.2,2.8c0.4,0.9,0.8,1.8,1.2,2.7c0.8,1.4,1.6,2.9,1.7,4.6c0,0.7,0.4,1.4,0.6,2.1
		c0.5,1.8,1,3.7,1.5,5.5c0,0.3-0.2,0.7-0.2,1.1c0,0.5,0.1,1.1,0.2,1.6h1.1c-0.1-0.6-0.1-1.2-0.2-1.7c-0.1-1.1-0.2-2.3-0.5-3.5
		c-0.4-1.9-1-3.8-1.5-5.7c-0.1-0.3,0-0.7,0.1-1c0.3,0.1,0.6,0.1,0.9,0.2c0.5,0.1,1.1,0.4,1.7,0.5c1.2,0.2,2.4,0.4,3.6,0.5
		c1,0.1,2-0.1,3-0.2c0.4,0,0.8,0.2,1.1,0.1c2-0.5,4-0.7,5.8-1.8c0.3-0.2,0.5-0.3,0.8-0.4c1.3-0.3,2.3-1.1,3.2-2
		c1.1-1.1,2.1-2.1,3.2-3.1c0.3-0.3,0.8-0.2,0.9,0.2c0.2,1.1,0.5,2.2,0.7,3.4c0.2,1.3,0.4,2.7,1.2,3.9c0.3,0.3,0.3,0.7,0.5,1.1
		c1.1,2.5,2.2,5.1,3.4,7.6c0.3,0.6,0.6,1.3,1,1.9h2.2c-0.8-2.4-1.4-4.9-2.2-7.3l-1.5-4.5c-0.4-1.3-0.7-2.6-0.6-4
		c0.1-2.2,0-4.3,0.1-6.5c0.1-2.4,0.4-4.9,0.7-7.3c0.1-1,0.5-1.9,0.7-2.9c0.1-0.8-0.1-1-0.9-1.1c-1.1-0.2-2.2-0.3-3.3-0.5
		c-0.2,0-0.5-0.2-0.8-0.3C55,36.5,55,36.5,55,36.4c0.4-0.2,0.7-0.5,1.2-0.7c0.3-0.2,0.7-0.4,1.1-0.6c0.8-0.4,1.8-0.8,2.8-1.7
		c1.2-0.6,2.6-0.3,3.8-0.8c0.7-0.3,1.4-0.7,2.1-1.1c0.2-0.1,0.4-0.1,0.5-0.1c1,0.1,2.1,0.4,3.2,0.4c1.2,0,2.2,0.4,3.2,1
		c1,0.7,2.1,1.3,3.5,1.3c0.1,0.2,0.1,0.3,0.1,0.5c0,2,0,3.9,0.1,5.8c0.1,1.1,0.2,2.1,0.3,3.2v2.7c-2.1-1-4-2-5.5-3.5
		c-0.6-0.6-1.1-1.3-1.6-2c-0.3-0.3-0.5-0.6-0.8-0.8c-0.1-0.1-0.5,0.1-0.7,0.2c0.1,0.1,0.2,0.4,0.3,0.5c0.6,0.6,1.2,1.1,1.6,1.8
		c0.6,1,1.5,1.6,2.4,2.3c0.6,0.5,1.3,0.8,1.9,1.2c0.4,0.2,0.8,0.4,1.2,0.6c0.4,0.1,0.8,0.2,0.7,0.9c-0.1,1,0.1,2,0.2,3
		c0.3,1.7,0.5,3.3,0.9,5c0.2,0.9,0.4,1.9,0.8,2.8c0.4,0.8,0.3,1.7,0.4,2.6c0.1,1.2,0.2,2.4,0.5,3.6c0.5,2.2,0.7,4.4,0.9,6.5h1.3
		c-0.1-0.9-0.2-1.9-0.4-2.8c-0.4-2.5-0.9-4.9-1.2-7.3c-0.4-2.7-0.8-5.4-1.6-8c-0.4-1.5-0.7-3-0.6-4.6c0-0.5,0.2-1,0.7-1.3
		c0.9-0.5,1.9-0.9,2.8-1.3c1.9-0.8,3.8-1.5,5.7-2.3c0.5-0.2,0.9-0.6,1.4-0.9c0.6-0.4,1.3-0.9,2-1.2c1.3-0.6,2.5-1.3,3.4-2.6
		c0.3-0.5,0.8-0.9,1.3-1.2c0.9-0.6,1.8-1.3,2.5-2.2c0.8-1,1.6-2,1.7-3.3c0-0.8,0.1-1.6,0-2.4c-0.1-0.5-0.2-1-0.5-1.4
		c-1.1-1.8-2.9-2.9-4.9-3.6c-1.7-0.6-3.4-1.2-5.1-1.8c-0.6-0.2-1.2-0.6-1.8-0.8c-1.4-0.4-2.9-0.8-4-1.9c-0.3-0.3-0.7-0.4-1-0.5
		L79.5,19c-0.9-0.2-1.8-0.3-2.7-0.4c-0.7-0.1-1.4-0.1-2-0.2c-0.9-0.1-1.7-0.3-2.6-0.5c-0.6-0.1-1.1-0.3-1.7-0.5
		c-1-0.3-1.9-0.8-2.9-0.8c-1.2,0.1-2.3,0.2-3.5,0.2c-0.5,0-1.1,0-1.6-0.2c-0.8-0.3-1.6-0.4-2.5-0.4c-1.2,0-1.2,0-1.6,1.1
		c0,0-0.1,0-0.2,0.1c-0.2-0.2-0.5-0.4-0.6-0.7c-0.4-0.9-0.9-1.9-1.2-2.9c-0.6-1.7-1.5-3.3-2.5-4.7c-1.3-1.9-2.8-3.8-4.2-5.7
		c-1.1-1.4-2.3-2.5-4-3.2c-1.2-0.4-2.3-0.2-3.1,0.6C42.4,1,42.2,1,42,1c-0.4-0.1-0.7-0.4-1.1-0.4c-1.3-0.1-2.6-0.3-3.8,0.3
		c-0.8,0.4-1.5,0.7-2.2,1.1c-0.9,0.5-1.8,0.9-2.6,1.5c-1.5,1.1-2.7,2.3-3.7,3.8c-0.7,1.2-1.3,2.4-1.5,3.7c-0.2,1.2-0.3,2.4-0.6,3.6
		c-0.5,2-0.8,4.1-0.8,6.2c0.1,1.5-0.2,3.2-0.5,4.7c-0.3,1.2-0.4,2.4-0.4,3.7c0.1,1.2,0.1,2.3,0.1,3.5c-0.1,1.1-0.3,2.1-1.3,2.7
		c-0.7,0.5-1.5,0.8-2.2,1.3c-1.5,1-2.6,2.4-3.1,4.2c-0.1,0.2-0.4,0.4-0.6,0.5c-0.5,0.4-1.1,0.6-1.4,1c-1,1.5-2,3-2.9,4.5
		c-0.7,1.1-1.3,2.3-1.9,3.5c-0.7,1.4-1.2,2.9-1.9,4.3c-0.5,0.9-1.3,1.8-1.7,2.8c-1.3,2.9-2.6,5.7-4.3,8.4c-0.7,1.1-1.3,2.3-2.2,3.2
		C0.8,69.7,0.4,70.4,0,71H1.6z M58.6,38.6c0.4,0,0.5,0.2,0.4,0.6c-0.4,1.1-0.7,2.1-1,3.2c-0.2,0.5-0.2,1-0.2,1.5
		c-0.2,3.8-0.3,7.7-0.4,11.6c0,2.2,0.7,4.3,1.4,6.4c0.5,1.6,0.9,3.2,1.3,4.8c0,0-0.1,0.1-0.1,0.3c-0.3-0.7-0.5-1.3-0.8-1.8
		c-0.7-1.4-1.5-2.8-2.1-4.3c-0.5-1.2-1-2.5-1.4-3.8c-0.4-1.5-0.7-3.1-1.1-4.7c-0.1-0.3-0.1-0.5-0.1-0.7c0.2-1.3-0.3-2.5-0.6-3.8
		c-0.6-2-1-4-1.6-6c-0.4-1.3-1-2.5-1.5-3.8c-0.3-0.6-0.6-1.2-0.9-1.8c-0.1-0.2-0.1-0.5-0.1-0.8c1.1,0.2,1.8,0.9,2.7,1.3
		c0.8,0.4,1.6,0.9,2.5,1.1C56.2,38.2,57.4,38.5,58.6,38.6z M61.6,32.3c-0.6,0-1.2,0.2-1.8,0.4c-2,0.7-3.9,1.6-5.6,2.9
		c-0.4,0.3-0.8,0.4-1.3,0c-0.3-0.2-0.6-0.3-1-0.6c0.6-0.3,1.1-0.6,1.6-0.9c0.2-0.1,0.6-0.2,0.8-0.4c1-1,1.9-1.9,2.3-3.3
		c0.1-0.4,0-0.8,0-1.2v-0.8c0-0.4,0.3-0.5,0.6-0.4c1.1,0.2,2.1,0.4,3.2,0.7l2.1,0.6c0.1,0.1,0.3,0.1,0.4,0.2
		c0.7,0.6,1.4,1.1,2.1,1.7C63.9,31.8,62.8,32.3,61.6,32.3z M59.3,18.8c0.1-0.4,0.2-0.8,0.4-1.2c0.1-0.1,0.2-0.2,0.3-0.2
		c0.6,0.1,1.2,0.1,1.8,0.3c1.1,0.3,2.2,0.6,3.3,0.1c0.4-0.2,0.8-0.3,1.3,0h0.4c0.8-0.1,1.5,0.1,2.2,0.6c0.7,0.6,1.6,0.7,2.5,0.8
		c1.1,0.1,2.1,0.4,3.2,0.6c1.5,0.3,3,0.5,4.5,0.6c1.2,0,2.3,0.3,3.2,1c1.1,0.9,2.4,1.3,3.7,1.7c0.7,0.2,1.3,0.5,2,0.8
		c2,0.8,4.1,1.5,6.1,2.3c1.5,0.6,2.8,1.6,3.4,3.1c0.5,1.2,0.2,2.5-0.6,3.6c-0.3,0.3-0.5,0.6-0.7,0.9c-0.6,1.1-1.6,1.9-2.5,2.7
		c-0.9,0.8-1.7,1.7-2.6,2.5c-0.4,0.4-0.9,0.6-1.4,0.9c-0.6,0.4-1.2,0.7-1.7,1.1c-0.5,0.4-1.1,0.5-1.7,0.7c-0.8,0.2-1.5,0.6-2.3,1
		c-2.1,1-4.1,1.9-6.2,2.9c0,0.1-0.1,0.1-0.4,0.2c-0.1-3.9-0.2-7.6-0.3-11.5c1.3,0.7,2.3,0.1,3.4,0c1.7-0.2,3.1-1.2,4.7-1.8
		c1.2-0.5,2.4-0.9,3.7-1.4c0.3-0.1,0.7-0.1,1-0.3c0.2-0.1,0.2-0.4,0.2-0.7c-0.3,0-0.5-0.1-0.7,0c-0.8,0.3-1.7,0.6-2.5,0.9
		c-0.9,0.4-1.9,0.8-2.8,1.2c-1.3,0.5-2.5,1.1-3.8,1.6c-0.6,0.2-1.3,0.3-2,0.2c-0.9-0.1-1.8-0.2-2.6-0.5c-0.9-0.3-1.9-0.6-2.7-1.1
		c-1.1-0.6-2.1-0.9-3.4-0.9c-1.4,0-2.9-0.1-4.1-1c-0.7-0.6-1.3-1.2-2-1.7c-0.2-0.1-0.5-0.2-0.8-0.3c-0.7-0.2-1.4-0.4-2.1-0.6
		c-0.9-0.3-1.8-0.4-2.7-0.6c-0.6-0.2-0.8-0.4-0.6-1.1c0.3-1.2,0.7-2.5,1-3.7S59,20,59.3,18.8z M42.4,2.2c0.2,0,0.4,0.1,0.5,0.2
		c0.4,0.7,0.8,1.4,1.1,2.1c0.2,0.4,0.3,0.8,0.4,1.3h-0.6c-0.4,0.1-0.8,0-0.7-0.6c0.1-0.2-0.2-0.5-0.3-0.8c-0.2-0.6-0.4-1.1-0.6-1.6
		C42.1,2.6,42.3,2.4,42.4,2.2z M37.4,12.3c0.1-0.1,0.3-0.2,0.4-0.2c1.3,0.4,2.6-0.2,3.9-0.3c1.4-0.1,2.8-0.4,4.2-0.2
		c1.1,0.1,2.1,0.8,3.2,1.2h0.6c-0.1-0.2-0.2-0.4-0.3-0.5c-1.9-0.9-3.9-1.7-6.1-1.3c-1.4,0.3-2.8,0.4-4.2,0.6
		c-0.8,0.1-1.2-0.1-1.5-0.9c-0.2-0.4,0-0.7,0.4-0.8c1.5-0.3,3-0.6,4.5-0.6c0.8,0,1.5-0.1,2.3-0.2c1.8-0.2,3.2,0.6,4.6,1.7
		c0.2,0.1,0.5,0.1,0.7,0.2c-0.1-0.2-0.1-0.5-0.3-0.6c-1-0.8-1.9-1.5-3.1-1.7c-0.4-0.1-0.9-0.2-1.3-0.2c-1,0-2.1-0.1-3.1-0.1
		c-0.7,0-1.4-0.5-1.4-0.8c0-0.5,0.9-1.3,1.5-1.2c1.1,0.1,2.2-0.1,3.2,0.4c0.6,0.2,1.3,0.3,1.9,0.3c1.1,0.1,1.7,0.8,2.4,1.5
		c1.1,1.1,2.4,2,3.7,2.9c0.1,0.1,0.1,0.1,0.2,0.2c1.1,1.3,2.1,2.5,2.8,4.1c0.3,0.8,0.8,1.6,1.6,2.1c0.6,0.5,0.4,1.2,0.2,1.8
		c-0.5,1.7-1,3.4-1.6,5.3c-0.3-0.2-0.6-0.4-1-0.5c-1.7-1.4-3.4-2.8-5-4.3c-1.2-1.2-2.7-2.1-4.2-2.8c-0.7-0.4-1.7-0.5-2.6-0.6
		c-0.8-0.2-1.7-0.2-2.5-0.2c-0.9-0.1-1.8-0.7-1.9-1.6c0.5,0,1,0,1.4-0.1c1.8-0.4,3.6-0.1,5.4,0c0.9,0,1.8,0.5,2.7,0.8
		c0.2,0.1,0.5,0,0.7,0c-0.2-0.2-0.4-0.5-0.6-0.6c-2.6-1-5.2-1.3-7.9-0.9c-0.9,0.1-1.9,0.1-2.9,0.1C37.6,14.3,37,13,37.4,12.3z
		 M48.5,20.2c-0.3,0.2-0.6,0.3-0.9,0.5c-0.1-0.8,0.2-1.2,0.7-1c0.1,0,0.3,0.1,0.3,0.2C48.7,20,48.6,20.1,48.5,20.2z M34.9,22.4
		c0.4,0,0.8-0.1,1.2,0c0.9,0.2,1.6,0,2.3-0.5c0.2-0.2,0.5-0.3,0.8-0.4c0.1-0.1,0.2-0.2,0.3-0.3c-0.1-0.1-0.2-0.2-0.3-0.3
		c-1.3-1.1-2.8-0.9-4.2-0.4c-0.1,0.1-0.2,0.1-0.3,0.1c0-0.1-0.1-0.1-0.1-0.2c0.1-0.2,0.2-0.3,0.3-0.5c1-0.5,2-0.4,3-0.5h0.3
		c0.3-0.1,0.8-0.1,0.7-0.6c0-0.2-0.5-0.3-0.8-0.3h-2.6c0.7-0.9,1-2,1.1-3.1c0-0.4,0.3-0.9,0.5-1.5c0.4,0.7,1,1.1,1.7,1.1
		c0.1,0,0.2,0.2,0.3,0.3c0.6,1.1,1.4,1.8,2.8,1.8c1.2,0,2.4,0.3,4,0.6c0.1,0,0.2,0.1,0.4,0.2c-0.6,0.2-1,0.3-1.4,0.5
		c-0.1,0.1-0.4,0.2-0.5,0.3c-0.1,0.1-0.1,0.3-0.2,0.5c0.2,0,0.4,0.1,0.5,0.1c0.8-0.2,1.6-0.5,2.4-0.8c0.5-0.2,0.9-0.1,1.3,0.4
		c-1.7,0-3.1,0.6-4.5,1.8c0.5,0.2,0.8,0.3,1.1,0.4c1.6,0.5,3.1,0.3,4.4-0.7c0.4-0.3,0.6-0.4,1,0.1c0.3,0.3,0.7,0.5,1.1,0.8
		c0.5,0.4,0.7,0.9,0.6,1.5c-0.3,1.9-0.4,3.7-0.7,5.6c-0.2,1.4-0.7,2.8-1.6,3.9c-0.8,0.9-1.5,1.9-2.5,2.5c-0.8,0.5-1.6,1.1-2.4,1.5
		c-1.1,0.6-2.3,0.5-3.5,0.2c-1-0.2-1.9-0.5-2.8-0.9c-1.2-0.5-1.9-1.4-1.8-2.8c0.1-1.8-0.3-3.5-0.9-5.2c-0.4-1-0.9-2-1.3-3.1
		c-0.2-0.5-0.2-1.1-0.3-1.6C34.3,22.6,34.5,22.4,34.9,22.4z M34.6,21.5c0.4-0.3,0.7-0.5,0.9-0.7c0.1,0.1,0.2,0.1,0.2,0.1
		c0.8,1,1.1,1,1.9,0c0.3-0.4,0.6-0.4,0.9,0C37.4,22.1,36.1,22,34.6,21.5z M46,20.8c-0.5-0.2-0.9-0.3-1.5-0.4
		c0.5-0.2,0.8-0.4,1.2-0.6C45.8,20.2,45.9,20.4,46,20.8z M30.4,48.2c0-0.6,0.1-1.2,0.2-1.8c0.1,0,0.1,0,0.2,0
		c0.4,0.4,0.9,0.7,1.3,1.1c0.1,0.1,0.3,0.2,0.4,0.4c1.2,1.5,2.8,1.4,4.5,1.3c0.3,0,0.6-0.4,0.6-0.6s-0.3-0.5-0.5-0.6
		c-0.5-0.2-1.1-0.2-1.6-0.4c-1.6-0.6-2.4-2.3-2-4c0.4-1.8,1.5-3.4,2.1-5.2c0.3-1,0.6-2.1,0.9-3.2c0.2,0.1,0.4,0.1,0.7,0.2
		c0.8,1,1.8,1.3,2.9,1.5c1.2,0.3,2.4,0.7,3.6,0.5c0.4,0,0.8,0,1.2-0.2c1.1-0.5,2.3-0.9,3.2-1.8c0.1-0.1,0.2-0.2,0.3-0.2
		c0.1-0.1,0.2-0.1,0.3-0.1c0,0.3,0.1,0.5,0.2,0.7c0.2,0.5,0.3,1.2,0.6,1.7c0.8,1.4,1.7,2.9,2.1,4.5c0.5,2.1,1.1,4.2,1.6,6.3
		c0.3,1.2-0.4,2.1-1.1,3c-1,1.2-2,2.5-3.1,3.5c-0.9,0.8-2.1,1.4-3.2,1.9C44,57.5,42,57.9,40,58c-1.5,0.1-3,0.3-4.5,0.2
		c-1.6-0.1-3.2-0.1-4.7-0.8c-0.1,0-0.2-0.1-0.3-0.1c-0.5-0.2-0.6-0.5-0.6-1.1C30.1,53.5,30.2,50.9,30.4,48.2z M25.5,47.9
		c0.6-1.2,1.6-2.1,3.1-2.4c0.4-0.1,0.8,0.2,0.8,0.6c0,1.2-0.1,2.5-0.2,3.7c-0.2,1.8-0.5,3.6-0.7,5.4c-0.1,0.4-0.1,0.9-0.1,1.3
		c-0.1,0-0.1,0-0.2,0c-0.6-1.1-1.4-2.1-1.6-3.4c-0.3-1.1-0.8-2.2-1.3-3.3C25,49.1,25.2,48.4,25.5,47.9z"/>
	<path class="st0" d="M18.2,69.5c-0.3,0.5-0.9,0.9-1.3,1.5c0,0,0,0,0,0h1.8c0.8-1,1.4-2.2,1.8-3.4c0.1-0.2,0.1-0.4,0.2-0.5
		c0-0.1,0.1-0.1,0.2-0.2c0.3,1.4,1.2,2.7,1.5,4.1h1.2c-0.1-0.9-0.4-1.8-0.8-2.6c-0.5-0.9-0.9-1.9-1.2-2.9c-0.1-0.6-0.2-1.3-0.2-1.9
		c-0.2-1.5-0.8-2.8-1.4-4.1c-0.3-0.6-0.6-1.2-1-1.8c-0.5-0.8-0.7-1.7-0.6-2.6c0-0.3,0-0.7-0.4-0.6c-0.2,0-0.5,0.4-0.5,0.6
		c-0.1,1.1,0.1,2.1,0.7,3.1c0.6,0.9,1,2,1.5,3c0.2,0.4,0.4,0.9,0.5,1.3c0,0.2,0.1,0.5,0.1,0.7c-0.1,0.6-0.1,1.2-0.3,1.8
		C19.6,66.5,18.9,68,18.2,69.5z"/>
	<path class="st0" d="M42,29.3c0.4,0,1-0.1,1.6-0.2c1.1-0.1,1.8,0.4,2.4,1.2c0.1,0.1,0.1,0.5,0,0.7c-0.8,1.3-3,2.7-4.8,2.1
		c-0.5-0.2-1-0.6-1.5-0.9c-0.1-0.1-0.2-0.3-0.3-0.4c-1.1-1-0.7-1.1,0.2-1.8C40.3,29.6,40.9,29.1,42,29.3z M39.8,31.2
		c0.6,1.1,1.5,1.7,2.7,1.6s2.3-0.7,3-1.8C43.6,31.9,41.8,32.2,39.8,31.2z M45.6,30.6c-0.5-1-1.4-1.2-2.3-1c-0.3,0.1-0.7,0.2-1,0.1
		c-1.2-0.3-1.8,0.6-2.6,1.2C41.7,30.1,43.6,29.7,45.6,30.6z M40.7,30.9c1,0.8,3.2,0.6,3.8-0.3C43.2,30.1,42,30.7,40.7,30.9z"/>
	<path class="st0" d="M43.6,25.8c0.5-0.1,0.7,0.2,0.7,0.5s-0.2,0.7-0.5,0.9c-0.3,0.3-0.8,0.5-1.2,0.7c-0.5,0.3-0.9,0.2-1.3-0.1
		c-0.3-0.3-0.7-0.5-1.1-0.4c-0.2,0-0.5-0.2-0.6-0.3c0-0.2,0.1-0.5,0.2-0.8c0-0.1,0.2,0,0.4,0c0,0.2,0,0.4,0,0.6
		c0.5,0.3,1,0.6,1.5,0.8c0.2,0.1,0.5,0,0.7-0.1c0.4-0.2,0.8-0.5,1.3-0.7c0.3-0.2,0.5-0.3,0.2-0.7C43.7,26.1,43.7,26,43.6,25.8z"/>
</g>
</svg>
