<?xml version="1.0" encoding="utf-8"?>
<!-- Generator: Adobe Illustrator 19.2.0, SVG Export Plug-In . SVG Version: 6.00 Build 0)  -->
<svg version="1.1" id="Layer_1" xmlns="http://www.w3.org/2000/svg" xmlns:xlink="http://www.w3.org/1999/xlink" x="0px" y="0px"
	 viewBox="0 0 232.7 44.3" style="enable-background:new 0 0 232.7 44.3;" xml:space="preserve">
<style type="text/css">
	.st0{fill:#FF9800;}
	.st1{fill:#03A9F4;}
</style>
<path class="st0" d="M191,29.8c0.6,1.5,1.2,2.8,1.8,4.3c-1.7,0-2.9-0.1-4.1,0c-0.5,0.1-1.2,0.4-1.6,0.8c-1.6,2-2.8,2.3-4.9,1
	c-2.2-1.4-4.6-1.7-7.1-1.6c-2,0.1-2.7-0.9-2.1-2.8c0.3-1,0.7-2,1.1-3.2c-3.1,1.5-3.7,3.9-1.7,6.3c1.1,1.4,2.5,2.4,4.1,3.1
	c0.8,0.4,1.3,0.2,1.9-0.5c1.2-1.5,2.3-1.7,3.5-0.9c0.9,0.6,1,1.7,0.3,2.4c-0.5,0.5-1.1,0.9-1.6,1.3c-2.9,2-4.4,1.8-7.4-0.5
	c-1.1-0.8-2.1-1.6-3.3-2.4c-2.7-1.7-3.2-3.5-1.8-6.3c0.6-1.2,0.3-2.5-0.7-3.6c-1.4-1.5-3.2-2.1-5.1-2.6c-0.5-0.1-1.1-0.1-1.5-0.3
	c-2.8-1.6-5.4-0.7-8.1,0.2c-3.7,1.2-7.5,2.2-11.2,3.1c-3.1,0.7-6.3,1.1-9.5,1.6c-4,0.6-7.6,2.2-11.1,4.2c-1.3,0.7-2.6,1.4-3.9,1.9
	c-1.5,0.6-3.1,0.2-3.7-0.8c-0.7-1.1-0.5-3.1,0.8-4c2.2-1.4,4.4-2.8,6.8-3.7c5-1.9,10.3-2.8,15.6-2.9c7.7,0,14.5-2.8,20.9-6.7
	c1.6-1,2.8-2.6,4.3-3.8c3.9-3.4,8-6.4,12.7-8.5c7.2-3.2,14.1-2.6,20.9,1.1c0.4,0.2,0.8,0.4,1.1,0.7c1.8,1.6,3.8,1.9,6.1,1.7
	c2-0.2,4-0.2,6-0.3c0.6,0,1.2-0.3,1.7-0.6c2.1-1.1,4.1-2.2,6.2-3.3c0.8-0.4,0.9-0.5,0.6-2c2.9,0.7,6,1.4,9,2.2
	c1.9,0.5,3.3,1.4,3.6,3.7c0.2,1.3,1.4,2.5,2.3,3.5c0.8,0.9,1.2,1.6,0.6,2.6c-1.2,2-2.9,3.3-5.2,1.8c-2.3-1.5-4.6-1.1-6.9,0.1
	c-0.4,0.2-0.9,0.3-1.4,0.2c-2.7-0.3-4.8,0.7-6.1,3.1c-1.4,2.6-3.3,4.8-5.8,6.5c-1.6,1.2-3.5,1.8-5.4,2c-0.5,0-0.9,0.2-1.4,0.3
	c0.7,1.6,1.4,3,1.9,4.6c0.6,1.7,0.3,2.7-1.1,3.8c-2.3,1.6-4.6,3.2-7,4.7c-2.2,1.4-6.3,0-7.4-2.4c-0.5-1,0.2-1.6,1-2.1
	c0.9-0.7,1.8-0.5,2.5,0.4c1.2,1.5,2.3,1.9,3.8,0.7c1.3-0.9,2.3-2.2,3.2-3.5c1.1-1.6,0.4-2.9-0.7-4.3c-2.2-2.6-3.1-2.8-5.4-0.2
	C190.9,30.1,190.9,30.1,191,29.8z M184.8,21.6c-1.9,2.4-3.7,4.7-5.4,7c0.4,0.4,0.9,0.8,1.1,1.3c0.4,0.8,0.9,0.9,1.7,0.7
	c1-0.3,2.1-0.3,3.2-0.6c0.3-0.1,0.8-0.4,0.9-0.7c0.4-1.3,0.8-2.7,1.1-4c0.1-0.3,0-0.8-0.2-1.1C186.4,23.2,185.5,22.3,184.8,21.6z"/>
<path class="st1" d="M69.5,23.3c2.9-1.6,5.5-3.1,8.1-4.6c2.9-1.6,5.9-3.2,8.8-4.9c0.4-0.3,0.8-0.9,0.9-1.4C88.4,7,91.4,3,96.1,0.2
	c0.5-0.3,1.5-0.3,1.8,0c0.4,0.4,0.5,1.3,0.3,1.9c-0.1,0.4-1.2,0.8-1.5,0.7c-2.2-1-3.1,0.5-4.2,1.8c-2,2.6-3,5.5-2.4,8.9
	c0.3-0.2,0.6-0.2,0.6-0.3C91.9,9.7,94,7,97.2,5.2C98,4.8,99,5,99.9,4.9c0,0.6,0.2,1.3,0,1.7c-0.5,0.9-1.2,1.3-2.4,0.7
	c-0.4-0.2-1.3,0-1.6,0.3c-0.8,0.9-1.5,1.9-2,2.9c-0.5,1-1.2,2.2-1,3.1c0.1,0.8,1.4,1.4,2.1,2.1c4.1,3.7,4,5.6-0.9,8.2
	c-0.9,0.5-1.8,0.9-2.7,1.3c-4.7,1.7-7.6,5.7-11,9.1c-3,3-6.4,5.7-9.8,8.3c-1.7,1.3-3.8,1.7-6.1,1.7c-20.7-0.1-41.3,0-62,0
	c-0.7,0-1.4,0-2.1,0C0.2,44.1,0.1,44,0,43.8c0.7-0.4,1.3-1,2-1.2c6.4-2.4,13.1-3.8,19.8-4.8c2.6-0.4,5.2-0.9,7.9-1.3
	c-0.1-0.2-0.2-0.5-0.4-0.7c-8.5-9.3-5.4-22.6,5.7-28.5C45.2,2,57.6,4.1,65.1,12.4C67.7,15.3,69,18.8,69.5,23.3z"/>
</svg>
