<?xml version="1.0" encoding="utf-8"?>
<!-- Generator: Adobe Illustrator 19.2.0, SVG Export Plug-In . SVG Version: 6.00 Build 0)  -->
<svg version="1.1" id="Layer_1" xmlns="http://www.w3.org/2000/svg" xmlns:xlink="http://www.w3.org/1999/xlink" x="0px" y="0px"
	 viewBox="0 0 100 85.6" style="enable-background:new 0 0 100 85.6;" xml:space="preserve">
<style type="text/css">
	.st0{fill:#03A9F4;}
</style>
<g id="fever-lady">
	<path class="st0" d="M99.3,58c-1.4-4.8-5.4-9-10.4-9.8c1.2-1.1,0.3-3.1-0.7-4.4c-4.3-5.7-9.1-11.6-10.2-18.5
		c-0.2-0.6-0.3-1.3-0.3-2c-0.1-0.2-0.2-0.5-0.2-0.7c-0.4-1.4-0.5-2.8-0.8-4.2c-0.4-0.9-0.8-1.8-1.3-2.6c-1-0.9-1.7-2.1-2.4-3.4
		c-0.6-1.2-1.5-2.4-1.8-3.8c-0.9-1.3-1.8-2.5-2.9-3.6c-3-3.1-7.1-5.3-11.4-5.2c-1.5,0-2.9,0.4-4.3,0.9c-1.2,0.3-2.3,0.8-3.2,1.7
		c-2,1.3-3.8,3-5.3,4.7c-3.3,3.9-5.7,8.4-9.1,12.2C25.2,30.7,8.2,34.8,1,47.9c-0.7,1.2-1.3,2.7-0.8,4c0.4,0.9,1.2,1.6,2,2.1
		c4.7,3.1,10.5,4.1,16.1,4.5c5.6,0.4,11.3,0.2,16.9,1.3c1.2,0.2,2.7,0.9,2.7,2.1c0.3,7.6,1.2,15.3,2.5,22.8
		c0.3-3.8-0.2-7.5-0.6-11.3c-0.5-4-0.9-8-1.4-12.1c-0.1-0.4-0.1-0.8-0.3-1.2c-0.3-0.5-0.9-0.7-1.5-0.9C30.9,57.8,24.9,58,19,57.7
		c-5.9-0.3-12-1.4-16.7-4.9c-0.5-0.3-0.9-0.7-1.2-1.3c-0.5-1.1,0.2-2.4,0.8-3.5c2.4-3.7,5.3-7.1,8.5-10.2c-0.8,1.4-1.4,2.9-1.6,4.5
		c3.1,1.7,6.4,2.9,9.8,3.5c-0.1,1.9-0.2,3.7-0.3,5.6c1.3-1.8,1.6-4.3,0.7-6.3c5.2-0.7,10.5-0.9,15.7-0.5c3.1,0.2,6.4,0.7,9.3-0.5
		c2.2-0.9,4.1-2.6,6.3-3.4c2.3-0.8,5.4-0.3,6.1,2c1,2.5-0.5,5.2-2.3,7.2c-1.8,2-4,3.8-4.7,6.4c4.1-4.3,8.3-8.7,12.4-13
		c1.4-1.5,3-3.1,5-3.5c2-0.5,4.6,0.8,4.6,2.9c-1.8-1.5-4.5-1.8-6.5-0.7c0,0.8,0.5,1.7,1.2,2.1c-0.9-0.3-1.8,0.2-2.3,1
		s-0.6,1.7-0.7,2.6c-0.1,0.8-0.2,1.6-0.2,2.4c-0.7-0.7-2,0.4-1.8,1.4c0.1,1,0.9,1.8,1.2,2.8s-0.2,2.4-1.2,2.2
		c-3.8-0.8-7.8-0.6-11.5,0.5c1.4,0.8,3.2,0.1,4.8-0.2c1.6-0.3,3.9,0.6,3.6,2.2c-0.3,2.2-0.6,4.5,0.2,6.5c0.8,2,3.2,3.6,5.2,2.8
		c0.6,4.9,1.1,9.9,1.7,14.8c0.1,1.1,0.8,2.5,1.8,2.1c-0.4-0.7-0.8-1.5-1.2-2.2c1.7,0.6,3.6,0.1,5.1-0.9s2.6-2.5,3.7-3.9
		c-0.3,0.6,0.5,1.3,1.2,1.2c0.7-0.1,1.2-0.7,1.6-1.3c3.7-4.7,7.4-9.4,10.2-14.7c-4.3,4.9-8.3,10.1-12,15.5c-0.5-1.8-1.1-3.7-1.6-5.6
		c-1.3-4.4-2.5-8.9-2.2-13.5c0.3-4.2,2.1-8.4,5.5-10.7c0.4,0,0.8-0.1,1.2-0.1c0.1,0.4,0.2,0.8,0.3,1.2c1.2,0.6,2.6-0.7,2.6-1.9
		c0.2,0,0.4-0.1,0.7-0.1c0.1,0.8,0.4,1.5,0.7,2.2c0.8-0.3,1.2-1.3,1-2.1c0.4,0.6,0.8,1.3,1.1,2c0.1-0.6,0.1-1.3,0-1.9
		c0.4,0,0.8,0.1,1.1,0.2c0.5,0.2,0.9,0.4,1.5,0.5c5.1,0.2,9.6,4.4,11,9.3c1.4,4.9,0.3,10.3-2.1,14.9c-2.4,4.6-5.8,8.4-9.3,12.2
		c0.7,0.2,1.3-0.3,1.8-0.8c3.5-3.6,6.7-7.5,8.8-12.1C99.9,68.1,100.7,62.8,99.3,58z M10.9,42.3c-0.4-0.2-0.8-0.4-1.3-0.4
		c0.4-1.2,0.8-2.4,1.4-3.6c0,0.1,0.2,0.3,0.3,0.2c-0.2,0.5,0.1,1.1,0.3,1.6c0.3,0.6,0.6,1.2,0.9,1.8c0.1,0.2,0.2,0.4,0.3,0.6
		c0.3,0.3,0.6,0.6,0.6,1C12.7,43.1,11.9,42.7,10.9,42.3z M19.2,44.1c-0.8,0.8-2.1,1-3.1,0.6c-1.3-0.5-2-1.8-2.6-3
		c-0.8-1.5-1.5-3-2.3-4.5c2-0.2,3.8-1.4,5.5-2.6c4.3-3,8.6-6.1,12.9-9.1c1.4-1,2.8-2,4-3.1c5-4.6,7.6-11.2,12.6-15.8
		c0.2-0.2,0.4-0.3,0.6-0.2c0.5,1.8-1.6,3.2-2.1,5c3.1-1.7,6.6-2.5,10-2.3c0.3,0.1,0.6,0.2,0.9,0.4c0.3,0.6-0.6,1.1-1.1,1.2
		c-2.9,0.7-5.8,1.2-8.5,2.5c-0.2,0.1-0.5,0.4-0.3,0.6c3.5-0.9,7.1-1.9,10.6-2.8c0.6-0.2,1.5-0.3,1.8,0.3c0.3,0.5-0.1,1.1-0.5,1.3
		c-0.5,0.3-1,0.3-1.6,0.4c-1.3,0.1-2.6,0.6-3.8,1c-2.1,0.7-4.3,1.4-6.4,2.1c-0.5,0.2-1.1,0.4-1.2,1c2.9-0.7,5.8-1.5,8.6-2.6
		c1.3-0.5,2.8-1,4-0.4c-1.1,1.2-2.4,2.2-3.9,2.8c0-0.5-0.5-1-1-1s-0.9,0.2-1.3,0.5c-2.1,1.4-4.5,2.5-6.9,3.2
		c0.1,0.5,0.8,0.5,1.3,0.4c2.5-0.7,4.8-1.9,6.9-3.4c0.5,0.5-0.1,1.3-0.6,1.8c-1.2,1.1-2.4,2.3-3.9,3.1c-1,0.6-2.2,1-3.1,1.7
		c-0.9,0.8-1.6,1.8-2.4,2.7c-1.5,1.6-3.5,2.5-5.4,3.5c-4.1,2.3-7.6,5.4-11.1,8.5c-1.3,1.1-2.6,2.3-3.9,3.4c-0.7,0.6-1.4,1.2-1.9,1.9
		C19.8,43.5,19.5,43.8,19.2,44.1z M46.1,42.3c-1.8,1.2-3.9,2.2-6.1,2c-0.9-0.1-1.9-0.4-2.8-0.5c-1.2-0.2-2.4-0.2-3.7-0.1
		c-4.4,0.1-8.7,0.2-13.1,0.3c3.9-3.6,7.9-7.1,12-10.4c1.4-1.2,2.9-2.3,4.5-3.2c2.6-1.5,5.8-2.6,7-5.3c1.6,4.7,3.9,9.3,6.7,13.4
		c0.3,0.4,0.6,0.8,1.1,0.8C49.8,39.8,48,41.1,46.1,42.3z M59.5,44.7c-0.7,0.6-1.4,1.3-2.1,1.9c0.1-0.5,0.1-1.1,0.2-1.6
		c0.1-0.8,0.2-1.6,0.4-2.4c1,0.1,1.9,0.3,2.9,0.5C60.5,43.8,60,44.2,59.5,44.7z M67.1,38.8c-1.5,0.6-2.9,1.5-4.1,2.6
		c-0.3,0.3-0.6,0.7-1,0.8c-0.5,0.2-1.1,0.1-1.6,0c-2.2-0.5-4.5-1-6.4-2.3c-1.5-1-2.7-2.5-3.7-4.1c-2.1-3.1-3.8-6.5-5.1-10.1
		c-0.3-0.8-0.4-1.8,0.4-2.1c1.3-0.5,2.6-1,3.8-1.4c0.2-0.1,0.5-0.2,0.6-0.4s0.1-0.4,0.2-0.6c0.1-0.3,0.4-0.6,0.6-0.9
		c1.3-1.4,2.8-2.6,4.4-3.5c0.7-0.4,1.4-0.7,1.9-1.3c0.5-0.5,0.9-1.3,0.7-2.1c0.8-0.4,1.2-1.5,0.9-2.3c0.1,0,0.2,0.1,0.3,0.1
		c1.1,0.5,2.1,0.9,3.2,1.4c1.5,0.7,3.1,1.3,4.3,2.4c0.8,0.7,1.5,1.6,2.1,2.4c0.7,0.9,1.5,1.9,1.9,3.1c0.3,0.9,0.4,1.9,1.1,2.5
		c-0.1-1-0.2-2-0.4-3.1c0-0.4,0-0.9,0.3-1c1-0.4,0.8-2.2,1.9-2.5c0.8-0.2,1.4,0.6,1.7,1.3c1.5,3,0.7,6.5-1.6,8.6
		c-0.4,0.4-1,0.8-1,1.4c-0.2,2.1-0.8,4.2-1.8,6.2c-0.6,1.1-1.2,2.1-1.9,3.2c-0.2,0.3-0.4,0.6-0.6,0.8C67.9,38.3,67.6,38.6,67.1,38.8
		z M63,67.4c-1.1,0.2-2.3,0-3.2-0.6c-0.3-0.2-0.6-0.4-0.7-0.6c-0.1-0.3-0.2-0.6-0.2-0.9c-0.1-2-0.2-4.1-0.3-6.1c0-0.7-0.1-1.4,0-2.1
		c1.2,0.1,2.4,0.2,3.6,0.1c0.3,0.6,0.3,1.2,0.3,1.9c0,2.5,0.1,5,0.4,7.6C62.9,66.9,62.9,67.1,63,67.4C63.1,67.3,63,67.3,63,67.4z
		 M74.1,50.6c-0.5,1.2-1.1,2.4-1.6,3.6c-0.8,1.8-1.6,3.6-1.8,5.5c-0.2,1.9,0.2,3.7,0.6,5.6c0.8,3.8,1.7,7.6,2.7,11.4
		c0.2,0.7-0.4,1.4-1,2c-0.8,0.7-1.5,1.4-2.3,2.1c-0.7,0.7-1.5,1.4-2.5,1.6s-2.2-0.3-2.3-1.3c-0.3-2.4-0.7-4.8-1-7.3
		c-0.2-1.4-0.4-2.8-0.6-4.1c-0.6-4.5-1.2-9-1.1-13.5c0-1.4,0-3.1-1.1-4c-0.5-0.4,0-1.4,0.7-1.4s1.2,0.5,1.7,1s0.9,1.1,1.6,1.2
		c0.2,0.1,0.6,0,0.6-0.3c0-0.1,0-0.2-0.1-0.2c-0.3-0.6-0.9-1-1.5-1.4c-0.5-0.4-1.1-0.9-1.3-1.5c-0.2-0.6,0-1.5,0.7-1.7s1.4,0.4,2,1
		c0.9,0.9,1.9,1.6,3,2c0.2-0.6-0.3-1.2-0.9-1.5c-0.5-0.3-1.1-0.9-1-1.5c0.2-0.7-0.8-1.1-1.5-1c-0.7,0-1.7-0.1-1.8-0.8
		c-0.1-0.8,1-1,1.7-1c1.3,0,2.7,0.1,3.6,0.9c0.6,0.6,1,1.4,1.4,2.1c0.4,0.7,1,1.5,1.9,1.6c-0.6-1.6-1.4-3.1-2.6-4.4
		c-0.4-0.5-0.9-0.9-1.6-1.2c-0.6-0.2-1.2-0.2-1.8-0.4c-0.6-0.2-1.2-0.7-1.1-1.3c2.2-0.1,4.6-0.1,6.2,1.4c1.6,1.4,1.9,3.7,2.2,5.7
		C74.2,49.9,74.3,50.2,74.1,50.6z"/>
	<path class="st0" d="M54.4,30.6c0.7,0.1,1.5,0,2.2-0.2c0.5-0.2,1.1-0.4,1.2-1c0.1,0,0.3,0,0.4,0c0.3,0.3,0.3,0.8,0,1.1
		c-0.3,0.3-0.7,0.5-1.1,0.6c-0.9,0.3-2,0.6-2.7,0C54.4,31,54.4,30.8,54.4,30.6"/>
	<path class="st0" d="M74.7,21.6c-0.2,0.6-0.2,1.3-0.5,1.9s-1.1,1-1.6,0.6c0-0.3,0.1-0.5,0.2-0.8c0.2-0.3,0.5-0.6,0.6-0.9
		s-0.1-0.8-0.4-0.8s-0.6-0.4-0.5-0.7c0.1-0.3,0.4-0.5,0.7-0.6c0.3-0.1,0.6,0,1,0.1C74.3,20.8,74.8,21.1,74.7,21.6"/>
	<path class="st0" d="M55.2,19.1c0-0.2-0.2-0.4-0.4-0.4c0-0.3,0.2-0.5,0.4-0.7c0.4-0.4,1-0.6,1.5-0.8c1.6-0.6,3.3-1.2,4.9-0.7
		c0.1,0.3-0.2,0.6-0.5,0.7s-0.6,0-1,0c-0.7,0-1.3,0.4-2,0.7C57.2,18.5,56.2,18.9,55.2,19.1"/>
	<path class="st0" d="M76.9,79.8c0.4,1.1,1.5,1.8,2.5,2.4c0.5,0.3,0.9,0.6,1.4,0.9c0.7,0.5,1.4,0.9,2.1,1.4c-0.2,0.3-0.6,0.3-1,0.2
		c-0.3-0.1-0.6-0.3-0.9-0.4c-0.9-0.6-1.9-1.2-2.8-1.8c-0.5-0.3-1-0.6-1.3-1.1c-0.4-0.4-0.6-1-0.5-1.6C76.6,79.8,76.7,79.8,76.9,79.8
		"/>
	<path class="st0" d="M46.9,25.4c0.1,0,0.2-0.1,0.3-0.1c0.2-0.5,0.5-1,0.9-1.2c0-0.1,0.1-0.2,0.1-0.3c0.8-0.2,1.6-0.3,2.4-0.2
		c0.3,0,0.7,0.1,0.9,0.3c0.2,0.2,0.4,0.6,0.2,0.9c-0.1,0.2-0.3,0.3-0.5,0.4c-0.7,0.3-1.4,0.6-2.1,0.8c-0.7,0.2-1.2,0.7-1.4,1.3
		c-0.1,0.2-0.3,0.2-0.5,0.2c-0.3-0.5-0.5-1-0.6-1.5C46.9,25.9,47,25.6,46.9,25.4 M48.6,24.5c0.2,0.2,0.3,0.4,0.4,0.6
		c0.4,0.1,0.8-0.1,1.1-0.2c0.3-0.2,0.7-0.3,1-0.5c-0.3-0.1-0.6-0.1-0.9-0.1C49.7,24.3,49.2,24.4,48.6,24.5"/>
	<path class="st0" d="M37,56.2c-0.3-1.4-0.7-2.7-1.3-4c-0.3-0.6-0.6-1.3-0.8-1.9c-0.1-0.4-0.1-0.9,0.3-1c1.6,2.7,2.6,5.7,3,8.8
		c0,0.3,0.1,0.6-0.1,0.8c-0.2,0.2-0.6,0.2-0.7-0.1C37.4,58,37.2,57.1,37,56.2"/>
	<path class="st0" d="M62.1,19.3c0.4,0.2,0.7,0.3,1.1,0.6c0.2,0.1,0.3,0.2,0.3,0.4c0,0.2-0.2,0.3-0.4,0.4c-1.3,0.6-2.7,1.1-3.9,1.9
		c-0.7,0.4-1.6,0.8-2.2,0.3c-0.4-0.4-0.5-1.1-0.2-1.6s0.8-0.9,1.3-1.2c0.6-0.4,1.3-0.6,2.1-0.8C60.8,19.1,61.5,19.1,62.1,19.3
		 M62.1,20.1c-0.9-0.2-1.9-0.1-2.8,0.4c-0.1,0.1,0,0.4,0.1,0.5c0.1,0.2,0,0.5-0.2,0.4c0.2,0.1,0.5-0.1,0.7-0.2
		c0.6-0.4,1.3-0.7,2.1-0.8C62.1,20.3,62.1,20.2,62.1,20.1 M58.1,22.1c-0.1-0.2-0.2-0.4-0.2-0.6c-0.2-0.1-0.4,0-0.5,0.1
		c0,0.2,0,0.4,0,0.5c0.2,0.1,0.4,0.2,0.6,0.3c0.2-0.1,0.4-0.2,0.6-0.4C58.4,22.1,58.2,22.1,58.1,22.1"/>
	<path class="st0" d="M61.1,33.5c-0.9-0.1-1.8-0.4-2.8-0.4h-0.1c-0.6,0.2-1.2,0.5-1.8,0.9l-0.1,0.1c-0.5,0.5-1,1.2-1.4,1.8
		c0,0.2,0.1,0.3,0.2,0.5c0.2,0,0.4,0.1,0.6,0.1c0.1,0,0.1,0,0.2,0c0.8,0.2,1.6,0.3,2.4,0.2l0,0c0.1,0,0.2,0,0.2,0
		c0.4,0,0.8-0.1,1.2-0.2l0,0c0.4-0.1,0.7-0.3,1-0.5c0.6-0.5,1-1.3,1.6-1.7c0.2-0.2,0.5-0.4,0.6-0.6C62.4,33.7,61.7,33.6,61.1,33.5z
		 M56.8,35.6c-0.3,0.2-0.7,0.4-1,0.2c0.8-1.3,2.4-2.1,4-2c0.3,0,0.5,0.1,0.8,0.2c-0.1,0.1-0.1,0.2-0.2,0.3c-0.8,0.1-1.5,0.2-2.2,0.4
		c-0.2,0.1-0.4,0.1-0.6,0.2C57.3,35.1,57.1,35.4,56.8,35.6z M60.1,35.4c-0.8,0.6-1.8,0.8-2.8,0.7c0.4-0.5,1-0.7,1.5-0.9
		c0.6-0.2,1.3-0.5,2-0.5C60.6,35,60.4,35.2,60.1,35.4z"/>
</g>
</svg>
