<?xml version="1.0" encoding="utf-8"?>
<!-- Generator: Adobe Illustrator 18.1.1, SVG Export Plug-In . SVG Version: 6.00 Build 0)  -->
<!DOCTYPE svg PUBLIC "-//W3C//DTD SVG 1.1//EN" "http://www.w3.org/Graphics/SVG/1.1/DTD/svg11.dtd">
<svg version="1.1" id="Layer_1" xmlns="http://www.w3.org/2000/svg" xmlns:xlink="http://www.w3.org/1999/xlink" x="0px" y="0px"
	 viewBox="0 0 150 249" style="enable-background:new 0 0 150 249;" xml:space="preserve">
<style type="text/css">
	.st0{fill:#E91E63;}
</style>
<g id="flu-lady">
	<path class="st0" d="M117.5,247.3c-0.1-1.2-0.3-2.3-0.3-3.5c0.1-5.7-0.8-11.3-2.7-16.7c-0.6-1.8-1.7-2.8-3.5-2.6
		c-3.9,0.3-7.8,0.8-11.7,1.3c-0.6,0.1-1.3,0.3-1.7,0.1c-5.8-2.5-12-0.7-17.8-1.9c-6.1-1.3-12.2-2.6-18.3-3.9
		c-2.9-0.6-5.8-1.4-8.7-2.2c-4.8-1.3-9.7-2.5-14.4-4.2c-2-0.7-3.6-2.7-5.2-4.2c-3.4-3.2-5-3-7.5,1.2c-5.2,8.9-8.5,18.5-10,28.7
		c-0.4,2.8-0.5,5.6-0.8,8.4c0,0.5-0.5,0.9-0.8,1.3c-0.4-0.5-1.3-1-1.3-1.5c0-1.7,0.1-3.4,0.4-5c1.5-6.6,2.8-13.2,4.7-19.7
		c1-3.3,3.1-6.3,4.6-9.4c0.4-0.9,0.8-1.8,1.3-3.1c-4.9,0.1-8.5-2.2-11.9-4.8c-9.5-7.2-14.3-21-11.1-32.6c1.9-7.1,4.5-14,6.1-21.2
		c1.5-6.3,2.6-12.8,2.9-19.3c0.5-9.4,1.5-18.6,3.7-27.8c1.3-5.3,4.9-8.8,8.7-12.3c1.3-1.2,3-2.1,4.3-3.3c0.5-0.5,0.8-1.6,0.7-2.4
		c-0.3-3.2-1-6.4-1.1-9.7c-0.1-1.9,0.8-3.7,1-5.6c0.4-3.5,0.5-7,0.9-10.5c0.3-3.7,0.8-7.3,1.1-11c0.2-1.8,0.6-3.7,0.5-5.5
		c-0.5-7,1.6-13.5,3.3-20.1C35.3,15.9,40.8,9.9,47.6,5c2.6-1.9,6.5-3.4,9.6-2.9c2.8,0.4,4.5-0.8,6.8-1.4c7.4-2.1,13.2,1,18.7,5.8
		c9.3,8.2,14.1,19.1,18.1,30.4c3,8.4,4.6,17.1,5.5,25.9c0.8,7.5,1.5,15,2.1,22.5c0.1,1.7,1.2,2.2,2.5,2.7c4.5,1.6,9,3.1,13.4,4.7
		c2,0.7,3.9,1.4,5.9,1.9c6.5,1.6,11.1,5.9,14.8,11c1.7,2.2,2,5.6,2.5,8.5c2.8,18.3,1.9,36.8,2.1,55.2c0.1,8,0.8,16.1,0.3,24.1
		c-0.4,6.2-2.1,12.3-3.6,18.3c-0.7,3-1.9,6.1-3.5,8.8c-4.1,6.6-10.7,7-17.6,6c-2.2-0.3-4.4-0.9-6.6-1.3c-2.1-0.4-2.7,0.2-1.9,2.3
		c2.1,5.8,2.6,11.7,2.3,17.8c0,0.7-0.3,1.4-0.4,2.2C118.1,247.3,117.8,247.3,117.5,247.3z M79.3,166.5c-0.2,0-0.5,0-0.7,0
		c0-4.6-0.2-9.2,0.1-13.7c0.4-5.5-1.3-10.4-4.7-14.5c-3.9-4.7-8.7-8.6-12.5-13.3c-4.6-5.5-8.6-11.5-12.9-17.3
		c-0.6-0.9-1.5-1.6-2.2-2.4c-0.8,1-2.2,1.9-2.3,3c-0.9,7.3-1.9,14.7-2,22.1c-0.1,9.4,0.6,18.9,0.9,28.3c0.3,9.4,0.4,18.9,0.6,28.3
		c0,1.2,0.6,2.4,1.2,3.4c2.7,5.1,7.8,5.6,12.6,6.3c6.8,0.9,13.6,1.5,20.5,1.8c5.6,0.2,11.2-0.2,16.8-0.6c1.5-0.1,2.8-1.3,4.3-1.6
		c4.3-0.9,8.6-1.6,13-2.3c1.8-0.3,2.6-1.1,2.6-3c0-1.3,0.2-2.7,0.7-3.9c3.3-8.1,4.3-16.6,4-25.3c-0.1-2.3-0.3-4.6,0.3-6.7
		c1.7-6.5,3.7-12.9,5.6-19.4c1.3-4.3,2.6-8.6,3.9-12.9c0.3-0.9,1-1.6,1.7-2.5c-3.3,11.3-6.5,22.3-9.7,33.3c0.8,0.1,1.1,0.1,1.3-0.1
		c4-4,8-8.1,12.1-12c1.1-1,2.5-1.7,3.7-2.6c0.2,0.2,0.3,0.5,0.5,0.7c-4.9,4.7-9.7,9.4-14.6,14c-1.4,1.3-2.7,2.3-2.6,4.5
		c0.1,2-0.2,4-0.2,6c-0.1,8-1.2,15.8-3.9,23.4c-0.5,1.4-0.7,2.9-0.9,4.3c-0.3,1.7,0.3,2.4,2.2,2.7c3.9,0.5,6.7,2.9,8.7,6.4
		c1.5,2.6,3.8,4.7,5.6,7.1c0.4,0.5,0.4,1.4,0.5,2.1c-0.3,0.1-0.6,0.3-0.9,0.4c-2.1-3-4.2-6-6.4-9c-1.2-1.6-2.3-3.3-3.8-4.4
		c-1.4-1-3.3-1.3-5.3-2c1.2,4.3,1.7,8,3.2,11.3c2.5,5.3,4.8,10.4,4.4,16.4c0,0.6,0.9,1.8,1.6,1.9c7.1,2,14.2-1.5,16.8-8.3
		c1.2-3.3,1.9-6.7,3-10.1c1.3-4.3-0.3-5.3-3.8-7c-3.8-1.8-7.4-4.1-11-6.2c0.1-0.2,0.2-0.4,0.3-0.6c5.1,2.6,10.2,5.3,15.7,8.1
		c0.3-3.8,0.9-7.3,0.9-10.8c0-11.9-0.2-23.8-0.4-35.7c-0.1-8.9-0.2-17.9-0.6-26.8c-0.2-5.5-0.9-11-1.6-16.5c-0.7-5.3-9-13-14.9-14.3
		c-1.4-0.3-2.2,0-3,1c-3.3,4.2-6.5,8.5-9.8,12.7c-3.8,5-7.5,10-11.2,15.1c-0.4,0.5-0.6,1.1-0.8,1.7c-0.9,3.5-1.5,7.1-2.6,10.6
		c-2.3,8-4.9,15.9-9,23.1c-0.5,0.9-1.2,1.7-1.8,2.5c-0.3-0.1-0.6-0.3-0.8-0.4c0.2-2.1,0.6-4.2,0.6-6.4c0-4-0.3-8-0.4-12
		c-0.1-4.4,0-8.8-0.1-13.2c0-0.5-0.6-1.4-1-1.4c-2.3-0.1-4.5-0.1-7-0.1c0.5,3,1.2,5.5,1.3,8c0.2,4.5,0.7,9.1-0.2,13.3
		C83.6,156.5,81.2,161.4,79.3,166.5z M33.5,85.7c-2.5-8.4,0.1-16,3.2-23.7c1.4-3.5,2.8-7.1,3.9-10.8c0.6-2.1,0.5-4.3,3.1-5.3
		c0.4-0.2,0.4-1.9,0.3-2.9c-0.1-0.6-0.8-1.1-1.2-1.7c-0.6,0.6-1.5,1.1-1.9,1.8c-0.7,1.2-1.1,2.6-1.6,3.9c-2.8,7.4-5.2,15.1-8.7,22.2
		c-2.3,4.6-2.7,8.9-1.7,13.7c1.2,6.4,1.4,12.5-0.9,18.9c-2.3,6.3-3.9,13-4.6,19.7c-1.1,11.1-5.3,21.1-9.7,31.2
		c-0.4,0.8-0.9,2.1-0.5,2.7c1,1.8,2,3.9,3.7,4.9c6.1,3.7,13,4.2,19.9,3.1c1.7-0.3,4.3-1,4.2-3.8c-0.1-3.7-0.2-7.4-0.3-11
		c-0.3-11-1.5-22,0.3-33.1c0.9-5.5,2-10.6,5.7-15.2c1.5-1.9,1.7-5.3,1.8-8c0.1-2.9-1.4-5.4-3.8-7.3c-2.2-1.7-3.2-3.9-2.7-6.8
		c0.2-1.2-0.1-2.5-0.1-3.7c0-1.9-0.4-4.1,0.4-5.8c1.7-3.7,1.6-7.6,1.9-11.5c0.2-3.3,0-6.6,0-9.8c-0.4-0.1-0.7-0.1-1.1-0.2
		c-0.4,0.8-0.9,1.6-1.2,2.4c-1,3.4-1.6,7-3,10.3c-3.3,7.5-6.3,14.9-5.2,23.3C33.7,84.1,33.6,84.9,33.5,85.7z M47.7,51.7
		c-0.2-0.2-0.3-0.4-0.5-0.6c1.6-1.3,3.3-2.7,5-4.1c-6.1,0-7.6,1.8-7.1,7.5c0.3,3.7,1,7.2,2.5,10.6c3.7,8.1,8.5,15.1,17.6,17.8
		c0.5,0.1,0.9,0.5,1.3,0.7c5.6,2.1,11.1,3.5,16.8,0.1c3.1-1.9,5.2-4.3,4.7-8.1c-1-7.3-2.1-14.7-3.3-22c-0.5-3.1-1.6-6.2-2.4-9.4
		c-5.9,2.9-9.6,3.4-11.7,1.5c3.6-1.3,8.1,0.3,10.7-3.7c-2.8-2.1-5.6-0.4-8.2-0.4c0-0.3-0.1-0.7-0.1-1c2.4-0.5,4.7-0.9,7.1-1.4
		c0-0.2,0.1-0.5,0.1-0.7c-0.7-0.3-1.4-0.7-2.2-0.8c-3.6-0.5-6,2-8.8,3.6c-0.9,0.5-1.9,1-2.8,1.5c-0.2-0.8-0.1-1.2,0.1-1.3
		c3.7-2.1,7.4-4.2,11.3-6.4c0,0-0.1-0.5-0.4-0.8c-3.8-3.6-7.7-7.2-11.5-10.7C65,22.8,64,22,63.1,21.1c-3.8-3.6,0.7-8.9-2.5-12.7
		c-0.1-0.1,0.4-0.6,0.3-0.9c-0.1-0.6-0.3-1.2-0.5-1.7c-0.7,0.2-1.8,0.4-1.9,0.7c-0.2,1.6-0.2,3.2-0.2,4.7c0,0.7,0.7,1.7,0.5,2
		c-2.1,2.7-0.7,5.1,0.5,7.5c0.7,1.4,0.7,2.4-0.6,3.5c-3,2.6-5.8,5.3-8.7,7.9c-4.7,4-6.4,8.9-4.1,14.9c2-0.5,4-1.2,6.2-1.5
		c2-0.3,4.1-0.1,5.8-0.1C54.5,47.5,51.1,49.6,47.7,51.7z M11.3,156.3c-2.2,4.2-4.2,7.9-6.1,11.7c-0.2,0.4,0,1.1,0.1,1.6
		c1.4,5.9,5.5,9.3,10.8,11.6c2.1,0.9,4.2,1.6,6.3,2.4c-0.1,0.2-0.3,0.5-0.4,0.7c-8.1-1.7-14.8-5.5-18.1-14.1
		c-0.4,0.7-0.7,0.9-0.8,1.2c-3.9,14.8,1.1,28.9,15.7,36.2c2.9,1.5,5.1,0.8,7.5-1.4c1.2-1.2,2.9-1.9,4.2-3c3.5-2.7,6.8-5.5,8.8-10.3
		c-3.8,2.1-7,4.5-10.5,5.6c-3.7,1.1-7.5,0-10.6-2.6c0.7,0,1.4,0.2,2.1,0.4c2.1,0.5,4.2,1.2,6.3,1.4c3.6,0.4,6.2-2.2,8.9-4
		c3.6-2.3,6.3-5.1,5.8-10.2c-0.6-6.4-0.5-13-0.7-19.5C27.8,167.7,17.2,165.1,11.3,156.3z M52.7,197.5c-4.1-0.6-7.1-1.9-9.1-5.1
		c-0.7-1.1-1.6-1-2.4,0.1c-0.6,1-1.2,2-1.9,2.9c-2.3,3-4.6,5.9-6.8,8.9c-0.3,0.4-0.5,0.8-0.8,1.1c1.3,1.4,2.6,2.6,3.8,3.9
		c1.7,2,3.9,2.9,6.4,3.5c6.5,1.6,12.9,3.4,19.3,5.2c2.4,0.7,4.7,2,7.1,2.3c8.7,1,17.4,1.7,26.2,2.6c1.7,0.2,2.6-0.4,2.4-2.2
		c-0.2-1.9-0.5-3.8-0.6-5.7c-0.2-4.9-3.1-9.5-1.5-14.7c-0.7,0-1.4-0.1-2-0.1c-5.1,0.1-10.2,0.4-15.3,0.2c-5.6-0.2-11.2-0.5-16.7-1.2
		c-4.5-0.5-8.7-1.2-11.4,3.8c-0.4,0.8-1.6,1.1-2.5,1.6c-0.1-0.2-0.2-0.4-0.3-0.5C48.7,201.9,50.5,199.9,52.7,197.5z M61.5,83.1
		c0,4,0,7.7,0,11.4c0,1.1-0.2,2.3,0.2,3.2c3.4,7.6,6.5,15.4,13.4,20.7c1.9,1.5,3.1,3.8,4.8,5.7c1.1,1.3,2.3,3.1,3.7,3.4
		c2.6,0.6,5.4,0.2,8.5,0.2c-1.1-15.5-2.2-30.5-3.3-45.6c-0.2-0.1-0.4-0.3-0.7-0.4C79.6,90.4,70.4,86.6,61.5,83.1z M123,224
		c0.7-4,0.3-7.7-1.2-11.2c-1.8-4.4-4.2-8.5-4.7-13.3c-0.1-0.7-0.5-1.4-0.7-2.1c-0.6-1.9-1.8-2.3-3.7-1.9c-3.4,0.9-6.9,2.1-10.4,2.2
		c-4.5,0.1-5.2,1.1-5.6,5.4c-0.2,1.5,0.1,3.1,0.2,4.7c0.5,4.5,1.2,8.9,1.7,13.4c0.3,2.6,0.7,3.1,3.3,2.5c6.2-1.5,12.3-1.4,18.5,0.1
		C121.2,224,122.1,223.9,123,224z M7,159.5c0.7-0.5,0.9-0.6,1-0.8c0.5-0.7,1-1.3,1.5-2c4.2-6.1,6.4-13,8.7-19.8
		c1.3-3.8,2.5-7.6,3-11.6c1.1-8.7,2.8-17.2,5.6-25.5c0.7-2.1,0.8-4.4,1-6.6c0.1-1.8-1.2-2.1-2.2-1.1c-4,3.7-8.9,6.9-9.9,12.8
		c-1.5,8.5-3,17.1-3.8,25.7c-0.8,8.6-1.2,17.1-4,25.3C7.5,156.8,7.3,157.9,7,159.5z M126.3,95.2c-2-0.6-3.8-1-5.5-1.6
		c-1.1-0.4-2.1-0.9-3.2-1.3c-2.3-0.8-4.7-1.5-7-2.1c-0.5-0.1-1.5,0.5-1.7,0.9c-0.4,1.3-0.5,2.8-0.6,4.1c-0.6,5.9-1.3,11.7-1.8,17.6
		c-0.2,3,0,6,0,9c0.3,0.1,0.6,0.2,0.8,0.3C113.5,113.4,119.7,104.5,126.3,95.2z M43.6,72c-2.2,7.3-1.2,10.6,4.1,14.3
		c-0.1-1.3-0.3-2.7-0.2-4.1c0.1-1.4,0.5-2.8,0.7-4.2C48.7,74.4,47,72.1,43.6,72z"/>
	<path class="st0" d="M83.5,68.2c-2.1,4.8-5.8,6.4-9.2,8.4C70.4,79,67,78.1,63.5,75c1.1-1.7,2-3.8,3.5-5.3c1.1-1.1,3.1-1.9,4.7-1.9
		C75.5,67.6,79.2,68,83.5,68.2z M80.1,70.6c-4.6,1-9.4,1.3-13.3,4.6C69.4,77.5,75.4,75.4,80.1,70.6z M79.2,69.1
		c-5-2.3-12.3,0.4-13.2,4.5C70.2,72.2,74.9,70.6,79.2,69.1z"/>
	<path class="st0" d="M61,47.8c0.6,2.2,1.4,4.4,1.8,6.6c0.3,1.5,0.2,3,0.1,4.5c-0.2,2.1,0.6,3.7,2.6,4.3c1.8,0.6,3.2-0.3,4.2-1.9
		c0.2-0.3,0.5-0.5,0.5-0.5c1,0,1.8,0,2.5,0c-0.5-1-1-2-1.5-2.9c0-0.2,0.1-0.4,0.1-0.5c0.9,0.5,2,0.9,2.5,1.7c0.4,0.5,0.3,2.2,0,2.3
		c-2.7,1.2-5.5,2.5-8.4,2.9c-1,0.1-3.2-2.1-3.4-3.4c-0.5-4.3,0.2-8.7-2.2-12.8C60.3,48,60.7,47.9,61,47.8z"/>
	<path class="st0" d="M48.8,55.1c1-1.8,7.7-4.3,10.1-3.9C57.8,53.7,52.2,55.9,48.8,55.1z"/>
</g>
</svg>
