<?xml version="1.0" encoding="utf-8"?>
<!-- Generator: Adobe Illustrator 19.2.0, SVG Export Plug-In . SVG Version: 6.00 Build 0)  -->
<svg version="1.1" id="Layer_1" xmlns="http://www.w3.org/2000/svg" xmlns:xlink="http://www.w3.org/1999/xlink" x="0px" y="0px"
	 viewBox="0 0 150 174.7" style="enable-background:new 0 0 150 174.7;" xml:space="preserve">
<style type="text/css">
	.st0{fill:#E91E63;}
</style>
<g id="lady-flushed-face">
	<path class="st0" d="M150,72.3c-0.3-0.1-0.6-0.3-1-0.3c-1.5-0.2-3-0.3-4.5-0.5c-0.8-0.1-1.5-0.2-2.3-0.4c-1.3-0.3-2.6-0.7-4-1
		c-1.3-0.3-2.3-1.1-3.1-2c-1.2-1.2-2.3-2.4-3.4-3.7c-2.9-3.4-6.2-6.4-9.8-9.1c-1.5-1.1-2.9-2.4-4.4-3.5c-1.7-1.4-3.4-2.8-5.2-4.1
		c-1.8-1.3-3.2-2.9-4.6-4.6c0,0-0.1-0.1-0.1-0.1c-1-1.3-2-2.6-2.9-3.9c-0.7-1-1.2-2.1-1.8-3.1c-0.1-0.1-0.2-0.2-0.3-0.4
		c-1.1,1.1-2.5,0.7-3.7,0.6c-0.6-0.1-1.2-0.8-1.5-1.4c-0.5-1-0.7-2.2-1.8-3c-0.2-0.1-0.2-0.6-0.2-0.9c0.3,0,0.6-0.1,0.8-0.1
		c0.5,0.1,0.7,0,0.7-0.4c0-0.6,0-1.1,0-1.7c0-0.6,0.2-1,0.8-1.2c0.4-0.1,0.5-0.3,0.4-0.8c-0.1-0.4-0.3-0.9,0.3-1.1
		c0.1,0,0.4,0.6,0.6,0.9c0.3,0.5,0.6,0.9,1,1.5c0.1-0.3,0.2-0.5,0.2-0.7c0.1-2.2-0.6-4.2-2.4-5.7c-0.6-0.5-2.4-0.1-2.8,0.6
		c-0.5,0.8-1.3,1.1-2,1.4c-0.2,0.1-0.7-0.1-0.9-0.3c-0.2-0.3,0.2-0.5,0.5-0.6c0.7-0.3,1.2-0.6,1.7-1.3c1-1.3,3.2-1.4,4.5-0.3
		c1.9,1.7,2.6,3.9,2.5,6.4c0,0.6-0.2,1.1-0.8,1.3c-0.6,0.2-1.2,0.2-1.6-0.4c-0.1-0.1-0.4-0.3-0.5-0.2C98.2,28.5,98,28.8,98,29
		c-0.1,0.4,0,0.9,0,1.3c0,0.7,0,1.3-0.6,1.7c0.3,0.8,0.7,1.6,1,2.4c0.2,0.5,0.5,0.7,1,0.7c1.6,0,2.4-0.6,2.9-2.1
		c0.6-1.9,0.9-3.9,0.8-5.9c-0.1-2.2-0.8-4.1-2.1-5.8c-1.1-1.3-2-2.8-3.7-3.6c-0.5-0.2-1.1-0.4-1.6-0.4c-1.3,0-2.7,0.1-4,0.2
		c-0.8,0-1.8,1-1.8,1.8c-0.1,1.8-0.2,3.6-0.2,5.4c0,0.2,0.1,0.5,0.2,0.7c0.4,1.1-0.1,2-1.3,1.9c-0.9,0-1.8-0.2-2.6-0.7
		c-0.8-0.5-1.6-0.8-2.5-1.2c-0.4-0.2-0.7-0.4-1.1-0.6c-1.4-0.6-2.7-1.2-4.1-1.8c-1.4-0.6-2.8-1.1-4.1-1.9c-2-1.1-4.1-1.3-6.3-1.3
		c-2,0.1-4,0-6.1,0c-1.8,0-3.6,0.1-5.4,0.2c-0.2,0-0.5,0.1-0.7,0.1c-1.1,0.4-2.1,1.1-3.4,1c-0.1,0-0.2,0.1-0.3,0.1
		c-2.1,1.6-4.3,3-6.2,4.8c-1.8,1.7-3.4,3.5-4.6,5.8c-0.8,1.5-1.5,3.1-1.3,4.9c0.2,1.8,0.2,3.6,0.3,5.4c0,0.5,0.3,1.1,0.5,1.6
		c0.6,2,1,4.1,1.3,6.2c0.2,1.3,0.4,2.7,1,3.9c0.8,1.8,2,3.4,3.7,4.5c0.3,0.2,0.6,0.3,0.9,0.5c0.8-0.8,1.6-1.6,2.4-2.3
		c1.4-1.1,3.1-1.4,4.7-1.7c1-0.2,2.1-0.1,3.1-0.2c0.5,0,0.8,0.2,1,0.7c0.2,0.9,0.5,1.9,1.2,2.6c0,0,0.1,0.1,0.1,0.2
		c0.1,1.9,1.6,3,2.4,4.5c0.4,0.7,0.6,1.5,0.9,2.2c0.3,0.6,0.5,1.3,0.8,1.8c0.5,0.8,1.4,0.9,2.2,0.5c0.7-0.3,1.4-0.6,2.1-0.8
		c0.6-0.1,0.7-0.6,0.7-1c-0.3-1.8,0.4-3.1,2-4c0.7-0.4,1.3-0.9,1.8-1.5c0.3-0.3-0.1-1.2-0.6-1.4c-0.7-0.2-1.3-0.3-2-0.5
		c-0.3-0.1-0.6,0-0.8,0c-0.2-0.1-0.3-0.3-0.5-0.4c0.2-0.1,0.3-0.4,0.5-0.4c0.8,0,1.6,0,2.4,0.1c1.2,0.2,2,1.1,2.1,2.3
		c0.1,0.6-0.4,0.9-0.8,1.3c-0.6,0.5-1.2,0.9-1.7,1.5c-0.5,0.5-0.8,1.1-0.8,1.9c0,0.7-0.4,1.4-0.6,2.1c-0.2,0.4,0,0.6,0.2,0.8
		c0.8,0.7,1.6,1.4,1.9,2.4c0,0.2,0.1,0.3,0.2,0.6c0.3-0.1,0.8-0.1,0.9-0.3c0.2-0.5,0.3-1.1,0.1-1.5c-0.2-0.6-0.8-1-1.2-1.6
		c-0.2-0.3-0.6-0.6-0.4-1.1c1.1,0.5,1.5,1.4,2.1,2.2c2.1-1.2,4.2-2.5,6.3-3.7c0.7-0.4,1.2-0.9,1.9-1.3c0.8-0.5,1.6-1,2.4-1.5
		c0.1-0.1,0.5-0.1,0.6,0c0.1,0.2,0.3,0.5,0.2,0.7c-0.3,1.2-0.6,2.3-1,3.5c-0.7,1.9-1.5,3.7-1.3,5.8c0,0.3-0.1,0.7-0.3,1
		c-0.7,1.3-1.3,2.6-2.5,3.6c-1.2,0.9-2.9,0.9-3.9-0.2c-0.3-0.3-0.6-0.5-1.1-0.4c-0.2,0.1-0.4,0-0.6-0.1c-1.4-0.8-2.4-1.9-2.7-3.5
		c-0.1-0.5,0-1.1-0.1-1.7c0-0.9-0.5-1.6-1.2-2.1c-0.4-0.3-0.7-0.8-1.3-0.7c-0.8,0.2-1.5,0.4-2.3,0.7c-0.9,0.4-1.7,0.6-2.6,0.2
		c-1.2-0.5-1.6-1.6-2-2.6c-0.7-1.4-1.3-2.8-2-4.2c-0.2-0.4-0.5-0.8-0.8-1.1c-0.9,1.7-1.8,3.4-2.6,5c1.2,1.7,2.4,3.3,3.6,4.9
		c0.8,1.1,1.6,2.4,2.5,3.4c0.8,1,2,1.6,3.2,2.1c1.6,0.6,3.3,1.1,4.9,1.8c3.6,1.6,7.3,2.8,11.2,3.5c2.4,0.4,4.8,0.6,7.3,0.9
		c1.2,0.2,2.3,0.2,3.2-0.7c1-0.9,1.9-1.9,2.7-3c1-1.4,1.9-2.9,2.7-4.5c0.7-1.4,1.1-3,1.5-4.5c0.2-0.7,0.4-1.4,0.5-2.1
		c0.6-2.9,0.9-5.9,1.7-8.7c0.9-3,1.2-6,1.7-9.1c0.2-1.2,0-2.5,0-3.8c0-0.2-0.1-0.3,0-0.5c0.1-0.2,0.3-0.3,0.4-0.5
		c0.1,0.1,0.4,0.3,0.4,0.4c0.1,1.2,0.3,2.3,0.2,3.5c-0.2,2.1-0.4,4.3-0.8,6.4c-0.5,2.6-1.2,5.2-1.8,7.7c-0.4,1.8-0.5,3.6-0.9,5.4
		c-0.8,3.9-2.3,7.5-4.7,10.8c-0.4,0.6-0.2,1,0.6,1.3c0.9,0.3,1.8,0.5,2.6,0.8c1.4,0.6,2.8,1.2,4.1,1.9c1.2,0.6,2.4,1.2,3.7,1.7
		c1.3,0.6,2.7,1.2,4,1.8c0.4,0.2,0.7,0.4,0.8,1c0.1,0.4,0.5,0.8,0.9,1.2c0.3,0.4,0.5,0.8,0,1.1c-0.5,0.4-0.8,0.1-1.1-0.3
		c-1.1-2-2.9-2.9-5-3.5c-0.6-0.2-1.2-0.6-1.8-0.8c-0.5-0.2-1-0.3-1.5-0.5c-0.4-0.1-0.8,0-0.8,0.4c0,1.1-0.6,1.8-1.4,2.4
		c-2.7,2.1-3.9,4.8-4,8.2c0,1.5,0,3-0.2,4.5c-0.1,1.1-0.6,2.3-0.8,3.4c-0.3,1.7-1.3,3-2.3,4.3c-0.2,0.3-0.5,0.6-0.7,0.9
		c0.8,0.8,1.6,1.7,2.3,2.5c2.5,2.5,4.4,5.3,6.2,8.3c0.5,0.9,1.2,1.8,1.8,2.6c0.3,0.3,0.6,0.7,1,0.9c2.3,1.2,4.4,2.6,6.9,3.2
		c1.6,0.4,3.2,0.9,4.8,1.5c1.7,0.7,3.3,1.7,4.9,2.5c0.6,0.3,1.3,0.7,1.9,1c0.6,0.4,1.2,0.8,1.7,1.3c1.8,1.3,3.9,1.4,6,1.7
		c2.9,0.3,5.3-0.8,7.6-2.2c3-1.8,5.4-4.3,7.7-6.8c1.1-1.2,2.2-2.4,3.3-3.6c0,0.7,0,1.4,0,2c-1,1.1-2,2.1-3,3.2c-2.4,2.6-5,5-8,6.8
		c-2.5,1.5-5.1,2.3-8,2c-2.1-0.2-4.1-0.4-5.9-1.5c-1.9-1.1-3.7-2.2-5.8-3c-3.7-1.4-7.4-3.1-11-4.7c-2.7-1.2-5.3-2.6-6.9-5.3
		c-0.3-0.6-0.6-1.2-0.9-1.7c-1.4-2.1-2.8-4.3-4.4-6.3c-0.7-0.9-1.7-1.6-2.6-2.4c-0.2-0.2-0.8-0.3-0.9-0.1c-0.5,0.5-1,1.1-1.6,1.8
		c0.7,0.6,1.3,1.2,2,1.7c1.8,1.2,3.3,2.6,4.3,4.4c0.9,1.6,1.8,3.3,2.8,4.9c0.6,1,1.3,2,2,2.9c1.3,1.5,3.2,1.9,4.9,2.7
		c1.4,0.6,3,1,4.3,1.7c1.5,0.9,3.1,1.3,4.7,2c2,0.8,3.9,1.8,5.9,2.7c1.8,0.8,3.7,1.5,5.4,2.5c1.7,0.9,3.4,1.4,5.3,1.3
		c2.6-0.2,5.2-0.7,7.2-2.4c2.5-2.1,5.1-4.2,7.3-6.8c0.9-1.1,1.9-2,2.9-3c0,0.6,0,1.3,0,1.9c-1,1.1-2,2.3-3,3.3c-1.6,1.6-3.4,3-5,4.6
		c-1.8,1.8-4,2.7-6.3,3.3c-3.5,0.8-6.8,0.6-9.9-1.5c-0.6-0.4-1.2-0.6-1.9-0.8c-1.7-0.7-3.5-1.3-5.2-2c-2.4-1-4.8-2.1-7.2-3.1
		c-2.4-1.1-4.9-2.2-7.3-3.3c-2-0.8-3.4-2.3-4.5-4c-1-1.6-1.9-3.2-2.9-4.7c-0.8-1.3-1.6-2.6-2.6-3.7c-1.3-1.3-2.9-2.2-4.3-3.3
		c-1.5,1.3-2.6,3.8-2.8,5.7c-0.1,1.3-0.2,2.7-0.6,4c-0.9,3.1-0.9,6.1-0.2,9.2c0.2,0.9,0.5,1.8,0.8,2.7c0.1,0.3,0.3,0.6,0.5,0.8
		c1.9,1.2,3.9,2.3,5.8,3.4c1.6,0.9,3.2,1.9,4.8,2.7c0.6,0.3,1.4,0.4,2,0.7c1.9,1.1,4,1.5,6,2.6c1.4,0.8,3,1.4,4.5,1.9
		c1.9,0.6,3.9,1.1,5.8,1.6c1,0.3,2.1,0.4,3.2,0.6c1,0.2,2.1,0.1,3,0.8c0.4,0.3,0.9,0.3,1.4,0.5c1.3,0.6,2.6,1.4,3.9,2
		c3.1,1.4,6.2,2.6,9.2,4c2.5,1.1,4.9,2.4,7.7,2.6c0.7,0.1,1.4,0.3,2,0.5c1,0.3,2,0.7,2.9,1.1c0,0.5,0,1,0,1.5
		c-1.1-0.4-2.3-0.9-3.4-1.3c-0.5-0.2-1-0.4-1.5-0.4c-2.5-0.1-4.6-1.1-6.8-2c-2.9-1.3-5.9-2.7-8.8-4c-2-0.9-4-1.8-6-2.6
		c-0.6-0.3-1.4-0.3-2-0.5c-1.4-0.4-2.8-0.8-4.2-1.2c-2.1-0.6-4.2-1-6.3-1.7c-1-0.3-1.8-0.9-2.8-1.3c-2.3-0.9-4.6-1.8-7-2.7
		c-4.5-1.8-8.6-4.3-12.8-6.8c-2.5-1.5-5.2-2.5-7.7-3.9c-1.8-1-3.8-1.1-5.7-1.7c-1.8-0.6-3.5-0.7-5.3-0.6c-0.7,0-1.4,0.2-2.1,0.4
		c1.1,0.4,2.2,0.9,3.4,1.1c1.2,0.3,2.3,0.7,3.3,1.4c0.5,0.3,1,0.6,1.4,0.9c0.2,0.2,0.3,0.5,0.4,0.8c-0.3,0.1-0.6,0.2-0.9,0.2
		c-0.4-0.1-0.8-0.4-1.1-0.6c-1-0.7-2.1-1.3-3.4-1.6c-1.7-0.4-3.2-1.1-4.9-1.5c-1.7-0.4-3.4-0.7-5.1-1.1c-1.7-0.4-3.3-1.1-4.9-1.5
		c-0.6-0.2-1.3-0.2-2-0.3c0,1.1,0,2,0,3c0,0.4-0.1,0.9-0.6,0.8c-0.5-0.1-0.5-0.5-0.4-0.9c0.1-0.8,0.1-1.6,0.2-2.5
		c-1.4,0.4-2.5,0.8-3.7,1.1c-0.9,0.3-1.9,0.5-2.8,0.7c-0.6,0.2-1.2,0.2-1.2,1c0,0.1-0.3,0.3-0.4,0.3c-0.7,0-0.8,0.6-1.3,0.9
		c-0.9,0.6-0.7,1.4-0.6,2.1c0,0.3,0.3,0.7,0.6,0.9c0.7,0.4,1.4,0.7,2.1,1c0.9,0.4,1.8,0.3,2.7,0.1c0.5-0.1,1.2-0.1,1.7,0
		c0.6,0,1.2,0.2,1.7,0.2c1.2,0,2.3,0.3,3.5,0.5c1.6,0.3,3.2,0.5,4.8,0.7c0.5,0.1,1,0.2,1.5,0.4c0.2,0.1,0.4,0.4,0.6,0.6
		c-0.2,0.2-0.5,0.5-0.7,0.6c-0.2,0.1-0.4,0-0.7,0c-2.7-0.4-5.5-0.6-8.1-1.3c-1.2-0.3-2.5-0.1-3.8,0c-0.1,0-0.3,0.3-0.3,0.4
		c-0.2,1.1-0.5,2.1-0.7,3.2c-0.1,0.8,0,1.5,0.6,2c0.7,0.6,1.4,1.2,2.1,1.8c0.1-0.7,0.3-1.3,0.4-1.9c0-0.2,0-0.3,0.1-0.4
		c0.2-0.1,0.4-0.2,0.6-0.3c0.1,0.2,0.2,0.5,0.2,0.7c-0.1,0.8-0.3,1.6-0.5,2.5c1.3,0.2,2.4,0.4,3.5,0.6c1.9,0.4,3.8,0.8,5.7,1.2
		c0.5,0.1,1,0.1,1.4,0.2c0.2,0.1,0.4,0.5,0.6,0.7c-0.3,0.2-0.7,0.5-0.9,0.5c-2-0.4-4-0.9-6.1-1.3c-1.3-0.3-2.7-0.4-4-0.6
		c-0.3-0.1-0.7-0.2-1-0.3c-0.1,1.5,0,2.9,1,4.1c0.6,0.7,1.3,1.2,2.1,1.4c2.6,0.7,5.2,1.4,7.7,2.1c0.7,0.2,1.4,0.6,2.1,1
		c0.6,0.3,1.1,0.7,1.7,1.1c0.3,0.2,0.5,0.6,0.2,1c-0.4,0.4-0.8,0.3-1.1,0c-1.4-1.3-2.9-2.1-4.8-2.1c-0.5,0-1-0.2-1.6-0.3
		c0.5,0.7,1,1.3,1.4,1.9c1.7,2.1,3.6,4,6.1,5.2c2.3,1.2,4.8,1.9,7.4,2.2c0.8,0.1,1.7,0.4,2.5,0.4c1.4,0.1,2.9,0.1,4.3,0
		c1.2-0.1,2.4-0.5,3.6-0.7c1.9-0.4,3.8-0.8,5.7-1.1c0.5-0.1,1-0.1,1.4-0.2c1.2-0.4,1.6-1.5,2.3-2.3c0.2-0.3,0.4-0.7,0.7-0.9
		c0.1-0.1,0.5-0.1,0.7-0.1c0,0.3,0.2,0.6,0.1,0.8c-0.8,1.1-1.6,2.2-2.4,3.3c4.8,1.7,9.7,3.5,14.2,6.3c-1.3,0-2.5,0-3.6,0
		c-0.4-0.3-0.7-0.7-1-0.9c-2.2-1.5-4.9-2-7.3-3.1c-0.9-0.4-1.8-0.8-2.7-1.1c-2.2-0.6-4.3-0.2-6.5,0.3c-1.3,0.3-2.6,0.4-3.8,0.8
		c-2.2,0.7-4.3,0.7-6.5,0.2c-0.5-0.1-1-0.2-1.5-0.2c-2.7,0-5.2-0.9-7.6-2.2c-2.3-1.3-4.3-2.9-6.2-4.8c-0.8-0.8-1.9-1.4-2.2-2.6
		c-0.4-1.5-1.4-2.1-2.8-2.5c-1.7-0.4-3-1.4-3.8-3c-0.5-1-0.8-2.1-0.7-3.2c0.2-1.4-0.4-2.3-1.5-3c-1.3-0.7-1.4-2-1.2-3.3
		c0.2-1.1,0.5-2.2,0.8-3.4c-0.8-0.2-1.7-0.5-2.5-0.7c-0.6-0.1-1.2-0.2-1.8-0.3c-1-0.2-1.4-1.1-1.6-1.9c-0.2-0.9-0.1-1.9-0.2-2.9
		c-1.7-0.4-3.5-0.8-5.4-1.2c0,0.1,0,0.4,0,0.6c0,3,0.1,6.1,0,9.1c-0.1,2.9-0.4,5.8-1,8.7c-0.4,1.6-0.4,3.3-0.4,5
		c-0.2,5-0.4,10-0.5,15.1c0,0.8,0.2,1.5,0.3,2.3c0.1,0.4,0.1,0.9-0.4,1c-0.5,0.2-0.8-0.1-1-0.6c-0.2-0.6-0.3-1.2-0.3-1.9
		c-0.1-5.3,0.1-10.7,0.5-16c0.1-0.9,0-1.8,0.1-2.7c0.2-1.6,0.6-3.1,0.8-4.6c0.3-2.1,0.5-4.2,0.6-6.4c0.1-2.8,0.1-5.5,0.1-8.3
		c0-0.4-0.1-0.9-0.1-1.3c-0.1-0.7-0.5-1-1.2-1.2c-0.5-0.1-1-0.4-1.4-0.6c-3.6-1.9-6.9-4.2-9.7-7.2c-1.5-1.6-3.1-3-4.6-4.5
		c-0.8-0.7-1.4-1.6-2.2-2.3c-1.7-1.8-3.6-3.5-5.2-5.3c-1.2-1.3-2.2-2.9-3.3-4.3c-1.2-1.7-2.5-3.3-3.7-5.1c-2-2.9-3.4-6-3.3-9.7
		c0.1-1.2,0-2.4,0-3.6c0-0.6,0.1-1.2,0.2-1.8c0.2-1.1,0.4-2.2,0.5-3.3c0.4-2.8,1.8-5,4-6.7c0.7-0.5,1.3-1.1,2.1-1.6
		c0.7-0.5,1.5-0.8,2.2-1.3c0.7-0.4,1.4-0.8,2.1-1.1c0.4-0.2,0.9-0.3,1.4-0.4c1.6-0.1,3.1,0.6,4.7,0.9c3.4,0.6,6,2.5,8.6,4.6
		c1.6,1.3,3,2.7,4.6,3.9c1.9,1.5,3.6,3.3,5,5.4c0.6,1,1.4,2,2.2,2.9c0.1,0,0.1,0,0.2,0c0.1-0.4,0.3-0.8,0.3-1.2
		c-0.1-1.6-0.2-3.2-0.3-4.9c-0.1-1.1,0-2.2,0-3.3c0-2-0.3-3.9-1-5.8c-0.8-2.1-1.4-4.2-1.1-6.5c0.2-1.2,0.4-2.4,0.6-3.6
		c0.1-0.3,0.1-0.7,0.1-1c0-1.7-0.1-3.3-0.2-5c-0.1-1.1-0.3-2.1-0.5-3.1c-0.1-0.5-0.6-0.9-0.8-1.4c-0.3-0.6-0.4-1.2-0.7-1.7
		c-0.1-0.2-0.2-0.4-0.4-0.4c-0.7-0.3-1.5-0.6-2.2-0.9c-2.3-0.8-3.3-2.7-4.2-4.8c-0.7-1.6-0.3-3.2,0.2-4.8c0.3-1,0.3-2.1,1-2.9
		c0.4-0.4,0.7-1,0.9-1.5c0.1-0.3,0-0.7-0.2-1c-0.2-0.5-0.5-0.9-0.8-1.4c-0.7-1.3-1.5-2.6-2.2-3.9c-0.1-0.3-0.3-0.6-0.3-0.9
		c-0.1-2.6,0.3-5.2,0.9-7.8c0.8-3.3,2.9-5.6,5.6-7.5c0.9-0.6,1.9-1.2,2.9-1.7c0.6-0.3,1.3-0.2,2-0.3c1.3-0.1,2.2-1,3.3-1.6
		c0.8-0.5,1.5-1.1,2.2-1.7c0.4-0.4,0.7-0.8,1-1.2c0.2-0.2,0.4-0.5,0.7-0.6c0.9-0.5,1.8-1.1,2.7-1.6c1.4-0.7,2.8-1.3,4.2-1.9
		c0.2-0.1,0.4-0.2,0.5-0.3c0.5-1.2,1.7-1.6,2.7-2C56,2,57.5,1.6,59,1.3c3.1-0.7,6.2-1.4,9.4-1.3c2.3,0.1,4.6,0.1,6.9,0.2
		c0.9,0,1.9,0.2,2.8,0.3c0.7,0.1,1.4,0.3,2,0.5c0.6,0.1,1.3,0.3,1.9,0.3c2-0.1,4,0.2,5.9,0.8c0.7,0.2,1.4,0.6,2.1,0.9
		C92,3.7,93.7,4.3,95.5,5c0.7,0.3,1.3,0.6,1.9,1c1.7,0.8,3.5,1.5,5.1,2.5c2.6,1.5,5.3,2.8,7.3,5.1c0.8,0.9,1.5,2,2.5,2.9
		c2.1,1.9,3.5,4.4,5.4,6.4c1.6,1.7,2.9,3.5,4.3,5.3c0.4,0.5,0.9,1,1.4,1.5c0.5,0.6,0.9,1.2,1.3,1.8c0.5,0.7,0.8,1.5,1.3,2.3
		c2.4,3.6,4.6,7.3,6.2,11.4c0.8,2.1,2.2,4,3.2,6c2,4.3,4.7,8.1,7.3,12.1c0.4,0.7,1.2,1.1,1.8,1.7c1.5,1.3,3.2,2.5,5.1,3.2
		c0.2,0.1,0.4,0.1,0.6,0.1C150,69.6,150,71,150,72.3z M3.5,90.4c0.1,1,0.1,1.7,0.3,2.3c0.6,2,1.1,4,2,5.9c0.8,1.9,1.8,3.7,3.4,5.1
		c0.5,0.4,0.9,1,1.3,1.5c0.7,1,1.2,2.3,2,3.2c2.5,2.7,4.6,5.7,7.4,8.1c1.6,1.3,2.9,3,4.4,4.5c2.9,3,6,5.7,9.8,7.6
		c0.8,0.4,1.7,0.5,2.5,0.8c0.2,0.1,0.4,0.1,0.5,0.1c2,0.6,3.9,1.1,5.9,1.8c0.8,0.3,1.5,0.4,2.2-0.1c0.3-0.2,0.7-0.3,1-0.4
		c0.9-0.2,1.8-0.5,2.7-0.7c0.5-0.1,0.8-0.3,0.8-0.9c0-0.4,0.3-0.8,0.4-1.1c0.6-1.5,1.2-3.1,0.8-4.8c-0.3-1.3-0.6-2.5-0.9-3.8
		c-0.4-1.8-1-3.5-2.1-5c-0.6-0.8-1.2-1.7-1.7-2.5c-1.6-2.6-3.2-5.1-4.8-7.7c-1-1.5-2-3-2.9-4.6c-1.1-2.1-2.5-4-4-5.8
		c-0.7-0.9-1.5-1.7-2.1-2.6c-1.4-2.1-3.1-3.9-5-5.5c-1.6-1.4-3.2-2.7-4.9-4c-1.1-0.9-2.2-1.9-3.4-2.7c-0.7-0.5-1.5-1.1-2.2-1.2
		c-1.5-0.2-3-1.1-4.6-0.6c-0.8,0.2-1.7,0.3-2.3,0.8c-1.3,1-2.5,2.2-3.6,3.4c-0.7,0.8-1.3,1.7-1.5,2.7C4.2,86.1,3.9,88.4,3.5,90.4z
		 M66.2,77.3c-0.6-0.4-1.4-0.6-1.9-1.1c-1.4-1.5-3.1-2.8-4.1-4.7c-0.2-0.3-0.4-0.6-0.6-0.9c-0.6-0.7-0.6-0.7-1.2,0
		c-0.1,0.1-0.2,0.1-0.3,0.2c-0.9,0.6-1.5,1.6-1.9,2.6c-0.4,0.9-0.9,1.9-1.4,2.8c-0.1,0.2-0.2,0.3-0.2,0.5c0.1,0.5-0.1,0.8-0.6,0.7
		c-0.5-0.1-0.8-0.4-0.7-0.9c0.1-0.3,0.2-0.6,0.3-0.9c0.4-0.9,0.9-1.7,1.3-2.5c0.7-1.7,1.9-2.8,3.2-4c-0.4-0.6-0.8-1.2-1.3-1.7
		c-0.2-0.3-0.6-0.6-0.9-0.6c-1.7-0.2-3.1-0.8-4.5-1.7c-1.5-1-2.5-2.3-3.5-3.7c-0.1-0.1-0.2-0.3-0.3-0.4c0,1.5,0.1,3,0.2,4.5
		c0,0.2-0.1,0.5-0.2,0.6c-0.2,0.1-0.5,0-0.7-0.1c-0.2-0.2-0.3-0.5-0.3-0.7c0-1.8-0.1-3.5,0-5.3c0-0.5-0.2-0.8-0.5-1
		c-0.5-0.3-1-0.7-1.5-1.1c-0.3-0.3-0.6-0.5-1-0.9c-0.1,0.3-0.4,0.6-0.3,0.8c0.2,1.4-0.5,2.7-0.7,4c0,0.2-0.4,0.6-0.6,0.6
		c-0.4,0-0.5-0.4-0.4-0.8c0.2-1,0.4-2,0.6-3c0.3-1.2,0.3-2.3-0.2-3.5c-0.1-0.4-0.2-0.7-0.3-1.1c-0.3-1.1-0.5-2.2-0.7-3.1
		c-0.8,0-1.5,0-2.2,0c-0.1,0-0.3-0.3-0.3-0.4c0-0.1,0.2-0.3,0.4-0.3c0.2-0.1,0.5-0.1,0.7-0.1c0.8-0.1,1.3-0.6,1.1-1.4
		c-0.4-1.7-0.8-3.4-1.2-5.1c-0.2-0.7-0.5-1.5-0.7-2.1c-0.2-0.1-0.4-0.1-0.7-0.2c-0.5-0.1-1-0.3-1.6-0.4c-0.4-0.1-0.6,0.2-0.6,0.6
		c0,0.6-0.1,1.2-0.1,1.8c-0.3,2.9,0.4,5.7,0.7,8.6c0.1,1.1,0.4,2.2,0.6,3.2c0.1,0.7,0.1,1.4,0.1,2.1c0.1,0.7,0.4,1.5,0.4,2.2
		c0.1,2.5,0,5-0.4,7.5c-0.2,1.3-0.2,2.6,0,3.9c0.1,1.1,0.6,2.1,0.8,3.1c0.4,2.6,0.8,5.1,1.1,7.7c0.2,1.5,0.1,3,0.3,4.5
		c0.1,1.5,0.3,3-0.2,4.4c-0.4,1.1-0.2,2.2,0.6,3.2c1.3,1.6,2.3,3.5,3.4,5.2c1.9,2.8,3.8,5.5,5.7,8.3c1.8,2.7,3.2,5.8,4.5,8.8
		c0.5,1.2,1.1,2.5,1,3.9c0,0.4,0.1,0.8,0.2,1.3c0.5,2.2,0.3,4.4,0.2,6.5c0,0.2,0.2,0.6,0.4,0.6c0.3,0.1,0.7,0.1,1,0
		c0.2-0.1,0.1-0.6,0.1-0.9c0-0.1,0-0.2,0-0.3c-0.1-1.7-0.1-3.3-0.3-5c-0.1-0.9-0.5-1.9-0.5-2.8c0-2.9,0.1-5.8,0.1-8.7
		c0.1-1.9,0.2-3.8,0.3-5.8c0.1-1.4,0.1-2.8,0.2-4.1c0.2-1.7,0.6-3.4,0.9-5c0.1-0.3,0.1-0.6,0-0.9c-0.1-0.3-0.3-0.6-0.5-0.7
		c-0.4-0.3-1-0.4-1.4-0.7c-1.1-0.8-2.4-0.6-3.7-0.6c-1.5-0.1-3.1,0.6-4.6-0.4c-0.2-0.1-0.3-0.3-0.5-0.5c0.3-0.1,0.5-0.3,0.8-0.3
		c0.1,0,0.3,0.1,0.4,0.2c0.6,0.4,1.3,0.4,2,0.3c0.8-0.1,1.6-0.2,2.4-0.2c1.6,0.1,3.2,0.2,4.5,1.2c0.2,0.1,0.4,0.2,0.6,0.2
		c0.6,0.1,1.1,0.1,1.6-0.5c0.6-0.8,1.3-1.5,2-2.2c0.9-0.9,1.6-1.9,2.1-3.2c0.7-1.8,1.4-3.6,2.1-5.3c0.3-0.7,0.4-1.3,0.6-2
		C65.9,79.2,66,78.3,66.2,77.3z M81.4,132.8c-0.3-0.7-0.6-1.2-0.8-1.8c-0.3-1.3-0.4-2.7-0.6-4c-0.4-2.2-0.8-4.4-1.1-6.7
		c-0.3-2-0.5-4-0.9-5.9c-0.5-2.6-1.3-5.1-1.8-7.6c-0.5-2.5-1.4-4.8-2.2-7.2c-0.5-1.6-1.1-3.2-1.5-4.8c-0.4-1.5-0.6-3-0.8-4.5
		c-0.1-0.5-0.1-0.9-0.7-0.4c-0.4,0.3-0.9,0.5-1.2,0.9c-0.5,0.8-0.9,1.6-1.3,2.4c-1.1,2.4-2.1,4.9-3.1,7.3c-0.5,1.3-1,2.6-1.4,3.8
		c-0.3,0.8-0.5,1.6-0.8,2.4c-0.6,1.6-1.4,3.1-2,4.6c-1.1,3.2-2,6.4-2.2,9.8c-0.1,2.2-0.2,4.3-0.3,6.5c0,1.4,0.2,1.8,1.5,2.3
		c1.9,0.7,3.8,1,5.8,0.8c1.3-0.2,2.6-0.4,3.9-0.5c1.4-0.1,2.8-0.1,4.2,0.3c1.7,0.5,3.5,0.8,5.3,1.3C80,132,80.6,132.4,81.4,132.8z
		 M50.6,129.3c0.6-0.2,1.2-0.2,1.6-0.4c0.5-0.3,1.3-0.2,1.4-1.1c0.1-0.7,0.1-1.4,0.1-2.1c0-2.2-0.4-4.3-0.9-6.5
		c-0.7-2.7-1.7-5.3-3.1-7.8c-1.2-2.2-2.5-4.3-3.9-6.4c-1.4-2.1-3-4.2-4.5-6.3c-2.2-3.1-4.4-6.2-6.4-9.4c-1.2-1.8-2.4-3.5-4-4.9
		c-0.9-0.8-2-1.5-2.9-2.3c-1.6-1.4-3.2-2.9-4.8-4.2c-1.6-1.3-3.3-2.4-5.4-2.8c-0.9-0.2-1.9-0.5-2.8-0.7c-1.5-0.3-2.9-0.7-4.3,0.4
		c-0.4,0.3-0.8,0.4-1.3,0.7c-0.7,0.4-1.5,0.8-2.2,1.3c-0.6,0.4-1.1,0.9-1.7,1.3c-2.4,1.7-3.7,4-3.8,7c0,0.4-0.2,0.9-0.2,1.3
		c-0.1,1-0.3,2-0.4,3c-0.1,1.1,0.1,2.3,0,3.4c-0.2,2.7,0.7,5.1,2.1,7.3c2,3.1,4,6.1,6.3,9.1c1.5,2,3.4,3.8,5.2,5.6
		c2.4,2.4,4.9,4.6,7.2,7c2.1,2.1,4.1,4.3,6.6,5.9c1.3,0.8,2.6,1.7,3.9,2.6c0.1,0.1,0.3,0,0.5,0c0-0.2,0-0.4-0.1-0.5
		c-1.3-0.9-2.7-1.9-4.1-2.8c-0.2-0.1-0.4-0.3-0.6-0.4c-1.3-1-2.4-2.2-3.6-3.3c-2.3-2.2-4.2-4.9-6.9-6.8c-0.2-0.2-0.4-0.4-0.6-0.6
		c-1.3-1.5-2.6-3-3.9-4.5c-0.9-1.1-1.9-2.2-2.6-3.4c-0.8-1.4-1.7-2.8-3-4c-0.4-0.4-0.8-0.9-1.1-1.4C5.7,100.7,4.7,99,4,97.2
		c-0.9-2.5-1.8-5-1.4-7.7c0.3-1.6,0.6-3.2,0.9-4.8c0.3-2.2,1.5-3.8,2.9-5.3c0.6-0.6,1.1-1.2,1.8-1.7c1.6-1.4,3.4-2,5.5-1.7
		c1,0.1,2.1,0.5,3.1,0.8c0.4,0.1,0.8,0.2,1.2,0.4c2.1,1.1,3.8,2.6,5.5,4.1c1,0.9,2.1,1.8,3.2,2.6c1.9,1.4,3.6,3.1,5.1,5
		c0.6,0.7,1.2,1.6,1.8,2.3c1.3,1.6,2.7,3.2,4,4.9c1,1.4,1.8,3,2.7,4.4c0.8,1.2,1.6,2.5,2.4,3.7c1.6,2.6,3.2,5.2,4.8,7.7
		c1.3,1.9,2.7,3.7,3.2,6c0.4,1.7,0.9,3.4,1.2,5.1c0.2,1.1,0.1,2.2-0.1,3.3c-0.1,0.8-0.6,1.6-0.9,2.4C50.7,128.8,50.7,129,50.6,129.3
		z M68.3,77.8c-0.2,0.2-0.3,0.4-0.4,0.5c-0.5,0.2-0.6,0.5-0.7,1c0,0.4-0.1,0.8-0.2,1.1c-0.2,0.7-0.1,1.5-0.5,2
		c-0.9,1.2-1.5,2.5-1.9,4c-0.5,1.4-1.1,2.9-1.8,4.2c-0.7,1.1-1.7,2-2.5,3c-1.1,1.2-1.8,2.4-1.6,4.1c0.1,1,0,2.1-0.1,3.1
		c0,0.3-0.2,0.6-0.3,1c-0.3,1.4-0.7,2.8-0.8,4.2c-0.2,1.8-0.1,3.6-0.2,5.4c0,0.2,0,0.4,0,0.5c-0.5,2.5-0.3,5-0.2,7.6
		c0,0.3,0.2,0.6,0.3,0.9c0.2-0.4,0.2-0.7,0.3-1.1c0.3-1.8,0.6-3.6,1-5.3c0.4-1.5,1.2-3,1.7-4.4c0.8-2.1,1.8-4.2,2.3-6.4
		c0.5-2.1,0.9-4.2,2-6.2c0.4-0.8,0.7-1.6,1.1-2.5c0.3-0.7,0.5-1.4,0.9-2c0.9-1.3,2-2.6,2.9-3.9c0.4-0.5,0.7-1.2,0.7-1.8
		c-0.1-1.2-0.4-2.4-0.6-3.6C69.2,81.4,68.8,79.7,68.3,77.8z M58.3,57.5c-0.2-0.6-0.3-1.1-0.5-1.6c-0.1-0.1-0.3-0.3-0.5-0.3
		c-1,0.1-2,0.1-2.9,0.4c-1,0.3-1.9,0.7-2.8,1.2c-1.1,0.6-2,1.6-2.5,2.8c-0.3,0.7-0.1,1.3,0.5,1.9c1.2,1.1,2.3,2.3,3.8,3
		c0.2,0.1,0.5,0.1,0.8,0.2c0-0.3,0-0.5-0.1-0.8c-0.6-1.5-0.6-3.1,0.2-4.5c0.5-0.9,1.4-1.6,2.4-1.9C57.3,57.8,57.8,57.6,58.3,57.5z
		 M84,64.1c-0.1,0-0.1,0-0.2,0c-0.7,0.8-1.6,1.5-2.2,2.4c-0.6,0.8-1.2,1.7-1.7,2.7c-0.3,0.6-0.5,1.2-0.8,1.7c-0.6,1.2-1.3,2.4-2,3.6
		c-0.3,0.6-0.2,0.9,0.4,1c0.5,0.1,1.2,0.2,1.6,0c1.6-0.8,2.7-2.4,2.9-4c0.2-1.7,0.5-3.3,1.1-4.9C83.5,65.7,83.7,64.9,84,64.1z
		 M82.3,64.5c-0.1,0-0.1-0.1-0.2-0.1c-0.5,0.2-0.9,0.5-1.4,0.7c-0.3,0.1-0.6,0.2-0.8,0.3c-1.2,0.8-2.4,1.7-3.7,2.4
		c-1,0.5-1.6,1.2-1.9,2.2c-0.1,0.4-0.5,0.9-0.9,1c-0.6,0.2-0.7,0.6-0.5,1c0.4,0.7,0.8,1.4,1.4,2c0.5,0.5,1.2,0.2,1.4-0.5
		c0.6-1.3,1.1-2.7,1.8-3.9c0.5-0.9,1.3-1.7,2-2.5C80.4,66.2,81.4,65.4,82.3,64.5z M58.5,58.5c-0.7,0.4-1.4,0.8-2,1.3
		c-0.1,0.1-0.2,0.5-0.1,0.6c0.6,0.5,1.2,0.9,1.8,1.3c0.1-0.5,0.2-1,0.4-1.4C59.1,59.7,59.1,59.2,58.5,58.5z"/>
	<path class="st0" d="M62.1,44.7c0-1.5,0.8-2.6,1.5-3.8c1-1.5,2.4-2.3,3.9-3.2c0.3-0.2,0.6-0.6,0.9-0.7c1.1-0.4,1.5,0,1.3,1.1
		c-0.2,1.9-0.8,3.7-1.7,5.4c-0.5,0.9-0.8,1.9-1.3,2.7c-0.5,0.9-1.1,1.6-1.7,2.4c-0.1,0.2-0.2,0.5-0.4,0.6c-0.2,0.2-0.5,0.4-0.8,0.4
		c-0.1,0-0.4-0.3-0.5-0.5c-0.3-0.6-0.6-1.1-0.7-1.7C62.4,46.6,62.3,45.7,62.1,44.7z M68.4,39.7c-0.1,0-0.1,0-0.2-0.1
		c-0.8,0.6-1.5,1.1-2.3,1.7c-0.5,0.4-0.5,1.1-0.1,1.4c0.4,0.3,0.8,0.5,1.3,0.8C67.5,42.3,67.9,41,68.4,39.7z"/>
	<path class="st0" d="M55.4,44c0-3,1.1-5.6,2.7-8c1-1.5,2.4-2.6,3.9-3.6c0.7-0.5,1.4-1,2.2-1.5c0.1-0.1,0.3-0.2,0.5-0.2
		c0.2,0,0.4,0.1,0.6,0.2c-0.1,0.2-0.3,0.3-0.4,0.5c-0.7,0.6-1.5,1.2-2.2,1.8c-0.5,0.4-0.9,0.8-1.3,1.2c-0.7,0.7-1.4,1.3-2.1,2
		c-0.2,0.2-0.3,0.6-0.4,1c-0.4,1.1-0.9,2.2-1.1,3.4c-0.2,1.5-0.2,3-0.3,4.4c0,0.3-0.2,0.7-0.4,1c-0.5,0.6-1.3,0.4-1.5-0.3
		c-0.1-0.3-0.1-0.6-0.2-0.9C55.4,44.7,55.4,44.4,55.4,44z"/>
</g>
</svg>
