<?xml version="1.0" encoding="utf-8"?>
<!-- Generator: Adobe Illustrator 19.2.0, SVG Export Plug-In . SVG Version: 6.00 Build 0)  -->
<svg version="1.1" id="Layer_1" xmlns="http://www.w3.org/2000/svg" xmlns:xlink="http://www.w3.org/1999/xlink" x="0px" y="0px"
	 viewBox="0 0 150.2 146.1" style="enable-background:new 0 0 150.2 146.1;" xml:space="preserve">
<style type="text/css">
	.st0{fill:#E91E63;}
</style>
<g id="headache-flu-lady">
	<path class="st0" d="M0.6,94.9c0,1.2-0.2,2.5-0.1,3.7c0.1,1,0.4,1.9,0.6,2.8c0.4,1.8,0.7,3.7,1.1,5.5c0.9,3.7,1.7,7.4,2.8,11.1
		c0.8,3,1.5,5.9,2,9c0.5,2.7,1.2,5.4,2,8c0.8,2.8,1.8,5.5,2.7,8.3c0.3,1,0.5,1.9,0.8,2.8h0.7c-0.5-1.9-1-3.8-1.8-5.6
		c-1-2.2-1.6-4.6-2.3-7c-0.6-2.2-1.2-4.3-1.5-6.5c-0.5-3.3-1.1-6.5-2.1-9.6c-1.8-6.1-3.4-12.2-4-18.5c-0.2-2.5-0.1-5.1,0.1-7.6
		c0.1-1,0.6-1.9,0-3.2c-0.7-1.5-0.9-3.3-0.9-5c-0.1-5.2-0.1-10.4-0.1-15.6c0-0.4,0.1-0.8,0.2-1.2c0.9-2.8,1.7-5.7,2.8-8.4
		c1.7-4.3,4.2-8.2,7.4-11.6c2-2.1,3.9-4.2,5.9-6.3c1.1-1.2,2.3-2.4,3.5-3.6c0.3-0.3,0.7-0.6,1.1-0.6c1.3,0,1.7-0.9,2.3-1.7
		c0.2-0.3,0.6-0.7,0.8-0.6C26.4,34,28,33,29.3,32c2-1.5,4-3.1,5.1-5.5c1.1-2.2,2.7-3.9,5.4-4.1c1.6-0.1,3.2-0.4,4.8,0.8
		c3.8,3,4.7,8,3.4,12.4c-0.1,0.4-0.2,0.8-0.3,1.3c-0.2,1.7-0.9,3.2-2,4.5c-1.2,1.4-2.5,2.8-3.7,4.3c-1.1,1.4-2.3,3-3.2,4.6
		c-1.5,2.6-2.4,5.4-3.2,8.3c-0.8,2.6-1.6,5.2-2.6,7.7c-0.8,1.9-1.3,3.9-1.4,6c-0.1,2.8-0.1,5.5-0.4,8.3c-0.2,2-0.6,4-1.1,6
		c-0.9,3.4-1.7,6.8-2.8,10.1c-1.3,3.6-2.7,7.1-4.9,10.2c-1.8,2.6-3.6,5.3-5.4,7.9c-0.3,0.4-0.7,0.8,0.1,1.2c0.6-1,1.1-2.1,1.8-3
		c1.6-2.3,3.5-4.5,4.9-6.9c3-5.1,5.1-10.6,6.3-16.4c0.3-1.3,1.2-1.7,2.4-1c0.8,0.5,1.5,1.1,2.2,1.7c0.6,0.5,1.2,1.1,1.9,1.6
		c3.4,2.4,6.2,5.3,8.4,8.9c1.4,2.4,2.3,5,2.8,7.9c-3.1,0-6.3,0.5-9.1-1.8c2.2,2.7,5,3.8,8.5,3.5c0.2,0,0.7,0.2,0.8,0.4
		c0.4,1.1,0.8,2.2,1.2,3.3c1.4,3.9,3.5,7.4,6.3,10.5c3.4,3.9,7.2,7.5,11.8,9.9c1.9,1,4,1.5,5.9,2.5c1.2,0.6,1.9,0.6,2.9-0.2
		c1.4-1,3.1-1.6,4.5-2.5c3.3-2.1,6.4-4.6,8.8-7.7c0.8-1.1,1.3-2.2,1.2-3.5c-0.3-3.7-0.6-7.3-0.9-11c-0.4-3.9-0.3-7.7,0.3-11.6
		c1.5,0.3,3.1,0.6,4.6,0.9c0.3,0.1,0.7,0.2,0.8,0.1c0.2-0.2,0.3-0.6,0.2-0.9c-0.8-2.5-0.6-5.1-0.3-7.6c0.6-5,2.6-9.6,5-14
		c0.7-1.3,1.9-2,3.4-2.3c2.4-0.4,4.8-0.9,7.2-1.3c3.9-0.6,7.3-2.1,10.3-4.6c1.2-1.1,2.6-1.8,4.3-2.1c1.4-0.2,2.8-0.4,4.2-0.7
		c0.3-0.1,0.5-0.4,0.8-0.6c-0.3-0.1-0.6-0.2-0.9-0.2c-0.3,0-0.6,0.1-0.9,0.2c-2,0.5-4,0.9-6,1.3c-0.3,0-0.7-0.2-0.9-0.5
		c-1.8-3-3.6-5.9-5.3-8.9c-0.6-1.1-1.4-2.1-2.5-2.9c-2-1.4-3.8-3.1-5.1-5.2c-0.6-1-1.1-2.2-1.8-3.2c-0.5-0.8-1.1-1.9-2.2-1.8
		c-1.3,0.1-2.2-0.4-3.3-0.9c-1.4-0.6-3-0.8-4.6-1.1c-2-0.5-3.8-1.1-4.3-3.5c-0.2-1.2-0.4-2.4-0.6-3.6c-0.2-1.7-0.3-3.4-0.7-5.1
		c-0.4-1.5-0.3-3-0.3-4.5c0-1,0.3-1.9,1-2.6c0.9-0.9,1.8-1.8,2.8-2.7c0.7-0.7,1.6-0.8,2.4-0.3c0.7,0.5,1.2,1.2,1.9,1.7
		c1,0.8,2,1.7,3.1,2.4c1.2,0.8,2.5,1.4,3.8,2.1c1.2,0.7,2.5,1.3,3.8,1.9c2.9,1.2,5.8,2.3,8.6,3.7c1.6,0.8,2.9,2.2,4.4,3.2
		c3.9,2.6,7.8,5.1,11.6,7.7c1.8,1.2,3.4,2.7,5,4.1c1.5,1.3,2.7,2.9,4.2,4c2.9,2.1,4.3,5,4.7,8.3c0.5,4-0.2,7.9-1.6,11.7
		c-0.7,1.8-1.2,3.6-2,5.3c-1.2,2.7-2.6,5.3-3.9,8c-0.9,2-1.9,3.9-3,5.8c-0.7,1.2-1.4,2.3-2.2,3.3c-1.2,1.4-2.6,2.7-3.8,4.1
		c-1.1,1.3-2.2,2.6-3.3,3.8c-2,2.2-3.9,4.4-5.8,6.6c-0.8,0.9-1.3,2.1-2.1,3.1c-1.4,1.9-2.9,3.7-4.3,5.6c-0.5,0.7-0.8,1.6-1.1,2.4
		c-0.4,0.9-0.6,1.8-1,2.9c-0.2-0.3-0.3-0.5-0.4-0.6c-1.1-2.2-2.2-4.5-3.3-6.7c-0.5-0.9-1.1-1.8-1.4-2.8c-1.8-5.3-3.4-10.6-3.3-16.3
		c0-0.7-0.1-1.6-1-2.3c-0.1,0.7-0.2,1.2-0.2,1.6c0.3,3.2,0.4,6.5,1.2,9.7c0.8,3,1.6,6,2.9,8.8c1.4,3,3,6,4.4,9.1
		c0.3,0.6,0.2,1.5,0.2,2.2c-0.1,0.7-0.4,1.5-0.5,2.2c-0.7,3.5-1.3,7-2,10.5c-0.4,2.1-0.7,4.2-1.1,6.3c0,0.2-0.1,0.5-0.1,0.7h1.8
		c0.4-1.5,0.9-3.1,1-4.6c0.3-3.6,1.1-7,1.8-10.4c0.4-1.8,1-3.7,1.5-5.5c0.6-2.3,1.2-4.6,2.6-6.6c1.5-2.1,3-4,4.6-6
		c1.7-2.2,3.4-4.4,5.2-6.5c3.2-3.6,6.5-7.2,9.7-10.8c0.6-0.7,1.1-1.6,1.5-2.4c1-2,2-4.1,3.1-6.1c0.9-1.8,2-3.5,2.8-5.4
		c1.3-2.9,2.4-6,3.4-9c0.6-1.9,1.1-3.9,1.4-5.9c0.2-1.7,0.2-3.4,0-5.1c-0.3-3.4-1.5-6.3-4.1-8.6c-1.6-1.4-3.1-2.9-4.6-4.3
		c-1-0.9-2-1.9-3-2.8c-1.6-1.5-3.8-2.2-5-4.2c-0.1-0.1-0.3-0.2-0.4-0.3c-0.9-0.4-1.9-0.7-2.7-1.2c-2.8-1.7-5.6-3.1-7.9-5.4
		c-0.6-0.6-1.3-1.1-2.1-1.4l-9-3.9c-1.1-0.4-2.2-0.9-3.2-1.4c-1.6-0.8-3.1-1.7-4.6-2.6c-2.2-1.4-4.3-2.9-5.2-5.6
		c-0.1-0.4-0.2-0.9-0.3-1.3c-0.2-0.9-0.4-1.8-0.7-2.6c-0.5-1.4-1.2-2.8-1.8-4.2c-0.6-1.3-1.4-2.3-2.9-2.4c-1.1-0.1-2.2-0.1-3.2-0.3
		c-0.9-0.1-2-0.2-2.6-0.8c-1.8-1.6-3.6-3.4-5.3-5.2c-1.4-1.5-3.3-1.9-5.2-2.5c-2.3-0.7-4.8-0.9-7.2-0.7c-2.8,0.2-5.5,1-7.6,3
		c-1.4,1.4-2.7,2.8-4,4.3c-0.5,0.5-1,0.6-1.5,0.3c-1.2-0.7-2.5-1.2-3.8-1.5c-3.5-0.9-6.6-0.3-9.5,1.8c-1.3,1-2.5,2.5-4.5,2.2
		c-0.1,0-0.2,0.1-0.3,0.1c-1.6,0.9-3.2,1.8-4.7,2.8c-1.2,0.8-2.3,1.8-3.3,2.9c-0.9,1-1.6,2.2-2.4,3.4c-0.4,0.5-0.9,1-1.1,1.6
		c-0.9,2.9-1.7,5.8-2.5,8.7c-0.1,0.2-0.1,0.4-0.1,0.6c-0.2,1.1-0.4,2.3-0.7,3.4c-0.1,0.5-0.7,0.8-1.1,1.1c-0.6,0.5-1.4,0.7-1.9,1.2
		c-1.3,1.3-2.5,2.6-3.7,3.9c-1.3,1.4-2.5,2.8-3.8,4.2c-1.9,2.1-3.9,4.1-5.5,6.3c-3.5,4.9-5,10.7-6.8,16.3c-0.1,0.2-0.1,0.3-0.1,0.5
		c0,4.4-0.1,8.9-0.1,13.4c0,1.4,0.1,2.9,0.4,4.3C1.2,88.3,0.8,91.6,0.6,94.9z M101.9,69.6c0.3-3,0.4-6.1,0.6-9.1
		c0.1-0.9,0.4-1.7,0.4-2.5c0.2-2.5,0.2-5,0.3-7.5c0-0.9-0.2-1.8-0.2-2.7c0-0.8,0.4-0.9,1.1-0.8c1.4,0.3,2.2,1.2,2.7,2.4
		c1.4,3.1,3.7,5.4,6.2,7.4c1.4,1.2,2.4,2.4,3.2,4c1,2.1,2.4,4,3.6,6c0.4,0.8,0.9,1.5,1.2,2.3c0.1,0.2-0.1,0.8-0.3,1
		c-3.4,3.2-7.6,4.3-12,4.9c-2,0.3-3.9,0.5-5.9,0.8c-1,0.2-1.2,0-1.2-1v-1.7h-0.1C101.6,71.9,101.8,70.8,101.9,69.6z M39.3,85.3
		c1.3,0.7,2.7,1.4,4,2c0.6,0.3,1.3,0.5,2,0.7c2.4,0.6,4.8,1.3,6.6,3.1c2.4,2.5,3.6,5.5,3.8,8.9c0.1,0.6,0.1,1.3,0.1,1.9
		c0.1,1.9-1.1,3-2.4,4c-0.5,0.4-1.1,0.4-1.4-0.3c-0.1-0.3-0.3-0.5-0.4-0.8c-1-2.7-1.9-5.4-3-8.1C47.9,95,47,93.4,46,91.9
		c-1.5-2.3-3.5-4.1-5.9-5.3c-0.4-0.2-0.7-0.6-1.1-0.9C39.1,85.6,39.2,85.4,39.3,85.3z M79.9,93.9c0.6,1.2,1.7,2.3,2.5,3.4
		c0.1,0.2,0.2,0.3,0.3,0.5c0.4,1.5,0.9,3,1.3,4.5c0.2,0.8,0.3,1.7,0.2,2.5c-0.5,4.4-0.8,8.7-0.5,13.1c0.1,1.5-0.3,2.9-1.2,4.2
		c-0.5,0.6-0.8,1.5-1.4,2.1c-1.7,1.6-3.3,3.1-5.1,4.4c-0.8,0.5-2.1,0.5-3,0.3c-1.7-0.4-3.4-1-5-1.7c-1.2-0.4-2.4-1-3.4-1.8
		c-2-1.6-3.9-3.3-5.3-5.6c-1.1-1.8-2.3-3.4-3.3-5.2c-0.8-1.4-1.4-3-2.1-4.5c-0.1-0.2,0.2-0.7,0.5-0.9c2.3-1.5,4.6-3,6.9-4.5
		c1.5-1,2.9-2,3.9-3.6c2.1-3.4,1.8-6.9,0.4-10.4c-1.1-2.8-2.8-5-4.6-7.3C57.2,78.5,54.5,73,53,67c-0.3-1-0.8-1.9-1.2-2.9
		c-0.1-0.3-0.2-0.5-0.3-1c0.4,0.3,0.6,0.4,0.7,0.4c3.6,4.7,8.4,8,13.7,10.5c1.7,0.8,3.4,1.8,5.1,2.5c2.2,0.9,4.4,1.2,6.7,0.5
		c0.8-0.2,1.1,0,1,0.7c-0.2,2.6-0.3,5.2-0.7,7.7C77.5,88.5,78.6,91.2,79.9,93.9z M47.3,105.3c-1.3-3.7-3.4-7.1-6.2-9.9
		c-1.5-1.6-3.1-3-5-4.2c-0.5-0.3-0.9-0.8-1.3-1.2c-1.6-1.7-2.3-2-4.5-2.3c0.3-1.8,0.6-3.5,0.9-5.3h0.4c0.9,0.7,1.8,1.4,2.6,2.3
		c1.4,1.5,3.1,2.5,5,3.3c4,1.8,6.7,4.9,8.4,8.8c1.4,3.2,2.6,6.4,3.9,9.7c0.1,0.2-0.1,0.8-0.3,0.9c-0.9,0.5-1.9,1-3,1.5
		C47.8,107.5,47.7,106.4,47.3,105.3z M89.6,123.6c0.1,1.1-0.3,2.1-1,2.9c-3.3,3.9-7.1,7.1-11.8,9.2c-0.2,0.1-0.4,0.1-0.6,0.3
		c-1.3,1.3-2.6,0.9-4.2,0.3c-4.7-1.8-8.9-4.2-12.5-7.7c-4.7-4.6-8.8-9.6-10.8-16c-0.1-0.6-0.4-1.1-0.7-1.8c1.5-0.4,2.9-0.7,4.4-1
		c0.5,1.1,1.1,2.3,1.7,3.5c0.4,0.8,0.9,1.5,1.4,2.2c1.1,1.7,2.2,3.3,3.2,5c1.4,2.3,3.3,4,5.4,5.6c2.2,1.7,4.6,3,7.3,3.7
		c3.1,0.8,5.6,0,7.9-2.2c1.8-1.7,3.1-3.8,4.3-5.9c0.6-0.9,0.7-2.1,0.8-3.2c0.2-1.6,0-3.3,0.1-4.9c0.1-2.6,0.4-5.3,0.4-7.9
		c0-1.3-0.2-2.7-0.4-4c-0.2-1.1-0.5-2.2-0.8-3.3c0.1-0.1,0.1-0.2,0.2-0.3c1.7,0.7,3.5,1.5,5.1,2.6c-0.2,2.7-0.6,5.4-0.5,8
		c0.1,3.7,0.5,7.4,0.8,11.1C89.4,121.1,89.5,122.4,89.6,123.6z M86.7,9.6c1.5,0.2,3.1,0.4,4.6,0.6c1.1,0.2,1.7,0.9,2.1,1.8
		c0.6,1.5,1.3,2.9,2,4.4c0.1,0.2,0.3,0.4,0.3,0.6c0.3,1.3,0.6,2.6,0.9,4c-2.8,0.2-6,3.4-6.7,6.6c-0.2-0.9-0.4-1.8-0.6-2.7
		c-0.2-1.1-0.5-2.1-0.7-3.2c-0.1-0.7-0.5-1.4-0.3-2c0.4-1.3,0-2.5-0.2-3.7c-0.1-0.7,0.1-1.2,0.5-1.7c0.3-0.3,0.6-0.7,0.8-1.1
		c0.1-0.2,0.1-0.5,0.1-0.7c-0.2,0.1-0.5,0.1-0.7,0.2c-0.4,0.4-0.7,0.8-1.2,1.4c-0.4-0.5-0.6-0.7-0.7-1c-0.4-0.8-0.7-1.6-1-2.4
		C85.6,9.8,85.8,9.5,86.7,9.6z M49.6,38.3c0.2-1.1,0.2-2.2,0.6-3.2c1.4-3.7,3-7.5,5.3-10.9c0.3-0.5,0.8-0.9,1.3-1.3
		c1.7-1.5,3.1-3,3.6-5.4c0.6-2.7,1.5-4.1,5.1-4.1c0.6,0,1.3-0.1,1.9-0.1c2-0.2,3.9-0.1,5.7,0.7c0.8,0.3,1.9,0.3,2.8,0.1
		c2.7-0.6,5,0.2,7.1,1.7c1.6,1.1,2.6,2.8,3.4,4.6c1.5,3.4,2.3,7,3.4,10.5c0.2,0.9,0.2,1.9,0.3,3.1c-0.6-0.5-1-0.8-1.5-1
		c-0.9-0.6-1.8-1.1-2.7-1.6c-0.5-0.3-1-0.5-1.5-0.9c-1.3-1.1-2.9-1.2-4.2-0.1c-0.2,0.2-0.4,0.7-0.3,1c0,0.2,0.5,0.5,0.8,0.5
		c1.1-0.1,2,0.3,2.9,0.7c1.6,0.6,3.2,1.1,4.7,1.7c1.3,0.5,2.1,1.4,2.3,2.9c0.4,2.5,0.9,4.9,1.4,7.4c0.6,2.6,0.6,5.2,0.1,7.8
		c-0.4,2.7-0.9,5.4-1.5,8c-0.2,1.2-0.9,2.3-1.3,3.5c-1.6,4.2-4.2,7.7-7.8,10.4c-3.2,2.3-6.7,3.3-10.5,1.2c-3.6-2-7.3-3.8-10.8-6.1
		c-2.8-1.8-5.3-4.1-7.3-6.9c-2.1-2.9-3.4-6-3.5-9.6c-0.1-2.8-0.5-5.6-0.5-8.4C48.9,42.4,49.3,40.4,49.6,38.3z M26.3,28.1
		c0.2-0.4,0.2-0.8,0.3-1.1c0.4-0.2,0.8-0.4,1.6-0.7c0.2,0.4,0.6,1,0.9,1.5c0.2-0.1,0.3-0.3,0.5-0.4c-0.4-0.5-0.7-1-1.1-1.5
		c-0.9-1-0.9-2.3-0.8-3.5c0.1-0.8,1.7-2,2.5-1.9c0.3,0,0.6,0.3,0.8,0.5c0.3,0.4,0.6,0.8,0.9,1.2c0.1-0.1,0.2-0.1,0.3-0.2
		c-0.2-0.4-0.3-0.8-0.6-1.1c-1.3-1.6-0.4-4.3,1.6-4.8c0.2-0.1,0.7,0.2,0.8,0.5c0.3,0.7,0.5,1.4,0.8,2.2c0.1,0,0.3-0.1,0.4-0.1
		c-0.2-0.5-0.2-1.1-0.5-1.6c-0.8-1.4-0.1-2.4,0.6-3.4c0.8-1,1.8-1.3,3.1-1.1c0.7,0.2,1.6,0.1,2.3-0.1c1.2-0.4,2.4-0.1,3.6,0.1
		c0.1,0,0.2,0.1,0.3,0.2c-0.4,0.7-0.8,1.4-1.1,2.1c-0.1,0.3,0,0.9,0.2,1.2c1.2,2.3,2.5,4.6,3.7,7c0.9,1.8,1,2.8,0.8,4
		c-0.3-0.5-0.6-1-0.9-1.4c-1.1-1.2-2.1-2.4-3.2-3.5c-0.2-0.3-0.7-0.5-1.1-0.6c-2.6-0.4-5.2-0.4-7.3,1.3c-1,0.8-1.7,2.1-2.4,3.2
		c-0.8,1.4-1.6,2.7-3,3.5c-0.6,0.4-0.9,1.1-1.5,1.5c-0.7,0.4-1.4,0.8-2.1,1c-0.2,0-0.9-0.6-0.9-1C25.7,30.1,25.7,29,26.3,28.1z"/>
	<path class="st0" d="M78.3,60.6c-2.7-0.2-5.1-0.4-7.5-0.7c-0.4,0-0.9-0.3-1.3-0.5c-0.8-0.5-1.5-1-2.3-1.5c-0.5-0.4-0.4-0.7,0-1
		c2-1.6,4-3.3,6.1-4.9c1-0.8,2-0.8,3.2-0.4c0.9,0.2,1.9,0,2.9-0.1c0.5,0,1.1-0.1,1.4,0.1c1.6,1.6,3.5,2.8,4.3,5.1
		c0.4,1,0.1,1.6-0.7,2.1C82.5,59.9,80.3,60.4,78.3,60.6z M68.1,57.2c0,0.1,0.1,0.2,0.1,0.4c2.5-1,4.9-2.3,7.8-2.5
		c2.9-0.1,5.5,0.3,8.2,1.4c-0.9-1.9-2.4-3-3.8-4.3c-0.1-0.1-0.5-0.1-0.7,0c-1.1,0.5-2.3,0.4-3.4,0c-0.9-0.4-1.8-0.3-2.5,0.3
		C71.9,54,70,55.6,68.1,57.2z M69.3,58.2c0.6,0.9,1.1,1.1,2.4,1.2c1.9,0.2,3.8,0.3,5.7,0.5c2.2,0.2,4.1-0.5,6-1.5
		c-0.6-0.1-1.3-0.1-1.9-0.3c-1.9-0.7-3.8-0.4-5.7-0.3C73.7,58,71.6,59.1,69.3,58.2z M84.1,57.7c-2.6-2.8-10.4-2.4-14,0
		c0.2,0,0.4,0.1,0.6,0.1c1.7-0.2,3.4-0.4,5.1-0.5c1.8-0.2,3.7-0.4,5.5,0.2C82.1,57.7,83.1,57.6,84.1,57.7z"/>
	<path class="st0" d="M58,39.2c0.2-0.3,0.5-0.5,0.7-0.8c1.6-1.8,3.5-3.1,5.7-3.9c1-0.4,2-0.7,3-0.8c1.5-0.2,3.6,2.4,3.2,3.9
		c0,0.2-0.3,0.5-0.5,0.5c-2.4,0.1-4.8,0.1-7.2,0.2c-1.6,0.1-3.3-0.3-4.7,1.1C58.2,39.4,58.1,39.3,58,39.2z M67.1,34.8
		c0.1,0.9,0.1,1.7,0.2,2.6c0.8-0.1,1.7-0.1,2.5-0.2C69.6,35.5,68.7,34.8,67.1,34.8z M64.3,37.6c-0.5-0.6-0.7-1.3-1.1-1.4
		c-0.6-0.2-1.6,0.7-1.7,1.4C62.3,37.6,63.1,37.6,64.3,37.6z"/>
	<path class="st0" d="M84.5,35.7c-1.5-0.6-2.9-0.4-4.4,0.3c0.2-1.1,0.8-1.5,1.7-1.5c2.4-0.1,4.6,0.6,6.1,2.6c0.7,0.9,1,2,1.5,3
		c0.1,0.1,0,0.3-0.1,0.4c-0.1,0.1-0.3,0.1-0.4,0c-2.2-1.3-4.7-1.4-7.2-1.5c-0.3,0-0.5-0.1-0.8-0.1c-0.5-0.1-0.9-0.3-1.4-0.4
		c0.4-0.4,0.6-0.9,1.1-1.2C81.7,36.4,83,35.8,84.5,35.7z M88,39.1c-0.3-0.6-0.3-1.1-0.6-1.4c-0.2-0.2-0.7-0.4-0.8-0.4
		c-0.3,0.4-0.5,0.8-0.7,1.3C86.6,38.8,87.1,38.9,88,39.1z M80.8,38c0,0.1,0.1,0.2,0.1,0.3c0.7,0,1.4,0,2.2,0
		c-0.2-0.4-0.4-0.8-0.7-1.3C81.8,37.4,81.3,37.7,80.8,38z"/>
	<path class="st0" d="M66.7,31.7c-3.1-0.1-5.5,0.4-7.6,2c-0.2,0.2-0.7,0.1-1.1,0.1c0.1-0.3,0.2-0.8,0.4-1c1.5-1.4,3.3-2.1,5.3-2.4
		c1.3-0.2,2.6-0.3,3.8-1c0.8-0.5,1.8-0.7,2.6-1.3c0.9-0.6,2.6,0.4,2.7,1.5c0,0.7-0.2,1.3-1,1.4c-0.7,0.1-1.5,0.1-2.2,0.2
		C68.4,31.4,67.3,31.6,66.7,31.7z"/>
	<path class="st0" d="M79.5,33.8c-0.1,0.5-0.1,1-0.2,1.4c-1.1,3-0.4,5.8,2.1,7.9c1.1,0.9,1.6,2.2,1.8,3.5c0.3,1.8-1.7,3.5-3.4,3.2
		c-0.2,0-0.4-0.3-0.5-0.4c0.9-0.4,1.8-0.6,2.5-1.1s1-1.4,0.5-2.3c-0.5-0.9-1-1.7-1.6-2.5c-0.8-1.2-1.7-2.4-2.4-3.6
		C77.7,38.5,78.3,35.1,79.5,33.8z"/>
	<path class="st0" d="M73.4,43.3c-0.3,0.3-0.6,0.6-0.8,1c-0.4,1-0.9,2.1-1,3.2c-0.2,1.2,0.3,1.5,1.5,1.6c0.6,0,1.1,0.1,1.7,0.2
		c0,0.2,0,0.4,0,0.5c-0.9,0-1.9,0-2.8-0.2c-0.4-0.1-0.8-0.6-0.9-1.1c-0.5-1.5,0.4-4.3,1.7-5.2c0.1-0.1,0.3-0.1,0.5-0.2
		C73.3,43.2,73.4,43.2,73.4,43.3z"/>
	<path class="st0" d="M76.3,48.9c-0.8-0.5-1.5-0.9-2.1-1.2c0.6-0.4,1.1-1,1.8-1.2c0.7-0.2,1.6,0.6,1.4,1.3
		C77.3,48.1,76.8,48.4,76.3,48.9z"/>
	<path class="st0" d="M80.4,46.7c1.1,0.6,1,1.2,0.4,1.7c-0.2,0.2-0.8,0-1.2-0.1C79.9,47.7,80.1,47.2,80.4,46.7z"/>
</g>
</svg>
