<?xml version="1.0" encoding="utf-8"?>
<!-- Generator: Adobe Illustrator 19.2.0, SVG Export Plug-In . SVG Version: 6.00 Build 0)  -->
<svg version="1.1" id="Layer_1" xmlns="http://www.w3.org/2000/svg" xmlns:xlink="http://www.w3.org/1999/xlink" x="0px" y="0px"
	 viewBox="0 0 150 202.7" style="enable-background:new 0 0 150 202.7;" xml:space="preserve">
<style type="text/css">
	.st0{fill:#8BC34A;}
</style>
<g id="girl-rubbing-nose">
	<path class="st0" d="M51.7,84.6c0.3,0.7,0.3,1.4,0.1,2.1c-1,0.5-2.2,0.5-3.1,0c-0.1-0.6-0.2-1.2-0.3-1.8
		C49.3,84.3,50.6,84.1,51.7,84.6"/>
	<path class="st0" d="M68.6,142.3c-0.5-0.3-0.9-0.7-1.3-1c-0.5-0.4-1.1-0.8-1.6-1.2c-0.6-0.5-1.2-1-1.9-1.3c-0.6-0.3-1.2-0.5-1.7-1
		c-0.5-0.4-0.8-1.1-0.6-1.8c1.6-0.3,3.2,0.7,4.4,1.7c1.3,1,2.5,2.2,4.1,2.5c0.7,0.2,1.6,0.3,1.7,1c0.1,0.6-0.5,1.1-1.2,1.2
		C69.9,142.4,69.2,142.2,68.6,142.3"/>
	<path class="st0" d="M84.6,77.4c0,0.3,0.1,0.6,0.1,0.9c-3.3,1.3-6.7,2.2-10.2,3c-0.6,0.1-1.3,0.3-1.9,0.4c-1.4,0.3-2.8,0.5-4.2,0.5
		c0-0.5,0-0.9,0-1.4c3.7-1.5,7.7-2.6,11.6-3.3C81.6,77.2,83.2,77,84.6,77.4"/>
	<path class="st0" d="M114.2,127.8c0.6,1-0.1,2.2-0.8,3.1c-0.5,0.7-1,1.3-1.4,1.9c-1.8,2.4-3.6,4.9-6,6.7c-0.1,0.1-0.3,0.2-0.5,0.3
		c-0.5,0.1-1-0.5-0.9-1.1c0.1-0.5,0.4-1,0.8-1.4c2.4-2.7,4.7-5.5,6.8-8.4C112.9,128.6,113.5,128.2,114.2,127.8"/>
	<path class="st0" d="M43.5,71c0.5,0.4,1,0.9,1,1.5s-0.9,1.1-1.3,0.6c-0.4,0.7,0,1.6,0.5,2.2c1.7,2.4,3.8,4.4,6.2,6
		c0.2,1-1,1.9-2.1,1.7c-1-0.2-1.8-0.9-2.5-1.7c-0.6-0.7-1.2-1.4-1.8-2.1c-1.3-1.7-2.4-3.5-2.8-5.5c-0.2-0.9-0.2-1.9,0.3-2.6
		C41.7,70.3,43,70.2,43.5,71"/>
	<path class="st0" d="M59.2,114.4c-1-2.8-1.5-5.8-1.7-8.8c0.5-0.1,0.9-0.3,1.3-0.4c0.7,1.3,1.1,2.8,1.4,4.2c0.4,1.7,0.7,3.5,1.1,5.2
		c0.1,0.3,0.1,0.6,0.1,0.9c0,1.1-0.6,2.1-0.7,3.2c-0.9,1.1-1.7,2.2-2.6,3.2c-0.5,0.6-1.1,1.3-1.9,1.3c-0.1-0.8-0.1-1.6,0-2.4
		c1.7-1.5,2.8-3.6,3-5.8C59.2,114.9,59.3,114.7,59.2,114.4"/>
	<path class="st0" d="M79.2,73.1c1.7-0.1,3.5-0.2,4.9,0.8c0.4,0.2,0.3,0.8,0,1.1c-0.3,0.3-0.8,0.3-1.2,0.4c-2.5,0.2-4.9,0.4-7.4,0.6
		c-1.3,0.1-2.6,0.2-3.9,0.3c-0.7,0-1.4,0-2.1,0.2c-1.8,0.3-3.4,1.4-5.1,1.6c-0.1-0.9,0.4-1.9,1.1-2.5s1.6-1,2.5-1.2
		c1.6-0.4,3.2-0.5,4.8-0.7C74.9,73.5,77,73.3,79.2,73.1"/>
	<path class="st0" d="M109.2,67.6c0.4,1.1,0.6,2.4-0.1,3.4c-0.4,0.5-1,0.9-1.6,1.2c-3,1.5-6.4,2.5-9.8,2c0-1.3,0.6-2.7,1.6-3.6
		c0.4-0.3,0.8-0.6,1.2-0.9c1.7-1.1,3.4-2.3,5.4-2.4C107.1,67.2,108.2,67.4,109.2,67.6 M106.2,69.3c-0.2,0-0.4,0.1-0.6,0.3
		c-0.3,0.3-0.2,0.8-0.1,1.1c1,0.3,2.2-0.4,2.5-1.4C107.5,69.1,106.8,69.1,106.2,69.3 M102.6,71.9c-0.7-0.4-1.6-0.4-2.4,0
		c-0.3,0.2-0.6,0.4-0.7,0.8C100.5,72.8,101.7,72.6,102.6,71.9"/>
	<path class="st0" d="M8.1,180.1c0.4,1.6,1.5,2.9,2.6,4.1c2.7,3.1,5.2,6.3,7.7,9.5c1.8,2.2,3.5,4.5,4.8,7.1
		c-0.5,0.4-1.3,0.4-1.9,0.1c-0.6-0.3-1.1-0.9-1.5-1.4c-4.1-5.2-8.2-10.4-12.3-15.5c-0.5-0.6-0.9-1.2-1.1-1.9s-0.1-1.6,0.4-2.1
		C7.2,180,7.6,180.1,8.1,180.1"/>
	<path class="st0" d="M148.5,151.2c-1-5.3-2.4-10.6-5.6-15c-2-2.8-4.7-5-7.6-6.9c-5.5-3.6-11.8-6.1-18.4-7
		c-3.9-0.6-8.2-0.8-10.9-3.6c3.7,0.9,7.9-0.3,10.6-3c2.5-2.6,3.6-6.4,2.8-9.9c-0.6-1.2-1.6-2.1-2.6-3.2c-0.5-0.5-0.3-1.4,0.4-1.6
		c0.5-0.2,0.6-0.6,0.6-1c0-0.1-0.1-0.3-0.1-0.4c-0.4-1.2-1.9-2.7-2.3-3c-0.1,0-0.1-0.1-0.1-0.1c-1,0.3-1.4-0.9-0.9-1.6
		c0.7-0.6,1.1-1.4,1.3-2.4c-0.2-0.6-0.3-1.2-0.5-1.8c4-1.7,8-3.4,12-5.1c1.2-0.5,2.6-1.2,3.1-2.4c1.3-2.9-3.2-5.3-6.3-4.4
		c-3.1,0.9-5.8,3.4-9,3.3c-1.3-13-2.6-26-3.9-39c0-0.5-0.1-0.9-0.2-1.4c0.1-0.5,0.1-1.2-0.2-1.8c-0.1-0.1-0.1-0.2-0.2-0.3
		C107,20.8,90,5.3,71,3.9c-3-0.2-6.2-0.1-9.1-1.1c-1.6-0.6-3.2-1.5-4.8-2.1c-4.6-1.6-9.7-0.2-13.8,2.4c-4,2.7-7.2,6.5-10.2,10.2
		c-3.3,4-6.6,8.1-8.8,12.8c-2.1,4.6-3,9.8-3.7,14.8c-1.7,11.8-2.6,23.8-0.8,35.6s6.3,23.4,14.3,32.1c2.2,2.4,1.9,6.4,0.2,9.2
		c-1.7,2.8-4.5,4.8-7.2,6.7c-10.1,7.4-20,16.2-23.9,28.1c-1.4,4.4-1.9,9-2.4,13.6c-0.9,9.8-1.2,19.7-0.9,29.6c0,1.1,0.1,2.3,0.8,3.2
		c0.7,0.8,2.4,0.9,2.8-0.2c-0.7-2.4-1-4.9-0.9-7.4c2.9,3.8,8.2,5.4,12.7,4c-2.3-3.2-9-1.3-10.3-5c-6.9-20.3-0.3-44.5,15.9-58.5
		c0.7-0.6,1.5-1.2,2.4-1.3c1-0.1,2,0.5,2.9,1c9.7,6.1,19.9,12.7,24.6,23.1c-5.4-6.4-11.9-11.9-19.1-16.1c3.1,4.6,7.8,7.9,11.7,11.8
		c13.9,13.5,18.6,33.9,30.3,49.4c1,1.3,2.3,2.8,4,3c-4.2-7.3-8.5-14.6-12.7-21.9c-3.1-5.3-6.1-10.6-8.3-16.3
		c-1.5-3.9-2.6-8-4.5-11.8c-5.4-10.9-16.3-17.9-26.8-24.2c0.1-1.6,1.9-2.7,3.5-2.6c1.6,0.1,3,1,4.3,1.9c13.1,9.2,24,21.5,31.4,35.7
		c2.5,4.8,4.9,10.1,9.5,12.9c4,2.4,2.9,8.3,2.9,13c0,3.8,1.2,7.5,3.4,10.7c-1.1-16.1-2.2-32.3-3.3-48.4c-0.2-3.5-0.5-7-0.4-10.6
		c0.2-5.6,1.2-11.2,2.3-16.7c1.6-8.2,3.1-16.4,4.7-24.6c0.5-2.7,1.1-5.6,2.9-7.7c2.4-2.8,6.9-3.6,10.1-1.7
		c-4.9,2.3-8.9,6.6-10.6,11.7c7.2-8.2,17.1-13.6,27.3-17.4c1.8-0.7,3.8-1.3,5.7-1.6c1.4-0.6,2.8-0.9,4.3-0.2c1.2,0.1,2.3,0.4,3.4,1
		c-1,0.3-2.1,0.6-3.1,1h-0.1c-9.5,3.1-18.7,7.3-27.3,12.5c5.8-1.9,11.6-3.8,17.3-5.7c0.9,0.6-0.2,1.8-1.1,2.3
		c-7.4,3.6-14.9,7.2-22.4,10.9c4.3,0.3,8.8-0.9,12.4-3.4c2.2-1.4,4.1-3.3,6.7-4c2.5-0.7,5.8,0.5,6.1,3.2c-7.4,1-14.3,5.1-18.6,11.1
		c3.4-0.8,6-3.4,8.8-5.5c2.8-2.1,6.5-3.8,9.7-2.5s4,7,0.7,8c-0.3-2.5-4.2-2.3-6.2-0.8c-5.1,3.7-7.3,10.1-8.6,16.2
		c-1.3,6.1-2,12.5-5,18c-1.2,2.1-0.6,4.7,0,7.1c3.8,14,7.6,28,11.3,42c0.5,1.9,1.6,4.2,3.5,4.1c-2.3-8.5-4.6-17-7-25.6
		c0.5,0.6,2,0.9,2.9,0.4c4.8-2.6,6.6-8.5,7.8-13.8c2.5-11.3,4.2-22.8,5.1-34.4c2.3,0.7,4.6,1.4,6.9,2.1c-2.9,3.2-3.5,7.9-4,12.2
		c-0.9,7.5-1.8,15-2.7,22.6c-0.5,4.6-0.3,10.6,4,12.1c3.4,1.2,5.3,5,5.5,8.7c0.1,3.6-1.3,7.1-2.6,10.5c0.5,1.6,2.8-0.2,3.2-1.8
		c2.3-9.1,2.7-18.7,1.4-28c-1.6,3.5-2.1,7.5-1.4,11.2c-3.4,0.3-6.4-2.6-7.5-5.9c-1.1-3.3-0.7-6.8-0.3-10.2c1.2-10.1,2.4-20.2,5.2-30
		c5.6,0.9,10.3,4.8,13.4,9.5c3,4.8,4.5,10.3,5.4,15.9c1.9,11.6,1.3,23.6-1.6,35.1c-0.5,1.8-0.6,4.4,1.2,4.9
		C150.3,180,151,165.3,148.5,151.2z M68.2,22.4c0.1-0.3,0.6-0.7,1.2-1.1c0.6,1.6,1.7,3.2,2.7,4.7c2.5,3.7,4.5,7.8,5.8,12.1
		c0.1,0.4,0.3,0.9,0,1.3c-0.2,0.4-0.6,0.5-1,0.7c-0.5,0.2-1,0.4-1.5,0.7c0.9-2.6-0.9-5.6-2-8c-1.1-2.4-2.3-4.8-3.7-7.1
		C69,24.5,67.7,23.5,68.2,22.4z M45.7,15.6c0.8-0.9,1.6-1.8,2.5-2.5c2.4-3,5.3-6,9-7.1c1-0.4,2.1-0.7,3.2-0.8c2-0.2,2.1,2.5,0.6,3.2
		c0.2,0.8-0.1,1.6-1.2,1.8c-0.8,0.1-1.7,0.4-2.5,0.7c-0.1,0.1-0.3,0.3-0.5,0.4c-1.5,0.8-2.8,1.6-4.1,2.5c-3.3,2.9-6.1,6.8-8.1,9.9
		c-0.1,0.1-0.2,0.2-0.3,0.3c-0.6,1.6-3.3,1.4-3.3-0.6C41.1,20.6,44,17.7,45.7,15.6z M40.2,39.8c0.6-1.7,3.2-0.9,2.7,0.7
		c-2,5.4-2.2,11-1.6,16.7c0.2,1.8-2.6,1.7-2.7,0C37.8,51.3,38.1,45.5,40.2,39.8z M40.3,67.3c1.2,0.2,2.2,0.9,3.1,1.7
		c1.1,1,2.3,2.1,2.7,3.5c0.8,2.1,1.9,4.3,3.4,6.2c0.5,0.5,0.9,1.1,1.3,1.7c0.7,1,1.1,2.1,1.4,3.3c0.3,0.8,0.5,1.5,0.8,2.3
		c0.3,0.9,0.5,2.1-0.3,2.6C52,89,51.1,89.1,50.3,89c-1.4-0.3-2.4-1.3-3.4-2.3c-4.3-4.7-7.4-10.4-9.1-16.5c-0.1-0.4-0.2-0.8-0.2-1.2
		C37.8,67.8,39.1,67.1,40.3,67.3z M35.5,88.8c-1.8-3.8-4.1-7.3-5.7-11.1c-1.7-3.8-3.2-9.9-2.1-14.6c0.8,0.2,1.7,0.3,2.5,0.5
		c0.1,0,0.2,0,0.3,0c-0.6,2.9-0.1,6.8,0.5,9.1c0.8,3.6,2.9,6.9,4.6,10.1c1.6,2.9,3.1,5.9,4.3,8.9c0.4,0.9,0.6,1.9,0.9,2.8
		c-0.9,0.6-1.8,1.2-2.6,1.8C37.4,93.9,36.7,91.3,35.5,88.8z M78.3,121.7c-1.3,5.8-3,11.5-3.4,17.4c-0.2,3.7,0,7.5,0.3,11.2
		c0.3,3.5,0.5,7.1,0.8,10.6l1.1,14.6c-5-2.3-7.5-7.8-10.1-12.7c-8.3-15.8-20.8-29.5-35.8-39.1c7.1-5.6,14.1-11.3,21.2-17
		c1.2-0.9,2.5-2.2,2.2-3.7c-0.7-4.2-1-8.5-0.9-12.7c0-0.6,0.6-1.3,0.9-0.9c0.4,6.1,4.6,11.2,8.7,15.8c3.9,4.4,8.1,8.8,13.5,11.1
		C78.9,117.1,78.8,119.7,78.3,121.7z M101.5,88.2c-2.7,0.9-5.6-0.4-8.4-0.6c-4.4-0.3-8.8,2.6-10.3,6.8c-0.7,1.9-0.7,3.9-0.9,5.9
		c-0.3,4.6-1.1,9.1-2.3,13.5c-0.1,0.4-0.3,0.8-0.6,1c-0.4,0.2-1,0-1.4-0.3c-10.1-5.8-18-15.4-21.8-26.4c-1.3-3.7-2.2-7.8-4.7-10.8
		c-1.9-2.4-1.3-5.8-0.1-8.6s3.1-5.3,3.5-8.2c0.3-1.9,0.1-3.9-0.2-5.8c0.1-2.3,0-4.7-0.4-7c0.1-0.3,0.2-0.6,0.3-0.8
		c0.3-0.5,0.7-0.7,1.1-1c2-0.7,4.1-0.9,6.3-1c0.7,0,1.3,0.1,2,0.3c2.1,0.5,4.3,1.4,6.4,0.8c1.1-0.3,2-1,3-1.6
		c7.4-4.2,17.8-1.6,24.4-7c1.3-1.1,2.9-2.5,4.4-1.6c0.4,0.3,0.7,0.7,1,1.1c3.5,5.1,7.1,10.5,7.5,16.6c0.2,2.7-0.5,5.8-2.9,7
		c-3.7,2-7.2,4.6-10.1,7.7c-2.4,2.5-4.6,6.2-3.1,9.3c0.6,1.2,1.7,2.1,2.7,3c1.9,1.6,3.7,3.1,5.6,4.7
		C103.8,86.1,102.7,87.8,101.5,88.2z M112.4,82.5c0.1,0.7-0.7,1.2-1.3,1.6c-1.7,0.8-3.4,1.6-5.3,1.9c-2.4-2.8-5.1-5.4-8.2-7.5
		c-1.7-1.2-1.9-3.6-1.2-5.5c1.1-2.6,3.5-4.3,5.8-5.8c2-1.3,4-2.7,6.1-4c0.3-0.2,0.7-0.5,1.1-0.4c0.7,0,1.1,0.8,1.3,1.4
		c1.3,3.3,1.9,6.9,1.9,10.4C112.6,77.1,112.1,79.8,112.4,82.5z M124.7,82.3c-0.2-0.1-0.4-0.2-0.5-0.4c-0.5-0.1-0.9-0.4-1-1.1
		c-0.2-0.8,0.6-1.3,1.3-1.1c1.2-0.4,2.5-0.2,3.6,0.4l0.3,0.3c0.2,0,0.4,0.1,0.5,0.1c-0.1,0.3-0.3,0.5-0.4,0.8c-0.1,0-0.1,0-0.2,0
		c0,0.1-0.1,0.1-0.1,0.2c0,0-0.1,0-0.1,0.1c-0.1,0.1-0.3,0.2-0.4,0.3C126.8,82.6,125.7,82.6,124.7,82.3z M113.7,111.3
		c0.1-0.2,0.4-0.1,0.4,0.1c0.4,0.6,0.4,1.4,0.1,2c-0.3,0.6-0.8,1.1-1.4,1.6c-1.5,1.4-3.4,2.9-5.3,2.2
		C109.1,114.9,111.2,112.9,113.7,111.3z M112.7,159.5c-1.3,5.2-3.5,11.2-8.8,12.5c-0.1,0.1-0.1,0.2-0.1,0.3
		c-1.8-6.7-3.6-13.4-5.5-20c-0.5-1.9-1.1-4.1-0.3-5.9c3.2-8.1,5.3-16.7,6.2-25.4c4,2.5,8.8,3.5,13.4,3
		C117.2,136,115.5,147.9,112.7,159.5z"/>
</g>
</svg>
