<?xml version="1.0" encoding="utf-8"?>
<!-- Generator: Adobe Illustrator 19.2.0, SVG Export Plug-In . SVG Version: 6.00 Build 0)  -->
<svg version="1.1" id="Layer_1" xmlns="http://www.w3.org/2000/svg" xmlns:xlink="http://www.w3.org/1999/xlink" x="0px" y="0px"
	 viewBox="0 0 200 205.5" style="enable-background:new 0 0 200 205.5;" xml:space="preserve">
<style type="text/css">
	.st0{fill:#E91E63;}
</style>
<g id="_x30_Akp9V_1_">
	<g>
		<path class="st0" d="M5.2,128.7c1.6,2.5,3.2,5,4.9,7.5c0.3,0.4,0.7,0.7,1,1.1c0.8,1.1,1.7,2.2,2.5,3.3c0.4,0.5,0.7,1.1,1.1,1.6
			c1,1.2,2.2,2.4,3.2,3.6c2.2,3,4.3,6,6.6,9c1.5,2,3.1,4,4.7,6c2.2,2.7,4.7,5,8.2,6.1c2.5,0.8,5,1.9,7.5,2.8
			c1.2,0.4,2.5,0.7,3.8,1.1c0.9,0.2,0.8,0.7,0.6,1.5c-0.8,2.3-1.7,4.6-2.1,7c-0.4,3.1-0.2,6.3-0.4,9.5c-0.1,1.4-0.3,2.8-0.7,4.1
			c-0.6,1.9-1.4,3.7-2.2,5.6c-0.2,0.4-0.5,0.8-0.8,1.2c-1.4,1.7-2.9,3.3-4.2,5.1c-0.2,0.3-0.4,0.6-0.6,0.9h4.1
			c-0.1-0.3-0.1-0.7-0.1-1c0-1.2,0.7-2.1,1.4-2.8c1.3-1.3,2-2.9,2.7-4.5c1.6-3.5,2.4-7.1,2.2-11c-0.1-2.4,0.1-4.8,0.3-7.3
			c0-0.6,0.3-1.2,0.4-1.9c0.4,0.7,0.7,1.2,1.1,1.7c1.1,1.3,2.3,1.4,3.9,0.8c0.4-0.2,1-0.2,1.3,0c0.3,0.2,0.3,0.8,0.2,1.2
			c-0.1,1.2-0.9,2.5-0.2,3.7c0.5,1,1.2,1.9,1.8,2.9c0.2,0.3,0.5,0.6,0.7,0.9c-1.2,1.6-1.5,6.1,0.2,7.4c1.3,1.1,2.8,1.8,4.2,2.7
			c0.2,0.1,0.4,0.2,0.6,0.3c-0.2,1.7,0.1,3.3,1.4,4.6c0.7,0.7,1.5,1.5,2.3,2.2h2.5c-1.2-1-2.4-2-3.7-3c-1-0.8-1.4-1.9-0.9-3.5
			c3,1,5.9,2,8.8,2.9c1,0.3,2,0.7,3.1,0.9c0.3,0.1,0.8-0.2,0.9-0.4c0.1-0.2-0.2-0.6-0.4-0.9c-0.1-0.1-0.4-0.2-0.6-0.3
			c-2.8-0.9-5.6-1.8-8.4-2.7c-2.2-0.7-4.4-1.4-6.5-2.3c-1.4-0.6-2.8-1.6-2.9-3.4c-0.1-1,0-2,0.1-2.9c0.1-0.8,0.6-1,1.3-0.7
			c0.6,0.3,1.3,0.6,1.9,0.8c3.5,1.1,7.1,2.1,10.7,3.1c0.6,0.2,1.2,0.2,1.8,0.1c0.3,0,0.5-0.5,0.7-0.7c-0.2-0.2-0.4-0.4-0.6-0.5
			c-0.8-0.2-1.7-0.4-2.5-0.6c-1.8-0.5-3.6-1.2-5.4-1.7c-1.9-0.5-3.8-0.8-5.7-1.7c-2.8-1.3-5.4-4.8-3.1-8.6c0.7,0.2,1.5,0.3,2.2,0.5
			c1.9,0.5,3.8,0.9,5.7,1.4c1.2,0.3,2.3,0.7,3.5,1c1,0.2,1.9,0.3,2.9,0.4c2.6,0.1,5.1,0.2,7.7,0.3c0.6,0,1.1-0.3,1-1
			c-0.1-0.8-0.6-0.8-1.3-0.8c-1.3,0-2.7,0.1-4-0.2c-1.8-0.4-3.4-1.2-5.2-1.8c-2.6-1-5.3-1.8-8.1-1.5c-1.7,0.2-3.4,0.2-5.2,0.2
			c-1.2,0-2.5-0.2-3.7-0.1c-1.1,0.1-1.7-0.3-2.3-1.1c-0.6-0.9-0.6-1.8-0.1-2.7c0.8-1.2,2.2-1.7,3.4-1.9c1.1-0.2,2.2-0.4,3.2-0.7
			c3.6-1.1,7.3-1.6,11.1-1.6c1.5,0,1.8,0.4,1.9,1.8c0,0.6,0,1.2,0,1.8c0,0.3,0,0.7,0,1.1c0.3-0.1,0.7-0.1,0.7-0.2
			c0.2-1.1,0.3-2.2,0.4-3.3c0.1,0.1,0.4,0.1,0.6,0.3c2.6,1.5,5.5,1.9,8.5,1.8c1.9,0,3.7,0.4,5.6,0.7c0.3,0,0.5,0.1,0.8,0.3
			c1.8,1.1,3.6,2.1,5.3,3.2c2.1,1.4,4.2,2.9,6.2,4.5c3.3,2.7,6.3,5.7,10.2,7.5c1.1,0.5,2.1,1.2,3.2,1.9c2.6,1.6,5.1,3.3,7.8,4.6
			c1.7,0.9,3.6,1.4,5.5,1.9c1.5,0.4,3,0.4,4.5,0.9c1.9,0.5,3.8,1.3,5.7,2c1.9,0.7,3.7,1.5,5.5,2.2c1.8,0.7,3.6,1.4,5.4,1.9
			c1,0.3,2,0.5,3,0.8h6.6c-0.3-0.6-0.5-1.2-0.6-1.9c0.4,0,0.8-0.1,1.1,0c1.1,0.2,2.2,0.4,3.3,0.7c1.9,0.4,3.9,0.8,5.8,1.3h8
			c-0.9-1-1.8-1.9-2.6-2.9c-0.8-0.8-1.6-1.6-2.4-2.5c-1.3-1.6-2.3-3.3-2.7-5.4c-0.2-1.3-0.8-2.5-1.3-3.7c-0.4-1.1-0.9-2.3-1.4-3.4
			c-0.8-2.2-1.6-4.4-2.5-6.5c-1.6-3.6-3.4-7.1-5.1-10.6c-1.3-2.7-2.5-5.4-3.8-8.1c-1.3-2.7-2-5.5-1.2-8.5c0.6-2.1,0.9-4.3,1.4-6.5
			c0.7-3.1,1.1-6.2,0.9-9.4c-0.1-1.5-0.2-3-0.2-4.6c0-2.2,0.1-4.3,0.2-6.5c0.1-1.7,0.3-3.4,0.5-5.1c0.2-1.2,0.5-2.4,0.6-3.7
			c0.1-2.1,0.1-4.2-0.5-6.3c-0.4-1.4-0.1-3.1-0.1-4.6c0.1-3,0.1-6.1,0.3-9.1c0.1-1,0.4-2.1,1.4-2.7c2-1.1,4-2.3,6.1-3.3
			c0.9-0.4,2-0.8,3-0.6c1.9,0.3,3.8,1,5.7,1.7c1.6,0.5,2.9,1.5,3.9,2.8c0.4,0.5,0.9,1,1.3,1.5c1.8,2,3.6,4,5.5,5.9
			c0.9,0.9,2,1.8,3.2,2.3c2,0.8,3.9,1.9,5.3,3.4c2.4,2.6,4.4,5.4,6.7,8.1c1.1,1.4,2.4,2.6,3.7,3.8v-2.6c-0.2-0.2-0.5-0.4-0.7-0.6
			c-2.4-2.9-4.9-5.7-7.3-8.7c-1.9-2.5-4.4-4.1-7.3-5.2c-0.3-0.1-0.6-0.3-0.8-0.5c-1.2-1.2-2.4-2.4-3.6-3.7c-1.4-1.5-3-2.9-4.2-4.5
			c-1.7-2.2-4-3.5-6.6-4.2c-0.3-0.1-0.6-0.1-0.8-0.3c-0.8-0.8-1.6-1.7-2.4-2.5c-0.5-0.5-1-1-1.5-1.3c-1.7-1.1-3.5-2.1-5.3-3.1
			c-2.7-1.5-4.4-3.9-5.3-6.8c-0.3-0.9-0.6-1.7-1-2.6c-1-2.6-2.1-5.1-3.2-7.7c-1.2-3-2.1-6-2.1-9.3c0-1.3-0.2-2.8-0.6-4
			c-0.9-2.6-0.8-5.2-0.5-7.8c0.4-4.3-0.6-8.1-3.1-11.6c-1.1-1.5-2.2-3-3.4-4.3c-0.9-1.1-2.1-2-3.1-3c-1.2-1.2-2.6-2.2-3.6-3.6
			c-2.1-3-3.9-6.3-6.5-9c-2.1-2.2-4.2-4.3-6.6-5.9c-2.2-1.5-4.4-2.9-6.7-4.4c-0.2-0.1-0.5-0.2-0.7-0.2c-1.2,0.1-2.2-0.5-3.2-0.9
			c-1.6-0.7-3.3-1.3-5-1.7c-2.6-0.5-5.2-0.7-7.9-1C95.7,0.1,94.1,0,92.6,0c-1.4,0-2.9,0.2-4.3,0.2c-2.5,0-5,0.3-7.4,1.3
			c-0.6,0.2-1.2,0.5-1.8,0.5c-1.6,0.1-3,0.7-4.3,1.5c-0.5,0.3-1.1,0.4-1.6,0.6c-1.3,0.4-2.7,0.5-3.7,1.5c-2.4,2.5-5.4,4.1-8.6,5.4
			c-2,0.8-3.5,2.2-4.8,3.8c-1.5,1.8-2.7,3.9-4,5.8c-0.6,0.9-1.6,1.6-2.2,2.5c-1.8,2.6-3.3,5.4-5.1,8c-1.7,2.4-3,5-3.8,7.9
			c-0.8,3-1,5.8,0.6,8.6c0.7,1.3,1.3,2.6,1.2,4.1c-0.1,1.1,0,2.3,0,3.4c0,0.8-0.2,1.6-0.1,2.4c0,1.3,0,2.7,0.3,4
			c0.3,1.2,0.9,2.4,1.3,3.6c0.4,1,0.6,2.1,1.1,3.1c1.5,2.7,3.2,5.3,4.8,8c0.8,1.2,1.5,2.5,2.3,3.7c1.2,1.8,2.1,3.7,2.5,5.8
			c0.2,1.3,0.6,2.5,1,3.7c0.5,1.6,1.2,3.2,1.7,4.9c0.7,2.2,1.3,4.4,2,6.6c0.4,1.2,1,2.3,1.2,3.5c0.3,1.5,0.4,3.1,0.6,4.7
			c0,0.3-0.2,0.7-0.4,0.8c-0.7,0.4-1.1,1-1.2,1.7c-0.4,1.5-0.8,3-1.2,4.6c-0.1-0.1-0.2-0.1-0.2-0.2c-2.8-6-7.3-10.5-12.7-14.2
			c-3-2.1-6.3-3.2-10-2.9c-1.9,0.2-3.8,0.1-5.7,0.3c-2.2,0.2-4.4,0.6-6.6,1c-2.3,0.4-4.5,0.8-6.7,1.5c-1.2,0.4-2.5,0.3-3.7,1.1
			c-1,0.6-2.4,0.5-3.6,0.8c-1.2,0.4-2.4,0.8-3.3,1.6c-2.7,2.3-4.8,4.9-5.7,8.5c-1,3.8-0.3,7.3,1.9,10.5
			C3.3,125.8,4.2,127.2,5.2,128.7z M57.8,169.5c-0.2,0-0.5,0-0.7-0.1c-0.9-0.6-1.7-1.2-2.6-1.7c-2.2-1.3-4.7-1.8-7.2-2
			c-2.3-0.1-4.5-0.7-6.4-2c-0.8-0.5-1.8-0.8-2.7-1.3c-0.7-0.4-1.4-0.8-1.9-1.4c-1-0.9-2-1.9-2.8-2.9c-2.9-3.8-5.7-7.6-8.6-11.4
			c-1.4-1.9-3-3.7-4.4-5.5c-1.3-1.7-2.5-3.5-3.8-5.2c-1.7-2.4-3.6-4.7-5.3-7.1c-1.4-2-2.8-4-4.1-6c-0.7-1.1-1.4-2.3-2-3.5
			c-0.2-0.5-0.2-1.2-0.2-1.8c0-1.9,0.3-3.8,1.4-5.4c0.6-0.9,1.5-1.4,2.5-1.8c1.4-0.5,2.8-1,4.2-1.4c2.1-0.5,4.3-0.9,6.4-1.5
			c2.5-0.6,4.9-1.3,7.4-1.9c1.9-0.4,3.9-0.6,5.8-0.8c1.3-0.1,2.5-0.1,3.8,0c0.9,0.1,1.7,0.4,2.6,0.6c0.2,0.1,0.5,0.2,0.7,0.2
			c3.9,0.4,6.7,2.6,9.1,5.4c3.4,4,5.6,8.7,7.9,13.3c1.7,3.5,3.2,7,4.4,10.7c0.2,0.8,0.5,1.5,0.7,2.3c0.6,2.7,1.9,5.1,3.2,7.5
			c1.2,2.1,1.3,4.5,1.5,6.9c0.1,1.2,0.4,2.3,0.5,3.5c0.1,1.3,0.3,2.6,0.1,3.8c-0.1,0.7-0.8,1.4-1.3,2c-0.4,0.6-1.1,1-1.4,1.7
			c-1,1.8-1.9,3.7-2.9,5.7C60.5,168.9,59.2,169.3,57.8,169.5z M152.8,167.9c1.7,3.4,3.2,6.8,4.9,10.2c1.9,3.9,3.3,8,4.6,12
			c0.9,2.7,1.8,5.5,3.1,8c1,2,2.7,3.8,3.9,5.6c-0.7-0.3-1.7-0.7-2.7-1c-0.5-0.2-1.2-0.1-1.7-0.1c-0.3,0-0.6,0-0.9,0
			c-2.9-0.8-5.9-0.6-8.8-0.7c-1.1-0.1-2,0.6-2.7,1.5c-0.3,0.4-0.9,0.8-1.4,0.8c-0.7,0-1.4-0.2-2-0.4c-2.5-0.9-5-1.9-7.5-2.8
			c-3.4-1.3-6.7-2.7-10.2-3.9c-1.5-0.5-3.2-0.8-4.8-1c-2.5-0.3-4.8-1.3-6.9-2.5c-4.2-2.4-8.4-4.8-12.5-7.4c-1.7-1.1-3.3-2.4-4.8-3.7
			c-2.7-2.4-5.4-4.6-8.5-6.4c-1.7-1.1-3.3-2.3-4.9-3.3c-0.6-0.4-1.4-0.6-2.1-0.8c-1.3-0.3-2.7-0.5-4.1-0.8c-0.6-0.1-0.9-0.4-0.8-0.9
			c0.1-0.9,0.4-1.8,0.6-2.8c0.1-0.7,0.2-1.3,0.3-2c0-0.2,0.1-0.5,0.2-0.7c0.8-1.6,1.7-3.1,2.5-4.7c0.7-1.2,1-1.3,1.8-0.2
			c1.8,2.5,3.6,5,5.4,7.5c0.4,0.5,0.8,1.1,1.3,1.4c1.6,1,2.9,2.5,4.1,3.9c1.4,1.6,3.2,2.4,5.2,2.4c3.8,0.1,7,1.5,9.9,3.8
			c3.1,2.4,6.1,4.7,9.3,7.1c3,2.2,5.7,1.9,7.8-1.1c1.1-1.5,2.1-3.2,3.1-4.7c1.4-2,2.9-3.9,4.1-6c1-1.9,2.4-3.3,3.7-4.9
			c1.8-2.1,6.8-5.9,8.8-6.6C151.1,164.5,152,166.2,152.8,167.9z M149.1,159.1c0,0.3,0,0.7,0.1,1c0.4,0.7,0.1,1.1-0.6,1.5
			c-3.5,2-6.5,4.7-9.3,7.5c-2.2,2.2-3.4,5.1-5.2,7.6c-1.5,2-2.7,4.1-4.1,6.1c-0.4,0.6-0.9,1.2-1.4,1.7c-1.7,1.8-2.9,1.7-4.8,0.3
			c-2.3-1.7-4.4-3.6-6.7-5.3c-2.2-1.6-4.5-3-6.8-4.5c-1.8-1.1-3.9-1.3-6-1.4c-2.2-0.2-4.1-0.8-5.4-2.7c-1-1.5-2.4-2.6-3.9-3.6
			c-0.7-0.5-1.3-1.3-1.9-2.1c-1.8-2.5-3.5-5-5.2-7.6c-0.2-0.2-0.4-0.7-0.3-0.8c0.3-0.5,0.8-1,1.2-1.5c0,0,0.5,0.2,0.6,0.4
			c1.4,2.5,2.7,5,4.8,7c0.8,0.8,1.9,1.4,2.8,2.1c1.3,1.1,2.7,2.1,3.8,3.3c2,2.3,4.6,3.3,7.4,3.9c1.2,0.3,2.4,0.5,3.5,0.8
			c2.7,0.8,4.6,2.7,6.7,4.3c1.4,1.1,2.7,2.3,4.2,3.2c1.8,1.2,3.1,1,4.8-0.2c2.6-1.8,4.2-4.1,5.2-7.1c1.3-4,3.8-7.2,6.8-10
			c3-2.8,6.1-5.4,9.2-8c0.1-0.1,0.1-0.1,0.4-0.2C149.1,156.5,149,157.8,149.1,159.1z M134.7,97c1.2,0.9,1.6,2.2,2.1,3.5
			c0.6,1.6,1.4,3.1,2.4,4.5c1.3,1.9,3.4,2.2,5.5,2.2c1.2,0,2.1-0.4,2.9-1.3c1.5-1.5,2.9-3.1,4.4-4.7c0,0.8,0,1.7,0,2.6
			c0,2.4-0.1,4.7-0.1,7.1c0,0.5,0.2,0.9,0.3,1.4c0.6,2.4,0.5,4.7,0.1,7.1c-0.6,4-1.3,8-1.1,12.1c0.1,2.5,0.1,5,0.2,7.5
			c0.1,3.3-0.1,6.6-1.1,9.8c-0.1,0.3-0.2,0.7-0.2,1.1c-0.3,1.7-1.2,2.9-2.6,3.9c-2.3,1.8-4.5,3.8-6.7,5.8c-2.1,1.9-4.1,3.9-6,6.1
			c-1.9,2.1-3.2,4.7-4,7.4c-0.7,2.3-2.2,4.1-4.3,5.6c-0.7-2.6-0.6-5.1-0.3-7.5c0.2-1.5,0.4-3,0.5-4.5c0-0.3-0.4-0.7-0.7-0.8
			c-0.2-0.1-0.7,0.2-0.9,0.4c-0.2,0.4-0.4,1-0.4,1.5c-0.2,2.8-0.5,5.6-0.5,8.4c0,1,0.3,2.1,0.3,3.4c-0.9-0.6-1.9-1.1-2.7-1.8
			c-1.6-1.3-3.3-2.6-4.8-3.9c-2.1-1.8-4.5-2.7-7.2-3.2c-1.3-0.3-2.5-0.6-3.8-1c-1.4-0.4-2.6-1.3-3.5-2.4c-1.5-2-3.6-3.3-5.6-4.7
			c-1.3-0.9-2.5-1.9-3.2-3.3c-0.9-1.7-1.7-3.5-2.5-5.2c-0.6-1.1-0.4-2.2,0.1-3.3c0.9-2.3,1.8-4.5,2.7-6.8c0.9-2.4,1.6-4.9,2.5-7.2
			c0.6-1.5,1.3-2.9,2-4.3c0.8-1.5,1.6-3.1,2.4-4.6c0.7-1.4,1.2-2.9,1.3-4.5c0-1.4,0.2-2.7-0.7-3.9c-0.5-0.7-1.1-1.2-1.8-1.4
			c-1.1-0.3-2.8,0.3-3.4,1.3c-0.9,1.3-1.6,2.7-2.5,4.1c-1,1.6-2.2,3.2-3.2,4.8c-0.6,0.9-1.3,1.9-1.9,2.8c-0.2,0.3-0.6,0.6-1.1,1
			c-0.1-0.6-0.2-1.1-0.1-1.4c0.8-2.3,1.7-4.5,2.5-6.8c0.6-1.6,2-2.5,3.2-3.6c0.4-0.3,0.7-0.6,1.1-1c1.3-1,1.8-2.3,1.3-3.9
			c0-0.1,0-0.3,0-0.5c0.7,0,1.4-0.1,2-0.1c1.9-0.1,3.4-1.1,4.8-2.3c2.6-2.1,5.3-4.1,7.6-6.5c2.8-3,5.5-6.2,7.8-9.6
			c2.7-3.9,4.9-8.2,6-12.9c0.4-1.7,0.5-3.4,0.9-5c0.1-0.5,0.4-1.3,0.6-1.3c0.7,0,0.8,0.6,0.9,1.3c0.1,2.3,1.2,4.3,1.9,6.4
			c0.7,2,1.6,3.8,2.7,5.5c1.1,1.6,1.8,3.5,2.8,5.3C133.8,96,134.2,96.6,134.7,97z M57.7,64.2c-0.4-2.5-0.8-5-1.3-7.4
			c-0.4-1.8-1.2-3.6-1.7-5.4c-0.2-0.7-0.2-1.5-0.3-2.2c0-1.5,0-3,0-4.5c-0.1-2.9,1.5-4.9,3.5-6.5c1.5-1.2,3.2-2,4.9-3
			c0.4-0.3,1-0.3,1.5-0.4c3.3-0.8,6.6-1.4,9.9-2.3c0.9-0.2,1.8-1,2.7-1.4c0.7-0.4,1.5-0.9,2.3-0.9c3.2-0.1,6.4-0.2,9.3,1.6
			c0.7,0.4,1.7,0.3,2.6,0.4c1.6,0.1,1.8,0.1,2.3,1.6c0.2,0.7,0.4,1.5,0.4,2.2c0.1,1.9,0.2,3.8,0,5.7c-0.2,2.3,1.1,3.7,2.6,5
			c1.1,0.9,2.4,1.1,3.8,1.2c1.2,0.1,2.5,0.3,3.7,0.3c1.6,0.1,2.7,1.1,3.7,2.2c1.2,1.4,2.4,3,3.7,4.4c1.9,2,5.1,2.1,7.3,0.4
			c1.6-1.3,2.4-3.2,3.4-4.9c0.6-1,1.2-2,1.9-2.9c0.2-0.3,0.7-0.6,1.1-0.7c1.3-0.2,2.6-0.3,3.9-0.3c0.4,0,1,0.5,1.3,1
			c2,3,2.3,6.3,2.2,9.8c0,0.9,0.1,2-0.2,2.8c-1,3.1-2.2,6.2-4.5,8.6c-0.5,0.5-1.2,1-1.8,1.4c-1.1,0.7-3.3-0.7-3.1-2.1
			c0.1-1.2,0.6-2.4,0.9-3.6c0.1-0.3,0.3-0.5,0.3-0.7c0.4-1.2,1.3-1.9,2.4-2.3c2.8-0.8,3-1.5,2.9-3.8c0-0.6-0.1-1.2-0.3-1.7
			c-0.5-1.6-1.9-2.5-3.5-2.6c-0.2,0-0.5,0-0.6,0.1c-0.3,0.3-0.5,0.7-0.8,1.1c0.3,0.2,0.6,0.6,0.9,0.6c2.1,0.2,2.6,0.6,2.7,3
			c0,1.1-0.6,1.4-1.4,1.6c-1.3,0.2-2.3,0.9-3.1,1.9c-0.5,0.6-0.9,1.4-1.2,2.2c-0.4,1.4-0.7,2.8-0.9,4.2c-0.2,1.4,0.5,2.4,1.7,3.1
			c0.6,0.4,1.5,0.8,1.6,1.3c0.2,1.1,0.2,2.4-0.2,3.4c-0.8,1.8-1.4,3.7-1.8,5.6c-0.4,2.1-0.7,4.2-1.4,6.3c-1.1,3.6-3.3,6.6-5.4,9.7
			c-2,3-4.8,5.3-6.9,8.1c-1.9,2.6-4.8,4-7.1,6.1c-1.1,0.9-2.4,1-3.7,1.2c-1.5,0.3-2.7,0.3-4-0.9c-1-1-2.4-0.9-3.7-0.2
			c-0.3,0.2-0.7,0.3-1,0.5c-0.5,0.3-1,0.3-1.1-0.2c-0.1-0.3,0.2-0.8,0.4-1c0.8-0.5,1.7-0.9,2.6-1.2c1.8-0.5,3.1-2,3.1-3.8
			c0-2.3-0.1-4.7-0.2-7c0-0.6-0.2-1.2-0.4-1.8c-0.2-0.6-0.6-0.9-1.3-0.9c-1.7,0.1-3.4,0.1-5.1,0c-1.5-0.1-2.9-0.2-4.4-0.4
			c-1.1-0.1-2-0.2-2.9,0.7c-0.4,0.4-1,0.3-1.6,0.2c-1.4-0.3-1.8-1.2-1.9-2.5c-0.1-0.6-0.4-1.2-0.6-1.6c0.8-0.8,1.5-1.6,2.3-2.2
			c0.5-0.4,1.1-0.8,1.7-1.1c0.2-0.1,0.4-0.1,0.6-0.3c0.6-0.5,1.2-0.5,2-0.3c1.2,0.2,2.2-0.5,2.7-1.3c0.3-0.5,0.2-1.5-0.1-2
			c-0.6-0.8-1.5-1.3-2.3-1.9c-0.1-0.1-0.3-0.2-0.4-0.2c-0.3,0-0.5,0.1-0.8,0.1c0.1,0.3,0.2,0.7,0.4,0.9c0.5,0.4,1.1,0.5,1.5,1
			c0.4,0.4,0.5,0.9,0.8,1.4c-0.5,0.3-1.1,0.8-1.6,0.8c-1,0-1.9,0-2.7,0.6c-1,0.7-2.1,1.5-3.1,2.3c-0.6,0.5-1.3,0.9-2.1,0.9
			c-1.2-0.1-2.5,0.2-3.3-1.1c-0.2-0.3-0.4-0.7-0.4-1c0-2.5,0.2-5,0.2-7.6c0-3.5,0-6.9,0-10.4c-0.8-1.1-1.5-2.4-2.5-3.2
			c-1.9-1.6-4.4-1.9-6.8-2.2c-1-0.1-2.1-0.3-3.1-0.4C57.9,65.3,57.8,64.8,57.7,64.2z M85.8,102.5c2.2,0.3,4.1-0.5,5.7-1.9
			c0.2-0.2,0.4-0.3,0.6-0.5c0.1,0,0.2,0,0.3,0c0.2,1.7,0.4,3.5,0.5,5.2c0,0.6-0.6,1.2-1,1.8c-0.2-2.2-1.9-3-3.4-3.6
			c-1.6-0.6-3.3,0.1-5,0.8C83.8,102.6,84.3,102.3,85.8,102.5z M82,101.5l0-0.1c-0.3,0-0.7,0-1,0c-1-0.1-1.5-0.8-1.3-1.8
			c0.1-0.3,0.2-0.6,0.3-0.9c0.2-0.9,0.7-1.1,1.6-1.1c0.4,0,0.9-0.1,1.4-0.1c1.1-0.1,1.6,0.3,1.7,1.5c0,0.8,0.1,1.7-0.7,2.1
			C83.3,101.4,82.7,101.4,82,101.5z M85.6,97.3c1.5,0,2.7,0,3.9,0c0.3,0,0.6,0,0.8,0c0.5,0,0.9,0,1.4,0.1c-0.1,0.5-0.1,1-0.4,1.3
			c-0.3,0.5-0.7,1-1.2,1.3c-0.8,0.5-1.7,1-2.7,1.2c-1.2,0.2-1.9-0.1-1.6-1.5C86,99.4,86,99,86,98.6C86,98.2,85.8,97.9,85.6,97.3z
			 M66.4,69.6c0.7,0,1.3-0.2,1.5,0c0.3,0.3,0.5,0.9,0.4,1.3c-0.5,2.3-2.8,3.1-4.5,1.5c-0.2-0.2-0.1-0.9,0.1-1.4
			c0.2,1.3,1.2,1.5,2.1,1.4c0.5,0,1-0.6,1.4-1.1C67.9,70.6,67.1,70.2,66.4,69.6z M64,74c0.8,0.9,3.2,0.8,4.1-0.3
			c0.6-0.7,1.1-1.5,1.8-2.4c0.1,1,0.2,1.8,0.2,2.7c-0.1,4.9-0.2,9.8-0.3,14.7c0,1.7,1.7,3.5,3.4,3.5c1.1,0,1.7,0.4,1.9,1.5
			c0.2,0.6,0.3,1.3,0.4,2c0,0.2-0.2,0.6-0.3,0.6c-0.3,0-0.6-0.2-0.7-0.4c-0.9-0.9-1.7-2.1-2.8-2.8c-2.4-1.6-3.6-3.9-4.8-6.4
			c-0.4-0.9-0.9-1.8-1.3-2.7c-0.9-2-1.2-4.2-1.5-6.3c-0.1-0.8-0.4-1.6-0.6-2.4c-0.1-0.3-0.3-0.5-0.3-0.8c0-0.3,0-0.7,0.1-1.1
			C63.4,73.6,63.7,73.7,64,74z M61.2,70.8c-0.2-0.2-0.6-0.5-1-0.8c-0.5-0.4-1-0.7-1.4-1.1c-0.3-0.5-0.4-1.1-0.6-1.7
			c2.3,0.4,4.5,0.7,6.6,1c0,0.1,0,0.2,0.1,0.3C63.7,69.2,62.5,69.9,61.2,70.8z M61.7,111.3c1,0.3,0.9,1,0.6,1.7
			c-0.4,0.9-0.7,1.8-2.1,2.2C61.1,113.8,59.8,112,61.7,111.3z M60.5,116.3c1.8,0,2.2-1.4,2.9-2.6c0.2-0.3,0.2-0.6,0.4-0.9
			c1,0.7,1.5,2.4,1,3.7c-0.4,1.1-0.9,2.1-1.3,3.2c-0.2,0.5-0.1,1.2,0,1.7c0,0.2,0.4,0.5,0.5,0.4c0.3-0.1,0.7-0.3,0.8-0.5
			c0.3-0.6,0.4-1.3,0.7-2c0.4-1,0.9-1.9,1.5-2.9c0.9-1.7,2.2-3.2,2.5-5.2c0.7,0.2,1.3,0.5,2,0.6c0.2,0,0.4-0.2,0.7-0.3
			c-0.2-0.2-0.3-0.5-0.6-0.6c-0.5-0.2-1-0.4-1.6-0.6c2.2-4.4,5.2-7.9,8.5-11.2c0.1,2.8,0.3,3,4.3,3.4c-0.9,1.3-1.6,2.5-2.5,3.5
			c-1.1,1.2-2.5,2.1-3.5,3.4c-1.5,2-2.9,4.1-3.9,6.3c-1,2.2-1.5,4.6-2.1,7c-0.1,0.4-0.2,0.9-0.1,1.2c0.1,0.3,0.6,0.6,1,0.7
			c0.4,0,0.7-0.3,0.6-0.9c-0.1-0.4-0.1-1,0.1-1.4c0.8-2.5,1.6-4.9,2.4-7.3c0.2-0.6,0.7-1.1,1-1.6c0.8,0.5,1.4,0.9,2,1.3
			c0.2,0.1,0.6-0.1,1-0.2c-0.2-0.2-0.4-0.5-0.6-0.7c0,0-0.1-0.1-0.2-0.1c-1.6-0.7-1.8-1.5-0.7-2.7c1.5-1.6,3.2-3.1,4.8-4.6
			c0.3-0.3,0.8-0.4,1.2-0.5c1.1-0.5,2.2-0.9,3.3-1.4c1.6-0.6,3.8,1.7,3.8,3c0,0.3-0.4,0.8-0.7,0.9c-1.4,0.4-2.3,1.3-3.1,2.3
			c-0.7,0.9-1.5,1.7-2.3,2.5c-1.2,1.2-2,2.5-2.6,4c-1.2,2.9-2.2,5.9-2.8,9.1c-0.1,0.8-0.5,1.5-0.7,2.3c-0.1,0.3,0.1,0.8,0.3,0.9
			c0.3,0.2,0.8,0.1,1-0.1c0.2-0.1,0.1-0.6,0.2-0.9c0.2-0.6,0.3-1.2,0.5-1.8c0.7-3,1.4-6,3-8.8c0.5,0.4,1,0.9,1.6,1.3
			c0.3,0.3,0.6,0.6,1,0.7c0.4,0.1,1.1,0.2,1.2,0c0.4-0.6-0.4-0.6-0.7-0.9c-0.8-0.6-1.7-1.2-2.7-2c0.9-0.6,1.6-1.2,2.3-1.6
			c1.3-0.8,2.7-1.5,4-2.4c1.6-1.1,2.4-1.1,3.7,0.4c0.7,0.8,1.2,1.6,1,2.7c-0.1,0.6-0.4,1.3-0.8,1.5c-2,1.3-3.2,3.2-4.3,5.2
			c-1.8,3.1-2.9,6.4-3.3,10c-0.1,0.6-0.3,1.2-0.4,1.9c0,0.3,0.1,0.8,0.4,1c0.2,0.2,0.7,0.1,1-0.1c0.2-0.2,0.2-0.6,0.3-0.9
			c0-0.2,0-0.5,0.1-0.6c2.2-2.6,4.5-5.1,6.7-7.8c0.7-0.9,1.1-2.1,1.7-3.1c0.6-0.9,1.2-1.9,1.8-2.8c0.5-0.8,1.3-1.1,2.1-0.9
			c0.9,0.2,1.1,1.1,1.2,1.9c0.4,2.9-0.6,5.3-2.3,7.6c-0.3,0.5-0.6,1-0.8,1.5c-2.5,5.5-4.7,11.1-6.7,16.9c-1,3-2.3,5.9-4.2,8.4
			c-2.9,4-4.8,8.5-6,13.2c-0.2,0.7-0.2,1.9-0.5,1.9c-1.1,0.2-2.2,0.3-3.3,0c-1.5-0.4-3-1-4.3-1.7c-1.6-0.8-3.1-1.4-5.1-1.2
			c1.3-1.6,2.4-3.1,3.5-4.5c1.2-1.6,2-3.3,2-5.4c0-2-0.3-4-0.7-6c-0.4-2-0.7-4-1-6c-0.3-2.4-1.3-4.5-2.4-6.5
			c-2.1-3.7-3.7-7.6-5.1-11.6c-1-2.7-2-5.3-3.1-8c-0.5-1.2-0.1-2.4-0.3-3.5C60.1,116.5,60.4,116.3,60.5,116.3z M2.1,114.4
			c0.8-3.1,2.6-5.6,4.9-7.6c0.8-0.7,1.8-1.2,2.7-1.5c2.2-0.7,4.4-1.2,6.6-1.7c3.1-0.7,6.1-1.4,9.2-2c4.4-0.8,8.9-1,13.4-0.8
			c0.5,0,1.1,0.1,1.6,0.3c2.9,1.1,5.4,2.6,7.7,4.7c2.9,2.6,5.7,5.4,7.6,8.8c1.4,2.4,2.5,5,3.6,7.5c1.3,3.2,2.3,6.5,3.7,9.7
			c1.4,3.3,3,6.6,4.7,9.8c1,2,1.6,4.1,1.8,6.4c0.2,2.1,0.7,4.1,1.1,6.1c0.8,3.7,0.4,7-2.4,9.8c-1.1,1.1-2,2.3-2.9,3.6
			c-0.5,0.7-1.2,0.8-2.2,0.9c1-2.3,1.7-4.5,3.6-6c1-0.8,1.7-1.8,1.7-3c0-1.5-0.2-3.1-0.3-4.7c-0.1-0.6-0.3-1.3-0.3-1.9
			c0.2-4-1-7.6-3-11c-0.5-0.9-0.9-1.9-1.2-2.9c-2.1-7.5-5-14.6-9.1-21.2c-0.6-1-1.1-2.1-1.7-3.2c-2.3-3.7-5.1-6.9-9.1-8.9
			c-0.4-0.2-0.9-0.5-1.3-0.6c-4-1.3-8.1-1.7-12.3-1.1c-3.4,0.4-6.4,1.8-9.7,2.4c-2.4,0.4-4.8,0.9-7.1,1.6c-2.3,0.7-4.5,1.6-6.7,2.5
			c-0.3,0.1-0.6,0.5-0.8,0.7c-1.2,1.7-1.8,3.6-1.9,5.8c-0.2,2.9,1.3,5,2.8,7.2c1.2,1.7,2.3,3.5,3.6,5.2c1.9,2.6,3.8,5.1,5.7,7.7
			c3.2,4.2,6.4,8.4,9.5,12.6c1.4,1.8,2.9,3.5,4.1,5.5c1.6,2.6,3.8,4.7,5.8,6.9c0.6,0.7,1.5,1.2,2.3,1.6c1,0.6,2.2,1,3.2,1.6
			c1.9,1.2,4,1.6,6.2,1.8c3.2,0.2,6.2,0.9,8.7,3.2c-0.6,0.2-1.2,0.5-1.8,0.7c-0.2,0.1-0.5,0-0.6-0.1c-1.4-1.1-3.1-1.4-4.7-1.8
			c-4.6-1.1-9-2.6-13.1-4.7c-1.8-0.9-3.4-2.5-4.8-4c-1.6-1.7-2.8-3.6-4.2-5.5c-2.6-3.5-5.2-7-7.8-10.5c-0.3-0.4-0.7-0.8-1-1.2
			c-0.3-0.5-0.6-1.1-0.9-1.6c-0.2-0.4-0.2-0.9-0.8-0.9c-0.1,0-0.3-0.2-0.3-0.4c-0.3-1.5-1.5-2.4-2.6-3.3c-1.2-1-2-2.1-2.7-3.5
			c-0.6-1.1-1.5-2.1-2.3-3.1c-0.3-0.4-0.7-0.9-0.9-1.4c-1-2.1-2.4-4-3.8-5.9C1.8,120.4,1.3,117.5,2.1,114.4z"/>
		<path class="st0" d="M188.8,180.7c1.6,3.2,2.8,6.5,2.7,10.2c-0.2,3.4-1.8,6.4-2.5,9.6c-1.2-0.1-1.2,0-0.9,1c0.1,0.3,0,0.7-0.1,1
			c-0.4,1-0.9,2-1.4,3h1.9c0.1-0.2,0.2-0.4,0.3-0.7c0.4-0.9,1.2-1.7,1.5-2.6c0.8-2.2,1.4-4.5,2.2-6.7c1.4-4.2,1.3-8.5-0.4-12.5
			c-1.5-3.5-3.3-6.8-5-10.2c-2.1-4.3-4.4-8.4-5.5-13.1c-0.5-2-0.4-4,0.7-5.9c0.1-0.2,0.1-0.7,0-0.9c-0.2-0.2-0.7-0.4-0.9-0.3
			c-0.4,0.2-0.8,0.5-0.9,0.9c-0.4,1.2-0.8,2.5-0.9,3.7c-0.3,2.5,0.6,4.8,1.5,7C183.5,169.9,186.1,175.3,188.8,180.7z"/>
		<path class="st0" d="M84.7,70c-0.8-0.1-1.5-0.1-2.3-0.2c-0.6-0.1-1.3-0.4-1.8,0.4c-0.3,0.5-0.9,0.1-0.9-0.4
			c-0.1-1.9,0.2-3.8,1.6-5.3c1-1.1,2.6-1.2,4-1.5c1-0.2,2-0.4,3-0.5c0.9-0.1,1.7-0.3,2.6-0.4c0.7-0.1,1.3-0.2,2-0.3
			c0.3,0,0.7-0.1,1,0.1c0.2,0.1,0.4,0.4,0.5,0.7c0,0.1-0.2,0.4-0.4,0.5c-1.8,0.9-3.1,2.3-4.4,3.8c-0.8,0.9-1.8,1.8-2.8,2.6
			c-0.6,0.4-1.4,0.5-2.1,0.7C84.7,70.1,84.7,70,84.7,70z M89.6,64.4c-1.2-0.6-1.5-0.4-2,0.7c-0.3,0.9-0.9,1.6-1.4,2.4
			c-0.4,0.5-0.9,0.5-1.6,0.3c-1-0.2-1.7-0.7-2.1-1.8c-0.3,0.2-0.5,0.4-0.6,0.7c-0.2,0.3-0.6,0.9-0.4,1c0.2,0.3,0.7,0.5,1.1,0.6
			c0.8,0.1,1.7,0,2.5,0c0.4,0,0.9,0,1.2-0.2C87.6,67.1,88.9,66.1,89.6,64.4z"/>
		<path class="st0" d="M86.8,58.2c-2-0.2-3.6,1-5.1,2.1c-1.6,1.2-3,2.6-4.5,3.8c-0.5,0.4-1.3,1.1-2,0.5c-0.6-0.5-0.3-1.3,0.2-1.9
			c1.4-1.9,3.1-3.4,5.2-4.3c1.3-0.6,2.8-1.1,4.1-1.7c1.4-0.6,2.7-0.4,3.9,0.3c0.2,0.1,0.4,0.5,0.4,0.6c-0.1,0.2-0.4,0.5-0.6,0.5
			C87.9,58.3,87.4,58.2,86.8,58.2z"/>
	</g>
</g>
</svg>
