<?xml version="1.0" encoding="utf-8"?>
<!-- Generator: Adobe Illustrator 19.2.0, SVG Export Plug-In . SVG Version: 6.00 Build 0)  -->
<svg version="1.1" id="Layer_1" xmlns="http://www.w3.org/2000/svg" xmlns:xlink="http://www.w3.org/1999/xlink" x="0px" y="0px"
	 viewBox="0 0 182.8 175.6" style="enable-background:new 0 0 182.8 175.6;" xml:space="preserve">
<style type="text/css">
	.st0{fill:#E91E63;}
</style>
<g id="man-cold">
	<path class="st0" d="M169.6,175.6c-1-2.6-1.8-5.4-3.2-7.9c-1.7-3.1-3.5-6.2-5.8-8.9c-3.2-3.7-6.5-7.5-11.3-9.5
		c-2.8-1.2-5.4-2.7-8-4.2c-1.1-0.7-1.9-1.8-2.9-2.7c-1.4-1.4-2.6-3.1-4.2-4.3c-4.3-3.4-8.2-7.2-12-11.2c-1.2-1.3-2-3-3.1-4.4
		c-1.7-2.2-3.4-4.3-5.1-6.4c-1-1.3-2-2.8-3-4.1c-0.4-0.5-0.9-0.8-1.3-1.3c-2-2.6-4.1-5.2-6.1-7.7c-1-1.3-2-2.6-3.2-3.8
		c-1.4-1.6-1.8-3.5-2.1-5.5c-0.6-4.8-1.1-9.6-1-14.4c0-1-0.4-2.1-0.9-3.1c-1.3-2.9-2.9-5.6-4.1-8.6c-1-2.3-2.2-4-4.6-4.9
		c-0.9-0.4-1.7-1.3-2.5-2c-0.4-0.4-0.6-0.6-1.3-0.3c-1.6,0.7-3.2,0.9-4.8-0.4c1.1,3.4,3.2,6,6.1,8.1c0.3-0.2,0.7-0.5,1.2-0.9
		c-0.2,0.8-0.6,1.3-0.5,1.7c0.1,0.5,0.7,0.9,1.1,1.3c1.4,1.4,2.6,3.1,4.5,4c0.8,0.4,1.4,1.5,1.9,2.4c0.2,0.3-0.1,0.8-0.1,1.3
		c-0.4-0.1-0.5-0.1-0.5-0.1c-3.1-3.1-6-6.3-9.2-9.3c-1.2-1.1-2.7-2-4.3-2.6c-1.8-0.6-3.2-1.8-4.6-2.9c-2.1-1.6-4.3-3.1-6.9-3.8
		c-1.9-0.5-3.9,0.1-5,1.7c-0.5,0.7-0.7,1.5-0.9,2c1.3,0.9,2.3,1.5,3.1,2.3c1,1,1.7,2.2,2.8,3.1c0.9,0.7,2.1,1.1,3.2,1.6
		c0.2,0.1,0.5,0.2,0.7,0.2c3.4,0.3,5.2,2.7,6.9,5.2c0.2,0.2,0,0.7,0,1c-0.4-0.1-0.9-0.1-1.1-0.3c-0.7-0.7-1.2-1.5-1.8-2.3
		c-0.9-1.2-2.1-1.8-3.5-2.2c-2.1-0.7-4.1-1.6-6.1-2.5c-3-1.4-5.8-0.9-8.6,0.5c-0.5,0.2-0.8,1-0.9,1.6c-0.2,0.7-0.1,1.5,0,2.3
		c0,0.7,0.4,1.1,1.1,1.2c3,0.2,5.6,1.3,8.2,2.7c1.6,0.8,3.4,1.1,5.1,1.7c1.1,0.4,2.1,1.1,3,1.8c0.3,0.2,0.2,0.8,0.3,1.2
		c-0.4-0.1-0.9-0.2-1.2-0.4c-0.7-0.4-1.2-1-1.9-1.4c-0.7-0.4-1.6-0.4-2.4-0.7c-1.9-0.7-3.8-1.4-5.6-2.3c-2.4-1.2-5.1-1.4-7.7-1.7
		c-0.8-0.1-2.1,1.1-2.2,1.9c-0.2,2.4,0.8,4.5,1.8,6.5c0.1,0.2,0.5,0.3,0.8,0.3c0.8,0,1.5,0,2.3,0c1.4,0,2.7,0,3.8,1s2.6,0.8,3.9,0.6
		c0.7-0.1,1.1-0.1,1.3,0.7c0.1,0.3,0.5,0.6,0.7,0.8c0.3,0.4,0.7,0.8,1.1,1.1c-0.1,0.2-0.2,0.3-0.3,0.5c-0.5-0.3-1.2-0.5-1.6-0.9
		c-0.8-0.7-1.6-1.1-2.6-0.9c-1.7,0.3-3-0.8-4.4-1.3c-2.6-0.8-5.2-0.7-7.7,0c-1.9,0.5-2.5,2.2-1.5,4c0.7,1.2,1.6,2.2,2.2,3.2
		c1-0.5,1.9-1.1,2.8-1.2c2.4-0.2,3.9,1.4,5.2,3.2c1,1.4,2,2.9,3.4,4.1c1.8,1.6,3.2,3.6,4.9,5.3c0.8,0.9,1.8,1.6,2.7,2.4
		c1.8,1.5,3.8,2.8,5.5,4.4c2.4,2.3,5.1,2.8,8.2,2.2c0.5-0.1,1.2,0.1,1.7,0.1c-0.5,0.3-0.9,0.8-1.5,0.9c-1,0.3-2,0.3-3,0.5
		c0.5,0.4,1,0.8,1.6,1.1c2.7,1.6,4.5,4,6.4,6.5c3.6,4.8,5.8,10.3,8.8,15.5c1.1,2,2.7,3.7,4,5.6c1.7,2.4,3.3,4.9,5,7.4
		c3.4,5.1,6.9,10.1,10.1,15.3c1.9,3,3.4,6.2,5.1,9.3c-0.6,0-1.3,0-1.9,0c-3-5.9-6.5-11.5-10.1-17.1c-1.5-2.3-2.7-5.2-6.4-5.1
		c-2,0.1-4-0.7-6.1-0.1c0.2,2.1,0.4,4.1,0.6,6.2c0.1,1.6,0.3,3.2,0.5,4.8c0.1,1.4,0.4,2.9,0.4,4.3c0,0.3-0.5,0.7-0.7,1.1
		c-0.3-0.3-0.7-0.6-0.7-0.9c-0.3-2.9-0.6-5.8-0.9-8.6c-0.1-1-0.2-1.9-0.2-2.9c-0.1-1.4-0.2-2.8-0.2-4.2c0-0.4,0.5-1.2,0.8-1.2
		c2.4,0,4.8,0.2,7.2,0.4c0.5,0,0.9,0,1.5,0c-1.6-2.4-2.9-4.9-4.7-7c-2.9-3.4-5.2-7.1-7.1-11.2c-0.7-1.6-1.6-3-2.5-4.7
		c-1.6,1.8-3.1,3.5-4.6,5.2c-1.2,1.5-2.9,2.9-2.4,5.2c0,0.1-0.1,0.1-0.1,0.2c-0.5,3.6-1.1,7.2-1.5,10.8c-0.2,1.8,0.1,3.7,0.2,5.6
		c0.2,3.2,0.6,6.4,0.7,9.6c0.2,3.2,0.2,6.4,0.3,9.6c-0.6,0-1.1,0-1.7,0c0-2.7,0-5.5-0.1-8.2c-0.2-3.2-0.7-6.3-0.8-9.5
		c-0.1-2.7-0.2-5.4,0-8.1c0.2-2.6,0.3-5.3,1.2-7.8c0.3-0.8,0.4-1.6,0.5-2.4c-0.1,0-0.2-0.1-0.3-0.1c-2.4,3.6-5.1,7-7.1,11
		c-2,4.2-2.8,8.6-2.9,13.2c0,2.2-0.4,4.5-0.7,6.7c-0.2,1.7-0.5,3.5-0.8,5.2c-0.5,0-1,0-1.5,0c0.3-1.9,0.5-3.9,0.8-5.8
		c0.3-2.3,0.7-4.5,0.7-6.8c-0.1-6,1.8-11.3,4.6-16.5c1-1.7,0.6-3.8-0.7-5.3c-2.9-3.3-6.5-5.8-9.9-8.6c-1.2-1-1.4-0.9-2.2,0.4
		c-0.4,0.6-0.7,1.2-1.1,1.8c-0.6,0.8-1.2,0.8-1.9,0c-0.5-0.6-1.3-1.1-1.7-1.8c-0.9-1.3-1.6-2.8-2.5-4.2c-0.6-1-1.3-1.9-1.8-2.9
		c-0.4-0.7-0.6-1.4-0.8-2.2c-0.1-0.3,0-0.6,0-0.8c0.2-2.2-0.2-3.9-2.1-5.4c-1.2-0.9-2-2.6-2.9-4c-0.3-0.4-0.3-1.1-0.4-1.6
		c-0.1-0.5-0.1-0.9-0.1-1.4c-0.1,0-0.2-0.1-0.3-0.1c-0.2,0.3-0.4,0.6-0.6,1c-2,4.5-5.2,7.8-9.7,9.8c-0.2,0.1-0.4,0.2-0.6,0.2
		c-0.7-0.1-1.6,0-2.2-0.3c-0.8-0.6-0.2-1.4,0.2-2c2.1-3.8,4.2-7.6,6.2-11.5c1.2-2.4,2.2-4.9,3.5-7.2c1.2-2.2,2.6-4.3,3.9-6.5
		c0.2-0.4,0.2-1,0.1-1.5c-0.3-0.9-0.8-1.6-1.4-2.7c-5.4,2.4-10.8,4.9-16.3,7.2c-2.2,0.9-4.5,1.4-6.7,2.3c-6.7,3-12.3,7.3-15.3,14.3
		c-1.2,2.6-1.7,5.5-1.9,8.4c-0.1,1.6-0.5,3.2-0.7,4.8c-0.2,1.3-0.3,2.6-0.5,3.8c-0.6,3.9-1.2,7.7-1.7,11.6c-0.3,2.1-0.4,4.3-0.5,6.5
		c-0.1,2.9,0,5.7-0.3,8.6c-0.2,2.2-0.8,4.4-1.4,6.5c-1.1,3.4-1.5,6.9-1.4,10.5c0,0.5-0.2,1-0.2,1.5c-0.6,0-1.1,0-1.7,0
		c-0.3-4.4,0.2-8.7,1.5-12.8c0.9-2.7,1.2-5.4,1.3-8.3c0.2-5,0.8-10,1.3-15c0.4-4,0.8-8.1,1.5-12c0.9-4.6,0.6-9.3,2.5-13.7
		c2.4-5.7,6.1-10.3,11.5-13.5c3.6-2.1,7.2-3.8,11.2-5c2.1-0.6,3.9-1.9,5.9-2.7c3.3-1.4,6.6-2.6,9.9-3.9c1.2-0.5,2.1-1.1,2.8-2.2
		c0.9-1.4,2.4-2,4.2-2c-0.5-1.4-1.1-2.7-1.4-4.1c-0.4-1.4-0.7-2.9,0.3-4.3c0.1-0.1,0.2-0.3,0.1-0.4c-0.6-1.4-1.2-2.7-1.8-4
		c-0.1-0.3-0.7-0.4-1-0.4c-2,0-3.5-0.9-4.4-2.5c-1.6-2.8-2.9-5.8-4.4-8.7c-0.7-1.4-1.2-3-1.9-4.4c-0.7-1.5-1-3-0.7-4.6
		c0.1-0.8,0.8-1.6,1.4-2.7c-0.7-1.6-1.8-3.6-2.6-5.7c-1.9-4.9-3.2-9.9-1.4-15.2c1.6-4.7,3.6-9.3,6.2-13.6c1-1.6,2.5-3,3.9-4.2
		c2-1.7,4-3.4,6.3-4.7c1.6-1,3.7-1.3,5.5-1.9c0.2-0.1,0.5-0.1,0.7-0.2c2.1-1.2,4.5-1.9,6.9-2.2C68.3,0.4,71,0,73.6,1.1
		c2.7,1.1,5.3,2.3,7.7,3.9C83,6.2,85,7,86.7,8.2c1.3,0.9,2.3,2.2,3.4,3.4c0.5,0.5,1,0.9,1.5,1.3c2,1.9,3.4,4.3,5,6.5
		c2.5,3.5,2.7,7.2,2.5,11.1c-0.1,1.1,0,2.2,0,3.2c0.1,0.1,0.2,0.1,0.3,0.1c2.6-0.1,3.6,0.5,4.5,3.3c0.6,1.7,0.8,3.6,1,5.4
		c0.3,3,0.4,6.1,0.5,9.2c0.1,2.3-1,4-2.9,5.2c-1.1,0.6-1.5,1.3-1.5,2.6c0.1,1.8,0,3.6,0,5.5c0,0.4,0.2,0.9,0.5,1.1
		c2,1.5,3.5,3.4,4.6,5.6c0.8,1.5,1.6,3,2.5,4.4c1.1,1.7,2.9,2,4.7,2.3c1.8,0.3,3.6,0.4,5.3,0.9c1.3,0.4,2.4,1.2,3.5,2
		c2.3,1.5,4.9,2.2,7.5,2.5c3.6,0.5,7.3,0.7,10.8,1.5c4.6,1,9.2,2.1,13.5,3.9c3.1,1.3,6.1,3,9.3,4.2c0.5,0.2,1.1,0.7,1.3,1.2
		c0.9,2.1,1.9,4.3,2.6,6.5c1.3,3.7,1.2,7.7,2.6,11.5c1,2.7,3.1,4.5,4.1,7c0.7,1.8,1.6,3.5,2.3,5.3c1.1,3,2,6.1,2.9,9.2
		c0.7,2.2-0.2,4.2-1.2,6c-1.3,2.5-1.3,5-0.8,7.5c0.6,3.2,1.8,6.4,2.5,9.6c0.6,2.6,0.8,5.3,1.2,8c0.1,0.9,0.4,1.8,0.8,2.6
		c1.6,2.8,1.7,5.5-0.1,8.3c-0.6,0-1.3,0-1.9,0c0.1-0.2,0.1-0.4,0.3-0.5c1.7-2.5,1.6-4.9,0-7.4c-0.4-0.7-0.6-1.6-0.7-2.5
		c-0.4-2.7-0.6-5.4-1.2-8.1c-0.6-2.7-1.5-5.3-2.1-8c-0.9-3.6-1.1-7.2,0.8-10.6c0.7-1.2,0.9-2.9,0.8-4.3c-0.3-2.1-1-4.1-1.7-6.1
		c-1.3-4.1-2.7-8.2-5.4-11.6c-2.1-2.7-2.6-5.9-3.5-8.9c-0.4-1.3-0.1-2.8-0.4-4.2c-0.6-2.4-1.6-4.7-2.3-7c-0.6-1.7-1.9-2.4-3.5-2.9
		c-1.7-0.6-3.4-1.4-5-2.2c-0.8-0.3-1.4-0.9-2.2-1.2c-4.1-1.2-8.2-2.5-12.3-3.4c-3.7-0.8-7.4-1.2-11.2-1.7c-3.3-0.4-6.4-1.3-9.2-3.2
		c-1-0.7-2.1-1.3-3.2-1.6c-1.3-0.4-2.7-0.4-4-0.5c-0.8-0.1-1.6-0.3-2.3-0.4c0.7,3.3,1.5,6.4,2,9.6c0.6,4.2,1.4,8.2,3.1,12
		s3.4,7.6,5.1,11.4c0.3,0.6,0.5,1.4,0.6,2.1c0,0.4-0.2,1-0.5,1.2s-0.9-0.1-1.3-0.3c-0.8-0.5-1.5-1.1-2.2-1.6
		c-1.9-1.2-3.7-2.3-5.6-3.5c-0.1,0.1-0.2,0.2-0.3,0.4c1.1,1.5,2.3,3,3.4,4.5c1.8,2.3,3.7,4.6,5.5,6.9c1.4,1.8,2.6,3.6,4.1,5.3
		c1.5,1.7,3.2,3.3,4.9,4.9c1.5,1.4,3.2,2.7,5,4.2c0.1-0.5,0.2-0.7,0.3-1c0.4-2,0.6-4.1,1.6-6c0.6-1.2,0.7-2.6,0.8-4
		c0.1-2.3-0.1-4.6,0.1-6.8c0.2-1.7,0.9-3.3,1.3-4.9c0.2,0,0.4,0,0.7,0c0.1,0.4,0.3,0.9,0.2,1.2c-1.1,2.8-0.8,5.7-0.8,8.9
		c1-1.5,1.7-2.9,2.7-4c2.2-2.9,4.4-5.9,6.8-8.6c2-2.2,4.2-4.1,6.4-6.2c0.9-0.8,1.7-1.7,2.7-2.4c0.5-0.4,1.1-0.4,1.7-0.7
		c-2.2,2.1-3.9,4.4-6,6.4c-7,6.6-12.8,14-15.7,23.3c-0.2,0.7-0.3,1.4-0.5,2.1c0.1,0,0.3,0.1,0.4,0.1c0.2-0.3,0.5-0.6,0.7-0.9
		c2.7-4.4,7-6.7,11.8-8c0.4-0.1,0.8,0.2,1.2,0.2c-0.3,0.3-0.5,0.7-0.8,1c-0.1,0.1-0.4,0.1-0.6,0.1c-2.9,0.8-5.7,1.7-7.8,4
		c-1.4,1.6-2.8,3.2-4.2,4.9c-0.5,0.7-1,1.4-1.4,2c1.1,1.2,2.3,2.1,3,3.3c1.4,2.3,3.4,3.7,5.7,4.5c0.5-0.4,0.8-0.7,1.3-1
		c1.6-0.9,3.3-1.8,5-2.6c1.1-0.5,2.2-1.1,3.4-1.4c2.8-0.6,5.6-1.1,8.4-1.6c0.4-0.1,1.3,0.2,1.3,0.5c0.2,0.8-0.5,1-1.1,1.1
		c-1.3,0.2-2.6,0.4-3.9,0.5c-4.8,0.4-8.9,2.7-12.9,5.3c2.5,1.4,4.9,2.7,7.2,4.2c2.2,1.6,4.2,3.4,6,4.9c1.1,0,1.9,0,2.8,0
		c2.4,0,4.8-0.1,7.3-0.1c0.7,0,1.5,0.2,1.3,1c-0.1,0.8-0.9,0.6-1.6,0.6c-2.6-0.1-5.3,0-8.2,0c0.4,0.6,0.7,1,1,1.3
		c1.5,2.1,3.1,4.1,4.5,6.3c2.2,3.7,4,7.6,5.1,11.7C170.9,175.6,170.3,175.6,169.6,175.6z M74.4,49.2c0.7,0.1,1.2,0.3,1.7,0.2
		c0.4-0.1,0.9-0.4,1.2-0.7c1.2-1.5,2.2-3.3,3.5-4.7c1.8-2,4.9-2.4,7.4-1.3c0.5,0.2,1.2,0.8,1.2,1.1c0,0.5-0.5,1.1-1,1.5
		c-1,0.8-2.2,1.4-3.4,2.2c0.4,0.2,0.7,0.3,0.9,0.5c2.9,1.8,5.8,3.6,8.6,5.4c1.9,1.2,1.8,1.8,1.5,4.2c-0.4,2.8-0.5,5.6,0.8,8.3
		c0.9,1.9,1.9,3.8,2.5,5.8c1.2,3.4,1.7,7.1,1.8,10.7c0.1,3.4,0.2,6.8,0.3,10.2c0,0.9,0.2,1.8,0.3,2.7c0.4-0.8,0.5-1.6,0.6-2.4
		c0.4-2.8,0.7-5.5,1.2-8.3c0.3-1.6,0.4-3.1-0.3-4.6c-0.5-1.1-1.2-2.1-1.6-3.2c-0.7-1.9-1.8-3.9-1.9-5.9c-0.3-6.3-0.1-12.5-1-18.8
		c-0.4-3.1-0.3-6.2-2-9c-1.3-2.2-2.1-4.7-3.1-7.1c-0.5-1.1-1.1-1.9-2.1-2.7c-1-0.7-1.9-1.7-2.4-2.7c-0.8-1.4-1.2-3-1.8-4.6
		c-0.4-1.1-0.9-2.2-1.4-3.2c-0.1-0.3-0.6-0.6-0.9-0.6c-1.7,0-3.5,0.1-5.2,0.3c-1.9,0.3-3.6,0-5.4-0.7c-0.8-0.3-1.9-0.4-2.6-0.2
		c-1.2,0.4-2.3,1.1-3.4,1.8c-1.6,1-3.1,2.7-5.2,2.5c-1.8-0.1-2.9,0.6-3.8,2c-1.2,1.7-2.9,2.4-5,2.1s-4.2-0.6-6.2-0.6
		c-2.6,0.1-2.6,0.6-2.6,2.6c0,4.8-0.1,9.5,0.1,14.3c0.1,2.7,0.8,5.3,1,8c0.4,4.5,1.5,8.7,3.9,12.6c0.9,1.4,1.5,3,2.2,4.5
		c0.4,0.9,0.8,1.9,1.2,2.8c0.8-0.1,1.4-0.2,2.1-0.3c-0.4-3-0.6-5.9,3.5-6.4c-0.7-3.2,0.4-6,1.9-8.4c1-1.7,2.6-3.2,4.2-4.5
		c2.3-1.9,4.8-3.5,7.2-5.1c0.7-0.5,1.2-0.8,1.1-1.7c0-0.4,0.2-0.8,0.3-1.2c0.1,0,0.2,0,0.3,0.1C74.4,47.7,74.4,48.4,74.4,49.2z
		 M61,121.5c0-0.2,0-0.4,0.1-0.6c1.8-0.2,3.7-0.5,5.5-0.6c1.5-0.1,3,0.1,4.4,0c1.8-0.1,3.5-0.6,5.3-0.8c2.9-0.3,5.7-0.6,8.6-0.9
		c0-0.1,0-0.3,0-0.4c-1.9-1.2-3.9-2.3-5.7-3.6c-2.1-1.6-4-3.5-6.2-5.1c-3.2-2.2-5.9-4.8-8.1-8c-0.5-0.8-1.2-1.7-2.4-1.7
		c-0.6,3-1,6-1.7,8.9c-0.4,1.6-1.1,3.2-1.4,4.8c-0.6,3.4-1.2,6.7-2.8,9.8c-0.2,0.4,0.1,1,0.3,1.5c0.6,1.1,1.5,2,1.9,3.1
		c0.8,2.1,1.8,3.9,3.9,5c1.9-3.9,6.3-6.3,6.8-11.1c-0.2-0.1-0.2-0.2-0.3-0.2c-2.4,0-4.9,0.1-7.3,0.1C61.8,121.8,61.4,121.6,61,121.5
		z M81.7,52c0.1,0,0.3,0,0.4,0c0.1,0.3,0.1,0.5,0.1,0.8c0,0.7,0,1.5,0,2.2c0,1.3,0.5,2.3,1.6,3s1.9,1.7,2.9,2.5
		c0.6,0.5,1.1,1,1.8,1.2c2.7,1,4,3.1,5.1,5.6c1.2,2.7,2.7,5.4,3.9,8.1c0.5,1.1,1.1,2.3,1.1,3.5c-0.2,5.5,0.5,10.8,1.3,16.2
		c0.1,0.7,0.4,1.4,0.7,2.1c0.3-0.3,0.3-0.5,0.3-0.7c-0.3-3.3-0.7-6.5-0.9-9.8c-0.2-2.5-0.1-5.1-0.3-7.6C99.5,77,99.2,75,98.6,73
		c-0.6-1.8-1.4-3.6-2.4-5.3c-2-3.5-2-7.1-1.1-10.8c0.2-0.9,0-1.5-0.7-2c-1.1-0.7-2.1-1.5-3.2-2.2c-2-1.2-3.9-2.4-5.9-3.6
		c-0.5-0.3-1.2-0.5-1.7-0.4c-1.9,0.4-3.8,1.1-5.7,1.5c-0.9,0.2-1.9,0.5-2.8,0.3c-1.6-0.4-2.7,0.5-3.8,1.3c-0.4,0.3-0.8,0.7-1.3,0.9
		c-2.9,1.5-4.9,4.1-7.3,6.2c0,0,0,0.1,0,0.3c1-0.5,1.9-1,2.9-1.4c0.3-0.1,0.8-0.3,1.1-0.2c3.3,0.8,6.3,2.1,8.9,4.2
		c1.4,1.1,2.7,2.5,4.7,2.7c-0.6-1.1-1.3-2.2-1.7-3.3c-1.2-3.5-0.3-4.7,3.2-4.6C81.7,55.1,81.7,53.6,81.7,52z M102.6,68.7
		c-0.1,0.1-0.2,0.1-0.4,0.2c0.2,0.6,0.4,1.2,0.7,1.7c1.8,3.5,2.6,7.3,2.6,11.2c0,1.3-0.5,2.7-0.7,4c-0.6,3.8-1.3,7.6-1.9,11.3
		c-0.2,1.1-0.7,2.3,0.4,3.5c1.4,1.5,2.6,3.2,4,4.7c1.1,1.1,1.7,2.6,3.8,3.1c2.4,0.5,4.5,2.4,6.8,3.7c0.6,0.3,1.2,0.7,1.8,1.1
		c-0.6-2.1-1.5-4-2.3-5.8c-2.1-4.4-4.2-8.7-5-13.5c-0.5-3.2-0.9-6.5-1.5-9.7c-0.5-2.6-0.6-5.4-3.2-7c-0.1,0-0.1-0.1-0.2-0.2
		c-1-1.7-2.1-3.5-3.1-5.2C103.8,70.8,103.2,69.8,102.6,68.7z M71.5,121.6c-0.4,1.3-0.7,2.4-1,3.5c-0.1,0.3-0.1,0.8,0,1.1
		c0.5,0.8,1.2,1.4,1.7,2.2c1.3,1.8,2.6,3.7,3.7,5.6c1.2,2.2,2.2,4.6,3.3,7c2.8-6.5,4.5-13.2,8.3-18.9c-0.4-0.4-0.8-0.6-1-0.9
		c-0.5-0.9-1.2-1.1-2.1-0.9c-0.9,0.1-1.8,0.4-2.7,0.5C78.3,121.1,74.8,121.3,71.5,121.6z M38.3,119.4c2.3-0.7,5.8-3.7,7.2-5.7
		s2-4.7,4.1-6.2c0.2-0.1,0.2-0.4,0.3-0.6c1-3.2,2-6.4,3-9.7c0.4-1.3,0.5-2.6-1.1-3.3c-1.4,2.2-2.8,4.4-4.1,6.7
		c-1.3,2.5-2.3,5.1-3.6,7.6C42.3,111.9,40.3,115.6,38.3,119.4z M54.4,96.1c-0.7,2.4-1.4,4.9-2.1,7.3c-0.6,2.2-1.5,4.2-1.4,6.7
		c0.2,3.1,1.8,4.9,3.6,6.9c0.9,0.9,2,1.7,2.1,3.2c0.2-0.5,0.3-0.9,0.3-1.4c-0.2-2.5-0.5-5-0.7-7.5c-0.1-1.2-0.3-2.4-0.3-3.6
		c0-2.9-0.1-5.8,0-8.7C56,97.4,55.8,96.8,54.4,96.1z M80.5,141.8c0.3-0.1,0.4-0.1,0.5-0.2c3.7-4.3,7.4-8.7,11.1-13.1
		c0.2-0.2,0.2-0.6,0.1-0.8c-1-1.7-2.1-3.4-3.3-5.3C85,128.6,83.2,135.3,80.5,141.8z M100.4,56.2c2.9-1.3,3.9-3.4,3.7-6.2
		c-0.2-2.8-0.3-5.5-0.5-8.3c0-0.2-0.1-0.6-0.2-0.6c-1.4-0.3-1.3-1.8-2-2.7c-0.3-0.3-0.7-0.6-1.1-0.7c-1.6-0.4-3.3,1.9-2.7,3.8
		c0.7,2.1,1.5,4.1,2.4,6.3c0.4-0.2,0.9-0.4,1-0.8c0.8-2.3,0.5-4.3-1.7-5.9c0.6-0.1,1.1-0.2,1.4,0c1.6,1,2,2.6,1.8,4.4
		c-0.2,2.1-0.4,3.1-2.9,3.5C99.9,51.3,100.1,53.7,100.4,56.2z M46.9,63.4c0.1-0.1,0.2-0.1,0.3-0.2c-0.6-2.2-1.3-4.3-1.9-6.5
		c-0.4-1.3-0.8-2.5-2.5-2.1c-0.2,0-0.5-0.1-0.8-0.2c-0.9-0.4-1.1,0-1,0.8c0.1,0.6,0.1,1.2,0.3,1.8c0.3,0.9,0.7,1.9,1.2,2.7
		c1.4,2.9,2.8,5.8,4.3,8.5c0.7,1.3,2.1,1.7,3.8,1.7c-1-1.7-1.8-3.3-2.8-4.9c-0.1-0.2-0.4-0.2-0.6-0.4c-1-1-2-1.9-3-3
		c-0.2-0.2,0-0.6,0-0.9c0.1,0,0.2,0,0.3-0.1C45.2,61.6,46.1,62.5,46.9,63.4z M75.6,137.5c-1.3-4.1-3.7-7.2-6.3-10.4
		c-1,1.3-2,2.5-2.9,3.6C69.5,133,72.5,135.2,75.6,137.5z M57.2,97.7c-0.4,4.8-0.3,5,1.5,7.1c0.4,0.4,0.9,0.8,1.5,1.4
		c0.3-2.3,0.6-4.2,0.9-6.1c0-0.3-0.1-0.8-0.2-0.8C59.7,98.7,58.5,98.3,57.2,97.7z M78.4,48.3c2.4-0.4,4.8-0.7,7.3-2
		c-1.8-0.5-2-1.8-2.1-3.1C81.1,44.2,79.7,46.2,78.4,48.3z M57.7,115c0.3-0.6,0.6-0.8,0.6-1.1c0.5-1.7,0.9-3.4,1.4-5.2
		c0.1-0.3,0.1-0.7,0-0.9c-0.8-0.8-1.6-1.6-2.5-2.4C57.4,108.6,57.5,111.6,57.7,115z M54.1,93.9c0.7,1,1.5,1.6,2.8,0.8
		c0.6-0.3,1.3-0.6,1.9,0.4c-0.5,0.3-1,0.5-1.7,0.9c1.3,0.5,2.4,1,3.6,1.5c0.1-0.1,0.2-0.3,0.3-0.4c-1-1.1-2-2.4-3.2-3.3
		C56.1,92.3,56,92.4,54.1,93.9z M43,53.7c0.1-0.1,0.1-0.2,0.2-0.2c-0.8-1-1.5-2.1-2.3-3c-0.1-0.1-0.9,0.1-0.9,0.2
		c-0.2,1-0.2,1.9-0.3,2.9c0.1,0.1,0.2,0.1,0.3,0.2C40.9,52.3,42,53.1,43,53.7z M103.1,76.4c0.2-0.1,0.3-0.1,0.5-0.2
		c-0.7-2.3-1.5-4.5-2.2-6.8c-0.1,0-0.3,0.1-0.4,0.1C100.6,72.2,101.9,74.3,103.1,76.4z M102.7,38.1c0.1-0.1,0.2-0.2,0.2-0.2
		c-0.5-0.9-0.8-1.9-1.4-2.6c-0.9-1.1-1.9-1-2.5,0.3c-0.2,0.3-0.3,0.7-0.5,1C100.2,36.5,101.9,35.8,102.7,38.1z M79.7,58
		c0.6,1.6,2.3,2.1,3.9,1.1C82.4,57.8,81.3,57.5,79.7,58z M65.4,67.5c0.1-0.1,0.1-0.2,0.2-0.2c-1.1-1-2.1-2-3.2-3
		c-0.1,0.1-0.2,0.2-0.3,0.2c0.2,0.8,0.2,1.9,0.7,2.4C63.4,67.4,64.5,67.4,65.4,67.5z M59.9,67.4c0.6-0.1,1.1-0.1,1.7-0.2
		c-0.3-1.4-0.6-2.8-0.9-4.1c-0.1,0.1-0.2,0.2-0.2,0.3C60.3,64.7,60.1,66,59.9,67.4z M87.5,45c0.5-0.4,0.8-0.7,1.3-1.1
		c-0.7-0.3-1.1-0.4-1.8-0.7C87.2,43.9,87.3,44.3,87.5,45z"/>
	<path class="st0" d="M18.8,175.6c-1.3-4-3.9-7.1-5.9-10.7c-1.4-2.6-2.1-5.5-3.1-8.3c-0.1-0.3,0.2-0.8,0.4-1.2
		c0.3,0.3,0.7,0.5,0.9,0.8c0.5,1.1,0.9,2.3,1.3,3.5c1.1,3.8,3.8,6.8,5.7,10.1c1,1.8,1.6,3.8,2.4,5.7
		C19.9,175.6,19.4,175.6,18.8,175.6z"/>
	<path class="st0" d="M81,153.1c0,1.5-0.9,2.8-2,2.8c-0.9,0-1.5-0.8-1.5-1.9c0-1.7,0.7-2.7,1.8-2.7C80.5,151.3,81,151.8,81,153.1z"
		/>
	<path class="st0" d="M86.5,37.7c1.3,0.3,3.1,0.5,4.8,1c0.4,0.1,0.6,0.6,0.9,0.9c-0.4,0.2-0.8,0.5-1.2,0.5c-3.4-0.1-6.9,0-10.1,1.3
		c-1.8,0.7-3.6,1.3-5,2.8c-0.2,0.3-0.8,0.2-1.2,0.3c0.1-0.4,0-1,0.2-1.3c2.2-2.2,4.6-4,7.5-5.1C83.6,37.8,84.8,37.9,86.5,37.7z"/>
	<path class="st0" d="M57.4,55.1c-1.5-0.2-2.8-0.4-4.1-0.7c-0.2,0-0.5-0.7-0.4-0.8c1.6-1.6,3-3.6,5.4-4.2c1.2-0.3,2.4-0.4,3.5,0.3
		c1.1,0.6,2.3,1.2,3.3,2c0.7,0.5,0.7,0.9-0.3,1.2c-1.4,0.5-2.8,1.2-4.2,1.6C59.5,54.7,58.4,54.9,57.4,55.1z M58.4,50.4
		c-1.5,0.5-3,1.5-4.2,3.2c1.9,0.5,3.7,0.9,5.3,0.2C59.2,52.6,58.9,51.6,58.4,50.4z"/>
	<path class="st0" d="M57.4,44.7c2.5-0.1,4.5,0.6,6.2,2.1c0.3,0.3,0.4,0.8,0.5,1.3c-0.4,0-1,0.3-1.3,0.1c-2.2-1.4-4.5-1.1-6.9-0.8
		c-2.3,0.3-3.9,1.6-5.4,3.1c-0.1,0.1-0.3,0.4-0.4,0.4c-0.3,0.1-0.7,0.2-1,0.2c0-0.4-0.1-0.9,0.1-1.1c1.2-1.3,2.5-2.6,3.8-3.8
		C54.2,45,55.8,44.5,57.4,44.7z"/>
	<path class="st0" d="M59.8,34.8c0.5-0.2,1.1-0.5,1.6-0.5c1.5,0,2.9,0.3,4.4,0.3c0.7,0,1.5-0.3,2.2-0.6c1.6-0.7,3.1-1.6,4.7-2.3
		c0.3-0.1,0.7,0,1.1,0c0,0.1,0.1,0.2,0.1,0.3c-0.2,0.2-0.5,0.4-0.7,0.6c-1.6,0.8-3.2,1.4-4.7,2.3c-1,0.6-1.9,1-3.2,0.6
		c-1.3-0.4-2.8-0.2-4.2-0.3c-0.4,0-0.8,0.1-1.1,0.1C59.9,35.1,59.8,34.9,59.8,34.8z"/>
	<path class="st0" d="M53.5,39.4c2.9-0.9,5.7-2,8.7-2.7c1.1-0.2,2.5,0.6,3.7,1c0.1,0,0.2,0.4,0.2,0.5s-0.3,0.3-0.4,0.3
		c-0.2,0-0.5-0.1-0.7-0.2c-2.4-1.5-4.7-0.5-7,0.3c-0.9,0.3-1.7,0.8-2.5,1.1C54.9,40,54.2,40,53.6,40C53.6,39.8,53.5,39.6,53.5,39.4z
		"/>
	<path class="st0" d="M68.3,37.6c1.5-1.4,3.2-2.5,5.3-2.8c2.3-0.4,4.7-0.1,6.8-1.3c0.2-0.1,0.5,0.1,0.7,0.1
		c-0.1,0.2-0.2,0.6-0.3,0.6c-1.2,0.4-2.4,1-3.7,1c-3,0-5.7,0.6-8,2.5c-0.2,0.1-0.4,0.1-0.6,0.2C68.4,37.8,68.4,37.7,68.3,37.6z"/>
</g>
</svg>
