<?xml version="1.0" encoding="utf-8"?>
<!-- Generator: Adobe Illustrator 19.2.0, SVG Export Plug-In . SVG Version: 6.00 Build 0)  -->
<svg version="1.1" id="Layer_1" xmlns="http://www.w3.org/2000/svg" xmlns:xlink="http://www.w3.org/1999/xlink" x="0px" y="0px"
	 viewBox="0 0 149.6 131.3" style="enable-background:new 0 0 149.6 131.3;" xml:space="preserve">
<style type="text/css">
	.st0{fill:#E91E63;}
</style>
<g id="nausea-flu-lady">
	<path class="st0" d="M149.2,92c-0.1-0.5-0.1-1.1-0.4-1.6c-0.5-1.2-1.1-2.4-1.7-3.5c-1.1-2-1.9-4.1-2.4-6.2c-0.6-2.2-1-4.6-1.4-7
		c-0.5-3.2-1.6-6.1-3.4-8.9c-2.1-3.2-4.6-6.1-8.1-8.1c-1-0.6-1.9-1.4-2.7-2c-1.5-1.1-3-2.2-4.5-3.4c-1.6-1.1-3.1-2.4-3.9-4.2
		c-0.6-1.4-1.1-2.6-1.5-4c-0.6-2.1-1.2-4.2-1.9-6.4c-1-3.6-1.6-7.5-2.1-11.2c0-0.5-0.2-1-0.4-1.5c-0.2-0.7-0.5-1.4-0.7-2.1
		c-1-3.2-2.1-6.4-3.9-9.2c-0.5-0.9-1.1-1.9-1.7-2.7c-1.2-1.7-2.5-3.4-3.7-5c-0.7-1-1.7-1.7-2.9-1.7c-1.6-0.6-3.2-1.2-4.9-1.9
		c-2.4-0.9-4.9-1.6-7.5-1.4h-1.7c-2.2,0-4.4,0.1-6.5,1c-1.1,0.4-2.2,0.9-3.4,1.2c-3.1,0.9-5.7,2.4-8.1,4.4c-3.1,2.9-5.6,6.2-7.5,10
		c-1.1,2.2-2,4.5-3.1,6.7c-1.6,3.1-2.2,6.5-2.5,9.9c0,1,0.1,2-0.1,2.9c-0.5,2.7-0.9,5.6-0.6,8.5c0,0.4-0.2,0.7-0.5,1
		c-0.6,0.4-1.2,0.7-2,1c-2.6,0.9-5.1,1.7-7.7,2.4c-2.9,0.6-5.5,1.9-7.6,3.9c-2.4,2-4.5,4.2-6.5,6.6c-1.2,1.6-2.4,3.2-3,5.2
		c-0.6,2-1,4-1.6,5.9c-1.2,4-2.6,8-4,12c-0.2,0.7-0.6,1.5-1.1,2.2c-0.6,1-1.5,2-2.1,3c-0.7,1-1.5,2.1-2.5,2.9
		c-0.2,0.1-0.4,0.4-0.5,0.6c-1.2,2-2.6,3.9-3.9,5.7c-1.1,1.7-2.2,3.6-3.2,5.5c-1.6,3.1-3.1,6.4-4.9,9.5c-1.5,2.9-3,5.6-3.9,8.7
		c-0.5,1.9-0.7,3.9-1,5.9c-0.1,1.1,0.1,2.2,0.7,3.2c0.2,0.5,0.5,1,0.7,1.5h2.1c-0.4-1-1-2-1.4-3c-0.1-0.4-0.2-0.9-0.2-1.4
		c0.1-1.9,0.2-3.7,0.7-5.6c0.6-2.6,1.9-4.9,3.1-7.2c1.6-3.2,3.2-6.4,5-9.6c1.1-2,2.1-4,3.2-6c1.1-1.9,2.5-3.7,3.7-5.6
		c0.1-0.2,0.2-0.4,0.4-0.5c1.7-1.2,2.7-3,3.9-4.7c1-1.5,2.2-2.9,2.7-4.6c1-3,2-5.9,3-8.7c0.4-0.9,0.5-1,1.2-0.2
		c2.5,2.5,4.1,5.5,5.2,8.9c0.7,2.6,1.9,5.1,3.2,7.5c0.9,1.5,1.2,3.2,2.9,4.2c-0.1,0.2-0.2,0.4-0.4,0.5c-1.2,0.9-2.4,1.9-3.6,2.7
		c-1.5,1-3.1,2-4.7,2.9c-1.9,1-3.7,1.9-5.5,2.9c-0.7,0.4-1.5,0.9-2.2,1.4c-1.7,1.2-3.5,2.6-5.7,2.9c-0.2,0.1-0.5,0.2-0.7,0.4
		c-1.5,0.9-3,1.7-4.5,2.6c-0.4,0.2-0.7,0.5-1.1,0.7c-0.6,0.5-1.2,1.1-2,1.6c-0.6,0.5-1.2,0.7-1.9,1.2c-0.4,0.4-0.5,0.7-0.2,1.1h0.1
		c1-0.7,2.1-1.6,3.2-2.4c0.7-0.5,1.4-1,2-1.5c0.7-0.5,1.5-1,2.2-1.4c1.5-0.9,2.9-1.7,4.5-2.1c1-0.2,2-0.9,2.9-1.5
		c1.6-1.1,3.4-2.4,5.2-3.2c1.9-0.7,3.6-1.6,5.4-2.7c3-2,6-3.9,8.6-6.4c1.5-1.4,3.1-2.4,4.7-3.5c1.2-0.7,2.5-1.4,3.7-2.2
		c3.2-2.2,6.1-5,8.9-7.7c1.5-1.5,3-3.1,5.2-3.6l0.1-0.1c1.6-1.2,3.5-1.5,5.5-1.4c1.5,0,2.9,0.1,4.4,0.1c0.5,0,0.6,0.1,0.7,0.5
		c0.1,0.6,0.5,1.2,1.2,1.4c0.6,0.1,1.4,0.1,2.1,0.2c0.6,0.1,1.2,0,1.9-0.4c0.1-0.2,0.4-0.4,0.6-0.5c0.1,0.7,0,1.4-0.6,1.6
		c-0.9,0.4-1.7,0.7-2.6,1c-0.6,0.2-1.4,0.4-2,0.6c-1.2,0.5-2.5,0.7-3.9,0.7h-2.9c-1,0-1.9,0.5-2.5,1.2c-0.1,0.1-0.1,0.6,0,0.7
		c0.2,0.2,0.5,0.1,0.7-0.1c0.6-0.6,1.4-1,2.2-1c1.5,0.1,3,0.2,4.5,0.2c1.4,0,2.6,0.5,3.9,0.9c0.7,0.2,1.6,0.4,2.2,0.1
		c3.7-1.2,7.4-2.5,11-3.7c1.7-0.6,3.4-1.4,5-2.4c0.2-0.1,0.5-0.2,0.7-0.4c-0.5,1.1-0.6,2.2-0.5,3.4c0.1,0.5,0,0.7-0.4,1
		c-1.9,1.4-3.9,2.5-6.1,3.4c-3.6,1.4-7.4,2.6-11.1,3.9c-1.1,0.4-2.1,0.4-3.2,0.5c-0.4,0.1-0.9,0-0.9,0.5c0,0.6,0.5,0.5,0.9,0.6h0.4
		c1.6-0.5,3.4-0.9,5.1-1.4c2.6-0.9,5.2-1.9,8-2.9c3-1.1,5.7-2.6,8.2-4.6c0.2-0.1,0.4-0.2,0.6-0.4c1-0.4,2-0.9,3.1-1.4
		c-0.1,0.5-0.1,0.6-0.1,0.9c0,0.6-0.1,1.2,0.1,1.7c0.2,0.6,0.2,0.9-0.2,1.2c-1.9,1.4-3.6,2.7-5.5,4c-1.5,1-3.1,2-4.7,2.7
		c-2.5,1-5.1,1.7-7.7,2.6c-0.1,0.1-0.4,0.1-0.5,0.2c-1.5,0.6-2.9,1.2-4.4,1.9c-0.4,0.1-0.9,0-1.2-0.1c-0.7-0.4-1.4-0.7-2-1.1
		c-0.1-0.1-0.4,0-0.6,0c0,0.2,0,0.5,0.1,0.6c0.2,0.2,0.6,0.4,1,0.6c1.2,0.7,2.5,1.2,3.9,0.4c0.6-0.2,1.2-0.5,1.9-0.7
		c1-0.4,2-0.9,3-1.2c1-0.4,2-0.6,3-1s2-0.7,2.9-1.1c1.4-0.6,2.7-1.1,4-1.9c1.6-1,3-2.1,4.5-3.2c0.4-0.4,0.9-0.6,1.5-1
		c0,1.2-1.1,2.6,0.6,3.5c-0.5,0.2-0.9,0.4-1.2,0.5c-2.2,1-4.5,1.7-6.6,2.7c-2.4,1.1-4.6,2.4-7,3.5c-1.4,0.6-2.9,1-4.2,1.7
		c-1.6,0.7-3.1,0.9-4.7,0.5c-2-0.4-4-0.7-5.9-1.2s-3.7-0.6-5.7-0.4c-1.7,0.2-3.6-0.1-5.4-0.5c-0.5-0.1-1-0.2-1.5-0.4
		c-0.1-0.1-0.4,0.1-0.5,0.1c0.1,0.1,0.1,0.4,0.2,0.5c0,0.1,0.1,0.1,0.2,0.1c1,0.2,1.9,0.4,2.9,0.6c0.4,0.1,0.6,0.2,1,0.4
		c0.1,0.1,0.1,0.1,0.1,0.2c-0.2,0-0.4,0.1-0.5,0.2c-2.7,2.2-5.4,4.5-8.1,6.6c-1.5,1.2-2.9,2.7-4,4.4c-1.5,2.1-3,4.1-5.4,5.5
		c-2.2,1.4-4.2,3.2-5.7,5.4c-1.9,2.7-4,5.4-6.5,7.5c-1.6,1.4-2.9,2.9-4.7,3.7c-0.5,0.2-0.7,0.6-1.1,1h2.9c2.4-2,4.7-3.9,6.9-6
		c1.5-1.5,2.5-3.2,3.9-4.9c1-1.2,2.2-2.4,3.4-3.6c0.1-0.2,0.5-0.2,0.7-0.4c0,0.2,0.1,0.5,0.1,0.7v5.6c0,2.7,0.1,5.6,0.2,8.5h1.9
		c0-2.5-0.2-5-0.2-7.5c0-3,0.1-6,0.1-9c0-0.6,0.2-1.1,0.6-1.5c0.7-0.9,1.6-1.7,2.4-2.6c0.9-1.1,1.7-2.5,2.7-3.6
		c1.2-1.2,2.6-2.4,4-3.5c2.1-1.9,4.4-3.6,6.6-5.4c0.7-0.5,1.2-1.4,2.4-1.2c0.5,0,0.7,0,1,0.7c0.6,1.7,1.5,3.5,2.7,5
		c1.6,1.7,3,3.7,5,5c2.6,1.7,5.5,2.9,8.7,2.7h1.1c2.1,0.2,4-0.2,5.9-1.1c1.6-0.9,3.2-1.7,5-2.1c1-0.2,2-0.7,2.5-1.6
		c0.6-1,1.4-2,2.2-2.9c1.9-2,3.2-4.4,4.4-6.9c1.4-3.1,2.6-6.1,3.4-9.5c1-4.4,1.4-8.7,1.5-13.2c0-0.6,0-1.1,0.1-1.6
		c0.6-2.6,0.7-5.1,0.5-7.7c-0.1-1-0.1-2-0.1-3.1c0.7,0.1,1.3,0.2,2,0.3c1.7,0.5,3.6,0.8,5.3,0.7c2,0,3.8-0.6,5.3-2
		c0.7-0.6,1.4-1.5,2-2.2s1-1.6,1-2.6c0-0.2,0-0.6,0.1-1.1c0.6,0.4,1.1,0.6,1.5,1c2.1,1.5,4.1,3.1,6.2,4.6c1.6,1.1,3.1,2.5,4.4,4.1
		c0.9,1.1,1.7,2.4,2.5,3.6c1.2,1.6,2,3.6,2.4,5.6s0.5,4,1,5.9c0.4,1.5-0.1,2.5-1.1,3.5c-0.2,0.4-0.6,0.6-0.9,1
		c-1.1,1.1-2.2,2.1-3.2,3.4c-1.9,2.1-3.5,4.4-5.4,6.5c-1.9,2.2-3.9,4.2-5.9,6.4c-0.5,0.5-0.6,0.5-1-0.1c-0.2-0.5-0.5-1-0.6-1.5
		c-0.5-1.7-1.1-3.5-1.6-5.2c-0.2-0.6-0.4-1.2-0.6-1.9c-0.1-0.2-0.4-0.4-0.5-0.5c-0.1,0.1-0.4,0.4-0.4,0.5c0,0.4,0.1,0.9,0.2,1.2
		c0.2,0.9,0.6,1.9,1,2.9c0.5,1.6,1.1,3.4,1.6,5.1c0.1,0.4,0.1,0.7,0,1.1c-0.5,0.9-1,1.7-1.5,2.7c-1,1.9-1.7,3.7-2.1,5.7
		c-0.2,1-0.5,1.9-0.9,2.9c-0.9,2.5-1.9,5-2,7.7c-0.1,3.7-0.1,7.6-0.2,11.4h4.1c0.7-0.2,1.4-0.5,2.1-0.6c1.4-0.4,2.5-1.1,3.6-1.9
		c1.1-0.7,2.2-1.5,3.4-2.2c0.5-0.4,0.9-0.6,1.4-1c0.4-0.2,0.7-0.2,1.1,0c0.7,0.5,1.4,1,2.1,1.4c0.9,0.4,1.7,0.7,2.6,1
		c0.2,0,0.4-0.1,0.6-0.2c-0.1-0.1-0.1-0.4-0.2-0.5c-0.2-0.1-0.4-0.1-0.6-0.2c-0.9-0.4-1.9-0.6-2.7-1.1c-0.6-0.4-1.1-0.9-1.6-1.2
		c-0.1,0-0.2-0.2-0.2-0.4c-0.1-1.5-0.4-3-0.6-4.5c-0.2-1.9-0.6-3.7-1.1-5.6c-0.7-2.7-1.6-5.6-2.6-8.4c-0.5-1.5-1.2-2.9-1.9-4.2
		c-0.2-0.4-0.2-0.7,0.1-1.1c4.4-3.9,7.7-8.5,11.5-12.9c1.4-1.6,2.7-3,4.2-4.5c0.4-0.5,0.7-0.4,1,0.1c0.9,2.2,1.7,4.4,2.6,6.6
		c1,2.6,2,5.2,2.6,8c0.1,0.4,0.2,0.9,0.5,1.2c0.2,0.2,0.5,0.4,0.7,0.6v-4.6C149.7,93.9,149.4,93,149.2,92z M67.8,10.9
		c-0.4,0.5-0.9,1.1-1.3,1.7C66.9,12,67.3,11.4,67.8,10.9z M63,59.2c-0.1,0-0.1-0.1-0.2-0.1c-1.1-1.1-2-2.3-2.7-3.7
		C60.9,56.8,61.9,58,63,59.2z M64.5,76c-2.2,0.9-4.1,2.5-5.9,4.2c-2.7,2.7-5.5,5.5-8.7,7.7c-1.2,0.9-2.6,1.5-4,2.4
		c-0.7,0.5-1.6,1-2.5,1.5c0.2-0.4,0.4-0.7,0.6-1.1c1.2-2.1,1.6-4.6,1.9-7c0.1-1.2,0-2.6,0-4c0-0.2,0-0.5-0.1-0.6
		c0-0.2-0.2-0.4-0.4-0.4c-0.1,0-0.4,0.2-0.4,0.4c-0.1,0.2-0.1,0.4-0.1,0.6v1.9c0.2,2.2-0.2,4.5-0.9,6.6c-0.5,1.5-1.5,2.9-2.2,4.2
		c-0.2,0.4-0.5,0.2-0.7-0.1c-0.5-0.9-1-1.9-1.5-2.7c-1.2-2.4-2.5-4.7-3.4-7.4c-1.2-3.9-3.1-7.2-6.1-10c-0.2-0.1-0.4-0.4-0.5-0.5
		c-0.6-0.5-0.6-1-0.5-1.7c0.5-2.4,1.1-4.7,2.2-6.9c1-2.1,2.5-3.9,4.2-5.5c0.2-0.4,0.6-0.7,1-1.1c1.7-2,3.6-3.7,6-5
		c1.1-0.5,2.4-0.9,3.6-1.2c2.9-1,5.7-2,8.6-3c0.5-0.1,1-0.5,1.6-0.9c0.1,0.6,0.2,1.2,0.5,1.7c0.1,2,1,3.6,1.7,5.4
		c0.6,1.4,1.1,2.7,1.9,4c0.6,1,1.5,2,2.4,2.6c0.9,0.5,1.9,0.7,2.9,1c0.4,0.1,0.5,0.2,0.4,0.6c-1.4,4.1-1.6,8.5-1.6,12.7V76z
		 M75.3,74.9c-1.6,0-3.4,0-5-0.1c-1.6,0-3.4,0.1-5.1,0.7c0-5.2,0.1-10.2,2.1-15.2c0.1,0,0.1,0,0.2,0c0.1,0.4,0.4,0.6,0.5,1
		c0.9,1.9,1.7,3.9,2.6,5.7c0.6,1.2,1.5,2.2,2.9,2.7c1.2,0.5,2.2,1.2,2.7,2.5c0.1,0.4,0.4,0.6,0.6,0.9c0.2,0.4,0.5,0.7,0.9,1.4
		C76.8,74.7,76,74.9,75.3,74.9z M79.7,76.5c-0.4,0.5-1,0.6-1.7,0.5c-0.2-0.1-0.6-0.1-0.9-0.1c-0.9-0.1-0.9-0.1-1-1.1
		c1-0.2,2-0.5,3-0.6c0.4,0,0.9,0.2,1,0.5C80.2,75.8,80,76.3,79.7,76.5z M81,75.2c-0.5-0.9-1.1-1.4-2.2-1.2c-0.1,0-0.2,0-0.4-0.1
		c-0.6-0.9-1.2-1.7-1.7-2.6c-0.6-1.1-1.6-1.9-2.9-2.4s-2-1.4-2.5-2.5c-1.1-2.5-2.4-5-3.5-7.5c-0.1-0.2-0.2-0.6-0.4-1
		c-0.2-1-0.6-2-0.9-3c-0.2-0.6-0.4-1.2-0.5-2c-0.1-0.4-0.2-0.8-0.2-1.1c-0.2-1.4-0.4-2.7-0.7-4.1h0.2c-0.1-1.5,0.3-2.9,0.4-4.9
		c0.2-0.5,0.3-1,0.5-1.5c0.3-0.9,0.7-1.8,1-2.7c0.3-0.8,0.7-1.7,1.1-2.5c0.1-0.1,0.2-0.1,0.3-0.2c1.7-1.4,3.9-3,6.1-3.9
		c0.8-0.2,1.7-0.4,2.5-0.5c0.7-0.2,1.4-0.1,2.1,0.2c0.1,0.1,0.2,0.1,0.4,0.2c0.1,0,0.1,0,0.2,0.1c0.1,0.1,0.2,0.1,0.4,0.2
		c1.5,0.8,3.1,1.2,4.8,1.3c-0.2-2.1,0.4-4.2,1.2-6.2c0.9-2.1,2.2-4.2,2.1-6.5c0-1.2,1.9-1.2,1.9,0c0.1,4.5-3.9,8.1-3.4,12.7h3.5
		c1,0,1.9,0.4,2.6,1c1.9,1.5,3.1,3.2,3.7,5.5c0.6,2,1.2,3.9,2,5.7c0.4,1.1,0.8,2.1,1.2,3.1c0.5,2,1.1,4,2.1,5.9c0.3,1,0.6,2,0.9,3
		c0,0.2,0,0.5-0.1,0.6c-0.4,0.5-0.6,1.1-1,1.6c-1.1,1.6-2.2,3.1-3.4,4.7c-1.1,1.6-2.6,2.7-4.1,4l-2.2,2.2c-0.9,1-1.7,2.2-2.7,3.1
		c-0.6,0.6-1.7,1-2.6,1.2c-1.2,0.4-2.5,0.6-3.7,0.9C82.1,76,81.4,75.8,81,75.2z M99,79c-0.6,0.2-1.2,0.5-1.9,0.7
		c-0.4-1.1,0-2.6,1-3.1c0.2-0.1,0.4-0.2,0.5-0.4c0.5-0.5,1.2-0.4,1.5,0.2C100.6,77.7,100.1,78.7,99,79z M100.4,86.4
		c0.2-1,0.5-1.9,1.5-2.4c0.6-0.2,1.2-0.4,1.9-0.5c0.6,0.1,1.2,0.1,1.4,0.9c0,0.2-0.1,0.6-0.2,0.7c-0.9,0.7-1.9,1.5-2.9,2.1
		c-0.2,0.2-0.6,0.2-1,0.2C100.4,87.4,100.2,87,100.4,86.4z M101.5,80.8c0-1.2,0.5-2.2,1.6-2.4c0.7-0.1,1.5,0.1,2.1,0.4
		c0.5,0.1,0.1,0.6-0.1,0.9c-0.6,0.5-1.2,0.9-1.9,1.4c-0.1,0.1-0.2,0.2-0.5,0.4c-0.2,0.1-0.6,0.4-0.9,0.2
		C101.6,81.5,101.6,81,101.5,80.8z M99,90c0,0.4-0.1,0.6,0,0.9c0.1,0,0.2,0,0.2,0c0.9-0.7,1.6,0,2.2,0.5c0.1,0.1,0.2,0.6,0.2,0.9
		c0,0.1-0.5,0.2-0.7,0.4c-1.6,0.4-3.2,0.6-4.9,1.1c-1.7,0.5-3.4,0.4-5-0.1C93.6,92.3,96.2,91.3,99,90z M105.2,87.3
		c-0.5,2.6-1.6,5-2.7,7.5c-1.2,2.5-2.5,5-4.5,7.1c-0.4,0.4-0.7,0.7-1.1,1.1c-0.6,0.5-1.1,1.1-1.5,1.9c-0.2,0.5-1,1-1.6,1.1
		c-2.1,0.4-3.9,1.5-5.7,2.4c-1.2,0.5-2.6,0.9-4,0.9c-0.5,0-0.7-0.2-0.7-0.7v-6.4c0-0.1,0-0.1,0-0.2c-0.1-0.2-0.2-0.4-0.4-0.6
		c-0.1,0.2-0.4,0.4-0.4,0.6v1.2c-0.1,1.7-0.1,3.6-0.1,5.4c0,0.5-0.2,0.5-0.6,0.5c-1.1-0.1-2.2-0.1-3.2-0.4c-3.1-0.7-5.9-2.5-8-5
		c-1.7-1.9-3.2-3.9-4.1-6.2c0-0.1-0.1-0.4-0.1-0.5c-0.1-0.1,0-0.1,0-0.4c0.9,0.1,1.9,0,2.7,0.4c2.5,0.5,5,1.1,7.5,1.6
		c1,0.2,2,0.2,3,0.2c0.2,0,0.5,0,0.7-0.1c2.2-1.1,4.9-1.6,7-3.1c0.4-0.2,0.9-0.1,1.2-0.4c1.2-0.7,2.4-0.2,3.6-0.1
		c1.5,0.2,3,0.2,4.5-0.2s3.1-0.7,4.7-1c0.6-0.1,1.2-0.1,1.4-0.7c0.2-0.6,0.2-1.4-0.2-1.9c-0.2-0.4-0.7-0.6-1.1-0.9
		c-0.2-0.1-0.4-0.2-0.7-0.5c0.6-0.2,1.2-0.5,1.7-0.7c0.4-0.2,0.6-0.5,0.9-0.9c0.2-0.5,1.5-1.5,2.1-1.6
		C105.2,86.8,105.2,87,105.2,87.3z M105.8,83.4l-0.1,0.1c-1-1.1-2.2-0.6-3.5-0.9c1.4-1,2.7-2,4.1-3.1
		C106.2,80.8,106,82.2,105.8,83.4z M107,70.7c-0.2,1.5-0.1,3-0.2,4.5c0,1.1-0.1,2.1-0.2,3.2c-1.5-1.4-3.2-1.2-5.4-1
		c-0.1-0.4-0.1-0.7-0.2-1.1c-0.2-0.9-0.6-1.2-1.5-1.2c-1.2-0.1-2.4,0.1-3.4,0.7c-2.7,1.9-6,2.9-9.1,3.9c-2.4,0.7-4.9,1.6-7.2,2.5
		c-0.2,0.1-0.6,0.2-0.9,0.1c-1.1-0.2-2.2-0.6-3.4-1c0-0.1,0-0.1,0-0.2c0.6-0.1,1.1-0.2,1.7-0.5c1.1-0.4,2.2-0.7,3.2-1.1
		c0.7-0.4,1.2-1,1.4-1.9c0-0.4,0.2-0.5,0.6-0.5c2.4-0.2,4.7-0.6,6.9-1.7c1-0.5,1.9-1.5,2.5-2.4c1.5-2.1,3.5-3.7,5.5-5.4
		c1.2-1.1,2.1-2.6,3.1-4c0.6-1,1.4-1.9,2.1-2.9c0.4-0.6,0.7-1.2,1.1-1.9c0.2-0.5,0.6-0.6,1.1-0.4c0.3,0.1,0.8,0.3,1.2,0.5
		c0.3,0.2,0.6,0.3,0.9,0.5c0.2,0.3,0.4,0.6,0.4,1C107.5,63.8,107.7,67.3,107,70.7z M126.4,106.1c1,2.7,1.7,5.5,2.6,8.2
		c0.5,1.9,1,3.7,1.1,5.7c0,0.7,0.2,1.5,0.4,2.2c0.2,1.4,0,2-1.1,2.6c-1.2,0.7-2.5,1.5-3.7,2.4c-1.6,1.2-3.6,1.7-5.7,2
		c-0.9,0.1-1-0.1-1-0.9v-4.1c-0.4-4.5,0.6-8.4,2.1-12c0.2-0.6,0.4-1.1,0.5-1.7c0.4-2.7,1.5-5.2,2.7-7.7c0.1-0.2,0.2-0.4,0.4-0.4
		c0.1,0,0.2,0.2,0.4,0.4C125.6,103.9,126.1,105,126.4,106.1z"/>
	<path class="st0" d="M90.1,69.3c-1.5,0.9-3.1,1.6-4.6,2.5c-2,1.1-4,0.6-5.9-0.4c-0.5-0.2-0.9-0.7-1.4-1.1c-1-0.7-1.9-1.5-3-2.2
		c0.1-0.1,0.2-0.2,0.2-0.2c1.9,0.1,3.9-0.1,5.7,0.5c0.4,0.1,0.7,0.1,1.1,0c1.2-0.6,2.6-0.4,3.9-0.1c1.1,0.2,2.1,0.4,3.2,0.6
		c0.1,0,0.4,0.1,0.5,0.1C90.1,69.2,90.1,69.3,90.1,69.3z M89.2,69.4c0-0.1,0-0.1,0-0.2c-0.4,0-0.7-0.1-1.1,0
		c-1.9,0.4-3.6,0.9-5.5,0.9c-1.6,0-3.1-0.1-4.6-1c-0.4-0.2-0.9-0.4-1.4-0.6c0,0,0,0.1-0.1,0.1c0.9,0.7,1.7,1.4,2.6,2.1
		c1.6,1.5,4.1,1.9,6.1,0.9c0.6-0.2,1.2-0.6,1.7-0.9C87.7,70.2,88.5,69.8,89.2,69.4z M78.2,68.3c0,0.1,0,0.2,0,0.4
		c2.7,1.1,5.5,1,8.4,0.1c-1.2-0.4-2.5-0.6-3.9-0.1c-0.5,0.1-1.2,0.1-1.7,0C80.1,68.7,79.2,68.4,78.2,68.3z"/>
	<path class="st0" d="M73.5,52.7c-1.9,0.2-3.2-1-4.4-2.2C69,50.4,69,50.3,69,50c0.1,0,0.4-0.1,0.5-0.1c1.4,0.7,2.7,0.5,4.1,0.1
		c1.2-0.2,2.4-0.4,3.6,0.1c0.1,0.1,0.4,0.1,0.5,0.2s0.2,0.4,0.4,0.6c-0.2,0.1-0.5,0.2-0.6,0.4c-0.2,0.1-0.6,0.2-0.9,0.4
		C75.8,52.4,74.8,52.8,73.5,52.7z M74.8,50.3c-0.1,0.6-0.1,1.1-0.2,1.7c0.9-0.5,1.6-0.9,2.4-1.2c0-0.1,0-0.2,0-0.4
		C76.3,50.6,75.5,50.4,74.8,50.3z M74.3,50.9c-0.6-0.1-1.1-0.1-1.5-0.1c-0.1,0-0.5,0.4-0.4,0.5c0,0.2,0.2,0.5,0.5,0.5
		C73.4,51.9,73.9,51.7,74.3,50.9z M71.6,51.8c0-0.9-0.2-1-1-0.7C71,51.3,71.3,51.6,71.6,51.8z"/>
	<path class="st0" d="M89.2,50.4c0.5,0,0.9,0,1.1,0.1c1.7,0.5,3.5,0.6,5.4,0.5c0.1,0,0.4,0.1,0.5,0.2c-0.1,0.1-0.1,0.4-0.2,0.5
		c-0.4,0.4-0.7,0.6-1,0.9c-0.9,0.7-2,0.9-3.1,0.7c-1.1-0.1-2.2-0.4-3.4-1c-0.5-0.2-1-0.6-1.1-1.2c0-0.4,0.1-0.5,0.4-0.6
		C88.4,50.7,89,50.6,89.2,50.4z M90.2,52.8c-0.1-0.6-0.1-1.1-0.2-1.7c-0.6,0-1.4,0.1-2.2,0.1C88.5,52.3,89.5,52.3,90.2,52.8z
		 M92.6,51.7c-0.6-0.1-1.1-0.2-1.7-0.4c-0.2,0.7-0.1,1.1,0.4,1.2C92,52.8,92.5,52.4,92.6,51.7z M92.7,53.1c1,0,1.6-0.5,2.4-1.2
		c-0.5-0.1-0.9-0.1-1.4-0.1c-0.1,0-0.2,0.1-0.2,0.2C93.1,52.3,93,52.7,92.7,53.1z"/>
	<path class="st0" d="M98.5,47.6c-0.2,0.2-0.4,0.5-0.5,0.5c-0.4,0.1-0.6,0.2-1,0.2c-2.5,0-4.7,0.6-7.1,1.5c-0.4,0.1-0.7,0.2-1.2,0.2
		c-0.5,0.1-1,0.2-1.5,0.2c-0.2,0-0.4,0-0.6-0.1c0.1-0.2,0.1-0.5,0.2-0.6c0.4-0.2,0.7-0.4,1.1-0.4c0.7-0.2,1.5-0.2,2.1-0.5
		c1.9-0.7,3.9-1.4,6-1.4c0.5,0,1-0.1,1.5-0.1C97.9,47.3,98.1,47.4,98.5,47.6z"/>
	<path class="st0" d="M68.3,46.1c1.1,0.4,2.2,0.7,3.4,1.1c1,0.4,2.1,0.9,3.1,1.2c0.2,0.1,0.2,0.5,0.4,0.6c-0.4,0.1-0.7,0.4-1,0.4
		c-1-0.4-2-1-3-1.4c-0.9-0.2-1.7-0.5-2.6-0.6c-0.2,0-0.4,0-0.6-0.1s-0.5-0.5-0.7-0.6C67.6,46.6,67.9,46.3,68.3,46.1z"/>
	<path class="st0" d="M78.1,61.6c0,0.2,0.1,0.5,0.1,0.7c0,1.4,1.6,3.2,3,3.2c0.5,0,1-0.1,1.5-0.4c1-0.5,1.9-1.2,2.7-1.9
		c0.5-0.4,0.9-0.7,0.7-1.4c0-0.1,0.1-0.2,0.1-0.5c0.1,0.1,0.4,0.2,0.4,0.4c0.1,0.5,0.1,1-0.2,1.4C86,63.5,85.5,63.7,85,64
		c-0.6,0.4-1.2,0.9-1.9,1.2c-1.7,1.5-3.6,0.6-4.6-0.6c-0.6-0.7-1.4-1.5-1.2-2.6c0-0.2,0.1-0.4,0.1-0.6C77.9,61.6,78,61.6,78.1,61.6z
		"/>
</g>
</svg>
