<?xml version="1.0" encoding="utf-8"?>
<!-- Generator: Adobe Illustrator 19.2.0, SVG Export Plug-In . SVG Version: 6.00 Build 0)  -->
<svg version="1.1" id="Layer_1" xmlns="http://www.w3.org/2000/svg" xmlns:xlink="http://www.w3.org/1999/xlink" x="0px" y="0px"
	 viewBox="0 0 103.5 121.7" style="enable-background:new 0 0 103.5 121.7;" xml:space="preserve">
<style type="text/css">
	.st0{fill:#E91E63;}
</style>
<g id="nausea-lady">
	<path class="st0" d="M100.7,72.1c-3.6-6.8-7.5-13.4-11.1-20.1c-1.1-2-2.2-4-4-5.4c-1.1-0.9-1.5-2.6-3.2-2.9c-0.1,0-0.2-0.1-0.2-0.2
		c-2.3-2.9-2.5-6.3-2-9.8c0.2-1.6,0.2-3.3,0.2-4.9c0-1.5-0.2-3.1,0-4.6c0.2-2.4,0.7-4.8,1-7.2c0.4-2.5-0.7-4.7-1.5-7
		c-1-2.8-2.5-5.2-4.8-7.1c-2-1.7-4.1-2.8-6.8-2.4c-0.4,0.1-0.9-0.1-1.4-0.1c-1.5-0.2-3.2-0.5-4.7-0.3c-3.8,0.5-7.2,2.2-10,4.6
		c-1.6,1.4-2.6,3.4-3.9,5.2c-0.6,0.8-1.3,1.7-1.6,2.7c-0.5,1.7-0.7,3.6-1.1,5.4c-1.2,4.5-1.6,9.1-1.4,13.8c0.1,1.4,0.3,2.7,0.6,4
		c0.3,1.4,0.8,2.8,1.1,4.2c0.3,1.4-0.2,2-1.6,2.1c-0.7,0-1.3,0-1.9,0.2c-2.4,1-4.9,1.2-7.4,1.5c-3.2,0.4-6.4,1-9.2,2.8
		c-2.1,1.3-3.9,2.7-4.6,5.1c-0.2,0.5-0.5,1.2-0.9,1.6l-4.2,4.2c-1.4,1.4-1.4,1.6,0,3c0.6,0.6,0.9,1,0.3,1.9c-0.6,0.9-1,2.1-1.5,3.2
		c-0.4,1.1-0.7,2.2-1.3,3.2c-1.9,3.4-4,6.6-5.8,10C6,82.1,4.3,85.5,2.7,88.9c-0.9,2-1.7,4-2.5,6.1c-0.6,2.2,0.2,5.1,3.2,5.8
		c2.1,0.5,4,1.5,6,2.3c2.7,1.2,5.5,1.9,8.5,2c1.3,0,2.7,0.5,4,0.9c1.1,0.2,2.1,0.7,3.2,0.9c0.8,0.2,1.1,0.5,1,1.2
		c-0.2,1.6-0.3,3.2-0.7,4.8c-0.6,2.5-1.5,4.9-2.2,7.4c-0.1,0.4,0.1,1,0.3,1.1c0.5,0.1,1,0.1,1.2-0.8c0.3-2.1,0.8-4.2,1.3-6.3
		c0.4-1.7,1.4-3.4,1.1-5.3c-0.2-1.4,0.5-2.1,1.9-2.1c0.7,0,1.4,0.1,2.1,0.2c3.8,0.4,7.6,0.2,11.2,1.7c2.2,0.9,4.4,1.8,6.6,2.7
		c0.7,0.3,1.3,1,2.1,1.3c1.7,0.6,3.4,1.2,5.1,1.6c2.3,0.5,4.6,1,6.9,1.4c0.9,0.1,1.7-0.2,1.9-1.1c0.1-0.9-0.4-1.3-1.3-1.6
		c-1.5-0.5-3-1.2-4.8-1.9c0.5-0.2,0.5-0.2,0.6-0.2c0.3,0,0.5,0,0.8,0.1c2.7,0.6,5.4,1.1,8.2,0.9c1.2-0.1,2.1-0.6,2-1.6
		s0.5-1.1,1.1-1.3c1.5-0.4,1.9-1.6,1-2.9c-0.2-0.4-0.4-0.9-0.3-1.3c0.2-0.7-0.1-1.1-0.6-1.5c-2.5-1.9-5.5-2.4-8.4-3.1
		c-0.4-0.1-0.7-0.3-1.1-0.5c0.2-0.2,0.4-0.6,0.7-0.8c0.6-0.4,1.3-0.6,1.8-1.1c1-1,0.8-1.5-0.5-1.7c-2.6-0.4-5.1-0.7-7.7-1.1
		c-1.4-0.2-2.9-0.7-4.3,0c-0.2,0.1-0.4,0-0.6,0c-0.7,0.1-1.4,0.1-2,0.4c-1.6,0.8-3.2,2.1-4.9,2.4c-2.2,0.4-4.6,0.3-6.8,0
		c-2.3-0.3-4.5-1-6.8-1.5c-2.1-0.5-3.2-1.4-3.1-2.9c0.1-1,0.3-2,0.5-3.1c6.6,1.6,6.8,1.6,7.9,0.5h-1.5c-2-0.1-4-0.2-5.7-1.4
		c-0.4-0.2-0.8-0.7-0.8-1.1c-0.1-3.9,0-7.9,0.6-11.7c0.2-0.1,0.3-0.2,0.4-0.4c0.2-0.5,0.3-1,0.2-1.5c0-0.1-0.1-0.2-0.1-0.3
		c0-0.2,0.1-0.4,0.1-0.5c0.3-0.3,0.5-0.8,0.3-1.2l0,0c0.1-0.3,0.7-0.7,1-0.6c2.2,0.6,4.3,1.3,6.4,2c0.3,0.1,0.6,0.2,0.9,0.3
		c0-0.1,0.1-0.3,0.1-0.4c-2.6-1.2-5.2-2.3-8-3.6c2.3-4.2,3.2-8.8,2.3-13.7c-0.2,0.3-0.3,0.6-0.3,0.9c0.1,2.4,0.1,4.7-0.7,7
		c-0.6,1.7-1.2,3.3-2,4.9c-0.5,1-1.5,1-2.3,0.1c-0.5-0.5-1-0.9-1.5-1.4c-3.1-2.9-6.2-5.9-9.4-9c1.1-1,2.1-1.6,2.9-2.5
		c0.9-1,2.1-2,2.5-3.2c1.5-4.4,4.9-6.5,9-7.5c2.4-0.6,5-0.7,7.5-1.1c1.9-0.4,3.7-0.9,5.6-1.4c0.4,0.8,0.7,1.6,1.1,2.4
		c1.2,2.4,2.4,4.8,3.7,7.1c0.9,4.4,3.9,9,6.9,11.6c0.2,0.2,0.5,0.3,0.8,0.2c0.4,0.4,0.8,0.6,1.6,0.4c-0.3-0.6-0.6-1.1-0.7-1.6
		s-0.2-1.2,0.1-1.6c0.2-0.3,1-0.3,1.5-0.3c1.2,0.1,2.3,0.5,3.6,0.1c1.8-0.6,3.3-1.3,4.6-2.7c0.3-0.3,0.9-0.6,1.1-0.5
		c0.3,0.2,0.5,0.8,0.6,1.2c0.2,0.7,0.1,1.5,0.2,2.4c0.3-0.4,0.6-0.5,0.6-0.7c0-1.7-0.1-3.3-0.3-5c-0.2-1-0.9-2-1-3
		c-0.2-2.2-0.1-4.4,0-6.6c0.1-0.8,0.6-1.6,1-2.4c1.7,1.1,2.4,2.3,2.3,4.1c-0.1,1.8,0.1,3.7,0.5,5.4c0.8,3.2,0.3,6-1.9,8.4
		c-0.3,0.4-0.7,0.7-0.8,1.1c-0.1,0.3,0,0.7,0.1,1c0.3-0.2,0.8-0.2,0.9-0.4c0.9-1.5,1.7-2.9,2.5-4.4c0.2-0.2,0.2-0.6,0.2-0.9
		c-0.1-2.5-0.4-4.9-0.5-7.4c0-0.8,0.1-1.6,0.2-2.4c0.2-0.1,0.4-0.1,0.6-0.1c0.8,1.6,1.7,3.2,2.4,4.9c0.3,0.6,0,1.5-0.1,2.2
		c-0.2,3.1-0.7,6.1-2.1,9c-0.5,1-0.8,2-1.2,3c0.1,0,0.2,0.1,0.3,0.1c1-1.9,2.3-3.8,3-5.9c0.6-2.1,0.6-4.4,0.9-6.6H77
		c0.3,0.6,0.6,1.1,0.8,1.6c0.7,1.8,1.3,3.6,2.1,5.4c0.4,1,0.3,1.8-0.1,2.8c-0.1-0.6-0.1-1-0.2-1.5c-0.5,2.9-0.7,5.7-1,8.5
		c-0.1,1.1-0.1,2.3-0.3,3.5c-0.6,3.2-1.3,6.4-1.7,9.7c-0.4,3.3-1.6,5.9-4.3,7.8c-0.2,0.2-0.6,0.2-0.9,0.3c0.2,0.2,0.3,0.4,0.5,0.6
		c1-0.1,1.7-0.8,2.4-1.5c0.6-0.6,1.2-1.5,2-2.5c-0.1,1.5-0.2,2.7-0.2,3.9c-0.1,2.4-0.2,4.9-0.3,7.3c-0.1,2.7-0.4,5.4-0.5,8.1
		s-0.1,5.3-0.1,8c0,1,0.4,2,0.5,3c0,1.1,0.5,1.2,1.4,0.9c-0.4-1.6-0.9-3.2-0.9-4.8c-0.1-5.6-0.1-11.1,0.6-16.7
		c0.5-4.1,0.3-8.2,0.6-12.2c0.3-3.1,0.6-6.2,1.2-9.3c0.5-2.7,1.3-5.3,1.2-8c0-0.2,0.2-0.4,0.3-0.7c0.7,1.4,1.4,2.6,2.1,3.7
		c2.9,4.7,5.9,9.3,8.9,13.9c0.5,0.7,1.5,1.4,2.3,1.5c2,0.1,3.9,0.4,5.9-0.6c2.3-1.2,4-3.4,4.2-6C103.7,78.6,102.4,75.2,100.7,72.1z
		 M27.3,78.6c0.1,5.1,0.2,10.2,0.2,15.3c0,1.5-0.3,1.7-1.6,1.2c-2.6-1-5.1-2.1-7.7-3.2c-0.5-0.2-0.9-0.6-1.2-0.8
		c3.2-5.2,6.4-10.4,9.7-15.9C26.9,76.4,27.3,77.5,27.3,78.6z M20.8,66c1.7,1.5,3.3,3,5,4.5c0.7,0.7,0.8,1.4,0.3,2.3
		c-1,1.8-1.7,3.7-2.7,5.5c-0.7,1.3-1.5,2.6-2.3,3.9c-0.9,1.3-1.9,2.6-2.6,4c-0.8,1.6-1.7,3-3,4.2c-0.9,0.8-0.6,1.6,0.5,2
		c3.7,1.4,7.4,2.9,11.2,4.2c2.5,0.8,5.1,1.2,7.6,1.8c0.7,0.2,1.5,0.3,2.2,0.3c2.1,0.1,4.2,0.2,6.3,0.3c1.7,0.2,2.9-0.8,4.1-1.6
		c1.4-1,2.8-1.4,4.4-1.5c3.9-0.3,7.7,0.6,11.5,1.4c0.3,0,0.5,0.2,1,0.4C62.6,98.8,61,99.6,59,99c-1.5-0.5-3.1-0.7-4.7-1
		c0,0.1-0.1,0.3-0.2,0.5c0.3,0.2,0.7,0.6,1,0.6c3,0.2,5.6,1.6,8.4,2.4c1.8,0.4,3.5,1.1,5.3,1.7c0.9,0.3,1.9,0.7,2.3,1.8
		c-4,1.2-7.9-0.4-11.9-0.8c0,0.1-0.1,0.3-0.1,0.5c0.6,0.3,1.1,0.6,1.7,0.7c1.8,0.3,3.5,0.5,5.3,0.8c1,0.1,2,0.3,3,0.4
		c0.8,0.1,1.7,0.2,2.2,1c0.2,0.3,0.4,0.5,0.6,0.7c-0.3,0.1-0.6,0.4-0.9,0.4c-3.5-0.1-7.1,0.1-10.6-0.8c-0.4-0.1-0.8,0.1-1.6,0.3
		c3.5,1.4,7.1,1,10.3,2.3c-1.9,1.5-4.2,0.6-6.2,0.6c-2.2-0.1-4.3-0.7-6.5-1.1c-0.1,0.2-0.2,0.5-0.4,0.9c2.3,1,4.6,1.9,6.8,2.9
		c0.5,0.2,0.8,0.7,1.2,1c-0.1,0.1-0.2,0.3-0.3,0.4c-0.9-0.1-1.8-0.2-2.7-0.4c-1.3-0.2-2.6-0.4-3.9-0.8c-1.2-0.4-2.4-0.9-3.6-1.4
		c-2.3-1-4.5-2.2-6.8-3.1c-1.4-0.6-3.2-0.5-4.6-1.3c-2.5-1.4-5.2-1.3-7.9-1.6c-2-0.2-4,0-5.9-0.3c-2.3-0.4-4.7-0.3-6.8-1.6
		c-0.5-0.3-1.3-0.5-2-0.5c-4.5,0-8.5-1.4-12.5-3.3c-1-0.5-2.1-0.8-3.2-1.1c-2.3-0.6-3.3-2.5-2.2-5.4c1.1-2.8,2.3-5.6,3.6-8.3
		c0.9-2,1.8-4,3-5.7c2.4-3.5,4.2-7.4,6.2-11.1c0.8-1.4,1.3-3.1,1.9-4.6c0.4-0.8,0.8-1.6,1.3-2.5C18.9,63.6,20,64.8,20.8,66z
		 M47.3,48.5c-0.1,0-0.2,0.1-0.3,0.1c-0.6-1.2-1.2-2.5-1.7-3.8c-0.2-0.4-0.3-0.9-0.1-1.2c0.2-0.4,0.6-0.7,1-1
		c0.2,0.3,0.6,0.5,0.6,0.8C47.1,45.1,47.7,46.8,47.3,48.5z M85.2,47.4c3.9,4.1,5.5,9.7,8.9,14.1c-0.2,0.1-0.3,0.2-0.5,0.3
		c-0.7-0.9-1.3-1.7-1.9-2.6c-2.2-3.6-4.5-7.2-6.7-10.8c-0.1-0.2-0.1-0.5-0.2-0.7C84.9,47.6,85.1,47.5,85.2,47.4z M78.2,20.2
		c-0.2,0.9-0.4,1.8-0.6,2.7c-1.1-0.3-2.1-0.6-3.2-0.9c-0.3-0.1-0.6-0.4-1-0.7c0.2-0.9,0.7-1.4,1.8-1.4h3
		C78.2,19.9,78.3,20.1,78.2,20.2z M77.8,26.7c-0.1,0.1-0.3,0.1-0.4,0.2c-0.6-0.8-1.3-1.5-1.9-2.3c0-0.1,0.1-0.3,0.1-0.4
		c0.5-0.1,1.2-0.4,1.7-0.2c0.3,0.1,0.4,0.9,0.5,1.4C77.9,25.8,77.8,26.3,77.8,26.7z M67,57.9c-1.5,1.1-3,2.1-4.9,2.6
		c-0.4,0.1-0.8,0.2-1.2,0.1c-1-0.1-2-0.4-3-0.5c-1.1-0.2-1.6-1.1-1.9-1.9c-0.6-1.8-1.1-3.6-1.3-5.5c-0.7-5.4-1.3-10.9-1.9-16.4
		c-0.1-0.9,0.1-1.9,0.1-2.8c0.1-2.3,0.2-4.7,0.3-7c0.1-0.7-0.3-1.1-0.9-1.3c-0.8-0.2-1-0.6-0.6-1.3c0.1-0.2-0.1-0.6-0.2-0.9
		c-0.3,0.2-0.7,0.3-0.8,0.6c-0.5,0.9-0.2,2,0.8,2.5c0.8,0.4,0.7,0.8,0.4,1.3c-0.4,0.6-1,0.7-1.5,0.2c-0.3-0.3-0.6-0.7-0.8-1.1
		c-0.7-1.9-0.4-3.7,0.8-5.4c0.6-0.7,1-0.6,1.4,0c0.4,0.5,0.8,1.1,1.2,1.7c0.1,0,0.3-0.1,0.4-0.1c-0.1-0.5-0.2-1-0.4-1.5
		c-0.6-1.3-0.5-1.6,0.9-1.7c2.5-0.1,4.7-1.1,6.8-2.3c4-2.4,7.9-5,11.8-7.5c1-0.7,1.6-0.4,2.3,0.4c1.7,1.9,1.8,4.4,2.7,6.6
		c0.3,0.7,0.4,1.4,0.6,2.1c-1.2,0.1-2.2,0.1-3.2,0.3c-1.4,0.3-2.1,1.3-2.2,2.7c-0.2,2,0.4,3.6,1.6,5.2c-0.1,0.1-0.2,0.1-0.3,0.2
		c-1.6-0.5-3.2-1.1-4.8-2.1c-2.4-0.6-4.7-1.3-7.1-1.8c-0.4-0.1-1.1,0.8-1.6,1.3c-2.1-0.1-2.4,0.1-2.2,1.6c-1.6,0.5-1.9,1.8-0.6,3
		c0.6,0.6,1.3,0.9,1,2c-0.2,0.4,0.3,1.1,0.6,1.5c0.9,1.1,1.8,2.2,2.7,3.2c0.5,0.6,1.1,1.2,1.7,1.7c0.5,0.5,1.1,1,1.6,1.6
		c-1.5,0.3-2.8-0.3-4-1S59,36.6,58,35.7c-1-1-1.9-2.1-2.9-3.1c-0.1,0.1-0.2,0.2-0.3,0.3c0.6,0.7,1,1.5,1.6,2
		c2.5,2.2,4.9,4.6,8.4,5.1c1.4,0.1,2.3,1,3,2c0.2,0.4,0.2,1.2,0,1.6c-1,1.8-0.9,3.7-0.7,5.6c0.2,1.2,0.1,2.5,0.2,3.8
		c0.1,0.7,0.1,1.5,0.4,2.1C68.4,56.4,68,57.1,67,57.9z M63.3,24.9c-0.3,0.3-0.6,0.8-0.9,0.8c-0.4,0-0.8-0.5-1.5-0.9
		c0.5-0.3,0.9-0.6,1-0.6C62.4,24.3,62.8,24.6,63.3,24.9z M58.5,26.1c0.3-0.2,0.5-0.5,1-0.9c0.5,0.5,1,0.9,1.1,1.4
		c0.1,0.2-0.4,0.6-0.7,0.9C59.4,27.1,59,26.6,58.5,26.1z M59,30.2c-1.2-0.9-1.8-1.7-1.4-3.1c0.7,0.4,1.5,0.7,1.8,1.2
		C59.7,28.7,59.2,29.4,59,30.2z M86.5,78.7c-0.8-1.3-1.7-2.6-2.5-3.9c-0.9-1.7-1.8-3.6-2.8-5.3c-0.9-1.6-1-3.3-0.6-5.5
		c2.2,5,4.3,9.7,6.3,14.4C86.8,78.5,86.6,78.6,86.5,78.7z M98.6,87.1c-1.6,0.6-3.3,0.6-4.9,0.4c-0.5,0-1-0.5-1.4-0.9
		c-3.4-3.7-4.4-8.5-6.3-12.9c-1.5-3.4-3-6.8-4.6-10.2c-1.7-3.5-3.2-7-5-10.5c-0.9-1.7-2.1-3.2-3.2-4.8c-0.2-0.3-0.3-0.6-0.5-0.9
		c1.1-0.4,2.1-0.7,3.1-1.1c-0.1-0.2-0.1-0.3-0.2-0.5c-0.2,0-0.5,0-0.8,0.1c-0.4,0.2-0.9,0.4-1.3,0.5c-1,0.2-1.7,0-2.4-0.9
		c-1.5-1.9-3.2-3.8-4.8-5.7c-0.7-0.8-1.6-1.4-2.3-2.1c-1.3-1.3-2.5-2.6-3.9-4c2.3-1.2,3.1,1.1,4.6,1.3c-0.3,0.7-0.4,1.1-0.6,1.6
		l0.1,0.1c0.4-0.3,0.7-0.6,1.1-1.1c2.1,2.1,5.3,2.8,6.7,5.7c0.1-0.2,0.3-0.3,0.4-0.4c-0.6-0.8-1.1-1.7-1.9-2.3
		c-1.3-1-2.7-1.9-4.1-2.8c-1.9-1.3-3.8-2.5-5.6-3.9c-1.6-1.2-1.5-1.2-0.5-3.3c1.5,1.2,3,2.3,4.4,3.4c0.2,0.2,0.2,0.7,0.2,0.8
		c0.7,0,1.4-0.1,1.9,0.1c1.8,0.8,3.6,1.6,5.4,2.6c0.5,0.3,0.8,1,1.2,1.6c0.3,0.4,0.5,0.8,0.8,1.5c0.2-1.3-0.9-3.1-2-3.7
		c-2.6-1.4-5.2-2.7-7.7-4.1c-1.3-0.7-2.4-1.7-3.6-2.5c0.2-0.5,0.4-1,0.6-1.8c1.7,0.8,3.4,1.4,5.1,2.3c0.3,0.1,0.3,1,0.4,1.7
		c0.3-0.4,0.5-0.8,0.8-1.3c1.5,0.6,3,1.4,4.5,2c0.5,0.2,1.2,0.3,1.8,0.4c1,0.2,1.6,0.7,1.8,1.7c0.4,1.6,0.8,3.3,1.2,4.9
		c0,0.1,0.2,0.2,0.5,0.3c-0.1-1.1-0.3-2.2-0.5-3.3c-0.1-0.5-0.2-1-0.4-1.5c-0.6-1.5-1.5-2.3-3.2-2.8c-1.8-0.5-3.4-1.5-5.1-2.2
		c-1.2-0.6-2.5-1.1-3.7-1.6c-0.4-0.2-0.8-0.4-1.3-0.6c0.7-1.9,0.7-1.9,2.4-1.5c0.7,0.1,1.5,0.3,2.1,0.7c0.4,0.2,0.5,0.9,0.8,1.5
		c0.2-0.3,0.3-0.7,0.5-1c3.7,0.5,6.4,2.6,8.9,5.2c-0.3-0.9-0.2-2.1-1.5-2.6c-0.5-0.2-0.9-0.9-1.3-1.4c-0.6-1-1.2-2-1.7-3
		c-0.2-0.3-0.2-0.7-0.2-1.1c0.1,0,0.2-0.1,0.3-0.1c0.4,0.4,0.7,0.7,1,1.1c1.3,1.6,2.6,3.3,3.9,4.9c1.1,1.3,0.9,2.8,0.6,4.2
		c-0.6,2.8-0.3,5.3,0.6,8c0.5,1.5,1.6,2.5,2.4,3.8c1,1.8,2.3,3.4,3.4,5.1c2,3.3,4,6.7,6.1,10c1,1.5,2.3,2.9,3.4,4.3
		c0.2,0.3,0.3,0.5,0.5,0.8c1.3,2.2,2.6,4.4,3.8,6.6c1.7,3.1,3,6.3,3,9.9C102.4,84.4,100.9,86.2,98.6,87.1z"/>
	<path class="st0" d="M62,48.6c-0.1,0.3-0.1,0.5-0.3,0.7c-1.6,1.5-2.1,3.5-2.6,5.5c-0.1,0.4-0.4,0.7-0.7,1c-0.1-0.4-0.4-0.9-0.3-1.2
		c0.6-1.7,1.1-3.3,1.9-4.9C60.4,49,61,48.3,62,48.6z"/>
	<path class="st0" d="M62,20.7c1.9,1.4,4,0.6,6.3,0.4C66.5,23.8,63,23,62,20.7z"/>
	<path class="st0" d="M69,19c-0.4,0.7-0.7,0.9-1.4,0.4c-1.5-1-3.1-1.6-5-1.2c-0.4,0.1-0.8,0-1.2-0.1C63.5,16.7,67.1,17.2,69,19z"/>
</g>
</svg>
