<?xml version="1.0" encoding="utf-8"?>
<!-- Generator: Adobe Illustrator 18.1.1, SVG Export Plug-In . SVG Version: 6.00 Build 0)  -->
<!DOCTYPE svg PUBLIC "-//W3C//DTD SVG 1.1//EN" "http://www.w3.org/Graphics/SVG/1.1/DTD/svg11.dtd">
<svg version="1.1" id="Layer_1" xmlns="http://www.w3.org/2000/svg" xmlns:xlink="http://www.w3.org/1999/xlink" x="0px" y="0px"
	 viewBox="404.8 207.6 150 144.9" style="enable-background:new 404.8 207.6 150 144.9;" xml:space="preserve">
<style type="text/css">
	.st0{fill:#E91E63;}
</style>
<g id="shoulderpain-lady2">
	<path class="st0" d="M554,315.3c-0.5-3.4-2-6.4-4.3-9c-1.6-1.9-3.8-3.1-6-4.3c-1.5-0.8-3-1.1-4.6-1c-2.4,0.3-4.8,0.3-7.1,0.5
		c-0.4,0-0.8,0.4-1.1,0.6c-0.4,0.3-0.8,0.8-1.3,1c-0.9,0.5-1.8,1-2.8,1.4c-0.5,0.3-1,0.3-1.5,0.1c-1.4-0.3-2.6-0.6-3.9-0.9
		c-3.5-0.6-7-1.5-10.6-2c-2.9-0.4-4.9-2-6.3-4.4c-1-1.6-1.9-3.4-2.8-5.1c-0.3-0.5-0.6-1-0.9-1.5c-0.6-1.4-0.1-2.8,0.3-4.1
		c0.1-0.6,0.9-1,1.4-1.4c0.3-0.1,0.8,0.5,1.1,0.8c0.6,0,1.3,0,1.8,0.3c1.6,0.8,3.5,1,5.3,0.8c2.5-0.5,4.8-1.4,7-2.8
		c1.4-0.8,2.6-1.7,3.8-2.8c0.1,0,0.1-0.1,0.2-0.1c0.1-0.1,0.2-0.2,0.2-0.2c0.8-0.8,1.6-1.6,2.4-2.5c1.8-2.1,3.1-4.6,4-7.3
		c0.3-0.6,0.5-1.3,0.9-1.9c1-1.6,2-3.4,3-5c1-1.9,2-3.9,2.1-6.1c0.3-2.8,0.3-5.5-1.5-8c-0.3-0.4-0.4-0.8-0.5-1.1
		c-1-2.1-1.9-4.3-2.9-6.4c-0.4-0.8-1-1.5-1.7-2c-0.1-0.1-0.3-0.2-0.5-0.3c-0.4-0.3-0.9-0.5-1.4-0.7c-0.5-0.1-1-0.4-1.4-0.8
		c-1.4-1.4-3.1-1.6-5-1.6h-4.1c-1.6-0.1-3.1-0.1-4.9-0.3c-0.1-0.1-0.4-0.4-0.5-0.8c-0.6-1.5-1.3-3.1-1.8-4.6c-0.4-1-0.6-2.1-1.1-3.1
		c-1.6-2.9-3.5-5.8-5.4-8.5c-0.9-1.4-2.3-2.4-3.1-3.6c-0.6-0.9-1.1-1.5-2.3-1.8c-0.4-0.1-0.9-0.5-1.3-0.8c-1.5-0.9-2.9-1.9-4.5-2.5
		c-2.1-0.9-4.3-1.5-6.4-2.1c-2.4-0.8-4.8-1.5-7.1-1.6c-5.6-0.3-11.3-0.1-16.9-0.3c-1.5,0-3,0.5-4.8,1c-3.9,1.1-7.4,2.9-10.4,5.6
		c-1.6,1.5-3.3,2.9-4.9,4.4c-1.1,1.1-2.4,2.1-3.1,3.5c-1.4,2.3-2.4,4.8-3.5,7.3c-0.3,0.6-0.5,1.4-0.9,2c-1.6,2.6-2.6,5.5-3.6,8.4
		c-0.6,1.8-0.9,3.6-1.5,5.4c-0.4,1.1-0.4,2.1,0,3.3c0.3,0.6,0.5,1.4,0.9,2s0.3,1.1-0.3,1.6c-1.1,1.3-2.3,2.5-3.4,3.9
		c-0.8,0.9-1.4,1.6-2,2.6c-1,1.9-0.4,3.8,1.6,4.5c1.1,0.4,2.1,1,3.1,1.5c1.3,0.5,1.5,1.4,1.4,2.5c0,0.4-0.1,0.9-0.3,1.3
		c-0.4,1.3-0.4,2.5,0.6,3.6c0.8,0.8,1,1.8,0.9,2.8c-0.3,1.4,0.4,2.5,1.4,3.4c0.3,0.4,0.6,0.6,0.9,1c0.1,0.3,0.3,0.8,0.1,1
		c-1,2.5-0.6,4.6,0.9,6.8c1.6,2.3,3.9,3.5,6.3,4.4c1.6,0.6,3.3,1.1,5,1.4c2.5,0.3,5,0.4,7,1.1c0.3,0.1,0.6,0.1,0.9,0.1
		c2.1,0.1,3.6,1.5,4.3,3.4c0.5,1.5,0.5,3.1,0.8,4.6c-1.5-2-3.4-3-5.9-2.9c-0.5,0-1.3-0.4-1.6-0.9c-0.9-0.9-1.6-1.9-2.9-2.5
		c-2.9-1.5-4.9-0.6-6.5,2c-0.6,1.1-1.3,1.6-2.5,1.5H437c-1.1-0.1-2,0.4-2.5,1.4c-0.6,1.4-1.9,2.3-3.3,2.9c-0.5,0.3-1,0.9-1.5,1.3
		c-0.6,0.5-1.1,1.1-1.9,1.5c-1.9,1-2.9,2.8-3.3,4.6c-0.3,1.5-0.5,3,0.9,4.3c0.4,0.4,0.4,1-0.5,1c-0.6,0-1.4,0-2,0.3
		c-2.5,0.8-4.4,2.5-6.5,4c-1,0.8-2,1.5-2.6,2.5c-2.8,4.6-5.4,9.4-6.5,14.8c-0.4,1.8-1.3,3.4-1.5,5.1c-0.5,3.3-0.3,6.6-1.1,9.9h1
		v-1.5c0.1-1.6,0.5-3.3,0.5-4.9c0.1-1.9,0.4-3.5,0.9-5.3c1.4-5,3-10,5.6-14.5c0.9-1.6,1.6-3.4,3.3-4.6c1.1-0.8,2.1-1.5,3-2.3
		c2-1.4,4-2.9,6.8-2.6c0.1,0,0.4-0.1,0.6-0.1c1.8,2.9,4.6,4.8,7.3,6.8c0.9,0.8,2.1,0.6,2.9-0.1c0.8-0.8,1.1-0.4,1.6,0.3
		c0.8,1,1.5,2.1,2.3,3.1c0.8,0.9,1.6,1.5,2.9,1.5c1.4,0,2.5-0.3,3.4-1.5c0.4,0.5,0.6,0.8,1,1.1c1,1.1,2.6,1.1,3.5-0.1
		c0.5-0.6,0.8-1.5,0.9-2.4c0.1-1,0-2,0-2.9c2.6-0.6,3.6-1,2.9-3.8c0,0,0-0.1,0-0.3c-0.1-3-1.3-5.9-2-8.8c-0.4-1.4-0.5-1.4,0.9-1.8
		c0.3-0.1,0.4-0.1,0.5-0.3l4.1-2.6c1.1-0.8,2-1.9,3.3-2.3c3-0.9,6.1-1.5,9.3-2.1c1-0.1,1.9-0.3,2.9-0.4c3-0.4,6.1-0.8,9.1-1.3
		c2.3-0.4,4.5-0.8,6.8-1.4c0.9-0.3,1.8-0.8,2-1.9c-0.5,0-0.9,0.3-1.3,0.5c-2,1.3-4.5,1.4-6.8,1.8c-2.3,0.4-4.4,0.5-6.6,0.8
		c-2.6,0.4-5.3,0.8-7.8,1.3c-2.5,0.6-5,1.3-7.5,2c-1,0.3-2,0.9-3.1,1.5c0.3-0.9,0.1-1.9,0.6-2.3c1.5-1.1,3.3-2.1,5-2.9
		c1.5-0.6,3.1-0.9,4.6-1.3c1.9-0.6,3.9-1.1,5.9-1.8c2.3-0.6,4.6-1.1,6.8-2.1c1.3-0.6,2.1-0.3,3.3,0.1c1.9,0.8,3.6,1.9,5.9,1.3
		c0.1,0,0.2-0.1,0.3-0.1c0.7-0.1,1.3-0.3,2-0.6c1.7-0.6,3.2-1.3,4.2-3.1c0.5-0.9,1.4-1.6,2.1-2.4c0.1,0,0.3,0.1,0.4,0.1
		c-0.4,1.5,0,2.6,0.9,3.9c1.3,1.8,2.3,3.8,3.1,5.6c1.1,2.3,2.8,3.8,5.3,4.3c0.5,0.1,1.1,0.3,1.8,0.4c2.3,0.5,4.4,0.9,6.5,1.4
		c2.6,0.5,5.1,1,7.5,1.6c0.8,0.1,1.6,0.1,2.3-0.1c1.4-0.6,2.9-1.3,4.1-2.1c0.8-0.6,1.5-0.9,2.5-0.9c0.9,0,1.6-0.3,2.4-0.3
		c1.8-0.1,3.5-0.5,5-0.1c3.4,0.9,6.4,2.8,8.6,5.5c1.5,1.8,2.6,3.6,3.1,5.9c0.4,1.5,0.5,3.1,0.8,4.6c0.3,1.3,0.6,2.5-0.1,3.8
		c-0.1,0.1-0.1,0.4-0.1,0.5c0.4,3.5-1.1,6.6-1.3,10c-0.1,2.8-0.6,5.6-0.8,8.5c-0.1,3.8-0.1,7.6-0.3,11.4c0.3,0,0.6,0,0.9-0.5
		c0-1.6,0.1-3.4,0.1-5c0-1.8,0-3.6,0.1-5.4c0.1-2.8,0.5-5.6,0.6-8.4c0.1-2.6,0.8-5.1,1.4-7.8c0.4-1.5,0.6-3.1,0.6-4.6
		C554.8,318.9,554.3,317.2,554,315.3z M513.9,279c-0.7-0.2-1.3-0.5-2-0.8c-0.9-0.4-1.9-1-2.8-1.5c-0.7-0.4-1.3-0.8-2-1.3
		c-0.1-0.1-0.3-0.2-0.4-0.3c0-0.4-0.2-0.8-0.5-1.1c0,0,0-0.1,0-0.1c0-0.1,0-0.2,0-0.3c0.1-0.2,0.1-0.3,0.2-0.5
		c0.5,0.2,0.9,0.4,1.4,0.6c0.1,0.1,0.2,0.2,0.3,0.3c2.1,1.5,4.2,3,6.3,4.6C514.2,278.7,514,278.8,513.9,279z M512,268.2
		C512,268.2,512,268.2,512,268.2c0.1,0.1,0.2,0.2,0.4,0.4C512.3,268.5,512.1,268.4,512,268.2z M515,275.8
		C514.9,275.8,514.9,275.7,515,275.8c0-0.2,0.1-0.3,0.2-0.5c0,0,0,0,0,0C515.1,275.5,515,275.6,515,275.8z M529.6,258.2
		c0.8-0.5,1.6-1,2.4-1.5c0.7-0.4,1.3-1,1.6-1.7c0,0.9-0.1,1.9-0.2,2.8c-0.1,0.5-0.1,1-0.2,1.5c-0.1-0.1-0.2-0.2-0.3-0.3
		c-0.6-0.5-1.3-0.1-1.9,0.3c-0.9,0.7-1.8,1.6-2.6,2.4c-1.3,1.3-2.4,2.8-3.5,4.3c-1.8,1.8-2.7,4.1-3.7,6.4c-1.2,2.9-2.3,5.9-3.1,9
		c-0.1,0.5,0.2,0.9,0.6,1.1c-0.3,0.2-0.6,0.5-1,0.7c-0.4,0.3-0.8,0.3-1.3,0.5c-0.1-0.4-0.2-0.8-0.2-1.3c0.1-0.3,0.2-0.5,0.2-0.8
		c0.1-0.4,0-0.7-0.2-1c0.1-0.8,0.4-1.5,0.8-2.2c1.1-2.1,1.8-4.4,2.5-6.6c0.8-2.1,2-4.1,3.1-6.1c0.8-1.1,1.6-2,2.5-3
		C526.8,261.2,528.3,259.7,529.6,258.2z M517.3,276.7c0.2-0.4,0.3-0.8,0.5-1.2c0,0,0,0,0,0C517.7,275.9,517.5,276.3,517.3,276.7z
		 M522.7,265.1c0.1-0.4,0.3-0.8,0.4-1.2C523,264.3,522.9,264.7,522.7,265.1z M521.6,248.1c1,0.7,1.5,1.9,2,2.9
		c1.2,2.5,2,5.1,2.4,7.8c0.1,0.7,0.8,1,1.4,0.9c-1.1,1.1-2.2,2.3-3.3,3.4c0,0-0.1-0.1-0.3-0.1c0-0.4-0.1-0.9,0-1.3
		c0.6-1.9,0.4-3.8-0.1-5.6c-0.1-0.5-0.4-0.8-0.7-1.2c0-0.1-0.1-0.3-0.1-0.4c-0.8-2.4-2.2-4.3-4-6
		C519.7,247.9,520.7,247.4,521.6,248.1z M518.9,268.7c0.4,0.4,1,0.5,1.5,0.2c-0.2,0.3-0.3,0.7-0.5,1c-0.6,1.1-0.9,1.3-1.8,0.4
		c-0.8-0.8-1.6-1.6-2.4-2.4c-0.9-1.4-1.9-2.6-3.2-3.8c-0.2-0.2-0.4-0.3-0.7-0.3c-0.1-0.1-0.2-0.2-0.3-0.4c0,0-0.1,0-0.1,0.1
		c-0.2-0.3-0.4-0.6-0.7-0.9c-0.2-0.4-0.3-0.9-0.3-1.3c0.3-0.1,0.6-0.4,0.7-0.8c0.1,0.2,0.2,0.3,0.3,0.5
		C514.2,263.4,516.6,266,518.9,268.7z M455.3,293.8c-2.9-0.9-5.9-1.8-8.8-2c-3.1-0.1-5.9-1-8.5-2.5c-1.4-0.9-2.9-1.6-3.8-3.1
		c-1-1.6-1.4-2.9-0.9-4.8c0.3,0.3,0.4,0.6,0.6,0.9c0.1,0,0.3-0.1,0.4-0.1c-0.3-0.6-0.3-1.5-0.6-2.1c-0.6-1-1.3-1.9-2-2.6
		c-0.8-0.9-1.1-1.6-0.9-2.9c0.6,0.5,1.1,1,1.6,1.3c0.1-0.1,0.1-0.1,0.3-0.1c0-0.3-0.1-0.6-0.3-0.9c-0.6-0.9-1.1-2-2-2.8
		c-1.3-1.1-0.9-2.4-0.6-3.6c0.1-0.8,0.3-1.5,0.5-2.3c0.1-0.4,0.5-0.6,0.9-0.9c0.5-0.3,0.9-0.6,0.4-1.4c-0.5,0.4-0.9,0.8-1.1,0.9
		c-1.9-1-3.6-2-5.5-2.9c-1.3-0.6-1.6-2.3-0.8-3.4c1.4-1.8,2.8-3.5,4.1-5.1c0.5-0.6,1.4-1,2-1.5c1.5,1.4,2.9,2.6,4.5,4
		c0.1-0.4,0.3-0.8,0.1-0.9c-0.6-1-1.4-1.9-2-2.9c-1.1-1.6-2.4-3.1-3.5-4.8c-0.3-0.4-0.6-0.6-0.9-0.9c-0.1-0.3-0.4-0.6-0.3-0.9
		c0.6-2.6,1.3-5.3,2.3-7.8c0.8-2.3,2-4.1,3-6.3c0.6-1.1,1-2.4,1.5-3.5c0.3-0.5,0.4-0.9,0.9-1.4c0,0.8,0,1.5-0.1,2
		c0.4,1.4,1,2.6,1.5,3.9c0.8,1.6,1.6,3.3,2.4,5c0.4,0.9,0.5,1.9,0.9,2.8c0.6,1.5,1.4,3,1.9,4.6c0.2,0.7,0.4,1.3,0.5,2
		c0,0.4,0.1,0.7,0.1,1.1c0,0.1,0,0.3,0,0.4c0.1,3.5,1.5,6.4,3.4,9.1c0.4,0.6,0.8,1.2,1.1,1.9c0.2,0.8,0.3,1.6,0.4,2.4
		c-0.2,1.9-0.4,3.8-0.2,5.7c0.1,2.3,1,4.3,2.5,6c1,1.1,2.1,2.1,3.2,3c0.3,0.4,0.6,0.8,0.9,1.1c0.4,0.4,0.9,0.4,1.2,0.2c0,0,0,0,0,0
		c0,0,0.1-0.1,0.1-0.1c0.4-0.4,0.5-1,0.1-1.5l-0.2-0.3c0,0,0,0,0,0c0-0.2,0-0.5-0.1-0.7c-0.4-0.6-0.7-1.2-0.9-1.8
		c0.1-0.1,0.3-0.2,0.4-0.2c0.5-0.5,0.9-1.3,1.5-1.6c2-1.4,4-0.5,6,0.1c2.9,1,4.5,3.4,6.4,5.6c0,0,0.1,0.1,0.1,0.3
		c0.4,0.6,1.1,1.1,1.3,1.8c0.3,1.6-0.1,3.3-1,4.8c-1.5,2.5-3.8,3.1-6.3,3.5c-0.4,0-0.9-0.4-1.1-0.6c-0.8-0.9-1.4-1.9-2.1-2.8
		c-0.1-0.3-0.5-0.4-0.8-0.5c0,0.3,0,0.6,0.1,0.9c0,0.1,0.1,0.3,0.3,0.4c2,1.9,1.3,3.6,0.1,5.5c-0.5,0.8-1,1.6-1.5,2.5
		C457.2,294.3,456.7,294.1,455.3,293.8z M454.5,302.8c0,0.4-0.4,0.6-0.5,1c-0.4-0.1-0.9-0.3-0.9-0.5c-0.3-1.5-1.3-2.3-2.5-2.8
		c0,0-0.1-0.1-0.3-0.4C452.9,299.5,454.2,300.4,454.5,302.8z M434.9,323c-0.9,0-2.3-1-2-1.8c0.1-0.6-0.3-1.9,1-2
		c1.4-0.1,2.8,1.1,2.8,2.4C436.8,322.5,436.3,322.9,434.9,323z M444.4,327.4c-1,0.1-1.8,0.1-2.5-0.5c-0.9-0.8-0.9-0.9-0.9-2.4
		c0-0.3-0.1-0.6,0-1c0.1-1.3,1.1-1.9,2.1-1.3c1,0.6,2,1.1,2.6,2.4C446.3,325.7,445.9,327.3,444.4,327.4z M450.3,327.7
		c-1,0.4-1.9,0.1-2.4-0.8c-0.4-0.8-1.4-1.4-0.8-2.5c0.1-0.1,0-0.5-0.1-0.6c-0.4-0.6-0.4-1.4,0.4-1.8c0.8-0.4,1.5-0.3,2.1,0.4
		c0.4,0.6,0.9,1.1,1.3,1.8c0.4,0.4,0.8,0.8,0.9,1C451.5,326.5,451.3,327.3,450.3,327.7z M454.3,320.9c-0.8,0.6-1.9,0.8-2.3,0.3
		c-0.8-1-1.5-2-2.1-3c0.3-0.4,0.5-0.6,0.6-1c0.1-0.8,0.4-1.3,1.3-1.3s1.4,0.4,1.6,1.1c0.3,0.8,0.4,1.5,1.1,2.1
		C454.9,319.5,454.9,320.4,454.3,320.9z M454.2,315.4c0.3,0.9,0.4,1.8,0.4,2.8c-0.6-1-0.5-2.4-2.1-2.6c-1.4-0.3-2.1,0.6-2.9,1.8
		c-0.1-0.3-0.1-0.5-0.3-0.8c-1-2.1-1.9-4.1-2.8-6.3c-0.6-1.3-0.9-2.6-1.5-3.8c-0.6-1.3-1.5-2.4-2.4-3.6c0,0-0.3,0-0.6-0.1
		c0.1,0.4,0.1,0.8,0.4,1c1.5,1.5,2,3.4,2.8,5.3c0.8,1.8,1.6,3.4,2.4,5c0.5,0.9,0.6,2,1.1,2.9c0.6,1.4,1.5,2.8,2.3,4.1
		c0.5,0.9,0.6,1.8,0.9,2.6c-0.1,0-0.3,0.1-0.4,0.1l-1.5-1.5c-0.8-1-1.9-1.4-3-1c-0.9,0.3-1,1.1-1,2c0,0,0,0.1-0.1,0.5
		c-1-1.8-1.9-3.3-2.9-4.8c-1.6-2.5-2.9-5.3-4-8.1c-0.5-1.3-1.5-2.4-2.4-3.5c-0.1-0.1-0.3-0.1-0.8-0.1c0.5,0.6,0.9,1,1.1,1.5
		c0.6,1,1.4,2,1.8,3c1.1,3,2.5,5.9,4.4,8.5c0.3,0.4,0.4,0.8,0.8,1.4c-2.9-1.1-3.6,0.5-3.8,3c-1.8-2.3-3.1-4.5-4.8-6.4
		c-2-2.4-2.9-5.1-3.9-7.9c-0.3-0.8-0.8-1.4-1.3-2c-0.1-0.1-0.5-0.1-0.9,0c1.9,1.6,2,3.9,2.8,5.9c0.5,1.1,1.3,2.1,2,3.3
		c0.1,0.4,0.4,0.6,0.8,1.1c-2.5-0.6-2.3,1.3-2.8,2.6c-1.9-2-4.3-3.3-5.1-5.9c0-0.1-0.1-0.3-0.3-0.4c-1.3-0.9-1.8-2.1-1.5-3.6
		c0.3-1.6,0.6-3.1,2-4s2.6-2,3.8-3.1c0.5-0.4,1-0.6,1.6-0.9c1.1-0.4,1.9-1.3,2.4-2.3c0.8-1.3,1.1-1.5,2.6-1.3c1.8,0.3,3-0.4,3.9-2
		c1.3-2.1,3.3-2.6,5.5-1.6c1.1,0.5,2,1.3,2.8,2.1c0.3,0.4,0.5,0.8,0,1.1c-0.3,0.4-0.5,0.6-0.8,1c-0.6,0.8-0.6,1.9,0.1,2.6
		c1.6,1.5,2.8,3.3,3.1,5.5C452.5,310.9,453.5,313.2,454.2,315.4z M457.2,305.1c-0.4,0.4-0.9,0.5-1.3,0.8c-2.3,1.3-2.5,1.3-4-0.8
		c-0.6-0.8-1.4-1.5-2-2.3c-0.4-0.4-0.5-0.9-0.5-1.3c0-0.6,0.3-1,1-0.6c1.1,0.5,2.1,1,2.1,2.4c0,0.9,0.6,1.3,1.4,1.1
		c0.8-0.1,1.5-0.5,1.4-1.5c-0.1-0.6-0.4-1.1-0.5-1.8c-0.1-0.4-0.3-0.8-0.4-1.1c1.9,0.5,3.4,2.5,3.4,4.1
		C457.8,304.6,457.4,304.9,457.2,305.1z M480.9,292.5c-2.3,0.8-4.6,1.4-7,2.1c-3.3,1-6.6,1.9-9.9,3c-1.3,0.5-2.5,1.4-3.8,2
		c-0.4,0.3-0.8,0.5-1.3,0.8c-0.1-1.1-0.3-2.1-0.9-3.3c-0.3-0.9-0.8-1.8-1.3-2.6c1.9-1.8,3.1-4,3.9-6.5c0.1-0.3,0.6-0.6,0.8-0.5
		c1.5,0.9,3,0.1,4.4-0.3c3.4-0.9,4.3-3.8,5.4-6.6c0.9,1,1.8,2.1,2.6,3.1c1.9,2.3,3.8,4.5,5.8,6.6c0.5,0.6,1.4,1,2.3,1.5
		C481.6,292.1,481.3,292.4,480.9,292.5z M500.3,270.7c0.5-3.9,1-7.8,1.9-11.6c1.1-5.1,2.6-10.3,5.5-14.8c0.8-1.3,1.4-2.5,2.1-3.8
		c1-1.6,2.5-2.4,4.3-2.5c0,0-0.1,0.1-0.1,0.1c-5.6,7-8.9,15-10.6,23.8c-0.8,4.3-1.8,8.7-1.7,13.1c0,3.5,0.9,7.8,3.9,10
		c-1.9-0.9-3.4-2.6-4.5-4.9C499.7,277.1,500,274,500.3,270.7z"/>
	<path class="st0" d="M431.3,254.6c0.1,0.5,0.3,0.9,0.3,1.1c-0.5,1.8,0.8,2.5,2,3.3c0.6,0.4,1.1,1,1.8,1.5c0.1,0.1,0,0.4-0.1,1
		c-1.3-0.9-2.1-1.6-3.3-2.3C430.2,258.4,429.8,256.5,431.3,254.6z"/>
	<path class="st0" d="M460.6,283c1.3,0.1,2.5,0.3,3.6,0.5c1.1,0.3,1.6,0.1,1.6-1c0-0.9-0.1-1.8-0.3-2.6c0-0.4,0-0.6,0.1-1
		c0.1,0,0.3,0,0.5,0c0.1,1.4,0.4,2.8,0.4,4.1c0,1.1-1.1,1.8-2.3,1.4c-0.9-0.3-1.8-0.4-2.6-0.6c-0.4-0.1-0.8-0.3-1.1-0.5
		C460.4,283.3,460.6,283.1,460.6,283z"/>
	<path class="st0" d="M463.6,277.7c-0.6-0.3-1-0.4-1.4-0.6c-0.9-0.6-1.4-0.5-1.6,0.5c-0.1,0.6-0.1,1.3-0.1,1.9c0,0.8-0.4,0.9-1,0.8
		c0.1-1.1,0.1-2.3,0.4-3.4c0.1-0.5,0.8-1,1.3-1.1C462.3,275.5,463.6,276.4,463.6,277.7z"/>
</g>
</svg>
