<?xml version="1.0" encoding="utf-8"?>
<!-- Generator: Adobe Illustrator 19.2.0, SVG Export Plug-In . SVG Version: 6.00 Build 0)  -->
<svg version="1.1" id="Layer_1" xmlns="http://www.w3.org/2000/svg" xmlns:xlink="http://www.w3.org/1999/xlink" x="0px" y="0px"
	 viewBox="0 0 253.5 131.2" style="enable-background:new 0 0 253.5 131.2;" xml:space="preserve">
<style type="text/css">
	.st0{fill:#8BC34A;}
</style>
<g id="sick-lady-in-bed">
	<path class="st0" d="M232.5,32.3c2.5,0,4.9-0.7,7.4-0.9c3-0.2,5.7-0.1,8.7-0.1c1.6,0,3.4,0.1,4.4,1v-2.2c-2-1-4.6-1.1-7.1-1.2
		c-2.4-0.1-4.6,0-7,0.2c-2.1,0.1-4.1,0.5-6.1,0.7c-1.7,0.2-3.4,0.4-5.1,0.7c-2,0.3-3.9,0.7-5.9,1c-0.8,0.1-1.7,0-2.5,0.2
		c-1.4,0.5-2.8,1.2-3.6-0.9c-2.7-1.5-5.5-2.7-8.7-2.1c-1.4,0.3-1.8,0-2.4-1.3c-1-2.1-2.4-3.7-4.5-4.6c-1.7-0.8-3.5-1.4-5.2-2.1
		c-4.8-1.8-9.6-2.7-14.6-1.3c-0.8,0.2-1.8,0.5-2.6,0.2c-1.4-0.4-2.6-1.2-3.9-1.8c-1.3-0.6-2.8-1-4-1.9c-1.8-1.4-3.9-1.5-5.9-1.5
		c-2.7,0.1-5.1-0.6-7.3-2c-0.5-0.3-1-0.6-1.5-0.7c-1.2-0.3-2.4-0.7-3.6-0.9c-3.7-0.6-7.5-1-11.2-1.8c-3.2-0.6-6.5-1.1-9-3.4
		c-3-2.7-6.6-3.2-10.2-3.6c-2.4-0.3-4.7-0.4-6.9-1.4c-0.8-0.3-1.6-0.6-2.4-0.8c-1.2-0.3-1.5,0.9-2.2,1.3c-1.9,1.1-3.1,2.8-4.6,4.4
		c-5.2,5.8-10.3,11.6-16.2,16.7c-0.6,0.5-1.3,0.8-1.9,1.2c-1.1,0.9-2.1,2-3.2,2.8c-3.3,2.3-7,4-9.6,7.2c-1.4,1.7-3.2,3.1-4.8,4.6
		C68.1,38,67,37.5,66,37.5c-3.3,0-6.6,0.1-9.9,0.2c-0.4,0-0.9,0.2-1.1,0.4c-1.5,1.7-3.3,3.2-4.4,5.1c-1.4,2.6-2.6,5.4-2.5,8.5
		c0.1,1.6,0.1,3.3,0.5,4.9c0.5,1.7,0.7,1.9-0.8,2.8c-0.6,0.4-1.2,0.7-1.7,1.1c-2.2,1.5-4.5,2.9-6.6,4.4c-1.7,1.2-2.5,5-1.9,6.7
		c0.4,1.1,0,1.5-0.6,2.1c-0.7,0.6-1.3,1.3-1.9,2c-1.2,1.5-2.3,3-3.5,4.4c-1,1.1-2.3,1.9-3.2,3.1c-0.9,1.3-2.1,1.9-3.5,2.2
		c-0.5-0.2-0.9,0-1.3,0.2c-1.9,0.3-3.8,0.8-5.4,1.9c-0.9,0.6-1.9,1-2.8,1.6c-2.9,1.8-6.6,1-9.4,3.1c-0.1,0.1-0.3,0-0.5,0.1
		c-1.9,0.5-3.8,1.1-5.6,1.9c0,0.7,0,1.5,0,2.2c0.3-0.2,0.6-0.3,0.9-0.5c3.6-1.8,7.6-2.3,11.5-3.2c0.6-0.1,1.3-0.3,1.8-0.6
		c1.3-0.6,2.5-1.4,3.8-1.9c1.7-0.7,3.5-1.6,5.3-1.8c0.3,0,0.5-0.1,0.8-0.1c2,1.3,4.1,2.7,6.1,4.1c0.5,0.4,1.2,1,1.9,1.8
		c0.9,1.1,1.7,2.3,2.4,3.5c0.3,0.6,0.4,1.2,0.4,1.8c0.1-0.1,0.3-0.2,0.4-0.4c1.9,3.5,3.6,7.3,6.6,10c3.1,2.7,7.2,3.5,10.6,5.9
		c4.5,3.2,7.4,8,10.3,12.5c1,1.6,3.6,0.1,2.6-1.5c-2.6-4-5.2-8.2-8.7-11.4c-3.7-3.4-8.5-4.3-12.3-7.3c-3.2-2.5-5-6.1-6.9-9.6
		c-0.6-2-1.8-3.8-3.1-5.3c-0.6-0.7-1.2-1.3-1.9-1.9c-0.7-0.7-1.4-1.3-2.3-1.9c-0.2-0.1-0.4-0.2-0.5-0.2c-0.7-0.5-1.4-0.9-2.1-1.3
		c1.2-0.8,2.1-2.1,2.7-3.8c0.1-0.3,0.4-0.6,0.6-0.8c2-1.6,4-3.2,5.5-5.4c0.5-0.8,1.5-1.3,2.2-2c0.5-0.5,1.1-1,1.2-1.5
		c0.2-1.8,1.3-2.6,2.8-3.1c2.8-0.8,5.7-1.8,8.6-2.1c3-0.4,6.1-0.7,9,0.7c0.8,0.4,1.7,0.6,2.5,0.6c2.1,0,4.1,0.6,6.1,1.3
		c1.7,0.7,3.6,1.2,5.4,1.6c2.6,0.6,5.3,1,7.9,1.5c0.9,0.2,1.8,0.7,2.7,1c3.2,1,6.5,0.7,9.7,0.7c0.4,0,0.9,0,1.3,0.1
		c2.2,0.8,4.2,1.7,6.6,1.9c3.7,0.4,7.2,1.7,10.8,2.6c3.3,0.8,6.6,1.7,9.8,2.6c1,0.3,2,0.6,2.9,1.1c1.9,1.1,3.6,2.4,5.5,3.4
		c1.9,1,3.7,2.1,6.1,2.5c4.1,0.7,8.1,1.6,12.3,2.2c3.2,0.4,6.3,1.1,8.9,2.9c2.2,1.5,4.3,3.1,6.4,4.8c1.7,1.3,3.4,2.8,5.1,4
		c2.2,1.5,4.6,2.9,6.9,4.4c0.8,0.5,1.6,1.2,2.4,1.8c1.3,1.1,2.7,2.1,3.9,3.3c1.9,1.8,3.6,3.6,5.4,5.5c0.4,0.4,0.8,0.7,1.2,1.1
		c-0.4,0.1-0.7-0.1-1-0.2c-1.4-0.6-2.6-1.2-4.2-1.4c-2.9-0.5-5.9-1.2-8.7-2.2c-3.2-1.1-6.2-2.7-9.4-4c-4.8-2-9.9-3.2-14.5-5.6
		c-2.2-1.1-4.8-1.7-7-2.8c-3-1.5-5.9-3.2-8.8-4.8c-3.5-2-6.9-4-10.5-5.9c-2.4-1.2-5-2.2-7.5-3.1c-5.4-2.1-10.6-4.3-15-8.1
		c-0.5-0.4-0.9-0.8-1.5-1.1c-0.4-0.2-0.9,0-1.5,0c3.2,3.9,7.1,6.4,11.2,8.2c7.1,3.1,14.4,5.9,21.1,10c2.3,1.4,4.6,2.9,7.1,4.1
		c2.7,1.4,5.6,2.5,8.4,3.7c2.6,1.1,5,2.4,7.6,3.5c3.3,1.3,6.7,2.3,10,3.5c2.6,1,5.1,2.3,7.7,3.3c1.5,0.6,2.6,1.5,3.4,2.9
		c0.8,1.4,1.7,2.8,2.8,3.9c1.4,1.5,2.1,3.5,2.4,5.5c0.1,0.6,0.1,1.1,0.2,2.1h1.9c0.2-4-1.3-6.9-3.8-9.5c-0.7-0.7-1.2-1.8-2-2.8
		c1.8,0.3,3.3,0.7,4.8,0.8c4.9,0.5,9,3.5,13.5,4.9c2.7,0.9,4.8,2.6,6.6,4.8c0.7,0.8,1.2,0.7,1.9-0.2c1.5-1.8,3.2-3.4,4.6-5.2
		c1.4-1.6,2.6-3.4,3.9-5.1c1.6-2.1,2.9-4.4,4.7-6.2c3-3.1,6.1-6,9.4-8.7c5-4.1,9.9-8.3,14.2-13.1c1.8-2,3.4-4.2,4.6-6.8
		c1.1-2.2,2.4-4.2,3.9-6.2c0.8-1.2,2.5-2.2,2.5-3.4v-1.9c0,0.7-1.5,1.2-2.1,2.1c-2.1,2.7-4.5,5.2-5.9,8.4c-1.5,3.7-4.1,6.5-6.8,9.4
		c-4.1,4.5-9,8-13.6,12c-3.6,3.1-7,6.3-9.8,10.2c-3.1,4.3-6.5,8.5-9.6,12.7c-2.1-1.4-3.8-3-5.8-3.9c-2.9-1.4-5.6-2.9-7.9-5.2
		c-2-2-4-3.8-6-5.8c-1.8-1.7-3.6-3.6-5.6-5.1c-3.6-2.8-7.2-5.4-10.9-8c-2.4-1.7-4.7-3.6-7.2-5.2c-2-1.3-4.3-2.2-6.5-3.4
		c-0.6-0.3-1.1-0.7-1.8-1.3c0.6-0.3,1-0.5,1.4-0.7c0.7-0.3,1.4-0.4,1.9-0.9c1.4-1.2,2.8-0.8,4.1-0.2c2.1,0.9,4.2,1,6.4,0.3
		c1-0.3,2.1-0.7,3.1-0.6c2.1,0.2,4,0.2,6-0.6c2.3-0.8,3.3-2,3-3.8c-0.1-0.4,0.1-1,0.4-1.3c1.5-1.3,3.2-2.5,4.6-3.9
		c3.7-3.6,7.7-6.7,12-9.5c3.1-2,6.1-4,8.9-6.4c3.1-2.7,5.8-5.6,8.3-8.9c1.1-1.4,2.2-2.8,3.6-3.9c3.3-2.5,6.8-4.9,10.2-7.3
		c0.3-0.2,0.4-0.6,0.5-0.9c-0.4-0.1-0.9-0.4-1.1-0.3c-1.4,0.7-2.8,1.5-4.1,2.4c-1.5,1-3,2.2-4.7,3.5c0.6-4.4,1-8.5,0.1-12.7
		c0.8-0.2,1.6-0.7,2.4-0.6C224.8,34.4,228.4,32.3,232.5,32.3z M83.1,29.2c2.8-1.5,5.2-3.7,7.6-5.8c2.7-2.3,5.2-4.8,7.7-7.4
		c3.3-3.6,6.4-7.3,9.7-11c1-1.1,2.2-2,3.4-2.9c0.1-0.1,0.5,0,0.8,0.1c3.3,1.6,7,1.8,10.5,2.2c2.6,0.3,5.1,0.9,7.1,2.8
		c2.6,2.5,6.2,2.9,9.4,4c3.6,1.2,7.5,0.9,11.1,1.7c1.9,0.4,3.7,0.9,5.5,1.8c2.7,1.3,5.5,1.7,8.5,2.2c2.2,0.3,4.2,1.4,6.3,2.2
		c1.3,0.5,2.5,1.3,3.7,1.9c0,0.1,0,0.2,0,0.4c-0.8,0.3-1.5,0.7-2.3,0.7c-2.9,0.3-5.9,0.4-8.8,0.8c-2.1,0.3-4.2,0.5-6.1,1.8
		c-0.4,0.3-1,0.4-1.6,0.6c-3.9,1.4-6.1,4.5-7.4,8.3c-2,5.6-4.8,10.6-10.8,12.9c-3.2,1.3-5.8,3.3-8.2,5.7c-1.3,1.3-2.7,2.4-4.2,3.5
		c-2,1.5-3.4,3.4-4.1,5.8c-0.4,1.2-0.9,1.4-2.1,0.9c-0.4-0.2-0.7-0.3-1.1-0.5c-0.9-0.4-1.6-0.8-2-1.9c-0.3-0.8-1-1.4-1.5-2.2
		c-1.8-2.4-1.3-4.9-0.4-7.4c0.8-2.3,0.9-4.6,0.4-7c-0.3-1.2-0.2-2.5-0.3-3.7c-0.1-0.8-0.4-1.3-1.2-1.1c-0.7,0.2-0.7,0.8-0.6,1.5
		c0.3,4.2,0.8,8.3-0.9,12.3c-0.6,1.6-0.3,3.1,0.3,4.6c0.1,0.3,0.2,0.7,0.3,1c-0.1,0.1-0.2,0.1-0.3,0.2c-1-0.7-2-1.4-2.9-2.2
		c-1.8-1.6-4.1-2.5-6.2-3.5c-2.1-1-4.1-2.4-6.1-3.7c-3.3-2.1-6.3-4.7-9.7-6.4c-3.1-1.6-6.5-3-10.2-2.8c-1.4,0.1-2.8-0.3-4.2-0.5
		C75.5,35.4,78.6,31.6,83.1,29.2z M58.6,66.8c-2.6-1-5.3-0.6-7.8-0.1c-3.6,0.8-7.6,0.9-10.8,3.4c-0.3-2.8,1.2-5,4.2-6.6
		c1.3-0.7,2.6-1.3,3.8-2.1c1-0.6,1.9-1.4,3.2-2.3c0.7,0.6,1.5,1.4,2.4,2.2c2.2,1.8,4.4,3.5,6.6,5.3c0.2,0.2,0.5,0.4,0.9,0.8
		C60.1,67.2,59.3,67.1,58.6,66.8z M79.2,72c-2.7-0.5-5.5-0.8-8.2-1.8c-4.8-1.8-9.2-4.2-13.1-7.6c-0.5-0.4-1-0.8-1.5-1.2
		c-0.1-0.1-0.2-0.3-0.3-0.5c10,3.3,19.4,8.1,28.9,12.5C83.1,72.9,81.2,72.3,79.2,72z M149.8,90.6c0,0-0.1,0-0.1,0
		c-0.5-0.1-1.1-0.3-1.6-0.4c0.4-0.3,0.8-0.8,1.3-1c1.8-0.9,3.6-1.8,5.4-2.8c1.1-0.7,1.2-0.8,2.4,0.5C154.7,88.3,152.6,90,149.8,90.6
		z M160.8,86.7c-1-0.5-1.9-0.8-2.9-1.3v-0.5c0-0.4,1.3-0.7,2-1.1c1-0.4,2-0.8,3-1.3c0.9-0.4,1.1,0,1.1,0.8c0,0.4-0.1,0.8,0,1.2
		c0,0.2,0.3,0.4,0.4,0.6c0.2-0.2,0.4-0.4,0.5-0.6c0.1-0.2,0-0.4,0-0.6c0.1-0.3,0.2-0.6,0.3-0.9c0.3,0.1,0.6,0.2,0.8,0.3
		c0.6,0.3,1.2,0.7,1.9,1c0.3,0.1,0.7-0.1,1.1-0.1c0-0.1,0-0.2,0-0.3c-0.5-0.4-0.9-0.8-1.4-1c-0.7-0.4-0.7-0.7-0.1-1.3
		c0.3-0.3,0.4-0.7,0.6-1.1c-0.4,0.1-0.8,0.2-1.3,0.3c-0.5,0.1-1.1,0.2-1.5,0.1c-0.3-0.1-0.6-0.7-0.7-1.1c-0.2-0.5-0.4-1-0.6-1.5
		c-0.2,0.5-0.6,1-0.6,1.5c0,0.9-0.3,1.3-1.2,1.7c-2.5,1.1-5,2.2-7.4,3.5c-1.4,0.7-2.5,1.9-4,2.4c-2.1,0.8-4.3,1.5-6.5,1.9
		c-1.2,0.2-2.5-0.2-3.9-0.3c0.5-0.9,0.9-1.7,1.3-2.5c0.1-0.2-0.1-0.6-0.2-0.9c-0.3,0.1-0.7,0.2-0.8,0.3c-0.8,2.8-2.9,2.6-4.9,2
		c-1.4-0.4-2.8-1.3-4.1-2c-3.3-1.9-6.3-4.1-10.3-4.8c-2.7-0.5-5.3-1.5-8-2.2c-3.6-1-7.2-1.9-10.8-2.8c-0.5-0.1-1.1,0.1-1.5,0
		c-1.1-0.3-2.3-0.7-3.3-1.2c-1.7-0.8-3.5-1.1-5.3-0.9c-1.3,0.1-2.4-0.3-3.5-0.9c-2.3-1.1-4.6-2.2-7-3.2c-5.5-2.5-10.9-5-16.4-7.5
		c-1-0.5-2.2-0.7-3.2-1c-1.7-0.6-3.3-1.3-5-1.9c-1.4-0.5-2.8-0.8-4.2-1.2c-2.1-0.6-3.4-1.8-3.5-4.8c-0.3-5.4,2.1-9.6,5.6-13.3
		c0.2-0.2,0.5-0.4,0.8-0.5c3.4-0.1,6.8-0.2,10.3-0.2c0.6,0,1.2,0.3,1.7,0.5c2.6,1.3,5.4,1.2,8.1,1.3c2.3,0.1,4.3,0.8,6.4,1.6
		c5.5,2,9.6,6.1,14.5,9.1c1.3,0.8,2.7,1.7,4.1,2.2c3.6,1.2,6.3,3.8,9.3,6c0.7,0.5,1.4,1.1,2.2,1.5c5.2,3,10.5,5.8,16.2,7.9
		c2,0.8,3.8,2.2,5.7,3.1c1.5,0.6,3.1,0.9,4.7,1.3c0.7,0.1,1.4,0,2,0c2.6,0.2,4.8-0.9,7-1.9c1.9-0.9,3.6-2.2,5.3-3.4
		c1.7-1.2,3.4-2.4,5.1-3.7c1.3-1,2.7-1.2,4.4-0.9c2.3,0.3,3.6,1.8,5,3.3c1.8,2.1,3.8,4.1,6.3,5.4c1.2,0.6,2.2,1.6,3.1,2.5
		c0.7,0.6,0.4,2.1-0.4,2.5c-0.2,0.1-0.7,0.1-0.8-0.1c-2.4-2.3-4.8-4.6-7.2-7c-0.4-0.4-0.8-0.9-1.2-1.4c-2.5-3.3-5.6-2.9-9-1.3
		c-0.6,0.3-1.2,0.7-1.7,1.1c-0.3,0.3-0.5,0.9-0.7,1.3c0.5-0.1,1,0,1.4-0.2c1.1-0.5,2.2-1.2,3.3-1.7c2.1-0.9,3.9-0.4,5.5,1.3
		c2.5,2.6,5.2,5,7.7,7.5c0.7,0.7,1.4,1.5,1.5,2.4c0.1,0.6-0.6,1.5-1.1,2.1c-0.5,0.5-1.2,0.7-1.8-0.1c-0.9-1.2-1.7-2.4-2.6-3.7
		c-1.2-1.7-2.2-3.5-3.4-5.2c-0.4-0.5-0.9-0.9-1.5-1.3c-1.7-1.3-3.3-0.6-4.9,0.2c-2,1.1-4,2.2-6,3.3c-0.5,0.3-1.1,0.4-1.7,0.6
		c-0.2,0.1-0.3,0.2-0.5,0.4c0.2,0.2,0.4,0.5,0.6,0.4c0.6-0.1,1.3-0.2,1.8-0.5c2.1-1.1,4.2-2.3,6.3-3.5c2.7-1.6,4.2-0.5,5.8,1.7
		c1,1.4,1.8,3,2.7,4.5c0.6,1,1.4,2,2.1,3c0.6,0.9,0.8,1.6-0.3,2.3c-1.2,0.8-2.1,1.8-3.3,2.5C165.9,88,163.4,87.9,160.8,86.7z
		 M169.6,66.9c1.1,0.5,2,0.9,2.9,1.4c1.5,0.9,3,1.9,4.5,3c0.4,0.3,0.5,1.1,0.8,1.6c-0.1,0.1-0.3,0.1-0.4,0.2
		C174.6,71.4,171.6,69.9,169.6,66.9z M178.2,85.6c-2.3,1.7-4.9,1.8-7.7,1.6c1.2-1.4,2.2-2.7,3.4-3.7c0.8-0.7,1.9-1.2,2.9-1.8
		c0.1-0.1,0.3-0.1,0.3,0c0.6,0.8,1.3,1.5,1.7,2.4C178.9,84.5,178.5,85.3,178.2,85.6z M205.3,60.8c-1.9,2.4-4.1,4.3-6.8,5.8
		c-0.6-3.6-3.3-5.4-5.8-7.3c-0.2-0.2-0.9,0.1-1.3,0.3c-0.1,0,0,0.7,0.2,1c0.3,0.4,0.8,0.8,1.3,1.1c1.3,1,2.6,1.9,3.9,2.9
		c0.9,0.7,0.8,2.8-0.1,3.3c-4.6,2.7-8.6,6.2-12.6,9.8c-1.2,1.1-2.5,2-3.8,3c-1,0.8-2,1.3-3.1,0c-0.1-0.8,0-1.6,1-2.3
		c0.9-0.6,1.1-2.2,0.6-3.3c-0.3-0.7-0.4-1.3-0.3-2c0.1-0.8-0.1-1.6-0.2-2.3c1-2.8,2-5.6,2.9-8.3c0-0.1,0-0.1,0-0.2
		c-0.4,0.6-0.9,1.1-1.2,1.8c-0.5,1.3-0.8,2.7-1.2,4c-0.2,0.5-0.3,1.1-0.6,1.5c-0.3,0.3-0.8,0.6-1.2,0.6c-0.2,0-0.7-0.6-0.7-1
		c0-1.3-0.7-1.5-1.7-1.4c-0.4,0-0.8,0.1-1.2,0c-0.9-0.1-1.1-0.8-0.7-1.6c0.3-0.5,0.6-1.3,0.4-1.7c-0.3-0.6-1.1-0.9-1.7-1.4
		c-0.1,0.1-0.2,0.2-0.3,0.3c0,0.5,0.1,0.9,0.1,1.4c-1.4-0.6-1.9-1.4-1.7-2.5c0.3-1.3,1.2-1.8,4-1.8c-0.8-0.8-2.5-0.7-3.6,0.2
		c-1.1,0.9-1.4,2.3-0.7,3.2c0.5,0.6,1.1,1,1.7,1.5c0.3,0.3,0.5,0.6,0.7,0.9c-0.1,0.1-0.2,0.2-0.3,0.3c-2.1-1.1-4.2-2.3-6.3-3.4
		c-2.2-1.1-4.4-1.3-6.9,0.6c-1.2,0.9-2.5,1.7-3.7,2.6c-1.2,0.9-2.4,1.7-3.4,2.7c-2.6,2.4-5.9,3.1-9.3,3.6c-1,0.1-2.1-0.1-3.1-0.2
		c-0.4-0.1-1-0.6-0.9-0.7c0.2-0.5,0.5-0.9,0.9-1.2c2.5-2.1,5.4-4,6.6-7.3c1-2.8,1.9-5.5,3.5-8c2-3.1,4.6-5.8,7.5-8.1
		c0.8-0.6,1.5-1.2,2.2-1.9c2.8-2.8,6.4-4.4,9.8-6.4c1.6-0.9,3.3-1.9,4.9-2.9c2.1-1.4,4.4-2,6.8-2.3c2.2-0.2,4.3-0.7,6.4-1.2
		c3-0.6,5.7,0.4,8.2,1.8c3.8,2.1,6.6,5.3,9.5,8.3c1.4,1.5,2.9,2.9,3.3,5.1C207.9,52.3,208.4,56.8,205.3,60.8z"/>
	<path class="st0" d="M180,53c-0.2,0.5-0.4,1.4-0.7,2.1c-0.3,0.8-0.8,0.7-1.2,0.1c-1.2-1.4-2.3-2.9-3.5-4.3
		c-1.1-1.3-2.2-2.5-3.3-3.9c-0.2-0.2-0.3-0.8-0.2-1c0.2-0.3,0.6-0.7,1-0.7c2.9-0.2,6.8,2.4,7.8,5.2C180,51.1,179.9,51.9,180,53z
		 M175.8,48.4c-0.9-0.5-1.7-1-2.4-1.5c-0.1,0.1-0.2,0.2-0.3,0.3c0.6,0.8,1.2,1.6,1.8,2.5C175.3,49.2,175.5,48.8,175.8,48.4z
		 M178.4,51.7c-0.6,0.3-0.9,0.5-1.3,0.8c0.4,0.5,0.7,0.9,1.3,1.6C178.4,53.1,178.4,52.5,178.4,51.7z"/>
	<path class="st0" d="M193.1,68.2c-0.6,0.8-1.1,1.6-1.8,2c-0.4,0.2-1.4-0.1-1.9-0.6c-1-1-1.9-2.3-2.8-3.5c-0.7-1-1.3-2.1-2-3.2
		c-0.1-0.3-0.3-0.7-0.2-0.8c0.2-0.2,0.7-0.4,0.9-0.3c1.4,0.3,2.8,0.7,4.2,1.1c0.4,0.1,0.9,0.5,1.2,0.8
		C191.5,65.2,192.2,66.6,193.1,68.2z M188.8,64.2c-1-0.4-1.9-0.8-2.7-1.2c-0.1,0.1-0.2,0.2-0.2,0.3c0.5,0.8,1,1.5,1.5,2.4
		C187.8,65.2,188.2,64.9,188.8,64.2z M191.1,69.4c0.1-0.1,0.2-0.2,0.3-0.2c-0.2-0.6-0.3-1.2-0.5-2c-0.6,0.4-1.1,0.7-1.7,1.1
		C189.9,68.7,190.5,69,191.1,69.4z"/>
	<path class="st0" d="M175.1,40.6c1.7-0.6,2.8,0,3.8,0.6c2.1,1.5,4.1,3,5,5.6c0.3,0.9,0.9,1.7,1.1,2.6c0.1,0.4-0.2,1-0.4,1.5
		c-0.4-0.2-1-0.2-1.3-0.6c-0.3-0.4-0.5-1-0.7-1.5c-0.8-2.8-2-5.3-4.6-6.9c-0.6-0.4-1.3-0.4-2-0.7C175.9,41.2,175.6,41,175.1,40.6z"
		/>
</g>
</svg>
