<?xml version="1.0" encoding="utf-8"?>
<!-- Generator: Adobe Illustrator 19.2.0, SVG Export Plug-In . SVG Version: 6.00 Build 0)  -->
<svg version="1.1" id="Layer_1" xmlns="http://www.w3.org/2000/svg" xmlns:xlink="http://www.w3.org/1999/xlink" x="0px" y="0px"
	 viewBox="0 0 300 138.6" style="enable-background:new 0 0 300 138.6;" xml:space="preserve">
<style type="text/css">
	.st0{fill:#E91E63;}
</style>
<g id="sickle-cell">
	<path class="st0" d="M0,85.8c7.4-3,15.1-5,22.9-6.1c8.7-1.2,17.4-2.3,26.1-3c6.5-0.6,13.1-0.7,19.6-0.6c5.4,0.1,10.9,1,16.3,1.5
		c2.7,0.2,5.4,0.7,8,0.6c7-0.3,13.7,1.2,20.4,2.9c3.9,1,7.9,1.6,11.8,2.5c2.8,0.7,5.6,1.6,8.4,2.5c5.3,1.7,10.6,3.2,15.7,5.1
		c4.1,1.5,8,3.5,12,5.1c8.2,3.4,16.4,6.9,24.7,10.2c5.7,2.3,11.5,4.4,17.3,6.5c10.2,3.7,20.2,7.8,30.6,11.1c9.2,2.9,18.8,5,28.2,7
		c4.9,1,10,0.8,14.9,1.2c5.5,0.5,11,1.3,16.5,1.9c2.1,0.2,4.2,0.5,6.4,0.8c0,1.1,0,2.2,0,3.2c-3.3,0.2-6.6,0.6-9.9,0.4
		c-6.3-0.5-12.6-1.1-18.9-2.1c-9.7-1.5-19.4-3.3-29.2-5c-2.1-0.3-4.3-0.3-6.4-0.5c-0.9-0.1-1.9-0.4-2.8-0.8
		c-5.2-2.2-10.4-4.6-15.7-6.6c-9.7-3.7-19.6-7-29.2-10.9c-10.1-4-20-8.7-30.1-12.7c-7.5-3-15-6-22.8-8.1c-4.7-1.2-9.1-2.9-13.6-4.3
		c-5.7-1.8-11.8-2.7-17.7-3.5c-9.1-1.2-18.2-2.1-27.4-3.1c-1.7-0.2-3.4,0.2-5,0.3c-5.5,0.2-10.9,0.3-16.4,0.6
		c-11.3,0.5-22.6,1.2-33.7,3.9C14.2,87.7,7.1,89.1,0,90.6C0,89,0,87.4,0,85.8z"/>
	<path class="st0" d="M0,46.4c4.6-1.2,9.3-2.4,13.9-3.5c2-0.5,4.1-0.6,6.1-0.8c6.7-0.7,13.3-1.4,20-2.1c0.4,0,0.9-0.1,1.3-0.1
		c4.7-0.4,9.4-0.8,14.2-1c2.3-0.1,4.6,0.4,6.9,0.4c3.4,0.1,6.8,0.4,10.1,0c6.1-0.7,12-0.4,18.1,0.9c3.8,0.8,7.8,0.5,11.8,0.8
		c9.5,0.7,19,1.4,28.3,4c7.6,2.2,15.2,4.5,22.9,6.5c8.3,2.1,16.7,2.8,25.2,2.5c11-0.5,21.3-3.3,31.6-7.1c9.3-3.4,17.3-8.7,24.7-15.1
		c4-3.4,8.3-6.5,12.4-9.8c5.7-4.7,9.8-10.6,13.1-17.1c0.8-1.6,1.8-3.2,2.7-4.9c1.6,0,3.2,0,4.9,0c-2.2,7.3-6.8,13.1-12,18.5
		c-4.1,4.2-8,8.4-12.3,12.4c-2.6,2.5-5.6,4.6-8.6,6.6c-5.8,3.8-11.4,7.8-17.6,10.8c-6.1,2.9-12.7,5.1-19.2,6.9
		c-7.4,1.9-14.9,2.7-22.6,3.4c-12.3,1.1-23.1-3.4-34.4-6.3c-7.4-1.9-14.4-5-22.3-4.9c-4.8,0-9.7-1.5-14.5-2.1
		c-5-0.6-10.1-1.1-15.2-1.4c-3.8-0.3-7.7-0.6-11.5-0.5c-10.5,0.1-21-0.1-31.5,0.6c-12.1,0.8-24.2,1.5-36,4.9
		c-3.4,1-6.9,1.7-10.3,2.6C0,49.6,0,48,0,46.4z"/>
	<path class="st0" d="M298.9,0c0,1.3,0.4,2.8-0.2,3.7c-7.3,11.7-12.9,24.5-22,35c-5.4,6.3-11.8,11.8-17.5,17.8
		c-7.4,7.9-17.4,12.1-25.7,18.7c-2.8,2.2-6.4,3.3-10.4,5.2c9.3,2.2,18.1,4.4,26.8,6.4c7.2,1.7,14.5,3.2,21.8,5.1
		c5.5,1.4,11.1,1.7,16.8,1.1c3.8-0.4,7.7-0.2,11.6-0.3c0,1.6,0,3.2,0,4.9c-3.5,0-7,0-10.5,0c-8.1,0.1-15.9-1.2-23.8-3.2
		c-9.7-2.4-19.6-4.2-29.3-6.6c-7.1-1.8-14.1-4.2-21.2-6.2c-1.4-0.4-3-0.3-4.5-0.3c-2,0-4,0.1-6-0.1c-0.6-0.1-1.7-1.2-1.6-1.5
		c0.3-0.8,1.1-2,1.8-2c2.1-0.3,4.3-0.3,6.5-0.1c6.5,0.7,12-2,17.2-5.3c6.9-4.4,14-8.8,20.3-13.9c12.1-9.8,23.6-20.4,31.8-34
		c5-8.3,10.4-16.4,15.6-24.6C297.1,0,298,0,298.9,0z"/>
	<path class="st0" d="M71.7,137.1c-8.8-0.6-17.8-1.9-25.4-7.4c-7.4-5.3-12.3-12.3-11.3-22c0.4-3.8,1.9-4.5,5.4-3
		c1.8,0.7,3.8,0.9,5.6,1.4c5.5,1.5,11,3.5,16.6,4.5c6.9,1.2,13.7,1.1,20.5-1.8c4.7-2,10-2.8,15.2-3.5c3.9-0.5,6.3,2.5,5.8,6.4
		c-0.5,3.9-1.8,7.5-4.1,10.8C93,132.3,82.7,135.8,71.7,137.1z"/>
	<path class="st0" d="M289.8,112.4c0,6.6-2.4,9.3-8.4,9.1c-5-0.2-10.1-2.8-9.7-9.9c0.3-5.3,3.5-8.5,9.1-8.6
		C286.2,103,290.5,105.9,289.8,112.4z"/>
	<path class="st0" d="M124.2,61.6c0.1,5.5-2.5,7.9-9.3,8c-4,0.1-7.4-3.6-7.5-7.9c-0.1-5.6,3.3-9,9-9
		C120.8,52.8,124.1,56.5,124.2,61.6z"/>
	<path class="st0" d="M93.2,72.9c-2.9-1.1-5.4-1.6-7.6-2.8c-3.5-2-3.6-6.5-0.3-8.7c4.1-2.7,8.5-4.6,13.4-1.6
		c3.7,2.3,4.5,6.6,1.2,9.4C98,70.9,95.5,71.8,93.2,72.9z"/>
	<path class="st0" d="M230.5,105.5c0,6-6.9,11.9-12.9,11c-3.4-0.5-5.3-3.6-4.3-6.9c1.4-4.7,8.6-9.4,13.5-8.9
		C229.5,101,230.5,102.2,230.5,105.5z"/>
	<path class="st0" d="M173.2,68.7c-0.6,7.8-9.1,13.1-16.2,10c-4.9-2.1-6-3.9-5.5-8c0.2-1.7,0.9-2.6,2.6-2.2c1.5,0.3,3.2,0.6,4.5,1.4
		c2,1.4,3.6,1.1,5.2-0.5c0.9-1,1.7-2.2,2.8-2.9c1.4-0.8,3.1-1.6,4.5-1.4C172,65.4,172.5,67.5,173.2,68.7z"/>
	<path class="st0" d="M260.8,38.4c0.3,5.2-4.2,8.9-7.7,10.5c-2.4,1.1-6.3-1.5-6.6-4.1c-0.1-0.8-0.2-1.6-0.4-2.4
		c-0.7-3,0.1-5.1,2.6-6.9c1-0.7,2.2-1.3,3.1-2c1.9-1.4,4-2.3,6.2-0.9C260,34,261.2,36,260.8,38.4z"/>
	<path class="st0" d="M77.9,58.5c-0.8-0.3-2.1-0.6-3.2-1.3c-2.3-1.5-4.3-1.4-6.3,0.5c-0.9,0.9-1.6,2-2.7,2.6
		c-1.1,0.6-2.9,1.4-3.5,0.9c-0.9-0.7-1.5-2.5-1.4-3.7c0.7-5.8,3.6-7.8,8.4-8.7c3.3-0.6,6.9,0.1,10.3,0.8c2.2,0.4,3.7,2.5,3.4,4.8
		c-0.2,1.3-1.5,2.5-2.5,3.6C80.1,58.4,79.1,58.3,77.9,58.5z"/>
	<path class="st0" d="M192.9,95.5c-3.4-0.3-6.7-0.6-9.2-3.3c-2.7-2.9-3.4-6.7-1.7-10.2c0.9-1.9,2.4-2.1,3.8-0.4
		c1,1.2,1.7,2.6,2.8,3.6c2.8,2.6,6.4,1.8,9.7,1.9c1.2,0,2.4,0.5,3.6,0.8c-0.5,1.3-0.6,2.8-1.4,3.9C198.6,94.3,196,95.5,192.9,95.5z"
		/>
	<path class="st0" d="M203.9,60.4c0.5,0,1.1,0,1.6,0c2.4,0,4.6,0.5,5.5,3c0.9,2.7,0,5.1-2.3,6.6c-3.3,2.1-6.9,3.7-10.9,2.5
		c-1.7-0.5-4-1.7-4.4-3.1c-0.7-2.2,0-5,2.3-6.3c2.5-1.4,5.2-2.2,7.9-3.3C203.7,59.9,203.8,60.2,203.9,60.4z"/>
	<path class="st0" d="M213.6,56.6c0.7-1.1,1.1-2.8,2-3.1c2.1-0.8,3.6,0.2,4.6,2.4c2,4.6,7.2,5.2,10.4,1.5c0.6-0.7,1.9-1.4,2.7-1.3
		c0.8,0.1,1.8,1.1,2.1,2c0.9,2.4,0.3,4.6-1.7,6.3c-4.8,4.2-15.3,2.7-18.6-2.7C214.4,60.3,214.2,58.6,213.6,56.6z"/>
	<path class="st0" d="M210.6,91.1c2,0.5,4,0.9,5.8,1.7c0.8,0.4,1.5,1.8,1.5,2.8c0,0.8-1,1.8-1.8,2.2c-1.3,0.6-2.7,0.7-4.1,1
		c-3.7,0.8-7,2.1-8,6.4c-0.2,0.9-1.6,1.6-2.5,2.4c-0.7-0.9-1.6-1.6-2-2.6C197.2,98.7,203,91.1,210.6,91.1z"/>
	<path class="st0" d="M250.9,98.3c0,7.4-7.8,13.7-14.3,12.2c-1-0.2-1.9-1.5-2.3-2.5c-0.2-0.4,1-1.6,1.8-2c3.7-2.3,7.4-4.4,8.9-8.9
		c0.2-0.5,0.3-1.1,0.7-1.4c0.9-0.7,1.9-1.7,2.8-1.6c0.8,0.1,1.6,1.4,2.1,2.3C250.9,97.2,250.9,98.2,250.9,98.3z"/>
	<path class="st0" d="M133.8,72.1c-0.1,2.4-4.5,6.6-7.5,7.3c-4.2,1.1-7.7-0.8-11.3-2.4c-0.7-0.3-1.2-1.9-1.2-2.9
		c0-0.4,1.6-1.4,2.3-1.2c5.6,1.3,10.4-0.3,14.9-3.5C132.6,68.3,133.9,69.6,133.8,72.1z"/>
</g>
</svg>
