<?xml version="1.0" encoding="utf-8"?>
<!-- Generator: Adobe Illustrator 19.2.0, SVG Export Plug-In . SVG Version: 6.00 Build 0)  -->
<svg version="1.1" id="Layer_1" xmlns="http://www.w3.org/2000/svg" xmlns:xlink="http://www.w3.org/1999/xlink" x="0px" y="0px"
	 viewBox="0 0 300 229" style="enable-background:new 0 0 300 229;" xml:space="preserve">
<style type="text/css">
	.st0{fill:#FF9800;}
	.st1{fill:#E91E63;}
</style>
<g id="stay-away">
	<g id="male">
		<path class="st0" d="M101.5,229c0.3-2.7,0.7-5.4,0.7-8.2c0-2.9-0.4-5.8-0.8-8.7c-0.4-2.8-0.7-5.7-1.7-8.3
			c-1.9-5.1-4.2-10-9.1-13.1c-0.7-0.4-1.1-0.4-1.7,0.1c-1.6,1.2-3.5,2.1-4.8,3.5c-3.3,3.9-6.9,7.8-8,13.1c-0.5,2.5-1.6,4.8-2.4,7.3
			c-0.4,1.2-0.5,2.4-0.9,3.6c-0.1,0.5-0.5,1.1-0.9,1.2c-0.4,0.1-1.2,0-1.5-0.3c-0.3-0.4-0.6-1.1-0.4-1.6c1.2-3.9,2.4-7.7,3.7-11.6
			c1.2-3.8,2.8-7.4,5.8-10.3c1-1,1.4-2.2,1.1-3.8c-0.8-3.3-1.1-6.8-2.2-10c-1.7-4.6-3.6-9.2-6.1-13.4c-2.8-4.8-4.7-9.9-5.9-15.3
			c-0.7-3.3-1.9-6.4-3.9-9.1c-1.1-1.4-1.9-3.1-2.7-4.7c-1.3-2.8-3.5-4.7-6-6.3c-2.8-1.8-5.7-3.5-8.8-4.9c-2-0.9-4.2-1.2-6.4-1.8
			c-0.4-0.1-0.8-0.1-1-0.3c-0.4-0.3-0.6-0.8-0.9-1.2c0.4-0.2,1-0.8,1.3-0.7c2.7,0.6,5.4,1,7.9,2c2.5,1,4.7,2.7,7,4
			c1.4,0.8,2.8,1.6,4.2,2.5c2.2,1.3,3.7,3.2,4.8,5.4c0.6,1.1,1.6,2,2.4,3.1c0.5,0.6,1.1,1.3,1.3,2c1.7,5.2,3.2,10.6,5,15.8
			c0.9,2.5,2.3,4.7,3.4,7.1c1.6,3.3,3.2,6.6,4.8,9.9c0.5,1,1.2,2,1.6,3.1c0.8,2.2,1.4,4.5,2.1,6.8c0.1,0.2,0.1,0.6,0,0.8
			c-0.9,1.8,0.4,3,0.9,5c1.3-1.2,2.4-1.9,3.1-3c1.6-2.5,4-4,6.2-5.7c2.3-1.8,3.2-4.5,4.5-6.9c0.8-1.5,1.5-3,1.9-4.6
			c1.1-4,1.2-8-0.2-12c-1.3-3.7-1.1-7.6-1.1-11.5c0-3.6-1.6-5.7-5-7.1c-2.5-1.1-4.8-2.4-7.1-3.8c-1.6-1-2.6-2.5-3.1-4.3
			c-0.8-2.9-1.7-3.1-4.9-3.2c-3.3-0.1-6.7,0-10-0.1c-1.9-0.1-2.6-0.9-3-2.7c-0.8-3.6-1.6-7.1-2.5-10.6c-0.4-1.7-1.3-3.3-1.7-5
			c-1-4.7-2.9-9.1-4.5-13.6c-0.7-1.9-1.6-3.6-2.6-5.8c-1,1.1-1.7,2.1-2.6,2.9c-1.2,1.1-2.5,2.2-3.8,3.2c-0.9,0.7-1.9,1.2-2.7,1.9
			c-4,3.1-7.8,6.3-11.8,9.3c-1.6,1.2-3.5,2.2-5.5,2.9c-4.2,1.6-7.6,4.4-10.7,7.5c-5,5.1-8.3,11.2-9.7,18.3c-0.7,3.5-0.9,7-1.5,10.4
			c-0.2,1.5-0.6,3-1.1,4.4c-1.5,4-1,8.2-1,12.3c0.1,8.6,2.3,16.8,3.7,25.1c0.3,2.1,1.1,4.3,1.9,6.3c1.5,3.6,2.3,7.5,3.3,11.3
			c0.8,2.8,1.9,5.6,3,8.3c1.1,3,2.4,5.9,3.6,8.8c0.6,1.4,1.2,2.7,1.8,4c-0.9,0-1.9,0-2.8,0c-3.1-5-4.3-10.7-6.3-16
			c-2.6-7.1-5-14.2-7.3-21.4c-0.7-2.1-0.8-4.4-1.2-6.6c-0.8-4.6-1.7-9.2-2.4-13.8c-0.8-4.8-0.5-9.6,0.4-14.4c1-5.9,2-11.8,3.1-17.7
			c1.2-6.6,3.8-12.4,7.9-17.7c3.9-5.1,8.7-9,14.7-11.5c4.7-1.9,8.5-5.3,12.4-8.4c1.9-1.5,3.6-3.4,5.7-4.7c5.9-3.8,9.9-9.4,13.8-14.9
			c2.1-3.1,3.7-6.5,5.5-9.8c0.5-0.9,0.7-2,0.8-3.1c0.2-2.2,0.2-4.5,0.3-6.7c0.3-4.6,0.7-9.2,1-13.8c0.2-3,0.2-6.1,0.4-9.1
			c0.2-3.5,0.2-7,2.2-10.1c0.8-1.3,1.6-2.6,2.1-4.1c0.5-1.4,0.6-3,1.1-4.4c0.8-2.1,1.7-4.1,2.7-6c0.6-1.1,1.5-1.9,2.2-2.9
			c1.4-2.1,3.3-3.5,5.7-4.2c2-0.6,4-1.3,5.3-3.2c0.2-0.3,0.6-0.5,0.9-0.6c2.5-0.9,4.9-1.9,7.5-2.6c2-0.6,4.1-1,6.1-1.1
			c3.7-0.1,7.5,0.1,11.2,0.2c2.7,0,5,1.2,7.1,2.9c2.1,1.7,4.3,3.3,7.1,3.7c0.5,0.1,1.1,0.3,1.5,0.7c1.9,1.9,4.4,2.7,6.6,4
			c1.3,0.8,2.6,1.6,3.7,2.7c1.9,1.9,3.6,3.9,5.4,5.9c0.5,0.6,0.8,1.3,1.2,2c0.8,1.3,1.6,2.7,2.6,3.9c1,1.2,1.7,2.4,1.6,4
			c-0.1,1.4,0.2,2.7,0.9,4c0.8,1.5,0.8,3.1,0,4.7c-0.5,1-0.9,1.9-1.3,2.9c-1,2.3-2.7,3.7-5.1,4.3c-0.8,0.2-1.3,0.6-1.3,1.5
			c-0.1,2.6-0.4,5.3-0.3,7.9c0,2.5,0.4,4.9,0.5,7.4c0.1,1.7-0.6,3.1-2.1,4.2c-0.7,0.5-1.1,1.6-1.6,2.4c-0.4,0.8-0.7,1.6-1,2.4
			c-0.4,0.9-0.8,1.9-1.2,2.8c-0.4,1.1-0.3,1.9,1.1,2.4c0.8,0.2,1.4,1,2.2,1.5c3.4,2.4,7.3,4.4,9.6,8.1c0.7,1,1.4,2.1,1.8,3.3
			c0.2,0.6-0.2,1.6-0.6,2.2c-0.8,1-1.6,1.8-1.8,3.2c-0.2,1-1.1,2-1.7,2.9c-0.2,0.4-0.5,0.7-0.8,1.1c4.8,2.1,8.8,5,11.9,9.1
			c1.2,1.6,1.8,3.1,2.3,4.9c0.8,3,1.8,6,2.7,9c0.6,2,0.3,3.8-0.5,5.7c-1.8,3.9-3.6,7.9-5.5,11.9c-1.4,3-2.9,6-4.2,9.1
			c-0.9,2.3-1,4.7-0.4,7.1c0.4,1.8,1,3.5,1.5,5.2c0.2,0.8,0.3,1.7,0.4,2.6c0.1,2,0.6,4,0.2,5.8c-0.7,3,0.8,5.2,1.9,7.6
			c1.3,2.9,1.8,5.8,1.9,8.9c0.1,2.9,0.8,5.8,1,8.7c0.2,3.4,0.2,6.9,0.3,10.3c0.1,4.4-0.6,8.6-1.8,12.8c-0.8,2.8-2.3,5.3-3.5,7.9
			c-0.5,1-1,2-1.4,3c-1.2,0-2.4,0-3.6,0c-1.7-2.4-4-4.1-6.7-5c-2.7-0.9-5.3-2-7.3-4.2c-1.3-1.5-2.5-2.9-3.7-4.3
			c-0.2,1.6-0.5,3.4-0.7,5.1c-0.2,1.8-0.6,3.5,0.1,5.3c0.4,1,0.6,2.1,0.9,3.1c-0.9,0-1.9,0-2.8,0c-0.2-0.7-0.5-1.4-0.6-2.1
			c-0.2-1.8-0.5-3.7-0.4-5.5c0.1-2.5,0.7-5,0.7-7.5c0-2.9-0.4-5.7-0.5-8.6c-0.1-5.4-0.3-10.8,0-16.1c0.3-5.4,1.3-10.8,1.9-16.2
			c0.3-2.2,0.3-4.4,0.5-6.5c0-0.1-0.1-0.3-0.1-0.5c-1.3,4.3-2.4,8.1-3.6,12.1c-0.6,2.2-1.2,4.5-1.8,6.7c-0.3,0.9-0.5,1.9-0.7,2.8
			c-0.6,3.1-2.6,5.6-3.3,8.7c-0.9,3.8-2.6,7.5-3.7,11.3c-1.2,3.9-2.6,7.7-4.8,11.2c-0.5,0.8-0.6,1.7-1,2.6c-0.5,1.2-0.8,2.4-1.5,3.5
			c-1,1.5-2.2,2.9-3.3,4.3c-1,0-2.1,0-3.1,0c1.3-2.3,3.5-4,4.4-6.6c0.8-2.5,2.4-4.7,3.4-7.1c1.9-4.6,3.7-9.3,5.4-14
			c2-5.5,3.8-11,5.7-16.5c1-3.1,2.1-6.1,3-9.2c0.8-2.8,1.2-5.8,2-8.6c1.1-3.9,2.3-7.8,5.2-10.9c2.2-2.4,4.2-5.1,6.2-7.7
			c1.5-1.9,3.1-3.9,4.3-6c1.7-2.8,3-5.8,3.6-9.1c0.6-3.3,1.7-6.5,2.4-9.8c0.5-2,0.8-4.1,1.4-6.1c0.1-0.3,0.7-0.5,1.1-0.8
			c0.1,0.4,0.5,0.9,0.3,1.3c-0.7,2.1-0.7,4,1.7,5c0.1,0.1,0.3,0.1,0.3,0.3c0.1,0.5,0.2,0.9,0.3,1.4c-0.4,0-0.9,0.2-1.3,0.1
			c-0.6-0.2-1.2-0.7-1.7-1.1c-0.9,1.6-1,3,0.5,4.3c0.7,0.6,1.4,1.3,1.9,2c0.3,0.3,0.3,0.9,0.4,1.3c-0.5,0.1-1,0.3-1.4,0.2
			c-0.7-0.3-1.2-0.8-1.7-1.4c-0.4-0.4-0.5-1-0.8-1.5c-0.2,0.2-0.3,0.3-0.5,0.5c-0.8,3.1-1.4,6.2-2.6,9.2c-1.1,3-2.8,5.7-4.3,8.8
			c0.9,0.5,2.1,1.2,3.3,1.8c0.6,0.3,1.5,0.5,1,1.4c-0.4,0.9-1.2,0.5-1.8,0.2c-1.4-0.7-2.7-1.4-4-2.2c-0.3,0.7-0.5,1.5-0.9,2
			c-2.2,2.6-4.5,5.2-6.8,7.8c-0.6,0.7-0.7,1.4-0.7,2.4c0,4.4,0,8.8-0.5,13.1c-0.5,4.4-1.8,8.7-1.8,13.2c0,3-0.3,6.1-0.2,9.1
			c0.1,3.6,0,7.2,0.7,10.7c1.2,6.8,4.9,11.9,11.5,14.5c2.8,1.1,5.3,2.6,7.4,4.8c0.2,0.2,0.4,0.3,0.8,0.5c1-1.9,2.1-3.7,3-5.5
			c1.5-3.1,1.9-6.4,2.5-9.8c0.9-5.2,0.9-10.5,0.2-15.7c-0.4-3.1-1.1-6.2-1.1-9.3c-0.1-2.8-0.6-5.4-1.6-8c-1.1-2.8-1.9-5.7-1.9-8.8
			c0-3.7-0.2-7.3-1.3-10.9c-1.3-4.4-1-8.7,1.5-12.7c0.8-1.3,1.5-2.8,2.1-4.2c2-4.4,3.9-8.9,5.9-13.3c0.9-2,1.4-4,0.7-6
			c-1.2-3.6-2.3-7.3-3.7-10.8c-0.7-1.7-1.7-3.6-3.1-4.8c-3.2-2.8-6.9-5.1-11.2-6.4c-1.2,1.7-2.3,3.3-3.5,5c0.1,0.1,0.2,0.2,0.3,0.3
			c1.6-2.1,3.4-4.7,6.4-2.9c3.1,1.9,4.5,3,3.2,6.7c0.3,0.2,0.6,0.5,1,0.7c4.6,1.6,6.2,5.9,8.7,9.4c0.2,0.3,0,1-0.1,1.5
			c-0.5-0.2-1.1-0.3-1.4-0.6c-0.6-0.7-1.1-1.6-1.7-2.4c-1-1.4-1.9-3.1-3.2-4.2c-1.3-1.1-3.1-1.7-4.7-2.5c-0.8,1.2-1.8,2.4-2.4,3.7
			c-1.3,3.1-2.3,6.3-3.5,9.4c-0.2,0.4-0.7,0.8-1.1,1.1c-0.2-0.6-0.7-1.4-0.5-1.8c2.3-4.6,2.6-10,6.1-14c0.4-0.4,0.6-1,0.9-1.5
			c0.4-0.8,0.4-1.6-0.3-2.3c-0.6-0.5-1.1-1-1.7-1.4c-0.9-0.5-1.8-0.6-2.5,0.2c-1.1,1.3-2.3,2.6-3.2,4.1c-2.1,3.5-3.3,7.3-3.6,11.4
			c0,0.4-0.6,0.8-0.9,1.2c-0.3-0.4-0.8-0.7-0.8-1.1c0-6.9,1.4-13.5,5.7-19.1c0.5-0.7,1.2-1.4,1.4-2.3c0.2-0.7,0-1.7-0.4-2.3
			c-0.5-0.6-1.8-1.5-2.2-1.3c-1.7,0.9-3.3,1.9-4.6,3.3c-2.1,2.1-3.1,5.1-4.1,7.8c-0.7,1.8-1.7,3.7-1.8,5.6c-0.1,2.4-0.1,4.7-1,6.9
			c-0.2,0.6-0.8,1.4-1.1,1.4c-1-0.1-0.9-1-0.8-1.8c0.4-3.7,0.9-7.4,1-11.1c0.1-4.7,1.4-9,3.5-13.1c0.7-1.3,1.5-2.5,2.2-3.8
			c0.8-1.5,0.5-4.2-0.4-4.7c-1.1-0.6-2.2,0-3.6,1.8c0,0,0,0.1-0.1,0.1c-1.5,2.2-3,4.5-4.4,6.7c-0.6,0.9-1,1.8-1.6,2.9
			c0.6,0.1,0.9,0,1.2,0.2c0.6,0.4,1.5,0.9,1.5,1.3c-0.1,1-1,0.6-1.7,0.4c-1.1-0.2-1.6,0.3-1.6,1.4c0,0.8,0.2,1.7-0.1,2.4
			c-1.5,4.7-3.2,9.4-4.8,14c-0.4,1.2-1.1,2.3-1.3,3.5c-0.3,2.8-0.2,5.6-0.3,8.4c-0.2,4.3-0.5,8.6-0.9,12.8c-0.2,2.5-1.5,4.6-2.7,6.8
			c-1.7,3.1-2.9,6.5-4.6,9.5c-1.9,3.5-2,7.8-4.6,11c-1.2,1.5-1.5,3.4-2.3,4.9c-2.8,5.2-4.3,11.1-9,15.2c0.4,0.3,0.9,0.6,1.3,0.9
			c0.4,0.3,0.9,0.7,1.3,1.1c3.8,4.2,6.8,8.8,8,14.4c0.4,1.9,0.7,3.8,1.1,5.7c1.2,5.9,1.7,11.9,0.4,17.9
			C103.4,229,102.5,229,101.5,229z M86.1,64.6c-0.2,0-0.3,0.1-0.5,0.1c0,0.4,0,0.7-0.1,1.1c-0.3,1.6-1.9,3-3,2.3
			c-1.6-1-3.1-2.4-4.2-3.9c-1-1.4-1.3-3.3-1.9-4.9c-0.9-2.3-0.7-4.5,0.4-6.6c0.9-1.9,2.9-2.3,4.5-0.9c0.8,0.7,1.4,1.6,2,2.5
			c0.6,0.9,0.3,3.1-0.4,4c-1-0.3-1.4-0.8-1.4-2c0-1-0.8-2-1.4-2.9c-0.5-0.7-1.2-0.6-1.6,0.1c-0.8,1.3-1.4,2.7-0.8,4.4
			c0.6,1.5,1.3,3.1,1.7,4.7c0.5,1.7,1.6,3,3.5,3.4c0.1-0.6,0.2-1.2,0.4-1.7c0.1-0.4,0.3-0.9,0.6-1c2.5-1.1,3.9-0.5,4.2,2.4
			c0.3,2.8-0.7,5.4-2.1,7.8c-0.7,1.2-1.7,1.9-3.3,1.9c-3.2,0-5.3-1.5-7-3.9c-0.5-0.7-1.1-1.3-1.6-2c-1.6,2.1-3,4.1-4.6,5.8
			c-1.5,1.6-2.6,3.9-5,4.4c-2.3,0.5-3.3,2.1-4.4,3.7c-0.3,0.4-0.4,1.3-0.2,1.7c1,1.4,2.3,2.6,3.3,3.9c1.5,2,3,4,4.4,6.1
			c3.2,4.9,6.2,9.9,9.6,14.6c3.2,4.5,6.6,8.9,9.1,13.9c0.6,1.2,1.2,2.5,2.1,3.4c2.4,2.5,5,4.6,7.3,7.2c1.6,1.7,3.1,3.7,3.9,5.9
			c0.8,2.4,1,5.1,0.8,7.7c-0.3,5.8,0.8,11.3,2.4,16.8c0.1-0.1,0.2-0.2,0.3-0.4c2.2-4.8,4.2-9.7,6.7-14.3c1.7-3.2,1.5-6-0.3-9.1
			c-3.3-5.5-6.2-11.2-9.4-16.7c-1.8-3.1-4-5.9-6-8.8c-0.2,0-0.4,0-0.6,0c-0.7,1.6-1.7,3.2-2.2,4.9c-0.6,1.7-0.8,3.6-1.1,5.5
			c-0.9-0.2-1.5-0.6-1.4-1.6c0.1-0.9,0.1-1.9,0.3-2.8c0.3-1.4,0.7-2.7,1.1-4.5c-1.3,0-2.4-0.1-3.4,0c-1.8,0.2-2.2-0.1-2.2-2.2
			c0.6,0,1.3,0.1,1.9,0c1.5-0.2,3-0.3,4.4-0.8c2.7-0.9,2.9-2.2,0.7-4.1c-2.7-2.3-5.4-4.6-8.1-7c-0.5-0.4-0.8-1.1-0.9-1.8
			c-0.3-1.5-0.4-3-0.6-4.5c-0.4-3.2-0.8-6.4-1.1-9.6c-0.1-1.6-0.1-3.2,0-4.8c0-0.3,0.4-0.6,0.6-0.9c0.3,0.2,0.6,0.4,0.8,0.7
			c0.2,0.2,0.2,0.5,0.2,0.8c0.5,4.6,0.9,9.3,1.5,13.9c0.3,2.6,1.2,4.8,3.5,6.5c2.8,1.9,5.2,4.2,7.9,6.2c3.2,2.5,6.5,5,9.9,7.2
			c2.6,1.7,6.7-0.2,7.6-3.2c0.7-2.4,1.5-4.9,2.3-7.5c-3-0.2-4-2.5-4.7-5.1c-0.5-1.8-0.8-3.5-1.3-5.3c-0.6-2.1-0.3-2.8,1.7-3.7
			c3.2-1.3,6.6-1.1,10-0.9c0.3-0.9,0.6-1.9,1-2.8c0.5-1.3,0.5-2.3-0.8-3.1c-1.1-0.7-1.8-1.8-1.6-3.2c0.2-2,1.7-3.8,3.2-3.6
			c0.4,0.1,0.7,0.4,1.1,0.7c-0.3,0.3-0.5,0.7-0.8,0.9c-0.4,0.4-1,0.6-1.3,1.1c-0.4,0.8-0.3,1.6,0.6,2.2c0.7,0.5,1.3,1.5,2.4,0.4
			c0.3-0.3,0.8-0.4,1.2-0.6c2.8-1.6,5.6-3.2,8-4.5c-0.4-2.8-0.8-5.2-1.1-7.6c-0.2-1.2,0.5-1.9,1.6-2.3c1.1-0.4,2.2-0.9,3.4-1.2
			c2.4-0.8,3.3-2.9,3.3-5.1c0.1-3.9-0.3-7.7-0.5-11.6c0-1.4,0.2-2.8,0.3-3.9c-0.8-0.4-1.4-0.6-1.8-1c-1-0.9-2.1-1.6-3.5-1.4
			c-0.3,0-0.6,0-0.8-0.1c-1.6-0.8-3.3-1.6-4.8-2.5c-2.6-1.7-5.6-1.9-8.4-2.7c-3.4-0.9-7-1.4-10.4-2.2c-2.6-0.6-5,1.4-4.6,4.1
			c0.2,1.3,0.3,2.6,0.5,3.9c0.1,0.8,0.1,1.7,0.3,2.5c0.6,2.3,0.5,4.4-1.4,6c-1,0.8-2.3,1.4-3.5,1.9c-2.4,0.8-3.7,2.5-4.2,5
			c-0.3,1.7-1,3.4-1.8,4.8c-0.8,1.3-2.2,2.3-3.9,1.9c-1.7-0.4-2.1-1.8-2.4-3.4c-0.1-0.8-0.6-1.7-1.1-2.4c-1.5-2.3-3.1-4.4-3.9-7.1
			c-0.4-1.3-1.3-2.6-2.1-3.7c-1.8-2.3-4.2-2.4-5.9-1.2c-2.5,1.8-4,4.2-3.5,7.4c0.5,3,0,6.1,1.7,8.8c0.1,0.2,0.2,0.3,0.2,0.5
			c0.3,2.4,1.9,4.1,3.5,5.7c1.3,1.3,3,1.1,4.6,1.1c0.3,0,0.8-0.5,1-0.8c0.6-1.5,1.2-3.1,1.6-4.7C86.5,66.4,86.2,65.5,86.1,64.6z
			 M55.2,90.3c1.4,3,3.1,5.9,4.2,9c1.4,3.7,2.1,7.6,3.6,11.3c1.9,4.8,2.9,9.7,4,14.7c0.4,1.6,1.2,2,2.6,1.9c3.2-0.1,6.4-0.1,9.6-0.1
			c3.1,0,4.3,1.2,5.7,3.7c0.9,1.8,2.4,3.4,3.9,4.7c1.5,1.2,3.4,2,5.2,2.9c0.5,0.2,1.2,0.1,1.7,0.1c-0.2-0.6-0.1-1.4-0.5-1.8
			c-1.6-1.6-3.4-2.9-5-4.5c-2-2-4.1-4-5.8-6.4c-1.5-2.1-2.3-4.6-3.7-6.8c-1.7-2.7-3.7-5.2-5.5-7.8c-2.7-4-5.5-7.9-7.9-12.1
			c-2.4-4.1-4.7-8.3-8.1-11.8c-0.8-0.8-1.2-0.9-1.8,0.1C56.8,88.4,56,89.3,55.2,90.3z M145.7,97.4c1.1-1.7,2.3-3.5,3.5-5.3
			c0.8-1.2,0.6-2.3-0.2-3.4c-1.6-2-3-4.1-5.3-5.5c-1.8-1.1-3.4-2.5-5.2-3.7c-0.5-0.4-1.3-0.9-1.8-0.7c-1.2,0.4-2.2,1.2-3.3,1.8
			c-2.4,1.4-4.8,2.8-7.1,4.3c-0.8,0.5-1.6,1.3-2,2.2c-1.1,2.6-1.6,5.4-3.4,7.6c-0.9,1-0.8,1.9,0.4,2.6c1.3-2.1,2.6-4.1,3.9-6.2
			c1.5-2.3,2.8-4.8,5.1-6.5c1.7-1.3,4.1-0.7,4.9,1.2c0.8,2,0.8,3.9-0.3,5.9c-1.4,2.5-2.7,5-3.8,7.6c-0.7,1.8-1,3.7-1.5,5.6
			c0.1,0,0.3,0.1,0.4,0.1c0.7-1.6,1.4-3.2,2.2-4.7c1.7-3.2,4.4-5.2,7.5-6.8c0.4-0.2,1.4-0.1,1.7,0.2C142.9,94.7,144.2,96,145.7,97.4
			z M111.5,119c-0.2-0.1-0.3-0.2-0.5-0.3c-3.3,1.8-6.3,0.6-9.2-0.9c-0.9-0.5-1.8-1.1-2.7-1.5c-0.3-0.2-0.8,0-1.2,0
			c0,0.4,0,0.9,0.1,1.1c2.6,3.9,5.2,7.8,7.8,11.7c0.6,1,1.1,2,1.7,3.1c0.8,1.5,1.5,3.1,2.3,4.6c0.2,0.4,0.8,0.6,1.3,0.9
			c0.1-0.5,0.3-1,0.2-1.5c-0.9-3.6-1.6-7.2-0.7-11C111.3,123.2,111.3,121.1,111.5,119z M113.9,137.7c0.1-0.4,0.2-0.8,0.3-1.2
			c0.2-4.9,0.3-9.9,0.6-14.8c0.1-1.4,0.3-3,1-4.3c2.3-4.4,3.5-9.1,5-13.7c0.2-0.7,0.2-1.6,0.4-2.3c-0.2-0.1-0.4-0.1-0.5-0.2
			c-0.6,1.2-1.3,2.4-1.9,3.6c-1.1,2.5-2.3,4.9-3,7.5c-0.6,2.1-1.1,4.2-3.1,5.4c0.2,0.6,0.3,1.2,0.5,1.8c0.7,2.2,0,4.2-0.4,6.3
			c-0.5,2.6-0.7,5.1,0.2,7.7C113.2,134.8,113.5,136.2,113.9,137.7z M116.9,100c0.2-0.5,0.4-1,0.6-1.6c0.5-1.6,0.2-2.5-1.3-3.1
			c-1.6-0.6-3.4-1-5.3-1.5C111.7,97.3,112.5,100.3,116.9,100z M113.1,101.1c-0.1,0.1-0.2,0.1-0.3,0.2c0.3,0.7,0.5,1.3,0.8,2
			c0.7,1.3,1.7,1.5,2.9,0.6c0.3-0.2,0.5-0.6,0.5-0.9c0-0.2-0.4-0.5-0.7-0.6C115.3,101.9,114.2,101.5,113.1,101.1z M119.9,92.6
			c-2.1-0.1-3.9-0.2-5.8-0.3C116.4,94,118.9,94,119.9,92.6z M134.8,70.4c0,0.1,0,0.3,0,0.4c0.7,0.2,1.3,0.5,2,0.5
			c0.2,0,0.3-1,0.6-1.7C136.3,69.9,135.5,70.2,134.8,70.4z M134.4,72.5c0.3,1.2,0.5,2.1,0.8,3c0.1,0,0.1,0,0.2-0.1
			c0.2-0.8,0.4-1.6,0.6-2.4C135.6,72.9,135.2,72.8,134.4,72.5z M118.7,97.8c-0.2,1-0.3,1.6-0.5,2.3c0.2,0.1,0.3,0.2,0.5,0.3
			c0.5-0.5,0.9-1,1.5-1.6C119.7,98.5,119.4,98.2,118.7,97.8z"/>
		<path class="st0" d="M43.7,229c-1.5-2-3.1-4.1-4.6-6.2c-3-4.2-5.9-8.5-8.8-12.8c-2.4-3.5-5-6.9-7.4-10.5c-3.3-5-5.2-10.7-6.8-16.4
			c-0.3-1-0.7-1.9-1.1-2.8c-1.6-3.3-3.2-6.6-4.7-10c-0.6-1.4-1.1-3-1.4-4.5c-0.1-0.6,0.1-1.6,0.5-1.8c0.9-0.5,1.3,0.4,1.5,1.1
			c1.7,5.1,4.2,9.9,6.6,14.6c0.9,1.8,1.3,3.8,1.9,5.8c1.6,5,3.9,9.8,6.9,14.1c5.6,8.1,11.4,16.1,17.1,24.1c1.3,1.8,2.6,3.5,3.9,5.3
			C46.2,229,44.9,229,43.7,229z"/>
		<path class="st0" d="M115.8,64.6c1.8,0.1,3.3,0.2,4.8,0.2c0.2,0,0.5,0,0.7,0.1c1.9,0.7,3.7,1.4,5.6,2c0.8,0.2,1.7,0,2.5,0.1
			c0.4,0.1,0.9,0.4,1.3,0.6c-0.3,0.4-0.6,0.8-1,1.1c-0.3,0.2-0.8,0.1-1.2,0.3c-0.5,0.2-1,0.5-1.5,0.8c0.3,0.5,0.5,0.9,0.8,1.4
			c0.2,0.3,0.6,0.4,0.7,0.7c0.1,0.4,0.3,1,0.1,1.2c-0.2,0.2-0.9,0.3-1.2,0.1c-0.6-0.3-1.1-0.7-1.5-1.2c-0.6-0.8-1.2-0.9-2.2-0.7
			c-2.3,0.5-4.7,0.6-7-0.4c-0.4-0.2-0.9-0.4-1.1-0.8c-0.2-0.3-0.2-0.9-0.1-1.2c0.1-0.2,0.7-0.2,1-0.2c1.9,0.3,3.8,0.8,5.7,1.1
			c0.4,0.1,0.9-0.4,1.4-0.7c-0.4-0.4-0.7-1-1.2-1.1c-1.9-0.5-3.9-0.8-5.8-1.3c-0.5-0.1-0.9-0.4-1.3-0.7c-0.2-0.2-0.4-0.7-0.3-1
			C115.3,64.7,115.7,64.6,115.8,64.6z"/>
		<path class="st0" d="M105,99.9c0.1-6.5,2.9-10.9,7.4-14.5c0.5-0.4,1.3-1.4,2.1-0.5c0.1,0.1-0.6,1.3-1.1,1.7
			c-4.2,3.3-6.5,7.4-6.5,12.8c0,0.5-0.6,1-0.9,1.4C105.5,100.4,105.1,100,105,99.9z"/>
	</g>
	<g id="lady">
		<path class="st1" d="M276.1,229c-1.1-4.3-2.8-8.4-5-12.3c-1-1.8-1.6-3.8-2.2-5.8c-0.9-3.1-1.7-6.3-2.5-9.4
			c-0.1-0.4-0.2-0.8-0.2-1.2c0.1-4.8-0.5-9.6,0.8-14.5c-1.8,2.8-3.2,5.5-5,8c-4.3,5.9-8.9,11.4-14.5,16.1c-0.9,0.7-2.2,1.4-1.6,3
			c0,0.1-0.8,0.7-1.3,0.8c-0.6,0-1.4-0.1-1.9-0.5c-0.2-0.2-0.2-1.1,0.1-1.5c1-1.3,2.1-2.4,3.1-3.6c3.5-3.7,7-7.3,10.5-11
			c4.1-4.3,6.8-9.5,9.7-14.5c0.2-0.4,0.4-0.8,0.7-1c1.6-0.9,1.5-2.4,1.5-3.9c0-0.3-0.2-0.7-0.5-0.9c-5.7-4-10.1-9.2-14.2-14.8
			c-2.3-3.2-5.3-6.1-7.9-9.1c-2.5-2.8-4.9-5.7-7.4-8.5c-1.7-2-3.6-3.7-6-5c-5.2-2.8-10-6.1-12.4-11.9c-1.4-3.4-3.9-6-6.7-8.4
			c-2.4-2-4.3-4.5-6.4-6.8c-0.9-1-1.7-2-2.6-2.9c-0.9-1-1-2.1-0.6-3.2c0.5-1.2,1.5-1.6,2.8-1.7c1.8,0,3,0.8,4.3,1.9
			c2.8,2.5,5.6,4.8,8.6,7.1c-0.6-3.5-1.4-6.8-2.8-9.9c-1.5-3.3-2.9-6.7-4-10.2c-0.8-2.4,0-4.8,1.1-7.1c0.2-0.4,0.3-1,0.1-1.3
			c-1.7-2.8-4.1-5.1-6.9-6.6c-3-1.6-6.3-3.2-10.1-2c-0.9,0.3-1.9,0.3-2.9,0.3c-6.4-0.1-10.9,3.2-14.1,8.4c-0.7,1.1-1.2,2.3-2.1,3.9
			c0.7-0.4,1.1-0.5,1.4-0.8c1.7-1.3,3.3-2.7,5.2-3.8c1.9-1.1,4-1.9,6.1-2.6c1.8-0.6,3.9,2,3.1,3.8c-0.5,1.1-1.2,2.1-2.1,2.9
			c-1.9,1.6-3.5,3.4-5,5.3c-2.4,3-5.1,5.8-7.8,8.6c-0.5,0.6-1.2,1-1.9,1.4c-2,1.4-2.2,3.7-3.3,5.6c-1.4,2.7-0.6,5.6-1.4,7.9
			c1,1.2,2.1,2.1,2.9,3.3c3,4.6,6,9.3,9,13.9c0.1,0.2,0.2,0.3,0.5,0.7c0.2-1.1,0.2-2,0.4-2.8c0.6-2.2,1.3-4.4,1.8-6.7
			c0.4-1.6,0.6-3.3,0.9-4.9c0.1-0.6,0.2-1.4,0.6-1.8c0.3-0.3,1.1-0.6,1.5-0.4c0.3,0.1,0.7,0.9,0.6,1.3c-0.9,4.3-1.9,8.5-2.8,12.8
			c-0.2,1-0.3,2-0.4,3c-0.3,2-0.5,4-0.9,5.9c-0.4,2.4-0.2,4.6,0.4,6.9c1.2,5,2.4,10,3.6,15c0.3,1.3,0.2,2.7,0.7,3.8
			c0.8,1.7,1.8,3.3,3.1,4.6c4.1,4.1,8.7,7.3,14.2,9.3c0.4,0.1,0.7,0.2,1.1,0.4c4,2.1,8,4.2,12,6.4c0.4,0.2,0.5,1,0.8,1.6
			c-0.6,0.2-1.4,0.7-1.8,0.5c-3.3-1.6-6.5-3.3-9.7-4.9c-0.8-0.4-1.6-1-2.4-1.3c-6.6-2.5-12.1-6.4-16.7-11.5c0,3.3,0,6.8,0,10.3
			c-0.1,6.5-0.9,12.8-2.6,19.1c-1.9,7.1-4.7,13.7-7.5,20.4c-0.9,2.2-1.9,4.4-2.9,6.6c-0.7,0-1.5,0-2.2,0c1.4-3.8,2.7-7.6,4.3-11.3
			c2.8-6.3,4.9-12.9,6.6-19.6c1.8-7.4,1.6-14.8,1.6-22.3c0-2.9-0.1-5.8-0.4-8.7c-0.3-2.8-1-5.6-1.5-8.3c-0.5-2.4-1-4.8-1.6-7.2
			c-0.1-0.5-0.6-1.1-0.9-1.1c-0.5,0-1.2,0.4-1.3,0.9c-1.7,4.3-4.1,8.1-6.9,11.7c-2.2,2.9-4.7,5.6-7.1,8.3c-1.7,1.9-3.4,3.9-5.1,5.7
			c-1.3,1.4-2.7,1.5-4.6,0.7c0-0.8,0-1.6,0-2.4c0.8,0.1,1.8,0.4,2.5,0.2c0.7-0.3,1.2-1.1,1.8-1.7c2.8-3.2,5.6-6.3,8.4-9.6
			c4-4.7,7.6-9.5,9.3-15.5c0.8-2.9,1.8-5.8,2.7-8.7c0.1-0.4,0.1-1-0.1-1.4c-3.3-5.4-6.7-10.8-10.1-16.2c-0.5-0.7-1-1.4-1.9-2.1
			c-0.2,1.3-0.5,2.7-0.6,4c-0.2,6.4-0.4,12.8-0.6,19.2c-0.1,2.5,0.2,5,1,7.4c0.3,1,0,1.6-0.8,1.9c-0.9,0.2-1.3-0.4-1.6-1.2
			c-1.2-3.4-1.2-6.9-1-10.5c0.2-4.3,0.2-8.7,0.5-13c0.3-3.8,0.9-7.5,1.4-11.3c0-0.4,0.2-0.7,0.3-1.1c0.3-2.2,0.5-4.5,0.7-6.6
			c-0.8,0.3-2,0.9-3.2,1.2c-0.5,0.2-1.1,0.2-1.6,0c-0.5-0.1-0.8-0.6-1.2-1c0.4-0.4,0.8-1,1.2-1c3.8,0.1,5.8-2.7,8.2-4.9
			c1-0.9,2.2-1.4,3.1-2.4c3-3.3,5.9-6.7,8.9-10c1.2-1.4,2.6-2.6,3.9-3.9c0.5-0.5,1.1-1.1,1.4-1.7c0.2-0.4,0.2-1.1-0.1-1.4
			c-0.2-0.3-1-0.5-1.4-0.4c-1.6,0.6-3.2,1.1-4.6,1.9c-2,1.3-3.9,2.8-5.9,4.2c-1.9,1.5-5.1,0.9-6.1-1.3c-1-2.4-2.1-4.8-2.6-7.3
			c-0.4-2-0.1-4.1,0-6.2c0.1-5.3,0.3-10.7,0.2-16c0-2-0.8-3.9-1.3-5.9c0,0,0-0.1,0-0.1c-0.6-0.5-1.1-0.9-1.7-1.4
			c-0.3,0.6-0.7,1.3-0.8,1.9c-0.2,1.9-0.2,3.7-0.3,5.6c-0.1,2-0.1,4-0.3,6c-0.3,3.2-0.8,6.4-1.2,9.6c-0.1,0.6,0,1.3-0.2,1.9
			c-0.1,0.4-0.4,1.1-0.6,1c-0.4,0-1.1-0.3-1.2-0.6c-0.3-1.2-0.6-2.5-0.7-3.8c-0.3-3.5-0.5-7-0.9-10.6c-0.3-3-0.7-6-1.1-9
			c-0.1-0.9-0.5-1.8-0.9-2.8c-0.4-1.2-1.4-1.3-2.4-1c-1,0.2-0.9,1.1-0.9,1.9c0.1,2.9,0,5.8,0.3,8.6c0.5,5.4,1.1,10.7,1.6,16.1
			c0.1,0.6-0.5,1.2-0.8,1.9c-0.4-0.5-0.9-0.9-1-1.4c-0.7-3.9-1.3-7.7-2-11.6c-0.3-1.9-0.8-3.7-1.2-5.6c-0.2-1-0.1-2-0.2-3.1
			c-0.1-1-0.2-2-1.3-2.1c-1.1-0.1-1.5,0.8-1.5,1.8c0,3.2-0.1,6.4,0.2,9.6c0.3,3.4,1,6.7,1.6,10c0.3,1.5,0.7,3.1,0.9,4.6
			c0.1,0.6-0.2,1.3-0.3,1.9c-0.6-0.2-1.2-0.3-1.7-0.5c-4.4-2.3-5.9-6.6-7.6-10.8c-0.3-0.6-0.5-1.3-0.8-1.9c-0.6-1.2-0.6-1.2,0.7-2.1
			c2.7,4,3.2,9.3,7.8,12.5c-0.5-2.6-0.9-4.8-1.2-7c-0.8-5-1.7-10-1.3-15.1c0.1-1.4,0.2-2.9,1.4-3.9c1.7-1.4,4.2-0.7,4.7,1.4
			c0.2,0.7,0.3,1.3,0.6,2c0-2,0-3.9,0-5.9c0-1.2,0.1-2.3,1.4-2.8c1.6-0.6,3.7-0.1,4.3,1.2c0.8,1.8,1.5,3.8,1.9,5.8
			c0.6,2.9,0.9,5.9,1.3,8.8c0.2,2,0.3,4,0.8,6c0.2-1.7,0.4-3.4,0.5-5.1c0.2-4.2,0.4-8.4,0.6-12.6c0.1-1.8,1.5-3.2,2.7-2.6
			c1.3,0.6,2.4,1.4,3,2.9c1.6,4.9,1.5,9.9,1.3,14.9c-0.2,3.7-0.6,7.5-0.2,11.2c0.3,3,1.5,5.9,2.3,8.8c0.2,0,0.3,0,0.5-0.1
			c0.7-1.3,1.4-2.7,2.2-4c3-5.3,7.5-8.6,13.5-9.7c0.1,0,0.3,0,0.4,0c2.4-0.2,4.8-0.5,7.2-0.5c1.9,0,3.7,0.2,5.6,0.4
			c0.2-2.7,0.2-5.8,0.7-8.8c0.8-4.8,1.7-9.7,3.2-14.3c1.2-3.8,3.7-7.2,7.2-9.3c1.4-0.8,3-1.2,4.5-1.7c0.8-0.3,1.8-0.4,2.6-0.7
			c0.4-0.2,0.9-0.7,0.9-1.1c0.4-4.7,2.3-8.7,4.9-12.5c1.5-2,2.9-4.2,4.8-5.8c4.6-4,9.7-7.1,16-7.7c1.2-0.1,2.4-0.4,3.6-0.5
			c2.9-0.4,5.6,0.7,8.3,1.2c1.7,0.4,3.6,0.3,5.2,0.8c1.6,0.5,3.2,1.4,4.6,2.3c2.1,1.3,4.2,2.8,6.3,4c3.6,2.1,5.9,5.2,7.7,8.8
			c1,2.1,1.9,4.2,2.8,6.3c0.4,1,0.4,1.9,0.1,3c-1.5,6.3-4,12.2-6.4,18.2c-0.6,1.5-1.5,2.9-2.2,4.3c-0.2,0.5-0.6,0.9-0.6,1.4
			c-0.2,3.1-1.7,5.8-3,8.5c-2.4,5.1-4.8,10.2-8.4,14.6c-0.1,0.1-0.1,0.2-0.2,0.5c0.6,0,1.1,0.1,1.6,0.1c4.5-0.1,9.1-0.1,13.6-0.2
			c6.8,0,11.3,3.2,13.8,9.5c2.2,5.7,3,11.6,3.2,17.6c0.1,5.4,0.6,10.8,0.8,16.2c0.1,4.9,0.1,9.9,0,14.8c0,5.2,0.1,10.5-0.1,15.7
			c-0.1,3.9-0.6,7.8-1.1,11.6c-0.1,0.8-0.7,1.6-1.1,2.4c-1.3,2.5-2.4,5.2-4,7.5c-3.8,5-10,6.5-15.3,2.7c-2.2-1.6-4.5-3.1-7.1-4.9
			c-0.6,2.2-1.2,4.1-1.6,6.1c-0.8,4.1-0.9,8.3-0.9,12.5c0,5.2,1.3,10.1,3.5,14.8c1.6,3.4,3.2,6.9,4.5,10.4c0.8,2.1,1.3,4.4,1.9,6.7
			C277.8,229,276.9,229,276.1,229z M237.1,111.4c0.2,0.1,0.4,0.1,0.6,0.2c0.9-2.3,2.7-2.9,4.9-2.8c2.1,0.1,3.3,1.9,2.5,3.9
			c-1.1,2.6-2.1,5.3-3.2,7.9c-0.5,1.1-0.2,1.6,1,1.6c1.4,0.1,2.8,0.1,4.2,0c4.1-0.1,8.2-0.3,12.3-0.2c2.1,0,4-0.5,5.9-1.3
			c3.3-1.4,5.7-3.9,6.5-7.2c1-4.2,0.8-8.5-1.8-12.3c-0.4-0.6-0.7-1.4-0.8-2.2c-0.9-3.7-3.4-6.6-5.2-10.3c-0.6,0.7-0.8,1.4-1.3,1.6
			c-1.7,0.9-3.4,2.3-5.1,2.2c-2.5-0.2-4.9-1.5-6.7-3.3c-0.5-0.5-0.9-1.1-1.6-1.9c-1.6,2.7-3,5.2-4.5,7.6c-0.3,0.5-1,1.1-1.3,1
			c-0.9-0.2-0.8-1-0.5-1.7c0.8-1.4,1.5-2.8,2.4-4.1c0.9-1.3,1.8-2.6,2.8-3.9c-1.6-1.2-2.9-2.4-3-4.5c0.8,0.3,1.5,0.7,2.1,1.3
			c2.5,2.2,4.5,4.9,7.8,6.3c3.3,1.4,4.2,1.6,6.7-1c1.5-1.6,2.9-3.3,4.4-5c0.7-0.8,1.4-1.7,2-2.4c-1.5-0.2-3.2,0.1-4.2-0.6
			c-2.2-1.6-3.7-4-5-6.4c0.2-0.2,0.4-0.3,0.6-0.3c1.6-0.3,3.2-0.6,4.7-0.9c3.2-0.6,4.8,0.3,5.6,3.2c0.1,0.3,0.1,0.7,0.2,1.4
			c1.2-2.3,2.2-4.3,3.2-6.3c0.3-0.6,0.5-1.2,0.9-2c-0.4,0.1-0.6,0.2-0.7,0.2c-3,0.4-5.8-0.9-8.7-1.6c-0.4-0.1-0.9-1.3-0.8-1.9
			c0.1-0.7,0.8-1.4,1.3-2c0.1-0.1,0.6,0.3,0.9,0.4c-0.5,0.8-0.8,1.4-1.3,2.2c0.7,0.2,1.2,0.4,1.7,0.5c1.4,0.3,2.9,0.5,4.3,1
			c2.3,0.8,3.8-0.3,3.7-2.7c-0.2-2.8-0.4-5.6-0.4-8.4c0-1.4,0.7-2.2,2.1-2.2c1.2,0,2.4,0.3,3.9,0.4c1.1-3,2.3-6.3,3.5-9.5
			c1-2.6,0.6-5.1-0.3-7.7c-0.2-0.4-0.4-0.9-0.5-1.3c-0.8-2.7-3.8-4-6.3-2.7c-1.8,0.9-3.6,1.8-5.4,2.5c-3.1,1.2-6.3,2.3-9.4,3.3
			c-2.6,0.9-5.3,2.1-8,2.6c-3.3,0.5-5.7,1.8-7.4,4.6c-1.4,2.3-5.8,2.6-7.3-0.9c-0.4-1-0.7-2-1-3c-0.7-2.5-4.6-4.1-6.4-2.6
			c-2.5,2.1-3.9,5-4,8.2c-0.1,3.6,1.5,8.2,6.5,9.7c0.4,0.1,1.2,0,1.2-0.1c0.1-1,0.2-2.1,0.1-3.1c-0.1-0.9-0.8-1-1.6-1.2
			c-0.7-0.1-1.6-0.5-1.9-1.1c-0.8-1.5-1.1-3.2-0.6-4.8c0.2-0.5,0.7-1,1.2-1.3c0.3-0.1,0.8,0.2,1.2,0.4c-0.2,0.3-0.3,0.6-0.5,0.9
			c-0.2,0.4-0.6,0.8-0.7,1.2c-0.1,0.6,0.1,1.3,0.2,1.9c0.1,0.9,0.6,1.3,1.6,1.4c0.8,0.1,1.7,0.5,2.2,1.1c1,1.4,1,3.2,0.6,4.8
			c-0.5,2-2.1,2.7-4,1.9c-0.9-0.4-1.8-0.7-2.6-1c-0.5,1.9-1.1,3.5-1.2,5.2c-0.2,2.3-0.6,4.5-1.9,6.5c-0.7,1.1-1.4,2.2-1.9,3.4
			c-0.2,0.4-0.1,1.2,0.2,1.4c2,1.9,4,3.7,6.1,5.5c1.9,1.7,3.1,3.5,2.9,6.3c-0.2,2-0.1,4.2,0.6,6.1c1.2,3.3,1.9,6.6,2.1,10
			C237.3,106.3,237.1,108.9,237.1,111.4z M297.4,132c-1,0.5-1.8,1.1-2.8,1.6c-3.7,1.9-7.4,3.6-11,5.6c-1.3,0.7-2.7,1.7-3.3,3
			c-0.7,1.5-0.6,3.4-1,5.1c-0.3,1.3-0.2,2.3,1.2,3c0.7,0.4,1.1,1.1,1.8,1.5c1.4,0.9,2.8,1.7,4.3,2.5c0.4,0.2,0.9,0.3,1.1,0.6
			c0.3,0.5,0.4,1.2,0.3,1.8c-0.1,0.3-1,0.7-1.2,0.6c-2-1-4-2.1-5.9-3.4c-3.2-2.2-6.1-4.9-9.5-6.8c-5.2-2.8-10-6.1-14.6-9.7
			c-2.2-1.7-4.3-3.7-6.6-5.3c-2.9-2-6-3.8-8.9-5.7c-1.9-1.3-2.6-4.3-1.7-6.4c1.2-2.6,2.4-5.2,3.6-7.9c0.5-1.1,0.1-1.7-1.1-1.7
			c-2.1,0-3.3,1.3-4.1,3c-0.8,1.5-1.5,3.1-2.4,4.6c-0.2,0.3-0.6,0.4-1,0.6c-0.1-0.3-0.4-0.6-0.4-1c0-0.4,0.1-0.8,0.2-1.2
			c0.3-1.4,0.9-2.7,0.8-4.1c-0.2-3.4-0.6-6.8-1-10.2c-0.2-1.3-0.6-2.6-0.8-3.9c-0.2-1.3-0.2-2.7-0.4-4.1c-0.1-0.4-0.8-1-0.9-1
			c-0.8,0.6-1.9,1.1-2.3,1.9c-0.4,0.8-0.2,2.1,0,3c0.8,3.6,1.2,7.1,1,10.8c0,0.6-0.1,1.3-0.3,1.9c-0.1,0.3-0.6,0.5-1,0.8
			c-0.2-0.3-0.6-0.7-0.7-1c-0.1-0.3,0-0.8,0-1.1c0.7-3.1,0.1-6.1-0.4-9.2c-0.4-3-0.8-5.9,0-8.8c0.2-0.6,0.1-1.2,0-1.8
			c-0.1-0.8-0.7-1.4-1.5-1c-1.6,0.9-2.8,2.1-3,4.1c-0.1,1.6-0.3,3.2-0.3,4.7c0,1.4,0,2.9,0.3,4.3c0.3,1.7,1,3.4,1.3,5.1
			c0.1,0.5-0.3,1.1-0.5,1.6c-0.4-0.4-1-0.7-1.1-1.2c-0.8-2.8-1.4-5.7-2.2-8.6c-0.3-1.2-0.2-2.4-1.3-3.4c-1-0.9-1.6-2.2-2.1-3.5
			c-0.6-1.3-0.8-2.7-1.3-4c-0.2-0.5-0.6-0.8-1-1.2c-0.4,0.4-0.7,0.8-1,1.2c-0.2,0.2-0.2,0.5-0.3,0.8c-0.9,3.1,0,5.8,1.3,8.6
			c1.6,3.6,3.1,7.2,4.5,10.9c0.7,2,1.1,4.1,1.5,6.2c0.1,0.7,0.1,1.7-0.2,2.1c-0.8,0.6-1.6,0.1-2.3-0.5c-1.2-1.1-2.5-2.2-3.8-3.3
			c-1.9-1.7-3.9-3.3-5.8-5.1c-0.9-0.9-1.8-1.5-3-1.3c-0.4,0.1-1.1,0.2-1.2,0.4c-0.1,0.4,0.1,1,0.4,1.3c0.8,1,1.7,2,2.6,2.9
			c2.1,2.3,3.9,4.8,6.3,6.7c3.3,2.6,5.7,5.8,7.4,9.6c1.3,3,3.4,5.3,6.1,7.1c2.2,1.5,4.6,2.7,6.9,4.1c0.5,0.3,1,0.5,1.4,0.9
			c2.3,2.5,4.6,5,6.9,7.5c1,1.1,1.9,2.3,3,3.3c3.8,3.8,7.7,7.5,10.7,12c3.2,4.7,7.1,8.7,11.6,12c3.8,2.8,7.7,5.3,11.7,7.8
			c2.3,1.5,5,1.5,7.3,0.4c2.3-1,4.1-2.8,5.3-5.2c0.8-1.5,1.6-3,2.2-4.6c1.3-3.2,2.1-6.5,2.1-10c0-4.9,0-9.7,0-14.6
			c0-1.7,0-3.4,0-5.1C297.5,139.4,297.4,135.9,297.4,132z M266.3,87.8c1.3,2.3,2.5,4.3,3.6,6.4c0.7,1.3,1.2,2.8,1.7,4.2
			c0.3,0.6,0.3,1.4,0.7,1.9c2.3,3.4,2.6,7.2,2.4,11.1c-0.1,2-0.6,3.9-1.7,5.6c-2.7,4.3-6.5,6.9-11.4,7.4c-4.1,0.4-8.2-0.1-12.3-0.1
			c-1.5,0-3.1,0-4.6,0.2c-0.4,0-0.8,0.4-1.1,0.8c-0.1,0.1,0.3,0.7,0.6,0.9c2.4,1.3,4.8,2.5,7.1,3.9c1,0.6,2.2,1.1,2.9,1.9
			c2.4,2.9,5.6,4.8,8.6,6.9c4.5,3.1,9.3,5.8,14.2,8.7c0.5-2.6,1-5.1,1.5-7.7c0.8-4.4,1.7-8.8,2.5-13.2c0.1-0.3,0.4-0.8,0.7-0.9
			c0.3,0,0.9,0.4,0.9,0.6c0,1.7,0.1,3.5-0.1,5.2c-0.3,2-0.9,3.9-1.4,6c0.4-0.1,0.5-0.1,0.6-0.1c5.1-2.6,10.2-5.3,15.3-8
			c0.4-0.2,0.6-1,0.6-1.5c-0.2-5.1-0.7-10.1-0.7-15.2c0-5.8-1.1-11.4-2.8-16.9c-1.7-5.3-6.5-8.5-11.2-8.2c-2.7,0.2-5.3,0-8,0
			C271.9,87.8,269.2,87.8,266.3,87.8z M224,70c3.6-3.2,2.4-10.8-1.1-15C223.3,60,223.7,64.9,224,70z M279.5,56.8
			c-1-0.2-1.6-0.3-2.3-0.4c-1.3-0.1-1.9,0.3-1.7,1.7c0.2,1.9,0.2,3.9,0.4,5.8c0,0.1,0.2,0.3,0.2,0.4C276,61.4,277.9,59.3,279.5,56.8
			z M268.1,78.6c-2.2-1.1-4.4-2.1-6.5-3.1c0.8,1.4,1.8,2.6,3,3.7C265.2,79.8,267.3,79.4,268.1,78.6z M268.5,77.1
			c-0.1-1.3-0.2-2.6-1.5-3.1c-1.3-0.5-2.6-0.3-4.1,0.7C265,75.5,266.7,76.2,268.5,77.1z"/>
		<path class="st1" d="M152.3,93.8c4.4,2.9,5.9,7.5,7.2,12.3c-1.3-0.8-3.3-3.2-4.1-4.7c-0.9-1.6-2-3.1-2.9-4.7
			c-0.4-0.8-0.5-1.8-0.7-2.8C152,93.8,152.2,93.8,152.3,93.8z"/>
		<path class="st1" d="M143.2,78.4c-3.3-1.6-3.8-2.8-2.6-6.5C141.5,74.1,142.3,76.2,143.2,78.4z"/>
		<path class="st1" d="M264.1,48.7c2.5,0.7,4.9,1.5,7,3.2c0.2,0.2,0.3,0.9,0.2,1.1c-0.2,0.3-0.8,0.7-1.1,0.6c-1-0.4-2.1-0.8-2.9-1.5
			c-0.9-0.8-1.7-1-2.8-0.9c-0.5,0.1-1.2,0.1-1.6-0.1c-0.4-0.2-1-0.7-1-1.1c0-0.3,0.6-0.8,1-1C263.2,48.8,263.6,48.8,264.1,48.7z"/>
		<path class="st1" d="M265.1,56.5c-0.9-0.4-1.8-0.8-2.6-1.2c-1.1-0.6-2.1-1.4-3-2.1c-0.3-0.2-0.4-0.6-0.5-0.9
			c0.3-0.2,0.7-0.6,1-0.5c0.8,0.2,1.7,0.5,2.4,0.9c1.1,0.5,2.2,1.1,3.2,1.8c0.3,0.2,0.7,0.8,0.6,1.2
			C266.1,55.9,265.5,56.1,265.1,56.5z"/>
	</g>
</g>
</svg>
