<?xml version="1.0" encoding="utf-8"?>
<!-- Generator: Adobe Illustrator 19.1.0, SVG Export Plug-In . SVG Version: 6.00 Build 0)  -->
<svg version="1.1" id="Layer_1" xmlns="http://www.w3.org/2000/svg" xmlns:xlink="http://www.w3.org/1999/xlink" x="0px" y="0px"
	 viewBox="0 0 120 200.8" style="enable-background:new 0 0 120 200.8;" xml:space="preserve">
<style type="text/css">
	.st0{fill:#E91E63;}
</style>
<g id="stomachache-recom">
	<path class="st0" d="M9,200.8c0.3-2.2,0.5-4.5,1-6.7c0.9-4.3,1.9-8.6,2.9-12.8c0.7-3,1.4-6,2.1-9c0.2-0.7,0-1.5,0-2.3
		c0.2,0,0.4,0.1,0.6,0.2c1.4-2.5,2.2-5.1,2.7-7.8c0.5-2.8,1-5.5,1.4-8.3c0.2-1.5,0.2-3.1,0.3-4.6c0.1-1.1-0.5-2-1.3-2.6
		c-2.5-1.9-4.6-4.3-6.7-6.7c-0.9-1-1.9-1.9-2.9-2.8c-1.8-1.6-3.7-3.1-5.3-4.8c-1.6-1.6-2.5-3.7-3.2-5.9c-0.7-2.2-0.8-4.4-0.6-6.7
		c0.3-3.9,0.9-7.7,1.3-11.6c0.1-1.3,0.1-2.5,0.2-3.8c0.1-1.1,0.4-2.2,0.5-3.3c0.4-2.3,0.8-4.5,1.1-6.8c0.2-1.8,0.2-3.6,0.3-5.4
		c0.2-2.8,0.1-5.7,0.5-8.5c0.3-2.3,0.9-4.6,1.6-6.8c0.8-2.7,1.9-5.2,3.5-7.5c1-1.5,2.4-2.8,3.7-4.1c1.3-1.3,2.8-2.4,4.6-3.1
		c0.2-0.1,0.4-0.7,0.4-1c-0.1-0.7-0.4-1.5-0.7-2.1c-1.2-2.3-1.5-4.9-1.9-7.4c-0.4-2.7-0.9-5.4-1-8.1c-0.2-3.2,0-6.4-0.2-9.7
		c-0.1-3.5,0.6-6.8,1.4-10.1c0.2-0.9,0.4-1.7,0.5-2.6c0.5-3,2-5.4,3.9-7.7c1-1.3,1.9-2.6,3.1-3.7C24.4,5,26.2,3.4,28,1.9
		c0.7-0.6,1.6-0.6,2.5-0.3c0.5,0.2,1,0,1.5-0.2c0.9-0.5,1.9-1,2.9-1.1C37.5,0.1,40.1,0,42.8,0c4,0,7,1.8,9.3,4.9
		c1.9,2.6,3.8,5.1,5.5,7.7c1.1,1.7,1.9,3.7,2.8,5.6c1.7,3.4,3.3,6.8,5,10.2c1.7,3.3,2.8,6.7,4,10.2c0.9,2.7,2,5.2,3.7,7.5
		c1.2,1.8,2,3.9,3,5.8c0.7,1.3,1.6,2.4,3.3,2.6c0.7,0.1,1.4,0.4,2.2,0.6c2.1,0.4,4.2,0.7,6.2,1.1c3.3,0.7,6.2,2.1,8.6,4.6
		c1.6,1.7,3.2,3.4,4.8,5.1c0.7,0.8,1.2,1.7,1.8,2.6c2,3.3,3.6,6.8,4.7,10.5c1.4,5,2.5,10.1,3.9,15.1c0.5,1.8,1.2,3.6,2,5.3
		c2.6,6.1,4.7,12.3,6.2,18.7c0.3,1.3,0.4,2.7,0.3,4c-0.1,1.2-0.6,2.5-1.1,3.6c-1.2,2.4-2.9,4.3-5.1,5.9c-4.1,3-8.3,5.5-12.8,7.7
		c-1.8,0.9-3.4,2.3-5.1,3.4c-1.8,1.2-3.7,2.4-5.6,3.6c-0.2,0.1-0.3,0.2-0.4,0.2c0,0.6,0,1.2,0,1.7c-0.2,4,0.4,7.8,1.4,11.6
		c0.9,3.5,1.9,7,2.8,10.5c0.5,1.8,1,3.5,1.4,5.3c0.4,1.5,0.6,3.1,1,4.6c0.5,2.2,1,4.3,1.5,6.5c0.6,2.4,0.8,4.8,0.4,7.2
		c-0.3,2.2-0.6,4.5-0.9,6.7C68,200.8,38.5,200.8,9,200.8z M54.6,138c1.3,0,2.3-0.2,3.1-1.1c0.3-0.4,0.8-0.5,1.3-0.8
		c0.4-0.2,0.8-0.4,1.1-0.7c0.2-0.1,0.2-0.5,0.2-0.7c-0.3-0.7-2.3-1.8-3.1-1.7c-1,0-2,0.1-3,0c-1.1-0.1-2-0.5-2.7-1.4
		c-0.9-1.2-0.8-1.6,0.5-2.3c1.2-0.7,2.4-1.4,3.7-2c0.5-0.3,1.2-0.4,1.8-0.4c0.9,0.1,1.7,0.4,2.5,0.7c2.1,0.8,4.2,1.6,6.2,2.6
		c0.7,0.3,1.3,0.7,2.2,0.7c0.4,0,0.8,0.2,1.1,0.3c1.5,0.5,3.1,1,4.7,0.7c2.9-0.6,5.6-1.7,8.3-3c0.1-0.1,0.2-0.2,0.5-0.4
		c-0.3-0.2-0.6-0.4-0.8-0.5c-1.5-0.6-3-1.2-4.5-1.9c-2.3-1.2-4.8-1.4-7.3-1.2c-1.1,0.1-2.2,0.2-3.2,0.2c-0.2,0-0.4-0.2-0.7-0.3
		c6.1-1.7,11.5,0.2,16.9,3.1c0-0.7,0.1-1.1,0.1-1.6c0.1-3.7,0.4-7.4,1.6-11c0.5-1.4,0.9-2.9,1-4.4c0.3-3.1,0.9-6.1,2.4-8.8
		c1.1-1.9,0.6-3.8,0.4-5.6c-0.2-1.5-0.7-2.9-1.2-4.3c-0.1-0.5-0.4-0.9-0.7-1.3c-1.5-1.5-3.6-2-5.4-2.9c-0.1-0.1-0.3,0-0.5,0
		c-0.2-0.1-0.5-0.2-0.7-0.3c0-0.1,0-0.2,0-0.3c0.3-0.1,0.7-0.2,1-0.2c0.5,0.1,1.1,0.3,1.6,0.5c1.5,0.7,3,1.4,4.6,2.2
		c0.3-1.3,0.6-2.6,0.9-3.8c0.1-0.4,0.3-0.7,0.4-1.1c0.2-0.7,0.5-1.4,0.6-2.1c0.2-1.3,0.2-2.7,0.4-4.1c0.1-0.5,0.3-1,0.5-1.5
		c0.7,0.4,0.8,0.8,0.6,1.5c-0.2,0.8-0.4,1.7-0.3,2.6c0.1,2.4-0.6,4.5-1.5,6.6c-0.5,1.2-0.7,2.3-0.4,3.6c0.2,0.7,0.3,1.4,0.5,2.1
		c0.5,1.8,0.8,3.7,2.2,5.2c0.5,0.6,1,1.2,1.4,1.8c2.2,3.9,3.6,8,5.1,12.2c0.4,1.1,0.8,2.2,1.4,3.2c0.8,1.5,1.3,1.4,2.8,0.6
		c1-0.5,2.3-0.7,3.5-0.9c0.2,0,0.6,0.3,0.9,0.5c-0.3,0.2-0.6,0.4-0.9,0.5c-1.2,0.1-2.3,0.2-3.3,1c-0.3,0.2-0.6,0.3-0.9,0.4
		c-0.5,0.2-1,0.3-1.4,0.6c-1.4,0.9-2.7,1.9-4,2.9c-1.3,1-2.5,2.2-3.8,3.1c-1.6,1-3.3,1.9-4.9,2.8c-3,1.6-6.1,3.3-9.4,4.3
		c-2.7,0.9-5.4,1.3-8.1,0.2c-1.3-0.5-1.9-0.2-1.9,1.2c-0.1,1.8-0.2,3.6,0.1,5.4c0.6,3.3,1.3,6.5,2.2,9.7c0.3,1.2,1.2,2.4,1.8,3.5
		c0.1,0.2,0.4,0.4,0.6,0.4c0.9-0.1,1.9-0.2,2.8-0.5c2-0.6,4-1.4,6-2.1c4.3-1.5,8.2-3.7,12.1-6.1c0.8-0.5,1.4-1.1,2.1-1.6
		c1.4-1,2.8-2.3,4.3-3.1c4.7-2.4,9.3-4.9,13.6-8.1c2.1-1.5,3.6-3.4,4.9-5.6c0.9-1.6,0.5-4.2-0.9-5.4c-0.9-0.7-1.9-1.3-2.9-1.9
		c-0.3-0.2-0.4-0.6-0.6-0.8c0.3,0,0.8-0.1,1,0.1c1.5,1,3.2,1.8,4.3,3.4c-0.1-2.5-0.8-4.8-1.6-7.1c-3.4,1.2-6.4,1.8-7.1,1.2
		c0.7-0.3,1.3-0.5,2-0.7c1.2-0.3,2.5-0.5,3.7-0.9c1.1-0.3,1.3-0.6,0.9-1.7c-1.4-3.9-2.9-7.8-4.4-11.7c-0.9-2.3-1.9-4.4-2.3-6.9
		c-0.4-2.2-0.9-4.3-1.5-6.4c-0.7-2.5-1.7-4.9-2.3-7.4c-0.5-1.9-1-3.7-1.9-5.4c-1.3-2.6-2.4-5.3-4.4-7.5c-1.4-1.6-3-3.1-4.5-4.7
		c-2.2-2.4-4.9-3.8-8-4.3c-3.4-0.5-6.6-1.3-9.9-2.1c-0.6-0.1-1,0-1.3,0.5c-0.7,1-1.3,1.9-2.1,2.8c-3.1,3.4-6.7,6-10.8,7.9
		c-6.6,3.1-13.7,3.7-20.9,2.6c-0.2,0-0.4,0-0.8,0c0.4,0.8,0.7,1.4,1,2c0.7,1.2,1.4,2.3,2,3.5c0.4,0.9,0.2,1.5-0.8,1.7
		c-1.5,0.3-3.1,0.6-4.6,0.7c-2.1,0-4.1-0.7-6-1.4c-3-1.1-5.5-2.7-7.5-5.3c-1.3-1.7-2.8-3.3-4.3-4.9c-1.3-1.4-2.6-2.7-3.2-4.6
		c-0.2-0.5-0.5-0.6-1-0.4c-0.9,0.5-1.8,0.8-2.5,1.4c-2.4,2.1-4.8,4.1-6.2,7.1C6.8,72.5,5.4,76.6,5,80.9c-0.3,2.6-0.4,5.3-0.4,8
		c0,4-0.7,7.9-1.3,11.8c-0.3,1.9-0.5,3.7-0.7,5.6c-0.1,0.7-0.1,1.5-0.2,2.2c-0.4,3-0.9,6.1-1.1,9.1c-0.3,3.6-0.4,7.3,1.2,10.7
		c0.4,1,0.8,1.9,1.8,2.5c0.2,0.1,0.5,0.4,0.6,0.6c0.3,1.2,1.2,1.8,2,2.6c2.9,2.6,6,5,8.4,8.1c1.8,2.3,4.1,3.9,6.5,5.4
		c1.3,0.8,2.5,1.8,3.8,2.7c1.3,0.9,2.7,1.9,4,2.8c0.4,0.2,0.7,0.5,1.2,0.8c0-0.5,0.1-0.8,0.1-1.1c-0.2-3.6,0-7.2,1.4-10.6
		c0.1-0.3,0.2-0.6,0.2-1c0.4-3.6,1.1-7.1,2.2-10.6c0.1-0.4,0.2-0.9,0.2-1.4c-0.3,0-0.3,0-0.4,0c-2.6,0.7-5.2,1.5-7.9,2.2
		c-0.7,0.2-1.5,0-2.3,0c-0.3,0-0.8,0-1,0.2c-1.5,1.1-2.9,2.3-3.5,4.2c0,0.2-0.3,0.2-0.5,0.4c-0.1-0.2-0.2-0.5-0.1-0.7
		c0.4-1.4,1.3-2.5,2.4-3.5c0.4-0.3,0.8-0.7,1-0.9c-1.9-3.7-4.1-7.1-3.8-11.3c-0.9-0.4-1.7-0.7-2.5-1c-1.8-0.7-3.7-1.3-5.5-2
		c-1.5-0.6-2.8-1.4-4.5-1.3c-0.1,0-0.2-0.1-0.3-0.2c0.4-0.6,1.2-0.8,2.2-0.4c1.3,0.5,2.6,1.2,3.9,1.6c1.9,0.6,3.7,1.8,5.8,1
		c0.2,0.2,0.4,0.4,0.7,0.6c0.1-0.2,0.1-0.3,0.1-0.4c0.3-3.3,0.6-6.6,0.7-9.9c0.2-4.1,0-8.3-0.6-12.4c-0.2-1.3-0.5-2.5-0.9-3.7
		c-0.9-2.7-1.9-5.4-2.8-8.1c-0.5-1.6-0.1-3.3,0.5-4.8c0-0.1,0.2-0.1,0.5-0.3c0,0.7,0,1.2,0,1.6c0,1-0.3,2.1-0.1,3.1
		c0.5,2,1.1,3.9,1.9,5.8c1.1,2.7,1.9,5.4,2.1,8.3c0.1,1.1,0.1,2.3,0.8,3.4c1.9,3.4,2.7,7.2,3.5,11c0.4,2,1,3.9,1.1,5.9
		c0,4.2,0.7,8.4-0.1,12.6c0.3,0,0.6,0.1,0.9,0c2.4-0.6,4.8-1.3,7.2-2c0.7-0.2,1.3-0.7,2-1c0.1,0,0.2-0.1,0.3-0.2
		c1-0.3,2.1-0.5,3.1-0.9c1.7-0.7,3.7-0.8,5.3-1.9c0.5-0.3,1.2-0.2,1.5,0.6c0.4,1,0.1,2.5-0.7,3.2c-1.7,1.5-3.5,2.8-5.6,3.7
		c-0.6,0.3-1.2,0.6-1.7,1c-0.2,0.2-0.5,0.5-0.5,0.8c-0.3,1.2,0.4,2.2,1.6,2.1c2.5-0.2,5.1-0.5,7.6-0.8c3-0.4,5.9-0.8,8.9-1.1
		c0.7-0.1,1.3,0.2,1.6,1c0.3,0.7,0.1,1.3-0.5,1.8C55.5,137.2,55.1,137.5,54.6,138z M21.2,148.4c-0.1,0.4-0.1,0.6-0.1,0.9
		c0,0.6,0,1.1,0,1.7c-0.4,3.3-0.9,6.5-1.4,9.8c-0.5,3.8-2,7.2-3.1,10.8c-0.4,1.2-0.8,2.4-1.2,3.7c0.6,0.1,0.9,0.1,1.2,0.1
		c2.3-0.1,4.5-0.4,6.8-0.4c6.7-0.1,13.4-0.1,20.1-0.7c5.5-0.4,10.9-0.4,16.4-0.6c4.1-0.1,8.3-0.1,12.4-0.4
		c5.3-0.3,10.5-0.8,15.8-1.1c1.5-0.1,2.9-0.2,4.4-0.2c0.5,0,0.9-0.1,0.8-0.8c-0.4-1.7-0.7-3.4-1.2-5c-1.9-5.8-3.4-11.8-3.1-18
		c0-0.3,0-0.6-0.1-1.1c-0.3,0.1-0.5,0.2-0.7,0.3c-1.2,0.6-2.3,1.2-3.5,1.7c-2.8,1.1-5.6,2.1-8.4,3.1c-0.6,0.2-1.2,0.4-1.7,0.6
		c-1.7,0.5-3.4,0.7-5,1.4c-1.9,0.8-3.7,1.8-5.4,2.9c-2.7,1.8-5.1,4.2-8.1,5.6c-1.7,0.8-3.5,1-5.2,0.4c-1.2-0.4-1.5-1.5-0.5-2.4
		c0.5-0.5,1.2-0.8,1.8-1.1c1.3-0.6,2.8-0.7,3.9-1.8c1-1,2.2-1.9,3.3-2.8c0.3-0.2,0.5-0.5,0.9-0.9c-0.4,0-0.5,0-0.6,0
		c-3.4,1.1-6.9,2.2-10.3,3.3c-1.5,0.5-3,0.5-4.6,0.3c-0.7-0.1-1.1-0.5-1.3-1.1c-0.1-0.3-0.2-0.6-0.4-0.7c-1.9-0.8-3.8-1.5-5.7-2.3
		c-0.1,0.1-0.2,0.2-0.2,0.3c0.9,1.4,1.7,2.9,2.7,4.2c0.3,0.4,1,0.7,1.5,0.9c0.8,0.3,1.6,0.5,2.4,0.8c0.9,0.4,0.9,1.2,0.9,2
		c0,0.7-0.5,1-1.1,1.3c-0.9,0.4-1.6,0-2.3-0.2c-1.3-0.3-2.5-0.7-3.6-1.7c-1.8-1.6-3.2-3.5-4.5-5.4c-0.3-0.4-0.6-0.7-1-1.1
		c-0.5,0.9-0.8,0.9-1.4,0.4c-0.3-0.3-0.6-0.5-0.9-0.8c-2.6-1.9-5.3-3.8-7.9-5.6C21.6,148.6,21.4,148.5,21.2,148.4z M23.2,40.3
		c0.4-0.1,0.7-0.3,1-0.3c0.5-0.1,1.1-0.1,1.6-0.2c1.1-0.3,2.1-0.8,2.9-1.8c-0.5-0.1-1-0.2-1.4-0.1c-0.8,0.2-1.6,0.6-2.4,0.9
		c-0.5,0.2-1,0.3-1.6,0.4c0-0.1-0.1-0.2-0.1-0.3c1.9-0.5,3.5-1.8,5.7-1.6c-0.2-0.3-0.4-0.6-0.6-0.7c-0.2-0.1-0.5-0.1-0.8-0.2
		c0.8-0.5,1.1-0.5,1.4,0.1c0.4,0.7,0.9,1.5,1.1,2.3c0.4,1.9,0.7,3.9,1,5.9c0.1,0.3,0.2,0.9,0.5,0.9c0.8,0.2,1.7,0.3,2.5,0.4
		c0.2,0,0.4-0.2,0.5-0.4c0.3-0.7,0.8-1,1.5-0.7c0.7,0.2,1-0.3,1.2-0.7c0.2-0.4,0.2-0.9-0.4-1.1c-0.2-0.1-0.3-0.2-0.5-0.4
		c0.3,0,0.5,0,0.6,0c1.1,0.4,1.1,1.7,0.1,2.5c-1.6,1.2-3.3,1.9-5.3,1.2c-0.8-0.3-1.2-0.7-1.3-1.4c-0.1-0.6-0.1-1.3-0.2-1.9
		c-0.2-1.4-0.5-2.7-0.8-4.3c-0.5,0.5-0.7,0.7-1,0.9c-0.4,0.3-0.8,0.8-1.3,0.9c-1.1,0.4-2.1,0.8-3.3,0.4c-0.5-0.2-0.8,0-0.6,0.7
		c0.1,0.2,0.1,0.5,0.2,0.7c1,2.3,2.3,4.4,4,6.3c1.1,1.1,2.1,2.4,3.2,3.5c1.4,1.5,2.9,3,4.9,3.8c1.1,0.4,2,1.1,3.1,1.5
		c0.5,0.2,1.1,0.4,1.7,0.4c2.2,0,4-1,5.7-2.3c1.8-1.4,3.2-3.2,4.4-5.1c1.9-2.8,2.5-5.9,1.2-9.1c-0.1-0.4-0.3-0.8-0.4-1.2
		c-0.4-3.1-2.1-5.6-3.5-8.3c-0.8-1.5-1.5-3.1-2-4.7c-0.5-1.4-0.9-2.9-1.3-4.4c-0.2-0.9-0.7-1.3-1.7-1.3c-1.3,0-2.7,0-4-0.1
		c-1.1-0.1-2.2-0.2-3.3-0.5c-2.1-0.6-3.3-2.2-3.3-4.4c0-1.3,0.3-2.6,0.6-3.8c0.4-1.4,0.3-2.8,0-4.2C33,8,32.7,7.6,32.4,7.5
		c-0.2-0.1-0.6,0.3-0.8,0.5c-0.2,0.2-0.3,0.5-0.3,0.8c-0.1,0.5-0.2,0.9-0.3,1.4c-0.5,2.4-1.3,4.7-1.2,7.2c0,0.7-0.2,1.1-0.8,1.4
		c-1.1,0.5-2.2,0.9-3.1,1.5c-1.3,0.8-3.1,1.2-3.6,3c-0.5,1.6-1.3,3.2-1.4,4.8c-0.1,2.3,0.4,4.6,0.6,6.9c0,0.2,0.4,0.5,0.6,0.5
		c0.7,0,1.3-0.2,2-0.3c0.7-0.1,1.5-0.2,2.2-0.2c0.2,0,0.4,0.3,0.6,0.4c-0.2,0.2-0.4,0.4-0.6,0.5c-0.1,0.1-0.2,0-0.3,0
		c-1.4,0.2-2.7,0.4-4.1,0.6C22.4,38.1,22.8,39.2,23.2,40.3z M55,162.4c2.2-1,4.3-2.3,6.2-4c2.6-2.2,5.5-4,8.8-5.2
		c0.3-0.1,0.5-0.2,0.8-0.4c-0.1-0.3-0.2-0.6-0.3-0.8c-1.6-1.9-2.1-4.3-2.7-6.7c-0.9-3.8-1.7-7.6-1.4-11.5c0-0.4,0.1-0.9,0.2-1.3
		c0.3-1.1,0.3-1.3-0.7-1.9c-2.5-1.5-5.3-2.2-8-3.2c-0.4-0.1-0.8-0.1-1.2,0c-0.7,0.1-1.6,0.8-1.6,1.4c0.1,1.1-0.6,1.7-1.4,2.1
		c-0.3,0.2-0.5,0.3-0.8,0.5c0,0.1,0,0.2,0,0.2c0.6,0.1,1.3,0.4,1.9,0.4c0.9,0.1,1.8-0.1,2.7-0.1c1.3,0,2.2,0.9,3.1,1.6
		c0.9,0.7,0.9,1.5,0,2.2c-0.3,0.2-0.7,0.4-1,0.6c-0.6,0.4-1.2,0.8-1.8,1.2c-0.6,0.3-1.2,0.7-1.8,0.8c-1.8,0.3-3.6,0.5-5.4,0.8
		c-1.1,0.2-2.1,0.4-3.2,0.7c-2,0.5-4,1-6,1.5c-0.3,0.1-0.6,0.1-0.9,0.2c0,0.1,0,0.2,0,0.2c1.4,0.1,2.8,0.4,4.3,0.4
		c2.7,0,5.5-0.1,8.2-0.1c0.7,0,1.6,0.2,2.2,0.6c0.6,0.5,1.2,0.6,1.9,0.5c0.5-0.1,1-0.2,1.2,0.4c-0.4,0.2-0.7,0.4-1.1,0.4
		c-0.8,0.1-1.2,0.3-1.2,1.2c0,0.4-0.4,1-0.8,1.1c-1.5,0.5-3,1-4.5,1.2c-1,0.2-2,0-3-0.1c-2.6,0-5.2,0-7.8,0c-0.7,0-0.9,0.4-0.4,0.9
		c0.5,0.5,1.2,1.1,1.9,1.3c1.5,0.6,3,0.9,4.5,1.4c1.1,0.3,2.1,0.6,3.4,0.2c3-0.9,6.1-1.5,9.1-2.3c0.2-0.1,0.6,0.1,0.8,0.2
		c-0.2,0.2-0.4,0.5-0.7,0.6c-1,0.3-1.9,0.5-2.9,0.7c-1.8,0.4-3.5,0.9-5.3,1.3c-0.2,0.1-0.4,0.1-0.6,0.2c2,0.4,2.4,1.7,1.2,3.9
		c0.2,0,0.3,0,0.5,0c1.9-0.6,3.8-1,5.6-1.7c2.1-0.9,4.2-1.4,6.5-1.2c0.3,0,0.5,0.3,0.8,0.4c-0.3,0.1-0.5,0.4-0.8,0.4
		c-1.2,0.1-2.5-0.2-3.2,1.3c-0.1,0.1-0.2,0.2-0.3,0.3c-2.3,1.2-3.6,3.9-6.1,4.5C54.2,160.8,54.5,161.6,55,162.4z M58.4,179.1
		c0,0.1,0,0.1,0,0.2c2.3-0.2,4.7-0.3,7-0.5c6.1-0.5,12.1-1,18.2-1.4c2.8-0.2,5.7-0.3,8.5-0.7c0.8-0.1,1.5-0.7,2.1-1.3
		c0.2-0.2-0.2-1-0.3-1.5c-0.1-0.2-0.1-0.5-0.2-0.6c-0.2-0.2-0.5-0.5-0.7-0.5c-1.5,0-2.9,0-4.4,0.1c-4.2,0.3-8.4,0.8-12.6,1.1
		c-3,0.2-6.1,0.2-9.1,0.3c-4.9,0.2-9.8,0.3-14.7,0.4c-4.7,0.2-9.4,0.4-14.1,0.6c-1.5,0.1-2.9,0.1-4.4,0.2
		c-5.6,0.2-11.3,0.4-16.9,0.6c-1.5,0-1.5,0-1.8,1.5c-0.3,1.6-0.3,1.7,1.3,1.8c5.2,0.4,10.5,0.8,15.7,1c3.2,0.1,6.4-0.1,9.7-0.1
		c2.9-0.1,5.8-0.1,8.7-0.2C53,179.8,55.7,179.4,58.4,179.1z M39.9,161.9c0.2-0.7,0.4-1.4,0.5-2c-0.5-0.5-1.3-1-1.7-1.6
		c-1.6-2.2-3-4.5-4.5-6.7c0.4-0.4,0.8-0.4,1.2,0c0.6,0.5,1.2,1.1,2,1.4c1.5,0.7,3,1.1,4.5,1.7c1.7,0.8,3.6,0.9,5.4,1.1
		c0.1,0,0.2,0,0.4-0.1c-0.8-1.1-0.8-2.1,0.2-3c-2-0.6-3.9-1-5.8-1.7c-1.2-0.4-2.3-1.2-3.3-2c-0.4-0.3-0.5-1.2-0.4-1.8
		c0-0.2,0.9-0.4,1.5-0.4c3.3-0.1,6.6,0,9.8-0.1c0.8,0,1.6-0.2,2.4-0.3c-0.8-1.2-0.8-2.3,0.1-3.4c-0.5,0-0.8,0-1.1,0
		c-4.2-0.1-8.4-0.2-12.7-0.3c-0.3,0-0.6-0.4-0.9-0.5c0.2-0.3,0.4-0.7,0.7-0.9c0.3-0.2,0.7-0.3,1.1-0.3c2.5-0.5,5.1-1,7.6-1.5
		c1.4-0.3,2.7-0.7,4.1-1c0.7-0.2,1.3-0.4,2.1-0.7c-1.1-0.7-1.1-1.7-0.8-2.8c-1.6,0.2-3.2,0.4-4.7,0.6c-3.2,0.4-6.4,0.9-9.7,1.2
		c-1.2,0.1-2-0.7-2.3-1.8c-0.3-1.2,0.1-2.1,1.1-2.7c0.5-0.3,0.9-0.5,1.4-0.7c2.1-0.8,3.8-2.1,5.5-3.5c0.1-0.1,0.2-0.2,0.4-0.5
		c-1.2,0.2-2,0-2.6-0.8c-0.1-0.1-0.4-0.1-0.6-0.1c-1.1,0.3-2.2,0.7-3.3,1c-1.3,0.3-1.8,1.1-2.1,2.2c-0.3,1.3-0.8,2.6-1.1,3.9
		c-0.3,1-0.4,2.1-0.6,3.2c-0.3,1.8-0.5,3.5-0.8,5.3c-0.2,0.8-0.7,1.5-0.8,2.3c-0.4,2.5-0.8,4.9-0.6,7.5c0.1,0.9,0.3,1.7,1,2.5
		c1.3,1.4,2.4,3.1,3.6,4.6C37.2,160.3,38.4,161.4,39.9,161.9z M54.1,56c0.3,0.2,0.3,0.2,0.3,0.2c1.6,3,4.1,4.7,7.2,5.7
		c0.2,0.1,0.6,0,0.8-0.1c1.4-0.7,2.8-1.3,4.1-2.1c2.1-1.2,3.6-3.1,5.2-4.9c0.5-0.6,0.4-1-0.3-1.4c-1.4-0.8-2.9-0.9-4.4-0.2
		c-1.8,0.9-3.8,1.3-5.8,1.1c-2.5-0.2-4.2-1.6-5.4-3.7c-0.9-1.7-1.8-3.5-2.6-5.2c0,0-0.1,0-0.1,0c0,0.2-0.1,0.3-0.1,0.5
		c-0.3,1.9-0.7,3.7-2.1,5.2c-0.4,0.4-0.6,0.9-1,1.4c-1.2,1.7-2.8,3.2-4.5,4.4c-1.3,0.9-2.8,1.4-4.3,1.6c-1,0.1-1.3,0.4-1.2,1.2
		c0.1,1,0.2,1.9,0.4,2.9c0.1,0.4,0.2,1,0.5,1.2c0.8,0.5,1.6,1,2.5,1.1c4,0.7,8,0.8,12-0.4c2-0.6,3.9-1.3,6.1-2
		c-0.3-0.2-0.5-0.3-0.6-0.3c-1.8-0.5-3.2-1.7-4.6-2.9c-0.6-0.6-1.2-1.3-1.7-2C54.2,56.9,54.2,56.5,54.1,56z M90.6,99.3
		c-0.6,1.2-1.1,2.1-1.4,3.1c-0.7,1.9-1.4,3.9-1.9,5.8c-0.7,2.6-1,5.4-1.7,8c-0.9,3.3-1.2,6.7-1.2,10.1c0,0.4,0.2,0.8,0.3,1.4
		c2.2-1.2,4.2-2.2,6.2-3.4c1.2-0.7,2.3-1.8,3.4-2.7c1.3-1,2.5-2,3.8-3c0.6-0.5,0.8-1,0.4-1.7c-0.5-1.1-1-2.2-1.5-3.3
		c-1.4-3.7-2.8-7.4-4.3-11C92.1,101.5,91.3,100.5,90.6,99.3z M20.7,103.1c-0.1,0-0.2,0.1-0.3,0.1c0,0.5-0.1,1.1-0.1,1.6
		c-0.2,4-0.5,7.9-0.7,11.9c-0.1,2.2-0.3,4.4,0.2,6.5c0.5,2.2,1.7,4.2,2.6,6.3c0.1,0.3,0.5,0.5,0.7,0.6c0.5,0.3,0.9,0.2,1-0.4
		c0.1-0.6,0.3-1.2,0.3-1.8c0-1.9,0-3.7-0.1-5.6c-0.1-2,0-4.1-0.3-6.1c-0.5-3.1-1.3-6.2-2-9.3C21.7,105.7,21.2,104.4,20.7,103.1z
		 M75.7,54.9c-1.8-0.8-2.2-0.7-3.3,0.6c-1.7,2.2-3.6,4.3-6.2,5.5c-2.7,1.3-5.5,2.5-8.3,3.5c-2.7,1-5.4,1.7-8.3,1.7
		c-2.8,0-5.7,0.3-8.3-1c-0.2-0.1-0.4-0.1-0.8-0.1c0.1,0.5,0.1,0.8,0.2,1.2c0.4,1,1.1,1.6,2.2,1.8c3,0.5,6,0.5,9,0.2
		c4.6-0.4,8.9-1.5,12.9-3.8c3.2-1.8,6-3.9,8.5-6.5C74.2,57,74.9,55.9,75.7,54.9z M46.4,185.8c0.1,2.4,0.2,4.7,0.4,7
		c0.2,1.8,0.6,3.6,1.6,5.1c0.2,0.3,0.6,0.8,0.8,0.7c0.7-0.1,1.5-0.2,1.9-0.6c0.3-0.3,0.3-1.3,0-1.8c-1.7-3-2.2-6.2-2.3-9.6
		c0-0.3,0-0.6-0.1-1C47.9,185.6,47.2,185.7,46.4,185.8z M53.1,146.4c0.4-0.1,0.8-0.2,1.2-0.3c0.9-0.3,1.1-0.8,0.8-1.9
		c-0.2-0.6-0.6-1.1-1.2-1c-1.1,0.2-1.8,0.9-1.7,1.7c0,0.2,0.1,0.4,0.2,0.5C52.6,145.7,52.9,146,53.1,146.4z M53.7,162.9
		c0.1-0.1,0.2-0.2,0.2-0.3c-0.1-0.5-0.1-1.2-0.5-1.6c-0.6-0.7-2.3-0.5-2.9,0.3c-0.4,0.5-0.4,1,0.3,1.2
		C51.7,162.7,52.7,162.8,53.7,162.9z M50.7,153.9c-0.1-0.1-0.2-0.5-0.5-0.7c-0.3-0.1-0.7,0-1,0.1c-0.1,0-0.3,0.1-0.4,0.1
		c-0.6-0.1-1.1,0.2-1,0.7c0.1,0.6,0.6,1.4,1,1.6C49.8,156.1,50.7,155.2,50.7,153.9z M43.8,161.5c-0.3-0.3-0.6-1-1-1
		c-0.6-0.1-1.3,0.1-1.9,0.3c-0.1,0-0.2,0.2-0.1,0.3c0.2,0.4,0.3,1.2,0.6,1.2c0.7,0.2,1.4,0,2.1,0C43.6,162.2,43.6,161.9,43.8,161.5z
		 M54.2,137.3c0.5-0.6,1.6-0.9,1.3-2c-0.1-0.3-0.7-0.5-1.1-0.5c-0.7-0.1-1.3,0.3-1.5,0.9C52.7,136.7,53.7,136.8,54.2,137.3z
		 M49.2,156.7c-1.8-0.1-3.5-0.3-5.2-0.4C44.3,157.4,47.3,157.6,49.2,156.7z M42.2,126.2c0.5,0.8,1.2,0.6,1.8,0.6
		c0.7,0,0.6-0.5,0.5-0.9c-0.1-0.5-0.3-0.7-0.8-0.5C43.3,125.6,42.8,125.9,42.2,126.2z M51.3,130.3c0.3,0.4,0.5,0.6,0.8,1
		c0.6-0.9,2-0.8,2.2-2.2C53.3,129.4,52.4,129.8,51.3,130.3z"/>
	<path class="st0" d="M43,47.5c-1.4,1.6-2.6,3.1-3.9,4.4c-1,1.1-3.1,1.4-4.4,0.8c-0.3-0.1-0.5-0.4-0.8-0.6c-0.5-0.5-0.9-1-1.5-1.6
		c0.7-0.7,1-2.2,2.6-2.1c0.2,0,0.3-0.1,0.5-0.2c1.3-0.9,2.8-0.9,4.4-1c0.6,0,1.2-0.1,1.8-0.1C42.1,47.2,42.4,47.3,43,47.5z
		 M33.9,50.8c0,0.1-0.1,0.2-0.1,0.4c0.4,0.4,0.7,0.9,1.2,1.1c0.9,0.3,2,0.4,2.9-0.1c1.5-0.8,2.6-2,3.4-3.6c-0.6,0.2-1.2,0.4-1.8,0.7
		c-0.6,0.3-1.2,0.7-1.9,1c-0.4,0.2-0.9,0.3-1.4,0.4C35.4,50.7,34.7,50.7,33.9,50.8z M40.8,47.8c-1.7-0.2-3.3,0-5,0.8
		c-0.2,0.1-0.5,0.3-0.7,0.3c-1-0.1-1.4,0.6-1.9,1.4C35.9,49.5,38.5,48.6,40.8,47.8z"/>
	<path class="st0" d="M42.6,30.1c-0.5,0.3-0.8,0.6-1.2,0.7c-2.2,0.8-4.5,1.5-6.8,2.2c-0.3,0.1-0.6,0.3-0.8,0.5
		c-0.3,0.3-0.6,0.5-0.9,0.1c-0.4-0.4-0.2-0.8,0.2-1.1c0.6-0.4,1.3-0.9,2-1.1c1.8-0.6,3.6-1.2,5.3-1.7c0.5-0.1,1-0.1,1.5,0
		C42.1,29.8,42.3,29.9,42.6,30.1z"/>
	<path class="st0" d="M35.7,35.1c1.7,0.3,3.1,0,4.5-0.7c0.4-0.2,0.8-0.5,1.2-0.7c0.1-0.1,0.3,0,0.5,0c0,0.2,0.1,0.5,0,0.6
		c-1,1.4-4.3,2.6-6,2.1c-0.7-0.2-1.1-0.7-1-1.3c0-0.3,0.6-0.6,1-0.8c1.6-0.6,3.2-1.2,4.8-1.8c0.2-0.1,0.5-0.1,0.8-0.2
		c0,0.1,0.1,0.2,0.1,0.3C39.7,33.5,37.8,34.3,35.7,35.1z"/>
</g>
</svg>
