<?xml version="1.0" encoding="utf-8"?>
<!-- Generator: Adobe Illustrator 19.2.0, SVG Export Plug-In . SVG Version: 6.00 Build 0)  -->
<svg version="1.1" id="Layer_1" xmlns="http://www.w3.org/2000/svg" xmlns:xlink="http://www.w3.org/1999/xlink" x="0px" y="0px"
	 viewBox="0 0 151 202.4" style="enable-background:new 0 0 151 202.4;" xml:space="preserve">
<style type="text/css">
	.st0{fill:#8BC34A;}
</style>
<g id="stuffy-nose-allergy-man">
	<path class="st0" d="M150.7,106.2c0-1.5-0.5-3-1.1-4.4c-1.5-3.6-3.2-7.1-5-10.5c-1.1-1.8-2.3-3.3-3.5-5c-0.8-0.9-1.5-1.8-2.4-2.6
		c-2.3-2.1-4.8-4.1-7.1-6.3c-1.8-1.8-3.8-2.9-6.2-3.3c-0.5,0-1.1,0-1.5-0.2c-1.7-0.9-3.3-1.7-4.8-2.7c-1.5-1.1-2.9-2.1-4.2-3.3
		c-1.1-0.9-2.3-1.8-3.2-2.9c-1.5-2-2.7-4.1-3.3-6.5c-0.3-0.8-0.5-1.5-0.8-2.3c-0.9-2.4-1.1-5,0.3-7.4c0.9-1.5,1.2-3.2,1.1-4.8v-1.8
		c0-2-0.5-3.8-1.4-5.6c-0.5-0.8-0.8-1.7-0.8-2.4c0.2-2,0.5-3.8,0.5-5.7c0-2.3,0-4.4-0.3-6.6c-0.3-1.7-0.9-3.3-1.5-5
		s-1.4-3.3-2.1-4.8c-1.4-2.7-3.8-4.5-5.9-6.5c-1.7-1.5-3.6-2.9-5.9-3.5c-0.6-0.2-1.4-0.5-2-0.9C88.4,0.3,87-0.2,85.5,0h-2
		c-1.8,0.2-3.6,0.2-5.4,0.5c-0.8,0.2-1.4,0.6-2.1,0.6c-2.1-0.2-3.9,0.5-5.6,1.7c-2,1.4-3.8,2.7-5.6,4.1c-1.1,0.8-2.3,1.7-3.2,2.6
		c-3.5,3.6-6.9,7.4-9.8,11.6c-0.5,0.8-0.8,1.5-0.9,2.3c-0.3,1.7-0.3,3.5-0.5,5.1c-0.2,1.2,0.2,2.3,1.1,3c0.5,0.3,0.9,0.8,1.4,1.2
		c0.2,0.2,0.3,0.3,0.3,0.5c-0.2,0.8-0.3,1.4-0.3,2.1c0.2,2.4,0.3,4.8,0.6,7.2c0.2,1.8,0.5,3.5-0.3,5.3c-0.3,0.9-0.2,1.7,0.8,2.3
		c0.8,0.5,1.5,0.9,2.1,1.4c0.6,0.6,1.5,0.9,1.8,1.7c0.9,2,1.4,4.2,0.8,6.5c-0.3,1.4-0.9,2.6-1.4,3.8c-1.2,2.7-2.4,5.6-3.6,8.3
		c-0.6,1.2-1.4,2.1-2.6,2.6c-1.1,0.5-2.3,0.9-3.5,1.4c-3,1.1-5.7,2.9-8.1,5.1c-1.5,1.4-2.7,3.2-4.2,4.5c-2,2-3.5,4.2-4.7,6.6
		c-0.9,2-1.7,4.1-2.7,6c-2.4,4.7-4.5,9.5-7.5,13.7c-0.5,0.8-0.8,1.8-1.4,2.4c-2.6,2.7-5,5.3-7.5,7.8c-3.3,3.3-6.5,6.8-8.7,11
		c-0.6,0.9-0.9,2-1.1,3c-0.2,1.5-0.2,3.2-0.2,4.7c0.2,2.6-0.2,5.1-1.1,7.5c-0.6,1.5-0.5,3,0.2,4.5c0.6,1.4,1.1,2.7,1.8,4.1
		c0.9,1.4,1.5,3,3,3.9c3,2,6.2,2.3,9.5,0.6c3.2-1.7,6.5-3.5,9.9-4.4c3.6-1.1,6-3.3,8.3-6c1.1-1.4,2.1-2.9,2.7-4.2
		c1.4-1.7,2.7-3.2,4.1-4.8c0.5-0.5,1.1-0.8,1.5-1.1c0.2-0.2,0.2-0.2,0.3-0.3c-0.2-0.2-0.3-0.3-0.3-0.3c0.5,0,0.9-0.2,1.4-0.3
		c0.2,0.6,0.3,1.4,0.5,2.1c0.5,3.5,0.9,7.1,1.2,10.7c0.3,2.7,0.2,5.6,0.8,8.4c0.5,1.7,0.8,3.5,1.1,5.3c0.2,1.2,0.3,2.4,0.5,3.6
		c0.3,3.6,0.8,7.2,1.1,10.8c0.2,2,0.2,4.1,0.3,6.2c0.5,3.6,0.8,7.2,1.2,10.8c0,0.3,0.3,0.5,0.5,0.8c0.3-0.2,0.8-0.3,0.8-0.5
		c0.3-0.9,0.8-1.8,0.8-2.7c-0.2-3.5-0.2-6.9-0.5-10.2c-0.3-3.9-0.9-7.7-1.4-11.6c-0.3-1.7-0.5-3.2-0.8-4.8c-0.2-1.5-0.3-3-0.6-4.5
		c-0.5-2.6-0.9-5.3-1.2-7.8c-0.2-1.7-0.2-3.2-0.3-4.7c-0.2-2.7-0.5-5.4-0.8-8c-0.5-2.4-0.2-5-1.1-7.4c-0.2-0.3,0-1.1,0.3-1.4
		c2-2.6,4.1-5,6-7.5c0.6-0.9,1.4-1.8,2-2.7c0.5-0.6,0.8-1.1,1.1-1.7c1.1-2.3,3.5-3.9,4.2-6.5c0.2-0.5,0.6-0.3,0.8,0
		c0.3,0.5,0.6,1.1,0.9,1.5l2.3,5c2.1,4.2,4.2,8.4,6.2,12.6c0.8,1.4,1.4,2.9,2,4.2c1.4,2.9,2.7,5.7,4.1,8.6c1.8,3.6,4.2,6.6,6.6,9.9
		c1.2,1.5,2.4,3.2,3.5,4.8c2.3,3.5,5,6.8,7.7,9.8c2.1,2.4,4.1,4.7,6,7.1c2.4,2.9,5,5.4,8.3,7.1c0.3,0.2,0.6,0.3,0.9,0.3
		c1.1,0,2.3,0,3.3-0.2c0.6-0.2,1.2-0.3,1.8-0.6c0.9-0.5,1.7-1.1,2.4-1.7c2.1-2.1,4.4-4.2,6.3-6.5c2.9-3.3,5.4-6.6,8.1-9.9
		c0.3-0.3,0.3-0.5,0.5-0.8c0.3-0.8,0.8-1.7,1.2-2.4c-0.2,3.2-0.2,6.3-0.5,9.5c-0.3,4.5-0.5,8.9,0.2,13.2c0.6,4.2,1.5,8.4,2.4,12.6
		c0.2,0.5,0.3,0.9,0.5,1.2c0.3,0.6,0.8,0.8,1.4,0.2c0.9-1.1,0.9-2.1,0.5-3.2c-0.2-0.6-0.3-1.2-0.5-1.8c-0.6-4.4-1.1-8.7-1.7-13.1
		c-0.3-2.7-0.6-5.6-0.2-8.4c0.3-1.1,0.3-2.3,0.3-3.3c0-2.1-0.2-4.1-0.2-6.2c-0.2-4.2,0.9-8,3.2-11.4c0.8-1.2,1.4-2.6,2-3.8
		c0.8-1.5,1.4-3,2.1-4.5c0.2-0.3,0.2-0.6,0.3-0.9c0.6-2,1.2-4.1,1.8-6c0.2-0.6,0.8-1.1,1.1-1.5c0.2-0.3,0.6-0.6,0.8-0.9
		c0.6-1.1,1.1-2.3,1.4-3.5c0.8-3,1.5-6,2.1-9c0.6-2.6,1.1-5.1,2.3-7.4c0.3-0.5,0.3-1.1,0.3-1.7C150.9,112.4,150.9,109.2,150.7,106.2
		z M107.5,44.9c0,2.4-0.6,4.8-2,7.1c-0.2,0.3-0.3,0.8-0.5,1.1c-0.5,1.8-1.7,1.8-3,1.1c0.2-0.2,0.2-0.3,0.3-0.3
		c2-0.3,2.7-1.8,3.3-3.6c0.6-1.8,1.1-3.5,0.9-5.3c-0.2-1.7-0.2-3.3-0.8-4.8c-0.5-0.8-0.5-1.8-0.8-2.6c-0.6-1.4-1.7-1.4-2.6-0.2
		c-0.3,0.5-0.8,1.1-0.9,1.7c-0.5,1.4-0.9,2.9-1.4,4.4c0,0.2,0.2,0.3,0.2,0.8c0.3-0.5,0.6-0.6,0.9-0.9c0.5-0.6,1.2-0.8,1.7,0
		c0.3,0.5,0.6,1.1,0.6,1.7c0,0.3-0.5,0.8-0.6,0.8c-1.2,0-1.2,0.8-1.4,1.7c-0.2,0.5-0.5,0.9-0.6,1.2h-0.3c0-0.8,0.3-1.5,0.2-2.3
		c-0.2-0.6-0.6-1.1-0.9-1.5c-0.2-0.2-0.5,0-0.5,0v0.6c0.2,0.6,0.5,1.2,0.6,1.8c0,0.5-0.2,0.8-0.3,1.2c-0.2,0.8,0,1.1,0.8,1.1
		c0.9,0,1.5-0.6,1.7-2.1c0-0.3,0.2-0.6,0.5-0.8c1.4-0.6,1.8-1.4,1.2-2.9c-0.5-1.4-0.9-1.7-2.9-1.7c0.5-1.2,0.8-2.3,1.2-3.3
		c0.2-0.6,0.6-0.9,0.9-1.4c0.5-0.5,0.9-0.3,1.1,0.3s0.3,1.1,0.5,1.7c0.8,2.6,1.2,5.3,1.1,8V48c-0.8,1.5-1.2,3.3-2.6,4.5
		c-0.5,0.3-1.1,0.5-1.5,0.6c-0.6,0.3-0.9,0-1.4-0.5c-0.2-0.3-0.6-0.3-0.8,0.3c-0.3,1.4,0.8,3.3,2.3,3.6c1.4,0.3,2.9,0.6,4.2-0.8
		c0.5,1.5,0.9,2.7,0.8,4.2c0.6,1.8,1.4,3.5,2,5.1c0.2,0.5,0.5,0.8,0.6,1.1c0.5,0.6,1.2,0.9,1.2,1.8c0,1.7,0.3,3.5-0.9,5.1
		c-0.6,0.9-1.2,2-1.8,2.9c0,0.2,0,0.5,0.2,0.8c1.5-2.6,3.9-4.8,3.2-8.6c3,2.6,5.7,4.8,8.6,7.2c0,0.2-0.2,0.3-0.3,0.5
		c-1.7,1.1-3.2,2.3-4.7,3.3c-1.2,0.9-2.6,1.5-3.8,2.3c-1.5,0.9-3,2-4.5,3c-0.6,0.6-1.2,1.2-2,1.8c-1.5,1.1-2.9,2.4-4.5,3.3
		c-2.4,1.2-4.5,2.9-6.8,4.2c-1.5,0.9-3,1.8-4.5,2.7c-0.6,0.5-1.2,0.8-1.8,1.2c-2.3,1.7-4.4,3.2-6.6,4.8c-0.2,0.2-0.3,0.2-0.8,0.5
		c0.3-0.8,0.5-1.5,0.8-2.1c0.3-0.8,0.9-1.7,1.1-2.6s0-1.8,0-2.7c0-1.7-0.2-3.3,0.5-5c0.5-1.2,0.5-2.4,0.9-3.6
		c0.5-1.4,1.1-2.7,1.8-3.8c0.8-0.9,1.8-1.5,2.7-2.1c2.1-1.7,4.5-3.2,6.6-4.8c2.3-1.7,3.3-4.2,4.4-6.8c1.4-3.2,1.5-6.6,1.1-10.1
		c-0.3-2-0.6-3.9-1.1-5.9c-0.2-1.1-0.6-2.1-1.1-3.2c-0.2-0.6-0.3-1.2,0-1.8s0.3-1.4,0.3-2.1c0-1.4,0.8-2.6,1.4-3.8
		c0.8-1.5,1.5-3,2.3-4.4c0.5-0.8,0.9-1.5,1.5-2c1.2-0.8,2.1-0.8,3,0.6C106.9,39.4,107.6,42.1,107.5,44.9z M100.8,12.1
		c-0.1,0-0.2-0.1-0.2-0.1c-0.2-0.4-0.4-0.8-0.6-1.1l-0.1-0.1c0.1,0.2,0.3,0.3,0.4,0.5C100.4,11.6,100.6,11.9,100.8,12.1z M56.5,49.7
		c-0.5-0.3-0.9-0.5-0.6-1.1c1.1-2.6,0.8-5.1,0.2-7.7c-0.6-2.3-0.6-4.7-0.3-6.9c1.5-0.2,3.2-0.5,4.7-0.6c2.6-0.3,5-1.2,7.2-2.3
		c1.8-0.9,3.8-1.7,5.9-1.4c0.9,0.2,2,0.5,2.9,0.6c1.5,0.2,2.7,0.9,3.9,1.7c0.6,0.5,1.5,0.8,2.3,1.1c1.2,0.5,2,1.4,2,2.6v3.2
		c0.2,0.8,0.3,1.7,1.1,2.1c0.6,0.3,1.1,0.8,1.7,0.9c2,0.8,3.5,2,4.5,3.8c0.8,1.2,1.8,2.1,2.7,3.2c0.2,0.2,0.5,0.3,0.6,0.3
		c2,0.6,2.3,2.3,2.6,3.8c0.3,1.5,0.8,3,1.1,4.5c0.2,0.8,0.3,1.7,0.3,2.4c0.2,3,0,6-1.4,8.9c-1.1,2.4-2,5-4.2,6.6
		c-1.4,0.9-2.9,2-4.2,2.9c-1.4,0.9-2.7,1.8-4.1,2.7c-0.3,0.3-0.6,0.3-0.9,0.3c-0.8,0.2-1.4,0.2-2.1,0.3c-0.2-0.2-0.2-0.3-0.2-0.5
		c0.2-2,0.2-3.8,0.2-5.7c0-0.5,0-0.8-0.2-1.2c-0.3-0.9,0.2-1.5,0.9-2c0.3-0.3,0.8-0.5,1.1-0.8c0.5-0.3,0.5-0.9,0-1.2
		c-3.6-3-7.1-6.3-10.2-9.8c-1.7-1.7-3.3-2.6-5.4-3.3c-1.4-0.6-2.9-1.1-4.4-1.5c0.2-1.7-0.9-2.6-2-3.2c-0.6-0.3-1.1-0.9-1.7-1.2
		C59.1,50.6,57.8,50.2,56.5,49.7z M60.6,55.3c0.2,0,0.2,0.2,0.2,0.2c0.8-0.3,1.5-0.5,2.4-0.8c0,0.3,0,0.8,0.2,1.2
		c-1.4,0.5-0.9,1.7-1.1,2.6c-1.2,0-1.4,0-1.7-1.1C60.5,56.6,60,55.9,60.6,55.3z M60,52.9c0.2-0.5,0.5-0.5,0.9-0.2
		c0.5,0.5,1.1,0.6,1.7,0.9c-0.8,0.6-1.5,0.6-2.3,0.3C60.2,53.8,59.9,53.2,60,52.9z M64.2,56.5c1.8,0.2,3.2,0.9,4.7,1.5
		s2.9,1.7,4.1,2.9c2.3,2.3,4.7,4.4,6.9,6.6c1.2,1.1,2.3,2.3,3.5,3.3c-0.6,0.5-1.4,1.1-2.1,1.5c-1.2-1.7-2.3-3.5-3.5-5.1
		c-0.6-1.1-1.4-2.1-2.3-3c-0.8-1.1-2-1.1-3.2-0.9c-0.2-0.9-0.3-1.8-0.8-2.4c-0.5-0.8-1.4-1.4-2.1-2c-0.2-0.2-0.5-0.2-0.6-0.2
		c-1.4-0.3-1.7-0.2-2.3,1.1c-0.9-1.5-2.3-1.1-3.8-0.6c0-0.5,0-0.8-0.3-1.1C62.6,56.5,62.6,56.5,64.2,56.5z M58.7,63.7
		c0.6-1.5,1.2-2.9,1.8-4.2c0.3-0.6,0.9-0.6,1.4-0.5c0.3,0.2,0.3,0.8,0.3,1.1c-0.2,1.7-0.2,3.3-0.3,5c-0.6,0-1.2-0.2-2-0.2v0.2
		c-0.2-0.2-0.5-0.6-0.9-0.6C58.5,64.3,58.5,64.1,58.7,63.7z M27.4,103.8c1.1-0.2,0.8-1.1,1.1-1.5c0.5-0.8,0.8-1.7,1.1-2.4
		c0.3-0.5,0.5-0.9,0.6-1.4c0.8-2,1.7-3.9,2.6-5.7c0.8-1.4,1.5-2.7,2.4-4.1c0.6-0.8,1.2-1.4,1.8-2c1.1-1.1,2.1-2.3,3.2-3.3
		c1.1-1.1,2.1-2.1,3.2-3c0.8-0.6,1.7-1.2,2.6-1.8c1.5-1.2,3.2-2,5-2.7c0.3-0.2,0.6-0.5,0.9-0.8l0.2,0.2c-1.1,2.9-2.1,5.9-3.3,9.3
		c-0.8,1.8-1.1,3.8-0.9,5.9c0.2,2.4,0,4.8,0,7.2c0,1.7-0.3,3.5-0.3,5.3c-0.2,2.6-1.4,4.5-3,6.5c-0.6,0.8-1.2,1.4-1.8,2.1
		c-0.2,0.2-0.5,0.3-0.6,0.3c-0.2,0-0.5-0.3-0.5-0.5c-0.2-0.5-0.2-1.1,0-1.5c0.3-1.7,0.2-3.3-0.2-5c-0.2-0.9-0.2-2-0.2-2.9
		s0.2-1.7,0.2-2.4c0-0.3,0-0.8,0.2-1.1c0.2-0.3,0.2-0.6-0.3-0.8c-0.5,0-0.8,0.2-0.8,0.6c-0.2,2.3-0.6,4.4-0.2,6.6
		c0.3,1.7,0.2,3.5,0.2,5.3c0,0.8-0.5,0.9-1.1,0.6c-1.2-0.8-2.4-1.5-3.8-2.1c-1.1-0.6-2.3-0.8-3.5-1.2c-1.8-0.8-3.8-1.4-5.7-2.1
		C26.8,104.8,27,103.8,27.4,103.8z M26.5,107.5c1.4,0,2.7,0.3,4.1,0.9c1.7,0.8,3.5,1.2,5.1,2c1.1,0.5,2.1,1.5,3.2,2.3
		c0,0,0,0.3,0,0.5c-0.2,0.6-1.4,1.2-2,0.9c-0.8-0.5-1.4-0.9-2.1-1.2c-1.4-0.6-2.7-1.4-4.1-1.8c-1.5-0.5-3-0.9-4.5-1.4
		c-0.5-0.2-0.9-0.2-1.4-0.3C24.9,108.2,25.5,107.5,26.5,107.5z M58.7,113.7c-1.2,4.5-4.8,7.7-7.4,11.4c-1.8,2.7-3.8,5.3-5.7,7.8
		c-1.5,2.1-3,4.1-4.7,6c-2.3,2.9-4.7,5.6-7.1,8.4c-1.2,1.4-2.4,2.9-3.6,4.4c-1.4,1.5-3,2.4-4.8,3c-2.6,1.1-5.3,2.1-7.8,3.3
		c-1.4,0.6-2.7,1.5-4.1,2.1c-0.3,0.2-0.6,0.2-0.9,0.2c-1.4,0-2.9,0-4.2-0.6c-0.9-0.3-1.7-0.9-2.1-1.7c-1.1-1.7-1.8-3.5-2.9-5.1
		c-1.2-2.1-1.1-4.1-0.3-6.2c0.6-1.7,0.8-3.5,0.8-5.3c0-2.3-0.3-4.4,0.3-6.6c0.2-0.6,0.5-1.2,0.8-1.7c0.8-1.2,1.5-2.4,2.3-3.5
		c0.9-1.2,1.8-2.3,2.7-3.3c2.3-2.3,4.7-4.4,6.8-6.6c1.7-1.8,3.6-3.5,4.8-5.7c0.5-1.1,1.2-1.8,2-2.7c0.3-0.5,1.1-0.6,1.7-0.5
		c2.1,0.6,4.4,1.4,6.5,2.1c1.5,0.6,2.7,1.4,4.2,2.1c-0.8,0.6-1.5,1.1-2.3,1.5c-3.2,2-6.3,3.9-9.5,5.7c-2,1.2-4.2,2-6.5,2.6
		c-1.5,0.5-2.9,1.1-4.4,1.1c-0.3,0-0.6,0.6-0.6,0.8c0,0.3,0.3,0.8,0.6,0.8c0.8,0,1.8,0,2.6-0.2c2.7-0.8,5.6-1.4,8-2.7
		c1.2-0.8,2.4-1.5,3.6-2.3c1.4-0.8,2.7-1.7,4.1-2.4c2-1.2,3.9-2.3,5.9-3.5c0.9-0.6,1.8-1.2,2.6-2c1.8-1.8,3.8-3.5,5.4-5.4
		c1.7-1.8,2.6-4.2,2.7-6.8c0.2-3,0.3-5.9,0.5-8.9c0-1.7-0.2-3.2-0.3-4.8c-0.3-1.7,0.5-3.2,1.1-4.7c0.8-1.5,1.2-3,1.8-4.5
		c0.5-1.4,1.1-2.7,1.5-3.9c0.2-0.3,0.6-0.6,0.9-1.1c0,0.5,0,0.5,0,0.6c-0.6,2.4-1.2,4.8-2,7.2c-0.5,1.4-1.4,2.7-2,4.2
		c-0.3,0.6-0.8,1.2-0.3,1.8c0.3-0.3,0.8-0.6,1.1-0.9c0,0,0.2-0.2,0.2-0.3c0.5-1.8,1.2-3.5,1.7-5.3c0.8-2.9,1.5-5.9,2.3-8.7
		c0.3-1.1,0.9-2,1.4-2.9c0.8-1.7,1.5-3.3,2.3-5c0,0,0-0.3,0.2-0.3c0.2-0.2,0.5-0.2,0.8-0.3c0,0.3,0.2,0.6,0,0.9
		c-0.5,0.9-1.2,1.8-1.4,2.9c-0.3,1.7-0.2,3.5-0.3,5.1c0,1.7-0.2,3.3-0.3,5c0,1.1-0.5,2.1-0.8,3.2c-0.2,0.8-0.2,1.5-0.3,2.3
		c-0.5,0.2-1.1,0.2-1.7,0.3v0.5c0.6,0,1.1,0.2,1.4,0.5v5.6c-0.2,3-0.5,5.9-0.6,8.9c-0.2,0.9,0.2,2.1,0.5,3c0.5,1.4,0.6,2.7,0.8,4.2
		c0.2,2.1,1.2,4.1,2.4,5.9C58.8,113.1,58.8,113.3,58.7,113.7z M56.4,87.3c0.2-2,0.3-3.9,0.3-5.9C57.9,82.9,57.8,85.3,56.4,87.3z
		 M61.4,115.7c-0.8-1.4-1.7-2.7-2.4-4.1c-0.9-1.7-1.5-3.3-1.7-5.1c-0.2-1.4-0.6-2.7-1.1-4.1c-0.8-2.4-0.5-5-0.2-7.4
		c0.2-1.8,0.5-3.6,0.9-5.4c0.2-0.9,0.5-1.8,0.9-2.7c0.8-1.5,0.6-3,0.3-4.7s-0.3-3.5-0.3-5.1c0-1.2,0.2-2.6,0.2-3.8
		c0.2-1.8,0.2-3.6,0.5-5.3c0.3-0.8,1.1-1.7,1.8-2.3s2-0.2,2,1.1c0,2.3,0,4.4,0.2,6.5c0.2,1.4,0.3,2.9,0.5,4.2c0.2,0.6,0,0.8-0.5,0.9
		c-0.6,0-1.1,0.2-1.7,0.3c-0.2,0-0.5,0.2-0.6,0.3c0,0,0.2,0.2,0.2,0.3c0.6,0,1.4-0.2,2-0.3c0.6-0.3,0.9,0,0.9,0.5
		c0.2,2.4,0.6,4.8,0,7.2v1.2c0.3-0.3,0.6-0.5,0.6-0.6c0.2-1.1,0.3-2.3,0.5-3.5c0.3-3-0.3-6-0.9-9c-0.3-1.5,0-3-0.2-4.5
		c-0.2-2-0.3-3.9-0.5-5.9c-0.2-1.4,0-2.7,0.2-4.1c0-0.3,0.6-0.8,1.1-0.9c1.5-0.6,2.9,0.5,2.7,2c0,0.5,0,0.9,0.2,1.4
		c0.5,1.2,0.5,2.4,0.5,3.6c-0.2,1.8,0,3.6,0.6,5.4c0.2,0.6,0.3,1.1,0.3,1.7c0.2,1.2,0,1.2-1.1,1.2h-1.8c0,0,0,0-0.2,0.2
		c0.9,0.6,1.8,0.5,2.6,0.9c0.6,0,0.9,0.2,0.9,0.6c0.3,1.4,0.3,2.7,0.6,4.1c0.3,1.2,0.6,2.4,0.9,3.6c0.2,0.6,0.2,1.2,0.3,1.8
		c0,0.3,0,0.6,0.2,0.9c0,0.2,0.3,0.3,0.5,0.3s0.2-0.3,0.3-0.5c0-0.2,0-0.2,0-0.3c0-1.2,0-2.3-0.2-3.5c-0.3-3.2-0.5-6.2-1.1-9.3
		c-0.5-2.3-1.4-4.5-2-6.8c-0.5-1.8-0.8-3.5-0.9-5.3c0-0.5,0.3-1.4,0.6-1.4c0.6-0.2,1.4,0,2,0.3c0.9,0.6,1.5,1.5,1.8,2.6
		c1.1,2.9,2.3,5.9,3.3,8.7c0.3,0.6,0.3,1.4,0.5,2c-0.9-0.2-2-0.2-3-0.3v0.5c1.1,0.2,2.1,0.3,3.3,0.6c0,0.6,0.2,1.2,0.2,1.8
		c0,2.1-0.2,4.4,0,6.5c0.2,1.5,0.8,2.9,1.1,4.4c0,0.2,0.3,0.2,0.5,0.3c0-0.2,0.2-0.2,0.2-0.2c-0.2-0.8-0.3-1.5-0.5-2.3
		c0-0.3-0.2-0.8-0.2-1.1c0-2.9,0-5.6-0.3-8.3c-0.3-3-1.1-5.9-2.3-8.6c-0.5-1.1-0.8-2-1.2-3c1.2-0.2,2,0.3,2.4,0.9
		c1.4,1.7,2.7,3.3,3.8,5.1c0.9,1.5,1.5,3.2,2.3,4.7c0.2,0.2,0.2,0.3,0.2,0.5c-0.9-0.2-1.8-0.5-2.6-0.6c0,0.2-0.2,0.2-0.2,0.3
		c0,0.2,0.2,0.3,0.3,0.3c0.5,0,0.9,0.2,1.2,0.3c0.8,0.3,1.2,0.8,1.2,1.7c-0.2,1.7-0.2,3.5-0.3,5.1v0.9c0.6-0.3,1.2-0.6,1.8-0.9
		c0.3-0.2,0.8-0.2,0.8,0c0.2,0.3,0.3,0.6,0.2,0.9c-0.3,0.6-0.6,1.1-0.9,1.7c-0.8,1.4-1.4,2.7-1.4,4.4c-0.2,0.5-0.5,1.1-0.6,1.7
		c-0.2,1.1-0.3,2.3-0.2,3.3c0.3,2.4-0.5,4.7-1.4,6.8c-0.5,1.1-0.9,2-1.2,3c-0.3,1.4-0.5,2.7-0.8,4.1c-0.2,0.9,0,2-0.9,2.7
		c-1.2-1.2-2.7-1.5-4.4-1.4s-3.3,0.2-4.7,1.4c-0.5,0.5-0.6,0.9-1.1,1.4c-1.4,1.7-2.9,3.3-4.5,5C61.8,116.4,61.5,116,61.4,115.7z
		 M67.7,67.6c2.1,4.2,2.3,8.6,2.7,12.9c-0.2,0-0.2,0-0.3,0C69.2,76.2,68.4,71.9,67.7,67.6z M75.8,121.2v0.2c-0.3,0-0.6,0.3-0.9,0.3
		c-1.4-0.2-2.6-0.5-3.9-0.6c-2.4-0.2-2.7-2.3-3.5-3.9c-0.8-1.5-0.6-3.2-0.2-4.8s1.5-2,2.7-2.3c1.4-0.2,2.9-0.3,4.2-0.3
		c0.3,0,0.5,0.2,0.8,0.3c1.5,0.9,2.9,1.8,3.6,3.5c1.2,2.3,0.5,5.7-2.1,7.1c-0.5,0.3-0.8,0.5-1.2,0.8
		C75.5,121.4,75.6,121.4,75.8,121.2z M64.5,115.8c0-0.3,0-0.6,0.2-0.8c0.6-0.6,1.2-1.2,1.8-2c0.2,1.7,0.3,3,0.6,4.2
		c0.3,1.2,0.9,2.4,1.5,3.8h-1.8c-0.2,0-0.5-0.3-0.5-0.5C65.7,119,65.1,117.5,64.5,115.8z M65.9,121.8c-1.2-1.5-2-3.2-2.3-5
		c-0.2-0.3,0.2-0.6,0.5-0.8c0.2,0.6,0.3,1.4,0.5,2.1c0.2-0.2,0.3-0.2,0.5-0.5c0,0.8,0,1.2,0.2,1.7c0,0.3,0.3,0.6,0.5,0.9
		C65.9,120.8,66,121.1,65.9,121.8z M64.4,122.3c-0.5-0.8-0.6-1.8-1.1-2.6c-0.3-0.8-0.6-1.4-0.8-2.1c-0.2-0.2,0-0.5,0-0.6
		c0.2,0,0.2,0,0.3,0c0,0.3,0.2,0.6,0.3,0.9c0.2,0.5,0.3,1.1,0.6,1.7c0,0.2,0.3,0.2,0.3,0.3c-0.2,0.9,0.5,1.5,0.9,2.1
		c0.2,0.2,0,0.5,0,0.6C64.8,122.4,64.4,122.4,64.4,122.3z M139.9,143.2c-0.6,1.1-1.2,2.3-1.7,3.5c-0.8,1.7-1.4,3.3-2.1,5
		c-1.1,2.4-2.4,4.8-3.6,7.2c0,0.3-0.2,0.5-0.3,0.8c-1.2,3.5-3.5,6.5-5.4,9.5c-0.6,0.8-1.5,1.4-2.1,2.1c-2,2.3-3.8,4.5-5.7,6.6
		c-2,2.1-3.9,4.1-6,6c-0.8,0.6-1.8,1.2-2.7,1.1c-1.7-0.2-3-0.3-4.5-0.8c-0.3-0.3-0.6-0.8-1.2-0.3c-0.2,0.2-0.3,0-0.5-0.2
		c-2-2-4.1-3.8-5.9-5.7c-2.4-2.6-4.7-5.3-6.9-7.8c-0.5-0.5-0.8-1.1-1.1-1.5c-0.8-1.1-1.4-2.3-2.3-3.2c-1.4-1.5-2.6-3.2-3.5-5
		c-0.8-1.5-1.8-2.9-2.9-4.1c-2.3-2.7-4.5-5.1-6-8.3c-0.2-0.2-0.3-0.3-0.3-0.6c-0.8-3.2-2.7-5.9-3.9-8.9c-1.5-3.6-3.5-7.1-5.1-10.7
		c-0.5-1.2-0.9-2.4-1.5-3.6c-0.3-0.6-0.3-0.9,0.3-1.2l0.2-0.2c1.1-1.4,2.4-1.2,3.9-0.8c1.4,0.3,2.7,1.1,4.2,1.1
		c1.4,0,2.6-0.2,3.6-0.9c1.1-0.6,2.1-1.5,2.6-2.9c0.3-0.8,1.4-0.8,1.8-0.2c0.9,1.2,1.8,2.6,2.9,3.8c1.1,1.2,2.1,2.1,3.2,3.3
		c0.6,0.8,1.1,1.7,1.5,2.4c1.8,2.7,3.3,5.6,6.3,7.4c1.5,0.9,2.7,2.1,4.2,3c0.8,0.5,1.7,0.8,2.4,1.2c0.9,0.5,1.7,1.1,2.6,1.5
		c0.5,0.3,1.1,0.5,1.4,0.8c1.2,1.1,2.4,2.1,3.3,3.3c1.1,1.4,2,3.2,3,4.7c0,0.2,0,0.3,0.2,0.3c0.5,0.2,0.9,0.6,1.2,0.5
		c0.5-0.3,0.2-0.9-0.2-1.2c-1.4-2-2.4-4.1-3.9-5.9c-1.1-1.2-2.3-2.3-3.6-3.2c-1.2-1.1-1.5-1.7-0.6-3c0.8-1.1,0.9-2.3,1.4-3.5
		c0.3-0.9,0.9-1.8,1.4-2.7c0,0,0.2-0.2,0.3-0.2c2-0.5,3.8-0.6,5.7-0.2c1.2,0.3,2.6,0.3,3.8,0.5c2.4,0.3,4.8,0.6,7.2,1.2
		c1.5,0.5,3,1.1,4.2,2.1c0.3,0.2,0.8,0.2,1.1,0.3c0.3,0,0.8,0.2,1.1,0.3c2.9,2,5.6,3.9,8.4,5.9C140.1,142.3,140.2,142.6,139.9,143.2
		z M142.5,138.3c-0.6,1.7-0.6,1.8-2.3,0.9c-2-1.2-3.8-2.4-5.6-3.6c-1.5-1.1-3-2.6-4.7-3.3c-1.8-0.8-3.8-1.2-5.6-1.5
		c-2.6-0.6-5.1-0.9-7.8-1.2c-1.4-0.2-2.7-0.2-4.1-0.2h-3.2c0.3-0.9,0.3-1.7,0.6-2.4c0.2-0.6,0.5-0.6,1.1-0.6c1.4,0,2.9-0.2,4.2-0.2
		c1.1,0,2.3,0.2,3.3,0.3c2.6,0.5,5.3,1.2,7.8,1.8c0.9,0.2,1.7,0.6,2.6,0.9c0.2,0.2,0.3,0.2,0.5,0.2c0.9-0.5,1.7,0,2.3,0.3
		c2.3,1.2,4.5,2.6,6.8,3.9c1.4,0.9,2.6,2.1,3.8,3.2C142.6,137.3,142.6,137.7,142.5,138.3z M149.1,114.3c-0.2,1.4-0.5,2.7-0.8,4.1
		c-0.8,3.5-1.5,6.9-2.4,10.2c-0.6,1.8-1.4,3.5-2.1,5.3c-0.2,0.5-0.6,0.5-0.9,0.2c-3.9-3.6-8.7-5.3-13.5-7.1
		c-1.8-0.8-3.9-0.8-5.9-1.4c-2.4-0.6-5-1.2-7.5-1.4c-0.9,0-2,0-2.9,0.2c-1.2,0.2-1.5-0.5-1.1-1.7c0.9-2.6,2-5,3-7.5l0.9-2.3
		c0.5-0.9,1.2-1.2,2.1-1.4c0.6-0.2,1.4-0.5,1.8-0.9c0.8-0.6,1.5-1.4,2.1-2.1c0.3-0.3,0.3-0.8-0.3-1.1c-0.9,2.1-3.3,1.8-4.7,3.2
		c-0.2,0-0.2-0.2-0.3-0.2c0-0.5-0.2-0.9-0.2-1.4c1.4-2.7,2-5.7,2.9-8.6c0.8-2.9,2.4-5.4,4.1-8c0.5-0.6,1.1-0.9,1.5-1.5
		c0.3-0.3,0.5-0.9,0.6-1.4c0.2-0.5-0.3-0.6-0.6-0.3c-0.5,0.3-1.1,0.8-1.4,1.4c-1.5,2.6-2.9,5-4.2,7.5c-1.7,3.5-2.9,7.2-3.9,11
		c-0.6,2.7-1.5,5.3-2.6,7.8c-1.2,3-2.7,5.9-3.9,8.9c-0.9,2.4-1.7,5-2.7,7.4c-0.8,1.8-1.5,3.5-2.4,5.1c-0.5,0.9-1.1,1.1-1.8,0.5
		c-2.3-1.5-4.5-2.9-6.6-4.5c-1.5-1.2-2.9-2.7-3.5-4.5l-0.2-0.2c-1.8-2.3-3.3-5-5.7-6.9c-1.1-0.8-1.8-1.8-2.4-2.9
		c-1.7-2.6-3.3-5.1-4.8-7.8c-1.2-2.1-0.9-4.4-0.3-6.5c0.2-0.9,1.2-1.7,2-2.3c2.4-1.8,4.8-3.5,7.4-5.1c2.1-1.4,4.4-2.6,6.6-3.8
		c0.5-0.3,1.1-0.8,1.5-1.1c3.6-2.4,7.1-5.3,10.4-8.1c1.5-1.4,3.3-2.3,5-3.3c1.8-1.1,3.6-2.3,5.4-3.5c1.5-0.9,3-1.7,4.5-2.6
		c0.2-0.2,0.5-0.2,0.6-0.2c2.3-0.3,4.4,0.5,6.5,0.9c0.6,0.2,1.4,0.8,2,1.2c1.2,0.9,2.4,1.8,3.5,2.9c1.4,1.4,2.9,2.9,4.4,4.1
		c2,1.7,3,3.9,4.2,6.2c0.3,0.6,0.8,1.2,1.1,1.8c1.4,2.4,2.7,4.7,3.8,7.2c1.2,2.6,1.8,5.3,1.8,8C149.1,110.3,149.2,112.2,149.1,114.3
		z"/>
	<path class="st0" d="M70.2,51.2c0.9-0.3,1.8-0.6,2.7-0.9c0.6-0.2,1.1-0.3,1.7-0.5s1.2-0.3,1.8-0.5c1.5-0.5,3-0.8,4.5-1.2
		c0.5-0.2,0.9,0.5,0.8,1.1c-0.2,0.5-0.5,0.8-1.1,0.9c-0.6,0-1.2,0.3-1.8,0.6c-2,0.8-3.9,1.2-5.9,1.4c-1.5,0.2-3,0.8-4.5,1.1
		c-0.3,0-0.6,0-0.9,0c0-0.3,0-0.9,0.2-1.1c0.8-0.5,1.7-0.8,2.6-1.1C70.2,51.1,70.2,51.1,70.2,51.2z"/>
	<path class="st0" d="M78.6,55.1c-0.3,0-0.6,0-0.8,0.2c-0.3,0.2-0.6,0.6-0.9,0.6c-1.2,0-2.3,0-3.5-0.2s-2-1.2-1.8-2.4
		c1.2,1.2,2.6,1.5,4.2,1.4c1.5-0.2,2.9-0.6,4.2-1.7c-1.4-0.2-2.3,0.3-3.3,0.5c-1.1,0.2-2.1,0-3.2-0.2c2.6-0.5,5.3-1.1,7.8-1.5
		c0.2,0.6,0,1.2-0.8,1.8c-0.6,0.3-1.1,0.9-1.4,1.2C79.2,54.8,78.9,55,78.6,55.1z"/>
	<path class="st0" d="M71.7,120.5c-1.7,0.6-2.6-0.9-3-2.3c-1.4-3-1.1-5.1,1.7-7.4c0.5-0.3,1.2-0.5,1.8-0.5c2.4-0.3,3.9,0.8,5.3,2.7
		c1.5,2.1,1.1,4.4-0.6,5.9C75.2,120.3,74.6,120.5,71.7,120.5z M73.2,119.7c1.4,0.2,2.6-0.3,3.3-1.7c0,0,0-0.2,0.2-0.2
		c1.1-1.2,1.2-2.9,0.3-4.1c-0.5-0.5-0.8-1.1-1.2-1.5c-1.4-1.4-2.9-1.2-4.4-1.1c-1.1,0.2-2.7,2.1-2.9,3.2c0,1.2,0,2.4,0.9,3.5
		C70.4,119.1,71.6,119.9,73.2,119.7z"/>
	<path class="st0" d="M74.3,113.4c-0.2,0.2-0.3,0.3-0.3,0.6c-0.6,1.1-0.8,2,0.5,2.7c0.5,0.3,0.6,0.8,0.9,1.2c0,0.2,0,0.3-0.2,0.6
		c-0.2,0-0.5,0-0.5-0.2c-0.5-0.5-0.9-1.1-1.4-1.5c-0.2-0.2-0.5-0.2-0.6-0.3c-0.3-0.2-0.6-0.5-0.8-0.6c0-0.3,0.2-0.9,0.3-1.1
		c0.6-0.3,0.6-0.8,0.9-1.2c0.2-0.3,0.5-0.5,0.6-0.6c0.2,0,0.3,0.2,0.6,0.2C74.4,113.1,74.3,113.3,74.3,113.4z"/>
</g>
</svg>
