<?xml version="1.0" encoding="utf-8"?>
<!-- Generator: Adobe Illustrator 19.2.1, SVG Export Plug-In . SVG Version: 6.00 Build 0)  -->
<svg version="1.1" id="Layer_1" xmlns="http://www.w3.org/2000/svg" xmlns:xlink="http://www.w3.org/1999/xlink" x="0px" y="0px"
	 viewBox="0 0 127.9 200" style="enable-background:new 0 0 127.9 200;" xml:space="preserve">
<style type="text/css">
	.st0{fill:#388E3C;}
</style>
<g id="back-main">
	<path class="st0" d="M31.2,200c0.8-2.3,1.6-4.6,2.6-6.9c1.2-2.9,1.8-5.9,2.4-9c0.6-2.8,1.1-5.7,2.4-8.3c0.4-0.8,0.6-1.8,0.6-2.8
		c-0.1-3.2,0.5-6.4,0.7-9.6c0.2-3.2-0.5-6-2.8-8.3c-1.8-1.9-3.6-3.8-5.6-5.5c-2.8-2.3-5.7-4.4-8.6-6.5c-3.4-2.5-7-4.8-10.4-7.3
		c-1.3-1-2.4-2.2-3.7-3.3c-0.5-0.5-1.1-1-1.7-1.3c-2.5-1.4-4.6-3.1-6.4-5.3c-0.2-0.2-0.4-0.4-0.7-0.6c0-0.6,0-1.2,0-1.8
		c0.7,0.7,1.4,1.5,2.2,2.1c1.3,1.2,2.6,2.5,4.1,3.5c2.2,1.4,4,3.1,5.9,4.8c1.8,1.6,3.8,3,5.9,4.3c1.9,1.2,3.6,2.5,5.4,3.9
		c2.8,2.1,5.8,4.1,8.4,6.3c2.8,2.4,5.7,4.9,7.7,8.1c0.9,1.3,1.4,2.8,1.4,4.4c0,1.4-0.1,2.8,0,4.2c0.2,1.5,0.6,3,1,4.4
		c0.5,2,0.9,4,1.4,6.1c0.3,0.3,1.1-0.7,1.3,0.2c0,0.3-0.6,0.7-1,1.1c0.6,1.5,1.2,3.1,1.8,4.7c0.1,0.2,0.5,0.4,0.8,0.5
		c0.9,0.4,1.7,0.7,2.5,1c-0.3-1.6-1.1-3.2-2.1-4.7c-1.3-1.9-2.2-3.9-2.9-6.1c-0.1-0.4-0.3-0.7-0.4-1.1c0-0.2,0.1-0.5,0.1-0.8
		c0.2,0.1,0.5,0.2,0.7,0.3c0.2,0.2,0.3,0.6,0.4,0.9c0.5,1.3,1,2.7,1.5,4.1c0.4-0.3,0.7-0.5,0.9-0.6c0.2-0.1,0.5,0,0.7,0
		c0,0.2,0,0.6-0.1,0.7c-0.2,0.3-0.6,0.4-0.8,0.6c1.2,2.3,2.3,4.5,3.5,6.8c1.3-0.7,2.5-0.6,3.6,0.2c0-0.1,0.1-0.2,0.1-0.2
		c-1.3-2.2-2.2-4.6-3.7-6.7c-1.8-2.5-3.1-5.3-4.6-8c-0.1-0.2,0-0.7,0.1-1c0.3,0.2,0.6,0.3,0.8,0.6c0.7,1.3,1.4,2.7,2.1,4.1
		c0.4-0.2,0.6-0.4,0.9-0.5c0.2-0.1,0.5,0,0.8,0c-0.1,0.3,0,0.6-0.2,0.8c-0.2,0.2-0.5,0.4-0.9,0.6c1.3,2,2.5,3.9,3.7,5.7
		c1-0.1,1.8-0.2,2.9-0.4c-0.1,0.2,0,0.1,0,0.1c-1.7-3.5-3.4-7-5.5-10.3c-0.8-1.2-1.5-2.4-2.2-3.6c-0.1-0.1-0.2-0.3-0.2-0.5
		c0-0.3,0.1-0.5,0.2-0.8c0.2,0.2,0.5,0.3,0.7,0.5c0.6,1,1.1,2.1,1.6,3c0.6,0,1.1,0,1.6,0c-0.2,0.4-0.4,0.8-0.6,1.2
		c0.4,0.8,0.9,1.7,1.5,2.5c0.1,0.2,0.5,0.3,0.8,0.2c0.5-0.1,0.9-0.2,1.4-0.4c0,0,0-0.1-0.1-0.2c-1-2.3-2-4.7-3-7
		c-1.6-3.7-3.2-7.3-4.8-11c-0.8-1.7-1.6-3.5-2.4-5.2c-0.4-1-1.1-1.7-2.1-2.1c-2.8-1.3-5.3-3-7.5-5.1c-1.7-1.6-3.7-3.1-5.5-4.7
		c-0.9-0.8-1.7-1.8-2.6-2.6c-1.7-1.6-3.4-3-5-4.6c-2-2-4-4.1-5.9-6.3c-1.8-2.1-3.6-4.3-5.3-6.5c-0.9-1.2-1.6-2.6-2.4-3.8
		c-0.2-0.3-0.6-0.6-0.9-0.7c-0.8-0.3-1.7-0.5-2.6-0.8c-0.7-0.3-1.5-0.6-2.2-0.8c-0.5-0.2-0.7-0.5-0.5-0.9c0.1-0.2,0.7-0.4,0.9-0.3
		c1.4,0.4,2.8,1,4.2,1.4c0.4,0.1,0.9,0.2,1.1,0c1.6-1.3,3.6-1.9,5.4-2.8c1.4-0.7,2.6-1.6,3.9-2.4c1.6-0.9,3.2-1.7,4.9-2.6
		c2.7-1.4,5.3-2.9,8.1-4.3c1.2-0.6,2.5-1,3.9-1.5c-0.2-0.4-0.4-0.9-0.6-1.3c-0.4-1.1-0.9-2.2-1.1-3.3c-0.3-1.3-0.5-2.7-0.5-4.1
		c0-2.6-0.3-5.1-0.9-7.7c-0.1-0.3,0.1-0.8,0.3-0.9c0.5-0.3,0.8,0.2,0.9,0.6c0.3,1.6,0.7,3.1,0.8,4.7c0.2,2,0.1,4.1,0.4,6.1
		c0.4,2.3,1.3,4.5,2.6,6.5c0.3-1.2,0.7-2.3,1-3.4c0-0.1,0-0.3-0.1-0.4c-1.1-2-1.3-4.1-1.6-6.3c-0.6-4.8,0-9.3,1.9-13.7
		c0.7-1.6,1.5-3.2,2.2-5c-1.3,0.7-2.6,1.3-3.8,2c-1.3,0.9-2.6,1.8-3.7,2.8c-1.9,1.7-4.3,2.7-6.4,4.2c-1.5,1.1-2.9,2.4-4.5,3.5
		c-1.4,0.9-3.1,1.5-4.4,2.5c-3.3,2.5-7.1,4-10.6,6c-0.9,0.5-1.8,0.8-2.7,1.3c-0.7,0.4-1.2,0.9-1.9,1.3c-0.8,0.5-1.7,0.9-2.5,1.3
		c0-0.4,0-0.9,0-1.3c0.5-0.3,1.1-0.5,1.6-0.8c0.7-0.5,1.3-1.1,2.1-1.5c2.6-1.3,5.2-2.5,7.8-3.9c2.1-1.1,4-2.5,6.1-3.7
		c1.2-0.7,2.5-1.2,3.6-2c2.1-1.4,4-3,6-4.5c1.2-0.8,2.5-1.4,3.7-2.3c1.8-1.3,3.4-2.7,5.1-4c1.4-1,3-1.7,4.5-2.6
		c0.6-0.4,1.3-0.9,1.7-1.5c1.3-2.3,2.5-4.7,3.7-7.1c1.1-2.3,2.2-4.6,3.3-7c0.6-1.4,1.1-3,1.8-4.4c0.8-1.6,1.6-3.2,2.5-4.8
		c1.4-2.5,2.7-5,4.2-7.3c1.8-2.7,4.2-4.9,7.3-6.1c1.6-0.6,3-1.5,4.6-2.2c0.2-0.1,0.4-0.2,0.5-0.4c0.4-0.6,0.7-1.2,1.2-1.8
		c0.8-0.9,1.6-1.8,2.5-2.6c0.4-0.3,0.9-0.5,1.4-0.6c0.5,0,1,0.2,1.5,0.3c0.1-0.3,0.1-0.6,0.3-0.9c0.5-1.2,1-2.5,1.5-3.7
		c0.5-1.5,0.9-3,2-4.2c1.1-1.3,1.7-3.2,3.4-4c0.2-0.1,0.3-0.3,0.4-0.5c0.4-0.3,0.8-0.7,1.2-1c1.4-1.1,2.8-2.2,4.2-3.3
		c0.9-0.7,1.9-1.2,2.8-1.8c0.9-0.6,2-0.3,2.9-0.6C96.5,0,97.8,0,99.1,0c2,0,4,0.2,6,0.4c1.8,0.2,3.6,0.5,5.2,1.4
		c3.4,1.8,6.7,3.8,9,7.1c0.7,1.1,1.8,1.9,2.6,2.9c1.3,1.7,2.4,3.5,3.7,5.2c1.3,1.7,1.7,3.7,2.2,5.7c0.3,1.1,0.1,2.4,0,3.5
		c-0.1,1.5-0.1,2.9-0.3,4.4c-0.4,2.8-1.3,5.5-3,7.8c-1.9,2.6-1.9,5.4-1.6,8.4c0.1,1.2,0.2,2.4,0.3,3.7c0.1,0.8-0.4,1.3-1.1,1.6
		c-0.7,0.3-1.3,0.2-1.9-0.3c-0.3-0.3-0.7-0.6-1-0.9c-0.4,0.7-1,1.2-1.2,1.9c-0.2,0.7-0.1,1.5-0.3,2.2c-0.1,0.4-0.5,0.8-0.8,1
		c-0.3,0.2-0.8,0.3-1.3,0.5c0,0.2,0,0.4,0,0.7c0,1-0.3,1.6-1.3,1.8c-1,0.3-1.4,0.9-1.5,1.8c0,0.5-0.2,0.9-0.4,1.3
		c-1.1,2.2-2.5,3.1-5.1,2.2c-2.6-1-5-2.1-7.6-3.1c-0.7-0.3-1.5-0.3-2.2-0.2c-0.9,0.1-1.8,0.5-2.5,1.4c1.2,0.3,2.2,0.6,3.2,0.9
		c2.1,0.5,4.3,0.9,6.4,1.5c1.4,0.4,2.8,1,4.2,1.5c1.5,0.5,3.1,1,4.6,1.7c2.4,1.1,4.3,2.9,6.1,4.8c2.1,2.3,3.1,4.9,3,7.9
		c-0.1,2-0.3,3.9-0.7,5.9c-0.4,2.6-1,5.2-2.1,7.6c-0.9,1.8-1.7,3.6-2.4,5.5c-0.4,1.2-0.6,2.5-0.9,3.7c-0.2,1-0.7,2-0.7,2.9
		c0.1,2,0.3,4.1,0.8,6c0.5,1.9,0.9,3.7,0.9,5.6c0,1.4-0.4,2.6-1.2,3.8c-1.1,1.6-2.3,3.2-3.4,4.9c-0.2,0.3-0.5,0.6-0.5,0.9
		c-0.4,1.7-0.8,3.4-1.2,5.2c-0.5,2.3-1.9,4.1-3.3,5.9c-1.1,1.5-2.6,2.7-3.9,4c-0.2,0.2-0.4,0.5-0.4,0.8c0,1.6-0.1,3.2,0,4.8
		c0.2,2.5,0.5,4.9,0.8,7.4c0.2,1.6,0.3,3.3,0.8,4.8c0.7,2.2,1.6,4.4,2.7,6.5c1.6,3,2.1,6.3,2.5,9.6c0.2,1.4,0.4,2.8,0.5,4.2
		c0.1,2.1,0.1,4.2,0.1,6.3c-0.1,1.9-0.4,3.8-0.5,5.7c-0.1,2.5,0,5,0,7.4c-0.4,0-0.9,0-1.3,0c0-0.2,0-0.3,0-0.5c0-2.9,0-5.7,0.2-8.6
		c0.1-1.9,0.4-3.8,0.5-5.8c0-1.8-0.2-3.6-0.3-5.4c-0.3-5.3-1.3-10.3-3.9-15c-1.2-2.2-2-4.6-2.3-7.2c-0.2-1.7-0.3-3.5-0.5-5.2
		c-0.2-2.5-0.4-5.1-0.7-7.6c0-0.1-0.1-0.3-0.1-0.5c-0.7,0.9-1.3,1.8-2.1,2.4c-1.7,1.4-3.2,2.8-4.3,4.8c-0.2,0.4-0.2,0.6,0,1
		c1.2,2.1,2.6,4,4.3,5.7c1.2,1.3,2.2,2.7,2.8,4.3c0.3,0.8,0.7,1.6,1.2,2.2c1.1,1.4,1.7,3,1.6,4.8c0,0.8,0.2,1.5,0.3,2.3
		c0.1,0.7,0.2,1.4,0.2,2.1c0,1.3-0.8,1.9-2,1.2c-1.8-0.9-3.3-2.2-3.7-4.2c-0.4-2-1.8-3.1-3.5-4.1c-0.4,0.4-0.8,0.8-1.2,1.3
		c-1,1.2-1.6,2.6-2.2,4.1c-1.6,3.9-3.3,7.7-5.1,11.5c-0.6,1.3-1.4,2.5-2.1,3.7c-0.8,1.2-1.8,2.4-2.7,3.6c-0.6,0.8-1.2,1.4-2.2,1.3
		c-1.1-0.1-1.9-0.6-2.2-1.8c-1.2,1.1-1.7,3.1-4,2.4c-1.4-0.5-1.9-1.4-1.8-2.8c-1.7-0.4-2.4-1.2-2.1-2.5c0.1-0.6,0.3-1.3,0.4-1.9
		c1-3.6,2.7-6.9,4.2-10.3c0.6-1.3,1.1-2.7,1.7-4c-0.1-0.1-0.2-0.1-0.3-0.2c-1.2,1.6-2.4,3.2-3.5,4.8c-0.8,1.2-1.5,2.4-2.8,3.1
		c-0.6,0.3-1.3,0.5-2,0.5c-0.8,0-1.5-1-1.3-1.6c0.2-0.5,0.5-0.9,0.6-1.4c0.7-2.4,2.4-4.2,3.6-6.3c0.8-1.4,1.9-2.7,2.6-4.1
		c0.7-1.5,1.2-3,1.6-4.6c0.5-2.1,0.3-4.3,1.3-6.4c1-2.1,1.8-4.3,2.6-6.5c0.3-0.8,0.7-1.5,1.1-2.3c-0.2-0.1-0.4-0.2-0.6-0.2
		c-1.7-0.6-3.4-1.1-5.2-1.7c-1.8-0.6-3.7-1.1-5.4-1.8c-2.4-0.9-4.8-2-7.1-3c-0.2-0.1-0.3-0.4-0.4-0.6c0.2-0.1,0.5-0.3,0.7-0.3
		c0.6,0.1,1.2,0.3,1.7,0.5c2.5,1,5,2.1,7.5,3c2.9,1,5.8,1.9,8.7,2.9c0.5,0.2,0.7,0.1,1-0.4c0.8-1.7,1.8-3.4,2.6-5.2
		c0.5-1,0.9-2.1,1.2-3.1c0.4-2,1.4-3.7,2.3-5.5c1-1.9,1.8-4,2.4-6c0.7-2.2,1-4.5,1.5-6.7c0.5-2.2,1.1-4.4,1.6-6.5
		c-1.2-1.1-2.1-2.1-3.1-2.9c-3.3-2.4-4.9-5.9-5.5-9.7c-0.5-3.4,0-6.9,1.2-10.2c1.5-4,3.2-7.9,4.9-11.8c0.6-1.6,1.4-3.1,2.6-4.3
		c0.2-0.2,0.3-0.6,0.5-0.8c1-1.3,2-2.8,3.2-4c1.3-1.3,3-2.1,5-2.6c-0.6-0.2-1-0.3-1.4-0.3c-1.8-0.4-3.6-0.6-5.2,0.3
		c-2.9,1.5-5.4,3.7-7.8,5.8c-2.1,1.8-3.4,4.3-4.9,6.6c-0.9,1.4-1.6,2.8-2.5,4.1c-1.2,1.8-2.5,3.6-4.4,4.8c-0.5,0.3-0.9,0.8-1.2,1.2
		c-2,2.5-4.1,4.9-7,6.4c-1.9,0.9-3.8,1.6-5.9,1.6c-1.5,0-3-0.2-4.8-0.3c-0.4,2.1-1,4.4-1.2,6.6c-0.2,2.6-0.5,5.2-1.6,7.6
		c-0.4,0.9-0.9,1.2-1.8,0.9c-0.4-0.1-0.9-0.4-1.2-0.7c-1.2-1.2-2.1-2.7-2.7-4.3c-0.4-1.2-0.9-2.3-1.5-3.4c-0.4-0.8-1-1.6-1.7-2.2
		c-2-1.8-4.1-3.6-6.2-5.4c-0.1-0.1-0.2-0.1-0.4-0.3c-0.3,1.5-0.7,2.9-0.7,4.3c-0.2,3.1-0.1,6.2,0.4,9.3c0.4,2.7,0.5,5.5,0.7,8.3
		c0.3,4,0.5,8.1,1.4,12c0.6,2.8,1.2,5.7,2,8.5c0.8,2.7,1.8,5.4,2.8,8c0.7,1.7,1.5,3.4,2.2,5.1c1.2,2.6,2.4,5.2,3.6,7.7
		c0.1,0.2,0.2,0.6,0.4,0.7c0.8,0.5,1.6,1.2,2.4,1.5c2.9,1.1,5.8,2.1,8.7,3.2c0.4,0.2,0.9,0.2,1.3,0.3c0.2,0.1,0.2,0.4,0.3,0.7
		c-0.3,0.1-0.5,0.3-0.7,0.3c-0.4,0-0.8-0.2-1.2-0.3c-3.4-1-6.9-2.1-10-3.9c0,0.1,0,0.2,0,0.3c1.2,2.9,2.4,5.8,3.6,8.6
		c0.4,0.9,0.9,1.8,1.2,2.8c0.7,2.2,0.3,3.3-1.4,4.5c0.2,0.4,0.4,0.8,0.6,1.3c0.3,0.6,0.7,1.3,0.9,1.9c0.7,2.8,0.4,3.5-1.9,4.5
		c0,0.3,0,0.5,0,0.8c0,1-0.5,1.7-1.3,2.2c-0.8,0.4-1.7,0.4-2.4-0.2c-0.6-0.5-1.1-1.2-1.7-1.8c-0.1,0.1-0.1,0.2-0.2,0.4
		c-0.8,1.7-2.5,1.9-3.5,0.3c-0.5-0.8-0.8-1.6-1.2-2.5c-0.9-2-1.7-4.1-2.6-6.1c-0.1-0.2-0.1-0.4-0.1-0.6c-0.2-1.2-0.5-2.4-0.7-3.5
		c-0.1,0-0.2,0-0.4-0.1c-0.4,0.8-0.8,1.6-1.2,2.4c-1.5,3.4-2.4,6.9-3.1,10.5c-0.9,5-2.8,9.8-4.7,14.5C32.1,200,31.6,200,31.2,200z
		 M93.2,105.6c0-3.6,0-7.2,0.2-10.8c0.1-1.8,0.3-3.6,0.9-5.3c0.5-1.6,1.4-3,2.3-4.4c0.9-1.4,2.1-2.7,3.3-3.9
		c0.7-0.8,1.7-1.3,2.6-1.9c0.2-0.1,0.6,0.1,1,0.2c-0.1,0.3-0.2,0.7-0.4,0.9c-3.2,2-5.4,5-7.1,8.3c-0.8,1.6-1.1,3.6-1.2,5.4
		c-0.3,3.1-0.3,6.2-0.4,9.3c0,1.6,0.1,3.2,0.3,4.9c0.2,2-0.2,3.9-0.6,5.8c-0.8,3.4-1.7,6.8-2.4,10.2c-0.6,3-1.8,5.7-3.3,8.4
		c-0.4,0.7-0.5,1.5-0.7,2.2c-0.9,2.3-1.9,4.7-2.9,7c-1.7,3.6-3.4,7.2-5.1,10.8c-0.5,1-0.7,2.2-1.2,3.2c-0.9,1.8-1.3,3.6-1.5,5.6
		c-0.2,2.5-1.3,4.6-2.6,6.7c-1,1.8-2.3,3.5-3.4,5.2c-0.2,0.2-0.3,0.4-0.5,0.6c-0.7,0.8-0.6,1.2,0,2c0.3,0.4,0.5,0.9,0.9,1.6
		c1.1-1.6,2.2-3.2,3.3-4.9c-0.3-0.2-0.7-0.4-1-0.6c-0.2-0.2-0.2-0.5-0.3-0.7c0.2,0,0.5-0.2,0.7-0.1c0.4,0.1,0.8,0.4,1.3,0.6
		c0.6-0.7,1.2-1.4,1.9-2.1c0.2-0.2,0.7-0.5,0.8-0.4c0.3,0.2,0.5,0.6,0.5,0.9c0,0.7-0.1,1.4-0.4,2c-1.4,3.3-2.8,6.5-4.3,9.8
		c-0.4,0.9-0.7,1.9-1,2.7c0.9,0.4,1.6,0.8,2.5,1.2c0.4-1.1,0.9-2.2,1.4-3.4c0.5-1.3,1.1-2.5,1.7-3.8c0.2-0.4,0.3-0.7-0.1-0.9
		c-0.4-0.2-0.8-0.5-0.4-1c0.1-0.1,0.6,0.1,1,0.1c0.1,0,0.2,0.1,0.4,0.3c0.3-1,0.7-1.9,0.9-2.8c0.2-0.8,0.3-1.7,0.6-2.5
		c0.1-0.3,0.4-0.4,0.6-0.6c0.1,0.3,0.4,0.6,0.3,0.8c-0.3,2-0.9,4-1.8,5.9c-1.1,2.4-2,4.9-3.3,7.3c-0.8,1.5-0.8,2.4,0.7,3.3
		c0.3,0.2,0.5,0.6,1,1.1c1.4-2.7,2.8-5.2,4.2-7.9c-0.5-0.4-0.9-0.6-1.3-0.9c-0.2-0.2-0.2-0.5-0.4-0.7c0.3,0,0.6-0.2,0.8-0.1
		c0.4,0.1,0.7,0.4,1.2,0.6c0.7-1.5,1.4-3,2.1-4.5c0.5-1,0.9-2,1.4-2.9c0.1-0.2,0.6-0.5,0.8-0.4c0.5,0.2,0.2,0.5,0.1,0.9
		c-0.9,1.9-1.8,3.9-2.7,5.8c-1.2,2.7-2.4,5.3-3.6,8c0.8,0.4,1.7,0.8,2.7,1.2c1.8-1.9,3.3-4.1,4.2-6.8c0.1-0.2-0.2-0.5-0.4-0.8
		c-0.3-0.3-1.2-0.4-0.7-1c0.4-0.6,0.9,0,1.4,0.2c0.1,0.1,0.2,0.1,0.4,0.2c0.5-1.1,0.9-2.2,1.4-3.3c0.8-1.7,1.6-3.4,2.4-5.2
		c0.7-1.7,1.4-3.5,2.7-4.9c0.6-0.7,1.1-1.4,1.7-2c0.5-0.5,1-0.1,1.2,0.3c0.5,1.2,1.7,1.7,2.4,2.7c0.4,0.5,0.6,1.2,0.9,1.8
		c0.4,0.9,0.7,1.8,1.1,2.7c0.1,0,0.2,0,0.3-0.1c0-0.3,0-0.6,0.1-0.8c0.3-0.7,0.5-1.4,1-1.9c0.8-0.8,1.1-1.3,0.5-2.6
		c-0.2,0.3-0.4,0.5-0.7,0.7c-0.2,0.1-0.5,0.1-0.6,0c-0.1-0.2-0.1-0.5-0.1-0.7c0-0.1,0.1-0.2,0.2-0.2c0.5-0.6,0.6-1,0.1-1.8
		c-0.6-0.9-1-1.9-1.5-2.9c-0.5-1-1.1-2-1.8-2.8c-2.1-2.4-4.2-4.7-5.6-7.6c-1.9,0.9-3.7,1.4-5.7,1.2c-0.1,0-0.3,0-0.4,0
		c-0.3-0.2-1-0.6-0.9-0.8c0.1-0.7,0.7-0.3,1.1-0.2c2.2,0.2,4.2-0.1,5.9-1.5c0.7-0.6,1.1-1.5,1.7-2.1c0.7-0.8,1.5-1.5,2.3-2.3
		c1.1-1.1,2.1-2.3,3.1-3.4c1-1,2-1.9,3-2.9c1.9-1.9,3.8-3.9,4.9-6.4c1.2-2.6,1.9-5.3,1.9-8.2c0-4.7,0.4-9.3,1.6-13.9
		c1-3.5,2-6.9,2.8-10.4c0.6-2.5,1.4-4.8,2.6-7c1.5-2.7,2-5.6,2.5-8.6c0.1-0.8,0.6-1.6,0-2.4c-0.1-0.1,0-0.3,0-0.4
		c1.1-3.5,0.3-6.6-2.2-9.4c-1.6-1.8-3.2-3.4-5.4-4.4c-1.6-0.7-3.4-1.2-5.1-1.8c-1.3-0.5-2.5-1-3.8-1.4c0,0.1,0,0.2,0,0.2
		c-0.6,0.1-1.2,0.3-1.8,0.4c-1.9,0.5-3.7,1.3-5,2.7c-1,1.1-1.8,2.3-2.7,3.5c-0.2,0.2-0.3,0.5-0.5,0.7c-1.1,1.1-1.8,2.4-2.4,3.8
		c-1.6,3.8-3.3,7.7-4.8,11.6c-1.3,3.3-1.7,6.7-1.2,10.1c0.5,3.3,1.9,6.4,4.8,8.5c0.7,0.5,1.3,1.1,1.9,1.7c0.2,0.2,0.4,0.3,0.6,0.5
		c0.1,0,0.1-0.1,0.2-0.1C93.5,108.4,93.2,107,93.2,105.6z M95.8,55.8c-1.2-1.8-2.5-3.7-2.8-6c-0.3-2.2-0.7-4.3-0.2-6.5
		c0.4-1.7,0.6-3.4,0.9-5.1c0-0.2-0.1-0.5-0.2-0.6c-1.6-1.1-2.2-2.9-2.6-4.7c-0.2-1.3-0.2-2.6-0.3-4.2c-1,0.9-1.9,1.6-2.7,2.5
		c-1.5,1.7-2.5,3.8-3.3,6c-0.3,0.8-0.4,1.6-0.6,2.5c-0.4,2.4-1.9,3.5-4.1,3.9c-0.4,0.1-0.9,0.1-1.3,0.2c-0.8,0.1-1.3,0.5-1.6,1.3
		c-1.3,2.6-2.7,5.2-4.4,7.5c-0.7,1-1.1,2.3-1.7,3.4c-2.3,4.2-4.3,8.6-5.6,13.3c-0.6,2.3-1.1,4.6-1.6,6.9c-0.5,1.8-1.2,3.5-1.5,5.3
		c-0.6,3.7-2.3,6.9-3.9,10.2c-0.3,0.6-0.5,1.2-0.5,1.9c0,0.2,0.4,0.7,0.6,0.8c3.1,0.5,5.9,0.3,8.8-1.3c2.6-1.4,4.5-3.4,6.3-5.6
		c0.6-0.8,1.3-1.5,2.1-2.1c2.2-1.6,3.6-3.9,5-6.2c0.9-1.5,1.8-3,2.7-4.4c1-1.5,2.2-2.9,3.3-4.3c0.3-0.4,0.7-0.8,1.2-1.1
		c2.5-1.7,4.6-4.1,7.7-5.3c-0.6-0.2-0.9-0.3-1.3-0.5c-2.9-1.1-5.4-2.9-7.9-4.7c-0.2-0.1-0.3-0.6-0.2-0.8c0.1-0.2,0.5-0.3,0.8-0.3
		c0.3,0.1,0.6,0.4,0.9,0.6c0.8,0.5,1.6,1.1,2.4,1.6c0.1-0.1,0.2-0.1,0.3-0.2c-0.6-1.2-1.2-2.5-1.9-3.7c-0.7-1.2-1.5-2.4-2.2-3.7
		c-0.1-0.2,0-0.5,0-0.8c0.3,0.1,0.7,0.1,0.8,0.2c1.3,2.3,2.6,4.7,3.9,7c0.1,0.2,0.2,0.5,0.2,0.8c0,1.2,1,1.6,1.8,2.1
		c0.3,0.2,0.9,0,1.1-0.2c1.3-1.2,2.7-1.7,4.4-1.6c0,0,0.1-0.1,0.1-0.1C97.9,58.5,96.8,57.2,95.8,55.8z M117.6,50.8
		c-0.5-0.5-1.2-1-1.6-1.7c-0.5-0.6,0-1.8,0.7-2.1c0.2-0.1,0.5,0,0.7,0c0,0.3,0,0.5-0.1,0.8c-0.1,0.3-0.4,0.7-0.3,1
		c0.1,0.5,0.6,0.7,1.2,0.7c0.8,0,1.5,0.2,2,0.9c0.1,0.1,0.1,0.2,0.2,0.2c0.4,0.2,0.9,0.6,1.1,0.4c0.4-0.2,0.7-0.7,0.7-1.1
		c0-1-0.2-2-0.3-2.9c-0.1-0.7-0.2-1.3-0.2-2c0-1-0.1-2,0-3c0.1-1.5,0.8-2.8,1.7-4.1c0.7-0.9,0.6-1.2,0-2.1c-1.4-2.1-3.4-2.6-5.7-2.6
		c-0.1,0-0.2,0.1-0.3,0c-0.2-0.1-0.4-0.3-0.7-0.5c0.2-0.2,0.4-0.5,0.6-0.5c2.9-0.2,5.4,0.4,7,3c0.1,0.1,0.2,0.2,0.3,0.4
		c0.9-1.1,1.1-2.4,1.5-3.6c0.7-2.5,0.8-5.1,0.7-7.7c0-0.9-0.3-1.3-1.2-1.3c-3-0.1-5.7,0.8-8,2.8c-0.7,0.6-1.2,1.4-2,1.9
		c-0.7,0.5-1.6,0.8-2.4,1.1c-2.2,0.8-4.4,1.5-6.6,2.3c-2.8,1.1-5.3-0.4-5.6-3.5c-0.2-1.3-2.3-3.7-4.2-4c-2.1-0.3-2.9,1.1-3.9,2.3
		c-0.7,0.9-1.1,1.9-1,3c0.1,1.6-0.1,3.3,0.5,4.9c0.6,1.8,1.9,2.9,3.5,3.7c0.6,0.3,1,0.1,1.2-0.6c0.3-1,0.7-1.9,1.1-2.9
		c-0.8,0.3-1.5,0.1-1.9-0.8c-0.1-0.2-0.5-0.5-0.8-0.5c-0.6-0.2-1.1-0.5-1.2-1.2c-0.1-0.8,0-1.6,0.8-2.1c0.4-0.2,0.8-0.5,1.2-0.6
		c0.9-0.2,1.3-1,1.8-1.6c0.1-0.2-0.1-0.8-0.4-0.9c-1.2-0.8-2.7-0.4-3.4,0.9c-0.1,0.2-0.6,0.5-0.8,0.4c-0.5-0.2-0.3-0.6-0.1-1
		c1-1.8,3.4-2.3,5.1-1.1c0.8,0.6,1,2.1,0.2,2.8c-0.7,0.6-1.5,1-2.2,1.5c-0.3,0.2-0.7,0.3-0.9,0.5c-0.5,0.5-0.3,1.2,0.4,1.5
		c0.6,0.3,1.1,0.7,1.6,1.1c0,0.1-0.1,0.1-0.1,0.2c0.1,0,0.2-0.1,0.4-0.1c0.4,0,1-0.2,1.2,0c0.2,0.3,0.3,0.9,0.2,1.3
		c-0.3,1-0.7,1.9-1,2.8c-0.4,1.5-1.7,1.6-3.3,0.9c-0.2,0.9-0.6,1.8-0.7,2.6c-0.2,1.3-0.4,2.6-0.3,3.9c0,4.3,1.4,8.2,4.1,11.5
		c1.1,1.3,2.1,2.6,3.2,3.9c0.1,0.1,0.3,0.2,0.4,0.3c1.9,0.8,3.8,1.6,5.7,2.4c2.5,1.1,4.1,0.2,4.6-2.5c0.2-1.2,0.5-2.3,1.8-2.5
		c-0.7-1.6-1.3-3.2-1.9-4.8c-0.1-0.4,0-0.6,0.4-0.5c1.6,0.3,3.2,0.5,4.6,0.8C116.9,52.7,117.3,51.7,117.6,50.8z M42,139
		c-0.7-2.4-1.4-4.8-2.1-7.2c-1-3.5-1.4-7.1-1.7-10.7c-0.3-4.1-0.7-8.2-1-12.3c-0.2-2.5-0.5-5.1-0.6-7.6c-0.1-1.1,0.1-2.2,0.2-3.3
		c-1.8-1.4-3.3-0.3-4.7,0.4c-3.1,1.5-6.1,3.4-9.2,4.8c-2.3,1.1-4.3,2.7-6.5,3.9c-1.1,0.6-2.4,1.1-3.6,1.7c-0.9,0.5-1.8,1-2.6,1.5
		c-0.2,0.1-0.3,0.7-0.2,0.9c0.8,1.4,1.5,2.8,2.5,4c1.8,2.4,3.7,4.7,5.7,6.9c2,2.2,3.7,4.7,6.2,6.4c2.2,1.5,3.7,3.7,5.6,5.4
		c1.8,1.7,3.8,3.2,5.7,4.8c1.6,1.3,3.3,2.7,4.9,4c0.8,0.6,1.7,1,2.6,1.5c0.1-0.1,0.2-0.1,0.3-0.2C43.1,142.2,42.5,140.6,42,139z
		 M73.4,40.5c0.2,1.3,0.3,2.6-0.2,3.9c-0.6,1.7-1,3.4-1.4,5.1c-0.1,0.2,0.2,0.5,0.4,0.7c0.3-0.1,0.6-0.2,0.7-0.4
		c1.1-1.9,2.1-3.9,3.2-5.8c0.4-0.7,0.7-1.5,1.1-2.3c0.4-1.1,0.3-2.2-0.1-3.2c-0.6-1.3-0.5-2.6-0.4-3.9c0-0.4,0.1-0.8,0.1-1.1
		c0.1-0.8-0.3-1.3-1.2-1.3c-0.4,0-0.7-0.2-1.1-0.4c-0.7-0.4-1-0.3-1.3,0.5c-0.3,1.1-0.5,2.2-0.8,3.3C72.8,37.3,73.2,38.9,73.4,40.5z
		 M115.4,120.5c0.9-1.3,1-2.8,0.7-4.3c-0.3-2-0.9-3.9-1.4-5.9c-2,4.5-2.1,9.3-2.3,14.1C113.4,123.2,114.4,121.9,115.4,120.5z
		 M75.5,25.3c-0.1-1.2-0.9-1.7-1.9-1.1c-0.4,0.3-0.8,0.7-1.1,1.1c-0.1,0.1-0.2,0.3-0.1,0.5c0.4,1.2,0.7,2.4,1.2,3.5
		c0.2,0.5,0.6,0.7,1.1,0.3c0.4-0.2,0.8-0.4,1.2-0.5C75.7,27.8,75.6,26.6,75.5,25.3z M74.5,190c-0.1,0.4-0.2,1.2,0.1,1.4
		c0.4,0.4,1.2,0.7,1.7,0.5c1.4-0.6,1.7-1.4,0.6-2.5c-0.4-0.4-0.8-0.7-1.3-1.2C75.1,188.9,74.7,189.4,74.5,190z M73.1,189
		c0.7,0,1.6-0.8,1.7-1.6c0.1-0.5-0.9-1.3-1.5-1.4c-0.7,0-1,0.5-1.1,1.6C72.2,188.5,72.5,189,73.1,189z M55.7,182.5
		c0.5-0.3,1-0.6,0.9-1.3c-0.2-0.7-1-1.5-1.6-1.4c-0.4,0.1-0.8,0.3-1.1,0.5c-0.1,0.1,0.1,0.6,0.2,0.9c0.3,0.6,0.6,1.1,0.9,1.7
		C55.3,182.7,55.5,182.7,55.7,182.5z M80.8,191.3c0.9,0.3,2-0.2,1.9-1.4c-0.1-1.3-1.4-0.9-2.3-1.2C79.9,190,80,190.9,80.8,191.3z
		 M55.2,174.6c0.1,0.1,0.5,0.2,0.6,0.1c0.6-0.5,0.7-1.2,0.4-1.8c-0.3-0.5-0.8-0.9-1.3-1.1c-0.2-0.1-0.6,0.3-1,0.4
		C54.4,173.1,54.7,173.9,55.2,174.6z M104.4,170.7c-0.9,0.5-1,1.3-1,2c0,0.9,0.4,1.5,1.5,1.7C105.2,173.1,104.6,172,104.4,170.7z
		 M52,184.1c-0.2,0-0.5,0.2-0.7,0.4c-0.1,0.1,0.1,0.4,0.2,0.6c1,1.3,1.8,1.4,2.7,0.3C53.7,184.6,53.1,183.9,52,184.1z M115.9,55.3
		c0.3-0.1,0.5-0.3,0.8-0.5c-0.2-0.2-0.4-0.4-0.7-0.6c-0.2-0.1-0.5-0.2-0.8-0.2c-0.6-0.1-1.3-0.2-2-0.3
		C113.9,54.9,114.9,55.5,115.9,55.3z M47.5,185.4c0.2,0.2,0.7,0,1-0.1c0.1,0,0.1-0.7-0.1-0.8c-0.5-0.5-1.1-0.9-1.7-1.4
		C46.4,184.2,46.9,184.9,47.5,185.4z M114.1,57.9c0.8-1.3,0.5-2-1.3-3.4c-0.1,0-0.2,0.1-0.3,0.1C113,55.6,113.6,56.7,114.1,57.9z
		 M68.8,178.5c0.1,0.1,0.1,0.2,0.2,0.3c0.4-0.2,1.3-0.3,1.3-0.5c0-0.7,0-1.5-0.9-2C69.1,177,68.9,177.7,68.8,178.5z M40.5,172.2
		c1-0.7,1-2,0-3.4C40.5,170,40.5,171.1,40.5,172.2z"/>
	<path class="st0" d="M118.1,40.3c-0.7,0.7-1.1,0.6-1.5-0.3c-0.4-0.8-0.7-1.7-1-2.6c-0.2-0.5,0.1-0.8,0.7-0.6c1,0.4,2.1,0.8,3.1,1.2
		c0.4,0.2,0.8,0.3,1.2,0.5c0,0.1,0,0.2,0,0.3c-0.4,0-0.9,0-1.1,0C118.8,39.5,118.4,39.9,118.1,40.3z M116.7,39.1
		c0.4-0.3,0.7-0.6,1.1-0.9c-0.4-0.2-0.8-0.5-1.3-0.7c-0.1,0.1-0.2,0.1-0.3,0.2C116.4,38.2,116.5,38.6,116.7,39.1z"/>
</g>
</svg>
