<?xml version="1.0" encoding="utf-8"?>
<!-- Generator: Adobe Illustrator 19.2.1, SVG Export Plug-In . SVG Version: 6.00 Build 0)  -->
<svg version="1.1" id="Layer_1" xmlns="http://www.w3.org/2000/svg" xmlns:xlink="http://www.w3.org/1999/xlink" x="0px" y="0px"
	 viewBox="0 0 153.3 184.9" style="enable-background:new 0 0 153.3 184.9;" xml:space="preserve">
<style type="text/css">
	.st0{fill:#1976D2;}
</style>
<g id="ear-main_1_">
	<g>
		<path class="st0" d="M0,184.9c0.7-2.8,1.4-5.7,2-8.5c0.5-2.6,0.8-5.3,1.1-8c0.5-4.7,0.5-9.5,1.6-14.1c1.4-6.2,4.5-11.4,10.1-14.9
			c3.2-2,6.4-3.7,10.1-4.7c2.1-0.5,4.2-1,6.3-1.6c1.9-0.6,3.7-1.2,5.8-1.9c-0.3-1.9-0.7-4-1.1-6.2c-0.6,0.1-1.2,0.2-1.8,0.3
			c-1.6,0.2-3.2,0.4-4.7,0.4c-4.9,0.1-8.6-2.7-9.2-7.5c-0.4-3.1-1.6-5.2-3.5-7.4c-1-1.2-1.2-2.4-0.5-3.7c0.9-1.8,0.8-2.5-0.9-3.7
			c-0.3-0.2-0.5-0.4-0.8-0.5c-2.5-1.6-2.7-2.3-2.1-5.3c0.1-0.3,0.1-0.6,0.1-0.9c0-2-0.2-2.1-2.1-1.8c-2.5,0.5-4.8,0-6.9-1.5
			c-1.6-1.2-2.2-3.9-1.2-5.9c0.6-1.3,1.4-2.5,2.2-3.7c2.2-2.9,3.4-6.3,4.2-9.7c0.5-2,0.3-4.1-0.8-6c-0.6-1.1-1-2.3-1.5-3.4
			c-1-2.2-1.1-4.6-0.7-7c0.3-1.9,0.4-3.9,0.5-5.8c0.1-3.4,0.4-6.8,0.2-10.2c-0.1-2.4-0.7-4.7-1.1-7c-0.6-3.2-0.5-6.2,2-8.6
			c3-3,6.1-5.9,9.8-8.2c2.8-1.7,5.3-3.9,8.2-5.4c3.7-1.9,7.4-3.8,11.5-4.5c0.8-0.1,1.6-0.6,2.4-0.9C45.6,4.4,52,2.4,58.7,1.2
			c3.9-0.7,7.8-0.9,11.6,0.1c4.4,1.1,8.9,1.9,13.1,3.8C88.3,7.2,93,9.3,97,12.8c4.8,4.2,8.9,9.1,12,14.7c1,1.9,2.3,3.6,3.5,5.4
			c1.9,2.7,2.9,5.7,3.7,8.9c1.1,4,2.4,7.9,3.3,11.9c0.8,3.4,1.2,6.8,1.8,10.2c0.9,4.8,2.5,9.3,4.2,13.8c1.1,2.8,1.8,5.7,2.8,8.6
			c0.8,2.6,1.6,5.2,2.6,7.8c1.5,3.8,2.2,7.8,3.3,11.8c1.4,5.1,3.5,10,5.3,15c0.9,2.6,1.8,5.2,2.7,7.8c1.5,4.5,3.9,8.5,6.3,12.5
			c2.1,3.5,3.6,7.1,4.2,11.1c0.5,3.3,0.6,6.6,0,10c-0.6,3.4-1,6.9-1.8,10.3c-1.1,4.2-2.6,8.3-3.9,12.4c-0.8,0-1.6,0-2.4,0
			c0.2-0.7,0.5-1.4,0.7-2.1c1.5-5.6,3.1-11.2,4.4-16.9c0.6-2.8,1.1-5.9,0.7-8.7c-0.7-5-2.8-9.7-5.7-13.9c-0.9-1.3-2-2.5-3.2-3.5
			c-1.9-1.6-4.1-2.9-6.1-4.4c-1.6-1.2-3.2-2-5.2-1.6c-1.1,0.2-2.3,0.3-3.4,0.5c-7,1.2-13.3,4.3-19.5,7.4c-4.2,2.1-6.6,6-9.5,9.3
			c-2.9,3.4-5.4,7.1-8.2,10.6c-3.3,4.1-4.6,8.7-4.2,13.9c0,0.3,0.1,0.6,0.2,1.1c2.6-3.4,5-6.6,7.4-9.7c1.7-2.2,3.4-4.3,5.2-6.4
			c0.6-0.7,1.3-1.3,2.1-1.8c0.3-0.2,0.9-0.2,1.1,0c0.2,0.2,0.3,0.8,0.1,1.1c-0.1,0.3-0.5,0.6-0.8,0.9c-1.6,1.7-3.2,3.3-4.7,5.1
			c-4.9,6.3-9.6,12.6-14.5,18.9c-0.9,0-1.8,0-2.6,0c0.7-0.8,1.4-1.6,2.1-2.5c1.2-1.4,2.5-2.8,2.4-4.9c-0.1-1.6,0.1-3.3,0.1-4.9
			c-0.1-3.9,1.1-7.3,3.3-10.4c1-1.4,2.3-2.6,3.1-4.1c3.2-5.2,7.4-9.6,11.3-14.1c2.7-3.2,6.5-4.9,10.4-6.5c5.1-2.2,10.2-4.5,15.8-5.3
			c-1.6-0.8-3.2-1.7-5-2.2c-3-0.9-6.1-1.4-9.1-2.2c-0.8-0.2-1.3-0.1-2,0.3c-3.4,2.1-6,5.1-8.7,7.9c-1,1.1-2.1,2.2-3.2,3.2
			c-2.8,2.4-5.6,4.7-8.4,7.1c-3.6,3.2-7.1,6.5-10.8,9.7c-2,1.7-4.3,3.1-6.4,4.8c-2.5,2-4.9,4.2-7.3,6.4c-0.9,0.9-1.9,1.8-1.9,3.4
			c0,4.8-0.3,9.6-0.4,14.4c-0.6,0-1.3,0-1.9,0c0.2-6.1,0.4-12.3,0.8-18.4c0.1-2.1,0.6-4.2,1-6.2c0.3-1.7,0.7-3.3,0.9-5
			c0.2-2.4,0-4.8,1.2-7.1c1.1-2.2,1.7-4.5,2.7-6.7c1.6-3.5,3.4-7,5.1-10.5c1.5-3.1,0.9-4.5-0.6-7.9c-0.1,0.2-0.2,0.3-0.3,0.4
			c-0.9,2.1-1.7,4.2-2.6,6.2c-0.2,0.3-0.8,0.5-1.2,0.7c0-0.4-0.2-0.9-0.1-1.3c0.4-1.2,0.9-2.3,1.4-3.4c1.5-3.3,2.5-6.6,2.3-10.2
			c-0.1-1.8,0-3.6,0-5.4c-0.3-5.9,1-11.7,1.7-17.5c0.1-0.8,0.5-1.8-0.6-2.4c-0.4-0.2-0.6-0.8-0.9-1.2c0.5-0.2,0.9-0.3,1.2-0.4
			c-0.2-5.4-0.5-10.8-0.7-16c-1.4-0.5-2.8-0.9-4.1-1.4c0,0.3,0,0.6,0,0.9c-0.2,6.1,0.1,12.2-0.8,18.3c-0.3,2.1-0.4,4.2-0.8,6.2
			c-0.5,2.8-1.1,5.7-1.7,8.5c-0.1,0.4-0.6,0.8-0.9,1.2c-0.2-0.4-0.5-0.9-0.5-1.3c0.2-1.8,0.5-3.5,0.8-5.3c0.7-4.1,1.4-8.1,2.1-12.2
			c-0.7-0.2-1.3-0.3-1.7-0.6c-0.3-0.2-0.3-0.7-0.5-1c0.3-0.1,0.7-0.2,1-0.2c0.3,0,0.7,0.2,1.2,0.3c0.1-6.6,0.8-13.1,0.2-19.8
			c-2.5,0.5-4.8,0.8-6.4-1.7c-0.1,1.4-0.2,2.6-0.1,3.8c0.4,7-0.5,13.8-2.4,20.5c-0.5,1.9-0.9,3.8-1.2,5.8c-0.5,3.2-0.8,6.4-1.3,9.7
			c0,0.3-0.5,0.6-0.8,0.9c-0.2-0.4-0.6-0.8-0.6-1.2c0.3-2.9,1-5.7,1.1-8.6c0.1-3.3-0.2-6.6-0.3-9.9c-0.1-2-0.1-4,0.1-6
			c0.3-2.8,0.8-5.6,1.3-8.6c-2.8,0.4-5,0-5.4-3.4c-0.4,1.3-0.6,2.7-0.8,4c-0.3,2.8-0.6,5.5-0.9,8.3c-0.3,2.5-0.5,4.9-0.8,7.3
			c-0.1,0.9,0.3,1.2,1.1,1.1c0.6-0.1,1.3-0.2,1.9-0.2c0.3,0,0.6,0.5,0.9,0.7c-0.3,0.2-0.6,0.6-0.9,0.7c-0.8,0.1-1.7,0-2.5,0.1
			c-0.3,0-0.7,0.4-0.8,0.7c-0.2,0.5-0.1,1-0.1,1.5c0.2,3.7,0,7.3-0.7,10.9c-0.3,1.5-0.7,3-1.2,4.5c-0.1,0.3-0.6,0.5-0.9,0.8
			c-0.2-0.3-0.5-0.5-0.5-0.8c-0.1-1.7-0.1-3.5-0.2-5.3c-0.1-1.3-0.3-2.6-0.4-4c-0.9,0-1.6,0.1-2.2,0c-0.4-0.1-0.7-0.4-1.1-0.7
			c0.4-0.2,0.7-0.4,1.1-0.6c0.2-0.1,0.5,0,0.7,0c0.9,0.1,1.3-0.2,1.3-1.2c-0.1-1.4,0-2.9,0.1-4.3c0-3.1,0-6.3,0-9.2
			c-0.9,0.3-1.9,1-2.8,0.9c-0.9-0.1-1.7-1-2.7-1.6c-0.1,2.7-0.3,5.6-0.3,8.4c-0.1,4.1,0,8.2,0,12.3c0,0.6,0.3,1.3,0.2,1.9
			c-0.6,4.3-1.5,8.6-2,12.9c-0.3,2.5-0.3,5.1-0.1,7.7c0.3,4,0.9,8,1.3,12.1c0.3,2.6,0.6,5.2,0.9,7.8c0.3,2.2,0.5,4.4,0.8,6.6
			c0.2,1.7,0.5,3.5,0.6,5.2c0.1,2.1,0.3,4.2-0.1,6.2c-0.6,3.3-1.7,6.6-2.4,9.8c-0.7,2.9-1.7,5.8-1.7,8.9c0,1.4-0.4,2.7-0.7,4.1
			c-0.9,0-1.8,0-2.6,0c-0.5-0.2-0.9-0.6-1.4-0.7c-1.6-0.2-3.2-0.3-4.7-0.5c-2.5-0.3-4.9-1-6.6-3c-4-4.9-4.3-10.8-1.5-16.3
			c1.8-3.5,3.7-7,5.5-10.5c1-1.9,1.7-4,2.8-5.9c2.6-4.3,4.6-9.1,8.4-12.6c0.3-0.3,0.3-1.1,0.1-1.5c-0.1-0.2-0.9-0.3-1.3-0.2
			c-0.3,0-0.6,0.3-0.8,0.4c-5.7,3.9-10.8,8.5-14.5,14.5c-1.9,3-3.7,6.1-5.5,9.2c-1.7,2.9-3.6,5.7-5,8.8c-1.7,3.6-3.2,7.4-4.5,11.2
			c-0.8,2.3-1.1,4.7-1.7,7.1C1.8,184.9,0.9,184.9,0,184.9z M60.5,59.9c-0.7-0.4-1.7-0.8-2.7-1.3c-3.6-1.9-7.2-3.9-9.8-7.1
			c-1.3-1.6-2.6-3.3-4-4.9c-2.9-3.4-6.7-5.5-11-6.5c-2.9-0.7-5.8-1.2-8.5-2.4c-3.7-1.6-7.4-3.1-11.2-4.4c-3.5-1.2-5.5,0.9-5.2,4.1
			c0.2,1.9,0.2,3.8,0.2,5.7c0,1.9-0.1,3.8-0.3,5.7c-0.2,3-0.6,6-0.8,9c-0.1,1.4-0.2,3,0.2,4.3c0.6,1.9,1.6,3.6,2.4,5.4
			c0.3,0.7,0.5,1.4,0.6,2.2c0.8,3.8-0.5,7.3-2,10.6c-1.1,2.3-2.6,4.5-4,6.7c-1.7,2.7-0.5,5,2.6,5.7C8,93,8.8,93.2,9.2,92
			c0.1-0.4,0.7-0.6,1.2-0.8c1.2-0.3,2.3-0.6,3.5-0.7c1.8-0.1,3.3-0.7,4.6-2c1.4-1.4,1.3-2.3-0.5-3.3c-0.3-0.2-0.4-0.7-0.6-1
			c0.4-0.1,1-0.4,1.2-0.3c0.8,0.4,1.7,1,2.3,1.7c1.6,1.7,3.1,3.5,4.7,5.3c0.6,0.7,1.3,1.4,1.9,2.2c0.2,0.2,0,0.7,0,1.1
			c-0.4,0-0.8,0-1.2-0.1c-0.2-0.1-0.4-0.4-0.6-0.6c-1.6-1.7-3.2-3.5-4.9-5.3c-2,3-5,4-8.3,4.3c0.3,0.4,0.6,0.6,0.8,0.8
			c0.3,0.3,0.7,0.7,0.8,1.1c0.2,0.6-0.1,1.5,0.3,1.8c0.4,0.4,1.3,0.2,1.9,0.3c0.2,0,0.3,0.1,0.5,0.1c2.1,0.6,4.3,1.1,6.4,1.7
			c1.2,0.3,2.5,0.5,3.7,0.8c2.1,0.7,2.6,2,1.4,3.9c-1.6,2.6-3.8,4.5-6.1,6.4c-0.8,0.7-1.7,1.4-2.6,2.2c1.8,1.4,2,3.1,2,5
			c0,3.3,3.1,7.4,7.2,7.3c0.9,0,1.8,0,2.7,0c1.4,0,2.7,0,4.1,0c0.1-0.5,0.1-0.7,0.1-0.9c-0.3-5.2,0.6-10.2,1.4-15.3
			c0.5-2.8,0.2-5.8,0.3-8.7c0.2-6,0.4-12,0.8-18c0.1-1.6,0.7-3,1.9-4.3c1.1-1.2,2.4-1.6,3.9-1c1.5,0.6,2.2,1.9,2.4,3.4
			c0.1,1.2,0.2,2.4,0.2,3.6c0,2.8,0.1,5.7-0.2,8.5c-0.3,3.4,0.3,6.6,0.9,9.8c0.3-2.2,0.5-4.5,0.7-6.7c0.3-4.2,0.5-8.4,0.9-12.6
			c0.4-3.6,1.1-7.1,1.2-10.7c0-1.8,0.7-3.8,1.4-5.5c0.8-1.7,2.3-2.6,4.3-2.3c1.7,0.2,3,1.4,3.1,3.4c0.2,2.2,0.1,4.4-0.2,6.5
			c-0.7,4.6-1.6,9.2-0.7,14c0.1,0,0.2-0.1,0.2-0.1c0.1-0.5,0.2-0.9,0.4-1.4c1.2-4.4,1.9-8.9,1.8-13.5c-0.1-2-0.1-3.9,0-5.9
			C60.2,64.1,60.4,62.2,60.5,59.9z M75.8,84.8c0,0.7-0.1,1.4,0,2c0.7,2.4,0.2,4.8,0.1,7.1c0,1.4-0.3,2.8-0.5,4.2
			c-0.3,2.6-0.7,5.2-0.8,7.8c-0.1,3.5,0,7.1,0,10.7c0,2.9,0.3,5.7,1.5,8.4c0.8,1.8,0.7,3.5,0,5.2c-1.6,3.5-3.2,7-4.8,10.5
			c-1,2.2-2.1,4.5-2.8,6.8c-0.6,2.1-0.8,4.4-1.2,6.6c-0.4,2.3-0.7,4.5-1,6.8c-0.2,1.5-0.5,3-0.8,4.5c0.1,0.1,0.2,0.1,0.3,0.2
			c7.5-7.2,16.7-12.4,23.8-20.5c-5,1.4-9.8,2.7-14.6,4c-0.3-1.2-0.2-1.5,0.7-1.7c1.6-0.5,3.3-0.8,4.9-1.2c3.4-0.9,6.7-1.7,10.1-2.6
			c0.4-0.1,0.9-0.1,1.2-0.3c2.6-2.1,5.2-4.2,7.7-6.5c2.1-1.9,3.9-4.1,5.9-6.1c1.3-1.3,2.7-2.4,4.1-3.7c-1.2-0.3-2.3-0.6-3.4-0.9
			c-4-1-8-2.1-12.1-3.1c-3.6-0.9-6.5-2.6-8.2-6c-0.3-0.7-0.8-1.4-1.3-2c-2.7-4.1-4.5-8.5-4.5-13.4c0-1.3,0.1-2.6,0.2-3.9
			c0.3-4,0.1-8.2,2.6-11.8c0.2-0.3,0.1-0.8-0.1-1.1c-0.1-0.2-0.6-0.1-1-0.1c-0.5,0.1-1,0.3-1.5,0.4C79.1,84.8,77.6,84.8,75.8,84.8z
			 M36.8,137.4c-0.1,0-0.3-0.1-0.4-0.1c-0.7,1-1.3,2.2-2.1,3.1c-2.5,2.7-3.8,6-5.5,9.1c-2.4,4.4-4.5,8.9-6.9,13.4
			c-1.6,3-3,6-2.7,9.5c0.5,5,3.1,9.2,8.5,9.4c2,0.1,4,0.5,6,0.9c0.9,0.2,1.3-0.3,1.4-1.1c0.3-2,0.3-4.1,0.8-6.1
			c0.8-3.9,1.7-7.8,2.6-11.8c0.2-0.8,0.5-1.5,0.5-2.3c-0.1-3.1-0.2-6.1-0.5-9.2c-0.3-4.2-0.8-8.5-1.2-12.7
			C37.1,138.8,36.9,138.1,36.8,137.4z M83.4,56c-0.7-0.6-1.4-1.2-2.1-1.7c-1.7-1.1-2.8-1.1-4.3,0.1c-0.8,0.6-1.4,1.4-2.1,2.1
			c-1.2,1.3-2.2,3.1-3.7,3.9c-1.9,1.1-1.9,2.3-1.5,4c3-1.1,5.1,0.1,5.5,3.3c0.2,2,0.2,4.1,0.2,6.1c0,1.1,0.8,2.3,1.8,2.5
			c0.4,0.1,1.2-0.2,1.3-0.5c0.7-1.5,1.8-2.5,3.5-2.8c0.9-0.2,1.5-0.9,1.3-1.8c-0.2-0.9-0.5-1.8-1-2.6c-1.3-2-3.2-3.1-5.3-4.2
			c-0.3-0.1-0.4-0.6-0.6-0.9c0.4-0.1,0.8-0.3,1.1-0.2c2.8,1.2,5.1,3,6.5,5.7c1.1,2.2,0.7,4.7-2.3,5.4c-0.6,0.2-1.3,0.6-1.6,1.2
			c-1.4,2.3-1.8,2.5-4.3,1.3c-0.1,0-0.2,0-0.4,0c0,1.7,0,3.4,0,5.2c0,0.9,0.6,1.3,1.4,1.3c1.2,0,2.4,0,3.6-0.3
			c2.7-0.5,5-1.5,6.3-4.2c1.3-2.7,1.7-5.6,1.9-8.5c0.2-3.3-0.7-6.3-1.9-9.4c-1.3-3.4-5.3-4.6-8.2-3c-0.6,0.3-0.9,1-1.4,1.5
			c-0.3,0.4-0.7,0.7-1.1,1c0-0.5-0.3-1.2-0.1-1.6c0.7-1.6,2.1-2.4,3.8-2.7C80.9,56.1,82.1,56.1,83.4,56z M4.6,171.5
			c0.1,0,0.1,0,0.2,0c0.1-0.3,0.3-0.6,0.3-0.9c0.6-3.4,2.6-6.1,4.2-9c2.4-4.2,4.8-8.4,7.5-12.5c1.6-2.5,3.2-4.9,5.4-7
			c1.9-1.8,3.6-3.9,5.5-5.9c-0.3-0.1-0.6-0.3-0.7-0.2c-2.5,0.9-5.2,1.5-7.5,2.8c-2.7,1.5-5.2,3.5-7.6,5.5c-1.3,1.1-2.4,2.7-3.2,4.3
			c-1.9,3.9-2.8,8.1-2.7,12.5c0,1.3-0.3,2.6-0.5,3.9C5.1,167.1,4.9,169.3,4.6,171.5z M65.7,64.9c2.4,0,2.8-0.4,2.3-2.9
			c0-0.2,0-0.4-0.1-0.6c-0.5-1.8-1.8-2.8-3.2-2.5c-1.4,0.4-2.5,1.7-2.3,2.8C62.8,63.7,63.9,65.2,65.7,64.9z M27,103
			c-0.1-0.1-0.1-0.2-0.2-0.3c-0.5,0.1-1.1,0.2-1.5,0.4c-1.7,0.8-3.4,1.9-5.2,2.6c-1.3,0.5-2,1.4-2.3,2.5c-0.1,0.5,0.4,1.3,0.8,1.8
			c0.1,0.1,0.8,0,1.1-0.2c2.2-1.8,4.3-3.6,6.4-5.5C26.4,103.9,26.7,103.4,27,103z M23,99.8c0-0.1,0-0.2,0-0.3
			c-1.5-0.4-3-0.8-4.5-1.2c-0.8-0.2-1.7-0.5-2.5-0.6c-1.5-0.2-1.5,0-1.9,1.5c-0.3,1.1,0.5,1.6,1.1,2.1c0.6,0.5,1.2,0.7,2.1,0.3
			c1.3-0.5,2.6-1,3.9-1.4C21.8,100,22.4,99.9,23,99.8z M27.5,101.2c0-0.2,0-0.3,0-0.5c-0.5-0.2-0.9-0.4-1.4-0.5
			c-0.3,0-0.6,0.3-1,0.4c-2.3,0.6-4.7,1.1-7,1.8c-0.2,0.1-0.5,0.4-0.6,0.6c-0.1,0.9,1.3,1.9,2.1,1.6c2.4-1,4.7-2,7.1-3
			C27,101.5,27.2,101.3,27.5,101.2z M57.7,67.7c-0.1-0.6-0.1-1.2-0.3-1.7c-0.4-1.1-1.5-1.7-2.8-1.5c-1.4,0.2-0.7,1.3-0.8,2
			c-0.1,0.4,0,0.8,0,1.2c0,1,1,1.9,2.1,1.8C57.4,69.4,57.6,69.2,57.7,67.7z M74.2,69.3c-0.1-0.1-0.2-0.1-0.3-0.2c0-0.2,0-0.5,0-0.7
			c-0.1-1.2-0.5-2.2-1.6-2.8c-0.9-0.4-2.2,0-2.2,0.8c0,1,0,2.2,0.6,2.9c0.5,0.7,1.6,1.1,2.5,1.4C73.3,70.8,73.8,69.8,74.2,69.3z
			 M41.1,80c0.2,0.3,0.5,1,1.1,1.3c0.4,0.2,1.2-0.3,1.6-0.7c0.4-0.4,0.6-1.1,0.7-1.7c0.1-0.5,0-1.2-0.3-1.5
			c-0.4-0.4-1.1-0.6-1.7-0.6C41.4,76.9,41,77.8,41.1,80z"/>
		<path class="st0" d="M9.1,55.1c1.8-0.2,1.8-0.1,1.7,1.3c-0.1,0.9-0.2,1.8-0.2,2.6c0,2.3,2,3.6,3.9,2.3c2.1-1.4,4.5-1.8,6.9-2.2
			c1.6-0.3,3.3-0.3,5-0.3c0.5,0,0.9,0.5,1.4,0.8c-0.5,0.4-1,1.1-1.5,1.1c-3.3-0.2-6.3,0.9-9.4,1.5c-0.4,0.1-0.7,0.5-1.1,0.8
			c0.3,0.3,0.6,0.9,0.9,1c1.7,0.3,2.2,1.6,2.8,2.9c1,2.5,1,2.5,3.5,2c2.4-0.5,4.7-1.1,7.1-1.7c0.6-0.2,1.4-0.5,1.6,0.3
			c0.2,0.9-0.5,1.3-1.3,1.5c-2.4,0.5-4.8,1.1-7.1,1.6c-0.8,0.2-1.5,0.5-2.2,0.8c-1.4,0.6-2.3,0.2-2.7-1.2c-0.5-1.4-0.9-2.8-1.6-4.1
			c-0.8-1.6-2.3-2.4-4-2.6c-2-0.2-3.6-1.8-3.8-3.8C9,58.2,9.1,56.7,9.1,55.1z"/>
	</g>
</g>
</svg>
