<?xml version="1.0" encoding="utf-8"?>
<!-- Generator: Adobe Illustrator 19.2.1, SVG Export Plug-In . SVG Version: 6.00 Build 0)  -->
<svg version="1.1" id="Layer_1" xmlns="http://www.w3.org/2000/svg" xmlns:xlink="http://www.w3.org/1999/xlink" x="0px" y="0px"
	 viewBox="0 0 200 178.6" style="enable-background:new 0 0 200 178.6;" xml:space="preserve">
<style type="text/css">
	.st0{fill:#D81B60;}
</style>
<g id="eye-main">
	<path class="st0" d="M147,111.2c-1.4-0.4-2.8-0.9-4.3-1.2c-3.5-0.7-7-1.2-10.5-1.8c-1.8-0.3-3.6-0.9-5.4-1.4
		c-1.4-0.4-2.9-0.8-4.3-1c-1.1-0.2-1.4,0.1-1.1,1.2c1.4,6.4,1.5,12.8,1.3,19.3c-0.1,1.9-0.1,3.8-0.3,5.7c0,0.6-0.4,1.1-0.5,1.7
		c-0.1,0-0.3,0-0.4,0c-0.2-0.4-0.4-0.8-0.4-1.3c-0.1-1.6,0-3.2,0-4.8c0-3.8,0-7.6-0.1-11.4c-0.1-2-0.3-4.1-0.5-6.1
		c0-0.3-0.2-0.6-0.5-0.9c-0.3,1-0.6,1.9-1,2.9c-1.6,4.1-3.1,8.2-7,10.7c-1.2,0.8-2.7,1.2-4.1,1.6c-3.5,1.2-6.9,2.5-10.5,3.3
		c-3.4,0.7-6.8,0.4-10-1.2c-2.4-1.3-5.1-2-7.6-3.2c-2.5-1.3-4.9-2.8-7.4-4.2c-0.3-0.2-0.6-0.3-1.2-0.3c0.2,0.5,0.3,1,0.5,1.6
		c1.2,3.3,2.5,6.5,3.7,9.8c0.6,1.6,1.4,3.2,1.9,4.9c0.8,2.3,1.4,4.6,2.1,6.9c0.5,1.4,1.1,2.8,1.5,4.3c0.5,1.7,0.3,3.4-0.4,5.1
		c-1.3,3.1-3.9,5-6.2,7.1c-2.7,2.5-5.8,4.7-7.8,7.9c-0.2,0.3-0.5,0.6-0.8,0.9c-1,0.7-1.6,0.7-2.2-0.3c-1.1-1.9-2-3.8-3-5.7
		c-0.6-1-1.3-2-2-3c-1.6-2.2-3.2-4.4-4.8-6.5c-0.3-0.4-0.9-0.7-1.3-1c-0.3-0.2-0.5-0.4-0.8-0.6c-2.9-2.7-5.4-5.8-7.7-9
		c-0.7-1-1.2-1.1-2.2-0.3c-1.1,0.9-2.2,2-3.2,3c-0.3,0.3-0.4,0.8-0.5,1.2c-0.7,3.7-1.4,7.5-2.1,11.2c-0.4,2.2-0.7,4.5-0.8,6.7
		c-0.2,4.1-0.2,8.1-0.3,12.2c0,0.6-0.2,1.1-0.3,1.8c-0.9,0.2-1.4,0-1.4-1c0-3.2,0.2-6.5,0.1-9.7c-0.1-4.6,0.5-9,1.4-13.4
		c0.6-2.8,1-5.7,1.5-8.5c0.1-0.6,0.4-1.2,0.6-1.9c-1.5-0.2-3.1-0.3-4.6-0.6c-0.4-0.1-0.8-0.4-1.2-0.7c0.3-0.3,0.6-0.8,1-0.9
		c0.6-0.2,1.3-0.1,2,0c1.1,0.1,2.1,0.2,3.2,0.4c2.4,0.3,3.9-1.1,4.7-3c1.1-2.6,1.8-5.4,2.6-8.1c0.3-1,0.6-2.1,0.9-3
		c1.3-3.3,2.8-6.5,3.7-9.9c0.5-2,1.6-3.1,3.1-4.1c5.7-3.8,11.5-7.3,17.9-9.8c0.9-0.4,1.9-0.8,2.8-1.3c0.2-0.1,0.3-0.2,0.4-0.3
		c-2.3-1.4-2.8-1.2-2.9-5.6c-0.2,0-0.5,0.1-0.7,0.1c-5.8,1.2-11.1,3.6-16.5,5.8c-0.7,0.3-1.3,0.6-2,1c-1.8,1-3.6,1.8-5.6,2.2
		c-3,0.6-5.5,2.2-7.8,4.1c-0.5,0.4-1,0.7-1.6,0.8c-0.3,0.1-0.7-0.3-1.1-0.5c0.3-0.3,0.5-0.6,0.8-0.8c0.6-0.4,1.3-0.7,1.8-1.1
		c2.5-2.2,5.5-3.4,8.7-4.1c1.1-0.3,2.1-0.7,3.1-1.2c4.1-2.2,8.3-3.8,12.8-5.1c3.2-1,6.4-2.1,9.6-3.1c1.6-0.5,3.3-0.7,5.1-1.1
		c-1.3-1.6-0.8-3.4-0.8-5.4c-4.2,1-8.4,1.9-12.5,3c-5.1,1.3-10.2,2.5-15.2,4.1c-4.6,1.5-9,3.4-13.5,5.1c-1.2,0.5-2.4,1.1-3.6,1.7
		c-0.2,0.1-0.4,0.4-0.6,0.5c-0.4,0.2-0.8,0.2-1.1,0.3c0.1-0.5,0-1.1,0.2-1.4c0.4-0.5,1-0.9,1.7-1c3.4-0.8,6.5-2.7,9.8-3.9
		c6.7-2.4,13.3-4.9,20.3-6.4c4-0.8,7.9-1.7,11.9-2.6c-0.1-0.7-0.1-1.3-0.2-2.2c-1.8,0.3-3.6,0.5-5.4,0.8c-4.5,0.7-8.9,1.4-13.4,2.2
		c-2.3,0.4-4.6,0.9-6.8,1.4c-1.7,0.4-3.5,0.9-5.2,0.9c-2.7,0-5.1,1.1-7.6,1.5c-2.2,0.3-3.7,1.6-4.9,3.3c-0.3,0.4-0.5,0.9-0.8,1.4
		c-0.8-1.1-0.5-1.6-0.2-2.2c1.3-2,3.2-3,5.4-3.6c1.5-0.4,3-0.9,4.5-1.2c1.1-0.2,2.2-0.3,3.4-0.5c1.5-0.2,3-0.4,4.4-0.7
		c3.6-0.6,7.3-1.3,10.9-2c2.6-0.5,5.2-0.9,7.8-1.4c2.1-0.4,4.2-0.7,6.4-1.1c0.3,0,0.5-0.2,0.9-0.3c-1-1.6-0.9-3.3-0.3-4.9
		c-2.6,0.4-5.2,0.8-7.8,1.1c-2.6,0.3-5.3,0.5-7.9,0.7c-2.3,0.2-4.6,0.2-6.8,0.5c-2.9,0.4-5.8,1.1-8.7,1.7c-3.1,0.6-6.3,1.1-9.5,1.7
		c-3,0.5-4.4,2.7-5.3,5.2c-0.7,2.2-0.9,4.5-1.6,6.7c-0.8,2.4-0.7,5-1.3,7.4c-0.6,2.6-1.7,5.1-2.5,7.7c-0.5,2-0.8,4-1.1,6
		c0,0.2,0,0.4-0.1,0.5c-1.5,5.7-3,11.3-4.6,17c-0.7,2.7-1.2,5.6-2.1,8.2c-1.4,4.1-3.1,8.2-4.6,12.3c-1.6,4.2-3.2,8.4-4.5,12.6
		c-0.8,2.5-0.9,5.2-1.4,7.7c-0.2,1.1-0.4,2.3-0.7,3.4c-0.1,0.3-0.6,0.5-0.9,0.5c-0.2,0-0.5-0.5-0.5-0.8c0.1-1,0.3-2,0.4-3
		c0.7-4.8,1.4-9.6,3.3-14.1c1.9-4.6,3.9-9.2,5.6-13.9c1.2-3.3,2.2-6.8,3.1-10.2c1.5-5.4,2.9-10.7,4.3-16.1c0.3-1.2,0.6-2.4,0.9-3.6
		c0.4-1.9,0.6-3.8,0.9-5.6c0.3-1.5,0.7-2.9,1.2-4.3c0.3-0.9,0.1-1.5-0.2-2.3c-0.7-1.6-1.7-3.2-2-4.9c-0.5-2.8-0.8-5.6-0.9-8.5
		c-0.2-4.5,0-8.9,1.2-13.3c0.3-1.1,0.1-2.3,0.3-3.5c0.6-3.6,1.4-7.2,2-10.8c0.2-1.1,0.1-2.3,0.2-3.5c0.2-2.8,0.5-5.5,0.8-8.3
		c0.2-1.6,0.5-3.1,0.5-4.7c0.1-5.9,2.1-11.1,5-16.1c1.5-2.7,2.9-5.4,4.6-7.9c1.7-2.5,3.5-5,5.6-7.1c3.2-3.2,6.8-6.1,10.7-8.5
		c1-0.7,2.3-1.1,3.3-1.7c2.4-1.5,5.3-1.5,7.8-2.9c5.3-2.9,11.1-3.2,17-2.8c2.7,0.2,5.4,1.1,7.9,2.2c1.2,0.5,2.6,0.6,3.7,1.1
		c2.4,1.1,4.8,2.2,7.1,3.5c4,2.2,8,4.1,12.2,5.9c5.6,2.4,9.2,6.9,10.5,12.8c1,4.6,1.9,9.4,1.4,14.2c-0.2,2.1-0.4,4.2-0.5,6.3
		c0,1.3,0.2,2.6,0.3,3.9c0.2,1.9,0.5,3.9,0.4,5.8c-0.1,2.8,0.9,5.3,1.4,8c0.5,2.4,0.7,4.9,1,7.4c0.2,2,0.6,4,0.7,6
		c0.2,4.5,0.4,9,0.4,13.5c0,3.3-0.4,6.5-0.6,9.8c0,0.8-0.1,1.6,0,2.4c0.1,0.3,0.6,0.8,0.9,0.9c2.4,0.6,4.8,1.3,7.2,1.8
		c2.5,0.5,5.1,0.9,7.6,1.5c3.9,0.9,7.7,1.9,11.5,2.8c2.8,0.6,5.7,1.2,8.6,1.7c3,0.6,6,1.1,9,1.8c2.9,0.6,5.2,2.4,7.1,4.6
		c3.1,3.7,5.4,8,7.5,12.3c2.1,4.4,3.8,9.1,5.5,13.8c1.1,3,2.1,6,3.2,9c1.6,4.4,3.1,8.8,4.9,13.2c1.2,3.1,2.5,6.1,4.5,8.8
		c0.1,0.1,0.2,0.3,0.3,0.4c0.4,0.6,0.9,1.3,0.1,1.8c-0.8,0.4-1.4-0.2-1.8-0.8c-0.6-1-1-2-1.7-2.9c-1.1-1.6-1.9-3.3-2.5-5.1
		c-1.5-4.1-3.2-8.1-4.6-12.2c-2.8-8.2-5.2-16.5-8.9-24.3c-2-4.1-4-8.3-7-11.9c-1.5-1.8-2.9-3.7-5.2-4.5c-1.6-0.6-3.4-1-5.1-1.1
		c-3-0.1-5.7-1.4-8.5-2c-0.9-0.2-1.9-0.4-2.8-0.5c-1.8-0.1-3.4,0.6-4.8,1.6c-2.3,1.6-4.3,3.5-6.5,5.3c-0.4,0.4-0.8,0.8-1.3,1.1
		c-0.5,0.4-1.2,0.4-1.5-0.3c-0.1-0.3,0.2-0.9,0.5-1.2c0.8-0.8,1.7-1.5,2.6-2.2C142.7,114.7,144.8,112.9,147,111.2z M46,63.2
		c0.3,2.2,0.5,5,1,7.7c0.3,2.3,0.9,4.6,1.3,6.9c0.1,0.7,0.5,0.8,1.1,0.7c0.8-0.1,1.5-0.2,2.3-0.2c4.1-0.4,8.1-0.7,12.2-1.1
		c0.4,0,0.7-0.2,1.1-0.5c0.5-0.3,0.9-0.9,1.4-1.1c0.9-0.4,1.8-0.5,2.7-0.8c2.3-0.7,4.6-1.5,6.9-2.2c1.9-0.5,3.8-1.2,5.9-0.4
		c1.3,0.5,2.2,1.6,1.6,2.9c-0.6,1.3-1.4,2.5-2.3,3.6c-0.9,1.1-1.1,2.1-0.4,3.3c0.3,0.5,0.4,1.1,0.5,1.6c0.1,0.3,0.2,0.6,0.4,0.8
		c0.5,0.9,1.2,1.7,1.7,2.7c1,2.1,0.5,3.5-1.6,4.6c-1,0.5-2,0.9-3,1.3c-0.6,0.2-0.9,0.4-0.7,1.2c0.6,2.3-0.1,4.3-1.8,5.8
		c-1.6,1.4-3.6,2.3-5.5,3.3c-2.4,1.2-5,2.1-7.4,3.3c-1.4,0.6-1.5,1.4-0.6,2.5c2.4,2.8,4.5,5.9,8,7.6c0.7,0.4,1.5,0.8,2.2,1.2
		c2.8,1.6,5.6,3.2,8.5,4.6c2,1,4.3,1.6,6.3,2.6c2.9,1.5,6,1.8,9,1.1c3.5-0.8,7-2.2,10.4-3.3c1.3-0.4,2.9-0.6,3.9-1.5
		c1.6-1.3,3-3,4-4.8c3.8-6.6,5.2-13.9,5.3-21.3c0.1-7.6,0.4-15.3-0.8-22.9c-0.4-2.5-0.6-5-1.1-7.5c-0.3-1.7-0.8-3.3-1.2-5
		c-0.6-2.6-1.1-5.3-2-7.9c-0.8-2.5-2-4.8-3.1-7.2c-0.3-0.6-0.6-1.1-1-1.6c-1.1-1.5-2.4-2.9-3.4-4.6c-1.8-3.2-4-6.1-6.4-9
		c-0.8-1-1.8-1.4-3-1.1c-2,0.5-3.9,1-5.9,1.4c-2.6,0.6-5.3,0.9-7.9,1.5c-2.6,0.6-4.7-0.1-6.3-2.2c-0.2-0.3-0.4-0.6-0.7-0.8
		c-1.2-1.1-2.3-2.3-3.5-3.3c-2.4-2.2-4.8-4.3-7.2-6.4c-0.6-0.5-1.2-0.7-1.6-0.2c-0.4,0.4-0.6,1.1-0.5,1.6c0.1,0.4,0.6,0.8,1,1.2
		c3.2,2.7,6.4,5.4,9.6,8.1c1,0.9,1.8,2,2.8,2.8c0.8,0.7,0.9,1.3,0.4,2.1c-0.4,0.6-0.9,1.3-1.6,1.6c-3.9,2-7.6,4.6-11.7,6.3
		c-3.3,1.4-6.3,3.5-9.5,5.2c-2.6,1.4-5,3-6.6,5.5c-1.1,1.6-2.1,3.2-2.7,5C46,59.4,46.2,61,46,63.2z M45.2,74.7
		c-0.1-1.2-0.2-2.3-0.3-3.4c-0.2-1.9-1-2.8-2.9-3c-1-0.1-1.3,0.3-1,1.3c0.6,2.2,0.7,4.3-0.9,6.1c-0.8,0.9-1.8,1.7-2.8,2.3
		c-0.9,0.5-1.1,1.3-0.9,2c0.2,0.7,0.9,0.7,1.6,0.5c1.8-0.5,3.6-1,5.4-1.3c0.9-0.2,1.3-0.6,1.5-1.4C45,76.8,45.1,75.8,45.2,74.7z
		 M79.1,79.2c0-1.4-0.4-2.1-1.4-2.2c-0.7-0.1-1.5-0.1-2.2,0c-2.2,0.2-3,1.4-2.8,3.5c0.1,1,1,2.1,1.7,2c1-0.2,2-0.5,3-0.8
		C78.7,81.2,79.1,80.5,79.1,79.2z M76.9,88.9c0,0.2,0,0.4,0,0.7c0.2,1.1,1.3,2.3,2,2c1.2-0.5,2.4-1.1,3.3-2c0.4-0.3,0.5-1.5,0.2-2.1
		c-0.5-0.9-0.9-2.1-2.2-2.1C78.5,85.4,76.9,87.2,76.9,88.9z M74.2,99.6c0.5-0.4,1-0.9,1.5-1.3c1.2-1,1.4-2.4,1.2-3.9
		c-0.1-0.6-0.4-1.1-1.2-1c-0.8,0.1-1.7,0.3-2.5,0.4c-1.6,0.2-2.2,1.9-1.9,3.3C71.7,98.8,73.1,99,74.2,99.6z M40,71.3
		c0-0.5,0.1-0.7,0-0.9c-0.2-0.5-0.4-1.2-0.8-1.3c-0.8-0.2-0.8,0.6-1,1.1c-0.4,1.7-0.9,3.3-1.3,5c-0.1,0.4,0.2,0.8,0.3,1.2
		c0.4-0.2,1-0.2,1.2-0.5C39.3,74.5,40.2,73,40,71.3z M74.3,84.2c0,1,0.3,1.5,1.1,1.2c1.2-0.4,2.5-0.7,3.7-1.2c0.3-0.1,0.8-0.7,0.7-1
		c0-0.6-0.5-0.8-1.1-0.6c-1.3,0.4-2.7,0.6-4,1C74.5,83.7,74.3,84.1,74.3,84.2z M80.3,77.7c0.6-0.9,1-1.5,1.4-2.2
		c0.1-0.3,0.2-0.8,0.1-1c-0.2-0.2-0.6-0.3-1-0.3c-0.8,0.1-1.7,0.2-2.5,0.4c-0.5,0.1-1,0.4-1.5,0.6c0,0.1,0,0.3,0,0.4
		C78.2,75.8,79.6,76.1,80.3,77.7z"/>
	<path class="st0" d="M87.2,89.9c-0.2,1.3-0.4,2.6-0.6,3.9c-0.2,1.4,0.4,2.4,1.3,3.2c0.8,0.8,1.8,0.5,2.7,0c1.6-0.9,3.2-0.9,4.9-0.5
		c0.3,0.1,0.6,0.2,0.9,0.3c2.2,1.1,3.2,0.7,4.4-1.4c0.7-1.2,1.5-2.3,2.4-3.2c0.8-0.8,0.9-1.7,0.4-2.6c-0.5-0.9-1.1-1.8-1.9-2.5
		c-2.9-3-5.8-6-7.5-9.9c-0.4-1-0.9-1.9-1.4-2.8c-1.2-2.4,0-6.2,2.2-7.9c1.2-1,2.2-2.3,3.2-3.6c1.8-2.5,3.9-4.8,6.5-6.4
		c1.4-0.9,3.2-1,4.9-1.4c0.2,0,0.6,0.3,0.7,0.5c0.1,0.2-0.1,0.6-0.3,0.7c-0.7,0.5-1.3,1-2.1,1.3c-1.9,0.6-3,1.9-4.1,3.4
		c-0.6,0.8-1.3,1.6-2,2.3c-2.2,2.2-4.2,4.7-7.1,6.2c-1,0.5-1.3,2.3-0.8,3.8c0.2,0.8,0.6,1.5,0.9,2.2c0.6,1.1,1.3,2.2,1.8,3.4
		c1,2.4,3.1,3.9,4.7,5.8c1.1,1.3,2.3,2.5,3.2,3.9c0.8,1.3,1,2.8-0.2,4.3c-1.3,1.6-2.4,3.3-3.7,4.9c-0.6,0.8-1.5,0.9-2.5,0.6
		c-1.3-0.4-2.6-0.8-3.9-0.9c-1-0.1-2.1,0.3-3,0.7c-2.4,1.1-4.9,0.1-5.3-2.6c-0.2-1.5,0-3.1,0.2-4.6c0-0.4,0.6-0.8,0.9-1.2
		C86.9,89.8,87,89.8,87.2,89.9z"/>
	<path class="st0" d="M96.8,104c2.1,0.5,3.2-0.2,4.1-1.6c0.8-1.1,1.8-2,2.9-2.8c1.2-0.9,2.7-0.6,4.1-0.3c0.9,0.2,1.7,0.6,2.6,0.7
		c1.1,0.2,1.3,0.9,1,1.8c-0.2,0.7-0.5,1.3-0.8,1.9c-1,2-1.9,3.9-2.9,5.9c-0.2,0.4-0.6,0.9-1,1.1c-3.4,2-6.8,4.2-11,3.9
		c-2-0.2-4-0.9-6-1.6c-1.3-0.4-2.6-1.1-3.8-1.7c-0.7-0.3-1.3-0.8-1.9-1.3c-0.2-0.1-0.2-0.4-0.3-0.6c0.2-0.1,0.4-0.3,0.7-0.3
		c2.3-0.2,4.3-1.2,6.2-2.2c1.1-0.6,2.1-1.3,3.1-1.8C94.9,104.5,96,104.2,96.8,104z M87,110.5c0,0.2,0,0.3,0,0.5
		c2.5,0.8,4.9,1.7,7.4,2.4c1.1,0.3,2.3,0.2,3.5,0.1c2.7-0.2,4.8-1.7,7.2-2.8c1.3-0.6,2.2-1.6,2.8-2.8c0.8-1.7,1.6-3.4,2.4-5
		c0.1-0.2,0.2-0.5,0.4-1.1c-0.7,0.3-1.2,0.5-1.5,0.7c-3.7,2.5-7.4,4.6-11.9,5.5C93.8,108.6,90.4,109.6,87,110.5z M109.9,100.8
		c-1-0.4-1.8-0.9-2.7-0.9c-1-0.1-2.2,0-3.1,0.5c-1.1,0.7-2.1,1.7-2.8,2.8c-1,1.5-2.2,2.1-3.9,2c-0.9,0-1.8-0.1-2.6,0.3
		c-2.8,1.3-5.5,2.7-8.2,4.1c0,0,0,0.1,0,0.1c3.8-1,7.6-1.9,11.4-3C102.4,105.4,106.1,103.3,109.9,100.8z"/>
	<path class="st0" d="M99.6,71.9c-0.9,0-1.8,0.1-2.8,0c-0.4-0.1-0.8-0.5-1.2-0.8c0.4-0.3,0.8-0.7,1.2-0.7c1.2,0,2.5,0.1,3.7,0.2
		c3.7,0.3,6.4-1.5,8.7-4.1c0.5-0.5,0.8-1.1,1.3-1.6c0.2-0.2,0.7-0.2,0.9,0c0.2,0.2,0.3,0.7,0.1,0.9c-2.3,3-5.1,5.4-8.9,6
		c-1,0.2-2.1,0-3.1,0C99.6,71.8,99.6,71.9,99.6,71.9z"/>
</g>
</svg>
