<?xml version="1.0" encoding="utf-8"?>
<!-- Generator: Adobe Illustrator 19.2.1, SVG Export Plug-In . SVG Version: 6.00 Build 0)  -->
<svg version="1.1" id="Layer_1" xmlns="http://www.w3.org/2000/svg" xmlns:xlink="http://www.w3.org/1999/xlink" x="0px" y="0px"
	 viewBox="0 0 177.2 200" style="enable-background:new 0 0 177.2 200;" xml:space="preserve">
<style type="text/css">
	.st0{fill:#0288D1;}
</style>
<g id="head-main">
	<path class="st0" d="M8.5,200c-0.1-1-0.3-2.1-0.3-3.1c-0.1-2.1-0.2-4.2-0.4-6.2c-0.2-3.1-0.5-6.2-0.7-9.3c-0.1-1.4-0.2-2.9-0.4-4.3
		c-0.7-4.4-0.1-8.8-0.3-13.2c0-0.2-0.1-0.5,0-0.7c0.6-1.4-0.4-2.1-1.3-2.8c-1.2-1-2.4-1.9-3.7-2.8c-0.1-0.1-0.2-0.1-0.3-0.2
		c-0.9-0.3-1.2-0.8-1-1.7c0.3-1.6,0.7-3.2,1.8-4.6c0.1-0.1,0.1-0.5,0-0.6c-0.6-1.1-0.5-2.2,0.1-3.3c1-1.7,1.6-3.6,2.8-5
		c2.8-3.2,5.6-6.5,9.7-8.2c2.7-1.1,5.5-1.9,8.3-2.8c3.1-1,6.2-2,9.1-3.6c0.2-0.1,0.5-0.4,0.7-0.4c1.8,0.2,1.4-1.2,1.5-2.1
		c0.5-2.9,0.9-5.7,1.3-8.6c0.2-1.7,0.4-3.4,0.5-5c0.2-2.6,0.2-5.2,0.4-7.8c0.1-2.2,0.2-4.3,0.6-6.5c0.2-1.1,0.8-2.3,1.5-3.2
		c2.6-3.4,4.2-7.2,5.2-11.4c0.4-1.8,1.3-3.3,2.6-4.6c1.4-1.5,2.8-3,4-4.6c0.3-0.5,0-1.4,0-2.2c0-1.6-1.4-2-2.4-2.7
		c-0.6-0.5-1-0.9-1-1.7c0-1.2,0.1-2.4-0.2-3.5c-0.3-1-1-1.9-1.6-2.8c-0.1-0.2-0.3-0.3-0.4-0.5c-1.3-1.2-0.8-2.6-0.3-3.9
		c0.8-2,0.6-3.5-1.3-4.9c-1.6-1.1-1.8-2.3-0.9-4.2c0.3-0.6,0.6-1.2,0.9-1.7c0.5-0.9,0.5-1.7,0-2.6c-0.3-0.5-0.6-1-0.8-1.6
		c-0.5-1.5,0.2-2.6,1.1-3.7c0.3-0.4,0.7-0.9,1.1-1.3c0.6-0.8,0.7-1.5,0.6-2.5c-0.3-2.2,0.1-4.2,1.6-6c0.9-1.1,1.8-2.3,1.6-3.9
		c-0.3-2,0.8-3.5,2-4.8c1.3-1.3,2.3-2.7,2.9-4.5c0.6-1.7,2-2.7,3.5-3.6c1.5-0.8,3.1-1.5,4.9-1.8c0.6-0.1,0.9-0.4,1.1-1
		c0.2-0.6,0.3-1.1,0.6-1.7c0.3-0.7,0.9-1.1,1.7-1.1c1,0,2,0.1,3,0.2c0.8,0.1,1.8-0.4,2.3-1.1c1.1-1.6,2.8-2.4,4.6-2.9
		c2-0.5,3.9-0.1,5.8,0.4C80.7,2,80.8,2,80.9,2c1.3,0.6,2.4,0.3,3.6-0.6c2.2-1.8,3.7-1.8,6.1-0.3c0.6,0.4,1.3,0.8,2,1.2
		c0.7,0.4,1.3,0.3,1.9-0.3c0.3-0.3,0.9-0.5,1.4-0.6c2.2-0.4,4-0.1,5.5,2c0.7,1,1.2,1.2,2.5,0.9c1.8-0.4,3.6-0.7,5,0.7
		c0.5,0.5,1.1,1.1,1.2,1.8c0.3,1.7,1.3,2.4,3,2.5c1.1,0,2.2,0,3.3,0.2c1.6,0.2,2.5,1.4,2.7,3.1c0.3,2.8,0.9,3.3,3.5,3.9
		c0.9,0.2,1.8,0.5,2.6,0.9c1.2,0.6,1.6,1.6,1.2,3c-0.4,1.3-0.4,1.3,1,1.7c1,0.3,2,0.7,2.9,1.1c1,0.6,1.5,2.3,1.1,3.8
		c-0.2,0.6-0.4,1.1-0.8,1.6c-0.4,0.6-0.3,1,0.1,1.4c1.2,1.2,2.3,2.3,3.9,2.9c1.6,0.6,1.8,3.2,0.5,4.2c-1.5,1.2-1.4,1.3,0.2,2.7
		c1.1,1,2.3,1.9,2.2,3.6c0,0.6-0.2,0.8-0.8,1c-1.7,0.6-2.5,2.4-2,4.1c0.6,1.9-0.1,3.3-1.8,4.2c-0.2,0.1-0.5,0.2-0.7,0.4
		c-1.2,0.7-1.3,1.2-0.6,2.4c0.7,1.1,1.1,2.2,1,3.6c-0.1,0.7-0.4,1-0.9,1.1c-1.2,0.3-1.8,1.1-2.3,2c-0.5,1,0.3,1.8,0.5,2.7
		c0.1,0.5,0.3,0.9,0.4,1.3c0.1,0.9-0.4,1.6-1.3,1.9c-0.9,0.3-1.7,0.7-2.6,1c-0.7,0.2-1,0.7-0.9,1.4c0.1,0.6,0,1.1,0,1.7
		c0.1,1-0.3,1.8-0.9,2.5c-0.5,0.6-0.8,1.1-0.2,1.9c0.6,0.9,1.1,1.8,1.5,2.8c0.6,1.3,1,2.6,1.7,3.9c1.2,2.2,2.4,4.4,3.6,6.6
		c0.4,0.8,0.8,1.6,1.1,2.4c0.9,2,1.7,4,2.5,6c0.3,0.7,0.5,1.4,0.5,2.1c0.1,2.8,0,5.5,0.2,8.3c0.2,2.1,0.6,4.1,0.9,6.1
		c0.2,1.7,0.5,3.3,0.6,5c0.1,1.1,0.3,2.1,1.1,2.9c0.1,0.2,0.2,0.4,0.2,0.6c0.3,1,0.8,1.5,1.9,1.4c2.6,0,4.9,0.9,7.2,2.2
		c1.4,0.8,2.9,1.4,4.4,2c1.7,0.7,3.3,1.6,5.1,2.1c2.7,0.8,5,2.3,7.2,3.8c2.5,1.7,4.7,3.7,6.8,5.9c1.5,1.6,2.4,3.6,3.2,5.6
		c1.1,2.7,2,5.5,3.1,8.3c0.3,0.8-0.1,1.2-0.7,1.2c-1.9,0.3-3.1,1.6-4.6,2.7c-1,0.8-1,1.8-1.1,2.9c-0.2,2.9-0.4,5.8-0.7,8.7
		c-0.2,2-0.3,4.1-0.6,6.1c-0.2,1.6-0.4,3.1-0.6,4.7c0,0.1-0.1,0.3-0.1,0.4c-0.1,1.6-0.2,3.2-0.2,4.8c0.1,2.6-0.5,5.1-1,7.6
		c-0.4,2-0.8,4-1.2,6c-0.5,0-1,0-1.4,0c0.1-0.3,0.1-0.6,0.2-0.9c0.5-2.2,0.9-4.4,1.5-6.5c0.8-3,0.8-6.1,1-9.2
		c0.2-1.8,0.1-3.6,0.2-5.5c0.2-1.9,0.5-3.8,0.7-5.7c0.2-2.3,0.5-4.6,0.5-6.9c0.1-2.8,0-5.7,0-8.5c0-0.6-0.3-1.2-0.4-1.9
		c-1.1,0.6-2.1,1.1-3,1.8c-2,1.7-4.3,2.8-6.7,3.6c-4.3,1.4-8.7,2.6-13,3.8c-0.3,0.1-0.6,0.5-0.7,0.7c0,0.6,0.1,1.2,0.2,1.9
		c0.2,2,0.4,4.1,0.7,6.1c0.2,1.6,0.3,3.3,0.6,4.9c1,4.2,2.1,8.4,3.2,12.6c0.9,3.3,1.8,6.5,2.6,9.8c-0.4,0-0.8,0-1.3,0
		c-0.7-2.5-1.3-5-2-7.5c-0.8-2.7-1.6-5.4-2.3-8.1c-0.5-1.8-1.2-3.6-1.6-5.5c-0.4-2.4-0.5-4.9-0.8-7.3c-0.1-0.7-0.2-1.5-0.3-2.2
		c-0.2-1.6-0.5-3.2-0.6-4.8c-0.2-2.7-0.3-5.4-0.6-8c-0.3-3.3-0.7-6.5-1.3-9.8c-0.5-2.9-1.1-5.7-1.8-8.5c-0.6-2.3-1.4-4.5-2-6.8
		c-0.4-1.5-0.4-3.1-0.7-4.6c-0.4-2-0.9-4-1.4-6c-0.5-2.2-0.6-4.5-1.2-6.8c-0.9-3.5-1-7.2-1-10.8c0-1.9,0-3.7-0.9-5.5
		c-1.3-2.6-2.4-5.2-3.6-7.8c-0.9-1.9-2.2-3.6-3-5.6c-1.2-3-2.7-5.7-4.4-8.4c-1.7-2.6-3.2-5.3-4.9-7.8c-1-1.5-1.7-3.6-4.2-3.4
		c0,0-0.1,0.1-0.2,0.1c0.8,1.2,1.6,2.3,2.4,3.5c1.6,2.3,3.3,4.5,4.7,6.9c2,3.6,4.8,6.6,6.4,10.5c0.6,1.4,1.3,2.8,1.7,4.2
		c0.4,1.3,0.6,2.6,0.9,4c0.8,3,1.7,6.1,2.4,9.1c0.6,2.5,1,5,1.4,7.6c0.2,1.1,0.3,2.3,0.4,3.4c-1.1,0.3-1-0.5-1.1-1
		c-0.6-3.4-1.1-6.8-1.9-10.1c-1.2-4.9-2.5-9.8-4-14.6c-0.8-2.5-2.2-4.8-3.5-7.1c-0.6-1-1.5-1.9-2-2.9c-1.7-3.3-3.7-6.4-6-9.3
		c-0.6-0.8-1.3-1.4-2.5-1.4c-1.1,0-2.2-0.6-2.8-1.6c-0.2-0.2-0.4-0.5-0.7-0.9c-0.1,1.3-0.2,2.3,0.4,3.3c0.5,0.8,1.1,1.7,1.7,2.5
		c1,1.2,2,2.4,3.1,3.5c0.6,0.7,1.5,1.1,2.1,1.8c1.6,1.9,3.2,3.8,4.8,5.8c1,1.3,1.9,2.7,3,3.9c1.3,1.4,1.7,3,1.9,4.7
		c0.1,1.6-0.1,3.2,0.1,4.8c0.2,2.2,0.5,4.4,1.3,6.6c1.1,3.3,1.9,6.7,2.7,10c0.3,1,0.3,2.1,0.5,3.2c-0.9,0.2-1-0.3-1.1-0.8
		c-0.1-0.3,0-0.6,0-0.9c-0.7-2.6-1.4-5.3-2.1-7.9c-0.6-2.2-1.4-4.3-1.8-6.5c-0.4-2.6-0.4-5.3-0.6-8c-0.1-1.7-0.7-3.3-1.7-4.7
		c-1.5-2.1-3.3-4.1-4.9-6.1c-0.2-0.3-0.7-0.5-1.1-0.5c-1.8,0-3.6,0-5.1-1.3c0.1,0.5,0.2,0.9,0.5,1.3c0.8,1.1,1.7,2.1,2.5,3.2
		c1.2,1.9,2.5,3.7,3.5,5.7c1.3,2.6,1.3,5.4,1.3,8.3c0,1.7-0.6,3-1.2,4.4c-0.3,0.6-0.6,1.3-0.6,2c-0.3,3.7,0.3,7.4,0.5,11.1
		c0.2,3,0.4,6,0.5,9c0.1,1.8,0,3.6,0.2,5.4c0.2,1.4,0.8,2.7,1.3,4c0.9,2.4,1.9,4.7,2.7,7.1c1,3.1,1.7,6.3,1.7,9.7
		c0,3.2-0.1,6.4-0.2,9.5c0,1.2-0.1,2.3-0.2,3.5c-0.3,3.1-0.8,6.2-1.1,9.4c-0.3,2.8-0.4,5.5-0.6,8.3c-0.1,1.5-0.2,3-0.4,4.5
		c-0.2,2.4-0.3,4.7-0.5,7.1c-0.2,2.7-0.5,5.4-0.7,8.2c-0.4,0-0.8,0-1.3,0c0.2-1.6,0.4-3.1,0.5-4.7c0.2-2.7,0.2-5.5,0.4-8.2
		c0.1-1.8,0.2-3.7,0.4-5.5c0.3-3.4,0.6-6.8,0.9-10.2c0.1-1.4,0.2-2.8,0.4-4.3c0.3-2.5,0.7-5,0.9-7.5c0.2-3,0.2-6.1,0.2-9.2
		c0-0.2-0.1-0.4-0.1-0.5c-1.4,0.2-2.8,0.5-4.2,0.6c-1.8,0.1-3.6,0-5.5,0.1c-1,0-2.1,0.1-3.1,0.4c-0.5,0.2-0.7,1.1-0.9,1.7
		c-1.7,4.1-3.3,8.1-5,12.2c-2,4.6-3.5,9.5-6.2,13.8c-0.9,1.5-1.7,3.1-2.7,4.5c-1,1.4-2.2,2.7-3.3,4c-1.5,1.7-2.2,3.8-3.2,5.8
		c-0.3,0.6-0.3,1.1,0,1.7c1,1.8,1.9,3.6,2.9,5.4c-0.5,0-1.1,0-1.6,0c-1.1-2.2-2.2-4.4-3.4-6.6c-0.9-1.6-1.9-3.1-2.8-4.7
		c-0.5-0.9-0.6-1.9-1.1-2.8c-1.1-2-2.4-3.9-3.6-5.9c-1.4-2.4-2.7-4.8-4-7.2c-1.4-2.8-2.8-5.6-4-8.6c-1.2-2.9-2.1-5.8-3.1-8.7
		c-0.1-0.3-0.2-0.7-0.5-0.8c-0.5-0.3-1.1-0.4-1.7-0.6c-1.8-0.4-3.6-0.7-5.4-1.1c-1.5-0.3-3.1-0.5-4.6-0.9c-1.2-0.4-2.2-1.2-3.4-1.7
		c-1.6-0.7-2.9-1.7-3.7-3.3c-0.1-0.3-0.3-0.5-0.6-0.8c-0.1,0.4-0.2,0.7-0.2,0.9c0,2.2,0,4.3,0,6.5c0,0.5,0,1,0.1,1.5
		c0.7,3.2,1.4,6.3,1.4,9.5c0,2.1-0.1,4.1-0.1,6.2c0,1.9,0.1,3.9,0.2,5.8c0.1,2,0.4,4.1,0.5,6.1c0.2,3.3,0.4,6.6,0.6,9.9
		c0,0.3,0,0.6,0,0.9c0.3,2,0.6,4.1,0.9,6.1c-0.4,0-0.8,0-1.3,0c-0.1-0.9-0.3-1.9-0.4-2.8c-0.2-2-0.5-4-0.7-6
		c-0.2-1.9-0.2-3.9-0.4-5.8c-0.2-2.8-0.6-5.7-0.7-8.5c-0.1-4.2,0-8.4-0.1-12.6c0-1.7-0.4-3.5-0.6-5.2c-0.3-2.2-0.9-4.3-0.8-6.5
		c0.1-1.2,0-2.5,0-3.7c0.1-2.4,0.4-4.8,0.5-7.2c0.1-2.7,1.3-5,2.4-7.4c0.9-1.8,1.7-3.8,2.3-5.7c0.4-1.4,0.6-3,0.7-4.5
		c0.1-1.2,0.1-2.4,0-3.6c0-0.9-0.3-1.9-0.3-2.8c0.1-2.8,0.3-5.5,0.3-8.2c0.1-3.4-0.4-6.8-1.5-10.1c-0.6-1.9-0.9-3.9-0.5-5.9
		c0.4-1.4,0.8-2.9,1.4-4.3c1.3-3.1,2.6-6.2,4-9.3c0.6-1.3,0.8-3.6-0.3-4.3c-0.1,0.4-0.3,0.7-0.4,1c-0.5,1.6-1.4,2.2-3,2.4
		c-0.3,0-0.7,0.2-0.9,0.5c-0.5,1-1.1,2.1-1.4,3.2c-0.4,1.2-0.8,2.5-1.8,3.3c-1.4,1.3-1.9,2.9-1.9,4.7c0,0.9,0.1,1.8-0.2,2.6
		c-0.4,1.3-1,2.5-1.6,3.8c-1.2,2.8-1.5,5.7-1.9,8.7c-0.2,1.3-0.2,2.5-0.5,3.8c-0.4,2.2-1.1,4.5-1.5,6.7c-0.3,1.9-0.5,3.8-0.8,5.6
		c0,0.2-0.3,0.6-0.4,0.6c-0.3,0-0.6-0.1-0.8-0.3c-0.1-0.2,0-0.6,0-0.8c0.1-0.3,0.2-0.5,0.3-0.8c0.2-1.5,0.2-3.1,0.6-4.5
		c1.4-4.4,1.7-9,2.4-13.5c0.4-2.7,1.1-5.2,2.4-7.6c0.3-0.6,0.6-1.2,0.7-1.9c0.2-1.2,0.2-2.4,0.4-3.6c0.3-1.6,0.7-3.1,1.9-4.3
		c0.7-0.7,1-1.7,1.3-2.6c0.4-1.2,0.7-2.4,1.5-3.4c0.3-0.3,0.2-0.9,0.4-1.6c-1.4,1.4-2.6,2.7-3.8,4c-0.1,0.1-0.2,0.3-0.3,0.5
		c-0.5,1.8-0.9,3.7-1.5,5.5c-0.9,2.6-1.9,5.2-2.9,7.8c-0.5,1.2-1.3,2.4-1.6,3.6c-0.5,2.2,0,4.4-0.8,6.6c-0.1,0.3-0.4,0.5-0.5,0.7
		c-0.2-0.3-0.5-0.7-0.5-1c0.1-1.6,0.3-3.1,0.5-4.7c0.1-0.8,0.1-1.7,0.4-2.4c0.5-1.2,1.2-2.4,1.7-3.6c1.6-3.3,2.6-6.9,3.5-10.5
		c0.3-1.2,0.7-2.7,1.5-3.5c2.2-2.3,4-4.8,5.9-7.4c1-1.4,1.9-2.8,2.8-4.3c0.1-0.2,0.1-0.5,0.1-0.7c-0.1-0.1-0.2-0.1-0.2-0.2
		c-0.3,0.2-0.6,0.4-0.9,0.6c-0.4,0.5-0.7,1-1.1,1.5c-2.1,3.2-4.3,6.2-6.8,9.1c-1,1.1-1.8,2.4-2.2,3.9c-1,4.2-2.5,8.2-5.2,11.7
		c-0.6,0.8-1.2,1.9-1.4,2.9c-0.3,2.3-0.5,4.7-0.6,7.1c-0.1,2.1-0.1,4.2-0.2,6.4c-0.1,1.3-0.3,2.6-0.5,3.9c-0.2,1.8-0.5,3.6-0.8,5.4
		c-0.1,0.9-0.1,1.9-0.2,2.9c-0.2,1.2-0.5,2.4-0.7,3.6c-0.4,2.2-0.6,4.4-1,6.6c-0.4,2.5-0.9,4.9-1.3,7.4c-0.4,2.1-0.7,4.2-1.1,6.4
		c-0.3,1.8-0.5,3.7-0.7,5.5c-0.1,1.3-0.1,2.7-0.2,4c-0.2,2.6-0.5,5.2-0.7,7.8c-0.2,1.7-0.4,3.5-0.6,5.2c-0.1,0.8-0.3,1.5-0.5,2.2
		c-0.1,0.4-0.4,0.7-0.5,1c-0.6,2.6-1.1,5.1-1.7,7.7c-0.9,4.2-1.8,8.5-3.3,12.5c-0.9,2.3-2,4.5-3,6.8c-0.5,0-1.1,0-1.6,0
		c2.6-4.9,4.5-10.1,5.7-15.5c1.3-5.7,2.5-11.4,3.7-17.2c0.4-1.8,0.4-3.6,0.5-5.4c0-0.2-0.2-0.5-0.4-0.7c-1.4-1.4-3.1-2.3-4.9-3
		c-2.9-1-5.7-2.4-8.4-4c-1.7-1-3.3-2.1-4.9-3.2c-0.5-0.3-1.1-0.4-1.6-0.7c-0.1,0.6-0.2,1.1-0.3,1.6c-0.2,3.3-0.5,6.7-0.5,10
		c-0.1,4.2-0.1,8.4,0,12.6c0,2,0.3,3.9,0.5,5.9c0.2,2.5,0.5,4.9,0.7,7.4c0.1,1.8,0.1,3.5,0.2,5.3c0.1,2.2,0.3,4.4,0.5,6.7
		C9.3,200,8.9,200,8.5,200z M63.5,66.4c-0.6,1.6-1.1,3-1.7,4.3c-0.9,2-1.9,4-2.8,6c-0.3,0.7-0.3,1.4,0,2.2c0.5,1.4,0.8,2.9,1.1,4.4
		c0.5,2.4,0.8,4.8,1.2,7.2c0.3,1.4,0.6,2.8,1,4.2c0.6,2.2,1.1,4.4,2,6.5c1.4,3.1,3.6,5.7,5.9,8.1c1.8,1.9,3.6,3.8,5.5,5.5
		c1.9,1.7,4,3.2,6.6,3.6c0.8,0.1,1.7,0.3,2.5,0.3c2.1,0,4.1,0.2,6.1-0.1c2-0.3,3.7-1.6,5.3-2.9c2.1-1.6,4.2-3.3,6.2-5
		c1.5-1.3,3.2-2.6,4.3-4.4c1.1-1.8,2.3-3.5,3.4-5.2c0.3-0.5,0.8-1,1-1.5c0.6-1.7,1.2-3.4,1.6-5.1c0.5-2.4,0.9-4.8,1.3-7.2
		c0.1-0.7,0.3-1.6,0-2.2c-0.7-1.3-1.5-2.6-2.5-3.8c-1.7-2-1.8-5.1-0.1-7c0.1-0.2,0.1-0.6,0-0.8c-0.2-0.4-0.6-0.6-0.9-0.9
		c-1.7-2-3.3-4.1-3.3-6.9c-2.1,0.1-4.3,0.4-6.4,0.3c-2.4-0.2-4.5,0.8-6.7,1.5c-1.3,0.4-2.6,1-3.9,1.4c-0.3,0.1-0.7-0.2-1-0.3
		c0.1-0.4,0.2-0.9,0.5-1.1c1.9-1.5,4-2.4,6.4-2.5c3.6-0.1,7.2-0.3,10.8-0.3c1,0,1-0.6,0.9-1.2c-0.2-2.1,0-3.9,1.9-5.2
		c0.8-0.5,0.6-1.3-0.3-1.9c-0.5-0.3-0.9-0.6-1.3-1.1c-1.3-1.5-1.5-3.4-1.9-5.3c-0.2-1.3-0.7-2.5-1.8-3.4c-1.2-1.1-2.6-2-3.5-3.5
		c-0.3-0.6-0.9-1.1-1.5-1.5c-3.4-2.3-7.2-3.4-11.2-3.6c-2.6-0.1-5.2,0-7.8,0c-0.7,0-1.3,0.1-2,0.2c-0.9,0.1-1.8,0-2.6,0.2
		c-0.8,0.2-1.5,0.5-2.2,1c-1.6,1.2-3.4,2.2-5.3,2.9c-2.5,0.9-4.5,2.6-6.5,4.2c-1.5,1.1-2.5,2.7-2.9,4.6c-0.3,1.3-0.7,2.7-0.8,4.1
		c-0.1,1.7-1.2,3.3-0.1,5c0.3-0.3,0.5-0.6,0.8-0.9c0.5-0.5,2-0.8,2.6-0.5c1.7,1,3.2,3.3,2.3,5.4c-0.2,0.4-0.3,0.8-0.4,1.3
		c0.4,0,0.6,0,0.9,0.1c2.4,0.1,4.9,0.3,7.3,0.4c2.3,0.1,4.2,1.2,6.2,2.2c0.2,0.1,0.3,0.6,0.3,1c0,0.2-0.4,0.5-0.6,0.4
		c-0.9-0.1-1.9,0-2.6-0.4c-2.3-1.5-5-1.9-7.6-2.4C66.2,66.2,64.7,66.4,63.5,66.4z M108.3,106.6c-0.1,0-0.2-0.1-0.3-0.1
		c-0.2,0.3-0.5,0.6-0.7,0.8c-0.7,0.9-1.3,1.9-2.2,2.6c-3.1,2.6-6.3,5.1-9.4,7.6c-0.9,0.7-2,1.4-3.1,1.8c-3.5,1.3-7.1,1-10.6,0.2
		c-1.6-0.4-3.1-1.4-4.7-2.2c-2.3-1.2-4.2-2.9-5.9-4.9c-0.9-1.1-1.8-2.1-2.9-3.3c-0.1,1.5-0.3,2.9-0.2,4.2c0.1,1.5-0.4,2.5-1.7,3.2
		c-0.1,0.1-0.2,0.2-0.3,0.3c-1.3,0.8-2.3,2-3.9,2.1c-0.2,0-0.4,0.3-0.5,0.5c-0.1,0.4-0.2,0.9-0.2,1.3c0,2.1,0,4.2,0.2,6.3
		c0.2,2.2,0.5,4.5,1,6.6c1,3.7,2.1,7.4,3.3,11.1c1,3.3,2.2,6.5,3.3,9.8c0.9,2.8,1.8,5.6,2.8,8.4c1,2.6,2.2,5.1,3.4,7.7
		c0.3,0.7,0.6,1.7,1.6,1.9c1.6,0.4,3.3,0.8,4.9,1c1.2,0.2,2.5,0.1,3.8,0.1c2.3,0,4.7,0.1,7-0.1c1.8-0.1,3.5-0.8,5.3-1
		c1.5-0.1,2.2-0.9,2.8-2.3c1.3-3.6,2.9-7.2,4.3-10.8c1.2-2.9,2.4-5.8,3.5-8.7c0.9-2.3,1.7-4.7,2.6-7c0.9-2.4,1.8-4.7,2.2-7.2
		c0.4-2.5,1.1-4.9,2-7.2c1-2.6,2.2-5.2,1.8-8.3c-0.2-1.5-0.1-2.8-1.9-3.2c-0.1,0-0.2-0.2-0.4-0.2c-1.6-1.3-3.3-2.3-4.6-3.8
		C108.9,111.7,107.8,109.4,108.3,106.6z M175.7,154.6c-1-2.7-2-5.4-3.1-8c-0.7-1.6-1.5-3.2-2.6-4.5c-2.6-3-5.6-5.6-9-7.5
		c-2.4-1.3-5.1-2.3-7.6-3.5c-2.5-1.2-5.1-2.4-7.6-3.6c-1-0.5-2-1-3.1-1.2c-1.2-0.2-2.5,0-3.8,0c0,0,0,0.1,0,0.3
		c0,2.3,0.7,4.5,1.4,6.7c0.6,1.7,1.3,3.4,1.6,5.1c0.6,2.9,1,5.9,1.5,8.8c0.1,0.7,0.2,1.5,0.3,2.2c0.1,0,0.2,0,0.3,0.1
		c1.2-2.6,2.4-5.3,3.6-7.9c0.3-0.7,0.5-1.4,0.9-2.1c0.1-0.2,0.6-0.5,0.8-0.4c0.4,0.2,0.7,0.4,0.4,1.1c-1.5,3.5-2.9,7-4.4,10.4
		c-0.7,1.6-1.1,3.2-0.9,4.9c0.3,2.3,0.5,4.5,0.7,6.8c0,0.5,0.1,0.7,0.7,0.5c1.9-0.5,3.8-0.9,5.7-1.5c2.8-0.9,5.7-1.6,8.3-2.8
		c3-1.4,5.7-3.3,8.6-4.9c0.7-0.4,1.6-0.8,2.4-0.8c0.7,0,1.6,0,2,0.9C173.7,155.4,173.8,155.3,175.7,154.6z M3.2,148
		c0.6,0.1,1.3,0.2,1.9,0.3c2.9,0.3,5.5,1.4,7.9,2.9c1.7,1,3.2,2.3,5,3.2c2,1.1,4.2,1.9,6.3,2.8c1.6,0.8,3.2,1.6,4.9,2.4
		c0-0.1,0.2-0.3,0.2-0.4c0.1-1.7,0.2-3.5,0.4-5.2c0.1-1.2,0.3-2.4,0.3-3.5c0.1-1.1,0.6-2.3-0.2-3.4c-1.1-1.5-2.2-3.1-3.3-4.6
		c-0.4-0.6-0.9-1.1-1.2-1.8c-0.1-0.3,0.1-0.7,0.2-1c0.3,0.1,0.8,0,0.9,0.3c1.3,1.8,2.6,3.6,3.8,5.4c0.1,0.2,0.3,0.4,0.5,0.6
		c1-5.9,2-11.7,3.1-17.7c-0.5,0.3-0.8,0.4-1.1,0.6c-0.7,0.4-1.4,0.8-2.1,1.2c-3.5,1.6-7.2,2.5-10.8,3.7c-2.1,0.7-4.1,1.5-6.1,2.5
		c-1.2,0.6-2.3,1.4-3.2,2.4c-1.7,1.6-3.4,3.3-4.8,5.1C4.5,144.9,3.9,146.5,3.2,148z M60.4,119.3c-0.3,0.1-0.6,0.3-0.9,0.5
		c-1.3,0.9-3.3,0.7-4,2.5c0,0-0.1,0-0.2,0.1c-0.2,0.2-0.5,0.4-0.5,0.7c-0.3,1.3-0.7,2.7-0.8,4.1c-0.3,2.8-1.4,5.3-2.7,7.7
		c-1.2,2.3-2.2,4.6-2.4,7.2c0,0.6-0.2,1.2,0,1.7c1.1,4,4.3,6,7.9,7.2c1.5,0.5,3.1,0.7,4.6,1c2,0.4,4,0.8,6,1.1
		c-0.1-0.3-0.1-0.4-0.1-0.5c-1.1-3.3-2.3-6.6-3.3-9.9c-1.2-3.9-2.6-7.8-2.9-11.9c-0.2-2.1-0.5-4.1-0.7-6.2
		C60.3,122.8,60.4,121.1,60.4,119.3z M55.4,120.1c0.7-0.3,1.2-0.5,1.7-0.8c1.7-0.8,3.3-2,5.4-1.7c0.2,0,0.4-0.1,0.6-0.2
		c1.2-0.8,2.4-1.7,3.6-2.5c0.2-0.1,0.3-0.5,0.3-0.8c0.1-2,0.1-4,0.2-6c0-0.2,0-0.4-0.1-0.5c-0.5-0.7-1-1.3-1.4-2
		c-1.4-2.1-2.9-4.1-3.6-6.6c-0.5-2-1-4.1-1.4-6.2c-0.4-1.8-0.7-3.7-1.1-5.5c-0.1-0.3-0.3-0.7-0.6-0.8c-1.4-0.7-2.4-1.6-3.2-3.2
		c-0.6,1.4-1.2,2.6-1.8,3.9c-0.7,1.4-0.5,2.2,0.9,3.1c0.8,0.5,1.3,1.2,1.5,2.2c0.2,1.3,0.4,2.6,0.5,3.9c0.1,1.5,0.2,3-0.1,4.4
		c-0.4,1.6-1.1,3.2-1.8,4.7c-1,2.1-1.2,4.2-0.8,6.4c0.2,1.2,0.6,2.4,0.7,3.6C55.2,116.9,55.3,118.4,55.4,120.1z M117.3,116.7
		c-0.1-1.7-0.1-3.2-0.3-4.8c-0.1-1.2-0.4-2.4-0.4-3.5c0-2.1-0.1-4.2,0.2-6.2c0.1-1,0.9-1.9,1.1-3c0.7-3.1,0.7-6.1-0.5-9.1
		c-0.5-1.1-0.9-2.3-2-3.2c-0.1,0.3-0.1,0.5-0.2,0.6c-0.3,1.7-0.5,3.5-0.9,5.2c-0.5,2-1,4-1.7,5.9c-0.4,1.1-1.1,2.2-1.7,3.3
		c-0.7,1.2-1.6,2.1-1.8,3.6c-0.3,2.6,0.3,4.9,1.8,6.9C112.5,114.5,114.4,116.2,117.3,116.7z M117.3,129.1
		C117.4,129,117.3,129,117.3,129.1c-0.9,2.1-1.7,4.2-2.1,6.5c-0.4,2.2-1,4.3-1.7,6.4c-0.8,2.4-1.9,4.7-2.9,7.3c1.3,0,2.4-0.1,3.5,0
		c2.5,0.4,4.9,0.1,7.3-0.4c1.8-0.4,1.8-0.4,1.7-2.2c-0.3-3.6-1.5-6.9-2.7-10.2C119.3,133.9,118.3,131.5,117.3,129.1z M53,90
		c-0.3,0.8-0.7,1.6-0.8,2.5c-0.2,1.3-0.5,2.7-0.3,4c0.5,2.7,1.2,5.4,1.9,8.1c0,0.2,0.2,0.3,0.3,0.5c0.1-0.2,0.3-0.3,0.4-0.5
		c0.1-0.3,0.2-0.6,0.3-0.9c0.7-1.7,1.4-3.4,1.2-5.4c-0.1-1.2-0.2-2.3-0.2-3.5C55.7,92.8,55.2,91,53,90z M61.1,64.8
		c-0.5,0.5-1,1.1-1.5,1.7c-0.9,0.9-2,1.7-2.8,2.7c-1,1.3-1.8,2.7-2.9,4.3c2.6-0.5,3.2,1.3,4,2.9c0.2-0.2,0.3-0.4,0.3-0.5
		c0.6-1.6,1.3-3.1,1.9-4.7c0.5-1.2,1.2-2.3,1.7-3.6c0.2-0.5,0.3-1.1,0.1-1.6C61.9,65.6,61.4,65.2,61.1,64.8z M122.2,74.2
		c0.1,0,0.3,0,0.4,0c0.1-0.5,0.3-1,0.3-1.5c-0.1-1.7-0.3-3.4-0.5-5.1c-0.1-1.1-1.4-1.8-2.3-1.2c-0.9,0.6-1.3,1.8-0.8,2.7
		C120.3,70.9,121.3,72.5,122.2,74.2z M3.1,149.4c-0.1,0.1-0.1,0.2-0.2,0.2c1.3,2,2.5,3.9,3.8,6c0.1-2,0.2-3.8,0.4-5.8
		C5.7,149.7,4.4,149.6,3.1,149.4z M111.4,58.8c-1.6,0.9-1.8,1.5-1,2.6c0.3,0.4,0.6,0.9,1,1.2c0.7,0.6,1.5,1.2,2.8,1.1
		C113.2,62,112.3,60.4,111.4,58.8z M116.6,78.3c-1.1-1-2.2-2-3.3-2.8c-0.5-0.4-1-0.1-1.3,0.4c-0.3,0.5-0.4,0.9,0.1,1.3
		c0.3,0.2,0.5,0.5,0.7,0.7C113.6,78.5,115.6,78.8,116.6,78.3z M58,79.1c-2.2,2.5-1.1,5.1,1.3,6.2c-0.1-0.8-0.2-1.6-0.3-2.4
		C58.7,81.7,58.4,80.5,58,79.1z M60.6,59.3c-1.5,1-1.8,2.5-2.6,4c0.9,0,1.5,0,2.1,0c0.2,0,0.5-0.2,0.6-0.4
		C61.4,62.1,61.3,60.2,60.6,59.3z M55.4,74.5c-1.3-0.5-2.3,0-2.7,0.8c-0.2,0.5-0.3,1.1-0.4,1.7c-0.1,0.8,0.3,1.1,1.1,0.8
		c0.7-0.3,1.2-0.8,1.5-1.6C55,75.7,55.2,75.1,55.4,74.5z M170.5,157.8c2-0.6,2.7-2,1.6-3.5c-0.2-0.2-0.7-0.3-1-0.3
		c-0.5,0-0.7,0.3-0.7,0.8C170.5,155.8,170.5,156.8,170.5,157.8z M4.9,155.4c-0.7-1.2-1.4-2.2-2-3.2c-0.1,0-0.2,0-0.3,0
		c-0.4,1.1-0.8,2.2-1.4,3.5C2.7,155.6,3.7,155.5,4.9,155.4z M6.5,159.9c0.1-1.3,0.1-2.4,0.2-3.4c-1.3,0.2-2.5,0.4-4,0.6
		C4.1,158.1,5.2,158.9,6.5,159.9z M60.3,64.2c-1,0.1-2.1-0.4-2.6,0.6c-0.5,0.8-1.1,1.7-0.7,3C58.1,66.6,59.1,65.5,60.3,64.2z
		 M112.7,66.5c-0.6-0.9-1.1-1.7-1.6-2.5c-0.3-0.5-0.8-0.6-1.2-0.2c-0.2,0.2-0.5,0.5-0.4,0.6C109.8,65.6,111.4,66.6,112.7,66.5z
		 M62.3,60.4c-0.1,0.8,0,1.6-0.3,2.3c-0.5,1,0,1.6,0.5,2.2C63.6,62.8,63.6,61.8,62.3,60.4z M110,62.7c-0.3-0.4-0.5-0.8-0.9-1.4
		c0,0.7,0,1.2,0,1.7C109.4,62.9,109.7,62.8,110,62.7z"/>
	<path class="st0" d="M99.1,100.1c-0.3,0.5-0.4,0.8-0.6,1c-2.2,2.3-4.1,4.9-6.9,6.6c-2.1,1.3-4.3,1.4-6.7,1.2
		c-2.1-0.2-3.7-1.1-5.3-2.4c-1.6-1.4-3.3-2.6-4.9-4c-0.8-0.7-0.7-1.1,0.3-1.5c2.2-0.8,4.5-1.6,6.7-2.5c1.2-0.4,2.3-0.3,3.4,0.2
		c0.8,0.4,1.4,0.2,2.1-0.2c0.6-0.3,1.3-0.6,2-0.7c2.2-0.2,4.4,0.1,6.5,1C96.8,99.4,97.9,99.7,99.1,100.1z M96.8,101.8
		c0-0.1-0.1-0.2-0.1-0.3c-3.3,0.6-6.6,1.5-10,1.8c-3.3,0.2-6.7-0.3-10.2-0.5c1.3,1.1,2.5,2.1,3.8,3.1c0.7,0.5,1.5,1.1,2.3,1.4
		c2.8,1.3,5.6,1.3,8.2-0.2c1.5-0.8,2.7-2.1,4-3.2C95.5,103.3,96.1,102.5,96.8,101.8z M76.4,101.6c0.6,0.1,0.9,0.1,1.3,0.1
		c2.1,0.2,4.1,0.1,6.1-0.1c2.3-0.3,4.6-0.2,6.9-0.4c1.8-0.1,3.7-0.4,5.5-0.6c0-0.1,0-0.3,0-0.4c-0.9-0.3-1.7-0.7-2.6-1
		c-2-0.7-4-0.9-6,0.2c-1,0.5-2,0.6-3,0.1c-0.9-0.4-1.9-0.5-2.9-0.1C80.1,100.1,78.4,100.8,76.4,101.6z"/>
	<path class="st0" d="M80.5,90.6c1-0.1,1.9,0.4,2.8,1.1c1.6,1.3,2.4,1.4,4.2,0.1c0.4-0.3,0.7-0.7,1.1-0.9c0.5-0.2,1.1-0.5,1.6-0.3
		c0.8,0.2,1.6,0.4,2.2-0.3c0.5-0.5,0.5-2,0-2.7c-0.4-0.6-1-1.2-1.4-1.8c-0.2-0.2-0.1-0.6-0.1-0.9c0.3,0.1,0.8,0,0.9,0.2
		c1.2,1.3,2.1,2.7,1.8,4.5c-0.2,1.4-1.8,2.5-3.2,2.1c-0.8-0.2-1.3-0.1-1.9,0.5c-1.4,1.3-3.2,1.7-4.5,1c-0.6-0.3-1.2-0.8-1.7-1.2
		c-0.9-0.7-2.1-0.5-3.1-0.6c-1.5-0.2-2.3-1.1-2.1-2.5c0.2-1.4,0.9-2.6,1.9-3.6c0.1-0.1,0.5,0,0.7,0c-0.1,0.3,0,0.8-0.2,0.9
		c-0.8,0.6-1.1,1.4-1.3,2.3c-0.4,1.5,0.1,2.2,1.7,2.2C80,90.6,80.2,90.6,80.5,90.6z"/>
	<path class="st0" d="M93.4,72.2c1.6,0.3,3.3,0.6,4.9,1.1c1.9,0.6,3.5,0.2,5.1-0.8c0.6-0.4,1.1-1,1.7-1.4c0.2-0.1,0.7-0.2,0.8-0.1
		c0.2,0.2,0.3,0.6,0.2,0.9c-0.8,1.7-2.3,2.4-4,2.8c-1.9,0.4-3.7-0.1-5.5-0.4c-1.1-0.2-2.3-0.6-3.4-0.8c-0.7-0.1-1.4,0.2-2.2,0.3
		c-0.3,0-0.6-0.1-0.9-0.2c0.1-0.3,0.2-0.7,0.4-0.8C91.4,72.5,92.4,72.4,93.4,72.2z"/>
	<path class="st0" d="M71.2,75.2c-1.8,0.2-3.4,0-4.8-1.2c-0.8-0.6-1.4-1.4-2-2.1c-0.1-0.1,0-0.6,0.2-0.7c0.1-0.1,0.5,0,0.7,0.1
		c0.6,0.5,1.2,1,1.8,1.5c2,1.8,4.4,1.6,6.8,1c1.5-0.3,2.9-0.9,4.3-1.2c0.2-0.1,0.6,0.2,0.9,0.3c-0.1,0.3-0.2,0.7-0.4,0.8
		c-1.6,1-3.4,1.3-5.3,1.4C72.6,75.3,71.9,75.2,71.2,75.2z"/>
</g>
</svg>
