<?xml version="1.0" encoding="utf-8"?>
<!-- Generator: Adobe Illustrator 19.2.1, SVG Export Plug-In . SVG Version: 6.00 Build 0)  -->
<svg version="1.1" id="Background_copy_2_xA0_Image_1_"
	 xmlns="http://www.w3.org/2000/svg" xmlns:xlink="http://www.w3.org/1999/xlink" x="0px" y="0px" viewBox="0 0 200 181.3"
	 style="enable-background:new 0 0 200 181.3;" xml:space="preserve">
<style type="text/css">
	.st0{fill:#C2185B;}
</style>
<g id="icon-hemorrhoids">
	<path class="st0" d="M170.9,0c0.6,0,1.2,0,1.8,0c2.3,7.2,1.5,14.5,0.1,21.6c-1.5,7.8-2,15.6-2.7,23.4c-0.5,5.5-0.2,11-0.6,16.5
		c-0.4,5.5-0.9,11-1.9,16.4c-1.3,6.8-3.2,13.4-4.9,20.3c1.6,0,3.3,0,5,0c0.2,2.1-1.2,1.8-2.2,1.8c-3.7,0-6.6,1.1-7.9,4.9
		c-1.2,3.6-2.3,7.2-3.4,10.8c-0.9,2.9-1.6,6.2-4.4,7.8c-5.1,2.8-10.1,5.6-16,6.5c-0.9,0.1-1.7,1.1-2.7,1.9c0.7,0.5,0.9,0.7,1.2,0.8
		c2.9,1,5.7,0.2,8.6-0.3c4.7-0.9,9.4-1.6,13.3-4.6c1.2-1,2.5-1.9,3.9-2.6c0.7-0.4,1.6-0.3,2.3-0.4c0.2,0.3,0.3,0.6,0.5,0.9
		c-2.9,1.4-4.2,4-5.6,6.6c0,0.1-0.1,0.1-0.2,0.2c-4.7,3.9-8.7,8.6-14.1,11.5c-2.3,1.2-4.4,3-6.4,4.8c-0.6,0.5-0.5,1.7-0.7,2.7
		c1,0,2.1,0.3,2.9,0c3.7-1.4,7.4-3.2,11.1-4.6c5.1-1.9,9-5.2,11.2-10.3c0.4-1,1.3-1.8,2-2.7c0.2,0.1,0.5,0.3,0.7,0.4
		c0,0.6,0.1,1.3-0.1,1.7c-1.5,2.9-3,5.9-4.7,8.6c-1.1,1.7-2.4,3.5-4,4.7c-3,2.4-6.3,4.4-9.5,6.6c-1.7,1.1-2.7,3.5-1.8,4.4
		c1.5,1.4,3,0.1,4.3-0.6c2.6-1.4,5.2-2.9,7.8-4.3c4.6-2.5,8.8-5.1,9.7-11c0.4-2.3,1.8-4.5,3-6.7c0.3-0.6,1.2-0.8,1.8-1.2
		c0,0.7,0.2,1.5,0,2.2c-1,2.9-2.2,5.7-3.2,8.6c-1,2.9-2.7,5.1-5.1,7c-1.9,1.4-3.6,3-5.3,4.7c-0.5,0.5-0.5,1.5-0.7,2.3
		c0.8,0,1.8,0.4,2.5,0c1.2-0.6,2.2-1.5,3.3-2.3c4.5-3.4,8.4-7.3,10.7-12.6c1-2.4,1.2-5.2,2-7.7c0.6-1.9,1.5-3.7,2.7-5.2
		c0.4-0.5,2.2,0.1,3.5,0.2c0-4.3,0.7-8.8-0.2-13c-0.8-4-1.4-7.9-0.6-11.9c1.2-6.4,2.1-12.8,3.7-19.1c1.3-5.1,3.7-9.9,5.3-14.9
		c2-6.3,3.7-12.7,5.5-19c1.1-3.9,2.5-7.7,3.1-11.6c0.8-6.1,1.1-12.2,1.4-18.4c0.4-8.6,0.6-17.1,1-25.7c0.8,0,1.5,0,2.3,0
		c0,4.3,0.2,8.6-0.1,12.9c-0.4,7.9-1.1,15.7-1.8,23.6c-0.4,4.8-0.5,9.7-2.1,14.4c-1.8,5.3-3.3,10.7-4.9,16c-2,6.2-4.3,12.4-5.9,18.7
		c-1.9,7.2-3.2,14.5-4.8,21.7c-0.8,3.5-1.4,7-0.4,10.6c1.8,6.9,2.3,13.8,0.1,20.8c-0.2,0.5-0.1,1.1-0.2,1.8
		c-0.8-0.2-1.4-0.3-2.1-0.4c-0.1,0.5-0.3,0.8-0.3,1.2c0,5.9-1.3,11.5-2.9,17.2c-1.2,4.4-1.6,9.1-2.4,13.6c-0.6,3.1-1.5,6.2-2.2,9.3
		c-0.9,0-1.8,0-2.7,0c2.5-10.9,5-21.9,7.5-32.9c-3.2,0.5-4.5,2.7-6,4.7c-3.1,4.3-7.1,7.6-11.6,10.3c-3.1,1.9-5.4,0.7-6-2.8
		c-0.1-0.5-0.3-1-0.5-1.7c-1.6,1.1-3,2.3-4.6,3c-2.9,1.4-6.3,1.3-7.5-2c-10.2,1.6-16.8-0.3-24.7-7.2c-1-0.9-2.1-1.5-3.5-2.6
		c-0.3,3-0.8,5.5-0.8,7.9c0.1,4,0.1,8,0.9,11.8c0.8,3.9,2.6,7.6,3.9,11.4c-0.9,0-1.8,0-2.7,0c-0.8-2.7-1.2-5.6-2.3-8.1
		c-3.1-6.8-2.2-13.9-1.9-21c0.1-2,1.9-4.3-0.4-5.9c-1.6,1.5-3.1,2.7-4.5,4.2c-0.7,0.8-1.5,1.6-1.5,3.2c0,5.7,0.9,11.5-1.1,17.2
		c-1.2,3.3-1.6,6.9-2.4,10.4c-0.9,0-1.8,0-2.7,0c2-8.9,5.4-17.6,3.3-27c-8.2,5-7.4,5.9-21.6,3.8c-1.6,2.9-2.5,3.5-5.8,2.8
		c-2.1-0.5-4-1.5-5.9-2.5c-1.1-0.6-2.1-1.5-3.1-2.2c0,1,0.4,1.6,0.6,2.3c0.5,1.9,0.4,3.8-1,5.2c-1.5,1.6-3.3,0.8-4.8-0.1
		c-1.2-0.7-2.4-1.5-3.2-2.5c-3.4-4.4-6.7-8.9-10.1-13.4c-0.5-0.6-1.1-1.4-1.7-1.6c-1.9-0.4-3.8-0.5-6-0.8c2.4,12.4,3.8,24.5,8.4,36
		c-0.9,0-1.8,0-2.7,0c-0.5-1.5-1-2.9-1.4-4.5c-1.6-7-3.2-13.9-4.6-20.9c-1.5-7.3-3.6-14.4-4.2-21.9c-0.4-5.7-0.1-11.1,1.8-16.5
		c0.9-2.5,2-5.6,1.3-8c-2.5-7.9-5.6-15.7-8.7-23.4C22.5,78.7,19,71.4,16,64c-1.6-3.9-2-8.4-4.1-12c-4.1-7-5.6-14.7-6.9-22.5
		c-1.2-7-2.3-14.1-3.4-21.2C1.1,5.5,0.5,2.8,0,0c0.8,0,1.5,0,2.3,0c0.9,5.1,1.6,10.1,2.6,15.2c0.7,3.9,1.9,7.7,2.3,11.6
		C7.9,33,9,39.1,11.1,44.9c1.3,3.6,3.5,7,4.7,10.6c2.9,9,6,17.8,10,26.3c3.7,7.9,6.6,16.2,9.8,24.3c1.5,3.7,1.3,7.3,0,11.1
		c-1.2,3.7-2.2,7.5-2.8,11.3c-0.3,2.2,0.3,4.6,0.5,7c0.3,0,0.7,0.1,1,0.1c2.4-2.6,1.1-6.6,3.1-9.9c0.4,1,0.8,1.6,1,2.3
		c0.7,2.4,1.2,4.9,2.2,7.2c2.5,5.5,5,10.9,7.9,16.2c2.3,4.2,5.2,8.1,9.5,10.7c1.2,0.7,2.4,0.6,2.2-1.2c-0.2-1.4-0.8-2.8-1.6-4
		c-3.7-5.9-7.6-11.6-11.4-17.5c-0.4-0.6-0.5-1.5-0.7-2.2c0.2-0.2,0.4-0.3,0.6-0.5c0.6,0.5,1.4,0.9,1.8,1.5c0.7,1,1,2.2,1.6,3.2
		c2,3,3.7,6.4,6.3,8.9c2.8,2.7,6.4,4.7,9.8,6.8c2,1.2,4.1,2.5,7.1,1.9c-0.2-1.2-0.1-2.7-0.8-3.4c-1.3-1.4-3-2.4-4.6-3.5
		c-7.5-5.1-13.5-11.5-16.9-20.2c1.2-1.1,2.4-0.1,3.4,0.8c2.7,2.4,5.2,5.1,8,7.4c1.7,1.5,3.8,2.7,5.8,3.6c2.9,1.3,5.9,2.4,8.9,3.5
		c1.4,0.5,2.9,0.6,4.3,0.8c0.1-0.2,0.3-0.4,0.4-0.6c-0.4-0.7-0.7-1.7-1.3-2.1c-2.7-1.9-5.4-4-8.4-5.5c-4.6-2.3-8-5.8-11.4-9.5
		c-0.7-0.7-0.3-2.6-0.1-3.9c0-0.3,1.6-0.7,2.3-0.4c3.3,1.3,6.4,3,9.8,4.1c4.1,1.3,8,4.1,13.2,2.4c-0.8-0.8-1.4-1.8-2.2-2.3
		c-3.6-1.8-7.2-3.5-10.9-5c-5.1-2.1-9.6-4.7-11.9-10.2c-1.6-3.8-3.8-7.4-5.9-11.1c-1.6-2.8-4-3.4-7-1.9c-0.5,0.3-1.2,0.3-1.8,0.5
		c-0.2-0.2-0.3-0.5-0.5-0.7c0.8-0.7,1.4-1.5,2.3-2c1-0.5,2.2-0.6,3-0.8c-1.5-4.2-3.1-8.4-4.4-12.7c-2.1-6.6-4-13.2-5.9-19.8
		c-1.5-5.2-3.1-10.4-4.6-15.6c-0.7-2.4-1.3-4.7-1.9-7.1c-2-8.7-3.9-17.4-6.1-26.1c-0.8-3.2-1.5-6.3-0.8-9.7c0.6-2.5,0.6-5.2,0.9-7.8
		c0.8,0,1.5,0,2.3,0c-0.2,2.4-0.3,4.8-0.5,7.2c-0.1,1.9-0.8,3.8-0.4,5.6c1.1,5.8,2.6,11.6,3.9,17.4c0.8,3.2,1.6,6.5,2.4,9.7
		c1.9,6.9,3.8,13.7,5.7,20.6c0.3,0,0.5,0,0.8-0.1c0.4-1.2,0.9-2.3,1.2-3.5c1.1-4,2.5-8,3.1-12.1c0.7-4,1-8,0.8-12
		c-0.2-4.8-1-9.5-1.7-14.2c-0.6-4.5-1.4-8.9-2.2-13.4c-0.3-1.7-0.9-3.4-1.4-5.1c37.1,0,74.2,0,111.3,0c0,0.8,0,1.5,0,2.3
		c0.4,4.6,1,9.2,1.3,13.9c0.2,2.9,0.1,5.9,0,8.9c-0.2,6.2-0.2,12.2,3.6,17.7c2.5,3.7,2,8.3,2.8,12.5c0.8,4,2,8,3.2,12.6
		c0.5-1,0.8-1.3,0.8-1.6c0.5-3.8,1.1-7.6,1.4-11.3c0.4-6.2,0.4-12.3,1-18.5c0.7-7.3,1.8-14.5,2.6-21.8c0.3-2.5,0.1-5,0.1-7.6
		C171.2,4.7,171,2.3,170.9,0z M163.3,69.7c-0.2-1.1-0.3-1.9-0.5-2.7c-1.2-4.7-2.9-9.4-3.3-14.2c-0.6-5.4-2.5-10.1-5-14.7
		c-0.9-1.7-1.1-4-1.2-6.1c-0.1-2.5-0.7-3.8-3-4.6c-9.9-3.6-20.3-4.9-30.7-5.1C106,22.2,92.6,23,79.2,25.1
		c-5.1,0.8-10.3,1.7-15.4,2.7c-2.7,0.5-5.4,1.4-8.1,2.3c-0.8,0.3-1.9,0.9-2.1,1.6c-0.9,3.1-1.6,6.2-2.3,9.3
		c-1.7,6.8-3.7,13.5-5.2,20.3c-0.6,2.5-0.3,5.3-0.3,7.9c0,0.4,1.1,1.1,1.6,1.1c7.2-1.1,14.3-2.4,21.5-3.3c6-0.8,12-1.4,18-1.5
		c6.2-0.2,12.5,0.6,18.7,0.4c7.3-0.2,14.5-1.3,21.6,1c0.5,0.2,1,0.1,1.6,0.2c4.4,0.2,8.9,0.4,13.3,0.6c3.6,0.2,7.2,0.5,10.8,0.9
		C156.3,68.9,159.6,69.3,163.3,69.7z"/>
</g>
</svg>
