<?xml version="1.0" encoding="utf-8"?>
<!-- Generator: Adobe Illustrator 19.2.1, SVG Export Plug-In . SVG Version: 6.00 Build 0)  -->
<svg version="1.1" id="Layer_1" xmlns="http://www.w3.org/2000/svg" xmlns:xlink="http://www.w3.org/1999/xlink" x="0px" y="0px"
	 viewBox="0 0 145.2 150" style="enable-background:new 0 0 145.2 150;" xml:space="preserve">
<style type="text/css">
	.st0{fill:#C2185B;}
</style>
<g id="icon-sorethroat-lady">
	<path class="st0" d="M91.6,150c1.9-3.7,3.8-7.5,5.7-11.3c0.9-1.9,1.7-3.9,2.7-5.8c0.7-1.4,1.7-2.7,2.6-4c1.3-2,2.6-4,3.9-6
		c1.5-2.1,3.2-4.2,4.8-6.3c0.6-0.8,1.2-1.6,1.7-2.4c0.4-0.6,0.2-1.3-0.6-1.7c-0.9-0.4-1.8-0.9-2.8-1.2c-3-1.1-5.4-2.9-7.1-5.7
		c-1.8-3-3.8-5.8-5.6-8.7c-1.6-2.5-2.4-5.4-2.6-8.4c-0.1-2.7,0-5.5-0.1-8.2c-0.1-4.1,0.6-8,1.7-11.9c0.1-0.3,0.2-0.6,0.3-1.1
		c-1.5,0.4-2.9,0.9-4.2,1.2c-1.4,0.3-2.8,0.4-4.2,0.4c-1.3,0-2.1-1.1-2.2-2.7c0-1.1-0.2-2.2,0.3-3.3c0.3-0.6,0.1-1.4,0.2-2.2
		c0.2-1.6,1.1-2.5,2.7-2.2c0.7,0.1,1.3,0.9,2.1,1.4c0.1,0,0.4-0.2,0.6-0.5c1.2-1.8,3-1.8,4.8-1.5c1.1,0.2,1,0.2,1-0.9
		c0-1.3-0.7-2.2-1.3-3.1c-0.7-0.9-1.4-1.8-2-2.7c-0.3-0.5-0.5-1,0.1-1.3c0.6-0.4,1,0.1,1.3,0.5c1.1,1.6,2.3,3.2,3.4,4.9
		c2.5-1,3.5-2.4,3.5-5.2c0-1.1,0.3-2.4-1.1-3.1c-1.9-0.9-3.9-1.1-5.9-0.4c-0.2,0.1-0.3,0.4-0.5,0.6c-0.2,0.2-0.6,0.5-0.8,0.4
		c-0.3-0.1-0.7-0.3-0.9-0.6c-0.1-0.2,0-0.8,0.3-0.9c0.7-0.4,1.5-1,2.3-1.1c1.6-0.1,3.3-0.1,4.9,0.2c2,0.4,3.1,1.9,3.1,4
		c0,0.8,0,1.6-0.1,2.4c-0.2,1.9-1.2,3.3-2.8,4.2c-0.9,0.5-1.8,1.1-2,2.4c-0.3,1.4-1.1,1.7-2.6,1.3c-1.4-0.4-2.7-0.5-3.7,0.9
		c-0.3,0.4-0.7,0.6-1,0.9c-1.1,0.6-1.8,0.4-2.4-0.7c-0.2-0.3-0.6-0.6-0.8-0.6c-0.3,0.1-0.6,0.5-0.7,0.8c-0.1,0.3-0.1,0.7-0.2,1.1
		c-0.1,1.1-0.3,2.2-0.4,3.3c-0.1,1.9,0.1,2.4,1.9,2.3c3.9-0.3,7.6-1.2,10.7-3.6c2.9-2.2,4.6-5.3,5.7-8.8c0.6-1.8,1-3.7,0.7-5.6
		c-0.3-1.8-0.9-3.6-2.3-4.8c-1.6-1.5-3.6-2.4-5.7-2.5c-0.9,0-2,0.2-2.7,0.7c-1.9,1.4-3.9,2.6-6,3.6c-1.5,0.7-3.2,0.7-4.5-0.3
		c-2.3-1.6-4.3-3.6-5.2-6.4c-0.2-0.8-0.4-1.7-0.4-2.5c-0.1-1.9-0.9-3.3-2.4-4.4c-2.5-1.9-5-3.8-7.5-5.7c-0.3-0.3-0.8-0.5-1-0.8
		c-1.1-1.4-2.7-2.1-4.1-3c-2.6-1.6-5.1-3.3-7.6-5c-3.1-2-6.2-4.1-9.4-6.1c-2.3-1.5-5-1.5-7.6-1.4c-0.3,0-0.6,0.2-0.8,0.3
		c-3.6,2.2-6.3,5.2-9,8.2c-1.3,1.4-2.4,3-3.4,4.6c-1.8,2.8-2.7,5.8-2.8,9.2c0,2.1-0.2,4.2-0.3,6.2c0.9,0.2,1.8,0.2,2.4,0.6
		c1,0.7,1.9,1.5,2.5,2.5c0.8,1.2,0.8,2.6,0.1,3.8c-0.9,1.6-2.1,3.1-3.2,4.5c-1.2,1.5-2.6,2.9-3.8,4.4c-1.7,2.1-0.9,4.5,1.6,5.4
		c1.4,0.5,2.4,0.3,3.3-0.8c1.1-1.2,3.8-1.2,5-0.1c1,0.9,3.6,0.6,4.3-0.5c0.5-0.7,0.3-1.9-0.6-2.4c-0.4-0.2-0.9-0.3-1.2-0.6
		c-0.2-0.1-0.2-0.4-0.4-0.7c0.2-0.1,0.5-0.3,0.7-0.3c1.1,0.1,2.6,1.3,2.8,2.4c0.3,1.4-0.2,2.4-1.5,3.1c-1.7,0.9-3.3,0.9-5,0
		c-1.2-0.6-2.4-0.5-3.6,0.2c-1.6,1-1.8,2.3-1.5,3.9c0.3,1.7,0.1,3.5-0.4,5.2c-0.1,0.3-0.1,0.6-0.2,1.1c2.2-1.7,4.7-1.8,7.1-1.3
		c0.8,0.2,1.6,0.6,2.4,0.9c2.5,1,5,2,7.1,3.9c0.3,0.3,0.7,0.5,1,0.7c0.7,0.5,0.7,1,0,1.4c-1,0.6-2.1,1-3,1.7
		c-1.8,1.3-3.5,2.7-5.3,4.1c-2.1,1.7-4.4,1.9-6.8,0.8c-0.1,0-0.2-0.1-0.3-0.1c-0.1,0-0.1,0-0.5,0c0.3,0.7,0.4,1.4,0.9,1.8
		c1.2,1.3,1.1,2.8,0.6,4.4c-0.2,0.8-0.5,1.6-0.6,2.4c-0.2,1.4,0.2,2.6,0.9,3.8c0.6,1,1,2,1.6,3c0.3,0.5,0.8,1,1.4,1.1
		c1.6,0.4,3.2,0.8,4.9,0.3c1.9-0.5,3.9-0.6,5.8-1.2c5.1-1.5,10.3-3,15.4-4.6c1.9-0.6,3.8-1.3,5.6-2.2c1.8-0.9,3.5-2,5.2-3.1
		c2.1-1.2,4.2-2.5,6.3-3.7c2.4-1.2,4.4-3,6.3-4.8c1.5-1.3,1.7-3.2,2.4-5c0.5-1.2,0.8-2.4,1.3-3.6c0.1-0.2,0.5-0.5,0.6-0.4
		c0.2,0.1,0.6,0.4,0.6,0.6c0,0.6-0.1,1.2-0.3,1.8c-0.5,1.4-1.1,2.8-1.5,4.2c-0.7,2.3-2.3,3.7-4,5.2c-2.7,2.4-5.9,3.8-8.9,5.5
		c-0.8,0.4-1.6,1-2.3,1.6c-2.6,2.1-5.6,3.3-8.6,4.4c-5.4,1.9-10.9,3.6-16.5,5.1c-3.2,0.9-6.5,1.2-9.5,1.8c2.4,1.5,5.6,1.5,8.4,2.3
		c1.2,0.3,2.4,0.5,3.5,1c0.8,0.3,1.5,0.3,2.3,0.1c5-1.4,9.6-3.6,14-6.3c2.9-1.7,6-3,9-4.4c2-0.9,4-1.7,6-2.5c1-0.4,2.1-0.7,3.1-1
		c1.9-0.5,4.2,1.7,4.5,3.6c0.6,2.8-1,4.3-3.4,5.9c-3.2,2.1-6.9,3-10.4,4.3c-1.8,0.7-3.4,1.8-5.3,2.7c0.3,0.1,0.3,0.1,0.4,0.1
		c2.3-0.9,3-0.2,3.3,2c0.3,2.1,0.5,4.3,0.6,6.5c0,0.6-0.5,1.2-0.9,1.8c-0.2,0.3-0.7,0.5-1.3,1c0.6,0.4,1,0.8,1.5,1.2
		c0.9,0.7,1.8,1.2,2.7,1.9c1.5,1.3,1.6,2.7,0.3,4.2c-0.4,0.4-0.8,0.8-1,1.3c-0.1,0.2,0.1,0.7,0.3,1c1.5,1.8,2.6,3.7,2.5,6.1
		c-0.1,1.3-0.6,2.3-1.3,3.3c-1.1,1.4-1.9,2.8-2.2,4.6c-0.1,1-0.8,1.9-1.5,2.7c-0.8,1-1.8,1.9-2.7,2.9c-0.6,0.7-1.1,1.5-1.6,2.2
		c-0.4,0-0.7,0-1.1,0c0.4-0.8,0.6-1.6,1.1-2.3c0.7-0.9,1.6-1.5,2.3-2.4c1-1.1,2.2-2.1,2.3-3.6c0.2-1.8,1.1-3.1,2.1-4.5
		c0.7-0.9,1.3-1.8,1.3-3c0-2.5-1.2-4.3-3.1-5.7c-0.5,0.3-1,0.5-1.4,0.8c-1.9,1.4-4.3,2.2-6,4c-0.8,0.8-1.8,1.5-2.7,2.2
		c-0.2,0.1-0.5,0.1-0.7,0c-0.1-0.1-0.1-0.4-0.1-0.6c0.1-0.2,0.3-0.4,0.5-0.6c1-0.9,2-1.7,3.1-2.6c0.6-0.5,1.2-0.8,1.8-1.2
		c2.2-1.5,4.5-2.9,6.5-4.5c1.5-1.2,1.5-2.5-0.1-3.6c-1.2-0.9-2.4-1.9-3.6-2.8c-0.2-0.2-0.7-0.2-0.9-0.1c-4.2,2-7.8,4.8-11.2,7.9
		c-0.2,0.2-0.5,0.1-0.8,0.2c-0.1-0.3-0.2-0.6-0.1-0.9c0.1-0.3,0.4-0.6,0.7-0.9c1.2-0.9,2.5-1.8,3.6-2.8c1.9-1.6,3.9-3.1,6.2-4.2
		c1.2-0.6,2.3-1.3,3.5-2.1c0.3-0.2,0.7-0.7,0.7-1.1c-0.2-2.2-0.4-4.4-0.7-6.6c-0.1-1-0.4-1.1-1.3-0.7c-5.1,2.4-10.2,4.8-15.3,7.2
		c-0.2,0.1-0.5,0-0.8-0.1c0.1-0.3,0.1-0.6,0.2-0.9c0.1-0.1,0.3-0.2,0.5-0.3c1.2-0.6,2.4-1.3,3.7-1.8c3.5-1.4,6.4-3.6,9.5-5.7
		c2.7-1.8,5.3-3.5,8.5-4.3c2.8-0.7,5.4-1.9,7.9-3.3c0.6-0.3,1.1-0.9,1.7-1.3c0-0.1-0.1-0.2-0.1-0.3c-0.6-0.1-1.2-0.1-1.7-0.2
		c-2.5-0.2-4.9-0.6-6.1-3.4c-1.3,0.5-2.5,0.9-3.7,1.5c-1.9,1-4.1,1.5-5.8,3.2c-0.9,1-2.4,1.5-3.6,2.1c-3.5,1.7-7,3.4-10.5,5.1
		c-1.6,0.8-3.3,1.1-4.7,2.3c-0.8,0.7-1.8,1.3-2.7,1.9c-1.6,1-2.6,2.4-3.3,4c-0.9,2.1-1.8,4.2-2.6,6.3c-1.1,2.7-2.2,5.3-3.1,8
		c-1.1,3-2,6.2-3.2,9.2c-1,2.7-2,5.3-2,8.3c0,1.3-0.3,2.7-0.5,4c-0.6,0-1.1,0-1.7,0c0.1-1.2,0.2-2.4,0.4-3.5
		c0.3-2.1,0.5-4.2,1.1-6.2c0.6-2,1.5-4,2.2-5.9c1.3-3.6,2.5-7.3,3.7-10.9c0.3-0.8,0.6-1.5,0.9-2.3c-0.1-0.1-0.2-0.1-0.3-0.2
		c-1.2,1.6-2.4,3.2-3.5,4.8c-0.4,0.5-0.7,1.2-1.1,1.6c-1.8,1.7-3.6,3.4-5.5,5.1c-1.1,1-2.2,1.9-3.5,2.7c-2.5,1.4-5,2.7-7.5,4
		c-3,1.6-5.7,3.4-7.9,6c-1.3,1.5-2.5,3.2-3.7,4.9c-0.8,0-1.6,0-2.4,0c1.8-2.2,3.4-4.6,5.3-6.6c2.6-2.9,5.9-4.8,9.4-6.6
		c1.9-1,3.9-1.9,5.8-3c0.9-0.5,1.7-1.2,2.5-1.8c1.7-1.4,3.3-2.9,5-4.3c1.3-1.1,2-2.7,3-4.1c1-1.4,2.3-2.7,3.5-4
		c0.8-0.8,0.9-1.8,0.7-2.8c-0.4-1.4-0.8-2.7-1.3-4c-1.4-3.7-2.7-7.4-4.1-11.1c-0.1-0.3-0.3-0.5-0.4-0.7c-0.9-2-1.9-4.1-2.8-6.1
		c-0.8-1.8-0.5-3.7,0.2-5.4c0.6-1.4,0.7-2.7-0.5-3.9c-0.4-0.4-0.5-1.1-0.7-1.7c-0.2-0.6-0.5-1.2-0.6-1.8c-0.1-0.9-0.1-2,0.2-2.8
		c0.4-1.2,0.2-2.1-0.7-2.9c-1.5-1.3-1.2-3.1-1-4.7c0.3-2.3,0.9-4.5,0.6-6.9c-0.1-0.6,0-1.3-0.2-1.9c-0.2-0.4-0.6-0.9-1-1
		c-1.7-0.4-2.7-1.6-3.4-2.9c-0.8-1.5-0.1-2.9,0.8-4.2c0,0,0.1-0.1,0.1-0.1c1.6-1.3,1.8-3.1,1-4.9c-1-2.4-0.6-4.8-0.7-7.2
		c0-0.4,0.2-0.8,0.4-1.2c1.1-2,1.1-4,0.9-6.2c-0.1-1.3-0.3-2.7-0.1-4c0.3-2.4,0.9-4.8,1.2-7.2c0.3-2.6,1.3-5,2-7.5
		c0.6-2,1.9-3.6,3.2-5.1c2.3-2.7,4.9-5,7.9-6.9c1.9-1.2,3.9-2.3,6-3.3c0.6-0.3,1.5-0.3,2.2-0.4c1.6-0.1,3.3,0,4.9-0.3
		c3.3-0.5,6.5-0.3,9.7,0.2c2.7,0.4,5.5,0.7,8.2,1c2.2,0.2,4.4,0.3,6.5,0.7c1.5,0.2,3,0.7,4.5,1.1c0.5,0.1,1.1,0,1.5,0.2
		c2.3,0.8,4.7,1.5,7,2.4c1.9,0.8,3.9,1.6,5.6,2.8c2.2,1.5,4.4,3.2,6,5.4c0.3,0.5,0.8,0.9,1.2,1.3c3.5,3.2,6.4,6.8,8.7,10.8
		c1.7,3.1,3.4,6.2,4.5,9.6c0.1,0.2,0.2,0.4,0.3,0.7c0.3,0.7,0.5,1.4,0.8,2.1c0.6,1.7,1.3,3.4,1.9,5.1c0.2,0.5,0.3,1,0.5,1.5
		c0.2,0.8,0.5,1.6,0.8,2.3c0.7,1.8,1.6,3.5,2.1,5.3c0.7,2.4,0.6,4.8,0.6,7.3c0,2-0.1,4-0.2,6c-0.1,4.6-0.1,9.2-0.4,13.8
		c-0.2,3.3-0.7,6.5-1,9.7c-0.2,1.8-0.2,3.5-0.3,5.3c0,0.5,0.1,1-0.1,1.5c-1,3.4-0.7,6.8-0.7,10.2c0,0.8,0,1.7,0,2.5
		c-0.1,0.9,0.3,1.6,0.9,2.3c3.7,4.1,7.7,7.8,12.2,11.1c2.5,1.8,4.8,4.1,7.2,6.1c2.5,2.1,4.7,4.6,7.8,5.9c0,0.7,0,1.5,0,2.2
		c-3.6-1.7-6.5-4.5-9.4-7.1c-2.3-2.1-4.8-4-7.2-6c-2-1.7-4.1-3.2-6.1-5c-2-1.8-4-3.8-6-5.7c-0.1,0.1-0.3,0.3-0.4,0.5
		c-2.9,4.6-7,8.3-9.7,12.9c-1.5,2.5-3.2,4.9-4.8,7.4c-2.5,4-3.8,8.5-5.9,12.7c-0.3,0.7-0.5,1.4-1.1,2c-0.4,0.4-0.5,1.2-0.8,1.8
		C93.1,150,92.4,150,91.6,150z M39.5,76.9c0-0.1-0.1-0.2-0.1-0.3c-0.4,0.1-0.7,0.2-1.1,0.4c-3.5,1.3-7.2,1.8-10.9,2.2
		c-0.7,0.1-1,0.3-1.1,1c-0.2,1.3-0.3,1.3,1,1.8c0.2,0.1,0.4,0.2,0.6,0.2c1.7,0.8,3.5,0.8,5-0.3C35.1,80.3,37.3,78.6,39.5,76.9z
		 M25.4,75.1c0.4,0.6,1,1.1,1.2,1.8c0.2,0.6,0.4,0.7,0.9,0.7c2.2-0.2,4.4-0.3,6.6-0.6c1.4-0.2,2.8-0.8,4.4-1.2
		C34.1,73.5,29.8,73.6,25.4,75.1z M21.8,45.6C21.8,45.6,21.8,45.6,21.8,45.6c0,0.6,0,1.2,0.1,1.8c0.1,0.8,0.4,1.3,1.3,1.1
		c0.4-0.1,0.9-0.2,1.3,0c0.9,0.5,1.3-0.2,1.6-0.7c0.5-0.6,1-1.3,1.2-2c0.5-1.4,0.5-3.1-0.9-3.5c-0.6-0.2-1.4,0-2.1,0
		c-2.3,0-2.4,0.7-2.5,2.6C21.8,45.1,21.8,45.3,21.8,45.6z M84,96.7c-0.1-0.9-0.1-1.6-0.2-2.3c-0.3-1.6-2-2.8-3.6-2.3
		c-1.2,0.3-2.4,0.9-3.6,1.3c-0.6,0.2-0.6,0.8-0.3,1.2c0.5,0.7,1.1,1.4,2.1,1.5C80.2,96.2,82,96.4,84,96.7z M37.8,73.7
		c0-0.1,0-0.1,0-0.2c-0.9-0.4-1.8-0.9-2.7-1.3c-2-1-4.1-1.9-6.4-1.6c-1.5,0.2-3.1,0.4-3.7,2.2c-0.1,0.3-0.1,0.7-0.1,1.1
		c0.4,0,0.8,0.1,1.2,0c1.2-0.3,2.3-0.7,3.5-0.9c2.2-0.4,4.3,0.1,6.4,0.5C36.7,73.6,37.3,73.6,37.8,73.7z"/>
	<path class="st0" d="M43.3,44.8c-0.4-0.4-0.5-0.5-0.6-0.7c-0.8-0.6-1.2-1.4-1.2-2.5c0.1-1.7,0-1.7-1.5-3.1c1.4-0.5,2.9-0.5,4.3-0.6
		c2.8-0.1,5.6,0.5,8.3,1c0.5,0.1,1,0.1,1.5,0.2c0.7,0.2,0.9,0.8,0.3,1.2c-0.9,0.7-1.8,1.3-2.8,1.8c-2.5,1.2-5,2.3-7.6,3.5
		c-0.4,0.2-0.7,0.5-1.1,0.7c-0.3,0.1-0.6-0.1-0.9-0.1c0.1-0.3,0-0.6,0.2-0.8C42.6,45.1,43,45,43.3,44.8z M48.2,39.7
		c0.1,0.8,0.3,1.6,0.4,2.5c0.8-0.4,1.7-0.8,2.6-1.3c0.2-0.1,0.4-0.5,0.3-0.7c-0.1-0.2-0.4-0.5-0.6-0.5C50,39.6,49,39.7,48.2,39.7z"
		/>
	<path class="st0" d="M57,32c-0.7-0.2-1.3-0.3-1.8-0.5c-1.9-0.8-3.9-0.7-5.9-0.7c-1.3,0-2.7-0.1-4,0.2c-1.7,0.4-3.4,0.8-4.8,2.1
		c-1.1,1-2.4,1.9-4,2c-1,0.1-1.7-0.6-1.4-1.5c0.1-0.3,0.3-0.6,0.5-0.8c1.6-1.4,3.3-2.6,5.6-3c1-0.2,1.9-0.8,2.9-0.9
		c1.7-0.1,3.5-0.1,5.3,0c2,0.1,4,0.4,6,0.7c0.6,0.1,1.2,0.2,1.6,0.5c0.3,0.2,0.5,0.8,0.5,1.2C57.6,31.7,57.1,31.9,57,32z"/>
</g>
</svg>
