<?xml version="1.0" encoding="utf-8"?>
<!-- Generator: Adobe Illustrator 19.2.1, SVG Export Plug-In . SVG Version: 6.00 Build 0)  -->
<svg version="1.1" id="Layer_1" xmlns="http://www.w3.org/2000/svg" xmlns:xlink="http://www.w3.org/1999/xlink" x="0px" y="0px"
	 viewBox="0 0 130 200" style="enable-background:new 0 0 130 200;" xml:space="preserve">
<style type="text/css">
	.st0{fill:#388E3C;}
</style>
<g id="icon-diarrhea">
	<ellipse transform="matrix(0.7158 -0.6983 0.6983 0.7158 1.3526 87.6547)" class="st0" cx="108.4" cy="42.2" rx="21" ry="21"/>
	<path class="st0" d="M0,200h70.3l6.2-29.9c0,0,19.6-3.4,19.6-18.2c0-3.6,0-7.5,0-7.5h-63c0,0-5.9-1.4-5.9-5.9c0-3.5,0-26.7,0-26.7
		c0-3.1-2.5-5.6-5.6-5.6h-16c-3.1,0-5.6,2.5-5.6,5.6V200z"/>
	<path class="st0" d="M98,111.7c-2.4-3.8-3.2-7.7-3.2-11.6c0-4.4,1.1-8.7,2.3-11.8c0.6-1.6,1.2-2.8,1.6-3.7c0.2-0.4,0.4-0.7,0.5-0.9
		c0.1-0.1,0.1-0.2,0.1-0.2v0c2.1-3.5,1-8.1-2.5-10.2c-3.5-2.1-8.1-1-10.3,2.5l0,0c-0.3,0.6-6.6,10.7-6.7,24.4
		c0,4.6,0.8,9.6,2.9,14.6h17.5C99.4,113.7,98.6,112.7,98,111.7z"/>
	<path class="st0" d="M103.9,187.2c0.6,6,5.7,10.5,11.6,10.5c0.4,0,0.8,0,1.2-0.1c6.4-0.7,11.1-6.4,10.4-12.8l-6-57.7
		c-0.6-5.9-5.6-10.5-11.6-10.5h-28h-2.2c0.5-0.6,0.9-1.2,1.4-1.8c-1.9-4.6-2.8-9.5-2.8-14.6c0.1-8.5,2.5-17.4,6.8-25l0.1-0.2l0-0.1
		l0-0.1c1.7-2.8,4.7-4.5,8-4.5c1.7,0,3.4,0.5,4.8,1.4c4.4,2.7,5.8,8.4,3.1,12.8l-0.1,0.2c-0.1,0.1-0.2,0.4-0.4,0.8
		c-0.4,0.8-1,2-1.5,3.5c-0.6,1.7-1.6,4.6-2,7.9c1.4-1.4,2.7-2.8,3.9-4c7.3-6.4,10.3-17.6,4.7-23.6c-5.6-6-17.7-8.5-29,0.4
		c-15.5,12.4-23.2,22-32.4,40.8c-5.6,14.2,2.2,21.1,9.5,25.6c1.2,0.7,2.3,1.4,3.3,1.9c1.8,1.2,4,1.9,6.3,1.9h17.6H99L103.9,187.2z"
		/>
	<path class="st0" d="M40.8,101.3c-3.9,1.3-4.9,4.2-4.8,6.2c0,1.4,0.4,2.5,0.4,2.5c0.1,0.4,0.5,0.6,0.9,0.6c0.1,0,0.2,0,0.3-0.1
		c0.5-0.2,0.7-0.7,0.5-1.2h0c0,0-0.1-0.2-0.1-0.5c-0.1-0.3-0.2-0.8-0.2-1.3c0.1-1.5,0.5-3.3,3.6-4.4c0.5-0.2,0.7-0.7,0.6-1.2
		C41.9,101.4,41.3,101.2,40.8,101.3z"/>
	<path class="st0" d="M39.6,99.3c0.5-0.1,0.8-0.7,0.6-1.2c-0.1-0.5-0.7-0.8-1.2-0.6c-6.2,1.8-7.7,6.4-7.6,9.3c0,1.8,0.4,3,0.4,3.1
		c0.1,0.4,0.5,0.6,0.9,0.6c0.1,0,0.2,0,0.3,0c0.5-0.2,0.8-0.7,0.6-1.2v0c0,0-0.1-0.2-0.2-0.7c-0.1-0.5-0.2-1.1-0.2-1.8
		C33.4,104.4,34.2,101,39.6,99.3z"/>
	<path class="st0" d="M118.1,113.5c0,0.5,0.5,0.9,1,0.8v0c0,0,0,0,0,0c0.3,0,1.6,0.1,2.7,0.7c1.1,0.7,2.1,1.8,2.1,4.4
		c0,0.5,0.4,0.9,0.9,0.9c0,0,0,0,0,0c0.5,0,0.9-0.4,0.9-0.9c0-3.2-1.5-5.1-3-6c-1.6-0.9-3.1-1-3.6-1c-0.1,0-0.2,0-0.2,0
		C118.4,112.5,118,113,118.1,113.5z"/>
	<path class="st0" d="M125.2,109.5c-2.4-1.3-4.6-1.3-4.7-1.3c-0.5,0-0.9,0.4-0.9,0.9c0,0.5,0.4,0.9,0.9,0.9h0c0,0,0.4,0,1.2,0.1
		c2.2,0.5,6.4,1.8,6.5,8.2c0,0.1,0,0.3,0,0.5c0,0.5,0.4,0.9,0.9,1c0,0,0,0,0,0c0.5,0,0.9-0.4,0.9-0.9c0-0.2,0-0.3,0-0.5
		C130,113.5,127.6,110.8,125.2,109.5z"/>
	<path class="st0" d="M118.4,13.4c-2.3,0-3.9,1.2-4,1.3c-0.4,0.3-0.5,0.9-0.2,1.3c0.3,0.4,0.9,0.5,1.3,0.2c0,0,0.1,0,0.2-0.1
		c0.4-0.3,1.5-0.8,2.7-0.8c1.2,0,2.6,0.5,4,2.5c0.2,0.3,0.5,0.4,0.8,0.4c0.2,0,0.4,0,0.5-0.2c0.4-0.3,0.6-0.9,0.3-1.3
		C122.3,14.3,120.1,13.4,118.4,13.4z"/>
	<path class="st0" d="M126.3,15.6c0.2,0,0.3,0,0.5-0.1c0.4-0.3,0.6-0.8,0.3-1.3c-2.5-4.1-5.7-5.4-8.4-5.4c-3.1,0-5.3,1.5-5.4,1.5
		c-0.4,0.3-0.6,0.9-0.3,1.3c0.3,0.4,0.9,0.6,1.3,0.3v0c0,0,0.1-0.1,0.3-0.2c0.6-0.3,2.2-1,4.1-1c2.1,0,4.6,0.8,6.8,4.5
		C125.7,15.4,126,15.6,126.3,15.6z"/>
	<path class="st0" d="M6.7,41.6c0.3-0.2,0.6,0,0.8,0.4c0.2,0.3,0.3,0.6,0.4,1c0.1,0.4,0.2,0.8,0.4,1c0.2,0.3,0.4,0.5,0.7,0.5
		c0.3,0.1,0.5,0,0.8-0.1c0.2-0.1,0.5-0.4,0.7-0.9c0.2-0.4,0.3-0.8,0.2-1.2c-0.1-0.4-0.3-0.9-0.8-1.6c-0.4-0.7-1-1.1-1.8-1.3
		c-0.8-0.2-1.6,0-2.4,0.4c-1.4,0.8-2.5,2.2-3.3,4.2c-0.8,2-1.2,4.1-1.1,6.5c0.1,2.3,0.5,4.2,1.4,5.6c0.8,1.4,2,2.2,3.3,2.4
		c1.4,0.2,2.6-0.1,3.8-0.8c1.3-0.8,2.3-2,3.2-3.6c0.9-1.6,1.1-2.7,0.8-3.3c-0.3-0.5-0.6-0.5-1.1-0.3c-0.2,0.1-0.5,0.6-0.9,1.4
		c-0.3,0.8-0.8,1.5-1.4,2.2c-0.6,0.7-1.1,1.2-1.5,1.4c-0.8,0.5-1.5,0.6-2.3,0.3c-0.7-0.2-1.3-0.7-1.7-1.4c-0.6-1.1-1-2.6-1.1-4.4
		c-0.1-1.9,0.2-3.6,0.7-5.2C5.1,43.2,5.8,42.2,6.7,41.6z"/>
	<path class="st0" d="M18,50.9c1,0.3,1.9,0.2,2.9-0.3c1.2-0.7,2-1.9,2.6-3.6c0.6-1.7,0.6-3.4,0.2-5.1l0,0c-0.2-0.5-0.4-1-0.7-1.5
		c-0.6-1.1-1.5-1.8-2.7-2.2c-1.1-0.4-2.2-0.3-3.3,0.4c-1.5,0.9-2.4,2.5-2.6,4.7c-0.2,2.2,0.2,4.1,1.2,5.7C16.3,49.9,17,50.6,18,50.9
		z M17.1,41.9L17.1,41.9c0.2-0.5,0.5-0.9,1-1.2c0.5-0.3,1-0.3,1.5-0.1c0.5,0.2,1,0.7,1.3,1.3c0.7,1.1,0.9,2.4,0.6,3.8
		c-0.3,1.4-0.8,2.3-1.6,2.8c-0.3,0.2-0.7,0.2-1-0.1c-0.4-0.2-0.7-0.6-1-1.1c-0.5-0.8-0.8-1.8-0.9-2.9C16.8,43.4,16.9,42.5,17.1,41.9
		z"/>
	<path class="st0" d="M44.3,35.8c0.4-0.2,0.6-0.6,0.8-1c0.2-0.5,0.2-0.9,0-1.1c-0.2-0.3-0.5-0.4-0.9-0.4c-0.5,0-1-0.2-1.5-0.6
		c-0.5-0.5-1.1-1.2-1.9-2.3c-1-1.3-1.8-2.2-2.4-2.6c-0.7-0.4-1.3-0.4-2,0c-0.6,0.3-1,0.9-1.2,1.7c-0.2,0.8-0.2,2.2-0.1,4.2
		c0.2,1.8,0.2,2.7,0.1,2.8c-0.1,0.1-0.6-0.6-1.5-2c-1-1.6-1.7-2.5-2.4-2.7c-0.6-0.2-1.2-0.2-1.8,0.1c-1.4,0.8-1.8,3.7-1.3,8.7
		c-0.2-0.4-0.5-1.1-0.9-2.1c-0.6-1.7-1-2.7-1.2-3.1c-0.7-1.1-1.5-1.4-2.4-0.8c-0.3,0.2-0.4,0.4-0.5,0.6c-0.1,0.3,0,0.5,0.1,0.7
		c0.6,1,1.1,2.1,1.6,3.2c0.6,1.5,1.5,3.1,2.6,5c0.7,1.2,1.5,1.5,2.3,1c0.6-0.4,0.8-0.9,0.5-1.6c-0.2-1.5-0.3-3.3-0.2-5.4
		c0.1-2.1,0.2-3.3,0.5-3.4c0.2-0.1,0.8,0.7,1.9,2.4c1.2,1.9,2.1,2.9,2.6,3c0.5,0.1,1,0,1.4-0.2c0.5-0.3,0.8-0.8,0.9-1.5
		c0.1-0.7,0.1-1.8,0-3.3c-0.2-1.7-0.2-2.8-0.2-3.4c0-0.6,0.1-0.9,0.2-1c0.2-0.1,0.4,0,0.6,0.2c0.3,0.2,0.7,0.8,1.3,1.7
		c1.2,1.8,2.2,2.9,3,3.3C43,36.1,43.6,36.1,44.3,35.8z"/>
	<path class="st0" d="M47.5,33.3c1,0.3,2,0.1,3-0.5c1.4-0.8,2.3-2,2.9-3.5c0.5-1.5,0.6-2.6,0.2-3.3c-0.2-0.4-0.6-0.5-0.9-0.3
		c-0.2,0.1-0.4,0.4-0.5,0.8c-0.5,2-1.3,3.4-2.5,4.1c-0.4,0.3-0.9,0.3-1.3,0.2c-0.4-0.1-0.7-0.3-0.9-0.6c-0.1-0.2-0.1-0.3,0.1-0.5
		c1.4-1.3,2.3-2.8,2.8-4.4c0.4-1.6,0.3-2.9-0.3-4c-0.4-0.6-0.9-1-1.6-1.2c-0.7-0.2-1.4-0.1-2.1,0.3c-1.4,0.8-2.2,2.4-2.6,4.6
		c-0.3,2.2,0,4.2,1.1,6C45.7,32.2,46.5,33,47.5,33.3z M46.3,24.8c0.2-1.2,0.5-1.9,1.1-2.3c0.2-0.1,0.4-0.1,0.6-0.1
		c0.2,0.1,0.4,0.2,0.5,0.4c0.3,0.5,0.3,1.3-0.1,2.4c-0.4,1.1-1,2-1.8,2.8C46.2,27,46.1,25.9,46.3,24.8z"/>
	<path class="st0" d="M70.6,13.8c-0.2-0.5-0.4-1-0.7-1.5c-0.6-1.1-1.5-1.8-2.7-2.2c-1.1-0.4-2.2-0.3-3.3,0.4
		c-1.5,0.9-2.4,2.5-2.6,4.7c-0.2,2.2,0.2,4.1,1.2,5.7c0.6,1,1.4,1.6,2.4,1.9c1,0.3,1.9,0.2,2.9-0.3c1.2-0.7,2-1.9,2.6-3.6
		C71,17.1,71.1,15.5,70.6,13.8L70.6,13.8z M68.4,17.6c-0.3,1.4-0.8,2.3-1.6,2.8c-0.3,0.2-0.7,0.2-1-0.1c-0.4-0.2-0.7-0.6-1-1.1
		c-0.5-0.8-0.8-1.8-0.9-2.9s0-1.9,0.2-2.6l0,0c0.2-0.5,0.5-0.9,0.9-1.2c0.5-0.3,1-0.3,1.5-0.1c0.5,0.2,1,0.7,1.3,1.3
		C68.5,14.9,68.7,16.2,68.4,17.6z"/>
	<path class="st0" d="M76.5,4.3c-1.6,1-2.2,3.4-1.7,7.4c-0.7-1.9-1.2-3.1-1.5-3.7c-0.5-0.8-0.8-1.2-1.1-1.3c-0.3-0.1-0.6,0-1,0.2
		c-0.3,0.2-0.5,0.5-0.5,1c-0.1,0.5,0,0.9,0.2,1.2c1.2,1.9,2,3.6,2.6,5.1c0.4,1.1,0.7,1.9,0.9,2.1c0.5,0.9,1.2,1,2.2,0.4
		c0.1-0.1,0.3-0.3,0.3-0.5c0.1-0.2,0-0.5,0-0.8c-0.2-0.9-0.3-2.5-0.2-4.8C76.8,8.3,77,7,77.5,6.8c0.5-0.3,1.2,0.3,2.3,1.8
		c1,1.4,1.9,2.3,2.5,2.7l0,0c0.7,0.4,1.4,0.4,2.1,0c0.6-0.4,1-0.9,1.2-1.5c0.2-0.6,0.2-1.1,0-1.4c-0.2-0.3-0.5-0.4-0.8-0.3
		c-0.1,0.1-0.3,0.2-0.5,0.4C84.3,8.8,84.1,9,84,9.1c-0.3,0.2-1.3-0.8-2.9-2.9C79.5,4,77.9,3.4,76.5,4.3z"/>
	<path class="st0" d="M86.7,8.3c0.4,0.6,0.7,0.9,0.9,1c0.3,0,0.6-0.1,0.9-0.3c0.2-0.1,0.4-0.4,0.6-0.9c0.2-0.5,0.3-0.9,0.3-1.1
		c0-0.3-0.1-0.5-0.3-0.9c-0.1-0.2-0.3-0.3-0.6-0.4c-0.3-0.1-0.6,0-1,0.3c-0.5,0.3-0.9,0.6-1.1,0.9c-0.2,0.3-0.3,0.5-0.2,0.7
		C86.4,7.7,86.5,7.9,86.7,8.3z"/>
	<path class="st0" d="M91.5,5.5c0.4,0.6,0.7,0.9,0.9,1c0.3,0,0.6-0.1,0.9-0.3C93.6,6,93.8,5.7,94,5.2c0.2-0.5,0.3-0.9,0.3-1.1
		c0-0.3-0.1-0.5-0.3-0.9c-0.1-0.2-0.3-0.3-0.6-0.4c-0.3-0.1-0.6,0-1,0.3c-0.5,0.3-0.9,0.6-1.1,0.9C91,4.2,91,4.4,91,4.6
		C91.1,4.8,91.3,5.1,91.5,5.5z"/>
	<path class="st0" d="M96.2,2.6c0.4,0.6,0.7,0.9,0.9,1c0.3,0,0.6-0.1,0.9-0.3c0.2-0.1,0.4-0.4,0.6-0.9C98.9,1.9,99,1.6,99,1.3
		c0-0.3-0.1-0.5-0.3-0.9C98.5,0.2,98.3,0.1,98,0c-0.3-0.1-0.6,0-1,0.3c-0.5,0.3-0.9,0.6-1.1,0.9c-0.2,0.3-0.3,0.5-0.2,0.7
		C95.8,2,96,2.3,96.2,2.6z"/>
</g>
</svg>
