<?xml version="1.0" encoding="utf-8"?>
<!-- Generator: Adobe Illustrator 19.2.1, SVG Export Plug-In . SVG Version: 6.00 Build 0)  -->
<svg version="1.1" id="Layer_1" xmlns="http://www.w3.org/2000/svg" xmlns:xlink="http://www.w3.org/1999/xlink" x="0px" y="0px"
	 viewBox="0 0 200 174.2" style="enable-background:new 0 0 200 174.2;" xml:space="preserve">
<style type="text/css">
	.st0{fill:#303F9F;}
</style>
<g id="icon-lice-lady">
	<path class="st0" d="M141.7,174.1c-0.5,0-0.8,0-1,0c-0.8-2.4-0.3-4.7,0.3-7.1c0.1-0.5,0.1-1.1,0.2-1.7c0.1-0.8,0.3-1.7,0.2-2.5
		c-0.2-2.2-0.6-4.4-0.9-6.7c-0.3-2.3-0.5-4.6-1-6.9c-0.5-2.5-1.2-5-1.8-7.5c-0.1-0.3,0-0.7,0-1c-0.2-2.5-0.5-4.9-0.7-7.4
		c-0.1-1.1,0-2.2,0-3.3c-0.1-5.2-0.4-10.4-0.4-15.5c0-2.1,0.5-4.2,0.6-6.2c0.1-1.3,0-2.6,0-4c-0.1,0-0.4-0.1-0.8,0
		c-4.2,0.4-7.7-1.4-11.1-3.4c-0.2-0.1-0.4-0.2-0.6-0.4c-1.2-0.7-1.5-0.4-1.7,1c-0.2,1.9-0.6,3.7-0.9,5.6c-0.2,1.4-0.5,2.8-0.7,4.2
		c-0.4,3.4-0.7,6.7,0.5,10c1.5,4.5,2.9,9,4.2,13.5c0.8,2.8,1.2,5.6,1.8,8.4c0.5,2,1.2,3.9,1.6,5.9c0.5,3,0.7,6,1.2,9
		c0.8,4.8,0.6,9.7,0.7,14.6c0,1.1-0.3,1.5-1.5,1.5c-10,0-20,0-30,0c-1.1,0-1.5-0.4-1.7-1.4c-0.6-2.5-1.2-4.9-1.9-7.4
		c-0.7-2.3-1.7-4.5-2.5-6.8c-0.4-1-0.6-2-0.9-3.1c-0.5-1.5-0.9-1.8-2.5-1.8c-2.8,0.1-5.5-0.2-8.2-0.9c-2.1-0.5-3.8-1.7-5.5-3
		c-0.9-0.7-1.9-1.4-2.8-2.1c-0.7-0.5-1.4-0.9-2-1.5c-0.8-0.7-1.4-0.4-1.8,0.5c-0.6,1.4-1.1,2.7-1.7,4.1c-1.1,3-2.3,6-3.8,9
		c-1.2,2.5-1.6,5.4-2.4,8.1c-0.6,2.1-1.1,4.1-1.7,6.2c-8,0-15.8,0-23.9,0c0.2-1.3,0.5-2.5,0.7-3.7c0.4-2.9,0.8-5.8,1.3-8.7
		c0.2-1.2,0.4-2.5,0.7-3.7c0.7-3.4,1.5-6.7,2.3-10.1c1.1-4.4,1.9-8.9,3.3-13.1c1.4-4.2,1-8.4,1-12.6c0-1.2-0.9-2.4-1.5-3.5
		c-1.6-2.8-3.3-5.4-4.9-8.2c-0.5-0.9-0.8-1.9-1.3-2.9c-1.9,1.1-3.7,2.3-5.7,3.3c-2,1-4.1,1.7-6.2,2.7c-3.6,1.7-7.1,3.5-10.5,5.4
		c-1.2,0.6-2.2,1.6-3.3,2.3c-0.8,0.5-0.8,1.2-0.6,1.9c0.4,1.3,0.8,2.7,2.1,3.4c3.4,1.9,5.4,5.1,6.9,8.4c1.6,3.8,3.5,7.4,5.4,11.1
		c1.1,2,1.7,4.2,2.6,6.3c0.2,0.6,0.5,1.1,0.8,1.8c1.3-1.2,2.6-2.3,3.9-3.3c0.4-0.3,0.8-0.7,1.3-0.9c0.3-0.1,0.9,0,1,0.2
		c0.1,0.3,0,0.9-0.2,1.1c-1.6,1.5-3.2,2.9-4.9,4.3c-1.2,1-1.2,2.4-1.4,3.8c-0.6,3.4-1.1,6.7-1.7,10.1c-0.2,1.1-0.2,2.1-0.2,3.2
		c0,1.6,0,1.6-1.9,1.5c0.1-0.9,0.1-1.9,0.2-2.8c0.6-4.1,1.3-8.1,1.8-12.2c0.2-2.1,0.4-4.2-0.7-6.3c-0.6-1.2-0.6-2.7-1.2-4
		c-1.1-2.3-2.4-4.5-3.6-6.7c-0.4-0.8-0.9-1.7-1.2-2.6c-1.3-3.7-3-7.2-5.8-10c-0.6-0.6-1.4-1.1-2.2-1.8c-1.1,2.5-2.1,4.9-3.2,7.3
		c-1.6,3.5-3,7.2-3.9,11c-0.6,2.7-0.9,5.4-1.4,8.2c-0.2,1.2-0.6,2.4-0.8,3.7c-0.4,2.6-0.7,5.3-1.1,7.9c-0.3,2.7-0.7,5.4-1,8.2
		c-0.5,0-1.1,0-1.7,0c0.4-4,0.8-8,1.3-12.1c0.3-2.2,0.9-4.4,1.1-6.6c0.2-3.4,1.1-6.6,1.9-9.8c0.9-4.1,2.4-7.9,4.2-11.7
		c0.8-1.6,1.5-3.3,2.2-5c0.5-1,0.6-2,0.3-3.1c-0.3-0.9-0.5-1.7-0.7-2.6c-0.4-1.3,0-2.4,1.1-3.2c5-3.6,10.5-6.3,16.2-8.7
		c3.4-1.5,6.6-3.5,9.9-5.3c0.2-0.1,0.5-0.5,0.5-0.6c-0.5-3.6-0.3-7.3-2.1-10.7c-1.6-2.9-3.4-5.8-4.9-8.7c-1-1.8-1.8-3.8-2.5-5.7
		c-1.1-3.2-2.1-6.4-3.1-9.6c-0.8-2.6-1.5-5.1-2-7.8c-0.4-2.2-0.5-4.4-0.7-6.6c-0.3-3.8-0.6-7.5-0.9-11.3c-0.2-1.8-0.7-3.6-0.9-5.5
		c-0.3-3.1,0.4-6.1,1.2-9.1c0.4-1.5,0.8-3.1,1.3-4.6c1-3.7,3.5-6.1,7.1-7.5c1.2-0.5,2.4-0.9,3.6-1.4c1.9-0.8,2.9-2.5,3.6-4.2
		c0.6-1.5,1.3-2.7,2.6-3.6c2-1.3,3.9-2.9,6.4-3.2c1.4-0.2,2.7-0.3,4.1-0.3c2,0,3.5-1,5.1-2.1c1.8-1.2,3.7-2.5,5.8-3.3
		c1-0.4,2.4-0.1,3.6,0.1C69,1.1,72.8,2,76.6,2.8c1.1,0.2,2.2,0.3,3.4,0.5c1.9,0.3,3.4,1.2,4.6,2.6c3.2,3.7,7.7,5.1,12.2,6.4
		c0.2,0.1,0.5,0,0.8,0c3.7-0.2,7.3,0.4,10.9,1.4c2.8,0.7,4.4,2.5,5.8,4.7c3.1,4.7,5.1,9.9,6.8,15.3c2.5,8,4.8,16.2,8.5,23.8
		c1.2,2.4,2.6,4.5,5.2,5.7c1.5,0.7,2.8,2.1,4.2,3.1c2.6,1.8,5.1,3.6,7.8,5.1c2.6,1.5,5.4,2.6,8,3.9c2.3,1.2,4.5,2.6,6.9,3.5
		c5.4,2.1,10.3,5.2,15.3,8.1c2.3,1.3,4.4,2.7,6.6,4.2c0.7,0.5,1.2,1.2,1.8,1.9c0.9,0.9,1.9,1.8,2.8,2.7c1.8,1.8,3.8,3.6,5.5,5.6
		c2.4,2.8,4.1,6.1,5.5,9.5c1.7,4.4,1,9.5-2.4,13.2c-3,3.3-6.6,5.5-10.4,7.5c-2.6,1.4-5.2,2.8-7.8,4.1c-3.2,1.6-6.7,2-10.2,2.5
		c-2.7,0.4-5.4,0.4-8.1,0.5c-0.7,0-1.2,0.1-1.6,0.8c-0.4,0.6-1.3,0.9-1.9,1.4c-3.2,2.3-5.4,5.5-6.8,9.1c-1.9,4.8-3.8,9.5-5.9,14.3
		c-1,2.2-1.5,4.6-2.1,6.9C141.5,172,141.7,173,141.7,174.1z M105.2,33.6c-0.1,0-0.2,0.1-0.3,0.1c-0.1-0.1-0.2-0.2-0.3-0.3
		c-1.4-1.1-2.6-2.4-4.1-3.3c-2.4-1.4-5.1-1.9-7.9-2.4c-0.7-0.1-1-0.1-1.5,0.5c-1,1.4-2.3,2.5-4.3,1.8c-0.3-0.1-0.6,0-1.2,0.1
		c1,1.2,2,2,3.3,2.2c2.7,0.4,5.1,1.3,7.3,2.9c0.8,0.6,1.4,0.6,2.3,0.1c0.3-0.2,0.8,0.1,1.2,0.1c-0.2,0.3-0.4,0.6-0.6,0.8
		c-0.1,0.2-0.4,0.3-0.6,0.4c0.5,0.7,1,1.4,1.5,2c0.9,1.2,2,2.3,2.5,3.9c0.6,2.1,1.6,4.1,2.3,6.2c1.2,3.7,2.2,7.5,3.5,11.2
		c1,2.7,1.6,5.7,3.4,8c1.6,2,3.9,3.6,6.7,2.3c0.6-0.3,1.1-0.6,1.6-0.9c0.3-0.1,0.8-0.1,1.1-0.1c0.1,0,0.2,0.6,0.1,0.7
		c-0.2,0.3-0.6,0.6-0.9,0.7c-1,0.4-2.1,0.8-3.3,1.2c0.6,0.2,0.9,0.3,1.2,0.5c2.7,1.8,5.5,3.5,8.1,5.5c2.5,2,5,4.1,7.2,6.4
		c2.6,2.7,5.3,5.1,8.3,7.3c2.1,1.5,4.3,3.1,5.6,5.4c1.5,2.7,4,4.5,6.2,6.5c1.6,1.5,3.2,3,4.5,4.7c1.5,2,2.8,4.2,4.2,6.2
		c1.3,1.8,2.7,3.6,4,5.4c0.2,0.4,0.2,1,0.1,1.4c-0.1,0.2-0.7,0.5-1,0.4c-0.4-0.2-0.8-0.7-1.1-1.1c-0.3-0.4-0.3-0.8-0.6-1.2
		c-1.6-2.3-3.5-4.3-4.9-6.8c-2-3.7-4.9-6.4-8-9c-0.8-0.7-1.5-1.8-2.8-1.6c-2.3,0.3-4.6,0.8-6.9,1.1c-1.2,0.2-2.1,0.8-2.3,2
		c-0.3,1.5-0.7,3-0.7,4.5c0,7.6,0,15.2,0.2,22.8c0.1,2.8,0.5,5.6,1.1,8.4c0.9,4.4,1.7,8.8,2.2,13.2c0.2,2.4,0.8,4.8,1.3,7.3
		c0.3-0.6,0.6-1.1,0.7-1.6c1-2.4,2-4.8,2.9-7.3c1.1-3.1,2.4-6.2,4.4-8.8c1.3-1.6,2.7-3.1,4-4.6c-1-0.7-2.3-1.4-3.2-2.4
		c-2.5-2.7-4-6.1-5-9.5c-0.9-3.1-0.3-6.3,0.2-9.4c0-0.3,0.6-0.7,0.9-0.7c0.3,0.1,0.7,0.5,0.9,0.8c0.1,0.3-0.1,0.7-0.1,1
		c-0.1,2.5-0.8,5.2-0.2,7.5c0.8,3.2,2.1,6.4,4.5,8.9c1.4,1.4,2.9,3.1,5.3,1.7c0.2-0.1,0.5,0,0.8-0.1c2.6-0.2,5.1-0.2,7.7-0.5
		c3-0.3,6.1-0.7,9-1.8c2.7-1,5.3-2.3,7.7-4.1c-0.4-0.1-0.7-0.2-0.9-0.3c-1.6-1-3.2-2-4.7-3.1c-0.3-0.2-0.1-1.1-0.1-1.6
		c0.5,0.1,1,0.2,1.4,0.4c0.8,0.5,1.5,1.3,2.4,1.7c1.1,0.6,2.3,1.1,3.5,1.6c0.4,0.2,1,0.2,1.4,0c3.7-1.7,6.9-4.1,9.5-7.3
		c1.3-1.7,2.1-3.5,2.2-5.7c0.1-2.5-0.7-4.7-1.7-6.9c-2.9-6.1-7.5-10.9-12.8-15c-0.5-0.4-0.8-0.9-1.2-1.4c-0.4-0.4-0.7-0.9-1.2-1.2
		c-3-1.9-6-3.7-9.1-5.5c-2.5-1.4-4.9-2.8-7.5-4.1c-2.3-1.1-4.6-2.1-6.9-3.1c-1.2-0.6-2.3-1.5-3.6-1.9c-3.3-1.2-6.4-2.7-9.2-4.6
		c-3.2-2.2-6.5-4.4-9.7-6.7c-1.9-1.3-3.6-3.1-6.2-2.2c-0.2,0.1-0.5-0.2-0.8-0.3c0.1-0.3,0.2-0.6,0.4-0.8c0.3-0.3,0.7-0.5,1.1-0.8
		c-0.6-1-1.2-1.9-1.7-2.9c-1.9-4.3-3.9-8.6-5.2-13.1c-1.1-3.9-2.7-7.7-3.7-11.6c-1.5-5.4-3.8-10.5-6.8-15.1c-0.8-1.2-1.8-2.6-3-3
		c-3.5-1.2-7.1-2.3-10.9-2c-0.9,0.1-1.3,0.3-1.5,1.2c3.3,0.2,6.2,1.6,9,3c1.2,0.6,2.3,1.4,2.8,2.7c1.2,3.5,2.5,7,3.6,10.5
		c0.1,0.4,0,0.9-0.1,1.3c-0.1,0-0.2,0-0.4,0c-0.2-0.3-0.5-0.5-0.6-0.8c-1.1-3.1-2.1-6.2-3.1-9.4c-0.6-2.1-2.1-3.4-4.1-4.2
		c-0.3-0.1-0.6-0.2-0.9-0.4c-2.4-1.1-4.9-2-7.6-1.8c-2.1,0.2-2.9,0.7-3.5,2.6c-0.2,0.6,0,1.6,0.4,2c0.4,0.4,1.3,0.3,2,0.3
		c0.6,0,1.1-0.2,1.7-0.1c2.1,0.2,3.6,1.7,5.1,3c0.6,0.5,1.1,1.1,1.9,0.3c0.2-0.2,0.5-0.1,0.8-0.2c0.1,0.1,0.2,0.2,0.2,0.3
		c-0.2,0.3-0.4,0.7-0.7,0.9c-0.6,0.5-1,1-0.6,1.8c0.2,0.4,0.3,0.8,0.5,1.3C104.2,30.1,104.7,31.9,105.2,33.6z M82.3,48.7
		c-0.1-0.4-0.4-0.8-0.2-1.1c0.5-1.2,3-2.7,4.3-2.4c2.1,0.4,3.6,1.3,3.8,3.3c0.2,1.7-0.1,3.5-0.4,5.2c-0.7,3.8-4,5.5-6.3,8.1
		c-0.2,0.2-0.5,0.3-0.8,0.3c-1.3,0-1.4,1.1-1.5,1.9c-0.2,0.9,0,1.8,0,2.7c0,0.1,0.1,0.1,0.2,0.2c1,0.7,3.2,0.9,4.1,0
		c1.5-1.5,3.1-3,4.1-4.8c1.8-3.6,2.6-7.4,2.7-11.5c0-3.5-2-6.5-5.3-7.7c-0.7-0.3-1.8-0.2-2.3,0.2C83.2,43.9,82.1,45,81,46
		c-0.8,0.7-1.5,1.4-2.2,2.2c-0.7,0.7-1.5,1.4-2.1,2.2c-0.8,1-1.7,1.2-2.7,0.3c-0.3-0.2-0.5-0.4-0.8-0.6c-2.1-1.7-4.2-3.3-6.2-5
		c-1.1-0.9-2-2.1-2.9-3.1c-0.6-0.6-1.1-1.3-1.7-1.9c-1.3-1.2-2.4-3-4.6-2.7c-0.9,0.1-1.8,0-2.8-0.1c-3.5-0.3-7.1-0.5-10.6-0.8
		c-0.8-0.1-1.6-0.1-2.4-0.4c-3.3-1-6.7-1.9-10-3c-0.9-0.3-1.6-0.2-2.2,0.3c-1.1,0.9-2,2-3.1,2.9c-2.6,2.1-2.6,5-2.2,7.9
		c0.3,2.3,0.7,4.6,1,6.9c0.2,1.8,0.3,3.6,0.5,5.4c0.1,0.6,0.3,1.3,0.6,1.8c0.8,1.1,1.9,2.1,2.7,3.2c0.8,1.2,1.9,2.6,1.9,3.9
		c0.1,2.6-0.4,5.1-0.8,7.7c-0.3,2-1,3.9-0.8,6c0.1,1,0.5,1.5,1.3,1.8c1.3,0.4,2.7,0.9,4,1.2c2.4,0.6,2.5,0.7,2.6,3.2
		c0,0.3,0.2,0.7,0.2,1c0.2,2.1,0.9,2,2.5,1.7c2.8-0.5,5.5-1.3,8.2-2.1c1.3-0.4,2.6-1,3.9-1.6c0.7-0.3,1-0.1,1,0.6
		c0,1.4-0.4,2.6-1.3,3.7c-1.9,2.3-3.8,4.5-5.7,6.7c-0.3,0.4-0.8,0.5-1.3,0.8c1.4,1.4,1.8,2.7,2,4.1c0.2,1.8,0.7,3.5,2.2,4.7
		c1.7,1.3,3.6,1.4,5.6,0.6c2.3-0.9,4.6-1.9,6.9-2.9c2-0.9,3.7-2.1,4.6-4.2c0.3-0.8,1-1.4,1.7-2c3.3-3.1,6.7-6.1,10.1-9.1
		c0.2-0.2,0.6-0.2,1-0.3c0,0.4,0.2,0.9,0,1.1c-0.9,1.1-1.8,2.2-2.9,3.1c-2.6,2.4-5.3,4.7-7.9,7c-0.2,0.2-0.3,0.5-0.5,0.8
		c0.3,0.1,0.5,0.2,0.7,0.2c0.1,0,0.3,0,0.4-0.1c2.9-0.8,5.6,0.3,8.4,1c0.3,0.1,0.4,0.6,0.6,0.9c-0.3,0.1-0.7,0.4-1,0.4
		c-0.4,0-0.9-0.2-1.3-0.4c-2.1-0.7-4.3-1.2-6.7-0.3c0.1,1.2,0,2.5,0.2,3.6c0.4,1.5,1.2,2.9,1.6,4.4c0.5,2,1,4,1.3,6.1
		c0.5,3.1,1.1,6.2,1.2,9.2c0.2,4.7,0,9.5-0.2,14.2c-0.1,1.6-0.5,3.3-0.8,4.9c-0.1,0.7-0.2,1.3,0.6,1.8c1.7,1,3.4,2.1,5.1,3.1
		c1.6,1,3.1,2.3,4.8,2.9c2.1,0.6,4.4,0.6,6.6,0.7c0.8,0,1.4-0.6,1.3-1.5c-0.2-2.2-0.5-4.4-0.8-6.6c-0.2-1.5-0.6-3.1-0.6-4.6
		c0-7.6,0.1-15.3,0.2-22.9c0-1.7-0.1-3.3-0.2-5c-0.1-2.1-0.1-4.1-0.2-6.2c0-0.8-0.1-1.5-0.3-2.2c-0.7-2.4-1.6-4.8-2.3-7.2
		c-0.9-3.3-2-6.6-2.4-10c-0.5-4.2-0.3-8.5-0.3-12.7c0-1.2,0.2-2.4,0.3-3.7c-0.5,0-1.1,0-1.7,0c-1.3-0.1-2.4-0.8-2.5-1.9
		c-0.1-1.2,0-2.5,0.2-3.7c0.1-1,0.5-2,0.6-3c0.1-1.8,0.3-3.8-1.1-5.3c-0.1-0.1,0-0.5,0-0.8c0.2,0,0.6,0,0.7,0.1
		c0.9,1.1,1.6,2.2,1.6,3.7c0,1,0,2,0,3.1c0.3-0.1,0.5,0,0.6-0.1c1.7-1.6,3.5-3,5-4.8c1.6-1.9,1.6-4.4,1.7-6.8
		c0.1-2.4-2.8-3.9-4.5-2.7C83.9,47.3,83.2,47.9,82.3,48.7z M147.5,100.5c-1.6-3.5-4.2-5.8-7.3-7.9c-2-1.3-3.8-2.9-5.6-4.5
		c-1.3-1.1-2.3-2.5-3.5-3.7c-2-1.9-4.1-3.6-6.1-5.4c-0.2-0.2-0.4-0.3-0.8-0.5c0.1,1,0.3,1.7,0.3,2.5c-0.1,3.6-0.3,7.2-0.5,10.8
		c0,0.7,0.1,1.4-0.1,2c-0.5,2.3,0.2,4,2.1,5.3c0.3,0.2,0.6,0.5,0.9,0.7c2.3,1.5,4.6,2.9,7.4,2.7c2.2-0.1,4.4-0.5,6.7-0.9
		C143.1,101.3,145.3,100.9,147.5,100.5z M42.5,92c0,0.5-0.1,0.9,0,1.2c0.3,0.7,0.6,1.6,1.2,2c0.3,0.2,1.4-0.2,1.9-0.6
		c1.4-1.3,2.8-2.6,4.1-4c0.6-0.7,1.1-1.5,1.6-2.3C47.5,91.1,44.8,91.8,42.5,92z M41.9,88.5c0.6,0.8,1,1.4,1.6,1.9
		c0.3,0.2,1,0.3,1.3,0.2c1.4-0.5,2.7-1.1,4-1.9c1.3-0.8,2.4-1.8,3.5-2.7c-0.1,0-0.1-0.1-0.2-0.1C48.8,86.8,45.4,87.6,41.9,88.5z
		 M90.2,27.5c-1.8-0.7-3.4-0.6-4.1,0.3c-0.2,0.3-0.2,1.1,0,1.2C87.2,29.9,89.5,29,90.2,27.5z"/>
	<path class="st0" d="M40,52.9c1,0.1,2.1,0.2,3.1,0.4c0.3,0.1,0.5,0.6,0.8,0.9c-0.4,0.2-0.8,0.6-1.2,0.5c-2.1-0.5-4.2-0.3-6.2,0.3
		c-1.3,0.3-2.4,1-3,2.3c-0.3,0.6-0.8,1.1-1.4,0.7c-0.2-0.2-0.1-1.1,0.1-1.5c1.4-2.5,3.9-3.2,6.5-3.5C39.1,53,39.6,53,40,52.9
		C40,53,40,53,40,52.9z"/>
	<path class="st0" d="M39,61.2c2.5,3.3,4.9,2.2,7.8,0.7c0.7-0.3,1.4-0.6,2.2-1c0.2,1,0.1,1.4-0.6,1.7c-1.4,0.6-2.7,1.4-4.1,2
		c-2,0.8-4.1,0.1-5.5-1.6C38.1,62.3,38.2,61.8,39,61.2z"/>
	<path class="st0" d="M40.5,73.9c0.3-0.2,0.7-0.5,1-0.5c1.3,0.2,3,1.2,2.6,3.2c-0.4,2-1.8,3.2-3.9,3.1c-1.4-0.1-2.7,0.2-4.1,0.3
		c-0.2,0-0.5-0.2-0.7-0.2c0.2-0.2,0.3-0.7,0.5-0.7c1.2-0.1,2.5-0.3,3.7-0.1c1.7,0.2,3.6-1,3.7-2.5c0-1.3-0.7-2-2.5-2.2
		C40.7,74.1,40.6,74,40.5,73.9z"/>
</g>
</svg>
