<?xml version="1.0" encoding="utf-8"?>
<!-- Generator: Adobe Illustrator 19.2.1, SVG Export Plug-In . SVG Version: 6.00 Build 0)  -->
<svg version="1.1" id="Background_copy_3_xA0_Image_1_"
	 xmlns="http://www.w3.org/2000/svg" xmlns:xlink="http://www.w3.org/1999/xlink" x="0px" y="0px" viewBox="0 0 129.5 200"
	 style="enable-background:new 0 0 129.5 200;" xml:space="preserve">
<style type="text/css">
	.st0{fill:#E64A19;}
</style>
<g id="icon-shoulderpain">
	<path class="st0" d="M11.5,200c-0.7-4.6-1.5-9.1-2.2-13.7c-0.4-2.9-0.6-5.9-1-8.8c-0.5-2.7-1.2-5.3-1.8-8
		c-0.9-4.1-1.7-8.2-2.6-12.2c-0.1-0.4-0.6-0.9-1-1c-0.9-0.4-1.2-0.9-1.2-2c-0.1-4.3-0.2-8.7-0.5-13c-0.1-2.3-0.4-4.7-0.5-7
		c-0.1-2.3,0.1-4.7-0.3-6.9c-0.7-4.3,0.2-8.5,0.4-12.7c0.2-3.4,1.4-6.7,3.4-9.7c1.2-1.8,2-3.9,3.3-5.7c1.4-2,3.2-3.7,4.8-5.6
		c1.5-1.7,3.2-3.2,4.6-4.9c1.8-2.2,3.8-4.2,6.2-5.7c3.3-2.1,6.3-4.6,9.4-6.8c2.5-1.8,5.3-3.2,7.3-5.5c1-1.1,1.9-2.3,2.9-3.4
		c1.2-1.3,2.6-2.4,3.9-3.6c0.8-0.7,1.3-1.4,1.2-2.5c-0.3-3.7-0.7-7.4-0.9-11.1c-0.1-2.3,0-4.6-0.1-7c0-1-0.3-2-0.5-3
		C46,39.2,46,38.2,46,37.3c0-1.9,0.2-3.7,0.2-5.5c0-4.9,0.3-9.8,3-14c2.6-3.9,4.7-8.4,8.9-11c2.8-1.7,5.5-3.6,8.5-4.6
		c4.1-1.4,8.4-2.6,12.9-2c1.8,0.3,3.6,0.8,5.4,1c2.6,0.3,5.1,1,7.2,2.3c2.1,1.3,4,3.2,5.9,4.8c0.6,0.6,1,1.4,1.6,2.1
		c3.3,3.6,4.4,8,5.2,12.6c0.6,3.4,0.3,6.8-0.2,10.2c-0.2,1-0.7,1.8-1,2.8c-0.5,1.9-0.8,3.8-1.3,5.7c2.5,0.7,3.6,4,2.7,7.1
		c-0.8,2.5-1.6,5-2.3,7.5c-0.5,2-1.3,3.6-3.2,5.1c1.4,0.2,2.5,0.2,3.6,0.5c4.2,1.3,8.7,1.9,12,5.1c3,2.9,5.1,6.4,6.1,10.4
		c1.1,4.4,2.2,8.7,3,13.2c0.5,2.8,0.5,5.7,0.5,8.5c0,4.2,1,8.1,2.7,11.9c0.4,0.9,0.7,2,0.7,3c0,0.5-0.4,1.2-0.9,1.6
		c-0.6,0.5-0.8,0.9-0.6,1.7c0.5,1.5,0.9,3,1.4,4.4c1,2.5,1.4,5.1,1.4,7.8c0,3.6-0.3,7.2-0.9,10.8c-0.6,3.3-0.3,6.8-0.4,10.3
		c0,2.4-0.3,4.7-1.3,7c-1.6,3.8-3.4,7.5-5.9,10.8c-1.8,2.4-4.6,3.2-7.4,2.2c-3.1-1.2-6.2-2.3-9.3-3.4c-0.4-0.1-0.8-0.2-1.1-0.2
		c-0.9,4.9-0.1,9.6,1,14.3c1.5,6.3,3.1,12.6,4.6,18.8c-0.7,0-1.3,0-2,0c-0.6-2-1.3-4-1.7-6.1c-1.1-5-2.2-10-3.2-14.9
		c-0.4-1.7-0.8-3.3-0.9-5c-0.1-2.2,0.1-4.5,0.2-6.7c0.1-0.9-0.3-1.2-1.4-1.3c-0.6,1.1-1.1,2.3-1.8,3.3c-2.2,3.1-4.5,6.1-7.5,8.4
		c-4.5,3.5-10,4.9-15.3,6.4c-0.8,0.2-1.7,0.6-2.5,0.6c-0.5,0-1.3-0.2-1.5-0.6c-0.4-0.7,0.1-1.3,0.8-1.5c0.4-0.1,0.8-0.2,1.2-0.3
		c3-0.9,6.2-1.6,9.1-2.8c2.6-1,5.2-2.3,7.4-4c2-1.5,3.6-3.7,5.1-5.7c1.1-1.5,2-3.2,3.1-4.9c-0.7-0.2-1.3-0.3-1.9-0.5
		c-2.7-1-5.5-1.9-8-3.3c-2.7-1.5-5.2-3.3-7.8-5.1c-2.2-1.5-4.2-3.2-6.3-4.8c-1.1-0.8-2.1-1.7-3.2-2.5c-3.6-2.5-7.3-4.9-10.9-7.3
		c-0.6-0.4-1.2-1-1.8-1.5c-1.3-1-2.5-2-3.9-2.9c-1.3-0.9-2.8-1.7-4.2-2.5c-0.5-0.3-1.1-0.4-1.6-0.3c-0.2,0-0.3,0.8-0.4,1.3
		c-0.3,2.3-0.6,4.8-2.3,6.4c-2.2,2.2-2.6,4.9-2.7,7.6c-0.3,6.5-0.3,13.1-0.4,19.6c-0.1,2.9-0.1,2.9,2.8,3.1
		c4.3,0.3,8.6,0.1,12.8-0.9c0.7-0.2,1.7-0.4,1.9,0.8c0.2,1.2-0.7,1.3-1.5,1.4c-2.4,0.3-4.7,0.7-7.1,0.8c-2.2,0.2-4.4,0.1-6.7,0.2
		c-1.9,0.1-1.9,0.1-1.8,2.1c0.3,4.9,0.3,9.8-1.1,14.6c-0.8,2.9-0.6,5.8-0.1,8.7c-0.7,0-1.5,0-2.2,0c0-3.5-0.2-7.1,0.8-10.6
		c0.7-2.6,0.8-5.3,0.7-8c-0.1-2.8-0.4-5.7-0.5-8.5c-0.1-3.3,0-6.5,0-9.8c0-0.6,0-1.2,0-1.7c-6-0.2-11.8-0.5-17.6-0.7
		c-5.8-0.2-11.3-2.1-17-3.4c0.6,2.8,1.1,5.3,1.6,7.8c1.1,5.4,3,10.6,3.1,16.2c0.1,3.2,0.8,6.4,1.3,9.5c0.5,3,1.1,6.1,1.7,9.1
		C12.9,200,12.2,200,11.5,200z M11.4,123.5c0.5,0,1,0.1,1.5,0.1c2.6,0,5.2,0.1,7.7,0c3.2-0.2,5.6,1.1,7.9,3.1
		c1.1,0.9,2.5,1.7,3.9,2.1c3.1,0.7,6.4,1,9.5,1.6c2.8,0.6,5.7,0.9,8.2,2.2c3.2,1.6,6.1,3.9,9.1,6c2.9,2,5.7,4.1,8.7,5.9
		c2.5,1.4,5,2.8,6.9,5c2.2,2.6,5.1,4.3,7.8,6c5.7,3.7,11.9,6.4,18.3,8.6c3.6,1.3,7.2,2.7,10.9,3.9c1.4,0.4,2.8,1,4.4,0.8
		c2.1-0.2,3.2-1,4.1-2.6c1.6-2.8,3.1-5.6,4.6-8.5c0.5-1,1-2.2,1.1-3.4c0.2-2.5,0.1-5,0.3-7.6c0.2-2.8,0.3-5.7,0.8-8.5
		c0.6-3.1,0.9-6.2,0.6-9.4c-0.2-2.2-0.8-4.4-1.4-6.6c-0.8-2.4-1.7-4.8-1.7-7.4c-0.1-3-0.4-3.4-3.2-4.3c-0.2-0.1-0.3-0.1-0.5-0.1
		c-5.8-1.5-11.7-1.4-17.5,0c-1.5,0.3-2.4,0.9-2.5,2.5c-0.1,0.6-0.3,1.3-0.5,1.9c-1.3,4.7-1.9,9.5-1.9,14.3c0,0.4,0.4,1,0.7,1.2
		c1.5,0.7,3.1,1.3,4.7,1.8c3.8,1.2,7.6,2.3,11.4,3.5c0.4,0.1,0.6,0.7,0.9,1.1c-0.4,0.2-0.8,0.6-1.3,0.7c-0.4,0.1-0.9-0.1-1.3-0.2
		c-3.5-1.1-7-2.2-10.5-3.2c-3.2-1-6.4-2-9.7-2.8c-2.5-0.7-5.1-0.9-7.4-1.9c-4.8-2.1-9.9-3.9-14.3-6.9c-1.1-0.8-2.3-1.4-3.6-1.9
		c-3.6-1.4-7-3-10.1-5.2c-1.6-1.2-3.6-1.8-5.3-2.9c-0.9-0.6-1.8-1.3-2.4-2.2c-1.5-2.2-2.8-4.5-4.2-6.7c-0.5-0.9-1.1-1.7-1.5-2.7
		c-0.5-1.4-1.4-2.4-2.6-3.1c-1.9-1.2-3.8-2.6-5.7-3.9c-1.4-1-2.8-1.6-4.6-1.6c-1.7,0-3.3-0.3-5-0.6c-1-0.2-1.3,0.3-1.3,1
		c0,0.6,0.3,1.2,0.7,1.7c0.9,1.3,2.3,1.7,3.7,2c2.8,0.6,5.5,1.4,7.7,3.3c0.3,0.3,0.3,0.9,0.5,1.3c-0.4-0.1-0.9,0-1.3-0.2
		c-1.1-0.6-2.1-1.5-3.3-1.8c-4-1.1-8-1.9-12.1-2.8c-0.6-0.1-1.2-0.2-1.7-0.2c-3.2,0.2-6,1.6-8.8,3c-1.6,0.8-1.9,2.2-1.2,3.2
		c1.6-0.2,3.2-0.6,4.7-0.5c3.1,0.2,6.2,0.7,9.3,1.2c0.3,0,0.5,0.5,0.7,0.8c-0.3,0.2-0.5,0.5-0.9,0.7c-0.1,0.1-0.4,0-0.6,0
		c-2.1-0.3-4.2-0.7-6.3-1.1c-2.9-0.5-5.6,0.1-8.3,1.4c-0.2,0.1-0.3,0.6-0.2,0.9c0.3,1,0.6,1.9,0.9,2.9c0.2,0.7,0.6,1,1.2,0.8
		c3.9-1.5,7.6,0,11.3,0.6c0.3,0.1,0.5,0.5,0.8,0.8c-0.4,0.2-0.7,0.6-1.1,0.6c-0.7,0-1.5-0.1-2.2-0.4c-3.5-1.2-6.9-0.8-10.2,0.5
		c0.3,1,0.5,2,0.8,3.2c0.8,0,1.7,0,2.6,0c3.1,0,6,1.1,8.7,2.4c0.5,0.2,0.9,1,0.9,1.5c0,0.8-0.7,1.1-1.5,1.1c-3,0.1-5.9,0.3-8.9,0.5
		c-0.1,0-0.2,0.1-0.2,0.1C11.4,120.9,11.4,122.1,11.4,123.5z M37,76.2c-1.4,0.9-2.9,1.9-4.3,2.9c-3.3,2.3-6.5,4.5-9.7,6.9
		c-1.3,0.9-2.4,2.2-3.5,3.3c-0.6,0.5-1,1.2-1.6,1.7c-1.7,1.6-3.4,3.2-5.1,4.9c3.8-1.8,7.6-2.6,11.6-0.7c-0.3-1-0.6-1.8-0.6-2.5
		c-0.2-2.2,1.6-3.5,3.7-2.8c0.8,0.3,1.6,0.4,2.4,0.4c2.8,0.2,5.6,0.2,7.9,2.3c1.2,1.1,2.5,2,3.9,2.8c2.1,1.3,4.2,2.5,4.8,5.2
		c0,0.2,0.2,0.3,0.3,0.5c1.3,2.2,2.6,4.4,4.1,6.5c1,1.5,2,3,3.9,3.6c1.3,0.4,2.6,1.1,3.8,1.7c1.6,0.8,3,1.8,4.6,2.6
		c2.5,1.3,5,2.4,7.5,3.6c3.3,1.6,6.3,3.8,9.7,5.2c4.4,1.9,8.8,3.8,13.6,4.5c1.8,0.3,2,0.1,2.1-1.7c0.1-1.5,0.2-3.1,0.4-4.6
		c1-6.6,2.5-13,5.1-19.2c1.9-4.5,3-9.3,2.7-14.3c-0.1-1.4,0.1-2.7,0.3-4.1c0.1-0.4,0.6-0.7,0.9-1.1c0.4,0.4,1.1,0.7,1.1,1.1
		c-0.1,3.6,0.4,7.3-0.6,10.9c-0.6,2.2-1,4.4-1.5,6.6c6.2-1.4,12.4-2.4,18.5,0.9c-0.2-3-0.3-5.9-0.5-8.7c-0.4-5.5-1.5-10.9-3-16.2
		c-0.9-3.3-2.4-6.3-4.6-9c-1.8-2.2-4.4-3.1-6.9-4.1c-3.6-1.4-7.3-1.8-11-2.2c-0.6-0.1-1.6,0.1-1.8,0.5c-0.8,1.5-1.7,3.2-2.1,4.9
		c-0.9,3.9-2.2,7.6-4.6,10.8c-0.9,1.1-2,2.1-2.5,3.3c-1.1,3-2,6-2.8,9.1c-1.1,4-1.9,8.1-3,12.1c-1,3.5-3.7,5.9-6.2,8.4
		c-0.2,0.2-1.1,0.1-1.5-0.1c-3.4-2-6.9-4-10.2-6.1c-2-1.3-3.8-2.8-5.7-4.2c-2.9-2-5.3-4.4-7.4-7.2c-1.9-2.5-3.8-4.9-5.6-7.4
		c-1.1-1.4-2.1-2.8-3-4.4C39.2,80.7,38.2,78.4,37,76.2z M49.8,68.1c-0.1,1.9,1.1,4.5,2.9,6.9c1.7,2.4,3.5,4.6,5.6,6.6
		c0.7,0.6,1.3,1.4,1.8,2.2c1.5,2.8,3.8,4.2,7,4.6c3.2,0.4,6.1,0.4,8.8-1.7c2.5-2,5.1-3.8,7.7-5.6c3.8-2.7,6.2-6.1,7.3-10.7
		c0.5-2.1,1.3-4.1,2.1-6.1c0.4-1.1,0.9-2.2,0.8-3.4c0-0.3,0.2-0.7,0.2-1.1c0.1-1.8,0.3-3.6,0.4-5.4c0-0.5,0-1,0.1-1.4
		c0.7-1.6,0.2-3.5-1.2-4.5c-1.5-1.1-2.4-2.6-2.8-4.4c-0.5-2.2-1.2-4.3-1.5-6.5c-0.2-1.4-1.2-1.7-2.2-1.7c-2.4,0.1-4.7,0.4-7.1,0.8
		c-2,0.3-3.9,1-5.8,1c-3.2,0-6.3-0.3-9.5-0.6c-2.5-0.2-5-0.8-7.2-2.1c-1.1-0.6-2.3-1.1-3.5-1.5c-2-0.7-2.7-0.3-3.1,1.7
		c-0.6,3.7-1.2,7.4-1.3,11.2c-0.1,3.3,0.5,6.6,0.6,9.9C49.9,59.9,49.8,63.4,49.8,68.1z M4.3,109.3c-0.2,0-0.3-0.1-0.5-0.1
		c-0.4,2-1.1,4.1-1.3,6.1c-0.4,4.3-0.7,8.7-0.3,13c0.1,0.8-0.1,1.6,0,2.3c0.3,4.7,0.8,9.3,0.9,14c0.1,2.7,1,3.6,3.2,4.1
		c7,1.8,14,3,21.2,2.9c3.9-0.1,7.8-0.5,11.7-0.7c0.8-0.1,1.2-0.4,1.3-1.3c0.1-1.1,0.3-2.2,0.6-3.3c0.4-1.8,0.3-3.3-1.2-4.6
		c-0.6-0.5-1.2-1.2-1.7-1.8c-0.5-0.7-0.6-1.4,0.1-2c0.8-0.7,1.2,0,1.7,0.6c0.8,0.9,1.7,1.8,2.6,2.8c2.1-2.2,2.4-4.7,2.8-7.2
		c0.1-0.8-0.5-1.5-1.4-1.6c-3.7-0.7-7.4-1.4-11.1-1.9c-2.3-0.3-4.2-1.1-5.8-2.7c-1.5-1.6-3.4-2.6-5.7-2.6c-3.5,0-7-0.1-10.4-0.2
		c-3-0.1-4.9-2.5-4.3-5.5c0.3-1.8,0.9-2.1,2.8-1.9c2.6,0.2,5.2,0.1,7.8,0.1c0.3,0,0.6-0.2,1-0.3c-0.4-0.5-0.7-0.7-1.1-0.9
		c-2.8-0.8-5.6-0.9-8.5-0.5c-2.9,0.4-4.1-1.8-3.4-4C5.5,110.7,4.9,110.1,4.3,109.3z M48.2,66c-0.1-0.1-0.3-0.1-0.4-0.2
		c-1.5,1.5-3.1,3.1-4.7,4.6c-1.3,1.2-1.5,2.7-0.6,4.1c1.6,2.9,3.2,5.8,5.1,8.4c3.1,4.4,6.5,8.5,10.4,12.1c1.1,1,2.3,2,3.6,2.8
		c2.9,1.8,5.8,3.3,8.8,5c1,0.6,1.9,1.3,3,2.1c2.5-7.9,6.7-14.8,10.2-22.1c-1.9,1.2-3.8,2.4-5.4,3.8c-2.7,2.3-5.6,4-9.3,3.4
		c-0.6-0.1-1.2-0.2-1.8-0.2c-2.9-0.4-5.4-1.2-7.3-3.7c-1.6-2.1-3.4-4-5.1-6.1c-0.8-1-1.6-2.1-2.4-3.1c-0.7-1-1.4-1.9-2.3-3.2
		c0,1.3,0,2.3,0,3.2c0,1.7,0.1,3.3,0,5c0,0.3-0.6,0.6-0.9,0.9c-0.2-0.4-0.7-0.7-0.7-1.1C48.2,76.6,48.2,71.3,48.2,66z M40.4,153
		c-12.5,1.6-24.7,1-36.7-2.8c0,1,0.1,1.9,0,2.8c-0.1,1.1,0.4,1.7,1.4,1.9c2.4,0.6,4.9,1.1,7.2,1.8c4.1,1.3,8.3,1.8,12.6,2.1
		c4.5,0.3,8.9,0.2,13.4,0.3c0.7,0,1.3-0.2,2.1-0.3C40.4,156.9,40.4,155.1,40.4,153z M74,107.9c-0.7-0.5-1.2-0.9-1.7-1.3
		c-2.9-1.9-5.6-4.1-8.6-5.8c-2.7-1.5-5.2-3.1-7.5-5.3c-4.1-4-7.7-8.3-10.8-12.9c-1.9-2.8-3.4-5.8-5.1-8.8c-0.4,0.4-0.9,0.8-1.6,1.3
		c1,2.2,1.7,4.7,3,6.6c2.6,3.9,5.6,7.4,8.4,11.2c2,2.7,4.2,5,6.9,6.9c2,1.4,3.7,3.1,5.7,4.4c3.2,2.1,6.6,4,9.9,5.9
		c0.3,0.2,0.9,0,1.1-0.2c2.2-1.6,3.6-4,4.4-6.4c1.3-3.7,2.1-7.5,3.1-11.3c0-0.1,0-0.3-0.1-0.8c-1.4,2.9-2.7,5.5-3.9,8.1
		C75.9,102.2,75.7,105.3,74,107.9z M124.7,109.8c-0.3-1.3-0.6-2.3-0.9-3.4c-0.1-0.2-0.2-0.4-0.3-0.5c-1.7-0.8-3.4-1.8-5.2-2.2
		c-4.1-0.8-8.2-0.4-12.3,0.8c-2.1,0.6-3.2,1.6-3.4,3.9C110,106.8,117.4,106.5,124.7,109.8z M102.9,48.8c-1-0.3-1.6,0.1-2.2,0.8
		c-0.4,0.4-0.9,0.7-1.4,1.1c-0.4,0.4-0.8,0.7-1.1,1.1c-0.6,1-1,2.2-1.7,3.1c-0.8,1-0.7,1.9-0.4,3.1c0.7-0.6,1.1-1.3,1.6-1.9
		c0.8-1.1,1.7-2.2,2.6-3.3c2,0.3,1.8-1.3,2.1-2.5C102.5,49.8,102.7,49.3,102.9,48.8z M95.3,60.7c3.3,0.3,5.3-2.2,6-6.8
		c-1.2,0.5-1.8,1.3-2.1,2.3c-0.5,1.4-1.3,2.4-2.6,3.1C96.2,59.6,95.9,60.1,95.3,60.7z M99.9,47.7c1.3-0.3,2.3-0.5,3.6-0.7
		c-0.1-0.8-0.2-1.6-0.5-2.4c-0.3-0.8-1-0.9-1.5-0.1C100.9,45.5,100.5,46.5,99.9,47.7z M7,109.8c1.1-0.6,0.7-3.1-0.6-4.3
		C4.9,107.1,6.1,108.4,7,109.8z M9.5,122.9c0.8-1.1,0.6-2,0-2.9c-0.1-0.2-0.4-0.4-0.6-0.6c-0.2,0.3-0.6,0.5-0.6,0.8
		C8.2,121.2,8.5,122.1,9.5,122.9z M6.9,112c-0.7,1.3-0.2,2.3,1,2.3C8.2,112.7,8.2,112.7,6.9,112z"/>
	<path class="st0" d="M71.2,67.3c1,0.2,1.6,0.8,2,1.7c0.4,1,0.3,2-0.5,2.6c-1.9,1.5-4.1,2.3-6.5,2.6c-1.6,0.2-2.9-0.6-3.8-1.9
		c0-0.1-0.1-0.1-0.1-0.2c-2.4-2.6-1.7-3.1-0.2-5.9c1.1-2,1.9-4.3,2.8-6.4c0-0.1,0-0.2,0.1-0.4c0.3-2.4-1.1-3.6-3.5-3
		c-2.7,0.8-5.3,0.2-7.9-0.7c-0.4-0.1-0.5-0.7-0.8-1.1c0.5-0.2,1-0.6,1.5-0.5c1,0.2,2,0.6,3,0.7c-1.7-1.2-3.4-2.4-5.1-3.6
		c-0.5-0.4-1.1-0.8-0.5-1.3c0.2-0.2,1-0.2,1.5,0c0.8,0.3,1.4,0.8,2.2,1.2c1.7,0.9,3.3,2,5.1,2.8c1.3,0.6,2.8,0.8,4.2,1.2
		c1.4,0.4,1.9,1.4,1.8,2.7c-0.1,1.3-0.3,2.7-0.8,3.8c-1,2.3-2.4,4.4-3.5,6.6c-0.2,0.5-0.3,1.3,0,1.8c0.4,0.8,1.1,1.5,1.8,2.2
		c1,1,2.5,1.2,3.9,0.7c1-0.5,2.1-0.8,3.2-1.2c1.7-0.6,2-1.9,0.8-3.2c-0.3-0.3-0.5-0.7-0.8-1.1C71,67.5,71.1,67.4,71.2,67.3z"/>
	<path class="st0" d="M79,57.6c0.4,0.1,0.7,0.3,1.1,0.3c1.3,0,2.7,0,4,0c0.4,0,0.9,0.4,1.3,0.5c-0.4,0.4-0.7,1-1.1,1.1
		c-1.8,0.1-3.6,0.2-5.4,0c-1.2-0.1-2.3-0.8-3.5-1.1c-0.8-0.3-1.7-0.4-2.7-0.6c-0.1-0.4-0.1-1-0.2-1.7c4.3,0.6,8.1-1.4,12.1-1.7
		c0.7-0.1,1.3-0.1,1.5,0.6c0.2,0.8-0.5,0.9-1.2,1.1c-2,0.4-4,1-6,1.4C79.1,57.4,79.1,57.5,79,57.6z"/>
	<path class="st0" d="M58.5,75.5c0.7,0,1.4-0.2,2,0c1.8,0.5,3.5,1.2,5.2,1.8c0.5,0.2,1.1,0.3,1.7,0.3c2.4,0,4.9-0.1,7.3-0.2
		c0.2,0,0.5-0.1,0.7,0c0.3,0.1,0.5,0.3,0.8,0.4c-0.2,0.3-0.3,0.6-0.5,0.8c-1.6,1-3.3,1.9-5,3c-1.2,0.8-2.6,0.9-3.9,0.8
		c-1-0.1-2.1,0-3.1-0.3c-0.8-0.3-1.6-1.1-2.2-1.8C60.6,78.8,59.7,77.3,58.5,75.5z M73.8,78.2c-4.6,0.7-8.9,0.3-13.1-1.6
		c0.6,1.3,1.3,2.4,2,3.5c0.2,0.4,0.6,0.7,1,0.8C66.7,82.1,71.4,80.8,73.8,78.2z"/>
</g>
</svg>
