<?xml version="1.0" encoding="utf-8"?>
<!-- Generator: Adobe Illustrator 19.2.1, SVG Export Plug-In . SVG Version: 6.00 Build 0)  -->
<svg version="1.1" id="Background_copy_2_xA0_Image_1_"
	 xmlns="http://www.w3.org/2000/svg" xmlns:xlink="http://www.w3.org/1999/xlink" x="0px" y="0px" viewBox="0 0 146.2 150"
	 style="enable-background:new 0 0 146.2 150;" xml:space="preserve">
<style type="text/css">
	.st0{fill:#2E7D32;}
</style>
<g id="icon-chestpain">
	<path class="st0" d="M39.6,150c0.1-0.5,0.1-0.9,0.2-1.4c0.2-3,0.3-6.1,0.5-9.1c0.1-1.6,0.6-3.1,0.8-4.7c0.2-1.3,0.1-2.6,0.2-4.2
		c-1.3,0.5-2.5,0.9-3.6,1.4c-3.4,1.5-7,2.4-10.6,3.3c-2.2,0.5-4.3,1-6.5,1.6c-2.5,0.6-4.9,1.4-7.4,1.9c-1.1,0.2-2.4-0.1-3.6-0.2
		c-0.6,0-1.2-0.2-1.8-0.3c-0.8-0.1-1.6,0.1-2.3-0.2c-2.7-1.4-5.4-2.9-5.6-6.4c-0.1-1.2,0.2-2.3,0.3-3.5c0.3-3,2.1-5.3,3.5-7.8
		c1.6-3.1,3.2-6.1,4.8-9.2c1.2-2.3,2.3-4.8,4.2-6.7c0.1-0.1,0.2-0.3,0.2-0.4c-0.4-1.6,0.6-2.6,1.4-3.7c1.2-1.6,2.4-3.2,3.7-4.8
		c0.5-0.7,1.2-1.4,1.6-2.1c0.7-1.3,1.3-2.6,2-3.9c1.2-2.5,2.6-4.8,4.3-7c1.3-1.5,2.4-3.2,3.4-4.9c1.2-2,2.9-3.5,4.8-4.8
		c2.4-1.5,4.8-2.9,7.3-4.2c3.1-1.7,6.4-2.8,9.8-3.9c2.9-0.9,5.7-2.2,8.5-3.3c0.7-0.3,1.2-0.8,1.6-1.6c1.9-3.9,3.9-7.8,5.9-11.6
		c0.1-0.2,0.3-0.4,0.5-0.7c-1-1.2-1.8-2.5-2.2-4.1c-0.4-1.6-1.2-3.2-1.8-4.7c-0.5-1.2-1-2.5-1.4-3.8c-0.4-1.4-0.4-2.8,0.7-3.9
		c0.4-0.4,1.1-0.6,1.8-0.9c0-0.1,0-0.4-0.1-0.6c-1.1-3.1-1.2-6.2-0.9-9.4c0.1-1,0.2-2,0.5-3c0.4-1.2,1-2.4,1.7-3.5
		c1.4-2.3,2.9-4.6,4.4-6.9c1.5-2.2,3.7-3.7,6.2-4.6c1.7-0.6,3.4-1.4,5.2-1.6c1-0.1,2-0.2,3-0.3C86,0.3,86.7,0.1,87.4,0
		c1.3-0.1,2.5,0.2,3.7,0.6c1.9,0.7,3.8,1.3,5.7,2c1.9,0.8,3.6,1.9,4.8,3.7c0.4,0.7,1.3,1.1,1.7,1.8c0.6,1.1,1,2.3,1.5,3.4
		c0.5,1.2,0.8,2.4,1.3,3.5c0.7,1.8,0.7,3.6,1,5.5c0.2,1.6,0.4,3.1,0.6,4.7c0.1,0.7,0,1.5,0,2.1c0.6-0.1,1.2-0.2,1.9-0.3
		c0.5-0.1,0.8,0.2,0.9,0.7c0.2,0.8,0.4,1.6,0.4,2.4c0.1,1.9,0.1,3.8,0,5.7c-0.1,1.9-0.4,3.7-1.3,5.4c-0.2,0.4-0.5,0.9-0.8,1.1
		c-1.2,0.8-1.3,2-1.5,3.2c-0.6,3-1.2,5.9-1.9,8.8c-0.2,0.9-0.6,1.7-1.1,2.4c-0.4,0.7-0.6,1.3-0.6,2.1c0,1.1-0.2,2.1-0.3,3.2
		c-0.1,0.8,0,1.3,0.8,1.8c2.3,1.2,4.5,2.6,6.8,3.8c1.4,0.8,2.9,1.4,4.3,2.1c1.5,0.7,2.9,1.5,4.3,2.3c1.2,0.7,2.4,1.4,3.7,2.2
		c2.2,1.3,4.4,2.5,6.6,3.8c1.9,1.2,3.7,2.7,5.6,4.1c1.8,1.3,2.4,3.3,3,5.3c0.7,2.6,1.2,5.2,1.9,7.7c1.1,4.5,2.3,9,3.5,13.6
		c0.3,1,0.7,2.1,1,3.1c0.2,0.7,0.3,1.4,0.5,2.1c0.4,1.9,0.8,3.8,1.3,5.7c0.1,0.6,0,0.9-0.4,1.2c-1,0.6-2,1.3-3,1.8
		c-0.5,0.3-0.7,0.6-0.6,1.1c0.6,2.9,0.4,5.8,0.5,8.7c0.2,3.5,0.3,7,1.2,10.4c0.6,2.1,0.9,4.2,1.4,6.4c0.1,0.2,0,0.5,0,0.7
		c-0.4,0-0.8,0-1.2,0c-0.3-1.3-0.4-2.6-0.8-3.8c-0.9-3.8-1.8-7.5-1.9-11.4c0-2.6-0.1-5.2-0.2-7.8c0-1-0.2-2-0.3-3.2
		c-0.4,0.2-0.5,0.3-0.7,0.4c-2.5,1.4-5,2.9-7.6,4.2c-3.2,1.6-6.5,2.8-9.9,3.6c-0.2,0-0.3,0.4-0.3,0.6c0.1,0.6,0.4,1.2,0.5,1.9
		c0.3,2.2,0.6,4.4,0.8,6.5c0.2,1.3,0.3,2.6,0.5,3.9c0,0.2,0.2,0.5,0.4,0.6c0.7,0.3,1.5,0.6,2.3,0.9c2.2,1.1,4.7,1.7,6.4,3.6
		c-0.7,0-1.4,0-2.2,0c-0.3-0.2-0.5-0.5-0.8-0.6c-1.1-0.5-2.3-1.1-3.4-1.6c-0.7-0.3-1.3-0.7-2-0.8c-1.1-0.2-2.4,0-3.5-0.3
		c-3.1-0.8-6-1.8-8.6-3.8c-0.7-0.5-1.4-1.1-2.2-1.5c-2-0.9-4.2-1.5-6.2-2.4c-0.7-0.3-1.4-0.7-2-1.2c-0.9-0.6-1.6-1.3-2.5-2
		c-1.5-1.2-3.2-2.3-4.6-3.6c-1.7-1.5-2.9-3.5-4.7-4.9c-0.5-0.4-0.6-1.4-1-2c-0.9-1.5-1.5-3.2-1.8-5c-0.2-1.3-0.4-2.7-0.9-3.8
		c-0.9-2-2-3.9-3-5.9c-1.1-2.1-2.7-3.8-4.3-5.5c-0.4-0.4-0.7-0.5-1.2-0.2c-1.2,0.6-2.1,0.4-3-0.6c-0.3-0.3-0.6-0.7-0.8-1
		c-0.1,0.3-0.1,0.7,0.1,0.9c0.8,1.4,1.6,2.8,2.4,4.2c0.7,1.3,1.5,2.5,2.3,3.8c0.8,1.3,1.7,2.3,3.1,3c0.6,0.3,1.2,0.7,1.7,1.1
		c0.1,0.1,0.2,0.5,0.1,0.6c-0.1,0.1-0.5,0.2-0.6,0.1c-0.9-0.5-1.9-0.9-2.7-1.5c-1.3-1.1-2.8-1.7-4.3-1.8c-2.6-0.2-4.6-1.6-6.3-3.3
		c-1.2-1.3-2.6-2.3-4-3.3c-0.3,0.5-0.6,0.9-0.9,1.3c-0.2,0.2-0.5,0.2-0.8,0.3c0-0.3-0.1-0.6,0-0.9c0.2-0.5,0.8-1.1,0.7-1.4
		c-0.2-0.4-0.9-0.6-1.4-0.9c-0.1-0.1-0.2-0.1-0.3-0.1c-1.7-0.9-3.5-1.7-5-2.5c-0.7,0.8-1.3,1.5-1.9,2.2c0.3,0.1,0.5,0.3,0.8,0.4
		c2.8,1.6,5.5,3.4,7.8,5.7c0.5,0.5,0.8,1.1,1.3,1.5c1.3,1,2.6,2,3.9,3c0.2,0.2,0.2,0.6,0.3,1c-0.3,0-0.7,0-0.9-0.2
		c-0.6-0.4-1.1-1-1.7-1.3c-2.6-1-5.2-2-7.9-3c-0.1,0.3-0.3,0.7-0.5,1c-0.2,0.2-0.6,0.3-0.9,0.4c0-0.3-0.1-0.6-0.1-0.9
		c0-0.1,0.1-0.3,0.3-0.4c0.4-0.5,0.2-0.8-0.2-1.1c-0.9-0.6-1.8-1.3-2.7-1.9c-1.3-0.8-2.6-1.6-3.7-2.4c-0.5,0.9-1,1.8-1.5,2.7
		c1,0.6,2,1.3,3,2c1.6,1.2,3.3,2.4,4.9,3.6c1.7,1.4,3.4,2.8,5.1,4.2c0.3,0.3,0.7,0.6,0.3,0.9c-0.2,0.2-0.7,0.1-1.1-0.1
		c-0.9-0.4-1.7-1-2.7-1.4c-2.7-0.9-5.2-2.2-7.4-4c-0.8-0.6-1.7-1.2-2.5-1.7c-0.6,0.9-1.2,1.8-1.9,2.7c1.7,1.1,3.4,2.2,5.1,3.4
		c0.9,0.6,1.7,1.1,2.5-0.1c0.1-0.1,0.5,0,0.7,0c0,0.2,0.1,0.5,0,0.7c-0.2,0.4-0.5,0.7-0.9,1.2c1.5,0.9,2.9,1.8,4.3,2.7
		c0.7,0.4,1.5,0.8,2.2,1.2c0.2,0.1,0.3,0.5,0.4,0.8c-0.3,0-0.7,0.1-1,0c-0.3-0.1-0.6-0.3-1-0.3c-1.9-0.3-3.8-0.6-5.7-1
		c-1.8-0.3-3.5-0.8-5.5-1.2c0.6,1.1,0.7,2,0.1,2.9c0.2,0.1,0.5,0.2,0.7,0.2c2,0.5,4,0.9,5.9,1.4c3.5,0.9,6.9,1.9,10.4,2.8
		c2.5,0.7,4.9,1.5,7.1,2.8c1,0.6,2,1,3,1.6c0.7,0.4,1.4,0.8,2.1,1.3c1,0.6,1.9,1.1,2.9,1.7c1.7,1.1,3.3,2.1,4.9,3.3
		c1.3,1,2.5,2.1,3.7,3.2c1.8,1.7,3.6,3.6,5.4,5.3c-0.7,0-1.3,0-2,0c-0.6-0.7-1.2-1.5-1.9-2.2c-2.2-2-4.4-4-6.7-5.9
		c-1.2-1-2.7-1.7-4.1-2.6c-0.7-0.5-1.5-0.9-2.2-1.4c-0.9-0.6-1.8-1.2-2.7-1.8c-0.6-0.3-1.4-0.4-1.9-0.8c-2.1-1.6-4.5-2.5-7-3.2
		c-4-1.1-8-2.2-12.1-3.2c-1.3-0.3-2.6-0.8-3.8-0.6c-2.8,0.4-5.6,1.1-8.4,1.7c-0.6,0.1-0.7,0.4-0.7,1c0,2.5,0.1,4.9-0.6,7.4
		c-0.4,1.3-0.3,2.7-0.4,4c-0.2,2.5-0.3,5.1-0.5,7.6C40.5,150,40.1,150,39.6,150z M144,115.4c-0.3-1.3-0.7-2.6-1-3.9
		c-0.7-2.7-1.5-5.4-2.2-8.2c-0.6-2.3-1.1-4.7-1.7-7c-0.7-2.8-1.4-5.6-2.2-8.4c-0.5-1.7-0.9-3.4-2.3-4.6c-1.6-1.2-3.1-2.5-4.8-3.6
		c-1.7-1.2-3.5-2.2-5.3-3.2c-2.2-1.3-4.5-2.6-6.7-3.9c-0.5-0.3-0.7-0.2-0.8,0.4c-0.3,1.6-0.7,3.1-1.1,4.7c-0.4,1.5-0.9,3-1.5,4.4
		c-1,2.4-2,4.9-3.3,7.2c-0.9,1.7-2.2,3.1-3.4,4.6c-1.9,2.3-3.9,4.6-5.9,6.9c-0.5,0.6-1.2,1.1-1.9,1.4c-1.6,0.6-3.3,1.2-4.9,1.6
		c-2.5,0.6-5.1,1.3-7.7,0.5c-0.1,0.3-0.1,0.5-0.1,0.7c0,0,0,0,0.1,0c2.4-0.4,3.3-0.1,4,1.2c1,1.7-0.4,2.6-1.5,3.4
		c1.4,1.6,1.1,3.3-0.7,4.4c-0.6,0.4-1.3,0.7-1.9,1.1c0.2,0.4,0.5,0.7,0.6,1.1c0.3,0.7,0.9,1.5,0.9,2.2c0.2,3,1.4,5.6,2.8,8.1
		c0.1,0.2,0.4,0.4,0.5,0.6c1.6,1.6,3.1,3.2,4.7,4.7c0.8,0.8,1.6,1.5,2.5,2.1c1.3,0.8,2.7,1.6,3.7,2.8c0.6,0.6,1.5,0.9,2.3,1.3
		c0.3,0.2,0.6,0.3,0.9,0.4c0.9,0.4,1.8,0.8,2.8,1.1c1.7,0.6,3.4,1.3,4.9,2.5c1.1,0.9,2.5,1.5,3.7,2.2c0.2-1.2,0.4-2.3,0.7-3.3
		c0.6-1.9,1.1-3.9,1.1-5.9c0-1.2,0.2-2.3,0.5-3.5c0.3-1.6,0.7-3.2,1-4.8c0.4-1.6,0.6-3.3,1.1-4.9c0.7-2.7,1.6-5.4,2.4-8.2
		c0.7-2.7,1.2-5.4,1.4-8.2c0-0.3,0.4-0.5,0.7-0.7c0.2,0.3,0.5,0.5,0.4,0.8c-0.1,1.6-0.1,3.3-0.5,4.8c-1,4-2.1,7.9-3.1,11.9
		c-0.4,1.6-0.7,3.1-1.1,4.6c2.3-0.8,4.5-1.6,6.8-2.2c2.6-0.7,5-1.9,7.2-3.3C138.5,119.3,141.1,117.4,144,115.4z M74.2,57.6
		c-0.4,0-0.6,0-0.7,0.1c-2.9,0.9-5.8,1.7-8.8,2.6c-0.8,0.2-1.6,0.6-2.3,1c-1,0.5-1.9,1.2-3,1.7c-1.1,0.5-2.3,1-3.5,1.4
		c-0.4,0.2-0.6,0.3-0.4,0.9c0.6,1.3,1.1,2.6,1.7,3.8c0.7,1.5,1.7,2.9,2.3,4.5c1.2,2.9,3.1,5.3,5,7.8c0.4,0.5,1.1,0.8,1.7,0.9
		c1.2,0.2,2.5,0.2,3.7,0.2c1.5-0.1,2.9,0.3,4.3,0.8c0.3,0.1,0.5,0.5,0.8,0.7c-0.3,0.1-0.7,0.3-1,0.4c-0.2,0-0.4-0.1-0.6-0.1
		c-1.1-0.4-2.3-0.6-3.5-0.5c-0.6,0-1.3,0-1.9,0c-0.4,0-0.8-0.1-1.2-0.2c0,0.1,0,0.1-0.1,0.2c1.9,1.8,3.8,3.7,5.7,5.4
		c1.2,1.1,2.4,2,3.6,3c1.7,1.3,3.4,2.7,5.2,3.9c1.8,1.2,3.5,2.4,5.5,3.2c1.6,0.7,3.4,0.8,5.1,1.1c0.8,0.1,1.8,0,2.5-0.3
		c1.1-0.4,2.1-1.1,3.2-1.6c1.2-0.6,2.5-1.1,3.3-2.3c1.5-1.9,3.1-3.7,4.6-5.6c1.2-1.6,2.3-3.2,3.3-4.9c0.7-1.3,1.2-2.7,1.8-4
		c-0.1-0.1-0.1-0.1-0.2-0.2c-1.2,0.3-2.4,0.6-3.5,1c-1.6,0.5-3.3,1.2-4.9,1.7c-0.5,0.2-1.1,0.2-1.2-0.5c-0.1-0.6,0.6-0.6,1-0.7
		c0.5-0.1,1.1-0.2,1.6-0.4c2.3-1,4.7-1.9,7.1-2.2c0.5-0.1,0.7-0.3,0.9-0.8c0.4-1.7,0.9-3.5,1.3-5.2c0.3-1.1,0.5-2.2,0.7-3.3
		c0-0.2-0.2-0.6-0.5-0.7c-0.8-0.5-1.7-0.8-2.5-1.3c-2-1.2-3.9-2.4-5.9-3.5c-0.5-0.3-1.1-0.5-1.7-0.8c0,1.1,0,2,0,2.9
		c0,0.4,0.3,1.1-0.4,1.2c-0.6,0-0.6-0.7-0.6-1.2c-0.2-1.5,0.4-3-0.2-4.5c-0.1-0.2,0-0.4,0.1-0.6c0.1-1.2,0.2-2.3,0.3-3.5
		c-0.1,0-0.2,0-0.2-0.1c-0.8,1.6-2.3,2.4-3.7,3.2c-0.5,0.3-1,0.6-1.6,0.9c-2,1.1-4.2,2-6.5,1.9c-2.9-0.1-5.6-1.1-7.9-2.9
		c-0.5-0.4-0.8-0.8-1.3-1.1c-2-1.5-4.1-2.9-5.8-4.9c0,1,0.1,1.9,0.1,2.9c0.1,1.8,0.2,3.6,0.3,5.4c0,0.2-0.2,0.6-0.4,0.7
		c-0.2,0-0.6-0.2-0.7-0.4c-0.1-0.3-0.1-0.7-0.1-1.1C74.3,61.5,74.3,59.6,74.2,57.6z M90.3,63.8c0.4,0,0.9,0.1,1.3,0
		c2.8-0.6,5.4-1.9,7.7-3.5c1.4-1.1,2.6-2.6,3.6-4.1c0.7-1.1,1.2-2.3,1.5-3.6c1-3.7,1.9-7.5,1.7-11.5c0-0.5,0-1,0.1-1.5
		c0.2-1.4,0.7-2.9,0.7-4.3c-0.1-2.3,0-4.5-1-6.8c-0.6-1.4-0.7-3.1-0.8-4.7c-0.1-2-0.7-3.9-1.2-5.8c-0.9-3.1-3-5.1-5.5-6.9
		C96,9.6,93.2,8.7,90.2,9c-1,0.1-2,0.4-2.5,1.4c-0.5,0.9-0.7,1-1.5,0.3c-0.7-0.6-1.5-0.6-2.3-0.6c-1,0.1-2.1,0.2-3.1,0.3
		c-0.8,0.1-1.7,0.3-2.4,0.7c-1.4,0.6-2.7,1.3-4,2c-1.1,0.6-2.4,1-2.6,2.4c-0.2,1.5-0.3,3.1-0.2,4.6c0.2,2.1,0.2,4.1-0.5,6.1
		c-0.5,1.5-1,3-0.9,4.6c0,1.3,0.1,2.7-0.1,4c-0.2,1.5,0.2,2.9,0.5,4.3c0.5,2.3,1.1,4.7,1.6,7c0.2,0.9,0.3,1.9,0.7,2.8
		c0.5,1.2,1.1,2.5,1.7,3.7c0.9,1.8,2.1,3.4,3.7,4.7c1.4,1.1,2.9,2.1,4.2,3.3C84.5,62.7,87.2,63.6,90.3,63.8z M51.5,66.2
		c-3.3,0.7-6.2,2-9.1,3.4c-2.7,1.4-5.3,2.9-7.8,4.5c-1.8,1.2-3.5,2.6-4.4,4.7c-0.4,0.9-1,1.8-1.6,2.5c-1.5,2-3.2,3.8-4.4,6.1
		c-0.5,1-1.1,1.9-1.5,2.9c-0.8,2-1.9,3.8-3.2,5.6c-0.7,0.9-1.4,1.8-2.1,2.6c-0.4,0.4-0.2,0.7,0.2,0.9c0.9,0.6,1.8,1.2,2.7,1.8
		c2.3,1.4,4,3.3,5.3,5.6c0.6,1.1,1.3,2.2,2.1,3.1c1.1,1.1,2.5,2,3.7,2.9c0.9,0.7,1.1,0.7,1.6-0.4c0.7-1.6,1.9-2.7,3.5-3.5
		c0.4-0.2,0.9-0.9,0.9-1.4c0.1-2.2-0.1-4.4-0.7-6.5c-0.6-2.2-1.3-4.3-1.9-6.5c-0.5-1.7-1.1-3.3-1.6-5c-0.1-0.5-0.2-1-0.2-1.5
		c0-0.2,0.3-0.5,0.5-0.7c0.2,0.2,0.5,0.4,0.6,0.6c0.2,0.6,0.3,1.3,0.5,1.9c0.5,1.7,1,3.5,1.6,5.2c1.3,3.5,2.3,7.1,2.6,11
		c0.4-0.3,0.7-0.5,1-0.8c1.3-1.1,2.5-2.3,3.8-3.4c0.2-0.2,0.7-0.1,1.1-0.2c-0.1,0.4,0,0.9-0.2,1.2c-1.6,1.5-3.3,3-5,4.5
		c-0.2,0.2-0.6,0.3-0.7,0.6c-0.4,1.3-1.3,2.1-2.3,2.7c0.5,1.9,1,3.8,1.6,5.8c1.3-0.8,2.6-1.5,3.9-2.3c0.5-0.3,1.1-0.7,1.4-1.1
		c1.1-1.6,2.6-2.9,3.4-4.7c0.1-0.3,0.2-0.7,0.2-1c-0.3-1.6,0.3-2.4,1.9-2.7c0.2,0,0.5-0.3,0.6-0.5c1-1.4,2-2.8,3.5-3.7
		c1.3-0.8,2.5-1.5,3.8-2.3c2.2-1.3,4.3-2.7,6-4.6c0.1-0.1,0.3-0.3,0.5-0.3c0.3,0,0.8-0.1,1,0.1c0.7,0.7,1,1.7,1.1,2.7
		c0.2,2.3-0.8,4-2.2,5.6c-0.5,0.6-1.1,1.3-1.7,1.9c1.3,0.7,2.6,1.3,3.8,1.9c0.6,0.3,1.2,0.4,1.9,0.2c1.7-0.4,3.4-0.9,5.2-1.2
		c0.7-0.1,0.8-0.3,0.9-1c0-0.8,0-1.7,0.3-2.4c0.5-1.3,1.8-1.4,2.7-0.3c0.4,0.6,1,1.1,1.5,1.5c0.2,0.2,0.5,0.3,0.7,0.3
		c1.2-0.1,2.3-0.2,3.8-0.3c-1-0.7-1.8-1.3-2.6-1.9c-1.3-0.8-2.8-1.5-4.1-2.4c-2-1.5-3.8-3.1-5.7-4.7c-0.9-0.7-1.6-1.6-2.4-2.4
		c-2.3-2-4.5-4-6.1-6.6c-1-1.6-1.9-3.2-3-4.7c-2.2-3.1-4.2-6.3-5.5-9.8C52.3,68.6,51.9,67.4,51.5,66.2z M48.9,127.3
		c-0.6-0.2-1.1-0.3-1.5-0.5c-0.4-0.2-0.9-0.5-1.3-0.8c-0.9-0.6-1.2-1.7-0.6-2.5c0.6-0.9,1.5-1.6,2.7-1.4c1.3,0.2,2.7,0.4,4,0.6
		c1.7,0.3,3.4,0.7,5.1,1c0-0.1,0.1-0.1,0.1-0.2c-0.1-0.1-0.2-0.2-0.3-0.3c-2.3-1.6-4.6-3.1-6.7-4.7c-2.1-1.6-4.6-2.6-5.8-4.9
		c-0.2,0.2-0.3,0.7-0.6,0.8c-1.6,1-3.2,2.2-5,2.9c-2.5,1-5.2,1.4-7.8,2.3c-2.7,0.9-5.4,1.1-8.2,0.7c-2.2-0.3-4.3-0.7-6.5-0.1
		c-1.7,0.4-3.4,0.7-5.1,1.2c-1.5,0.4-3,1.1-4.4,1.7c-0.5,0.2-1,0.2-1.2-0.3c-0.3-0.5,0.2-0.8,0.6-1c0.9-0.4,1.8-0.9,2.7-1.3
		c2.6-1.1,5.3-1.7,8.1-1.9c2-0.1,3.9-0.3,5.9,0.1c0.8,0.2,1.5,0.2,2.3,0.3c0.2,0,0.6-0.1,0.7-0.3c0.4-0.6,0.7-1.3,1.1-1.9
		c-0.5-0.3-0.9-0.4-1.2-0.7c-1.3-1.5-2.7-2.9-3.9-4.5c-2.2-2.8-4.7-5.2-7.7-6.9c-2.1,1.6-3.4,4.6-4.8,7.3c-1.6,3.1-3.3,6.2-4.9,9.4
		c-0.9,1.8-2.4,3.3-2.8,5.4c-0.2,1-0.4,2-0.6,3c-0.3,2.1,0.3,4.1,2.2,5.5c1.7,1.3,3.5,2.1,5.6,1.8c0.3,0,0.6,0.2,0.9,0.2
		c0.9,0.1,1.8,0.4,2.7,0.2c2.7-0.6,5.4-1.4,8.1-2.1c1.9-0.5,3.8-1.1,5.7-1.5c3.2-0.5,6.2-1.4,9.2-2.6c3.4-1.3,6.7-2.7,10.3-3.5
		C46.9,127.8,47.8,127.5,48.9,127.3z M52.4,65.8c0.1,0.5,0.3,0.8,0.4,1.2c0.9,3.6,2.8,6.8,4.7,9.9c1.2,2,2.5,4,3.9,5.9
		c1.1,1.6,2.2,3.1,3.5,4.5c1.1,1.2,2.5,2.2,3.7,3.4c2.9,2.8,5.8,5.6,9.4,7.6c1.1,0.6,2.2,1.5,3.3,2.1c1,0.6,2,1.4,3.4,1.2
		c0.4,0,1,0.2,1.3,0.6c1.3,1.5,3,1.5,4.8,1.4c1.2-0.1,2.3-0.5,3.5-0.6c3.4-0.5,6.1-2.2,8.4-4.6c0.8-0.8,1.4-1.6,2.1-2.4
		c1.2-1.4,2.4-2.8,3.5-4.3c1.7-2.2,3-4.6,4-7.2c1.5-3.6,2.8-7.3,3.7-11.1c0.1-0.5,0.2-1,0.1-1.5c-0.1-0.3-0.5-0.6-0.8-0.7
		c-0.2-0.1-0.7,0.1-0.8,0.3c-0.2,0.4-0.3,0.9-0.4,1.4c-0.7,3.2-1.4,6.4-2.7,9.4c-1.1,2.7-2.4,5.2-4.3,7.5c-1.4,1.8-2.8,3.7-4.3,5.4
		c-1,1.2-1.8,2.5-3.4,3.2c-1.5,0.6-2.9,1.5-4.3,2.2c-0.6,0.3-1.4,0.6-2.1,0.5c-1.6-0.1-3.2-0.5-4.9-0.7c-2.4-0.3-4.3-1.7-6.2-3
		c-2-1.3-3.7-2.9-5.6-4.2c-2.9-2.1-5.6-4.5-8.1-7c-1.3-1.2-2.6-2.4-3.7-3.8c-1.7-2.2-3.3-4.5-4.9-6.8c-0.6-0.9-1-2-1.5-3
		c-1.3-2.5-2.6-5-3.9-7.7C53.8,65.3,53.1,65.6,52.4,65.8z M32.3,114.9c-1.3-1-2.6-1.9-3.8-2.8c-1.2-0.9-2.4-1.9-3.1-3.2
		c-1.3-2.4-2.8-4.6-5.1-6.1c-1.3-0.8-2.5-1.7-3.9-2.7c-0.8,1.1-1.5,2.1-2.2,3.1c1.2,0.7,2.2,1.3,3.2,2c1.7,1.1,3.2,2.6,4.5,4.2
		c1.3,1.5,2.5,3,3.8,4.4c1,1.2,2.1,2.1,3.6,2.6C31.3,116.8,31.7,116.6,32.3,114.9C32.3,114.8,32.2,114.8,32.3,114.9z M144.3,116.8
		c-2,1.4-3.9,2.5-5.7,3.8c-2.8,2.1-5.8,3.8-9.2,4.9c-1.8,0.6-3.6,1.2-5.4,1.8c-1.8,0.6-3,1.7-3.1,3.8c0.1,0,0.2,0,0.3,0
		c3-1,5.9-1.9,8.8-3c4.9-1.9,9.1-5,13.8-7.4c0.5-0.2,1.4-0.6,0.7-1.5c0,0,0.1-0.2,0.1-0.3C144.5,118.2,144.4,117.5,144.3,116.8z
		 M122.9,145.9c-0.1-1.4-0.2-2.6-0.4-3.7c-0.2-1.9-0.4-3.8-0.7-5.7c-0.2-1.4-0.5-2.7-0.8-4.3c-0.3,0.4-0.6,0.6-0.6,0.8
		c-0.2,0.9-0.3,1.8-0.3,2.8c0,1.5-0.3,3-0.8,4.4c-0.5,1.3-0.6,2.6-0.6,4c0,0.2,0.1,0.5,0.2,0.5C120.2,145.1,121.5,145.5,122.9,145.9
		z M64.5,113c0.1-0.1,0.1-0.2,0.2-0.3c-0.5-0.5-0.9-1.2-1.5-1.6c-1.9-1.4-3.9-2.7-5.9-4c-0.6-0.4-1.3-0.4-1.9-1
		c-1.3-1.3-2.6-2.5-2.1-4.6c-0.1,0-0.1-0.1-0.2-0.1c-0.9,1.1-1.9,2.1-2.8,3.2c0.1,0.2,0.2,0.2,0.2,0.3c3.5,2.3,7,4.6,10.6,6.8
		C62.1,112.3,63.4,112.6,64.5,113z M71.1,46.8c0-0.3,0-0.5,0-0.7c-0.2-1.1-0.4-2.2-0.7-3.3c0-0.2-0.4-0.3-0.6-0.4
		c-0.7-0.2-1.5-0.4-2.2-0.7c-0.4-0.2-0.7-0.7-0.8-1.2c-0.1-0.8,0.1-1.6,0.2-2.3c0.1-0.7,0.3-1.4,0.4-2.1c0-0.2-0.1-0.5-0.2-0.7
		c-0.3-0.4-0.6-0.7-1-1c-0.5-0.4-1.1-0.7-1.7-0.3c-0.6,0.3-0.7,0.8-0.4,1.5c0.4,1,0.8,2,1.2,3.1c0.6,1.6,1.1,3.3,1.7,4.9
		c0.6,1.7,1.2,3.3,3.5,3C70.7,46.7,70.9,46.8,71.1,46.8z M60,97.3c-1.8,1.1-3.6,2.3-5.2,3.3c1.9,0.8,3.9,1.5,5.9,2.3
		c1.5-1.6,3.2-3.2,3.7-5.6C62.1,98.6,61.6,99,60,97.3z M71.2,110.1c0,0,0.2-0.1,0.5-0.1c1-0.3,2-0.5,3.1-0.9c0.5-0.1,0.8-0.4,0.4-1
		c-0.4-0.7-0.7-1.4-1.1-2.1c-0.2-0.3-0.6-0.6-0.8-0.5c-2,0.3-3.9,0.7-5.9,1.1C68.6,107.8,69.9,108.9,71.2,110.1z M27.4,119.4
		c1.2-0.3,2.3-0.6,3.4-0.9c1.9-0.5,3.8-1,5.7-1.5c0.5-0.1,0.6-0.3,0.4-0.7c-0.3-1.2-0.6-2.4-0.9-3.6c-0.1-0.4-0.3-0.8-0.5-1.3
		c-0.3,0.5-0.6,0.7-0.7,1.1c-0.7,1.5-1.3,3.1-2,4.6c-0.1,0.2-0.4,0.6-0.7,0.6c-0.7,0-1.4-0.1-2-0.1c-0.5,0-1.1-0.1-1.4,0.2
		C28,118.1,27.8,118.7,27.4,119.4z M58.8,117.3c0.1-0.1,0.1-0.2,0.2-0.3c-3.7-2.7-7.4-5.4-11.1-8.2c-0.4,0.7-0.7,1.4-1,1.9
		c0.9,0.3,1.8,0.5,2.5,1c1.5,0.8,3,1.7,4.4,2.7C55.3,115.5,57,116.6,58.8,117.3z M86.5,114.2c0.9-0.6,1.8-1.2,2.6-1.8
		c0.5-0.4,0.4-1,0.1-1.4c-0.2-0.3-0.5-0.8-0.8-0.8c-1.3-0.1-2.5,0.3-3.8,1C85.3,112.2,85.8,113.1,86.5,114.2z M109.7,34.1
		C109.7,34.1,109.6,34.1,109.7,34.1c-0.1-0.7,0-1.5-0.1-2.2c0-0.2-0.3-0.5-0.5-0.5c-0.4,0-1.5,1.5-1.5,1.9c0,0.8,0.2,1.5,0.1,2.3
		c-0.1,1-0.1,1.2,0.9,1.6c0.5,0.2,0.8,0.2,0.8-0.4C109.5,35.9,109.6,35,109.7,34.1z M72.2,110.9c1.4,1.4,3.2,2.2,5.7,1.9
		c-0.4-0.7-0.6-1.4-1.1-2.1c-0.2-0.3-0.8-0.7-1.2-0.6C74.5,110.2,73.3,110.6,72.2,110.9z M86.6,107.6c0,1.3,0.3,1.6,1.3,1.4
		c0.6-0.1,1.2-0.5,1.7-0.9c0.3-0.2,0.6-0.7,0.5-1c-0.1-0.5-0.5-1-0.9-1.2c-0.4-0.2-1.2-0.2-1.5,0C87.2,106.4,86.9,107.1,86.6,107.6z
		 M86.3,106.1c-1.4,0.3-2.6,0.6-4,1c0.6,0.8,1.1,1.5,1.6,2.2c0.2,0.3,0.2,0.8,0.8,0.5c0.4-0.2,0.8-0.2,1.1-0.4
		c0.1,0,0.1-0.3,0.1-0.4C85.6,108.1,85.7,107.2,86.3,106.1z M68.9,36c0-0.5,0-0.9,0-1.2c0.1-0.7,0-1.3-0.8-1.6
		c-1-0.4-1.9-0.8-2.9-1.3c-0.7-0.4-1.1,0-1.4,0.6c-0.1,0.3-0.1,0.7-0.2,1.2c1.3-0.6,2.3-0.5,3.1,0.3C67.4,34.6,68.1,35.3,68.9,36z
		 M49.2,112.7c-0.4-0.2-0.9-0.2-1.2-0.4c-0.6-0.4-1.2-0.5-1.8,0c-0.4,0.4-0.7,1-0.4,1.4c0.5,0.6,1.1,1,1.7,1.5c0,0,0.1,0,0.1,0
		C48.6,114.9,49.3,113.8,49.2,112.7z M51.5,106.7c-0.7-0.8-1.5-1-2.4-1.1c-0.6-0.1-0.9,0.3-1,0.9c-0.1,1.1,0.8,2.3,2,2.6
		C50.6,108.2,51,107.5,51.5,106.7z M68.6,36.8c-0.1,0-0.1,0.1-0.2,0.1c-0.2,0.9-0.5,1.7-0.7,2.6c-0.1,0.6-0.2,1.2,0.4,1.6
		c0.6,0.4,1.3,0.7,1.8-0.1c-0.2-1-0.4-2.1-0.7-3.1C69.1,37.5,68.8,37.2,68.6,36.8z M83.1,104.3c0,1.4,0.4,1.6,1.6,1.1
		c0.2-0.1,0.5-0.1,0.6-0.3c0.3-0.4,0.6-0.9,0.6-1.4c0-0.8-0.9-1.2-1.8-1.1C83.6,102.7,83.1,103.6,83.1,104.3z M63.7,94.1
		c-0.8,0.7-1.6,1.4-2.3,2.1c-0.2,0.2-0.3,0.5-0.4,0.7c0.4,0.2,0.8,0.6,1.1,0.5c0.6-0.2,1.1-0.6,1.7-0.9c0.9-0.4,0.7-1.1,0.4-1.7
		C64.2,94.6,64,94.4,63.7,94.1z M106.8,42.1c0.1,0,0.2,0,0.2,0.1c0.9-0.8,1.5-1.7,1.9-2.9c0.3-0.8,0.1-1.3-0.8-1.4
		c-0.3,0-0.5-0.2-0.9-0.3C107.1,39.1,107,40.6,106.8,42.1z M79.1,103.6c1.1,0.9,2,1.7,3,2.5c0.5-0.7-0.4-1.8,0.2-2.9
		C81.2,103.4,80.3,103.5,79.1,103.6z M48.7,126.3c1-1,0.6-2.2-0.6-2.5c-0.3-0.1-0.6-0.2-0.8-0.2c-0.4,0.1-0.8,0.3-1,0.6
		c-0.1,0.1,0,0.7,0.2,0.8C47.3,125.5,48,125.9,48.7,126.3z M78.1,103.9c-0.3-0.3-0.7-0.5-0.9-0.8c-0.6-0.6-1.1-1.2-1.6-1.7
		c-0.3-0.3-0.6-0.6-0.9-0.1c-0.2,0.2-0.3,0.6-0.2,0.8c0.3,0.5,0.7,0.9,1,1.3C76.1,104.5,76.9,104.7,78.1,103.9z M57.5,102.6
		c-1-0.3-1.7-0.6-2.5-0.8c-0.6-0.2-1.1,0.4-0.9,1c0.3,1.3,1.2,1.7,2.3,0.9C56.8,103.5,57,103.1,57.5,102.6z M107.5,31.6
		c0.6-0.4,1.3-0.8,2-1.3c-0.1-0.6-0.2-1.3-0.2-2c-0.1-0.1-0.2-0.1-0.2-0.2c-0.5,0.5-1.2,0.8-1.5,1.4C107.3,30,107.5,30.8,107.5,31.6
		z"/>
	<path class="st0" d="M83,50.8c0.6-0.3,1-0.6,1.4-0.8c1.5-0.6,3-1.3,4.5-1.9c1-0.4,2.1-0.8,3.2-0.2c0.2,0.1,0.5-0.1,0.7-0.2
		c1.2-0.9,3.5-1,4.8,0c0.5,0.3,1,0.6,1.4,0.9c0.2,0.1,0.4,0.3,0.6,0.5c-1.2,1.6-2.4,3.2-3.7,4.6c-0.9,1-2.2,1.4-3.6,1.5
		c-2.9,0.2-5.2-1-7.2-3C84.7,51.7,83.9,51.4,83,50.8z M84.8,51c0.5,0.4,0.9,0.7,1.3,1c1.7,1.8,3.7,2.6,6.2,2.5
		c3.1-0.1,4.6-2.2,5.9-4.7c-0.3,0.1-0.6,0.1-0.9,0.1c-2.1,0.5-4.1,1.2-6.3,1.1C89,50.9,86.9,51,84.8,51z M86.1,50
		c4.3,0.6,8.2,0.7,11.9-1.1c-0.9-1.3-3.4-1.8-4.7-0.7c-0.5,0.4-0.9,0.5-1.5,0.3c-0.4-0.1-0.9-0.3-1.3-0.1
		C89.1,48.8,87.7,49.4,86.1,50z"/>
	<path class="st0" d="M80.8,35.6c-1.5-0.2-3-0.5-4.4-0.8c-0.5-0.1-0.7-0.5-0.3-1c0.9-1.2,2.2-1.7,3.6-2.2c2.3-0.9,4.4-0.4,6.3,1.1
		c0.2,0.2,0.5,0.6,0.5,0.9c0,0.2-0.4,0.4-0.7,0.5c-1.2,0.4-2.4,0.8-3.6,1.2C81.6,35.5,81.2,35.5,80.8,35.6z M78.1,33.8
		c0,0.1,0.1,0.2,0.1,0.3c0.8,0.1,1.6,0.3,2.3,0.4c-0.1-0.6-0.2-1.2-0.3-1.8C79.6,33,78.8,33.4,78.1,33.8z M83.3,32.5
		c0,0.6,0.1,1.1,0.1,1.7c0.5-0.2,0.9-0.4,1.6-0.8C84.3,33,83.8,32.8,83.3,32.5z"/>
	<path class="st0" d="M97.1,33.3c-0.7,0.1-1.4,0.2-2.1,0.2c-0.3,0-0.7-0.1-0.9-0.3c-0.1,0,0.1-0.5,0.2-0.8c0.3-0.5,0.5-0.9,0.8-1.3
		c1.4-2,3.4-1.9,5.4-1.7c0.7,0.1,1.4,0.2,2.1,0.5c0.4,0.2,0.8,0.6,1,1c0.1,0.2-0.4,0.7-0.8,0.9c-1.2,0.7-2.3,1.4-3.8,1.6
		c-0.6,0.1-1.3,0.1-1.9,0.1C97.1,33.4,97.1,33.3,97.1,33.3z M97.2,32.5c0-0.6,0-1.2,0-1.8c-0.8,0.4-1.7,0.7-1.9,1.8
		C96,32.5,96.6,32.5,97.2,32.5z M100.3,32c0.5-0.3,1.1-0.7,1.7-1.1c-0.6-0.9-1.3-0.5-1.8-0.5C100.2,30.9,100.3,31.4,100.3,32z"/>
	<path class="st0" d="M86.8,28.1c0,0.8-0.7,1.2-1.7,1c-1.3-0.2-2.5-0.5-3.8-0.6c-1.3-0.1-2.6,0-3.9,0.1c-0.7,0.1-1.4,0.4-2.1,0.5
		c-0.3,0-0.6-0.2-0.9-0.3c0.2-0.2,0.4-0.5,0.6-0.6c1.5-0.3,2.9-0.6,4.4-0.8c1.9-0.2,3.7-0.3,5.6-0.4c0.5,0,1,0.3,1.5,0.5
		C86.7,27.7,86.8,28,86.8,28.1z"/>
	<path class="st0" d="M92.4,27.5c0.5-1,1.5-1.2,2.3-1.3c2.6-0.4,5.2-0.6,7.8-0.9c0.2,0,0.5,0.1,0.7,0.2c0.1,0.1,0.1,0.4,0.1,0.5
		c0,0.1-0.2,0.3-0.4,0.3c-2.9,0.2-5.7,0.8-8.3,2C93.7,28.7,93.1,28.4,92.4,27.5z"/>
	<path class="st0" d="M95.7,38.4c0.8,0.8,1.2,1.7,1.4,2.8c0.1,0.9-0.3,1.6-1.2,1.8c-0.7,0.2-1.2,0.6-1.6,1.2
		c-0.8,1.2-2.6,1.6-3.6,0.7c-0.9-0.8-1.8-0.8-2.8-0.8c-2.1,0-2.9-1.2-2-3.2c0.3-0.7,0.8-1.3,1.3-2c0.7,0.3,0.4,0.7,0.2,1
		c-0.3,0.6-0.7,1.1-1,1.7c-0.4,1.1,0.1,1.8,1.3,1.8c0.4,0,0.9-0.1,1.3,0c0.6,0.1,1.2,0.3,1.7,0.7c1.2,1,2.4,0.8,3.2-0.5
		c0.3-0.6,0.7-1,1.5-1c1-0.1,1.4-1,1-2c-0.2-0.5-0.5-0.9-0.7-1.4c-0.1-0.2-0.1-0.5-0.2-0.7C95.6,38.4,95.6,38.4,95.7,38.4z"/>
</g>
</svg>
