<?xml version="1.0" encoding="utf-8"?>
<!-- Generator: Adobe Illustrator 19.2.1, SVG Export Plug-In . SVG Version: 6.00 Build 0)  -->
<svg version="1.1" id="Background_copy_2_xA0_Image_1_"
	 xmlns="http://www.w3.org/2000/svg" xmlns:xlink="http://www.w3.org/1999/xlink" x="0px" y="0px" viewBox="0 0 148.3 180"
	 style="enable-background:new 0 0 148.3 180;" xml:space="preserve">
<style type="text/css">
	.st0{fill:#E64A19;}
</style>
<g id="icon-arthritis">
	<path class="st0" d="M54.8,123.2c3.1-1.5,6.1-2.8,9-4.2c2.2-1.1,4.4-2.2,6.7-3.2c1.7-0.8,3.4,0.3,3.6,2.2c0.2,2.2-1,3.7-2.6,4.9
		c-1.7,1.3-3.7,2.2-5.5,3.4c-1.8,1.3-3.8,2.1-5.8,2.9c-1.1,0.4-2.1,1.1-3.1,1.7c-0.7,0.4-0.7,0.9-0.1,1.6c2.3,2.5,4.7,4.9,6.8,7.5
		c2.2,2.6,4.2,5.4,6.2,8.2c1.6,2.3,2.9,4.7,4.3,7.1c1,1.8,1.8,3.8,2.8,5.7c2,4.1,4.6,7.9,7.3,11.5c1,1.3,1.8,2.6,2.7,3.9
		c0.2,0.3,0.4,0.6,0.7,0.8c0.5,0.4,0.8,1,0.5,1.6c-0.3,0.5-0.9,0.9-1.4,1.1c-0.5,0.2-1.1,0-1.6,0c-2.2-0.1-4.4-0.3-6.6-0.3
		c-4.7-0.1-9.4,0-14.2,0c-4.7,0-9.3,0-14,0c-4.6,0-9.2,0-13.8,0c-0.7,0-1.4,0-2.1,0c0.2-4.5,0.4-8.9,0.6-13.3
		c0.2-4.4,1.2-8.6,1.4-13.2c-1.5,0.5-1.7,1.7-2,2.7c-0.7,2.6-1.3,5.1-2.1,7.7c-0.5,1.7-1.3,3.4-2,5.1c-0.2,0.4-0.5,0.8-0.9,1.1
		c-3.3,3.3-7.3,5.4-11.9,6.3c-1.3,0.3-2.7,0.8-4,0.8c-1.1,0-2.3-0.6-3.2-1.3c-1.4-1-2.7-2.3-4-3.5c-0.7-0.6-1.2-1.3-2.3-1.5
		c-0.4-0.1-0.8-0.7-1.1-1.1c-1.9-2.9-3.3-5.9-3.2-9.5c0-4.1,1.1-8,1.9-11.9c0.2-0.8,0.3-1.7,0.5-2.5c0.3-1.5,0.4-3.1,1.1-4.5
		c1.8-3.9,3.9-7.6,5.9-11.5c0.6-1.3,1.2-2.6,1.8-3.9c0.3-0.7,0.5-1.4,0.8-2.1c1.6-3.7,3.2-7.5,4.8-11.2c1.5-3.4,2.9-6.8,4.3-10.3
		c1-2.5,1.6-5.1,2.5-7.7c0.6-1.7,1.1-3.5,1.8-5.1c1.6-3.4,3.3-6.6,4.9-9.9c1.3-2.6,2.9-4.9,5.3-6.7c4.3-3.2,9.1-5.5,14-7.5
		c1.1-0.5,2.4-0.5,3.6-0.7c1.6-0.2,1.7-0.2,1.3-1.8c-0.6-2.8-1.4-5.6-2-8.4c-0.5-2.5-1-5.1-1.2-7.7c-0.3-3.1-0.2-6.2-0.3-9.3
		c0-0.7-0.2-1.4-0.4-2c-1.3-4.1-1.4-8.1-0.7-12.4c0.8-4.9,2.8-9.3,5.6-13.3c0.9-1.4,2.2-2.4,3.8-3.1c1.8-0.8,3.4-2.2,5.1-3.3
		c1.1-0.7,2.4-1.2,3.6-1.6C69.7,1.2,71.4,1,73,0.6c4.6-0.9,9.3-0.7,13.9-0.3c2.4,0.2,4.8,1,7.1,1.6c2.6,0.7,4.4,2.6,6.3,4.3
		c3.2,2.8,4.4,6.5,4.6,10.5c0.2,4.1,0.4,8.3,0.6,12.4c0,0.2,0,0.4,0.1,0.6c0.3,0,0.5,0.1,0.8,0c0.9-0.1,1.5,0.4,1.8,1.1
		c0.2,0.4,0.3,0.8,0.4,1.2c0.3,1.6,0.7,3.3,0.9,4.9c0.1,0.8-0.1,1.6-0.1,2.3c-0.1,1-0.4,2-0.4,3c0.1,3.7-0.9,7-2.7,10.1
		c-0.3,0.5-0.7,0.8-1,1.3c-0.4,0.6-0.5,1.1,0.2,1.6c1.9,1.5,3.7,3.1,5.6,4.5c0.7,0.6,1.6,0.9,2.5,1.3c1.2,0.5,2.4,1.1,3.5,1.6
		c0.2,0.1,0.4,0.1,0.6,0.2c1,0.4,2.1,0.7,3.1,1.1c1,0.3,2.1,0.6,3.2,0.9c0.4,0.1,0.9,0.2,1.3,0.4c0.9,0.3,1.7,0.5,2.2,1.6
		c0.2,0.4,0.9,0.6,1.4,0.9c1.3,0.8,2.6,1.6,3.8,2.5c1.5,1,3.2,1.9,4.3,3.2c2.3,2.8,4.9,5.3,6.3,8.8c2.2,5.1,3.1,10.5,3.7,15.9
		c0.3,3.1,0.7,6.2,1,9.4c0.1,0.9,0.2,1.8,0.3,2.6c0,0.2,0,0.4,0,0.7c-0.1,1.6-0.3,3.2-0.3,4.8c-0.1,6.3-0.2,12.6-0.2,18.9
		c0,4.3,0.2,8.7,0.1,13c0,4.2-0.1,8.4-0.3,12.6c0,1.1-0.4,2.2-0.8,3.2c-0.3,1-1.2,1.4-2.3,1.4c-0.8,0-1.6,0.1-2.5,0.2
		c-0.5,0-0.7,0.2-0.8,0.7c-0.2,1.2-0.9,2-1.8,2.8c-1.3,1.3-2.5,2.8-3.6,4.4c-0.8,1.2-1.3,2.6-2,3.9c-0.2,0.4-0.7,0.6-1.1,0.8
		c-0.2-0.4-0.6-0.8-0.6-1.2c-0.3-2.1,1.1-3.5,2.3-4.9c1.2-1.4,2.3-2.9,3.4-4.5c0.3-0.4,0.2-1,0.2-1.5c0-0.2-0.3-0.6-0.6-0.6
		c-1.4-0.1-2.7-0.6-3.8-1.5c-0.6-0.5-1.5-0.5-2.2-0.7c-1.5-0.4-2.9-0.7-4.4-1c-2-0.4-4.1-0.7-6.2-1c-0.4-0.1-0.8,0-1.4,0.1
		c2,2.6,3.9,5,5.1,7.8c-0.7,0.6-1.4,0.5-1.9-0.2c-0.6-0.8-1.1-1.6-1.7-2.4c-2.7-3.8-6.1-6.5-10.2-8.6c-2.3-1.2-4.5-2.6-6.7-3.9
		c-2.3-1.3-4.6-2.7-6.8-4.1c-0.2-0.1-0.5-0.3-0.7-0.5c-2.3-2.6-4.7-5.3-6.9-8c-1.2-1.5-2.3-3.1-3.4-4.6c-1.4-1.9-2.9-3.8-4.3-5.7
		c-1.8-2.5-3.6-4.9-5.1-7.5c-1.2-2.2-1.4-4.7-1.1-7.2c0.2-2,0.5-4.1,0.7-6.1c0-0.3-0.1-0.6-0.2-0.9c-0.1-1.3-0.4-2.6-0.4-3.8
		c0-1.9-0.3-3.6-1.3-5.3c-1-1.8-1.6-3.9-2.3-5.9c-0.4-1.3-0.6-2.6-1-3.9c-0.3-1.1-0.8-2.2-1-3.4c-0.3-1.3-0.2-2.7,0.6-3.8
		c0.5-0.7,0.4-1.4,0-2.1c-0.5-0.7-1.3-0.6-2-0.3c-1.3,0.7-2.6,1.5-2.8,3.2c-0.5,2.8-1.1,5.6-1.4,8.4c-0.1,1.1,0.5,2.4,0.9,3.5
		c0.1,0.2,0.4,0.3,0.6,0.4c1.3,0.3,2,1.3,2.6,2.3c0.3,0.5,0.1,1.2,0.1,1.8c0,0.3-0.1,0.5-0.2,0.9c1.6,0,3,0.1,4.5,0
		c0.6,0,0.9,0.1,1.1,0.6c0.2,0.4,0.5,0.8,0.8,1.2c0.7,1.2,0.4,2.5-0.7,3.3c-0.3,0.2-0.7,0.5-1,0.7c-0.1,0.1-0.2,0.3-0.2,0.5
		c0,0.1,0.2,0.2,0.4,0.3c1.4,0.3,2.2,1,2.2,2.3c0.1,1.8-0.4,2.9-2.3,3.6c-2.5,0.9-4.9,1.9-7.1,3.4c-0.9,0.6-1.9,0.8-2.9,1.2
		c-1.7,0.6-3.6,1-5.2,1.8c-1.2,0.6-2,1.7-3,2.7C54.9,122.5,54.9,122.8,54.8,123.2z M74.7,98.2c0.4-0.6,0.7-1.1,1.1-1.5
		c1.1-1.2,2.2-2.3,3.3-3.5c1.8-1.9,3.6-3.9,5.4-5.7c2-2.1,4.2-4.1,6.2-6.2c1.1-1.2,2.3-2.3,3.2-3.7c1.9-3.2,3.7-6.5,5.4-9.8
		c1-1.9,1.6-4.1,2.5-6c0.9-1.9,0.9-3.9,0.9-6c0-0.6-0.2-1-0.9-1.2c-2-0.4-2.7-1.4-2.4-3.4c0-0.3,0.3-0.6,0.4-0.8
		c0.2,0.3,0.4,0.5,0.5,0.8c0.3,1.4,0.9,2.1,2.2,2.1c1,0,1.8-0.5,2.3-1.4c1.6-2.5,2.4-5.3,2.7-8.2c0.1-0.6,0.1-1.3-0.1-2
		c-0.5-2-1-4-1.5-5.9c-0.1-0.3-0.3-0.6-0.5-0.8c-0.3,0.2-0.6,0.4-0.8,0.7c-0.3,0.5-0.6,1-1.5,0.7c0.5-0.8,0.8-1.6,1.3-2.3
		c0.3-0.4,1-0.8,1.4-0.7c0.4,0.1,0.8,0.7,1,1.2c0.3,1.1,0.4,2.2,0.6,3.3c0.1,0.4,0.3,0.7,0.5,1.1c0.1,0,0.3-0.1,0.4-0.1
		c0-0.6,0.1-1.3,0-1.9c-0.4-1.7-0.9-3.4-1.4-5.1c-0.3-1.1-0.6-1.2-1.6-0.5c-1.2,0.9-2.2,2-2.8,3.4c-0.3,0.7-0.8,1.4-1.2,2
		c-0.5,0.8-1.1,1.6-1.7,2.4c-0.2,0.1-0.6,0.1-0.9,0.2c-0.8,0.3-1.4,0.1-1.7-0.7c-0.1-0.4-0.2-0.7-0.3-1.1c-0.7-2.5-1.8-4.9-3.3-7
		c-1.5-2.1-2.2-4.4-2.2-7c0-1.7-0.1-3.5-0.1-5.2c-0.1-2.4-1.4-3.8-3.6-4.4c-0.9-0.2-1.8-0.3-2.7-0.2c-2.3,0.2-4.6,0.6-7,0.8
		c-2.8,0.2-5.6,0.3-8.4,0.4c-0.8,0-1.7-0.3-2.3-0.8c-1.4-1-2.8-1.2-4.4-0.9c-1,0.2-2.1,0.2-3.1,0.3c-0.3,0-0.7,0-0.9,0.2
		c-1,0.7-2.1,1.3-3,2.2c-1.2,1.3-2.2,2.8-3.2,4.3c-0.3,0.4-0.7,0.8-0.7,1.2c-0.3,2.9-0.6,5.7-0.8,8.6c-0.1,1.4,0.2,2.8,1.1,3.9
		c0.1,0.2,0.2,0.5,0.2,0.7c0.1,1.7,0.2,3.4,0.1,5.1c-0.2,4,0.3,8,1.2,11.9c1.2,5.4,2.1,10.9,4.3,16c1.1,2.7,2.4,5.3,3.8,7.8
		c0.9,1.6,2.4,2.9,3.4,4.5c0.6,0.8,0.9,1,1.9,0.3c0.2-0.2,0.4-0.4,0.6-0.5c0.9-0.6,1.8-0.8,2.8-0.3c0.9,0.5,1.4,1.3,1.5,2.4
		c0.1,1,0.2,1.1,1.2,1c5.4-0.6,9.6-3.5,13.2-7.3c1.8-2,3.5-4.1,5.2-6.2c2.2-2.9,3.8-6,4.2-9.7c0.1-0.6,0.1-1.2,0.3-1.7
		c0.2-0.6,0.6-1,1-1.6c0.1,0,0.2,0.1,0.4,0.1c-0.2,1.1-0.3,2.2-0.5,3.3c-0.4,1.7-0.6,3.4-1.3,4.9c-2.1,4.4-5.2,8.1-8.6,11.5
		c-1.8,1.8-3.1,4.1-5.5,5.3c-2.6,1.4-5.2,2.5-8.2,2.3c-0.3,0-0.7,0.1-1,0.3c-1.1,0.7-1.5,2-1.1,3.3c0.4,1.4,0.8,2.8,1.2,4.2
		c0.5,1.8,1.1,3.7,1.6,5.5C74.4,97.6,74.6,97.9,74.7,98.2z M7.2,136c-2.1,2.9-2.3,6.2-3.2,9.2c0,0.1,0,0.2,0,0.3
		c-0.1,0.7-0.2,1.5-0.4,2.2c-0.7,3.4-1.5,6.7-2,10.1c-0.5,3.5,0,6.9,2.5,9.7c2.4,2.7,5,5.1,7.9,7c0.4,0.3,1,0.4,1.5,0.3
		c1.3-0.2,2.6-0.7,3.9-0.8c2.7-0.1,5.1-1.2,7.4-2.4c1.1-0.6,2.1-1.5,2.7-2.7c0.5-1,1.3-2,1.8-3c0.7-1.3,1.3-2.7,1.9-4.1
		c0.3-0.6,0.4-1.2,0.6-1.8c0.6-1.9,1.2-3.8,1.9-5.6c0.5-1.3,1.1-2.6,1.9-3.6c1.7-2.1,4.1-3.4,6.4-4.8c1.4-0.8,2.8-1.6,4.1-2.4
		c1.1-0.7,2.1-1.6,3.1-2.5c1.7-1.7,2.6-3.9,3.6-6c0.9-1.8,1.9-3.5,3.2-5c0.7-0.8,1.9-1.3,3-1.8c1.8-0.8,3.8-1.4,5.6-2.4
		c2.1-1.2,4.1-2.6,6.1-3.9c0.3-0.2,0.6-0.3,0.9-0.5c-0.1-0.2-0.2-0.3-0.2-0.5c-0.4,0-0.7-0.2-1.1-0.1c-1.6,0.2-2.4-0.4-2.4-1.9
		c0-0.1-0.1-0.2-0.1-0.4c-4,1.8-8,3.7-12,5.5c0.3,0.7,0.6,1.5,0.9,2.3c0.1,0.2,0,0.6-0.1,0.6c-0.2,0.1-0.6,0.1-0.7-0.1
		c-0.2-0.3-0.3-0.7-0.5-1.1c-0.1-0.5-0.2-1-0.3-1.4c-3.2,0.8-5.3,2.7-6.6,5.6c-0.4-0.2-0.6-0.3-1-0.4c0.8-1.4,1.6-2.8,2.8-3.8
		c1.7-1.5,3.5-3.1,4.9-4.8c1.4-1.6,3-2.6,4.9-3.3c2.1-0.7,4.2-1.4,6.2-2.3c1.6-0.7,2.9-1.8,4.7-2.1c0.2,0,0.4-0.2,0.4-0.4
		c0-0.1-0.2-0.4-0.4-0.5c-1.1-0.5-1.6-1.5-1.3-2.7c0.1-0.3,0.1-0.6,0.3-1.1c-0.6,0.3-0.9,0.5-1.3,0.6c-3.1,0.9-6.2,1.7-9.3,2.7
		c-1.3,0.4-2.5,1.1-3.7,1.7c-0.5,0.2-0.6,0.6-0.1,1c0.4,0.4,0.7,0.9,1,1.4c0.1,0.3,0,0.6,0,0.9c-0.3-0.1-0.7-0.2-0.9-0.4
		c-0.3-0.4-0.5-0.9-0.9-1.3c-0.1-0.1-0.6-0.2-0.8,0c-2.5,2.3-5.4,4-8.7,5.1c0.1-0.4,0.3-0.8,0.6-0.9c0.9-0.6,2-1,2.9-1.6
		c1.8-1.2,3.8-2.1,5.1-4c1-1.5,2.5-2.2,4.1-2.7c3.1-1,6.3-1.7,9.4-2.6c0.9-0.3,1.8-0.7,2.7-1c-0.1-1.1-1.5-1.2-1.4-2.4
		c0.1-0.9,0-1.8,0-2.8c-0.6,0.1-1.2,0.4-1.9,0.5c-4.6,0.7-9.1,2-13.6,3.3c-0.4,0.1-0.7,0.4-1.1,0.6c0.4,0.6,0.8,1,1.1,1.5
		c0.3,0.5,0.7,1.1,0.9,1.6c0.1,0.2-0.1,0.4-0.1,0.6c-0.2-0.1-0.5,0-0.6-0.2c-0.2-0.2-0.4-0.6-0.6-0.8c-0.4-0.6-0.7-1.2-1.2-1.7
		c-0.2-0.2-0.8-0.3-1-0.1c-0.6,0.3-1.2,0.8-1.7,1.3c-1.7,1.7-3.8,3-6,3.8c-0.9,0.3-1.9,0.4-2.9,0.7c0-0.4-0.1-0.5-0.1-0.7
		c0-0.2,0-0.4,0.1-0.6c0.3,0,0.5-0.1,0.8-0.1c2.4,0.1,4.2-1,5.8-2.5c2.1-2.1,4.4-3.8,7.3-4.5c3.1-0.8,6-2.2,9.2-2.4
		c0.2,0,0.3-0.2,0.4-0.3c-0.5-0.8-1.2-1.6-1.4-2.4c-0.2-0.9,0-1.8,0.1-2.8c-0.2,0-0.4,0-0.7,0c-2.6,0.5-5.2,1-7.8,1.5
		c-1.7,0.3-3.6,0.3-5.2,1.3c-0.3,0.2-0.7,0.5-1,0.7c0.5,0.8,1,1.4,1.4,2c-0.7,0.7-1,0.2-1.4-0.3c-0.7-1.1-1.1-1.1-2-0.3
		c-0.5,0.4-1,0.8-1.5,1.1c-1.9,1.3-3.9,2.5-5.6,4.2c-1.2,1.2-2.5,2.2-3.8,3.3c-1.4,1.2-2.9,2.4-2.6,4.5c0,0.1,0,0.2,0,0.3
		c0,3-0.1,6,0,8.9c0.1,2.1-0.1,4.1-1.5,5.6c-2.1,2.3-4.3,4.4-6.6,6.5c-1.1,1-2.5,1.7-3.6,2.7c-2,1.6-3.9,3.3-5.9,5
		c-0.2,0.2-0.7,0.1-1,0.1c0.1-0.3,0.2-0.7,0.4-0.9c0.6-0.6,1.3-1.2,2.1-1.9C13,139.4,10.1,137.7,7.2,136z M35.6,84.7
		c0,0.1,0,0.2,0,0.3c0.5,0.7,1,1.4,1.4,2.1c0.2,0.3,0.4,0.6,0.6,0.9c0.5,1.1,0.9,2.2,1.5,3.2c1.4,2,2.9,3.9,4.3,5.9
		c0.8,1.1,1.6,2.3,2.3,3.4c1.5-0.8,3-1.7,4.5-2.5c0.5-0.3,1.2-0.4,1.8-0.5c2.1-0.3,4.2-0.5,6.3-0.8c1.1-0.2,2.2-0.6,3.3-0.8
		c1.8-0.4,1.8-0.4,0.7-1.9c-1.8-2.4-3.6-4.9-5.4-7.3c-2.6-3.4-5.2-6.8-7.9-10.1c-0.4-0.5-0.9-0.8-1.3-1.1c-0.4,1-0.6,2.1-1.2,2.8
		c-0.7,0.8-1.9,0.5-3.1,0c0.3,0.5,0.4,0.8,0.6,1.1c1.1,1.4,2.2,2.7,3.3,4.2c2.3,3,4.4,6.2,5.9,9.6c0.5,1.2,0.2,2.1-1.1,2.7
		c-0.5,0.2-1.5-0.2-1.9-0.6c-1.8-1.8-3.5-3.6-5.1-5.6c-1.5-1.9-2.6-4-3.9-6c-0.5-0.7-1-1.3-1.7-2.3C39.2,83.9,38.4,85.6,35.6,84.7z
		 M44.8,101.5c-0.2-0.3-0.3-0.4-0.4-0.6c-1.2-2-2.2-4.2-3.7-6C39.3,93,37.8,91.2,37,89c-0.2-0.4-0.5-0.5-0.8-0.1
		c-0.6,0.9-1.2,1.9-1,3.1c0.2,1.2,0.1,2.3,0.2,3.5c0.1,1,0.3,2.1,0.7,3c0.9,1.7,1.9,3.3,2.9,4.8c0.3,0.5,0.8,0.9,1.1,1.2
		C41.9,103.4,43.3,102.5,44.8,101.5z M62.5,91.3c0.1-0.5,0.1-0.8,0.2-1.1c0.4-2.3,0.8-4.6,1.4-6.9c0.3-1.1,0-1.8-0.7-2.6
		c-1-1.2-2-2.5-2.8-3.8c-0.7-1.1-1.3-2.3-2-3.5c-0.1,0-0.2,0-0.3,0C58.2,76,58,78.4,58,80.8c0,1.1,0.5,2.1,0.6,3.2
		C58.8,87,60.6,89.1,62.5,91.3z M114.6,151.2C114.6,151.2,114.6,151.2,114.6,151.2c-0.2-2.5-0.4-5-0.6-7.6c-0.1-1.2-0.2-2.4-0.3-3.6
		c-0.1-0.7-0.5-1.1-1.2-1c-0.7,0.1-0.8,0.7-0.7,1.3c0.2,2.3,0.3,4.5,0.5,6.8c0.2,1.8,0.3,3.5,0.6,5.3c0.1,0.3,0.6,0.8,1,0.8
		c0.6,0.1,0.8-0.5,0.8-1C114.7,151.9,114.7,151.6,114.6,151.2z M111.3,84.5c0.1-0.1,0.2-0.2,0.2-0.2c0.4-2.7,1.9-5.1,2.2-7.8
		c0.2-1.5,0.7-2.9,1-4.3c0.1-0.6-0.1-0.9-0.7-1.1c-0.7-0.2-0.8,0.2-0.9,0.7c-0.1,0.6-0.2,1.1-0.4,1.7c-0.4,1.5-0.7,3.1-1.2,4.6
		c-0.4,1.2-0.8,2.4-1.3,3.6C109.7,82.9,110.3,83.7,111.3,84.5z M82.5,98c0.5-0.2,0.7-0.3,1-0.4c2.3-1,4.6-2.2,7.2-2.6
		c0.7-0.1,1.4-0.5,2-0.9c0.3-0.2,0.4-0.9,0.3-1.2c-0.2-0.5-0.6-0.7-1.2-0.4c-0.8,0.4-1.7,0.5-2.6,0.9c-2.3,0.9-4.6,1.8-6.9,2.8
		c-0.2,0.1-0.4,0.6-0.4,0.8C82,97.2,82.3,97.6,82.5,98z M65.1,96.6c-1.4,0-2,0.6-2,1.9c0,1.3,1.3,2.8,2.4,2.8c1,0,2.6-1.4,2.6-2.2
		C68,98,66.4,96.6,65.1,96.6z M71.8,101.6c-1.4-0.1-2.1,0.9-2.2,2.3c-0.1,0.9,1.3,2.4,2.1,2.4c1.1,0,2.6-1.4,2.6-2.3
		C74.3,102.7,73.2,101.6,71.8,101.6z M72.5,108.1c-1,0-1.9,0.8-2,1.7c-0.1,1.1,1.1,2.1,2.6,2.2c0.8,0.1,1.5-0.8,1.5-2
		C74.6,108.7,74.1,108.2,72.5,108.1z M70.8,120c1.4,0,2.3-0.5,2.3-1.4c0-1.1-0.9-2.2-1.9-2.1c-1.7,0.2-2.5,0.7-2.4,2
		C68.8,119.7,69.2,120,70.8,120z M38.6,81.8c-0.2-0.3-0.3-1-0.6-1.1c-0.3-0.1-0.9,0.2-1.3,0.4c-0.3,0.1-0.5,0.4-0.7,0.6
		c-0.5,0.3-0.9,0.8-0.5,1.3c0.3,0.5,0.9,1,1.5,1.1c0.4,0.1,1.1-0.4,1.4-0.8C38.5,83,38.5,82.5,38.6,81.8z M45,78
		c1,0,1.5-0.6,1.5-1.9c0-0.7-0.2-1.2-1-1.2c-0.9,0-2.2,0.9-2.2,1.6C43.3,77.1,44.2,78,45,78z M39.3,105.1c-0.5-0.9-1-1.8-1.6-2.7
		c-0.1,0-0.2,0.1-0.3,0.1c-0.4,1.3-0.3,2.5,0.2,3.8C38.2,105.9,38.7,105.6,39.3,105.1z"/>
	<path class="st0" d="M76,51.4c1.1,0.8,1.4,3.4,0.4,4.5c-0.7,0.8-1.7,0.9-2.8,0.9c-0.7,0-1.4,0-2,0.3c-1.8,1-3.7,0.9-5.6,0.5
		c-1.6-0.3-2.5-1.6-2.5-3.2c0-2.2,1.2-4,1.7-6c0.5-1.7,0.8-3.5,1.2-5.2c0-0.2,0-0.4-0.1-0.6c-1.6,0.7-3.1,1.3-4.6,2.1
		c-1.6,0.8-3.2,0.5-5,0.1c0-0.2,0.1-0.5,0.2-0.8c1.9,0.6,3.4-0.5,5-1c0.9-0.2,1.7-0.8,2.5-1.2c0.5-0.3,1.1-0.5,1.9-0.9
		c-0.5-0.3-0.8-0.7-1.2-0.8c-2.6-0.3-5.1-0.5-7.7-0.8c-1.1-0.1-1.8,0.3-2.4,1.2c-0.2,0.3-0.7,0.4-1.1,0.5c-0.1-0.4-0.3-0.9-0.1-1.3
		c0.7-1.5,1.8-2.2,3.5-2.4c1.7-0.1,3.3,0.4,4.9,0.9c0.9,0.3,2,0.2,3,0.4c1.6,0.3,2,0.7,2.2,2.3c0.3,2.4,0.4,4.8-0.8,7.1
		c-0.7,1.5-1.2,3.1-1.8,4.7c-0.8,2.4,0.2,3.8,2.7,3.9c1.4,0,2.6-0.2,3.8-0.9c0.8-0.4,1.9-0.4,2.9-0.4c1,0,1.7-0.8,1.3-1.9
		c-0.1-0.2-0.2-0.3-0.3-0.5C74.7,51.9,74.7,51.9,76,51.4z"/>
	<path class="st0" d="M80.8,66.3c-1.4,1-2.7,2-4.1,2.9c-2.6,1.8-5.6,2-8.5,1.3c-1.8-0.4-3.8-1.1-4.7-3.1c-0.2-0.5-0.6-0.9-1-1.4
		c-0.3-0.5-0.2-0.8,0.3-0.9c1.4-0.4,2.7-0.8,4.1-1c0.8-0.1,1.6,0.1,2.4,0.1c0.5,0,1.1-0.1,1.6-0.1c1.2,0,2.4-0.2,3.6,0.1
		c2.1,0.5,4.2,1.1,6.2,1.7C80.7,66,80.8,66.2,80.8,66.3z M78.7,66.6c-2.6,0.4-4.9,1-7.2,1c-2.4,0-4.8-0.5-7.4-0.8
		c0.5,0.5,0.9,0.9,1.3,1.2c1.4,1.3,3.1,1.4,4.9,1.5C73.4,69.7,76.2,69.1,78.7,66.6z M75.8,65.7c-1.5-0.9-3-0.9-4.5-0.6
		c-0.9,0.1-1.9,0.3-2.6,0c-1.4-0.6-2.4,0.3-3.6,0.5C68.6,66,72.2,66.8,75.8,65.7z"/>
	<path class="st0" d="M74.2,38.8c0.8-0.3,1.6-0.7,2.4-1c1.5-0.6,3.1-1.2,4.6-1.7c0.8-0.2,1.7-0.4,2.5-0.2c1.9,0.5,3.7,1.3,5.3,2.4
		c-0.6,0.9-1.3,0.5-2.1,0.4c-3-0.6-5.9-0.4-8.8,0.6c-0.9,0.3-1.9,0.3-2.9,0.3c-0.4,0-0.8-0.3-1.2-0.4C74.1,39,74.2,38.9,74.2,38.8z"
		/>
	<path class="st0" d="M102.4,43.6c0,0.4,0,0.9,0,1.3c0,0.2,0.2,0.5,0.4,0.6c0.2,0.1,0.5-0.1,0.7-0.2c1.1-1,1.5-3.7,0.8-5.1
		c-0.4-0.8-0.8-0.8-1.3-0.1c-0.3,0.4-0.5,1.1-1.2,0.7c-0.1-0.1,0.2-0.8,0.3-1.3c0-0.1,0.1-0.2,0.2-0.2c0.5-0.4,1.2-1.3,1.4-1.2
		c0.7,0.3,1.3,1,1.7,1.6c0.6,1,0.6,2.1,0.2,3.3c-0.5,1.7-1.4,3.1-2.6,4.3c-0.3,0.3-0.8,0.3-1.2,0.4c-0.1-0.4-0.3-0.7-0.3-1.1
		c0-0.9,0.2-1.8,0.3-2.6c0-0.2,0.2-0.3,0.3-0.5C102.3,43.5,102.3,43.5,102.4,43.6z"/>
	<path class="st0" d="M76.8,41.6c1.1,0.6,2.3,1.1,3.4,1.8c1.3,0.8,2.7,0.8,4.1,0.5c1.1-0.2,2.3-0.4,3.2-1.4c0.1-0.1,0.3-0.2,0.5-0.3
		c0.2,0,0.5,0.1,0.7,0.2c-0.1,0.2-0.1,0.5-0.2,0.6c-1.9,1.7-4,2.4-6.5,2c-2-0.3-3.5-1.6-5.2-2.4c-0.2-0.1-0.2-0.7-0.3-1
		C76.5,41.6,76.7,41.6,76.8,41.6z"/>
	<path class="st0" d="M76.1,74.9c-2.9-1.8-5.9-1.5-8.9-0.7c0-0.1,0-0.3-0.1-0.4c0.7-0.3,1.4-0.7,2.1-0.7c1.4-0.2,2.8-0.2,4.1-0.2
		C74.5,72.9,75.8,73.8,76.1,74.9z"/>
	<path class="st0" d="M39.5,118.9c-0.7,0.5-1.2,1-1.8,1.3c-0.8,0.5-1.1,1.2-1,2.2c0.1,0.7,0.1,1.4,0.1,2.2c0,0.2-0.2,0.5-0.4,0.7
		c-0.1,0-0.2-0.1-0.3-0.1c0-1.4-0.1-2.8,0-4.1C36.1,120.1,38.3,118.7,39.5,118.9z"/>
</g>
</svg>
