<?xml version="1.0" encoding="utf-8"?>
<!-- Generator: Adobe Illustrator 19.2.1, SVG Export Plug-In . SVG Version: 6.00 Build 0)  -->
<svg version="1.1" id="Layer_1" xmlns="http://www.w3.org/2000/svg" xmlns:xlink="http://www.w3.org/1999/xlink" x="0px" y="0px"
	 viewBox="0 0 228.5 240.4" style="enable-background:new 0 0 228.5 240.4;" xml:space="preserve">
<style type="text/css">
	.st0{fill:#512DA8;}
</style>
<g id="icon-wartfinger">
	<path class="st0" d="M200.6,197.6c-2.1-0.8-4,1-4.4,2.9c-0.2,0.1-0.4,0.2-0.5,0.2c-1.1,0.5-2.5,1.1-3.6,0.9c-4-1-7.9-2.2-11.8-3.6
		c-7.4-2.7-14.8-5.3-21.9-8.5c-8.5-3.7-16.7-8-25-12.1c-3.5-1.8-6.5-3.5-7.3-8.5c-1.3-8.2-4.1-16.2-6.1-24.4
		c-2.2-9.2-4.2-18.5-6.4-27.7c-1.3-5.5-3.1-10.9-4.3-16.4c-1.4-6.2-3.2-12.4-2.5-19c0.3-2.6-1.2-5.6-2.4-8.2
		c-1.4-2.9-3.2-5.7-5.2-8.3c-4-5.2-8.1-10.2-12.4-15.2c-6-6.9-12.7-13.3-18-20.6c-4.8-6.7-11-10.9-18-14.7
		c-7.3-3.9-14.7-7.8-21.7-12.1c-2.4-1.5-4.3-3.1-7.3-2c-2.6,1-5.4,1.7-8.1,2.6C13.3,3.1,13,3.6,13,4c-0.5,3.1-1.9,6.1-0.1,9.4
		c1,1.9,1.4,4.1,2.4,6.1c3.4,7.1,8.3,12.7,15.1,16.7c4.1,2.5,8.5,4.6,12.3,7.4c6.1,4.4,9,11.3,13,17.9c-1.6,0-2.4,0.1-3.3,0
		c-8.1-1.1-15,1.3-21,6.8c-1.6,1.5-3.9,2.4-5.8,3.7c-3,2.1-6.8,3.6-8.8,6.5c-3.1,4.4-5.3,9.2-10.5,11.7c-0.7,0.3-1.2,1.2-1.6,2
		c-4.3,8.2-6.5,16.8-2.7,25.7c1.9,4.5,4.4,8.8,7.1,12.9c4.1,6.4,8.2,13,17.1,13.6c0.8,0.1,1.7,1.3,2.1,2.2
		c5,11.1,9.8,22.4,14.8,33.5c4.9,10.6,11.3,20.3,20.8,27.3c9.8,7.2,20.3,13.5,30.3,20.5c6,4.2,12.1,8.6,18.1,12.6h12.1
		c-5.1-4-10.3-7-15.5-10.3c-10.6-6.7-21.4-13.1-32-19.7c-7.1-4.4-15-8-18.9-16c-4.1-8.5-10.2-15.8-13.2-24.9
		c-2.9-8.9-7.1-17.6-11.2-26.1c-5.2-10.9-10.4-21.9-18.5-31c-0.9-1-1.9-1.7-2.9-2.6c-0.4,0.2-0.9,0.5-1.3,0.7
		c0.5,1.6,0.8,3.3,1.6,4.7c2.6,4.3,5.6,8.3,8.1,12.6c1.9,3.3,3.3,7,4.9,10.5c-0.2,0.2-0.4,0.5-0.6,0.7c-0.8-0.3-1.8-0.4-2.5-0.9
		c-9-7.1-16-15.7-17.9-27.4C4,107.3,4.1,103,5.7,99.9c2-3.9,4.1-8,10-9.3c5.5-1.2,8,2.2,11.2,4.2c6.6,4.2,12.6,9.3,19,13.9
		c1,0.7,3.2,1.2,3.9,0.6c1.7-1.5,0-2.7-1.2-3.6C39.9,99.5,31.2,93.2,22.6,87c-0.1-0.1-0.2-0.1-0.3-0.2c-5.9-3.2-6-3.3-0.2-7.3
		c1.9-1.3,4-2.8,6.2-3.3c3.6-0.9,6.7-1.5,10.7,1.4c7.1,5.2,15.6,8.6,23.5,12.8c2,1.1,3.8,1,5.1-2.3c-10.8-5.6-21.5-11.2-32.3-16.8
		c1.8-3,4.7-4.1,8-4.8c4.6-1,9.2-1.7,13.7,0.6c0.5,0.2,1.1,0.6,1.5,0.4c4.6-1.4,7.6,1.7,11,3.7c2.4,1.4,4.7,3.1,7.2,4.4
		c1.2,0.6,2.7,0.5,4.1,0.8c0.1-0.3,0.3-0.7,0.4-1c-1.4-1.2-2.7-2.5-4.2-3.4c-5.1-3.1-10.3-6-15.4-9.1c-0.8-0.5-1.5-1.2-1.9-2
		c-3-4.7-5.7-9.6-8.8-14.2c-4.2-6.2-10.9-9.6-17.1-13.3c-6.2-3.6-11.1-8.3-14.9-14.6c4.3,0.9,8.6,3,12.3,2.3
		c3.6-0.7,6.8-4.2,10.6-6.8c5.6,3.2,12.6,5.4,17.9,10.9c-1.4,1.6-2.8,2.9-3.7,4.5c-0.7,1.2-0.6,2.9-0.8,4.3c1.3-0.6,2.8-0.9,4-1.7
		c1.2-0.9,2-2.2,2.9-3.3c0.5,0.2,0.7,0.2,0.9,0.4c8.1,9.5,16.3,19,24.2,28.7c4.6,5.7,8.5,11.9,12.8,17.7c2.2,2.9,1.8,6.1,1.9,9.3
		c0.1,3.6,0.6,7.2,1.2,10.8c0.5,2.8,1.4,5.5,2,8.3c2.8,12.8,5.3,25.6,8.3,38.3c2.5,10.3,5.5,20.5,8.5,30.8c0.4,1.2,1.4,2.5,2.4,3.3
		c1.6,1.3,3.5,2.2,5.3,3.2c8.7,4.7,17.2,10,26.2,14c9.1,4,18.9,6.7,28.3,10c1.4,0.5,2.8,1,4.3,1.5c-5.1,8.1-10.1,15.9-14.9,23.8
		c-1.2,2-2.1,4.3-2.7,6.6c-0.4,1.6-0.9,2.8-1.3,4.8h59.2v-31.5C219.5,204.8,210,201.1,200.6,197.6z M25.1,16.8
		c-2.8-1.2-5.6-2.9-8-4.9c-3-2.5-1.9-6,1.7-7.4c3.3-1.3,5.9-1.1,8.9,1.5c2.7,2.4,6.3,3.7,9.7,5.7C34.2,17.7,30.6,19.2,25.1,16.8z"/>
	<path class="st0" d="M90.9,87.3c1.3,2.2,2,4.2-0.2,4.6c-7.4,1.6-10.5,8.5-16,12.4c-5.8,4.2-10.2,10.1-16.9,13.2
		c-1.9,0.9-3,3.1-4.7,4.4c-0.8,0.7-2.2,0.7-3.3,1c0.1-1.2-0.2-3,0.5-3.6c2.9-2.6,6.2-4.7,9.3-7.1c3.7-2.9,7.3-5.9,10.7-9
		c3.3-3,6.1-6.6,9.6-9.3C83.1,91.3,87,89.6,90.9,87.3z"/>
	<path class="st0" d="M47.3,33.4c-3.7,0.1-7.4-2.7-7.5-5.8c0-3.1,2.6-5.9,5.6-6c3.4-0.1,6.5,3.3,6.7,7.2
		C52.2,31.5,50.3,33.3,47.3,33.4z"/>
</g>
</svg>
