<?xml version="1.0" encoding="utf-8"?>
<!-- Generator: Adobe Illustrator 19.2.1, SVG Export Plug-In . SVG Version: 6.00 Build 0)  -->
<svg version="1.1" id="Layer_1" xmlns="http://www.w3.org/2000/svg" xmlns:xlink="http://www.w3.org/1999/xlink" x="0px" y="0px"
	 viewBox="0 0 179.8 200" style="enable-background:new 0 0 179.8 200;" xml:space="preserve">
<style type="text/css">
	.st0{fill:#3949AB;}
</style>
<g id="icon-headache-man">
	<path class="st0" d="M26.8,132.1c-1.1,0.9-1.5,2.4-0.7,3.6c0.5,0.7,1.2,1.4,1.9,1.8c3.1,1.9,6.2,3.7,9.3,5.6
		c1.9,1.2,3.9,2.5,5.7,3.9c2.5,2.1,4.9,4.4,7.3,6.7c0.6,0.5,1,1.2,1.4,1.8c0.2,0.2,0.3,0.6,0.2,0.8c0,0.3-0.1,0.7-0.3,0.8
		c-0.2,0.1-0.5-0.1-0.8-0.3c-0.2-0.2-0.4-0.4-0.5-0.6c-1.4-2.3-3.6-3.7-5.6-5.2c-0.8-0.6-1.5-1.2-2.2-1.8c-2.6-2.5-5.7-4.3-8.8-6
		c-2.4-1.3-4.7-2.4-6.7-4.3c-0.5-0.4-1.1-0.7-1.6-1.1c-2-1.8-1.9-3.3-1-6.4c0.4-1.3,1.1-2.4,1.6-3.7c0.8-2.2,1.5-4.3,2.3-6.5
		c1.3-3.5,2.6-6.9,3.8-10.4c0.4-1.1,0.4-2.3,0.5-3.5c0.1-1.3,0.1-2.5,0.1-3.8c0-1.6-0.5-3-1.8-4c-0.6-0.5-1.1-0.1-1.4,0.4
		c-0.4,0.9-0.8,1.9-1.1,2.8c-1.1,2.8-2.2,5.6-3.5,8.3c-0.8,1.7-1.9,3.2-2.7,4.8c-1.8,3.5-3.5,6.9-5.2,10.4c-0.6,1.2-0.9,2.5-1.5,3.7
		c-1,2-2.1,3.9-3,5.9c-0.8,1.6-1.5,3.3-1.9,5.1c-0.3,1.1-0.2,2.5,0.2,3.6c0.6,1.9,1.8,3.5,3.2,5c1.4,1.5,2.7,3,3.9,4.7
		c1.4,1.8,2.6,3.8,3.9,5.7c1.8,2.7,3.6,5.3,5.4,8c1.6,2.4,2.8,4.9,2.9,8c0.1,2.5,0.8,5,0.9,7.5c0.3,4.5,0.4,8.9-0.3,13.4
		c-0.2,1.4-0.7,1.6-1.9,1.1c0-2.2,0.1-4.3,0-6.4c-0.1-1.7-0.4-3.5-0.4-5.2c-0.1-2.6-0.1-5.2-0.2-7.7c-0.2-2.8-0.4-5.7-1.9-8.2
		c-2-3.2-4.1-6.2-6.2-9.3c-0.7-1.1-1.5-2.1-2.3-3.1c-1.5-1.9-3-3.7-4.5-5.6c-0.4-0.5-0.8-1-1.2-1.6c-0.8-1.1-1.8-2.2-2.4-3.4
		c-1.4-2.6-3.1-5-2.9-8.2c0.1-1.4-0.4-2.8-0.6-4.2c-0.7-3.5-0.5-7,0.1-10.5c1.4-7.1,2.7-14.1,4.1-21.2c0.6-2.7,1.5-5.3,2.2-7.9
		c0-0.1,0.1-0.2,0.1-0.3c0.4-2.8,1.6-5.3,3.3-7.6c1-1.4,1.2-2.9,1.5-4.6c0.4-2.2,0.9-4.4,1.5-6.5c0.4-1.3,1.1-1.6,2.5-1.5
		c0.1,0,0.3,0,0.4,0c0.7,0,1.4,0,2.1,0c0-1.1,0-2.1,0-3.1c-2,0.7-3.9,1.3-5.9,1.9c-0.7,0.2-1.4,0.4-2.2,0.4c-1.2,0.1-2.3,0.1-3.5,0
		c-0.9-0.1-1.7-0.3-2.5-0.4c-0.3-0.1-0.6-0.3-0.9-0.3c-2.3,0-3.8-1.2-5.2-2.8c-0.6-0.7-1.3-1.3-1.9-2C0.4,67.2,0,65.9,0,64.4
		C0,64.2,0.1,64,0.2,64c0.1,0,0.4,0,0.5,0.1c0.8,1.5,2.1,1.2,3.4,1.1c0.1,0,0.1,0,0.2,0c0.1,0,0.1-0.1,0.3-0.1
		c-0.2-0.5-0.3-1-0.6-1.5c-1.3-2.4-1.2-5-1.2-7.6c0-0.3,0.1-0.7,0-1c-0.2-1.2,0.5-2,1.2-2.7c0.9-0.9,2-0.4,2.2,0.9
		c0.1,0.6,0.2,1.2,0.3,1.8c0.1,0,0.2,0,0.3,0c0.1-0.3,0.2-0.5,0.1-0.8c-0.1-1.8-0.2-3.7-0.3-5.5c0-0.5,0-1.1,0.1-1.6
		c0.1-0.3,0.4-0.8,0.7-0.8c0.3,0,0.8,0.3,1,0.6c0.3,0.4,0.4,1,0.6,1.5c0.3,0.8,0.5,1.7,0.8,2.5c0.1,0.2,0.3,0.3,0.6,0.6
		c0.2-0.8,0.4-1.5,0.5-2.3c0.3-2,0.5-4.1,0.8-6.1c0-0.2,0.2-0.4,0.3-0.6c0.1-0.2,0.3-0.3,0.3-0.5c0-1.1,0.6-2.1,0.7-3
		c0.1-1.2,0.6-2,1-3c0.3-0.8,0.6-1.7,0.8-2.5c0.2-1.2,0.6-2.3,1.6-3.1c0.3-0.2,0.6-0.4,1-0.4c1.5-0.2,2.5-0.9,3.4-2
		c1.4-1.9,3.1-3.4,5.3-4.4c0.6-0.2,1.1-0.5,1.7-0.7c0.7-0.2,1.1,0.2,1,0.9c0,0.4-0.1,0.8-0.1,1.2c0.6,0,1,0,1.5,0
		c0.1,0,0.3-0.2,0.4-0.3c0.5-0.7,1-1.4,1.6-2c0.6-0.6,1.1-1.3,1.8-1.8c2.6-1.7,4.4-4.3,6.8-6.2c0.9-0.8,2.1-1.2,3.1-1.9
		c0.2-0.1,0.5-0.3,0.6-0.5c0.9-1.5,2.5-2,3.9-2.9c0.4-0.2,1.3-0.2,1.5,0c0.3,0.4,0.3,1.1,0.4,1.7c0,0.3-0.1,0.6-0.3,1
		c1.1-0.3,2.2-0.4,3.1-0.9c2.5-1.4,5.1-2.8,7.5-4.4c2.3-1.5,4.6-2.8,7.2-3.7c0.9-0.3,1.6-0.9,2.4-1.4c1.6-1,3.4-1.5,5.3-1.5
		c3.2,0,6.4-0.1,9.6,0c2,0,4.1-0.1,5.9,0.5c2.1,0.6,4.2,0.8,6.3,1.3c1.5,0.3,3.2,0.2,4.6,0.6c2.4,0.7,4.8,1.8,7.2,2.7
		c0.9,0.4,1.8,1,2.7,1.4c3.1,1.5,6,3.3,8.6,5.4c0.6,0.5,1,1.1,1.6,1.6c0.5,0.5,1,0.9,1.6,1.4c0.1,0.1,0.2,0.1,0.2,0.2
		c1.3,1.7,3.3,2.6,4.7,4.2c1.3,1.6,2.8,3.2,4,4.9c1.6,2.2,2.9,4.6,4.4,6.9c1.3,2,2.4,4.2,3.9,6.1c2.7,3.4,4.5,7.1,5.7,11.2
		c0.7,2.3,1.2,4.7,1.4,7.1c0.3,2.8,0.3,5.6,0.1,8.4c-0.1,1.4-0.6,2.7-0.9,4.1c-0.3,1.2-0.7,2.4-0.8,3.6c-0.3,3-0.5,6-0.6,9
		c-0.1,3.6-0.4,7.1-1.5,10.5c-0.2,0.6-0.2,1.4,0,2c0.4,1.4,0.9,2.8,1.4,4.3c1.5,4.4,4.6,7.9,7.5,11.4c2.4,2.9,5.5,5.1,8.6,7.1
		c5.2,3.5,10.7,6.3,16.3,9.1c0.7,0.3,1.4,0.8,1.9,1.3c0.2,0.2,0.3,0.9,0.2,1.2c-0.2,0.5-0.7,0.2-1,0c-4.9-2.6-9.8-5.1-14.6-7.7
		c-0.7-0.4-1.4-0.9-2.1-1.4c-2.7-1.8-5.4-3.7-8.1-5.5c-2.7-1.8-4.7-4.4-6.4-7.1c-1.2-1.9-2.3-3.9-3.5-5.8c-0.6,2.8-1.4,5.6-2.6,8.1
		c-0.1,0.2-0.1,0.3-0.1,0.5c-0.1,3.2-1.1,6.2-2.2,9.2c-0.6,1.6-1.1,3.3-1.8,4.9c-1.5,3.9-3,7.7-4.5,11.5c-0.4,1-1,1.9-1.5,2.9
		c-3,5.7-6.1,11.5-9.1,17.2c-1,1.9-1.6,3.9-2.5,5.9c-0.7,1.5-1.5,3.1-2.4,4.5c-0.9,1.5-1.5,3-1.9,4.6c-0.9,4.3-1.1,8.7-1.5,13.1
		c-0.4,4.7-0.7,9.3-1,14c0,0.5-0.2,1.1-0.8,0.9c-0.3-0.1-0.7-0.7-0.7-1c0.2-4,0.5-8,0.9-11.9c0.3-4.1,0.7-8.2,1-12.3
		c0.1-1-0.3-1.7-0.8-2.5c-1.5-2.3-3-4.7-4.5-7c-0.3-0.5-0.5-1.2-0.9-1.7c-0.6-0.7-1.2-1.4-2-1.8c-2.4-1.4-3.9-3.7-5.2-6
		c-0.8-1.3-1.3-1.5-2.6-0.6c-2.5,1.6-4.9,3.1-7.4,4.7c-0.4,0.3-0.9,0.5-1.4,0.6c-1.3,0.2-2.3,0.9-3.3,1.7c-1.9,1.5-4,2.4-6.5,2.3
		c-1.9-0.1-3.8-0.2-5.6-0.4c-2.3-0.2-3.8-1.5-5-3.3c-1.9-2.6-2.5-5.7-2.6-8.8c0-1.6-0.1-2.1-2.3-2.6c-2.4-0.5-4.3-1.8-5-4.2
		c-0.3-0.9-0.1-1.8-0.1-2.8c0-0.8-0.2-1.2-1.1-1.1c-0.6,0-1.1-0.1-1.7-0.1c-1.8-0.2-2.9-1.1-3.4-2.9c-0.4-1.3-0.8-2.7-1.4-4
		c-0.3-0.6-0.8-1.1-1.7-1.2c-0.2,1.4,0,2.7,0.5,3.9c1.7,3.9,3.5,7.8,5.1,11.8c0.7,1.8,1.1,3.8,1.8,5.6c0.6,1.8,0.8,3.6,0.8,5.4
		c0,0.6,0.3,1.1,0.3,1.6c0.1,2.8-0.7,5.4-1.7,7.8c-0.8,2-1,4-0.9,6c0,1.7,0.1,3.4,0.6,5.1c0.5,1.6,0.6,3.3,0.7,5
		c0.2,3.5,0.3,7.1,0.4,10.6c0.1,1.8,0.1,3.6,0.2,5.4c0,0.6-0.2,1.2-0.9,1.2c-0.8,0-1-0.6-1-1.3c-0.2-5.7-0.3-11.4-1.2-17.1
		c-0.5-2.6-0.6-5.3-0.6-8c0-2.8,0.6-5.5,1.7-8c0.7-1.6,0.9-3.1,0.9-4.8c0.1-2.1-0.3-4-0.7-6c-0.6-2.5-1-5.1-1.8-7.6
		c-1-2.8-2.4-5.4-3.6-8.1c-0.9-2-1.8-3.9-2.6-5.9c-0.3-0.8-0.2-1.8-0.2-2.7c-2.2,0.3-4.4,0.6-6.6,0.8c-0.7,0.1-1,0.4-0.9,1.2
		c0.1,0.8-0.2,1.9,0.2,2.5c0.4,0.5,1.5,0.6,2.3,0.9c1.3,0.5,2.6,0.9,3.8,1.6c1,0.6,1.9,1.6,2.7,2.5c0.2,0.2,0,1-0.2,1
		c-0.3,0.1-1,0.1-1.2-0.2c-1.1-1.8-2.8-2.5-4.7-2.9c-2.5-0.5-5-1.1-7.4-1.1c-3.2,0.1-5.2-1.5-7-3.7
		C27.4,132.8,27.1,132.5,26.8,132.1z M111.1,92.7c0.2-1.7,0.4-3.2,0.5-4.8c0.2-3.9-0.5-7.6-2.3-11.1c-0.8-1.7-1.5-3.6-3-4.9
		c-0.5-0.4-0.9-0.9-1.3-1.3c-1.3-1.2-2.9-1.9-4.7-1.2c-1.7,0.6-3.2,1.7-3.7,3.6c-0.8,2.6-1.5,5.2-2.4,7.7c-0.6,1.8-1.2,3.5-1.9,5.2
		c-0.7,1.6-1.9,2.7-3.4,3.6c-1.9,1-4.4,0.4-5.6-1.4c-1.3-1.9-2.3-3.9-3.1-6.1c-0.7-1.7-1.9-2.3-3.7-2.2c-2.1,0.2-4.2,0.4-6.3,0.4
		c-1.3,0-2.6-0.5-3.9-0.7c-0.2,0-0.4-0.3-0.5-0.4c-0.7-1-1.2-2.1-1.2-3.4c0.1-1.2,0-2.3,0-3.5c0-0.3-0.1-0.6-0.3-0.9
		c-0.9-1.4-2.5-2-4-2.6c-1.8-0.8-3.6-1.5-5.4-2.4c-1-0.5-1.9-1.3-2-2.6c-0.1-1.3-0.1-2.7,0.6-3.9c0.3-0.6,0.6-1.4,0.7-2.1
		c0.1-2.7,0.1-5.4,0.1-8.1c0-0.3-0.1-0.5-0.1-0.9c-1,0.1-2,0-2.9,0.2c-3.9,0.9-7.7,1.9-11.6,3c-0.8,0.2-1.5,0.9-2.2,1.3
		c-0.3,0.2-0.5,0.6-0.8,0.6c-1,0.1-1.5,0.9-2.1,1.5c-0.3,0.2-0.6,0.4-0.9,0.6c-0.9,0.6-1.9,1-2.6,1.7c-0.8,0.7-1.2,1.8-1.9,2.6
		c-1.1,1.2-1.6,2.7-1.7,4.1c-0.2,2-0.5,3.9-1,5.8c-0.8,2.8-0.5,5.6-0.4,8.4c0,1.8,0.5,3.4,1.3,5c0.8,1.4,1.3,3,1.9,4.4
		c0.6,1.5,1.1,3,1.7,4.4c0.1,0.2,0.3,0.4,0.6,0.5c1.4,0.7,2.9,0.4,4.3,0.2c3-0.5,5.9-1.7,8.7-2.9c1.7-0.8,3.1,0,4.5,0.8
		c-0.3,0.4-0.6,0.8-0.9,0.8c-2.3,0-4,1.2-5.8,2.4c-0.5,0.3-1,0.7-1.5,1c-2.3,1.3-4.9,0.9-7.3,1.3c-0.3,0-0.7,0.2-0.8,0.4
		c-0.1,0.2,0,0.6,0.2,0.9c0.6,0.9,1.6,1.6,2,2.5c0.5,1.4,0.8,3,0.9,4.5c0.1,3.7,0,7.4,0.1,11.1c0.1,3.2,0.2,6.3,0.4,9.5
		c0.1,0.9,0.5,1.8,0.8,2.7c0.3,0.7,0.9,1.1,1.6,1c1.4-0.1,2.8,0,4.1-0.4c2-0.6,4.1-0.8,6.2-0.8c0.8,0,1.6,0.1,2.1,0.8
		c0.8,1.4,1.5,2.9,2.1,4.3c0.2,0.5,0.4,0.7,1,0.5c1.8-0.4,3.5-0.9,5.3-1.3c2.3-0.5,4.6-0.5,6.9-0.2c0.2,0,0.5,0.3,0.5,0.5
		c0,0.3-0.2,0.5-0.4,0.8c-0.1,0.1-0.4,0.2-0.6,0.2c-1.7,0.7-3.3,1.5-4.2,3.3c-0.4,0.8-1.4,1.4-1.6,2.3c-0.3,1-0.1,2.1-0.1,3.1
		c0,0.1,0.4,0.3,0.6,0.3c0.1,0,0.2-0.2,0.3-0.4c0.6-1.1,1.1-2.2,1.7-3.3c0.3-0.5,0.8-0.8,1.2-0.4c0.2,0.2,0.3,0.8,0.2,1.2
		c-0.4,1.1-0.9,2.1-1.4,3.1c-0.2,0.6-0.3,1.2-0.5,1.9c1,0.2,1.8,0.5,2.6,0.7c1.5,0.3,2.9,1.9,2.7,3.4c-0.4,3,0.8,5.6,1.9,8.1
		c0.2,0.3,0.4,0.7,0.7,0.9c1.7,1.4,3.6,2.3,6,2c1.1-0.1,2.2-0.2,3.2-0.1c2.2,0.2,4-0.4,5.7-1.7c0.5-0.4,1-0.7,1.5-1
		c1.8-1,3.6-1.8,5.3-2.8c2.6-1.5,5.2-3,7.9-4.5c0.6-0.4,1.6-0.2,1.8,0.2c0.3,1.1,0.7,2.2,1,3.3c0.6,2.4,2.4,3.8,4.3,5.1
		c0.5,0.4,1.3,0.7,1.6,1.2c1.4,1.9,2.6,3.9,3.9,5.9c0.4,0.7,0.8,1.4,1.8,1.6c0.3-0.8,0.6-1.7,0.9-2.5c1.3-3.1,2.7-6.2,3.9-9.4
		c2-5.1,5.3-9.6,8-14.3c1-1.7,2.1-3.3,3.2-4.9c2.3-3.4,3.2-7.4,4.6-11.1c1.4-3.6,2.3-7.4,3.6-11c1-2.9,1.5-5.8,1.3-8.8
		c-0.1-1.2-0.4-2.2-1.7-2.7c-0.7-0.3-1.3-0.8-1.9-1.1c-1.4-0.7-2.8-1.5-4.3-2c-2.3-0.7-4.7-1.2-7-1.8c-2.9-0.7-5.6-1.8-8-3.7
		c-0.8-0.6-1.6-1.2-2.5-1.8c-0.2-0.1-0.5-0.2-0.7-0.3c-0.2,1.2-0.3,2.2-0.5,3.3c-0.3,2.2-0.7,4.4-1.1,6.5c-0.1,0.8-0.4,1.5-0.6,2.3
		c-0.3,1-0.8,1.8-1.9,2.1c-0.9,0.2-1.7,0.3-2.6,0.4c-0.3,0-0.6,0-1,0c0.2,0.6,0.3,1.2,0.5,1.7c1.3,2.5,2,5.1,2.5,7.9
		c0.4,2.3-0.1,4.3-0.8,6.4c-0.8,2.1-1.5,4.2-2.8,6c-0.6,0.9-1.1,1.9-1.6,2.9c-1.2,2.1-2.5,4.1-3.7,6.2c-0.5,0.8-0.8,0.9-1.6,0.4
		c-0.8-0.5-0.2-0.9,0-1.3c1.5-2.5,3.2-5,4.7-7.6c0.9-1.6,1.8-3.2,2.5-4.9c0.7-1.8,1.5-3.6,1.7-5.5c0.2-1.8-0.2-3.7-0.7-5.5
		c-0.7-2.5-1.7-4.8-2.6-7.2c-0.3-0.8-0.3-1.5,0.3-2.2c0.6-0.6,1.5-0.6,2.3-0.2c1.7,0.8,3.1,0.5,3.5-1.5c0.4-1.9,0.8-3.9,1.2-5.8
		c0.1-0.3,0.1-0.7,0.1-1c-0.6-0.3-1.2-0.5-1.7-0.7c-0.6-0.2-1.2-0.2-1.8-0.3c-0.3,0-0.6,0.1-0.8,0.2c-0.5,0.3-1,0.7-1.5,0.9
		c-2.2,0.6-3,0.1-3.4-2.1c-0.2-1.4-0.1-2.8-0.1-4.2c0-0.6-0.2-1-0.8-1.3c-0.8-0.4-1.5-0.8-2.3-1.2c-0.8-0.5-1.2-1.2-1.2-2.2
		c0-3.5,1-6.9,1.7-10.2c0.1-0.3,0.4-0.7,0.7-0.9c2.1-1.7,5-0.4,6.2,1.5c0.7,1,1.3,2.1,1.9,3.1c0.6,0.9,0.6,1.2-0.4,2
		c-0.1-0.1-0.3-0.2-0.4-0.3c-0.8-0.9-1.6-1.9-2.3-2.9c-1-1.3-2.8-1.7-3.9-0.6c-0.4,0.4-0.3,1.2-0.5,1.8c0.4,0.1,0.8,0.1,1.1,0.2
		c0.3,0.1,0.7,0,0.9,0.2c0.9,0.9,1.7,1.8,2.5,2.7c0.4,0.4,0.7,1,0.9,1.5c0.2,0.6,0.3,1.3,0.3,2c0,0.1-0.5,0.4-0.8,0.4
		c-0.8-0.1-1-0.7-1.3-1.3c-0.5-1-1-2-1.5-2.9c-0.3-0.6-0.9-0.7-1.5-0.5c-0.8,0.4-1.6,0.9-1.6,2.1c0,0.4,0,0.8-0.1,1.3
		c-0.1,0.7,0.1,1.2,0.9,1.5c0.6,0.2,1.1,0.7,1.7,0.9c1.1,0.6,1.7,1.5,1.8,2.7c0.1,1.2,0,2.4,0.1,3.6c0,0.3,0.2,0.8,0.4,0.9
		c0.3,0.1,0.8-0.1,1-0.3c0.5-0.6,1-1.3,1.2-2c0.4-1.5,0.7-3,1-4.5c0.1-0.4,0.1-0.9,0.6-0.9c0.6,0,0.7,0.4,0.8,0.9
		c0.1,1.9,0.4,3.8-0.5,5.6C109.2,92.1,110.1,92.4,111.1,92.7z M8.7,138.7c0.1,0,0.1,0,0.2,0.1c0.1-0.2,0.3-0.4,0.4-0.7
		c1.5-3,3.1-6,4.6-9c0.3-0.6,0.6-1.2,0.7-1.8c1-4.2,3.2-7.7,5.3-11.3c1-1.8,2-3.5,2.9-5.4c1.1-2.5,2.1-5,3.2-7.5
		c0.5-1.3,1.3-2.6,1.6-4c0.2-0.9,0.5-1.5,1.2-2.1c0.2-0.2,0.5-0.4,0.6-0.6c0.1-0.2,0.2-0.5,0.2-0.7c-0.5-1.3-1-2.5-1.4-3.8
		c-0.2-0.6-0.5-0.8-1.1-0.5c-1.1,0.5-1.4,1.4-1.9,2.4c-1.4,2.4-2.8,4.9-4.4,7.2c-1.5,2.2-2.3,4.6-3.1,7.1c-0.6,2-1.4,3.9-2.2,5.8
		c-1,2.6-2.1,5.1-3.1,7.8c-1.2,3.2-2.2,6.4-3.3,9.6c-0.2,0.6-0.6,1.2-0.6,1.8C8.5,134.9,8.6,136.8,8.7,138.7z M7.2,129.8
		c0.1,0,0.2,0.1,0.3,0.1c0.3-0.5,0.6-1,0.8-1.5c1-2.8,2-5.7,3-8.5c1.2-3.3,2.4-6.5,3.6-9.8c0.4-1.1,0.9-2.2,1.3-3.3
		c0.3-0.9,0.4-1.9,0.8-2.8c0.9-1.9,1.9-3.7,2.8-5.5c0.6-1.1,1.3-2.2,1.8-3.3c1-2.4,2.7-4.4,4.4-6.4c0.8-0.9,0.8-1.6,0.1-2.6
		c-0.2-0.3-0.5-0.5-0.7-0.7c-1.3-1.3-1.4-1.3-2.4,0.3c-2,3-4,6-6,9c-0.2,0.2-0.3,0.5-0.5,0.8c-0.8,1.3-1.6,2.7-2.6,4
		c-1.1,1.5-1.9,2.9-2.1,4.8c-0.1,2-0.3,4-0.9,5.9c-0.7,2.3-1.1,4.7-1.6,7.1c-0.7,3.2-1.4,6.5-2,9.8C7.2,128,7.3,128.9,7.2,129.8z
		 M33.6,112.2c-0.1,0-0.2,0-0.2,0c-0.4,0.9-0.9,1.9-1.3,2.9c-1.7,4.8-3.3,9.6-4.9,14.5c-0.1,0.3,0,0.7,0.2,0.9
		c0.7,0.9,1.6,1.8,2.3,2.7c0.5,0.7,1.1,1.1,2,1.2c1.2,0.2,2.3,0.5,3.5,0.6c0.6,0.1,1.3-0.1,1.9-0.2c-0.1-1.3-0.1-2.3-0.2-3.3
		c0-0.2-0.2-0.5-0.3-0.6c-1.6-0.4-1.9-1.8-2-3.1c-0.3-3.7-0.3-7.4-0.5-11C34,115.3,33.8,113.7,33.6,112.2z M24.6,81.9
		c-0.2-1.3-0.4-2.4-0.7-3.6c-0.2-1.1-0.9-1.6-2-1.5c-1.3,0-1.9,0.6-2.2,1.9c-0.4,2.2-0.7,4.4-1.3,6.5c-0.5,1.8-1.5,3.4-2.2,5.1
		c-0.5,1.3-0.9,2.5-1.4,3.8c0.1,0,0.1,0.1,0.2,0.1c0.3-0.4,0.6-0.7,0.8-1.1c1.1-1.4,2.1-2.9,3.2-4.3c0.3-0.4,0.6-0.9,0.9-1.3
		c0.7-1.3,1.4-2.6,2.1-3.8C22.6,82.6,23.1,81.7,24.6,81.9z M54.1,135.9c1.1,1.5,2.7,0.8,4,0.9c1.9,0.2,2.1-1.7,3.1-2.6
		C58.7,134.1,56.4,134.9,54.1,135.9z"/>
	<path class="st0" d="M49,96.2c-0.5,0.9-0.8,1.8-1.4,2.5c-1.7,1.9-3.7,3.4-6.4,3.3c-0.6,0-1.3,0.1-1.9,0c-0.3-0.1-0.9-0.6-0.9-0.8
		c0.1-0.5,0.5-0.9,0.8-1.3c0.1-0.1,0.3-0.1,0.5-0.1c1.6,0.1,2.9-0.6,4.1-1.5c0.9-0.7,1.8-1.3,2.7-2c0.3-0.2,0.4-0.5,0.7-0.7
		c0.3-0.3,0.7-0.4,1-0.7C48.4,95.3,48.7,95.7,49,96.2z"/>
	<path class="st0" d="M44.3,127.9c-0.9-0.1-1.4-0.5-1.6-1.3c-0.2-0.9,0.2-1.5,0.8-2c0.7-0.5,1.5-0.9,2.2-1.4c1.4-1,3-0.5,4.5-0.5
		c0.2,0,0.5,0.4,0.4,0.5c0,0.3-0.2,0.7-0.4,0.8c-0.6,0.3-1.3,0.5-1.9,0.8c-1,0.5-2,0.9-2.5,2.2C45.8,127.4,44.9,127.6,44.3,127.9z"
		/>
</g>
</svg>
