<?xml version="1.0" encoding="utf-8"?>
<!-- Generator: Adobe Illustrator 19.2.1, SVG Export Plug-In . SVG Version: 6.00 Build 0)  -->
<svg version="1.1" id="Background_copy_2_xA0_Image_1_"
	 xmlns="http://www.w3.org/2000/svg" xmlns:xlink="http://www.w3.org/1999/xlink" x="0px" y="0px" viewBox="0 0 171 187"
	 style="enable-background:new 0 0 171 187;" xml:space="preserve">
<style type="text/css">
	.st0{fill:#512DA8;}
</style>
<g id="icon-shingles">
	<path class="st0" d="M162.4,29.5c-1.1,0.2-2.3,0.3-3.4,0.2c-7.7-0.8-14.8,1.3-21.6,4.6c-6.5,3.1-13,6.1-19.5,9.1
		c-1.9,0.9-3.9,1.8-5.9,2.4c-2,0.7-4,1-6.4,1.6c0.5-3.4,0.4-6.3,3-8.4c0.8-0.6,1.4-1.9,1.4-3c0.1-3,0-5.9-0.1-8.9
		c0-0.7-0.3-1.3-0.4-2c-0.7,0.2-1.3,0.5-2.1,0.8c0-2.4,0.2-4.9,0-7.4c-0.4-4-0.2-8.1-3.5-11.3c-3.2-3.1-6.5-6.3-10.9-7
		c-5-0.8-10.1-0.5-14.6,2.5c-5.9,4-10,9.1-9.3,16.7c0.3,3.3,1,6.6,1.5,9.9c-1.7,0.2-2,1.2-1.5,2.7c0.8,2.8,1.5,5.6,2.5,8.4
		c0.4,1.1,1.3,2.3,2.3,2.8c2.2,1.2,3.4,3.1,4,5.3c1.4,4.6,0.3,6.1-4.4,6.9c-0.6,0.1-1.3,0.2-1.9,0.3c-5.2,0.6-10.4,0.7-14.9,3.8
		c-0.4,0.3-1.1,0.5-1.6,0.5c-5.3,0.2-10,2.7-14.8,4.6c-4.3,1.7-7.7,4.9-10.2,8.8c-1,1.7-2,3-3.8,3.8C14.6,82.2,7.9,92,1.7,102.3
		c-2.2,3.7-2.4,7.6,0.4,11.2c1.3,1.6,2.8,3,4.4,4.3c3.3,2.9,6.9,5.5,10,8.5c5.2,5,11.1,8.6,18,11c4.8,1.7,9.3,4.5,13.9,6.7
		c3.2,1.5,3.8,4.2,4.4,7.4c0.7,3.7,2,7.4,3.8,10.8c0.8,1.6,0.9,2.7,0.6,4.3c-0.5,2.7-1,5.5-1.2,8.2c-0.2,3.5-0.1,7-0.2,10.5
		c0,0.6,0.1,1.2,0.2,1.8c1.1-8.8,0.5-17.7,3.6-26.2c0,0,0.1,0,0.2,0c3.5,1.7,7.1,3.4,10.6,5.2c4.5,2.3,9.1,3.8,14.3,3.5
		c3.8-0.2,4.5-0.9,3.9-4.5c0-0.1,0-0.3,0.1-0.4c5.6-1.7,6.3-2.2,5.4-4.7c0-1.3,0.1-2.5-1.1-3.4c-0.5-0.3-1-0.5-1.6-0.7
		c-0.7-0.2-1.4-0.6-2.1-0.9c0.9-0.3,1.5-0.8,2.2-1.4c0.1-0.1,0.1-0.1,0.2-0.1c-0.1-0.4-0.2-0.8-0.4-1.1c-1.4-1.4-3.1-2.5-4.8-3.3
		c-1.5-0.7-3.3-0.8-4.9-1.3c-3.2-0.9-6.2-2.2-8.4-4.8c-2.1-2.5-4.5-4.4-7.5-5.8c-3.2-1.6-6.3-3.2-9.4-5c-0.6-0.3-1.2-1.1-1.3-1.8
		c-0.3-1.2-0.4-2.5-0.5-3.8c-0.6-5.9-1-11.8-1.7-17.6c-0.3-2.4-0.9-4.7-1.7-7c-0.6-1.8-1.6-3.5-2.3-5.3c-0.5-1.3-1-1.7-2.3-0.9
		c-2.2,1.4-4.5,2.7-6.9,3.8c-1.9,0.9-4,2.3-5.9,2.2c-3.3-0.3-4.8,1.2-6.2,3.6c-0.6,1-1.4,1.3-2.6,1c-1.7-0.3-3.5-0.1-5.2-0.1
		c0,0.2,0,0.4,0,0.6c0.7,0,1.4-0.1,2.1,0c2.6,0.3,5,0.6,6.5,3.4c1.1,2,2.9,3.7,4.6,5.2c6.6,5.5,13.2,11.1,20.2,16.3
		c3.4,2.5,6.8,4.9,10.9,6.4c2.6,0.9,4.9,2.9,7,4.8c2.5,2.3,4.9,4.5,8.3,5.3c2.2,0.5,4.4,1.1,6.6,1.8c1.5,0.6,2.9,1.5,4.3,2.3
		l-0.3,1.1c-1,0-2.1,0.2-3,0c-3.2-0.8-6.4-1.8-9.6-2.5c-1.3-0.3-2.7,0-4,0c0,0.2-0.1,0.5-0.1,0.7c5.5,1.6,10.9,3.1,16.4,4.7
		c0.6,0.3,1.3,0.6,1.9,0.9c0.6,0.3,1.1,0.5,1.1,1.2c0,0.2,0,0.4,0,0.5c-3.8-0.6-7.6-0.7-10.4-2.5c-4.3-2.8-8.8-1.6-13.1-2.5
		c0.6,0.8,1.1,2.1,1.9,2.3c3.1,1.1,6.2,2.1,9.4,2.7c3.8,0.7,7.7,1,11.6,1.5c0.5,0.1,0.9,0.3,1.7,0.6c-0.7,0.6-1.1,1.3-1.5,1.3
		c-3.4,0.3-6.8,0.9-10.1,0.6c-2.9-0.3-5.7-1.6-8.6-2.4c-1.4-0.4-2.8-0.5-4.1-0.8c-0.1,0.2-0.1,0.5-0.2,0.7c4.8,0.8,8.9,4.2,14.2,3.4
		c0.9-0.1,2,0.1,2.9,0.5c0.6,0.3,1.3,1.4,1.1,1.8c-0.3,0.8-1.3,1.9-1.8,1.8c-3.1-0.4-6.3-0.7-9.1-1.8c-4.6-1.8-9-4.1-13.4-6.3
		c-1.6-0.8-3.2-1.7-5-2.7c-0.2,1.1-0.3,2.1-0.4,3.3c-2-2.7-2.2-5.6-2.5-8.5c-0.2-2.5-0.5-5.3-2.8-6.9c-5.8-4-11.9-7.2-18.6-9.5
		c-4.1-1.4-8.2-3.4-11.7-5.9c-5.5-4.1-10.3-9-15.6-13.4C0.8,112-0.5,107,3.3,101C6.2,96.5,9.6,92.2,13,88c4-4.9,9.4-7.9,15-10.6
		c1-0.5,2.1-1.2,2.6-2.1c2.8-5.1,7-8.3,12.4-10.4c5.9-2.4,12.6-2.3,18-6.1c0.2-0.1,0.4-0.1,0.6-0.1c4.1-0.7,8.3-1.2,12.4-2.1
		c5.5-1.2,6.5-2.5,5.9-7.2c-0.2-1.3,0.2-1.9,1.6-2.2c3.4-0.6,6.8-1.5,10.3-2c3.6-0.5,7.2-0.5,10.8-0.7c1.3-0.1,1.8,0.5,1.4,2
		c-0.6,0-1.3,0.3-1.8,0.1c-2.9-1.1-4.6,0.8-6.1,2.7c-2.1,2.6-4,5.5-6.1,8.2c-2.4,3.2-2.5,4-0.2,7.1c-0.2,0.5-0.5,0.9-0.8,1.5
		c-0.3,0.6-0.5,1.1-0.7,1.7c0,0.1,0,0.1,0.1,0.2c0.1,0.2,0.2,0.4,0.3,0.6c0,0,0,0,0,0c0.1,0.1,0.1,0.2,0.1,0.2
		c0.1,0.3,0.2,0.6,0.4,0.9c0.5,0,0.9,0.3,1.3,0.6c0.2,0.2,0.4,0.4,0.6,0.6c0.2,0.1,0.3,0.2,0.5,0.4c0,0,0.1,0,0.1,0
		c0.5,0.2,1,0.5,1.4,0.8c0.1-0.1,0.2-0.1,0.3,0c0.2,0.1,0.3,0.2,0.5,0.3c0-0.2,0.2-0.4,0.4-0.3c0.4,0.2,0.9,0.2,1.4,0.4
		c0-0.2,0-0.4,0.3-0.4c0.8,0.1,1.6,0.1,2.4,0.1c0-0.1,0-0.2,0.2-0.3c0.3-0.1,0.6-0.2,0.9-0.3c0-0.1,0.1-0.2,0.3-0.3
		c0.2,0,0.3,0,0.5,0c0.8-0.5,1.6-0.9,2.4-1.4c0.2-0.1,0.4,0,0.5,0.2c0.1-0.1,0.3-0.2,0.4-0.3c0,0,0.1-0.1,0.1-0.1
		c0.8-0.5,1.5-1.1,2.2-1.7c0.1-0.1,0.2-0.1,0.3-0.1c0.3-0.3,0.7-0.6,1-0.9c1.8-1.6,3.5-3.4,5.4-4.7c1.3-0.9,2.8-1.6,3.9,0.8
		c0.4,0.9,2.3,1.8,3.3,1.6c1.3-0.2,2.3-1.6,2.1-3.3c0-0.5,0.2-1.2,0.6-1.4c3.2-2.1,6.4-4.2,9.6-6.2c3.3-2,6.7-3.7,9.9-5.8
		c3.7-2.4,7.2-5.1,10.8-7.7c0.6-0.5,1.2-0.9,1.9-1.4c-0.1-0.2-0.2-0.3-0.3-0.5c-0.7,0.4-1.5,0.6-2.2,1.1c-4.1,2.9-8.1,6.1-12.4,8.8
		c-3.3,2.1-6.9,4-10.5,5.5c-2.3,1-5.1,1.1-7.5,1.8c-3.2,0.9-3.4,1.5-1.7,4.2c0.8,1.2,1.1,2.5-0.2,3.3c-0.3,0.2-1.6-0.8-2.3-1.5
		c-1-0.9-1.6-2.4-3.3-1.7c-1.5,0.7-3,1.3-4.3,2.3c-3,2.3-5.7,4.9-8.8,7c-1.5,1-2.9,2.7-5.5,2.1c-1.7-0.3-2.8,0.1-4.4-1.5
		c-0.4-0.4-0.7-0.8-0.9-1.1c-0.1,0-0.1,0-0.2-0.1c-0.2-0.2-0.4-0.5-0.3-0.8c0.1-0.2,0.2-0.3,0.4-0.3c0.1-0.4,0.3-0.8,0.6-1.3
		c1-1.7,1.8-3.2-1-4.2c0.7-1.3,1.1-2.5,1.8-3.5c1.5-2.2,3.2-4.3,4.6-6.6c2.5-4.2,4.4-5.1,9.1-4.1c1.2,0.2,2.6,0.3,3.7-0.1
		c5-1.6,10-3.2,14.8-5.3c6-2.6,11.8-5.9,17.8-8.6c3.3-1.5,6.9-2.6,10.5-3.2c3.8-0.7,7.7-0.4,11.2,1.4c0.1,0.1,0.4,0,0.7-0.1
		c-0.4-0.5-0.7-0.8-1.2-1.4c0.8-0.1,1.4-0.3,1.9-0.1c3.8,0.8,6.5,4.8,5.3,8.6c-1.8,5.6-4,11-6.1,16.5c-0.2,0.5-0.5,0.8-0.8,1.3
		c-4.7,8.1-12,13.7-18.8,19.8c-2.7,2.4-4.8,5.2-5.8,8.8c-1.5,5.6-2.8,11.3-4.3,16.9c-0.7,2.9-1.7,5.8-2.3,8.8
		c-0.7,3.2-0.9,6.5-1.6,9.7c-1.7,7.9-3.5,15.8-5.5,23.6c-1.5,6.1-2.6,12.2-1,18.5c1.4,5.8,2.7,11.6,2.8,17.7c0,2,0.8,4.1,1.2,6.1
		c0.2,0,0.4-0.1,0.5-0.1c-0.4-3.5-0.7-6.9-1.1-10.3c-0.5-3.4-0.9-6.9-1.7-10.3c-1.2-4.7-2.2-9.5-1.2-14.3c1.3-6.3,2.9-12.4,4.3-18.7
		c1-4.4,2-8.7,2.9-13.1c1-4.6,1.1-9.5,2.9-13.7c2.5-5.9,3.4-12.2,5-18.2c1-3.8,2.3-7.2,5.1-10c1.6-1.5,3.2-3,4.9-4.4
		c5.9-4.9,11.4-10.2,15-17c1.6-2.9,2.7-6.1,3.8-9.3c1.1-3.1,2.2-6.2,2.7-9.4C171.6,32.6,167.3,28.8,162.4,29.5z M27.2,107.8
		c0.9-1.4,1.6-2.6,2.4-3.6c0.5-0.6,1.4-0.8,2.1-1.1c2.8-0.9,5.7-1.5,8.4-2.6c2.5-1,4.8-2.6,7.1-3.9c6.1,10.8,5.2,22.7,6.6,34.4
		C44,124.4,34.9,117,27.2,107.8z M119.2,57.2c2.8-0.8,5.4-1.5,8-2.2c0.1,0.2,0.2,0.3,0.3,0.5c-2.3,1.3-4.5,2.6-6.9,3.9
		C120.1,58.7,119.8,58.1,119.2,57.2z"/>
	<path class="st0" d="M134.3,88.7c-0.2,0.2-0.3,0.3-0.5,0.5c-0.1-0.3-0.3-0.6-0.7-0.6c-6,0.2-12,1.1-18,1.3
		c-2.9,0.1-5.8,0.1-8.7,0.1c-1.8,0-3.8-0.1-5.4,0.9c0-0.1,0-0.3-0.1-0.4c-1.5,0.6-4,6.3-4.1,8.9c-0.2,0.4-0.1,0.9,0.3,1.3
		c0.5,0.7,1.6,0.7,2.3,0.7c2.1,0.1,4.3-0.2,6.4-0.3c7.8-0.5,15.8-0.5,23.5-1.6c0,0,0,0.1,0,0.1c0.2-0.1,0.4-0.2,0.6-0.3c0,0,0,0,0,0
		c0.4-0.2,0.9-0.4,1-0.7c1.3-3.2,2.4-6.4,3.6-9.6C134.5,89,134.4,88.9,134.3,88.7z M125.7,91.1c-0.8,2.5-1.6,4.9-2.4,7.3
		c-2.3,0.2-4.6,0.4-7,0.6c1.1-2.5,2.1-5,3.2-7.5C121.6,91.3,123.7,91.2,125.7,91.1z M100,100c-0.3,0-0.6,0-0.8,0.1
		c-0.6,0.1-1-0.2-1-1.1c1.4-1.9,2.7-5.2,2.9-7.3c1.4,0.1,2.9,0,4.3-0.1c-1.9,2.2-3.5,6.1-3.3,8.2c0,0-0.1,0-0.1,0
		C101.3,99.9,100.6,100,100,100z M102.8,99.8c1.3-2.8,2.5-5.6,3.7-8.3c0.4,0,0.8,0,1.2,0c1.5,0,3,0,4.6,0c-1.6,1.7-3.4,5.6-3.6,7.9
		c-0.9,0.1-1.8,0.1-2.7,0.2C104.9,99.7,103.9,99.8,102.8,99.8z M109.7,99.4c1.1-2.5,2.1-5.1,3.3-7.8c1.2,0,2.4,0,3.6-0.1
		c0.7,0,1.4,0,2.1-0.1c-1.6,1.8-3,5.4-2.9,7.6c-0.6,0.1-1.3,0.1-1.9,0.1C112.4,99.2,111.1,99.3,109.7,99.4z M132.8,90.3
		c-1.2,2.5-2.3,5-3.3,7.6c0,0.1,0,0.1,0,0.2c-1.6,0-3.3,0-4.9,0.1c0.9-2.4,1.8-4.8,2.6-7.3c2-0.2,3.9-0.4,5.8-0.8
		C132.9,90.2,132.8,90.3,132.8,90.3z"/>
	<path class="st0" d="M120.9,145L120.9,145c-1.2-1-3.2-1.2-5.2-1.1c-0.1,0-0.2,0-0.2-0.1c0,0,0,0.1,0,0.1c-1.5,0.1-3,0.3-4,0.5
		c-0.4,0.1-0.8,0.1-1.3,0.2c0,0,0-0.1,0-0.1c-0.3-0.1-0.5-0.1-0.8-0.2c0,0.2-0.1,0.3-0.1,0.5c-1.6,0.3-3.1,0.5-4.7,0.5
		c-0.1,0-0.1,0-0.2,0c-0.2-0.1-0.4-0.1-0.6-0.2l-0.1,0.2c-1.5-0.1-3.1-0.3-4.6,0c0,0,0-0.1,0-0.1c-0.3-0.1-0.5-0.2-0.8-0.2
		c-1,3.3-2,6.6-3.1,10.3c0.1,0,0.1-0.1,0.2-0.1c0,0.1,0.1,0.2,0.1,0.3c0.7,1.2,3.5,1.1,4.7,1.2c2.6,0.2,5.2,0,7.9-0.2
		c1.3-0.1,2.7-0.3,4-0.4c0,0.1,0,0.1,0,0.2c0-0.1,0.1-0.1,0.1-0.2c0,0,0.1,0,0.1,0c0.4,0,4.4-0.7,4.6-0.4c0.1,0.2,0.3,0.3,0.4,0.3
		c0,0.1-0.1,0.2-0.1,0.3c0.3,0.1,0.6,0.2,0.9,0.3c1.2-3.7,2.3-7.4,3.5-11.2C121.4,145.2,121.1,145.1,120.9,145z M96.4,153.8
		c1.3-2,2.6-5.9,2.7-7.9c1.4,0,2.7,0.4,4.1,0.6c-1,2.9-2,5.8-3,8.7C98.4,155.2,96.3,154.9,96.4,153.8z M101.4,155.2
		c0.9-2.9,1.9-5.8,2.8-8.7c1.4,0.1,2.7-0.1,4.1-0.2c0.2,0,0.4-0.1,0.6-0.1l-2.5,8.8c-1.1,0.1-2.2,0.1-3.3,0.2
		C102.7,155.2,102.1,155.2,101.4,155.2z M109.5,154.8c-0.7,0.1-1.4,0.1-2.1,0.2c0.8-3,1.6-5.9,2.4-8.9c1.5-0.2,3-0.5,4.5-0.6
		c0.2,0,0.4,0,0.7,0c-0.8,3-1.6,6-2.5,9C111.5,154.5,110.5,154.7,109.5,154.8z M117.8,154.4c-0.5-0.4-1.1-0.3-1.8-0.3
		c-0.9,0.1-1.9,0.1-2.8,0.2c1.5-2.8,1.9-5.9,2.6-8.9c1.4,0,3.1,0,4,0.7c0.1,0.2,0.3,0.4,0.6,0.4L117.8,154.4z"/>
	<path class="st0" d="M84.7,55.8c-0.1,0.2-0.2,0.3-0.3,0.5c-0.1-0.1-0.3-0.1-0.5-0.1c-3.9,0.9-7.6,2.3-11.5,3.1
		c-3.2,0.7-6.5,1.4-9.7,2.1c0,0,0,0,0,0c0,0,0,0,0,0c-0.5,0.1-1,0.2-1.5,0.3c-7.3,1.8-14.6,3.9-21.3,7.2c-0.1,0-0.1-0.1-0.2-0.1
		c-1.4,0.6-2.9,2.8-3.2,4.7c-0.7,0.9,0.1,2.5,1.5,2.6c1.5,0.2,3.3-0.8,4.7-1.2c2.3-0.7,4.7-1.2,7.1-1.6c5.1-0.8,10.2-1,15.4-1.4
		c0,0.1,0.1,0.3,0.1,0.4c0-0.1,0.1-0.3,0.2-0.4c4.3-0.3,8.6-0.7,12.8-1.6c0.5-0.1,0.7-0.7,0.5-1.2c2.1-4.1,4.2-8.2,6.3-12.2
		C85,56.8,84.8,56.2,84.7,55.8z M62.9,62.9c2.2-0.5,4.4-0.9,6.6-1.3C69.2,62,69,62.5,68.8,63c-1.5,2-3,5.1-3.5,7.2
		c-1.9,0.2-3.9,0.4-5.8,0.6C61.2,69.1,62.8,65.3,62.9,62.9z M40.4,74.2c-0.3,0.1-0.6,0.2-0.9,0.3c-0.8,0.5-1.5,0.3-2-0.7
		c0.2-0.1,0.2-0.3,0.1-0.5c0.8-1.2,1.5-2.3,2.3-3.4c0,0,0.1,0,0.1,0c1.8-0.6,3.6-1.2,5.4-1.8c-0.9,1.7-1.6,3.5-2.5,5.3
		C42.1,73.6,41.2,73.9,40.4,74.2z M48,72.3c-1.3,0.2-2.6,0.5-3.9,0.9c1.4-0.8,3-3.2,3.8-5.9c1.9-0.7,3.9-1.3,5.9-1.9
		c-1.4,1.9-2.8,4.6-3.3,6.5C49.6,72,48.8,72.1,48,72.3z M52.3,71.6c1.5-1.8,3.1-4.7,3.5-6.9c2.1-0.6,4.1-1.1,6.2-1.6
		c-1.2,2.7-2.3,5.2-3.3,7.8c-0.5,0-0.9,0.1-1.4,0.1C55.6,71.2,53.9,71.4,52.3,71.6z M69.6,63.6C69.6,63.6,69.6,63.6,69.6,63.6
		c0-0.1,0.1-0.1,0.1-0.2c0.1-0.2,0.1-0.5,0.2-0.7c0.1-0.3,0.2-0.6,0.3-1c0-0.1,0-0.2-0.1-0.3c0,0,0,0,0,0c2-0.4,4-0.8,6-1.3
		c-1.5,2.7-3,5.5-4.4,8.3c-0.2,0.3-0.3,0.7-0.4,1.1c-1.6,0.2-3.3,0.3-4.9,0.5C67.4,68,68.8,66,69.6,63.6z M78,68.9
		C78,68.9,78,68.9,78,68.9c-1.8,0.2-3.6,0.3-5.3,0.5c0-0.1,0.1-0.1,0.1-0.2c1.7-3,3.4-6.1,5-9.2c0.1-0.1,0.1-0.2,0.1-0.4
		c1.8-0.5,3.5-1,5.2-1.7C79.5,63.4,77.9,67,78,68.9z"/>
</g>
</svg>
