<?xml version="1.0" encoding="utf-8"?>
<!-- Generator: Adobe Illustrator 19.2.1, SVG Export Plug-In . SVG Version: 6.00 Build 0)  -->
<svg version="1.1" id="Layer_1" xmlns="http://www.w3.org/2000/svg" xmlns:xlink="http://www.w3.org/1999/xlink" x="0px" y="0px"
	 viewBox="0 0 91.2 152.9" style="enable-background:new 0 0 91.2 152.9;" xml:space="preserve">
<style type="text/css">
	.st0{fill:#388E3C;}
</style>
<g id="icon-stomachache">
	<path class="st0" d="M1.4,36c0.5,1.2,1.1,2.3,1.8,3.4c0.5,0.8,1.2,1.6,1.9,2.3c1.4,1.5,2.9,3,4.4,4.4c0.5,0.5,1.3,0.9,1.9,1.3
		c0.5,0.3,1,0.5,1.5,0.8c1.2,0.6,2.4,1.3,3.7,1.8c0.8,0.3,1.7,0.5,2.5-0.3c0.7-0.7,0.3-1.4,0.2-2.1c0-0.2,0-0.3,0-0.5
		c0.1,0,0.2,0,0.3-0.1c0.4,0.7,0.8,1.4,1.2,2.1c0.3,0.6,0.7,1.1,1.4,1.5c0.2,0.1,0.3,0.2,0.4,0.4c0.3,0.8,0.6,1,1.5,1
		c0.5,0,1,0.2,1.2,0.6c0.3,0.4,0.6,0.8,0.7,1.2c0.4,1.1,1.1,1.9,2.1,2.4c1,0.5,1,0.6,0.3,1.4c-0.9,1.1-2,2.1-2.3,3.5
		c-0.2,0.8-0.4,1.7-0.6,2.6c-0.5,2-0.7,4-0.7,6.1c0,0.3,0,0.7-0.1,0.9c-0.5,1.5-0.7,3-0.7,4.6c0,0.9-0.1,1.8-0.4,2.6
		c-0.9,2.9-1.9,5.8-2.9,8.7c-0.8,2.3-1.1,4.6-0.4,6.9c0.6,2.3,1.7,4.3,3.5,5.9c0.3,0.3,0.7,0.6,0.9,1.1c0.2,0.6,0.2,1.3,0.3,2
		c0.1,2.3-0.1,4.5-0.4,6.8c-0.2,1.8-0.4,3.6-0.7,5.4c-0.2,1.1-0.5,2.1-0.6,3.1c-0.1,1.8-0.1,3.6-0.1,5.3c0,0.2,0,0.4,0.1,0.7
		c0.4,2.2,1.1,4.3,2.2,6.2c0.7,1.2,1.6,2.3,2.4,3.5c0.4,0.5,1,0.9,1.3,1.5c0.9,1.6,1.7,3.3,2.6,4.9c0.7,1.3,1.1,2.7,1,4.2
		c-0.1,2.3-0.1,4.3-0.3,6.6c0,0.4-0.1,0.9-0.1,1.4c0,0.1-0.1,0.1-0.1,0.2c-0.1,0.3-0.2,0.6-0.2,1h59.2c-0.2-0.4-0.3-0.8-0.5-1.2
		c0-0.3-0.1-0.6-0.1-0.8c-0.1-1.4-0.3-2.8-0.4-4.2c0-0.5-0.1-1-0.1-1.5c-0.3-1.9-0.5-3.7-0.8-5.5c-0.4-2.5-0.8-4.9-1.3-7.3
		c-0.2-0.9-0.3-1.7-0.5-2.6c0-1.7-0.1-3.3-0.4-4.9c-0.1-0.6-0.2-1.3-0.2-1.9c-0.1-0.7-0.2-1.3-0.3-2c-0.1-1.3-0.2-2.6-0.4-3.9
		c-0.1-1.2-0.3-2.3-0.5-3.5c-0.2-1.4-0.3-2.9-0.4-4.3c-0.1-1.4-0.3-2.8-0.4-4.2c-0.1-1,0-2-0.2-2.9c-0.4-2-0.8-4-1.4-6
		c-0.5-1.7-1.1-3.2-1.6-4.9c-0.3-0.9-0.4-1.7-0.6-2.6c-0.2-1.1-0.3-2.2-0.4-3.4c-0.3-2.2-0.8-4.5-1-6.7c-0.2-2-0.4-3.9-1-5.9
		c-0.7-2.2-1.1-4.4-1.7-6.6c-0.5-1.8-1-3.5-1.6-5.2c-0.7-1.9-1.6-3.8-2.3-5.7c-0.1-0.3-0.2-0.7-0.3-1c-0.5-1.2-0.8-2.4-1.5-3.4
		c-0.8-1.2-1.3-2.6-2-3.9c-0.8-1.5-1.7-2.8-2.9-4C65.5,42,64.6,41,63.9,40c-0.9-1.4-1.6-2.9-2.4-4.4c-0.2-0.3-0.3-0.7-0.5-1
		c-1.3-2.2-2.7-4.3-3.9-6.5c-1.9-3.4-3.2-7-5.2-10.3c-0.7-1.2-1.4-2.4-2.5-3.3c-2-1.5-3.5-3.4-5.1-5.2c-0.8-0.9-1.5-1.9-2.5-2.6
		c-2-1.5-4.2-2.6-6.1-4.3c-1.4-1.2-3.2-1.4-4.9-2C29.5,0,28.1-0.1,26.8,0c-1.5,0.1-2.9,0.4-4.4,0.6c-2.5,0.3-4.7,1.4-6.6,3.1
		c-1.8,1.6-2.9,3.8-4.4,5.6c-0.2,0.3-0.5,0.5-0.8,0.6c-1.7,0.8-3.2,1.8-4.5,3.3c-1.3,1.6-2.4,3.3-3.1,5.3c-0.4,1.4-1.2,2.7-1.8,4.1
		C0.5,24.5,0,26.4,0,28.4c0,1.4-0.1,2.9,0.1,4.3C0.4,33.9,0.9,34.9,1.4,36z M12.7,39.1c-0.4-0.5-0.7-1-1-1.5c-0.3-0.4,0-0.6,0.4-0.7
		c0.3-0.1,0.7-0.1,1-0.1c0.8,0,1.1,0.4,1.3,1.4c-0.4,0.3-0.7,0.6-1.1,0.8C13.1,39.2,12.8,39.2,12.7,39.1z M14.8,40.9
		c-0.1,0.1-0.4,0-0.5,0c-0.2-0.1-0.5-0.3-0.6-0.6c-0.1-0.1,0-0.4,0-0.5c0.3-0.2,0.6-0.4,0.9-0.6c0.1,0.2,0.2,0.3,0.2,0.5
		c0.1,0.2,0.1,0.5,0.1,0.8C15,40.7,14.9,40.9,14.8,40.9z M23.6,50.5c-0.4-0.1-0.4-0.3-0.2-0.5c0.5-0.6,1.1-1.1,1.7-1.6
		c0.1,0.2,0.2,0.2,0.3,0.3C25.5,49.3,24.2,50.6,23.6,50.5z M25.4,71.4c0.5-1,0.3-2.1,0.5-3.2c0.2-1.3,0.3-2.7,0.5-4
		c0.1-0.8,0.3-1.7,0.5-2.5c0.4-1.4,1.4-2.4,2.3-3.6c0.6-0.8,1.3-1.4,2.3-1.7c1.3-0.4,2-1.5,2.9-2.4c0.5-0.5,1-1,1.5-1.5
		c0.1,0.1,0.2,0.1,0.2,0.2c-0.1,0.2-0.2,0.5-0.4,0.7c-1.2,1.4-2.4,2.8-3.5,4.2c-0.3,0.4-0.5,0.8-0.7,1.3c-1,2.4-1.9,4.9-2.9,7.3
		c-0.8,1.9-1.8,3.7-2.7,5.5c-0.1,0.2-0.2,0.5-0.3,0.8c-0.1,0.3-0.3,0.5-0.5,0.8c-0.1,0-0.2-0.1-0.3-0.1C25,72.6,25.1,72,25.4,71.4z
		 M59.2,151.1c-0.5,0.2-0.9,0.3-1.4,0.5c-0.1,0-0.1-0.1-0.2-0.1c0.2-0.4,0.3-0.9,0.6-1.1c0.2-0.2,0.7,0,1.1,0c0.1,0,0.3,0.3,0.3,0.4
		C59.6,150.9,59.4,151,59.2,151.1z M59.2,147.7c-1.6,0.2-3.3,0.4-4.9,0.4c-2.2-0.1-4.4,0.1-6.5-0.4c-0.2,0-0.6,0.2-0.7,0.4
		c-0.1,0.4,0.2,0.5,0.5,0.6c0.9,0.1,1.8,0.2,2.6,0.4c0.2,0,0.4,0.1,0.5,0.2c1.4,1,3,1,4.5,1c0.6,0,1.1,0,1.7,0
		c-0.1,0.7-0.2,1.2-0.2,1.7c-0.8,0.3-1.6,0.6-2.4,0.7c-0.3,0-0.7,0-1.1,0c-0.5,0-1-0.1-1.5-0.3c-0.5-0.2-1-0.2-1.5-0.2
		c-1.1-0.1-2.1-0.6-3.1-1c-2.9-1.3-5.8-2.6-8.3-4.5c-1.3-1-2.9-1.9-3.7-3.5c-0.2-0.5-0.7-0.8-1-1.2c-1-1.1-1.6-2.4-2.2-3.8
		c-0.2-0.6-0.5-1.1-0.8-1.6c-0.4-0.7-0.8-1.4-1.2-2c-0.2-0.3-0.3-0.5-0.6-0.7c-1-0.8-1.9-1.8-2.5-2.9c-1.4-2.3-2.5-4.8-2.7-7.5
		c-0.2-2.4-0.1-4.7,0.4-7.1c0.5-2.3,0.8-4.6,0.9-6.9c0.2-2.1,0.6-4.2,0.5-6.3c0-0.4-0.1-0.8-0.1-1.4c0.3,0.3,0.5,0.5,0.6,0.8
		c0.8,1,1.5,2.1,2.3,3.1c0.2,0.3,0.2,0.6,0,0.9c-0.3,0.4-0.5,0.9-0.8,1.3c-1.1,1.6-1.4,3.5-1.2,5.4c0.1,1.8,0.1,3.7,0.1,5.5
		c0.1,2.2,0.9,4.2,2.6,5.7c0.2,0.2,0.4,0.5,0.6,0.7c0.9,1.2,1.9,2.1,3.3,2.4c0.8,0.2,1.7,0.3,2.6,0.4c0.4,0,0.6,0.3,0.7,0.6
		c0.3,1.1,0.7,2.1,1.1,3.1c0,0.1,0,0.2,0,0.3c-0.5-0.1-1-0.2-1.5-0.2c-0.4,0-0.6-0.2-0.7-0.6c-0.1-0.2-0.4-0.3-0.6-0.5
		c-0.1,0.2-0.4,0.4-0.4,0.6c-0.1,0.5,0.6,1.2,1.2,1.3c0.6,0.1,1.1,0.3,1.7,0.3c0.4,0,0.8-0.1,1.2-0.3c1.6-0.7,3.3-1.5,4.9-2.3
		c0.3-0.1,0.6-0.1,0.9-0.2c0.2-0.1,0.4-0.2,0.7-0.4c0-0.1,0-0.1,0-0.2c3.1,0.7,6.2,1.4,9.3,2.2c-0.2,1.1,0,2.2,1.1,3
		c-0.3,0-0.5,0.1-0.6,0.1c-0.6,0-1.2,0.1-1.8,0.1c-0.1,0-0.3,0-0.4-0.1c-0.4-0.2-0.7-0.5-1.1-0.6c-1.8-0.6-3.6-1.1-5.4-1.6
		c-0.4-0.1-0.8-0.2-1.3-0.2c-0.2,0-0.4,0.2-0.5,0.3c0,0.1,0.1,0.4,0.3,0.5c0.7,0.5,1.5,0.9,2.1,1.5c0.7,0.7,1.5,1,2.5,1.1
		c1.4,0.2,2.7,0.2,4-0.1c0.4-0.1,0.8,0,1.2-0.1c2.6-0.1,5.1-0.6,7.6-1.3c0.1,0,0.2-0.1,0.3-0.1c0.3,0,0.6-0.1,0.9-0.1
		c0.1,0.8,0.1,1.5,0.2,2.2c-1.9,0.7-3.8,1.4-5.8,2c-0.9,0.3-1.9,0.6-2.9,0.9c-0.6,0.1-1.3,0.1-1.9,0.2c-0.7,0-1.3,0-2,0.1
		c-0.2,0-0.4,0.2-0.5,0.4c0.1,0.2,0.2,0.5,0.4,0.5c0.7,0.1,1.4,0.1,2,0.1c1.6-0.1,3.3-0.1,4.9-0.2c0.8,0,1.6-0.1,2.3-0.3
		c1.1-0.2,2.1-0.5,3.2-0.8c0.3-0.1,0.6-0.1,0.8-0.1c0.2,0.5,0.4,1,0.7,1.6c-1.7,0.8-3.3,1.7-5,2.4c-0.6,0.3-1.3,0.3-2,0.4
		c-1,0.1-2.1,0.2-3.1,0.3c-0.1,0-0.3,0-0.4,0.1c-0.4,0.6-1,0.3-1.6,0.3c-1.3,0-2.6,0.1-3.8,0.1c-0.2,0-0.3,0-0.5,0
		c-0.4-0.1-0.7-0.1-0.7,0.4c0,0.5,0.3,0.6,0.7,0.6c0.4,0,0.8-0.1,1.3-0.1c1.6,0,3.1,0,4.7,0.1c2.5,0.2,5,0,7.4-1
		c0.2-0.1,0.3-0.1,0.4-0.1c0.2,0.7,0.3,1.4,0.5,2.1C61.7,147,60.5,147.5,59.2,147.7z M37.4,127.7c2.3,0.3,4.5,0,6.3,1.4
		c-1.6,0.8-3.2,1.6-5,2.4C38.3,130.2,37.9,129,37.4,127.7z M55.3,132.4c0.1-0.2,0.4-0.6,0.6-0.6c0.8,0.1,1.6,0.3,2.4,0.4
		c0.2,0,0.2,0.3,0.3,0.4c0,0.2,0,0.4-0.1,0.5c-0.3,0.4-0.7,0.8-1.1,1.1c-0.4,0.3-0.9,0.4-1.2-0.1C55.8,133.6,55.1,133.2,55.3,132.4z
		 M64.4,134.8c-0.1-0.5,0.3-0.7,0.7-0.7c0.2,0,0.5,0.1,0.6,0.3c0.2,0.3,0.5,0.7,0.1,1c-0.3,0.3-0.6,0.5-0.8,0.8l-0.3,0
		C64.5,135.7,64.4,135.3,64.4,134.8z M64.6,145.2c-0.3,0.1-0.5,0.3-0.8,0.5c-0.5-0.5-0.7-0.9-0.4-1.5c0.2-0.5,0.6-0.6,1-0.6
		c0.2,0.1,0.5,0.4,0.6,0.7C65.1,144.7,64.9,145,64.6,145.2z M67.1,139.4c-0.2,0.1-0.4,0.3-0.6,0.4c-0.4,0.5-0.8,0.3-1.1-0.1
		c-0.4-0.4-0.2-0.8,0.1-1c0.3-0.2,0.7-0.4,1.1-0.6c0.3,0.2,0.6,0.3,0.7,0.5C67.5,138.9,67.4,139.2,67.1,139.4z M62.9,49.8
		c0.1-0.1,0.2-0.2,0.3-0.3c0.1-0.1,0.1-0.1,0.2-0.1c0.1-0.1,0.2-0.2,0.2-0.3c0.4,0.6,1,1.2,1.6,1.6c-1.2-0.3-2.4-0.2-3.5,0
		C62.1,50.4,62.5,50.1,62.9,49.8z M64.6,51.4c0.4,0,0.9,0.3,1.3,0.4c1.1,0.3,2.2,0.6,3.3,0.8c1.3,0.3,2.2,1,2.7,2.3
		c0.7,1.8,1.5,3.6,2.2,5.4c0.2,0.5,0.3,1.1,0.5,1.7c0.7,2.3,1.5,4.7,2.2,7c0.4,1.3,0.5,2.6,0.9,3.8c0.6,1.5,0.6,3.1,0.8,4.7
		c0,0.1,0,0.2,0,0.2c-0.6,0.6-0.4,1.5-0.8,2.2c-0.6,1.2-1.3,2.4-2,3.6l-0.1-0.1c-0.2-0.9-0.3-1.8-0.5-2.7c-0.7-2.3-0.6-4.7-0.6-7
		c0-0.2,0.1-0.4,0-0.5c-0.2-0.2-0.4-0.4-0.6-0.5c-0.2,0.2-0.4,0.4-0.4,0.6c0,2.9,0.1,5.9,0.9,8.7c0.4,1.6,0.3,3.3,0.5,4.9
		c0.1,1.2,0.2,2.4,0.3,3.6c0.2,2.4,0.4,4.9,0.6,7.3c0.1,2.9,0,5.9,0.3,8.8c0.5,4.9,0.5,9.8,0.7,14.7c0,1.6-0.4,3.1-1.4,4.4
		c-0.7,0.8-1.2,1.8-2.1,2.4c-0.4,0.3-0.8,0.4-1.4,0.2c-0.5-0.2-1.2,0-1.8,0.1c-1.7,0.3-3.3,0.5-4.9,0.8c-0.8,0.2-1.5,0.5-2.3,0.8
		c-1.9,0.7-3.9,1.2-5.9,0.9c-1.7-0.2-3.4-0.3-5-0.9c-1.4-0.5-2.8-0.6-4.2-0.9c-1.6-0.3-3.2-0.7-4.6-1.5c-0.5-0.3-1.2-0.4-1.8-0.5
		c-1.3-0.2-2.6-0.2-3.9-0.3c-0.9-0.1-1.7-0.3-2.6-0.5c-0.1,0-0.3-0.1-0.4-0.1c-1.4,0.2-2.3-0.7-3.1-1.6c-0.4-0.5-0.9-1-1.3-1.4
		c-0.9-0.9-1.4-2-1.7-3.2c-0.2-0.7-0.2-1.5-0.3-2.3c-0.1-2.2-0.1-4.4-0.1-6.6c0-0.7,0.3-1.4,0.5-2.1c0.3-0.7,0.7-1.3,1.1-2
		c0.4,0.5,0.8,1,1.1,1.4c0.9,1,1.7,2,2.6,2.9c0.6,0.7,1.3,1.3,2,2c0.1,0.2,0.2,0.4,0.2,0.6c0,0.6-0.1,1.2-0.1,1.9
		c-0.3-0.1-0.6-0.2-0.9-0.3c-0.7-0.3-1.4-0.7-2.2-1.1c-0.3-0.2-0.7-0.3-0.9,0.1c-0.3,0.4,0.1,0.7,0.3,0.8c1.5,0.6,2.8,1.5,4.5,1.5
		c1.3,0,2.6,0,3.8,0c1.9,0,3.7-0.2,5.5-0.6c1.3-0.3,2.7-0.6,4.1-0.5c3.1,0.1,6.1-0.5,9.1-1.4c0.5-0.2,1-0.3,1.5-0.3
		c1.5,0,2.4,1,3.3,2c0.3,0.3,0.4,0.9,1,0.5c0.4-0.2,0.3-0.6-0.3-1.2c-0.7-0.6-1.3-1.2-2.1-1.8c-0.4-0.3-0.9-0.4-1.3-0.5
		c-0.3-0.1-0.6-0.2-0.6-0.6c-0.2-1.4-0.6-2.8-0.8-4.3c-0.5-2.7-1.6-5.3-2.4-7.9c-0.3-0.9-0.3-1.8-0.4-2.7c-0.2-1.1-0.5-2.2-0.8-3.3
		c-0.1-0.4-0.2-0.8-0.2-1.2c0.1-1.9-0.4-3.6-0.6-5.5c-0.2-1.8-0.4-3.6-0.7-5.5c-0.3-2.3-0.7-4.7-1.1-7c-0.1-0.4-0.1-0.9-0.2-1.2
		c-0.1-0.2-0.4-0.3-0.6-0.4c-0.1,0.2-0.3,0.5-0.3,0.7c0.3,1.8,0.6,3.6,0.8,5.4c0.1,0.7,0.2,1.5,0.3,2.3c-0.2-0.2-0.4-0.4-0.5-0.7
		c-0.8-1.8-2.1-3.4-2.2-5.4c-0.1-1.6,0-3.2-0.1-4.8c-0.1-2.8,0.3-5.6,0.8-8.3c0.3-1.5,0.9-3,1.2-4.5c0.3-1.1,0.9-2,1.7-2.9
		c0.8-0.9,1.9-1.2,2.9-1.7c0.5-0.2,1-0.6,1.5-0.8c1-0.5,1.9-1,3-1.3C62.4,51.3,63.5,51.4,64.6,51.4z M60,47.2c0.3,0,0.6,0.1,1,0.1
		c-0.9,0.4-1.7,0.9-2.4,1.6c-0.8,0.8-0.3,2.3,0.7,2.6c-0.6,0.3-1.2,0.6-1.8,0.9c-0.9,0.4-1.7,0.8-2.6,1.2c-1.8,1-3.1,2.4-3.5,4.6
		c-0.3,1.5-0.9,3-1.2,4.5c-0.3,1.5-0.6,3.1-0.7,4.6c-0.1,2.6-0.2,5.2-0.1,7.8c0,1.4,0.3,2.8,1.1,4.1c0.8,1.2,1.2,2.7,2.1,3.8
		c1,1.2,1,2.6,1.3,4c0.2,1,0.3,2,0.4,3c0.1,1,0.2,2,0.4,3c0.2,1.2,0.4,2.3,0.6,3.4c0.1,0.9,0.2,1.8,0.4,2.7c0.2,0.9,0.4,1.7,0.7,2.5
		c0.5,1.7,1.1,3.5,1.6,5.2c0.4,1.5,0.8,3,1.1,4.5c0.3,1.3,0.3,1.6-1.2,2c-1.6,0.5-3.3,0.9-5,1.2c-0.9,0.2-1.9,0-2.8,0.1
		c-1.1,0.1-2.2,0.2-3.4,0.3c0.4-0.5,0.8-0.9,1.1-1.4c1-1.7,1.9-3.4,2.9-5.2c0.2-0.3,0.3-0.7,0.5-1c0.2-0.3,0.3-0.6-0.1-0.8
		c-0.2-0.1-0.6,0-0.8,0.2c-0.3,0.3-0.4,0.7-0.6,1c-1.1,2.4-2.3,4.8-4.2,6.7c-0.7,0.7-1.6,1.1-2.6,1.2c-1.9,0.1-3.9,0.1-5.8,0.1
		c-0.4,0-0.7-0.2-1.1-0.3c0-0.6,0-1.2,0-1.8c0-0.5-0.2-0.9-0.6-1.3c-1.3-1.2-2.6-2.5-3.8-3.7c-0.5-0.5-1-1.2-1.4-1.8
		c-0.4-0.7-0.7-1.5-1.1-2.2c-1-1.7-2.2-3.2-3.6-4.5c-1.6-1.6-3.1-3.1-4.1-5.1c-1.2-2.4-1.4-4.8-0.4-7.4c1.2-3.2,2.2-6.5,3.3-9.7
		c0.7-2,1.2-4,2.3-5.8c1.7-2.9,2.9-6,4.1-9.2c0.6-1.6,1.4-3.2,2.2-4.8c0.6-1.1,1.4-2,2.2-3c0.2-0.3,0.3-0.5,0.5-0.8
		c0.1-0.1,0.3-0.3,0.5-0.3c0.1,0,0.3,0.2,0.4,0.3c0.2,0.3,0.4,0.7,0.6,1c0.2,0.4,0.2,0.8-0.1,1.1c-0.7,0.8-1.3,1.5-2.1,2.2
		c-0.5,0.5-0.7,1-0.9,1.7c-0.1,0.5-0.2,1-0.5,1.5c-1,1.7-1.7,3.5-2.3,5.3c-0.6,1.7-1.5,3.4-2.2,5.1c-1.3,2.7-2.6,5.4-3.8,8.1
		c-0.4,0.9-0.7,1.8-0.9,2.7c-0.2,1.2,0,1.9,1.1,2.2c0.8,0.3,1.5,0.4,2.3,0.6c1.2,0.2,2.1-0.4,3-0.9c1-0.6,1.9-1.3,2.8-2.1
		c0.5-0.5,0.9-1,1.4-1.6c2.1-2.5,4.2-5,5.7-8c1.2-2.4,2.3-4.9,3.3-7.4c1-2.5,2.2-4.9,4-7c1-1.2,1.8-2.5,2.7-3.7
		c1.4-1.8,2.9-3.6,4.5-5.3c0.9-0.9,2-1.7,3-2.4C58.6,47.1,59.4,47.2,60,47.2z M9.1,25.1c1.6-1.2,2.8-2.8,3-4.9
		c0.1-1,0.2-2.1,0.2-3.2c0-0.3-0.1-0.5-0.1-0.8c0.1-0.3,0.2-0.7,0.4-0.8c0.2-0.1,0.7,0.1,0.8,0.3c0.2,0.5,0.2,1.1,0.2,1.6
		c0,0.9-0.1,1.8-0.2,2.7c-0.1,0.8-0.1,1.7-0.1,2.5c0,0.3,0.2,0.6,0.4,0.8c0.7,0.6,1.6,0.6,2.5,0.5c2.2-0.3,3.9,0.6,5.6,1.7
		c0.5,0.3,1,0.5,1.5,0.7c1.1,0.4,2.1,0.9,2.9,1.8c0.9,1,2.1,1.6,3.3,2.2c1.8,0.9,3.6,1.8,5.4,2.7c0.7,0.4,1.4,1,2.1,1.5
		c1.4,0.9,2.9,1.9,4.3,2.8c0.2,0.2,0.5,0.4,0.7,0.6c1.5,1.6,3.1,3,5.1,4c1.4,0.7,2.8,1.6,4.2,2.5c1.6,1.1,3.3,1.9,5.2,2.3
		c0.2,0,0.4,0.2,0.7,0.3c-0.5,0.5-1,0.9-1.5,1.3c-1.6,1.1-2.8,2.6-4,4.2c-0.8,1.1-1.7,2.2-2.5,3.3c-0.5,0.6-0.9,1.3-1.4,2
		c-0.8,1.1-1.6,2.1-2.5,3.2c-1.1,1.3-1.5,3-2.2,4.6c-0.8,1.8-1.5,3.6-2.3,5.3c-0.8,1.7-1.7,3.4-2.8,5c-1.1,1.6-2.4,3.2-3.6,4.7
		c-0.8,0.9-1.6,1.9-2.6,2.7c-1,0.7-2.1,1.4-3.3,1.8c-1,0.3-2.2,0-3-0.8c-0.3-0.2-0.2-1-0.1-1.5c0.2-1.4,0.9-2.7,1.6-3.9
		c0.5-0.8,0.7-1.7,1.2-2.5c0.4-0.9,0.9-1.7,1.3-2.6c0.9-2,1.9-3.9,2.7-6c0.7-1.9,1.4-3.8,2.4-5.5c0.3-0.4,0.3-0.9,0.5-1.4
		c0.2-0.5,0.4-1.1,0.7-1.5c0.7-0.9,1.5-1.6,2.3-2.5c0.8,1,0.9,2.1,0.8,3.2c0,0.4,0,0.7,0.4,0.7c0.2,0,0.6-0.4,0.6-0.6
		c0-0.8,0.1-1.6-0.2-2.3c-0.6-1.6-1.4-3.1-2.2-4.6c-0.4-0.8-0.5-1.4,0-2.3c1-1.8,2.1-3.6,2.4-5.7c0.2-1.3,0.1-2.7,0.1-4.1
		c0-1.7-1.1-3.1-1.5-4.7c0-0.1-0.3-0.2-0.4-0.3c0,0.2-0.2,0.4-0.1,0.6c0.3,0.9,0.7,1.8,1,2.8c0.8,2.3,0.7,4.5-0.1,6.8
		c-0.5,1.4-1.2,2.7-1.8,4.1c-0.3,0.8-1,1.2-1.6,1.8c-1,1-2,1.9-3,3c-1.4,1.6-4.6,1.2-5.4-0.9c0-0.1-0.1-0.2-0.1-0.3
		c-0.4-0.9-0.8-1.8-1.7-2.3c0.4-0.8,0.7-1.6,1-2.3c0.1-0.3,0.4-0.6,0.5-0.9c0.1-0.3,0-0.6,0-0.8c-0.2,0-0.5,0-0.7,0.1
		c-1.2,0.6-2.5,1.2-3.8,1.9c-0.5-0.8-1.1-1.7-1.7-2.7c0.5-0.2,0.9-0.4,1.2-0.6c0.8-0.5,1.1-1.4,0.6-2c-0.2-0.3-0.6-0.4-1-0.5
		c-0.1,0-0.2,0.2-0.4,0.2c0.1,0.1,0.2,0.3,0.3,0.3c0.4,0,0.7,0.2,0.6,0.6c-0.1,0.3-0.3,0.8-0.6,0.9c-1.2,0.5-2.3,1-3.3,1.8
		c-0.2,0.1-0.4,0.1-0.6,0.1c-0.6,0-0.8-0.2-1-0.8c-0.2-0.9-0.4-1.7-0.5-2.6c-0.1-0.9-0.2-1.8-0.2-2.7c-0.1-1.3-0.2-2.5-0.8-3.8
		c-0.6-1.3-1.6-1.4-2.6-1.2c-1.1,0.2-1.2,0.2-1.7-0.8c-0.9-1.8-1.9-3.6-2.8-5.4C6.9,28.6,7.7,26.1,9.1,25.1z"/>
	<path class="st0" d="M64.8,140.7C64.8,140.6,64.8,140.7,64.8,140.7L64.8,140.7z"/>
	<path class="st0" d="M20.7,31.7c0.1,0.1,0.4,0.3,0.3,0.4c-0.1,0.2-0.3,0.4-0.5,0.5c-0.7,0.2-1.3,0.2-2,0.4c-1,0.3-1.9,0.9-2.6,1.7
		c-0.2,0.2-0.2,0.6-0.6,0.3c-0.3-0.3-0.3-0.6,0-0.8c0.9-0.8,1.9-1.7,3.2-1.9C19.3,32.1,19.9,31.9,20.7,31.7z"/>
	<path class="st0" d="M19.3,37c-0.3,0-0.6-0.1-1-0.2c-0.2-0.1-0.3-0.3-0.4-0.5c0.2-0.1,0.4-0.3,0.5-0.3c1.4,0.4,2.3-0.4,3.2-1.3
		c0.1-0.1,0.4-0.2,0.6-0.2c0,0.3,0.1,0.6,0,0.7C21.5,36.3,20.6,37,19.3,37z"/>
</g>
<path class="st0" d="M65.8,48.3c-1.1-0.6-2.2-0.8-3.3-0.8c0.4-0.6,0.7-1.2,0.9-2c0.4-1.9-2.4-2.7-2.9-0.8c0,0.1-0.1,0.2-0.1,0.3
	c-0.1,0-0.1,0.1-0.2,0.1c-5.1,3.5-10.5,7.6-12.4,13.4c-1.2,1.2-2.1,2.5-2.7,4c-0.2,0.1-0.4,0.3-0.5,0.5c-0.7,1-0.8,2-0.8,3
	c-0.2,0.4-0.4,0.8-0.7,1.3c-0.4,0.1-0.7,0.4-0.9,0.9c-0.3,0.8-0.6,1.6-0.9,2.4c-0.1,0.1-0.1,0.3-0.2,0.4c-0.4,0.7-0.7,1.4-1.1,2.1
	c0,0,0,0.1,0,0.1c-1.2,1.4-2.2,3.2-3,4.7c-0.3,0.3-0.5,0.6-0.7,0.9c-0.3,0.1-0.6,0.3-0.8,0.6c-0.8,1-1.5,1.9-2.2,3c0,0,0,0-0.1,0
	c-0.3,0.3-0.6,0.6-0.8,0.8c-0.1,0-0.2,0.1-0.4,0.1c-1.4,0.6-2.8,2-4.4,1.8c0,0,0,0,0,0c-0.2-0.1-0.4-0.1-0.6-0.2
	c-0.2,0-0.3-0.1-0.5-0.1c-0.3,0-0.7,0-1.2,0c-0.1,0-0.2,0-0.2,0.1c-0.2-4.7,3-9.5,5.5-13.1c0.4-0.5,0.3-1.1,0.1-1.5
	c0.7-1.6,1.4-3.2,2-4.8c0.7-1.8,1.3-3.9,2.3-5.6c0.3-0.6,0.7-1,1.1-1.5c0.2-0.1,0.3-0.3,0.4-0.5c0.4-0.5,0.8-1,1.1-1.5
	c0.2-0.4,0.2-0.8,0.1-1.1c0.1-0.5-0.1-0.9-0.4-1.3c-0.6-0.6-1.5-0.5-2.1,0c-0.7,0.6-1.5,1.6-1.7,2.5c-0.1,0.3-0.1,0.5,0,0.8
	c-0.9,1.3-1.7,2.6-2.4,4.2c-1.7,4.1-3.2,8.3-5.6,12c-0.2,0.4-0.3,0.7-0.2,1c-1.7,3.1-3.1,6.5-3.2,9.8c-0.3,0.2-0.5,0.6-0.5,1
	c-0.1,0.7-0.4,1.4-0.8,1.9c-0.6,0.7-0.5,1.5,0,2c-0.9,2.3-0.2,4.4,1.5,6.5c1.1,2.2,2.6,4,4.6,5.4c0.9,1.4,1.9,2.9,2.8,4.3
	c0,0.4,0.1,0.7,0.4,1.1c1.7,2.5,3.5,6.5,5.8,8.4c0,0,0.1,0.1,0.1,0.1c0,0-0.1,0.1-0.1,0.1c-0.3,0.3-0.2,0.7,0.2,0.8
	c0.2,0.1,0.4,0.1,0.5,0c0.1,0,0.1-0.1,0.2-0.1c0,0,0.1-0.1,0.1-0.1c1.6,0.8,3.4,0.7,5.5,0.6c3.7,0,8,0,11.1-2
	c0.1,0.1,0.2,0.2,0.3,0.2c1,0.7,2.2,0.4,3-0.4c1.7,0.1,2.7-1.5,2.5-3.2c-0.5-3.3-1.4-6.2-2.7-9.2l0,0c0,0,0,0,0,0
	c-0.1-0.2-0.2-0.4-0.3-0.6c0,0,0,0,0-0.1c-0.2-1-0.4-1.9-0.6-2.9c0-0.2,0-0.4-0.1-0.5c0-0.1-0.1-0.2-0.1-0.3
	c-0.1-0.6-0.3-1.3-0.4-1.9c0.2-0.5,0.3-1,0.1-1.5l-0.6-2.2c0-0.4,0-0.8-0.1-1.1c0.1-0.2,0.1-0.5,0-0.8l-0.2-0.8
	c-0.1-0.9-0.3-1.9-0.5-2.8c0.1-0.3,0.1-0.4,0-0.8l-0.5-1.9h0c0,0,0-0.4-0.1-0.5c-0.1-0.5-0.4-0.9-0.8-1c0-0.1,0-0.1-0.1-0.2
	c-0.4-0.6-0.8-1.3-1.2-1.9c-0.6-1.6-1.1-3.3-1.4-5.3c0-0.2-0.1-0.5-0.2-0.8c0.3-3.9,0.6-7.8,0.9-11.8c0.1-0.1,0.1-0.2,0.2-0.4
	c1.1-3.3,2.5-6.6,5.1-8.6c1.3-0.5,2.5-1.1,3.7-1.8c0,0,0,0,0.1-0.1c0.5-0.2,0.9-0.4,1.4-0.5c0.9,0.1,1.7,0.1,2.5,0
	c0.4,0,0.8,0.1,1.2,0.2C66.2,51.3,67.3,49.2,65.8,48.3z"/>
</svg>
