<?xml version="1.0" encoding="utf-8"?>
<!-- Generator: Adobe Illustrator 19.2.1, SVG Export Plug-In . SVG Version: 6.00 Build 0)  -->
<svg version="1.1" id="Background_copy_2_xA0_Image_1_"
	 xmlns="http://www.w3.org/2000/svg" xmlns:xlink="http://www.w3.org/1999/xlink" x="0px" y="0px" viewBox="0 0 110.7 180.4"
	 style="enable-background:new 0 0 110.7 180.4;" xml:space="preserve">
<style type="text/css">
	.st0{fill:#512DA8;}
</style>
<g id="icon-ringworm">
	<path class="st0" d="M110.7,87.2c-1,2.6-2.8,4.8-2.5,7.9c0.4,4.5,0.4,9.1,0.4,13.7c0,2.4-0.3,4.7-0.6,7.1c-0.2,1.9-0.6,3.8-0.8,5.7
		c-0.2,3.2-1.1,6.2-2,9.3c-0.6,2-1.2,4-1.9,6c-0.3,0.7-0.7,1.5-1.2,1.9c-0.6,0.5-1.5,0.7-2.3,0.8c-2.3,0.3-4.4-0.6-6.6-1.3
		c-1.2-0.4-2.5-0.7-3.9-1.1c0.5,2,1,3.7,1.4,5.4c1.2,4.3,2.5,8.6,3.5,13c0.8,3.6,1.6,7.1,1.4,10.9c-0.1,2.6,0,5.1,0.2,7.7
		c0.1,2,0.5,4.1,0.8,6.1c-0.4,0-0.9,0-1.4,0c-0.2-2.6-0.6-5.2-0.7-7.8c-0.2-3.1-0.1-6.2-0.3-9.3c-0.1-1.6-0.4-3.3-0.8-4.9
		c-0.9-3.9-1.9-7.9-2.9-11.8c-0.7-2.6-1.4-5.3-2.1-7.9c-0.3-0.9-0.7-1.7-1.8-2c-1.4-0.4-2.8-1.1-4.2-1.5c-0.5-0.1-1.2,0.3-1.7,0.6
		c-0.7,0.4-1.3,0.9-1.9,1.4c-1.6,1.1-3.1,2.2-4.8,3.2c-3,1.8-6,3.7-9.1,5.4c-1.1,0.6-2.3,0.9-3.6,1.3c-0.4,0.1-0.8-0.2-1.2-0.4
		c0.3-0.3,0.5-0.6,0.8-0.8c0.6-0.3,1.3-0.5,2-0.7c4.1-1.7,7.9-3.8,11.4-6.4c1.2-0.9,2.5-1.6,3.8-2.5c0.7-0.5,1.2-1.1,1.8-1.6
		c-3.5-1.9-6.9-3.8-10.3-5.6c-2.3-1.2-4.6-2.3-6.9-3.3c-3.2-1.3-6.4-2.5-9.7-3.7c-0.6-0.2-1.3-0.3-1.9-0.4c-1.5-0.2-2,1.1-2.7,1.9
		c-1.2,1.5-2.3,3.1-3.4,4.7c-0.8,1.2-1.4,2.6-2.4,3.7c-1.7,2-3.4,4.2-5.8,5.6c-0.9,0.5-1.5,1.5-2.5,2.4c-0.5-0.1-0.6-0.6-0.2-1.1
		c0.6-0.8,1.2-1.5,1.9-2.1c2.8-2,5.1-4.5,7-7.4c1-1.5,2.2-3,3.2-4.5c0.7-0.9,1.3-1.9,2-3.2c-1.5-0.7-2.8-1.4-4.2-1.9
		c-3.3-1.1-6.1-3.1-8.8-5.4c-0.5-0.4-1-0.7-1.5-1c-0.6-0.4-0.9,0-0.9,0.5c-0.5,3.9-1.4,7.6-3.3,11.1c-2.9,5.4-4.9,11.1-6.6,17
		c-0.4,1.3-1.1,2.6-1.7,3.9c-1,1.9-1.5,4-1.8,6.2c-0.1,0.5-0.3,1-0.4,1.5c0,0.6,0.1,1.2,0.1,1.8c0.1,1,0.3,2,0.2,3
		c-0.2,1.9-0.5,3.9-0.8,5.8c-0.1,0.6,0,1.2-0.2,1.7c-0.4,0.8,0,1.4,0.4,2c1,1.2,1.4,2.6,1.4,4c0,1.9-0.6,3.8-2.3,4.9
		c-1,0.6-0.8,1.6-1.1,2.4c-0.2,0.5-0.2,1-0.3,1.5c-0.5,0-1,0-1.5,0c0.2-0.7,0.5-1.3,0.6-1.9c0-0.2-0.2-0.6-0.5-0.7
		c-1.4-0.4-2.8-0.8-4.2-0.9c-0.7-0.1-1.6,0-2.2,0.4c-2,1.3-5.8,0.4-6.8-2.1c-0.6-1.5-1.6-2.9-2-4.4c-0.7-2.5,0-5,1-7.4
		c1-2.6,2.1-5.2,3.1-7.8c0.4-0.9,0.9-1.7,1.4-2.6c0.8-1.3,1.1-2.7,1.2-4.2c0.1-1.3,0.6-2.6,0.8-4c0.3-1.7,0.3-3.5,0.7-5.2
		c0.6-3,0.8-6,1-9.1c0.2-3.5,0.7-7,1.2-10.5c0.2-1.5,0.6-2.9,1-4.3c0.6-1.9,1.5-3.8,1.8-5.7c0.3-1.8,0.2-3.6,0.2-5.5
		c0-1.5-0.4-3-0.4-4.5c0-2.8-0.5-5.6-1.1-8.3c-0.4-1.6-0.9-3-1.9-4.4c-0.5-0.6-0.4-1.8-0.3-2.7c0.7-4.1,1.6-8.1,2.4-12.2
		c0.6-3,1.9-5.6,4.1-7.7c2.4-2.3,5.3-4,8.5-4.9c3.2-0.9,6.3-2,9.5-2.9c2.3-0.7,4.7-1.2,7.1-1.8c0.3-0.1,0.6-0.3,1-0.4
		c-1.2-1.5-2.2-3-3.4-4.4c-1.9-2.1-3.2-4.6-3.9-7.2c-1-3.5-1.7-7.1-2.5-10.7c-0.1-0.6-0.5-1.2-0.7-1.8c-1-2.4-2.3-4.8-2.6-7.4
		c-0.2-1.4-0.1-2.8,0.2-4.1c0.9-4,2.9-7.5,5.2-10.8c2.3-3.4,5.6-5.6,9-7.6c0.5-0.3,1.2-0.5,1.8-0.5c3.6-0.1,7.2-0.4,10.8-0.2
		c2.6,0.2,5.2,1.1,7.2,3c1.4,1.3,2.8,2.8,4,4.3c0.8,1,1.3,2.3,1.9,3.5c1.2,2.2,2.7,4.2,3.1,6.7c0.3,1.9,0.5,3.7,0.7,5.6
		c0.2,1.4,0.3,2.9,0.4,4.3c0.1,0.9-0.1,1.7,0,2.6c0.2,2.4-0.2,4.6-2,6.3c0,0,0,0.1,0,0.1c1.4,1.7,2.9,3.3,4.1,5.1
		c1.7,2.4,3.3,5,4.8,7.6c0.8,1.3,1.5,2.8,2.1,4.2c0.4,0.8,0.7,1.6,0.8,2.5c0.2,1.2,0.7,2,1.8,2.4c2.3,0.8,4.6,1.5,6.8,2.3
		c2.7,1.1,5.6,1.5,7.9,3.3c1.1,0.9,2,2.2,2.8,3.5c1.3,2.2,2.4,4.6,3.7,6.9c1.4,2.6,2.7,5.1,4.1,7.7
		C110.7,83.8,110.7,85.5,110.7,87.2z M76,112.4c0.1,0,0.3-0.1,0.4-0.1c3.2,0,6.4-0.1,9.5-1.3c1.6-0.6,1.9-0.8,1.9-2.6
		c0-4.9,0-9.8,0.1-14.7c0-1.9,0.4-3.7,0.6-5.6c0.1-1.1,0.5-2.2,0.3-3.2c-0.7-4.1-1.6-8.1-2.4-12.2c-0.1-0.4,0.1-0.8,0.2-1.1
		c0.2,0,0.3,0,0.5,0c0.4,2.3,0.7,4.5,1.2,6.8c0.5,2.3,1.1,4.5,1.6,6.6c2.4-3.9,4.9-8,7.4-12c0.3-0.4,0.7-0.8,1.1-1.2
		c0.1,0.1,0.3,0.2,0.4,0.3c-2.7,5-6.7,9.3-7.8,15c1.7-0.7,3.4-1.6,5.2-2.1c4.5-1.3,9.2-0.8,13.8-1.1c0.1,0,0.1-0.1,0.2-0.2
		c-1.3-2.5-2.6-5.1-3.9-7.6c-1.4-2.7-2.9-5.4-4.3-8.1c-0.8-1.5-1.8-2.9-3.4-3.7c-2.1-1-4.4-1.7-6.6-2.5c-2.2-0.8-4.4-1.5-6.6-2.3
		c-0.9-0.3-1.7-0.8-2.6-1.1c-0.1,0.3-0.3,0.5-0.3,0.8c-0.7,3.7-2.8,6.9-4.4,10.3c-1.7,3.8-4.7,6.5-7.8,9c-3,2.4-6.1,4.7-9.3,7
		c-0.3,0.2-0.9,0.2-1.2,0c-1.4-1.1-2.9-2.1-4.1-3.3c-2.6-2.4-5.1-5-7.6-7.5c-3.4-3.3-5.8-7.3-7.9-11.4c-1-1.8-1.9-3.7-3-5.6
		c-1.9,0.5-3.7,0.9-5.4,1.4c-3,0.9-6.1,1.8-9,3c-2.5,1-4.8,2.5-6.4,4.7c-1.3,1.8-2.4,3.7-2.8,6c-0.6,3-1.3,6-1.9,9
		c0.1,0,0.2,0.1,0.3,0.1c0.3-0.3,0.6-0.5,0.9-0.8c1.5-1.5,3.1-2.7,5.2-2.9c5-0.5,9.6,0.5,13.4,4.2c0-0.2,0-0.3,0-0.4
		c-0.2-1.6-0.5-3.2-0.7-4.8c-0.1-1.1-0.1-2.2-0.4-3.3c-0.2-0.9-0.2-1.4,0.8-2c0.2,0.9,0.5,1.7,0.6,2.6c0.2,1.3,0,2.7,0.4,4
		c0.9,3,0.8,5.9,0,8.9c-0.3,1.3-0.4,2.7,0.5,3.8c0.6,0.8,1.5,1.4,2.3,2.1c0.8,0.7,1.7,1.4,2.5,2.2c1.3,1.1,2.6,2.2,3.8,3.4
		c1.3,1.2,2.5,2.6,3.8,3.8c1.4,1.4,2.8,2.9,4.4,4.1c1.6,1.2,3.5,1.8,5.2,2.9c2.4,1.6,5.2,1.9,7.9,2.5c0.3,0.1,0.7,0,1-0.2
		c0.8-0.5,1.5-1.1,2.2-1.8c1-0.9,1.9-1.8,2.9-2.7c0.2-0.2,0.8-0.1,1.1-0.1c-0.2,0.3-0.2,0.7-0.5,1c-1.6,1.5-3.2,2.9-4.8,4.5
		c0.2,0.1,0.4,0.2,0.5,0.3c1.9,0.6,3.7,1.1,5.6,1.8c2.1,0.8,4.1,1.7,6.4,1.7c3.1,0,6.3,0.1,9.4,0.1c0.4,0,0.9-0.4,1-0.8
		c0.2-0.7,0.2-1.6,0.1-2.3c-0.1-1.3-0.6-1.6-1.9-1.1c-2.9,1-5.9,1.2-8.9,1C76.3,113.3,75.8,113.1,76,112.4z M29.9,107.2
		c-1.7,0-3.4,0-5,0c-0.2,0-0.6,0.2-0.7,0.4c-0.1,0.2,0,0.6,0.1,0.8c0.3,0.3,0.7,0.7,1.1,0.7c1.5,0.3,3,0.4,4.5,0.7
		c2,0.3,3.7,1.1,5.2,2.3c2.5,2,4.8,4.3,7.9,5.6c2.6,1.1,5.1,2.2,8,2.4c0.8,0,1.6,0.2,2.3,0.5c4.4,1.7,8.8,3.4,13,5.2
		c3,1.3,5.9,3.1,8.8,4.5c2.7,1.3,5.5,2.3,8.3,3.5c1.5,0.7,3,1.5,4.6,1.9c3,0.9,6.1,1.5,9.2,2.2c0.7,0.2,1.4,0.3,2.1,0.2
		c1.3-0.2,2.1-1.2,2.6-2.3c0.7-1.6,1.3-3.4,1.8-5.1c1.1-3.4,1.9-6.8,2.3-10.3c0.3-2.5,0.7-4.9,1-7.4c0.1-0.9,0.4-1.9,0.4-2.8
		c-0.1-3.7-0.3-7.3-0.4-11c-0.1-2.1,0-4.2,0-6.3c0-0.7-0.3-1.5-0.1-2.2c0.3-1.7,0.1-3.2-0.5-4.8c-0.4-1-1-1.3-2-1.3
		c-4.5-0.1-8.8,0.8-12.8,2.8c-0.7,0.4-1.7,0.9-2,1.6c-1.3,3.4-1.1,6.9-1,10.4c0.1,2.5,0.2,5,0.2,7.5c-0.1,3-0.3,6.1-0.5,9.1
		c0,0.5,0.1,0.8,0.7,0.8c2.9-0.1,5.7,0.6,8.5,1.4c0.2,0.1,0.4,0.4,0.6,0.6c0,0.1-0.1,0.2-0.1,0.2c-0.3,0-0.5,0-0.8-0.1
		c-1.9-0.4-3.8-1.2-5.8-1.3c-4-0.3-8.1-0.2-12.1-0.3c-1.8-0.1-3.6-0.2-5.4-0.7c-3-0.8-6-2-9-2.9c-1.7-0.6-3.4-1.2-5.2-1.5
		c-1.9-0.3-3.5-1-5.2-1.9c-1.8-1-3.7-2.1-5.5-3c-1.3-0.6-2.2-1.6-3.1-2.7c-1.1-1.2-2.2-2.5-3.4-3.7c-2.4-2.3-4.9-4.5-7.4-6.7
		c-0.8-0.7-1.7-1.2-2.5-1.8c-0.5,0.5-0.8,0.9-1.1,1.3c-0.1,0.1-0.4,0-0.7,0c0.1-0.2,0.2-0.4,0.3-0.6c0.2-0.3,0.5-0.5,0.8-0.9
		c-2.4-0.8-3.7-0.3-4.9,1.6c-0.3,0.5-0.2,0.8,0.4,0.9c0.5,0.1,1.1,0.2,1.6,0.3c2.5,0.5,4.5,2.1,6.7,3.2c0.2,0.1,0.3,0.4,0.4,0.6
		c-0.4,0.1-0.7,0-1-0.1c-1.3-0.7-2.5-1.4-3.8-2.1c-2.1-1.1-4.3-2.1-6.6-0.3c-0.1,0.1-0.2,0.1-0.3,0.1c-0.8,0.4-1.5,1-1.6,1.9
		c0,0.4,0,0.9,0.3,1.2c0.2,0.3,0.6,0.5,1.2,0.2c0.8-0.4,1.7-0.4,2.6-0.7c0.4-0.1,0.7-0.4,1-0.8c0.4-0.4,0.7-1,1.1-1.4
		c0.1,0.1,0.3,0.2,0.4,0.2c-0.3,0.6-0.6,1.1-0.8,1.6c0.6,0.2,1.1,0.3,1.6,0.5c1.9,0.9,3.8,1.8,5.6,2.8c0.3,0.1,0.4,0.5,0.6,0.8
		c-0.1,0.1-0.2,0.2-0.3,0.4c-2.1-1.1-4.2-2.3-6.3-3.4c-0.4,0.8-0.7,1.5-1.1,2.3c-0.1,0-0.2-0.1-0.3-0.1c0.2-0.8,0.3-1.5,0.6-2.6
		c-1.7,0.4-3.1,0.6-4.5,1.2c-0.5,0.2-0.9,1.1-1.2,1.7c-0.2,0.4-0.1,0.9,0,1.3c0.1,0.2,0.7,0.3,1,0.2c0.7-0.1,1.4-0.4,2.1-0.6
		c1.9-0.6,3.5-0.2,5,1.1c1.2,1,2.1,2.4,3.7,2.8c0.1,0,0.3,0.1,0.3,0.2c0.1,0.3,0.1,0.6,0.2,1c-1.5-1.8-3.5-0.9-5.1-1.5
		c-0.5,2-0.5,2-1,2C29.8,108.5,29.9,107.9,29.9,107.2z M42.3,56.2C42.3,56.2,42.3,56.3,42.3,56.2c0.1,0.4,0.3,0.8,0.4,1.1
		c1.9,4.6,4.4,8.8,8,12.3c0.9,0.9,1.7,1.9,2.6,2.8c2.2,2.2,4.5,4.4,6.7,6.6c0.4,0.4,0.8,0.4,1.2,0c2.3-1.8,4.6-3.5,6.8-5.4
		c1.7-1.5,3.5-3.1,4.8-4.9c2.4-3.4,4.2-7.3,5.7-11.2c0.1-0.3,0.2-0.6,0.3-1c-0.8-0.4-1.4-0.9-2.1-1C74,55,72.7,53,71.3,51
		c-0.4-0.7-0.8-1.4-1.1-2.1c-0.7-2.5-1-5.1-1-7.7c0-1,0.2-2,0.3-3c-1.4-0.4-2.1-2.1-1.2-3.6c0.6-0.9-0.1-2.6,1.6-2.9
		c0,0,0-0.4,0-0.5c0.5-0.6,0.2-1.1,0.1-1.7c-0.1-0.3,0.3-0.6,0.4-1c0.3,0.2,0.8,0.4,0.8,0.7c0.1,0.9,0.1,1.9,0.1,2.8
		c0,0.3-0.2,0.7-0.4,0.7c-0.8,0.3-0.9,0.9-1.1,1.6c-0.1,0.4-0.3,0.8-0.4,1.3c-0.1,0.3,0,0.7,0,1.1c0.4-0.2,0.9-0.2,1.2-0.5
		c0.5-0.5,0.9-1.1,1.2-1.7c0.3-0.5,0.6-1.1,0.6-1.6c0-1.9-0.1-3.8-0.2-5.6c0-0.8-0.5-1.2-1.3-1.3c-1.1-0.1-1.8,0.3-2.2,1.5
		c-0.7,1.8-1.3,3.7-2.1,5.5c-0.2,0.4-0.7,0.7-1.1,0.9c-0.2,0.1-0.6-0.4-0.8-0.7c-0.7-1.2-1.4-2.4-2.8-2.9c-0.8-0.3-1.6-0.4-2.5-0.6
		c-1.6-0.5-3.4-0.8-4.3-2.5c-1.5-2.5-3.5-4.4-5.8-6.2c-1.4-1-1.6-2.5-0.6-4c0.2-0.3,0.4-0.8,0.5-1.2c0.5-2.8,1.1-5.6,2.7-8
		c0.5-0.7,0.9-1.4,1.2-2.2c0.1-0.3-0.1-0.8-0.1-1.2c-0.3,0.2-0.8,0.2-1,0.5c-1,1.5-2,2.9-2.8,4.5c-0.7,1.5-1.2,3-1.6,4.6
		c-0.3,1.2-0.9,2.4-0.8,3.8c0.1,1.8-0.9,3.2-2.7,3.7c-2.7,0.7-5.5,1.3-8.3,1.9C34,24,31.9,25.1,32.7,28c0.4,1.6,0.8,3.2,1.2,4.8
		c0.2,0.8,0.5,0.9,1.3,1c1.4,0.2,2.7,0.5,4,0.8c0.2,0.1,0.4,0.6,0.6,0.9c-0.3,0-0.7,0.2-1,0.1c-1.2-0.2-2.4-0.5-3.6-0.6
		c-0.5-0.1-0.6,0.1-0.5,0.7c0.3,1.2,0.4,2.5,0.7,3.7c0.7,3.3,1.9,6.4,3.8,9.2c2.5,3.5,5.5,6.5,8.8,9.3c3,2.6,7.2,2.2,10.2,0.1
		c2.1-1.6,3.4-3.8,4.9-5.9c1.9-2.8,3.1-5.9,3.8-9.2c0.1-0.6,0.4-1.1,0.6-1.7c0.1,0,0.3,0,0.4,0.1c0,0.5,0,1.1-0.1,1.6
		c-0.2,1-0.4,1.9-0.7,2.9c-0.2,0.9-0.4,1.8-0.8,2.6c-0.6,1.3-1.4,2.5-2,3.7c-1.1,2.4-2.7,4.4-4.6,6.2c-3.1,2.9-7.8,3.5-11.4,1
		c-1.2-0.8-2.2-1.8-3.3-2.8C43.7,55.4,43.7,55.4,42.3,56.2z M18,165c-0.7-3.5,1.6-6.7,0.4-10.3c-0.2-0.7,0.1-1.5,0.2-2.3
		c0-0.2,0.2-0.5,0.2-0.7c0-2.2,0.9-4.1,1.7-6c1.1-2.8,2.2-5.6,3.3-8.4c0.9-2.7,1.5-5.4,2.9-8c1.4-2.5,2.6-5.3,3.7-8
		c0.5-1.1,0.6-2.4,0.9-3.5c0.4-1.7,0.7-3.4,1-5.1c0.1-0.6-0.3-1-0.8-0.9c-1.5,0.2-3.1,0.3-4.5,0.8c-1.1,0.3-2,1.1-3,1.7
		c-0.3,0.2-0.6,0.2-0.9,0.2c0.2-0.3,0.3-0.8,0.6-0.9c1.7-0.9,3.4-1.8,4.9-2.6c-0.1,0-0.5-0.1-0.9-0.2c-1-0.2-2-0.4-2.9-0.8
		c-1.1-0.4-1.6-1.5-1.4-2.5c0.2-0.9,1-1.3,2.3-1.2c1.8,0.1,3.7,0.3,5.5,0.4c0.3,0,0.6-0.2,0.9-0.3c-0.1-0.3-0.2-0.6-0.3-0.8
		c-1.2-1.4-4.4-1.6-6.2-0.4c-1,0.7-2.5,0.1-2.7-1c-0.1-0.7,0.1-1.4,0.3-2.1c0.1-0.4,0.4-0.7-0.2-1.1c-0.7-0.6-0.8-1.5-0.5-2.3
		c0.5-1.3,1.3-2.1,2.6-2.7c0.6-0.2,1.2-0.8,1.4-1.3c0.6-1.9,2.3-3.3,4.2-3.4c0.2,0,0.5,0,0.9,0c-0.1-1.7-0.1-3.4-0.3-5
		c-0.5-3.6-2.8-5.4-5.8-5.8c-0.7-0.1-1.4-0.4-2-0.6c-2.6-0.8-5.2-0.8-7.6,0.7c-1.2,0.7-2.5,1.6-2.6,3c-0.3,2.6-0.2,5.3,0.5,7.9
		c0.7,2.5,1.1,5,1.1,7.5c0,1.6,0.3,3.1,0.4,4.7c0.2,2.3,0.5,4.6-0.2,6.9c-0.7,2.4-1.3,4.9-2.2,7.3c-0.8,2-0.9,4.3-1.2,6.5
		c-0.4,3.1-0.5,6.2-0.8,9.3c-0.1,0.9-0.2,1.8-0.3,2.6c-0.3,2-0.6,4.1-0.9,6.1c-0.1,0.9-0.2,1.8-0.4,2.7c-0.3,1.4-0.7,2.8-0.8,4.3
		c-0.1,1.5-0.6,2.8-1.2,4.1c-1.3,2.6-2.5,5.1-3.7,7.6c0.4,0.3,0.8,0.4,0.9,0.6c0.3,1,0.6,2,0.6,2.9c-0.1,1.7-0.4,3.3-0.6,5.1
		c0.3-0.1,0.4-0.2,0.6-0.2c1.8-0.6,2.5-0.5,2.7,1.5c0,0.3,0.2,0.7,0.3,1.1c0.2-0.2,0.3-0.2,0.3-0.3c1.3-1.7,0.7-3.6,0.8-5.4
		c0-0.5,0.1-1.1,0.3-1.6c0.3-0.8,0.9-1.5,0.9-2.3c0-1.1-0.3-2.3-0.5-3.5c0-0.2-0.3-0.4-0.4-0.7c0,0,0.4-0.3,0.5-0.3
		c0.2,0.2,0.5,0.4,0.6,0.6c0.8,2.1,0.9,4.2-0.2,6.3c-0.2,0.4-0.4,0.8-0.5,1.3c0.1,0,0.2,0.1,0.3,0.1c0.1-0.2,0.2-0.5,0.3-0.6
		c0.4-0.5,0.9-1.2,1.4-1.3c0.8-0.1,0.9-0.6,1.2-1.1c0.8-1.4,1.7-2.8,2.5-4.3c0.2-0.3,0.4-0.5,0.4-0.8c-0.1-1.1-0.2-2.3-0.3-3.4
		c0-0.4-0.2-0.9-0.2-1.3c0.1,0,0.2,0,0.3-0.1c0.3,0.9,0.8,1.7,0.9,2.6c0.2,1.2,0.4,2.4-0.6,3.5c-1.3,1.3-1.9,3.1-2.6,4.9
		c1.8-0.9,2.3-0.8,3.2,0.8C16.9,165.1,17.4,165,18,165z M60.1,84.2c-0.1-1.2-0.1-2.3-0.2-3.3c0-0.3-0.3-0.5-0.5-0.7
		c-2.2-2-4.6-3.9-6.7-6c-1.8-1.8-3.3-4-4.9-6c-2.6-3.2-5.1-6.4-6.2-10.5c-0.2-0.8-0.6-1.4-1.6-0.9c-0.5,0.2-1.1,0.3-1.6,0.5
		c2.8,5.1,5,10.5,9,14.8C51.4,76.3,55.3,80.5,60.1,84.2z M80.2,56.9c-1.5,3-2.8,6-4.3,8.9c-0.7,1.4-1.4,2.8-2.4,3.9
		c-3.3,3.8-6.9,7.1-11.1,9.9c-1.6,1.1-1.8,1.9-1,4.1c3.5-2.7,6.9-5.3,10.2-8.1c1.9-1.6,3.8-3.4,4.9-5.8c1.7-3.7,4-7.3,5-11.3
		c0.2-0.6,0.1-1-0.5-1.3C80.7,57.1,80.4,57,80.2,56.9z M6.3,175.2c-0.1-0.1-0.2-0.3-0.2-0.4c0.1-0.8-0.5-1-1-1.4
		c-0.6-0.4-1.2-1.2-1.3-1.9c-0.1-1.9-0.1-3.8,0.1-5.7c0.1-1.5,0.5-3-0.7-4.6c-0.6,1.7-1.3,3.2-1.6,4.7c-0.4,1.9-0.8,3.9,0.3,5.8
		c0.6,1.1,1.2,2.1,1.8,3.2c0.6,1.1,1.6,1.7,2.8,1.6c1.2-0.1,2.4-0.6,3.5-0.9c0.2,0,0.3-0.3,0.4-0.5c0.8-1.5,1.7-3,2.5-4.5
		c0.4-0.7,0.2-2-0.5-2.3c-0.9-0.4-1.5,0.1-2,0.8c-1.3,1.9-2.5,3.9-3.8,5.8C6.6,175,6.5,175.1,6.3,175.2z M11,165.7
		c0.4,0.5,0.8,0.8,1.1,1.2c0.3,0.4,0.5,0.8,0.8,1.1c0.9,0.9,1.2,2,0.7,3.1c-0.4,1-0.9,2-1.3,3c-0.1,0.4-0.1,1.1,0.1,1.3
		c0.4,0.4,1.4,0,1.6-0.6c0.5-1.4,1-2.8,1.4-4.3c0.2-0.5,0.2-1.1,0.1-1.7c-0.3-2.1-2.2-2.9-3.6-4.1C11.5,165.1,11.3,165.4,11,165.7z
		 M17.9,172.5c-0.1-1.2-0.1-2.1-0.4-2.8c-0.6-1.6-1.3-3.2-2-4.7c-0.1-0.3-0.5-0.5-0.8-0.5c-0.2,0-0.6,0.3-0.6,0.5
		c0,0.2,0.3,0.5,0.5,0.7c1,1,1.7,2.1,1.8,3.6c0,1.9-0.8,3.5-1.2,5.2c-0.2,0.6-0.5,1.2,0.4,1.5c0.7,0.2,1.4,0,1.7-0.7
		C17.5,174.2,17.7,173.1,17.9,172.5z M18.5,174.7c1.5-2.5,1.5-3.9-0.1-6.6c-0.3-0.5-0.5-1.1-0.6-1.6c-0.1-0.7-0.3-0.7-1-0.4
		C18.3,168.7,18.8,171.6,18.5,174.7z M6.8,171.1c-0.2-0.5,0.1-1.4-1-1.4c-0.7,0-1.4,0.2-1.5,1.1c-0.1,0.9,0.6,1.9,1.2,1.9
		C5.9,172.8,6.8,171.8,6.8,171.1z"/>
	<path class="st0" d="M43.6,52c2-0.1,3.8-0.1,5.6-0.3c1.6-0.1,3.2-0.3,4.8-0.4c0.3,0,0.7,0.2,1,0.3c-0.1,0.3-0.2,0.7-0.5,0.9
		c-0.8,0.8-1.7,1.6-2.6,2.4c-2,1.8-4,1.1-5.6,0.1c-0.9-0.6-1.6-1.3-2.4-2.1C43.7,52.8,43.7,52.4,43.6,52z M46.5,54
		c1,1.4,3.3,1.7,4.9,0C49.8,54,48.2,54,46.5,54z M53.3,52.6c-2.8,0-5.4,0-8,0c0,0.1,0,0.3,0,0.4C48,53,50.5,53.6,53.3,52.6z"/>
	<path class="st0" d="M41.6,35.6c1.4,0.7,2.2,1.9,2.3,3.4c0.1,1.7-0.1,3.3-0.2,5c-0.1,0.8-0.3,1.6-0.3,2.4c0,1.2,0.7,2,1.9,1.9
		c0.8,0,1.5-0.4,2.3-0.5c0.5-0.1,1-0.2,1.5-0.2c0.8,0,1.5-0.8,1.2-1.5c-0.3-0.6-0.6-1.5-1.6-1.2c-0.2,0.1-0.5-0.1-0.7-0.2
		c0-0.1,0-0.2,0-0.4c0.5,0,1.2-0.3,1.5-0.1c0.7,0.6,1.4,1.3,1.9,2.1c0.5,0.9-0.3,1.4-1,1.6c-1.7,0.5-3.4,1.1-5.1,1.2
		c-1.8,0.1-2.9-1.1-2.7-2.9c0.1-1,0.4-2,0.5-3c0.1-1.5,0.1-3.1-0.1-4.6c-0.1-0.7-0.8-1.2-1.2-1.8c-0.2-0.3-0.3-0.7-0.5-1
		C41.4,35.7,41.5,35.6,41.6,35.6z"/>
	<path class="st0" d="M48.7,36.6c0.4,0,0.6,0,0.6,0.1c1.5,1.4,3,1.1,4.6,0.2c0.7-0.4,1.5-0.6,2.2-0.9c0.3-0.1,0.6,0,0.8,0
		c-0.1,0.3,0,0.7-0.2,0.9c-0.9,0.9-1.9,1.7-3.3,1.8c-0.6,0-1.3,0.2-1.9,0.1c-0.8-0.1-1.7-0.3-2.4-0.7C48.8,37.9,48.8,37.2,48.7,36.6
		z"/>
	<path class="st0" d="M46.5,34.4c0.3-0.2,0.5-0.5,0.8-0.7c1.4-0.9,3-1.2,4.6-1.2c0.8,0,1.6-0.1,2.4,0c0.3,0,0.5,0.4,0.7,0.7
		c-0.3,0.2-0.6,0.5-0.9,0.5c-1.9-0.3-3.7,0.4-5.5,1c-0.6,0.2-1.3,0.1-2,0.2C46.6,34.7,46.5,34.5,46.5,34.4z"/>
	<path class="st0" d="M41.7,37.7c-0.4,1.3-1.2,1.4-1.9,1.5c-1,0.1-2.1,0-3.1-0.1c-0.2,0-0.4-0.5-0.6-0.7c0.3-0.1,0.7-0.3,0.9-0.2
		c0.8,0.6,1.5,0.3,2.3,0C40.1,38,40.8,37.9,41.7,37.7z"/>
	<path class="st0" d="M21,127.2c-1.6-0.2-2.6-1.1-3.4-2c-0.7-0.8-0.4-1.8,0.6-2.8c0.4-0.4,0.6-0.9,0.8-1.4c0.2-0.6,1-1.3,1.7-1.2
		c1.7,0.2,2.7,1.3,3.2,2.8c0.4,1.3,0.1,2.6-1,3.6C22.3,126.6,21.6,126.9,21,127.2z M20.3,120.7c-0.1,0.1-0.6,0.4-0.6,0.7
		c0,0.8-0.5,1.1-0.9,1.6c-0.4,0.4-0.7,0.9-0.7,1.4c0.1,1,2.6,2.2,3.5,1.7c1-0.5,1.7-2,1.5-3.1C22.8,121.6,21.9,120.8,20.3,120.7z"/>
</g>
</svg>
