<?xml version="1.0" encoding="utf-8"?>
<!-- Generator: Adobe Illustrator 19.2.1, SVG Export Plug-In . SVG Version: 6.00 Build 0)  -->
<svg version="1.1" id="Layer_1" xmlns="http://www.w3.org/2000/svg" xmlns:xlink="http://www.w3.org/1999/xlink" x="0px" y="0px"
	 viewBox="0 0 176.1 143.2" style="enable-background:new 0 0 176.1 143.2;" xml:space="preserve">
<style type="text/css">
	.st0{fill:#388E3C;}
</style>
<g id="icon-foodpoisoning">
	<path class="st0" d="M111.9,79.4c0-0.9,0.7-1.6,1.6-1.6c0.9,0,1.6,0.7,1.6,1.6c0,0.5-0.2,1-0.6,1.3c0.7,0,1.3,0,2,0
		c1.7,0,3.4-0.1,5.2-0.2c0.3,0,0.6,0,0.8,0c0.1,0,0.2,0,0.2,0c0-0.7,0-1.4-0.1-2c-0.6-3-2.8-4.3-2.4-7.8c0.3-2.8,2.2-4.3,1.3-7.2
		c-0.5-1.8-1.6-5.7-2.9-8.8c4.9,0.2,9.9-1.1,14.2-4.3c10.1-7.3,12.3-21.4,5-31.4c-7.3-10-21.4-12.3-31.4-5c-10,7.3-12.3,21.4-5,31.4
		c2.8,3.9,6.7,6.6,10.9,8c-1.1,2.7-2,6.1-2.1,7.7c-0.1,2.8,1.8,7.5,0.5,11.2c-0.9,2.8-0.9,5.2-0.8,8c0.8,0.1,1.6,0.2,2.4,0.3
		C112.1,80.2,111.9,79.8,111.9,79.4z M114.9,67.4c0-0.9,0.8-1.7,1.7-1.7c0.9,0,1.7,0.8,1.7,1.7c0,0.9-0.8,1.7-1.7,1.7
		C115.6,69.1,114.9,68.3,114.9,67.4z M115.7,58.8c0-0.6,0.5-1,1-1c0.6,0,1,0.5,1,1c0,0.6-0.5,1-1,1
		C116.2,59.8,115.7,59.4,115.7,58.8z M119.8,74.4c0,1.2-1,2.2-2.2,2.2c-1.2,0-2.2-1-2.2-2.2c0-1.2,1-2.2,2.2-2.2
		C118.8,72.1,119.8,73.1,119.8,74.4z M113.2,61.3c0.7,0,1.2,0.6,1.2,1.2c0,0.7-0.6,1.2-1.2,1.2c-0.7,0-1.2-0.6-1.2-1.2
		C112,61.8,112.5,61.3,113.2,61.3z"/>
	<path class="st0" d="M171.7,23.6c-2.5-10.8-21.2,1-21.2,1S173.4,31,171.7,23.6z"/>
	<path class="st0" d="M160.2,1.7c-7-6.7-15,10.9-15,10.9S165,6.2,160.2,1.7z"/>
	<path class="st0" d="M68.7,24.1c0.3,0,0.6-0.1,0.8-0.4c1.3-1.9,3.4-2.9,5.5-2.9c1.4,0,2.7,0.4,3.9,1.3c0.5,0.3,1.1,0.2,1.4-0.2
		c0.3-0.5,0.2-1.1-0.2-1.4c-1.5-1.1-3.3-1.6-5.1-1.6c-2.7,0-5.5,1.3-7.2,3.7c-0.3,0.5-0.2,1.1,0.2,1.4C68.3,24,68.5,24.1,68.7,24.1z
		"/>
	<path class="st0" d="M75.3,24.6c0.8,0,1.6,0.2,2.3,0.7c0.5,0.3,1.1,0.2,1.4-0.2c0.3-0.5,0.2-1.1-0.2-1.4c-1.1-0.8-2.3-1.1-3.5-1.1
		c-1.9,0-3.7,0.9-4.9,2.5c-0.3,0.5-0.2,1.1,0.2,1.4c0.2,0.1,0.4,0.2,0.6,0.2c0.3,0,0.6-0.1,0.8-0.4h0C72.8,25.2,74,24.6,75.3,24.6z"
		/>
	<path class="st0" d="M176.1,42.4h-10.4c-3.3,0-6,2.7-6,6c0,0,0,24.9,0,28.7c0,4.9-6.3,6.4-6.3,6.4h-23.6c1.6,1.6,2.7,3.8,2.9,6.2
		c0.2,2.7-0.6,5.3-2.3,7.3c-1.7,2-4.1,3.3-6.8,3.5c-2.4,0.2-4.7,0.3-6.9,0.3h-0.1c-10.4,0-19.5-2.2-27-6.4c-1.3-0.7-2.5-1.5-3.7-2.4
		c0.4,15.4,21,19,21,19l6.7,32h62.6V42.4z"/>
	<path class="st0" d="M91.8,39.9c-5.1-7.2-17.5-11.8-30.8-4c-18.3,10.8-28,19.8-40.6,38.3c-6.9,12-2.8,19.9,2.8,25.6l11.2,18.4H8.6
		c-0.2,0.1-0.3,0.1-0.5,0.2c-0.4,0.1-0.9,0.2-1.3,0.3C6.7,118.7,6,119,6,119c-0.4,0.2-0.7,0.4-1.1,0.6c-0.1,0.1-0.1,0.1-0.2,0.1
		c-0.2,0.1-0.3,0.3-0.5,0.5c-0.1,0.1-0.2,0.1-0.2,0.2c-0.7,1-1.3,2.1-1.9,3.2c-1.4,3.1-2.5,7.6-1.9,10.9c0.7,3.7,3.2,6.3,6.1,8.7
		h50.4c4.5,0,8.7-2.5,10.9-6.4c2.2-3.9,2.1-8.8-0.2-12.6L49.2,94.6c6.3-7.9,14.4-15,22.1-21.1C68.5,67,67,59.8,67,52
		c0-1.1,0-1.7,0-1.9c0.3-5.2,4.7-9.4,10-9.4c0.2,0,0.4,0,0.6,0c5.5,0.3,9.7,5.1,9.4,10.6c0,0.2,0,0.4,0,0.6c0,0.8,0,4.2,1,8.2
		C93.5,54.1,95.8,45.7,91.8,39.9z"/>
	<path class="st0" d="M85,52c0-0.3,0-0.5,0-0.6c0-0.1,0-0.1,0-0.1c0.3-4.4-3.1-8.2-7.5-8.4c-4.4-0.3-8.2,3.1-8.5,7.5
		c0,0.1,0,0.7,0,1.7c0,4.1,0.5,15,6.8,25.9c3.2,5.4,8,10.8,14.8,14.7c6.8,3.9,15.5,6.2,26,6.2c0,0,0,0,0.1,0c2.2,0,4.4-0.1,6.7-0.3
		c4.4-0.4,7.7-4.2,7.3-8.6c-0.4-4.4-4.2-7.7-8.6-7.3c-1.9,0.2-3.7,0.2-5.4,0.2c-8.3,0-14-1.7-18.1-4.1c-6.2-3.5-9.4-8.7-11.3-14.1
		C85.2,59.2,85,53.9,85,52z"/>
	<circle class="st0" cx="107.9" cy="68.3" r="1.6"/>
	<circle class="st0" cx="108.4" cy="55.5" r="1.6"/>
	<circle class="st0" cx="123.2" cy="71.6" r="1.6"/>
	<path class="st0" d="M127.9,2.4L127.9,2.4c0.8-0.3,1.5-0.4,2.3-0.4c2.8,0,5.4,1.7,6.4,4.5c0.1,0.4,0.5,0.7,0.9,0.7
		c0.1,0,0.2,0,0.3-0.1c0.5-0.2,0.8-0.8,0.6-1.3c-1.3-3.6-4.7-5.8-8.3-5.8c-1,0-2,0.2-2.9,0.5c-0.5,0.2-0.8,0.8-0.6,1.3
		C126.8,2.3,127.4,2.6,127.9,2.4z"/>
	<path class="st0" d="M133.5,8.3c0.1,0.4,0.5,0.7,0.9,0.7c0.1,0,0.2,0,0.3-0.1c0.5-0.2,0.8-0.8,0.6-1.3c-0.9-2.5-3.2-4-5.7-4
		c-0.7,0-1.4,0.1-2,0.3c-0.5,0.2-0.8,0.8-0.6,1.3c0.2,0.5,0.8,0.8,1.3,0.6h0c0.4-0.2,0.9-0.2,1.3-0.2C131.4,5.7,132.9,6.7,133.5,8.3
		z"/>
</g>
</svg>
