<?xml version="1.0" encoding="utf-8"?>
<!-- Generator: Adobe Illustrator 19.2.1, SVG Export Plug-In . SVG Version: 6.00 Build 0)  -->
<svg version="1.1" id="Layer_1" xmlns="http://www.w3.org/2000/svg" xmlns:xlink="http://www.w3.org/1999/xlink" x="0px" y="0px"
	 viewBox="100 89.2 180 175.7" style="enable-background:new 100 89.2 180 175.7;" xml:space="preserve">
<style type="text/css">
	.st0{fill:#1976D2;}
</style>
<g id="icon-motionsickness">
	<path class="st0" d="M279.3,220.3c-0.7-2.1-1.4-4.3-2-6.4c-0.7-2.4-1.3-4.7-1.9-7.1c-0.2-0.8-0.2-1.8-0.7-2.5
		c-1.6-2.6-1.6-5.7-2.3-8.5c-0.1-0.4,0-0.8,0.1-1.2c0.3-1.3,0.4-2.6-0.4-3.8c-0.5-0.7-0.9-1.4-1.2-2.2c-0.3-0.7-0.5-1.5-0.8-2.2
		c-1.8-3.9-3.6-7.9-5.4-11.8c-0.4-0.8-0.9-1.7-1.6-2.3c-2.3-1.8-4.6-3.4-7-5.1c-1.2-0.8-2.6-1.5-3.9-2.3c-1.1-0.7-2-1.7-3.1-2.4
		c-2.5-1.6-4.6-3.5-6.1-6c-0.9-1.6-1.6-3.3-2.6-4.8c-1.3-2-2.4-4.1-2.9-6.5c-0.6-2.6-1.1-5.2-1.7-7.8c-0.7-3-1.5-6.1-2.2-9.1
		c-1.4-6.4-3.5-12.6-6-18.7c-1.1-2.8-3.1-5.1-4.7-7.6c-2.1-3.3-4.7-6.2-7.6-8.8c-1-0.8-2-1.6-3.3-1.9c-1.7-0.4-3.4-0.7-5-1.3
		c-1.6-0.6-3.3-0.9-5-0.8c-1.8,0.1-3.7,0.6-5.5,0.5c-1.8-0.1-3.5,0.5-5.1,0.9c-2.7,0.6-5.3,1.7-8,2.4c-3.3,0.9-6.4,2-9,4.4
		c-3.1,2.8-6.4,5.5-8.9,9c-2.3,3.4-4,7-5,11c-0.5,2-0.7,4-1.3,6c-1.5,4.7-2.5,9.5-3,14.4c-0.4,4-0.6,8-0.7,12.1c0,1.1-0.3,1.7-1.4,2
		c-2.4,0.6-4.9,1.2-7.3,1.8c-4.5,1-8.9,2.3-13.1,4.1c-2.2,0.9-4.2,2.1-5.6,4.2c-0.8,1.2-2,2.2-3,3.3c-0.9,1-1.9,2-2.8,3
		c-0.5,0.6-0.9,1.4-1.4,2c-1.7,2.3-3.6,4.4-4.7,7.1c-0.1,0.2-0.2,0.4-0.4,0.6c-0.8,0.6-0.6,1.1,0,1.8c1.2,1.6,1.1,1.1,0.3,2.6
		c-0.5,1.1-0.8,2.2-1.2,3.4c-0.3,0.9-0.4,1.9-0.7,2.8c-1.3,3.2-2.7,6.5-4.1,9.7c-1,2.3-2.1,4.6-3.3,6.8c-1.3,2.3-2.8,4.4-4.2,6.6
		c-0.8,1.3-1.6,2.7-2.3,4v2.7c0.3-0.6,0.7-1.1,1-1.7c2.3-3.9,4.9-7.6,7-11.5c2.2-4.1,4.3-8.3,5.8-12.7c0.6-1.9,1.4-3.7,2-5.6
		c0.4-1,0.6-2.1,1-3.2c0.1-0.3,0.3-0.5,0.5-0.9c0.7,1,1.2,1.9,1.8,2.7c1.3,1.7,2.6,3.4,3.8,5.1c2.8,4,5.7,8,7.8,12.3
		c1.2,2.4,2.1,4.9,3.1,7.4c0.1,0.3,0.2,0.6,0.4,0.8c0.8,1.1,0.6,2.4,0.7,3.7c0,0.2-0.2,0.5-0.4,0.6c-1.1,0.8-2.3,1.5-3.4,2.4
		c-1.6,1.2-3.1,2.4-4.7,3.5c-2.3,1.6-4.7,3.2-7,4.8c-0.1,0.1-0.3,0.1-0.4,0.2c-3,2.8-6.9,3.8-10.5,5.2c-2.9,1.1-5.7,2.3-8.5,3.7v1.7
		c4.2-2.1,8.6-3.9,12.9-5.5c3.7-1.4,6.9-3.7,10.1-6c3.6-2.5,7.2-5,10.7-7.6c2.3-1.7,4.7-3.4,6.9-5.3c1.5-1.3,2.7-2.9,4.1-4.3
		c3.1-3.1,6.6-5.7,10.2-8.1c1-0.7,2-1.6,2.6-2.6c1.6-2.3,3.7-3.5,6.3-4.5c2.5-0.9,5-0.6,7.4-1.1c1.5-0.3,3.1-0.3,4.4-0.5
		c0.2,1.2,0.2,2.2,0.4,3.2c0.1,0.3,0.7,0.8,0.9,0.7c0.6-0.2,0.5-0.7,0.3-1.2c-0.4-1-0.3-1.9,0.6-2.6c0.4-0.3,0.9-0.3,1.4-0.4
		c1-0.1,1.9-0.2,3-0.4c-0.3,1.6-0.6,3.2,0.7,4.4c1.3,1.1,2.8,0.3,4.2-0.3c0,0.1,0.1,0.2,0.1,0.3c-0.6,0.4-1.1,0.9-1.8,1.1
		c-1.5,0.5-3,0.9-4.5,1.1c-3.3,0.4-6.6,0.7-9.9,1.1c-0.9,0.1-1.9,0.3-2.8,0.5c-0.4,0.1-0.7,0.5-0.9,0.8c-0.1,0.1,0.2,0.6,0.3,0.6
		c0.4,0.1,0.8,0,1.2-0.1c1.1-0.2,2.1-0.5,3.2-0.6c1.5-0.2,2.9-0.3,4.4-0.4c1.8-0.1,3.5,0.1,5.3,0.6c2.5,0.6,5,0.6,7.6,0.3
		c4.6-0.5,8.7-2.2,12.7-4.5c2.2-1.3,4.4-2.4,6.6-3.6c0.2-0.1,0.4-0.1,0.6-0.2c-0.2,1.6-0.7,3.1,0.4,4.6c-0.5,0.3-1,0.6-1.4,0.9
		c-2.7,2-5.5,3.9-8.2,5.9c-1.7,1.3-3.8,1.7-5.8,2.3c-1.9,0.6-3.7,1-5.6,1.6c-3.3,1-6.6,2.1-10.1,2.2c-0.3,0-0.5,0.4-0.8,0.6
		c0.3,0.3,0.6,0.7,0.8,0.7c1.2-0.1,2.5-0.1,3.7-0.4c3.3-0.9,6.6-1.8,9.9-2.8c1.4-0.4,2.8-0.7,4.2-1c2.5-0.5,4.4-1.9,6.3-3.5
		c2.8-2.3,5.8-4.3,9.3-5.6c1.7-0.6,3.2-1.6,4.8-2.5c0.5-0.2,0.9-0.4,1.5-0.6c-2.3,1.7-3.2,3.7-1.8,6.4c-0.3,0.2-0.5,0.4-0.8,0.6
		c-3.1,2-6.1,4.1-9.2,5.9c-1.7,1-3.6,1.6-5.5,2.2c-3.5,1.1-6.6,2.8-9.8,4.5c-2.6,1.4-5.3,2.4-8.2,2.3c-0.4,0-0.8-0.2-1.2-0.3
		c-0.3-0.1-0.7-0.2-0.9,0c-0.2,0.2-0.4,0.6-0.3,0.9c0.1,0.2,0.5,0.5,0.8,0.6c3.1,0.7,6.1-0.1,8.9-1.4c2.4-1.1,4.6-2.5,7-3.6
		c2.6-1.1,5.3-1.9,7.9-2.9c1.5-0.6,2.9-1.5,4.3-2.4c1.6-1,3.2-2,4.8-3c0.6-0.4,1.2-0.8,2-1.3c0,1,0,1.9,0,2.8c0,0.2-0.2,0.6-0.5,0.7
		c-1.9,1.1-3.8,2.2-5.7,3.1c-4.7,2.2-9.5,4.3-14.3,6.4c-2.9,1.2-5.8,2.5-8.8,3.4c-1.3,0.4-2.8,0.1-4.2-0.1c-1.4-0.2-2.8-0.5-4.2-1
		c-1.9-0.6-3.9-0.4-5.8-0.4c-1.7,0-3.4,0.1-5.1,0.2c-0.9,0-1.6,0.4-2.3,0.9c-3.8,2.6-6.7,6-10,9.1c-3.5,3.3-6.7,6.8-10.1,10.2
		c-2.2,2.2-4.4,4.3-7.2,5.9c-2.8,1.6-4.9,3.9-6.9,6.4c-0.6,0.8-1.3,1.5-2,2.2c-2.6,2.9-5.2,5.8-7.9,8.6c-1.2,1.3-2.7,2.4-4,3.6
		c-0.1,0.1-0.3,0.2-0.4,0.4h2.1c2.9-2.1,5-5,7.3-7.7c1.2-1.4,2.6-2.6,3.9-4c1.8-1.9,3.4-3.9,5.3-5.7c1.4-1.3,3-2.3,4.6-3.5
		c0.1,0.1,0.2,0.1,0.3,0.2c0.1,2.7,0.2,5.3,0.3,8c0.2,2.5,0.5,5,0.7,7.6c0.1,1.7,0.1,3.5,0.2,5.2h96c3.3-1.4,6.6-2.9,9.9-4
		c2.7-0.9,5.1-2.1,7.4-3.7c0.6-0.4,1-0.4,1.6-0.1c2.8,1.4,5.6,2.7,8.6,3.4c1.3,0.3,2.5,0.8,3.7,1.1c0.5,0.2,1.1,0.2,1.4-0.4
		c0.2-0.6,0-1.1-0.6-1.3c-1.7-0.6-3.4-1.2-5.2-1.8c-2-0.7-3.9-1.3-5.9-2c-0.4-0.2-0.8-0.7-0.9-1.2c-0.5-2.2-0.8-4.4-1.4-6.5
		c-1.2-4.8-2.6-9.5-3.9-14.3c-0.6-2.2-0.9-4.5-1.4-6.7c-0.3-1.2-0.7-2.4-1.2-3.5c-0.5-1.2-0.5-1.6,0.4-2.4c3.5-3.2,7.1-6.5,10.7-9.6
		c3-2.6,5.3-5.8,7.6-9c0.9-1.3,1.9-2.7,2.8-4.1c0.5,1.6,1.1,3.3,1.6,4.9c0.9,3,1.6,6,2.5,9c0.6,1.9,1.4,3.8,2,5.7
		c0.8,2.8,1.5,5.6,2.3,8.4c0.2,0.7,0.5,1.3,0.7,2v-6.9C279.7,221.3,279.5,220.8,279.3,220.3z M177.2,189.6c-3.1,0.4-6.2,0.7-9.3,1
		c-0.1,0-0.2,0-0.3,0c-1.9,0.1-1.9,0.1-1.9-1.9c0-1.6,0-3.1-0.1-4.7c-0.1-1.8,0.2-3.5,0.6-5.3c0.4-1.9,0.6-3.9,1-5.8
		c0.3-1.4,0.8-2.7,1.3-4.1c0.1-0.4,0.3-0.8,0.5-1.2c0.2,0.4,0.4,0.7,0.6,1.1c1.1,2.6,2.2,5.3,3.4,7.9c1.4,2.8,3.3,5.2,5.9,7
		c1.1,0.7,2.2,1.5,3.1,2.3c0.7,0.7,1.2,1.6,1.7,2.4c0,0.1-0.1,0.2-0.1,0.3C181.5,189.1,179.3,189.4,177.2,189.6z M186.8,192.3
		c0.1,1.1-0.4,1.5-1.3,1.8c-1.3,0.4-2.2-0.2-2.3-1.5c-0.2-1.6,0.7-2.9,2.6-2.9c0.4,0,0.9,0,1.2,0
		C186.9,190.7,186.7,191.5,186.8,192.3z M187.3,188.5c-1.8,0.3-2.7-0.6-3.6-2c-0.5-0.8-1.3-1.5-2.1-2.1c-2.5-1.8-5-3.7-6.6-6.4
		c-1.4-2.4-2.4-5.1-3.6-7.7c-1.2-2.8-2.5-5.5-3.5-8.3c-0.7-2-1-4.2-1.5-6.3c-0.7-3.4,0.4-6.5,1.5-9.7c1.1-3.3,2.8-6.4,4.4-9.5
		c0.6-1.1,1.6-2,2.4-2.9c0.5-0.6,1.3-0.8,2.1-0.7c2.1,0.2,4.3,0.4,6.4,0.6c0.4,0,0.8,0,1.2,0c1-0.1,1.6-0.8,1.6-1.8
		c0-0.6,0-1.1,0-1.7c-0.1,0-0.1,0-0.2,0c0.3-2.2,0.7-4.4,1-6.6c0.1-0.9,0.3-1.8,0.3-2.6c0-2,0.4-4,1.1-5.8c0.6-1.5,1-3,1.5-4.5
		c0.3-0.7,0.8-1.3,1.2-1.8c1.1-1.2,2.4-2.3,3.5-3.6c1.5-1.8,2.2-3.9,2.7-6.1c0.1-0.3,0.2-0.7,0.4-0.9c0.2-0.2,0.6-0.5,0.9-0.4
		c0.3,0.1,0.7,0.5,0.7,0.7c0,1-0.1,1.9-0.4,2.9c-0.9,3.5-3.2,6.1-5.8,8.5c-0.9,0.8-1.4,1.8-1.9,2.9c-1.3,3.2-1.5,6.6-2.1,10
		c-0.3,1.7-0.8,3.4-0.9,5.1c-0.2,1.6-0.1,3.3,0,5c0.1,1,0.8,1.6,1.7,1.9c1.8,0.7,3.6,0.3,5.4,0.2c1.7-0.1,3.5,0,5.3,0.1
		c1,0.1,2.1,0.3,3.1,0.5c1.7,0.4,3.1,1.3,4.2,2.7c1.8,2.3,3.6,4.7,4.4,7.6c0.9,3.4,1.5,6.8,2.4,10.2c0.4,1.5,0.9,3.1,1.7,4.4
		c0.9,1.6,0.7,3.1,0.6,4.8c-0.3,4.6-2.6,8.1-5.3,11.6c-2.4,3.1-5.3,5.6-8.1,8.2c-0.6,0.5-1.3,0.9-1.8,1.4c-1,0.9-1.9,1.8-2.8,2.8
		c-1.4,1.7-3.2,2.7-5.4,2.7c-1,0-2-0.2-3-0.4c-0.2,0-0.4-0.4-0.6-0.6c-0.2-0.4-0.4-0.9-0.6-1.3C188.8,188.8,188.2,188.4,187.3,188.5
		z M187.7,193.1c0.1-0.8,0.2-1.6,0.3-2.5C188.6,191.4,188.6,192.5,187.7,193.1z M210.6,195.6c-0.2-0.2-0.4-0.4-0.5-0.5
		c-0.5-0.9-0.2-3.3,0.6-3.8c0.6-0.4,1.5-0.5,2.3-0.5c0.6,0,0.9,1.2,0.5,1.6C212.7,193.4,211.7,194.5,210.6,195.6z M217.7,196
		c0.4-0.4,0.8-0.7,1.3-1.1c0.8-0.6,2.5-0.2,3,0.6c0.1,0.1,0,0.4-0.1,0.5c-1.5,1.2-2.9,2.4-4.4,3.6c0,0-0.1,0-0.2,0.1
		C216.5,198.5,216.6,197,217.7,196z M203.1,213.8c2.8-1.3,5.7-2.7,8.6-3.9c0.6-0.3,1.5,0.1,2.3,0.2c-0.8,0.6-1.5,1-2,1.7
		c-0.5,0.6-0.7,1.4-1.1,2.4c-2.5,0.2-5.3,0.3-8.3,0C202.8,214,202.9,213.9,203.1,213.8z M216.4,211.2c0.5,0.8,0.1,2.1-1,2.4
		c-0.8,0.3-1.8,0.4-2.9,0.6C212.9,211.6,214.8,211.6,216.4,211.2z M216.6,216.9c-0.5,0.9-0.9,1.9-1.2,2.9c-1.7,4.6-4.7,8.2-8.4,11.2
		c-2.1,1.7-4.5,2.7-6.9,3.7c-1.1,0.5-2.3,0.6-3.5,0.7c-3.8,0.4-7.6,0.9-11.5,1.1c-2.3,0.1-4.5-0.6-6.8-0.9c-2.1-0.3-3.6-1.5-4.9-3
		c-0.9-1-1.7-2-2.7-3c-1-0.9-1.1-2.1-1.5-3.3c-0.4-1.2-0.6-2.5-1-3.7c-0.3-0.9-0.7-1.8-1.1-2.7c-0.2-0.6-0.1-0.8,0.6-0.9
		c3.9-0.2,7.7-0.5,11.5,0.5c2.3,0.6,4.7,0.6,7.1,0.8c0.4,0,0.9-0.1,1.4-0.3c1.6-0.6,3.1-1.4,4.6-2c2.3-0.9,4.6-2,7-2.7
		c1.3-0.4,2.7,0,4.1,0c2.4,0,4.7,0.1,7.1,0c1.6-0.1,3.3-0.3,4.9-0.5c0.4-0.1,0.8-0.2,1.3-0.3C217.2,215.5,217,216.1,216.6,216.9z
		 M218.1,211c-0.9-1.6-2.6-1.8-4.3-2.3c1.9-1.2,3.7-2.2,5.6-3.3C219.6,207.6,219.4,209.4,218.1,211z M221.3,203.1
		c-1.4,0.7-2.8,1.3-4.3,1.9c-0.2-1.6,0.1-2.9,1.3-3.8c1.1-0.9,3.1-0.1,3.3,1.4C221.6,202.7,221.5,203,221.3,203.1z M221.5,200
		c-0.6-0.2-1-0.4-1.6-0.6c0.7-0.6,1.3-1.1,1.9-1.5c0.1,0.1,0.2,0.1,0.2,0.2C221.9,198.6,221.7,199.3,221.5,200z M224,177.8
		c-0.3,0.8-0.2,1.8-0.3,2.6c-0.1,0.8-0.3,1.5-0.3,2.3c-0.1,1.2-0.3,2.4-0.4,3.7c-0.1,2,0,4.1,0,6.1c0,1.2-0.7,1.6-1.8,1
		c-0.9-0.4-1.7-1-2.7-0.8c-0.8,0.2-1.5,0.4-2.2,0.7c-0.9,0.4-1.8,0.9-2.9,1.2c0.3-0.3,0.6-0.6,0.9-0.9c0.9-0.8,1-1.8,0.6-2.8
		c-0.5-1.1-1.3-1.6-2.5-1.6c-2.3-0.1-4.1,1.2-5.9,2.2c-2.8,1.5-5.6,3.2-8.5,4.6c-2.9,1.4-6,2.4-9.3,2.7c-2,0.2-3.9,0-5.8-0.2
		c-0.1,0-0.1-0.1-0.2-0.2c0.9-0.2,1.8-0.5,2.6-0.7c2.2-0.5,3.6-2,4.2-4.1c0.2-0.8,0.7-0.8,1.2-0.7c1.7,0.2,3.4,0.3,5.1-0.2
		c1.3-0.3,2.4-1.1,3.1-2c1.5-1.9,3.3-3.2,5.1-4.8c2.6-2.3,5-4.8,7.4-7.4c2.1-2.2,3.8-4.7,5.1-7.4c0.7-1.6,1.2-3.3,1.2-5.2
		c0-0.4,0.3-0.8,0.4-1.1c0.3,0.3,0.6,0.5,0.9,0.8c0.8,1.1,1.6,2.3,2.4,3.4c0.6,0.9,1.3,1.7,1.8,2.6
		C223.8,173.6,224.8,175.5,224,177.8z M244.6,206.5c0-0.6,0.3-1.3,0.4-1.9c0.2-0.8,0.3-1.6,0.4-2.4c0-0.1,0-0.2,0-0.4
		c0.1-0.7,0.4-1.2,1.2-1.1c0.7,0.1,0.9,0.7,0.8,1.4c-0.1,1-0.4,1.9-0.5,2.9c-0.2,0.9-0.4,1.9-0.5,2.9c-0.1,2.9,0,5.8,0,8.7
		c0,1.2-0.3,2-2,1.6C244.6,214.2,244.6,210.4,244.6,206.5z M249.7,230.9c0.4,1.3,0.8,2.6,1.1,3.9c1,4.2,1.9,8.5,2.8,12.7
		c0.4,1.7,1.1,3.4,1.5,5.2c0.5,2.1,0.7,1.6-1.2,3.1c-2.6,2.2-5.8,3.2-9,4.3c-3,1-6,2.4-9,3.5c-0.3,0.1-0.7,0.3-1.2,0.5
		c0.1-2.8,0.1-5.5,0.9-8.2c0.4-1.3,0.7-2.7,0.9-4.1c0.3-2,1-3.9,1.9-5.6c1.7-3.2,2.7-6.7,3.6-10.2c0.9-3.4,1.8-6.8,2.7-10.3
		c0.2-0.9,0.7-1.4,1.6-1.6c0.4-0.1,0.8-0.3,1.2-0.5C248.4,226,249,228.4,249.7,230.9z"/>
	<path class="st0" d="M179.4,155.8c-0.9-0.3-1.8-0.7-2.7-1c-1.4-0.5-2.8-1.1-4.2-1.6c-0.7-0.3-1.5-0.4-2.3-0.5
		c-0.6-0.1-0.9-0.3-0.7-0.9c1.2-0.5,2.3-0.2,3.4,0.3c2.8,1.2,5.5,2.3,8.5,2.8c0.3,0,0.8,0.4,0.8,0.7c0.1,0.7,0.5,0.9,1.1,1.1
		c0.2,0.1,0.4,0.2,0.5,0.3c0.2,0.2,0.6,0.6,0.5,0.8c-0.1,0.3-0.4,0.6-0.7,0.8c-0.4,0.2-0.9,0.3-1.4,0.6c-3.3,1.9-6.4,1.3-9.3-1
		c-0.5-0.4-0.9-1-1.3-1.5c-0.1-0.2-0.2-0.5-0.1-0.6c0.2-0.2,0.5-0.2,0.7-0.2c0.9,0.1,1.8,0.2,2.7,0.3c1,0.1,1.9,0.1,2.9,0.2
		c0.5,0,1-0.1,1.6-0.1C179.4,156,179.4,155.9,179.4,155.8z M179.7,158.9c0.5-0.1,1-0.2,1.4-0.5c0.4-0.2,0.7-0.6,1-0.9
		c-0.5-0.2-0.9-0.4-1.4-0.5c-0.3-0.1-0.6,0-0.7,0C180,157.7,179.9,158.2,179.7,158.9z M173.9,157.1c0,0.1-0.1,0.2-0.1,0.3
		c1,0.5,1.9,1.1,2.9,1.6c0.1-0.1,0.1-0.2,0.2-0.3c-0.3-0.6-0.5-1.3-1-1.6C175.3,156.9,174.5,157.1,173.9,157.1z"/>
	<path class="st0" d="M190.7,186.2c-2.2,0.2-3.9-0.8-5.6-2.2c-1.4-1.3-3.1-2.3-4.7-3.4c-0.2-0.1-0.3-0.3-0.4-0.5
		c0.2-0.1,0.4-0.3,0.6-0.3c0.6,0.1,1.1,0.3,1.6,0.3c1.2,0.1,2.4,0.1,3.5,0c1.1-0.1,2.2,0.1,3.3,0.6c0.4,0.2,1.1,0.2,1.6,0
		c1.2-0.6,2.4-0.5,3.6,0c1.3,0.5,2.7,0.8,4.2,0.5c0.4-0.1,0.9-0.1,1.3,0c0.2,0,0.5,0.3,0.7,0.4c-0.2,0.2-0.3,0.3-0.5,0.5
		c-0.7,0.5-1.5,0.9-2.2,1.3c-1.6,1.1-3.1,2.2-5,2.6C192.1,186.1,191.4,186.1,190.7,186.2z M183.4,181.4c0.8,0.7,1.7,1.4,2.4,2.2
		c1.8,1.9,4,2,6.3,1.8c1.8-0.2,3.2-1.2,4.7-2.1c0.3-0.2,0.5-0.4,1-0.8C192.8,182.4,188,183,183.4,181.4z M185.6,181
		c3.1,1.1,6.4,0.9,9.7,0.8c-1.7-1-3.3-1.2-5.1-0.3c-0.3,0.1-0.8,0-1.1-0.1C188,180.9,186.9,180.6,185.6,181z"/>
	<path class="st0" d="M200.6,156.6c1.6,0.2,2.7,0.3,3.9,0.4c1.1,0,2.3-0.1,3.4-0.1c0.4,0,0.7,0.1,1.1,0.1c-0.1,0.5-0.1,1.1-0.4,1.4
		c-2.2,1.6-4.6,2.8-7.5,2.4c-2-0.3-3.4-1.4-4.9-2.3c-0.2-0.1-0.3-0.4-0.3-0.6c0.1-0.2,0.3-0.4,0.6-0.5
		C198,157.1,199.5,156.8,200.6,156.6z M200.8,159.9c-0.2-0.9-0.3-1.5-0.5-2.3c-0.8,0.2-1.7,0.3-2.5,0.5c0,0.2,0,0.3-0.1,0.5
		C198.7,159,199.8,159.5,200.8,159.9z M204.1,159.7c0.9-0.4,1.8-0.8,2.6-1.2c0.2-0.1,0.3-0.4,0.5-0.6c-0.3-0.1-0.5-0.3-0.8-0.2
		c-0.7,0.1-1.4,0.3-2,0.4C204.3,158.5,204.2,159,204.1,159.7z"/>
	<path class="st0" d="M207.8,152.3c1,0.2,1.7,0.3,2.4,0.4c0.4,0,0.8,0,1.1,0c0.3,0.1,0.6,0.2,0.9,0.4c-0.2,0.3-0.5,0.7-0.8,0.8
		c-0.6,0.1-1.3,0-1.9-0.1c-1.8-0.5-3.3,0.1-4.9,0.8c-2.3,1-4.6,1.8-7.2,1.9c-0.4,0-0.7,0.2-1.1,0.2c-0.3,0-0.7-0.2-1-0.3
		c0.2-0.3,0.4-0.7,0.7-0.8c0.5-0.2,1.1-0.3,1.7-0.4c2.6-0.2,4.9-1.2,7.3-2.1C206,152.7,207,152.5,207.8,152.3z"/>
	<path class="st0" d="M184.4,168.4c0.7,0.5,0.6,1.2,0.6,1.8c0,0.4-0.1,0.9-0.3,1.3c-0.6,1.3-0.2,2.5,0.6,3.5
		c1.7,2.1,3.6,2.7,5.9,0.7c0.8-0.7,1.8-1.3,2.7-1.9c1.1-0.7,1.6-1.8,1-3c-0.2-0.4-0.4-0.7-0.7-1.1c0.4-0.3,0.7-0.6,0.9,0.1
		c0.2,0.7,0.5,1.3,0.5,2c0.1,1.2-0.6,2-1.7,2.6c-0.8,0.4-1.6,1-2.3,1.6c-2.8,2.7-5.3,1.7-7.4-1c-0.8-1-1-2.2-0.6-3.4
		C184.1,170.5,184.2,169.5,184.4,168.4z"/>
</g>
</svg>
