<?xml version="1.0" encoding="utf-8"?>
<!-- Generator: Adobe Illustrator 19.2.1, SVG Export Plug-In . SVG Version: 6.00 Build 0)  -->
<svg version="1.1" id="Layer_1" xmlns="http://www.w3.org/2000/svg" xmlns:xlink="http://www.w3.org/1999/xlink" x="0px" y="0px"
	 viewBox="0 0 200 182.1" style="enable-background:new 0 0 200 182.1;" xml:space="preserve">
<style type="text/css">
	.st0{fill:#7B1FA2;}
</style>
<g id="icon-stuffynose">
	<path class="st0" d="M0,171.3c3.7-2.9,7.5-5.9,11.2-8.8c1.3-1,2.4-2.2,3.7-3.2c2.3-2,5.1-2.7,7.9-3.5c2-0.6,4.1-1.1,6.1-1.8
		c2.2-0.7,2.1-0.9,3.8-2.4c2.4-2.2,4.7-4.6,6.5-7.3c1.5-2.3,2.1-4.8,2.6-7.5c0.2-1.3,0.7-2.6,1-3.9c0.6-2.8,1.2-5.5,1.6-8.3
		c0.2-1.2,0.2-2.5,0.2-3.7c0-9,0-18,0-26.9c0-2.2,0.7-4.1,1.1-6.2c0.4-2,0.9-4,1-6c0.1-2.6,0.7-5.2,1.1-7.7c0.1-0.3,0.1-0.7,0.1-1
		c0.1-2.9,0-5.9,0.2-8.8c0.1-1.5,0.6-3,0.9-4.6c0.3-1.7,0.7-3.4,1.1-5c0.2-0.8,0.4-1.5,0.6-2.3c0.4-1.9,0.7-3.9,1.2-5.8
		c1-3.6,2.6-6.9,4.9-9.8c1.1-1.3,1.8-3,2.7-4.5c1-1.7,1.9-3.4,2.9-5c0.9-1.5,1.6-3.1,2.6-4.5c0.7-1,1.4-2,2.3-2.8
		c1.8-1.7,3.8-3.2,5.7-4.8c4.5-3.7,9-7.3,14.5-9.4c2.1-0.8,3.9-2.1,6-2.9c2.9-1.2,5.9-1.9,9.1-2.1c1-0.1,2.1-0.2,3.1-0.4
		c2.5-0.4,5,0.1,7.5,0.5c2.5,0.4,4.9,0.9,7.3,1.5c2,0.6,3.9,1.6,5.9,2.2c2.6,0.8,4.8,2.4,7.1,3.7c1.5,0.9,3.3,1.2,5,1.8
		c1.9,0.7,4,1.1,5.6,2.1c1.7,1.1,3.2,2.3,5,3.2c0.7,0.4,1.3,1,1.9,1.6c1.1,1.1,2.3,2.3,3.3,3.5c1.2,1.4,1.8,3.2,2.2,5
		c0,0.2,0,0.4,0.1,0.6c1.3,2.5,2.6,5.1,4.1,7.5c1,1.6,1.8,3.3,1.9,5.1c0.1,1.3-0.3,2.7-0.6,4c-0.4,1.7-0.6,3.4-0.4,5.1
		c0.4,3.5,0.7,7,0.8,10.5c0,1.9-0.5,3.8-0.6,5.7c-0.1,2.5,0,5.1,0.1,7.7c0,0.4,0.2,0.8,0.4,1.1c1.7,2.8,1.3,5.9,0.9,8.9
		c-0.3,2-0.5,4-0.2,6.1c0.4,2.3,0.5,4.6,0.8,6.9c0.2,1.9,0.7,3.8,0.7,5.8c0,2-0.4,4-0.6,6c0,0.3-0.1,0.6-0.1,0.8
		c0,1.2-0.1,2.4-0.6,3.6c-0.5,1.3-0.6,2.8-0.8,4c1,0.4,1.8,0.8,2.6,1.1c1.5,0.5,3,1,4.5,1.5c0.9,0.3,1.9,0.6,2.8,0.9
		c2.1,0.9,4.1,1.9,6.3,2.7c1.7,0.6,2.2,1.7,2.3,3.3c0,0.6,0.1,1.2,0,1.7c-0.2,1.1,0.5,1.5,1.3,1.9c0.9,0.5,1.8,1.2,2.7,1.7
		c0.3,0.2,0.5,0.4,0.8,0.6c0.9,0.6,1.8,1.1,2.6,1.7c0.9,0.6,0.9,1.4,0.7,2.3c-0.7,2.6-2.1,4.7-3.8,6.8c-2.2,2.8-5.2,4.2-8.4,5.4
		c-0.2,0.1-0.5,0.2-0.7,0.2c-0.1,0-0.2,0.1-0.2,0.1c0.9,3.5,1.9,6.9,2.8,10.4c0,0.1,0.1,0.2,0.1,0.3c-0.2,1.8,1.1,2.3,2.5,2.8
		c1,0.4,1.9,1,2.9,1.3c3.5,0.9,6.2,3.2,9.3,4.7c1,0.5,1.6,1.4,2,2.5c1.5,4.5,3,9.1,4.6,13.6c-0.5,0-1,0-1.5,0
		c-1.5-4.3-2.9-8.5-4.3-12.8c-0.4-1.1-1-1.8-2-2.4c-1.1-0.6-2.2-1.3-3.3-2c-0.9-0.6-1.9-1.2-2.9-1.6c-1.3-0.6-2.8-1.1-4.1-1.6
		c-0.8-0.3-1.6-0.6-2.7-1c0.1,0.9,0.2,1.4,0.3,2c0.2,3.2,0.4,6.3,0.6,9.5c0.1,3.3,0.1,6.6,0.2,9.9c-0.4,0-0.9,0-1.3,0
		c-0.1-0.5-0.2-1-0.2-1.5c-0.1-3.7-0.1-7.5-0.2-11.2c0-0.6,0-1.3-0.1-1.9c-0.3-3-0.5-6-0.9-8.9c-0.2-1.9-0.5-3.7-1-5.5
		c-0.8-2.7-1.8-5.4-2.5-8.1c-1-4-1.8-8.1-2.7-12.2c-0.2-0.7-0.3-1.5-0.6-2.2c-0.4-1.1-1.2-1.4-2.1-0.6c-0.7,0.6-1.3,1.3-2,2.1
		c1.2,1.3,1.2,2.9,1.1,4.4c-0.1,1.9-0.3,3.7-0.4,5.6c-0.1,2.2-0.1,4.3,0,6.5c0.1,2.4,0.5,4.9,0.6,7.3c0.1,2.5,0.1,5.1,0.1,7.6
		c0,1.5-0.1,3,0.2,4.4c0.6,3.2,2.3,5.9,3.9,8.7c1,1.8,1.8,3.6,1.9,5.6c-0.4,0-0.9,0-1.3,0c-0.3-2.3-1.4-4.3-2.5-6.2
		c-0.6-1.2-1.3-2.4-1.9-3.6c-1.3-2.6-1.9-5.4-1.6-8.3c0-0.2-0.1-0.5-0.2-0.6c-0.6-0.8-1.3-1.6-2.1-2.6c-0.2,0.5-0.4,0.8-0.4,1
		c-0.2,1.6-0.4,3.3-0.6,4.9c-0.4,3.1-0.1,6.1,0.6,9.1c0.5,2.1,0.9,4.2,1.4,6.3c-0.4,0-0.9,0-1.3,0c-0.8-3.4-1.7-6.8-2-10.4
		c-0.3-4-0.1-7.9,0.9-11.9c0.6-2.4,1-4.8,1.4-7.3c0.6-3.8,1-7.6,1.5-11.5c0.2-1.4,0.2-2.8,0.3-4.4c-1.2,0.8-2.1,1.4-3.1,2
		c-1.5,0.9-2.7,0.6-3.8-0.7c-0.2-0.2-0.4-0.3-0.6-0.6c-0.2,0.5-0.3,0.9-0.4,1.3c-0.5,2-0.9,4-1.5,6c-0.7,2.5-1.6,5-2.4,7.4
		c-0.2,0.6-0.1,1,0.5,1.1c0.9,0.2,1.7,0.4,2.6,0.6c0.5,0.1,0.9,0.5,0.7,1c-0.1,0.3-0.7,0.4-1.1,0.4c-1.1-0.1-2.1-0.4-3.2-0.6
		c0,0.1-0.1,0.2-0.1,0.3c-0.4,2.2-0.6,4.5-1.2,6.7c-1,4.2-1.5,8.5-1.5,12.9c0,0.7-0.1,1.4,0.1,2.1c0.1,0.6,0.1,1-0.5,1.1
		c-0.6,0.1-1.1-0.3-1.1-0.9c0.1-3.4,0.1-6.9,0.5-10.3c0.3-3,1-6,1.6-9c0.5-2.5,0.9-5,1.7-7.4c0.6-1.9,0.9-3.8,1-5.7
		c0.1-4.3,0.1-8.5,0.2-12.8c0-0.3,0.1-0.6,0.1-0.9c0.2-2.4,0.4-4.8,0.6-7.3c0-0.6,0-1.2,0-1.9c-3,3.5-5.1,4-8.2,1.5
		c-0.1,0.8-0.3,1.6-0.4,2.4c-0.3,3.4-0.6,6.7-1,10.1c-0.2,2.4-0.9,4.7-2,6.9c-0.7,1.3-1,2.8-1.4,4.3c1.4,0.4,2.7,0.7,3.8,1.2
		c0.3,0.1,0.5,0.6,0.7,0.8c-0.3,0.2-0.6,0.5-0.9,0.5c-0.6,0-1.1-0.3-1.6-0.4c-0.7-0.2-1.4-0.3-2.3-0.5c-0.2,1.9-0.4,3.7-0.4,5.4
		c-0.1,1.4,0.1,2.9-0.1,4.3c-0.4,3.3-1,6.5-1.5,9.8c0,0.3-0.5,0.5-0.7,0.7c-0.2-0.2-0.6-0.5-0.6-0.7c0-1.5-0.1-3.1,0.3-4.6
		c0.8-3,1.1-6,1-9.1c-0.1-4,0.7-8,2.2-11.7c1.9-4.5,2.4-9.2,2.8-13.9c0.2-2.9,0.3-5.8,1.3-8.6c0.3-1,0.5-2.1,0.8-3.3
		c-1,0.7-1.9,1.3-2.7,1.8c-2.6,1.4-3.9,1.3-5.9-0.7c-0.1,0.1-0.2,0.3-0.2,0.4c-0.4,1.8-0.8,3.6-1.2,5.4c-0.5,2.3-0.7,4.7-1.3,7
		c-0.8,3.3-1.8,6.5-2.8,9.7c-0.6,2.1-0.7,2.1,1.6,2.5c0.5,0.1,1,0.3,0.8,0.9c-0.1,0.3-0.7,0.5-1.1,0.5c-0.8-0.1-1.5-0.3-2.5-0.5
		c-0.4,2.3-0.8,4.7-1.3,7.1c-0.3,1.3-0.5,2.6-0.9,3.9c-0.9,2.9-1.8,5.8-2.7,8.6c-0.1,0.3-0.5,0.5-0.8,0.8c-0.2-0.3-0.5-0.6-0.6-1
		c-0.1-0.3,0-0.8,0.2-1.1c0.7-2.4,1.5-4.7,2.2-7.1c0.4-1.3,0.7-2.7,1-4.1c0.7-3,1.2-6,1.9-8.9c1-3.8,2.3-7.6,3.4-11.5
		c0.5-2.1,0.7-4.2,1.1-6.3c0.3-1.5,0.7-2.9,1.1-4.5c-2.7,2-5.4,1.9-7.2-0.1c-0.5,1.7-1.1,3.5-1.6,5.2c-0.7,2.1-1.3,4.2-2,6.2
		c-0.5,1.5-1.2,3-1.7,4.5c-0.5,1.6-0.9,3.2-1.3,4.8c0.9,0.2,1.7,0.3,2.5,0.6c0.2,0.1,0.5,0.6,0.5,0.9c0,0.2-0.5,0.5-0.8,0.5
		c-0.3,0-0.6-0.1-0.9-0.2c-1.4-0.3-1.9-0.1-2.3,1.3c-0.6,2.3-1,4.7-1.6,7.1c-0.3,1.4-0.9,2.8-1.1,4.2c-0.5,2.4-0.7,4.9-1.2,7.2
		c-0.4,1.7-1.1,3.3-1.5,5c-0.6,2.4-0.9,4.9-1.1,7.4c-0.2,2.6-0.9,5.2-1.4,7.9c-0.5,0-1,0-1.5,0c0.2-0.9,0.5-1.8,0.7-2.8
		c0.3-2,0.6-3.9,0.9-5.9c0.3-2.2,0.5-4.5,0.9-6.7c0.2-1.4,0.2-1.3-1.1-1.9c-1.7-0.7-3.4-1.4-4.9-2.4c-3.3-2.1-6.4-4.6-9.8-6.7
		c-2.8-1.7-4.9-4.1-6.9-6.6c-0.5-0.6-1-1.1-1.6-1.6c-1.2-0.9-1.3-1.2-0.4-2.3c1.1-1.4,2.2-2.7,3.4-4.1c0.6-0.6,0.5-1.2,0.1-1.8
		c-1.1-1.3-2.1-2.6-3.4-3.6c-1.6-1.4-3.1-2.8-4-4.8c-1.7-3.8-3.7-7.4-5.9-11c-0.9-1.4-1.4-3-2.1-4.5c-0.1-0.3-0.4-0.5-0.6-0.8
		c-0.2,0.3-0.4,0.6-0.4,1c-0.2,1.4-0.3,2.9-0.4,4.4c-0.2,3.1-1,6.1-1.9,9c-0.7,2.4-2.2,4.4-3.6,6.4c-1,1.4-2.4,2.6-3.8,3.6
		c-2,1.6-3.6,3.7-6,4.8c-1.1,0.5-1.3,1.2-1,2.4c0.1,0.5,0.3,1.1,0.5,1.5c1.1,2.2,2.2,4.3,3.3,6.5c0.8,1.7,2.1,3.1,3.4,4.4
		c1.8,1.7,3.7,3.3,5.1,5.4c1.5,2.2,3.3,4.1,5.5,5.8c1.8,1.4,3.6,3,5.3,4.6c1.2,1.1,2.4,2.1,3.5,3.3c1.3,1.4,2.5,2.9,3.7,4.4
		c-0.6,0-1.3,0-1.9,0c-0.6-0.9-1.1-1.9-1.8-2.6c-1.6-1.5-3.3-2.8-4.9-4.2c-0.8-0.7-1.5-1.5-2.4-2.2c-3.1-2.4-6-5-8.4-8.2
		c-1.2-1.6-2.7-3-4.1-4.5c-0.7-0.8-1.8-1.4-2.3-2.3c-1.7-2.6-3.3-5.3-4.7-8.1c-0.8-1.4-1.1-3.1-1.7-4.7c-0.2,0.1-0.5,0.2-0.8,0.3
		c-4.1,1.5-8.1,3.1-12.2,4.5c-3.4,1.2-6.8,2.4-10.2,3.5c-3.8,1.2-7.6,2.4-11.4,3.5c-2.9,0.9-5.7,1.7-8.1,3.7c-2,1.8-4.1,3.5-6.2,5.2
		c-3,2.5-6.1,4.9-9.1,7.3C0,172.6,0,171.9,0,171.3z M160.3,71.9c-0.3-3.8-0.3-7.7,0.4-11.5c0.2-1.3,0.3-2.6,0.2-3.9
		c-0.2-3.7-0.6-7.3-0.9-11c0-0.6-0.4-0.9-0.9-0.8c-3.1,0.7-6.2,1.5-8.6,3.9c-1.4,1.4-3.1,2.3-4.9,3.2c-1.2,0.6-2.4,0.9-3.8,0.6
		c-0.6-0.1-1.2-0.2-1.8-0.2c-1.1,0-2.1-0.3-3-0.9c-2.1-1.3-4.1-2.7-6.2-4c-1-0.6-2.2-1-3.2-1.6c-2.9-1.5-5.9-2.7-9.1-3.4
		c-1.2-0.3-2.3-0.6-3.2-1.4c-1.5-1.1-2.5-2.6-3.5-4.1c-0.6-0.8-1.3-1.6-2.1-2.3c-0.6-0.5-1.6-0.3-2,0.2c-0.5,0.7-0.5,1.4,0.1,2
		c0.8,0.9,1.5,1.9,2.2,2.9c1.5,2,3,3.9,5.4,4.8c1.5,0.6,3.1,1,4.7,1.5c2.5,0.8,5,1.7,7.2,3.1c0.3,0.2,0.7,0.5,0.7,0.6
		c-0.1,0.3-0.3,0.7-0.6,0.9c-0.6,0.3-1.3,0.5-2,0.5c-2.6,0.1-5.1,0.2-7.7,0.2c-4.1-0.1-7.9,0.7-11.7,2.2c-1.2,0.5-2.4,0.9-3.5,1.5
		c-2,1.2-3.8,2.7-4.5,5c-0.8,2.5-1.4,5-1.8,7.6c-0.3,1.8-0.8,3.3-2.2,4.5c-0.8,0.6-1.6,1.1-2.5,1.6c-2,1.2-4,2.3-6.1,3.5
		c-1.5,0.8-2.3,2.1-2.5,3.7c-0.5,3.2-0.9,6.4-1.4,9.6c-0.1,0.5-0.3,1.2-0.6,1.3c-1.9,1-3.8-0.1-4-2.3c-0.1-1.5-0.7-3-1.7-4.1
		c-2.2-2.4-4.8-4.1-8-4.9c-1.7-0.4-3.3-1-4.9-1.5c-1.3-0.4-2.5-1.2-4-1c-1.3,0.2-2.4,0.6-2.5,1.5c-0.2,1.2-0.4,2.5-0.2,3.6
		c0.3,1.7,0.8,3.3,1.4,4.9c1.6,4.5,3.9,8.6,6.9,12.3c1.7,2.1,3.4,4.1,5.6,5.7c2.5,1.7,5.3,2.1,8.1,2.5c0.3,0,1-0.4,1-0.7
		c0.2-1,0.3-2,0.3-2.9c0-1.1-0.1-2.2-0.5-3.1c-0.5-1-1.5-1.9-2.4-2.7c-0.6-0.6-1.5-0.5-2,0.2c-0.4,0.5-0.7,1.1-1,1.6
		c-0.5,0.7-1.2,1-2.1,0.8c-1.4-0.4-1.9-1.5-2.3-2.7c-0.5-1.4-1.2-2.6-2.5-3.4c-1-0.6-2.1-1.1-2.8-2c-2.6-2.7-4.1-5.9-4.1-9.8
		c0-2.5,1.2-3.5,3.6-3.2c0.5,0.1,1,0.2,0.9,0.9c-0.1,0.6-0.6,0.8-1.1,0.6c-1.4-0.4-2,0.6-2,1.7c0,2.8,0.9,5.3,2.7,7.5
		c0.6,0.8,1.4,1.5,2,2.2c0.1-0.1,0.2-0.1,0.2-0.2c0-0.2-0.1-0.4-0.1-0.6c-0.4-2.5,0.1-4.7,2.2-6.2c0.8-0.6,1.5-0.5,1.8,0.1
		c0.5,0.9-0.3,1.1-0.8,1.4C68.7,88,68.6,88,68.5,88c-1,0.3-1.5,1.2-1.5,2.1c0,1.3-0.1,2.8,0.5,3.9c1,1.8,2.2,3.5,3,5.5
		c0.3,0.8,0.9,0.7,1.5,0c0.4-0.5,0.7-1,1-1.5c0.6-0.9,2.6-1.5,3.5-0.8c2.2,1.7,3.9,3.7,3.8,6.8c-0.1,1.3-0.1,2.7-0.2,4
		c-0.1,1-0.8,1.5-1.7,1.7c-1.5,0.5-1.6,0.7-0.8,2.1c0.1,0.2,0.2,0.4,0.3,0.6c0.8,1.7,1.4,3.4,2.3,5c2.1,4,4.7,7.7,6.5,11.9
		c0.6,1.4,1.5,2.8,2.6,3.8c1.8,1.6,3.5,3.3,5,5.1c0.5,0.6,0.8,0.6,1.3,0c0.8-1.1,1.6-2.2,2.6-3.1c1.9-1.8,3.9-3.6,5.9-5.3
		c1.1-1,2.3-2.1,3.5-3c2.2-1.6,4.5-3.1,6.5-4.8c2.7-2.2,5.3-4.7,7.9-7c0.8-0.7,1.5-1.6,2.4-2.3c0.7-0.5,1.6-0.8,2.5-1.1
		c3.9-1.5,7.7-3,11.8-3.9c3-0.6,5.9-0.7,8.7,0.4c1.3,0.5,2.6,0.8,3.9,1.2c-0.8-1.6-1.7-3.2-2.4-4.8c-1.4-2.9-2.6-5.8-4-8.7
		c-1.1-2.3-1.8-4.6-1.7-7.1c0.1-1.6,0.2-3.3,1.6-4.4c1.2-1,2.6-1.9,4.1-2.6c1.9-0.8,3.9-1.3,6-1.4c2.2-0.1,4.4-0.2,6.5,1
		c0.7-2,0.7-3.9,0.5-5.8c-0.1-1.2-0.6-1.4-1.8-0.9c-3.5,1.4-6.9,3-10.7,3.7c-0.7,0.1-1-0.2-0.9-0.7c0.1-0.4,0.5-0.9,0.9-1.1
		c2-0.9,4-1.7,6-2.6C157.1,73.5,158.7,72.7,160.3,71.9z M115.4,164c0.3-1.1,0.5-1.9,0.7-2.7c0.4-2.4,0.6-4.7,1.1-7.1
		c0.7-3.3,1.5-6.6,2.3-9.8c0.8-2.8,1.6-5.7,2.5-8.5c1.1-3.5,2.4-6.9,3.6-10.4c0.6-1.9,1.4-3.8,1.8-5.7c0.6-3,1.2-6,3.8-8
		c-2,1-4.3,1.2-6.1,2.8c-1.9,1.8-4,3.3-5.9,5c-2,1.7-3.8,3.5-5.9,5.1c-3.2,2.5-6.8,4.7-9.6,7.8c-0.6,0.7-1.5,1.2-2.2,1.9
		c-1.2,1.1-2.4,2.1-3.5,3.3c-1.1,1.2-2.1,2.4-3.1,3.6c-1.4,1.6-2.8,3.2-4.1,4.8c0.8,0.9,1.4,1.7,2.1,2.4c1.8,2.1,3.6,4.3,6.1,5.8
		c2.5,1.5,4.8,3.1,7.2,4.7c1.3,0.9,2.4,2,3.7,2.7C111.6,162.5,113.4,163.2,115.4,164z M160.8,114.3c0.1-0.3,0.2-0.6,0.3-0.9
		c0.4-2.2,0.7-4.4,1.2-6.6c0.5-2.3,0.8-4.6,0.8-7c0-1.8-0.5-3.6-0.8-5.3c-0.6-3.4-1.2-6.8-0.9-10.3c0-0.2,0.1-0.4,0-0.5
		c-0.2-0.3-0.5-0.5-0.7-0.8c-0.3,0.3-0.6,0.5-0.8,0.8c-0.1,0.2,0,0.5,0,0.8c-0.1,1.8-0.8,3.1-2.5,3.9c-1.2,0.5-2.5,1.2-3.8,1.4
		c-2.6,0.3-5.3,0.3-7.9,0.3c-0.9,0-1.3,0.2-1,1c0.6,1.9,1.2,3.8,1.9,5.6c1.1,2.6,2.5,5.1,3.7,7.7c0.7,1.5,1.1,3.2,2,4.4
		C154.6,111.4,157.2,113.5,160.8,114.3z M166.8,129.1c0.3-0.2,0.5-0.4,0.7-0.5c2.4-1.1,3.6-1.2,4.6,1.8c0.6,2,1,4,1.4,6
		c0.2,1.1,0.4,2.1,0.6,3.4c0.3-0.4,0.4-0.5,0.5-0.7c2.1-3.3,3.5-7,4.5-10.7c0.4-1.4,0.5-2.8,0.6-4.2c0.1-0.9-0.4-1.5-1.3-1.9
		c-2.4-1-4.8-2-7.2-3c-0.5-0.2-1-0.3-1.5-0.5c-1.8-0.6-3.6-1.2-5.4-1.8c-1.5-0.5-2.9-0.9-4.4-1.4c-0.1,0.1-0.1,0.2-0.2,0.3
		C162.1,120.2,163.5,125.1,166.8,129.1z M180.6,128.6c-0.1,0.2-0.2,0.3-0.2,0.4c-1.1,3.9-2.5,7.7-4.8,11.1c-0.9,1.4-1.1,2.6-0.5,4.1
		c0.2,0.5,0.5,0.8,0.9,0.7c0.7-0.1,1.3-0.5,1.9-0.7c4.8-1.8,7.7-5.4,9.5-10.1c0.3-0.7,0.1-1.1-0.4-1.5c-1.4-1-2.8-2-4.2-2.9
		C182.1,129.2,181.3,129,180.6,128.6z M165.2,130.3c-2.3-4.6-4.6-9.3-7-14c-0.3-0.6-0.8-1.1-1.3-1.5c-0.3-0.2-0.9-0.1-1.3,0.1
		c-0.5,0.2-0.4,0.6-0.2,1c1.4,3,1.5,6.3,1,9.5c-0.4,2.6,0.8,4.6,2.1,6.6C160.1,129.7,163,129.1,165.2,130.3z M144.1,110.3
		c-2,0.1-3.8,0.4-4.6,2.5c-0.2,0.5-0.5,1-0.8,1.5c-0.1,0.3-0.3,0.7-0.2,1c0.2,2.2,2.3,3.5,4.3,2.4c1.7-0.9,3.1-2.1,4.7-3.2
		c0.1-0.1,0.2-0.3,0.2-0.5c0.2-1.3,0-2.5-1.3-3.2C145.7,110.5,144.8,110.5,144.1,110.3z M150.3,123.4c1.2,0.3,2.4-0.8,3.5-2.4
		c0.4-0.5,0.8-1.1,0.9-1.6c0.3-1.7-1-3.5-2.7-3.9c-0.4-0.1-0.9-0.2-1.3-0.3c-0.8-0.1-2.1,0.5-2.3,1.2c-0.3,1.8-1.2,3.4-0.5,5.3
		C148.5,122.9,148.9,123.4,150.3,123.4z M136.9,116c0-0.3,0-0.6,0-0.9c-0.1-1.5-1-2.3-2.4-2.3c-2.6,0.1-4.6,1.8-5,4.4
		c-0.1,0.4,0.1,0.9,0.3,1.3c0.7,1.3,1.8,1.4,3.1,1.4C134.8,119.8,136.9,117.8,136.9,116z M161,138c1,0,3.5-1.5,4.1-2.3
		c0.4-0.5,1.2-0.9,0.7-1.7c-0.4-0.8-1-1.6-1.6-2.3c-0.2-0.2-0.5-0.4-0.8-0.4c-2.3-0.2-3.2,0.3-4,2.4c-0.6,1.4-0.3,2.7,0.8,3.8
		C160.5,137.8,160.9,137.9,161,138z M152.7,89c1.2-0.4,2.2-0.6,3.2-0.9c2.4-0.9,3.3-2.3,3.3-4.8c0-1.1-0.3-1.4-1.4-1.4
		c-1.4,0-2.8,0-4.3,0c-0.5,0-1,0.2-0.6,0.8C154,84.6,153.7,86.6,152.7,89z M141.8,108.9c-3.3,0.7-6.6,1.1-9.5,2.5c0.9,0,1.9,0,2.9,0
		c1.1,0,1.8,0.6,2.5,1.4c0.6-0.9,0.9-1.8,1.6-2.5C140,109.8,140.9,109.4,141.8,108.9z M149.2,113.6c1.4,0.2,2.7,0.3,3.9,0.6
		c0.7,0.2,1,0.1,1.2-0.3c-1-0.8-1.9-1.4-2.8-2.2c-1-0.8-2.1-1.2-3.4-1.3C149.4,111.1,149.2,112.4,149.2,113.6z M156.2,131.2
		c-0.1,0-0.2,0-0.3,0.1c0,3,0,6,0,9c0.6-2,1.2-4,1.6-6c0-0.2,0-0.5,0-0.6C157.1,132.8,156.6,132,156.2,131.2z M146.8,88.8
		c-0.4-0.9-0.9-1.8-1.3-2.7c-0.4,0.3-1.2,2.6-0.9,2.7c0.6,0.2,1.3,0.1,2,0.1C146.7,88.9,146.8,88.8,146.8,88.8z M149,86.2
		c0.1,0,0.3,0,0.4,0c0.3-0.3,0.8-0.8,0.7-1c-0.1-0.4-0.6-0.6-1-1c-0.3,0.3-0.7,0.6-0.7,0.9C148.4,85.5,148.7,85.8,149,86.2z"/>
	<path class="st0" d="M105.1,94.9c1.3-0.7,2.3-1.2,3.4-1.7c2.3-1.2,4.7-2.3,7-3.5c1.4-0.6,2.7-1.3,4.3-1.1c0.9,0.1,1.7,0.4,2.6,0.7
		c2.1,0.7,4.1,1.4,6.2,2.1c0.7,0.2,0.8,0.8,0.2,1.3c-2.1,1.6-4.3,3.1-6.8,4.1c-1,0.4-1.9,0.9-2.9,1.3c-3,1.2-5.9,0.9-8.7-0.5
		c-1.2-0.6-2.4-1-3.6-1.5C106.3,95.9,105.8,95.5,105.1,94.9z M118.1,91c1.8,1.4,0.8,3.4,1.2,5.3c2.1-1,4.1-1.9,6.1-2.9
		c0.3-0.2,0.7-0.6,0.7-0.9c0-0.3-0.5-0.6-0.8-0.8c-1.3-0.5-2.7-0.8-4-1.3C120.1,90,119.2,90.2,118.1,91z M110.4,93.7
		c-0.8,0.4-1.6,0.8-2.3,1.1c0,0.1,0,0.2,0.1,0.3c0.8,0.3,1.6,0.5,2.4,0.8C110.5,95.3,110.5,94.6,110.4,93.7z M113.3,93.4
		c0.5,0.5,0.8,1,1.1,1c0.3,0,1-0.5,0.9-0.7c0-0.4-0.4-0.9-0.8-1.1C114.4,92.6,114,93,113.3,93.4z"/>
	<path class="st0" d="M123.9,83c-4.3-0.4-8.3,1.2-12.4,2.3c-2.8,0.8-5.6,1.8-8.4,2.7c-0.6,0.2-1.3,0.3-2,0.3c-0.3,0-0.6-0.5-0.9-0.8
		c0.4-0.3,0.7-0.9,1.1-0.9c1.7,0.1,3-0.6,4.4-1.4c0.3-0.1,0.5-0.3,0.8-0.4c3.1-1,6.3-2,9.4-3.1c2.8-1,5.8-1,8.7-1
		c2.3,0,4.5,0.1,6.8,0.2c0.6,0,1.4,0,1.4,0.9c0.1,0.8-0.5,1.2-1.2,1.3c-0.6,0.1-1.2,0.1-1.8,0.1C127.8,83.3,125.9,83.1,123.9,83z"/>
	<path class="st0" d="M154.8,57.8c0.2,1.1-0.1,1.5-0.9,1.7c-2.5,0.8-5,1.6-7.5,2.5c-1.3,0.5-2.6,1.1-3.8,1.9c-2,1.2-4.1,1.2-6.1,0.7
		c-3.4-0.8-6.9-0.7-10.3-0.7c-2.3,0-4.6,0.1-6.9,0.2c-0.6,0-1.1,0-1.2-0.6c-0.1-0.7,0.5-0.8,1.1-0.8c4.6-0.1,9.2-0.3,13.8-0.3
		c1.1,0,2.2,0.4,3.3,0.6c2.3,0.4,4.4,0.2,6.5-1c3-1.7,6.3-3,9.7-3.8C153.3,57.9,154.1,57.9,154.8,57.8z"/>
	<path class="st0" d="M136.6,68.8c-3.1,0.2-6.2,0.3-9.3,0.5c-0.3,0-0.6,0.1-0.8,0c-0.3-0.2-0.5-0.5-0.8-0.8c0.3-0.2,0.6-0.7,0.9-0.7
		c4.3-0.1,8.7-0.4,13-0.3c2.4,0.1,4.3-1,6.4-2c1.3-0.6,2.8-1.1,4.2-1.5c0.3-0.1,0.7,0.3,1.1,0.5c-0.2,0.3-0.4,0.9-0.7,1
		c-2.3,0.4-4.4,1.6-6.4,2.7c-1.7,0.9-3.5,1-5.3,0.8c-0.8-0.1-1.6-0.1-2.4-0.2C136.6,68.9,136.6,68.8,136.6,68.8z"/>
</g>
</svg>
