<?xml version="1.0" encoding="utf-8"?>
<!-- Generator: Adobe Illustrator 19.2.1, SVG Export Plug-In . SVG Version: 6.00 Build 0)  -->
<svg version="1.1" id="Layer_1" xmlns="http://www.w3.org/2000/svg" xmlns:xlink="http://www.w3.org/1999/xlink" x="0px" y="0px"
	 viewBox="149.4 118 187 187" style="enable-background:new 149.4 118 187 187;" xml:space="preserve">
<style type="text/css">
	.st0{fill:#1976D2;}
</style>
<g id="icon-vertigo">
	<path class="st0" d="M151.2,299.9c-0.6,1.7-1.2,3.4-1.8,5.1h1.7c1-3.1,2.2-6.2,3.8-9.1c1.3-2.3,2-4.9,3-7.4c2.3-5,4.5-10.1,7-15
		c1.9-3.9,3.4-7.9,4.8-11.9c1.5-4.1,3.2-8.2,4.6-12.4c1.2-3.6,2.2-7.3,3.4-10.9c0.7-2,1.6-4,2.5-5.8c2.2-4,3.6-8.3,4.8-12.7
		c0.5-1.7,1.3-3.2,1.8-4.9c0.5-1.9,0.9-3.8,1.1-5.7c0.4-3.6,1.5-7,3.3-10.1c1.5-2.5,3.1-5,4.8-7.2c2-2.5,3.2-5.3,4.3-8.2
		c0.1-0.4,0.3-0.7,0.5-1.1c1.9-3.1,2.9-6.6,3.9-10.1c0.3-1.2,0.9-2.4,1.3-3.6c0.4-1.3,0.8-2.7,1-4c0.1,0,0.1-0.1,0.2-0.1
		c2.7-0.4,3.1,0.1,2.2,2.6c-1.4,3.7-2.9,7.3-4.2,11c-1.3,3.7-2.9,7.2-5.2,10.4c-1.6,2.2-3,4.6-4.4,7c-0.3,0.5-0.3,1.2-0.2,1.8
		c0.1,0.6,0.8,0.6,1,0c1.5-3.4,3.7-6.4,5.8-9.5c1.8-2.8,3.1-5.9,4.4-8.9c0.9-2.1,1.5-4.3,2.3-6.5c0.2-0.6,0.5-1.1,0.7-1.6
		c0.3-0.8,0.8-1,1.7-1c1.2,0.1,1.7-0.2,3.1-1.8c0.1,1.7,0.1,3.3-0.7,4.8c-1,1.8-2.1,3.7-3.1,5.5c-2.6,4.6-5.1,9.2-7.7,13.8
		c-0.5,1-1,1.9-1.4,2.9c-0.8,1.9-2.2,3.2-3.8,4.5c-0.3,0.2-0.6,0.9-0.5,1.1c0.3,0.6,0.9,0.4,1.3,0.1c1.8-1.3,3.1-3.1,4.2-5
		c1.9-3.5,3.9-7,5.9-10.4c1-1.8,1.9-3.6,2.8-5.4c1.6,0,3.4,0.8,4.6-1c0.1,0.1,0.2,0.1,0.3,0.2c-0.2,0.7-0.3,1.5-0.6,2.2
		c-1.1,2.5-2.4,4.9-3.4,7.4c-0.7,1.7-0.9,3.6-1.4,5.3c-0.1,0.4-0.3,0.7-0.5,1c-0.6,1.1-1.3,2.1-1.8,3.3c-0.7,1.9-1.3,3.8-2,5.7
		c-1.1,3.1-2.1,6.2-3.2,9.2c-0.5,1.2-1.1,2.4-1.7,3.6c-0.3,0.5-0.3,1.1,0.3,1.3c0.6,0.2,1-0.1,1.2-0.6c0.4-0.9,0.9-1.9,1.2-2.6
		c1.1,0.2,2,0.6,2.9,0.4c1.3-0.2,2.1-1.2,2.9-2.3c0.6-0.8,1.5-1.4,2.4-2c0.2-0.1,0.8,0.1,0.8,0.3c0.6,1.7,1.6,3.1,2.8,4.4
		c0.1,0.1,0.1,0.2,0.2,0.5c-0.6,0.2-1.2,0.2-1.7,0.6c-1.3,0.9-2.5,2-3.6,3c-2.6,2.3-4.1,5.3-5.9,8.1c-1.8,2.8-4.1,5-7.3,6.2
		c-0.7,0.2-1.1,0.2-1.6-0.3c-1.4-1.5-3.1-2.5-5-3.1c-0.5-0.2-1-0.6-1.5-0.6c-0.5,0-0.9,0.3-1.4,0.4c0.2,0.4,0.4,0.9,0.7,1.1
		c0.8,0.4,1.7,0.6,2.5,1c1,0.5,2,1,2.9,1.7c0.7,0.5,0.9,1,0.8,2.1c-0.3,2.9-1.8,5.5-2,8.5c-0.1,1-0.3,2-0.3,2.9
		c-0.1,2.9-0.1,5.8-0.2,8.6c-0.2,4.9-0.5,9.7-0.8,14.6c-0.2,4-0.5,7.9-0.6,11.9c-0.2,5.7-0.1,11.3-0.3,17c0,1.6,0.1,3.3,0.4,4.9h1.6
		c-0.1-0.3-0.1-0.6-0.2-0.9c-0.1-0.6-0.1-1.3-0.1-1.9c0-5.6-0.1-11.2,0.1-16.8c0.1-4.9,0.5-9.8,1.1-14.9c0,0.1,0.1,0.3,0.1,0.4
		c0.8,4.5,2.9,8.6,5,12.6c2.8,5.7,7,10,12.7,13.1c2.3,1.2,4.5,2.4,7,2.9c1.8,0.4,3.7,0.4,5.6,0.8c2.4,0.4,4.8,0.9,7.2,1.4
		c2.9,0.5,5.8,0.9,8.8,0.6c0.5-0.1,1.1,0.2,1.7,0.2c7.6-0.5,15.2-1,22.8-1.6c1.1-0.1,2.2-0.4,3.3-0.8c2.2-0.8,4.5-1.5,6.6-2.6
		c1.9-1,3.8-2.1,5.5-3.5c2.1-1.7,4-3.6,6.1-5.4c1.7-1.5,2.7-3.4,3.4-5.4c0.8-2.3,1.4-4.6,2.1-6.9c0.1-0.4,0.1-0.8,0.1-1.2
		c0-2.9-0.1-5.7,0-8.6c0.1-2.4,0.4-4.7,0.6-7.1c0-0.3,0.2-0.7,0.5-1c0.2,1.1,0.5,2.2,0.6,3.3c0.3,3.8,0.6,7.5,0.8,11.3
		c0.2,4.2,0.3,8.4,0.5,12.5c0.2,4.2-0.6,8.3-0.9,12.5c-0.1,2.3-0.2,4.7-0.2,7h1.7c0.1-2,0.2-4,0.4-5.9c0.7-7,1-14,0.6-21
		c-0.2-3.8-0.6-7.5-0.9-11.2c-0.5-5.2-1.1-10.3-1.6-15.5c-0.2-2.7-0.2-5.4-0.3-8.1c-0.1-1.4-0.2-2.7-0.3-4.1
		c-0.2-2.3-0.5-4.5-0.6-6.8c0-0.4,0.5-1,1-1.3c0.7-0.5,1.5-0.8,2.2-1.2c1-0.6,2-1.2,2.9-1.9c0.3-0.2,0.7-0.6,0.8-0.9
		c0.1-0.2,0-0.7-0.2-0.9c-0.2-0.2-0.7-0.2-0.9,0c-1.2,0.7-2.3,1.5-3.5,2.2c-1.1,0.7-2.2,1.6-3.4,1.9c-0.9,0.2-2.3,0-3.1-0.5
		c-2.9-1.8-5.7-3.7-7.9-6.5c-2-2.5-3.7-5.2-6.8-6.6c-2.3-1.1-4.4-2.3-6.7-3.5c-0.6-0.3-0.8-1.4-0.4-2.1c0.4-0.5,0.8-1.1,1.1-1.6
		c0.3-0.5,0.6-1.1,1-1.9c0.9,0.4,1.8,0.7,2.7,1.1c1,0.5,1.9,1,2.8,1.6c1.4,0.8,2.7,0.5,4-0.3c0.9-0.6,1.9-1.3,2.6-2.1
		c0.5-0.5,0.7-1.3,1.1-1.9c0.2-0.3,0.5-0.6,0.8-0.9c0.3,0.3,0.6,0.6,0.7,1c0.8,2.9,1.5,5.8,2.3,8.8c0.1,0.6,0.5,0.8,1.1,0.7
		c0.6-0.1,0.8-0.5,0.7-1.1c-0.1-0.5-0.3-0.9-0.4-1.4c-1-3.5-2.3-7-2.9-10.6c-0.6-4.1-3.2-6.9-5.2-10.1c-1.5-2.4-3.2-4.7-4.8-7.1
		c-1.2-1.8-2.2-3.7-3.3-5.6c-0.4-0.7-1-1.4-0.3-2.2c0.5-0.7,2-0.8,2.9-0.7c2.4,0.2,3.1,2.1,4.3,3.6c2.3,2.8,4.4,5.8,6.8,8.4
		c1.8,2,4,3.6,6,5.4c0.5,0.5,1.1,0.9,1.6,1.4c0.5,0.5,1.2,0.7,1.6,0.2c0.5-0.5,0.1-1.1-0.5-1.5c-5.4-4.3-10.4-9.1-14.2-14.9
		c-1.8-2.7-4-5.1-5.8-7.7c-1-1.4-1.6-3-2.3-4.5c1.2-0.4,2.1-0.7,3.2-1c0.2,0.5,0.5,1,0.5,1.6c0.1,2.8,1.3,5.3,2.5,7.7
		c1.4,2.7,3.5,4.8,5.7,6.9c1.4,1.3,2.7,2.7,4.1,3.9c2.6,2.2,5.3,4.4,8,6.4c2.4,1.8,3.7,4.1,4.2,7.1c0.4,2.4,1.1,4.7,1.9,7
		c1.1,3.1,2.5,6.2,3.8,9.2c0.4,0.9,0.8,1.8,1.3,2.8c1.3,2.8,1.5,5.9,2.3,8.9c0.9,3.5,1.9,6.9,2.8,10.4c0.3,1,0.4,2,0.7,2.9
		c0.5,1.7,1.2,3.4,1.6,5.2c1.6,8,4.3,15.6,7.4,23.1c1.5,3.7,2.7,7.5,4.2,11.2c1.3,3.3,2.9,6.5,4.4,9.7c0.5,1.1,1.1,2.2,1.4,3.4
		c1.3,3.9,2.9,7.7,3.6,11.7h1.6c-0.3-1.3-0.5-2.6-0.8-3.9c-0.4-1.8-1.4-3.5-1.8-5.2c-0.9-3.6-2.7-6.8-4.2-10.2
		c-0.6-1.4-1.9-2.5-1.5-4.3c0.4-2.1,0.5-4.2,0.9-6.2c0.4-2,1.2-3.9,1.3-5.9c0.4-6.8-0.6-13.4-2.9-19.9c-1.1-2.9-2.9-5.1-5.7-6.5
		c-2.1-1-4.2-1.9-6.4-2.8c-1-0.4-1.5-1-1.8-1.8c-1-3.2-2-6.5-2.9-9.8c-1-3.7-1.1-7.5-2.8-11.1c-1.8-3.6-3.1-7.4-4.7-11.1
		c-1-2.3-1.9-4.6-2.1-7.1c-0.3-3.7-2.3-6.1-5.2-8.3c-2.9-2.1-5.6-4.5-8.2-6.9c-2-1.8-4-3.8-5.9-5.7c-1-1-1.2-2.2-1-3.6
		c0.2-1.3,0.2-2.6,0.1-3.9c-0.3-2.6-1.3-3.4-3.9-3.3c-0.1-0.4-0.2-0.7-0.2-1.1c-0.3-4.5-0.7-9-1-13.6c-0.2-3.2-0.5-6.4-1.5-9.4
		c-1.1-3.1-2.2-6.3-3.3-9.4c-0.6-1.9-1.8-3.3-3.2-4.6c-0.3-0.3-0.7-0.6-1-0.9c-2.9-2.6-5.5-5.6-9.2-7.4c-0.9-0.4-1.6-1.3-2.4-1.9
		c-0.2-0.2-0.7-0.3-0.7-0.3c-0.5,0.8-1.1,0.3-1.6,0.1c-3.2-0.8-6.5-1.3-9.8-0.9c-1.3,0.2-2.7,0.3-4,0.1c-1.5-0.2-2.9-0.2-4.4,0.3
		c-1.8,0.7-3.6,1.3-5.4,2c-1,0.4-2.1,0.6-3.1,1c-3.6,1.4-6.4,3.8-8.8,6.7c-4.8,5.7-9.2,11.6-10.7,19.1c-0.6,2.9-1.4,5.8-0.9,8.9
		c0.1,0.8,0.4,1.7,0.4,2.5c-0.2,2.6-0.5,5.2-0.8,7.9c0,0.3-0.3,0.6-0.4,1c-0.5,1.4-1.1,2.9-1.6,4.3c-0.8,3-1.7,6-3.2,8.8
		c-0.7,1.4-1.2,2.9-1.9,4.3c-0.9,1.8-1.8,3.6-2.9,5.3c-1.3,2-2.9,3.7-4.1,5.7c-1.4,2.6-2.7,5.3-3.7,8.1c-0.7,2-0.8,4.3-1.4,6.5
		c-0.7,2.8-1.6,5.6-2.4,8.3c-1.1,3.9-2.2,7.9-4.2,11.5c-1.9,3.5-3.4,7.2-4.5,11.1c-0.1,0.3-0.5,0.7-0.8,0.8c-2,0.6-4,1.2-6,1.8
		c-3.6,1-6.8,2.7-9.1,5.9c-2.7,3.7-4.2,7.9-5.8,12.2c-1.2,3.2-0.7,6.6-0.7,9.9c0,0.6,0.1,1.2,0.3,1.8c1.2,4.4,2.3,8.9,2.6,13.5
		c0.1,2,0,3.8-0.9,5.5C153.5,295.2,152.1,297.5,151.2,299.9z M321.5,244.6c1.6,0.8,2.9,2.2,3.7,3.9c1.5,3.1,2.1,6.5,2.8,9.9
		c0.8,3.8,0.6,7.7,0.6,11.5c0,0.8-0.4,1.7-0.6,2.5c-0.5,2-1,3.9-1.5,6c-0.2-0.6-0.4-1.2-0.6-1.8c-1.5-3.9-3-7.7-4.5-11.6
		c-2.6-6.6-4.8-13.3-6.1-20.3c-0.2-1-0.6-2.1-1-3.4C316.8,242.5,319.2,243.4,321.5,244.6z M277.7,169.3c0.2-0.1,0.8,0.1,1,0.3
		c0.8,1.6,0.6,3.2,0.4,4.8c-0.1,0-0.2,0-0.3,0.1c-0.6-1.4-1.2-2.8-1.7-4.3C277,170,277.4,169.4,277.7,169.3z M214,166.2
		c-0.4,0.7-0.8,1.5-1.4,2.1c-0.4,0.4-1.1,0.5-1.9,0.7c0.4-1.5,0.6-2.6,0.9-3.7c0.3-1,1-1.3,1.8-1C214.2,164.6,214.5,165.3,214,166.2
		z M215.5,177.6c-0.6,1.6-1.4,1.9-3.1,1.1c0.4-0.9,0.6-1.8,1.2-2.5c0.4-0.5,1.2-0.7,1.8-0.9c0.1,0,0.6,0.7,0.6,1.1
		C215.9,176.7,215.6,177.2,215.5,177.6z M208.6,213c-0.1,0.2-0.3,0.4-0.4,0.4c-0.5,0.2-0.9,0.4-1.4,0.5c-0.1-0.5-0.2-1-0.3-1.4
		c-0.3-2.6,0.8-4.8,1.8-7c0.8-1.7,1.2-3.6,1.8-5.4c0.1-0.3,0.2-0.6,0.5-1.2c0.9,3.6,1.7,7,2.6,10.4
		C211.2,210.2,209.6,211.2,208.6,213z M212.6,221.4c1.7-1.6,3.3-2.9,5.7-3.5c-2.6,5.6-6.8,9.7-12.2,12.5
		C208.5,227.5,209.9,224,212.6,221.4z M196.2,241.8c0.7-1.8,1.5-3.7,2.4-5.5c0.1-0.2,0.3-0.3,0.5-0.5c0.2-0.1,0.5-0.2,0.7-0.3
		c3.6-1.9,7.3-3.6,10.8-5.8c3.7-2.4,6.5-5.8,8.7-9.6c0.1-0.2,0.2-0.3,0.3-0.5c3,2.3,5.9,4.7,8.8,6.9c1.4,1.1,2.8,2.1,4.2,3.2
		c2.4,1.9,5.2,2.5,8.2,2.6c1.1,0,2.1,0.1,3.2,0c1-0.1,1.9-0.5,2.9-0.7c0.1,0,0.1-0.1,0.2-0.1c3.6-1.5,6-4.3,8.5-7
		c1.9-2,3.9-3.8,6-5.8c0.4,0.8,0.8,1.7,1.2,2.6c2,5.6,6.1,8.8,11.5,10.8c3.1,1.2,6.1,2.7,9.2,4c0.2,0.1,0.5,0.6,0.4,0.9
		c-1.1,4.4-1.1,8.8-0.7,13.3c0.4,4,0.8,8.1,1,12.2c0.2,2.6,0.1,5.3,0,7.9c0,1-0.4,2-0.8,2.9c-1.2,3-2.5,5.9-4.6,8.4
		c-2.1,2.6-4.9,4.5-7.8,6.2c-1.7,1-3.3,2.1-5.1,2.9c-3.4,1.5-7.1,1.7-10.7,2.2c-6.7,0.8-13.3,0.9-20,0.7c-3.4-0.1-6.9-0.8-10.1-2.2
		c-3.3-1.4-6.8-2.7-10-4.4c-3.3-1.8-6.3-4-8.3-7.3c-1.9-3-3.5-6.2-4.3-9.6c-0.5-2-0.6-4.2-0.8-6.2c-0.5-5.7-0.4-11.5-2.6-16.9
		c-0.6-1.5-1.6-2.8-2.3-4.2C196.3,242.7,196.1,242.1,196.2,241.8z M292,241c0.1,2.5,0.2,5,0.3,7.5c0,1,0.1,2,0.2,3
		c0.2,1.8-0.5,3.5-0.8,5.3c-0.3,2-0.8,4-0.9,6c-0.2,4.3-0.3,8.6-0.5,12.9c0,0.5-0.1,1.1-0.2,1.5c-0.6,1.9-1.3,3.8-1.9,5.6
		c-0.9,2.5-2.7,4.4-4.7,6c-2.1,1.7-3.8,3.8-6,5.1c-4.4,2.6-9.1,4.6-14.3,5.2c-5.9,0.7-11.8,1.1-17.8,1.1c-1.9,0-3.9,0.3-5.8,0.4
		c-3.4,0.1-6.7-0.4-10-1.2c-2.9-0.6-5.8-0.9-8.8-1.3c-2.5-0.3-4.8-1-7-2.4c-1.2-0.8-2.6-1.3-3.7-2.1c-4-2.9-7.3-6.4-9.4-10.9
		c-1.5-3.2-2.9-6.4-4.2-9.7c-0.8-2-1.5-4.2-1.8-6.3c-0.3-1.7-0.1-3.5,0-5.3c0-1.3,0.1-2.6,0.2-3.9c0.1-3.6,0.1-7.2,0.2-10.9
		c0-0.7,0.2-1.3,0.3-2.1c1.4,1.4,1.8,3.1,2.4,4.7c1,3.1,1.3,6.4,1.6,9.7c0.4,4.4,0.2,8.9,1.6,13.2c1.5,4.3,3.3,8.5,6.7,11.7
		c2.4,2.3,5,4.3,8.2,5.5c3.4,1.3,6.6,3.1,10.1,4.3c2.9,0.9,6,1.4,9,1.6c4,0.3,7.9,0.3,11.9,0.2c3.7-0.1,7.3-0.6,11-1.1
		c2.5-0.3,5-0.7,7.4-1.5c3.5-1.1,6.4-3.4,9.4-5.4c6-4,9.2-9.8,10.8-16.6c0.5-2,0.3-4.2,0.3-6.3c-0.1-2.5-0.3-5-0.5-7.4
		c-0.2-2.6-0.7-5.2-0.8-7.8c-0.1-3.4-0.4-6.8,0.5-10.2c0.1-0.6,0.3-1.1,0.4-1.7c2.1,0.8,4,1.5,5.8,2.3C291.6,240,292,240.6,292,241z
		 M269.6,216.2c1.6,1,3.2,1.8,4.8,2.7c2.2,1.3,3.7,3.4,5.2,5.5c1.4,2,3.3,3.4,5.2,4.8c1.7,1.3,3.5,2.5,5.8,2.8
		c0.2,0,0.5,0.4,0.5,0.6c0.2,1.7,0.4,3.5,0.6,5.6c-1.4-0.5-2.6-0.9-3.6-1.4c-5.6-2.5-11.1-5-16.7-7.6c-3.1-1.4-5.3-3.9-6.7-7
		c-0.7-1.6-1.4-3.3-2.1-4.9c0.8-0.9,1.5-1.9,2.2-2.7C266.8,214.4,268.2,215.3,269.6,216.2z M272.3,194.7c0.8-2.5,0.4-4.9,0.5-7.4
		c0-0.3,0-0.7,0-1.3c1.4,1.9,2.6,3.6,3.8,5.3c1.4,2.1,2.8,4.3,4.3,6.4c0.9,1.3,1.4,2.6,1.3,4.1c0,0.3-0.1,0.6-0.2,0.9
		c-0.5,1.1-1.1,2.1-1.6,3.2c-1,2.3-3.8,3.3-6.1,1.7c-1.3-0.9-3-1.4-4.6-2.1c0.3-1.4,0.7-2.7,1-4.1
		C271.2,199.2,271.6,196.9,272.3,194.7z M270.8,184.6c0.4,1.4,0.1,3,0.3,4.5c0.3,2.7-0.6,5.1-1.2,7.7c-0.7,2.7-1.2,5.5-2.1,8.2
		c-0.6,1.8-1.4,3.6-2.3,5.3c-0.8,1.5-1.6,3.2-2.8,4.4c-2.3,2.6-4.9,5-7.3,7.6c-0.7,0.7-1.2,1.6-2,2.3c-1.8,1.6-3.7,3.3-5.6,4.8
		c-2.2,1.6-4.8,1.5-7.3,1.4c-3.7-0.1-6.5-1.8-9.2-4.1c-2.8-2.3-5.8-4.5-8.7-6.7c-0.7-0.6-1.3-1.3-1.9-2c-1.7-2.2-3.5-4.3-4.8-6.6
		c-0.9-1.6-1.3-3.6-1.8-5.4c-0.6-2.2-1.2-4.4-1.6-6.7c-0.2-1.5-0.2-3.2,0.1-4.7c0.8-4,2.3-7.8,4.2-11.4c0.6-1.1,0.9-2.3,1.1-3.5
		c0.2-0.7,0.5-1.1,1.2-1c0.5,0.1,0.9,0.3,1.4,0.4c2.9,1,5.8,2,8.7,2.9c0.7,0.2,1.4,0.4,2.1,0.4c0.4,0,0.8-0.4,1.2-0.6
		c-0.3-0.4-0.6-0.9-0.9-1c-2.9-0.9-5.7-1.8-8.6-2.7c-1.5-0.5-3.1-0.9-4.6-1.3c-0.2,0-0.4-0.1-0.4-0.2c-0.5-1.1-1.2-2.2-1.3-3.3
		c-0.1-2.5,0.1-5.1,0.2-7.6c0-0.7,0.4-1,1-1.3c3.8-1.3,7.6-2.6,11.3-4.1c1.8-0.7,3.4-1.8,5.3-2.3c2.5-0.6,5.2-0.8,7.8-1.2
		c0,0.1,0,0.3,0,0.4c2.8-0.5,5.5,0.1,8.1,1.1c3.5,1.3,7.2,1.6,10.8,2c2.7,0.3,4.5,2,6,4.1c0.2,0.2,0,0.7,0,1
		c-0.3,1.1-0.8,2.3-0.9,3.4c-0.1,2.1-0.2,4.2,0.6,6.2c0.6,1.3,0.3,1.6-1,2.3c-4.3,2.6-9.1,3.4-13.9,4.3c-0.7,0.1-1.3,0.6-1.8,1.1
		c-0.2,0.1-0.2,0.7-0.1,0.9c0.2,0.2,0.7,0.4,1,0.3c2.8-0.7,5.5-1.4,8.3-2.1c2.4-0.6,4.7-1.4,6.8-2.9c1.1-0.7,2-0.6,2.5,0.6
		C269.4,181.1,270.3,182.8,270.8,184.6z M271.3,171.2c0.8,1.1,1.5,2.3,2.4,3.6c-0.9,0.1-1.6,0.1-2.3,0.3c-0.7,0.2-1.3,0.5-2.1,0.8
		c-0.5-1.5-1.8-2.7-1.6-4.5c1.1-0.1,2.1-0.2,3.1-0.3C271.1,171,271.3,171.1,271.3,171.2z M268.5,166c1.5,0.8,1.5,2.2,1.9,3.7
		c-1-0.2-2.2-0.2-2.4-0.7C267.5,168.1,267.9,167,268.5,166z M273.7,164.2c-1.4,1.2-3.4,1.1-4.2-0.2c-0.4-0.6-0.5-1.1,0.1-1.6
		c0.5-0.5,1.1-1,1.7-1.3c1.2-0.5,1.5-0.2,1.7,1.1c0.1,0.3,0.2,0.7,0.3,1C273.5,163.6,273.6,163.9,273.7,164.2z M211,149.7
		c5.8-3.6,12-6.2,18.8-7.3c5.2-0.9,10.4-1.6,15.6-1.3c4.7,0.3,9.5,0.5,14.1,1.9c1.4,0.4,2.7,1.1,4,1.7c1.7,0.9,3.4,1.8,5.1,2.8
		c0.8,0.5,1.5,1.3,2.2,2c0.4,0.5,0.7,1.1,1.1,1.5c1.2,1,1.4,2.2,1.4,3.6c-0.1,1.4,0,2.7,0,4.5c-1.1-0.5-2-0.9-3-1.4
		c-3.2-1.5-6.3-3.1-9.5-4.5c-1.9-0.8-3.9-1.4-5.9-2c-0.7-0.2-1.5-0.2-2.2-0.2c-3,0-6.1-0.1-9.1,0c-6,0.2-12.1,0.7-17.9,2.5
		c-2.6,0.8-5.1,1.9-7.6,3c-1.9,0.8-3.8,1.6-5.7,2.5c-0.9,0.4-2.9-0.6-3-1.6c-0.2-1.4-0.3-2.7-0.5-4.1
		C208.7,151.6,209.7,150.5,211,149.7z M209.2,159.6c1,0,2.1,0.9,2.2,1.8c0.1,1.3-0.6,1.9-2.5,2c-0.6,0-1.3,0.3-1.4-0.8
		C207.4,161.1,208.2,159.6,209.2,159.6z M154.4,272.9c-0.4-1.9-0.4-4-0.2-6c0.6-6.2,3.2-11.6,6.8-16.6c1.4-2,3.3-3.2,5.6-3.9
		c1.3-0.4,2.6-0.7,3.8-1.1c0.6-0.2,1.2-0.7,1.8-0.9c0.6-0.2,1.2-0.2,1.9-0.3c-4.3,14.6-10.4,28.4-16.8,41.8
		C156.4,281.5,155.2,277.2,154.4,272.9z"/>
	<path class="st0" d="M242.7,221.4c-1.5-0.1-3.8-0.3-6-0.5c-0.3,0-0.6-0.1-0.8-0.3c-1.3-0.9-2.6-1.8-3.9-2.7
		c-0.9-0.6-1.8-1.2-2.7-1.8c-0.3-0.2-0.6-0.6-0.7-1c0-0.2,0.5-0.5,0.8-0.7c0.6-0.3,1.3-0.5,1.9-0.8c1.9-0.8,3.8-1.8,5.8-2.3
		c1-0.3,2.3,0.1,3.3,0.4c0.8,0.2,1.4,0.4,2.1-0.1c0.8-0.6,1.7-0.5,2.7-0.1c2.1,1,3.9,2.4,6.3,2.7c0.7,0.1,0.7,0.6,0.3,1.1
		c-1.2,1.3-2.4,2.6-3.7,3.9C246.9,220.7,245.3,221.5,242.7,221.4z M250,215.9c-6.3,0-12.3,0-18.3,0c0,0.1-0.1,0.2-0.1,0.3
		c1.5,1,3,2.1,4.6,3.1c0.5,0.3,1.2,0.6,1.8,0.6c1.8,0.1,3.6,0.1,5.5,0.3c1.5,0.1,2.7-0.5,3.7-1.4C248.2,218,249,217,250,215.9z
		 M248.1,214.6c0-0.1,0.1-0.1,0.1-0.2c-0.8-0.4-1.6-0.8-2.4-1.3c-1.1-0.7-2.1-0.8-3.1,0c-0.8,0.6-1.6,0.6-2.4-0.1
		c-0.3-0.2-0.7-0.4-1.1-0.4c-2.2,0.1-4.1,1-6.1,1.6c0,0,0,0.1-0.1,0.3C238,214.6,243.1,214.6,248.1,214.6z"/>
	<path class="st0" d="M254.5,189.4c-1.4-0.4-3.1-0.9-4.8-1.4c-0.4-0.1-0.9-0.2-1.2-0.4c-0.3-0.2-0.6-0.7-0.6-1
		c0-0.2,0.5-0.6,0.9-0.7c0.3-0.1,0.8-0.1,1.1,0.1c2.3,1.6,5,1.3,7.6,1.5c2,0.2,3.8-0.6,5.5-1.4c0.4-0.2,1-0.3,1.4-0.1
		c0.5,0.3,0.6,1-0.1,1.3c-1.3,0.6-2.6,1.3-4,1.6C258.7,189.1,256.8,189.2,254.5,189.4z"/>
	<path class="st0" d="M221.3,185.2c1.5,0.4,3,0.9,4.4,1.2c2.8,0.6,5.5,0.9,8.2-0.6c0.5-0.3,1.5-0.4,1.7-0.1c0.6,0.8-0.3,1.2-0.8,1.7
		c-1.1,1-2.4,1.4-3.9,1.2c-1.9-0.2-3.9-0.3-5.9-0.5c-1.5-0.2-3-0.3-4.5-0.6c-0.3-0.1-0.8-0.6-0.8-1c0-0.3,0.4-0.7,0.7-1
		c0.2-0.2,0.5-0.1,0.8-0.1C221.3,185.3,221.3,185.2,221.3,185.2z"/>
	<path class="st0" d="M234.3,202c0.1-0.4,0.1-1.2,0.3-2c0.1-0.3,0.6-0.8,0.9-0.7c0.6,0.1,0.5,0.6,0.4,1.1c-0.1,0.5-0.2,1-0.2,1.4
		c-0.1,1.6,0.3,1.8,1.9,2c1.1,0.1,2.2,0.5,3.1,1c1.1,0.7,2.1,0.8,3.2,0.3c0.9-0.4,1.8-0.7,2.7-0.9c1.5-0.4,2-1.7,1.2-3
		c-0.3-0.5-0.6-1.1-0.9-1.6c-0.1-0.1,0.1-0.5,0.2-0.6c0.1-0.1,0.4-0.1,0.5,0c1,0.7,1.8,3.1,1.4,4.4c-0.3,1.1-1.1,1.6-2.1,1.9
		c-1,0.3-2,0.5-2.9,0.9c-1.4,0.6-2.6,0.7-3.9-0.3c-1-0.8-2.2-1-3.5-1C234.9,205,234.3,204.3,234.3,202z"/>
</g>
</svg>
