<?xml version="1.0" encoding="utf-8"?>
<!-- Generator: Adobe Illustrator 19.2.1, SVG Export Plug-In . SVG Version: 6.00 Build 0)  -->
<svg version="1.1" id="Background_copy_2_xA0_Image_1_"
	 xmlns="http://www.w3.org/2000/svg" xmlns:xlink="http://www.w3.org/1999/xlink" x="0px" y="0px" viewBox="0 0 128.8 200"
	 style="enable-background:new 0 0 128.8 200;" xml:space="preserve">
<style type="text/css">
	.st0{fill:#E64A19;}
</style>
<g id="icon-elbowpain">
	<path class="st0" d="M29.4,172.2c-2.2,3.2-4.2,6-6.1,9c-1.3,2.1-2.3,4.5-3.5,6.7c-0.8,1.4-1.8,2.7-2.5,4.2c-1,2.1-1.9,4.2-2.7,6.3
		c-0.6,1.6-0.6,1.6-2.2,1.4c0.1-0.3,0.1-0.5,0.2-0.8c0.6-1.5,1.2-3.1,1.9-4.6c0.8-1.7,1.6-3.3,2.5-4.9c1.5-2.8,2.9-5.5,4.5-8.2
		c0.9-1.6,2-3,3.1-4.5c0.8-1.2,1.7-2.4,2.4-3.6c0.8-1.2,0.9-2.6,0.6-4c-0.2-0.9-0.3-1.7-0.3-2.6c-0.1-1.3-0.3-2.3-1.2-3.4
		c-1.5-1.9-2.5-4.2-3.7-6.4c-1.8-3.5-3.6-6.9-5.3-10.4c-0.9-2-1.6-4.1-2.5-6.1c-1.4-3-2.8-5.9-4.2-8.9c-0.6-1.3-1.2-2.7-1.7-4.1
		c-1.1-3.3-2.1-6.6-3.2-9.9c-1.9-5.6-3.8-11.2-4.9-17C-0.3,95.2-0.4,90,1.7,85c0.7-1.6,2.1-3.1,3.5-4.3c3.9-3.1,8.6-4.3,13.5-4.8
		c1.6-0.2,3.1-0.7,4.6-1.1c1.4-0.4,1.4-1.6,1.5-2.7c0.2-3.7,1.3-7.2,2.7-10.5c0.9-2.2,2.3-4.1,3.1-6.3c0.4-0.9-0.1-2.1-0.2-3.2
		c0-0.1-0.1-0.2-0.1-0.2c-0.1-2-1.3-3.2-2.7-4.5c-3.2-2.8-4-8.5-1.9-12.3c0.9-1.7,0.9-3.1,0-4.8c-1.3-2.5-1.7-5.1-1-7.9
		c0.6-2.7,0.7-5.5,2.2-7.9c1.9-3,4.1-5.9,6.9-8.1c1.8-1.4,3.6-2.7,5.4-4.1c0.1-0.1,0.3-0.2,0.4-0.3c4.3-1.4,8.6-2.6,13.2-1.7
		c3.4,0.7,6.8,1.6,10,2.7c2.3,0.8,4.4,1.9,6.4,3.3c1.2,0.8,2,2.3,2.7,3.6c1.6,2.9,3.2,5.7,4.4,8.8c1.6,3.9,1.9,8.1,0.7,12.2
		c-1.4,4.7-2.1,9.6-2.6,14.5c-0.5,5.5-1.8,10.8-4.3,15.8c-0.2,0.5-0.3,1-0.5,1.5c-0.2,0.5-0.6,0.9-1,1.4c4,0.5,7.7,1.9,11.6-0.2
		c1.6-0.8,3.5-1,5.3-1.2c1.6-0.2,3.3,0,4.9-0.1c1.7-0.1,3.1,0.6,4.5,1.4c3,1.7,4.9,4.5,6.6,7.3c1.7,2.6,2.7,5.7,4,8.6
		c0.8,1.7,1.4,3.5,2.1,5.3c0.9,2,1.6,4,2.1,6.2c0.5,2.2,1.5,4.4,2.3,6.5c1.1,3.1,2.1,6.3,3.2,9.5c0.5,1.5,1.3,3,1.9,4.5
		c1.2,2.9,2.3,5.9,3.4,8.9c1.6,4.1,3.4,8.2,4.9,12.4c1.4,3.8,2.6,7.6,2.9,11.7c0.1,1.5,0.2,2.9,0.2,4.4c0.1,2.6-1,4.7-3.2,6.2
		c-2.4,1.7-5,2.7-7.8,3.4c-4.1,1-8.2,1.8-12.3,2.7c-2.7,0.6-5.3,1.2-8,1.8c-0.4,0.1-0.9,0.3-1.3,0.3c-2.1,0.4-2.1,0.4-2.1,2.6
		c0,3.5,0,6.9-0.1,10.4c0,1.5-0.4,2.9-0.7,4.4c-0.1,0.4-0.2,0.8-0.2,1.2c0.1,3.9-0.1,7.9,0.4,11.8c0.2,2,0.5,4,0.3,6
		c-1.7,0.3-1.6,0.2-1.5-1.5c0.1-1.8-0.1-3.6-0.3-5.3c-0.4-4.6-0.6-9.1,0.2-13.7c0.3-1.6,0-3.4,0-5.1c-0.1,0-0.2-0.1-0.2,0
		c-2.2,1.3-4.6,2.5-6.6,4.1c-1.4,1.1-2.6,2.5-3.7,4c-1.6,2.2-3.5,4.1-5.7,5.8c-2.6,2-5.4,3.7-8.4,5.1c-0.3,0.1-0.6,0.3-0.9,0.3
		c-0.3,0-0.6-0.3-1-0.5c0.2-0.3,0.3-0.7,0.6-0.9c2.6-1.6,5.3-3,7.9-4.6c2.8-1.8,5.1-4.1,6.8-7.1c0.2-0.4,0.5-0.8,0.9-1.1
		c2.7-2.1,5.1-4.6,8.4-5.7c1.4-0.5,2.2-1.4,2.2-3c0-2.1,0.3-4.1,0.4-6.4c-1.3,0.1-2.3,0.3-3.4,0.4c-2.7,0.4-5.3,0.7-8,1.1
		c-5,0.8-10.1,0.9-14.9,2.7c-0.6,0.2-1.1,0.7-1.5,1.1c-2.4,3-3.9,6.5-5.6,9.9c-1.1,2.2-3,3.9-4.6,5.8c-1,1.2-2.3,1.2-3.8,1
		c-5-0.4-9.5-2.6-14.1-4.3c-1.9-0.7-2.8-2.4-3.8-4.1C32.2,175.8,30.7,174.1,29.4,172.2z M32.8,115.8c1.8-4.6,2-9,0-13.2
		c-2.4-5.1-4.8-10.2-8.2-14.8c-2.2-2.9-4.4-5.8-6.7-8.6c-0.7-0.8-1.5-1.8-3.1-1.3c-2.6,0.7-4.9,1.8-7.1,3.3
		c-3.5,2.3-5.2,5.6-5.9,9.5c-0.5,2.7-0.1,5.3,0.3,8c0.5,4.1,1.7,8,2.9,11.9c0.7,2.5,1.6,5,2.4,7.4c1.3,4,2.6,8,4.1,12
		c1.2,2.9,2.8,5.7,4.2,8.5c1.5,3.2,3,6.3,4.4,9.5c0.1,0.2,0.1,0.5,0.2,0.7c0.2,0.6,0.2,1.4,0.6,1.9c2,3.6,3.7,7.4,6.5,10.4
		c0.7,0.7,1,1.4,2.2,1.3c1.6-0.1,1.8-0.1,1.5-1.7c-0.1-1,0.3-1.3,1.1-1.7c1.8-0.8,3.2-0.3,4.3,1.3c0.2,0.3,0.4,0.5,0.5,0.6
		c0.4-0.7,0.6-1.5,1.1-1.9c1.3-1,2.7-0.6,3.5,1.1c1.4,2.9,2.8,5.8,4.1,8.7c1-0.6,2-1.4,3.2-1.9c1.9-0.8,3.4-1.9,4.2-3.9
		c1.2-2.9,3.4-5.4,3.8-8.8c0.5-4.4,1.2-8.8,1.7-13.3c0.2-2.2-0.2-4.5,0.2-6.7c0.6-3.6,0.5-7.3,0.5-10.9c0.1-2.6,0-5.1,0-7.7
		c0-3,0-5.9,0-8.9c0.1-2.8,0.1-5.7,0.4-8.5c0.4-3.1,1.1-6.1,1.6-9.2c0.2-1.4,0.2-2.8,0.2-4.1c-1.8,0.4-3.4,0.8-5,1.1
		C56,86.3,55,86.6,55,85.6c0-1,1-0.7,1.6-0.8c1.2-0.3,2.5-0.5,3.6-0.9c0.8-0.3,1.4-0.9,1.1-1.9c-1.3-3.7-4.1-6-7.6-7.6
		c-1.3-0.6-2.7-1.3-3.6-2.3c-0.9-1-1.5-1.3-2.5-0.3c-0.2,0.2-0.5,0.1-0.8,0.1c0.1-0.3,0.1-0.7,0.2-0.9c0.4-0.4,1-0.7,1.4-0.9
		c-0.5-0.5-0.9-1-1.4-1.4c0.5-0.1,1-0.1,1.7-0.2c0.2-0.2,0.6-0.5,1-0.8c0.1,1.2,0.2,2.1,0.3,2.8c1-0.1,1.6-0.1,2.3-0.2
		c-0.4,0.5-0.8,0.9-1.3,1.6c0.8,0.5,1.6,1.1,2.7,1.7c-0.4-3.9-2.3-6.5-5.2-8.5c-1.5-1-2.7-0.7-3.5,0.9c-0.7,1.4-1.3,2.8-2.1,4.1
		c-0.9,1.7-1.8,3.4-0.2,5.3c0.1,0.1,0,0.5,0,0.8c-0.3-0.1-0.6-0.1-0.8-0.2c-1.1-1-1.5-3.1-0.8-4.4c1.2-2.4,2.4-4.7,3.6-7
		c0.4-0.8,0.2-1.2-0.5-1.4c-0.5-0.1-1.1,0-1.6,0.2c-1.7,0.8-2.3,2.6-2.8,4.1c-0.9,2.5-3,5-1.1,8c0.2,0.3-0.2,0.9-0.3,1.4
		c-0.4-0.2-0.9-0.4-1.1-0.7c-0.3-0.6-0.5-1.4-0.5-2.1c-0.1-2.6,0.8-4.9,2-7.2c0.6-1.2,1.3-2.4,1.9-3.6c-1.3-1.1-2.6-0.8-3.3,0.7
		c-1.4,2.9-2.6,5.9-3.1,9.2c-0.1,0.4-0.3,0.8-0.4,1.2c-0.1,0-0.2,0-0.3,0c-0.1-0.4-0.4-0.9-0.4-1.3c0.5-2.1,1.1-4.1,1.7-6.2
		c0.2-0.6,0.5-1.3,0.7-1.9c-2.7,0-3.7,0.7-3.9,3.5c-0.2,2.1-0.3,4.2-0.4,6.3c-0.3,3.5,0,5.1,3.9,6.5c1.1,0.4,2.2,1,3.3,1.5
		c2.1,1,4.2,2.3,6.4,3.1c4,1.6,4.7,4.7,4.3,8c-0.2,1.8-0.6,3.5-0.9,5.3c-0.7,4-1.3,8-2.2,12c-0.9,3.9-2.1,7.8-3.2,11.7
		c-1.2,4.7-3.6,8.8-6.3,12.8c-1.7,2.5-3.1,5.2-4.4,7.9c-1.3,2.7-1.2,5.8-1.2,8.7c0,0.9-0.2,1.7-1.4,2c-0.1-0.6-0.2-1-0.3-1.5
		c-0.2-2.5,0.3-4.9,0.8-7.3c0.7-3.7,2.9-6.6,4.5-9.8c0.3-0.6,0.8-1.2,1.2-1.8c0.7-1,1.4-1.9,2-3c0.8-1.4-0.5-2.3-0.9-3.4
		c0-0.1-0.1-0.2-0.1-0.3c-1.2-2.4-2.3-4.9-3.5-7.3c-1.3-2.5-3-4.8-3.6-7.7c-0.4-1.8-1.1-3.5-1.4-5.2c-0.3-1.5,0-3.1-0.3-4.6
		c-0.3-1.5-1.1-2.9-1.6-4.3c-0.1-0.4-0.1-0.9-0.1-1.4c0.4,0.1,0.9,0.2,1.3,0.5c0.2,0.1,0.3,0.5,0.4,0.7c1.4,3,1.8,6.2,2.1,9.5
		C30.2,110.3,31.2,113,32.8,115.8z M36.6,162.9c-1.1,0.7-2.1,1.3-3.1,1.9c0,0.1,0,0.3,0.1,0.5c0.8,4.1,2.4,7.9,4.4,11.5
		c0.2,0.4,0.5,0.8,0.9,0.9c2.4,1.3,4.9,2.5,7.4,3.8c0.6,0.3,1,0.8,1.5,1.3c0.1,0.1,0,0.5-0.1,0.6c-0.1,0.1-0.5,0.2-0.6,0.1
		c-2.7-1.5-5.3-3-7.9-4.4c-2.7-1.5-4.3-3.7-4.9-6.7c-0.4-1.8-1-3.6-1.5-5.5c-0.6,0.9-1.2,1.6-1.8,2.5c0.2,0.4,0.5,0.8,0.7,1.4
		c1.1,2.5,2.3,4.9,3.3,7.4c0.6,1.5,1.8,2.3,3.3,2.8c0.6,0.2,1.3,0.4,1.9,0.7c3.3,1.2,6.5,2.7,10.1,3.1c1.3,0.1,2.7,0.3,3.8-0.7
		c2-1.8,3.7-3.8,4.8-6.3c0.7-1.6,1.2-3.3,2.1-4.8c2-3.1,4.3-6.1,6.5-9.2c0.2-0.2,0.7-0.3,1-0.4c0.1,0.4,0.3,0.8,0.2,1.1
		c-0.2,0.5-0.6,1-1,1.7c2.7-0.5,5.1-0.9,7.5-1.3c4.2-0.6,8.3-1,12.5-1.6c2.4-0.3,4.8-0.6,7.1-1.1c3.6-0.8,7.2-1.9,10.9-2.5
		c6-1,12-2.1,17.6-4.7c2.9-1.3,4.1-3.4,4.2-6.3c0.1-5.5-1.5-10.7-3.2-15.8c-0.8-2.4-2-4.8-3-7.2c-0.3-0.7-0.6-1.5-0.9-2.3
		c-1.2-3.3-2.3-6.6-3.5-9.9c-1.4-3.9-3-7.7-4.5-11.6c-1.1-2.8-2.2-5.6-3.2-8.4c-0.6-1.7-0.7-3.6-1.3-5.3c-1.1-2.9-2.4-5.8-3.5-8.7
		c-1.6-4.1-4-7.7-6.4-11.3c-1.2-1.8-2.9-3.1-4.9-3.8c-4.5-1.5-8.8-0.5-12.9,1.3c0.9,2.5,1.8,4.9,2.6,7.3c2.1,6.7,4.1,13.5,6.2,20.3
		c0.7,2.1,1.7,4.1,2.8,6.5c0.1-0.6,0.1-0.8,0.1-1c0-3.4,0-6.8-0.9-10.1c-0.1-0.3,0.2-0.7,0.3-1.1c0.3,0.2,0.8,0.4,0.9,0.7
		c0.3,0.8,0.5,1.6,0.6,2.4c0.3,3.2,0.6,6.3,0.8,9.5c0.2,2.7,0.3,5.4,1.8,7.7c0.6,0.9,1.2,1.9,1.6,2.9c1.3,2.9,2.5,5.9,3.7,8.9
		c0.9,2.2,1.8,4.3,2.4,6.6c1.1,4,1.9,8,2.8,12.1c1.1-0.6,2-1.2,2.9-1.6c0.3-0.1,0.8,0.2,1.1,0.3c-0.2,0.3-0.2,0.7-0.5,0.8
		c-2.5,1.6-5,3.2-7.5,4.8c-1.4,0.9-2.7,1.8-4.2,2.5c-4.2,2-8.5,3.8-12.7,5.6c-2.5,1.1-5,2.5-7.7,3.2c-6,1.6-12,3-18,4.3
		c-1.9,0.4-3.1,1.5-3.9,3.2c-1.1,2.4-2,5-5,5.9c-1,0.3-1.8,1.2-2.9,2c2.3,0.7,3.3,1.9,3,4.5c1.2-0.8,2.1-1.3,3-1.9
		c0.9-0.6,1.7-1.4,2.6-1.8c0.5-0.2,1.2,0.2,1.8,0.3c-0.3,0.4-0.6,0.8-1,1.1c-0.8,0.6-1.6,1-2.5,1.7c0.6,0.4,1,0.6,1.3,1
		c0.2,0.2,0.4,0.5,0.5,0.8c-0.4,0-0.8,0.2-1.2,0.1c-0.5-0.2-0.8-0.6-1.3-0.9c-0.3-0.1-0.7-0.2-1-0.1c-2.9,1.1-5.7,2.6-9,2.7
		c2.8,1.4,5.7,2.6,8.5,3.9c0.7,0.3,1.5,0.3,1.7,1.5c-0.8-0.2-1.5-0.3-2.2-0.5c-3.4-0.9-6.5-2.6-9.4-4.6c-1-0.7-2-1.8-2.2-2.8
		C39.2,170.4,38,166.6,36.6,162.9z M36.2,63.2c1.2-2.2,3.4-2.7,5.6-1.1c2-1.3,2.9-1.1,4.4,0.8c0.1,0.2,0.5,0.4,0.7,0.4
		c2.5-0.3,3.7,1.7,5,3.1c1.7,1.7,2.5,4.1,2.9,6.5c0.1,0.8,0.5,1.1,1.2,0.8c2-0.7,3.8-1.6,5.2-3.4c2-2.5,4.1-4.9,6.2-7.3
		c0.4-0.5,0.9-1.1,1.2-1.7c3.2-5.9,4.3-12.4,5-19c0.3-2.5,0.7-5.1,1.1-7.6c0.3-1.4,0.6-2.7-0.1-4.1c-0.5-0.9-0.8-2-1-3
		c-1.2-4.9-4.6-7.5-9.2-8.9c-1.8-0.5-3.6-0.8-5.3-1.3c-2.3-0.7-4.1-2.5-6.7-2.5c-1.6,0-3.1-0.4-4.7-0.2c-2.7,0.4-5.4,1.1-7.6,3
		c-1.6,1.4-3.5,2.6-4.8,4.3c-1.3,1.6-2.2,3.6-2.9,5.5c-0.6,1.6-0.6,3.5-0.6,5.2c0,1.4,0.7,2.8,0.7,4.2c0,2.3-0.3,4.7-0.4,7
		c-0.1,1.6-0.4,3.3-0.3,4.9c0.1,3,0.4,5.9,1.5,8.7C33.9,59.7,34.4,61.7,36.2,63.2z M78.4,152.3c0-0.1-0.1-0.3-0.1-0.4
		c-0.2,0-0.5,0-0.7,0c-4.1,0-8.3,0-12.4-0.1c-0.6,0-1.4,0-1.3-0.8c0-0.3,0.8-0.6,1.3-0.6c1.4-0.1,2.8-0.1,4.1-0.1c3.2,0,6.5,0,9.7,0
		c1.5,0,3.1,0.2,4.4-0.4c4.4-1.9,8.7-4.1,13.1-6.2c1.5-0.7,2.2-1.9,2.7-3.2c0.2-0.5,0.4-1,0.6-1.5c1-3.2,2.5-6.3,1.4-9.8
		c-0.1-0.4,0-0.9,0-1.3c-0.3-1.7-0.3-3.4-0.9-4.9c-1.7-4-3.8-7.9-5.6-11.9c-1.5-3.3-2.8-6.7-4.2-10c-1-2.3-2.1-4.5-3-6.8
		c-0.9-2.4-1.6-4.8-2.4-7.2c-0.8-2.4-1.8-4.8-2.6-7.2c-0.4-1.1-0.5-2.3-0.8-3.4c-0.3-1.2-0.6-2.4-1-3.6c-0.6-2-1.2-3.9-1.9-5.8
		c-0.1-0.3-0.5-0.7-0.8-0.7c-0.9,0-1.7,0.2-2.7,0.3c0.5,1.1,1,2.1,1.4,3.2c0.8,2.4,1.5,4.8,2.3,7.3c2.1,6.9,4.3,13.7,6.4,20.6
		c1.3,4.4,2.4,8.8,1.5,13.4c-0.7,3.4-2.2,6.3-5.5,7.6c-2.6,1-5.4,1.8-8.2,2.4c-1.4,0.3-3,0.4-4.5,0.3c-2.5-0.1-4.9-0.4-7.4-0.6
		c-0.2,1.1-0.5,1.8-0.5,2.6c-0.2,6.4-0.3,12.8-0.6,19.2c-0.1,1.8-0.4,3.6-0.7,5.4c-0.4,2.6-0.8,5.3-1.2,7.9c-0.1,0.7,0.1,1.3,1,1.1
		c4-0.9,7.9-1.7,11.8-2.7C73.5,153.7,75.9,152.9,78.4,152.3z M64.9,113.9c0.2-0.1,0.3-0.1,0.5-0.2c0.3,0.4,0.7,0.8,0.9,1.2
		c0.6,1.2,1.1,2.4,1.6,3.6c0.3,0.7,0.7,0.9,1.4,0.8c3.4-0.3,6.7-0.8,9.9-1.9c4.4-1.6,6.8-4.6,6.5-9.3c-0.2-3.1-0.8-6.2-1.5-9.2
		c-0.6-2.6-1.7-5-2.5-7.5c-1.8-6.1-3.5-12.3-5.3-18.4c-0.5-1.7-1.2-3.4-1.9-5c-0.4-0.9-0.9-1.8-2-2.1c-0.9-0.2-1.8-0.4-2.8-0.5
		c-1.9-0.4-3.5,0-4.6,1.9c-0.9,1.5-2,3-3.2,4.2c-1.2,1.3-2.8,2.2-4.3,3.4c0.2,0.1,0.6,0.4,0.9,0.7c1.1,1.3,2.4,2.6,3.3,4.1
		c1.7,2.7,1.1,5.8,0.8,8.6c-0.5,4.8-1.5,9.6-1.8,14.4c-0.3,5.2-0.1,10.4-0.1,15.7c0,0.3,0.4,0.8,0.6,0.8c1.6,0.1,3.3,0,5.1,0
		C65.7,117.5,63.8,116.1,64.9,113.9z M29.6,72.8c-1.4,0.7-2.6,1.3-3.7,2c-1.3,0.8-1.3,1.1-0.4,2.4c1.2,2,2.3,4,3.5,6
		c2.5,4.2,4.9,8.5,7.4,12.7c1,1.7,2.4,3.2,3.5,4.9c1.7,2.6,3.3,5.3,5,7.9c0.4-0.5,0.5-0.8,0.5-1.1c0.7-4.2,1.4-8.4,2-12.6
		c0.2-1.2,0.3-2.5,0.2-3.8c-0.1-1.5-0.6-2.9-2.1-3.6c-4.3-2-8.6-4.1-13-6.2c-2-0.9-3.1-2.5-3-4.7C29.6,75.6,29.6,74.4,29.6,72.8z
		 M18.8,77.4c0.6,1,1.1,1.9,1.7,2.7c1.2,1.6,2.4,3.2,3.6,4.8c1.3,1.7,2.6,3.3,3.7,5.1c1.5,2.5,2.8,5.2,4.1,7.8
		c1.1,2.2,2.4,4.4,3.1,6.8c1.1,3.6,0.6,7.2-0.5,10.7c-0.4,1.2-0.9,2.3-0.2,3.6c0.6,1,1,2.1,1.5,3.2c1,2.1,1.9,4.2,3,6.6
		c0.3-0.4,0.4-0.6,0.5-0.7c0.6-1.6,1.2-3.3,1.7-4.9c1.1-3.6,2.2-7.1,3.2-10.7c0.1-0.4,0-1-0.2-1.4c-1.2-2-2.5-3.9-3.7-5.9
		c-1.3-2-2.6-4-3.9-6c-1.3-2-2.6-4-3.9-6c-1.2-1.8-2.4-3.6-3.5-5.5c-0.9-1.6-1.6-3.3-2.4-4.9c-0.7-1.3-1.3-2.6-2.1-3.8
		C24,78,23.4,77,22.6,76.9C21.4,76.8,20.2,77.2,18.8,77.4z M42.1,175.3c-0.1-1.9,0.6-3.5,1.8-4.8c0.2-0.2,0.3-0.8,0.2-1.1
		c-0.5-1.7-1.1-3.5-1.7-5.1c-0.4-1-0.9-2-1.5-3.1c-0.8,1.6-0.3,3.5-2.1,4.2C40,168.7,40.3,172.3,42.1,175.3z M49.6,174.3
		c-0.1-0.7-0.1-1.2-0.2-1.6c-0.2-0.6-0.5-1.4-1-1.6c-0.7-0.4-1.6-0.3-2.4-0.4c0,0-0.1,0-0.1,0.1c-0.8,0.9-1.8,1.8-2.4,2.8
		c-0.7,1.2-0.1,2.3,1.3,2.1C46.5,175.3,48,174.7,49.6,174.3z M29.8,47.4c0.1-0.1,0.2-0.2,0.4-0.3c0-1,0.8-2.2-0.5-2.8
		c-1.3-0.6-2.1-1.6-2.6-2.9c-0.5-1.2-0.6-2.4,0.1-3.6c0.7-1.2,1.7-1.1,3-0.8c-0.5-0.8-1-1.4-1.6-2c-0.2-0.2-0.9-0.2-1,0
		c-0.4,0.5-0.9,1.1-1.1,1.7c-0.7,2.9-0.5,5.7,1.1,8.3C28.1,45.9,29,46.6,29.8,47.4z M100.2,142c1.4-1.1,2.5-1.9,3.6-2.8
		c0.3-0.3,0.5-0.9,0.4-1.3c-0.3-1.4-0.8-2.7-1.2-4.1C102.1,136.5,101.2,139,100.2,142z M29.4,163.4c-0.1,0.1-0.8,0.4-0.8,0.6
		c0.1,1.3,0.1,2.7,1.2,3.7c0.2,0.2,0.9,0.1,0.9-0.1c0.3-0.9,0.7-1.9,0.7-2.9C31.5,163.9,30.7,163.4,29.4,163.4z M35.9,161.5
		c-0.9-1.3-1.8-1.9-3.1-1.5c-0.8,0.2-0.8,0.9-0.7,1.5c0.2,0.7,0.7,1.3,1,1.9C34,162.8,34.9,162.2,35.9,161.5z M30.8,38.9
		c-0.4-0.1-0.9-0.1-1.2-0.3c-0.9-0.5-1.2-0.1-1.3,0.7c-0.2,1.6,0.8,3.2,2.5,3.7C30.8,41.6,30.8,40.3,30.8,38.9z M30,66.2
		c0.2,0,0.3,0,0.5,0c1-1,1.9-2.1,3-3.2c-0.5-0.3-1.1-0.6-1.7-1c-1-0.5-1.7,0-1.8,0.9C29.8,63.9,30,65.1,30,66.2z M38.9,164.2
		c0.6-1.6,1.1-2.9,0.4-4.4C37.9,160.2,37.8,161.9,38.9,164.2z M29.4,169.1c-0.1,0.1-0.3,0.1-0.4,0.2c0.4,1,0.8,2,1.2,3
		c0.1-0.1,0.3-0.1,0.4-0.2C30.2,171.2,29.8,170.1,29.4,169.1z"/>
	<path class="st0" d="M56.6,66.4c-2.9,0.4-5.1-1-7-3.1c-0.4-0.5-1-0.8-1.5-1.2c-0.2-0.2-0.5-0.5-0.4-0.8c0.1-0.3,0.4-0.7,0.7-0.7
		c1.5-0.4,3.1-0.7,4.6-1c0.7-0.1,1.3-0.4,2-0.4c0.7,0,1.4,0.2,2.1,0.4c0.2,0,0.5,0.2,0.7,0.1c1.6-0.9,3.2-0.3,4.7,0.2
		c2.4,0.8,2.4,0.8,0.8,2.8C61.5,64.8,59.8,66.8,56.6,66.4z M62,62.6c-1.8,0.3-3.8,0.7-5.7,0.8c-1.9,0-3.8-0.3-5.6-0.5
		C53.4,66.7,59.9,66.4,62,62.6z M62.2,61.1c-1-0.3-1.8-0.8-2.5-0.8c-1.4,0-2.7,0.8-4-0.2c0,0-0.1,0-0.1,0c-1.7,0.4-3.3,0.7-5.3,1.1
		C54.4,62.9,58.1,62.9,62.2,61.1z"/>
	<path class="st0" d="M61.7,40.8c-1,3.4-1.5,6.6,0.7,9.6c0.5,0.6,0.7,1.6,0.8,2.4c0.2,1.1-0.6,1.9-1.6,2.2c-0.5,0.1-1,0.4-1.4,0.7
		c-1.3,1-2.6,1.1-4,0.3c-0.6-0.3-1.4-0.5-2.2-0.5c-1,0-1.9,0.2-2.5-0.8c-0.6-1.1-0.4-2.1,0.4-3.1c0.2-0.3,0.4-0.5,0.7-0.7
		c0.3-0.2,0.7-0.4,1-0.5c0,0,0.4,0.4,0.3,0.5c-0.2,0.3-0.4,0.6-0.7,0.9c-0.3,0.5-0.8,1-1,1.5c-0.2,0.9,0.4,1.4,1.2,1.1
		c1.3-0.4,2.4-0.1,3.4,0.6c0.8,0.6,1.6,0.5,2.5-0.1c0.6-0.5,1.3-0.9,2-1.1c0.8-0.3,1.1-0.8,0.9-1.6c-0.2-0.6-0.4-1.2-0.8-1.7
		c-1.4-1.8-1.7-3.8-1.5-6c0.1-1.1,0.2-2.2,0.5-3.2C60.5,40.8,61,40.3,61.7,40.8z"/>
	<path class="st0" d="M70.3,42.8c-1.7-1.4-3.5-1.1-5.3-1c-0.3,0-0.6-0.2-0.9-0.4c0.3-0.2,0.6-0.7,0.9-0.7c2.3-0.1,4.5-0.2,6.6,0.9
		c0.6,0.4,0.8,0.6,0.4,1.3c-0.6,1.1-1.7,1.4-2.8,1.7c-2,0.5-4,0.2-5.9-0.5c-0.4-0.1-0.6-0.5-1-0.7c0.4-0.1,0.8-0.4,1.2-0.4
		c1.3,0.1,2.6,0.4,4,0.4C68.4,43.4,69.4,43,70.3,42.8z"/>
	<path class="st0" d="M51.7,42.6c-1.6-1.2-3.2-1.5-4.9-1.7c-0.2,0-0.4,0.1-0.6,0c-0.3-0.1-0.4-0.4-0.7-0.5c0.2-0.2,0.5-0.5,0.7-0.5
		c2.4,0.1,4.7,0.7,6.6,2.3c0.7,0.6,0.6,1.2-0.3,1.4c-1.5,0.3-3.1,0.5-4.6,0.5c-1.9-0.1-3.8-0.4-5.5-1.6c-0.3-0.2-0.8-0.3-1.1-0.5
		c-0.3-0.1-0.5-0.4-0.7-0.6c0.3-0.2,0.7-0.6,1-0.5c0.7,0.2,1.4,0.5,2,0.8C46.1,42.9,48.7,43.3,51.7,42.6z"/>
	<path class="st0" d="M44.9,34.9c1.6,0.5,3.3,0.9,4.9,1.4c1,0.3,2,0.7,3,1c0.2,0.1,0.4,0.4,0.5,0.5c-0.2,0.2-0.4,0.4-0.6,0.4
		c-0.6,0-1.1,0-1.7-0.2c-1.1-0.3-2.3-0.7-3.4-1.2c-1.3-0.6-2.7-0.6-4.1-0.5c-0.3,0-0.6-0.2-0.9-0.3c0.2-0.2,0.4-0.6,0.7-0.7
		c0.5-0.2,1-0.2,1.5-0.3C44.8,35,44.8,35,44.9,34.9z"/>
	<path class="st0" d="M70,36.9c0.5,0,1.1-0.1,1.6,0c0.3,0.1,0.5,0.4,0.8,0.6c-0.2,0.2-0.4,0.6-0.7,0.6c-2,0.4-3.9,0.7-5.9,1
		c-0.4,0.1-1.2-0.1-1.4-0.5c-0.3-0.7,0.2-1,0.9-1.1c1.6-0.3,3.2-0.5,4.7-0.8C69.9,36.8,69.9,36.8,70,36.9z"/>
</g>
</svg>
