<?xml version="1.0" encoding="utf-8"?>
<!-- Generator: Adobe Illustrator 19.2.1, SVG Export Plug-In . SVG Version: 6.00 Build 0)  -->
<svg version="1.1" id="Layer_1" xmlns="http://www.w3.org/2000/svg" xmlns:xlink="http://www.w3.org/1999/xlink" x="0px" y="0px"
	 viewBox="0 0 200 168.9" style="enable-background:new 0 0 200 168.9;" xml:space="preserve">
<style type="text/css">
	.st0{fill:#E64A19;}
</style>
<g id="icon-badbreath">
	<path class="st0" d="M0,168.9c0.7-1.9,1.4-3.8,2.1-5.7c1.3-3.2,2.8-6.4,4.2-9.6c1-2.3,2.4-4.1,4.5-5.4c4.3-2.6,9.1-4.2,14-5.4
		c1.1-0.3,2.2-0.4,3.2-0.8c5.1-1.7,10.2-3.4,15.3-5.3c5.1-2,10.2-4.1,15.2-6.4c2-0.9,3.6-2.5,5.7-4c-1.5-0.6-2.6-1-3.7-1.5
		c-1.3-0.6-2.6-1.1-3.8-1.8c-1.8-1-2.9-2.4-2.6-4.6c0.1-1.2-0.4-1.6-1.5-1.8c-2.2-0.4-4.5-0.9-6.7-1.4c-4.4-1-5.3-2.4-4.6-6.9
		c-0.3-0.1-0.6-0.2-0.9-0.3c-2.7-0.8-3.3-1.9-3-4.9c0.2-2.1,1.4-3,3.8-3.2c0.8-0.1,1.6-0.4,2.4-0.3c1.5,0.1,2.3-0.1,2.4-2
		c0-1.5,1.3-2.2,2.8-2.7c2.9-0.8,2.8-0.9,1.8-3.8c-1.1-3.2-2.2-6.4-2.9-9.7c-0.6-2.6-0.7-5.3-1.1-7.9c-0.6-4.3-1.3-8.5-2.1-12.8
		c-1-5.5-2.2-11-3-16.6c-0.7-4.3-0.5-8.5,1.3-12.5c1.1-2.4,2.5-4.6,3.4-7.1c1.5-4.3,4.2-7.6,7.4-10.7c3-2.9,6.5-5.3,10.5-6.9
		c1.2-0.5,2.4-1.1,3.5-1.9C71,2.6,75,2.1,79,1.4c2.1-0.4,4.3-0.7,6.4-1.1c4.5-0.9,9,0.4,13.4,0.6c3.8,0.2,7,1.9,10,4.1
		c2.4,1.8,5.3,3,7.3,5.1c2.8,2.8,5.1,6.1,7.3,9.3c3.4,4.9,5.7,10.4,7.7,16c0.3,0.7,0.3,1.6,0.4,2.4c0.4,3.8,1.1,7.5,1.2,11.3
		c0.3,7.2,0,14.5,0.4,21.7c0.2,3.7,1,7.3,1.8,10.9c2.2,9.6,6,18.6,9.9,27.7c3,7,6.7,13.5,10.8,19.7c0.4,0.5,0.6,1.2,0.8,2.2
		c6.6,0,13.1,0,19.7,0c2.5,0,4.4,1.2,6.3,2.6c1.2,0.9,2.5,1.7,3.7,2.7c3.9,3.3,6,7.8,7.5,12.5c2.2,6.5,4.1,13.1,6.2,19.7
		c-1.1,0-2.1,0-3.2,0c0-0.3,0-0.6-0.1-0.9c-1.8-5.8-3.5-11.6-5.4-17.3c-1.4-4.2-2.9-8.4-6.5-11.3c-1.8-1.5-3.8-2.7-5.8-3.9
		c-1.1-0.6-2.3-1.2-3.5-1.2c-6.2-0.3-12.5-0.3-18.7-0.5c-1.4,0-2.8-0.3-4.2-0.5c-2.2-0.3-4.3-0.8-6.3-1.1c1.9,4.4,3.8,8.7,5.6,13
		c2.4,5.8,4.7,11.6,7,17.4c0.5,1.2,1.1,2.3,1.8,3.6c1.3-2.4,2.5-4.6,3.7-6.7c1.9-3.3,3.8-6.6,5.7-9.9c0.8-1.3,1.7-2.5,2.7-3.6
		c1.2-1.4,2.4-2.7,3.8-3.9c0.5-0.4,1.5-0.7,1.9-0.4c0.5,0.3,0.8,1.2,0.8,1.9c0,0.5-0.6,1.1-1.1,1.5c-2.6,2.2-4.8,4.6-6.4,7.8
		c-2.7,5.5-5.9,10.6-9,15.9c-1.4,0-2.8,0-4.2,0c-1.8-3.8-3.6-7.5-5.3-11.3c-1-2.2-1.7-4.5-2.6-6.7c-1.9-5.2-3.6-10.5-6.5-15.3
		c-0.5-0.8-1.1-1.5-1.5-2.4c-1-2.1-3.4-3.3-5.4-2.3c-4.1,2-8.2,4.2-12.3,6.4c-2.7,1.5-5.6,2.9-7.8,5c-2.7,2.6-4.7,5.8-6.9,8.8
		c-1.6,2.2-1.6,2.3,0.3,4.2c3.9,3.8,6.4,8.5,8.3,13.5c-1.1,0-2.1,0-3.2,0c-1.4-2.7-2.8-5.4-4.4-8c-0.3-0.4-1.3-0.8-1.8-0.7
		c-3.3,1.1-6.6,2.3-9.9,3.6c-6.6,2.5-13.3,4.7-20.5,4.1c-1.3-0.1-2.6-0.3-3.9-0.2c-8.6,0.1-16.7-1.8-24.4-5.4c-3.1-1.5-6-4-8.2-6.7
		c-3.1-3.8-3.1-8.6-2-13.3c0.2-0.7,0.3-1.4,0.5-2.3c-4.4,1.6-8.6,3.2-12.7,4.7c-0.7,0.3-1.4,0.4-2.2,0.6c-4.7,1.1-9.2,2.5-13.5,4.8
		c-2,1.1-3.3,2.7-4.2,4.8c-1.1,2.7-2.3,5.2-3.5,7.9c-0.9,2-1.7,4.1-2.5,6.1C1.9,168.9,0.9,168.9,0,168.9z M125.1,71.6
		c-1.5,0-1.4,0-2.2,1.9c-0.2,0.5-0.9,0.7-1.3,1.1c-0.2-0.5-0.5-1.1-0.5-1.6c0.4-2.3,1.1-2.9,3.4-3.4c0.4-0.1,1-0.1,1.1-0.4
		c0.7-2,2.2-3.8,1.9-6.1c-1.2,0.9-2.4,1.8-3.6,2.6c-0.2-0.1-0.3-0.1-0.5-0.2c0-0.6-0.1-1.2,0.2-1.6c0.5-0.7,1.2-1.3,1.9-1.8
		c2.5-1.9,2.9-3,1.8-6c-1.7-0.1-2.2,1.3-2.8,2.5c-0.9,1.7-1.6,3.7-2.6,5.4c-0.5,0.8-1.5,1.9-2.2,1.9c-0.7,0-1.5-1.2-2.1-2.1
		c-0.4-0.7-0.5-1.5-0.7-2.3c-0.5-2.1-0.8-4.3-1.7-6.3c-2-4.4-3.9-8.8-4-13.9c-0.1-2.5-1.7-4.2-4.2-4.8c-3.2-0.7-6.5-1.2-9.7-2
		c-3-0.7-5.7-2-7.7-4.6c-0.1,0-0.3,0-0.3,0.1c-0.3,0.2-0.5,0.5-0.8,0.6c-3.7,2.2-7.4,4.4-11.9,4.3c-2.2-0.1-4.3-0.5-6.5-0.4
		c-3.1,0.1-6.2,0.5-9.3,0.6c-3.6,0.1-6.5,1.9-9.4,3.6c-1.7,1-3.1,2.7-3.3,4.8c-0.6,5.3-2.4,10.5-1.5,15.9c0.6,3.9,0.1,7.8,1.7,11.6
		c0.7,1.6,1.1,3.5,1.1,5.3c-0.1,5.1,1.3,9.8,3.3,14.4c0.4,1,1.2,2.2,2.1,2.6c1.5,0.6,3.2,0.7,4.8,0.8c2.6,0.2,5.2,0.3,7.7,0.5
		c3.1,0.2,6.2,0.4,9.5,0.7c-1.7-2.3-3.8-3.1-6.3-3.2c-2,0-2.7-0.6-2.3-2.6c0.4-1.9,1.4-3.6,2.2-5.4c0.1-0.1,0.5-0.1,1.2-0.2
		c-0.3,0.8-0.6,1.3-0.8,1.9c-0.5,1.3-1.1,2.5-1.5,3.8c-0.3,0.8,0.1,1.5,1.2,1.4c2.6-0.2,4.6,0.8,6.5,2.5c1.7,1.6,3.5,1.5,4.8-0.1
		c1.4-1.8,3.2-2.6,5.4-2.8c1.5-0.1,2.2-0.9,2.2-2.6c0-1.7,0.1-3.4,0.6-5c0.7-2.2,3.2-2.8,4.6-1.4c1.9,1.8,3.8,3.6,5.6,5.6
		c2.5,2.6,5.4,4.5,8.8,5.4c2.1,0.5,4.2,0.9,6.5,1.4c0.4-3.3,0.8-6.4,1.1-9.5c0.3-2.3,0.4-4.7,0.8-7c0.1-0.6,1-1.1,1.5-1.6
		c0.4,0.6,1,1.1,1.2,1.8c0.2,0.6,0,1.3,0,2.3C122.7,77.5,124.3,74.9,125.1,71.6z M46.9,106.9c-0.1,0,0.1,0.1,0.2,0.1
		c2.6,0.4,5.2,0.8,7.8,1.2c4.2,0.7,8.5,1.5,12.7,2.3c1.7,0.3,3.4,0.6,5,1.1c2.9,0.8,5.5,3,8.9,2.5c0.2,0,0.7,0.4,0.8,0.7
		c0.4,1.3-0.5,2.1-2,1.6c-3.1-1-6.1-2.2-9.2-3.2c-1-0.3-2-0.5-2.8-0.6c-0.4,1.1-0.7,1.8-1,2.5c-0.2,0-0.4,0-0.6,0
		c-0.2-0.8-0.5-1.5-0.8-2.4c-5.4-0.7-10.7-2.7-16.2-2.9c-0.2,1.5-0.4,2.7-0.7,4.1c2.3,0.4,4.8,1,7.4,1.3c5.1,0.5,9.9,2.1,14.6,3.9
		c3.6,1.3,7.1,2.9,10.6,4.3c0.3,0.1,0.7,0.3,0.9,0.5c0.2,0.2,0.5,0.7,0.4,0.9c-0.1,0.3-0.5,0.7-0.9,0.7c-0.5,0.1-1-0.1-1.5-0.2
		c-2.3-0.8-4.7-1.6-6.9-2.3c-0.4,0.5-0.9,1.1-1.3,1.7c-0.2-0.1-0.4-0.1-0.5-0.2c-0.1-0.9-0.2-1.7-0.3-3.1c-2.8-0.9-5.9-1.9-8.9-2.9
		c-0.1,1.6-0.2,3.2-0.3,4.8c1.5,0.6,3.1,1.2,4.7,1.8c6,2.3,12,4.6,17.9,7c6.6,2.7,13.2,5.5,19.8,8.3c0.4,0.2,1.1,0.1,1.3-0.2
		c2.6-2.5,4.9-5.2,7.7-7.5c6.2-5,12.1-10.6,20.5-11.5c-0.3-1.2-0.6-2.4-0.9-3.5c-0.9-4-2.4-7.4-5.8-10c-2.7-2.1-4.8-5-7.2-7.4
		c-2.1-2.1-4.1-4.5-7.6-4.6c-1.6,0-3.3-0.5-4.7-1.1c-3-1.4-5.9-3.1-9.2-4.8c-3.1,1.7-3.9,1.8-6.7,0.8c0.5,0.9,0.8,1.7,1.3,2.3
		c1.5,1.5,2.8,3.5,4.7,4.3c6.2,2.5,12.7,4.5,19,6.8c0.5,0.2,0.7,1.1,1,1.7c-0.6,0.1-1.4,0.5-1.9,0.3c-3.6-1.4-7.1-2.9-10.7-4.3
		c-2.4-0.9-4.8-1.8-7.3-2.2c-4-0.6-8-0.8-12-1.1c-2.7-0.2-5.4-0.4-8.1-0.6c-2-0.1-4-0.3-5.9-0.4c-0.3,1.2-0.5,2.2-0.8,3.2
		c-0.2,0-0.4,0-0.6,0c-0.3-1-0.6-2-0.9-3.2c-5.2-0.5-10.5-1-15.7-1.5c0.2,1.4,0.4,3,0.6,4.7c0.7,0.1,1.6,0.3,2.4,0.4
		c4.3,0.6,8.8,0.8,13,1.7c5.2,1.2,10.1,3.2,15.6,2.9c0.4,0,0.7,0.7,1.1,1c-0.5,0.4-1,1-1.6,1c-1.1,0.1-2.2-0.3-3.3-0.2
		c-3.1,0.1-6-0.5-8.9-1.7c-1.7-0.7-3.5-1-5.1-1.4c-0.8,1.1,0.4,2.9-1.8,3.2c0-1,0.1-1.8,0-2.5c-0.1-0.4-0.5-1-0.8-1
		c-2.1-0.3-4.3-0.6-6.4-0.7c-3.9-0.3-7.9-0.6-11.6-0.9C47.1,103.4,47,105.1,46.9,106.9z M104.6,142.5c-2.9-1.2-5.6-2.3-8.3-3.5
		c-8.9-3.7-17.7-7.4-26.6-11c-1.6-0.7-3.2-1.6-4.4,0.7c-0.1,0.2-0.3,0.3-0.5,0.4c-3.5,2.6-7,5.3-11.3,6.6c-2.5,0.7-3.4,2.5-3.9,4.7
		c-0.1,0.7,0,1.4-0.2,2.1c-1.3,6.4,3.2,11,7.4,13.1c4.2,2,8.7,2.9,13.4,3c1.3,0,2.7,0.1,4,0.1c3.7,0.2,7.5,0.6,11.2,0.4
		c6.2-0.3,12.1-2.5,17.9-4.6c0.9-0.3,1.7-0.8,2.7-1.3c-0.9-1.7-1.6-3.2-2.5-4.7c-0.8-1.4-0.8-2.8-0.1-4.2
		C103.8,143.9,104.1,143.4,104.6,142.5z M43.6,139.3c-0.2,0.9-0.3,1.5-0.4,2.1c-1.9,9.2-0.1,13.2,7.1,17.8c3.7,2.3,8.3,3.7,12.6,4.5
		c5.4,1.1,11,1.4,16.6,1.8c2.3,0.2,4.7,0.3,6.8-0.3c4.4-1.1,8.7-2.5,13.1-3.9c3.2-1,6.3-2.3,9.5-3.4c-1.1-2.2-1.3-2.2-3.2-1.4
		c-1,0.4-1.9,0.8-2.9,1.2c-6.9,2.7-14.1,4.5-21.5,4.3c-3-0.1-6.1-0.6-9.1-0.7c-4.1-0.1-8-0.6-12-1.6c-4.8-1.2-8.4-3.8-11.4-7.7
		c-2.3-2.9-2.9-5.9-2.2-9.4c0.3-1.4,0.3-2.8,0.5-4.5C45.7,138.7,44.7,139,43.6,139.3z M138.6,128.3c-0.6-0.9-1.6-1.8-2.2-3
		c-0.6-1.3-1.5-1.4-2.7-1.3c-3.6,0.6-6.9,1.9-9.8,4.1c-3.6,2.8-7.2,5.6-10.8,8.4c-3.1,2.5-5.6,5.5-7.1,9.2c-0.1,0.3-0.2,0.7-0.1,0.9
		c0.8,1.6,1.6,3.1,2.6,4.9c0.7-1,1.2-1.8,1.7-2.7c2.3-3.9,5-7.6,9-9.9C125.6,135.3,132.1,131.9,138.6,128.3z M89.7,91.2
		c-2.7,1.2-6.3,0.9-7.7,4.5c3.8,0.3,7.6,0.7,11.6,1C92.2,94.8,91,93,89.7,91.2z M43.1,101.5c-1.3,0.3-2.3,0.3-2.9,0.8
		c-0.5,0.4-0.9,1.4-0.9,2.1c0,0.5,0.6,1.3,1.1,1.5c1.2,0.4,2.7,0.8,3.8,0.5c0.6-0.2,1-2.1,0.8-3.1C45,102.5,43.7,102,43.1,101.5z
		 M97.5,87.5c-1.6-1.5-3.1-2.9-4.7-4.3c-1,0.7-1.8,3.6-1.3,4.3C92.9,89.4,95.1,89.4,97.5,87.5z M60,122.2c0.7-1.3,0.8-2.9-0.1-3.9
		c-0.9-1.1-2.5-1.2-4-0.9C55.6,120,57.2,121.4,60,122.2z M46.8,113.3c1.2-3,1.1-3.9-0.5-4.4c-1.4-0.5-2.9-0.1-3.2,1
		C42.6,111.6,43.4,112.4,46.8,113.3z M52.5,100.4c0.2-0.2,0.3-0.3,0.5-0.5c-0.5-1.1-0.7-2.4-1.5-3.2c-0.5-0.4-1.9,0-2.8,0.4
		c-0.4,0.2-0.9,1-0.8,1.5c0,0.4,0.6,1,1.1,1.1C50.1,100.2,51.3,100.3,52.5,100.4z"/>
	<path class="st0" d="M97,74.6c-1.9-0.2-3.7-0.4-5.6-0.5c-1-0.1-2.1,0.1-3.1,0c-0.4,0-0.9-0.1-1.3-0.4c-0.2-0.1-0.2-0.8,0-0.9
		c2.3-2,3.7-4.8,6.9-5.8c2.9-0.9,5.6-0.9,8.4,0.2c1.2,0.5,2.5,0.9,3.8,1.3c1,0.3,1.4,1.5,0.5,2C103.6,72.1,101.1,75.2,97,74.6z
		 M100.6,68.6c-0.1,1.5-0.2,2.8-0.3,4.2c1.1-1,3-1.2,3.8-3.1C102.7,69.3,101.6,69,100.6,68.6z M93.5,69.3c-0.1-0.1-0.2-0.2-0.4-0.4
		c-1,1-2,2-3.3,3.3c1.6,0.1,2.7,0.2,3.7,0.3C93.5,71.5,93.5,70.4,93.5,69.3z"/>
	<path class="st0" d="M63.4,75.7c-3.1,0.2-5.9-0.8-8.6-2.1c-0.7-0.3-1.4-0.4-2.1-0.8c-0.4-0.2-1-0.6-1.1-0.9c0-0.4,0.4-1.1,0.8-1.2
		c3.6-1.2,7.1-2.9,11.1-2.7c3.3,0.2,5.6,1.8,7.5,4.2c0.6,0.8,0.6,1.6-0.5,1.9c-2.3,0.7-4.7,1.3-7,1.9C63.5,75.9,63.4,75.8,63.4,75.7
		z M66.1,69.8c-0.4,1.7-0.7,3-1.1,4.7c1.5-0.5,2.9-0.9,4.3-1.4c0.1-0.2,0.1-0.4,0.2-0.6C68.4,71.5,67.3,70.6,66.1,69.8z M55.4,71.5
		c0,0.2,0,0.4,0.1,0.6c1.4,0.5,2.7,0.9,4.1,1.4c0.1-0.1,0.2-0.3,0.3-0.4c-0.4-0.9-0.8-2.3-1.4-2.5C57.6,70.5,56.4,71.2,55.4,71.5z"
		/>
	<path class="st0" d="M106.3,59.6c-0.6,0-1.2,0.2-1.8,0.1c-5-0.7-9.3,1.2-13.5,3.6c-1,0.6-2.1,1.1-3.2,1.5c-0.4,0.1-0.9-0.1-1.4-0.2
		c0.1-0.5,0.1-1.2,0.4-1.4c3.5-2,6.5-4.8,10.7-5.2c2.2-0.2,4.5-0.1,6.8,0c0.7,0,1.4,0.6,2.2,1C106.4,59.1,106.3,59.4,106.3,59.6z"/>
	<path class="st0" d="M68.3,66.6c-0.7-0.2-1.6-0.3-2.2-0.7c-2.3-1.5-4.7-2.2-7.4-2.3c-2.9-0.1-5.7-0.6-8.3,1.2
		c-0.1-0.1-0.2-0.2-0.3-0.3c0.2-0.5,0.4-1.1,0.8-1.4c0.5-0.4,1.1-0.8,1.7-0.9c4.6-0.6,9.2-1.2,13.5,1.2c1.1,0.6,1.9,1.6,2.9,2.5
		C68.7,66.1,68.5,66.3,68.3,66.6z"/>
</g>
</svg>
