<?xml version="1.0" encoding="utf-8"?>
<!-- Generator: Adobe Illustrator 19.2.1, SVG Export Plug-In . SVG Version: 6.00 Build 0)  -->
<svg version="1.1" id="Layer_1" xmlns="http://www.w3.org/2000/svg" xmlns:xlink="http://www.w3.org/1999/xlink" x="0px" y="0px"
	 viewBox="0 0 147.2 200" style="enable-background:new 0 0 147.2 200;" xml:space="preserve">
<style type="text/css">
	.st0{fill:#388E3C;}
</style>
<g id="icon-stomachvirus">
	<path class="st0" d="M128.4,200c-1-4.6-2-9.1-3-13.8c-0.6,0.2-1.2,0.4-1.7,0.6c-3.4,1.7-6.9,2.5-10.6,3.2c-1.8,0.3-3.5,0.9-5.3,1.4
		c-1.4,0.4-2.9,0.6-4.4,0.9c-0.1,0-0.2,0-0.3,0c-0.3-0.1-0.6-0.3-0.9-0.4c0.2-0.3,0.4-0.7,0.7-0.8c0.8-0.3,1.7-0.5,2.6-0.7
		c1.5-0.4,3-0.7,4.5-1.1c2.5-0.6,5.1-1,7.6-1.7c1.9-0.5,3.7-1.4,5.5-2.1c0.5-0.2,1-0.3,1.5-0.6c0.2-0.1,0.4-0.5,0.3-0.6
		c-0.9-2.4-1.8-4.9-2.7-7.3c-0.1-0.3-0.3-0.5-0.5-0.7c-1.2,0.7-2.3,1.3-3.5,1.9c-3.2,1.7-6.5,3.2-9.7,5c-1.8,1-3.5,2.3-5.2,3.6
		c-1.1,0.8-2,1.8-3,2.5c-0.4,0.3-1.1,0.4-1.5,0.2c-1.3-0.7-2.3,0.1-3.4,0.6c-1.9,0.9-3.8,1.9-5.7,2.8c-0.6,0.3-1.3,0.6-1.9,0.9
		c-1.7,1.1-3.5,1.5-5.5,1.4c-3.9,0-7.8-0.1-11.8-0.1c-1.9,0-3.8,0.2-5.6,0.3c-0.6,0-1.2-0.1-1.8-0.3c-1.2-0.4-1.4-1-1.1-2.7
		c-0.8,0-1.6,0-2.4,0c-1.3,0.1-1.9-0.7-2.3-1.7c-0.4-1-0.2-1.9,0.7-2.7c-0.1,0-0.1-0.1-0.1-0.1c-1.6-0.2-2.2-0.9-2.2-2.3
		c0-1.7,0.7-2.7,2.3-2.9c0.7-0.1,1.5-0.1,2.3-0.2c0.7-0.1,1.4-0.1,2.2-0.4c-0.5-0.1-1-0.3-1.6-0.4c-0.5-0.1-1-0.1-1.5-0.1
		c-1.6-0.2-2.2-0.8-2.2-2.2c-0.1-1.3,0.7-2.3,2.1-2.5c1.2-0.2,2.5-0.2,3.7-0.2c0.6,0,1.2-0.1,1.8-0.1c-0.2-0.6-0.4-1.1-0.4-1.7
		c-0.1-1.4,1.1-2.6,2.5-2.5c1.4,0,2.8,0.1,4.1,0.1c1.4-0.1,2.9-0.2,4.3-0.4c1.4-0.1,2.7,0,4,0.6c0.3,0.1,0.6,0.3,0.9,0.3
		c2.4,0.5,4.9,1.1,7.4,1.5c0.4,0.1,0.9,0,1.4,0c0-0.2,0-0.4-0.1-0.6c-0.3-1.1-0.3-1.2,0.8-1.6c0.3-0.1,0.5-0.3,0.7-0.4
		c1.7-1.4,3.4-2.9,5-4.3c-1.5-0.4-3.1-0.7-4.7-1.1c-1.9-0.5-3.8-1.1-5.7-1.7c-0.3-0.1-0.4-0.6-0.6-0.9c0.3-0.2,0.7-0.5,0.9-0.4
		c1.2,0.3,2.3,0.8,3.5,1.1c1,0.3,2.1,0.5,3.1,0.7c1.7,0.4,3.4,0.9,5.1,1.3c0.1,0,0.3,0,0.4-0.1c0.9-0.5,1.8-0.9,2.6-1.4
		c3-2,6.1-4.1,9.1-6.2c1-0.7,1-0.7,0.4-1.7c-0.4-0.8-0.6-1.6-0.9-2.4c-0.7-1.6-1.6-3.2-2.3-4.9c-1.1-2.5-2.2-5-3.1-7.6
		c-0.9-2.4-1.5-4.9-2.2-7.4c-0.1-0.3-0.2-0.6-0.3-1.1c-0.3,1.3-0.4,2.4-0.7,3.4c-0.3,1.1-0.8,2.2-1.4,3.3c-0.7,1.4-1.5,2.6-2.2,4
		c-1.2,2.4-3.4,3.7-5.5,5c-0.4,0.2-0.7,0.6-1.1,0.7c-0.3,0.1-0.7-0.1-1.1-0.1c0.1-0.3,0-0.8,0.2-1c0.3-0.3,0.7-0.6,1.1-0.8
		c3.5-1.6,5.6-4.6,7.2-7.9c0.4-0.9,1-1.8,1.2-2.8c0.4-1.4,0.5-2.8,0.8-4.2c0.2-1,0.3-1.9,0.3-2.9c0-0.6-0.3-1.3-0.5-1.9
		c-0.7-2-1.6-4-2-6.1c-0.3-1.3-0.9-2-1.9-2.7c-0.9-0.6-1.6-1.4-2.4-2.1c-1-1-2-2-3-3c-0.4-0.4-0.6-0.8-1-1.1c-0.3-0.3-0.6-0.6-1-0.6
		c-2.8-0.4-5.1-1.5-7-3.6c-3.4-3.6-5.7-7.8-6.3-12.8c-0.5-3.7-0.6-7.5,0.1-11.3c0.9-4.7,3.4-8.4,6.6-11.8c1.6-1.7,3.6-2.3,5.9-2.5
		c0.5,0,1.1-0.1,1.6-0.2c2.5-0.3,4.9,0.4,7.2,1.2c0.2,0.1,0.4,0.1,0.9,0.2c-2.1-2.5-3.4-5.5-6.6-6.7c-0.8-0.3-1.3-1.1-2-1.7
		c-1.1-1-1.2-1-2.4-0.3c-1.8,1-3.4,2.3-4.8,3.8c-0.3,0.3-0.5,0.6-0.7,0.9c-1.2,2-2.3,4-3.5,5.9c-1.5,2.4-2.7,5-3.7,7.6
		c-0.3,0.8-0.9,1.5-1.3,2.2c-0.7,1.5-1.4,3.1-2,4.6c-1.5,3.5-3,7-4.6,10.5c-0.6,1.3-1.4,2.5-2.1,3.7c-0.3,0.5-1,0.7-1.3,1.2
		c-2,2.3-4.2,4.3-6.9,5.7c-0.7,0.4-1.3,0.9-2,1.3c-3.3,2.3-6.6,1.9-10.1,0.5c-4.1-1.7-6.1-5.1-7.5-9.1c-0.9-2.4-1-4.9-1.5-7.3
		c-0.6-3-0.3-6,0-9.1c0.5-5.7,2.6-10.8,5.3-15.8c1.4-2.5,3-4.7,5.2-6.5c0.1-0.1,0.2-0.2,0.3-0.4c0,0,0-0.1,0-0.3
		c-0.2,0-0.5-0.1-0.7-0.1c-3.3,1-6.7,1.8-9.7,3.7c-2.3,1.4-4.6,3-6.2,5.2c-0.8,1.1-1.6,2.2-2.1,3.4c-0.3,0.7-0.3,1.5-0.3,2.3
		c0,2.2-0.1,4.4,0.2,6.6c0.2,2.1,0.8,4.1,1.3,6.1c0.6,2.3,1.5,4.6,2.1,6.9c0.6,2.4,1.5,4.8,1.4,7.5c-0.1,3.1,0.1,6.1,0.1,9.2
		c0,0.8-0.2,1.6-0.4,2.4c-0.9,3.8-1.8,7.7-1.5,11.6c0.1,2,0.6,3.9,1.3,5.8c0.7,1.9,1.6,3.8,2.6,5.5c1.1,1.9,2.4,3.6,4.3,4.8
		c0.4,0.2,0.5,0.8,0.8,1c0.8,0.7,1.7,1.3,2.6,2c1,0.7,1.9,1.5,2.9,2.2c0.6,0.4,1.4,0.5,2.1,0.6c1.8,0.4,3.7,0.8,5.5,1.2
		c1,0.2,1.9,0.6,2.9,0.9c0.2,0.1,0.3,0.5,0.5,0.8c-0.3,0.2-0.6,0.4-0.9,0.4c-0.4,0-0.8-0.2-1.2-0.3c-2.4-0.6-4.7-1.2-7.1-1.8
		c-0.1,0-0.2,0-0.2,0c1.4,3.1,2.9,6.3,4.4,9.5c0.6,1.2,1.5,2.2,2.1,3.3c0.8,1.5,1.7,3.1,2.3,4.7c0.5,1.1,1.3,1.6,2.3,2
		c0.8,0.3,1.7,0.5,2.5,0.9c0.3,0.1,0.6,0.6,0.6,0.8c-0.1,0.5-0.5,0.6-1,0.4c-1.3-0.4-2.5-0.9-3.9-1.4c0,0.8,0,1.7,0,2.6
		c-0.1,6-0.1,11.9-0.2,17.9c0,1.2-0.2,2.5-0.5,3.7c-0.3,1.3-0.8,2.6-1.2,3.9c-0.5,0-0.9,0-1.4,0c1.6-4.2,2.1-8.6,1.9-13.1
		c-0.2-3.8-0.1-7.7-0.2-11.5c0-1.5,0.2-3.1,0-4.6c-0.3-2-1.2-3.9-2.3-5.6c-1.9-3-3.7-5.9-4.8-9.3c-1.1-3.4-3.5-5.9-6.6-7.8
		c-0.4-0.3-0.9-0.5-1.2-0.9c-1-1.4-2.5-1.4-4-1.7c-2.5-0.4-5.1-0.8-7.6-1.1c-3.1-0.4-6-1.4-9-2.2c-1-0.3-2.2-0.2-3.2-0.6
		c-1.5-0.5-2.9-1.3-4.5-1.8c-1.9-0.6-3.6-1.6-4.9-3.1c-1-1.2-1.8-2.5-2-4.1c-0.2-1.3-0.4-2.6-0.7-3.9c-0.1-0.3-0.4-0.6-0.6-0.9
		c-0.3-0.6-0.8-1.1-0.9-1.7c-0.1-1.3-0.2-2.6,0.7-3.9c0.5-0.6,0.3-1.7,0.5-2.5c0.1-0.4,0.2-0.9,0.5-1.2c0.5-0.5,0.6-1.1,0.5-1.8
		c-0.3-1.9,1.9-3.7,3.8-3.9c1.7-0.2,3,0.7,4.3,1.5c2.2,1.3,4.3,2.7,6.4,4.1c0.6,0.4,1.1,1.1,1.8,1.6c1.4,1.2,2.9,2.3,4.4,3.5
		c1.2,1,2.3,2,3.4,3c0.2,0.2,0.5,0.4,0.7,0.5c0.3-2,0.5-3.9,0.8-5.9c0.4-2.2,0.9-4.5,1.4-6.7c0.1-0.3,0.1-0.6,0.1-0.9
		c0-2.8-0.1-5.5-0.2-8.3c-0.1-2-0.4-3.9-1-5.8c-0.7-2.1-1.4-4.2-2-6.4c-0.7-2.8-1.4-5.7-2-8.5c-0.1-0.5,0-1,0-1.5
		c0.1-2.4,0.1-4.8,0.2-7.2c0-0.3,0.1-0.7,0.3-1c1.7-2.9,3.7-5.4,6.4-7.4c2.2-1.6,4.6-2.9,7.1-3.9c1.4-0.6,2.8-0.8,4.2-1.2
		c0.5-0.1,0.9-0.4,1.4-0.6c0.1-0.1,0.2-0.4,0.2-0.5c-0.4-0.7-0.8-1.6-1.3-2.2c-1-1-2.3-1.8-3.1-2.9c-0.8-1.2-1.3-2.8-1.6-4.2
		c-0.6-2.2-0.9-4.5-1.3-6.7c-0.5-2.6-1.1-5.2-1.5-7.8c-0.3-2,0.4-3.9,1.1-5.8c0.7-1.8,1.1-3.7,1.1-5.6c0-0.9,0.4-1.9,0.5-2.8
		c0.2-1.3,0.4-2.6,0.6-4c0.1-0.4,0.2-0.8,0.3-1.2c0.1-0.5,0.3-1.1,0.4-1.6c0.1-0.2,0-0.5,0.1-0.7c0.8-2.1,1.2-4.2,2.2-6.3
		c1.4-3.1,3.6-5.4,6.5-6.7c2.6-1.2,5.5-2,8.5-2.1c2-0.1,3.9-0.5,5.9-0.6c2.3-0.1,4.5-0.2,6.8,0.5c1.5,0.4,2.8,1,4.1,1.9
		c1.6,1,3.3,1.9,5.1,2.8c1.6,0.8,2.8,2,4,3.2c2.1,2.4,3.5,5.3,4.3,8.3c1,3.6,1.7,7.3,1.4,11.1c-0.2,2.1-0.5,4.2-0.8,6.3
		c0,0.3,0,0.5,0,0.8c0,1.9,0.1,3.8,0,5.7c-0.1,2.7,0.4,5.2,0.9,7.8c0.6,2.8,1,5.6,1.5,8.4c0.3,1.5,0.6,3,1.6,4.2
		c0.4,0.5,0.7,1.2,0.9,1.8c0.8,2.3,2.3,4.1,3.7,6c2,2.6,4.2,5.1,6.3,7.7c1.6,2,3,4.2,4.5,6.2c2.1,2.9,4.2,5.8,6.2,8.8
		c1.2,1.8,2.3,3.6,3.5,5.4c0.7,1.2,1.4,2.4,2.2,3.6c1.2,1.8,2.5,3.6,3.8,5.3c1.1,1.4,2.5,2.6,3.6,4c1.3,1.6,2.5,3.3,3.6,5
		c1.3,2,2.3,4.3,3.6,6.2c2.5,3.7,4.9,7.6,7.1,11.5c1.8,3.3,3.8,6.6,5.6,9.9c0.6,1.1,1.1,2.2,1.6,3.3c0,2.9,0,5.8,0,8.6
		c-0.1,0.1-0.3,0.1-0.4,0.2c-1.5,1.5-3.2,3-4.6,4.6c-3.4,3.8-7.3,7.1-11.2,10.4c-0.7,0.6-0.8,1-0.5,1.8c0.6,1.8,1.2,3.5,1.6,5.3
		c0.5,2.1,0.7,4.3,1.1,6.5c0.3,1.9,0.5,3.8,0.8,5.6c0.3,2,0.6,4,1,6c0.3,1.7,0.8,3.4,1.2,5c-0.5,0-0.9,0-1.4,0
		c-0.5-2.3-1-4.6-1.4-6.9c-0.4-2.3-0.8-4.6-1.1-6.9c-0.3-1.9-0.4-3.9-0.8-5.8c-0.5-2.5-1.3-5-1.9-7.5c-0.1-0.5-0.4-1-0.6-1.6
		c-2.1,1.4-4.1,2.8-6.1,4.1c1.8,3.5,3.3,7,3.9,10.9c0.3,2.1,0.6,4.3,1.1,6.4c0.5,2.5,1.2,5,1.8,7.5C129.3,200,128.8,200,128.4,200z
		 M86.3,111.3c-0.9-1.6-1.8-2.9-2.4-4.4c-1.2-2.8-2.2-5.6-3.3-8.5c-0.1-0.3-0.2-0.6-0.1-0.8c0.1-0.2,0.4-0.5,0.6-0.6
		c0.2,0,0.6,0.2,0.7,0.4c1,2.6,2,5.3,2.9,8c0.7,2.1,2.1,3.8,3.5,5.4c1,1.2,2.2,2.2,3.2,3.3c2,2.1,4,4.2,6.5,5.8
		c2.2,1.5,4.3,3.1,6.1,5.2c2,2.4,4,4.9,6.1,7.3c2.4,2.7,4.5,5.5,6.2,8.7c1,2,2.2,4,3.2,6c0.5,1,1,1.8,2.3,1.3c0.4-0.1,0.9,0,1.3,0
		c0.8,0,1.7,0,2.5-0.1c1.4-0.3,2.8-0.8,4.2-1.2c0.3-0.1,0.7,0.2,1.1,0.4c-0.2,0.3-0.3,0.8-0.5,0.9c-2.5,0.9-5,1.6-7.7,1.5
		c-0.8,0-1.6,0-2.4,0c-0.3,0-0.7,0.3-0.8,0.5c-1.3,2.9-3.5,5.1-6.1,6.9c-2.8,2-5.6,3.9-8.4,5.8c-3.3,2.2-6.6,4.3-9.9,6.4
		c-0.5,0.4-1.3,0.9-1.3,1.4c-0.1,1.9-0.2,3.8,0.7,5.5c0.4,0.8,0.8,1.5,1.2,2.3c1.3,2.6,3.2,4.8,5.1,7c0.4,0.5,0.8,0.5,1.2,0
		c0.8-0.8,1.6-1.6,2.6-2.2c1.8-1.2,3.7-2.3,5.7-3.4c2.3-1.2,4.8-2.2,7-3.5c3.2-1.9,6.4-3.9,9.4-6.1c2.9-2.1,5.7-4.3,8.4-6.7
		c3.5-3.2,6.7-6.6,10.1-10c0.6-0.6,1.2-1.3,1.3-2c0.2-1.3,0.2-2.8-0.2-4.1c-0.7-2.3-1.6-4.5-2.7-6.6c-1.8-3.3-3.7-6.6-5.6-9.8
		c-1.7-2.8-3.4-5.7-5.2-8.5c-0.6-0.9-1.2-1.7-1.8-2.6c-1.1-1.9-2.1-3.8-3.2-5.7c-0.9-1.4-1.9-2.8-3-4.1c-1.2-1.4-2.5-2.6-3.7-4
		c-1.4-1.7-2.6-3.5-3.9-5.3c-0.7-0.9-1.4-1.9-1.9-2.9c-1.3-2.7-3-5.1-4.8-7.5c-1.5-2-3.3-4-4.6-6.2c-1.9-3.2-4.1-6.3-6.5-9.1
		c-1-1.2-2.2-2.1-3.8-2.6c-2.4-0.7-4.8-1.5-7.3-1.2c-0.5,0.1-1.1,0.2-1.6,0.2c-1.7,0-3.2,0.5-4.4,1.7c-1.5,1.5-2.7,3.1-4,4.8
		c-2.1,2.8-3,6-3.3,9.4c-0.2,2.1-0.2,4.3,0,6.4c0.2,3.1,0.8,6.2,2.5,9c0.9,1.4,1.8,2.8,2.8,4.1c1.2,1.6,2.7,2.9,4.6,3.6
		C85.4,111.2,85.8,111.2,86.3,111.3z M45.3,27.5c-1,1.1-2.5,1.1-3.7,1.5c-1.2,0.4-2.5,0.7-3.7-0.1c-0.6,1.7-1.2,3.3-1.6,4.9
		C36,35.3,36,36.7,36,38.1c0,1,0.3,1.9,0.6,2.9c0.4,2,0.9,3.9,1.3,5.9c0.4,1.8,0.6,3.7,1,5.5c0.2,0.8,0.9,1.6,1.1,2.4
		c0.2,1,0.8,1.7,1.5,2.2c1.1,0.8,2.4,1.4,3.9,0.8c0.6-0.2,1.3-0.3,2-0.3c0.8,0,1.6,0.1,2.4,0.1c1.8,0,3.7,0.4,5.5-0.4
		c0.2-0.1,0.5,0.2,0.7,0.3c-0.1,0.2-0.2,0.5-0.3,0.7c-0.1,0.1-0.3,0.1-0.5,0.2c-2.1,0.8-4.2,0.5-6.4,0.2c-1.5-0.2-2.9-0.1-4.3,0.8
		c0.6,0.4,1.2,0.8,1.7,1.2c1.9,1.4,3.9,2.8,5.8,4.2c0.2,0.2,0.3,0.5,0.5,0.8c-0.3,0-0.7,0.2-1,0c-0.8-0.5-1.5-1.1-2.3-1.7
		c-1.1-0.8-2.2-1.6-3.6-2.5c0.2,1.5,0.4,2.8,0.6,4.1c0.3,1.8,0.6,3.6,0.9,5.4c0,0.2-0.3,0.5-0.5,0.8c-0.2-0.2-0.6-0.4-0.6-0.7
		c-0.2-1-0.4-1.9-0.6-3.1c-0.5,0.6-0.9,1-1.2,1.5c-1.4,2.1-3.1,4-4,6.4c-0.4,1-0.6,2-1,2.9c-1.1,3-1.6,6.2-1.6,9.4
		c0,1.9-0.1,3.9-0.1,5.8c0,0.9,0.1,1.8,0.2,2.7c0.4,2.7,2,5,3.1,7.4c1.2,2.7,3.5,4.1,6.4,4.7c1.4,0.3,2.9,0.4,4.2-0.5
		c0.7-0.5,1.5-1,2.3-1.4c3.1-1.6,5.2-4.1,6.4-7.3c0.2-0.5,0.4-1,0.8-1.3c1.8-1.7,2.9-4,3.9-6.1c1.7-3.8,3.1-7.8,4.6-11.7
		c0.4-1.1,0.9-2.2,1.4-3.5c-1.1,0.3-1.9,0.6-2.8,0.8c-2.2,0.7-4.6,1.2-6.5,2.8c-0.1,0.1-0.2,0.2-0.3,0.1c-0.3-0.1-0.6-0.3-0.9-0.5
		c0.2-0.2,0.4-0.4,0.6-0.6c0.2-0.2,0.6-0.2,0.8-0.4c0.6-0.3,1.2-0.8,1.8-1c2.1-0.7,4.2-1.3,6.3-2c0.8-0.3,1.8-0.3,2.3-1.1
		c1.4-2.3,2.8-4.6,4.2-6.9c1.4-2.2,2.7-4.6,4.9-6.1c0.5-0.3,1-0.7,1.6-1.2c-2-0.7-3.8-1.3-5.7-1.9c-0.5,1.1-1.1,2.1-1.5,3.2
		c-0.7,1.6-1.4,3.3-2.1,4.9c-0.3,0.6-0.5,1.2-0.9,1.7c-0.1,0.2-0.6,0.2-0.8,0.3c-0.1-0.3-0.3-0.7-0.2-1c0.1-0.4,0.5-0.7,0.6-1.1
		c0.7-3.2,2.6-5.9,4-8.8c0.2-0.4,0.2-0.9,0.1-1.2c-1.1-3.2-1.1-6.3,0.8-9.3c-0.7-0.1-1.4-0.2-2.1-0.3c-0.1,0.2-0.2,0.5-0.2,0.7
		c-0.6,1.9-1.2,3.8-1.9,5.6c-0.4,1.1-1.3,1.9-2.4,2.5c-0.8,0.4-1.6,0.6-2.4,0.9c-0.5,0.2-1.1,0.4-1.6,0.4c-0.2,0-0.4-0.4-0.7-0.6
		c0.2-0.2,0.4-0.4,0.7-0.5c0.4-0.1,0.8-0.2,1.2-0.3c0.6-0.2,1.2-0.6,1.8-0.7c1.4-0.3,2.1-1.2,2.6-2.4c0.7-1.8,1.2-3.6,1.8-5.4
		c0.1-0.4,0.1-0.9-0.1-1.3c-0.7-1.6-0.5-2.4,0.8-3.5c0.3-0.3,0.6-0.7,0.6-1c0-0.9,0.3-1.6,0.8-2.2c0.3-0.3,0.4-0.6,0.2-1.1
		c-0.1-0.2,0.2-0.6,0.3-1c0.2,0.2,0.6,0.3,0.7,0.6c0.4,0.7,0.2,1.4-0.3,2c-0.4,0.5-0.9,1.1-0.5,2c1.1-0.5,1.9-2.2,3.4-0.6
		c0-0.6,0-1-0.1-1.4c-0.3-1-0.7-2-1-3c-0.6-1.7,0-3.6,1.5-4.5c0.4-0.3,1.3-0.3,1.6-0.1c1.2,0.8,2.3,1.9,1.7,4
		c-0.2,0.9-0.5,1.8,0,2.7c1.3-1.6,0.9-3.3,0.6-5c-0.1-0.9-0.4-1.9-0.9-2.6c-1-1.4-3.3-1-4.4,0.6c-0.6,0.9-1.4,1.8-2.3,2.6
		c-1.4,1.2-2.5,0.7-3.1-1c-0.6-2-1-4.1-0.9-6.2c0.1-2-1-3.4-2.3-4.5c-1.1-1-1.7-2.1-1.7-3.6c0-1.2,0.1-2.4,0.2-3.6
		c0.1-1-0.4-1.7-1.1-2.1c-1.4-0.8-2.9-1.7-4.4-2.2c-2.2-0.8-4.5-1.6-6.9-1.3c-1.7,0.2-3.4,0.2-5-0.8C51,9,50.8,9,50.6,9
		c-1.3,0-2.7,0.1-4,0.2c-0.2,0-0.4,0.1-0.5,0.2c-1.4,0.9-2.7,1.8-4,2.7c-0.3,0.2-0.5,0.5-0.6,0.8c-0.4,1.1-0.7,2.2-1,3.3
		c-0.3,1.1-0.3,2.2-0.9,3.2c-0.4,0.8-0.4,1.8-0.6,2.8c0.5-0.1,0.7-0.2,1-0.2c1.4-0.4,2.8-0.2,4.2,0.3c0.3,0.1,0.7,0.7,0.7,1.1
		c-0.1,0.6-0.7,0.4-1.1,0.3c-0.2-0.1-0.5-0.1-0.7-0.2c-1.2-0.4-2.4-0.7-3.6,0c-0.3,0.2-0.7,0.5-0.8,0.8c-0.2,1.1-0.4,2.1-0.5,3.2
		c0,0.2,0.3,0.5,0.5,0.5c1.7,0.4,3.4,0,4.9-0.6c0.7-0.3,1.2-0.6,2.1,0c0.2-1.2,0.4-2.2,0.6-3.2c0.1-0.3,0.3-0.5,0.5-0.7
		c0.1,0.3,0.3,0.5,0.3,0.8c0,1.8-0.5,3.5-1.5,5c-1,1.5-2.1,3-3.3,4.5c-0.8,1.1-1.1,2.4,0,3.3c0.5,0.5,1.1,0.9,1.5,1.4
		c0.2,0.2,0.2,0.5,0.3,0.7c-0.3,0-0.6,0.1-0.8-0.1c-0.6-0.5-1.3-1.1-1.8-1.7c-1-1.2-1-2.5-0.1-3.8c1.1-1.5,2.1-2.9,3.2-4.3
		C44.7,28.6,45,28,45.3,27.5z M66.5,194.1c0.4,0,0.8,0,1.2,0c2.1-0.1,4.2-0.2,6.3-0.2c2.3,0,4.5-0.1,6.8,0c2.6,0.1,5-0.3,7.4-1.7
		c2-1.1,4.1-1.9,6.1-3c0.7-0.3,1.2-0.8,2-1.3c-3.8-3.3-6.3-7.1-7.3-12c0,0-0.1,0-0.2,0c-3.6,0.1-6.9-1-10.2-2.2
		c-1-0.3-2.1-0.4-3.1-0.4c-1.3,0-2.6,0.2-3.9,0.4c-0.8,0.1-1.6,0.1-2.4,0.1c0.1,1.2-0.2,2.2-1.3,2.8c0.4,0.1,0.7,0.2,1,0.2
		c1.2,0.2,2.3,0.2,3.4-0.4c0.7-0.4,1.7-0.5,2.6-0.7c0.2,0,0.5,0.3,0.7,0.4c-0.2,0.2-0.4,0.4-0.7,0.5c-0.7,0.2-1.5,0.3-2.1,0.6
		c-1.1,0.7-2.3,0.8-3.6,0.6c-1.3-0.2-2.6-0.4-4-0.5c-1.1-0.1-2.2,0.1-3.4,0.2c-0.3,0-0.6,0-0.8,0c0.3,0.7,0.5,1.4,0.8,2
		c0.2,0.4,0.3,0.9,0.7,1.1c0.8,0.4,1.7,0.8,2.6,1c1.4,0.4,2.8,0.8,4.2,1.2c0.2,0.1,0.4,0.4,0.5,0.7c-0.3,0.1-0.6,0.2-0.9,0.2
		c-0.1,0-0.3,0-0.4-0.1c-1.7-0.9-3.5-0.9-5.4-0.6c-1.2,0.2-2.4,0.3-3.6,0.4c0.3,1.1,0.5,2.1,0.8,3.1c0.3,0,0.5,0.1,0.8,0.2
		c3.1,0.5,6.1,1,9.2,1.6c0.2,0,0.4,0.3,0.7,0.5c-0.2,0.2-0.5,0.5-0.7,0.5c-1.4-0.1-2.8-0.3-4.2-0.6c-1.5-0.3-3-0.6-4.5-0.9
		c0.2,1.2,0.3,2.2,0.5,3.3c1.1,0,2.2,0,3.3,0c1.3,0,2.5,0.1,3.7,0.2c1.2,0.1,2.4,0.2,3.6,0.3c0.3,0,0.6,0.2,0.9,0.3
		c-0.2,0.2-0.5,0.7-0.7,0.7c-1,0-2,0-2.9-0.1c-1.2-0.1-2.5-0.4-3.7-0.6C66.2,192.9,66.4,193.4,66.5,194.1z M33.6,144.1
		c0-0.1,0.1-0.3,0.1-0.4c-0.2-0.2-0.3-0.4-0.5-0.6c-0.6-0.8-1.3-1.5-1.8-2.3c-1.8-2.9-3.1-6-3.8-9.3c-0.3-1.7-0.9-3.2-2.6-4.1
		c-0.6-0.4-1.2-1-1.7-1.5c-1.9-1.7-3.9-3.4-6.2-4.4c-0.8-0.4-1.8-0.7-2.6-0.7c-0.3,0-0.7,0.9-1.1,1.4c-0.2,0.3-0.5,0.5-0.8,0.7
		c-0.2,0.1-0.5,0.1-0.7,0.1c-0.8-0.2-1.7-1.8-1.5-2.6c0.2-0.9,0.5-1.9,0.8-2.8c-0.1-0.1-0.2-0.1-0.3-0.2c-0.5,0.5-1.1,1-1.4,1.6
		c-0.7,1.6,0.5,4.3,2.1,5c0.6,0.3,1.2,0.6,1.7,1.1c1.8,1.9,4,1.7,6.2,1.3c0.4-0.1,0.8-0.3,1,0.2c0.2,0.6-0.2,0.8-0.7,0.8
		c-1.3,0.1-2.5,0.2-3.8,0.2c-1.2,0-2.3-0.3-3.2-1.3c-0.1-0.1-0.3-0.1-0.4-0.2c0.3,1,0.8,1.9,1.3,2.7c0.7,1.3,1.6,2.5,2.8,3.3
		c0.7,0.4,1.5,0.7,2.1,1.2c1.5,1.2,3.1,1.7,4.9,2c0.2,0,0.4,0.2,0.5,0.4c0.1,0.1-0.1,0.5-0.2,0.5c-0.2,0.1-0.6,0.3-0.8,0.2
		c-1.8-0.5-3.6-0.9-5-2.2c-0.4-0.3-0.8-0.5-1.2-0.7c-2.8-1.3-4.5-3.4-5.3-6.4c-0.4-1.4-1.2-2.7-1.8-4c-0.1-0.2-0.4-0.4-0.5-0.5
		c-0.1,0.1-0.2,0.1-0.3,0.2c0.1,0.3,0.2,0.6,0.4,0.9c0.2,0.5,0.5,0.9,0.6,1.4c0.2,0.4,0.2,1,0.4,1.4c0.5,0.8,0.6,1.5,0,2.4
		c-0.2,0.4-0.3,0.8-0.4,1.3c-0.3,1.2-0.5,2.3-0.8,3.5c0,0.2-0.4,0.4-0.6,0.3c-0.2-0.1-0.4-0.4-0.4-0.6c0.1-0.6,0.3-1.1,0.4-1.6
		c0.1-0.4,0.1-0.7,0.2-1.1c-0.1,0-0.2-0.1-0.3-0.1c-0.2,0.2-0.4,0.4-0.5,0.6c-0.4,0.5-0.6,1.1-1.1,1.5c-0.2,0.2-0.6,0.2-0.9,0.3
		c0-0.3-0.1-0.7,0-1c0.7-1,1.6-1.9,2.3-2.9c0.4-0.5,0.7-1,0.9-1.6c0.2-0.5-0.1-0.8-0.6-0.6c-1.8,0.6-3.6,1.3-5.5,2
		c0.3,1.5,0.5,3,0.9,4.4c0.7,2,2,3.7,4,4.4c2.9,1,5.5,2.8,8.7,3.1c1.3,0.1,2.6,0.7,4,1c1.7,0.4,2.7,0,3.7-1.5
		c0.2-0.2,0.3-0.5,0.5-0.7c0.2-0.4,0.5-0.9,1-0.5c0.5,0.4,0.2,0.8-0.1,1.2c-0.6,0.8-1.3,1.6-2,2.5C26.8,143.2,30.2,143.7,33.6,144.1
		z M111.5,157.5c1.7-1.5,3.3-2.7,4.7-4.2c1.1-1.2,1.8-2.8,2.6-4.2c0.1-0.1,0-0.4,0-0.6c-1.4-2.6-2.8-5.3-4.3-7.9
		c-1-1.7-2-3.4-3.2-4.9c-2.8-3.4-5.7-6.7-8.5-10c-1.1-1.3-2.5-2.5-4.1-3.4c0.1,0.4,0.1,0.7,0.1,0.9c0.9,2.7,1.9,5.4,2.8,8.2
		c0.8,2.3,1.5,4.6,2.1,7c0.9,3.6,2.1,7.1,3.8,10.4c1.2,2.2,2.3,4.4,3,6.8C110.7,156.2,111.1,156.7,111.5,157.5z M80.8,40.4
		c-0.1,1.4-0.9,2.2-1.7,1.5c-0.8-0.6-1.2-0.3-1.7,0.2c-0.2,0.2-0.6,0.3-0.8,0.5c-0.5,0.5-1.1,0.9-1.5,1.4c-0.5,0.8-0.3,1.8,0.4,2
		c1.7,0.6,3.3,0.2,4.6-0.7c1.4-1,2.5-2.4,2.9-4.2c0.1-0.3,0-0.7-0.1-0.9c-0.9-1.4-0.8-2.9-0.5-4.5c0.2-1.2,0-2-1.1-2.7
		C81.1,33,80.9,33,80.7,33c-0.7,0.2-1.5,1.7-1.4,2.3c0.2,0.8,0.5,1.6,0.8,2.5C80.3,38.7,80.5,39.5,80.8,40.4z M92.4,172
		c-0.6,0.5-1.2,1-1.7,1.5c-0.1,0.1-0.2,0.3-0.2,0.5c-0.1,1.8-0.1,3.6,0.9,5.3c0.5,0.8,0.9,1.6,1.3,2.4c1.2,2.4,3.2,4,5.2,5.7
		c1,0.8,1.5,0.7,2.2-0.1c-0.1-0.1-0.1-0.2-0.2-0.3c-2.7-2.8-4.8-6-6.4-9.4c-0.4-0.8-0.7-1.7-0.9-2.6C92.5,174.1,92.5,173.1,92.4,172
		z M7.9,123.8c-1.1,0.1-2,0.4-2.9,0.3c-0.8-0.1-1.5-0.4-2.3-0.7c-0.8-0.3-1.2-0.1-1.4,0.7c-0.1,0.7-0.1,1.4,0,2.1
		c0.1,0.9,1.5,1.6,2.3,1.3c1.2-0.4,2.4-0.9,3.5-1.3C8.5,125.6,8.7,124.8,7.9,123.8z M9.1,115.2C9,115.4,9,115.5,9,115.5
		c0,0.5,0,1.2-0.6,1.2c-0.8,0-0.4-0.7-0.4-1.1c0-1.1-0.5-1.5-1.6-1.4c-1,0.1-1.7,0.6-2.4,1.3c-0.5,0.5-0.6,2-0.1,2.5
		c0.1,0.2,0.4,0.3,0.5,0.3c1.3,0.1,2.6-0.2,3.6,0.6c0.9-1,1.7-1.9,2.6-2.9C10.2,115.9,9.7,115.6,9.1,115.2z M60,191.4
		c0.8,0.2,0.9-0.5,0.9-1.1c0.1-0.8-0.5-1.9-1-2c-0.5-0.1-1.5,0.9-1.5,1.4C58.4,190.7,59.1,191.3,60,191.4z M59.2,186.7
		c-0.1-0.6-0.2-1.3-0.4-1.9c-0.2-0.4-0.7-0.7-1.1-0.7c-0.2,0-0.7,0.6-0.7,1C56.9,186.4,57.1,187.1,59.2,186.7z M5.6,119.4
		c-1.7,0.7-1.7,2.5-1.2,3.5c0.2,0.4,0.6,0.4,0.9,0C6.1,121.8,5.8,120.6,5.6,119.4z M67,173.8c-1.1,0-1.6,0.3-1.4,1
		c0.1,0.5,0.5,1.1,0.9,1.5c0.3,0.2,1.6-1.1,1.6-1.6C68.2,173.7,67.5,173.8,67,173.8z M60.8,180.8c-0.1-0.6-0.1-1.2-0.3-1.5
		c-0.4-0.4-0.9-0.6-1.5-0.7c-0.1,0-0.5,0.4-0.6,0.7c-0.2,0.6,0.2,1,0.7,1.2C59.5,180.6,60.1,180.6,60.8,180.8z M11.8,118.6
		c-0.2,0.7-0.4,1.4-0.4,2c0,0.3,0.4,0.7,0.7,1c0.1,0.1,0.5-0.3,0.7-0.5c0.3-0.3,0.4-0.7,0.6-1C12.9,119.6,12.4,119.2,11.8,118.6z
		 M64.1,194.3c0.6-0.3,1.3,0.1,1.2-0.8c0-0.6-0.6-1.1-1.1-1.1c-0.8,0-1,0.6-1,1.1C63.2,193.7,63.8,194,64.1,194.3z M3,118.8
		c-0.6,1.1-0.9,2.1-0.7,3.2c0,0.2,0.4,0.3,0.6,0.4c0.3-1.1,0.5-2.1,0.8-3.2C3.5,119.2,3.3,119,3,118.8z M6.8,119.3
		c0,1.2,0,2.2,0,3.3c1.2-0.5,1-1.5,1-2.3C7.8,120,7.2,119.7,6.8,119.3z M12.8,117.6c-0.1,0.1-0.1,0.1-0.2,0.2
		c0.9,1.3,2.2,1.8,3.7,2.2c0-0.1,0.1-0.1,0.1-0.2C15.3,119.1,14,118.4,12.8,117.6z"/>
	<path class="st0" d="M54.8,46.3c-3,1.1-5.8,2.2-8.7,3.1c-1.4,0.4-2.9,0.2-4.3-0.5c-1-0.5-1.3-1.2-1.1-2.3c0-0.4-0.2-0.8-0.4-1.2
		c-0.2-0.4-0.5-0.9-0.4-1.2c0.1-0.4,0.6-0.8,1-1c0.8-0.2,1.7-0.5,2.6,0.2c0.2,0.2,0.8,0.2,1,0c0.7-0.4,1.4-0.4,2.1-0.2
		C49.4,43.9,52.2,44.6,54.8,46.3z M41.3,47.1c0.2,0.3,0.4,0.9,0.7,1c0.7,0.3,1.4,0.5,2.1,0.6c2,0.2,3.8-0.4,5.6-1.1
		c0.2-0.1,0.4-0.2,0.6-0.3c0-0.1,0-0.2-0.1-0.3C47.3,47.1,44.4,47.1,41.3,47.1z M50.6,45.3c0-0.1,0-0.2,0.1-0.3
		c-0.5-0.1-1-0.3-1.5-0.4c-1.7-0.5-3.4-1.1-5.2-0.2c-0.2,0.1-0.4-0.2-0.7-0.2c-0.7-0.1-1.4-0.3-2.1-0.4c-0.5,0-0.8,0.3-0.7,0.8
		c0.1,0.4,0.4,0.7,0.9,0.4c0.2-0.1,0.5-0.1,0.7-0.1c2.1,0.1,4.1,0.1,6.2,0.2C49.1,45.1,49.9,45.2,50.6,45.3z"/>
	<path class="st0" d="M54,21.9c3.1,0.3,5.7,0.9,8.2,2.4c0.2,0.1,0.2,0.5,0.3,0.8c-0.3,0-0.7,0.2-1,0.1c-1.3-0.5-2.6-1.1-3.9-1.5
		c-1.6-0.4-3.2-0.1-4.7,0.5c-0.5,0.2-0.9,0.5-1.3-0.1c-0.3-0.5,0-1.5,0.5-1.7C52.8,22.2,53.5,22.1,54,21.9z"/>
	<path class="st0" d="M58.8,30.3c-1-0.2-2.2-0.4-3.4-0.7c-0.9-0.2-1.9-0.6-2.8-0.9c-0.2-0.1-0.3-0.4-0.5-0.6
		c0.3-0.1,0.6-0.3,0.9-0.3c1.7,0.3,3.3,0.8,5,1.1c0.8,0.1,1.6,0,2.4,0.1c0.3,0,0.6,0.2,0.9,0.4c-0.2,0.3-0.4,0.7-0.6,0.8
		C60.2,30.3,59.6,30.2,58.8,30.3z"/>
	<path class="st0" d="M45.5,36.6c1.2,0.2,2,0.7,2.3,1.5c0.1,0.2,0,0.5-0.1,0.6c-0.1,0.1-0.4,0-0.6,0c-0.6-0.2-1.1-0.5-1.6-0.8
		c-0.3-0.2-0.6-0.4-0.9-0.7C44.9,37.1,45.2,36.8,45.5,36.6z"/>
</g>
</svg>
