<?xml version="1.0" encoding="utf-8"?>
<!-- Generator: Adobe Illustrator 19.2.1, SVG Export Plug-In . SVG Version: 6.00 Build 0)  -->
<svg version="1.1" id="Layer_1" xmlns="http://www.w3.org/2000/svg" xmlns:xlink="http://www.w3.org/1999/xlink" x="0px" y="0px"
	 viewBox="0 0 164.6 172.5" style="enable-background:new 0 0 164.6 172.5;" xml:space="preserve">
<style type="text/css">
	.st0{fill:#C2185B;}
</style>
<g id="icon-pinkeye">
	<path class="st0" d="M1.1,161.7c0.2-0.2,0.3-0.5,0.5-0.8c2-2.1,4.1-4.1,6.3-6c4.8-4,9.6-7.6,15.9-8.7c0.9-0.2,1.9-0.3,2.9-0.3
		c0.5,0,0.9,0.1,1.6,0.1c1.3,3.1,2.7,6.3,4.1,9.6c1.1,2.8,1.2,5.7,1.5,8.6c0.3,2.8,0.4,5.5,0.4,8.3h1.1c0.1-2.1,0-4.2-0.2-6.3
		c-0.4-3.8-0.4-7.7-2-11.4c-2.4-5.7-4.8-11.4-8.2-16.5c-1.3-2-2.8-3.8-4.1-5.8c-1.6-2.7-3-5.5-4.6-8.2c-1.1-2-0.5-4-0.1-5.9
		c0.3-1.5,0.5-2.9,0.7-4.4c0.1-0.7,0.1-1.6,0.4-2.2c0.8-1.8,0.9-3.8,1.4-5.7c0.6-2.8,1.4-5.6,2.2-8.7c0.8,0.6,1.3,1.1,1.9,1.5
		c0.2,0.2,0.6,0.2,0.9,0.3c-0.1-0.3-0.2-0.7-0.4-0.9c-0.2-0.3-0.6-0.6-0.9-0.8c-1-0.8-1-0.9-0.1-1.7c1.5-1.3,3.3-2.5,4.7-3.9
		c3.4-3.5,7.4-6.2,11.2-9.1c0.6-0.4,1-0.5,1.5,0c0.9,1,2,1.6,3.4,1.3c0.5-0.1,1-0.2,1.6-0.4c-0.4,0.8-0.8,1.6-1.3,2.3
		c-1,1.4-1.8,2.9-3,4.1c-1.4,1.4-3.1,2.6-4.5,3.9c-1.2,1.1-2.3,2.3-3.4,3.5c-0.5,0.5-0.9,0.9-1.7,0.8c-0.3,0-0.5,0.3-0.8,0.5
		c0.3,0.1,0.6,0.4,0.8,0.3c0.6-0.1,0.7,0.2,0.7,0.7c0,1.4,0.1,2.9-0.1,4.3c-0.1,1-0.7,2-1.2,2.9c-1.4,2.9-2.7,5.8-4.3,8.5
		c-1.2,2.1-2.8,4-4.2,6c-0.4,0.5-0.5,0.9,0,1.7c0.3-0.6,0.6-1,0.9-1.5c0.6-0.8,1.2-1.6,1.9-2.4c2.4-3,3.6-6.6,5.5-9.9
		c2.5-4.6,5-9.2,7.7-13.6c1.8-2.9,3.9-5.6,5.8-8.5c1.5-2.3,2.9-4.7,4.3-7c0.3-0.5,0.6-0.9,1.3-0.5c4,2.1,5,0.8,7-1.9
		c0.6-0.8,1-1.7,1.4-2.5c1.2,1.3,1.1,2.8-0.2,3.7c-1.3,0.8-2.1,2-2.7,3.3c-0.9,1.7-1.8,3.3-3.4,4.5c-1.4,1-2.3,2.4-2.9,4.1
		c-0.4,1.1-1.1,2.1-1.8,3c-2.6,3.6-5.5,7-7.9,10.7c-1.6,2.6-2.5,5.6-3.6,8.5c-0.9,2.4-1.6,5-2.5,7.4c-0.4,1.2-1.2,2.2-1.7,3.3
		c-0.5,1.1-0.8,2.2-1.2,3.3c-0.1,0.2,0.2,0.5,0.2,0.7c0.2-0.1,0.5-0.2,0.5-0.4c0.7-3.6,3.2-6.3,4.2-9.7c0.7-2.4,1.4-4.7,2.2-7
		c1.4-4,3.5-7.6,6.3-10.8c1.8-2.1,3.4-4.4,5.1-6.7c0.4-0.6,0.8-1.3,1-2c0.6-2.1,2.2-3.4,3.8-4.7c0.2-0.1,0.5-0.2,0.7-0.1
		c1.7,0.7,3.2,0.2,4.5-1c1.1-1,1.9-2.1,3-3.3c0.6,1,0.7,2,0.1,3.1c-0.7,1.3-1.5,2.6-2.1,3.9c-0.7,1.5-1.2,3.1-1.9,4.7
		c-0.6-0.5-1.2-1-1.8-1.4c-1.6-0.9-2.9-0.5-3.4,1.3c-0.6,2.3-2,4-3.4,5.7c-1.7,2-2.8,4.3-3.6,6.8c-0.6,1.9-1.5,3.8-2.2,5.7
		c-1.2,3-2.5,6-3.5,9.1c-0.5,1.3-0.5,2.8-0.7,4.2c-0.2,1.2-0.3,2.5-0.5,3.7c0,0.3,0.1,0.6,0.2,0.9c0.2-0.3,0.6-0.5,0.6-0.8
		c0.4-2.5,0.4-5.1,1.1-7.6c0.7-2.7,1.9-5.3,2.9-7.9c1.2-3,2.5-5.9,3.5-9c0.7-2.2,2.3-3.7,3.6-5.4c0.1-0.1,0.5-0.1,0.7-0.1
		c2.3,0.8,4-0.3,4.9-2c0.4-0.7,0.7-1.4,1-2.1l0.4,0c0.1,0.7,0.4,1.5,0.2,2.2c-0.7,2.5-1.5,5-2.2,7.4c-0.9,2.8-1.8,5.6-2.5,8.4
		c-0.7,3-1.4,6-1.8,9c-0.3,2.7-1.3,5.2-2.5,7.6c-0.2,0.5-0.4,1-0.5,1.6c0,0.3,0.2,0.6,0.3,0.9c0.2-0.2,0.6-0.3,0.7-0.6
		c0.4-0.8,0.7-1.7,1.3-2.6c0.4,1.1,0.9,2.2,1.3,3.4c0.8,2.2,1.5,4.5,0.6,6.9c-0.2,0.5-0.5,1.1-0.7,1.6c-0.1,0.2,0.2,0.6,0.3,0.9
		c0.2-0.2,0.5-0.3,0.7-0.5c0.4-0.7,0.7-1.4,1.1-2.4c1.6,1.9,3.2,3.8,4.7,5.6c1.9,2.2,3.9,4.3,5.2,7c1.7,3.4,1.9,6.7,0.7,10.3
		c-0.6,1.8-1,3.6-1.1,5.5c-0.1,1.8-0.2,3.6-0.2,5.3h1.1c0-1,0-1.9,0-2.9c0.1-1.5,0.2-2.9,0.3-4.5c0.9,0.2,1.6,0.5,2.3,0.5
		c5.5,0.1,10.1,2.9,14.9,5c1.3,0.6,2.6,1.2,3.9,1.8H88c0,0-0.1,0-0.1-0.1c-1.7-0.6-3.4-1.1-5.1-1.9c-2.5-1.1-4.8-2.4-7.3-3.6
		c-2.6-1.2-5.2-2.1-8-2.3c-1.2-0.1-2.3-0.4-3.6-0.6c0.1-0.4,0.2-0.6,0.2-0.8c1-2.5,1.5-5.1,1.2-7.7c-0.2-1.5-0.7-3.1-1.4-4.5
		c-1-2.3-2.9-3.9-4.5-5.8c-1.3-1.6-2.6-3.2-2.3-5.5c0.1-0.5,0.3-1.1,0.6-1.4c1.1-1.1,2.4-2.1,3.5-3.2c1.6-1.5,3.1-3,4-5
		c0.4-0.8,1-1.5,1.5-2.4c0.3,0.4,0.5,0.7,0.8,1c3.1,3.9,6.4,7.5,10.9,9.8c2.5,1.3,5,1.7,7.6,0.9c1.5-0.4,2.9-0.9,4.4-1.4
		c2.8-1,5.5-2.3,7.5-4.6c1.6-1.8,3.3-3.4,4.9-5c1.3-1.3,2.6-2.5,3.9-3.8c0.7-0.7,1.3-1.5,2.1-2c1.5-1.1,2.5-2.6,3.3-4.2
		c2.1-4.3,4.2-8.6,6.3-12.9c0.7-1.5,1.4-3.1,2.1-4.6c0,3,0.1,6.1,0,9.1c-0.1,4.4,0.6,8.7,1.9,12.9c0.7,2.2,1.3,4.4,2.5,6.3
		c2.1,3.5,5.4,5.8,8.8,7.9c2.1,1.3,4.3,2.4,6.4,3.6c1.1,0.6,2.2,1.1,3.4,1.5c1.8,0.7,3.7,1,5.4,2.1c3.2,2.2,6.7,3.3,10.6,3.5
		c0.7,0,1.4,0.5,2.2,0.8c-2.8,2-5.3,3.8-7.9,5.7c-2.9,2.1-6,4-9.4,5.3c-3.5,1.3-6.9,2.5-10.6,3.3c-4.7,1-9.4,2.1-14.2,2
		c-0.3,0-0.7,0.4-1,0.6c0.4,0.2,0.7,0.5,1.1,0.5c1.6,0,3.1-0.2,4.7-0.3c4.8-0.3,9.4-1.5,13.9-2.7c6.4-1.8,12.4-4.6,17.7-8.9
		c2-1.6,4.2-2.9,6.4-4.3c0.6-0.4,1-0.4,1.3,0.3c0.2,0.3,0.6,0.5,0.9,0.7v-5.2c-0.2-0.1-0.4-0.1-0.6-0.2c-3.3-1.7-5.8-4.4-8-7.3
		c-1.5-2-2.8-4.2-4.3-6.3c-0.9-1.2-2.1-2.2-3-3.5c-2.3-3.6-3.5-7.6-4.3-11.7c-1-4.8-1.8-9.6-3.3-14.2c-0.6-1.8-1-3.7-1.3-5.6
		c-0.6-3.5-0.9-7.1-1.6-10.5c-0.7-3.5-1.5-7-1.5-10.5c0.1-4.9-1.3-9.6-1.8-14.4c-0.2-2-0.5-3.9-0.8-5.8c-0.2-1.3-0.4-2.5-0.7-3.8
		c-0.6-2.5-1.4-5-1.9-7.5c-0.7-3.4-1.4-6.7-3-9.8c-2.7-5.2-5.3-10.4-8.9-15.1c-0.8-1.1-1.6-2.3-2.5-3.3c-1.3-1.5-2.8-2.9-4.2-4.3
		c-1.9-2-4-3.7-6.5-4.9c-2.3-1-4.5-2-6.7-3c-1.6-0.7-3.1-1.3-4.7-1.9c-0.9-0.3-2-0.5-2.9-0.8c-2.9-0.9-5.9-1.7-9-1.3
		c-2.8,0.3-5.6,0.5-8.3,1c-2.1,0.4-4.1,1.3-6.2,1.5c-5.6,0.6-9.8,3.8-14.1,6.9c-1.9,1.4-3.5,3.3-5.2,5c-4,3.8-7,8.3-9.1,13.4
		c-0.5,1.1-1.1,2.2-1.4,3.3c-0.6,2.6-1,5.2-1.4,7.7c-0.7,4-0.6,8-0.2,12c0.1,1.4,0.8,2.7,1.2,4c0.5,1.8,1,3.5,1.4,5.3
		c0.7,2.9,1.4,5.9,2.1,8.9c0,0.2-0.1,0.5-0.2,0.7c-0.4,0.8-1.1,1.5-1.3,2.3c-0.5,2.6-0.8,5.3-1.1,8c-0.1,0.7-0.3,1.1-0.8,1.5
		c-2.9,2.2-5.9,4.3-8.7,6.6c-2.6,2.1-5,4.3-7.5,6.5c-0.5,0.5-1.1,1-1.4,1.7c-1.6,3.3-2.2,6.9-3,10.4c-0.3,1.3-0.6,2.7-0.9,4
		c-0.2,0.8-0.4,1.5-0.6,2.3c-0.3,1.8-0.4,3.6-0.8,5.4c-0.5,2.5-0.9,5,0.8,7.3c0.7,1,1.2,2.1,1.9,3.2c1.1,1.9,2,3.9,3.2,5.7
		c2.1,3.1,4.5,6.1,6.2,9.4c0.1,0.2,0.2,0.5,0.4,0.8c-1,0-2-0.2-2.8,0c-4.2,1.1-8.4,2.1-11.9,4.9c-4.3,3.4-8.8,6.7-12.4,10.8
		c-0.2,0.2-0.5,0.5-0.4,0.7c0.1,0.4,0.3,0.7,0.5,1C0.7,162.1,0.9,161.9,1.1,161.7z M32.4,103c0-1.4-0.1-2.7,0-4.1
		c0-0.4,0.6-0.9,1-1.3c1.4-1.5,2.9-2.9,4.4-4.4c0.1,0.1,0.1,0.1,0.2,0.2C36.2,96.6,34.3,99.8,32.4,103z M54.4,97.1
		c-1,1.7-2.3,2.1-3.8,1.4c0.6-1.5,1.3-2.9,1.9-4.3c0.5-1.3,1.2-1.5,2.4-0.8c0.4,0.2,0.7,0.5,1,0.8C55.4,95.1,55,96.1,54.4,97.1z
		 M45.8,81.8c-0.5,0.3-1,0.6-1.5,1c-1.6,1.2-3.4,0.6-4.5-1.3c1.7-0.9,3.1-2.2,5.1-2.4c0.6-0.1,1.4-0.3,1.7,0.5
		C46.9,80.4,46.5,81.3,45.8,81.8z M54.5,78.6c-1.5,2-3.6,2-5.5,0.1c1.2-1.7,2.3-3.5,3.6-5.2c0.3-0.4,1.2-0.5,1.6-0.4
		c0.9,0.3,1.8,0.9,2.8,1.4C56.2,76,55.5,77.4,54.5,78.6z M53.6,85.7c1-1.7,2-3.5,3.1-5.1c0.6-0.9,1.5-0.9,2.3-0.1
		c0.3,0.3,0.7,0.6,1,0.9C59,84.6,56,86.7,53.6,85.7z M52.9,135.6c-0.3-2.4-1.4-4.7-2.3-6.9c-0.3-0.7-0.6-1.3-0.1-2
		c0.2-0.3,0.2-0.7,0.4-1.3c3.4,4.4,4.7,9.3,4.9,14.9C54.1,139,53.2,137.7,52.9,135.6z M65.4,127.8c-1.1,2.5-2.7,4.6-4.8,6.4
		c-0.9,0.8-1.6,1.7-2.5,2.5c-0.3,0.3-0.8,0.6-1.1,0.5c-0.3-0.1-0.5-0.7-0.6-1.1c-0.4-1.4-0.7-2.8-1-4.2c-0.6-2.4-1.8-4.5-3.2-6.4
		c-0.7-1-1.1-1.9-0.8-3.2c0.6-2.6,1-5.3,1.5-7.9c0.1-0.7,0.5-1.4,0.8-2.4c0.9,1.2,1.5,2.2,2.3,3.1c2.5,2.9,5.1,5.8,7.7,8.7
		c0.6,0.7,1.3,1.4,1.7,2.2C65.6,126.4,65.6,127.2,65.4,127.8z M40.9,60.5c-0.3-2.1-0.2-4.2,0.7-6.2c0.7-1.5,1.1-3.1,1.9-4.6
		c2.3-4.1,5.7-6.9,10.2-8.1c2.3-0.6,4.7-1.2,7.1-0.1c1.6,0.7,3.1,0,4.6-0.7c0.3-0.2,0.6-0.6,0.8-0.9c1.1-2.5,2-5,2.6-7.6
		c0.7-2.7,1.1-5.5,1.6-8.2c0.1-0.6,0.4-1.2,1.2-1c0.7,0.2,0.6,0.8,0.5,1.4c-0.7,3.6-1.3,7.1-2,10.7c-0.1,0.6-0.4,1.3-0.7,1.9
		c-0.4,0.8-0.9,1.7-0.2,2.5c0.7,0.9,1.7,0.7,2.7,0.5c3-0.6,6-1.2,9-1.7c2.4-0.4,4.5,0.8,6.6,1.7c1.6,0.7,3.1,1.4,4.6,2.2
		c0.9,0.5,1.7,1.1,2.5,1.7c0.6,0.4,1.1,1,1.7,1.3c1.6,0.9,2.7,2.3,3.8,3.6c2.3,2.7,5,4.6,8.4,5.9c3.3,1.2,6.6,2.6,9.2,5.1
		c1.4,1.3,2.6,2.8,3.9,4.3c1.4,1.6,3.6,1.4,4.7-0.5c0.9-1.4,1.9-1.3,2.6-0.4c0.5,0.6,0.6,1.6,0.6,2.4c-0.1,1.7-0.7,3.4-0.4,5.2
		c0.2,0.7-0.7,1.5-1.6,1.6c-0.5,0.1-1,0.2-1.6,0.3c0-1.7-0.1-3.5-1.9-4.4c-0.2-0.1-0.6,0.2-1.2,0.4c1.7,0.8,2.2,2.1,2.2,3.5
		c0,1.1-0.1,2.3-0.2,3.4c0,0.6-0.4,1.3,0.4,1.6c0.2-0.5,0.5-1,0.7-1.5c0.1-0.3,0-0.6,0.1-0.9c0.2-0.8,0.6-1.4,1.5-1.5
		c1.8-0.2,2.6-1.3,2.6-3.1c0-0.8,0-1.5,0-2.3c0-0.2,0.1-0.4,0.3-0.7c0.2,0.7,0.4,1.3,0.5,2c0.5,4,0,7.9-2.1,11.4
		c-0.7,1.3-1.1,2.9-2.6,3.5c-0.7,0.3-1.6,0.5-2.3,0.3c-0.6-0.2-1.1-0.9-1.1-1.8c0-1.8,0-3.6,0.6-5.3c0.2-0.5,0.1-1,0.1-1.5
		c0-0.2-0.3-0.4-0.5-0.5c-0.1,0.2-0.4,0.3-0.4,0.5c-0.7,3.2-0.8,6.5-1,9.8c-0.2,3-0.3,6-0.8,8.9c-0.9,4.4-2,8.8-4.3,12.8
		c-1.9,3.4-3.4,6.9-5.1,10.4c-0.8,1.7-1.7,3.2-3.3,4.3c-0.9,0.7-1.6,1.6-2.4,2.4c-3.5,3.4-6.9,7-10.6,10.3c-1.4,1.3-3.4,1.9-5.2,2.6
		c-1.5,0.6-3,1-4.6,1.4c-1.9,0.5-3.9,0.3-5.7-0.6c-2.8-1.4-5.4-3.1-7.5-5.5c-2.2-2.6-4.4-5.3-6.6-7.8c-2.2-2.5-4.6-4.9-6.8-7.5
		c-1.7-1.9-3.1-4-4.6-6.1c-0.2-0.2-0.2-0.7-0.1-1.1c0.7-2.5,1.5-4.9,2.3-7.3c0.3-1.2,0.5-2.4,0.9-3.5c0.2-0.5,0.7-1,1.1-1.3
		c0.9-0.8,1.9-1.4,2.8-2.2c1.9-1.6,3.8-3.2,4.7-5.7c0-0.1,0.2-0.2,0.4-0.4c-0.1,1.5-0.2,2.8-0.2,4.1c0,3-0.1,6,0,8.9
		c0.1,1.4,1,2.2,2.3,2.7c1.2,0.4,2.4,0.8,3.7,1.2c1.3,0.4,2.5,0.2,3.6-0.4c0.7-0.4,1.6-0.8,2.3-1.3c1.4-1,2.9-1.3,4.5-1.4
		c2-0.1,2.9-1.6,3.6-3.2c0.7-1.6,0.8-3.3-0.6-4.6c-0.2-0.2-0.7-0.3-1-0.4c0.1,0.4,0.1,1,0.3,1.1c0.8,0.6,1.1,1.4,0.8,2.2
		c-0.4,1.2-0.9,2.3-1.6,3.3c-0.3,0.4-1.1,0.6-1.8,0.7c-1.5,0.1-2.8,0.4-4,1.2c-1.2,0.7-2.5,1.3-3.8,2c-0.2,0.1-0.4,0.2-0.6,0.2
		c-2-0.4-4.1-0.6-5.8-1.9c-0.5-0.4-1-1.1-1-1.7c0-3.9,0.1-7.8,0.2-11.7c0.1-2.5,0.3-4.9,0.2-7.4c-0.1-4.5-2.6-7.7-5.9-10.4
		c-1.7-1.3-3.5-2.5-5.4-3.7c-0.6-0.4-1.4-0.8-2.1-0.7c-3,0.1-6,0.3-9,0.5c-0.4,0-0.9,0.2-1.3,0.4c-0.8,0.5-1.1,0.1-1.2-0.7
		C42.1,65.7,41.3,63.1,40.9,60.5z M40.4,75c0.1-0.6,0.2-1.3,0.3-1.9c0.3-1.4,0.8-2.3,2.4-2.8c3.2-1,6.5-1,9.8-1.2
		c1.3-0.1,2.4,0.4,3.5,1.1c1.5,1.1,3.1,2,4.5,3.1c3.5,2.7,5.7,6.1,5.7,10.7c0,3.5-1.5,6.2-3.7,8.6c-1,1.1-2.1,2.1-3.2,3.1
		c-0.4,0.4-1,0.7-1.6,1.2c-0.9-2.6,0.6-4.5,1.3-6.5c0.5-1.5,1.5-2.9,2.3-4.3c1-1.8,0.7-3.8-0.9-5.2c-0.7-0.6-1.4-1.2-2-1.8
		c1-2.7,0.1-4.8-2.6-6c-0.7-0.3-1.5-0.7-2.3-0.9c-0.8-0.2-1.4,0.3-1.9,1c-1.4,2-2.8,4-4.2,6.1c-1.8-2-3.6-0.9-5.3-0.2
		c-0.8,0.3-1.5,0.9-2.2,1.3c-0.1,0-0.2-0.1-0.3-0.1C40,78.6,40.2,76.8,40.4,75z"/>
	<path class="st0" d="M98.1,106.8c0,0.4,0.1,0.6,0,0.7c-1.5,3-2.9,6.1-4.5,9.1c-2,3.6-5.3,5.4-9.4,6.1c-3.7,0.7-7.4,0.8-11-0.1
		c-0.9-0.2-1.9-0.6-2.5-1.2c-1.7-1.9-3.3-3.9-4.8-5.9c-0.9-1.1-1.6-2.4-2.5-3.6c-0.2-0.3-0.5-0.6-0.7-0.9c0.1-0.1,0.1-0.2,0.2-0.3
		c0.3,0.1,0.6,0.2,0.9,0.3c0.9,0.3,1.7,0.8,2.6,0.8c2.1,0,4.1-0.2,6.2-0.5c1.5-0.2,2.8,0.2,4.1,0.8c0.8,0.4,1.5,0.5,2.3-0.1
		c1.6-1.3,3.5-1.7,5.5-2c2.9-0.5,5.8-1.2,8.7-1.9c1.2-0.3,2.3-0.7,3.5-1C97,106.9,97.5,106.9,98.1,106.8z M95.1,111.8
		c-1.2,1.1-2.3,1.9-3.2,2.9c-2.6,2.6-5.8,3.9-9.2,4.3c-2.9,0.3-5.8,0-8.7,0c-1.7,0-3.2-0.8-4.5-1.8c-0.6-0.4-1.1-0.8-1.7-1.3
		c-0.1,0.1-0.2,0.2-0.3,0.3c1.2,1.4,2.4,2.8,3.7,4.1c0.7,0.7,1.8,1.1,2.7,1.3c2.9,0.6,5.9,0.6,8.8,0.1c1.8-0.3,3.6-0.5,5.2-1.2
		C91.6,118.8,93.6,115.6,95.1,111.8z M69.3,115.2c0,0.1,0,0.2-0.1,0.4c0.7,0.8,1.5,1.6,2.7,1.7c0.6,0.1,1.2,0.1,1.7,0.3
		c2.9,0.9,5.8,0.8,8.7,0.5c4.3-0.4,7.7-2.7,10.6-5.6c0.8-0.8,1.3-1.8,2-2.7c-0.1-0.1-0.2-0.1-0.3-0.2c-0.7,0.4-1.4,0.7-2.1,1.1
		c-4.3,2.9-9.2,4.1-14.3,4.5C75.4,115.4,72.3,115.2,69.3,115.2z M67.1,112.8c1.3,1.1,2.5,1.6,3.9,1.5c2.9-0.1,5.7-0.2,8.6-0.4
		c4.6-0.4,9-1.6,12.9-4.3c0.3-0.2,0.6-0.4,0.8-0.6c-0.5-0.1-0.8,0-1.2,0c-2.1,0.5-4.1,1.1-6.2,1.4c-2.6,0.4-5.1,0.8-7.3,2.5
		c-0.4,0.3-1.4,0.2-1.9,0c-1.7-0.8-3.3-0.9-5.1-0.5C70.2,112.8,68.8,112.7,67.1,112.8z"/>
	<path class="st0" d="M99.2,62.3c0.3,0.3,0.9,0.8,1.1,1.3c0.2,0.6-0.3,1.1-1,1.1c-4.2-0.2-7.9,1.7-11.7,3.2
		c-1.8,0.7-3.6,1.4-5.4,2.1c-2.2,0.8-3.8,2.4-5.7,3.8c-0.3,0.2-0.7,0.4-1,0.3c-0.2-0.1-0.5-0.7-0.4-0.9c0.1-0.5,0.4-1.1,0.8-1.4
		c1.8-1.3,3.8-2.5,5.6-3.7c2.3-1.6,5-2.5,7.6-3.6c2.4-1,4.9-0.9,7.4-1.5C97.3,62.6,98.1,62.5,99.2,62.3z"/>
	<path class="st0" d="M83.6,78.8c-0.6,0-1.4,0-2.2-0.2c-0.2,0-0.6-0.5-0.5-0.8c0-0.2,0.5-0.7,0.7-0.6c3.2,0.5,6.3-0.2,9.3-0.9
		c1.9-0.4,3.8-0.8,5.7-1.2c0.6-0.1,1.2-0.5,1.9-0.6c0.3-0.1,0.7,0.1,1,0.2c-0.1,0.3-0.2,0.8-0.4,0.9c-0.5,0.3-1,0.6-1.6,0.7
		c-3.8,0.8-7.7,1.5-11.5,2.2C85.3,78.8,84.5,78.7,83.6,78.8z"/>
</g>
</svg>
