<?xml version="1.0" encoding="utf-8"?>
<!-- Generator: Adobe Illustrator 19.2.1, SVG Export Plug-In . SVG Version: 6.00 Build 0)  -->
<svg version="1.1" id="Background_copy_2_xA0_Image_1_"
	 xmlns="http://www.w3.org/2000/svg" xmlns:xlink="http://www.w3.org/1999/xlink" x="0px" y="0px" viewBox="0 0 194 200"
	 style="enable-background:new 0 0 194 200;" xml:space="preserve">
<style type="text/css">
	.st0{fill:#D84315;}
</style>
<g id="icon-swollenleg">
	<path class="st0" d="M62.3,0c0,2.7,0,5.5,0.1,8.2c0,0.8,0.2,1.6,0.5,2.3c1.4,3.1,2.7,6.2,4.4,9.1c2,3.5,4.4,6.8,6.5,10.2
		c1.8,2.8,3.6,5.6,5.2,8.6c1.8,3.4,3.2,7.1,5.2,10.4c2.5,4.3,4.2,8.9,6.3,13.4c0.7,1.4,1.6,2.7,2.4,4c0.8,1.3,1.6,2.6,2.3,3.8
		c0.1,0.1,0.1,0.3,0.1,0.3c2.1,1.2,2.1,3.7,3.2,5.5c1.2,1.8,2.1,3.9,2.9,5.9c0.4,0.9,0.4,1.9,0.5,2.8c0,4.6,0.5,9.2,1.5,13.6
		c0.6,2.6,1.6,5.1,2.5,7.7c0.9,2.7,2.4,5.1,4.5,7.3c-0.7-2.3-1.3-4.7-2.1-7.2c0.4,0.2,0.8,0.2,1,0.5c0.3,0.4,0.5,1,0.6,1.5
		c1.1,3.2,2,6.5,3.3,9.7c0.6,1.5,1.9,2.8,3,4.2c0.1-0.1,0.3-0.2,0.4-0.2c-0.8-2.2-1.5-4.5-2.3-6.7c-0.8-2.2-1.6-4.4-2.4-6.7
		c0.1-0.1,0.2-0.2,0.4-0.3c0.3,0.4,0.8,0.7,1,1.2c0.9,2.3,1.8,4.6,2.6,7c0.9,2.5,1.7,5.1,2.6,7.6c0.3,0.8,1,1.5,1.4,2.1
		c1-0.4,1.9-0.7,2.9-1.1c-1.4-4.5-2.8-9.2-4.2-13.9c-0.2-0.6-0.4-1.2-0.5-1.9c0-0.3,0.3-0.6,0.4-0.9c0.2,0.2,0.5,0.4,0.6,0.7
		c1.4,4.7,2.8,9.5,4.3,14.2c0.1,0.3,0.2,0.6,0.2,0.6c1.3-0.1,2.4-0.3,3.7-0.4c-0.2-1.3-0.5-2.9-0.8-4.5c-0.7-4.2-1.5-8.5-2.1-12.7
		c-0.5-3.4-0.7-6.8-0.9-10.2c0-0.4,0.1-0.9,0.1-1.3c0.1,0,0.3,0,0.4-0.1c0.2,0.9,0.6,1.7,0.7,2.6c0.3,4,1.1,7.9,3.2,11.3
		c0.7,1.1,1.7,2.1,2.6,3.1c0.1-0.1,0.2-0.2,0.4-0.2c-0.1-0.3-0.1-0.5-0.2-0.8c-0.8-1.7-0.6-2.9,0.7-4.2c0.6-0.5,0.7-1,0.4-1.7
		c-0.6-2.1-1-4.2-1.8-6.2c-0.8-2.1-1.8-4.1-3-5.9c-1.9-2.9-4.1-5.7-6.1-8.6c-0.1-0.2-0.2-0.3-0.3-0.5c-4.2-4.2-6.7-9.5-9.2-14.7
		c-1.9-3.8-3.2-7.8-4.2-11.9c-0.8-3.2-1.9-6.3-3.5-9.2c-1.5-2.8-2.6-5.8-3.8-8.8c-1.8-4.5-3.7-9-5.3-13.7
		c-1.9-5.4-3.5-10.9-5.2-16.4C89.1,8.4,89,8.2,88.9,8c-1-2.7-2-5.3-3-8c0.4,0,0.8,0,1.2,0c0.2,0.7,0.4,1.5,0.7,2.2
		C88,2.5,88.4,2.8,88.8,3c0.9,0.3,1.8,0.5,2.6,0.7c2.5,0.8,4.9,1.8,7.5,2.3c3.5,0.7,6.7,1.8,9.9,3.3c1.4,0.7,2.9,1.3,4.4,1.8
		c3.6,1.2,7.3,2.1,10.9,3.4c4.6,1.6,9.2,3.5,13.8,5.2c1.3,0.5,2.7,0.9,4,1.3c0.1-0.1,0.1-0.2,0.2-0.3c-0.6-1-1.1-2-1.7-3
		c-1.3-2.5-2.6-4.9-3.8-7.4C134.7,7,133,3.5,131.3,0c0.5,0,0.9,0,1.4,0c0.2,0.5,0.3,0.9,0.6,1.4c2.6,5,5.1,9.9,7.7,14.9
		c0.5,1,1.1,2,1.7,3c2.1,3.5,4.4,6.9,5,11.1c0.3,2,0.7,4.1-0.9,5.8c-3,3.2-5,7-6.7,11c-2.3,5.2-3.2,10.8-4.7,16.2
		c-0.1,0.3,0,0.6-0.1,1c2.5,0.6,2.3,2.7,2.4,4.9c0.5-0.7,1-1.1,1.2-1.6c0.6-1.3,1.2-2.6,1.5-4c0.9-3.1,1.6-6.2,2.5-9.3
		c0.2-0.5,0.9-1.4,1-1.4c1,0.5,0.3,1.3,0.1,1.9c-1.4,4.1-2.1,8.3-2.4,12.6c-0.3,3.2-1,6.4-1.4,9.6c-0.2,1.7-0.4,3.4-0.6,5.3
		c1.8-0.4,2.4,0.8,3.1,1.8c0.1-0.5,0.3-0.9,0.4-1.3c1.4-5.2,2.7-10.5,4.2-15.7c0.2-0.6,0.3-1.4,1.2-1.2c0.1,0,0.2,1,0.1,1.5
		c-1.1,4-2.3,8-3.2,12c-0.5,2.2-0.7,4.4-1,6.6c0.1,0.1,0.2,0.1,0.3,0.2c1.1-0.8,2.2-1.5,3.8-0.7c1-4.1,2.1-8,3-11.9
		c1.1-4.7,2-9.5,5.5-13.2c0.9-0.9,1.2-2.1,1.2-3.4c-0.1-3.6,0-7.2,1.1-10.7c0.8-2.6,1.4-5.3,1.1-8c-0.2-2.3-0.3-4.6-1.3-6.7
		c-1.5-3-2.9-5.9-3.4-9.3c-0.6-3.8-1.9-7.5-2.5-11.3c-0.6-3.7-0.7-7.4-1.9-11c0.5,0,0.9,0,1.4,0c0,0.3,0,0.6,0.1,0.9
		c1.4,3.3,1.2,6.8,1.8,10.2c0.5,3,1.3,5.9,2,8.9c0.5,2.2,1.1,4.5,1.7,6.7c0.3,0.9,0.8,1.7,1.2,2.5c2.7,4.9,2.9,10.2,1.6,15.5
		c-1,4.1-1.6,8.1-1.5,12.3c0.1,1.6-0.3,2.9-1.4,4c-3.3,3.4-4.2,7.8-5.3,12.2c-1,4.1-2,8.2-3.2,12.2c-0.6,2.2-1.4,4.4-2.6,6.2
		c-1.4,2.1-1.2,4.1-1.3,6.3c-0.1,2.9-0.6,5.9-0.8,8.8c-0.2,5-0.2,10.1-0.3,15.1c0,2.1,0,4.2,0.1,6.2c0.2,3.9,0.4,7.8,0.7,11.8
		c0.4,4.9,0.9,9.7,1.5,14.5c0.4,3.2,1.1,6.3,1.8,9.4c0.9,4.1,1.3,8.3,1,12.5c-0.1,1.4-0.5,2.9-0.8,4.3c-0.1,0.6-0.1,1.1-0.2,1.7
		c-0.1,0.7,0.3,1,0.9,1.1c2.1,0.6,4.3,1.2,6.4,1.7c1.2,0.2,2.4,0,3.6,0c0,0,0.1,0,0.1,0c1.9-0.5,3.1-0.3,3.7,0.7
		c0.7,1.2,0.5,3.1-0.5,4.4c0.9,0.8,1.4,1.8,1,3c-0.7,1.9-1.9,3.2-4.1,3.3c-0.9,0-1.7-0.1-2.2,1c-0.1,0.3-1.1,0.4-1.6,0.6
		c-0.7,0.2-1.5,0.3-2,0.8c-0.9,0.8-1.9,1.2-3,1.1c-1.9,0-3.8-0.1-5.7-0.2c-2-0.2-3.6-1.4-4.9-2.9c-1.5-1.8-2.9-3.7-4.2-5.7
		c-1.7-2.7-3.1-5.5-4.6-8.3c-1.8-3.4-4.4-6-7.1-8.6c-2.6-2.5-4.8-5.5-7.3-8.1c-1.6-1.7-2.2-3.9-3.3-5.9c-1.8-3.1,0.2-6.4,2.2-7.8
		c1.8-1.3,3.5-2.7,5.2-4c0.8-0.6,1-1.3,0.9-2.3c-0.2-1.8-0.1-3.7-0.2-5.5c-0.3-3.6-0.7-7.2-1.2-10.8c-0.1-0.5-0.6-0.9-0.9-1.4
		c-0.2-0.4-0.4-0.9-0.7-1.3c-1.2-1.5-2.3-3.1-3.7-4.4c-3-2.9-5.1-6.5-7.4-9.9c-0.8-1.1-1.5-2.3-2.4-3.7c-0.7,1.2-1.3,2.3-1.9,3.3
		c-0.5,0.8-1.1,1.6-1.6,2.4c-0.5,0.8-1,1.6-1.5,2.5c-2,3.7-3.8,7.5-5.9,11.2c-2.1,3.6-3.3,7.6-4.8,11.4c-0.9,2.4-2,4.7-2.9,7.2
		c-0.8,2.3-1.5,4.7-1.9,7.1c-0.4,2.3-0.2,4.7-0.4,7.1c-0.3,4.5-0.9,8.9-2.4,13.1c-1.1,3.1-0.4,3.8,2.1,5c1.9,0.9,4,1.6,6,2.4
		c0.9,0.3,1.8,0.6,2.7,1c1.8,1,2.1,2.5,1.1,4.3c-1.3,2.2-3.1,3.3-5.8,3.3c-4.8-0.1-9.6,0-14.3,0.2c-3.2,0.2-6.3-3-6.3-6
		c0-1.2,0.1-2.5,0.2-3.7c0.5-3.8,0.5-7.5-0.5-11.2c-0.5-1.9-1.3-3.8-2.8-5.1c-1.7-1.4-3.4-2.7-5.2-4c-2-1.4-3.2-3.3-4.3-5.4
		c-0.8-1.5-1.6-3-2-4.6c-1-4.1-0.1-7.3,4.5-9.4c1.7-0.8,3.4-1.7,5-2.6c2.9-1.8,4.8-4.3,6.2-7.4c0.6-1.3,1.5-2.5,2-3.8
		c1.3-3.5,2.5-7,3.8-10.5c1.1-3,2-6.1,3.1-9.2c0.4-1.1,1-2.1,1.5-3.1c1.7-4,3.2-8,5-12c1.5-3.4,3.1-6.8,4.8-10.1
		c1.7-3.3,3.6-6.5,5.3-9.7c0.1-0.2,0.1-0.6,0-0.9c-0.9-1.7-1.9-3.4-2.8-5.1c-0.9-1.6-1.9-3.2-2.7-4.9c-1.5-3.1-2.8-6.2-4.2-9.3
		c-0.5-1.1-1.4-1.8-2.6-2c-5-0.6-9.9-1.3-14.9-1.8c-4.9-0.4-9.8-0.5-14.6-1c-2.6-0.2-5.2-1-7.8-1.5c-1.4-0.3-2.9-0.4-4.3-0.6
		c0-0.5,0-0.9,0-1.4c1.7,0.2,3.4,0.2,5,0.6c5.8,1.6,11.8,1.7,17.8,2.1c5.1,0.3,10.3,0.9,15.4,1.3c1.1,0.1,2.3,0.2,3.6,0.4
		c-0.3-0.7-0.6-1.2-0.8-1.7c-0.5-1.4-1.4-1.9-3-1.8c-5.1,0.2-10.1-0.2-15.1-0.8c-1.6-0.2-3.2-0.4-4.8-0.6c-1.4-0.2-2.8-0.5-4.2-0.6
		c-3.7-0.3-7.4-0.5-11.2-0.8c-0.3,0-0.6-0.5-1-0.8c0.3-0.2,0.7-0.5,1-0.7c0.2-0.1,0.5,0.1,0.8,0.1c2.5,0.2,5,0.4,7.5,0.6
		c2.1,0.1,4.2,0.2,6.2,0.4c1.8,0.2,3.5,0.6,5.2,0.8c1.2,0.2,2.4,0.3,3.6,0.3c4.2,0.2,8.4,0.3,12.6,0.4c0.2,0,0.3-0.1,0.7-0.2
		c-0.9-1.9-1.7-3.7-2.7-5.4c-2.6-4.2-5.4-8.3-8-12.6c-1.7-2.8-3.3-5.7-4.9-8.6c-2.5-4.6-4.1-9.4-3.4-14.8c0.1-0.7,0.1-1.4,0.1-2.2
		C61.6,0,61.9,0,62.3,0z M139.9,69.2c-0.1-0.1-0.2-0.1-0.4-0.2c-0.7,0.8-1.5,1.6-2.2,2.4c-0.9,1.3-2.2,1.7-3.6,1.5
		c-0.4-0.1-0.9-0.6-1-0.9c-0.1-1.2-0.3-2.4,0.1-3.7c0.8-2.5,1.1-5.1,1.8-7.6c1-3.9,2-7.8,3.2-11.7c1.6-5.1,4.3-9.7,7.7-13.8
		c0.8-1,1-2.2,0.9-3.4c-0.4-2.6-1-5.1-2.4-7.4c-0.7-1.1-1.6-1.8-2.8-2.2c-1.5-0.5-3.1-0.9-4.6-1.5c-4.9-2.2-9.9-4.1-15.1-5.6
		c-5.3-1.5-10.5-3-15.4-5.5c-1.7-0.9-3.6-1.5-5.5-1.8c-3.4-0.6-6.7-1.6-9.8-2.9c-0.5-0.2-1.1-0.4-1.9-0.6C89,4.6,89.1,4.8,89.1,5
		c1.2,3.1,2.5,6.2,3.5,9.3c1.6,4.9,3,9.9,4.7,14.7c1.7,4.7,3.7,9.3,5.6,13.9c0.2,0.4,0.4,1,0.7,1.1c1,0.2,0.9,0.8,1.1,1.5
		c0.3,2,0.7,2.3,2.7,2.4c0.8,0,1.7,0,2.5,0.2c1.4,0.3,2.7,0.7,4.1,1.1c1.2,0.3,2.3,0.4,3.2-0.8c0.6-0.8,1.4-1.6,2.2-2.2
		c0.3-0.3,0.8-0.3,1.2-0.5c-0.1,0.4-0.1,0.9-0.2,1.3c-0.1,0.2-0.3,0.4-0.5,0.6c-1.9,1.9-3,4.1-3.2,6.7c-0.1,1.1-0.1,2.2-0.2,3.3
		c-0.2,5.2-0.4,10.4-0.5,15.6c0,0.3,0,0.7,0.2,1c1,1.8,2,3.7,3.2,5.4c2,2.8,4.2,5.5,6.3,8.2c1.1,1.5,2.3,3,3.2,4.6
		c1,1.7,1.9,3.5,2.6,5.4c1,2.8,1.8,5.7,2.5,8.5c0.4,1.5,0.7,3.2,0.8,4.8c0.1,1.2-0.4,1.7-1.6,1.7c-1.4,0.1-2.7-0.1-3.7-1.2
		c-1.1-1.1-2.1-2.3-3.1-3.4c0.1,0.6,0.3,1.4,0.4,2.2c0.4,3,0.8,5.9,1.1,8.9c0.3,1.9,0.6,3.9,0.8,5.8c0.1,1.3-1,2.8-2.3,2.7
		c-1.7,0-2.7,1.3-4.3,1.3c0,0.4,0,0.6,0.1,0.8c0.4,3.4,0.8,6.9,1.1,10.3c0.2,2.8,0.3,5.5,0.5,8.3c0.2,2.4,1.4,4.5,2.7,6.4
		c0.2,0.3,0,0.8,0,1.2c-0.4-0.2-0.9-0.3-1.1-0.6c-1.2-1.7-2.4-3.4-2.7-5.5c0-0.2-0.2-0.4-0.3-0.6c-2.1,1.6-4.1,2.9-6,4.6
		c-1.3,1.1-2.2,2.8-1.6,4.6c0.6,1.8,1.2,3.7,2.3,5.1c2.6,3.3,5.3,6.6,8.3,9.5c3,2.9,5.8,5.7,7.7,9.4c1.7,3.2,3.4,6.4,5.3,9.5
		c3.3,5.4,6.7,7.1,13.1,6.6c0.6-0.1,1.6-0.6,1.8-1.1c0.3-0.9-0.2-1.7-1.2-2.1c-0.4-0.1-0.7-0.2-1.1-0.4c-0.7-0.2-1.3-0.4-2-0.6
		c-2.7-1-3.8-2.5-3.9-5.4c0-0.6-0.2-1.5,0.7-1.5c1,0,0.6,1,0.6,1.5c0,2.1,0.9,3.5,2.9,4.1c0.9,0.3,1.9,0.4,2.8,0.8
		c0.8,0.3,1.9,0.8,2.1,1.4c0.5,1.6,1.5,1.1,2.5,1c0-1.3-0.4-2.1-1.2-2.5c-1.7-0.8-3.5-1.5-5.3-2.3c-0.2-0.1-0.4-0.4-0.6-0.6
		c0.2-0.2,0.5-0.5,0.7-0.5c0.7,0.1,1.4,0.3,2.1,0.5c1,0.4,1.9,1,2.9,1.3c1,0.4,1.8,0.9,2.3,2c0.1,0.3,0.5,0.6,0.8,0.7
		c1.2,0.1,2.3,0.1,3.3-0.8c-0.3-1.1-1-1.7-2.2-2c-1.7-0.4-3.4-0.8-5-1.3c-0.3-0.1-0.6-0.5-0.9-0.8c0.4-0.1,0.9-0.4,1.2-0.3
		c2.4,1.4,5.7,0.4,7.9,2.7c0.1-0.3,0.1-0.7-0.1-0.8c-0.5-0.5-1-1-1.6-1.2c-1.6-0.4-3.2-0.6-4.7-1c-0.6-0.1-1.1-0.3-1.6-0.5
		c-0.2-0.1-0.3-0.6-0.4-0.9c0.3,0,0.7-0.2,1-0.1c1.2,0.2,2.3,0.5,3.5,0.8c-0.5-1.5-1.2-2.3-2.7-2.6c-2-0.3-4-1.1-6-1.6
		c-0.2-0.1-0.5,0-0.8,0c0,0.7,0.1,1.3,0,1.9c0,0.2-0.3,0.5-0.5,0.6c-0.1,0.1-0.5-0.1-0.5-0.3c-0.3-0.8-0.8-1.6-0.8-2.4
		c0-1.6,0.1-3.3,0.5-4.8c0.9-3.6,1-7.2,0.4-10.8c-1.1-6.9-2.9-13.7-3.3-20.8c-0.2-4.1-1.2-8.1-1.3-12.3c-0.1-7.9-0.3-15.9-0.3-23.8
		c0-6.3,1.6-12.6,1.2-19c0-0.3,0-0.6-0.2-0.9c-0.5-0.9-1.1-1.8-1.7-2.7c-1.4,0.9-2.9,0.7-3.8-0.8c-0.4-0.6-0.6-1.4-0.6-2.2
		c-0.2-4.5,0.3-8.9,1.3-13.3C139.7,72,139.7,70.5,139.9,69.2z M65.5,138.3c0.3,0.4,0.5,0.6,0.7,0.9c1.1,1.4,2.2,2.9,3.2,4.4
		c0.1,0.2,0,0.6,0,1c-0.3-0.1-0.6-0.1-0.9-0.2c-0.2-0.1-0.3-0.4-0.5-0.7c-0.9-1.3-1.8-2.6-2.8-3.8c-0.2-0.3-0.9-0.5-1.1-0.4
		c-2.3,1.1-4.5,2.3-6.7,3.5c-2.5,1.4-3.7,4.6-2.7,7.1c0.6,1.6,1.2,3.3,2.1,4.7c1,1.6,2.3,3.2,3.6,4.6c0.9,0.9,2,1.5,3.1,2.2
		c4.5,2.9,6.1,7.4,6.3,12.4c0.2,3,0,5.9-0.5,8.9c-0.6,3.7,2,6.5,5.7,6.4c3-0.1,6.1-0.2,9.1-0.2c1.8,0,3.6,0,5.4,0
		c1.6,0,3.2-1.2,3.5-2.8c-1.3,0-2.6,0.1-3.9,0c-1-0.1-1.8-0.4-1.9-1.6c0-0.2-0.4-0.6-0.7-0.6c-0.5-0.1-1.1,0-1.6-0.1
		c-0.8-0.2-1.6-0.4-2.4-0.7c-0.2-0.1-0.2-0.6-0.3-0.9c0.3,0,0.6-0.1,0.8-0.1c1,0.2,1.9,0.4,2.9,0.5c1.3,0.2,2.7,0.3,4,0.5
		c1.1,0.2,2.1,0.5,3.5,0.8c-0.3-0.4-0.4-0.7-0.5-0.8c-0.5-0.2-1-0.3-1.5-0.5c-3.4-1.2-7.3-1.4-9.9-4.5c-0.1,0.3-0.2,0.5-0.3,0.7
		c-0.1,0.2-0.3,0.4-0.4,0.7c-0.2-0.2-0.6-0.5-0.6-0.7c0.1-1,0-2.1,0.4-3.1c1.7-4.3,2.4-8.8,3-13.4c0.5-3.7-0.2-7.6,0.9-11.2
		c0-0.1-0.1-0.1-0.2-0.3c-1.1,0-2.3,0-3.5,0c-0.3,0-0.7-0.3-1-0.4c0.3-0.2,0.6-0.6,0.9-0.6c1-0.1,2,0,3-0.2c0.5-0.1,1.1-0.5,1.3-0.9
		c1.8-4.5,3.5-9,5.3-13.5c0.7-1.9,1.4-3.8,2.3-5.5c1.8-3.4,4-6.6,5.4-10.1c1.7-4.1,4.6-7.4,6.5-11.3c0.2-0.4,0.3-1.1,0.1-1.6
		c-2.5-6-3.9-12.3-3.7-18.7c0.2-5.7-2.7-10.1-5.2-15c-0.4,0.7-0.7,1.3-1,1.8c-1.2,2.3-2.2,4.7-3.6,6.9c-2.5,4.1-4.5,8.5-6.1,13
		c-1.2,3.3-2.7,6.5-4.1,9.7c-0.5,1.2-1.3,2.4-1.7,3.7c-1,2.9-1.9,5.8-2.9,8.6c-1.7,4.8-2.9,9.9-5.7,14.3
		C69.2,133.7,68.1,136.4,65.5,138.3z M114,69.9c0.2-2.6,0.4-4.9,0.5-7.2c0.2-3.5,0.3-6.9,0.5-10.4c0-0.7-0.1-1.1-0.8-1.3
		c-1-0.3-2-0.8-3.1-1c-1.4-0.3-2.9-0.3-4.4-0.5c-0.1,0.1-0.1,0.3-0.2,0.4C109.2,56.4,109.7,63.7,114,69.9z M136.2,67.6
		c0.1,0,0.1,0,0.2,0c0-0.3,0-0.6-0.1-0.8c-0.2-0.4-0.6-0.7-0.9-1.1c-0.3,0.3-0.7,0.6-0.7,1c-0.3,1.4-0.5,2.8-0.7,4.2
		c0,0.2,0.2,0.6,0.3,0.6c0.5,0,1,0,1.4-0.2c0.4-0.2,0.8-0.8,0.8-1.2C136.5,69.3,136.3,68.4,136.2,67.6z M140.2,83.3
		c-0.1,0.1-0.3,0.2-0.4,0.3c-0.5,0.7-0.4,4.1,0.2,4.6c0.3,0.2,0.7,0.5,1,0.4c0.3-0.1,0.5-0.5,0.6-0.8c0.2-0.5,0.3-1.1,0.4-1.7
		c0.1-0.4-1.2-2.7-1.5-2.8C140.5,83.3,140.4,83.3,140.2,83.3z M144.1,89.6c0.2,0.3,0.5,0.8,0.8,1.3c0.4-0.3,1-0.5,1.3-0.9
		c0.5-0.7,0.9-1.5,1.1-2.4c0.1-0.3,0-0.9-0.3-1.2c-0.2-0.2-0.8-0.1-1.1,0.1C144.7,87.1,144.3,88.2,144.1,89.6z M162.1,190
		c0.4-1,0.7-1.8,0.9-2.5c0.1-0.4-0.3-1.1-0.5-1.1c-0.9-0.1-1.9-0.1-2.8,0.1c-0.7,0.1-0.9,0.6-0.3,1.2
		C160.2,188.4,161,189.1,162.1,190z M132.8,111.9c1.1-1.9,0.4-3.4-0.5-5c-0.5,0.6-1,1.2-0.9,1.8
		C131.5,109.8,132.1,110.9,132.8,111.9z M127.4,124.5c-0.8,0.2-1.9-0.8-2.5,0.4c-0.2,0.4-0.1,1.2,0.1,1.6c0.2,0.3,1,0.4,1.4,0.2
		C127.3,126.4,127.7,125.6,127.4,124.5z M88.7,184.2c0,0.1-0.1,0.3-0.1,0.4c0.5,0.9,3,1.4,3.8,0.8c0.1-0.1-0.1-0.7-0.2-0.7
		C91.1,184.5,89.9,184.3,88.7,184.2z M123.4,125.9c-0.6,0.1-1.1,0.1-1.5,0.2c-0.3,0.1-0.6,0.2-0.7,0.4c-0.1,0.2,0.1,0.5,0.2,0.8
		c0.4,0.8,1.1,0.8,1.8,0.4C124,127.2,123.7,126.6,123.4,125.9z"/>
	<path class="st0" d="M79,181.7c-0.3,0.4-0.4,0.6-0.6,0.7c-0.7,0.5-1.4,1.1-2.1,1.5c-0.3,0.2-0.7,0.2-1,0.2c0.1-0.4,0.1-0.8,0.3-1
		c0.7-0.6,1.5-1.2,2.3-1.7C78.1,181.4,78.5,181.6,79,181.7z"/>
</g>
</svg>
