<?xml version="1.0" encoding="utf-8"?>
<!-- Generator: Adobe Illustrator 19.2.1, SVG Export Plug-In . SVG Version: 6.00 Build 0)  -->
<svg version="1.1" id="Layer_1" xmlns="http://www.w3.org/2000/svg" xmlns:xlink="http://www.w3.org/1999/xlink" x="0px" y="0px"
	 viewBox="0 0 136.7 130" style="enable-background:new 0 0 136.7 130;" xml:space="preserve">
<style type="text/css">
	.st0{fill:#512DA8;}
</style>
<g id="icon-burn">
	<path class="st0" d="M0,104.2c0.5-0.4,0.9-0.8,1.4-1.2c1.5-1.5,3.4-2.1,5.2-3c3.5-1.8,6.9-3.9,10.4-5.7c2-1,3.7-2.3,5.5-3.4
		c2.9-1.8,8.2-4.3,12.3-4.7c-0.5-1.7-1.2-3.3-2.1-4.9c-0.2-0.3-0.2-0.8-0.3-1.1c0.4,0.2,1,0.2,1.2,0.5c0.9,1.6,1.7,3.4,2.5,5
		c0.2,0.5,0.6,1,1,1.3c0.9,0.5,1.8,0.8,2.7,1.2c1.6,0.7,3.1,1.4,4.7,2.1c0.4,0.2,0.8,0.4,1.1,0.4c2.9,0.3,5.8,0.9,8.8,0.5
		c3.8-0.4,7.6-0.4,11.4-0.5c0.7,0,1.4,0.4,2,0.7c4.4,2.4,8.3,5.6,12.2,8.8c2.7,2.2,5.4,4.4,8.5,6.1c1.4,0.8,2.7,1.9,4,2.8
		c0.8,0.6,1.6,1.1,2.4,1.6c0.1-0.1,0.2-0.2,0.2-0.3c-0.6-0.6-1.1-1.3-1.7-1.9c-0.6-0.6-1.2-1.2-1.8-1.8c-1.2-1.5-0.9-3,0.7-4
		c0.1-0.1,0.3-0.2,0.6-0.4c-3.6-3.9-7.2-7.7-10.9-11.6c-0.6,0.4-1.3,1-2.1,1.6c-0.1-1.4,1.3-1.5,1.8-2.7c-1-0.9-2.2-1.7-3.1-2.7
		c-1.8-1.9-4.5-2.9-5.9-5.1c-0.5-0.8-1.1-1.5-1.7-2.3c-0.1-0.1-0.1-0.4-0.2-0.9c0.5,0.4,0.8,0.6,1.1,0.8c2.3,1.9,4.5,3.9,6.8,5.8
		c0.2,0.2,0.6,0.2,0.9,0.2c1.1-0.2,2,0.2,2.9,0.8c2.5,1.9,5.2,3.4,8.1,4.7c1.1,0.5,2,1.5,3,2.2c1.2,0.9,2.5,1.8,3.7,2.8
		c0.6,0.5,1.2,0.9,1.7,1.4c2.7,2.8,5.3,5.6,8,8.4c1.2,1.3,2.5,2.6,3.6,3.9c1,1.1,2.1,1.8,3.8,1.3c-0.4-0.5-0.7-1-1.1-1.5
		c-1-1.2-2-2.4-2.9-3.7c-1.2-1.8-1-3,0.8-4.3c0.1-0.1,0.3-0.2,0.5-0.4c-1-1.2-1.9-2.4-3-3.5c-2.6-2.8-4.8-5.9-6.7-9.2
		c-1.1-1.8-2.6-3.2-3.9-4.8c-0.4-0.5-0.8-0.4-1.3,0c-0.5,0.5-1,0.9-1.6,1.3c-0.1-0.1-0.2-0.2-0.3-0.4c0.6-0.6,1.1-1.2,1.7-1.9
		c-0.4-0.3-0.7-0.5-1.1-0.7c-1.2-0.7-2.4-1.5-3.6-2.2c-1.5-0.8-3.1-1.6-4.7-2.4c-0.9-0.5-1.7-1-2.5-1.5c-1.7-1-3.3-2.1-5-3.2
		c0.4,0,0.8,0,1.1,0.2c1.4,0.7,2.7,1.5,4.1,2.2c1.2,0.6,2.4,1.1,3.5,1.7c1.2,0.6,2.5,1.3,3.7,2c1.7,1,3.3,1.9,5,2.9
		c1.6,1,3.1,2.1,4.1,3.8c0.7,1.1,1.6,1.9,2.8,2.6c1.4,0.7,2.6,2,3.9,3c2.1,1.8,4.2,3.7,6.4,5.4c2.3,1.8,4.7,3.4,7,5.2
		c1.3,0.9,2.5,2,3.8,2.9c0.6,0.4,1.4,0.3,2.1,0.5c0-0.1,0.1-0.2,0.1-0.3c-1-1.4-2-2.8-3-4.2c-0.3-0.4-0.6-0.8-0.8-1.3
		c-0.4-1.1-0.2-1.9,0.7-2.6c0.3-0.2,0.5-0.4,0.6-0.6c-1.8-2.3-3.3-4.6-5.2-6.6c-3.5-3.8-7.4-7.2-11.6-10.2c-0.6-0.4-1.1-0.5-1.6,0.1
		c-0.5,0.5-1,0.8-1.5,1.2c-0.2-0.2-0.3-0.3-0.5-0.5c0.7-0.5,1.5-0.9,2.2-1.4c-0.1-0.1-0.2-0.3-0.2-0.4c-2.8-1.7-5.7-3.4-8.6-5
		c-1.6-0.9-3.5-1.3-5.2-2.1c-2.3-1.1-4.6-2.3-6.7-3.6c-1.3-0.8-2.5-1.4-4.1-1.3c-0.4,0-0.8-0.1-1.2-0.3c1.3-0.3,2.7-0.6,3.9,0
		c1.6,0.8,3.1,1.9,4.7,2.7c2.6,1.2,5.3,2.3,7.9,3.5c2,0.9,3.9,1.9,5.8,3c2.1,1.2,4.1,2.4,6.1,3.8c2.8,2.1,5.7,4.1,8.2,6.5
		c1.6,1.6,3.6,2.3,5.4,3.5c1.2,0.8,2.5,1.5,3.7,2.2c2.1,1.3,5,1.4,6.9,0c-0.4-0.2-0.8-0.5-1.1-0.7c-1.1-0.6-2.2-1.2-3.3-1.9
		c-1.4-1-1.8-2.1-1.2-3.7c0.3-0.7,0.1-1-0.5-1.4c-3.4-2.3-6.8-4.6-10.2-6.8c-1.4-0.9-2.8-1.6-4.3-2.4c-0.3-0.1-0.8,0.1-1.1,0.3
		c-0.5,0.3-1,0.7-1.4,1.1c-0.1-0.1-0.2-0.2-0.3-0.3c0.4-0.5,0.9-1.1,1.4-1.7c-0.8-0.2-1.5-0.4-2.2-0.7c-1.7-0.6-3.4-1.1-5-1.7
		c-1.4-0.5-2.7-1-4-1.5c-3-1-5.7-2.7-8.3-4.4c-2.3-1.5-4.8-1.9-7.4-1.3c-3,0.7-6,0.7-9.1,0.5c-0.5,0-0.9,0-1.4-0.1
		c0.6,0.8,1,1.6,1.6,2.2c0.5,0.5,0.5,1.1,0.3,1.7c-0.3,1.2-0.7,2.3-1.8,3.1c-0.3,0.2-0.5,0.6-0.7,0.9c-0.7,1.5-2,2.2-3.6,2.2
		c-1.1,0-2,0.2-2.9,0.7c-0.5,0.3-1.2,0.4-1.8,0.2c-1.2-0.3-2,0.1-2.8,0.8c-1.8,1.7-3.9,2.1-6.2,1.3c-0.4-0.1-0.9-0.2-1.3,0
		c-2.3,1.2-4.5,0.5-6.8-0.1c-1.2-0.3-2.3-0.9-3.4-1.4c-0.3-0.1-0.6-0.6-0.6-0.9c-0.2-1.2-0.9-2.1-2.2-2.4c-1.2-0.2-1.8-1.1-2.1-2.1
		c-0.3-1,0.1-2,1-2.6c1.2-0.8,2.2-1.6,2.8-3c0.4-1.1,1.6-1.2,2.6-1.4c0.5-0.1,0.9-0.2,1.4-0.3c0-0.1,0-0.2,0-0.3
		c-0.3-0.1-0.6-0.2-0.9-0.2c-3.2-0.2-6.5-0.6-9.7,0.1c-0.3,0.1-0.5,0.1-0.8,0.1c-3.4-0.2-6.7,0.7-9.9,1.6c-1.1,0.3-2.2,0.4-3.3,0.6
		c-1.1,0.2-2.2,0.5-3.3,0.7c-1.1,0.3-2.2,0.5-3.3,0.9c-2.6,0.8-5.2,1.6-7.9,2.3c-2.4,0.7-4.8,1.4-7.2,2.1c-0.4,0.1-0.8,0.6-1.2,0.8
		c0-0.6,0-1.2,0-1.9c9.2-2.7,18.2-5.9,27.7-7.5c-1.2-0.6-2.4-1.1-3.6-1.5c-1.2-0.4-2.4-0.5-3.5-0.9c-2.3-0.8-4.3-1.8-5.5-4.1
		c-0.2-0.3-0.5-0.6-0.8-0.8c-3.2-2.9-5-6.4-4.8-10.8c0-0.5,0.2-0.9,0.2-1.4c0-0.3,0-0.7-0.2-0.8C6.5,40.1,3.5,38,0,36.5
		c0-0.5,0-1,0-1.4c2.8,1.7,5.6,3.5,8.4,5.2c0.1,0.1,0.2,0.2,0.3,0.2c1.3,0.9,1.4,0.9,2.5-0.3c2.6-3,5.4-5.5,9.1-7
		c2.8-1.2,4.7-3.4,6.3-5.8c1.3-1.9,2.9-2.9,5.2-2.7c1.8,0.1,3.4-0.4,4.9-1.4c1.5-1,3.3-1.1,5-0.9c0.5,0.1,1.1,0.4,1.5,0.8
		c0.6,0.6,1.3,0.9,2.1,0.6c1.7-0.5,3.2-0.3,4.6,0.9c0.6,0.5,1.5,0.7,2.2,0.9c1.3,0.3,2.6,0.8,3.8,1.5c1.4,0.9,3.1,1.3,4.6,2
		c1.3,0.6,2.6,1.2,3.8,1.9c0.3,0.2,0.5,0.6,0.6,1c0.9,3.8,3.1,7,5.2,10.2c1.4,2.1,2.8,4.4,3.4,7c0.3,1.3,0.8,2.6,1.2,3.9
		c0.3,0.8,0,1.5-0.8,1.6c-1.3,0.2-1.4,1-1.5,2c-0.1,2.5-1.5,3.7-4,3.4c-0.1,0-0.2,0-0.3,0c-1-0.9-2.1-0.4-3.2-0.3
		c-1.8,0-3.2-0.9-4.4-2.1c-1.8-1.7-3.5-3.6-4.4-6.1c-0.1-0.3-0.6-0.4-1-0.5c-1.6-0.3-3.2-0.4-4.7-0.7c-0.4-0.1-0.9-0.3-1.1-0.6
		c-0.9-1.2-1.9-1-3-0.4c-2.9,1.7-5.9,3.4-8.8,5.1c-0.2,0.1-0.3,0.7-0.3,1c0.2,1.2,0.5,2.4,0.7,3.6c0.1,0.7,0.1,1.3,0.2,2
		c1.1,0.1,2.3,0.1,3.5,0.2c3.1,0.1,6.2,0.2,9.2,0.3c3.2,0.1,6.4,0.2,9.5,0.5c2.3,0.2,4.6,0.9,7,1c4.8,0.2,9.7,0.3,14.6,0.3
		c1.9,0,3.9-0.5,5.8-0.5c1.6,0,3.1,0.5,4.4,1.4c3,2,6,3.9,9.5,4.8c1.2,0.3,2.3,1,3.5,1.4c1.5,0.5,3,1.1,4.5,1.5
		c3.2,0.9,6,2.5,8.8,4.3c3.2,2.2,6.4,4.3,9.7,6.3c1.5,0.9,3.2,1.4,4.8,2.2c1.1,0.6,2.2,1.2,3.3,1.9c0.1,0.1,0.3,0.2,0.3,0.4
		c0.5,1.2-0.1,3.7-1.2,4.4c-2.7,1.8-5.6,2.3-8.6,0.8c-1.1-0.5-2.1-1.2-3.1-1.8c-0.4-0.2-0.9-0.4-1.4-0.6c1.2,2.3,2.7,4.2,4.8,5.6
		c1.7,1.1,3.3,2.4,5,3.7c1.7,1.3,2.1,4-0.3,5.3c-1.6,1-3.3,1.4-5.2,1.4c-1.4,0-2.3-0.8-3.3-1.5c-3.6-2.7-7.1-5.3-10.6-8.1
		c-2.6-2.1-5.1-4.4-7.7-6.6c-0.2-0.2-0.5-0.3-0.7-0.5c-0.1,0.1-0.2,0.1-0.3,0.2c1,1.4,2,2.9,3.1,4.2c2.9,3.5,5.9,7,8.9,10.5
		c0.7,0.8,1.3,1.8,1.8,2.7c1.6,2.8-0.4,5.1-2.9,5.2c-0.5,0-1.1,0.1-1.6,0c-1.3,0-2.3-0.5-3.2-1.6c-2.1-2.4-4.4-4.6-6.6-6.9
		c-1.8-1.9-3.6-3.9-5.4-5.7c-0.8-0.8-1.9-1.4-2.8-2.1c0,0-0.1,0-0.1-0.1c-2.6-2.4-5.5-4.4-8.7-5.8c-1.6-0.7-2.9-1.9-4.4-2.8
		c-0.5-0.3-1-0.5-1.6-0.8c-0.1,0.1-0.1,0.2-0.2,0.2c0.1,0.2,0.2,0.4,0.3,0.5c1.5,1.8,2.9,3.6,4.5,5.3c2,2.2,4.1,4.3,6.2,6.4
		c1.6,1.6,3.2,3.3,4.8,4.9c0.9,0.9,1.9,1.7,2.8,2.6c0.4,0.4,0.8,1,1,1.5c0.7,1.3,0.1,2.6-1.2,3.1c-0.2,0.1-0.4,0.1-0.6,0.2
		c-2.1,1.6-3.8,0.7-5.6-0.6c-3.2-2.2-6.4-4.2-9.6-6.4c-1.2-0.8-2.2-1.9-3.3-2.8c-2.7-2.1-5.3-4.3-8.1-6.3c-1.4-1.1-3-2-4.6-2.9
		c-0.4-0.2-0.8-0.3-1.3-0.3c-2.1,0-4.2,0-6.4,0.1c-3,0.1-6,0.5-9,0.4c-2.6-0.1-5.1-0.5-7.5-1.8c-2.3-1.2-4.8-2.3-7.3-3
		c-1.2-0.3-2.7,0-4,0.4c-4,1.4-7.9,3.1-11.3,5.7c-1.3,1-2.8,1.5-4.2,2.3c-3.2,1.7-6.3,3.7-9.6,5.2c-2.5,1.1-4.7,2.5-6.6,4.4
		C0,105.1,0,104.7,0,104.2z M52,49.7c-0.5-1.1-0.9-1.9-1.3-2.7c-0.4-0.9-0.7-1.9-1-2.9c-0.2-0.9,0.1-1.7,1-2
		c0.8-0.4,1.6-0.6,2.5-0.9c-0.4-0.7-1-1.5-1.4-2.3c-1.5-3.4-3.8-6.1-6.2-8.8c-1-1.1-1.6-1.3-2.9-0.7c-0.6,0.2-1.1,0.7-1.7,0.9
		c-0.3,0.1-0.7,0.1-1,0.1c0.2-0.3,0.3-0.7,0.5-0.9c0.5-0.4,1-0.7,1.6-1c-1.2-0.6-2.3-0.8-3.3-1.1c-0.5-0.2-1.3-0.2-1-1.2
		c0.5,0.2,0.9,0.3,1.3,0.4c1.7,0.5,3.5,1,5.2,1.5c0.5,0.2,1.1,0.4,1.5,0.9c2,2.4,4,4.7,5.7,7.2c1.8,2.6,3.1,5.6,4.7,8.3
		c1.2,2.1,1.5,4.4,1.3,6.7c0,0.4,0.1,0.9,0.2,1.3c1.1,2.3,3.1,3.8,5,5.3c0.2,0.2,0.5,0.2,0.8,0.4c-0.1-0.4-0.1-0.6-0.2-0.8
		c-0.5-0.9-0.9-1.8-1.4-2.7c-1.3-2.2-0.3-4.6,2.1-4.8c0.4,0,0.7,0,1.3-0.1c-1.4-3.4-2.8-6.6-4-9.8c-0.9-2.2-2-4.3-3.6-6.1
		c-0.8-1-1.6-2-3.2-1.3c-0.5,0.2-1.1,0.1-1.6,0c-0.2,0-0.4-0.2-0.8-0.5c1.1-0.2,1.9-0.3,2.8-0.5c0-0.2,0.1-0.3,0.1-0.5
		c-2.6-1.7-5.3-3.4-7.9-5.1c0-0.1,0.1-0.2,0.1-0.3c0.3,0.1,0.7,0.1,1,0.3c3,1.5,5.9,3.2,8.3,5.6c1.6,1.6,3.2,3.4,4.2,5.5
		c1.8,3.7,3.2,7.5,4.8,11.3c0.3,0.8,0.7,1.6,1.1,2.5c1.3-1.3,2.5-0.9,3.8,0.2c-0.3-1.6-0.5-3.1-0.8-4.4c-0.6-2.3-1.1-4.6-2.3-6.7
		c-1.1-2-2.1-4.1-3-6.3c-0.7-1.8-0.7-1.9-2.5-1.4c-0.6,0.1-1.2,0.3-1.7-0.5c0.7-0.2,1.4-0.3,2-0.5c0-0.1,0-0.2,0.1-0.3
		c-0.6-0.3-1.3-0.6-1.9-0.9c-1.8-0.8-3.6-1.6-5.3-2.4c-0.8-0.3-1.5-0.7-2.3-1c-1.1-0.4-2.4-0.6-3.3-1.3c-1.2-0.8-2.3-1.1-3.7-0.7
		c-1.1,0.3-2.3,0.3-3.1-0.9c-0.2-0.3-0.7-0.6-1-0.6c-1.4,0.2-3,0.1-4.3,0.8c-1.8,0.9-3.5,1.7-5.5,1.5c-1.8-0.1-3.1,0.8-4.2,2.3
		c-1.7,2.5-3.7,4.9-6.6,6c-3.3,1.4-6.1,3.4-8.3,6.2c-0.8,1-1.7,2.1-2.1,3.3c-0.4,1.1-0.4,2.5,0,3.6c1,2.8,1.8,5.8,4.5,7.6
		c0.3,0.2,0.5,0.5,0.8,0.8c0.7,0.9,1.3,1.8,2.3,2.5c2,1.4,4.2,2.1,6.6,2.3c0.5,0,1,0.3,1.5,0.5c0.5,0.2,0.9,0.6,1.4,0.6
		c1.5,0.1,3,0.2,4.5,0.1c1.3-0.1,2.6-0.5,3.9-0.9c0.4-0.1,0.7-0.6,0.8-1c0.5-2.2-0.9-4-1.3-6c-0.1-0.2-0.4-0.5-0.7-0.6
		c-1.9-0.7-3.8-1.5-5.7-2c-1.9-0.6-3.7-1.2-4.7-3.2c-0.6-1.2-1-2.5-1.5-3.7c-0.1-0.1,0-0.5,0.1-0.5c0.2,0,0.5,0,0.6,0.1
		c0.3,0.4,0.6,0.9,0.7,1.3c1.4,4.2,2.8,4.4,7.4,5.3c0.4-1.8-0.1-3.9,1.2-5.5c0.1,0,0.3,0,0.4,0.1c-0.2,2-0.4,4-0.6,5.7
		c1.5,0.9,2.9,1.7,4.4,2.6c1.3-0.7,2.9-1.6,4.4-2.5c-0.8-1-2-1.6-2.1-3c0.5,0.2,1,0.6,1.4,1c1.4,1.5,1.4,1.5,3.2,0.6
		c1.1-0.6,2.2-1.1,3.4-1.7c-1.8-2.8-4-5.1-6.3-7.3c-0.2-0.2-0.8-0.4-1-0.3c-1.6,1.1-3.5,1.3-5.3,1.5c-1.7,0.2-3.4-0.2-5.1-0.3
		c-0.2,0-0.4-0.6-0.6-0.9c0.3,0,0.6-0.2,0.9-0.1c1.8,0.1,3.7,0.4,5.5,0.2c1.3-0.1,2.7-0.1,3.9-1.5c-0.6-0.5-1.2-0.9-1.8-1.5
		c-0.6-0.5-1.1-1.1-0.8-2.4c0.7,0.7,1.1,1.3,1.7,1.8c1.2,1.1,2.5,2,3.7,3.1c2.8,2.3,4.9,5.3,7,8.1C49.8,49.2,50.7,49.4,52,49.7z
		 M65.5,75.1c0.4-0.1,0.9,0,1.1-0.2c0.9-0.8,2-0.7,3.1-0.7c1.2,0,2.2-0.6,2.9-1.5c0.6-0.7,1.1-1.5,1.8-2.2c0.8-0.9,0.9-2.5,0.5-3.5
		c-0.4-0.8-1.1-1.2-1.7-1.8c-0.9-1-1.9-0.9-3-0.9c-1.1,0-2.2,0.1-3.2,0c-3.5-0.4-7-1.4-10.6-1.3c-1.7,0-3.3,0-5,0.1
		c-0.9,0-1.7,0.2-2.6,0.4c-1.4,0.4-2.8,0.8-4.2,1.3c-0.2,0.1-0.5,0.4-0.6,0.7c-0.5,1.4-1.5,2.2-2.6,2.9c-0.8,0.5-1.3,1.1-1,2
		c0.2,0.9,0.7,1.6,1.8,1.7c1.3,0.2,2.3,1.4,2.5,2.6c0.1,0.3,0.3,0.7,0.6,0.8c1.4,0.6,2.8,1.2,4.3,1.6c1.6,0.5,3.2,0.7,4.9-0.1
		c0.6-0.3,1.5,0,2.3,0.2c1.7,0.4,3.3,0.3,4.6-0.8C62.6,75.3,63.8,74.5,65.5,75.1z M132.5,102.1c-0.4-0.7-0.6-1.3-1.1-1.7
		c-1.5-1.2-3.1-2.4-4.6-3.5c-0.2-0.2-0.7-0.2-1-0.1c-1.5,0.6-1.7,1.7-0.8,2.9c0.8,1.1,1.5,2.1,2.3,3.1c1.6,2.2,1.6,2.2,3.9,0.9
		c0.1-0.1,0.3-0.1,0.4-0.2C131.8,103.1,132.2,102.6,132.5,102.1z M54.1,50c2,0,2.7-0.6,2.1-2.5c-0.6-1.7-1.5-3.3-2.3-5
		c-0.1-0.1-0.2-0.3-0.4-0.3c-1-0.1-2-0.1-2.6,0.7c-0.3,0.5-0.3,1.4-0.1,2c0.5,1.4,1.3,2.6,1.8,4C53,49.7,53.4,50.1,54.1,50z
		 M62.1,52.7c0.2,0.6,0.4,1.1,0.6,1.7c0.5,1.1,1.3,2.2,1.7,3.4c0.3,1.1,0.9,1,1.6,0.8c0.4-0.1,0.7-0.3,1-0.5c1-0.5,1.2-0.9,0.8-1.9
		c-0.7-1.7-1.4-3.4-2.1-5.1c-0.1-0.2-0.2-0.4-0.3-0.5C64.2,49.9,62.3,51.1,62.1,52.7z M115.7,110.9c1.8-1.1,2.1-1.9,1-3.6
		c-1.2-1.8-2.6-3.4-4-5.1c-0.1-0.2-0.6-0.2-0.9-0.1c-1.2,0.6-1.6,1.8-0.7,3C112.6,107.1,114.1,109,115.7,110.9z M96.7,110.6
		c0.5-0.2,0.8-0.4,1.2-0.6c1.5-0.8,1.6-1.3,0.5-2.7c0-0.1-0.1-0.1-0.1-0.2c-1.5-1.3-2.9-2.6-4.4-3.8c-0.2-0.1-0.5-0.1-0.7-0.1
		c-1.4,0.4-1.8,1.7-0.7,2.9C93.8,107.7,95.3,109.1,96.7,110.6z M129.1,84.2c-1.1,1.6-1,2.8,0.5,3.7c1.4,0.9,2.9,1.6,4.2,2.5
		c0.7,0.4,1,0.3,1.3-0.3c0.8-1.4,0.5-2.6-1.1-3.4C132.5,85.8,130.8,85,129.1,84.2z M68.2,58.7c1.1,0.5,2.7,0.1,3.1-0.7
		c0.9-1.8,0-5.3-1.6-6.6c-0.6-0.5-1.2-0.9-1.8-0.4c-0.5,0.5-0.8,1.2-0.3,2c0.4,0.8,0.7,1.8,1.1,2.6C69.2,56.8,69.3,57.8,68.2,58.7z
		 M71.3,48.3c-0.1,0.1-0.3,0.2-0.4,0.3c0.5,1.7,0.9,3.4,1.4,5c0,0.2,0.7,0.2,1,0.2c0.2,0,0.4-0.5,0.3-0.7c-0.3-1.1-0.5-2.3-1-3.3
		C72.3,49.2,71.7,48.8,71.3,48.3z M72.1,47.7c-0.7-1.2-1.2-2.2-1.8-3.3C70.3,47,70.6,47.6,72.1,47.7z"/>
	<path class="st0" d="M31.9,61.1c-0.5,0-1.1,0-1.6-0.1c-1.8-0.4-2.5-1.4-2.5-3.2c0-0.8,0.2-1.6,0.4-2.4c0.6-1.6,2.5-2.4,4.3-1.8
		c0.3,0.1,0.6,0.2,0.9,0.3c1.1,0.4,1.2,0.8,0.7,1.9c-0.2,0.6-0.6,1.1-0.7,1.7c-0.1,0.7-0.2,1.6,0.1,2.3c0.4,1.3,0.4,1.3-0.9,1.3
		C32.4,61,32.1,61,31.9,61.1C31.9,61,31.9,61,31.9,61.1z M32.4,60c-0.2-1.7-0.2-1.8,0.7-4.3c0.1-0.3,0.1-0.8-0.1-0.9
		c-1.4-1.2-3.5-0.5-4,1.2c-0.2,0.5-0.2,1.1-0.2,1.6c0,1.5,0.7,2.3,2.3,2.4C31.5,60,31.9,60,32.4,60z"/>
</g>
</svg>
