<?xml version="1.0" encoding="utf-8"?>
<!-- Generator: Adobe Illustrator 19.2.1, SVG Export Plug-In . SVG Version: 6.00 Build 0)  -->
<svg version="1.1" id="Layer_1_copy_xA0_Image_1_" xmlns="http://www.w3.org/2000/svg" xmlns:xlink="http://www.w3.org/1999/xlink"
	 x="0px" y="0px" viewBox="0 0 119.8 111.5" style="enable-background:new 0 0 119.8 111.5;" xml:space="preserve">
<style type="text/css">
	.st0{fill:#512DA8;}
</style>
<g id="icon-scabies">
	<path class="st0" d="M89,100.9c-2.5-3.5-5-7-8-10.1c-1.6-1.7-3-3.6-4.5-5.5c-1.9-2.3-3.9-4.5-6.6-6c-0.2-0.1-0.5-0.3-0.7-0.4
		c-1.6-1.7-3.6-1.4-5.7-1.2c-2.4,0.2-4.9,0-7.4,0c-2.2,0-4.5,0-6.7,0c-0.9,0-1.8,0.1-2.7,0.1c-4.5,0-9,0.4-13.4,1.4
		c-2,0.4-4,1.2-6,1.7c-3.3,0.7-6.6,2.1-10.1,1.6c-1.1-0.2-2-0.4-2.4-1.5c-0.3-0.9,0.1-1.9,1-2.7c1.9-1.6,4.1-2.5,6.3-3.3
		c3.8-1.3,7.7-2.4,11.3-4.3c0.2-0.1,0.3-0.1,0.4-0.2c0.2-0.2,0.3-0.4,0.4-0.6c-0.2-0.1-0.5-0.3-0.7-0.2c-5.5,1.4-11.2,2.1-16.3,4.9
		c-1.9,1.1-3.9,1.8-5.9,2.6c-1.4,0.6-2.8,0.6-4-0.3c-1.3-0.9-2-2.3-1.4-3.8c0.4-1,1.1-2,2-2.6c1.1-0.9,2.5-1.4,3.8-2
		c0.7-0.3,1.3-0.6,1.9-1.2c-0.2,0.1-0.5,0.1-0.7,0.2c-2.9,0.9-5.8,1.9-8.8,2.8c-2.5,0.7-4.3-0.7-4.4-3.3c-0.1-2.4,1.2-3.6,3.1-4.6
		C4,62,4.9,61.5,5.8,61c0.4-0.2,0.6-0.4,0.3-1c-0.8-1.6-0.3-3.1,0.6-4.5c1.1-1.8,2.8-3.1,4.6-4.1c2.2-1.2,4.5-2.3,6.6-3.7
		c2.5-1.7,5.2-2.3,8.1-2.8c2.5-0.4,5-0.5,7.5-0.8c2-0.3,4-0.7,5.9-1.1c0.6-0.1,1.3-0.2,1.9-0.2c1.7,0.1,3.5,0,5.1,0.6
		c3,1.1,6.1,1.4,9.2,2.1c2,0.5,4,0.7,6,1.1c0.2,0,0.3,0,0.6,0c-0.2-0.6-0.2-1.1-0.5-1.6c-1.3-2.8-1-5.7-0.4-8.6
		c0.3-1.6,1.1-3.1,1.7-4.6c0.9-2.1,1.9-4.1,3-6.2c0.6-1.3,1.7-2,3.2-1.9c3,0.2,5.9,0.4,8.9,0.8c4.1,0.5,8.3,1,12.4,1.5
		c0.8,0.1,1.7-0.2,2.6-0.2c0.6,0,1.2,0.3,1.6,0.7c0.9,0.8,1.8,1.8,2.6,2.8c3.3,4.2,7.1,7.9,11.3,11.1c3.3,2.5,6.9,4.6,10.4,7
		c0.3,0.2,0.5,0.7,0.7,1.1c-0.1,0.1-0.2,0.2-0.3,0.3c-1.1-0.6-2.2-1.1-3.2-1.8c-5.8-3.4-11-7.6-15.6-12.4C99,32.9,97.6,31,96,29.1
		c-0.1-0.2-0.3-0.3-0.4-0.5c-1.1-1.5-2.5-2-4.4-1.8c-1.6,0.2-3.3-0.1-4.9-0.3c-4.4-0.5-8.9-1.1-13.3-1.6c-1.2-0.1-2.5-0.2-3.7-0.2
		c-1,0-1.8,0.5-2.2,1.4c-1.4,2.9-2.9,5.7-4.1,8.6c-0.5,1.2-0.6,2.5-0.7,3.8c-0.1,1.1-0.1,2.3-0.2,3.5c0,0.2,0,0.5,0,0.7
		c0.5,1.4,1,2.8,1.7,4.1c0.1-0.6,0.2-1.2,0.3-1.8c0.2-1.4,0.3-2.9,0.4-4.3c0-0.4-0.2-0.7-0.3-1.2c0.2-0.1,0.5-0.1,0.8-0.2
		c0.2-0.1,0.5-0.2,0.7-0.4c1.1-1.5,2.1-3.1,3.3-4.6c0.6-0.7,0.6-1.3,0.3-2.1c-0.2-0.5-0.4-1-0.5-1.5c0-0.2,0.3-0.5,0.4-0.8
		c0.2,0.2,0.5,0.3,0.7,0.5c0.1,0.1,0,0.2,0.1,0.3c0.4,1.4,0.6,1.5,2.1,1.5c2,0,4,0.1,6.1,0c2.3-0.2,4.5-0.6,6.9-0.9
		c0.3,0.5-0.4,0.7-0.8,0.9c-1.2,0.4-2.4,0.7-3.6,0.9c-2,0.2-4,0.3-5.9,0.5c-1.2,0.1-2.3,0.2-3.4,0.5c-0.4,0.1-0.8,0.4-1.1,0.7
		c-1.7,2.2-3.7,4.3-4.7,6.9c-0.2,0.6-0.4,1.3-0.4,2c0.1,2.2,0.2,4.4,0.4,6.6c0,0.6,0.2,1.2,0.4,1.8c0.4,1.2,1.5,1.6,2.5,0.8
		c0.5-0.4,1-1,1.2-1.6c0.4-1.5,0.6-3,0.8-4.5c0.1-0.7,0-1.3-1.1-1c-0.6,0.1-1.3,0-2,0c-0.1-0.1-0.1-0.3-0.2-0.4
		c0.3-0.2,0.5-0.5,0.8-0.6c0.2-0.1,0.5-0.2,0.8-0.1c2.2,0.4,2.9-1.3,4.1-2.9c-0.5-0.4-1.1-0.8-1.6-1.3c-0.2-0.2-0.4-0.5-0.5-0.9
		c-0.1-0.2,0.1-0.5,0.2-0.8c0.2,0.1,0.5,0.2,0.7,0.3c0.1,0,0.1,0.1,0.1,0.1c0.9,0.7,1.8,1.9,2.7,1.9c2.2-0.1,4.6-0.3,6.3-2.2
		c0.3-0.3,0.7-0.7,1-1c0.1-0.1,0.4-0.1,0.6-0.1c0,0.2,0.1,0.5-0.1,0.6c-0.4,0.6-0.9,1.1-1.4,1.6c-0.4,0.5-0.3,1,0.1,1.2
		c1.5,0.9,2.9,1.7,4.4,2.5c0.6,0.3,1.2,0.2,1.8-0.2c0.4-0.3,1-0.3,1.5-0.4c0.1,0.1,0.1,0.3,0.2,0.4c-0.5,0.4-1,0.7-1.8,1.2
		c1,1,1.9,2,2.9,3c2,1.8,4,3.6,5.9,5.5c1.2,1.2,2,2.8,3.2,4c1.7,1.8,3.6,3.4,5.5,5.1c0.3,0.3,0.5,0.7,0.7,1c-0.5,0.1-1,0.3-1.3,0.2
		c-0.7-0.3-1.4-0.7-1.9-1.2c-1.2-1.2-2.3-2.5-3.4-3.8c-2.1-2.3-4.2-4.6-6.3-6.9c-0.2-0.2-0.5-0.4-0.8-0.7c-0.9-0.9-1.6-0.7-1.9,0.5
		c-0.3,1.4-0.5,2.9-0.8,4.3c0,0.3-0.3,0.5-0.4,0.7c-0.2-0.2-0.5-0.4-0.5-0.6c-0.1-0.6,0-1.3,0-2.1c-4.3-0.9-8.5-2-13.2-1.5
		c1.3,0.9,2.5,1.6,3.6,2.5c1.9,1.5,3.8,3,5.7,4.5c0.3,0.3,0.9,0.3,1.3,0.3c1.8-0.2,3.3,0.3,4.8,1.3c1.3,1,2.7,1.9,4.1,2.9
		c0.7,0.5,1.5,1,2.2,1.5c0.3,0.2,0.7,0.2,1.3,0.3c-0.4-0.9-0.7-1.5-0.9-2.2c-0.1-0.3,0.1-0.7,0.1-1c0.2,0.2,0.5,0.4,0.6,0.7
		c0.3,0.5,0.4,1,0.7,1.5c0.6,0.9,1.4,1.3,2.5,1.5c2.4,0.3,4.8,0.7,7.2,0.5c0.7-0.1,1.3,0.1,2.1,0.2c-1.1-2.9-1.1-5.7-0.5-8.5
		c0.2-0.9,1-1.6,1.6-2.4c0.1-0.1,0.5-0.1,0.7-0.1c0,0.2,0.1,0.6,0,0.7c-1.7,2.3-1.6,4.8-1.2,7.4c0.1,0.4,0.1,0.8,0.3,1.2
		c0.3,1,0.8,1.7,2,1.6c2.3-0.1,4.1,1.1,6,2.2c0.4,0.2,0.4,1.1,0.5,1.7c-0.1,0.1-0.2,0.2-0.4,0.2c-0.4-0.3-0.7-0.7-1.1-0.9
		c-1.6-1.1-3.3-2.1-5.4-2c-2.2,0.1-4.4,0.3-6.6,0.1c-3.2-0.2-6.4-0.5-9.6-1.1c-1.1-0.2-2-1.3-2.9-2c-0.5-0.4-1-1-1.6-1.3
		c-1.6-0.9-3.2-1.8-4.8-2.7c-0.4-0.2-0.8-0.3-1.3-0.2c0.3,0.2,0.5,0.4,0.8,0.6c3.9,3.1,7.7,6.2,11.6,9.3c0.9,0.7,1.8,1.4,2.7,2.2
		c2.4,2.1,4.7,4.3,7,6.4c3.4,3.2,6.8,6.4,10.3,9.6c0.9,0.8,1.2,1.6,0.9,2.7c-2.2-2.1-4.3-4.1-6.4-6.1c-3.1-2.9-6.1-6-9.4-8.8
		C99.7,73,95.6,69.7,91.8,66c-0.9-0.9-2.1-1.4-3.1-2.1c-0.2-0.1-0.3-0.3-0.5-0.5c-0.7-0.6-1.4-1.2-2.2-1.7c-1.4-0.9-2.8-1.6-4.2-2.6
		c-1.2-0.9-2.3-2-3.4-3c-1.5-1.5-3.2-2.6-5.2-3.4c-0.9-0.3-1.6-1.1-2.4-1.6c-0.2,0.5-0.4,1-0.7,1.4c-0.9,1.3-2.1,1.9-3.3,1.6
		c-1.5-0.4-2.6-1.7-2.8-3.2c-0.1-0.8-0.2-1.6-0.3-2.6c-2.1-0.4-4.2-0.7-6.2-1.1c-2-0.4-4-0.8-6-1.3c-1.6-0.4-3.1-0.8-4.6-1.2
		c-1.1-0.2-2.1-0.4-3.2-0.5c-0.9-0.1-1.7-0.3-2.6-0.4c-0.3,0-0.7,0-1,0.1c-3.1,1.1-6.4,1.2-9.7,1.6c-3,0.4-6.1,0.8-9,1.7
		c-2.1,0.7-3.9,2.2-5.9,3.3c-1.9,1.1-3.9,2-5.7,3.2c-1.6,1.2-3.1,2.7-3,5c0,1.2,0.6,1.6,1.7,1.4c3.6-0.5,6.8-2.1,9.9-4
		c-0.5-0.8-1-1.6-1.4-2.3c-0.5-0.9-0.6-1.9-0.2-2.9c0.4-1.1,1.2-1.5,2.4-1.3c3.8,0.5,7.6,0.7,11.5,0c2.5-0.5,5.1-0.6,7.7-0.9
		c0.6-0.1,1-0.1,0.8-0.9c-0.1-0.4,0.1-0.8,0.2-1.2c0.1,0,0.2,0,0.4,0c0.1,0.3,0.3,0.6,0.3,0.9c0.1,0.7,0.4,0.9,1.1,0.9
		c2.3-0.2,4.7-0.4,7-0.7c1.5-0.1,2.9-0.4,4.4-0.5c0.3,0,0.6,0.3,0.9,0.4c-0.3,0.1-0.5,0.3-0.8,0.4c-2.1,0.3-4.2,0.7-6.4,0.9
		c-1.9,0.2-3.8,0.1-5.7,0.3c-2.6,0.3-5.3,0.6-7.9,0.9c-2.3,0.3-4.6,0.6-6.9,0.9c0,0.3,0.1,0.7,0.1,1.1c0,0.8-0.3,1.5-1.1,1.8
		c-0.8,0.3-1.7,0.7-2.6,0.9c-1.8,0.4-2.9-0.7-3.7-2.2c-0.2-0.4-0.5-0.9-0.7-1.3c-0.1,0-0.2,0-0.3,0c0,0.4-0.1,0.8,0,1.2
		c0.2,0.5,0.4,1,0.8,1.4c1.7,2,3.8,3.4,6.4,3.9c0.7,0.2,1.4,0.4,2.2,0.5c0.9,0.1,1.8,0.3,2.6,0.1c3.6-0.8,7.2-0.8,10.8-0.7
		c1.3,0,2.6,0.3,3.9,0.4c0.4,0,0.8,0,1.1-0.2c2.2-1.1,4.6-1.7,6.5-3.5c0.1-0.1,0.5-0.1,0.7-0.1c-0.1,0.3-0.1,0.6-0.2,0.7
		c-1.8,1.1-3.6,2.2-5.4,3.3c-0.7,0.4-1.4,0.6-2.3,0.9c1.3,1.3,2.7,2.2,4.2,3c3.6,2.1,7.5,3,11.7,2.7c1.1-0.1,2.1,0,3.2,0
		c1.8,0.1,3.3-0.6,4.7-1.5c0.5-0.3,0.8-1,1.1-1.5c0.2-0.3,0.4-0.7,0.7-0.8c0.2-0.1,0.6,0,0.8,0.1c0.1,0.1,0.1,0.5,0,0.7
		c-1,2.3-2.8,3.4-5.1,3.9c-3,0.6-6.1,0.5-9.2,0.5c-0.9,0-1.8-0.3-2.7-0.5c-0.4-0.1-0.8-0.1-1.4-0.2c0.3,0.5,0.4,0.8,0.6,1
		c1.4,1.4,2.7,2.9,4.2,4.2c1,0.9,2.1,1.7,3.1,2.5c0.2,0.2,0.3,0.6,0.4,0.9c-0.4,0-0.8,0-1-0.1c-2.5-2-4.9-3.9-7.3-6
		c-0.6-0.5-1-1.2-1.3-1.8c-0.6-1.6-1.9-2.3-3.2-3.1c-1.2-0.8-2.4-1.5-3.5-2.4c-1.3-1.1-2.7-1.8-4.5-1.9c-2.3-0.1-4.6-0.1-6.9-0.1
		c-0.8,0-1.3,0.3-1.1,1.2c0.3,1.4,0.4,2.9,0.8,4.3c0.5,1.4,1.3,2.7,1.9,4.1c0.6,1.4,0.9,2.9,1.6,4.2c0.7,1.4,1.6,2.7,2.5,4.1
		c0.1,0.2,0.4,0.3,0.6,0.3c1.7-0.2,3.3-0.4,5.1-0.6c-0.3-2-0.6-3.9-1-5.8c-0.4-2-0.9-4-1.4-6c-0.1-0.5-0.5-1.1,0.2-1.3
		c0.2-0.1,0.8,0.5,0.9,0.9c1.2,3.2,2.1,6.4,2.3,9.8c0.2,3.1,0.2,2.5,2.6,2.4c2.3,0,4.7-0.2,7-0.2c1.3,0,2.6,0.4,3.9,0.3
		c2.5-0.1,5-0.3,7.6-0.5c0.7,0,1.5,0.1,2.1,0c0.6-0.2,1.3-0.5,1.7-1c1.7-1.9,2.8-4,3.1-6.6c0-0.4,0.1-0.8,0.2-1.1
		c0.1-0.3,0.3-0.5,0.5-0.8c0.1,0.3,0.4,0.6,0.4,0.9c-0.1,1.1-0.2,2.2-0.5,3.3c-0.8,2.7-2.3,4.9-4.6,6.7c0.2,0.2,0.4,0.3,0.5,0.5
		c3.2,1.8,5.6,4.5,7.9,7.3c1.9,2.4,4.1,4.5,6,6.9c1.8,2.2,3.4,4.5,5,6.8c0.4,0.6,0.8,1.2,1.2,1.8C89.9,100.9,89.5,100.9,89,100.9z
		 M22.4,67.9c0.2,0,0.3-0.1,0.5-0.1c0.2,0.6,0.5,1.2,0.7,1.9c0.2,0.5,0.4,0.8,1.1,0.6c0.8-0.2,1.6-0.3,2.4-0.5
		c1.8-0.4,3.7-0.8,5.5-1.2c0.6-0.1,0.9-0.4,0.7-1.1c-0.4-0.9-0.7-1.8-1-2.7c-0.9-2.4-0.9-2.4-3.3-1.6c-2.5,0.7-5.1,1.3-7.6,2
		c-1.5,0.4-3.1,0.6-4.4,1.7c-1.6,1.4-3.4,2.3-5.4,3.1c-1.2,0.5-2.4,1.3-3.4,2.2c-1.1,1-1.1,2-0.4,3.1c0.7,1,1.8,1.5,3,1
		c1.6-0.6,3.1-1.4,4.7-2.1c0.7-0.3,1-0.8,0.9-1.5c-0.1-0.7-0.3-1.4-0.4-2.1c0-0.2,0-0.3,0.1-0.7c1.2,0.8,0.8,2.2,1.5,3.2
		c1.6-0.7,3.3-1.4,4.9-2.1c0.2-0.1,0.3-0.5,0.3-0.7c0-0.5-0.2-0.9-0.3-1.4C22.4,68.6,22.4,68.2,22.4,67.9z M1.2,66.9
		c0,1-0.4,2,0.8,2.2c0.8,0.2,1.6,0.2,2.3,0c2-0.6,4-1.3,5.9-1.9c1.1-0.4,1.4-1,1.2-2.1c-0.2-0.9-0.4-1.7-0.5-2.6
		c0-0.2,0.4-0.5,0.6-0.7c0.2,0.2,0.5,0.4,0.5,0.7c0.2,0.8,0.2,1.6,0.4,2.4c0.2,1.2,0.3,1.3,1.6,0.8c1.6-0.6,3.2-1.2,4.8-1.5
		c0.9-0.2,1.1-0.7,0.9-1.5c-0.1-0.6-0.4-1.2-0.6-1.7c-0.1-0.2,0.1-0.5,0.2-0.8c0.2,0.1,0.5,0.2,0.6,0.4c0.3,0.4,0.5,0.9,0.6,1.4
		c0.5,1.2,1,1.5,2.2,1.2c2.6-0.8,5.3-1.5,7.9-2.3c0.3-0.1,0.4-0.5,0.6-0.7c-0.3-0.2-0.6-0.4-0.9-0.4c-0.9,0-1.8,0.3-2.7,0.1
		c-2.6-0.6-5.3-0.9-7.7-2.3c-0.2-0.1-0.7-0.2-0.9,0c-2.6,2-5.8,2.7-8.8,3.4c-2.5,0.5-4.7,1.5-6.8,2.6C2.1,64.2,0.8,65.1,1.2,66.9z
		 M87.5,52.3c0.8,0.1,1.2,0,1.3-0.8c0.1-0.6,0.4-1.2,0.6-1.8c0.1-0.3,0.2-0.6,0.1-0.8c-1.2-1.3-2.4-2.6-3.7-3.9
		c-0.1-0.1-0.3,0-0.4-0.1c-2.1-0.8-4.3-1.5-5.8-3.4c-0.1-0.1-0.5-0.2-0.7-0.1c-1.3,0.3-2.6,0.6-3.9,0.9c-1.7,0.4-3,1.2-3.3,3.1
		c-0.1,1-0.2,2-0.4,2.9c-0.2,1.2,1.4,3,2.6,3.1c0.1,0,0.3,0,0.4,0c2.2-0.7,4.4-0.4,6.6-0.1C83.2,51.6,85.5,52,87.5,52.3z M37.8,77.3
		c-0.9-1.7-1.7-3.3-2.5-4.9c-0.3-0.5-0.6-0.8-1.3-0.5c-1.4,0.7-2.8,1.3-4.2,1.8c-2.4,0.8-4.8,1.5-7.2,2.3c-2.1,0.7-4.2,1.5-5.9,3.1
		c-0.3,0.3-0.6,1-0.5,1.4c0.1,0.3,0.8,0.6,1.3,0.6c1.9,0,3.8,0.2,5.7-0.5c1.2-0.5,1.3-0.4,0.9-1.8c-0.1-0.3,0-0.6,0-0.9
		c0.1,0,0.3,0,0.4-0.1c0.2,0.5,0.6,0.9,0.7,1.4c0.2,0.7,0.5,0.8,1.1,0.6c1.1-0.4,2.1-0.7,3.2-1.2c0.2-0.1,0.4-0.6,0.4-1
		c0.1-0.7,0-1.3,0-2.3c0.4,0.4,0.5,0.5,0.6,0.7c0.2,0.7,0.2,1.7,0.7,1.9c0.5,0.3,1.4,0,2.2-0.1C34.8,77.8,36.4,77.6,37.8,77.3z
		 M18.1,50.4c0.5,0.7,0.8,1.1,1,1.5c1.3,2.7,3.1,2.5,5.4,1.2c0.3-0.2,0.5-0.9,0.5-1.4c0-0.5-0.3-0.8-1-0.9c-1.5-0.1-2.9-0.3-4.3-0.4
		C19.2,50.4,18.7,50.4,18.1,50.4z"/>
</g>
</svg>
