<?xml version="1.0" encoding="utf-8"?>
<!-- Generator: Adobe Illustrator 19.2.1, SVG Export Plug-In . SVG Version: 6.00 Build 0)  -->
<svg version="1.1" id="Layer_1" xmlns="http://www.w3.org/2000/svg" xmlns:xlink="http://www.w3.org/1999/xlink" x="0px" y="0px"
	 viewBox="0 0 200 196.1" style="enable-background:new 0 0 200 196.1;" xml:space="preserve">
<style type="text/css">
	.st0{fill:#7B1FA2;}
</style>
<g id="icon-sinuspain">
	<path class="st0" d="M0,196.1c0.9-2.7,1.9-5.3,2.7-8.1c1.4-4.7,2.5-9.4,3.9-14.1c1.4-4.9,3-9.7,4.4-14.6c1.4-4.8,2.6-9.7,3.8-14.5
		c0.7-2.9,1.6-5.8,2.1-8.8c0.4-2.9,1-5.6,2.1-8.3c0.3-0.7,0.4-1.4,0.5-2.1c0.8-6.2,0.8-12.3-0.9-18.5c-1-3.6-1.2-7.4-1.8-11.1
		c-0.3-1.9-0.8-3.7-1-5.5c-0.3-3.3-0.6-6.6,2.6-8.8c1.6-1.1,3.2-2.3,4.9-3.4c2.8-1.8,5.8-3.4,8.5-5.3c3.5-2.3,6.9-4.7,10.8-6.4
		c-0.2-0.6-0.3-1.3-0.6-1.9c-1.1-2.8-1.6-5.8-1.7-8.8c-0.1-2.4-0.7-4.7-0.9-7.1c-0.3-3.6-0.5-7.3,0.5-10.8c0.8-2.9,1.6-5.9,2.9-8.7
		c1.7-3.7,4-7,6.7-10c3.3-3.6,6.9-6.9,10.8-9.7c4.6-3.4,9.6-6.1,15.2-7.6c2.2-0.6,4.3-1.2,6.5-1.8C82.3,0,82.8,0,83.2,0
		c3.8,0.1,7.5,0.2,11.3,0.5c1.7,0.1,3.4,0.6,5,1c4.1,0.9,7.7,2.8,11.1,5c2.9,1.8,5.5,3.9,8,6.2c1.4,1.3,2.3,3,3.2,4.7
		c1.9,3.5,3.8,7.1,5.5,10.7c2.4,5.4,4.8,10.7,6.9,16.2c2.5,6.8,4.7,13.6,6.8,20.5c2.2,7.4,4.1,14.9,6.1,22.3
		c1.3,4.9,2.5,9.8,3.7,14.8c0.3,1,0.8,1.9,1.2,2.8c1.9,4.2,3.6,8.4,5.6,12.5c1.9,3.7,4.1,7.2,6.2,10.7c1.2,2,2.5,3.9,4,5.7
		c1.9,2.3,4.1,4.5,6.1,6.8c2.4,2.8,5.4,5,8.2,7.4c2.2,1.9,4.2,4.3,6,6.7c3.8,4.9,6.4,10.6,9,16.2c0.9,2.1,1.8,4.2,2.3,6.4
		c0.6,2.4,0.4,4.9-0.4,7.3c-0.9,2.9-1.5,6-2.3,9c-0.2,0.9-0.6,1.7-0.9,2.6c-0.5,0-1,0-1.6,0c0.4-1.9,0.8-3.7,1.2-5.6
		c0.7-2.6,1.5-5.2,2.2-7.8c0.5-2,0.7-3.8-0.6-5.7c-1.7-2.4-4.5-3.5-7.4-3c-3.9,0.7-7.5,2.1-10.4,4.8c-3,2.7-5.7,5.7-7.9,9.1
		c-0.8,1.2-1.8,2.2-2.6,3.3c-1.1,1.6-2,3.2-3,4.9c-0.7,0-1.5,0-2.2,0c1.5-2.6,2.9-5.4,5.2-7.5c0.2-0.2,0.4-0.5,0.6-0.8
		c2-3.5,4.8-6.3,7.5-9.2c0.5-0.6,1-1.2,1.7-1.6c2.8-1.9,5.7-3.5,9-4.2c2.2-0.5,4.4-1,6.6-0.1c0.6,0.3,1.3,0.5,2.1,0.8
		c-0.2-0.6-0.3-1-0.5-1.4c-2-4-4-8.1-6.2-12.1c-2.3-4.1-5.2-7.9-8.8-11c-1.5-1.3-3.3-2.2-5.1-3.2c-1-0.5-2.1-0.8-3.2-1.1
		c-0.4-0.1-0.9,0-1.4,0.1c-0.6,0.1-1.2,0.3-1.8,0.5c-0.6,0.2-1.2,0.2-1.7,0.4c-2,1.1-4,2.4-6,3.5c-4.1,2.1-8.2,4.2-12.3,6.2
		c-3.7,1.8-7.4,3.8-11.3,5.4c-2.6,1-5.4,1.4-8.1,2.1c-3,0.8-5.8,0.3-8.6-0.9c-1.3-0.5-2.5-1.1-3.9-1.8c-0.7,1.7-1.4,3.3-2.1,4.8
		c-0.5,1-0.8,2.2-1.5,2.9c-2.3,2.3-4.7,4.5-7.3,6.5c-2.7,2.2-5.6,4.2-8.3,6.4c-1.3,1-2.4,2.4-3.7,3.4c-2.5,1.7-5.1,3.3-7.6,4.8
		c-2.8,1.7-5,3.9-6.5,6.9c-0.7,0-1.3,0-2,0c1.4-2,2.7-4,4.3-5.9c0.6-0.7,0.9-1.3,0.9-2.2c0.1-4.3,0.1-8.6,0.5-12.9
		c0.3-2.9,1-5.9,1.7-8.7c0.9-3.4,2.6-6.5,5.1-9.2c-0.5-0.3-1-0.5-1.3-0.7c-1.7-1-3.6-1.7-4.9-3.1c-3.6-3.6-4.4-8.3-3.8-13.2
		c0.2-1.6,0.7-3.3,0.7-4.9c0-1.4,0.4-2.6,1-3.8c0.8-1.9,1.6-3.7,2.3-5.5c-3.1,0.6-6.3,1.1-9.3,1.8c-3,0.6-5.7,0.1-8.2-1.6
		c-0.9-0.6-1.9-1-3-1.4c-1.2-0.5-2.4-0.5-3.5,0.4c-0.6,0.5-1.2,0.9-1.8,1.3c-1.1,0.8-2.3,1.7-3.8,1.5c-1.3-0.2-2.5-0.8-3.8-1
		c-0.8-0.2-1.6-0.2-2.4,0c-0.9,0.2-2.1,0.3-2.6,1c-1.2,1.5-2.2,3.3-3.2,5c-1.4,2.5-2,5.3-2.6,8.1c-0.8,3.9-1.4,7.8-1.4,11.8
		c0,3.5-0.4,7-0.6,10.5c-0.2,3.6-0.6,7.2-0.7,10.9c-0.1,6.5,0,12.9,0,19.4c0,0.4,0,0.7,0,1.3c2.1-2.4,4.2-4.5,5.2-7.3
		c0.9-2.4,1.6-4.9,2.3-7.4c1.6-5.8,3.1-11.6,4.6-17.4c0.5-1.8,0.8-3.7,1.3-5.5c0.2-0.6,0.7-1.1,1.2-1.6c0.2-0.1,0.8,0.1,1,0.3
		c0.1,0.1,0.1,0.6,0,0.9c-0.4,1.1-1.1,2.2-1.3,3.3c-0.8,3.4-1.3,6.9-2.2,10.3c-1.2,4.6-2.8,9.2-4,13.9c-1,4.1-3,7.5-5.9,10.6
		c-0.3,0.3-0.4,0.7-0.7,1c-1.1,0-2.2,0-3.3,0c0.2-9.8-0.4-19.7,0.6-29.5c0.6-5.6,0.6-11.3,0.9-17c0.1-1.6,0.2-3.2,0.5-4.8
		c0.3-1.8,0.7-3.6,1.1-5.4c0.7-3.8,2.1-7.4,4.4-10.5c1.1-1.5,1.8-3.1,1.8-4.9c0.1-2.2,0.1-4.4,0-6.5c-0.1-4.8-0.3-9.5-0.5-14.3
		c0-0.3-0.1-0.6-0.2-0.8c-0.9-2.4-0.9-2.4,1.2-3.8c0.2-0.1,0.3-0.2,0.5-0.3c1.9-1.3,3.8-2.7,5.7-4c0.3-0.2,0.7-0.5,1.1-0.6
		c0.3,0,0.8,0.1,0.9,0.3c0.1,0.3,0,0.8-0.2,1.1c-0.2,0.3-0.5,0.4-0.8,0.6c-0.7,0.5-1.4,1-2.2,1.6c0,0.1,0.1,0.2,0.1,0.4
		c0.9,0.3,1.9,0.7,2.9,1c0.2,0.1,0.6-0.2,0.7-0.5c0.7-1.2,1.4-2.4,2.1-3.6c0.3-0.6,0.3-1.1-0.4-1.6c-0.6-0.4-1-1-1.4-1.6
		c-0.6-1-1-2.1-1.7-3c-0.7-0.9-1.6-1.9-2.9-1.3c-3.2,1.3-6.7,2.2-9.5,4.4c-0.4,0.3-0.7,0.7-1.2,0.8c-0.4,0.1-0.9,0-1.3,0
		c0.1-0.3,0.2-0.7,0.4-1c0.1-0.2,0.4-0.4,0.6-0.6c3.1-2.2,6.7-3.4,10.2-4.7c1.2-0.5,2.5-0.5,3.5,0.6c0.9,1,1.6,2,2.4,3.1
		c0.4,0.6,0.8,1.2,1.1,1.9c0.2-1.2,0.6-2.6,0.1-3.3c-1.1-1.3-1.1-3.1-2.4-4.3c-0.3-0.2-0.5-0.6-0.6-0.9c-0.6-1.9-1.8-3.4-3.3-4.6
		c-1.1-0.9-2.3-1.3-3.7-0.7c-1.3,0.6-2.6,1.1-3.7,1.9c-1.3,0.8-2.5,1.9-3.7,2.9c-1.1,0.9-2,1.9-3.2,2.5c-2.9,1.7-5.3,3.8-7.7,6
		c-0.4,0.4-0.7,1.1-0.7,1.7c-0.1,1,0,1.9,0.1,2.9c0,0.5,0.2,1.2-0.6,1.1c-0.3,0-0.7-0.7-0.8-1c-0.1-1.2-0.1-2.4,0-3.7
		c0-0.4,0.1-1,0.3-1.2c1.6-1.6,3.1-3.2,4.9-4.5c2.8-1.9,5.6-3.8,8.1-6.1c1.8-1.6,3.8-3.1,6.2-3.8c1.4-0.4,2.7-0.6,4.1,0.2
		c2.3,1.3,3.8,3.3,4.9,5.7c0.4,1,1.1,1.8,1.8,3c0-2.2,0-4,0-5.9c0-0.9-0.3-1.7-1-2.2c-1.5-1.2-3-2.3-4.5-3.4
		c-2.2-1.6-4.4-3.2-6.5-4.9c-0.6-0.5-1.1-0.7-1.8-0.4c-1.1,0.5-2.1,0.7-2.9,2c-0.9,1.5-2.6,2.6-4,3.8c-4.1,3.3-8.3,6.6-12.3,10
		c-1.2,1-2.5,2.1-2.4,4c0,1.4,0.1,2.8,0,4.2c0,0.3-0.4,0.6-0.7,0.9c-0.2-0.3-0.6-0.5-0.6-0.8c-0.2-1.1-0.3-2.3-0.4-3.4
		c-0.1-1.8-0.1-3.5,1.7-4.6c0.4-0.3,0.8-0.5,1.2-0.8c3.6-2.8,7.2-5.7,10.8-8.6c1-0.8,2-1.8,3-2.7c-0.1-0.1-0.1-0.1-0.2-0.2
		c-1,0.6-2,1.3-3,1.9c-2.9,1.8-5.7,3.8-8.7,5.5c-2.3,1.2-4.4,2.5-6.2,4.4c-0.9,0.9-1.2,1.9-1.2,3.2c-0.2,4.7,1.3,9.3,1.8,13.9
		c0.6,5.5,2.6,10.8,2.6,16.5c0,3.1-0.3,6.2-0.8,9.2c-0.5,3.2-2,6.2-2.5,9.5c-0.4,3.2-1.3,6.4-2.1,9.6c-1.2,4.9-2.5,9.8-3.9,14.7
		c-1.3,4.7-2.9,9.4-4.2,14.1c-1.5,5-2.8,10.1-4.2,15.2c-0.6,2.2-1.5,4.3-2.2,6.5C1.2,196.1,0.6,196.1,0,196.1z M83.3,103.7
		c-0.4,0.6-0.7,1.1-1,1.4c-0.7,0.8-1.6,1.5-2.3,2.3c-2.2,2.7-4.7,5.1-7.4,7.2c-0.5,0.4-1.2,0.7-1.8,1c0.4,0.5,0.8,1.1,1.2,1.6
		c1.2,1.6,2.3,3.3,3.7,4.7c1.6,1.6,3.6,3.1,6,2.8c2.2-0.2,4.3-0.9,6.4-1.7c3.8-1.4,7.1-3.7,10.3-6.2c3.9-3,7.6-6.3,10.4-10.4
		c1-1.6,2-3.2,3.2-4.6c2.3-3.1,4.7-6.1,6.4-9.5c1.6-3.2,2.9-6.4,1.8-10.1c-1.2-3.9-2.3-7.7-3.6-11.6c-1.2-3.7-2.5-7.3-3.8-10.9
		c-0.4-1.3-1.1-2.1-2.7-2c-1.9,0.1-3.8-0.6-5-2.2c-1.8-2.5-4.4-4.1-6.9-5.6c-2.7-1.5-5.6-2.7-8.4-3.9c-2-0.9-4-2-6.2-2.6
		c-5.1-1.4-10.2-2.6-15.3-3.8c-5.6-1.3-11.2-2.4-17.2-2.6c0.3-1.3,0.5-2.5,0.7-3.8c0.3-2,1.3-3.6,2.9-4.9c0.2-0.1,0.4-0.3,0.5-0.5
		c0.4-0.6,0.3-1.2-0.2-1.7c-0.5-0.5-1.1-0.5-1.6,0c-1,1.1-2.2,2.2-2.7,3.6c-0.9,2.2-1.3,4.6-1.9,7c-0.1,0.6-0.4,1-1,1.2
		c-2.2,1-4.3,2.2-5.4,4.5c-1,2.1-1.8,4.2-1.5,6.6c0.3,1.9,0.5,3.7,0.7,5.6c0.3,3.5,0.7,6.9,2,10.3c0.8,2,2.3,3.5,4.5,3.3
		c0.7-0.1,1.3,0.1,2,0.1c2.1,0,4.2,0,6.4,0c-0.7-0.8-1.3-1.5-1.8-2.2c-0.2-0.3-0.1-0.7-0.2-1.1c0.4,0,0.9-0.1,1.2,0.2
		c0.5,0.4,0.8,1,1.2,1.6c1.4-1.2,2.6-2.1,3.6-3.1c3.1-3,7.1-4.2,11-5.8c1.1-0.4,2.3-0.4,3.5-0.5c0.2,0,0.6,0.4,0.7,0.7
		c0,0.1-0.4,0.6-0.6,0.6c-2.4-0.1-4.5,1-6.6,2c-0.5,0.2-1.2,0.3-1.6,0.7c-2.3,2.1-4.5,4.4-6.8,6.6c-0.2,0.2-0.4,0.6-0.5,0.8
		c1.1,0.6,2.4,0.9,3,1.7c0.8,1.1,1.9,1.1,2.9,1.4c0.5,0.1,1.1,0.2,1.6,0.4c2.6,0.7,4.9,0.3,6.9-1.6c1.4-1.3,2.7-2.7,4.1-3.9
		c0.3-0.3,0.9-0.2,1.3-0.2c0,0.4,0.1,0.9-0.1,1.1c-1.6,1.6-3.2,3.2-4.8,4.7c-2,1.8-4.4,2.1-6.9,1.8c-1.2-0.2-2.5-0.2-3.3-0.3
		c-0.8,0.7-1.3,1.3-1.9,1.6c-1.1,0.6-2.3,1-3.4,1.5c-0.7,0.3-1.2,0.6-0.8,1.5c0.2,0.4,0.2,0.9,0.2,1.4c0,5,0,10.1,0.1,15.1
		c0,0.4,0.5,1.1,0.9,1.2c0.9,0.3,2,0.3,3,0.3c0.5,0,1.2-0.2,0.9-1.1c-0.1-0.3,0.4-1,0.7-1c0.9-0.1,1.9-0.2,2.6,0.1
		c1.2,0.6,2.4,0.5,3.6,0.4c0.4,0,1-0.5,1.1-0.9c0.2-1.5,0.1-3-1.2-4c-0.4-0.3-0.9-0.4-1.2-0.7c-0.2-0.2-0.3-0.5-0.5-0.8
		c0.3-0.1,0.5-0.4,0.8-0.4c0.2,0,0.5,0.1,0.7,0.2c2.6,1.2,3.3,4.3,2.5,6.5c-0.2,0.5-0.8,1-1.2,1.1c-1.2,0.3-2.5,0.3-3.7,0.4
		c-1.4,0-2.7-0.1-3.9,1c-0.4,0.4-1.3,0.4-2,0.4c-0.5,0-0.9-0.2-1.4-0.3c-0.3,0-0.7,0-0.9,0.2c-0.1,0.1,0,0.6,0.1,0.8
		c0.1,0.4,0.4,0.8,0.6,1.2c0.9,1.7,1.8,3.4,2.6,4.8c1-0.1,1.9-0.3,2.8-0.4c0.2,0,0.5-0.1,0.7-0.3c1.7-1.8,3.9-1.6,5.9-1.3
		c3,0.5,5.9,0.8,8.9,0.8C81.6,103.4,82.3,103.6,83.3,103.7z M122.3,88.4c-0.1,0-0.2,0-0.3,0c-0.1,0.2-0.2,0.4-0.3,0.7
		c-0.9,3.1-2.5,5.8-4.4,8.4c-3.2,4.4-6.4,8.8-9.6,13.2c-0.7,1-1.5,2.1-2.4,2.9c-2.9,2.4-5.9,4.7-8.9,7c-0.7,0.5-1,1.1-1,2
		c0.1,2.2,0.1,4.3,0.1,6.5c0,0.3-0.3,0.7-0.4,1c-0.4-0.2-1-0.3-1.2-0.7c-0.3-0.4-0.2-1-0.3-1.5c0-1.3,0-2.6,0-3.9
		c0-0.8-0.4-1.1-1.1-0.7c-1.4,0.6-2.8,1.2-4,2c-0.7,0.4-1.3,1.1-1.7,1.8c-1,2-1.7,4.1-2.6,6.2c-1.1,2.6-0.2,4.3,2.6,5.4
		c1.4,0.6,2.9,0.8,4.4,1.1c2.3,0.4,4.6,0.7,6.9,1.2c0.4,0.1,0.7,0.6,1.1,0.9c-0.4,0.3-0.7,0.6-1.1,0.8c-0.2,0.1-0.6,0-0.9-0.1
		c-1.3-0.2-2.7-0.3-3.9-0.6c-2.4-0.6-4.9-1.2-7.2-1.9c-1-0.3-1.8-0.9-2.9-1.5c-0.8,3.5-1.2,6.9,0.6,10.1c0.8,1.6,1.4,3.3,3.1,4.2
		c1.8,1,3.7,2,5.5,3c1.3,0.7,1.4,1.2,0.4,2.3c-1.7,1.7-3.1,3.7-4,5.9c-1.2,3-2.1,6.1-2.4,9.3c-0.2,1.8-0.6,3.6-0.6,5.4
		c-0.1,2.8,0,5.6,0,8.5c0,0.3,0.1,0.5,0.1,0.9c3.5-1.8,6.9-3.6,9.6-6.4c1.6-1.6,3.4-3.1,5.1-4.6c3.2-2.6,6.6-5,9.8-7.6
		c1.5-1.2,2.9-2.6,3.7-4.5c0.7-1.8,1.5-3.5,2.2-5.2c0.5-1.1,2.4-1.6,3.3-1c0.9,0.6,1.8,1.2,2.8,1.7c1.9,1,3.9,1.4,6,1.2
		c2.2-0.2,4.5-0.6,6.5-1.5c4.6-1.9,9.2-4,13.7-6.1c3.9-1.9,7.8-4,11.7-6c0.3-0.1,0.5-0.3,0.7-0.5c0-0.1-0.1-0.2-0.1-0.4
		c-3.4,0.2-6.9,0.4-10.3,0.6c-3.8,0.3-7.5,0.7-11.3,0.9c-4.2,0.1-8.5,0-12.8,0c-0.3,0-0.7-0.4-0.7-0.6c0-0.3,0.3-0.7,0.6-0.9
		c0.2-0.1,0.6-0.1,0.9-0.1c2.3,0,4.5,0.1,6.8,0c3.3-0.1,6.6-0.2,9.9-0.5c3.5-0.2,7.1-0.7,10.6-0.8c3-0.1,5.9,0,8.9,0
		c0.4,0,0.8,0,1.2-0.2c1.6-0.9,3.2-1.9,5-3c-0.8-0.5-1.6-0.9-2.4-1.4c-2.9-2-6-3.7-8.6-6c-3.8-3.2-7.3-6.8-11-10.2
		c-2.7-2.5-5.4-4.9-7.6-8c-2.1-3.1-4.6-5.9-6.8-8.9c-1.8-2.5-3.4-5.1-5-7.7c-1.4-2.3-2.6-4.7-3.9-7c-0.4-0.7-0.4-1.5-0.7-2.3
		c-0.2-0.7-0.6-1.3-0.9-2C122.6,89,122.5,88.7,122.3,88.4z M47.4,125.8c2-0.9,3.8-0.9,5.8-0.1c1.5,0.6,3.1,1,4.6-0.2
		c0.9-0.8,1.8-1.5,2.8-2.1c0.5-0.3,1.2-0.6,1.8-0.6c2.4-0.2,4.5,0.8,6.3,2.2c1.3,1,2.6,1.5,4.2,1.4c1.4-0.1,2.8-0.3,4.1-0.4
		c0.5-0.1,0.9-0.2,1.6-0.4c-0.4-0.4-0.5-0.5-0.7-0.5c-3-1.4-5.1-3.7-6.4-6.7c-0.5-1.2-1.5-1.8-2.7-2.2c-1.9-0.5-3.1-2.1-3.1-4
		c0-0.8-0.3-1.1-1-1.4c-0.5-0.2-1.1-0.7-1.3-1.2c-1.5-3-3-6-4.5-9c-0.5-1-1-1.9-1.5-3c-1.3,1.5-2.5,3-3.7,4.5
		c-1.4,1.7-3,2.9-5.3,2.5c-0.4-0.1-0.8-0.1-1-0.2C47.4,111.5,47.4,118.6,47.4,125.8z M80,105.5c-2.1-0.4-3.7,0.1-5.4,0.9
		c-2.2,1-4.4,2.1-6.7,3.1c-1.3,0.6-1.6,1-1.2,2.4c0.2,0.7,0.5,1.4,0.9,2c0.5,0.8,1.3,1.2,2.3,0.7c0.7-0.3,1.3-0.6,2-0.9
		c2.6-1.3,4.1-3.7,6-5.7C78.6,107.2,79.2,106.4,80,105.5z M75.7,104.6c-0.3-0.2-0.5-0.3-0.7-0.3c-1.9-0.2-3.9-0.4-5.8-0.4
		c-0.6,0-1.4,0.2-1.8,0.6c-0.8,0.7-1.6,1-2.6,0.9c-0.7-0.1-1.1,0.2-0.9,1c0.2,0.9,0.4,1.8,0.7,2.7c0.2,0.7,0.7,0.6,1.1,0.3
		c2-1.1,4-2.1,6-3.1C73,105.7,74.3,105.2,75.7,104.6z M59.9,75.5c-2.5-2.1-2.5-2.1-4-5.3c-0.1-0.2-0.6-0.4-0.9-0.4
		c-1.8-0.1-3.7-0.2-5.5-0.2c-0.4,0-0.7,0-1.4,0c2.9,2.1,5.6,3.9,8.1,5.8C57.4,76.3,58.5,75.7,59.9,75.5z M49.2,102.8
		c1.7,0,2.5-1,3.2-2c0.2-0.3,0.1-1.1-0.2-1.3c-1.2-1.2-2.4-1.2-3.8-0.3c-0.4,0.3-0.9,0.5-1.3,0.8c-0.3,0.3-0.8,0.7-0.7,1
		c0.1,0.5,0.5,1,0.9,1.2C47.9,102.6,48.7,102.6,49.2,102.8z M57.4,69.5c-0.1,0.6-0.1,0.7-0.1,0.8c0.1,1.4,2.4,4.1,3.8,4.3
		c0.1,0,0.3,0,0.4-0.1c0.4-0.3,1.1-0.6,1.1-1c0.2-0.9,0.1-2-0.8-2.4C60.4,70.4,58.9,70,57.4,69.5z"/>
</g>
</svg>
