<?xml version="1.0" encoding="utf-8"?>
<!-- Generator: Adobe Illustrator 19.2.1, SVG Export Plug-In . SVG Version: 6.00 Build 0)  -->
<svg version="1.1" id="Background_copy_2_xA0_Image_1_"
	 xmlns="http://www.w3.org/2000/svg" xmlns:xlink="http://www.w3.org/1999/xlink" x="0px" y="0px" viewBox="0 0 97.2 97.3"
	 style="enable-background:new 0 0 97.2 97.3;" xml:space="preserve">
<style type="text/css">
	.st0{fill:#512DA8;}
</style>
<g id="icon-poisonivy">
	<path class="st0" d="M13.8,90.6c-2.1-1-4.2-1.8-6.2-2.8c-0.9-0.5-1.8-1-2.6-1.7c-1.4-1.3-1.5-1.9-0.8-3.6c-1.2-1.5-2.4-3-3.5-4.5
		c-0.4-0.7-0.7-1.5-0.8-2.3c-0.1-1.7,0.7-2.6,2.8-3.2C2,70.9,2,69.5,2.6,68c0.6-1.3,2.3-1.9,3.5-1.2c1.5,0.9,3,2,4.6,2.7
		c0.8,0.3,1.8,0.1,2.7-0.1c0.9-0.2,1.7-0.8,2.6-0.8c2-0.1,3.2-1.5,4.6-2.6c1.9-1.4,3.7-2.9,5.5-4.4c2.1-1.7,4.2-3.6,6.3-5.3
		c2-1.6,4.4-2.1,6.8-1.6c2.1,0.4,3.6-0.5,5-1.7c3.6-2.9,6.8-6.3,9.8-9.8c1.6-1.9,3-3.9,4.6-6c-1.8-0.5-3.4-1-4.9-1.4
		c-4.7-1-9.4-1.9-14.1-2.9c-0.3-0.1-0.8,0-1.1-0.1c-0.3-0.2-0.6-0.5-0.8-0.8c0.3-0.2,0.7-0.5,0.9-0.5c1.3,0.2,2.6,0.5,3.9,0.8
		c4.7,1,9.4,1.7,13.9,3c2.3,0.6,3.6,0.4,5.3-1.2c2-1.9,4.5-3.3,6.7-5c2.9-2.1,5.9-4.2,8.8-6.4c1.9-1.4,3.8-2.9,5.8-4.3
		c0.4-0.3,1-0.2,1.6-0.2c-0.2,0.5-0.3,1.3-0.6,1.6c-3.7,2.9-7.5,5.7-11.3,8.4c-1.9,1.3-3.9,2.5-5.8,3.8c-1.8,1.3-3.5,2.6-5.5,4.1
		c1.9,0.4,3.4,0.7,4.9,1.1c0.3,0.1,0.7,0.1,0.9,0.2c0.3,0.2,0.4,0.5,0.6,0.7c-0.3,0.1-0.6,0.4-0.8,0.4c-1.5-0.2-3.1-0.5-4.6-0.8
		c-1.1-0.3-1.9-0.4-2.8,0.7c-3.5,4.9-7.6,9.3-12,13.5c-1.5,1.4-3.2,2.6-4.9,3.8c-1,0.7-2.1,0.9-3.9,0.7c-2.4-0.3-4.5,0.2-6.4,1.8
		c-2.8,2.3-5.6,4.7-8.4,7c-1.1,0.9-2.3,1.8-3.5,2.7c-0.6,0.4-1.2,0.8-0.9,1.7c0.1,0.2-0.2,0.6-0.4,0.5c-0.9-0.2-1.7-0.4-2.6-0.4
		c-1,0-1.6,0.6-1.8,1.6c-0.1,0.4-0.4,0.8-0.7,0.9c-0.1,0.1-0.6-0.4-0.9-0.6c-0.4-0.2-0.9-0.6-1.3-0.6c-0.3,0-0.6,0.6-0.8,1
		c-0.2,0.2-0.3,0.4-0.5,0.7c-0.2-0.2-0.5-0.4-0.6-0.6c-0.8-2.1-2.7-3-4.4-4c-0.3-0.2-1.1,0-1.3,0.3C4,69,3.6,69.9,3.8,70.3
		c0.4,0.9,1,1.7,1.7,2.3c1.6,1.6,3.3,3,4.9,4.6c0.5,0.4,0.7,0.5,1.3,0.2c2.8-1.5,5.5-3,8.3-4.4c0.5-0.3,1.1-0.4,1.7-0.4
		c0.3,0,0.6,0.4,1,0.7c-0.3,0.3-0.5,0.6-0.8,0.8c-1.7,0.8-3.4,1.6-5.1,2.4c-0.4,0.2-0.6,0.9-0.9,1.4c-1.5-1-2.5,0.3-3.8,0.8
		c-0.1,0.1-0.2,0.4-0.3,0.6c-0.2,0.3-0.4,0.8-0.6,0.7c-0.4,0-0.8-0.2-1.1-0.5c-1.7-1.8-3.4-3.6-5.2-5.3c-0.3-0.3-1.1-0.2-1.6-0.1
		c-2,0.3-2.5,1.4-1.4,3.1c0.9,1.4,2,2.6,3.2,3.7c0.5,0.5,1.5,0.7,2.3,0.8c2,0.1,4,0.4,5.7,1.5c0.2,0.1,0.7,0.1,1-0.1
		c1.5-0.8,3-1.6,4.5-2.4c0.3-0.2,0.6-0.3,0.9-0.6c1.6-1.3,3.2-2.7,4.8-3.9c0.9-0.7,1.4-0.2,1.7,0.6c-1.3,0.9-2.6,1.8-3.7,2.7
		c-0.7,0.5-1.4,1.1-1.5,2.2c0,0.6-0.5,1-1.2,0.7c-1.7-0.6-2.9,0.6-4.1,1.4c-0.3,0.2-0.4,0.7-0.5,1.1c-0.1,0.8-0.5,1-1.2,0.7
		c-0.3-0.1-0.6-0.3-0.8-0.5c-1.8-1.9-4.1-1.8-6.4-1.6c-0.4,0-0.7,0.4-1.1,0.6c0.2,0.3,0.4,0.7,0.6,0.9c2.4,2,5.1,3,8.1,3.7
		c0.7,0.1,1.5-0.1,2.2-0.5c3.9-2,7.6-4.2,10.7-7.4c0.8-0.8,1.9-1.4,2.9-2.1c0.2-0.1,0.8,0,0.9,0.2c0.3,0.4,0.4,1,0.6,1.5
		c-0.3,0.1-0.6,0.3-0.9,0.3c-0.9,0-4.1,2.2-4.2,3c0,0.4,0.4,0.9,0.7,1.6c-0.5,0.1-0.9,0.4-1.3,0.3c-1.7-0.4-2.8,0.9-4.2,1.4
		c-0.2,0.1-0.2,0.7-0.1,1c0.2,0.6,0.5,1.2,0.7,1.8c0.1,0.3-0.1,0.7-0.1,1.1c-0.4-0.1-0.8-0.1-1.1-0.3c-0.2-0.1-0.4-0.4-0.5-0.6
		c-0.7-0.7-1.5-0.9-2.5-0.3c-1,0.6-2,1.2-3,1.8c-1.1,0.6-1.5,1.7-1.1,2.9c0.3,0.9,1.5,1.7,2.5,1.4c2.6-0.8,5.3-1.5,7.7-2.6
		c1.4-0.6,2.5-2,3.8-3.1c2.8-2.2,5.5-4.4,8.3-6.4c2-1.4,4.3-2.4,6.5-3.6c0.5-0.2,1.1-0.3,1.6-0.2c1,0.2,1.6-0.1,1.7-1.2
		c0.1-0.4,0.5-0.7,0.8-1.1c0.3,0.5,0.6,0.9,0.7,1.4c0.1,0.4-0.2,0.8-0.3,1.3c-0.9,3.1,0,5.8,2,8.2c1.2,1.4,2.9,1.5,4.6,1.7
		c0.9,0.1,1.8-1.1,1.6-2.3c-0.3-1.8-0.7-3.7-1.5-5.2c-2.1-3.7-2.9-7.7-3.6-11.7c-0.2-1.3-0.5-2.5-0.7-3.8c-0.1-0.5,0.3-1,0.4-1.4
		c0.3,0.4,0.7,0.7,0.9,1.2c0.3,0.7,0.4,1.4,0.6,2.1c3.3-1.7,6.3-3.6,9-5.9c1.1-0.9,2.3-1.8,3.5-2.5c5.9-3.3,11.7-6.7,16.8-11.1
		c3.4-2.9,6.7-6,9.9-9.2c1.8-1.7,3.3-3.8,5-5.6c0.2-0.2,0.5-0.4,0.8-0.6c0.7,0.8,0.6,1.5,0,2.1c-1.6,1.8-3.2,3.7-4.9,5.4
		c-3.7,3.6-7.4,7.3-11.4,10.6c-3.6,2.8-7.6,5.1-11.5,7.6c-2.6,1.7-5.3,3.3-7.9,5c-2.4,1.6-4.7,3.2-7,4.8c-1.3,0.9-1.8,2-1.6,3.5
		c0.5,3.1,1.4,6.1,2.9,8.8c1,1.8,2.3,3.5,1.9,5.7c-0.2,1.1-0.5,2.2-1,3.2c-0.8,1.5-2.7,1.7-4.8,0.9c-3.1-1.3-4.6-3.7-5.3-6.7
		c-0.1-0.5-0.3-1.1-0.4-1.6c-0.4-2.1-0.9-2.5-2.7-1.5c-3.1,1.6-6.1,3.4-8.9,5.3c-1.7,1.2-3.1,2.9-4.7,4.2c-2.7,2.3-5.5,4.6-9.3,4.8
		c-0.4,0-0.8,0.3-1.2,0.4c-0.9,0.3-1.7,0.6-2.6,0.7c-1.4,0.2-2.8-0.6-3.3-1.7c-0.8-1.6-0.6-3.3,0.5-4.4C13.5,91,13.6,90.8,13.8,90.6
		z"/>
	<path class="st0" d="M14.8,24.8c-1.9-1.5-3.7-3-5.6-4.4c-1.2-0.9-1.3-0.8-0.7-2.3c-0.6-0.3-1.1-0.7-1.7-1c-2-1-2.1-1.4-0.7-2.6
		c-0.6-2.4-1.1-4.7-1.8-6.9C3.6,5.8,2.8,4,2.1,2.2C2,1.8,1.8,1.4,1.7,1c-0.2-0.7,0-1,0.7-0.9c0.7,0.1,1.3,0.3,1.9,0.5
		C5.1,0.7,5.9,0.9,6.7,1c1.5,0.3,3,0.4,4.5,0.8c1.4,0.4,2.8,1,4.3,1.5c0.5-1.2,1.2-0.8,2.2-0.2c1.7,1.1,3.6,2.1,5.6,3.2
		c0.2-0.3,0.3-0.6,0.5-0.8c0.5-0.5,0.9-0.5,1.2,0.1c1,1.8,2.1,3.5,3,5.3c0.5,0.9,1.7,1.2,2.4,0.4c2.6-2.7,5.2-5.5,7.8-8.3
		c0.6-0.6,0.9-0.4,1.1,0.2c1.4,3.3,3.4,6.4,2.8,10.2c-0.2,1,0.7,1.3,1.3,1.6c1,0.5,1.1,1.1,0.5,1.9c-0.8,1.1-0.9,2,0.2,3
		c0.7,0.6,0.6,1.4-0.1,2.1c-1.2,1.2-2,2.7-2.4,4.4c-0.2,0.9-0.7,1.4-1.6,1.9c-2.3,1.4-4.7,1.7-7.3,1c-0.1,1.2-0.1,2.3-0.2,3.4
		c-0.1,2.1-0.9,3.6-2.8,4.7c-1.4,0.9-2.7,1.9-4.1,2.9c-1.9,1.4-2.5,1.3-3.9-0.6c-0.1-0.1-0.2-0.2-0.4-0.5c-1,0.8-1.9,1.5-2.9,2.3
		c-1,0.8-1.9,0.5-2.1-0.8c-0.1-0.8-0.5-0.9-1.2-1c-2.6-0.6-5.1-1.3-7.6-2c-1.1-0.3-2.2-0.9-3.3-1.4c-1.2-0.5-1.3-0.9-0.4-1.8
		c1.4-1.2,2.9-2.3,4.2-3.6c1.7-1.7,3.4-3.3,5.4-4.7c0.4-0.3,0.9-0.6,1.3-0.9C14.8,25.2,14.8,25,14.8,24.8z M18.1,15.8
		c0.1,0,0.2-0.1,0.4-0.1c0-2.5,0-5,0-7.5c0.1,0,0.3,0,0.4,0C19,8.6,19.1,9,19.2,9.3c0.1,2.2,0.3,4.5,0.1,6.7c-0.1,1.7,1.1,2.5,2,3.9
		c0.6-2.4,0.4-4.8,1.6-6.8c0.2,0.4,0.2,0.8,0.1,1.2c-0.2,1.9-0.5,3.7-0.6,5.6c0,0.4,0.1,0.9,0.4,1.1c1.2,1.2,2.5,2.3,4.4,2
		c0.7-0.1,1.4,0.3,2.1,0.4c0-3.2,0-6.4,0-9.6c0-0.3-0.3-0.6-0.5-0.8c-0.4-0.5-1-0.8-1.3-1.4c-1-1.7-1.9-3.4-2.9-5.2
		c-1.8,1.6-2.8-0.2-4.1-0.7c-1.4-0.5-2.6-1.4-3.8-2.1c-0.4,0.5-0.4,1.4-1.5,0.8c-1.4-0.8-2.9-1.6-4.5-2C8.3,2,6,1.8,3.7,1.4
		C7.9,6.9,13.1,11.2,18.1,15.8z M23.8,40.1c1.8-1.1,3.6-2.3,5.4-3.4c1.5-0.8,2.2-2.1,2.4-3.7c0.2-1.7,0.5-3.4-0.7-4.9
		c-1.4,0.3-2.1,0.9-2.1,2.4c0,1.5-0.6,3-1.1,4.5c-0.2,0.5-0.7,1-1.1,1.4c-0.1-0.1-0.3-0.1-0.4-0.2c0.7-2.2,2-4.3,1.6-6.8
		c-1.6,0.6-3.2,1.2-4.8,1.8c-0.3,0.1-0.6,0.6-0.7,0.9c-0.7,1.5-1.2,3.1-1.9,4.6c-0.1,0.2-0.5,0.3-0.7,0.4c0-0.3-0.2-0.6-0.1-0.8
		c0.2-0.6,0.6-1.1,0.8-1.7c0.3-0.7,0.5-1.5,0.8-2.4c-0.4,0.1-0.6,0.1-0.8,0.2c-3.6,1.5-7.3,2.5-11.3,1.6c-0.2,0-0.3,0-0.5,0
		c-1.2,0.1-1.8,0.6-2,1.9c1.6,0.5,3.2,1,4.7,1.6c1.4,0.6,2.7,0.7,4.2,0.2c1.7-0.5,1.7-0.4,2.1,1.2c0.1,0.3,0.2,0.5,0.3,0.9
		c0.7-0.3,1.4-0.6,2-1C22.2,37.7,22,37.6,23.8,40.1z M6.1,15.6c0.8,0.5,1.4,1,2.1,1.3c1,0.5,1.7,1.1,1.1,2.2
		c1.5,1.2,2.9,2.3,4.4,3.5c1.4,1.1,2.9,1.7,4.7,0.9c0.8-0.4,1.9-0.3,2.8-0.4c0.5-0.1,0.9-0.1,1.4-0.1c-0.5-1.4-1.9-2.3-3-2.5
		c-2.6-0.4-5.2-0.8-7.7-1.2c-0.1,0-0.1-0.2-0.4-0.5c2.8-0.3,5.3,1.1,8,0.6c-0.8-1-1.6-1.9-2.3-2.9c-0.9-1.2-2-1.8-3.4-1.9
		c-1.4-0.1-2.8-0.4-4.1-0.6c-0.2,0-0.4-0.2-0.9-0.5c1.8-0.8,3.4,0.3,5.2,0c-3.6-3.6-7.1-7-10.2-10.1C4.4,5.7,5,8.4,5.8,11.2
		c0.2,0.8,0.5,1.6,1,2.3C7.4,14.4,7.6,15.2,6.1,15.6z M4.6,35.2c0.1,0.1,0.2,0.2,0.3,0.3c0.2-0.1,0.5-0.2,0.6-0.4
		c1.5-1.6,3.3-2,5.5-1.5c2.8,0.6,5.5-0.3,8.2-1.4c-2.3-0.8-4.7-1-6.6-2.5c0.3-0.2,0.6-0.2,0.9-0.2c1.2,0.4,2.3,0.9,3.5,1.1
		c1.6,0.3,3.2,0.6,4.8,0.4c1.5-0.2,3-1.1,4.5-1.7c0.2-0.1,0.4-0.3,0.7-0.4c-4.6-1.8-5-2.1-4.9-3.2c2.5,0.8,4.8,3.3,7.8,1.5
		c-0.2-0.5-0.4-0.9-0.5-1.3c-0.6-1.7-0.9-2-2.8-2c-1.7,0-3.4,0.1-5.1,0.1c-2.8-0.1-5,1.2-7,2.7c-2.3,1.7-4.4,3.7-6.5,5.6
		C6.8,33.3,5.7,34.2,4.6,35.2z M32.9,21.6c1-1.1,1.6-2,0.7-3.5c-0.8-1.4-0.6-3-0.7-4.5c0.1,0,0.2,0,0.3,0c0.4,1.5,0.7,2.9,1.1,4.4
		c0.1,0,0.2,0,0.4,0c1.3-4.1,2.5-8.2,3.2-12.4c-0.2-0.1-0.4-0.2-0.6-0.4c-0.6,0.7-1.1,1.4-1.7,2c-1.1,1.3-2.3,2.5-3.4,3.7
		c-0.9,1-2.2,1.7-1.5,3.4c0,0.1-0.1,0.2-0.1,0.3c-1,3.8-0.7,7.7-0.2,11.5c0,0.1,0.1,0.1,0.2,0.2c0.2-0.4,0.3-0.9,0.6-1.2
		c1.1-1.4,1.3-2.9,0.3-4.5c-0.2-0.3-0.1-0.8-0.1-1.2c0.1,0,0.3-0.1,0.4-0.1C32.2,20,32.5,20.7,32.9,21.6z M39.2,5.3
		c-1.2,4.7-2.5,9.4-3.7,14.2c0.4-0.1,0.8-0.1,1.1-0.2c1.5-0.4,3-1,4.5-1.2c1.2-0.2,1.9-0.6,2.1-1.9c-0.4-0.1-0.8-0.3-1.2-0.4
		c-0.8-0.1-0.9-0.5-0.8-1.2C41.9,11.2,40.4,8.2,39.2,5.3z M41.2,24.2c-2.8-0.5-5.6,0.1-8.2,1c-0.6,0.2-1.2,1.1-1.2,1.7
		c0,0.5,0.7,1.3,1.3,1.5c1.1,0.3,2.4,0.5,3.5,0.4C38.9,28.7,41,26.5,41.2,24.2z M41.6,19c-1.5,0.4-3.3,1-5,1.4c-2,0.5-2.6,1-2.9,3.1
		c0.7,0,1.4,0,2.1,0c1.9,0.1,3.8-1.1,5.8-0.3c0.2,0.1,0.5-0.2,0.7-0.4c0.3-0.3,0.6-0.8,0.9-1.1c0.5-0.6,0.4-0.9-0.2-1.3
		C42.5,20.1,42.1,19.6,41.6,19z"/>
	<path class="st0" d="M36.3,65.7c-0.7-0.1-1.3-0.4-2-0.4c-1.6,0.1-2.8-0.8-4.1-1.6c-0.3-0.2-0.4-0.7-0.6-1.1
		c0.4-0.1,0.9-0.3,1.3-0.1c1.7,0.6,3.4,1.7,5.3,1.5c0.5,0,1-0.1,1.5-0.1c0.4,0,0.8,0.2,1.2,0.3c-0.2,0.5-0.2,1.2-0.5,1.3
		c-1,0.5-1.1,1.4-1.1,2.2c0,1.3,0.2,2.7,0.3,4c0,0.5-0.3,1-0.4,1.5c-0.4-0.4-1.2-0.8-1.2-1.3c-0.1-1.9,0-3.9,0.1-5.8
		C36.3,66.1,36.3,66,36.3,65.7z"/>
	<path class="st0" d="M69.3,45.5c-0.6-0.5-1.1-0.7-1.2-1c-0.1-0.4,0.2-1.1,0.4-1.2c1-0.4,0.9-1.2,0.8-2c-0.3-1.7,0-2.1,1.7-2.6
		c0.4-0.1,0.7-0.7,1-1c0.1-0.2,0-0.5,0.1-0.7c1.1-1.1,2-2.4,2.8-3.8c0.4-0.7,1.1-0.1,1.4,0.5c0.5,0.8,0,1.5-0.7,1.6
		c-0.9,0.3-1.2,0.6-1,1.6c0.1,0.3-0.7,0.8-1.1,1c-0.9,0.3-1.7,0.5-1,1.8c0.2,0.3-0.3,1.2-0.7,1.4c-1,0.7-2.1,1.1-1.6,2.7
		C70.5,44.3,69.7,44.9,69.3,45.5z"/>
</g>
</svg>
