<?xml version="1.0" encoding="utf-8"?>
<!-- Generator: Adobe Illustrator 19.2.1, SVG Export Plug-In . SVG Version: 6.00 Build 0)  -->
<svg version="1.1" id="Layer_1" xmlns="http://www.w3.org/2000/svg" xmlns:xlink="http://www.w3.org/1999/xlink" x="0px" y="0px"
	 viewBox="94.4 59.2 198.2 200" style="enable-background:new 94.4 59.2 198.2 200;" xml:space="preserve">
<style type="text/css">
	.st0{fill:#C2185B;}
</style>
<g id="icon-dryeyes-lady">
	<path class="st0" d="M94.4,259.2c0.2-1.4,0.4-2.9,0.6-4.3c0.1-0.8,0.2-1.7,0.2-2.5c0.1-2.7,1.2-5.1,1.8-7.6c0.7-2.8,1.5-5.6,2-8.5
		c0.3-1.5,0.1-3,0-4.6c-0.2-2.3-0.9-4.5-0.7-6.8c0.3-4.4-0.5-8.7-0.2-13.1c0.1-1.6,0.5-3.3,1.1-4.9c0.3-0.8,1.1-1.5,1.9-2.1
		c1.8-1.4,3.6-2.8,5.6-3.9c2.6-1.4,3.9-3.9,6.1-5.7c0.9-0.7,1.8-1.4,2.8-1.7c3-1,6-1.9,9-2.7c2.8-0.8,5.8-0.4,8.7-0.3
		c1.6,0.1,3.1,0.5,4.7,0.8c0.8,0.1,1.4,0,1.9-0.6c0.1-0.1,0.2-0.2,0.3-0.3c1.5-1.1,3-2.4,4.6-3.2c3.9-2.1,6.3-5.3,7.5-9.6
		c0.9-3.3,0.7-6.4,0.5-9.7c-0.3-4.5-0.2-9,0.7-13.5c0.3-1.2,1-2.2,1.6-3.3c1.1-2,1-3.8,0-5.9c-1.4-2.8-2.6-5.7-2.4-8.9
		c0.1-2,0.8-3.8,1.9-5.5c0.8-1.3,1.3-2.7,0.7-4.2c-0.2-0.4-0.1-0.9-0.2-1.4c-0.7-2.3-1.5-4.6-2-6.9c-0.5-2-0.9-4.1-1-6.1
		c-0.1-2.8,0.1-5.6,0.3-8.3c0.1-1,0.5-2.1,0.7-3.1c0.4-2.6,0.7-5.2,1.6-7.7c0.5-1.2,0.9-2.4,1.4-3.5c1.2-2.7,2.5-5.4,3.8-8
		c0.4-0.8,1-1.4,1.5-2.1c1.6-1.9,3.1-3.8,4.8-5.6c1.1-1.2,2.5-2.1,3.8-3.1c1.9-1.5,3.7-3.1,5.6-4.6c2.5-2,5.3-3.4,8.4-4.1
		c0.8-0.2,1.4-0.7,2.2-1c0.9-0.3,1.9-0.6,2.8-0.8c1.9-0.4,3.9-0.8,5.8-1.1c0.4-0.1,0.8-0.1,1.1-0.1c1.6,0,3.3-0.1,4.9,0
		c1.8,0.1,3.5,0.3,5.3,0.5c1.5,0.2,3.1,0.3,4.6,0.6c2,0.4,4,0.8,6,1.3c1.5,0.4,2.9,0.9,4.4,1.4c2.4,0.9,4.4,2.5,6.4,4
		c1.5,1.1,3.2,2.2,4.4,3.6c2.1,2.4,4,5.1,6,7.7c1.1,1.5,2.3,3,3.4,4.5c2.5,3.4,4.2,7.3,5.2,11.4c0.8,3.3,1.3,6.7,1.6,10.1
		c0.3,3.2,0.4,6.4,0.4,9.6c0,3.6-0.2,7.2-0.3,10.8c0,0.8,0.1,1.5,0.3,2.3c1.1,5.4,2,10.7,2.3,16.2c0.1,2.5,0.4,5,0.2,7.4
		c-0.4,4.2-1.2,8.3-1.8,12.5c-0.2,1-0.4,2-0.6,3c-0.6,3.9-1.8,7.6-3.5,11.2c-0.7,1.5-1.2,3.1-1.9,4.5c-0.6,1.3-1.4,2.6-2.2,3.8
		c-1,1.5-1,2,0.7,2.6c3.1,1.1,6.2,2.2,9.5,2.1c1.4,0,2.7-0.2,4.1-0.6c2.1-0.6,4.2-0.9,6.4-0.5c3.1,0.5,6.1,1.3,8.9,2.6
		c2.2,1.1,4.2,2.5,6.3,3.8c0.2,0.1,0.3,0.2,0.5,0.3c2.5,1,4.3,3,5.8,5.1c2.1,3.2,4,6.6,5.9,9.9c0.4,0.8,0.3,1.8,0.6,2.8
		c0.7,3.1,1.6,6.2,2.3,9.3c0.2,0.8,0.2,1.7,0.2,2.5c0.2,4.4,0.4,8.7,0.5,13.1c0.1,5.1,0,10.2,0,15.4c0,1.7,0.2,3.4,0.4,5.1
		c-0.5,0-1,0-1.4,0c-0.1-1.5-0.3-3-0.3-4.4c0-4.5,0-9,0-13.5c0-0.3,0-0.6,0-0.9c-0.1,0-0.2-0.1-0.2-0.1c-0.4,0.5-1,1-1.2,1.6
		c-1.4,3.2-2.7,6.5-4.1,9.7c-1,2.5-2,5.1-3,7.7c-0.7,0-1.3,0-2,0c-1.5-4-2.8-8-4.6-11.9c-2.9-6.5-6.1-12.9-8.5-19.6
		c-0.4-1.1-0.6-2.2-0.8-3.3c0-0.3,0.4-0.6,0.7-1c0.3,0.3,0.6,0.6,0.8,0.9c0.3,0.8,0.3,1.7,0.6,2.4c1.7,4.1,3.4,8.3,5.1,12.4
		c1.3,3,2.7,6,4,9c0.3,0.8,0.6,1.6,0.9,2.3c1.1-2.8,2-5.6,3.1-8.4c0.7-1.6,1.4-3.2,2.5-4.5c1.6-2,3.3-4,6.4-4.3c0-2.4,0-4.8,0-7.3
		c0-0.9-0.1-1.8-0.3-2.7c-0.5-2.6-1.1-5.2-1.7-7.8c-0.6-2.9-1.5-5.7-3.3-8.2c-1-1.4-1.7-3-2.6-4.4c-0.8-1.2-1.6-2.4-2.6-3.3
		c-1.7-1.4-3.6-2.7-5.6-3.9c-1.9-1.1-3.9-2-5.8-2.9c-3.1-1.4-6.2-2.6-9.7-2.3c-1.1,0.1-2.2,0.3-3.4,0.5c1.6,1.8,3,3.3,4.3,4.8
		c1.3,1.5,2.7,3,3.4,5c0.8,2.5,1.7,5,2.6,7.5c0.3,1,0.7,1.9,1,2.9c-0.9,0.3-1.3,0.1-1.7-0.8c-1-2.9-2-5.8-3.1-8.6
		c-0.5-1.2-1.1-2.3-1.8-3.3c-1.4-1.8-3-3.3-4.4-5.1c-0.8-1.1-1.8-1.3-3-1.2c-2.1,0.1-4.3,0.1-6.3-0.6c-2.1-0.7-4.2-1.5-6.3-2.3
		c-1-0.4-1.6-0.5-2.3,0.5c-1,1.4-1.2,1.6-0.1,2.9c1.6,1.9,3.1,3.8,4.2,6c1.3,2.5,2.8,5,4.1,7.5c0.9,1.7,1.7,3.3,2.5,5
		c0.6,1.3,1.3,2.7,1.8,4c0.9,2.5,1.5,5.1,2.4,7.5c2.2,5.7,4.1,11.4,5.7,17.3c1,3.9,2.2,7.8,3.4,11.7c0.7,2.5,1.5,5,2.3,7.5
		c-0.5,0-1,0-1.4,0c-0.5-1.8-0.9-3.6-1.6-5.4c-2-5.1-3.2-10.3-4.7-15.5c-0.8-2.9-1.7-5.8-2.7-8.6c-1-3-2.1-5.9-3.1-8.8
		c-0.8-2.3-1.5-4.6-2.3-6.9c-0.6-1.4-1.4-2.7-2.1-4.1c-1.5-2.8-2.9-5.7-4.4-8.5c-0.5-1.1-1.2-2.1-1.9-3c-1.4-2.1-2.9-4.1-4.3-6
		c-1.4,1.2-2.8,2.3-4.1,3.4c0.7,0.9,1.5,1.8,2.1,2.8c2.1,3.6,3.5,7.5,4.8,11.4c2.2,6.7,4.5,13.4,6.6,20.1c1.2,3.9,2.3,8,3.2,12
		c0.6,2.5,1,5.1,1.3,7.6c0.4,3.2,0.7,6.5,1,9.7c-0.5,0-1,0-1.4,0c-0.3-2.5-0.4-5-0.9-7.5c-1.5-8-2.8-16.1-5.4-23.8
		c-0.6-1.8-1.2-3.7-1.8-5.5c-2.4,0.5-4.3,1.7-5.9,3.3c-2.2,2-4.2,4.3-5.5,7c-0.1,0.2-0.7,0.5-0.8,0.4c-0.3-0.2-0.5-0.5-0.5-0.9
		c0-0.2,0.1-0.5,0.3-0.7c1-1.4,2-2.9,3.2-4.3c2.3-2.9,5.1-5.1,8.7-6.1c0-0.2-0.1-0.3-0.1-0.5c-1.4-4.4-2.8-8.8-4.2-13.1
		c-0.2-0.6-0.4-1.2-0.7-1.7c-0.9-1.9-1.8-3.9-2.8-5.7c-0.5-0.9-1.1-1.9-1.8-2.7c-0.4-0.5-1.2-1.1-1.8-1c-1.7,0.2-3.3,0.7-4.9,1.1
		c-1.3,0.3-2.6,0.7-4,0.5c-1-0.2-2.1-0.2-3.1-0.3c-1.3-0.1-2.7-0.3-4-0.5c-2.3-0.4-4.4-1.4-6.5-2.7c-0.1,0.2-0.2,0.4-0.4,0.5
		c-1.8,1.5-3.4,3.2-5.3,4.5c-2.9,1.9-6,3.5-8.9,5.3c-0.9,0.5-1.6,1.4-2.4,2.1c-0.3,0.3-0.6,0.7-0.9,1.1c-1.1,1.4-2.2,2.8-3.2,4.2
		c-0.2,0.2-0.2,0.8-0.1,1c1.1,1.6,2.2,3.2,3.3,4.8c0.5,0.7,1,1.3,1.3,2c1.2,2.6,2.4,5.2,3.6,7.8c0.3,0.6,0.6,1,1.3,1
		c1.5,0.1,2.7,0.7,3.8,1.7c0.2,0.2,0.5,0.4,0.8,0.6c2,0.8,4,1.6,5.9,2.4c0.5,0.2,1.1,0.4,0.9,1.1c-0.2,0.7-0.8,0.5-1.3,0.4
		c-0.8-0.2-1.6-0.5-2.3-0.9c-2-0.9-4.1-1.6-5.8-3.1c-0.5-0.5-1.3-0.6-2-0.8c-0.1,0.1-0.1,0.1-0.2,0.2c0.4,0.8,0.8,1.5,1.1,2.3
		c2.2,5,4.4,10.1,6.7,15.1c1.7,3.7,3.6,7.3,6.1,10.6c0.2,0.3,0.3,0.6,0.4,1c-0.5,0-1,0-1.4,0c-0.5-0.6-1-1.3-1.4-1.9
		c-3-4.6-5.3-9.6-7.5-14.6c-1.8-4-3.5-8-5.3-12c-1.5-3.4-3.2-6.7-4.8-10.1c-0.3-0.7-0.8-1.2-1.3-1.8c-0.9-1.3-1.8-2.5-2.7-3.8
		c-0.2-0.3-0.5-0.6-0.9-1.1c-1.9,2.3-3.7,4.5-5.6,6.7c-0.3,0.4-0.1,0.7,0.1,1.1c1.1,1.5,2.2,3,3.1,4.6c2.1,3.5,4.1,7,6,10.6
		c1.5,2.8,3.2,5.5,4.3,8.5c1.4,3.8,3.2,7.3,5.4,10.6c0.6,1,1,2.1,1.4,3.1c-0.5,0-1,0-1.4,0c-1-1.8-2.1-3.6-3.1-5.4
		c-0.7-1.2-1.4-2.4-1.9-3.7c-0.7-1.5-1.1-3.2-1.8-4.7c-1.3-2.7-2.7-5.4-4.2-8.1c-1-1.8-2.2-3.5-3.2-5.3c-1.3-2.3-2.6-4.6-3.9-6.9
		c-0.5-0.8-1.1-1.6-1.8-2.5c-1,1.6-2,3-2.7,4.5c-2.1,5.1-4.1,10.3-6.1,15.5c-1.8,4.7-3.5,9.5-6.1,14c-0.5,0.8-0.8,1.7-1.2,2.6
		c-0.5,0-1.1,0-1.6,0c0.1-0.3,0.2-0.6,0.3-0.8c3.1-5.9,5.7-12.1,8-18.3c2.2-5.9,4.1-11.9,7.5-17.4c1.7-2.7,3.7-5.2,5.6-7.7
		c1.7-2.2,3.5-4.4,5.3-6.5c1.2-1.5,2.2-3.2,3.8-4.3c0.3-0.2,0.5-0.4,0.8-0.5c-2.4-2.5-5.4-3.5-8.5-4.5c0.3-0.5,0.5-0.8,0.7-1.3
		c1.7,0.7,3.5,1.3,5.1,2.1c1.3,0.7,2.5,1.7,3.8,2.5c0.2,0.1,0.7,0.2,0.9,0.1c3.1-1.9,6.3-3.6,9.2-5.7c1.8-1.3,3.3-3.2,4.8-4.9
		c1.2-1.3,2.1-3.1,3.4-4.2c2.5-2.1,3.3-5,4.6-7.7c0-0.1,0-0.2,0-0.4c-0.1-1.8-0.1-3.5-0.2-5.3c-0.1-0.7-0.3-1.4-0.5-2.1
		c-3.5,2.2-6,1.5-8.2-2.3c-0.4,2.3-1.8,3-3.9,3c-2.2,0-3.5-0.8-4.3-2.8c-0.2,0-0.4,0.1-0.5,0.1c-2.9,0.9-5.2-1.3-4.9-3.8
		c0.1-1,0.1-2,0.2-2.9c0.1-0.8-0.3-1.2-1.1-1.4c-0.6-0.1-1.2-0.3-1.8-0.4c-2.1-0.5-4.1-1.1-5.7-2.8c-0.9-1-2.2-1.9-3.3-2.7
		c-1.1-0.7-2.4-1.2-3.5-1.9c-0.3-0.2-0.4-0.6-0.6-0.9c0.3,0,0.7-0.1,0.9,0c2.7,1.1,5.2,2.5,7.3,4.6c2,2,4.6,2.4,7.2,2.7
		c0.6,0.1,0.9-0.2,0.9-0.8c0-1.4,0-2.9-0.1-4.3c0-0.2-0.4-0.5-0.6-0.7c-0.3-0.2-0.7-0.2-1-0.2c-1.6,0-2.9-0.7-4.1-1.6
		c-1.8-1.3-3.7-2.6-5.5-4c-0.2-0.1-0.3-0.6-0.2-0.7c0.1-0.2,0.5-0.3,0.7-0.3c0.2,0,0.4,0.2,0.5,0.3c1.9,1.3,3.7,2.6,5.6,3.9
		c1,0.7,2.2,1.2,3.6,1.1c-1.2-2.1-2.1-4.2-2.2-6.6c0-0.3,0.3-0.7,0.5-1.1c0.2,0.3,0.6,0.6,0.6,0.9c0.1,2.5,1.2,4.6,2.5,6.7
		c0.4,0.6,0.9,1.2,0.9,1.8c0,2.8-0.1,5.6-0.2,8.4c-0.1,1.3-0.2,2.6-0.2,3.8c0,0.9,0.9,1.7,1.9,1.6c-0.3-0.4-0.6-0.8-0.9-1.1
		c-0.6-0.6-0.7-1.2-0.3-1.9c0.9-1.4,1.8-2.9,2.7-4.3c0.2-0.2,0.5-0.5,0.8-0.5c0.9,0.1,1.8,0.2,2.8,0.4c0.6-1.3,1.4-2.9,1.4-4.7
		c0-1.6-0.4-3.1-0.7-4.6c-0.4-2.5-1.1-4.9-2.4-7.1c-0.1-0.2-0.3-0.4-0.3-0.6c0-0.3,0.2-0.5,0.2-0.8c0.2,0.1,0.6,0.2,0.7,0.4
		c1,2,2.1,3.9,2.5,6.2c0.2,1,0.5,2,0.7,3c0.4,2,0.7,4-0.1,6c-0.7,1.9-1.5,3.8-2.3,5.7c-0.6,1.3-1.2,2.7-1.1,4.2
		c0,1.9,1.2,2.9,3.2,2.4c-0.7-0.5-1.3-1-1.9-1.5c-0.4-0.3-0.6-0.6-0.4-1.1c0.7-1.5,1.3-3,2-4.5c0.7-1.5,2-2.3,3.7-2
		c0.9,0.2,1.8,0.8,2.8,1.4c0.6-1.5,1.6-3.1,1.9-4.8c0.3-2,0.2-4.2,0-6.2c-0.3-3.2-0.8-6.4-1.2-9.6c-0.1-0.7-0.3-1.1-0.8-1.5
		c-0.6-0.5-1.1-1-1.7-1.4c-0.4-0.3-1-0.6-1.5-0.4c-1.7,0.4-3.3,0.8-4.9,1.5c-1.6,0.7-3.1,1.2-4.7,0.7c-1.2-0.4-2.3-0.1-3.4,0.2
		c-0.6,0.2-1.1,0.4-1.7,0.6c-2.2,0.6-4.4,1-6.5,1.7c-3.8,1.2-7.5,2.5-11.2,3.8c-1.3,0.5-2.3,1.4-2.6,2.7c-0.4,2.2-0.6,4.5-1,6.8
		c-0.4,2.2-0.6,4.5-1.3,6.7c-0.9,3.1-1.8,6.2-1.8,9.5c0,2-0.4,4.2-1,6.1c-0.5,1.5-0.4,2.8,0.4,4.1c0.6,1,1.3,1.9,2,2.8
		c0.3,0.4,0.6,0.9,0.1,1.2c-0.5,0.3-0.9,0-1.2-0.4c-0.9-1.3-1.9-2.6-2.8-3.9c-0.1,0.2-0.3,0.5-0.6,0.8c-2.9,4-5.9,7.9-8.7,12
		c-1.4,2.1-2.5,4.4-3.7,6.6c-1.5,2.8-3,5.6-4.5,8.3c-1.9,3.5-3.8,7.1-6.3,10.2c-2.1,2.6-4.2,5.2-5.9,8.1c-1.2,2.1-2.9,3.9-4.4,5.9
		c-0.5,0.6-1,1.3-1.5,1.8c-0.6,0.7-1.4,1.2-2,1.9c-1.3,1.4-2.5,2.8-3.7,4.3c-1.9,2.2-3.9,4.4-5.8,6.7c-2.3,2.8-4.4,5.6-6.6,8.5
		c-0.6,0-1.2,0-1.8,0c1.7-2.2,3.5-4.5,5.2-6.7c2-2.5,4.1-5,6.2-7.5c2.5-3,5.1-6,7.7-8.9c0.7-0.7,0.3-1-0.3-1.3
		c-1.3-0.6-2.7-1.2-4-1.9c-3.8-1.9-7.8-2.8-12.1-2.6c-1.8,0.1-3.5,0.5-4.8,1.8c-1.5,1.4-2.9,2.8-4.1,4.4c-1,1.3-2.4,2.4-2.4,4.3
		c0,0.3-0.1,0.7-0.2,1c-0.8,2.7-1.6,5.4-2.3,8.1c-0.4,1.7-0.4,3.5-0.6,5.2c-0.2,1.4-0.4,2.7-0.5,4.1
		C95.4,259.2,94.9,259.2,94.4,259.2z M218.9,165.2c-1.3,2-2.6,3.9-3.9,5.9c-0.1,0.2-0.2,0.5-0.2,0.7c0.3,1,0.7,1.9,1.1,3
		c0.1,0,0.3-0.1,0.5-0.2c1.8-0.9,3.7-1.9,5.5-2.8c0.9-0.5,1.8-0.6,2.9-0.3c0.9,0.3,1.8,0.8,2.7,0.3c0.7-0.3,1.3-0.8,2-1
		c1.1-0.3,2.2-0.5,3.3-0.4c1.3,0.1,2.7,0.5,4,0.7c0.8,0.1,0.9,0.4,0.5,1c-1.1,1.8-2,3.6-3.3,5.3c-2.1,2.7-5,4-8.4,4.3
		c-2.4,0.2-4.6-0.6-6.9-1.3c-0.9-0.3-1.8-0.6-2.8-0.9c0,0.3-0.1,0.5-0.1,0.6c-0.2,1.6-0.4,3.2-1.2,4.5c-1.1,1.8-2.5,3.4-4,4.9
		c-1.1,1.1-2,2.5-3.1,4c1.7,0.8,3.2,1.7,4.8,2c2.2,0.5,4.5,0.7,6.7,0.9c1.3,0.1,2.6,0.2,3.9,0c1.7-0.3,3.4-0.8,5.1-1.2
		c2.2-0.5,4.1-1.3,5.8-3c2.1-2.1,3.9-4.3,5.5-6.9c1.7-2.8,3.4-5.6,4.4-8.8c1-3,2-6,2.8-9.1c0.6-2.4,0.9-4.8,1.4-7.2
		c0.3-1.4,0.8-2.8,0.9-4.3c0.2-4,0.2-8.1,0.2-12.1c0-1.1,0.1-2.2,0-3.3c-0.3-2.3-0.8-4.6-1-6.9c-0.4-4-1.3-7.9-1.5-11.9
		c-0.1-2.1-0.8-4.2-1.1-6.3c-0.3-1.7-0.5-3.4-0.6-5c-0.2-1.7-0.5-3.4-1.6-4.7c-2.3-2.8-4.6-5.7-7.2-8.4c-2.3-2.4-3.2-5.1-3.5-8.2
		c-0.2-1.8-0.5-3.6-1.2-5.3c-0.7-1.8-1.9-3.3-2.9-5c-1.9-3.1-4-6.1-6.8-8.4c-0.5-0.4-1-0.7-1.6-0.2c0.9,1.2,1.7,2.4,2.6,3.5
		c1.3,1.8,2.6,3.7,4,5.5c0.6,0.8,1.3,1.7,1.9,2.5c1.4,2.1,1.8,4.4,2.1,6.8c0.1,0.8,0.4,1.8-0.3,2.6c-1,1-2.1,1.9-3.2,2.9
		c-2.6,2.3-5.7,3.7-8.7,5.5c-4.9,3-10.1,5.5-14.6,9.2c-2.9,2.4-6.4,4.1-9,7c-0.2,0.2-0.5,0.4-0.8,0.6c-3.2,1.9-6.5,3.8-9.7,5.7
		c-0.9,0.5-1.8,1.3-2.4,2.1c-1.2,1.6-2.1,3.5-2.6,5.5c-0.7,2.6-1.8,5.1-3.7,7.1c-1,1.1-1.9,2.3-2.8,3.5c-0.5,0.7-0.9,1.6-1.5,2.4
		c-0.9,1.2-2,1.3-2.9,0c-1.5-2-2.9-4.2-4.5-6.2c-1.7-2.2-3.8-4-6.4-5.1c-0.6-0.2-1.1-0.3-1.4,0.5c-0.3,0.6-0.7,1.3-1,1.9
		c-1,1.6-1.3,3.3-0.8,5.1c0.8,2.7,1.7,5.3,2.7,7.8c0.8,2,1.7,4,3.1,5.6c1.2,1.3,2.3,2.7,3.5,4c1.2,1.2,2.5,2.3,3.9,3.6
		c0.2-1.7,0.5-3.1,0.5-4.5c0.1-2.7-0.2-3-3-3.1c-2.6-0.1-4.6-1.8-5-4.5c-0.2-1.4-0.2-2.9-0.3-4.4c0-0.6,0.1-1.1,0.8-1.1
		c0.7,0,0.7,0.5,0.7,1c0.1,1.3,0.2,2.6,0.4,3.9c0.2,1.7,1.7,3.5,3,3.6c1,0.1,2,0,3.1,0c-1.3-1.4-1.8-3.1-2.2-4.9
		c-0.1-0.3-0.3-0.7-0.5-1c-1.1-2.1-2.3-4.3-3.5-6.4c-0.3-0.5-0.8-1.2-1.2-1.2c-1.4,0-2.8-0.5-4.1,0.5c-0.2,0.2-0.6,0.1-0.9,0.1
		c-0.1-1.5,0.4-2.1,1.7-2.2c0.5,0,1-0.1,1.4-0.1c2.6-0.1,3.8,0.5,4.8,2.5c1,2,2.1,3.9,3.1,5.8c0.4,0.8,0.7,1.6,0.8,2.4
		c0.2,1.4,0.8,2.4,1.9,3.4c0.3-0.2,0.5-0.5,0.7-0.6c2-1.6,4.4-2.3,6.8-3.1c1.6-0.5,3.3-1.1,4.9-1.6c0.9-0.3,1.9-0.7,2.8-0.9
		c2.6-0.8,5.3-1.6,7.9-2.3c1-0.3,2.2-0.5,3.2-0.2c1.5,0.3,2.7,0.1,4-0.5c1.2-0.5,2.5-1,3.8-1.4c1.8-0.5,3.5-0.4,5,0.8
		c0.9,0.7,2,0.5,2.9,0.1c1-0.5,2-1.1,3.2-0.8c-0.5-1.5-1.7-2.3-3.4-2.3c-1.9,0-3.9,0.1-5.8,0.1c-3.1,0-6,0.5-8.8,1.7
		c-0.6,0.2-1.2,0.3-1.8,0.4c-0.2-0.8-0.3-1.3,0.4-1.5c1.7-0.5,3.4-1.3,5.2-1.6c3.9-0.7,7.8-0.7,11.7-0.6c2.2,0.1,4.3,1.7,4.8,3.8
		c0.2,0.9,0.7,1.2,1.3,1.4c0.3,0.1,0.6,0.2,0.9,0.3c1.8,0.5,3.6,1,5.4,1.6c0.6,0.2,1.2,0.7,1.4,1.2c0.4,1,0.7,2,0.8,3.1
		c0.1,2.5,0.3,5-0.5,7.5c-0.4,1.2-0.4,2.4-0.8,3.6c-0.5,1.6-1.3,2.1-3,2.1c-0.7,0-1.3-0.2-2.1-0.3c0,1.5,0.3,3.2-1,4.5
		c1,0.6,1.3,0.6,2-0.1c1.3-1.2,2.7-1.4,4.3-0.8c1.6,0.6,3.3,0.6,4.7-0.6c0.7-0.6,1.3-1.3,1.9-2c0.6-0.6,1-1.4,0.8-2.2
		c-0.5-2.1-1-4.2-1.9-6.2c-1.6-3.6-2.7-7.3-3.6-11c-0.5-2.3-0.1-4.6,2-6.1c0.8-0.6,1.7-1,2.6-1.5c2.7-1.5,5.4-3,8-4.4
		c1.7-0.9,3.6-1.1,5.4-0.6c0.3,0.1,0.5,0.6,0.7,0.9c-0.3,0.2-0.7,0.5-1,0.5c-1.9-0.4-3.5-0.1-5.1,0.9c-2.3,1.4-4.7,2.7-7.1,4
		c-0.2,0.1-0.4,0.1-0.6,0.1c-1.5,0.1-3.3,1.6-3.8,3.4c1.2,0,2.4,0.1,3.6,0.1c2,0.1,3.9,0.3,5.9,0.4c1.3,0.1,2.4-0.5,3.3-1.4
		c0.4-0.4,0.8-0.5,1.1-0.1c0.2,0.2,0.2,1,0,1.1c-0.9,0.6-1.9,1.4-2.9,1.6c-1.4,0.3-2.9,0.2-4.4,0.2c-0.9,0-1.8-0.1-2.7-0.2
		c-1.4-0.1-2.7-0.1-4.2-0.2c0.1,0.7,0.1,1.3,0.3,1.8c0.4,1.6,0.9,3.2,1.4,4.8c1.2,3.6,2.5,7.3,3.6,10.9c0.2,0.7,0.4,1.5,0.2,2.1
		c-0.7,2-1.6,3.9-3.9,4.6c-0.3,0.1-0.6,0.2-0.8,0.3c-1,0.5-1.9,0.6-2.9,0.1c-1.6-0.8-3.1-0.8-4.5,0.5
		C220.9,165.6,219.8,165.6,218.9,165.2z M101.1,207.1c1.7,0,3.2,0.1,4.7,0c2.8-0.2,5.2,1.2,7.6,2.3c0.2,0.1,0.4,0.7,0.3,1
		c0,0.2-0.5,0.3-0.9,0.4c-0.1,0-0.3-0.1-0.5-0.2c-2.8-1.7-5.8-2.3-9-1.9c-1.2,0.1-2.3,0.3-3.5,0.5c-1.1,2.5-0.8,16.3,0.4,19.9
		c0.3-0.3,0.5-0.6,0.8-0.9c1.8-2.4,4.2-4.2,6.7-5.8c0.6-0.4,1.2-0.7,1.9-0.8c2.4-0.4,4.8-0.7,7.2-0.9c1.2-0.1,2.5-0.2,3.8,0.1
		c4,0.7,7.6,2.3,10.8,4.7c0.1,0.1,0.3,0.2,0.5,0.2c0.7-0.1,1,0.4,1.4,0.8c0.2,0.3,0.5,0.6,0.7,0.8c1-1.2,1.9-2.4,2.8-3.5
		c1.4-1.8,3-3.6,4.2-5.6c1.9-3,3.5-6.2,5.2-9.3c1.1-1.9,2.1-3.8,3.2-5.8c-0.6-0.5-1.1-1.1-1.7-1.6c-1.4-1.3-2.9-2.5-4.3-3.7
		c-0.7-0.6-1.3-1.4-2-2c-2.3-1.9-4.7-3.7-7.9-3.7c-3.9,0-7.7-0.2-11.5,1c-4.1,1.4-8,2.9-11,6.2c-1.1,1.1-2.1,2.3-3.3,3.2
		c-1.6,1.3-3.3,2.4-4.9,3.5C102.1,206.3,101.6,206.7,101.1,207.1z M216.7,166.7c0.3-0.6,0.5-1,0.7-1.4c0.4-0.9,0.9-1.7,1.2-2.7
		c0.3-0.7,0.5-1.5,0.5-2.3c-0.2-2.6-0.4-5.2-0.8-7.8c-0.4-2.3-1-4.5-1.7-6.8c-0.7-2.3-2.6-3.2-4.6-3.9c-1.1-0.4-1.9,0.2-1.8,1.4
		c0.1,1.3,0.4,2.6,0.5,4c0.2,2.1,0.5,4.1,0.6,6.2c0.1,2,0.5,4.1,0,5.9c-0.9,2.9-2.4,5.6-3.8,8.3c-0.5,1-0.7,2,0,3.1
		c0.8,1.3,1.7,1.8,3.1,1.6c-0.6-0.6-1.2-1-1.7-1.6c-0.2-0.3-0.4-0.8-0.3-1.1c0.7-2,1.6-4,3.2-5.5c0.3-0.3,0.6-0.5,0.9-0.6
		c1.7-0.4,2.9,0.3,3.5,1.9C216.3,165.8,216.4,166.1,216.7,166.7z M212.2,140.9c1.7,0.9,3.5,1.5,4.6,3.3c0.4,0.7,1.1,1.4,1.7,2
		c0.7,0.6,0.9,1.3,0.6,2.2c-0.2,0.5-0.4,1.1-0.4,1.6c0.2,1.5,0.5,3,0.8,4.8c0.2-0.5,0.3-0.8,0.4-1.1c0.4-1,0.7-1.9,1.1-2.9
		c0.5-1.2,1.4-1.6,2.5-0.9c0.5,0.3,1,0.6,1.7,1c-0.1-1.8-0.1-3.4-0.3-5c-0.1-0.8-0.2-1.9-1.2-2.3c-0.9-0.3-1.7-0.6-2.6-0.8
		c-2.2-0.5-4.5-0.8-6.5-2.1C213.9,140,213,140.2,212.2,140.9z M216.3,177.9c0,0.1,0,0.2,0,0.3c0.3,0.1,0.5,0.3,0.8,0.4
		c1,0.4,1.9,0.7,2.9,1.1c3.2,1.2,6.3,1.4,9.6-0.1c2.7-1.2,5.5-4.6,6.2-6.9C229.6,176.2,222.9,176.8,216.3,177.9z M235.6,171.8
		c-0.6-0.1-1.1-0.3-1.6-0.4c-1.8-0.3-3.5-0.4-5,0.7c-1.4,0.9-2.9,1.3-4.5,0.3c-0.6-0.4-1.3-0.2-1.9,0.1c-1.7,0.9-3.4,1.9-5.2,2.8
		c-0.5,0.3-1,0.6-1.7,1C219,177,232.4,174.3,235.6,171.8z M211.9,172.5c0.4-0.3,1-0.7,1.4-1.1c0.7-0.8,1.3-1.7,2-2.5
		c0.9-1.2,0.9-2.2,0-3.4c-1.1-1.6-2.5-1.7-3.6-0.1c-1,1.4-1.7,3-2.6,4.6C210.1,170.8,210.9,171.6,211.9,172.5z M203.9,171.6
		c1.2-2.3,2.4-4.5,3.5-6.6c-0.1-0.1-0.3-0.2-0.4-0.4c-0.8-1.3-3.1-1.4-3.9,0c-0.7,1.3-1.3,2.7-2,4c-0.3,0.5-0.1,0.9,0.3,1.2
		C202.2,170.4,203,171,203.9,171.6z M154.8,193.6c-2.8,2.2-6.3,3.1-9.9,3.7c1.7,1.4,3.4,2.8,4.9,4.1
		C151.4,198.8,153.1,196.2,154.8,193.6z M225,151.7c-0.6-0.4-1.1-0.9-1.8-1.2c-0.5-0.3-1.2-0.3-1.4,0.4c-0.5,1.3-0.9,2.7-1.4,4.1
		c0,0.1-0.1,0.4,0,0.5c1,0.8,1.9,1.5,2.9,2.2c0.1,0,0.2-0.1,0.3-0.1C224.2,155.6,224.6,153.7,225,151.7z M196.9,169.4
		c0.4-0.7,0.8-1.2,1.1-1.8c0.3-0.6,0.4-1.2,0.6-1.7c0.4-0.9,0.8-1.9,1.2-2.8c-1.6-1.2-1.8-1.2-2.8,0.3c-0.7,1-1.3,2.1-1.9,3.1
		c-0.1,0.2-0.1,0.6,0.1,0.9C195.7,168,196.2,168.5,196.9,169.4z M219.7,155.8c-0.2,1.6,1.3,2.7,2.8,2.1
		C221.6,157.2,220.7,156.6,219.7,155.8z"/>
</g>
</svg>
