<?xml version="1.0" encoding="utf-8"?>
<!-- Generator: Adobe Illustrator 19.2.1, SVG Export Plug-In . SVG Version: 6.00 Build 0)  -->
<svg version="1.1" id="Background_copy_2_xA0_Image_1_"
	 xmlns="http://www.w3.org/2000/svg" xmlns:xlink="http://www.w3.org/1999/xlink" x="0px" y="0px" viewBox="0 0 122.1 200"
	 style="enable-background:new 0 0 122.1 200;" xml:space="preserve">
<style type="text/css">
	.st0{fill:#512DA8;}
</style>
<g id="icon-rash">
	<path class="st0" d="M113.8,87c-4-1.7-8.2-3.1-12.3-4.4c-2.4-0.8-5-1.3-7.4-2.2c-0.6-0.2-1.4-1.6-1.2-2.2c1.8-7.4,1.3-15,1.4-22.5
		c0.1-5.9,0.2-11.7,0.1-17.6c-0.1-9.9-2.9-19-7.8-27.7C82.7,4,77.6,0.8,70.2,0.6C65.9,0.5,61.5-0.1,57.1,0c-3.4,0.1-6.5,1.8-9,4.1
		c-4,3.7-7.9,7.4-11.6,11.4c-4.9,5.3-7.6,11.8-8.5,19c-0.9,7.6-1.1,15.2,0.3,22.8c0.7,3.5,1.5,7.1,2.2,10.6c0.6,3.3,0.1,4-3.2,4.1
		c-2.1,0.1-4.2,0.2-6.3,0.1c-3.3-0.1-5.9,1.3-8.2,3.5C9.1,79.4,7.4,84,6.1,89c-1.7,6.6-1.6,13.4-2.6,20c-0.5,3.5-1.1,7-1.3,10.6
		c-0.2,4.5,0.1,9,0,13.5c0,1.1-0.3,2.3-0.8,3.2c-2,3.1-2,4.9,0.3,7.7c0.4,0.5,0.9,1,0.9,1.6c0.7,5.3,1.3,10.6,2,15.8
		c0.3,2.6-0.3,4.9-1.4,7.4c-2.8,6.7-3.6,13.7-3.1,20.9c0.3,3.4,0.2,6.9,0.2,10.3h3.1c-0.3-5.5-0.6-11.1-0.8-16.6
		c-0.2-6.1,1.4-11.8,4.3-17.2c0.3-0.7,1.3-0.9,1.9-1.5c0.5-0.5,0.8-1.2,1.2-1.9c-0.7,0-1.4,0.1-2.1,0.1c-0.1,0-0.2,0.1-0.8,0.2
		c-0.4-3.6-0.8-7.1-1.2-10.8c3.4-0.4,6.6-0.8,9.9-1.2l0.2,0.5c-0.9,0.4-1.9,0.7-2.7,1.3c-1,0.8-2.3,1.8-2.6,2.9
		c-0.6,2.1,0.9,3.6,3.7,3.9c2.2,0.2,4.4,0.2,6.5-1.1c1.7-1,3.5-1.7,5.5-2.7c0.3,1,0.6,1.8,0.7,2.6c0.3,5,0.5,10,0.8,15
		c0.3,4.7-1.9,8.8-2.8,13.1c-1,4.4-1.7,8.8-2.5,13.2h84.9c-1.7-6.9-3.4-13.8-5.2-20.7c-0.5-2.1-0.5-4,0.4-6.1
		c2.3-5.6,4.5-11.3,6.3-17.1c3-10,5.6-20.1,8.5-30.2c1.3-4.7,1.9-9.6,4.6-13.8V95.9C120,92.4,117.8,88.7,113.8,87z M58.6,54.3
		c0.1,0.3,0.2,0.7,0.3,1c-0.1,0.1-0.3,0.2-0.4,0.1c-0.7-0.2-1.7-0.4-1.9-1.2c-0.2-0.9,0.9-1.6,1.7-1.5c0.2,0,0.3,0.1,0.4,0.2
		C58.6,53.3,58.5,53.8,58.6,54.3z M42.6,46.4c-2.1-0.6-4.1-1.2-6.2-1.6c-1.1-0.2-1.8-0.5-1.7-1.7c0.1-0.7,0-1.4-0.1-2.1
		c-0.1-3.1,0.7-4.1,3.6-5.2c2.1-0.8,4.1-1.8,6-2.8c1.4-0.7,2.5-0.6,3.8,0.6c2.3,2.2,4.7,4.3,7,6.4c2,1.8,2.4,4.2,2.7,6.7
		c0,0.3-0.8,0.9-1.3,1c-0.8,0.2-1.8,0-2.6,0.3c-0.5,0.2-0.7,0.9-1.1,1.4c0.5,0.3,1,0.8,1.5,0.8c1.4,0,2.8-0.1,4.2-0.2
		c0.2,0,0.4,0.2,0.7,0.4c-0.1,0.1-0.2,0.2-0.3,0.3c-1.9,0.4-4.6,1.4-3.7,3.8c0.6,1.6,2,2,3.6,2.1c0.1,0.1,0.3,0.2,0.4,0.3
		c0.5,0.3,1.1,0.7,1.2,1.2c1.5,4.8,3,9.7,4.3,14.6c0.4,1.6,0.3,3.3,0.6,4.9c0.4,2.4-0.8,4.1-2.7,5.2c-6.6,3.9-11.7,4.2-16.7-2.5
		c-4.9-6.7-8.7-14.1-11-22.1c-1-3.6-0.7-7.3-0.1-10.9c0.1-0.4,0.9-1,1.2-0.9c2.6,0.3,5.1,0.8,8.2,1.3C43.4,47.1,43,46.5,42.6,46.4z
		 M31.7,76.1c2.3,4.7,3.7,9.6,3.9,14.8c0,0.7-0.4,1.5-0.6,2.2c-0.2,0-0.4-0.1-0.7-0.1c-1.8-6-3.5-11.9-5.3-18
		C30.1,74.4,31,74.8,31.7,76.1z M4.5,120.8c0.5-4.9,1.3-9.7,1.8-14.6c0.4-3.3,0.2-6.8,0.7-10.1c0.6-3.7,1.5-7.4,2.5-11
		c1.2-4.2,3.8-7.5,7.4-9.8c1.9-1.2,2.5-1.1,3.4,1c1.3,3,2.3,6,3.6,9c1.3,3,3.1,5.8,4.1,8.9c1.1,3.2,1.5,6.6,2.1,10
		c0.4,2.3-0.2,4.6-0.8,6.9c-1,3.6-1.5,7.4-2.1,11.2c-0.1,0.5,0.2,1.1,0.4,2.1c-1.5-0.5-2.6-0.8-3.8-1.2c-3-0.9-4.5-0.4-6.2,2.2
		c-0.4,0.5-0.6,1.2-1.1,1.6c-0.5,0.4-1.3,0.9-1.9,0.8c-3.2-0.5-6.4-1.2-10.2-2C4.5,124.4,4.3,122.5,4.5,120.8z M49,188.5
		c-0.2,0.6-0.9,1-1.4,1.5c-1.2-0.4-2.2-0.7-3-1.1c-2.1-1.2-4.1-2.5-6.2-3.7c-1.6-0.9-3.3-1.6-4.9-2.5c-0.6-0.3-1.3-0.5-1.6-0.9
		c-0.3-0.4-0.5-1.3-0.3-1.7c0.2-0.4,1.2-0.7,1.6-0.5c2.2,0.9,4.4,1.9,6.5,3c2.8,1.4,5.6,3,8.3,4.5C48.5,187.4,49.1,188.2,49,188.5z
		 M116.9,120.6c-1.7,6.2-3,12.5-4.9,18.6c-1.9,6.2-2.8,12.6-5.7,18.5c-1.5,3.1-2.4,6.5-3.5,9.9c-2.1,6.8-6.1,12.4-10.8,17.6
		c-2.9,3.2-5.3,3.5-8.9,1.3c-8.5-5.1-16.6-10.9-23.6-18.1c-5-5.1-10.4-9.8-15.4-14.8c-2.7-2.7-5.8-2.8-9-2
		c-3.7,0.9-7.2,2.3-10.8,3.6c-1.2,0.4-2.5,1-3.6,1.7c-1.8,1.2-3.7,1.1-5.7,1c-1.4-0.1-2.5-0.8-2.4-2.4c0.1-1.5,1.2-1.5,2.3-1.6
		c0.9-0.1,1.8-0.1,2.6-0.3c0.9-0.3,2.2-0.4,1.9-1.9c-0.2-1.4-0.9-2.2-2.4-2.1c-3.2,0.1-6.4,0.3-9.5,0.4c-0.7,0-2-0.2-2.1-0.5
		c-0.3-1-0.2-2.2-0.2-3.4c0-0.1,0.4-0.3,0.6-0.4c3.2-0.3,6.4-0.6,9.8-0.9c0.5-1.4,0.2-1.9-1.6-1.8c-2.8,0.2-5.6,0.5-8.3,0.9
		c-1,0.1-1.5-0.1-1.9-1c-0.2-0.5-1-0.9-1.2-1.4c-0.2-0.9-0.4-2-0.1-2.8c0.2-0.5,1.3-0.9,2-0.9c3.1-0.1,6.2,0,9.3,0
		c0.5,0,1-0.5,1.5-0.8c-0.3-0.5-0.5-1.2-0.9-1.5c-2.2-1.8-4.6-2.9-7.5-2.7c-1.5,0.1-2.5-0.4-2.4-2.3c0.1-1.7,0.9-2.5,2.6-2.2
		c3.4,0.6,6.8,1.6,10.2,2c3,0.4,6.1,0.3,9.1,0.2c0.4,0,0.8-0.7,1.2-1.1c-0.4-0.3-0.9-0.7-1.3-0.7c-2.5-0.1-5.1,0-7.6,0
		c0.6-3.9,2-4.7,5.5-3.6c2,0.7,4.2,1.1,6.2,1.7c3.7,1.1,6.2,3.8,9.3,5.9c1.1,0.8,2.4,1.2,3.6,1.8c2.2,1.2,4.5,2.3,6.6,3.8
		c6.9,4.9,13.7,9.9,20.6,14.8c2,1.4,4.3,2.5,6.5,3.5c3.9,1.7,7.8,3.3,11.8,4.9c0.6,0.2,1.4-0.1,2.1-0.1c-0.5-0.5-1-1.1-1.5-1.6
		c-0.6-0.4-1.3-0.7-2.1-1.1c2.6-6.5,5.3-12.7,7.6-19c1-2.9,1.1-6.1,1.7-9.2c0.4-2.1,0.6-4.2,1.2-6.2c1.1-3.2,3.7-5.4,6.8-6
		c3.6-0.6,7.5-0.8,11.1,0.5C117,118.9,117.2,119.3,116.9,120.6z M5.5,134.4c1.3-0.7,4.8,0.3,6.1,1.9c-2.4,0.4-4.4-0.1-6.3-0.7
		C5.2,135.6,5.3,134.5,5.5,134.4z M120.9,109.4c-0.2,1.3-0.7,1.9-2.5,1.6c-4.5-0.7-9-1-13.5-1.3c-5.6-0.4-10.1,2.3-13.3,6.3
		c-3.5,4.3-7.7,6.9-12.8,8.2c-1.2,0.3-2.5,0.7-3.7,0.8c-1.9,0.1-3.9,0-5.8,0c0-1.8,0.1-3.2-0.1-4.5c-0.1-0.6-0.8-1.1-1.2-1.7
		c-0.5,0.6-1.2,1.1-1.4,1.8c-0.3,1-0.1,2.2-0.5,3.2c-0.2,0.5-1.1,1.1-1.6,1c-6.1-0.8-11.9-2.7-16.3-7.1c-4.4-4.4-9.1-8.6-11.1-14.8
		c-0.2-0.6-0.1-1.5,0.3-2c1.4-1.8,2.9-3.4,4.4-5c2-2.3,3.8-4.6,4.8-7.5c0.6-1.7,1.6-2.3,3.5-1.6c2.6,0.9,5.3,2,8,0.8
		c2.1-1,3.9-2.4,5.9-3.6c0.5-0.3,1.1-0.4,1.6-0.6c0.2,0.6,0.6,1.1,0.5,1.7c-0.1,0.7-0.3,1.4-0.7,1.9c-3.2,4.9-5.1,10.6-9.4,14.7
		c-0.1,0.1,0,0.2,0,0.5c2.8,1,5.6,0.6,8.3-0.5c3-1.2,5.9-2.7,8.6-4.4c3.9-2.4,7.7-5.1,11.5-7.8c2.2-1.6,4.3-3.4,6.5-5
		c0.6-0.5,1.5-0.8,2.3-0.8c7.4,0.6,14.6,2.2,21,6.1c4.4,2.7,6.9,7,7.2,12.2C121.5,104.4,121.2,106.9,120.9,109.4z"/>
	<path class="st0" d="M54.8,62.5c0.4,1.2,0.9,2.5,1.2,3.8c0.1,0.4-0.8,1.1-1.3,1.3c-1.2,0.4-2.5,0.4-3.7,0.8c-1.4,0.5-2.7,1-3.8-0.2
		c-2-2-2.1-2.6-0.9-4.8c0.8-1.5,1.7-3,2.2-4.6c0.7-2,1.3-4.3-0.1-6.2c-2.2-3-5.6-4.2-9.2-4.4c-1-0.1-2.2,0.7-3.2,1
		c0.4,0.7,0.9,1.4,1.2,2.2c0.7,1.5,1.5,2.9,3.3,2.9c1.5,0,3.1-0.1,4.6-0.5c2-0.5,2.6-0.3,2.4,1.7c-0.2,1.6-0.7,3.2-1.2,4.8
		c-0.4,1.2-1.1,2.3-1.6,3.4c-1,2.4-0.7,3.4,1.7,5.4c1.5,1.3,3.2,1.1,5,0.5c1.1-0.4,2.4-0.8,3.6-0.9c1.7-0.1,3-1.2,3-2.7
		C57.9,64.1,56.4,62.5,54.8,62.5z M39.4,52.3c-0.8-0.3-1.3-1.2-1.5-2.7c0.7,0.1,1.3,0.1,1.6,0.2c0,0,0,0,0,0c0.1,0,0.2,0,0.4,0
		c0,0,0,0,0.1,0c-0.2,0.1-0.4,0.3-0.5,0.5c-0.3,0.6-0.2,1.4,0.2,2c0,0.1,0.1,0.2,0.2,0.3c0,0,0,0,0,0C39.7,52.6,39.6,52.5,39.4,52.3
		z M44.9,52.4C44.9,52.4,44.9,52.4,44.9,52.4C44.9,52.5,44.9,52.5,44.9,52.4c-0.1,0-0.1,0.1-0.1,0.1c0,0-0.1,0-0.1,0
		c-0.1,0-0.1,0.1-0.2,0.1c-0.2,0.1-0.3,0-0.4-0.1c0,0-0.1,0-0.1-0.1c0,0,0.1-0.1,0.1-0.1c0.2-0.3,0.3-0.7,0.2-0.9
		c0.1-0.1,0.3-0.1,0.5,0c0.1,0.1,0.2,0.2,0.3,0.4c0,0,0,0,0.1,0.1C45.3,52.1,45.1,52.3,44.9,52.4z"/>
	<path class="st0" d="M43.3,70.5c4.3,1.9,8.6,0.7,12.8,1c1.8,0.1,3.6,0.9,5.4,1.4c1.3,0.4,1.2,1.3,0.7,2.3c-1.6,3.3-4.3,5-7.9,5.4
		c-1.3,0.1-2.7,0-4-0.2c-4.3-0.7-5.5-4.2-6.6-7.7C43.6,72.2,43.5,71.5,43.3,70.5z M46.9,72.9c2.7,3.5,8.4,4.7,11.8,2.5
		c0.4-0.3,0.6-0.8,0.9-1.3c-0.6-0.4-1.2-1-1.9-1.1c-3.2-0.2-6.4-0.3-9.7-0.4C47.7,72.6,47.4,72.7,46.9,72.9z M45.4,73.6
		c0.8,3.3,3.2,5.6,5.9,5.6c5.8,0.1,8.4-0.9,9.5-4.1C55,79.6,50,78.9,45.4,73.6z"/>
</g>
</svg>
