<?xml version="1.0" encoding="utf-8"?>
<!-- Generator: Adobe Illustrator 19.2.1, SVG Export Plug-In . SVG Version: 6.00 Build 0)  -->
<svg version="1.1" id="Layer_1" xmlns="http://www.w3.org/2000/svg" xmlns:xlink="http://www.w3.org/1999/xlink" x="0px" y="0px"
	 viewBox="0 0 150 135.8" style="enable-background:new 0 0 150 135.8;" xml:space="preserve">
<style type="text/css">
	.st0{fill:#2E7D32;}
</style>
<g id="icon-backpain">
	<path class="st0" d="M96.4,135.8c-0.5-1.1-1-2.2-1.5-3.4c-0.7-1.6-0.9-3.3-1.2-4.9c-0.1-1-0.3-1.9-0.4-2.9c0-0.1-0.2-0.3-0.3-0.3
		c-0.1,0-0.3,0.1-0.3,0.2c-0.4,0.8-1.1,1.3-1.9,1.6c-1.9,0.7-3.9,1.4-5.7,2.2c-1.4,0.6-2.9,0.7-4.4,0.5c-0.9-0.1-1.5-0.9-1.4-1.8
		c0.1-0.5-0.1-0.6-0.5-0.5c-0.6,0.1-1.3,0.1-1.9,0.1c-1.4,0-1.7-0.6-1.9-1.7c-0.1-0.8,0-1.5,0.8-2c0.2-0.1,0.3-0.2,0.5-0.3
		c1.1-0.2,2.1-0.4,3.2-0.5c1.1-0.2,2.3-0.2,3.4-0.4c1.1-0.2,2.2-0.5,3.3-0.7c0.3-0.1,0.6-0.2,0.8-0.4c-0.9,0.2-1.7,0.4-2.6,0.6
		c-2.2,0.4-4.4,0.8-6.6,0.9c-1,0.1-1.9,0-2.8-0.3c-0.9-0.3-1.3-1.2-1.1-2.1c0.2-0.9,0.9-1.4,1.7-1.6c1-0.4,2,0,3.1-0.1
		c0.8,0,1.7,0.1,2.5-0.1c1.9-0.4,3.8-0.9,5.7-1.3c0.2,0,0.3-0.1,0.6-0.2c-1.6,0-3.1,0.1-4.6,0.1c-1.7,0-3.3,0-4.9-0.4
		c-0.5-0.1-1-0.2-1.3-0.5c-1.2-0.8-1-2.3-0.1-3.1c0.7-0.6,1.6-0.7,2.5-0.5c1,0.3,2,0.2,3,0.1c1.1-0.1,2.3-0.2,3.4-0.4
		c0.3,0,0.5-0.1,0.8-0.2c0.5-0.3,1-0.5,1.5-0.9c0.3-0.2,0.4-0.5,0.7-0.7c0.8-0.8,1.7-1.6,2.5-2.5c0.8-0.9,1.6-1.7,2.3-2.7
		c0.6-1,1.3-1.9,2.4-2.5c0.8-0.4,1-1.2,1.1-1.9c0.1-1.1,0.2-2.2,0.3-3.4c0.2-1.6,0.5-3.2,0.7-4.8c0.3-2.1,1.2-4,1.8-6.1
		c0.3-1.1,0.8-2.1,1.1-3.2c0.2-0.6,0.2-1.2,0.3-1.8c0-0.1,0.1-0.2,0.1-0.4c0.6-1.7,1.2-3.3,1.8-4.9c0.4-1.2,1-2.3,1.4-3.5
		c0.8-2.3,1.4-4.6,2.2-6.8c0.6-1.7,1.3-3.4,2-5c0.2-0.5,0.4-0.9,0.7-1.3c0.1-0.1,0.3-0.2,0.5-0.2c0.1,0,0.2,0.3,0.3,0.4
		c0,0.1-0.1,0.3-0.1,0.4c-0.3,0.6-0.6,1.1-0.8,1.8c-0.2,1-0.7,1.9-1,2.8c-0.2,0.7-0.5,1.4-0.7,2.1c1-0.4,2-0.8,2.9-1.3
		c1.6-0.8,3.3-1.5,4.9-2.3c0.2-0.1,0.4-0.1,0.6-0.1c0.1,0,0.3,0.2,0.3,0.3c0,0.1-0.1,0.3-0.2,0.4c-0.4,0.3-0.9,0.5-1.3,0.7
		c-1,0.5-2,0.9-3.1,1.4c-0.2,0.1-0.4,0.2-0.6,0.3c-1.1,0.7-2.3,0.9-3.5,1.4c-0.6,0.2-0.9,0.5-0.9,1.2c0,0.4-0.2,0.8-0.2,1.3
		c-0.1,0.5,0.2,0.8,0.5,1c1.9,1.2,3.8,2.5,5.7,3.7c0.4,0.2,0.7,0.5,1,0.8c0.6,0.6,1.2,1,2,1.2c1.8,0.6,3.6,0.8,5.5,1.2
		c0.8,0.2,1.6,0.2,2.3,0.4c0.6,0.1,1.2,0.5,1.5,1.1c0.2,0.4,0.6,0.8,0.9,1.2c0.1,0.1,0.4,0.2,0.6,0.2c1.6,0.1,3.1,0.2,4.7-0.2
		c0.5-0.1,1.1-0.1,1.7-0.1c0.5,0,0.9-0.1,1.4-0.2c0.2,0,0.3-0.2,0.5-0.2c0.2,0,0.5-0.1,0.6,0c0.1,0.1,0.3,0.4,0.2,0.5
		c-0.1,0.2-0.3,0.3-0.5,0.3c-1.3,0.2-2.5,0.4-3.8,0.5c-1.5,0.2-3,0.2-4.5,0.2c-0.4,0-0.8-0.1-1.2-0.1c-0.2,0-0.4,0-0.5,0.2
		c-0.8,1-1.7,1.9-2.4,2.9c-0.8,1.2-1.8,2.1-2.9,3c-0.6,0.4-1.1,1-1.5,1.5c-0.8,0.9-1.8,1.6-2.8,2.3c-1.2,0.8-2.3,1.8-3.5,2.6
		c-1.3,0.8-2.6,1.6-3.9,2.3c-1.1,0.6-2.1,1.4-3.1,2.1c-1.1,0.9-2.3,1.7-3.4,2.5c-0.5,0.4-0.9,0.8-1.5,1.1c-0.8,0.4-1.6,0.6-2.4,0.9
		c-0.5,0.1-1,0.1-1.5,0.3c-0.3,0.1-0.5,0.3-0.7,0.5c-0.9,1-1.7,1.9-2.5,2.9c-0.3,0.4-0.5,0.8-0.8,1.1c-0.6,0.7-1.4,1.2-2,1.9
		c-0.3,0.3-0.6,0.7-1,1c0.2,0.2,0.5,0.2,0.6,0.4c0.1,0.1,0.1,0.3,0.1,0.5c-0.1,0-0.3,0-0.4,0c-0.2-0.1-0.4-0.2-0.6-0.3
		c-0.8,0.4-1.6,0.9-2.4,1.3c-0.4,0.2-0.9,0.2-1.3,0.2c-0.9,0.1-1.9,0.2-2.9,0.3c-1.2,0.1-2.3,0.2-3.5-0.2c-0.5-0.1-0.9,0-1.3,0.3
		c0.9,0.4,1.2,1.1,1.2,2c0,0.4,0.3,0.5,0.6,0.6c1.4,0.4,2.8,0.3,4.2,0.3c0.3,0,0.5,0,0.8,0c0.5,0.1,0.8,0,0.9-0.6
		c0.1-0.5,0.2-0.5,0.7-0.3c0.1,0,0.2,0,0.3,0.1c0,0.1,0,0.3,0,0.4c0,0.3,0.1,0.4,0.4,0.4c0.5,0,1-0.1,1.5-0.1
		c1.2-0.1,2.3-0.1,3.5-0.2c0.2,0,0.3,0.1,0.5,0.2c-0.1,0.2-0.2,0.4-0.4,0.6c0,0-0.1,0-0.2,0.1c-2.4,0.3-4.7,1.1-7,1.5
		c-1.3,0.3-2.7,0.6-4.1,0.7c-0.9,0.1-1.8-0.1-2.7-0.2c-0.8-0.1-1.9,0.2-2.4,0.8c0.3,0.1,0.7,0.1,1,0.2c0.6,0.2,1,0.5,1.1,1.3
		c0.1,0.8,0.3,0.8,1.1,0.8c2,0,3.9-0.4,5.9-0.7c0.2,0,0.3-0.1,0.5-0.1c0-0.3-0.1-0.5-0.1-0.7c0.1-0.2,0.3-0.4,0.4-0.6
		c0.1,0.2,0.2,0.3,0.3,0.5c0.1,0.2,0,0.4,0.1,0.7c1.4-0.4,2.7-0.9,4-1.3c0.1,0.5-0.1,0.8-0.4,1.1c-1,1.2-2.4,1.5-3.9,1.7
		c-1.1,0.2-2.3,0.5-3.4,0.6c-1,0.1-1.9,0.1-2.9,0.2c-0.6,0.1-1.2,0.2-1.8,0.4c-0.2,0.1-0.4,0.4-0.6,0.6c0,0,0.1,0.1,0.1,0.1
		c0.3,0,0.6,0,0.9,0c0.6,0,1.1,0.5,1.2,1.1c0.1,0.9,0.1,1,1,0.9c1.5-0.2,2.9-0.5,4.4-0.7c0.5-0.1,1.1-0.2,1.6-0.4
		c0.2,0,0.3-0.2,0.4-0.4c0.1-0.3,0-0.5,0.1-0.8c0-0.2,0.2-0.3,0.3-0.4c0.1,0.2,0.3,0.3,0.3,0.5c0.1,1,0.1,1,1,0.7
		c0.8-0.3,1.5-0.7,2.2-1c0.1-0.1,0.3,0,0.4,0c-0.2,0.8-0.8,0.9-1.3,1.1c-1.9,0.6-3.8,1.2-5.8,1.8c-0.4,0.1-0.9,0-1.3,0.1
		c-0.6,0.1-1.3,0.1-1.5,0.9c-0.1,0.2-0.1,0.4-0.1,0.7c0.5-0.3,0.9-0.5,1.3-0.7c0.9-0.4,1.6-0.1,2.3,0.4c0.3,0.3,0.7,0.3,1,0.1
		c0.8-0.3,1.6-0.6,2.4-0.9c0.4-0.2,0.9-0.3,1.4-0.4c1-0.4,2.2-0.8,3-1.5c1.1-0.8,1.6-2.1,1.7-3.4c0.1-0.8,0.3-1.5,1-2
		c0.3-0.2,0.5-0.6,0.7-0.9c0.3-0.5,0.6-1.2,1-1.7c0.4-0.5,0.9-1,1.4-1.4c0.9-0.7,1.6-1.6,2.2-2.6c0.6-0.9,1.1-1.8,1.6-2.7
		c0.1-0.1,0.2-0.3,0.4-0.4c0.4-0.2,0.3-0.5,0.1-0.7c-0.5-0.6-1.1-1.2-1.6-1.8c-0.1-0.2-0.4-0.3-0.1-0.5c0.2-0.1,0.5-0.2,0.7-0.1
		c0.6,0.5,1.2,0.9,1.6,1.5c0.7,0.8,0.8,0.8,1.7,0.5c1.3-0.5,2.7-0.9,4-1.4c1.3-0.5,2.5-1.2,3.8-1.6c2.3-0.8,4.6-1.4,6.9-2.1
		c1.6-0.5,3.3-0.9,4.9-1.6c1.4-0.5,2.8-1.3,4.1-2c2.2-1.1,4.3-2.5,6.5-3.5c1.4-0.7,2.8-1.5,4.1-2.3c0.4-0.2,0.8-0.3,1.2-0.6
		c1-0.6,2-1.2,2.9-1.9c1.4-1,2.8-2,4.2-3.1c0.5-0.4,0.9-1,1.3-1.5c0.2-0.3,0.5-0.6,0.7-0.8c0.9-0.8,1-1.7,0.5-2.7
		c-0.2-0.4-0.4-0.8-0.6-1.2c-0.1-0.1-0.1-0.3-0.1-0.4c0-1.4-0.7-2.5-1.4-3.6c-0.3-0.6-0.7-1.2-0.9-1.8c-0.5-1.2-1.4-2.2-2.3-3.1
		c-0.8-0.7-1.7-1.3-2.5-1.9c-0.2-0.2-0.5-0.4-0.7-0.6c-0.6-0.6-1.3-1.2-1.9-1.9c-0.4-0.5-0.8-1.1-1.2-1.6c-0.2-0.3-0.4-0.7-0.7-1
		c-0.5-0.6-1.1-1.3-1.6-1.9c-0.7-0.8-1.4-1.6-2.1-2.3c-1.2-1.3-2.4-2.6-3.8-3.8c-1.3-1-2.7-1.8-4.2-2.4c-0.9-0.4-1.8-0.7-2.7-1.1
		c-0.7-0.3-1.5-0.7-2.2-1c-0.8-0.4-1.5-1-2.1-1.7c-0.6-0.6-1.2-1.2-1.8-1.8c-0.6-0.6-1.1-1.1-1.7-1.7c-0.4-0.4-0.8-0.8-1.2-1.2
		c-0.5-0.5-1.1-0.8-1.8-1.1c-0.7-0.4-1.4-0.9-2.1-1.3c-1-0.6-2-1-3.1-1.2c-1.6-0.2-3.1-0.5-4.7-0.7c-1.1-0.2-2.2-0.3-3.3-0.4
		c-0.7-0.1-1.4-0.1-2-0.1c-2-0.1-3.9-0.5-5.5-1.7c-1.8-1.4-3.9-1.9-6-2.5c-0.9-0.3-1.8-0.3-2.7-0.3c-1.2,0-2.4-0.1-3.5-0.4
		c-1.8-0.5-3.5-0.9-5.3-1.4c-0.6-0.2-1.1-0.6-1.5-0.9c-1-0.9-1.9-1.9-2.4-3.2c-0.5-1.1-0.8-2.4-1.3-3.5c-0.3-0.7-1-1.1-1.7-1.3
		c-1-0.2-2-0.3-2.9-0.4c-1-0.1-2.1,0-3.1,0c-1.5,0-2.9,0.3-4.3,0.6c-0.4,0.1-0.8,0.2-1.2,0.4c-0.4,0.2-0.8,0.5-1.2,0.8
		c0.5,0,0.9,0.1,1.4,0c2.1-0.4,3.9,0.4,5.6,1.5c0.6,0.4,0.5,1,0.3,1.7c0.7,0.3,1.3,0.5,2,0.8c0.6,0.3,1.2,0.6,1.8,0.9
		c0.6,0.3,0.9,1.3,0.6,1.9c-0.1,0.1-0.1,0.2-0.2,0.3c0.2,0.2,0.4,0.3,0.7,0.5c0.5,0.3,0.7,0.7,0.6,1.3c-0.1,0.5-0.4,0.8-0.9,0.9
		c-0.5,0.1-0.6,0.3-0.6,0.8c0,0.9-0.7,1.4-1.7,1.4c-1,0-2-0.1-2.9-0.5c-0.3-0.1-0.7-0.1-1-0.1c-0.6,0-1.3,0-1.9,0
		c-1.1,0-2.1,0.3-3,1.1c-0.1,0.1-0.3,0.2-0.5,0.3c-0.4,0.3-0.8,0.7-1.1,1c-0.6,0.6-1.2,1.3-1.8,2c-0.3,0.3-0.5,0.6-0.8,0.9
		c-1.1,1.1-2.3,2-3.8,2.3c-0.4,0.1-0.8,0.2-1.2,0.3c-1.4,0.6-2.7,1.2-4.2,1.7c-0.8,0.3-1.8,0.4-2.6,0.4c-2,0-3.9,0.2-5.7,0.8
		c-1.4,0.4-2.7,1.2-3.9,2c-1.4,0.9-2.8,2-3.9,3.2c-1,1.1-2,2.2-3,3.4c-0.3,0.3-0.4,0.8-0.7,1.1c-0.6,0.6-1.2,1-1.8,1.6
		c-0.2,0.1-0.3,0.3-0.4,0.4C18.2,63,18,63,17.7,62.9c-0.3-0.2-0.1-0.5,0-0.6c0.4-0.3,0.7-0.7,1.1-1c0.1-0.1,0.3-0.2,0.4-0.3
		c-1,0.1-2.1,0.2-3.1,0.3c-1.7,0.2-3.4,0.5-5.1,0.8c-0.5,0.1-1.1,0.2-1.6,0.2c-1.1,0-2.2,0-3.3,0c-0.5,0-0.9,0.1-1.4,0.1
		c-0.3,0-0.6-0.1-0.5-0.5c0-0.2,0.4-0.4,0.7-0.4c1.7-0.1,3.4,0,5.2-0.1c1.4-0.1,2.8-0.4,4.2-0.6c0.8-0.1,1.7-0.1,2.5-0.2
		c1.2-0.1,2.4-0.2,3.5-0.8c0.1,0,0.1-0.1,0.2-0.1c0.6-0.8,1.3-1.5,1.9-2.3c0.6-0.7,1.2-1.4,1.8-2c1.5-1.6,3.3-2.7,5.1-3.8
		c1.8-1.1,3.8-1.5,5.8-1.8c0.8-0.1,1.6,0,2.4-0.1c0.6-0.1,1.1-0.4,1.7-0.6c1-0.4,2-0.8,3.1-1.1c0.8-0.2,1.6-0.2,2.4-0.5
		c0.9-0.2,1.7-0.5,2.6-0.9c0.5-0.2,1-0.6,1.4-1c0.2-0.1,0.3-0.4,0.5-0.6c-1.2-0.4-1.8-1.3-1.8-2.6c-0.2,0.4-0.4,0.6-0.6,0.9
		c-0.2,0.4-0.4,0.9-1,0.7c0.3-0.5,0.6-1.1,1-1.7c0.8-1.3,2.8-2.1,4.2-1.2c0.6,0.4,1.2,0.4,1.9,0.1c0.6-0.3,1.1-0.5,1.7-0.8
		c0.3-0.1,0.3-0.4,0.3-0.6c0-0.2-0.1-0.4-0.1-0.6c0.4-0.1,0.6-0.1,0.6,0.3c0,0.4,0.2,0.5,0.7,0.4c0.6-0.1,1.2,0,1.8,0.1
		c0.1,0,0.3,0,0.4,0c0.6-0.1,0.7-0.2,0.6-0.9c0-0.1,0.1-0.3,0.2-0.4c0.1,0.1,0.2,0.2,0.3,0.3c0,0,0,0.1,0,0.1
		c-0.1,0.9,0.6,0.9,1.1,1.1c0.8,0.3,1.7,0.5,2.6,0.3c0.1,0,0.2-0.1,0.3-0.1c0.1,0,0.2-0.1,0.3-0.2c-0.6-0.2-1.2-0.4-1.7-0.7
		c-0.5-0.2-0.7-0.6-0.6-1.1c0.1-0.5-0.2-0.7-0.9-0.9c-1.3-0.3-2.5-0.6-3.8-0.9c-0.6-0.1-1.2-0.1-1.7-0.2c0,0.3,0,0.5-0.1,0.7
		c0,0.1-0.2,0.2-0.3,0.2c-0.1,0-0.2-0.2-0.2-0.3c-0.1-0.6-0.1-0.6-0.7-0.5c-1.1,0.2-2.1,0.5-3.2,0.7c-0.3,0.1-0.7,0.1-1,0
		c-0.1,0-0.2-0.1-0.3-0.2c0.1-0.1,0.1-0.2,0.2-0.2c1.4-0.3,2.8-0.6,4.3-0.8c1.2-0.2,2.3-0.2,3.5,0.2c1.1,0.4,2.3,0.5,3.5,0.8
		c0.4,0.1,0.8,0.4,1.2,0.5c0.7,0.3,1.3,0.6,2,0.9c0.3,0.1,0.6,0,0.9,0c0,0,0-0.1,0-0.1c-0.4-0.2-0.9-0.3-1.3-0.5
		c-0.7-0.4-1.1-0.6-0.7-1.8c-0.2-0.1-0.5-0.2-0.7-0.3c-1.9-0.7-3.9-0.9-5.9-1.3c-0.1,0-0.3,0-0.4,0c-0.3,0-0.4,0.1-0.4,0.4
		c0,0.2-0.1,0.3-0.2,0.5c-0.1-0.1-0.2-0.3-0.2-0.4c0-0.4-0.3-0.4-0.6-0.4c-1.1,0.1-2.2,0.2-3.3,0.4c-0.4,0-0.8,0.2-1.1,0.2
		c-0.2,0-0.3,0-0.5,0c-0.1-0.4,0-0.5,0.3-0.6c1.3-0.2,2.6-0.4,4-0.6c1.3-0.2,2.7-0.1,4,0.2c1,0.2,2.1,0.4,3.2,0.6
		c0.2,0,0.4,0.1,0.6,0.2c0.1-0.5,0.1-1,0.2-1.5c-0.6-0.2-1.2-0.5-1.8-0.6c-1.1-0.3-2.3-0.6-3.4-0.9c-0.5-0.1-1-0.1-1.5-0.1
		c-0.1,0-0.2,0.2-0.3,0.4c-0.1,0.2-0.2,0.6-0.3,0.6c-0.4,0-0.3-0.4-0.3-0.7c0-0.1,0-0.2,0-0.3c-0.3,0.1-0.6,0.1-0.8,0.2
		c-1.1,0.4-2.3,0.7-3.4,1.1c-0.4,0.1-0.7,0.2-1.1,0.3c-0.1,0-0.3-0.2-0.3-0.2c0-0.1,0.1-0.3,0.2-0.3c0.9-0.3,1.9-0.6,2.8-0.8
		c0.8-0.2,1.5-0.5,2.3-0.6c1.1-0.2,2.2-0.3,3.3,0c0.2,0.1,0.4,0.1,0.6,0.1c0-0.4,0.1-0.9,0.1-1.4c-1.8-0.7-3.7-0.6-5.7-0.1
		c0,0.3,0,0.6,0,0.9c0,0.1-0.1,0.2-0.2,0.3c-0.1-0.1-0.3-0.1-0.3-0.2c-0.1-0.2-0.1-0.5-0.2-0.8c-0.4,0.2-0.7,0.3-1.1,0.5
		c-1,0.6-2.1,1.1-3,1.9c-1.7,1.3-3.1,2.9-4.2,4.8c-0.2,0.3-0.3,0.7-0.4,1.1c-0.3,0.6-0.5,1.3-0.9,1.9c-0.2,0.3-0.5,0.6-0.8,0.7
		c-1,0.5-1.7,1.3-2.6,1.9C38,43.4,37,44,36.1,44.6c-1.3,0.9-2.7,1.8-4.1,2.6c-0.8,0.5-1.6,0.9-2.4,1.4c-1.3,0.8-2.5,1.6-3.8,2.3
		c-1.1,0.6-2.2,1-3.3,1.6c-1.1,0.5-2.2,1.1-3.3,1.6c-1,0.5-2,1-3.1,1.4c-1.5,0.6-3.1,1.2-4.7,1.8c-1.1,0.4-2.3,0.6-3.5,0.8
		c-1.8,0.4-3.3,1.3-4.7,2.5c-1.6,1.4-2.1,3.2-2.2,5.2c0,1.3,0.1,2.7,0.1,4c0,0.8-0.3,1.6-0.4,2.4c-0.2,1.6-0.2,3.2,1.2,4.3
		c0.8,0.7,1.6,1.3,2.5,1.9c1.4,0.8,2.6,1.8,4,2.7c0.3,0.2,0.7,0.2,1,0.3c0.6,0.2,1.1,0.4,1.7,0.5c1.5,0.4,3,0.3,4.5-0.2
		c2.3-0.6,4.6-1.2,6.9-1.8c0.4-0.1,0.8-0.3,1.2-0.4c0.8-0.3,1.6-0.7,2.3-1.1c0.5-0.3,1-0.7,1.4-1c0.7-0.6,1.4-1.1,2.3-1.4
		c0.5-0.2,1-0.4,1.5-0.6c1.6-0.7,2.9-0.3,3.9,0.9c0.4,0.4,0.6,1,0.8,1.5c1.1,2.2,1.8,4.5,2.1,6.9c0.3,2.2,0.5,4.3,0.7,6.5
		c0.2,1.7,0.4,3.4,0.6,5.1c0.2,1.4,0.2,2.8,0.4,4.2c0.2,1.4,0.4,2.8,0.7,4.1c0.4,1.6,0.4,3.1,0.4,4.7c0.1,2.1,0.2,4.2,0.6,6.3
		c0.1,0.8,0,1.7-0.2,2.5c-0.3,1.7-0.7,3.4-1.1,5c-0.4,1.6-0.9,3.1-1.3,4.7c-0.3,1.3-0.7,2.6-0.9,3.9c-0.2,1.3-0.2,2.7-0.3,4
		c-0.3,0-0.5,0-0.8,0c0-1.9,0.2-3.8,0.6-5.7c0.6-2.4,1.3-4.8,1.9-7.2c0.4-1.8,0.9-3.5,1.2-5.3c0.1-0.8,0-1.7-0.1-2.6
		c-0.1-0.9-0.2-1.8-0.3-2.7c-0.1-1.3-0.2-2.6-0.2-3.8c0-1.7-0.3-3.3-0.6-5c-0.2-1.2-0.4-2.3-0.5-3.5c-0.1-0.9-0.3-1.9-0.4-2.8
		c-0.1-0.9-0.2-1.8-0.3-2.7c-0.1-1-0.3-2.1-0.4-3.1c-0.1-0.7-0.1-1.5-0.2-2.2c-0.1-1.2-0.3-2.4-0.5-3.5c-0.2-1.2-0.4-2.5-0.7-3.7
		c-0.3-1.5-0.9-2.9-1.7-4.3c-0.3-0.5-0.6-1-1.1-1.3c-0.6-0.3-1.3-0.2-1.9-0.2c-1,0.1-1.6,0.7-2.4,1.2c-1.4,0.8-2.7,1.6-4.1,2.3
		c-1.8,0.9-3.7,1.3-5.6,1.8c-2,0.5-3.9,1-5.9,1.4c-1.2,0.2-2.4,0.1-3.6-0.2c-0.4-0.1-0.9-0.2-1.3-0.3c-1-0.2-1.9-0.7-2.6-1.3
		c-1-0.8-2-1.4-3-2.1c-1.3-0.9-2.6-1.9-3.3-3.3c-0.5-0.9-0.5-1.9-0.4-2.9c0.2-1.2,0.3-2.4,0.4-3.5c0.1-1.2-0.1-2.5-0.1-3.7
		c0-1.5,0.4-3,1.3-4.2c0.6-0.8,1.4-1.4,2.1-2c1.4-1.1,3-1.6,4.7-2c1.9-0.4,3.7-1.1,5.5-1.7c2-0.7,3.9-1.6,5.8-2.6
		c1-0.5,2.2-1,3.3-1.4c1.8-0.7,3.4-1.7,5-2.8c1.1-0.7,2.3-1.3,3.4-2c1.4-0.9,2.8-1.8,4.2-2.8c0.8-0.5,1.7-1,2.5-1.5
		c0.4-0.3,0.7-0.6,1.1-0.9c0.7-0.5,1.4-1.1,2.1-1.6c0.3-0.2,0.4-0.4,0-0.7c-0.2-0.2-0.4-0.5-0.5-0.8c-0.6-1.1-1.1-2.2-1.7-3.3
		c-0.8-1.6-1-3.3-1-5.1c0-2.3-0.8-4.4-2.2-6.2c-0.5-0.7-1.1-1.4-1.4-2.2c-0.3-0.7-0.4-1.6-0.5-2.4c-0.1-0.9,0-1.8,0-2.7
		c0.1-1.5,0.3-3,0.8-4.4c0.3-0.9,0.6-1.8,1-2.7c0.3-0.7,0.9-1.2,1.3-1.8c0.5-0.6,1-1.2,1.4-1.8c0.6-0.8,1.4-1.5,2.3-2
		c1.1-0.7,2.2-1.5,3.3-2.1c1.1-0.6,2.3-1,3.4-1.4c0.4-0.2,0.9-0.2,1.4-0.2C50.1,0.1,51.4,0,52.6,0c0.8,0,1.6,0.2,2.5,0.3
		c1.3,0.2,2.6,0.5,3.8,0.8c0.5,0.1,1.1,0.2,1.6,0.5c0.4,0.2,0.8,0.2,1.2,0.4c0.4,0.2,0.9,0.3,1.2,0.6C63.4,3,64,3.5,64.5,4
		c1.4,1.5,2,3.4,2.6,5.3c0.3,0.9,0.7,1.7,0.9,2.6c0.2,1,0.3,2,0.5,3.1c0.4,2,0.4,4,0.6,6c0,0.6,0.2,1.1,0.8,1.5
		c1,0.4,1.2,1.4,1.3,2.3c0.2,1.2,0.2,2.3-0.1,3.5c-0.3,1-0.7,2-1.1,3c-0.3,0.6-0.2,1.1,0.2,1.8c0.6,1,1.4,1.7,2.3,2.4
		c0.4,0.3,0.9,0.4,1.4,0.5c1.3,0.4,2.6,0.8,3.9,1.1c1.1,0.2,2.2,0.6,3.4,0.5c2-0.1,3.8,0.4,5.7,1c1.1,0.4,2.1,0.8,3.1,1.3
		c0.5,0.2,0.8,0.6,1.3,0.9c1.5,0.8,3.1,1.2,4.8,1.2c1,0,2,0.2,3,0.3c0.7,0.1,1.4,0.1,2.2,0.2c1,0.1,2.1,0.3,3.1,0.4
		c0.8,0.1,1.5,0.2,2.3,0.5c0.7,0.2,1.4,0.4,2,0.8c0.9,0.5,1.7,1.1,2.6,1.6c0.5,0.3,1.1,0.5,1.6,0.9c0.3,0.2,0.5,0.4,0.7,0.6
		c1,0.9,2,1.7,3,2.7c0.6,0.6,1.1,1.3,1.6,1.9c0.5,0.5,1,1,1.6,1.3c1.6,0.8,3.2,1.5,4.9,2.2c1.2,0.5,2.4,1,3.5,1.7
		c0.8,0.5,1.6,1.2,2.3,1.8c1.2,1.2,2.4,2.4,3.6,3.6c1.1,1.2,2.2,2.5,3.2,3.7c0.4,0.5,0.8,1.1,1.2,1.6c0.5,0.6,1.1,1.2,1.6,1.8
		c0.1,0.1,0.1,0.1,0.2,0.2c0.9,1.1,2,1.9,3.1,2.7c1.1,0.8,2,1.8,2.6,3c0.9,1.6,1.9,3.1,2.4,4.9c0.1,0.5,0.4,0.9,0.6,1.4
		c0.3,1.1,0.7,2.1,0.9,3.2c0.2,0.8-0.3,1.5-0.8,2.1c-1.8,2.1-3.9,3.9-6.4,5.1c-0.4,0.2-0.7,0.5-1.1,0.7c-1.1,0.7-2.3,1.3-3.4,1.9
		c-1.4,0.8-2.8,1.6-4.3,2.4c-2.4,1.3-4.8,2.6-7.3,3.9c-1,0.6-2.1,1.1-3.2,1.5c-1,0.4-2,0.6-3,0.9c-2.2,0.7-4.3,1.3-6.5,2
		c-0.8,0.2-1.5,0.4-2.3,0.7c-1.5,0.6-2.9,1.3-4.4,1.8c-1.2,0.5-2.5,0.8-3.7,1.3c-0.9,0.3-1.5,0.9-2.1,1.6c-1.1,1.3-2.1,2.5-3.2,3.8
		c-0.6,0.8-1.4,1.5-2,2.2c-0.3,0.3-0.4,0.8-0.6,1.2c-0.5,0.7-1.1,1.5-1.6,2.1c-0.3,0.4-0.4,0.7-0.4,1.2c0.1,1,0.2,2.1,0.4,3.1
		c0.5,2.5,0.7,5.1,1.6,7.5c0.4,1,0.8,1.9,1.1,2.9c0.1,0.2,0.1,0.5,0.2,0.8C96.9,135.8,96.6,135.8,96.4,135.8z M124.3,80.7
		c-0.1-0.3-0.2-0.5-0.3-0.7c-0.1-0.2-0.2-0.4-0.3-0.5c-0.7-0.3-1.4-0.6-2.2-0.8c-0.6-0.2-1.3-0.2-2-0.3c-0.9-0.2-1.8-0.3-2.7-0.5
		c-1-0.3-1.9-0.5-2.8-0.9c-0.9-0.5-1.6-1.2-2.4-1.7c-0.8-0.5-1.6-0.9-2.4-1.4c-1.2-0.8-2.4-1.7-3.6-2.5c-0.2-0.2-0.4-0.2-0.6,0.1
		c-0.1,0.2-0.2,0.5-0.3,0.8c-0.4,1.1-0.9,2.2-1.2,3.3c-0.7,2-1.4,4-2.1,6.1c-0.4,1.2-0.6,2.5-1,3.8c-0.3,1-0.8,2-1.2,3.1
		c-0.4,1.5-0.8,2.9-1.1,4.4c-0.3,1.6-0.5,3.3-0.7,4.9c-0.1,0.5-0.1,0.9-0.2,1.4c-0.2,1-0.4,2-0.6,3c0,0,0.2,0,0.3,0
		c1-0.3,2-0.6,2.8-1.3c1.3-1.1,2.7-2,4-2.9c0.7-0.5,1.3-1.1,2-1.5c2.2-1.3,4.6-2.5,6.6-4.1c1.8-1.4,3.8-2.7,5.4-4.4
		c0.5-0.6,1.1-1,1.6-1.6c0.5-0.5,1-0.9,1.5-1.5c0.8-0.9,1.6-1.9,2.3-2.9C123.6,81.5,124,81,124.3,80.7z M39,20.6
		c-0.1,0.1-0.1,0.1-0.2,0.2c0.2,0.5,0.3,1.2,0.6,1.6c0.6,0.8,0.9,1.7,1.2,2.6c0.4,1.3,0.4,2.5,0.1,3.8c-0.1,0.6-0.6,0.9-1.2,0.8
		c-0.1,0-0.3-0.1-0.4-0.1c-0.5,3.6,1.3,6.4,3,9.3c1.5-4.1,4.3-6.7,8-8.7c-0.3-0.1-0.5-0.2-0.7-0.3c-0.6-0.2-1.1-0.6-1.5-1.2
		c-0.5-0.8-1-1.7-1.5-2.5c-0.8-1.2-1.6-2.4-2.4-3.6c-0.4-0.6-0.9-1.1-1.7-1.2c0.5,2.4,1,4.8,1.5,7.3c0.6-0.6,0.5-1.3,0.4-2
		c-0.1-0.6-0.3-1.2-0.4-1.8c-0.1-0.3,0-0.5,0.4-0.4c0.2,0.7,0.4,1.4,0.5,2.1c0.2,0.8,0.2,1.6-0.3,2.4c-0.3,0.4-0.7,0.9-0.5,1.6
		c0.1,0.4-0.4,1-0.7,1.2c-0.5,0.2-1-0.1-1.3-0.5c-0.4-0.5-0.3-1.1-0.3-1.8c0-0.8,0.1-1.7,0-2.5c-0.1-0.8-0.3-1.6-0.5-2.4
		c-0.3-1.3-0.9-2.5-1.7-3.6C39.4,20.7,39.2,20.7,39,20.6z M38.9,20.1c0.4-0.2,0.8-0.1,1,0.3c0.5,0.9,1.1,1.8,1.5,2.8
		c0.5,1.2,0.8,2.6,0.9,3.9c0,0.7,0,1.4,0,2.2c0,0.6-0.2,1.2,0.3,1.6c0.1,0.1,0.4,0.2,0.5,0.2c0.2-0.1,0.4-0.3,0.4-0.5
		c0.1-1.1-0.1-2.2-0.3-3.2c-0.2-1.3-0.5-2.6-0.7-3.9c-0.2-1.2-0.5-2.4-1.2-3.4c-0.4-0.5-0.8-1.1-1.6-0.9
		C38.9,19.3,38.8,19.3,38.9,20.1z M69.2,31.3c0.1,0,0.1,0,0.2,0.1c0.2-0.6,0.4-1.3,0.7-1.9c0.7-1.4,0.7-2.9,0.6-4.4
		c0-0.5-0.3-1.1-0.6-1.6c-0.1-0.3-0.5-0.4-0.8-0.6c0,0.2,0,0.3-0.1,0.4c-0.2,1,0.4,1.8,0.5,2.7c0.2,1.2,0.5,2.5-0.2,3.7
		c-0.1,0.2-0.1,0.5-0.2,0.7c0,0.1-0.1,0.3-0.1,0.4C69.4,30.9,69.3,31.1,69.2,31.3z M50.6,43.4c-0.5-0.5-1.1-1-1.6-1.5
		c-0.1-0.1-0.5-0.3-0.5-0.2c-0.2,0.3-0.7,0.3-0.6,0.8c0.1,0.3,0.1,0.6,0.2,0.8c0.3,0.5,0.8,0.8,1.3,0.9c0.2,0,0.5-0.3,0.7-0.5
		C50.3,43.7,50.4,43.6,50.6,43.4z M64.4,35c0-0.4-0.2-0.7-0.6-0.9c-0.3-0.1-0.5-0.2-0.8-0.3c-0.8-0.4-0.9-0.4-0.9,0.6
		c0,0.2,0,0.3,0.1,0.4c0,0.1,0.1,0.1,0.2,0.2c0.4,0.2,0.7,0.4,1.1,0.6C64.1,35.8,64.4,35.6,64.4,35z M69.2,25.8c-0.1,0-0.1,0-0.2,0
		c0,0.1,0,0.3,0,0.4c-0.1,0.5,0,1.1-0.2,1.5c-0.4,0.7,0.1,1.3,0.1,2C69.9,28.5,69.6,27.2,69.2,25.8z M76.5,126c1,0,1.2-0.2,1.1-0.6
		c-0.2-0.8-0.8-1-1.5-0.5c-0.2,0.1-0.4,0.3-0.4,0.5c0,0.2,0.2,0.4,0.3,0.6C76.1,125.9,76.3,125.9,76.5,126z M76.2,121.1
		c0.3-1-0.5-1.3-1.2-1.3c-0.2,0-0.6,0.2-0.6,0.3c0,0.3,0.1,0.7,0.5,0.8C75.3,121,75.7,121.1,76.2,121.1z M51,43
		c0.4-0.7,0.4-0.9-0.2-1.5c-0.5-0.5-1.3-0.6-1.7-0.4C49.7,41.8,50.3,42.4,51,43z M60.1,31.3c0-0.1,0-0.2-0.1-0.3
		c-0.4-0.3-0.8-0.5-1.2-0.8c-0.1,0-0.2,0-0.2,0.1c-0.2,0.2-0.1,1.1,0.2,1.2c0.2,0.1,0.5,0.2,0.7,0.3C59.8,32,60.1,31.8,60.1,31.3z
		 M77.6,115c0.1-0.7-0.2-1.3-0.9-1.5c-0.4-0.2-0.6-0.1-0.6,0.4C76,114.7,76.6,115.1,77.6,115z M63.4,36c-0.3,0.5-0.2,0.7,0.2,0.9
		c0.5,0.3,1.1,0.5,1.7,0.7C65.4,37,65.1,36.9,63.4,36z M62,38c-0.1,0-0.1,0-0.2,0.1c0,0.2,0,0.5,0.1,0.6c0.6,0.3,1.2,0.7,2,0.6
		C63.5,38.4,62.6,38.5,62,38z M80.8,128.2c0.2,0.1,1.3,0,1.4-0.2c0.1-0.1,0-0.4-0.1-0.4C81.7,127.4,81,127.8,80.8,128.2z"/>
	<path class="st0" d="M74.2,77.1c-0.6,0.5-1.2,0.9-1.7,1.3c-0.9,0.6-1.7,1.4-2.7,1.9c-1.8,1-3.8,1.9-5.9,2.4
		c-0.4,0.1-0.8,0.2-1.1,0.3c-1.7,0.6-3.4,0.6-5.1,0.7c-0.1,0-0.1,0-0.2,0c-0.2-0.1-0.3-0.3-0.4-0.4c0.2-0.1,0.3-0.3,0.5-0.3
		c1-0.1,2-0.1,3-0.2c0.3,0,0.5,0,0.8-0.1c1.9-0.6,3.8-1.1,5.6-1.8c1.4-0.5,2.7-1.2,3.9-2.2c0.8-0.7,1.7-1.3,2.6-1.9
		c0.7-0.4,1-1.1,1.1-1.9c0.1-1.3,0.4-2.6,0.4-4c0-2.4,0-4.8-0.4-7.1c-0.2-1.2-0.2-2.4-0.4-3.6c-0.3-2.3-0.7-4.6-1.5-6.8
		c-0.3-1-0.8-2-1.3-3c0-0.1-0.1-0.1-0.1-0.2c0-0.2,0.1-0.4,0.1-0.6c0.2,0.1,0.5,0.1,0.6,0.3c0.5,1.3,1.1,2.5,1.6,3.9
		c0.4,1.2,0.7,2.5,0.9,3.8c0.3,1.7,0.5,3.4,0.7,5c0.1,0.7,0.2,1.4,0.3,2.1c0.1,0.7,0.2,1.4,0.2,2.1c0.1,1.5,0.1,3,0.1,4.4
		c0,0.5-0.1,0.9-0.1,1.4c1.7,0.2,3.4,0.5,5,0.1c0.4-0.1,0.8-0.1,1.2-0.2c1.4-0.2,2.8-0.4,4.2-0.6c0.2,0,0.5-0.1,0.7,0
		c0.2,0.1,0.3,0.3,0.3,0.4c0,0.1-0.2,0.3-0.4,0.3c-0.3,0.1-0.6,0.1-0.9,0.1c-1.3,0.2-2.6,0.3-3.9,0.5c-0.9,0.1-1.8,0.3-2.6,0.3
		c-1.2,0-2.4-0.1-3.7-0.2c-0.1,0.4-0.2,0.9-0.3,1.5c-0.1,1.4-0.2,2.8-0.4,4.2c-0.1,1.1-0.4,2.1-0.5,3.2c-0.3,2.7-1.1,5.4-1.6,8.1
		c-0.2,1.1-0.3,2.3-0.4,3.4c0,0.3-0.1,0.6-0.2,0.9c-0.2,0.9-0.3,1.8-0.5,2.7c-0.2,1-0.3,2-0.4,3c-0.1,1.1-0.3,2.2-0.4,3.3
		c-0.1,1.6-0.1,3.2-0.2,4.8c-0.1,2.3-0.3,4.5-0.5,6.8c-0.1,1.2-0.2,2.4-0.3,3.6c0,0.3,0,0.6-0.4,0.6c-0.4,0-0.5-0.3-0.4-0.7
		c0.1-1.3,0.2-2.6,0.3-3.8c0.1-1.8,0.3-3.7,0.4-5.5c0.1-2.2,0.2-4.3,0.4-6.5c0.2-2.2,0.5-4.3,0.8-6.4c0.3-2.1,0.8-4.1,1.1-6.2
		c0.3-1.9,0.6-3.7,1.2-5.5c0.2-0.8,0.2-1.6,0.3-2.4c0.1-0.8,0.3-1.7,0.4-2.5C74.1,79,74.1,78.1,74.2,77.1z"/>
</g>
</svg>
