<?xml version="1.0" encoding="utf-8"?>
<!-- Generator: Adobe Illustrator 19.2.1, SVG Export Plug-In . SVG Version: 6.00 Build 0)  -->
<svg version="1.1" id="Layer_1" xmlns="http://www.w3.org/2000/svg" xmlns:xlink="http://www.w3.org/1999/xlink" x="0px" y="0px"
	 viewBox="0 0 159.4 150" style="enable-background:new 0 0 159.4 150;" xml:space="preserve">
<style type="text/css">
	.st0{fill:#3F51B5;}
</style>
<g id="icon-hairloss">
	<path class="st0" d="M159.4,117.7c-2.5-0.7-5-1.6-7.5-2.5c-2.2-0.8-4.5-1.5-6.6-2.5c-2-0.9-3.9-1.8-6-2.5c-2.4-0.8-4.8-1.3-7.2-1.8
		c-1.5-0.3-1.7-0.7-0.9-2.1c2.1-4,4.2-8,6.3-12c1.8-3.5,2.9-7.3,4.1-11c1.1-3.2,1.1-6.5,0.9-9.8c-0.2-3.8-0.3-7.7,0.3-11.5
		c0.2-1.2,0.2-2.6,1.5-3.4c0.1-0.1,0.2-0.3,0.2-0.5c0.1-1.4,0.3-2.7,0.4-4.1c0.2-3.4,0.4-6.8,0.3-10.3c-0.1-3.4-0.4-6.7-0.7-10.1
		c-0.2-2.7-1-5.2-2.5-7.4c-0.8-1.2-1.8-2.4-2.6-3.7c-1.1-1.8-2-3.7-3.1-5.6c-1.3-2.3-3.4-3.8-5.6-5.2c-0.7-0.4-1.4-0.8-2.1-1.2
		c-2.4-1.6-4.3-3.9-7-5.1c-2.5-1.2-5.1-2.4-7.7-3.3c-2.7-0.8-5.6-1.3-8.4-1.8c-1.9-0.3-3.8-0.5-5.7-0.6c-1.3-0.1-2.6,0.1-3.9,0.2
		c-2,0.1-4,0-5.9,0.5c-1.8,0.4-3.5,1.1-4.9,2.5c-1.1,1.1-2.2,2.1-3.3,3.1c-1.8,1.7-3.4,3.6-5.2,5.3c-2.1,2-4.4,3.9-6.6,5.9
		c-1.8,1.6-3.3,3.4-4,5.8c-0.3,1.1-0.9,2-1.4,3.2c-1.2-0.8-2.3-1.5-3.4-2.2c-0.9-0.6-1.7-1.4-2.7-1.9c-2.3-1.3-4.7-2.6-7-3.9
		c-1.6-0.9-3-2-4.7-2.8c-2.8-1.3-5.7-2.2-8.3,0.4c-0.2,0.2-0.5,0.2-0.7,0.2c-0.9-0.1-1.8-0.4-2.6-0.4c-3-0.1-6.2,2.6-6.5,5.5
		c-0.2,1.3-0.7,2.2-1.5,3.1c-3.3,3.9-6.7,7.7-10,11.6c-3.7,4.4-8.2,7.9-12.5,11.6c-1.6,1.3-3.2,2.7-4.8,4v1.9
		c1.9-1.6,3.9-3.3,5.8-4.9c4.9-4.1,9.8-8.2,13.9-13.2c2.8-3.3,5.7-6.5,8.4-9.9c1-1.2,1.9-2.5,2.2-4.2c0.6-3.2,4.3-5.1,6.8-3.7
		c0.8,0.4,1.7,0.3,2.4-0.5c1.2-1.4,2.8-1.3,4.4-1c2,0.4,3.6,1.7,5.3,2.7c2.9,1.6,5.8,3.2,8.7,4.9c1.2,0.7,2.1,1.6,3.2,2.4
		c2.2,1.5,4.4,3,6.6,4.5c1.4,0.9,2.7,1.9,4.1,2.9c-0.4,0.2-0.9,0.4-1.3,0.7c-1.9,1.1-2,3.6,0,4.8c0.5,0.3,1.1,0.6,1.5,1
		c-1.8,0.2-3.4,0-4.8-1.1c-2.4-1.8-4.8-3.3-7.2-5.2c-2.9-2.3-6.2-4-8.8-6.7c-1.4-1.5-3.5-2.4-5.3-3.4c-1.9-1.1-4-1.9-5.5-3.7
		c-0.2-0.2-0.9-0.3-1.1-0.2c-0.5,0.4,0,0.7,0.3,1.1c1.6,1.6,3.7,2.5,5.6,3.7c2.4,1.4,5,2.6,6.9,4.8c1.4,1.6,3,3.1,4.2,4.8
		c0.8,1.1,1,2.6,1.4,3.9c0.8,2.7,0.8,5.6,0.8,8.4c0,1.8-0.8,3.1-1.7,4.5c-0.6,1.1-1.5,2-2.3,3c-0.1,0.2-0.4,0.3-0.6,0.4
		c-0.3,0.3-0.7,0.5-0.9,0.8c-0.5,0.8-2.3,1.2-3.1,0.7c-0.4-0.3-0.5-1.8-0.1-2.6c0.4-0.9,1-1.7,1.3-2.6c1-2.5,1.9-5.1,1.4-7.9
		c-0.1-0.6-0.3-1.2-0.6-1.6c-1-1.4-1.9-2.9-3.1-4.1c-2.2-2.1-4.5-4-6.8-6.1c-1.1-1-2.2-2-3.3-3c-0.1-0.1-0.3-0.3-0.4-0.4
		c-0.3,0-0.6,0-0.9,0c0.1,0.3,0,0.6,0.2,0.8c2,1.8,3.9,3.6,5.9,5.2c2.7,2.2,5.1,4.6,7.1,7.5c0.7,1,1.1,2.1,1,3.3
		c-0.3,3.1-1.3,5.8-3,8.3c-0.1-1.1-0.1-2.3-0.4-3.4c-0.2-0.8-0.6-1.7-1.2-2.3c-2.2-2.3-4.6-4.4-6.9-6.6c-1.8-1.7-3.2-3.8-3.9-6.2
		c-0.3-0.9-0.7-1.8-1.1-2.7c-0.1-0.2-0.3-0.5-0.5-0.6c-0.3-0.1-0.6,0.1-0.9,0.1c0.1,0.3,0.1,0.5,0.2,0.7c0.5,1.1,1.1,2.1,1.4,3.3
		c-0.6-0.3-1.2-0.6-1.9-0.8c-0.3-0.1-0.6-0.2-0.9-0.1c-0.2,0-0.6,0.3-0.6,0.4c0,0.2,0.3,0.6,0.5,0.7c1.4,0.2,2.4,0.7,3,2.1
		c0.1,0.3,0.7,0.3,1,0.6c2.6,2.6,5.3,5.2,7.9,7.9c0.8,0.8,1.6,1.6,2.3,2.4c1,1,1.2,3.6,0.4,4.8C47,52.9,47,53,46.9,53
		c-1.3,0.9-2.5,1.9-3.9,2.6c-2.3,1.1-4.5,0.5-6.6-0.8c-0.3-0.2-0.6-0.6-0.9-1.1c1.5-0.2,2.8-0.3,4.1-0.5c0.4-0.1,1.1-0.2,1.2-0.4
		c0.1-0.4,0-1.1-0.2-1.5c-0.7-1.1-1.8-1.9-3.2-1.8c-0.8,0-1.2-0.3-1.2-1.1c0-1.1-0.2-2.2-0.4-3.2c0-0.2-0.4-0.5-0.5-0.5
		c-0.2,0.1-0.6,0.3-0.6,0.5c0,0.6,0.2,1.1,0.2,1.7c0.1,0.8,0.1,1.6,0.2,2.4c-0.9,0.3-1.4,0.1-1.8-0.7c-0.4-0.9-1-1.7-1.6-2.4
		c-0.1-0.2-0.5-0.2-0.7-0.3c-0.1,0.3-0.3,0.6-0.2,0.8c0.2,0.5,0.6,1,0.9,1.5c0.3,0.5,0.6,1,0.8,1.5c0.1,0.2,0.1,0.6,0,0.8
		c-0.5,0.8-1.1,1.5-1.7,2.3c-0.8,1.1-1.5,2.3-2.4,3.7c-1.4-0.6-3.1-1.2-4.6-2c-1.5-0.8-2.9-1.8-4.4-2.7c-0.5-0.3-1-0.6-1.5-0.7
		c-0.2-0.1-0.6,0.3-0.9,0.4c0.2,0.2,0.4,0.5,0.6,0.7c0.4,0.3,1,0.5,1.4,0.8c2.2,1.9,4.7,3,7.4,4.1c0.2,0.1,0.5,0.2,0.7,0.3
		c-0.1,1-0.9,1.2-1.6,1.4c-1.5,0.4-3,0.8-4.6,0.4c-0.9-0.2-1.8-0.3-2.7-0.3c-0.4,0-0.9,0.6-1.4,1c0.7,0.3,1.1,0.5,1.8,0.8
		c-0.7,0.6-1.4,1.1-2,1.6c-3.7,3.3-7.4,6.6-11.1,9.8c-2.1,1.8-3.7,4.1-5.3,6.2v2.6c2.5-3.2,4.9-6.6,8-9.2c3.7-3.1,7.4-6.1,10.9-9.4
		c1.3-1.2,2.6-1.5,4.2-1.6c2.4,0,4.4-0.9,6.1-2.5c0.7-0.6,1-1.5,1.4-2.4c0.6-1.4,1.4-2,3-1.9c1.3,2.4,3.4,3.7,6,3.9
		c1.2,0.1,2.5-0.1,3.7-0.4c0.8-0.2,1.5-0.8,2.1-1.4c0.7-0.7,1.4-0.9,2.4-0.7c0.5,1.7,1.4,2.5,3.3,2.4c1.1-0.1,2,0.2,3,0.6
		c0.1,0,0.2,0.2,0.2,0.3c0.4,1.2,1,2.4,0.7,3.8c-0.8,3.2-1.7,6.4-2.4,9.6c-0.5,2.1-0.7,4.3-1.1,6.4c-0.1,0.7-0.6,1.3-0.7,2.1
		c-0.3,1.5-0.4,3-0.6,4.5c-0.5,2.9-0.9,5.9-1.5,8.8c-0.6,2.6-1.4,5.1-2.2,7.6c-0.9,2.7-3,4.6-5.3,6.1c-2.3,1.5-4.5,3-6.7,4.6
		c-4.3,3.1-8.8,5.9-13.5,8.3c-1.9,1-3.8,1.1-5.7,1.5c-2.9,0.6-5.8,1.2-8.6,2.1c-2.2,0.8-4.4,1.3-6.6,1.8v1.5
		c2.9-0.6,5.7-1.4,8.4-2.4c2.4-0.9,5.1-1.3,7.7-1.7c2.8-0.5,5.6-0.6,8.4-1.1c2.3-0.4,4.4-0.2,6.4,0.9c2.3,1.2,4.7,1.9,7.3,1.7
		c0.3,0,0.6,0,0.8,0c2,0.6,4.1,0.5,6.1,0c3.4-0.8,6.7-1.7,10.1-2.6c1.3-0.4,2.1,0.3,1.8,1.7c-0.1,0.5,0,1,0,1.5c0,1.1,0.1,2.2,0,3.3
		c-0.1,1.3-0.4,2.6-0.6,4c-0.4,2.5-0.6,5-1,7.5c-0.5,3.1-1.2,6.2-1.8,9.4c-0.1,0.7,0,1,0.8,1c4.5,0,8.9,0,13.4,0
		c0.6,0,0.8-0.2,0.9-0.8c0.1-1.4,0.3-2.8,0.5-4.2c0.3-1.9,0.7-3.8,1-5.7c0.4-2.5,0.6-4.9,1-7.4c0.4-2.3,1-4.5,1.5-6.7
		c0.2-0.9,0.2-1.8,0.5-2.7c0.8-2.6,1.7-5.3,2.5-7.9c0.7-2.3,1.9-4.4,3-6.5c1.8-3.4,2.7-7,2.8-10.8c0-1.5-0.2-3-0.3-4.5
		c-0.1-1.2-0.2-2.5-0.5-3.6c-0.6-2.6-1.2-5.1-1-7.8c0.1-0.8,0-1.6,0.2-2.4c0.3-1.7,0.6-3.4,1.1-5.1c0.5-1.4,1.3-2.6,1.9-3.9
		c1-2.1,1.8-4.3,2.9-6.4c0.6-1.2,1.6-2.2,2.2-3.4c0.5-1,1.2-0.9,1.9-0.9c0.1,0,0.1,0,0.2,0c1.5,0.1,2-0.4,2-1.9
		c0-0.6,0.1-1.3,0.1-1.9c0.1-0.8,0.1-1.5,0.2-2.3c0.1-1.1,0-2.4,0.4-3.4c0.5-1.2,1.3-2.3,2.2-3.1c2.4-2.3,4.8-4.5,7.3-6.7
		c1.5-1.3,2.2-3.1,1.4-5c-0.5-1.1-1.1-2.1-1.7-3.1c-1.1-2.1-2.5-4.1-3.4-6.2c-1.2-2.8-2.1-5.8-3.1-8.7c-0.2-0.6-0.4-1.3-0.2-1.9
		c0.4-1.1,1-2.2,1.5-3.3c0.7-1.4,1.1-2.7,0.5-4.2c-0.3-0.8-0.7-1.6-0.9-2.4c-0.1-0.3,0-0.9,0.2-1c0.4-0.3,1.1-0.7,1.5-0.1
		c0.5,0.7,1,1.4,1.2,2.2c0.8,2.7,0.3,5.3-1.2,7.7c-0.6,1-0.7,2-0.4,3c1.2,4.6,3.3,8.9,5.5,13.1c1.1,2,2,4.1,2.9,6.2
		c0.4,0.8,0.7,1.4,1.7,1.5c1,0.1,1.9,0.3,2.9,0.3c4.3,0,8.6-0.1,12.8-0.2c3.3-0.1,6.5-0.5,9.8,0.4c1.9,0.5,3.8,0.8,5.5,1.8
		c1.5,0.9,2,2.1,2.1,3.7c0.1,1.8,0.2,3.5,0.4,5.3c0.3,2.7,0.8,5.4,1.1,8.1c0,0.2-0.3,0.6-0.5,0.7c-1.6,0.6-3.1,1.1-4.7,1.5
		c-2.3,0.7-4.7,1.4-7,2.1c-0.3,0.1-0.7,0.1-0.9,0.4c-0.2,0.2-0.3,0.6-0.4,1c0.3,0.1,0.6,0.2,0.9,0.2c0.6,0,1.2-0.2,1.8-0.3
		c0,0.1,0.1,0.2,0.1,0.3c-0.2,0.2-0.4,0.4-0.6,0.6c-1.3,1.3-2.7,2.5-4,3.9c-0.2,0.2-0.1,0.6-0.1,0.9c0.3,0,0.7,0.1,1,0
		c0.4-0.1,0.7-0.4,1.1-0.4c0.7,0,1.5,0.1,2.2,0.2c2.8,0.5,5.4,0.1,8-1.1c0.5-0.2,1-0.4,1.6-0.6c0,0.7,0,1.3,0,1.8
		c0.1,2.2,0.1,4.3,0.3,6.5c0.2,2.5,0.2,4.9-0.6,7.2c-1.2,3.3-2.5,6.6-3.9,9.8c-1,2.4-2.3,4.7-3.5,7c-0.7,1.4-1.5,2.8-2.2,4.1
		c-0.9,1.7-1.8,3.4-2.7,5.1c-0.8,1.5-1.7,3.1-2.7,4.5c-1.3,2-2.8,3.7-5.2,4.3c-0.5,0.1-1.1,0.4-1.6,0.5c-1.8,0.2-3.7,0.6-5.4,0.3
		c-5.1-0.9-9.4-3.6-13.3-6.8c-2.7-2.2-5.2-4.7-7.9-6.9c-2.4-1.8-3.9-4.2-4.7-6.9c-1.1-3.6-2.1-7.3-3-11c-0.2-0.7-0.5-1-1-0.9
		c-0.2,0.1-0.5,0.8-0.4,1.1c0.3,1.2,1,2.3,1.1,3.6c0.3,2.6,1.1,5.1,1.9,7.6c0.9,2.7,2.2,5,4.4,6.9c1.3,1.1,2.7,2.3,4,3.4
		c2.5,2.1,4.8,4.2,7.4,6.1c2.3,1.6,4.6,3.3,7.4,4c1.4,0.4,2.9,1,4.3,1.2c3.1,0.4,6-0.4,8.8-1.5c0.9-0.3,1.7-0.6,2.2-1.5
		c0.5-0.8,1.4-1.5,2-2.2c0.7-0.9,1.4-1.8,1.9-2.7c0.5-0.9,0.8-1.6,2.1-1.5c1.5,0.2,3,0.1,4.4,0.7c0.4,0.2,0.9,0.1,1.4,0.3
		c2.2,0.8,4.6,1.3,6.6,2.4c1.9,1.1,3.8,2.1,5.9,2.7c3.5,1.1,7,2.5,10.5,3.6C159.4,118.7,159.4,118.2,159.4,117.7z M33.1,52
		c0.3-0.9,1.3-1.5,2.6-1.6c0.5,0,1,0,1.5,0c1-0.1,1.7,0.1,2.1,1.4C37.2,52.3,35.2,52.9,33.1,52z M70.7,37.6c-0.3-0.3-0.3-1-0.3-1.5
		c0.1-0.8,1.7-1.7,2.9-1.7c0.7,0,2.3,1.3,2.5,1.9c0,0.1,0,0.3-0.1,0.3c-0.7,0.8-1.5,1.6-2.2,2.4c0,0-0.1,0.1-0.2,0.1
		C72.4,38.6,71.4,38.2,70.7,37.6z M57.3,32.9c1.3,1,2.6,1.9,3.9,2.9c-0.5,1.1-1.7,0.4-2.4,1.1C58.3,35.5,57.9,34.3,57.3,32.9z
		 M59.4,114.3c0,0.3,0,0.6,0,0.9c-0.1,0.7-0.4,1.2-1.2,1.2c-0.8,0-1-0.7-0.9-1.3c0.1-1.4,0.3-2.9,0.4-4.3c0.2-2.9,0.3-5.9,0.4-8.8
		c0-0.8,0-1.7,0.2-2.5c0.1-0.4,0.7-0.9,1.2-0.9c0.7-0.1,0.7,0.6,0.7,1.2c0,0.7,0,1.4,0,2.2c0.1,0,0.1,0,0.2,0
		C60,106,59.7,110.2,59.4,114.3z M74.3,110.3c-0.2,0.9-0.8,1-1.8,0.8c0.1-2.1,0.2-4.2,0.3-6.2c0-1.3,0-2.6,0-3.8
		c0-0.7,0.2-1.2,0.9-1.3c0.6-0.1,1.1,0.3,1.2,1c0.1,0.4,0.2,0.9,0.2,1.3C75.1,104.8,75,107.6,74.3,110.3z M90.1,57.4
		c-2.9,0.1-5.7,0.2-8.5,0.3c-0.1-0.1-0.1-0.3-0.2-0.4c0.5-0.7,1.1-1.4,1.6-2.1c1.1-1.5,0.9-2-0.6-2.4c-0.6-1.8-1.1-3.3-1.6-4.9
		c-0.1-0.2-0.1-0.4-0.3-0.5c-0.4-0.2-0.8-0.2-1.2-0.3c-0.1,0.4-0.3,0.8-0.2,1.2c0.4,1.3,0.9,2.6,1.3,3.9c0.2,0.7-0.1,1-0.9,1
		c-1-0.1-2.1,0-3.4,0c-0.4-1.8-0.9-3.7-1.4-5.6c0-0.1,0-0.3,0-0.5c0-0.5-0.1-1-0.7-1c-0.7,0-0.8,0.5-0.8,1c0.1,0.8,0.1,1.6,0.3,2.4
		c0.3,1.2,0.7,2.4,1.1,3.7c-1.3,0.1-2.5,0.2-3.7,0.3c-0.6-1.8-1.1-3.6-1.8-5.4c-0.1-0.4-0.5-0.9-0.8-0.9c-0.7-0.1-0.8,0.5-0.7,1.1
		c0.1,0.7,0.3,1.4,0.5,2.1c0.4,1.1,0.8,2.2,1.2,3.6c-1.6,0.1-3,0.1-4.4,0.2c-0.5-1.5-1-2.9-1.6-4.2c-0.2-0.4-0.6-0.7-0.9-0.9
		c-0.2-0.1-0.7,0.1-0.9,0.4c-0.1,0.2,0,0.6,0.1,0.9c0.6,1.5,1.3,3.1,2,4.6c-1.4,1-2.2,2.1-2.3,3.7c-0.1,0.6-0.4,1-1.1,1.1
		c-0.6,0.1-1.2,0.2-1.7,0.3c-0.8,0.3-1.4-0.1-1.7-0.7c-0.4-0.8-0.6-1.7-1-2.5c-0.5-1.3,0.1-2.3,0.9-3.3c0.7-0.8,1.4-1.7,2-2.6
		c1-1.6,1.3-3.3,1.2-5.1c-0.1-2.2,0.1-4.4-0.6-6.5c-0.1-0.2,0-0.4,0-0.8c1.4,0.1,2.8,0.1,4.2,0.2c0.1,0,0.1,0.1,0.2,0
		c1.4-0.7,2,0.6,2.8,1.3c2.5,2.1,7.8,2.6,10.7-0.5c0.2-0.2,0.3-0.3,0.4-0.5c0.1-1,0.8-1,1.6-1c1.3,0,2.6-0.1,4-0.2
		c0.3,0,0.7,0.2,0.9,0.5c3,4.1,4.4,8.9,5.6,13.8c0.4,1.8,0.4,3.7,0.6,5.5C90.1,57.3,90,57.4,90.1,57.4z M133,67.3
		c-1.1-0.1-2.1-0.3-3.2-0.4c0.3-1.2,0.3-1.3,2.2-2.4c0,1.1-0.1,2.1,1.2,2.6C133.1,67.1,133,67.2,133,67.3z M137.9,66.3
		c-0.7,0.3-1.5,0.4-2.1,0.6c0.3-1,0.5-2,0.8-3c0.4,0.2,1,0.5,1.5,0.9c0.3,0.2,0.5,0.6,0.6,1C138.7,65.9,138.2,66.2,137.9,66.3z
		 M140.9,65c-2-1-4.1-2-6.1-3c2.2-0.9,4.5-1.8,7.1-2.8C141.5,61.3,141.2,63.1,140.9,65z"/>
	<path class="st0" d="M111.7,70.9c-0.3-0.2-0.8-0.4-1-0.7c-0.4-0.6-0.8-0.6-1.3-0.2c-0.8,0.5-1.6,0.9-2.3,1.4
		c-1.4,0.9-3,0.6-4.5,0.2c-1.2-0.3-2.3-0.8-3.4-1c-0.8-0.1-1.6,0-2.4,0.1c-0.6,0.1-1.1,0.4-1.7,0.5c-0.3,0.1-0.6-0.2-1-0.3
		c0.2-0.3,0.2-0.8,0.5-0.9c2.2-0.9,4.4-1.8,6.7-2.6c1.5-0.5,3-0.9,4.6-1.4c2-0.7,3.4-0.2,4.6,1.6c0.4,0.7,0.9,1.4,1.3,2.1
		c0.1,0.2,0.1,0.6,0.2,0.9C111.9,70.8,111.8,70.9,111.7,70.9z M106.2,70.7c0.8-0.5,1.6-1,2.4-1.5c0.3-0.2,0.7-0.7,0.6-1
		c-0.1-0.4-0.4-1-0.8-1.1c-0.5-0.2-1.2,0-1.8,0C107.3,68.4,107.2,69.6,106.2,70.7z M102.1,68.8c-0.7,0-1.7-0.2-2.3,0.9
		c1.1,1.1,2.6,1.1,3.9,1.4C103.2,70.3,102.7,69.6,102.1,68.8z"/>
	<path class="st0" d="M121.5,106.3c-2.1-0.4-4.3-0.8-6.4-1.3c-0.6-0.2-1.2-0.6-1.8-1c-1.4-0.8-2.6-2-4.3-2.2c-0.2,0-0.4-0.3-0.6-0.5
		c0.2-0.1,0.4-0.3,0.6-0.3c1.6-0.6,3.1-1.2,4.7-1.8c2.3-0.8,4.6-1.7,7.1-0.8c0.5,0.2,1.2,0,1.7-0.1c0.6-0.2,1.1-0.5,1.6-0.9
		c1.4-0.9,2.9-0.7,4.4-0.7c0.2,0,0.5,0.5,0.5,0.7c-0.5,2.4-1.1,4.7-3.2,6.2c-0.9,0.7-1.3,2-2.6,2.2c-0.6,0.1-1.2,0.2-1.8,0.2
		C121.6,106.2,121.6,106.3,121.5,106.3z M128,99.3c-0.5,0-1,0-1.4,0.1c-2.6,1.1-5.2,2-8.1,1.9c-2.3-0.1-4.6,0.4-7.1,0.6
		c1.5,0.9,2.8,2,4.2,2.4c1.7,0.6,3.6,0.7,5.5,1c1.2,0.2,2.2-0.4,3.1-1.2c0.4-0.4,0.8-0.8,1.2-1.1C126.8,102.2,127.6,101.1,128,99.3z
		 M128.5,97.7c0-0.1-0.1-0.3-0.1-0.4c-0.6,0-1.3-0.1-1.9,0.1c-1.2,0.5-2.3,1.1-3.6,1.6c-0.6,0.2-1.3,0.5-1.8,0.3
		c-1.7-0.8-3.4-0.5-5-0.1c-1.6,0.4-3.1,1.2-4.6,1.8c0.4,0.2,0.7,0.2,1,0.2c1.4-0.2,2.9-0.5,4.3-0.5c2.9,0,5.8-0.3,8.5-1.5
		C126.3,98.7,127.4,98.2,128.5,97.7z"/>
	<path class="st0" d="M104.4,62c3,0.3,5.9,0.5,8.9,0.8c0.4,0,1.1-0.1,1.1,0.8c0,0.6-0.1,0.9-0.8,0.9c-1.5-0.1-3.1-0.2-4.6-0.4
		c-4.3-0.6-8.5-0.4-12.7,0.9c-1,0.3-2,0.6-3.1,0.8c-0.6,0.1-1.1-0.1-1-0.8c0-0.2,0.3-0.6,0.5-0.6c3.3-0.9,6.6-2.1,10.1-2.2
		C103.4,62.1,103.9,62.1,104.4,62C104.4,62.1,104.4,62,104.4,62z"/>
	<path class="st0" d="M115.8,89.4c1.6-0.2,3.3,0.4,5,1.1c1.8,0.8,3.8,1,5.7,0.1c2-0.9,2.6-3.5,1.2-5.2c-1.1-1.4-1.4-3.1-1.9-4.7
		c0-0.1,0.2-0.4,0.3-0.6c0.2,0.1,0.6,0.2,0.6,0.4c0.3,0.8,0.4,1.7,0.7,2.5c0.3,0.8,0.6,1.6,1.1,2.2c1,1.3,1.1,3.5,0.2,4.8
		c-1.4,2-3.5,2.4-5.6,2.1c-1.4-0.2-2.8-0.9-4.2-1.4c-0.3-0.1-0.7-0.2-1.1-0.2c-1.3-0.1-2.6,0-3.9-0.2c-1.6-0.2-2.8-1.8-2.9-3.4
		c-0.1-1.6,0.6-2.9,1.6-4.1c0.1-0.1,0.5-0.1,0.7-0.1c0,0.3,0.1,0.7-0.1,0.9c-0.3,0.7-0.8,1.3-1.1,2c-0.7,2.2,0.6,3.8,2.8,3.8
		C115.2,89.4,115.3,89.4,115.8,89.4z"/>
</g>
</svg>
