<?xml version="1.0" encoding="utf-8"?>
<!-- Generator: Adobe Illustrator 19.2.1, SVG Export Plug-In . SVG Version: 6.00 Build 0)  -->
<svg version="1.1" id="Layer_1" xmlns="http://www.w3.org/2000/svg" xmlns:xlink="http://www.w3.org/1999/xlink" x="0px" y="0px"
	 viewBox="166.4 141.7 176.3 200" style="enable-background:new 166.4 141.7 176.3 200;" xml:space="preserve">
<style type="text/css">
	.st0{fill:#E64A19;}
</style>
<g id="icon-toothache">
	<path class="st0" d="M166.4,341.7c0.5-5.1,0.9-10.2,1.4-15.3c0.2-2.6,0.4-5.2,0.7-7.7c0.4-4,2.4-7.2,4.8-10.4
		c2.4-3.1,5.7-4.9,9-6.8c3.2-1.9,6.5-3.6,9.9-4.9c2.6-1,5.4-1.5,8.2-1.7c5.5-0.5,10.9-0.7,16.4-1.1c0.1,0,0.3-0.1,0.6-0.3
		c-2.4-4.6-3.4-9.8-7.3-13.8c-3.7-3.8-6.7-8.4-10-12.7c-1.7-2.2-3.5-4.3-5.2-6.5c-2.6-3.2-3.8-7-4.5-10.9c-0.7-3.8-1.4-7.6-2-11.4
		c-0.5-2.7-2.2-4.6-4.1-6.2c-1.8-1.5-3.1-3-2.8-5.5c0.6-4.4-1.6-8.2-2.8-12.2c-1.1-3.6-1.7-7.4-2.3-11.2c-0.4-2.6-0.7-5.3-0.7-7.9
		c0.1-3.1,0.6-6.3,1-9.4c0.3-2.3,0.6-4.7,1.2-6.9c1.7-5.9,4.2-11.4,8-16.3c3.2-4,6.8-7.5,11.4-10.1c6.7-4,14.1-6.6,21.2-9.7
		c1.5-0.7,3.4-0.8,5.1-0.9c2.5-0.1,5.1-0.2,7.6,0c3.6,0.3,7.3,0.8,10.8,1.4c3.6,0.6,7.2,1.1,10.6,2.3c6.4,2.2,12.7,4.9,18.3,8.9
		c5,3.6,9,7.9,11.8,13.3c2.3,4.4,4.6,8.9,6.4,13.5c1.2,3.1,1.7,6.6,2.3,9.9c1.2,6,2.5,12.1,3.2,18.2c0.8,6.6-0.4,13-2.8,19.2
		c-0.5,1.1-0.6,2.4-1.3,3.4c-0.7,1.2-0.5,1.9,0.6,2.7c2.3,1.9,4.6,3.8,6.9,5.8c7.3,6.2,13.5,13.4,18.4,21.6c2.8,4.7,5.1,9.8,7,15
		c3,8.2,5.3,16.6,8,24.9c0.6,2,1.2,4,1.8,5.9c0.1,0.3,0.4,0.7,0.7,0.9c2.9,1.9,5.9,3.7,8.8,5.6c0,1,0,2.1,0,3.1
		c-0.4-0.3-0.9-0.5-1.3-0.8c-2.3-1.5-4.6-3.1-7-4.6c-0.4-0.2-1.1-0.3-1.4-0.1c-1.9,1.6-3.8,3.4-5.7,5.1c-0.6,0.6-1.2,1.3-1.8,1.7
		c-3.6,2.4-7.2,4.9-10.9,7.2c-6.4,4-12.8,8-19.2,12c-1.9,1.2-3.8,2.5-5.7,3.7c-1.9,0-3.9,0-5.8,0c0.9-0.5,1.8-0.9,2.6-1.4
		c3.6-2.2,7.1-4.5,10.7-6.8c6-3.7,12.1-7.4,18.2-11.1c5.7-3.5,11.2-7.4,15.6-12.5c-1.8-1.9-2-1.9-3.4-0.8c-2.9,2.3-5.7,4.7-8.7,6.9
		c-4.2,2.9-8.7,5.5-12.9,8.4c-5.4,3.8-11,7.1-17.1,9.3c-5.3,2-10.1,5-14.8,8c-2.6,0-5.2,0-7.9,0c0.2-0.1,0.3-0.3,0.5-0.3
		c3.7-1.5,7.5-2.8,11-5c3.1-1.9,6.4-3.3,9.7-4.9c2.3-1.1,4.8-1.9,7-3.1c3.5-1.9,6.8-4.2,10.2-6.2c6.7-3.9,13-8.2,19-13
		c1-0.8,2-1.6,3.1-2.5c-0.6-0.4-0.9-0.6-1.3-0.9c-4.6-3.5-10.4-5.3-14.4-9.8c-0.8-0.9-1.9-1.6-2.9-2.4c-4.5-3.6-8.5-7.7-11.1-12.8
		c-2.8-5.5-5.1-11.3-7.3-17.1c-1.8-4.7-3.2-9.5-4.5-14.3c-1-3.7-1.6-7.6-2.4-11.6c-0.9-0.1-2.3-0.2-3.8-0.3c0.1,2,0.3,4.1,0.5,6.1
		c0.1,1.4,0.4,2.8,0.6,4.2c0.1,0.8,0.3,1.7,0.3,2.5c0.2,6.2,0.5,12.5,0.7,18.7c0.2,8.5,0.5,17.1-2.6,25.3
		c-2.2,5.5-2.8,11.3-3.2,17.1c-0.2,2.3-0.2,4.7-2.1,6.6c-2.2,2.1-4,4.4-6.1,6.6c-3.6,3.8-7.3,7.4-10.8,11.2c-1.7,1.8-3,4-4.5,6
		c-1.1,0-2.3,0-3.4,0c1.9-2.5,3.6-5.2,5.7-7.5c5.3-5.8,10.9-11.4,16.3-17.1c0.8-0.8,1.7-1.8,1.9-2.9c0.6-3.1,0.7-6.3,1.1-9.4
		c0.4-3.2,0-6.7,2.7-9.3c0.2-0.2,0.3-0.6,0.4-0.9c0.7-2.7,1.4-5.5,2.2-8.3c-0.4-0.1-0.7,0-1-0.1c-0.6-0.3-1.2-0.6-1.9-1
		c0.6-0.4,1.3-1,1.9-1c1.3,0,1.5-0.6,1.5-1.7c-0.1-8-0.2-15.9-0.4-23.9c0-0.2-0.1-0.4-0.1-0.6c-3.9-0.7-4.3-1-5.9-4.8
		c-0.2,0.4-0.5,0.8-0.6,1.2c-2.6,7.5-2.7,15.4-2.1,23.1c0.4,5.3-0.5,10.3-1.7,15.3c-0.7,2.9-1.2,5.9-1.8,8.9
		c-0.3,1.6-0.4,3.2-0.8,4.8c-0.1,0.4-0.9,0.6-1.3,0.8c-0.2-0.5-0.5-0.9-0.6-1.4c-0.1-0.3,0.2-0.6,0.3-0.9c0.2-2.1,0.2-4.2,0.6-6.2
		c0.9-4.1,2.3-8.2,3-12.4c0.6-3.9,1.4-4.2-3.2-4.7c-0.4,0-0.7-0.6-1.1-1c0.4-0.3,0.7-1,1.1-1c1.2,0,2.4,0.3,3.9,0.5
		c-0.1-1.9-0.4-3.9-0.4-5.8c0-4.7,0.3-9.4,0.3-14.1c0-2.8-0.3-5.7-0.5-8.8c-4,1.6-6.2-0.4-8.3-3.1c-0.2,3.4-0.4,6.5-0.5,9.7
		c-0.1,5.9-0.1,11.9,0,17.8c0.1,4.9-0.4,9.6-1.9,14.3c-1.5,4.5-2.6,9.2-4,13.8c-0.2,0.5-1,0.9-1.5,1.3c-0.2-0.1-0.4-0.3-0.5-0.4
		c0.4-7.4,4.9-13.8,5.5-21.2c-1.6-0.3-3.1-0.5-4.6-0.8c-0.8-0.1-1.8-0.2-1.5-1.4c0.3-1.1,1.2-0.8,2.1-0.6c1.4,0.3,2.8,0.4,4.5,0.7
		c0-9.1,0-17.7,0-26.5c-1,0-2,0-3,0c-2.5,0-4.3-1.8-4.3-4.2c0-1.3,0-2.6,0-3.9c-0.5,1-0.8,2-0.9,3.1c-0.3,3.1-0.3,6.2-0.7,9.3
		c-0.4,3.2-1.1,6.4-1.4,9.7c-0.4,3.5-0.3,7.1-0.8,10.7c-0.5,3.9-1.2,7.9-2.1,11.7c-0.5,2.2-1.5,4.2-2.4,6.3c-1.5,3.6-3,7.2-4.7,10.8
		c-0.2,0.4-0.9,0.7-1.3,1c-0.2-0.6-0.4-1.1-0.5-1.7c0-0.2,0.2-0.5,0.3-0.8c1.5-3.5,3-7,4.4-10.5c0.6-1.3,1.1-2.6,1.9-4.3
		c-2,0.2-3.7,0.4-5.4,0.4c-0.5,0-1.1-0.6-1.6-0.9c0.4-0.4,0.7-1,1.2-1c2.1-0.3,4.1-0.4,6.3-0.6c0.9-6.6,1.9-13.2,2.8-19.8
		c-3.5-0.8-5.9-2.1-5.5-6.4c-0.4,0.6-0.6,0.8-0.6,0.9c-1.7,5.7-3.4,11.3-5.1,17c-2.6,8.8-7.5,16.4-12.1,24.1
		c-1.9,3.2-4.5,6.2-5.6,9.7c-2.9,8.4-4.8,17.1-5.6,26c-0.8,0-1.6,0-2.4,0c0-5.9,1.5-11.6,2.9-17.2c0.8-3.3,1.4-6.5,0.6-9.9
		c-1.2-5.1-2.1-10.2-2.1-15.5c0-0.7-0.3-1.5-0.5-2.4c-2.3,0.2-4.5,0.2-6.6,0.5c-2.7,0.3-5.4,0.5-7.9,1.4c-4,1.5-7.8,3.6-11.6,5.6
		c-4.2,2.2-7.7,5.2-9.9,9.5c-0.6,1.2-0.8,2.3-0.3,3.7c1.5,3.9,2.8,7.8,4.2,11.7c1.5,4.2,3,8.4,4.6,12.6c-0.9,0-1.8,0-2.7,0
		c-2.5-6.9-5-13.8-7.5-20.7c-0.2,0-0.4,0.1-0.7,0.1c0,2.8,0,5.5,0,8.3c0,0.3-0.1,0.7-0.1,1c-0.4,3.7-0.8,7.5-1.3,11.2
		C168,341.7,167.2,341.7,166.4,341.7z M288.5,214.4c0-2.4,0.1-5.4,0-8.3c0-0.9-0.5-1.7-0.8-2.5c-0.5-1.5-1.5-2.4-3.2-2.2
		c-1.7,0.2-2.6,1.3-3.1,2.9c-0.2,0.5-0.7,0.9-1.1,1.4c-0.3-0.6-1-1.4-0.8-1.8c0.7-1.3,1.4-2.7,2.5-3.6c2.7-2.1,6.2-1.1,7.6,2.5
		c1.5,3.9,1.3,8,0.8,12.1c-0.2,1.3-1,2.7-1.9,3.8c-1,1.3-2.4,2.3-3.6,3.4c-1,0.9-1.9,2.2-3.1,2.6c-1.7,0.6-2.3,1.9-2.7,3.3
		c-0.4,1.5-0.6,3-0.7,4.5c0,0.6,0.3,1.4,0.7,2c1.9,2.4,4.4,1.3,6.7,1c0.6-0.1,1.4-0.8,1.7-1.4c1.4-3.4,2.7-6.8,3.8-10.2
		c0.8-2.4,1.6-4.9,1.6-7.3c0-4-0.3-8.1-1-12.1c-0.4-2.5-0.7-5.1-3.1-7.2c-3.4-2.9-9.1-0.6-10.5,3.1c-1,2.7-1.8,5.5-2.6,8.3
		c-1.2,4.1-4.4,5.9-8.3,6.4c-1.9,0.2-3.8-0.4-4.8-2.6c-1.8-4.2-3.7-8.2-5.7-12.3c-1.1-2.4-3.1-3.9-5.6-4.5
		c-4.7-1.2-9.5-2.3-14.2-3.4c-1.4-0.3-2.5-1-3.1-2.3c-0.7-1.7-1.4-3.5-2.1-5.3c-1.5-3.3-3.3-6.3-7-7.5c-2.9-1-5.9-1.8-8.8-2.7
		c-1.5-0.5-3.3-0.5-4.7-1.3c-2.4-1.3-2.3-1.9,0-3.5c1.7-1.2,3.3-2.5,4.9-3.8c1.3-1.1,2.4-2.3,3.8-3.3c1.3-1,2.8-1.7,4.1-2.6
		c2.3-1.6,4.5-3.3,6.8-5c0.9-0.7,1.7-1.6,0.7-2.8c-0.8-1.1-1.6-0.5-2.3,0.1c-3.7,2.6-7.4,5.2-11,7.8c-1.4,1-2.6,2.1-3.9,3.2
		c-2.9,2.5-6,4.5-9.7,5.4c-4.1,1-8.3,1.9-11.9,4.4c-2.7,1.9-5.6,3.7-7.8,6.1c-2.1,2.3-4.1,4.8-5.7,7.8c-1.3,2.5-1.3,4.8-1.4,7.1
		c-0.1,3.2,0.6,6.5,0.8,9.8c0.3,4,1.1,7.8,2.7,11.5c1,2.5,1.5,5.1,2.1,7.8c0.3,1.4,0.3,2.8,0.5,4.4c3.5-0.8,7-1.5,9.9-2.2
		c0.7-2.3-0.8-4.5,0.5-6.5c0.5,0.5,1,1.1,1,1.6c0.1,3.7,1.4,6.9,3.5,9.9c0.4,0.6,0.6,1.5,0.6,2.2c0.3,7.3-0.1,14.6-1.6,21.8
		c-0.6,2.7,0.4,5.2,2.6,5.5c1.8,0.3,3.7,0,5.6-0.1c1.2-0.1,2-0.6,2.5-2c0.5-1.2,1.6-2.3,2.6-3.3c1.4-1.3,3.2-1.1,5-1.1
		c1.6,0.1,2.8-0.5,3.5-1.9c0.7-1.6-0.4-4.9-1.8-6.1c-0.4-0.3-0.6-0.9-0.9-1.3c2.7,0.6,4,2,4.4,4.8c0.5,3.6-1.4,6.3-5,6.3
		c-1.8,0-3.6-0.1-4.9,1.4c-0.8,0.9-1.2,2-2,2.9c-0.7,0.8-1.6,1.6-2.6,1.9c-2.7,0.6-5.4,0.8-8.5-0.4c4.1,4.8,6.4,10.4,11.1,14.7
		c-0.2-2.2-0.1-4.1-2-5.4c-0.4-0.3-0.7-0.8-0.9-1.2c-0.8-1.7,0.8-4.8,2.3-4.4c1.9,0.5,3.2-0.2,4.7-1c3.7-2,8-2.2,12.1-2.6
		c3.4-0.3,6.9,0.2,10.4,0.3c0.7,0,1.7,0.1,2-0.3c1.8-2.3,4-3.8,6.9-4.2c0.4-0.1,1-0.7,1-1.2c0.3-2.2,0.4-4.4,0.7-6.5
		c0.3-2.3,0.7-4.6,2.9-6.1c1-0.7,2-1.4,3-2.1c1.7-1.1,3.4-1.1,4.7-0.1c1.8-1.1,3.4-2.1,5.1-3c2.3-1.2,4.6-0.2,5.2,2.3
		c0.5,2,0.5,4.1,0.7,6.2c0.3,2.6,0.6,5.1,0.9,7.7c1.3-2.7,2.3-5.2,5-6.5c0.8-0.4,1.5-0.8,2.1-1.4c0.4-0.4,0.9-1.1,0.8-1.6
		c-0.1-1.9-0.3-3.8-0.6-5.7c-0.6-4.6-1.2-9.1,1-13.5c0.1-0.3,0.2-0.6,0.2-0.9c0.1-1.9,0.2-3.8,0.1-5.7c0-0.6-0.4-1.5-0.8-1.7
		c-0.9-0.3-1.4-0.8-0.9-1.6c0.2-0.3,1.3-0.4,1.8-0.2c1.9,0.8,2.3,2.4,1.7,5.3c-0.2,0.9-0.2,1.9-0.3,2.8c0.2,0.1,0.5,0.2,0.7,0.3
		c1.4-1.6,2.8-3.2,4-4.9c0.6-0.8,2.6-0.9,1.5-2.6c-0.7-1-1.5-2-2.3-2.9c-0.3-0.4-0.9-0.5-1.3-0.8c-0.4-0.3-0.7-0.6-1-0.9
		c1.2-1.4,1.3-1.5,2.4-0.6C285.7,212,287.2,213.3,288.5,214.4z M234,273.1c-6.6,2.1-12.3,7.1-19.6,7c1.3,3.1,2.8,6.1,3.9,9.3
		c0.9,2.3,2.4,3.7,4.7,4.4c1.1,0.3,3.7-0.6,4.2-1.6c1.6-3.8,3.2-7.6,4.6-11.5C232.7,278.3,233.3,275.7,234,273.1z M211.3,272.1
		c0,1.2-0.1,2.2,0,3.1c0.4,2.7,1.5,3.8,4.2,3.5c2.2-0.3,4.5-1,6.6-1.8c3.5-1.4,6.8-3.3,10.3-4.7c2.6-1.1,3.8-4.3,3.9-6.9
		c-5.5,2.4-11.2,4.8-16.7,7.3C216.8,273.9,214.1,274.1,211.3,272.1z M198.4,235.4c-2.2,1-4.1,2.1-6.2,2.8c-1.5,0.5-1.6,1.3-1.3,2.6
		c0.3,1,0.6,1.9,0.9,2.9c1,4,2,8,3.1,12c0.3,1,1,1.9,1.6,2.8c0.1-0.1,0.3-0.1,0.4-0.2c0-2-0.3-4,0.1-5.9c1-4.9,1.5-9.8,1.3-14.8
		C198.2,236.9,198.3,236.1,198.4,235.4z M236.1,262.8c0-0.1,0-0.3,0-0.4c-1.2-0.2-2.3-0.5-3.5-0.4c-3.6,0.1-7.2,0.2-10.8,0.7
		c-2.6,0.4-5.1,1.1-7.5,2.1c-1.4,0.6-2.6,1.1-4.1,1.2c-0.7,0-1.4,0.6-2.1,1c0.5,0.8,0.7,1.8,1.4,2.3c0.4,0.3,1.5,0,2.2-0.3
		C219.7,266,227.7,263.7,236.1,262.8z M213.3,313.1c0.2,0,0.3,0,0.5,0c0.9-1.4,1.8-2.8,2.6-4.3c0.4-0.7,0.7-1.5,0.7-2.3
		c0.1-3.4,0-6.8,0-10.4c-1.7,0.2-3.5,0.3-5.8,0.5C212,302.3,212.7,307.7,213.3,313.1z M267.3,249.8c-0.3-3-0.5-6-1-8.9
		c-0.3-1.7-1.3-2-2.9-1.4c-2.7,1.1-2.9,1.5-2.9,4.3c0,0.3,0,0.7,0,1C260.6,248.5,263.3,250.7,267.3,249.8z M186.6,230.2
		c1.3,1.8,2.4,3.5,3.7,5.1c0.4,0.5,1.5,1,2,0.8c1.4-0.6,2.7-1.5,3.9-2.5c1.8-1.4,1.9-2.2,0.9-4c-0.8-1.6-1.8-2.3-3.5-1
		c-0.2,0.1-0.4,0.1-0.7,0.1C190.9,229.3,188.7,229.8,186.6,230.2z M257.2,253.1c-0.2-4,0.5-7.8-1.2-11.3c-3.2,1-4.3,2.4-4.3,5.3
		c0,0.9-0.2,1.9-0.3,2.8c-0.2,1.5,0.5,2.9,2,3.1C254.5,253.2,255.8,253.1,257.2,253.1z M244.8,268c0.2-1.5,0.5-3,0.7-4.6
		c0.2-1.5,0.5-3,0.7-4.5c-0.2-0.2-0.3-0.3-0.5-0.5c-1.3,0.7-2.8,1.2-4,2.1c-0.5,0.4-0.2,1.7-0.3,2.5c0,0.4-0.1,0.8-0.2,1.2
		C240.8,266.7,242.1,268.1,244.8,268z M278.2,247.7c-3.5,1.6-4.2,2.7-3.4,5.4c0.6,2.2,1.7,3.1,3.4,2.9
		C278.2,253.2,278.2,250.5,278.2,247.7z M219.3,303.6c0.2,0.1,0.4,0.1,0.7,0.2c1.2-2.3,2.5-4.6,3.7-7c-1.2-0.3-2.3-0.6-3.7-1
		C219.8,298.4,219.5,301,219.3,303.6z"/>
	<path class="st0" d="M202.2,220.1c2.1-0.9,4.1-1.9,6.2-2.8c4.3-1.9,8.6-3.8,13.1-5.5c2.6-0.9,5.3-1.4,8-1.9
		c0.5-0.1,1.1,0.5,1.7,0.7c-0.6,0.3-1.1,0.8-1.7,1c-3.9,1.4-7.9,2.6-11.7,4.3c-3.6,1.6-7,3.7-10.5,5.4
		C205.7,222.1,204.1,221.6,202.2,220.1z"/>
	<path class="st0" d="M218.3,229.5c-1.3-0.2-2.5-0.3-3.6-0.4c-0.9-0.2-1.7-0.8-1.3-1.7c0.3-0.6,1.3-1.3,1.8-1.2
		c5.5,1.1,10.1-1.1,14.6-3.7c0.9-0.5,1.8-1.2,2.8-1.5c0.5-0.2,1.2,0.3,1.8,0.5c-0.3,0.5-0.5,1.1-0.9,1.4c-3.1,2-5.9,4.7-9.7,5.6
		C221.9,228.9,220,229.2,218.3,229.5z"/>
</g>
</svg>
