<?xml version="1.0" encoding="utf-8"?>
<!-- Generator: Adobe Illustrator 19.2.1, SVG Export Plug-In . SVG Version: 6.00 Build 0)  -->
<svg version="1.1" id="Layer_1" xmlns="http://www.w3.org/2000/svg" xmlns:xlink="http://www.w3.org/1999/xlink" x="0px" y="0px"
	 viewBox="0 0 139.1 158.4" style="enable-background:new 0 0 139.1 158.4;" xml:space="preserve">
<style type="text/css">
	.st0{fill:#7B1FA2;}
</style>
<g id="icon-runnynose">
	<path class="st0" d="M0.8,158.4c0.1-5.3,0.4-10.5,0.4-15.8c-0.1-3.8-0.6-7.6-0.9-11.4c-0.4-4.3-0.5-8.5,0.8-12.7
		c0.7-2.2,1.2-4.4,2-6.6c0.8-2.4,2.4-4.2,4.4-5.7c2.1-1.6,4.3-3.1,7-3.6c0.4-0.1,0.7-0.1,1.1-0.2c2.5-0.1,5.1,0,7.6-0.3
		c1.1-0.1,2.2-0.8,3.1-1.4c1.3-1,2.7-0.9,4.2-0.9c0.9,0,1.9,0.2,2.7,0.3c-0.1-1.6-0.1-3.2-0.3-4.7c-0.3-1.8-0.8-3.6-1.2-5.3
		c0-0.2-0.1-0.4-0.1-0.6c-0.1-3-0.1-6-0.2-8.9c-0.1-2.8,0.1-5.7-0.2-8.5c-0.6-5.5-0.5-10.9-0.3-16.4c0.1-4.1,0.9-8.2,1.3-12.2
		c0.1-1.4,0.1-2.9,0.3-4.3c0.2-1.8,0.5-3.7,0.9-5.5c0.7-3,1.5-5.9,2.4-8.8c1.2-3.6,2.8-7,5-10.1c1.4-1.9,3.3-3.5,5.1-5.1
		c2.3-2.1,4.7-4.2,7.2-6c3-2.1,6.7-2.6,10.3-3.3c1.1-0.2,2.3,0,3.4-0.1c1,0,1.9,0,2.8-0.2c2.3-0.6,4.5,0.4,6.7,0.3
		c2.3,0,4.4,1.1,6.2,2.3c1.9,1.2,3.7,3,5.1,4.8c2.3,3.2,4.4,6.6,6.3,10.1c1.6,2.9,2.9,6,4,9.1c2,5.5,3.8,11.1,5.9,16.6
		c1.4,3.8,3.2,7.5,4.6,11.3c0.9,2.3,1.3,4.8,2.2,7.2c1.5,4.2,3.1,8.5,4.8,12.6c1.4,3.6,3.1,7,4.6,10.5c0.4,0.9,0.6,1.9,0.8,2.9
		c0.6,2.4,2.1,4.3,3.8,5.9c2.2,2.2,4.5,4.4,7,6.3c1.5,1.1,3,2.1,4,3.7c0.6,0.9,1,2,1.2,3.1c0.5,2.6,0.8,5.2,1.1,7.7
		c0.2,1.4,0.2,2.9,0.2,4.3c0,1.5-0.3,3-0.4,4.6c-0.1,0.9,0,1.9,0,2.8c0,1.8,0,3.5-0.1,5.3c-0.1,1.8-0.2,3.5,0.3,5.3
		c0.7,2.2,1,4.5,1.3,6.8c0.2,1.6-0.7,2.9-2,3.8c-1.3,0.9-2.8,1.6-4.5,1.5c-0.4,0-0.9,0.2-1.4,0.3c0.1,3.2-1.1,6.2-2,9.2
		c-0.5,0-1,0-1.4,0c1-3.2,1.9-6.4,1.9-9.9c0-1.8,0.3-3.7,0.6-5.5c0.2-1.2,0.8-2.4,1.2-3.6c1-2.9,2-5.8,2.9-8.7
		c0.3-0.9,0.6-1.8,0.7-2.7c0.1-1.2,0-2.4-0.2-3.7c-0.1-0.7-0.3-1.6-0.8-2c-1.1-1-2.6-1.6-4.1-1.5c-2.9,0.2-5.9,0.4-8.5,1.6
		c-2.5,1.2-5,2.6-7.4,4c-1.6,0.9-3.2,1.6-4.7,2.7c-2.1,1.5-4.2,3.2-6.3,4.8c-0.9,0.7-1.5,1.6-1.9,2.7c-0.9,2.6-1.8,5.2-2.8,7.8
		c-0.5,1.2-1.2,2.3-1.8,3.4c-1.3,3-2.6,6-3.9,9.1c-0.2,0.5-0.3,1-0.4,1.5c-0.5,0-1.1,0-1.6,0c0.1-0.5,0.2-0.9,0.4-1.4
		c0.9-2.1,1.8-4.1,2.7-6.1c0.8-1.8,1.5-3.5,2.3-5.3c0.5-1.2,1-2.4,1.4-3.6c0.2-0.6,0.4-1.2,0.6-1.8c0.4-1.4,1.8-2.6,1.3-4.3
		c0-0.1,0.1-0.2,0.1-0.3c1.1-3.6,2.3-7.2,3.4-10.8c0.6-1.8,0.8-3.8,1.5-5.6c0.9-2.1,2.2-4.1,3.4-6c0.7-1,1.6-2,2.5-2.8
		c0.3-0.3,0.9-0.1,1.4-0.2c0,0.4,0.1,0.9-0.1,1.1c-2.6,2.1-3.8,5.1-5.4,7.9c-0.9,1.6-1.1,3.4-1.6,5.2c-0.8,2.7-1.6,5.3-2.4,8.2
		c0.3-0.2,0.5-0.3,0.6-0.4c2.3-2.4,5.1-4.1,8-5.7c2.4-1.3,4.8-2.8,7.2-4.1c2.9-1.6,6.1-2.5,9.5-2.9c1.8-0.2,3.5-0.5,5.2,0.3
		c1.2,0.5,2.3,1.1,3.5,1.7c0,0,0.1-0.1,0.1-0.2c0.3-4.4,0-8.7-0.8-13.1c-0.6-3-2-5.4-4.9-6.9c-1-0.5-1.8-1.2-2.6-1.9
		c-1-0.9-1.9-1.7-3.5-1.9c-3-0.3-5.6,0.4-8.4,1.3c-2.5,0.8-4.6,2.1-6.6,3.8c-1.5,1.3-3.3,2.4-4.4,4c-2.3,3.2-5.5,5.3-8.3,7.8
		c-1.8,1.7-4.2,2.1-6.7,1.5c-0.3,1.1-0.6,2.1-1,3c-0.9,1.9-1.9,3.8-2.8,5.7c-1,1.9-1.7,4-3,5.6c-1.3,1.7-1.6,3.1-0.6,4.9
		c0.1,0.1,0.2,0.3,0.2,0.5c0.6,2.5,1.1,5.1,1.7,7.6c0.5,2,1.1,3.9,1.6,5.9c0.7,3,1.3,6.1,1.9,9.2c-0.5,0-1.1,0-1.6,0
		c-0.1-0.5-0.3-0.9-0.4-1.4c-0.6-3.7-1.1-7.4-2.6-10.9c-0.2-0.4-0.2-0.8-0.2-1.2c-0.5-2.7-0.8-5.6-1.6-8.2
		c-1.2-3.8-2.7-7.5-4.1-11.3c-0.8-2.1-1.8-4.2-1.5-6.6c0.2-1.1,0.6-2.1,0.8-3.2c0.6-2.7,1.1-5.5,1.6-8.2c0.2-0.9,0.1-1.9-0.1-2.8
		c-0.2-1.7-0.7-3.4-0.9-5.1c-0.3-2.5-0.4-5.1-0.6-7.6c-0.2-3.3-1.1-6.3-2.3-9.4c-1.2-3.1-2.2-6.3-3.4-9.4c-0.9-2.5-2-4.9-3-7.3
		c-1.1,0.6-1.9,1.1-2.9,1.6c0.3,0.5,0.6,1,0.8,1.5c0.6,1.1,1.3,2.1,1.7,3.2c1.3,3.7,2.5,7.4,3.8,11.1c0.8,2.4,1.7,4.8,2.6,7.3
		c0.1,0.3-0.1,0.7-0.2,1.1c-0.3-0.1-0.8-0.2-0.9-0.4c-0.3-0.7-0.5-1.5-0.7-2.2c-1-3.2-2.1-6.4-3.1-9.6c-1.3-4.5-3.4-8.7-5.5-12.9
		c-0.2-0.3-0.5-0.6-0.7-0.8c-0.7,0.5-1.2,1-1.9,1.3c-0.6,0.3-1.4,0.3-2.1,0.4c0,0.1,0,0.1,0,0.2c2.4,4.7,4.8,9.4,7.1,14.2
		c0.7,1.4,1.4,2.9,1.7,4.4c0.6,2.6,1.1,5.3,1.5,8c0.1,0.3-0.2,0.7-0.4,1c-0.3-0.3-0.7-0.5-0.8-0.9c-0.2-1.1-0.3-2.3-0.5-3.4
		c-0.4-2.2-0.7-4.5-1.5-6.5c-1.7-4-3.8-7.9-5.8-11.8c-0.1-0.3-0.7-0.6-1-0.6c-1.7,0.1-2.8-0.5-3.7-2c-1.1-2-1.2-2,0.5-3.4
		c0,0,0-0.1,0-0.2c-1.5,0.5-2.5,2.1-2.1,3.4c0.7,2,1.4,4,2.1,6c0.6,1.6,1.2,3.2,1.8,4.7c0.5,1.4,0.9,2.8,1.6,4.2
		c1.3,2.6,2.7,5.1,4.2,7.6c1.3,2.1,0.5,4.4,0.9,6.5c0,0.2-0.4,0.4-0.6,0.6c-0.2-0.2-0.5-0.5-0.5-0.7c-0.1-1,0-1.9-0.1-2.9
		c-0.1-0.8,0-1.6-0.4-2.3c-1.8-3.3-3.6-6.5-5.5-9.8c-0.1-0.3-0.4-0.5-0.5-0.6c-1,0.5-1.8,1-2.7,1.4c-1.2,0.5-1.8-0.4-2.7-1.2
		c0,0.3,0,0.6,0.1,0.7c1.4,2.7,2.9,5.4,4.3,8.1c0.3,0.5,0.5,1,0.6,1.6c0.4,2.5,0.2,5,1.6,7.3c0.7,1.1,0.7,2.4-0.3,3.5
		c-0.4,0.4-0.9,0.8-1.2,1.2c-0.9,1-0.5,2.2-0.3,3.4c0.5,3.1,0.9,6.2,1.4,9.4c0.2,1.6,0.6,3.2,0.7,4.8c0.1,0.8,0.3,1.3,1,1.8
		c0.8,0.5,1.3,1.3,1.3,2.3c0.1,3.2,0.1,6.4,0.2,9.5c0.1,4,0.1,8,0.2,12c0.1,3.1,0.5,6.2,0.8,9.4c-0.5,0-1.1,0-1.6,0
		c-0.1-1-0.1-2-0.2-3.2c-0.4,0.2-0.8,0.3-1.1,0.5c-0.7,0.4-1.4,0.8-2.1,1.3c-1.3,0.8-1.5,0.7-2.7-0.1c-0.8-0.6-1.8-1.2-2.8-1.8
		c-0.4,1.3-0.7,2.3-1,3.4c-0.5,0-1.1,0-1.6,0c0.1-0.2,0.2-0.4,0.2-0.6c0.7-2.8,1.4-5.7,2.2-8.5c0.9-3.2,2.1-6.2,2.5-9.6
		c0.2-1.8,0.7-3.6,1.5-5.2c1.7-3.6,2.2-7.2,1.8-11.1c-0.2-1.6-0.4-3.1-0.7-4.6c-0.5-3.1-1.1-6.2-1.7-9.4c-0.9,1.1-1.6,2.2-2.5,3.2
		c-0.2,0.2-0.6,0.5-0.8,0.4c-0.2-0.1-0.4-0.5-0.5-0.8c-0.2-0.6-0.2-1.3-0.3-1.9c-0.5-2.8-1-5.5-1.4-8.3c-0.4-2.9-0.7-5.8-1.1-8.7
		c-0.2-1.5-0.4-3.1-0.6-4.6c-0.1-0.9,0-1.7,0.9-2.2c0.9-0.5,1.7-1,2.5-1.6c-0.5-2.3-0.2-4.3,1.8-5.8c1.1-0.8,1.2-3.1,0.2-4.2
		c-0.4,0.7-0.8,1.4-1.2,2c-0.6,1-1.4,1.8-2.8,1.2c-0.7,1.9-1.3,3.7-1.9,5.4c-0.5,1.4-0.7,2.9-1.5,4.1c-1.4,1.8-1.8,3.8-1.7,5.9
		c0.1,2.9,0.4,5.8,0.6,8.7c0.2,3,0.4,6,1.1,8.9c1.3,5.2,0.7,10.2-2,14.9c-0.7,1.2-1.1,2.5-2.1,3.6c-0.9,0.9-1.2,2.3-1.7,3.5
		c-2.6,5.7-5.8,11.2-9.4,16.4c-2.1,3.1-4,6.2-6.7,8.9c-0.8,0-1.6,0-2.5,0c1.5-1.6,3-3.3,4.4-4.9c0.3-0.3,0.5-0.9,0.4-1.4
		c-0.3-3.8-0.6-7.5-0.9-11.3c-0.1-0.9-0.3-1.3-1.1-1.7c-3-1.7-5.9-3.4-8.8-5.2c-1.3-0.8-2.5-1.8-3.7-2.7c-0.8-0.6-1.8-1-2.6-1.6
		c-1.1-0.8-2.2-1.7-3.7-1.8c-0.3,0-0.7-0.3-1-0.5c-0.8-0.4-1.6-0.9-2.6-1.4c0.1,1.7,0.1,3.2,0.2,4.6c0.3,4.2,0.9,8.4,1,12.6
		c0.1,5.1-0.2,10.2-0.4,15.3C1.9,158.4,1.4,158.4,0.8,158.4z M75.9,68.2c0-0.7,0-1.1,0-1.5c-0.2-3-0.7-6-0.4-9
		c0.1-1.4-0.1-1.6-1.6-1.3c-0.2,0-0.5,0-0.7,0c-2.8-0.4-5.6-0.8-8.3-1.3c-0.2,0-0.3-0.5-0.5-0.7c0.2-0.1,0.5-0.4,0.7-0.4
		c0.5,0,1.1,0.1,1.6,0.3c2.2,0.5,4.4,1.1,6.7,0.9c1.6-0.1,2-0.6,1.8-2.2c-0.2-1.3-0.5-2.6-0.7-3.9c-0.1-0.9-0.5-1.2-1.3-1.1
		c-0.3,0-0.7,0-1,0.1c-2.1,0.7-4.3,1.3-6.4,2c-0.6,0.2-1.1,0.1-1.4-0.5c-0.3-0.6,0.2-0.9,0.7-1.1c1.4-0.5,2.8-1,4.2-1.4
		c1.2-0.3,2.4-0.7,3.6-0.9c1.3-0.2,1.5-0.5,1.2-1.7c-0.2-1-0.4-2.1-0.6-3.1c-0.6-3.2-1.1-6.4-1.7-9.6c-0.1-0.4-0.3-0.8-0.6-1
		c-2.2-2-4.7-3-7.7-3c-2.2,0-4.4-0.1-6.6-0.3c-1.4-0.1-2.2-1-2.7-2.3c-1.4-3.4-0.6-6.5,1.8-8.9c1-1.1,2.5-1.8,3.8-2.5
		c2-1.1,3.7-2.6,4.3-4.8c0.5-1.8,1.3-3.3,3.1-4.2c0.6-0.3,0.9-1,0.5-1.5c-0.3-0.3-1.1-0.5-1.5-0.3c-1.5,0.8-2.9,1.7-3.5,3.4
		c-0.3,1-0.6,2-1.1,2.8c-0.9,1.8-2.7,2.6-4.4,3.4c-2.3,1.2-4.3,2.7-5,5.2c-0.7,2.8-1.1,5.7-1.7,8.6c-0.1,0.6-0.4,1.4-0.8,1.5
		c-2.3,1-4.6,2-7,2.6c-2.7,0.7-4,1.9-4.2,4.7c-0.2,3.4-0.3,6.8-0.4,10.2c0,0.9,0.1,1.7,0.2,2.7c3.4-0.8,6.3,0.7,9.3,1.4
		c0.3,0.1,0.7,0.5,0.7,0.7c0,0.3-0.4,0.7-0.7,0.8c-0.3,0.1-0.7,0.1-1.1,0c-1.4-0.4-2.7-0.9-4.1-1.1c-1.1-0.2-2.2-0.2-3.3-0.2
		c-0.2,0-0.6,0.4-0.6,0.6c0.1,2.2,0.1,4.4,0.4,6.5c0.3,2.3,1,4.4,1,6.8c0,1.5,0.5,2.9,0.7,4.4c0.3,0,0.3,0,0.4-0.1
		c0.1-0.1,0.3-0.2,0.4-0.4c2.3-2.4,4.3-5,7.4-6.4c0.2-0.1,0.3-0.4,0.4-0.6c0.9-1.6,1.7-2.1,3.5-1.7c0.9-1.4,2.3-2,3.7-2.6
		c0.2-0.1,0.5,0.1,0.8,0.1c2.2,0.6,4.4,1.1,6.6,1.7c1.7,0.5,3.6,0.8,4.9,2.1c1.4,1.4,2.8,2.9,4.1,4.4C73.8,65.6,74.7,66.8,75.9,68.2
		z M25.2,137.8c-0.2-0.9-0.3-1.6-0.5-2.1c-1.1-3.3-2.2-6.7-3.4-10c-0.6-1.6-1.6-3.1-2.4-4.7c-0.1-0.3-0.4-0.6-0.4-0.8
		c0.1-0.4,0.2-0.8,0.5-1c0.2-0.1,0.8,0.1,0.9,0.3c0.7,1.2,1.5,2.4,2,3.6c1.5,4,2.9,8.1,4.2,12.2c0.4,1.1,0.4,2.3,0.5,3.4
		c0.2,2.9,0.3,5.9,0.5,8.8c0.1,1,0.2,2,0.3,3.3c0.4-0.6,0.7-0.9,0.9-1.2c0.5-0.8,0.8-1.6,1.4-2.3c2.9-3.7,4.9-7.9,7.2-12
		c0.5-0.8,0.6-1.7,0.5-2.7c-0.2-2.2-0.2-4.4-0.3-6.7c0-0.3,0-0.6,0-0.9c-0.3-2.9-0.5-5.9-0.8-8.8c-0.2-2-0.5-4-0.8-6
		c-0.2-1.5-0.5-3-0.6-4.4c-0.2-1.4-0.2-2.8-0.3-4.2c-0.8,0.1-1.6,0.3-2.3,0.2c-2.1-0.4-4-0.9-5.8,0.8c-0.5,0.5-1.5,0.2-2.2,0.5
		c-2,0.9-4,0.8-6,0.8c-3.4-0.1-6.3,0.8-8.9,2.9c-1.6,1.3-3.3,2.6-4.3,4.5c-1.9,3.7-2.5,7.9-3.4,11.9c-0.1,0.3,0,0.9,0.2,1
		c1.2,0.7,2.4,1.6,3.7,2c1.5,0.4,2.7,1.1,3.9,1.9c1.5,1,3.3,1.7,4.6,2.8c2.4,2.1,5,3.7,7.7,5.2C22.8,136.7,23.9,137.2,25.2,137.8z
		 M38.7,130.9c0.1,0,0.3,0,0.4,0.1c0.1-0.2,0.3-0.4,0.3-0.6c0.3-1.8,1.5-3.2,2.5-4.7c2.5-4,3.3-8.3,2.4-13c-0.5-2.4-1-4.8-1.2-7.2
		c-0.3-2.6-0.3-5.2-0.5-7.8c0-0.3-0.3-0.9-0.5-1c-0.3-0.1-0.7,0.3-1.1,0.5c-0.3,0.2-0.6,0.5-1,0.7c-1,0.5-2.1,1-3.1,1.5
		c-0.2,0.1-0.5,0.3-0.5,0.5c-0.1,1.2-0.2,2.3-0.1,3.5c0.3,2.4,0.7,4.8,1,7.1c0.2,1.9,0.4,3.8,0.6,5.7c0.3,2.9,0.6,5.8,0.8,8.7
		C38.8,126.8,38.7,128.9,38.7,130.9z M44.5,86.3c0.3-1.8,0.5-3.5,0.8-5.1c0.3-2.1,0.7-4.1,1-6.2c0.6-3.8,1.1-7.6,1.7-11.5
		c-1.7,0.4-13.4,12.9-14.2,15.1C37.4,81.2,40.9,83.7,44.5,86.3z M88.3,115.7c-0.7-0.2-1.6-0.3-2.2-0.8c-2.2-1.6-3.7-3.7-5.2-5.8
		c-0.2-0.3-0.6-0.4-0.9-0.7c-0.2,0.3-0.4,0.6-0.5,0.9c-0.5,2.6-1,5.2-1.6,7.8c-0.7,2.9,0,5.6,1.1,8.3c0.3,0.9,0.7,1.8,1,2.6
		c0.3,0.9,0.6,1.8,1,2.8C83.3,127.8,88.2,117.8,88.3,115.7z M59,126.7c-0.1,0-0.3,0-0.4,0c-0.1,0.4-0.2,0.8-0.2,1.2c0,2.1-0.3,4-1,6
		c-0.9,2.5-1.6,5-2.3,7.5c-0.7,2.6-1.3,5.2-2,7.8c-0.3,1-0.7,2-1,3c-0.3,0.7,0,1.2,0.6,1.6c0.8,0.5,1.7,1,2.4,1.6
		c0.5,0.4,0.8,0.3,1.2,0c1-0.7,2.1-1.2,3.1-1.9c0.3-0.2,0.5-0.7,0.5-1c-0.1-1.2-0.4-2.5-0.5-3.7c-0.1-2.3-0.1-4.6-0.1-7
		c-0.1-4.8-0.1-9.5-0.2-14.3C59.2,127.3,59.1,127,59,126.7z M75.9,83.9c0.1,0,0.2,0,0.3,0c0-0.3,0.1-0.6,0-1
		c-0.1-3.1-0.1-6.2-0.2-9.3c0-0.8-0.1-1.6-0.1-2.3c0-0.3-0.2-0.7-0.4-1c-2.5-3-5.1-5.9-7.6-8.8c-0.4-0.4-0.9-0.8-1.4-1
		c-2.2-0.8-4.5-1.5-6.7-2.1c-0.9-0.3-1.8-0.4-2.8-0.6c-0.2,0-0.4,0-0.6,0.1c-0.8,0.5-1.6,1-2.1,1.3c0.2,1.4,0.3,2.4,0.4,3.5
		c0.1,1.1,0,2.2,0,3.6c0.4-0.4,0.8-0.7,0.8-0.9c-0.1-1.4,0.8-2.2,1.7-3c1.7-1.7,3.3-1.6,4.8,0.2c0.1,0.1,0.2,0.1,0.2,0.2
		c0.7-0.4,1.4-0.7,2.1-1c0.8-0.3,1.6-0.3,2.1,0.4c2.2,2.8,3.9,5.9,5.1,9.2C73.1,75.5,74.5,79.7,75.9,83.9z M51.5,86.1
		c-0.8,0.5-1.6,0.9-2.2,1.4c-0.2,0.2-0.5,0.7-0.4,0.9c0.7,1.7,0.1,3.6,1.3,5.5c1.6,2.5,2.8,5.4,4.8,7.8c0.6,0.8,1.6,1.4,2.5,2.1
		c0.5-1.1,0.2-1.8-0.1-2.6c-0.6-1.4-2-2.6-1-4.3c-0.5-1.5,0.1-3.4-1.3-4.7c-0.3-0.2-0.3-0.6-0.5-1C53.4,89.5,52.5,87.9,51.5,86.1z
		 M131.3,147.5c2.1,0.2,3.8-0.4,5.3-1.7c0.4-0.4,0.8-1,0.8-1.5c0-1.3-0.2-2.7-0.5-4c-0.4-2.5-1.6-4.8-1.3-7.4c0,0-0.1-0.1-0.3-0.2
		C134.3,137.7,131.4,142.1,131.3,147.5z M56.3,104.5c-3.3-2.2-4.8-5.7-6.9-9c0.8,5.1,1.6,10.2,2.4,15.4c0.1,0,0.2,0,0.3,0
		C53.5,108.8,54.9,106.7,56.3,104.5z M46.3,82c1.2-2.8,2.3-5.3,3.4-7.8c0.6-1.3,1.4-1.8,2.7-1.7c0.5-2.7,1.1-5.3,1.6-8
		c-0.2-0.1-0.3-0.2-0.5-0.2c-0.3,0.3-0.7,0.6-0.9,1c-0.4,0.8-0.6,1.7-0.9,2.6c-0.6,1.7-1.1,1.9-2.7,1c0,0-0.1,0-0.3,0
		C48,73.2,46.2,77.3,46.3,82z M56.9,63.8c0.5,0.7,0.9,1.3,1.4,1.7c0.9,0.9,1.8,0.9,2.8,0.1c1.1-0.9,1.1-0.9,0.1-2.3
		c-0.2-0.2-0.3-0.4-0.5-0.7c-0.5-0.7-1.2-0.9-1.9-0.4C58.2,62.8,57.5,63.4,56.9,63.8z M56.3,82.3c-0.6-0.7-1.2-1.3-1.7-1.9
		c-0.4-0.5-0.8-0.8-1.2-0.3c-0.5,0.6-1.3,1.4-1.2,1.9c0.5,1.9,2,2.2,3.5,0.9C55.9,82.7,56.1,82.5,56.3,82.3z M63,63.5
		c0.3,0.5,0.5,0.9,0.7,1.3c1,1.6,1,1.6,2.6,0.7c0.3-0.2,0.6-0.3,0.9-0.4c-0.3-0.5-0.7-1-1-1.5c-0.8-1.2-1.2-1.3-2.5-0.6
		C63.5,63.1,63.3,63.3,63,63.5z M56.9,81.5c0.1,0,0.2-0.1,0.3-0.1c-1.2-3.2-2.4-6.4-3.7-9.6c-0.1,0-0.2,0-0.3,0.1
		c0.2,0.8,0.4,1.7,0.6,2.5c0.2,0.8,0.9,1.6,0.8,2.3C54.3,78.9,55.9,80,56.9,81.5z M57.5,67.1c-1.6,1.1-1.6,1.1-0.7,2.8
		c0.1,0.1,0.1,0.3,0.2,0.3c0.5,0.3,1,0.6,1.6,0.8c0.6,0.1,0.8-0.2,0.5-0.8C58.5,69.1,58,68.1,57.5,67.1z M51.9,63.9
		C51.5,64,51.1,64,51,64.1c-0.6,1.1-1.3,2.1-1.8,3.3c-0.1,0.1,0.4,0.6,0.7,0.8c0.1,0.1,0.6-0.2,0.7-0.5C51,66.6,51.4,65.3,51.9,63.9
		z M53.6,63.2c0.2-2.2,0.3-3.4-1.5-3.4c0,1,0,2.1,0,3.2C52.5,63,53.1,63.1,53.6,63.2z M49.4,77.1c0.1,0.1,0.2,0.2,0.3,0.3
		c0.2-0.1,0.5-0.2,0.6-0.3c0.6-0.9,1.2-1.8,1.7-2.8c0.1-0.1-0.1-0.6-0.2-0.7c-0.2-0.1-0.6,0-0.7,0.2C50.5,74.9,50,76,49.4,77.1z
		 M50.9,59.8c-1.6,1.6-1.6,2.3-0.2,2.9C51.6,61.8,51.3,60.9,50.9,59.8z M48.7,65.2c0.1,0,0.1,0.1,0.2,0.1c0.4-0.5,0.7-1.1,1.1-1.7
		c-0.4-0.2-0.7-0.3-1-0.5C48.9,63.9,48.8,64.5,48.7,65.2z"/>
	<path class="st0" d="M52.3,55.6c-2.7,1.3-5.3,2.5-8.3,2c-0.9-0.2-1.8-0.9-2.6-1.5c-0.1-0.1,0-0.6,0-1c0.3,0,0.7,0,0.9,0.1
		c1.2,1.4,2.8,1.4,4.3,1c1.4-0.3,2.8-0.9,4.2-1.5C51.7,54.4,52,54.6,52.3,55.6z"/>
</g>
</svg>
