<?xml version="1.0" encoding="utf-8"?>
<!-- Generator: Adobe Illustrator 19.2.1, SVG Export Plug-In . SVG Version: 6.00 Build 0)  -->
<svg version="1.1" id="Background_copy_2_xA0_Image_1_"
	 xmlns="http://www.w3.org/2000/svg" xmlns:xlink="http://www.w3.org/1999/xlink" x="0px" y="0px" viewBox="0 0 148 132.6"
	 style="enable-background:new 0 0 148 132.6;" xml:space="preserve">
<style type="text/css">
	.st0{fill:#388E3C;}
</style>
<g id="icon-nausea">
	<path class="st0" d="M1.3,132.6c0.7-2.1,1.7-4.1,2.8-6.1c1.1-2,1.9-4,2.9-6c0.9-1.7,1.9-3.3,2.7-5.1c1.6-3.6,4.1-6.6,6.2-9.9
		c1.4-2.2,2.6-4.5,3.9-6.8c1.1-1.9,2-3.9,3.1-5.9c0.1-0.2,0.2-0.4,0.4-0.7c1,1.3,1.9,2.7,2.9,3.8c1.8,1.9,3.8,3.8,5.7,5.6
		c1.4,1.3,2.7,2.6,4.1,4c0.2,0.2,0.2,0.7,0.1,0.9c-0.7,1.4-1.6,2.6-2.2,4.1c-0.7,1.9-1.9,3.5-3,5.1c-1.9,2.7-3.7,5.5-4.8,8.7
		c-0.5,1.3-1.6,2.4-2.4,3.6c-1,1.6-2,3.2-3,4.8h1.4c1.1-1.9,2.3-3.8,3.7-5.4c0.9-1.1,1.5-2.6,2.1-3.9c1.1-2.6,2.8-5,4.3-7.3
		c1-1.5,1.9-3,2.9-4.5c0.2,0.8,0.5,1.8,0.6,2.8c0.2,2.2,0.3,4.4,0.5,6.7c0.2,1.7,0.4,3.5,0.6,5.2c0,0.1,0,0.3,0,0.4
		c0,2.1,0.1,4.1,0.1,6.2h1.3c0-0.7-0.1-1.4-0.1-2.1c-0.1-1.5,0-3,0-4.5c0.4,0.5,0.7,1.1,1.2,1.6c0.8,0.8,1.7,1.5,2.4,2.4
		c1,1.1,2.2,2,3.5,2.7h1.6c0.1-0.3-0.3-0.8-0.6-1c-0.7-0.6-1.6-0.9-2.3-1.5c-2-1.7-3.8-3.5-5.4-5.6c-0.4-0.5-0.8-1.1-0.8-1.7
		c-0.2-1.9-0.2-3.8-0.4-5.7c-0.1-1.1-0.1-2.2-0.5-3.3c-0.7-2-0.1-3.8,0.3-5.7c0.4,0.2,0.8,0.3,1.3,0.5c0.7-1.1,1.6-2.2,2.1-3.4
		c0.8-1.7,1.4-3.5,1.9-5.3c0.7-2.5,1.6-5,2-7.5c0.5-2.8,0.5-5.7,0.7-8.6c0.1-1.9,0.2-3.9-0.1-5.8c-0.3-2.3-0.9-4.6-1.4-6.9
		c-0.1-0.5-0.2-1-0.4-1.5c-0.1-0.2-0.5-0.3-0.8-0.3c-0.2,0-0.4,0.4-0.4,0.7c0,0.5,0.2,1,0.3,1.6c0.5,2.4,1.2,4.9,1.3,7.3
		c0.1,3.6-0.2,7.2-0.4,10.8c-0.1,2.1-0.3,4.2-1,6.3c-0.5,1.7-1,3.5-1.5,5.2c-0.1,0.5-0.5,0.8-1,0.6c-0.4-0.2-0.9-0.4-1.2-0.7
		c-1.1-1.1-2-2.4-3.1-3.5c-2.2-2.3-4.6-4.4-6.7-6.9c-1.5-1.9-3.6-3-5.4-4.5c-0.8-0.7-1-1.5-0.3-2.3c1.3-1.7,2.6-3.3,3.8-5
		c1.1-1.7,1.9-3.5,3.3-4.9c1.1-1.1,2-2.3,3.1-3.3c2.7-2.5,6.3-3.4,9.7-4.5c2-0.6,4.1-0.1,6.2-0.1c1.9,0,3.9-0.1,5.8-0.3
		c1.3-0.1,2.6-0.6,3.8-0.8c1.1-0.2,1.3,0,1.5,1.1c0.2,1.4,0.6,2.8,0.9,4.1c0.1,0.5,0.3,0.9,0.3,1.4c0.4,2,0.8,4,1.7,5.8
		c1.7,3.4,3.3,6.8,4.9,10.3c0.4,0.9,0.7,1.8,1.4,2.5c2,2,4.1,4.1,6.3,5.8c1,0.8,2.5,1.2,3.8,1.7c0.9,0.3,1.3-0.1,1.1-1
		c-0.2-1.1-0.5-2.2-0.7-3.3c-0.1-0.3-0.1-0.8,0.1-0.9c0.2-0.2,0.7-0.2,0.9,0c1.3,0.5,2.6,0.5,3.9,0.2c0.2,0,0.4-0.1,0.5-0.1
		c2-0.4,4.1-0.5,6-1.3c1.8-0.7,4-1.2,5.3-2.9c0.2-0.2,0.7-0.3,1-0.2c0.2,0.1,0.4,0.7,0.3,0.9c-0.4,1.3-0.9,2.5-1.4,3.8
		c-0.4,1.1-0.8,2.2-1.2,3.5c0.8-0.6,1.5-1,2.1-1.5c0.9-0.7,1.8-1.4,2.8-2.1c2.8-2.2,4.4-5.1,4.3-8.7c-0.1-2.2-0.6-4.3-0.9-6.5
		c-0.2-1.2-0.5-2.3-0.8-3.5c0.1,0,0.2-0.1,0.2-0.1c0.6,1,1.3,1.9,1.9,2.9c0.2,0.3,0.2,0.8,0.5,1.1c1.4,1.6,2.3,3.6,3.2,5.5
		c0.9,1.9,1.8,3.8,2.7,5.7c1,2,1.9,4,2.9,6.1c0.1,0.2,0,0.5-0.1,0.7c-0.8,1-1.3,2.1-1.5,3.3c-0.6,3.7-1.2,7.4-1.8,11
		c-0.5,3-1,5.9-1.5,8.9c-0.2,1.2-0.5,2.4-0.6,3.6c-0.1,1.3,0,2.7,0.1,4c0.2,1.8-0.2,3.3-1.4,4.7c-0.4,0.4-0.8,1-1.2,1.4h3.2
		c0-0.3,0.1-0.7,0.1-1c0.3-1.7,0.5-3.4,0.5-5.1c0-2.3,0.3-4.6,0.5-6.8c0.1-1.4,0.3-2.9,0.6-4.3c0.4-2.4,0.9-4.9,1.5-7.3
		c0.4-1.8,1-3.6,1.4-5.4c1,1.6,1.9,3.1,2.9,4.6c1.2,1.9,2.5,3.7,3.7,5.6c0.9,1.4,1.5,3,2.4,4.3c2,3,4,5.9,6.1,8.8
		c1,1.3,2.1,2.5,3.3,3.6c1.5,1.3,3.3,1.8,5.2,1.9c1,0.1,2.1,0.3,2.9,0c3.8-1.3,6.3-3.8,7-7.9c0.2-1.2,0.5-2.4,0.2-3.5
		c-0.4-2.3-1.1-4.5-1.8-6.8c-0.6-1.8-1.4-3.6-1.8-5.5c-0.6-2.2-1.4-4.2-2.6-6.1c-1.4-2.3-3-4.4-4.5-6.6c-0.8-1.2-1.6-2.5-2.6-3.6
		c-2.4-2.7-4.4-5.6-6-8.8c-0.3-0.5-0.6-1-0.9-1.5c-1.8-2.5-3.5-5.1-4.9-7.9c-0.5-1-1-1.9-1.7-2.7c-1.2-1.3-2.6-2.3-3.6-3.8
		c-0.7-1-1.8-1.9-2.3-3c-0.8-1.6-1.4-3.3-2-4.9c-0.2-0.6-0.4-1.3-0.3-1.9c0.2-2.6,0.6-5.2,0.9-7.9c0.1-1.4,0.4-2.8-0.6-4
		c-0.2-0.3-0.3-0.8-0.3-1.2c0.1-1.9,0.3-3.9,0.4-5.8c0.1-2,0.2-4.1,0.3-6.2c0-0.5-0.1-1.1,0.1-1.6c1-2.1,1.3-4.2,1.2-6.5
		c-0.1-1.6,0-3.3-0.3-4.9c-1-5.1-3.4-9.5-7.5-12.8c-1-0.8-2-1.5-2.7-2.5c-0.9-1.2-2.1-1.8-3.4-2.3c-0.4-0.2-0.8-0.4-1.2-0.5
		c-1-0.3-2-0.8-3-0.9C94.2-0.1,92,0,89.8,0.2c-2.3,0.2-4.5,0.8-6.7,1.3c-3.9,1-7,3.3-10.1,5.7c-2.5,2-4.1,4.8-5.7,7.5
		c-1.7,3-3.3,6.1-4.9,9.2c-0.4,0.7-0.7,1.5-0.8,2.3c-0.6,2.8-1,5.6-1.6,8.3c-0.5,2.6-1,5.1-0.9,7.7c0,1.1-0.2,2.3-0.4,3.4
		c-0.5,3.1-0.9,6.2-0.2,9.3c0.2,0.9,0.2,1.9,0.4,2.9c0.3,1.8,0.6,3.7,0.9,5.4c-0.8,0.2-1.4,0.3-2,0.5c-1.6,0.4-3.2,0.7-4.8,0.7
		c-2.6,0-5.1,0-7.7,0c-0.3,0-0.6,0-0.9,0.1c-1.7,0.5-3.5,1-5.2,1.4c-1.2,0.3-2.4,0.9-3.5,1.4c-3.3,1.6-5.6,4.4-7.8,7.2
		c-1.3,1.8-2.3,3.8-3.6,5.6c-1.7,2.2-3.6,4.2-5.4,6.3c-0.6,0.7-0.6,1.5,0.1,2.1c0.8,0.7,1.7,1.3,2.6,1.9c0.4,0.3,0.7,0.5,0.4,1.1
		c-1.1,2.1-2.1,4.3-3.3,6.3c-1.5,2.7-3,5.4-4.6,8c-1.9,3-4,5.7-5.5,8.9c-1.6,3.4-3.4,6.8-5.1,10.2c-1.3,2.5-2.6,5-3.5,7.6H1.3z
		 M77.6,85.7c-0.8-3.7-1.4-7.4-1.5-11.2c-0.1-3.2,0.1-6.4-0.1-9.6c-0.1-2.6-0.5-5.2-0.9-7.8c-0.2-1.6-0.7-3.2-1-4.8
		C74,52.2,74,51.9,74,51.6c-0.1-2-0.1-4.1-0.2-6.1c0-0.6-0.1-1.2-0.1-1.8c0.1,0,0.2,0,0.3-0.1c0.6,1.4,1.1,2.8,1.7,4.2
		c0.5,1.2,1,2.4,1.6,3.6c0.8,1.7,2.4,2.6,3.8,3.7c2,1.5,4,2.9,6.1,4.3c1.9,1.3,4,1.8,6.2,1.5c0.6-0.1,1,0,1.3,0.6
		c0.3,0.6,0.6,1.2,1,1.7c0.5,0.8,0.3,1.5-0.1,2.2c-1.2,1.9-1.8,4-1.6,6.3c0.1,1.7,0,3.3,0.2,5c0.2,1.5,0.8,2.9,1.3,4.4
		c0.1,0.3,0.3,0.6,0.3,1c0,0.2-0.1,0.5-0.2,0.6c-2.2,1.6-4.4,3.2-7,4.3c-1.8,0.8-3.4,1.2-5.2,1c-1.7-0.2-3.5-0.6-5-1.5
		C77.9,86.3,77.6,86,77.6,85.7z M90.3,89.7c-1.5,0.4-3,0.9-4.6,1.1c-2.1,0.2-4.2,0.1-6.2-0.5c-0.7-0.2-1.1-1.1-0.8-2.1
		c0.7,0.2,1.4,0.4,2.2,0.6c3,0.8,5.8,0.5,8.6-0.8c2.2-1,4.1-2.3,5.9-3.7c0.8-0.6,1.1-0.5,1.6,0.4c0.2,0.4,0.3,0.8,0.5,1.1
		C95.6,88.2,93,89,90.3,89.7z M120.5,110.2c-0.1-0.1-0.2-0.2-0.3-0.3c-1.7-2.7-3.8-5-4.9-8c-0.2-0.5-0.6-0.9-0.6-1.4
		c0-0.9,0.2-1.9,0.4-2.8c0.1,0,0.1,0,0.2,0c1,2.3,1.9,4.6,2.9,6.9c0.2,0.6,0.5,1.1,0.8,1.6c0.6,1.3,1.2,2.6,1.8,3.9
		C120.7,110,120.6,110.1,120.5,110.2z M112.6,49.6c-0.3,2.5-0.6,4.9-0.8,7.4c-0.1,0.8,0.1,1.6,0.4,2.3c1,2.3,1.6,4.8,3.1,6.9
		c0.2,0.2,0.3,0.4,0.5,0.6c1.2,1.3,2.2,2.8,3.6,4c0.9,0.8,1.7,1.9,2.3,3.1c1.4,2.8,3.2,5.4,4.9,8c0.7,1.1,1.4,2.2,2,3.4
		c1.4,2.6,3.3,4.7,5.1,7c1.2,1.5,2.3,3.3,3.4,4.9c1.3,1.8,2.7,3.5,3.8,5.4c1,1.7,1.6,3.5,2.4,5.4c0.6,1.5,1.1,3.1,1.5,4.7
		c0.6,2.1,1.3,4.2,1.8,6.4c0.3,1,0.4,2.2,0.3,3.2c-0.1,1.1-0.3,2.3-0.8,3.3c-1.1,2.4-4,5-6.6,5c-3.2-0.1-6-1-7.9-3.7
		c-1.9-2.6-3.8-5.2-5.6-7.8c-0.1-0.1-0.2-0.3-0.3-0.5c-0.8-1-1.3-2.2-1.6-3.5c-0.4-1.8-1.3-3.4-1.9-5.1c-0.2-0.6-0.4-1.3-0.6-1.9
		c-0.2-0.5-0.3-1.1-0.7-1.6c-1.2-1.6-1.7-3.4-2.4-5.2c-0.8-2-1.6-4-2.5-6c-0.2-0.6-0.4-1.1-0.6-1.7c-0.7-1.6-1.3-3.3-2.1-4.8
		c-1.3-2.4-2.5-4.9-3.5-7.5c-0.3-0.8-0.7-1.5-1.2-2.1c-1.4-1.4-2-3.2-3.2-4.8c-1.4-1.8-2.7-3.7-4.1-5.5c-0.4-0.5-1-0.9-1.4-1.4
		c-0.7-0.8-1.3-1.6-1.9-2.5c-0.7-1-1.2-2.1-1.8-3.1c-0.6-0.8-1.3-1.6-2-2.3c-1.1-1.1-2.3-2.2-3.5-3.3c-1.7-1.8-3.4-3.6-4.6-4.9
		c0.6-0.7,1-1.2,1.6-1.9c0.9,0.6,1.7,1.7,2.7,2.8c-0.1,0.1-0.1,0.3-0.2,0.4c0,0.2-0.1,0.5,0,0.5c0.2,0.1,0.5,0.1,0.6,0
		c0.3-0.4,0.6-0.1,0.9,0c1.5,0.8,3,1.6,4.5,2.5c0.3,0.2,0.6,0.5,0.9,0.7c0.2,0.1,0.4,0.1,0.7,0.1c0-0.3,0-0.6-0.1-0.8
		c-0.7-0.6-1.4-1.1-2.2-1.6c-1.1-0.7-2.4-1.2-3.5-1.9c-0.8-0.5-1.4-1.2-2.1-1.8c-0.7-0.7-1.4-1.4-2.2-2c-1.2-0.8-2.5-1.3-3.7-2
		c-0.4-0.2-0.8-0.6-1.1-0.9c0.7-0.8,1.3-1.4,2.1-2.3c2.1,1.3,4.2,2.7,6.5,4.2c0,0,0,0.1,0,0.1c0,0.2,0.1,0.4,0.2,0.6
		c0.2-0.1,0.5-0.1,0.5-0.2c0.3-0.5,0.7-0.4,1.2-0.2c0.5,0.2,1,0.5,1.5,0.7c1.2,0.7,2.4,1.4,3.6,2.1c0.4,0.2,0.7,0.6,1.2,0.8
		c0.2,0.1,0.5,0,0.8,0c0-0.2,0-0.5-0.1-0.7c-0.1-0.2-0.4-0.3-0.6-0.5c-2.3-1.7-4.8-3.1-7.7-3.9c-1-0.3-2-1-2.9-1.6
		c-1.2-0.7-2.4-1.5-3.6-2.3c0.5-0.8,1-1.6,1.4-2.2c2.5,1,5,2.1,7.3,3.1c0,0.5,0.1,1,0.1,1.4c0.4-0.2,0.7-0.4,1.2-0.7
		c2.1,0.7,4.4,1.5,6.6,2.4c0.7,0.3,1.3,0.7,2.1,0.9c0.3,0.1,0.6-0.1,0.9-0.2c-0.2-0.2-0.4-0.5-0.7-0.6c-1-0.5-2.1-1-3.1-1.4
		c-1.5-0.6-3.1-1.1-4.6-1.7c-0.6-0.2-1.2-0.6-1.8-0.9c-1.7-0.7-3.4-1.4-5.1-2.1c-0.2-0.1-0.4-0.2-0.5-0.2c0.3-0.9,0.6-1.7,1-2.6
		c2.3,0.6,4.8,1.3,7.3,2c-0.2,0.3-0.3,0.5-0.4,0.8c-0.1,0.2,0,0.4,0,0.6c0.2,0,0.4-0.1,0.6-0.1c0.1,0,0.1-0.1,0.1-0.2
		c0.4-1,1.3-0.9,2.1-0.7c1.1,0.3,2.3,0.8,3.4,1.2c0.8,0.3,1.5,0.7,2.3,1c1.5,0.6,2.5,1.8,3.7,2.9c0.2,0.2,0.5,0.2,0.8,0.3
		c0-0.3,0.1-0.7-0.1-0.9c-1.1-1.1-2-2.3-3.5-2.9c-0.2-0.1-0.4-0.5-0.5-0.7c-0.2-0.4-0.3-0.8-0.4-1.2c0.6-0.3,1.3-0.6,2-0.9
		c1.1,1.5,2.3,3,3.3,4.6c0.6,1,1.2,2.1,1.5,3.2C112.8,47.6,112.7,48.6,112.6,49.6z M85.3,49.8c-0.6,0.2-0.7-0.4-1-0.8
		c-0.1-0.3-0.4-0.5-0.5-0.8c-0.1-0.2,0-0.5,0.1-0.6c0-0.1,0.4-0.1,0.5,0c0.6,0.4,1.2,0.8,2.1,1.3C86,49.3,85.7,49.7,85.3,49.8z
		 M84,42.8c-0.5,0.8-0.8,1.7-1.9,1.7c-0.9,0-1.9-1.8-1.5-2.5c0.3-0.5,0.7-0.6,1.2-0.4C82.6,41.9,83.2,42.3,84,42.8z M82.2,39.7
		c0.4-0.5,1-0.8,1.5-1.1c0.8,0.3,1.4,0.5,1.9,0.7c0.1,0,0.2,0.2,0.2,0.4c0.1,0.6-0.7,1.9-1.3,2c-0.1,0-0.3,0-0.4,0
		c-0.6-0.3-1.2-0.6-1.7-0.9C82,40.5,82,40,82.2,39.7z M86.2,37.9c0-0.6,0.5-0.8,1-0.8c0.4,0,0.8,0.1,1.3,0.1c0.6,0,0.9,0.2,0.7,0.7
		c0,1-0.5,1.6-1,1.7C87.5,39.6,86.2,38.4,86.2,37.9z M106.9,37.8c0.1,0.1-0.1,0.5-0.2,0.6c-0.4,0.1-0.8,0.3-1.1,0.1
		c-1.3-0.5-1.7-1.7-1.3-3.2C105.4,35.8,106.2,36.7,106.9,37.8z M106.5,35.7c1.5,0.4,2.9,0.9,4.5,0.5v5c-0.1,0-0.1,0-0.2,0.1
		C109.3,39.4,107.9,37.5,106.5,35.7z M111.6,30.4c-0.1,1.3-0.2,2.5-0.4,3.8c-0.1,0.8-1.1,1.3-1.9,1c-1-0.3-2-0.7-2.9-1.1
		c-0.7-0.3-1.5-0.5-2.4-0.8c0.3-0.5,0.7-1.1,1-1.6c0.6-1.3,1.7-1.8,3-1.8c1-0.1,2-0.2,3-0.2C111.4,29.6,111.6,29.8,111.6,30.4z
		 M72.8,32.3c0.1,0.2,0.2,0.4,0.4,0.5c0.6,0.7,1.3,0.7,1.9,0c0.4-0.5,0.8-1.1,1.2-1.6c1.2-1.2,2.7-1.9,4.2-2.5
		c1.4-0.6,2.8-1.2,4.2-1.8c0.3,0.7,0.8,0.7,1.5,0.7c1.3-0.1,2.7-0.1,4-0.1c2.1,0,4,0.7,5.9,1.7c0.1,0.1,0.2,0.2,0.3,0.2
		c0.3,0,0.6-0.1,0.9-0.2c-0.1-0.3-0.2-0.7-0.4-0.8c-1-0.5-2.1-0.9-3.2-1.3c-2.2-0.8-4.5-0.4-6.8-0.3c-0.3,0-0.6,0-0.9,0
		c0-0.1,0-0.2,0-0.3c1.6-0.6,3.2-1.2,4.8-1.9c2.2-1,4.1-2.4,6-3.9c1.4-1.2,2.9-2.3,4.4-3.5c1.8-1.5,2-2.6,1.3-5.1
		c-0.2-0.9-0.6-1.7-0.8-2.5c-0.1-0.2-0.1-0.5-0.1-0.7c0-0.6,0.2-1,0.8-1.1c0.6-0.1,1,0.2,1.2,0.7c0.4,1.1,0.8,2.3,1.1,3.4
		c0.4,2,1.2,3.7,2.8,5c1.3,1,1.8,2.5,2.4,3.9c0.9,1.9,1,4,1.2,6.1c0,0.6,0.1,1.1,0.2,1.8c-0.5,0-0.9,0-1.4,0
		c-1.1,0.1-2.1,0.2-3.2,0.3c-0.9,0-1.5,0.5-2,1.2c-0.8,1.1-1.7,2.1-1.8,3.6c0,0.4,0,0.8,0.1,1.2c0,0.4,0.1,0.9,0.2,1.3
		c0.2,0.8,0.5,1.6,0.8,2.3c0.4,0.8,0.8,1.5,1.3,2.3c-0.1,0.1-0.1,0.1-0.2,0.2c-0.6-0.3-1.1-0.6-1.7-0.8c-1.8-0.5-3.6-1-5.4-1.5
		c-2.3-0.6-4.6-1.1-6.8-1.9c-1.5-0.5-3-0.6-4.5-0.7c-0.7,0-1.2,0.6-1.3,1.2c0,0.2,0,0.4-0.1,0.7c-0.4-0.1-0.8-0.3-1.2-0.3
		c-1.4-0.1-2.7,0.9-3,2.3c0,0.2-0.3,0.4-0.4,0.5c-1.3,0.8-1.6,2.3-0.5,3.4c0.8,0.8,1.6,1.7,2.4,2.5c0.1,0.1,0.4,0.4,0.3,0.5
		c-0.3,1.8,0.8,3,1.8,4.2c1.9,2.2,3.9,4.3,5.9,6.5c0.7,0.7,1.3,1.5,2.1,2.4c-0.7,0-1.3,0-1.9-0.1c-1.4-0.4-2.7-0.9-3.9-1.9
		c-1.2-0.9-2.4-1.6-3.6-2.5c-1.4-1-2.9-2-4.1-3.1c-0.8-0.7-1.4-1.7-1.8-2.7c-1-2.4-1.9-5-2.9-7.5c-0.3-0.7-0.4-1.4-0.7-2.1
		c-0.1-0.2-0.3-0.5-0.5-0.6c-1.2-0.8-1-1.9-0.8-3c0.1-0.5,0.3-0.9,0.6-1.4c0.3-0.6,0.2-1-0.4-1.5c-0.7-0.5-1.2-1.3-1.8-2
		C71.8,31.4,72.4,31.7,72.8,32.3z M69,37.3c0.2-1.2,0.6-2.5,0.9-3.7c0.1-0.3,0.2-0.5,0.4-0.9c0.5,0.7,1,1.2,1.4,1.7
		c0.1,0.1,0,0.3,0,0.5c-0.1,1-0.1,2-0.2,2.9c0,0.2-0.1,0.3-0.1,0.5c-0.2-0.1-0.4-0.1-0.5-0.2c-0.3-0.1-0.5-0.4-0.8-0.4
		c-0.1,0-0.4,0.4-0.4,0.6c0.1,0.3,0.3,0.6,0.6,0.8c0.6,0.3,1.3,0.5,1.9,0.7c0.7,0.3,1.5,1.6,1.3,2.3c-0.1,0.3-0.6,0.6-0.9,0.6
		c-0.8,0-1.5-0.2-2.2-0.4c-0.9-0.2-1.5-0.8-1.5-1.8C68.8,39.5,68.8,38.4,69,37.3z M20.2,88c-0.5-0.3-0.7-0.6-0.2-1
		c0.4-0.4,0.8-0.9,1.3-1.4c1.2,1.9,3,2.9,4.6,4.2c1.4,1.1,2.5,2.5,3.7,3.7c1.6,1.7,3.2,3.5,4.8,5.3c1.1,1.3,2.2,2.6,3.2,4
		c0.3,0.4,0.5,1-0.1,1.4c-0.5,0.3-0.9-0.1-1.3-0.4c-0.8-0.8-1.7-1.5-2.5-2.3c-1.7-1.6-3.4-3.2-5.1-4.8c-1.8-1.7-3.2-3.6-4.5-5.7
		c-0.4-0.6-1-1-1.5-1.5C21.9,89,21,88.5,20.2,88z"/>
	<path class="st0" d="M92.9,34.2c-1.6-0.4-3.1-0.7-4.7-1.2c-0.3-0.1-0.6-0.4-0.8-0.6c-0.1-0.1-0.1-0.5,0-0.6
		c0.1-0.1,0.5-0.1,0.6-0.1c2.3,1.3,4.7,0.9,7.2,0.6c0.1,0,0.3-0.1,0.4-0.1c0.3,0.1,0.5,0.2,0.7,0.3c-0.1,0.2-0.2,0.5-0.4,0.6
		c-1,0.5-1.9,1.1-3,0.8C92.9,34.1,92.9,34.1,92.9,34.2z"/>
</g>
</svg>
