<?xml version="1.0" encoding="utf-8"?>
<!-- Generator: Adobe Illustrator 19.2.1, SVG Export Plug-In . SVG Version: 6.00 Build 0)  -->
<svg version="1.1" id="Background_copy_2_xA0_Image_1_"
	 xmlns="http://www.w3.org/2000/svg" xmlns:xlink="http://www.w3.org/1999/xlink" x="0px" y="0px" viewBox="0 0 102.8 172.1"
	 style="enable-background:new 0 0 102.8 172.1;" xml:space="preserve">
<style type="text/css">
	.st0{fill:#388E3C;}
</style>
<g id="icon-diarrhea">
	<path class="st0" d="M1.1,172.1c0-0.1,0.1-0.1,0.1-0.2c0.4-0.6,1-1.2,1.4-1.9c0.4-0.8,0.5-1.6,0.7-2.5c0.2-0.9,0.4-1.9,0.5-2.8
		c0.3-1.6,0.6-3.3,0.7-4.9c0.1-1.6,0.1-3.3,0.1-4.9c0-1,0.4-2,0.9-2.9c0.7-1.2,1.2-2.5,1.3-4c0.2-1.7,0.4-3.4,0.6-5.1
		c0-0.4,0.2-0.5,0.5-0.5c1,0,1.9,0.3,2.5,1c0.8,0.7,1.6,1.1,2.5,1.3c1.9,0.9,3.8,1.7,5.7,2c0.1,0,0.1,0,0.2,0
		c0.4,0.2,0.7,0.3,1.1,0.5c-0.5,0.9-0.9,1.9-1.4,2.9c-0.5,0.8-1.1,1.6-1.5,2.4c-0.4,0.8-0.2,1.6,0.2,2.4c0.2,0.3,0.5,0.6,0.7,0.9
		c0.7,1,0.6,2.2,0,3.3c-0.6,1.1-1.4,2.1-2.3,2.9c-0.5,0.5-1.1,0.8-1.6,1.3c-0.7,0.6-1.2,1.3-1.9,2c-0.4,0.4-0.9,0.9-1.2,1.4
		c-0.4,0.7-0.7,1.4-0.9,2.1c-0.3,1.1-0.5,2.2-0.6,3.3h1c0-0.2,0.1-0.4,0.1-0.7c0.1-0.7,0.3-1.4,0.5-2.1c0.1-0.3,0.2-0.6,0.3-0.9
		c0.5-1,1-2,1.7-2.8c1.2-1.3,2.5-2.4,3.8-3.5c0.1-0.1,0.3-0.2,0.7-0.3c-0.2,0.7-0.4,1.3-0.6,1.8c-0.2,0.6-0.1,1,0.5,1.3
		c0.4,0.2,0.9,0.5,1.3,0.7c1.1,0.5,2.4,0.8,3.4,1.4c1.3,0.7,2.7,1.4,3.7,2.6c0.3,0.4,0.6,0.2,0.9-0.1c0.4-0.5,0.8-1,1.2-1.5
		c0.7-0.8,1.4-1.5,1.9-2.4c0.9-1.6,1.2-3.4,1.2-5.2c0-0.3,0-0.6,0-0.9c0-0.4,0.2-0.7,0.7-0.7c1.6,0,2.7-0.8,3.6-1.9
		c1.4-1.6,2.3-3.4,3.3-5.3c0.5-0.9,1-1.7,1.5-2.5c0.4-0.6,1.2-0.8,1.9-0.6c0.1,0,0.2,0.2,0.3,0.3c0.8,1.8,1.6,3.6,2.4,5.5
		c0.7,1.8,1.3,3.7,1.9,5.5c0.4,1.3,0.7,2.7,1,4c0.4,1.4,0.8,2.8,0.7,4.3c0,0.1,0,0.1,0,0.2c0.1,0.9,0.3,1.8,0.4,2.7
		c0,0.4,0,0.8,0,1.1H50c0-1.1-0.3-2.2-0.4-3.3c-0.1-1.1-0.2-2.2-0.4-3.3c-0.1-0.7-0.5-1.4-0.7-2.2c-0.2-1-0.4-2.1-0.6-3.1
		c-0.4-1.3-0.7-2.7-1.2-4c-0.9-2.3-1.9-4.5-2.9-6.7c-0.2-0.4-0.2-0.8-0.3-1.3c4.9,0.2,9.4-0.3,13.3-3.6c0.1,0.4,0.2,0.8,0.3,1.1
		c0.3,1.5,0.6,3,0.9,4.5c0,0.1,0,0.2,0,0.3c0.1,1.1,0.3,2.3,0.4,3.4c0.1,0.9,0.1,1.8,0.2,2.7c0.1,0.9,0,1.7,0.2,2.6
		c0.2,1,0.4,2,0.7,3c0.3,1.1,0.7,2.2,0.9,3.4c0.2,0.9,0.3,1.8,0.3,2.7c0,1.2,0,2.5,0,3.7h1.1c0-1.1-0.1-2.1-0.2-3.2
		c0-0.9,0-0.8,0.8-0.9c1.8-0.1,3.7-0.2,5.5-0.5c1.5-0.2,3-0.7,4.5-1.2c2.2-0.7,4.5-1.5,6.3-3c0.6-0.5,1.2-0.9,1.8-1.4
		c2-1.6,4.2-2.9,5.9-4.9c0.3-0.4,0.6-0.9,0.6-1.4c0-1.5-0.2-2.9-0.4-4.3c-0.1-0.7-0.5-1.3-0.7-2c-0.4-1.6-0.8-3.3-1.2-4.9
		c-0.7-2.8-1.5-5.6-2.3-8.4c-0.4-1.4-0.2-2.6,0.6-3.8c0.5-0.6,0.9-1.3,1.2-2.1c0.7-1.7,1.4-3.5,2.1-5.2c0.3-0.7,0.7-1.4,0.9-2.1
		c0.6-1.7,1.4-3.5,1.6-5.3c0.3-2.2,0.3-4.5-0.1-6.7c-0.1-0.4,0-0.7,0.5-0.8c2.3-0.7,4.6-1.4,7-2c1.1-0.3,1.9-1,2.2-2.1
		c0.2-0.9,0.4-1.7,0.6-2.6c0.2-0.9,0.5-1.9,0.7-2.8c0.9-3.5,1-7.1,2-10.6c0.1-0.2,0.1-0.5,0.1-0.7c0.2-3.8,0.5-7.6,0.7-11.4
		c0.1-1.1,0-2.3,0-3.4c0-1-0.3-1.3-1.3-1.3c-1.5,0-3,0-4.4,0c-0.5,0-0.7-0.2-0.8-0.7c-0.1-0.5-0.1-1-0.3-1.5
		c-0.6-1.6-1.2-3.1-1.7-4.7c-0.2-0.4-0.4-0.8-0.5-1.2c-0.8-2.1-2-3.9-3.5-5.6c-2.2-2.5-5.1-4.1-8.3-4.9c-0.4-0.1-0.8-0.2-1.3-0.2
		c-0.9,0-1.8,0.1-2.7,0.2c0-0.3,0-0.4,0-0.6c0-0.8,0-1.6-0.1-2.4c-0.3-1.2-0.7-2.3-1-3.4c-0.2-0.6-0.3-1.3-0.5-2
		c-0.3-0.9-0.9-1.4-1.7-1.9c-1-0.6-2.1-1.2-3.1-1.8c-0.6-0.3-1.3-0.4-1.8-0.7c-1.7-0.9-3.5-1.6-5.3-2.1c-1-0.3-2-0.6-2.6-1.6
		c-0.2-0.4-0.3-0.9-0.4-1.3c-0.2-0.7-0.5-1.5-0.6-2.2c-0.1-1-0.2-2-0.5-3c-0.3-1.1-0.7-2.2-1-3.3c-0.2-0.6-0.4-1.2-0.5-1.8
		c-0.2-0.8-0.2-1.7-0.6-2.5c-0.2-0.3-0.2-0.6-0.3-0.9c-0.2-0.5-0.3-0.9-0.5-1.3c-0.5-0.9-1-1.7-1.4-2.6c-0.6-1.3-1-2.8-1.6-4.1
		c-0.7-1.4-1.5-2.8-2.4-4.1c-0.5-0.9-1.1-1.8-1.7-2.6c-0.7-1-1.6-2-2.3-3c-1.1-1.6-2.2-3.3-3.7-4.5c-0.2-0.2-0.5-0.3-0.8-0.3
		c-0.8-0.1-1.6-0.2-2.4-0.3c-0.6-0.1-1.2-0.3-1.7-0.3c-1.5-0.2-2.9,0.2-4.3,0.7c-0.7,0.3-1.6,0.5-2.1,1.1c-1,1.2-2.5,1.6-3.9,2.1
		c-1.6,0.7-3.1,1.2-4.1,2.7C24,7.8,23.3,9,22.5,10.1c-0.8,1.2-0.9,2.6-1.3,3.9c-0.3,1.1-0.6,2.2-0.6,3.3c-0.1,2.3,0,4.6,0,6.9
		c0,0.6,0.1,1.1,0.2,1.7c0.2,1.4,0.5,2.8,0.6,4.2c0.1,1.6,0.1,3.2,0,4.8c-0.2,1.9,0.5,3.7,0.9,5.5c0.6,2.1,1.2,4.1,1.9,6.1
		c0.5,1.6,1.1,3.3,1.7,4.9c0.3,0.7,0.7,1.4,1,2.2c0.3,0.8-0.2,1.5,0,2.3c0.1,0.6,0.1,1.2,0.2,1.7c0.3,1.4,0.7,2.8,1,4.2
		c0.2,1,0.6,2,0.7,3c0.2,0.9,0.1,1.8,0.2,2.8c0.1,1.1,0.2,2.1,0.3,3.2c0.1,2.1,0.3,4.2,0.3,6.3c0,1.3,0,2.5,0,3.8c0,0.7,0,1.3-0.3,2
		c-0.3,0.6-0.6,0.7-1.1,0.7c-1.7,0-3.3-0.1-5-0.1c-2.4,0-4.7,0.1-7,0c-1,0-1.7,0.3-2.3,1.1c-0.6,0.9-1.3,1.7-1.9,2.5
		c-1,1.2-1.9,2.4-2.3,3.9c-0.4,1.3-0.7,2.6-0.9,4c-0.3,1.7,0,3.3,0.8,4.8c0.8,1.5,1.9,2.7,3.4,3.3c1,0.4,2,0.4,3.1,0.5
		c0.5,0.1,1,0,1.6,0c0.7,0,0.8,0.2,0.5,0.8c-0.4,0.9-0.9,1.7-1.2,2.6c-0.9,2.1-1.9,4.2-2.5,6.3c-0.3,0.9-0.7,1.8-1.1,2.6
		c-0.2,0.5-0.5,0.9-0.6,1.4c-0.6,1.7-1.1,3.4-1.7,5.1c-0.3,0.9-0.7,1.8-0.9,2.8c-0.2,0.9-0.3,1.9-0.4,2.9c-0.1,0.7-0.3,1.5-0.4,2.2
		c-0.3,1.1-0.8,2.2-0.7,3.4c0,0.1,0,0.3,0,0.5c-0.2,1-0.4,2-0.6,3c-0.2,1.1-0.5,2.3-0.7,3.4c-0.2,1.2-0.4,2.4-0.6,3.6
		c0,0.1,0,0.3,0,0.5c-0.2,1.4-0.4,2.8-0.7,4.1c-0.1,0.7-0.4,1.5-0.7,2.1c-0.5,0.8-0.9,1.5-1,2.4c-0.1,1.4-0.3,2.8-0.4,4.2
		c-0.1,1.5-0.1,3-0.2,4.5c-0.1,0.7-0.2,1.4-0.3,2.1c-0.2,0.8-0.3,1.6-0.6,2.4c-0.4,1.2-0.7,2.6-1.3,3.7c-0.4,0.6-0.8,1.2-1.2,1.8
		H1.1z M31.3,141.6c0,0.8-0.2,1.5-0.2,2.3c-0.1,1.9,0,3.9-0.1,5.8c-0.1,1.5-0.3,3-0.4,4.5c0,0.4,0.1,0.9,0,1.3
		c-0.1,1.3-0.1,2.7-0.2,4c-0.1,1.1-0.1,2.2-0.4,3.2c-0.3,1.3-0.9,2.5-1.9,3.5c-0.4,0.5-0.8,1-1.2,1.5c-0.3,0.4-0.5,0.5-0.9,0.2
		c-1.3-1.3-3-1.9-4.7-2.5c-0.9-0.3-1.8-0.7-2.7-1.1c-0.7-0.3-0.7-0.5-0.5-1.3c0.4-1.1,0.5-2.3,1-3.4c0.5-1.2,0.7-2.5,0.8-3.8
		c0.1-0.6,0.3-1.2,0.5-1.8c0.1-0.6,0.3-1.3,0.4-1.9c0.2-1.4,0.3-2.8,0.4-4.2c0-0.4-0.1-0.9-0.1-1.3c0-0.3,0-0.7,0-1
		c0.2-0.4,0.2-0.8,0.1-1.3c-0.1-0.3-0.1-0.5-0.1-0.8c0-0.8,0-1.5,0.1-2.3c0.1-1.7,0.5-3.4,0.5-5.1c0.1-2.7,0.1-5.4,0.1-8
		c0-2.3,0-4.7-0.1-7c0-1.5,0-3-0.1-4.4c0-1.9-0.1-3.9-0.2-5.8c0-1.9,0-3.7,0-5.6c0-0.2,0-0.3,0-0.6c1.7,0.1,3.3-0.2,5,0.4
		c2.3,0.8,3.1,0.2,5-2c0.4-0.5,0.7-1.1,1.1-1.6c0.9,0.3,1.9,0.3,2.7-0.3c0,0.1,0,0.1,0.1,0.2c-0.1,0.2-0.3,0.3-0.4,0.5
		c-0.8,0.9-1.5,1.8-2.2,2.7c-0.2,0.2-0.3,0.5-0.3,0.8c-0.1,0.9-0.2,1.7-0.2,2.6c0,1.5,0,2.9,0,4.4c0,1.5,0.2,3,0.2,4.5
		c0,1.3-0.2,2.6-0.4,3.9c-0.1,0.6-0.1,1.2-0.2,1.7c-0.1,1.6-0.4,3.2-0.4,4.7c-0.1,1.5,0,3,0,4.5c0,1.4,0.1,2.8,0.1,4.2
		C31.5,137.8,31.4,139.7,31.3,141.6z M32.7,122.9c0.2-1.8,0.3-3.6,0.6-5.4c0.7,6.3,2,12.4,3.5,18.5c-1.4,0.2-2.7,0.4-4.1,0.6
		c-0.1-1.2-0.3-2.3-0.4-3.5c-0.1-1.6-0.2-3.1-0.2-4.7c0-0.5,0.1-1.1,0.2-1.6C32.4,125.5,32.6,124.2,32.7,122.9z M36.3,149.7
		c-1.3,1.9-2.6,3.8-4.3,5.3c-0.1,0.1-0.2,0.2-0.5,0.3c-0.3-0.9-0.3-1.7,0.1-2.3c1-1.3,2.2-2.6,3.4-3.8c0.2-0.2,0.6-0.3,0.9-0.4
		c0,0,0.1,0,0.1,0c0,0.2,0.1,0.3,0.2,0.5c0,0.1,0.1,0.2,0.2,0.2C36.4,149.6,36.4,149.7,36.3,149.7z M39.5,141.8
		c-0.9-0.1-1.8-0.1-2.7-0.2c-1.3-0.3-2.6-0.7-3.8-1c-0.5-0.1-0.8-0.4-0.7-1c0.1-0.6,0.1-1.3,0.2-1.9c0-0.2,0.2-0.4,0.4-0.4
		c0.9-0.2,1.8-0.4,2.7-0.4c0.9,0,1.7,0.3,2.1,1.2c0.6,1.2,1.3,2.4,2,3.5C39.6,141.7,39.5,141.7,39.5,141.8z M87.7,118.1
		c-0.6,1.9-1.2,3.8-2.2,5.5c-0.7,1.2-0.9,2.5-1.5,3.8c-0.6,1.4-1.1,2.8-1.9,4c-1.2,1.8-1.3,3.7-0.6,5.7c1.1,3.1,1.7,6.4,2.5,9.6
		c0.4,1.7,0.9,3.4,1.3,5.1c0.2,1.2,0.3,2.4,0.4,3.6c0,0.3-0.1,0.6-0.3,0.8c-1.6,1.8-3.6,3.2-5.6,4.6c-1.3,0.9-2.5,1.8-3.8,2.6
		c-0.6,0.4-1.3,0.7-2,1c-2.4,0.9-4.8,1.7-7.4,2c-1.1,0.1-2.2,0.3-3.4,0.4c-0.5,0-0.9,0.1-1.4,0c-0.2,0-0.4-0.3-0.4-0.5
		c-0.3-1.1-0.4-2.3-0.8-3.4c-0.6-1.8-1.2-3.6-1-5.6c0.1-0.5-0.1-1.1-0.2-1.6c-0.2-2-0.3-4-0.6-5.9c-0.2-1.3-0.6-2.7-0.8-4
		c0-0.1-0.1-0.2,0-0.3c0.4-0.8-0.2-1.4-0.3-2.1c-0.1-0.4-0.1-0.8-0.2-1.3c-0.1-0.9-0.3-1.9-0.4-2.8c-0.2-1.4-0.3-2.7-0.4-4.1
		c-0.2-2.2-0.3-4.4-0.7-6.5c-0.5-2.5-0.7-5.1-1.8-7.4c-0.1-0.2-0.1-0.4-0.2-0.7c0.7,0,1.3,0,1.9,0c2.3,0,4.5-0.1,6.8-0.3
		c2.1-0.2,4.3-0.1,6.4-0.2c0.6,0,1.2-0.1,1.8-0.1c1.4-0.2,2.9-0.5,4.3-0.5c2.9-0.1,5.6-0.8,8.4-1.5c1.2-0.3,2.3-0.9,3.4-1.4
		c0.3-0.1,0.5-0.2,1-0.5C87.8,116.8,87.9,117.5,87.7,118.1z M96.9,86.7c0.2-0.7,0.4-1.4,0.4-2.2c0-2.3,0-4.6-0.1-6.9
		c0-0.7-0.2-1.3-0.4-2c-0.1-0.5,0-0.7,0.5-0.7c1,0,2-0.1,3.1-0.2c0.6-0.1,0.9,0.1,0.8,0.8c0,0.5,0,1,0,1.4c0,0,0,0-0.1,0
		c-0.1,2.9-0.1,5.8-0.2,8.7c0,0.9-0.3,1.8-0.5,2.7c-0.1,0.5-0.2,1-0.2,1.5c-0.3,1.8-0.6,3.7-0.9,5.5c-0.3,1.7-0.5,3.4-0.8,5.1
		c-0.1,0.5-0.3,1.1-0.4,1.6c-0.2,0.8-0.4,1.6-0.7,2.4c-0.1,0.3-0.1,0.6-0.2,0.9c-0.4,1-1,1.7-2.2,2c-1.6,0.4-3.2,1-4.9,1.5
		c-0.4,0.1-0.9,0.2-1.3,0.2c-0.1,0-0.3-0.2-0.4-0.4c0-0.1,0-0.2,0.1-0.3c1-1.8,1.2-3.8,2.3-5.6c1.9-3.1,3.1-6.4,3.9-9.9
		C95.5,90.6,96.3,88.7,96.9,86.7z M77.8,56.2c0-0.2,0.1-0.3,0.1-0.4c0.6,0.1,1.1,0.2,1.6,0.2c2.2-0.1,4.1,0.9,6.1,1.8
		c2.8,1.3,4.6,3.6,5.9,6.2c1.1,2.2,2,4.6,3,6.9c0.2,0.4,0.2,0.8,0.3,1.3c0.3,1.2,0.6,2.4,0.9,3.5c0.2,0.9,0.5,1.9,0.5,2.8
		c0.1,1.9,0.1,3.8,0,5.7c-0.1,0.9-0.3,1.9-0.6,2.8c-0.7,2.3-1.4,4.5-2.1,6.8c-0.6,1.9-1.2,3.8-2.1,5.6c-1.1,2.3-2.6,4.4-3.3,6.9
		c-0.3,1-0.7,2-0.9,3.1c-0.1,0.3,0,0.7,0.2,0.9c0.8,1.2,0.7,2.5,0.6,3.7c0,0.4-0.7,0.9-1.1,1.1c-1.7,1-3.6,1.7-5.6,2
		c-1.1,0.2-2.2,0.5-3.3,0.7c-0.4,0.1-0.8,0-1.2-0.1c1.2-0.5,2.3-0.9,3.5-1.3c1.7-0.7,3.6-1.2,4.8-2.7c0.7-0.8,1.4-1.7,1.4-2.9
		c0-1.2,0.2-2.3,0.2-3.5c-0.1-1.2-0.3-2.5-0.6-3.7c-0.3-1.3-0.9-2.6-1-3.9c-0.1-1.4-1-2.5-1.3-3.8c-0.1-0.7-0.3-1.3-0.5-2
		c-0.3-1.2-0.6-2.4-1-3.6c-0.1-0.5-0.2-1.1-0.4-1.6c-0.2-0.9-0.4-1.9-0.7-2.8c-0.4-1.3-0.8-2.6-1.1-3.9c-0.3-1-0.4-2-0.6-3.1
		C79,77.9,78.8,77,78.7,76c-0.1-1.5-0.1-2.9-0.2-4.4c0-0.2-0.1-0.5-0.2-0.7c-0.1-0.4-0.2-0.8-0.2-1.1c-0.1-2.9-0.2-5.8-0.3-8.7
		C77.7,59.5,77.8,57.9,77.8,56.2z M78.9,106.1c1.4,0.7,2.8,1.4,3.9,2.5c1.1,1,1.4,2.3,1.7,3.7c0,0.2-0.2,0.5-0.4,0.7
		c-0.9,0.6-1.8,1.3-2.7,1.7c-2,0.9-4,1.6-6,2.4c-0.4,0.2-1,0.2-1.4,0.2c-1.2,0.2-2.4,0.2-3.6,0.6c-1.1,0.4-2.3,0.5-3.4,0.6
		c-2.2,0.2-4.5,0.6-6.7,0.9c-0.9,0.1-1.8,0-2.7-0.1c-1.1,0-2.2,0-3.3,0c-0.6,0-0.9-0.2-1.2-0.8c-0.4-0.9-1-1.8-1.5-2.7
		c-0.8-1.2-1.6-2.4-2.3-3.6c-0.1-0.1-0.1-0.3-0.2-0.4c-0.1-0.2-0.3-0.3-0.4-0.5c-0.1,0.2-0.4,0.3-0.4,0.5c0,0.2,0,0.5,0.2,0.7
		c0.9,1.6,1.8,3.1,2.7,4.6c0.3,0.5,0.6,0.9,0.9,1.3c0.3,0.7,0.5,1.4,0.8,2.1c0.5,1.4,1.1,2.8,1.5,4.2c0.3,1.1,0.5,2.2,0.7,3.3
		c0.2,1.3,0.1,2.6,0.3,4c0.1,0.7,0.3,1.4,0.4,2.2c0.1,0.8,0,1.7,0.1,2.5c0,0.3,0.1,0.7,0.2,1c0.2,0.7-0.4,1-0.8,1.1
		c-1.4,0.6-2.9,1.1-4.4,1.6c-1.4,0.4-2.8,0.6-4.3,0.9c-1.2,0.2-2.5,0.3-3.7,0.5c-0.4,0.1-0.8,0.1-1.2,0.2c-0.4,0.1-0.8,0.1-1.1-0.5
		c-0.7-1.3-1.5-2.5-2.1-3.7c-0.4-0.7-0.6-1.5-0.8-2.3c-0.3-1.1-0.6-2.1-0.9-3.2c-0.1-0.5-0.2-1-0.3-1.5c-0.3-1.5-0.8-3.1-1.1-4.6
		c-0.2-1.2-0.4-2.4-0.5-3.7c-0.2-1.7-0.3-3.4-0.5-5.1c-0.1-0.6-0.4-1.1-0.7-1.7c-0.1-0.3-0.3-0.7-0.4-1c-0.2-1.8-0.3-3.5-0.4-5.3
		c-0.1-1.5,0.3-2.9,0.8-4.3c0.3-0.7,0.7-1.3,1.2-1.9c0.8-1,1.8-1.8,2.6-2.7c0.3-0.4,0.6-0.8,0.9-1.1c0.2-0.3,0.5-0.5,0.8-0.7
		c0.4-0.2,0.8-0.2,1.3-0.3c1.4-0.1,2.8-0.2,4.2-0.1c1.9,0.1,3.8,0.3,5.7,0.5c0.2,0,0.5,0,0.7,0c1.2,0.1,2.4,0,3.6,0.3
		c1.6,0.3,3.3,0.1,4.9,0.2c1.2,0,2.4-0.1,3.5-0.2c0.5,0,1-0.3,1.5-0.3c0.5-0.1,1,0,1.5-0.1c0.6-0.1,1-0.1,1.5,0.2
		c1.8,1.2,3.8,2.2,5.6,3.4c1,0.7,1.9,1.6,2.9,2.3C77,105.1,77.9,105.6,78.9,106.1z M67.8,42.5c0.2-0.1,0.5-0.1,0.7,0
		c1.7,0.8,3.4,1.6,5.1,2.4c0.4,0.2,0.7,0.6,0.9,1c0.9,1.4,1.4,3,1.7,4.6c0.2,0.8,0.5,1.5,0.7,2.2c0.1,0.6,0.1,1.2,0.1,1.8
		c0,1.5,0,3,0,4.5c0,1.1-0.2,2.2-0.1,3.3c0,2.7,0.2,5.4,0.2,8.2c0,1-0.3,2.1-0.4,3.1c0,0,0,0.1,0,0.1c-0.1,1.2-0.1,2.5-0.3,3.7
		c0,0.4-0.2,0.7-0.3,1.1c0,0.1-0.2,0.2-0.1,0.3c0.3,1.2-0.2,2.3-0.3,3.4c-0.1,1.3-0.6,2.5-0.9,3.7c-0.2,1-0.3,2.1-0.4,3.1
		c-0.2,1.5-0.5,3-1.4,4.3c-0.1,0.2-0.3,0.3-0.5,0.5c-1.4,0.8-2.8,1.7-4.3,2.3c-1.7,0.7-3.4,1.1-5.2,1.5c-0.7,0.2-1.4,0.3-2.1,0.4
		c-0.4,0-0.9-0.3-1.3-0.2C58,98.2,56.6,98,55.2,98c-1.8,0-3.7-0.1-5.5-0.3c-1.5-0.1-3.1-0.3-4.6-0.4c-1.4-0.1-2.9-0.1-4.4-0.2
		c0.1-0.4,0.1-0.8,0.1-1.2c0-0.2-0.2-0.4-0.3-0.5c-0.2,0.1-0.4,0.2-0.5,0.3c-0.3,0.6-0.6,1.2-1,1.8c-0.2,0.3-0.6,0.5-1,0.8
		c-0.9,0.6-1.8,1.1-2.7,1.7c-1.1,0.8-2.3,0.6-3.4,0.3c-0.2-0.1-0.5-0.1-0.7-0.2c-1.1-0.1-2.2-0.2-3.4-0.4c-0.7-0.1-1-1-0.6-1.5
		c0.1-0.1,0.3-0.2,0.5-0.2c0.8,0.1,1.5,0.2,2.3,0.3c1.1,0.1,2.2,0.1,3.3,0.2c0.2,0,0.5,0,0.7,0c0.2,0,0.5-0.1,0.7-0.2
		c0.1-0.1,0.1-0.4,0-0.4c-0.2-0.1-0.5-0.3-0.7-0.3c-1.6,0.4-3.2,0-4.8-0.2c-0.6-0.1-1.3-0.1-1.9-0.3c-0.4-0.1-0.7-0.5-0.9-0.9
		c-0.1-0.2-0.2-0.4-0.3-0.6c2.1,0,4.1,0,6.1,0c0,0,0.1,0,0.1,0c0.3-0.1,0.8-0.2,0.8-0.3c0.1-0.6-0.5-0.4-0.8-0.5
		c-0.7,0-1.5-0.1-2.2-0.1c-1.2-0.1-2.5-0.1-3.7-0.2c-0.1,0-0.4-0.3-0.4-0.4c0.1-0.5,0.3-0.9,0.3-1.2c0.9,0,1.7,0.1,2.4,0.1
		c0.6,0,1.1,0,1.7,0.1c1.3,0.1,2.4-0.3,3.6-0.8c-0.1-0.5-0.4-0.6-0.8-0.5c-1.9,0.5-3.8,0.4-5.7,0.3c-0.3,0-0.6-0.2-0.9-0.3
		c0.2-0.7,0.6-1.3,1.2-1.6c0.8-0.4,1.6-0.6,2.4-0.8c0.8-0.2,1.7-0.3,2.6-0.5c0.2,0,0.4-0.3,0.4-0.5c0-0.2-0.2-0.5-0.3-0.5
		c-0.7-0.1-1-0.5-1.4-1c-0.4-0.6-1-1-1.5-1.6c1.7-0.5,3.9,0.4,5,2c0.6,0.8,1.2,1.6,1.9,2.3c0.6,0.6,1.3,0.7,2.1,0.7
		c1.2-0.1,2.5-0.1,3.7,0c1.5,0,3.1,0.2,4.6,0.2c0.9,0,1.8-0.3,2.7-0.3c1-0.1,2-0.1,2.9-0.1c1.1,0,2.2-0.1,3.3-0.4
		c1.3-0.4,2.7-0.5,4-0.9c1.1-0.3,2.1-0.7,3.1-1c0.5-0.2,1.1-0.4,1.6-0.5c1.2-0.2,2.2,0.1,3.1,0.9c0.3,0.3,0.6,0.5,0.9,0.1
		c0.1-0.1-0.2-0.6-0.4-0.8c-1.2-0.8-2.4-1.4-3.9-0.9c0,0-0.1,0,0-0.1c-0.2-0.5-0.4-1-0.4-1.6c0-1.1,0.1-2.1,0.2-3.2c0-0.3,0-0.7,0-1
		c0.2-0.7,0.4-1.5,0.5-2.2c0.2-0.6,0.4-1.3,0.5-1.9c0-2.1,0-4.3-0.1-6.4c0-2.6,0-5.2-0.1-7.8c0-0.4-0.1-0.9-0.2-1.3
		c-0.1-0.3,0-0.8-0.5-0.7c-0.5,0.1-0.3,0.5-0.3,0.8c0.1,1,0.1,1.9,0.1,2.9c-0.7-0.9-1-1.9-1.1-3c-0.1-1.3-0.2-2.7-0.2-4
		c0.1-2.3,0.4-4.7,0.6-7c0.1-1.1,0.2-2.3,0.4-3.4C64.6,44.6,66.1,43.4,67.8,42.5z M39.8,81.3c0-0.3,0-0.6-0.1-1c1.2,0.4,2,1.1,2.6,2
		c0.9,1.4,1.6,2.8,2.4,4.2c0.5,0.9,0.9,1.7,1.4,2.8h-6.6c0.1-1.3,0-2.5,0.3-3.7C40.1,84.2,39.8,82.8,39.8,81.3z M51.4,82.2
		c1.6,0,3.1,0,4.7-0.1c2.5-0.2,5,0,7.5-0.8v1c-0.3-0.2-0.6-0.3-0.9-0.2c-2.1,0.3-4.2,0.6-6.4,0.7C55.1,82.8,51,83.6,51.4,82.2z
		 M25.3,29.4c-0.9-2.1-1.3-4.2-0.8-6.4c0.3-1.5,1.2-2.7,2.4-3.7c0.6-0.5,1.1-1.2,1.2-2c0.3-2,0.5-4,0.8-5.9c0-0.2,0.3-0.6,0.5-0.6
		c0.5,0,0.5,0.4,0.5,0.7c-0.2,1.7-0.4,3.5-0.7,5.2c-0.1,0.7-0.2,1.4-0.4,2.1c0.2,0,0.5,0,0.7-0.1c1.8-0.1,3.4,0.5,5,1.3
		c1.7,0.9,3.5,1.7,5.3,2.6c2.6,1.4,5.4,1.9,8.2,2.2c0.2,0,0.5,0.2,0.6,0.4c0.2,0.5,0.4,1,0.6,1.4c0.1,0.2,0.4,0.3,0.5,0.4
		c0-0.1,0.1-0.1,0.1-0.2c-0.2-0.6-0.4-1.2-0.6-1.7c0.2-0.5,0.3-1,0.5-1.4c0.4-0.8,0.7-1.6,1.2-2.3c0.4-0.6,1.4-0.6,1.8-0.1
		c1.2,1.6,1.9,3.4,1.3,5.5c-0.4,1.3-1.2,2.1-2.3,2.6c-0.5,0.2-0.8,0-1-0.4c-0.1-0.1,0-0.5,0.1-0.7c0.3-0.3,0.6-0.6,1-0.8
		c0.9-0.5,1.5-2,1.1-2.9c-0.4-1-0.8-1.1-1.6-0.4c0.2,0.1,0.4,0.2,0.6,0.4c0.9,0.8,0.9,1.5-0.1,2.2c-0.3,0.2-0.6,0.5-1,0.7
		c-0.9,0.6-1.2,1.4-0.6,2.3c0.4,0.6,0.5,1.3,0.4,2c-0.1,1.4,0,2.8,0.5,4.1c0.3,0.8,0.7,1.4,1.7,1.5c1.5,0.2,3.1,0.5,4.6,1
		c1.7,0.5,3.3,1.1,5,1.7c0.5,0.2,1,0.3,1.6,0.5c-0.3,0.3-0.4,0.4-0.6,0.6c-1.3,1-2.2,2.2-2.8,3.7c-0.2,0.5-0.3,0.9-0.4,1.4
		c-0.8,0.2-1.7,0.8-2.2,1c-1.8,0.9-3.4,2-4.8,3.5c-0.2,0.2,0.1,0.7,0.4,0.5c1.2-0.8,2.4-1.5,3.6-2.2c0.6-0.3,1.3-0.7,1.9-0.9
		c0.1-0.1,0.4-0.2,0.7-0.4c-0.2,1.1-0.4,2.3-0.6,3.5c-0.3,1.4-0.3,2.9-0.4,4.3c-0.2,2.5-0.4,5-0.9,7.5c-0.3,1.8-0.9,3.6-2,5.3
		c-1,1.6-2.6,1.8-4.1,2.5c0-0.9,0-1.6,0-2.3c0-0.4,0.1-0.8,0-1.2c-0.1-0.2-0.3-0.6-0.5-0.6c-0.4,0-0.5,0.3-0.5,0.7
		c0,1.1,0,2.2,0,3.3c-1.8,0.5-3.4,0.2-4.8-0.6c-1.1-0.6-2.1-1.6-2.9-2.7c-1.2-1.8-1.8-3.8-2.4-5.7c-0.5-1.9-0.7-3.9-1.1-5.8
		c-0.2-0.9-0.4-1.7-0.7-2.6c0.4,0.2,0.8,0.4,1.1,0.6c0.9,0.5,1.9,1.2,3,1.1c0.5,0,0.7-0.7,0.3-1c-1-0.7-2.2-1.1-3.3-1.6
		c-0.5-0.3-1.1-0.5-1.6-0.6c-0.1-0.1-0.1-0.2-0.2-0.4c0,0,0,0,0,0c0,0,0,0,0,0c0-0.1-0.1-0.2-0.1-0.2c-0.1-0.3-0.1-0.5,0-0.7
		c-0.2-0.9-0.5-1.8,0.1-2.6c0.1-0.1,0.3-0.3,0.4-0.3c0.9,0.1,1.6-0.3,2.3-0.7c1.8-0.9,3.4-2,4.7-3.6c1.3-1.5,2.4-3.1,3.6-4.7
		c0.4-0.5,0.3-1.2-0.2-1.5c-0.1,0.1-0.3,0.3-0.3,0.4c-0.2,1-0.8,1.7-1.4,2.5c-0.7,0.8-1.2,1.7-1.9,2.5c-0.5,0.6-1.1,1.3-1.8,1.8
		c-1.1,0.8-2.2,1.4-3.4,2c-0.7,0.3-1.5,0.5-2.3,0.7c-0.3,0.1-0.6-0.1-0.8-0.3c-2-1.5-3.8-3.3-5.4-5.2c-0.1-0.1-0.1-0.2-0.1-0.3
		c0.8-0.1,1.5-0.1,2.1-0.4c0.9-0.4,1.7-0.9,2.5-1.4c0.3-0.2,0.4-1.3,0.2-1.6c-0.3-0.4-0.9-0.6-1.6-0.4c0.3,0.1,0.5,0.2,0.7,0.2
		c0.6,0.2,0.8,0.8,0.5,1.3c-0.1,0.1-0.2,0.3-0.3,0.3c-0.7-0.2-1,0.3-1.4,0.7c-0.5,0.5-1.5,0.8-2.1,0.6c-0.2-0.1-0.4-0.3-0.4-0.5
		c0-0.7,0-1.3,0-2c0-1.2,0.1-2.5,0-3.7c-0.1-1.1-0.5-2.1-1.2-2.9c-0.5-0.5-1.2-0.9-1.9-1.2c-0.7-0.3-1.6-0.3-2.4-0.4
		C25.9,30.1,25.5,29.9,25.3,29.4z M31.2,38.4c0,0.7-0.1,1.4-0.1,2.2c-0.2-0.1-0.3-0.3-0.4-0.4c-1.1-1.6-2.2-3.1-2.8-5
		c-0.2-0.7-0.1-0.9,0.5-1.1c0.7-0.2,1.4-0.3,2-0.9c0.2-0.2,0.5-0.2,0.6,0.2c0.1,0.4,0.2,0.8,0.2,1.3C31.2,35.9,31.3,37.1,31.2,38.4z
		 M26.3,31c1.7-0.1,3,0.3,4.3,1.2c-1.1,0.5-2,0.9-2.9,1.3C27.2,32.7,26.8,32,26.3,31z M28.8,60.9c-0.4-1.6-0.7-3.3-1-5
		c0-0.2,0-0.4,0.1-0.7c0.3,0.2,0.4,0.4,0.6,0.5c1.1,0.7,2.4,1,3.7,0.5c0.3-0.1,0.5-0.4,0.6-0.6c0.4-0.6,0.7-1.3,1.1-2
		c0.5,2.6,1.1,5.1,1.3,7.6c-0.1,0-0.1,0.1-0.2,0.1c-0.2-0.3-0.5-0.7-0.7-1c-0.2-0.3-0.4-0.6-0.7-0.8c-0.1-0.1-0.4,0-0.6,0
		c0,0.2-0.1,0.5,0,0.6c0.7,0.9,1.4,1.8,2.1,2.8c0.2,0.3,0.2,0.9,0.4,1.2c0.6,0.9,0.7,1.9,0.7,3c0.1,1.3,0.4,2.5,0.3,3.8
		c-0.1,2.6,0.7,4.9,1.4,7.3c0.1,0.2,0.1,0.4,0.2,0.5c0.7,0.8,0.9,1.8,0.9,2.8c0,0.7-0.1,1.4,0,2.1c0.1,1.4-0.1,2.7-0.2,4.1
		c0,0.5-0.2,0.9-0.4,1.5c-0.2-0.1-0.5-0.1-0.7-0.2c-0.5-0.4-1-0.8-1.3-1.4c-1.4-2.1-3.3-3.3-5.8-3.5c-0.1,0-0.1-0.1-0.2-0.1
		c0.1-0.3,0.3-0.6,0.3-1c0.1-1.9,0.2-3.9,0.2-5.8c0-1.8-0.1-3.5-0.2-5.3c-0.1-1.1-0.3-2.3-0.5-3.4c-0.1-0.6-0.2-1.1-0.1-1.7
		C30,64.8,29.3,62.9,28.8,60.9z M30.2,86.5c0.5,0.5,0.9,1.1,1.3,1.7c-1.1,0.3-2.3,0.5-3.4,0.8c-0.1,0-0.2,0-0.3,0.1
		c-1.2,1.1-2.3,2.2-2.5,4c-0.2,1.4-0.2,2.7,0.4,3.9c0,0.1,0.1,0.2,0.2,0.3c0.3,0.4,0.5,0.8,0.4,1.4c-0.2,1,0.5,1.6,1.5,1.7
		c0.9,0.1,1.9,0.2,2.8,0.4c0.6,0.1,0.8,0.5,0.5,1c-0.5,1.1-2.5,2.5-3.6,2.3c-1.2-0.2-2.2-0.6-3-1.8c-1.6-2.4-1.9-5.2-2.2-7.9
		c-0.4-3.4,1.2-6.1,3.5-8.4c0.6-0.6,1.3-1.2,2.3-1.1C29.2,85,29.6,85.8,30.2,86.5z M17.9,102.7c-1.6,0.2-3.1-0.2-4.5-0.5
		c-1.6-0.4-2.5-1.6-3.2-3.1c-1.2-2.4-0.5-4.7,0.1-7.1c0.5-2.2,2.1-3.7,3.2-5.4c0.5-0.7,1.1-1.3,1.8-1.9c0.2-0.2,0.6-0.3,0.9-0.3
		c2.1,0,4.3,0,6.4,0c1.1,0,2.2,0,3.3,0c0.2,0,0.4,0,0.6,0.2c-0.2,0.1-0.5,0.2-0.7,0.4c-0.3,0.2-0.8,0.3-0.9,0.6
		c-0.9,1.6-1.9,3.2-2.7,5c-0.7,1.5-0.8,3.2-0.5,4.8c0.3,2.1,0.7,4.2,1.7,6.2c0.4,0.7,0.8,1.3,1.2,2.1c-1.9,0.3-3.6,0.5-5.2-0.6
		C18.9,102.8,18.3,102.7,17.9,102.7z M9.6,132c0.3-1.3,0.6-2.6,0.9-3.9c0.3-1.5,0.6-3,0.9-4.6c0.1-0.6,0.4-1.2,0.6-1.8
		c1.1-2.7,2.2-5.3,3.2-8c0.9-2.4,1.8-4.9,2.7-7.3c0.2-0.6,0.6-1.3,0.9-1.9c0.3-0.5,1.2-0.6,1.6-0.2c0.1,0.1,0.1,0.2,0.1,0.3
		c0,1.4,0,2.8,0,4.2l0,0c0,1.7,0,3.5,0,5.2c0,3.8,0.1,7.7,0.1,11.5c0,2-0.2,4.1,0.1,6.1c0.3,1.8-0.2,3.4-0.1,5.2
		c0,0.4-0.1,0.7-0.2,1.1c-0.1,0.2-0.4,0.3-0.6,0.3c-1.7-0.3-3.3-0.6-5-0.9c-1.3-0.3-2.7-0.5-4-0.7c-0.3-0.2-0.7-0.3-1.1-0.2
		c-0.2,0-0.4-0.1-0.6-0.2c-0.1-0.1-0.3-0.4-0.3-0.6C9.2,134.5,9.4,133.3,9.6,132z"/>
	<path class="st0" d="M68.5,140.8c0.3-0.2,0.6-0.4,0.9-0.4c1.2-0.1,2.2-0.5,3.3-1c0.6-0.3,1.3-0.4,1.9-0.8c1-0.6,1.9-1.3,2.8-2
		c0.5-0.4,0.9-0.8,1.4-1.2c0.3-0.2,0.7-0.1,1,0c0.2,0.1,0.2,0.4,0.3,0.7c0.1,0.6,0.3,1.1,0.4,1.7c0,0.2,0.1,0.3,0.1,0.5
		c0.1,1.1,0.1,2.3,0.2,3.4c0.3,1.9,0.4,3.7,0.4,5.6c0,1.6,0.2,3.2,0.2,4.9c0,1.1-0.4,2.2-0.6,3.3c-0.1,0.5-0.3,1.1-0.3,1.6
		c0,0.6-0.2,0.9-0.7,1.2c-1.6-1.2-3.2-2.4-4-4.4c-0.3-0.9-0.8-1.7-1.2-2.6c-0.2-0.5-0.3-1.1-0.3-1.7c0-2.6,0-5.1,0-7.7
		c0-0.6,0.3-1.2,0.5-1.8c0.1-0.2,0.1-0.4,0.2-0.8c-0.7,0.3-1.2,0.6-1.8,0.8c-0.8,0.3-1.6,0.5-2.4,0.8c-0.5,0.2-1.1,0.3-1.6,0.4
		c-0.2,0-0.5-0.1-0.8-0.1C68.5,141,68.5,140.9,68.5,140.8z M79.4,135.8c-0.4,0.2-0.5,0.3-0.6,0.4c-0.4,0.4-0.8,0.9-1.3,1.2
		c-1.2,0.8-1.6,2.1-2.2,3.3c-0.2,0.5-0.2,1.1-0.2,1.6c0,2.3,0,4.6,0,6.9c0,0.6,0.1,1.2,0.4,1.7c0.3,0.9,0.7,1.7,1.1,2.5
		c0.6,1.3,1.4,2.5,2.7,3.3c0.3,0.2,0.6,0.3,0.7-0.3c0.1-0.8,0.2-1.6,0.5-2.3c0.3-0.9,0.4-1.8,0.4-2.7c-0.1-1.1-0.2-2.2-0.2-3.3
		c-0.1-1.8-0.2-3.7-0.2-5.5c0-0.1,0-0.2,0-0.3c-0.1-0.9-0.3-1.8-0.4-2.7C79.7,138.5,79.6,137.2,79.4,135.8z"/>
	<path class="st0" d="M35.3,41.9c1-0.2,2-0.3,2.9-0.5c0.3,0,0.6-0.1,1-0.1c0.3,0,0.5,0.1,0.8,0.1c-0.1,0.3-0.1,0.7-0.3,0.9
		c-0.5,0.5-1,0.9-1.5,1.3c-1.6,1-3,0.6-3.9-1.1c-0.2-0.4,0-0.7,0.4-0.8C34.9,41.8,35.1,41.8,35.3,41.9
		C35.3,41.9,35.3,41.9,35.3,41.9z M35,42.5c0.7,0.6,2.8,0.2,3.7-0.5C37.5,42.1,36.3,42.3,35,42.5z M39.1,42.5
		c-1.1,0.4-2.2,0.7-3.3,1C37.1,43.8,38.1,43.4,39.1,42.5z"/>
	<path class="st0" d="M39.7,28.5c-1.6,0.7-3.2,1.4-4.8,2.1c-0.3,0.2-0.6,0.4-1,0.6c-0.2,0.1-0.4,0.1-0.6,0.1c0-0.3-0.1-0.7,0.1-0.8
		c0.6-0.5,1.3-0.9,2-1.2c0.7-0.3,1.5-0.5,2.2-0.8c0.5-0.2,0.9-0.4,1.4-0.5c0.2,0,0.5,0.2,0.8,0.3C39.8,28.3,39.8,28.4,39.7,28.5z"/>
	<path class="st0" d="M39.6,30.6c-0.7,0.1-1.3,0.2-1.9,0.3c-0.3,0-0.7,0.5-1-0.1c1-0.4,2-0.7,3-0.5c0.5,0.1,0.6,0.8,0.4,1.3
		c-0.4,0.7-2,2-3,1.8c-0.6-0.1-1.2-0.4-1.7-0.7c-0.1,0-0.1-0.3-0.1-0.5c0.2,0,0.4-0.1,0.5-0.1c0.4,0.1,0.8,0.3,1.1,0.4
		C37.9,32.7,39.1,31.9,39.6,30.6z"/>
</g>
</svg>
