<?xml version="1.0" encoding="utf-8"?>
<!-- Generator: Adobe Illustrator 17.0.2, SVG Export Plug-In . SVG Version: 6.00 Build 0)  -->
<!DOCTYPE svg PUBLIC "-//W3C//DTD SVG 1.1//EN" "http://www.w3.org/Graphics/SVG/1.1/DTD/svg11.dtd">
<svg version="1.1" id="Layer_1" xmlns="http://www.w3.org/2000/svg" xmlns:xlink="http://www.w3.org/1999/xlink" x="0px" y="0px"
	 width="294.48px" height="294px" viewBox="0 0 294.48 294" enable-background="new 0 0 294.48 294" xml:space="preserve">
<g>
	<defs>
		<ellipse id="SVGID_1_" cx="147.24" cy="147" rx="147.24" ry="147"/>
	</defs>
	<clipPath id="SVGID_2_">
		<use xlink:href="#SVGID_1_"  overflow="visible"/>
	</clipPath>
	<g id="_x35_mdgAH_1_" clip-path="url(#SVGID_2_)">
		<g>
			<path fill="#BA68C8" stroke="#BA68C8" stroke-miterlimit="10" d="M118.026,222.34c-4.218-4.744-8.482-9.446-12.721-14.171
				c-2.216-2.47-4.408-4.96-6.603-7.448c-1.082-1.227-2.229-2.408-3.204-3.716c-2.798-3.752-6.372-6.723-9.737-9.91
				c-1.94-1.837-3.702-3.89-5.782-5.547c-3.274-2.609-6.748-4.966-10.136-7.431c-1.196-0.87-2.389-1.745-3.581-2.62
				c-0.096-0.07-0.254-0.151-0.259-0.235c-0.109-1.813-1.758-1.955-2.876-2.671c-3.5-2.241-7.015-4.457-10.494-6.73
				c-4.68-3.058-9.272-6.257-14.016-9.21c-3.553-2.211-6.24-5.318-9.203-8.152c-1.385-1.325-2.803-2.618-4.265-3.857
				c-0.169-0.143-0.375-0.249-0.593-0.34c-0.717,0.175-1.495,0.066-2.224-0.481c-0.991-0.743-2.099-1.456-3.11-2.246v1.89
				c0.229,0.236,0.429,0.525,0.582,0.885c0.111,0.261,0.197,0.53,0.293,0.796c0.012-0.005,0.024-0.01,0.037-0.016
				c0.042,0.144,0.077,0.29,0.117,0.434c0.336,1.002,0.609,2.021,0.924,3.025c0.127-0.24,0.335-0.457,0.693-0.663
				c0.714-0.411,1.125-0.311,1.705-0.016c0.6,0.305,1.082,0.966,1.939,0.545c0.165-0.081,0.632,0.28,0.859,0.528
				c1.29,1.415,2.536,2.87,3.827,4.284c0.339,0.372,0.782,0.648,1.38,1.133c-0.112-0.471-0.159-0.672-0.22-0.927
				c0.128,0.04,0.255,0.042,0.323,0.107c1.268,1.205,2.492,2.46,3.801,3.619c1.546,1.37,3.139,2.691,4.768,3.961
				c0.408,0.318,1.063,0.297,1.548,0.542c1.407,0.711,2.939,1.287,4.147,2.257c4.335,3.481,8.608,6.999,13.749,9.314
				c1.801,0.811,3.395,2.099,5.046,3.224c3.732,2.543,7.501,5.036,11.133,7.715c1.983,1.462,3.753,3.224,5.555,4.918
				c2.967,2.79,5.909,5.609,8.807,8.471c1.363,1.345,2.628,2.793,3.889,4.236c6.1,6.983,12.165,13.997,18.287,20.961
				c1.448,1.648,3.034,3.181,4.635,4.683c0.329,0.309,1.009,0.244,1.527,0.351C118.396,223.33,118.353,222.708,118.026,222.34z"/>
			<path fill="#BA68C8" stroke="#BA68C8" stroke-miterlimit="10" d="M228.803,140.061c-0.005-0.766-0.181-1.611-0.539-2.28
				c-1.616-3.019-3.448-5.929-4.957-8.999c-0.906-1.844-1.347-3.914-2.021-5.875c-2.031-5.913-4.494-11.641-7.793-16.959
				c-2.782-4.485-4.825-9.27-6.447-14.269c-0.823-2.536-1.594-5.128-3.864-6.887c-0.362-0.28-0.725-0.839-0.716-1.261
				c0.024-1.02,0.214-2.047,0.435-3.049c0.442-2,1.112-3.799,2.824-5.229c1.698-1.417,3.085-3.219,4.529-4.918
				c0.243-0.286,0.088-0.91,0.117-1.378c-0.428,0.069-0.887,0.064-1.273,0.229c-0.31,0.133-0.54,0.464-0.79,0.722
				c-1.581,1.636-3.171,3.263-4.732,4.918c-1.597,1.693-2.465,3.754-2.564,6.047c-0.054,1.259-0.509,1.94-1.679,2.245
				c-3.258,0.847-6.513,1.705-9.769,2.558c-0.077,0.02-0.157,0.04-0.236,0.041c-1.905,0.035-3.813,0.142-5.715,0.085
				c-3.953-0.118-7.903-0.382-11.857-0.477c-5.077-0.122-10.156-0.126-15.234-0.206c-1.042-0.016-2.182,0.136-2.776-1.107
				c-0.937,0.999-1.996,0.507-3.006,0.501c-1.339-0.008-2.678,0.069-4.017,0.116c-0.505,0.018-1.081,0.225-1.503,0.051
				c-1.942-0.802-3.857-1.675-5.752-2.583c-2.663-1.276-4.872-3.151-6.954-5.185c0.002-0.004-0.079,0.182-0.159,0.368
				c0.083-2.284-2.763-3.253-2.482-5.596c0.006-0.047-0.108-0.108-0.165-0.164c-2.566-2.496-5.463-4.391-9.075-4.978
				c-2.677-0.435-5.077-1.522-7.044-3.364c-2.329-2.182-5.041-1.972-7.72-1.284c-1.439,0.37-2.694,1.425-4.059,2.116
				c-2.468,1.247-4.713,2.797-6.702,4.721c-0.252,0.243-0.535,0.553-0.848,0.617c-1.316,0.269-2.119,1.014-2.414,2.317
				c-0.001,0.001-0.003,0.002-0.004,0.003c-0.186-0.914-0.634-1.877-0.493-2.743c0.216-1.331-0.082-2.442-0.682-3.545
				c-0.316-0.581-0.701-1.126-1.075-1.719c2.088-1.574,4.536-1.714,6.86-2.072c2.94-0.453,5.838-0.797,8.669-1.927
				c2.626-1.048,5.235-2.502,8.267-2.205c0.369,0.036,0.798-0.135,1.143-0.317c4.28-2.264,8.861-3.735,13.455-5.182
				c1.827-0.576,3.596-1.548,5.456-1.756c2.327-0.26,4.39-1.052,6.495-1.92c2.318-0.956,4.732-1.682,7.028-2.685
				c2.537-1.108,4.929-2.376,7.734-2.991c5.125-1.123,10.092-2.949,15.174-4.296c2.608-0.691,5.31-1.261,7.992-1.384
				c3.637-0.167,7.281,0.039,10.697-1.553c0.168-0.078,0.38-0.064,0.572-0.093l-0.053,0.397c0.422,0.084,0.963,0.375,1.245,0.213
				c0.783-0.45,1.459-1.088,2.177-1.652h-28.8c-1.185,0.543-2.058,1.794-2.039,2.721c0.018,0.899-0.436,0.924-0.755,1.344
				c-0.504,0.662-0.991,1.145-1.888,0.773c-0.091-0.038-0.249,0.013-0.345,0.073c-2.135,1.341-4.694,0.939-6.965,1.699
				c-1.347,0.451-2.657,1.01-3.986,1.516c-0.217,0.083-0.438,0.171-0.665,0.21c-1.974,0.343-3.985,0.55-5.723,1.7
				c-0.258,0.171-0.589,0.308-0.891,0.321c-1.45,0.061-2.8,0.353-4.017,1.223c-0.412,0.295-0.99,0.38-1.505,0.502
				c-1.972,0.467-3.959,0.872-5.922,1.374c-1.872,0.479-3.945,0.691-5.522,1.674c-2.029,1.264-4.305,1.233-6.396,2.019
				c-2.259,0.849-4.634,1.384-6.922,2.162c-2.201,0.748-4.354,1.641-6.534,2.452c-0.89,0.331-1.802,0.6-2.694,0.924
				c-2.525,0.917-5.019,1.929-7.576,2.745c-1.737,0.554-3.559,0.845-5.345,1.245c-1.298,0.291-2.589,0.634-3.901,0.829
				c-1.01,0.15-2.058,0.034-3.072,0.167c-1.767,0.232-3.513,0.644-5.283,0.832c-1.749,0.186-3.468-0.169-5.179-0.577
				c-2.483-0.593-5.027-0.679-7.557-0.491c-1.5,0.111-2.973,0.654-4.471,0.718c-2.263,0.097-4.536-0.113-6.804-0.084
				c-2.861,0.037-5.521,0.711-7.624,2.841c-0.158,0.16-0.415,0.22-0.616,0.342c-1.519,0.924-3.068,1.803-4.533,2.805
				c-0.473,0.323-0.758,0.95-1.067,1.475c-0.373,0.635-0.742,1.287-0.994,1.975c-0.182,0.499-0.271,1.077-0.228,1.606
				c0.193,2.336,1.524,4.218,2.539,6.234c0.622,1.236,1.155,2.544,1.507,3.877c0.176,0.667-0.145,1.464-0.267,2.408
				c-0.154,0.028-0.52,0.127-0.892,0.157c-2.108,0.17-3.316,1.393-3.428,3.532c-0.037,0.716-0.058,1.441,0.02,2.15
				c0.032,0.293,0.345,0.554,0.53,0.83c0.259-0.26,0.669-0.482,0.745-0.787c0.142-0.571,0.089-1.19,0.118-1.789
				c0.095-1.961,1.375-2.809,3.138-2.08c1.042,0.431,2.254,3.1,1.998,4.401c-0.231,1.176-2.283,3.126-3.392,2.787
				c-1.268-0.387-2.438-1.284-3.48-2.161c-0.903-0.76-1.495-1.879-2.354-2.704c-1.292-1.239-2.646-2.428-4.074-3.505
				c-0.802-0.605-1.171-1.256-1.075-2.22c0.15-1.509,0.292-3.018,0.431-4.458c2.212-0.578,4.376-1.094,6.507-1.724
				c0.927-0.274,1.288-1.062,1.244-1.96c-0.797-0.059-1.513-0.115-2.229-0.162c-0.076-0.005-0.166,0.019-0.23,0.06
				c-1.758,1.129-4.234,1.025-5.411,3.149c-0.797,0.082-1.594,0.195-2.391,0.278c-0.318,0.454-0.622,0.919-0.924,1.379
				c0.002,0.341-0.066,0.687-0.206,1.029c0.024-0.003,0.047-0.008,0.071-0.011c0.001-0.003,0.002-0.004,0.003-0.007
				c0.458,0.496,0.92,0.997,1.558,1.687c-0.508-0.241-0.801-0.38-1.094-0.519c-0.057,0.051-0.113,0.101-0.17,0.152
				c0.288,0.317,0.553,0.659,0.869,0.944c0.633,0.572,0.27,1.075-0.206,1.348c-1.611,0.925-2.936,2.103-3.987,3.573
				c0.185,0.72,0.109,1.547-0.35,2.403c-1.112,2.073-1.669,4.145-1.818,6.241c0.319,0.097,0.6,0.242,0.848,0.419v-0.631
				c0.846,1.041,1.227,1.685,1.16,2.336c0.319,1.143,0.074,2.465-0.744,3.329V107c0,1.004-0.392,1.777-0.976,2.313
				c0.609,0.811,1.285,1.605,2.019,2.375c0.395,0.415,0.65,0.862,0.797,1.318c0.524,0.322,1.046,0.595,1.6,0.759
				c1.958,0.583,4.044,0.871,6.089,0.953c0.741,0.03,1.586-0.819,2.264-1.405c0.73-0.631,1.305-1.438,1.981-2.136
				c0.13-0.134,0.41-0.154,0.624-0.166c0.148-0.009,0.327,0.163,0.449,0.123c2.396-0.774,4.833,0.451,7.195-0.116
				c1.237-0.297,2.375-1.004,3.555-1.533c0.285-0.128,0.542-0.377,0.833-0.419c2.312-0.331,4.593-0.29,6.898,0.714
				c-1.131,0.935-2.156,1.838-3.239,2.667c-1.609,1.232-3.358,2.302-4.847,3.661c-0.794,0.725-1.32,1.856-1.7,2.9
				c-0.777,2.135-1.379,4.335-2.04,6.511c-0.08,0.264-0.114,0.551-0.122,0.828c-0.059,1.943,0.268,2.301,2.227,2.41
				c2.041,0.114,4.075,0.182,6.044-0.562c0.723-0.273,1.191,0.023,1.845,0.559c1.45,1.186,3.159,2.061,4.797,3.002
				c0.204,0.117,0.62-0.137,0.938-0.219c-0.103-0.396-0.078-0.952-0.334-1.158c-0.71-0.571-1.538-0.996-2.319-1.48
				c-0.203-0.126-0.578-0.262-0.576-0.389c0.03-1.739-1.115-1.125-2.008-1.048c-0.138,0.012-0.288-0.102-0.428-0.157
				c0.352-1.242,4.161-2.797,6.836-2.894c1.482,3.137,2.933,6.21,4.352,9.214c-6.048-1.305-12.241-0.354-18.38-0.694
				c-1.229-0.068-2.485,0.421-3.734,0.615c-1.184,0.184-2.382,0.279-3.558,0.498c-0.33,0.061-0.605,0.419-0.905,0.641
				c0.311,0.262,0.607,0.726,0.934,0.749c1.35,0.096,2.776,0.33,4.054,0.02c4.117-0.998,8.268-0.694,12.419-0.661
				c1.318,0.011,2.639,0.061,3.954,0.003c1.469-0.065,2.864,0.076,4.174,0.816c0.327,0.185,0.833,0.361,1.129,0.236
				c1.066-0.449,1.569,0.15,2.03,0.914c2.006,3.327,5.207,5.189,8.478,6.99c2.165,1.192,4.273,2.488,6.402,3.745
				c0.224,0.132,0.417,0.316,0.531,0.732c-3.136-0.678-6.29-1.285-9.403-2.056c-2.396-0.593-4.707-1.559-7.119-2.052
				c-2.548-0.521-5.163-0.375-7.748,0.042c-1.062,0.172-2.159,0.143-3.213,0.349c-0.484,0.094-0.901,0.533-1.349,0.815
				c0.479,0.252,0.96,0.725,1.436,0.721c2.713-0.026,5.425-0.185,8.138-0.261c3.096-0.087,5.959,0.818,8.836,1.888
				c2.035,0.757,4.26,0.989,6.381,1.534c1.103,0.283,2.209,0.64,3.23,1.135c1.573,0.763,2.388,0.724,3.41-0.35
				c1.947,1.133,3.857,2.263,5.788,3.358c0.518,0.293,1.076,0.582,1.651,0.694c1.364,0.267,2.462,0.681,2.902,2.245
				c0.181,0.642,0.911,1.198,1.504,1.644c2.201,1.656,4.316,3.491,6.711,4.811c3.842,2.117,7.815,4.031,11.857,5.736
				c3.065,1.293,5.901,2.833,8.307,5.118c1.88,1.785,4.198,2.737,6.565,3.618c1.908,0.71,3.853,1.338,5.705,2.173
				c0.834,0.376,1.46,1.197,2.218,1.766c0.93,0.699,1.9,1.346,2.853,2.015c0.325,0.228,0.659,0.443,0.972,0.686
				c1.957,1.517,3.877,3.084,5.875,4.546c1.338,0.98,3.027,1.584,4.129,2.76c2.227,2.375,4.233,4.971,6.163,7.599
				c0.464,0.632,0.393,1.752,0.352,2.637c-0.077,1.659-0.285,3.314-0.5,4.963c-0.048,0.366-0.28,0.769-0.547,1.034
				c-1.585,1.571-3.205,3.107-4.815,4.653c-0.23,0.221-0.559,0.385-0.696,0.651c-0.955,1.849-2.752,2.151-4.517,2.492
				c-3.492,0.674-6.99,1.316-10.483,1.984c-0.292,0.056-0.568,0.2-0.846,0.315c-0.972,0.404-1.942,0.814-2.549,1.069
				c-0.838,0.743-1.421,1.286-2.031,1.796c-1.912,1.598-4.133,2.78-5.737,4.809c-1.32,1.671-2.925,3.151-4.559,4.533
				c-2.841,2.404-5.177,5.253-7.209,8.305c-2.118,3.18-3.868,6.604-5.812,9.901c-0.493,0.836-1.115,1.597-1.639,2.337
				c-0.31-0.117-0.417-0.123-0.451-0.175c-1.974-3.041-3.848-6.153-5.933-9.115c-2.853-4.052-5.868-7.99-8.813-11.977
				c-3.513-2.003-5.352-5.546-7.522-8.66c-2.548-3.657-5.533-6.914-8.307-10.36c-0.682-0.847-1.316-1.822-2.682-1.764
				c-0.315,0.013-0.698-0.489-0.972-0.819c-1.252-1.505-2.395-3.11-3.742-4.523c-0.752-0.789-1.943-1.152-2.728-1.919
				c-1.45-1.417-2.747-2.99-4.107-4.498c-4.191-4.65-8.364-9.318-13.091-13.445c-0.18-0.157-0.362-0.346-0.578-0.423
				c-3.331-1.177-5.544-3.85-7.949-6.171c-5.235-5.052-10.285-10.297-15.379-15.494c-0.296-0.302-0.591-0.577-0.912-0.784
				c-0.419-0.024-0.84-0.112-1.245-0.291c-0.055-0.024-0.108-0.052-0.163-0.077c-0.195,0.014-0.398,0.043-0.621,0.11
				c0-0.14-0.002-0.266-0.003-0.403c-0.446-0.214-0.888-0.436-1.324-0.669v4.097c0.997,0.698,2.008,1.378,2.978,2.111
				c0.183,0.139,0.249,0.484,0.291,0.747c0.07,0.431,0.151,0.883,0.095,1.308c-0.178,1.339,0.514,1.686,1.675,1.593
				c0.81-0.064,1.554-0.031,2.047,0.822c0.245,0.424,0.725,0.709,1.087,1.069c0.328,0.326,0.785,0.615,0.931,1.014
				c0.318,0.872,0.475,1.802,0.709,2.756c0.403,0.038,0.85,0.166,1.267,0.1c0.908-0.143,1.57,0.266,1.994,0.942
				c0.374,0.596,0.824,0.984,1.412,1.343c0.389,0.237,0.569,0.802,0.875,1.195c0.12,0.155,0.312,0.277,0.497,0.354
				c0.825,0.343,1.428,0.862,1.547,1.9c0.982,0.178,1.986,0.354,2.987,0.547c0.142,0.027,0.365,0.123,0.384,0.22
				c0.164,0.846,0.77,1.142,1.505,1.383c0.3,0.098,0.666,0.416,0.741,0.702c0.228,0.867,0.874,0.835,1.547,1.007
				c0.719,0.184,1.384,0.624,2.035,1.014c0.422,0.253,0.748,0.666,1.168,0.924c1.223,0.75,2.405,1.481,2.079,3.242
				c-0.057,0.31,0.123,0.701,0.283,1.006c0.235,0.448,0.552,0.852,0.725,1.111c0.675,0.512,1.261,0.898,1.765,1.37
				c0.191,0.179,0.103,0.661,0.295,0.83c0.923,0.806,1.998,1.459,2.825,2.347c0.779,0.836,1.451,1.757,2.439,2.379
				c0.14,0.088,0.155,0.355,0.282,0.486c0.213,0.22,0.452,0.426,0.712,0.587c0.946,0.584,2.009,1.027,2.835,1.745
				c1.143,0.993,2.084,2.213,3.164,3.284c0.587,0.582,1.357,0.984,1.915,1.588c2.187,2.365,4.924,4.164,6.831,6.836
				c0.671,0.941,1.878,1.482,2.742,2.309c0.405,0.388,0.752,0.997,0.818,1.544c0.127,1.043,0.223,1.991,1.291,2.561
				c0.727,0.388,0.871,1.508,1.893,1.598c0.064,0.006,0.093,0.281,0.157,0.421c0.26,0.569,0.409,1.509,0.813,1.638
				c1.678,0.534,1.604,1.924,1.86,3.188c1.269,0.315,1.249,0.323,1.795,1.803c0.086,0.233,0.42,0.423,0.681,0.532
				c0.385,0.16,0.808,0.23,1.215,0.339c-0.096,0.112-0.193,0.224-0.289,0.335c0.548,0.687,1.086,1.382,1.646,2.058
				c0.9,1.085,2.577,1.585,2.529,3.389c-0.004,0.169,0.136,0.478,0.24,0.492c1.562,0.215,1.575,1.56,1.912,2.681
				c1.8-0.171,1.655,1.189,1.777,2.289c1.092-0.221,1.425,0.133,1.638,1.621c2.295,0.376,1.665,2.43,2.113,3.555
				c0.633,0.46,1.128,0.736,1.517,1.119c0.717,0.706,1.378,1.471,2.05,2.223c0.127,0.142,0.294,0.346,0.277,0.504
				c-0.128,1.262,0.732,1.691,1.653,2.193c1.281,0.699,1.382,1.26,0.658,2.457c-0.964,1.594-1.937,3.184-2.892,4.783
				c-0.119,0.2-0.153,0.45-0.232,0.674c-0.697,1.959-1.396,3.917-2.217,6.221c0.682-0.394,1.256-0.55,1.541-0.925
				c0.744-0.979,1.373-2.047,2.026-3.093c2.487-3.984,4.911-8.016,6.618-12.4c1.853-4.762,4.57-8.945,7.883-12.783
				c0.521-0.604,0.966-1.285,1.541-1.83c1.583-1.5,3.22-2.943,4.831-4.414c1.853-1.692,3.712-3.377,5.546-5.089
				c0.922-0.861,2.133-1.623,2.613-2.699c0.776-1.74,2.184-2.302,3.715-2.677c2.981-0.73,5.993-1.35,9.013-1.902
				c3.215-0.587,6.443-1.131,9.686-1.521c1.695-0.204,3.438,0.021,5.152-0.074c0.482-0.027,1.299-0.455,1.337-0.775
				c0.104-0.864-0.709-0.895-1.353-0.905c-1.319-0.021-2.639,0.006-3.958-0.017c-0.652-0.011-1.304-0.086-2.286-0.156
				c1.389-1.464,2.547-2.654,3.671-3.875c1.074-1.167,2.22-2.291,3.137-3.574c0.864-1.21,0.457-2.85,1.052-4.201
				c0.092-0.209-0.039-0.537-0.113-0.797c-0.324-1.135-0.665-2.264-1-3.396l0.329-0.343c0.964,0.12,1.952,0.145,2.888,0.379
				c2.164,0.539,4.293,1.22,6.459,1.751c0.586,0.144,1.36,0.407,1.8-0.454c0.056-0.109,0.624-0.135,0.694-0.028
				c0.658,0.999,1.611,0.574,2.473,0.565c0.307-0.003,0.629-0.142,0.918-0.084c1.928,0.386,3.733-0.056,5.497-0.775
				c0.364-0.148,0.689-0.39,1.325-0.759c-0.62-0.089-0.849-0.147-1.08-0.151c-2.911-0.042-5.822-0.116-8.733-0.097
				c-2.014,0.013-3.937-0.284-5.873-0.88c-1.927-0.593-3.972-0.792-5.929-1.3c-0.889-0.231-1.928-0.589-2.489-1.242
				c-1.363-1.586-2.568-3.243-4.37-4.452c-2.002-1.343-3.767-3.034-5.668-4.533c-2.203-1.738-4.441-3.431-6.658-5.151
				c-0.073-0.057-0.074-0.208-0.084-0.238c2.297,0,4.586,0.044,6.873-0.012c2.474-0.061,4.974-0.023,7.411-0.381
				c2.622-0.385,5.207-1.097,7.766-1.819c2.8-0.79,5.648-1.438,8.242-2.886c1.94-1.083,4.019-1.913,6.026-2.877
				c3.176-1.527,5.393-4.193,7.774-6.647c2.309-2.38,4.552-4.824,6.775-7.285c1.122-1.243,2.181-2.55,3.182-3.893
				c0.84-1.126,1.555-2.345,2.325-3.522c-0.055-0.004-0.11-0.009-0.164-0.013c0.24-0.874,0.481-1.749,0.785-2.857
				c1.218,0.896,2.454,1.552,3.355,2.519c2.228,2.391,4.215,5.009,6.465,7.378c2.252,2.372,4.706,4.552,7.071,6.818
				c0.431,0.413,0.811,1.115,1.296,1.197c2.208,0.374,3.483,2.009,4.874,3.442c1.359,1.4,2.482,3.027,3.839,4.43
				c0.44,0.455,1.336,0.789,1.94,0.688c0.842-0.142,0.734-1.033,0.523-1.7c-0.445-1.408-0.676-2.788-0.558-4.309
				c0.336-4.336,0.391-8.694,0.74-13.029c0.22-2.73,0.89-5.423,1.139-8.152C228.845,145.012,228.818,142.53,228.803,140.061z
				 M214.746,111.932c0.663,1.254,1.326,2.509,1.988,3.763c-0.129,0.056-0.257,0.113-0.386,0.169
				c-0.663-1.243-1.325-2.486-1.988-3.729C214.488,112.067,214.617,111.999,214.746,111.932z M150.758,86.594
				c-0.74,1.265-1.084,1.247-2.053-0.255C149.367,86.421,150.028,86.503,150.758,86.594z M42.118,81.943
				c-0.434-0.812-0.427-1.571,0.306-2.262c0.488-0.46,0.844-1.073,1.364-1.485c1.097-0.87,2.202-0.662,2.922,0.546
				c0.582,0.976,1.111,1.994,1.546,3.042c0.148,0.357-0.061,0.863-0.107,1.301c-0.053-0.012-0.106-0.025-0.159-0.037
				c-0.185-0.619-0.369-1.238-0.554-1.857c-0.126,0.03-0.251,0.06-0.377,0.09c0.295,0.93,0.797,1.93-0.857,2.278
				c0.356,0.335,0.64,0.604,0.925,0.872c-0.042,0.059-0.083,0.118-0.125,0.177c-0.406-0.261-0.813-0.521-1.161-0.745
				c-0.717,0.287-1.397,0.56-2.163,0.867C43.185,83.851,42.634,82.907,42.118,81.943z M43.705,94.135
				c0.087,0.089,0.175,0.178,0.262,0.267c-0.289,0.788-0.356,1.794-1.989,1.61C42.661,95.27,43.183,94.703,43.705,94.135z
				 M25.19,82.042c0.297-0.884,1.021-0.424,1.521-0.359c0.185,0.024,0.285,0.695,0.424,1.071c-0.105,0.071-0.209,0.141-0.314,0.212
				C26.277,82.658,25.733,82.35,25.19,82.042z M22.825,91.603c0.132-1.583,1.476-2.448,2.554-3.333
				c1.863-1.529,2.078-1.525,4.272,0.467c1.433,1.301,2.602,2.892,3.887,4.354c0.335,0.381,0.666,0.766,1.009,1.161
				c-1.176,0-2.285-0.047-3.388,0.01c-1.982,0.102-2.984,1.094-2.814,3.048c0.13,1.487,0.592,2.946,0.909,4.432
				c-1.406-0.669-3.148-1.083-4.347-2.527c-0.162-0.196-0.523-0.229-0.68-0.426c-0.529-0.661-1.352-1.323-1.436-2.057
				C22.598,95.045,22.683,93.307,22.825,91.603z M27.332,111.82c-1.663-0.604-2.672-1.615-3.757-2.624
				c-1.934-1.799-1.934-3.806-1.083-6.009c1.02-2.642,1.043-2.635,3.413-1.121c0.536,0.342,1.066,0.693,1.59,1.053
				c0.092,0.063,0.14,0.189,0.247,0.342C26.2,106.14,27.54,108.968,27.332,111.82z M29.268,112.876
				c-0.323-0.021-0.63-0.278-0.945-0.425c0.068-0.112,0.136-0.225,0.204-0.337c0.431-0.02,0.896,0.051,1.283-0.091
				c0.299-0.11,0.667-0.469,0.699-0.751c0.033-0.286,0.142-0.957-0.725-0.771c-0.223,0.048-0.879-0.895-0.964-1.44
				c-0.175-1.129-0.163-2.301-0.103-3.448c0.039-0.749,1.158-1.327,2.123-0.922c1.06,0.444,2.001,1.193,2.95,1.871
				c0.217,0.155,0.314,0.553,0.362,0.855C34.525,109.779,31.628,113.028,29.268,112.876z M34.608,103.517
				c-1.1-0.161-2.157-0.622-3.456-1.019c1.125-0.883,1.009-1.332-0.037-1.83c-1.051-0.499-1.771-3.059-1.195-4.09
				c0.2-0.357,0.813-0.592,1.274-0.676c1.952-0.355,3.03,0.144,3.242,2.078c0.043,0.393,0.29,0.792,0.24,1.161
				c-0.07,0.524-0.339,1.019-0.504,1.532c-0.198,0.618-0.714,1.447-0.488,1.821c0.409,0.679,1.17,0.29,1.763-0.132
				c1.114-0.794,1.405-1.986,1.608-3.222c0.094-0.575,0.134-1.159,0.216-1.886c0.331,0.254,0.651,0.372,0.734,0.583
				c0.587,1.498,0.398,2.924-0.347,4.355C36.97,103.515,35.811,103.693,34.608,103.517z M72.952,90.154
				c-0.561,3.188-1.179,6.366-1.692,9.562c-0.319,1.985-0.488,3.994-0.748,6.189c-0.249-0.366-0.381-0.561-0.699-1.028
				c0.052,0.709,0.156,1.11,0.084,1.477c-0.058,0.298-0.356,0.542-0.497,0.834c-0.228,0.472-0.419,0.962-0.616,1.449
				c-0.119,0.294-0.219,0.596-0.35,0.956c0.618,0.427,0.816,1.431-0.096,1.884c-1.492,0.742-1.462,2.259-2.264,3.313
				c-0.813,1.069-1.639,2.128-2.444,3.203c-0.755,1.009-1.322,2.25-2.277,2.997c-1.153,0.902-2.563,1.678-3.978,1.998
				c-2.415,0.547-4.695,1.226-6.611,2.856c-1.609,1.369-3.551,1.3-5.466,1.124c-0.244-0.022-0.603-0.842-0.592-1.285
				c0.107-4.308,2.066-7.607,5.603-10.016c2.071-1.411,4.121-2.852,6.195-4.258c0.823-0.558,0.719-1.26,0.367-1.99
				c-0.15-0.312-0.435-0.558-0.743-0.938c1.381-1.449,2.853-2.742,4.708-3.547c0.33-0.143,0.744-0.193,0.978-0.427
				c0.252-0.252,0.475-0.681,0.45-1.013c-0.018-0.231-0.472-0.602-0.74-0.609c-1.226-0.035-2.459-0.014-3.678,0.106
				c-0.298,0.029-0.629,0.463-0.811,0.786c-0.51,0.903-0.925,1.859-1.424,2.769c-0.355,0.647-0.755,1.225-1.687,0.746
				c-0.36-0.185-0.851-0.148-1.283-0.154c-1.388-0.017-2.777-0.006-4.483-0.006c0.487-0.723,0.755-1.19,1.088-1.605
				c2.577-3.207,5.133-6.431,7.763-9.594c2.024-2.435,4.173-4.794,6.989-6.319c1.088-0.589,2.456-0.651,3.681-1.008
				c0.38-0.111,0.794-0.334,1.028-0.634c0.167-0.214,0.198-0.813,0.043-0.939c-0.331-0.27-0.892-0.569-1.234-0.461
				c-1.704,0.539-3.623,0.869-4.991,1.901c-2.594,1.957-4.982,4.231-7.233,6.587c-1.885,1.973-3.48,4.23-5.149,6.402
				c-0.848,1.104-1.563,2.309-2.372,3.444c-0.25,0.35-0.588,0.653-0.931,0.919c-0.614,0.477-1.027,0.943-0.648,1.817
				c0.253,0.583-0.096,0.9-0.733,1.08c-2.725,0.77-5.496,0.733-8.286,0.659c-0.959-0.025-1.255-0.312-1.205-1.257
				c0.045-0.86-0.119-1.73-0.194-2.628c0.074-0.049,0.163-0.154,0.267-0.172c2.659-0.447,3.798-1.709,3.987-4.458
				c0.066-0.951,0.098-1.904,0.151-2.976c0.843,0,1.626-0.025,2.406,0.006c1.116,0.044,1.91-0.386,2.33-1.447
				c0.743-1.877,2.05-3.589,1.814-5.754c-0.084-0.77-0.238-1.608-0.631-2.248c-0.501-0.816-0.349-1.344,0.432-1.584
				c2.914-0.893,3.24-3.513,3.822-5.843c0.259-1.039-0.23-2.248-0.257-3.383c-0.012-0.517,0.144-1.135,0.443-1.547
				c1.812-2.498,1.701-5.34,1.538-8.187c-0.017-0.301-0.432-0.578-0.662-0.867c-0.267,0.299-0.734,0.578-0.765,0.9
				c-0.104,1.069,0.034,2.163-0.083,3.229c-0.123,1.108-0.435,2.194-0.691,3.414c-1.337-1.43-2.429-2.629-3.559-3.79
				c-0.445-0.457-1.081-1.026-1.572-0.259c-0.198,0.31,0.177,1.135,0.487,1.594c0.933,1.381,2.006,2.669,2.926,4.058
				c0.257,0.388,0.175,1,0.278,1.716c-3.432-2.448-4.084-2.343-7.349,1.037c-0.204-0.226-0.43-0.427-0.594-0.669
				c-0.538-0.794-1.039-1.614-1.581-2.405c-1.634-2.387-1.469-2.515,0.188-4.823c1.737-2.421,4.213-3.445,6.794-4.444
				c0.878-0.34,1.835-0.614,2.567-1.169c1.781-1.35,3.87-1.12,5.864-1.317c0.695-0.069,1.437,0.451,2.149,0.429
				c1.432-0.044,2.874-0.191,4.283-0.452c1.86-0.345,3.616-0.359,5.355,0.56c0.648,0.343,1.475,0.371,2.23,0.481
				c1.483,0.217,2.967,0.481,4.46,0.56c1.825,0.097,3.658,0.023,5.47,0.023c0.32,1.108,0.662,2.282,0.998,3.459
				c0.209,0.73,0.31,1.511,1.373,1.54c0.173,0.005,0.439,0.584,0.473,0.917c0.095,0.953,0.027,1.925,0.161,2.87
				c0.056,0.395,0.462,0.74,0.708,1.108c0.318-0.352,0.834-0.661,0.924-1.064c0.664-2.969-0.054-5.638-1.945-8.004
				c-0.412-0.515-0.822-1.032-1.443-1.812c0.759-0.124,1.411-0.311,2.066-0.322c1.502-0.026,3.007,0.078,4.509,0.035
				c0.646-0.019,0.975,0.076,1.003,0.788c0.08,2.082,1.544,3.548,2.431,5.268c0.129,0.25,0.657,0.534,0.873,0.455
				c0.803-0.295,1.055,0.3,1.44,0.724c-0.756,0.617-1.492,1.26-2.271,1.845c-1.387,1.04-2.816,2.026-4.198,3.072
				c-0.778,0.588-1.492,1.26-2.246,1.881c-1.996,1.645-4.028,3.249-5.99,4.933C75.037,85.203,73.447,87.344,72.952,90.154z
				 M195.549,148.19c-0.292,0.683-0.713,1.294-0.778,2.073c-0.03,0.365-0.136,0.723-0.208,1.084
				c-0.084-0.129-0.168-0.257-0.252-0.386c-0.219,0.614-0.277,1.381-0.688,1.812c-1.296,1.358-1.787,3.18-2.865,4.64
				c-0.802,1.086-1.707,2.108-2.648,3.078c-2.044,2.106-4.027,4.295-6.257,6.189c-1.397,1.187-3.207,1.882-4.814,2.828
				c-0.995,0.587-1.965,1.218-2.931,1.853c-2.716,1.785-5.841,2.629-8.764,3.923c-2.488,1.101-5.089,0.744-7.547,1.526
				c-1.605,0.51-3.301,0.771-4.975,1.02c-1.848,0.275-3.718,0.576-5.577,0.567c-3.854-0.019-7.694-0.297-11.393-1.57
				c-0.489-0.168-1.086-0.023-1.797-0.023c0.172-0.379,0.273-0.604,0.374-0.827c-0.016-0.002-0.116-0.037-0.133-0.013
				c-0.531,0.762-1.224,0.544-1.926,0.34c-3.759-1.093-7.309-2.525-10.073-5.488c-1.489-1.597-3.4-2.625-5.488-3.279
				c-0.847-0.265-1.437-0.652-1.71-1.613c-0.221-0.777-0.804-1.452-1.028-1.834c0.496-1.104,0.877-1.952,1.291-2.873h-0.75
				c0.142-0.353,0.274-0.684,0.518-1.291c-0.491,0.337-0.725,0.497-1.157,0.793c-0.178-0.703-0.32-1.265-0.534-2.115
				c0.596,0.4,0.906,0.608,1.063,0.713c-0.646-1.814-1.316-3.72-2.009-5.618c-0.091-0.25-0.243-0.547-0.456-0.674
				c-1.478-0.886-3.018-1.673-4.463-2.607c-2.135-1.381-3.889-3.129-5.072-5.442c-2.249-4.398-4.516-8.79-6.886-13.124
				c-1.37-2.505-3.613-4.028-6.232-5.153c-1.278-0.549-2.479-1.481-3.453-2.492c-1.843-1.914-3.492-4.003-4.651-6.443
				c-0.7-1.475-0.787-2.52-0.27-3.146c-0.062-1.038-0.346-1.845-0.095-2.418c0.531-1.211,1.184-2.443,2.067-3.411
				c2.806-3.079,5.256-6.288,5.973-10.563c0.221-1.322,0.654-2.753,1.441-3.794c0.792-1.048,2.035-1.971,3.273-2.425
				c3.184-1.168,5.801-3.181,8.417-5.192c2.274-1.748,4.379-3.717,6.566-5.579c2.228-1.897,4.95-2.811,7.703-3.431
				c1.788-0.403,3.735-0.355,5.579-0.179c1.846,0.176,3.65,0.77,5.478,1.158c0.302,0.064,0.629,0.024,0.944,0.005
				c0.233-0.014,0.51-0.173,0.686-0.092c0.878,0.407,1.717,0.9,2.595,1.309c0.609,0.284,1.257,0.482,2.018,0.768
				c-0.011,0.113-0.037,0.392-0.042,0.437c0.614,0.184,1.225,0.232,1.674,0.526c1.229,0.806,2.39,1.715,3.794,2.742
				c-0.463,0.338-0.816,0.668-1.228,0.882c-0.776,0.404-1.593,0.728-2.382,1.108c-1.653,0.796-1.895,1.484-1.972,3.337
				c-0.048,1.159-0.613,2.295-0.929,3.446c-0.2,0.728-0.85,1.635,0.205,2.094c1.036,0.452,1.584-0.336,1.966-1.227
				c0.112-0.26,0.392-0.456,0.616-0.657c0.203-0.182,0.57-0.292,0.633-0.503c0.646-2.171,2.865-3.262,3.633-5.347
				c0.296-0.803,0.697-1.568,1.07-2.393c3.524,1.301,6.759,3.191,9.916,5.295c4.321,2.879,8.737,5.62,13.189,8.293
				c2.739,1.645,5.227,3.578,7.725,5.555c1.917,1.517,2.793,3.743,4.469,5.378c1.883,1.838,3.779,3.677,5.502,5.66
				c1.299,1.496,2.372,3.195,3.474,4.852c0.645,0.969,1.041,2.115,1.74,3.036c1.81,2.387,3.719,4.699,5.604,7.029
				c1.128,1.395,2.344,2.723,3.398,4.171c0.355,0.488,0.386,1.245,0.468,1.891c0.142,1.124,0.203,2.258,0.309,3.387
				C196.749,142.639,196.691,145.518,195.549,148.19z M226.926,146.914c-0.117,1.769-0.398,3.527-0.621,5.289
				c-0.309,2.438-0.722,4.867-0.927,7.314c-0.276,3.299-0.395,6.611-0.592,9.917c-0.011,0.184-0.121,0.363-0.255,0.739
				c-0.385-0.303-0.681-0.522-0.961-0.76c-2.911-2.473-5.74-5.052-8.751-7.396c-3.325-2.589-6.332-5.448-8.936-8.764
				c-1.001-1.274-2.218-2.384-3.384-3.521c-1.184-1.155-2.53-2.16-3.594-3.412c-0.487-0.574-0.648-1.581-0.638-2.388
				c0.018-1.479,0.289-2.953,0.424-4.432c0.198-2.158,0.046-4.247-1.35-6.052c-2.66-3.44-5.371-6.842-7.964-10.332
				c-1.831-2.465-3.456-5.083-5.268-7.563c-0.745-1.02-1.766-1.834-2.618-2.782c-2.188-2.434-4.403-4.847-6.511-7.35
				c-2.635-3.128-5.823-5.531-9.289-7.65c-4.733-2.894-9.392-5.91-14.089-8.863c-0.503-0.316-1.049-0.563-1.576-0.843
				c1.046-1.536,2.077-1.223,2.89-1.213c6.831,0.083,13.662,0.208,20.491,0.376c4.498,0.111,8.997,0.483,13.49,0.404
				c2.474-0.043,4.946-0.729,7.4-1.219c1.486-0.296,2.935-0.776,4.403-1.165c1.87-0.495,2.578-0.115,3.756,1.404
				c2.603,3.359,3.87,7.277,5.134,11.244c0.523,1.642,1.573,3.117,2.39,4.664c0.511,0.967,1.306,1.851,0.67,3.095
				c-0.101,0.198,0.12,0.604,0.262,0.877c2.428,4.675,4.913,9.322,7.279,14.029c0.791,1.573,1.244,3.313,1.918,4.949
				c1.167,2.832,2.301,5.683,3.615,8.448c0.871,1.834,2.074,3.509,3.033,5.306c0.273,0.513,0.289,1.204,0.289,1.814
				C227.046,143.023,227.054,144.973,226.926,146.914z"/>
			<path fill="#BA68C8" stroke="#BA68C8" stroke-miterlimit="10" d="M229.22,34.24c0.129,0.379,0.173,0.826,0.407,1.123
				c0.451,0.572,0.972,1.103,1.529,1.573c2.002,1.691,2.7,4.197,3.958,6.344c0.912,1.558,1.441,3.336,2.289,4.938
				c0.832,1.571,1.883,3.025,2.779,4.563c0.776,1.332,1.429,2.736,2.212,4.064c1.078,1.827,2.241,3.604,3.338,5.42
				c0.298,0.494,0.441,1.082,0.744,1.573c0.354,0.574,0.83,1.071,1.209,1.632c0.967,1.432,1.842,2.932,2.879,4.311
				c1.133,1.507,2.424,2.895,3.613,4.361c2.528,3.116,5.083,6.213,7.527,9.395c0.932,1.213,1.547,2.665,2.385,3.957
				c0.983,1.514,2.084,2.952,3.073,4.462c0.499,0.761,0.9,1.594,1.275,2.426c0.135,0.299,0.064,0.692,0.096,1.175
				c0.714,0.317,0.714,0.317,0.522,1.21c0.661,1.386,1.201,2.385,1.619,3.433c0.351,0.88,0.28,2.207,0.891,2.647
				c1.299,0.936,1.149,2.344,1.72,3.493c0.051,0.102,0.139,0.21,0.238,0.261c2.261,1.174,1.312,3.043,1.216,4.846
				c-0.053,1.002,0.521,2.133,1.076,3.045c0.525,0.863,1.463,1.465,2.093,2.279c0.563,0.728,0.952,1.59,1.383,2.332
				c-0.147,0.399-0.527,1.001-0.394,1.153c0.281,0.319,0.83,0.402,1.434,0.65c-0.193,0.22-0.375,0.467-0.596,0.672
				c-0.221,0.204-0.482,0.365-0.815,0.612c0.27,0.234,0.427,0.488,0.609,0.508c1.097,0.123,1.352,0.924,1.504,1.801
				c0.216,1.247,0.392,2.501,0.606,3.748c0.039,0.226,0.177,0.434,0.328,0.789c0.207-0.305,0.35-0.516,0.706-1.04
				c0.182,1.424,0.32,2.508,0.461,3.609c1.594,0.537,1.761,0.829,1.103,2.396c-0.209-0.491-0.349-0.82-0.506-1.191
				c-0.409,0.937,0.514,2.034,2.316,2.823c-0.13,1.238-0.118,2.374,0.706,3.549c0.704,1.003,0.858,2.393,1.248,3.615
				c0.215,0.672,0.362,1.371,0.632,2.019c0.793,1.903,1.645,3.78,2.443,5.681c0.239,0.569,0.375,1.181,0.558,1.773
				c0.11-0.018,0.221-0.036,0.331-0.054c0.037-0.226,0.074-0.452,0.127-0.774c0.207,0.154,0.44,0.255,0.434,0.335
				c-0.036,0.443-0.13,0.881-0.221,1.42c0.279,0.046,0.735,0.12,1.29,0.211c-0.134,0.277-0.257,0.53-0.38,0.782
				c0.095,0.066,0.159,0.148,0.217,0.145c0.475-0.028,0.973,0.006,1.417-0.131c0.563-0.174,1.074-0.512,1.625-0.737
				c0.276-0.113,0.706-0.288,0.871-0.168c1.652,1.206,2.834,0.324,3.992-0.882c0,0.457-0.159,1.013,0.039,1.21
				c0.259,0.257,0.802,0.32,1.219,0.312c2.181-0.04,4.36-0.168,6.541-0.181c0.953-0.006,1.905,0.22,2.861,0.288
				c0.942,0.067,1.903,0.185,2.83,0.073c1.916-0.233,3.839-0.505,5.717-0.94c3.545-0.821,7.104-0.605,10.674-0.378
				c0,0.96,0,1.92,0,2.88c-2.178,0.46-4.355,0.922-6.533,1.38c-1.798,0.378-3.596,0.754-5.396,1.126
				c-1.144,0.237-2.221,0.063-3.387-0.137c-1.806-0.308-3.552-1.146-5.554-0.593c-1.706,0.471-3.565,0.395-5.358,0.544
				c-0.272,0.023-0.639,0.055-0.815-0.093c-1.148-0.962-2.495-0.646-3.792-0.665c-3.066-0.045-6.133-0.129-9.199-0.114
				c-0.805,0.004-1.609,0.312-2.413,0.484c-0.463,0.099-0.925,0.205-1.388,0.306c-2.569,0.557-5.259,0.805-7.677,1.749
				c-3.06,1.195-5.936,2.888-8.826,4.486c-5.893,3.258-11.092,7.53-16.466,11.535c-4.285,3.193-8.611,6.362-12.629,9.872
				c-4.369,3.817-7.837,8.496-11.387,13.083c-2.318,2.995-4.978,5.723-7.458,8.594c-1.149,1.33-2.237,2.713-3.347,4.077
				c-1.99,2.444-4.085,4.811-5.925,7.364c-1.324,1.837-2.262,3.946-3.445,5.89c-2.244,3.686-4.642,7.283-6.78,11.028
				c-1.437,2.518-2.728,5.159-3.736,7.874c-1.091,2.937-2.834,5.448-4.451,8.06c-1.892,3.054-3.796,6.1-5.638,9.184
				c-0.528,0.884-0.875,1.879-1.263,2.84c-0.092,0.226-0.123,0.672,0,0.758c0.773,0.543,0.678,1.228,0.335,1.9
				c-0.454,0.891-1.29,0.569-2.043,0.427c0.287-0.056,0.573-0.111,0.86-0.167c0.004-0.04,0.007-0.079,0.011-0.119
				c-1.063,0-2.126,0-3.413,0c0.597-1.318,1.071-2.466,1.628-3.573c0.915-1.819,1.883-3.612,2.832-5.414
				c0.13-0.247,0.27-0.49,0.419-0.727c2.113-3.34,4.264-6.657,6.323-10.031c0.661-1.082,1.164-2.283,1.591-3.482
				c1.923-5.399,4.978-10.169,8.081-14.931c1.698-2.605,3.085-5.411,4.738-8.047c1.436-2.29,2.965-4.535,4.606-6.682
				c1.865-2.44,3.864-4.782,5.874-7.106c2.034-2.352,4.204-4.588,6.226-6.95c4.157-4.858,8.276-9.749,12.372-14.659
				c3.29-3.944,7.387-6.885,11.603-9.732c2.567-1.734,4.905-3.806,7.37-5.693c0.688-0.527,1.491-0.901,2.195-1.409
				c1.872-1.349,3.694-2.77,5.583-4.095c4.162-2.92,8.296-5.897,13.396-7.058c0.519-0.118,0.966-0.552,1.447-0.839
				c-0.287-0.412-0.599-0.809-0.85-1.241c-0.168-0.29-0.343-0.628-0.351-0.948c-0.022-0.91-0.004-1.828,0.099-2.731
				c0.028-0.246,0.407-0.638,0.632-0.644c0.907-0.023,1.82,0.048,2.724,0.148c0.552,0.061,1.086,0.284,1.638,0.35
				c0.663,0.08,1.337,0.072,2.02,0.102c0.03-0.187,0.097-0.32,0.059-0.407c-1.017-2.32-2.08-4.621-3.039-6.964
				c-0.175-0.427,0.052-1.027,0.121-1.543c0.076-0.565,0.392-1.191,0.241-1.678c-0.636-2.045-1.333-4.079-2.148-6.059
				c-1.125-2.733-2.72-5.321-3.485-8.141c-0.908-3.345-2.216-6.459-3.743-9.526c-0.184-0.37-0.114-0.859-0.21-1.283
				c-0.137-0.612-0.254-1.24-0.492-1.815c-0.922-2.233-1.968-4.417-2.819-6.676c-1.251-3.319-2.148-6.79-3.62-10.002
				c-1.254-2.737-3.198-5.15-4.672-7.797c-1.932-3.468-4.653-6.247-7.284-9.154c-1.968-2.174-3.378-4.843-5.161-7.196
				c-1.892-2.496-4-4.829-5.878-7.334c-0.974-1.299-1.729-2.779-2.454-4.242c-1.809-3.652-3.389-7.425-5.354-10.988
				c-1.733-3.142-3.947-6.016-5.79-9.102c-1.308-2.191-2.354-4.538-3.517-6.816C227.78,34.24,228.5,34.24,229.22,34.24z"/>
			<path fill="#BA68C8" stroke="#BA68C8" stroke-miterlimit="10" d="M237.061,142.82c0.503-0.202,0.999-0.556,1.511-0.58
				c3.037-0.144,5.947,0.043,8.897,1.257c3.708,1.527,7.686,2.396,11.541,3.57c0.953,0.29,1.896,0.626,2.812,1.014
				c0.268,0.114,0.43,0.479,0.641,0.729c-0.335,0.119-0.678,0.359-1.004,0.338c-2.923-0.19-5.739-0.843-8.506-1.83
				c-2.44-0.87-4.96-1.515-7.444-2.261c-0.186-0.056-0.458-0.071-0.537-0.199c-0.941-1.529-2.405-0.999-3.71-0.915
				c-1.467,0.094-2.869,0.066-4.133-0.701C237.106,143.102,237.083,142.961,237.061,142.82z"/>
			<path fill="#BA68C8" stroke="#BA68C8" stroke-miterlimit="10" d="M143.031,211.239c-1.588,0.956-2.477,0.565-3.038-0.789
				c-0.42-1.014-1.1-1.925-1.49-2.947c-0.685-1.796-1.746-3.522-1.528-5.543c0.051-0.476,0.497-1.133,0.92-1.295
				c0.74-0.284,1.097,0.369,1.333,1.017c0.884,2.421,1.787,4.835,2.67,7.257c0.105,0.287,0.283,0.736,0.159,0.887
				C141.312,210.728,141.578,211.168,143.031,211.239z"/>
			<path fill="#BA68C8" stroke="#BA68C8" stroke-miterlimit="10" d="M39.391,124.069c-1.179-0.523-2.189-0.881-3.109-1.399
				c-1.458-0.821-2.821-1.787-4.63-1.725c-0.359,0.012-0.737-0.537-1.107-0.827c0.407-0.291,0.883-0.893,1.209-0.82
				c1.654,0.369,3.284,0.868,4.891,1.412c1.006,0.341,1.938,0.902,2.942,1.252c0.588,0.205,1.163,0.392,0.91,1.087
				C40.357,123.44,39.826,123.688,39.391,124.069z"/>
			<path fill="#BA68C8" stroke="#BA68C8" stroke-miterlimit="10" d="M168.493,130.657c0.146-0.341,0.249-0.709,0.445-1.018
				c1.844-2.907,4.667-4.593,7.639-6.088c0.426-0.214,0.888-0.386,1.256-0.675c0.281-0.221,0.653-0.646,0.598-0.894
				c-0.065-0.291-0.528-0.656-0.853-0.695c-0.817-0.098-1.654-0.013-2.482-0.035c-0.362-0.01-0.721-0.103-1.081-0.159
				c0.081-0.448,0.059-0.954,0.271-1.328c0.222-0.393,0.667-0.661,0.843-0.824c-0.251-0.759-0.566-1.377-0.646-2.025
				c-0.136-1.088-0.613-1.729-1.747-1.684c-3.267,0.129-6.536,0.251-9.8,0.446c-1.692,0.101-2.702,1.156-3.38,2.658
				c-0.455,1.008-1.228,1.888-1.59,2.919c-0.942,2.682-1.516,5.45-1.481,8.323c0.034,2.757-0.027,5.516,0.017,8.273
				c0.025,1.554,0.77,2.134,2.252,1.594c1.118-0.407,2.107-1.169,3.372-1.899c-0.587-0.307-0.854-0.447-1.175-0.614
				c-0.254,0.362-0.498,0.709-0.928,1.324c-0.292-0.55-0.664-0.936-0.684-1.339c-0.184-3.723-0.14-7.376,1.625-10.866
				c1.439-2.846,3.517-4.625,6.662-4.864c1.604-0.122,3.249,0.22,4.866,0.421c0.282,0.035,0.735,0.417,0.73,0.629
				c-0.008,0.307-0.316,0.653-0.577,0.897c-0.708,0.662-1.567,1.19-2.171,1.93c-1.918,2.35-3.811,4.726-5.584,7.186
				c-0.956,1.327-1.646,2.845-2.456,4.277c0.15,0.117,0.301,0.234,0.451,0.351c1.68-1.54,3.359-3.081,5.094-4.672
				c0.541,1.046,0.194,2.095-0.489,2.896c-0.791,0.928-1.798,1.686-2.772,2.439c-1.295,1.002-2.633,1.95-3.982,2.879
				c-1.533,1.056-3.095,1.4-5.031,0.027c-0.242-0.172-0.32-0.697-0.326-1.061c-0.027-1.519,0.054-3.041,0-4.558
				c-0.072-2.026-0.235-4.048-0.354-6.072c-0.023-0.39-0.114-0.803-0.024-1.168c0.658-2.672,1.169-5.403,2.103-7.978
				c0.623-1.716,1.41-3.66,3.767-3.872c0.149-0.013,0.352-0.092,0.422-0.207c1.305-2.143,3.537-1.591,5.443-1.774
				c2.093-0.201,4.218-0.121,6.326-0.074c0.549,0.012,1.236,0.205,1.61,0.571c1.425,1.395,2.815,2.84,4.082,4.378
				c0.637,0.773,1.026,1.767,1.447,2.697c0.518,1.147-0.099,2.511-1.47,2.95c-2.958,0.949-5.17,2.942-7.397,4.96
				c-0.743,0.674-1.623,1.196-2.441,1.788C168.76,130.903,168.626,130.78,168.493,130.657z M165.343,125.079
				c-0.791-0.134-1.661-0.72-2.23,0.398c-0.384,0.754-0.775,1.505-1.164,2.258c0.152,0.105,0.303,0.21,0.455,0.315
				c0.977-0.99,1.954-1.979,2.928-2.969c0.566-0.613,1.132-1.226,1.699-1.838c-0.069-0.116-0.139-0.233-0.208-0.349
				c-0.825,0.361-1.649,0.721-2.633,1.151C164.708,124.509,165.026,124.794,165.343,125.079z M161.051,133.915
				c1.67-2.202,3.207-4.328,4.856-6.362c0.895-1.103,1.985-2.048,2.983-3.067c0.487-0.498,0.554-1.08-0.134-1.319
				c-0.333-0.116-0.991,0.182-1.259,0.498c-1.103,1.301-1.763,2.97-3.366,3.858c-0.737,0.409-1.41,0.937-2.093,1.436
				c-0.178,0.13-0.382,0.343-0.411,0.541C161.414,130.95,161.242,132.406,161.051,133.915z"/>
			<path fill="#BA68C8" stroke="#BA68C8" stroke-miterlimit="10" d="M114.706,109.061c0.379-0.521,0.677-0.93,0.974-1.34
				c0.101,0.07,0.202,0.14,0.303,0.21c-0.151,0.228-0.302,0.456-0.597,0.902c0.668,0,1.185,0,1.621,0
				c0.649,0.844,0.299,1.472-0.234,2.208c-0.664,0.916-1.089,2.001-1.698,2.962c-0.445,0.703-1.029,1.317-1.534,1.984
				c-0.846,1.116-1.701,2.226-2.493,3.379c-0.141,0.205,0.009,0.61,0.03,1.011c-1.07,0.729-1.451,1.724-0.892,2.164
				c-0.856,1.554-1.68,3.098-2.562,4.609c-0.169,0.29-0.543,0.537-0.869,0.623c-0.141,0.037-0.599-0.402-0.581-0.593
				c0.221-2.306-0.492-4.707,0.701-6.916c1.264-2.34,2.457-4.719,3.768-7.031c0.722-1.273,1.594-2.467,2.457-3.653
				C113.502,109.024,113.953,108.299,114.706,109.061z"/>
			<path fill="#BA68C8" stroke="#BA68C8" stroke-miterlimit="10" d="M129.369,100.746c-0.294-0.617,0.13-1.173,0.992-1.178
				c1.215-0.007,2.438,0.175,3.646,0.356c1.245,0.186,2.475,0.467,3.712,0.71c0.207,0.041,0.441,0.048,0.613,0.152
				c0.743,0.447,1.176,0.077,1.753-0.424c2.46-2.134,4.962-4.224,7.521-6.237c0.478-0.376,1.286-0.402,1.952-0.453
				c0.935-0.071,1.336,0.557,0.875,1.39c-0.252,0.456-0.68,0.846-1.101,1.17c-1.552,1.192-3.154,2.319-4.694,3.527
				c-0.447,0.351-0.747,0.889-1.306,1.578c0.698,0.081,1.101,0.162,1.504,0.169c1.358,0.022,2.716,0.027,4.075,0.019
				c0.966-0.006,1.581,0.483,1.938,1.332c0.247,0.587,0.494,1.182,0.652,1.796c0.066,0.257-0.019,0.746-0.18,0.822
				c-0.26,0.123-0.685,0.079-0.956-0.06c-0.256-0.131-0.499-0.446-0.583-0.728c-0.374-1.261-1.202-1.61-2.459-1.544
				c-1.592,0.082-3.202,0.072-4.789-0.073c-1.207-0.11-2.385-0.506-3.583-0.744c-0.539-0.107-1.092-0.14-1.64-0.202
				c-1.08-0.122-2.17-0.185-3.237-0.375C132.609,101.489,131.16,101.133,129.369,100.746z"/>
			<path fill="#BA68C8" stroke="#BA68C8" stroke-miterlimit="10" d="M126.456,114.522c0.461,1.112,0.393,2.085-0.064,3.285
				c-1.041,2.736-2.727,5.026-4.379,7.362c-0.218,0.308-0.57,0.545-0.903,0.741c-0.671,0.393-1.374,0.732-2.06,1.1
				c-0.536,0.287-1.065,0.897-1.68,0.233c-0.583-0.63-0.07-1.132,0.297-1.668c1.3-1.897,2.582-3.807,3.838-5.733
				C122.848,117.779,124.078,115.621,126.456,114.522z"/>
			<path fill="#BA68C8" stroke="#BA68C8" stroke-miterlimit="10" d="M145.586,116.695c0.099-2.019,0.675-3.7,1.779-5.161
				c0.337-0.446,0.879-0.873,1.402-1.001c0.42-0.103,1.299,0.171,1.367,0.435c0.164,0.633,0.415,1.421-0.505,1.949
				c-0.384,0.22-0.676,0.926-0.68,1.413c-0.008,1.061,0.291,2.125,0.288,3.187c-0.003,1.302-0.661,2.007-1.746,1.964
				c-1.082-0.042-1.562-0.844-1.813-1.779C145.577,117.325,145.603,116.913,145.586,116.695z"/>
			<path fill="#BA68C8" stroke="#BA68C8" stroke-miterlimit="10" d="M180.492,143.56c0.461-3.583,2.509-5.924,5.755-7.289
				c0.393-0.165,0.941-0.143,1.352-0.01c0.24,0.078,0.504,0.567,0.472,0.838c-0.025,0.209-0.478,0.395-0.767,0.54
				c-0.655,0.329-1.461,0.485-1.966,0.964c-1.81,1.716-3.604,3.471-3.545,6.291c0.01,0.481-0.436,0.971-0.671,1.456
				c-0.242-0.533-0.552-1.047-0.701-1.604C180.324,144.382,180.461,143.957,180.492,143.56z"/>
			<path fill="#BA68C8" stroke="#BA68C8" stroke-miterlimit="10" d="M120.739,116.105c-0.338,0.584-0.635,1.234-1.052,1.794
				c-1.451,1.95-2.95,3.864-4.414,5.804c-0.343,0.455-0.852,0.898-0.243,1.565c0.092,0.1-0.153,0.721-0.377,0.834
				c-0.204,0.103-0.839-0.126-0.856-0.261c-0.084-0.678-0.289-1.537,0.023-2.034c1.649-2.623,3.424-5.169,5.196-7.713
				C119.448,115.472,120.055,115.41,120.739,116.105z"/>
			<path fill="#BA68C8" stroke="#BA68C8" stroke-miterlimit="10" d="M156.244,108.775c-0.009,0.097,0.069,0.558-0.109,0.876
				c-0.343,0.613-0.831,1.144-1.259,1.709c-0.666-0.544-1.578-0.962-1.933-1.663c-0.424-0.836-0.956-1.989,0.148-2.824
				c0.484-0.366,1.266-0.899,1.634-0.734c0.623,0.279,1.049,1.033,1.501,1.63C156.342,107.921,156.244,108.234,156.244,108.775z"/>
			<path fill="#BA68C8" stroke="#BA68C8" stroke-miterlimit="10" d="M141.24,122.126c-0.685-0.196-1.681-0.178-2.045-0.649
				c-0.754-0.976-1.061-2.242-0.608-3.511c0.121-0.339,0.425-0.845,0.664-0.856c0.355-0.016,0.93,0.255,1.056,0.554
				c0.489,1.155,1.089,2.173,2.122,2.937c0.177,0.131,0.216,0.776,0.058,0.955C142.249,121.827,141.782,121.898,141.24,122.126z"/>
			<path fill="#BA68C8" stroke="#BA68C8" stroke-miterlimit="10" d="M224.763,142.427c-0.872-0.55-1.775-0.986-2.512-1.616
				c-1.207-1.033-2.276-2.225-3.463-3.283c-0.526-0.469-1.214-0.753-1.801-1.16c-0.88-0.611-1.835-1.163-2.561-1.928
				c-0.366-0.386-0.571-1.304-0.366-1.768c0.351-0.795,1.18-0.512,1.764-0.127c1.698,1.122,3.409,2.235,5.023,3.473
				c1.423,1.092,2.725,2.342,4.071,3.533c0.298,0.263,0.642,0.53,0.808,0.871c0.175,0.36,0.324,0.884,0.183,1.203
				C225.765,141.947,225.252,142.106,224.763,142.427z"/>
			<path fill="#BA68C8" stroke="#BA68C8" stroke-miterlimit="10" d="M59.688,79.212c2.942-1.302,4.655-3.664,6.124-6.269
				c0.919-1.63,1.844-3.258,2.799-4.868c0.308-0.519,0.892-0.961,1.33-0.355c0.273,0.377,0.231,1.211-0.001,1.674
				c-0.427,0.85-1.204,1.521-1.649,2.365c-1.633,3.095-3.412,6.055-6.375,8.094c-0.098,0.067-0.169,0.172-0.266,0.24
				C60.476,80.909,59.904,80.662,59.688,79.212z"/>
			<path fill="#BA68C8" stroke="#BA68C8" stroke-miterlimit="10" d="M58.5,108.93c1.622,0,3.19-0.016,4.756,0.014
				c0.302,0.006,0.673,0.111,0.882,0.308c0.259,0.244,0.382,0.632,0.563,0.958c-0.338,0.113-0.669,0.256-1.015,0.325
				c-0.172,0.034-0.37-0.071-0.831-0.176c0.439,0.501,0.703,0.802,1.176,1.342c-0.767-0.402-1.274-0.688-1.8-0.935
				c-0.32-0.15-0.689-0.381-0.999-0.334C60.051,110.612,59.095,110.403,58.5,108.93z"/>
			<path fill="#BA68C8" stroke="#BA68C8" stroke-miterlimit="10" d="M56.387,113.825c1.768,1.076,4.206,0.411,5.041,2.835
				c-0.517,0.603-1.065,0.575-1.809,0.156c-0.655-0.368-1.444-0.505-2.181-0.718c-0.548-0.158-1.107-0.275-1.661-0.41
				c0.204-0.412,0.42-0.818,0.603-1.239C56.432,114.326,56.387,114.16,56.387,113.825z"/>
		</g>
	</g>
</g>
</svg>
