<?xml version="1.0" encoding="utf-8"?>
<!-- Generator: Adobe Illustrator 18.1.1, SVG Export Plug-In . SVG Version: 6.00 Build 0)  -->
<!DOCTYPE svg PUBLIC "-//W3C//DTD SVG 1.1//EN" "http://www.w3.org/Graphics/SVG/1.1/DTD/svg11.dtd">
<svg version="1.1" id="Layer_1" xmlns="http://www.w3.org/2000/svg" xmlns:xlink="http://www.w3.org/1999/xlink" x="0px" y="0px"
	 viewBox="0 0 171.8 171.5" enable-background="new 0 0 171.8 171.5" xml:space="preserve">
<g>
	<defs>
		<rect id="SVGID_1_" x="0" y="0" width="171.8" height="171.5"/>
	</defs>
	<clipPath id="SVGID_2_">
		<use xlink:href="#SVGID_1_"  overflow="visible"/>
	</clipPath>
	<g id="_x34_3GNPe_1_" clip-path="url(#SVGID_2_)">
		<g>
			<path fill="#C2185B" d="M-9.6,206.9c0.1-12.3,2.8-24.1,9.2-34.6c2.3-3.8,6.6-6.5,10.3-9.2c6.7-4.9,13.7-9.5,20.5-14.3
				c3-2.1,6.1-4.1,8.8-6.6c2.1-1.9,3.7-4.3,5.3-6.6c1.6-2.3,3.1-4.7,4.2-7.2c1.7-4,4.5-5.2,8.5-4.5c0.5,0.1,1.1,0,1.6,0
				c0.2-0.4,0.4-0.7,0.4-1c0.2-4.9,0.2-4.9-5-4.6c-0.8,0-2,0.1-2.5-0.4c-4.3-3.8-9-7.3-12.5-11.8c-5.2-6.8-5.9-15.5-6.7-23.7
				c-0.7-7,2.9-13.2,6.8-19c2.8-4.1,4.5-8.6,3.1-13.7c-0.2-0.7,0-1.7,0.4-2.2c2.5-3.7,2.3-8,2.9-12.1c1.4-10.5,6.8-18.9,15.5-24.5
				c4.5-2.9,10.2-4.3,15.5-5.7c4.9-1.4,10.1-1.8,15.1-3c5.3-1.3,10,0.8,15,1.9c9.2,2,17.1,6.3,23,13.6c3.4,4.2,6.2,8.9,8.4,13.8
				c1.1,2.5-0.1,5.9,0.2,8.8c0.3,3.4,1.1,6.8,1.5,10.1c0.6,4.5,1.6,8.9-1.1,13.2c-0.8,1.2-0.4,3.8,0.3,5.3c2.2,5,2.3,10,1.3,15.3
				c-1.5,7.3-2.5,14.6-4,21.9c-0.7,3-2.1,5.9-3.4,8.8c-0.9,1.9-2.2,3.6-3,5.5c-2.6,6.1-6.9,10.7-12.7,15.2c3.3,2.5,6.2,5.2,9.6,7.1
				c8.3,4.6,16.8,8.6,25.1,13c8.5,4.5,14,11.4,15.6,21.1c0.8,5.1,2,10.3,2.7,15.4c0.7,4.9,1.1,9.8,1.6,14.7c-8.9,0-17.8,0-26.7,0
				c-2.1-19.4-8.6-36.8-22.5-51c1.1,3.4,2.6,6.7,4.6,9.6c8.7,12.5,13.7,26.1,13.9,41.4c-17.1,0-34.2,0-51.4,0
				c-1.2-1.8-2.3-3.7-3.7-5.5c-7-8.9-13.9-17.8-21.1-26.5c-2.6-3.2-3-4.4-0.6-7.8c0.4-0.6,1-1.2,1.5-1.8c1.5-2,1.3-3.6-1.2-4.3
				c-2-0.6-4.2-0.7-6.1-1.4c-1.4-0.5-3.1-1.4-3.6-2.6c-2.4-5.6-6.5-9.7-11.1-13.5c-0.8-0.7-2.2-0.6-3.4-0.8c0.5,0.9,0.8,2.1,1.6,2.8
				c4.9,4.2,9.2,8.6,11.2,15c0.3,0.8,1.7,1.6,2.7,1.8c2.2,0.6,4.4,0.9,6.9,1.3c-5.4,7.9-4.1,10,2.1,16.5c3,3.1,5.9,6.3,8.7,9.6
				c1.9,2.2,3.3,4.8,5.4,6.7c3.3,2.8,4.7,6.6,6,10.5C53.6,206.9,22,206.9-9.6,206.9z M130.2,57.3c-0.9,0-1.7,0-2.6,0
				c-0.1-0.4-0.2-0.8-0.3-1.2c3.4-1.8,6.9-3.6,9.9-5.1c-0.4-5.9-0.8-11.8-1.2-17.6c-0.1-2.1-4-6-6-5.6c-7,1.4-13.4-0.9-19.6-3.5
				c-2.4-1-4.6-2.7-6.9-4c-5-2.7-10-5.3-15-7.9c-0.8-0.4-1.8-0.6-2.6-0.9c4.3,3.6,8.7,6.7,13.1,9.9c3,2.1,3,3.8,0.2,6
				c-2.3,1.8-4.8,3.2-6.9,5.2c-3.8,3.5-8.5,6-10.1,11.5c-1.1,3.7-2.8,7.4-4.9,10.7c-2,3.3-4.8,6.2-6.9,8.9
				c4.8,5.1,9.6,10.3,14.4,15.4c-1.6-0.9-3.5-1.6-4.8-2.9c-2.6-2.3-4.7-5.3-7.5-7.4c-9.3-7.3-20.9-11.9-26.8-23.2
				c-1.8,2.4-0.9,4,0.6,5.8c3.2,3.8,6.5,7.1,10.7,10c7.8,5.3,14.7,11.8,21.8,18c1.1,1,1.9,2.7,2.3,4.3c1,4.3,1.6,8.7,2.4,13.1
				c0.8,3.9,0.5,7.2-3.3,9.5c-4.1,2.5-8.1,5.3-12.2,7.9c-0.9,0.5-2.1,0.7-3.2,0.8c-3.8,0.3-3.9,0.4-2.3,4.4
				c6.3-3.8,14.5-3.7,20.1-11.4c3.3,3.1,5.9,6.7,8.8,10c5.8,6.7,13,11,21.6,13c3.6,0.8,6.8,0.5,8.8-2.7c3.8-5.9,7.4-12,11-18
				c0.3-0.5,0.3-1.3,0.4-1.9c1-4.8,2.1-9.5,3-14.3c1-5.3,1.9-10.7,2.7-16.1c0.3-1.8-0.3-3-2.5-2.9c-8.3,0.4-16.7,0.2-24.6,3.4
				c-1.5,0.6-3.2,0.8-4.9,0.8c-5.4-0.1-10.9-0.4-16.3-0.5c-2,0-4.1,0.2-6.1,0.3c5.2-2.6,10.6-1.8,16-1.3c4.6,0.5,8.9,0.3,13.4-1.4
				c3.6-1.3,7.5-1.8,11.4-2.3c4.1-0.5,8.4-0.6,12.5-0.8c0.1-6.6-4.7-6.5-9.2-7.1c0.4,1.6,0.8,3.1,1.1,4.6c-0.4,0.2-0.7,0.4-1.1,0.5
				c-0.8-1.4-2-2.7-2.3-4.1C125.6,63.2,126.8,59.7,130.2,57.3c1.9,0,3.9,0.1,5.9,0.2c2.4,0.1,2.7-1.1,1.9-3.3
				C135.3,55.2,132.8,56.3,130.2,57.3z M92.3,130c0.3-0.2,0.6-0.5,0.8-0.7c1.4,1.2,2.8,2.4,4.3,3.5c1.6,1.2,3.3,2.2,5,3.2
				c5.3,3.1,6.5,2.7,9.6-2.9c-0.4-0.2-0.7-0.5-1.1-0.6c-10.6-2.7-18.6-9.1-25.1-17.6c-1.1-1.4-2.7-2.5-3.6-3.4
				c-2.7,1.8-4.8,3.4-7.1,4.5c-3.3,1.5-7.2,2.1-10.1,4.1c-2.7,1.8-4.6,4.9-6.6,7.6c-0.4,0.5,0.1,1.9,0.6,2.6
				c5.7,7.2,11.6,14.3,17.3,21.5c1.6,2.1,3.4,3.2,6.1,3.3c5.4,0.3,10.8,0.9,16.1,1.5c4.9,0.5,9.9,1.4,14.8,1.7
				c1,0.1,2.4-1.2,3.1-2.2c2-2.8,0.5-5.4-1-7.8c-2-3.1-3.4-7.1-7.4-8c-5.8-1.2-10.4-4.3-14.5-8.3C92.9,131.4,92.7,130.6,92.3,130z
				 M53.4,62c-3.5,0.4-4.6,2.5-5.1,5c-2,8.3,4.1,19.3,12.3,22.1c2.2,0.8,3.2,2.1,3.3,4.4c0.1,4.9-0.6,9.6-3.4,13.7
				c-1.3,1.9-1,3.7,0.3,4.7c0.9,0.8,3.1,0.9,4.2,0.4c3.9-1.8,7.7-3.9,11.4-6.2c5-3.1,5.5-4.7,4.3-10.4c-0.8-3.6-1-7.3-1.9-10.8
				c-0.6-2.1-1.5-4.5-3.1-5.9c-6.2-5.3-12.7-10.3-19.2-15.4C55.3,63,54.1,62.5,53.4,62z M130.3,59.8c-0.4,1.1-0.8,2.2-1.1,3.3
				c1.9,0.4,3.7,1.1,5.6,1.2c0.5,0,1.5-1.5,1.6-2.3c0.1-0.6-1-1.4-1.4-1.9c-1,1.5-1.7,2.5-2.4,3.5C132,62.6,131.4,61.6,130.3,59.8z"
				/>
			<path fill="#C2185B" d="M101.2,96.2c8.8,0,16.9,0,24.9,0c0,0.3,0,0.6,0,0.9C118,97.6,109.9,98.5,101.2,96.2z"/>
			<path fill="#C2185B" d="M120.9,116c-5.6,2.7-10.9,2.3-16.9,0C109.9,116,115.2,116,120.9,116z"/>
			<path fill="#C2185B" d="M114.2,66.5c-11.1,4-16.4,3.5-20.4-1.8C102.6,57,110.9,57.7,114.2,66.5z M101.5,63.1
				c-1.6,0.6-2.9,1-4.2,1.5c-0.1,0.4-0.1,0.8-0.2,1.2c1.7,0.7,3.3,1.4,5.4,2.2C102.1,66,101.8,64.9,101.5,63.1z M111.1,65.5
				c0.1-0.3,0.2-0.6,0.3-0.9c-1.3-0.8-2.6-1.6-4.5-2.7c0.1,2.3,0.2,3.5,0.2,5C108.6,66.3,109.9,65.9,111.1,65.5z"/>
			<path fill="#C2185B" d="M92.1,58.7c3.5-5.4,19.6-7.5,23.7-3.1L92.1,58.7z"/>
			<path fill="#C2185B" d="M57.7,75.7c-0.8-1.1-1.6-2.2-2.5-3.5c-0.9,0.2-1.9,0.5-3.9,1c0.7-1.6,1-3.2,1.6-3.3
				c1.4-0.3,3.4-0.4,4.2,0.4c1.1,1.1,1.4,3.2,2.1,4.8C58.7,75.3,58.2,75.5,57.7,75.7z"/>
			<path fill="#C2185B" d="M59.3,87.2C58,85.7,57,84.5,56,83.4c0.7-0.5,1.7-1.5,2.1-1.3c1.6,0.7,3,1.9,4.4,2.8
				C61.7,85.6,60.9,86.2,59.3,87.2z"/>
		</g>
	</g>
</g>
</svg>
