<?xml version="1.0" encoding="utf-8"?>
<!-- Generator: Adobe Illustrator 19.2.1, SVG Export Plug-In . SVG Version: 6.00 Build 0)  -->
<svg version="1.1" id="Layer_1" xmlns="http://www.w3.org/2000/svg" xmlns:xlink="http://www.w3.org/1999/xlink" x="0px" y="0px"
	 viewBox="185 166.3 186 200" style="enable-background:new 185 166.3 186 200;" xml:space="preserve">
<style type="text/css">
	.st0{fill:#1976D2;}
</style>
<g id="icon-earache">
	<path class="st0" d="M200.4,366.3c-0.4-2.1-0.7-4.2-1.2-6.3c-0.9-3.9-1.7-7.9-2.8-11.8c-0.5-1.9-1.4-3.6-2-5.5
		c-0.3-0.9-0.2-2-0.4-3c-0.5-2.7-0.9-5.4-1.8-8.1c-1.2-3.5-1.9-7.2-3-10.7c-1.5-4.6-2.8-9.2-3.6-14c-0.7-4.3-1-8.6-0.2-13
		c0.3-1.6,0.3-3.3,0.8-4.9c0.8-2.7,2.3-5,4.2-7c1.7-1.8,3.4-3.5,5.8-4.3c3.5-1.1,7-2.2,10.7-1.8c1.8,0.2,3.6,0.6,5.4,1
		c2,0.5,4,1.2,6,1.5c0.9,0.2,2-0.1,3-0.4c3.1-1,6.3-2,9.4-3.2c2.7-1,5.5-2,8.1-3.3c3.1-1.6,6.1-3.5,9-5.5c2.3-1.6,4.5-3.4,6.7-5.2
		c1.2-1,2.1-2.3,2.3-4.1c0.3-3,0.9-6,1.4-8.9c0.1-0.5,0.4-1,0.6-1.5c0.8-2.1,1-4.3,0.5-6.4c-0.8-4.2-0.9-8.3-0.9-12.6
		c0-4.7-0.1-9.5-0.1-14.2c0-2.2,0.8-4.2,2.7-5.6c0.3-0.2,0.5-0.5,0.8-0.7c2.8-2.5,4.8-5.6,6.7-8.8c1.8-3,3.9-5.7,6.3-8.3
		c1.3-1.3,2.3-3,3.4-4.5c1.1-1.5,2.1-3.1,3.1-4.6c0.8-1.2,1.8-2.4,2.5-3.7c1.6-2.7,4.4-2.5,6.7-1.6c1,0.4,1.5,1.4,1.6,2.4
		c0.1,0.3,0.1,0.6,0.1,1.2c0.3-0.4,0.5-0.7,0.7-0.9c3-3.6,6.4-6.7,10.7-8.7c4-1.8,8.1-2.8,12.5-2.9c2.4,0,4.9-0.2,7.3-0.1
		c1.7,0.1,3.5,0.3,5.2,0.7c4.1,1,8.3,2.2,12,4.3c2.6,1.5,5.3,3.1,7.7,5c3.1,2.3,6,4.8,8.8,7.4c2,1.8,3.8,3.9,5.5,5.9
		c0.9,1,1.7,2.2,2.2,3.5c0.5,1.4,1.5,2.7,2.4,3.9c2.7,3.6,3.9,7.6,3.6,12.1c-0.1,1.2-0.3,2.5-0.7,3.6c-0.9,2.4-2.1,4.7-4,6.6
		c-2.4,2.3-4.3,4.9-5.6,8c-1.1,2.6-2.6,5.1-3.9,7.6c-1.2,2.4-2.5,4.7-3.7,7c-0.3,0.6-0.5,1.2-0.6,1.8c-0.2,3.1-2.4,5.2-4,7.6
		c-1,1.4-1.8,2.8-2.1,4.4c-0.5,2.9-2.1,5.3-4.1,7.4c-1.2,1.3-2.4,2.6-3.6,3.9c-1.7,1.9-3.2,3.9-5.2,5.6c-2.7,2.3-5.7,4.3-8.6,6.4
		c-1.8,1.3-3.6,2.5-5.4,3.7c-1.4,1-2.8,2-4.3,3c2,0.2,4.1,0.5,6.2,0.5c3.1,0.1,5.8,1,8.4,2.7c1.8,1.2,3.9,2,5.9,3
		c0.2,0.1,0.4,0.1,0.5,0.2c4.6,1.4,7.8,4.5,9.7,8.7c1.2,2.7,1.9,5.7,2.7,8.6c1.2,4.4,0.9,9,1.2,13.6c0.2,2.7,0.6,5.5,0.7,8.2
		c0.2,2.8,0.2,5.7,0.2,8.5c0,3.5-0.1,6.9,0,10.4c0.1,2.2,0.4,4.3,0.7,6.5c0.2,1.7,0.4,3.4,0.7,5.1c0.2,1.1,0.7,2.1,1.1,3.2
		c0.2,0.4,0.3,0.9,0.4,1.3c-0.5,0-1,0-1.6,0c-1.1-2.1-1.6-4.3-1.8-6.6c-0.2-2.4-0.7-4.9-0.9-7.3c-0.1-1.8,0-3.6,0-5.4
		c-0.1-4.4-0.1-8.7-0.2-13.1c0-0.5,0-1,0-1.6c-0.3-3.4-0.7-6.8-0.9-10.2c-0.2-2.4-0.1-4.7-0.3-7.1c-0.1-1.1-0.2-2.3-0.5-3.4
		c-0.7-2.8-1.5-5.7-2.4-8.4c-1.4-4.2-4-7.3-8.2-9c-3.3-1.3-6.5-2.7-9.4-4.7c-2-1.4-4.4-1.6-6.7-1.5c0.7,1.1,1.5,2,2.2,3.1
		c2.1,3.7,4,7.6,6.2,11.3c2.4,4.1,4.2,8.4,5.3,13c1.3,5.3,2.7,10.5,4.7,15.5c0.3,0.8,0.5,1.8,0.5,2.7c0.1,4.5,0.2,9,1.6,13.4
		c1,3.1,2.1,6.2,3.1,9.4c1,3.2,2,6.5,2,9.9c-0.5,0-1,0-1.6,0c-0.1-1.5-0.1-3-0.5-4.4c-1.1-4.1-2.4-8.2-3.8-12.3
		c-0.9-2.6-1.7-5.3-2-8c-0.2-2.5-0.2-5.1-0.3-7.6c0-2.3-1.3-4.2-2-6.4c-0.2,0.3-0.2,0.6-0.3,0.9c-0.3,1.3-0.3,2.7-0.9,3.7
		c-1.3,2.1-2.7,4.2-4.4,5.9c-2.5,2.5-5.5,4.4-8.7,5.9c-2.7,1.2-5.6,2.1-8.6,1.8c-1-0.1-2.1,0.1-3.2,0.3c-2.8,0.5-5.5,0.6-8.3,0.2
		c-1.7-0.2-3.4-0.5-5.1-0.6c-2.9-0.1-5.8-0.2-8.7-0.2c-0.4,0-0.9,0.2-1.2,0.5c-2.1,2.3-4.9,3.3-7.7,4c-1.9,0.5-4.1,0.1-6.1-0.2
		c-2.4-0.3-4.8-0.9-7.2-1.4c-1.7-0.3-3.3-0.6-5-0.8c-2.3-0.3-4.5-0.4-6.8-0.7c-3.9-0.5-7.7-1.2-11.6-1.7c-4.5-0.5-9.1-0.9-13.6-1.4
		c-0.4,0-0.9-0.2-1.2,0c-1,0.5-1.9,1-2.8,1.6c-4,2.5-7.9,5-11.9,7.4c-0.7,0.5-0.9,0.9-0.7,1.7c0.6,3.3,1.2,6.6,1.7,9.8
		c0.1,0.6,0.1,1.2,0.2,1.8c-0.5,0-1,0-1.6,0c0-0.5,0-0.9,0-1.4c-0.4-2.5-0.9-4.9-1.3-7.4c-0.2-1.1-0.4-2.2-0.6-3.4
		c-3,0.4-5.4,0.4-8.4-1c-0.9-0.4-1.9-0.7-2.9-1.1c0,0.4,0,0.7,0,0.9c0.4,2,0.8,4,1.3,5.9c0.5,2.5,1,4.9,1.5,7.4
		C201.5,366.3,201,366.3,200.4,366.3z M252.3,306.1c-0.2-0.1-0.3-0.2-0.5-0.2c-2.8-0.9-5.6-1.8-8.4-2.8c-3.3-1.3-5.9-3.3-7.1-6.9
		c-0.5-1.5-1.2-2.9-1.7-4.4c-0.7-2.2-2.1-3.9-3.9-5.1c-4.2-2.7-8.6-5.3-13.5-6.7c-2.8-0.8-5.7-1.4-8.6-2c-2.3-0.5-4.6-0.5-6.9,0
		c-1.4,0.3-2.8,0.9-4.2,1.4c-0.9,0.3-1.9,0.5-2.6,1c-3.5,2.3-5.9,5.5-7.2,9.5c-0.4,1.3-0.3,2.7-0.6,4c-1.1,4.5-0.6,9,0.2,13.4
		c0.8,4.5,2.3,9,3.6,13.4c1,3.7,2,7.4,3.2,11c0.6,2.1,1.3,4.1,1.4,6.3c0.1,1.3,0.4,2.7,0.8,4c0.2,0.6,0.9,1.2,1.5,1.5
		c0.9,0.5,1.8,0.8,2.8,1.1c1.8,0.6,3.6,1.3,5.6,1c1.1-0.2,2.2-0.5,3.3-0.7c3.3-0.5,5.8-2.6,8.7-4.4c-1.9-0.8-3.5-1.5-5.1-2.3
		c-6.1-3-11.9-6.5-17.2-10.6c-0.3-0.2-0.7-0.4-0.9-0.8c-0.1-0.3,0-0.8,0-1.1c0.4,0,0.8-0.1,1.1,0.1c1,0.6,2,1.3,2.9,2.1
		c2.8,2.4,6,4.2,9.2,5.9c5,2.7,10.1,5.1,15.5,7.1c3.3,1.2,6.7,1.8,10.2,2.1c4.8,0.4,9.5,0.9,14.3,1.4c3.5,0.4,7,1.2,10.5,1.5
		c4.5,0.4,8.9,1.2,13.3,2.1c1.4,0.3,2.9,0.6,4.3,0.8c2.6,0.4,4.7-1,7-1.9c1.7-0.7,2.9-2.2,4-3.6c0.9-1.1,2-2,2.2-3.5
		c0.1-0.6,0.5-1.2,0.8-1.7c0.3-0.5,0.6-0.9,0.8-1.4c0.2-0.6,0.3-1.3,0.4-1.9c0.4-2.5,0.9-4.9,1-7.4c0.2-3.5,0-7,0.1-10.5
		c0.1-4.3-0.1-8.5-0.6-12.8c-0.2-2-0.6-3.9-0.6-5.9c0-5.9-0.3-11.8-1.2-17.7c-0.3-2.2-0.6-4.4-0.9-6.6c-0.4-3.3-0.8-6.6-1.3-9.9
		c-0.3-2-0.6-4.1-1.2-6.1c-1.1-3.4-2.1-6.7-2.3-10.2c0-0.7-0.3-1.4-0.4-2.3c-1.2,0.7-2.3,1.3-3.4,1.8c-0.3,0.2-0.7,0.3-1.1,0.3
		c-0.1,0-0.4-0.5-0.3-0.7c0.1-0.3,0.3-0.8,0.6-0.9c1.5-0.7,3-1.3,4.5-2c0.2-0.1,0.4-0.2,0.5-0.4c1.2-1.9,2.1-3.9,2.6-6.2
		c0.6-3.1,1.1-6.2,1.7-9.3c0.8-4.1,1.6-8.1,1.5-12.3c-0.1-2.7-0.2-5.5-0.2-8.2c0-3.1,0-6.2,0.2-9.3c0.2-3.1,0.7-6.1,1.1-9.2
		c0.2-1.5,0.8-3,0.3-4.6c-1.8,1.6-3.4,3.6-6.3,3.2c-0.8,2.7-1.6,5.4-2.5,8.1c0.7,0.1,1.2,0.1,1.7,0.3c0.3,0.1,0.5,0.4,0.7,0.6
		c-0.3,0.2-0.5,0.5-0.9,0.6c-0.4,0.1-0.8-0.1-1.3-0.1c-0.5-0.1-0.8,0-0.9,0.6c-0.1,0.9-0.3,1.8-0.3,2.7c-0.2,3.6-0.6,7.1-1.6,10.6
		c-0.1,0.3-0.5,0.6-0.8,0.9c-0.1-0.4-0.4-0.8-0.4-1.1c0.7-2.5,1.2-5,1.2-7.6c0.1-3.6,0.7-7.1,2.1-10.5c0.1-0.2,0.1-0.5,0.2-0.8
		c1-3.4,2-6.8,2.9-10c-0.3-0.4-0.6-0.9-0.8-1.2c-1.7,3.8-3.3,7.6-5,11.4c0.2,0.1,0.4,0.1,0.6,0.2c0.2,0.1,0.5,0.5,0.4,0.5
		c-0.2,0.2-0.6,0.7-0.7,0.6c-0.9-0.4-1.2,0.2-1.5,0.9c-0.7,1.3-1.3,2.7-2,4c-1.2,2.4-2.3,4.7-3.5,7.1c-0.6,1.2-1,2.5-1.4,3.7
		c-0.2,0.5-0.2,1-0.4,1.4c-0.1,0.2-0.5,0.4-0.7,0.6c-0.1-0.3-0.4-0.6-0.4-0.9c0.5-2.2,0.9-4.5,2.4-6.3c0.3-0.4,0.5-0.9,0.7-1.4
		c1-2.3,2-4.6,3.1-6.8c0.7-1.5,1.7-2.8,2.4-4.2c1-2.1,1.9-4.2,2.7-6.3c0.6-1.3,1.1-2.7,1.6-4c-0.1-0.1-0.2-0.1-0.3-0.2
		c-2,3.1-4.1,6.1-6,9.1c0.2,0.4,0.6,0.7,0.6,1c-0.2,0.6-0.7,0.6-1.2,0.4c-0.3-0.1-0.7,0.1-1,0.3c-1.7,1.6-2.5,3.7-2.9,5.9
		c-0.5,2.5-1.2,4.8-2.8,6.8c-2.4,3.1-4.6,6.3-5.2,10.4c0,0.2-0.4,0.4-0.6,0.6c-0.2-0.3-0.5-0.6-0.5-0.8c0.3-1.4,0.4-2.9,1.1-4.1
		c1.4-2.6,3.2-5.1,4.8-7.7c1.1-1.7,1.7-3.5,1.8-5.6c-0.9,1.1-1.7,2.3-2.4,3.5c-1.6,3-3.8,5.6-6.4,7.7c-1.7,1.4-2.5,3-2.5,5.1
		c0,5.9,0,11.9,0,17.8c0,1.4,0.2,2.8,0.3,4.3c0.2,2.1,0.4,4.2,0.6,6.4c0,0.2,0.1,0.4,0.1,0.9c1.4-1.5,2.6-2.9,3.9-4.2
		c0.3-0.3,0.6-0.7,1-0.9c0.2-0.1,0.6,0,0.8,0.2c0.1,0.2,0.1,0.6-0.1,0.8c-1.1,1.2-2.2,2.5-3.4,3.6c-1.9,1.7-2.9,4-3.7,6.3
		c-0.9,2.6-1,5.3-0.9,8c0,3,0.1,6,0.1,9c0.1,4.6,0.3,9.2,0.1,13.9c-0.1,3.1-0.8,6.1-1.3,9.2c-0.3,2-0.8,3.9-1.2,5.9
		c-0.5,2.6-0.7,5.3-1.4,7.9c-0.6,2.6-1.7,5-2.4,7.6c-0.5,1.8-0.5,3.7,0.2,5.4c0.5,1.1,0.5,1.1-0.6,2
		C249.7,313.8,251,310,252.3,306.1z M350.8,243.9c0-0.1,0.1-0.2,0.1-0.3c0.2-0.6,0.4-1.3,0.7-1.9c1.3-2.5,2.6-4.9,3.9-7.4
		c1-1.9,2.1-3.9,3.1-5.8c1.3-2.5,0.4-5.8-2.9-7c-2.6-0.9-4.7-2.7-5.7-5.4c-0.8-2.2-2.4-3.6-4.8-4.1c-2.6-0.6-4.6-2.1-5.1-5
		c-0.2-1-0.5-1.9-0.6-2.9c-0.4-2.3-0.7-4.6-1.1-6.9c-0.2-1.5-0.2-3.1-0.6-4.5c-0.6-1.8-0.4-3.6-0.7-5.4c-0.1-0.5,0.2-1,0.3-1.6
		c0-0.4,0-0.9-0.2-1c-0.3-0.3-0.8-0.4-1.2-0.4c-0.2,0-0.5,0.5-0.5,0.8c0,2.3,0.1,4.7,0.2,7c0,0.6,0.5,1.2,0.5,1.8
		c0.4,2.8,0.7,5.7,1.1,8.6c0.2,1.7,0.4,3.5,0.5,5.2c0.1,0.7-0.3,1.2-1,1.2c-1.3,0-2.7,0.1-4-0.1c-1-0.2-2-0.8-3-1
		c-1.3-0.2-2.6-0.2-3.9-0.2c-2.5,0-5-0.3-7.5,0.1c-2.7,0.4-5.3,1.1-7.8,2c-2.3,0.9-4.4,2.2-6.5,3.5c-1.4,0.8-2.8,1.6-4,2.6
		c-2.3,2-4.6,3.9-7.4,5.3c-0.4,0.2-0.8,0.6-0.8,1c-0.6,3.8-1.4,7.5-1.8,11.3c-0.4,3.7-1.5,7.1-3.5,10.2c-0.8,1.3-1,2.5-0.9,4
		c0.4,3.7,1.3,7.3,2.6,10.8c0.2,0.5,0.3,1,0.4,1.5c0.7,5.2,1.4,10.3,2,15.5c0.3,2.1,0.5,4.2,2.2,5.8c2.1,2,3.9,4.3,6.4,5.8
		c1.5,0.9,2.9,1.6,4.7,1.8c2.9,0.3,5.2-1.3,7.5-2.5c1.8-0.9,3.5-2.2,5.2-3.3c1.3-0.8,2.7-1.6,4-2.5c2.8-1.9,5.6-3.9,8.3-6
		c2.4-1.9,4.6-3.9,6.7-6.1c2.2-2.2,4.1-4.7,6.2-7c1.3-1.5,2.3-3.1,2.8-5c0.4-1.7,0.8-3.5,1.9-4.9c1.2-1.6,2.3-3.3,3.5-5
		c-0.4-0.2-0.7-0.3-1-0.4c-1.7-0.4-3.4-0.7-5-1.1c-1.9-0.5-3.8-1-5.9-0.7c-0.4,0.1-0.9,0.3-1.3,0.4c2.7,1,5.1,2.5,7.2,4.1
		c0.3,0.2,0.4,0.7,0.6,1c-0.1,0.1-0.2,0.2-0.3,0.3c-2.6-1.6-5.1-3.5-8.3-4c1.7,1.9,3.3,3.9,6,4.3c0.6,0.1,1.1,0.4,1.7,0.7
		c0.1,0.1,0.3,0.3,0.3,0.4c0,0.2-0.2,0.4-0.4,0.5c-0.2,0.1-0.5,0.1-0.8,0c-2.4-0.3-4.4-1.4-6.1-3.1c-0.7-0.7-1.3-1.3-2.1-2.2
		c-0.6,2-1.2,3.7-1.5,5.5c-0.4,2.6-0.5,5.2-0.6,7.8c-0.1,1.7-1.2,3.1-2.7,3.3c-2,0.2-3.9,0-5.4-1.5c-0.5-0.5-1-0.9-1.4-1.5
		c-1.1-1.5-2.6-2.4-4.3-2.9c-1-0.3-1.4-1-1.5-1.9c-0.2-1.7,0.3-3.2,1.1-4.6c0.7-1.2,2.1-1.7,3.5-1.4c1.5,0.3,1.7,1.6,2.4,2.6
		c0.1,0.2,0,0.7-0.2,0.8c-0.4,0.4-0.7,0.1-0.9-0.3c-0.3-0.5-0.6-1.1-1-1.5c-0.9-1.1-2.1-1-2.8,0.2c-0.5,0.9-0.7,1.9-0.9,2.8
		c-0.3,1.6,0.2,2.3,1.7,2.7c0.7,0.2,1.4,0.5,1.9,0.9c1.2,1,2.2,2.2,3.3,3.3c1.4,1.3,3,1.5,4.8,1c0.4-0.1,0.9-0.5,1-0.9
		c0.3-0.6,0.4-1.2,0.4-1.9c0-4.1,0.5-8.2,2-12c1-2.5,2.7-4.5,5.8-4.2c0.4,0,0.9-0.1,1.3-0.3c1.3-0.5,2.6-0.4,4,0
		C346.8,243.1,348.8,243.5,350.8,243.9z M292.2,337.9c0.7,0.2,1.2,0.3,1.8,0.4c1.8,0.3,3.6,0.5,5.5,0.7c2.5,0.3,5.1,0.8,7.6,0.8
		c3.2-0.1,6.5-0.8,9.7-1.2c1.1-0.2,2.3-0.3,3.4-0.8c3-1.3,5.6-3.4,7.5-6c1.4-2,1.4-4.3,1.1-6.6c-0.4-3.4-1-6.8-1.7-10.1
		c-0.6-3.1-1.2-6.3-3-9c-1.6-2.4-3.2-4.9-4.9-7.2c-1.2-1.7-2.5-3.3-3.8-4.8c-1.3-1.5-2.9-2.9-4.2-4.5c-0.8-1-1.3-0.9-2.3-0.4
		c-2.9,1.5-5.8,1.4-8.7,0c-2.2-1.1-4.3-2.5-6-4.4c-0.7-0.8-1.4-1.5-2.1-2.3c-0.1,0.1-0.2,0.1-0.3,0.2c0,0.4,0,0.9,0,1.3
		c0.2,2.1,0.4,4.3,0.5,6.4c0.1,2.8,0.1,5.6,0.2,8.4c0.1,1.4,0.2,2.8,0.4,4.2c0.2,1.6,0.6,3.1,0.6,4.7c0.1,6.2,0.2,12.3,0.2,18.5
		c0,2.2-0.4,4.3-0.7,6.5C292.9,334.4,292.5,336.1,292.2,337.9z M221.7,279.7c0,0.1,0,0.2,0,0.2c0.5,0.2,1,0.3,1.4,0.6
		c2.7,1.5,5.4,2.9,7.9,4.5c2.2,1.4,4,3.2,4.9,5.7c0.6,1.6,1.4,3.2,1.9,4.9c1,3,3,4.9,5.8,6c2.6,1,5.3,1.9,8,2.8
		c1.3,0.4,1.4,0.4,1.7-0.9c0.6-2.5,1.1-5,1.5-7.5c0.6-3.5,1.1-7.1,1.6-10.7c0.3-2,0.8-4.1,0.8-6.1c0-6.1-0.1-12.1-0.2-18.2
		c0-0.1-0.1-0.2-0.1-0.1c-1.2,1.1-2.2,2.2-3.5,3.1c-2.5,1.9-5,3.7-7.5,5.5c-4.3,3-9.1,5.2-14,6.9c-1.5,0.6-3.1,0.8-4.7,1.3
		C225.4,278.3,223.5,279,221.7,279.7z M311.8,287.9c0.2,0.2,0.4,0.4,0.6,0.6c1.8,1.9,3.8,3.7,5.5,5.8c2.4,3.1,4.7,6.4,6.8,9.7
		c1.1,1.8,2.1,3.8,2.7,5.8c0.9,2.9,1.3,5.9,2,8.8c0.7,3.1,1.1,6.3,0.9,9.5c-0.1,1.8-0.3,3.5-1.6,4.9c-0.6,0.6-1.2,1.3-1.8,1.9
		c-2.5,2.4-5.2,4.4-8.7,4.9c-0.8,0.1-1.5,0.2-2.3,0.3c-2,0.3-3.9,0.9-5.9,1c-4.5,0.4-9-0.5-13.4-1c-1.7-0.2-3.4-0.5-4.8-0.7
		c-1,1.6-1.9,3-2.8,4.4c1.7,0.1,3.5,0.1,5.2,0.3c2.5,0.2,4.9,0.5,7.3,0.7c1.8,0.1,3.6,0.3,5.3,0.2c2.7-0.2,5.4-0.8,8.1-0.7
		c1.1,0,2.2-0.1,3.2-0.5c6.2-2,11.3-5.5,14.9-11c1.1-1.6,1.3-3.3,1.6-5.1c0.2-1.5,0.5-3,0.3-4.4c-0.2-1.8-0.7-3.6-1.3-5.4
		c-0.9-3.1-1.5-6.3-2.9-9.1c-2.8-5.7-5.9-11.3-9-16.8c-0.6-1-1.5-1.9-2.3-2.8c-0.2-0.2-0.6-0.5-0.6-0.7c0-0.9-0.7-0.8-1.2-0.9
		c-1-0.2-2.1-0.1-3-0.5C313.3,286.6,312.6,287.1,311.8,287.9z M209.7,346.4c-4.5,1.6-8.5,0.3-12.5-1.5c0,0.2-0.1,0.3,0,0.4
		c0.5,1.5,0.9,3,1.5,4.5c0.1,0.3,0.5,0.6,0.8,0.7c1.7,0.7,3.4,1.3,5.2,1.8c1.6,0.5,3.3,0.8,5.1,0.4c0.2-0.1,0.6-0.5,0.6-0.7
		C210.1,350.3,209.9,348.5,209.7,346.4z M211.7,352c4.6-3,9.1-5.8,13.8-8.8c-1.7-0.6-3.2-1.2-4.7-1.8c-0.1-0.1-0.3,0-0.5,0
		c-0.7,0.3-1.3,0.5-1.9,0.8c-2.3,1.2-4.5,2.5-6.7,3.8c-0.2,0.1-0.4,0.5-0.4,0.7C211.4,348.5,211.5,350.1,211.7,352z M290.6,178.8
		c0.1-1.6-0.6-2.3-2.3-2.4c-0.3,0-0.6,0-0.9,0c-1-0.2-1.8,0.9-2.1,2.1c-0.2,0.7,0.7,2,1.5,2.2c0.2,0.1,0.5,0,0.7-0.1
		c0.7-0.2,1.3-0.6,2-0.7C290.2,179.8,290.6,179.5,290.6,178.8z M289.5,181.2c-0.1,0-0.1,0-0.2,0c-1.7,0.1-3.7,3.3-3.1,4.9
		c0.2,0.6,0.9,0.8,1.3,0.4c1.2-1,2.3-2,3.3-3.2C291.6,182.3,290.9,181.2,289.5,181.2z"/>
	<path class="st0" d="M314.1,279.8c-2.9,0.3-5-1.2-6.4-3.7c-2-3.4-3.1-7.1-3.2-11.1c-0.1-1.7,1-2.6,2.7-2.9
		c4.5-0.9,8.5,0.8,12.5,2.5c1,0.4,1.9,0.9,2.8,1.4c0.2,0.1,0.5,0.2,0.7,0.3c2.7,0.4,3.6,3.5,2.1,5.3c-0.6,0.7-1.3,1.2-2,1.7
		c-1.1,1-2.2,1.9-2.9,3.3C319.3,278.7,317.8,280,314.1,279.8z M305.5,265.3c-0.1,0-0.1,0-0.2,0.1c0,0.3,0,0.7,0.1,1
		c0.7,2.6,1.5,5.1,2.3,7.7c0.6,2,1.9,3.5,3.8,4.4c1.3,0.7,2.7,0.5,4,0.5c1.5,0,2.8-0.6,3.6-1.9c0.8-1.2,1.6-2.5,2.5-3.9
		c-0.7,0.2-1.2,0.5-1.8,0.6c-0.9,0.2-1.9,0.4-2.8,0.4c-0.7,0-1.5-0.1-2.2-0.3c-0.7-0.2-1.5-0.4-2-0.9c-2-1.8-3.9-3.7-5.8-5.7
		C306.5,266.8,306,266,305.5,265.3z M307.1,265c0.1,0.4,0,0.8,0.2,1c1.9,2.1,3.9,4.1,5.8,6.2c0.1,0.2,0.4,0.2,0.6,0.3
		c2.5,1.2,5,0.9,7.4-0.2c1-0.5,1.2-0.8,0.3-1.5c-1.1-0.9-2.4-1.8-3.7-2.5c-1.9-1-4-1.7-6-2.5C310.4,265.3,308.9,264.8,307.1,265z
		 M306.9,263.5c0,0.1,0,0.2,0,0.3c0.3,0.1,0.6,0.2,0.9,0.2c1.4,0.3,2.8,0.6,4.2,0.9c0.6,0.1,1.1,0.5,1.7,0.7
		c3.7,1.4,7.6,2.6,9.9,6.3c2.1-1.4,2-3-0.1-4.3c-2.7-1.8-5.8-2.8-8.8-4c-2.2-0.9-4.5-0.8-6.7-0.4
		C307.6,263.2,307.2,263.4,306.9,263.5z"/>
	<path class="st0" d="M311.9,223.5c4.1,0.9,8.4,1.4,11.6,4.8c1.9,2.1,4.2,3.9,6.2,5.8c0.6,0.6,1.2,1.2,0.7,2.1
		c-0.2,0.4-1.7,0.4-2.3-0.2c-1.2-1.2-2.4-2.4-3.5-3.8c-0.7-0.8-1-1.9-1.7-2.7c-1.4-1.5-2.9-2.9-5-3.4c-1.8-0.4-3.5-0.9-5.3-1.3
		c-0.5-0.1-1,0-1.5-0.1c-0.3-0.1-0.6-0.3-0.9-0.5c0.2-0.3,0.4-0.7,0.7-0.8C311.2,223.5,311.6,223.5,311.9,223.5z"/>
	<path class="st0" d="M326.1,238.8c-0.3,0.1-0.5,0.3-0.8,0.4c-2.5,0.6-4.9,0.2-7-1.4c-2.6-2-5.2-4-7.8-6c-0.4-0.3-0.7-0.6-0.9-1
		c-0.2-0.2-0.1-0.6-0.2-0.8c0.4,0,0.8-0.2,1.1,0c1.1,0.7,2.3,1.4,3.3,2.1c0.6,0.4,1.3,0.9,1.7,1.6c2.2,3,5.2,4.4,8.8,4.4
		c0.6,0,1.2,0.2,1.7,0.4C326.1,238.6,326.1,238.7,326.1,238.8z"/>
</g>
</svg>
