<?xml version="1.0" encoding="utf-8"?>
<!-- Generator: Adobe Illustrator 19.2.1, SVG Export Plug-In . SVG Version: 6.00 Build 0)  -->
<svg version="1.1" id="Layer_1" xmlns="http://www.w3.org/2000/svg" xmlns:xlink="http://www.w3.org/1999/xlink" x="0px" y="0px"
	 viewBox="0 0 172.5 157" style="enable-background:new 0 0 172.5 157;" xml:space="preserve">
<style type="text/css">
	.st0{fill:#3F51B5;}
</style>
<g id="icon-dandruff-woman">
	<path class="st0" d="M172.1,132.1c0-0.1-0.1-0.2-0.1-0.3c-0.7-2.5-1.5-4.9-2.1-7.4c-0.9-3.5-2.7-6.4-4.7-9.4
		c-2.4-3.5-5-6.9-8.7-9.1c-2.7-1.6-5.4-3-8.2-4.4c-2.5-1.3-5-2.5-7.6-3.8c-2.5-1.2-5-2.5-7.5-3.6c-1.4-0.6-2-1.8-2.3-3.2
		c-0.9-3.5-1.2-7.2-2.5-10.7c-0.9-2.6-1.5-5.4-2.2-8.1c-0.5-1.8-1-3.6-1.3-5.4c-0.5-2.6-0.7-5.3-1.6-7.7c-1.9-5.2-4.2-10.3-6.5-15.4
		c-1.4-3.1-2.8-6.2-4.3-9.2c-1.4-2.8-2.6-5.6-4.6-8.1c-1.9-2.3-3.6-4.7-5.4-7c-1.1-1.5-2.2-3-3.8-4.1c-1.5-0.9-2.9-2.1-4.3-3.1
		c-3.2-2.2-6-5.2-9.6-6.9c-3.2-1.5-6.1-3.5-9.6-4.4C71.7,0,68.3-0.3,64.8,0.5c-2.5,0.6-4.9,1.5-7.4,2.1c-1,0.2-2.2,0.3-3.1-0.1
		c-3.1-1.6-6.4-2.2-9.9-2.2c-4,0-7.5,1.3-10.2,4.4c-1,1.2-2,2.5-2.5,3.9c-1.1,3.3-1.5,6.7-1.4,10.2c0,1.1-0.5,1.9-1.3,2.4
		c-2.3,1.6-4.7,3.1-7,4.6c-1.4,0.9-2.5,2.1-2.4,3.8c0.2,4.2-1,8.3-1.7,12.4c-0.5,3-1.2,6-1.6,9.1c-0.3,2.9-0.3,5.8-0.4,8.6
		c-0.1,1.6-0.3,3.2-0.5,4.7c-0.2,1.5-0.5,2.9-0.8,4.4c-0.4,2.2-0.6,4.4-1.1,6.6c-0.7,3.6-2.9,6.4-4.7,9.5c-1.8,3-3.9,5.9-5.7,8.9
		c-1.1,1.8-1.8,3.8-2.8,5.6c-0.2,0.3-0.3,0.6-0.5,1v3c0.6-1.1,1.2-2.2,1.7-3.3c1.9-4.3,4.4-8.3,6.8-12.2c1.7-2.7,3.5-5.4,5-8.2
		c1-1.9,1.5-4,1.9-6c0.6-2.9,1.1-5.9,1.5-8.8c0.2-1.4,0.3-2.7,0.4-4.1c0.1-1.7,0.1-3.4,0.2-5.1c0.3-4.5,0.7-8.9,1.8-13.2
		c0.8-3.3,1.3-6.7,1.8-10.1c0.1-0.7,0.1-1.5,0-2.2c-0.2-1.5,0.8-2.3,1.8-3.1c2.5-1.7,5.1-3.5,7.6-5.2c0.7-0.5,1.6-0.9,2.4-1.3
		c0.4,1.3,0.3,1.9-0.8,2.7c-1.9,1.4-3.7,2.8-5.6,4.2c-0.4,0.3-1,0.5-1.4,0.7c-1.5,0.8-1.8,2.2-2.1,3.7c-0.4,2.1-0.9,4.3-1.2,6.4
		c-0.1,0.3,0.2,0.7,0.3,1c0.2-0.3,0.6-0.5,0.7-0.8c0.6-2.5,1.1-5.1,1.6-7.6c0.2-0.8,0.7-1.2,1.4-1.7C27.5,28,29,27,30.4,26
		c1.2-0.9,2.3-1.8,3.5-2.7c0.3-0.2,0.7-0.3,1-0.4c0.2,1.3,0.4,2.5,0.6,3.7c0,0.3-0.1,0.8-0.4,1c-2.4,1.4-4.2,3.4-6.1,5.3
		c-0.1,0.1-0.1,0.1-0.3,0.2c-0.4-0.2-0.9-0.5-1.4-0.7c-0.8,0.9,0.4,1.1,0.7,1.8c-1.7,2.2-2.3,4.9-2.7,7.6c-0.2,1.1-0.8,2.2-1.1,3.3
		c-0.6,2-1,4.1-1.6,6.1c-0.4,1.4-1,2.8-1.4,4.2c-0.1,0.3-0.1,0.7,0,1c0,0.1,0.5,0.2,0.6,0.2c0.2-0.1,0.4-0.4,0.4-0.7
		c0.9-3,1.7-6.1,2.5-9.1c0.3-0.9,0.7-1.8,0.9-2.7c0.5-2,0.9-4,1.4-6c0.3-0.9,0.6-1.9,1.3-2.6c1.6-1.7,3.3-3.3,5-4.8
		c0.8-0.7,1.7-1.3,2.6-1.8c0.7-0.4,1.5-0.6,2.4-0.9c-0.1,1.6-0.2,3-0.3,4.4c0,0.2-0.2,0.5-0.3,0.6c-1.8,1-2.4,2.8-3.6,4.3
		c-0.6,0.8-1.2,1.7-2.3,1.8c-0.2,0-0.4,0-0.5,0.1c-0.3,0.2-0.7,0.4-1,0.5c0.3,0.2,0.7,0.6,0.9,0.6c0.9-0.2,1,0.1,0.8,0.9
		c-0.3,1.3-0.4,2.7-0.6,4.1c-0.1,0.3-0.4,0.6-0.6,0.7c-0.2,0.2-0.6,0.2-0.9,0.3c-0.3,0.2-0.7,0.7-0.6,0.9c0.1,0.6,0.6,0.4,1,0.2
		c1.1-0.6,1.3-0.4,1.5,0.8c0.5,3.5-0.2,6.9-0.4,10.4c-0.1,2-0.2,4-0.4,6.1c-0.2,2.3-0.6,4.7-0.9,7c-0.2,1.4-0.5,2.9-0.4,4.3
		c0.1,1.8-0.9,3.1-1.8,4.4c-1.3,1.8-2.6,3.6-3.8,5.5c-0.9,1.5-1.6,3.2-2.3,4.8c-1.1,2.4-2.3,4.8-3.2,7.3c-1.5,4.2-2.7,8.6-4,12.9
		c-1.9,6.2-3.8,12.3-5.5,18.5c-0.8,3-1.3,6-1.9,9c-0.6,2.9-1.2,5.9-1.7,8.8c-0.4,2.2-0.6,4.5-0.8,6.7c-0.1,1.1-0.3,2.1-0.4,3.2h1.4
		c-0.1-2.9,0.7-5.7,1.2-8.5c0.4-2.2,0.7-4.4,1.1-6.7c0.3-2,0.7-4.1,1-6.1c0-0.3,0-0.6,0.2-0.8c0.3-0.5,0.5-1.1,0.9-1.4
		c1.8-1.1,3-2.5,4.1-4.3c1.3-2.1,2.7-4.1,4.1-6.1c1.3-1.9,2.5-3.9,3.9-5.8c0.8-1.1,1.8-2.1,2.8-3.2c0.1,0.1,0.3,0.1,0.4,0.2
		c-0.1,1.2-0.1,2.4-0.3,3.6c-0.3,1.8-0.1,3.6,0,5.4c0.1,2,0.1,4,0,6c0,1.1-0.2,2.1-0.3,3.2c-0.3,2.5-0.7,4.9-0.7,7.4
		c-0.1,4.3,0,8.5,0,12.8c0,1.4,0.1,2.9,0.2,4.3h42.6c0-2.5,0-5,0-7.6c-0.1-4.8-0.2-9.6-0.4-14.4c0-0.6-0.2-1.3-0.3-2.2
		c0.7,0.5,1.1,1.1,1.7,1.3c2.4,1,4.9,2.1,7.4,2.9c1.9,0.6,3.9,0.9,5.9,1.3c0.8,0.2,1.7,0.3,2.6,0.3c2.7,0.2,5.3,0.6,8,0.3
		c2.5-0.2,4.9-1.1,7.4-1.8c3.7-1,7.1-2.7,10.2-4.8c0.2-0.1,0.4-0.2,0.7-0.4c0.4,1.1,0.8,2.1,1.2,3.1c0.8,2.4,1.7,4.9,2.5,7.3
		c0.4,1.4,0.9,2.8,1,4.2c0.2,3.5,0.3,6.9,0.4,10.4h13.6c0.1-2.1,0.2-4.1,0.4-6.2c0.2-2-0.6-4,0.1-6c0.2,0,0.3,0,0.4,0
		c1.6,2.6,3.5,5.1,3.4,8.3c0,1.3-0.4,2.6-0.6,3.8h2.3c-0.4-1.6,0.8-2.5,1.7-3.5c1.3-1.5,2.7-3,4.3-4.3c2.4-2,4.9-4,7.5-5.8
		c4-2.8,8.4-4.9,12.9-6.8c2.6-1.1,5.3-2,8-3c1.1-0.4,1.4-0.1,1.3,1c-0.2,3.7-0.4,7.3-0.8,11c-0.3,3-1,6-1.5,9
		c-0.1,0.8-0.2,1.5-0.2,2.3h2.1c0.1-1.8,0.5-3.5,0.5-5.3c0-2.1,0.5-4.3,0.8-6.4c0.4-2.5,1.3-5,1.2-7.6
		C172.4,135.9,172.2,134,172.1,132.1z M29.2,84.5c-0.7,3.4-1.6,6.8-2.2,10.2c-0.3,1.7-0.3,3.4-0.4,5.1c-0.3,3.1-0.5,6.2-0.8,9.4
		c-0.1,0.8-0.1,1.7-0.2,2.5c0,0.3-0.2,0.7-0.5,0.9c-2.2,1.8-4,3.9-5.5,6.3c-1.7,2.7-3.6,5.3-5.4,7.9c-1,1.5-2.1,3-3.2,4.5
		c-0.1,0.2-0.4,0.3-0.6,0.5l-0.3-0.1c0.3-1,0.5-2,0.8-3c1.2-4,2.4-8,3.6-12c1.1-3.8,2.2-7.7,3.5-11.5c1.1-3.4,2.2-6.8,3.6-10
		c1.8-4,3.3-8.1,6-11.6c0.6-0.8,1.2-1.5,1.8-2.3c0.1,0,0.1,0.1,0.2,0.1C29.5,82.3,29.4,83.4,29.2,84.5z M38.4,16.3
		c-0.3-0.2-0.6-0.5-1-0.9c0.5-0.4,0.8-0.8,1.2-1c0.1,0,0.7,0.6,0.7,0.8C39.1,15.6,38.7,15.9,38.4,16.3z M39.2,42.5
		c-0.7,0.1-1-0.5-0.9-1.2c0-0.6,0.4-1.1,1-1c0.3,0.1,0.6,0.5,1.1,1C39.8,41.8,39.5,42.4,39.2,42.5z M41.1,20.5
		c0.1-0.3,0.5-0.6,0.7-0.9c0.3,0.3,0.6,0.5,1.1,0.9c-0.4,0.5-0.7,1-1,1.1C41.1,21.7,41,21,41.1,20.5z M43.1,36
		C43,36,42.5,35.5,42,35c0.6-0.4,1-0.8,1.4-0.8c0.3,0,0.8,0.7,0.8,0.8C43.9,35.4,43.5,35.8,43.1,36z M43.9,13
		c-0.3-0.4-0.7-0.7-0.8-1.1c-0.1-0.5,0.1-1.1,0.8-1.1c0.4,0,0.7,0.5,1.4,0.9C44.6,12.3,44.3,12.7,43.9,13z M59.1,79.7
		c-1.8-0.2-3.6,0.2-5.3-0.9c-1.9-1.3-2.6-3-2.6-5.2c0-0.9-0.1-1.8,0-2.7c0.1-0.5,0.4-1,0.8-1.2c0.2-0.1,0.9,0.3,1.1,0.6
		c1.6,2,3.2,4.1,4.8,6.2c0.5,0.6,1.2,1,1.7,1.5C60.1,78.5,59.7,79.7,59.1,79.7z M107.8,131.2c-2.8,2.1-6.1,3.2-9.4,4.3
		c-1.7,0.6-3.4,1-5.1,1.5c-0.6,0.2-1.2,0.2-1.8,0.3c-5.4,0.2-10.8-0.5-16-2c-2.5-0.7-5.1-1.4-7.3-3c-0.5-0.4-1-0.8-1.5-1.2
		c-1.2-1.1-1.4-2.9-0.6-4.5c0.7,0.5,1.4,0.9,2,1.4c3.5,2.6,7.6,3.9,11.8,4.8c2,0.4,4.1,0.9,6.2,0.9c2.5,0,5-0.2,7.5-0.6
		c1.1-0.2,2.2-0.9,3.2-1.4c1.6-0.7,3.2-1.5,4.8-2.1c2-0.8,3.9-1.9,5.5-3.3c0.2-0.2,0.4-0.3,0.7-0.5c0.3,1.3,0.8,2.4,0.9,3.6
		C109,130,108.4,130.8,107.8,131.2z M82.7,112.3c-1.1-2.3-2.2-4.6-3.4-6.9c-1-1.8-2-3.4-3.1-5.1c-0.8-1.1-1.7-2.1-2.5-3.3
		c-0.6-1-1.1-2.1-1.6-3.1c-1.3-2.7-2.6-5.4-3.9-8.1c-0.1-0.1-0.3-0.2-0.3-0.4c-0.1-0.3-0.2-0.6-0.3-0.9c0.3,0,0.7-0.1,1-0.1
		c0.2,0,0.5,0.2,0.7,0.3c2.8,2,6,2.5,9.3,3.1c1.9,0.3,3.7,0.7,5.6,1c4,0.5,7.9,0.5,11.7-1c1.4-0.6,2.9-1.1,4.3-1.7
		c0.7-0.3,1.4,0.1,1.4,0.9c0,0.5-0.2,0.9-0.2,1.4c0.1,2.2,0.2,4.3,0.4,6.5c0.3,2.3,0.7,4.7,1.1,7c0.3,1.8,0.8,3.6,1.2,5.4
		c0.3,1.6,0.5,3.3,0.8,5c0.5,2.9,1.1,5.7,1.7,8.6c0.4,1.7-0.4,3.1-1.6,4.1c-1.2,1.1-2.4,2.2-3.9,3c-1.6,0.9-3.4,1.4-5.2,2.1
		c-3.2,1.2-6.5,2.1-10.6,2.1c-2.1,0.2-4.5-0.8-7-1.4c-3.5-0.9-6.6-2.7-9.7-4.5c-1.2-0.7-1.9-1.9-2-3.3c-0.2-2.9,0.8-5.6,1.6-8.3
		c0.7-2.3,1.5-4.5,2.1-6.8c0.4-1.6,0.3-3.4,0.4-5.1c0.1-1.1,0.1-2.3,0.2-3.5c0-0.8,0.7-0.8,1.2-0.9c0.4,0,1,0.1,1.1,0.3
		c2.5,4,4.9,8,7.3,12c0.4,0.6,0.7,1.4,0.9,2.1c0.2,0.6,0.6,0.8,1,0.6C82.6,113.2,82.9,112.6,82.7,112.3z M107.7,73.4
		c-0.9,1.7-1.7,3.5-2.6,5.3c-0.3,0.6-0.5,1.3-0.8,1.9c-1.1,2.3-3.2,3.4-5.3,4.3c-2.3,1-4.8,1.7-7.2,2.6c-0.2,0.1-0.4,0.1-0.7,0.1
		c-4.4,0.2-8.8-0.2-13.1-1.3c-1.7-0.4-3.4-0.8-5.1-1.2c-2.3-0.5-4.3-1.6-6.1-3c-1.8-1.4-3.5-2.9-5.2-4.4c-1.3-1.1-2.5-2.2-3.7-3.3
		c-2.2-2.2-3.5-4.9-4.7-7.7c-0.4-1-0.7-2-1.2-3c-1.2-2.4-1.3-4.9-1-7.5c0.3-2.9,0.5-5.8,0.4-8.7c-0.1-3.5-0.6-7.1-0.7-10.6
		c-0.1-3.6-0.6-7.2,0.7-10.7c0.4-1,0.9-1.9,1.4-2.8c1.6-2.7,3.5-5.1,5.6-7.4c1-1.1,1-3,0.2-4.3c-0.4-0.7-0.8-1.4-1.1-2.1
		c0.1-0.1,0.2-0.1,0.4-0.2c0.5,0.4,1,0.8,1.4,1.2c1.7,1.5,3.7,2.2,6,1.8c1.1-0.2,2.2-0.2,3.4-0.2c2.7-0.2,5.4-0.4,8-0.6
		c1.3-0.1,2.5,0.4,3.3,1.4c1.5,1.6,2.9,3.4,4.4,5c2.1,2.4,4.1,4.8,6.8,6.6c1.7,1.1,3.3,2.5,5.1,3.5c2.2,1.2,3.5,3.3,5.1,5.1
		c0.8,0.9,1,2.3,1.8,3.3c1.3,1.6,1.7,3.4,2.2,5.3c0.5,1.9,1.2,3.7,1.7,5.6c0.4,1.6,0.7,3.2,1.1,4.7c0.2,0.7,0.5,1.4,0.6,2.1
		c0.1,1.1,0.1,2.3,0.2,3.5c0.1,1.4,0.4,2.9,0.3,4.3C109.2,65.7,109.7,69.7,107.7,73.4z M134.2,148.1c-0.1,0-0.2,0-0.2,0
		c-0.5-1.1-1-2.2-1.4-3.2c-0.8-1.9-1.7-3.8-2.4-5.7c-0.3-0.8-0.4-1.6-0.4-2.4c-0.1-3.5,0.2-6.9,0.7-10.3c0.4-2.8,0.5-5.7,0.8-8.6
		c0.3-2.7,0.7-5.4,0.9-8.2c0.2-2.3,0.2-4.6,0.2-6.9c0-1.3-0.2-2.7-0.2-4c0-1,0.1-2,0.1-3.1c2.2,1,4.2,1.9,6.3,2.9
		c2.5,1.2,5,2.4,7.5,3.7c3,1.6,6,3.1,8.9,4.8c1.5,0.9,2.7,2.2,4.1,3.3c2.2,1.9,4,4.2,5.5,6.5c1.8,2.8,3.2,5.9,3.9,9.2
		c0.1,0.5,0.3,1,0.4,1.6c0,0.1,0,0.3,0,0.4c-0.2,0-0.4,0.1-0.6,0.1c-2.9-0.3-5.6,0.6-8.3,1.4c-3.5,1-6.5,3.2-9.7,4.7
		c-2.9,1.4-5.6,3.1-8.1,5.2c-1.4,1.1-2.6,2.5-3.9,3.8c-0.5,0.5-1,1.1-1.4,1.7c0.1-2.2,0.7-4.1,1.8-5.9c1.6-2.6,3-5.4,4.6-8.1
		c0.5-0.8,1.2-1.6,1.8-2.3c0.4-0.4,0.7-0.9,0.3-1.4c-0.4-0.5-1-0.5-1.4,0c-0.8,1.1-1.7,2.2-2.4,3.3c-1.6,2.7-3.1,5.5-4.7,8.1
		c-1,1.5-1.3,3.2-1.8,4.9C134.9,145.2,134.5,146.7,134.2,148.1z M168.8,132.1c-3.1,0.9-6.2,1.6-9.1,3.2c-1.8,1.1-3.8,1.8-5.7,2.7
		c-2.1,1-4.3,2.1-6.3,3.3c-1.1,0.6-2,1.5-3,2.4c-3.1,2.7-6.2,5.5-9.3,8.2c-0.7-1.5-0.1-2.6,0.8-3.7c3.1-3.4,6.9-6,10.2-9.2
		c2.2-2.1,4.9-3.3,7.7-4.3c2.7-1,5.4-2.1,8.2-3.1c1.9-0.7,3.9-1.1,5.8-1.6c0.7-0.2,1.7,0.3,1.8,0.7
		C170,131.5,169.5,131.8,168.8,132.1z"/>
	<path class="st0" d="M96.7,34.7c-0.2,0.3-0.3,0.6-0.5,0.9c-1.1,2.5-3,4.1-5.6,5.2c-2.2,0.9-4.3,1.7-6.7,1.7c-0.3,0-0.5,0.4-0.8,0.5
		c-0.3,0.1-0.7,0.3-1,0.2c-0.2-0.1-0.4-0.6-0.3-0.8c0.7-1.9,1.4-3.9,2.4-5.7c1-1.9,3-2.6,5-3.1c2-0.5,4-0.6,6-0.2
		C95.9,33.5,96.7,33.7,96.7,34.7z M92.1,38.2c1-0.9,1.9-1.7,2.7-2.5c0.4-0.4,0.3-1.1-0.3-1.1c-1.5,0-3.1-0.3-4.9,0.3
		C91.4,35.5,92,36.6,92.1,38.2z M86.4,40.8c0.1-0.1,0.1-0.2,0.2-0.3c-1.4-0.6-1.5-1.7-1.4-3c-0.1,0-0.2,0-0.3,0
		c-0.5,1.1-0.9,2.2-1.4,3.5C84.7,40.9,85.6,40.8,86.4,40.8z M89.5,37.1c-0.6-0.4-0.9-0.7-1.2-0.8c-0.5,0-1,0.3-0.8,0.9
		c0.1,0.3,0.5,0.8,0.7,0.7C88.6,37.9,88.9,37.5,89.5,37.1z"/>
	<path class="st0" d="M61,54.7c-0.9,0-1.9,0.1-2.9,0c-0.3,0-0.6-0.5-0.9-0.7c0.3-0.2,0.5-0.4,0.8-0.6c0.3-0.2,0.6-0.5,0.7-0.8
		c1.5-2.6,3.4-4.8,5.8-6.4c2.1-1.4,4.5-1.8,6.9-0.4c0.7,0.4,1.4,0.7,2.1,1c0.6,0.3,0.6,0.7,0.2,1.1c-2.4,2-4.8,4-7.2,5.9
		C64.8,54.9,62.9,54.8,61,54.7z M65.4,47.1c2.1,0.6,2.6,1.1,2.9,3.7c1.2-1,2.3-2,3.4-2.9C70.7,46.5,67.2,46.1,65.4,47.1z M65,53.1
		c-1.6-0.4-2.9-1.1-2.6-3c-1.2,0.7-2.4,2.5-2.4,3.5C62.5,53.7,64.3,53.6,65,53.1z M65.4,48.8c-0.4,0.4-0.8,0.8-1.2,1.1
		c0.3,0.2,0.8,0.6,1,0.5C65.8,50.1,65.9,49.6,65.4,48.8z"/>
	<path class="st0" d="M100.2,66.3c-1.6,3.4-3.6,6.2-7.2,7.7c-2.7,1.1-5.3,2-8.2,1.8c-0.9-0.1-1.8,0-2.7,0c-0.8,0-1-0.4-0.6-1
		c0.8-1.3,1.7-2.5,2.7-3.6c0.9-1,1.9-2,2.9-2.9c0.3-0.3,0.8-0.4,1.1-0.4c1.2,0,2-0.5,2.8-1.3c0.9-1,2-1.4,3.5-1.2
		c1.6,0.3,3.2,0.3,4.8,0.5C99.6,66,99.9,66.2,100.2,66.3z M83.3,74.9c6,1,13.9-2.2,15.7-7.8c-0.4,0.1-0.8,0.3-1.2,0.4
		c-2,0.6-4,1.2-5.7,2.5c-0.7,0.5-1.5,0.8-2.3,1C87.1,71.4,85.6,73.7,83.3,74.9z M97.5,66.5c0-0.1,0-0.1,0-0.2c-0.9,0-1.8,0.2-2.6,0
		c-1.5-0.4-2.7,0-3.7,1.2c-0.6,0.7-1.4,1.1-2.4,1c-1,0-1.9,0.5-2.6,1.3c-0.8,0.9-1.5,1.9-2.3,2.8c-0.4,0.5-0.7,0.9-1,1.4
		c0.1,0.1,0.1,0.1,0.2,0.2c0.6-0.5,1.2-0.9,1.8-1.4c1.3-1.1,2.5-2.2,4.3-2.5c0.9-0.1,1.7-0.7,2.6-1.2c0.6-0.3,1-0.8,1.6-1
		C94.8,67.5,96.2,67.1,97.5,66.5z"/>
	<path class="st0" d="M80.2,38.1c-1.2,0-1.7-0.9-1.1-1.7c0.7-1,1.6-2,2.6-2.8c3-2.3,6.2-4.3,9.9-5.3c0.7-0.2,1.5-0.3,2.2-0.3
		c0.2,0,0.6,0.4,0.6,0.6c0,0.3-0.3,0.7-0.5,0.7c-1.9,0.3-3.6,1.1-5.1,2.2c-2.1,1.4-4.2,2.9-6.2,4.4c-0.7,0.5-1.1,1.2-1.7,1.8
		C80.6,37.9,80.3,38.1,80.2,38.1z"/>
	<path class="st0" d="M71.7,41.3c-0.1,1.5-1.2,1.3-2.1,1.6c-1.9,0.6-3.8,1-5.7,1.7c-1.8,0.7-3.5,1.6-5.2,2.5c-0.6,0.3-1,0.9-1.6,1.4
		c-0.5,0.4-0.9,0.8-1.5,1.1c-0.2,0.1-0.5,0-0.8,0c0-0.3-0.1-0.7,0.1-0.9c1-1.1,1.9-2.2,3.1-3c3.2-2.4,7-3.6,10.8-4.7
		C69.8,40.5,70.8,40.6,71.7,41.3z"/>
	<path class="st0" d="M91.5,57.2c-0.6,0.7-1.1,1.3-1.7,1.9c0.1,0.1,0.1,0.2,0.2,0.3c0.3,0,0.7,0.1,0.9,0c2-0.9,2.7-2.3,0.9-4.3
		c-0.8-0.9-2-1.4-3-2.1c-0.4-0.3-0.9-0.7-1.3-1c-0.1-0.1-0.1-0.4-0.1-0.7c0.2,0,0.5-0.1,0.6,0c1.2,0.9,2.4,1.8,3.7,2.6
		c1.2,0.8,1.8,2,1.6,3.5c-0.1,1.3-1,2-2.1,2.5c-0.9,0.5-1.8,1-2.7,1.5c-1.1,0.8-2.2,0.9-3.3,0c-0.5-0.4-1-0.4-1.5,0.2
		c-0.4,0.5-1,0.9-1.5,1.1c-0.7,0.3-1.4,0.3-2-0.3c-1.2-1.1-1.6-3.6-0.7-4.7c0.2-0.2,0.5-0.3,0.7-0.4c0,0.2,0,0.5-0.1,0.7
		c-0.5,0.9-0.3,2.9,0.3,3.5c0.7,0.7,1.5,0.7,2.2,0c0.1-0.1,0.2-0.2,0.3-0.4c0.9-1.3,1.5-1.4,2.8-0.6c1,0.7,1.9,0.7,2.8-0.1
		c0.3-0.3,0.5-0.8,0.7-1.2c0.3-0.7,0.4-1.5,0.8-2.1C90.3,56.9,90.8,56.6,91.5,57.2z"/>
</g>
</svg>
