<?xml version="1.0" encoding="utf-8"?>
<!-- Generator: Adobe Illustrator 19.2.1, SVG Export Plug-In . SVG Version: 6.00 Build 0)  -->
<svg version="1.1" id="Layer_1" xmlns="http://www.w3.org/2000/svg" xmlns:xlink="http://www.w3.org/1999/xlink" x="0px" y="0px"
	 viewBox="0 0 195.2 185" style="enable-background:new 0 0 195.2 185;" xml:space="preserve">
<style type="text/css">
	.st0{fill:#303F9F;}
</style>
<g id="icon-sleeping-lady">
	<path class="st0" d="M178.1,61.9c3.4-2.4,7.1-4.4,10.8-6.3c2-1.1,4.2-1.8,6.4-2.6v-3c-0.5,0.2-1,0.3-1.5,0.5
		c-0.9,0.3-1.7,0.8-2.5,1.1c-1.9,0.6-2.9-0.3-2.6-2c0.7-3.7,1.3-7.4,1.9-11.1c0.1-0.4,0.2-0.8,0.1-1.2c-0.4-4.2-1.4-8.1-3.8-11.6
		c-2.2-3.2-4.4-6.3-7.1-9c-0.6-0.6-1.4-1.1-2.1-1.5c-2.3-1.3-4.8-1.6-7.4-1.4c-1.1,0.1-1.8,0.3-2.5,1.2c-1.2,1.6-2.3,1.6-3.8,0.2
		c-0.9-0.9-1.8-1.8-2.7-2.7c-1.7-1.5-3.3-3.2-5.2-4.4c-3.1-2-6.5-3.7-9.8-5.4c-3.2-1.7-6.6-2.7-10.3-2.7c-3,0.1-5.9,0-8.9,0
		c-3,0-5.8,0.4-8.6,1.6c-2.9,1.2-5.8,2.6-8.7,3.7c-3.1,1.1-5.8,3-8.6,4.6c-1.8,1.1-3.3,2.5-4.6,4.1c-1.2,1.6-2.6,3.1-3.8,4.6
		c-0.4,0.5-0.8,0.9-1.2,1.3c-2.3,2.5-4.6,5.1-6.9,7.6c-0.9,0.9-2,1.3-3.2,1.7c-1.4,0.4-2.9,0.4-4.3,0.5c-1.1,0.1-2.3,0.1-3.3-0.3
		c-1.7-0.7-3.3-1.7-5-2.6c-1-0.5-1.9-1.3-3-1.5c-2.4-0.5-5.3,1.1-6.7,3.3c-1.7,2.8-2,5.8-1.7,9c0.1,1,0.4,2.1,0.4,3.1
		c0,0.4-0.3,1.1-0.6,1.1c-4.5,0.9-6.1,4.9-3.9,8.8c0.2,0.3,0.3,0.7,0.7,1.3c-3.2-2-6.1-1.1-8.8,0.2c-2.9,1.5-4,4.5-4.7,7.6
		c-0.3-0.2-0.6-0.4-0.8-0.7c-1.1-1.1-2.1-2.4-3.4-3.2c-3.8-2.5-7.6-4.8-12-6.2c-1-0.3-2-0.5-3-1c-4.3-2-8.6-1.2-12.8,0
		c-2.9,0.8-5.6,2.3-8.3,3.7v3.6c0.8-0.5,1.6-1,2.5-1.4C3,54.2,3.6,54,4.2,53.8c2.7-0.8,5.4-1.8,8.1-2.2c4.5-0.7,9-0.4,13.2,1.9
		c4.2,2.4,7.8,5.4,11,9c1.5,1.8,3.3,3.3,5.1,4.8c1.2,1,1.2,2.5,1.4,3.8c0.4,2,0.3,4.1,0.5,6.1c0.1,0.8,0.4,1.6,0.4,2.4
		c0.4,3.9,0.7,7.8,1.2,11.6c0.4,3.2-0.8,6.1-1.1,9.1c0,0.5-0.4,0.9-0.7,1.4c-0.4-0.3-0.9-0.5-1.2-0.8c-1-1.2-2.1-2.2-2.6-3.8
		c-0.2-0.8-1.3-1.3-2-1.9c-0.3-0.3-0.8-0.5-1-0.8c-2.2-2.5-4.3-5.1-6.6-7.5c-3-3.3-6.1-6.5-9.2-9.7c-0.2-0.2-0.4-0.4-0.6-0.4
		c-1.5,0-2.1-1.2-3.1-2c-3.8-2.9-7.6-5.9-11.6-8.5c-1.8-1.2-3.6-2.2-5.5-3.1V69c2.5,1.4,5,2.9,7.3,4.7c3.9,3.1,7.9,6.2,11.5,9.6
		c2.7,2.5,4.9,5.6,7.3,8.4c3.7,4.4,7.6,8.6,11.2,13.2c4.1,5.3,8.6,10.2,13.4,14.8c1.9,1.8,4,3.5,6,5.3c0.9,0.8,1.6,1.8,2.7,2.4
		c3.5,1.9,7.1,3.6,10.6,5.4c1.4,0.7,2.9,1.1,4.3,1.8c4.1,2,8,4.4,12.2,6.2c5.8,2.4,10.7,6.4,16.2,9.3c0.1,0.1,0.2,0.1,0.3,0.2
		c1.7,1.8,3.9,2.6,6.1,3.5c1.3,0.6,2.7,1.2,3.7,2.1c2.1,1.8,4.2,3.8,6.1,5.9c2.3,2.5,4.4,5.1,6.5,7.7c0.8,0.9,1.4,2,2.2,2.9
		c2.5,2.6,4.8,5.3,6.8,8.4c0.9,1.4,1.9,2.8,3,4c0.3,0.3,1.3,0.4,1.8,0.2c0.7-0.4,1.9-0.8,1.3-2c-0.9-1.6-2-3.2-3.1-4.7
		c-0.6-0.8-1.4-1.5-2.1-2.3c-3.3-3.8-6.6-7.6-9.9-11.3c-2.1-2.3-4.2-4.6-6.4-6.7c-1.8-1.8-3.7-3.7-5.8-5.2c-3.9-2.7-7.9-5.2-12-7.7
		c-1.2-0.7-2.5-1.3-3.7-1.8c-0.9-0.4-1.3-1.3-0.7-2.1c0.8-1,1.6-1.9,2.7-2.5c3.1-2.1,6.8-2.5,10.4-2.6c0.8,0,1.6,0.2,2.3,0.5
		c1.7,0.6,3.4,1.3,5.2,1.9c3.4,1.2,6.9,2.2,10.1,3.7c4.4,2.1,8.3,5.1,12,8.2c1.9,1.6,3.8,3.2,5.9,4.5c4.2,2.7,7.5,6.3,10.9,9.9
		c0.8,0.9,1.6,1.8,2.2,2.9c0.4,0.7,0.6,1.6,0.9,2.6c-2.2,2-4.7,4.2-7.1,6.5c-0.5,0.4-0.8,1-1.1,1.7c-0.1,0.3,0.2,0.8,0.5,1.1
		c0.1,0.1,0.7-0.1,0.9-0.3c1.6-1.3,3.2-2.6,4.9-3.9c2.2-1.7,4.4-3.4,6.7-5.1c1.6-1.2,3.2-2.3,4.7-3.5c4.1-3.3,8.2-6.6,12.3-10
		c1.5-1.3,3.2-2.5,4.4-4c3.5-4,6.7-8.2,9.6-12.6v-4.7c-2.8,4.1-5.7,8.1-8.5,12.1c-1.8,2.6-3.9,4.9-6.3,6.8
		c-4.7,3.7-9.2,7.5-13.9,11.3c-1.3,1.1-2.8,2-4.1,3c-1.1-1.4-2.1-2.6-3-3.8c-3.4-4.3-7.3-8.2-11.8-11.3c-2.2-1.5-4.4-3.1-6.4-4.8
		c-6.3-5.3-13.1-9.7-21.2-11.8c-2.1-0.6-4.1-1.2-6.2-1.8c-0.6-0.2-1.4-0.5-1.5-0.9c-0.1-0.4,0.3-1.2,0.7-1.6
		c1.6-1.5,3.3-2.9,5.1-4.2c1.8-1.4,3.9-2.5,5.6-4c4.1-3.7,9.2-5.9,13.7-9c0.3-0.2,0.7-0.3,1.1-0.5c2.8-1,5.6-1.9,8.3-2.9
		c2.5-1,5-2.1,7.5-3.1c0.7-0.3,1.3-0.6,1.9-1c1.6-1.4,3.2-2.7,4.7-4.2c0.5-0.5,0.9-1.2,1-1.9c0.2-0.8-0.3-1.5-1.2-1.5
		c-0.9,0-1.8,0.3-2.7,0.5c-1.8,0.6-3.5,1.4-5.4,1.8c-2.6,0.6-5.2,1-7.8,1.5c-1.6,0.3-3.2,0.7-5.2,1.2c0.5-0.6,0.7-1,1.1-1.4
		c3.3-3.2,6.4-6.6,10.6-8.6c4.6-2.3,6.5-6.7,7.9-11.4c0.1-0.4-0.2-1.2-0.6-1.5c-0.3-0.2-1.1-0.1-1.5,0.1c-0.5,0.2-1,0.7-1.5,1
		c-1.1,0.8-2.1,1.6-3.2,2.4c-0.1-0.1-0.2-0.2-0.3-0.3c1.1-1.3,2.1-2.6,3.3-3.8c2.1-2.1,4.3-4,6.4-6.1c0.8-0.8,1.6-1.3,2.8-1
		c1,0.2,2,0.2,3,0.3c5.1,0.6,10,1.6,14.8,3.4c3.6,1.4,7.3,0.9,11,1c0.9,0,1.1-0.5,1.1-1.3c0-0.9-0.6-1-1.2-1c-1.8-0.1-3.6,0-5.4-0.1
		c-1.5-0.1-3-0.3-4.3-0.7c-5.4-1.9-10.9-3.1-16.6-3.7c-0.3,0-0.6-0.2-1.2-0.3c1.2-0.9,2.2-1.6,3.1-2.3
		C172.2,66.9,174.9,64.1,178.1,61.9z M166,67.1c-2.1,2.1-4.2,4.1-6.3,6.2c-0.4,0.4-0.6,0.9-0.9,1.3l-0.4-0.3c-0.1,0-0.2-0.1-0.2-0.1
		c-0.6-3-3.4-4.1-5.4-5.8c-1.6-1.4-3.9-2-6.1-1.7c-3.6,0.4-7,1.3-10.1,3.4c-1.7,1.2-2.7,2.8-3.2,4.8c-0.6,2.2-1,4.5-1.6,6.7
		c-0.3,1.3-1,2.2-2.5,2.5c-1.4,0.3-2.8,0.7-4.1-0.3c-0.2-0.2-1,0.1-1.2,0.4c-0.2,0.2-0.1,0.9,0.1,1.2c1,1.2,3.9,1.6,5.6,1
		c2.5-1,3.9-2.7,4.3-5.4c0.3-2,0.9-4.1,1.5-6c0.6-1.8,1.7-3.1,3.4-4c2.2-1.2,4.3-2.6,7-1.9c0.8,0.2,1.6,0.6,2.4,0.9
		c1.3,0.5,2.7,1,3.9,1.7c0.9,0.5,1.9,1.2,2.3,2c1.7,3.2,1.6,3.2-0.9,5.9c-1,1.1-1.8,2.4-2.7,3.5c-0.4,0.5-0.8,0.9-1.3,1.6
		c-1.7-1-3.4-2-5-3.1c-1.8-1.2-2.4-2.8-1.8-4.9c0.1-0.6,0.6-1.4-0.5-1.6c-0.9-0.2-1.6,0.3-1.8,1.1c-0.5,1.6,0.1,3,0.7,4.4
		c1.1,2.3,3.2,3.5,5.3,4.6c0.5,0.3,1.1,0.5,1.9,0.8c-1.7,1.6-3.2,3.2-4.9,4.4c-3.7,2.7-7.4,5.3-11.2,7.8c-3.6,2.3-7.3,4.2-11,6.3
		c-2.8,1.5-5.6,3.1-8.6,4.2c-1.8,0.7-4,1-6,1c-3.7,0-6.7-1.6-9.1-4.5c-3.2-3.9-6.7-7.6-9.8-11.6c-2.9-3.7-4.9-7.9-4.6-12.8
		c0.1-1.3,0-2.6,0-4c0-1.3-1.4-2.2-2.5-1.6c-0.2,0.1-0.4,0.5-0.4,0.8c0,1.8,0.1,3.6,0.2,5.3c0,0.2,0.1,0.5,0.1,0.7
		c-0.2,5.2,2.4,9.4,5.3,13.4c1.7,2.2,3,4.7,4.6,7c1,1.4,2.4,2.5,3.7,3.7c1.3,1.2,2.8,2.2,4.1,3.4c1,0.8,0.9,1.1-0.2,1.8
		c-1.5,1-3,2.1-4.4,3.3c-4.1,3.4-9,5.3-13.5,7.9c-1.3,0.7-2.5,1.6-3.8,2.3c-0.8,0.5-0.6,1.3-0.3,1.8c0.2,0.3,1.1,0.5,1.5,0.3
		c2.2-1.2,4.3-2.6,6.4-3.9c4.9-2.8,9.3-6.2,14.4-8.9c2.8-1.5,5.5-1.6,8.4-1.5c2.6,0.1,5.1-0.5,7.4-1.7c1.5-0.7,3-1.4,4.6-2
		c3.1-1.2,5.9-3.1,8.8-4.8c1.5-0.9,3.1-1.5,4.7-2.4c2.9-1.6,5.8-3.1,8.1-5.6c2.7-2.8,6-4.9,9.5-6.5c1.2-0.5,2.6-0.6,3.7-1.5
		c0.5-0.4,0.8-0.9,1.3-1.3c0.1,0.1,0.3,0.2,0.4,0.3c-0.5,0.7-1,1.4-1.7,1.9c-2.2,2.1-4.8,3.6-7.2,5.3c-3.3,2.4-6.2,5.3-9.3,8
		c-1.5,1.3-2.8,2.8-4.3,4c-0.7,0.5-1.8,0.5-2.7,0.8c-0.5,0.2-1.1,0.3-1.6,0.5c0.2,0.4,0.4,0.9,0.7,1.3c0.8,1.2,2.1,1.4,3.3,1
		c2.8-0.9,5.5-1.9,8.3-2.8c1.3-0.4,2.6-0.7,4-0.8c2.1-0.3,4.2-0.3,6.2-0.7c1.4-0.3,2.8-0.9,4.1-1.4c0.1,0.1,0.1,0.2,0.2,0.3
		c-0.5,0.4-1,0.8-1.6,1.1c-3.7,1.6-7.4,3.3-11.1,4.8c-1.4,0.6-2.9,0.7-4.2,1.3c-3.6,1.6-7.2,3.1-10.3,5.6c-3.2,2.6-6.7,4.7-10.1,7.1
		c-2.4,1.8-4.8,3.6-7.1,5.5c-1.8,1.5-3.8,2.3-6.1,2.6c-2.9,0.4-5.5,1.5-7.8,3.4c-1.4,1.1-2.9,2.1-4.4,3.1c-0.3,0.2-0.9,0.2-1.2,0
		c-3.8-1.7-7.6-3.4-11.2-5.4c-4.1-2.1-8.1-4.3-12-6.7c-2.5-1.6-4.7-3.8-7-5.7c-1-0.8-2-1.6-3.1-2.4c-0.4-0.3-1-0.5-1.5-0.8
		c0.1-0.2,0.3-0.4,0.4-0.6c0.6-0.2,1.2-0.5,1.7-0.7c1.7-0.7,2.8-1.9,2.9-3.9c0.1-0.7,0.3-1.4,0.7-2c1.6-2.1,2-4.3,0.8-6.7
		c-0.4-0.8-0.4-1.4,0.4-2c1.6-1.3,1.4-4.8,0.3-6.3c-0.5-0.7-0.4-1.2,0.3-1.6c2.3-1.2,2.4-4.3,0.9-6.2c-1-1.3-1.4-2.3-0.8-4.1
		c0.4-1.1-0.6-2.8-1-4.1c0-0.2-0.2-0.3-0.4-0.6c1.3-0.1,2.5-0.3,3.7-0.4c4.4-0.4,8.5-1.8,12.4-4c2.2-1.2,3.1-3.4,4.3-5.5
		c0.8-1.5,1.1-2.9,0.5-4.6c-0.1-0.3,0.1-0.9,0.4-1.1c1.9-1.9,3.7-3.9,6.6-4.5c2-0.4,3.7-1.6,4.9-3.4c0.3-0.4,0.7-0.7,1-1
		c1.8-1.5,2.7-4.4,0.7-6.3c-0.8-0.8-1.6-1.6-2.2-2.5c-0.3-0.5-0.6-1.3-0.4-1.8c0.9-2.4,2.2-4.6,4.9-5.5c3.1-1.2,6.3-2.4,9.4-3.6
		c0.6-0.2,1.1-0.4,1.7-0.5c4.4-0.6,8-2.7,11.1-5.7c2.5-2.4,5-4.9,7.7-7.1c1.8-1.5,4.3-2.5,6.4-0.9c2.5,1.7,5.3,2,8,2.9
		c3.1,1,5.2,3.1,7.3,5.3c1.9,2.1,3.8,4.4,5.7,6.5c1.1,1.2,2.4,2.4,3.8,3.3c3.8,2.5,6.1,6.1,8,10.2c1.7,3.7,1.7,7.6,1.5,11.5
		c0,0.9-0.4,2-1,2.7C168.5,64.7,167.2,65.9,166,67.1z"/>
	<path class="st0" d="M120.6,98.8c-3.2-1.3-6.4-2.3-9-4.5c-0.7-0.6-1.5-1.3-2-2.2c-1.9-3.1-3.1-6.4-3-10.1c0-0.7,0.1-1.4,0.9-1.5
		c0.9-0.2,0.9,0.5,1.2,1c1.2,1.9,2.7,3.3,4.8,4.1c1.1,0.4,2.3,0.8,3.2,1.5c0.5,0.4,0.9,1.3,1,2c0.1,0.9,0.4,1.3,1.3,1.5
		c2.2,0.4,2.7,1,2.7,3.3C121.8,95.7,121.7,97.4,120.6,98.8z M117.5,94.5c-0.1-0.3-0.1-0.5-0.2-0.5c-1.9-2.2-3.9-4.3-5.8-6.5
		c-0.1-0.2-0.7,0.1-1.1,0.1c0.1,0.3,0,0.8,0.3,1c1.7,1.9,3.4,3.7,5.1,5.5c0.2,0.3,0.5,0.6,0.8,0.7C116.9,94.8,117.2,94.6,117.5,94.5
		z"/>
	<path class="st0" d="M122.1,41.8c1.5-0.9,3-1,4.3-0.5c3.1,1.2,6.4,2.3,9,4.6c1.3,1.2,2.4,2.5,2.6,4.3c0.3,2.3,0.5,4.6,0.6,6.9
		c0,0.4-0.3,1.1-0.7,1.2c-0.4,0.2-1.2,0-1.4-0.3c-0.4-0.7-0.9-1.5-0.9-2.2c-0.1-2.9-1.2-5.1-3.4-7c-1.1-1-2.1-2.2-3.3-3.1
		c-1.4-1.1-2.8-2-4.6-2.2C123.7,43.4,123,42.5,122.1,41.8z"/>
	<path class="st0" d="M117.7,51.3c0-0.7-0.1-1.1,0.1-1.4c0.3-0.5,0.8-0.9,1.2-1.3c0.3,0.4,0.8,0.8,1,1.3c0.6,1.7,0.8,3.6,1.6,5.2
		c1.1,2.4,3.5,3.5,5.7,4.6c0.5,0.3,1.1,0.4,1.6,0.8c0.3,0.2,0.7,0.7,0.6,1c-0.1,0.4-0.5,0.8-0.8,1c-0.2,0.1-0.6,0.1-0.8,0
		c-3-1.1-6.2-1.8-8.2-4.8C118.3,55.6,117.9,53.4,117.7,51.3z"/>
	<path class="st0" d="M123.9,81.4c-0.8,0.1-1.7,0.3-2.5,0.3c-0.3,0-0.9-0.5-1-0.9c-0.2-0.9,0.1-2,1.1-2.1c1-0.1,2.1,0.2,3,0.7
		c0.4,0.2,0.6,1.1,0.7,1.7c0,0.1-0.8,0.4-1.3,0.6C123.9,81.6,123.9,81.5,123.9,81.4z"/>
</g>
</svg>
