<?xml version="1.0" encoding="utf-8"?>
<!-- Generator: Adobe Illustrator 19.2.1, SVG Export Plug-In . SVG Version: 6.00 Build 0)  -->
<svg version="1.1" id="Layer_1" xmlns="http://www.w3.org/2000/svg" xmlns:xlink="http://www.w3.org/1999/xlink" x="0px" y="0px"
	 viewBox="0 0 170.9 200" style="enable-background:new 0 0 170.9 200;" xml:space="preserve">
<style type="text/css">
	.st0{fill:#388E3C;}
</style>
<g id="icon-chestcongestion">
	<path class="st0" d="M56.6,132.1c0.5-0.4,1.1-0.5,1.2-0.9c0.5-1.5,1-3,1.4-4.6c0.4-1.6,0.2-3.2-0.4-4.7c-1.1-2.7-2.2-5.4-3.5-8
		c-0.8-1.7-1.9-2-3.8-1.7c-3.9,0.7-7.5,2-11,3.8c-1,0.5-2,1.4-2.8,2.2c-0.9,1-2,1.6-3.2,2.1c-1.4,0.5-2.7,1.2-4,1.9
		c-0.9,0.5-1.2,1.4-1.2,2.4c0,0.3,0,0.7,0,1c0.2,1.5-0.2,2.8-1.2,3.9c-0.8,0.8-0.9,1.7-0.7,2.9c0.3,1.4,0.3,2.8-0.6,4.1
		c-1,1.4-0.7,2.9-0.4,4.5c0.9,3.7,1.6,7.4,2.5,11.1c0.2,0.9,0.6,1.7,0.8,2.6c0.1,0.4,0.1,1-0.1,1.4c-2.7,4.7-4,9.9-5.3,15.2
		c-1.6,6.6-3,13.3-4.7,19.9c-0.7,2.8-2,5.5-3.1,8.3c-0.1,0.1-0.1,0.3-0.2,0.5c-0.7,0-1.3,0-2.2,0c0.8-2,1.8-4,2.4-6
		c1.1-3.3,2-6.7,2.8-10.2c1.5-6,2.7-12,4.2-18c0.6-2.5,1.6-5,2.5-7.4c0.1-0.3,0.1-0.6,0.3-0.7c2.2-2.2,1.2-4.7,0.6-7.1
		c-0.8-3.5-1.8-7-2.4-10.5c-0.2-1.2,0.1-2.6,0.7-3.7c0.6-1.2,0.8-2.4,0.6-3.5c-0.4-1.7,0.2-3,1.2-4.3c0.4-0.5,0.7-1.3,0.7-1.9
		c-0.3-3.8,1.3-5.9,5.4-7.2c1.6-0.5,2.9-1.2,4-2.7c1.3-1.8,3.6-2.4,5.6-3.2c1.8-0.8,3.8-1.4,5.7-2.1c0.2-0.1,0.4-0.2,0.9-0.5
		c-2-2.8-4.1-5.4-5.9-8.2c-1.2-1.8-2.8-2.2-4.8-2.1c-3.2,0.1-6.4,0.2-9.5,0.5c-2.5,0.3-5,1-7.5,1.5c-5.6,1-9.7,4.3-13.3,8.4
		c-2.2,2.5-3.1,5.6-3.6,8.7c-0.7,5.1-1.2,10.2-1.4,15.4c-0.1,3.9,0.2,7.9,1.1,11.8c0.4,1.7,0.6,3.5,0.6,5.3c0.1,3.3,0.1,6.5,0,9.8
		c0,1-0.6,2-0.6,3c-0.2,4.3-0.1,8.6-0.3,12.9c-0.3,4.2-0.9,8.3-1.2,12.5c-0.3,2.9-0.4,5.8-0.6,8.8c0,0.3,0,0.7,0,1.1
		c-0.7,0-1.2,0-2.1,0c0.1-2.8,0.2-5.5,0.5-8.3c0.2-2.6,0.7-5.1,1.1-7.7c0.9-5.6,0.2-11.2,0.5-16.7c0.1-2.1,0.6-4.2,1-6.3
		c0-0.1,0.1-0.3,0.1-0.4c-0.1-3.2,0.1-6.4-0.3-9.5c-0.8-6.7-1.9-13.3-1.5-20c0.3-3.9,0.7-7.7,1.4-11.6c0.3-2.1,1-4.2,1.7-6.2
		c0.9-2.7,2.9-4.7,4.9-6.5c3.2-2.9,6.8-5.2,11.1-6.2c5.1-1.2,10.3-2.1,15.6-2c1.6,0,3.1,0,4.8,0c-0.7-2-1.4-3.8-1.9-5.6
		c-1.1-3.8-2.1-7.6-3.1-11.5c-0.2-0.8,0-1.8,0-2.6c0-1.3-0.5-2.4-1.4-3.3c-1.1-1.1-2.1-2.2-3.1-3.4c-1.3-1.4-1.4-3.1-1.2-4.8
		c0.2-2.6,0.3-5.2,0.4-7.9c0-1.5,0-2.9-0.2-4.4c-0.4-2.9-1-5.7-1.3-8.6c-0.2-1.6-0.3-3.3,0-4.9c0.8-4,1.5-8,2.8-11.8
		c1.9-5.6,4.8-10.7,9.4-14.6c2.2-1.9,4.1-4.3,6.3-6.1c4.3-3.5,9.1-6.2,14.5-7.7c1.3-0.4,2.7-0.4,4.1-0.5c1.5-0.2,3.1-0.3,4.6-0.5
		c2.3-0.3,4.5-0.3,6.8,0.4c3.2,1.1,6.4,1.9,9.6,2.8c3.5,0.9,6.5,2.7,8.7,5.5c0.5,0.6,1,1.1,1.5,1.7c4.3,5.7,8.7,11.3,13,17.1
		c2.5,3.5,3.6,7.5,3.9,11.8c0.4,5.3,1.1,10.7,1.6,16c0.3,2.9,0.6,5.7,1.6,8.5c0.3,0.8,0.7,1.6,1,2.4c1,2.1,1.9,4.3,3,6.4
		c0.8,1.5,1.6,3.2,2.8,4.4c3.6,3.5,6.2,7.7,7.9,12.3c2,5.6,3.9,11.3,5.9,16.9c0.9,2.4,1.9,4.8,2.9,7.2c0.6,1.4,1.7,2.3,2.9,3.1
		c2,1.4,3.8,3,5.7,4.6c2.4,2,4.9,3.9,7.2,6.1c2.6,2.5,5.2,5.1,7.3,8.1c1.3,1.8,1.9,4.2,2.4,6.4c0.9,3.5,1.4,7.1,2.1,10.7
		c0.6,2.9,0.7,5.9,2.1,8.5c0.4,0.7,0.3,1.4-0.5,1.8c-0.8,0.3-1.3-0.2-1.5-1c-0.8-3.6-1.6-7.2-2.4-10.9c-0.8-4-1.3-8.1-2.8-12
		c-0.8-2.1-1.9-3.9-3.4-5.5c-3.5-3.7-7.3-7.2-11.4-10.3c-1.3-0.9-2.4-2.1-3.5-3.1c-2.5-2.3-5.5-3.2-8.8-3.2c-2.9,0-5.5-0.8-8.2-1.5
		c-0.9-0.2-1.2-0.1-1.4,0.7c-0.4,2.1-0.9,4.2-1.1,6.3c-0.7,4.9-1.3,9.9-1.8,14.8c-0.3,3.1-0.2,6.3-0.2,9.4c-0.1,4.4,0.2,8.7,1.1,13
		c1,4.5,2.3,8.9,3.7,13.3c0.6,1.7,1.7,3.3,2.8,4.8c0.5,0.7,1.5,1,2.4,1.5c0.5,0.3,0.9,0.5,1.4,0.7c0.4,0.1,1.1,0.3,1.4,0.1
		c0.3-0.2,0.6-0.9,0.5-1.3c-0.7-2.9-0.9-5.9-2.3-8.6c-0.1-0.3-0.2-0.6-0.3-0.9c-0.4-1.6-0.8-3.2-1.2-4.8c-0.2-0.8-0.1-1.5,0.8-1.8
		c0.9-0.2,1.1,0.5,1.3,1.2c0.9,2.8,1.8,5.6,2.6,8.5c1.2,4.2,2.3,8.5,3.7,12.6c1.5,4.6,3.4,9.2,5.1,13.7c0.1,0.4,0.3,0.7,0.5,1.1
		c-0.8,0-1.4,0-2.2,0c-0.5-1.1-1-2.3-1.5-3.5c-1.6-4.4-3.1-8.7-4.7-13.1c-0.1-0.4-0.6-0.7-1.1-0.9c-1.8-0.6-3.7-0.9-5.4-1.7
		c-1.2-0.6-2.2-1.7-3-2.8c-2.2-2.9-3.1-6.4-4-9.9c-0.7-2.9-1.8-5.8-2.3-8.8c-0.8-4.9-1.2-9.8-1-14.7c0.1-2.7,0.2-5.4,0.4-8
		c0.3-3.6,0.8-7.2,1.2-10.8c0.3-2.7,0.7-5.4,1.1-8.1c0.2-1,0.5-2,0.8-3.2c-4.7-0.7-8.9-2.4-12.6-5.9c-0.3,1.4-0.6,2.5-0.7,3.7
		c-0.6,4.3-1.1,8.5-1.6,12.8c-0.2,2-0.4,4.1-0.5,6.2c-0.1,5.9-0.1,11.9-0.3,17.8c-0.1,4.4-0.4,8.7-1.5,13c-0.6,2.2-1,4.4-1.5,6.6
		c-0.2,0.8-0.6,1.5-0.9,2.2c-0.7,1.7-1.6,3.4-2.1,5.1c-0.5,1.7-1.4,3-2.4,4.3c-2.5,3.3-5.4,6.3-8.7,8.8c-1.8,1.4-4.2,2.1-6.3,3
		c-3,1.3-6.2,0.6-9.3,0.7c-0.2,0-0.4,0-0.6-0.1c-2.7-1.5-5.5-2.7-7.7-5.1c-2.2-2.5-4.2-5.1-5.8-7.9c-1.7-2.9-3.4-5.9-4.4-9.1
		c-1.5-4.5-2.1-9.3-1.8-14.1c0.1-2.3,0-4.6,0-7c-1.7,1.6-3.6,3.1-5.2,4.8c-1.8,1.9-2.8,4.4-3.4,7c-0.7,3.1-1.5,6.2-2.3,9.4
		c-0.1,0.4-0.1,0.9-0.1,1.4c0,5.1,0.1,10.3,0,15.4c-0.1,4-0.6,8-0.9,12c0,0.3-0.5,0.6-0.9,0.7c-0.3,0.1-0.7,0-1.2,0
		c0.2-1.8,0.4-3.5,0.5-5.2c0.2-4.7,0.3-9.4,0.5-14.1c0.1-3.5-0.1-7.1,0.3-10.6c0.3-2.8,1.2-5.6,1.7-8.1c-1.1,0.7-2.4,1.8-3.9,2.3
		c-1.4,0.5-3,0.4-4.5,0.5c-0.3,0-0.8-0.3-1-0.5c-0.2-0.3-0.3-0.8-0.2-1c0.1-0.2,0.7-0.5,0.9-0.4c2.7,1.1,4.7-0.2,6.7-1.7
		c1.9-1.5,3.4-3.4,4.4-5.6c0.5-1.2-0.3-4.5-1.4-5.6c-0.4-0.3-0.9-0.7-0.3-1.1c0.2-0.2,1.1,0,1.2,0.2c0.7,1.2,1.2,2.4,1.7,3.6
		c0.1,0.2,0.1,0.5,0.2,0.9c3.4-3.7,8-6,9.9-10.7c1.6-3.7,3.1-7.5,4.7-11.2c0.1-0.2,0.1-0.4,0.1-0.4c-1.5-0.5-2.9-1-4.4-1.6
		c-0.2,0.5-0.5,1.2-0.6,2c-0.2,1.1-1,1.6-2,1.8c-1.1,0.1-2,0.5-2.6,1.4c-0.1,0.2-0.4,0.4-0.5,0.4c-1.4-0.2-1.4,1-2,1.8
		c-0.9,1.2-1.3,2.8-2.8,3.5c-0.1,0.1-0.2,0.2-0.2,0.4c-0.9,2.9-3.2,4.2-6,4.8c-0.4,0.1-0.8,0.3-1.2,0.3c-0.3,0-0.7-0.2-1.1-0.3
		c0.2-0.3,0.2-0.8,0.5-1c0.5-0.3,1.1-0.4,1.7-0.5c-1-1.3-2.1-1.4-3.9-0.3c-1.4,0.9-2.8,2-4.2,3c-0.3,0.2-0.8,0.2-1.2,0.2
		c0.1-0.4,0-1,0.3-1.3c1-0.9,2.1-1.7,3.2-2.5c0-0.1,0-0.2,0-0.3c-1.6,0.1-3.2,0.2-4.8,0.4c-0.7,0.1-1.4,0.2-2,0.2
		c-0.2,0-0.5-0.4-0.7-0.7c0.2-0.2,0.4-0.6,0.7-0.6c2.6-0.4,5.2-0.8,7.8-0.3c1.2,0.2,2.5-0.1,3.2-1.4c0.1-0.2,0.5-0.4,0.7-0.3
		c0.2,0,0.4,0.4,0.4,0.7c0,0.3-0.1,0.7-0.1,1c0.8,0.5,1.6,1,2.4,1.5c0.2,0.1,0.6,0,0.7-0.1c0.8-0.9,1.6-1.9,2.3-2.9
		c0.1-0.2,0.1-0.6,0-0.9c-0.9-1.7-1.8-3.5-2.7-5.2c-0.5-0.9-1.4-1-2.3-0.9c-2.3,0.3-4.7,0.6-7,0.9c-1.2,0.2-2.4,0.6-3.6,0.9
		c-0.3,0.1-0.7-0.2-1.1-0.3c0.2-0.3,0.4-0.9,0.7-1c2.6-0.9,5.4-1.2,8.2-1.5c0.9-0.1,1.8-0.2,2.7-0.3c1.6-0.3,2.9,0.3,3.7,1.6
		c1,1.6,1.9,3.2,2.9,4.8c0.4-0.6,0.8-1.1,1.2-1.6c0.9-1.2,1.3-2.5,0.8-4c-0.3-1.1-0.4-2.2-0.6-3.4c-0.4-2-2-4-4.7-3.8
		c-3.6,0.3-7.1,0.4-10.6,1.6c-0.7,0.2-1.5,0.2-2.3,0.2c-0.2,0-0.5-0.3-0.7-0.5c0.2-0.2,0.4-0.6,0.6-0.7c2.4-0.6,4.9-1.2,7.3-1.6
		c1.8-0.3,3.7-0.3,5.6-0.4c3.4-0.1,5.4,1.7,6,5.1c0.2,1.2,0.4,2.3,0.6,3.5c0.1,0.3,0.3,0.7,0.5,0.7c0.3,0,0.6-0.2,0.8-0.4
		c0.8-0.9,1.1-1.9,1.1-3.1c-0.1-2.5,0-5-1-7.4c-0.3-0.8-0.7-1.7-1.2-2.4c-0.8-1.2-1.8-2-3.3-1.7c-2.4,0.4-4.7,0.7-7.1,0.9
		c-0.9,0.1-1.9,0.2-2.8,0.2c-0.2,0-0.6-0.3-0.6-0.4c0-0.2,0.2-0.5,0.4-0.7c0.2-0.1,0.4-0.2,0.6-0.2c2.5-0.4,5-0.8,7.5-1.1
		c1.1-0.1,2.1-0.1,3.2-0.1c1.5,0.1,2.4,1.3,3.2,2.4c1.5,2,2.1,4.3,2.2,6.8C56.3,128.2,56.5,129.9,56.6,132.1z M111.1,65
		c0-0.1,0.1-0.1,0.2-0.2c0.5-3.4,0.5-6.8-1.8-9.7c-0.9-1.1-2.1-2-3.7-1.7c-1,0.2-2.1,0.5-3,1c-3.1,1.6-4.8,4.4-6.1,7.4
		c-0.3,0.7-0.5,1.5-0.9,2.2c-0.5,0.9-1.2,1.6-2.3,1.3c-1-0.2-2.2-0.4-2.3-1.9c0-0.4-0.4-0.8-0.7-1.1c-0.6-0.7-1.3-1.4-2-2.1
		c-2.2-2.3-4.3-4.6-7-6.4c-1.4-0.9-2.5-2.2-3.7-3.3c-0.8-0.8-1.5-1.6-2.3-2.4c-2.9-2.7-6.7-3.8-10.1-5.5c-2.2-1.1-4.7-1.9-6.6-3.6
		c-1.4-1.3-2.3-2.6-1.5-4.6c0.7-1.9,1.3-3.8,2.1-5.6c2-4.9,5.7-8.7,8.4-13.1c0.4-0.6,0.7-1.1,0.2-1.6c-0.6-0.6-1.2-0.2-1.7,0.2
		c-0.2,0.2-0.3,0.4-0.4,0.5c-1.3,1.9-2.5,3.8-3.9,5.6c-3.1,4.3-5.5,8.9-6.8,14.1c-0.5,2.2-2,3.1-4,3.5c-5.5,1-10.8,2.6-16,4.7
		C34.4,43,33.7,43.5,33,44c-1.5,1.2-2.3,2.6-2,4.7c0.5,4.1,0.9,8.3,1.1,12.4c0.1,2.1-0.2,4.2-0.4,6.2c-0.1,0.9-0.1,1.6,1.1,1.6
		c1,0.1,2,0.3,3,0.6c2,0.5,4,0.9,5.8,2.2c1.6,1.2,2.9,2.6,3,4.6c0.1,1.6,0,3.2-0.3,4.8c-0.5,3.4-1.4,6.7-2.8,9.9
		c-0.5,1.1-0.6,2.2-0.2,3.4c0.9,2.7,2.5,3.5,5.2,2.5c2.3-0.9,4.4-2.1,7-1.8c0.8,0.1,1.9-0.9,2.6-1.6c1-1.1,0.4-2.7-1-3.1
		c-0.3-0.1-0.5-0.4-0.8-0.6c0.4-0.2,0.8-0.5,1.1-0.5c1.9,0.3,3,2.8,1.9,4.5c-1,1.6-2.5,2.6-4.5,2.5c-1.4,0-2.7,0.2-4,0.9
		c-1.9,0.9-3.8,1.7-6,1.1c-0.1,0.1-0.2,0.2-0.2,0.3c1.1,1.7,2.2,3.5,3.5,5.3c1.1-1.4,2.1-1.3,3.4-0.7c0.4,0.2,1,0.2,1.3,0
		c1.5-1,3.1-0.8,4.6-0.5c3.6,0.7,7.2,1.9,10.9,2c0.2,0,0.6,0.2,0.7,0.4c0.1,0.2-0.1,0.5-0.2,0.7c-3.1,2.9-6,6-10.3,7
		c1,2.2,2,4.3,2.9,6.3c1.1-0.5,2-1.1,3-1.4c2.2-0.8,3.7-0.2,4.8,1.8c0.3,0.5,0.6,1,0.9,1.5c0.5-0.3,0.9-0.5,1.3-0.8
		c4.5-3,8.9-5.9,13.4-9c4.5-3.1,8-7.1,11-11.7c1.7-2.6,1.9-5.6,2.2-8.5C96.1,87.8,96,84.4,96,81c0-0.7-0.2-1.4-0.5-2.1
		c-0.7-1.4-1-2.9-0.7-4.4c0.3-1.8,0.5-3.5,0.8-5.3c0.2-1.2,1.5-2.2,2.6-1.9c2,0.6,3.3,1.6,2.2,4.1c0,0.1,0,0.2-0.1,0.6
		c1.6-1.6,3.9-2.1,5-4c0.1-0.2,0.6-0.1,0.9-0.2c0,0.3,0.2,0.7,0.1,0.9c-0.8,0.9-1.5,1.8-2.4,2.5c-0.7,0.6-1.6,1.2-2.4,1.6
		c-0.5,0.2-1.3,0.3-1.9,0.1c-0.7-0.3-0.8-1-0.5-1.8c0.1-0.3,0.3-0.6,0.4-0.8c0-0.4,0-0.9-0.2-1.2c-0.3-0.3-0.9-0.6-1.3-0.5
		c-0.4,0.1-0.8,0.7-0.9,1.2c-0.3,1.6-0.6,3.1-0.8,4.7c-0.3,1.7,0.3,3.2,1.2,4.5c0.3,0.5,1.3,0.6,2,0.7c0.7,0.1,1.5,0.1,2.1-0.2
		c2.7-1.6,4.8-3.7,6.4-6.4c1.4-2.3,2.4-4.6,1.8-7.3c-0.1-0.5-0.3-1-0.2-1.5c0.1-2.1-0.6-4.1-1.2-6c-0.2-0.5-1-1.3-1.4-1.3
		c-1.4,0.1-3.1,0.2-3.9,1.7c-0.9,1.5-1.6,3.1-2.5,4.6c-0.2,0.3-0.7,0.5-1.1,0.7c0-0.4-0.2-0.9-0.1-1.3c0.2-0.7,0.5-1.3,0.8-1.9
		c1-2.5,2.5-4.4,5.4-5c2.2-0.4,3.6,0.2,4.1,2.4C110.2,60.5,110.6,62.8,111.1,65z M108.5,128c-2.7,0.9-5.3,1.7-7.8,2.8
		c-2.7,1.2-5.3,2.6-7.9,4c-0.5,0.3-1.1,0.6-1.5-0.2c-0.3-0.6,0-1.1,0.6-1.4c2.8-1.4,5.7-2.9,8.6-4.3c2.5-1.1,5.1-2,7.6-3
		c0.4-0.2,0.8-0.6,0.8-1c0.2-1.2,0.4-2.3,0.5-3.5c0.6-4.6,1.1-9.2,1.6-13.8c0-0.3-0.2-0.8-0.4-1c-1.2-1.6-2.6-3-3.5-4.6
		c-2.1-3.6-3.3-7.5-3.9-11.6c-0.4-2.7-1-5.5-1.6-8.2c-0.1-0.3-0.3-0.8-0.6-0.9c-1.2-0.2-2.3-0.2-3.8-0.3c0,3.1,0.1,6.1,0,9
		c-0.1,2.2-0.5,4.3-0.8,6.4c-0.6,3.4-3.1,5.8-4.8,8.6c-0.5,0.7-0.9,1.5-1.5,2c-3,2.5-6,5.1-9.2,7.4c-3.7,2.7-7.5,5.1-11.3,7.5
		c-0.8,0.5-1,0.9-0.6,1.8c0.6,1.2,0.5,2.5-0.4,3.7c-0.7,1-1.6,1.9-2.1,3c-0.8,1.9-1.4,3.9-2.1,5.8c-1.5,3.6-2.8,7.2-5,10.5
		c-0.4,0.6-0.5,1.4-0.5,2.1c-0.2,3.1-0.3,6.2-0.4,9.3c-0.2,4,0.6,7.9,1.8,11.7c1,3,2.6,5.9,4.1,8.7c1.7,3.1,3.8,5.9,6.3,8.4
		c1.6,1.7,3.7,2.6,5.9,3.5c0-2.2,0-4.1,0-6.1c0-1.4,0-2.8,0.1-4.2c0-0.3,0.6-0.6,0.9-0.9c0.3,0.3,0.6,0.6,0.9,1c0.1,0.2,0,0.4,0,0.7
		c0.1,3.3,0.1,6.6,0.2,10c1.3,0,2.4,0,3.5,0c0.7,0,1.3,0.1,2,0c0.7-0.1,1.5-0.3,2.2-0.6c1.8-0.8,3.9-1.4,5.4-2.6
		c3.2-2.4,6-5.2,8.3-8.5c0.8-1.1,1.5-2.3,2.1-3.6c0.8-1.8,1.5-3.7,2.3-5.6c0.2-0.5,0.6-1,0.7-1.6c0.6-2.2,1.1-4.5,1.6-6.8
		c0.9-4.2,1.4-8.4,1.4-12.7c0-5.2,0.1-10.5,0.2-15.7C108.3,131.3,108.4,129.7,108.5,128z M60.9,125.2c-0.1,0-0.1,0-0.2,0
		c0,0.3,0,0.6,0,0.9c0,2.1,1.1,3.2,3.2,3.2c0.3,0,0.8,0,0.9-0.2c0.8-1,1.6-2,2.3-3.1c0.2-0.3,0.3-0.8,0.2-1.1
		c-0.5-1.7-1.1-3.4-1.7-5.1c-0.3-0.9-1.2-1.3-2-1c-1.1,0.4-2.2,1-3.2,1.6c-0.2,0.1-0.3,0.7-0.3,1C60.3,122.7,60.6,124,60.9,125.2z
		 M37.4,77.9c0,1.3-0.2,2.5,0,3.7c0.8,3.2,1.8,6.3,2.7,9.6c2.1-4.8,3.2-9.6,3.2-14.9C41.3,76.8,39.4,77.4,37.4,77.9z M64.7,106.3
		c0-0.1-0.1-0.3-0.1-0.4c-2.2,0.6-4.4,1.1-6.6,1.9c-2.6,0.9-5.1,1.2-7.7,0.2c-0.4-0.2-0.9-0.3-1.3-0.5c-0.1,0.1-0.1,0.2-0.2,0.2
		c0.4,0.8,0.9,1.5,1.2,2.3c0.4,0.8,0.9,1.1,1.8,1c1.2-0.2,2.4-0.2,3.5,0.7c0.1,0.1,0.5,0,0.7,0C59.6,111,62.2,108.7,64.7,106.3z
		 M32.2,70.1c-0.1,0.1-0.1,0.2-0.2,0.3c0.4,0.4,0.7,0.9,1.1,1.3c1.1,1.2,2.4,2.3,3.3,3.7c0.7,1.1,1.4,1.1,2.3,0.6
		c1.3-0.7,2.7-1.4,4.3-1C40.4,71.1,36,71.3,32.2,70.1z M58.6,105.2c0-0.2,0-0.3,0.1-0.5c-1.9-0.5-3.8-1.1-5.8-0.9
		c-0.4,0-0.9,0.1-1.2,0.3c-1,0.7-2,0.7-3.1,0.1c-0.3-0.2-0.9,0-1.3,0.2c-0.1,0-0.2,0.6,0,0.8c0.3,0.4,0.7,0.7,1.3,0.4
		c0.6-0.3,1.3-0.3,2-0.4C53.3,105.3,55.9,105.2,58.6,105.2z"/>
	<path class="st0" d="M65.7,67.4c0.6,0,1.2-0.1,1.8,0c0.3,0,0.5,0.3,0.8,0.5c-0.2,0.3-0.4,0.6-0.6,0.8c-0.1,0.1-0.3,0-0.4,0.1
		c-2.9,0.2-5.7,0.4-8.6,0.8c-1.8,0.3-3.5,1-5.2,1.6c-0.6,0.2-1.2,0.5-1.8,0.6c-0.3,0-0.7-0.3-1-0.5c0.2-0.3,0.3-0.9,0.6-1
		c3.4-1.6,7-2.5,10.8-2.6C63.3,67.6,64.5,67.5,65.7,67.4C65.7,67.4,65.7,67.4,65.7,67.4z"/>
	<path class="st0" d="M62.1,78c-2.6,0.2-4.6-0.8-6.6-2c-0.3-0.2-0.3-0.8-0.5-1.2c0.4-0.1,1-0.3,1.3-0.1c1,0.4,1.8,1.2,2.8,1.5
		c3,0.8,5.7,0.1,8.3-1.5c0.5-0.3,0.9-0.6,1.4-0.8c0.3-0.1,0.7,0.1,1,0.1c-0.1,0.4-0.1,0.9-0.3,1.1C67.1,76.5,65,78.4,62.1,78z"/>
</g>
</svg>
