<?xml version="1.0" encoding="utf-8"?>
<!-- Generator: Adobe Illustrator 19.2.1, SVG Export Plug-In . SVG Version: 6.00 Build 0)  -->
<svg version="1.1" id="Layer_1" xmlns="http://www.w3.org/2000/svg" xmlns:xlink="http://www.w3.org/1999/xlink" x="0px" y="0px"
	 viewBox="0 0 172.4 200" style="enable-background:new 0 0 172.4 200;" xml:space="preserve">
<style type="text/css">
	.st0{fill:#C2185B;}
</style>
<g id="icon-menstrualpain">
	<path class="st0" d="M49.5,200c0.4-1.6,0.8-3.2,1.3-4.8c1.5-4.1,1.8-8.3,1.6-12.6c0-0.2-0.3-0.6-0.6-0.6c-1.1-0.4-2.2-0.7-3.2-1.1
		c-2.3-1-4.7-2.1-7-3.1c-2.4-1.1-4.8-2.1-7.2-3.2c-1.8-0.9-3.6-1.8-5.4-2.8c-2.5-1.4-4.9-2.9-7.4-4.3c-1.4-0.8-3-1.4-4.4-2.1
		c-0.2-0.1-0.4-0.1-0.5-0.3c-1.2-1.9-3.2-2.6-4.9-3.7c-3.6-2.3-7.2-4.6-10.7-7c-0.6-0.5-1-1.6-1.1-2.5c-0.1-1,0-2.1,0.3-3.1
		c0.6-2.1,1.4-4.2,2-6.3c0.8-2.5,1.5-4.9,2.2-7.4c0.8-2.7,2.1-5.1,3.5-7.6c1.2-2.1,2.1-4.3,3.1-6.5c1.9-4.1,4.2-7.9,7.3-11.3
		c0.6-0.7,1.1-1.5,1.6-2.3c2-3.2,4-6.5,5.3-10.1c0.5-1.2,1.3-2.3,1.9-3.5c0.7-1.3,1.4-2.7,2.1-4c0.8-1.4,1.4-2.9,2.3-4.2
		c2.1-2.9,4.2-5.9,6.5-8.6c1.4-1.6,3-3.1,4.6-4.5c1.6-1.3,3.6-2.1,5.6-2.5c2.8-0.6,5.6-1,8.4-1.6c1.5-0.3,3.1-0.5,4.7-0.8
		c-0.4-1-0.6-1.8-0.9-2.6c-1-2.2-1.5-4.6-1.5-7.1c0-4.1-0.1-8.3,0-12.4c0.2-3.3,0.9-6.5,1.1-9.8c0.2-3.8,1.4-7.3,2.5-10.9
		c0.9-2.9,2.1-5.6,4.3-7.9c2-2.2,3.9-4.5,5.9-6.7c2.8-3.1,5.6-6.1,9.4-7.9c1.9-0.9,4.1-1.4,6.1-2c2.9-0.8,5.9-0.5,8.8,0.1
		c1.6,0.3,3.2,0.8,4.9,1c1.1,0.2,2.2,0.1,3.3,0.2c3.6,0.5,6.5,2.3,9,4.9c2,2.1,3.7,4.3,4.8,6.9c0.7,1.9,1.4,3.7,1.9,5.6
		c0.9,3.3,2,6.5,2.5,9.9c0.7,4.7,2,9.3,1.3,14.1c-0.2,1.1-0.5,2.1-0.8,3.1c-0.3,1.5-0.6,3-0.9,4.5c-0.4,2.2-1.5,4-2.5,5.9
		c-1.7,3.3-3.6,6.5-5.4,9.7c-0.3,0.5-0.7,0.9-1,1.4c-0.4,0.9-0.2,1.2,0.7,1.2c2.5,0,5,0,7.4,0c1,0,2,0.2,2.9,0.4
		c1.8,0.4,3.1,1.8,4.6,2.8c2.1,1.4,3.3,3.6,4.6,5.7c2.3,3.6,4.8,7,7,10.6c1.3,2.2,2.5,4.5,3.4,6.9c1,2.7,2.5,5.2,4.3,7.5
		c1.4,1.8,2.7,3.8,4,5.7c1.4,1.9,2.8,3.8,4.2,5.6c1.1,1.5,2.3,3,3.3,4.6c1.5,2.5,3,5.1,4.3,7.7c0.6,1.1,1,2.4,1.4,3.6
		c0.5,1.3,0.9,2.8,1.6,4c2.3,3.8,3.3,8.1,4.2,12.4c0.2,1.1,0.4,2.2,0.3,3.3c-0.2,1.5-1.3,2.6-2.5,3.4c-4.5,2.8-8.9,5.7-13.5,8.3
		c-2,1.1-4.2,1.8-6.3,2.8c-3.3,1.6-6.6,3.1-9.9,4.8c-3.7,1.9-7.4,3.8-11.5,4.8c-0.5,0.1-1.1,0.3-1.8,0.4c0.8,2.2,1.5,4.3,2.3,6.4
		c1.2,3.3,1.6,6.7,1.6,10.2c0,2.7,0.4,5.5,1.3,8.1c0.1,0.2,0.1,0.4,0.1,0.6c-0.5,0-0.9,0-1.4,0c-0.3-1.1-0.8-2.3-1-3.4
		c-0.3-2.5-0.5-5-0.6-7.5c-0.1-2-0.3-3.9-0.9-5.7c-0.9-2.7-1.9-5.4-2.8-8.1c-1.7,0.5-3.4,0.9-5.1,1.3c-1.7,0.4-3.3,1-5.1,0.9
		c-2.5-0.1-4.9,0.3-7.4,0.3c-2.3,0-4.5-0.3-6.8-0.4c-0.6,0-0.8,0.2-1.1,0.8c-0.3,0.6-0.7,1.3-1.3,1.6c-0.8,0.4-1.8,0.7-2.7,0.8
		c-2.4,0.5-4.7,0.9-7.1,1.4c-5.3,1.1-10.5,2.4-15.8,3.5c-1.4,0.3-2.9,0.2-4.3,0.1c-2.8-0.3-5.6-0.8-8.4-1.3
		c-1.2-0.2-2.4-0.6-3.6-0.9c-0.9-0.2-1.8-0.4-2.8-0.7c0,0.9,0,1.6,0,2.3c0.1,3.4-0.6,6.7-1.5,10c-0.5,1.7-1,3.4-1.5,5.1
		C50.5,200,50,200,49.5,200z M124.3,106.4c-1.2-0.7-2.2-1.1-3-1.8c-1.5-1.2-2.8-2.4-4.2-3.7c-0.3-0.3-0.5-0.9-0.6-1.4
		c0-0.2,0.2-0.5,0.3-0.7c0.2,0.2,0.6,0.3,0.7,0.5c0.3,0.4,0.4,0.8,0.7,1.2c1.3,1.6,2.9,2.7,4.7,3.6c0.2,0.1,0.4,0.1,0.6,0.1
		c1.5,0.1,2.7,0.7,3.4,2c1.3,2.4,2.6,4.7,3.9,7.1c1.2,2.3,2.5,4.6,3.7,7c0.8,1.5,1.5,3.1,2.3,4.6c1.7,3.3,3.4,6.5,5.2,9.8
		c0.5,1,1,1.9,1.6,2.8c0.7,1.1,0.9,1,1.7,0.1c0.1-0.1,0.3-0.2,0.5-0.3c0.7-0.2,1.4-0.5,2.2-0.6c2.6-0.6,5.2-1,7.9-0.2
		c0.7,0.2,1.1,0.5,0.9,1.3c-0.3,0.8-0.8,0.6-1.4,0.4c-0.7-0.2-1.4-0.4-2.1-0.4c-2.2-0.2-4.3,0.3-6.2,1.2c-1,0.5-2,1.2-2.8,2
		c-1.4,1.3-2.5,2.9-3.9,4c-2.5,2-5.2,3.9-7.8,5.7c-1.7,1.2-3.5,2.2-5.2,3.4c-2.9,2-6,3.5-9.4,4.4c-1.5,0.4-3,0.7-4.5,1
		c-0.4,2.2,0.3,3.9,1.2,5.7c1.3,2.7,2.5,5.5,3.1,8.5c0.3,1.5,1.1,2,2.7,1.6c3-0.8,6-1.6,9-2.5c3.6-1.1,7-2.8,10.3-4.6
		c2.6-1.4,5.3-2.8,8-4c2.7-1.2,5.6-2.1,8.1-3.5c4.5-2.6,8.9-5.4,13.3-8.2c1.5-0.9,2.3-2.8,1.7-4.5c-0.1-0.4-0.1-0.8-0.2-1.3
		c-0.9-3.8-1.7-7.7-3.8-11.1c-0.8-1.3-1.2-2.9-1.8-4.4c-0.4-1-0.6-2-1.1-2.9c-1.5-2.9-3.1-5.7-4.8-8.5c-0.8-1.4-1.9-2.7-2.9-4
		c-1.6-2.2-3.2-4.5-4.8-6.7c-1-1.4-1.9-2.9-3-4.3c-2.1-2.5-3.8-5.2-4.9-8.3c-1.5-4-3.6-7.7-6-11.1c-1.6-2.2-3.2-4.4-4.5-6.8
		c-1.4-2.5-3.3-4.5-5.7-6c-1-0.6-2-1.3-3.1-1.4c-1.8-0.3-3.7-0.1-5.5-0.2c-0.7,0-1.2,0.2-1.4,0.9c-0.7,2.2-1.4,4.4-2.1,6.6
		c-1.4,4.3-3.2,8.3-6,11.9c-3,3.9-5.5,8.2-9.5,11.4c-2,1.6-3.9,3.4-6.3,4.4c-2.1,0.9-4.2,1.9-6.3,2.8c-1.9,0.8-3.9,1.6-5.8,2.3
		c-0.5,0.2-1.1,0.1-1.6-0.1c-1.8-0.7-3.5-1.4-5.2-2.2c-3.8-1.8-6.9-4.5-9.3-7.9c-0.9-1.2-1.6-2.7-2.1-4.1c-1.1-2.9-2.2-5.9-3.2-8.9
		c-0.6-1.8-1.1-3.6-1.6-5.5c-1-3.9-1.4-8-3.4-11.6c-0.1,0-0.2,0-0.3,0c-1.8,0.3-3.5,0.5-5.3,0.8c-2.5,0.4-4.7,1.4-6.4,3.4
		c-0.2,0.3-0.5,0.5-0.8,0.7c-1.5,1.6-3.1,3.1-4.5,4.7c-1.3,1.6-2.3,3.3-3.6,4.9c-1.4,1.7-2.5,3.6-3.3,5.7c-0.4,1.1-1.1,2.2-1.6,3.2
		c-0.7,1.3-1.7,2.6-2.2,4c-1.4,3.6-3.4,6.9-5.4,10.2c-0.5,0.9-1,1.8-1.8,2.5c-3.1,3-4.9,6.9-6.9,10.7c-1.2,2.2-2.2,4.6-3.3,6.9
		c-1,2.2-2.2,4.4-3.1,6.7c-1,2.8-1.8,5.8-2.6,8.6c-0.6,1.8-1.2,3.5-1.7,5.3c-0.2,0.9-0.3,1.8-0.2,2.7c0,0.5,0.3,1.2,0.6,1.5
		c1.4,1.1,2.9,2.1,4.4,3.1c3.6,2.3,7.3,4.6,10.9,7c0.8,0.5,1.3,1.4,2.1,1.7c2.8,0.8,4.9,2.7,7.5,4c2.9,1.5,5.8,3.1,8.8,4.5
		c1.2,0.6,2.6,1,3.8,1.6c3,1.4,5.9,3,9,4.1c3.4,1.2,7,2,10.5,3c0.3,0.1,0.6,0.1,1.2,0.1c-0.3-3.4-0.5-6.5-0.8-9.7
		c0-0.3-0.2-0.5-0.3-0.7c-0.8-1.8-1.7-3.6-2.5-5.4c-0.6-1.2-1.3-2.1-2.7-2.3c-0.3,0-0.6-0.2-0.9-0.4c-2.1-1.3-4-2.8-6.3-3.6
		c-0.3-0.1-0.7-0.3-1-0.5c-1.9-1.2-3.7-2.5-5.6-3.7c-1-0.6-2.1-1-2.9-1.8c-2.5-2.4-4.8-4.9-7.2-7.4c-1.6-1.7-3.3-3.4-5-5.1
		c-1.3-1.3-3-1.9-4.9-1.6c-0.8,0.1-1.6,0.2-2.4,0.2c-0.4,0-0.9-0.3-1.2-0.5c-0.1-0.1,0-0.7,0.1-0.9c0.3-0.2,0.8-0.2,1.2-0.3
		c0.3,0,0.6,0,1,0c1.8-0.1,3.7-0.4,5.4,0.6c0.8,0.5,1.5,1.1,2.4,1.7c1.5-2.5,2.9-4.8,4.2-7.1c1.2-2.1,2.1-4.3,3.3-6.3
		c2.8-4.7,5.2-9.6,7.4-14.6c1.6-3.5,3.2-6.9,5.9-9.7c0.5-0.6,0.9-1.3,1.4-1.8c0.4-0.4,0.8-1,1.2-1c1.1,0.1,1.2-0.8,1.6-1.3
		c0.3-0.4,0.4-1,0.8-1.4c0.2-0.2,0.6-0.3,0.9-0.4c0.1,0.3,0.3,0.7,0.2,0.9c-0.3,0.8-0.7,1.6-1.2,2.3c-1.5,1.8-3.2,3.5-4.8,5.3
		c-0.5,0.5-0.8,1-0.4,1.7c0.4,0.8,0.7,1.7,1.1,2.5c1.1,2.1,2.1,4.2,2.5,6.6c0.3,2,0.5,4,0.8,6.1c0.3,1.7,0.6,3.4,0.9,5.1
		c0.2,0.7,0.5,1.5,0.9,2.1c1.4,2.5,3.6,4.3,5.7,6.1c1.6,1.3,3.5,2.4,5.7,2.4c1.3,0,2,0.9,2.8,1.9c-6.4,0.5-10.4-3.2-14.3-7.4
		c0.2,1.1,0.5,2.2,0.8,3.2c1.1,3.8,2.6,7.5,3,11.5c0,0.2,0.3,0.4,0.4,0.6c1.2,2,3.1,3.2,4.9,4.6c1.2,0.9,2.5,1.8,3.8,2.7
		c0.6-1.2,1.2-2.1,2.5-2.5c0.2,0,0.2-0.9,0.1-1.3c-0.1-0.3-0.6-0.4-0.8-0.7c-0.3-0.5-0.7-1-0.7-1.5c-0.1-1.6,0.9-2.6,2.6-2.5
		c1.1,0.1,1.7-0.2,1.9-1.3c0.2-1,1.8-1.7,2.5-1.1c1.7,1.3,3.7,1.4,5.7,1.6c1.8,0.2,3.4,0.8,5,1.7c2.7,1.6,5.4,3.2,8.2,4.6
		c1.8,0.9,3.7,1.5,5.7,2.3c-0.2-0.4-0.2-0.6-0.3-0.7c-1.2-1.4-1.6-3.1-2-4.8c-0.1-0.4,0-1,0.2-1.4c1-1.4,2.3-1.6,3.6-0.4
		c1.7,1.6,3.2,3.3,4.7,5.1c0.7,0.8,1.2,1,2,0.5c0.6-0.4,1.2-0.9,1.8-1.4c1.2-1.1,2.4-2.2,3.5-3.3c0.4-0.4,1-0.7,1.5-0.2
		c0.5,0.6,0.1,1-0.4,1.4c-0.8,0.7-1.6,1.5-2.4,2.2c-1.4,1.2-2.6,2.6-4.7,3.3c0.4,0.9,0.7,1.8,1.1,2.6c0.1,0.3,0.6,0.5,0.9,0.5
		c2.5-0.4,4.9-0.7,7.4-1.2c1.6-0.3,3.1-0.8,4.6-1.2c-0.2-0.8-0.3-1.4-0.4-1.9c-0.4-2.4-0.7-4.8-1.3-7.2c-1-3.6-1.4-7.2-0.9-11
		c0.1-0.8,0.2-1.6,0.3-2.4c-0.1,0-0.1-0.1-0.2-0.1c-1.9,2.8-4.8,4-7.7,5.2c-2.9,1.3-5.9,2.2-9.2,2c0-0.5,0-1,0-1.6
		c2.9,0.1,5.6-0.6,8.3-1.7c3.1-1.3,6.2-2.6,8-5.7c0-0.1,0.1-0.2,0.2-0.2c0.8-0.2,0.5-0.8,0.6-1.3c0.3-1.8,0.5-3.7,1.1-5.5
		c0.7-2.1,1.3-4.2,1.4-6.4c0.1-1.8,0.2-3.6,1-5.3C122.7,110.7,123.5,108.5,124.3,106.4z M109.6,79.9c-2,0.1-4,0.1-5.9,0.3
		c-2.2,0.3-4.1,1.2-5.5,2.9c-0.2,0.2-0.6,0.2-0.9,0.2c-0.1,0-0.2-0.5-0.2-0.7c0.2-0.4,0.5-0.9,0.9-1.2c0.7-0.5,1.4-0.9,2.1-1.2
		c1.2-0.6,1.3-0.7,0.3-1.7c-1.5-1.5-2.2-3.2-2.2-5.3c0.1-2.9,0.8-5.7,1.9-8.4c0.1-0.2,0-0.5,0-0.8c-0.2,0-0.5,0-0.7,0.1
		c-1.4,0.8-2.7,1.6-4.1,2.3c-2.9,1.6-5.9,2.3-9.1,1.5c-3.7-0.9-7-2.6-9.1-6c-0.4-0.6-0.9-1.2-1.4-1.7c-0.2-0.2-0.5-0.2-0.7-0.3
		c-0.1,1.4-0.2,2.6-0.3,3.9c-0.2,3.2-1.6,5.8-4,8c-1.7,1.4-3.4,1.7-5.2,0.5c-0.9-0.6-1.8-1.3-2.5-2.2c-0.8-0.9-1.5-0.9-2.5-0.6
		c-0.7,0.2-0.8,0.5-0.7,1.2c0.2,1.9,0.6,3.7,2.7,4.4c0.3,0.1,0.6,0.3,0.8,0.6c1.9,1.7,4.2,2.6,6.5,3.5c1.1,0.4,2.1,1,3.1,1.6
		c0.3,0.2,0.4,0.6,0.6,1c-0.4,0-0.9,0.2-1.2,0c-1.2-0.5-2.3-1.2-3.6-1.7c-2.2-0.8-4.3-1.7-6-3.3c-0.5-0.5-1.2-0.8-1.9-1.2
		c0.3,2.1,0.5,4,1,5.9c1.2,4.4,2.4,8.8,4.5,12.9c1.1,2.2,2.1,4.5,4.3,5.9c0.7,0.4,1.4,0.8,1.9,1.4c1.1,1.3,2.4,2.1,4,2.6
		c1.5,0.5,3.2,0.9,4.7,1.5c1.4,0.5,2.7,0.5,3.9-0.1c1.4-0.7,2.7-1.5,4-2.4c1.9-1.3,3.6-2.8,5.5-4.1c4.5-2.9,8.2-6.5,11.1-11
		C107.2,85.4,108.7,82.8,109.6,79.9z M73.9,50.1c0,0.8,0,1.5,0,2.3c0.1,2,0.5,3.9,1.8,5.5c0.8,1,1.7,1.9,2.4,3
		c1.2,2,2.9,3.4,4.9,4.4c3.6,1.8,7.2,2.1,10.8,0.3c2.3-1.2,4.5-2.4,6.7-3.8c1.9-1.2,2.8-3.2,3.6-5.2c0.7-2,1.3-4,2.1-5.9
		c1.4-3.1,2.2-6.4,2.9-9.8c0.2-0.8-0.1-1.3-0.9-1.6c-1.9-0.8-3.8-1.7-5.7-2.5c-0.9-0.4-1.9-0.5-2.9-0.6c-0.5-0.1-1,0.1-1-0.6
		c0-0.7,0.4-0.9,1-0.8c1.3,0.3,2.6,0.6,3.9,1c1.7,0.6,3.3,1.5,4.9,2.2c0.9,0.4,1.3,0.1,1.4-0.8c0.2-1.7,0.6-3.4,0.7-5.1
		c0.1-3.5,0-6.9-1.5-10.2c-0.4-0.9-0.6-1.9-0.8-2.8c-0.2-0.8-0.2-1.6-0.4-2.4c-1-3.4-2-6.8-3-10.3c-0.2-0.7-0.5-1.4-1.3-1.1
		c-0.7,0.2-0.7,0.9-0.5,1.6c1,3.4,2.1,6.8,3,10.2c0.2,0.6,0.2,1.6-0.1,1.8c-0.9,0.6-1.9,1.1-2.9,1.2c-1.5,0.2-3.1,0.1-4.6,0
		c-2-0.1-3.9-0.4-5.9-0.5c-2.3-0.2-4.7-0.2-6.9,0.8c-3.4,1.6-5.4,4.5-7,7.7c-1.5,3.1-2.5,6.3-3.2,9.6C74.7,41.9,73.7,45.9,73.9,50.1
		z M53.8,161.8c0.2-0.7,0.5-1.4,0.6-2.1c0.4-2.1,0.8-4.1,1-6.2c0.2-2.4,0.5-4.9,0-7.2c-1-4.8-2.4-9.5-3.7-14.2
		c-0.3-1.2-0.5-2.5-0.7-3.7c-0.2-1.2-0.3-2.3-0.5-3.5c-0.2-1.2-0.6-2.4-0.7-3.6c-0.3-2.9-0.6-5.8-1.8-8.5c-0.7-1.4-1.4-2.8-2.3-4.4
		c-1.3,2.6-2.5,4.9-3.7,7.3c-1.3,2.7-2.1,5.5-3.8,8.1c-1.3,2-2.4,4.1-3.5,6.2c-1.9,3.7-3.5,7.5-6.1,10.8c-0.7,0.9-0.5,1.7,0.3,2.5
		c0.3,0.3,0.6,0.7,0.9,1.1c1.7,1.9,3.3,3.8,5,5.6c1.8,1.9,3.6,3.8,6.1,4.9c0.9,0.4,1.8,1.1,2.6,1.7c1.8,1.4,3.7,2.5,5.8,3.3
		c0.7,0.3,1.3,0.8,2,1.2C52.1,161.4,52.8,162,53.8,161.8z M73.8,164c1,0.4,2.1,0.9,3.1,1.2c3,1,5.7,2.5,8.3,4.2
		c1.4,1,2.8,1.9,4.5,2.5c1.6,0.5,3.3,1.2,4.8,1.9c0.8,0.3,1.4,1.1,2.2,1.2c1.8,0.4,3.6,0.5,5.3,0.7c1.4,0.1,2.9,0.3,4.3,0.3
		c1.8,0.1,3.5,0,5.4,0c-0.3-1.1-0.6-2-0.9-3c-0.8-2.5-1.6-5-2.5-7.4c-0.5-1.4-1-2.9-0.9-4.4c0-0.2,0-0.6-0.1-0.7
		c-1-1.2-1.6-2.5-2.1-3.9c-0.9-2.6-2.8-4.7-4.6-6.8c-0.8-0.9-1.5-0.9-2.5-0.6c0.1,0.5,0.1,1,0.3,1.4c1,1.9,2,3.8,3,5.7
		c0.1,0.3,0.1,0.6,0.1,0.9c-0.4-0.1-0.8-0.2-1.1-0.4c-0.6-0.3-1-0.8-1.6-1c-3.5-1-6.8-2.4-9.9-4.4c-2.4-1.5-4.7-3.2-7.5-3.8
		c-1.5-0.4-3.2-0.5-4.8-0.7c-0.2,0.5-0.3,1-0.5,1.5c0.2,0.1,0.5,0.2,0.7,0.3c2.1,0.9,4.1,1.8,6.2,2.8c1.8,0.8,3.6,1.7,5.4,2.6
		c0.3,0.1,0.4,0.5,0.6,0.8c-0.3,0.1-0.6,0.3-0.9,0.4c-0.2,0-0.4-0.1-0.6-0.2c-1.4-0.6-3-1.1-4.3-2c-3.3-2.2-7-3.3-10.6-4.4
		c-0.5,0.9-1,1.7-1.4,2.5c1.1,0.3,2.1,0.7,3.2,1c1.8,0.6,3.8,1,5.5,1.9c2.2,1.2,4.3,2.8,6.4,4.3c0.2,0.1,0.3,0.5,0.3,0.7
		c0,0.2-0.4,0.4-0.6,0.4c-0.7,0-1.4-0.1-2-0.3c-3.8-1.2-7.6-2.4-11.4-3.7c-0.6-0.2-1.1-0.4-1.6-0.5c-0.2,1-0.4,1.9-0.6,2.6
		c3,0.9,6.1,1.9,9.2,2.9c1.8,0.6,3.6,1.4,5.3,2.2c0.3,0.1,0.4,0.5,0.6,0.8c-0.3,0.1-0.6,0.4-0.9,0.4c-0.2,0-0.5-0.1-0.7-0.2
		c-2.9-0.9-5.7-2.7-8.9-2.3C74.6,162.3,74.2,163.1,73.8,164z M125.7,106.9c-0.2,0.5-0.2,0.7-0.3,0.9c-0.6,1.6-1,3.3-1.8,4.7
		c-0.9,1.5-1.3,3.1-1.3,4.8c0,2.7-0.7,5.3-1.6,7.8c-0.5,1.4-0.7,3-0.8,4.5c-0.2,2.1-0.1,4.3-0.3,6.4c-0.2,2.2-0.5,4.3,0,6.5
		c0.4,1.8,0.9,3.6,1.3,5.4c0.4,2,0.7,4.1,1,6.1c0.1,0.6,0.4,1,1.1,0.6c0.6-0.4,1.3-0.6,1.9-1c3.2-2.2,6.4-4.4,9.6-6.6
		c1.7-1.2,3.4-2.2,5-3.5c1.3-1,2.3-2.3,3.4-3.6c0.2-0.2,0.1-0.8-0.1-1.1c-0.7-1.3-1.5-2.6-2.2-3.9c-1.6-3.1-3.3-6.1-4.9-9.2
		c-0.9-1.7-1.7-3.5-2.5-5.2c-0.4-0.8-0.7-1.6-1.1-2.3c-1.7-3-3.4-6-5.1-9.1C126.5,108.6,126.2,107.9,125.7,106.9z M66.7,183.5
		c0.5,0,1,0,1.4,0.1c4.5,0.8,8.8,0.1,13.2-1.1c3.9-1.1,8-1.8,12-2.7c1.6-0.4,3.1-0.7,4.7-1.2c0.8-0.2,0.8-0.8,0.2-1.3
		c-0.8-0.8-1.7-0.7-2.7-0.5c-1.5,0.3-3,0.6-4.6,0.9c-2,0.4-4.2-0.2-6,1.1c-0.2,0.1-0.6-0.1-1-0.2c0.2-0.3,0.2-0.8,0.5-0.9
		c1.1-0.5,2.1-1.1,3.4-1.1c1.4,0,2.8-0.2,4.1-0.4c0.7-0.1,1.4-0.3,2.1-0.5c0-0.1,0.1-0.2,0.1-0.3c-0.3-0.3-0.6-0.6-1-0.8
		c-2.1-1.2-4.3-1.7-6.7-1c-0.5,0.1-1,0.3-1.5,0.3c-0.3,0-0.5-0.4-0.8-0.5c0.2-0.2,0.4-0.5,0.7-0.6c0.5-0.2,1-0.3,1.6-0.5
		c-2.5-2.3-5.3-3.7-8.1-5c-1.9-0.9-3.9-1.5-5.8-2.3c-2.4-1-2.9-3.1-1.1-5c0.1-0.1,0-0.2,0.1-0.3c-0.7-0.2-1.4-0.3-2.1-0.5
		c-0.5-0.1-0.8,0-0.9,0.6c-0.3,1-0.6,2.1-1,3.1c-0.2,0.5-0.5,1.2-0.9,1.5c-1.3,0.9-2.6,1.9-3.4,3.4c1.4,2.3,2.3,4.9,2.8,7.6
		C66.4,177.9,66.5,180.7,66.7,183.5z M115.9,71c-1.3-0.9-2.1-0.7-2.5,0.8c-0.1,0.5-0.2,1-0.3,1.5c-0.5,2.5-1.1,5-2.4,7.3
		c-1.1,1.9-1.9,3.9-2.8,5.8c-2.1,4-4.9,7.5-8.4,10.3c-4.2,3.3-8.7,6.3-13.1,9.3c-1.8,1.2-3.8,1.5-5.9,0.5c-0.8-0.4-1.7-0.6-2.6-0.8
		c-1.6-0.5-3.3-0.9-4.7-2c-1.3-1.1-2.7-2.1-4-3.2c-0.7-0.6-1.4-1.1-1.9-1.9c-3.5-5.8-5.8-12.1-7-18.8c-0.6-3.2-1.4-6.4-2.1-9.6
		c-0.4,0-0.7,0-1.1,0c-1.2,0-1.3,0.3-0.8,1.4c0.4,1,0.9,1.9,1.1,2.9c0.6,2.5,1.1,5,1.7,7.5c0.7,2.5,1.6,4.9,2.2,7.4
		c1,3.9,2.5,7.6,4.8,10.9c1,1.4,1.9,3.1,3.3,4c2.7,1.9,5.7,3.4,8.6,5c0.6,0.3,1.4,0.6,2,0.5c1.7-0.3,3.4-0.8,5-1.4
		c1.9-0.7,3.7-1.8,5.6-2.5c5.3-2.1,9.3-5.8,12.9-10.1c1.6-1.9,2.7-4.1,4.3-6c2.5-3,4.3-6.4,5.5-10.2C114.2,76.7,115,73.8,115.9,71z
		 M55.2,162.7c2.2,1,4.4,2,6.7,3c0.2,0.1,0.7,0,0.9-0.1c0.9-0.8,1.6-1.9,2.6-2.4c1-0.6,1.2-1.3,1.4-2.2c0.1-0.5,0.3-0.9,0.5-1.4
		c0.3-0.9-0.1-2-0.9-2.5c-1.9-1.3-3.8-2.7-5.7-4c-1.2-0.9-2.3-1.8-3.3-2.7c-0.3,2-0.6,4.2-1,6.2C55.9,158.6,56.3,160.8,55.2,162.7z
		 M109,160c0.1,1.2,0.1,2.6,0.5,3.7c0.8,2.7,1.8,5.3,2.7,8c0.2,0.7,0.3,1.4,0.5,2c0.9,2.6,0.6,2.5,3.4,1.7c0,0,0.1-0.1,0.3-0.4
		c-0.7-2.1-1.3-4.4-2.1-6.6c-1.1-2.9-3.1-5.6-2.7-9.1C110.7,159.6,110,159.8,109,160z M58.5,165.8c0.4,0.8,0.7,1.3,1,1.9
		c0.8,2,2,3.8,2.1,6c0.1,2.7,0.3,5.5,0.5,8.2c0,0.3,0.1,0.5,0.1,0.7c0.8,0.2,1.5,0.3,2.4,0.5c0-1.2,0-2.4,0-3.5
		c-0.2-4-1-7.9-3.1-11.5C60.8,166.9,59.9,166.4,58.5,165.8z M81.7,157.1c0,0,0-0.1,0-0.1c-0.6-0.4-1.2-0.9-1.9-1.2
		c-1.3-0.6-2.6-1.1-3.9-1.6c-0.8-0.3-1.1,0.1-1,0.9C77.2,155.8,79.5,156.5,81.7,157.1z M73.7,153.4c-0.8-0.3-1.7-0.6-2.5-0.9
		c-0.2-0.1-0.7,0.2-0.8,0.4c-0.1,0.2,0.2,0.7,0.4,0.8c0.6,0.3,1.2,0.4,1.8,0.6C73.6,154.7,73.7,154.6,73.7,153.4z M69.9,150.8
		c0.4-0.5,0.8-0.9,1.1-1.4c0.4-0.6,0.2-1-0.5-1c-0.4,0-0.7,0-1.1,0.1c-0.7,0.2-0.9,1.1-0.4,1.6C69.2,150.3,69.5,150.5,69.9,150.8z
		 M68.4,157.5c1.2-0.7,1.4-1.5,0.9-2.5c-0.1-0.2-0.4-0.4-0.6-0.5c-0.4,0.4-1.1,0.9-1.1,1.3C67.6,156.4,68.1,157,68.4,157.5z
		 M75,148.4c0.1-0.8,0.4-1.5,0.2-1.6c-0.5-0.4-1.2-0.6-1.8-0.7c-0.1,0-0.5,0.7-0.5,1C73.1,148.1,74.2,147.7,75,148.4z M72.6,163.4
		c0.3-0.8,1.5-1.3,0.5-2.3c-0.5-0.5-1.1-0.3-1.5,0.3C71.3,161.9,71.7,162.8,72.6,163.4z"/>
	<path class="st0" d="M97.1,57.1c-0.3,0.2-0.4,0.4-0.6,0.4c-2.4,0.5-4.7,1.9-7.3,1.6c-1.6-0.2-2.8-0.7-3.9-1.8c-1.1-1-2.1-2-3.2-3.1
		c-0.2-0.2-0.3-0.6-0.4-0.9c0.3-0.1,0.6-0.2,0.9-0.2c1.4,0,2.8,0.1,4.1,0c1.3-0.1,2.5-0.5,3.7,0.5c0.2,0.2,0.5,0.3,0.7,0.2
		c0.9-0.4,1.6,0,2.3,0.4C94.6,55.2,95.8,56.1,97.1,57.1z M84,54.9c2.9,3.8,6,4.3,10.3,2.4C90.7,56.5,87.4,55.7,84,54.9z M94.4,56.4
		c0-0.1,0.1-0.2,0.1-0.3c-1-0.9-1.8-1.9-3.4-1.5c-0.3,0.1-0.8,0-1.1-0.2c-1.4-1.1-2.7-0.3-4-0.1c0,0.1,0,0.2,0,0.3
		C88.7,55.2,91.5,55.8,94.4,56.4z"/>
	<path class="st0" d="M84.2,33.7c2.8-0.3,4.6,1.4,6.3,3.3c0.3,0.3,0.1,1,0.2,1.5c-0.4,0-0.7,0-1.1,0c-0.4,0-0.9-0.1-1.3-0.1
		c-2.6,0.3-4.9-0.5-6.9-1.9c-0.4-0.3-0.9-0.4-1.3-0.7c-0.3-0.2-0.5-0.5-0.7-0.7c0.3-0.3,0.5-0.7,0.8-0.7
		C81.5,34.1,82.9,33.9,84.2,33.7z M86.6,37.4c0.8,0,1.6,0,2.4,0c0-1.2-1-1.3-1.6-1.7C87.1,36.3,86.9,36.8,86.6,37.4z M82.1,35.2
		c0,0.2,0,0.3,0,0.5c0.6,0.3,1.1,0.6,1.7,0.9c0.1-0.6,0.2-1,0.3-1.5C83.4,35.1,82.7,35.1,82.1,35.2z"/>
	<path class="st0" d="M107.3,42c-0.4,0.2-0.6,0.6-0.9,0.6c-1.3,0.1-2.6,0-3.9,0c-1.6,0-3.1-0.6-4.3-1.6c-0.3-0.2-0.7-0.2-1.1-0.4
		c-0.3-0.1-0.5-0.3-0.7-0.4c0.1-0.2,0.2-0.5,0.5-0.7c0.6-0.4,1.2-0.7,1.8-0.9c1.9-0.6,3.8-0.9,5.6,0.5c0.8,0.6,1.6,1.3,2.4,2
		C106.9,41.3,107,41.6,107.3,42z M100.5,41.1c0.2-0.7,0.3-1.3,0.4-2c-0.8,0.2-1.4,0.5-2.4,0.8C99.3,40.4,99.9,40.8,100.5,41.1z
		 M103.2,41.9c0.9-0.3,1.5-0.5,2.1-0.7c-0.5-0.4-0.9-0.7-1.4-1.1c0,0,0,0,0,0C103.7,40.6,103.5,41.1,103.2,41.9z"/>
	<path class="st0" d="M79.8,30.4c2.7,0.5,5.3,0.9,7.8,1.4c0.8,0.2,1.7,0.4,2.5,0.6c0.6,0.1,0.9,0.5,0.7,1.1
		c-0.2,0.6-0.7,0.5-1.2,0.3c-1.6-0.5-3.3-0.8-5-1.2c-1.5-0.3-3.1-0.6-4.6-0.9c-0.3-0.1-0.5-0.5-0.7-0.7
		C79.3,30.8,79.6,30.5,79.8,30.4z"/>
	<path class="st0" d="M88.3,44.9c-0.4,0.6-0.8,1.1-1.1,1.7c-0.5,1.2-0.1,1.7,1.1,2c0.6,0.2,1.2,0.6,1.6,1.1c0.7,0.9,1.2,1.2,2.4,0.8
		c0.6-0.2,1.1-0.4,1.7-0.4c1.4-0.1,2-0.8,1.6-2.1c-0.2-0.8-0.5-1.7-0.9-2.8c0.5,0.2,0.9,0.3,0.9,0.5c0.5,1.2,1,2.4,0.8,3.7
		c-0.2,0.9-0.9,1.3-1.7,1.5c-0.8,0.2-1.7,0.4-2.5,0.6c-1.1,0.3-2.3-0.2-2.9-1.2c-0.2-0.3-0.7-0.7-1-0.7c-1.5-0.2-2.2-0.8-1.9-2.4
		c0.1-0.8,0.5-1.5,0.9-2.2c0.2-0.3,0.7-0.3,1-0.4C88.3,44.7,88.3,44.8,88.3,44.9z"/>
</g>
</svg>
