<?xml version="1.0" encoding="utf-8"?>
<!-- Generator: Adobe Illustrator 19.2.1, SVG Export Plug-In . SVG Version: 6.00 Build 0)  -->
<svg version="1.1" id="Background_copy_2_xA0_Image_1_"
	 xmlns="http://www.w3.org/2000/svg" xmlns:xlink="http://www.w3.org/1999/xlink" x="0px" y="0px" viewBox="0 0 134.9 200"
	 style="enable-background:new 0 0 134.9 200;" xml:space="preserve">
<style type="text/css">
	.st0{fill:#C2185B;}
</style>
<g id="icon-pinworm">
	<path class="st0" d="M0.5,0c0.9,0,1.9,0,2.8,0C3.2,4.8,2.8,9.7,2.9,14.5C2.9,20.3,3,26.2,3.7,32c0.6,4.4,3.7,5.4,7.8,3.2
		c-1.9-5-5.4-9.5-4.4-15.4c10.7,20.1,15.7,41.7,16.6,64.4c0.6-0.1,1,0,1.3-0.1c6.9-2.2,13.9-3.4,21.3-3.4c5.3,0,10.6-1.1,15.9-2.2
		c6-1.3,11.9-3.2,17.9-4.7c1.3-0.3,2.9,0.1,4-0.5c3.2-1.9,3.3-8,0.4-10.2c-0.6-0.4-1.6-0.7-2.3-0.6c-10.3,1.7-20.5,3.6-30.8,5.2
		c-2,0.3-4.5,1.1-6.1-2.2c12.8-2.1,25.2-4.1,38-6.2c-8.8-0.4-17.3-0.5-25.7-1.3c-8.5-0.8-16.1-4.4-23.2-9.3c3.8-1.4,6.2,2.1,9.5,2.7
		c3.4,0.6,6.6,2.6,10,3.3c3.5,0.7,7.2,0.6,10.8,0.8c3.5,0.2,7.1,0.4,10.7,0.6c-2.3-1.2-4.3-2.5-6.5-3.2c-5.7-1.9-11.6-3.6-17.4-5.2
		c-1.8-0.5-3-1.4-3.1-3.3c0-0.5,0.3-1.3,0.7-1.6c0.3-0.2,1.2-0.1,1.5,0.2c2.2,2.6,5.5,2.6,8.4,3.6c4.7,1.6,9.4,3.2,14.1,4.7
		c2.5,0.8,5,1.5,7.2,2.1c0-3.9-0.1-7.2,0-10.6c0.4-9.7,1.3-19.3,1.3-29c0-2.9,0.9-3.4,3.5-3.9c-0.2,6.2,5.3,7.1,8.4,9.7
		c4.1-6.7,8.1-13.2,12.1-19.8c2.1,0,4.1,0,6.2,0c1.9,2,3.9,4,5.9,6c4.2,4.2,8.6,8.2,12.7,12.5c1.5,1.6,2.6,3.6,3.5,5.6
		c1.3,3,1.9,6-1,8.7c-0.9,0.8-1.3,2.2-2,3.3c-2.1,3.8-4,7.7-6.3,11.3c-5.4,8.7-11.2,17.1-18.5,24.3c-1.4,1.4-3.4,2.5-4.5,4.1
		c-1.2,1.8-2.7,4.4-2.2,6.1c2.5,7.4,5.2,14.8,8.6,21.9c3.5,7.3,7.8,14.2,11.6,21.4c2.2,4.1,1.7,5.1-2.9,5.8c-0.3,0-0.6-0.1-0.8,0
		c-2,1-4.7,1.3-5.2,4c-0.4,2.6-0.4,5.4-0.6,8c-0.4,4.4-0.7,8.9-1.2,13.3c-0.9,8.7-1.9,17.5-2.7,26.2c-0.6,5.8-1.1,11.6-1.7,17.5
		c-0.9,0-1.9,0-2.8,0c0-1.6-0.1-3.2,0-4.8c1.1-10.9,2.2-21.8,3.3-32.7c0.9-8,1.8-16,2.7-24c0.3-2.3-0.9-3.6-3.3-3.1
		c-1.7,0.3-3.5,0.6-5.1,1.1c-7.1,2.1-14.6,2-21.4,5.6c-6.3,3.4-9.1,7.5-7.1,14.3c2.8,9.5,2.9,19.2,3.8,28.9
		c0.5,4.9,0.8,9.8,1.1,14.7c-1.1,0-2.2,0-3.4,0c0-2.8,0.1-5.6-0.2-8.4c-0.6-7.3-1.3-14.6-2.1-21.8c-0.3-2.9-0.4-6-1.4-8.7
		c-1.7-4.8-2.2-9.4-1.1-14.3c0.1-0.5-0.4-1.2-0.6-1.8c-1.2,1.7,0,4.6-3.1,4.5c-2-0.1-2.4,1.2-2.7,2.5c-0.5,2.3-0.4,4.8-1,7.1
		c-1.8,7.5-3.7,14.8-3.1,22.7c0.5,6.2,0.1,12.4-2.2,18.3c-0.9,0-1.9,0-2.8,0c0-0.6-0.2-1.4,0.1-1.9c2.3-5.8,1.8-11.8,1.5-17.7
		c-0.3-5.6-0.4-11.1,1.6-16.5c1.2-3.2,1.4-6.7,2-10.1c0.2-1.4,0.4-2.8,0.7-4.5c-12.8,0.1-25.1-0.5-37.1,2.1
		c1.1,5.2,2.3,9.9,3.1,14.7c0.9,5.1,1.4,10.2,2.1,15.4c0.8,6.2,1.6,12.5,2.5,18.7c-0.9,0-1.9,0-2.8,0c-0.6-4.6-1.1-9.2-1.7-13.7
		c-0.5-3.5-1.1-6.9-1.7-10.4c-1.4-7.7-2.8-15.4-4.3-23c-0.1-0.7-0.9-1.7-1.6-1.9c-2-0.6-2.3-1.9-2-3.7c0.9-5.5,1.8-11,2.6-16.4
		c0.4-2.8,0.7-5.7,1.1-8.5c0.9-7.3,1.9-14.7,2.5-22c0.3-3.3-0.4-6.7-0.4-10c-0.1-5,0.2-10-0.1-15c-0.3-3.5-1.8-6.6-5.1-8.5
		c-0.9-0.5-1.7-1.3-2.2-2.1c-3.6-6.7-7.5-13.3-8.9-21c-0.3-1.7-0.4-3.5-2.6-4.1c-0.4-0.1-0.7-1.1-0.7-1.6C0.3,33,0,28,0,22.9
		C0,15.3,0.3,7.6,0.5,0z M99.8,111c2.1-1.7,1.2-4,1.1-6.1c-0.3-4.4-3.7-7.3-5.7-10.9c-3.5-6.3-3.9-12.7,1.6-18.1
		c5-5,9.9-10,14.3-15.5c5.8-7.2,11.5-14.6,15.3-23.2c0.7-1.5,1.3-3.2,2.4-4.4c4.4-5.2,2.7-8.3-0.9-12.2c-5.3-5.7-11-11.1-16.6-16.6
		c-2.3-2.3-3.8-1.9-5.4,0.9c-1.8,3.2-3.8,6.3-5.8,9.4c-1.9,3-1.8,4.2,1.1,6.1c2.6,1.7,5.4,3.2,8.1,4.6c1.5,0.8,3.2,1.4,4.9,1.9
		c0.9,0.2,1.9,0,2.9-0.1c-0.2,1-0.2,2.2-0.7,3.1c-0.4,0.8-1.3,1.4-2,2.2c-1.8,2.1-3.9,4-5.3,6.4c-3.8,6.5-7.1,13.3-11.1,19.8
		c-3,4.8-7,8.9-10,13.6c-3,4.7-7.8,8.4-8.3,14.7c-0.3,3.5-2.1,7-2.2,10.5c-0.2,4.7-1,8.8-3.7,12.7c-0.4,0.6-0.1,1.8-0.1,2.7
		c1-0.4,2.5-0.5,2.9-1.2c1.8-3.1,4.2-6.1,3.7-10.2c-0.1-0.5,0.5-1,0.8-1.6c2,2.3,0.4,8-3.5,13.4c0.9,1.2,2,2.3,3.4,0.8
		c1.7-2,3.6-3.9,3.3-7c-0.2-1.9,0.6-3.9,1-5.8c0.3,0.1,0.6,0.1,0.9,0.2c2.4,6,0.1,11-4.3,15.5c2.8,1.1,4.6,0.5,5.6-1.3
		c1-1.8,1.6-3.8,2.3-5.8c0.6-1.9,0.7-4.1,3.8-5.5c-1.7,5.2-3.3,9.7-4.8,14.2c2.6,0.4,3.9-0.3,4.9-3.3c1.1-3.3,2-6.7,3-10.2
		C97.8,106.6,98.8,108.8,99.8,111z M83.7,44.6c-0.9,6.5,1.7,12.2,4.2,18c0.7,1.6,2,2.2,3.2,0.5c2.5-3.6,4.8-7.4,7.3-11.1
		c4.3-6.4,6.9-13.8,11.9-19.9c1.3-1.6,1-2.6-0.9-3.6c-3.3-1.8-6.4-4-9.7-5.8c-0.9-0.5-2.7-0.4-3.6,0.3c-1.7,1.2-2.7,0.9-4.1-0.3
		c-1.7-1.5-3.5-2.8-5.3-4c-2-1.3-2.9-0.7-2.9,1.6C83.6,28.4,83.7,36.5,83.7,44.6z M17.7,64.8c0.4-0.2,0.8-0.3,1.2-0.5
		c0-1.7,0.2-3.5-0.1-5.1c-0.3-1.9-1.2-3.7-1.7-5.5c-1.2-4-2.6-8.1-3.4-12.2c-0.4-2.1-1.2-2.5-2.9-2.2c-0.9,0.1-1.8,0.5-2.7,0.5
		c-1.7,0.1-1.8,0.6-1.5,2.3C7.5,49,11,54.8,14,60.8C14.8,62.3,16.4,63.5,17.7,64.8z M66.3,138.2c0.2,0.3,0.5,1,0.8,1.6
		c0.4-0.3,1.2-0.5,1.3-0.9c0.9-3.8,1.8-7.6,2.5-11.5c0.1-0.5-0.7-1.1-1.1-1.6c-0.5,0.5-1.2,0.9-1.3,1.4
		C67.6,130.7,67,134.2,66.3,138.2z M100.5,122.8c-0.3-0.6-0.3-1-0.5-1.1c-2-1.1-4-2.2-6.1-3.2c-0.3-0.1-1,0.2-1.1,0.5
		c-0.2,0.3,0,1,0.2,1.2c1.9,1.2,3.8,2.3,5.8,3.3C99.1,123.6,99.9,123.1,100.5,122.8z M86.7,125.5c-0.2-1.9-0.2-3.1-0.5-4.1
		c-0.1-0.5-0.8-0.8-1.3-1.2c-0.3,0.5-0.7,1-0.8,1.5c-0.1,1-0.1,2.1,0.1,3.1c0.2,1.2,0.7,2.3,1,3.4C85.8,127.1,86.4,126,86.7,125.5z"
		/>
</g>
</svg>
