<?xml version="1.0" encoding="utf-8"?>
<!-- Generator: Adobe Illustrator 19.2.1, SVG Export Plug-In . SVG Version: 6.00 Build 0)  -->
<svg version="1.1" id="Layer_1" xmlns="http://www.w3.org/2000/svg" xmlns:xlink="http://www.w3.org/1999/xlink" x="0px" y="0px"
	 viewBox="0 0 160.8 192.2" style="enable-background:new 0 0 160.8 192.2;" xml:space="preserve">
<style type="text/css">
	.st0{fill:#388E3C;}
</style>
<g id="icon-allergy_1_">
	<path class="st0" d="M0.4,140.2c0.7,0.3,1.1-0.2,1.3-0.8c0.9-2.1,1.6-4.2,2.5-6.2c0.5-1.1,1.2-2.1,1.9-3.1c0.7-1,1.6-1.9,2.2-3
		c1.7-2.9,3.9-5.2,7-6.7c4.3-1.9,8.2-4.4,12.2-6.9c0.1-0.1,0.2-0.1,0.5-0.2c0.2,0.9,0.3,1.7,0.6,2.5c0.6,2.1,1.3,4.2,1.8,6.3
		c0.9,3.3,1,6.7,1.1,10.1c0.1,5.6,0.2,11.3,0.2,16.9c0,2.1-0.3,4.2-0.6,6.3c-0.2,1.9-0.5,3.8-0.9,5.6c-0.3,1.3-0.8,2.6-1.1,4
		c-0.7,3.4-2,6.7-1.7,10.3c0.1,1.6,0.4,3.2,0.5,4.7c0.1,1.5,0.1,2.9-0.1,4.4c-0.3,2.6-0.4,5.2-0.4,7.8h13.7c1.1-1.4,2.1-2.7,3.2-4.1
		c0.9-1.1,1.8-2.2,2.7-3.3c1.9-2,3-4.5,3.6-7.1c0.5-2.4,0.9-4.9,1.2-7.3c0.4-3.8,2.5-6.3,5.4-8.4c2.3-1.6,4.3-3.4,6-5.7
		c0.4-0.6,1-1,1.5-1.6c0.5,0.5,0.9,1,1.3,1.4c0.2,0.1,0.5,0.1,0.8,0.1c0-0.3,0.1-0.6,0-0.8c-0.3-0.5-0.7-0.9-1.1-1.4
		c4.9-2.8,8.7-7.1,14.2-8.9c0.3,2.1,1.2,3.1,3.3,4c-1.3,1.1-2.5,2-3.7,3c-0.6,0.5-1.2,0.9-1.9,1.3c-2.7,1.6-4.7,3.8-6.3,6.5
		c-0.6,0.9-1.3,1.8-2,2.5c-1.7,1.8-3.4,3.7-5.3,5.2c-1.3,1.1-3,1.7-4.5,2.5c-0.3,0.2-0.7,0.3-1,0.5c-0.2,0.2-0.3,0.6-0.4,1
		c0.3,0,0.8,0.2,1,0.1c1.6-0.8,3.2-1.8,4.9-2.6c1.6-0.8,3.1-1.7,4.4-3c0.7-0.7,1.6-1.1,2.3-1.7c1.1-0.9,2.1-1.8,3.1-2.7
		c0.4-0.4,0.8-0.8,1.3-1.1c0.9,1,1.7,1.9,2.6,2.8c0.2,0.2,0.6,0.2,0.8,0.1c0.2-0.1,0.3-0.6,0.2-0.8c-0.3-0.4-0.7-0.8-1.1-1.2
		c-0.2-0.2-0.5-0.4-0.7-0.7c-1-1.2-1-1.3,0.3-2.1c3.6-2.2,6.5-5,9.5-7.9c1.2-1.2,2.3-2.4,4.1-3.1c-0.1,2.3,0.3,4.2,3.1,4.9
		c-0.5,0.4-0.9,0.8-1.4,1.1c-1.3,0.8-2.4,1.8-3.1,3.2c-0.1,0.2-0.3,0.4-0.4,0.6c-2,2.1-4,4.4-6.1,6.4c-2.5,2.4-5.1,4.7-7.7,7
		c-2.3,2-4.8,3.8-7.2,5.8c-0.3,0.2-0.6,0.8-0.5,1c0.3,0.5,0.8,0.3,1.2-0.1c1.6-1.3,3.3-2.5,4.9-3.7c0.3-0.2,0.5-0.4,0.8-0.7
		c2-1.8,4-3.6,6.1-5.5c0.6,0.8,1,1.4,1.5,2c0.2,0.2,0.7,0.3,1,0.4c0-0.4,0-0.8-0.1-1.1c-0.4-0.7-0.9-1.3-1.4-2
		c3.4-3.4,6.9-6.8,9.8-10.9c0.3,1.8,1.8,2.4,2.9,3.6c-0.6,0.9-1.2,1.7-1.7,2.6c-1.2,2-2.4,3.9-3.4,5.9c-1.3,2.7-3.2,4.8-5.3,6.8
		c-2.7,2.5-5.5,5-8.2,7.5c-0.2,0.2-0.1,0.6-0.2,1c0.4-0.1,0.9,0,1.2-0.2c2.6-2.3,5.1-4.6,7.6-7c0.1-0.1,0.2-0.1,0.3-0.2
		c0.4,0.5,0.8,1,1.2,1.4c0.2,0.2,0.6,0.3,0.9,0.4c0-0.4,0.1-0.8-0.1-1.1c-0.3-0.6-0.6-1.1-1-1.6c0.9-1.1,1.8-2.1,2.6-3.1
		c0.8-1,1.4-2.2,2.1-3.2c0.8,0.4,1.8,0.9,2.8,1.4c-0.2,0.5-0.5,1.2-0.8,1.8c-1.5,2.3-3,4.6-4.4,7c-1.6,2.6-3.8,4.5-6,6.5
		c-0.7,0.6-1.1,1.5-1.6,2.2c-0.9,1.4-1.8,2.8-2.8,4.2h44.7c-0.1-1.2-0.2-2.3-0.4-3.5c-0.3-2.2-0.8-4.3-1.2-6.4
		c-0.7-3.7-1.5-7.4-2.2-11.2c-0.4-2.5-0.6-5-0.8-7.6c-0.4-4.1-0.9-8.2-1.3-12.3c-0.2-2.1-0.4-4.2-0.6-6.3c-0.1-0.9-0.4-1.8-0.8-2.6
		c-0.3-0.7-0.6-1.4-1-2.1c-1.3-2.4-2.7-4.8-3.9-7.3c-0.7-1.4-1-2.9-1.4-4.4c-0.5-2.1-0.9-4.3-1.5-6.5c-0.4-1.6-0.9-3.1-1.5-4.6
		c-0.8-2-2.6-3.3-3.9-4.9c-0.5-0.6-1.1-1.1-1.6-1.7c-0.2-0.2-0.2-0.7-0.1-0.9c0.9-1.8,1.9-3.6,2.8-5.5c0.3-0.6,0.6-0.6,1.1-0.2
		c0.3,0.4,0.7,0.8,0.9,1.2c1.5,2.5,3.6,4.5,6,6.2c1.8,1.2,3.4,2.7,5.1,4c0.2,0.2,0.4,0.4,0.7,0.5c0.3,0.1,0.6,0.1,0.9,0.1
		c-0.1-0.3,0-0.8-0.2-1c-1-0.9-2-1.9-3.1-2.7c-1.6-1.1-2.6-2.4-3.1-4.2c-0.3-1.3-1.1-2.2-2.1-3c-1.4-1.1-2.8-2.4-4.1-3.8
		c-0.4-0.4-0.4-1.1-0.5-1.6c-0.3-1.5,0.8-3.2,2.3-4.1c1.1-0.7,2.1-0.1,3,0.5c0.2,0.2,0.4,0.3,0.8,0.6c-0.5,0.6-1,1.1-1.4,1.6
		c-0.2,0.3-0.3,0.7-0.4,1.1c0.4-0.1,0.8-0.1,1.2-0.3c0.7-0.4,1.4-0.9,2.1-1.4c-0.1-0.2-0.2-0.3-0.3-0.5c0.7,0.9,1.4,1.7,1.9,2.6
		c0.9,1.7,2.2,3.1,3.8,4.2c1.5,1.1,2.7,2.4,3.7,3.9c0.2,0.3,0.7,0.4,1,0.6c0-0.4,0.1-0.9-0.1-1.2c-0.9-1.8-1.9-3.7-3-5.4
		c-0.7-1.1-1.5-2.1-2.3-3c-1-1.1-2.2-2.1-3.1-3.2c-0.4-0.5-0.6-1.1-0.9-1.7c-0.2-0.4-0.5-0.7-0.7-1.1c-0.2,0.4-0.3,0.7-0.5,1.1
		c-0.1,0.2,0,0.4,0,0.5c-1.6-0.4-3.2-0.8-4.8-1.3c-0.2-3.2,0.7-5.6,4.3-5.6c2.1,0,4.3-0.4,6.4-0.5c0.4,0,0.8,0.1,1.3,0.2l0.2,0.3
		c-0.3,0.4-0.7,0.7-1,1.1c-0.2,0.3-0.3,0.6-0.5,0.9c0.4,0,0.8,0.2,1.1,0c0.5-0.3,0.9-0.7,1.5-1.2c1.1,1.9,2.2,3.8,3.3,5.7
		c1.5,2.6,3.1,5,5.8,6.5c0.2,0.1,0.3,0.3,0.4,0.3c0.3,0.1,0.6,0.2,1,0.2c-0.1-0.3-0.1-0.7-0.2-1c-0.2-0.3-0.6-0.6-0.9-0.8
		c-2.2-1.4-3.7-3.5-4.9-5.7c-0.3-0.6-0.7-1.2-0.9-1.7c0.2-0.7,1.6-0.5,0.9-1.5c-0.1-0.2-1,0-1.6,0c-0.5-0.7-1.1-1.6-1.8-2.6
		c-0.9-1.3-2.1-2-3.7-1.9c-1.6,0.1-3.1,0.4-4.7,0.5c-0.6,0.1-1.2,0-1.9-0.1l-0.2-0.3c0.2-0.1,0.5-0.3,0.7-0.4c1.2-0.8,2-1.9,1.9-3.4
		c0-0.2,0.5-0.5,0.7-0.5c1.8,0.1,3.6,0.2,5.4,0.4c2.2,0.2,4.3,0.6,6.5,0.9c0.1,0,0.2,0,0.3,0c1.1,1,2.8,0.8,4.1,1.7
		c-0.5,0.3-0.9,0.5-1.3,0.9c-0.1,0.1-0.2,0.5-0.1,0.7c0.1,0.1,0.5,0.2,0.7,0.2c0.4-0.1,0.9-0.4,1.4-0.6c0.7,2,1.6,3.9,1.6,6
		c0,2.2,0.5,4.3,0.9,6.5c0.4,2,0.4,4.1,0.1,6.1c-0.5,4-1.3,7.9-1.9,11.8c0,0.2,0,0.3,0,0.5c-0.1,3.6-0.3,7.1-0.2,10.7
		c0,1.8,0.5,3.7,0.9,5.5c0.9,3.6,2,7.3,3.1,10.8c0.8,2.7,2,5.3,2.7,8.1c2.3,8.9,5.1,17.7,8.4,26.2c1.2,2.9,2.9,5.5,4.7,8
		c1.3,1.7,2.1,3.6,2.9,5.6h1.9c0-0.1-0.1-0.2-0.1-0.3c-0.7-2.1-1.6-4.1-3-5.9c-1.8-2.5-3.7-5.1-4.8-8.1c-1.1-2.9-2.3-5.8-3.2-8.7
		c-1.8-5.6-3.4-11.2-5-16.8c-0.5-1.8-1-3.7-1.5-5.6c-0.3-1-0.7-2-1.1-3.1c0.2-1.1,0.4-2.3,0.8-3.5c1.1-2.8,2.3-5.6,3.5-8.4
		c0.1-0.3,0.4-0.6,0.4-0.9c0-0.4-0.3-0.7-0.5-1.1c-0.3,0.2-0.8,0.2-1,0.5c-0.3,0.4-0.6,0.8-0.7,1.3c-0.8,3.1-3.2,5.6-3.6,8.9
		c0,0-0.1,0.1-0.1,0.1c-0.7-2.8-1.4-5.5-2.2-8.3c-0.7-2.4-0.9-4.9-0.8-7.4c0.1-2.8,0.2-5.7,0.4-8.5c0-0.4,0-0.9,0.1-1.3
		c0.6-2.4,1.7-4.4,3.5-6.1c0.7-0.6,1.3-1.3,1.8-2.1c1-1.5,1.3-1.6,3.3-1c2.5,0.7,4.8,1.9,6.5,3.9c0.2,0.3,0.6,0.5,0.9,0.7
		c1.8,1.3,3,2.9,3.9,5c1.5,3.4,1.8,7,2.2,10.7c0.3,2.8,0.6,5.5,1.1,8.3c0.4,2.9,1.1,5.7,1.4,8.5c0.4,3.8,0.4,7.6,0.6,11.4
		c0.2,3.7,0.5,7.4,0.6,11c0.1,2.4-0.1,4.9-0.1,7.4c0,2.9,0.1,5.9,0.2,8.8c0,1.5,0,3,0,4.5c0,2,0.1,4.1,0.2,6.1h1.6
		c-0.1-1.6,0-3.3-0.1-4.9c-0.1-4.8-0.1-9.6-0.2-14.5c0-1.6,0.2-3.2,0.2-4.9c-0.1-2.8-0.3-5.7-0.4-8.5c-0.1-3.2-0.1-6.4-0.3-9.7
		c-0.2-3.7-0.3-7.3-1.1-11c-0.7-3.1-1.1-6.3-1.5-9.5c-0.3-2.5-0.4-4.9-0.6-7.4c-0.2-2.5-1.1-4.7-1.9-7c-0.8-2.4-2.5-4.2-4.4-5.7
		c-1.1-0.8-2-1.9-3.1-2.7c-1.9-1.4-4.3-2-6.8-2.8c1.2-1.2,2.2-2.3,3.4-3.4c3-2.8,6.2-5.4,8.6-8.9c0.7-1.1,1.5-2.1,2.3-3.2
		c0.5-0.6,0.2-1.6-0.8-2.1c-4.5-2.1-8.5-5.1-13.2-6.9c-2.5-0.9-4.7-2.5-6.8-3.7c0-1.5,0-2.7,0-4c0.1-2.1,0.3-4.3,0.3-6.4
		c0-1.4,0.7-2.6,1.4-3.7c1.1-1.8,1.4-3.7,0.7-5.7c-0.6-2-0.5-4-0.3-5.9c0.3-2.2,0.7-4.4,1.2-6.6c0.2-1.1,0.7-2.1,1.1-3.2
		c0.6-1.7,0.7-3.4,0.7-5.2c0.1-1.8-0.3-3.6-0.7-5.3c-0.2-0.7-0.3-1.4-0.8-2c-2.2-3-3.2-6.4-4.7-9.7c-1.3-2.7-2.8-5.2-5.4-6.8
		c-2.3-1.4-4.1-3.5-6.7-4.5c-3.3-1.2-6.6-2.4-9.9-3.7c-1.1-0.4-2.2-0.7-3.3-1.2c-1.8-0.7-3.6-0.8-5.4-1.2C98.1-0.2,94-0.3,89.9,1.1
		c-1,0.3-2.1,0.6-3.1,0.8c-2.8,0.6-5.1,2-7.4,3.4C78.2,6,77.2,6.7,76,7.2c-2.4,1-4.1,2.7-5.5,4.8c-1.1,1.7-2.6,3-4.3,4.1
		c-1.6,1-2.9,2.5-3.7,4.3c-0.1,0.2-0.2,0.4-0.4,0.5c-1.5,1-2.3,2.5-2.9,4.1c-1.2,3.1-1.9,6.3-1.7,9.7c0.2,2.9-0.6,5.5-1.5,8.1
		c-1,2.9-2.1,5.7-2.2,8.9c-0.1,2.5,0.6,4.7,1.7,6.8c1.1,2.1,2.6,4,3.7,6.1c0.7,1.3,1,2.9,1.5,4.4c0.1,0.2-0.2,0.4-0.2,0.6
		c-0.7,1.8-1.3,3.5-2,5.3c-0.4,1-0.9,2-1.3,3c-0.6,1.3-1,2.7-1.9,3.9c-0.9,1.3-0.7,2.8-0.6,4.3c0.1,1.2,1,2.2,0.6,3.5
		c-0.1,0.3-0.3,0.6-0.5,0.8c-0.3,0.3-0.7,0.6-1.1,0.9c-2.2,1.6-2.3,3.1-0.4,5.1c-1.1,1-1.1,2.2-1.1,3.5c0,0.6-0.1,0.9-0.8,1.1
		c-0.7,0.2-1.3,0.6-1.9,0.9c-2.4,1.5-5,2.5-7.7,3.3c-2.2,0.7-4.3,1.7-6.5,2.5c-1.4,0.5-3,0.9-4.4,1.6c-1.4,0.7-2.8,1.5-4,2.6
		c-1.1,1-2.5,1.7-3.8,2.4c-3.1,1.8-6.3,3.6-9.5,5.2c-2.6,1.3-4.4,3.3-6,5.7c-1,1.5-2.3,2.9-3.2,4.5c-1.1,1.9-1.9,3.9-2.9,5.9
		c-0.5,1.1-0.9,2.2-1.3,3.3C0,139.4-0.2,139.9,0.4,140.2z M65.9,152.7c-1.3,1.1-2.7,2.2-4,3.4c-1.5,1.4-2.9,2.8-4.4,4.2
		c-0.2,0.1-0.5,0.1-0.8,0.1c0-0.2-0.1-0.4,0-0.7c0-0.2,0.1-0.4,0.2-0.6c0.9-2,1.8-4.1,2.7-6.1c0.1-0.2,0.3-0.4,0.5-0.4
		c2.2-0.3,4.4-0.6,6.5-0.8c0,0.1,0.1,0.2,0.1,0.3C66.5,152.3,66.2,152.5,65.9,152.7z M82.4,147.4c-0.6-0.5-0.9-1.2-1.5-2
		c0.3-0.5,0.5-1,0.7-1.1c1.4-0.6,2.9,0.4,2.8,2c0,0.5-0.2,1.2-0.6,1.4C83.5,147.8,82.8,147.7,82.4,147.4z M91.9,148.9
		c0-1,0.3-1.4,1.2-1.4c1.4,0,2.3,0.8,2.3,2c0,1.3-0.5,2-1.5,2C92.8,151.5,91.9,150.4,91.9,148.9z M93.6,157.8
		c-1.4-1.2-1.4-2.1,0-3.1c0.9-0.7,2.2-0.2,2.1,1c0,1.1-0.4,2.1-0.6,3.4C94.4,158.5,94,158.1,93.6,157.8z M91.1,167.7
		c-0.1-0.7,0.5-1.4,0.8-2.1c1.7,0.7,2.1,1.7,1.4,3.5C92.3,169.1,91.2,168.5,91.1,167.7z M115.1,154.1c0.1,1.5-0.1,2.8,0.2,4
		c0.5,2.1-0.3,3.7-1.5,5.1c-2,2.4-4.1,4.7-6.4,6.8c-2.7,2.5-5.8,4.5-9.2,5.9c-2.2,0.9-4.5,0.9-6.9,0.9c0.1-0.3,0.1-0.4,0.2-0.5
		c0.7-1.3,1.5-2.5,2.2-3.8c0.1-0.1,0.3-0.2,0.4-0.2c1,0.4,1.9-0.2,2.7-0.6c2.1-0.9,4.3-1.6,6.1-2.9c3.9-2.9,7-6.6,9.9-10.5
		C113.6,157,114.2,155.6,115.1,154.1z M104,116.9c0.8,1,1.3,2.2,1.2,3.5c0,0.3-0.3,0.6-0.5,0.8c-2.6,1.3-5.2,2.5-7.9,3.8
		c0-1.4,0-2.8,0-4.1c0-1,0.3-1.8,1.2-2.3c0.5-0.3,0.7-0.6,0.7-1.2c-0.1-0.7-0.1-1.5-0.2-2.2c-0.1-1.3-0.2-2.5,0.5-3.9
		C100.8,113.2,102.5,115,104,116.9z M109.2,86c-0.2-0.4-0.5-0.7-0.5-1c0-0.5,0-1.3,0.3-1.5c0.8-0.5,1.8-0.7,2.9-1
		C112.1,84.6,110.5,85.2,109.2,86z M139.8,80.7c4.5,1.8,8.5,4.5,12.7,6.7c0.1,0.1,0.2,0.2,0.5,0.4c-1.2,1.7-2.4,3.4-3.6,5
		c-0.9,1.1-1.9,2.3-3,3.2c-3.4,3-6.9,5.9-9.2,9.9c-1,1.7-2.4,3.2-3.6,4.8c0.1-1.5,0.4-2.8,0.6-4.2c0.4-3.1,0.7-6.1-0.3-9.1
		c-0.3-0.8-0.5-1.7-0.5-2.6c0.2-3.2-0.7-6.1-1.8-9c-0.2-0.5-0.5-1.1-0.9-1.3c-1.7-0.7-3.4-1.5-5.2-1.9c-2.7-0.6-5.5-0.9-8.3-1.1
		c-2.9-0.3-5.8-0.3-8.6,1c-1.1,0.5-1.6,1.5-1.3,2.6c0.3,0.8,0.8,1.6,1.2,2.4c-1.4,0.6-2.5,1.6-2.8,3.2c-0.3,1.5-0.8,3-0.1,4.6
		c-1.5,1.1-2.5,2.6-2.6,4.4c-0.1,2.1-1.6,3.7-1.8,5.7c0,0,0,0-0.1,0.1c-1.1,1.7-2.1,3.5-3.2,5.2c-0.9,1.5-0.8,3.1-0.6,4.8
		c0.1,0.8,0.2,1.8-0.2,2.3c-0.9,1-2.1,1.7-3.3,2.6c0.6-1.9,1.1-3.7,1.6-5.4c0.4-1.5,0.4-3.1,1-4.5c1.1-2.5,1.8-5.1,2.2-7.8
		c0.4-2.8,0.9-5.5,2.2-8.1c0.1-0.2,0.1-0.4,0.1-0.6c0.2-1.7,0.4-3.4,0.7-5.1c0.5-2.5,1.3-4.8,2.8-6.8c0.5-0.7,0.7-1.5,0.3-2.3
		c1.9-0.7,3.7-1.3,5.6-1.9c0.4-0.1,0.9,0,1.3,0.1c0.6,0.2,1.1,0.5,1.6,0.8c3.4,2.5,7.2,2.3,11.1,1.8c1.2-0.2,1.7-1.2,1.2-2.4
		c-0.5-1-0.3-1.8,0.5-2.5c0.4-0.4,0.7-0.8,1.1-1.2c0.1-0.1,0.5-0.2,0.6-0.1c1.8,0.9,3.6,1.7,5.3,2.7
		C135.5,78.2,137.5,79.8,139.8,80.7z M93.4,130.3c-0.2,0.3-0.7,0.5-1.1,0.8c-0.6-2.3-0.1-4.4,0-6.5c0.2-2.2,1.6-3.2,3.4-4.2
		C96.2,124,95.2,127.3,93.4,130.3z M125.4,64.2c1.5,0.6,3.4-0.8,3.4-2.4c0-0.7-0.1-1.3-0.1-2.1c0.3,0.1,0.6,0.1,0.8,0.2
		c1.4,0.4,2.1,1.7,3,2.6c0.1,0.1-0.1,0.6-0.3,0.8c-0.7,0.4-1.5,0.9-2.3,1.2c-2.9,0.9-5.6,0.3-8.1-1.4c0.7-1.4,1-1.4,1.9-0.4
		C124.2,63.2,124.7,63.9,125.4,64.2z M125,61.6l0-0.4c0.3-0.1,0.7-0.4,1-0.4c0.2,0,0.4,0.4,0.7,0.7c-0.3,0.2-0.5,0.6-0.8,0.6
		C125.6,62.2,125.3,61.8,125,61.6z M132.7,64.5c-0.2,3.6-0.4,7-0.5,10.7c-1.5-0.8-2.7-1.3-3.8-2.1c-0.8-0.5-1.2-0.4-1.7,0.3
		c-0.5,0.7-1.2,1.4-1.9,2.1c-1.5-2.5-3.2-4.9-3.9-7.7c-0.3-1.3-0.4-2.6,0.3-3.8C124.9,66.1,128.7,66.4,132.7,64.5z M61.4,52.7
		c0.4-1.9,1.4-2.8,3.1-3.3c1.8-0.5,4.2,0.6,4.6,2.2c0.3,1.2,0.6,2.4,0.7,3.6c0.2,2,1.2,3.6,2.3,5.2c0.7,1.1,1.4,2.2,2.1,3.4
		c0.3,0.6,0.6,1.2,0.9,1.8c0.4,0.7,0.9,1.2,1.7,1.1c0.9-0.1,1.3-0.7,1.6-1.4c0.3-0.8,0.5-1.6,0.9-2.3c1.1-2.1,1.9-4.2,2.4-6.5
		c0.2-0.9,0.6-1.9,1.2-2.6c1-1.1,2.2-2.1,3.5-2.8c4-2.2,8-4.3,12-6.4c0.7-0.4,1.4-0.7,1.8-1.3c1.1-1.7,2.4-2.9,4.4-3.7
		c3.2-1.3,6.5-1.3,9.7-0.9c2.4,0.3,4.5,0.2,6.6-1.1c0.4-0.3,1-0.5,1.5-0.6c2.7-0.4,5.4-0.9,8.2-1.1c2.3-0.2,3.4,1,3.4,3.3
		c0,3.2,0.1,6.4,0.2,9.6c0,2.1,0,4.2,0,6.3c-1.7,0.2-3.5,0.5-5.3,0.6c-1.7,0.1-3.1,0.6-4.2,1.9c-0.3,0.3-0.4,0.7-0.6,1l0.3,0.2
		c0.4-0.2,0.8-0.4,1.3-0.5c0.8-0.3,1.6-0.8,2.4-0.9c2.1-0.2,4.2-0.3,6.4-0.4c0.9,0,1.5,0.7,1.1,1.5c-0.5,1-1,2-1.5,3
		c-0.1,0.1-0.3,0.2-0.4,0.3c-0.2-0.4-0.5-0.8-0.7-1.2c-0.9-1.3-2.1-1.9-3.7-2c-2.7-0.2-4.9,1-6.9,2.4c-1.5,1.1-2.6,2.6-2.5,4.7
		c0.1,1.9,0.7,3.7,1.5,5.4c1,2.2,2.1,4.4,3.2,6.5c0.6,1.2,0.5,1.6-0.7,1.8c-3.4,0.5-6.7,0.4-9.6-1.7c-1.6-1.2-3.3-1.9-5.2-0.6
		c-0.2,0.1-0.4,0.2-0.6,0.2c-1.2,0.3-2.5,0.6-3.7,0.8c-0.6,0.1-1.3,0.4-0.9,1.2c0.5,1,0.2,1.7-0.4,2.4c-1.7,2.4-2.4,5.1-2.8,7.9
		c-0.2,2.1-0.5,4.1-1.4,6.1c-0.5,1.1-0.7,2.3-1,3.4c-0.4,2.2-0.8,4.3-1.2,6.7c-2-1.2-3.9-2.1-5.5-3.5c-3.7-3.1-7-6.6-9.4-11
		c-2.4-4.4-4.2-9.1-5.6-13.9c-0.7-2.3-0.8-4.9-1-7.3c-0.1-1.6-0.4-3-2-3.7c-1.4-0.6-2.3-1.8-3.3-2.8c-0.5-0.4-0.8-0.9-0.5-1.7
		c0.1-0.2-0.2-0.5-0.3-0.8c-0.3,0.2-0.7,0.3-0.8,0.5c-0.2,0.8-0.2,1.6,0.4,2.3c0.7,0.7,1.4,1.4,2.1,2.2c-0.8,0.5-1.4,0.2-2-0.1
		c-0.4-0.2-0.8-0.6-1.2-0.7c-0.8-0.2-1.3-0.6-1.6-1.3c-0.5-1.2-1-2.4-1.5-3.7c-0.2-0.6-0.2-1.4-0.5-1.9c-0.8-1.2-0.6-2.3-0.3-3.5
		c0.1-0.4,0.3-0.8,0.3-1.2c0.2-0.8,0.3-1.7,1.2-1.9c0.8-0.2,1.3,0.4,1.8,1c0,0.1,0.1,0.1,0.1,0.2c0.2,0,0.5,0.2,0.7,0.1
		c0.1-0.1,0.2-0.4,0.2-0.6c-0.3-1.4-2.6-2.2-3.8-1.4c-0.9,0.6-1.1,1.6-1.5,2.5c-0.7,1.7-0.8,3.3,0.1,4.9c0.2,0.4,0.3,0.9,0.5,1.4
		c0.9,2.8,1.4,5.7,4.7,6.9c1.3,0.5,2.4,0.8,3.7,0.2c0.2-0.1,0.5,0,0.7,0.1c1.4,0.6,2,3.2,1.1,4.6c-0.2,0.3-0.4,0.7-0.6,0.7
		c-1.2,0-2.5,0.5-3.6-0.5c-2.4-2.2-4.5-4.6-6.2-7.3c-0.1-0.2-0.2-0.3-0.2-0.5c-0.4-1.3-0.8-2.6-1.2-3.9C61.2,58,60.9,55.4,61.4,52.7
		z M60.2,78.4c1.1,0.2,2.1,0.5,3.2,0.6c0.6,0.1,1,0.5,0.7,1c-0.2,0.3-0.8,0.6-1.2,0.6c-0.5,0-1.1-0.2-1.7-0.3
		C59.6,80.2,59.5,79.9,60.2,78.4z M58.6,88.5c1.2,0,2.4,0.2,3.6,0.4c0.3,0,0.7,0.4,0.7,0.7c0,0.3-0.2,0.7-0.5,0.9
		c-0.4,0.2-0.8,0.2-1.4,0.3c-0.9-0.1-1.8-0.3-2.8-0.5c-0.3-0.1-0.5-0.6-0.7-0.9C57.9,89,58.2,88.5,58.6,88.5z M50.1,103.5
		c2.3-1.1,4.6-2.3,7-3.2c3-1.2,5.9-2.9,8.7-4.5c0.9-0.5,1.8-1.5,2.3-2.4c1.9-3.7,2.7-7.7,3-11.7c0.2-2,0.2-4.1,0.4-6.1
		c0-0.4,0.3-0.9,0.6-1c0.4-0.3,1-0.3,1.5-0.4c0.7-0.2,1,0.1,1.1,0.9c0.1,1.2,0.2,2.4,0.5,3.5c1.3,3.6,2.6,7.2,4.1,10.7
		c1.6,4,4.1,7.4,7,10.5c2.5,2.7,5.2,5,8.5,6.7c0.6,0.3,0.8,0.7,0.8,1.3c-0.2,1.5-0.2,3.1-0.6,4.5c-0.6,2.6-1.3,5.1-2.3,7.6
		c-1.7,4.2-2.3,8.4-1.4,12.8c0.2,0.9,0.4,1.1,1.2,0.5c1.4-1.1,2.1-2.7,2.8-4.2c0.4-0.9,0.8-2,1.6-2.4c2.5-1.4,5.2-2.6,7.8-3.9
		c0.2-0.1,0.7,0.2,0.7,0.3c0.7,2.5,1.2,5,2,7.5c0.3,1.1,0.1,2.2,0.8,3.3c1.5,2.3,2.7,4.8,4,7.2c0.6,1.1,1.3,2.3,1.6,3.5
		c0.3,1.7,0.6,3.5,0.4,5.3c-0.4,3-1.7,5.8-3.6,8.2c-1.6,2-3.3,3.8-5,5.8c-1.8,2.1-3.8,4-6.5,5.1c-0.9,0.4-1.8,0.7-2.7,1.1
		c-0.6,0.2-1.1,0.3-1.8,0.5c0-2.3,0.7-4.5-2-5.6c0.3-0.5,0.6-0.9,0.8-1.3c1-1.8,2.5-3.3,3.1-5.4c0.7-2.2,0.3-3.6-1.2-4.6
		c0,0-0.1-0.1-0.1-0.2c0.2-0.2,0.3-0.5,0.5-0.8c1-1.6,0.9-3.7-0.1-4.9c-1.1-1.2-2.5-1-3.8-0.9c-1.7,0.1-3.3,1.1-4.5,2.3
		c-2.8,2.7-5.6,5.4-8.9,7.7c-2.4,1.7-4.9,3.5-6.6,6c-0.3,0.5-1,0.7-1.5,1.1c-0.1-0.1-0.1-0.2-0.2-0.3c0.5-0.7,0.9-1.4,1.4-2
		c1.4-1.7,2.7-3.5,4.3-5.1c1.1-1.1,2.5-1.8,3.8-2.6c2.3-1.5,4.3-3.3,5.5-5.8c0.6-1.2,0.3-2.7-0.6-3.7c-0.9-1-2.1-1.2-3.5-0.7
		c-3.9,1.5-7.5,3.6-10.7,6.4c-0.5,0.5-1.2,1-1.8,1.1c-2.2,0.2-4.4,0.2-6.7,0.4c-1.6,0.2-3.5,0-4.2,2.3c-0.5-1.2-1-2.1-1.4-3.1
		c-1-2.3-2-4.6-2.3-7.1c-0.2-1.5-0.3-3-0.6-4.5c-1.1-4.8-2.5-9.6-3.1-14.5c-0.2-2.2-0.6-4.4-0.9-6.6c-0.4-2.4-0.7-4.8-1.1-7.2
		c-0.4-1.7-0.9-3.4-1.4-5.1C48.1,104.6,49,104,50.1,103.5z M45.4,105.8c0.5,2,1.2,3.8,1.5,5.8c0.6,3.6,1,7.2,1.6,10.8
		c0.4,2.9,0.8,5.8,1.4,8.6c0.6,2.9,1.5,5.8,2.1,8.8c0.3,1.5,0.2,3.2,0.7,4.7c0.9,2.9,2,5.8,3.3,8.6c0.8,1.7,0.7,3.1-0.3,4.7
		c-0.2-0.3-0.4-0.7-0.6-1c-1-1.9-2.3-3.7-3-5.7c-0.9-2.3-1.4-4.7-2-7.1c-0.5-2.4-0.9-4.8-1.4-7.2c-0.5-2.4-1.1-4.8-1.5-7.2
		c-0.4-2-0.6-4.1-0.9-6.1c-0.4-3-0.8-5.9-1.2-8.9c-0.4-2.7-0.1-5.5-1.8-8C44,106.3,44.6,106.1,45.4,105.8z M31.6,110.9
		c0.4,1.3,0.7,2.5,1.1,3.7c0.4,1.6,0.9,3.1,1.3,4.7c0.4,2.2,0.8,4.4,1.1,6.6c0.5,3.4,1,6.8,1.2,10.2c0.2,3.2,0.1,6.5,0,9.7
		c-0.1,4-0.2,8-0.4,11.9c-0.2,2.6-0.8,5.2-1.8,7.6c-1,2.6-2,5.2-3,7.8c-0.4,1.2-0.9,2.3-1.3,3.5c-0.1,0-0.2,0-0.3-0.1
		c0-1.6-0.2-3.2,0-4.7c0.4-2.3,1-4.5,1.5-6.8c0.7-3,1.6-6,1.9-9.1c0.3-3.2,0.9-6.4,0.8-9.7c-0.2-5.9-0.3-11.7-0.5-17.6
		c-0.1-1.9-0.3-3.8-0.7-5.7c-0.7-3.2-1.7-6.4-2.5-9.5C29.5,111.8,29.6,111.5,31.6,110.9z"/>
	<path class="st0" d="M94,62.3c-0.2-0.1-0.6-0.2-0.6-0.3c0-0.3,0-0.8,0.2-0.9c1.1-0.8,2.2-1.6,3.3-2.4c2-1.4,4.3-1.4,6.6-1.1
		c0.7,0.1,1.5,0.4,1.9,0.9c1.1,1.4,2.1,2.8,3.1,4.3c0.2,0.3,0.2,0.7,0.3,1c-0.4,0.1-0.7,0.2-1.1,0.2c-1.1,0.1-2.2,0.1-3.3,0.2
		c-1.4,0.1-2.9,0.5-4.3,0.5c-1.7,0-3.1-1-4.5-1.9c-0.5-0.3-1-0.5-1.6-0.8C94.1,62.1,94.1,62.2,94,62.3z M95.7,61.3
		c-0.1,0.2,0.5,0.6,0.8,0.8c1.9,1.6,4.1,1.8,6.4,1.3c1.4-0.3,2.7-0.5,4.2-0.8c-1.3-1.6-1.9-4-4.5-4c-0.2,1-0.4,2-0.7,3
		c-0.1,0.3-0.5,0.5-0.9,0.6c-1.8,0.6-3.4,0-4.4-2C96.2,60.7,95.8,61,95.7,61.3z M99.8,60.4c0.2,0,0.4-0.3,0.6-0.5
		c-0.2-0.2-0.4-0.6-0.7-0.7c-0.2-0.1-0.5,0.2-1.1,0.5C99.2,60.1,99.5,60.3,99.8,60.4z"/>
	<path class="st0" d="M100.2,53c-1.8,0.5-3.6,1-5.4,1.5c-0.2,0.1-0.4,0.2-0.5,0.4c-0.2,0.2-0.4,0.6-0.3,0.7c0.1,0.2,0.5,0.4,0.7,0.4
		c0.8-0.2,1.6-0.3,2.4-0.7c1.1-0.5,2.1-0.9,3.3-0.5c3.2,1.1,6.5,2.2,9.7,3.2c0.5,0.2,1.1,0.2,1.7,0.3c0.8,0.1,1.1-0.3,1.2-1.1
		c0.1-0.8-0.4-0.9-0.9-1.1c-3.5-1-7-1.9-10.6-2.9c-0.4-0.1-0.8,0-1.2,0C100.3,53.2,100.3,53.1,100.2,53z"/>
</g>
</svg>
