<?xml version="1.0" encoding="utf-8"?>
<!-- Generator: Adobe Illustrator 19.2.1, SVG Export Plug-In . SVG Version: 6.00 Build 0)  -->
<svg version="1.1" id="Background_copy_2_xA0_Image_1_"
	 xmlns="http://www.w3.org/2000/svg" xmlns:xlink="http://www.w3.org/1999/xlink" x="0px" y="0px" viewBox="0 0 129.2 200"
	 style="enable-background:new 0 0 129.2 200;" xml:space="preserve">
<style type="text/css">
	.st0{fill:#512DA8;}
</style>
<g id="icon-hives">
	<path class="st0" d="M108.5,200c-0.3-1.9-0.6-3.9-1.1-5.8c-1.2-4.7-2.6-9.4-3.7-14.1c-0.7-2.9-1.2-5.8-1.9-8.8
		c-0.1-0.5-0.4-0.9-0.6-1.3c-1.7,1.2-3.2,2.4-4.8,3.5c-1.6,1.1-3.3,2-5,2.9c-1.7,0.9-3.3,1.8-5.1,2.5c-1.7,0.7-3.3,1.7-5.1,2
		c-0.1-0.2-0.2-0.3-0.2-0.5c0.8-0.5,1.6-1.1,2.6-1.5c5.5-2.1,10.5-5.3,15.3-8.8c0.2-0.2,0.4-0.4,0.6-0.6c0.1-0.2,0.3-0.4,0.4-0.6
		c-2.9-2.4-4.9-5.6-6.9-8.7c-0.7-1-1.3-1.1-2.4-0.6c-2,0.9-4.1,1.6-6.2,2.3c-1.2,0.4-2.5,0.7-3.8,1c-0.2,0-0.5-0.3-0.7-0.4
		c0.2-0.2,0.4-0.5,0.7-0.5c1.3-0.4,2.6-0.7,3.9-1.2c2.3-0.9,4.6-1.9,7.2-3c-1.2-1.8-2.3-3.5-3.3-5.2c-1.5-2.5-2.9-4.9-4.2-7.5
		c-1.4-2.7-2.7-5.4-3.9-8.2c-2.2-5-4.3-10.1-6.4-15.1c-0.5-1.2-0.7-2.6-1.2-3.8c-0.6-1.7-1.4-3.3-2.1-5c-0.1-0.2-0.5-0.3-0.8-0.4
		c-0.1,0-0.3,0.1-0.4,0.2c-3,1.9-6.5,2.3-9.9,3c-1.1,0.2-2.3,0.1-3.6,0.2c-0.5,2.2-1.1,4.5-1.6,6.8c-0.7,3.2-1.3,6.3-2,9.5
		c-0.2,0.8-0.5,1.7-0.8,2.5c-1.8,5.5-3.5,10.9-5.4,16.4c-0.9,2.6-1.9,5.2-2.9,7.7c-0.1,0.4-0.2,0.7-0.4,1.4c2.2-0.3,4.1-0.7,6.1-1
		c1.6-0.2,3.2-0.4,4.8-0.5c0.4,0,0.8,0.4,1.2,0.6c-0.4,0.2-0.8,0.6-1.2,0.7c-3.2,0.6-6.4,1.1-9.6,1.6c-0.2,0-0.5,0.1-0.7,0.1
		c-1.4-0.5-1.8,0.5-2.3,1.4c-1.7,3.2-3.4,6.3-5.2,9.4c-1.4,2.4-2.9,4.9-4.5,7.2c-1.6,2.3-3.2,4.5-6.2,5.2c-0.3,0.1-0.6,0.4-0.7,0.7
		c-1.4,4.6-2.7,9.3-4.1,13.9c0,0.1,0,0.2,0,0.4c-0.5,0-0.9,0-1.4,0c1.4-4.6,2.7-9.3,4.1-13.9c0.2-0.6,0.1-0.9-0.6-1.1
		c-5-1.1-8.4-4.5-10.8-8.7c-2.3-4-4.4-8.2-6.3-12.4c-1-2.3-1.3-5-1.8-7.6c-0.3-1.4-0.5-2.9-0.5-4.3C3,143.6,2.9,135.3,2.7,127
		c-0.1-2.6-0.6-5.2-1-7.8c-0.1-1.2-0.2-2.4-0.3-3.5c-0.2-1.6-0.5-3.1-0.8-4.6c-1.1-6.2-1.2-12.5,2.5-17.9c3-4.5,7.2-7.5,12.8-8.4
		c3.1-0.5,6.2-0.9,9.3-1.5c1.3-0.3,2.5-0.9,3.6-1.6c1.9-1.1,3.7-2.3,5.5-3.6c1-0.7,1.4-1.7,1.3-2.9c-0.1-0.9,0-1.8,0.1-2.7
		c0.2-1.8,1.2-3.2,2.8-4c1.7-0.9,3.5-1.5,5.2-2.2c0.3-0.1,0.7-0.5,0.7-0.8c0.5-3.2,1.2-6.4,0.9-9.6c-0.1-0.6-0.5-1.3-1-1.8
		c-0.5-0.6-1.2-1.1-1.9-1.6c-3-2.2-3.8-5.4-3.9-8.9c-0.1-4.1,0.7-8.1,2-12c0.8-2.4,2-4.6,2.9-6.9c0.9-2.5,1.6-5,2.6-7.4
		c0.6-1.6,1.5-3.2,2.4-4.7c1.8-2.6,3.6-5.3,5.7-7.7c2.6-3,5.7-5,9.9-4.7c2.7,0.2,5.3,0.5,8,1.2c3,0.8,6,1.5,8.7,3.1
		c3.5,2,6.5,4.5,8.5,8.1c1.5,2.7,3.3,5.4,4.4,8.3c1.8,4.6,1.5,9.5,1.4,14.4c0,0.1,0,0.2,0,0.2c-1.4,2.3-0.8,4.8-0.7,7.3
		c0,0.9-0.3,1.8-0.6,2.7c-0.3,0.9-0.8,1.8-1,2.8c-0.4,1.7-1.1,3.1-2.3,4.3c-1.2,1.1-1.4,2.3-1.1,3.9c1.2,6.2,3.9,11.9,5.9,17.9
		c0.5,1.4,1,2.9,1.6,4.6c0.7,0.2,1.8,0.6,2.8,0.8c4,0.5,8.1,0.8,12.1,1.3c3.8,0.4,7.6,1.2,9.9,4.5c1.4,2,2.1,4.5,3,6.9
		c0.3,0.8,0.4,1.8,0.5,2.7c0,0.2,0,0.5,0.2,0.7c1.1,1,0.7,2.3,0.7,3.5c0.1,4.6,0.2,9.2,0.2,13.7c0,3-0.2,5.9,0,8.9
		c0.3,6.1,0.8,12.2,1.2,18.3c0.2,2.5,0.3,5,1.4,7.3c0.3,0.5,0.1,1.3,0,2c-0.1,1.6-0.3,3.2-0.2,4.7c0.2,2.8-1.1,5.1-1.9,7.6
		c-0.3,1.2-1,2.3-1.5,3.5c-0.7,1.6-1.5,3.3-2.1,5c-0.7,2.1-2,3.7-3.7,5.2c-1.5,1.4-3.2,2.6-4.8,3.9c-1.8,1.4-3.9,1.5-5.8,0.1
		c-1-0.8-1.9-1.8-2.9-2.8c-0.8-0.9-1.6-1.8-2.4-2.7c-0.1,0.1-0.3,0.2-0.4,0.2c0.6,2.7,1.1,5.4,1.8,8.1c1.3,5.1,2.8,10.1,4.2,15.1
		c0.2,0.9,0.2,1.9,0.3,2.8C109.4,200,108.9,200,108.5,200z M16.4,101.3c0.1-0.1,0.2-0.2,0.4-0.3c3.5,1.6,6,4.2,7.8,7.6
		c0.1-0.7,0.2-1.4,0.1-2c-0.7-3.5-0.9-7-2.7-10.2c-0.1-0.2,0-0.6,0-0.9c0.2,0.2,0.6,0.3,0.7,0.5c0.7,1.3,1.4,2.6,1.8,3.9
		c1.1,3.8,1.4,7.7,1.3,11.6c0,0.8-0.1,1.7,0.1,2.5c0.9,4,1.9,8,2.9,12c0.2,0.9,0.1,1.8,0.2,3c0.6-0.7,1.1-1.1,1.4-1.6
		c1.8-2.6,3.1-5.5,4.1-8.6c0.9-2.7,1.6-5.4,2.7-8.1c1-2.4,1-4.3-0.7-6.6c-1.8-2.5-3-5.4-4.5-8c-0.7-1.3-1.6-2.5-2.2-3.8
		c-1.2-2.6-2.2-5.3-3.3-7.9c0-0.1-0.1-0.1-0.2-0.1c-2.1,0.3-4.2,0.5-6.3,0.9c-4.6,0.8-9,1.7-12.7,4.9c-3.3,2.9-5.3,6.3-5.8,10.5
		c-0.5,4.1-0.6,8.3,0.8,12.4c0.4,1.1,0.3,2.3,0.4,3.4c0,0.6-0.2,1.3-0.1,2c0.4,2.8,1.1,5.7,1.2,8.5c0.2,7.3,0.4,14.6,0.3,21.8
		c-0.1,4.2,0.6,8.3,1.7,12.3c0.7,2.6,2,5,3.1,7.4c1.8,4,3.7,7.9,6.8,11.2c2,2.1,4.2,3.7,7.1,4.2c1.6,0.3,3.1,0.3,4.3-0.9
		c1.2-1.2,2.4-2.5,3.3-4c1.8-2.9,3.5-5.9,5.2-8.8c1.3-2.3,2.7-4.6,3.8-7.1c1.4-3.2,2.5-6.6,4-9.9c2.9-6.4,5-13.1,6.9-19.9
		c1.9-6.6,3.1-13.3,4.6-19.9c-5.3-1.8-10.6-3.6-15.9-5.4c-0.1,0.6-0.2,1.2-0.4,1.7c-1.1,3.2-2.1,6.4-3.2,9.6
		c-1.2,3.5-2.7,6.8-4.9,9.8c-1.5,1.9-2.7,4.1-4,6.1c-1.1,1.7-2,3.6-3.3,5.2c-2,2.5-4.3,4.7-6.3,7.2c-1.1,1.3-1.9,2.9-2.4,4.5
		c-0.6,1.8-0.7,3.8-1.1,5.7c0,0.2,0,0.3,0,0.5c0.6,1.5,1.2,3,1.8,4.4c0.1,0.3,0.1,0.7,0.2,1.1c-1.6-0.8-2.1-2-2.3-3.5
		c-0.1-1.3-0.5-2.6-0.8-4.2c-1,0.8-2,1.7-3.1,2.6c-0.2,0.2-0.7,0.1-1,0.2c0.1-0.3,0-0.7,0.2-0.9c1.2-1,2.5-1.8,3.7-2.8
		c0.3-0.3,0.6-0.6,0.7-1c0.8-2.1,1.3-4.4,2.5-6.2c1.5-2.4,3.6-4.5,5.5-6.7c1.1-1.3,2.4-2.4,3.2-4c1-2,2.2-3.8,3.3-5.8
		c0.1-0.3,0.2-0.6,0.2-0.9c-0.3-2.9-0.4-5.9-1-8.8c-0.6-3.4-1.6-6.8-2.4-10.2c-0.6-2.6-1.5-5-3.6-6.8c-1.1-0.9-2.3-1.7-3.4-2.6
		C16.9,102,16.7,101.6,16.4,101.3z M57.9,53.8c0-0.1,0.1-0.3,0.1-0.4c0.2,0,0.4,0,0.5,0c2.2,0.3,4.3,0.8,6.5,1
		c2.8,0.3,5.4-0.3,7.9-1.5c2.4-1.3,4.7-2.8,7-4.3c0.7-0.4,1.3-1.2,1.6-1.9c1-2.7,2-5.4,3.1-8.1c1.6-3.6,2-7.5,1.2-11.3
		c-0.9-4.6-1.7-9.3-4.7-13.3c-2.8-3.7-5.8-6.9-10.2-8.4c-1.2-0.4-2.6-0.6-3.9-0.6c-1.5,0-3,0.1-4.5,0.3c-2.7,0.5-5.4,1.2-8,1.9
		c-0.3,0.1-0.6,0.3-0.9,0.6c-1.5,1.9-3.1,3.8-4.5,5.8c-0.8,1.2-1.4,2.5-2,3.9c-1,2.6-1.8,5.3-2.7,7.9c-0.2,0.5-0.5,0.9-0.7,1.4
		c-0.5,0.9-1.1,1.7-1.4,2.6c-0.9,3.9-2,7.8-2.5,11.8c-0.7,5.5,0.7,8.4,4.8,11.4c1,0.7,1.7,1.5,1.7,2.6c0.1,1.8,0,3.6-0.1,5.4
		c-0.1,1.7-0.3,3.3-0.5,5c2.5,0.2,4.6,0.5,5.5,2.8c1.6,0.1,3.1,0.5,4.1,1.8c1.1,1.4,1.4,2.7-1.2,3.2c-0.4,0.1-0.9,0.1-1.3,0.1
		c-0.8,0-2.2,1.4-2.4,2.2c-0.3,1.8-0.7,3.5-1.1,5.3c-0.1,0.3,0,0.7,0,1c0.1,0,0.3,0.1,0.4,0.1c0.4-1.1,1-2.2,1.2-3.4
		c0.3-1.8,1.5-2.8,2.7-3.8c1.3-1.1,2.6-2.1,4.4-1.7c0.6,0.2,1.4,0.2,1.8,0.6c0.5,0.4,0.6,1.1,0.9,1.7c1.7-1.1,2.6-0.9,3.9,1
		c0.4,0.6,0.9,1.2,1.3,1.7c0-0.3-0.1-0.6-0.2-0.9c-0.9-1.7-1.9-3.5-2.8-5.2c-0.6-1.2-0.4-2.5,0.5-3.1c1.4-1,2.6-0.9,3.6,0
		c0.7,0.6,1.4,1.2,2.2,1.7c-0.8-0.8-1.5-1.7-2.1-2.6c-1.2-1.7-0.9-3.2,0.7-4c1.5-0.8,3-0.8,4.3,0.3c2.7-1.8,4.4-0.2,6.1,1.9
		c0.3-1.1,0.4-2,0.6-2.8C80,60,81,56.5,81.9,53c0.1-0.2,0-0.6-0.1-0.8c-1-0.8-1.2-1.8-1-3.3c-0.9,0.6-1.5,1-2.1,1.4
		c-1.3,0.8-2.5,1.7-3.8,2.4c-2.8,1.5-5.8,2.8-9.1,2.5c-2.2-0.2-4.4-0.7-6.6-1.1C58.7,54.1,58.3,53.9,57.9,53.8z M109.2,98.9
		c1.4,0.6,1.3,1.1,0.6,1.8c-0.4,0.4-0.9,1-1,1.6c-0.9,3.9-2.7,7.4-5.1,10.6c-0.6,0.9-0.9,2.1-1,3.2c-0.3,3.1-0.4,6.1-0.6,9.2
		c-0.1,1,0,1.8,0.7,2.7c0.9,1.1,1.7,2.3,2.5,3.6c1.7,2.7,3.8,4.9,6.5,6.7c2.5,1.6,5.1,3.4,6.8,6c0.2,0.2,0.5,0.4,0.8,0.5
		c1.7,0.5,3.5,0.9,5.2,1.4c0.5,0.1,0.8,0.6,1.2,0.9c-0.1,0.1-0.1,0.3-0.2,0.4c-2-0.5-4-1-6-1.5c-0.1,0.1-0.1,0.2-0.2,0.3
		c0.3,0.9,0.6,1.8,1,2.6c0.1,0.3,0.3,0.6,0.5,0.7c1.9,0.6,3.2,2.1,4.2,3.7c0.7,1.1,1.3,2.3,2.1,3.6c0.1-0.4,0.3-0.7,0.3-1.1
		c0.1-1.5,0.4-2.9,0.3-4.4c-0.1-1.9-0.6-3.8-0.9-5.7c-0.1-0.9-0.5-1.8-0.5-2.7c-0.2-3.7-0.2-7.5-0.5-11.3c-0.2-4-0.8-8-0.9-12
		c-0.2-5.1-0.2-10.3,0-15.4c0.2-4.1-0.6-7.9-1.6-11.8c-0.4-1.4-1.2-2.7-1.6-4.2c-0.6-2.4-2.3-3.8-4.4-4.8c-2.7-1.3-5.6-1.4-8.5-1.5
		c-4.2-0.2-8.4-0.8-12.4-2.1c-1.5-0.5-2.9-1.4-4.5-2.2c-0.2,0.6-0.4,1.2-0.5,1.8c-0.7,3.2-1.3,6.4-2.2,9.6c-0.8,2.8-1.9,5.4-2.9,8.1
		c-0.4,1-0.4,2-0.1,3.1c0.3,1.5,1.5,2.5,2.2,3.8c1.6,3.1,3,6.3,4.4,9.5c1.5,3.2,3,6.5,5.3,9.2c0.4,0.5,0.7,1,1.1,1.5
		c0.3,0.3,0.7,0.5,1,0.7c0.2-0.4,0.6-0.8,0.6-1.2c0.1-2,0-4,0.2-6c0.3-3.5,0.7-7.1,1.1-10.6c0-0.4,0.4-0.7,0.6-1
		c0.1,0,0.2,0.1,0.3,0.1c0,1.6,0,3.2,0,5.1c2-2.9,3.4-5.7,4.3-8.7C107.9,101.6,108.6,100.3,109.2,98.9z M126.8,157
		c-0.1,0-0.2,0.1-0.4,0.1c-0.4-0.4-0.8-0.8-1.1-1.3c-0.8-1.2-1.5-2.4-2.3-3.6c-0.3-0.4-0.8-0.6-1.2-0.8c-0.1,0.1-0.3,0.1-0.4,0.2
		c0.2,1.3,0.3,2.7,0.5,4c0.4,2.3-0.3,4.4-1.6,6.4c-0.3-0.5-0.4-1-0.4-1.4c0-0.5,0.2-0.9,0.2-1.4c0-1.8-0.2-3.6-0.1-5.4
		c0.2-3.8-1.3-7.1-3.5-9.9c-1.7-2-4.1-3.5-6.1-5.2c-1.6-1.4-3.4-2.7-4.8-4.4c-2.5-3-4.9-6.1-7.2-9.2c-1.3-1.8-2.8-3.5-3.8-5.4
		c-2.4-4.7-4.5-9.5-6.7-14.3c-0.6-1.4-0.6-1.5-2-0.7c-1.1,0.6-2.2,1.2-3.2,1.8c-3,1.7-5.9,3.5-9.4,4c-0.8,0.1-1.5,0.8-2.1,1.1
		c1,2.7,2,5.3,3,7.9c0.7,1.8,1.3,3.5,2,5.3c1.5,3.6,2.9,7.1,4.5,10.6c2.1,4.5,4.2,9,6.4,13.4c1.2,2.4,2.8,4.6,4.2,6.8
		c1.5,2.4,2.9,4.9,4.5,7.2c1.2,1.7,2.5,3.3,4,4.8c1.5,1.4,3.3,2.6,4.1,4.6c0.1,0.3,0.5,0.6,0.8,0.9c0.9,1,1.9,2,2.8,3
		c0.7,0.7,1.4,1.5,2.2,2.1c1.7,1.2,3,1.1,4.6-0.2c1.6-1.3,3.2-2.4,4.7-3.9c1.1-1.1,2.4-2.3,2.8-3.7c0.9-2.8,2.4-5.3,3.6-8
		C126.2,160.6,126.8,158.8,126.8,157z M69.7,85.2c-0.1,0-0.3,0.1-0.4,0.1c-0.2-0.2-0.4-0.4-0.5-0.6c-0.7-1.4-1.1-2.9-2-4.1
		c-1-1.6-2.3-3-3.5-4.4c-0.8-0.8-1.7-0.3-2.4,0.3c-0.7,0.6-0.5,1.2-0.1,2c1.2,2.6,2.3,5.3,3.2,8c0.8,2.3,1.3,4.7,1.9,7
		c0.1,0.3,0.2,0.7,0.3,1c0.3,3.2,1.2,6.2,2.6,9.2c0.7,1.6,1.3,3.3,1.9,5c0.2,0.5,0.2,1.1,0.3,1.6c1-0.4,1.8-0.7,2.7-1
		c2.1-0.9,4.3-1.7,6.4-2.6c1.7-0.8,3.3-1.9,5.1-2.8c0.9-0.4,1.1-0.8,0.7-1.7c-1.5-3.4-1.7-7-1.3-10.7c0.6-4.9,0.4-9.7-1.4-14.3
		c-1-2.6-2-5.2-3.1-7.7c-0.1-0.3-0.4-0.6-0.7-0.9c-0.3-0.3-0.8-0.5-1-0.9c-0.5-0.7-1-1.4-1.5-2.1c-0.9-1.1-2-1.3-3.5-0.8
		c0.2,2.1,2.1,3.3,2.8,5.1c0.7,1.8,1.4,3.6,2.3,5.3c0.8,1.6,1.8,3.2,2.8,4.7c-0.1,0.1-0.2,0.1-0.3,0.2c-0.3-0.3-0.6-0.5-0.9-0.9
		c-1.2-1.5-2.1-3.2-2.7-5.1c-1-3.1-2.8-6-4.9-8.5c-1-1.2-2.8-1.5-4-0.6c-1,0.8-1.1,1.8,0,3.3c1.1,1.5,2,3,2.6,4.8
		c1,3,2.4,5.8,3.7,8.6c0.1,0.3,0.1,0.6,0.2,1c-0.2,0.1-0.3,0.1-0.5,0.2c-0.8-2-1.8-3.9-2.5-6c-1-2.8-2.6-5.3-4.9-7.2
		c-0.7-0.6-2.1-0.5-2.8,0.2c-0.7,0.7-0.6,1.6-0.1,2.4c0.5,0.8,1.2,1.6,1.5,2.5c0.6,1.5,1.6,2.9,1.9,4.6c0.3,1.7,1.4,3.3,2.1,4.9
		C69.6,84.5,69.6,84.9,69.7,85.2z M50.5,68.4c0-0.2,0-0.3,0-0.5c-0.8-0.4-1.7-0.8-2.5-1.3c-1.5-0.8-2.8,0.1-4,0.6
		c-1.8,0.7-3.4,2.1-4,4c-0.6,1.6-0.6,3.4-0.8,5.1c-0.1,0.6,0,1.2-0.1,1.8c0,0.5-0.1,1.1-0.2,1.6c-0.1,0-0.3-0.1-0.4-0.1
		c0-3.7-0.1-7.5,2.2-11c-2.1,0.8-3.5,2-3.7,4.2c-0.2,1.8-0.4,3.6-0.7,5.4c-0.2,1.3-0.6,2.6-0.6,3.9c0.1,5.3,2.2,10.3,3.1,15.5
		c0.3,1.5,0.6,3,0.7,4.5c0.1,1.3-0.2,2.6-0.2,3.9c0,0.3,0.4,0.8,0.7,0.9c1.2,0.5,2.4,1.1,3.6,1.4c3.3,1,6.6,2,9.9,3
		c0.3,0.1,1-0.3,1-0.6c0.6-2.8,1.4-5.6,1.5-8.5c0.1-3.2-0.5-6.4-0.9-9.5c-0.4-3.9-0.4-7.7,0.3-11.6c0.1-0.7,0.5-1.3,0.9-1.8
		c1-1.2,2.1-2.3,3.1-3.5c0.3-0.3,0.1-1,0.1-1.5c-1.1,0-2.4-0.4-3.4,0.1c-1.2,0.5-2.1,1.6-3.1,2.5c-0.5,0.5-0.7,1.2-1,1.8
		c-0.9,2-1.8,4-2.7,6c-0.1,0-0.2,0-0.4-0.1c-0.1-0.2-0.3-0.5-0.3-0.7c0.1-1.5,0.3-3,0.5-4.4c0.1-1,0.5-2.1,0.5-3.1
		c0.1-2.2,1.7-3.9,3.9-3.9c0.5,0,1.1-0.3,1.6-0.4c-0.2-0.5-0.5-1-0.7-1.5c-0.1-0.2-0.3-0.3-0.4-0.4c-1.4-1.1-2.9-1.2-4.5-0.3
		c-1.9,1-3.9,1.8-4.6,3.9c-0.6,1.8-0.7,3.8-1.1,5.7c0,0.3-0.1,0.6-0.2,1c-1.1-0.8-0.6-1.8-0.5-2.5c0.3-3.5,1.3-6.6,4.9-8.2
		c0.4-0.2,0.9-0.3,1.3-0.6C49.8,68.9,50.2,68.6,50.5,68.4z M55.7,111c1.7-0.1,3.3-0.1,4.9-0.3c2.5-0.2,5-0.8,7.1-2.3
		c0.9-0.6,1.3-1.1,0.8-2.3c-1.1-2.7-2.1-5.4-3-8.2c-0.6-1.8-0.8-3.6-1.3-5.4c-0.4-1.6-0.8-3.1-1.2-4.7c-0.2-0.8-0.2-1.7-0.5-2.5
		c-0.9-2.5-1.8-5-2.8-7.5c-0.1-0.2-0.2-0.4-0.4-0.7c-0.9,1.1-1.7,2-2.4,3c-0.3,0.4-0.6,0.8-0.7,1.2c-0.3,1.5-0.7,3.1-0.6,4.7
		c0.2,3.9,0.6,7.8,0.8,11.8c0.1,2.7,0.2,5.5,0.1,8.3C56.5,107.6,56,109.2,55.7,111z M86.5,52.2c3.4,0.4,4.3-1.4,5.2-4.1
		c0.3-1.1,0.5-2.2,1-3.1c0.6-1.1,0.5-2.3,0.1-3.3c-0.3-1-0.7-2.4-2-2.5c-1.2,0-2.6,0.3-3.6,0.9c-2.2,1.7-4.1,3.7-4.8,6.6
		c-0.2,1-0.5,1.9-0.6,2.9c0,0.5,0.3,1,0.6,1.4C83.5,52.2,85,52.3,86.5,52.2z M38,99.6c-0.6-2.6-1.1-4.8-1.5-7.1
		c-0.6-2.9-1.3-5.8-1.8-8.8c-0.2-1.3,0-2.6,0-4.1c-1.4,0.8-2.6,1.6-3.9,2.3c-0.9,0.5-0.9,1-0.5,1.8c0.7,1.6,1.4,3.1,2.1,4.7
		C33.9,92.3,35.3,96.1,38,99.6z M85.7,88c0.2,0,0.4,0,0.5,0.1c0.7-3.9,1.5-7.8,2.2-11.7c0-0.2-0.1-0.6-0.3-0.7c-1.5-1-3.1-1.4-5-1.8
		C84.6,78.6,86.4,83.1,85.7,88z"/>
	<path class="st0" d="M45.4,39.1c0.8-0.7,1.6-1.5,2.5-2c1.8-1,3.6-1.8,5.7-1.8c1.3,0,2.5,0.2,3.6,0.7c2.5,1.1,4.6,2.6,5.9,5
		c0.1,0.2,0.1,0.6,0,0.7c-0.1,0.2-0.5,0.2-0.7,0.2c-2.1-0.4-4.2-1-6.3-1.3c-1.3-0.2-2.7-0.2-4.1-0.3c-2.2-0.2-4.3-0.4-6.5-0.6
		C45.5,39.5,45.4,39.3,45.4,39.1z M46.7,39.1c5.3-2.7,10.2-2,14.9,1.1c-1.5-2.3-3.8-3.6-6.4-4.1C52.1,35.5,49.2,36.7,46.7,39.1z
		 M48.4,39.2c4,0.3,7.7,0.7,11.4,1C56.3,38.3,52.7,37.3,48.4,39.2z"/>
	<path class="st0" d="M54,33c-1,0.3-1.7,0.1-2.3-0.5c-0.7-0.6-1-1.5-0.5-2.3C52,29,53,27.8,54,26.6c0.4-0.4,0.9-0.8,1.3-1.2
		c0-0.1,0-0.3,0-0.4c-2.7-0.5-5.4-1-8.3-1.5c0.2-0.2,0.4-0.6,0.7-0.9c1.9-1.9,5.3-2.4,7.3-0.8c1.8,1.4,2,2.8,0.5,4.4
		c-0.3,0.4-0.8,0.6-1.1,1C53.5,28.1,52.6,29,52,30c-0.7,1.3-0.2,2.1,1.3,2.4c0.2,0,0.4,0.1,0.5,0.2C53.9,32.7,53.9,32.8,54,33z
		 M52.7,22.1c-1.4-0.6-2.4,0.4-3.5,0.9c0.5,0.1,1,0.1,1.4,0.3C51.7,23.7,52.4,23.4,52.7,22.1z"/>
	<path class="st0" d="M63.9,25.6c3.6-4.4,8.7-3.5,10.7,0.5c0.2,0.5,0.1,1.1,0.2,1.7c-0.5,0-1.1,0.2-1.6,0.1
		c-1.8-0.5-3.5-1.1-5.3-1.6c-0.7-0.2-1.4-0.1-2.1-0.2C65.2,25.9,64.6,25.8,63.9,25.6z M70.6,24.2c-2.1-0.8-3.7-0.5-4.9,0.9
		c1.3,0.2,2.6,0.4,3.8,0.6C69.8,25.2,70.2,24.7,70.6,24.2z"/>
	<path class="st0" d="M67.3,17.3c3.1,0.5,6.2,1,8.3,3.8c0.2,0.3,0.2,0.7,0.3,1c-0.4-0.1-0.9,0-1.1-0.3c-1.8-2-4.1-2.5-6.6-2.3
		c-0.7,0.1-1.4,0.1-2.1,0c-0.4-0.1-1-0.5-1-0.6c0.1-0.5,0.4-1.1,0.8-1.3C66.2,17.3,66.8,17.4,67.3,17.3z"/>
	<path class="st0" d="M47.3,17.8c0.2-0.1,0.4-0.2,0.6-0.3c1.9-1.1,3.8-1.8,6-1.7c0.4,0,0.9,0.3,1.2,0.6c0.2,0.2,0.2,0.7,0,1
		c-0.1,0.2-0.5,0.3-0.8,0.3c-2-0.4-4-0.1-5.9,0.6c-0.3,0.1-0.7,0-1-0.1C47.5,18.1,47.4,18,47.3,17.8z"/>
	<path class="st0" d="M59.2,33.6c3.2-0.5,3.9-1.5,1.8-4.7c0.7-0.2,1.1,0.1,1.7,1.2c0.5,1.1,0.3,2.7-0.4,3.3
		C61.1,34.2,60,34.3,59.2,33.6z"/>
	<path class="st0" d="M56.8,44.6c-2.3-1.8-4.6-2.6-7.3-1.3c0.2-0.8,0.9-1.2,2.4-1.2C54.4,42.2,56.4,43.1,56.8,44.6z"/>
	<path class="st0" d="M58.2,30.1c0.6,0.6,1,1.1,1.5,1.5c-0.3,0.3-0.8,0.8-1,0.8c-0.6-0.3-1-0.8-1.5-1.2
		C57.4,30.9,57.7,30.7,58.2,30.1z"/>
	<path class="st0" d="M52.2,30.8c0.7-0.4,1-0.7,1.4-0.7c0.3,0,0.5,0.5,0.8,0.7c-0.3,0.3-0.6,0.7-1,0.9
		C53.2,31.7,52.8,31.3,52.2,30.8z"/>
	<path class="st0" d="M89.9,41.3c-0.7,0.5-1.1,0.9-1.6,1.2c-0.2,0.1-0.4,0-0.6,0c0-0.2,0-0.4,0.1-0.6c0,0,0-0.1,0.1-0.1
		c0.8-0.6,1.3-1.9,2.5-1.5c1.1,0.4,1.3,1.7,1,2.7c-0.5,2.1-1.1,4.2-1.8,6.3c-0.4,1.1-3.2,1.4-3.8,0.5c-0.2-0.2-0.1-1.1,0.1-1.2
		c1.6-1,1.2-2.2,0.5-3.4c-0.4-0.7-0.3-1.2,0.5-1.6c1.5,1.6,1.7,3.5,0.4,5.7c0.7-0.3,1.4-0.4,1.5-0.7c0.6-2.1,1.1-4.1,1.6-6.2
		C90.3,42.1,90,41.8,89.9,41.3z"/>
</g>
</svg>
