<?xml version="1.0" encoding="utf-8"?>
<!-- Generator: Adobe Illustrator 19.2.1, SVG Export Plug-In . SVG Version: 6.00 Build 0)  -->
<svg version="1.1" id="Background_copy_2_xA0_Image_1_"
	 xmlns="http://www.w3.org/2000/svg" xmlns:xlink="http://www.w3.org/1999/xlink" x="0px" y="0px" viewBox="0 0 223.5 223.3"
	 style="enable-background:new 0 0 223.5 223.3;" xml:space="preserve">
<style type="text/css">
	.st0{fill:#E64A19;}
</style>
<g id="icon-anklesprain">
	<path class="st0" d="M58.8,191c-1.3,0-2.7-0.1-4,0c-2.5,0.3-4.4-1-6.2-2.4c-1.5-1.1-2.3-2.7-3.1-4.4c-1-2.2-2.2-4.3-3.4-6.4
		c-1.7-2.8-2.9-5.7-2.7-9.1c0.2-2.5-0.2-5,0.9-7.3c1.6-3.4,4-6.1,7.7-7.1c1.8-0.5,3.7-0.7,5.6-0.9c3.1-0.2,6.2-0.5,9.3-0.4
		c2.3,0.1,4.7,0.4,6.9,0.9c3.7,0.8,7.3,1.9,11,2.8c0.3,0.1,0.7,0,1.1,0.1c0.9,0.4,1.2-0.1,1.3-0.9c0.2-1.4,0.5-2.8,0.8-4.2
		c0.7-3.1,1.3-6.1,2-9.2c0.7-2.8,1.6-5.5,3-8c0.4-0.7,0.2-1-0.4-1.6c-2.3-2.3-4.6-4.7-5.9-7.9c-0.3-0.7-0.4-1.6-0.6-2.4
		c0-0.1,0-0.3,0.1-0.4c0.9-2.2,1.9-4.5,2.8-6.7c1.6-3.7,3.2-7.5,5-11.1c0.8-1.7,2.1-3.1,3.2-4.7c1.3-2,2.6-4.1,3.9-6.1
		c0.1-0.2,0.2-0.5,0.4-0.6c1.4-1,1.3-2.4,1.4-3.9c0.1-3.1,0-6.2,0.7-9.2c0.8-3.8,0.9-7.8,3.1-11.2c0.1-0.2,0.2-0.4,0.3-0.6
		c1.6-1.5,1.3-3.5,1.2-5.3c-0.1-0.8-0.8-1.5-1.1-2.2c-0.9-2.2-1.8-4.5-2.7-6.7c-0.2-0.4-0.5-0.8-0.8-1.1c-0.1-0.1-0.2-0.1-0.4-0.2
		c-1.8-0.8-2.8-2.2-2.9-4.2c-0.1-0.8-0.4-1.6-0.6-2.4c-0.6-1.9-1.3-3.9-1.9-5.8c-0.1-0.2-0.1-0.5-0.3-0.6c-3.2-2.4-2.7-4.8-1.3-7.7
		c2-4.1,4.6-7.9,7.5-11.4c2.3-2.7,5-4.8,8.1-6.4c4.4-2.3,9.2-3,14.2-1.8c2.1,0.5,4.2,1,6.2,1.8c1.6,0.6,3,1.6,4.5,2.5
		c2.2-1.4,5-1.6,7.8-1.2c4.7,0.7,7.6,3.3,8.6,7.9c0.2,1,0.3,2,0.3,3.1c0.1,3.8,0.9,7.5,1.9,11.2c0.8,3,1.2,6.2,1.8,9.3
		c0.5,2.6,1,5.3,2.3,7.7c0.6,1.2,1.1,2.5,1.7,3.7c1.2,2.5,3.1,4.2,5.5,5.4c5.4,2.5,10.8,5,15.4,8.9c2.6,2.2,4.5,4.9,4.5,8.5
		c0,2.4,0.2,4.8,0.1,7.2c-0.1,1.8-0.6,3.6-0.9,5.3c-0.4,3.1-0.9,6.1-1.2,9.2c-0.3,3.3-0.2,6.7-0.5,10.1c-0.2,2.6-0.8,5.2-1,7.8
		c-0.2,2.9-0.3,5.8-0.1,8.6c0.5,5.8,1.7,11.6,1.3,17.5c-0.2,2.7-0.7,5.4-0.8,8.1c-0.1,3.2-0.3,6.4,1,9.6c1.4,3.6,1.2,7.5,1,11.3
		c-0.4,7.3-3.4,13.6-7.7,19.4c-2.9,3.9-6.7,6.6-11.6,7.3c-4.5,0.6-8.9,0.8-13.4-0.3c-2.8-0.7-5.2-1.8-7.7-3.2
		c-0.2-0.1-0.5-0.1-0.8-0.1c-0.7,0.1-1.4,0.2-2.1,0.2c-1.8,0.1-3.6,0.2-5.3,0.3c-0.2,0-0.5,0.2-0.6,0.3c-0.6,0.6-1,1.4-1.7,2
		c-2.5,2-3.7,5-5.6,7.5c-0.5,0.6-1.1,0.8-1.7,1.2c-1.5,0.9-2.9,1-4.5,0.5c-0.8-0.2-1.9,0.3-2.5-0.1c-1.2-0.7-2.7-0.6-3.7-1.3
		c-1.3-0.9-2.6-1.6-3.9-2.4c-0.5-0.3-1-1.2-1.1-1.8c-0.1-0.8-0.6-1.1-1.1-1.1c-0.4,0-1.1,0.3-1.3,0.6c-1,1.7-2.2,3.1-3.9,4
		c-1.3,0.7-2.8,1.1-4.1,1.6c-0.6,0.2-1.3,0.3-1.9,0.6c-1.7,1-3.5,1.1-5.3,0.5c-0.6-0.2-1.3-0.4-1.9-0.2c-1.8,0.5-3.1-0.3-4.6-1.1
		c-2.4-1.4-5.1-2.1-7.8-2.1c-2.2-0.1-4.4,0-6.7-0.1c-1.7-0.1-3.4-0.4-5.1-0.6c-0.6-0.1-1.3-0.1-1.9-0.2c-0.6-0.1-1.2-0.2-1.6-0.5
		c-1.7-1.3-3.6-1.9-5.6-2.5c-1.5-0.4-2.9-1.1-4.3-1.8c-1.2-0.7-2.5-0.8-3.9-0.9c-1.8-0.2-3.6-0.6-5.3-1.3c-1.6-0.6-2.6-2.8-2.3-4.2
		c0.4-1.3,1-2,2.4-2c3,0.1,6,0.3,9.1,0.4c0.6,0,1.1,0,1.7-0.1c1.2-0.3,2.4-0.5,3.5-0.9c1.2-0.5,2.3-1.3,3.4-1.9
		C58.9,191.1,58.9,191.1,58.8,191z M154.2,142c2.5-0.3,4.4,0.9,6.2,2.2c0.3,0.3,0.6,1.1,0.4,1.4c-0.3,0.7-0.9,0.3-1.4,0
		c-1-0.6-2-1.3-3.1-1.8c-1.3-0.5-1.7-0.2-2.1,1c-0.1,0.2-0.1,0.4-0.3,0.6c-1.5,1.4-2.9,2.9-4.4,4.2c-3.3,2.8-6.6,5.6-9.8,8.4
		c-2.1,1.8-4.1,3.7-5.9,5.8c-2.6,3-6,4.8-9.1,7c-2.9,2.1-6,4-9.1,5.8c-0.8,0.5-1.9,0.7-2.9,0.8c-1.6,0.2-3.3,0.1-4.9,0.3
		c-1.6,0.2-3.3,0.4-4.8,0.9c-3.2,1.2-6.3,2.6-9.4,4c-1.1,0.5-2.1,1.1-3.4,1.8c1.8,0.6,1.9,1.9,1.8,3.2c0.3-0.1,0.4-0.1,0.5-0.2
		c2.8-1.3,5.6-2.6,8.4-3.9c0.5-0.2,1.1-0.6,1.3,0.1c0.1,0.2-0.4,0.8-0.8,1c-1.4,0.8-2.7,1.7-3.3,3.3c-0.1,0.3-0.3,0.5-0.5,0.8
		c-3,3.5-6.2,6.8-10,9.6c-0.8,0.6-1.6,1.4-2.2,1.9c0.5,0.8,0.9,1.5,1.5,2.3c2.5-1.6,5-3.4,7.6-4.9c2.4-1.4,4.5-3.2,6.1-5.5
		c0.1-0.2,0.3-0.5,0.5-0.5c0.3-0.1,0.7,0,1.1,0c0,0.3,0.1,0.8-0.1,1c-1.6,1.9-3,3.8-5.1,5.1c-0.2,0.1-0.4,0.4-0.6,0.6
		c-0.8,0.9-1.5,1.9-2.4,2.6c-2.7,2.3-5.4,4.4-8.1,6.7c-0.3,0.2-0.4,1-0.2,1.4c0.1,0.2,1,0.4,1.3,0.3c2.2-1.2,4.4-2.4,6.3-3.9
		c2.5-2.1,4.7-4.7,7.1-7c0.1-0.1,0.2-0.3,0.4-0.4c0.4-0.1,1.1-0.3,1.3-0.2c0.4,0.5,0.3,1-0.3,1.4c-0.4,0.2-0.7,0.6-1,0.9
		c-0.8,0.8-1.4,1.7-2.3,2.4c-2.8,2.2-5,5.2-8.4,6.7c0.9,0.8,1.7,0.8,2.6,0.6c1.7-0.4,3-1.3,4.1-2.6c1.8-2.1,3.5-4.2,5.2-6.3
		c0.3-0.4,0.6-0.8,0.9-1.2c0.3-0.3,0.8-0.5,1.1-0.7c0,0.5,0.1,1-0.1,1.3c-1,1.4-2.1,2.7-3.2,4c-0.7,1-1.5,1.9-2.2,2.9
		c0.1,0.1,0.2,0.3,0.3,0.4c0.5-0.2,1-0.3,1.5-0.6c1.9-1.3,3.1-3.2,4.3-5.1c0.5-0.9,0.9-1.9,1.2-2.9c0.9-3.4,2.3-6.5,5.7-8.2
		c0.8-0.4,1.2-1,1-1.9c-0.1-0.5,0-1.2,0.3-1.5c1-1.1,2.1-2.3,3.4-3.1c1.4-0.9,3-1.3,4.5-2c2.8-1.3,5.6-2.5,8.3-3.9
		c3.7-1.9,7.5-3.6,10.4-6.7c0.1-0.2,0.3-0.3,0.5-0.4c2.6-1.4,5.3-2.9,7.9-4.2c3.5-1.7,7.1-2.9,10.4-5.1c1.2-0.8,2.3-1.5,3.6-2.1
		c2.2-1,4-2.5,5.6-4.3c1.2-1.4,2.5-2.9,3.1-4.6c1.5-4.3,2.6-8.8,3.7-13.2c0.7-2.6,1.1-5.4,2-8c0.7-2.3,1.2-4.5,1.1-6.9
		c0-1.1,0.2-2.2,0.3-3.3c0.3-3.1,0.8-6.1,0.9-9.2c0.1-5.8,0.5-11.7,1.7-17.4c0.8-4,0.9-8.1,1-12.1c0.1-3.4-1.6-6-3.9-8
		c-3.9-3.3-8.3-5.7-13-7.6c-0.2-0.1-0.6-0.1-0.8,0c-0.7,0.6-1.6,1.2-2,2c-0.8,1.5-1.5,3.1-2.1,4.7c-1,2.8-2.1,5.6-2.9,8.5
		c-0.8,2.9-1.4,5.8-1.7,8.7c-0.2,2.2-0.1,4.6,0.2,6.8c0.3,1.9,1,3.7,1.7,5.5c0.4,1.1,1.2,2,1.7,3c0.7-1.3,0.8-2.5,0.3-3.7
		c-1.2-3.1-1.1-6.1,0.4-9.1c0.1-0.3,0.6-0.4,0.9-0.6c0.2,0.3,0.5,0.6,0.6,0.9c0.1,0.4-0.1,0.8-0.2,1.1c-1,2.1-1.1,4.3-0.3,6.5
		c0.6,1.7,0.7,3.4,0.2,5.2c-0.5,1.8-1,3.5-1.3,5.4c-0.5,2.9-0.8,5.9-1.2,8.9c-0.3,2.1-0.8,4.3-1.1,6.4c-0.6,3.9-1.1,7.9-1.7,11.8
		C154.5,139.4,154.4,140.6,154.2,142z M122.1,170.6c2-1.3,3.8-2.4,5.5-3.7c1.7-1.3,3.4-2.5,4.8-4.1c3.7-4,7.9-7.5,12-11.1
		c2.7-2.3,5.3-4.8,7.9-7.2c0.1-0.1,0.3-0.4,0.3-0.5c0.1-1.6,0.1-3.2-1-4.7c-1.6-2.1-3-4.2-4.4-6.4c-3.1-4.9-6.1-9.8-9.2-14.6
		c-1.5-2.2-3.3-4.1-5.1-6.1c-1.9-2.2-3.8-4.3-5.7-6.4c-0.8-0.8-1.7-1.5-2.5-2.4c-2.7-3-5.2-6.1-8-8.9c-1.1-1.1-2.7-1.9-4.2-2.6
		c-2.5-1.1-5.2-0.8-7.8-0.6c-2.4,0.2-4.4,1.3-5.8,3.2c-2.5,3.4-4.8,6.9-7,10.6c-1.4,2.4-2.4,5.1-3.5,7.7c-1.4,3.2-2.6,6.5-4,9.9
		c0.8,0.4,1.6,1.1,2.5,1.2c3.1,0.4,5.4,2.2,7.9,3.7c3.4,2,6.8,4,10.2,6.1c1.4,0.8,2.6,1.8,3.9,2.8c2.1,1.5,4.1,3,6.3,4.5
		c0.1-0.2,0.2-0.4,0.2-0.5c1.4-3.3,1.7-6.9,2.6-10.2c0.9-3.3,1.2-6.5,0.8-9.8c-0.2-1.7-0.4-3.3-0.6-5c-0.4-3-1.2-6-3-8.5
		c-0.1-0.2-0.2-0.6-0.1-0.8c0.2-0.2,0.6-0.5,0.8-0.4c0.4,0.1,0.9,0.4,1.1,0.7c2.1,3.4,2.7,7.2,3.2,11c0.2,1.7,0.3,3.3,0.4,5
		c0.1,1.6,0.2,3.2-0.1,4.7c-0.7,3.5-1.6,6.9-2.4,10.3c-0.9,3.6-2.2,7-3.9,10.3c-0.4,0.8-0.3,1.4,0.2,2.1c1.4,2.3,2.9,4.6,3.4,7.3
		c0.2,1.3,0.6,2.5,1.1,3.8c0.9,2.4,1.8,4.7,2.7,7.1C121.6,168.8,121.8,169.6,122.1,170.6z M148.1,77.3c-0.2,0-0.4,0-0.5,0.1
		c-2.2,1.1-4.5,2.3-6.7,3.4c-0.6,0.3-1.3,0.6-1.7-0.1c-0.4-0.7,0.1-1.1,0.7-1.4c2.2-1.1,4.3-2.2,6.5-3.2c0.6-0.3,1.3-0.4,2-0.7
		c0.3-0.1,0.6-0.3,0.7-0.5c1.5-2.6,2.9-5.2,4.4-7.8c1-1.8,2.2-3.4,3.3-5.1c-1.3-0.4-2.7-0.9-4-1.2c-6.4-1.4-10.5-5.7-13.5-11.2
		c-0.2-0.4-0.6-0.7-0.9-1.1c-0.3,0.3-0.8,0.6-1,1c-1.2,1.9-2.7,3.3-4.7,4.2c-0.8,0.3-1.5,0.3-2.1-0.4c-0.7-0.9-0.8-2.2,0-3.5
		c0.7-1,1.6-1.8,2.3-2.8c0.4-0.5,0.7-1,1.1-1.6c-0.6-0.2-1.2-0.4-1.7-0.6c-0.3-0.1-0.9-0.5-0.8-0.5c0.3-0.8,0.6-1.8,1.2-2.4
		c0.7-0.7,1.7-1.1,2.7-0.5c0.3,0.1,0.4,0.6,0.6,0.9c-0.3,0.1-0.7,0.4-1,0.3c-0.9-0.2-1.6,0.2-2.2,1.1c0.6,0.2,1,0.4,1.4,0.4
		c0.6,0,0.9,0.3,1.2,0.9c0.4,1,0,1.7-0.8,2.3c-0.6,0.5-1.2,0.9-1.7,1.5c-0.5,0.8-0.9,1.7-1.2,2.6c-0.1,0.3,0.2,0.7,0.5,1
		c0.1,0.1,0.6-0.1,0.8-0.3c0.6-0.4,1.1-0.8,1.6-1.2c2.3-2,2.7-4.9,3.1-7.7c0.1-0.7-0.3-1.6-0.7-2.2c-1-1.5-2.3-1.9-4-1.4
		c-1.1,0.3-2.8,2.5-2.8,3.8c0,1.5-0.6,2.7-1.4,3.9c-0.6,1-2.8,1.6-3.7,1c-0.7-0.5-1.3-1-2-1.5c-2.3-1.6-5-2.6-7.8-3
		c-3-0.4-6.1-0.4-9.1-0.7c-2.5-0.3-5-0.9-7.5-1.4c-1.1-0.2-2.2-0.7-3.4-1c-0.3,1.6,0.6,2.8,1.1,4.2c0.4,1.2,1.1,2.4,1.1,3.6
		c0.1,1.6,0.8,2.6,2.2,3.1c1.1,0.4,2.3,0.7,3.4,1.1c1.1,0.3,1.9,1,1.9,2.2c0.1,3.1,0.1,6.3,0.1,9.4c0,0.5,0.2,1.2,0.6,1.6
		c0.1,0.2,0.9-0.1,1.3-0.3c1.2-0.4,2.3-0.8,3.5-1.3c0.4-0.2,1.1-0.3,1.1-0.6c0.1-0.5-0.2-1-0.4-1.5c-0.1-0.3-0.3-0.5-0.5-0.9
		c1.3-0.1,1.6,0.8,1.8,1.5c0.2,0.7,0.2,1.6-0.8,1.9c-1,0.3-2,0.6-2.9,0.9c-1,0.3-0.8,1.1-0.6,1.8c0.2,0.6,0.4,1.6,1.4,1.2
		c2.1-0.9,4.2,0.3,6.3,0.1c-0.2,2-2.6,1.6-3.1,3.2c1,1.5,2.6,0.3,3.9,1.1c-0.9,0.2-1.9,0.4-2.9,0.6c0.8,1.2,1.9,1.7,3.1,1.4
		c1.3-0.3,2.7-0.7,3.7-1.5c2.1-1.6,3.9-3.6,5.9-5.3c3.4-3,5.4-6.6,5.3-11.2c0-0.3,0.2-0.6,0.3-0.9c0.3,0.2,0.5,0.5,0.5,0.7
		c-0.1,3.6-0.6,7-3.3,9.7c-2.9,2.9-6,5.7-9.1,8.5c-0.7,0.6-0.8,1.2-0.7,1.8c2.1,1,4.1,1.9,6.1,2.8c0.4,0.2,0.8,0.5,0.9,0.9
		c0.1,0.3,0,0.9-0.2,1.2c-0.2,0.2-0.8,0.1-1.1-0.1c-1.9-1-3.7-2-5.7-3.1c0,0.9,0,1.4,0,1.9c0.2,2.5,0.5,5,0.7,7.6
		c0.2,2.6,0.2,5.3,0.4,7.9c0,0.4,0.1,1,0.4,1.3c2.2,2.5,4.5,5,6.8,7.5c0.6,0.6,1.1,1.3,1.7,1.9c0.4,0.5,0.9,0.9,1.4,1.4
		c0.2-0.3,0.3-0.5,0.4-0.6c0.5-1.7,1.1-3.4,0.9-5.2c-0.1-0.7,0.1-1.3,1-1.1c0.3,0.1,0.7,0.7,0.7,1.1c-0.1,1.8-0.4,3.7-0.6,5.6
		c0.4-0.1,0.8-0.2,1.1-0.4c2.3-1.4,4.6-2.8,6.4-5c2-2.5,3.4-5.3,4.1-8.5c0.6-3.1,1-6.3,1.6-9.4C146.9,81.8,147.6,79.6,148.1,77.3z
		 M50.3,200.7c0.4,0.2,0.5,0.3,0.7,0.4c2.7,1,5.3,2,8,3c0.9,0.3,1.7,1.1,2.6,1.2c2.6,0.5,5.3,0.9,7.9,1.1c2.5,0.2,5-0.1,7.4,0.2
		c2.3,0.3,4.6,1.1,6.7,1.6c1.7-1.6,3.4-3.3,5.2-4.9c-0.4,0.1-0.7,0.2-1.1,0.4c-0.9,0.5-1.7,1-2.7,1.4c-2.1,0.8-3.8-0.3-3.5-2.3
		c0.1-0.5,0.4-1.1,0.8-1.4c1.9-1.7,4-3.3,5.9-5c2.4-2.2,4.7-4.5,6.9-6.8c0.2-0.2,0.3-0.8,0.2-0.8c-0.3-0.2-0.7-0.3-1-0.2
		c-1.2,0.4-2.4,1.1-3.6,1.5c-0.9,0.3-1.9,0.5-2.9,0.5c-1,0-1.7-0.8-2-1.7c-0.3-0.9,0.1-1.6,0.8-2.2c0.4-0.4,0.9-0.7,1.2-1.2
		c1.5-2.1,3.7-3.1,6-4.1c2.3-1,4.6-2.1,6.9-3.1c0.5-0.2,0.7-0.5,0.8-1.1c0.4-1.8,0.8-3.7,1.4-5.5c1.2-3.2,2.7-6.4,4-9.6
		c1.4-3.5,2.6-7,3.9-10.5c0.9-2.4,1.8-4.7,2.9-7c0.7-1.5,0.8-1.6-0.6-2.6c-2.1-1.6-4.2-3.2-6.3-4.7c-0.8-0.6-1.5-1.2-2.4-1.7
		c-3.7-2.2-7.3-4.4-11-6.6c-0.3-0.2-0.7-0.4-0.8-0.5c-0.5,2-1,4-1.4,6c0,0.1,0,0.2,0,0.3c-0.2,2.2-0.3,4.5-0.5,6.7
		c-0.3,3.5-0.6,7-1,10.4c-0.6,4.5-1.3,9-2.1,13.5c-0.5,2.5-1.5,5-2.2,7.4c-0.5,1.7-0.8,3.6-1.6,5.2c-1,2.1-2.4,4-3.8,6
		c-0.7,1-1.6,2-2.6,2.7c-2.1,1.6-4.3,3-6.1,5c-1.7,1.9-3.8,2.8-6.3,0c-0.1-0.2-0.6-0.1-0.9,0c-1,0.3-1.9,0.7-2.9,1
		c-3.2,1.2-6.6,1.7-9.3,3.9c-0.7,0.6-1.5,1.3-1,2c0.3,0.6,1.4,1,2.1,1.1c0.5,0.1,1.4-0.2,1.4-1.2c0-1,1.3-2.1,2.3-2.1
		c0.3,0,0.6,0.3,0.9,0.5c-0.2,0.3-0.4,0.6-0.7,0.8c-0.3,0.3-1,0.4-1,0.6c-0.1,0.8-0.4,1.9,0,2.5c0.6,1,2.2,1.1,3,0.5
		c1-0.7,1.9-1.5,3.1-1.4c0.4,0,0.7,0.4,1.1,0.5c-0.3,0.3-0.5,0.6-0.8,0.7c-0.9,0.5-1.9,0.8-2.7,1.4c-0.7,0.5-1.3,0.7-2.1,0.5
		c-1.3-0.4-2.7-0.9-3.5-1.9C52.9,200.8,51.7,200.8,50.3,200.7z M127.6,181.6c0.8,1.3,1.3,2.4,2,3.5c2,3,4,6.1,7.2,8.1
		c1.2,0.8,2.3,1.7,3.5,2.6c1.1,0.8,2.2,1.8,3.4,2.4c2.7,1.5,5.6,2.5,8.7,2.6c3.2,0.1,6.4,0.2,9.6-0.2c4.4-0.5,7.7-3.2,10.4-6.6
		c2.5-3.2,4.1-6.8,5.6-10.5c2.1-5.1,2.2-10.5,1.4-15.9c-0.4-2.8-1.5-5.7-2.8-8.1c-1.2-2.1-3.3-3.7-4.9-5.6c-0.1-0.1-0.3-0.1-0.4-0.2
		c-0.6,0.9-1.1,1.9-1.7,2.6c-2,2.3-4.2,4.3-7,5.8c-3,1.5-5.8,3.4-8.8,4.9c-4.3,2.2-8.6,4.2-12.9,6.4c-0.6,0.3-1.1,0.8-1.6,1.2
		c-1.9,1.4-3.8,3-5.9,4.2C131.6,179.8,129.6,180.6,127.6,181.6z M46.7,182.8c0.2-0.1,0.3-0.2,0.4-0.2c4-4.2,8.3-8,13.1-11.3
		c2.3-1.6,4.6-3,7.4-3.6c1.3-0.3,2.7-0.5,4.3-0.7c-1.4-1.1-2.6-2.1-3.8-3c-1-0.8-2.1-1.6-3.1-2.5c-0.2-0.2-0.1-0.8-0.2-1.2
		c0.4,0,0.9-0.2,1.1,0c2.2,1.7,4.4,3.4,6.5,5.2c0.8,0.6,1.3,1.6,2.1,2c1.2,0.6,2.7,0.9,4.1,1.4c1.3-3.4,2.6-6.7,3.9-10.2
		c-0.6-0.1-0.8,0-1.1-0.1c-4-1-8-2-12-3c-1.6-0.4-3.3-0.8-4.9-0.8c-3-0.1-6.1,0-9.1,0.2c-2.3,0.2-4.7,0.4-6.9,0.9
		c-2.9,0.6-4.7,2.7-6.2,5.1c-1.9,3.3-1.7,7-1.2,10.5C41.8,175.8,45,179,46.7,182.8z M112.4,207.5c0.4,0.8,1.3,0.8,2,0.6
		c0.8-0.2,0.8-1,1-1.7c0.2-0.8,0.6-1.5,1-2.1c0.1-0.2,0.7-0.1,1,0c0.1,0.1,0.2,0.8,0,0.9c-1.2,1-0.5,2.6-1.4,3.8
		c0.8,0.2,1.5,0.3,2.1,0.1c0.3-0.1,0.3-0.9,0.4-1.4c0.1-0.8,0.2-1.6,0.4-2.3c0.1-0.3,0.7-0.4,1-0.6c0.1,0.4,0.3,0.8,0.2,1.2
		c-0.1,0.8-0.3,1.6-0.4,2.5c0,0.4,0.1,1,0.4,1.1c0.4,0.1,1.1,0.1,1.4-0.2c1.2-1,2.3-2.1,3.3-3.3c0.8-1,0.6-1.6-0.6-2.4
		c-0.2-0.2-0.3-0.6-0.4-0.9c0.4-0.1,0.8-0.4,1.1-0.3c0.5,0.2,0.9,0.6,1.4,1c1.4-1.5,2.8-2.9,4.1-4.5c1.3-1.5,0.8-3.4,0.6-5.2
		c-0.2-2.5-1.5-3.8-4.1-3.5c-3,0.3-5.9,1.1-9.1,1.7c0.3,0.3,0.3,0.5,0.4,0.5c1.8,1.1,2.3,2.8,2.5,4.7c0,0.3-0.3,0.6-0.4,0.9
		c-0.3-0.2-0.6-0.4-0.8-0.7c-0.2-0.3-0.2-0.8-0.2-1.1c-0.3-1.4-1-2.5-2.4-3c-0.4-0.1-0.8-0.1-1.1-0.3c-1.2-0.9-2.3-1.1-3.7-0.4
		c-1.1,0.5-2.3,1-2.8,2.1c-1,1.9-1.9,3.8-2.7,5.8c-0.6,1.6,0.1,2.4,1.8,2.4c0.4,0,0.8,0,1.2,0c1.6-0.1,2.8-1.1,3-2.7
		c0.2-1.4,1.1-2.8-0.4-4c-0.1-0.1,0.1-0.7,0.2-1c0.3,0.1,0.8,0.1,0.9,0.3c0.9,1.2,1.9,2.3,0.8,3.9c-0.1,0.2,0,0.5-0.1,0.7
		c-0.2,0.7-0.4,1.4-0.7,2c-0.8,1.4-2.2,1.9-3.7,2.3c-0.8,0.2-0.9,0.7-0.4,1.2c0.4,0.4,1.1,0.8,1.6,0.7c0.5-0.1,1.3-0.5,1.4-1
		c0.3-1.3,1.1-1.9,2.3-2c0.4,0,0.8-0.1,1.1,0.1c0.2,0.1,0.3,0.7,0.1,0.8c-0.2,0.3-0.7,0.4-1,0.6c-0.3,0.2-0.8,0.3-1,0.6
		C113.2,206,112.8,206.7,112.4,207.5z M72.1,168.8c-4,0.1-7,1-9.6,2.9c-3.1,2.3-6.1,4.7-9.1,7.1c-2.1,1.7-2,2.5,0.3,4.2
		c0.1,0.1,0.2,0.1,0.3,0.2c2.3,1.5,4.5,3,6.8,4.4c0.2,0.1,0.7,0.1,0.9,0c1.5-1.4,3.2-2.7,4.5-4.2c1.9-2.3,3.7-4.6,6.4-6.1
		c2.1-1.2,3.7-2.8,5.2-4.5c1.1-1.3,1-1.8-0.5-2.5C75.4,169.3,73.4,168.7,72.1,168.8z M107.2,66.4c-1-0.1-1.1,0.7-1.5,1.2
		c-1.6,1.8-2.6,3.8-3.1,6.1c-0.7,3.3-1.3,6.5-1.7,9.8c-0.3,2.3-0.2,4.5-0.3,6.9c4.1-1,8-1.4,12-0.3c0-0.4,0-0.7,0-0.9
		c0-1.3-0.2-2.7,0-4c0.4-2.4,1.1-4.8,1.6-7.2c0.2-1,0.5-2.3,0.1-3.1c-0.6-1.2-1-2.8-2.9-2.8c-0.2,0-0.5-0.1-0.5-0.3
		c-0.4-0.7-0.5-1.7-1-2.1c-0.7-0.5-1.6-0.7-1.9-1.6C107.7,67.6,107.4,67,107.2,66.4z M60.4,191.1c0.1,0.1,0.2,0.2,0.2,0.3
		c1-0.4,2-0.7,2.9-1.3c2.9-1.8,5.2-4.1,6.7-7.2c0.3-0.6,0.7-0.9,1.3-0.5c0.6,0.4,0.2,0.9-0.1,1.4c-0.9,1.3-1.8,2.5-2.6,3.8
		c1.4,0.9,1,2.2,0.9,3.6c0.8-0.7,1.5-1.5,2.3-2.2c1.4-1.3,2.8-2.6,4.2-3.8c0.9-0.9,2-1.7,2.8-2.7c0.8-1,1.4-2.1,2.1-3.2
		c0.9-1.3,1.9-2.7,0.2-4.1c0,0,0-0.1,0-0.1c0-0.3,0.1-0.6,0.1-0.9c0.4,0.1,0.8,0,1,0.2c0.3,0.2,0.4,0.6,0.8,1.1
		c0.2-1.1,0.4-2,0.6-2.9c1.2-4.4,2.8-8.7,3.5-13.4c0.5-3.5,1.1-6.9,1.2-10.4c0-1,0.2-2,0.4-3.1c0.2-2.1,0.4-4.1,0.7-6.2
		c-0.1,0-0.3-0.1-0.4-0.1c-0.1,0.3-0.3,0.7-0.4,1c-0.5,1.7-1.1,3.4-1.5,5.2c-0.6,3-0.9,6-1.6,9c-0.7,2.8-1.8,5.6-2.7,8.4
		c-0.8,2.3-1.5,4.7-2.4,7c-0.4,1.2-0.9,2.5-1.6,3.5c-1.5,1.9-3.4,3.4-5.4,4.8c-1.6,1.1-3.1,2.5-4.5,3.9c-1.9,1.9-3.8,3.9-5.6,5.8
		C62.2,189.1,61.3,190.1,60.4,191.1z M120.8,171.3c-1.2-3.2-2.4-6.3-3.6-9.5c-0.2-0.6-0.5-0.9-1.3-0.8c-1.9,0.2-3.9,0.3-5.8,0.3
		c-0.8,0-1.2,0.3-1.5,1c-1.3,3.3-2.8,6.6-4.1,10c-0.5,1.4-0.8,2.9-1.2,4.2c3.1-0.1,6-0.3,8.9-0.4c0.7,0,1.4-0.1,1.9-0.5
		C116.4,174.3,118.5,172.9,120.8,171.3z M177.3,131.8c-0.8,3.1-1.5,6-2.3,8.9c-0.9,3.5-1.9,7.1-2.8,10.6c-0.1,0.3,0,0.7,0.2,1
		c0.7,0.9,1.6,1.7,2.3,2.5c0.8,0.9,1.7,1.8,2.6,2.8C178.4,148.9,179.4,140.5,177.3,131.8z M114.1,190.5c1,0.1,1.9,0.3,2.7,0.1
		c2.8-0.6,5.6-1.5,8.4-2.1c1.5-0.3,3.2-0.6,4.7,0.2c-1.3-2-2.6-4.1-3.9-6.3c-0.2,0.1-0.4,0.1-0.6,0.2c-2.5,1.1-5.1,2.2-7.5,3.4
		c-1.1,0.5-2.2,1.2-3.1,2.1C114.3,188.6,114.4,189.5,114.1,190.5z M50.2,181.8c-0.8,0.8-1.4,1.6-2.2,2.3c-0.5,0.4-0.4,0.9-0.1,1.3
		c1.7,2.3,3.6,4.2,6.8,4c1-0.1,2,0,3,0c0.5,0,1-0.2,1.8-0.3C56.4,186.3,52.4,185.3,50.2,181.8z M109.8,159.7
		c2.1-0.1,4.2-0.2,6.4-0.3c-0.3-3.2-1.5-5.9-3.3-8.2C111.9,153.9,110.9,156.7,109.8,159.7z M152.4,138c0.1,0,0.3-0.1,0.4-0.1
		c0.1-0.3,0.3-0.6,0.3-0.9c0.3-1.8,0.5-3.6,0.8-5.3c0.2-1.3-0.1-1.6-1.4-1.7c-1.3-0.1-2.7-0.3-4-0.4c-0.3,0-0.7,0.2-1.1,0.3
		c0.1,0.3,0.1,0.7,0.3,0.9c1.2,1.9,2.5,3.7,3.7,5.6C151.8,136.9,152.1,137.5,152.4,138z M90.1,132.2c0.2,0,0.4-0.1,0.5-0.1
		c0-1.4,0-2.8,0-4.2c0-0.6-0.2-1-0.8-1.2c-1.7-0.6-3.5-1.1-5.2-1.7C85.9,127.7,88.1,129.9,90.1,132.2z M139,26.9
		c-0.6-2.6-1.3-4.8-2.9-6.7c-0.5-0.5-1.1-0.6-1.6-0.1c-0.5,0.4-0.5,1-0.2,1.6c0.6,1,1.1,2,1.6,3c0.3,0.7,0.4,1.6,0.7,2.3
		c0.2,0.4,0.9,0.9,1.3,0.8C138.3,27.8,138.7,27.2,139,26.9z M43.3,194.8c-0.8,0.1-1.4,0.2-2.1,0.4c-1.3,0.5-1.5,1.1-0.8,2.4
		c0.5,1,1.4,1.7,2.5,1.9c2,0.4,4,0.6,6.1,0.9c0.1-0.1,0.1-0.3,0.2-0.4c-0.7-0.4-1.4-1.1-2.1-1.1C44.2,198.7,43.2,197.8,43.3,194.8z
		 M133.1,197c2,0,3.9,0,5.7,0c0-0.1,0-0.1,0.1-0.2c-2-1.5-4.1-3-6.1-4.5C132.9,193.8,133,195.4,133.1,197z M88.1,189.1
		c1.7,0,2.7-1,2.4-2.3c-0.1-0.3-0.5-0.7-0.8-0.9c-0.2-0.1-0.6,0.1-0.8,0.2c-0.5,0.4-0.9,0.8-1.3,1.3c-0.2,0.2-0.5,0.7-0.4,0.9
		C87.5,188.6,87.9,188.9,88.1,189.1z M45.9,197.4c0.7-0.9,1.3-1.5,1.9-2.3c-0.8-0.1-1.5-0.2-2.2-0.2c-0.3,0-0.8,0.4-0.9,0.7
		c-0.1,0.4,0,0.9,0.3,1.2C45.2,197.2,45.7,197.3,45.9,197.4z M67.4,191.8c0.1,0,0.3-0.1,0.4-0.1c0.2-0.8,0.5-1.5,0.6-2.3
		c0-0.2-0.8-0.7-0.8-0.7c-0.5,0.5-1.5,0.7-1.2,1.6C66.5,190.9,67,191.4,67.4,191.8z M103.8,59.6c0.1,0,0.3-0.1,0.4-0.1
		c-0.1-1.3-0.2-2.5-0.3-3.9c-0.6,0.4-1,0.6-1.5,0.9C102.9,57.6,103.3,58.6,103.8,59.6z M85.1,203.8c0.1-0.2,0.2-0.4,0.3-0.6
		c-0.4-0.4-0.7-1.1-1.1-1.2c-0.4-0.1-1,0.3-1.3,0.7c-0.1,0.1,0.1,1,0.2,1C83.8,203.8,84.5,203.8,85.1,203.8z M47.7,196.9
		c0.7,0.6,1.2,1,1.7,1.4c0.5-0.9,0.9-1.9,1.5-3C49.7,195.9,48.7,196.4,47.7,196.9z M113.6,69.6c0-0.1,0-0.3,0.1-0.4
		c-0.3-0.1-0.5-0.2-0.8-0.2c-0.6-0.1-1.2-0.1-1.8-0.1c-0.2,0-0.4,0.2-0.7,0.3c0.2,0.2,0.4,0.6,0.6,0.6
		C111.8,69.8,112.7,69.6,113.6,69.6z M101.8,55.3c0.7-0.2,1.3-0.4,1.9-0.6c0-0.1,0-0.2,0.1-0.3c-0.6-0.2-1.2-0.5-2-0.8
		C101.8,54.2,101.8,54.7,101.8,55.3z M113,70.6c0-0.1-0.1-0.1-0.1-0.2c-0.7,0-1.4,0.1-2.3,0.1c0.4,0.4,0.7,1,0.8,0.9
		C112,71.2,112.5,70.9,113,70.6z"/>
	<path class="st0" d="M113,56.3c-1.4-0.5-2.8-1-4.1-1.6c-0.3-0.1-0.5-0.8-0.4-1.1c0.3-0.6,0.7-0.3,1.2,0c2.2,1.5,3.8,1.4,5.9-0.1
		c0.4-0.3,1.4-0.6,1.5-0.5c0.5,0.8-0.3,1.1-0.7,1.5c-0.9,0.8-1.9,1.6-3.2,1.5C113.1,56.1,113.1,56.2,113,56.3z"/>
	<path class="st0" d="M106.7,52.4c0.3-0.4,0.4-0.9,0.7-1c2.3-0.7,4.7-1.4,7-2c0.3-0.1,0.7,0.3,1.1,0.5c-0.2,0.3-0.4,0.7-0.7,0.7
		c-2.5,0.7-5,1.3-7.6,1.9C107.2,52.5,107.1,52.5,106.7,52.4z"/>
</g>
</svg>
