<?xml version="1.0" encoding="utf-8"?>
<!-- Generator: Adobe Illustrator 19.2.1, SVG Export Plug-In . SVG Version: 6.00 Build 0)  -->
<svg version="1.1" id="Layer_1" xmlns="http://www.w3.org/2000/svg" xmlns:xlink="http://www.w3.org/1999/xlink" x="0px" y="0px"
	 viewBox="0 0 171.8 200" style="enable-background:new 0 0 171.8 200;" xml:space="preserve">
<style type="text/css">
	.st0{fill:#D81B60;}
</style>
<g id="icon-flu">
	<path class="st0" d="M171.8,134.5c0-0.6,0-1.2-0.2-1.8c-2.2-6.8-6.2-12.3-11.9-16.6c-3.6-2.7-7.1-5.4-9.2-9.6
		c-1.9-3.7-4-7.3-6.4-10.6c-1.9-2.7-3.2-5.6-4.3-8.6c-0.9-2.6-2.3-5.1-3.1-7.7c-1.6-5.6-2.7-11.2-4.4-16.8c-1.8-6-4.1-11.7-6.1-17.7
		c-1.3-4.1-2.2-8.4-4.5-12.2c-1.9-3.1-3.8-6.2-5.6-9.3c-6.5-11.3-15.6-19.2-28.3-22.7C84-0.3,80-0.2,76.1,0.6
		c-3.4,0.7-6.7,1.6-9.9,3c-2.9,1.3-5.6,3.3-8.2,5.1c-7.2,5.2-13.4,11.2-16.9,19.6c-1.3,3.1-2.6,6.3-3.3,9.6c-1,4.5,0.2,8.9,0.9,13.3
		c0.7,4.1,1.3,8.3,1.9,12.5c0.5,3.5,0.6,7.1,1.2,10.5c1,5.7,2.3,11.4,3.5,17.1c0.3,1.2,0.2,2.2-1,3.1c-2.5,1.8-3.7,4.3-3.4,7.4
		c0.1,0.8,0,1.7,0,2.4c-1.7,0.3-3.3,0.6-4.9,0.9c-7.4,1.6-12.4,5.9-15,13c-1.3,3.5-2.7,7.1-3.8,10.7c-0.8,2.7-1.2,5.4-1.6,8.2
		c-0.6,3.7-1.1,7.5-1.6,11.3c-0.1,1.1-0.1,2.3,0,3.4c0,0.9,0.5,1.8,0.3,2.6c-1.4,5.4-3,10.7-4.5,16.1c-2.4,8.9-5,17.7-8.7,26.1
		c-0.5,1-0.7,2.1-1.1,3.2c0.1,0.2,0.3,0.3,0.4,0.5c0.8-0.4,2.2-0.6,2.5-1.2c1.7-3.7,3.3-7.5,4.5-11.3c3.6-11.7,7-23.6,10.6-35.6h8.7
		c0,0.7,0.1,1.3,0,1.7c-2.1,5.8-3.9,11.7-6.4,17.4c-1.6,3.7-4.1,7.1-6.1,10.7c-0.3,0.6-0.3,1.8,0.1,2.2c0.7,0.7,1.5,0.1,2-0.7
		c4.5-7.3,8.8-14.7,11.1-23c1.6-5.7,3.2-11.3,6.4-16.4c1.6-2.6,3.2-5.3,4.3-8.1c2.3-5.6,4.4-11.2,6.4-16.9c0.5-1.4,0.5-3.1,0.1-4.5
		c-1.1-4.8-1.9-9.7-1.7-14.6c0-0.6,0.2-1.4,0.6-1.8c2.7-2.6,5.4-5.2,7.9-7.5c1.3,0.8,2.1,1.6,3.1,1.9c1,0.3,2.1,0.3,3.2,0.4
		c0.1,0.1,0.2,0.3,0.4,0.4c-1.2,1.2-2.2,2.6-3.5,3.6c-2.2,1.8-4.6,3.3-6.9,5c-0.4,0.3-0.4,1.1-0.6,1.6c0.6,0,1.4,0.1,1.8-0.2
		c5.6-4.2,11.2-8.3,16.8-12.6c2.4-1.9,4.7-4,6.9-5.8c1.2,1.3,2.3,2.5,3.4,3.7c-0.2,0.2-0.3,0.6-0.6,0.9c-3.6,3.6-7.3,7.2-11,10.8
		c-2.3,2.2-4.6,4.3-6.9,6.5c-0.4,0.4-0.3,1.2-0.5,1.9c0.6-0.1,1.4,0,1.8-0.4c2-1.8,4-3.6,5.9-5.5c4.7-4.7,9.4-9.5,14.1-14.3
		c0.8-0.8,1.5-1.6,2-2.2c1.4,1.4,2.7,2.6,4,3.8c-1,1.2-2.2,2.5-3.1,4c-2.2,3.7-4.7,7.1-8,9.9c-3.4,3-6.7,6-10,9
		c-0.6,0.5-1.4,1.1-0.6,1.9c0.3,0.3,1.4-0.1,2-0.6c1.7-1.4,3.4-2.8,4.9-4.4c4.7-4.6,10.1-8.6,13.1-14.7c0.5-1,1.3-1.8,2.1-2.6
		c0.3-0.3,1-0.5,1.3-0.3c1.2,0.5,2.4,1.1,3.5,1.6c-1.4,2.1-2.6,4.2-4.2,6c-5.1,5.8-10.3,11.4-15.5,17.1c-0.3,0.4-0.2,1.1-0.3,1.6
		c0.6,0,1.2,0,1.7-0.2c0.4-0.1,0.6-0.6,0.9-1c2.6-3.1,5.1-6.2,7.7-9.1c1.8-2.1,3.9-3.9,5.7-6c1.5-1.7,1.5-1.8,3.5-0.3
		c-0.8,1.2-1.7,2.3-2.4,3.6c-3.6,6.4-8.4,11.8-13.6,16.8c-1.5,1.5-3.3,2.5-5.5,2.9c-2.2,0.4-4.6,1.1-5.5,3.6
		c-2,5.1-4.1,10.1-5.7,15.3c-2.1,7.4-4.1,14.8-7.2,21.9c-2.3,5.4-3.4,11.2-5.7,16.7c-2.3,5.5-3.8,11.3-5.6,17.1c3,0.3,3,0.3,3.7-2.1
		c0.1-0.4,0.1-0.9,0.2-1.3c0.9-3.3,1.8-6.5,2.7-9.8c0.2,0,0.5,0.1,0.7,0.1c0.5,4.4,1,8.8,1.5,13.1h2.5c-0.1-0.8-0.2-1.4-0.3-2.1
		c-0.3-3.3-0.3-6.8-1.1-10c-1-3.5-0.9-6.7,0.6-9.9c0.1-0.2,0.1-0.3,0.2-0.5c1.1-3.5,1.9-7.2,3.2-10.6c2.8-7,5-14.1,7-21.4
		c1-3.8,2.4-7.4,3.6-10.8c3.9,4.2,7.6,8.5,11.7,12.3c3,2.8,6.9,4.2,11.1,4.2c3.9,0,7.7-0.2,11.6-0.7c3.9-0.5,7.6-1.7,10.9-3.9
		c2.7-1.8,5.2-3.8,7.8-5.8c0.8-0.6,1.7-1.3,2.3-2.2c3.2-4.9,6.6-9.6,9.3-14.7c2-3.7,3.2-7.9,4.7-11.9c0.4-1.1,0.7-2.5,2.2-2.6
		c1.3-0.1,2.6-0.2,3.9,0c6.2,1.1,11.8,3.6,17,7c5.6,3.6,10.1,8.4,12.8,14.6c0.5,1.2,0.9,2.7,1,4c0.1,2.1-0.2,4.1-0.4,6.2
		c-0.3,3.5-0.6,6.9-1,10.3c-0.4,2.9-1.3,5.9-1.2,8.8c0.1,4.2,0.7,8.4,1.5,12.6c0.8,4.3,0,6.1-4.3,7.1c-3.9,0.9-7.9,1.6-11.9,2
		c-3.6,0.3-7.3,0.3-10.9,0c-2.1-0.2-4.1-1.4-6.2-1.9c-1.1-0.3-1.2-0.6-1-1.6c0.5-2.3,0.9-4.6,1.2-6.9c0.5-3.8,2-7,5.6-8.7
		c4.5-2.2,7.2-6.3,10.3-9.9c0.2-0.3,0.1-0.9,0.1-1.4c-0.5,0-1.1-0.2-1.3,0.1c-1.2,1.2-2.2,2.5-3.3,3.7c-0.6,0.7-1,1.6-1.7,2.1
		c-2.6,1.9-5.3,3.7-8.1,5.7c-0.1-0.4-0.2-0.6-0.2-0.8c-0.2-3.2,0.3-6.4,1.6-9.4c0.3-0.8,0.5-1.8-0.5-2.1c-0.5-0.1-1.5,0.6-1.8,1.1
		c-0.6,1.3-1.1,2.7-1.3,4.1c-0.3,2.4-0.1,4.9-0.5,7.2c-1.4,7.8-3,15.7-4.6,23.5c-0.9,4.3-1.7,8.7-2.6,13c2.7,0.3,2.9,0.1,3.3-2.4
		c0.4-2.6,0.8-5.2,1.4-7.7c0.5-2.5,1.2-5,1.8-7.8c8.9,4.7,18,2.7,27.3,1.6c-1.8,5.6-3.5,10.9-5.2,16.2c2.7,0.5,2.7,0.5,3.4-1.8
		c0.9-3,1.8-6,2.8-8.9c0.4-1.2,1.5-2.3,1.5-3.5c0.1-2.4,1.4-2.9,3.3-3.7c3.7-1.5,5-3.2,4.6-7.4c-0.2-1.8-0.4-3.7-0.9-5.4
		c-1.1-4.4-1.3-8.8-0.3-13.2C171.1,148.6,171.3,141.6,171.8,134.5z M43.1,115.3c0.1,0.7,0.3,1.5,0,2.1c-3,7.1-6,14.2-9.2,21.1
		c-1.7,3.8-4,7.3-5.9,10.8H16.5c1-6.5,1.4-12.9,3-19.1c1.6-6.3,3.3-12.7,7.7-17.8c2.7-3.1,6.3-4.5,10.2-5.2c0.2,0,0.3,0,0.5,0
		c3.5-0.8,3.4-0.8,4,2.7C42.3,111.8,42.7,113.5,43.1,115.3z M49.7,27.9c1.2-1,3.3-0.9,5-1.1c4.1-0.3,8.1,0.3,12,1.7
		c3.3,1.2,6.5,2.5,9.9,3.7c5.2,1.8,9.8,4.5,14.1,7.9c4.2,3.3,6,7.8,7.7,12.5c1.7,4.9,3.4,9.8,5.1,14.7c0.8,2.2,0.4,2.9-1.9,3.2
		c-5.3,0.6-10.7,1.1-16,1.6c-0.9,0.1-1.9-0.2-2.8-0.2c-7,0-14.1,0-21.1,0h-1.7c0.6-3,1.3-5.7,1.6-8.4c0.3-2.4-0.6-3.2-3-3.8
		c-4.6-1.1-9.2-2.5-14-2c-0.2,0-0.3-0.1-0.6-0.1c0-6.3,0-12.6,0-18.9C43.9,33.9,46.4,30.6,49.7,27.9z M43.1,66
		c0.1-1.6,0.3-3.2,0.4-4.8c0-1,0.4-1.6,1.4-1.6c2.9,0.2,5.8,0.4,8.8,0.7c1.4,0.1,2.9,0.4,4.3,0.6c1.4,0.2,2.6,0.6,2.4,2.5
		c-0.1,1-0.1,2.1-0.2,3.5c-1-0.7-1.7-1.2-2.2-1.7c-3.1-3.3-6.9-2.8-10.8-2.1c-0.5,0.1-1.1,0.6-1.4,1.1c-0.2,0.3-0.1,1.2,0.2,1.3
		c3.6,2.1,7.3,3.5,11.6,2.6c0.5-0.1,1.1,0.2,1.7,0.3c-0.4,2.7-1.1,3.4-3.5,2.9c-2.5-0.5-5-1.3-7.6-2c-0.8-0.2-1.6-0.4-2.4-0.4
		C43.3,69.1,42.9,68.1,43.1,66z M48.8,63.8C48.8,63.9,48.8,63.9,48.8,63.8c0,0.1,0.1,0.2,0.1,0.2c-0.4,0.5-0.4,1.4-0.3,1.9
		c0,0-0.1,0-0.1,0c0,0-0.1,0-0.1,0c-0.4-0.1-0.7-0.2-1-0.5c0,0,0,0,0,0c-0.6,0-0.8-1-0.2-1.1c0.2,0,0.4-0.1,0.5-0.1c0,0,0,0,0,0
		c0,0,0,0,0.1,0c0.2-0.1,0.4-0.2,0.7-0.2C48.7,63.8,48.7,63.8,48.8,63.8z M54.5,65.9c0-0.4-0.1-1.2-0.4-1.7c0,0,0.1,0,0.1,0.1
		c0.1,0,0.2,0,0.3,0c1,0.4,2,0.8,2.3,1.9c0.2,0.1,0.3,0.2,0.5,0.3c-0.1,0.2-0.1,0.5-0.2,0.7c-1.1,0.1-2.1,0.1-3.3,0.2
		C54.2,67.1,54.5,66.4,54.5,65.9z M58.7,90.1c-1.9,1.1-3.7,0.7-5.3-1.5c1.4-0.9,2.8-1.8,4.2-2.5c0.3-0.1,1.4,0.6,1.6,1.2
		C59.7,88.2,60,89.4,58.7,90.1z M79.7,83.1c-0.4,1.2-1.3,2.4-2.4,3.1c-0.8,0.5-2.3-1.3-2.3-2.6c0-1.4,1.3-2.5,3-2.5
		C79.5,81.1,80,82.3,79.7,83.1z M86.5,87.6c-1.3,0.4-3.2-1.6-3.3-3c0-1.2,1.4-2.2,3.1-2.1c1.2,0,3.1,1.6,2.7,2.4
		C88.4,85.9,87.5,87.2,86.5,87.6z M88.7,90.7c-1.1-0.5-1-1.2-0.2-1.9c0.4-0.3,0.9-0.7,1.3-0.7c0.9,0.1,2.1,0.2,2.5,0.8
		c0.4,0.7,0,1.8-0.1,3.1C90.6,91.4,89.6,91.1,88.7,90.7z M89.4,98.5c0.5-0.8,1.2-1.6,1.8-2.3c0.4,0.4,0.7,0.8,1.4,1.6
		c-0.9,0.7-1.4,1.4-2.1,1.7C90.3,99.5,89.3,98.6,89.4,98.5z M86.9,109.6c2-3,4-6,6.1-9.1c1.7-2.5,1.6-4-0.3-6.2
		c0.4-0.8,0.7-1.6,1.2-2.4c1.5-2.5,0.2-4.4-1.9-5.9c-0.4-0.2-0.7-0.6-0.9-1c-0.4-0.8-0.6-1.8-1.2-2.4c-2.2-2.6-4-2.8-6.9-1.1
		c-0.3,0.2-0.7,0.4-0.7,0.4c-1-1-1.8-2.3-3-2.7c-1.8-0.6-3.5,0.4-4.9,1.5c-3.3,2.8-6.6,5.6-10,8.3c-1,0.8-2.1,1.5-3.3,2.3
		c0.1-2.2,1-4.2-0.5-6c-1.3-1.7-2.4-2.1-4.2-0.9c-2.6,1.7-5,3.6-7.4,5.4c-0.5,0.4-1,0.7-1.8,1.2c-0.5-2.4-1-4.7-1.4-7
		c-0.7-4-1.5-8.1-2.1-12.2c-0.2-1.5,0.3-1.9,1.9-1.5c2.8,0.8,5.6,1.7,8.5,2.3c3,0.5,6,0.9,9,0.9c8.4,0.1,16.9,0.2,25.3,0
		c3.6-0.1,7.2-0.7,10.8-1.2c1.5-0.2,3.1-0.4,5.1-0.6c0,2.8,0.1,5.4,0,8c-0.1,3-0.3,5.9-0.6,8.9c-0.5,4.3-2.5,8-5.1,11.3
		c-2.6,3.3-5.7,6.1-8.7,9.1c-0.8,0.8-2,1.1-3.4,1.8C86.7,110.2,86.7,109.9,86.9,109.6z M69,127.2c5.5-2.1,9-6.5,12.7-10.7
		c1-1.1,2.3-2.1,3.6-2.7c5.2-2.4,9.8-5.6,13.2-10.3c1.4-2,3-4,4.4-6c0.1,0,0.3-0.1,0.4-0.1c0,2.3,0,4.6,0,6.9c0,1.6-0.2,3.3,0,4.9
		c0.3,2.5,2.5,4.2,5.5,4.3c4.3,0.1,8.6,0.5,12.7-1.6c0.4-0.2,1.2-0.1,1.6,0.2c0.3,0.2,0.2,1.1,0,1.5c-1.7,3.6-3.3,7.3-5.3,10.6
		c-2,3.2-4.3,6.3-6.9,9c-3.1,3.1-6.5,6-10.9,7.4c-6.9,2.2-13.6,2.7-20.2-0.9c-2-1.1-3.9-2.7-5.6-4.3c-2.2-2.3-4.2-4.9-6.4-7.6
		C68.5,127.4,68.8,127.2,69,127.2z M130.1,111.2c-2.4,7.1-5.1,14.2-9.7,20.2c-2.1,2.7-4.6,5-7,7.4c-3,2.9-6.3,5.3-10.1,7.2
		c-6.3,3.2-13,3.6-19.7,2.8c-4.7-0.6-8.7-3.3-11.8-7.1c-1.8-2.2-3.8-4.2-5.5-6.4c-1-1.3-1.9-2.8-2.3-4.4c-0.3-1.2,0.5-2.4,1.6-2.9
		c2.1,2.7,4,5.2,6.1,7.5c4.1,4.6,9.2,8,15.5,8.6c6.6,0.7,13-0.6,18.7-4.5c6.1-4.2,11.4-9.2,14.5-16.1c1.7-3.8,3.3-7.7,5.2-11.4
		c0.6-1.1,2.1-1.8,3.4-2.3C129.9,109.4,130.4,110.3,130.1,111.2z"/>
	<path class="st0" d="M90.8,65.5c-1.6-1-3.3-1.9-5-2.8c-0.7-0.4-1.5-0.8-2.3-0.8c-4.3,0.2-7.7,2-10.1,6c3.1,0.9,6,1.7,9.1,1.1
		c2.7-0.5,5.4-1.3,8.1-2C91.6,66.7,91.7,66.1,90.8,65.5z M75.8,67.5c0-0.2-0.1-0.3-0.1-0.5c0.5-0.4,1.1-0.8,1.6-1.3
		c0.1-0.1,0.1-0.2,0.3-0.3c0.1-0.1,0.2-0.1,0.4-0.1c0,0,0,0,0.1,0c0,0,0,0,0,0c0,0,0,0,0,0c0,0.9,0.1,1.9,1,2.3
		C77.8,67.6,76.8,67.6,75.8,67.5z M84.1,67.4c-0.1,0.1-0.3,0.1-0.4,0.1c0.5-0.5,0.8-1.2,0.7-1.9c0-0.3-0.1-0.6-0.3-0.9
		c-0.1-0.4-0.2-0.9-0.3-1.3c0,0,0,0,0,0c1.6,0.7,3,1.4,4.5,2.1c0,0.2,0,0.4,0,0.6C87,66.5,85.5,66.9,84.1,67.4z"/>
	<path class="st0" d="M73.1,61.9c-0.5-1.5-0.1-2.1,1-2.7c2.8-1.3,5.7-1.4,8.7-1.6c2-0.1,4-0.1,6,0c0.5,0,0.9,0.5,1.3,1.1
		C84.4,59.8,78.4,59.1,73.1,61.9z"/>
</g>
</svg>
