<?xml version="1.0" encoding="utf-8"?>
<!-- Generator: Adobe Illustrator 19.2.1, SVG Export Plug-In . SVG Version: 6.00 Build 0)  -->
<svg version="1.1" id="Layer_1" xmlns="http://www.w3.org/2000/svg" xmlns:xlink="http://www.w3.org/1999/xlink" x="0px" y="0px"
	 viewBox="0 0 150 143.6" style="enable-background:new 0 0 150 143.6;" xml:space="preserve">
<style type="text/css">
	.st0{fill:#C2185B;}
</style>
<g id="icon-cough-lady">
	<path class="st0" d="M0,91.8c0.1-0.4,0.3-0.8,0.4-1.3c0.2-0.9,0.4-1.7,0.6-2.6c0.3-1.2,0.7-2.4,1.1-3.5c0.5-1.3,1.1-2.5,1.6-3.7
		c1.3-2.8,2.4-5.7,4.5-8c2.3-2.6,4.5-5.3,7.4-7.3c1.9-1.3,4.1-2.1,6.4-2.3c2-0.2,4-0.3,6-0.5c0.6,0,1.2,0,2,0
		c-1.7-1.4-1.6-3.1-0.7-4.5c0.3-0.5,0.9-0.8,1.3-1.1c1.1-0.6,2.2-1.2,3.3-1.9c0.2-0.1,0.4-0.4,0.6-0.8c-0.4,0-0.8-0.1-1.2-0.1
		c-0.5,0-0.9,0-1.4-0.1c-0.8-0.1-1.7-0.1-2.4-0.7c-0.3-0.3-0.7-0.7-0.9-1.2c-0.4-1.1-0.1-3.5,1.4-3.7c1.2-0.2,1.7-0.6,1.8-1.8
		c0-0.8,0.8-1.2,1.5-1.4c1.3-0.5,2.7-1,4.2-1c0.4,0,0.9-0.1,1.3-0.2c0.7-0.1,1.4-0.3,2-0.4c1.1-0.1,1.4-0.3,1.7-1.3
		c0.7-2.1,1.7-3.9,3.5-5.3c1.4-1.1,2.9-2.3,3.9-3.8c1.2-1.8,3-2.6,4.6-3.8c1.1-0.8,2.2-1.5,3.1-2.5c0.5-0.6,1.3-1,2-1.4
		c1.8-1,3.2-2.4,4.5-4c1.2-1.4,2.4-2.8,3.4-4.3c0.9-1.4,2.3-2.2,3.4-3.4c2.2-2.4,4.8-4.5,7.5-6.4c0.4-0.3,0.7-0.7,0.9-0.9
		c0.2,0.1,0.4,0.1,0.5,0.1c2.7-1.1,5.4-2.3,8.1-3.4c0.2-0.1,0.4-0.1,0.5-0.2c1.7-1.5,4-1.8,6.1-2.3c1.5-0.4,3.1-0.3,4.6-0.8
		c1.5-0.4,2.8,0.2,4.1,0.2c0.6,0,1.1,0.1,1.7,0.1c2.5,0,4.9,0.4,7.3,1c2.8,0.7,5.6,1.7,8.4,2.4c1.2,0.3,1.9,1.1,2.8,1.8
		c1,0.8,2,1.5,3.1,2.1c0.8,0.5,1.4,1.2,2,1.9c0.8,0.9,1.6,1.8,2.5,2.7c0.1,0.1,0.3,0.3,0.3,0.4c0,0.8,0.6,1.1,1,1.6
		c1.7,2,3.3,4.1,4.4,6.5c0.8,1.6,1.7,3,2.7,4.5c0.5,0.7,1.2,1.3,1.7,2c0.9,1.2,1.7,2.4,2.5,3.7c0.4,0.6,0.7,1.2,1.1,1.8
		c0.6,1,1.2,1.9,1.6,2.9c0.6,1.3,1.3,2.6,1.4,4.1c0,0.8,0,1.6-0.2,2.4c-0.4,1.3-1,2.5-1.5,3.7c-0.4,1.1-1.2,2-2.1,2.8
		c-0.9,0.7-1.6,1.6-1.9,2.8c-0.1,0.3-0.2,0.5-0.3,0.8c-0.6,1.4-1.3,2.8-1.7,4.2c-0.7,2.4-1.9,4.6-3.1,6.8c-0.6,1.2-1.9,1.8-2.9,2.6
		c-1.6,1.2-3.1,2.5-4.1,4.3c-1.1,1.9-0.7,3.3,0.8,4.9c0.8,0.9,1.6,1.8,2.6,2.5c1.4,1.2,2.3,2.8,2.5,4.6c0.4,2.5,1.5,4.6,3.4,6.3
		c2.3,2,4,4.5,5,7.4c0.4,1.2,1.1,2.3,1.7,3.4c1.2,2.3,2.1,4.7,2.6,7.1c0.4,1.7,0.6,3.5,0.9,5.2c0.1,0.3,0.2,0.6,0.2,0.9
		c0.1,0.4,0.2,0.8,0.3,1.3c0.2,1.4-0.9,2.4-1.3,3.6c-0.6,2.1-1.6,3.9-2.8,5.6c-0.7,1-1.5,2-2.3,2.9c-1.2,1.3-2.8,1.8-4.5,1.7
		c-1.3-0.1-2.6-0.3-3.9-0.2c-2,0-3.8-0.7-5.6-1.4c-2.8-1.1-5.6-2.4-8.5-3.5c-2.1-0.8-4.2-1.4-6.2-2.6c0.1,0.6,0.2,1.1,0.2,1.6
		c0,1.4,0,2.7,0,4.1c0.1,2.2-0.2,4.3-0.7,6.4c-0.6,2.6-1.2,5.2-1.8,7.8c-0.3,1.2-0.6,2.4-0.9,3.6c-29.8,0-59.5,0-89.3,0
		c-0.1-1.2-0.2-2.5-0.4-3.7c-0.3-2.2-0.7-4.4-1.1-6.6c-0.3-1.9-0.7-3.7-0.9-5.6c-0.3-2.1-0.6-4.1-0.9-6.2c-0.2-1.4-0.5-2.7,0.3-3.9
		c0.3-0.6,0.8-1.1,1.1-1.6c1-2,2.1-3.9,3-5.9c1-2.2,1.8-4.4,2.7-6.6c0.3-0.8,0.7-1.5,1.1-2.2c0.2-0.3,0.4-0.6,0.6-1
		c1.6-3.7,3.4-7.4,4.4-11.4c0.6-2.2,1.1-4.4,1.3-6.6c0.3-3.2,0.5-6.5-0.2-9.7c-0.4-2-0.7-4.1-1.1-6.1c-0.4-1.8-1.5-2.9-3.5-2.7
		c-1.6,0.2-3.2,0.2-4.7,0.3c-0.8,0-1.5,0-2.3,0.1c-2,0.5-4,1.1-5.7,2.3c-2,1.4-3.6,3.3-5.2,5.1c-1.4,1.6-2.8,3.2-3.8,5
		c-1.6,3-3,6.1-4.1,9.3c-0.9,2.6-1.4,5.4-2.2,8c-0.1,0.4-0.1,0.8-0.2,1.1c-0.1,0.2-0.2,0.4-0.4,0.5C0,94.3,0,93.1,0,91.8z
		 M46.3,69.4c-0.2,0.4-0.3,0.9-0.6,1.3c-0.1,0.2-0.4,0.2-0.7,0.3c-0.1-0.2-0.3-0.5-0.3-0.7c0-0.4,0.3-0.7,0.3-1.1
		c0.1-0.4,0.2-0.8-0.3-1c-1.3-0.6-2.5-1.4-3.9-1.9c-1.3-0.4-2.6-1.2-4.1-0.4c-0.9,0.5-1.5,1.5-1,2.5c0.6,1.4,1.5,2.5,2.7,3.4
		c1.1,0.9,2.3,1.7,3.5,2.6c1.6,1.1,3,2.4,4.9,3c0.8,0.3,1.6,0.7,2.3,1.1c1.8,1.2,3.5,2.5,5.2,3.6c1.9,1.2,3.8,2.2,6.1,2.5
		c1.6,0.2,3.2,0.9,4.8,1.2c2.2,0.5,4.2,1.2,6.1,2.2c0.6,0.3,1.2,0.4,1.7,0.8c2,1.4,4.1,2.9,6.1,4.4c1.9,1.4,3.8,2.9,5.7,4.3
		c1.5,1.2,3.1,2.4,4.6,3.7c1.5,1.3,2.9,2.7,4.3,3.9c1.8,1.6,3.7,3.2,5.6,4.7c0.7,0.6,1.5,1.1,2.3,1.6c1.1,0.6,2.4,1.1,3.5,1.7
		c2.5,1.4,5,2.9,7.5,4.3c1,0.6,2.1,1.1,3.2,1.6c1.2,0.6,2.5,1.1,3.7,1.7c0.8,0.3,1.6,0.6,2.4,0.9c1.6,0.6,3.2,1.3,4.8,2
		c1,0.4,2.1,0.9,3.2,1.3c1.4,0.5,2.8,1.1,4.2,1.3c1.7,0.3,3.4,0.2,5.1,0.3c0.6,0,1.1,0,1.7-0.2c1.4-0.4,2.3-1.4,3.1-2.6
		c1.5-2.1,3-4.3,3.7-6.8c0.1-0.3,0.2-0.6,0.4-0.9c0.7-0.8,0.8-1.6,0.6-2.6c-0.2-1.1-0.2-2.3-0.4-3.5c-0.2-0.9-0.5-1.8-0.7-2.7
		c-0.4-1.9-0.9-3.8-1.8-5.6c-1.1-2.2-2.4-4.3-3.2-6.7c-0.7-2.1-2.1-3.7-3.7-5.1c-2.1-1.8-3.6-3.9-4-6.8c-0.2-1.2-0.7-2.4-1.3-3.4
		c-0.6-0.9-1.5-1.6-2.3-2.4c-1.2-1-2.2-2.1-2.7-3.6c0-0.1-0.3-0.3-0.3-0.2c-0.1,0.1-0.3,0.2-0.3,0.4c-0.3,1.5-0.5,2.9-0.8,4.4
		c-0.3,1.2-0.4,2.6-0.9,3.7c-0.8,2-1.7,2.3-3.7,1.5c-0.8-0.3-1.6-0.5-2.4-0.8c-1.2-0.4-1.3-0.3-1.1,1c0.2,0.9,0.1,1.2-0.8,1.5
		c-2,0.7-4.1,1-6.2,0.7c-0.2,0-0.5,0.1-0.8,0.1c0.2,0.2,0.3,0.4,0.4,0.4c0.8,0.3,1.5,0.6,2.3,0.8c1.1,0.3,2.2,0.5,3.3,0.8
		c1.7,0.5,3.4,1,5.1,1.4c1.5,0.3,3,0.4,4.5,0.8c1.9,0.4,3.8,0.9,5.6,1.5c0.8,0.3,1.6,0.8,2.4,1.1c1.7,0.6,2.9,1.7,4.3,2.8
		c0.1,0.1,0.2,0.2,0.2,0.3c0,0.2,0,0.4-0.1,0.5c-0.1,0.1-0.3,0.1-0.4,0c-0.5-0.2-1-0.4-1.3-0.8c-1.4-1.4-3.2-1.8-4.9-2.6
		c-1.3-0.5-2.7-0.9-4-1.3c-1.2-0.3-2.4-0.6-3.6-0.7c-1.6-0.2-3.3-0.2-4.9-0.8c-0.8-0.3-1.6-0.6-2.3-0.8c-1.8-0.6-3.6-1.1-5.5-1.6
		c-1.8-0.6-3.6-1.3-5.5-1.9c-2.2-0.7-4.5-1-6.7-1.8c-3.8-1.4-7.6-2.9-11.3-4.4c-2.3-0.9-4.5-2-6.9-2.6c-1.2-0.3-2.4-1-3.5-1.6
		c-0.3-0.1-0.4-0.6-0.7-0.8c-0.9-0.6-1.9-1.2-2.8-1.8c-1.4-0.9-2.9-1.8-4.2-2.8c-0.7-0.5-1.3-1.1-1.7-2c-0.5-1.3-1.2-2.5-1.8-3.7
		c-0.9-1.6-1.8-3.3-2.8-4.9c-0.4-0.8-0.7-1.7-1.3-2.4c-1.6-2.1-3.3-4.1-5-6.2c-0.1-0.1-0.3-0.2-0.4-0.4c-0.7-0.7-1.4-1.4-2.1-2.1
		c-0.6-0.6-1-1.4-1.9-1.6c-0.8-0.2-1.6-0.5-2.5-0.7c-2-0.4-4-0.8-6-1.1c-1.3-0.2-2.6-0.1-3.9,0c-1.4,0.1-2.9,0.3-4.3,0.5
		c-1,0.1-2,0.3-3,0.6c-0.8,0.2-1.3,1-1.2,1.6c0.1,0.3,0.2,0.7,0.3,1c1.2,0.3,2.3,0.9,3.7,0.5c0.9-0.3,2-0.3,3-0.5c0-0.1,0-0.3,0-0.4
		c0-0.5-0.1-0.9-0.1-1.4c0-0.2,0.3-0.3,0.4-0.5c0.1,0.2,0.3,0.4,0.3,0.6c0.1,0.6,0.1,1.1,0.2,1.7c0.2,0,0.4,0,0.5,0
		c0.6-0.1,1.2-0.3,1.9-0.3c2.2-0.1,4.2,0.6,6.3,1.1c1.8,0.5,3.2,1.7,4.4,3.1c1.6,1.7,2.8,3.6,3.6,5.7c0.1,0.1,0.1,0.3,0.1,0.5
		c0.1,1.2,0.3,2.3,0.3,3.5c0.2,4.2-0.3,8.3,0.5,12.5c0.3,1.7,0.9,3.3,2.4,4.3c0.1,0.1,0.3,0.3,0.3,0.4c0,0.2,0,0.5-0.1,0.6
		c-0.1,0.1-0.4,0-0.6-0.1c-0.4-0.3-0.8-0.6-1-1c-1.5-2.1-2.1-4.6-2.2-7.2C57,68,57,64.2,57,60.4c0-1-0.2-2-0.8-2.8
		C56,57.5,56,57.2,55.9,57c-0.1-0.4-0.2-0.8-0.4-1.1c-1.1-1.3-2.2-2.7-3.4-3.9c-1.2-1.2-2.7-1.8-4.4-2.1c-0.8-0.2-1.1,0.3-1.5,0.8
		c0.1,0.1,0.2,0.2,0.2,0.2c1.5,0.3,2.5,1.3,3.7,2.1c0.5,0.4,1,0.8,1.4,1.3c0.6,0.9,1.2,1.9,1.7,2.9c0.3,0.5,0.2,0.8-0.4,1.1
		c-0.6-0.9-1.2-1.7-1.7-2.7c-1-2-2.7-3.1-4.6-3.8c-2.6-0.9-5.4-1-8.1-1.3c-1.6-0.2-3.2-0.4-4.8-0.8c-1.1-0.3-2.1-0.1-3.2,0
		c-0.3,0-0.6,0.4-0.7,0.7c-0.3,1.2-0.3,2.3,1.3,2.6c1.4,0.3,2.8,0.3,4.2,0.4c1.2,0.1,1.3,0,1.5-1.2c0-0.1,0-0.2,0-0.2
		c0.1-0.1,0.3-0.4,0.4-0.4c0.1,0,0.4,0.2,0.4,0.3c0.1,0.4,0,0.8,0,1.4c1.5,0,3,0,4.4,0c0.2,0,0.4-0.3,0.5-0.5
		c0.2-0.3,0.2-0.9,0.8-0.7c0.5,0.2,0.3,0.6,0.1,1c0,0.1,0,0.1-0.1,0.3c1.6,1,3.3,2,4.9,3c0.2-0.2,0.5-0.4,0.7-0.7
		c0.2-0.2,0.5-0.5,0.8-0.1c0.1,0.1-0.1,0.5-0.2,0.8c-0.2,0.2-0.4,0.4-0.7,0.6c0.3,0.3,0.5,0.5,0.8,0.6c1,0.8,2.1,1.5,2.7,2.6
		c0.1,0.2,0.1,0.7,0,0.7c-0.3,0.2-0.7,0.1-0.9-0.3c-0.2-0.4-0.5-0.9-0.8-1.1c-2-1.5-3.8-3.3-6.2-4.2c-0.1,0-0.3-0.1-0.4-0.2
		c-0.7-0.7-1.6-0.6-2.5-0.6c-0.8,0-1.7,0.3-2.5,0.3c-2.1,0.1-4.1,0.7-5.8,1.9c-1,0.7-2.2,1.3-3.1,2.1c-0.6,0.5-0.6,1.3-0.4,2
		c0.2,0.7,0.8,0.8,1.4,0.9c1.2,0.2,2.4,0,3.5-0.5c0.8-0.4,1.4-0.8,1.2-1.8c0-0.1,0-0.3,0-0.3c0.2-0.2,0.4-0.4,0.7-0.4
		c0.1,0,0.3,0.3,0.4,0.5c0.1,0.2,0,0.4,0,0.7c0,0.5,0.2,0.7,0.7,0.7c1.1-0.1,2.2-0.2,3.3-0.4c0-0.4-0.1-0.9,0-1.3
		c0-0.2,0.3-0.4,0.5-0.6c0.2,0.2,0.4,0.4,0.6,0.6c0.1,0.1,0,0.3,0,0.4c0.1,1,0.3,2,1.3,2.5c1,0.5,2.1,1,3.2,1.5
		c0.1-0.4,0.1-0.6,0.1-0.9c0.1-0.6,0.1-1.1,0.3-1.7c0.1-0.2,0.5-0.3,0.8-0.4c0.1,0.2,0.2,0.5,0.2,0.7c-0.1,0.9-0.2,1.7-0.2,2.6
		c0,0.4,0.2,0.8,0.4,1.1c0.5,0.5,1,1,1.6,1.5c0.9,0.8,1.1,0.8,2,0.1c0.1-0.1,0.2-0.3,0.3-0.3c0.3,0,0.6,0,0.9,0
		c-0.1,0.3-0.1,0.7-0.2,0.9c-0.3,0.3-0.7,0.5-1.1,0.7c-0.2,0.1-0.3,0.3-0.4,0.5c-0.2,0.5-0.4,1.1-0.5,1.7c-0.4,1.3-1.8,2.1-1.4,3.7
		c0.1,0.3-0.6,0.5-0.8,0.2c-0.1-0.2-0.2-0.5-0.2-0.8c0-0.9-0.1-1.7-0.9-2.3C47.2,70.1,46.8,69.7,46.3,69.4z M44.8,78
		c-0.2,2.1-0.5,4.1-0.6,6.2c-0.1,1.6,0,3.2,0.2,4.8c0.2,2,0.6,3.9,0.9,5.9c0.3,1.7,0.5,3.4,0.8,5.1c0.2,1.3,0.5,2.5,0.7,3.8
		c0.4,2.3,0.7,4.6,1.2,6.8c0.3,1.6,0.9,3.2,1.3,4.8c0.3,1.2,0.4,2.3,1.1,3.4c1.6,2.8,4,4.9,6.3,7.1c1.8,1.7,4.2,2.5,6.5,3.3
		c0.6,0.2,1.3,0.5,1.9,0.5c1,0,1.9-0.1,2.9-0.2c1.2-0.1,2.5-0.1,3.7-0.4c1.4-0.3,2.7-0.9,4-1.3c0.9-0.3,1.8-0.5,2.6-0.9
		c3-1.4,5.1-3.7,7.2-6.1c1.2-1.4,1.9-3.1,2.6-4.9c0.9-2.4,2.1-4.8,3.2-7.2c0.5-1.2,1.2-2.5-0.3-3.6c-0.4-0.3-0.5-0.8-0.8-1.1
		c-0.3-0.3-0.5-0.6-0.8-0.9c-1.5-1.3-3-2.6-4.5-3.8c-0.4-0.4-1-0.7-1.4-1c-0.7-0.5-1.5-1-2.2-1.5c-2.1-1.7-4.1-3.4-6.3-5
		c-2.7-1.9-5.7-3.3-8.8-4.5c-0.7-0.3-1.5-0.5-2.3-0.6c-1-0.1-2-0.1-3-0.3c-0.5-0.1-1-0.4-1.5-0.6c-1.3-0.6-2.8-0.9-4-1.7
		c-1.6-0.9-3.1-2.1-4.7-3.2C48.8,79.6,47,78.4,44.8,78z M130.1,50.6c-0.4-0.1-0.7-0.1-1-0.2c-3-0.9-6-1.5-9.2-1.5
		c-0.5,0-0.9,0.1-1.4,0.1c-1,0.1-1.8,0.3-2.5,1c-1,0.9-2,1.8-3,2.7c-1.8,1.8-4.1,2.8-6.4,3.6c-1.2,0.4-2.6,0.4-3.9,0.6
		c-0.6,0.1-1.3,0-1.9,0.2c-1.6,0.3-3.1,0.6-4.7,1c-2.1,0.5-4,1.3-5.3,3.1c-1.7,2.3-3.6,4.5-5.3,6.8c-0.8,1-1.4,2.2-1.9,3.4
		c-0.4,0.9-0.9,1.7-1.5,2.4c-0.2,0.3-0.5,0.6-0.7,0.9c-0.3,0.5-0.1,1,0.5,1.1c0.6,0.1,1.1,0.2,1.7,0.5c2.5,0.9,5,1.9,7.4,2.9
		c2.1,0.9,4.1,1.9,6.2,2.7c2.5,1,5.2,1.7,7.8,2.3c0.7,0.1,1.3,0.3,2,0.5c-0.2-0.4-0.6-0.7-0.9-1c-0.2-0.2-0.5-0.3-0.2-0.7
		c0.3-0.3,0.6-0.3,0.9,0c1.6,1.6,3.5,2.2,5.7,2.2c0.8,0,1.6-0.1,2.4-0.1c0.7-0.1,1.4-0.2,2.1-0.4c1.1-0.3,1.1-0.3,1-1.4
		c0-1,0-1-1-1.2c-1.8-0.3-2.6-1.5-2.2-3.3c0.3-1.1,1-1.8,2-2.1c0.2-0.1,0.5,0.2,0.7,0.2c-0.2,0.2-0.3,0.4-0.5,0.5
		c-0.2,0.1-0.4,0.2-0.6,0.3c-0.9,0.5-0.9,1.4-0.8,2.2c0.1,0.7,0.5,1,1.2,1.2c1,0.2,2.1,0.4,3.1,0.7c1.2,0.3,2.3,0.8,3.5,1.1
		c0.6,0.2,1.2,0.1,1.6-0.5c0.8-1.3,0.9-2.7,1.2-4.1c0.5-2.4,0.9-4.9,1.6-7.3c0.4-1.3,1.2-2.5,2.1-3.5c0.7-0.9,1.8-1.5,2.8-2.1
		c3-1.8,4.6-4.5,5.6-7.8c0.6-2,1.5-4,2.2-6c0.1-0.3,0.2-0.6,0.3-1c-0.4,0-0.7,0-0.9,0c-0.9,0.1-1.7,0.2-2.6,0.2
		c-1.3,0-2.6,0-3.9-0.1c-0.4,0-0.9,0-1.1-0.3c-0.4-0.7-0.7-1.5-1-2.3c-0.5-1.3-0.9-2.6-1.4-3.9c-0.2-0.6-0.4-1.3-0.5-2
		c-0.4-2.1-0.7-4.1-1.1-6.2c-0.3-1.2-0.7-2.4-1.1-3.6c-0.6-1.7-0.8-3.6-1.9-5.1c-0.9-1.4-1.9-2.8-3.5-3.5c-0.7-0.3-1.4-0.6-2-1.2
		c-0.6-0.6-1.5-0.4-1.9,0.2c-0.4,0.6-0.1,1.1,0.6,1.6c0.8,0.6,1.6,1.2,2.6,1.4c0.1,0,0.2,0.1,0.3,0.2c1.1,0.8,2,1.8,2.5,3.1
		c0.6,1.5,0.9,3.2,1.5,4.7c0.8,2,1.2,4.1,1.6,6.1c0.3,1.5,0.5,3,0.8,4.5c0.3,1.1,0.8,2.2,1.2,3.3C129.4,48.7,129.8,49.6,130.1,50.6z
		 M43.9,63.2c0,0.4-0.1,0.7-0.1,1c0,0.6,0.2,1.1,0.2,1.7c0,0.6,0.2,0.9,0.7,1.2c1.3,0.8,2.6,1.7,3.9,2.6c0.6,0.4,1.3,0.4,1.7-0.2
		c0.5-0.6,0.3-1.4-0.3-1.9c-0.7-0.5-1.3-1.2-1.9-1.8C46.9,64.6,45.6,63.6,43.9,63.2z M40.4,49.8c1.3,0.2,2.6,0.3,3.9,0.6
		c0.9,0.2,1.2-0.3,1.7-0.9C44,49.1,42.2,49.2,40.4,49.8z"/>
	<path class="st0" d="M124.7,68.2c-2.1-0.1-4-0.7-5.7-1.9c-1-0.7-2-1.4-3.2-1.6c-0.2,0-0.4-0.4-0.6-0.5c0.2-0.2,0.5-0.5,0.7-0.5
		c1,0.1,2,0.1,2.9,0.8c0.6,0.4,1.3,0.7,2.1,0.9c2,0.7,4.1,0.8,6.1,1c0.4,0,0.8-0.1,0.9,0.5c0.1,0.6-0.3,0.8-0.7,0.9
		C126.3,68,125.5,68.1,124.7,68.2z"/>
	<path class="st0" d="M118.4,71.6c-1.7-0.5-3.3-0.9-5-1.5c-0.4-0.1-0.6-0.5-0.9-0.8c-0.6-0.5-1.2-1-1.8-1.5
		c-0.2-0.2-0.2-0.5-0.4-0.7c0.3,0,0.6-0.2,0.8-0.1c0.5,0.3,1,0.7,1.5,1.1c1.6,1.6,3.6,2.2,5.8,2.3c0.4,0,0.9-0.3,1.3-0.4
		c0.2-0.1,0.5-0.1,0.8-0.1c-0.1,0.2,0,0.5-0.2,0.7c-0.5,0.5-1.1,0.8-1.8,0.8C118.4,71.5,118.4,71.6,118.4,71.6z"/>
</g>
</svg>
