<?xml version="1.0" encoding="utf-8"?>
<!-- Generator: Adobe Illustrator 19.2.1, SVG Export Plug-In . SVG Version: 6.00 Build 0)  -->
<svg version="1.1" id="Layer_1" xmlns="http://www.w3.org/2000/svg" xmlns:xlink="http://www.w3.org/1999/xlink" x="0px" y="0px"
	 viewBox="0 0 186.8 200" style="enable-background:new 0 0 186.8 200;" xml:space="preserve">
<style type="text/css">
	.st0{fill:#E64A19;}
</style>
<g id="icon-drymouth">
	<path class="st0" d="M0,200c0.4-1.3,0.8-2.6,1.1-3.8c0.8-2.7,2.3-4.9,4.2-6.9c2-2.2,4.2-4.4,6.5-6.4c1.4-1.2,3.1-2,4.6-3
		c1.4-0.9,3-1.6,4.4-2.4c3.2-1.8,6.7-2.8,10.2-3.7c1.8-0.5,3.6-1.2,5.5-1.5c4.9-0.8,9.7-2.4,14.5-3.7c1.5-0.4,2.9-1.1,4.4-1.6
		c2.5-0.7,5.1-1.3,7.7-1.9c1.8-0.5,3.6-1,5.4-1.6c0.2-0.1,0.4-0.3,0.4-0.5c0.2-2.3,0.3-4.5,0.5-6.8c0.2-2.3,0.3-4.5,0.5-6.8
		c0.2-1.8,0.6-3.7,0.9-5.5c0.4-2.1,0.5-4.3,0.5-6.4c0-1.3,0-2.5-0.6-3.7c-1-1.9-1.8-3.9-2.6-6c-0.9-2.4-1.8-4.9-2.6-7.3
		c-1.5-4.3-3.1-8.6-4.6-12.9c-1.5-4.3-3-8.5-4.6-12.8c-0.7-1.9-1.7-3.8-2.5-5.7c-0.8-1.9-1.6-3.8-2.1-5.8c-1.2-4.9-2.1-9.8-3.2-14.7
		c-1-4.8-2.1-9.6-3.2-14.4c-0.9-4.1-0.9-8.3-0.8-12.4c0-0.8-0.1-1.6-0.1-2.4c0-1.3,0-2.7,0.7-4c0.7-1.4,1-3,1.7-4.4
		c1.3-2.5,2.7-5,4.2-7.5c0.8-1.4,1.5-2.8,2.6-3.9c3-3,5.7-6.3,9.3-8.6c3-2,6.1-3.7,9.4-5.3c2.1-1,4.4-1.5,6.6-2.1
		c2.4-0.6,4.8-1,7.2-1.5c1.6-0.3,3.3-0.6,5-0.8c1.4-0.2,2.7-0.2,4.1-0.3c3.4-0.3,6.7-0.6,10.1-0.8c1.5-0.1,3-0.1,4.4,0.2
		c2.1,0.3,4.2,0.9,6.3,1.4c0.8,0.2,1.5,0.6,2.2,0.9c3,1.2,5.9,2.3,8.9,3.5c2.8,1.1,5.2,2.9,7.7,4.7c2.4,1.8,4.9,3.5,7.3,5.2
		c1.6,1.1,2.9,2.6,3.9,4.2c1.6,2.7,3.9,4.7,5.7,7.2c0.6,0.8,1,1.6,1.4,2.5c2,3.9,3.1,8.1,4.3,12.2c0.1,0.2,0.1,0.4,0.2,0.5
		c1.4,2.7,1.8,5.7,2.5,8.6c0.5,2.2,1.1,4.4,1.7,6.6c0.1,0.2,0.2,0.5,0.4,0.6c2.1,0.6,3.3,2.1,4.5,3.7c1,1.4,2.1,2.8,2.9,4.2
		c1,1.9,1.3,4,1.5,6.1c0.1,1.9,0.2,3.8,0.1,5.6c-0.1,1.9-0.5,3.8-0.7,5.6c-0.3,2.7-1.9,4.7-2.9,7.1c-0.2,0.5-0.5,0.9-0.6,1.4
		c-1.1,3.4-3.7,5.7-6.3,7.9c-0.5,0.4-1.2,0.6-1.7,1c-0.4,0.3-0.9,0.6-1.2,1c-0.9,1.2-1.6,2.5-1.5,4.2c0.2,2.3,0.4,4.6,0.5,6.9
		c0.1,1.2,0,2.3,0,3.5c0.2,2.5,0.4,5.1,0.6,7.6c0.1,0.8,0.1,1.7,0.2,2.5c0.1,1.8,0.2,3.5,0.4,5.3c0.1,2,0.3,4.1,0.4,6.1
		c0.1,1.3,0.3,2.6,0.5,3.9c0.5,2.9,0.9,5.9,1.6,8.7c0.8,3.3,2,6.5,4.2,9.2c1.5,1.8,3.1,3.4,5,4.7c0.2,0.1,0.3,0.2,0.5,0.3
		c2.5,1,5,2,7.5,3.1c0.8,0.4,1.6,0.9,2.4,1.4c2,1.5,4.2,2.3,6.6,2.8c0,0.4,0,0.8,0,1.3c-2-0.5-3.9-1-5.7-2.1c-1.6-0.9-3-2.1-4.8-2.7
		c-2.2-0.7-4.3-1.7-6.4-2.7c-0.5-0.2-0.9-0.5-1.3-0.8c-1.3-1.2-2.6-2.3-3.9-3.6c-1.3-1.2-2.3-2.7-3-4.3c-0.1-0.2-0.2-0.3-0.3-0.6
		c-0.2,1.5-0.4,2.9-0.6,4.3c-0.3,3.2-0.6,6.4-1,9.6c0,0.3-0.3,0.8-0.5,0.8c-0.5,0.1-0.6-0.4-0.6-0.8c0.1-1.5,0.1-3,0.2-4.4
		c0.1-1.3,0.3-2.6,0.4-3.9c0.2-1.8,0.5-3.6,0.7-5.4c0.1-0.6-0.1-1.2,0.5-1.7c0.1-0.1,0-0.3,0-0.4c-0.6-2.2-1.2-4.3-1.7-6.5
		c-0.5-2.6-1-5.2-1.3-7.7c-0.2-1.4-0.2-2.8-0.3-4.2c-0.2-2.7-0.4-5.4-0.6-8c-0.1-1.1-0.1-2.2-0.2-3.3c-0.2-1.7-0.5-3.3-0.5-4.9
		c-0.1-2.3-0.1-4.6-0.2-6.9c0-0.2-0.1-0.5-0.1-0.7c-0.2,0.2-0.3,0.5-0.4,0.7c-0.8,2.5-1.4,5.2-2.5,7.6c-1.8,4.1-3.9,8.2-6.5,11.9
		c-0.4,0.6-0.7,1.2-1,1.8c-1.4,3.2-3.3,6.2-5.3,8.9c-1.7,2.3-3.9,4.2-6.2,6c-2.5,2-5,4.2-8,5.4c-3.1,1.3-6.1,2.9-9.5,3.6
		c-1.3,0.3-2.5,0.8-3.9,1.3c1.1,1.7,2,3.4,3.1,4.9c1.4,1.8,2.4,3.8,3.2,5.9c0.8,2.5,1.6,4.9,2.4,7.4c0.6,1.9,1.2,3.7,1.2,5.7
		c0,2,0.3,3.9,0.5,5.9c0.3,3.5,0.5,7.1,0.8,10.6c-0.4,0-0.7,0-1.1,0c-0.1-1.4-0.2-2.7-0.3-4.1c-0.1-1.7-0.2-3.5-0.3-5.2
		c-0.2-2.3-0.4-4.6-0.6-6.8c-0.1-0.8-0.1-1.6-0.3-2.4c-0.5-1.8-1.1-3.6-1.7-5.4c-0.6-1.8-1.5-3.5-1.9-5.4c-0.5-2-1.5-3.6-2.6-5.2
		c-1.5-2.3-2.9-4.6-4.1-7c-1.3-2.6-2.4-5.3-3-8.2c-0.9-4.1-1.9-8.2-3.1-12.1c-1.3-4.4-2.3-8.8-4.2-13c-0.8-1.8-1.5-3.7-2.9-5
		c-1.4-1.4-1.8-3.1-2-4.8c-0.4-2.8-0.9-5.6-2-8.3c-0.7-1.7-1.5-3.3-3-4.4c-0.2-0.1-0.5-0.2-0.7-0.2c-0.1,0-0.3,0.3-0.3,0.5
		c0.1,0.9,0.1,1.8,0.2,2.7c0.3,1.8,0.5,3.7,0.9,5.5c0.5,2.6,0.8,5.3,1.5,7.9c1.1,3.8,1.7,7.7,2,11.7c0.1,1.4,0.3,2.7,0.5,4.1
		c0.1,1.1,0.3,2.1,0.5,3.2c0.2,1.8,0.2,3.7,0.8,5.5c0.5,1.3,0.6,2.8,0.8,4.1c0.2,1.1,0.3,2.1,0.5,3.2c0.3,1.6,0.9,3.2,1.1,4.8
		c0.3,2.3,0.2,4.7,0.4,7c0,0.7,0.1,1.5,0.4,2.2c0.6,1.5,0.8,3,0.7,4.6c0,0.3-0.4,0.7-0.6,0.7c-0.5,0.1-0.5-0.4-0.5-0.8
		c-0.1-1.1-0.3-2.3-0.4-3.4c-0.1-0.5-0.4-0.9-0.4-1.4c-0.1-2.1-0.2-4.1-0.3-6.2c-0.1-1.3-0.3-2.6-0.5-3.8c-0.5-2.2-1.2-4.4-1.2-6.7
		c0-1.3-0.5-2.5-0.7-3.8c-0.2-1.1-0.5-2.2-0.7-3.4c-0.2-1.3-0.2-2.6-0.3-3.9c-0.3-2.2-0.6-4.5-0.9-6.7c-0.4-2.8-0.7-5.6-1.3-8.3
		c-0.6-3-1.5-6-2-9c-0.5-3-0.8-6.1-1.2-9.1c-0.2-1.4-0.8-1.9-2.3-1.5c-0.6,0.2-1.4,0.3-1.4,1.1c0,1,0,2,0.3,3c0.7,2.2,1,4.4,1.1,6.7
		c0.2,5.4,0.2,10.7,0.3,16.1c0,3.3-0.1,6.5-0.2,9.8c-0.1,3.9,0.3,7.8,0.9,11.6c0.5,3,1,5.9,1.4,8.9c0.2,1.6,0.2,3.2,0.2,4.8
		c0,0.4-0.4,0.7-0.6,1.1c-0.1,0-0.2-0.1-0.3-0.1c-0.1-0.4-0.3-0.8-0.3-1.2c-0.1-1.1,0-2.2-0.2-3.2c-0.4-3-0.8-6.1-1.2-9.1
		c-0.4-3.4-0.9-6.8-1.1-10.3c-0.1-1.9,0.3-3.8,0.2-5.7c0-5.2-0.2-10.3-0.3-15.5c0-2.1,0-4.2,0-6.4c-0.1-1.6-0.2-3.2-0.5-4.8
		c-0.1-0.9-0.6-1.8-0.6-2.7c0-1.3-0.9-1.9-1.4-2.9c-0.1-0.1-0.2-0.2-0.4-0.3c-0.9-0.2-1.9-0.4-2.8-0.6c-0.1,0-0.3,0.1-0.4,0.2
		c-0.6,0.5-1.1,0.9-0.9,1.9c0.3,1.6,0.3,3.3,0.4,5c0.2,2.2,0.5,4.5,0.6,6.7c0.1,3.7-0.1,7.5-0.5,11.2c-0.5,3.8-0.3,7.8-0.4,11.7
		c-0.1,2.6-0.1,5.2-0.2,7.8c-0.1,2.5-0.1,5.1-0.2,7.6c0,4.2,0,8.5,0,12.7c0,0.1,0,0.3,0,0.4c-0.2,0.3-0.4,0.6-0.6,0.9
		c-0.3-0.2-0.7-0.4-0.7-0.7c-0.1-0.5,0-1,0-1.5c0.1-6.5-0.1-12.9,0.3-19.4c0.3-5.1,0.1-10.2,0.2-15.3c0-1.5,0.1-3,0.3-4.4
		c0.2-1.8,0.6-3.7,0.6-5.5c0.1-2.4-0.1-4.7-0.1-7.1c0-1-0.1-1.9-0.2-2.9c-0.2-1.9-0.4-3.8-0.6-5.6c-0.1-0.7-0.1-1.5-0.4-2
		c-0.6-1.1-1.8-0.6-2.8-0.6c-0.7,0-1,0.5-1.1,1.2c-0.2,2.4-0.4,4.8-0.5,7.2c0,3.1-0.1,6.2,0.4,9.3c0.4,2.7,0.3,5.5,0.4,8.3
		c0.1,1.7,0,3.4,0.1,5.2c0.2,2.9,0.2,5.8-0.3,8.6c-0.4,2.5-1.1,4.9-1.1,7.5c0,1.4-0.2,2.9-0.3,4.3c-0.2,2.4-0.4,4.8-0.6,7.2
		c-0.1,1.3-0.1,2.5-0.2,3.8c-0.4,4.8,1.3,9,3.6,13c1.1,2,2.4,3.9,3.3,5.9c1.6,3.9,3.6,7.5,5.9,10.9c0.9,1.3,1.6,2.8,2.5,4.2
		c-0.7,0-1.5,0-2.2,0c-3.2-1.9-6.4-3.9-9.7-5.8c-4.4-2.6-9-5.1-13.1-8.1c-1-0.7-1.8-1.7-2.6-2.6c-0.2-0.2-0.1-0.6-0.2-0.9
		c0.4,0,0.7,0,1.1,0c0.2,0,0.3,0.2,0.4,0.3c1.3,1.8,3.2,2.8,5,4c1.8,1.2,3.7,2.3,5.6,3.4c2.5,1.5,5.1,2.9,7.6,4.3
		c1.7,1,3.5,2.1,5.2,3.1c0-0.3-0.2-0.5-0.3-0.8c-1.6-2.7-3.3-5.4-4.8-8.2c-1-1.8-1.7-3.8-2.7-5.7c-1.5-2.9-3.3-5.5-4.5-8.6
		c-1-2.7-1.4-5.3-1.3-8.1c0-0.5,0.1-1,0.2-1.6c-0.4,0.1-0.7,0.1-0.9,0.2c-1.4,0.4-2.9,0.8-4.3,1.2c-2.5,0.6-5.2,1-7.6,1.9
		c-4.5,1.7-9.2,2.8-13.8,4.2c-2,0.6-4.2,0.9-6.2,1.4c-2.1,0.5-4.2,1.2-6.3,1.7c-3.6,0.9-6.9,2.2-10,4.2c-0.3,0.2-0.7,0.4-1,0.6
		c-1.8,1-3.8,1.9-5.4,3.1c-3,2.4-5.8,5.1-8.1,8.2c-1.3,1.7-2.5,3.5-3,5.7c-0.2,1-0.6,2-0.9,3C0.8,200,0.4,200,0,200z M53.8,68.2
		c0.5-0.7,0.9-1.1,1.2-1.6c0.4-0.6,0.6-1.2,1.1-1.7c2.5-2.5,5.4-4.5,8.3-6.5c0.2-0.2,0.5-0.2,0.7-0.3c2.3-0.8,4.7-1.3,7.2-1.5
		c1.3-0.1,2.6-0.2,3.8,0.6c0.6,0.4,0.7,0.9,0,1.3c-0.4,0.3-1,0.4-1.4,0.5c-1.4,0.4-2.8,0.7-4.3,1.1c-1.4,0.3-2.9,0.5-4.3,1
		c-1.9,0.6-3.7,1.3-5.4,2.3c-1.4,0.8-2.7,1.9-3.7,3.1c-1.5,1.8-2.2,4-2.7,6.3c-0.1,0.6-0.4,1.3-0.3,1.9c0.1,1.1,0.3,2.3,0.6,3.4
		c0.6,1.9,0.9,3.8,0.8,5.8c0,0.8,0,1.7,0,2.5c0,0.4,0.1,0.8,0.2,1.2c0.3,1,0.7,2.1,1,3.1c0.3,1.2,0.5,2.5,0.9,3.7
		c1.4,4.1,3,8.2,4.4,12.4c1.3,3.6,2.6,7.2,3.9,10.9c0.6,1.6,1,3.3,1.6,4.9c0.9,2.4,2,4.8,3,7.2c0.2,0.5,0.4,0.9,0.6,1.2
		c0-2,0-4.1,0-6.2c0-1.2-0.1-2.4-0.2-3.6c-0.2-1.9-0.4-3.7-0.5-5.6c-0.1-2,0.1-3.9,0.1-5.9c0.1-1.8,0.2-3.6,0.3-5.4
		c0.1-1,0.2-2.2,1.5-2.3c1.4-0.1,2.8-0.4,3.9,0.2c0.8-0.5,1.6-1.2,2.3-1.2c1.6,0,3.2,0.2,4.6,1.3c0.5-0.9,1.3-1.4,2.4-1.6
		c1-0.2,2-0.3,2.9,0.3c0.1,0.1,0.3,0.1,0.4,0c0.9-0.4,1.7-0.1,2.3,0.6c0.5-0.6,0.9-1.2,1.3-1.8c1.1-1.5,3.5-2.4,5-1.7
		c1.2,0.6,2,0.4,2.9-0.4c0.6-0.5,1.5-1,2.2-1.1c2.5-0.2,4.8,0.5,6.8,1.9c0.8,0.6,1.6,1.2,2.4,1.8c1.4,1,2.8,1.9,4.2,2.9
		c0.7,0.5,1.4,1.1,2,1.8c1.4,1.7,2.2,3.8,2.9,5.9c0.7,1.9,0.7,3.9,0.4,5.9c-0.4,2.1-1.1,4-1.7,5.9c-1.5,4.7-4.8,7.7-9.4,9.3
		c-1.9,0.7-4,1-6,1.5c0,0,0,0.1,0,0.2c0.7,2.5,1.4,5,2.1,7.6c0.7,2.5,1.5,5,1.9,7.6c0.6,3.2,2,6.1,3.4,9.1c1-0.3,2.1-0.7,3.1-1
		c2.7-0.7,5.3-1.4,7.8-2.7c1.8-0.9,3.8-1.6,5.5-2.8c2.4-1.6,4.5-3.6,6.8-5.4c3.4-2.7,5.7-6.4,7.8-10.1c0.9-1.6,1.7-3.3,2.6-4.9
		c1.1-1.9,2.3-3.7,3.3-5.6c1.1-2.2,2.2-4.4,3.2-6.6c0.7-1.6,1.1-3.4,1.7-5.1c0.5-1.6,1.2-3.1,1.4-4.7c0.3-2.4,0.3-4.8,0.2-7.2
		c-0.1-2.5-0.5-4.9-0.6-7.4c-0.1-3.4-0.1-6.8-0.2-10.3c0-1.1-0.1-2.2-0.1-3.3c0-0.7,0-1.4,0.1-2.1c0-0.2,0.4-0.5,0.6-0.4
		c0.2,0,0.5,0.3,0.5,0.6c0.1,0.4,0,0.9,0,1.3c0.1,1.8,0.1,3.5,0.2,5.5c0.4-0.4,0.5-0.7,0.8-0.8c0.7-0.3,1.4-0.7,2.1-0.9
		c1-0.2,1.7,0.4,2.4,1c0.4,0.3,1.1,0.3,1.6,0.3c0.1,0,0.3-0.2,0.3-0.4c-0.1-0.7-0.1-1.5-0.4-2.1c-0.3-0.7-1-1.3-1.5-2
		c-0.5-0.7-1-1.4-1.3-2.2c-0.4-1.1-0.7-2.1-1.8-2.7c-0.1-0.1-0.3-0.2-0.3-0.3c0-0.4,0-0.7,0-1.1c0.3,0,0.7,0,0.9,0.1
		c0.9,0.7,1.9,1.5,2.1,2.7c0.3,2.1,2.2,3.2,3.2,4.9c0.4-1.8,0.8-3.5,0.9-5.3c0.1-1-0.4-2-0.6-3c0-0.3,0.2-0.7,0.3-1
		c0.3,0.2,0.8,0.4,0.9,0.6c0.3,0.9,0.6,1.9,0.5,2.8c-0.1,1.8-0.3,3.6-0.7,5.4c-0.3,1.3-0.8,2.5-1.3,3.8c-0.1,0.3-0.4,0.5-0.7,0.7
		c-1,0.5-2.5,0.3-3.2-0.6c-0.5-0.6-1.2-0.9-2-0.6c-0.9,0.4-1.6,1-1.8,2.1c0,0.2-0.1,0.4-0.2,0.5c-0.5,0.2-0.5,0.6-0.4,1
		c0.1,3.1,0.2,6.2,0.3,9.4c0,0.9,0.6,1.2,1.2,1.2c1.2,0.2,2.4,0,3.3-0.9c1-1,2-2,2.9-3c0.7-0.7,1.3-1.5,1.8-2.4
		c1.1-2.1,2-4.2,2.9-6.4c0.4-1,0.9-2.1,1.1-3.2c0.4-1.8,0.8-3.7,0.9-5.5c0.1-2.2-0.1-4.4-0.2-6.7c-1.2,0.1-1.3,0-1.4-1
		c0-0.2-0.1-0.5-0.2-0.7c-0.9-1.8-2.2-3.3-3.6-4.7c-0.8-0.8-2-1-3-0.3c-0.9,0.6-1.6,1.3-1.9,2.3c-0.2,0.5-0.5,0.8-1,0.6
		c-0.5-0.2-0.5-0.7-0.2-1.1c0.6-0.9,1.2-1.8,2-2.5c1.5-1.3,3.6-1.2,4.9,0c1.3,1.3,2.6,2.6,3.4,4.2c0.1,0.2,0.2,0.4,0.4,0.5
		c-0.1-0.7-0.2-1.3-0.5-1.8c-1.1-2.4-2.7-4.4-4.5-6.3c-2.1-2.3-5.6-1.8-7,1c-0.5,1-0.9,2.1-1.2,3.2c-0.2,0.8-0.5,1.4-1.2,2
		c-1.3,1.2-2.1,0.4-2.4-0.8c-0.3-1-0.5-2.1-0.7-3.2c-0.3-1.8-0.8-3.5-1.8-5.1c-0.2-0.4-0.4-0.8-0.6-1.2c-1.1-3.1-2.6-6.1-4.5-8.8
		c-0.9-1.3-1.9-2.5-2.9-3.6c-1.1-1.3-2.5-2.5-3.5-3.9c-1.6-2.2-3.1-4.4-4.6-6.7c-1.4-2.2-2.9-4.2-5.1-5.6c-4-2.5-8.2-4.8-12.3-7.1
		c-2.6-1.4-5.5-2.3-8.4-2.6c-1.5-0.2-2.9-0.4-4.4-0.6c-1.7-0.2-3.5-0.4-5.3-0.5c-1.2,0-2.3,0.3-3.5,0.4c-1.8,0.2-3.6,0.5-5.4,0.7
		c-1.5,0.2-2.9,0.7-4.4,0.8c-2.6,0.2-5.2,0.1-7.9,0.2c-1.3,0.1-2.7,0.3-3.9,0.7c-1.9,0.7-3.7,1.7-5.6,2.5c-0.6,0.3-1.2,0.4-1.8,0.8
		c-2.2,1.5-4.3,3-6.5,4.4c-1.6,1-2.6,2.5-3.5,4.1c-1.5,2.6-1.9,5.5-2.8,8.2c-0.6,1.9-1.1,3.9-1.8,5.8c-1,2.8-1,5.6-0.3,8.5
		c0.4,1.6,1.1,3.1,1.5,4.7c0.4,1.5,0.6,3.1,0.9,4.7C53.6,65.5,53.7,66.7,53.8,68.2z M103.7,125.3c1.9-0.3,4-0.8,5.8-1.9
		c2.2-1.4,4.2-2.9,6.3-4.5c0.8-0.6,0.8-1.1,0-1.7c-0.8-0.6-1.7-1.1-2.6-1.5c-1.8-1-3.8-1.4-5.9-1.4c-1.7,0-3.5,0.1-5.1,0.9
		c-1.3,0.6-2.6,1.3-3.6,2.3c-0.9,0.9-1,1-0.3,2.1c0.6,0.9,1.2,1.9,1.7,2.9c0.4,0.7,0.7,1.5,1,2.2c0.1,0.2,0.3,0.4,0.4,0.4
		C102.2,125.1,102.8,125.2,103.7,125.3z M120.3,112.3c-0.1,0-0.2,0-0.3,0c-0.1,0.7-0.2,1.5-0.3,2.2c-0.2,1.6-0.9,3.2-2,4.1
		c-2.5,2-5.1,3.9-7.9,5.5c-2,1.2-4.3,2-6.7,1.9c-0.4,0-0.8-0.1-1.2-0.1c0.7,2.2,1.3,4.3,2,6.5c0.2,0,0.3,0,0.4,0
		c2.9-0.1,5.5-0.9,8.1-2.1c2.5-1.2,4.2-3,5.4-5.3c1.3-2.6,2.3-5.3,2.7-8.2c0.2-1.2,0.1-2.4,0.2-3.6
		C120.6,113,120.4,112.6,120.3,112.3z M118.6,108.6c-0.1-0.4-0.2-0.7-0.3-1c-1.2-1.9-3-3.1-4.7-4.5c-1-0.8-2.1-1.5-3.1-2.3
		c-2-1.7-4.4-2.7-7-3c-0.5-0.1-1,0.1-1.4,0.3c-0.7,0.4-1.4,0.8-2.1,1.3c-0.7,0.5-1.5,0.6-2.3,0.2c-1.3-0.6-2.7-0.7-3.8,0.4
		c-0.8,0.8-1.5,1.7-2.2,2.4c0.8,1.3,1.5,2.5,2.2,3.7c0.2-0.2,0.4-0.3,0.5-0.4c1.5-1.3,3-2.4,5-2.8c0.5-0.1,1-0.2,1.6-0.2
		c2.2-0.1,4.3-0.4,6.4,0.4c1,0.4,2.1,0.7,2.9,1.6c0.2,0.2,0.5,0.3,0.8,0.4c1.1,0.6,2.3,1,3.3,1.7C115.7,107.5,117,108.1,118.6,108.6
		z M109,104.5c-1.7-0.9-3.1-1.4-4.7-1.4c-1.5,0-2.9,0.2-4.4,0.5c-2,0.3-3.8,1.2-4.9,2.9c-0.5,0.8-0.4,1.3,0.6,1.5
		c2.3,0.5,4.5,0.3,6.7-0.3c1.9-0.5,3.8-1.3,5.7-2.1C108.3,105.5,108.6,105,109,104.5z"/>
	<path class="st0" d="M73.5,64.9c2.5-0.1,4.8,0.6,6.9,2c0.6,0.4,1.1,1,1.5,1.6c0.7,0.9,0.3,1.9-0.7,2.3c-0.5,0.2-0.9,0.6-1.4,0.8
		c-1.7,0.7-3.3,1.3-5,1.9c-2.2,0.8-4.4,1.3-6.5,2.2c-2.2,1-4.2,2.4-6.3,3.6c-0.3,0.2-0.8,0.3-1,0.2c-0.2-0.1-0.4-0.6-0.3-0.9
		c0.3-2.2,0.5-4.5,1.2-6.6c0.7-2.1,2-3.7,3.9-4.8c1.1-0.6,2.2-1.3,3.3-1.6C70.5,65.1,72,65.1,73.5,64.9z M73,72.7
		c-0.9-1-1.8-1.8-2.4-2.9c-0.7-1.1-0.2-2.3,0.5-3.4c-4.9,0.6-8.8,6.2-8.7,10.9C65.7,75,69.3,73.4,73,72.7z M76.3,68.1
		c0-0.5-0.3-0.8-0.9-0.9c-0.6-0.1-1,0.2-1,0.8c-0.1,0.6,0.3,0.9,0.8,1C75.8,69,76.2,68.8,76.3,68.1z"/>
	<path class="st0" d="M110.2,60.2c-1.6-0.2-2.8,0.4-3.7,1.5c-0.2,0.3-1,0.6-1.2,0.4c-0.3-0.2-0.5-0.8-0.6-1.2c0-0.2,0.4-0.5,0.6-0.8
		c0.1-0.1,0.3-0.3,0.4-0.4c0.6-1,1.1-2.1,1.8-3.1c0.8-1.1,1.8-2.1,2.8-3.1c0.6-0.7,1.3-1.3,2.1-1.8c1.4-1.1,2.9-1.9,4.6-2.3
		c1.4-0.3,2.7-0.7,4.1-0.3c0.4,0.1,0.7,0.2,1,0.4c0.8,0.4,1.6,1,2.5,1.4c0.6,0.3,0.9,0.7,0.9,1.4c0,1,0,2,0,2.9
		c-0.1,1-0.9,1.6-1.6,2.2c-1.2,1-2.7,1.2-4.2,1.6c-2.6,0.7-5.2,1-7.9,1.1C111.4,60,110.7,60.1,110.2,60.2z M119,57.7
		c-0.4-0.3-0.8-0.4-1-0.7c-1.3-1.3-1.3-2.8-1.1-4.5c0.1-0.8-0.2-1.3-1-1.1c-0.6,0.1-1.3,0.4-1.8,0.8c-1.7,1.4-3.3,2.9-4.9,4.4
		c-0.7,0.6-1.1,1.5-1.7,2.4C111.5,58.6,115.4,59,119,57.7z M120.3,53.5c0.6,0,1.1-0.3,1.1-0.9c0-0.5-0.4-0.9-1-0.9
		c-0.6,0-1,0.3-1,0.9C119.3,53.2,119.8,53.4,120.3,53.5z"/>
	<path class="st0" d="M97.6,49.8c0.5-0.6,0.8-1.2,1.3-1.6c2.1-1.7,4.1-3.3,6.5-4.6c2-1.1,4.1-1.4,6.2-2c3.9-1.2,8-1,12-0.7
		c2.3,0.2,4.8,0.7,6.8,2.2c0.3,0.2,0.6,0.4,0.8,0.7c0.2,0.3,0.1,0.7,0.2,1c-0.4,0-0.9,0.2-1.1,0c-1.3-1.4-3-1.7-4.8-2.1
		c-0.8-0.2-1.6-0.3-2.4-0.5c-1.8-0.4-3.5,0.1-5.2,0.5c-3.5,1-7,2.1-10.2,3.7c-2.4,1.2-4.8,2.5-7.1,3.8c-0.7,0.4-1.3,0.5-2.1,0.3
		C98.2,50.5,97.9,50.2,97.6,49.8z"/>
	<path class="st0" d="M99.6,82c1.5,0.4,2.9,0.2,3.9,1.4c0.6,0.8,0.4,1.7-0.5,2.1c-1,0.4-1.9,0.1-2.8-0.4c-0.8-0.5-1.6-1.1-2.6-1.1
		c-0.1,0-0.4-0.3-0.4-0.4c0.1-0.3,0.2-0.7,0.4-0.8C98.3,82.4,99.1,82.2,99.6,82z"/>
	<path class="st0" d="M91.1,87.5c-0.1,0.8-0.2,1.4-0.3,2.1c-0.1,0.6-0.6,0.8-1.2,0.8c-1.2-0.1-2.7-1.3-2.1-2.9
		c0.2-0.7,0.6-1.3,1-1.9c0.1-0.2,0.5-0.3,0.7-0.2C90,85.4,91.1,86.8,91.1,87.5z"/>
</g>
</svg>
