<?xml version="1.0" encoding="utf-8"?>
<!-- Generator: Adobe Illustrator 19.2.1, SVG Export Plug-In . SVG Version: 6.00 Build 0)  -->
<svg version="1.1" id="Layer_1" xmlns="http://www.w3.org/2000/svg" xmlns:xlink="http://www.w3.org/1999/xlink" x="0px" y="0px"
	 viewBox="0 0 194 200" style="enable-background:new 0 0 194 200;" xml:space="preserve">
<style type="text/css">
	.st0{fill:#E64A19;}
</style>
<g id="icon-wartfinger-2">
	<path class="st0" d="M138.1,200c0-8,0-16,0-24.3c-0.4,0.4-0.6,0.6-0.7,0.9c-2,2.7-3.9,5.4-6.6,7.5c-1.8,1.4-3.6,2.9-5.4,4.3
		c-0.3,0.2-0.9,0.2-1.2,0c-0.5-0.4-0.1-0.9,0.3-1.2c1.4-1.1,2.7-2.3,4.2-3.3c2.2-1.5,4-3.4,5.6-5.5c1.3-1.6,2.5-3.2,3.7-4.9
		c0.1-0.2,0.1-0.4,0.2-0.7c0.2-1.9,0.5-3.8,0.7-5.7c0.1-1.1,0-2.2,0.1-3.3c0.2-3.7,0.7-7.3,1.6-10.9c0.7-2.5,1.3-5,1.3-7.6
		c0-2.9-0.2-5.8,0.7-8.6c0.7-2,1.1-4.1,2.5-5.8c0.9-1.1,1.4-2.5,2.2-3.7c0.5-0.7,1-1.3,1.6-1.9c0.6-0.6,1.1-1.1,1.1-2
		c0-0.4,0.2-0.8,0.3-1.2c0.8-2.3,1.6-4.5,2.3-6.8c0.3-0.9,0.2-1.8,0.4-2.7c0.2-1.3,0.8-2.5,0.8-3.8c0-1.9-0.3-3.9-0.4-5.8
		c0-0.6-0.1-1.1-0.2-1.9c-0.5,0.4-1,0.7-1.3,1.1c-0.8,1.1-1.6,2.2-2.3,3.4c-1.2,1.9-2.6,2.3-4.4,0.9c-1.4-1.1-2.8-2.3-4.3-3.3
		c-1.2-0.8-2.5-1.5-3.7-2.2c-0.7-0.4-1.4-0.8-2-1.2c-1.9-1-3.8-0.8-5.8-0.5c-2.7,0.5-3.8,2.7-5.1,4.7c-0.8,1.4-1.6,2.9-2.5,4.5
		c0.7,0,1.3,0,1.9,0c2.3-0.1,4.5,0,6.5,1.2c0.7,0.4,1.4,0.9,2.2,1.3c0.3,0.2,0.7,0.2,1,0.3c0.3,0.1,0.7,0.2,0.8,0.4
		c0.1,0.3,0,0.8-0.2,1c-0.2,0.2-0.7,0.3-1,0.2c-0.4-0.1-0.8-0.4-1.2-0.6c-0.5-0.3-1-0.6-1.4-0.9c-1.6-1-3.2-1.7-5.2-1.5
		c-1.4,0.1-2.7,0-4.2,0c-0.4,0.9-0.8,1.9-1.3,2.8c-2,4.1-3.6,8.5-6.3,12.3c-1.3,1.8-2,3.9-3.2,5.8c-0.8,1.3-1.9,2.5-2.9,3.8
		c-0.6,0.8-1.2,1.7-1.7,2.5c-1.1,1.6-2.3,3.1-3.4,4.7c-1.2,1.7-2.2,3.4-3.4,5.1c-0.6,0.9-1.2,1.7-1.9,2.5c-1.1,1.3-2.1,2.7-3.3,4
		c-1,1-2.1,1.9-3.3,2.7c-1.3,0.9-2.8,1.5-4.2,2.3c-0.5,0.2-1,0.5-1.2-0.1c-0.1-0.3,0.2-0.9,0.5-1.1c1.1-0.7,2.2-1.3,3.3-1.8
		c2.1-0.9,3.6-2.5,4.9-4.3c0.7-0.9,1.6-1.8,2.3-2.7c1-1.3,1.9-2.6,2.9-4.2c-1.7,0-3.2,0.1-4.6,0c-1.6-0.1-3.1-0.3-4.6-0.6
		c-0.6-0.1-1.2-0.6-1.7-0.9c-0.7-0.4-1.3-0.8-2-1.3c-0.3-0.2-0.4-0.6-0.6-0.9c0.4-0.1,0.9-0.5,1.2-0.3c0.7,0.3,1.4,0.8,2.1,1.3
		c1.3,1.1,3,1.3,4.6,1.4c1.8,0.1,3.6,0,5.3-0.1c0.5,0,1-0.2,1.3-0.5c1.2-1.3,2.3-2.8,3.5-4.2c0.2-0.2,0.2-0.5,0.4-0.8
		c-0.9-0.5-1.8-0.9-2.7-1.5c-1.5-1-2.9-2-4.3-3.1c-1.9-1.5-3.7-3.1-5.5-4.7c-2.1-1.9-4.6-3.1-7-4.6c-1.1-0.7-2.1-1.6-3.1-2.5
		c-0.2-0.2-0.2-0.7-0.1-0.9c0.1-0.2,0.6-0.3,0.8-0.2c0.5,0.2,1,0.4,1.3,0.8c1.7,1.8,4.1,2.8,6.1,4.2c1.8,1.2,3.4,2.7,5.1,4
		c2.3,1.8,4.1,4.2,6.7,5.4c0.9,0.4,1.7,0.9,2.6,1.3c1.1,0.4,1.7,0,1.5-1.2c-0.2-1.2-0.4-2.4-0.9-3.5c-1.1-2.3-2.3-4.4-3.5-6.6
		c-1.2-2.1-2.4-4.3-3.7-6.3c-1.8-2.8-3.7-5.7-5.7-8.3c-1.2-1.6-2.8-2.9-4.2-4.3c-2.4-2.4-4.7-4.9-7.1-7.2c-1.3-1.3-1.7-3-2.1-4.7
		c-0.8-4.4-1.5-8.7-2.2-13.1c-0.3-1.9-0.4-3.8-0.4-5.7c0-2-0.5-3.8-0.8-5.7c-0.3-1.4-0.6-2.8-0.9-4.2c-0.1-0.3-0.3-0.6-0.5-0.9
		c-1.3-1.3-2.9-2.2-4.6-2.8c-0.2-0.1-0.5-0.5-0.4-0.7c0.1-0.2,0.4-0.5,0.7-0.5c0.5,0,1.1,0.2,1.5,0.4c1,0.5,1.9,1.1,3,1.7
		c0.2-9-0.3-18,0.7-26.9c-0.9-0.5-1.7-1.4-2.9-1.3c-0.2,0-0.6-0.5-0.6-0.6c0.1-0.3,0.4-0.7,0.6-0.7c0.6,0,1.3,0.1,1.9,0.3
		c0.5,0.2,0.9,0.5,1.5,0.9c0.3-1.8,0.8-3.6,0.9-5.4c0.1-2.6,0-5.3-0.2-7.9c-0.1-1.3-0.6-2.6-1-3.8c-1.5-4.4-3.9-8.3-6.6-12
		c-0.9-1.3-2.1-2.3-3.5-3c-0.5-0.2-1-0.3-1.5-0.5c-0.2,1.6-0.4,3.1-0.5,4.5c-0.1,2.5-1.3,4.4-2.8,6.2c-0.4,0.5-1,0.9-1.4,1.4
		c-0.2,0.3-0.3,0.8-0.3,1.2c-0.3,2.6-0.7,5.2-0.9,7.8c-0.2,3-0.2,6,0.2,8.9c0.3,1.9,0.1,3.9-0.5,5.8c-1.1,3.7-2,7.5-3.1,11.2
		c-0.5,1.6-1.2,3.2-1.5,4.8c-0.6,3-1.4,5.9-1.2,9c0,1-0.2,2.1-0.2,3.2c0.1,1.7,0.4,3.3,0.6,5c0,0.4-0.1,0.9-0.1,1.3
		c-0.1,4.9-0.3,9.9-0.3,14.8c0,7.4,0.1,14.7-0.1,22.1c0,2-0.6,4.1-1.1,6c-1.1,3.6-1.6,7.2-1.7,10.9c0,3.1,0.2,6.3,0.3,9.4
		c0.2,3.1,1.2,6,2.3,8.9c1.9,4.7,2.9,9.6,3.8,14.6c0.6,3.6,1.2,7.2,1.8,10.7c0.6,3.2,1.3,6.4,1.9,9.6c0.2,0.9,0.3,1.8,0.3,2.7
		c-0.2,5,0.8,9.8,1.9,14.5c0.1,0.4,0.2,0.8,0.3,1.2c0,0.1,0,0.3,0.1,0.4c1.1,1,1.1,1.3,0.1,2.4c-0.3,0-0.6,0-0.9,0
		c-0.3-1.2-0.6-2.4-0.9-3.6c-0.6-3.1-1.2-6.2-1.8-9.3c-0.2-0.9-0.2-1.9-0.2-2.9c0.2-3.3-0.4-6.5-1.1-9.6c-0.6-2.9-1.2-5.7-1.6-8.6
		c-1-6.6-2.1-13.2-4.2-19.6c-0.6-1.7-1.3-3.3-1.9-5c-0.4-1.4-0.8-2.8-1-4.2c-0.7-4.1-0.7-8.3-0.6-12.5c0.1-3.6,0.6-7.1,1.7-10.5
		c0.6-2.1,1.1-4.2,1.1-6.5c0-10.1,0-20.3,0-30.4c0-1.4,0.3-2.9,0.3-4.3c0-1.2-0.1-2.3-0.1-3.5c-0.1-1.8-0.4-3.5-0.3-5.3
		c0.1-2.4,0.5-4.7,0.7-7.1c0.3-4.3,2.3-8.2,3.1-12.3c0.6-2.8,1.6-5.5,2.2-8.3c0.4-1.8,0.3-3.6,0.4-5.5c0-1.9-0.1-3.7-0.2-5.6
		c-0.1-3.4,0.6-6.7,0.9-10c0.2-1.7,0.1-3.4,0.2-5.2c0.1-2.6,0.4-5.1,1.3-7.6C58,1.7,58.4,1.2,59.2,1c0.7-0.2,1.3-0.5,1.9-0.7
		C63-0.3,64.5,0,66,1.2c3,2.2,4.8,5.3,6.6,8.4c1.7,3,3.4,6.1,3.9,9.6c0.3,2,0.3,4,0.4,6c0.2,3.4-0.3,6.8-1.3,10
		c-0.3,0.9-0.5,1.9-0.5,2.9c-0.1,8.4-0.2,16.7-0.2,25.1c0,1.9,0.7,3.9,1.1,5.8c0.3,1.6,0.8,3.1,1.1,4.7c0.1,0.6,0.1,1.3,0,2
		c-0.4,2.4,0.3,4.6,0.6,7c0,0.1,0.1,0.2,0.2,0.4c0.9-1.4,1.8-2.7,2.6-4.1c2.6-4.3,5.3-8.6,8.8-12.3c0.2-0.2,0.3-0.4,0.5-0.7
		c0.5-0.8,1.2-1.3,2.1-1.5c1-0.2,1.9-0.4,2.9-0.7c1.4-0.4,2.6,0.4,3.9,0.6c2.5,0.4,4.9,0.9,7.4,1.2c1.5,0.2,2.9,0.5,4.1,1.4
		c0.5,0.4,1.3,0.5,2,0.8c0.9,0.4,1.9,0.7,2.8,1.1c3.8,1.4,7.6,2.9,11.4,4.4c0.9,0.4,1.8,0.9,2.6,1.3c0.9,0.5,1.8,1,2.7,1.4
		c2.2,1,4.4,2,6.1,3.6c0.8,0.8,1.5,1.9,1.8,3.1c0.5,1.7,0.6,3.5,0.8,5.2c0.1,1.3,0.2,1.2,1.4,1.6c3.8,1.2,7.9,2,10.6,5.4
		c1,1.3,1.6,2.7,1.8,4.3c0.4,2.2,0.6,4.5,0.9,6.8c0.1,1.4,0.3,2.8,0,4.1c-0.4,1.6-0.6,3.1-0.7,4.8c-0.1,1.1-0.8,2.1-1.1,3.1
		c-0.2,0.6-0.3,1.3-0.5,2c-0.1,0.5-0.3,1-0.5,1.5c-0.3,1-0.6,1.9-1,2.9c-0.2,0.5-0.4,1.1-0.8,1.4c-1.5,1.4-2.7,3-3.5,4.8
		c-0.1,0.2-0.2,0.5-0.4,0.7c-1.5,1.6-1.9,3.7-2.5,5.6c-0.6,1.9-1,3.9-0.5,5.9c0,0.1,0.1,0.3,0.1,0.4c1.3,2.8,2.6,5.5,3.9,8.3
		c1.1,2.4,2.4,4.8,3.4,7.2c0.6,1.3,1.3,2.4,2.4,3.4c0.9,0.8,1,1.5,0.2,2.4c-1.1,1.4-2.3,2.8-4,3.5c-0.6,0.3-1.3,0.6-2,0.6
		c-2.4,0-5,0.5-7.4-0.8c-0.2,1.1-0.4,2.1-0.5,3.1c-0.1,2.1-0.2,4.3-0.2,6.4c0,7.5,0,15,0,22.5C138.9,200,138.5,200,138.1,200z
		 M122.2,104.6c0.8-1.3,1.5-2.5,2.3-3.5c0.8-1,1.9-1.8,2.8-2.7c3.4-3.4,7.5-5.9,11.7-8.1c0.2-0.1,0.3-0.4,0.3-0.6
		c-0.1-0.9-0.2-1.8-0.3-2.7c-0.2-1.3-0.4-2.7-0.8-3.9c-0.3-0.9-0.6-2-1.6-2.5c-1.9-1-3.7-2.1-5.5-3.1c-0.8-0.4-1.7-0.8-2.5-1.3
		c-1-0.5-2-1.2-3.1-1.6c-2.2-0.8-4.4-1.6-6.6-2.3c-2.8-0.9-5.3-2.7-8.3-3.2c-0.4-0.1-0.7-0.3-1-0.6c-1.3-1-2.7-1.2-4.3-1.4
		c-1.5-0.2-3.1-0.4-4.6-0.7c-1.5-0.3-3.1-0.7-4.6-1c-0.3-0.1-0.6-0.1-0.9,0c-1.7,0.6-3.9,0.4-4.8,2.5c-0.1,0.2-0.3,0.3-0.4,0.4
		c-1.5,1.8-3.2,3.6-4.5,5.6c-2.1,3.2-4.1,6.5-6.1,9.8c-0.4,0.8-0.9,1.7-0.9,2.5c0.1,2.3,0.5,4.5,0.9,6.8c0.3,1.9,0.9,3.7,2.4,5.2
		c3,2.8,5.8,5.8,8.6,8.8c0.8,0.9,1.4,0.8,2.2,0c2.3-2.3,4.7-4.6,6.8-7.1c0.6-0.7,1.2-1.3,1.6-2.1c1.2-2.2,2.6-4.3,3-6.9
		c0.1-0.7,0.3-1.3-0.2-1.8c-1.1-1.2-2-2.5-3.2-3.7c-1-1-0.9-2-0.7-3.2c0.1-0.7,0.7-0.9,1.1-0.4c0.3,0.3,0.3,0.8,0.4,1.2
		c0.1,0.5,0.2,0.9,0.4,1.4c0.2,0.3,0.4,0.6,0.7,0.8c0.9,1,2.1,1.8,2.6,3c0.6,1.7,2,1.5,3.2,1.9c0.1,0,0.2,0.1,0.3,0.2
		c1.5,0.9,3.1,1.8,4.6,2.6c1.7,0.9,3.6,1.3,5.6,1c0-0.5-0.1-0.9,0-1.3c0.4-1.7,0.6-3.4,2.2-4.5c0.2-0.2,0.4-0.5,0.6-0.7
		c0.8-0.8,1.5-1.6,2.3-2.3c0.2-0.2,0.7,0,1.1,0c0,0.3,0,0.8-0.2,1c-1,1.2-2.1,2.3-3.2,3.5c-0.9,1-1.4,2.1-1.4,3.4c0,2,0,4.1,0.3,6.1
		C121,100.8,121.6,102.6,122.2,104.6z M106.7,133.4c0.5-0.6,0.9-1,1.1-1.4c2.1-3.6,4.2-7.2,6.2-10.7c0.2-0.3,0.2-0.8,0.2-1.2
		c-0.3-2-0.6-4-0.8-6c-0.1-1.3-0.2-2.6-0.1-3.9c0-0.3,0.6-0.6,0.9-0.9c0.2,0.3,0.6,0.6,0.6,0.9c0.2,1,0.2,1.9,0.3,2.9
		c0.1,1.5,0.3,3,0.4,4.6c0.2-0.2,0.3-0.3,0.3-0.4c1.8-3.6,3.5-7.2,5.2-10.7c0.1-0.2,0.2-0.6,0.1-0.9c-1-2.5-1.8-5-2.1-7.7
		c-0.1-0.9-0.5-1.1-1.4-0.7c-0.7,0.3-1.3,0.7-1.9,1.2c-3,2.4-6.1,4.6-9.4,6.5c-3.6,2.1-7.2,4.3-10.9,6.4c-0.2,0.1-0.4,0.4-0.7,0.6
		c0.2,0.3,0.4,0.6,0.6,0.8c0.9,1.2,1.8,2.4,2.5,3.6c2.1,3.6,4.3,7.2,6.3,10.8C105.2,129.2,106.5,130.9,106.7,133.4z M129.9,97.6
		c0,0.1,0.1,0.2,0.1,0.3c0.5,0,1.1,0,1.6,0c1.9-0.2,3.6,0.4,5.2,1.4c1,0.7,2.2,1.1,3.2,1.7c0.4,0.2,0.7,0.4,1.1,0.7
		c1.7,1.3,3.3,2.6,5,3.9c0.9,0.7,1.4,0.7,2-0.3c1.2-1.9,2.4-3.9,4.2-5.3c0.2-0.2,0.4-0.6,0.3-0.8c-0.4-1.1-0.8-2.2-1.4-3.1
		c-2-2.6-4.8-3.7-7.9-4.4c-1.2-0.3-2.2-0.7-3.4,0c-0.6,0.3-1.3,0.4-1.8,0.7c-1.4,0.8-2.7,1.6-4.1,2.5
		C132.6,95.6,131.3,96.6,129.9,97.6z M118.8,95.4c-0.3,0-0.7-0.1-1-0.1c-1.7-0.1-3.4-0.4-4.9-1.2c-1.5-0.8-3.1-1.6-4.6-2.5
		c-1-0.6-2-0.8-3.1-0.3c-0.2,2.8-1.9,5-3.2,7.3c-0.9,1.6-2.3,2.9-3.5,4.3c-0.5,0.6-1,1.1-1.5,1.7c-1.4,1.5-2.9,3-4.4,4.5
		c0.4,0.5,0.8,1.1,1.4,1.8c2.1-1.3,4.2-2.7,6.3-4c3.4-2.1,6.9-4.2,10.3-6.3C113.4,99,115.4,96.2,118.8,95.4z M142.3,151.5
		c-1.3,4.4-2.1,8.8-2.1,13.4c0,1.5,1,2.4,2.5,2.4c1.3,0,2.6-0.1,3.9,0c2,0.1,3.4-0.9,4.7-2.3c0.1-0.1,0.1-0.6,0-0.6
		c-0.8-0.7-1.7-1.5-2.5-2.2c-0.9-0.7-2-1.3-2.7-2.2C144.1,157.6,143.1,154.6,142.3,151.5z M151.7,162.9c-3-4.7-4.9-10-7.5-14.9
		c-0.7,2.8,0.1,5.4,1,8C146.4,159.2,149.4,160.7,151.7,162.9z M57.7,11.5c0.1,0,0.2,0,0.3,0c2.8-2.6,3.1-6.1,3.3-9.6
		c-1.9,0.3-2,0.4-2.5,2c-0.3,0.9-0.4,1.9-0.5,2.9C58,8.4,57.8,9.9,57.7,11.5z"/>
	<path class="st0" d="M66.7,51c0.1,2.7-1.2,4.6-3.2,6.1c-0.7,0.5-1.5,1.1-2.1,1.7c-1.5,1.5-3.5,0.7-4.1-0.8
		c-0.6-1.8-1.5-3.5-1.2-5.6c0.3-3,1.7-5.3,3.9-7.1c1.2-0.9,2.6-0.8,3.8,0C65.8,46.7,66.8,48.6,66.7,51z M65.2,50.9
		c0.1-1.9-0.7-3.5-2.5-4.5c-0.3-0.2-0.9-0.2-1.1,0c-0.5,0.4-0.8,1-1.2,1.5c-0.1,0.1-0.4,0.3-0.5,0.2c-0.6-0.3-0.8,0.2-1.1,0.6
		c-0.9,1.1-1.1,2.5-1.3,3.9c-0.3,1.7,0.6,3.2,1.1,4.8c0.3,1,1.1,1,1.8,0.4c0.8-0.7,1.6-1.3,2.4-1.9C64.3,54.5,65.3,53.1,65.2,50.9z"
		/>
</g>
</svg>
