<?xml version="1.0" encoding="utf-8"?>
<!-- Generator: Adobe Illustrator 19.2.1, SVG Export Plug-In . SVG Version: 6.00 Build 0)  -->
<svg version="1.1" id="Layer_1" xmlns="http://www.w3.org/2000/svg" xmlns:xlink="http://www.w3.org/1999/xlink" x="0px" y="0px"
	 viewBox="0 0 162.9 180" style="enable-background:new 0 0 162.9 180;" xml:space="preserve">
<style type="text/css">
	.st0{fill:#0288D1;}
</style>
<g id="icon-cold">
	<path class="st0" d="M110.7,180c0.7-2.4,1.2-4.9,1.9-7.3c0.5-1.7,1.1-3.4,1.5-5.2c1.1-4.3,1.5-8.8,3.3-12.9
		c1.2-2.7,2.9-5.1,4.3-7.7c0.4-0.7,0.7-1.4,0.8-2.1c0.1-0.3-0.3-0.8-0.6-1c-0.2-0.1-0.7,0.2-0.9,0.5c-0.7,0.9-1.4,1.7-1.9,2.7
		c-1.9,3.6-4.2,6.9-4.9,11.1c-0.9,4.6-2.2,9.1-3.4,13.7c-0.7,2.7-1.4,5.4-2.2,8.1c0,0,0,0,0,0H110.7z"/>
	<path class="st0" d="M1.8,139.4c0.4,0.9,0.9,1.8,1.4,2.7c0.7,1.2,1.5,2.3,2.3,3.4c0.7,0.9,1.4,1.9,2.3,2.6c2.7,2.2,5.5,4.4,8.2,6.6
		c0.2,0.2,0.5,0.6,0.5,0.9c0.1,4,0,8-0.9,12c-0.9,4.1-1.8,8.2-2.7,12.4h1.8c0.9-3.9,1.8-7.8,2.6-11.7c0.5-2.3,0.7-4.7,0.9-7.1
		c0.2-1.8,0.3-3.5,0.4-5.4c0.4-0.1,1-0.1,1.4-0.3c0.9-0.4,1.8-0.9,2.5-1.4c0.3-0.2,0.2-0.9,0.3-1.4c-0.5,0-1-0.2-1.4-0.1
		c-0.7,0.2-1.3,0.8-1.9,1c-0.6,0.2-1.5,0.3-2-0.1c-2.4-1.8-4.8-3.6-7.1-5.5c-1.7-1.4-3-3.1-4.2-5c-1.5-2.3-2.6-4.6-3.6-7.1
		c-0.7-1.9-0.9-3.4,0-5.2c0.3-0.6,0.7-1.4,0.6-2c-0.3-1.6,0.4-3,0.8-4.5c0.3-0.9,0.3-1.9,0.5-2.9c0.2-1.1,0.4-2.2,0.7-3.3
		c0.3-0.9,0.7-1.8,1.1-2.6c0.6-1,1.1-2.2,1.9-2.9c1.2-1.1,2.6-1.9,3.9-2.8c0.3-0.2,1-0.2,1.2,0c0.7,0.9,1.3,1.9,2,2.8
		c-0.4,0.1-1.4,0.8-2.2,1.6c-1.7,1.8-3.3,3.7-4.9,5.6c-0.3,0.3-0.2,0.9-0.3,1.3c0.1,0.1,0.2,0.2,0.4,0.3c0.5-0.3,1.1-0.5,1.5-1
		c1.3-1.5,2.4-3.1,3.7-4.5c0.8-0.9,1.8-1.6,2.5-2.2c1.1,1,2,1.7,2.9,2.5c-0.7,0.6-1.7,1.3-2.4,2.1c-3,3.6-5.9,7.3-8.8,10.9
		c-0.2,0.3-0.1,0.8-0.2,1.2c0.5-0.1,1.2-0.1,1.4-0.4c0.9-1.1,1.6-2.4,2.5-3.6c0.6-0.9,1.4-1.7,2.1-2.5c1.2-1.3,2.3-2.6,3.3-3.8
		c1.1,0.9,2,1.7,3.3,2.8c-1.4,1.3-3,2.4-4.3,3.9c-2.4,3.1-4.6,6.4-7,9.6c-0.5,0.6-0.7,1.2,0.1,1.5c0.3,0.1,1.1-0.3,1.4-0.6
		c1.7-2.2,3.2-4.5,4.7-6.5c1.2,0.5,2.2,0.9,3.3,1.4c-0.9,3.5-2.3,6.9-4.8,10c-0.3,0.4-0.5,1-0.8,1.7c2.1,0.3,2.2-1.8,3.4-2.3
		c0.5,1.7,0.5,3.4-0.4,5c-0.2,0.3-0.3,0.6-0.3,0.9c0,0.3,0.2,0.7,0.4,0.8c0.2,0.1,0.7-0.1,0.8-0.3c0.4-0.6,0.7-1.2,0.9-1.9
		c0.6-2.1,0.8-4.2-0.5-6.2c0.1-0.2,0.3-0.5,0.5-0.7c4,2.1,7.8,4.3,11.7,6.2c0.9,0.5,1.3,1,1.5,2c0.3,2.1,0.7,4.2,1.1,6.3
		c0.3,2.2,0.6,4.3,0.9,6.5c0.2,1.7,0.2,3.5,0.5,5.2c0.6,2.6,1.5,5,1.5,7.7c0,1,0.2,2,0.4,2.9c0.2,1.3,0.3,2.6,0.5,3.9h2
		c-0.3-2.1-0.6-4.2-0.7-6.4c-0.1-0.9,0-1.9-0.3-2.7c-1.6-4.7-1.7-9.7-2.4-14.5c-0.4-2.8-1-5.5-1.4-8.2c0-0.3,0-0.6,0-1.3
		c1.8,1.3,3.2,2.5,4.7,3.5c1.2,0.8,2.5,1.9,3.9,2c1.4,0.2,2.3,0.9,3.3,1.7c0.2,0.2,0.5,0.4,0.7,0.5c2.2,1.2,4.4,2.5,6.7,3.7
		c1,0.5,1.8,1.1,2.3,2.2c0.9,2.3,2,4.5,3.2,6.6c1.4,2.7,3.1,5.2,4.5,7.9c0.6,1.2,1,2.7,1.2,4.1c0,0.3,0,0.6-0.1,0.9h3.1
		c-1.3-3.4-2.9-6.7-4.7-10c-1.4-2.5-2.6-5.2-4.1-7.7c-0.9-1.5-1.8-3.1-3.1-4.3c-1-0.9-2.4-1.4-3.6-2.1c-3-1.5-5.8-3.3-8.1-5.8
		c-2.3-2.5-4.8-5-7.1-7.4c-0.6-0.6-1.2-1.3-1.9-1.8c-2.5-1.8-4-4.3-5.6-6.9c1-0.6,2-1.1,3-1.7c2.2,3,5.3,4.8,8.2,6.8
		c2.1,1.4,4.2,2.7,5,5.4c0.1,0.3,0.9,0.4,1.4,0.6c0.1-0.3,0.4-0.7,0.3-0.9c-0.7-1.3-1.4-2.7-2.3-3.9c-1.9-2.5-3.9-4.9-5.9-7.3
		c0.5-0.7,1.8-1.1,1.1-2.7c-0.8,0.7-1.6,1.2-2.4,1.9c-2.2-2.6-5.4-4.1-7.2-6.8c1.4-1,2.7-1.9,4-2.9c0,0,0.1,0.1,0.3,0.2
		c4.2,3.9,8.4,7.9,12.6,11.8c0.4,0.4,0.9,0.8,1.4,1.1c0.2,0.1,0.6,0.2,0.7,0c0.2-0.1,0.3-0.5,0.2-0.7c-0.1-0.3-0.4-0.7-0.6-0.9
		c-3.3-3.1-6.6-6.1-10-9.2c-1.2-1.1-2.4-2.2-3.6-3.3c-0.8-0.8-1.7-1.5-2.5-2.3c1.2-0.9,2.4-1.7,3.6-2.6c2.7,2.3,5.5,4.7,8.3,7
		c-0.5,0.5-0.9,0.8-1.1,1.2c-0.2,0.3,0,0.8,0,1.2c0.4-0.1,0.9-0.1,1.2-0.3c0.4-0.2,0.7-0.6,0.9-0.8c3,1.9,5.9,3.8,8.8,5.6
		c0.3,0.2,0.9-0.1,1.3-0.2c-0.2-0.4-0.3-1-0.6-1.2c-1.3-0.8-2.7-1.5-4-2.3c-1.8-1.2-3.6-2.5-5.3-3.9c-2.7-2.3-5.4-4.7-7.9-7
		c0.4-0.5,0.9-1.1,1.4-1.7c3.3,2.5,6.9,4.5,10.8,5.4c-0.3,0.7-0.8,1.5-0.6,1.7c0.6,0.7,1.2,0.1,1.8-0.3c0.1,0,0.1-0.2,0.2-0.2
		c0.5-0.1,1-0.3,1.5-0.2c0.6,0.1,1.3,0.4,1.8,0.8c3.3,2.2,6.6,4.3,9.8,6.6c2.1,1.5,4.1,3.2,4.8,5.8c0.2,0.9,0.2,1.8,0.3,2.7
		c0.4,2.3,0.7,4.5,1.2,6.8c0.8,3.4,1.9,6.8,4.3,9.4c1.8,2,3,4.3,4.2,6.7c1.6,3.1,3.1,6.3,5,9.2c2.4,3.8,5,7.5,7.6,11.2h3
		c-0.6-0.9-1.3-1.8-1.9-2.6c-3.9-4.9-7.5-9.9-10.3-15.5c-2-4-3.9-8.2-7.1-11.5c-0.3-0.3-0.4-1.1-0.2-1.4c1.4-2.7,2.7-5.4,4.3-7.8
		c1.2-1.9,3-3.4,4.4-5.2c2.8-3.6,5.4-7.3,8.1-10.9c3.3-4.4,7.4-8,12.2-10.7c1.1-0.6,1.6-0.4,2.3,0.7c1.5,2.6,3,5.2,4.6,7.7
		c0.4,0.7,0.9,1.3,1.4,1.9c0.3,0.3,0.5,0.8,0.9,0.9c0.2,0.1,0.7-0.4,0.9-0.7c1.7-2.4,3.2-4.8,5-7.1c1-1.3,2.4-2.2,3.6-3.4
		c1.7-1.6,3.2-3.5,5-4.9c2.2-1.8,4.3-3.9,7.3-4.6c1.5-0.3,2.7-0.3,3.9,0.7c0.9,0.8,1.9,1.6,2.9,2.3c3.3,2.1,6.3,4.5,9,7.4
		c0.6,0.6,1,1.4,1.5,2.3c-1.3,0.2-2.3,0.2-3.3,0.4c-3.8,0.8-6.9,2.7-9.3,5.8c-1.2,1.5-2.4,2.8-3.7,4.2c-1.7,1.7-3.5,3.3-5.1,5
		c-0.2,0.3,0,1,0.1,1.5c0.4-0.1,0.9,0,1.2-0.2c0.5-0.4,1-0.9,1.4-1.4c2.2-2.2,4.5-4.2,6.5-6.6c1.6-2,3.3-3.8,5.5-5.1
		c2.5-1.4,5.2-2.2,8.1-1.2c0.3,0.1,0.6,0.2,0.7,0.5c0.9,1.3,1.8,2.5,2.5,3.8c1.2,2.2,2.2,4.6,2.5,7.1c0.2,2.4,0.4,4.8,0.8,7.1
		c0.5,3.4,1.5,6.7,1.3,10.1c-0.2,2.6-0.4,5.2-0.9,7.7c-0.6,3.2-1.6,6.3-2.5,9.5c-0.9,3.1-1.8,6.3-2.8,9.4c-0.6,1.7-1.3,3.4-2,5h2.7
		c0.8-2.2,1.7-4.4,2.4-6.6c0.9-2.9,1.5-5.8,2.2-8.8c0.8-3.2,1.6-6.4,2.3-9.6c0.7-3.2,0.9-6.3,0.3-9.5c-0.6-3.2-0.9-6.4-1.3-9.6
		c-0.6-4-0.8-8.2-2.8-11.9c-1.1-2-2.4-3.9-3.7-5.8c-0.9-1.4-2-2.7-3-4.1c-0.1-0.1-0.1-0.3-0.2-0.3c-2.7-1.5-1.7-4-1.4-6
		c0.4-2.6,0.4-5.2,0.4-7.9c0-3.7-1.9-6.7-2.8-10.1c-1.1-3.9-2.9-7.6-4.1-11.5c-0.9-2.8-1.5-5.6-1.9-8.5c-0.4-2.9-0.5-5.8-0.5-8.6
		c0-2.1,0.6-4.2,0.4-6.3c-0.3-3.7-0.8-7.3-1.4-11c-0.4-2.3-0.8-4.6-1.6-6.8c-1.4-4.3-4.5-7.5-7.7-10.4c-0.3-0.3-0.8-0.6-1.2-0.6
		c-1.1,0-1.3-0.6-1.5-1.5c-0.8-3.1-2-6-3.9-8.6c-1.5-2.1-2.8-4.4-4.5-6.3c-3.9-4.4-9-6.9-14.8-8c-3-0.6-6.1-1.1-9.1-1.5
		c-3.9-0.5-7.7,0.4-11.4,1.4c-3.5,1-6.9,2.3-10.2,3.7c-1.5,0.6-3,1.7-4.1,2.9c-2.5,2.5-4.8,5.2-7.1,7.9c-0.4,0.5-0.6,1.3-0.8,2
		c-0.3,0.8-0.4,1.6-0.8,2.3c-1.2,2-1.2,4.3-1.4,6.4c-0.4,4.5-0.8,9.1-1.8,13.5c-0.3,1-0.4,2.1-0.4,3.2c0,0.6-0.2,0.8-0.9,0.8
		c-1.6-0.1-3.2,0.3-4.5,1.4c-0.5,0.4-0.8,1.2-0.9,1.9c-0.2,0.7,0,1.5,0,2.2c0,2.3,2.1,4.9,4.4,5.4c0.9,0.2,1.7,0.4,2.6,0.6
		c-1.8,4-1,7.9,0.4,11.7c1.5,4.1,2.8,8.4,4.7,12.3c1.5,3.1,1.5,6.3,2.2,9.5c0.5,2.7,0.4,5.8,3,7.6c-1.2,1.9-3.1,2-4.9,2.3
		c-3.2,0.5-6.5,1-9.7,1.5c-2.6,0.4-5.3,0.7-7.9,1.3c-1.5,0.4-2.8,1.3-4.3,2c-0.4,0.2-0.9,0.3-1.3,0.2c-4.8-1.6-9.5-3.2-14.3-4.7
		c-2.2-0.7-4.5-1-6.8-1.6c-2.5-0.6-4.9-1.5-7.4-2c-1.3-0.3-2.7-0.4-3.9-0.1C7.7,96,7,97,6.8,97.8c-1,3.1-0.3,6.3-0.3,9.5
		c0,1.5,0,3.1-0.5,4.5c-0.7,2-1.8,3.7-2.6,5.7c-0.4,1-0.4,2.1-0.6,3.1c-0.3,1.6-0.7,3.1-1.1,4.7c-0.2,0.8-0.3,1.7-0.4,2.5
		c-0.1,0.7,0,1.5-0.3,2.2c-1,2.3-1.5,4.5,0,6.8C1.4,137.4,1.4,138.5,1.8,139.4z M14.3,108.7c0.1-0.2,0.1-0.3,0.2-0.5
		c0.8-0.3,1.5-0.8,2.3-0.9c0.6-0.1,1.3,0.3,1.7,0.7c0.2,0.2-0.1,1-0.4,1.4c-0.3,0.5-0.8,1-1.4,1.6C15.8,110.2,15.1,109.4,14.3,108.7
		z M17.6,112.7c0-0.8,1.8-2.7,2.6-2.7c0.7,0,2.1,1.3,2.1,2c0,1.1-1.4,2.8-2.4,2.8C18.9,114.8,17.6,113.6,17.6,112.7z M20,121
		c-0.8-0.4-1.3-1.2-2.2-2c1.1-0.8,2-1.5,2.9-2.2c0.6-0.4,1.5-0.3,1.6,0.4c0.2,0.9,0.2,2-0.1,2.9C21.9,121.6,21.2,121.7,20,121z
		 M16.7,130.1c-0.5-0.6-0.7-1.1,0-1.7c0.5-0.4,0.9-1,1.4-1.3c0.3-0.2,0.9-0.5,1.2-0.4c0.4,0.2,0.6,0.7,0.9,1.1
		c-0.1,1.3-0.9,1.9-1.6,2.5C17.9,130.8,17.3,130.8,16.7,130.1z M27.2,132.7c-0.6,0-1.4-1.3-1.4-2.3c-0.1-0.9,0.3-1.6,1.2-1.6
		c1-0.1,2.5,1.3,2.5,2.1C29.5,131.6,28,132.8,27.2,132.7z M30.6,123c-0.7,0.5-1.6,0.7-2.4,1.1c-1.4-2.1-1.4-2.7-0.1-3.8
		c0.7-0.5,2.3-0.4,2.8,0.2C31.5,121.2,31.5,122.4,30.6,123z M32.8,116.9c-0.6,0.5-1.4,0.7-2.1,1c-1.8-1.4-1.8-3,0-3.7
		c0.5-0.2,1.3,0,1.9,0.2c0.4,0.2,1.1,0.7,1,1C33.6,116,33.3,116.6,32.8,116.9z M35.9,115.1c-1.2-0.9-2-1.7-1.4-3.4
		c0.8,0.7,1.5,1.1,2,1.8C36.6,113.7,36.1,114.5,35.9,115.1z M52.9,119.4c0.3-0.6,0.6-1.1,0.9-1.6c1-1.7,3.4-3.1,5.6-1.4
		c1.7,1.3,3.7,2.3,5.7,3.4c-2.4,0.9-4.9,0.8-6.9,2.5C56.5,121.4,54.7,120.4,52.9,119.4z M70.5,136.9c-0.5-1.7-0.7-3.5-1.5-4.9
		c-1.6-2.6-3.8-4.7-6.4-6.3c-1-0.6-1.9-1.4-3-2.3c1.1-0.5,2-1,2.9-1.3c1-0.3,2-0.4,3-0.6c1.5-0.3,1.6-0.1,1.9,1.4
		c0.4,2,0.9,4.2,1.9,6c1.2,2.3,2.9,4.3,3.3,7c0.2,1.5,0,2-1.6,2.8C70.8,137.9,70.7,137.4,70.5,136.9z M74,120
		c-0.2,3.6-0.7,7.1,0.1,10.7c0.1,0.5-0.1,1-0.2,1.6c-0.1,0-0.2,0-0.3,0.1c-0.3-0.4-0.5-0.7-0.8-1.1c-0.5-0.9-1.1-1.8-1.5-2.8
		c-0.7-1.6-1.5-3.2-1.9-4.8c-0.7-3-1.1-6.2-3.4-8.6c2.9-2.3,5.7-4.6,8.8-7.1c0,0.8,0,1.2,0,1.6c-0.2,2.4-0.5,4.8-0.7,7.2
		C74,117.8,74.1,118.9,74,120z M103.1,112.3c-0.9,0.7-2,1.1-2.9,1.8c-2.1,1.5-4.5,2.8-6.1,4.7c-4.1,4.8-7.8,9.9-11.7,14.9
		c-0.8,1.1-1.3,2.5-2.4,3.2c-1.8,1.3-2.8,3.1-3.9,4.8c-1,1.6-1.9,3.3-2.9,5c-0.1,0-0.3,0-0.4,0c-0.4-1.6-0.8-3.2-1.2-4.8
		c-0.1-0.3,0.1-0.7,0.3-1c2.3-3,4.6-5.9,6.9-8.8c0.7-0.9,1.3-1.8,2.1-2.6c1.3-1.3,2.8-2.3,4.1-3.7c1.8-1.9,3.5-3.8,5-5.8
		c1.1-1.5,1.9-3.2,2.9-4.8c0.7-1.2,1.4-2.6,2.4-3.5c1.5-1.3,3.2-2.2,4.9-3.3c1.4-0.9,1.8-0.8,2.5,0.6c0.3,0.6,0.7,1.2,0.8,1.9
		C103.5,111.4,103.4,112.1,103.1,112.3z M75.8,116.1C75.8,116.1,75.9,116.1,75.8,116.1c0.1-1.2,0.1-2.3,0.3-3.5
		c0.4-3.5,0.9-7,1.2-10.5c0.3-2.5,0.3-2.6,2.7-3.2c2.2-0.6,4.5-1,6.6-1.9c3.3-1.4,6.3-3.2,9.6-4.7c4-1.9,7-4.8,9.4-8.4
		c1.9-2.9,2.5-6.2,2.8-9.7c0.1-2,0.6-4,1-6c0.1-0.6,0.4-1.2,1.4-0.8c1.1,0.4,2.4,0.4,3.6,0.6c1.1,0.1,1.6,0.7,1.1,1.6
		c-1.5,2.5-1.6,5.4-2.4,8.1c-0.6,2.1-1.1,4.4,0,6.5c1.3,2.4,2.7,4.7,4.2,6.9c0.6,0.8,0.5,1.3-0.1,1.9c-2.1,1.8-4,3.7-6.3,5.2
		c-2.8,2-6.1,3.3-8.3,6.1c-1.3,1.6-3.1,2.4-4.7,3.4c-2.9,1.7-5.6,3.8-6.8,7.1c-1.4,3.7-3.8,6.4-6.4,9.1c-2.6,2.8-6.1,4.7-8.1,8.1
		c-0.3,0.6-1,0.4-1.1-0.3c-0.1-0.9-0.1-1.8,0-2.6c0.1-3,0.2-6,0.2-9C75.8,118.8,75.8,117.4,75.8,116.1z M128.9,31.6
		c0.1-0.3,0.5-0.6,0.6-0.6c0.3,0.1,0.6,0.4,0.8,0.7c0.2,0.2,0.2,0.5,0.3,0.8c0.3,3,0.6,6.1,0.9,9.1c0,0-0.1,0-0.1,0
		c0,0.7,0.1,1.4,0,2c-0.2,0.5-0.7,0.9-1.1,1.3c-0.4-0.4-1-0.8-1.1-1.3c-0.2-1.9-0.2-3.8-0.3-5.7c-0.1-1.5-0.2-3.1-0.2-4.6
		C128.6,32.8,128.7,32.2,128.9,31.6z M131.3,91.4c0.4,1.2,0.6,2.5,0.9,3.8c0.6,2.7,1.6,5.1,3,7.1c-9.8,4.1-16.6,11.5-22.7,20.2
		c-1.4-2.2-2.9-4.1-4.1-6.2c-1.5-2.5-2.8-5.2-4.1-7.8c-1.1-2.2-1.2-2.4,0.6-3.9c1.8-1.4,3.9-2.4,5.7-3.8c2.8-2.1,5.4-4.4,8.1-6.5
		c0.4-0.3,0.8-0.7,1.3-0.9c2.7-1.1,5.4-2.2,8.2-3.2C129.3,89.6,130.9,90.2,131.3,91.4z M59.9,39.9c0.6-2.8,1-5.6,1.4-8.4
		c0.2-1.8,0.4-3.7,0.5-5.5c0.1-1.5,0.6-2.8,2.1-3.6c2.1-1.1,4-2.4,6.1-3.5c3.8-2,7.8-3.2,12-4c1.3-0.2,2.1-0.8,2.8-2
		c1-1.7,2.1-3.4,3.6-4.6c1.9-1.5,4.1-2.6,6.3-3.8c0.2-0.1,0.5-0.1,0.7,0c0.3,0.3,0.9,0.7,0.8,0.9c-0.2,0.5-0.5,1.1-1,1.4
		c-2.1,1.3-4.3,2.5-6.4,3.8c-1.9,1.3-2,3.2-0.5,4.8c2.3,2.4,4.5,5,6.7,7.5c1.9,2.1,3.5,4.5,4.4,7.2c1.3,3.8,3.1,7.2,5.6,10.4
		c1.7,2.2,3.2,4.3,6.2,4.6c0.3,0,0.6,0.6,0.9,0.9c-0.4,0.3-0.7,0.7-1.2,0.8c-1.3,0.3-2.7,0.4-4,0.7c-4.7,0.9-9.4,1.7-14.1,1.6
		c-0.9,0-1.6-0.4-2.3-0.9c-0.8-0.6-1.8-1.2-2.8-1.3c-3.3-0.4-6.6-0.6-10.1-0.8c0.3-1,1.2-1.2,2.1-1.2c1.6,0,3.1,0,4.7,0
		c0.3,0,0.6-0.3,0.8-0.5c-0.2-0.2-0.4-0.4-0.7-0.4c-1.8-0.1-3.6-0.3-5.5-0.2c-1.2,0-2.2,0.7-2.9,1.8c-0.2,0.4-0.7,0.8-1.1,0.9
		c-1.5,0.4-3.1,1-4.7,0.9c-1.9-0.1-3.9-0.2-5.3-2.3c-1.1-1.6-3-2.6-4.6-3.8C60.1,40.9,59.8,40.7,59.9,39.9z M87.5,56.1
		c-1.4,0.1-2.9,0.1-4.9,0.2c-1-0.1-2.6,0-4-0.4c-2.5-0.7-4.8-4.5-4.5-7.1c0-0.3,0.3-0.6,0.6-0.8c1.2-0.8,2.6-1,4.1-0.8
		c2.2,0.2,4.4,0.4,6.6,0.5c2.2,0.1,3.8,1,5,2.8C91.7,52.6,90,56,87.5,56.1z M64.9,50.9c-1.3,0-2.6,0-4,0c-0.1-1.5-0.1-3.1-0.2-4.8
		c2.1,0.6,4,1.2,5.9,1.8c0.3,0.1,0.7,0.6,0.6,0.9C67.2,50.6,66.8,50.9,64.9,50.9z M64.3,54.5c-1.3,0-2.6,0-3.8,0c0-0.6,0-1,0-1.4
		c0-1,0.6-1.4,1.6-1.4c1.5,0.1,3,0,4.6,0C66.9,53.1,65.8,54.4,64.3,54.5z M59.6,42.3c1.8,0.7,3.5,1.6,4.7,3.4
		c-0.9-0.2-1.6-0.4-2.3-0.5c-0.7-0.1-1.5-0.2-2.3-0.3V42.3z M54.8,46.7c0.9-0.3,1.8-0.5,2.7-0.6c0.4-0.1,0.8,0.1,1.2,0.2
		c0,0.1,0,0.3,0,0.4c-1.5,0.9-3.1,1.9-4.8,2.9C53.8,48.2,53.5,47.1,54.8,46.7z M53.5,51.3c2-1.4,4.1-2.8,6.1-4.1
		c1.1,2.5-0.5,4.8-0.1,7.2C56.9,54.4,54.5,54.5,53.5,51.3z M68.8,93.7c-0.7-1.3-0.9-2.8-1.2-4.2c-0.9-4.2-1.4-8.5-3.3-12.4
		c-0.4-0.8-0.7-1.6-1-2.4c-1.1-3.1-2.3-6.3-3.3-9.5c-0.5-1.5-0.9-3.1-0.9-4.7c0-1.5,0.5-3.1,0.8-4.7c1-0.1,2.1-0.1,3.1-0.2
		c1-0.1,2-0.1,3-0.2c-0.3,0.5-0.7,1.1-1.1,1.7c-0.6,1-1.3,1.9-1.9,2.9c-1.5,2.6,0,6,3,7.2c1.2,0.5,2.3,0.1,3-0.7
		c0.9-1.1,1.9-1.4,3.3-1.3c0.6,0.1,1.2,0,1.7,0c1,0,2.1-0.2,2.5-1.3c0.4-1.3,0.3-2.6-0.6-3.6c-0.2-0.2-0.7-0.1-1.1-0.2
		c0.1,0.3,0.1,0.8,0.3,1c0.8,0.8,0.9,1.8,0,2.4c-0.6,0.5-1.6,0.8-2.3,0.7c-1.9-0.1-3.6-0.1-4.7,1.7c-0.4,0.7-1.1,0.6-1.8,0.2
		c-3.2-1.9-3.7-3.7-1.7-6.9c0.1-0.1,0.2-0.3,0.3-0.4c2.2-2.5,3.1-5.4,3.6-8.6c0.2-1.4,0.7-1.6,1.9-1.1c0.6,0.3,1.1,0.8,1.4,1.3
		c0.6,1.1,1,2.4,1.7,3.5c0.6,0.9,1.5,1.9,2.5,2.3c1.5,0.6,3.3,0.9,4.9,1.1c2.1,0.2,4.3,0.2,6.4,0c0.9-0.1,1.8-0.7,2.7-1.2
		c1.1-0.7,2-1.9,3.2-2.2c5.7-1.6,11.5-3,17.2-4.4c1.9-0.5,3.9-0.7,5.9-1.2c1.4-0.3,2.7-0.9,4.1-1.2c1-0.2,2.2-0.6,3.1-0.3
		c3.4,0.8,5,5.8,3.8,8.4c-1.5,3.2-3.3,6.3-5.9,8.7c-1.7,1.6-3.7,2.8-6,2.7c-1.6-0.1-3.2-0.4-4.7-0.8c-0.2,0-0.6-0.6-0.5-0.8
		c0.4-2,0.9-3.9,1.4-5.9c0.5,0,0.9,0,1.4,0.1c-0.3,0.6-0.6,1-0.8,1.5c-0.4,0.7-0.6,1.5,0.2,2.1c0.7,0.6,1.7,0.7,2.4,0
		c0.9-0.8,1.8-0.9,2.8-0.7c1.5,0.4,2.4-0.2,3.5-1.2c2.8-2.7,3.7-5.9,3.4-9.7c-0.1-1.5-1.3-2.6-2.8-2.7c-1.6,0-2.2,1.2-3,2.3
		c0.3,0.3,0.6,0.6,0.8,0.9c0.4-0.6,0.7-1.3,1.3-1.5c0.5-0.3,1.7-0.2,1.8,0c0.4,1.4,0.8,3,0.7,4.4c-0.2,2.4-1.8,4.2-3.4,6
		c-0.3,0.3-0.9,0.4-1.4,0.4c-1.4,0-2.9-0.7-4,0.8c-0.2,0.3-0.7,0.3-1.1,0.4c0-0.6,0.1-1.1,0.4-1.4c0.7-0.7,1.1-1.5,0.9-2.5
		c-0.1-0.4,0-0.9,0.1-1.4c0.1-0.3,0.4-0.5,0.6-0.7c0.2,0.2,0.5,0.4,0.6,0.7c0.2,0.5,0.3,1,0.4,1.5c0.6-0.1,0.9-0.2,1.3-0.3
		c0-1.3,0.4-2.7-1.1-3.4c-0.3,0.2-0.5,0.3-0.8,0.2c-0.9-0.1-1.8-0.2-2,1.1c-0.1,0.6-0.3,1.2-0.4,1.8c-2.7,0.4-3.6,1.4-3.9,4.2
		c-0.1,0.7-0.3,1.5-0.5,2.2c-1.1,3.5-1.9,7-2,10.7c0,3-1,5.7-2.5,8.2c-1.6,2.7-3.6,5.1-6.5,6.6c-3.1,1.7-6.3,3.1-9.4,4.7
		c-2.2,1.1-4.3,2.3-6.8,2.6c-2.3,0.3-4.6,1.1-6.9,0.4C72.3,96.8,70,96,68.8,93.7z M66.6,100.8c1.1-0.9,2.4-1.6,3.6-2.3
		c0.4-0.2,1-0.3,1.4-0.2c1.4,0.4,2.7,0.9,4.2,1.4c-0.2,1.5-0.4,3.1-0.7,4.6c-0.2,0.7-0.6,1.6-1.2,2.1c-2.9,2.5-5.8,4.9-8.7,7.2
		c-0.4,0.3-1.2,0.3-1.7,0.1c-1.4-0.5-1.8-1.8-0.9-3.6c0.9-1.8,0.9-3.4-0.1-5C63.9,103.6,65.2,102.1,66.6,100.8z M44.2,104.7
		c2.3-1.3,4.9-1.6,7.5-2c1.7-0.2,3.5-0.4,5.2-0.7c2.1-0.3,4.1-0.7,6.3-1c-0.4,1.3-0.4,1.3-2.5,2.8c-1.6,1.2-1.6,1.4-0.1,2.8
		c0.3,0.3,0.6,0.9,0.5,1.3c-0.2,1-0.6,2-0.8,3c-0.4,1.7,0.3,3.2,1.7,4c0.6,0.4,1.3,0.5,1.9,1c0.7,0.6,1.4,1.3,2,1.9l-0.3,0.4
		c-7.3-4.4-14.6-8.8-21.8-13.2C43.8,105.1,44,104.9,44.2,104.7z M8.2,104.3c0-2,0.1-4,0.3-6c0-0.3,0.4-0.8,0.7-0.8
		c0.9-0.1,1.8-0.1,2.6,0.1c2.8,0.7,5.6,1.5,8.4,2.3c1.9,0.5,3.9,0.8,5.8,1.3c2.5,0.7,5,1.8,7.6,2.4c3.8,0.9,7.2,2.7,10.9,3.9
		c3.2,1,6,3.2,9,4.8c0.9,0.5,1.8,1.1,2.9,1.9c-2.7,0.7-3.8,2.6-4.8,4.7c-2.1-0.7-4.3-1.1-6.1-2c-3-1.6-5.8-3.5-8.7-5.4
		c-2.6-1.7-3.1-1.6-4.2,1.3c-1.7-0.4-3.3,0-4,1.2c-0.9,1.5-0.6,2.9,0.2,4.1c-0.8,0.6-1.7,1.1-2.4,1.7c-0.9,0.8-1,2.8-0.4,3.7
		c2,3.2,4.7,5.6,7.5,7.9c2.1,1.7,3.9,3.9,5.9,5.9c0,0-0.1,0.1-0.1,0.1c-0.3-0.2-0.7-0.4-1-0.6c-2.5-1.6-4.8-3.4-6.6-5.8
		c-0.8-1.1-1.8-2.1-2.8-3.1c-0.8-0.8-2-0.8-2.9-0.4c-0.6,0.3-1.3,1-1.4,1.7c-0.4,1.7,0.1,3.3,1.4,4.5c0.2,0.2,0.4,0.5,0.6,0.8
		c1.7,2.2,3.2,4.4,5,6.5c1.2,1.4,2.7,2.7,4.2,4c0.8,0.7,1.6,1.3,2.3,2.1c1.1,1.2,2.2,2.4,3.3,3.6c-0.1,0.1-0.2,0.2-0.3,0.3
		c-0.6-0.4-1.3-0.7-1.8-1.2c-2.3-2.1-5-3.5-7.8-5c-3.8-2-7.7-3.9-11.5-5.9c-0.6-0.3-1.2-0.7-1-1.3c0.6-0.2,1.1-0.3,1.5-0.5
		c-0.3-0.4-0.4-0.8-0.8-1.1c-0.4-0.3-0.7-0.4-0.5-1.1c0.8-2,1.4-4,2.1-6c0.4-1.2,0.4-2.4-0.7-3.2c-0.9-0.6-0.5-1,0-1.5
		c0.9-0.8,1.7-1.6,2.5-2.5c1.6-1.8,1.3-4.4-0.5-6.1c-0.2-0.2-0.2-0.7-0.1-0.9c0.2-0.4,0.5-0.7,0.8-1.1c0.8-1.1,0.7-2.7-0.3-3.5
		c-0.7-0.5-1.5-1-2.2-1.5c-0.3-0.2-0.6-0.5-0.7-0.9c-0.5-1.5-2.6-2.5-4-1.8c-0.9,0.4-1.7,1-2.5,1.5c-1.7,1-3.4,2.1-5.2,3.2
		C8.2,108.4,8.2,106.3,8.2,104.3z"/>
	<path class="st0" d="M80.8,81.6c-1,1.5-2,3-3.2,4.3c-1,1-2.3,1.9-3.6,2.5c-1.9,0.9-4.1,0.3-5.1-1.6c-0.8-1.5-1.1-3.3-1.6-5
		c-0.8-2.8-0.2-5.9-1.9-8.6c-0.9-1.5,0-2.6,1.8-2.7c4.3-0.1,8.3,1,11.6,3.8c1.5,1.2,2.9,2.6,2.9,4.8C81.4,79.9,81.3,80.8,80.8,81.6z
		 M76.7,76.6c-3-0.6-4.6,1.2-5.8,3.6c-0.4,0.8-0.6,1.5,0,2.2c0.6,0.8,1.4,1.5,2.5,1.3c2.5-0.5,4.7-1.6,6.4-3.6
		c0.7-0.9,0.6-1.9,0.2-2.6c-0.3-0.5-1.2-0.7-1.5-0.9C77.6,76.6,77.2,76.7,76.7,76.6z M70.5,86.8c1.2,1.3,3.1,1.2,4.9-0.3
		c1.2-1,2.2-2.2,3.3-3.4c-2.1,0.5-4.1,1.4-6.1,1.4c-2.4,0-3.4-2.2-4.4-4.1C68.1,82.8,68.9,85,70.5,86.8z M67.3,72
		c-0.7,2,0.1,3,2.6,3.2c1.3,0.1,2.7,0.5,4,0.5c1.3,0,2.6-0.3,4.1-0.6C74.8,72.1,70.8,73.1,67.3,72z"/>
	<path class="st0" d="M78.4,50.9c0.2,0.3,0.4,0.7,0.7,0.9c2.5,2,6.5,3,9.4,0.6c0.2-0.2,0.3-0.6,0.5-0.9c-0.4-0.1-1-0.4-1.2-0.2
		c-2.6,2.2-5.1,1.2-7.6,0c-0.5-0.2-1-0.5-1.5-0.8C78.7,50.7,78.6,50.8,78.4,50.9z"/>
</g>
</svg>
