<?xml version="1.0" encoding="utf-8"?>
<!-- Generator: Adobe Illustrator 17.0.2, SVG Export Plug-In . SVG Version: 6.00 Build 0)  -->
<!DOCTYPE svg PUBLIC "-//W3C//DTD SVG 1.1//EN" "http://www.w3.org/Graphics/SVG/1.1/DTD/svg11.dtd">
<svg version="1.1" id="Layer_1" xmlns="http://www.w3.org/2000/svg" xmlns:xlink="http://www.w3.org/1999/xlink" x="0px" y="0px"
	 width="235.5px" height="218.096px" viewBox="0 0 235.5 218.096" enable-background="new 0 0 235.5 218.096" xml:space="preserve">
<g>
	<defs>
		<ellipse id="SVGID_1_" cx="117.75" cy="109.048" rx="117.75" ry="109.048"/>
	</defs>
	<clipPath id="SVGID_2_">
		<use xlink:href="#SVGID_1_"  overflow="visible"/>
	</clipPath>
	<g clip-path="url(#SVGID_2_)">
		<g>
			<path fill="#FFFFFF" d="M23,97.148c-0.125-0.026-0.244-0.05-0.383-0.078c0.232-0.276,0.352-0.42,0.547-0.653
				c-0.21,0.041-0.365,0.025-0.413,0.089c-0.352,0.466-0.88,0.576-1.382,0.784c-0.88,0.364-1.724,0.818-2.562,1.274
				c-0.017,0.009-0.027,0.031-0.043,0.043C20.046,98.142,21.512,97.642,23,97.148z"/>
			<path fill="#D70012" d="M69.095,124.56c-0.644-1.618-1.317-3.216-2.046-4.777c-1.539-1.764-2.998-3.597-4.306-5.564
				c-0.131-0.196-0.211-0.404-0.251-0.616c-1.011-0.301-2.021-0.614-3.033-0.949c-0.463-0.153-0.802-0.404-1.039-0.704
				c-0.104-0.055-0.203-0.113-0.289-0.181c-2.179-0.345-4.345-0.758-6.502-1.224c0.207,0.26,0.099,0.639-0.188,0.801
				c0.069,0.054,0.138,0.109,0.207,0.163c1.98-0.226,3.885,0.025,5.505,1.327c0.11,0.089,0.153,0.198,0.157,0.311
				c4.645-1.457,8.525,9.357,9.642,12.328c0.556,1.478,1.314,3.092,2.148,4.794c0-0.732,0.01-1.464,0.036-2.195
				c-0.221-0.611-0.235-1.198,0.014-1.696C69.117,125.771,69.103,125.165,69.095,124.56z"/>
			<path fill="#D70012" d="M197.839,135.07c0.308-0.503,0.856-0.876,1.661-0.914c1.991-0.093,3.842-0.192,5.786,0h0.21
				c1.027-0.208,2.054-0.421,3.087-0.598c0.249-0.043,0.528,0.086,0.867,0.149c-0.113,0.194-0.142,0.322-0.207,0.344
				c-0.562,0.192-1.097,0.402-1.551,0.786c0.125,0.021,0.251,0.042,0.376,0.063c0.539-0.325,1.233-0.378,1.958,0.034
				c1.353,0.769,2.491,1.409,3.445,2.291c0.434-0.005,0.864,0.116,1.223,0.349c-0.17-0.527-0.402-1.02-0.667-1.49
				c-3.558-4.216-9.835-3.544-14.971-2.749c-0.043,0.172-0.112,0.335-0.23,0.454c-0.386,0.386-0.927,0.327-1.324,0.01
				c-0.093-0.026-0.179-0.066-0.259-0.112c-0.136-0.027-0.272-0.055-0.409-0.082c-0.294-0.059-0.486-0.268-0.589-0.52
				c-0.13,0.071-0.272,0.133-0.391,0.21c-0.527,0.343-1.223-0.004-1.393-0.567c-0.975-3.232-4.461-3.922-8.138-4.228
				c-0.116,0.021-0.239,0.01-0.368-0.028c-2.71-0.208-5.481-0.251-7.395-0.979c-5.172-1.966-9.824-4.92-13.438-9.138
				c-2.942-3.434-3.328-7.337-3.169-11.643c0.063-1.701-0.312-5.545,1.439-6.669c-0.355-0.383-0.675-0.787-0.907-1.247
				c-0.028,0.014-0.053,0.034-0.082,0.047c-0.215,0.1-0.414,0.212-0.602,0.334c0.078,0.174,0.115,0.373,0.049,0.61
				c-2.658,9.509-3.691,19.445-6.155,29.037c-1.326,5.162-3.041,10.151-4.78,15.132c-0.421,3.361-1.015,6.687-2.304,9.911
				c-0.558,1.395-1.167,2.756-1.817,4.093c-0.063,0.222-0.12,0.447-0.187,0.667c0.127,0.244,0.151,0.539-0.04,0.852
				c-0.16,0.261-0.324,0.521-0.485,0.782c-0.296,0.876-0.606,1.749-0.917,2.628c-0.187,0.528-0.647,0.706-1.064,0.638
				c-0.326,0.538-0.669,1.065-1.028,1.582c-0.118,0.192-0.238,0.382-0.356,0.573c-0.078,0.128-0.17,0.224-0.269,0.297
				c-0.191,0.256-0.383,0.511-0.583,0.765c-0.001,0.003-0.003,0.005-0.004,0.007c0,0-0.001-0.001-0.001-0.001
				c-0.05,0.064-0.096,0.129-0.147,0.193c-0.077,0.096-0.161,0.159-0.248,0.207c-0.293,0.438-0.587,0.877-0.888,1.312
				c-0.295,0.427-0.759,0.485-1.146,0.348c-1.337,1.985-3.102,3.778-5.119,5.23c-0.066,0.117-0.151,0.229-0.279,0.324
				c-0.77,0.59-1.555,1.16-2.353,1.711c-0.011,0.008-0.022,0.007-0.033,0.014c-0.047,0.094-0.11,0.185-0.203,0.265
				c-0.555,0.476-1.121,0.888-1.699,1.275c-0.03,0.366-0.239,0.733-0.645,0.894c-0.824,0.382-1.679,0.667-2.567,0.856
				c-0.453,0.123-0.836-0.127-1.044-0.474c-2.432,1.112-5.159,1.7-7.699,1.586c0.022,0.114,0.033,0.234,0.024,0.365
				c-0.04,0.619-0.099,1.234-0.154,1.85h1.318c0.176-0.039,0.356-0.064,0.541-0.074c1.324-0.07,2.666,0.028,3.987,0.176
				c0.585,0.065,1.1,0.039,1.682-0.046c1.069-0.155,2.156-0.19,3.242-0.24c1.096-0.398,2.149-0.849,3.164-1.317
				c0.052-0.155,0.147-0.308,0.307-0.447c0.377-0.33,0.743-0.671,1.11-1.011c0.052-0.111,0.121-0.22,0.223-0.322
				c0.349-0.35,0.691-0.7,1.029-1.053c0.024-0.21,0.117-0.421,0.304-0.614c0.373-0.384,0.733-0.781,1.099-1.172
				c-0.026-0.289,0.034-0.586,0.235-0.828c1.354-1.633,2.777-3.008,4.552-4.169c0.135-0.089,0.275-0.132,0.413-0.148
				c0.458-0.446,0.914-0.896,1.368-1.35c0.162-0.162,0.35-0.234,0.542-0.267c0.437-0.635,0.899-1.252,1.395-1.85
				c0.509-0.775,1.023-1.545,1.567-2.293c0.444-0.792,0.882-1.585,1.327-2.37c0.178-0.313,0.434-0.471,0.705-0.514
				c0.25-0.957,0.552-1.895,0.962-2.819c0.148-0.333,0.454-0.489,0.782-0.515c0.604-2.576,1.204-5.154,1.817-7.728
				c1.503-6.319,3.002-12.64,4.533-18.953c0.999-4.118,2.857-7.931,4.338-11.878c0.296-0.79,0.622-1.569,0.991-2.494
				c1.72,1.171,3.361,2.286,4.999,3.405c3.189,2.179,6.339,4.418,9.578,6.52c1.721,1.117,3.782,1.403,5.781,1.667
				c1.658,0.219,3.344,0.264,5.019,0.314c1.686,0.05,3.136,0.698,4.398,1.716c0.521,0.42,0.825,1.13,1.153,1.747
				c0.073,0.137-0.117,0.491-0.277,0.658c-1.359,1.416-2.781,2.774-4.102,4.223c-1.73,1.897-3.404,3.847-5.055,5.814
				c-0.242,0.288-0.232,0.786-0.334,1.19c0.201,0.022,0.401,0.045,0.602,0.067c0.034,0.059,0.068,0.118,0.103,0.177
				c-0.211,0.184-0.4,0.484-0.638,0.528c-0.335,0.062-0.454,0.24-0.524,0.454c0.549-0.384,1.106-0.757,1.672-1.116
				c0.002-0.786,1.01-1.21,1.237-1.844c0.412-0.25,0.727-0.419,1.018-0.623c0.429-0.3,0.847-0.617,1.256-0.943
				c0.184-0.147,0.489-0.351,0.474-0.504c-0.094-0.996,0.759-1.314,1.305-1.779c0.695-0.59,1.516-1.047,2.324-1.486
				c0.453-0.246,0.996-0.322,1.487-0.506c0.36-0.135,0.713-0.298,1.045-0.49c0.181-0.104,0.345-0.234,0.52-0.349
				c0.203-0.423,0.574-0.777,1.129-0.978c0.055-0.052,0.112-0.101,0.176-0.138c0.713-0.41,1.451-1.02,2.208-1.064
				C197.777,135.07,197.808,135.072,197.839,135.07z"/>
			<path fill="#D70012" d="M171.167,115.742c0.769,1.056,1.317,2.039,1.817,3.183c0.241,0.252,0.407,0.496,0.762,1.014
				c0.037,0.04,0.075,0.081,0.112,0.121c0.065-0.018,0.132-0.038,0.195-0.054c0.903-0.306,1.721-0.768,2.448-1.396
				c0.043-0.031,0.088-0.049,0.133-0.07c-0.056-0.134-0.099-0.272-0.123-0.413c-0.293-0.272-0.455-0.616-0.511-0.982
				c-0.126,0.028-0.253,0.055-0.376,0.096c-0.028,0.1-0.051,0.2-0.083,0.3c-0.262,0.822-1.662,0.985-1.828,0
				c-0.242-1.434-0.23-3.053,0.078-4.574v-1.166c0.094,0.027,0.188,0.059,0.279,0.093c0.565-1.804,1.611-3.346,3.236-4.089
				c-0.02-0.294,0.111-0.581,0.479-0.746c0.53-0.238,1.07-0.435,1.617-0.624c1.142-1.366,3.086-2.037,5-1.878
				c0.03-0.105,0.052-0.216,0.071-0.333c-0.548-0.008-1.067-0.037-1.58-0.081c-0.346,0.157-0.795,0.243-1.192-0.156
				c-0.231-0.035-0.461-0.055-0.694-0.1c-0.019,0.008-0.038,0.014-0.057,0.022c-0.066,0.086-0.119,0.194-0.144,0.332
				c-0.107-0.051-0.215-0.103-0.326-0.155c-0.053,0.02-0.107,0.038-0.161,0.058c-0.028,0.019-0.047,0.044-0.08,0.06
				c-1.154,0.564-2.32,1.099-3.489,1.631c-0.264,0.182-0.525,0.367-0.785,0.553c-0.035,0.154-0.1,0.308-0.24,0.449
				c-0.43,0.432-0.844,0.867-1.247,1.314c0.068,0.284,0.018,0.589-0.251,0.825c-0.249,0.219-0.481,0.452-0.718,0.681
				c-0.436,0.762-0.884,1.386-1.408,1.938c-0.351,0.495-0.715,1.009-1.018,1.44v2.544c0,0.025-0.009,0.042-0.011,0.066
				C171.103,115.677,171.139,115.703,171.167,115.742z"/>
			<path fill="#D70012" d="M181.837,122.973c0.012-0.03,0.013-0.066,0.028-0.094c-0.214-0.211-0.431-0.417-0.637-0.64
				c-0.19-0.207-0.249-0.487-0.219-0.76c-0.885-0.518-1.772-1.036-2.668-1.539c0.306,0.519,0.611,1.038,0.917,1.557
				C180.121,121.984,180.976,122.484,181.837,122.973z"/>
			<path fill="#D70012" d="M112.263,203.242c0.455-0.138,0.985-0.17,1.455-0.092c0.9,0.15,1.598,0.509,2.088,1.067
				c2.7-1.033,5.412-2.158,8.205-3.23c1.197-0.459,2.356-0.965,3.507-1.481c-0.217,0.028-0.444,0.037-0.693,0.024
				c-1.007,0.524-2.037,0.825-3.145,0.968c-0.815,0.225-1.637,0.425-2.463,0.612c-0.152,0.093-0.326,0.162-0.55,0.162h-0.165
				c-1.404,0.309-2.814,0.602-4.214,0.961c-0.207,0.053-0.393,0.045-0.559-0.002c-0.122,0.193-0.334,0.355-0.594,0.463
				c-0.669,0.277-1.009-0.045-1.323-0.392c-0.242,0.005-0.499-0.002-0.812-0.031c-0.098-0.009-0.174-0.049-0.258-0.077
				c-0.185,0.062-0.383,0.096-0.594,0.081c-0.15,0.05-0.31,0.077-0.482,0.064l-0.799,0.71c0.085,0.112,0.15,0.237,0.199,0.367
				C111.45,203.446,111.855,203.367,112.263,203.242z"/>
			<path fill="#D70012" d="M88.041,209.477c0.1-0.209,0.278-0.388,0.556-0.48c0.132-0.044,0.262-0.077,0.393-0.115
				c0.076-0.04,0.151-0.081,0.248-0.099c0.066-0.011,0.13-0.018,0.195-0.029c1.328-0.335,2.63-0.425,3.987-0.439
				c0.14-0.235,0.386-0.413,0.775-0.421c1.039-0.022,2.076-0.065,3.113-0.107c-1.187-0.394-2.337-0.916-3.457-1.608
				c-0.116,0.02-0.228,0.048-0.353,0.048h-0.217c-0.324,0.281-0.75,0.472-1.283,0.5c-0.429,0.022-0.857,0.056-1.284,0.092
				c-0.139,0.027-0.279,0.06-0.417,0.083c-0.269,0.676-0.87,1.236-1.799,1.325c-1.193,0.114-2.353,0.175-3.495,0.188
				C86.026,208.693,87.037,209.061,88.041,209.477z"/>
			<path fill="#D70012" d="M229.632,137.686c-0.414-0.926-0.756-1.885-1.126-2.83c-0.247-0.629-0.434-1.289-0.741-1.887
				c-1.581-3.081-3.503-5.948-5.562-8.728c-0.24-0.324-0.405-0.713-0.681-0.998c-1.039-1.075-2.136-2.094-3.16-3.182
				c-1.065-1.131-1.743-2.592-3.053-3.529c-0.235-0.168-0.267-0.6-0.429-0.891c-0.122-0.219-0.259-0.475-0.461-0.596
				c-0.812-0.484-1.46-1.077-1.817-1.988c-0.119-0.303-0.436-0.665-0.73-0.74c-1.402-0.358-2.107-1.568-2.871-2.53
				c-0.921-1.16-1.766-2.369-2.851-3.398c-1.386-1.314-2.692-2.714-4.113-3.988c-2.229-1.999-4.683-3.696-7.344-5.086
				c-0.068-0.036-0.162-0.023-0.388-0.05c0.2,0.255,0.288,0.436,0.432,0.542c1.044,0.774,2.105,1.524,3.144,2.303
				c0.075,0.057,0.159,0.132,0.237,0.211c1.799,0.243,3.79,4.091,4.882,5.325c2.986,3.376,6.096,6.633,9.184,9.916
				c3.827,4.07,7.601,8.054,10.369,12.941c3.29,5.808,7.263,15.961-1.849,17.809c-0.143,0.104-0.298,0.167-0.458,0.167
				c-1.257,0.809-2.651,1.362-4.071,2.43c-2.109,1.586-3.852,3.591-6.43,4.374c-0.168,0.051-0.319,0.042-0.46,0.008
				c-3.193,3.047-6.891,5.63-10.223,7.383c-1.081,0.569-2.039-1.068-0.957-1.637c2.946-1.55,5.824-3.666,8.416-6.042
				c-1.185,0.778-2.342,1.594-3.494,2.452c-0.678,0.505-1.425,0.405-2.016,0.008c-0.513,0.265-1.028,0.526-1.542,0.79
				c0.31,0.338,0.414,0.865-0.001,1.286c-2.11,2.138-5.495,3.618-8.054,5.134c-3.901,2.312-7.999,3.998-12.377,5.235
				c-6.467,1.826-12.386,3.239-18.233,6.749c-2.405,1.444-5.143,2.932-7.533,4.756c-0.058,0.199-0.18,0.387-0.413,0.521
				c-0.341,0.196-0.647,0.41-0.946,0.627c-1.023,1.09-2.014,2.234-2.977,3.403c-0.007,0.01-0.011,0.022-0.018,0.033
				c0.395,0.347,0.56,0.957,0.069,1.351c-1.138,0.913-2.255,1.836-3.338,2.797c-0.507,0.67-1.007,1.339-1.499,2
				c0.37,0.328,0.545,0.921,0.131,1.406c-1.013,1.186-1.32,1.485-2.809,1.561c-0.669,0.034-1.249-0.852-0.819-1.426
				c0.18-0.24,0.363-0.488,0.544-0.732c-0.043-0.006-0.087-0.009-0.129-0.021c-0.058,0.013-0.116,0.009-0.175,0.01
				c-0.104,0.211-0.212,0.417-0.315,0.63c-0.546,1.098-2.167,0.136-1.637-0.957c0.194-0.399,0.394-0.789,0.591-1.182
				c-0.365,0.069-0.773-0.07-1.019-0.428c-0.915-1.333-1.214-2.491-1.07-3.836c-0.005-0.017-0.011-0.034-0.016-0.051
				c-0.281-0.341-0.482-0.742-0.66-1.29c-0.34,0.099-0.678,0.219-1.009,0.399c-0.671,0.365-1.537,0.398-2.325,0.524
				c-1.387,0.223-2.78,0.405-4.171,0.607c-4.053,1.44-8.415,2.217-12.574,1.285c-0.177,0.762-0.368,1.522-0.592,2.281
				c-0.148,0.503-0.455,0.794-0.808,0.941c-0.029,0.165-0.06,0.331-0.09,0.497c0.046,0.005,0.089,0.013,0.134,0.018
				c0.431,0.049,0.763,0.238,1.001,0.496c0.243,0.071,0.486,0.136,0.727,0.224c0.071,0.026,0.133,0.062,0.196,0.095
				c0.395-0.054,0.813-0.05,1.257,0.029c0.578,0.103,1.148,0.248,1.716,0.407c2.797-0.433,5.567-1.025,8.437-0.917
				c0.683,0.026,1.118,0.425,1.313,0.921c0.47-0.094,0.919-0.268,1.376-0.52c0.533-0.294,1.253-0.317,1.893-0.334
				c0.659-0.017,1.322,0.12,1.983,0.189c0.013,0.061,0.026,0.121,0.039,0.182c-1.698,0.864-3.72,1.06-5.269,2.45
				c-0.08-0.102-0.174-0.224-0.264-0.339c-0.239,0.266-0.595,0.436-1.07,0.418c-3.488-0.131-6.845,0.775-10.277,1.166
				c-0.199,0.102-0.437,0.167-0.723,0.167h-1.333c-0.517,0-0.889-0.214-1.126-0.522c-0.013-0.004-0.026-0.009-0.039-0.013
				c-0.347,0.155-0.68,0.333-1.012,0.514c-0.002,0.179-0.005,0.358-0.006,0.538c-0.001,0.443-0.146,0.778-0.369,1.014
				c0.004,0.008,0.009,0.015,0.013,0.023c0.373,0.159,0.599,0.474,0.702,0.852c0.296,0.562,0.55,1.096,0.585,1.778
				c0.005,0.106-0.014,0.198-0.035,0.289c0.087-0.023,0.182-0.037,0.287-0.037h1.333c0.096,0.006,0.191,0.001,0.286,0.002
				c0.076-0.086,0.158-0.169,0.23-0.25c0.797-0.895,1.781-0.542,2.715-0.378c0.163,0.029,0.323,0.09,0.494,0.166
				c0.452-0.108,0.905-0.213,1.353-0.333c0.158-0.113,0.344-0.199,0.587-0.208c0.389-0.014,0.762-0.044,1.123-0.093
				c1.02-0.297,2.025-0.644,2.998-1.093c0.973-0.448,1.796,0.462,1.565,1.251c0.104-0.025,0.207-0.054,0.312-0.077
				c0.147-0.032,0.335,0.122,0.504,0.191c-0.093,0.141-0.165,0.305-0.283,0.419c1.819-0.832,3.623-1.683,5.484-2.462
				c1.114-0.466,2.191-0.844,3.253-0.639c0.007-0.01,0.015-0.02,0.022-0.03c-0.122-0.149-0.211-0.324-0.211-0.546
				c0-0.487,0.432-0.987,0.948-0.948c0.254,0.019,0.479,0.089,0.682,0.191c0.326-0.163,0.653-0.326,0.979-0.489
				c0.215-0.108,0.42-0.114,0.61-0.079c0.015-0.006,0.03-0.011,0.045-0.017c0.586-0.22,1.2,0.34,1.2,0.914
				c0,0.711,1.028,2.33,1.24,3.02c0.566,1.844,1.08,3.713,1.421,5.613c0.406,2.258,0.881,4.6,0.348,6.87
				c-0.277,1.177-1.137,1.983-2.28,2.55c-0.191,0.195-0.432,0.33-0.696,0.405c-0.198,0.201-0.448,0.368-0.748,0.488
				c-4.209,1.686-8.675,2.031-12.908,0.867c-3.462,0.191-6.891,0.279-10.43,0.12c-4.575-0.205-8.845,0.422-13.321,0.771
				c-0.044,0.007-0.09,0.007-0.135,0.01c-0.457,0.035-0.915,0.071-1.377,0.099c-3.807,0.229-6.862-0.491-10.262-2.159
				c-4.601-2.257-9.876-5.436-15.066-3.076c-1.104,0.502-2.069-1.132-0.957-1.637c1.057-0.48,2.101-0.767,3.135-0.912
				c-1.686-0.31-3.361-0.785-5.054-1.518c-0.343-0.148-0.588-0.37-0.753-0.632c-0.249-0.121-0.498-0.236-0.747-0.368
				c-0.366-0.194-0.617-0.443-0.783-0.718c-0.196,0-0.393-0.037-0.587-0.09c-0.149,0.076-0.314,0.135-0.508,0.154
				c-0.771,0.078-1.462,0.074-2.148,0.034c-0.079,0.384-0.149,0.765-0.234,1.15c-0.321,1.457-2.554,1.099-2.554-0.346v-0.856
				c0-0.115,0.033-0.206,0.056-0.305c-0.2-0.182-0.331-0.425-0.4-0.687c-0.63,0.644-2.015,0.379-2.176-0.588
				c-0.071-0.428-0.143-0.856-0.214-1.283c-0.143-0.858,0.476-1.456,1.137-1.597c2.678-6.947,2.414-14.203,1.649-21.599
				c-0.724-7.01-1.165-14.04-1.84-21.053c-0.695-7.214-1.495-14.445-4.225-21.206c-0.964-2.389-2.356-5.191-2.329-7.832
				c0.008-0.786,0.112-1.6,0.217-2.42c-0.009-0.307,0-0.615,0.034-0.925c0.058-0.522,0.128-1.143,0.187-1.81
				c-0.006-0.869-0.118-1.722-0.474-2.531c-0.128-0.29-0.148-0.573-0.095-0.831c-0.042-0.055-0.079-0.114-0.122-0.169
				c-0.116-0.008-0.233-0.042-0.334-0.122c-0.048-0.038-0.094-0.077-0.14-0.116c-0.005,0.029,0.005,0.057-0.008,0.086
				c-1.902,4.548-8.168,6.638-12.362,8.331c-2.865,1.157-5.689,2.501-8.667,3.345c-1.065,0.302-2.137,0.567-3.212,0.815
				c-0.877,0.354-1.747,0.714-2.587,1.106c-0.545,0.254-1.13,0.103-1.526-0.234c-3.617,1.507-8.025,1.576-11.071-0.98
				c-0.423,0.196-0.942,0.166-1.386-0.273c-0.569-0.628-1.172-1.176-1.791-1.696c-0.424,0.191-0.952,0.169-1.418-0.229
				c-0.417-0.357-0.82-0.724-1.224-1.089c-0.142-0.036-0.289-0.1-0.438-0.205c-1.311-0.928-2.508-1.884-3.686-2.984
				c-0.429-0.401-0.496-0.856-0.354-1.244c-0.303-0.374-0.602-0.752-0.929-1.109c-0.17-0.198-0.262-0.411-0.303-0.624
				c-1.293-1.681-2.289-3.509-2.598-5.726c-0.054-0.387,0.072-0.77,0.287-1.078c-0.044-0.25-0.086-0.502-0.119-0.766
				c-0.043-0.338,0.074-0.612,0.268-0.824c-0.117-0.639-0.182-1.292-0.16-1.957c0.005-0.138,0.065-0.248,0.145-0.339
				c0.004-0.051,0.007-0.104,0.011-0.156c0.003-0.07,0.011-0.141,0.015-0.211c0.009-0.113,0.017-0.229,0.028-0.341
				c0.032-0.505,0.063-1.008,0.123-1.52c0.025-0.211,0.089-0.395,0.179-0.553c0.084-0.425,0.179-0.853,0.295-1.29
				c0.056-0.211,0.162-0.372,0.287-0.509c0.594-1.479,1.29-2.64,2.4-3.915c0.919-1.055,2.414,0.088,2.174,1.265
				c-0.063,0.308-0.122,0.607-0.183,0.908c1.494-0.277,3.005-0.471,4.515-0.657c1.857-0.229,3.73-0.343,5.579-0.616
				c1.029-0.152,2.026-0.52,3.038-0.793c-0.456-0.098-0.894-0.33-1.303-0.435c-0.433-0.112-0.589-0.307-0.648-0.561
				c-0.287,0.034-0.575,0.059-0.864,0.083c-1.496,0.557-3.123,0.993-4.713,1.075c-0.239,0.012-0.441-0.045-0.625-0.128H13
				c-1.43,0-1.833-1.684-1.004-2.527c-0.047-0.188-0.085-0.38-0.132-0.568c0.081-0.021,0.162-0.041,0.244-0.062
				c0.031,0.134,0.065,0.28,0.104,0.451c0.087-0.059,0.183-0.11,0.289-0.152c0.206-0.279,0.414-0.561,0.682-0.924
				c-0.021,0.102-0.039,0.192-0.059,0.289c0.382-0.354,1.035-0.412,1.378,0.01c0.081-0.024,0.162-0.049,0.243-0.073
				c0.143-0.274,0.319-0.529,0.712-0.608c0.014,0.14,0.027,0.261,0.04,0.389c0.051-0.015,0.102-0.029,0.153-0.044
				c0.067-0.032,0.142-0.066,0.214-0.099c0.2-0.317,0.391-0.621,0.594-0.943c0.72,0.957,1.127-0.112,1.754-0.137
				c-0.02,0.054-0.039,0.103-0.058,0.155c0.199-0.074,0.402-0.149,0.612-0.225c0.016-0.012,0.026-0.034,0.043-0.043
				c0.838-0.456,1.682-0.91,2.562-1.274c0.502-0.208,1.031-0.318,1.382-0.784c0.048-0.064,0.203-0.048,0.413-0.089
				c-0.195,0.233-0.316,0.377-0.547,0.653c0.139,0.029,0.257,0.053,0.383,0.078c4.239-1.406,8.623-2.755,9.194-3.055
				c0.239-0.126,0.474-0.259,0.712-0.388c0.017-0.021,0.027-0.042,0.045-0.063c3.003-3.337,6.963-5.527,10.997-7.408
				c0.672-0.388,1.379-0.725,2.158-0.973c0.156-0.05,0.305-0.062,0.45-0.058c0.08-0.089,0.17-0.176,0.286-0.255v0.296
				c0.146,0.039,0.283,0.103,0.407,0.187c0.03-0.035,0.052-0.061,0.087-0.101c-0.008,0.051-0.026,0.089-0.035,0.138
				c0.115,0.085,0.214,0.19,0.304,0.304c0.414-0.126,0.757,0.094,0.943,0.421c0.029-0.003,0.058-0.009,0.087-0.012
				c1.217-0.117,1.206,1.78,0,1.896c-1.341,0.129-2.638,0.558-3.869,1.176c-0.108,0.186-0.182,0.393-0.272,0.59
				c-0.022-0.065-0.063-0.134-0.05-0.19c0.019-0.083,0.025-0.167,0.037-0.251c-0.046,0.024-0.092,0.047-0.137,0.072
				c-0.035,0.024-0.07,0.047-0.105,0.072c0.083,0.1,0.169,0.204,0.251,0.303c-0.515,0.356-1.035,0.704-1.554,1.053
				c0.156-0.211,0.252-0.438,0.327-0.671c-0.336,0.249-0.67,0.501-1.015,0.742c-0.157,0.111-0.312,0.174-0.464,0.212
				c-0.77,0.609-1.498,1.267-2.175,1.943c-0.166,0.234-0.369,0.435-0.596,0.611c-0.164,0.173-0.325,0.345-0.482,0.518
				c-0.579,0.749-1.153,1.46-1.758,2.111c1.531-1.262,3.067-2.567,4.666-3.795c2.206-1.695,4.689-2.931,7.206-4.101
				c0.533-0.248,1.244-0.41,1.177-1.262c-0.007-0.088,0.141-0.179,0.187-0.282c0.139-0.308,0.406-0.644,0.362-0.93
				c-0.021-0.136-0.044-0.261-0.056-0.374c-0.181-0.295-0.253-0.649-0.157-0.992c-0.213,0.175-0.438,0.346-0.652,0.536
				c-0.246-0.727,0.921-2.571,1.997-2.862c-0.184,0.468-0.296,0.91-0.471,1.289c0.2-0.181,0.4-0.362,0.606-0.537
				c0.341-0.724,0.684-1.447,1.051-2.158c0.064-0.123,0.297-0.147,0.413-0.258c0.421-0.406,0.826-0.83,1.236-1.247
				c-0.064-0.063-0.128-0.126-0.193-0.189c-0.184,0.145-0.372,0.286-0.553,0.435c-0.855,0.705-1.655,1.491-2.572,2.103
				c-1.941,1.296-3.873,2.635-5.936,3.713c-3.021,1.579-6.179,2.894-9.232,4.415c-2.778,1.384-5.477,2.925-8.244,4.333
				c-1.814,0.923-3.69,1.7-5.735,2.019c-1.388,0.217-2.787,0.461-4.128,0.866c-3.138,0.945-6.232,2.024-9.104,3.642
				c-2.104,1.186-3.893,2.709-5.228,4.74c-1.943,2.957-2.242,6.095-1.617,9.3c0.325,0.85,0.671,1.69,1.035,2.522
				c0.68,1.325,1.313,2.672,1.901,4.052c0.016,0.033,0.032,0.066,0.048,0.099c-0.001,0.001-0.003,0.001-0.004,0.002
				c0.05,0.118,0.104,0.234,0.154,0.353c0.191,0.457,0.095,0.871-0.148,1.192c0.166,0.317,0.333,0.634,0.498,0.953
				c0.257,0.496,0.24,0.954,0.067,1.324c1.345,1.681,2.689,3.362,4.034,5.043c0.632,0.505,1.264,1.011,1.895,1.516
				c1.217,0.684,2.469,1.324,3.751,1.94c0.255-0.091,0.548-0.106,0.865-0.005c1.866,0.594,3.634,1.405,5.5,2
				c0.49,0.156,0.789,0.469,0.935,0.833c0.86,0.037,1.72,0.058,2.581,0.08c1.158-0.174,2.314-0.406,3.465-0.711
				c5.024-1.327,10.005-2.842,14.798-4.9c0.767-0.329,1.636-0.487,2.473-0.573c1.806-0.186,3.595-0.448,5.181-1.365
				c1.021-0.59,1.936-1.36,2.932-2.074c0.837,0.463,1.479,1.224,1.785,2.147c0.913,2.749,2.048,5.412,2.467,8.339
				c0.724,5.057,1.766,10.068,2.564,15.116c0.477,3.013,0.701,6.066,1.121,9.089c0.26,1.87,0.778,3.706,1,5.578
				c0.58,4.884,1.089,9.777,1.569,14.672c0.203,2.069,0.365,4.152,0.363,6.229c-0.003,2.567-0.861,4.998-1.465,7.47
				c-1.485,6.075-2.898,12.166-3.525,18.409c-0.135,1.343-0.504,2.663-0.765,3.993h90.128c-0.433-1.337-0.959-2.652-1.283-4.015
				c-1.446-6.086-2.912-12.168-3.712-18.388c-0.145-1.131,0.22-1.751,1.048-2.362c1.164-0.859,2.383-1.665,3.052-3.051
				c0.333-0.69,0.812-1.325,1.304-1.921c1.221-1.477,2.486-2.918,3.735-4.371c0.664-0.773,1.37-1.513,1.991-2.318
				c1.136-1.474,2.26-2.832,4.025-3.753c2.814-1.469,5.545-3.044,8.638-3.903c1.7-0.472,3.34-1.151,5.021-1.695
				c2.164-0.7,4.334-1.385,6.515-2.029c2.012-0.595,4.055-1.086,6.061-1.7c1.734-0.531,3.474-1.076,5.137-1.786
				c1.703-0.727,3.324-1.649,4.966-2.514c1.24-0.653,2.457-1.348,3.685-2.024c0.128-0.07,0.258-0.191,0.388-0.193
				c1.313-0.021,2.173-1.086,3.362-1.465c0.728-0.232,1.367-1.044,2.139-1.499c0.702-0.414,1.635-0.443,2.117-1.228
				c0.018-0.029,0.094-0.017,0.138-0.036c0.331-0.142,0.677-0.26,0.989-0.436c1.108-0.626,2.197-1.283,3.306-1.907
				c1.199-0.675,2.411-1.327,3.619-1.987c4.4-2.403,8.514-5.247,12.594-8.142c1.485-1.054,2.424-2.436,2.496-4.305
				C230.38,139.887,230.116,138.769,229.632,137.686z"/>
			<path fill="#D70012" d="M152.932,166.259c0.61-0.204,1.163-0.385,1.685-0.585c0.237-0.091,0.475-0.175,0.704-0.276
				c0.219-0.154,0.428-0.316,0.652-0.465c0.019-0.013,0.037-0.016,0.056-0.028c0.07-0.075,0.144-0.141,0.206-0.235
				c0.187-0.289,0.756-0.333,0.979-0.42c0.039,0.044,0.068,0.077,0.105,0.119c0.319-0.212,0.637-0.425,0.956-0.637
				c-0.093-0.12-0.185-0.24-0.284-0.368c0.441-0.473,0.522-0.546,0.883-0.031c0.2-0.133,0.4-0.266,0.599-0.4
				c0.536-0.357,1.097-0.379,1.592-0.2c0.138-0.154,0.32-0.285,0.593-0.362c0.178-0.05,0.33-0.056,0.468-0.036
				c0.103-0.199,0.236-0.397,0.435-0.584c0.182-0.171,0.374-0.326,0.558-0.493c0.103-0.115,0.219-0.224,0.354-0.325
				c0.025-0.019,0.051-0.036,0.076-0.055c0.967-0.854,1.968-1.653,2.99-2.422c0.054-0.306,0.181-0.603-0.192-0.849
				c-0.04-0.026,0.07-0.467,0.2-0.529c0.579-0.278,1.191-0.488,1.92-0.773c0.023-0.345,0.001-0.987,0.887-0.989l-0.06-0.242
				c-0.237,0-0.513-0.079-0.705,0.014c-0.786,0.383-1.57,0.779-2.31,1.242c-2.139,1.336-4.348,2.587-6.353,4.103
				c-1.536,1.162-3.053,2.294-4.768,3.191c-0.774,0.405-1.403,1.105-2.047,1.724c-0.182,0.175-0.305,0.432-0.439,0.711
				C152.768,166.115,152.848,166.189,152.932,166.259z"/>
			<path fill="#D70012" d="M92.246,17.92c0.332,0.063,0.666,0.205,0.979,0.448c0.983,0.763,1.652,1.518,2.252,2.485
				c0.417,0.121,0.795,0.407,1.048,0.905c0.135,0.265,0.244,0.538,0.368,0.806c0.06-0.012,0.12-0.014,0.18-0.021
				c-1.356-2.206-3.285-4.038-5.519-5.417C91.791,17.387,92.028,17.648,92.246,17.92z"/>
			<path fill="#D70012" d="M107.533,59.27c0.565-1.205,1.253-2.396,1.547-3.672c0.439-1.905,0.615-3.874,0.83-5.824
				c0.056-0.505-0.162-1.04-0.254-1.561c-0.062,0.01-0.124,0.021-0.185,0.031l-0.155,2.899c-0.065-0.01-0.129-0.019-0.194-0.029
				c-0.193-1.007-0.408-2.011-0.569-3.024c-0.065-0.408-0.044-0.858,0.648-0.731c-0.395-0.803-0.795-1.479-1.635-1.769
				c-0.166-0.057-0.391-0.213-0.419-0.356c-0.143-0.747-0.241-1.504-0.338-2.259c-0.197-1.537-0.376-3.077-0.576-4.614
				c-0.174-1.335-0.297-2.682-0.572-3.997c-0.301-1.435-0.724-2.848-1.151-4.253c-0.157-0.519-0.545-0.954-0.266-1.569
				c0.087-0.191-0.091-0.504-0.154-0.76c-0.088-0.359-0.187-0.716-0.273-1.075c-0.167-0.7-0.198-1.473-0.532-2.081
				c-0.274-0.499-0.744-0.858-0.395-1.494c-0.259-0.096-0.452-0.167-0.646-0.239c0.036-0.224,0.145-0.54,0.083-0.578
				c-0.671-0.413-0.391-1.59-1.397-1.724c-0.025-0.003-0.019-0.211-0.033-0.323c-0.123-0.976-0.334-1.888-1.114-2.616
				c-0.553-0.516-0.998-1.152-1.457-1.76c-1.121-1.486-2.591-2.348-4.433-2.672c-1.704-0.3-3.519-0.169-5.052-1.197
				c-0.07-0.047-0.215-0.073-0.273-0.033c-0.604,0.413-1.156-0.049-1.607-0.233c-1.325-0.541-2.708-0.22-4.04-0.467
				c-0.108-0.02-0.234,0.08-0.351,0.08c-0.213,0-0.455,0.026-0.634-0.063c-1.147-0.571-2.343-0.036-3.505-0.181
				c-0.038-0.005-0.096,0.036-0.123,0.072c-0.534,0.693-1.264,0.472-1.944,0.393c-1.182-0.137-2.303,0.002-3.401,0.486
				c-1.743,0.768-3.497,1.513-5.267,2.217c-1.337,0.531-2.598,1.145-3.629,2.187c-0.328,0.331-0.824,0.493-1.228,0.755
				c-0.663,0.431-1.428,0.778-1.942,1.346c-0.741,0.819-1.282,1.815-1.934,2.717c-0.69,0.956-1.411,1.89-2.116,2.834
				c-0.549,0.735-1.295,1.397-1.603,2.221c-0.741,1.982-1.575,4.006-1.814,6.077c-0.263,2.269,0.07,4.611,0.203,6.917
				c0.057,0.994,0.28,1.977,0.397,2.969c0.095,0.804,0.076,1.627,0.232,2.417c0.213,1.081,0.703,2.046,1.535,2.82
				c0.599,0.557,1.171,1.144,1.737,1.734c0.098,0.103,0.183,0.313,0.146,0.435c-0.241,0.795,0.388,1.364,0.514,2.062
				c0.056,0.308,0.146,0.72,0.367,0.868c0.589,0.393,0.737,0.985,0.936,1.574c0.594,1.762,0.426,3.594,0.529,5.404
				c0.036,0.625,0.076,1.415,0.451,1.822c0.806,0.877,1.296,1.804,1.495,2.97c0.141,0.827,0.402,1.666,0.78,2.414
				c0.755,1.496,1.628,2.933,2.536,4.543c1.162-1.947,2.208-3.7,3.254-5.453c-0.048-0.034-0.096-0.068-0.143-0.102
				c-0.156,0.214-0.312,0.427-0.353,0.483c-0.292-0.032-0.511-0.056-0.704-0.078c0.123,0.23,0.088,0.551-0.177,0.752
				c-0.042,0.023-0.071,0.057-0.087,0.103c-0.066,0.156-0.172,0.239-0.289,0.272c-0.101,0.273-0.224,0.538-0.353,0.798
				c-0.205,0.415-0.663,0.324-0.884,0.038c-0.282,0.009-0.571-0.166-0.571-0.53v-0.214c-0.012-0.238-0.047-0.473-0.079-0.708
				c-0.937-0.893-1.55-2.011-2.041-3.21c-0.096-0.235-0.018-0.419,0.129-0.533c-0.309-1.133-0.549-2.23-0.584-3.379
				c-0.188-0.434-0.367-0.871-0.559-1.304c-0.133-0.301-0.027-0.559,0.162-0.7c0.009-0.023,0.012-0.049,0.025-0.07
				c-0.031-0.065-0.063-0.131-0.093-0.197c-0.033-0.032-0.068-0.06-0.094-0.103c-0.2-0.323-0.32-0.565-0.289-0.896
				c-0.007-0.056-0.007-0.108,0.004-0.157c-0.086-0.394-0.152-0.794-0.196-1.209c-0.001-0.003-0.002-0.006-0.003-0.01l0.001,0
				c-0.005-0.05-0.016-0.096-0.021-0.146c-0.057-0.627,0.937-0.742,1.083-0.147c0.149,0.606,0.345,1.194,0.553,1.778
				c0.102,0.04,0.193,0.108,0.247,0.229c0.02,0.044,0.032,0.089,0.052,0.133c0.001-0.001,0.003-0.001,0.004-0.002
				c0.116,0.277,0.241,0.55,0.366,0.823c0.013,0.021,0.027,0.041,0.04,0.061c0.167-0.064,0.359-0.035,0.521,0.156
				c0.031,0.037,0.056,0.075,0.086,0.112c0,0,0,0,0,0l0,0.001c0.324,0.398,0.586,0.808,0.822,1.24
				c0.01,0.016,0.024,0.025,0.033,0.043l0.098,0.196c0.061,0.117,0.121,0.239,0.181,0.36c0.132,0.171,0.264,0.343,0.396,0.515
				c-0.258-0.758-0.514-1.518-0.758-2.281c-0.086-0.268-0.123-0.552-0.182-0.828c0.111-0.028,0.222-0.057,0.334-0.085
				c0.328,0.833,0.621,1.683,1,2.492c0.149,0.319,0.448,0.657,0.76,0.777c0.166,0.064,0.638-0.265,0.74-0.512
				c0.283-0.681,0.494-1.402,0.639-2.127c0.144-0.719,0.141-1.573,0.863-1.908c1.067-0.495,1.132-1.277,0.941-2.219
				c-0.35-1.731-0.699-3.462-1.083-5.185c-0.097-0.436-0.324-0.844-0.541-1.39c-0.459,0.489-1.124,0.512-0.843,1.285
				c0.299,0.823,0.511,1.684,0.68,2.545c0.052,0.266-0.159,0.584-0.25,0.878c-0.073-0.005-0.146-0.009-0.22-0.013
				c-0.293-0.627-0.586-1.253-0.879-1.88c-0.073,0.014-0.145,0.027-0.217,0.041c-0.062,0.614-0.204,1.233-0.17,1.842
				c0.062,1.135-0.362,2.247-0.094,3.404c0.049,0.213-0.489,0.777-0.791,0.806c-0.481,0.046-0.735-0.422-0.665-0.922
				c0.07-0.502,0.154-1.01,0.314-1.488c0.214-0.641-0.049-1.132-0.362-1.643c-0.091,0.21-0.06,0.416-0.101,0.608
				c-0.034,0.158-0.134,0.409-0.237,0.426c-0.511,0.083-0.358,0.403-0.329,0.715c0.029,0.31,0.006,0.626,0.006,0.939l-0.276-0.004
				c-0.16-0.907-0.946-1.776-0.033-2.752c0.093-0.099,0.052-0.316,0.09-0.475c0.135-0.563,0.281-1.123,0.414-1.687
				c0.031-0.133,0.08-0.299,0.029-0.407c-0.333-0.712-0.5-1.504-1.235-2.006c-0.496-0.339-0.898-0.839-0.937-1.482
				c0.07-0.049,0.139-0.097,0.209-0.146c0.262,0.336,0.524,0.671,0.786,1.007c-0.091-0.533-0.32-0.994-0.55-1.454
				c-0.197-0.392-0.359-0.771,0.331-0.879c-0.339-0.562-0.57-1.121-0.954-1.541c-0.592-0.648-0.629-1.836-1.822-1.858
				c0.047-1.151,0.992-1.721,2.064-1.261c0.983,0.421,1.648,1.184,2.106,2.129c0.381,0.785,0.727,1.588,1.123,2.366
				c0.096,0.188,0.304,0.356,0.501,0.447c0.364,0.169,0.757,0.275,1.215,0.434c0.089-0.099,0.267-0.24,0.372-0.422
				c0.348-0.608,0.81-0.452,1.223-0.151c0.897,0.654,1.488,1.526,1.918,2.564c0.363,0.876,1.011,1.633,1.391,2.504
				c0.542,1.245,1.874,2.162,1.6,3.751c-0.015,0.085,0.019,0.222,0.08,0.269c0.62,0.474,0.946,1.109,1.234,1.828
				c0.26,0.648,0.768,1.198,1.04,1.602c0.439,0.302,0.727,0.5,1.095,0.753c2.125-1.037,4.285-2.189,5.655-4.402
				c0.048,0.147,0.087,0.27,0.127,0.392c0.048,0.002,0.095,0.003,0.143,0.005c0.081-0.483,0.163-0.966,0.267-1.583
				c0.252,0.107,0.5,0.212,0.778,0.33c0.784-0.473,1.649-0.994,2.634-1.588c0.158,0.482,0.311,0.95,0.505,1.545
				c0.321-0.503,0.564-0.884,0.757-1.186c0.304,0.073,0.606,0.247,0.843,0.182c0.538-0.146,1.044-0.409,1.565-0.625
				c0.169,0.481,0.321,0.912,0.474,1.348c0.142-0.167,0.284-0.332,0.488-0.571c0.126,0.306,0.209,0.509,0.322,0.784
				c0.224-0.262,0.398-0.463,0.583-0.68c0.291,0.385,0.486,0.927,0.814,1.025c1.13,0.336,2.307,0.517,3.467,0.756
				c0.047,0.01,0.116,0.031,0.143,0.009c0.629-0.518,1.384-0.16,2.066-0.3c0.071-0.015,0.14-0.044,0.211-0.049
				c0.943-0.075,1.885-0.161,2.828-0.21c0.194-0.01,0.466,0.063,0.582,0.199c0.746,0.883,1.565,1.732,2.146,2.717
				c0.446,0.758,0.432,1.785,0.88,2.541c0.93,1.567,2.028,3.034,3.069,4.534c0.071,0.103,0.247,0.134,0.502,0.263
				c-0.611-1.012-1.129-1.888-1.667-2.75C107.339,60.032,107.332,59.699,107.533,59.27z M105.562,54.615
				c-0.061-1.803-0.865-2.739-2.006-3.247c-0.414-0.01-0.821-0.129-1.147-0.363c-0.819-0.175-1.72-0.236-2.61-0.285
				c-0.188,0.282-0.521,0.486-0.901,0.414c-1.043-0.196-0.95-0.185-1.909-0.725c-0.065-0.037-0.106-0.083-0.155-0.127
				c-0.211,0.022-0.439-0.035-0.655-0.216c-0.885-0.282-1.77-0.564-2.656-0.847c-0.198,0.059-0.411,0.048-0.599-0.093
				c-0.054-0.04-0.108-0.081-0.161-0.121c-0.024-0.003-0.044-0.006-0.069-0.009c-0.336-0.046-0.505-0.236-0.565-0.466
				c-0.044-0.033-0.088-0.066-0.132-0.099c-0.153-0.005-0.307-0.013-0.457-0.062c-0.191-0.075-0.384-0.138-0.58-0.191
				c-1.593,0.204-3.185,0.418-4.782,0.595c-0.028,0.127-0.105,0.245-0.258,0.328c-2.031,1.097-4.61,5.513-7.342,5.337
				c-0.119,0.077-0.24,0.144-0.359,0.225c-0.372,0.251-0.723-0.034-0.791-0.379c-0.45,0.223-1.002-0.048-1.142-0.519
				c-0.043-0.146-0.08-0.272-0.113-0.39c-0.149-0.096-0.268-0.246-0.315-0.466c-0.021-0.097-0.042-0.195-0.063-0.292
				c-1.789-1.979-3.376-4.835-4.09-7.36c-0.427-0.489-0.842-0.986-1.255-1.484c-0.04-0.028-0.079-0.059-0.117-0.094
				c-0.638-0.423-1.291-0.832-1.897-1.272c-0.416,0.057-0.832,0.115-1.248,0.172c-0.448,0.429-1.215,0.244-1.384-0.365
				c-0.235-0.845-0.29-0.986-0.275-1.499c-0.026-0.181-0.052-0.363-0.078-0.544c-0.161-0.06-0.309-0.167-0.419-0.326
				c-0.171-0.19-0.341-0.379-0.512-0.569c-0.074-0.031-0.148-0.064-0.214-0.119c-0.455-0.122-0.662-0.318-0.634-0.584
				c-0.2-0.087-0.388-0.194-0.554-0.34c-0.057-0.041-0.105-0.09-0.15-0.142c-0.205-0.116-0.42-0.213-0.635-0.31
				c-0.069-0.025-0.147-0.049-0.212-0.076c-0.877,0.531-1.689,1.151-2.42,1.88c-0.147,0.135-0.307,0.186-0.466,0.204
				c-0.035,0.027-0.074,0.053-0.109,0.081c0.279,1.104,0.525,2.214,0.749,3.329c0.011,0.027,0.03,0.043,0.039,0.073
				c0.246,0.769,0.487,1.539,0.729,2.309c0.013,0.023,0.032,0.035,0.043,0.06c0.031,0.07,0.049,0.131,0.078,0.2
				c0.002-0.001,0.004-0.002,0.005-0.002l0.017,0.061c0.284,0.682,0.472,1.301,0.572,1.933c0.05,0.104,0.082,0.224,0.082,0.365
				v0.306c0.23,0.672,0.436,1.352,0.612,2.04c0.151,0.54-0.197,0.902-0.612,0.99v0.086c0,1.098-1.528,1.028-1.656,0
				c-0.162-0.902-0.224-1.811-0.209-2.725c-0.149-0.265-0.299-0.53-0.445-0.795c-0.322,0.107-0.7,0.039-0.945-0.339
				c-0.122-0.17-0.225-0.35-0.339-0.524c-0.249-0.063-0.48-0.224-0.6-0.529c-0.186-0.504-0.372-1.009-0.558-1.513
				c-0.004-0.008-0.003-0.015-0.007-0.023c-0.186-0.547-0.356-1.1-0.505-1.672c-0.002-0.007,0-0.015-0.001-0.022
				c-0.285-0.891-0.519-1.753-0.683-2.623c-3.659-5.349,0.218-12.928,3.692-17.458c2.853-3.72,6.781-6.626,11.154-8.472
				c0.112-0.057,0.223-0.116,0.338-0.169c0.042-0.019,0.081-0.022,0.122-0.029c0.041-0.016,0.083-0.03,0.124-0.046
				c0.833-0.37,1.674-0.722,2.519-1.077c0.224-0.094,0.426-0.056,0.595,0.046c1.743-0.472,3.524-0.786,5.313-0.912
				c7.339-0.518,16.261,2.595,19.65,9.751c1.846,3.897,2.093,8.193,3.928,12.13c1.553,3.331,2.669,6.392,2.224,10.007
				c1.693,3.53,1.892,5.971,2.066,9.991C107.254,55.685,105.608,55.678,105.562,54.615z"/>
			<path fill="#D70012" d="M99.017,71.116c-0.862,0.69-1.853,0.858-2.902,0.628c-0.637-0.139-1.217-0.502-1.798-0.731
				c-1.036-0.408-2.248-0.41-3.393-0.494c-0.883-0.065-1.843,0.218-2.65-0.033c-1.348-0.419-2.57,0.367-3.859,0.133
				c-0.089-0.016-0.212,0.105-0.308,0.178c-1.238,0.936-2.718,1.029-4.178,1.198c-1.006,0.116-2.103,0.051-2.984,0.45
				c-0.719,0.326-1.434,0.532-2.104,0.419c-1.083-0.181-1.764,0.363-2.63,0.904c0.403,0.211,0.697,0.364,1.111,0.579
				c-0.375,0.182-0.594,0.288-0.866,0.42c0.082,0.018,0.15,0.032,0.219,0.046c0.358-0.101,0.716-0.193,1.075-0.265
				c0.079-0.075,0.165-0.159,0.271-0.265c1.477-1.48,3.237-1.516,4.431-0.055c0.231,0.282,0.319,0.68,0.473,1.025
				c-0.289,0.122-0.571,0.289-0.864,0.378c0.558,0.613,0.947,1.414,1.081,2.236c0.387-0.437,0.661-0.933,0.555-1.608
				c-0.029-0.186,0.155-0.45,0.31-0.613c1.942-2.038,4.424-3.041,7.149-3.202c2.458-0.146,4.954-0.216,7.382,0.551
				c1.161,0.367,2.372,0.176,3.506-0.271C98.871,72.397,99.167,71.859,99.017,71.116z"/>
			<path fill="#D70012" d="M67.016,82.69c-0.399-0.194-0.58-0.512-0.625-0.852c-0.331-0.282-0.575-0.678-0.602-1.205
				c-0.034-0.674-0.078-1.347-0.11-1.891c-0.471-0.727-0.897-1.386-1.319-2.039c0.167-0.122,0.28-0.205,0.409-0.3
				c-0.846-0.646-1.212-0.563-1.461,0.341c-0.117,0.426-0.109,0.886-0.156,1.331c-0.043,0.408-0.021,0.836-0.141,1.22
				c-0.127,0.409-0.349,0.783-0.94,0.674c-0.202-0.037-0.467,0.138-0.67,0.267c-0.38,0.242-0.735,0.522-1.154,0.826
				c0.036,0.075,0.095,0.198,0.162,0.337c0.059-0.026,0.114-0.06,0.174-0.086c0.005-0.005,0.012-0.008,0.017-0.013
				c0.001,0.002,0.001,0.003,0.002,0.005c0.103-0.044,0.203-0.094,0.309-0.136c0.246-0.098,0.465-0.115,0.657-0.082
				c0.587-0.29,1.106-0.322,1.817-0.161c-0.201,0.587,0.359,1.37-0.382,1.792c-0.218,0.124-0.454,0.218-0.69,0.313
				c-0.089,0.196-0.219,0.375-0.4,0.514c-0.359,0.275-0.726,0.455-1.166,0.559c-0.021,0.005-0.039,0.004-0.059,0.008
				c-0.522,0.28-1.06,0.612-1.609,0.951c-0.034,0.541-0.47,0.952-0.762,1.421c0.388-0.079,0.715-0.218,1.047-0.346
				c0.929-0.358,1.838-0.794,2.795-1.048c1.973-0.524,3.974-0.947,5.96-1.423c0.223-0.053,0.541-0.13,0.619-0.29
				c0.018-0.037,0.034-0.075,0.052-0.112C68.147,83.133,67.544,82.946,67.016,82.69z"/>
			<path fill="#D70012" d="M172.187,83.284c0.261,0.141,0.385,0.553,0.546,0.854c0.147,0.275,0.26,0.585,0.388,0.878
				c1.5,1.058,2.971,2.152,4.322,3.474c0.537,0.326,1.079,0.644,1.612,0.977c0.092,0.058,0.186,0.12,0.28,0.182
				c0.398,0.248,0.789,0.496,1.146,0.733c0.165,0.11,0.341,0.227,0.513,0.341c0.346,0.083,0.692,0.164,0.966,0.394
				c0.013,0.011,0.108-0.075,0.144-0.1c-3.517-3.272-6.435-7.196-10.763-9.662C171.011,82.684,171.027,82.656,172.187,83.284z"/>
			<path fill="#D70012" d="M93.614,67.154c1.349,0.514,2.702,1.015,4.044,1.544c1.503,0.592,2.897,0.67,3.97-0.822
				c0.375,0.598,0.315,0.994-0.156,1.437c-0.816,0.767-2.303,0.937-3.266,0.377c-0.168-0.097-0.341-0.185-0.512-0.276
				c-1.373-0.726-2.746-1.451-4.119-2.176C93.589,67.21,93.602,67.182,93.614,67.154z"/>
			<path fill="#D70012" d="M27.103,102.404c-0.11-0.056-0.261-0.034-0.416-0.049v-0.702c-0.534,0.391-1.021,0.749-1.659,1.217
				c0.095-0.49,0.164-0.848,0.244-1.258c-0.111,0.034-0.222,0.067-0.333,0.099c-0.05,0.039-0.101,0.08-0.152,0.111
				c-0.84,0.523-1.233,1.623-2.33,1.814c0.249,0.034,0.502,0.119,0.74,0.087c0.933-0.126,1.86-0.288,2.789-0.445
				c0.382-0.064,0.767-0.126,1.137-0.236c0.129-0.039,0.294-0.215,0.299-0.335C27.426,102.608,27.235,102.471,27.103,102.404z"/>
			<path fill="#D70012" d="M98.518,65.504c0.555-0.439,0.904-0.716,1.47-1.163c-0.08,0.574-0.136,0.976-0.193,1.378
				C99.432,65.658,99.07,65.597,98.518,65.504z"/>
			<path fill="#D70012" d="M92.293,59.874c0.369-0.255,0.738-0.509,1.107-0.764c0.068,0.007,0.137,0.014,0.205,0.022
				c-0.069,0.352-0.026,0.873-0.236,1.011c-0.239,0.157-0.705-0.029-1.072-0.065C92.295,60.01,92.294,59.942,92.293,59.874z"/>
			<path fill="#D70012" d="M62.648,75.474c0.418-0.67,0.836-1.339,1.254-2.009c0.065,0.037,0.129,0.074,0.194,0.11
				c-0.388,0.686-0.777,1.371-1.165,2.057C62.836,75.58,62.742,75.527,62.648,75.474z"/>
			<path fill="#D70012" d="M184.451,92.387c-0.575-0.311-1.149-0.623-1.724-0.934c0.028-0.051,0.055-0.101,0.083-0.152
				c0.572,0.311,1.143,0.622,1.715,0.933C184.5,92.285,184.476,92.336,184.451,92.387z"/>
			<path fill="#FFFFFF" d="M205.5,134.156c-0.001,0.007-0.002,0.013-0.003,0.02c0.182,0.02,0.36,0.026,0.544,0.052
				c0.442,0.062,0.775,0.246,1.012,0.502c0.162,0.027,0.324,0.054,0.487,0.081c0.02-0.011,0.062-0.006,0.138,0.023l0.015,0.003
				c0.454-0.384,0.988-0.594,1.551-0.786c0.065-0.022,0.094-0.15,0.207-0.344c-0.339-0.063-0.618-0.191-0.867-0.149
				c-1.033,0.177-2.06,0.39-3.087,0.598H205.5z"/>
			<path fill="#FFFFFF" d="M109.869,206.124c0.558-0.181,1.122-0.336,1.694-0.454c0.132-0.069,0.264-0.133,0.397-0.204
				c0.337-0.18,0.662-0.225,0.966-0.191c0.961-0.338,1.92-0.69,2.881-1.058c-0.49-0.558-1.188-0.917-2.088-1.067
				c-0.47-0.078-1-0.047-1.455,0.092c-0.408,0.124-0.813,0.204-1.197,0.176c0.132,0.354,0.12,0.765-0.119,1.189
				C110.495,205.406,110.327,205.679,109.869,206.124z"/>
			<path fill="#D70012" d="M178.799,149.043c-0.039,0.096-0.071,0.175-0.101,0.247c0.491-0.391,0.988-0.775,1.487-1.153
				c0.072-0.401,0.208-0.701,0.785-0.663c0.058,0.004,0.118-0.025,0.178-0.052c0.086-0.062,0.174-0.123,0.26-0.184
				c-0.013-0.028-0.026-0.057-0.04-0.085c-0.264,0.045-0.527,0.09-0.791,0.136c-0.024-0.049-0.047-0.097-0.071-0.146l1.814-1.468
				c-0.112-0.02-0.251-0.075-0.308-0.028c-1.52,1.222-3.03,2.456-4.538,3.693c-0.016,0.013,0.016,0.086,0.047,0.225
				C177.909,149.407,178.281,149.254,178.799,149.043z"/>
		</g>
		<path fill="#EB0020" d="M72,65.691c-1.186,0.043-2.184,0.322-3.058,0.759c-0.182-0.251-0.63-0.348-0.874-0.012
			c-0.352,0.485-0.7,0.925-1.028,1.362c-1.516,1.419-2.658,3.339-3.969,5.111c-0.642,0.642-1.283,1.284-1.925,1.925
			c-0.134,0.135-0.163,0.285-0.135,0.424c-0.395,0.362-0.807,0.704-1.264,0.998c-0.107,0.069-0.164,0.161-0.196,0.257
			c-1.698,0.895-3.454,1.675-5.177,2.504c-0.294,0.072-0.587,0.137-0.874,0.171c-0.292,0.034-0.444,0.265-0.468,0.497
			c-1.69,0.869-3.308,1.86-4.773,3.122c-5.487,3.006-11.455,5.273-16.263,9.321c-0.082,0.044-0.167,0.084-0.249,0.128
			c-0.106,0.057-0.173,0.151-0.207,0.257c-0.282,0.248-0.56,0.503-0.833,0.765c-1.488,0.866-3.04,1.672-4.623,2.401
			c-0.065-0.007-0.138,0.001-0.216,0.026c-4.464,1.456-9.036,2.544-13.5,4c-0.541,0.176-0.437,0.957,0.133,0.982
			c0.114,0.005,0.227,0.002,0.34,0.005c0.131-0.904,1.589-1.183,1.842-0.129c-0.244-1.014,16.363-5.87,17.512-6.474
			c5.162-2.712,9.908-6.106,15.333-8.306c0.192-0.078,0.366-0.068,0.524-0.02c0.041-0.031,0.083-0.058,0.123-0.091
			c0.026-0.018,0.052-0.036,0.078-0.053L48.25,85.62c0.034-0.028,0.07-0.047,0.103-0.076c0.253-0.216,0.159-0.553-0.054-0.735
			c0.25-0.143,0.502-0.283,0.751-0.429c0.103,0.232,0.372,0.35,0.612,0.27c-0.04,0.21-0.073,0.422-0.104,0.634
			c-0.131,0.186-0.259,0.374-0.412,0.552c-0.091,0.107-0.122,0.248-0.113,0.386c0.229,0.082,0.381,0.262,0.455,0.479
			c0.046-0.003,0.093-0.009,0.144-0.029c0.081-0.032,0.145-0.089,0.221-0.129c0,0,0,0,0,0c0,0,0,0,0,0
			c0.282-0.148,0.533-0.337,0.758-0.56c0.079,0.106,0.198,0.176,0.332,0.195c-0.758-0.336-1.188-1.388-0.447-2.11
			c2.031-1.978,4.492-3.471,6.417-5.562c0.492-0.534,1.113-0.492,1.569-0.174c0.927-0.506,1.835-1.043,2.68-1.557
			c0.367-0.21,0.732-0.426,1.089-0.655c0.334-0.214,0.275-0.618,0.049-0.819c0.284-0.319,0.56-0.648,0.825-0.993
			c0.002-0.003,0.005-0.005,0.007-0.008c-0.016,0.039-0.036,0.074-0.052,0.113c-0.005,0.007-0.009,0.014-0.014,0.022
			c0.001,0,0.002,0.001,0.003,0.001c-0.016,0.041-0.038,0.077-0.054,0.118c-0.211,0.557,0.616,0.833,0.914,0.385
			c0.832-1.25,1.608-2.523,2.339-3.827c0.063-0.04,0.12-0.092,0.161-0.173c0.095-0.19,0.19-0.38,0.285-0.569
			c1.521-1.573,3.19-2.954,5.416-3.701C72.65,66.5,72.587,65.67,72,65.691z M40.228,88.238c-0.348,0.164-0.697,0.326-1.047,0.487
			c-0.069-0.034-0.143-0.051-0.221-0.043c0.679-0.371,1.366-0.732,2.057-1.085C40.752,87.807,40.492,88.025,40.228,88.238z"/>
		<path fill="#EB0020" d="M30.5,101.191c-1.211-0.01-2.443-0.056-3.677-0.087c-1.114,0.394-2.221,0.727-3.331,0.994
			c0.818-0.028,1.639-0.038,2.463-0.021c-0.435,0.088-0.871,0.176-1.309,0.245c-0.095,0.008-0.191,0.015-0.286,0.024
			c-0.081-0.092-0.2-0.153-0.359-0.153h-0.889c-1.906,0.43-3.826,0.656-5.819,0.62c-0.301,0.176-0.602,0.348-0.906,0.537
			c-0.468,0.291-0.911,0.117-1.169-0.219c-0.328,0.193-0.651,0.4-0.969,0.629c-0.353,0.255-0.295,0.997,0.252,0.932
			c2.303-0.275,4.593-0.679,6.891-1H25.5c0.308,0,0.464-0.223,0.478-0.458c0.34-0.016,0.681-0.036,1.022-0.042
			c0.125-0.002,0.218-0.049,0.295-0.111c0.965-0.16,1.895-0.438,2.83-0.742c0.075-0.175,0.162-0.348,0.28-0.515
			c0.148-0.21,0.368-0.268,0.57-0.232C30.938,101.38,30.778,101.193,30.5,101.191z M17.035,103.343
			c0.492-0.211,0.991-0.396,1.499-0.545c0.022,0.116,0.081,0.218,0.175,0.291C18.152,103.175,17.594,103.26,17.035,103.343z"/>
		<path fill="#EB0020" d="M63.248,84.76c-0.114,0.066-0.23,0.12-0.346,0.172c-0.018-0.031-0.024-0.064-0.048-0.093l-0.083-0.102
			c-0.102-0.125-0.336-0.186-0.486-0.129c-0.359,0.137-0.671,0.355-0.963,0.602c-1.069,0.083-2.112,0.3-3.174,0.418
			c-1.84,1.084-3.778,1.947-5.676,0.913c-0.014-0.008-0.024-0.018-0.038-0.026c-0.998,0.173-1.977,0.432-2.936,0.815
			c-0.099,0.371-0.381,0.701-0.862,0.748c-0.316,0.03-0.629,0.083-0.94,0.144c-0.523,0.319-1.04,0.687-1.549,1.117c0,0,0,0,0,0
			c-1.203,0.641-2.379,1.318-3.513,2.05c-1.432,0.868-2.905,1.841-4.004,2.76c-0.152,0.165-0.301,0.331-0.447,0.495
			c-0.116,0.131-0.242,0.206-0.371,0.252c-0.339,0.348-0.606,0.682-0.76,0.989c-0.306,0.312-0.612,0.623-0.905,0.952
			c-0.427,0.48,0.277,1.19,0.707,0.707c0.132-0.148,0.272-0.284,0.406-0.428c0.424,0.238,0.932-0.281,0.655-0.69
			c0.601-0.601,1.229-1.164,1.875-1.704c1.576-1.091,3.806-2.515,5.518-3.589c0.135,0.066,0.293,0.081,0.444-0.012
			c1.214-0.746,2.489-1.281,3.819-1.751c1.995-0.554,3.991-1.09,6.031-1.405c0.09,0.131,0.229,0.227,0.398,0.224
			c2.277-0.037,4.164-0.502,6.093-1.451c0.132-0.016,0.264-0.031,0.396-0.049H62.5l0-0.001c0.044-0.006,0.089-0.01,0.133-0.017
			c0.237-0.035,0.342-0.211,0.353-0.404c0.089-0.05,0.177-0.094,0.266-0.147c0.131-0.077,0.2-0.211,0.221-0.353
			c0.093-0.048,0.185-0.086,0.279-0.147C64.294,85.277,63.793,84.412,63.248,84.76z"/>
		<path fill="#EB0020" d="M110.948,204.607c-0.452,0.8-0.62,1.072-1.079,1.517c0.558-0.181,1.122-0.336,1.694-0.454
			c0.132-0.069,0.264-0.133,0.397-0.204c0.339-0.181,0.667-0.225,0.972-0.19c1.088-0.382,2.174-0.788,3.262-1.208
			c-0.082-0.025-0.162-0.055-0.244-0.078c-0.037-0.085-0.094-0.167-0.197-0.23c-1.24-0.766-2.465-1.219-3.816-1.432
			c-0.087,0.014-0.176,0.02-0.269,0.013l-0.799,0.71C111.184,203.469,111.275,204.028,110.948,204.607z"/>
		<path fill="#EB0020" d="M175.473,109.21c-0.02-0.471-0.687-0.781-0.905-0.271c-0.12,0.28-0.212,0.568-0.29,0.859
			c-0.231-0.163-0.577-0.166-0.71,0.141c-0.117,0.27-0.211,0.549-0.298,0.83c-0.195,0.089-0.333,0.283-0.252,0.555
			c0.015,0.05,0.024,0.1,0.038,0.15c-0.079,0.258-0.164,0.514-0.265,0.762c-0.052,0.024-0.102,0.055-0.144,0.102
			c-0.334,0.367-0.526,0.738-0.629,1.221c-0.051,0.241,0.091,0.473,0.286,0.582c-0.127,0.68-0.27,1.357-0.304,2.051
			c-0.026,0.524,0.674,0.645,0.932,0.252c0.219-0.335,0.421-0.673,0.617-1.013C173.553,113.169,174.135,110.799,175.473,109.21z"/>
		<path fill="#EB0020" d="M181.866,122.878c-0.105-0.104-0.208-0.211-0.313-0.314c-0.042-0.038-0.083-0.076-0.125-0.114
			c0.002-0.002,0.003-0.005,0.004-0.007c-0.068-0.068-0.138-0.133-0.203-0.204c-0.202-0.22-0.254-0.523-0.21-0.811
			c-0.807-1.016-1.643-2.007-2.475-3.001c-0.367-0.506-0.757-0.994-1.163-1.471c-0.547,0.064-1.101,0.103-1.623,0.253
			c0.282,0.455,0.584,0.894,0.908,1.316c0.504-0.211,1.04,0.191,1.228,0.654c0.455,0.773,0.91,1.546,1.366,2.319
			c0.862,0.488,1.717,0.987,2.579,1.475C181.85,122.941,181.85,122.906,181.866,122.878z"/>
		<path fill="#EB0020" d="M168.646,155.838c-0.065,0.052-0.13,0.106-0.195,0.158c-0.112-0.203-0.362-0.342-0.607-0.269
			c0.195-0.261,0.4-0.516,0.588-0.783c0.334-0.476-0.392-0.996-0.785-0.606c-4.313,4.269-9.051,8.186-14.779,10.371
			c-0.486,0.185-0.468,1.051,0.133,0.982c0.012-0.001,0.022-0.005,0.034-0.006c-0.032,0.272,0.117,0.547,0.466,0.506
			c6.463-0.755,11.011-5.815,15.854-9.646C169.859,156.145,169.146,155.442,168.646,155.838z M164.49,158.753
			c-2.436,2.258-5.026,4.483-8.033,5.664c0.044-0.089,0.058-0.185,0.036-0.281c2.883-1.505,5.524-3.401,7.997-5.522
			C164.48,158.662,164.484,158.708,164.49,158.753z"/>
		<path fill="#EB0020" d="M207.646,150.338c-1.293,1.227-2.729,2.274-4.115,3.384c-1.255,0.691-2.508,1.384-3.784,2.037
			c-0.21,0.108-0.272,0.356-0.22,0.569c0.06,0.079,0.109,0.16,0.144,0.252c0.082,0.08,0.192,0.128,0.328,0.111
			c0.078-0.01,0.143-0.031,0.217-0.044c-0.161,0.078-0.319,0.143-0.48,0.22c0.009,0.225-0.065,0.458-0.269,0.666
			c-0.391,0.396-0.836,0.764-1.302,1.12c0.927-0.419,1.863-0.854,2.808-1.326c2.161-1.413,4.25-3.071,6.158-4.883
			c-0.199-0.397-0.146-0.878,0.385-1.105c0.289-0.124,0.587-0.246,0.887-0.369C208.726,150.516,208.089,149.918,207.646,150.338z"/>
		<path fill="#EB0020" d="M199.599,135.51c0.76-0.308,1.563-0.619,2.391-0.907c3.014,0.534,6.041,0.957,8.758,2.52
			c0.157,0.091,0.314,0.087,0.443,0.027c0.143,0.26,0.302,0.51,0.453,0.764c0.106,0.187,0.22,0.37,0.329,0.555
			c0.121,0.195,0.231,0.397,0.355,0.59c0.392,0.638,0.798,1.27,1.241,1.884c0.082,0.114,0.189,0.172,0.299,0.199
			c0.067,0.1,0.134,0.201,0.201,0.301c0.061,0.092,0.145,0.153,0.236,0.19c-0.07,0.474-0.157,0.948-0.286,1.425
			c-0.059,0.219,0.016,0.384,0.142,0.489c-0.032,0.123-0.063,0.246-0.094,0.369c0.51-0.926,0.935-1.903,1.169-2.878
			c-0.044-1.72-0.357-3.434-1.129-4.851c-0.103-0.126-0.213-0.239-0.321-0.357c0.274,0.484,0.477,1.017,0.611,1.587
			c-0.149-0.194-0.393-0.237-0.593-0.163c-0.025-0.043-0.052-0.085-0.076-0.129c0.308-0.176,0.4-0.677,0.025-0.865
			c-0.749-0.375-1.498-0.749-2.247-1.124c-0.009-0.01-0.017-0.021-0.025-0.031c-0.007-0.058-0.021-0.114-0.048-0.166
			c-0.366-0.694-1.086-0.974-1.799-1.23c-0.216-0.078-0.397,0.014-0.507,0.166c-0.158-0.062-0.31-0.13-0.493-0.166
			c-0.057-0.011-0.115-0.008-0.173,0.001c-0.472-0.102-0.956-0.124-1.458-0.022c-0.136-0.078-0.27-0.157-0.407-0.232
			c1.293-0.163,2.581-0.146,3.82,0.115c-1.669-0.634-3.532-0.842-5.431-0.82c-0.18,0.04-0.361,0.078-0.539,0.122
			c0.013-0.036,0.011-0.076,0.017-0.114c-1.834,0.059-3.684,0.31-5.407,0.577c-0.038,0.171-0.109,0.334-0.229,0.454
			c-0.375,0.375-0.892,0.325-1.285,0.033c-0.454,0.288-0.883,0.631-1.294,0.938c-0.216,0.162-0.273,0.443-0.185,0.655
			c-0.68,0.408-1.323,0.862-1.917,1.424c-0.031,0.03-0.054,0.064-0.074,0.099c-0.636,0.33-1.267,0.67-1.892,1.021
			c0.87-0.833,1.755-1.645,2.673-2.413c0.446-0.373-0.126-1.06-0.606-0.785c-3.062,1.754-5.82,4.067-8.482,6.365
			c-1.502,1.296-3.138,2.657-4.566,4.159c-1.529,1.258-2.956,2.625-4.131,4.155c-0.336,0.437,0.285,0.878,0.684,0.684
			c4.503-2.189,7.991-5.72,11.479-9.244c1.875-1.176,3.807-2.265,5.782-3.264c0.666-0.13,1.3-0.376,1.986-0.423
			c0.413-0.029,0.557-0.454,0.436-0.741C198.153,136.126,198.871,135.805,199.599,135.51z M205.511,133.629
			c-0.025,0.139,0.005,0.288,0.135,0.416c0.114,0.112,0.219,0.206,0.327,0.31c-0.642-0.141-1.288-0.267-1.937-0.385
			C204.525,133.839,205.017,133.724,205.511,133.629z M198.633,134.361c0.376-0.158,0.807-0.178,1.231-0.176
			c0.084,0.018,0.167,0.04,0.25,0.057c-0.718,0.266-1.429,0.551-2.134,0.851c-0.026-0.102-0.08-0.196-0.157-0.269
			C198.082,134.646,198.349,134.481,198.633,134.361z M181.049,146.954c0.279-0.331,0.568-0.656,0.871-0.973
			c0.937-0.756,1.91-1.467,2.885-2.151C183.606,144.943,182.366,146,181.049,146.954z"/>
		<path fill="#EB0020" d="M150.518,147.058c-0.503,2.417-0.8,4.858-1.181,7.273c-0.108-0.119-0.267-0.186-0.47-0.122
			c-0.179,0.056-0.335,0.135-0.489,0.215c-0.494,1.2-1.021,2.379-1.583,3.536c-0.063,0.222-0.12,0.447-0.187,0.667
			c0.127,0.244,0.151,0.539-0.04,0.852c-0.16,0.261-0.324,0.521-0.485,0.782c-0.134,0.396-0.276,0.793-0.414,1.188
			c-0.045,0.211-0.093,0.417-0.15,0.609c-0.134,0.452,0.445,0.785,0.768,0.56c-0.078,0.482-0.163,0.962-0.268,1.44
			c-0.053,0.243,0.055,0.419,0.213,0.519c-0.655,1.219-1.401,2.386-2.167,3.542c0.038-0.047,0.07-0.097,0.108-0.144
			c0.509-0.775,1.023-1.545,1.567-2.293c0.444-0.792,0.882-1.585,1.327-2.37c0.178-0.313,0.434-0.471,0.705-0.514
			c0.25-0.957,0.552-1.895,0.962-2.819c0.126-0.283,0.366-0.437,0.636-0.494c1.069-3.959,1.279-8.157,2.113-12.16
			C151.613,146.695,150.649,146.427,150.518,147.058z M148.414,158.956c-0.107-0.172-0.308-0.27-0.504-0.241
			c0.026-0.13,0.044-0.261,0.073-0.391c0.089-0.407-0.362-0.734-0.683-0.612c0.322-1.209,0.845-2.228,1.833-2.539
			c0.029-0.009,0.047-0.028,0.073-0.04C148.99,156.419,148.739,157.696,148.414,158.956z"/>
		<path fill="#EB0020" d="M117.133,66.709c-0.457-0.126-0.906-0.271-1.351-0.426c-0.011-0.007-0.017-0.017-0.029-0.024
			c-0.098-0.054-0.19-0.117-0.285-0.174c-0.023-0.121-0.089-0.237-0.215-0.326c-1.559-1.092-2.941-2.407-4.5-3.5
			c-0.131-0.092-0.259-0.107-0.371-0.075c-0.414-0.355-0.819-0.722-1.219-1.094c-0.347-1.067-0.195-2.202-0.162-3.399
			c0.017-0.645-0.983-0.644-1,0c-0.012,0.451-0.029,0.885-0.034,1.307c-0.011-0.02-0.023-0.039-0.034-0.059
			c-0.261-0.494-1.129-0.144-0.914,0.385c0.016,0.04,0.035,0.079,0.051,0.119c0,0-0.001,0-0.001,0
			c0.001,0.002,0.003,0.005,0.004,0.007c0.146,0.356,0.301,0.706,0.454,1.057c-0.039,0.092-0.049,0.2-0.009,0.317
			c0.148,0.434,0.313,0.869,0.486,1.301c-0.018,0.102-0.005,0.212,0.065,0.319c0.072,0.11,0.138,0.224,0.209,0.335
			c1.658,3.784,4.377,6.947,8.975,4.845C117.661,67.436,117.52,66.816,117.133,66.709z"/>
		<path fill="#EB0020" d="M172.015,82.669c-0.001,0.016-0.001,0.031-0.001,0.047c-0.399,0.006-0.743,0.49-0.367,0.829
			c0.318,0.287,0.63,0.591,0.94,0.902c-0.03,0.045-0.053,0.095-0.068,0.146c1.766,1.236,3.513,2.476,5.087,4.048
			c1.044,0.556,2.023,1.176,2.876,1.741c1.627,1.077,3.596,2.369,4.962,4c0.022-0.042,0.046-0.084,0.056-0.13
			c0.26,0.105,0.515,0.219,0.749,0.37c0.49,0.315,0.99-0.384,0.606-0.785c-0.646-0.675-1.254-1.381-1.861-2.089
			c0.028-0.143-0.002-0.293-0.139-0.411c-0.276-0.239-0.543-0.456-0.801-0.677c-0.391-0.448-0.787-0.893-1.199-1.323
			c-0.287-0.299-0.741-0.09-0.84,0.232c-0.51-0.315-1.018-0.631-1.526-0.949c-0.009-0.101-0.046-0.201-0.135-0.283
			c-0.431-0.399-0.903-0.75-1.391-1.08c-0.014-0.015-0.03-0.033-0.044-0.047c-1.703-1.702-3.623-3.182-5.6-4.554
			c-0.332-0.573-0.709-1.068-1.134-1.262c-0.348-0.159-0.733,0.029-0.752,0.432c-0.009,0.184,0.035,0.315,0.086,0.497
			C171.591,82.586,171.805,82.683,172.015,82.669z"/>
	</g>
</g>
<path fill="#D7000C" d="M100.05,72.661c-0.144-0.72-0.997-1.04-1.584-1.285c-0.455-0.19-0.72,0.392-0.565,0.734
	c0.068,0.149,0.053,0.242-0.002,0.307c-0.861-0.513-1.875-0.764-2.9-0.726c-0.463,0.017-0.63,0.544-0.346,0.846
	c-0.007,0.007-0.013,0.015-0.019,0.023c-0.125-0.046-0.253-0.076-0.376-0.132c-0.043-0.017-0.084-0.037-0.127-0.053
	c-0.248-0.091-0.456,0.054-0.56,0.255c-0.492-0.334-1-0.628-1.561-0.777c-3.071-0.816-6.157,0.894-9.246,1.145
	c-0.161-0.327-0.658-0.475-0.865-0.06c-0.014,0.028-0.029,0.058-0.044,0.087c-0.022,0-0.043,0-0.065,0
	c-0.153-0.389-0.812-0.478-0.942,0.033c-0.155,0.611-0.334,1.206-0.543,1.79c-0.025,0.029-0.053,0.051-0.074,0.09
	c-0.191,0.372-0.411,0.73-0.63,1.086l-0.001,0.001c-0.144,0.005-0.283,0.072-0.37,0.246c-0.103,0.208-0.265,0.462-0.341,0.714
	c0.426,1.084,0.428,2.324-0.232,3.282c-1.944,2.821-7.017,3.817-10.46,2.857c-0.006,0.03-0.019,0.058-0.02,0.089
	c-0.57,0.014-1.141,0.056-1.714,0.131c-0.34,0.009-0.625,0.018-0.802,0.013c-0.493-0.012-0.689,0.695-0.252,0.932
	c1.381,0.747,2.858,1.132,4.332,1.222c0.226,0.143,0.455,0.281,0.668,0.445c0.19,0.147,0.401,0.089,0.553-0.048
	c0.039,0.016,0.075,0.031,0.114,0.048c0.228,0.099,0.443,0.026,0.587-0.112c0.184,0.079,0.367,0.142,0.548,0.185
	c0.069,0.23,0.28,0.407,0.583,0.311c0.276-0.087,0.533-0.199,0.797-0.303c1.721-0.345,3.32-1.927,4.758-3.159
	c0.062-0.059,0.102-0.122,0.127-0.186c0.228-0.216,0.435-0.452,0.626-0.704c0.121-0.022,0.238-0.086,0.326-0.212
	c0.763-1.098,1.265-1.922,1.402-3.252c0.014-0.136-0.043-0.248-0.13-0.334c0.037-0.178,0.082-0.355,0.112-0.533
	c0.026-0.149-0.009-0.276-0.075-0.378c0.038-0.065,0.072-0.133,0.11-0.198c-0.611-0.509-0.803-1.616,0.07-2.199
	c0.478-0.318,0.931-0.458,1.363-0.484c0.065-0.129,0.134-0.26,0.199-0.388c3.173-0.21,6.753-2.284,9.692-1.004
	c1.907,0.83,3.844,3.301,6.206,2.625c0.235-0.067,0.464-0.178,0.662-0.318c0.053,0.009,0.106,0.017,0.159,0.027
	c0.247,0.046,0.566-0.065,0.615-0.349C99.946,74.236,100.204,73.428,100.05,72.661z"/>
<path fill="#D7000C" d="M52.471,86.54c-0.203-0.111-0.349-0.251-0.453-0.404c-0.779,0.405-1.579-0.084-1.828-0.764
	c-0.005,0.003-0.011,0.006-0.017,0.008c0.004-0.008,0.007-0.017,0.011-0.025c-0.146-0.416-0.086-0.898,0.311-1.285
	c0.111-0.108,0.234-0.203,0.347-0.308c-0.052-0.389-0.688-0.529-0.942-0.156c-0.517,0.758-1.049,1.505-1.578,2.255
	c-0.012,0.009-0.022,0.02-0.033,0.03c0.104,0.079,0.191,0.184,0.259,0.302c0.029-0.003,0.058-0.009,0.087-0.012
	c0.905-0.087,1.128,0.939,0.688,1.518c0.084,0.001,0.172-0.017,0.262-0.076c0.105-0.068,0.201-0.14,0.3-0.209
	c0.067,0.121,0.189,0.204,0.323,0.243c-0.154,0.37,0.253,0.882,0.71,0.633c0.874-0.475,1.689-0.982,2.594-1.363
	C53.165,86.854,52.817,86.729,52.471,86.54z"/>
<path fill="#D7000C" d="M38.182,94.644c-0.038,0.043-0.08,0.057-0.12,0.09c-0.419,0.589-0.806,1.2-1.161,1.871
	c-0.267,0.505,0.365,0.997,0.785,0.606c0.371-0.179,0.742-0.359,1.113-0.538c0.612-0.106,0.379-0.999-0.205-0.963
	c0.421-0.642,0.883-1.251,1.426-1.833c0.117-0.125,0.147-0.304,0.112-0.467c0.531-0.507,1.083-0.985,1.665-1.418
	c0.04-0.011,0.08-0.015,0.121-0.037c0.799-0.419,1.565-0.88,2.323-1.358c0.037-0.02,0.078-0.024,0.111-0.054
	c0.033-0.029,0.068-0.052,0.101-0.081c0.266-0.169,0.534-0.332,0.798-0.507c0.135-0.09,0.208-0.205,0.232-0.323
	c0.179-0.133,0.364-0.264,0.546-0.393c0.196,0.153,0.48,0.193,0.656-0.029c0.026-0.033,0.051-0.069,0.077-0.102l0.001,0.001
	c0.226-0.294,0.471-0.57,0.718-0.842C43.829,89.08,40.562,91.947,38.182,94.644z"/>
<path fill="#D7000C" d="M64.124,80.708c-0.139-0.359-0.69-0.529-0.889-0.102c-0.019,0.04-0.031,0.08-0.049,0.12l-0.001-0.001
	l-0.002,0.01c-0.055,0.124-0.108,0.248-0.153,0.374c-0.09,0.12-0.138,0.261-0.164,0.462c-0.07,0.091-0.136,0.185-0.219,0.268
	c0,0,0,0,0,0c-0.073,0.073-0.146,0.146-0.219,0.219c0.098,0.526-0.054,1.136-0.516,1.489c-0.039,0.03-0.08,0.047-0.12,0.074
	c0.177,0.091,0.398,0.088,0.561-0.075c0.295-0.295,0.589-0.589,0.884-0.884c0.187,0.037,0.395-0.019,0.528-0.217
	c0.036-0.055,0.073-0.109,0.109-0.163c0.15-0.072,0.273-0.209,0.293-0.422c0.004-0.012,0.009-0.025,0.013-0.037
	c0.084-0.126,0.168-0.252,0.252-0.377C64.621,81.159,64.408,80.8,64.124,80.708z"/>
<path fill="#D7000C" d="M60.746,84.104c-0.021,0.005-0.039,0.004-0.059,0.008c-1.437,0.769-2.988,1.938-4.574,2.527
	c0.922-0.112,1.784-0.338,2.687-0.632c0.42-0.137,0.433-0.557,0.213-0.797c0.138-0.083,0.282-0.156,0.418-0.243
	c0.139,0.093,0.317,0.114,0.489-0.01c0.035-0.025,0.066-0.054,0.1-0.079c0,0,0,0.001,0,0.001l0.008-0.007
	c0.393-0.288,0.764-0.595,1.127-0.91C61.022,84.013,60.893,84.07,60.746,84.104z"/>
<path fill="#D7000C" d="M71.333,74.358c0.224,0,0.519-0.073,0.763-0.207c0.035,0.051,0.077,0.098,0.132,0.132
	c-0.141,0.221-0.041,0.475,0.149,0.616c0.34-0.1,0.68-0.193,1.022-0.274c0.017-0.01,0.032-0.023,0.049-0.032
	c0.187-0.103,0.358-0.221,0.471-0.303c-0.002-0.002-0.004-0.005-0.005-0.007c0.034-0.026,0.074-0.042,0.107-0.071
	c0.005-0.004,0.006-0.01,0.011-0.015c0.012-0.001,0.024,0,0.037-0.001c1.451-0.141,2.778-0.682,4.266-0.505
	c0.571,0.068,0.664-0.841,0.133-0.982c-2.188-0.581-4.468-0.657-6.518,0.26c-0.202-0.009-0.399,0.011-0.589,0.111
	c-0.129,0.067-0.186,0.186-0.213,0.312c-0.021,0.013-0.044,0.021-0.065,0.034C70.661,73.684,70.828,74.358,71.333,74.358z"/>
<path fill="#D7000C" d="M125.867,181.042c-1.948,0.354-3.859,0.88-5.813,1.211c-0.032,0.005-0.065,0.009-0.098,0.015
	c-0.205-0.016-0.408-0.045-0.609-0.085c0.237-0.263,0.149-0.689-0.214-0.808c-0.459-0.15-0.91-0.273-1.362-0.378
	c0.196-0.136,0.391-0.281,0.583-0.453c0.012-0.011,0.01-0.027,0.021-0.039c-1.164-0.003-2.292-0.158-3.349-0.464
	c-0.06,0.005-0.12,0.012-0.18,0.015c-0.447,0.364-0.831,0.775-1.153,1.237c-0.42,2.236,2.693,2.364,5.954,1.951
	c2.134,0.217,4.411-0.684,6.487-1.238C126.765,181.838,126.492,180.929,125.867,181.042z"/>
<path fill="#D7000C" d="M129.867,188.709c-3.254,1.177-6.81,1.846-10.234,2.261c-0.947,0.115-1.952,0.218-2.945,0.205
	c0.17-0.213,0.192-0.542-0.055-0.705c0.047-0.034,0.091-0.069,0.135-0.105c0.13-0.035,0.251-0.078,0.346-0.138
	c0.13-0.083,0.195-0.193,0.221-0.32c0.384-0.051,0.767-0.115,1.144-0.209c0.33-0.082,0.439-0.454,0.299-0.734
	c-0.004-0.008-0.008-0.016-0.012-0.025c-0.028-0.055-0.065-0.093-0.101-0.129c2.064,0.152,4.101,0.047,6.136-0.47
	c0.625-0.159,0.36-1.123-0.266-0.964c-1.574,0.4-3.144,0.525-4.727,0.488c0.002-0.202-0.097-0.406-0.34-0.488
	c-2.137-0.723-5.755-0.811-6.898,1.563c-0.754,1.566,0.587,2.653,1.955,3.002c2.59,0.661,5.617,0.021,8.191-0.431
	c2.487-0.437,5.039-0.976,7.419-1.837C130.734,189.456,130.475,188.489,129.867,188.709z M116.91,187.932
	c-0.029,0.056-0.046,0.116-0.051,0.18c-0.247,0.08-0.492,0.167-0.727,0.291c-0.017-0.071-0.049-0.133-0.098-0.191
	c-0.021-0.027-0.045-0.05-0.071-0.072c-0.018-0.014-0.025-0.034-0.045-0.046c-0.049-0.028-0.097-0.056-0.146-0.083
	c-0.005-0.003-0.011-0.002-0.016-0.004C116.132,187.945,116.52,187.921,116.91,187.932z"/>
<path fill="#D7000C" d="M130.2,193.376c-2.794,0.718-5.632,1.21-8.491,1.479c0.271-0.309,0.007-0.919-0.509-0.813
	c-1.4,0.288-2.828,0.371-4.23,0.649h-1.304c-0.184,0-0.309,0.081-0.388,0.193c-0.029,0.003-0.058,0.007-0.087,0.01
	c-0.894-0.069-1.898,0.05-2.463,0.529c-0.435,0.174-0.813,0.427-1.092,0.801c-1.096,1.467-0.154,3.095,1.367,3.661
	c2.127,0.792,4.98,0.024,7.174-0.576c0.085,0.034,0.179,0.054,0.289,0.032c0.61-0.118,1.207-0.269,1.8-0.432
	c0.846-0.176,1.681-0.371,2.508-0.597c0.03,0.016,0.063,0.027,0.097,0.035c0.092,0.225,0.323,0.405,0.594,0.328
	c0.884-0.251,1.783-0.416,2.667-0.667c0.319-0.09,0.408-0.411,0.317-0.662c0.005-0.002,0.011-0.003,0.016-0.005
	c0.4-0.126,0.429-0.558,0.229-0.804c0.243-0.281,0.123-0.845-0.362-0.845h-0.667c-0.509-0.011-1.017-0.038-1.524-0.071
	c1.458-0.34,2.896-0.762,4.324-1.28C131.065,194.123,130.833,193.213,130.2,193.376z M115.752,199.141
	c0.029-0.055,0.055-0.11,0.061-0.175c0.373-0.143,0.471-0.611,0.106-0.874c-0.055-0.04-0.115-0.072-0.172-0.109
	c0.593-0.014,1.186-0.026,1.779-0.048c0.011,0.229,0.162,0.437,0.474,0.422c0.185-0.009,0.364-0.03,0.546-0.045
	c0.032,0.129,0.106,0.241,0.207,0.315c-0.416,0.087-0.828,0.169-1.235,0.246C117.082,198.955,116.44,199.075,115.752,199.141z"/>
<path fill="#D7000C" d="M199.987,136.22c2.691-0.466,5.432-0.698,7.939-0.265c0.088,0.03,0.179,0.054,0.266,0.085
	c0.034,0.097,0.099,0.188,0.222,0.249c1.391,0.699,2.729,1.43,4,2.333c0.019,0.014,0.038,0.015,0.057,0.026
	c0.227,0.217,0.448,0.439,0.656,0.676c-0.05,1.272-0.15,2.537-0.288,3.8c-0.125,0.368-0.25,0.736-0.368,1.106
	c-0.142,0.348-0.273,0.701-0.39,1.057c-0.594,1.123-1.294,2.183-2.101,3.216c-0.113,0.145-0.129,0.306-0.093,0.451
	c-0.656,0.735-1.302,1.481-1.965,2.212c0.272-0.113,0.555-0.23,0.833-0.344c1.023-1.071,1.98-2.176,2.851-3.292
	c1.25-1.602,2.996-3.993,3.605-6.381c-0.01-0.059-0.019-0.118-0.034-0.177c0.02-0.007,0.037-0.017,0.055-0.026
	c-0.023-0.713-0.086-1.423-0.216-2.112c-0.059-0.2-0.12-0.398-0.179-0.597c-0.001-0.016-0.002-0.032-0.003-0.047
	c-0.004-0.109-0.042-0.192-0.091-0.264c-0.086-0.29-0.17-0.58-0.261-0.869c-0.195-0.619-1.089-0.363-0.964,0.266
	c0,0.003,0.001,0.005,0.001,0.008c-0.174-0.141-0.358-0.26-0.538-0.388c-0.267-0.315-0.544-0.624-0.826-0.93
	c0.342-0.116,0.476-0.699,0.097-0.921c-0.283-0.141-0.537-0.318-0.777-0.512c0.035-0.212-0.059-0.442-0.342-0.538
	c-0.347-0.118-0.68-0.255-1.014-0.39c0.022-0.056,0.033-0.115,0.036-0.173c-0.816-0.285-1.671-0.484-2.556-0.597
	c-0.03,0.049-0.054,0.104-0.067,0.163c-0.708,0.108-1.408,0.32-2.166,0.607c-1.031,0.028-2.035,0.165-3.027,0.392
	c-0.293,0.009-0.586,0.023-0.877,0.05c-0.059-0.299-0.359-0.538-0.713-0.335c-0.33,0.19-0.668,0.359-1.01,0.523
	c-0.003-0.069-0.011-0.138-0.047-0.201c-0.117-0.211-0.344-0.266-0.565-0.23c-0.192,0.031-0.39,0.105-0.587,0.191
	c-0.448,0.05-0.687,0.179-0.971,0.564c-0.103,0.139-0.104,0.275-0.056,0.394c-0.367,0.132-0.734,0.27-1.098,0.427
	c-0.235,0.101-0.288,0.329-0.228,0.534c-0.107,0.027-0.213,0.055-0.32,0.082c-0.627,0.157-0.361,1.106,0.266,0.964
	c0.267-0.06,0.54-0.12,0.811-0.179c0.1,0.164,0.282,0.265,0.523,0.179c0.768-0.275,1.565-0.391,2.333-0.667
	C199.876,136.313,199.935,136.27,199.987,136.22z M207,134.691c0.397,0,0.541-0.348,0.455-0.634
	c0.294-0.057,0.593-0.087,0.899-0.102c0.067,0.035,0.134,0.072,0.2,0.106c0.038,0.083,0.094,0.163,0.193,0.228
	c0.382,0.252,0.763,0.481,1.148,0.706c-0.058,0.118-0.07,0.252-0.029,0.374c-0.017,0.006-0.032,0.015-0.048,0.023
	c-0.732-0.224-1.489-0.383-2.265-0.486c-0.112-0.04-0.227-0.085-0.338-0.124c-0.103-0.036-0.207-0.058-0.31-0.091H207z"/>
<path fill="#D7000C" d="M25.049,134.119c-0.305,0.286-0.722,0.48-1.21,0.594c-0.295-0.156-0.577-0.343-0.859-0.528
	c-0.61-0.036-1.212-0.129-1.8-0.27c0.004,0.032,0.004,0.065,0.013,0.096c-0.487-0.013-0.967-0.045-1.437-0.101
	c-0.02-0.03-0.057-0.049-0.084-0.075c-0.012-0.012-0.025-0.024-0.039-0.035c-0.018-0.013-0.025-0.032-0.047-0.042
	c-0.038-0.017-0.077-0.031-0.115-0.048c-0.002-0.001-0.002-0.002-0.004-0.002c-0.025-0.01-0.049-0.02-0.073-0.03
	c0.022-0.254-0.167-0.37-0.333-0.501c0.054,0.008,0.108,0.012,0.162,0.019c-0.55-0.28-1.076-0.615-1.564-1.025
	c-0.423,0.196-0.942,0.166-1.386-0.273c-0.569-0.628-1.172-1.176-1.791-1.696c-0.424,0.191-0.952,0.169-1.418-0.229
	c-0.367-0.314-0.722-0.637-1.077-0.958c-0.089-0.058-0.175-0.114-0.262-0.171c-0.106-0.038-0.214-0.087-0.323-0.165
	c-0.243-0.172-0.466-0.354-0.701-0.529c-0.421-0.294-0.862-0.614-1.316-0.967c0.007-0.007,0.009-0.019,0.016-0.026
	c-0.571-0.465-1.13-0.945-1.683-1.461c-0.429-0.401-0.496-0.856-0.354-1.244c-0.303-0.374-0.602-0.752-0.929-1.109
	c-0.17-0.198-0.262-0.411-0.303-0.624c-1.293-1.681-2.289-3.509-2.598-5.726c-0.054-0.387,0.072-0.77,0.287-1.078
	c-0.044-0.25-0.086-0.502-0.119-0.766c-0.043-0.342,0.077-0.618,0.274-0.831c-0.012-0.066-0.028-0.131-0.039-0.197
	c-0.344-0.228-0.834,0.064-0.748,0.535c0.016,0.087,0.031,0.172,0.046,0.257c-0.132-0.182-0.264-0.363-0.397-0.544v-0.847
	c0-0.213-0.134-0.364-0.302-0.439c-0.011-0.187-0.027-0.373-0.031-0.561c-0.006-0.264-0.177-0.414-0.376-0.462
	c-0.189-0.485-0.97-0.484-0.958,0.129c0.025,1.213,0.181,2.397,0.395,3.571c0.02,0.241,0.044,0.481,0.075,0.719
	c0.014,0.322,0.039,0.644,0.081,0.967c-0.126,0.075-0.218,0.207-0.217,0.41c0.003,0.606,0.068,1.108,0.21,1.65
	c0.017,0.274,0.077,0.547,0.141,0.817c0.047,0.198,0.187,0.306,0.346,0.341c0.01,0.037,0.018,0.073,0.038,0.111
	c2.965,5.793,7.168,11.255,13.189,14.003c1.07,0.488,3.272,1.061,5.44,1.197c0.043,0.203,0.2,0.379,0.469,0.381
	c0.268,0.002,0.509,0.015,0.741,0.094c0.032,0.022,0.064,0.046,0.102,0.061c0.08,0.037,0.159,0.073,0.239,0.11
	c0.336,0.156,0.615-0.025,0.702-0.278c0.006-0.002,0.011-0.003,0.017-0.005c0.226-0.088,0.339-0.271,0.347-0.463
	c1.403-0.239,2.523-0.835,2.923-1.989C25.955,133.988,25.503,134.066,25.049,134.119z M13.846,131.873
	c-1.48-0.869-2.835-1.97-4.103-3.192c1.269,0.93,2.762,1.93,4.368,2.762C13.959,131.534,13.852,131.695,13.846,131.873z"/>
<path fill="#D7000C" d="M70.211,130.993c0.028-1.05-0.049-2.082-0.232-3.099c0.143-0.113,0.23-0.293,0.17-0.502
	c-0.142-0.499-0.321-0.973-0.508-1.441c-0.055-0.141-0.11-0.281-0.165-0.421c-0.227-0.52-0.475-1.025-0.757-1.507
	c-0.126-0.265-0.244-0.53-0.387-0.794c-1.904-3.509-4.782-6.36-6.566-9.956c-0.287-0.578-1.149-0.071-0.863,0.505
	c0.199,0.401,0.422,0.785,0.643,1.171c0.94,1.055,1.799,2.431,2.55,3.863c0.29,0.399,0.581,0.798,0.872,1.197
	c-0.082,0.008-0.156,0.049-0.224,0.102c0.658,1.386,1.209,2.74,1.627,3.821c0.338,0.261,0.864-0.078,0.769-0.52
	c0.01,0.014,0.02,0.028,0.03,0.042c-0.009,0.064-0.007,0.133,0.016,0.205c0.29,0.9,0.552,1.807,0.803,2.717
	c-0.253,0.013-0.5,0.177-0.484,0.46c0.969,2.263,2.283,4.783,3.562,7.417c-0.012-0.054-0.021-0.109-0.034-0.162
	C70.809,133.045,70.528,132.015,70.211,130.993z"/>
<path fill="#D7000C" d="M142.893,199.06c-0.435-1.341-1.501-2.114-2.893-2.202c-2.973-0.188-5.376,0.538-8.069,1.722
	c-0.214,0.094-0.424,0.168-0.636,0.254c-1.546,0.192-2.988,0.639-4.299,1.331c-2.442,0.544-4.901,0.812-7.584,1.207
	c-2.821,0.415-5.606,1.597-8.39,2.88c-0.007,0.002-0.014,0.003-0.021,0.005c0.033-0.049,0.065-0.098,0.098-0.147
	c0.05-0.075,0.066-0.153,0.067-0.229c0.207-0.065,0.407-0.145,0.634-0.207c0.621-0.172,0.357-1.137-0.266-0.964
	c-0.074,0.02-0.165,0.055-0.25,0.085c-0.189-0.147-0.459-0.18-0.637,0.044l-0.224,0.281c-0.048,0.061-0.078,0.124-0.1,0.188
	c-0.108,0.163-0.215,0.327-0.325,0.487c-1.459,0.564-2.828,1.298-4.196,2.043c-0.578,0.183-1.157,0.36-1.738,0.529
	c-0.706,0.174-1.414,0.328-2.128,0.45c-0.636-0.085-1.273-0.122-1.935-0.126c-0.307-0.002-0.465,0.211-0.479,0.442
	c-0.216,0.021-0.433,0.041-0.649,0.062c-0.132,0.007-0.263,0.018-0.395,0.027c-2.655-0.621-5.266-1.012-7.944-0.179
	c-0.262,0.081-0.36,0.287-0.348,0.488c-1.208-0.09-2.437-0.132-3.675-0.159c-0.134-0.084-0.276-0.161-0.432-0.229
	c-0.202-0.089-0.426-0.024-0.583,0.104c-0.775-0.203-1.568-0.329-2.364-0.537c-0.363-0.095-0.709,0.252-0.623,0.596
	c-0.11-0.002-0.221-0.004-0.331-0.006c-2.189-1.056-4.603-1.615-7.012-2.17v-0.604c0.007-0.529,0.025-1.058,0.044-1.587
	c0.145-0.075,0.264-0.209,0.289-0.413c0.035-0.28,0.053-0.557,0.085-0.836c-0.081,0.014-0.165,0.022-0.246,0.037
	c-0.196,0.563-0.403,1.125-0.637,1.687c-0.412,0.992-1.443,1.168-2.102,0.566c-0.14,0.081-0.288,0.132-0.443,0.148
	c-0.045,0.078-0.101,0.151-0.162,0.22c-0.458-0.127-0.911-0.262-1.358-0.409c-0.24-0.17-0.476-0.345-0.719-0.512
	c-0.223-0.153-0.427-0.095-0.561,0.048c-1.705-0.68-3.297-1.594-4.671-2.97c-0.405-0.405-1.038,0.1-0.79,0.591
	c-0.361-0.166-0.855,0.107-0.712,0.562c0.042,0.135,0.103,0.251,0.151,0.38c-0.33,0.02-0.649,0.363-0.434,0.74
	c0.221,0.387,0.894,0.849,1.639,1.283c0.215,0.243,0.446,0.469,0.692,0.677c0.036,0.082,0.089,0.159,0.181,0.219
	c0.038,0.025,0.073,0.051,0.111,0.076c0.015,0.026,0.027,0.052,0.043,0.078c0.11,0.187,0.27,0.25,0.425,0.241
	c0.096,0.065,0.192,0.13,0.286,0.195c-0.153,0.247-0.102,0.651,0.254,0.793c0.114,0.046,0.204,0.084,0.289,0.12
	c0.543,0.266,0.791,0.623,1.51,0.564c0.008-0.001,0.014-0.004,0.022-0.005c0.135-0.009,0.251-0.075,0.338-0.17
	c2.175,0.963,4.507,1.482,6.818,2.098c0.012,0.083,0.054,0.161,0.119,0.234c0.007,0.01,0.009,0.021,0.017,0.03
	c0.611,0.741,1.372,1.185,2.207,1.454c0.024,0.008,0.047,0.019,0.071,0.023c1.587,0.489,3.438,0.351,5.075,0.336
	c0.264-0.002,0.415-0.163,0.462-0.355c0.371-0.097,0.488-0.623,0.138-0.895c0.31,0.079,0.62,0.156,0.933,0.232
	c0.134,0.033,0.25,0.014,0.345-0.032c-1.041,1.793-0.242,4.599,2.454,4.55c1.458-0.026,2.9,0.094,4.336,0.279
	c1.396,0.264,2.759,0.696,4.2,1.281c0.806,0.327,1.508,0.276,2.076-0.008c0.417,0.102,0.835,0.213,1.257,0.341
	c0.697,0.212,1.323,0.161,1.86-0.052c0.423,0.056,0.846,0.116,1.271,0.159c3,0.301,6.228-0.222,9.375-0.972
	c0.641,0.34,1.385,0.46,2.089,0.198c0.181-0.067,0.359-0.146,0.536-0.223c5.989,5.383,14.387,2.01,21.797,0.223
	c3.271-0.788,7.172-1.887,8.512-5.349C146.05,206.766,144.006,202.497,142.893,199.06z M77.201,207.023
	c-0.812-0.343-1.619-0.696-2.43-1.041c1.518,0.355,3.035,0.716,4.496,1.204C78.573,207.147,77.884,207.092,77.201,207.023z
	 M91.5,208.687c-1.35-0.178-2.728-0.237-4.167-0.162c-0.135,0.007-0.254,0.036-0.379,0.057l-0.005-0.001
	c0.09-0.061,0.158-0.145,0.194-0.244c1.491,0.052,2.967,0.138,4.411,0.31C91.539,208.662,91.516,208.672,91.5,208.687z"/>
<path fill="#D7000C" d="M107.833,55.191v-2c-0.001-0.121-0.015-0.234-0.017-0.353c-0.002-0.063-0.007-0.125-0.009-0.188
	c-0.017-0.552-0.058-1.102-0.126-1.642c-0.05-0.427-0.111-0.854-0.199-1.283c-0.07-0.328-0.361-0.41-0.607-0.327
	c-0.215-0.91-0.45-1.816-0.699-2.719c-0.1-0.431-0.215-0.861-0.36-1.287c-0.137-0.403-0.582-0.416-0.821-0.202
	c-0.07-0.151-0.145-0.299-0.211-0.451c0.292-0.328,0.499-0.737,0.593-1.209c0.312,0.339,0.615,0.685,0.937,1.015
	c0.35,0.359,0.973-0.006,0.836-0.487c-0.323-1.132-0.796-2.154-1.396-3.133c-0.005-0.022-0.003-0.043-0.009-0.065
	c-0.339-1.443-0.661-2.89-1-4.333c-0.045-0.19-0.111-0.36-0.188-0.519c-0.006-0.256-0.042-0.524-0.145-0.814
	c-0.117-0.328-0.23-0.658-0.345-0.986c-0.191-0.896-0.401-1.789-0.655-2.68c-0.141-0.493-0.381-0.863-0.673-1.145
	c-0.283-0.817-0.57-1.633-0.861-2.448c-0.733-2.83-1.729-5.513-3.385-8.004c-0.482-0.725-1.132-1.072-1.793-1.15
	c-0.09-0.118-0.173-0.238-0.264-0.356c-0.006-0.008-0.013-0.013-0.02-0.021c-0.016-0.117-0.038-0.233-0.071-0.347
	c0.228-1.113-0.253-2.391-1.679-2.942c-1.225-0.473-2.383-0.733-3.667-1c-0.616-0.128-1.162-0.051-1.623,0.151
	c-0.107-0.014-0.214-0.031-0.32-0.045c-0.199-0.783-0.741-1.469-1.57-1.723c-0.38-0.291-0.874-0.472-1.485-0.472h-1.256
	c-0.776-0.066-1.561-0.074-2.41,0h-3.667c-0.516,0-0.962,0.161-1.328,0.423c-0.304,0.049-0.611,0.123-0.919,0.202
	c-0.523-0.229-1.134-0.297-1.751-0.202c-2.664,0.406-5.07,1.759-7.129,3.474c-1.58,0.565-2.933,1.519-4.078,2.744
	c-0.019,0.013-0.038,0.02-0.056,0.034c-0.346,0.25-0.673,0.513-0.989,0.782c-0.228,0.042-0.456,0.109-0.678,0.218
	c-2.851,1.401-4.722,3.9-5.816,6.827c-0.272,0.729-0.147,1.361,0.182,1.868c-0.741,1.255-1.143,2.657-1.497,4.062
	c-0.254-0.16-0.646-0.092-0.757,0.269c-0.344,1.12-0.351,2.305-0.351,3.466c0,0.341,0.278,0.49,0.541,0.47
	c0.164,1.236,0.422,2.456,0.81,3.663c0.063,0.195,0.222,0.282,0.39,0.314c0.026,0.454,0.067,0.907,0.109,1.36
	c-0.099,0.004-0.193,0.051-0.274,0.12c-0.185,0.094-0.312,0.281-0.225,0.54c0.256,0.759,0.544,1.49,0.858,2.206
	c0.107,0.878,0.304,2.171,0.966,2.315c0.091,0.02,0.176,0.013,0.255-0.007c0.225,0.352,0.455,0.702,0.717,1.04
	c0.171,0.22,0.445,0.178,0.637,0.029c0.212,1.52,0.673,2.966,1.234,4.417c0.192,0.495,1.006,0.47,0.982-0.133
	c-0.003-0.072-0.014-0.139-0.018-0.21c0.218-0.07,0.392-0.281,0.333-0.589c-0.003-0.013-0.006-0.027-0.008-0.04
	c0.029-0.085,0.038-0.181,0.008-0.293c-0.085-0.323-0.182-0.642-0.274-0.962c-0.068-0.298-0.14-0.596-0.213-0.893
	c0.12-0.108,0.196-0.27,0.154-0.479c-0.047-0.234-0.098-0.465-0.147-0.697c0.282-0.034,0.566-0.307,0.481-0.636
	c-0.318-1.226-0.682-2.44-1-3.667c-0.039-0.152-0.127-0.249-0.234-0.303c-0.162-0.495-0.33-0.989-0.496-1.484
	c-0.215-0.957-0.427-1.914-0.603-2.88c-0.039-0.214-0.177-0.318-0.335-0.347c-0.041-0.497-0.097-0.993-0.146-1.49
	c0.005-0.005,0.013-0.005,0.018-0.01c0.168-0.168,0.327-0.342,0.493-0.511c0.688,0.018,1.354,0.076,2.021,0.306
	c0.271,0.094,0.488-0.066,0.578-0.283c0.181,0.035,0.362,0.073,0.539,0.121c0.224,0.159,0.473,0.242,0.79,0.165
	c0.392,1.111,1.161,2.125,2.003,3.059c-0.304,1.562,1.377,3.047,3.091,2.762c0.484,0.964,1.276,1.305,2.067,1.231
	c0.762,1.917,1.665,3.698,2.906,5.391c0.51,0.696,1.167,1.036,1.825,1.117v0.621c0,1.362,0.801,2.269,1.898,2.715
	c1.097,0.744,2.551,0.84,3.614-0.026c0.025,0.011,0.052,0.017,0.077,0.027c-0.391,0.67-0.75,1.382-1.071,2.151
	c-0.176,0.423,0.39,0.77,0.734,0.565c8.128-4.842,17.225-5.205,25.603-1.29c0.028,0.111,0.096,0.216,0.226,0.29
	c0.573,0.328,1.166,0.483,1.786,0.717c0.538,0.203,0.873-0.644,0.385-0.914c-0.055-0.031-0.112-0.056-0.168-0.086
	C107.637,55.622,107.833,55.441,107.833,55.191z M80.442,55.339c0.151-0.288,0.309-0.568,0.473-0.838
	c0.446,0.048,0.891-0.002,1.298-0.152c0.039,0.006,0.075,0.014,0.12,0.009c0.083-0.009,0.162-0.026,0.243-0.037
	C81.86,54.631,81.147,54.965,80.442,55.339z M85.38,49.893c0.122-0.052,0.245-0.102,0.368-0.153
	c0.414,0.087,0.868,0.079,1.348-0.035c0.337,0.035,0.668,0.091,0.996,0.158c-1.109,0.255-2.207,0.555-3.298,0.892
	C84.977,50.464,85.168,50.177,85.38,49.893z M90.333,50.691c-0.351,0.002-0.553,0.359-0.475,0.649
	c-0.287-0.003-0.572-0.003-0.855-0.002c-0.694-0.035-1.385-0.094-2.076-0.157c1.275-0.34,2.56-0.631,3.873-0.841
	c0.595-0.095,0.388-0.935-0.133-0.982c-0.626-0.057-1.229-0.195-1.832-0.333c0.382-0.149,0.75-0.276,1.106-0.375
	c0.266,0.184,0.569,0.337,0.929,0.434c0.584,0.158,1.156,0.346,1.732,0.52c0.072,0.06,0.139,0.123,0.218,0.178
	c0.429,0.298,0.857,0.598,1.284,0.899C92.851,50.662,91.592,50.685,90.333,50.691z M93.789,52.029
	c0.037-0.118,0.034-0.249-0.009-0.365c0.6,0.003,1.2,0.017,1.797,0.048c0.192,0.134,0.383,0.269,0.576,0.403
	c0.019,0.013,0.037,0.021,0.056,0.034C95.402,52.069,94.596,52.037,93.789,52.029z M99.666,52.716
	c0.158-0.067,0.305-0.16,0.45-0.255c0.248,0.08,0.491,0.185,0.735,0.28c-0.027,0.094-0.021,0.19,0.008,0.28
	C100.462,52.913,100.065,52.808,99.666,52.716z M102.386,53.484c0.065-0.087,0.115-0.185,0.114-0.292
	c-0.001-0.137-0.004-0.274-0.006-0.411c0.005-0.01,0.008-0.022,0.013-0.032c0.631-0.145,1.214-0.501,1.644-1.009
	c0.249,0.633,0.5,1.266,0.7,1.919c0.026,0.085,0.068,0.15,0.118,0.203c0.092,0.248,0.186,0.494,0.278,0.742
	C104.302,54.176,103.347,53.805,102.386,53.484z"/>
<path fill="#D7000C" d="M67.02,59.171c-0.444-0.444-0.889-0.889-1.333-1.333l0,0c-0.107-0.132-0.084-0.492-0.131-0.658
	c-0.095-0.338-0.345-0.579-0.637-0.753c-0.315-0.188-0.77,0.05-0.752,0.432c0.034,0.74,0.402,1.281,0.735,1.919
	c0.103,0.197,0.329,0.26,0.533,0.223l0.878,0.878C66.769,60.335,67.477,59.627,67.02,59.171z"/>
<path fill="#D7000C" d="M109.098,103.939c-0.329-0.554-1.193-0.051-0.863,0.505c2.108,3.55,3.556,7.703,3.642,11.87
	c-0.027,0.06-0.043,0.13-0.044,0.211c-0.003,0.897-0.026,1.766-0.171,2.635c-0.272-0.207-0.791-0.096-0.829,0.365
	c-0.464,5.672-3.176,10.999-3.366,16.685c-0.112,3.339,0.184,6.717,0.432,10.043c0.285,3.83,0.656,7.662,1.247,11.458
	c0.187,1.198,0.3,4.405,1.721,4.963c0.601,0.236,0.859-0.732,0.266-0.964c-1.016-0.398-1.287-6.056-1.395-6.898
	c-0.455-3.551-0.752-7.125-0.99-10.696c-0.181-2.707-0.363-5.442-0.272-8.156c0.064-1.906,0.423-3.776,0.885-5.636
	c0.224-0.031,0.441-0.182,0.472-0.465c0.224-2.014,1.262-3.765,1.927-5.625c0.372-1.041,0.238-2.207,0.477-3.275
	c0.112-0.051,0.209-0.137,0.245-0.3C113.74,114.927,112.04,108.894,109.098,103.939z"/>
<path fill="#D7000C" d="M148.752,73.793c-0.233-0.286-0.754-0.352-1.081-0.444c-1.239-0.35-2.357-0.742-3.53-1.278
	c-3.139-1.436-5.925-3.441-9.475-3.713c-0.643-0.049-0.639,0.951,0,1c3.581,0.274,6.577,2.481,9.748,3.932
	c0.639,0.292,2.231,0.513,3.109,0.885c-0.017,0.262,0.139,0.53,0.477,0.516c0.195-0.008,0.349-0.008,0.531-0.063
	C148.917,74.512,148.987,74.082,148.752,73.793z"/>
</svg>
