<?xml version="1.0" encoding="utf-8"?>
<!-- Generator: Adobe Illustrator 19.2.1, SVG Export Plug-In . SVG Version: 6.00 Build 0)  -->
<svg version="1.1" id="Layer_1" xmlns="http://www.w3.org/2000/svg" xmlns:xlink="http://www.w3.org/1999/xlink" x="0px" y="0px"
	 viewBox="0 0 141 200" style="enable-background:new 0 0 141 200;" xml:space="preserve">
<style type="text/css">
	.st0{fill:#E64A19;}
</style>
<g id="leg-main">
	<path class="st0" d="M39.9,1.7c0.1,0,0.2,0,0.3,0c1.9,0.3,3.5-0.2,5.2-1c1.8-0.8,3.8-1,5.5,0C53.1,2,54.6,4,54.7,6.6
		c0,0.6-0.4,1.3-0.5,1.9c-0.1,0.3,0,0.7,0.1,0.9c1.8,1.8,2.8,3.9,3.5,6.3c0.6,1.8,0.9,3.7,1.1,5.6c0,0.5,0.3,1,0.5,1.4
		c1.2,2.1,1,4.3,1,6.6c-0.1,2.3-1.2,4.2-2.9,5.7c-0.3,0.2-0.4,0.7-0.4,1c0,0.9,0.2,1.7,0.3,2.6c0.1,0.7,0.5,0.9,1.2,0.8
		c0.9-0.1,1.8-0.4,2.8-0.4c2,0,3.9,0,5.9,0.1c2.7,0.2,5.4,0.5,8.1,0.9c1.1,0.2,2.1,0.6,3.1,1c0.5,0.2,0.8,0.7,1.2,1.1
		c0.2,0.2,0.4,0.5,0.6,0.7c2.1,2,4.3,3.9,6.3,6.1c2.6,2.9,5,6,7.3,9.1c1,1.3,1.7,2.8,2.7,4.1c1.1,1.4,2.5,2.5,3.7,3.8
		c0.3,0.3,0.7,0.6,0.9,0.9c1.9,2.1,3.8,4.2,5.6,6.3c1,1.2,1.7,2.5,2.5,3.7c1.4,2.1,2.8,4.1,4.3,6.2c1.1,1.6,2.4,3.2,3.3,4.9
		c0.6,1,0.8,2.3,1.1,3.5c0.3,1.5,0.7,3.1,0.7,4.6c-0.1,3.4,0.4,6.9-0.7,10.2c-1,3.1-2,6.3-2.8,9.5c-0.5,2.2-0.8,4.4-0.9,6.6
		c0,2.1,0.2,4.3,0.8,6.4c0.2,0.8,0.2,1.8,0.2,2.6c0,2.6,0,5.3,0.1,7.9c0.1,3,0.1,6,1.3,8.8c0,0.1,0.1,0.2,0.1,0.3
		c0.3,3,0.5,6.1-0.1,9c-0.4,2-0.4,4,0.3,5.9c1.2,3,2.4,6,4.1,8.8c1.5,2.5,3.4,4.7,5.3,6.8c1.1,1.2,2.5,2,3.7,3.1
		c1.5,1.4,3.3,2.4,5,3.4c2.8,1.6,4.7,4,5.5,7.1c0.1,0.4,0.1,1,0.1,1.4c-0.1,1.3-0.8,2.1-2.1,2.3c-1.2,0.2-2.3,0.1-3.4-0.4
		c-0.7-0.3-1.1-0.1-1.3,0.5c-0.6,1.7-1.9,1.9-3.4,2c-2.1,0.1-4.3,0.1-6.5,0.1c-0.4,0-0.9,0.2-1.3,0.3c-2.5,1-5.1,1.1-7.8,1
		c-0.6,0-1.3-0.5-1.9-0.8c-0.6-0.2-1.3-0.4-1.9-0.5c-0.3,0-0.6,0.3-1,0.3c-0.4,0.1-1,0.3-1.3,0.1c-1.2-0.8-2.3-0.3-3.5-0.1
		c-0.9,0.1-1.7,0.1-2.6,0.2c-1.6,0.1-3.9-1.7-4.3-3.3c-0.2-0.8-0.8-1.6-1.3-2.4c-0.1-0.2-0.6-0.3-0.8-0.2c-3.1,0.5-6.2,0.1-9.3-0.2
		c-1.3-0.1-2.2-1-2.1-2.3c0.2-1.8,0.4-3.6,0.9-5.4c0.4-1.9,0.9-3.8,0.8-5.8c-0.1-2-0.2-4.1-0.3-6.1c-0.1-2-1-3.7-2.1-5.2
		c-1.1-1.5-2.3-3-3.5-4.4c-0.8-1-0.9-1-1.8-0.1c-1,1-2.2,1.9-3.2,2.9c-1.8,1.8-4,2.9-6.1,4.2c-1.7,1-3.7,1-5.7,1.1
		c-3.1,0.2-6.2,0.3-9.3,0.4c-2.3,0-4.6-0.1-6.9-0.1c-1.7,0-3.4,0.3-5.1,0.5c-1.8,0.2-3.7,0.4-5.5,0.5c-1.1,0.1-2.2-0.2-3.3-0.2
		c-1.1,0-2.3,0.1-3.4,0.2c-1.4,0.1-2.8,0.2-4.2,0.4c-0.7,0.1-1.3,0.4-1.9,0.5c-1.3,0.1-2.6,0.1-3.9,0.1c-1.2,0-2.5,0.1-3.7-0.1
		c-1.6-0.3-3.1-0.8-4.5-1.8c-2.9-2.1-4.9-5-7-7.8c-1.3-1.8-1.7-3.8-2.2-5.8c-0.6-2.5-1.2-5.1-2.5-7.5c-1.1-2-0.7-4.1-0.3-6.2
		c0.3-1.5,0.6-3,1.1-4.4c0.6-1.6,1.4-3,2.2-4.5c0.6-1,1.1-1.9,1.2-3.2c0-1.2,0.5-2.3,1-3.4c0.8-1.8,1.8-3.4,2.6-5.2
		c0.7-1.5,1.3-3.1,1.9-4.6c0.1-0.3,0.1-0.7,0-1c-0.7-2.5-0.6-5.1-0.8-7.6c-0.3-3.1-0.6-6.2-0.8-9.3c-0.1-1.7-0.1-3.5,0-5.2
		c0.4-7.5,0.9-15.1,1.4-22.6c0.2-2.5,0.3-4.9,0.7-7.4c0.4-2.3,0.6-4.6,1.8-6.7c1.5-2.6,3.4-4.8,6.2-6.1c2.1-1,3.8-2.5,5.6-3.9
		c0.4-0.4,0.9-0.7,1.4-1c0.5-0.4,0.8-0.7,0.3-1.4c-0.5-0.7-0.7-1.5-1.2-2.2c-1.6-2.2-1.6-4.9-1.9-7.4c-0.1-0.8-0.3-1.7-0.6-2.5
		c-1.4-4.6-2.8-9.1-3.4-13.9c-0.3-2.7,0.2-5.4,1.5-7.8c0.5-1,0.9-2.2,1.6-3.1c1.3-1.8,2.4-3.8,4.4-5c1.2-0.7,2.3-1.7,3.5-2.3
		c1.2-0.6,2.4-1,3.7-1.3c2-0.3,4-0.4,6.1-0.6C39.9,1.6,39.9,1.6,39.9,1.7z M88.7,154.3c-0.2,0.1-0.4,0.3-0.6,0.4
		c-0.4,0.2-0.8,0.4-1.1,0.4c-1-0.1-1.7-1.3-1.5-2.3c0.6-2.4,1.6-4.5,3.4-6.2c1.2-1.2,2-2.5,1.7-4.3c0-0.2,0-0.5,0-0.7
		c0-1.4,0-2.9,0-4.3c0-0.8-0.2-1.6-0.2-2.3c0-1.2,0.1-2.4,0.3-3.5c0.6-3.1,0.2-6.2,0-9.3c-0.1-0.9-0.5-1.8-0.5-2.7
		c0-0.1,0-0.1-0.1-0.2c-0.5-0.6-0.5-1.3-0.4-2c0-0.3,0-0.7-0.1-1c-0.5-2.1-1-4.3-1.5-6.4c-0.4-1.9-0.7-3.8-1-5.7
		c-0.6-3.7-3.9-6.7-7.5-7.5c-1.1-0.2-2.2-0.2-3.3,0c-1,0.1-2,0.2-3,0.4c-0.6,0.1-1.1,0.5-1.7,0.7c-1.4,0.4-2.7,0.9-4.2,1.2
		c-2.5,0.5-4.5,1.9-6.3,3.5c-2.1,1.9-4.5,3.5-7,4.9c-1.5,0.8-2.9,1.7-4.3,2.7c-1.7,1.2-3.4,2.5-5.1,3.7c-0.8,0.6-1.6,1.3-2.3,1.9
		c-1.1,1-2.1,2-3.3,2.9c-1.9,1.5-3.9,2.8-5.9,4.2c-0.4,0.3-0.5,0.6-0.3,1c0.3,0.5,0.6,0.9,1,1.3c0.3,0.3,0.7,0.5,1,0.8
		c3,3.1,6.6,5.4,10.4,7.3c3.1,1.5,6.4,2.8,9.6,4.1c1.8,0.7,3.7,0.8,5.4,1.9c0,0,0.1,0,0.2-0.1c0.3-1.2,0.6-2.4,0.9-3.6
		c0.6-2.1,1-4.3,1-6.5c0-4.1,0.1-8.2,0.1-12.4c0-0.2,0-0.4,0.1-0.6c0.1-0.2,0.3-0.4,0.5-0.4c0.1,0,0.3,0.2,0.4,0.4
		c0.1,0.2,0.1,0.4,0.1,0.6c0,1.8-0.1,3.6-0.1,5.4c0,1.8-0.3,3.7,0.4,5.5c0.2,0.5,0.4,1,0.6,1.5c1,2.5,2,5.1,3.1,7.6
		c0.2,0.5,0.6,0.6,1,0.3c0.2-0.1,0.4-0.3,0.6-0.4c0.9-0.4,1.9-0.6,2.8-1c2.5-1.1,4.9-0.7,7.2,0.6c0.6,0.4,1.3,0.7,1.9,1
		c2.2,1.2,4,2.8,5.1,5c0.7,1.4,0.4,2.9-1.5,3c-0.5,0-1,0-1.4,0c-0.2,0-0.5,0.2-0.6,0.3c-0.3,0.6-0.6,1.3-0.9,2
		c-0.3,0.7-0.7,1-1.5,1.1c-1,0.1-1.3,0.4-1.3,1.4c0,0.7-0.4,1-1,1c-0.8,0.1-1.5,0.1-2.3,0.2c-0.6,0-0.8,0.2-0.5,0.8
		c0.4,0.7,0.8,1.4,1.2,2c0.9,1.6,1.9,3.2,2.7,4.8c0.8,1.6,1.4,3.3,2.6,4.7c1.5,1.7,2.8,3.5,4.1,5.3c1.1,1.5,1.8,3.2,1.6,5.2
		c-0.1,0.9,0.1,1.8,0.1,2.7c0.3,3.7,0.4,7.4-0.9,11c-0.4,0.9-0.4,2-0.5,3c-0.1,1.2,0.4,1.7,1.6,1.8c0.6,0,1.3,0.1,1.9,0.1
		c1.8,0,3.6-0.1,5.4-0.2c0.2,0,0.5-0.2,0.7-0.3c-0.1-0.2-0.2-0.4-0.3-0.7c-0.5-0.8-1.1-1.6-1.3-2.4c-0.6-1.8,0.6-4.2,2.4-4.8
		c0.2-0.1,0.5,0.1,0.7,0.1c-0.1,0.3-0.1,0.6-0.2,0.7c-0.4,0.4-0.8,0.7-1.2,1.1c-0.9,0.9-1.1,2.2-0.5,3.3c0.8,1.5,1.9,2.8,3.7,3.2
		c0.7,0.2,1.3,0.6,1.7,1.2c0.3,0.4,0.6,0.8,0.9,1.2c0.3,0.5,0.2,0.8-0.3,0.9c-0.6-0.7-1.1-1.4-1.6-2c-0.1-0.2-0.4-0.2-0.7-0.2
		c-0.1,0.2-0.2,0.5-0.1,0.7c0.1,0.3,0.3,0.7,0.5,0.9c0.6,0.8,0.8,1.9,1.8,2.4c1.4,0.8,2.8,0.4,4.2,0.1c0.4-0.1,0.8-0.2,1.2-0.2
		c2.2,0.1,2.8-0.1,2.6-2.5c0-0.2-0.1-0.3-0.1-0.5c-0.2-0.8-0.4-1.6-0.6-2.4c0-0.2,0.2-0.5,0.3-0.7c0.2,0.1,0.5,0.2,0.6,0.4
		c0.3,0.7,0.5,1.4,0.6,2.1c0.1,1,0.1,2,0.2,3c0,0.2,0.2,0.6,0.4,0.6c0.7,0.2,1.4,0.2,2.2,0.3c0-1.6,0-3.2,0-4.7
		c0-0.2,0.2-0.3,0.2-0.5c0.1,0.2,0.4,0.3,0.4,0.5c0.2,0.9,0.3,1.8,0.4,2.8c0,2.1,0.1,2.2,2.1,2.8c0,0,0,0,0.1,0c1,0.3,1.4,0,1.3-1.1
		c-0.1-1.3-0.2-2.5-0.3-3.8c0-0.5,0-0.9,0.5-0.9c0.5-0.1,1,0,1,0.7c0,0.4,0.1,0.9,0.1,1.3c0,1.2-0.1,2.5-0.1,3.7
		c1.1,0,2.3-0.2,3.3-0.8c0.8-0.5,1.1-0.9,0.8-1.8c-0.1-0.5-0.3-0.9-0.5-1.4c-0.1-0.2,0-0.5,0-0.8c0.3,0,0.6,0,0.8,0.1
		c0.2,0.1,0.4,0.3,0.5,0.5c0.2,0.5,0.4,1.1,0.5,1.7c0.1,0.7,0.4,1,1,1c2.2,0.3,4.4,0.5,6.6-0.2c0.6-0.2,0.9-0.5,1.2-1
		c0.3-0.6,0.8-1.1,1.1-1.8c0.4-0.7,0.8-1.5,0.3-2.4c-0.5-0.9-1.2-1.5-2.4-1.5c-1.6,0-2.9,0.7-4.2,1.6c-0.5,0.3-0.9,0.5-1.4,0.1
		c-2-1.3-3.4-3.2-4.8-5c-1.1-1.5-2.2-2.9-3.4-4.4c-0.4-0.5-1-1-1.6-1.5c-1.7-1.2-3-2.8-4.3-4.4c-1.3-1.8-2.6-3.6-3.8-5.4
		c-1.2-1.9-2.4-3.8-3.6-5.7c-0.6-1-1.1-2.1-1.9-3c-1.7-2.1-2.6-4.4-3-7c0-0.2-0.1-0.4-0.2-0.8c-0.9,0.8-1.5,1.9-3,1.6
		c-1.3-0.3-2.2-0.8-2.5-2.3c-0.5,0.4-0.8,0.7-1.2,1.1C91.9,156.7,89.7,156.3,88.7,154.3z M61.9,48.4c-0.2,0.3-0.2,0.3-0.3,0.4
		c-0.1,0.3-0.2,0.5-0.3,0.8c-0.6,2.4-1.3,4.8-2.5,6.9c-0.2,0.3-0.3,0.6-0.3,0.9c-0.4,1.3-0.7,2.6-1,3.9c-0.1,0.5-0.3,0.9-0.9,0.7
		c-0.5-0.2-0.5-0.7-0.4-1.1c0.2-0.6,0.4-1.3,0.7-1.9c0.5-1.3,0.9-2.6,1.5-3.8c0.8-1.5,1.4-3,1.7-4.6c0.2-1,0.7-2,1-3
		c0.2-0.6,0.3-1.3,0.2-2c-0.2-1.5-0.6-2.9-0.9-4.4c-0.1-0.6-0.4-0.8-0.9-0.8c-0.5,0-1.1,0.1-1.6,0c-1-0.1-1.4-0.5-1.5-1.5
		c-0.1-0.9-0.2-1.7-0.2-2.6c0-0.6-0.3-1-0.8-1.4c-1.3-1-1.9-2.5-0.9-4c0.4-0.6,1-1,1.6-1.3c0.7-0.4,1-0.8,1.1-1.6
		c0.1-0.9-0.4-1.6-1-2.2c-0.4-0.5-0.3-0.9,0.1-1.3c0.4-0.4,0.9-0.2,1.1,0.2c0.4,0.8,0.7,1.7,0.9,2.5c0.4,1.6-0.4,3-2,3.5
		c-0.7,0.2-1.1,0.7-1.2,1.4c-0.1,0.7,0.2,1.1,0.7,1.4c0.4,0.3,0.8,0.1,1.2-0.1c1.6-1.1,2.5-2.7,2.5-4.7c0-1.1,0.1-2.2-0.1-3.2
		c-0.1-0.9-0.5-1.7-0.8-2.6c-0.2-0.6-0.7-1.1-1-1.6c-0.3-0.5-0.6-0.6-1.1-0.4c-0.8,0.2-1.2,0.8-1.3,1.5c-0.3,1.2-0.6,2.4-0.8,3.6
		c-0.2,0.7-0.5,1.1-1.2,1.3c-0.7,0.1-1.3,0-1.7-0.6c-1.3-1.7-2.7-3.4-4-5.2c-0.6-0.8-1.2-1.3-2.2-1.3c-1.6-0.1-2.5-1-2.5-2.6
		c0-0.1,0-0.2,0-0.4c0-1.1-0.5-2-1.5-2.7c-2-1.3-4.2-1.7-6.5-1.6c-1.1,0-2,0.4-2.8,1.2c-0.6,0.6-1.2,1.1-1.8,1.7
		c-1.3,1.1-2.6,1.8-4.5,1.2c-1.2-0.4-2.3-0.1-3,1.1c-0.4,0.7-1.1,1.2-1.7,1.7c-0.4,0.3-0.5,0.6-0.5,1.1c0.3,3.2,1,6.3,2,9.3
		c0.9,2.6,1.6,5.2,1.9,8c0.3,3,1.2,5.8,3.1,8.2c0.2,0.2,0.3,0.6,0.4,0.8c0.4,0.5,0.8,1.1,1.3,1.5c0.9,0.7,1.9,1.3,2.9,2
		c1.7,1.2,3.3,2.6,5,3.8c1.2,0.8,2.5,1,3.8,0.4c2.2-0.9,4.2-2.2,6-3.9c1-0.9,1.9-1.8,2.8-2.6c0.8-0.7,1.7-1.4,2.2-2.5
		c0.1-0.2,0.5-0.2,0.7-0.3c0.1,0.3,0.3,0.6,0.2,0.8c-0.3,0.5-0.6,1-1,1.4c-1.6,1.7-3.2,3.4-4.9,5c-0.9,0.8-1.9,1.4-2.9,2.1
		c-0.4,0.3-0.9,0.5-1.3,0.7c-1.9,1-3.8,1.2-5.7,0.1c-1-0.6-2-1.3-2.9-1.9c-0.4-0.3-0.8-0.5-1.4-0.8c0.1,0.3,0.1,0.4,0.1,0.4
		c0.6,1.3,1.2,2.6,1.8,3.9c0.4,0.8,0.9,1.7,1.5,2.4c0.4,0.4,1.1,0.5,1.5,0.9c1.9,1.5,3.7,3.1,5.6,4.6c0.9,0.7,1.6,1.6,2.8,1.9
		c0.4,0.1,1.1,0.2,0.8,0.8c-0.3,0.7-0.9,0.2-1.3,0.1c0,0-0.1,0-0.1-0.1c-1.6-1.2-3.2-2.3-4.8-3.6c-1.2-1-2.4-2.1-3.5-3.1
		c-0.2-0.2-0.5-0.3-0.7-0.3c0.3,2.3,0.7,4.5,1,6.8c0.2,1.9,0.4,3.8,0.5,5.7c0.1,1.8,0.1,3.5,0.2,5.3c0.2,1.9,0.9,3.6,2.4,4.9
		c0.8,0.7,1.5,1.4,2.2,2.2c1.4,1.5,3,2.5,5.1,2.5c1,0,1.9-0.1,2.9-0.1c0.3,0,0.6,0,0.9,0c0.8-0.1,1.6-0.1,2.4-0.2
		c0.5-0.1,1-0.3,1.5-0.5c0.5-0.2,1-0.3,1.4-0.5c1.6-0.9,3.1-1.8,4.6-2.8c1.1-0.8,2.1-1.7,3.1-2.7c0.5-0.6,0.8-1.4,1.1-2.1
		c0.3-0.7,0.8-1.4,0.9-2.2c0.5-4.1,0.3-8.2-1-12.3c-0.5-1.4-0.9-2.8-1.3-4.2c-0.4-1.5-0.5-3.1-0.8-4.7c-0.2-1.3-0.5-2.7-0.8-4
		C62.5,51.3,62.2,49.9,61.9,48.4z M28,84.3c0.6-0.5,1.1-1,1.7-1.3c1.3-0.8,2.2-2,3-3.2c0.4-0.7,0.9-1.6,0.9-2.4
		c0.1-2.4,0.1-4.7,0-7.1c0-0.8-0.2-1.5-0.4-2.3c-0.6-2.4-1.3-4.8-1.9-7.2c-0.4-1.7-0.9-3.2-1.7-4.8c-1-2-2.7-3.1-4.7-3.8
		c-0.2-0.1-0.4,0-0.5,0c-1,0.8-2.2,1.2-3.4,1.8c-1.9,1-3.6,2.4-5.1,3.9c-1.2,1.2-2.3,2.5-2.7,4.1c-0.4,1.5-0.9,3.1-1.1,4.7
		c-0.4,3.9-0.7,7.7-1,11.6c-0.2,3-0.2,6.1-0.3,9.1c0,0.2,0,0.4,0,0.6c-0.1,1.4-0.3,2.9-0.4,4.3c-0.1,1.3,0,2.6-0.1,3.9
		c-0.1,1.3,0.4,2.6-0.1,3.8c0,0.1,0,0.2,0,0.4c0.1,1.5,0.2,2.9,0.3,4.4c0.3,3.2,0.5,6.4,0.8,9.6c0.3,2.6,0.7,5.1,1.1,7.7
		c0.3,1.9,0.7,3.8,1.8,5.4c0.3,0.5,0.7,0.9,1.1,1.3c0.8,1.1,1.4,2.5,2.7,3.3c0.2,0.1,0.2,0.3,0.4,0.4c0.5,0.6,0.9,1.2,1.5,1.6
		c1.2,0.9,2.5,1.7,3.8,2.5c1.2,0.7,2.4,1.4,3.7,1.9c2.5,1,5,1.9,7.5,2.8c3,1.1,6.1,2.1,9.1,3.2c2,0.7,4,1.5,5.9,2.4
		c2.3,1.1,4.4,2.8,6.3,4.5c0.8,0.7,1.4,1,2.6,0.9c2.3-0.2,4.7,0,7,0c1.1,0,2.1,0,3.2,0c-0.4-1.5-0.8-2.9-1.2-4.4
		c-0.3-0.9-1-1.4-2-1.2c-0.2,0-0.4,0-0.6,0c-0.7,0-1.1-0.4-1.1-0.9c0-0.5,0.5-0.8,1.2-0.8c0.9,0.1,1.8,0.2,2.6,0.4
		c0.3,0.1,0.6,0.3,0.7,0.5c0.3,0.8,0.6,1.6,0.8,2.5c0.1,0.4-0.2,0.8-0.1,1.2c0.3,0.9,0.6,1.7,1,2.6c0.4-0.2,1-0.3,1.4-0.5
		c0.7-0.5,1.4-0.9,1.8-1.6c0.2-0.3-0.1-1-0.2-1.6c0-0.1,0-0.2-0.1-0.3c-0.5-1.3-1-2.7-1.5-4c-0.2-0.6-0.6-1-1.4-0.7
		c-0.2,0.1-0.5-0.3-0.7-0.4c0.1-0.2,0.2-0.5,0.5-0.6c0.7-0.3,1.6,0,2.1,0.5c1.5,1.7,2,3.8,2.5,5.9c0,0.2,0.3,0.4,0.4,0.4
		c0.5,0.1,1,0.1,1.4,0.1c1.3,0,2.1-0.9,1.9-2.2c-0.1-0.7-0.2-1.5-0.5-2.2c-0.4-0.9-0.9-1.8-1.4-2.7c-0.3-0.5-0.7-0.6-1.3-0.4
		c-0.3,0.1-0.7,0.1-1,0c-0.2,0-0.4-0.3-0.4-0.5c0-0.2,0.2-0.4,0.4-0.5c1.3-0.7,2.5-0.4,3.5,0.7c1.2,1.3,1.4,3,2,4.6
		c0.1,0.3,0.1,0.7,0.6,0.6c1-0.2,2.1-1.4,1.8-2.5c-0.2-1.1-0.6-2.2-1-3.2c-0.2-0.4-0.7-0.7-1-1c-0.2-0.2-0.6-0.3-0.6-0.4
		c0-0.3,0.1-0.6,0.3-0.8c0.2-0.1,0.6-0.1,0.8,0c0.4,0.2,0.8,0.6,1.1,0.9c0.6,0.8,1.1,1.7,1.6,2.5c0.8,1.3,0.8,1.3,2.3,0.7
		c0.5-0.2,0.6-0.5,0.3-1c-0.4-0.7-0.8-1.5-1.4-2c-1.7-1.3-3.4-2.6-5.3-3.7c-0.8-0.5-1.9-0.7-2.8-0.9c-2.9-0.5-5.3,1.2-7.7,2.4
		c-1.2,0.6-2.3,1.4-3.4,2.1c-0.6,0.4-1.3,0.6-1.5,1.4c0,0.1-0.5,0.3-0.7,0.2c-0.8-0.4-1.5-0.9-2.3-1.4c-1-0.6-2-1.3-3.1-1.7
		c-1.8-0.7-3.7-1.2-5.5-1.9c-2.1-0.8-4.1-1.7-6.1-2.7c-1.7-0.8-3.3-1.8-5-2.8c-1.4-0.8-2.9-1.7-4-2.8c-2.4-2.3-4.9-4.4-7.5-6.3
		c-0.9-0.6-1.6-1.4-1.8-2.5c-0.1-0.7-0.1-1.3,0-2c0.3-4.3-0.7-8.6-0.8-12.9c-0.1-3.4-0.4-6.7-0.3-10.1c0.1-4.4,0.4-8.8,0.7-13.3
		c0-0.9,0.1-1.7,0.2-2.6c0-0.3,0.4-0.5,0.6-0.7c0.2,0.2,0.4,0.5,0.5,0.7c0.1,0.3,0.1,0.7,0.2,1.1c0.1,0.5,0.1,1,0.1,1.5
		C28.2,82.5,28.1,83.4,28,84.3z M105.8,149.4c1.1-1.5,2.1-3.1,3.3-4.6c2.3-2.8,3.6-6,3.7-9.7c0-1,0.1-2.1,0.3-3.1
		c0.5-2.3,0.4-4.5-0.2-6.8c0-0.1,0-0.2,0-0.3c0.1-0.7,0.2-1.5,0.3-2.2c0.1-1,0-2.1,0.2-3.1c0.5-2.4,1.2-4.7,1.8-7.1
		c0.6-2.4,1.3-4.8,2-7.2c0.6-2.1,0.8-4.3,0.6-6.5c0-0.4-0.1-0.8-0.6-0.9c-0.4-0.1-0.5-0.6-0.1-0.7c0.6-0.2,0.5-0.6,0.6-1
		c0-0.5,0-1-0.1-1.4c-0.2-1.3-0.6-2.5-0.7-3.8c-0.1-0.9-0.4-1.8-0.9-2.5c-1.8-2.6-3.5-5.1-5.3-7.7c-0.8-1.1-1.4-2.4-2.3-3.5
		c-1.3-1.8-2.7-3.5-4.1-5.2c-1.8-2.2-3.8-4.3-5.9-6.2c-1.5-1.3-3.1-2.6-4-4.4c-1.1-2.3-2.8-4.2-4.3-6.2c-1.2-1.6-2.6-3.1-3.9-4.6
		c-1.1-1.3-2.2-2.7-3.5-3.9c-1-1-2.1-1.8-3.1-2.8c-1.4-1.4-3-2.3-4.9-2.6c-2.4-0.4-4.9-0.6-7.4-0.8c-0.7-0.1-1.5,0.2-2.3,0.3
		c-0.4,0.1-0.6,0.4-0.6,0.8c0.2,2.1,0.6,4.2,1.3,6.2c1.1,3,2.1,6,2.6,9.1c0.3,1.7,0.5,3.3,1,4.9c1.2,3.6,2.7,7.2,5.1,10.3
		c0.3,0.5,0.8,0.8,1.3,1.2c0.1-0.6,0.1-1,0.1-1.5c-0.1-3.3,0-6.7-0.5-10c0-0.2,0.2-0.4,0.3-0.6c0.2,0.1,0.5,0.2,0.5,0.4
		c0.1,0.5,0.1,1,0.3,1.5c0.2,0.7,0.3,1.5,0.8,2c0.6,0.6,1.4,1,2.1,1.6c1.2,1.1,2.5,2.1,3.6,3.3c0.6,0.6,1,1.4,1.6,2.1
		c2.1,2.4,4.2,4.7,6.2,7.1c1.7,2,3.3,4.1,5.1,6c1.4,1.4,2.8,2.8,4.1,4.3c1,1.1,2,2.2,2.7,3.6c0.7,1.2,1.1,2.5,1,3.8
		c-0.1,2.3-0.5,4.7-0.8,7c-0.3,2.5-0.6,5.1-0.9,7.6c-0.1,0.7-0.3,1.5-0.2,2.2c0.4,2.3-0.4,4.5-0.9,6.7c-0.8,3.4-2.9,6.1-5.7,8.3
		c-0.2,0.2-0.4,0.4-0.6,0.6c-0.6,0.7-1.3,1.4-1.9,2.2c-0.8,0.9-1.1,1.9-1.1,3.1c0.1,0,0.2,0.1,0.2,0.1c0,0,0.1,0,0.1,0
		c1-0.6,2-0.6,3.1,0.1c0.4,0.2,0.6,0,0.7-0.4c0.3-1.1,0.5-2.3,0.8-3.4c0.1-0.4,0.4-0.7,0.7-1c0.2,0.4,0.4,0.8,0.6,1.1
		c0,0,0,0.1,0,0.1c-0.1,1.9-0.5,3.7-1.4,5.4c-0.5,0.9-0.7,2-1.4,2.7c-1.2,1.4-2.1,2.9-2.7,4.5c-0.2,0.4-0.2,1-0.1,1.4
		c0.1,0.7,0.1,0.9-0.6,1.2c-0.3,0.1-0.6,0.3-0.8,0.5c-0.8,0.9-1.5,1.9-2.3,2.9c-0.3,0.4-0.6,0.9-0.9,1.4c0.4,0.1,0.8,0.1,1,0.3
		c0.6,0.4,1,0.1,1.3-0.4c2.1-3,4.2-6,6.3-9c1-1.4,2-2.8,3-4.2c0.1-0.2,0.4-0.3,0.7-0.3c0.1,0,0.3,0.4,0.3,0.5c0,0.3-0.2,0.5-0.3,0.8
		c-0.3,0.4-0.7,0.8-1,1.3c-2.1,3-4.1,5.9-6.1,8.9c-0.6,1-1.1,2-1.7,3.2c1.5-0.1,2.1,0.8,2.8,1.9c0.4-0.6,0.8-1.2,1.2-1.7
		c1-1.7,2.1-3.4,3.5-4.8c0.5-0.5,0.9-1.1,1.2-1.7c1-1.7,2-3.3,3-5c0.2-0.3,0.4-0.6,0.8-0.4c0.4,0.2,0.5,0.5,0.4,1
		c-0.1,0.2-0.2,0.5-0.4,0.7c-0.2,0.4-0.5,0.8-0.7,1.2c-0.9,1.8-1.8,3.7-2.8,5.5c-0.3,0.6-0.9,1.1-1.3,1.7c-0.4,0.6-0.8,1.2-1.2,1.7
		c0.8,0.4,1.6,0.7,2.4,1.1c0.3-0.6,0.7-1.2,1.1-1.9c1.1-1.8,2.2-3.6,3.3-5.4c0.4-0.6,0.9-1.2,1.3-1.8c0.7-1.1,1.2-2.3,1.8-3.4
		c0.2-0.4,0.5-0.7,0.9-0.4c0.4,0.2,0.4,0.6,0.2,1c-0.8,1.3-1.6,2.7-2.4,4c-0.5,0.9-1.2,1.7-1.7,2.4
		C104.9,148.4,105.4,148.9,105.8,149.4z M3.9,155.3c0,0,0.1,0,0.1,0c0.1,0.8,0,1.5,0.2,2.3c0.4,1.8,0.6,3.7,1.5,5.4
		c0.5,1,1.3,1.8,1.9,2.7c1.7,2.5,3.7,4.7,6.2,6.2c1.3,0.8,2.7,1.4,4.3,1.1c0.2,0,0.4,0,0.6,0c1.9,0,3.8,0,5.7-0.2
		c1.5-0.1,3-0.3,4.6-0.5c0.9-0.1,1.8-0.1,2.6-0.2c1-0.1,2-0.3,3-0.5c0.8-0.2,1.6-0.4,2.3-0.7c1-0.4,2-1,3-1.5
		c1.9-0.9,3.8-1.7,5.6-2.7c1.7-1,3.2-2.3,4.7-3.5c0.2-0.1,0.3-0.3,0.4-0.5c0.3-0.5,0.5-1.2,1-1.5c1.7-1.6,2.7-3.8,4.1-5.6
		c0.6-0.8,0.3-2.2-0.4-2.9c-2.4-2.1-4.9-4-7.8-5.2c-2.7-1.1-5.6-2-8.4-3c-2.6-1-5.3-2-7.9-3c-1.7-0.6-3.5-0.9-5-1.8
		c-2.9-1.7-5.6-3.6-8.3-5.4c-0.3-0.2-0.5-0.3-0.8-0.4c-0.9-0.3-1.8,0.1-2.5,0.5c-3.2,1.7-5.6,4.2-7.7,7c-1.9,2.5-2.8,5.5-2.9,8.6
		C3.9,151.8,3.9,153.5,3.9,155.3z M114.4,134.1c-0.1,0-0.1,0-0.2,0c-0.1,0.8-0.3,1.6-0.3,2.5c0,2.2-0.9,4.2-2.1,6
		c-1.8,2.9-3.8,5.7-5.7,8.5c-0.9,1.3-2,1.6-3.5,1c-0.6-0.3-0.7,0-0.9,0.5c-0.3,0.8-0.2,1.5-0.2,2.3c0.1,2.7,1.1,5,2.6,7.2
		c0.6,0.8,1.1,1.6,1.6,2.5c1,1.7,2,3.5,3.1,5.2c1,1.5,2.2,2.8,3.2,4.3c1.1,1.6,2.2,3.2,3.7,4.6c1.7,1.6,3.5,3,4.8,5
		c0.6,0.9,1.4,1.8,2.1,2.6c0.9,1.1,1.9,2.2,2.8,3.4c1.2,1.6,1.1,1.8,3.4,0.8c1-0.5,2.1-0.8,3.2-1.2c0.3-0.1,0.8,0,1.1,0.1
		c1.8,0.6,2.8,2,2.8,3.9c0,1.4,0.5,2.5,2.3,2.3c1.1-0.1,1.5-0.5,1.5-1.6c0.1-1-0.3-1.8-0.8-2.6c-1-1.8-2.1-3.3-4.1-4.3
		c-1.8-0.8-3.5-1.8-5-3.1c-3.4-2.9-7-5.7-9.1-9.9c-0.8-1.5-1.8-3-2.6-4.5c-0.6-1.3-1.6-2.4-2-3.8c-0.5-1.5-0.8-3.2-0.8-4.8
		c-0.1-1.9,0.2-3.7,0.3-5.6c0.1-2.2,0.2-4.3-0.3-6.5c-0.4-1.4-0.7-2.9-0.8-4.3c-0.2-2.8-0.1-5.6-0.2-8.5
		C114.4,135.3,114.4,134.7,114.4,134.1z M92,129.8c0.1,0,0.2,0.1,0.3,0.1c0.3-0.4,0.7-0.7,1-1.1c0.5-0.6,0.9-1.3,1.6-1.7
		c1.3-0.9,2.4-2,3.2-3.3c0.5-0.7,0.9-1.5,1.2-2.4c0.3-1.1,0.4-2.3,0.6-3.5c0.3-2.3,0.7-4.5,1-6.8c0.5-4.8,1.6-9.6,1.5-14.5
		c0-1.3-0.2-2.5-1-3.5c-0.4-0.6-0.9-1.1-1.4-1.6c-0.7-0.8-1.4-1.6-2.2-2.4c-0.2-0.2-0.6-0.4-1-0.4c-3.9-0.2-7.3,1-10.1,3.7
		c-1.1,1.1-2.2,2.2-3.3,3.3c-0.5,0.5-0.4,0.9,0.2,1.2c0.2,0.1,0.5,0.2,0.7,0.4c2,1.9,3.6,4.1,4.1,6.9c0.3,1.6,0.9,3.2,1.2,4.9
		c0.7,3.5,1.2,7,2,10.5c0.7,3,0.7,6.1,0.5,9.1C92,129.1,92,129.5,92,129.8z M73.9,151.6c-0.2,0.2-0.2,0.4-0.4,0.5
		c-0.7,0.5-1.4,1.3-2.2,1.4c-1.8,0.2-3.7,0.2-5.6,0.2c-2.3,0-4.6,0-6.9,0c-0.3,0-0.8,0.3-1,0.6c-1.5,2.2-2.9,4.5-4.4,6.7
		c-0.5,0.8-0.9,1.4-0.9,2.5c0.1,1.9,0,3.8-0.7,5.7c-0.1,0.4-0.2,0.7-0.2,1.1c0,0.2,0.2,0.6,0.4,0.7c1.3,0.4,2.6,0.5,4,0
		c0.3-0.1,0.6-0.2,0.9-0.2c3.1-0.1,6.1-0.2,9.2-0.2c1.4,0,2.7-0.2,3.8-1c0.9-0.6,1.8-1.3,2.7-2c1.4-1.1,2.8-2.1,4.2-3.2
		c0.7-0.6,1.4-1.2,2-1.8c0.3-0.3,0.4-0.9,0.3-1.3c-0.5-1.5-1-3-1.8-4.4C76.3,155.1,75.1,153.4,73.9,151.6z M77.5,89.4
		c-0.1,0-0.2,0-0.3,0c0,1.6,0,3.2,0,4.7c0,0.5,0.2,0.8,0.7,0.9c0.9,0.1,1.8,0.2,2.7,0.5c1,0.4,1.6,0.4,2.4-0.5
		c1.1-1.3,2.4-2.4,3.5-3.7c1.4-1.7,3.3-2.4,5.3-3.2c1.1-0.4,2.3-0.5,3.4-0.7c0.3-0.1,0.6-0.3,0.6-0.5c0-0.2-0.2-0.6-0.4-0.8
		c-0.4-0.5-1-0.8-1.4-1.3c-2.3-2.8-4.6-5.6-6.9-8.3c-0.7-0.8-1.5-1.5-2.2-2.3c-1.3-1.5-2.4-3-3.7-4.5c-1-1.1-2.2-2-3.3-2.9
		c-0.4-0.3-0.6-0.2-0.7,0.2c-0.1,0.2-0.1,0.5-0.1,0.8c0,3.1,0.1,6.2,0.1,9.3C77.2,81.1,77.3,85.2,77.5,89.4z M44,112.6
		c0-0.1-0.1-0.1-0.1-0.2c-1.6,0-3.2,0.1-4.8,0c-3.5-0.1-7-0.7-10.2-2.4c-0.3-0.1-0.6-0.1-0.9-0.2c0,0.3-0.1,0.6-0.1,0.9
		c0.1,2.1,0.3,4.2,0.4,6.4c0.1,0.8,0.1,1.7,0,2.5c0,1.8,2.7,3.1,4.2,1.9c1.9-1.4,3.9-2.6,5.8-4.1C40.3,115.8,42.1,114.2,44,112.6z
		 M63.8,130.4c-0.4,1.6-0.6,2.9-1,4.3c-0.4,1.5-0.8,3-1.1,4.5c-0.1,0.3,0.1,0.6,0.2,0.8c0,0.1,0.4,0.1,0.5,0c1.3-0.6,2.6-1.3,3.9-2
		c0.5-0.2,0.6-0.5,0.4-1c-0.7-1.7-1.4-3.4-2.1-5.1C64.5,131.4,64.2,131,63.8,130.4z M12.8,128.5c-0.4-1.2-0.9-2.2-1.1-3.2
		c-0.3-1-0.3-2.1-0.5-3.2c-0.3,0.4-0.5,0.8-0.7,1.1c-0.3,0.7-0.6,1.5-1,2.1c-1.2,1.9-2.4,3.9-3.2,6.1c-0.1,0.2,0.1,0.6,0.1,0.9
		c0.3-0.1,0.6-0.2,0.7-0.3c1.2-1.3,2.6-2.4,4.3-3.1C11.9,128.7,12.4,128.6,12.8,128.5z M49.7,6.8c0.2-0.2,0.5-0.3,0.6-0.5
		c0.1-0.2,0.1-0.6,0-0.8c-0.2-0.3-0.4-0.5-0.7-0.7c-0.8-0.5-1.5-1.2-2.5-1.1c-0.3,0-0.6,0.3-0.8,0.5c0.2,0.3,0.3,0.6,0.6,0.8
		c0.6,0.5,1.3,0.9,2,1.4C49.2,6.5,49.4,6.6,49.7,6.8z M92.2,136.3c-0.1,0-0.1,0.1-0.2,0.1c0.4,0.5,0.6,1.2,1.1,1.6
		c0.3,0.2,1.4-1.1,1.4-1.5c0-0.6-0.5-1.2-1-1.2C92.8,135.3,92.2,135.7,92.2,136.3z M97.6,155.3c0.7,0,1-0.4,1.1-1.3
		c0-0.4-0.6-0.7-1.3-0.7c-0.8,0-1.3,0.3-1.4,0.9C96.1,154.6,96.8,155.3,97.6,155.3z M91.4,154.9c0,0,0,0.1,0.1,0.1
		c0.3-0.2,0.8-0.3,0.9-0.6c0.1-0.3-0.1-0.8-0.3-1.1c-0.6-0.7-1-0.7-1.7,0.1c-0.2,0.2-0.5,0.6-0.4,0.7c0.2,0.3,0.6,0.5,0.9,0.7
		C91.1,154.9,91.3,154.9,91.4,154.9z M104.9,150.4c0-0.7-0.5-1.6-0.8-1.4c-0.3,0.1-0.5,0.6-0.6,0.9c-0.1,0.5-0.1,1.1,0.6,1.2
		C104.7,151.1,104.8,150.7,104.9,150.4z M86.9,153.3c0,0.1,0.1,0.4,0.2,0.4c0.2,0,0.5-0.1,0.6-0.2c0.3-0.2,0.4-0.6,0.7-0.9
		c0.3-0.5,0-0.6-0.3-0.7C87.4,151.9,86.9,152.4,86.9,153.3z M91.9,139.2c0,0.5,0.1,0.8,0.1,1.1c0.1,0,0.1,0.1,0.2,0.1
		c0.2-0.3,0.4-0.5,0.7-0.9C92.5,139.3,92.3,139.3,91.9,139.2z"/>
	<path class="st0" d="M98.4,171.2c-0.1,0.3-0.2,0.6-0.3,0.8c-1,1.8-2,3.5-3,5.3c-0.4,0.7-0.8,1.5-1.3,2.2c-0.2,0.3-0.5,0.6-0.9,0.3
		c-0.2-0.2-0.2-0.7-0.1-0.9c1.2-2.1,2.5-4.2,3.8-6.3c0.3-0.5,0.4-1,0.7-1.5c0.1-0.2,0.4-0.4,0.6-0.4C98.1,170.7,98.3,171,98.4,171.2
		z"/>
</g>
</svg>
