<?xml version="1.0" encoding="utf-8"?>
<!-- Generator: Adobe Illustrator 19.2.1, SVG Export Plug-In . SVG Version: 6.00 Build 0)  -->
<svg version="1.1" id="Layer_1" xmlns="http://www.w3.org/2000/svg" xmlns:xlink="http://www.w3.org/1999/xlink" x="0px" y="0px"
	 viewBox="0 0 103.5 200" style="enable-background:new 0 0 103.5 200;" xml:space="preserve">
<style type="text/css">
	.st0{fill:#C2185B;}
</style>
<g id="pelvic-main">
	<path class="st0" d="M89.3,0c0,0.5,0,1-0.1,1.5C88.6,3.3,88,5.2,87.3,7c-1.1,2.9-1.8,5.9-2,9.1C85,20,85,23.9,84.9,27.9
		c0,0.3,0,0.7,0.1,1.2c0.6-0.7,1.1-1.3,1.6-1.9c0.4-0.5,0.8-0.9,1.3-1.3c0.2-0.2,0.5-0.1,0.8-0.1c0,0.3,0,0.7-0.1,0.9
		c-0.6,0.8-1.4,1.5-2,2.3c-1.6,1.9-2.1,4.3-3,6.5c-0.9,2.3-1.8,4.6-2.7,7c-0.4,1.2-0.7,2.5-1.1,3.7c-0.2,0.6-0.2,1.3-0.4,1.9
		c-0.9,3.8-1.7,7.7-2.6,11.5c-0.8,3.8-2.1,7.3-4.1,10.7C72,71.4,71.4,72.7,71,74c-1,3.2-2.9,5.7-5.2,8.1C65,82.9,65,83.3,66,83.9
		c3.4,2.1,6.4,4.8,8.6,8.1c1.7,2.6,3.4,5.1,5.1,7.7c0.1,0.1,0.2,0.2,0.4,0.5c0.4-1,0.8-1.8,1-2.7c0.2-0.9,0.4-1.9,0.4-2.9
		c0.1-3.1,0.1-6.3,0.3-9.4c0.1-1.9,0.6-3.7,1.5-5.5c1.8-3.6,3.5-7.3,5.2-10.9c1.2-2.5,2.5-5,3.6-7.6c0.6-1.5,1-3.2,1.5-4.8
		c0.3-1,0.7-1.9,1-2.9c0.5-1.5,1.1-3,1.6-4.5c0.3-0.9,0.7-1.7,0.9-2.6c0.3-1,0.4-2,0.6-2.9c0.4-1.7,0.7-3.3,1.1-4.9
		c0.1-0.4,0.2-0.8,0.3-1.2c0.3-2.9,0.5-5.8,0.7-8.7c0.2-2.3,0.4-4.6,0.5-6.8c0.3-3.7,0.5-7.3,0.8-11c0.1-1,0.4-2,0.6-3
		c0.3-2.1,0.6-4.3,0.9-6.4c0.1-0.4,0.1-0.9,0.2-1.3c0.3,0,0.5,0,0.8,0c-0.1,1.8-0.1,3.7-0.4,5.5c-0.3,2.2-0.8,4.4-1.1,6.6
		c-0.2,1.1-0.1,2.2-0.2,3.3c-0.2,3.2-0.5,6.4-0.7,9.5c-0.3,4-0.6,8-1,12.1c-0.1,1.3-0.5,2.5-0.7,3.7c-0.2,1.3-0.5,2.5-0.8,3.8
		c-0.2,1.1-0.3,2.3-0.8,3.1c-1,1.6-1.4,3.4-2.1,5.1c-0.6,1.5-0.9,3.1-1.4,4.7c-0.5,1.5-1,2.9-1.5,4.4c-0.6,1.7-0.8,3.3-0.3,5.1
		c0.6,2.3,1.3,4.6,1.6,7c0.6,4.4,0.9,8.8,1.3,13.2c0.3,3,0.6,6,0.8,9c0.1,1.2,0,2.5-0.1,3.7c-0.3,2.1,0.1,4,1.1,5.8
		c0.4,0.7,0.6,1.5,0.9,2.3c0.1,0.3,0.2,0.6,0.3,0.9c0.1,0.2,0.2,0.5,0.1,0.7c-0.4,1.1-0.1,2.1,0,3.1c0.1,1.7,0.3,3.3,0.3,5
		c-0.1,4.4,0.2,8.9,0.9,13.2c0.7,4.2,0.7,8.5,0.8,12.7c0,1.3-1.6,2.4-2.9,2.1c-1.3-0.3-2.6-0.7-3.9-1c-1.4-0.4-2.5,0.1-2.9,1.5
		c-0.5,1.5-1.5,2.3-3.1,2.4c-1.7,0.1-3.3,0.3-5,0.5c-0.3,0-0.7,0.3-0.7,0.5c-0.8,3.1-2.3,5.9-3.8,8.7c-0.7,1.3-0.7,2.6,0.1,3.9
		c0.4,0.8,0.7,1.7,0.8,2.7c0.5,4.2,0.7,8.5-0.9,12.6c-0.3,0.7-0.7,1.4-1,2.2c-0.3,0.8-0.8,1.7-0.8,2.5c-0.2,2.8-0.1,5.6,0.7,8.4
		c0.9,3,1.4,6,2.1,9.1c-0.4,0-0.7,0-1,0c-0.4-1.7-0.9-3.4-1.3-5.1c-0.5-2.3-1.1-4.5-1.6-6.8c-0.2-1.1-0.1-2.2-0.1-3.2
		c0-0.7,0-1.4,0-2.1c-0.1,0-0.1-0.1-0.2-0.1c-0.4,0.5-0.8,1-1.1,1.5c-1,1.5-1.8,3.1-3,4.4c-2.3,2.6-4,5.5-5.2,8.7
		c-0.3,0.9-0.8,1.7-1.4,2.5c-0.2,0.3-0.8,0.3-1.2,0.5c-0.1-0.1-0.1-0.2-0.2-0.2c0.2-0.4,0.4-0.8,0.6-1.1c1.1-1.6,1.9-3.3,2.3-5.3
		c0.2-0.9,0.9-1.7,1.6-2.5c2.3-2.7,4.4-5.6,6.3-8.6c0.3-0.5,0.7-1.1,1.2-1.5c2.3-2,3-4.8,3.3-7.6c0.2-2,0.1-4,0-6
		c-0.1-1.4-0.3-2.8-0.6-4.2c-0.3-1.3-1-2.6-1.4-3.9c-0.5-1.9-0.8-3.9-1.1-5.9c-0.4-2.6-0.8-5.3-2.4-7.6c-0.3-0.4-0.5-0.7-0.9-1.1
		c-0.6,0.8-1.1,0.5-1.8,0.2c-1.1-0.4-2.2-0.7-3.4-0.8c-1.5-0.1-3,0-4.5,0c-2.6,0-5.1,0.5-7.7,1.1c-2.5,0.6-5.1,0.8-7.7,1.1
		c-1.8,0.2-3.7,0.3-5.5,0.4c-0.2,0-0.4,0.1-0.7,0.1c0.5,0.9,0.9,1.8,1.3,2.7c1,2.5,2,5,3,7.5c0.6,1.5,1.1,2.9,1.7,4.4
		c1.1,2.7,2.2,5.4,3.3,8.2c0.7,1.8,0.8,3.6,0.6,5.5c-0.1,0.7-0.6,1.4-1,2.1c-1.2,1.9-2.4,3.7-3.7,5.6c-0.5,0.7-1,1.4-1.5,2.1
		c-1.3,2-2.6,4-3.9,6c-0.5,0.7-0.9,1.4-1.4,2.1c-1.1,1.7-2.1,3.5-3.2,5.2c-0.1,0.2-0.2,0.4-0.3,0.7c-0.3,1-0.7,1.2-2,1
		c1.1-1.8,2.1-3.7,3.2-5.4c0.9-1.5,1.9-2.9,2.8-4.4c1.5-2.4,3.1-4.8,4.7-7.1c1.6-2.3,3.2-4.7,4.7-7c0.3-0.5,0.4-1.1,0.4-1.7
		c0.1-2.6-0.7-5-1.7-7.4c-1.1-2.5-2.1-5.1-3.1-7.7c-1.3-3.1-2.5-6.2-3.8-9.3c-0.3-0.8-0.8-1.6-1.2-2.4c-0.1-0.2-0.5-0.3-0.7-0.3
		c-2.1,0.2-4.3,0.4-6.4,0.6c-1.3,0.1-2.6,0.4-3.9,0.5c-1.4,0.1-2.8,0.3-4.1,0.2c-0.8-0.1-1.6-0.6-2.3-1.1c-0.4-0.4-0.8-0.6-1.4-0.5
		c-1.8,0.3-3.5,0.5-5.3,0.8c-2.1,0.3-4.1,0.1-6.2-0.4c-1.2-0.3-2.3-0.8-3.5-1.2c-0.7-0.2-1-0.7-1-1.5c0-2.7,0.2-5.4-0.1-8.1
		c-0.3-3-0.2-5.9-0.3-8.9c-0.1-2.6,0.6-5.1,1-7.6c0.3-1.8,0.5-3.7,0.7-5.5c0.3-2.9,0.6-5.8,0.9-8.6c0.3-3.8,0.5-7.7,0.9-11.5
		c0.4-3.6,0.9-7.3,1.4-10.9c0-0.2,0.1-0.4,0.1-0.6c0.1-2.9,0-5.9,0.3-8.8c0.3-3.2,0.8-6.4,1.4-9.6c0.6-2.9,1.5-5.8,2.3-8.7
		c0.5-1.8,1-3.7,1.5-5.5c0.4-1.6,0.3-2.9-0.8-4.3c-1.3-1.9-2.2-4-3.1-6.2c-0.9-2.3-1.6-4.7-2.3-7.1c-1.2-3.9-2.4-7.9-3.5-11.8
		c-0.8-2.8-1.4-5.6-2.2-8.5C2.6,9.1,1.9,6.2,1.1,3.4C0.9,2.6,0.5,2,0.2,1.3C0.1,0.9,0.1,0.4,0,0c0.5,0,1,0,1.4,0c0,0.3,0,0.6,0,0.8
		C2,2.6,2.6,4.4,3.2,6.2c0.4,1.3,0.9,2.6,1.3,3.9c0.8,2.8,1.5,5.6,2.2,8.4c0.7,2.7,1.3,5.5,2.1,8.3c0.9,3.1,1.7,6.3,2.8,9.4
		c1,2.8,2.2,5.5,3.5,8.1c0.8,1.7,1.9,3.2,2.8,4.8c1,2.1,1.8,4.3,2.9,6.4c1.7,3.2,3.5,6.2,6,8.9c2.4,2.5,4.5,5.2,6.8,7.8
		c2.6,3,5.3,5.8,7.7,8.9c2.9,3.6,5.6,7.4,8.5,11c3.1,3.8,5.2,8.1,7.6,12.3c1.1,1.9,2.2,3.8,3.3,5.7c0.1,0.1,0.2,0.3,0.4,0.4
		c0.1-0.2,0.2-0.2,0.2-0.3c0-1.5,0-2.9,0-4.4c0-0.3,0.2-0.8,0.5-0.8c0.5-0.1,0.6,0.3,0.6,0.7c0.2,2.6,0.4,5.1,0.5,7.7
		c0,1.2,0.2,2.2,0.9,3.2c0.2,0.3,0.3,0.8,0.5,1.2c0.5,1.3,1.1,2.7,1.6,4c0.2,0.5,0.7,0.6,1,0.4c0.3-0.1,0.7-0.5,0.7-0.8
		c0-0.8-0.3-1.7-0.4-2.5c-0.1-0.8-0.3-1.7-0.4-2.5c-0.1-3.3-0.2-6.7-0.3-10c0-0.4-0.2-0.8-0.2-1.3c0-0.3,0.3-0.5,0.4-0.8
		c0.2,0.2,0.5,0.4,0.6,0.6c0.1,0.4,0.2,0.8,0.2,1.3c0.1,2.8,0.2,5.7,0.4,8.5c0,1.1-0.1,2.1,0.6,3.1c0.6,0.9,0.8,1.9,1.3,2.9
		c0.5,1,1.4,1.3,2.2,0.7c0.3-0.2,0.5-0.6,0.6-0.9c0.1-1.3,0.1-2.6,0.1-3.9c-0.1-3.2-0.3-6.3-0.5-9.5c-0.1-0.9-0.4-1.9-0.5-2.8
		c-0.1-1.1-0.2-2.2-0.1-3.3c0.1-1.3,0.3-2.6,0.5-3.9c0-0.2,0.4-0.4,0.5-0.4c0.4,0.2,0.7,0.5,1.1,0.9c0.1,0.1,0.1,0.4,0,0.5
		c-0.3,1.4,0.6,2.2,1.6,2.9c0.6,0.5,1.2,1.2,1.8,1.7c0.3,0.3,0.5,0.7,0.8,0.7c0.5,0.1,1.1,0.2,1.5,0c0.3-0.2,0.5-1,0.4-1.3
		c-0.6-1.4-1.3-2.9-2.1-4.2c-1.5-2.3-3.2-4.7-4.9-6.9c-1.4-1.9-3-3.7-5.1-4.8c-1.3-0.7-2.7-1.3-3.9-2.2c-1.8-1.2-3.5-2.5-5-4
		c-1.8-1.7-3.5-3.6-5.2-5.5c-0.8-0.8-1.5-1.7-2.2-2.6c-0.9-1.2-1.8-2.3-2.6-3.6c-0.6-0.9-1-2-1.3-3.1c-0.9-3.1-2.4-5.8-4.1-8.5
		c-0.9-1.5-1.7-3-2.6-4.6c-0.2-0.4-0.4-0.9-0.7-1.3c-2.3-2.9-4-6.2-5.8-9.5c-1.4-2.6-2.8-5.2-4.5-7.7c-0.7-1.1-2-1.8-3.1-2.6
		c-0.9-0.6-2-0.9-3-1.4c-0.2-0.1-0.3-0.3-0.3-0.5c0-0.2,0.2-0.4,0.4-0.4c0.4,0,0.8,0.1,1.1,0.2c0.7,0.2,1.3,0.5,2,0.8
		c0-1.4,0-2.7,0-3.9c-0.1-2.6-0.2-5.1-0.4-7.7c-0.1-1-0.2-2-0.4-3c-0.2-1.3-0.5-2.7-0.7-4c-0.1-0.7-0.4-1.3-0.5-2
		c-0.2-1.2-0.3-2.4-0.4-3.5c-0.1-1.7-0.4-3.2-1.4-4.7c-0.2-0.3-0.3-0.8-0.4-1.3c0.5,0,1,0,1.4,0c0.3,0.6,0.6,1.3,1,1.9
		c1.6,3,1,6.3,1.8,9.5c0.4,1.8,0.7,3.7,0.9,5.6c0.2,1.4,0.4,2.8,0.4,4.3c0.1,2.9,0.1,5.7,0.2,8.6c0,0.7,0.2,1.2,0.8,1.6
		c1.5,1,2.3,2.6,3.2,4.1c2.6,4.5,4.8,9.1,7.7,13.4c2.2,3.4,4,7,6.2,10.4c1.1,1.7,1.8,3.6,2.4,5.4c0.9,2.6,2.4,4.8,4.1,6.9
		c1.5,1.8,3.3,3.4,5,5.1c1,1.1,1.9,2.3,3,3.4c0.8,0.8,1.8,1.4,2.7,2.1c0.5,0.4,1,0.1,1.5-0.3c1.7-1.4,2.8-3.4,4-5.2
		c1-1.4,1.4-3,1.9-4.5c0.2-0.7,0.6-1.3,0.9-1.9c0.9-1.9,1.9-3.7,2.6-5.6c0.9-2.5,1.7-5.1,2.3-7.7c0.6-2.4,0.9-4.9,1.4-7.3
		c0.2-0.8,0.5-1.6,0.6-2.5c0.3-2.2,1-4.3,1.9-6.4c0.8-1.7,1.2-3.6,1.9-5.4c0.2-0.7,0.5-1.5,0.8-2.1c0.5-0.9,0.6-1.8,0.6-2.8
		c0-3.7,0.1-7.4,0.2-11.1c0.1-2,0.5-4,0.7-6.1c0.4-2.9,1.4-5.6,2.4-8.3c0.6-1.6,1-3.3,1.5-5C88.7,0,89,0,89.3,0z M16.4,49.2
		c-0.2,0.8-0.4,1.5-0.6,2.2c-0.7,2.8-1.2,5.6-2.1,8.3c-1.1,3.4-1.9,6.9-2.3,10.5c-0.4,4.1-0.5,8.2-0.8,12.3c0,0.5,0,1-0.1,1.4
		c-0.3,2.6-0.7,5.2-1,7.8c-0.5,5.1-1,10.3-1.5,15.4c-0.4,4.2-0.8,8.4-1.2,12.6c-0.2,1.6-0.4,3.1-0.6,4.7c-0.2,1.5-0.5,3-0.5,4.5
		c0,2.8,0.2,5.7,0.2,8.5c0.1,2.2,0.1,4.5,0.2,6.7c0,0.3,0.2,0.8,0.5,0.9c1,0.3,2,0.5,3.1,0.7c1.1,0.2,2.2,0,3.3,0.3
		c1.5,0.5,2.9,0.4,4.3-0.1c1.5-0.6,3-0.7,4.5-0.4c0.3,0.1,0.8,0.2,0.9,0.5c0.3,0.9,1,1.1,1.8,1.1c1.7,0,3.4,0.1,5.1-0.2
		c2.7-0.5,5.4-0.6,8.1-0.9c1-0.1,1.2-0.5,0.6-1.4c-0.4-0.7-0.9-1.3-1.2-2c-0.1-0.3,0-0.6,0.1-1c0.3,0.1,0.8,0.2,1,0.4
		c0.6,0.9,1.2,1.8,1.7,2.8c0.3,0.6,0.6,0.8,1.2,0.8c1.7-0.1,3.5-0.2,5.2-0.3c1.3-0.1,2.6-0.2,4-0.4c0.9-0.1,1.7-0.2,2.6-0.4
		c1.9-0.4,3.7-1,5.6-1.2c2.6-0.3,5.3-0.3,8-0.3c0.9,0,1.8,0.2,2.7,0.4c0.7,0.1,1.3,0.2,2,0.2c0.6,0,0.9-0.4,0.7-0.9
		c-0.2-0.6-0.5-1.2-0.7-1.7c-0.5-1-1.1-2-1.4-3.1c-0.3-1.3-0.3-2.7-0.4-4.1c-0.1-0.7-0.2-1.4-0.4-2c-1.6-3.7-3.3-7.4-4.9-11.1
		c-1-2.3-1.9-4.7-2.9-7.1c-1-2.4-2.3-4.6-3.9-6.6c-0.4-0.5-0.6-1.1-1-1.5c-1.2-1.5-2.4-2.9-3.8-4.3c-1.3-1.4-2.9-2.5-4.9-2.8
		c-0.6-0.1-1.2-0.5-1.8-0.8c-0.2-0.1-0.3-0.4-0.3-0.6c0.1-0.2,0.4-0.4,0.6-0.4c0.2,0,0.5,0.2,0.7,0.3c0.5,0.2,1,0.4,1.5,0.6
		c0.9,0.4,1.8,0.7,2.6,1.1c1,0.6,1.9,1.2,2.9,1.9c-0.8-1.6-1.7-3.2-2.7-4.6c-1.4-2.1-3-4-4.4-6.1c-3.1-4.5-6.7-8.6-10.3-12.7
		c-1.2-1.4-2.6-2.6-3.8-4c-1.7-1.9-3.4-3.9-5-5.8c-0.1-0.1-0.3-0.3-0.4-0.4c-1.8-1.7-3.3-3.6-4.7-5.7c-2.1-3.2-3.7-6.7-5.2-10.2
		C16.9,50.2,16.7,49.8,16.4,49.2z M91.2,66.1c-0.2,0.2-0.2,0.3-0.3,0.4c-1.1,2.3-2.3,4.7-3.4,7c-1.8,3.6-3.5,7.2-4.3,11.2
		c-0.5,2.5-0.5,5.1-0.5,7.6c0,2.2,0.1,4.4-0.7,6.5c-0.4,1.1-0.9,2.2-1,3.3c-0.1,1.4-0.7,2.6-1.5,3.6c-1.5,2-3.2,3.8-4.8,5.7
		c-0.9,1.1-1.5,2.2-1.3,3.7c0.2,1.6,0.2,3.2,0.2,4.8c0,2-1.9,3.2-3.7,2.2c-0.4-0.2-0.8-0.5-1.3-0.9c-0.1,1.3-1.1,1.7-2,2.1
		c1.1,2.5,2.2,5,3.2,7.5c0.3,0.7,0.6,1.5,0.6,2.3c0,2.5,0.6,4.8,1.7,7c0.5,1,1.2,2,1.2,3c0,1.2,0.6,1.9,1.1,2.8
		c0.3,0.5,0.7,0.9,0.9,1.4c0.4,1,1.1,1.4,2.2,1.2c0.2,0,0.3,0,0.5-0.1c3.1-0.4,6.2-0.9,9.3-1.2c1.4-0.2,2.5-0.6,2.9-2.2
		c0.1-0.5,0.6-1.2,1-1.3c1-0.2,2-0.2,3.1-0.2c1.3,0,2.5,0.3,3.8,0.3c1,0,1.4-0.4,1.5-1.5c0-0.6,0-1.2,0-1.8c-0.3-3.5-0.5-7-0.8-10.5
		c-0.3-3-1.2-5.8-0.9-8.9c0.1-1.1,0.1-2.1,0.1-3.2c-0.1-2.6-0.2-5.1-0.5-7.7c-0.2-1.5-0.6-3-1.1-4.4c-0.7-1.8-1.3-3.6-1.2-5.6
		c0.2-2.2,0.2-4.4,0.1-6.6c-0.2-2.9-0.5-5.7-0.8-8.6c-0.1-0.7-0.1-1.4-0.2-2.1c-0.2-1.8-0.4-3.6-0.7-5.4c-0.4-2.4-0.7-4.8-1.1-7.2
		C92.1,69.1,91.6,67.7,91.2,66.1z M73.3,111.5c1.7-2,3.3-3.9,4.8-5.9c0.1-0.1-0.1-0.7-0.3-0.9c-0.9-0.7-1.8-1.4-2.7-2.1
		c-0.7-0.6-1.4-1.2-2.1-1.9c-0.1,0-0.2,0.1-0.3,0.1C72.9,104.4,73.1,107.8,73.3,111.5z M80.8,149.3c-0.3,0-0.7,0-1,0
		c-1.2,0.2-2.4,0.4-3.6,0.7c-0.2,0-0.4,0.4-0.3,0.6c0.3,2.4,0.7,4.8,1.1,7.1c0,0.1,0.1,0.2,0.3,0.4
		C78.7,155.3,80.4,152.6,80.8,149.3z"/>
	<path class="st0" d="M28.3,125.6c0.4,0.2,0.7,0.3,0.8,0.4c0.5,0.6,0.9,1.3,1.3,1.9c0.1,0.2,0,0.7-0.2,0.7c-0.3,0.1-0.8,0.2-0.9,0
		c-0.5-0.8-0.9-1.6-1.3-2.4C27.9,126.1,28.2,125.8,28.3,125.6z"/>
	<path class="st0" d="M31,131.8c0.2-0.4,0.3-0.7,0.4-0.7c0.2,0,0.6,0.1,0.7,0.2c0.4,0.6,0.7,1.2,1,1.9c0.1,0.2-0.1,0.6-0.3,0.7
		c-0.1,0.1-0.6,0-0.7-0.1C31.8,133.2,31.4,132.5,31,131.8z"/>
	<path class="st0" d="M34.3,136c0.3,0.2,0.5,0.2,0.6,0.3c0.4,0.6,0.8,1.2,1.1,1.8c0.1,0.2-0.1,0.6-0.2,0.7c-0.2,0.1-0.7,0.1-0.8,0
		c-0.4-0.6-0.8-1.2-1.1-1.9C33.8,136.7,34.1,136.3,34.3,136z"/>
</g>
</svg>
