<?xml version="1.0" encoding="utf-8"?>
<!-- Generator: Adobe Illustrator 19.2.1, SVG Export Plug-In . SVG Version: 6.00 Build 0)  -->
<svg version="1.1" id="Layer_1" xmlns="http://www.w3.org/2000/svg" xmlns:xlink="http://www.w3.org/1999/xlink" x="0px" y="0px"
	 viewBox="0 0 117.4 200" style="enable-background:new 0 0 117.4 200;" xml:space="preserve">
<style type="text/css">
	.st0{fill:#512DA8;}
</style>
<g id="skin-main">
	<path class="st0" d="M90.9,191.3c0,3,0,5.8,0,8.7c-0.3,0-0.6,0-0.8,0c0-1.4,0-2.8,0-4.2c0-1.5,0-3-0.1-4.6c0-0.1-0.1-0.2-0.3-0.3
		c-1.5-0.8-3.1-1.2-4.8-1.5c-1-0.1-1.9-0.5-2.8-0.8c-2.1-0.5-4-1.5-5.9-2.5c-1.3-0.7-2.5-1.4-3.8-2.1c-1.3-0.7-2.6-1.5-4-2.2
		c-0.7-0.4-1.5-0.5-2.2-0.8c-0.4-0.1-0.8-0.3-1.1-0.5c-1.2-0.8-2.5-1.3-3.8-1.8c-1.2-0.4-2.2-1.2-3.3-1.9c-0.9-0.6-1.9-1.3-2.7-2
		c-1.5-1.4-3.2-2.4-4.9-3.3c-1.1-0.6-2.3-1.2-3.5-1.7c-1.4-0.6-2.9-0.5-4.4-0.1c-0.1,0-0.2,0.1-0.3,0.1c-1.7,1.2-3.6,2.1-4.9,3.8
		c-0.3,0.3-0.7,0.6-1.1,0.8c-0.8,0.4-1.1,1.2-1.1,2c0,0.9,0.2,1.9,0.4,2.8c0.4,1.4,0.8,2.8,1.3,4.2c0.5,1.4,0.8,2.7,0.8,4.2
		c-0.1,1.6,0,3.1-0.1,4.7c-0.1,1-0.2,2.1-0.4,3.1c-0.3,1.2-0.2,2.4,0,3.7c0,0.3,0.1,0.6,0.1,0.9c-0.3,0-0.6,0-0.9,0
		c-0.3-1.7-0.4-3.4,0-5.2c0.2-1.1,0.3-2.3,0.4-3.4c0.1-1.3,0.1-2.6,0.1-3.9c0-1.8-0.5-3.4-1.2-5c-0.1-0.3-0.3-0.3-0.5-0.2
		c-0.7,0.4-1.5,0.7-2.2,1.1c-0.9,0.5-1.8,1-2.7,1.5c-0.5,0.2-1,0.4-1.5,0.4c-0.2,0-0.4-0.3-0.6-0.4c0.2-0.1,0.4-0.3,0.6-0.4
		c0.4-0.2,0.8-0.2,1.2-0.4c1.7-0.8,3.3-1.7,5-2.5c0.3-0.2,0.4-0.3,0.3-0.6c-0.3-1-0.6-2-0.8-3c-0.1-0.8-0.1-1.6-0.2-2.5
		c-0.5,0.3-1.1,0.7-1.6,1c-1.3,0.8-2.5,1.7-3.8,2.5c-1.4,0.9-2.8,1.7-4.3,2.5c-1,0.5-1.9,1.1-2.7,1.9c-1,1-2.2,1.1-3.4,0.7
		c-1-0.3-2-0.7-2.7-1.6c-0.2-0.2-0.2-0.6-0.3-0.9c-0.1-0.2-0.1-0.3-0.2-0.6c-1.6,2.2-3.1,1.1-4.6-0.2c0,0.9,0.1,1.8,0,2.6
		c-0.1,0.7-0.3,1.4-0.4,2.1c-0.1,0.6-0.2,1.2-0.3,1.8c-0.2,4.1-0.3,8.2-0.4,12.4c0,0.1,0,0.1,0,0.2c-0.3,0-0.5,0-0.8,0
		c0-0.9,0-1.7,0-2.5c0-2.1,0.1-4.2,0.1-6.4c0-1.6,0.1-3.2,0.2-4.7c0.1-0.7,0.5-1.4,0.5-2.2c0.1-1.3,0.2-2.7,0-4
		c-0.1-0.6-0.5-1.1-0.9-1.6c-0.6-0.7-1-1.4-0.9-2.3c0-0.1,0-0.1,0-0.2c0-0.1,0-0.1,0-0.1c-0.8-0.2-1.6-0.3-2.3-0.6
		c-1.8-0.8-2.6-2.9-1-4.8c0.5-0.6,1.1-1.1,1.7-1.7c0.1-0.1,0-0.5-0.1-0.5c-1.1-0.5-1.8-1.6-2.7-2.4c-0.5-0.5-0.5-1.2-0.4-1.8
		c0.2-1,0.9-1.9,1.7-2.6c0.5-0.5,1.1-0.9,1.6-1.4c0.2-0.2,0.5-0.3,0.9-0.6c-0.1-0.4-0.3-0.9-0.3-1.5c-0.2-1-0.3-2.1-0.4-3.1
		c-0.3-1.6-0.6-3.1-0.9-4.7c-0.2-1.2-0.6-2.4-0.8-3.7c-0.1-0.6-0.1-1.2-0.2-1.8c-0.1-1-0.2-2-0.3-3c-0.1-1.9-0.7-3.6-1.1-5.4
		c-0.6-3.3-1.3-6.7-1.9-10c-0.3-1.6-0.4-3.2-0.6-4.8c-0.1-1.1-0.3-2.3-0.4-3.4c-0.1-0.9-0.1-1.8-0.2-2.6C0.1,114,0,112.4,0,110.9
		c0.1-1.7,0.2-3.4,0.8-5c0.2-0.6,0.6-1.2,0.9-1.9c0.3-0.7,0.5-1.3,0.8-2c0.3-0.7,0.6-1.3,1-1.9C4.3,98.6,5.1,97,6,95.5
		c0.6-0.9,1.4-1.5,2-2.4c0.7-1,1.6-1.5,2.8-1.8c0.9-0.2,1.7-0.7,2.5-1c1.4-0.5,2.9-1,4.3-1.6c0.9-0.4,1.7-0.9,2.5-1.6
		c1-0.8,1.9-1.8,2.8-2.8c0.9-1,1.5-2.2,1.9-3.5c0.5-1.9,1.2-3.7,2-5.5c0.3-0.6,0.4-1.2,0.5-1.8c0.1-0.2,0.1-0.5,0.2-0.7
		c0.7-1.1,0.8-2.4,0.9-3.6c0.1-1.1,0.1-2.2,0.1-3.3c0-2.5-0.4-4.9-1.1-7.3c-0.2-0.6-0.3-1.1-0.3-1.7c-0.1-4.3-0.1-8.6-0.2-12.8
		c0-2.2,0.3-4.4,0.8-6.5c0.4-1.9,1-3.8,1.5-5.7c0.3-1.3,0.6-2.6,0.9-3.9c0.1-0.5,0.4-1,0.6-1.4c0.4-1.1,0.9-2.2,1.1-3.4
		c0.2-1,0.7-2,1.2-2.9c0.6-1.2,1.3-2.3,2.1-3.4c0.9-1.3,1.9-2.5,2.8-3.7c1.4-1.9,2.9-3.8,4.6-5.4c0.7-0.7,1.6-1.2,2.4-1.8
		c0.8-0.5,1.6-0.9,2.4-1.4C47.7,4.4,48,4,48.5,3.7C50,3,51.5,2.2,53.1,1.5c1.5-0.6,3.1-1.1,4.7-1.4c1-0.2,2-0.1,3-0.1
		c0.5,0,1.1,0,1.6,0c0.9,0,1.8,0.2,2.6,0.6c2,0.9,4,1.7,5.9,2.5c0.7,0.3,1.4,0.8,2,1.3c1,0.9,1.8,2,2.5,3.1c0.7,1.1,1.6,2.1,2.4,3.2
		c0.6,0.8,1.1,1.7,1.6,2.6c1.2,1.9,2.5,3.8,3.7,5.8c1.4,2.5,2.5,5.2,3.2,8.1c0.8,3.4,1.8,6.8,2.7,10.1c0.5,1.8,0.9,3.6,1.1,5.5
		c0.2,1.8,0.5,3.7,0.7,5.5c0.2,1.7,0.3,3.5,0.6,5.2c0.3,1.8,0.8,3.6,1.3,5.3c0.5,2.1,1,4.3,1.5,6.4c0,0.2,0.1,0.3,0.1,0.5
		c0.7,1.2,0.8,2.6,1.1,4c0.2,0.9,0.5,1.8,0.7,2.7c0.4,1.8,0.7,3.7,0.7,5.6c0,0.2,0,0.4,0.1,0.5c0.4,1.4,0.7,2.8,1.1,4.2
		c0.1,0.6,0.4,1,0.8,1.4c0.8,0.8,1.6,1.7,2.5,2.5c1.1,1.1,2.6,1.6,4,2.3c2.3,1.1,4.5,2.3,6.8,3.5c1.3,0.7,2,1.8,2.8,3
		c1.1,1.7,1.8,3.5,2,5.5c0.2,1.6,0.3,3.2,0.3,4.8c0.1,1.6,0.1,3.3,0.2,4.9c0.1,1.3-0.1,2.6-0.3,3.9c-0.3,1.4-0.5,2.9-0.7,4.3
		c-0.3,2.3-0.6,4.6-0.9,6.9c0,0.2,0.1,0.5,0.1,0.7c0,0.1,0.1,0.3,0,0.4c-0.4,1.4-0.8,2.8-1.1,4.3c-0.2,0.7-0.3,1.4-0.4,2.2
		c-0.2,1.6-0.3,3.1-0.4,4.7c-0.1,1.2-0.1,2.4-0.1,3.6c-0.1,2.2,0,4.4-0.3,6.6c-0.3,2.3-0.9,4.5-1.8,6.6c-1,2.4-1.7,4.9-2.1,7.4
		c-0.3,1.7-0.7,3.3-1.1,4.9c-0.7,3.1-1.4,6.2-2.2,9.3c-0.2,0.9-0.6,1.8-0.9,2.7c-0.1,0.4-0.3,0.9-0.5,1.3c-0.3,0.7-0.6,1.5-1,2.1
		c-1.1,1.8-2,3.8-3.4,5.5c-0.1,0.2-0.2,0.3-0.3,0.5c-0.5,1.5-1.7,2.3-3.1,2.8c-0.7,0.2-1.3,0.4-2,0.5c-1.1,0.3-2.2-0.1-3.2-0.5
		C91.6,191.5,91.3,191.4,90.9,191.3z M7.3,167.8c0.6-0.8,1.5-1.3,2.4-1.8c0.7-0.3,1.3-0.8,1.9-1.1c0.9-0.4,1.8-0.7,2.7-1.1
		c0.3-0.1,0.6,0.1,0.5,0.4c-0.1,0.2-0.3,0.5-0.5,0.6c-0.7,0.3-1.5,0.5-2.2,0.8c-1.7,0.8-3.3,1.7-4.6,3.2c-0.7,0.8-1.5,1.6-2.2,2.4
		c-0.9,1-0.8,2.1,0.2,2.9c0.4,0.4,1,0.6,1.6,0.7c0.8,0.1,1.5-0.1,2.2-0.7c0.6-0.6,1.3-1,2.1-1.4c1.4-0.8,2.9-1.3,4.2-2.3
		c0.3-0.3,0.8-0.5,1.2-0.7c0.4-0.2,0.8-0.1,0.9,0.3c0.2,0.4-0.1,0.7-0.5,0.8c-0.5,0.2-1,0.3-1.4,0.6c-0.8,0.4-1.7,1-2.5,1.4
		c-1.3,0.7-2.8,1.3-3.8,2.4c-0.1,0.2-0.4,0.3-0.4,0.4c-0.1,0.6-0.2,1.3,0.3,1.8c0.4,0.4,0.8,0.8,1,1.3c0.5,1,1.4,1.6,2.3,2.2
		c1.2,0.8,1.9,0,2.1-1c0.2-1,0.7-1.6,1.6-2c1.8-0.9,3.5-1.8,5.3-2.7c0.2-0.1,0.4-0.2,0.7-0.3c0.4-0.1,0.8-0.1,1,0.3
		c0.2,0.5,0,0.8-0.5,1c-0.5,0.2-1,0.4-1.5,0.6c-0.7,0.4-1.4,0.9-2.1,1.3c-1.1,0.6-1.9,1.4-2.4,2.5c-0.3,0.6-0.3,0.9,0.3,1.3
		c0.6,0.4,1.2,0.8,1.9,1.1c0.7,0.3,1.4,0.3,2.1-0.1c0.4-0.3,0.7-0.6,1-0.9c0.5-0.4,1.1-0.9,1.7-1.2c2.4-1,4.4-2.4,6.6-3.8
		c1.3-0.8,2.5-1.7,3.8-2.5c0.6-0.4,1.3-0.6,1.9-1c1.1-0.9,2-1.9,3.1-2.7c1.4-1.1,2.7-2.3,4.6-2.5c1.1-0.1,2.2-0.2,3.2,0.2
		c1.4,0.6,2.8,1.3,4.2,2c2,1,3.7,2.3,5.5,3.8c1.6,1.3,3.2,2.7,5.2,3.4c1.2,0.5,2.4,0.9,3.6,1.6c0.5,0.3,1.1,0.6,1.7,0.7
		c1.7,0.4,3.1,1.3,4.6,2.1c2.4,1.3,4.7,2.6,7.1,4c2,1.1,4.3,1.7,6.5,2.2c1.4,0.3,2.7,0.5,4,1.1c1.2,0.5,2.4,1,3.7,1.4
		c0.6,0.2,1.3,0.3,2,0.2c0.8-0.1,1.6-0.4,2.3-0.7c1.1-0.4,1.9-1.1,2.3-2.2c0.2-0.5,0.6-1,0.9-1.5c0.6-0.9,1.2-1.9,1.7-2.8
		c0.2-0.4,0.4-0.8,0.6-1.1c0.4-0.8,0.9-1.5,1.3-2.3c0.1-0.2,0.1-0.3,0.2-0.5c0.2-0.5,0.4-1,0.6-1.6c0.1-0.4,0.3-0.8,0.4-1.2
		c0.8-3.3,1.6-6.6,2.4-9.9c0.3-1.2,0.6-2.3,0.8-3.5c0.2-1.2,0.3-2.3,0.6-3.5c0.5-1.8,1.1-3.7,1.6-5.5c0.4-1.2,0.9-2.3,1.3-3.5
		c0.6-1.9,0.9-3.9,0.8-6c-0.1-1.3,0.1-2.7,0.1-4c0-0.8,0.1-1.6,0.1-2.4c0.1-1.8,0.2-3.6,0.4-5.4c0.1-1,0.3-2,0.5-3
		c0.2-0.8,0.4-1.6,0.6-2.5c0.2-1.1,0.2-2.1,0.4-3.2c0.1-0.8,0.1-1.5,0.2-2.3c0.2-1.3,0.4-2.6,0.6-3.9c0.2-1.3,0.5-2.7,0.6-4
		c0.2-1.2,0.4-2.4,0.4-3.5c0-2.6-0.1-5.2-0.3-7.8c-0.1-1.1-0.2-2.1-0.4-3.2c-0.2-1.4-0.7-2.7-1.4-3.9c-0.7-1.1-1.3-2.3-2.5-3.1
		c-2.4-1.6-4.9-2.8-7.5-3.9c-1.6-0.6-3.1-1.5-4.3-2.8c-0.4-0.4-0.8-0.9-1.3-1.4c0,0.2-0.1,0.2-0.1,0.2c0,0.1,0.1,0.2,0.1,0.3
		c0.4,1.2,0.9,2.4,0.8,3.7c0,0.6,0,1.3,0.3,1.7c0.8,1.3,1,2.8,1.5,4.2c0.1,0.3,0.1,0.6,0.1,0.9c0,0.7,0,1.4,0.1,2.1
		c0.4,2.2,0.2,4.2-0.8,6.2c-0.2,0.3-0.3,0.7-0.6,1c-1,1.5-1.7,3.1-3.1,4.3c-0.7,0.6-1.3,1.3-2,1.9c-0.4,0.4-0.8,0.9-1.3,1.2
		c-1.7,1-3.5,2-5.2,2.9c-1.1,0.6-2.2,1-3.4,1.4c-1.4,0.5-2.8,0.8-4.2,1.2c-0.8,0.2-1.1,0.1-1.2-0.8c-0.1-0.8-0.1-1.6-0.2-2.4
		c-0.3-2.6-0.7-5.1-1-7.7c-0.3-2-0.6-3.9-0.9-5.9c-0.4-2.3-1.3-4.4-2.5-6.5c-0.3,0.3-0.6,0.5-0.8,0.9c-0.5,0.7-1.3,1.1-2.1,1.4
		c-0.7,0.3-1.5,0.5-2.2,0.8c-1.1,0.5-2.1,0.9-3.1,1.4c-0.5,0.2-1,0.5-1.5,0.7c-0.2,0.1-0.4,0-0.6,0c0-0.2,0-0.4,0.1-0.6
		c0-0.1,0.1-0.1,0.2-0.2c0.6-0.3,1.2-0.5,1.8-0.8c0.8-0.4,1.7-0.7,2.5-1.1c0.5-0.2,1.1-0.5,1.6-0.7c0.5-0.2,1.2-0.3,1.6-0.6
		c0.8-0.6,1.4-1.4,2.1-2.1c-0.2-0.2-0.4-0.4-0.6-0.5c-0.4-0.3-0.8-0.5-1.2-0.8c-0.5-0.4-1-0.8-1.3-1.4c-0.8-1.8-1.2-3.7-1.2-5.7
		c0-2.8,0.1-5.6,0.1-8.4c0-0.2-0.1-0.4-0.1-0.7c-0.3,0.1-0.5,0-0.8,0.2c-0.9,0.5-1.8,1.2-2.7,1.7c-1.6,0.8-3.1,1.6-4.7,2.4
		c-1.9,0.9-3.9,1.3-6,1.3c-1.1,0-2.2-0.2-3.3-0.4c-1.3-0.1-2.3-0.7-3.4-1.3c-0.3-0.2-0.6-0.4-1-0.6c0,0.2,0,0.3,0,0.4
		c0.1,1.6-0.1,3.2-0.7,4.8c-0.2,0.6-0.2,1.4-0.2,2c0,1.3,0.1,2.7,0.1,4c0,0.2-0.2,0.4-0.4,0.6c-0.2-0.2-0.4-0.3-0.5-0.5
		c-0.1-0.6-0.2-1.3-0.2-1.9c0-0.8-0.2-0.9-0.9-0.7c-1,0.3-2.1,0.5-3.1,0.8c-0.8,0.3-1.5,0.6-1.9,1.5c-0.5,1-0.8,2.2-1.6,3
		c0,0,0,0.1,0,0.1c1.2,0.3,2.4,0.5,3.6,0.8c1.6,0.4,3.1,0.8,4.8,0.7c0.7-0.1,1.4,0,2.1,0c0.3,0,0.6,0.1,0.9,0.1c0,0.3,0,0.6,0,0.7
		c-1.1,0-2.1,0-3.1,0c-0.7,0-1.5,0.1-2.2,0c-1.4-0.3-2.7-0.7-4.1-1c-0.8-0.2-1.6-0.3-2.4-0.4c-0.5,1.4-1,4.8-1,6.5
		c-0.1,1.7-0.2,3.4-0.3,5.1c-0.1,1.9,0,3.8-0.1,5.7c0,0.8-0.4,1.1-1.2,0.8c-1.1-0.3-2.1-0.5-3.2-0.8c-1.3-0.3-2.5-0.9-3.4-1.9
		c-0.8-0.9-1.4-2-2-3c-1-1.8-1.4-3.9-2-5.9c-0.3-1.1-0.5-2.2-0.9-3.2c-0.7-1.7-1.5-3.4-2.2-5.1c-0.6-1.4-1.5-2.3-2.8-3
		c-0.4-0.2-0.8-0.5-1.3-0.7c-0.2-0.1-0.4-0.1-0.6-0.1c-0.4,0.1-0.8,0.3-1.2,0.4c-1,0.4-2.1,0.7-3.1,1.1c-0.9,0.3-1.8,0.7-2.7,1.1
		c-0.5,0.2-1.2,0.4-1.6,0.7c-0.8,0.8-1.6,1.7-2.3,2.6c-0.3,0.3-0.6,0.7-0.8,1.1c-0.8,1.4-1.5,2.8-2.2,4.1c-0.3,0.5-0.6,1.1-0.8,1.6
		c-0.3,0.7-0.6,1.4-0.9,2.1c-0.4,0.8-0.8,1.7-1.1,2.5c-0.3,0.9-0.4,1.9-0.5,2.9c-0.2,2.5,0.1,4.9,0.3,7.4c0.1,0.9,0.3,1.7,0.4,2.6
		c0.2,1.7,0.3,3.5,0.6,5.2c0.4,2.3,1,4.7,1.4,7c0.4,1.9,0.6,3.7,1,5.6c0.5,2.1,0.9,4.1,1.1,6.3c0.1,0.9,0.1,1.9,0.2,2.8
		c0.3,1.5,0.7,2.9,1,4.3c0.2,1,0.3,2,0.5,3c0.1,0.9,0.3,1.8,0.4,2.7c0.1,0.9,0.3,1.8,0.8,2.7c0.7-0.3,1.3-0.6,1.9-0.9
		c0.5-0.2,0.9-0.4,1.4-0.6c0.5-0.2,1-0.4,1.4-0.8c1.5-1.2,3.1-2.3,4.9-3.2c1.1-0.5,2.1-1.1,3.2-1.7c2.2-1.2,4.4-2.2,6.8-2.9
		c0.8-0.2,1.6-0.5,2.4-0.7c0-0.2-0.1-0.4-0.1-0.5c-1-2.9-1.5-6-2.1-9c-0.4-1.9-0.7-3.7-1.3-5.5c-0.6-1.9-1-3.9-0.9-5.9
		c0-1.2,0-2.5,0-3.7c0-0.2,0-0.4,0.1-0.6c0.1-1.1,0.4-2.2,0.3-3.3c-0.1-1.6-0.2-3.2-0.5-4.8c-0.2-1.5-0.7-2.9-1-4.4
		c0-0.2,0.1-0.5,0.2-0.7c0.2,0.1,0.4,0.3,0.6,0.5c0.1,0.1,0.1,0.3,0.2,0.5c0.4,2.3,0.9,4.7,1.3,7c0.2,1,0.2,2,0,3
		c-0.2,0.8-0.2,1.7-0.2,2.6c1.4,0.1,2.5-0.5,3.5-1.3c1.6-1.2,3-2.5,4-4.2c0.3-0.5,0.6-0.8,1-1.2c0.2-0.2,0.5-0.3,0.7,0
		c0.1,0.1,0.1,0.5,0,0.7c-0.8,1.1-1.7,2.2-2.6,3.3c0.4,0.3,0.6,0.5,0.9,0.7c1.5,1.1,3.3,1.5,4.9,2.1c2.4,0.9,4.9,1.7,7.2,3.1
		c1.6,1,3.5,1.8,5.2,2.6c1.4,0.7,2.7,1.3,4.1,1.9c1.3,0.6,2.6,1.1,4,1.6c0.8,0.3,1.6,0.5,2.4,0.8c0.6,0.3,1.2,0.4,1.9,0.1
		c1.3-0.5,2.8-0.6,4.1-1.2c2.1-1,4.2-1.8,6.3-2.7c1.7-0.7,3.3-1.6,5-2.4c2-0.8,3.9-1.6,5.8-2.7c0.7-0.4,1.5-0.8,2.3-0.9
		c1.3-0.2,2.7-0.2,4-0.2c0.5,0,1,0.4,1.4,0.6c0.5,0.3,1,0.6,1.5,0.9c0.3,0.2,0.5,0.1,0.7-0.2c0.3-0.4,0.6-0.8,0.9-1.2
		c0.8-1,1.7-1.9,1.9-3.3c0.1-0.6,0.2-1.2,0.5-1.7c0.6-1.3,1-2.7,0.9-4.2c0-0.2,0-0.3,0.1-0.5c0.1-0.1,0.3-0.3,0.4-0.3
		c0.1,0,0.3,0.3,0.3,0.4c0,1,0,2-0.2,3c-0.3,1.2-0.7,2.4-1.1,3.5c-0.1,0.3-0.2,0.7-0.3,1c-0.4,1.1-1.1,1.9-1.9,2.7
		c-0.6,0.6-1,1.4-1.1,2.2c-0.1,2-0.1,4.1-0.1,6.1c0,2.5,0.2,4.9-0.6,7.3c-0.9,2.6-1.6,5.3-2.4,7.9c-0.7,2.4-1.3,4.7-1.6,7.2
		c-0.2,1.7-0.8,3.4-1.2,5.1c-0.2,1-0.4,2-0.6,3c1.1,0.4,2.2,0.8,3.4,1c1.5,0.3,2.9,0.9,3.9,2.1c0.1,0.1,0.1,0.4,0.1,0.6
		c-0.2,0-0.5,0.1-0.6,0.1c-0.3-0.1-0.6-0.3-0.8-0.6c-0.5-0.6-1.2-0.9-1.9-1.1c-0.5-0.1-1-0.3-1.6-0.4c-1.6-0.4-3.3-0.9-4.9-1.2
		c-2.1-0.4-4.2-0.7-6.3-1.1c-1.1-0.2-2.3-0.3-3.4-0.5c-1.9-0.4-3.6-1.1-5.2-2c-2.1-1.2-4.3-1.8-6.5-2.7c-1.8-0.7-3.6-1.5-5.4-2.3
		c-0.3-0.1-0.7-0.2-1-0.3c-0.3-0.1-0.6-0.1-0.9-0.2c-0.5-0.2-1-0.4-1.4-0.6c-0.8-0.4-1.6-0.8-2.5-1c-1.9-0.5-3.8-0.9-5.6-1.9
		c-0.6-0.4-1.3-0.6-2-0.8c-2.2-0.7-4.4-0.7-6.7-1c-1.6-0.2-3.3-0.1-4.9-0.1c-1.1,0-2.2-0.1-3.3,0c-2.8,0.4-5.5,1.4-8,2.7
		c-2.1,1-4.2,2.2-6.3,3.3c-0.4,0.2-0.8,0.4-1.1,0.7c-1.8,1.2-3.4,2.6-5.5,3.3c-0.2,0.1-0.4,0.3-0.7,0.4c-0.7,0.3-1.5,0.6-2.2,0.9
		c-0.3,0.1-0.8,0.2-1,0.4c-0.6,0.5-1.2,1-1.8,1.5c-0.6,0.5-0.8,1.2-1,2c-0.2,0.6,0.3,1,0.6,1.4C5.4,166.6,6.2,167.4,7.3,167.8z
		 M67.6,38.4c-0.6-1.5-1.5-2.7-2.6-3.7c-0.3-0.3-0.6-0.7-0.9-1.1c-0.5-0.6-1-1.2-1.5-1.8c-0.2-0.3-0.6-0.5-0.8-0.7
		c-1.1-1.3-2.5-2.2-4-3c-1.1-0.6-2.3-1-3.5-1.7c-1.7-1-3.5-1.4-5.4-1.4c-0.3,0-0.7-0.1-0.9-0.3c-0.9-0.5-1.3-1.4-1.9-2.2
		c-1.1-1.4-1.2-3.1-0.2-4.6c0.1-0.2,0.2-0.3,0.3-0.5c0.7-1.2,1.5-2.3,2.2-3.5c0.4-0.6,0.7-1.2,1-1.9c0.2-0.3,0.2-0.7,0.4-1.1
		c0.1-0.4,0.2-0.7-0.2-1c-0.4-0.3-0.7-0.1-1,0.3c-0.2,0.3-0.3,0.6-0.4,0.9c-0.4,0.9-0.6,1.8-1.3,2.6c-0.5,0.5-0.8,1.1-1.2,1.8
		c-0.5,0.9-0.9,1.8-1.3,2.8c-0.1,0.2-0.2,0.4-0.2,0.6c-0.4,1.8,0.3,3.3,1.1,4.8c0.3,0.6,0.6,1.4,0.4,2.1c-0.1,0.6-0.7,1.2-1.2,1.7
		c-1.6,1.5-3.4,2.9-4.9,4.5c-1.1,1.2-2,2.6-3,4c-0.9,1.3-1.4,2.8-1.8,4.2c-0.3,0.9-0.3,1.9-0.5,2.9c0,0.2-0.1,0.5-0.1,0.7
		c0,2,0,4.1,0.1,6.1c0,1,0.3,2,0.4,3c0.1,0.4,0.3,0.7,0.3,1.1c0.2,1,0.3,2,0.5,3c0.5,2.1,0.9,4.1,1.6,6.2c0.5,1.6,1.1,3.1,1.8,4.6
		c0.3,0.7,0.8,1.4,1.2,2.1c0.4,0.6,0.9,1.1,1.3,1.7c1.1,1.7,2.2,3.4,4.1,4.2c1.2,0.6,2.2,1.5,3,2.5c1.7,2,4,2.7,6.4,2.9
		c2.6,0.2,5.1-0.3,7.4-1.4c1.4-0.7,2.9-1.4,4.3-2.2c1.3-0.7,2.4-1.7,3.8-2.2c0.2-0.1,0.4-0.3,0.5-0.4c1.8-2.2,4-4.2,5.2-6.9
		c0.5-1.1,1.2-2.1,1.5-3.3c0.6-2.5,0.3-5.1-0.8-7.5c-0.2-0.5-0.5-1-0.8-1.5c-0.7-1.3-1.5-2.7-2.2-4c-0.1-0.3-0.3-0.5-0.5-0.8
		c-0.2-0.3-0.4-0.5-0.6-0.8c-0.2-0.3-0.3-0.6-0.5-0.8c-0.3-0.5-0.7-1-0.9-1.6c-0.2-0.5-0.4-0.6-0.8-0.4c-0.9,0.4-1.9,1-2.9,1.2
		c-2.2,0.5-4.4,0.1-6.5-0.9c-0.3-0.2-0.6-0.5-0.9-0.8c0.3-0.3,0.5-0.7,0.8-0.9c1.3-1,2.9-1.4,4.4-1.7c1.1-0.2,2.3-0.3,3.4-0.1
		c0.3,0.1,0.7,0.1,1.1,0.2c-0.1-0.3-0.2-0.4-0.2-0.6c-0.1-0.3-0.3-0.6-0.4-0.9c-0.3-1.1-0.3-2.2-0.8-3.2c-0.2-0.4-0.3-0.6-0.8-0.5
		c-0.6,0.1-1.2,0.2-1.7,0.4c-1.1,0.3-2.1,0.9-3.3,0.9c-0.8,0-1.5,0.2-2.3,0.3c-0.8,0.2-1.6,0.4-2.4,0.6c-0.4,0.1-0.8,0.1-1-0.4
		c-0.1-0.4,0.2-0.6,0.6-0.7c1.8-0.4,3.6-0.8,5.3-1.2C64.5,39.2,66,38.8,67.6,38.4z M31.6,148.5c0.2,0,0.4,0,0.5,0c2,0,4.1,0,6.1,0.1
		c1.7,0.1,3.5,0.1,5.2,0.4c1.5,0.2,3.1,0.6,4.5,1.1c1.4,0.5,2.7,1.4,4.2,1.8c1.5,0.4,3,0.7,4.4,1.4c0.7,0.4,1.6,0.6,2.4,0.9
		c0.5,0.2,1,0.3,1.5,0.5c0.4,0.2,0.8,0.4,1.3,0.6c2,0.8,4,1.5,6,2.3c1.2,0.5,2.3,0.9,3.5,1.4c1.4,0.6,2.8,1.4,4.3,2
		c2,0.8,4.2,0.8,6.2,1.2c1.7,0.4,3.4,0.6,5.1,0.8c0.4,0.1,0.8,0.1,1,0.1c0.2-0.6,0.5-1,0.6-1.4c0.2-0.8,0.3-1.7,0.5-2.5
		c0.2-1.2,0.5-2.5,0.7-3.7c0.6-2.9,0.9-5.8,2.1-8.5c0.8-1.9,1.3-3.9,1.9-5.9c0.2-0.7,0.3-1.5,0.3-2.2c0.2-1.5,0.3-2.9,0.5-4.4
		c0-0.4,0.1-0.7,0.1-1.1c0-1.5,0.1-2.9,0-4.4c0-0.3-0.2-0.7-0.5-1c-0.4-0.3-0.8-0.5-1.3-0.8c-1.2-0.7-2.5-0.7-3.8-0.5
		c-0.8,0.1-1.5,0.3-2.2,0.6c-1.2,0.6-2.4,1.3-3.6,1.9c-1.6,0.9-3.2,1.7-4.9,2.6c-0.3,0.2-0.6,0.3-0.9,0.4c-1.9,0.7-3.7,1.5-5.6,2.2
		c-1.1,0.5-2.2,1.1-3.4,1.4c-1.5,0.4-2.9,0.9-4.3,1.6c-0.8,0.4-1.2,0.4-1.9-0.3c-1-1-2.3-1.3-3.6-1.4c-0.6-0.1-1.1-0.2-1.7-0.5
		c-0.7-0.4-1.4-0.6-2.1-0.9c-0.4-0.2-0.8-0.3-1.2-0.5c-1-0.5-1.9-1.1-2.9-1.6c-0.4-0.2-0.9-0.5-1.3-0.7c-0.6-0.3-1.3-0.7-1.9-1
		c-1.6-0.7-3.1-1.4-4.7-2.1c-0.3-0.1-0.5-0.3-0.8-0.4c-1.5-0.9-3.3-1-4.6-2.1c0,0-0.1,0-0.1-0.1c-1.7-0.7-3.6-1.3-5.1-2.5
		c-0.4-0.3-0.9-0.3-1.5,0c-1,0.6-2,1-3.1,1.4c-0.4,0.2-0.6,0.4-0.7,0.8c-0.1,1.1,0.1,2,0.8,2.9c1,1.1,1.9,2.3,2.4,3.7
		c0.6,1.8,1.6,3.5,2.7,5.1c0.2,0.3,0.3,0.6-0.1,0.8c-0.4,0.2-0.6,0-0.8-0.4c-0.1-0.3-0.3-0.7-0.5-0.9c-1-1.4-1.8-2.9-2.4-4.6
		C28.8,131,28,130,27,129c0,0.8,0.1,1.5,0.3,2.3c0.3,1.4,0.8,2.8,1.1,4.2c0.5,2,0.7,4,1.2,5.9C30.2,143.8,30.4,146.3,31.6,148.5z
		 M94.6,127.2c0.3-0.7,0-0.9-0.5-1.2c-0.5-0.2-1-0.6-1.5-0.9c-0.5-0.2-0.9-0.4-1.4-0.5c-0.5-0.1-0.9-0.1-1.4,0c-1,0.1-2,0-2.9,0.5
		c-1.1,0.6-2.1,1.1-3.2,1.6c-2.9,1.4-5.8,2.4-8.7,3.9c-1.9,1-3.9,1.7-5.9,2.5c-1.1,0.4-2.2,0.8-3.3,1.1c-0.7,0.2-1.5,0.2-2.1,0.8
		c-0.1,0.1-0.4,0-0.6-0.1c-0.9-0.3-1.8-0.7-2.7-1.1c-0.9-0.3-1.7-0.5-2.6-0.9c-1.1-0.5-2.2-1-3.3-1.5c-1.2-0.6-2.5-1.1-3.7-1.7
		c-2.4-1.2-4.7-2.5-7.1-3.6c-2-0.9-4.1-1.7-6.2-2.3c-1.5-0.5-2.8-1.2-4-2c-0.6-0.4-0.7-0.4-1.1,0.4c0.9,0.5,1.8,1.1,2.7,1.6
		c1.2,0.7,2.7,0.9,3.7,1.9c0.1,0.1,0.2,0.1,0.3,0.1c1.1,0.4,2.1,0.8,3.2,1.2c0.8,0.3,1.5,0.8,2.3,1.2c1.5,0.6,3,1.2,4.4,1.8
		c0.3,0.1,0.5,0.3,0.8,0.4c0.7,0.4,1.3,0.7,2,1.1c0.4,0.2,0.8,0.4,1.1,0.6c0.8,0.4,1.6,0.9,2.4,1.3c0.8,0.4,1.5,0.7,2.3,1.1
		c0.4,0.2,0.8,0.3,1.2,0.4c1.5,0.2,2.9,0.5,4.1,1.5c0.5,0.4,0.8,0.4,1.4,0.2c0.9-0.4,1.9-1,2.9-1.2c1.3-0.3,2.6-0.7,3.8-1.3
		c0.7-0.3,1.5-0.7,2.2-1c2.1-0.8,4.2-1.5,6.1-2.6c1.2-0.7,2.5-1.3,3.8-2c1.3-0.7,2.6-1.5,4-2c0.8-0.3,1.8-0.3,2.6-0.5
		c1.6-0.3,3,0.1,4.2,0.9C94.2,127,94.4,127.1,94.6,127.2z M67.3,48.5c1.3-0.4,2.4-0.9,3.4-1.7c0.3-0.2,0.2-0.6-0.2-0.7
		c-0.6-0.2-1.2-0.4-1.8-0.6c-0.3-0.1-0.5-0.1-0.9-0.2C68.2,46.4,68.3,47.5,67.3,48.5z M61.2,47.4c1.2,0.4,2.3,0.7,3.4,1
		c-0.5-0.9-0.4-1.8,0-2.8C63.3,45.9,62.2,46.4,61.2,47.4z M66,45.7c-0.2,0.3-0.5,0.5-0.4,0.7c0,0.2,0.3,0.4,0.5,0.5
		c0.2-0.2,0.5-0.3,0.5-0.5C66.5,46.2,66.2,46,66,45.7z"/>
	<path class="st0" d="M65.6,67c-0.3,0.6-0.6,1.3-1,1.9c-0.8,1-1.7,1.9-2.5,2.9c-1.1,1.3-2.7,1.7-4.3,1.9c-2.2,0.4-4.3-0.1-6.3-0.7
		c-1.4-0.4-2.4-1.4-3.2-2.6c-0.6-0.9-1.4-1.6-2.1-2.4c-0.2-0.2-0.3-0.4-0.5-0.6c0.2-0.1,0.3-0.3,0.5-0.4c1.2-0.5,2.4-1,3.6-1.5
		c0.8-0.3,1.7-0.6,2.5-0.8c0.5-0.1,1.1-0.1,1.5,0.1c1,0.4,2,0.3,2.9-0.3c0.7-0.4,1.5-0.4,2.2-0.6c0.1,0,0.3,0,0.5,0.1
		c1.6,0.6,3.2,1.2,4.6,2.2C64.4,66.6,65,66.7,65.6,67z M48.8,68.2c0,0.1,0,0.1,0,0.2c0.3,0.2,0.6,0.4,0.9,0.6
		c0.7,0.3,1.5,0.5,2.2,0.7c1.7,0.5,3.5,0.9,5.3,0.8c2.3-0.2,4.1-1.4,6-3c-0.6-0.2-1.1-0.3-1.5-0.4c-1.2-0.5-2.5-0.3-3.7-0.2
		c-1.3,0.1-2.6,0.5-3.9,0.7c-1.4,0.2-2.9,0.3-4.3,0.5C49.5,68,49.1,68.1,48.8,68.2z M64.5,67.8c0,0-0.1-0.1-0.1-0.1
		c-0.1,0-0.3,0-0.3,0.1c-0.5,0.4-1.1,0.8-1.6,1.2c-2.7,2.2-5.7,2.7-9,1.8c-0.5-0.1-1-0.3-1.5-0.4c-1.3-0.3-2.6-0.7-3.7-1.6
		c-0.2-0.2-0.5-0.2-0.8-0.3c0,0.1-0.1,0.1-0.1,0.2c0.1,0.1,0.2,0.3,0.3,0.4c0.3,0.4,0.6,0.7,0.9,1.1c0.7,1.2,1.7,2.2,3.1,2.5
		c2,0.5,4,1,6.1,0.7c1.4-0.2,2.8-0.6,3.7-1.7c0.9-1,1.8-2.1,2.7-3.2C64.3,68.2,64.4,68,64.5,67.8z M63.3,66.9c0-0.1,0.1-0.2,0.1-0.3
		c-0.3-0.2-0.6-0.5-1-0.7c-0.9-0.4-1.8-0.6-2.7-1c-1-0.5-1.9-0.3-2.7,0.2c-1.2,0.7-2.3,0.9-3.5,0.4c-0.3-0.1-0.7-0.2-1-0.1
		c-1.6,0.5-3.1,1-4.6,1.6c-0.4,0.1-0.8,0.4-1.3,0.6c0.7,0.3,1.2,0.5,1.7,0.2c1.1-0.5,2.3-0.4,3.4-0.6c1.4-0.2,2.8-0.3,4.2-0.5
		c1-0.1,2-0.4,3-0.5c0.9-0.1,1.9-0.2,2.8,0.3C62.2,66.7,62.8,66.7,63.3,66.9z"/>
	<path class="st0" d="M38.1,47.8c0.8-0.6,1.6-1.3,2.4-1.8c0.2-0.2,0.5-0.3,0.8-0.3c1.5-0.3,2.9-0.4,4.4-0.1c1,0.2,1.8,0.9,2.4,1.7
		c0.3,0.3,0.5,0.7,0.8,1.1c-0.7,0.3-1.3,0.7-2,1c-1.7,0.7-3.4,0.9-5.1,0.7c0,0-0.1,0-0.1,0c-1.3-0.5-2.6-0.9-3.5-2.1
		C38.2,47.9,38.1,47.9,38.1,47.8z M44.8,49.3c0.9,0.2,1.5-0.2,2.2-0.6c0.7-0.4,0.8-0.6,0.4-1.2c-0.1-0.1-0.1-0.2-0.2-0.3
		c-0.5-0.7-1.3-1.1-1.9-0.9C45.6,47.8,45.6,48.3,44.8,49.3z M42.1,46.4c-0.2,0-0.5,0-0.6,0.1c-0.5,0.3-1,0.7-1.4,1.1
		c-0.4,0.4-0.4,0.7,0.2,1c0.4,0.2,0.9,0.5,1.4,0.7c0.2,0.1,0.4,0.1,0.7,0.2C41.7,48.4,41.9,47.5,42.1,46.4z M44,46.6
		c-0.2,0.2-0.3,0.4-0.3,0.5c0,0.1,0.2,0.3,0.3,0.3c0.1,0,0.3-0.2,0.3-0.3C44.3,47,44.2,46.8,44,46.6z"/>
	<path class="st0" d="M46.4,42.8c-1,0.1-2,0.3-2.9,0.2c-1.9-0.2-3.7,0.1-5.5,0.7c-0.5,0.2-1.1,0.3-1.6,0.3c-0.1,0-0.3-0.1-0.4-0.2
		c-0.1-0.1,0-0.3,0.1-0.4c0.2-0.2,0.5-0.4,0.8-0.5c0.9-0.3,1.9-0.6,2.8-0.9c0.7-0.2,1.5-0.2,2.2-0.2c1.2-0.1,2.3-0.2,3.5-0.2
		C46.2,41.5,46.5,41.9,46.4,42.8z"/>
	<path class="st0" d="M58.5,56.2c0.7,0.7,1.3,1.2,1.5,2c0.2,0.8-0.6,1.8-1.4,1.9c-1.1,0.1-1.8,0.6-2.3,1.5c-1,1.9-2.9,1.3-3.7,0.1
		c-0.3-0.4-0.7-0.6-1.2-0.5c-0.6,0.1-1.2,0.3-1.8,0.3c-0.9,0-1.5-0.7-1.3-1.6c0.1-0.6,0.3-1.2,0.4-1.8c0.1-0.5,0.1-0.9,0.2-1.4
		c0-0.1,0-0.3,0-0.4c0.1-0.2,0.3-0.3,0.4-0.4c0.1,0.2,0.2,0.3,0.2,0.5c0.1,1-0.2,2-0.5,2.9c0,0.1-0.1,0.1-0.1,0.2
		c-0.2,1.3,0.4,1.7,1.6,1.3c0.4-0.1,0.8-0.2,1.3-0.2c0.5,0,0.9,0.2,1.2,0.6c0.3,0.4,0.7,0.8,1.3,0.9c0.7,0.1,1.2-0.1,1.5-0.7
		c0.2-0.4,0.5-0.7,0.8-1.1c0.4-0.6,1.1-0.7,1.7-0.8c0.6-0.1,1-0.3,1.2-0.8c0.2-0.5-0.1-0.8-0.4-1.2C58.6,57.3,58.2,57,58.5,56.2z"/>
</g>
</svg>
