<?xml version="1.0" encoding="utf-8"?>
<!-- Generator: Adobe Illustrator 19.0.1, SVG Export Plug-In . SVG Version: 6.00 Build 0)  -->
<svg version="1.1" id="Layer_1" xmlns="http://www.w3.org/2000/svg" xmlns:xlink="http://www.w3.org/1999/xlink" x="0px" y="0px"
	 viewBox="0 0 67.3 94.2" style="enable-background:new 0 0 67.3 94.2;" xml:space="preserve">
<style type="text/css">
	.st0{fill:#0277BD;}
</style>
<g id="DqVpZg.tif">
	<g>
		<path class="st0" d="M21.3,33.6c0-0.3-0.1-0.5,0-0.7c1.3-1.9,0.5-3.8,0-5.6c-0.1-0.5-0.5-0.8-0.8-1c-1.8-1.5-2.5-3.5-2-5.8
			c0.2-1.2,0.2-2.5,1.2-3.5c1-0.9,2.1-1,2.9,0c0.5,0.8,0.8,0.4,1.3,0c1.2-0.8,1.8-2.2,3.2-2.9c0.2-0.1,0.5-0.3,0.8-0.4
			c3.4-0.3,6.5-2,9.9-2.1c2.1-0.1,4.2-0.5,6.3-0.9c1.6-0.3,2.4,1,3.2,2c0.5,0.6,1,1.4,1.5,2.2c0.9,1.6,0.8,3.2,0.3,4.6
			c-0.7,1.8-0.9,3.7-1.5,5.4c-0.9,2.7-1.7,5.5-3.3,7.9c-0.9,1.4-1.6,2.8-2.6,4.2c-0.5,0.7,0,1.4,1.2,1.6c1,0.2,1.9,0.1,2.9,0.1
			c1.7,0,3.5,0.1,5.1,0.8c1,0.4,2.1,0.5,3.1,0.6c2.7,0.5,4.5,2.2,6.4,3.9c0.9,0.8,1.7,1.7,2.5,2.7c1,1.4,1.2,3,1.5,4.6
			c0.7,4.4,1.1,8.8,1.8,13.2c0.7,4.2,0.2,8.5,0.8,12.7c0.3,1.9,0.6,3.8,0.4,5.7c-0.2,1.8-0.5,3.5-1.7,5.1c-1.1,1.5-2.5,1.8-4.1,1.5
			C59.2,89,57,88.4,55,87c-0.1-0.1-0.3-0.2-0.6-0.3c0,2.2,0,4.2,0,6.2c0,0.3,0,0.6-0.1,0.8c0,0.2-0.2,0.4-0.4,0.4
			c-0.3,0-0.3-0.3-0.3-0.5c0.1-2.3-0.4-4.5,0-6.8c0.1-0.8-0.2-1.3-0.7-1.8c-0.8-0.7-1.6-1.3-2.4-1.9c-1.9-1.2-3.3-3-4.9-4.5
			c-2.1-1.9-4.2-3.7-6.6-5.3c-0.2-0.2-0.5-0.4-0.8-0.2c-1,0.5-1.9,0.1-2.9,0c-1.9-0.1-3.8-0.2-5.7-0.2c-2.4-0.1-4.8-0.3-6.8-2
			c-1.1-0.9-1.8-2.1-2.5-3.2c-0.2-0.3-0.2-0.8-0.7-0.7c-0.3,0.1-0.3,0.6-0.3,0.9c0,1.2-0.1,2.4,0,3.6c0.2,3.1-0.4,6.2-0.9,9.2
			c-0.5,2.8-0.3,5.4,0.1,8.1c0.1,1,0.1,1.9,0.5,2.9c0.1,0.3-0.2,1-0.4,1.5c-0.1,0.2-0.2,0.3-0.4,0.2c-0.2-0.1-0.2-0.2-0.3-0.4
			c-0.3-1.2-0.4-2.5-0.5-3.7c-0.1-0.9-0.1-1.7-0.1-2.6c0-0.6-0.2-0.7-0.8-0.4c-0.9,0.4-1.4,1.3-2.2,1.9C11.9,89.5,9.6,90,7,89.6
			c-4.4-0.5-6.4-4.4-6.6-7.9c-0.1-1.9,0-3.8-0.1-5.6c-0.1-2.3,0.3-4.7,0.5-7c0.3-3.4,0.5-6.8-0.2-10c-0.6-3.1-0.9-6.2-0.5-9.4
			C0.4,48,1,46.4,2.3,45.1c1.4-1.4,3-2.6,4.7-3.7c1.1-0.7,2.5-1,3.8-1.4c1.5-0.5,2.2-1.7,2.7-3c0.3-0.7,0.5-1.5,0.8-2.3
			c0.4-0.7,0.8-1.4,1.6-1.7c0.8-0.4,1-1,0.6-1.7c-1.6-3-1.6-6.2-0.8-9.4c0.8-3,1.6-6,2.9-9c1.1-2.6,2.9-4.7,4.1-7.2
			c0.1-0.3,0.3-0.4,0.5-0.6c1-0.8,2-1.6,2.8-2.6c1-1.1,2.6-1.4,3.9-1.9c2.8-1.2,5.7-0.4,8.5-0.5c1.2-0.1,2.1,1,3.2,1.4
			c1.6,0.7,3,1.6,4.3,2.8c1.1,1,2.2,1.9,3.2,2.9c2.3,2.1,2.5,4.9,2.3,7.7c-0.3,2.7-1.3,5.3-1.9,7.9c-0.8,3.3-1.2,6.6-0.6,10
			c0.2,1,0.8,1.7,1.2,2.6c0.1,0.3,0.5,0.8,0.1,1c-0.4,0.2-0.5-0.3-0.7-0.6c-1.1-1.8-1.7-3.7-1.7-6c0.1-3.8,1.3-7.3,2-10.9
			c0.2-1.1,0.6-2.2,0.8-3.4c0.4-1.8,0.1-3.6-0.5-5.1c-0.8-1.9-2.3-3.5-3.9-4.8c-0.7-0.5-1.3-1.1-2.2-1.3c-0.4-0.1-0.8-0.4-1.1-0.7
			c-1.7-1.8-3.8-2.3-6.2-2.1c-1,0.1-2-0.1-2.9-0.1c-2.6,0.1-5.1,0.5-7.2,2.2c-1.9,1.5-3.2,3.5-4.6,5.4c-0.5,0.6-0.8,1.4-1,2.2
			c-0.2,0.8-0.6,1.6-1,2.3c-1.5,2.1-2,4.7-2.6,7.1c0,0.1,0,0.1,0,0.2c-1,2.1-0.7,4.3-0.6,6.5c0,1.3,0.2,2.6,0.9,3.7
			c0.3,0.5,0.7,1,0.4,1.7c-0.1,0.3,0.1,0.4,0.4,0.5C19.2,33.5,20.2,33.5,21.3,33.6z M36.7,72.5c-0.5-0.7-1-0.9-1.6-1.1
			c-1.5-0.4-2.9-1-4.2-1.8c-1-0.5-1.4-1.9-0.7-2.8c0.5-0.6,0.3-1-0.1-1.4c-0.5-0.6-1.1-1.2-1.1-2.1c-0.1-0.9,0.4-1.4,1.3-1.3
			c0.7,0.1,1.3,0.2,1.8,0.8c0.1,0.2,0.3,0.4,0.5,0.2c0.3-0.2,0.1-0.4,0-0.6c-0.2-0.3-0.4-0.6-0.6-0.8c-0.8-0.7-0.9-1.5-1-2.5
			c-0.1-2.1,1.2-3.3,3.2-2.8c0.5,0.1,0.7,0,0.9-0.5c0.3-1.8,1.8-2.3,3.3-1.2c0.8,0.6,1.1,1.4,1.4,2.3c0.6,1.8,1.6,3.3,3.1,4.5
			c0.3,0.2,0.6,0.6,1.1,0.3c0.4-0.3,0.4-0.7,0.4-1.1c0-0.4-0.2-0.8-0.5-1.1c-0.6-0.4-1.1-0.8-1.8-1.1c-0.7-0.3-1-0.8-1.3-1.3
			c-0.2-0.4-0.1-0.8,0.4-1c2.1-1,5.1,0,6.2,1.7c0.8,1.3,1.5,2.7,2.2,4c0.3,0.5,0.2,1.1-0.1,1.6c-0.1,0.3-0.3,0.5-0.3,0.8
			c-0.6,3.6,1.6,5.9,3.8,8.3c0.1,0.2,0.4,0.4,0.6,0.2c0.2-0.1,0.2-0.4,0.1-0.6c-0.3-3.5,0.5-7.2-0.8-10.6c-0.1-0.2,0-0.4,0-0.6
			c-0.2-1.7,0.1-3.3,0.2-5c0-0.3-0.1-0.7,0.4-0.7c0.4,0,0.4,0.4,0.4,0.7c0,0.2,0,0.4,0,0.6c0.1,2.6,0.3,5.1,0.9,7.6
			c0.4,2.1,1.1,2.3,3.3,1.5c0.3-0.1,0.5-0.3,0.8-0.4c1.4-0.6,2.7-1.6,4.4-1.7c0.7,0,1.9-0.2,1.8-1.3c-0.2-3.7-1-7.3-1.5-10.9
			c-0.1-0.7-0.2-1.4-0.5-2c-2.2-3.8-4.5-7.4-9.4-8.1c-0.8-0.1-1.4-0.6-2.2-0.6c-1.9,0.1-3.7-0.5-5.6-0.9c-0.4-0.1-0.5,0-0.7,0.3
			c-0.5,0.7-0.8,1.6-0.8,2.5c0.1,2.5-0.2,4.9,0.1,7.4c0.2,1.6-0.1,3.1,0.2,4.7c0.1,0.3,0.1,0.8-0.4,0.8c-0.3,0-0.6-0.4-0.6-0.8
			c0-0.2,0-0.3,0-0.5c0-1.4,0-2.9-0.1-4.3c-0.4-3.2-0.6-6.5,0.2-9.7c0.2-0.7-0.1-0.8-0.6-0.8c-0.9-0.1-1.8,0.1-2.7-0.4
			c-0.2-0.1-0.4,0.1-0.5,0.2c-0.5,0.4-1,0.8-1.4,1.2c-1.6,1.6-3.5,1.3-5.3,0.6c-2.2-0.9-4-2.6-5.7-4.1c-0.2-0.2-0.6-0.3-0.3-0.6
			c0.3-0.4,0.5,0,0.8,0.2c1.8,1.5,3.6,3,5.9,3.8c1.5,0.6,2.8,0.5,4.1-0.5c1.1-0.9,2-2,2.9-3c1.8-1.9,2.6-4.3,4-6.5
			c0.8-1.3,1.2-2.8,1.7-4.3c0.1-0.4,0.1-0.6-0.4-0.8c-1.1-0.4-2.1-1-3.3-1.2c-0.3-0.1-0.6-0.3-0.5-0.7c0.1-0.5,0.4-0.4,0.8-0.4
			c1.2,0,2.4,0.2,3.6,0.7c0.1,0.1,0.3,0.3,0.4,0.1c0.3-0.4,0.4-0.8,0.3-1.3c-0.1-0.5-0.5-0.5-0.9-0.5c-0.8,0-1.7,0-2.5,0
			c-0.3,0-0.9,0.2-0.9-0.4c0-0.5,0.5-0.5,0.9-0.5c0.8-0.1,1.5-0.1,2.3-0.1c1.6-0.1,2.3-0.8,2.3-2.5c0-2.1-0.9-3.8-2.2-5.3
			c-1-1.2-2.8-1.5-4.1-0.8c-0.8,0.4-1.7,0.5-2.5,0.4c-1.5-0.2-2.8,0.2-4.2,0.7c-1.5,0.6-3.2,0.9-4.8,1.2c-1.7,0.2-3.3,0.6-4.5,1.9
			c-0.9,1-2.2,1.7-2.6,3.1c-0.2,0.6-0.5,1.1-1,1.2c-0.9,0.3-0.9,0.9-0.9,1.6c0,0.4,0.1,0.9,0.2,1.3c0.1,0.2,0.2,0.5-0.2,0.6
			c-0.4,0.1-0.5-0.1-0.6-0.4c-0.2-0.8-0.2-1.6-0.1-2.4c0.1-0.5,0.1-1.1,0.5-1.5c0.4-0.6,0.9,0.2,1.5,0.1c-0.2-1-1-1.6-1.1-2.6
			c0-0.2-0.5-0.2-0.7,0c-2.6,2.3-2.9,6.2,0.3,8.5c0.3,0.2,0.5,0.4,0.8,0c0.3-0.3,0.6-0.4,0.9,0c0.3,0.4,0,0.7-0.2,0.9
			c-0.5,0.3-0.4,0.7-0.3,1.2c0.4,1.5,0.5,3.1,0,4.5c-0.5,1.2-0.3,1.7,0.7,2.3c1.3,0.8,1.2,1.3-0.1,2.1c-0.2,0.1-0.4,0.2-0.7,0.3
			c-1.8,0.4-3.5,2.3-3.7,4.1c0,0.2,0,0.4,0.1,0.5c0.2,0.1,0.3,0,0.4-0.2c0.5-0.5,1-1,1.5-1.6c1-1.2,2.2-2.3,3.9-2.5
			c0.9-0.1,1.5,0.4,1.9,1.1c0.4,0.7-0.3,1-0.7,1.3c-1.6,1.1-2.7,2.6-3.7,4.1c-0.2,0.2-0.4,0.6-0.2,0.8c0.3,0.3,0.6-0.1,0.7-0.4
			c1.1-1.3,2.5-2.3,3.7-3.4c0.4-0.3,0.8-0.4,1.2-0.5c0.8-0.2,1.2,0.4,1.7,0.8c0.5,0.5,0,0.9-0.3,1.4c-0.4,0.7-1.4,0.8-1.8,1.5
			c-1.9,2.5-2.9,5.4-3,8.4c-0.1,1.7-0.5,3.1-2,4c-0.5,0.3-0.8,0.8-1,1.4c-0.7,1.7-0.4,3.5-0.7,5.3c-0.4,2-0.1,3.8,1.5,5.2
			c0.1,0.1,0.2,0.4,0.3,0.5c1.2,1.5,2.6,2.8,4.7,3c1.8,0.2,3.7,0.2,5.5,0.3C33.7,72.3,35.1,72.6,36.7,72.5z M1.5,58.1
			C2,62.2,2.3,66,1.8,69.9C1.3,74,1.4,78,1.5,82.1C1.6,84.7,2.6,87,5,88.2c2.6,1.3,5.4,1.2,7.9-0.2c2.4-1.4,3.9-3.9,4.2-6.6
			c0.4-3.1,1.1-6.3,0.9-9.5c-0.1-2.1,0-4.1,0.7-6.1c0.7-1.8,1-3.8,1-5.7c0.1-2.2,1-4,2.9-5.3c0.7-0.5,0.8-1.1,0.8-1.8
			c-0.1-3,0.6-5.7,2.5-8c0.6-0.8,1.4-1.5,2-2.3c0.3-0.3,0.8-0.7,0.4-1.2c-0.4-0.4-0.9-0.4-1.4,0c-0.5,0.4-1.1,0.8-1.5,1.2
			c-1.2,1-2.2,2.1-3.2,3.4c-0.2,0.2-0.4,0.4-0.7,0.4c-0.3,0-0.4-0.4-0.5-0.6c-0.3-0.9-0.2-1.6,0.4-2.5c1-1.3,1.8-2.7,3.2-3.7
			c0.3-0.2,0.8-0.6,0.4-1.1c-0.4-0.4-0.9-0.5-1.4-0.2c-0.9,0.5-1.7,1.1-2.4,1.9c-0.8,0.9-1.7,1.7-2.3,2.7c-0.2,0.2-0.4,0.5-0.7,0.4
			c-0.3-0.1-0.4-0.4-0.5-0.6c-0.1-0.4-0.1-0.8,0.1-1.1c0.3-0.8,0.7-1.6,1-2.4c0.5-1.5,1.1-2.9,3.1-2.8c0.3,0,0.7-0.1,0.8-0.4
			c0.1-0.4-0.2-0.6-0.4-0.8c-0.3-0.3-0.6-0.5-1.1-0.6c-1.5-0.1-2.7,0.7-3.9,1.4C17,36,17,36.4,17,36.7c0,0.9-0.5,1.6-0.9,2.5
			c-0.1,0.2-0.2,0.4-0.4,0.3c-0.3-0.1-0.3-0.3-0.2-0.5c0.5-1,0.7-2.1,1-3.2c0.1-0.5,0.7-0.8,1.2-1c0.5-0.2,1.1-0.4,1.5-0.8
			c-2.1-0.8-3.8,0-4.5,2.1c-0.5,1.5-0.7,3.2-1.7,4.6c-0.1,0.2-0.1,0.5-0.1,0.8c0.2,1.4,0.5,2.8,0.8,4.1c0.6,3,1,6,0.1,9
			c-0.6,1.9-0.9,3.8-2,5.5c-0.2,0.3-0.2,0.7-0.3,1.1c-0.3,2.6-1,5.1-2.2,7.4c-1.1,2.2-3.1,3.9-4.3,6.1c-0.4,0.7-0.8,1.5-1.3,2.2
			C3.6,77,3.4,77.2,3.2,77C3,76.9,3,76.7,3.1,76.5c0.4-0.7,0.5-1.4,1-2.1c1.2-1.5,2.1-3.1,3.4-4.6c1.7-2,2.3-4.6,2.9-7.1
			c0.2-0.7-0.1-1.1-0.9-1.2C7.9,61.4,6.4,60.8,5,60C3.9,59.4,2.8,58.8,1.5,58.1z M65.7,71.6c-0.1-2.1-0.2-4.1-0.4-6.2
			c-0.1-1.2-0.2-1.2-1.4-1.1c-2,0.2-3.7,0.9-5.4,1.8c-0.9,0.6-2,0.9-3,0.5c-0.7-0.2-0.8,0.1-1,0.4c-0.2,0.3-0.2,0.7-0.2,1
			c0,1.5,0.3,3,0,4.6c-0.2,0.9,0.3,1.7,1.2,2.1c1.7,0.7,3,2,4.8,2.4c0.4,0.1,0.6,0.3,0.4,0.7c-0.1,0.3-0.4,0.5-0.8,0.3
			c-0.4-0.2-0.9-0.3-1.3-0.5c-2.1-1.2-4.1-2.6-6.1-4.1c-1.2-0.9-2.2-2.1-3.1-3.3c-1.1-1.5-1.5-3.3-1.6-5.2c0-0.6,0.1-1.1,0.5-1.6
			c0.4-0.4,0.5-0.8,0.2-1.3c-0.6-1.1-1.1-2.3-1.7-3.4c-0.9-1.6-2.5-2.4-4.3-2.1c-0.4,0.1-0.9,0-1,0.4c-0.1,0.5,0.5,0.6,0.8,0.8
			c0.3,0.2,0.7,0.4,1.1,0.6c0.7,0.4,1.2,1,1.3,1.8c0.1,0.9-0.2,1.9,0.8,2.6c0.2,0.1,0.2,0.5-0.1,0.6c-0.3,0.1-0.4-0.1-0.5-0.2
			c-0.2-0.3-0.4-0.5-0.7-0.5c-1.7-0.1-2.7-1.3-3.8-2.4c-1.1-1.2-1.2-2.9-2.1-4.2c-0.7-1-1.3-1.5-2.2-1.2c-1.1,0.4-0.6,1.3-0.6,2.1
			c-0.1,1.1,0.9,1.7,1.1,2.7c0.1,0.4,0.3,0.9-0.1,1.3c-0.5,0.4-1,0.2-1.5-0.1c-0.7-0.5-1.3-1.1-1.7-1.8c-0.2-0.3-0.5-0.6-0.2-0.9
			c0.3-0.4,0.6,0.1,0.8,0.2c0.2,0.1,0.5,0.1,0.7-0.1c0.2-0.3,0.1-0.5-0.1-0.6c-0.5-0.4-1.2-0.9-1.8-0.6c-0.7,0.3-1.3,0.8-1.3,1.8
			c0,1.3,0.1,2.5,1.2,3.4c0.5,0.4,0.9,1,1.3,1.5c0.3,0.3,0.4,0.7,0.1,1c-0.3,0.4-0.7,0.1-0.9,0c-0.8-0.4-1.5-0.9-2.2-1.4
			c-0.4-0.2-0.9-0.6-1.3-0.1c-0.4,0.5-0.1,1,0.3,1.4c0.9,1,1.7,2.2,3.1,2.7c0.1,0,0.2,0.1,0.3,0.2c0.1,0.1,0.2,0.3,0.1,0.5
			c-0.1,0.2-0.3,0.1-0.5,0.1c-0.5-0.2-0.9-0.5-1.4-0.6c-0.8-0.2-1.2,0.1-1.1,0.9c0.1,0.8,0.8,1.1,1.4,1.4c1.8,0.8,3.8,1.2,5.5,2.2
			c1.8,1,3.8,1.5,5.3,3.2c1.8,2.1,4.2,3.7,6.4,5.5c1.7,1.4,3.5,2.9,5,4.6c1.3,1.5,3.1,2.5,5.2,2.7c0.6,0.1,1.1,0.2,1.6,0.5
			c1,0.8,2.7,0.7,3.5-0.1c1.5-1.5,2.1-3.5,2.3-5.6c0.3-2.6-0.8-5-0.8-7.6C65.9,73.9,65.8,72.7,65.7,71.6z M11,59.6
			c0.8-1.2,1.3-2.2,1.3-3.3c0-0.7,0.1-1.4,0.4-1.9c0.9-1.6,0.8-3.5,0.7-5.2c-0.1-2.6-0.8-5.2-1.4-7.7c-0.2-0.8-0.6-1-1.3-0.5
			c-0.4,0.3-0.8,0.7-1.2,0.8c-2.3,0.5-4.1,1.7-5.9,3.1c-0.9,0.7-1.5,1.4-1.8,2.5c-0.4,1.2-0.3,2.5-0.7,3.7c-0.5,1.7-0.3,3.3,0,5
			c0.1,0.7,0.5,1.3,1.1,1.7c1.4,0.8,2.9,1.6,4.4,2.3c1,0.5,2.1,0.8,3.2,0.8c0.7,0,1-0.1,0.6-0.9c-0.8-1.3-0.8-3-1.6-4.3
			c-0.1-0.2-0.1-0.5-0.1-0.8c0-0.2,0-0.6,0.3-0.6c0.3,0,0.3,0.3,0.4,0.5C9.9,56.3,10.4,57.8,11,59.6z M36.1,59.7
			c-0.1-0.5-0.5-0.8-1-0.9c-0.3,0-0.5,0.2-0.4,0.4c0.1,0.5,0.5,0.8,1,0.9C36.1,60.2,36.1,60,36.1,59.7z"/>
		<path class="st0" d="M36,32c2.3-0.1,3.5,0.5,4,1.9c0.3,0.8-0.3,1.6-1.1,1.6c-2.2,0-4.1-0.7-5.7-2.2c-0.2-0.1-0.4-0.3-0.3-0.5
			c0-0.3,0.2-0.4,0.5-0.5C34.3,32.2,35.2,32,36,32z M37.5,34.9c0.4-0.3,1.2,0.3,1.4-0.6c0.1-0.7-0.4-1.2-1-1.4
			c-1.1-0.3-2.1-0.2-3.2,0.1c-0.3,0.1-0.5,0.3-0.2,0.5C35.4,34,36.3,34.7,37.5,34.9z"/>
		<path class="st0" d="M33,20c1.5,0,2.9,0.3,4.1,1.4c0.2,0.2,0.5,0.4,0.3,0.7c-0.1,0.3-0.4,0.2-0.6,0.3c-1.4,0.3-2.6-0.4-3.9-1
			c-0.2-0.1-0.4-0.3-0.6-0.4c-0.3-0.2-0.9-0.2-0.7-0.7c0.1-0.5,0.7-0.2,1-0.3C32.7,19.9,32.9,20,33,20z"/>
		<path class="st0" d="M35.7,48.8c0.1,0,0.5,0,0.8,0.1c1.1,0.5,2.1,0.4,3-0.5c0.2-0.2,0.5-0.5,0.8-0.2c0.3,0.3-0.1,0.6-0.3,0.8
			c-0.9,0.8-1.9,1.1-3.1,0.7c-1.5-0.4-2.9-0.4-4.1,0.8c-0.1,0.1-0.3,0.3-0.5,0.1c-0.2-0.2,0-0.4,0.1-0.5
			C33.3,49.2,34.3,48.7,35.7,48.8z"/>
		<path class="st0" d="M33.4,18c1.1-0.9,2.3-0.3,3.3,0c0.8,0.2,1.7,0.5,1.8,1.9C36.8,18.9,35.2,18.3,33.4,18z"/>
		<path class="st0" d="M40,29.7c0.3,0,0.5,0,0.8,0c1.2-0.2,1.3-0.4,1.1-1.6c-0.1-0.8-0.3-1.5,0.1-2.4c1,1.2,0.7,2.6,0.5,3.8
			C42.3,30.4,40.6,30.6,40,29.7z"/>
		<path class="st0" d="M38.3,29.2c-0.3,0-0.6-0.1-0.6-0.5c0-0.4,0.3-0.4,0.6-0.4c0.3,0,0.7,0,0.7,0.4C39,29.2,38.6,29.2,38.3,29.2z"
			/>
	</g>
</g>
</svg>
