<?xml version="1.0" encoding="utf-8"?>
<!-- Generator: Adobe Illustrator 19.2.1, SVG Export Plug-In . SVG Version: 6.00 Build 0)  -->
<svg version="1.1" id="Layer_1" xmlns="http://www.w3.org/2000/svg" xmlns:xlink="http://www.w3.org/1999/xlink" x="0px" y="0px"
	 viewBox="0 0 125.1 200" style="enable-background:new 0 0 125.1 200;" xml:space="preserve">
<style type="text/css">
	.st0{fill:#C2185B;}
</style>
<g id="throat-main">
	<path class="st0" d="M20.9,200c0-3.6,0-7.2,0-10.7c0-3,0-6-0.2-9c-0.1-1.8-0.5-3.6-0.8-5.5c-0.2-1.9-0.4-3.7-0.6-5.6
		c-0.4-3.9-1.2-7.7-2.7-11.4c-1.9-4.6-3.6-9.4-5.3-14.1c-1.7-4.5-3.3-9.1-5-13.6c-0.5-1.3-1.1-2.6-1.8-3.8c-1.7-2.9-2.9-6.1-3.7-9.4
		c-0.9-3.7-0.9-7.4-0.5-11.2c0.1-1.3,0.2-2.7,0.2-4c0-3.2,1.7-5.2,4.3-6.6c2-1.1,4.1-1.9,6.2-2.9c1.3-0.7,2.8-1.3,3.8-2.3
		c0.8-0.8,1.2-2.1,1.7-3.1c0.9-2,1.7-4.1,2.7-6.2c1.2-2.6,1.7-5.3,2.3-8.1c0.7-3.1,1.5-6.2,2.2-9.3c0.9-3.6,1.9-7.2,2.8-10.8
		c0.8-3.3,1.4-6.6,2.3-9.8c0.3-1.2,0.8-2.4,1.4-3.5c1.5-3.2,2.6-6.6,3.5-10c0.9-3.4,2.1-6.7,4.1-9.6c1.7-2.5,3.1-5.2,4.7-7.8
		c2.1-3.4,5.1-5.8,8.8-7.3c3-1.2,5.9-2.7,9.1-3.5c2.8-0.7,5.7-0.9,8.7-0.2c1.7,0.4,3.6,0.6,5.3,1.1c2.7,0.7,5,2.1,7,4
		c1.4,1.5,3,2.8,4.2,4.5c3.4,4.8,5.6,10.2,6.6,16c1.1,6.3,1.3,12.6,0.9,18.9c-0.3,4.6-0.8,9.2-1.4,13.8C90.7,63,90,67.2,89,71.4
		c-0.5,2.2-1.6,4.3-2.5,6.4c-0.2,0.6-0.5,1,0.1,1.5c2.5,2.1,5.2,3.8,8.4,4.5c5.7,1.3,11.4,2.7,17.1,4.2c3.2,0.9,6.2,2.6,8.8,4.8
		c1.2,1,2.6,2.1,3.1,3.7c0.3,0.9,0.4,1.9,0.6,2.8c0.2,1.4,0.5,2.9,0.5,4.3c0,1.5-0.3,2.9-0.4,4.4c-0.3,3.1-0.7,6.3-0.8,9.4
		c-0.2,7.2-0.1,14.3-0.3,21.5c0,2-0.6,3.9-0.8,5.8c-0.3,2.3-0.5,4.5-0.7,6.8c-0.3,3.2-0.5,6.5-0.8,9.7c-0.2,2.4-0.3,4.8-0.6,7.1
		c-0.2,1.6-0.6,3.1-1,4.7c-0.6,2.3-1.3,4.5-2,6.8c-0.9,3.1-1.8,6.2-3.6,8.9c-0.5,0.8-1.3,1.4-2,1.9c-1.1,0.9-2.4,1.6-3.4,2.5
		c-1.6,1.4-3.5,1.9-5.5,2.3c-1.2,0.2-2.3,0-3.2-0.9c-1.5-1.5-3.2-3-4.6-4.7c-2.4-2.7-4.9-5.3-6.8-8.4c-2.1-3.3-3.6-7-5.4-10.5
		c-1.3-2.7-2.7-5.3-4-8c-0.9-1.9-1.9-3.8-2.8-5.7c-0.1-0.2-0.2-0.3-0.4-0.7c-1,1.7-2,3.4-3,5c-0.3,0.4-0.7,0.7-1.1,1
		c-0.3-0.4-0.7-0.7-0.9-1.1c-1-2-2-4-3-6.1c-0.1,0-0.2,0.1-0.4,0.1c-0.3,1.4-0.5,2.9-0.8,4.3c-0.5,2.8-0.9,5.5-1.4,8.3
		c-0.9,4.3-1.8,8.6-2.8,12.8c-0.9,3.7-2.5,7.2-4.5,10.4c-0.8,1.2-2,2.2-3.1,3.3c-0.3,0.3-0.8,0.4-1.2,0.4c-1.3,0-2.6,0-3.9-0.2
		c-2.9-0.5-5.8-1.2-8.3-2.8c-1-0.6-2.1-1.3-3-2.1c-6.3-5.8-12-12.1-16-19.8c-0.6-1.2-1.2-2.5-1.9-3.7c0.1,1.1,0.3,2.2,0.4,3.3
		c0.1,1.1,0.2,2.3,0.4,3.4c0.2,1.6,0.5,3.2,0.6,4.9c0.2,2.1,0.1,4.3,0.4,6.4c0.5,3.1-0.2,6.2,0,9.3c0.1,2.1,0.1,4.1,0.2,6.2
		C22,200,21.5,200,20.9,200z M42.2,159c-0.9,2.6-1.9,4.9-2.3,7.3c-0.4,2.1-0.5,4.3-0.4,6.5c0.2,3.4,0.6,6.7,2.6,9.7
		c0.2,0.2,0.4,0.6,0.3,0.8c0,0.4-0.2,0.7-0.4,1.1c-0.3-0.1-0.8-0.2-1-0.4c-0.7-1.2-1.4-2.4-1.8-3.7c-1.3-3.4-1.4-7-1.4-10.5
		c0-1.2,0.1-2.4,0.4-3.6c0.3-1.4,1-2.7,1.3-4.1c0.5-2.2,1-4.4,1.3-6.7c0.5-3.1,1.9-6.1,1.6-9.3c-0.1-1.2-0.1-2.6-0.6-3.7
		c-1.2-2.6-2.6-5.2-3.9-7.7c-0.9-1.7-1.9-3.3-2.6-5c-1.4-3.2-2.5-6.6-4-9.7c-0.9-2-1.7-4.1-3.9-5.2c-0.2-0.1-0.4-0.3-0.4-0.4
		c0-0.4-0.1-0.9,0.1-1.2c0.1-0.1,0.7-0.3,0.9-0.1c0.9,0.7,1.9,1.4,2.4,2.3c1.5,2.6,2.8,5.2,4,7.9c1.3,2.9,2.4,6,3.7,8.8
		c1,2.1,2.5,3.9,3.6,6c0.8,1.5,1.4,3.1,2.2,4.7c0.5-2.6,1-5.2,1.2-7.9c0.2-2.3,0.1-4.5,0.1-6.8c0-4.3,0.4-8.5,1.4-12.6
		c0.2-1,0.1-1.8-0.9-2.6c-1.6-1.2-3.2-2.6-4.4-4.2c-2.9-3.6-5.5-7.5-8.2-11.2c-2.1-2.9-3.4-6.2-4.9-9.5c0,0-0.1,0-0.2,0
		c-3.4,1.4-6.8,2.9-10.3,4.3c-1.4,0.6-2.8,1.2-4.3,0.6c-0.1-0.1-0.4,0.1-0.6,0.1C10.5,94,8,95,5.7,96.2c-2.4,1.3-3.9,3.2-3.8,6.1
		c0,0.8,0,1.6,0,2.4c-0.1,2.7-0.4,5.4-0.2,8.1c0.4,4.6,2,8.8,4.1,12.9c1.2,2.2,2,4.5,2.9,6.8c0.5,1.4,0.9,2.9,1.4,4.3
		c2,5.4,4.2,10.7,6.2,16.1c1.3,3.5,2.5,7,4.4,10.2c0.6,1,1.2,2.1,1.6,3.2c1.6,3.8,3.8,7.3,6.2,10.6c3.1,4.1,6.6,7.9,10.3,11.3
		c1,0.9,2.1,1.7,3.3,2.5c2.5,1.7,5.3,2.2,8.2,2.8c1.2,0.2,2.5,0.7,3.5-0.6c0.1-0.1,0.4-0.1,0.7-0.2c0.2-0.1,0.6-0.2,0.7-0.3
		c0.8-1.1,1.8-2.1,2.4-3.3c2.2-4,3.6-8.4,4.5-12.9c1-5.4,2.2-10.8,3.2-16.2c0.4-2.2,0.7-4.4,1.1-6.6c0.5-2.9,0.9-5.8,1.4-8.7
		c0.4-2.7,0.5-5.5-0.1-8.2c-0.6-2.9-1.3-5.8-1.1-8.9c0.2-2.5,0.3-5,0.4-7.6c0-0.7-0.2-0.9-0.9-1.1c-1-0.2-2-0.5-3-0.9
		c-1.9-0.7-3.9-1.2-6-1.1c-1.8,0-3.7,0-5.5,0c-1.1,0-2.2,0.2-3.3,0.4c-0.2,0-0.6,0.4-0.6,0.6c-0.3,3-0.6,6-0.9,8.9
		c-0.1,1.1,0.4,1.7,1.3,2.3c1.1,0.7,2.1,1.4,3.2,2.1c1.3,0.9,2.4,2.1,3,3.6c0.2,0.4-0.1,0.9-0.1,1.3c-0.4-0.2-0.8-0.4-1.2-0.6
		c-0.1-0.1-0.1-0.2-0.2-0.3c-1.3-2.4-3.7-3.5-5.8-4.9c-0.1,1.7-0.1,3.3-0.3,4.9c-0.3,2.7-0.6,5.5-1.2,8.1c-0.9,4.1-2,8.1-3,12.2
		c-0.2,0.9-0.1,1.6,0.5,2.4c1.7,2.3,3.4,4.5,5.1,6.9c0.2,0.3-0.1,0.9-0.1,1.3c-0.4-0.1-0.9-0.1-1.2-0.3c-0.4-0.3-0.6-0.9-0.9-1.3
		C44.7,162.6,43.5,160.9,42.2,159z M68.2,124c0.1,2.4-0.1,4.8,0.8,7.1c0.6,1.4,0.7,3.1,1.2,4.6c1.3,3.9,2.7,7.7,4,11.5
		c2.1,6.3,5,12.3,8.1,18.2c2.1,4,4,8,6,12c0.2,0.5,0.4,0.9,0.7,1.4c1,1.7,2,3.5,3.2,5.1c1.3,1.7,2.7,3.3,4.2,4.8
		c1.2,1.3,2.7,2.3,4,3.5c0.4,0.3,0.9,0.7,1,1.1c0.2,0.6,0.5,0.6,1,0.6c2,0,3.8-0.7,5.4-1.9c0.7-0.6,1.4-1.2,2.2-1.6
		c1.9-1.1,3.4-2.6,4.2-4.7c0.7-1.8,1.4-3.6,2-5.4c0.9-2.8,1.7-5.7,2.5-8.5c0.2-0.9,0.5-1.7,0.6-2.6c0.3-2.9,0.6-5.7,0.8-8.6
		c0.3-3.3,0.5-6.7,0.8-10c0.2-2.1,0.4-4.3,0.7-6.4c0.3-2.2,0.8-4.4,0.9-6.7c0.2-7.5,0.2-15.1,0.3-22.6c0-1.7,0.1-3.5,0.5-5.2
		c0.6-3.5,0.5-7,0.1-10.5c-0.1-1.1-0.5-2.3-1.2-3.1c-2.5-3-5.9-4.9-9.5-6.2c-3.8-1.3-7.7-2.1-11.6-3.1c-1.2-0.3-2.5-0.6-4-1
		c1.7,2.4,2,4.8,2,7.4c0,3-0.2,6-0.8,8.9c-0.8,3.6-1.2,7.3-2.1,10.9c-0.8,3.4-1.9,6.7-2.8,10c-0.1,0.2-0.3,0.4-0.4,0.7
		c-0.1,0.3-0.4,0.7-0.3,1c0.8,2.5,1.5,5.1,2.5,7.6c0.9,2.3,2.2,4.4,3.3,6.6c0.6,1.1,1.1,2.2,1.8,3.5c1.6-4.2,2.6-8.4,3.3-12.6
		c0.7-4.3,2.4-8.3,3.7-12.4c0.1-0.2,0.4-0.5,0.7-0.5c0.2,0,0.6,0.2,0.6,0.4c0.1,0.4,0.1,0.8,0,1.2c-0.6,1.8-1.3,3.7-1.9,5.5
		c-0.5,1.4-1,2.9-1.3,4.3c-0.9,4.7-1.7,9.5-3.4,14c-0.3,0.8-0.6,1.9-0.3,2.7c1.3,3.3,3,6.5,5,9.5c1.2,1.8,2.4,3.7,3.5,5.6
		c0.6,1.1,1,2.4,1.8,3.4c1.1,1.5,1.8,3.1,2.2,4.9c0.3,1.2,0.5,2.5,0.7,3.7c0,0.3-0.2,0.7-0.4,0.9c-0.2,0.1-0.8,0-0.9-0.1
		c-0.3-0.5-0.7-1.1-0.6-1.6c0.1-2.2-0.5-4.1-1.6-6c-0.7-1.2-1.4-2.5-2.1-3.7c-0.7-1.2-1.3-2.3-2-3.5c-1.8-3-3.8-5.9-5.5-9
		c-1.7-3.1-3.1-6.4-4.8-9.5c-2.2-4.2-4.3-8.4-5.4-13c-0.7-2.6-1.5-5.3-2.2-7.9c-0.2-0.7-0.6-0.9-1.3-0.9c-1.5,0.1-3,0.2-4.4,0.4
		c-5,0.8-9.6,2.4-13.9,5.2C69.2,123.6,68.7,123.7,68.2,124z M88.1,28.7c0-1.5,0.1-3,0-4.4c-0.2-3.5-1.2-6.8-3.9-9.3
		c-1-1-2-2-3.1-2.9c-1.7-1.4-3.5-2.6-5.9-2.3c-1.8,0.2-3.5,0-5.1-1c-0.2-0.1-0.5-0.2-0.8-0.2C65.1,8.4,61.6,9.8,59,13
		c-2.6,3.1-4.5,6.7-5.3,10.7c-0.6,3.3-1.3,6.5-1.7,9.8c-0.4,3.3-0.3,6.7-0.5,10.1c-0.2,2.5-0.3,5.1-0.7,7.5c-0.6,4.1,1,7.4,4,9.8
		c2,1.7,4.5,2.7,6.9,3.9c2.7,1.4,5.7,2.3,8.8,2.2c4.5-0.1,8.7-1.5,12.6-3.8c0.7-0.4,1.2-1.2,1.8-1.9c2.1-2.7,2.2-6.1,2.8-9.3
		c0.4-2.1,0.5-4.2,1.4-6.1c0.2-0.5,0.4-1.1,0.4-1.6c0-4.2,0.2-8.4-0.9-12.4c-0.1-0.4-0.1-0.7-0.1-1.1c-0.1-0.3-0.2-0.7-0.3-0.8
		c-1.1-0.4-2.2-1-3.4-1.1c-1.4-0.1-2.8,0.2-4.2,0.3c-0.7,0-1.5,0-2.2-0.2c-0.7-0.2-1-0.8-0.9-1.6c0.1-0.7,0.5-1.1,1.2-1
		c1.2,0.1,2.4,0,3.5,0.2c1.8,0.3,3.6,0.6,5.2,1.7C87.6,28.5,87.8,28.6,88.1,28.7z M49.2,105.4c0.1,0,0.4,0,0.6,0
		c2.7-0.2,5.4-0.5,8-0.6c1.3-0.1,2.6,0,3.9,0.3c2.2,0.6,4.4,1.3,6.6,2.1c0.5,0.2,0.7,0.1,0.9-0.4c1.7-3.7,3.4-7.3,5.2-10.9
		c1.1-2.2,2.4-4.3,3.6-6.5c0.6-1,1.8-1,2.5-0.1c0.3,0.3,0.5,0.7,0.9,1.1c0.1-1.8-0.5-3.1-1.5-4.3c-1-1.2-2.1-1.4-3.2-0.5
		c-1.4,1.2-2.8,2.4-3.7,4.1c-0.1,0.3-0.6,0.4-1,0.5c0-0.4-0.2-0.8,0-1.1c0.4-0.7,0.8-1.5,1.3-2.1c1.3-1.6,2.7-3.1,4.1-4.7
		c0.6-0.7,0.6-1.6-0.1-2.2c-0.6-0.5-1.7-0.5-2.2,0c-2.4,2.5-4.7,5-7.1,7.5c-0.3,0.3-0.8,0.3-1.2,0.4c0.1-0.4,0-0.8,0.2-1.1
		c3.7-4.2,7.4-8.4,11.2-12.6c-0.7-0.9-1.5-1.8-2.2-2.7c-2.4,2.1-4.7,4.2-7.1,6.3c-1.5,1.3-2.9,2.7-4.4,4c-0.2,0.2-0.6,0.1-1,0.1
		c0.1-0.3,0-0.7,0.2-0.9c0.4-0.4,0.9-0.7,1.3-1.1c3.6-3.4,7.3-6.7,10.8-10.1c-0.9-0.6-1.7-1.2-2.6-1.7c-0.2-0.1-0.5-0.1-0.7,0
		c-0.8,0.5-1.6,0.9-2.3,1.5c-1.2,1-2.4,2.1-3.6,3C65,74.2,63,75.5,61.4,77c-1.7,1.5-3.1,3.3-4.7,5c-2.4,2.5-4.2,5.3-5.3,8.6
		c-0.3,0.8-0.2,1.8-0.4,2.7c-0.1,0.3-0.4,0.5-0.7,0.7c-0.2-0.2-0.5-0.5-0.5-0.7c0-0.7,0-1.3,0.1-2c0.2-1.3,0.6-2.5,0.1-3.9
		c-0.8-2.2-1.4-4.6-2-6.9c-0.3-1.1-0.5-2.2-0.7-3.5c-0.8,1.1-1.3,2.1-2.1,2.8c-0.6,0.5-0.7,1-0.7,1.6c-0.4,3.5,1,6.8,1.4,10.3
		c0.2,1.8,1.2,3.5,1.6,5.3C48.1,99.8,48.6,102.5,49.2,105.4z M97.2,90.4c-2.1,1.1-3.9,2-5.8,3c-1.1,0.6-2.3,1.1-3.4,1.6
		c-0.5,0.2-1.1,0-1.3-0.6c-0.1-0.6,0.3-0.8,0.9-1c1-0.3,2-0.8,2.9-1.3c1.2-0.6,2.3-1.3,3.4-1.9c0.8-0.4,1.5-0.8,2.3-1.3
		c0.2-0.1,0.3-0.5,0.2-0.7c-0.4-0.9-0.8-1.8-1.2-2.6c-0.1-0.1-0.3-0.2-0.4-0.2c-3.4-0.6-6.1-2.4-8.6-4.5c-0.4-0.4-0.9-0.8-1.4-1
		c-1.4-0.4-2.3-1.3-2.8-2.5c-0.5-1.1-1-2.2-1.3-3c-1.5,1.3-3.1,2.6-4.6,3.9c0.1,0.1,0.1,0.2,0.2,0.3c1.4,0.1,2.3,0.7,2.8,2
		c0.6,1.5-0.5,2.3-1.1,3.3c2.4,0.4,3.9,1.8,4.5,4.1c0.3,1.1,0.5,2.1,0.8,3.2c0.1,0.5,0.3,1.1,0.4,1.6c0.3,2.1,0.5,4.1,0.8,6.2
		c0.2,1.8,0.5,3.5,0.6,5.3c0.1,0.6,0.2,1.1,0.8,1.3c0.9,0.5,1.8,1,1.2,2.3c0,0.1,0.1,0.2,0.2,0.6c1.4-1,2.8-2,4.2-3
		c1.2-0.8,2.5-1.8,3.9-2.4c0.9-0.4,1.2-0.8,1.3-1.6c0.1-0.4,0.1-0.8,0.2-1.2C97.4,97.1,97.3,93.9,97.2,90.4z M43.1,78.7
		c-0.1,0-0.2-0.1-0.3-0.1c-0.5,0.5-0.9,1-1.4,1.5c-1.2,1.4-2.5,2.6-4.2,3.3c-1.6,0.7-3.3,1.4-4.9,2.3c-2.7,1.4-2.7,1-1.8,3.9
		c0.1,0.4,0.2,0.9,0.3,1.2c0.8,1.5,1.6,2.9,2.5,4.4c0.1,0.2,0.3,0.4,0.5,0.4c1.6,0.5,3.1,1.1,4.7,1.3c1.7,0.2,3.6-0.2,5.2,0.6
		c0.4,0.2,0.8,0.4,1.1,0.7c0.1,0.1-0.1,0.7-0.3,0.7c-0.4,0.2-0.9,0.2-1.3,0.2c-1-0.1-2-0.5-3-0.6c-1.5-0.1-3.1-0.1-4.6-0.1
		c0.3,0.4,0.8,0.8,1.1,1.4c1.5,2.2,3,4.5,4.6,6.6c1.2,1.6,2.7,3,4.1,4.4c0.5,0.5,0.9,0.2,1-0.4c0.3-1.7,0.9-3.4,0.9-5
		c0-2-0.4-4-0.8-5.9c-0.4-1.8-1.2-3.6-1.7-5.4c-0.5-1.8-0.5-3.7-1-5.4c-0.8-3-1.1-6.1-0.8-9.2C43.2,79.3,43.2,79,43.1,78.7z
		 M88,116.2c-0.5-1.3-1.1-2.7-1.6-4.1c-0.4-1.3-0.9-2.7-0.8-4.1c0-1.1-0.2-1.5-1.1-1.7c-1-0.2-2-0.3-2.9-0.2
		c-1.2,0.1-2.4,0.5-3.6,0.9c-2.5,0.8-4.9,1.6-7.4,2.4c-0.2,0.1-0.5,0.4-0.5,0.6c-0.5,2.8-1,5.5-1.4,8.3c-0.2,1.3-0.2,2.7-0.3,4.3
		c3.1-2,6.2-3.5,9.5-4.4C81.2,117.3,84.6,116.9,88,116.2z M68.6,108.5c-2-0.7-3.9-1.4-5.9-2c-1.2-0.4-2.6-0.6-3.9-0.6
		c-2.9,0.1-5.8,0.4-8.6,0.5c-1.1,0-1.4,0.5-1.5,1.5c0,0.4-0.1,0.8-0.2,1.3c-0.1,0.5-0.3,0.9-0.3,1.4c0,0.6,0.1,1.3,0.1,1.9
		c0,1.2,0,2.3,0,3.6c0.5-0.1,0.9-0.2,1.4-0.2c3.3,0,6.5,0,9.8,0c0.2,0,0.4,0,0.6,0.1c1.6,0.5,3.2,1,4.8,1.5c2.2,0.7,2.2,0.6,2.5-1.6
		c0.1-0.4,0.1-0.7,0.2-1.1C67.9,112.7,68.3,110.7,68.6,108.5z M79.2,89.7c-3.1,6.2-6.2,12.2-9.3,18.3c4.8-1.2,9.1-3.1,13.9-3.2
		c0-0.3,0-0.5,0-0.8c-0.4-2.9-0.7-5.9-1.1-8.8c-0.1-0.6,0-1.3-0.3-1.7C81.5,92.2,80.4,91.1,79.2,89.7z M50.4,74.1
		c-0.4-1-0.8-2-1.2-3c-0.3-0.9-0.2-1.6,0.7-2.2c2-1.4,3.6-1,5.1,0.9c1.7,2.1,3.6,4,5.4,6c0.6-0.5,1-0.9,1.4-1.2
		c-0.5-0.8-1-1.6-1.5-2.3c-0.5-0.7-1.1-1.4-1.6-2.1c-1.4-2-1-3.7,1.5-4.7c-4.2-1.6-7.8-3.7-10.1-7.5c-0.3,1.3-0.6,2.4-0.7,3.6
		c-0.4,3.9-1,7.7-2.4,11.3c-0.4,1,0.1,1.6,0.7,2.2C48.7,74.7,49.5,74.4,50.4,74.1z M54.9,71.7c-0.4,0.6-0.7,1.1-1.2,1.5
		c-0.4,0.4-1,0.7-1.5,1c0.5,1.9,1,2.6,4.5,6c0.7-0.8,1.4-1.7,2.2-2.5c0.7-0.7,0.6-1.3,0-1.9C57.6,74.5,56.3,73.1,54.9,71.7z
		 M50.3,80.2c0.9,1.2,1.8,2.6,2.7,3.9c0.8-1,1.6-1.9,2.4-2.8c-0.9-1-1.8-2-2.5-2.8C52,79.1,51.3,79.6,50.3,80.2z M61.3,71.4
		c0.5,0.7,1.2,1.5,1.8,2.3c3.4-2.1,3.7-2.2,0.9-4.8c0,0-0.1,0-0.1,0C63.1,69.7,62.3,70.5,61.3,71.4z M52,72.7c0.6,0,2.2-1.6,1.9-2.1
		c-0.4-0.6-1.1-1.1-1.7-1.3c-0.7-0.2-1.7,0.6-1.7,1.2C50.4,71.3,51.4,72.7,52,72.7z M63,68c-1-0.8-1.8-1.6-3-0.9
		c-0.4,0.2-0.7,0.9-0.6,1.3c0.1,0.7,0.4,1.4,1.2,1.5C61.9,70,62.3,68.8,63,68z M67.4,70.6c0.9-0.7,1.8-1.4,2.8-2.2
		c-2-0.3-3.8-0.7-5.6-1C65.5,68.5,66.4,69.5,67.4,70.6z M50.2,75.6c-0.8,0-1.7,0.5-1.7,1.1c0,0.9,0.8,1.8,1.6,1.8
		c0.8,0,1.6-0.7,1.6-1.5C51.8,76.5,50.9,75.7,50.2,75.6z M79.1,73.5c1.4-1.3,1.2-2.5-0.1-3.2c-0.3-0.2-0.9-0.1-1,0
		c-0.2,0.4-0.5,1-0.3,1.3C78,72.3,78.6,72.9,79.1,73.5z M77.4,69.1c1.7-1,2-1.5,1.5-2.4c-1.4,0.4-2.8,0.8-4.5,1.2
		C75.6,68.4,76.5,68.8,77.4,69.1z M81.7,65.5c-0.7,0.3-1.1,0.5-1.5,0.7c0.1,0.1,0.2,0.1,0.3,0.2c-0.2,1-0.5,2-0.7,3
		c0.2,0.2,0.7,0.5,1.3,1C81.3,68.6,81.5,67.2,81.7,65.5z M51.2,87c0.9-0.9,1.2-1.7,0.5-2.7c-0.2-0.4-0.4-0.8-0.6-1.1
		c-0.2-0.2-0.5-0.4-0.7-0.6c-0.1,0.3-0.3,0.6-0.3,0.9c0.2,1,0.5,2,0.7,3C50.9,86.7,51.1,86.8,51.2,87z M44.6,78.6
		c0.7-1.1,1.3-2,1.9-3c-0.3-0.2-0.5-0.3-0.8-0.5C45.1,76.1,43.7,76.8,44.6,78.6z"/>
	<path class="st0" d="M74.3,58.1c-1.8,0.4-3.4-0.3-5-1.1c-1.2-0.5-2.3-1.2-3.5-1.8c-0.6-0.3-0.5-0.7-0.2-1.1
		c0.2-0.2,0.4-0.4,0.6-0.6c1.7-1.1,3.3-2.2,5.1-3.3c0.4-0.2,1-0.2,1.5-0.3c0.5,0,1,0.1,1.4,0c3-0.6,5,1,6.6,3.3
		c0.4,0.5,1.1,1,1.1,1.5c0,0.4-0.9,0.8-1.3,1.2C78.6,57.5,76.7,58.4,74.3,58.1z M79.8,55.3c0-0.1,0-0.2-0.1-0.3c-4.1,0-8.2,0-12.5,0
		c0.3,0.2,0.5,0.4,0.7,0.5c1.8,1,3.7,1.8,5.8,2C76.1,57.6,78.1,56.9,79.8,55.3z M80.2,54.2c0.1-0.1,0.1-0.1,0.2-0.2
		c-0.4-0.5-0.8-0.9-1.1-1.4c-1.1-1.3-2.4-2.3-4.3-2.1c-0.6,0.1-1.3-0.1-1.9,0c-0.8,0.1-1.6,0.3-2.4,0.7c-0.9,0.5-1.7,1.1-2.6,1.7
		c-0.3,0.2-0.5,0.5-0.8,0.7c0.4,0.1,0.7,0.1,1,0c1.6-0.9,3.3-1.7,5.2-1.7c1.5,0,3.1-0.4,4.4,0.7C78.7,53.4,79.5,53.8,80.2,54.2z
		 M78.5,54.3c0-0.1,0-0.2,0.1-0.3c-0.8-0.7-1.7-1.3-2.9-1.3c-0.8,0-1.7,0.1-2.5,0.2c-1.3,0.1-2.5,0.5-3.7,1.5
		C72.6,54.3,75.5,54.3,78.5,54.3z"/>
	<path class="st0" d="M60.6,36.4c-1.4-0.3-2.7-0.5-4-0.8c-0.2,0-0.5-0.3-0.5-0.5c0-0.2,0.2-0.5,0.4-0.6c2.2-0.9,4.4-1.8,6.6-2.5
		c1.5-0.5,3.9,0.9,4.4,2.4c0.1,0.2-0.2,0.8-0.4,0.8C64.9,35.6,62.7,36,60.6,36.4z M61,33.5c-0.9,0.4-1.8,0.8-2.7,1.1
		c0,0.2,0,0.3,0.1,0.5c0.9,0.1,1.8,0.2,2.8,0.2C61.1,34.7,61.1,34.1,61,33.5z M64.1,35c0.5-0.2,1.1-0.3,1.6-0.5
		c0.1-0.1,0.1-0.7,0-0.8c-0.5-0.3-1-0.6-1.6-0.8C64.1,33.6,64.1,34.3,64.1,35z"/>
	<path class="st0" d="M70,27.9c0,0.9-0.7,1.1-1.3,1.1c-2,0-4.1-0.2-6.1-0.1c-1.5,0.1-3.1,0.4-4.6,0.6c-0.7,0.1-1.5,0.5-2.2,0.6
		c-0.3,0-0.6-0.3-1-0.4c0.2-0.3,0.4-0.8,0.6-0.8c3.3-0.9,6.5-1.7,9.9-1.9c1.1-0.1,2.1-0.3,3.2-0.4C69.4,26.6,70,27,70,27.9z"/>
	<path class="st0" d="M82,31.3c0.9,0.5,1.9,0.9,2.8,1.4c0.5,0.3,1.1,0.5,1.4,1c0.3,0.3,0.4,1,0.2,1.4c-0.1,0.5-0.6,0.7-1.1,0.2
		c-0.1-0.1-0.2-0.1-0.3-0.1c-2.5-0.1-5-0.1-7.6-0.2c-0.3,0-0.8-0.1-0.9-0.2c0-0.4,0-0.9,0.2-1.1c0.7-0.6,1.5-1.1,2.4-1.5
		C80.1,31.9,80.9,31.7,82,31.3z M80.5,32.7c-0.9,0.4-1.7,0.9-2.6,1.3c0,0.1,0,0.2,0.1,0.3c0.9,0,1.8,0,2.6,0
		C80.6,33.8,80.5,33.3,80.5,32.7z M83.1,32.7c0,0.6,0.1,1.1,0.1,1.6c0.7,0,1.4,0,2.1,0c0-0.1,0.1-0.2,0.1-0.3
		C84.6,33.6,83.8,33.2,83.1,32.7z"/>
	<path class="st0" d="M70.2,45.1c0.9-0.3,1.6-0.6,2.3-0.7c0.2,0,0.5,0.3,0.8,0.5c-0.2,0.2-0.3,0.6-0.5,0.6
		C72,45.7,71.1,46.3,70.2,45.1z"/>
	<path class="st0" d="M77.1,43.6c0.4,0.6,0.8,1.2,0.7,1.3c-0.3,0.3-0.7,0.6-1.2,0.8c-0.2,0.1-0.5-0.4-0.8-0.6
		C76.2,44.7,76.6,44.3,77.1,43.6z"/>
</g>
</svg>
