<?xml version="1.0" encoding="utf-8"?>
<!-- Generator: Adobe Illustrator 19.1.0, SVG Export Plug-In . SVG Version: 6.00 Build 0)  -->
<svg version="1.1" id="Layer_1" xmlns="http://www.w3.org/2000/svg" xmlns:xlink="http://www.w3.org/1999/xlink" x="0px" y="0px"
	 viewBox="-404 213.4 150 134.6" style="enable-background:new -404 213.4 150 134.6;" xml:space="preserve">
<style type="text/css">
	.st0{fill:#03A9F4;}
</style>
<g id="pharm-lindsey">
	<path class="st0" d="M-271.7,315.9c-5.6-1.7-11.2-3.7-16.7-5.9c-1.7-0.7-3.4-1.4-4.7-2.7c-4.4-4.7,0.1-12.7-2.4-18.5
		c-2.1-4.8-8-6.4-13.2-7.4c0.1-0.1,0.1-0.2,0.2-0.4c-0.1-0.1-0.1-0.2-0.2-0.4c-0.1-0.6,0.1-1.1,0.4-1.6c0.4-1.4,0.7-2.7,1.8-3.7
		c0.2-0.2,0.3-0.3,0.5-0.4c1.7-3.9,3.3-7.8,5-11.7c1.1-2.6,1.9-6.3-0.6-7.7c-1.4-0.8-1.6-2.6-1.8-4.1c-0.4-5.4-0.8-10.8-2.5-15.9
		c-2.6-7.9-8.3-14.6-15.6-18.5c-7.2-3.8-16-4.6-24-2.3c-2.8,0.8-4.4,4-4.3,7c0.1,2.9,1.4,5.7,2.7,8.3c15.4-3.5,32.6,6.2,37.6,21.1
		c-7.3,0.7-14.8,1.4-21.7,3.9c-2.2,0.8-4.4,1.7-6.7,1.4c-7.2-1.1-14.6-0.8-21.7,0.8c-0.6-8.9,1.9-18.1,7.1-25.4
		c0.9-1.2,2.4-2.6,3.8-1.8c-1.1-3.5-2.3-7-3.4-10.5c-9.5,8.2-14.4,21.3-12.8,33.7c0.3,2.4,0.8,5-0.4,7.1c-2.2,3.8-0.4,8.7,2.1,12.2
		c1.3,1.9,2.9,3.6,4.3,5.4c0.1,0.1,0.2,0.2,0.3,0.2c0.2,0.1,0.3,0.2,0.5,0.3c0.4,0.1,0.7,0.3,0.9,0.7c0.2,0.3,0.4,0.8,0.5,1.2
		c0.6,1.3,1,2.7,1.4,4c1,3,3.4,5.8,4.3,8.8c1.4,1.4,2.8,2.9,2.6,4.7c-0.4,2.6-3.7,3.4-6.3,3.7c-7.4,0.9-14.7,2.3-21.8,4.3
		c-2.5,0.7-5,1.5-7.1,2.9s-3.8,3.4-5.4,5.4c-7.3,10-12.6,21.7-15,33.9c1.9-0.4,2.7-2.7,3.1-4.6c2.1-8.6,5.7-16.9,10.6-24.2
		c2.2-3.3,4.7-6.4,7.9-8.6c5.4-3.7,12.2-4.6,18.7-5.3c-1,1.5-1.9,3.1-2.3,4.8c-0.3,1.8,0.3,3.8,1.9,4.7c3.4,1.9,6.9,3.8,10.3,5.7
		c-2.6,2.8-5.2,5.5-7.9,8.3c-1.1,1.2-2.1,3.4-0.7,4.2c6.1,3.3,11.2,8.2,14.8,14.2c-0.7-7.3-7.9-12-14.2-15.7
		c4.5-4.3,8.6-9.1,12.1-14.2c-1.3-0.4-2.9,0.8-3,2.2c-3.9-2.3-7.9-4.6-11.8-6.9c0.3-2.2,0.5-4.5,1.7-6.4c1.2-1.9,3.4-3.3,5.6-2.8
		c2.5,0.6,5.2,0.3,7.5-1c-2.2,10,2.9,19.9,7.8,28.9c2.4,4.4,4.9,8.8,7.3,13.2c0.5,0.8,1.1,1.8,2.1,1.7c4.3-0.2,8.6-0.5,12.8-0.7
		c-4.2-7.2-4.5-16.6-0.6-24c1.8-3.5,4.6-7,4-10.9c-0.4-2.8-2.5-5-4.6-6.9c-0.4,1.9,0.6,4,2.4,4.8c-2.2-0.1-0.8,5.2-3,5.1
		c-1,0-1.4-1.2-1.6-2.2c-0.4-2.2-0.8-4.4-0.2-6.5s2.4-4.1,4.5-4.1c3.7,0,5.8,5.2,9.5,5.3c-2.1-3.9-6.3-6.5-10.7-6.8
		c-0.8-2.3,2.3-4.2,4.7-3.6c2.3,0.6,4,2.6,5.8,4.1c1.2,1,2.6,1.7,4.1,2.3c-2.8-3.7-6.5-6.8-10.8-8.8c1-1.1,1.9-2.3,2.9-3.4
		c4.5,3,9.1,6.2,12.1,10.7c3,4.6,3.7,11,0.5,15.3c-5.6,7.3-8.2,16.9-7,26.1c0.2,1.6,0.8,3.6,2.4,3.9c-1.9-6.6-1-13.8,1.3-20.2
		c2.3-6.5,5.9-12.4,9.5-18.2c0.8,3.6,2.7,7,5.5,9.5c-2.4,0.4-5,0.9-6.8,2.6c-1.8,1.7-2.2,5-0.3,6.4c0.9,0.6,2,0.8,3,1.3
		s1.8,1.8,1.2,2.7c-3.3,5-5.5,10.6-6.8,16.4c3-5,5.6-10.1,7.9-15.4c0.3-0.7,0.6-1.5,0.5-2.3c-0.1-0.8-0.8-1.5-1.4-2.1
		c-1.6-1.6-3.2-3.1-4.8-4.7c3.1-1.6,6.2-3.1,9.4-4.7c-2.3-1.8-4-4.5-4.5-7.4c7.7,6.3,19.5,5.6,27.2,12c6.9,5.6,8.8,15.2,9.7,24.1
		C-251.8,333.4-259.7,319.6-271.7,315.9z M-331.2,259.3c0.3-1.7,2-2.8,3.7-3.4c3.8-1.5,7.9-2,11.9-1.5c0.6,0.1,1.2,0.2,1.7,0.4
		c1.6,0.8,2.1,2.8,2.3,4.6c0.2,2.3-0.1,4.7-1.6,6.5c-1.9,2.3-5.3,2.7-8.3,2.9c-1.6,0.1-3.2,0.2-4.6-0.6c-1-0.6-1.7-1.6-2.4-2.6
		c-0.5-0.8-1-1.5-1.5-2.3C-330.6,262-331.4,260.7-331.2,259.3z M-348.5,257.8c0.7,0.5,1.4,1.1,2.2,1.6c0,0.3-0.1,0.5-0.1,0.8
		c-0.5,0.6-1.2,1-2,1.1c0.6-0.7,0.7-1.9,0.1-2.6C-348.6,258.4-348.8,258-348.5,257.8z M-352.7,259.9c0.4,0.4,0.8,0.9,1.2,1.3
		c-1.1,0.1-2.1,0-3.2-0.3C-354.2,260.3-353.5,259.7-352.7,259.9z M-358.5,262.6c0.2-2,1.6-3.8,3.5-4.5c0.3-0.1,0.7-0.2,1-0.1
		c-0.7,0.7-1.4,1.3-2,2c-0.4,0.4-0.8,0.8-0.9,1.4c-0.1,0.5,0.2,1.2,0.8,1.3c1.4,0.1,2.7,0.1,4.1,0.2c2.3,0.1,4.8,0.2,6.7-1.2
		c0.5-0.3,0.9-0.8,1.1-1.4c0.2-0.7-0.2-1.5-0.8-1.9c-0.6-0.5-1.3-0.7-2-1c1.7-0.1,3.5,0.1,5.1,0.7c0.6,0.2,1.3,0.5,1.7,1
		c1.1,1.1,0.9,2.9,0.6,4.4c-0.5,2.4-1.1,4.9-2.9,6.4c-1.4,1.1-3.2,1.5-4.9,1.8c-2.7,0.5-5.8,1-7.9-0.8c-1-0.8-1.5-2-2-3.2
		C-358.1,266.1-358.7,264.4-358.5,262.6z M-324.8,309.9c0.1,1.9,0.4,4.3,2.1,5.1c1.3,0.6,3.2-0.2,3.6-1.6c0.4-1.3-0.1-3.1,1.2-3.7
		c0.6,2.2-0.2,4.5-1.2,6.6c-2.5,5-6.3,9.9-5.5,15.4c0.1,1-0.6,1.9-1.6,2.2c-0.9,0.3-1.9,0.2-2.9,0.1c-3.7-0.5-7.5-1.3-10.4-3.7
		c-2.6-2.1-4.1-5.2-5.3-8.3c-0.8-1.9-1.5-3.9-2.1-5.9c-1.2-3.9-2-8-1.2-11.9c0.5-2.6,1.8-5.2,1.3-7.8c5.1,7,15.5,9.5,23.2,5.6
		C-325,304.1-324.9,307.1-324.8,309.9z M-316.5,291.2c-0.9,2.1-2.4,3.9-3.8,5.7c-1,1.3-2,2.6-3.3,3.4c-1.2,0.8-2.7,1.2-4.2,1.5
		c-3.7,0.7-7.6,0.8-10.9-0.9c-1.1-0.6-2.1-1.4-3.1-2.1c-3.8-2.9-7.8-6-10-10.2c-0.7-1.3-1.2-2.6-1.7-4c-1.3-3.6-2.7-7.1-4.1-10.7
		c-0.2-0.5-1-0.3-1.2,0.1c-0.2,0.5-0.1,1,0.1,1.5c-3.7-3.2-5.8-8.2-5.6-13.2c0-0.7,0.2-1.5,0.9-1.8c4.1,3.3,3.9,10.6,8.7,12.7
		c1.8,0.8,3.8,0.6,5.7,0.4c2.7-0.3,5.5-0.6,7.6-2.3c1.6-1.3,2.6-3.3,3.1-5.4c0.3-1.1,0.4-2.3,0.8-3.4c0.5-1.1,1.4-2,2.6-2.1
		c2.1-0.2,3.2,2.2,4,4.1c0.8,1.9,1.9,3.8,3.7,4.9c2.3,1.3,5.1,1.1,7.7,0.8c3.2-0.4,6.8-1,8.5-3.7c2.2-3.4,0.5-8.8,3.5-11.5
		c0.1,1.2,0.2,2.3,0.3,3.5c0.7,0.8,1.9-0.2,2.6-1s2.1-1.5,2.6-0.6c0.1,0.3,0.1,0.6,0.1,0.9c-0.5,6-2.6,11.9-6.1,16.7
		c-0.1-1.6-0.2-3.1-0.3-4.7c-0.4-0.1-0.8-0.1-1.2,0c0.2,3.4,0.2,6.8,0,10.1c-1.4,0.2-2.9-1.5-4-0.5c-0.4,0.3-0.4,0.9-0.5,1.4
		c-0.2,1.9,0.1,4.3,1.9,4.9C-312.3,288.1-315.5,289-316.5,291.2z M-309.4,290.4c-0.7-0.9-1.7-1.5-2.8-1.8c0.5-0.6,1.4-0.5,2-0.2
		c0.6,0.4,1,1.1,1.4,1.7c0.2,0.3,0.3,0.6,0.5,0.8C-308.7,291.2-309.1,290.8-309.4,290.4z M-303.9,292.6c-0.2,0.9-0.4,1.7-0.5,2.6
		c-1.3-0.9-2.7-2.1-2.8-3.8c0-1.3-0.7-2.6-1.8-3.4c0-0.3,0.5-0.2,0.8,0c0.9,0.7,1.9,1.5,2.9,2.2
		C-304.5,290.7-303.7,291.6-303.9,292.6z M-296.3,304.9c0,0.8-0.1,1.7-0.7,2.2c-0.3-2.9-1.6-5.7-3.5-7.8c-0.7-0.8-1.5-1.5-2.1-2.4
		c-0.5-0.9-0.8-2.1-0.3-3c1-1.8-0.1-4.1-1.8-5.4c-1.6-1.3-3.7-1.9-5.4-3c-1.7-1.2-3.2-3.2-2.6-5.2c0.8,0,1.5,0.3,2.1,0.8
		c-0.5,0.2-1.2,0.2-1.7,0c-0.2,0.4,0.1,1,0.6,1.2s1,0.1,1.5,0.1c1,0,1.9,0.4,2.8,0.7c2.6,1,5.1,2,7.7,3c0.8,0.3,1.7,0.7,2.2,1.3
		c0.7,0.8,0.8,1.9,0.9,3C-296.3,295.3-296.3,300.1-296.3,304.9z"/>
	<path class="st0" d="M-330.7,273.8c0.9,0.2,1.8,0.5,2.6,0.7c-0.2,0.8-0.9,1.4-1.7,1.4c-0.8,0-1.5-0.6-1.7-1.3
		C-331.1,274.5-330.8,274.2-330.7,273.8"/>
	<path class="st0" d="M-273.6,344.5c-0.4-1.5-0.6-3.2-0.5-4.7c0-0.4,0.1-0.9,0.4-1.2c0.3-0.3,0.8-0.5,1.1-0.2c0.4,2,0.9,3.9,1.3,5.9
		C-272.1,344.5-272.9,344.6-273.6,344.5"/>
	<path class="st0" d="M-363.2,266c0.1-0.6,0.6-1.2,0.3-1.7c0.4-0.2,0.9-0.1,1.2,0.2c-0.2,1.6,0.3,3.3,1.4,4.6c0.4,0.5,1,1.1,0.9,1.8
		c-0.2,0.3-0.7,0.4-1.1,0.2c-0.4-0.2-0.6-0.5-0.9-0.8c-0.7-0.9-1.2-1.9-1.6-3C-363.1,267-363.3,266.5-363.2,266"/>
	<path class="st0" d="M-338.2,274.4c0.5-0.1,1.1-0.2,1.6-0.1s1,0.5,1.1,1.1c-0.6,0.6-1.3,1.2-2.1,1.4c-0.8,0.3-1.7,0.3-2.4-0.2
		c-0.9-0.7-1.1-2-0.8-3.2c0.2-0.8,0.9-1.6,1.6-1.3c-0.2,0.7-0.4,1.4-0.3,2.1c0.1,0.7,0.6,1.4,1.3,1.6
		C-338.1,275.3-338.1,274.9-338.2,274.4"/>
	<path class="st0" d="M-305.1,260.2c-0.2-0.2,0-0.7,0.3-0.9c0.3-0.1,0.7,0,1.1,0.1c0.5,2.3,0.1,4.7-1.1,6.7
		c-0.6,0.9-1.5,1.8-2.6,1.6c-0.3-0.7,0.3-1.5,0.8-2.1c0.8-1,1.4-2.2,1.8-3.5C-304.7,261.4-304.7,260.6-305.1,260.2"/>
	<path class="st0" d="M-374.2,342.3c0.4,1.6,0.6,3.2,0.8,4.7c-0.6,0.4-1.5,0.1-1.9-0.5c-0.4-0.6-0.5-1.3-0.7-2
		c-0.3-2-0.6-4.1-0.9-6.2c-0.1-0.4-0.1-1,0.3-1.2c0.6-0.3,1.1,0.5,1.2,1.1c0.2,0.6,0.3,1.1,0.5,1.7
		C-374.6,340.7-374.3,341.5-374.2,342.3"/>
	<path class="st0" d="M-319,249.1c1.1,0.1,2.2,0.4,3.2,0.8c0.2,0.3,0,0.7-0.3,0.9c-0.3,0.2-0.7,0.2-1.1,0.2
		c-4.4-0.1-8.8,0.8-12.9,2.4c0-1.4,1.1-2.7,2.4-3.1c2.2-0.6,4.5-1,6.8-1.1C-320.3,249.1-319.6,249.1-319,249.1"/>
	<path class="st0" d="M-357,256.2c0.1-0.7,0.7-1.2,1.2-1.6c0.9-0.8,1.9-1.6,3.1-2.1c1.2-0.5,2.4-0.5,3.6-0.6c0.9-0.1,1.9-0.1,2.9,0
		c1.4,0.2,2.8,0.9,3.9,1.9c-0.3,0.7-1.3,0.8-2.1,0.8c-1.7,0-3.4,0-5.1,0c-1.6,0-3.1,0.3-4.5,1C-355.1,255.9-356.1,256.5-357,256.2"
		/>
	<path class="st0" d="M-315.6,257.7c0.2,0.7-0.1,1.5-0.6,2s-1.3,0.8-2,1c-2.2,0.7-4.5,0.9-6.7,0.7c-0.8-0.1-1.6-0.2-2.3-0.6
		c-0.7-0.4-1.1-1.2-1-2c0.2-0.7,0.9-1.2,1.5-1.6c2-1.2,4.3-1.8,6.6-1.9c0.4,0,0.7,0,1.1,0c0.8,0.1,1.6,0.5,2.3,1
		C-316.3,256.7-315.8,257.1-315.6,257.7 M-319.6,259.2c0.8,0.1,1.6-0.3,2.2-0.9c0.1-0.1,0.2-0.3,0.2-0.5c-0.8-0.2-1.6-0.7-2.2-1.3
		C-319.7,257.5-319.8,258.4-319.6,259.2 M-325.7,258.9c0,0.2,0,0.5-0.1,0.7c0.5,0.1,1,0.3,1.4,0.6c0.1-0.2,0.2-0.3,0.3-0.5
		c-0.5-0.5-0.7-1.3-0.6-2c-0.4,0.3-0.8,0.7-0.9,1.2"/>
	<path class="st0" d="M-322.9,284.1c-1.5-1.2-3.2-2.2-5.1-2.7c-0.5-0.1-0.9-0.2-1.4-0.2c-1.3,0-2.5,0.8-3.8,0.5
		c-3.4-0.9-7.3,0.5-9.3,3.4c-0.2,0.3-0.4,0.6-0.5,1c-0.2,1.1,0.8,2,1.8,2.7c2.3,1.5,5.1,2.6,7.9,2.6c3.3,0,6.5-1.7,9.2-3.7
		c0.6-0.4,1.2-0.9,1.5-1.6C-322.3,285.5-322.3,284.6-322.9,284.1z M-341.9,286c1.2-0.8,2.3-1.7,3.3-2.6c1.1-0.3,2.1-0.5,3.1-0.8
		c0.7-0.2,1.5,0.3,2.2,0.4c1.4,0.3,2.7-0.7,4.1-0.6c0.5,0,0.9,0.1,1.4,0.3c0.8,0.3,1.6,0.5,2.4,0.8c0.3,0.2,0.6,0.4,0.9,0.6
		c-0.8,0.5-1.7,0-2.7-0.3c-1-0.4-2-0.3-3.1-0.3c-2.2,0.1-4.5,0.1-6.6,0.8c-0.6,0.2-1.2,0.5-1.8,0.7c-0.9,0.4-1.8,0.7-2.7,1.1
		C-341.6,286.2-341.8,286.2-341.9,286z M-328.7,284.5c0.6-0.2,1.4,0.3,1.3,1c-0.4,0.2-0.8,0.3-1.2,0.3c0,0,0,0,0,0
		c-0.6,0.5-1.4,0.6-2.2,0.7c-0.1,0-0.1,0.1-0.2,0.1c-0.7,0.1-1.3,0.1-2,0.1c-1.4,0.1-3,0.2-4.3,0c-0.2,0-0.3-0.2-0.3-0.3
		c-0.1,0-0.1,0-0.2,0c0-0.1,0.1-0.2,0.2-0.3c0-0.2,0.2-0.3,0.3-0.4c0.1,0,0.3,0,0.4-0.1c0,0,0,0,0.1,0c0,0,0,0,0,0
		c0.1,0,0.1-0.1,0.2-0.1c0,0,0,0,0,0c0.7-0.1,1.3-0.2,2-0.3c0.2-0.1,0.5-0.2,0.7-0.1c0.5-0.1,0.9-0.2,1.4-0.2v0
		c0.4-0.3,0.9-0.3,1.4-0.2C-330.3,284.5-329.4,284.4-328.7,284.5C-328.7,284.6-328.7,284.5-328.7,284.5z M-330.8,289.6
		c-0.5,0.2-0.9,0.3-1.4,0.4c-2.5,0.4-5-0.6-7.3-1.6c-0.8-0.3-1.7-0.7-2.2-1.5c1.7,0.4,3.3,0.8,5,1.1c1.1,0.2,2.2,0.4,3.2,0.2
		c1.8-0.3,3.5-0.5,5.2-0.8c0.5-0.1,1-0.2,1.2-0.5c0.8-0.8,1.8-1.3,2.9-1.5c0.1-0.2,0.5-0.1,0.6,0.1
		C-325.7,287.3-328.2,288.7-330.8,289.6z"/>
</g>
</svg>
