<?xml version="1.0" encoding="utf-8"?>
<!-- Generator: Adobe Illustrator 19.1.0, SVG Export Plug-In . SVG Version: 6.00 Build 0)  -->
<svg version="1.1" id="Layer_1" xmlns="http://www.w3.org/2000/svg" xmlns:xlink="http://www.w3.org/1999/xlink" x="0px" y="0px"
	 viewBox="-365.8 158.5 179.6 195.9" style="enable-background:new -365.8 158.5 179.6 195.9;" xml:space="preserve">
<style type="text/css">
	.st0{fill:#00bcd4;}
</style>
<g id="pharm-danny-cyan">
	<path class="st0" d="M-323.9,306c-8.7,13.5-17.4,27.1-26.1,40.6c-1.6,2.4-3.2,5.1-4.1,7.8h3.2c9.8-15.5,19.6-30.8,29.5-46.3
		c0.6-1,1.5-2.2,2.7-2.2c0.7,0,1.3,0.4,1.9,0.8c7.1,5.4,8.3,15.4,8.8,24.3c0.5,7.8,0.9,15.6,1.3,23.4h2.2c0-3,0-6.1,0.1-9.1
		c2.3,3,4.5,6.1,6.8,9.1h19.2c1-2.3,0.8-5-0.1-7.4c-0.9-2.5-2.3-4.7-3.8-6.9c9.1-5.4,18.3-10.8,25.6-18.4c5-5.2,9-11.2,12.9-17.2
		c0.5,3.7,0.1,7.6-1.2,11.1c-1.2,3.1-3.1,6-4.9,8.8c-4.1,6.4-8.2,12.7-12.3,19c-1.4,2.1-2.8,4.3-4.6,6.1c-0.6,0.6-1.1,1.4-1.5,2.1
		c-0.5,0.9-1.1,1.9-1.7,2.8h3.8c4.8-7.4,9.6-14.8,14.4-22.2c3.2-5,6.4-10.1,8.3-15.7c2.9-8.5,2.3-17.7,1.7-26.7
		c5.4,21.3,10.8,42.6,16.2,63.9c0,0.2,0.1,0.5,0.1,0.7h3.4c-5.3-16.7-10-33.6-14-50.6c9.9,5.2,19.9,10.5,29.8,15.8
		c6.4,3.4,13.1,6.9,20.3,7.2c-14.9-7.5-29.7-15.1-44.5-22.6c-8.4-4.2-9.4-15.6-9.4-25c0-3.2,1.7-7.7,4.7-6.7
		c4.2,1.4,7.1-4.2,7.9-8.6c1.3-6.9,2.6-13.9,4-20.8c0.5-2.8,1.1-5.8,0-8.4c-1-2.6-4.3-4.5-6.8-3.1c1.3-9.1,2.4-18.3,1.7-27.5
		c-0.7-9.2-3.7-18.5-10-25.3c-5.6-6.1-13.3-9.7-20.8-13.1c-8.4-3.9-17.2-7.8-26.4-7.1c-6,0.5-11.8,2.9-17.2,5.7
		c-8.5,4.4-16.7,9.7-22.1,17.2c-10.6,14.2-10.9,33.5-9.9,51.2c0.1,1.4-0.1,3.2-1.4,3.7c-2.5,0.8-2.6,4.3-2.2,6.9
		c1.3,8.5,2.6,17,3.9,25.5c0.3,2.1,0.8,4.4,2.5,5.7c2,1.5,5.8,1.8,5.7,4.3c-0.4,8.4,2,16.9,6.7,23.8c-15.4,2.7-30.7,5.3-46,8
		C-351.7,311.1-337.6,309.5-323.9,306z M-292.4,340.9c-2.1,0.9-3.2,3.3-3.5,5.5c-0.3,2.3,0,4.6-0.4,6.8c-2.1-2.8-4.1-5.6-6.1-8.5
		c-0.8-1-1.6-2-2.1-3.2c-0.8-1.6-1-3.5-1.3-5.3c-1-6.9-2-13.7-3-20.6c5.4,5.9,8.8,13.5,14.8,18.8c1,0.9,2.1,1.8,2.6,3
		C-290.9,338.6-291.2,340.4-292.4,340.9z M-244.5,300.1c-0.4,2-1.4,3.8-2.4,5.5c-6.2,10.4-14.9,19.2-25.2,25.4
		c-3.1,1.9-6.4,3.6-9.6,5.2c-2,1-4.3,2-6.3,1.2c-1-0.4-1.8-1.2-2.6-2c-2-2.2-4.1-4.4-6.2-6.6c-1-1-1.9-2.1-2-3.4
		c3.6,2.7,8.4,3.8,12.8,2.9c2.8-0.6,5.4-1.9,7.9-3.1c2.5-1.2,4.9-2.4,7.3-3.6c1.8-0.9,3.6-1.8,5.3-2.9c1.3-0.8,2.4-1.7,3.5-2.6
		c6.9-5.8,12.9-12.8,17.6-20.5C-244.1,297.1-244.2,298.6-244.5,300.1z M-325.1,281.7c0-3.2,0.6-6.3,0.4-9.5
		c-0.2-3.1-1.3-6.5-3.9-8.3c0.7,3.3,1.5,6.5,2.2,9.7c-2.2,1.4-5.2-0.2-6.4-2.6c-1.2-2.3-1-4.9-1-7.5c-0.1-6.2-1.2-12.4-3.3-18.3
		c-0.4-1.2-0.9-2.4-0.8-3.7c0-1.3,0.9-2.6,2.1-2.8c0.8,3.1,2.6,5.8,5,7.9c0.4-8.1,1-16.5,4.2-24c1.2-2.8,2.8-5.6,2.8-8.6
		c0-1.8-0.5-3.5-0.7-5.3c-0.5-6.5,4.5-12.5,10.4-14.8c6.1-2.3,12.9-1.5,19.2,0.2c3.4,1,7,2.2,10.6,2c6.5-0.4,13.1-0.7,19.7-1
		c2.4-0.1,4.9-0.2,7,0.8c2.7,1.3,4.3,4,5.2,6.8c2.9,8.4,1.2,17.9,4.5,26.2c2.1,5.2,6.2,9.8,6.5,15.4c0.1,0.7,0.1,1.5,0.5,2
		c0.4,0.6,1.5,0.7,1.7,0c1.2-3.5,2.8-6.7,4.8-9.7c1.1-1.6,2.6-3.3,4.5-3.5c3.6-0.4,5.7,4.2,5.2,7.8c-0.6,4.5-3.1,8.5-3.9,12.9
		c-0.6,3.7,0,7.6-0.9,11.3c-0.9,3.6-4.5,7.2-8.1,6c-1.8-0.6-3.7,1-4.2,2.8c-0.6,1.8-0.2,3.7-0.1,5.6c0.5,9.2-5.5,17.3-11.5,24.3
		c-3.9,4.5-7.9,8.9-12.8,12.4c-4.4,3.1-9.3,5.4-14.2,7.7c-2.2,1.1-4.5,2.1-7,2.5c-4.3,0.6-8.7-1-12.2-3.5s-6.4-5.9-9.2-9.2
		C-316.7,304.4-325.1,293.9-325.1,281.7z"/>
	<path class="st0" d="M-268.5,350.3c-3.4,0.9-6.6,2.3-9.7,4.1h2.6c1.5-0.6,3.1-1.2,4.7-1.8C-269.7,352.2-268.4,351.5-268.5,350.3z"
		/>
	<path class="st0" d="M-295.8,259.6c0.4,1.2,0.5,2.4,0.4,3.6c-0.1,1-0.3,2-0.5,3c0,0.1,0,0.2-0.1,0.3c-0.2,0.3-0.7,0.2-0.9-0.1
		c-0.2-0.3-0.2-0.7-0.2-1c0-1.2,0-2.5,0.1-3.7c0-0.8,0.1-1.6,0.6-2.1C-296.2,259.6-296,259.6-295.8,259.6"/>
	<path class="st0" d="M-332.6,252.3c0.2-0.2,0.6-0.3,0.9-0.3c0.4,1.2,0.7,2.4,1,3.6c0.2,0.9,0.3,1.8,0.2,2.7c0,0.3-0.1,0.6-0.2,0.8
		c-0.2,0.2-0.6,0.3-0.8,0.1c-0.1-0.1-0.1-0.2-0.2-0.4c-0.3-1.5-0.6-3-0.9-4.5c-0.1-0.5-0.1-1.2,0.4-1.3
		C-332.4,252.8-332.6,252.6-332.6,252.3"/>
	<path class="st0" d="M-238,255c0.1-0.4,0.1-0.9,0.4-1.2c0.3-0.4,0.8-0.6,1.2-0.4c0.7,2,0.9,4.2,0.6,6.3c-0.1,0.8-0.4,1.6-1.1,2
		c0,0.4,0.1,0.8-0.1,1.1c-0.2,0.3-0.7,0.5-0.9,0.2c-0.2-0.2-0.2-0.4-0.2-0.6C-238.2,259.9-238.3,257.4-238,255"/>
	<path class="st0" d="M-298.2,312c-0.1-0.7,0.2-1.3,0.7-1.8s1.2-0.8,1.9-1.1c2.6-1,5.4-1.3,8.1-1c0.5,0.1,1.1,0.2,1.6,0.3
		c2,0.6,3.7,2,4.6,3.9c-0.1,0.6-0.9,0.8-1.5,0.5c-0.5-0.2-0.9-0.7-1.4-1.1c-0.8-0.8-1.9-1.2-3-1.5c-2.3-0.6-4.8-0.6-7.1,0.1
		c-0.6,0.2-1.2,0.4-1.7,0.9C-296.4,311.9-297.4,312.2-298.2,312"/>
	<path class="st0" d="M-229.6,241.2c-0.6-0.1-1.1,0.5-1.5,0.9c-0.6,0.6-1.4,1.1-2.2,1.3c-0.3-0.6-0.2-1.3,0.2-1.9
		c0.4-0.5,0.9-1,1.4-1.4c0.5-0.4,1.1-0.8,1.8-1c1-0.2,2.1,0.2,2.6,1.1c0.5,0.8,0.5,1.9,0.5,2.9c-0.1,1.3-0.3,2.6-0.8,3.8
		c-0.9,2.2-2.6,3.8-3.6,5.9c-0.5,1-0.8,2.2-1,3.3c-0.3,0.3-0.9,0.2-1.2-0.2c-0.3-0.3-0.4-0.8-0.5-1.2c0.2-0.4,0.3-0.8,0.4-1.2
		c0.6-2.8,2.9-4.8,4-7.4c0.5-1.1,0.7-2.2,0.8-3.4C-228.9,242.1-229,241.3-229.6,241.2"/>
	<path class="st0" d="M-283.3,279.9c-1.3,0.2-2.6-0.5-3.9-0.1c-1.1,0.4-1.7,1.4-2.6,2.1c-1.1,0.8-2.7,1-4,0.4
		c-1.3-0.6-2.4-1.9-3.8-2.2c-1.4-0.2-3,0.5-4-0.5c-0.5-0.5-0.6-1.2-0.6-1.9c0-0.5,0.1-1.1,0.4-1.5c0.3-0.4,1-0.6,1.4-0.3
		c-0.4,1.1,0.8,2.1,1.9,2.4c1.1,0.3,2.3,0.2,3.3,0.7s1.7,1.7,2.8,1.7c1.2,0.1,2-1.1,2.9-1.8c1.1-0.9,2.7-1.3,4.1-1
		c1.5,0.3,3.1-1,3.2-2.5c0.3,0,0.7,0,1,0.1c0.5,0.8,0.6,1.9,0.3,2.7C-281.5,279.1-282.4,279.7-283.3,279.9"/>
	<path class="st0" d="M-324.8,243.5c-0.5,0.3-1,0.7-1.5,0.7c-0.6,0-1.2-0.6-0.9-1.2c1.7-3.1,4.6-5.7,8-6.2c3.1-0.4,6.2,0.9,9,2.3
		c3,1.5,6,3.3,8.8,5.2c0.6,0.4,1.3,0.9,1.5,1.7c-0.3,0.1-0.6,0.3-0.7,0.5c-2.5-1.2-4.9-2.4-7.4-3.6c-3.2-1.5-6.5-3.1-10-2.7
		C-320.5,240.6-322.8,241.9-324.8,243.5"/>
	<path class="st0" d="M-249.4,242.7c-0.8,0.5-1.9,0.2-2.6-0.5c-0.7-0.6-1.1-1.5-1.8-2.2c-1.2-1.4-3.2-2.1-5.1-2.2
		c-1.9-0.1-3.8,0.4-5.6,0.9c-5.3,1.5-10.5,3.5-15.4,6.1c-0.5,0-0.8-0.7-0.6-1.2s0.7-0.8,1.1-1c5.3-3.2,11.1-5.7,17-7.5
		c2-0.6,4.2-1.1,6.2-0.5C-252.6,235.6-250.8,239.3-249.4,242.7"/>
	<path class="st0" d="M-257.3,249.7c1.5,0.7,3,1.7,3.7,3.2c-0.4,1.6-1.8,2.7-3.4,3.2c-1.5,0.5-3.2,0.3-4.8,0.2
		c-1.9-0.2-3.9-0.5-5.8-0.7c-2.4-0.3-4.7-0.6-7.1-0.9c-1-0.1-2.2-0.4-2.7-1.2c-0.5-0.9-0.2-2.1,0.5-3c0.6-0.8,1.3-1.4,2.2-1.9
		c0.7-0.3,1.4-0.5,2.1-0.7C-267.4,246.8-261.9,247.4-257.3,249.7 M-261.2,253.4c1.4,0.8,3.2,0.8,4.6,0c0.2-0.2,0.5-0.4,0.5-0.7
		c-0.6-0.5-1.3-0.9-2.1-1.2c-0.9-0.4-1.9-0.7-2.9-0.9C-261.3,251.5-261.3,252.5-261.2,253.4 M-271.1,252.5c0.1-0.8,0.1-1.7,0-2.5
		c-1.6-0.4-3.1,0.7-4.3,1.8c0,0.5,0.6,0.8,1.1,0.9C-273.2,252.9-272.1,252.8-271.1,252.5"/>
	<path class="st0" d="M-307.3,247.5c2.1,0.9,4.2,1.9,6.1,3.1c0.7,0.5,1.5,1,1.8,1.9c0.4,1.1-0.4,2.3-1.4,2.9c-1,0.6-2.2,0.6-3.4,0.7
		c-1.7,0-3.4-0.1-5-0.2c-2.4-0.1-4.9-0.2-7.3-0.4c-2.4-0.1-5.2-0.4-6.6-2.4c-0.4-0.6-0.7-1.3-0.4-2c0.3-0.6,1-0.9,1.6-1.1
		c3.5-1.2,7-2.2,10.6-2.9c0.7-0.1,1.4-0.2,2.1-0.2C-308.4,247-307.8,247.3-307.3,247.5 M-315.3,251c-1.4-0.6-3,0-4.3,0.6
		c-0.1,0-0.2,0.1-0.3,0.2c-0.4,0.3-0.3,0.9,0,1.2c0.3,0.3,0.8,0.5,1.2,0.5c1,0.2,2,0.1,2.9-0.1C-315.3,252.6-315.1,251.8-315.3,251
		 M-302,252.5c-0.6-0.4-1.2-0.9-1.7-1.3c-0.5-0.4-1.3-0.7-1.7-0.2c0.1,0.9-0.3,1.9,0.2,2.6s1.6,0.6,2.4,0.4c0.4-0.1,0.9-0.2,1.1-0.5
		C-301.4,253.1-301.5,252.5-302,252.5 M-312.8,251.9c0.3,0.2,0.6,0.5,1,0.7c0.3-0.3,0.5-0.6,0.6-1c0.1-0.4-0.1-0.8-0.5-0.9
		c0.2-0.2,0.3-0.3,0.5-0.5c-0.3-0.2-0.6-0.2-0.9-0.1c0,0.4-0.3,0.8-0.6,0.8C-312.8,251.3-312.8,251.6-312.8,251.9"/>
	<path class="st0" d="M-309,289.7c-0.2-0.6-0.4-1.3-0.3-1.9c0.1-0.6,0.7-1.3,1.3-1.2c11.4,0.9,23,0.9,34.4-0.2c1-0.1,2.1-0.2,3,0.1
		c1,0.3,1.8,1.2,1.8,2.2c0,0.4-0.2,0.8-0.3,1.2c-2.1,4.8-5.3,9.3-9.6,12.2c-4.4,2.9-9.9,4.3-15,3.1
		C-301.1,303.4-306.5,296.8-309,289.7 M-305.3,292c2.9,4.7,8.6,7.3,14.1,7.4c5.5,0,10.9-2.3,15.4-5.5c1.9-1.4,3.7-3,4.8-5.1
		c-4.6-0.8-9.3,0.1-13.9,0.5c-7.2,0.6-14.4-0.2-21.6-0.9C-306.5,289.6-306,290.8-305.3,292 M-300.9,298c-0.1,0.7,0.4,1.3,0.9,1.8
		c3.3,3.2,8.3,4.5,12.8,3.7c4.6-0.7,8.7-3.2,12-6.6c0.6-0.7,1.3-1.4,1.5-2.3c-3,2.1-6.2,4.1-9.6,5.3c-3.5,1.3-7.3,1.8-10.9,0.9
		C-296.6,300.3-298.8,299.2-300.9,298"/>
</g>
</svg>
