<?xml version="1.0" encoding="utf-8"?>
<!-- Generator: Adobe Illustrator 19.1.0, SVG Export Plug-In . SVG Version: 6.00 Build 0)  -->
<svg version="1.1" id="Layer_1" xmlns="http://www.w3.org/2000/svg" xmlns:xlink="http://www.w3.org/1999/xlink" x="0px" y="0px"
	 viewBox="0 0 150 167.5" style="enable-background:new 0 0 150 167.5;" xml:space="preserve">
<style type="text/css">
	.st0{fill:#00bcd4;}
</style>
<g id="pharm-marilyn-cyan">
	<path class="st0" d="M75.7,167c0-2.9,0-5.8-0.1-8.7c-7.7,0.6-15.5-0.8-22.5-4.1c-1.4,2.9-2.8,5.7-4.2,8.6c-0.6,1.2-2,2.7-3.1,1.9
		c3.9-6.4,6.6-13.7,7.7-21.1c0.9-5.7,0.3-12.6-4.6-15.7c-7.2,5-14.3,9.9-21.5,14.9c-1.5,1.1-4.3,1.7-4.7-0.1
		c7.4-5.9,15.1-11.4,23.1-16.4c-3.8-2.3-7.7-4.7-11.5-7c-2.2-1.3-4.4-2.7-5.8-4.7c-1.8-2.6-2.3-5.8-3.7-8.7
		c-2.4-5.2-7.9-10-6.2-15.4c0.7-2.3-1.5-4.3-3.3-5.8C9,79.7,3.8,73.4,0,66.4c7.1,3,13.5,7.5,18.9,13c2.8,2.9,6.1,6.4,10,5.7
		c-1-5.6-0.8-11.4-0.7-17.1c0.2-8.6,0.4-17.2,2.4-25.5c3.4-14.1,12.1-27,23.9-35.4c4.5-3.2,9.6-5.8,15.1-6.7
		c5.5-0.9,11.4,0,15.9,3.3c2.9,2.1,6.9,1.6,10.4,2.4c6.6,1.6,10.9,8,14.1,14c7.3,13.5,13.1,27.8,17.1,42.6
		c1.5,5.5,2.8,11.1,2.1,16.8c-0.8,7.2-4.7,13.7-7.3,20.5c-2.6,6.8-3.8,15,0.4,21c5.3,7.5,16.3,7.9,24.4,12.3
		c1.9,1.1,3.9,3.2,2.9,5.1c-6.5-3.3-13.1-6.6-20.2-7.9c-7.1-1.3-15-0.4-20.7,4c-3.7,2.9-6.2,7-8.6,11.1c-3.8,6.4-7.6,12.8-11.4,19.2
		c-2.6-7.3-6.1-14.2-10.4-20.7c0,7.7,0.1,15.3,0.1,23C77.7,167.7,76.5,167.6,75.7,167 M42.5,64.2c-0.9,4.1-0.9,8.5,0.1,12.6
		c0.4,1.6,0.7,3.8-0.7,4.6c-1.6-6.3-2.4-12.7-2.3-19.2c-0.6-0.5-1.3-0.7-2.1-0.5c0,3,0,5.9,0,8.8c0,3.7,0.2,8,3,10.4
		c7.9,7,14.2,15.8,18.5,25.5c-1.2-0.2-2.5-0.5-3.7-0.7c2,2.8,4.9,4.9,8.1,6.1c-7.2,0.2-14.4-1.4-20.8-4.7c-0.8-0.4-1.7-1.3-1.1-2
		c3,1.9,6.3,3.2,9.7,3.7c-2.1-0.8-4.5-1.7-5.6-3.6c-0.6-1-0.9-2.2-1.7-3c-0.8-0.8-2.6-0.7-2.8,0.4c-0.8-0.9,0.1-2.4,1.2-2.6
		c1.2-0.1,2.2,0.7,2.9,1.7c0.7,1,1.1,2.1,1.7,3c1.3,1.8,3.6,2.7,5.7,2.4c-1-2.8-2.1-5.5-3.1-8.3c-0.4-1.1-0.9-2.2-2-2.7
		c-3.1-1.3-6.2-2.5-9.4-3.5c-0.7-0.2-1.5-0.5-2.2-0.2c-0.8,0.3-1.2,1.2-1.5,2c-1.6,4-3.2,8-4.8,12.1c-0.6,1.5-1.2,3.1-0.7,4.5
		c0.5,1.5,1.9,2.5,3.2,3.3c7.2,4.8,14.5,9.5,21.7,14.2c2,1.3,2.2,4.1,2.3,6.5c0.1,5.3,0.1,10.5,0.2,15.8c0,2.7,3.3,3.9,6,4.3
		c3.8,0.5,7.5,0.6,11.3,0.3c0.6,0,1.5-0.3,1.4-1c-0.5-9.3-0.6-18.7-0.2-28c0.1-2.3,0.2-4.6-0.5-6.7c-0.6-2.2-2.2-4.2-4.4-4.8
		c-1.1-0.3-2.6-0.9-2.1-1.9c6,1.3,12-1.9,17.3-4.9c3.6-2,7.1-4.1,10.2-6.9c3-2.8,5.5-6.4,6.1-10.4c0.2-1.5,0.3-3,0.9-4.4
		c0.6-1.4,2.1-2.5,3.5-2.2c2.5,0.6,4.3-2.3,5.2-4.7c1-2.8,1.8-6.3-0.4-8.2c-2.5-2-4.5-4.6-6-7.4c-1.2-2.2-2.6-5.1-5.1-5
		c-0.9,3.3,1.3,7.6-1.2,10c-1.3,1.2-3.2,1.3-5,1.3c-3.4,0-6.7,0-10.1,0c-2.2,0-4.6-0.1-6.2-1.5c-1.6-1.4-2-3.6-2.5-5.7
		c-0.4-2.1-1.1-4.3-2.9-5.4s-4.8,0.1-4.5,2.2c0.6,4,0.2,8.2-1.2,12c-0.3,0.8-1.3,1.7-1.8,1.1c1.4-3,2.1-6.3,2-9.5
		c-0.6,2.5-1.3,5.1-3.3,6.7c-2,1.6-4.7,1.7-7.3,1.8c-2,0-4,0.1-6.1,0.1c-2.2,0.1-4.9-0.1-6-2.1C42.6,68.5,43.5,66,42.5,64.2
		 M89.6,24.2c-0.9-0.2-1.7-0.8-2.5-1.3c-2.9-1.8-6.4-2.7-9.9-2.4c-2.2,0.1-4.3-0.9-6.4-0.7c-2.1,0.2-4,1.5-5.3,3.2
		c-1.3,1.7-2.2,3.6-3.1,5.6c-3.2,6.8-7.4,13.3-13.6,17.6c-1.5,1.1-3.2,2-4.4,3.4c-1.2,1.4-2,3.4-1.3,5.2c-0.1,0.3,0.4,0.5,0.6,0.3
		c-0.1-0.6,0.2-1.2,0.7-1.5c0.5-0.3,1.2-0.4,1.8-0.5c2.9-0.3,5.8-0.3,8.7-0.3c6,0.1,12,0.2,17.9,0.3c3.2,0.1,6.6,0.1,9.4-1.5
		c2.9-1.6,6.3-2.1,9.5-1.7c1.3,0.2,2.7,0.6,3.5,1.7c-0.7,0.4-1.5,0.1-2.2-0.2c-2.6-0.8-5.5-0.3-7.8,1.2c3.6,0,7.2-0.1,10.7-0.1
		c0.8,0,1.7,0,2.5,0.4c0.7,0.4,1.3,1.2,1.1,2c0.7,0.2,1.5,0.4,2.2,0.6c-1.2-5.4-2.5-10.9-3.7-16.3c-0.4-1.6-0.2-3.2-0.3-4.9
		c0-2.1-0.3-4.3-1.3-6.3c-1-1.9-2.8-3.5-4.9-3.7C91,24.3,90.2,24.3,89.6,24.2 M95.9,127.1c1-3.9,1.9-7.9,2.1-11.9c0.1-2-0.1-4,0.1-6
		c0.2-2.4,0.9-4.8,1.6-7.1c-7.8,5.8-15.7,11.6-24.9,14.7c2.2,3.5,1.9,8,1.9,12.1c0,3.9,0.4,7.7,1,11.5c4-0.7,7.6-2.7,11.2-4.7
		c1.9-1.1,3.9-2.2,5.2-4C95,130.4,95.5,128.7,95.9,127.1 M48.3,70c2.7-0.1,5.5-0.1,8.2-0.2c2,0,4.3-0.2,5.8-1.5
		c3.4-2.8,1.8-9.3,5.5-11.7c2.1-1.4,5.3-0.4,6.7,1.7c1,1.5,1.2,3.3,1.6,5.1c0.4,1.7,1.2,3.6,2.7,4.5c1.1,0.6,2.4,0.6,3.6,0.7
		c4.2,0.1,8.3,0.2,12.5,0.3c1.1,0,2.4-0.1,3-1c0.4-0.5,0.4-1.2,0.4-1.8c0-2.8,0-5.6,0-8.4c0-0.5,0-1.1-0.3-1.6c-0.5-0.9-1.8-1-2.9-1
		c-15,0-30.1,0.1-45.1,0.1c-1.2,0-2.3,0-3.4,0.4c-1.1,0.4-2.1,1.2-2.4,2.3c-0.2,0.6-0.1,1.2-0.1,1.9c0.2,2.6,0.6,5.2,1.2,7.8
		c0.2,1,0.5,2,1.4,2.4C47.2,70,47.8,70,48.3,70 M41.4,84.5c-1.2-0.3-2.4,0-3.7,0.2c-3,0.6-6.1,1.2-9.1,1.8c-1.7,0.3-3.7,0.9-4.2,2.6
		c-0.3,1.3,0.4,2.6,0.2,3.8c-1.1-0.4-2.1-1.2-2.6-2.2c-0.7,0.1-1.1,1-1,1.7c0.1,0.7,0.5,1.4,0.9,2c1.6,2.7,2.9,5.5,3.7,8.5
		c1-0.8,0-2.3-0.3-3.6c-0.4-1.6,0.3-3.2,1.1-4.6c1.7-3.2,4.4-6.4,8-6.5c1.3-0.1,2.6,0.3,3.9,0.7c2.7,0.8,5.4,1.6,8.2,2.4
		c0.2,0,0.3,0.1,0.4,0.3c0.1,0.3-0.3,0.5-0.6,0.5c-2,0-3.9-0.3-5.7-1c-2.2-0.8-4.5-2-6.8-1.5c-2,0.4-3.5,2.1-4.8,3.7
		c-1.2,1.7-2.4,3.6-2.2,5.6c0.2,1.8,0.4,3.5,0.5,5.3c0,0.3,0.1,0.7,0.3,0.9c0.3,0.3,1,0.3,1.3-0.1c0.4-0.3,0.5-0.8,0.7-1.3
		c1.1-2.9,2.1-5.8,3.2-8.8c0.5-1.5,1.3-3.1,2.8-3.6c0.9-0.3,1.9,0,2.9,0.3c3.2,1,6.3,2.1,9.4,3.2c0.6,0.2,1.1,0.4,1.6,0.8
		c1.6,1.2,1.7,3.6,2.2,5.5c0.3,1.1,0.7,2.1,1.3,3c0.2,0.2,0.3,0.5,0.6,0.6c0.5,0.3,1.1-0.1,1.7-0.3c0.5-0.2,1.3-0.3,1.6,0.2
		c-1.7-2.9-3.5-5.7-5.2-8.6c-0.7-1.2-1.5-2.5-2.6-3.4c-1.4-1.3-2.3-3.1-3.4-4.7C44.7,86.4,43.3,84.9,41.4,84.5 M12.2,75.1
		c-0.4-0.6-1-1-1.6-1.4c-1.6-1-3.2-2-4.7-2.9c-0.2-0.1-0.3-0.2-0.5-0.2C5,70.5,4.6,70.8,4.3,71c1.4,2,2.9,3.9,4.4,5.8
		c0.3,0.4,0.7,0.7,1.1,0.7c0.3,0,0.6-0.3,0.8-0.5C11.1,76.4,11.7,75.8,12.2,75.1 M20,82.3c-0.7-0.2-1.3-0.7-1.8-1.1
		c-0.9-0.8-1.8-1.5-2.7-2.3c-0.3-0.2-0.6-0.5-1-0.4c-0.1,0.7,0.5,1.2,1.1,1.6c0.7,0.6,1.5,1.1,2.2,1.7C18.4,82.3,19.3,82.8,20,82.3
		 M100.1,58.1c0.7,0.5,1.6,0.7,2.4,0.5c-0.1-0.1-0.2-0.3-0.3-0.5c-0.2-0.4-0.3-0.9-0.5-1.3c-0.3-0.4-0.8-0.7-1.2-0.4
		C100.5,56.9,100.3,57.5,100.1,58.1 M2.7,68.6c0.1,0.7,0.6,1.4,1.2,1.7c0.2,0.1,0.4,0.1,0.5,0c0.2-0.4-0.2-0.7-0.6-0.9
		C3.4,69.3,3,69,3.1,68.6C3,68.5,2.8,68.5,2.7,68.6"/>
	<path class="st0" d="M72.8,78.6c0.9-0.5,2-0.8,3.1-0.7c0.2,0,0.4,0.1,0.5,0.2c0.3,0.2,0.3,0.5,0.2,0.8c-1,0.2-2,0.4-3.1,0.6
		c-0.4,0.1-1.1,0-1.1-0.5C72.6,78.9,72.7,78.7,72.8,78.6"/>
	<path class="st0" d="M64.6,77.5c1.2-0.2,2.4,0.3,3.4,0.9c0.1,0.1,0.2,0.1,0.3,0.2c0.2,0.2,0.1,0.6,0.1,0.9
		c-0.9-0.1-1.8-0.3-2.7-0.6c-0.3-0.1-0.7-0.2-1-0.5C64.6,78.3,64.5,77.8,64.6,77.5"/>
	<path class="st0" d="M55.1,51.8c-0.8-0.4-1.6-0.6-2.4-0.8c-0.8-0.2-1.6-0.3-2.3-0.3c-1.1,0-2.1,0.4-3.1,0.9
		c-0.4,0.2-0.9,0.4-1.3,0.5c-0.1-0.5,0.1-1,0.4-1.4c0.4-0.3,0.9-0.5,1.3-0.7c2.9-1,6-1.1,8.9-0.3c0.6,0.2,1.2,0.4,1.6,0.7
		c0.5,0.4,0.8,1,0.7,1.6C57.7,52.4,56.3,52.4,55.1,51.8"/>
	<path class="st0" d="M94.4,59.2c0.4,0.4,0.4,1,0.2,1.5c-0.2,0.5-0.6,0.9-1,1.2c-0.7,0.6-1.6,1-2.5,1.3c-2.2,0.7-4.6,0.5-6.9,0
		c-0.8-0.2-1.6-0.4-2.2-0.8c-0.7-0.4-1.2-1.1-1.3-1.9c1.4-1.4,2.8-2.8,4.7-3.3c1.9-0.5,3.9-0.1,5.9,0.4c0.8,0.2,1.7,0.4,2.4,0.8
		C93.5,58.8,94.1,59,94.4,59.2 M90.4,62.1c0.1,0.1,0.3,0.1,0.3-0.1c0.7-0.3,1.4-0.7,2-1.3c-0.3-0.3-0.6-0.5-1-0.6
		c-0.4-0.1-0.9,0.1-1,0.5C90.6,61.2,90.5,61.6,90.4,62.1 M82.3,60.8c0.4,0.7,1.3,1.2,2.1,1c0.1,0,0.1,0,0.1-0.1
		c-0.1-0.4-0.4-0.7-0.7-0.9C83.3,60.6,82.8,60.7,82.3,60.8"/>
	<path class="st0" d="M61.7,60.9c-0.7,1.2-2,2-3.3,2.4c-1.3,0.4-2.7,0.5-4.1,0.5c-1.1,0-2.1-0.1-3.2-0.4c-1.3-0.4-2.5-1.1-3.4-2.1
		c-0.2-0.2-0.3-0.4-0.4-0.6c-0.2-0.6,0.2-1.3,0.7-1.8c1.4-1.3,3.4-1.8,5.3-2.1c1.5-0.2,3.1-0.2,4.6,0.3c1.5,0.4,2.9,1.3,3.7,2.7
		c0.1,0.1,0.1,0.3,0.2,0.4C61.9,60.5,61.8,60.7,61.7,60.9 M51.9,61.2c-0.2-0.6-0.3-1.2-0.2-1.8c-0.8-0.1-1.6,0.2-2.1,0.9
		c-0.2,0.3-0.4,0.7-0.2,1c0.1,0.2,0.2,0.3,0.4,0.4c1,0.6,2.1,1.1,3.2,1.2C52.5,62.4,52.1,61.8,51.9,61.2 M58.2,62
		c0.5-0.1,1-0.2,1.4-0.5c0.2-0.1,0.4-0.3,0.6-0.4c-0.5-0.4-1.1-0.8-1.6-1.3C58.1,60.5,58,61.3,58.2,62"/>
	<path class="st0" d="M66,84.5c1.3,0.2,2.5,1.1,3.9,1.1c1.6,0.1,3-1,4.5-1.2c2-0.2,3.9,1,5.6,2c1.7,1.1,3.8,2.1,5.7,1.5
		c0.4-0.1,0.7,0.3,0.7,0.7c0,0.4-0.3,0.7-0.6,1c-3,3.1-6.2,6.2-10.2,7.9c-4,1.7-9,1.7-12.4-1c-1.6-1.3-2.7-3-3.7-4.6
		c-0.8-1.2-1.6-2.4-2.3-3.6C60.4,87.6,62.8,84.1,66,84.5 M70.7,89.7c-1.5-0.1-2.8-0.8-4.2-1.1c-1.6-0.4-3.4-0.2-4.9,0.4
		c0,1.3,1.4,2.1,2.6,2.6c5.4,2,11.6,1.7,16.8-0.9c0.5-0.2,1.1-0.7,0.8-1.2c-0.1-0.2-0.3-0.3-0.5-0.3c-1.9-0.8-4.1-1-6.2-0.5
		C73.7,89,72.3,89.8,70.7,89.7"/>
</g>
</svg>
