<?xml version="1.0" encoding="utf-8"?>
<!-- Generator: Adobe Illustrator 19.2.1, SVG Export Plug-In . SVG Version: 6.00 Build 0)  -->
<svg version="1.1" id="Layer_1" xmlns="http://www.w3.org/2000/svg" xmlns:xlink="http://www.w3.org/1999/xlink" x="0px" y="0px"
	 viewBox="0 0 200 300.2" style="enable-background:new 0 0 200 300.2;" xml:space="preserve">
<style type="text/css">
	.st0{fill:#00BCD4;}
</style>
<g id="coughing-child">
	<path class="st0" d="M20.3,300.2c0.2-2.1,0.4-4.2,0.6-6.3c0.2-2.6,0.4-5.1,0.6-7.7c0.3-5.6,1-11.2,3.5-16.3
		c0.3-0.5,0.1-1.4-0.1-2.1c-1.8-5.1-3.8-10.2-5.5-15.4c-1.9-5.5-3.7-11.1-5.3-16.7c-1-3.5-1.6-7.2-2.5-10.8
		c-0.1-0.3-0.2-0.7-0.4-0.9c-1.4-1-2.8-1.8-4.1-2.9c-0.5-0.4-0.9-1.1-1.1-1.7c-1.7-5.6-0.9-11.4-1.9-17c-0.5-2.8-1.3-5.5-2-8.3
		C1,189.9,0,185.6,0,181.2c0-6.7-0.1-13.4,0-20.1c0-2.5,0.3-5,0.6-7.5c0.2-1.1,0.6-2.4,1.3-3.3c1.4-1.8,2.7-3.8,5-4.9
		c2.9-1.4,5.6-3.2,8.2-5c4.6-3.1,9.7-5.2,14.8-7.4c5.9-2.5,11.8-5.1,17.7-7.6c1.1-0.5,2.3-0.9,3.3-1.5c0.3-0.2,0.5-0.9,0.4-1.2
		c-1-2.2-2.4-4.2-3.3-6.4c-1.1-2.7-2-5.5-2.7-8.4c-1.2-4.7-2.1-9.5-3.4-14.1c-0.6-2.1-1.9-4.1-2.8-6.1c-0.3-0.8-0.7-1.7-0.7-2.5
		c0.1-2.5,0.4-4.9,0.5-7.4c0-0.4-0.5-1.1-0.9-1.2c-4.4-0.8-8.5-5.9-8.3-10.7c0.2-4.9,1-9.6,3.5-13.8c1-1.7,1.5-3.5,1.3-5.5
		c-0.1-2.3,0.1-4.7-0.1-7c-0.4-4.5,1.2-8.4,3.8-11.8c1.3-1.8,2.9-3.5,4.7-4.7c2.9-2,4.1-4.9,4.9-8c1.3-5,4.1-8.6,9.2-10.1
		c0.6-0.2,1.3-0.3,1.9-0.2C64,5,68.7,4.3,73.3,3c3.6-1,7.3-2.2,11-2.6c4-0.4,8-0.8,12,0.7c2.7,1,5.6,1.5,8.5,2
		c3.6,0.6,6.1,2.5,8,5.5c1.6,2.6,3.4,4.6,6.7,5.1c2.3,0.3,4.6,1.2,6.8,1.8c0.4,0.1,0.8,0.2,1.2,0.2c5,0.1,9.1,2.4,12.4,5.8
		c2.1,2.2,3.4,5.2,4.9,7.9c2.3,4,2.6,8.3,2.2,12.9c-0.3,3.7-1.1,7.2-1.5,10.8c-0.4,3.3,0.3,6.6,0.2,9.9c0,2.5-0.1,5.1-0.5,7.6
		c-0.5,3-1.3,6-2,9c-0.1,0.4-0.1,0.8,0,1.2c0.9,3.6-0.2,6.8-1.9,9.9c-1.4,2.4-3.1,4.6-4.4,7c-1.8,3.2-3.6,6.5-5.2,9.9
		c-1.6,3.5-3.1,4.9-6.2,4.7c-1-0.1-1.9-0.6-3.2-1c-0.8,2.2-1.7,4.7-2.5,7.1c-0.1,0.2,0.2,0.7,0.5,0.9c1.5,1.1,3.1,2,4.6,3.2
		c2.3,1.7,4.8,3,7.5,4c2.3,0.8,4.5,2.2,6.7,3.4c4.1,2.1,8.3,4.2,12.5,6.2c5.4,2.6,10.8,5.1,16.3,7.6c0.6,0.3,1.4,0.3,2,0.6
		c2.5,1.4,5.2,2.8,7.5,4.5c2.2,1.7,3.2,4.3,3.9,6.9c1.3,4.6,2.5,9.3,3.9,13.9c1.5,4.9,3.3,9.7,4.7,14.6c1,3.8,1.6,7.8,2.3,11.7
		c0.8,4.1,1.5,8.2,2.6,12.2c1.4,4.8,3.3,9.4,4.9,14.2c0.9,2.6,0.4,3.4-2.2,4.1c-1.3,0.4-2.5,0.8-3.7,1.3c-0.3,0.1-0.6,0.5-0.7,0.8
		c-0.3,1.7-0.6,3.4-0.6,5.1c-0.2,6.3-0.3,12.6-0.3,18.9c0,5.7-0.1,11.3,0,17c0.1,4.9,0.3,9.7,0.6,14.5c0.3,4.7-0.8,9.1-2.4,13.4
		c-0.3,1-0.6,2-0.9,2.9c-0.9,0-1.8,0-2.7,0c0.5-1.6,1.1-3.1,1.6-4.7c1-3.1,2.2-6.1,2-9.5c-0.4-7.6-0.9-15.3-0.9-22.9
		c0.1-10.6,0.7-21.1,1.1-31.7c0-0.9,0.2-1.8,0.4-2.8c-1.9,0.6-3.5,1.1-5.1,1.6c-2.9,0.9-5.7,1.9-8.6,2.7c-2.1,0.5-4.3,0.7-6.4,1
		c-3.3,0.6-6.5,1.5-9.9,1.9c-2.6,0.3-5,1.4-6.8,3c-0.9,0.7-0.6,2.8-0.8,4.2c0,0.2-0.1,0.4-0.1,0.6c-0.2,5.4-0.6,10.8-0.4,16.2
		c0.3,6.9,1.1,13.7,1.7,20.6c0.2,1.7,0.4,3.4,0.6,5.3c1.2-0.6,2.1-1.3,3.2-1.6c2.8-0.8,5.7-1.4,8.6-2.1c0.8-0.2,1.7-0.3,1.9,0.8
		c0.3,1.1-0.6,1.4-1.5,1.6c-2.8,0.7-5.6,1.2-8.3,2.3c-1.8,0.8-3.8,2.1-4.8,3.7c-2,3.1-3.5,6.5-5.2,9.8c-1.1,0-2.2,0-3.3,0
		c0.4-0.6,0.7-1.3,1.1-1.9c2.7-4.9,5.8-9.5,4.8-15.8c-1.1-7.2-1.1-14.6-1.5-22c0-0.6-0.2-1.1-0.4-1.9c-0.4,0.4-0.6,0.5-0.7,0.7
		c-0.9,4.3-3.5,7.8-5.4,11.5c-1,1.8-2.2,3.5-3.4,5.3c-2.6,4-5.3,8-7.8,12.1c-0.9,1.4-1.4,3-2.2,4.4c-0.3,0.5-1.2,0.5-1.8,0.8
		c-0.1-0.6-0.5-1.4-0.3-1.9c2.5-6,5.9-11.5,9.9-16.7c1.2-1.6,2.4-3.3,3.3-5.1c2.6-4.9,5.2-9.9,7.6-14.9c0.5-1.1,0.7-2.3,0.9-3.6
		c0.3-2.9,0.5-5.7,0.7-8.6c0.3-3.5,0.9-6.9,2.4-10c1.2-2.5,2.2-5,2.5-7.9c0.4-3.4,1.1-6.9,1.3-10.3c0.4-9.6,0.5-19.1,0.7-28.7
		c0.1-2.5-0.2-4.9,0.2-7.4c0.7-5.1,0.9-10.3,1.3-15.5c0-0.4,0.4-0.7,0.6-1c0.3,0.3,0.8,0.5,0.8,0.8c0.2,1.3,0.4,2.6,0.4,3.9
		c0.1,2,0,4.1,0,6.1c2.4-4,4.7-8,7.1-12.1c-2.5-3.5-6.1-6.5-10.4-8.5c-2.9-1.4-6-2.6-8.9-4c-2.1-1-4.2-1.9-6.2-3
		c-3-1.8-5.9-3.8-8.9-5.6c-1-0.6-2.3-0.9-3.6-1.4c-0.1,2.1-0.1,3.9-0.3,5.5c-1.4,8.8-3.2,17.5-8.1,25.3c-2.5,4-5.8,7.3-9.7,9.7
		c-4.4,2.8-9.5,4.1-14.9,4.3c-0.4,0-1,0-1.1,0.2c-0.6,1.1-1.3,2.2-1.6,3.5c-0.8,3.4-1.5,6.9-2.1,10.4c-0.5,2.9-1.2,5.8-1.5,8.7
		c-0.5,4.4-0.5,8.8-1,13.2c-0.4,3.1-1.2,6.2-1.9,9.3c-1.5,6.9-3.1,13.8-3.4,20.9c-0.2,5.4-1,10.7-2.9,15.9
		c-1.5,4.1-2.9,8.3-6.1,11.6c-0.5,0.5-0.9,1.7-0.7,2.2c1.2,2.4,1.6,4.9,1.8,7.5c0.2,2.7,0.1,5.5,0,8.2c0,0.8-0.4,1.7-1.4,1.5
		c-0.4-0.1-0.8-1-0.8-1.6c-0.1-2.2,0.1-4.5-0.1-6.7c-0.2-2.3-0.5-4.5-1-6.8c-0.3-1.3-1-1.5-1.8-0.4c-0.8,1-1.5,2.1-2.1,3.2
		c-1.9,3.9-3.7,7.9-6.9,11.1c-2.2,2.1-4.6,4-7.7,3.8c-2.1-0.2-4.1-1.2-6.2-1.8c-3.6-1-6-3.8-9.1-5.5c-0.3-0.2-0.4-0.6-0.6-1
		c-0.2-0.5-0.4-1-0.6-1.5c-2.4-4.9-6-9-9.2-13.2c-0.9-1.1-1.7-2.3-2.6-3.6c-0.5,1.5-1.1,2.8-1.2,4.1c-0.6,4.6-1,9.1-1.5,13.7
		c-0.3,3.4-0.6,6.9-0.9,10.3C21.9,300.2,21.1,300.2,20.3,300.2z M11.9,218.3c0.4,1.2,0.9,2.3,1.2,3.4c1.1,4.5,2.2,9.1,3.3,13.6
		c1.6,6.1,3.4,12.1,5.8,17.9c1.6,3.9,3.1,7.9,4.4,11.9c1.1,3.4,2.3,6.8,4.7,9.6c3.6,4.2,6.6,8.7,9.5,13.4c0.9,1.5,2.2,3,3.6,3.8
		c2.7,1.5,5.6,2.6,8.4,3.8c2.5,1.1,4.6,0.2,6.4-1.4c1.1-1,1.9-2.4,2.8-3.6c2.7-4.1,5.4-8.2,8.2-12.2c1.7-2.5,4.2-4.5,5.5-7.1
		c1.9-3.9,3.3-8.1,4.6-12.3c0.6-1.9,0.8-4,1-6c0.3-2.6,0.2-5.3,0.6-7.8c1-6.4,2-12.8,3.5-19.1c1.1-4.6,1.7-9.2,2.1-13.9
		c0.5-6,1.3-11.8,2.8-17.7c0.8-3.2,1.2-6.6,2-9.8c0.7-2.5,1.7-4.8,2.7-7.2c1.5-3.6,2.8-7.1,2.1-11.1c-0.3-1.9-0.5-3.8-0.3-5.7
		c0.3-2.4,1.2-4.7,1.5-7c0.4-2.8,0.6-5.6,0.9-8.5c-4.2,2-6.5-0.1-8.4-3.4c-0.6,0.4-0.9,0.7-1.3,1c-2.5,1.5-2.8,4.8,0.2,6.5
		c0.4,0.2,0.7,0.5,1.1,0.7c2.1,1.1,3.4,3,4.6,4.9c0.2,0.3,0,0.9,0,1.3c-0.4-0.1-1.1-0.1-1.2-0.3c-1.6-3.4-5.1-4.7-7.5-7.3
		c-0.4,0.5-0.8,1-1.2,1.4c-0.5,0.6-0.8,1.7-1.9,1.1c-0.1-0.1,0.3-1.2,0.6-1.8c0.2-0.4,0.5-0.6,0.7-0.9c1.1-1.2,1.4-2.6,1-4.2
		c-0.7-0.1-1.4-0.2-2.1-0.3c-0.7-0.1-1.5-0.1-2.2-0.4c-0.3-0.1-0.5-0.6-0.8-0.9c0.3-0.2,0.7-0.6,1-0.6c1.1,0,2.3,0.3,3.4,0.3
		c3,0.1,3.6-0.6,3.8-3.5c0-0.5,0.3-1.1,0.5-1.6c0.2,0,0.4,0,0.6,0c0.1,0.6,0.4,1.1,0.3,1.7c-0.1,1.2,0.5,1.4,1.6,1.6
		c1.5,0.2,2-1.1,3.1-1.5c0.4-0.1,0.8-0.1,1.2-0.1c-0.1,0.4,0,1-0.3,1.3c-0.8,0.8-1.8,1.5-2.7,2.3c0.3,0.3,0.5,0.7,0.9,0.9
		c1.1,0.8,2.3,1,3.5,0.4c1.4-0.7,1.8-2.2,1.1-3.6c-0.3-0.7-0.9-1.2-1.5-1.7c-0.7-0.7-1.3-1.3-2.1-1.9c-1-0.7-1.9-1.4-3-2
		c-1-0.6-2.3-1-3.2-1.7c-1.7-1.3-3-1.5-4.7-0.2c-4.5,3.6-9.5,6.4-14.7,8.9c-0.6,0.3-1.2,0.6-1.9,0.8c-0.3,0.1-0.7-0.2-1-0.4
		c0.1-0.3,0.2-0.7,0.4-0.9c0.2-0.2,0.6-0.4,0.9-0.5c5.4-2.7,10.6-5.7,15.4-9.4c1.6-1.3,4.4-1.8,6.5,0.3c0.7,0.7,1.7,1,2.7,1.4
		c1.6,0.6,3.2,1.3,4.1,3c0.2,0.4,0.4,0.9,0.6,1.3c0.2-0.2,0.5-0.4,0.7-0.6c-0.2-0.6-0.1-1.5-0.6-1.8c-1.3-1-2.8-2-4.3-2.8
		c-3.9-2.1-7.8-4.1-11.7-6.2c-2.7-1.5-4.4-1.5-6.6,0.4c-2.7,2.3-5.2,4.9-7.9,7.2c-1.2,1-2.5,1.9-3.9,2.7c-0.3,0.2-0.9-0.2-1.4-0.3
		c0.3-0.3,0.5-0.6,0.8-0.8c0.7-0.5,1.4-0.9,2-1.5c3.2-3,6.4-5.9,9.5-9c1.8-1.8,3.9-1.9,6-1.1c2.6,1.1,5.2,2.4,7.7,3.8
		c2.6,1.5,4,1.4,5.8-0.7c0.3-0.3,0.4-0.9,0.6-1.4c-0.4,0-0.5,0-0.6,0c-3.9,1.4-5.9,0.4-6.7-2.9c-0.1-0.3-0.6-0.6-0.9-0.7
		c-3.4-0.8-6.9-1.6-10.3-2.4c-2.8-0.6-5.5-2-8.5-1.3c-0.8,0.2-1.8,0.7-2.3,1.3c-1.3,1.8-2.4,3.8-3.6,5.8c-0.2,0.4-0.5,0.8-0.8,1.1
		c-0.2,0-0.4-0.1-0.5-0.1c0-0.5-0.1-1.1,0.1-1.5c1.2-2.2,2.3-4.4,3.7-6.4c0.5-0.8,1.6-1.5,2.5-1.7c1.6-0.3,3.3-0.3,4.9,0
		c4.1,0.8,8,1.9,12.1,2.8c0.6,0.1,1.2,0,1.8,0c-0.3-0.5-0.7-0.5-1-0.7c-2.1-0.8-4.4-1.3-5.1-4c-0.1-0.4-0.7-0.8-1.2-0.9
		c-2.5-0.8-5.1-1.6-7.8-1.2c-2.6,0.3-5.2,0.8-7.9,1.1c-1.1,0.1-1.7,0.7-1.9,1.7c-0.5,2.7-1.1,5.3-1.4,8c-0.3,2.2-0.1,4.4-0.4,6.5
		c-0.2,1.4-1,2.6-1.4,4c-0.6,2.6-1.2,5.1-1.7,7.7c-0.1,0.9,0,2,0.5,2.7c1.7,2.3,3.5,4.5,5.4,6.6c1.6,1.8,3.5,3.4,5,5.3
		c1.7,2.2,3.1,4.6,4.5,6.9c1.2,2,2.3,3.9,2.4,6.4c0.1,3-0.7,5.8-1.5,8.6c-1.2,4.4-2.7,8.7-5,12.8c-2.1,3.8-3.3,8.3-4.3,12.6
		c-1.2,5.1-2.7,10-5.5,14.4c-2.7,4.2-5.6,8.4-8.8,12.3c-2.8,3.4-6.3,6.3-9.3,9.6c-1.5,1.6-2.9,3.3-3.8,5.2c-1.3,2.7-2.1,5.6-3.2,8.4
		c-0.2,0.5-1,0.8-1.5,1.2c-0.2-0.6-0.8-1.4-0.6-1.9c0.8-2.5,1.8-5,2.7-7.5c0.9-2.9,2.6-5.2,4.7-7.3c4.2-4,8.6-7.9,11.8-12.9
		c2-3.1,4.3-6.1,6.3-9.2c0.7-1.1,0.3-1.8-1.1-1.7c-1.2,0.1-2.5,0.2-3.7,0.4c-2.5,0.4-5,1.1-7.6,1.2c-3.3,0.1-6.5-0.2-9.8-0.4
		c-1.5-0.1-3.1-0.2-4.6,0c-3.2,0.4-6.4,0.9-9.5,1.3c-0.8,0.1-1.6,0.3-2.3,0.5C15.1,217.6,13.5,218,11.9,218.3z M100.8,139.7
		c2.2-1.7,4.1-3.1,5.8-4.6c2.8-2.6,4.2-6.3,6.4-9.4c3.4-4.6,5.1-9.9,7-15.1c2.4-6.7,3.9-13.6,5.7-20.5c0.5-1.8,0.8-3.6,1-5.5
		c0.2-1.9-1.8-5.4-3.3-5.7c-4.8-1.2-7.5-6.3-7.5-10.1c0-2.8,0.2-5.6,0.3-8.5c0-0.8,0-1.4-1.2-1.2c-2.2,0.3-4.4,0.5-6.6,0.5
		c-5.3,0.2-8.7-2.6-10.7-7.3c-0.7-1.5-2.1-2.1-3.7-1.4c-0.8,0.3-1.6,0.8-2.1,1.4c-1.6,2.1-3.1,4.3-4.7,6.4c-0.4,0.6-1.1,1.3-1.6,1.3
		c-1.3-0.1-2.6-0.5-2.8-2.2c-0.3-1.8-0.7-3.7-1.1-5.5c-0.5-2.2-3-3.1-4.5-1.3c-1.2,1.5-2.5,2.9-3.7,4.4c-0.8,1-1.6,2.1-2.5,2.9
		c-2.2,2-4.4,3.9-6.7,5.7c-0.5,0.4-1.5,0.6-2.2,0.4c-2.2-0.6-2.7-2-1.9-4.1c0.4-1,1-1.9,1.3-3c0.6-1.9-0.4-3.2-2.4-3.4
		c-4.6-0.4-7.9,1.9-10.5,5.3c-0.9,1.2-1.3,2.9-1.5,4.4c-0.4,3.1-0.4,6.2-0.7,9.3c-0.3,2.9-1,5.7-1.1,8.6c-0.2,8.3-0.2,16.5,1.6,24.7
		c1.1,5.1,3.2,9.9,5.7,14.4c0.5,0.8,0.6,1.8,1.1,2.7c0.8,1.5,1.6,3,2.4,4.5c0.2-0.1,0.3-0.1,0.5-0.2c0-0.8,0-1.7,0-2.5
		c0.1-3.7,0.5-7.3,1.8-10.7c0.8-2.1,1.9-2.9,4.1-3.2c2.1-0.2,4.2-0.6,6.4-1c-1.6-3.2-0.5-7.4,2.7-9.5c-0.2,0.7-0.2,1.1-0.4,1.5
		c-0.6,1.3-1.4,2.5-2,3.8c-0.7,1.6,0.4,4,2,4.3c0-1.3,0.7-1.7,1.8-1.1c0.6,0.3,1,0.7,1.5,1.1c0.3,0.2,0.5,0.6,0.9,0.7
		c1.6,0.4,3.1,0.8,4.7,1.1c1.1-2,2.8-2.7,4.8-2.8c0.4,0,0.8,0.4,1.2,0.6c-0.3,0.3-0.5,0.8-0.9,1c-0.8,0.3-1.7,0.5-2.8,0.9
		c2,0.7,5.2,0,6.2-1.3c0.2-0.3,0.3-0.7,0.4-1.1c0.2-1.8-1-2.9-2.1-4c-0.8-0.8-0.9-0.8,0-1.6c4.1,3.5,5.7,7.9-1.5,9.7
		c0.6,0.9,1.1,1.8,1.5,2.3c1-1.2,2-2.7,3.2-3.7c1.2-1,4.1-0.6,4.9,0.4c0.6,0.8,1.2,1.7,1.6,2.6c0.6,1.3,1.3,2.7,1.6,4.1
		c0.4,1.7,0.5,3.4,0.7,5.1c0.3,3.2,0.6,6.4,0.9,9.6C100.1,135.6,100.5,137.3,100.8,139.7z M8,217.3c2.4-0.6,4.5-1,6.6-1.6
		c1.1-0.3,2.3-0.7,3.4-0.9c2.5-0.4,5-0.6,7.5-0.9c1.6-0.2,3.2-0.8,4.8-0.7c7.9,0.3,15.7,0.5,23.4-1.7c-1.4-3.7-2.8-7.5-4.3-11.3
		c-1.1-2.8-2.2-5.5-3.2-8.3c-0.4-1.2-1-2-2.1-2.4c-1.2-0.5-2.4-1.1-3.5-1.9c-1.4-0.9-2.6-2.4-4.1-2.9c-3.6-1.2-5.4-4.4-7.9-6.8
		c-0.3-0.3-0.5-0.8-0.5-1.2c0-0.3,0.2-0.8,0.4-1c0.2-0.1,0.7,0,0.9,0.2c1,0.9,1.9,1.9,2.8,2.8c0.9,0.9,1.8,2,2.9,2.7
		c2.1,1.5,4.3,2.7,6.5,4.1c0.6,0.4,1.2,0.8,1.8,1.1c-0.9-1.5-2-2.8-3-4.1c-2-2.6-3.9-5.2-5.9-7.8c-1.7-2.2-3.2-4.7-5.2-6.6
		c-2.8-2.6-5.6-5.2-7.8-8.3c-0.3-0.4-0.8-0.9-1.1-0.8c-1.1,0.3-1.6-0.4-2.1-1.1c-1-1.2-1.9-2.5-2.9-3.7c-2.3-2.8-5.2-4.9-8.6-6.3
		c-1.6,2-3.6,3.7-3.9,6.3c-0.3,3-0.6,6-0.6,9c-0.1,4.6,0,9.1,0,13.7c-0.1,5.2,0.5,10.4,2,15.4c2,6.8,3.3,13.6,3.1,20.7
		C7.2,214.6,7.7,216,8,217.3z M178,152.2c-1.4,1.7-2.5,2.9-3.5,4.2c-3.3,3.9-6.6,7.8-8.7,12.5c-2.4,5.3-5.3,10.5-5,16.6
		c0,0.2-0.1,0.5-0.1,0.7c-0.4,3.4-1.2,6.9-1.3,10.3c-0.1,8.2,0.5,16.5-0.6,24.7c-0.6,4.1-0.7,8.3-2.9,12.1c-0.3,0.5-0.3,1-0.5,1.5
		c1.7-0.5,3.2-1.2,4.7-1.2c3.9-0.1,7.6-1.3,11.3-2.2c1.1-0.3,2.3-0.4,3.5-0.6c1.6-0.3,3.3-0.5,4.9-1c5.6-1.8,11.2-3.7,16.8-5.6
		c0.9-0.3,1.1-0.8,0.8-1.5c-1.1-3-2.4-6-3.4-9.1c-1.2-3.6-2.3-7.3-3-11.1c-1-5-1.3-10.2-2.4-15.2c-0.9-4-2.5-7.7-3.8-11.6
		c-0.9-2.7-1.9-5.5-2.7-8.2c-0.9-2.9-1.9-5.9-2.7-8.9C178.8,156.6,178.5,154.6,178,152.2z M44.1,146.6c0.1,0.6,0.1,1.7,0.5,2.7
		c1.6,4.5,1.8,9.1,2.2,13.7c0.4,3.8,0.9,7.5,2.3,11.1c1.7,4.3,3.3,8.6,4.8,12.9c1.3,3.9,2.4,8,3.6,11.9c0.6,1.9,1.3,3.8,1.9,5.6
		c2.7-6.1,3.9-12.8,7.3-18.9c1.9-3.5,2.5-7.8,3.6-11.2c-2-2-3.6-3.6-5.3-5.2c-2.6-2.4-4.9-5.1-6.3-8.5c-1.1-2.7-2.2-5.4-3.6-8
		c-1.9-3.7-4.9-7.2-4.3-12.2C48.4,142.7,46.4,144.5,44.1,146.6z M56.8,213c0.3-0.8,0.7-1.5,0.6-1.6c-1.2-1.1-0.4-2.4-0.4-3.6
		c0-1.4,0-2.9-0.4-4.2c-1.5-4.9-3.4-9.7-4.8-14.6c-1.2-4.3-2.5-8.5-4.5-12.5c-0.4-0.9-0.8-1.9-1-2.9c-0.8-4.8-1.7-9.5-2.4-14.3
		c-0.6-3.7-0.9-7.4-1.6-11c-0.3-1.8-0.7-2-2.5-1.6c-7.3,1.7-13.8,4.8-18.1,11.2c0.5,0.6,1.1,1.1,1.6,1.7c1.8,1.9,3.7,3.8,5.5,5.8
		c2.3,2.4,4.6,4.8,6.7,7.2c1.2,1.4,2.1,3.1,3.3,4.5c1.8,2.2,4,4.1,5.6,6.5c1.5,2.2,3.3,4.3,4,7.1c1,4,2.7,7.7,4.1,11.5
		C53.9,205.7,55.3,209.2,56.8,213z M9.1,146.9c4,2.1,7,4.8,9.4,8.2c1.2,1.8,1.4,1.8,2.8,0.2c3.3-4.1,7.5-7,12.4-8.8
		c2.8-1,5.6-2.3,8.5-2.6c2-0.2,3.1-1.2,4.4-2.3c1.3-1.1,2.6-2.1,3.6-2.8c0.9-3.5,1.5-6.9,2.6-10.1c0.5-1.4,0.6-2.4-0.5-3.5
		c-1,0.5-2,1.1-3.1,1.6c-2.1,1.1-4.1,2.2-6.2,3.1c-4,1.8-8.1,3.4-12.1,5.1c-3.1,1.3-6.2,2.5-9.1,4.1
		C17.6,141.5,13.5,144.2,9.1,146.9z M117.7,123.1c-0.2,0-0.4-0.1-0.6-0.1c-1,1.7-2.2,3.3-3.1,5c-2.9,5.4-6.2,10.3-11.9,13.1
		c-0.3,0.1-0.6,0.7-0.6,1c-0.2,2.9-0.1,5.8-0.4,8.6c-0.3,2.8-0.4,5.8-1.4,8.5c-1.4,3.7,0.1,7.1-0.1,10.7c0.8-0.3,1.3-0.5,1.8-0.7
		c6.4-2.6,11.3-6.8,13.6-13.5c1.2-3.4,1.7-7.1,2.3-10.7c0.4-2.9,0.6-5.8,0.7-8.8C118,131.9,117.8,127.5,117.7,123.1z M119.3,121.6
		c0,0.4,0,0.7,0.1,1c1.4,3.5,1.5,7.2,1.3,10.8c-0.5,5.9-0.9,11.9-1.7,17.7c-0.8,5.7-3.3,10.7-7.4,14.7c-3.2,3.1-7.3,5.1-11.4,6.7
		c-0.4,0.2-0.9,0.7-1.1,1.1c-0.6,1.6-1.1,3.2-1.7,4.9c-0.2,0.6-0.5,1.2-0.8,2.1c1-0.1,1.7,0,2.3-0.2c1.8-0.5,3.6-1.2,5.4-1.5
		c3.7-0.6,6.7-2.5,9.4-4.9c4.4-3.8,7.5-8.5,9.3-13.9c1.5-4.4,2.7-8.9,3.5-13.5c1.1-6.2,1.2-12.4,0.6-18.7c0-0.4-0.2-1.1-0.5-1.3
		c-2.6-1.1-4.9-2.6-6.7-4.8C119.8,121.7,119.6,121.7,119.3,121.6z M169.7,158.8c2.2-2.6,4.6-5.3,7-8c-1.9-0.8-3.7-1.4-5.3-2.3
		c-1.8-0.9-3.5-2.2-5.4-3.1c-4.4-2-8.9-3.8-13.4-5.7c-0.9-0.4-1.7-0.7-2.5-1.2c-2.3-1.4-4.5-2.8-6.8-4.2c-1-0.6-1.9-1.3-2.9-1.7
		c-1.7-0.8-3.4-1.4-5.2-2.1c-1.9-0.8-3.8-1.7-5.8-2.6c0.2,3.1,0.4,6.1,0.6,8.8c0.8,0.1,1.7-0.1,2.3,0.2c2.6,1.3,5.3,2.7,7.8,4.1
		c2.1,1.2,4,2.8,6.1,3.8c2.8,1.4,5.8,2.3,8.7,3.5c2,0.9,4.1,1.7,5.9,3C164,153.7,166.8,156.3,169.7,158.8z M140.6,86.8
		c1-1.5,1.2-4.8,0-6.4c-0.4-0.6-1.3-1.2-1.9-1.1c-3.7,0.7-6.6,2.8-8.7,5.8c-1.8,2.6-2.2,5.6-2.7,8.7c-0.3,1.7-0.7,3.5-1.1,5.2
		c2.4,0.7,4.4-0.4,6.7-2.3c0.3-0.3,0.5-1,0.4-1.4c-0.3-0.9-0.9-1.6-1.1-2.5c-0.1-0.5,0.1-1.2,0.2-1.8c0.5,0.2,1.2,0.3,1.5,0.7
		c0.7,0.8,1.1,1.7,1.8,2.8c0.8-1.8,1.7-3.4,2.2-5c0.5-1.7,0.8-3.5-1-5c-0.8,0.7-1.5,1.4-2.4,1.9c-0.3,0.2-0.9,0-1.3,0
		c0.1-0.4,0-0.9,0.2-1.2c0.8-0.8,1.7-1.8,2.7-2.2c0.6-0.3,1.9-0.1,2.3,0.4C139.4,84.4,140,85.7,140.6,86.8z M54,145.3
		c-0.1,0-0.1,0.1-0.2,0.1c1.5,2.9,2.9,5.9,4.4,8.8c1.7,3.4,3.2,6.9,5.3,10c1.6,2.4,3.9,4.2,5.9,6.2c0.4,0.4,0.9,0.6,1.4,0.9
		c0.1-0.1,0.2-0.1,0.4-0.2c-0.2-1.4-0.1-3-0.7-4.3c-1.3-2.7-2.9-5.4-4.6-7.9c-1.2-1.7-3-3-4.4-4.6C58.9,151.4,56.5,148.3,54,145.3z
		 M87.7,120c1.3,0.1,2.5,0.3,3.7,0.4c2.1,0.1,3.7,1.2,4.3,3c0.8,2.2,0.4,3.7-1.4,5.3c-0.4,0.4-0.9,0.7-1.3,1.1
		c1.6,1.1,3,2.2,4.7,3.4c-0.4-4.2-0.8-8-1.2-11.9c-0.2-1.6-0.6-3.3-1.2-4.8c-0.4-1-1.4-1.7-2-2.6c-0.5-0.9-1.2-0.9-1.9-0.5
		c-0.7,0.4-1.3,1-1.7,1.7C89.1,116.6,88.5,118.2,87.7,120z M131.6,100.9c-1.7,1.1-3.4,0.8-5.1,0.4c-0.4-0.1-1.3,0.3-1.5,0.6
		c-0.6,1.8-1.4,3.5-1.1,5.5c0.2,1.3,0.8,1.7,1.9,1.9c1.5,0.2,2.9-0.5,3.5-2.1C130.3,105.2,130.9,103,131.6,100.9z M43.6,78.3
		c-0.2,0-0.3-0.1-0.5-0.2c-1.9-0.7-2.2-0.5-2.2,1.6c0,1.6,0,3.3,0,4.9c0.1,1.7,0.8,3.1,1.9,4.4c1.2-1.1,0.5-2.3,0.5-3.5
		C43.3,83.2,43.5,80.8,43.6,78.3z M54.5,128.9c-1.9,4.5-1.7,9.2-1.5,13.8c0.9-3.4,1.6-6.8,2.6-10.1C56,131,55.6,130,54.5,128.9z
		 M89,121.9c-0.2,1.3,0.5,1.9,1.3,2c1.1,0.2,2.5,0.5,3.5-1.3C92,122.3,90.5,122.1,89,121.9z M80.7,113.8c0.8,2.4,2.7,2.2,4.4,3.1
		C84.7,114.2,82.4,114.9,80.7,113.8z"/>
	<path class="st0" d="M106.6,85.6c-0.2,0-0.4,0-0.9-0.1c1,0.6,1.9,1.1,2.7,1.7c1.1,0.8,0.9,2-0.3,2.5c-0.8,0.4-1.5,0.9-2.2,1.4
		c-2.8,2.2-5.9,2-9.2,1.1c-2-0.5-4.1-0.9-6.2-1.2c-1.2-0.2-1.6-0.9-0.8-1.8c1.3-1.4,2.8-2.6,4.2-4c3.2-3.2,6.7-2.1,10.2-1
		c0.8,0.3,1.6,0.7,2.4,1C106.6,85.5,106.6,85.6,106.6,85.6z M95.4,86.5c-1.2,0.1-3.9,2.3-4,3.2c1.8,0.3,3.6,0.6,5.2,0.9
		C96.2,89.4,95.8,88,95.4,86.5z M106.8,88.5c-1.3-0.7-2.3-1.3-3.3-1.9c-0.3,1.1-0.4,2-0.8,2.7c-0.4,0.7-1,1.3-1.6,2.1
		C103.4,91.4,105.1,90.3,106.8,88.5z M99.9,85.7c-0.5,0.6-0.9,0.9-1,1.3c0,0.2,0.5,0.6,0.7,0.8c0.3-0.3,0.8-0.5,0.9-0.9
		C100.6,86.7,100.2,86.3,99.9,85.7z"/>
	<path class="st0" d="M60,81.3c0.7-0.1,1.7-0.3,2.8-0.4c1.9-0.1,3.4,0.8,4.5,2.2c0.9,1.1,1.4,2.5,2,3.8c0.1,0.3-0.2,1.2-0.5,1.3
		c-2.7,0.7-5.5,1.5-8.3,2c-2.5,0.4-4.5-0.8-5.9-2.9c-0.7-1.1-1.4-2-2.9-1.9c-0.3,0-0.9-0.4-0.9-0.7c-0.1-0.3,0.3-0.9,0.6-1
		C54.1,83,56.5,80.8,60,81.3z M60.6,88.7c-2-1.5-2.8-3-2.2-5.1c0.2-0.8-0.4-1.2-1.1-1c-0.6,0.2-1.2,0.4-1.8,0.7
		c-1.7,0.9-1.8,1-0.6,2.5c0.4,0.5,0.8,1,1.2,1.5C57.3,88.5,58.7,88.8,60.6,88.7z M64.6,87.7c1.2-0.4,2-0.7,3.1-1
		c-0.6-0.8-1-1.4-1.6-2.2C65.5,85.7,65.2,86.5,64.6,87.7z M61.6,82.8c-0.3,0.5-0.8,0.9-0.7,1.2c0.1,0.3,0.6,0.7,1,0.7
		c0.2,0,0.7-0.6,0.7-0.9C62.5,83.6,62.1,83.3,61.6,82.8z"/>
	<path class="st0" d="M102.9,79.6c-3.4-0.3-6.3-0.1-9.2,0.9c-0.9,0.3-2.4,0.9-2.8-0.6c-0.4-1.3,1.1-1.5,1.9-1.7
		c6-1.9,12-2.1,18.1-0.4c0.8,0.2,1.8,0.4,2.5,0.8c0.4,0.3,0.5,1,0.8,1.6c-0.6,0.3-1.3,0.8-1.7,0.7C109.3,79.8,105.9,79.2,102.9,79.6
		z"/>
	<path class="st0" d="M55.9,74c4.4-0.2,8.4,0.7,12.3,2.6c0.9,0.4,2.1,0.4,1.9,1.8c-0.1,0.5-0.3,1.2-0.6,1.3c-0.4,0.2-1.2,0.2-1.6,0
		c-3.4-2.5-7.2-3-11.2-3.1c-2,0-4.1,0-6.1,0c-0.5,0-1.1-0.5-1.6-0.8c0.4-0.4,0.7-1.2,1.2-1.3C52,74.2,54,74.1,55.9,74z"/>
</g>
</svg>
