<?xml version="1.0" encoding="utf-8"?>
<!-- Generator: Adobe Illustrator 18.1.1, SVG Export Plug-In . SVG Version: 6.00 Build 0)  -->
<!DOCTYPE svg PUBLIC "-//W3C//DTD SVG 1.1//EN" "http://www.w3.org/Graphics/SVG/1.1/DTD/svg11.dtd">
<svg version="1.1" id="Layer_1" xmlns="http://www.w3.org/2000/svg" xmlns:xlink="http://www.w3.org/1999/xlink" x="0px" y="0px"
	 viewBox="0 0 150 197.1" style="enable-background:new 0 0 150 197.1;" xml:space="preserve">
<style type="text/css">
	.st0{fill:#00BCD4;}
</style>
<g id="cough-girl">
	<path class="st0" d="M8.6,197.1c0.7-2.8,1.6-5.5,2.1-8.3c0.3-1.6,0.1-3.3,0-4.9c-0.2-2-0.5-4.1-0.7-6.1c-0.7-7.5-1.3-15.1-1.9-22.6
		c-0.3-3.3-0.5-6.5-1-9.7c-0.3-2.3-1-4.5-1.7-6.7c-1.1-3.3-2.3-6.6-3.5-9.9c-1-2.9-1.8-5.9-1.9-9c-0.1-5.2,0.3-10.3,1.2-15.4
		c0.3-1.7,0.9-3.5,1.9-5c2-3,4.3-5.9,6.5-8.8c1.4-1.8,2.9-3.6,4.2-5.5c0.2-0.3,0.3-0.8,0.2-1.2c-0.5-1.4-1.1-2.7-1.6-4.1
		c-0.4-1.1-0.7-2.2-0.9-3.4c-0.1-0.6-0.3-0.9-1-0.9c-4.1,0.1-8.6-3.1-9.9-7c-0.2-0.5-0.2-1.2-0.2-1.7c0.2-6.4,0.1-12.9,0.8-19.3
		C2,41.4,2.2,35.1,4.1,29c0.3-1.1,0.9-2.2,1.6-3.1c1.8-2.5,3.6-4.9,5.5-7.3c0.7-0.9,1.7-1.7,2.7-2.4c3.2-2.3,6.5-4.3,10.2-5.5
		c1.1-0.3,2.2-0.8,3.1-1.3c3-1.6,6.1-2.6,9.4-3.4c1.3-0.3,2.5-0.9,3.8-1.2c0.6-0.2,1.2-0.1,1.7-0.2c0.7-0.1,1.5-0.1,2.1-0.5
		c1.4-1,3-1.4,4.6-1.8c1.9-0.5,3.8-1,5.7-1.7C56.4-0.1,58.3,0,60.3,0c4.6,0,9,0.9,13.5,1.7c2.8,0.5,5.3,1.7,7.4,3.8
		c1.3,1.3,2.9,2.3,4.3,3.4c1.5,1.2,2.9,2.5,4.1,4.1c1.2,1.5,2.4,2.9,2.8,4.9c0.5,2.4,1.4,4.8,1.7,7.2c0.2,1.6,0.5,3.1,0.9,4.6
		c1.1,4.1,2,8.2,1.6,12.5c-0.2,3,0.8,5.6,2.1,8.3c1.5,3.1,3.1,6.1,4.3,9.3c1.4,3.7,2,7.6,2,11.6c0,3.3,0.1,6.7,0.2,10
		c0.1,2.1,0.4,4.2,0.5,6.3c0,0.8-0.1,1.7-0.2,2.2c0.8,0.6,1.5,1.1,2.2,1.5c0.3,0.2,0.8,0.2,1.1,0.2c4.8-0.8,9.6-1.8,14.4-2.5
		c1.9-0.3,3.8-0.4,5.6,0.7c0.4,0.2,0.9,0.2,1.4,0.2c1.9,0.1,3.7,0.3,5.5,1c1.5,0.6,3.1,1,4.6,1.4c0.1,0,0.3,0,0.4,0.1
		c2.3,1.9,5.4,2.7,7.4,5.1c1,1.2,0.7,2.6,0.1,3.8c-0.3,0.7-0.6,1.4-1,2.2c2.4,0.8,2.7,2.7,2.6,4.7c0,0.7-0.4,1.3-0.8,2
		c-0.2,0.4-0.6,0.8-1,1.1c-1.1,0.9-1.8,1.9-0.8,3.5c0.2,0.4,0,1.2-0.3,1.7c-0.9,1.4-2,2.4-3.6,3c-0.7,0.2-0.8,0.6-0.5,1.3
		c0.6,1.7,0.4,2.4-1,3.5c-1.2,0.8-2.4,1.6-3.7,2.2c-1.3,0.6-2.6,0.3-3.7-0.7c-0.8-0.8-1.7-1-2.8-1.1c-1.9-0.2-3.8-0.6-5.8-0.9
		c-0.7-0.1-1.4-0.2-2.1-0.2c-2.3,0-4.5-0.5-6.4-1.7c-0.2-0.1-0.5-0.2-1-0.4c0.3,0.5,0.4,0.8,0.6,1c1.4,1.5,2.9,3,4.3,4.5
		c1.1,1.1,2.2,2.2,3.1,3.4c1.8,2.2,4,3.5,6.6,4.4c2.3,0.7,4.1,2.1,5.3,4.3c1,1.9,2.3,3.7,3.6,5.4c0.6,0.7,1.5,1.2,2.4,1.5
		c1,0.3,1.4,1,1.5,1.9c0.1,1.1,0.1,2.1,0.1,3.2c0,5.3,0,10.5-0.2,15.8c-0.1,3.1-0.5,6.2-0.7,9.3c-0.2,3.4-0.7,6.8-0.4,10.2
		c0.1,2.1-0.7,3.9-1,5.8c-0.3,1.7-0.5,3.5-0.7,5.2c-0.3,0-0.6,0-0.9,0c0.1-1.3,0-2.7,0.4-3.9c1-2.8,1.1-5.6,1.3-8.5
		c0.1-3,0.3-6,0.5-9c0.2-2.9,0.6-5.8,0.7-8.7c0.1-4.4,0.1-8.8,0.1-13.2c0-1.8,0.1-3.7,0.1-5.5c0-0.9-0.3-1.5-1.3-1.9
		c-0.9-0.3-1.9-0.9-2.4-1.6c-1.4-1.7-2.7-3.5-3.7-5.5c-1.1-2.1-2.8-3.4-5-4.1c-2.8-0.9-5.1-2.3-6.9-4.6c-0.8-1-1.7-2-2.7-3
		c-0.6,0.5-1.2,0.9-1.7,1.4c-4,4.1-9,6.5-14.1,8.5c-3.2,1.3-6.6,2.3-9.9,3.3c-1.3,0.4-2.7,0.4-4.1,0.4c-2.6-0.1-5.1-0.2-7.7-0.4
		c-2.1-0.2-4.2-0.4-6.2-0.6c-2.8-0.3-5.5-0.7-8.3-1.2c-1.2-0.2-2.5-0.7-3.6-1.1c-1.4-0.5-2.7-1.2-4-1.7c-1.2-0.5-2.4-0.8-3.5-1.4
		c-2.3-1.4-4.5-3-6.7-4.5c-0.6-0.4-1.2-0.7-1.9-1.1c-0.1,0-0.2,0.1-0.3,0.1c0.1,0.9,0.2,1.8,0.5,2.6c0.8,2.3,1.9,4.6,2.7,6.9
		c1.1,2.9,2,5.9,3,8.8c0.3,1,0.7,2,0.9,3.1c0.5,2.8,0.9,5.6,1.4,8.4c0.2,1.2,0.4,2.4,0.7,3.6c0.4,1.4,1,2.8,1.5,4.3
		c1.1,3.2,2.1,6.5,3.2,9.7c0.8,2.4,1.7,4.8,2.4,7.2c0.6,2,1.1,4,1.6,6c0.7,2.4,1.3,4.9,2,7.3c-0.2,0-0.4,0-0.7,0
		c-1.4-5-2.6-10-4.2-14.9c-1.5-4.6-3.5-9-4.7-13.7c-0.5-2-1.4-3.9-1.9-5.8c-0.6-2.2-0.9-4.4-1.3-6.6c-0.5-2.4-0.9-4.9-1.4-7.3
		c-0.3-1.3-1-2.4-1.4-3.7c-1.2-3.4-2.3-6.8-3.5-10.1c-0.7-1.9-1.8-3.5-1.6-5.6c0-0.3-0.2-0.7-0.5-1c-0.9-0.9-1.8-1.9-2.9-2.7
		c-0.6-0.4-1.4-0.6-2.2-0.8c-0.5-0.1-1.1-0.1-1.6-0.2c-2-0.7-2.1-0.6-2.6,1.4c-0.1,0.5-0.2,1.1-0.3,1.6c-0.3,1.6-0.5,3.3-0.9,4.9
		c-1,4.1-3.2,7.6-5.4,11.2c-1.2,2-2.5,4-4.6,5.3c-1,0.6-1.4,1.5-1.7,2.6c-0.4,1.5-0.9,3.1-1.6,4.5c-1,2.3-2.4,4.5-3.4,6.8
		c-2.5,6.5-4.9,13.1-7.3,19.7c0,0,0.1,0.1,0.2,0.4c1.3-1,2.8-1.9,3.8-3.1c1.6-1.8,2.8-3.9,4.2-5.9c0.2-0.2,0.6-0.3,0.9-0.4
		c0,0.4,0.1,0.8,0,1.1c-0.3,0.5-0.8,0.8-1.1,1.3c-2,3.2-4.3,6.2-7.8,7.9c-0.2,0.1-0.5,0.3-0.6,0.5c-0.4,0.6-0.9,1.2-1,1.8
		c-0.1,0.9-0.4,1.8-0.6,2.7c-0.8,2.7-1.3,5.5-2,8.2C9.4,197.1,9,197.1,8.6,197.1z M25.2,151.2c-0.1-0.1-0.2-0.1-0.3-0.2
		c-0.2,0.1-0.3,0.2-0.5,0.2c-0.4,0.1-0.7,0.2-1.1,0.4c0.2-0.3,0.3-0.7,0.6-0.9c1.6-1.3,3.4-2.6,4.9-4c0.9-0.8,1.4-2,2.2-3
		c2.4-3.3,4.5-6.8,5.6-10.7c0.7-2.4,0.9-5,1.4-7.5c0.4-2.2,0.1-2.5-2.1-2c-0.2,0-0.4,0.1-0.5,0.1c-1.5,0.4-2.7,1.2-4,2.1
		c-1.5,1-2.5,2.1-3.3,3.6c-1.1,2.1-2.6,4.1-2.2,6.8c-1-0.7-0.8-1.8-0.5-2.6c0.5-1.4,1.1-2.9,1.9-4.2c0.7-1.3,1.6-2.5,2.5-3.8
		c-4.2-1.8-6.5-5.5-9.1-8.9c0.6,0.3,1.1,0.6,1.4,1.1c2,2.7,4.2,5,7,6.7c0.9,0.6,1.7,0.7,2.6,0c0.5-0.4,1.1-0.7,1.7-0.9
		c1.9-0.8,3.8-1.1,5.9-0.4c1.4,0.5,2.9,0.8,4.3,0.7c2.1-0.1,4.3-0.5,6.4-0.8c3.9-0.7,7.8-1.6,11.8-2.1c3.4-0.4,6.8-0.3,10.2-0.5
		c5.2-0.3,10.3-0.8,15.5-1.1c3.6-0.2,7.3-0.5,10.9-0.5c2,0,4.2,0,5.4,2.2c0.1,0.3,0.5,0.4,0.8,0.6c1.2,0.6,1.9,0.2,2.2-1.1
		c0.4-1.8,0.8-3.6,1.1-5.4c0.5-3,1-6.1,1.6-9.1c0.7-3.8,0.6-7.5-1.2-10.9c-0.6-1.2-1.2-2.4-1.9-3.5c-0.1-0.2-0.6-0.4-0.8-0.3
		c-1,0.4-2.1,0.3-3.1,0.1c-1.2-0.3-2.5-0.3-3.6-0.8c-1.3-0.6-2.6-0.9-4.1-1.1c-3-0.2-5.9,0.5-8.9,0.2c-2.2-0.2-4.5,0.1-6.5-1.2
		c-0.2-0.2-0.5-0.2-0.8-0.3c-2.1-0.5-4.2-1-6.3-1.4c-3.6-0.7-7.3-1.2-10.8-2c-5.3-1.2-10.6-1-15.9-0.7c-5.3,0.3-10.5,0.8-15.8,1.2
		c-1.1,0.1-2.3,0-3.4,0.2c-2.6,0.4-5.1,0.7-7.7,0.2c-0.8-0.2-1.8-0.1-2.6,0c-0.7,0.1-1.5,0.5-2,1c-1.3,1.4-2.4,2.8-3.6,4.3
		c-2,2.5-3.9,5-5.8,7.5c-1.5,2-2.3,4.2-2.7,6.7c-0.7,4.8-1.3,9.7-1,14.6c0.1,1.5,0.1,3.1,0.6,4.6c1.1,3.7,2.4,7.3,3.7,10.9
		c1.6,4.5,2.9,9.1,3.4,13.9c0.3,2.7,0.3,5.4,0.6,8.1c0.2,2.7,0.7,5.3,0.9,8c0.4,5.3,0.8,10.6,1.2,15.9c0.1,0.8,0.3,1.7,0.4,2.5
		c0.1,0,0.2,0,0.3,0c0.2-0.4,0.5-0.8,0.7-1.2c1.5-4.2,3-8.4,4.6-12.6c1-2.7,2-5.4,3.2-8.1c1.1-2.5,2.5-4.9,3.7-7.4
		C24.7,153.5,24.9,152.3,25.2,151.2z M80.6,87.9c0.1-0.3,0.1-0.6,0.2-0.9c0.5-2,0.8-4,1.4-6c0.4-1.4,0.6-2.7,0.1-4
		c-1.2-3.1-1.2-6.4-1.4-9.6c-0.1-0.8-0.3-1.6-0.7-2.2c-2-2.5-4.6-4-7.8-4.2c-2.3-0.1-4.7,0.1-7,0.3c-4.7,0.3-9.2-0.5-13.8-1.3
		c-2.1-0.4-4.4-1.1-6.1-2.3c-2.3-1.6-4.7-2.8-7.2-3.9c-3.7-1.7-6.7-4.2-9.1-7.4c-2.3-3-3.3-6.5-2.3-10.3c0.4-1.7,1-3.4,1.2-5.1
		c0.3-2.2,0.9-4.2,2.3-6c0.5-0.6,0.8-1.3,1.1-2c1.8-3.9,3.7-7.6,7.9-9.4c0.9-0.4,1.9-0.6,2.9-0.7c1.7-0.1,3.4,0.1,5.2,0.2
		c0.7,0,1.4,0.1,2,0.3c5.4,2.1,9.8,5.7,13.6,10c0.6,0.7,1.2,1.4,1.9,1.9c2,1.4,3.4,3.2,4.8,5.1c0.6,0.9,1.5,1.6,2.3,2.3
		c2.5,2.1,5.1,4,6.8,7c1.7,3.1,3.4,6.3,5.9,9c0.5,0.5,0.6,1.4,0.8,2.1c0.2,0.8,0.1,1.7,0.3,2.5c0.1,0.4,0.7,0.7,1.1,1
		c0.2-0.4,0.7-0.9,0.7-1.3c-0.1-1.3-0.4-2.6-0.7-3.9c-0.1-0.6-0.5-1.1-0.8-1.5c-1.7-2.6-3.5-5.1-5.2-7.6c-1.3-1.8-2.1-3.9-3.9-5.4
		c-2.7-2.2-5.7-4.1-7.6-7.3c0-0.1-0.1-0.1-0.1-0.2c-3.3-3.1-6.6-6.3-9.9-9.3c-2.5-2.2-5.3-4-8.4-5.4c-1.8-0.8-3.6-1.6-5.3-2.6
		c-1.4-0.8-2.8-0.8-4.2-0.1c-3.9,2-6.9,4.9-9.2,8.5c-1.2,1.9-2,4.1-3.2,6c-2.7,4.3-3.7,9.1-4.2,14c-0.1,1.2-0.1,2.4-0.6,3.4
		c-1.1,2.3-2.6,4.5-3.8,6.7c-2.7,4.7-5.4,9.3-7.9,14.1c-1.6,3.2-1.6,6.6,0,9.9c0.3,0.7,0.3,1.6,0.3,2.4c0.1,1.3,0,2.7,0.3,4
		c0.5,1.8,1.3,3.5,1.9,5.3c0.2,0.7,0.6,1,1.4,1c1.2,0,2.4,0.2,3.6,0.1c2.2,0,4.3-0.2,6.5-0.3c0.8,0,1.1-0.4,1.2-1.3
		c0.1-1.2,0.3-2.5,0.5-3.7c0.2-1.2,0.4-2.5,0.6-3.8c-3.1,1.2-5.9,2.3-8.7,3.4c-0.7,0.3-1.6,0.4-2.4,0.5c-0.2,0-0.4-0.2-0.6-0.3
		c0.2-0.2,0.3-0.4,0.6-0.5c2-0.6,4-1.1,6-1.9c1.5-0.6,3-1.4,4.5-2.1c0-0.2-0.1-0.4-0.1-0.6c-3.6-0.2-7.2,0.3-10.8,0.6
		c0.6-0.4,1.3-0.7,2-0.8c1.7-0.2,3.5-0.3,5.3-0.4c1.5-0.1,3-0.7,4.5,0.8c0.2-1.6,0.4-2.9,0.6-4.3c0.1,0,0.2,0,0.3,0.1
		c0.2,4.8-1.5,9.3-1.8,14.3c5.2-0.4,10.1-0.8,15.2-1.2c-0.2-0.7-0.3-1.3-0.4-1.8c-0.1-0.5-0.8-0.9,0.2-1.5c0.3,0.8,0.6,1.5,0.8,2.2
		c0.2,0.5,0.3,1,1.1,0.9c6.5-0.6,13-0.3,19.4,1.1C69.5,85.8,75,86.8,80.6,87.9z M141.8,98.8c0.1-0.1,0.2-0.2,0.3-0.3
		c0.3,0.3,0.7,0.5,0.9,0.9c0.7,0.8,1.3,1.8,2.1,2.5c0.4,0.3,1.2,0.6,1.5,0.4c1.5-0.7,1.7-3.4,0.6-4.6c-1.1-1.3-2.6-1.8-4-2.7
		c-1.6-1-3-2.2-5-2.3c-0.3,0-0.7-0.3-1-0.4c-2.2-1-4.5-1.7-6.9-1.6c-0.5,0-1.1,0-1.5-0.2c-2-1.2-4.2-1-6.3-0.7
		c-4.2,0.7-8.4,1.5-12.6,2.2c-1.5,0.3-1.6,0.7-1,2c0.2,0.4,0.3,0.8,0.5,1.2c0.9,2.1,1.6,4.2,1.4,6.6c-0.4,5.2-1.1,10.3-2.5,15.3
		c-0.1,0.3,0.1,0.9,0.4,1c1.4,0.4,2.8,0.7,4.1,1c0.2,0,0.4-0.1,0.6-0.1c0.5,0,1.1-0.1,1.6,0.1c0.9,0.3,1.7,0.8,2.5,1.3
		c1.9,1.2,3.8,2,6.1,2c1.1,0,2.1,0.1,3.2,0.3c1.5,0.2,3,0.8,4.5,0.8c1.6,0.1,3,0.4,4.2,1.5c0.7,0.7,1.7,0.8,2.6,0.3
		c1.1-0.6,2.2-1.1,3.3-1.8c1.4-0.9,1.5-2.2,0.3-3.3c-1.1-1.1-2.3-2.2-3.4-3.3c-0.2-0.2-0.3-0.6-0.5-0.8c0.4,0.1,0.8,0.1,1,0.3
		c0.6,0.5,1.1,1.1,1.8,1.7c0.3,0.3,0.8,0.6,1.2,0.7c1.6,0.2,4.3-1.5,4.8-3c0.1-0.4,0.1-0.9-0.1-1.3c-0.7-1.7-1.6-3.3-3.3-4.2
		c-0.8-0.4-1.3-1.4-2-2.1c0.4-0.2,0.5-0.2,0.6-0.2c1.3,1.1,2.5,2.2,3.8,3.3c0.3,0.2,0.9,0.4,1.2,0.3c2.3-1.2,3.1-3.7,2-6
		c-0.2-0.4-0.7-0.6-1.1-1c-0.4-0.3-0.7-0.6-1.1-0.9c-0.2-0.2-0.3-0.5-0.5-0.5C143.9,102.4,143.1,100.3,141.8,98.8z M72.1,134
		c-0.4,0.9,0.1,1.1,0.7,1.2c2.5,0.5,5,1.2,7.5,1.3c3.8,0.2,7.6,0,11.5,0.1c3,0,6,0.1,8.7-1.6c0.2-0.2,0.5-0.2,0.8-0.3
		c3.9-1.1,7.5-3,11-5c0.2-0.1,0.4-0.3,0.7-0.6c-0.4-0.3-0.8-0.5-1.1-0.8c-1.5-1.1-3-2.3-4.5-3.3c-0.9-0.6-1.9-1.2-2.9-1.7
		c-0.2-0.1-0.3-0.2-0.4-0.3c-0.6-0.8-1-1.6-1.6-2.3c-0.3-0.4-0.8-0.8-1.3-0.9c-1.2-0.2-2.5-0.3-3.7-0.3c-4.5,0.2-9.1,0.5-13.6,0.7
		c-1.2,0.1-2.5,0.3-3.7,0.3c-4.3,0.3-8.6,0.7-12.8,0.9c-3,0.1-6.1-0.2-9.1,0.8c-0.5,0.2-1,0.1-1.5,0.2c-2,0.4-3.9,0.8-5.9,1.2
		c-0.6,0.1-0.9,0.5-0.2,0.9c2.7,1.8,5.2,3.8,8.4,4.7c0.8,0.3,1.8,0.6,2.3,1.2c1.8,1.8,4,2.6,6.4,3.1c0.8,0.2,1.5,0.4,2.4,0.6
		c0.1-0.5,0.2-0.8,0.1-1.2c-0.4-2.3-0.7-4.5-1.1-6.8c-0.1-0.5-0.2-1-0.3-1.6c0.1,0,0.3-0.1,0.4-0.1c1.5,2.9,1.7,6.1,1.8,9.3
		C71.6,134.1,71.8,134.1,72.1,134z M82.6,82.3c0.6,0.3,1.1,0.5,1.4,0.9c1.9,1.6,5.4,1.6,7-0.2c1.3-1.4,2.5-3.1,3.7-4.6
		c0,0,0-0.1,0-0.2c-0.6-0.1-1.2-0.1-1.8-0.2c-1.8-0.3-2.1-0.7-2.1-2.5c0-0.1,0-0.3,0-0.4c0.1-0.6-0.2-0.9-0.9-1.2
		c-1.8-0.6-3.1,0.2-4.3,1.4c-0.2,0.1-0.5,0.1-0.7,0.2c0-0.2-0.1-0.6,0.1-0.7c1.5-1.2,2.9-2.4,5-1.7c0.9,0.3,2.2,0.3,2.9-0.2
		c1.5-1,2.5-2.4,3.3-4.2c1.1-2.6,1-5.3,1-8c0-2.3-1.7-3.4-3.1-4.6c-0.1-0.1-0.4-0.1-0.6-0.2c-1.5-0.3-2,0.9-2.6,1.9
		c-1,1.7-2.2,3-4.4,3c-1.2,0-2.2,0.5-2.6,1.8c-0.1,0.5-0.4,1-0.7,1.4c-1.3,1.5-1.4,3.3-1.2,5.2c0.1,1,0.2,2.1,0.3,3.2
		c0.1,1.1,0.1,2.2,0.3,3.3c0.2,1.4,0.5,2.8,0.6,4.2C83.2,80.6,82.8,81.5,82.6,82.3z M119.1,125.8c-3.8,3.5-8.3,5.9-12.9,8.1
		c-2.4,1.1-4.9,1.8-7.3,2.9c-1.4,0.6-2.9,0.8-4.4,0.8c-2.9-0.1-5.7-0.1-8.6,0c-4.4,0.1-8.7-0.2-12.9-1.4c-2.6-0.7-5.2-1.5-7.7-2.3
		c-1.1-0.3-2-1-3-1.5c-1.1-0.6-2.1-1.5-3.2-1.9c-3.6-1.2-6.7-3.1-9.7-5.4c-1.2-0.9-2.2-0.4-3.4,0.1c0.4,0.6,0.9,1,1.5,1.4
		c3.3,2.3,6.6,4.7,9.9,6.9c1.1,0.7,2.4,1.2,3.6,1.8c1.9,0.8,3.7,1.7,5.6,2.4c1.1,0.4,2.3,0.6,3.4,0.8c1.1,0.2,2.3,0.2,3.4,0.4
		c4.2,0.6,8.3,1.7,12.6,1.4c1.5-0.1,3,0.2,4.5,0.2c1.5,0,3,0.2,4.5-0.1c2.2-0.5,4.3-1.4,6.5-2c3.4-1.1,6.7-2.6,10-4.1
		c3.6-1.7,6.4-4.3,9.3-7C120.2,126.7,119.7,126.3,119.1,125.8z M84.7,60.1c2.7,0.3,4.4-0.5,5.5-2.6c0.2-0.3,0.4-0.6,0.6-0.9
		c1.2-1.7,3.2-1.9,4.7-0.4c0.6,0.6,1.3,1.3,1.7,2c0.4,0.6,0.7,1.4,0.7,2.1c0.1,1.5,0,3-0.1,4.5c-0.3,3.2-1.3,6.2-3.9,8.3
		c-0.4,0.3-0.9,0.7-1.4,0.8c-0.8,0.1-1.1,0.4-1,1.2c0.1,0.8-0.2,1.8,1,2c0.8,0.1,1.6,0,2.3,0.2c1.3,0.3,1.7-0.5,2.1-1.4
		c0.7-1.5,1.4-3.1,2-4.7c0.4-1.2,0.7-2.4,0.8-3.6c0.2-2.9,0-5.8-0.7-8.6c-0.5-1.9-1-3.7-2.3-5.3c-1.5-2-3.1-2.4-5.4-1.4
		c-1.4,0.6-2.5,1.7-3.3,3C86.8,56.8,85.8,58.3,84.7,60.1z M118.7,125.3c-1.2-1.4-2.4-2.8-3.5-4.1c-0.2-0.2-0.4-0.3-0.6-0.4
		c-1.4-0.4-2.8-0.8-4.2-1.2c-0.6-0.1-1.2-0.2-1.7-0.2c-0.2,0-0.5,0.3-0.6,0.6c-0.4,1-0.6,2-1,3.3c2,1.5,4.3,3.1,6.6,4.8
		c0.6,0.4,1.1,0.3,1.6-0.1C116.2,127.2,117.4,126.3,118.7,125.3z M82.3,83.6c-0.1,0-0.3,0.1-0.4,0.1c-0.2,1.3-0.3,2.6-0.5,4
		c-0.1,0.7,0.3,1.1,1,1.2c0.8,0,1.7,0.1,2.5,0c1.6-0.1,2-0.6,2-2.2c0-0.3-0.3-0.7-0.6-0.7C84.7,85.7,83.1,85.4,82.3,83.6z"/>
	<path class="st0" d="M107.9,197.1c0.9-3.5,1.8-6.9,2.7-10.4c0.9-3.5,1.9-7,3.6-10.3c1.1-2.1,1.8-4.3,2.7-6.5
		c0.2-0.4,0.4-0.9,0.7-1.3c0.1,0,0.2,0.1,0.4,0.1c0,0.4,0.1,0.8-0.1,1.2c-1.1,2.6-2.1,5.3-3.3,7.8c-1.5,3.2-2.5,6.5-3.2,9.9
		c0,0.2,0,0.4,0,0.8c2.5-2.9,4.8-5.7,7.1-8.5c2.3-2.7,4.2-5.9,6.9-8.2c0.1,0.1,0.2,0.2,0.4,0.3c-0.2,0.3-0.4,0.7-0.6,1
		c-4,4.9-8,9.7-12,14.7c-2.2,2.7-3.7,5.8-4.1,9.4C108.8,197.1,108.3,197.1,107.9,197.1z"/>
	<path class="st0" d="M56.7,74.3c-0.1,0.2-0.3,0.4-0.5,0.5c-2.8,1-5.4,2.5-8.5,2.1c-1.5-0.2-3.1-0.2-4.3-1.6c-1-1.2-0.7-2.6-1.2-3.9
		c0-0.1,0.5-0.5,0.7-0.4c3.6,1.3,7.2,0.8,10.7-0.1c1.7-0.4,3.4-1.1,5.1-1.6c0.4-0.1,0.8-0.1,1.3,0.1c-5.2,3-10.6,4.6-16.6,2.9
		c-0.2,2.1,0.7,3.4,2.5,3.6c1.9,0.2,3.7,0.2,5.5-0.4c1.6-0.6,3.4-0.9,5.1-1.3C56.5,74.2,56.6,74.2,56.7,74.3z"/>
	<path class="st0" d="M22.4,70c1.5-0.2,2.8,0.3,4,1.1c0.2,0.1,0.3,0.4,0.5,0.7c-0.3,0.1-0.6,0.3-0.8,0.3c-0.9,0-1.8-0.3-2.6-0.2
		c-1.2,0.1-2.4,0.4-3.5,0.7c-1.3,0.4-2.5,1-3.8,1.5c-0.2,0.1-0.4,0.2-0.4,0.3c-0.2,1-0.9,0.5-1.4,0.4c-0.3-0.1-0.6-0.1-0.8-0.3
		c-0.2-0.2-0.2-0.8-0.2-0.9C16.4,72.2,19,70,22.4,70z"/>
	<path class="st0" d="M43.7,68.2c-0.3-0.2-0.6-0.4-0.9-0.6c0.2-0.3,0.4-0.7,0.7-0.9c2.6-1,5.2-2,7.7-3c0.3-0.1,0.6-0.4,1-0.4
		c0.4-0.1,0.8,0,1.3,0c-0.1,0.4-0.1,0.9-0.3,1.3c-0.2,0.3-0.6,0.4-0.9,0.5c-2.2,0.8-4.4,1.6-6.6,2.4C45.1,67.6,44.5,67.9,43.7,68.2z
		"/>
</g>
</svg>
