<?xml version="1.0" encoding="utf-8"?>
<!-- Generator: Adobe Illustrator 19.2.1, SVG Export Plug-In . SVG Version: 6.00 Build 0)  -->
<svg version="1.1" id="Layer_1" xmlns="http://www.w3.org/2000/svg" xmlns:xlink="http://www.w3.org/1999/xlink" x="0px" y="0px"
	 viewBox="0 0 200 293.7" style="enable-background:new 0 0 200 293.7;" xml:space="preserve">
<style type="text/css">
	.st0{fill:#FF5722;}
</style>
<g id="sorethroat-boy2">
	<path class="st0" d="M198.1,231.8c-0.1-0.3-0.2-0.6-0.3-1c-0.4,0.4-0.8,0.7-1.1,1c-0.9,0.6-1.7,1.2-2.9,1.4
		c-1.1,0.1-2.1,0.9-3.1,1.4c-0.1,0.1-0.2,0.3-0.2,0.5c-0.1,7.4-0.3,14.7-0.2,22.1c0,2.8,0.6,5.5,0.9,8.3c0.3,2.6,0.5,5.3,0.7,8
		c0.4,6,0.8,12,1.1,18c0,0.8,0,1.6,0,2.4c-0.5,0-1,0-1.7,0c-0.3-4.3-0.6-8.6-0.9-12.9c-0.3-4.5-0.4-8.9-0.7-13.4
		c-0.2-2.5-0.7-4.9-0.9-7.3c-0.2-3.6-0.2-7.3-0.3-10.9c0-1.1,0-2.3,0-3.4c0.1-2.8,0.3-5.6,0.4-8.4c0-0.5,0-1.1,0-1.9
		c-1.3,0.8-2.5,1.4-3.7,2.1c-4.6,2.8-9.1,5.9-13.8,8.5c-2.9,1.6-6.2,2.6-9.3,4c-2.8,1.3-5.6,2.6-8.4,4c-0.7,0.3-0.8,0.7-0.6,1.5
		c0.8,3.6,1.5,7.1,2.2,10.7c0.5,2.9,1,5.9,1.5,8.9c0.7,4.8,1.4,9.6,2,14.3c0.2,1.4,0.2,2.8,0.4,4.3c-0.5,0-1,0-1.8,0
		c-0.2-1.9-0.4-3.9-0.7-5.9c-0.4-2.9-0.8-5.7-1.2-8.5c-0.3-2.1-0.6-4.2-0.9-6.4c-0.4-2.6-0.9-5.2-1.3-7.8c-0.8-6-2.9-11.7-4.2-17.5
		c-0.5-2.3-0.6-4.8-0.7-7.2c-0.1-3.8-0.1-7.6,0.1-11.4c0.1-2.4,0.6-4.8,0.9-7.2c0.1-1.1,0.2-2.2,0-3.3c-1.3-8.4-0.5-16.9-0.6-25.3
		c0-2.7,0.6-5.4,1-8.1c0.3-2.2,0.5-4.4,0.9-6.6c0.2-1.1,0.8-2.2,1.3-3.3c0.1-0.3,0.7-0.3,1-0.5c0.1,0.4,0.3,0.8,0.2,1.1
		c-1.6,3-1.3,6.3-1.8,9.4c-1.6,9-0.8,18.1-0.9,27.2c0,1.5,0.3,2.9,0.7,4.5c0.4-0.6,0.8-1.1,1.1-1.7c2.2-3.9,5-7.4,8.2-10.5
		c1.6-1.6,3.4-3,5.1-4.5c1.1-1,2.2-2,3.2-3.1c2.4-2.4,5.4-3.6,8.5-4.6c0.3-0.1,0.8,0.2,1.2,0.3c-0.3,0.3-0.5,0.8-0.9,1
		c-0.8,0.4-1.6,0.6-2.4,0.9c-1.9,0.8-3.7,1.8-5.2,3.4c-2,2.2-4.5,4.1-6.8,6.1c-3.3,3-6.3,6.2-8.5,10.1c-0.3,0.5-0.6,1.1-1,1.6
		c-2.1,2.9-3.1,6.2-3.2,9.8c-0.2,5.2-0.3,10.4-0.5,15.6c0,0.5,0.1,0.9,0.2,1.6c2.6-2.6,5.6-4.1,8.7-5.4c3.3-1.5,6.7-2.8,9.8-4.5
		c2.7-1.5,5-3.6,7.6-5.2c4.4-2.8,8.9-5.6,13.4-8.2c2.1-1.2,4.5-2.2,6.8-3.3c-0.6-6.3-0.7-12.6-1.9-18.8c-1-5.2-3.2-10.1-4.9-15.2
		c-1-2.7-2.2-5.4-3.3-8.1c-0.1-0.4-0.4-0.7-0.6-1.1c-0.2,0.3-0.2,0.5-0.5,1c-0.6-1.3-1.1-2.3-1.5-3.4c-1.5-3.8-3.8-7-6.7-9.8
		c-2.2-2.2-4.4-4.4-6.5-6.7c-1.6-1.8-3-3.8-4.6-5.6c-1-1.1-2.2-2-3.2-3.1c-1.4-1.5-2.7-3-4-4.4c-3.1,2.5-6.3,5-9.3,7.6
		c-2.6,2.2-5.2,4.4-7.5,6.9c-2.5,2.6-4.7,5.4-7.1,8.1c-3,3.2-6.8,5.4-10.4,7.8c-3.8,2.5-7.3,5.2-10.3,8.6c-1.4,1.5-3.2,2.6-4.9,3.8
		c-3,2.4-6,5-9.1,7.4c-1.7,1.3-3.5,2.6-5.4,3.5c-3.4,1.7-5.2,4.7-6.7,8c-1.7,3.9-3.4,7.9-5.1,11.7c-2.7,5.8-5.4,11.6-8.1,17.5
		c-2.3,5-4.6,10-7.1,15c-1.9,3.8-3.9,7.6-5.9,11.3c-1.4,2.6-2.7,5.3-4.4,7.7c-2.6,3.8-5.7,7.3-9.2,10.3c-1.4,1.2-2.3,2.5-2.1,4.5
		c0.5,4.1,0.7,8.3,1.1,12.5c0,0.2,0,0.5,0,0.8c-0.6,0-1.1,0-1.8,0c-0.4-4.7-0.7-9.4-1.1-14.2c-0.8,0.6-1.6,1.3-2.6,1.8
		c-1.8,1.1-3.7,2.2-5.6,3.3c-0.2,0.1-0.4,0.1-0.5,0.2c-1.8,1.6-3.9,0.9-5.8,0.6c-2.1-0.4-4-1.5-5.4-3.2c-1.6-2-3.2-4.1-4.7-6.2
		c-0.9-1.2-1.8-2.4-2.6-3.6c-1-1.6-1.5-3.4-1.6-5.3c-0.1-1.4-0.5-2.8-0.7-4.2c-0.3-2.1-0.6-4.2-0.7-6.3c-0.1-3.7-0.1-7.4,0.2-11
		c0.1-1.6-0.9-1.9-1.9-2.4c-3.2-1.6-6.5-2.9-10-3.7c-2.6-0.6-3.3-2-2.3-4.5c2.3-5.7,4.1-11.6,7.4-16.8c2.2-3.6,4.5-7.1,6.6-10.7
		c4-6.6,7.4-13.6,10.2-20.8c1.8-4.7,2.8-9.6,4.3-14.5c1.6-5.2,3.4-10.3,5.4-15.3c0.7-1.9,2.2-3.5,3.2-5.2c1.4-2.2,2.7-4.4,4.1-6.5
		c0.5-0.7,1.2-1.4,1.8-2c2.1-1.7,4.2-3.5,6.5-5c2.5-1.6,5.5-2.1,8.7-2.6c-0.2-0.4-0.3-0.7-0.5-1.1c-0.8-1.6-1.5-3.3-2.4-4.9
		c-0.3-0.7-0.8-1.3-1.2-2c-1.9-3.1-2.8-6.5-3.8-10c-0.6-2.2-1.5-4.2-2.2-6.4c-1.2-3.9-2.2-7.8-2-12c0.2-3.3,0.4-6.7,0.7-10
		c0.1-2-0.5-3.7-1.7-5.2c-1.2-1.5-1-3-0.6-4.6c0.4-1.3,0.8-2.7,0.8-4.1c-0.2-4-0.6-8-0.9-12c-0.1-1.4-0.1-2.7,0-4.1
		c0.2-2.4-0.5-4.7-1.2-7c-0.9-3.1-0.9-6.3,0.6-9.2c2.2-4.2,4.5-8.4,6.8-12.5c2-3.6,4.9-6.5,8.1-9.1c1.8-1.5,3.4-3.2,5.2-4.6
		c3.5-2.8,6.9-5.7,10.5-8.4c1.6-1.2,3.5-2.1,5.3-3.2c1.5-0.9,3-1.9,4.5-2.9c1.5-1,3.1-1.6,4.9-1.7c4.3-0.2,8.6-0.4,12.9-0.7
		c3-0.2,5.8,0.4,8.6,1.3c3.8,1.3,7.5,2.6,11.4,3.8c1.8,0.6,3.7,0.7,5.5,1.3c5.5,1.8,10.1,4.9,14,9.3c2.7,3.1,5.4,6.1,7.5,9.6
		c1.6,2.6,2.7,5.3,2.9,8.4c0.2,2,0.8,3.9,0.9,5.9c0.2,2.8,0.4,5.6,0.3,8.3c-0.1,3.2-0.5,6.4-0.8,9.6c-0.2,1.9-0.5,3.8-0.7,5.7
		c-0.2,2.3-0.2,4.7-0.2,7c0,2.8-0.6,5.5-1.4,8.2c-0.7,2.2-1,4.5-1.5,6.8c-0.1,0.3,0,0.6-0.2,0.8c-0.7,1.1-0.3,1.8,0.4,2.7
		c1.4,1.8,0.9,3.9,0.8,5.9c-0.1,1.7-0.5,3.3-1.5,4.7c-0.4,0.6-0.6,1.4-0.8,2.2c-0.9,3.7-3,6.4-6,8.6c-2.3,1.7-4.6,3.5-6.8,5.3
		c-0.3,0.3-0.4,1.2-0.2,1.7c0.7,1.9,1.5,3.7,3.3,4.9c0.2,0.1,0.4,0.3,0.5,0.5c3.4,4.1,7.9,6.7,12.3,9.6c1.7,1.1,3.1,2.5,4.7,3.8
		c1.1,0.9,2.2,1.9,3.2,2.9c1.4,1.4,2.6,3,4.1,4.3c3.8,3.3,6.6,7.4,10,11.1c1.8,2,3.8,3.8,5.6,5.6c0.9,0.9,1.9,1.8,2.6,2.8
		c3.4,4.6,6.9,9.2,9,14.5c1.6,4,3,8,4.4,12c1,2.9,1.9,5.9,2.6,8.9c0.5,2.2,0.7,4.5,0.9,6.7c0.6,7.6,1.2,15.2,1.8,22.8
		c0,0.1,0,0.2,0,0.4C200.3,229.8,199.6,230.9,198.1,231.8z M49.2,89.8c-0.3,3-0.6,6-0.8,8.9c-0.3,4,0.5,7.8,1.7,11.6
		c1.1,3.4,2.5,6.7,3.3,10.2c0.5,2.1,1.6,4,2.5,6c0.3,0.7,1,1.3,1.3,2c0.9,1.9,1.6,3.9,2.8,5.6c1.5,2.3,3.3,4.6,5.2,6.6
		c1.7,1.9,3.3,3.8,4.6,6c1.4,2.6,3.4,4.8,6.7,5.1c2.6,0.2,5.2,0.3,7.8,0.5c1,0,2,0.2,2.9-0.1c3.8-1.2,7.5-2.6,10.7-5.1
		c4.5-3.4,8.9-7,13.5-10.3c3.3-2.5,6.9-4.7,10.3-7.1c0.3-0.2,0.5-0.5,0.6-0.8c1.2-2,1.8-4.2,2.1-6.5c0.1-0.8,0.3-1.5,0.5-2.2
		c0.1-0.3,0.6-0.4,0.9-0.6c0.1,0.3,0.3,0.6,0.2,0.9c-0.1,0.8-0.2,1.5-0.4,2.3c-0.5,2-1,4-1.5,6c1.3,0.1,3-0.4,3.8,1.2
		c0.7,1.3,1.1,2.7,1.7,4.1c2.9,0.3,3.4,0.9,3.9,5c1.3,0.2,2.4,0.7,2.8,2.1c0.4,1.7,0.5,3.3-1,4.6c-0.8,0.7-1.4,1.5-2,2.2
		c0.1,0.8,0.2,1.6,0.3,2.7c1.4-1.1,2.5-2,3.7-3c2.9-2.6,5.7-5.3,8.6-7.9c1.3-1.2,2.8-2.2,4.1-3.5c1.1-1.2,0.6-2.6-0.8-3.4
		c-0.5-0.2-0.9-0.6-1.4-0.9c-3.6-2.9-7.6-5.2-10.7-8.8c-1.9-2.3-3.6-4.5-3.9-7.6c-0.9-0.1-1.8-0.3-2.7-0.4c-0.3,0-0.6,0-0.9,0
		c-1.3-0.1-2.8-1.2-2.8-2.4c-0.2-3,0.7-5.9,2.7-8.1c1.8-2,2.8-4.2,3.2-6.8c0.4-2.3,1.5-4.3,3.4-5.8c2-1.6,4.3-2.8,6.7-3.6
		c1.2-0.4,2.4-0.7,3.6-1.1c-0.4-1.8-2.1-2-3.8-2.3c-2.1-0.3-4.2-0.1-5.4,1.7c-2.2,3.3-5,6.2-6.3,10c-0.2,0.6-0.7,1.1-1.2,1.6
		c-1.1,1.2-2.3,1.3-3.5,0.3c-1.8-1.5-2.9-3.5-3.5-5.8c-0.3-1.1-0.7-2.2-1.4-3c-1.8-2.2-3.8-4.2-5.6-6.4c-2.3-2.8-4.8-5.5-5.8-9.2
		c-0.6-2.3-1.4-4.6-1.7-7c-0.4-2.7,0.3-5.3,1.3-7.9c1-2.5,0.8-4.9,0-7.3c-0.1-0.4-0.7-0.9-1.1-0.9c-2.5-0.1-4.8,0.5-7,1.6
		c-0.5,0.2-0.8,0.6-1.3,0.8c-2,0.9-4,1.6-5.9,2.7c-2.9,1.7-5.8,3.1-9,4.1c-2.7,0.8-5.4,0.7-8.1,0.6c-1.6-0.1-3.2-0.6-4.8-1
		c-1.2-0.3-2.4-1-3.6-1.3c-2.5-0.6-4.9-1.5-7-3.1c-1.2-0.9-2.5-2.1-3.9-2.3c-2.9-0.3-6-0.6-8.7,1.5c-0.7,0.6-1.6,0.8-2.7,1.3
		c0.3,4.1,0.8,8.3,1,12.5c0.2,3.6,0.9,7.3-0.4,10.8c2.9,0.8,5.6,1.5,8.4,2.3c0.6,0.2,1.3,0.4,1.8,0.7c0.3,0.2,0.4,0.7,0.6,1.1
		c-0.4,0.1-0.8,0.2-1.1,0.2c-1.9-0.4-3.7-1-5.6-1.4c-1.4-0.3-2.8-0.5-4,0c0.8,2,1.6,3.9,2.5,5.9c0.9-0.3,2.1-0.8,3.3-1
		c2.7-0.4,5.4-1,7.9,0.9c0.2,0.1,0.6,0.2,0.7,0.1c0.7-0.6,1-0.1,1.2,0.5c0.5,1.7,1.1,3.4,1.3,5.1c0.5,4.8-0.8,9.2-2.9,13.5
		c-0.4,0.8-0.7,1.6-0.8,2.4c-0.2,1.8,1.9,4.4,3.8,4.9c0.6,0.2,1.4,0.4,1.9,0.2c1.7-0.8,3.4-0.6,4.7,0.7c0.3,0.3,0.6,0.5,0.9,0.7
		c1.1,0.7,3.3-0.1,3.5-1.2c0.4-1.8-1.1-4.4-2.9-4.9c-0.2-0.1-0.4-0.3-0.5-0.5c0.2-0.1,0.5-0.4,0.6-0.4c0.8,0.3,1.8,0.5,2.3,1
		c0.7,0.7,1.1,1.8,1.4,2.8c0.6,1.9,0,3.3-1.4,4c-2.2,1.1-3.2,0.8-5.1-0.8c-1-0.9-2.1-0.9-3.2-0.3c-1.1,0.6-2.3,0.7-3.3-0.1
		c-1.2-1-2.4-2.2-3.4-3.5c-1-1.2-1-2.5-0.4-3.9c1-2.4,2-4.9,2.8-7.4c0.9-2.7,1.1-5.4,0.6-8.2c-0.1-0.8-0.5-1.2-1.3-0.9
		c-1.1,0.4-2.2,0.8-3.3,1.2c-2.8,1-4.5,0.4-6.3-1.9C51.2,90.4,50.5,89.5,49.2,89.8z M78.6,154c0,2,0.1,3.8,0,5.7
		c-0.3,3.5-0.7,7-1.1,10.6c-0.1,0.7-0.2,1.4-0.5,2c-1.5,2.8-2.9,5.6-4.7,8.2c-1.7,2.6-3.8,4.9-5.6,7.5c-2.5,3.7-4.8,7.7-7.4,11.4
		c-2.6,3.7-5.5,7.3-8.5,10.7c-2,2.3-4.5,4.2-6.7,6.4c-2.2,2.2-4.2,4.5-6.5,6.6c-2.5,2.3-5.2,4.3-7.8,6.6c-2.4,2.1-4.8,4.3-6.9,6.6
		c-1.8,2-3.2,4.2-3.8,6.9c-0.5,2.2-1.3,4.5-2.3,6.6c-0.6,1.3-0.8,2.5-0.7,3.8c0.3,3.8,0.6,7.5,0.9,11.3c0.1,1.3,0.2,2.6,0.4,3.8
		c0.3,2.2,1.7,3.9,3,5.6c1.8,2.3,3.6,4.6,5.4,6.9c0.4,0.4,0.8,0.8,1.3,1.2c2.1,1.4,4.3,2.5,6.8,1.5c2.2-0.9,4.3-2,6.3-3.3
		c4.1-2.5,7.4-5.9,10.6-9.3c3.3-3.5,6.4-7.3,8.5-11.7c2.2-4.5,4.7-8.9,6.9-13.5c2.5-5,4.8-10.1,7.2-15.1c2.7-5.8,5.5-11.5,8.2-17.3
		c2-4.4,3.9-8.8,5.8-13.2c1.2-2.7,2.9-5.1,5.5-6.7c1.7-1,3.5-1.8,5-3c3.1-2.4,6.1-4.9,9.1-7.4c1.8-1.5,4-2.6,5.6-4.3
		c3-3.2,5.8-6.7,8.4-10.2c2.2-2.9,4-5.9,6-9c1.3-2,2.5-4,3.8-6.1c-1.5-0.3-2.4-0.9-2.5-2.6c-0.6,0.7-1.2,1.2-1.6,1.8
		c-3.2,4.2-7,7.8-10.9,11.3c-1.1,1-2.4,1.7-3.7,2.4c-0.2,0.1-0.7,0-1-0.1c0.1-0.4,0.1-0.7,0.3-1.1c0.1-0.1,0.3-0.2,0.5-0.3
		c4.3-2.8,7.9-6.3,11.2-10.2c2.8-3.3,5.5-6.6,9.5-8.3c0.3-0.1,0.6-0.5,0.7-0.6c-1-1.2-1.8-2.3-2.6-3.3c-1.3,0.9-2.6,2-4.1,2.8
		c-5.3,2.9-9.9,7-14.7,10.6c-1,0.7-1.8,1.6-2.8,2.2c-0.3,0.2-1,0.1-1.4,0.1c0.2-0.4,0.3-0.9,0.6-1.2c0.3-0.4,0.7-0.6,1.1-0.9
		c3.7-2.9,7.3-5.9,11.1-8.6c1.9-1.4,4.1-2.5,6.2-3.8c1.4-0.9,2.7-2,4-3c-0.9-1-1.8-1.6-2.2-2.5c-0.4-0.9-0.2-2-0.3-3.1
		c-0.2,0.1-0.4,0.1-0.6,0.2c-4.5,1.9-8.2,4.9-12.1,7.7c-3.5,2.5-6.9,5.2-11.1,6.5c-0.4,0.1-1.2,0.1-1.3-0.1
		c-0.4-0.7,0.2-1.1,0.8-1.3c3.7-1.3,6.8-3.8,10.1-5.9c3-2,6-4.1,9-6.1c0.8-0.5,1.7-0.9,2.7-1.4c-1.7-1.1-2.4-2.5-1.7-4.6
		c-1.4,0.6-2.7,1.2-3.9,2.1c-4,2.9-7.9,5.9-11.8,8.9c-2.5,1.9-5,3.8-7.5,5.7c-4.2,3.3-8.9,5.7-14.2,6.8c-0.2,0-0.5,0.2-0.6,0.4
		c-0.8,1.1-1.5,2.2-2.4,3.2c-0.3,0.3-0.9,0.4-1.3,0.5c0-0.5-0.1-1.1,0.2-1.4c0.5-0.9,1.2-1.7,1.9-2.6C82,154,80.3,154,78.6,154z
		 M47.4,211.1c1.6-1.8,3.4-3.3,4.7-5.1c2.9-3.8,5.6-7.6,8.4-11.5c1.8-2.6,3.4-5.4,5.3-8c2.1-3,4.6-5.8,6.5-8.9
		c1.6-2.7,3.4-5.2,3.8-8.6c0.5-4.8,1.2-9.5,1.2-14.3c0-0.5,0.1-1-0.6-1.1c-3.9-0.4-6.3-2.8-8.2-5.9c-1.2-1.8-2.4-3.6-3.7-5.3
		c-1.1-1.4-2.5-2.7-3.6-4.1c-0.8-1-1.4-1.9-3-1.2c-2.5,1.1-5.3,1.5-7.7,2.8c-2.2,1.2-4,3-5.9,4.6c-0.8,0.7-1.6,1.6-2.2,2.6
		c-1.2,1.9-2.3,3.9-3.5,5.8c-1,1.6-2.2,3-2.9,4.6c-1.9,5-3.8,10.1-5.3,15.2c-1.5,4.9-2.5,9.9-4.3,14.7c-4,10.6-9.7,20.3-15.7,29.8
		c-0.6,0.9-1.1,1.9-1.8,2.9c0.8-0.1,1.5-0.2,2.1-0.3c2.2-0.2,4.3-0.5,6.5-0.6c2.1-0.1,4.3-0.3,6.2,0.2c3.5,1,6.8,2.4,10.2,3.8
		c0.8,0.4,1.3,0.2,1.8-0.4c1.1-1.3,2.2-2.6,3.4-3.7c2.1-2.1,4.3-4.1,6.5-6.1c0.2-0.2,0.4-0.7,0.3-1c-0.2-0.4-0.6-0.9-0.9-0.9
		c-2.6,0.1-5.2,0.2-7.8,0.4c-2.2,0.2-4.3,0.8-6.5,1.1c-0.3,0-0.7-0.3-1-0.5c0.2-0.3,0.4-0.8,0.7-0.9c0.7-0.2,1.4-0.2,2.2-0.3
		c2.4-0.4,4.8-1.3,7.3-1.2c1.9,0,3.8-0.3,5.8-0.5c0-0.2,0-0.5-0.1-0.8c-0.7-3.1-1.4-6.1-2-9.2c-0.7-3.7-1.2-7.4-1.9-11
		c-0.4-2.3-1.2-4.6-1.4-6.9c-0.2-2.9-0.2-5.8,0-8.7c0.2-2.3,0.8-4.5,1.4-6.7c0.4-1.4,0.9-2.8,1.4-4.2c0.1-0.2,0.3-0.4,0.5-0.4
		c0.1,0,0.4,0.3,0.4,0.4c-0.1,0.9-0.1,1.9-0.4,2.8c-0.3,1.2-0.9,2.3-1.2,3.5c-0.9,3.9-0.8,7.8-0.7,11.8c0,1.2,0.2,2.3,0.4,3.5
		c0.5,2.4,1.2,4.8,1.7,7.2c0.7,3.5,1.2,7,1.9,10.4C45.9,204.3,46.7,207.5,47.4,211.1z M152.4,252.7c0.3-0.1,0.4,0,0.5-0.1
		c3.8-1.7,7.5-3.4,11.3-5.1c2.8-1.3,5.8-2.3,8.4-3.9c4.8-2.8,9.4-6,14.3-8.8c3.5-2,7.1-3.7,10.9-5.6c-0.3-3.5-0.6-7.3-0.9-11.1
		c-2.1,1-4.2,1.7-6,2.7c-4.7,2.8-9.5,5.5-14,8.7c-5.1,3.7-10.4,7.1-16.4,9.2c-3.6,1.3-6.8,3.4-9.8,5.6c-0.2,0.1-0.3,0.5-0.3,0.7
		C151.1,247.5,151.7,250.1,152.4,252.7z M1.8,235.7c0.1,0.1,0.2,0.2,0.3,0.2c0.4-0.2,0.9-0.4,1.3-0.7c4-2.5,8.4-3.3,13-3.5
		c2.3-0.1,4.6,0.2,6.9,0.5c0.8,0.1,1.2-0.1,1.7-0.6c1.6-1.4,3.2-2.8,4.8-4.1c1.1-0.9,2.2-1.8,3.5-2.8c-2.7-1.1-5.2-2.2-7.8-3.1
		c-1.3-0.5-2.7-0.9-4-0.9c-3.6,0-7.2,0.2-10.7,0.5c-1.3,0.1-2.8,0.5-3.4,1.9C5.4,227.2,3.6,231.5,1.8,235.7z M121,171.8
		c2.1-1.3,3.9-2.5,5.8-3.7c3.8-2.4,7.2-5.2,10-8.7c2-2.5,3.9-5,6.3-7.1c4.4-3.9,9-7.6,13.5-11.3c0.4-0.4,0.9-0.7,1.4-1.1
		c-2.1-1.7-4-3.4-6-5c-0.1,2.2-1.5,3.4-3,4.6c-2.5,2-5,3.9-7.2,6.1c-2.5,2.5-4.9,5.1-8,6.9c-0.5,0.3-0.8,0.8-1.1,1.2
		c-1.2,1.9-2.2,3.9-3.5,5.8C126.5,163.5,123.8,167.5,121,171.8z M147.1,88.7c0.2,1.5,0.4,3,0.5,4.4c0,0.3-0.4,0.5-0.6,0.8
		c-0.3-0.2-0.7-0.4-0.7-0.7c-0.2-0.9-0.4-1.8-0.5-2.7c-0.1-1.3-0.6-1.6-1.7-1c-1.2,0.5-2.4,1-3.6,1.6c-0.9,0.4-1.7,1-2.4,1.6
		c-0.2,0.2-0.3,0.8-0.1,1c0.9,1,1.5,2.4,3.3,2c0.2,0,0.4,0,0.6,0c1.4,0.2,2.2,1.4,1.6,2.7c-0.5,1-1.2,1.9-2,2.7
		c-1.8,1.8-3.9,3.3-6.6,2.8c-2.5-0.5-3.6,1.5-4.8,2.8c-1.2,1.3-1.7,3.3-1.6,5.3c0.1,0.9,0.5,1.4,1.3,1.5c1.2,0.2,2.3,0.4,3.5,0.4
		c0.5,0,1.2-0.1,1.6-0.4c2-1.5,4-3.1,6-4.6c2.6-2,4.7-4.3,5.4-7.6c0.2-0.9,0.4-1.8,0.8-2.5c1.4-2,1.4-4.3,1.5-6.6
		C148.6,90.8,148.2,89.6,147.1,88.7z M2.8,237.3c3.9,1.5,8,3,12,4.5c1.1-2.7,2.3-5.6,3.6-8.6C12.6,233.3,7.3,234.3,2.8,237.3z
		 M133.2,102.1c4.2,0.4,7.9-1.6,8.8-4.8c-0.5-0.1-1-0.3-1.5-0.3c-1.4,0.1-2.4-0.1-3-1.6c-0.3-0.6-0.9-1-1.3-1.5
		C133.8,96.3,134.3,99.4,133.2,102.1z M22.6,233.8c-1-0.1-1.6,0-2.2-0.2c-0.7-0.2-0.9,0-1.2,0.7c-0.7,1.9-1.4,3.8-2.3,5.6
		c-1,2.1-1,4.2-0.7,6.5C17.4,241.8,19.2,237.5,22.6,233.8z M134.5,144.8c1.1-1.1,0.9-2.3,0.5-3.4c-0.3-1-1.3-1.1-2-0.8
		c-0.4,0.1-0.8,0.9-0.8,1.4C132,143.6,133.1,144.2,134.5,144.8z M125.8,130c-0.4,0.3-0.8,0.5-0.9,0.8c-0.4,1.5-0.6,2.6,1.3,3.3
		c0.4,0.1,1,0,1.4-0.3c0.2-0.2,0.3-0.8,0.3-1.1c-0.2-0.6-0.4-1.2-0.8-1.8C126.8,130.5,126.3,130.3,125.8,130z M129.1,136.7
		c-0.2,1.4,0.8,2,1.6,2.7c0.2,0.1,0.8,0,0.9-0.2c0.8-0.9,0.6-1.9,0-2.9c-0.4-0.7-1-1.2-1.8-0.9C129.5,135.6,129.4,136.3,129.1,136.7
		z M54.4,88.3c-0.2,0-0.5-0.1-0.9,0c-0.7,0.1-1.4,0.3-2.2,0.5c0.4,0.6,0.7,1.2,1.2,1.7c0.5,0.5,1.1,1,1.7,1.4
		C54.3,90.7,54.4,89.5,54.4,88.3z M132.3,150.3c-0.1-0.3-0.2-1-0.5-1c-0.4-0.1-0.9,0.2-1.3,0.4c-0.2,0.1-0.6,0.3-0.6,0.5
		c-0.1,0.5-0.3,1.1-0.1,1.6c0.2,0.4,0.8,0.7,1.2,0.8c0.3,0,0.7-0.4,0.9-0.7C132.1,151.4,132.1,150.9,132.3,150.3z M61.8,90.3
		c-1.1-0.7-2-1.3-2.8-1.9c-0.2,1.2-0.3,2.3-0.5,3.4C59.5,91.4,60.5,91,61.8,90.3z"/>
	<path class="st0" d="M71,138.5c-1.9-0.5-3.9-0.9-5.7-1.6c-0.9-0.4-1.8-1.3-2.3-2.2c-1-1.9-1.8-4-2.6-6.1c-0.1-0.2-0.1-0.7,0.1-0.8
		c1.1-0.9,2.2-1.8,3.3-2.6c0.8-0.6,1.5-0.5,2.4,0c0.4,0.2,1.1,0.2,1.4,0c1-0.5,2-0.5,2.9,0c2.5,1.1,4.9,2.4,7.3,3.5
		c1.3,0.6,2.7,0.9,4,1.4c0.6,0.2,1,0.6,0.5,1.2c-0.4,0.6-0.9,1.2-1.4,1.7c-2.4,2.1-4.9,4.2-8.1,5.1c-0.6,0.2-1.2,0.2-1.8,0.3
		C71.1,138.4,71.1,138.4,71,138.5z M79.9,132.4c0-0.1,0-0.2-0.1-0.4c-6.4,1.8-12.4,0.9-17.9-3.1c0.1,0.8,0.3,1.5,0.5,2.1
		c1.1,2.5,2.2,5,5.4,5.5c0.7,0.1,1.5,0.2,2.2,0.4c1.6,0.3,3.1,0.1,4.5-0.8c1.3-0.8,2.6-1.6,3.8-2.5
		C78.9,133.3,79.4,132.8,79.9,132.4z M64.4,128.7c4,3.4,8.5,3.2,13,2.7c0.7-0.1,1.3-0.5,2-0.7c0-0.2-0.1-0.3-0.1-0.5
		C74.4,129.7,69.5,129.2,64.4,128.7z M74.8,128.4c-1.6-0.8-3.3-1.6-5-2.4c-0.4-0.2-1.1,0.1-1.6,0.1c-0.7,0.1-1.5,0.4-2.1,0.2
		c-1.5-0.5-2.3-0.3-3.2,1.1C66.9,127.8,70.8,128.1,74.8,128.4z"/>
	<path class="st0" d="M95.4,95.7c-2.3,0.5-4.7,1.1-7,1.6c-2.3,0.6-4.5,0.3-6.4-1.2c-0.9-0.7-1.8-1.2-3-1c-0.3,0-0.7-0.3-1-0.4
		c0.2-0.3,0.3-0.7,0.6-1c1.8-1.6,3.8-2.5,6.3-1.7c1.4,0.4,2.8,0.8,4.2,1.1c2.3,0.4,4.5,0.7,6.8,1.1c0.2,0,0.5,0,0.7,0.2
		c0.3,0.3,0.5,0.7,0.8,1c-0.3,0.2-0.7,0.4-1,0.5c-0.2,0.1-0.5,0-0.8,0C95.4,95.8,95.4,95.7,95.4,95.7z M83.2,95.3
		c0.1-0.1,0.2-0.2,0.3-0.3c-0.8-0.5,0.3-1.8-1.1-2c-0.5,0-1.1,0.3-1.7,0.4c0,0.1,0,0.3,0,0.4C81.6,94.4,82.4,94.8,83.2,95.3z
		 M88.8,94.3c0.3,1.6,1.3,1.8,2.8,0.4C90.6,94.6,89.8,94.5,88.8,94.3z"/>
	<path class="st0" d="M87.8,85.5c2.2,0.3,5,0.8,7.8,1.2c0.3,0,0.7,0.1,0.9,0.3c0.3,0.3,0.6,0.8,0.8,1.2c-0.4,0.1-0.9,0.3-1.3,0.2
		c-5.1-0.6-10.2-1-15.3-0.1c-0.7,0.1-1.4,0-1.5-0.8c-0.2-1,0.7-1.2,1.3-1.3C82.8,86,85,85.8,87.8,85.5z"/>
</g>
</svg>
