<?xml version="1.0" encoding="utf-8"?>
<!-- Generator: Adobe Illustrator 18.1.1, SVG Export Plug-In . SVG Version: 6.00 Build 0)  -->
<!DOCTYPE svg PUBLIC "-//W3C//DTD SVG 1.1//EN" "http://www.w3.org/Graphics/SVG/1.1/DTD/svg11.dtd">
<svg version="1.1" id="Layer_1" xmlns="http://www.w3.org/2000/svg" xmlns:xlink="http://www.w3.org/1999/xlink" x="0px" y="0px"
	 viewBox="0 0 150 247.7" style="enable-background:new 0 0 150 247.7;" xml:space="preserve">
<style type="text/css">
	.st0{fill:#FF5722;}
</style>
<g id="sorethroat-boy">
	<path class="st0" d="M82.4,247.7c1.7-2.8,3.3-5.7,5.1-8.4c2.2-3.4,4.6-6.6,6.8-10c0.5-0.8,0.9-1.8,1.3-2.7
		c-0.1-0.1-0.2-0.2-0.3-0.4c-0.6,0.2-1.3,0.3-1.8,0.6c-5.3,3.2-10.6,6.5-15.9,9.7c-1.4,0.8-2.8,1.5-4.2,2.1c-0.4,0.2-1-0.1-1.5-0.2
		c0.2-0.4,0.4-0.9,0.7-1.2c3.6-2.1,7.2-4.1,10.8-6.3c4.5-2.8,9-5.8,13.5-8.7c0.5-0.3,0.9-1,1.1-1.6c1.5-4.2,2.6-8.4,2.8-12.9
		c0.1-1.6,0.7-3.3,1.1-4.9c-0.1-0.1-0.3-0.1-0.4-0.2c-0.8,1.5-1.5,3.1-2.3,4.6c-1.2,2.3-2.1,4.7-3.6,6.7
		c-4.9,6.3-10.2,12.3-16.8,16.9c-1.2,0.8-2.8,1.2-4.2,1.7c-1.1,0.4-2.2,0.6-3.2,1c-3.2,1.1-6.4,2.1-9.6,3.3c-1,0.4-2,0.9-2.9,1.3
		c-3.3,1.6-6.6,3.3-10,5c-0.8-1.2-0.3-1.7,0.5-2.1c4.7-2,9.3-4,14.1-5.9c4.1-1.6,8.3-2.9,12.4-4.4c3.2-1.2,5.8-3.5,8-6.1
		c3-3.3,6-6.6,8.9-10c1.1-1.3,1.7-2.9,2.6-4.3c2.2-3.6,3.3-7.7,6.2-11c2.7-3,4.7-6.7,5.2-11c0.1-1.3,0.8-2.4,1.2-3.7
		c0.9-3,1.9-6,2.7-9c0.7-3,1.2-6,1.9-9c1.6-7.1,3.4-14.2,4.9-21.3c0.5-2.4,0.6-4.9,0.9-7.4c0.1-1.1,0.2-2.3,0.5-3.3
		c0.1-0.4,0.6-0.7,1-1c0.2,0.4,0.7,0.9,0.7,1.3c0.1,4.7-0.7,9.3-2.2,13.8c-0.9,2.7-1.3,5.6-1.9,8.4c-0.8,3.5-1.5,7-2.4,10.4
		c-0.6,2.6-1.5,5.2-2.1,7.9c-0.6,2.7-1,5.5-1.4,8.3c-0.2,1.2,0.7,1.7,1.6,1.8c2.7,0.3,5.4,0.4,8.1,0.6c0.3,0,0.6-0.1,0.8-0.1
		c5.9-0.2,11.8-0.3,17.6-0.5c2.5-0.1,5.1-0.5,7.6-0.8c1.2-0.1,1.3-0.9,1.2-1.8c-0.7-6.5-1.6-12.9-2.2-19.4
		c-0.9-8.8-2.5-17.5-2.5-26.4c0-5.7-1.4-11.4-4-16.5c-2.1-4.1-4.9-7.4-9.3-9.5c-6.2-2.9-11.9-6.8-17.1-11.3
		c-1.8-1.6-4.1-2.6-6.2-3.8c-0.9-0.5-1.6,0-2.7,1.7c1.2,1.6,1,2.6-0.4,4.1c-0.5,0.5-0.7,1.3-0.9,2c-0.4,1.4-0.5,2.9-1.1,4.3
		c-1.7,3.9-3.5,7.8-5.4,11.7c-1.9,4-3.8,8-5.9,11.8c-1,1.7-2.7,3-4,4.5c-2.1,2.4-4,4.8-6,7.2c-0.4,0.5-0.6,1.1-1,1.5
		c-4,4.6-5.7,10.3-7.5,16c-1.6,5-3.4,9.8-4.9,14.8c-1.1,3.3-1.9,6.7-2.9,10.1c-0.9,3-1.6,6.2-2.8,9.1c-3.8,9.5-7.8,18.8-11.7,28.3
		c-1.1,2.6-2.5,4.9-4.3,7c-2.6,3-5.6,4.4-9.6,3.3c-1.5-0.4-3.1-0.4-4.5-0.9c-1.3-0.5-2.7-1.1-3.5-2.1c-4.6-5.9-6.6-12.8-8.1-19.9
		c-0.1-0.5-0.3-1-0.4-1.5c-0.2,0-0.4,0-0.6,0c-0.3,1.8-0.8,3.6-0.8,5.4c0,5.8,0.1,11.7,0.2,17.5c0,1.7,0,3.4-0.1,5.1
		c-0.2,3.5-0.4,7.1-0.7,10.6c-0.7,0-1.4,0-2,0c0.4-3.9,1-7.8,1.3-11.8c0.2-2.5,0-5,0-7.6c0-3.3-0.1-6.7,0-10c0.2-4.8,0.8-9.6,1-14.4
		c0.4-8-0.5-15.8-2.3-23.6c-0.2-0.7-0.2-1.4-0.3-2c-3.5-1.3-7-2.7-10.5-4c-3.2-1.2-3.9-2-3.1-5.2c1.1-4.7,2.4-9.4,4.1-14
		c2.6-6.8,4-13.6,3.6-20.9c-0.1-2.2-0.2-4.4,0-6.6c0.6-4.8,1.2-9.6,2.2-14.4c1.1-5.4,4.8-8.9,9.8-10.9c3.9-1.6,7.8-3.1,11.8-4.3
		c4.5-1.4,9.2-2.4,13.8-3.6c2.3-0.6,4.6-1.3,6.8-1.9c1.8-0.5,2.1-1,1.5-2.7c-1-2.6-2-5.2-3.1-7.7c-0.5-1.2-1.5-2.2-2.2-3.2
		c-1.7,0-3.5,0.1-5.2-0.1c-0.5,0-1.2-0.7-1.5-1.3c-0.9-1.7-1.7-3.4-2.4-5.2c-1.4-4-2.9-8.1-4-12.2c-0.5-1.9-0.3-4.2,0.1-6.2
		c0.4-2,1.6-2.2,3.3-1c0.3,0.2,0.5,0.4,1.3,0.9c-0.3-1.3-0.3-2.2-0.7-2.9c-1.2-2.2-1.2-4.6-1.3-7c-0.3-7.4,1.4-14.5,3.7-21.4
		c0.4-1.2,1-2.4,1.7-3.5c1.3-2.2,2.7-4.5,4.1-6.6c2.5-3.7,6.3-5.8,10.2-7.6c1.6-0.7,3.2-1.7,4.9-2.3c1.6-0.6,3.4-0.8,5-1.3
		c3.8-1.1,7.8-1.1,11.8-1.2c4.2-0.2,7.9,1.6,11.6,3.2c1.7,0.8,3.5,1.3,5.2,2C98.7,6.1,101,7,103.3,8c0.5,0.2,0.8,0.9,1.2,1.4
		c0.6,0.7,1,1.8,1.8,2.2c1.9,1,2.5,2.7,3.2,4.6c0.4,1.1,1,2,1.4,3.1c0.8,2.2,1.6,4.4,2.3,6.7c0.2,0.5,0.2,1,0.3,1.5
		c2.2,6,2.4,12.4,2.8,18.7c0.1,1.6-0.3,3.1-0.3,4.7c0,0.5,0.1,1.4,0.4,1.5c2.2,1.2,3,2.9,1.8,5.1c-3.2,5.8-3.7,12.5-5.9,18.7
		c-0.7,2-1.6,3.7-3.5,4.7c-0.4,0.3-0.9,0.7-1.1,1.1c-0.6,2-1,3.9-1.4,5.9c-0.3,1.5-1.1,3.1,0.5,4.4c0.1,0.1,0.2,0.4,0.1,0.6
		c-0.5,2.3,1.2,3.1,2.7,4c4.3,2.7,8.6,5.5,12.9,8.2c2.1,1.3,4.2,2.7,6.4,3.8c7,3.5,10.9,9.4,13.2,16.6c2,6.3,2.1,12.8,2.6,19.3
		c0.5,6.4,1.1,12.8,2,19.2c0.9,7.3,2.1,14.5,3.1,21.8c0.2,1.1-0.1,1.5-1.3,1.5c-5.1,0.1-10.3,0.3-15.4,0.6c-0.4,0-1.1,0.5-1.2,0.8
		c-1.3,4.4-2.8,8.8-3.9,13.3c-1.4,5.7-2.5,11.4-3.7,17.1c-0.2,0.7-0.4,1.4-0.6,2.1c-0.3,1.3-0.8,2.5,0.5,3.7
		c0.5,0.5,0.6,1.7,0.6,2.6c-0.1,3.2,0.8,6.2,1.9,9.2c0.9,2.4,0.9,5.2,1.3,7.8c0.2,1.1,0.2,2.1,0.3,3.2c-0.9,0-1.8,0-2.7,0
		c0.8-3.4,1.2-6.8-0.2-10.1c-1.4-3.3-2.1-6.6-1.9-10.2c0-0.6-0.1-1.2-0.2-1.8c-0.2,0-0.3,0-0.5,0c-0.1,0.5-0.2,0.9-0.2,1.4
		c0,4.5-1.5,8.5-3.2,12.5c-1.1,2.7-2,5.5-3,8.2c-0.5,0-0.9,0-1.4,0c0.1-0.4,0.1-0.8,0.3-1.1c2.6-7.5,6.7-14.6,6.6-22.8
		c0-0.2,0.1-0.4,0.2-0.7c1.2-5.3,2.3-10.6,3.7-15.9c1.5-5.7,3.1-11.4,4.6-17.2c0.2-0.6,0.3-1.3,0.4-2c-4.3,0-8.3,0-12.4,0
		c-1.1,0-2.2,0.1-3.2,0c-2.1-0.3-4.1-0.8-6.4-1.3c-0.1,0.1-0.3,0.3-0.3,0.6c-1.9,6.3-5.1,12.1-6,18.7c-0.4,2.9-0.8,5.7-1.3,8.5
		c-1.4,7.1-4,13.8-7.9,19.9c-2.9,4.4-5.7,8.9-8.5,13.3C84.2,247.7,83.3,247.7,82.4,247.7z M62.9,103.4c0.1-0.2,0.2-0.4,0.3-0.6
		c0.4,0.3,0.9,0.5,1.3,0.8c3.3,1.9,6.5,3.9,9.8,5.7c3,1.6,6.3,2.1,9.6,1.6c3.6-0.5,6.3-2.8,8.6-5.6c2.5-3,5-5.9,7.8-8.7
		c2.2-2.2,4-4.7,4.8-7.7c1.2-4.2,2-8.5,2.8-12.7c1-5.2,1.9-10.4,2.7-15.7c0.3-2.1,0.2-4.3,0-6.5c-0.2-2.3-0.7-4.6-1-6.9
		c-0.6-4.4-1.3-8.8-5.6-11.3c-0.1-0.1-0.3-0.2-0.4-0.3c-0.9-1.3-2.3-1.6-3.8-1.5c-1,0.1-2,0.5-3,1c-5,2.3-10.1,2.1-15.3,1.2
		c-3.4-0.6-6.9-1.3-9.4-4.1c-0.8-0.9-1.9-1.5-2.8-2.2c-2.2-1.6-2.1-1.5-4.5-0.1c-3,1.9-6.1,3.6-9.1,5.6c-1.3,0.8-2.6,2-3.2,3.3
		c-1.7,3.6-2.9,7.3-4.5,11c-1.2,2.8-1.9,5.7-1.9,8.7c0,8.8,2.2,17.1,6.3,24.9c1.2,2.3,2.3,4.9,2.8,7.4c0.3,1.6,0.6,2.9,1.5,4.3
		c3.3,5.3,5.4,11.1,6.8,17.3c0.2,0.8,0.4,1.5,0.7,2.4c2.5-2,4.7-3.8,7-5.7C68.2,106.9,65.6,105.1,62.9,103.4z M59.5,141.4
		c-0.7-0.2-1-0.2-1.2-0.3c-3.4-1.1-4.4-0.7-5.2,2.7c-2,8.4-4.4,16.7-7.9,24.7c-1.1,2.6-2.3,5.2-3.7,7.7c-1.7,3.2-3.5,6.4-5.5,9.5
		c-2.5,3.9-5.5,7.6-7.9,11.6c-1.2,2-1.6,4.4-2.2,6.7c-0.3,1.3-0.1,2.7-0.2,4.1c0,0.6-0.3,1.1-0.6,2.1c-0.4-0.7-0.5-0.9-0.5-1.1
		c-0.3-4.5-0.1-9,2.6-12.9c3.4-5.1,6.8-10.1,10.2-15.2c0.4-0.6,0.5-1.5,0.8-2.2c-0.1-0.2-0.2-0.4-0.3-0.6c-7.4,2-14.9,1.4-22.5,0.1
		c0.1,0.8,0.1,1.3,0.2,1.8c1.3,7.5,3.3,14.9,3.4,22.7c0.1,7.7,2.9,14.8,5.8,21.9c0.6,1.5,1.6,2.9,2.7,4.1c0.8,0.9,2,1.7,3.2,2.2
		c1.6,0.6,3.4,0.8,5.1,1.3c2.9,0.8,5.4,0,7.4-1.9c1.4-1.3,2.5-3.1,3.3-4.9c2.1-4.5,4-9,5.8-13.6c1.7-4.2,3.1-8.5,4.6-12.8
		c1.5-4.3,2.9-8.6,4.3-12.8c1.3-4,2.6-7.9,4-11.9c1.6-4.9,3.1-9.8,4.9-14.6c1.6-4.3,3.1-8.9,5.5-12.7c2.7-4.2,6.5-7.8,9.8-11.7
		c1.2-1.5,2.7-2.9,3.5-4.5c3.4-6.6,6.7-13.3,9.9-20c0.8-1.7,1.3-3.5,1.9-5.2c-0.2-0.1-0.4-0.2-0.6-0.3c-0.8,1.4-1.7,2.8-2.3,4.2
		c-2.6,6.2-5,12.5-9.7,17.5c-1.4,1.5-3,2.6-4.6,4c2.8-3.7,5.8-7.1,8.1-11c2.3-3.9,3.9-8.3,5.9-12.5c-0.1-0.1-0.3-0.2-0.4-0.2
		c-2.5,3.3-4.9,6.6-7.6,9.8c-2.6,3.1-5.8,5.7-9.3,7.9c4-4.9,9.5-8.5,12.7-14.1c-0.3-0.1-0.5,0-0.6,0c-4.1,2-8.2,4-12.4,5.9
		c-0.6,0.3-1.3,0.2-2,0.2c-0.2,0-0.4-0.5-0.5-0.7c0-0.2,0.3-0.5,0.5-0.5c2.2-0.7,4.6-1.2,6.7-2.1c2.6-1.2,5-2.7,7.4-4.1
		c1.6-1,3.2-2.1,4.6-3.2c2.3-1.8,4.5-3.7,6.8-5.6c-2.1-2.6-3.4-2.8-5.2-0.7c-1.6,1.9-3.2,3.8-4.7,5.8c-2.5,3.2-5.5,5.7-9.6,6.1
		c-3.3,0.3-6.5-0.2-9.6-1.6c-0.5-0.2-1.4-0.2-1.8,0.1c-1.7,1.2-3.5,2.4-5,3.8c-1.1,1-1.8,2.4-2.7,3.6c-0.3,0.4-0.7,0.7-1.1,1
		c-0.2-0.4-0.5-0.8-0.6-1.3c-0.2-1.4,0-2.9-0.5-4.2c-1.9-5.5-3.9-10.9-5.9-16.3c-0.1-0.3-0.4-0.6-0.6-0.9c-0.4,0.8-0.7,1.6-1.2,2.1
		c-0.9,0.9-1,1.9-0.9,3.1c0.4,3.5,0.6,7.1,1,10.6c0.5,4.6,1.1,9.2,1.6,13.8c0.4,4,1.3,8.1-0.3,12.1c-0.2,0.5-0.1,1.1-0.2,1.6
		C57,139.6,58.7,139.2,59.5,141.4z M39.3,175.8c0.2,0,0.4,0,0.6,0.1c0.6-0.9,1.3-1.7,1.6-2.7c1.5-3.9,3.1-7.7,4.4-11.7
		c1.4-4.3,2.6-8.8,3.9-13.2c1-3.5,1.8-7,3.3-10.3c1.1-2.5,1.8-5,1.5-7.7c-0.6-6.8-1.2-13.6-1.8-20.4c-0.2-2.5-0.2-5.1-0.6-7.6
		c-0.3-2.1-1-4.1-1.7-6.2c-0.4-1.1-1.2-1.4-2.3-0.8c-0.8,0.5-1.7,0.9-2.6,1.2c-4.8,1.3-9.8,2.4-14.5,4c-4.6,1.5-9.2,2.8-13.5,5.4
		c-3.2,2-4.8,4.6-5.6,8.1c-1.8,8.1-2.5,16.3-2.2,24.6c0.1,2.4,0.2,4.9-0.4,7.1c-1.6,5.3-3.7,10.4-5.4,15.7c-0.8,2.6-1.4,5.2-1.9,7.9
		c-0.3,1.4,0.3,2.4,1.7,2.9c3.8,1.4,7.3,3.3,11.5,3.9c6.5,1,12.9,2.4,19.5,0.6c2.3-0.6,2.6-0.8,1.2-2.8c-4.1-5.9-6.9-12.4-9.5-18.9
		c-3.1-7.7-5.6-15.7-8.5-23.5c-2-5.5-2.6-11.2-2.5-17c0-1,0.4-1.9,0.6-2.9c0.2,0,0.5,0,0.7,0c0.2,0.6,0.5,1.2,0.6,1.8
		c0.2,1.6,0.1,3.3,0.4,4.9c0.7,3.8,1.6,7.6,2.4,11.4c0.5,2.3,0.7,4.6,1.4,6.8c1.3,3.8,2.7,7.5,4.3,11.2c1.9,4.5,4,9,6.1,13.4
		c1.3,2.8,2.8,5.4,4.2,8.1C37.2,171.5,38.3,173.6,39.3,175.8z M37.7,53.5c-1.6,1.8-1.4,2.5,0.4,3c0.7,0.2,1.4,0.6,1.8,1.2
		c1.4,1.7,2.6,3.4,3.9,5.2c-0.1,0.1-0.2,0.2-0.4,0.3c-0.7-0.7-1.4-1.4-2-2.2c-0.8-1-1.4-2.1-2.3-2.9c-0.5-0.5-1.4-0.6-2.1-0.9
		c-0.1,0.2-0.3,0.3-0.4,0.5c0.6,1.7,1.4,3.4,1.9,5.2c1.2,3.7,2.2,7.5,3.6,11.1c0.5,1.4,1.7,2.7,2.9,3.7c0.5,0.5,2,0.5,2.6,0
		c1.5-1.1,0.3-2.7,0.1-4.1c-0.1-1.1-0.9-0.9-1.7-0.9c-2.1-0.1-4-1.4-4.7-3.3c1.9,1.1,3.2,3.2,5.5,2.2c-0.5-3.3-1.1-6.5-1.6-9.7
		c-0.1-0.4-0.4-0.8-0.6-1.2c-0.9-1.2-1.7-2.4-2.8-3.4C40.6,55.9,39.1,54.7,37.7,53.5z M111.4,60c-0.7,4.5-1.5,9-2.2,13.9
		c1.3-1.1,3-1.2,3.3-2.9c0.5-2.7,1-5.4,1.4-8.1C114.2,61.2,113.6,60.1,111.4,60z M115.6,59.7c0.5-1.1,1.2-2.2,1.7-3.5
		c0.2-0.6-0.1-1.4-0.2-2c-0.7,0.2-1.6,0.1-2,0.6c-1,1.1-1.8,2.3-2.7,3.5C113.6,58.7,114.4,59.2,115.6,59.7z M102.3,98
		c1-1.1,1.8-2.1,2.8-2.9c1.5-1.4,1.5-2-0.3-3.1c-1.3,1.8-2.6,3.5-4,5.4C101.3,97.6,101.8,97.8,102.3,98z M108.2,78.8
		c2.2-0.1,2.8-1,3.2-4.2c-0.8,0-1.5,0-2.4,0C108.7,75.9,108.4,77.3,108.2,78.8z M51.6,94.2c0.6,1.3,1.2,2.4,1.8,3.7
		c1.2-1.1,1.7-2.4,1.1-3.6C54,93.1,52.9,93.5,51.6,94.2z"/>
	<path class="st0" d="M81.6,98.5c-5,0.9-8.2-2.2-11.2-5.7c-0.6-0.7-0.5-1.3,0.1-2.2c2.3-3.4,5.5-3.8,9.1-3.6
		c3.2,0.2,6.5,0.2,9.6,0.8c1.7,0.3,3.2,1.7,4.6,2.8c0.2,0.2,0,1.4-0.4,2C90.6,96.7,86.9,99.1,81.6,98.5z M71.1,91.8
		c1.6,4.2,7,6.4,13.6,5.7c3.5-0.3,7.3-3.2,8-6.2C85.6,96.1,78.5,96.6,71.1,91.8z M91.1,89.9c-0.8-0.6-1.2-1.2-1.8-1.3
		c-1.8-0.2-3.7-0.2-5.5-0.3c-0.4,0-0.9,0.1-1.3,0.1c-2.4,0-4.8-0.2-7.2-0.1c-0.8,0-1.6,0.7-2.4,1.1c0.1,0.1,0.1,0.3,0.2,0.4
		C79,89.9,84.9,89.9,91.1,89.9z"/>
	<path class="st0" d="M56.5,61.5c1.1-0.5,1.9-1.1,2.8-1.2c3.9-0.6,7.8-1.1,11.6-1.6c1.6-0.2,4.6,2.8,4.4,4.5c0,0.2-0.5,0.6-0.8,0.6
		c-5.9,0.8-11.6,0.1-17.2-1.6C57.2,62.2,57,62,56.5,61.5z M68.3,63.3c1.8-0.1,3.6-0.2,5.6-0.3c-1-1.9-2.8-2.9-3.7-2.8
		C69.5,61.4,69,62.3,68.3,63.3z M63.6,60.3c-1.1,0.2-2.2,0.3-3.3,0.6c-0.3,0.1-0.7,0.5-0.7,0.7c0,0.3,0.4,0.7,0.7,0.8
		c1.6,0.3,3.3,0.5,4.8,0.8C64.7,62.2,64.2,61.3,63.6,60.3z"/>
	<path class="st0" d="M104.4,64.3c-3.7-0.5-7.5-1-11.2-1.5c-0.1,0-0.2,0-0.3-0.1c-0.7-0.2-1.4-0.3-2-0.5c0.6-0.5,1.2-0.9,1.8-1.4
		c3.2-3,6.8-2.3,10.4-1c1.2,0.4,2.2,1.3,3.3,2.1c0.4,0.3,0.6,1,0.9,1.5c-0.5,0.2-1,0.5-1.6,0.7c-0.4,0.1-0.8,0-1.2,0
		C104.4,64.2,104.4,64.2,104.4,64.3z M100.5,63.1c1.6,0.1,3.1,0.2,4.7,0.2c-0.5-2.4-2.5-2.2-4-3.1C101,61.2,100.8,61.9,100.5,63.1z
		 M95.8,59.9c-1,0.6-1.7,1.1-2.5,1.6c0.1,0.2,0.1,0.3,0.2,0.5c0.8,0.1,1.6,0.2,2.3,0.2C95.8,61.5,95.8,60.9,95.8,59.9z"/>
	<path class="st0" d="M75.6,74.2c-0.6,1.2-1.3,2.3-1.7,3.5c-0.4,1.2,0.3,1.9,1.5,2.2c0.3,0.1,0.6,0.2,0.8,0.1
		c2.4-0.5,4.3,0.2,5.8,2.3c0.9,1.2,2.4,0.7,3.6,0c1.6-1,3.1-2.2,5.3-1.8c0.9,0.1,1.5-1.8,1-3.1c-0.2-0.4-0.4-0.8-0.6-1.3
		c1.5,0.9,1.3,2.3,1,3.8C92,81.2,91,81,89.9,81.1c-0.9,0.1-1.8,0.5-2.6,0.9c-1.6,0.8-3,2.1-5,1.2c-0.3-0.1-0.7-0.3-0.8-0.6
		c-1.2-2-3.1-2.2-5.2-2.1c-1,0-2.6-0.6-2.8-1.3c-0.3-1.1,0.1-2.5,0.5-3.6c0.2-0.6,1-1.1,1.5-1.6C75.6,74.1,75.6,74.1,75.6,74.2z"/>
	<path class="st0" d="M67.1,57.1c-2.7-0.3-5.6-0.5-8.4-0.9c-0.3,0-0.6-0.4-0.8-0.6c0.3-0.3,0.5-0.7,0.8-0.7c1,0,2,0.1,3,0.1
		c2.8,0.1,5.6,0.2,8.4,0.4c0.5,0,1,0.3,1.5,0.5c-0.5,0.3-0.9,0.8-1.4,0.9C69.1,57.1,68.2,57.1,67.1,57.1z"/>
	<path class="st0" d="M93,56.4c0.7-0.4,1.3-1,2-1c3.3-0.2,6.6-0.3,10-0.3c0.4,0,0.9,0.6,1.4,0.9c-0.5,0.2-1,0.4-1.4,0.4
		c-3.6,0.2-7.3,0.4-10.9,0.6c-0.2,0-0.4,0-0.6-0.1C93.2,56.8,93.1,56.6,93,56.4z"/>
</g>
</svg>
