<?xml version="1.0" encoding="utf-8"?>
<!-- Generator: Adobe Illustrator 18.1.1, SVG Export Plug-In . SVG Version: 6.00 Build 0)  -->
<!DOCTYPE svg PUBLIC "-//W3C//DTD SVG 1.1//EN" "http://www.w3.org/Graphics/SVG/1.1/DTD/svg11.dtd">
<svg version="1.1" id="Layer_1" xmlns="http://www.w3.org/2000/svg" xmlns:xlink="http://www.w3.org/1999/xlink" x="0px" y="0px"
	 viewBox="405 177.9 150 205.5" style="enable-background:new 405 177.9 150 205.5;" xml:space="preserve">
<style type="text/css">
	.st0{fill:#03A9F4;}
</style>
<g id="cough-lady">
	<path class="st0" d="M555,267.7c0-0.7-0.1-1.5-0.2-2.2c-0.7-5.2-3.9-8.2-8.9-9.9c-2.1-0.6-4.5-0.4-6.6-1.6c-0.4-0.2-0.7-0.6-0.9-1
		c-0.1-1-0.1-2,0.1-2.9c0.9-2.5,2-5,3.1-7.4c1.2-2.7,2.7-5.4,4.2-8c1.9-3.4,3.5-6.9,5.1-10.2c2.1-4.1,2-8.4,0.4-12.7
		c-0.5-1.5-1.2-3-1.7-4.6c-1.1-4-2.7-7.7-5-11.2c-1.5-2.2-2.9-4.6-5.1-6.1c-2.9-1.9-5.9-3.7-8.7-5.6c-3.4-2.1-7.1-3-11.2-2.9
		c-0.6,0-1.4-0.5-2.1-0.9c-0.7-0.4-1.5-1-2.2-1.2c-1.4-0.4-2.7-0.5-4.1-0.6c-0.2-0.4-1-0.6-1.6-0.5c-2.2,0.4-4.5,0.6-6.7,1.4
		c-3.6,1.4-6.7,3.5-9.6,5.9c-2.5,2.1-4.7,4.4-6.9,6.9c-4,4.5-7.1,9.5-9.2,15.1c-1.1,3-2.5,5.9-3.6,8.9c-0.6,1.6-1.2,3.1-1.9,4.7
		c-0.6,1.7-1.1,3.5-1.7,5.2c-0.4,1.1-0.9,2.1-1.4,3.2c-0.5,1.4-0.7,2.7-1.4,4c-1.4,3-2.9,5.9-4.4,8.9c-1,2.1-1.7,4.4-3.2,6.2
		c-2,2.6-1.1,2.2-4.1,1.5c-1.9-0.5-3.6-1-5.1-2.1c-0.6-0.5-1.4-0.7-2.1-1c-2.7-0.9-5.4-1.7-8.1-2.5c-2.9-0.7-4.4-0.6-5.7,2
		c-0.9,1.6-1.9,3.1-2.9,4.6c-1.4,2.5-2.9,5-4.1,7.5c-0.4,0.7-0.5,2-0.2,2.7c0.4,1.1,0.5,2.1,0.2,3.2c-0.6,2.6,0.4,3.9,3,4.2
		c0.2,0,0.5,0.6,0.5,0.9c0,3.2,2,4.5,4.9,4.1c1.4-0.2,2.6-0.6,4-1c1.1-0.2,2.2-0.4,3.2-0.5l0.1,0.4c-1.1,0.4-2.2,1-3.5,1.1
		c-2.4,0.4-4.5,1-6.6,2.1c-0.7,0.4-1.6,0.6-2.4,0.6c-2.5,0.2-4.6,0.9-6.4,2.7c-2.7,2.9-5.2,5.7-7.1,9.1c-1,2.6-2,4.9-3,7.1
		c-0.7,1.6-1.2,3.4-2.7,4.6c-0.2,0.2-0.4,0.6-0.5,1c-0.2,0.5-0.2,1.1-0.6,1.6c-1.6,2.6-4,4.7-4.9,7.7v2.6c2.6,1.7,5.4,3.4,8,5
		c0.7,0.7,1.2,1.2,1.1,2.2c-0.1,2.6-0.2,5.4-0.2,8.1c0.1,2.2,0.5,4.4,0.7,6.6c0.1,1,0.2,1.9,0.4,2.9c0.1,1.9,0.1,3.6,0.2,5.5
		c0.2,3.5,0.6,6.9,0.9,10.4c0,0.7,0.1,1.5,0.1,2.2c0.1,3.4,1.5,6.7,0.7,10.2c-0.1,0.9,0.2,1.9,0.4,2.7c0.1,0.7,0.2,1.4,0.2,2.1
		c0.1,2.6,0.2,5.2,0.2,7.7v4.1h1.7c-0.1-3.7-0.2-7.5-0.4-11.1c-0.1-3.2-0.2-6.5-0.5-9.6c-0.1-2.2-0.5-4.5-0.9-6.7
		c-0.2-2-0.5-4-0.7-6c-0.2-3.5-0.2-6.9-0.5-10.4c-0.1-1.9-0.4-3.7-0.7-5.6c-0.9-3.9-0.5-7.7-0.6-11.6c0-0.5,0.2-1.1,0.4-1.9
		c0.7,0.5,1.6,0.9,2.2,1.5c2,2,4.4,3.1,7.2,3.4c1.2,0.1,2.6,0.7,3.7,1.4c3.2,1.9,6.6,3.2,10.4,4.1c2.1,0.5,2.1,0.6,2.1,2.7
		c0,2.5-0.1,5,0,7.5c0.1,2-0.2,3.9-0.4,5.9c-0.2,3,0.2,5.9,0.2,8.9c0.1,2,0.1,4.1,0,6.1c0,1.6-0.2,3.4-0.4,5
		c-0.1,2.1-0.2,4.4-0.2,6.5c0,1.6,0.4,3.1,0.4,4.7c0,0.9-0.1,1.9-0.1,2.7c0,0.7,0.1,1.6,0.1,2.4h1.5v-2c0-1.7-0.2-3.5-0.2-5.1v-7.5
		c0-1,0.2-2,0.2-3.1c0.1-2.4,0.2-4.6,0.2-7c-0.1-2.5-0.4-5-0.6-7.5c0-0.4,0-0.7-0.1-1c0.1,0,0.2,0,0.2,0c0.7,2.9,1.6,5.9,2.2,8.7
		c0.7,3.4,1.1,6.9,1.7,10.2c0.2,1.4,0.9,2.6,1.1,4c0.5,2.4,1,4.9,1.1,7.2c0,1,0.1,2,0.1,3h1.5c-0.1-1.6-0.2-3.1-0.4-4.7
		c-0.2-2-0.6-4.1-1-6.1c-0.6-2.9-1.2-5.6-1.9-8.5c-0.4-2.1-0.5-4.2-1-6.2c-0.4-2-1.1-3.7-1.7-5.7c-0.1-0.2-0.1-0.6-0.2-1.2
		c0.6,0.4,1,0.6,1.2,0.9c1.7,1.5,3.4,3.1,5.1,4.6c1.5,1.2,3.1,2.7,4.9,3.6c3.4,1.6,7.1,1.9,10.4,3.9c0.1,0.1,0.5,0,0.6-0.1
		c0.1-0.2,0.1-0.6,0.1-0.7c-0.1-0.2-0.5-0.5-0.9-0.7c-1-0.5-2-1-3.1-1.4c-1.9-0.6-3.9-1-5.7-1.7c-2.4-0.7-4-2.6-5.9-4.2
		c-1.7-1.5-3.4-3-5.1-4.5c-0.7-0.6-1.7-1.2-2.2-2.1c-0.4-0.7-0.4-1.7-0.4-2.6c0-1.1,0.1-2.4,0.1-3.5c0.1-3-0.2-6.1,0.4-9.1
		c0.5-2.5,0.7-5,1.1-7.4c0.1-1.1,0.2-2.2,0.2-3.2c-0.2-3.2-0.6-6.6-0.9-9.9c-0.1-3-0.9-5.7-1.9-8.5c-0.7-1.9-1.4-3.7-2-5.6
		c-0.2-0.1-0.6-0.2-1-0.5c-0.7,0.9-0.2,1.7,0,2.5c0.6,1.7,1.4,3.4,2,5c0.5,1.4,0.6,2.7,1,4.1c0.1,0.7,0.4,1.4,0.5,2.1
		c0,0-0.1,0.1-0.1,0.2c-0.1-0.1-0.1-0.2-0.2-0.5c0.9,6.2,1.4,12.5,0.2,18.5c-1.2-0.2-2.4-0.6-3.5-0.7c-2.1-0.4-4.4-0.9-6.1-2.1
		c-2.9-2-5.7-3.4-9.2-3.6c-1-0.1-2.1-0.7-3-1.2c-0.9-0.5-1.5-1.2-2.2-1.7c-2.7-1.7-5.6-3.2-8.5-5c-1.2-0.7-2.5-1.7-3.7-2.6
		c0.2,0,0.1-0.5,0.2-0.9c0.7-2.7,2.4-5,4.5-6.7c2.1-1.9,3-4.5,4.2-6.9c1.1-2.1,1.7-4.5,2.6-6.7c1.2-2.9,3-5.4,5-7.6
		c1-1.1,2-2.2,3.1-3.2c1-1,2.4-1.4,3.7-1.5c2-0.2,3.9-0.7,5.6-1.7c0.7-0.4,1.5-0.9,2.2-0.9c2.9-0.1,5.2-1,7.4-3c0.1-0.1,0.5,0,0.7,0
		c1.2,0.2,2.5,0.5,3.9,0.6c2.2,0.2,4.5,0.6,6.7,0.9c0.6,0.1,1.2,0,1.9,0c0.2,0,0.7,0.1,0.7,0.2c0.4,0.7,0.6,1.6,0.7,2.5
		c0.2,1.2,0.4,2.5,0.5,3.6c0.5,2.7,1.1,5.5,1.7,8.2c0.1,0.5,0.4,1.1,0.7,1.2c0.5,0.1,1.1-0.1,1.6-0.5c0.6-0.4,1.1-1,1.7-1.4
		c2.2-1.2,4.6-2.4,6.9-3.5c0.5,1.2,1.2,2.6,1.6,4c0.6,2.6,1.1,5.2,1.5,7.9c0.1,0.5-0.1,1,0,1.5c0.2,1.7,0.7,3.5,0.9,5.2
		c0.1,3.4,1.1,6.5,2.1,9.6c1.4,4.2,3,8.5,4.5,12.7c0.7,2.2,1.7,4.5,2.1,6.9c0.5,3,1.1,5.9,2.5,8.5c2.1,3.9,3.6,8.1,5.6,12.1
		c0.7,1.5,1.7,2.9,2.7,4.1c0.6,0.9,1.5,1.5,2.2,2.2c0.6,0.6,1.2,1.5,2,2c1.9,1,2.6,2.6,3,4.6c0.4,2.5,0.7,4.9,0.9,7.4
		c0.2,3,0.5,6.1,0.6,9.1h1.5c0-1.9-0.2-3.9-0.2-5.7c-0.1-2.7-0.2-5.6-0.6-8.4c-0.2-1.5-0.7-3-1.2-4.4c-0.9-3-1.2-6-0.7-9.1
		c0.2-1.2-0.1-2.5,0.1-3.7c0.4-2.9-1-5.1-2.1-7.5c-1-2.2-1.4-4.6-1.6-7c-0.1-1.7,0-3.5,0-5.1v-9.7c0-1.5-0.5-2.9-0.4-4.4
		c0.2-3.4,0.7-6.7,1.1-10.1c0.1-0.5,0.4-1,0.6-1.5c0.7-1.2,1.1-2.6,1-4.1c0-0.5,0-1.1,0.1-1.6c0.2-1.4,0.6-2.7,1-4.1
		c0.2-0.9,0.1-1.7,1.1-2.2c0.4-0.2,0.4-1,0.6-1.6c0.6-1.4,1.4-2.6,2-3.9c0.4-0.7,0.7-1.6,0.7-2.5c0.1-1.7,0.7-3.2,2-4.4
		c0.2-0.2,0.7-0.4,1.1-0.2c1.5,0.2,2.9,0.7,4.4,0.9c1.5,0.1,3,0.1,4.5,0.1c0.5,0,1,0,1.5,0.1c1.1,0.1,1,0.2,1.1,1.2
		c0.1,1.1,0.5,2.1,1,3.2c0.2,0.7,1,1.4,1.2,2.1c0.5,1.6,2,2.2,3.2,3c0.9,0.5,1.9,1.4,3.2,1c0.2-0.1,0.6,0.2,1,0.4c1,0.2,2,0.5,3,0.7
		c1.7,0.2,3.5,0.5,5.2,0.7c0,0.1,0.1,0.2,0.1,0.4c-1.5,1.2-2.9,2.5-4.4,3.6c-0.6,0.5-1.5,0.5-2.2,0.9c-1.5,0.7-2.5,1.9-3.1,3.4
		c-0.6,1.6-1.2,3.5-1.4,5.2c-0.1,2.6-0.4,5.2,0.6,7.7c0.4,0.9,0.4,2,0.7,2.9c0.4,1.1,1,2.2,1.6,3.2c1,1.6,1.2,3.5,1.4,5.2
		c0.1,2.5,0.1,5,0,7.5c-0.1,1.1-0.6,2.2-1.1,3.4c-0.6,1.7-1.1,3.5-2,5c-1.5,2.2-3.2,4.2-5,6.2c-0.6,0.7-1.1,1.5-1.6,2.4
		c-0.4,0.6,0.1,1.1,0.7,1.1c1-0.1,2.1-1.5,2.1-2.5c0-0.2,0.2-0.5,0.4-0.7c1.2-1.5,2.5-3.1,3.7-4.6c0,0.5,0,1.2-0.1,1.9
		c-0.4,1.4,0.2,2.7,0.6,4c1.1,3.6,2.4,7.1,3.6,10.6c0.9,2.6,2,5.1,2.9,7.7c0.2,0.9,0.1,2,0.2,3c0,2,0.1,4,0.1,6c0,1-0.1,2-0.2,3
		c-0.1,0.5-0.1,1.1-0.1,1.6h1.4c0.1-0.6,0.1-1.2,0.2-1.9c0.1-1.2,0-2.4,0.1-3.6c0-0.4,0-0.6,0.4-1c0.5,1.5,0.9,3.1,1.5,4.6
		c0.2,0.6,0.6,1.2,1,2h1.6c-0.2-0.6-0.6-1.1-0.9-1.7c-1.2-2.6-2-5.4-2.9-8.1c-1-3.1-1.6-6.2-2.6-9.4c-1.2-4-2.9-7.9-4.2-11.9
		c-1.5-4.4-1.4-8.9,0.6-13.1c0.9-1.9,1.4-3.9,1.2-6c-0.1-1.2,0.1-2.5,0-3.7c-0.4-2.2-0.7-4.6-1.4-6.9c-0.6-2.1-1.5-4.2-2.2-6.4
		c-1.2-3.9-1.1-7.6,0.1-11.4c0.6-1.9,1.6-3.5,4-4c0.7-0.1,1.5-0.6,2.1-1.1c1-0.9,2-1.7,3-2.7c0.4-0.4,0.9-0.9,0.9-1.4
		c0-1.2,0.6-2,1.5-2.9c2.5-2.4,5-4.7,7.5-7.1c2.4-2.2,3-5.2,3.4-8.1C555.1,274.2,555,270.9,555,267.7z M536.5,250.5
		c-1.7-1.9-2.1-9.2-0.7-10.9c-0.2,2,1,2.1,3.4,2.9C539,245.3,537.1,247.7,536.5,250.5z M540.5,240.8c-1.2-0.5-2.4-1-3.7-1.5
		c-0.6-0.2-0.9-0.5-0.6-1.1c0.1-0.4,0.2-0.6,0.4-1c0.4-1.4,1.2-2.2,3-2.1c0.9,0.1,1.6-0.1,2.5-0.1h1.5
		C542.5,236.8,541.5,238.7,540.5,240.8z M484.5,229.9c0.2-0.5,0.1-1.1,0.2-1.6c0.4-1.1,0.7-2.4,1.4-3.5c0.4-0.9,2.5-0.9,3.1,0.5
		c0.2,0.6,0.5,1.4,0.7,2c0.2,0.6,0.5,1.1,0.9,1.7c0.9-0.6,1.1-1.1,0.7-2c-0.4-0.7-0.6-1.6-1.1-2.4c-0.4-0.7-0.1-1,0.6-1
		c3-0.1,6,0,9-0.4c2-0.2,3.6-1.6,4.9-3.1c1.2-1.5,1.2-3.5,2.1-5.1c0.9-1.5,1.5-3,2.4-4.4c0.5-0.9,1.4-1.1,2.5-1.1c1.4,0,3,0.1,4.2-1
		c1.2-1,2.7-1.7,4.1-2.6c0.4-0.2,0.6-0.6,0.7-1c0.1-0.1,0.2-0.3,0.3-0.4c0,0-0.1-0.1-0.1-0.1c-0.1,0-0.1-0.1-0.2-0.1
		c-0.2,0-0.3-0.1-0.4-0.3c-0.1-0.2-0.3-0.5-0.4-0.7c-0.1,0.1-0.2,0.2-0.3,0.3c0-0.3-0.1-0.7-0.2-1c-1.6-2.7-3.7-5.3-3.9-8.5
		c-0.1-1.3-0.5-8.4,2.2-7.1c0.5,0.2,0.6,0.6,0.7,1.1c-0.3,0.2-0.5,0.3-0.7,0.5c0.5,1.2-0.1,2.9,0,4.2c0.2,2.7,1.2,5,2.6,7.2
		c0.8,1.3,1.6,2.5,2.5,3.7c1.8,1.2,3.6,2.3,5.8,2.6c2.1,0.4,4,1.5,5.5,3c1.4,1.4,2.7,2.7,4.2,4c1.7,1.5,2.4,3.5,2.9,5.5
		c0.5,1.7,1.1,3.5,1.5,5.2c0.2,1.4,0.4,2.9,0.5,4.2c0.2,1.4,0.5,2.7,0.7,4.2c-1.2-0.1-3.1,0.1-5.1,0.4v-1.7c0-0.2-0.2-0.5-0.4-0.7
		c-0.2,0.1-0.7,0.4-0.7,0.5c0,2-1.7,3-2.5,4.5c-1.1,2.4-1.9,4.9-2,7.6c-0.1,2.5,0.5,4.6,1.1,6.9c0.2,1,1.1,2,1.6,2.9
		c0.1,0.2,0.4,0.5,0.5,0.9c-0.1,0.1-0.1,0.1-0.2,0.2c-0.6-0.2-1.2-0.6-1.9-0.7c-2.2-0.5-4.5-1-6.9-0.6c-0.4,0-0.7,0-1-0.1
		c-0.9-0.2-1.7-0.6-2.5-0.9c-1.1-0.5-0.5-1.4-0.4-2c0.1-0.5,1-1.1,0.1-1.6c-0.9-0.4-1.1,0.5-1.5,1.1c-0.2,0.5-0.4,1.5-0.7,1.6
		c-0.5,0.2-1.2-0.2-1.9-0.4c-4.1-0.9-8.2-0.7-12.4-0.4c-0.7,0.1-1.5,0-2.2,0c-3.2,0.1-6.5,0-9.7,0.9c-0.2,0.1-0.6,0-1,0
		c-2.5,0.1-5,0.2-7.5,0.4c-0.6,0-1.1-0.1-1.1-0.9c0.1-1.5,0.2-3,0.5-4.5c0-0.5,0.1-0.9,0.2-1.5c2.5-0.2,4-2,5.1-4.2
		c-1.5-0.5-2.1,0.2-2.7,1.1c-1.1,1.5-1.9,1.6-3,0.1c-1.6-2-2.2-4.4-2-6.9c0-0.5-0.1-1-0.1-1.4C484,232,483.9,230.9,484.5,229.9z
		 M471.5,283.8c-2.2,1-4.4,2.1-6.6,3.4c-0.6,0.4-1.1,1-1.7,1.6c-0.2-1-0.5-2.1-0.6-3.1c-0.5-2.9-1-5.9-1.6-8.7
		c-0.1-0.9-0.7-1.7-1-2.6c-0.1-0.2-0.1-0.6,0-0.7c0.4-0.7,2.7-1.5,3.6-1.2c1.1,0.2,2.4,0.9,3.2,0.6c2.6-0.7,4.9,0.5,7.2,1.1
		c0.9,0.2,1.6,0.6,2,1.6c0.7,2,1.9,3.7,2.9,5.6C476.5,281.9,474,282.7,471.5,283.8z M481.6,283.9c0.9,1.1,1.9,2.1,2.6,3.4
		c0.7,1.2,0.7,3.4,0.5,5.1c-2.2-3-4.6-6.1-6.9-9.1C479,282.5,480.8,282.8,481.6,283.9z M501.9,348c0.7,2.2,0.9,4.4,0.5,6.6
		c-0.2,1.4-0.9,3-0.1,4.5c0.1,0.4-0.1,0.9-0.2,1.6c-2.1-2-4.2-3.5-5.7-6c-1.9-3.2-3.4-6.6-4.9-10.1c-0.7-1.7-2-3.4-2.6-5.1
		c-0.7-2.4-1.1-5-1.7-7.5c-0.2-1-0.6-2.1-1-3.1c-1.2-3.7-2.6-7.5-4-11.4c-0.6-1.9-1.5-3.6-2.1-5.5c-0.9-2.4-1.6-4.7-1.6-7.2
		c0-1.1-0.4-2.2-0.5-3.5c-0.2-1.6-0.5-3.4-0.7-5c-0.4-2.5-0.6-4.9-1.2-7.4c-0.4-1.4-1.2-2.7-1.9-4c0,0,0-0.1,0-0.2
		c1.1-0.7,2.2-0.7,3.1,0.1c1.9,1.9,3.4,4,4.7,6.2c0.6,1.1,1.5,2.1,2.2,3.2c0.2,0.4,0.4,0.9,0.4,1.2c0.1,2.7-0.2,5.5,0.2,8
		c0.7,4,2.1,7.9,3.2,11.7c0.7,2.4,2.2,4.2,3.6,6.1c1.2,1.6,2,3.5,2.5,5.6c0.5,1.7,1.1,3.4,1.7,5c0.6,1.7,1.7,3.4,2.1,5.1
		C498.6,341,500.6,344.4,501.9,348z M498.3,289.8c-0.5,0.7-1,1.5-1.4,2.2c-0.2,0.5-0.4,1.1,0.2,1.2c0.4,0.1,1-0.2,1.2-0.6
		c1.6-2.6,3.2-5.2,4.7-7.9c0.1,0.1,0.2,0.1,0.2,0.1c0,3.1,0.4,6.2-0.4,9.2c-0.5,1.7-1.4,3.4-1.9,5.1c-0.7,2.6-1.2,5.4-1.7,8.1
		c-0.9,4.5-1.4,9.1-0.9,13.7c0.2,2.6,0.1,5.2,0.2,7.9v5.6c-0.5-1.2-1-2.4-1.4-3.5c-0.7-2.1-1.2-4.5-2.1-6.5
		c-0.9-1.9-1.9-3.7-3.2-5.5c-1.4-1.9-2.4-3.9-2.9-6.1c-0.7-2.7-1.7-5.4-2.2-8.2c-0.5-2.9-1.1-5.7-0.5-8.9c0.5-2.7,0.4-5.6,0.1-8.4
		c-0.1-1.2-1.2-2.2-2-3.4c-0.4-0.6-1-1.1-1.5-1.7c-1.2-1.4-2.6-2.6-3.9-4.1c-0.9-1.1-1.4-2.4-2-3.6c0.1-0.1,0.2-0.4,0.2-0.5
		c1.4,0.1,2.6,0.2,4,0.5c2,0.2,3.9,0.7,5.9,0.7c2.2,0,4.2,1,6.4,1.4c2.9,0.6,5.9,1.1,8.9,1.6c0.9,0.1,1.9,0.2,2.9,0.4
		c-0.2,0.1-0.4,0.1-0.6,0.2c0.2,0.1,0.4,0.2,0.6,0.4C502.8,282.9,500.5,286.3,498.3,289.8z M507.3,282.9c-0.5,1.1-0.7,2.2-1,3.4
		c-0.4,1.1-0.6,2.4-1,3.5c-0.1,0-0.2,0-0.5-0.1c0-1,0.1-1.9,0.1-2.9c0.1-1.6-0.2-3.2,0.4-4.9c1-2.4,1.5-2.7,3.5-1.5
		C508.4,281.4,507.6,282.2,507.3,282.9z M553.1,277.4c-0.4,2.6-1.2,5.4-3.7,7.1c-1.9,1.4-3.4,3.4-5.1,5c-0.5,0.4-1.1,0.6-1.6,1
		c-0.4,0.2-0.9,0.2-1.1,1c-0.1,0.5-1.2,0.9-2,0.9c-2,0.1-4,0-5.9-0.7c-0.9-0.4-1.7-0.5-2.6-0.7c-1.6-0.4-2.9-1.2-3.9-2.6
		c-0.4-0.5-0.7-1.1-1.2-1.6c-1.2-1.2-1.1-2.7-0.9-4.5c2.2,0.1,4.5,0.4,6.6,0.5c2.9,0.1,5.6,0.2,8.5,0.2c2.5,0,5.1-0.1,7.6-0.5
		c1-0.1,1.9-0.7,2.7-1.2c0.1-0.1,0.2-0.7,0.1-0.7c-0.4-0.2-1.1-0.6-1.2-0.5c-1.2,1.1-2.7,1-4.2,1c-4,0.1-7.9,0.4-11.9,0.2
		c-5.4-0.2-10.6-0.5-16-0.7c-2.9-0.1-5.9-1.2-8.6-2.1c-3.5-1.1-7.1-1.9-10.9-2.5c-1.9-0.2-3.7-0.6-5.4-1.2c-1.9-0.6-3.7-1.1-5.7-1
		c-2.4,0.1-4.6-0.6-6.9-1c-1-0.1-2.1,0-3.1-0.2c-2-0.4-3.9-1-5.9-1.5c-0.4-0.1-0.7-0.1-1.1-0.1c-1.6-0.1-3.4-0.1-5-0.5
		c-2.1-0.5-3.7,0.1-5.2,1.4c-1.4,1.1-2.9,1-4.4,0.7c-2.5-0.2-5-0.6-7.5-1c-0.7-0.1-1.4-0.4-2.1-0.4c-3,0-5.6,0.2-8.1,1.1
		c-0.9,0.2-1.9,0.5-2.7,0.5c-2.1,0.1-2.9-1.4-2.5-3.2c0.4-1.6,1.1-3.2,1.6-4.9c0.6-1.7,1-1.9,3-1.6c0.6,0.1,1.1,0.1,1.2-0.5
		c0.1-0.7-0.5-0.9-1.1-0.9h-0.1c-3.4,0-2.9-0.4-4.6,3.2c-0.5,1-0.6,2.2-2,2.6c-1.2,0.4-1.7-0.4-1.7-1.6c-0.1-2.4,1.4-3.7,2.9-5.2
		c1.1-1,2.1-2,3.2-3c0.5-0.4,1.1-0.4,1.6-0.6c0.4-0.2,1.1-0.6,1.1-0.9c0-0.7-0.7-0.4-1.2-0.5c-1.6-0.1-2.7,0.7-3.7,1.9
		c-1,1.1-2.1,2.2-3.2,3.4c-0.1,0.1-0.5,0.4-0.6,0.2c-0.1-0.1-0.4-0.4-0.4-0.6c0.1-0.7,0.1-1.5,0.5-2.1c0.7-1.5,1.6-2.9,2.5-4.4
		c0.7-1.2,1.5-2.5,2.2-3.7c0.4-0.6,0.6-1,1.4-0.6c0.6,0.2,1.4,0.5,2,0.5c0.5,0,1-0.4,1.5-0.6c-0.4-0.2-0.9-0.6-1.2-0.7
		c-0.5-0.2-1.1-0.2-1.6-0.5c-0.1-0.1-0.4-0.5-0.2-0.7c1-1.9,2.1-2.2,4.1-1.7c2.9,0.9,5.7,1.7,8.6,2.6c0.2,0.1,0.5,0.2,0.7,0.4
		c1.9,1.4,3.9,2.4,6.2,2.6c0.6,0.1,1.1,0.4,1.7,0.6c0.4,0.1,0.7,0.2,1.1,0.2c1.7,0.1,3.4,0.1,5.1,0.2c2.4,0.1,4.9,0.1,7.2,0.2
		c2.7,0.1,5.5,0.5,8.4,0.6c1.5,0,2.9-0.2,4.4-0.5c1.1-0.1,2.1-0.2,3.2-0.4c1.9-0.1,3.9-0.2,5.7-0.4c1.5-0.1,3,0.1,4.5-0.1
		c3.1-0.6,6.2-0.6,9.5-0.6c3,0,6-0.5,8.9-0.4c2.6,0.1,5.2,0.4,7.7,1.5c2.7,1.2,5.7,1.7,8.9,1.7c1.7,0,3.4,0.4,5,1
		c1.5,0.5,2.9,0.6,4.4,0.5c1.4-0.1,2.7,0.2,4.1,0.6c2,0.5,3.9,1.1,5.5,2.5c2,1.7,3,4,3.1,6.4C553.5,269.2,553.6,273.3,553.1,277.4z"
		/>
	<path class="st0" d="M498.6,372.1c-0.1-1.2,0.6-2,1.5-2.7c0.7-0.6,1.4,0.1,2,0.4c0.6,0.2,0.7,0.6,0.5,1.4c-0.2,0.6,0,1.4-0.1,2.1
		c-0.2,1.2-1,1.9-1.9,1.7c-1-0.1-1.9-1.1-2-2.2C498.6,372.5,498.6,372.4,498.6,372.1z"/>
	<path class="st0" d="M502.6,336.6c0-1.4,0.7-2.4,1.9-2.5c1.2-0.1,1.9,0.7,1.9,1.9c0,1.5-0.9,2.5-2,2.5S502.6,337.8,502.6,336.6z"/>
	<path class="st0" d="M463.8,257.9c-0.6,0.2-1.4,0.6-2,0.9c-1.1,0.4-1.9,0.9-2.4,2c-0.4,0.7-1,1.2-1.5,1.7c-0.1,0.1-0.5,0.1-0.9,0.1
		c0-0.2-0.1-0.6,0-0.9c0.6-0.9,1-2,1.9-2.6c1.2-0.9,2.6-1.4,4-2c0.1-0.1,0.5,0.2,0.7,0.5C463.8,257.7,463.8,257.8,463.8,257.9z"/>
	<path class="st0" d="M531.3,233.7c-2.4-0.7-4.7-1.4-7-2c-1.1-0.4-2.4-0.6-3.6-0.9c-1.4-0.1-2.7-0.1-4.1-0.2c-0.1,0-0.4,0-0.5-0.1
		c-0.4-0.4-0.9-0.7-1.2-1.1c0.5-0.1,1-0.5,1.5-0.5c1-0.1,2-0.1,3.1-0.2c3-0.1,5.9,0.2,8.6,1.4c0.7,0.4,1.6,0.5,2.5,0.9
		C531.9,231.7,531.9,231.7,531.3,233.7z"/>
	<path class="st0" d="M522.3,239.5c0-0.1-0.2-0.2-0.4-0.5c-0.1,0.2-0.4,0.4-0.5,0.6c-0.2-0.2-0.5-0.5-0.5-0.5c-0.7,0-1.2,0.1-1.7,0
		c-0.7-0.1-1.5-0.2-2-0.6c-0.6-0.4-1.1-1-1.7-1.4c-0.6-0.5-1.4-1-1.9-1.5c-0.2-0.2-0.4-0.9-0.6-1.2c0.5,0,1-0.2,1.4,0
		c0.9,0.5,1.6,1,2.4,1.7c1.1,0.9,2.4,1.2,3.7,1.4c0.9,0,1.7,0.1,2.6,0s1.7-0.5,2.6-0.6c0.4-0.1,0.9,0.1,1.2,0.1
		c-0.1,0.4-0.1,0.9-0.2,1.1c-1,1-2.2,1.4-3.5,1.2C522.8,239.3,522.6,239.4,522.3,239.5z"/>
	<path class="st0" d="M487.8,236c0.9,0,1.5,0.7,1.5,1.9c0,1.2-0.7,2.1-1.7,2.2c-1,0-1.4-0.6-1.4-1.9C486,237,486.8,236,487.8,236z"
		/>
	<path class="st0" d="M496,344.3c-0.1,0.2-0.2,0.6-0.5,0.7s-0.6,0-0.9-0.1c-1.2-1.2-2.1-2.7-2.6-4.5c-0.1-0.4,0.1-0.9,0.2-1.2
		c0.1-0.2,0.5-0.5,0.6-0.4c0.2,0,0.6,0.4,0.6,0.6c0.1,1.5,1,2.5,1.7,3.6C495.6,343.3,495.8,343.8,496,344.3z"/>
</g>
</svg>
