<?xml version="1.0" encoding="utf-8"?>
<!-- Generator: Adobe Illustrator 18.1.1, SVG Export Plug-In . SVG Version: 6.00 Build 0)  -->
<!DOCTYPE svg PUBLIC "-//W3C//DTD SVG 1.1//EN" "http://www.w3.org/Graphics/SVG/1.1/DTD/svg11.dtd">
<svg version="1.1" id="Layer_1" xmlns="http://www.w3.org/2000/svg" xmlns:xlink="http://www.w3.org/1999/xlink" x="0px" y="0px"
	 viewBox="405 182.6 150 195.5" style="enable-background:new 405 182.6 150 195.5;" xml:space="preserve">
<style type="text/css">
	.st0{fill:#FF5722;}
</style>
<g id="neckpain-lady">
	<path class="st0" d="M555,312.7c-0.2-3.7-1.2-7.2-4-10.1c-0.5-0.5-0.6-1.1-0.2-1.7c0.4-0.5,0.2-1.1,0-1.7c-1.1-2.4-2.5-4.5-4.2-6.4
		c-2.6-2.7-5.2-5.6-7.7-8.5c-2.1-2.4-4-4.7-6-7c-2.7-3.2-5.6-6.4-8.4-9.5c-2.7-3.1-5.2-6.2-8.1-9.2c-1.1-1.1-1.7-2.1-0.9-3.6
		c0.1-0.2,0.2-0.5,0.2-0.7c0.4-2.1,1-4.2,2.2-6.2c0.4-0.4,0.5-0.9,0.5-1.4c0.1-1.5,0.1-3.1,0.2-4.7v-0.5c1-4.2,2.1-8.5,3.1-12.7
		c0.6-2.7,1.2-5.6,1.6-8.5c0.2-1.6,0.2-3.2,0.1-4.9c-0.1-1.9-0.5-3.9-0.7-5.7c-0.2-2-0.4-4-0.7-5.9c-0.2-1.5-0.7-3.1-1.5-4.6
		c-1-2-2-4.1-3.4-6c-2.2-2.9-5.5-4.5-8.7-6.1c-0.4-0.1-0.9-0.2-1.4-0.2c-1.5-0.1-2.9-0.4-4-1.7c-0.7-1.1-2-1.9-3.4-1.9
		c-3-0.1-6-0.2-9-0.2c-2.4,0-4.6,0.2-6.9,1.7c-1.9,1.4-4.1,2.4-6,3.6c-1.4,1-2.7,2.1-4,3.2c-0.9,0.7-1.6,1.6-2.4,2.5
		c-0.7,0.7-1.6,1.5-2.1,2.4c-0.4,0.7-0.9,1.2-1.6,1.7c-0.1,0-0.1,0.2-0.2,0.4c-0.5,1.1-1.1,2.2-1.6,3.4c-0.4,0.9-0.9,1.6-1.2,2.5
		c-0.6,1.2-1.1,2.6-1.7,3.9c-0.9,2-2,4-3,5.9c-0.7,1.4-1.5,2.7-2.4,4.1c-0.6,1-1.2,2-1.9,3.1c-0.7,1.4-1.4,2.9-2.1,4.2
		c-1.2,2.4-2.5,4.9-3.9,7.2c-0.9,1.5-2.1,2.7-4,3c-2.1,0.4-4.2,0.6-6.4,0.6c-3.7,0-7.5-0.2-11.2-0.2c-3.2,0-6.5,0.4-9.7,1.4
		c-2.4,0.6-4.7,1.2-7.1,2c-1.2,0.4-2.6,1-3.5,2c-1.1,1.2-2,2.9-2.2,4.6c-0.4,2.6-0.6,5.2,0.9,7.7c0.6,1,0.7,2.2,1,3.5
		c0.4,2.1,1,4.1,2.4,5.9c1.4,1.7,2.7,3.5,4.1,5.2c0.1,0.1,0.4,0.2,0.6,0.4c0.7,0.4,1.5,0.5,2.1,0.9c2.2,1.4,4.6,2.9,6.9,4.2
		c1.6,1,3.2,2,4.7,3.1c2.9,2,6.2,3.5,8.2,6.7c1,1.7,2.2,3.4,2.5,5.4c0.4,1.9,0.4,3.9,0.6,5.9c0.5,3.1,1,6.2,1.6,9.4
		c0.5,2.6,1.1,5.1,1.6,7.7c0.2,1.7,0.5,3.6,1,5.2c1.2,4,1.2,8.1,1.2,12.2c0.1,2.9-0.1,5.7-0.2,8.6c-0.1,3.4-0.4,6.9-0.6,10.2
		c0,0,0,0,0,0.1c-0.4,2.9-1.1,5.7-2.4,8.4c-2.6,5.4-4.9,10.7-7.5,16.1c-0.7,1.5-1,3.1-0.9,4.7h2.9c-0.1-0.1-0.2-0.2-0.2-0.4
		c0.1-1.1,0.1-2.2,0.4-3.4c0.5-2.9,1.7-5.5,2.9-8.1c1.4-3.1,2.7-6.2,4.1-9.4c1.4-3.4,2-7,2.1-10.6c0.1-3.7,0.5-7.5,0.9-11.2
		c0.1-1.4,0.4-2.6,0.4-4c0-1.5,0-3.1-0.1-4.6c-0.2-3-0.2-5.9-1.4-8.7c-0.5-1.5-0.9-3-1.2-4.6v-0.9c0.7,0.6,1.2,1,1.7,1.5
		c2.1,1.9,4.6,3.2,7.4,4c2,0.5,4.2,0.4,6.4,0.4c0.7,0,1.4,0.1,1.7,1c0.5-1.1,0.1-1.7-0.9-1.7c-1.4,0-2.6-0.1-3.9,0
		c-2.2,0.2-4.1-0.5-6-1.4c-2.2-0.9-3.9-2.5-5.7-3.7c-0.9-0.6-1.2-1.5-1.4-2.5c-0.2-2.1-0.5-4.2-0.7-6.2c-0.6-4.1-1.1-8.2-1.9-12.4
		c-0.5-2.7-1-5.5-2.9-7.7c-0.6-0.9-0.7-1.7,0-2.7c1-1.4,2-2.9,3-4.4c0.6-0.9,1.2-1.9,1.6-3c0.4-1.1,0-1.7-1.1-2.2
		c-0.1,0.5-0.5,1-0.5,1.5c0.1,1.4-0.5,2.4-1.2,3.4c-0.5,0.6-1,1.4-1.5,2.1c-0.7,1.1-1.4,2.1-2.1,3.2c-0.1-0.1-0.2-0.1-0.4-0.2
		c-2.7-2-5.4-4-8.1-5.7c-2.2-1.5-4.7-2.7-7.1-4.1c-1.1-0.7-2.4-1.6-3.6-2.5c0.5-0.2,1-0.4,1.4-0.4c3.1-0.2,5.6-1.6,7.7-3.9
		c1.5-1.6,2.4-3.5,2.5-5.6c0-1.1,0.5-1.4,1.2-1.7c2.1-1.1,4.1-2.2,6.2-3.4c0.5-0.2,1.1-0.4,1.7-0.4c0.5,0,1.1,0.1,1.7,0.1
		c0.7-0.1,1.2,0.1,1.6,0.7c0.9,1.1,1,2.4,1,3.6c0,0.6,0,1.1,0.1,1.6c0.1,0.2,0.5,0.4,0.7,0.4c0.1,0,0.4-0.4,0.4-0.6
		c-0.1-1-0.1-2.1-0.4-3.1c-0.4-1-0.9-1.9-1.2-3c0.9,0,1.9-0.1,2.7-0.1c2.5-0.1,5,0,7.5-0.1c0.9,0,1.1,0.2,1.4,1.1
		c0.6,3.1,1,6.4,2.2,9.4c2.1,5.4,4.5,10.5,8.1,15c1.1,1.4,2.5,2.5,4,3.4c2.2,1.4,4.4,2.6,7.1,2.2c2,0.2,4.1,0.5,6,0.1
		c2.6-0.5,5.2-1.4,7.9-2.2c0.7-0.2,1.4-0.7,2-1.2c1.6-1.4,3.2-2.7,4.9-4.1c2.2-2,3.7-4.5,3.9-7.6c0.1-2.5,0.2-5.1,0.2-7.6v-3.4h1
		c1.4,0.1,2.7,0.4,4.1,0.5c2,0.1,3.9,0.2,5.9,0.1c1.9,0,3.5,0.5,4.9,1.6c0.5,0.4,1.2,0.7,1.7,1.2c0.7,0.7,1.4,1.7,2.1,2.5
		c2.9,2.9,5.4,6.1,7.6,9.6c0.5,0.9,1.2,1.5,1.9,2.1c1.1,1.1,2.5,2,3.5,3.2c2.4,2.9,4.6,5.7,6.9,8.6c0.7,0.9,1.6,1.9,2.5,2.6
		c1.7,1.5,3.4,3.1,4.6,5c0.9,1.5,1.6,3.1,2.6,4.6c0.5,0.7,0.6,1.4,0.1,2c-0.7,1.1-1.6,2.1-2.5,3.2c-0.9,1-1.6,2.2-2.6,3
		c-1.4,1-2.7,1.6-4.2,2.4c-1.1,0.5-2.2,1-3.5,1.4c-0.4,0.1-0.9-0.1-1.4-0.2c0-0.4,0.1-0.7,0.2-1.1c-1.2,0.2-1.6-0.6-2.2-1.6
		c-0.9-1.5-2.1-2.9-3.2-4.2c-0.9-1-1.9-1.9-2.7-2.9c-1.2-1.4-2.5-2.9-3.9-4.2c-2.7-2.6-5.5-5.1-8.2-7.7c-0.4-0.2-0.7-0.6-1.2-0.9
		c-0.6-0.2-0.6-0.6-0.5-1.1c0.2-1.4,0.6-2.9,0.6-4.4c-0.1-2.4-0.4-4.6-0.6-6.9c0-0.2-0.1-0.6-0.2-0.7c-0.1-0.2-0.5-0.4-0.6-0.4
		c-0.1,0-0.4,0.2-0.4,0.5c-0.1,0.2,0,0.6,0,0.9c0.1,1.2,0.1,2.6,0.2,3.9c0,0.9,0,1.9,0.1,2.9c0.2,1.6,0.1,3.2-0.7,4.6
		c-1.5,2.5-2.6,5.1-3.1,8c-0.6,3.5-1.4,6.9-2,10.2c-0.1,1-0.2,2-0.6,2.9c-0.5,1-1.2,2-1.9,2.9c-2.1,2.9-4.7,5-8.1,6.1
		c-1.4,0.5-2.6,0.7-4,0.7c-0.4,0-0.9,0.1-1.2,0.2c-0.1,0.1-0.2,0.5-0.5,1c0.6-0.2,1-0.4,1.4-0.4c1.9-0.2,3.6-0.2,5.4-1.1
		c1.9-1,3.9-1.7,5.2-3.5c1-1.2,2.2-2.5,3.4-3.9c0,0.9,0,1.7-0.1,2.5c-0.2,2-0.4,4-0.6,5.9c-0.1,0.9-0.1,1.9-0.5,2.7
		c-0.4,1-0.4,2-0.2,3.1c0.2,2.4,0.7,4.9,0.7,7.2c0.1,4.4,0.6,8.5,1.6,12.6c0.4,1.4,0.2,2.6-0.6,3.7c-0.6,1-0.9,2-0.4,3
		c0.6,1,1.6,0.9,2.6,0.9c0.4,0,0.7,0.2,1,0.5s0.5,0.6,0.7,0.9c0.5,0.6,0.4,1-0.2,1.4c-0.7,0.5-1.4,1.1-2,1.7
		c-0.9,0.7-1.6,1.7-2.5,2.5c-1.9,1.7-4,3.4-6,5c-0.6,0.5-1.2,1.1-1.9,1.7c-1-1.1-1.9-2.2-2.7-3.2c-1.4-1.4-2.7-2.7-4.1-4.1
		c-1.1-1-2.5-1.9-3.5-3c-1.6-1.7-3.1-3.6-4.5-5.6c-2.4-3.5-4.6-7-7.1-10.4c-0.6-0.9-1.5-1.5-2.4-2.1c-3.1-2-6.5-3.6-9-6.5
		c-0.2-0.2-0.6-0.4-1-0.5c-0.1,0.1-0.1,0.1-0.2,0.2c0.2,0.2,0.4,0.5,0.5,0.6c0.2,0.2,0.5,0.4,0.7,0.6c1.6,1.9,3.6,3.1,5.7,4.2
		c2.7,1.5,5.2,3.4,6.7,6.2c0.7,1.2,1.6,2.4,2.4,3.5c1,1.5,2.1,2.9,3,4.4c1.9,2.9,4.1,5.5,6.9,7.6c1.9,1.5,3.6,3.2,5.2,5
		c0.7,0.9,1.5,1.9,2.2,2.9c0.2,0.2,0.4,0.6,0.2,0.9c-0.2,0.9-0.6,1.6-0.9,2.4c-0.1,0.4-0.1,1,0.1,1.4c0.5,0.6,0.2,1-0.1,1.6
		c-1.4,2.1-0.2,4.2,2.1,4.2c1.1,0,1.1,0.6,1.2,1.4c1.1,0,2.4,0,3.7-0.2c1-0.6,1.9-1.1,2.6-1.6c0.6,0.6,1.1,1.1,1.6,1.6h7.1
		c0.4-1.4,1.7-1.5,2.9-2.1c-0.1,0.7-0.1,1.4-0.2,2.1h1c0-0.7-0.1-1.4,0-2.1c0-0.4,0.2-0.9,0.5-1.1c1.6-1.2,3.1-2.5,4.9-3.5
		c2.2-1.4,3.9-3.4,5-5.7c1-2.2,2-4.4,3-6.5c1.2-2.4,2.2-4.7,3.6-7c1.1-1.9,2.6-3.6,3.7-5.5c2.9-4.6,5.7-9.4,8.7-14.1
		c2.5-4.1,5-8.1,7.1-12.4C554.8,317.4,555.1,315,555,312.7z M440.3,251.1c-2.5,0.7-4.9,1.5-7.2,2.5c-1.4,0.5-2.6,1.4-3.9,2.1
		c-2,1.1-4.1,1.5-6.4,1.7c-0.2,0-0.5-0.1-0.6,0c-0.2,0.1-0.5,0.4-0.7,0.5c0.2,0.2,0.5,0.6,0.7,0.6c1-0.1,2.1-0.2,3.1-0.4
		c0.6-0.1,1.1-0.2,1.7-0.4c0.2,1.1,0,2-0.4,2.6c-0.6,0.9-1.1,2-1.9,2.7c-1,0.9-2.2,1.9-3.5,2.4c-1.6,0.6-3.4,0.9-5.1,1.2
		c-1.2,0.2-2-0.2-2.7-1.2c-1.1-1.6-2.5-3.1-3.6-4.9c-0.6-0.9-0.9-2-1.2-3.1c0.9-0.1,1.6-0.2,2.4-0.2v-0.4c-0.6-0.1-1.1-0.4-1.7-0.4
		c-0.6,0-0.9-0.2-1-0.7c-0.5-1.9-1.1-3.7-1.7-5.6c-0.6-2,0.2-5.7,1.9-7c0.4-0.4,0.6-0.9,1-1.1c0.7-0.6,1.6-1.4,2.5-1.6
		c3-1,6-1.7,9-2.4c4.7-0.9,9.5-1.4,14.4-0.7c4.1,0.5,8,0,12-0.7c1.6-0.2,3.4-0.2,5-0.4c3.1-0.2,6.2-0.2,9.2-0.7
		c1.4-0.1,2.5-0.4,3.7-0.1c1.9,0.4,3.5-0.9,4-2.6c0.2-0.9,0.6-1.7,1.7-1.9c0.2,0,0.5-0.4,0.9-0.7c0.2,1.5,0.6,2.7,0.7,4.1
		c0.2,1.5,0.4,3,0.5,4.5c0.1,1.4-0.5,2.4-1.4,3.4c-1.4,1.5-3.2,2.2-5.1,3c-0.1,0.1-0.4,0.1-0.5,0.2c-0.2,0.2-0.4,0.4-0.5,0.6
		c0.2,0.1,0.5,0.4,0.7,0.2c1.2-0.5,2.4-1,3.6-1.5c0.2-0.1,0.5-0.2,0.7-0.2c-0.6,1.4-1.4,2.5-2.7,3.1c-2,1-4.1,0.7-6.1,0.7
		c-2.1,0-4.2-0.1-6.4,0c-2,0.1-4,0.1-5.9,0.5C446.4,249.4,443.3,250.2,440.3,251.1z M451.1,251.3H444c-0.4,0-0.7,0-1.1-0.1
		c3.9-1.2,8-1.9,12.1-1.5C453.9,250.6,452.8,251.4,451.1,251.3z M493.2,276.3c-0.9,0.7-1.7,1.6-2.7,2.2c-1,0.6-2,1.2-3.1,1.6
		c-2,0.7-4,1.6-6,2.1c-4.5,1.2-8.6,0.1-12.6-2.1c-2.7-1.6-4.9-3.9-6.5-6.5c-2-3.1-3.7-6.4-4.7-10c-0.4-1.5-1.1-2.9-1.6-4.4
		c-0.2-0.5-0.4-1.1-0.5-1.6c-0.4-2-0.6-4.1-1-6.1c-0.1-0.7,0.4-1.1,1-1.1c0.6,2,1,3.9,1.7,5.4c0.5,1.7,1,3.5,1.6,5.1
		c1.2,3.2,2.5,6.5,4,9.7c1,2.4,2.9,4,4.9,5.5c0.6,0.5,1.1,1,1.9,1.4c1,0.5,2.1,0.9,3.2,1.2c0.5,0.2,0.9,0.2,1.2,0.4
		c3.5,1.4,6.9,1.4,10.4,0c2.6-1,4.9-2.5,6.9-4.4c2.4-2.2,3.9-5.1,4.9-8.1c0.2-0.9,0.1-1.9,0.1-2.9c-0.1-2.5-0.4-4.9-0.6-7.4v-1.1
		c0.9,0.9,1.9,1.1,1.9,2.5c0.1,2.9,0.4,5.6,0.5,8.5C498.1,270.4,496.1,273.5,493.2,276.3z M507.1,234.1c-0.4,0.9-1,1.5-1.9,2
		c-1.2,0.7-2.6,1.6-3.7,2.6c-1.4,1.2-2.6,2.7-4,4c-1.1,1-2.4,2-3.6,2.9c-1.7,1.1-3.7,1.1-5.5,0c-1.4-0.9-2.7-2-4.1-3.1
		c-0.7-0.5-1.1-1.4-1.7-2c-0.4-0.5-0.7-1-1.2-1.4c-0.4-0.2-0.7-0.1-1.1-0.2c0,0-0.1,0.1-0.1,0.2c0.1,0.2,0.2,0.5,0.4,0.6
		c0.6,0.7,1.2,1.5,1.9,2.2c0.6,0.6,1.2,1.2,1.9,1.7c0.9,0.7,1,0.9,0.2,1.9c-0.2,0.4-0.6,0.7-0.9,1.1c-0.2,0.4-0.5,1-0.7,1.5
		c0.1,0,0.1,0.1,0.2,0.2c0.6-0.1,1.1-0.2,1.7-0.4c-0.6-1.5,0.9-1.7,1.2-2.7c0.9,0.6,1.6,1.1,2.4,1.7c0.1,0.2,0.1,0.6,0.1,1
		c0.1,1.9,0,3.7,0.1,5.6c0,0.4,0.4,1,0.7,1.2c1,0.9,2,1.6,3.1,2.5c0.1,0.2,0.4,0.4,0.7,0.6c-0.4,0-0.6,0.1-0.9,0.1
		c-1.9,0-3.4,0.6-5,1.2c-1.1,0.4-2.2,0.6-3.4,0.9c-0.6,0.1-1.4,0.2-2,0.4c-0.9,0.1-1,0.5-0.5,1.2c1.1-0.1,2.2-0.2,3.2-0.5
		c1.1-0.4,2.2-0.7,3.4-1.1c1.4-0.5,2.6-1,4-0.6c0.1,0,0.1,0,0.2,0c2,0.1,2,0.1,2.1,2.1v4.6c0,0.2,0,0.5-0.1,0.7
		c-0.9,1.9-1.7,3.6-2.5,5.5c-0.7,1.6-2.4,2.2-3.6,3.1c-1.4,1-2.9,1.9-4.5,2.6c-3.1,1.5-6.4,1.4-9.6,0.1c-0.4-0.1-0.9-0.2-1.2-0.4
		c-1-0.4-2-0.5-2.7-1c-2.1-1.5-4.4-3.1-5.9-5.4c-0.2-0.4-0.5-0.6-0.6-1c-1-2.4-2-4.7-2.9-7.1c-0.2-0.9-0.1-1.1,0.9-1
		c1.5,0.1,2.9,0,4.1-0.9c0.6-0.5,1.1-0.4,1.5,0.2c0.9,1.5,2.5,2.2,4.1,2.2c1.7,0,3.4-0.6,5.1-1.1c0.2-0.1,0.4-0.6,0.6-1.2
		c-0.7,0-1.1,0-1.5,0.1c-0.4,0.1-0.6,0.4-1,0.4c-0.5,0.1-1.1,0.1-1.6,0.1c0.1-0.5,0.1-1.1,0.4-1.5c0.9-1.5,1.7-3,2.6-4.5
		c0.2-0.5,0.7-0.9,0.1-1.2c-0.2-0.1-0.9,0.2-1.1,0.6c-0.9,1.1-1.5,2.4-2.2,3.6c-0.1,0.2-0.4,0.5-0.6,0.7c-0.6-2.4-0.4-4.7-0.5-7.4
		c-0.9,0.6-1.2,1.2-1.2,2.1c0.1,2,0.4,4.1,0.5,6.1c0,0.5,0.1,0.9,0.1,1.5c-0.5-0.2-1-0.2-1.4-0.5c-0.4-0.2-0.6-0.6-1-1
		c-1.1-1.4-2.1-1.5-3.6-0.5c-1.4,1-2.9,0.5-4.4,0.5c-0.2,0-0.4-0.2-0.5-0.5c-1-3.4-2-6.6-3-10c-0.4-1.2-0.1-1.4,1.1-1.4
		c2.1,0,4.2,0.1,6.2,0c1.4-0.1,2.7-0.5,4-1c1.4-0.5,2.5-1.2,2.9-2.9c0.4-1.4,1.1-2.6,1.9-3.9c0.9-1.5,0.9-3.2,0.6-4.9
		c-0.2-2.1-0.5-4.4-0.9-6.5c-0.1-0.7,0.1-1.2,0.6-1.7c2.7-2.5,4.5-5.9,6.1-9.2c0.5-0.9,0.9-1.9,1.4-2.6c0.2-0.4,0.9-0.6,1.4-0.9
		c0.4-0.2,1-0.4,1.4-0.7c1.1-1.2,2.1-2.7,3.2-4c1.4-1.4,2.9-2.6,4.6-3.5c1.1-0.5,2.2-1.2,2.9-2.5c0.2-0.6,0.7-1,1.2-1.5
		c0.2-0.2,0.3-0.3,0.5-0.5c2.6-1,5.1-2.2,7.4-3.7c1.3-0.6,2.7-1.1,4.1-1.7c0.4-0.1,0.9,0,1.1,0.1c1.1,1.1,2.2,2.1,3.2,3.4
		c0.9,1.1,1.5,2.4,2,3.6c1.1,3.1,2.1,6.5,1.9,9.9c-0.1,1.6-0.5,3.1-0.7,4.9c-0.7-0.2-1.4-0.4-2.6-0.2c-1.5-0.5-2.9,0-4.2,0.5
		c-1.2,0.5-2.6,2.4-2.6,3.7c-0.1,2.1-0.2,4.4-0.4,6.5c-0.1,2-2,2.7-3.7,1.7c0.5-0.9,0.4-1.5-0.5-1.9c-0.7-0.4-1.5-0.6-2.4-0.4
		c-0.4,0.1-1.1-0.1-1.5-0.5c-0.2-0.1-0.1-1,0.1-1.4c0.4-0.5,0.9-1,1.2-1.4c-0.4-0.4-1.1-0.2-1.5,0.6c-0.7,1.7-0.6,3.1,1.7,3.2
		c0.9,0.1,1.9,0.1,2.2,1.5c0.2,1,1.6,1.4,2.9,1.1c1.2-0.4,2.1-1.2,2.2-2.5c0.1-1.7,0.4-3.6,0.5-5.5c0.4,0.4,0.7,0.9,1.1,1.2
		c0.2,0.2,0.4,0.5,0.6,0.7c0.2,0.4,1,0.6,1,0.9c0,0.6-0.2,1.2-0.5,1.7C508.4,230.9,507.7,232.4,507.1,234.1z M494,256.3
		c-1.6-0.5-3.9-2.6-3.9-3.7c1.1,0.7,2.2,1.4,3.2,2C494,254.9,494.2,255.6,494,256.3z M514.6,222.3c-0.5,1.4-1.7,2-2.6,2.9
		c-0.5,0.5-0.9,0.9-1.4,1.2c-0.1,0.2-0.5,0.2-0.7,0.2c-0.1-0.1-0.1-0.1-0.1-0.2c0.2-0.1,0.4-0.4,1-0.9c-1-1.1-2.1-2.1-3.1-3.2
		c-0.2,0.1-0.4,0.1-0.5,0.2c0.4-0.6,0.7-1.4,1.4-1.9c0.5-0.4,1.1-0.7,1.7-0.7c1.2,0,2.5,0.2,3.6,0.6
		C514.9,220.8,514.9,221.4,514.6,222.3z M506,333c0.1-6.9,0.4-13.7,0.7-20.5c0.1-3.1,0.7-6.2,1.4-9.2c0.7-3.7,1.7-7.5,2.7-11.2
		c0.2-0.7,0.6-1.5,0.9-2.1c0.2-0.7,0.6-0.7,1.1-0.1c0.6,0.7,1.4,1.4,2.1,2.1c2.1,2,4.2,3.9,6.2,6c2.6,2.7,5.1,5.7,7.7,8.6
		c1.1,1.2,2.2,2.5,3.2,3.7c0.4,0.4,0.6,0.9,0.9,1.4c0.4,0.5,0.6,1.4,1.6,0.9h0.1c1,0.1,2.6,2.9,2.1,3.7c-0.2,0.4-0.5,0.9-0.7,1.1
		c-2.4,2.4-3.4,5.4-4.2,8.5c-1.2,4-2.6,7.7-4.5,11.4c-1.5,2.9-3.4,5.6-5,8.4c-0.7,1.4-1.5,2.9-2.4,4.4c-1,1.5-2,3.1-3,4.6
		c-1.4-0.9-2.1-1.9-2-3.4c0.1-1-0.7-1.6-1.5-2.2c-0.5-0.4-1.1-0.9-1.5-1.5c-0.7-1.4-1.9-2-3.4-1.7c-0.9,0.1-1.2-0.1-1.4-1
		c-0.2-1.6-0.5-3.4-0.7-5.1C506.4,337.4,506,335.3,506,333z M509.1,348.1c0.6,0.4,0.6,0.6,0.1,1c-0.7,0.6-1.6,0.9-2.6,0.4
		C507.2,347.9,507.9,347.6,509.1,348.1z M499,367.3c0.7,0.4,0.5,1,0.5,1.4c-0.7,0.5-1.4,0.7-2,1.1c-0.2,0.1-0.6,0.2-0.7,0.1
		c-0.1-0.1-0.2-0.6-0.2-0.9C496.6,367.6,498,366.8,499,367.3z M499.5,374.6c-0.4,0.4-1.1,0.5-1.5,0.6c-0.7,0-1.6-0.9-1.5-1.5
		c0-0.1,0.1-0.4,0.2-0.4c0.7-0.2,1.5-0.4,2.2-0.5c0.4,0,0.7,0.2,1.1,0.4C499.9,373.8,499.9,374.4,499.5,374.6z M501.2,377.4
		c-0.6,0-1.2-0.9-1.2-1.6c0-0.7,0.6-1.1,1.4-1.1c0.9-0.1,1.6,0.5,1.6,1.2C503,376.5,502,377.4,501.2,377.4z M552.3,320
		c-1.6,3.1-3.2,6.2-5.5,9c-0.2,0.2-0.5,0.6-0.6,0.9c-1.5,2.7-3.1,5.4-4.6,8.1c-2.5,4.7-5.5,9.1-8.6,13.5c-0.2,0.4-0.6,0.9-0.7,1.2
		c-1,2.2-2.1,4.2-3.5,6.2c-0.7,1-0.9,2.5-1.5,3.6c-1,1.9-1.9,3.7-3,5.5c-0.6,0.9-1.9,1.5-2.9,2.2c-1.4,1-2.7,2-4.2,2.9
		c-0.9,0.5-2,1-2.9,1.5c-0.9,0.5-1.6,1.1-2.5,1.7c-1.4,1-2.9,0.9-4.4,0.9c-0.2,0-0.5,0-0.6-0.1c-0.2-0.2-0.5-0.6-0.7-1
		c0.4-0.2,0.7-0.4,1.1-0.6c1.1-0.6,2.1-1.2,3.2-1.9c1.6-0.9,3.1-1.6,4.6-2.5c0.5-0.2,0.9-0.9,1.4-1.1c0.9-0.5,1.9-0.9,2.7-1.2
		c0.2-0.1,0.5-0.4,0.9-0.6c-0.2-0.1-0.4-0.2-0.5-0.2c-1.6,0.4-3.1,0.7-4.4,1.9c-0.2,0.1-0.4,0.5-0.5,0.7c-0.1,0.1-0.1,0.2-0.2,0.2
		c-1.2,0.5-2.5,1-3.7,1.6c-0.4,0.1-0.7,0.6-1.2,0.9c-0.6,0.4-1.2,0.9-1.9,1.1c-1.1,0.5-2.2,0.7-3.2,1.1c-0.7-0.6-1.5-1.2-2.2-2
		c0.6-0.4,1.2-0.7,2-1.2c1.6-1,3.4-2.1,5-3.1c0.6-0.4,1.2-0.4,1.7,0.4c0.4,0.5,0.7,0.9,1.1,1.2c0-1.1-0.6-1.7-1.7-2.5
		c2.1-1.4,4.1-2.6,6.1-3.9c0-0.1-0.1-0.1-0.1-0.2c-0.4,0.1-0.9,0.1-1.2,0.4c-1.7,1.1-3.4,2.2-5.1,3.4c-2.2,1.4-4.5,2.9-6.7,4.2
		c-0.6,0.5-1.2,0.7-1.7,1.1c-0.5-0.4-1-1-1.6-1.1s-1.4,0.2-2.2,0.4c0.6-0.6,1.1-1.2,1.7-1.7c1.1-0.9,2.2-1.7,3.4-2.6
		c1.2-1,2.5-2,3.9-2.9c0.2-0.1,0.7,0,0.9,0.1c0.5,0.6,1,1.2,1.5,1.9c-0.1-1.1-0.5-2.1-1.6-2.7c2.4-1.5,4.6-2.9,6.6-4.1
		c0.1-0.1,0.2-0.4,0.4-0.5c-0.2,0-0.5-0.1-0.6,0c-2.2,1.5-4.6,2.9-7,4.4c-0.7,0.5-1.5,1.2-2.4,1.9c-1.2,0.9-2.5,1.6-3.6,2.4
		c-0.6-0.9-1.1-1.6-1.9-2.5c1.1-1,2.5-2,3.9-3.1c0.7-0.5,1.5-1.1,2.2-1.7c1-0.9,1.1-0.9,2,0c0.1,0.2,0.4,0.2,0.5,0.4
		c0.1-0.1,0.1-0.1,0.2-0.2c-0.4-0.5-0.6-1-1.1-1.7c1.2-1.1,2.5-2.2,3.9-3.5c0.2-0.2,0.5-0.4,0.6-0.6c0.5-1,1-2.1,1.4-3.1
		c0.1-0.1,0-0.4-0.2-0.6c-0.2,0.5-0.5,1-0.9,1.6c-0.4-0.6-0.7-1.1-1-1.5c0.5-0.7,1-1.5,1.6-2.5c-0.5,0.1-0.9,0-0.9,0.1
		c-0.5,1.1-1.9,1-2.7,1.6c-0.6,0.5-1.4,0-1.5-0.7c1.1,0.2,2.2,0,3.1-0.6c0.7-0.6,0.6-1.5-0.2-1.9c-0.4-0.1-0.7-0.4-1.1-0.5
		c1-0.7,1.7-0.6,2.4,0.2c0.9,1.1,1.6,2.4,2.9,3.1c0.2,0.2,0.4,0.7,0.4,1.1c0.1,1.2,0.5,2.2,1.5,3c0.1,0.1,0.2,0.2,0.4,0.4
		c0.6,1,1.2,1.4,2.4,0.6c0.7-0.5,3.6,0.9,4.4,1.9c0.2,0.2,0.5,0.6,0.9,1.1c0.2-1.1-0.4-1.6-0.9-2.1s-1.2-0.7-1.9-1
		c-0.6-0.2-1.4-0.5-2-0.6c2.5-4.2,5.1-8.6,7.7-12.9c3-4.7,5-10,6.7-15.4c1.1-3.4,2.2-6.9,4.9-9.5c1-1.1,2.5-1.7,3.9-2.5
		c0.5-0.4,1.1-0.5,1.7-0.6c0.2-0.1,0.5,0.1,0.7,0.1c0.2,0,0.6-0.1,0.7-0.2c0.1-0.4,0.1-0.7,0.2-1.2c-0.5-0.5-1.2-0.5-2-0.2
		c-1.5,0.5-2.9,1.1-4.4,1.6c-1.1,0.4-1.1-0.7-1.5-1.2c-0.4-0.6,0.1-0.9,0.6-1c2.9-1.1,5.6-2.5,8-4.4c0.6-0.5,1.2-1.4,1.7-2.1
		c0.4-0.6,0.7-1.2,1.2-2.2c0.7,0.7,1.5,1.4,1.9,2.1c0.7,1.4,1.5,2.9,2,4.4C554.1,313.3,554.1,316.7,552.3,320z"/>
	<path class="st0" d="M468.7,377.9c-1-0.7-2-1.5-2.9-2.2c-1.7-1.5-3.5-3-5.1-4.5c-2.2-2.1-4.6-4.1-7.4-5.7c-1-0.5-2.1-0.7-3.2-1.1
		c0-0.5,0.6-0.7,1.5-0.5c2.2,0.6,4,2,5.7,3.4c2,1.6,3.9,3.4,5.9,5.1c0.7,0.7,1.5,1.5,2.2,2.2c1.1,0.9,2.2,1.6,3.4,2.5
		c0.5,0.4,0.7,0.7,1.2,1.1C469.6,377.9,469.1,377.9,468.7,377.9z"/>
	<path class="st0" d="M496.2,208.6c2.1,0.6,4.2,1.1,5.9,2.2c1.4,1,2.6,1.9,3.2,3.6c0.1,0.2,0.2,0.6,0.2,0.9s-0.1,0.5-0.2,0.6
		c-0.2,0.1-0.6,0.1-0.9,0c-0.4-0.2-0.6-0.6-0.7-1c-1.2-2.7-3.6-3.9-6.4-4.6c-0.4-0.1-0.9-0.1-1.2-0.4c-0.2-0.1-0.5-0.5-0.6-0.7
		C495.7,209,496,208.8,496.2,208.6z"/>
	<path class="st0" d="M492.1,232.6c1.1,0,2,0,2.9,0v0.1c-0.6,0.1-1.1,0.2-1.9,0.4c2.6,1.2,5.4,2.1,7.1,4.6c0.9-0.2,1.1-1,1-1.7
		c-0.1-0.5-0.6-1-1-1.5c-0.1-0.1-0.4,0-0.4-0.1c-0.9-1.6-2.5-1.5-4-1.7c1.4-0.1,3.2,0.1,3.9,1.1c0.1,0.2,0.5,0.4,0.7,0.5
		c0.9,0.4,1.2,1.1,1.1,1.9c0,0.7-0.1,1.6-1.1,1.9c-0.2,0.1-0.5,0.5-0.6,0.7c-0.7,1-2,1.1-3,0.4c-1.7-1.5-2.9-3.4-3.9-5.4
		C492.6,233.3,492.5,233.1,492.1,232.6z M493.1,233.6c0,0.1,0,0.2,0,0.4c1.1,2,2.4,3.9,4.1,5.1c0.5,0.4,1.5,0.1,2-0.4
		c0.5-0.6,0.6-1.2,0-1.6c-1.1-0.9-2.2-1.7-3.4-2.4C495.1,234.2,494.1,233.9,493.1,233.6z"/>
	<path class="st0" d="M494.1,214.8c0.7-0.2,1.1-0.2,1.7,0.4c0.9,0.9,2,1.4,3,2c0.9,0.5,1.6,1,2.5,1.6
		C498.4,218.8,497.1,218.7,494.1,214.8z"/>
	<path class="st0" d="M497.6,213.9c1.5,0.2,2.7,1,3.6,2.2c0.5,0.6,0.9,1.4,0.5,2.2C501.4,216.1,499.6,214.9,497.6,213.9z"/>
</g>
</svg>
