<?xml version="1.0" encoding="utf-8"?>
<!-- Generator: Adobe Illustrator 18.1.1, SVG Export Plug-In . SVG Version: 6.00 Build 0)  -->
<!DOCTYPE svg PUBLIC "-//W3C//DTD SVG 1.1//EN" "http://www.w3.org/Graphics/SVG/1.1/DTD/svg11.dtd">
<svg version="1.1" id="Layer_1" xmlns="http://www.w3.org/2000/svg" xmlns:xlink="http://www.w3.org/1999/xlink" x="0px" y="0px"
	 viewBox="405.3 200.7 150 162.6" style="enable-background:new 405.3 200.7 150 162.6;" xml:space="preserve">
<style type="text/css">
	.st0{fill:#E91E63;}
</style>
<g id="sorethroat-lady">
	<path class="st0" d="M555,349.5c0.1-2.9,0.2-5.6,0.2-8.5c0.1-5.5-0.1-11-1-16.5l-1.5-9.4c-0.5-2.4-1.1-4.7-2.5-6.7
		c-1.7-2.7-3.9-5.2-6.5-7.2c-2.2-1.7-4.9-2.7-7.7-2.7c-4.6,0-9.1,0.1-13.7,0c-2.2,0-4.5-0.2-6.6-1.4c-2-1-3.1-2.2-3-4.6
		c0.1-3.9,1.1-7.5,2.4-11.1c0.5-1.5,1.4-2.9,1.9-4.5c0.7-2.5,1.2-5,1.9-7.5c0.2-0.7,0.5-1.6,0.7-2.4c0.5-1.5,1.1-3.1,1.5-4.7
		c0.2-1.1,0.2-2.4,0.4-3.6c0.2-3.5,0.6-6.9,0.7-10.4c0.1-1.7-0.1-3.6-0.4-5.4c-0.2-2.2-0.5-4.5-1-6.7c-0.5-2.2-1.1-4.4-2-6.5
		c-0.7-2.1-1.9-4.1-3-6.1c-1.2-2.4-2.7-4.6-3.9-7c-1.2-2.6-3.1-4.6-5.2-6.5c-1.6-1.5-3.5-2.6-5.4-3.7c-2.5-1.5-5-2.7-7.5-4.1
		c-2.1-1.1-4.4-1.6-6.7-1.4c-1.1,0.1-2.2,0.1-3.4,0.2c-1.7,0.2-3.4,0.6-4.9,1.7c-0.6,0.5-1.5,1-2.2,1.1c-1.7,0.2-3.5,0.1-5.2,0.2
		c-1.1,0.1-2.2,0.5-3.4,0.9c-1.1,0.5-2.2,1.2-3.5,1.9c-3.7,1.7-6.6,4.4-8.7,7.9c-1.4,2.4-2.6,4.7-3.7,7.2c-1.2,2.9-2.4,5.7-3.6,8.7
		c-1.6,3.9-2.5,7.9-2.5,12.1c0,3.2,0.1,6.6,0.1,9.9c-0.1,4.9-0.2,9.9-0.2,14.7c0,6,0.2,12,0.2,18.1c0,1.5-0.2,2.9-0.4,4.4
		c-0.2,1.4-0.6,2.9-0.6,4.4c-0.1,1.9,0.1,3.7,0.1,5.6c0,0.4-0.1,1-0.4,1.1c-1.1,0.5-2.2,1.2-3.4,1.4c-1.7,0.2-3.6,0.1-5.4-0.1
		c-2.1-0.2-4.2-0.6-6.4,0.1c-2.7,1-5.7,0.9-8.7,0.9c-0.5-0.1-1.1,0-1.5,0.2c-2.2,1.1-3.9,2.9-5.5,4.7c-1.1,1.4-2.1,3.1-2.9,4.7
		c-1.6,3.5-2.6,7.2-2.7,11.2c0,5,0,10.1-0.6,15.1c-0.4,2-0.5,4.1-0.7,6.2c-0.4,3.7-0.7,7.4-1.1,11c-0.2,2,0.2,4-0.5,6
		c0.7,0,1.5,0,1.7,0.7c-0.1-2.7-0.4-5.5-0.2-8.1c0.1-2.7,0.6-5.5,1-8.2c0.2-2,0.6-4.1,0.7-6.1c0.2-3,0.5-5.9,0.6-8.9
		c0.1-2,0.2-4.1,0.1-6.2c-0.1-2.6,0.5-5.2,1.2-7.7c0.9-2.9,1.9-5.5,3.7-7.7c1.2-1.5,2.7-2.9,4.4-4.1c0.7-0.6,2-0.6,3-0.7
		c3.5-0.4,7-0.6,10.5-0.9c2.1-0.1,4.1-0.1,6.2,0c0.4,0,0.7,0.5,0.9,0.9c2.6,5.6,5.1,11.1,7.7,16.7c1.7,4,3.6,8.1,5.5,12.1
		c0.4,0.9,0.2,1.6-0.1,2.4c-2.1,4.4-4.2,8.9-6.5,13.2c-1.2,2.5-2.9,4.7-4.4,7.1c-0.7,1.1-1.4,2.2-2.1,3.4H439
		c-0.1-0.4-0.2-0.9-0.1-1.2c0.2-0.7,0.2-1.2-0.2-1.9c-0.2-0.4-0.2-1.1-0.4-1.7c-0.5-1.9-1.1-3.6-1.5-5.5c-0.4-2.2-0.6-4.6-1-6.9
		c-0.2-1.4-0.6-2.6-0.9-4c-0.4-1.9-0.6-3.9-0.9-5.7c-0.4-3.5-0.7-6.9-2-10.1c-0.6-1.6-1-3.4-1.5-5.1c-0.6-2.4-2.2-4-3.6-5.9
		c-0.6-0.7-1.2-1.6-2-2.4c-0.6-0.6-0.9-0.6-1.5-0.1c3.1,3.2,6,6.6,7.1,11.2c0.6,2.6,1.4,5.1,2,7.7c0.2,0.6,0.2,1.4,0.4,2.1
		c0.2,2.5,0.5,5,0.7,7.6c-1.6-5.6-6-9-10.1-12.5c-0.1,0.1-0.2,0.1-0.4,0.2c0.2,0.4,0.4,0.7,0.6,1c1.6,1.6,3.4,3.1,5.1,4.7
		c0.2,0.2,0.5,0.4,0.6,0.6c1.9,3.4,4.1,6.6,5.1,10.5c0.5,1.6,0.6,3.4,0.9,5.1c0.1,0.9,0.4,1.9,0.6,2.9c0.9,3.4,1.7,6.6,1.9,10.1
		c0,0.7,0.1,1.4-0.5,1.9h1.6c0.9-1.5,1.7-3.1,2.6-4.6c1-1.6,2-3.2,3.1-4.9c0.4-0.5,1-0.7,1.4-1.2c0.1-0.2,0.4-0.6,0.5-0.9
		c1.7-3.9,3.2-7.7,5.2-11.5c1.7-3.4,3.2-6.7,4.1-10.5c1-4.4,1.7-8.9,2.6-13.2c0.4-1.9,1-3.6,2.4-5.2c0.9,2,1.9,3.9,2.6,5.7
		c1.1,3,3,5.5,5.5,7.5c1.5,1.1,2.9,2.4,4.2,3.6c2,2,4.1,3.6,7.1,4.7c-1.7,1.6-3.4,3-5,4.4c-1.1,0.9-2.7,1.5-3,3.1
		c-0.6,3.6-2.5,6.5-4.2,9.6c-1.2,2.1-1.7,4.6-2.6,7c-0.7,2.1-1.7,4.2-2.6,6.4h1.2c0.2-0.9,0.6-1.6,1-2.5c0.2-0.4,0.4-0.7,0.5-1.2
		c0.2-0.6,0.2-1.4,0.5-2c0.7-2,1.5-3.9,2.4-5.7c0.2-0.4,0.4-0.6,1-0.6c3.9,0.1,7.6,0,11.5,0c1.5,0,3,0.1,4.5-0.2
		c1.7-0.4,3.4-1,5-1.7c1.2-0.6,1.1-0.7,1.7,0.5c0.9,1.9,1.9,3.7,2.5,5.6c0.6,2.4,1,4.7,1.5,7.1c0,0.2,0.1,0.6,0.1,0.9h1
		c-0.5-2-1-4-1.4-6c-0.5-3-1.7-5.6-2.7-8.4c-0.4-1.1-1.2-1.9-1.6-2.9c-0.6-1.9-1.2-3.7-2-5.5c-0.7-2-1.5-4-2.6-5.7
		c-0.5-0.9-1.6-1.6-2.6-2.1c-2.6-1.4-5.4-2.2-7.7-3.9c-2.6-1.9-4.9-4.2-7.2-6.5c-0.4-0.4-0.7-0.7-1.2-1.1c-1.9-1.4-2.7-3.4-3.6-5.5
		c-0.5-1.4-1.1-2.6-1.7-3.9c-0.9-1.7-1-3.5-0.6-5.4c0.2-0.9,0.6-1.5,1.4-1.7c0.4,1.4,0.9,2.6,1.4,3.7c0.1,0.5,0.6,0.7,0.9,1.1
		c0.5,0.6,1,1.4,1.5,2c0.4,0.5,0.7,1.1,1.1,1.6c0.2,0.2,0.6,0.5,0.7,0.4c0.2-0.2,0.6-0.6,0.5-0.9c-0.2-0.9-0.4-1.5-1.2-2.2
		c-1.4-1.1-2.5-2.7-3.1-4.4c-0.7-2-1.1-4.4-1.5-6.5c-0.1-0.7-0.1-1.6-0.1-2.5c0-0.1,0.2-0.5,0.4-0.5c0.2,0,0.5,0.1,0.6,0.2
		c1.6,1.9,3.2,3.7,4.7,5.7c0.7,1.1,1.2,2.5,1.9,3.7c0.1,0.2,0.5,0.5,0.7,0.7c0.1-0.4,0.5-0.9,0.4-1.1c-0.7-1.6-1.5-3.2-2.6-4.6
		c-2.6-3.1-5.1-6.1-6.7-9.9c-0.2-0.9-0.9-1.6-1.2-2.4c-0.2-0.5-0.2-1-0.4-1.5c0-0.1,0.1-0.1,0.2-0.2c0.2,0.1,0.6,0.2,0.9,0.5
		c1.4,1.2,2.6,2.6,3.9,4c1.5,1.6,2.7,3.5,4.4,4.9c1.2,1.1,3,1.7,4.5,2.5c0.7,0.4,1.6,0.7,2.5,1.1c0.1,0.1,0.5,0.1,0.7,0.1
		c0-0.4,0-0.9-0.1-1c-0.7-0.5-1.5-0.7-2.2-1.1c-1.6-0.9-3.5-1.4-4.7-2.6c-2.9-2.6-5.4-5.5-7.9-8.4c-0.7-0.9-1.2-1.9-1.9-2.9
		c-0.4-0.6,0-1.9,0.6-2.1c0.9-0.4,1.4,0.2,1.9,0.9c1.4,1.6,2.5,3.4,4,4.9c1.9,1.9,3.9,3.7,6,5.2c1.6,1.1,3.6,1.6,5.5,2.2
		c1.2,0.4,2.7,0.4,4.1,0.7c0.5,0.1,0.9,0.6,1.4,0.9c2.4,1.2,4.7,2.5,7,3.7c0.5,0.2,0.9,0.9,1.2,1.2c0.2,0.4,0.6,0.5,1,0.7
		c0.1-0.4,0.2-0.7,0.2-1.1c-0.9-6.4,1.7-11.6,5.6-16.4c0.5-0.5,0.9-1,1.5-1.6c0.6,2.2,1.2,4.2,0.7,6.4c-1,4.2-2.2,8.5-3.2,12.7
		c-0.5,2.2-0.1,4.4,0.6,6.5c0.6,1.6,0.9,3.4,0.9,5.1c0,2,0.2,3.7,1.4,5.6c1.5,2.5,2.4,5.2,3.6,7.9c1.2,2.5,2.5,5,3.7,7.5
		c1.6,3.4,3.2,6.7,5,10.1c1.4,2.6,3,5.4,4.5,8c0.1,0.1,0.2,0.2,0.4,0.4c2.6,2.1,4.2,5,5.7,7.9c0.2,0.4,0.4,0.6,0.6,1h1.9
		c0-0.2-0.1-0.5-0.2-0.7c-1-1.7-2.1-3.4-3-5.1c-0.4-0.9-0.2-2,0-3c0.6-2.5,1.2-5,2.1-7.4c0.6-2,1.7-3.7,2.4-5.7
		c0.6-1.6,0.9-3.4,1.4-5.1c0.2-0.9,0.7-1.5,1.4-2.1c1.4-1.5,2.7-3.1,4-4.7c2.2-3.1,4.5-6.4,6.7-9.5c1.5-2.2,3.5-4,5.5-5.7
		c0.1-0.2,0.1-0.6,0.2-1c-0.2,0-0.7-0.1-0.9,0c-1,0.9-2,1.5-2.7,2.5c-2.7,3.6-5.7,7.1-8.2,10.9c-1.5,2.2-3.2,4.2-4.9,6.4
		c-0.2,0.2-0.5,0.4-0.7,0.6h-0.4v-2c0.1-0.7,0.1-1.6,0.2-2.4c0.2-2.1,0.5-4.1,0.7-6.1c0.1-1.4,0.4-2.7,0.5-4.1
		c0-0.1-0.2-0.4-0.4-0.5c-0.1,0-0.4,0-0.5,0.1c-0.1,0.2-0.4,0.6-0.4,0.9c-0.4,2.2-0.6,4.4-0.9,6.6c-0.1,2-0.4,3.9-0.4,5.7
		c0,2.6-0.7,5.1-1.2,7.6c-0.5,2.4-1.5,4.5-2.5,6.7c-0.6,1.4-0.7,3-1.1,4.5c-0.5,1.6-1,3.2-1.5,4.9c-0.1,0-0.2,0.1-0.4,0
		c-1.5-1.7-3.1-3.4-4.1-5.5c-1-2.2-2.1-4.4-3.2-6.5c-0.4-0.7-0.7-1.6-1.2-2.2c-0.7-1,0.1-1.5,0.6-2.1c1-1.2,2.1-2.4,3-3.7
		c0.9-1.4,1.9-2.9,2.4-4.5c0.6-1.7,0.7-3.6,1-5.4c0.1-1.4,0.4-2.6,0.5-4c0-0.2,0.1-0.6,0-1c-0.5-1.8-1-3.5-1.5-5.4
		c-0.2-0.8-0.4-1.6-0.7-2.3c-0.2-0.6-0.4-1.3-0.6-1.9c-0.2-0.9-1.1-1.7-1.6-2.6c-0.7-1.4-1.6-2.7-2.2-4.2c-0.5-1.1-1-2.5-1.5-3.7
		c-0.2-0.7-0.4-1.6-0.6-2.4c0.2-0.1,0.4-0.1,0.4-0.1c3.6,2.1,7.5,2.7,11.6,2.2c1.1-0.1,2.1,0.2,3.2,0.2c2,0,4.1-0.1,6.1-0.2
		c3.1-0.2,6,0,8.4,2.4c0.7,0.9,1.6,1.5,2.5,2.1c4,3.1,5.6,7.4,6.2,12.2c0.4,2.5,0.6,5,1.2,7.5c0.9,3.9,1.2,7.7,1.2,11.7v14.7
		c-0.2,0-0.5-0.1-0.9-0.2c0.6,2.5,1.2,4.9,1,7.4c-0.2,2-0.4,3.9-0.5,5.7h1.9c-0.1-1.6-0.2-3.2-0.4-5c-0.1-1.1,0.1-2.2,0.1-3.4V349.5
		z M489.9,343.8c0,0,0.1,0,0.2,0c0.4,0.7,0.7,1.6,1.4,2.6c0.2,0.6,0.1,1-0.4,1.2c-2,1-4,2-6.4,2c-4.4-0.1-8.7,0.1-13.1,0.1
		c-1.5,0-1.6-0.4-0.9-1.6c0.5-0.9,1-1.7,1.6-2.6c0.2-0.2,0.6-0.5,1-0.5c2.1,0.1,4.4,0.1,6.6,0.4
		C483.6,345.6,486.7,344.3,489.9,343.8z M483.2,332.6c2.5,1.2,4.5,3,5.2,5.9c0.2,1,0.7,2,1.1,3c0.2,0.6,0.1,1-0.5,1.1
		c-2.4,0.4-4.6,1.5-7.1,1.4c-1.5,0-3.1,0.1-4.6,0.4c-1.1-0.1-2.4-0.2-3.5-0.6c-0.1,0-0.4-0.6-0.4-0.9c0.1-0.7,0.4-1.5,0.4-2.2
		c0.1-1.5,1-2.2,2.1-2.9c2.2-1.1,3.7-2.9,5.4-4.6C481.8,332.5,482.3,332.3,483.2,332.6z M510,259.8c2.1,2.6,1.1,7.6-2.1,9.9
		C508.7,266.3,509.3,263.1,510,259.8z M448,235c0-0.2,0.1-0.3,0.1-0.4c-0.1,0.4-0.1,0.8-0.2,1.2C447.9,235.5,447.9,235.2,448,235z
		 M455.1,329.2c-0.1,0.7-0.4,1.4-0.7,2.1c-0.2-0.2-0.4-0.5-0.5-0.9c-1.2-2.4-2.6-4.9-3.9-7.4c-2.4-4.9-4.7-9.9-7-14.7
		c-0.6-1.1-1.1-2.4-1.6-3.6c-0.2-0.6,0-1,0.6-1.1c1.1-0.2,2.4-0.5,3.2-1.4c0.5-0.5,1.1,0.1,1.2,1c0.1,1.2,0.4,2.4,0.7,3.5
		c0.6,1.9,1.7,3.5,2.2,5.4c1,3.5,3,6.2,4.9,9.2C456,323.8,456,326.4,455.1,329.2z M493.4,297.7c-0.1,0.2-0.1,0.5-0.1,0.7v1
		c-0.4-0.1-0.9-0.1-1.1-0.2c-1.7-0.9-3.4-1.7-5.1-2.6c-0.4-0.1-0.6-0.4-1-0.6c3.1-1.4,6.1-2.7,9-4
		C494.4,293.8,493.9,295.7,493.4,297.7z M502.7,279.7c-0.6,1.4-1.6,2.6-2.6,3.9c-1.5,2.1-3.1,4.1-4.9,6c-1.1,1.2-2.7,2.1-4.2,3
		c-1.1,0.7-2.6,1.1-3.9,1.6c-1.9,0.9-3.9,1-5.9,0.5c-2.2-0.5-4.4-1-6.2-2.4c-1.7-1.4-3.4-2.9-5.1-4.4c-1.9-1.5-3.4-3.4-4.5-5.4
		c-0.7-1.2-1.1-2.7-1.7-4.1c-0.6-1.4-1.2-2.6-1.9-4c-0.7-1.5-1.4-3-1.9-4.5c-0.1-0.2,0.1-0.9,0.4-1.2c0.2-0.5,0.2-1-0.2-0.9
		c-1.6,0.5-2.1-0.5-2.7-1.6c-0.7-1.5-1.5-3-2.1-4.5c-0.6-1.6-0.4-3.1,0-4.7c0.2-0.6,0.2-1.4,0.4-2c0.1-0.6,0.4-1,1.1-0.7
		c0.7,0.2,1.2-0.1,1.2-1v-0.6c0-4.4,0.4-8.9,0.9-13.2c0.2-2.5,0.4-5,0.7-7.5c0.4-2,0.7-3.9,1.2-5.7c0.2-0.7,0.9-1.2,1.2-2
		c0.7-1.5,1.4-3,2.4-4.4c0.7-1.1,1.9-1.9,2.9-2.7c0.6-0.5,1.2-1,1.9-1.6c0.1-0.1,0.4-0.5,0.5-0.5c0.9-0.1,1.2-0.7,1.4-1.4
		c0-0.6,0.4-1.3,0.6-1.7c1.3-2.2,3.1-4.1,4.5-6.2c0.3-0.4,1-0.2,0.8,0.3c-0.8,2.5-2.7,4.4-3.9,6.7c-0.2,0.3-0.3,0.6-0.4,0.9
		c0.8,0.5,1.5,1.2,2.7,1.2c1.2-0.1,2.5,0.7,3.7,1.2c1.6,0.6,3.4,1,5,1.7c1,0.5,2,1.1,2.9,1.9c2.7,2.5,4.1,5.9,5.7,9.1
		c1.4,2.6,2.7,5.1,4.1,7.7c0.2,0.5,0.7,0.9,1.4,1.5c-2.7-0.5-5.1,0-7.9,0.5c-1,0.4-1.7,1-1.6,1.6c0.1,0.6,1.1,0.9,2.2,0.4
		c2.2-1,4.5-1,7-0.2c1.2,0.4,1.7,1.1,2.5,1.7c2.1,1.9,3.6,4.4,5.2,6.7c1.2,1.9,2.4,3.7,2.4,6c0,1.6-0.2,3.2-0.4,4.9
		c-0.1,1.4-0.1,2.9-0.5,4.2c-0.9,3.9-1.9,7.7-3,11.6C503.8,276.8,503.3,278.3,502.7,279.7z M512.3,336.8c-0.5-1-1.1-1.6-0.5-2.5
		c0.7-1.2,1.6-2.4,2.5-3.6c0.1-0.1,0.2-0.1,0.6-0.4C514.5,332.8,513.5,334.8,512.3,336.8z M514,323.5c0.9,2.5,1,4.9-0.7,6.9
		c-0.6,0.9-1.2,1.6-1.9,2.5c-0.5,0.6-1,0.5-1.2-0.1c-0.4-0.9-0.7-1.9-1.1-2.9c-0.1-0.2,0-0.7,0.1-0.9c2.1-1.2,3.5-3.1,4.7-5.2
		C513.9,323.7,514,323.7,514,323.5z M513.4,319.4c0.9,1.6,0.2,2.9-0.7,4.1c-0.9,1.1-1.7,2.2-2.7,3.4c-0.6,0.7-1.9,0.6-2.4-0.2
		c-0.7-1-1.4-2.1-1.9-3.2c-1-1.9-1.9-3.7-2.6-5.7c-0.4-1.2-0.5-2.5-0.6-3.7c-0.4-2.4-0.5-4.7-1-7.1c-0.5-2.5-0.5-4.9,0.2-7.2
		c0.7-2.3,1.3-4.7,1.8-7c0,0.6,0,1.2,0.1,1.8c0.1,2,0,3.9,0.8,5.8c0.1,0.3,0.3,0.6,0.4,1c0.2,1.4,0.6,2.8,1.2,4.1
		c2,4.1,4.2,8.1,6.4,12.1C512.8,317.9,513,318.7,513.4,319.4z"/>
	<path class="st0" d="M486.2,282.5c-4.4-0.5-8-1.6-10.2-5.5c-0.1-0.2-0.1-0.9,0-1.1c0.9-1.2,2-2.4,2.9-3.6c1.4-2,2.4-2.2,4.6-1.4
		c0.5,0.1,1.1-0.1,1.7-0.2c0.5-0.1,1.1-0.4,1.6-0.2c2.2,0.6,3.7,2.1,4.7,4.1c0.2,0.5,0.7,1,0.9,1.5c0.1,0.6,0.4,1.4,0.1,1.7
		c-0.7,1.2-1.6,2.2-2.9,2.9c-0.6,0.2-1.1,0.9-1.7,1.1C487.3,282.2,486.6,282.3,486.2,282.5z M477.4,277.5c-0.1,0.1-0.1,0.1-0.2,0.2
		c0.6,0.5,1.1,1.1,1.9,1.5c2.2,1.2,4.5,2.2,7,2.1c0.4,0,0.7-0.1,1.1-0.2c1-0.6,1.9-1.2,2.9-1.9c0.4-0.2,0.7-0.7,1-1.1
		c0-0.1-0.1-0.2-0.1-0.2C486.4,278.1,481.9,278,477.4,277.5z M491.3,276.3c-1.5-3-1.9-4-4.6-4.9c-0.2-0.1-0.7-0.1-1,0.1
		c-1,0.5-1.7,0.5-2.9,0.1c-0.6-0.2-1.9-0.2-2.4,0.1c-1,0.9-1.7,2.2-2.6,3.5C482.6,273.5,486.9,273.5,491.3,276.3z"/>
	<path class="st0" d="M489.2,263c-0.7,0.2-1.2,0.4-1.7,0.6c0.2,0.7,1.9,1,2.6,0.2c0.7-0.9,0.9-3,0.2-4.1c-0.6-1.1-1.1-2.4-1.6-3.5
		c-0.1-0.2-0.1-0.6-0.1-0.9c0.1-0.1,0.1-0.1,0.2-0.2c0.2,0.4,0.7,0.6,0.9,1c0.6,1.1,1.1,2.4,1.7,3.5c0.6,1.2,0.4,4-0.5,4.9
		c-0.9,0.9-2.6,1.1-3.7,0.5c-0.7-0.4-1.2-0.2-2,0c-0.7,0.2-1.7,0.1-2.6,0.1c-0.6,0-1.2-0.2-1.9-0.1c-2.2,0.4-4-1-3.9-3.2
		c0.1-1.7,0.5-3.5,2.2-4.7c0,0.4,0.1,0.7,0,1.1c-0.6,1-1,2.1-1.1,3.2c-0.1,1.5,0.2,2.2,1.9,2.5c0.4,0,0.6,0.1,1,0.1
		c0-0.1,0-0.1,0.1-0.2c-0.1,0-0.2,0-0.4-0.1c-0.4-0.4-0.9-0.6-0.9-1c0-0.7,0.9-0.9,1.4-0.6c0.6,0.2,1.2,0.6,1.5,1.2
		c0.6,1.1,1.2,1.5,2.4,0.9c0.5-0.2,1-0.7,1.4-1.2C487.3,261.7,488.1,261.7,489.2,263z"/>
	<path class="st0" d="M476.6,240.2c-1.9,0-3.6,0-5.5,0c-1.5,0-3,0.2-4.4,1c-0.5,0.2-1.1,0-1.7-0.1c-0.1,0-0.2-0.9,0-1.1
		c0.6-0.5,1.4-1,2.1-1.2c2-0.6,3.9-1.6,6-1.4c0.2,0,0.6,0,0.9,0.1c1.4,0.2,2.6,0.5,4,0.7c0.4,0.1,0.7,0.4,1,0.7
		c0.1,0.1,0,0.6-0.1,0.9c-0.1,0.2-0.5,0.4-0.7,0.4C477.4,240.4,477.1,240.4,476.6,240.2L476.6,240.2z"/>
	<path class="st0" d="M471.9,249.4c-1.5-0.2-2.9-0.6-4.4-0.9c-0.2,0-0.5,0.1-0.6,0c-0.4-0.1-0.6-0.2-0.9-0.5c-0.1-0.1-0.1-0.6,0-0.7
		c0.2-0.1,0.6-0.4,0.9-0.2c1.6,0.2,3.1,0.7,4.7,0.7c1.4,0,2.7-0.6,4.2-0.9c0.5-0.1,1,0,1.5,0c0.1,0,0.4,0.4,0.4,0.5
		c0,0.2-0.2,0.6-0.5,0.6c-1.1,0-2.1,0.4-3,1c-0.6,0.4-1.5,0-2.2,0C472.1,249.1,472.1,249.2,471.9,249.4z"/>
	<path class="st0" d="M501.4,247.9c-0.4,1.1-0.9,1.2-1.9,0.9c-0.6-0.2-1.5-0.1-2.2-0.1c-1.6-0.1-3.1-0.4-4.7-0.5
		c-0.5,0-0.9-0.1-1.4-0.1c-0.5-0.1-0.9-0.2-1.5-0.4c0.7-1.1,1.7-1,2.5-0.7c2.7,0.7,5.4,0.9,8.2,0.7
		C500.7,247.5,501,247.7,501.4,247.9z"/>
	<path class="st0" d="M486.8,235.7c1.2,0.7,0.9,1.6,0.9,2.5c0,0.7,0,1.5-0.1,2.2c0,0.2-0.2,0.6-0.4,0.9c-0.2-0.2-0.6-0.6-0.6-0.9
		c0-1,0.1-2.1,0.1-3.1C486.7,236.9,486.8,236.4,486.8,235.7z"/>
	<path class="st0" d="M481.6,235.5c0,0.5,0,1,0,1.5c-0.1,0.7-0.2,1.6-0.4,2.4c0,0.2-0.4,0.5-0.5,0.7c-0.1-0.1-0.5-0.2-0.5-0.4
		c-0.1-1.5,0.2-2.9,0.9-4.2C481.2,235.5,481.4,235.5,481.6,235.5z"/>
</g>
</svg>
