<?xml version="1.0" encoding="utf-8"?>
<!-- Generator: Adobe Illustrator 19.2.1, SVG Export Plug-In . SVG Version: 6.00 Build 0)  -->
<svg version="1.1" id="Layer_1" xmlns="http://www.w3.org/2000/svg" xmlns:xlink="http://www.w3.org/1999/xlink" x="0px" y="0px"
	 viewBox="0 0 200 210.9" style="enable-background:new 0 0 200 210.9;" xml:space="preserve">
<style type="text/css">
	.st0{fill:#E91E63;}
</style>
<g id="sorethroat-lady3">
	<path class="st0" d="M0,210.9c0.3-4.8,0.7-9.7,0.9-14.5c0.2-5.6,1.6-11,2.4-16.5c0.7-4.7,1.8-9.2,3.6-13.5c1.2-2.9,2.9-5.6,4.8-8
		c2.5-3.2,5.3-6.2,8.9-8.3c1-0.6,2-1.1,3.1-1.6c3.2-1.5,6.5-3,9.7-4.4c1.1-0.5,1.2-1.3,0.7-2.1c-3-5-3.8-10.6-4.2-16.2
		c-0.3-4.3-0.4-8.7-0.2-13.1c0.2-4.3,0.8-8.6,1.4-12.9c0.4-2.9,1.1-5.8,1.4-8.7c0.3-3.3,0.4-6.7,0.6-10c0.3-4.7,0.6-9.5,0.9-14.2
		c0.4-5.3,1.3-10.5,1-15.8c-0.2-4.3,0.7-8.5,2.8-12.3c1.7-3,3-6.3,4.5-9.4c1.5-3.4,3.9-6.2,6.1-9c2.3-2.9,4.7-5.7,7.1-8.4
		c0.9-1.1,2.1-2.1,3.3-2.7c3.7-1.9,7.3-4.2,11.4-5c0.2,0,0.3-0.2,0.4-0.2c3.4-0.3,6.9-0.7,10.3-1c0.8-0.1,1.5-0.1,2.3-0.3
		c2.9-0.9,5.7-1,8.6,0.1c0.3,0.1,0.7-0.2,1.1-0.3c2.5-1.3,5.1-2.6,8-2.2c1.9,0.2,3.7,1,5.5,1.6c3,1.1,5.3,3.2,7.8,5
		c2.4,1.8,4,4.3,6.2,6.2c2,1.8,4,3.6,5.5,5.9c1,1.5,1.9,3.1,2.7,4.7c1.3,2.7,2.7,5.4,3.8,8.1c1.6,3.8,2.9,7.7,4.6,11.4
		c1.2,2.6,1.7,5.3,2.6,7.9c1.1,3.2,2.4,6.2,3.7,9.3c1.9,4.6,3.2,9.4,4,14.3c0.5,3.3,1.5,6.6,2.2,9.9c0.6,3.1,1.1,6.2,1.7,9.3
		c0,0.1,0,0.2,0,0.4c1.9,6.1,3.3,12.4,6.2,18.1c2.4,4.7,4.4,9.5,6.1,14.4c0.4,1.3,0.6,2.6,0.7,4c0.2,3.6,0.4,7.3,0.2,10.9
		c-0.2,3.5-0.7,6.9-1.2,10.4c-0.2,1.6-0.2,2.1,1.3,2.7c2.4,0.9,4.9,1.6,7.4,2.5c5.4,2,10.9,3.6,15.8,6.8c5.3,3.4,8.6,8.2,10.6,14.1
		c2.1,6.2,2,12.5,0,18.8c-1,2.9-1.4,6-2.1,9.1c-0.4,1.7-0.8,3.3-1.2,5c-26.8,0-53.6,0-80.4,0c0.8-3,2.8-5.3,4.8-7.5
		c2.6-2.8,4.6-6,6.4-9.3c0.6-1.1,0.1-1.9-1.1-1.9c-4.7-0.1-9.4-0.3-14.1-0.4c-0.4,0-0.7-0.3-1.1-0.5c0.2-0.3,0.4-0.7,0.6-0.9
		c1.5-1.4,3.1-2.7,4.4-4.3c2.3-2.9,4.5-6,6.6-9.1c0.7-1.1,1.3-2.3,1.6-3.6c0.5-2.2,0.9-4.5,1.2-6.8c0.2-1.3,0.2-2.6,0.3-4.1
		c-0.4,0.2-0.6,0.3-0.7,0.4c-2.3,2-4.6,3.9-6.8,6c-1.7,1.6-3.2,3.5-5.1,5c-2.6,2-5.4,3.6-8,5.5c-1.4,1-2.8,2.1-2.9,4.1
		c-0.1,1.2-0.3,2.3-0.3,3.5c0,2.5,0.2,5,0.3,7.5c0,1.1-0.1,2.2,0.2,3.3c1.3,4.4,1.4,8.9,1.6,13.3c-0.7,0-1.5,0-2.2,0
		c-0.1-1.3-0.2-2.6-0.2-3.9c-0.1-0.8-0.1-1.7-0.2-2.5c-0.5-3.5-1.1-6.9-1.4-10.4c-0.3-2.7-0.3-5.4-0.2-8.1c0.1-2.5,0-3.1-2.2-4.2
		c-0.4-0.2-0.9-0.3-1.3-0.6c-0.7-0.4-1.4-0.9-2.1-1.4c-0.2-0.2-0.2-0.8-0.1-1.1c0.1-0.2,0.7-0.2,1-0.1c1.5,0.7,3,1.5,4.5,2.2
		c0.3,0.1,0.9,0,1.1-0.3c1.7-2.1,3.7-3.8,6-5.2c2.3-1.4,4.5-2.9,6.5-4.7c3.2-2.8,6.2-5.8,9.4-8.7c0.9-0.9,2-1.6,3-2.5
		c0.3-0.3,0.6-0.6,0.7-0.9c0.8-2,1.3-4,2-6c1.5-4.5,3.5-8.7,5.2-13.1c0.3-0.6,0.4-1.4,0.3-2.1c-0.4-1.9-0.8-3.7-1.4-5.6
		c-1-3.1-2-6.2-4.1-8.8c-0.6-0.7-1.2-1-2-1c-1.6-0.1-3.1-0.6-4.1-1.9c-0.2-0.3-0.4-0.6-0.6-0.9c-0.1,0.1-0.2,0.2-0.3,0.2
		c0,0.2,0,0.5,0.1,0.7c1,3,2,6.1,3.2,9.1c1.2,3.1,1.9,6,0.8,9.6c-1,3-0.5,6.5-0.5,9.8c0,2-0.3,3.8-1.3,5.4c-0.2,0.3-0.8,0.4-1.2,0.7
		c-0.1-0.5-0.4-1-0.3-1.4c0.8-1.9,1-3.8,0.9-5.8c-0.1-2.6-0.3-5.2,0.1-7.8c0.5-2.9-0.1-5.7-0.3-8.5c-0.1-1.8-0.9-3.5-1.4-5.3
		c-0.7-2.3-1.4-4.6-2.1-6.9c-0.4-1.3-0.6-2.6-0.8-3.5c-1.8-0.6-3.3-1-4.7-1.5c0.1,1.7,0.3,3.6,0.5,5.5c0.3,2.4,0.6,4.9,0.9,7.3
		c0.4,2.4,0.9,4.8,1.2,7.2c0.4,3.8,0.2,7.8,0.9,11.5c0.6,3.2-0.8,5.6-2.4,8c-0.2,0.3-1,0.2-1.5,0.3c-0.1-0.4-0.2-0.9-0.1-1.3
		c0.2-0.6,0.5-1.1,0.9-1.5c1.7-1.8,1.4-4,1.2-6.1c-0.2-3.2-0.6-6.3-0.9-9.5c-0.2-1.8-0.4-3.6-0.6-5.4c-0.3-2.3-0.8-4.6-1-6.9
		c-0.2-2-0.3-4-0.5-6c-0.1-1-0.3-2-0.5-3.1c-1.8,1.5-3.4,2.9-5.1,4.2c-0.7,0.6-1,1.1-1.1,2c-0.3,4,0,8,0.9,12c0.6,3,0.5,6.2,0.6,9.4
		c0,0.3-0.5,0.7-0.8,1c-0.3-0.3-0.8-0.6-0.8-1c-0.2-1.2-0.1-2.5-0.3-3.7c-0.4-2.9-0.8-5.7-1.2-8.6c-0.1-0.7-0.2-1.3-0.2-2
		c-0.1-2.1-0.2-4.3-0.3-6.7c-0.7,0.3-1.2,0.4-1.6,0.7c-0.8,0.5-1.6,1.1-2.4,1.6c-0.8,0.5-1.1,1.1-1.1,2c0,2.9-0.1,5.8-0.2,8.7
		c0,0.3-0.1,0.6-0.1,0.8c-0.4,2.9-1.6,5.5-3.2,7.9c-1.1,1.6-2.3,3.1-3.5,4.5c-1.2,1.3-2.7,2.3-3.9,3.6c-2,2.2-3.9,4.4-5.6,6.8
		c-3,4-5,8.5-5,13.6c0,1.7,0.3,3.4,0.3,5.1c0,5.4-0.2,10.8-0.2,16.3c0,5.5,0.1,10.9,0.2,16.4c0,0.7,0,1.4,0,2.1c-0.9,0-1.8,0-2.7,0
		c0.1-2.2,0.4-4.4,0.4-6.6c-0.1-6-0.4-12-0.6-18c0-0.9,0-1.9,0-2.8c-1.3-0.3-1.6,0.6-2,1.3c-1.2,2.4-2.6,4.7-3.7,7.1
		c-1.5,3.2-2.7,6.5-4.1,9.8c-0.1,0.2,0,0.6,0.1,0.8c1.2,1.8,2.5,3.3,4.4,4.4c1.8,1,3.9,1.8,4.7,4c-5.3,0-10.7,0-16,0
		c1.5-3.3,2.9-6.5,4.5-9.8c2.2-4.7,4.5-9.3,6.8-14c0.4-0.9,0.9-1.8,1.3-2.6c-1.7-0.5-3.3-1-4.8-1.6c-0.4-0.2-0.6-0.8-0.8-1.3
		c0.5-0.1,1-0.4,1.5-0.3c1.2,0.2,2.3,0.7,3.5,1c1.3,0.3,1.8,0.1,2.3-1.2c0.3-0.7,0.6-1.4,1-2.1c0.7-1.1,0.9-2.3,1-3.5
		c0-2,0.1-4,0.5-5.9c0.4-2.2,1.2-4.4,1.8-6.6c0.3-1.1,0.5-2.2,0.4-3.2c-0.4-2.3-1.2-4.5-1.5-6.8c-0.3-1.7-0.3-3.6,0-5.3
		c0.2-1.2-0.2-1.5-1.1-1.7c-2.9-0.6-3.4-0.2-4.1,2.6c-0.5,1.9,0.1,2.6,2.1,2.7c1.6,0.1,2.1,0.8,1.5,2.6c-0.5-0.2-0.9-0.4-1.4-0.6
		c-1.8-0.7-3.5-0.7-5.2,0.4c-0.6,0.4-0.6,0.8-0.4,1.4c0.5,1.2,1.1,2.4,1.3,3.7c0.4,1.8,0.7,3.7,0.8,5.6c0.1,1.7-0.1,3.4-0.3,5
		c0,0.3-0.6,0.8-0.7,0.7c-0.4-0.2-0.7-0.5-0.9-0.8c-0.1-0.2,0-0.6,0-0.8c0-1.7,0.2-3.3-0.1-5c-0.4-2.5-0.9-5-1.8-7.3
		c-0.7-1.8-1.6-4.2-4.5-3.1c-0.1,0-0.2,0-0.2,0c-0.3-0.2-0.7-0.5-0.7-0.8c0-0.3,0.3-0.8,0.5-0.9c0.5-0.2,1.1-0.2,1.7-0.3
		c1-0.2,1.9-0.6,2.1-1.6c0.3-1.9,0.4-3.8,0.6-5.8c0.1-0.7-0.3-0.9-0.9-0.9c-0.9,0-1.8-0.1-2.7-0.3c-0.3-0.1-0.5-0.7-0.7-1.1
		c0.4-0.2,0.8-0.5,1.2-0.4c1.8,0.5,3.2,0,4.4-1.5c2.1-2.7,3-6.1,4.4-9.2c0.1-0.3,0-0.8-0.2-1c-0.8-0.6-1.7-1.1-2.8-1.8
		c-0.1,0.1-0.1,0.3-0.3,0.5c-2.7,3-5.4,6.1-8.3,9c-1.9,2-4,3.8-5.9,5.7c-0.4,0.4-0.6,1-0.7,1.5c-0.2,1.6-0.2,3.3-0.3,4.9
		c-0.1,1.9-0.3,3.8-0.5,5.8c0,0.4-0.5,0.7-0.8,1c-0.3-0.3-0.7-0.6-0.9-1c-0.2-0.4-0.1-1,0-1.4c0.2-3.3,0.4-6.6,0.8-9.8
		c0.1-0.7,0.4-1.4,0.9-1.9c1.8-1.9,3.8-3.6,5.6-5.5c2.2-2.2,4.3-4.5,6.5-6.7c0.8-0.8,1.5-1.7,2.3-2.5c0.6-0.7,0.5-1.1-0.4-1.3
		c-0.1,0.1-0.2,0.1-0.2,0.2c-2.4,3.1-4.9,6-8.4,7.8c-0.2,0.1-0.4,0.4-0.6,0.6c-0.7,0.8-1.3,1.7-2,2.4c-3,2.9-6.1,5.8-9.2,8.8
		c-0.3,0.3-0.5,0.9-0.5,1.4c-0.4,2.9,0.7,5.6,1.3,8.4c0.8,3.6,1.9,7,2.6,10.6c0.4,2.1,0.7,4.2,1.9,6.1c2,3.4,1,6.3-2,8.5
		c-0.7,0.6-1.3,1.5-1.6,2.4c-0.4,1.1-0.4,2.3-0.9,3.4c-2.9,6.8-5.9,13.5-10.6,19.3c-1.2,1.5-2.1,3.3-3.2,4.9
		C19.8,210.9,9.9,210.9,0,210.9z M45.1,65.4c-0.1,5.2-0.3,10.5-0.4,15.8c0,1.8,0.2,3.6,0.7,5.3c0.7,2.9,1.8,5.7,2.6,8.6
		c0.8,2.8,1.6,5.6,3.1,8.2c1.8,3.3,3.8,6.6,5.5,9.9c2.7,5,5.6,9.9,10,13.6c1.2,1,2.9,1.8,4.4,2.2c1.6,0.4,3.3,0.4,4.9,0.3
		c2.5-0.2,5-0.6,7.5-1c1-0.2,2-0.3,2.9-0.8c2.2-1.1,4.3-2.4,6.4-3.6c1-0.5,2.1-0.9,3-1.5c2.3-1.4,4.4-2.9,6.7-4.3
		c2.6-1.6,5.2-3.4,7-6c0.6-0.9,1-2,1.8-2.8c1.4-1.6,2.2-3.5,2.7-5.5c0.9-3.4,1.8-6.8,2.6-10.2c0.3-1.2,0.5-2.5,0.4-3.8
		c-0.1-1.4-0.3-2.7,0.5-4c0.6-1.1,1.1-2.2,0.9-3.5c0-0.3,0-0.6,0.2-0.8c0.2-0.3,0.6-0.6,0.9-0.6c0.2,0,0.5,0.4,0.6,0.7
		c0.1,0.4,0.1,0.8,0.1,1.3c0.1,0.1,0.3,0.1,0.4,0.2c0.2-0.4,0.6-0.8,0.7-1.2c0.2-0.9,0.1-1.9,0.4-2.9c0.5-1.5,1.1-1.7,2.6-1
		c-0.3,0.9-0.5,1.9-0.8,2.8c0.1,0.1,0.3,0.2,0.4,0.3c0.5-0.3,1.2-0.6,1.6-1c0.7-0.7,1.2-1.6,1.9-2.4c0.7-0.8,0.9-1.7,0.9-2.8
		c0-2.3-1-4.2-2.3-5.9c-0.8-1.1-2.3-1.2-2.9,0c-0.5,0.9-0.6,1.9-0.9,2.9c-0.4,1.5-0.8,2.9-1.2,4.4c-0.2,0.7-0.7,1.3-1.4,0.9
		c-0.3-0.2-0.5-1-0.5-1.5c0-0.4,0.3-0.7,0.4-1.1c0.6-2.2,1.4-4.4-0.1-6.6c-0.4-0.7-1-1.3-1.3-2c-1.2-2.4-3.3-4-5.2-5.8
		c-3.1-2.9-6.1-5.7-8.9-8.8c-2.4-2.8-3.9-6.2-5.5-9.5c-1.2-2.6-2.9-4.8-6.1-5.3c-0.7-0.1-1.5-0.5-2-0.9c-3.2-2.7-6.3-5.6-8.3-9.4
		c-0.4-0.8-0.5-1.4,0-2.1c1.2-2.2,2.5-4.4,3.7-6.6c0.8-1.4,1.7-2.4,3.5-2.1c0.8,0.1,1.6-0.6,1.5-1.4c-0.1-0.7-0.5-1.7-1.1-1.9
		c-0.8-0.3-1.9-0.2-2.7,0.1c-0.5,0.2-0.7,1-1,1.6c-0.1,0.1-0.1,0.2-0.2,0.3c-1.7,2.1-3.5,4.3-5.2,6.5c-0.6,0.7-1,1.5-1.6,2.3
		c-0.2,0.3-0.3,0.6-0.5,0.8c-2.2,2.1-4.7,4-6.7,6.3c-2.9,3.4-5.4,7.2-8.2,10.7c-2.4,3-5.1,5.5-8.5,7.4c-3.7,2-6.9,4.6-8.3,8.8
		c-0.7,2.2-1.4,4.4-1.3,6.8c0.2,0,0.4,0.1,0.5,0c3.5-1.3,7.2-1.5,10.9-1.5c1.7,0,3.4,0.2,4.9,1.1c0.4,0.2,0.4,1,0.7,1.5
		c-0.6,0.1-1.2,0.4-1.8,0.3c-1.8-0.2-3.6-0.7-5.5-0.8C51.6,63.8,48.4,63.9,45.1,65.4z M94.2,125.4c-0.7,0.3-1,0.5-1.4,0.7
		c-1.5,0.9-2.9,1.9-4.4,2.7c-0.9,0.5-2,0.7-3,0.9c-1.6,0.3-3.2,0.5-4.8,0.8c-1.8,0.4-1.9,0.5-1.8,2.4c0,1.6-0.1,2.9-1.5,4
		c-0.9,0.7-1.3,1.9-1.2,3.1c0.1,1,0.1,2.1,0.1,3.2c-0.1,1.7,0.1,3.5-0.3,5.2c-0.6,2.3-0.6,4.6-0.2,6.9c0.1,0.4,0.6,1.1,0.8,1.1
		c0.5-0.1,1-0.4,1.2-0.9c1-1.8,2.1-3.5,3.8-4.6c0.5-0.3,0.9-0.6,1.3-1c2.7-2.5,5.4-5.1,8-7.7c1.6-1.5,2.6-3.5,2.9-5.6
		C94.1,133,94,129.3,94.2,125.4z M122.8,113.8c-0.1-1-0.2-2-0.3-3c-0.3-2.1-0.6-4.3-0.9-6.4c-0.3-2.1-0.6-4.3-0.8-6.4
		c-0.1-1.6,0.1-3.2-0.1-4.7c-0.1-0.7-0.5-1.4-0.9-2c-0.1-0.2-0.7-0.4-0.9-0.3c-0.2,0.1-0.3,0.6-0.4,0.9c-0.1,0.7-0.1,1.5-0.3,2.2
		c-0.8,3.2-1.6,6.4-2.5,9.6c-0.2,0.7,0,0.9,0.5,1.4c0.7,0.7,1.5,1.5,1.7,2.5c0.5,1.8,0.6,3.7,0.8,5.5c0.1,0.9,0.3,1.2,1.2,1
		C120.8,114.1,121.7,114,122.8,113.8z M145.3,183.1c1,0.3,2,0.9,2.4,0.6c2.4-1.4,4.3-3.6,5.8-5.9c2.6-4,5-8.1,7.4-12.2
		c0.9-1.5,1.7-3,2.5-4.4c0.3-0.6,0.6-1.3-0.2-1.7c-0.8-0.5-1.3,0.2-1.6,0.8c-0.5,0.8-0.8,1.7-1.3,2.6c-1.5,2.6-3.1,5.1-4.6,7.6
		c-0.7,1-1.5,2-2.3,2.9c-0.4,0.5-1.1,0.7-1.4,1.2C150.3,177.6,148.4,180.5,145.3,183.1z M128.4,80.3c-0.1-0.1-0.3-0.2-0.4-0.2
		c-0.3,0.2-0.7,0.3-0.9,0.5c-1.8,2-3.9,3.4-6.4,4.2c-1,0.3-1.5,1.5-1.3,2.8c0.2,1.1,0.8,1.9,1.9,2c2.6,0.1,6.2-1.1,6.8-4.5
		C128.3,83.5,128.3,81.9,128.4,80.3z M63.3,151.4c1.4,0.1,1.8,0.1,2.1-1.1c0.5-1.8,0.7-3.7,0.9-5.6c0.1-1.6-0.2-3.2,1.1-4.5
		c0.2-0.2,0.3-0.6,0.4-1c0.8-2.4,1.6-4.8,2.3-7.2c0.2-0.6,0.1-1-0.8-0.9c-1.3,0.2-1.1,1.3-1.3,2.1c-0.8,2.7-1.3,5.4-3.2,7.6
		c-0.4,0.5-0.7,1.3-0.8,2c-0.1,1.5,0,3-0.1,4.5C63.8,148.8,63.5,150,63.3,151.4z M73.8,140.8c-0.1-1.6-0.1-3.2-0.3-4.7
		c-0.2-1.2-0.6-2.3-1-3.4c0-0.1-0.9-0.1-1.1,0.1c-0.2,0.3-0.3,0.8-0.2,1.2c0.1,1.4-0.2,2.6-0.9,3.8c-0.7,1.4-1.3,2.9-1.9,4.4
		c-0.4,1,0,1.6,1,1.5c0.9-0.1,1.8-0.2,2.6-0.2c1.4,0,1.8-0.4,1.8-1.8C73.8,141.5,73.8,141.1,73.8,140.8z M116.9,111.1
		c0,0,0.1,0,0.1,0c-0.2-0.9-0.3-1.9-0.6-2.8c-0.1-0.4-0.5-1-0.9-1.1c-0.3-0.1-0.8,0.4-1.2,0.7c-0.4,0.3-0.6,0.7-0.9,1.1
		c-1.1,1.8-1,2.7,0.7,3.9c0.5,0.4,1.4,0.3,2.1,0.2c0.2,0,0.3-0.9,0.5-1.4C116.9,111.5,116.9,111.3,116.9,111.1z M74.1,131
		c0.4,0.9,0.8,1.8,1.2,2.5c0.1,0.2,0.6,0.3,0.9,0.3c0.3-0.1,0.7-0.4,0.7-0.6c0.5-1.7,0-2.3-1.7-2.2C74.9,131,74.6,131,74.1,131z
		 M124.5,119.9c-0.7-2.2-1.8-3.3-3.3-3.1C121.4,118.9,122.7,120.2,124.5,119.9z"/>
	<path class="st0" d="M72.1,113.2c-3.5,0.5-6.4-0.8-8.9-3.1c-0.6-0.5-1.5-0.6-2.1-1.1c-0.4-0.2-1-0.7-1-1c0-0.4,0.4-0.9,0.8-1.1
		c2.2-1.3,4.3-2.6,6.5-3.8c1-0.5,2-0.7,3,0.2c0.2,0.2,0.8,0.3,0.9,0.2c2.6-1.8,5.1-0.7,7.7,0.1c2.5,0.9,5.1,1.6,7.6,2.4
		c0.6,0.2,1.2,0.4,1.7,0.7c0.7,0.5,0.2,0.8-0.2,1c-3.5,1.8-7,3.9-11,4.7c-1.7,0.3-3.3,0.7-5,1C72.1,113.4,72.1,113.3,72.1,113.2z
		 M83.4,106.9c0-0.1,0-0.2,0.1-0.3c-2.4-0.8-4.7-1.9-7.2-2.5c-1.2-0.3-2.7-0.7-3.8,0.3c-1,0.8-1.8,0.6-2.7,0
		c-0.4-0.2-1.1-0.4-1.4-0.2c-1.7,1-3.2,2.1-5.1,3.4C70.1,109,76.7,107.1,83.4,106.9z M64.8,109.2c0,0.1,0,0.2,0,0.3
		c0,0.1,0.1,0.2,0.2,0.3c1.6,1.2,3.3,2.1,5.4,2.3c3,0.2,5.9-0.4,8.7-1.4c1.7-0.6,3.4-1.4,5.1-2.1c0-0.1-0.1-0.3-0.1-0.4
		C77.6,108.5,71.3,109.9,64.8,109.2z"/>
	<path class="st0" d="M92.2,73.4c-1.5-0.4-2.9-0.9-4.3-1.2c-1.2-0.2-2.4-0.1-3.7-0.2c-0.3,0-0.8,0-0.8-0.1c-0.1-0.3-0.1-0.7,0.1-0.9
		c1.5-1.6,2.8-3.4,4.5-4.6c1.6-1.1,3.6-0.6,5.4-0.1c2.1,0.6,4.2,1.3,6.2,2c0.4,0.1,0.8,0.3,1.1,0.6c0.4,0.3,0.7,0.8,1,1.2
		c-0.6,0.4-1.1,1-1.7,1.2c-1.2,0.5-2.5,0.7-3.8,1.1C94.9,72.7,93.6,73,92.2,73.4z M93.4,71.9c1.4-0.6,2.7-1.1,4-1.6
		c0.1-0.1,0.2-0.9,0.1-0.9c-1.2-0.4-2.2-1.6-3.4-1.1C93.9,69.5,93.7,70.5,93.4,71.9z M85.5,70.4c1.6,0.3,2.7,0.6,3.9,0.8
		c-0.1-1.1-0.2-2.3-0.2-3.4c-0.1-0.1-0.2-0.2-0.3-0.3C87.7,68.5,86.7,69.4,85.5,70.4z"/>
	<path class="st0" d="M98.7,58.9c1.5,0.1,3,0.2,4.4,0.4c0.4,0.1,0.7,0.7,1.1,1.1c-0.4,0.3-0.9,1-1.3,0.9c-4.1-0.3-7.9,1-11.9,1.3
		c-0.9,0.1-1.7,0.6-2.6,0.7c-1.9,0.1-3.8,0.1-5.8,0c-0.4,0-1-0.6-1.1-1c-0.1-0.3,0.4-1,0.7-1.2c1.5-0.6,3-1.2,4.5-1.4
		C90.8,59.4,94.8,59.2,98.7,58.9z"/>
	<path class="st0" d="M56.7,73.6c-1.6-0.4-3.2-0.9-4.8-1.3c-0.6-0.1-1.2-0.1-1.8-0.1c-0.3,0-0.8,0.1-0.8,0c-0.1-0.4-0.3-0.9-0.1-1.1
		c0.8-0.9,1.7-1.9,2.7-2.5c1.5-0.7,3.2-1.3,4.9-1.5c2.7-0.4,5,1.1,7.2,2.4c0.6,0.3,1.1,0.8,1.6,1.3c0.5,0.5,0.3,1-0.4,1.1
		c-2.4,0.5-4.8,0.9-7.1,1.4c-0.4,0.1-0.9,0.1-1.3,0.1C56.7,73.5,56.7,73.5,56.7,73.6z M55.2,68.8c-1.3,0-2.4,0.7-3.3,1.6
		c-0.1,0.1,0,0.9,0.2,1c1.2,0.5,2.4,0.8,3.5,1.2C55.5,71.2,55.3,70.1,55.2,68.8z M64.1,70.9c-1.1-1.2-2.4-1.8-3.7-2.1
		c-0.1,0-0.5,0.4-0.5,0.6c-0.1,0.8,0,1.6,0,2.5C61,71.6,62.4,71.3,64.1,70.9z"/>
	<path class="st0" d="M78.2,94.3c0.8-0.2,1.6-0.2,2.3-0.5c1.2-0.5,1.4-1.6,0.8-3.2c-0.2-0.4-0.5-0.8-0.6-1.2c-0.1-0.4,0-0.9,0-1.6
		c2.4,1.8,2.8,5,1.2,6.6c-1.3,1.4-3.7,1.4-5.3,0.2c-0.3-0.2-1.1-0.1-1.4,0.1c-0.9,0.7-1.6,1.5-2.5,2.2c-1.2,0.9-2.7,0.8-3.8-0.1
		c-1.5-1.2-3-2.5-4.5-3.8c-1-1-0.7-2.3-0.3-3.4c0.6-1.9,1.5-3.7,2.2-5.6c0.1-0.3,0.2-0.7,0.3-1c0.1-0.3,0.3-0.5,0.5-0.7
		c0.2,0.2,0.6,0.5,0.6,0.7c0,0.5-0.2,0.9-0.3,1.4c-0.7,1.8-1.4,3.6-2.1,5.4c-0.6,1.7-0.4,2,1,3c0.8,0.6,1.6,1.4,2.3,2.1
		c1.6,1.6,3,1.6,4.6-0.2c0.5-0.5,0.9-1,1.4-1.5c0.7-0.7,1.6-1,2.5-0.7c0.5,0.1,0.7,0.8,1.1,1.2C78.3,94,78.3,94.2,78.2,94.3z"/>
</g>
</svg>
