<?xml version="1.0" encoding="utf-8"?>
<!-- Generator: Adobe Illustrator 18.1.1, SVG Export Plug-In . SVG Version: 6.00 Build 0)  -->
<!DOCTYPE svg PUBLIC "-//W3C//DTD SVG 1.1//EN" "http://www.w3.org/Graphics/SVG/1.1/DTD/svg11.dtd">
<svg version="1.1" id="Layer_1" xmlns="http://www.w3.org/2000/svg" xmlns:xlink="http://www.w3.org/1999/xlink" x="0px" y="0px"
	 viewBox="404.5 219.6 150 122.9" style="enable-background:new 404.5 219.6 150 122.9;" xml:space="preserve">
<style type="text/css">
	.st0{fill:#FF5722;}
</style>
<g id="stiffneck-man">
	<path class="st0" d="M553.7,248.8c-0.8-3.6-2.8-6.5-6.1-8c-5.3-2.3-10.8-2.9-16.4-1.4c-0.8,0.1-1.5,0.1-2.3,0.3
		c-1.3,0.3-2.5,0.4-3.8,0.8c-1.3,0.4-2.4,1.3-3.6,1.8c-4.9,2-9.8,4.1-14.8,5.9c-3.6,1.3-7.4,2.3-11.1,3.1c-4,1-8,1.6-11.5,4.1
		c-0.3,0.1-0.6,0.3-0.9,0.1c-1.1-0.5-2.4-0.8-3.4-1.4c-2.4-1.4-4.9-2.5-6.1-5.3c-0.1-0.3-0.4-0.4-0.6-0.6c-1.1-0.9-1.9-1.9-1.9-3.5
		s-0.1-3.6-0.9-5c-1.8-3.1-2.9-6.5-5.4-9c-1.4-1.4-2.9-2.3-4.1,0.1c-0.4,0.9-0.6,1.9-0.9,2.9c-0.1-0.3-0.3-0.6-0.5-0.9
		c-0.8-1.3-1.5-2.6-2.5-3.6c-1.8-1.8-3.6-3.3-5.5-4.8c-2.5-2-5-4-8.4-4.5c-3.1-0.5-6.3-0.4-9.4,0.3c-3.3,0.6-5.4,3.1-8.5,4
		c-0.1,0-0.3,0.3-0.4,0.4c-1.3,1.4-2.5,2.9-3.8,4.4c-1.1,1.5-2.3,3-3.3,4.6c-1.8,3-2.9,6.3-3,9.9c0,1.9-0.1,3.8,0.6,5.6
		c1.3,2.8,2.9,5.3,4.9,7.5c2,2.1,4,4.3,6.3,6.1c1.4,1.3,3.4,2,5.3,3c-0.5,0.3-1,0.6-1.4,0.8c-1,0.4-1.3,1.3-1.3,2.3s0.6,1.5,1.4,1.8
		c0.4,0.1,0.9,0.4,1.3,0.6c2.3,1.1,4.5,2.3,6.8,3.4c0.9,0.5,1.8,1,2.6,1.4c0.6,0.3,1.4,0.6,2,0.5c1.6-0.1,2.6,0.6,3.5,1.8
		c0.4,0.5,0.9,1,1.3,1.5c1,1.1,1,1.6,0.1,2.8c-1.6,2.1-3.3,4.3-5,6.4c-1.4,1.8-3.1,3.4-5.3,4.6c-1.5,0.9-2.9,1.9-4.4,2.8
		c-0.9,0.6-1.6,1.6-2.6,1.9c-1.5,0.4-3.1,0.5-4.6,0.5c-1.6,0-3,0.6-4.3,1.5c-0.9,0.6-1.8,1.3-2.5,1.9c-1.8,1.4-3.6,2.6-5,4.3
		c-1.9,2.3-3.6,4.8-5.1,7.4c-1.4,2.5-2.8,5.1-3.1,8c-0.4,2.8-1,5.5-1.4,8.3c-0.3,2.1-0.4,4.4-0.3,6.5c0.1,2,0.5,4,0.6,5.9h1
		c-0.1-0.4-0.3-0.9-0.3-1.3c-0.3-2.5-0.6-5-0.5-7.5c0-2.6,0.6-5.3,0.9-7.9c0.3-4.3,1.6-8.1,3.6-11.8c1.1-2,2.5-3.8,4-5.4
		c0.8-0.9,1.4-1.9,2.3-2.6c1.9-1.5,3.9-3,5.9-4.4c1-0.6,2.1-1.4,3.3-1.6c1.4-0.4,2.9-0.1,4.3-0.4c1-0.3,2.1-0.8,3.1-1.3
		c1.6-0.9,3.1-2,4.6-3c1.5-1.1,3.1-2.1,4.5-3.4c2.6-2.5,4.8-5.4,6.9-8.4c2-2.6,1.5-3.3-0.4-5.4l-0.1-0.1c-1.6-1.8-3.5-3.4-5-5.1
		c-2-2.4-4-4.8-6.8-6.3c0.5,0,1.1,0,1.6,0c0.2,0.2,0.6,0.3,1,0.2c1.3-0.4,2.7,0.1,4-0.2c0.4-0.1,0.8-0.2,1.2-0.4
		c0.6-0.2,1.2-0.4,1.8-0.7c3.1-1.5,6-3,7.8-6.1c0.9-1.4,1.6-2.9,2.6-4.3c1.9-2.4,3.9-4.5,5.8-6.9c1.1-1.4,2.4-3,1.5-5
		c-0.8-1.5-1.4-3-2.1-4.5c-0.1-0.1-0.1-0.2-0.2-0.3c-0.1-0.2-0.2-0.4-0.3-0.6c-0.1-0.1-0.1-0.2-0.2-0.3c-0.4-0.6-0.7-1.2-1-1.7
		c0.9-1,1.5-1.8,2-2.4c0.8,0.6,1.6,1.3,2.4,1.9c1.1,0.9,1.9,2,2.3,3.5c0.4,1.8,0.9,3.4,1.4,5.1c-2.5-1.5-2.8-4.5-4.8-6.5
		c0,0.5-0.3,0.9-0.1,1.1c0.5,1.3,1.3,2.4,1.9,3.5c1,1.8,3.1,2.6,4.1,4.5c0.1,0.3,0.4,0.5,0.6,0.5c1.4,0.3,2,1.4,2.9,2.3
		c1.4,1.3,1.1,2.1-0.6,2.8c-2.3,0.8-4.5,1.5-6.8,2.1c-3.1,0.9-5.4,3-7.1,5.5c-1.5,2-2.5,4.5-3.6,6.8c-0.5,0.9-0.8,1.9,0.1,2.6
		c0.9,0.8,1.9,0.5,2.8-0.1c0.5-0.3,1-0.6,1.5-1c-1.1,2.1-2.5,4.1-3.8,6.1c-0.5,1-0.9,2-1.1,3.1c-0.3,0.9,0.1,1.5,1.1,1.8
		c0.8,0.1,1.6,0.3,2.4,0.4c-0.4,0.9-0.8,1.6-1,2.5c-0.3,1-0.4,2,0.6,2.9c1,0.8,2,0.8,3,0.3c1.5-0.8,2.8-1.6,3.5-3.1
		c0.4-0.8,0.8-1.8,1.4-2.3c2-1.8,4.3-3.4,6.4-5c1.4-1,2.8-1.9,4.1-2.9c0.1,0.5,0.1,0.8-0.1,1c-2.3,2.5-4.5,4.9-6.8,7.3
		c-1.3,1.4-2.3,2.9-2.8,4.8c-0.4,1.1,0,2.3,0.9,2.8c0.8,0.5,2,0.9,2.8,0.5c3.5-1.6,6.5-3.8,9-6.8c1.8-2.1,4-4,6-6
		c0.5-0.5,1.3-1,2-0.3c-0.3,0.6-0.5,1.3-0.6,1.9c-0.3,1.3,0.3,2.6,1.3,3c1.3,0.4,2.5,0.8,3.9,0c0.5-0.3,1-0.4,1.5-0.4
		c2.8,0,5.5,0.4,8.3,0.3c2.9-0.1,5.8,0,8.5-1c1.9-0.6,3.9-1,5.8-1.6c0.5-0.1,1-0.5,1.5-0.9c0.1-0.3,0.1-0.6,0.3-1
		c-0.3,0-0.6,0-0.9,0.1c-0.1,0-0.3,0.1-0.4,0.3c-0.6-0.6-1-1.3-1.5-1.9c0,0.1-0.1,0.1-0.3,0.3c0.4,0.6,0.6,1.3,1.1,2.1
		c-3.5,0.3-6.3,2.6-9.6,2.4c0-1.8,1.3-3.9,3.1-5.1c3.5-2.3,7.1-4.5,10.6-6.6c0.8-0.5,1.8-0.6,2.6-1c0.1-0.1,0.4-0.1,0.5-0.3
		c1-0.5,1.9-1.3,2.9-1.5c1.8-0.4,3.8-0.5,5.6-0.5c1,0,2,0.3,3.4,0.5c-0.4-0.6-0.6-1.1-0.9-1.1c-1.4-0.3-2.8-0.5-4.1-0.5
		c-1.8,0.1-3.5,0.5-5.4,0.8c0.1-0.1,0.3-0.4,0.4-0.6c3.3-4.3,7.6-7.4,12.3-10.1c3.3-2,6.6-3.4,9.1-6.4c0.3-0.3,0.5-0.6,0.8-1
		c0-0.1-0.1-0.3-0.3-0.4c-0.6,0.4-1.1,0.8-1.6,1.1c-0.8,0.6-1.5,1.4-2.4,2c-3.5,2.3-7.1,4.5-10.8,6.8c-3.6,2.3-6.4,5.3-8.8,8.6
		c-0.5,0.8-1.1,1-2,1c-4.6,0-9.1-0.4-13.6,1c-2,0.6-4.1,1-6.1,1.8c-1.6,0.6-3.1,1.5-4.6,2.4c-0.8,0.4-1.1,0.4-1.5-0.5
		c-0.6-1.4-1.4-2.8-2.3-4c-0.4-0.6-1-0.6-1.5,0.1c2,1,2.3,3.1,3.1,4.8c0.5,0.9-0.3,1.9-1.4,2.1c-1.3,0.4-2.5,0.8-3.8,1.1
		c-0.6,0.3-1.1,0.4-1.5,0.5c0-1,0.1-1.8,0.3-2.6c-0.8,0.6-1.1,1.4-1.8,1.9c-2,2-4.3,3.9-6.3,6c-1.4,1.4-2.6,3-4,4.4
		c-1.1,1.1-2.6,2-4,3c-0.3,0.1-0.9-0.1-0.9-0.3c0.1-1.9-1.1-2.6-2.9-3c0.3-0.4,0.3-0.6,0.5-0.9c1.6-1.6,3.4-3.4,5-5.1
		c1-1,1.8-1,2.9-0.1c0.4,0.4,0.9,0.6,1.6,1.1c-0.1-0.5-0.1-0.9-0.3-1c-0.8-0.6-1.6-1.3-2.4-1.9c4.3-6.4,4.3-6.5,3.6-8
		c-0.5,0.6-0.8,1.1-1.1,1.5c-2.3,2-4.5,3.8-6.8,5.6c-2,1.6-4,3.1-6,4.8c-0.6,0.6-1.3,1.4-1.6,2.1c-0.6,1.4-1.6,2.4-3.1,3.1
		c0.4-1.3,1.1-2.3,1.1-3.3c0.1-1.4-1.1-1.8-2.4-1.8c2-3.8,4.6-6.9,7.8-9.3c1.3,0.5,1.1,2.4,3,2.1c-0.6-1.1-1.3-1.9-1.9-2.9
		c0.3-0.1,0.5-0.4,0.8-0.5c3-1.6,4.6-4.5,6.9-6.8c0.3-0.3,0.3-0.6,0.4-0.9c-0.4,0.1-0.8,0-1,0.3c-0.8,0.6-1.4,1.4-2,2.1
		c-1.1,1.1-2.1,2.3-3.3,3.3c-0.9,0.8-2,1.1-2.9,1.9c-1.9,1.8-3.6,3.5-5.4,5.3c-0.9,1-1.6,2-2.6,3.3c-0.3-1.4-0.4-2.5-1.6-3
		c-0.1,0-0.3-0.6-0.1-0.8c1.8-2.3,2.9-4.8,5.3-6.6c1.3-1,1.4-1.1,2.5,0.3c0.3,0.3,0.5,0.4,0.8,0.6c0-0.5,0-1-0.1-1.3
		c-1-1.8-1-1.8,0.4-3.1c0.1-0.1,0.1-0.1,0.3-0.3c1.3-1.4,2.6-2.6,3.9-4c0.6-0.5,1-1.3,1.5-1.9l-0.4-0.4c-1.8,1.4-3.1,3.5-5.6,3.6
		c0.3-0.6,0.4-1.1,0.5-1.6c-0.3-0.1-0.4-0.1-0.5-0.3c-0.8,1.1-1.4,2.3-2.3,3.3c-0.9,1-2.1,1.8-3.3,2.6c0.5,1.1-0.1,2.1-1.4,2.9
		c-0.1-1.3-0.3-2.3-1.9-2.3c0.3-0.6,0.5-1,0.8-1.4c0.9-1.8,1.6-3.5,3-5c2.3-2.4,5-3.5,7.9-4.5c2-0.6,3.9-1.1,5.8-1.9
		c0.8-0.3,1.1-0.4,1.8,0.1c1,0.8,2,1.5,3.1,2.1c1.6,0.9,3.4,1.6,5,2.4c2,0.9,3.9,1.9,5.9,2.8c0.4,0.1,0.8-0.1,1.1-0.1v-0.4
		c-2-1-4.3-1.3-6.3-2.9c1.6-0.8,2.8-1.6,4.1-2c3.1-0.9,6.1-1.9,9.4-2.5c5.9-1.1,11.5-3,16.9-5.8c1-0.4,2-0.8,3-1.1
		c2-0.8,3.9-1.6,5.9-2.5c1-0.5,2.1-1.1,3.3-1.4c1.8-0.4,3.6-0.5,5.4-0.8c0.6-0.1,1.1-0.5,1.8-0.5c4.5,0,9.1,0,13.4,2
		c1.6,0.9,3,1.8,4,3.4c1.5,2.4,2,5,2.3,7.8c0.4,3.5,0.5,6.9-0.3,10.4c-0.5,2.5-0.9,5.1-1.8,7.5c-1.8,4.5-4.6,8.4-8,11.8
		c-1.9,1.9-3.9,3.3-6,5.1c0.3-0.9,0.3-1.5,0.5-2.1c0.8-2.5,1.4-5,1.1-7.6c0-0.4-0.3-0.6-0.4-1c-0.1,0.4-0.4,0.6-0.4,1
		c0,2.1-0.3,4.3-0.8,6.3c-1.1,4.1-2.4,8-5,11.4c-1.5,1.8-2.9,3.8-3.1,6.3c-0.5,4.8-0.8,9.4-1,14.1c-0.1,2.1-0.5,4.1-1,6.3
		c-0.6,2.5-0.9,5-1.3,7.5c-0.5,4.3-1,8.6-1.5,13c0.3,0,0.6,0,0.8,0.3c0.3-2.3,0.3-4.4,0.5-6.6c0.3-2.6,0.6-5.3,1-7.9
		c0.3-1.8,0.6-3.5,1-5.3c0.4-1.6,1-3.3,1.1-5c0.3-4,0.3-8.1,0.5-12.1c0.3-2.9,0.8-5.8,2.5-8.3c1.6-2.3,2.9-4.9,4.5-7.1
		c1-1.5,2-3.1,3.8-4.1c1.4-0.9,2.6-2.1,3.8-3.3c1.1-1.3,2.3-2.6,3.3-4c2.3-3,4.5-6.1,5.3-9.9c0.3-0.8,0.3-1.6,0.5-2.4
		C554.9,260.6,554.8,254.6,553.7,248.8z M426.7,231.1c-0.2,0.2-0.3,0.3-0.5,0.5c0,0,0.1-0.1,0.1-0.1
		C426.4,231.4,426.5,231.2,426.7,231.1z M442.5,273.7c0.5,0.4,1.1,0.8,1.6,1.1c-0.1,0.1-0.1,0.4-0.3,0.5c-0.8-0.3-1.4-0.4-1.8-0.8
		c-0.6-0.3-1.3-0.6-1.9-1c-2.8-1.3-5.4-2.6-8.1-3.9c-0.3-0.1-0.5-0.3-0.8-0.4c-0.3-0.3-0.6-0.6-0.6-0.8c0.1-0.5,0.4-0.9,0.8-1.1
		c0.1-0.1,0.6,0,0.9,0.1c0.8,0.8,1.5,1.8,2.4,2.4c0.9,0.6,1.9,1.4,3,1.6c1.5,0.5,3,0.9,4.3,1.9C442.1,273.5,442.3,273.5,442.5,273.7
		z M441.2,271.7c-1.6-0.5-3.4-0.6-4.8-1.4c-1.5-0.8-2.5-2.3-3.8-3.4C434.3,265.9,439.2,268.8,441.2,271.7z M470.1,245.3
		c-0.1,0-0.4,0.1-0.5,0.1c-0.3-0.9-0.5-1.8-0.8-2.6c-0.6-2-0.9-4.4-2-6.1c-1.3-2-3.1-3.6-4.8-5.5c0.5-1.1,1.1-1.3,2-0.4
		c1.4,1.8,2.5,3.6,3.6,5.5c0.6,1,1.1,1.9,1.6,2.9C470.2,241.1,470.4,243.1,470.1,245.3z M489.5,278.9c0.1-0.8,0.3-1.4,0.5-1.9
		c0.1-0.4,0.5-0.6,0.8-0.9c0.3,0.4,0.8,0.8,0.8,1.1C491.5,278.4,490.5,278.5,489.5,278.9z M495.8,269.5c0.3-0.3,0.6-0.4,0.9-0.5
		c3.6-2,7.5-3.3,11.6-3.8c3.5-0.4,7.1-0.6,10.6-0.9c0,0.3,0.1,0.4,0.1,0.6c-3.3,2.1-6.4,4.4-9.9,6.3c-2.8,1.5-4.8,3.6-5.9,6.4
		c-0.3,0.6-0.6,0.9-1.4,0.9c-1.6-0.1-3.3,0-4.9,0c-0.9,0-1.5-0.1-1.1-1.4c0.3-0.8,0-1.5-0.3-2.3c-0.3-0.8-0.6-1.5-1-2.1
		C493.6,270.9,493.8,270.5,495.8,269.5z M489.1,273.3c1.3-0.9,2.8-0.9,4-0.3c1.5,0.8,2,2.4,2,4c-0.1,1.3-0.5,1.5-1.8,1.1
		c-0.3-0.1-0.5-0.1-0.8-0.1c0.1-0.1,0.1-0.3,0.3-0.4c-0.5-0.6-0.9-1.5-1.4-2c-0.9-0.8-2.4-0.3-2.6,0.9c-0.1,0.4-0.1,0.9-0.3,1.4
		s-0.1,1.1-1,1c-0.8-0.1-1.3-0.5-1.3-1.4C486.2,275.4,487.7,274.4,489.1,273.3z M469,284.5c0.3,0.6,0.4,1.4,0.6,2.1
		c-2,0.8-3,0.5-3.1-0.9c-0.1-0.6,0.1-1.6,0.6-2C467.9,283.2,468.6,283.8,469,284.5z M459.6,279.9c0,0.6,0.3,1.1,0.1,1.6
		c-0.3,0.8-0.8,1.5-1.1,2.4c-1,0.1-1.6-0.5-1.5-1.5c0.1-0.8,0.3-1.5,0.6-2S459,280,459.6,279.9z M457.5,276.4
		c-0.4,0.6-0.8,1.5-1.1,1.5c-0.5,0.1-1.8,0.1-1.6-1.1c0-1,0.8-2.3,1.4-2.3C457.1,274.7,457.2,275.4,457.5,276.4z M462.4,263
		c0.4-0.1,0.8-0.5,0.9-0.9c0.4-0.7,1-1,1.7-1.1c-1.7,2.1-3.5,4.2-5.2,6.3c-0.1-0.1-0.3-0.3-0.4-0.4
		C460.6,265.9,460.6,263.8,462.4,263z M456.3,265.5c0,0,0.6,0.3,0.8,0.4c-0.1,1.3,0,2.3-1.1,2.3c-0.3,0-1-0.8-0.9-0.9
		C455.3,266.6,455.8,266,456.3,265.5z"/>
	<path class="st0" d="M476,342.2c0-1.4,0-2.8-0.1-4.1c-0.1-1.8-0.4-3.6-0.6-5.4c-0.1-1.4-0.5-2.6-0.5-4c-0.3-4.3-0.3-8.5-0.5-12.8
		c-0.3-3.9-0.6-7.8-0.9-11.6c-0.1-1-0.3-2-0.3-3c0-0.4,0.3-0.8,0.4-1.1c0.1,0,0.3,0,0.4,0c0.1,0.9,0.4,1.9,0.4,2.8
		c0.3,3.6,0.6,7.1,0.8,10.8c0.3,4.4,0.3,8.9,0.6,13.3c0.4,4.3,1.1,8.4,1.6,12.5c0.1,0.9,0,1.8,0,2.6
		C476.9,342.2,476.5,342.2,476,342.2z"/>
	<path class="st0" d="M423.6,342.2c-0.5-1.5-0.8-3.3-1.6-4.6c-1.4-2.6-3-5-4.5-7.5c-0.3-0.4-0.3-0.9-0.1-1.4
		c4.1,3.8,6.1,8.6,8.3,13.5C424.9,342.2,424.2,342.2,423.6,342.2z"/>
</g>
</svg>
