<?xml version="1.0" encoding="utf-8"?>
<!-- Generator: Adobe Illustrator 19.1.0, SVG Export Plug-In . SVG Version: 6.00 Build 0)  -->
<svg version="1.1" id="Layer_1" xmlns="http://www.w3.org/2000/svg" xmlns:xlink="http://www.w3.org/1999/xlink" x="0px" y="0px"
	 viewBox="0 0 140.8 122.3" style="enable-background:new 0 0 140.8 122.3;" xml:space="preserve">
<style type="text/css">
	.st0{fill:#00BCD4;}
</style>
<g id="headache-girl">
	<path class="st0" d="M140.6,70.7c-0.1-0.5-0.2-1.1-0.6-1.4c-1.7-1.5-3.4-3.1-5.2-4.4c-1.3-1-2.8-1.8-4.2-2.7
		c-0.7-0.4-1.4-0.9-2.1-1.2c-2.1-1.1-4.1-2.2-6.2-3.3c-3.4-1.7-6.7-3.5-10.1-5.2c-0.1-0.1-0.3-0.1-0.4-0.1c-3.4-1.3-6.7-2.6-10-4.1
		c-2.2-1-4.1-2.6-4.3-5c-0.4-4.6-2.1-8.6-4.9-12.2c-0.8-1.1-1.5-2.3-2.6-3.1c-1.2-0.9-1.4-1.9-1.5-3.1c-0.4-4.5-1.1-8.9-3.6-12.8
		C83,9.3,81.4,6.2,79,4c-3.8-3.5-8.5-4.9-13.7-3.5c-0.3,0.1-0.5,0.1-0.8,0.1c-2.8-0.2-5.6-0.3-8.4-0.5c-2.2-0.2-4.1,0.7-5.7,2.1
		C49.7,2.8,49,3.4,48.2,4c-4.2,3.4-7.7,7.1-8.5,12.8c-0.2,1.5-0.9,2.7-2.5,3.2c-0.7,0.2-1.3,0.7-1.9,1c-4.4,2.2-7.8,5.5-10,10
		c-1.2,2.4-1.9,4.9-2.8,7.5c-1.4,4.2-2.9,8.3-4.2,12.5c-0.2,0.5-0.1,1.2-0.2,1.7c-0.1,0.8-0.1,1.5-0.2,2.3c-0.2,2.6-0.5,5.1-0.6,7.7
		c0,1-0.4,1.8-1.1,2.5c-1,0.9-2,2-3,3c-2.2,2.2-4.3,4.4-6.5,6.6c-0.5,0.5-1.1,0.9-1.6,1.5c-1.5,2.2-3.1,4.4-4.5,6.6
		c-0.8,1.2-0.8,2.6-0.2,3.9c1.1,2.5,2.5,4.7,4.7,6.5c2.7,2.2,8.4,2.4,11.2,0.1c1.8-1.5,3.6-2.9,5.5-4.3c0.7-0.5,1.4-1,2.1-1.5
		c0.3-0.2,0.8-0.2,1.1,0c1.1,0.8,2.2,1.8,3.3,2.5c0.3,0.2,1,0.3,1.4,0.1c0.8-0.4,1.5-1.1,2.5-1.8c0,0.8,0,1.3,0,1.7
		c-0.1,2.4-0.1,4.8-0.2,7.2c-0.2,3.4-0.4,6.9-0.6,10.3c-0.1,1.6-0.5,3.2-0.5,4.8c-0.1,3.2,0,6.5,0,9.8h1.9c0-0.5,0-1,0-1.4
		c-0.1-3.5-0.4-7-0.2-10.5c0.3-7,1.1-13.9,0.8-20.9c-0.1-1.1-0.2-2.3,0.9-3.1c0.2-0.1,0.2-0.5,0.3-0.8c-0.1-0.1-0.2-0.2-0.3-0.3
		c-0.9,0.6-1.8,1.3-2.7,1.9c-0.3,0.2-0.7,0.3-1,0.5c-0.1-0.3-0.4-0.6-0.3-1c0.1-2.6-0.9-5-1.9-7.2c-0.4-0.9-0.2-1.4,0.4-2
		c0.8-0.8,1.7-1.5,2.4-2.4c2.7-3.7,6.2-6.6,9.6-9.5c0.3-0.2,1.1-0.3,1.2-0.1c2,2.9,4.7,5.3,6.5,8.5c1.9,3.2,4.9,6,7.6,8.6
		c3.5,3.3,7.9,4.9,12.7,4.9c3.6,0,7.1-1,9.1-4.6c1.6-2.8,1.9-5.8,2.3-8.9c0.5-3.4,0.6-6.9,0.8-10.4c0-0.9,0.3-0.9,1-0.9
		c2.9,0.2,5.8,0.3,8.7,0.4c1.9,0.1,3.8,0,5.7,0c1,0,1.7,0.4,1.6,1.6c-0.1,3-0.2,6-0.2,9c0,1.6,0,3.3-0.1,4.9c0,0.6,0.3,1.5-0.7,1.4
		c-1.6-0.2-3.1,1.4-4.6,0.1c-0.7-0.6-1.1-1.6-1.7-2.4c-0.2-0.2-0.6-0.3-0.8-0.4c0,0.4-0.2,0.8,0,1.1c0.4,0.7,0.8,1.4,1.3,2.1
		c0.5,0.7,0.6,1.4,0.1,2.2c-0.4,0.8-0.5,1.7-0.5,2.6c0.2,4.9,0.4,9.8,0.8,14.7c0.2,3.8,0.7,7.6,0.9,11.4c0.2,3.3,0.3,6.6,0.4,9.9
		c0,1.2,0.6,1.4,1.8,1c0-0.5,0-0.9,0-1.3c-0.3-4.7-0.7-9.5-1-14.2c-0.3-3.8-0.6-7.7-0.8-11.5c-0.3-3.6-0.6-7.3-0.8-10.9
		c-0.1-1.4,0.8-2.4,2.1-2.5c1.5-0.2,3.1-0.3,4.6-0.3c4.3,0.1,8.7,0.1,13,0.4c4.9,0.4,9.7,1.1,14.6,0.4c0.8-0.1,1.6,0.1,2.4,0.1
		c1.8,0.1,3.6,0.3,5.4,0.1c1.3-0.2,2.8-0.7,3.6-1.7C140.4,77.9,141.2,74.4,140.6,70.7z M72.2,15.2c0.9-0.4,1.7-0.1,2.4,1
		c-0.8,0.4-1.4,0.8-2.2,0.9c-0.2,0.1-0.9-0.5-0.9-0.8C71.5,16,71.8,15.4,72.2,15.2z M70.2,17.3c0.2,0.2,0.6,0.5,1,0.9
		c-0.7,0.5-1.4,1.1-2.1,1.6c0,0-0.7-0.5-0.7-0.8C68.4,18,68.9,17.4,70.2,17.3z M68.4,20.9c0.9-0.8,1.7-0.3,2.5,0.5
		c-0.5,0.7-1,1.6-2,0.8C68.6,21.9,68.3,21,68.4,20.9z M70.8,40.1c1-0.1,2.1-0.5,2.9-0.2c0.5,0.2,0.6,1.5,0.9,2.4
		c-1.3,0.1-2.5,0.1-3.6,0.2c0,0.1,0,0.3,0,0.4c0.4,0.1,0.8,0.3,1.1,0.3c2.2-0.3,3.5,0.9,4.6,2.6c1.3,1.9,2.9,3.5,4.3,5.4
		c0.3,0.5,0.3,1.4,0.1,1.9c-1,2.8-2.8,5.1-4.8,7.1c-1.1,1.1-2.1,2.1-3.2,3.2c-2.4,2.4-5.4,3.6-8.7,3.4c-1.9-0.1-3.7-1.3-5.5-2.2
		c-3.4-1.6-5.7-4.4-8.1-7.1c-0.5-0.5-0.5-0.9,0.1-1.4c4.9-3.9,8.7-8.6,11.7-14.1c0.1-0.2,0.3-0.3,0.7-0.8c0.5,1.3,0.9,2.4,1.4,3.7
		c0.7-1.7-0.2-2.7-0.7-3.9c-0.2-0.4-0.3-1-0.1-1.3c1.7-3.1,3.5-6.3,5.4-9.6c2.3,2.2,2.6,5.2,3.6,7.8c-0.9,0.7-1.7,1.3-2.5,1.8
		C70.7,40,70.7,40.1,70.8,40.1z M50.8,60.5c1.2-0.5,1.5,0.7,2.2,1.2c0.9,0.8,1.6,1.8,2.6,2.4c1.9,1.2,3.8,2.4,5.9,3.2
		c1.4,0.5,3,0.8,4.5,0.6c3.5-0.4,6.8-1.3,8.9-4.6c0.2-0.3,0.8-0.5,1.5-0.8c0.3,3.9,0.1,7.4-0.7,10.8c-0.4,1.9-0.8,3.8-1.2,5.7
		c-0.6,2.9-2.6,4.5-5.6,4.5c-1.2,0-2.5,0-3.7-0.1c-2.8-0.2-4.4-2.2-6.1-4c-0.5-0.5-1.1-1.1-1.7-1.5c-1.8-1.2-3.2-2.7-4.5-4.5
		c-2.3-3.3-4.8-6.6-7.2-9.9c-0.2-0.2-0.3-0.5-0.6-0.9C47.1,62,48.9,61.2,50.8,60.5z M45,61.2c1.4-1.2,2.8-2.5,4.4-3.8
		c0.5,0.7,0.8,1.2,1.3,1.9c-2,0.9-3.7,1.6-5.5,2.4C45.2,61.5,45.1,61.4,45,61.2z M71.2,26.5c-0.3,0.2-0.6,0.5-0.9,0.8
		c-0.5-0.3-1-0.7-1.6-1C69.8,24.9,70.2,24.9,71.2,26.5z M62.5,5.3c0.5-0.9,1-1.8,1.6-2.6c0.1-0.2,0.6-0.3,0.8-0.2
		c0.3,0.1,0.6,0.5,0.6,0.8c-0.1,0.5-0.3,1.1-0.6,1.6c-0.8,1.2-0.7,1.8,0.4,2.6c2.2,1.6,2.3,3.2,0.5,5.1c-1.1,1.1-1,3.3,0.1,4.6
		c0.4,0.5,0.8,0.9,1.3,1.5c-1,0.3-1.8,0.6-2.5,0.8c-1-1.7-2.1-3.2-1.7-5.1c0.2-0.7,0.3-1.5,0.8-2.1c1.3-2,1.2-2.7-0.6-4.1
		C62.4,7.3,62,6.4,62.5,5.3z M67.6,20.8c-0.6,0.6-1,1.1-1.1,1.1c-0.5-0.3-1-0.7-1.5-1.1c0.4-0.3,0.7-0.9,1.1-0.9
		C66.5,19.8,66.9,20.3,67.6,20.8z M59.7,19c0.1-0.3,1-0.6,1.2-0.5c0.8,0.6,0.7,1.4,0.2,2.3C60.3,20.5,59.3,20.1,59.7,19z M42.7,40.2
		c-1.4-0.7-1.2-2.2-1.7-3.3c-0.5-1.1-0.6-2.3-0.9-3.4l-0.4,0c0,0.6-0.2,1.3-0.1,1.9c0.8,2.2,1.1,4.6,3.1,6.3
		c0.4,0.3,0.3,1.3,0.5,2.1c-2.9-1.1-5.4-8.6-4.2-11.8C41.3,32.3,43.6,37.3,42.7,40.2z M38.9,28.3c0.2,0,0.6,0.3,0.6,0.5
		c0.2,0.6,0.2,1.2,0.4,1.9c-2,0.8-2.4,2.1-1.9,4.8c0.6,3.3,1.8,6.3,3.6,9c0.2,0.4,0.2,1.2-0.1,1.5c-0.6,0.8-1.4,1.4-2.2,2.1
		c-1.9-1.8-3.1-3.9-3.6-6.3c-0.7-3.2-0.2-6.4,0.4-9.5c0.1-0.7,0.3-1.3,0.4-2C36.7,29.1,37.7,28.2,38.9,28.3z M36.6,21.6
		c0.6,2,1,3.6,1.5,5.2c-0.7,0.3-1.3,0.6-1.9,0.7c-0.4,0-1.1-0.2-1.3-0.5c-0.7-1-1.3-2-2.2-3.4C34,23,35.3,22.3,36.6,21.6z
		 M28.2,84.1c0.3,1.4,0.6,2.4,0.7,3.4c0,0.3-0.3,0.6-0.5,0.9c-0.6-0.4-1.4-0.7-1.8-1.3c-0.3-0.4-0.3-1.2,0-1.7
		C26.8,85.1,27.5,84.8,28.2,84.1z M26.9,83.8c-1.8,1.4-3.7,2.6-5.5,3.9c-1.2,0.9-2.2,1.9-3.3,2.8c-0.4,0.4-0.9,0.7-1.4,1
		c-0.1-0.1-0.3-0.2-0.4-0.3c0.3-0.5,0.6-1.1,1-1.4c1.9-1.8,3.9-3.5,5.8-5.3c1.1-1.1,2.1-2.4,3.1-3.5c0.3-0.3,0.6-0.6,0.9-1
		C28.4,81.8,28.4,82.6,26.9,83.8z M36,67.8c-1.6,1.5-3,3.3-4.5,4.9c-0.8,0.9-1.7,1.9-2.5,2.8c-1.3,1.5-2.5,3.1-3.8,4.6
		c-1.7,2-3.6,3.8-5.4,5.8c-2.3,2.4-4.4,5.1-6.9,7.2c-1,0.8-3,1-4.3,0.6c-3.8-1.3-5.9-4.3-6.8-8.1c-0.1-0.6,0-1.3,0.3-1.8
		c1.5-2.9,3.3-5.6,5.8-7.8c2.5-2.2,4.5-4.8,6.9-7.1c1-1,2.2-1.8,3.4-2.6c0.9-0.7,2-1.3,2.9-2c3.1-2.2,6.2-4.2,9.1-6.5
		c3.9-3.2,7.6-6.7,11.4-10c1.7-1.4,2.8-3,2.5-5.3c-0.2-1.9-0.2-3.8,0-5.7c0.1-1.3,0.5-2.6,0.9-3.9c0.5-1.3,1.2-2.6,1.8-3.9
		c0.2-0.3,0.3-0.7,0.6-0.9c1.2-1,2.4-2,3.9-3.1c-0.2,3.3-2.4,5.3-3.9,7.6c2.5-1.9,4.1-4.4,4.9-7.4c0.1-0.5,0.3-1.1,0.6-1.4
		c1.7-2,3.7-3.6,6-4.6c0.7,0.9,1.2,1.7,1.8,2.6c-1.5,1.2-3.4,2.4-4.7,4c-1.3,1.6-2,3.6-2.9,5.5c0.1,0.1,0.3,0.2,0.4,0.3
		c0.7-1.1,1.6-2.2,2.1-3.4c0.5-1.1,1-2,2-2.7c2.2-1.6,4.4-3.2,6.5-4.7c0.6,0.7,1.1,1.3,1.7,2c-1.8,1.5-3.9,2.8-5.4,4.7
		c-1.4,1.7-3,3.5-3.2,5.9c2.2-3.9,5.4-6.8,8.5-9.3c1,0.5,1.8,1,2.6,1.5c-0.3-0.3-0.8-0.5-1-0.8c-0.2-0.4-0.2-1-0.3-1.5
		c0.6,0.1,1.4,0,1.7,0.3c0.5,0.7,0.8,1.6-0.4,2.1c-0.8,0.7-1.5,1.5-2.4,2.1c-1.5,1-2.7,2.3-3.5,3.9c-0.9,1.9-1.7,3.8-2.6,5.7
		c0.2,0.1,0.4,0.2,0.6,0.4c0.6-0.8,1.2-1.6,1.8-2.3c1.4-1.7,2.8-3.3,4.2-5c0.5-0.6,0.8-1.4,1.2-2.1c0.4-0.6,0.9-1.1,1.5-0.5
		c0.3,0.3,0.6,1.2,0.4,1.6c-1.1,2.2-2.4,4.3-3.7,6.5c-1.5,2.7-2.9,5.4-4.6,8c-1.7,2.6-3.8,5.1-5.7,7.6c-0.7,0.9-1.4,1.7-2.2,2.4
		c-0.7,0.7-1.6,1.3-2.4,1.9c-1,0.7-2,1.4-2.9,2.2C43.9,60.9,39.9,64.3,36,67.8z M65.8,29c-0.9,1.2-1.8,2.4-2.7,3.6
		c-0.1-0.1-0.3-0.2-0.4-0.3c0.9-1.2,1.7-2.4,2.6-3.7C65.5,28.7,65.6,28.9,65.8,29z M78.8,72.8c-0.4,2.8-0.7,5.5-1.7,8.2
		c-1.4,3.6-4.4,4.6-7.7,4.9c-0.6,0.1-1.2,0.1-1.8,0c0,0,0,0,0,0c-1.6,0-3.3-0.1-4.9-0.6c-1.3-0.5-2.3-1.4-3.5-2.2c0,0,0,0,0,0
		c-1.2-0.6-2.3-1.5-3.3-2.4c-3.8-3.3-6.6-7.4-9.3-11.6c-1-1.6-2.3-2.9-3.4-4.4c-0.2-0.3-0.1-0.8-0.1-1.2c0.4,0.1,1,0.2,1.2,0.4
		c1.4,1.6,2.8,3.2,4.1,4.9c0.9,1.1,1.7,2.4,2.3,3.7c1.5,2.9,4.1,4.7,6.4,6.8c0.9,0.8,1.7,1.8,2.5,2.7c0.3,0.3,0.5,0.5,0.8,0.7
		c0.8,0.6,1.5,1.2,2.4,1.6c0.8,0.3,1.6,0.5,2.4,0.6c1.5,0,3,0,4.6,0c3.2,0,6.1-2.9,6.3-6c0.2-2.1,0.7-4.3,1.1-6.4
		c0.1-0.5,0.2-1.1,0.3-1.6c0.1-2.3,0.2-4.5,0.3-6.8c0-0.6,0.3-1.2,0.5-1.8c0.2,0,0.3,0,0.5,0c0.1,0.4,0.2,0.8,0.3,1.2
		C79.4,66.6,79.2,69.7,78.8,72.8z M86.5,61.3c-2.9-0.1-6-0.3-9.1-0.4c-0.1-0.1-0.2-0.2-0.3-0.3c2.6-2.1,4.3-4.7,5.3-7.8
		c0.8,0.3,1.5,0.6,2.2,0.7c2,0.5,1.8,2.1,1.9,3.6C86.6,58.3,86.5,59.6,86.5,61.3z M94.2,61.2c-0.3-0.1-0.7-1-0.6-1.3
		c0.1-0.4,1-0.8,1.3-0.7c1.4,0.6,2.8,1.4,4.1,2.1c0,0.1-0.1,0.3-0.1,0.4C97.4,61.5,95.8,61.4,94.2,61.2z M139,74.9
		c-0.3,1.5-1.1,3.1-2,4.4c-1,1.5-2.9,1.9-4.6,1.8c-6.7-0.2-13.3-0.5-20-0.8c-3.8-0.2-7.7-0.4-11.5-0.5c-0.6,0-1.2-0.1-1.8-0.1
		c0-0.5-0.1-0.9-0.1-1.3c0.2-4.3,0.4-8.5,0.6-12.8c0-0.1,0-0.2,0-0.3c0-0.6,0-1.2,0-1.7c0.9,0,2.1-0.2,2.8,0.2
		c3.8,2.3,7.6,4.6,11.1,7.2c3.1,2.3,5.9,4.9,8.8,7.4c0.3,0.2,0.8,0.1,1.2,0.2c-0.1-0.4-0.1-0.9-0.4-1.2c-5.4-4.6-10.6-9.4-16.9-13
		c-1.4-0.8-2.6-2.2-4-3c-2.3-1.4-4.8-2.5-7.2-3.8C92.1,56,89,54.1,86,52.4c0.9-1.8,1.6-3.2,2.3-4.6c-0.1-0.1-0.2-0.1-0.3-0.2
		c-0.6,1-1.1,2-1.7,3c-0.9,1.4-1.3,1.2-2.8,0.7c-2.8-1-3.9-3.4-5.5-5.5c-2.8-3.6-3.5-8-5.3-12.1c-0.5-1.1-0.9-2.2-1.5-3.1
		c-1.2-1.7-1.1-2.5,0.6-3.6c3.1,2.5,4.7,5.8,5.8,9.5c0.2,0,0.4-0.1,0.6-0.1c0-0.4,0.1-0.8,0-1.1c-0.4-1.1-0.8-2.2-1.3-3.3
		c-0.5-1-0.9-2-1.6-2.8c-1.5-1.6-3.3-3.1-4.9-4.7c-0.3-0.3-0.5-0.9-0.7-1.4c0.7-0.5,1.3-1,1.9-1.5c1.8,1.3,3.7,2.4,5.2,4
		c1.4,1.5,2.3,3.5,3.4,5.3c0.1-0.1,0.2-0.2,0.3-0.3c-1.3-5.4-5.9-7.9-10-10.8c0.6-0.7,1.1-1.2,1.6-1.7c1.9,1.1,3.9,2.1,5.7,3.4
		c0.8,0.6,1.4,1.6,2,2.5c0.8,1.2,1.6,2.5,2.4,3.8c0.2,0.2,0.4,0.4,0.7,0.5C81.1,23.6,78,20,73,18.1c0.8-0.6,1.2-1.1,1.8-1.4
		c0.2-0.1,0.7-0.2,0.8-0.1c1.8,1.7,3.5,3.5,5.4,5.1c1,0.9,1.7,1.9,2.3,3.1c0.6,1.1,1.2,2.3,1.8,3.4c0.1-0.1,0.3-0.1,0.4-0.2
		c-1.1-2.2-2.1-4.3-3.4-6.8c0.7,0.3,1.2,0.4,1.4,0.7c1.1,1.3,2.2,2.7,3,4.2c0.9,1.8,1.4,3.9,2.2,5.8c0.8,2,1,4,0.8,6.2
		c-0.2,2.3,1.4,4.1,3.4,5.4c1.3,0.8,2.6,1.7,3.8,2.6c0.7,0.5,1.1,1.3,1.8,1.8c2,1.2,3.9,2.5,6,3.4c3.6,1.4,7.3,2.6,10.6,4.8
		c1,0.6,2.2,0.8,3.2,1.4c1.7,0.9,3.4,1.9,5.1,2.8c1.5,0.8,3.1,1.6,4.6,2.4c0.9,0.5,1.8,1.2,2.7,1.8c0.9,0.6,1.8,1,2.6,1.6
		c1.9,1.4,4,2.7,5.4,4.5C139.5,71.4,139.3,73.4,139,74.9z"/>
	<path class="st0" d="M66.8,61.6c-3.4,0.6-5.4-2.1-7.9-3.6c-0.1-0.1,0-0.9,0.2-1c2.2-1.1,4.6-1.2,7-1c0.4,0,0.9,0.2,1.1,0
		c1.7-1.1,3.6-0.7,5.4-0.5c1.1,0.1,1.2,0.6,0.5,1.5c-0.8,0.9-1.6,1.9-2.3,2.8C69.8,61.1,68.4,61.6,66.8,61.6z M61.4,58.7
		c3.1,3.8,8.9,2.8,10.6-1.7C68.7,59.3,65.2,59.4,61.4,58.7z M62.2,56.9c5,0.7,7.3,0.4,8.6-1C68.1,57,65.1,56.5,62.2,56.9z"/>
	<path class="st0" d="M69.8,49.3c0.1,0.2,0.1,0.4,0.2,0.5c0.8,1.4,0.2,2.2-1.2,2.9c-1.7,0.9-3.2,1-4.8,0.1c-0.2-0.1-0.5-0.1-0.8-0.1
		c-1.3-0.1-1.9-0.8-1.5-2c0.2-0.7,0.7-1.2,1.2-1.9c-0.3,0-0.6,0.1-1,0.2c-0.2,0.7-0.6,1.3-1,1.9c0,0.2,0,0.3,0,0.5
		c0,1.1,0.4,1.9,1.7,2.1c1.1,0.2,2.2,0.8,3.4,0.8c1.1,0,2.2-0.6,3.3-1c0,0,0.1,0,0.1,0c1.1-0.3,1.4-1.2,1.5-2.2
		C71.1,50,70.9,49.8,69.8,49.3z"/>
</g>
</svg>
