<?xml version="1.0" encoding="utf-8"?>
<!-- Generator: Adobe Illustrator 19.2.1, SVG Export Plug-In . SVG Version: 6.00 Build 0)  -->
<svg version="1.1" id="Layer_1" xmlns="http://www.w3.org/2000/svg" xmlns:xlink="http://www.w3.org/1999/xlink" x="0px" y="0px"
	 viewBox="0 0 200 218.5" style="enable-background:new 0 0 200 218.5;" xml:space="preserve">
<style type="text/css">
	.st0{fill:#00BCD4;}
</style>
<g id="headlice-boy">
	<path class="st0" d="M182.6,218.5c-0.8-2.3-1.1-4.8-2.4-7c-0.6-1-0.9-2.2-1.4-3.3c-0.1,0.1-0.1,0.2-0.2,0.4
		c-1.6-2.9-3.1-5.8-4.6-8.7c-0.2-0.4-0.4-0.9-0.6-1.3c-0.7-1.1-1.3-2.2-2-3.3c-0.8-1.3-0.8-2.8-0.9-4.2c-0.2-2.7-1.1-5.2-1.9-7.7
		c-0.4-1-0.6-2.1-1-3.2c-0.4-0.9-1-1.8-1.4-2.7c-0.9-1.9-1.7-3.9-2.6-5.8c-0.2-0.4-0.4-0.8-0.6-1.3c-0.1-0.2-0.2-0.4-0.3-0.4
		c-1.6-0.5-2.1-2-2.8-3.3c-1.1-2-2.8-3.4-4.7-4.7c-1.4-0.9-2.8-1.8-4.2-2.6c-1.3-0.7-2.7-1.1-4-1.7c-0.7-0.3-1.4-0.6-2.1-1
		c-1.7-1-3.5-1.9-5.2-3c-2.7-1.7-5.7-2.3-8.8-3c-1.8-0.4-3.4-1.4-5.1-2.2c-0.7-0.3-1.5-0.6-2.2-0.9c-0.1-0.1-0.3-0.1-0.4-0.2
		c-0.5-0.6-1-0.2-1.5,0.1c-0.5,0.3-0.5,0.7-0.4,1.2c0.2,1.2,0.4,2.5,0.5,3.7c0.2,1.8,0.4,3.6,0.7,5.3c0.3,1.9,0.7,3.8,1.1,5.7
		c0,0.2,0.1,0.5,0.1,0.7c-0.1,3,0.6,5.9,1.6,8.6c1.1,2.9,1.4,6,1.4,9.1c0,1.6,0.3,3.2,0.4,4.7c0,0.5,0.1,1.1-0.1,1.7
		c-0.1,0.3-0.5,0.7-0.7,0.7c-0.3,0-0.8-0.3-0.9-0.6c-0.2-0.7-0.3-1.5-0.4-2.2c-0.1-2-0.3-4.1-0.3-6.1c0-2.4-0.5-4.8-1.1-7.1
		c-0.8-3-1.4-6.1-2-9.1c-0.4-2.1-0.8-4.2-1.2-6.3c-0.2-1.3-0.5-2.5-0.8-3.8c-0.8,0.8-0.7,1.8-0.9,2.8c-0.1,0.7-0.3,1.3-0.6,1.9
		c-0.5,1.5-1,3-1.7,4.5c-0.9,1.9-2.1,3.6-3,5.4c-0.8,1.8-2,3.3-3.3,4.7c-2.2,2.5-4.4,4.9-6.7,7.3c-1.9,1.9-4.3,3.1-6.4,4.6
		c-2,1.5-4.3,2.3-6.6,2.9c-3.1,0.9-6.2,1.7-9.4,2.4c-1.4,0.3-2.8,0.4-4.3,0.5c-2.3,0-4.6,0.1-6.9-0.2c-1.6-0.2-3.2-0.9-4.8-1.2
		c-3.3-0.7-6.4-1.9-9.6-3.1c-1.8-0.7-3.3-1.8-4.9-2.9c-0.8-0.6-1.6-1.3-2.4-2c-1.2-1.2-2.4-2.4-3.6-3.6c-1-0.9-2.1-1.7-2.8-2.8
		c-1.6-2.3-2.9-4.8-4.4-7.3c-2.1,1.4-4.5,2.7-6.7,4.3c-1.4,1-2.6,2.4-4,3.6c-1.4,1.2-2.9,2.4-4.3,3.6c-1.8,1.5-3.5,3-5.2,4.5
		c-1.8,1.6-3.7,3.1-5.3,4.8c-1.1,1.1-1.8,2.4-2.7,3.7c-0.3,0.4-0.4,0.9-1,0.6c-0.6-0.3-0.6-0.8-0.2-1.4c1.2-1.9,2.5-3.6,4.3-5.1
		c2.2-1.7,4.2-3.8,6.3-5.7c1.4-1.3,3-2.4,4.4-3.7c1.1-0.9,2.3-1.8,3.3-2.9c2.5-2.7,5.4-4.8,8.6-6.6c0.8-0.4,1.5-0.9,2.4-1.3
		c-0.6-2.7-0.2-5.5-0.2-8.4c-0.2,0.2-0.4,0.4-0.6,0.6c-0.2,0.1-0.4,0.4-0.6,0.4c-2.1,0.1-3.5,1.6-5.1,2.7c-1.6,1.1-3.1,2.3-4.6,3.6
		c-1.2,1-2.4,2-3.4,3.1c-2.2,2.4-5.1,3.9-7.8,5.7c-2.2,1.4-4.2,3.1-6.2,4.6c-2.5,1.8-4.4,4.2-6.1,6.7c-0.4,0.5-0.7,1.1-1,1.6
		c-0.3,0.5-0.7,0.9-1.3,0.5c-0.6-0.4-0.5-0.9-0.2-1.4c1.9-3,4-5.8,6.8-8.1c2.2-1.7,4.3-3.5,6.6-5.1c2-1.4,4.3-2.6,6.3-4.1
		c1.6-1.2,3-2.8,4.5-4.1c2.7-2.4,5.4-4.7,8.6-6.4c2.3-1.2,4.1-3.1,6.1-4.8c1.8-1.5,3.7-2.8,5.4-4.3c1.4-1.2,2.8-2.5,4.1-3.8
		c1.1-1,2-2.2,3.2-3.1c1.4-1,1.1-2.3,0.9-3.5c-0.3-2-0.8-4-1.3-6c0-0.1-0.1-0.1-0.1-0.1c-1.1,0-2,0.1-3,0c-1.1-0.1-1.9-0.7-2.6-1.5
		c-3.1-3.7-4.4-8.3-5.9-12.7c-0.6-1.7-1.3-3.3-1.9-5c-1-2.9-1.8-5.9-1.5-9c0.2-1.6,0.6-3.2,0.8-4.8c0.2-2,0.2-4,0.1-6
		c-0.1-1.7-0.4-3.4-0.7-5c-0.4-2.2-1-4.4-1.4-6.6c-0.4-2.1-0.3-4.3,0.4-6.4c1-2.8,1.8-5.6,2.8-8.3c0.5-1.2,1.2-2.4,2-3.3
		c1.6-1.8,2.5-3.9,3.6-5.9c1.7-3,3.9-5.3,7.2-6.2c1.8-0.5,3.4-1.1,5-1.9c2-0.9,3.8-2.1,5.2-4c0.7-1,1.9-1.6,2.9-2.3
		c2.8-1.9,5.5-3.8,8.4-5.5c1.3-0.8,2.8-1.2,4.2-1.8c0.1,0,0.3,0,0.3-0.1c1.9-1.6,4-1.1,6.1-0.8c1.9,0.2,3.9,0.5,5.8,0.9
		c0.9,0.2,1.7,0.7,2.5,1c0.9,0.4,1.7,0.8,2.6,1.1c2.5,0.9,4.6,2.3,5.7,4.9c0.2,0.5,0.6,1,1,1.6c0.5-0.5,0.8-1,1.1-1.3
		c1.2-1.3,2.4-2.6,3.7-3.8c1-0.9,2.3-1.3,3.6-1.3c1.7,0,3.5-0.2,5.2,0c1.3,0.1,2.6,0.7,3.8,1.1c1.5,0.5,2.9,1.2,4.4,1.6
		c2.4,0.7,4,2.2,5,4.5c0.3,0.6,0.6,1.2,1,1.7c-0.4-1.4-0.8-2.8-1.1-4.3c-0.1-0.8-0.3-1.1-1.2-1.3c-0.8-0.1-1.6-0.9-2.2-1.5
		c-2.8-2.8-4.9-6.2-6.7-9.7c-0.8-1.4-1.3-3-0.5-4.7c0.7-1.5,1.2-3.2,1.8-4.8c0.4-1,0.2-1.8-0.5-2.6c-1-1.2-2-2.4-3-3.6
		c-0.7-0.8-0.7-1.9-0.1-3c0.4-0.6,0.8-1.3,1.2-2c-0.6-0.2-1.1-0.4-1.6-0.6c-1-0.3-1.2-0.7-0.7-1.6c0.8-1.5,2.1-2.6,3.6-3.6
		c0.9-0.6,1.8-1.3,2.8-1.8c0.7-0.4,1.5-0.6,2.2-0.8c1.4-0.4,2.8-0.9,4.3-1.1c2.1-0.3,4.2-0.4,6.4-0.5c2.3-0.1,4.5-0.3,6.8-0.3
		c1.4,0,2.9,0,4.2,0.8c1.2,0.8,2.6,1.3,4,1.9c2.1,0.9,3.8,2.3,5.6,3.7c1.8,1.4,3.6,2.6,5.8,3.2c1.9,0.4,3.8,0.7,5.6,1.4
		c3.7,1.3,7.2,3,10.5,5.2c1.4,0.9,3,1.4,4.6,2.1c0.5,0.3,1,0.6,1.6,0.9c1,0.5,2.1,1,3.1,1.5c0.8,0.4,1.6,0.9,2.4,1.3
		c1.1,0.5,2.3,1,3.4,1.5c0.5,0.2,1,0.5,1.5,0.7c0.6,0.3,1,1,1.8,0.6c0.1-0.1,0.6,0.3,0.6,0.5c0.1,0.2-0.1,0.6-0.3,0.7
		c-0.7,0.5-1.5,0.6-2.1,0c-1.3-1.1-2.8-1.5-4.4-2c-0.1,0-0.2-0.1-0.3-0.2c-2.3-1.2-4.6-2.5-7-3.7c-1.4-0.7-3-1.2-4.4-2
		c-2.3-1.2-4.5-2.6-6.9-3.8c-1.8-0.9-3.8-1.6-5.7-2.4c-0.3-0.1-0.6-0.2-0.9-0.2c-1.9,0.3-3.5-0.6-5.1-1.2c-2.3-0.8-4.1-2.4-6-3.9
		c-1.5-1.2-3.1-2.2-4.9-2.8c-0.9-0.4-1.9-0.7-2.7-1.3c-1.3-1-2.7-0.9-4.2-0.9c-2.6,0-5.2,0.1-7.9,0.2c-2.5,0.1-5,0.3-7.4,1.1
		c-0.6,0.2-1.3,0.3-2,0.4c-2.1,0.5-3.8,1.9-5.5,3.1c-0.8,0.5-1.4,1.3-2.2,2.2c0.5,0.1,0.8,0.2,1.1,0.3c0.9,0.2,1.9,0.6,2.8,0.6
		c0.8,0,1.6-0.3,2.4-0.4c1.6-0.2,3.4-0.3,4.8,0.7c1.3,0.9,2.5,0.5,3.7,0c0.5-0.2,0.9-0.9,1.1-1.4c0.3-0.7,0.5-1.5,0.8-2.2
		c0.1-0.3,0.5-0.4,0.8-0.6c0.2,0.3,0.5,0.5,0.6,0.9c0.1,0.2-0.1,0.5-0.2,0.7c-0.3,1-0.7,1.9-1.1,3c0.5,0.2,1,0.6,1.6,0.7
		c1.3,0.2,2.5,0.4,3.8,0.6c0.6,0.1,1.1,0.3,1.7,0.3c0.4,0,0.9,0,1.1-0.2c0.6-0.8,1.2-1.7,1.7-2.5c0.2-0.3,0.3-0.6,0.5-0.8
		c0.3-0.4,0.7-0.8,1.2-0.3c0.2,0.2,0.2,0.9,0.1,1.1c-0.8,1.4-1.7,2.7-2.7,4.2c1,1.2,2.2,2.4,3.7,3.4c0.6,0.4,1.1,1,1.8,1.4
		c1.1,0.6,3,0.9,4.1-0.1c0.5-0.5,1.1-0.8,1.8-1.2c0.2-0.1,0.8-0.1,0.8,0.1c0.1,0.2,0.1,0.8,0,0.9c-1.2,1-2.4,2-4.1,2.2
		c-0.4,0-0.8-0.1-1.5-0.1c1.5,1.4,2.9,2.8,4.3,4c2.3,1.9,4.5,3.8,6.2,6.2c0.1,0.1,0.2,0.2,0.4,0.5c0.4-0.9,0.8-1.6,1.2-2.4
		c0.9-1.9,1.7-3.7,2.5-5.6c0.1-0.2,0.2-0.3,0.3-0.5c0.3-0.5,0.6-1,1.2-0.7c0.7,0.3,0.6,0.9,0.3,1.5c-0.9,1.9-1.9,3.8-2.8,5.7
		c-0.5,1-1.1,2-1.7,3.1c0.3,0.3,0.5,0.7,0.9,1.1c0.1,0.1,0.4,0.1,0.5,0.1c1.3-0.4,2.6-0.9,3.9-1.3c3.4-1.2,6.7-2.5,10.1-3.7
		c1.6-0.5,3.2-0.7,4.9-1c0.1,0,0.3,0,0.4,0c0.6,0,1.1,0.1,1.1,0.8c0,0.7-0.5,0.9-1,1c-1.9,0.4-3.9,0.5-5.7,1.1
		c-3,0.9-5.9,2.2-8.8,3.2c-1.9,0.7-3.9,1.3-5.8,1.9c-0.3,0.1-0.6,0.2-1,0.4c0.4,0.4,0.7,0.7,1.1,0.9c1.5,1,1.9,2.5,2.1,4.1
		c0,0.3-0.6,0.8-0.9,1.2c-0.3-0.4-1-0.8-1-1.2c0-1.6-0.8-2.6-2.1-3.4c-0.9-0.6-1.7-0.9-3-0.4c-1.7,0.7-3.7,1-5.6,1.4
		c0.1,0.1,0.3,0.2,0.5,0.3c0.6,0.4,1.1,0.8,1.2,1.6c0.3,1.5,0.8,3.1,1,4.6c0.2,1.2-0.7,2.2-2,2.5c-0.6,0.1-1.1,0.2-1.7,0.4
		c-0.6,0.2-1.1,0.4-1.6,0.7c0.7,0.1,1.4,0.2,2,0.2c2.4,0.1,4.7,0.5,7.1-0.2c2.1-0.6,4.1-1.2,6.3-1.6c1.4-0.3,2.9-0.2,4.3-0.2
		c1.2,0,2.4,0.2,3.6,0.2c2.7,0,5.2,0.8,7.8,1c2.4,0.2,4.9,0.5,7.3-0.2c0.5-0.1,0.9-0.4,1.3-0.7c0.5-0.5,0.8-0.3,1.2,0
		c0.5,0.4,0.3,0.8-0.1,1.1c-1,1-2.4,1.4-3.8,1.5c-2.2,0.2-4.3,0.1-6.5,0c-1.4-0.1-2.7-0.6-4.1-0.7c-1.5-0.2-3-0.2-4.7-0.3
		c2.3,2.3,4.4,4.6,7.6,5.2c0.7,0.1,1.4,0.3,2.2,0.3c2.6,0,5.2,0,7.8-0.2c1.8-0.1,3.5-0.7,5.2-1c0.2,0,0.5-0.2,0.7-0.1
		c0.3,0.1,0.6,0.3,0.9,0.5c-0.2,0.3-0.3,0.8-0.6,0.9c-1.3,0.4-2.7,0.9-4.1,1c-2.5,0.3-5,0.4-7.6,0.6c-0.3,0-0.6,0-0.8,0
		c0.5,2.7,0.6,5.3-0.9,7.8c-0.4,0.7-0.6,1.5-1.1,2.1c-2.3,2.8-5,5.3-8.5,6.6c-1.5,0.5-2.9,1.3-4.4,1.7c-2.3,0.5-3.8,0.1-5.3-1.7
		c-1.6-1.9-3.5-3.5-5.2-5.3c-0.7-0.7-1.4-1.5-2-2.3c-0.7-0.9-0.9-0.9-2-0.6c-0.6,0.2-1.3,0-1.9-0.2c-1.8-0.8-3.5-2-4.9-3.5
		c-0.6-0.6-1.6-0.7-2.5-1.1c-2.3-0.9-4.2-2.5-6.1-4.2c-1.2-1.1-2.5-2.1-3.7-3.2c-0.1,0-0.1,0.1-0.2,0.1c0.2,0.5,0.6,0.9,0.7,1.4
		c0.3,0.9,0.5,1.8,0.7,2.8c0.4,1.5,1,2.9,2,4c1.2,1.4,1.8,3,2.2,4.8c0.3,1.2,0.8,2.3,1.2,3.4c0.6,1.7,1.2,3.5,1.9,5.2
		c0.1,0.4,0.5,0.8,0.8,0.9c4.1,1.9,8.3,3.8,12.5,5.6c1.1,0.5,2.3,0.8,3.5,1.1c1.9,0.5,3.7,1.2,5.4,2.3c1.7,1.1,3.6,1.7,5.6,2.2
		c1.8,0.5,3.5,1.3,5.3,1.9c3.1,0.9,5.6,2.8,8.2,4.6c1.3,0.9,2.9,1.4,4.2,2.2c2.4,1.5,4.8,3.1,7,4.9c1.3,1.1,2.2,2.6,3,4.1
		c1.1,1.9,2.3,3.7,3.9,5.3c0.1,0.1,0.3,0.3,0.3,0.4c0,0.4-0.1,0.8-0.1,1.1c-0.4-0.1-0.9,0-1.1-0.2c-1.3-1.5-2.7-2.9-3.6-4.6
		c-1.6-3.1-3.7-5.6-6.7-7.5c-2-1.3-4.1-2.6-6.2-3.6c-1.9-1-3.7-2.3-5.6-3.4c-1.6-0.8-3.2-1.5-4.9-2.1c-2.7-1-5.5-1.9-8.2-2.9
		c-0.9-0.3-1.7-0.8-2.5-1.3c-1.6-1.1-3.4-1.5-5.3-2.1c-0.5-0.2-1-0.3-1.7-0.5c-1,1.2-1.9,2.6-3,3.8c-0.2,0.2-0.9,0.4-1.1,0.3
		c-0.6-0.4-0.5-1-0.2-1.5c0.8-1.1,1.6-2.1,2.5-3.2c-3-1.3-6.1-2.7-9.3-4c-0.4,0.7-0.8,1.4-1.2,2.2c-0.3,0.6-0.7,0.7-1.2,0.5
		c-0.5-0.3-0.5-0.7-0.3-1.2c0.3-0.6,0.7-1.2,1-1.9c0.1-0.2-0.1-0.6-0.3-0.7c-0.9-0.6-1.8-1.2-2.7-1.7c-0.9-0.4-1.8-0.6-2.8-0.8
		c0.4,0.4,0.8,0.7,1.2,1.1c0.7,0.7,0.8,1.7,0,2.4c-0.8,0.7-1.6,1.4-2.4,2.1c-1,0.9-2.1,1-3.4,0.7c-0.2-0.1-0.5,0-0.9,0
		c1.3,1.3,2.4,2.5,3.9,3.4c2.5,1.4,4.9,3.1,7.4,4.6c1.7,1.1,3.4,2,5,3.2c1.5,1.1,3,2.3,4.5,3.4c0.3,0.2,0.7,0.3,1,0.3
		c2,0,4-0.1,5.9,0.5c0.5,0.2,1,0.4,0.8,0.9c-0.1,0.6-0.7,0.5-1.2,0.4c-2.4-0.9-4.9-0.4-7.3-0.5c-0.6,0-1.1-0.1-1.7,0
		c-2.9,0.5-4.5,2.5-5.2,5c-0.7,2.6-0.4,5.2,0.6,7.7c0.5,1.2,1.8,2,2.6,1.5c0.7-0.5,1.4-1,2.1-1.5c0.3-0.2,0.6-0.6,0.9-0.7
		c0.4-0.1,0.8,0,1.3-0.1c0,0.4,0.1,1-0.1,1.3c-0.5,0.6-1.2,1.2-1.8,1.6c-1.8,1.1-2.4,2.8-2.8,4.7c-0.1,0.9,0,1.8,0.1,2.7
		c0.2,2.2,1.7,2.9,3.6,3.1c1.5,0.2,2,0.6,1.5,2.1c-0.5,1.8-0.6,3.5-0.2,5.4c0.1,0.6-0.3,1.5,0.2,2.1c0.8,1.1,1.6,2.2,2.4,3.3
		c0.7,0.9,1.3,1.9,2.1,2.8c0.7,0.7,1.4,1.5,2.3,1.9c1.5,0.7,3,1.5,4.4,2.4c1.7,1.1,3.8,1.7,5.7,2.5c1.4,0.6,2.8,1.4,4.2,2.1
		c2.3,1,4.7,1.9,7,2.9c1,0.4,2,0.8,2.8,1.4c1.6,1.2,3.4,1.8,5.3,2.5c1.3,0.5,2.7,1.2,3.9,1.9c0.2,0.1,0.4,0.8,0.3,1
		c-0.2,0.3-0.8,0.5-1.1,0.4c-1.1-0.4-2.1-1-3.1-1.5c-1.7-0.7-3.4-1.4-5.1-2.1c-0.3-0.1-0.6-0.4-1-0.6c-1-0.5-1.9-1-3-1.4
		c-3.1-1.1-6.2-2.4-9-4c-0.5-0.3-1-0.6-1.5-0.7c-2.7-0.9-5.4-2-7.8-3.7c-1.1-0.8-2.5-1.2-3.7-1.9c-0.9-0.6-1.6-1.4-2.3-2.2
		c-1.1-1.4-2.2-2.9-3.3-4.3c-1.3-1.6-1.8-3.5-1.8-5.4c0-1.6,0.1-3.1,0.2-4.7c0.1,0,0.2-0.1,0.3-0.1c-0.4-0.1-0.9-0.2-1.3-0.3
		c-2.1-0.6-3.4-2-3.8-4.2c-0.4-2.2-0.3-4.3,0.9-6.2c0.1-0.1,0.1-0.2,0.2-0.3c0-0.1,0-0.2,0-0.3c-0.5-0.1-1.1-0.3-1.6-0.4
		c-0.2,0-0.5,0.2-0.7,0.3c-0.6,0.8-1.2,1.6-1.9,2.3c-0.3,0.3-0.8,0.6-1.2,0.8c-1,0.5-1.7,1.2-2.3,2.2c-1.2,2.2-3.2,3.4-5.6,4.2
		c-1.2,0.4-2.5,0.7-3.5,1.3c-1.2,0.8-1.7,2.2-1.9,3.6c-0.4,3-0.7,6-1.1,9c-0.3,2.2-1.3,4.2-2.1,6.3c-0.4,1.2-0.8,2.3-1.2,3.5
		c-0.1,0.2,0.2,0.7,0.4,0.8c2.1,1.2,4.3,2.1,6.6,2.7c2.7,0.8,5.3,1.8,8,2.7c1.4,0.5,2.7,1,3.7,2.1c0.2,0.2,0.4,0.3,0.7,0.4
		c0.8,0.4,1.6,0.7,2.2,1.2c1.9,1.4,4.1,1.9,6.2,2.9c0.9,0.5,1.8,0.9,2.7,1.5c1.1,0.6,2.1,1.4,3.2,2c1.9,1.2,3.5,2.8,4.8,4.8
		c0.8,1.2,2.1,2.2,2.9,3.4c0.9,1.5,1.6,3.1,2.3,4.7c1,2.2,2.2,4.4,3,6.7c1.8,5.3,3.4,10.7,5.2,16c0.6,1.8,1.5,3.6,2.5,5.2
		c1.9,3,3.4,6.1,4.8,9.2c1.1,2.5,1.9,5.1,2.7,7.8C183.7,218.5,183.1,218.5,182.6,218.5z M95.4,172.1c0-0.1,0-0.2,0-0.2
		c1.7,0.3,3.3,0,4.7-1.1c2.3-1.8,4.6-3.5,6.9-5.3c1.5-1.2,3-2.5,4.3-4c1.5-1.6,2.7-3.4,4-5.2c2.8-3.7,4.7-7.9,6-12.3
		c0.1-0.5,0.2-0.9,0.4-1.4c0.3-1.2,0.5-2.4,0.9-3.5c1.7-4.9,2.9-9.9,3.1-15c0.1-1.9,0.8-3.7,1.2-5.5c0.3-1.6,0.6-3.1,0.6-4.7
		c0-0.8,0.3-1.6,0.3-2.4c0.1-1.9,0.2-3.7,0.2-5.6c-0.1-2-0.3-4-0.5-6c-0.2-1.6-0.4-3.1-0.6-4.7c-0.2-1.3-0.4-2.6-0.6-4
		c-0.2-1.4-0.4-2.9-0.7-4.3c-0.6-2.7-2.2-4.9-3.5-7.3c-0.9-1.7-2.3-3-4-3.9c-1.4-0.8-2.8-1.6-4.2-2.4c-1.3-0.7-2.7-1-4.1-0.7
		c-1.2,0.3-2.4,0.7-3.5,1.2c-1.4,0.7-2.6,1.7-4,2.4c-2,1-4,1.8-6,2.7c-1.4,0.7-2.8,0.7-4.2,0c-1.9-0.9-3.8-2-5.8-2.9
		c-2.7-1.2-5.4-1.7-8.3-0.7c-2.9,1-5.8,2.1-8.1,4.3c-1.4,1.4-3,2.7-4.4,4.2c-1.7,1.7-2.1,3.9-1.9,6.3c0.3,2.9,2.3,5,4.1,7
		c0.5,0.5,0.5,0.9,0.1,1.4c-1,1.1-3.5,1.7-5,0.9c-1.3-0.7-2.4-1.5-3.6-2.3c-1.6-1-3.4-1.7-5.2-0.9c-0.6,0.2-1.2,1-1.4,1.6
		c-0.3,1.1-0.2,2.3-0.2,3.4c0,0.4,0.2,0.8,0.1,1.2c-0.1,1.3-0.2,2.6-0.3,3.8c-0.1,1.8-0.3,3.6-0.3,5.4c0,0.9,0.1,1.8,0.1,2.6
		c0,0.5-0.2,1-0.4,1.5c-0.1,0.2-0.3,0.3-0.3,0.5c0,1-0.1,2.1,0.1,3.1c0.6,2.7,1.3,5.3,1.9,8c0.2,1.1,0.7,2.3-0.2,3.4
		c-0.1,0.2-0.1,0.6,0,0.9c0.5,2.5,1.1,5,1.7,7.6c0.3,1.1,0.7,2.1,1.2,3.2c1.1,2.3,2.1,4.6,3.4,6.8c1.1,1.7,2.6,3.2,4,4.7
		c1.5,1.7,3.1,3.3,4.6,5c1.2,1.3,2.2,2.7,3.6,3.7c2.7,1.9,5.4,3.7,7.9,5.8c3.2,2.6,6.9,3.7,10.9,3.7C91.9,172,93.6,172.1,95.4,172.1
		z M53.2,143.1c-0.7,0.6-1.4,1.2-2,1.8c-1.3,1.3-2.5,2.8-3.8,4c-1.6,1.3-3.4,2.4-5,3.7c-1.5,1.2-3.3,2.3-3.4,4.6
		c0,0.5-0.2,1-0.2,1.5c0,1.8-0.2,3.6,0,5.4c0.5,3.6,2.4,6.6,4.5,9.5c1.1,1.6,2.8,2.8,4.2,4.3c0.5,0.5,0.9,1.2,1.4,1.6
		c2,1.4,3.6,3.2,5.8,4.4c1.6,0.9,3.2,1.6,4.8,2.2c2.1,0.7,4.3,1.2,6.4,1.8c1.9,0.5,3.9,1.3,5.8,1.4c3.7,0.3,7.4,0.1,11-0.9
		c2.1-0.6,4.3-1.2,6.4-1.8c2.1-0.6,4.2-1.2,6.2-2.3c4.1-2.3,7.7-5.3,10.7-8.9c1.2-1.4,2.4-2.7,3.6-4.1c0.6-0.7,1.1-1.5,1.6-2.4
		c1.1-1.9,2.1-3.8,3.1-5.7c0.6-1.1,1.1-2.2,1.6-3.3c0.1-0.2-0.1-0.6-0.1-0.9c-0.3,0.1-0.7,0.1-0.9,0.4c-0.6,0.8-1.2,1.6-1.8,2.4
		c-2.9,3.4-6,6.5-9.8,9c-3.8,2.5-7.7,4.8-11.6,7.1c-0.6,0.4-1.2,0.6-1.9,0.8c-1.2,0.4-2.4,0.6-3.6,1.1c-2.6,1-5.2,1.5-8,1.3
		c-2.9-0.2-5.9,0-8.8-0.5c-2.1-0.4-4.1-1-6-1.9c-1.6-0.8-2.7-2.3-3.8-3.7c-0.8-1-1.6-2.1-2.7-2.7c-0.9-0.5-1.5-1.2-2.1-2
		c-1.5-1.7-2.3-3.8-3.3-5.8c-0.7-1.4-1.2-2.9-1.1-4.5c0.1-1.9,0-3.9,0-5.8c0-0.2,0-0.4,0.1-0.5c0.7-1.8,1.3-3.6,2-5.4
		c0.3-0.8,0.8-1.4,1.3-2.3C53.7,145,53.5,144.1,53.2,143.1z M130.8,38.8c2.3,2.6,4.6,5.1,6.9,7.6c1.3,1.5,2.7,3,4.1,4.4
		c1.8,1.7,3.8,3.3,5.6,5c1.3,1.2,2.4,2.6,3.6,3.9c1.1,1.2,2.3,2.4,3.4,3.6c2.6,2.7,5.1,5.5,7.7,8.2c0.1,0.1,0.3,0.3,0.5,0.3
		c1.3-0.1,2.6,0.4,3.8-0.5c0.8-0.6,1.8-0.8,2.8-1.2c0.7-0.3,1.4-0.4,2-0.9c1.6-1.2,3.3-2.3,4.6-3.7c1.1-1.2,1.8-2.7,2.6-4.1
		c0.9-1.6,0.9-3.4,0.6-5.1c-0.1-0.6-0.5-1-1.3-1.1c-1.2-0.2-2.3-0.6-3.4-0.9c-1.7-0.5-2.9-1.7-4.1-2.9c-0.9-0.9-1.7-1.9-2.7-2.8
		c-0.3-0.3-0.8-0.6-1.3-0.6c-2.4-0.2-4.7,0.3-7.1,1c-1.8,0.6-3.5,1.2-5.4,1.1c-2.4-0.1-4.8-0.4-7.2-0.5c-1.4-0.1-2.7-0.2-3.9-1.1
		c-0.5-0.4-0.9-0.7-1.4-1.1c-1.9-1.4-3.1-5.1-1.3-7.1c0.8-0.9,2-1.5,3.1-2.1c3-1.6,6.3-2,9.6-2.7c2-0.4,3.9-1.2,6-1.9
		c-3.2-4.6-7.4-8-11.4-11.9c0,0.8,0.1,1.4,0.1,2c0,1.6,0.1,3.2-0.8,4.7c-0.4,0.7-0.9,1.4-1.3,2.1c-1,1.9-2.3,3.5-4.2,4.7
		C138,37.1,134.7,38.7,130.8,38.8z M95.5,173.5c0-0.1,0-0.1-0.1-0.2c-1.1,0-2.2-0.1-3.2,0c-3.2,0.5-6.2-0.1-9.2-1.3
		c-1.6-0.6-3-1.7-4.5-2.6c-0.8-0.5-1.6-1.1-2.3-1.6c-0.9-0.7-1.8-1.5-2.8-2.2c-1.7-1.3-3.7-2.3-5.1-4c-1.2-1.4-2.3-2.8-3.6-4.1
		c-1.5-1.7-3.2-3.2-4.7-4.9c-1.5-1.7-2.9-3.4-3.7-5.6c-0.3-0.8-0.7-1.5-1.1-2.2c0.1,0.7,0.3,1.3,0.4,2c0.8,3.2,1.6,6.4,2.3,9.6
		c0.2,0.8,0.4,1.7,0.5,2.5c0,0.3-0.4,0.8-0.7,0.8c-0.3,0-0.7-0.3-0.8-0.6c-0.4-1.2-0.6-2.5-0.9-3.7c-0.6-2.5-1.2-5.1-1.8-7.8
		c-0.3,0.7-0.5,1.2-0.7,1.7c-0.5,1.4-1.2,2.8-1.4,4.3c-0.3,2-0.2,4-0.2,6c0,0.6,0.2,1.2,0.3,1.8c0.7,2.5,2.3,4.4,3.8,6.3
		c2,2.4,4.3,4.6,6.4,6.9c0.2,0.2,0.6,0.6,0.5,0.8c-0.2,0.8,0.4,1.1,0.9,1.3c1.2,0.6,2.4,1.2,3.7,1.5c3.5,0.7,7.1,1.1,10.7,0.9
		c0.5,0,1-0.1,1.6-0.1c0.7,0,1.4,0.2,2,0c2.7-0.8,5.4-1.5,8-2.5C92,175.8,93.7,174.6,95.5,173.5z M39.9,111.7c0,0.6,0,1,0.1,1.3
		c0.5,1.4,1.6,2.5,1.2,4.1c1.4,4.5,2.7,9.1,5.6,12.9c0.8,1,2.4,1.7,3.6,1.2c0.3-0.1,0.7-0.5,0.8-0.8c0.2-1.6-0.1-3.3-0.9-4.6
		c-1-1.5-2.2-3.1-4.2-3.7c-1.2-0.4-1.9-1.4-2.5-2.5c-0.1-0.2,0-0.7,0.1-0.8c0.1-0.1,0.6-0.1,0.8,0c0.2,0.1,0.3,0.4,0.5,0.6
		c0.6,0.5,1.2,1.1,1.8,1.6c0.7,0.5,1.5,0.8,2.2,1.4c0.7,0.6,1.3,1.3,2,2.1c-0.3-1-0.5-1.8-0.7-2.6c-0.3-1.4-0.9-2.8-0.5-4.4
		c0.1-0.5-0.1-1-0.7-1.4c-1.3-0.7-2.6-1.3-3.6-2.6c-1.3-1.8-2.8-3.4-4.2-5.1c-0.9-1.1-1.8-2.1-2.7-3.1c-0.1,0-0.2,0.1-0.3,0.1
		c0.1,1.9-0.4,3.8,0.7,5.5c1.4-0.6,2.5-0.2,3.5,0.7c0.4,0.3,0.7,0.7,0.4,1.1c-0.2,0.2-0.8,0-1.1-0.1C41.2,112.3,40.7,112,39.9,111.7
		z M125.2,27.9c0.3,0.4,0.5,0.6,0.7,0.9c0.9,0.9,1.9,1.9,2.8,2.8c1.5,1.5,2.4,1.7,4.2,0.8c1.5-0.7,3-1.6,4.4-2.4
		c1.4-0.8,2.3-1.9,3-3.3c0.7-1.5,1.1-3,0.4-4.5c-1-2.2-3-3.4-4.7-5C135.5,23.8,131,26.5,125.2,27.9z M126.7,31.6
		c-0.4,2.4,0.6,4.2,2.5,5.4c0.5,0.3,1.2,0.4,1.7,0.3c1.4-0.2,2.9-0.3,4.2-0.8c1.8-0.7,3.5-1.8,5.2-2.8c1.1-0.6,2.2-1.3,2.9-2.5
		c0.6-1,1.2-1.9,1.8-2.9c0.3-0.6,0.8-1.2,0.8-1.9c0.1-1.7,0.2-3.4,0-5.1c-0.2-1.7-1-3.3-2.9-3.6c-1.1-0.2-2.3,0.1-3.5,0.2
		c-0.1,0.2-0.2,0.3-0.3,0.5c0.3,0.2,0.7,0.3,0.9,0.5c0.7,0.9,1.5,1.7,1.9,2.7c1.4,3.1-0.7,7.2-3.2,9c-2.2,1.5-4.5,3.1-7.3,3.6
		c-0.9,0.2-1.7,0.2-2.4-0.4C128.4,33.1,127.6,32.4,126.7,31.6z M135.5,71.9c-0.6-0.9-1.2-1.8-1.8-2.6c-1.1-1.4-2.3-2.7-3.4-4.1
		c-1-1.2-1.8-2.6-2.7-3.8c-2-2.8-3.9-5.7-6.1-8.4c-1.7-2.2-3.7-4.3-5.6-6.4c-0.9-1-1.9-1.9-2.7-2.9c-0.7-1-1.8-1.3-2.8-1.5
		c-0.6-0.2-0.9,0.3-0.8,0.9c0,0.2,0.1,0.4,0.2,0.5c-0.3,0.2-0.6,0.3-0.7,0.5c-0.1,0.8-0.2,1.7-0.2,2.5c0,0.5,0.6,0.6,0.8,0.2
		c0.2-0.3,0.4-0.8,0.4-1.2c0.1-0.4,0-0.7,0-1.4c0.7,0.7,1.2,1.2,1.7,1.7c1.4,1.4,2.8,2.9,4.2,4.3c1.2,1.2,2.4,2.4,3.5,3.7
		c1.5,2,2.9,4.1,4.4,6.1c2.4,3.4,5,6.7,7.4,10.1C132.3,71.5,133.4,72.4,135.5,71.9z M146.7,39.1c-1.6-0.2-2.9,0.3-4.2,1.2
		c-0.2,0.1-0.4,0.2-0.6,0.3c-1,0.5-1.4,1.6-1.2,2.7c0.3,1.2,0.8,2.3,1.9,3c0.6,0.4,1.1,1.3,1.9,0.3c0,0,0.2,0,0.3,0
		c1.6-0.4,3.3-0.8,4.9-1.3c0.6-0.2,1.4-0.5,1.2-1.3c-0.2-1.3-0.6-2.6-1-3.9c-0.1-0.3-0.5-0.7-0.8-0.8
		C148.3,39.2,147.5,39.2,146.7,39.1z M118.2,16.6c0.5,0.4,0.9,0.7,1.3,1.1c0.4,0.4,0.7,0.9,1,1.3c0.5,1.1,2.3,1.6,3.2,1.2
		c2.3-1.1,4-2.8,4.8-5.3c0.3-1,0.1-2-1-2.6c-0.3-0.2-0.7-0.4-0.8-0.7c-0.5-0.9-1.3-1.2-2.2-1.3c-0.2,0-0.7,0.2-0.8,0.4
		C122.6,13.4,120.6,14.9,118.2,16.6z M132,49.2c0.8,0.6,1.6,1.2,2.5,1.7c0.5,0.3,1,0.6,1.5,0.6c1.3-0.1,2.5-0.3,3.9-0.5
		c-3.4-3.8-6.8-7.4-10.2-11.2c-0.9,2.7,0.6,4.8,1.2,7.1c0.5-0.4,0.8-0.9,1.3-1.2c0.3-0.2,0.8-0.2,1.1-0.1c0.1,0,0.2,0.7,0.1,0.9
		C132.9,47.5,132.5,48.4,132,49.2z M123,24c-0.2,1.3,0.9,2.8,1.8,2.6c2.6-0.7,5.1-1.3,7.1-3.3c1.7-1.8,2.9-3.7,2.8-6.4
		c-0.1-1.1-1.4-2.6-2.5-2.1c0.4,1.6,0.7,3.1-0.4,4.5c-1.6,2.2-3.7,3.7-6.4,4.4C124.7,23.9,123.8,23.9,123,24z M125.2,33.3
		c0.1-1,0.2-1.9,0.3-2.8c0-0.1-0.1-0.3-0.2-0.4c-0.7-0.8-1.3-1.6-2-2.3c-1.2-1.2-1.9-2.5-1.7-4.2c0.1-0.9-0.4-1.3-1.2-1.7
		c-0.6,2-1.3,3.8-1.8,5.7c-0.2,0.9,0.2,1.8,0.9,2.5C121,31.8,123,32.6,125.2,33.3z M135.7,75.3c-1.3-0.8-2.5-1.4-3.6-2.1
		c-0.7-0.5-1.4-0.9-2.2-0.6c-0.9,0.3-1.8,0.8-2.4,1.5c-0.5,0.5,0.3,2.5,1.2,2.9c0.5,0.3,0.9,0.5,1.4,0.7c1.6,0.7,2.9,0.4,4.1-0.8
		C134.6,76.4,135,76,135.7,75.3z M142.2,16c-0.5-0.5-1.1-0.9-1.5-1.4c-1-1.4-2.4-1.7-4-1.9c-1.7-0.2-3.6-0.2-5-1.5
		c-0.2-0.1-0.5-0.2-0.7-0.1c-0.7,0.2-1.5,0.4-2.3,0.6c0.8,0.6,1.6,1.2,2.4,1.8c0.2,0.1,0.5,0.1,0.7,0.1c1.2-0.4,2.3,0,3.2,0.8
		c1.1,0.9,2.1,1.8,3.1,2.6C139.4,16.7,140.7,16.4,142.2,16z M129.9,14.4c-1.2,3.8-3.2,6.5-7.2,7.2c0.7,1.2,1.8,0.9,2.9,0.7
		c1.8-0.4,3.2-1.6,4.4-2.8c1.1-1,1.6-2.3,1.1-3.9C130.9,15,130.6,14.4,129.9,14.4z M137.3,53.3c0.1,0.2,0.2,0.4,0.3,0.5
		c1.7,1.6,3.8,2.7,5.8,3.7c0.3,0.1,0.9-0.1,1.1-0.4c0.3-0.4,0.8-1,0.1-1.5c-0.9-0.8-1.8-1.6-2.8-2.4c-0.1-0.1-0.3-0.1-0.5-0.2
		C140.1,52.6,138.8,52.9,137.3,53.3z M121.4,33.6c1.5,3,3.4,5.3,6.3,7.1c0.1-0.9,0.2-1.7,0.3-2.5c0-0.1-0.1-0.1-0.2-0.2
		c-0.7-0.9-1.4-1.7-2-2.6c-0.1-0.2-0.3-0.4-0.5-0.5C124.2,34.5,122.9,34.1,121.4,33.6z M122.4,10.4c-1,0.1-1.9,0.5-2.7,0.4
		c-1.5-0.2-2.3,0.4-2.8,1.8c-0.1,0.2-0.2,0.5-0.3,0.7c-0.4,0.7,0.1,1.1,0.4,1.6c0.4,0.4,0.8,0.6,1.3,0.3c0.6-0.4,1.1-0.8,1.7-1.2
		C121,13,121.9,11.9,122.4,10.4z M145.6,58.8c1.3,1.4,4,3,5.2,2.8c-1.5-1.6-2.9-3-4.3-4.4C146.2,57.8,145.9,58.3,145.6,58.8z
		 M145,91.5c0.6,1.1,1.1,2.2,1.7,3.2c0.1,0.2,0.9,0,1.3-0.1c0.1,0,0.1-0.7-0.1-1c-0.2-0.4-0.5-0.9-0.8-1.2
		C146.6,91.9,146.3,91,145,91.5z M113.3,48.5c-0.4,1.1-0.8,2.2-1.1,3.2c-0.1,0.2,0.1,0.5,0.2,0.8c0.2-0.2,0.6-0.3,0.7-0.5
		c0.3-0.7,0.6-1.4,0.9-2.2C114.3,49.3,114.1,48.9,113.3,48.5z M119.5,55.5c-0.3-0.4-0.5-0.8-0.8-0.8c-0.2,0-0.6,0.2-0.7,0.5
		c-0.3,0.6-0.6,1.2-0.8,1.9c-0.1,0.2-0.1,0.6,0.1,0.7c0.1,0.1,0.6,0.1,0.7,0C118.5,57,119,56.3,119.5,55.5z M121.2,57.9
		c-0.1-0.1-0.2-0.4-0.3-0.4c-0.1,0-0.4,0-0.5,0.2c-0.4,0.8-0.8,1.6-1.1,2.4c-0.1,0.2,0.1,0.6,0.3,0.6c0.2,0.1,0.5-0.1,0.7-0.2
		C121,59.9,120.9,58.8,121.2,57.9z M116.7,52.1c-0.2-0.3-0.3-0.5-0.5-0.7c-0.1-0.1-0.4,0-0.5,0.1c-0.4,0.9-0.7,1.8-1,2.7
		c0,0.2,0.2,0.5,0.4,0.6c0.1,0.1,0.5-0.1,0.6-0.2C116.1,53.8,116.4,53,116.7,52.1z M111.1,46.5c-0.2,0.9-0.4,1.9-0.5,2.8
		c0,0.1,0.2,0.4,0.3,0.4c0.2,0,0.5-0.1,0.6-0.2c0.2-0.3,0.4-0.6,0.6-1C112.5,47.5,112.2,46.9,111.1,46.5z M125.9,64.5
		c-0.2-0.2-0.3-0.5-0.5-0.5c-0.2,0-0.5,0.1-0.6,0.2c-0.4,0.6-0.7,1.2-1,1.9c-0.1,0.2,0,0.5,0.1,0.6c0.2,0.1,0.6,0.1,0.7-0.1
		C125.2,66,125.5,65.3,125.9,64.5z M122,63.7c0.8,0,2-2,1.7-2.5c-0.1-0.1-0.6-0.2-0.7-0.1c-0.5,0.6-0.9,1.3-1.2,1.9
		C121.8,63.2,122,63.6,122,63.7z"/>
	<path class="st0" d="M154,198.6c2.8-3.4,5.7-6.6,7.2-10.7c0.2-0.4,0.2-0.9,0.5-1.2c0.3-0.3,0.8-0.4,1.2-0.6
		c0.2,0.4,0.5,0.9,0.4,1.2c-0.7,1.7-1.3,3.5-2.2,5.1c-1.1,1.9-2.5,3.5-3.7,5.3c-1,1.6-2,3.2-2.8,4.9c-0.3,0.6-0.1,1.5,0,2.2
		c0.3,2.9,0.7,5.8,1,8.7c0.1,1.3,0,2.5,0,3.8c0,0.6-0.5,0.9-0.9,0.8c-0.4-0.1-1-0.4-1-0.7c-0.3-1.6-0.4-3.3-0.6-4.9
		c-0.2-1.6-0.3-3.3-0.4-4.9c-0.5-4.6-0.6-9.2-0.5-13.8c0.1-4.3,0.1-8.5,0.2-12.8c0-0.8,0.1-1.5,0.2-2.3c0-0.6-0.1-1.3,0.8-1.2
		c0.7,0,1.3,0.7,1.2,1.5c-0.1,0.8-0.2,1.5-0.2,2.3c0,2.3,0,4.6,0,6.9c-0.1,2.8-0.2,5.6-0.3,8.4C154,197.3,154,197.9,154,198.6z"/>
	<path class="st0" d="M93.7,162.9c-1.4-0.3-3-0.3-4.2-1.1c-3-1.8-6-3.7-7.2-7.4c-0.3-0.8-0.8-1.4-1.3-2.1c-0.3-0.4-0.4-0.7,0-1.1
		c1.6-1.7,3.2-3.5,5.4-4.5c1.5-0.7,3-1.3,4.6-1.8c0.6-0.2,1.4,0,1.9,0.3c1.4,0.6,2.4,0.5,3.6-0.4c0.8-0.7,1.7-0.7,2.7-0.5
		c2.9,0.8,4.6,3,6.2,5.4c1.1,1.5,0.8,2.8,0.1,4.3c-0.9,2-2,3.9-3.5,5.6c-1.5,1.7-3.5,2.4-5.6,2.8c-0.8,0.1-1.7,0.2-2.5,0.3
		C93.7,162.8,93.7,162.8,93.7,162.9z M82.2,152.3c0.3,0.7,0.6,1.3,0.9,1.9c1.3,3.4,4.2,5.4,7.1,7c1.8,1,3.9,0.8,5.9,0.4
		c1.9-0.4,3.7-1,5-2.5c1.6-1.7,2.6-3.7,3.5-5.9c0.2-0.4,0.3-0.8,0.4-1.1c-0.9,0-1.8-0.1-2.6-0.1c-1.1-0.1-1.3,1.1-2.1,1.4
		c-0.1,0-0.2,0.2-0.3,0.3c-2.1,1.4-4.3,2.6-6.9,2.3c-2.7-0.3-5.4-1.2-7.8-2.7C84.5,152.6,83.5,152,82.2,152.3z M82.5,151.4
		c1.2-0.2,2.3-0.3,3.5-0.6c1.3-0.3,2.5-0.8,3.8-1.1c2.1-0.5,4.1-0.9,6.3-0.3c1.7,0.5,3.6,0.6,5.3,1.4c0.9,0.4,2.1,0.2,3.3,0.3
		c-1.3-2.4-2.7-4.4-5.1-5.4c-0.8-0.3-1.7-0.7-2.6,0c-1.5,1.3-3,1.4-4.7,0.5c-0.4-0.2-0.9-0.2-1.4-0.1c-0.8,0.2-1.6,0.6-2.4,0.9
		C86,147.6,84.1,149.2,82.5,151.4z M85.5,151.7c0,0.1,0,0.2,0,0.4c0.3,0.2,0.6,0.5,1,0.6c1.7,0.7,3.4,1.4,5.2,1.9
		c1.5,0.4,3.1,0.4,4.6-0.2c1.1-0.5,2.2-1.1,3.2-1.7c0.4-0.3,0.7-0.7,1-1.1c-0.4-0.2-0.7-0.4-1.1-0.5c-1.8-0.8-3.8-0.9-5.7-1
		c-1,0-2,0.3-3,0.5C88.9,151,87.2,151.3,85.5,151.7z"/>
	<path class="st0" d="M65.9,113.5c2,0.3,3.4-1.1,5.1-1.8c1.3-0.5,2.6-0.9,4-1.4c1.1-0.4,2.2-0.3,3.2-0.3c1.4,0,2.5,1,3.4,1.9
		c1.1,1.1,2,2.4,3,3.7c0.2,0.2,0.3,0.6,0.2,0.8c-0.1,0.2-0.5,0.3-0.7,0.4c-1.5,0.5-3.1,0.8-4.6,1.4c-2.4,0.9-4.8,1.2-7.2,0.4
		c-0.9-0.3-1.6-1-2.4-1.5c-1.2-0.8-2.3-1.6-3.5-2.3C65.9,114.5,65.6,114.1,65.9,113.5z M83.3,115.5c-1.1-1.2-2.2-2.4-3.2-3.5
		c0.2,2.1-0.5,3.7-2.1,4.8c-1,0.7-2.2,0.4-3.2-0.1c-1.8-1-2.4-2.5-1.9-4.6c-1.7,0.9-3.2,1.7-4.7,2.6c0.7,0.5,1.5,0.9,2.1,1.5
		c2.1,2,4.6,2.3,7.3,1.5C79.4,117.1,81.3,116.3,83.3,115.5z M75.5,112.1c-0.6-0.1-0.8,0.2-0.8,0.8c0,0.5,0.2,0.8,0.7,0.8
		c0.6,0,0.9-0.4,0.9-0.9C76.3,112.1,76,112.1,75.5,112.1z"/>
	<path class="st0" d="M112.7,120.1c-1.7-0.5-3.6-1.1-5.5-1.6c-0.9-0.3-1.8-0.7-2.8-0.4c-0.6,0.2-0.9-0.3-0.7-0.8
		c0.5-1.7,1.1-3.5,2.7-4.4c1.4-0.8,3-1.4,4.6-1.9c0.8-0.3,1.7-0.4,2.6-0.3c0.8,0.1,1.6,0.4,2.3,0.8c1.2,0.7,2.3,1.6,3.4,2.3
		c1,0.6,0.9,0.9,0.2,1.8c-1.4,1.7-3.1,2.8-5,3.9C114.1,119.8,113.5,119.9,112.7,120.1z M113.7,112.4c1.2,1.5,1.1,2.7,0.2,4
		c-1,1.5-2.4,1.8-4,1.3c-1.8-0.5-2.6-1.9-2.7-3.7c-1.3,0.5-1.6,1.6-2.1,2.6c1.2,0.4,2.3,0.8,3.4,1.2c1.1,0.3,2.3,0.7,3.5,0.8
		c2.8,0.1,4.7-1.6,6.6-3.5C117,114.2,116,112.5,113.7,112.4z M109.6,114.9c0.1,0,0.2,0,0.4,0c0.2-0.3,0.5-0.6,0.6-0.9
		c0-0.2-0.5-0.6-0.7-0.6c-0.3,0.1-0.6,0.4-0.7,0.7C109.1,114.3,109.4,114.6,109.6,114.9z"/>
	<path class="st0" d="M100,138c0.9,1.1,4,1.2,4.8,0c0.3-0.5,0.3-1.2,0.3-1.9c-0.2-1.6-0.7-3-1.9-4.3c-1.8-1.9-2.4-4.4-3-6.8
		c-0.2-0.7-0.3-1.3-0.3-2c0-0.2,0.3-0.5,0.4-0.7c0.1,0.2,0.4,0.5,0.4,0.7c0.5,2.6,1.2,5.1,2.6,7.3c0.2,0.3,0.5,0.6,0.7,0.9
		c1.2,1.1,1.6,2.5,2,3.9c0.1,0.5,0.2,1,0.2,1.6c0.1,1.5-0.8,2.7-2.3,2.9c-0.8,0.1-1.5,0.3-2.3,0.2c-0.7-0.1-1.3-0.5-2-0.8
		c-0.2-0.1-0.6-0.1-0.8,0c-1.6,1.4-3.3,1.1-5.1,0.4c-0.4-0.2-0.7-0.6-1-0.9c-0.8-1-1.2-1.1-2.2-0.4c-2.1,1.3-5.2,0.4-5.7-1.6
		c-0.4-1.7,0.4-3.9,1.9-5c0.3-0.2,0.6-0.4,0.9-0.6c0.2-0.1,0.5-0.1,0.5,0c0.1,0.2,0.1,0.5,0,0.6c-0.2,0.3-0.5,0.5-0.8,0.7
		c-1.3,0.9-1.8,2.3-1.7,3.8c0.1,1.2,1.1,1.7,2.7,1.7c0-0.4-0.2-0.9,0-1.2c0.1-0.4,0.5-0.9,0.8-1c1.7-0.4,3.4,0.4,4.2,2.1
		c0.5,1.1,1.2,1.4,2.3,1.5c1.3,0.1,2-0.4,2.8-1.3c0.9-1.2,2.3-1.8,3.8-1.8c0.2,0,0.6,0.3,0.6,0.5c0,0.3-0.1,0.7-0.4,0.8
		C101.6,137.5,100.8,137.8,100,138z"/>
	<path class="st0" d="M69,104.3c0.8-0.1,1.5-0.3,2.3-0.4c1.7-0.1,3.4-0.2,5.2-0.3c0.1,0,0.2,0,0.4,0c1.4,0,2.7-0.2,4.1-0.1
		c1.1,0.1,2.1,0.6,3.1,1.1c0.2,0.1,0.3,0.6,0.4,0.9c-0.3,0.1-0.7,0.4-1,0.3c-1.8-0.6-3.6-0.9-5.5-0.9c-0.9,0-1.9,0.1-2.8,0.2
		c-1.3,0.1-2.6,0-3.9,0.2c-3.5,0.6-7,1.4-10.2,3.2c-0.1,0.1-0.3,0.2-0.5,0.2c-0.4-0.1-0.7-0.2-1.1-0.3c0.2-0.3,0.4-0.7,0.7-0.9
		c0.5-0.4,1-0.7,1.6-0.9c1.7-0.6,3.5-1.2,5.2-1.8c0.7-0.2,1.4-0.5,2-0.7C69,104.2,69,104.3,69,104.3z"/>
	<path class="st0" d="M114.6,104.8c2.6,0,5.1,0.9,7.6,1.5c0.7,0.2,1.3,0.6,2,1c0.2,0.1,0.3,0.5,0.3,0.8c0,0.2-0.3,0.5-0.5,0.5
		c-0.4,0-0.7-0.1-1.1-0.3c-2.5-1.1-5-1.8-7.7-1.8c-2.7,0-5.3,0.2-7.8,1.3c-0.5,0.2-1,0.6-1.5,0.9c-0.5,0.3-1,0.5-1.3-0.1
		c-0.1-0.2,0.2-0.9,0.5-1.1C107.9,105.5,111.2,104.9,114.6,104.8z"/>
	<path class="st0" d="M120.7,15.4c0.8,0,1.2,0.5,1.3,1.2c0,0.7-0.5,1.2-1.2,1.2c-0.7,0-1.1-0.5-1.1-1.2
		C119.6,15.8,120,15.4,120.7,15.4z"/>
</g>
</svg>
