<?xml version="1.0" encoding="utf-8"?>
<!-- Generator: Adobe Illustrator 19.2.1, SVG Export Plug-In . SVG Version: 6.00 Build 0)  -->
<svg version="1.1" id="Layer_1" xmlns="http://www.w3.org/2000/svg" xmlns:xlink="http://www.w3.org/1999/xlink" x="0px" y="0px"
	 viewBox="0 0 261.1 232.7" style="enable-background:new 0 0 261.1 232.7;" xml:space="preserve">
<style type="text/css">
	.st0{fill:#00BCD4;}
</style>
<g id="headache-boy">
	<path class="st0" d="M97.8,232.7c0.1-4.4-0.9-8.6-1.7-12.9c-1-5.2-1.8-10.5-1.5-15.9c0.2-5.4,0.1-10.9-0.2-16.3
		c-0.2-3.2-0.9-6.3-1.4-9.4c-0.3-1.8-1.5-3.1-3.3-3.6c-3.5-1.1-7.1-2.1-10.6-3.2c-1.1-0.4-2.3-0.9-3.2-1.7c-0.9-0.8-1.7-1.3-3.1-1.1
		c-2.8,0.3-5.6,0.4-8.5,0.3c-5-0.1-10.1-0.5-15.1-0.7c-5.6-0.2-11.1-1.3-16.5-2.4c-2.4-0.5-4.8-1-7-1.8c-3.4-1.3-6.3-3.3-8.3-6.4
		c-1.4-2.1-2.9-4.2-4.2-6.5c-0.8-1.4-1.4-3-1.9-4.6c-0.6-2,1-3.4,1.7-5c1.9-4.1,5-7.3,8.1-10.4c2.1-2.1,4-4.3,6.2-6.3
		c4.9-4.7,10.1-9,15.8-12.5c2.2-1.4,4.2-3.1,6.4-4.5c3.3-2.1,6.6-4.1,10-6c1.5-0.9,3.1-1.6,4.8-2.2c1-0.4,2.2-0.3,3.2-0.6
		c0.7-0.2,1.5-0.3,2.2-0.7c6.1-3,11.5-7.1,17-11.1c3.2-2.3,5.1-5.3,6.4-8.9c1.7-4.9,3.4-9.8,5.2-14.7c0.4-1.1,0-2-0.2-2.9
		c-0.6-2.9,0-5.8,0.5-8.6c0.6-3.5,2.8-5.9,5.3-8.1c2.5-2.3,5-4.4,7.7-6.4c3.9-2.9,8.1-5.3,12.9-6.4c1.3-0.3,2.8-0.2,4.1-0.1
		c1.8,0.1,3.7,0.3,5.5,0.6c1.6,0.3,2.7-0.7,3.7-1.5c1.1-0.9,2.3-1.3,3.6-1.5c1.3-0.2,2.6-0.5,3.8-1c3-1.3,6.1-0.9,9.2-1.2
		c3.3-0.3,6.4,0.4,9.5,1.7c4,1.6,8,2.8,12.1,4.2c3.3,1.2,6.2,3.2,9.1,5.2c1.4,1,2.8,2,4.1,3c4.4,3.4,7.9,7.6,10.5,12.5
		c0.8,1.5,0.9,3.4,1.2,5.2c0.9,5.3,2.2,10.4,3.5,15.6c0.8,3.1,0.5,6.4,0.7,9.6c0,0.3-0.2,0.5-0.2,0.8c-0.1,1-0.5,2-0.3,2.9
		c1.2,4.9,1.1,9.8-0.2,14.8c-0.7,2.7-1.6,5.4-3.2,7.7c-0.2,0.4-0.2,0.9-0.3,1.4c-0.1,0.6-0.1,1.2-0.2,1.8c-0.9,3.7-1.6,7.5-2.6,11.1
		c-0.9,3.2-1.9,6.4-3,9.5c-0.4,1.1-0.2,1.4,0.8,1.8c1.9,0.7,3.7,1.4,5.5,2.3c5.8,2.9,9.7,7.4,12,13.5c1.3,3.3,3.1,6.4,4.7,9.5
		c0.8,1.6,2.6,2.2,4,3c3.9,2.3,8.1,3.5,12.2,5.2c1.5,0.6,2.8,1.5,4.1,2.4c1.8,1.1,2.9,2.9,3.6,4.7c2.3,5.6,4.7,11.2,6.6,17
		c1.6,4.8,2.3,9.8,3.8,14.6c1.5,5.1,3.4,10.1,5.1,15.1c1.1,3,2.2,6,3.3,9c0.2,0.4,0.2,0.9,0.3,1.3c-11.6,0-23.2,0-34.8,0
		c0.1-0.6,0.2-1.3,0.4-1.9c0.4-1.5,0.9-3,1.1-4.5c0.5-4,0.8-8,1.3-12c0.2-1.6-0.3-2-1.9-1.7c-0.1,1.7-0.1,3.3-0.3,5
		c-0.3,2.3-1,4.6-1,6.8c0.1,3-0.9,5.6-1.8,8.2C182,232.7,139.9,232.7,97.8,232.7z M117.5,92c1.1,0,2,0,3,0c0.8,0,1.6,0.3,1.5,1.2
		c-0.1,1-0.9,1.1-1.7,1c-2.3-0.2-4.1,0.8-5.5,2.5c-0.8,0.9-1.5,1.9-1,3.5c0.7,2,1,4.3,1,6.4c0.1,3.5,1,6.7,2.2,9.8
		c0.3,0.8,0.9,1.7,1,2.5c0.1,3.7,1.3,7.2,2.5,10.6c0.8,2.3,1.4,4.8,2.8,6.7c3.5,5.1,8.1,9,13.6,11.9c1.2,0.6,2.4,1.1,3.6,1.6
		c2.4,1,4.7,2.3,7.2,2.8c4.8,1.1,9.7,0.4,13.9-2.1c4.8-2.8,9.4-6,14-9.2c2.4-1.6,4.3-3.8,5.8-6.3c0.3-0.5,0.7-0.9,1.1-1.2
		c0.2-0.1,0.8,0,1,0.2c0.2,0.1,0.2,0.7,0,0.9c-1.9,3.4-4.5,6-7.5,8.3c-3.3,2.5-6.8,4.9-10.3,7.2c-1.8,1.2-3.6,2.2-5.5,3.1
		c-1.2,0.6-2.6,0.8-3.8,1.4c-1.5,0.7-2.9,0.6-4.4,0.4c-2.7-0.4-5.5-0.9-8.2-1.3c-0.1,0.1-0.1,0.2-0.2,0.2c1.1,1.4,2.2,2.9,3.4,4.2
		c1.9,2.1,3.9,4.2,5.8,6.3c2.6,2.8,5.1,5.7,7.8,8.5c3.6,3.9,8,7.3,9.1,13c0.3-0.1,0.6-0.2,0.8-0.3c2.9-1.5,5.7-2.9,8.6-4.4
		c0.9-0.5,1.7-1,2.5-1.5c2.3-1.3,4.5-2.6,6.9-3.7c1.6-0.7,3.2-1.2,3.9-3.1c0.1-0.4,0.4-0.7,0.7-1c0.8-0.9,1.6-1.7,2.3-2.7
		c2-2.9,3.9-5.9,5.7-8.8c0.4-0.7,0.7-1.5,1-2.2c0.3-0.7,0-1-0.5-1.4c-1.6-1-3.3-2-4.8-3.2c-3.4-2.7-7.3-4.9-10-8.5
		c-0.6-0.8-1.2-1.4-1.1-2.5c0.3-3.1,0.5-6.2,0.7-9.3c0.3-3.3,0.5-6.6,1-9.9c0.4-2.6,1.1-5.2,1.5-7.8c0.5-3.7,0.6-7.4,1-11.2
		c0.1-0.6,0.3-1.3,0.6-1.8c1-1.8,1-1.8-0.5-3.2c-1.9-1.8-2.1-5.1-0.4-7c0.3-0.3,0.9-0.4,1.3-0.5c0,0.5,0.2,1.1,0,1.4
		c-1.2,2.2-1,3.5,0.8,5.3c1.5,1.5,1.7,2.7,0.6,4.6c-0.3,0.5-0.5,1.1-0.6,1.7c0,0.3,0.3,0.6,0.4,0.9c0.3-0.2,0.5-0.3,0.7-0.5
		c0.2-0.2,0.2-0.4,0.3-0.7c0.3-0.9,1-1.4,1.9-1.2c0.8,0.2,1.5,0.8,2.4,1.3c0.3-1.2,1-2.6,0.7-3.6c-0.6-2.1-1.3-4.2-3-5.8
		c-0.2-0.2-0.2-0.8-0.2-1.2c0.4-0.1,1-0.3,1.2-0.2c0.7,0.6,1.4,1.3,1.9,2.1c0.6,1,1.1,2.2,1.6,3.3c1-0.7,1.9-1.5,3-1.9
		c0.6-0.3,0.9-0.5,0.9-1.1c0-2,0-3.9,0-5.9c-0.1-1.9-0.4-3.8-2.5-4.7c-1.6-0.7-3.5-0.4-4.4,1.1c-0.5,0.9-0.9,1.9-1.5,2.8
		c-0.2,0.3-0.8,0.4-1.2,0.5c-0.1-0.4-0.3-0.8-0.2-1.2c0.2-0.8,0.6-1.5,0.9-2.3c1.1-2.2,2.8-3.4,5.3-3.1c0.9,0.1,1.8,0.5,2.7,0.7
		c-0.8-2-3.4-3.3-5.2-2.2c-2.1,1.2-3.8,2.9-5.9,4.1c-1.9,1.1-3.2,2.6-4.6,4.1c-0.3,0.3-0.9,0.6-1.3,0.6c-0.4-0.1-0.9-0.5-1.2-0.9
		c-0.3-0.4-0.4-0.9-0.7-1.3c-1.7-2.6-4.3-4-7-5.1c-2-0.8-3.8-1.9-5.1-3.6c-1-1.3-2.1-2.6-3.1-4c-1.5-2-3.2-3.8-4.3-5.9
		c-2-4.2-3.6-8.5-5.5-12.8c-1-2.4-2.2-4.7-3.4-7c-0.4-0.8-1.1-1.4-1.7-2.2c-1,2.2-2.5,3.6-4.5,4.4c-2.5,1.1-5,2.1-7.5,3.2
		c-1.1,0.5-2.1,1-3.3,1.6c0.1,0.1,0.3,0.4,0.5,0.4c0.5,0.1,1,0.2,1.4,0.2c2.3,0.3,2.4,0.4,3,2.6c0.9,3.5-0.1,5.6-2.9,6.7
		c-3.6,1.4-7.3,2.6-10.8,4.1c-3.4,1.5-6.7,3.4-10,5.1c0.1,0.2,0.1,0.4,0.2,0.6c0.8,0,1.7,0,2.5,0c2.9-0.2,5.7-0.9,8.3-2.2
		c2.3-1.1,4.7-0.8,6.9,0.2c0.6,0.3,1.2,1,1.5,1.7c0.7,1.7-0.6,5-2.3,5.8c-1.5,0.7-3,1.2-4.6,1.7c-3.7,1-7.5,1.7-10.9,3.6
		C119.3,89.3,117.9,90.1,117.5,92z M65.8,138.1c-0.2,0.4-0.5,0.9-0.7,1.3c-1.8,3-3.8,5.8-6.8,7.9c-2.7,1.9-5.1,4-7.9,5.7
		c-3.1,1.9-6.4,3.4-9.6,5c-0.7,0.3-1.3,0.3-1.6-0.5c-0.3-0.7,0.3-1.1,0.9-1.3c1.7-0.7,3.4-1.5,5-2.4c2.8-1.7,5.7-3.4,8.3-5.4
		c2.6-1.9,5.4-3.7,7.4-6.4c1.6-2.2,3.3-4.3,4.9-6.4c1.8-2.3,3.5-4.6,5.4-6.7c1-1.1,2.4-1.9,3.5-3c1.6-1.6,3.1-3.3,4.7-4.8
		c0.6-0.6,1.5-1,2.2-1.6c4.2-4,8.5-8,12.7-12c2.5-2.4,5.2-4.5,9-4c0.4,0.1,0.9,0,1.3-0.1c0.4-0.1,0.8-0.3,1.3-0.4
		c-0.3-0.3-0.5-0.3-0.7-0.3c-3.9-0.3-7.1-1.9-9.9-4.7c-0.5-0.5-1-1-0.3-1.7c0.7-0.6,1.2,0,1.7,0.5c0.4,0.3,0.6,0.8,1,1.1
		c2.9,2.5,6.5,3,10.2,3.4c0.2,0,0.4-0.2,0.6-0.3c3.7-2.9,5.6-7,7.6-11.1c-1.2-0.2-2.3-0.4-3.4-0.7c-0.6-0.1-1.2-0.3-1.7-0.7
		c-0.3-0.2-0.3-0.7-0.4-1c0.3-0.1,0.7-0.2,1-0.2c1.5,0.2,3,0.6,4.6,0.8c0.6,0.1,1.4-0.1,2-0.4c3.8-1.9,7.8-3.1,11.9-4.1
		c1.8-0.4,3.5-1,5.5-1.5c-1.9-1.5-4.3-2.2-3-5.2c-0.7,0.2-1.2,0.4-1.7,0.5c-2,0.6-3.9,1.5-5.9,1.9c-1.9,0.4-4,0.7-5.7,0.2
		c-2.9-1-5.8-1.4-8.8-1.2c-0.6,0-1.3,0.1-1.4-0.8c-0.1-0.9,0.7-1.1,1.3-1.2c1.1-0.1,2.1-0.1,3.2,0c2.9,0.1,5.5-0.6,7.9-2.2
		c2-1.3,4.2-2.4,6.4-3.3c3.8-1.6,7.7-2.9,11.5-4.4c0.9-0.3,1.8-0.6,1.9-1.8c-4.2,0.7-5.6-0.4-5.1-3.9c-0.3,0-0.7-0.1-1,0
		c-5,1-10.1,1.9-15,3.3c-3,0.8-5.8,2.4-8.7,3.8c-0.6,0.3-1.2,0.9-1.6,0c-0.1-0.3,0.4-0.9,0.7-1.4c0.1-0.1,0.3-0.2,0.4-0.2
		c3.2-1.8,6.5-3.6,9.9-4.2c0.9-2.1,1.7-4,2.6-6.2c-1,0.3-1.8,0.5-2.6,0.8c-3.1,1.1-6.3,2.1-9.6,2c-0.9,0-1.4-0.3-1.6-1.2
		c-0.3-1.1-0.4-2.2-0.8-3.2c-0.2-0.5-0.8-1.1-1.2-1.2c-0.4-0.1-1,0.5-1.3,1c-0.7,1-1.4,2.1-2.1,3.2c-1.2,1.8-2.5,3.5-3.5,5.4
		c-0.6,1-0.7,2.2-1.1,3.2c-1.8,5-3.6,10.1-5.5,15.1c-1,2.8-2.7,5.3-5.1,7.1c-6.1,4.5-12.1,9-18.8,12.4c-0.9,0.5-2,1-3,1.1
		c-3.8,0.1-7.2,1.7-10.4,3.6c-4.1,2.4-7.8,5.3-11.7,8c-2.3,1.5-4.6,2.9-6.8,4.6c-6.5,4.9-12.3,10.6-17.8,16.6
		c-2.4,2.6-4.7,5.2-6.2,8.5c-1,2.2-1.5,4.5-0.1,6.8c1.3,2,2.5,4,3.8,6c2.4,3.8,5.8,6.4,10.1,7.6c2,0.6,4.1,0.7,6.1,1.2
		c4.9,1.1,9.9,2,14.9,2.2c6.9,0.3,13.9,0.5,20.8,0.7c1.2,0,2.3-0.2,3.6-0.4C69.6,157.2,69.1,147.3,65.8,138.1z M70.1,132.5
		c3.3-0.6,6.5-1.3,9.7-1.7c3-0.4,6-0.5,8.6,1.6c1.7,1.4,3.4,1,5.3,0.2c1.5-0.7,3.1-1.2,4.6-1.7c1-0.3,2.1-0.5,3.2-0.6
		c2.3-0.3,4.5-0.6,6.8-0.9c2.2-0.2,4.3-0.3,6.5-0.5c1-0.1,2.5-2,2.2-2.8c-0.6-1.7-1.2-3.3-2.6-4.6c-2.8-2.8-5.6-5.8-8.1-8.9
		c-1.5-1.7-2.5-3.8-3.8-5.7c-1-1.6-2.2-2-3.2-1.3c-2.9,1.9-5.5,4.3-7.8,6.9c-4.4,4.9-9.6,8.8-14.5,13.1
		C74.6,127.6,72.5,130.1,70.1,132.5z M218,197.6c-1.1-0.2-2.2-0.5-3.2-0.4c-2.6,0.1-4.9-0.8-7.1-2.2c-1.7-1.1-3.3-2.2-5.1-3.1
		c-2.2-1.2-3.9-2.8-5-5c-0.3-0.7-0.9-1.3-1.5-1.7c-1.1-0.8-1.9-0.3-2.1,1c-0.3,1.6-2.8,3.8-4.5,3.9c-1.9,0.2-3.9,0.3-5.8,0.5
		c-0.3,0-0.7,0.2-0.7,0.4c-0.1,0.3,0,0.8,0.2,1c0.4,0.3,1,0.6,1.5,0.5c2.1-0.3,4.3-0.5,6.4-1c0.8-0.2,1.6-0.9,2.3-1.5
		c0.7-0.7,1.3-1.5,2-2.4c4.2,5.1,9.6,8.3,15.4,10.8c2.4,1,5.1,1.2,7.7,1.8c0.7,0.2,0.9-0.3,1.1-0.9c0.7-3.2,1.7-6.3,1.9-9.5
		c0.4-4.7,0.3-9.4,0.2-14.1c0-1.4-0.4-2.8-0.7-4.2c-0.1-0.4-0.9-1.1-1.2-1c-0.8,0.1-0.7,0.9-0.6,1.6c0.3,1.9,0.5,3.7,0.7,5.6
		C220.1,184.3,219,191,218,197.6z M135.8,171.3c-0.6,0-1,0-1.5,0.1c-2.6,0.6-5.1,0.5-7.6-0.3c-2.9-0.9-5.8-1.5-8.7-2.3
		c-0.4-0.1-1-0.6-1-1c0-0.4,0.4-0.9,0.7-1.2c0.6-0.6,1.5-1.1,1.9-1.9c2.3-4.1,4.6-8.3,6.8-12.5c0.4-0.8,0.6-1.9,0.7-2.8
		c0-0.4-0.4-0.8-0.7-1.4c-3.8,7.6-8.7,14.1-12.1,21.6c1.2,0.3,2.1,0.6,3.1,0.9c2.1,0.7,4.1,1.6,6.3,2.3c2.6,0.8,5.3,1.7,8.1,0.9
		C133.3,173.3,135.1,173.3,135.8,171.3z M191.3,108.1c-0.2,1.5-0.4,2.8-0.4,4.2c0,0.4,0.6,1,1,1.2c1.6,0.6,4.7-0.5,5.6-2
		c1.2-1.9,2.5-3.8,3.4-5.8c0.8-1.7,1.2-3.7,1.8-5.5c-2,0.9-3.2,2.1-3.4,4.2c0,0.5-0.3,1-0.5,1.5c-0.4,1-1,1.5-2.1,1.2
		c-0.8-0.2-1.4-0.7-2.2-1.1C194.2,107.5,193.2,108.4,191.3,108.1z M153.5,198.2c0.3,0.6,0.4,1,0.6,1.1c0.3,0.1,0.7,0,1-0.2
		c1-0.8,2-1.7,3.1-2.4c2.3-1.5,4.7-2.8,7.1-4.2c0.6-0.4,1.3-0.7,0.9-1.6c-0.4-0.9-1.2-0.9-1.9-0.5c-2.9,1.7-5.8,3.4-8.6,5.3
		C154.8,196.3,154.2,197.3,153.5,198.2z M209.7,158.1c-0.2-0.3-0.6-0.7-0.9-1.1c-0.3,0.3-0.7,0.7-1,1.1c-0.3,0.4-0.6,0.9-0.7,1.4
		c-0.8,3-1.7,6-2.5,9.1c-0.3,1-0.6,2-0.7,3.1c-0.1,0.4,0.2,0.8,0.4,1.2c0.4-0.3,0.9-0.5,1-0.8c1.1-3.2,2.2-6.4,3.3-9.7
		C209,160.9,209.3,159.6,209.7,158.1z M141.4,62.8c-0.2-0.7-0.2-1.4-0.5-2.1c-0.3-0.8-2.8-1.2-3.1-0.5c-0.3,0.7-0.4,1.5-0.2,2.2
		c0.2,0.8,1.1,0.9,1.9,0.7C140.1,63.1,140.7,63,141.4,62.8z M136,80.5c1.3-2,1-3.1-1-3.6c-0.4-0.1-1.2,0.1-1.4,0.4
		c-0.5,0.6-0.4,1.3,0.4,1.8C134.7,79.5,135.3,80,136,80.5z"/>
	<path class="st0" d="M132.6,102.8c-2.6,0.7-4.9,1.4-7.3,1.9c-2.2,0.5-4.5,0.9-6.7,1.4c-0.8,0.1-1.4-0.7-1.1-1.6
		c0.8-2.8,2-5.5,4.6-7c1.1-0.6,2.9-0.6,4.3-0.4c1.6,0.2,3.2,1,5,1.5c-0.9-0.9-1.7-1.7-2.6-2.6c-0.3-0.3-0.4-0.7-0.6-1.1
		c0.5,0,1.1-0.1,1.4,0.1c1.7,1.4,3.3,2.9,3.7,5.3c0.7,3.7,1.5,7.4,1.3,11.3c0,0.6-0.1,1.3-0.4,1.7c-0.9,1.3-1,2.8-1.2,4.3
		c-0.2,1.1,1.2,2.2,2.2,1.7c1.8-0.8,3.4-0.9,5.3,0c1.4,0.7,2.5,0.1,2.9-1.4c0.4-1.5,2.9-2.5,4.6-2.1c0.5,0.1,1.1,0.2,1.7,0.2
		c1.1-0.1,1.5-1,1.1-2c-0.5-1.1-1-2-2.3-2.3c-0.2,0-0.3-0.4-0.5-0.6c0.2-0.2,0.5-0.5,0.7-0.5c0.6,0.1,1.3,0.3,1.8,0.7
		c1.7,1.4,2.8,3.8,1.2,5.3c-1.3,1.2-2.9,1.3-4.5,1c-1.3-0.2-2,0.1-2.6,1.3c-0.8,1.8-2.7,2.7-4.5,1.9c-1.8-0.8-3.4-0.5-5.1,0
		c-1.3,0.4-3.2-1-3.3-2.6c-0.1-1.8,0.1-3.5,1.1-5.1c0.4-0.7,0.7-1.6,0.6-2.4C133.3,108.2,133,105.6,132.6,102.8z M130.6,101.8
		c-0.5-1.6-1.7-2.1-2.8-2.7c-0.8-0.4-1.1-0.2-1.1,0.7c0,1.1-0.2,2.2-0.3,3.5C127.7,102.8,129.2,102.4,130.6,101.8z M121.9,103.4
		c-0.5-0.5-0.8-0.9-1.3-1.5c-0.4,0.8-0.8,1.5-1.1,2.1c0.1,0.1,0.1,0.1,0.2,0.2C120.4,104,121.1,103.7,121.9,103.4z"/>
	<path class="st0" d="M151.4,126c3.4-0.2,6.8-0.4,10.2-0.6c1.6-0.1,1.9,0.4,1.2,1.8c-1.4,2.9-2.6,5.9-5.2,7.8
		c-3.3,2.5-6.8,4.5-11.1,4.4c-1.4,0-2.7-0.1-4-0.2c-2.5-0.1-4.4-1.5-6.3-3c-0.6-0.5-1.5-1-1.6-1.6c-0.1-0.6,0.6-1.4,1.1-1.9
		c1.6-1.6,3.1-3.2,4.9-4.6c0.8-0.6,2-0.5,3-0.7c0.4-0.1,0.9,0,1.3-0.1c1-0.4,2-1.1,3-1.4C149.2,125.7,150.3,125.9,151.4,126
		C151.4,125.9,151.4,125.9,151.4,126z M160,127.6c-1.8-0.7-3.4-0.2-5,0.5c-2.7,1.1-5.5,2.1-8.3,3c-2.5,0.8-5,1.5-7.5,2.3
		c-0.6,0.2-1,0.7-1.6,1.2C141.9,137.3,156.9,131.8,160,127.6z M159.6,130.2c-6.2,3.7-12.6,6.5-19.9,6.4
		C146,140.5,157,135.9,159.6,130.2z M153.6,127.1c0-0.1-0.1-0.3-0.1-0.4c-0.2,0-0.4-0.1-0.6-0.1c-1.8,0.2-3.6,0.3-5.3,0.5
		c-0.4,0.1-0.9,0.3-1.2,0.7c-0.7,0.8-1.5,1.2-2.6,1c-2.6-0.5-3.8,1.3-5.1,2.8c0.1,0.1,0.1,0.3,0.2,0.4
		C143.7,130.4,148.6,128.8,153.6,127.1z"/>
	<path class="st0" d="M148.2,97.8c-0.7,0-1.1,0.1-1.4,0c-0.3-0.1-0.6-0.7-0.5-0.8c1.3-2.9,2.6-5.8,5.9-6.8c0.9-0.3,1.9-0.2,2.9-0.2
		c0.2,0,0.5,0.1,0.7,0.1c2.3-0.4,4.3,0.9,6.4,1.5c0.2,0,0.3,0.1,0.4,0.2c0.5,0.5,1.1,1,1.6,1.5c-0.6,0.2-1.2,0.5-1.9,0.7
		c-1.8,0.6-3.5,1.3-5.3,1.8c-2.4,0.7-4.9,1.4-7.4,2C149,97.7,148.4,97.7,148.2,97.8z M155.9,94.7c1.7-0.6,3.2-1.2,4.8-1.7
		c0-0.2,0-0.4,0-0.6c-1.5-0.3-3-0.6-4.6-1C156,92.6,156,93.5,155.9,94.7z M150.7,96c-0.5-0.9-0.7-1.3-1.1-1.9
		c-0.6,0.7-1.1,1.2-1.5,1.7c0,0.1,0.1,0.3,0.1,0.4C148.9,96.2,149.7,96.1,150.7,96z"/>
	<path class="st0" d="M148.8,82.4c4,0.3,7.5,0.5,10.9,0.8c0,0,0.1,0,0.1,0c0.7,0.3,1.9,0.2,1.8,1.3c-0.1,1.2-1.1,0.8-1.9,0.7
		c-5.6-0.5-11.3-0.5-16.6,1.7c-0.3,0.1-0.6,0.3-0.8,0.2c-0.4-0.1-0.9-0.2-1.1-0.5c-0.2-0.2-0.1-0.8,0.1-1.1c0.3-0.5,0.8-1,1.2-1.1
		C144.7,83.6,147,83,148.8,82.4z"/>
</g>
</svg>
