<?xml version="1.0" encoding="utf-8"?>
<!-- Generator: Adobe Illustrator 19.2.1, SVG Export Plug-In . SVG Version: 6.00 Build 0)  -->
<svg version="1.1" id="Layer_1" xmlns="http://www.w3.org/2000/svg" xmlns:xlink="http://www.w3.org/1999/xlink" x="0px" y="0px"
	 viewBox="0 0 219.1 258.8" style="enable-background:new 0 0 219.1 258.8;" xml:space="preserve">
<style type="text/css">
	.st0{fill:#00BCD4;}
</style>
<g id="headache-boy2">
	<path class="st0" d="M176.7,258.8c-0.2-2.1-0.5-4.2-0.7-6.2c0-0.4-0.1-0.9-0.1-1.3c0.2-3.1-0.5-6.1-1.1-9.1
		c-0.6-3.3-1.1-6.6-1.5-9.9c-0.4-3.3-0.4-6.7-0.9-10c-0.4-2.9-0.6-5.8-0.5-8.8c0.1-3.5,0.2-7,0.1-10.4c-0.1-2.6-0.5-5.3-0.9-7.9
		c-0.3-2-1-3.9-1.5-6.1c-2,2.7-3.5,5.4-4.6,8.3c-1.7,4.6-2.6,9.3-3.6,14c-1.3,6.2-3,12.3-5.6,18.1c-0.8,1.8-2,3.5-2.9,5.3
		c-1.2,2.3-2.4,4.6-3.4,7c-1.2,2.7-2.6,5.1-4.5,7.3c-0.4,0.4-0.8,0.8-1.4,0.4c-0.6-0.4-0.4-0.9-0.1-1.4c0.8-1.2,1.8-2.2,2.5-3.5
		c1.3-2.4,2.2-4.9,3.5-7.4c1.2-2.4,2.7-4.6,3.9-6.9c2.4-4.8,4-9.9,5.3-15.1c1-4.1,1.7-8.2,2.9-12.2c1.3-4.3,2.5-8.6,5.2-12.3
		c0.3-0.3,0.5-0.7,0.8-1c0.7-1,1.3-1.9,1.2-3.4c-0.8-7.7-2.3-15.2-3.8-22.7c-0.6-3.1-0.6-6.5,0.4-9.6c0.3-0.8,0.8-1.5,1.2-2.3
		c0.4-0.7,0.6-1.4,1.1-2c0.2-0.3,0.7-0.8,1.1-0.7c0.7,0,0.5,0.6,0.3,1.1c-0.4,0.8-0.6,1.8-1.1,2.5c-1.3,1.8-1.4,3.8-1.4,5.9
		c-0.1,4,1,7.8,1.8,11.6c0.6,3.1,1.1,6.2,1.6,9.2c0,0.2,0.1,0.4,0.2,0.5c0.5-0.6,1-1.1,1.4-1.6c0.1-0.1,0.2-0.4,0.2-0.5
		c0.2-2.3,0.2-4.6,0.5-6.9c0.4-3.9,1.7-7.6,3.8-10.9c0.6-1,1.6-1.9,2.3-2.9c0.2-0.2,0.2-0.7,0.1-1c-1.5-3.6-3-7.3-4.6-10.9
		c-0.7-1.5-1.4-3-2.4-4.2c-1.9-2.3-3.2-4.9-4.6-7.5c-0.9-1.7-1.9-3.4-2.9-5.1c-0.3-0.5-0.6-0.8-1.2-0.5c-2.3,1.1-4.7,0.7-7,0.6
		c-1.2,0-2.3-0.7-3.5-0.9c-1.6-0.4-3.2-0.7-4.9-1c0,0.7-0.1,1.5-0.1,2.4c0,3.1-1.4,5.7-3.6,7.7c-1.4,1.3-3.1,2.4-4.7,3.5
		c-3.3,2.5-7,4-10.9,5.1c-1.1,0.3-2.4,0.4-3.6,0.4c-3.4,0-6.8,0.2-10.2-0.1c-4.2-0.3-8.3-1.3-12.2-3c-3.1-1.4-6.1-2.9-8.6-5.3
		c-2.8-2.7-5.1-5.7-6.3-9.4c-0.5-1.5-0.6-1.5-2.1-1.1c-0.9,0.2-1.8,0.6-2.8,0.8c-1.2,0.2-2.4,0.4-3.6,0.4c-1.1,0.1-1.8,0.4-2.4,1.4
		c-2.3,4.1-5.1,8-8.3,11.5c-2.9,3.2-5,7-7.2,10.6c0.9,1,1.7,2,2.6,3c1.7,1.9,2.3,4.3,3,6.7c1.1,3.6,1.2,7.2,1.2,10.9
		c0,1.2,0.2,2.4,0.3,3.7c1.4-0.6,2.7-0.6,3.7,1c0.2-1.5,0.6-2.7,0.6-3.9c0.1-4.5,0.3-9,0.2-13.5c0-2.2-0.7-4.5-0.8-6.7
		c-0.1-1.5,0-3.1,0.1-4.6c0-0.2,0.5-0.5,0.7-0.7c0.2,0.3,0.6,0.5,0.6,0.8c0.2,1.8,0.1,3.6,0.5,5.4c1.1,5.3,0.9,10.6,0.8,15.9
		c0,2.5-0.5,5-0.8,7.5c-0.2,1.7-0.3,3.4-0.5,5.1c-0.3,2.7-0.6,5.5-0.8,8.2c-0.2,3.1-0.3,6.1-0.7,9.2c-0.4,3.3-1.2,6.6-1.8,10
		c-0.5,2.9-1,5.7-1.3,8.6c-0.3,2.9-0.4,5.9-0.6,8.9c0,0.3,0,0.6-0.2,0.8c-1.1,1.2-1,2.7-1.2,4c-0.5,3.8-0.9,7.6-1.2,11.4
		c-0.1,1.9,0.1,3.9,0.2,5.9c0,0.2,0.1,0.5,0.1,0.7c0.1,3.1,0.1,6.2,0.2,9.3c-0.7,0-1.3,0-2,0c0-0.7,0.1-1.4,0-2.1
		c-0.1-4.1-0.4-8.1-0.4-12.2c0-2.8,0.6-5.5,0.8-8.3c0.1-1.2,0.1-2.4,0.3-3.6c0.3-1.9,0.7-3.8,1.1-5.7c0.1-0.5,0.3-1.1,0.3-1.6
		c0.2-3.9,0.4-7.7,1.2-11.5c0.8-4,1.6-8.1,2.2-12.2c0.4-2.6,0.4-5.2,0.7-7.9c0.3-3.2,0.5-6.4,0.7-9.6c0.1-0.9,0.6-1.9-0.4-2.6
		c-0.2-0.1-0.1-0.5-0.1-0.7c-0.1-0.5-0.2-1.1-0.4-1.6c-0.5-1-1.1-1.1-2-0.4c-2,1.8-4,3.6-6,5.4c-1.5,1.5-3,3.1-4.6,4.5
		c-0.8,0.7-1.8,1.3-2.8,1.9c-0.9,0.5-1.8,0.9-2.7,1.2c-3.7,1-7.1,0.6-10.1-1.9c-0.1-0.1-0.2-0.2-0.3-0.3c-0.9-1-1.8-1.2-3-0.5
		c-2.2,1.3-4.5,1-6.8,0.3c-2.7-0.9-5-2.3-7.1-4.2c-1.5-1.3-2.3-3-3.3-4.6c-1.1-1.7-1.4-3.6-1.5-5.6c-0.2-5.5,0.8-10.8,2.8-15.9
		c1.2-3.1,2.5-6.1,4.2-8.9c1.8-3,3.9-5.8,6.3-8.3c2.7-2.8,5.9-5.2,8.8-7.9c2.7-2.5,5.5-4.9,7.8-7.9c1.5-2,3.2-3.9,4.8-5.9
		c1-1.2,2-2.5,3-3.6c1.7-1.9,3.5-3.8,5.4-5.5c2.2-2,3.9-4.4,5.4-6.9c0.5-0.9,0.8-2,0.8-3c0.2-3.6,0.1-7.2,0.3-10.7
		c0.2-3.5,0.6-7,1-10.5c0.3-2.3,1.6-4.3,3.2-6c2.2-2.5,4.5-5,6.8-7.5c0.2-0.2,0.4-0.5,0.7-0.6c1.1-0.4,1.2-1.2,1.2-2.2
		c-0.1-2.7,0.1-5.4,0-8.1c-0.2-3.9,0.9-7.4,2.3-10.9c2.3-5.6,6.4-9.8,11-13.7c0.7-0.6,1.4-1.1,2.1-1.7c1.6-1.2,3.5-1.8,5.4-2.3
		c2.5-0.6,4.9-1.6,7.4-2.1c4.4-1,9-1.4,13.5-0.7c1.4,0.2,2.7,1.1,4,1.7c1.1,2.3,2.9,1.3,4.7,1.2c2.1-0.2,4.3-0.5,6.4-0.2
		c1.4,0.2,2.9,1.1,3.8,2.2c2.5,2.7,4.7,5.7,7,8.6c0.4,0.5,0.8,1.1,1.3,1.6c4.3,4.4,6.7,9.8,7.8,15.8c0.4,2.1,1,4.2,1.5,6.3
		c0,0.2,0.1,0.4,0.1,0.6c-0.3,1.3,0.5,1.9,1.6,2.2c1.5,0.5,2.4,1.6,3,3c1.7,3.5,4.2,6.4,6.5,9.6c0.9,1.2,1.6,2.5,2.2,3.9
		c0.3,0.8,0.4,1.8,0.4,2.7c0,2.7,0.2,5.4-0.5,8.1c-0.3,1-0.2,2.1-0.2,3.1c-0.1,1.4-0.1,2.8-0.2,4.2c-0.4,3.4,0.7,6.5,1.9,9.6
		c0.9,2.5,2.4,4.5,4.1,6.5c1.4,1.7,2.7,3.6,4,5.3c1,1.3,2.1,2.6,3.1,3.9c1.6,2.1,3,4.3,4.7,6.3c2.9,3.4,5.7,7,9.2,9.9
		c2,1.7,4,3.5,6,5.3c1.8,1.6,3.2,3.6,4.4,5.7c1.7,3,3.4,6,5.2,9c0.2,0.4,0.5,0.7,0.7,1.1c2.6,3.8,3.6,8.1,3.6,12.7
		c0,2,0.1,4-0.1,5.9c-0.3,2.8-1.8,5-3.9,6.8c-1.6,1.4-3.3,2.6-4.9,3.8c-0.3,0.3-0.7,0.6-1,0.8c-0.9,0.8-1.9,1.2-3.1,1.3
		c-4.6,0.2-8.7-1.5-12.7-3.4c-0.3-0.1-0.7-0.2-1.1-0.1c-1.9,0.4-3.8,1.1-5.8,1.3c-3.2,0.3-5.9-0.8-8.3-2.9c-0.7-0.6-1.4-1.1-2.2-1.6
		c-1.8-1.2-3.1-2.7-4-4.6c-1.8,1.5-2.2,3.4-1.4,5.8c1.4,3.7,2.4,7.5,2.9,11.4c0.5,3.6,0.2,7.3,0.3,10.9c0,2.4-0.2,4.8-0.1,7.1
		c0.1,2.2,0.4,4.4,0.7,6.6c0.2,1.5,0.5,3,0.5,4.6c0,3.6,0.4,7.2,1.2,10.7c0.6,3,1.2,6,1.6,9c0.2,1.3,0.1,2.7,0.2,4.1
		c0.2,2.1,0.4,4.2,0.6,6.2c0,0.5,0,0.9,0,1.4C177.9,258.8,177.3,258.8,176.7,258.8z M82.8,66.3c-0.1-0.1-0.2-0.2-0.2-0.3
		c-0.8,0.6-1.8,1.1-2.4,1.8c-2.2,2.3-4.3,4.7-6.4,7.2c-0.9,1.1-1.7,2.4-2.2,3.7c-0.5,1.3-0.5,2.7-0.7,4.1c-0.3,2.3-0.6,4.7-0.7,7
		c-0.2,3.7-0.1,7.5-0.3,11.2c0,1.1-0.3,2.2-0.8,3.1c-1.1,1.9-2.3,3.7-3.7,5.3c-1.6,1.9-3.6,3.5-5.3,5.3c-3,3.4-5.9,6.9-8.7,10.4
		c-2.9,3.6-6.1,6.9-9.5,9.9c-2.9,2.6-5.9,4.9-8.6,7.7c-3.4,3.6-6.1,7.7-8.2,12.2c-1.6,3.5-2.8,7.1-3.7,10.9
		c-0.9,3.6-0.7,7.2-0.7,10.9c0,0.1,0,0.3,0.1,0.4c1.1,1.9,1.9,4,3.3,5.6c2.1,2.5,4.9,4,8,4.8c0.9,0.2,2,0.5,2.8,0.2
		c2.1-0.7,4.2-1.4,6.1-2.6c3.9-2.3,7.7-4.8,11.4-7.3c1.7-1.2,3.2-2.8,4.9-4.1c0.6-0.5,1.1-1,0.9-1.9c-0.2-0.9-0.2-1.9-0.4-2.9
		c-0.4-2.4-0.9-4.7-1.4-7.1c-0.4,0.3-0.5,0.7-0.6,1c-1.3,3-2.6,5.9-4,8.9c-0.6,1.2-1.3,2.4-2.1,3.6c-0.2,0.3-1,0.7-1.2,0.5
		c-0.3-0.2-0.5-0.8-0.6-1.3c0-0.2,0.3-0.6,0.5-0.8c1.1-1.8,2.4-3.4,3.2-5.3c1.4-3.1,2.4-6.4,3.6-9.6c1-2.7,1.9-5.5,3.2-8
		c1.8-3.4,3.9-6.6,6.1-9.7c2.5-3.5,5.5-6.7,7.9-10.3c2.7-4,4.9-8.4,7.4-12.5c2.2-3.7,4.6-7.4,8.5-9.7c1.1-0.6,2.3-1.4,2.9-2.4
		c0.8-1.4,1.4-3,1.6-4.7c0.5-3.5,0.7-7.1,1.1-10.7c0.3-2.6,1.2-5.1,3.1-6.9c1.6-1.6,3.5-2.9,5.1-4.5c1.6-1.6,3.1-3.5,4.7-5.2
		c0.6-0.7,0.6-1.4,0.2-2c-0.4-0.6-1.2-0.7-1.9-0.3c-0.6,0.4-1.2,0.9-1.6,1.4c-1.9,2.5-4.4,4.3-7.2,5.5c-2.1,1-4.3,1.9-5.8,3.8
		c-0.1,0.1-0.1,0.2-0.2,0.2c-0.3,0-0.8,0.1-1,0c-0.2-0.1-0.3-0.6-0.2-0.9c0.4-1.2,0.7-2.5,1.3-3.6c1.2-2.1,2.5-4.1,3.8-6.1
		c1.2-1.7,3.1-2.5,4.7-3.7c1.5-1.1,2.9-2.2,4.3-3.3c0-0.1-0.1-0.2-0.1-0.4c-0.4-0.1-0.8-0.3-1.2-0.4c-0.9-0.2-1.9-0.2-2.7-0.5
		c-0.8-0.2-1.3,0-1.9,0.4c-1.2,0.7-2.4,1.5-3.6,2.2c-1.4,0.8-2.8,1.6-4.3,2.4c0.4,0.2,0.7,0.3,0.9,0.3c0.5,0.2,1.4,0.3,1.2,1
		c-0.3,0.9-1.1,0.3-1.6,0.1c-1.8-0.5-2.1-0.5-3,1.1c-1.2,2.2-2.2,4.4-3.3,6.7c-0.1,0.3-0.5,0.4-0.8,0.6c-0.2-0.3-0.4-0.6-0.4-0.9
		c0-0.2,0.2-0.5,0.3-0.7c0.4-0.9,0.6-1.8,1.1-2.6c1-1.8,2-3.6,3.2-5.2c1.6-2,4.1-2.7,6.2-4c1.4-0.9,2.9-1.7,4.3-2.6
		c0-0.1,0-0.3-0.1-0.4c-0.5-0.1-0.9-0.4-1.4-0.4c-2.6-0.3-4.9,0.9-7.2,1.9c-1.2,0.5-2.4,1.2-3.8,1.9c0.7,0.2,1.1,0.2,1.5,0.4
		c0.3,0.1,0.5,0.5,0.7,0.7c-0.4,0.2-0.7,0.5-1.1,0.4c-0.7-0.1-1.3-0.3-2.1-0.5c-0.9,1.5-1.8,3.1-2.8,4.5c-1.4,2-3,3.8-4.5,5.8
		c-0.6,0.9-0.9,2-1.4,2.9c-0.2,0.4-0.6,0.9-0.9,0.8c-0.6-0.1-0.6-0.6-0.5-1.2c0.3-1.4,0.8-2.6,1.8-3.6c0.7-0.8,1.5-1.6,2.1-2.4
		c1.7-2.3,3.3-4.7,5-7.1C82.8,66.6,82.8,66.4,82.8,66.3z M183.3,169c-0.5,2.4-0.9,4.9-1.4,7.3c-0.1,0.6,0,1,0.5,1.4
		c0.9,0.7,1.7,1.5,2.6,2.2c2.7,2.2,5.4,4.5,8.1,6.7c2.4,2,5.4,2.7,8.4,3.6c2.7,0.8,5.5,1.3,7.7-1.3c0.1-0.1,0.2-0.1,0.2-0.2
		c1.6-1.2,3.2-2.3,4.6-3.6c2.4-2.1,3.5-4.8,3.3-8c-0.1-1,0-2.1,0-3.1c-0.1-4.4-0.9-8.5-3.5-12.1c-0.3-0.4-0.5-0.7-0.7-1.1
		c-2.2-3.7-4.3-7.5-6.5-11.2c-0.5-0.8-1.1-1.5-1.8-2.2c-1.9-1.7-3.8-3.4-5.7-5c-3.9-3.3-7.2-7.1-10.4-11c-1.6-2-3.1-4.2-4.6-6.3
		c-1.1-1.5-2.4-3-3.5-4.5c-1-1.4-2-2.8-3-4.2c-1.7-2.2-3.7-4.2-4.6-6.9c-0.9-2.6-2.4-5.1-2.3-7.9c0-2.9,0.2-5.7,0.3-8.6
		c0.1-1.1,0.3-2.2,0.4-3.3c0.2-2.3,0.3-4.5,0.4-6.8c0-2-0.8-3.6-1.9-5.2c-2.3-3.1-4.8-6-6.5-9.5c-0.5-1-1-1.2-2-0.6
		c-0.2,0.1-0.5,0-0.8,0c0.1-0.3,0-0.8,0.2-1c0.3-0.3,0.7-0.4,1.2-0.6c-0.1-0.1-0.2-0.2-0.3-0.3c-2.1-1.1-4.2-1.9-6.5-2.3
		c-2.1-0.4-4.1-1-6.1-1.7c-1-0.3-1.6,0.2-2.3,0.6c-0.2,0.1-0.4,0.8-0.4,0.8c0.5,0.3,1.1,0.8,1.7,0.9c1.4,0.3,2.8,0.5,4.2,0.6
		c3.4,0.4,5.8,1.9,6.9,5.2c0.3,0.8,0.7,1.5,1,2.3c0.8,2,1.6,4.1,2.4,6.1c0.1,0.3-0.2,0.7-0.3,1c-0.4-0.2-0.9-0.2-1.2-0.5
		c-0.3-0.4-0.5-0.9-0.7-1.4c-1.1-2.7-2-5.4-3.2-8.1c-1-2.4-3.2-3-5.6-3.2c-1.3-0.1-2.6-0.2-4-0.4c-0.7-0.1-1.4-0.3-2.2-0.5
		c0,0.9-0.1,1.6,0,2.3c0.1,1.2,0.5,2.4,1.8,2.9c1.1,0.4,2.3,0.8,3.5,1.1c0.3,0.1,0.7-0.2,1.1-0.3c0.4-0.1,0.8-0.3,1.3-0.4
		c-0.1,0.4,0,1-0.3,1.3c-0.4,0.4-0.4,0.8-0.2,1.2c0.7,1.4,1.3,2.8,1.2,4.5c0,0.7,0.4,1.3,0.5,2c0.2,0.9,0.2,1.7,0.3,2.6
		c-0.1,0-0.2,0.1-0.3,0.1c-1.4-1.2-2.9-2.2-3.8-3.8c-0.6-1-1.6-1-2.3-0.1c-0.2,0.3-0.4,0.6-0.7,0.7c-0.3,0.2-0.6,0.1-0.9,0.2
		c0.1-0.3,0-0.7,0.2-1c0.4-0.5,0.8-1,1.3-1.5c-1.5-1.4-3.3-2.2-4.4-3.8c-1.1-1.6-2.8-2.7-4.2-4.1c-0.5-0.5-0.9-0.3-1.3,0.2
		c-1.1,1.4-1.1,2.8-0.2,4.4c2.3,3.9,5.4,7,8.8,9.8c0.6,0.5,1.4,0.8,2,1.2c0.4,0.2,0.9,0.3,1.1,0.6c0.2,0.2,0.3,0.7,0.3,1
		c0,0.1-0.6,0.2-0.9,0.3c-0.2,0-0.4-0.1-0.7-0.1c0.1,0.3,0.2,0.5,0.2,0.7c0.4,1.4,1.1,2.8,1.2,4.2c0.2,3.8,0.2,7.6,0.3,11.3
		c0,0.4,0,0.8,0.1,1.2c0.6,3,2.3,5.5,4.2,7.8c1.2,1.4,2.4,2.9,3.5,4.4c3.4,4.5,6,9.5,8.8,14.4c1.7,2.9,2.9,6.1,5.1,8.6
		c0.7,0.7,1.2,1.6,1.6,2.5c1.1,2.4,2,4.8,3,7.2c2.3,5.2,4.7,10.4,6.9,15.7c1.7,4.1,3.5,8.2,6,11.9c0.4,0.6,0.8,1.2,1.1,1.9
		c0.1,0.4-0.1,0.9-0.2,1.3c-0.4-0.1-0.9-0.1-1.2-0.3c-0.2-0.1-0.3-0.4-0.5-0.6C187,175.4,185.2,172.3,183.3,169z M113,84.5
		c-0.4,1.4-1.2,1.3-2.1,1.1c-3.2-0.8-6.4-1.3-9.8-1.4c-1.4,0-2.2,0.5-3,1.4c-0.5,0.6-0.9,1.2-1.2,1.8c-1.3,2.4-1.4,5.2-1.6,7.9
		c-0.2,2.1-0.4,4.2-0.5,6.3c-0.1,1.2-0.8,2.4-0.2,3.7c0.9,1.8,1.5,3.7,2.4,5.4c1.7,3.3,3.8,6.3,6.6,8.9c1.1,1,2.2,1.8,3.2,2.9
		c1.7,1.8,3.8,3,6,4c2.6,1.2,5.4,2,8.2,2.5c4,0.8,7.4-0.5,10-3.7c1.4-1.7,3.1-3.3,4.6-5c1.5-1.5,3.1-2.9,4.5-4.5
		c2-2.3,3.8-4.8,4.9-7.7c1-2.5,1.8-4.9,2.2-7.6c0.3-2,1.2-3.9,1.4-5.8c0.2-1.6-0.2-3.2-0.5-4.8c-0.2-1.2-0.7-2.3-1-3.5
		c-0.2-1-1.5-1.8-2.5-1.5c-3.8,1.2-7.8,1.9-11.8,1.7c-0.3,0-0.6-0.3-0.9-0.4c0-0.1,0.1-0.2,0.1-0.3c3.7-1.6,8-0.8,11.9-2.6
		c-0.3-0.5-0.5-1-0.9-1.2c-1.6-0.8-2.7-2.2-3.6-3.6c-1.2-1.7-2.3-3.4-3.6-5.3c-0.5,0.4-1.1,0.7-1.3,1.2c-0.9,2.3-2.6,3.9-4.6,5.3
		c-3,2.1-6.5,2-9.9,1.5c-2.1-0.3-4.1-1.3-6.1-2.1c-1.3-0.5-2.6-0.9-3.5-2.1c3.9-0.9,7.5-2.2,9.5-6c0.7-1.3,1.3-2.8,1.8-4.2
		c0.1-0.3-0.1-0.6-0.1-0.9c-0.3,0-0.6,0-0.9,0.1c-1.7,0.8-3.3,1.8-5,2.4c-2.5,0.9-5.1,0.9-7.7,0.3c-0.8-0.2-1.5-0.7-2.1-1.2
		c-1.2-1.1-1.5-1.2-2.7-0.1c-2,1.9-4.1,3.7-6.6,5c-0.5,0.3-0.9,0.7-1.3,1.1c-0.2,0.2-0.4,0.8-0.2,1c0.7,0.9,1.4,1.8,2.3,2.9
		c1.8-1.7,3.4-3.2,5.1-4.8c1.1-1.1,2.3-2.3,4-1.8c0.7,0.2,1.8,0.7,2,1.2c0.4,1,0.8,2.3-0.1,3.3c-1.1,1.3-2.2,2.6-3.4,3.8
		c-0.8,0.8-1.7,1.6-2.5,2.4c-0.2,0.2-0.3,0.6-0.4,0.9c0.3,0.1,0.6,0.4,0.9,0.3c2.1-0.1,4.1,0,6.1,0.6
		C110.4,83.7,111.7,84.1,113,84.5z M94.7,123.2c0.9,3.1,2.6,5.5,4.6,7.7c1.1,1.2,2.3,2.3,4.1,2.8c2.9,0.9,5.6,2.4,8.5,3.3
		c2.4,0.7,5,1,7.6,1.2c2,0.2,4.2,0.2,6.1-0.6c3.8-1.6,7.3-3.7,10.1-6.8c0.6-0.6,1-1.4,1.2-2.2c0.3-1.4,0.4-2.9,0.7-4.3
		c0.2-1.2,0.5-2.3-0.8-3c0,0-0.1,0-0.2,0c-1.8,1.2-3.2,2.8-4.4,4.6c-1.6,2.4-3.8,4-6.8,4.4c-4,0.5-7.8,0-11.5-1.6
		c-3.8-1.7-7.1-4.1-10.1-7c-1.6-1.5-3.1-3.1-4.7-4.6C98.4,119.6,97,121.8,94.7,123.2z M87.7,125.9c0.3,0.7,0.6,1.2,0.8,1.8
		c1.3,3.9,4,6.8,7.1,9.2c2.3,1.9,5,3.3,7.8,4.2c2.2,0.7,4.3,1.6,6.5,2.1c3.6,0.8,7.3,0.8,10.9,0.6c2.6-0.2,5.2-0.6,7.7-1.1
		c3-0.6,5.7-2.1,8.3-3.6c1.9-1.1,3.7-2.5,5.3-4c2.6-2.4,3.2-5.7,2.9-9.1c0-0.3-0.4-0.6-0.6-0.7c-1.4-0.6-2.9-1.2-4.3-1.8
		c-0.2-0.1-0.4,0-0.6,0c-0.2,1.1-0.3,2.1-0.5,3.1c-0.2,1.8-0.2,3.7-1.6,5.1c-0.7,0.7-1.4,1.4-2.2,2.1c-2.7,2.6-6,4.5-9.5,5.7
		c-4,1.4-8.1,0.7-12.1-0.1c-3.1-0.7-6.2-1.9-9.2-3c-4.8-1.9-8.2-5.2-10.3-9.9c-0.3-0.8-0.6-1.6-0.9-2.3
		C91.3,124.7,89.5,125.3,87.7,125.9z M162.3,125.8c-1.1-1.7-2.1-3.5-3.2-5.2c-2-2.9-3.6-6-6-8.5c-1.8-1.9-3.1-4.2-3.8-6.7
		c-0.5-1.7-0.5-3.5-0.7-5.4c-0.4,4-1.7,7.6-3.6,11c-1.9,3.5-4.4,6.4-7.2,9.3c1,0.5,1.8,1.1,2.8,1.5c4.2,1.9,8.5,3.3,12.9,4.4
		C156.5,126.9,159.3,127.2,162.3,125.8z M77.7,126.2c1.6,0.1,3.1-0.3,4.6-0.8c3.3-1,6.6-1.8,9.9-2.9c2.6-0.8,4.4-2.7,5.4-5.2
		c0.5-1.3,0.6-2.7-0.4-3.9c-0.3-0.3-0.5-0.7-0.7-1.1c-1-2-2-4.1-3-6c-0.4,0.6-0.8,1.4-1.4,2c-0.7,0.6-1.4,1.2-2.2,1.7
		c-2.6,1.5-4.6,3.6-6.2,6.1c-2.1,3.2-3.9,6.5-5.9,9.8C77.6,125.9,77.7,126,77.7,126.2z M178.4,185.3c0.4-2.5,0.7-5,1.3-7.4
		c0.8-3.7,1.1-7.5,2.7-10.9c0.1-0.2,0.1-0.6,0-0.9c-1.1-2.5-2.2-5.1-3.3-7.7c-0.1,0.1-0.2,0.2-0.4,0.3c-2.6,2.6-3.8,5.9-4.6,9.3
		c-0.9,3.7-1.1,7.4-0.9,11.2c0,0.4,0.1,0.9,0.3,1.3C174.6,182.8,176.6,184,178.4,185.3z M59.4,153.1c-0.6,1.7-1.2,3.3-1.9,4.9
		c-0.4,1.1-0.4,2,0.3,2.9c0.3,0.3,0.4,0.8,0.5,1.2c0.6,2.9,1.3,5.9,1.8,8.8c0.5,3.1,0.5,6.2-0.2,9.3c-0.2,1.2-0.6,2.4-0.8,3.6
		c0.2-0.1,0.3-0.1,0.4-0.1c1.9-2,3.8-4,5.6-6c0.2-0.3,0.3-0.7,0.3-1.1c0-2-0.2-4.1-0.2-6.1c0-3-0.3-5.9-1-8.8
		C63.4,158.5,62.3,155.5,59.4,153.1z M41.3,187.6c1.8,2.1,4,2.7,6.4,2.9c1.9,0.2,3.4-0.8,5-1.3c2.3-0.8,3.8-2.3,4.4-4.7
		c0.4-1.6,0.9-3.1,1.2-4.7c0.2-1.3,0.3-2.7,0.4-4.2C53.2,180.2,47.3,184,41.3,187.6z M187.7,184.6c-2.4,1.1-4.8,0.3-7.1,0.4
		c-0.3,1.4,0.1,2.2,1.5,2.7c2,0.7,3.9,0.9,6,0.3c0.9-0.2,1.8-0.5,2.9-0.8C189.8,186.2,188.7,185.3,187.7,184.6z M181.6,179
		c-0.1,0-0.3,0-0.4,0.1c-0.2,1.1-0.4,2.2-0.5,3.3c0,0.3,0.5,0.8,0.8,0.8c1.5,0.1,3,0,4.6,0C184.5,181.7,183,180.4,181.6,179z
		 M91.6,79.8c0.4,0,0.7,0,0.9-0.1c0.9-0.5,1.8-1,2.6-1.6c0.3-0.2,0.5-0.8,0.4-1c-0.3-0.5-0.7-1-1.2-1.3c-0.1-0.1-0.7,0.2-0.9,0.5
		c-0.5,0.6-0.9,1.3-1.3,2C91.8,78.7,91.8,79.2,91.6,79.8z"/>
	<path class="st0" d="M123,120.1c-2.6-0.4-4.8-0.4-6.7-1.8c-0.9-0.7-1.5-1.9-2.8-2.1c-0.2,0-0.4-0.4-0.3-0.6c0-0.2,0.3-0.4,0.5-0.5
		c2-0.6,4.1-1.3,6.2-1.9c0.3-0.1,0.7-0.1,0.9,0c1,0.4,1.9,0.4,3,0.1c0.8-0.2,1.8-0.1,2.7,0.1c1.4,0.3,2.8,0.8,4.2,1.2
		c0.3,0.1,0.6,0.2,0.8,0.3c0.6,0.3,0.5,0.7,0,1.1c-1.6,1.1-3.1,2.2-4.8,3.1C125.5,119.6,124,119.8,123,120.1z M128.9,115.7
		c-0.6,0.1-1.2,0.1-1.8,0.4c-2.4,1.1-4.9,1.4-7.5,0.6c-1.1-0.3-2.4-0.4-3.7-0.6C118.3,119.8,125.4,119.6,128.9,115.7z M117.3,115.1
		c3.5,0.8,6.8,1.6,9.9-0.4c-1.3-0.7-2.6-0.8-4-0.3c-0.4,0.2-1.1,0.3-1.4,0.1C120.2,113.8,118.9,114.6,117.3,115.1z"/>
	<path class="st0" d="M129.2,105c-0.6-1-1.1-1.8-1.5-2.6c-0.2-0.4-0.4-1.3-0.2-1.3c0.7-0.4,0.9,0.4,1.2,0.8c0.3,0.4,0.5,0.9,0.8,1.3
		c1.2,1.5,0.6,3.8-1.3,4.2c-1.7,0.4-3,1.3-4.4,2c-1.2,0.6-1.8,0.6-2.6-0.4c-1-1.3-2.4-1.5-3.8-1.6c-1.5,0-2.5-0.9-2.3-2.3
		c0.1-1,0.7-2,1.1-2.9c0.1-0.2,0.6-0.3,0.9-0.4c0,0.3,0,0.6-0.1,1c-0.2,0.8-0.6,1.6-0.7,2.4c-0.2,0.9,0.4,1.2,1.2,1.2
		c0.6,0,1.3,0,1.9,0.1c1.1,0.2,2,0.8,2.7,1.7c0.4,0.5,0.8,0.5,1.3,0.2c1.5-0.9,2.9-1.9,4.7-2.2C128.4,106.2,128.7,105.5,129.2,105z"
		/>
	<path class="st0" d="M108.5,93.8c-2.8-0.1-5.4-0.8-7.2-3.3c-0.2-0.3-0.3-1-0.1-1.2c0.5-0.5,0.9,0,1.2,0.3c0.8,0.6,1.5,1.4,2.4,1.8
		c2.4,1.2,4.9,0.8,7.3,0.2c0.9-0.2,1.8-0.6,2.8-0.8c0.4-0.1,0.8,0.3,1.2,0.4c-0.2,0.3-0.4,0.9-0.8,1C113.2,93,111,93.9,108.5,93.8z"
		/>
	<path class="st0" d="M137,94c-0.7-0.2-1.9-0.5-3.1-0.9c-1.1-0.4-2.3-0.8-3.4-1.1c-0.4-0.1-0.8,0.1-1.2,0c-0.4-0.1-0.7-0.3-1.1-0.4
		c0.3-0.3,0.5-0.9,0.8-0.9c0.8-0.1,1.7-0.1,2.4,0.1c1.1,0.3,2.2,0.7,3.3,1.1c2.3,0.8,4.4,0.6,6.4-0.8c0.5-0.3,0.9-0.6,1.5-0.8
		c0.3-0.1,0.7,0,0.9,0.2c0.1,0.2,0.1,0.7-0.1,0.9C141.7,92.6,139.9,94,137,94z"/>
</g>
</svg>
