<?xml version="1.0" encoding="utf-8"?>
<!-- Generator: Adobe Illustrator 19.1.0, SVG Export Plug-In . SVG Version: 6.00 Build 0)  -->
<svg version="1.1" id="Layer_1" xmlns="http://www.w3.org/2000/svg" xmlns:xlink="http://www.w3.org/1999/xlink" x="0px" y="0px"
	 viewBox="0 0 210.6 150.2" style="enable-background:new 0 0 210.6 150.2;" xml:space="preserve">
<style type="text/css">
	.st0{fill:#00BCD4;}
</style>
<g id="lice-mother-child">
	<path class="st0" d="M20.3,149.1c-0.8,0-1.2,0-1.7,0c-0.9-3.3-3.1-5.9-5-8.7c-3-4.3-6.2-8.6-8.5-13.4c-1.5-3.1-3-6.2-4.5-9.2
		c-0.1-0.3-0.3-0.6-0.3-0.9c0-3.7-0.3-7.3,0.7-10.9c0.1-0.3,0.1-0.6,0.3-0.8c1.5-1.9,1.1-3.8,0.2-5.8c-2.5-5.5-1.4-10.8,0.9-16
		c1-2.4,2.4-4.7,4-6.8c0.9-1.2,2.2-2.2,3.6-2.9c2.2-1.2,3.3-3.2,4.6-5.1c3-4.4,4.4-9.2,4.3-14.5c0-1-0.4-2-0.4-3.1
		c-0.3-4.3-0.5-8.7-0.7-13c-0.1-1.5-0.1-3-0.2-4.4C17,30.6,18,28,19,25.3c1.2-3.1,2.3-6.3,3.8-9.2c1.8-3.6,3.8-7.3,7.1-9.7
		c2-1.5,4.4-2.5,6.8-3.6c3-1.3,6.2-1.8,9.5-2.1c3.2-0.3,6.4-0.7,9.7-0.6C61.7,0.2,67,2,72.2,4.6c3,1.6,4.6,4.4,4.8,7.7
		c0.1,2.3,1.1,3.8,2.2,5.6c1.6,2.5,3.1,5,4.2,7.6c0.7,1.8,0.8,4,0.8,6.1c0,2.6,0.9,4.6,3,6.3c2.6,2.1,5,4.3,7.5,6.5
		c2,1.7,1.9,4.7-0.8,5.7c-0.9,0.3-1.7,1-2.8,1.6c0.9,1.5,2.6,2.9,0.8,4.7c1.5,2,0.9,5.1-1.3,6.5c0.5,1.3,1,2.6,1.5,3.9
		c0.1,0.3,0.5,0.5,0.7,0.6c5.6,2.4,11.3,4.7,16.9,7c0.3,0.1,0.6,0.2,0.8,0.1c3.8-2,7.6-4.1,11.4-6.1c-0.4-1.4-0.4-1.4,2.5-2.8
		c-0.5,0-1-0.1-1.5-0.1c-0.5,0-1,0-1.5,0c0-0.2-0.1-0.3-0.1-0.5c0.6-0.2,1.3-0.5,1.9-0.5c0.7,0,1.4,0.3,2.4,0.4
		c-0.8-0.8-2.1-0.6-2-2c0.9,0.3,1.6,0.5,2.3,0.8c0.8-1.3,0-2.2-0.8-3.2c1.7-0.1,2,0.2,2.5,2.8c0.4-0.6,1.1-1.2,1.3-1.9
		c0.1-0.7-0.2-1.5-0.4-2.3c0.2-0.1,0.3-0.1,0.5-0.2c0.3,0.6,0.7,1.2,0.9,1.6c0.8-0.6,1.7-1.3,2.8-2.2c-1.1-0.2-1.8-0.3-2.4-0.4
		c-1-0.2-1.7-1.1-1.5-1.9c0.2-0.7-0.1-0.7-0.5-1c-0.6-0.5-1.5-1.1-1.6-1.7c-0.1-1,0.2-2.3,1.4-2.8c1-0.4,2.2-0.6,3.3-0.7
		c0.8-0.1,1.6-0.1,1.7-1.2c0-0.3,0.3-0.6,0.5-0.8c3.6-3.4,7.5-6.4,12.5-7.5c1.5-0.3,3-0.3,4.5-0.4c0.5,0,1.1,0.3,1.3,0.6
		c0.9,1.6,2.5,2.2,4,2.9c1.3,0.6,2,1.6,2.4,3c0.2,0.9,1.2,1.7,1.9,2.3c1,0.9,1.6,1.9,1.6,3.3c0,0.4,0.3,0.9,0.6,1.1
		c1,0.8,1.6,1.8,1.8,3.1c0.2,0.9,0.6,1.7,0.6,2.6c0.1,1.4,0,2.9,0,4.3c0,0.7,0,1.5,0.3,2c1.3,2.1,2.8,4,4.2,6c0.1,0.2,0.7,0.2,1,0.1
		c0.8-0.3,1.6-0.2,2,0.5c2.1,3.5,4.9,6.7,6.1,10.8c0.3,0.9,0.4,1.8,0.6,2.8c0.4,2.4-0.9,3.8-2.8,4.9c-0.8,0.5-0.9,0.9-0.6,1.7
		c1.6,4.5,2.1,9.2,1.9,14c0,0.1,0,0.2,0,0.4c-0.1,0.6-0.4,1.3-0.2,1.8c0.3,0.4,1,0.7,1.6,0.8c4.3,1.1,7.2,4.4,10.8,6.6
		c2.8,1.7,5.7,3.1,8.4,4.9c1.6,1,3.6,1.8,4.5,3.8c0.2,0.5,0.7,0.8,1.2,1.2c2.6,1.9,3.9,4.5,4,7.6c0.1,5.5,1.9,10.8,2.5,16.2
		c0,0.4-0.2,0.7-0.3,1.1c-0.3-0.3-0.7-0.6-0.8-0.9c-0.5-5.4-2.4-10.5-2.5-16c0-2.9-1.3-5.1-3.4-7.2c-4.2-4.2-9.4-6.7-14.3-9.8
		c-0.9-0.6-1.8-1.2-2.8-1.9c-0.1,2.2-0.3,4.1-0.4,6.1c-0.3,5-1.2,9.9-2,14.8c-0.7,4.2-1.7,8.2-3.1,12.2c-0.3,0.8-0.4,1.9-1.5,1.6
		c1-3.4,2.1-6.8,2.9-10.2c0.9-3.9,1.6-7.9,2.1-11.9c0.5-4.4,0.7-8.8,0.9-13.2c0-0.4-0.9-0.8-1.4-1.2c-0.2,0.3-0.6,0.6-0.6,0.9
		c-0.1,1.7-0.1,3.5,0,5.2c0.1,3.1-0.3,6.1-1.1,9.1c-0.9,3.3-1.2,6.7-2.1,9.9c-1,3.4-2.5,6.7-3.8,10.1c-0.3,0.9-0.9,1.6-2.1,1.1
		c0.4-0.4,0.9-0.8,1.1-1.3c2.1-4.5,3.9-9.1,4.8-13.9c0.6-3,1.3-5.9,1.7-8.9c0.3-2.3,0.2-4.7,0.3-7c0.1-1.7,0-3.4,0.3-5.1
		c0.1-0.9-0.1-1.5-0.9-1.8c-1.3-0.6-2.7-1.1-4.1-1.6c-0.7-0.2-1.1,0.1-1.2,0.9c-0.5,3-1.4,6-3.2,8.4c-1.6,2.1-3.3,4.1-5.9,5
		c-0.3,0.1-0.7,0.2-1,0.2c-3.3,0-6.6-0.3-9.6-1.7c-2.6-1.2-5.3-2.1-7.9-3.3c-1-0.5-1.9-1.2-3-1.9c0,2.2,1,4.1,0.5,6.1
		c-0.1,0-0.3,0-0.4,0.1c-0.1-0.8-0.3-1.6-0.4-2.4c-0.3-2.3-0.6-4.6-2.3-6.4c-0.9-0.9-1.5-2.1-2.3-3c-0.3-0.3-1-0.5-1.4-0.4
		c-2.3,1-4.6,2.1-6.8,3.3c-1.5,0.8-1.8,1.4-0.7,2.7c3,3.7,3.8,8.5,6.3,12.4c1.9,3,3.7,6.2,5.6,9.2c0.3,0.5,0.7,1.1,0.8,1.7
		c1.1,3.6,3.9,6,6.1,8.7c-1.1,0.2-1.1,0.2-1.9-0.7c-0.9-1.1-1.9-2.2-2.8-3.3c-0.4-0.6-1-1.1-1.2-1.8c-1.6-4.4-4.6-7.9-6.7-12
		c-1.8-3.3-3.3-6.8-5-10.2c-0.4-0.9-1.1-1.7-1.6-2.6c-0.5-0.8-1-1.6-1.5-2.5c0.1,0,0.1,0,0.1,0c-2.5,1.7-2.7,0.9-1.2,3.9
		c1,2.2,2.3,4.2,3.4,6.4c1.8,3.6,3.4,7.3,5.3,10.8c1.3,2.5,3.1,4.8,4.5,7.3c1,1.7,1.9,3.6,4.1,4.5c-2,0.6-2.9-0.6-3.6-1.8
		c-2.7-4.5-5.5-8.9-8-13.5c-1.4-2.5-2.3-5.2-3.5-7.8c-1.3-2.6-2.7-5.1-4.2-7.8c-1.3,1-2.8,1.9-4.1,3c-1.4,1.1-2.7,2.3-4.1,3.3
		c-2.9,2-4.3,4.9-5,8.3c-0.5,2.3-1.3,4.6-2,6.9c-0.9,2.9-1.9,5.9-2.9,8.8c-0.1,0.4-0.6,0.6-0.9,0.9c-0.1-0.1-0.2-0.2-0.3-0.3
		c0.7-2.1,1.4-4.2,2.1-6.2c0.8-2.4,1.8-4.7,2.5-7.1c0.9-3.4,1.5-6.8,2.4-10.2c0.3-1.1,0.7-2.3,1.2-3.3c1.6-3.1,2.9-6.2,5.1-9
		c1-1.2,1.2-2.9,1.3-4.6c0.1-1.8,0.5-3.5,0.7-5.2c0.2-1.3,0.3-2.5,0.4-3.8c0.3-2.7,0.4-5.5,1.1-8.2c1-4.2,3.7-7.7,6.1-11.2
		c1.1-1.6,1.7-3.3,1.4-5.2c-0.1-0.4-0.5-1-0.9-1.1c-0.3-0.1-1,0.1-1.2,0.3c-1.6,1.9-3.2,3.8-4.8,5.8c-0.4,0.5-0.8,1-1.3,1.4
		c-3,2.5-4.5,5.8-5.5,9.4c-0.1,0.5-0.3,1-0.5,1.4c-0.1,0-0.3,0-0.4,0c0-0.5-0.1-1,0-1.5c1-4.8,3-9.2,6.1-13c1.5-1.8,3.5-3.1,5.3-4.7
		c0.7-0.6,1.3-1.1,1.9-1.8c0.9-0.9,0.9-2.2,0-3.2c-0.2-0.2-0.7-0.2-1-0.1c-1.2,0.8-2.4,1.7-3.6,2.5c-1.4,1-2.7,2.1-4.2,2.8
		c-3.7,1.9-5.8,4.9-7,8.7c-0.6,1.8-1,3.7-1.5,5.6c-0.1,0.4-0.3,0.8-0.5,1.2c-0.1,0-0.2,0-0.3-0.1c0-0.3-0.2-0.6-0.1-0.8
		c1-3.1,1.8-6.3,3-9.3c1.1-2.8,3.5-4.4,6-5.9c2.8-1.8,5.6-3.7,8.4-5.6c0.1-0.1,0.1-0.3,0.3-0.7c-0.9,0.1-1.8,0-2.4,0.3
		c-4.3,2-8.6,3.9-12.9,6c-1.5,0.8-2.5,2.1-3.1,3.7c-0.9,2.8-1.9,5.6-2.9,8.3c-0.2,0.5-0.6,0.9-0.8,1.4c-0.1-0.1-0.2-0.1-0.3-0.2
		c1.3-3.7,2.5-7.5,3.8-11.2c0,0-0.1,0-0.1-0.1c-0.6,0.9-1.4,1.8-1.9,2.8c-1.8,3.1-3.6,6.2-5.2,9.5c-1.1,2.3-0.9,4.9-0.6,7.3
		c0.7,4.6,0.3,9.2,0.3,13.7c0,1.8-0.4,3.7-1,5.5c-0.9,2.6-2,5.1-3,7.6c-1.5,3.7-3,7.5-4.1,11.3c-0.4,1.3-1.3,2.5-1.9,3.8
		c-0.9,1.8-1.7,3.7-2.6,5.5c-1.2,2.3-2.4,4.6-3.7,6.9c-0.2,0.3-0.7,0.4-1.2,0.6c2.1-4.2,4-8.3,6-12.4c-0.1-0.1-0.2-0.1-0.3-0.2
		c-0.8,0.3-1.6,0.7-2.5,0.9c-0.7,0.1-1.4,0.9-2.2,0.2c1.8-0.8,3.5-1.5,5.2-2.4c0.6-0.3,1.2-1.1,1.5-1.7c0.7-1.8,1.1-3.6,1.7-5.4
		c0.3-0.9,0.6-1.7,1-2.5c0.5-0.8,0.4-1.5,0.2-2.4c-0.8-2.9-1.4-5.9-2.5-8.7c-1.2-3.3-2.8-6.4-4.1-9.7c-0.7-1.7-1.9-3.1-2.9-4.5
		c-1-1.3-1.5-3-2-4.6c-0.9-2.6-1.7-5.3-2.4-8c-0.9-3.5-1.6-7-2.5-10.4C81,77,81,76.6,80.8,76.2c-1-2.5-1.3-2.7-4-2.1
		c-1.3,0.3-2.7,0.5-4.2,0.7c3,3.2,3.1,7.2,4.2,10.9c0.6,1.9,1,4,1.8,5.8c0.9,2.1,1.2,4.4,1.5,6.6c0.3,2,0.6,4,0.5,6
		c-0.1,2.9-0.5,5.8-0.8,8.7c-0.1,1-0.2,2-0.3,3c-0.3,2.9-2.2,4.6-4.7,5.8c-2.1,1-4.3,1.8-6.6,1c-1-0.4-2.1-0.9-3-1.6
		c-4.1-3.5-8.1-7-12.1-10.6c-1.2-1.1-2.3-2.4-3.6-3.5c-1.2-1-2.7-1.6-3.9-2.6c-1.3-1.1-3.1-1.3-4.3-2.7c-0.8-1-2.2-1.4-3.3-2.2
		c-1.1-0.8-2.1-1.8-3.3-2.5c-1-0.6-2.1-1-3.2-1.4c-1.5-0.6-2.9-1.1-4.4-1.6c-3-1-6-2.3-9.1-2.9c-1.8-0.3-3.9,0.1-5.7,1.4
		c-1.7,1.3-3.2,2.7-4.6,4.2c-1.1,1.2-1.9,2.7-2.9,4c-0.1,0.2-0.1,0.4-0.2,0.9c1.2-0.9,2.1-1.7,3.1-2.4c1.8-1.3,3.9-2.1,6.2-2
		c1.5,0.1,3.1,0.4,4.5,0.9c2.3,0.9,4.8,1.8,6.8,3.1c3.7,2.4,7.4,5,10.7,8c2.7,2.4,4.9,5.5,7.3,8.3c1.1,1.2,2.2,2.4,3.2,3.7
		c1.5,1.9,1.4,3.4,0.3,5.5c-0.9,1.8-1.5,3.9-2.2,5.8c-0.1,0.2,0,0.5,0.1,0.7c1.9,4.5,4.1,8.8,7.5,12.4c1.3,1.4,2.9,2.1,5,2.2
		c4,0.2,7.6-1.3,11.2-2.7c0.3-0.1,0.7-0.2,1.1-0.1c-4.1,2.4-8.6,3.7-13.4,3.3c0,1.2-0.5,1-1,0.6c-1.4-1.2-3-2.3-4.1-3.7
		c-1.8-2.2-3.4-4.6-4.7-7.1c-1.4-2.7-2.4-5.6-3.4-8.4c-0.4-1.1-0.6-2.4-0.8-3.6c-0.5-3.2-1.8-6-3.8-8.5c-0.6-0.8-1.7-1.2-2.8-2
		c0.4,0,0.7-0.1,0.9-0.1c2.3,0.6,3.4,2.5,4.4,4.5c1.6,3.2,2.4,6.6,2.9,10.2c0,0.3,0.3,0.5,0.5,1c0.2-0.4,0.4-0.7,0.5-1
		c0.5-1.3,0.9-2.7,1.6-3.9c1.2-2.1,1.1-3.5-0.5-5.3c-2.7-3.1-5.7-6-8.2-9.2c-2.2-2.9-5.1-4.9-8-6.8c-2.3-1.6-4.6-3.2-7.1-4.6
		c-1.6-0.9-3.4-1.6-5.3-2.1c-2.4-0.6-4.8-0.6-7,0.6c-1.7,0.9-3.2,2.2-4.9,3.2c-1.9,1.1-2.8,2.8-3.5,4.7c-0.2,0.7-0.3,1.4-0.4,2.1
		c-0.1,2.3-0.2,4.6-0.2,6.9c0,0.8,0.2,1.6,0.5,2.3c2.8,5.9,5.7,11.7,9.4,17c1.7,2.4,3.5,4.8,5.2,7.3
		C17.7,144.4,18.9,146.6,20.3,149.1z M57.6,66.4c0.1,0,0.2-0.1,0.3-0.1c0.4,1,0.7,2,1.2,2.9c0.3,0.5,0.8,1,1.3,1.2
		c3.1,1,6.2,2,9.4,2.8c1.4,0.4,2.8,0.7,4.3,0.8c1.2,0,2.5-0.3,3.7-0.6c1.5-0.3,2.9-0.6,4.4-0.8c2.1-0.4,4.3-0.6,6.4-1.3
		c1.7-0.5,2.6-1.9,2.9-3.7c0.3-1.5-0.4-2.7-1.2-3.8c-0.2-0.3-0.6-0.5-1-0.6c-1.2-0.2-2.4-0.3-3.7-0.5c-0.2,0.2-0.4,0.6-0.7,1.1
		c-0.2-1.7,0.2-2.6,1.7-3.2c2.3-1,3.8-2.9,5.2-4.9c0.5-0.7,0.5-1.5-0.2-2.2c-0.2-0.2-0.5-0.4-0.6-0.7c-0.5-1.1-1.1-0.8-2-0.4
		c-0.7,0.3-1.5,0.5-2.2,0.5c-0.9-0.1-1.6-0.7-1.6-1.8c0-0.7-0.3-1.7,0.9-2.1c-0.1,0.3-0.1,0.5-0.2,0.6c-0.4,0.9-0.4,1.7,0.4,2.4
		c0.8,0.7,1.6,0.5,2.5-0.1c1.6-1,3.2-1.9,4.8-2.8c1.6-0.8,2-2.3,0.6-3.5c-1.3-1.2-2.7-2.3-4.1-3.5c-1.7-1.5-3.5-2.9-5-4.6
		c-1-1.1-1.5-2.6-2.3-4c0.1,0-0.1,0-0.2,0c-3.2,1.9-6.2,3.8-8.3,7c-0.2,0.3-0.6,0.5-0.9,0.7c-0.1-0.1-0.2-0.2-0.3-0.3
		c0.2-0.4,0.3-0.8,0.6-1.1c2.4-3,5.1-5.5,8.6-7.2c0.4-0.2,0.9-0.8,0.8-1.2c-0.1-1.6-0.2-3.2-0.6-4.7c-1.1-3.8-3.4-6.9-5.8-10.1
		c-0.2-0.2-0.8-0.2-1.2-0.2c-0.3,0-0.6,0.3-0.9,0.5c-1.3,0.9-2.7,1.8-3.8,2.9c-1.1,1.1-2.5,2-2.5,4c0,1.1-1,2.2-1.7,3.2
		c-2,2.9-2.8,6.2-3.1,9.7c-0.1,1,0.2,2,0.1,3c-0.2,2.4-0.5,4.8-0.9,7.2c-0.3,2.1-0.6,4.1-1.3,6.1c-1,3.4-2.2,6.7-3.5,10
		c-0.8,2.2-2.1,4-4,5.5c-0.7,0.5-1.4,1-2.1,1.6c-2,1.8-3.9,3.8-5.9,5.6c-0.9,0.8-2.1,1.4-2.6,2.4c-0.8,1.4-2,2-3.1,2.9
		c-0.1,0.1-0.2,0.2-0.3,0.3c-2.7,2.6-5.8,4.4-9.3,5.5c-0.9,0.3-1.9,0.6-2.7,1.2c-1.6,1-3.3,1.5-5.1,1.4c-1,0-1.9,0.4-2.9,0.6
		c0,0.1,0,0.2,0,0.3c0.4,0.1,0.7,0.3,1.1,0.4c2,0.7,4,1.4,6,2.3c3.3,1.5,6.8,2.6,10.3,3.2c2.7,0.5,5.5,0.5,8.2,1
		c2.3,0.4,4.4-0.1,6.6-0.5c1-0.2,1.9-0.6,3-0.9c0,0.3,0,0.5,0,0.6c0,0.1-0.1,0.2-0.2,0.2c-2.7,0.5-5.4,1.4-8.1,1.4
		c-3.6,0-7.1-0.7-11.1-1.2c1.7,1.2,3.2,2.2,4.7,3.3c0.4,0.3,0.9,0.5,1.3,0.8c1.5,1,2.9,2.1,4.6,2.9c2.3,1,4,2.8,5.8,4.5
		c1.1,1.1,2.1,2.4,3.3,3.4c3.4,3,6.8,5.9,10.2,8.8c0.7,0.6,1.6,1.1,2.5,1.4c2.2,0.7,4.3,0,6.3-0.9c2.1-1,3.9-2.3,4.1-4.9
		c0.2-2,0.4-3.9,0.6-5.9c0.4-3.1,1.7-6.2,0.2-9.3c-0.1-0.2,0-0.5,0-0.7c-0.2-1.8-0.3-3.5-0.6-5.3c-0.6-3.1-2.4-5.7-2.8-8.9
		c-0.3-2.4-1.5-4.7-2-7.2c-0.3-1.6-1.3-2.4-2.5-3.3c-1,1.8-2.1,3.6-3.1,5.4c-0.2,0.3-0.3,0.7-0.2,1c0.1,1.8,0.2,3.6,0.5,5.3
		c0.3,2,0.7,4,1.1,6c0.1,0.5,0.1,0.9,0.1,1.4c-0.2,0-0.3,0-0.5,0c-1.8-3.7-1.2-7.8-1.9-11.8c-0.7,1.3-1.3,2.6-1.9,3.9
		c-0.5,1.3-0.9,2.6-2,3.6c2-5.6,4.5-11,8-16.2c-3.8-1.2-7.6-2.4-11.3-3.6c-0.4-0.1-1-0.3-1.1-0.6C58.5,69,58.1,67.7,57.6,66.4z
		 M136.1,102.9c0.1-0.1,0.2-0.2,0.2-0.2c0.3,0.4,0.7,0.7,1,1.1c1.9,2.8,3.6,5.6,5.7,8.3c2,2.5,4.2,4.9,7.1,6.2
		c4.3,2,8.6,3.9,13.4,4.6c1.5,0.2,3,0.4,4.5-0.4c3.4-2,5.7-4.9,6.9-8.6c0.8-2.5,1.3-5,1.9-7.5c0.1-0.3,0.1-0.6,0.1-0.9
		c-0.2-2.8,0-5.6-0.6-8.3c-0.5-2.7-1-5.6-2.9-7.9c-0.8-1-1-2.4-1.5-3.7c1.1,1.2,1.9,2.4,2.8,3.6c0.5,0.7,1,0.6,1.7,0.2
		c1.8-1.1,2.3-2.7,1.9-4.9c-0.9-4.4-3.6-7.7-5.9-11.3c-0.1-0.2-0.3-0.5-0.5-0.7c-0.2-0.1-0.4-0.2-0.6-0.3c-0.1,0.2-0.2,0.4-0.2,0.6
		c0,1.3,0,2.6,0.1,3.8c0,0.4,0.2,0.9,0.2,1.4c1.1-0.6,1.8-0.3,2.4,0.5c0.4,0.5,0.9,1,1.3,1.5c1,1.1,1.3,3.8,0.5,4.6
		c-1.5,1.6-1.5,1.9,0.4,3c-0.2,0.1-0.4,0.4-0.5,0.3c-1.4-0.7-2.1-2.1-0.8-3.3c1.3-1.3,1-3.8-0.6-4.8c-0.6-0.4-1.2-0.8-2-1.4
		c-0.2,0.5-0.5,1-0.8,1.8c-0.3-0.6-0.7-1-0.9-1.4c-0.6-1.3-1.1-2.5-2.4-3.3c-2.1-1.2-4.1-2.6-6.3-3.8c-2.1-1.2-3.8-3.3-6.4-3.6
		c-1.4-0.2-2.9-0.5-4.3-0.2c-2.3,0.5-4.6,1.2-6.8,2.1c-3.4,1.2-6.6,2.8-8.5,6.1c-1.6,2.7-2.9,5.5-3.6,8.5c-0.2,0.9-0.4,1.9-0.9,2.7
		c-0.9,1.6-1,3.3-0.9,5c0,1.2,0,2.5,1.2,3.5c0.4,0.3,0.4,1.1,0.7,1.8c-0.9-0.4-1.6-0.6-2.3-1c-0.8-0.4-1.2-0.1-1.1,0.7
		c0.1,0.5,0.4,1.1,0.7,1.6c0.6,0.8,1.3,1.6,1.9,2.4c2.1,2.6,3.4,5.7,6.4,7.6c0.9,0.6,1.4,0.4,2.2-0.1
		C138.5,106.8,137.3,104.8,136.1,102.9z M98.8,84.8c0.1,0.1,0.3,0.1,0.4,0.2c-0.3,0.5-0.5,1.2-0.9,1.6c-2,1.9-3,4.3-3.7,6.8
		c2.8,0.6,5.5,1.3,8.2,1.9c0-0.2,0.1-0.3,0.1-0.4c-0.4-3-0.3-6.1,1.1-8.8c1.7-3.3,3.6-6.5,5.6-9.6c0.4-0.7,0.4-1-0.3-1.4
		c-0.2-0.1-0.5-0.3-0.7-0.4c-5.2-2.2-10.5-4.4-15.7-6.5c-0.2-0.1-0.7,0.2-0.9,0.4c-0.8,1-1.4,2.4-2.4,2.9c-1.7,0.8-3.7,1.1-5.5,1.5
		c-1.2,0.3-2.4,0.4-3.6,0.5c0.5,1.4,1.1,2.5,1.5,3.7c0.6,2.4,1.1,4.8,1.7,7.2c0.8,3.3,1.7,6.5,2.6,9.8c0.5,1.7,1,3.3,1.7,4.9
		c0.5,1.1,1.3,2.2,2.6,2.7C92.5,95.7,93.6,89.2,98.8,84.8z M147.4,60.8c1.1-0.1,2.2,0,3.3-0.3c2.1-0.5,4.1-1.2,6.2-1.5
		c1.1-0.2,2.5,0.2,3.6,0.7c0.8,0.4,1.2,1.4,1.8,2.1c0.5,0.5,1,1,1.8,1.8c0.2-0.9,0.4-1.4,0.3-1.9c-0.2-1.7-0.6-3.3-0.9-5
		c-0.2-1.3-0.8-2.2-1.7-3c-0.3-0.3-0.7-0.7-0.7-1c0.3-2-1.2-3-2.3-4.2c-0.6-0.6-1-1.4-1.3-2.3c-0.5-1.5-1.4-2.6-3-3
		c-1.2-0.3-2.1-0.7-2.8-1.6c-0.5-0.6-1.1-0.9-2-0.8c-3.3,0.3-6.4,1.4-9.3,3c-3.2,1.8-6,4-7.8,7.2c-0.3,0.6-0.9,1.1-1.5,1.8
		c1.8,0.4,2.6,1.5,2.6,2.6c1.9-1.9,4-3.6,6-5.5c2.6-2.4,5.7-3.7,8.9-5.1c0.3-0.1,0.6,0,0.9,0c-0.3,0.2-0.5,0.6-0.8,0.7
		c-7,2.2-11.5,7.2-15.7,12.9c1.3,0.7,2.3,1.5,1.8,3.3c2.8-2.6,5.4-5.2,8.2-7.6c1.4-1.2,3-2.2,4.7-3c2-1,4.2-1.7,6.3-2.6
		c0.2-0.1,0.4-0.1,1-0.1c-0.4,0.4-0.6,0.6-0.8,0.7c-1.3,0.6-2.6,1.3-4,1.6c-4.5,1.1-7.5,4.2-10.5,7.3c1.5,1.1,1.5,1.4,0.3,2.7
		c-0.6,0.6-1.1,1.1-1.7,1.6c0.1,0.1,0.1,0.2,0.2,0.3c0.5-0.1,1-0.1,1.4-0.3c1.2-0.7,2.5-1.4,3.4-2.3c3.6-3.4,8-4.9,12.6-6.3
		c0.9-0.3,2,0,3,0c0,0.1,0,0.2,0.1,0.4c-0.3,0.1-0.5,0.2-0.8,0.2c-0.8,0.1-1.6-0.1-2.3,0.1c-3.1,1.1-6.1,2.4-9.1,3.6
		c-1.4,0.6-1.4,1.3-0.2,2.3c0.6-0.3,1.3-0.5,1.9-0.8c0.7-0.3,1-0.6,0.4-1.3c-0.1-0.1-0.2-0.3-0.3-0.5c0.1-0.1,0.2-0.1,0.3-0.2
		c0.2,0.4,0.6,0.7,0.7,1.1C149.6,60.1,148,59.8,147.4,60.8z M98.1,122.3c0.1,0,0.3,0,0.4,0c0.1-0.2,0.3-0.4,0.4-0.7
		c1-2.4,1.9-4.9,2.9-7.2c1-2.3,1.4-4.6,1.4-7.1c-0.1-3-0.1-5.9,0-8.9c0.1-1.2-0.5-1.8-1.5-2c-2.1-0.5-4.3-1-6.4-1.5
		c-1.5-0.3-1.6-0.2-2,1.3c-0.4,1.5-1,2.9-1.3,4.4c-0.3,1.4-0.7,2.9-0.2,4.1c1.2,3.2,2.8,6.3,4.1,9.5c0.6,1.4,0.7,2.9,1.1,4.3
		C97.3,119.8,97.7,121,98.1,122.3z M117,124.2c1.7-1.5,3.5-3.1,5.4-4.6c1.5-1.2,3-2.3,4.5-3.5c1.3-1,2.6-2.1,3.8-3.3
		c0.2-0.2,0.2-1.2,0-1.4c-1.3-0.8-1.9-2.1-2.7-3.3c-1-1.5-1.9-2.9-2.8-4.4c-0.1,0-0.3,0-0.4,0.1c-0.2,0.5-0.6,1-0.7,1.5
		c-0.2,1.2-0.2,2.4-0.4,3.5c-0.5,4.1-3.3,7.2-5.2,10.7C117.8,121.2,116.2,122.4,117,124.2z M86.1,61.9c1.5,0.9,4.5,0.8,5.4-0.2
		c0.9-1,1.1-3.5,0.4-4.4C89.9,58.9,88,60.4,86.1,61.9z M133.6,56.6c-0.1-0.6-0.1-1.2-0.4-1.6c-0.5-0.6-1.1-1.2-1.8-1.4
		c-0.8-0.3-1.4,0.4-1.6,1.2c-0.1,0.3-0.2,0.6-0.3,0.9c-0.4,0.8,0.1,1.3,0.7,1.6C131.5,58,132.6,57.7,133.6,56.6z M132.6,50.2
		c-1,0-1.7,0-2.4,0c-1.7,0.1-2.8,1.1-2.9,2.7c0,0.4,0.3,1,0.7,1.3c0.3,0.2,1.1,0.3,1.3,0.1C130.4,53,131.4,51.7,132.6,50.2z
		 M134.4,60.5c-0.1-0.6-0.5-1.1-1.4-1.1c-1,0-2.4,1.5-2.4,2.7c0,1.1,0.8,1.4,1.7,1.4C133.8,63.5,134.4,62.7,134.4,60.5z M140.3,59.7
		c0-0.7-1.1-1.2-1.7-0.7c-0.7,0.5-1.2,1.2-1.8,1.7c-0.6,0.5-0.5,0.9,0,1.4c0.5,0.5,0.9,0.5,1.4,0c0.4-0.5,1-0.9,1.5-1.4
		C139.9,60.3,140.1,59.9,140.3,59.7z"/>
	<path class="st0" d="M124.3,149c-1.2,0.4-1.8-0.6-2.4-1.3c-1-1.2-1.9-2.5-2.7-3.9c-0.2-0.3-0.2-0.8-0.2-1.2
		c0.1-0.1,0.2-0.1,0.3-0.2C121,144.7,122.7,146.9,124.3,149z"/>
	<path class="st0" d="M79.7,38.5c-2.2,2.6-4.2,4.9-6.2,7.2c-0.1,0-0.1-0.1-0.2-0.1c0.1-0.3,0.1-0.6,0.3-0.8c1.8-2.3,3.6-4.5,5.4-6.8
		c0.4-0.5,0.9-0.4,1.1,0.1c0.7,1.7,1.3,3.3,1.9,5c0.1,0.4,0.3,0.7,0.4,1.2c-1.4,1.3-3,2.2-4.9,2.5c-0.7,0.1-1.5,0-2.3-0.1
		c-0.1,0-0.3-0.3-0.4-0.5c0.2-0.1,0.4-0.3,0.7-0.4c0.9-0.1,1.9-0.1,2.8-0.3c0.5-0.1,1-0.2,1.4-0.5c1.8-1.2,1.9-1.4,1-4.4
		C80.6,40,80.2,39.4,79.7,38.5z"/>
	<path class="st0" d="M140.8,100.2c1.3-2.9,8.3-4.4,10.2-2.3c-1.3,1.8-2.5,3.9-4.8,4.2c-1.7,0.3-3.4-0.3-4.9-1
		c1.7-0.8,3.3-1.7,5-2.4c1.2-0.5,2.3-0.9,3.4-1.4C148.4,96.3,143.4,97.7,140.8,100.2z M147.2,101.5c1-1,2-2,2.9-2.9
		c-0.1-0.1-0.2-0.2-0.3-0.3c-0.6,0-1.2-0.1-1.8,0c-0.7,0.1-1.3,0.4-1,1.4C147.4,100.1,147.2,100.7,147.2,101.5z"/>
	<path class="st0" d="M169.4,114.7c0.2-0.4,0.5-0.9,0.7-1.3c0.4-0.9,0.7-1.8,0.9-2.9c-4.3,2.1-8.2,5-13.1,5.6
		c4.3,1.6,5.7,1.9,8.5,0.4c0.6-0.3,1.2-0.6,1.8-0.9c-2.3,2.3-5,2.9-8.1,1.9c-1.2-0.4-2.4-0.6-4.1-1.1c1.6-1.4,3-2.6,4.4-3.9
		c0.3-0.3,0.6-0.7,0.9-1.1c1.1,1.2,1.3,1.2,3.1-0.4c-0.4-0.4-0.9-0.8-1.3-1.2c0.1-0.1,0.3-0.2,0.3-0.1c1.3,1.6,2.8,1,4.4,0.7
		c1.2-0.3,2.4-0.4,3.7-0.6C171.3,111.5,171,113.3,169.4,114.7z M169.6,110.2c-1.9,0.8-4.3-0.1-5.9,1.9c-0.2,0.2-0.7,0.4-0.9,0.4
		c-2.6-0.5-3.6,1.6-5.2,2.9C162.1,114.8,166.1,113.1,169.6,110.2z"/>
	<path class="st0" d="M168.7,86.6c-0.4,1.1-0.9,2.3-1.4,3.5c-1.1,2.2-4.5,3.9-6.9,3.3c-0.9-0.2-1.4-1.3-1.1-2.3
		c0.4-1.5,1.9-2.9,4-3.6c-1.4,1.2-3.4,1.8-3.6,3.7c2.2-0.9,4.4-1.7,6.5-2.8C167.1,88,167.9,87.1,168.7,86.6z M167.5,88.1
		c-1,0.5-1.9,0.9-2.7,1.4c-0.3,0.2-0.5,0.7-0.6,1.1c-0.1,0.6-0.1,1.2-0.2,1.7C165.9,91.8,167.1,90.4,167.5,88.1z M162.5,92.9
		c-0.6-0.3-1.4-0.6-2.2-1.1c-0.1,0.1-0.2,0.5-0.4,0.8c0.3,0.1,0.6,0.3,1,0.3C161.5,93,162.1,92.9,162.5,92.9z"/>
	<path class="st0" d="M166.6,80.5c-0.5,0.3-0.8,0.5-1.1,0.7c-2.7,0.9-5.1,2.3-7.2,4.3c-0.2,0.2-0.3,0.6-0.6,0.8
		c-0.3,0.2-0.7,0.4-1.3,0.7C157.3,83.7,163.7,79.7,166.6,80.5z"/>
	<path class="st0" d="M144.8,92.1c0.2,0.1,0.4,0.3,0.6,0.4c-0.2,0.2-0.4,0.5-0.6,0.6c-1.4,0.5-2.9,0.9-4.3,1.5
		c-0.9,0.4-1.6,1.1-2.3,1.7c-0.4,0.3-0.7,0.6-1.1,0.9c-0.2,0.1-0.6,0-0.7-0.1c-0.1-0.1-0.2-0.5-0.1-0.7c0.5-0.7,1-1.5,1.7-1.9
		C140,93.2,142.3,92.3,144.8,92.1z"/>
	<path class="st0" d="M162,107.6c-0.4,0.3-0.8,0.8-1.3,0.9c-0.7,0.3-1.5,0.3-2.2,0.6c-1.4,0.5-2.5,0.4-3.3-0.4
		c-0.9-1-1.1-2.8-0.3-3.7c0.7-0.9,0.7-1.7,0.5-2.6c-0.9-3.8-2.4-7.3-6.4-9.3c0.4,0,0.6-0.1,0.7-0.1c0.1,0,0.2,0.2,0.4,0.3
		c3.6,2.1,5,5.7,5.8,9.5c0.2,0.7,0.1,1.3-0.5,1.9c-0.9,0.9-0.6,3.1,0.3,3.9c1,0.9,1.9,0.3,2.9-0.1c0.3-0.2,0.8-0.4,1-0.3
		C160.7,108.5,161.3,108,162,107.6L162,107.6z"/>
	<path class="st0" d="M137.2,106.5c-1.3,0-4.4-4.4-4.4-6.2C134.4,102.4,135.8,104.4,137.2,106.5z"/>
	<path class="st0" d="M162,107.6c0-1.2,0.7-1.6,1.7-2c0.7-0.3,1.3-0.9,1.9-1.3c-0.5-0.6-1-1.3-1.6-1.8c-0.4-0.3-0.9-0.4-1.6-0.6
		c0.4,0,0.8-0.2,1-0.1c0.8,0.5,1.7,1,2.4,1.7c0.6,0.6-0.1,1.9-0.9,2.1C163.5,105.8,162.6,106.4,162,107.6
		C162,107.6,162,107.6,162,107.6z"/>
</g>
</svg>
