<?xml version="1.0" encoding="utf-8"?>
<!-- Generator: Adobe Illustrator 19.2.1, SVG Export Plug-In . SVG Version: 6.00 Build 0)  -->
<svg version="1.1" id="Layer_1" xmlns="http://www.w3.org/2000/svg" xmlns:xlink="http://www.w3.org/1999/xlink" x="0px" y="0px"
	 viewBox="0 0 214.1 181.9" style="enable-background:new 0 0 214.1 181.9;" xml:space="preserve">
<style type="text/css">
	.st0{fill:#00BCD4;}
</style>
<g id="migraine-girl">
	<path class="st0" d="M35.7,181.9c-1.2-3.1-2.3-6.2-3.6-9.2c-0.9-2.1-2-4.2-3.1-6.2c-2-3.6-4.2-7.1-6.3-10.7
		c-2.1-3.6-3.5-7.5-4.8-11.5c-0.4-1.2-1-2.4-1.2-3.6c-0.4-2.7-0.7-5.5-0.9-8.3c-0.3-4.4-0.4-8.9-0.6-13.3c-0.2-2.5-0.3-5.1-0.8-7.5
		c-0.5-2.6-0.5-5,0.7-7.3c0.3-0.6,0.9-1.3,1.5-1.6c3.3-1.9,6.3-4.2,9.2-6.6c1.7-1.4,3.6-2.5,5.5-3.4c1.3-0.6,2.8-0.8,4.2-1
		c1.4-0.2,2.7,0,4.3,0c-0.4-1-0.8-1.9-1.2-2.8c-0.8-1.5-1.1-3.1-1.2-4.8c-0.1-3.9,0.4-7.7,1.2-11.5c0.6-2.7,1.2-5.4,1.8-8.1
		c0.7-2.8,2.3-5.2,3.7-7.6c2.7-4.4,6.3-8,9.7-11.8c1.5-1.6,3.4-2.8,5.2-4.1c2.1-1.6,4.2-3.3,6.4-4.8c3-2,6.1-3.9,9.3-5.5
		c1.8-0.9,3.9-0.9,5.9-1.3c1.1-0.2,2.3-0.2,3.4-0.2c2.5,0,4.9,0.4,7.3,1.1c2.6,0.7,5.2,1.4,7.7,2c1.6,0.4,3.3,0.6,4.8,1
		c1.1,0.3,2,0.9,3.1,1.4c0.3-0.7,0.5-1.3,0.9-1.9c1.3-1.8,2.8-3.4,4.8-4.5c3.6-2,7.5-3.3,11.7-3c2.9,0.2,5.8,0.6,8.5,1.9
		c2.9,1.5,5.8,3,8.2,5.4c0.9,1,2.3,1.5,3.4,2.3c2.7,2.3,4.6,5.1,5.4,8.6c0.6,2.8,1,5.7,1,8.5c0.1,2.6-0.3,5.2-1.1,7.6
		c-1.2,3.7-1.4,7.4,0,11.1c0.3,0.8,0.5,1.6,0.7,2.5c0.3,1.1-0.4,2-1.6,1.9c-1.4-0.1-2.9,0.1-4.2-0.3c-2.9-0.9-5.2-2.8-7-5.3
		c-1.7-2.4-2.4-5.2-3.2-7.9c-1-3.2-1.7-6.5-2.9-9.6c-1-2.5-2.7-4.3-4.7-6c-0.3-0.3-0.9-0.4-1.3-0.4c-0.8-0.1-1.7,0-2.5,0
		c-1.3-0.1-2.3,0.1-2.7,1.7c0.9,1.1,2,2.3,3,3.6c1.2,1.6,2.2,3.3,2.4,5.4c0.1,1,0.6,2,1.2,2.8c1.7,2.2,2.7,4.6,3.7,7.2
		c0.8,2,1.5,4.1,2.6,6c1.3,2.3,1.6,4.6,1.1,7.1c-0.3,1.5-0.8,3.1-1.2,4.6c-0.1,0.3,0,0.6,0.1,0.9c0.9,2.4,2.4,4.4,4.4,6
		c0.3,0.2,0.9,0.2,1.2,0c1.3-0.8,2.6-1,4-0.9c0.2,0,0.4,0,0.6,0.1c2.9,1,5.7,2.1,8.6,3c1.7,0.5,3.5,0.8,5.3,1
		c2.1,0.3,4.3,0.5,6.4,0.6c1.3,0.1,2.7,0.1,4.1,0c2.7-0.2,5.2,0.6,7.7,1.5c2.7,1,5.5,1.6,7.8,3.5c1.3,1.1,2.8,2.2,4,3.5
		c2.3,2.4,4.5,4.9,6.5,7.6c1.8,2.4,2.9,5.3,3.9,8.3c0.4,1.2,1,2.2,1.5,3.4c1.7,4.4,3.4,8.8,5.1,13.1c0.2,0.6,0.5,1.2,0.7,1.8
		c0.3,1.1,0.6,2.3,1,3.5c0.7,2.1,1.5,4.1,2.1,6.2c0.7,2.5,1.3,5,2.1,7.4c0.9,2.8,1.9,5.6,2.9,8.5c0.3,0.9,0.6,1.7,0.9,2.6
		c0,1.6,0,3.2,0,4.8c-0.2-0.4-0.4-0.7-0.6-1.1c-0.6-1.9-1.1-3.9-1.8-5.8c-1.5-4.1-2.9-8.2-3.9-12.5c-0.5-2.1-1.2-4.2-2-6.3
		c-0.8-2-2.2-3.9-2.6-6.1c-0.9-5-3.3-9.5-5.1-14.2c-1.3-3.4-2.8-6.8-4.3-10.2c-0.5-1.1-1.2-2.1-2-3.1c-1.6-2-3.3-4-5-5.9
		c-1.4-1.5-3-2.8-4.6-4.2c-1.7-1.4-3.8-1.9-5.8-2.7c-3.3-1.3-6.7-2.1-10.3-1.8c-3.8,0.3-7.5-0.3-11.2-0.9c-2.4-0.4-4.8-1.5-7.2-2.3
		c-0.9-0.3-1.8-0.6-2.8-1c-0.4,5.8,2.1,10.7,3.9,16c0.5-0.6,0.8-1,1.2-1.3c1.2-1.1,2.3-2.3,3.7-3.2c2.2-1.6,4.7-2.5,7.4-2.6
		c1.7,0,3.3-0.2,5-0.1c1,0,2,0.2,3,0.4c1.1,0.2,1.7,1.2,1.1,1.7c-0.5,0.3-1.3,0.3-2,0.3c-0.3,0-0.6-0.4-1-0.4
		c-1.6-0.1-3.3-0.2-4.9-0.2c-2.6,0-4.9,0.7-7.1,1.9c-2.6,1.4-4.3,3.8-6.4,5.7c-0.6,0.5-1.1,1-1.5,1.6c-1.2,1.5-1.9,3.3-2.7,5
		c-1.7,3.9-3.4,7.7-4.5,11.8c-0.8,3.3-1.9,6.5-2.6,9.8c-0.5,2.3-0.1,4.7-1.3,6.8c-0.1,0.1,0,0.3,0,0.4c0.2,1.9,0.3,3.9,0.5,5.8
		c3.5,0.2,7,0.5,10.5,0.7c2.4,0.1,4.9,0.1,7.3,0.1c4,0.1,8,0.2,11.9,0.5c1.9,0.1,3.8,0.2,5.6,0.7c3.1,0.9,6.2,2,9.2,3
		c0.3,0.1,0.6,0.2,0.8,0.3c1.4-2.2,2.4-4.6,4-6.4c1.9-2.1,2.4-4.8,3.4-7.2c0.4-0.8,0.2-1.9,0.4-2.8c0.1-0.3,0.5-0.6,0.8-0.6
		c0.3,0,0.7,0.4,0.7,0.7c0,1,0.1,2-0.1,2.9c-0.5,1.7-1.1,3.3-1.8,4.9c-0.3,0.7-0.7,1.3-1.1,1.9c-0.6,0.9-1.4,1.6-1.9,2.5
		c-1.1,1.9-2.6,3.7-3,6c-0.3,1.6-0.7,3.2-1.2,4.7c-0.5,1.6-0.8,1.8-2.6,1.3c-1.5-0.4-2.9-0.5-3.8,1.1c-0.1,0.1-0.2,0.2-0.4,0.3
		c-1.8,1.8-3.3,3.8-4.6,6c-1,1.7-2.1,3.3-3,5c-0.8,1.4-1.4,2.9-2.1,4.4c-0.8,0-1.5,0-2.3,0c2.1-3.8,4.2-7.6,6.4-11.4
		c0.5-0.9,1.3-1.7,2-2.5c0.9-1.1,1.9-2.1,2.9-3.2c-1.5,0-3-0.1-4.5,0c-2.6,0.1-5.2-0.4-7.7-1.1c-1.5-0.4-3-0.9-4.5-1.1
		c-2.8-0.2-5.7-0.3-8.5-0.3c-5,0-9.9-0.1-14.9-0.9c-0.1,0.2-0.3,0.4-0.4,0.6c-2,3.1-3.3,6.7-5.5,9.7c-2.3,3.2-4.2,6.8-6.2,10.2
		c-0.6,0-1.2,0-1.7,0c0.3-0.9,0.7-1.8,1-2.7c-0.5-0.4-1-0.9-1.6-1.2c-2.6-1.7-5.2-3.3-7.8-5c-0.9-0.6-1.9-1.2-2.9-1.4
		c-2.4-0.6-4.8-0.7-7.1,0c-2.5,0.7-4.9,1.5-6.7,3.6c-2,2.3-4,4.5-5.9,6.8c-0.7,0-1.4,0-2.1,0c1.7-2,3.3-4.2,5.2-6
		c1.8-1.7,2.3-3.7,2.5-6c0.2-1.8,0.4-3.5,0.7-5.3c0.3-1.7,0.7-3.4,1-5c0.6-2.9,1.2-5.7,2.9-8.1c1.8-2.6,3.5-5.2,6.2-7.1
		c-0.4-0.1-0.6-0.2-0.8-0.3c-2.4-0.3-4.9-0.7-7.3-1c-2.6-0.3-5.2-0.5-7.8-1c-4.3-0.9-8.2-3-12.1-5.1c-0.6-0.3-1.2-0.6-1.6-1.1
		c-1.7-2-3.3-4.1-4.8-6.2c-1.4-2-2.5-4.2-4-6.1c-1.6-2-3.3-3.9-5.2-5.7c-1.7-1.6-3.6-3-4.9-5.1c-0.6-1-1.7-1.8-2.5-2.6
		c-0.3-0.3-0.6-0.3-1.1,0c-1,0.8-2,1.6-3,2.3c-1.4,1-2.8,1.9-4.1,3c-1.6,1.3-3,2.7-3.5,4.8c-0.5,2.3-1.2,4.6-1.7,6.9
		c-0.4,1.6-0.7,3.3-0.8,5c-0.1,3.4-0.2,6.9,0,10.3c0.1,1.4,0.5,3,1.3,4.2c1.9,3,4.4,5.6,6,8.9c0.4,0.8,0.8,1.6,1.4,2.3
		c1.9,2.3,3.9,4.6,5.9,6.9c2.9,3.4,5.7,6.9,8.6,10.3c1.9,2.3,3.8,4.5,5.7,6.8c-0.8,0-1.5,0-2.3,0c-0.2-0.3-0.4-0.6-0.6-0.9
		c-1.3-1.5-2.7-3-3.8-4.6c-3-4.3-6.8-8.1-10.3-12c-2.3-2.6-4.5-5.2-6.1-8.2c-0.4-0.8-0.8-1.7-1.3-2.4c-1.6-2.4-3.2-4.7-4.9-7
		c-0.2-0.2-0.5-0.4-0.8-0.4c-1.2,0-2.4,0.3-3.6,0.1c-1.4-0.1-2.7-0.6-4.1-1c-0.2-0.1-0.3-0.6-0.5-1c0.3-0.1,0.7-0.4,1-0.4
		c0.8,0.1,1.7,0.5,2.5,0.6c1.5,0.2,3,0.3,4.2-0.2c-0.1-1.1-0.1-2-0.2-3c0-3.3-0.3-6.7,0.1-9.9c0.4-3.1-0.8-5.6-1.5-8.4
		c-0.6,0.5-1.2,1.1-1.8,1.5c-0.2,0.2-0.7,0-1,0c0.1-0.3,0-0.8,0.2-1c0.4-0.4,0.9-0.8,1.3-1.2c1.5-1.4,2.4-3.2,2.3-5.3
		c-1.3,0.2-2.5,0.5-3.7,0.6c-0.4,0-1-0.2-1.1-0.5c-0.2-0.6,0.3-0.6,0.8-0.7c2.6-0.5,5-1.1,7.1-2.8c3.1-2.4,6.6-4.4,9.8-6.5
		c1.5-1,2.9-2.1,4.4-3.1c0.8-0.6,0.2-1.3,0.1-2c0-0.2-0.3-0.5-0.5-0.5c-0.7,0-1.4,0-2.1,0.2c-1.3,0.4-2.6,0.9-3.9,1.4
		c0,0.1,0.3,0.3,0.3,0.6c0.1,0.3,0,0.7,0,1c-0.3-0.1-0.6-0.2-0.8-0.4c-0.2-0.2-0.4-0.5-0.6-0.8c-0.1-0.1-0.3-0.3-0.4-0.3
		c-0.7,0.1-1.5,0-2.1,0.3c-1.8,0.8-3.4,1.8-5.2,2.7c0.6,0.8,1.1,1.5,1.5,2.2c0.1,0.2,0,0.6,0,0.9c-0.3-0.1-0.7-0.1-0.9-0.3
		c-0.4-0.4-0.7-0.9-0.9-1.5c-0.4-0.9-0.8-0.8-1.6-0.4c-2.1,1.2-4.3,2.4-6.5,3.6c-1.6,0.9-3.2,0.5-4.8,0.2c-0.2,0-0.4-0.4-0.4-0.6
		c0-0.2,0.2-0.5,0.4-0.5c0.3-0.1,0.6-0.1,0.9,0c2.3,0.5,4.3-0.7,6.2-1.7c3.3-1.8,6.6-3.7,9.9-5.5c1.8-1,3.9-1.3,5.9-1.4
		c1-0.1,1.7-0.4,2.3-0.8c-0.4-0.9-0.7-1.6-1-2.4c-0.8,0.2-1.8,0.4-2.8,0.6c-0.2,0.1-0.3,0.4-0.5,0.6c-0.1,0.2-0.2,0.4-0.3,0.6
		c-0.2-0.1-0.5-0.2-0.5-0.3c-0.3-0.7-0.8-0.6-1.3-0.5c-2.5,0.4-5,1.1-7.6,0.9c-0.3,0-0.6,0-1.1,0.1c0.4,0.6,0.8,1.1,1.1,1.6
		c0.1,0.2,0,0.6,0,0.9c-0.3-0.1-0.7,0-0.8-0.2c-0.5-0.6-1-1.3-1.5-2.1c-0.8,0.4-1.6,0.9-2.3,1.3c-2.1,1.1-4.3,2.2-6.4,3.5
		c-1.1,0.7-2.2,1.1-3.4,0.9c-0.3-0.1-0.6-0.4-1-0.6c0.3-0.2,0.6-0.5,1-0.6c0.6-0.2,1.2-0.1,1.7-0.3c2.8-1.5,5.5-3,8.2-4.5
		c0.7-0.4,1.4-0.8,2.2-0.9c2.3-0.3,4.7-0.4,7-0.8c3-0.5,6.1-1.2,9-1.9c1-0.3,2-1.1,3-1.6c-1.4-0.1-2.5-0.1-3.7-0.2
		c-0.9,0-1.5-0.5-1.9-1.3C50,92.9,50,92.5,49.9,92c-0.9,0.1-1.8,0.2-2.6,0.3c0,0.8,0,1.5,0,2.1c0,0.2-0.3,0.5-0.4,0.7
		c-0.2-0.3-0.5-0.5-0.5-0.8c-0.1-0.7,0-1.4,0-2.1c-0.7,0.1-1.3,0.3-2,0.4c-1.3,0.2-2.5,0.9-3.9,0.7c-1.7-0.2-3.5,0-5.4,0
		c0.1,1,0.3,1.7,0.3,2.5c0,0.3-0.1,0.9-0.3,1c-0.5,0.2-0.7-0.3-0.7-0.7c-0.1-0.8-0.2-1.7-0.3-2.6c-0.7,0.2-1.4,0.2-1.9,0.5
		c-1.5,0.8-3,1.7-4.4,2.7c-2.7,1.8-4.8,4.3-7.7,5.8c-0.9,0.4-1.7,1-2.5,1.6c-0.4,0.2-0.7,0.6-0.9,0.9c-1,2-1.1,4-0.7,6.2
		c0.6,2.9,0.8,5.8,1,8.8c0.3,4.7,0.4,9.4,0.6,14.1c0.2,3.4,0.5,6.7,1.9,9.8c0.1,0.2,0.1,0.4,0.2,0.6c1,2.7,1.8,5.6,3.1,8.2
		c1.6,3.2,3.7,6.1,5.5,9.2c2.2,3.9,4.6,7.7,6,12.1c0.9,2.8,2.2,5.4,3.3,8C37,181.9,36.4,181.9,35.7,181.9z M123.3,80.5
		c1-0.4,1.3-1,1.3-1.7c-0.1-1.7,0.9-2.8,2.1-3.8c0.3-0.3,0.6-0.8,0.6-1.3c0.1-2.8-0.6-5.4-1.5-8c-0.7-1.9-2.2-3.1-4-3.7
		c-1.4-0.5-2.9,0.2-3,1.7c-0.1,1.8,0,3.6,0.1,5.4c0,0.5,0.4,1.1-0.4,1.4c-0.7,0.2-1-0.3-1.2-0.8c-0.1-0.2-0.2-0.5-0.2-0.7
		c-0.1-1.5-0.2-3.1-0.2-4.6c0-2.7,2.5-5.1,5.6-3.9c2.6,1,4.4,2.7,5.3,5.5c0.8,2.4,1.3,4.8,1.5,7.3c0.1,1.5-0.2,2.6-1.5,3.5
		c-0.8,0.5-1.4,1.3-1.3,2.3c0.1,1.4-0.6,2.3-1.7,3c-0.5,0.3-0.5,0.7-0.3,1.2c0.3,0.8,0.5,1.6,0.7,2.4c0.2,0.7,1.4,1.7,2.2,1.8
		c1.5,0.1,2.6-0.8,3.4-1.9c2.7-3.9,3.1-8.1,1.5-12.5c-0.8-2.3-1.8-4.6-2.8-6.9c-0.9-1.9-1.8-3.7-3-5.4c-1-1.6-2.5-2.6-4.5-2.6
		c-0.5,0-1,0.1-1.4,0.2c-1.8,0.3-3.3,1.1-4.2,2.8c-0.8,1.5-0.6,3.1-0.6,4.7c0,2,0,3.9-0.3,5.9c-0.3,2.1-1.7,3.6-3.4,4.6
		c-2.2,1.2-4.6,1-6.7,0c-3-1.4-5.7-1.5-8.6,0c-0.2,0.1-0.5,0.2-0.7,0.2c-3.7,1-7.4,1.7-11.1,2.9c-5,1.6-10.1,3.3-15.2,4.5
		c-1.3,0.3-2.6,0.8-3.9,0.9c-3.8,0.2-7.6,0.2-11.4,0.2c-2.1,0-3.9-1.5-4.3-3.5c-0.2-1.2-0.3-2.4-0.6-3.5c-0.9-2.8-0.4-5.7-0.5-8.5
		c0-0.7,0.2-1.4,0.1-2c-0.1-0.4-0.6-0.7-0.9-1.1c-0.3,0.4-0.7,0.7-0.7,1.1c-0.2,1.5-0.3,3.1-0.5,4.6c-0.3,1.9-0.1,3.7,0.3,5.6
		c0.6,2.5,1.1,5,1.2,7.5c0.1,1.8-0.4,3.7-0.6,5.7c0.7-0.1,1.6-0.1,2.4-0.3c1.6-0.4,3.1-0.9,4.7-1.3c0.7-0.2,1.5-0.1,2,0.5
		c1.1,1.5,2,3.8,0.8,5.5c0.3,0.2,0.6,0.5,0.9,0.7c0.3,0.3,0.6,0.5,0.8,0.8c1.8,2,1,3.6-1,4.7c-0.2,0.1-0.5,0.6-0.4,0.7
		c0.7,1.6,0.1,2.7-1.2,3.6c-1.3,0.9-1.3,2.3,0,3.3c0.3,0.3,0.6,0.7,0.9,1c0.4,0.4,0.8,0.8,1.3,1.2c0.4-0.9,0.6-1.7,1-2.2
		c1.2-1.3,2.5-2.4,3.8-3.6c0.6-0.5,1.6-0.4,1.9,0c0.4,0.7,0.1,1.2-0.4,1.6c-1.2,1-2,2.2-2.5,3.7c-0.1,0.4-0.4,0.7-0.6,1.1
		c-0.3,0.6-1.1,1.2-1,1.7c0.1,0.6,0.9,1,1.4,1.5c0.5,0.4,0.9,0.9,1.4,1.3c0.2,0.1,0.4,0.2,0.7,0.4c0.4-1.9,1.4-3.3,3-4.2
		c1.5-0.9,3.2-1.3,5-1.2c-0.2-0.3-0.5-0.5-0.6-0.7c-0.2-0.2-0.3-0.5-0.4-0.8c0.3,0,0.6,0,0.9,0.1c0.6,0.3,1.2,0.8,1.8,1.1
		c1.8,1.2,3.1,2.8,4.2,4.7c1.2,2.2,2,4.5,2.3,7c0.1,1.2,0.3,2.4,0.8,3.5c0.5,1.2,1.4,2.1,2.9,1.8c1.1-0.2,2.2-0.4,3.3-0.7
		c0.5-0.1,1-0.4,1.3-0.7c0.2-0.1,0.2-0.6,0.1-0.8c-0.9-1.2-0.7-1.9,0.6-2.8c0.7-0.4,1.4-0.9,2.1-1.4c0.8-0.6,1.4-1.4,1.6-2.4
		c0.2-2.2-1.2-3.8-3.4-3.8c-0.5,0-1-0.1-1.4-0.2c1.6-1.2,4.8,0.1,5.4,1.9c0.7,2-0.1,4.2-1.8,5.5c-0.9,0.6-1.8,1.3-2.7,1.9
		c0.3,0.4,0.5,0.6,0.6,0.9c0.4,0.7,0.3,1.3-0.4,1.7c-0.8,0.5-1.7,0.9-2.6,1.2c-0.7,0.2-1.5,0.2-2.2,0.4c-2.1,0.6-3.2-0.1-4.3-1.9
		c-1.1-1.7-1-3.7-1.2-5.7c-0.4-3.2-2.1-5.8-4-8.2c-0.1-0.1-0.3-0.2-0.5-0.3c-0.1,0.2-0.2,0.4-0.3,0.6c-0.1,0.3-0.2,0.7-0.4,1
		c-0.6,1-1.2,1.9-1.8,2.8c-0.9,1.5-2.3,2.1-4,1.8c-0.4-0.1-0.9,0.1-1.4,0.1c0,0.3,0,0.4,0.1,0.5c0.1,0.2,0.3,0.4,0.5,0.6
		c2.7,2.7,4.6,6,6.5,9.2c0.9,1.5,2.1,2.8,3.3,4.1c0.5,0.6,1,1.3,1.7,1.7c2.5,1.3,5,2.7,7.6,3.7c3.7,1.4,7.7,2.1,11.7,2.4
		c1.8,0.1,3.6,0.3,5.5,0.5c0-2,0.2-3.6,1.2-5.2c0.8-1.3,1.9-1.8,3.2-2.2c0.2-0.1,0.4,0.2,0.7,0.3c-0.2,0.2-0.3,0.4-0.5,0.5
		c-2.7,1.1-4.1,3.4-3.8,6.2c0,0.2,0.3,0.5,0.5,0.6c1.7,0.7,3.5,0.8,5.4,0.3c2.7-0.7,4.3-2.8,6.2-4.4c1.7-1.5,3-3.5,3.8-5.7
		c1.6-4.4,3.9-8.5,5.3-13c1.2-4,2.3-7.9,2.2-12.1c0-1,0-1.9,0.1-2.9c0-1.5,0-3,0.1-4.4c0-0.4,0.4-0.8,0.7-1.2
		c0.2,0.4,0.5,0.7,0.6,1.1c0.1,0.7,0.1,1.3,0,2c0,4.3,0.7,8.6-0.6,12.8c-0.8,2.7-1.4,5.5-2.5,8.1c-1.5,3.6-3.3,7-4.9,10.5
		c-1.1,2.3-1.2,2.1,1.3,3.2c2.7,1.2,5.5,2.3,8.2,3.5c0.8,0.4,1.3,0.3,1.8-0.4c1.2-1.6,2.4-3.3,2.9-5.3c0.2-0.8,0.5-1.6,0.8-2.4
		c1.3-3.5,2.7-7,3.9-10.5c0.7-2.2,1.4-4.5,2.5-6.6c0.6-1,0.7-2.1,0.2-3.3c-0.2-0.4-0.2-0.8-0.3-1.2c-0.3-1.7-0.5-3.5-0.8-5.2
		c-0.5-3.2-1.6-6.2-1.7-9.5c0-0.8-0.4-1.2-1.1-1.5c-1.1-0.7-2.3-1.4-3.3-2.3c-1.5-1.5-2.7-3.3-4.1-4.9c-0.3,0.2-0.7,0.7-1.1,1
		c-1,0.5-1.9,1.3-3,1.4c-2,0.2-4.1-1.6-4.6-3.6c-0.4-1.4-1-2.7-1.4-4c-0.2-0.6-0.3-1.3-0.2-1.9c0.3-1.9,0.3-1.9-1.4-2.8
		c-0.2-0.1-0.4-0.2-0.6-0.3c-0.7-0.3-0.8-0.8-0.5-1.4c0.3-0.6,0.8-0.7,1.4-0.4c0.8,0.5,1.7,1,2.4,1.5c0.7,0.5,1,1.1,0.9,2
		C123.6,79,123.4,79.7,123.3,80.5z M97.6,166.5c1.4-0.5,2.5-1,3.6-1.2c3-0.6,6-0.7,9.1-0.6c0.8,0,1.7,0.2,2.5,0.5
		c2.9,1.1,5.7,2.4,8.4,3.5c-0.1-0.5-0.3-1.1-0.3-1.8c-0.3-2.2-2.2-3.1-3.9-3.3c-2.5-0.2-4.7-1.2-5.9-3.4c-1.5-2.6-2.8-5.3-4.1-8
		c-0.1-0.2-0.1-0.6,0.1-0.7c0.2-0.1,0.6-0.2,0.7-0.1c0.4,0.2,0.7,0.5,0.9,0.8c1.2,1.9,2.2,3.9,3.4,5.8c1.9,2.8,5,3.7,8.1,4.8
		c-0.8-3.5-1.6-6.7-2.3-10c-0.3-1.3-0.4-2.5,0.5-3.9c1.8-2.8,3.3-5.8,4.8-8.7c0.7-1.5,1-1.8-1-2.4c-0.3-0.1-0.5-0.2-0.8-0.3
		c-0.5-0.3-1.2-0.9-1.6-0.8c-0.5,0.2-0.7,1-1.2,1.4c-1.5,1.4-3,2.8-4.6,4.1c-1.3,1.1-2.7,1.7-4.4,1.8c-0.9,0.1-1.6,0.4-2.4,1.1
		c-1.9,1.7-3.5,3.7-5,5.8c-1.4,1.9-2.5,4-2.9,6.4c-0.3,1.9-0.8,3.7-1.2,5.6C98.1,164.2,97.9,165.3,97.6,166.5z M135.5,159.8
		c0.1,0.1,0.3,0.2,0.5,0.2c2.1,0.2,4.2,0.5,6.3,0.6c5.1,0.1,10.2,0.1,15.2,0.2c1.4,0,2.8,0.3,4.2,0.6c1.9,0.4,3.8,1,5.8,1.2
		c2.4,0.2,4.8,0.1,7.2,0.2c1.9,0.1,3.8,0.2,6,0.4c0.4-1.3,0.8-2.8,1.3-4.3c-0.4-0.1-0.5-0.1-0.6-0.2c-5.9-2.8-12.1-4.2-18.6-4.4
		c-4.7-0.2-9.3-0.1-14-0.2c-1.9,0-3.8-0.2-5.7-0.4c-2-0.1-4-0.3-5.9-0.4c-0.7-0.1-0.9,0.3-1,0.9C136,156.2,135.7,157.9,135.5,159.8z
		 M124.6,175.6c1.1-1.6,2-3.1,3-4.5c1-1.6,2-3.2,3-4.9c1-1.7,1.8-3.4,2.7-5.1c0.2-0.4,0.5-0.9,0.6-1.3c0.7-3.9,1.4-7.8,1.2-11.8
		c0-0.2-0.1-0.4-0.2-0.8c-2.1,2.3-3.9,4.5-6.6,6c-2.6,1.4-4.9,3.2-8,3.6C121.7,163.1,123.1,169.3,124.6,175.6z M123.4,177.1
		c-0.2-0.7-0.5-1.3-0.6-1.8c-0.2-0.8-0.3-1.7-0.5-2.6c0-0.2-0.1-0.6-0.3-0.7c-1.7-1.2-3.4-2.4-5.2-3.4c-1.6-0.8-3.3-1.4-4.9-2.1
		c-0.5-0.2-1-0.3-1.6-0.3c-2.2,0-4.5,0.2-6.7,0.2c-2.2,0-4,0.8-5.9,1.8c-0.2,0.1-0.4,0.4-0.4,0.6c-0.2,1.1-0.2,2.1-0.4,3.3
		c2.4-1.1,4.8-2.2,7.4-2.5c3.5-0.4,6.8,0.2,9.8,2.2c2.7,1.8,5.6,3.4,8.4,5.1C122.8,177.1,123.2,177,123.4,177.1z M53.4,107.9
		c-0.3,0.1-0.6,0.2-0.9,0.4c-3.8,2.5-7.6,5-11.3,7.5c-0.5,0.4-0.8,0.8-0.9,1.6c-0.1,0.9-0.2,1.9-0.7,2.8c-0.9,1.9-0.4,3.6,0.3,5.3
		c0.1,0.2,0.4,0.3,0.7,0.5c0.2-0.2,0.4-0.5,0.5-0.7c0.2-1.2,0.4-2.3,0.6-3.5c0.5-2.4,1.7-4.5,3.3-6.4c1-1.1,2.3-2,3.5-2.9
		c1.8-1.3,3.6-2.6,5.5-3.9C53.9,108.5,53.7,108.3,53.4,107.9z M130.4,141.8c-0.2-0.2-0.3-0.5-0.5-0.6c-1.2-0.6-2.3-1.1-3.5-1.6
		c-0.7-0.3-1,0.2-1.2,0.8c-0.3,1.1-0.8,2.2-1.2,3.4c-0.2,0.5-0.5,1-0.7,1.5c-0.3,0.6-0.7,1.2-1.1,1.8c-0.3,0.4-0.8,0.7-0.4,1.3
		c0.4,0.6,0.9,0.3,1.4,0.1c2.5-1.2,4.8-2.7,6.3-5C129.8,142.9,130.1,142.4,130.4,141.8z M56.2,100.3c0.4,0,0.8,0.1,1.1,0
		c0.5-0.2,1.2-0.5,1.3-0.9c0.2-0.4-0.1-1.1-0.4-1.5c-1.5-1.7-1.6-1.7-3.6-0.6c-0.2,0.1-0.5,0.2-0.6,0.3c-0.2,0.3-0.5,0.7-0.4,1.1
		C53.8,99.5,55,100.3,56.2,100.3z M110.5,38.4c-0.4,0.3-0.8,0.4-0.9,0.6c-0.1,0.3,0,0.8,0.3,1c1.1,1,2.2,2,3.3,2.9
		c0.7,0.6,1.2,0.3,1.7-0.3c0.5-0.6,0.3-1.1-0.3-1.5c-0.5-0.4-1-0.8-1.5-1.2C112.2,39.5,111.4,39,110.5,38.4z M56.6,92.9
		c-0.2-0.5-0.4-1-0.5-1.6c-0.3-0.8-0.7-1.1-1.5-0.7c-0.8,0.3-1.7,0.6-2.6,0.9c-0.4,0.1-1,0.3-0.7,0.9c0.2,0.4,0.6,0.9,1,1
		C53.7,93.8,55.1,93.5,56.6,92.9z M71.9,112.6c-2.2-0.5-5.8,1.8-6.4,3.9c-0.1,0.3,0,0.6,0.1,0.8C67.3,115.2,69.5,113.7,71.9,112.6z
		 M68.2,116.3c-0.3,0.2-0.8,0.5-1.2,1c-0.2,0.2-0.2,0.7-0.1,0.9c0.4,0.5,2.6,0.2,3-0.2C69.4,117.5,68.8,116.9,68.2,116.3z"/>
	<path class="st0" d="M89.6,133.1c-0.3-1.6,0.9-2.2,2.2-2.9c0.7-0.4,1.2-1,1.8-1.6c0.8-0.7,1.4-1.6,2.2-2.2c2-1.4,4.1-2.7,6.2-4
		c1.1-0.7,2.2-1.3,3.4-1.8c0.8-0.4,1.2-0.1,1.1,0.8c-0.1,0.8-0.4,1.5-0.4,2.3c-0.1,1.2-0.2,2.4-0.2,3.6c0,1.9-0.4,3.7-1.5,5.4
		c-0.8,1.3-1.4,2.7-2.6,3.6c-0.1,0.1-0.2,0.2-0.3,0.3c-2.1,1.8-5.5,1.7-7.6-0.1c-0.7-0.6-1.4-1-2.3-1
		C89.6,135.5,89.5,135.4,89.6,133.1z M105.3,124.1c-0.3,0.1-0.4,0.2-0.4,0.2c-0.4,0.9-0.8,1.7-1.2,2.6c-2,4.4-5.1,7-10.1,7.1
		c-0.3,0-0.6,0.2-0.9,0.3c-0.1,0.1-0.1,0.2-0.2,0.4c0.3,0.1,0.5,0.3,0.8,0.4c1.2,0.7,2.5,1.4,3.7,2c0.8,0.4,1.7,0.3,2.6-0.2
		c1.9-1,3.1-2.6,4.2-4.4C105.4,129.8,104.9,127,105.3,124.1z M104.8,123.2c-0.1-0.1-0.2-0.2-0.3-0.4c-0.3,0.2-0.5,0.3-0.8,0.5
		c-0.8,0.8-1.5,1.6-2.3,2.4c-1,0.9-2.4,1.6-3.2,2.7c-1.1,1.6-2.8,2.5-4.3,3.6c-0.4,0.3-0.6,0.7-0.9,1.1c0.1,0.1,0.2,0.2,0.2,0.3
		c0.3-0.1,0.6-0.2,1-0.2c0.8-0.1,1.7,0.1,2.4-0.2c1.3-0.6,2.6-1.3,3.7-2.3c1-0.9,1.6-2.2,2.3-3.3C103.4,126,104.1,124.6,104.8,123.2
		z M103.7,122.8c-0.1-0.1-0.1-0.2-0.2-0.3c-0.4,0.2-0.8,0.4-1.1,0.6c-2.1,1.4-4.3,2.7-6.4,4.1c-0.5,0.3-1.2,0.7-1.4,1.2
		c-0.7,1.4-1.6,2.4-3.1,3c-0.9,0.4-1.2,1.1-1.2,2c0,0.4,0.2,0.8,0.4,1.2c0.4-0.2,0.8-0.4,1.1-0.7c0.9-0.9,1.7-1.9,2.6-2.7
		c0.8-0.7,2-1.1,2.5-1.9c1-1.7,2.6-2.7,4.1-3.9C101.8,124.5,102.7,123.6,103.7,122.8z"/>
	<path class="st0" d="M72.6,102.6c-1-0.4-2.2-0.8-3.3-1.4c-0.7-0.3-0.7-1.2-0.1-1.6c0.5-0.3,1.2-0.7,1.7-0.5c1.8,0.4,3.5,0,5-0.8
		c2.5-1.3,4.9-2.8,7.1-4.4c1.9-1.4,3.6-3.1,5.4-4.5c0.4-0.4,1.1-0.4,1.7-0.6c-0.2,0.6-0.2,1.2-0.5,1.6c-1.4,2.2-3.3,4.1-5.5,5.6
		c-2,1.4-4.1,2.7-6.1,4.1c-1,0.6-1.9,1.4-3,1.9C74.4,102.3,73.6,102.3,72.6,102.6z"/>
	<path class="st0" d="M93.9,95.1c-0.3,0.6-0.6,1.1-0.8,1.7c-0.5,1.3-1,2.6-1.4,3.9c-0.4,1.4-1.3,2.5-2.6,3.2
		c-1.6,0.9-3.3,1.7-4.9,2.5c-0.4,0.2-0.9,0-1.3,0.1c0-0.4-0.1-0.9,0.1-1.2c0.5-1.4,1.1-2.7,1.6-4.1c0.4-1.2,1.4-1.9,2.4-2.5
		c1.9-1.2,3.8-2.4,5.8-3.6c0.3-0.2,0.6-0.2,1-0.2C93.7,94.7,93.8,95,93.9,95.1z M85.5,101.8c-0.5,1.1-0.9,2.1-1.3,3.1
		c0.1,0.1,0.1,0.2,0.2,0.2c1-0.5,2-1.1,3.1-1.6C86.8,102.9,86.2,102.4,85.5,101.8z M89.1,98.5c0.6,0.6,1.2,1.2,1.8,1.7
		c0.2-0.9,0.5-1.9,0.7-2.9c-0.1-0.1-0.1-0.1-0.2-0.2C90.6,97.6,89.9,98,89.1,98.5z"/>
</g>
</svg>
