<?xml version="1.0" encoding="utf-8"?>
<!-- Generator: Adobe Illustrator 19.2.1, SVG Export Plug-In . SVG Version: 6.00 Build 0)  -->
<svg version="1.1" id="Layer_1" xmlns="http://www.w3.org/2000/svg" xmlns:xlink="http://www.w3.org/1999/xlink" x="0px" y="0px"
	 viewBox="0 0 231.6 251.5" style="enable-background:new 0 0 231.6 251.5;" xml:space="preserve">
<style type="text/css">
	.st0{fill:#00BCD4;}
</style>
<g id="sinusheadache-boy">
	<path class="st0" d="M31.6,251.5c0.4-3.3,0.8-6.6,1.2-9.9c0.3-2.3,0.7-4.6,1.1-6.8c0.3-1.9,0.7-3.7,1-5.6c0.2-1.4,0.3-2.8,0.3-4.2
		c0.2-3,0.4-6,0.6-9c0-0.3,0.2-0.6,0.2-0.9c0-0.3-0.1-0.6-0.2-0.8c-0.8-0.8-1-1.6-0.5-2.6c0.3-0.8,0.7-1.5,1-2.3
		c1.7-4.2,3.4-8.4,5-12.5c0.6-1.6,1.2-3.3,1.7-5c0.4-1.5,0.4-3.2,0.8-4.7c1.6-5,3.2-10,5.2-14.9c2.2-5.3,5.7-9.7,10.5-13
		c1.6-1.1,3.1-2.5,4.8-3.6c2.2-1.5,4.7-2.3,7.4-2.4c3.5-0.1,7.1,0,10.8,0c-0.1-1.5-0.2-2.8-0.3-4.1c-0.2-2-0.5-4-0.7-5.9
		c-0.4-3-1-6-1.3-9c-0.2-1.9,0.1-3.8,0.2-5.7c0.1-1.6,0.7-3,1.6-4.4c0.9-1.6,0.6-3.3,0.7-5c0.1-1.4,0-2.7,0.2-4.1
		c0.1-0.8,0.4-1.7,0.8-2.4c0.5-1,0.4-1.9,0-2.9c-0.9-2.2-1.7-4.4-2.5-6.7c-0.2-0.7-0.1-1.5,0.1-2.2c0.4-1.6,1.9-2.6,3.5-2.8
		c0.4,0,0.8,0,1.2,0c-0.8-3.4-1.7-6.6-2.4-9.9c-0.3-1.4-0.5-2.9-0.5-4.3c-0.1-5-0.1-10,0-15c0.1-2.4,0.4-4.7,1-7
		c0.4-1.6,1.3-3.2,2.3-4.6c2.6-4.1,5.3-8,8-12.1c1.4-2.2,2.7-4.5,4.1-6.7c2.7-4.4,5.8-8.4,10.8-10.3c2.4-0.9,4.9-1.6,7.3-2.5
		c2.6-1,5.2-1.3,7.9-1.3c0.3,0,0.7,0.1,1-0.1c2.3-1,4.8-0.8,7.2-0.7c1.3,0,2.5,0.5,3.8,0.7c1,0.2,2,0.4,3,0.4c4.7,0,9.1,1.1,13,3.7
		c2.2,1.5,4.2,3.1,5.9,5.2c1.5,1.8,3.3,3.3,5.4,4.3c3.3,1.5,5.5,4.1,7.2,7.2c0.8,1.4,1.9,2.7,2.7,4.1c0.7,1.4,1.2,2.9,1.7,4.4
		c1.1,2.9,2.3,5.8,3.1,8.9c0.7,2.6,1.3,5.2,1.2,8c0,1.9,0.3,3.7,0.3,5.6c-0.1,2.5-0.1,4.9-0.8,7.4c-0.4,1.5-0.4,3.2-0.5,4.8
		c-0.1,2.2-0.4,4.3-1.1,6.4c-0.3,0.8-0.4,1.6-0.6,2.4c0.1,0,0.2,0.1,0.2,0.1c2.4-0.4,4,1.2,4.4,4c0.4,2.8-0.2,5.4-1.9,7.7
		c-0.1,0.2-0.2,0.4-0.3,0.6c-1.2,1.5-1.5,3-0.5,4.8c0.8,1.6,1.1,3.3,1,5.2c-0.1,1.9,0,3.9,0.6,5.7c0.4,1.3,0.9,2.5,1.2,3.7
		c0.9,4.2,1.4,8.5,0.6,12.8c-0.6,3.5-1.2,7-1.8,10.4c0,0.1,0,0.3,0,0.5c2.7,0.7,5.4,1.7,8.1,2.2c4.4,0.9,8.9,1.7,13.3,2.8
		c3.9,1,7.9,1.7,11.9,2.7c2.9,0.7,4.6,2.8,5.4,5.5c0.7,2.4,1.5,4.5,2.9,6.6c0.7,1.1,1.1,2.4,1.6,3.6c0.4,1,0.8,2,1.1,3
		c0.3,0.8,0.3,1.7,0.6,2.5c0.6,1.8,1.3,3.5,1.8,5.4c0.8,3.1,0.8,6.2,1,9.4c0.2,2.7,0.5,5.3,0.7,8c0.1,1,0.2,2,0.2,3
		c0.1,1.9,0.1,3.8,0.2,5.6c0.1,1.4,0.4,2.8,0.6,4.2c0.3,1.9,0.6,3.8,0.7,5.7c0.2,3.8,0.1,7.7,0.5,11.4c0.6,5.8,0.5,11.7,0.5,17.5
		c-0.6,0-1.2,0-1.8,0c0-2.9,0-5.7,0-8.6c0-1.1,0-2.1,0-3.2c-0.2-2.8-0.4-5.5-0.6-8.3c-0.1-1.3,0-2.7-0.1-4c-0.2-2.8-0.4-5.6-0.7-8.4
		c-0.2-1.7-0.5-3.4-0.8-5.2c-0.5,0.1-0.8,0.1-1.2,0.2c-1.4,0.4-2.7,0.9-4.1,1.2c-3.9,1-7.8,2-11.7,3c-0.8,0.2-1,0.6-0.6,1.2
		c0.6,1.1,1.3,2.3,1.9,3.5c1.9,3.6,3.7,7.2,5.6,10.8c1.6,3.1,3.2,6.1,4.9,9.2c0.3,0.5,0.4,1.1-0.2,1.4c-0.6,0.3-1,0-1.3-0.6
		c-0.6-1.3-1.2-2.6-1.9-3.9c-2-3.8-4.1-7.5-6.1-11.3c-2-3.8-3.8-7.8-6.6-11.3c-1.8-2.3-3.3-5-5.2-7.3c-2.4-2.9-3.9-6.2-5.2-9.6
		c-1.6-4.4-3-8.9-4.5-13.3c-0.9-2.7-2.1-5.2-3.9-7.3c-2.6-3.1-4.4-6.5-5.6-10.3c-1.1-3.2-1.9-6.5-2.7-9.7c-0.4-1.5-0.5-3-0.6-4.5
		c-0.2-4.3,0.9-8.4,1.6-12.5c1-5.7,0.6-11.2-1.1-16.6c-0.6-2-1.2-4-1.1-6.1c0.1-1.6,0-3.3-0.5-4.8c-0.7-1.9-1.1-3.9-1.6-5.8
		c-0.7-2.8-1.5-5.6-2.3-8.4c-0.6,0.3-1.3,0.7-2.1,0.9c-0.7,0.2-1.6,0.5-2.3-0.4c1.5-0.5,2.8-1,4.2-1.5c-1.7-4.8-3.4-9.4-5.1-14
		c-1.2,0.3-1.8,1.6-3.1,1c0.6-0.6,1.3-1.1,2-1.6c0.2-0.2,0.5-0.6,0.5-0.7c-0.7-1.7-1.4-3.5-2.2-5.2c-0.5,0.2-0.8,0.4-1.2,0.6
		c-1.2,0.5-2.7,0.2-3.3-0.7c-1.4-1.9-1.3-3.9,0.1-5.7c-1,0-2.2,0.9-2.2,1.9c-0.1,1.4,0.1,2.9,0.2,4.3c0.1,1.2,0.3,2.4,0.4,3.5
		c0.1,0.6,0.1,1.3,0.3,1.9c1.3,3,2.7,5.9,3.9,9c2.2,6,4.3,12.1,6.4,18.2c0.5,1.5,1,3,1.3,4.5c0.1,0.4,0,1-0.2,1.2
		c-0.4,0.3-0.9,0.8-1.3,0.1c-0.8-5.6-3.1-10.7-5-16.1c-0.7,0.3-1.4,0.6-2.1,0.8c-0.2,0.1-0.5-0.2-0.8-0.3c0.2-0.3,0.2-0.7,0.5-0.8
		c0.6-0.4,1.3-0.6,2.3-1c-2.4-5.8-4.7-11.5-7.1-17.3c-0.8,0.3-1.4,0.7-2.1,0.9c-0.3,0.1-0.6-0.2-0.9-0.3c0.2-0.2,0.4-0.5,0.6-0.7
		c0.6-0.3,1.2-0.6,1.9-0.9c-0.6-1.2-1-2.3-1.6-3.3c-0.7-1.2-1.4-2.3-2.2-3.4c-1.5-2.2-1.5-2.1-3.7-0.7c-1.7,1.1-3.9,0.7-5.1-0.9
		c-0.4-0.5-0.7-1-1.1-1.5c-0.2,0.7-0.3,1.5-0.1,2c1.1,2.6,2.3,5.2,3.6,7.8c1.9,4,3.8,7.9,5.5,11.9c1.4,3.2,2.5,6.5,3.6,9.7
		c1.1,3,2,6,3.1,9c0.7,1.9,1.4,3.9,2.1,5.8c0.2,0.6,0.2,1.1-0.5,1.2c-0.6,0.1-1-0.2-1.1-0.8c-0.1-0.4-0.2-0.7-0.3-1.1
		c-0.7-2.1-1.3-4.3-2-6.4c-0.4-1.4-0.9-2.8-1.3-4.1c-1.1,0.6-2,1.1-3,1.5c-0.3,0.1-0.7-0.2-1.1-0.3c0.2-0.3,0.4-0.6,0.7-0.8
		c0.7-0.5,1.6-0.9,2.3-1.4c0.2-0.2,0.4-0.7,0.3-1c-1.4-4-2.9-7.9-4.4-11.8c-0.4-1.1-1-2-1.7-3.2c-0.8,0.6-1.4,1.1-2.1,1.5
		c-0.2,0.1-0.6,0-0.9-0.1c0.1-0.3,0.2-0.6,0.4-0.7c0.8-0.6,1.6-1.1,2.4-1.7c-1-2.2-2.1-4.4-3.2-6.7c-0.4,0.4-0.7,0.7-1.1,1
		c-0.5,0.3-1.1,0.6-1.7,0.7c-1.6,0.1-3.2-1.4-3.9-3.4c-0.3-0.8-0.2-1.5,0.5-2.1c0.8-0.7,1.6-1.4,2.5-2.1c-2.4-0.7-3.6,0.2-4.1,2
		c-0.5,2.1-0.3,4.2,0.5,6.2c0.4,1,0.8,2,1.2,3c1,2.4,1.9,4.8,2.8,7.2c0.4,1,0.6,2,0.8,3.1c0.7,3.1,1.2,6.3,2,9.3
		c0.7,2.8,1.7,5.5,2.5,8.3c0.5,1.8,0.9,3.7,1.5,5.6c0.5,1.7,1.1,3.3,1.6,4.9c0.1,0.3-0.1,0.6-0.2,0.9c-0.3-0.1-0.7-0.2-1-0.4
		c-0.2-0.1-0.3-0.4-0.3-0.6c-0.6-1.9-1.2-3.8-1.8-5.7c-0.5-1.5-0.9-3-1.3-4.5c-1.1,0.6-2,1.1-3,1.7c-0.5,0.3-1,0.3-1.1-0.3
		c0-0.3,0.5-0.6,0.8-0.9c0.4-0.3,0.9-0.4,1.2-0.7c0.6-0.4,1.1-0.9,1.5-1.3c-1.2-4.7-2.5-9.4-3.7-14c-2.2,0.8-3.2,0.3-3.9-1.7
		c-0.4-1.1-0.1-2.2,0.7-2.6c0.7-0.3,1.4-0.7,2.1-1c-0.2-0.7-0.5-1.1-1.3-1.1c-1.4,0.1-3.1,1.7-3.2,3.1c0,1.6,0,3.3,0,4.9
		c0,3.2,0,6.3,0,9.5c0,4.3,1.2,8.5,1.7,12.7c0.2,1.4,0.6,2.8,0.9,4.1c0.2,1.2,0.4,2.4,0.5,3.6c0.5,4.1,1.1,8.3,1.4,12.4
		c0.2,3.3,0.6,6.6,1.6,9.7c0.9,2.7,1.6,5.5,2.6,8.2c0.9,2.5,2.2,4.8,4.3,6.6c1.3,1,2,2.3,2.3,3.8c0.6,2.9,1.3,5.9,1.9,8.8
		c0.3,1.3,0.7,2.7,0.9,4c0.6,3.8,1.1,7.6,1.7,11.3c0.3,2,0.7,4,1,6c0.6,3.6,1.1,7.2,1.8,10.8c0.8,4.3,1.7,8.5,2.5,12.8
		c0.9,4.4,1.7,8.9,2.8,13.2c0.9,3.7,2.2,7.3,3.4,11c-27.5,0-55,0-82.5,0c0.4-2.1,0.7-4.3,1.3-6.3c1.8-5.8,3.8-11.6,5.7-17.4
		c0.7-2.2,1.7-4.3,2.4-6.4c2.4-7.3,4.6-14.7,7.3-22c2.6-7,4.4-14.2,6.5-21.3c0.9-3,2.2-5.7,4.4-7.8c2.7-2.6,4.3-5.8,5.8-9.2
		c1-2.2,1.7-4.5,2.5-6.8c0.7-2,1.4-4,1.7-6.1c0.5-4,1.2-7.9,2.3-11.8c1.6-5.5,3.7-10.9,5.6-16.4c1.2-3.5,2.5-7,3.7-10.4
		c0.7-2,0.8-4.1,0.6-6.4c-2.4,2.4-3.5,2.6-5.9,0.9c-0.6,1.6-1.3,3.1-1.8,4.7c-0.8,2.5-1.7,4.9-3.3,7c-0.6,0.8-1.2,1.7-1.9,2.8
		c0.9,0.5,1.7,1,2.4,1.5c0.3,0.2,0.4,0.6,0.7,0.9c-0.3,0.1-0.8,0.4-1,0.3c-1-0.4-1.9-0.8-2.9-1.3c-0.9,1.6-1.7,3.3-2.8,4.8
		c-1.1,1.7-1.8,3.5-2,5.5c-0.1,0.7-0.2,1.4-0.4,2.1c-0.1,0.3-0.7,0.4-1,0.6c-0.1-0.3-0.3-0.7-0.3-1c0.1-0.8,0.3-1.6,0.5-2.4
		c0.4-1.7,0.7-3.4,1.7-4.9c1.3-2,2.5-4,3.7-6.1c0.3-0.5,0.6-1.2,0.9-1.7c1.3-1.9,2.6-3.7,3.4-5.9c0.8-2.3,1.7-4.6,2.7-6.8
		c1.3-3,2.8-6,4.1-9.1c0.9-2.2,1.8-4.4,2.7-6.7c-3.2,0.2-6.2,0.1-8.1-3c-0.4,0.7-0.8,1.4-1.2,2c-1.8,3.3-3.6,6.7-5.5,10
		c-0.4,0.7-1,1.2-1.3,1.9c-1.6,3.1-2.8,6.5-5,9.3c-0.3,0.4-0.4,0.8,0.1,1.2c0.9,0.7,1.8,1.5,2.7,2.3c0.3,0.2,0.4,0.6,0.6,0.9
		c-0.4,0.1-0.8,0.3-1.1,0.2c-0.4-0.1-0.8-0.3-1.1-0.6c-0.8-0.6-1.5-1.3-2.3-2c-1.4,2.7-2.7,5.3-4,7.9c-0.9,1.8-1.9,3.5-2.8,5.3
		c-0.3,0.4-0.7,1-1.3,0.6c-0.7-0.4-0.2-0.9,0.1-1.4c0.8-1.4,1.6-2.7,2.3-4.1c1.7-3.2,3.2-6.5,4.9-9.8c1.2-2.3,2.6-4.5,3.8-6.7
		c0.8-1.5,1.4-3.1,2.2-4.5c2.5-4.5,4.9-9.1,6.7-13.9c0.4-1.2,1-2.3,1.5-3.5c-1,0-2,0.1-2.9,0c-2.5-0.3-5.2-1.9-3.1-5.2
		c0.2-0.4,0.3-0.8,0.5-1.1c-0.1-0.1-0.2-0.1-0.3-0.2c-0.8,0.9-1.6,1.8-2.2,2.9c-2.3,3.9-4.4,7.8-6.6,11.7c-1,1.8-2.3,3.4-3.2,5.2
		c-1.6,3.1-3,6.3-4.5,9.5c-0.3,0.6-0.1,0.8,0.4,1.1c0.7,0.3,1.5,0.6,2.2,1c0.5,0.2,1,0.4,0.7,1c-0.1,0.2-0.8,0.2-1.2,0.1
		c-1-0.4-2-0.9-3-1.3c-0.4,0.8-0.8,1.6-1.3,2.3c-2.4,3.9-4.9,7.7-7.3,11.6c-0.9,1.4-1.6,2.9-2.3,4.3c-0.2,0.5-0.5,0.9-0.9,0.6
		c-0.3-0.2-0.5-0.8-0.3-1.1c0.4-1,0.9-2,1.4-2.9c2.7-4.3,5.5-8.5,8.1-12.9c1.6-2.7,2.7-5.6,4.1-8.4c2.7-5.1,4.6-10.6,6.2-16.1
		c0.3-1.2,0.4-2.4-0.2-3.6c-0.9,1.2-1.8,2.3-2.7,3.4c-0.6,0.8-1.5,1.2-2.5,0.8c-1-0.4-1.8-1-2.8-1.6c-0.4,0.6-1,1.3-1.4,2.1
		c-1.4,3-2.8,6-4.2,9c-1.3,2.8-2.6,5.7-4.1,8.8c1,0.6,2.1,1.2,3.1,1.8c0.3,0.2,0.7,0.7,0.7,0.9c-0.1,0.6-0.7,0.4-1.1,0.2
		c-1.1-0.6-2.2-1.2-3.3-1.8c-0.1,0.3-0.2,0.6-0.3,0.9c-1.1,3.4-2.2,6.9-3.3,10.3c-0.2,0.6-0.3,1.2-0.6,1.7c-0.2,0.4-0.5,0.6-0.8,0.9
		c-0.2-0.4-0.4-0.7-0.5-1.1c-0.1-0.2,0-0.4,0.1-0.7c0.4-1.1,0.9-2.1,1.2-3.2c1.1-3.6,2.2-7.3,3.3-11c-0.6-0.5-1.4-0.5-2.1-0.2
		c-0.3,0.1-0.4,0.8-0.5,1.2c-0.5,1.9-0.9,3.7-1.3,5.6c-0.5,2.4-1,4.9-2.1,7.1c-0.3,0.5-0.4,1.2-0.4,1.8c0,1.8,0,3.6,0,5.3
		c0,1.5-0.3,2.9-1.1,4.1c-1.9,2.8-1.5,6-1.3,9.1c0.2,2.6,0.7,5.2,1.1,7.8c0.3,2.3,0.6,4.5,0.8,6.8c0.3,3.2,0.8,6.4-0.8,9.5
		c-0.2,0.3-0.2,0.7-0.4,1c-0.9,2.7-1.7,5.5-2.8,8.2c-0.7,1.7-1.9,3.1-2.7,4.7c-1.6,2.8-3.2,5.7-4.6,8.6c-1.3,2.7-2.4,5.6-3.7,8.4
		c-0.9,1.9-1.9,3.8-2.9,5.7c-1.7,3.2-3.2,6.6-5.1,9.7c-4,6.2-8.3,12.2-13.7,17.4c-2.1,2-3.6,4.4-4.3,7.3c-0.1,0.3-0.1,0.7-0.3,0.9
		c-0.3,0.2-0.7,0.4-1.1,0.4c-0.2,0-0.4-0.5-0.4-0.8c0-0.5,0.1-1.1,0.3-1.6c1.1-3.3,2.9-6.1,5.5-8.4c0.3-0.3,0.5-0.6,0.9-1
		c-3.2-1.8-6.4-3.3-10-4.1c-0.1,0.5-0.2,1-0.2,1.5c-0.1,2.1-0.1,4.2-0.2,6.3c-0.1,2.1-0.4,4.1-0.6,6.1c-0.1,0.6-0.2,1.3-0.4,1.9
		c-0.3,1.6-0.7,3.1-1,4.7c-0.4,2.4-0.7,4.9-1,7.3c-0.4,3-0.7,5.9-1.1,8.9C32.8,251.5,32.2,251.5,31.6,251.5z M118.3,73.5
		c-3.1-0.6-5.7-2.3-7.9-4.6c-2.7-2.8-6-3.9-9.8-4.3c-2-0.2-3.3,0.7-4.5,2.1c-2.3,2.8-3,6.2-3.6,9.6c-0.3,1.8-0.5,3.6-0.8,5.4
		c-0.4,2.1-0.8,4.3-1.2,6.4C90.3,90,90.2,92,90,93.9c-0.1,1.5-0.3,3.1-0.4,4.6c0.7,0.1,1.4,0.2,2.3,0.4c0.1-0.2,0.3-0.4,0.4-0.7
		c2.3-4.9,4.5-9.7,6.8-14.6c0.4-0.8,0.8-1.5,1.4-2.2c1.5-1.9,3-3.7,4.6-5.5c0.3-0.3,0.6-0.6,1-0.7c1.9-0.3,3.6,0.1,4.7,2
		c1.2,2.2,1.6,4.5,0.5,6.9c-0.2,0.4-0.3,0.8-0.4,1.2c-0.1,0.4-0.1,0.7-0.2,1.2C113.2,82,115.8,77.8,118.3,73.5z M142.9,160.5
		c-7.5,5.2-14.7,4.4-21.9,0c-1,2-1.9,3.9-2.9,5.7c-0.5,0.9-0.3,1.5,0.2,2.4c2.3,3.8,6.2,4.8,10,5.6c4.5,0.9,9.1,0.4,13.4-1.4
		c1.9-0.8,3.8-1.6,5.2-3.3C144.9,166.9,143.6,164,142.9,160.5z M135.2,112.3c-0.2,0.4-0.3,0.7-0.4,1c-1.9,5.3-3.8,10.7-5.7,16
		c-1.5,4.2-2.7,8.5-3.3,13c-0.1,0.9,0.2,1.2,1.1,1c2.2-0.6,2.3-0.6,3.7,1.2c0.6,0.7,1.2,1.5,2.3,1.4c1.4-0.2,2.3-1.1,3-2.2
		c0.6-1.1,1.5-1.8,2.6-2.2c0.7-0.3,0.9-0.6,0.8-1.3c-0.3-2.1-0.6-4.2-0.9-6.3c-0.2-1.8-0.5-3.5-0.8-5.3c-0.5-2.8-1.2-5.6-1.6-8.4
		C135.6,117.6,135.4,115,135.2,112.3z M122.6,155.6c0.1,0.1,0.2,0.2,0.2,0.2c1.8-0.7,3.6-1.4,5.3-2.2c1.1-0.5,2.3-0.8,3.4,0.1
		c0.7,0.6,1.1,0.4,1.7-0.1c1.8-1.4,3.7-1.7,5.8-0.8c0.5,0.2,1,0.3,1.4,0.4c-0.4-3.7-0.8-7.3-1.2-10.9c-0.8,0.1-1.5,0.6-2.1,1.3
		c-0.7,0.8-1.5,1.7-2.3,2.4c-1.4,1.3-3.4,1.2-4.5-0.4c-1-1.5-2-1.9-3.8-1.3c-0.9,0.3-1.4,0.6-1.6,1.6c-0.4,2.5-0.5,5.2-1.5,7.6
		C123.1,154.2,122.9,154.9,122.6,155.6z M121.4,159.3c1.1,0.6,2.1,1.3,3.2,1.8c4.3,2,8.6,2.9,13.1,0.8c0.8-0.4,1.7-0.8,2.5-1.2
		c2.1-1,2.1-1,1.3-3.1c0,0-0.1-0.1-0.2-0.1c-1,0.2-1.9,0.5-2.9,0.5c-3.6,0.1-7.2,0.1-10.9,0.1C125.6,158,123.4,157.7,121.4,159.3z
		 M201.3,197c-0.1-0.1-0.2-0.2-0.3-0.3c0.1-0.5,0.1-1.1,0.2-1.6c0.3-1.6,0.6-3.3,1-4.9c0.7-2.2,1.5-4.3,2.3-6.4
		c0.5-1.4,0.6-3.1,2.5-3.9c-0.5-0.4-0.9-1-1.2-1c-0.5,0-1.1,0.4-1.4,0.7c-0.4,0.5-0.7,1.1-0.9,1.7c-0.9,2.4-1.9,4.8-2.6,7.2
		c-0.9,3.3-1.6,6.6-2.3,9.9c-0.2,1,0.6,1.6,1.6,1.2c0.8-0.4,1.6-0.9,2.4-1.3c2.2-1.1,4.3-2.5,6-4.3c0.9-1,2-1.8,3.1-2.6
		c0.7-0.5,0.7-1.1,0.4-1.6c-0.4-0.6-1-0.3-1.5,0.1c-1.6,1.3-3.3,2.6-5,3.9C204.3,194.9,202.8,196,201.3,197z M125.9,83.8
		c0.1,0,0.2,0.1,0.2,0.1c0.1-0.1,0.2-0.1,0.2-0.2c0.1-0.1,0.2-0.2,0.3-0.4c1.3-1.7,2.6-3.2,5-3.4c1-0.1,2-0.2,2.8,0.5
		c0.7,0.6,1.3,1.4,2,2c0.1-0.9,0.2-1.9,0.3-2.9c0.1-2.4,1.9-4,4.2-4c0.5,0,1,0.1,1.5,0.1c-0.2-0.8-0.4-1.4-1.4-1.3
		c-2,0.3-4,0.6-6,0.9c-0.7,0.1-1.3,0.5-2,0.5c-1.2,0.2-2.5,0.2-3.8,0.3c0.3,1.5-0.5,2.6-1.3,3.8C127,81.3,126.5,82.6,125.9,83.8z
		 M135.3,87.1c0-1.1,0.1-2.1,0-3c-0.1-1.1-0.6-1.9-1.5-2.6c-0.6-0.6-1.2-0.3-1.8,0c-0.1,0.1-0.3,0-0.4,0c-1.2-0.3-2,0.4-2.7,1.3
		c-0.4,0.5-0.8,1-0.9,1.6c-0.2,1,1.5,2.7,2.8,2.8C132.2,87.1,133.7,87.1,135.3,87.1z M127.8,75.8c-0.6-0.6-1.1-1.2-1.6-1.7
		c-0.9-0.9-2-1.1-3.2-1.2c-0.3,0-0.6,0.1-0.8,0.3c-0.6,1.1-1.2,2.2-1.8,3.4c-0.4,0.8-0.1,1.5,0.7,1.9c1.2,0.7,2.5,0.8,3.7,0.6
		c0.5-0.1,1-0.4,1.3-0.8C126.9,77.6,127.3,76.6,127.8,75.8z M136.8,84.9c0,1.7-0.4,3.1-1.1,4.6c-1,2.2-1.7,4.4-2.6,6.6
		c0.7,0.3,1.3,0.5,2,0.8c1.1-1.8,2.2-3.6,4.8-3.8C138.9,90.3,137.9,87.6,136.8,84.9z M141.2,155.8c-0.4-0.4-0.7-1-1.2-1.3
		c-0.7-0.4-1.4-0.6-2.2-0.8c-1-0.4-2-0.4-2.9,0.2c-0.6,0.4-1.2,0.8-1.9,1.2c-0.7,0.4-1.3,0.4-1.8-0.2c-0.6-0.7-1.4-0.7-2.1-0.4
		c-1.8,0.6-3.5,1.5-5.4,2.2C129.7,156.6,135.4,157.1,141.2,155.8z M64.8,169.5c-1.2,0-1.5,0.3-1.1,1.5c0.1,0.3,0.2,0.6,0.3,0.9
		c1.1,3.4,2.2,6.9,3.4,10.3c0.1,0.2,0.7,0.4,1,0.4c0.2,0,0.4-0.4,0.5-0.7c0.3-1.3-0.2-2.4-0.7-3.6C67.2,175.4,66,172.5,64.8,169.5z
		 M151.4,72.6c-0.2-0.2-0.3-0.5-0.5-0.7c-0.8-0.8-1.7-1.5-2.3-2.4c-0.6-0.8-1.4-0.8-2-0.4c-0.6,0.4-1.5,0.6-1.6,1.6
		c-0.1,1.3,0.3,2.3,1.2,3.2c0.6,0.6,2,0.8,2.7,0.4C149.7,73.7,150.5,73.1,151.4,72.6z M153.1,72.9c1.4,2,2.8,3.9,4.2,5.9
		c-0.2-2.5-0.1-4.8,2-6.3c-0.6-1.3-1.2-2.4-1.8-3.6C156.3,70.4,156.4,73.3,153.1,72.9z M130.1,102.9c1.2,1.4,1.8,1.5,3.2,0.4
		c0.6-0.5,1.1-1.2,1.6-1.8c0.7-0.8,0.6-1.7,0.2-2.5c-0.4-0.9-1.3-1.3-2.3-1.2c-0.3,0-0.7,0.3-0.8,0.5
		C131.3,99.8,130.7,101.4,130.1,102.9z M102.9,80.4c0.5,0.4,1,0.7,1.4,1c1,0.7,1.5,0.6,2.2-0.4c1-1.3,1.9-2.6,2.9-3.9
		c-0.5-0.3-0.9-0.7-1.3-0.7c-0.7-0.1-1.6-0.2-2,0.2C105,77.7,104.1,79,102.9,80.4z M145.5,82.1c-0.6-1.4-1.2-2.8-2-4.4
		c-0.8,0.6-1.4,1.1-2,1.5c-1.6,1.2-1.6,1.3-0.5,3c0.1,0.1,0.1,0.2,0.2,0.2c0.9,1.3,2.1,1.4,3.2,0.3C144.7,82.5,145,82.4,145.5,82.1z
		 M165.3,78.4c-0.8-3.2-0.5-3.2-2.3-4.7c-2,1.5-2,1.9-1.2,3.8c0.1,0.2,0.1,0.5,0.3,0.7c0.1,0.2,0.4,0.5,0.6,0.5
		C163.6,78.7,164.4,78.5,165.3,78.4z M180.3,101.8c-0.3-0.9-0.4-1.7-0.7-2.4c-0.3-0.8-0.9-1.3-1.7-1c-0.8,0.3-1.5,0.7-1.5,1.7
		c0,0.3-0.1,0.6-0.2,0.8c-0.5,1-0.5,1.3,0,2.3C177.3,102.5,178.2,101,180.3,101.8z M87,99.4c-0.8,0.1-1.4,0.2-2.1,0.3
		c-1.1,0.1-1.6,0.8-2.1,1.6c-0.1,0.2,0.1,0.7,0.2,0.8c1.1,0.5,2.2,0.9,3.3,1.3c0.1-0.6,0.3-1.3,0.5-2C86.9,100.8,86.9,100.1,87,99.4
		z M177.6,108.7c1.9-2.5,2.8-4.1,2.3-6.2c-0.9,0.7-1.9,1.4-2.7,2.2c-0.3,0.3-0.4,0.9-0.3,1.4C177.1,106.9,177.3,107.8,177.6,108.7z
		 M84.8,108.9c0.3-0.5,0.4-0.8,0.6-1c0.9-1,0.2-3.3-0.8-3.9c-0.3-0.2-0.8-0.1-1.1-0.2c0,0.4-0.1,0.8,0,1.1c0.1,0.6,0.4,1.1,0.6,1.6
		C84.3,107.2,84.5,107.9,84.8,108.9z M141.6,96.5c-0.7,0.4-1.2,0.7-1.6,1.1c-0.3,0.2-0.5,0.6-0.5,1c0,1.5,0.8,2.1,2.2,1.5
		c0.2-0.1,0.5-0.2,0.7-0.3C142.1,98.6,141.8,97.5,141.6,96.5z"/>
</g>
</svg>
