<?xml version="1.0" encoding="utf-8"?>
<!-- Generator: Adobe Illustrator 18.1.1, SVG Export Plug-In . SVG Version: 6.00 Build 0)  -->
<!DOCTYPE svg PUBLIC "-//W3C//DTD SVG 1.1//EN" "http://www.w3.org/Graphics/SVG/1.1/DTD/svg11.dtd">
<svg version="1.1" id="Layer_1" xmlns="http://www.w3.org/2000/svg" xmlns:xlink="http://www.w3.org/1999/xlink" x="0px" y="0px"
	 viewBox="0 0 100 240.4" style="enable-background:new 0 0 100 240.4;" xml:space="preserve">
<style type="text/css">
	.st0{fill:#03A9F4;}
</style>
<g id="hemorrhoid-girl">
	<path class="st0" d="M54.8,0c1.1,0.2,2.3,0.2,3.4,0.5C64.8,1.8,70,5.1,73,11.2c2.1,4.3,2.2,8.8,0.8,13.4c-0.1,0.3-0.2,0.7-0.3,1.1
		c1.2,0,2.3,0,3.5,0c1.6,0.1,3.1,0.1,4.6,0.4c2.6,0.6,4.4,3.5,2.3,6.7c-0.9,1.4-1.9,2.9-3,4.1c-2.3,2.6-5.6,2.3-7.5-0.6
		c-1-1.6-1.9-3.2-2.9-4.9c-10.7,12.4-26,10.2-33.2,1.2c-0.8,1.2-1.6,2.4-2.4,3.6c-0.7,0.9-1.3,1.9-2.2,2.7c-1.8,1.7-4.1,1.7-5.7-0.2
		c-1.8-2-3.1-4.4-3.6-7.1c-0.5-2.5,0.8-4.2,3.2-4.5c1.7-0.2,3.3-0.1,5-0.1c0.8,0,1.6,0,2.5,0c-0.3-1.7-0.7-3.2-0.9-4.7
		C31.9,15,35.5,7.6,42,3.6c3.3-2,6.8-3.2,10.6-3.5c0.3,0,0.5-0.1,0.8-0.2C53.9,0,54.3,0,54.8,0z M52.3,37.5c4.5,0,8.5-1.7,12-4.3
		c2.4-1.7,4-4.1,5.4-6.7c2.7-5.1,3-10.2,0.2-15.2c-3.1-5.5-8.3-7.8-14.3-8.4c-2.4-0.3-4.6,0.3-6.9,1C44.4,5.1,41,7.5,38.5,11
		c-5.6,8-2.9,18.8,4.7,23.7C46,36.5,49,37.5,52.3,37.5z M72.1,28.7c0.5,0.8,0.9,1.4,1.3,2.1c0.8,1.4,1.4,2.8,2.2,4.1
		c0.9,1.5,1.9,1.6,3,0.3c1.1-1.3,2-2.7,2.9-4.1c0.8-1.3,0.3-2.3-1.3-2.4c-1.7-0.1-3.3,0-5,0C74.1,28.7,73.1,28.7,72.1,28.7z
		 M35.1,30.3c-1.3-0.1-2.4-0.1-3.5-0.2c-1.3,0-2.5-0.1-3.8-0.1c-1.8,0.1-2.4,1.1-1.7,2.7c0.5,1.3,1.2,2.5,1.8,3.7
		c0.7,1.3,1.8,1.5,2.7,0.3C32.2,34.7,33.5,32.5,35.1,30.3z"/>
	<path class="st0" d="M26.3,143.5c-0.5,0-0.9,0-1.3,0c-7.9,0-15.8,0-23.8,0c-0.7,0-1.4,0.1-1.2-1.1c8,0,15.9,0,23.9,0
		c0-0.1,0.1-0.2,0.1-0.2c-1.3-0.9-2.7-1.6-3.9-2.6c-4.1-3-6.6-6.9-6.5-12.1c0-2.2,0.6-4.3,1.8-6.3c2.1-3.8,5.3-6.6,9-8.9
		c1.5-0.9,2.2-2.2,2.2-3.9c0.1-2.5,0.3-5,0.5-7.5c0-0.2-0.1-0.5-0.2-0.7c-3.9-3.5-5-8.1-5.6-12.9c-1-7.1-2-14.1-2.9-21.2
		c-0.4-3.3-1.1-6.6-0.6-10c0.6-4,2.9-6.4,6.6-7.8c3.3-1.2,6.8-1.5,10.4-0.8c1.5-4.1,4.1-7,8.8-6.8c4.7,0.2,7.7,2.9,9.1,7.3
		c0.8-1.3,1.4-2.8,2.4-3.9c2.5-2.9,5.8-4.3,9.6-3.2c2.8,0.8,5,2.5,6.1,5.4c0.3,0.7,0.6,0.9,1.3,0.7c3.7-0.6,7.3-0.2,10.7,1.2
		c3.7,1.6,5.9,4.3,5.7,8.4c-0.2,3.6-0.6,7.3-1.3,10.9C85.6,75.9,83.9,84,82,92.2c-0.6,2.7-1.6,5.4-3.2,7.3c0.2,1.2,0.3,2.1,0.4,3
		c0.1,2,0.2,4,0.2,5.9c0,1.5,0.7,2.7,1.8,3.7c1.7,1.6,3.5,3.1,5.2,4.8c3.2,3.2,5.3,7.1,5.1,11.8c-0.2,4.8-2.2,8.8-6.4,11.5
		c-1.1,0.7-2.3,1.4-3.6,2.2c2.2,0,4.2,0,6.1,0c3.8,0,7.5,0,11.3,0c0.7,0,1.2,0.1,0.9,1.1c-7,0-14,0-21.2,0c0.4,2.4,0.6,4.6,1,6.9
		c1.6,9.5,3.2,19,4.9,28.4c2,11.3,4,22.7,6,34c1,5.5,1.9,11,1.6,16.7c-0.2,3.7-1.3,7-4.5,9.2c-4.1,2.8-10.7,2-14.6-1.5
		c-4.5-4.1-6.5-9.3-7.6-15c-1.4-7.5-2.4-15-3.6-22.6c-1.3-8.8-2.6-17.6-3.9-26.4c-1.1-7.9-2.3-15.9-3.4-23.8c-0.3-2-0.6-3.9-0.9-5.9
		c-1,0-1.9,0-2.9,0c-1,6.3-2,12.6-2.8,18.8c-1,7-1.9,14-2.8,21c-0.7,5.1-1.5,10.2-2.3,15.3c-0.8,5.9-1.7,11.8-2.4,17.8
		c-0.7,5.6-1.8,11-4.7,15.9c-3.2,5.4-9.6,8.9-16,6c-3.4-1.6-5.5-4.5-6.5-8.1c-1-3.7-0.7-7.4-0.1-11.1c1-6.1,2-12.1,3-18.2
		c1.1-6.5,2.2-12.9,3.3-19.4c1.3-7.4,2.6-14.8,3.8-22.3C24.5,154,25.4,148.8,26.3,143.5z M29.9,102.3c-0.2,2.2-0.3,4.2-0.4,6.2
		c-0.2,2.5-0.8,4.8-3.2,6.2c-2.4,1.4-4.5,3.2-6.3,5.3c-2.3,2.5-3.6,5.4-3.4,8.8c0.1,3.6,2,6.5,4.8,8.6c1.6,1.2,3.5,2.2,5.3,3.3
		c0.1-0.4,0.2-0.5,0.2-0.6c0.4-2.4,0.7-4.8,1.2-7.2c0.1-0.6,0.4-1.5,0.9-1.6c0.5-0.2,1.4,0.2,1.9,0.5c0.3,0.3,0.4,1,0.3,1.5
		c-0.6,3.8-1.3,7.6-2,11.5c-1.5,8.6-3,17.3-4.5,25.9c-1.7,10-3.5,20-5.1,30c-1.3,7.8-2.3,15.7-3.4,23.6c-0.3,2.1-0.1,4.3,0.7,6.3
		c1,2.7,2.7,4.7,5.6,5.3c3.9,0.9,7-0.6,9.6-3.5c2.6-3,4.1-6.7,4.8-10.6c1-5.8,1.9-11.6,2.7-17.4c1.4-9.9,2.8-19.9,4.2-29.8
		c0.8-5.4,1.6-10.8,2.4-16.2c0.7-5.1,1.4-10.3,2.2-15.4c0.6-3.9,1.3-7.9,1.7-11.8c0.3-2.5,0.1-5.1-1.3-7.4c-1.6-2.7-4.2-3.8-7.1-4.4
		c-1.4-0.3-2.7-0.4-4.1-0.6c-0.9-0.2-1.3-0.7-1.2-1.6c0.1-0.9,0.7-1.1,1.5-1c1.5,0.2,3,0.4,4.5,0.8c4.8,1.2,8.6,3.8,10.1,8.9
		c0.1,0.2,0.2,0.4,0.4,0.7c0.9-3.1,2.3-5.6,5-7.2c3.5-2.1,7.4-2.3,11.3-2.4c0.9,0,1.5,0.5,1.6,1.4c0,1-0.8,1.1-1.6,1.2
		c-1.3,0.1-2.7,0.2-4,0.3c-3.3,0.4-6.1,1.5-8.1,4.4c-1.6,2.5-1.7,5.2-1.4,8c0.8,6.4,1.7,12.9,2.6,19.3c0.8,5.8,1.6,11.6,2.5,17.4
		c1.1,7.3,2.2,14.7,3.3,22c1,6.6,2,13.1,3,19.7c0.8,4.9,1.6,9.9,2.7,14.7c0.8,3.7,2.6,7.1,5.6,9.6c5.3,4.4,12.9,1.7,13.8-4.4
		c0.1-1,0.3-2,0.3-3c-0.4-4.5-0.6-9.1-1.3-13.6c-1.7-10.7-3.6-21.3-5.5-32c-1-5.8-2-11.5-3-17.3c-0.9-5-1.7-10.1-2.6-15.1
		c-0.5-3.1-1-6.2-1.5-9.3c-0.3-1.8-0.5-3.6-0.7-5.4c0-0.5,0.5-1.2,1-1.4c0.3-0.1,1.1,0.4,1.3,0.8c0.4,0.8,0.6,1.7,0.8,2.5
		c0.2,1.1,0.4,2.3,0.6,3.7c1.4-0.7,2.6-1.3,3.8-2c4.7-2.6,7.1-7.4,6.4-12.5c-0.4-3-2-5.5-4.1-7.6c-1.7-1.7-3.6-3.3-5.3-5
		c-1.6-1.6-2.6-3.5-2.6-5.9c0-1.6-0.1-3.2-0.2-4.8c0-0.3-0.1-0.7-0.1-1.1c-0.3,0.1-0.6,0.2-0.8,0.3c-6.1,2.7-14,0-15.6-8.3
		c-0.5-2.7-0.9-5.4-1.4-8.2c-1.5-8.6-2.9-17.2-4.4-25.8c-0.3-1.8-0.7-3.6-1.1-5.4c-0.3,0.2-0.3,0.5-0.3,0.7
		c-1.1,5.9-2.2,11.8-3.3,17.7c-1,5.3-2,10.6-2.9,15.8c-0.7,3.5-1.5,6.9-3.6,9.9c-1.4,1.9-3,3.3-5.3,4.1
		C34.9,103.3,32.5,103.1,29.9,102.3z M71.7,49.8c0,0.3,0,0.6,0,0.8c0.7,4.1,1.3,8.2,2,12.2c0.8,5,1.7,9.9,2.5,14.9
		c0.1,0.7,0.1,1.4-0.8,1.6c-0.8,0.2-1.4-0.1-1.8-0.8c-0.2-0.3-0.3-0.8-0.4-1.2c-1.2-7-2.4-14-3.5-21c-0.5-2.7-0.8-5.4-1.4-8
		c-0.7-3-3.5-5-6.5-4.7c-3.8,0.3-6.9,4-6.4,7.9c0.6,4.7,1.4,9.3,2.2,13.9c1.3,7.8,2.6,15.6,4,23.4c0.4,2.3,0.8,4.6,1.6,6.7
		c1.5,4.3,6.3,6.1,10.4,4.1c2.6-1.3,4.3-3.4,4.9-6.2c2-8.9,4-17.9,5.8-26.9c0.6-3.1,0.9-6.2,1.1-9.3c0.2-2.5-0.8-4.7-3.2-6
		C79,49.4,75.4,49.7,71.7,49.8z M33.8,50c-3.6-0.2-6.9,0.2-9.9,2c-1.7,1.1-3,2.5-3.2,4.6c-0.2,1.8-0.3,3.7-0.1,5.6
		c0.8,6.6,1.7,13.2,2.6,19.9C23.7,86,24,90,25.4,93.7c0.8,2.2,1.9,4.2,3.9,5.4c4.2,2.6,8.8,1.2,11.4-3.2c2-3.4,2.5-7.3,3.2-11
		c1.7-8.6,3.3-17.3,4.9-25.9c0.5-3,1-6,1.1-9c0.1-2.7-1.3-4.9-3.9-5.9c-2.6-1-5.1-0.5-6.9,1.6c-0.9,1.1-1.7,2.5-2,3.9
		c-1.2,5-2.2,10-3.2,15c-1,4.9-1.8,9.8-2.7,14.6c-0.2,0.9-0.7,1.2-1.6,1c-1.1-0.3-1.5-1.1-1.2-2.5c0.4-1.9,0.9-3.8,1.3-5.7
		c1-5.5,2-11,3.1-16.5C33.1,53.8,33.5,52,33.8,50z M53.8,142.3c-0.4-2.6-0.8-5.1-1.3-7.6c-0.1,0-0.2,0-0.2,0c-0.4,2.5-0.8,5-1.2,7.6
		C52.1,142.3,52.8,142.3,53.8,142.3z"/>
</g>
</svg>
