<?xml version="1.0" encoding="utf-8"?>
<!-- Generator: Adobe Illustrator 19.2.1, SVG Export Plug-In . SVG Version: 6.00 Build 0)  -->
<svg version="1.1" id="Layer_1" xmlns="http://www.w3.org/2000/svg" xmlns:xlink="http://www.w3.org/1999/xlink" x="0px" y="0px"
	 viewBox="0 0 150 328.8" style="enable-background:new 0 0 150 328.8;" xml:space="preserve">
<style type="text/css">
	.st0{fill:#FF5722;}
</style>
<g id="pinworm-boy">
	<path class="st0" d="M99.6,0c1.2,0.2,2.4,0.5,3.6,0.7c2.4,0.4,4.5,1.5,6.6,2.6c2,1.2,3.8,2.6,5.7,4.1c1.5,1.1,2.4,2.8,3.6,4.3
		c0.6,0.8,1.6,1.5,2.4,2.1c1.8,1.3,3,3.1,4.2,4.9c1.9,3.1,3.3,6.5,4.2,10.1c0.1,0.2,0.1,0.5,0.1,0.7c-0.1,3.4,0.1,6.9-0.3,10.3
		c-0.4,3.4-1,6.8-2.9,9.7c-0.1,0.2-0.2,0.4-0.4,0.7c0.2,0.2,0.3,0.3,0.6,0.5c0.7,0.4,1,1,1,1.9c0.1,1.4-0.3,2.7-0.9,3.9
		c-0.4,0.8-0.5,1.8-0.8,2.6c-0.6,1.6-1.3,3.2-2,4.8c-0.8,2-1.7,3.9-2.6,5.8c-0.5,1.2-1,2.4-2.3,3c-0.8,0.4-1.8,0.5-2.8,0.5
		c-0.9,0-1.2,0.3-1.2,1.2c-0.1,2.2-0.9,4.3-2,6.2c-0.1,0.2-0.3,0.4-0.5,0.9c2.4,0.8,4.6,1.6,6.9,2.4c1.5,0.5,3,1,4.6,1.4
		c3,0.7,5.8,1.9,8.5,3.3c1.6,0.8,3,2,4.5,3c0.3,0.2,0.6,0.6,0.9,0.6c1.7,0.3,2.2,1.8,3.2,3c2.5,3,4.2,6.4,5.8,9.9
		c1.1,2.4,1.8,4.9,2,7.6c0.2,4.5,0.5,8.9,0.6,13.4c0.1,10.1,0.2,20.2,0.2,30.3c0,1.1-0.6,2.3-1,3.4c-1,3.7-1.9,7.4-3,11.1
		c-0.8,2.5-1.8,5-2.8,7.4c-1.5,3.8-2.9,7.6-4.6,11.3c-1.5,3.2-3.1,6.3-5,9.2c-1.8,2.6-4.2,4.8-6.4,7.1c-1.9,2-3.9,3.8-5.6,5.9
		c-0.6,0.8-0.8,2.1-0.9,3.2c-0.1,1.6,0.1,3.3-0.1,4.9c-0.1,1.2-0.3,2.4,0,3.7c0.4,1.6,0.9,3.3,1.2,5c0.2,1.3,0.2,2.6,0.4,3.8
		c0.4,2.6,0.8,5.1,1.2,7.7c0.4,2.8,0.7,5.6,1.2,8.4c0.6,3.4,0.3,6.8,0.4,10.3c0,3.7-0.2,7.3-0.2,11c0,4.2,0.3,8.4,0.4,12.6
		c0,1.5-0.6,2.8-1.7,3.7c-0.5,0.4-1.3,0.4-1.9,0.4c-0.4,0-0.8-0.1-1.3-0.2c0.1,2-0.5,3.8-1.3,5.5c-0.9,2-1.2,4.1-1.6,6.2
		c-0.4,2-0.7,3.9-1.1,5.9c-0.3,1.8-0.5,3.7-0.7,5.5c-0.3,2.2-0.6,4.3-0.8,6.5c-0.2,2.7-0.3,5.3-0.4,8c-0.1,0.8-0.2,1.7-0.4,2.5
		c-0.1,0.4-0.5,0.8-0.8,1.1c-0.1,0.1-0.8-0.2-0.8-0.4c-0.1-0.5-0.1-1,0-1.5c0.1-0.6,0.4-1.1,0.5-1.7c0.3-3.7,0.5-7.5,0.8-11.2
		c0.3-3.2,0.7-6.4,1.2-9.5c0.3-1.8,0.7-3.7,1.1-5.5c0.3-1.4,0.4-2.9,0.9-4.2c0.5-1.7,1.5-3.2,2-4.9c0.3-1.1,0.4-2.3-0.3-3.4
		c-0.2-0.3-0.6-0.5-1-0.5c-2.5-0.1-5.1-0.2-7.6-0.2c-4.1-0.1-8.2-0.1-12.3-0.2c-3.7-0.2-7.5-0.4-11.2-0.8c-1.6-0.2-3.1-0.9-4.6-1.3
		c-0.7-0.2-1.4-0.3-2.1-0.4c-0.2,0-0.5,0.4-0.5,0.6c-0.2,1.2-0.4,2.4-0.4,3.7c0,5.4,0,10.7,0,16.1c0,2.3-0.1,4.6,0.2,6.9
		c0.5,3.9,0.9,7.7,0.8,11.6c0,1.3,0.1,2.5,0.2,3.8c0.1,0.7-0.3,1-0.8,1c-0.3,0-0.7-0.6-0.8-0.9c-0.2-3-0.2-6-0.5-9
		c-0.2-2.2-0.5-4.5-0.7-6.7c0-0.2,0-0.4,0-0.6c-0.1-6.6-0.2-13.1-0.2-19.7c0-2.1,0.2-4.3,0.4-6.4c0.1-1-0.2-1.7-1.1-2.2
		c-1-0.6-1.5-1.6-1.5-2.8c0-1.5-0.3-1.7-1.8-1.1c-0.6,0.3-1.2,0.7-1.8,0.8c-1.2,0.2-1.3,0.8-1.3,1.8c0,2.6-0.1,5.2-0.2,7.8
		c-0.1,1.1-0.4,2.3-0.6,3.4c-0.2,1.3-0.2,2.6-0.4,3.8c-0.4,3.3-0.9,6.6-1.3,9.9c-0.4,3.2-0.7,6.5-1.1,9.7c-0.2,2.1-0.5,4.1-0.7,6.2
		c-0.2,1.8-0.4,3.7-0.7,5.5c-0.1,0.9-0.2,1.8-0.4,2.6c-0.1,0.3-0.6,0.7-0.8,0.6c-0.3-0.1-0.7-0.6-0.7-0.9c0.1-1.7,0.4-3.3,0.6-5
		c0.2-1.5,0.4-3.1,0.6-4.6c0.2-2.7,0.3-5.4,0.6-8c0.4-3,1-6,1.4-9c0.3-1.8,0.5-3.6,0.7-5.4c0.3-2.3,0.7-4.5,0.9-6.8
		c0.2-2.7,0.1-5.5,0.1-8.2c0-0.4,0-0.8,0.1-1.3c0.1-1.2-0.2-1.5-1.4-1.5c-2.3,0.2-4.5,0.4-6.8,0.5c-4.2,0.2-8.5,0.3-12.7,0.4
		c-1.5,0-2.9,0-4.4,0c-3.2-0.1-6.3-0.5-9.3-1.5c-2.2-0.7-4.4-1.1-6.9-1.8c0.2,1.6,0.3,3,0.5,4.5c0.4,2.5,0.8,5.1,1.4,7.6
		c0.6,2.7,1.4,5.3,1.9,8c0.6,2.7,1,5.5,1.5,8.2c0.4,2,0.7,3.9,1.1,5.9c0.1,0.8,0.3,1.7,0.3,2.6c0,5.4,0,10.7,0,16.1
		c0,0.1,0.1,0.3,0,0.4c-0.2,0.3-0.5,0.6-0.8,0.9c-0.3-0.3-0.6-0.6-0.8-0.9c-0.1-0.1,0-0.4,0-0.6c0-4,0.1-8,0-11.9
		c-0.1-3.2-0.2-6.5-1.1-9.6c-0.6-2.3-0.7-4.8-1.1-7.2c-0.4-2-1-4-1.5-6c-0.7-3.4-1.7-6.7-2-10.2c-0.1-1.6-0.6-3.2-0.8-4.8
		c-0.1-0.9-0.1-1.9-0.2-2.8c0-0.3-0.3-0.7-0.6-0.8c-1-0.4-2-0.7-3-1c-2.6-0.8-3.8-3.4-3-6c0.9-3.1,1.7-6.3,2.3-9.5
		c0.3-1.5,0.1-3.1,0.2-4.6c0.2-2.9,0.5-5.9,0.8-8.8c0-0.2-0.2-0.6-0.4-0.7c-3.6-1.9-5.7-4.9-6.7-8.8c-0.5-1.9-1.5-3.7-1.3-5.7
		c0.2-1.7,0.5-3.5,0.8-5.2c0.2-1.2,0.3-2.2-0.4-3.4c-0.8-1.3-1.3-2.7-1.8-4.1c-1.4-4-2.8-8-4.2-12.1c-1.3-3.6-2.4-7.3-3.8-10.9
		c-1.1-2.9-1.4-6-2.1-8.9c-0.5-2.1-0.9-4.3-1.2-6.5C0,175.9-0.1,173.9,0,172c0.1-1.8,0.4-3.7,0.8-5.5c1-4.6,2.2-9.2,3.2-13.8
		c0.8-3.7,1.5-7.3,2.2-11c1.2-6,2.6-11.9,5.1-17.5c1.4-3.2,2.7-6.6,4.2-9.8c1.4-3.1,3.4-5.8,5.3-8.6c1.9-2.9,3.5-5.9,5.2-8.9
		c2.4-4.2,5.5-7.7,9.9-9.8c2-1,4.4-1.4,6.5-2.1c3.8-1.3,7.6-2.6,11.3-4c2.2-0.8,4.3-1.8,6.5-2.7c-0.4-1.1-0.7-2.3-1.2-3.5
		c-0.7-2-1-4.1-0.9-6.2c0-0.5-0.2-1-0.4-1.4c-0.7-1.4-1.2-2.9-1.2-4.5c0-2.9-0.8-5.5-2.6-7.9c-1-1.3-1.9-2.8-2.3-4.4
		c-0.6-2.3-0.4-4.1,2.5-4.6c-0.7-2.7-0.5-5.4-0.3-8.2c0.2-2.1,0.5-4.3,0.8-6.4c0.6-3.5,1.3-7,2-10.6c0.2-0.9,0.7-1.9,1.1-2.7
		c0.5-1.1,0.9-2.3,1.7-3.3c1.1-1.6,2.4-3,3.7-4.5c1.2-1.5,3-2.1,4.6-3c0.8-0.4,1.5-0.9,2.3-1.3c2.1-1.3,4.4-1.9,6.7-2.2
		c2.1-0.3,4-1.1,6-2C83.7,1,84.8,0.5,86,0C90.5,0,95.1,0,99.6,0z M104.2,69.2c0.2,0.3,0.4,0.6,0.5,0.9c0.4,1.5,0.5,3,1.1,4.4
		c0.5,1.4,1.3,2.8,2.3,3.9c0.9,1,2.4,1.4,3.6,2.1c1.9-2.6,2.6-5.1,2.5-7.9c-0.1-1.8-0.2-3.6-0.2-5.4c0-2.5,0.4-4.9,1.8-7
		c0.4-0.5,0.5-1.2,0.8-1.8c-1.3,0.8-2.4,1.7-3.1,3.1c-1.5,3.2-5.4,3.8-7.6,0.5c-0.5-0.7-1.3-1.6-2.1-1.7c-1.3-0.3-2.7-0.2-4,0.1
		c-1.7,0.3-3.3,1.1-5,1.2c-3.6,0.2-7.2-0.3-10.6-2c-1.3-0.7-3-1-4.4-0.8c-2,0.2-3.9,1-5.8,1.4c-2,0.5-3.9,1.4-6,0.9
		c-0.7-0.2-1.4-0.6-2.1-0.9c0,0.2-0.1,0.4-0.1,0.6c0.2,2.4-0.7,4.5-1.6,6.7c-0.5,1.2-1.3,1.7-2.5,1.7c-0.7,0-1.5-0.1-2.3-0.2
		c0,3.2,1,6,2.2,8.7c0.1,0.2,0.6,0.3,0.8,0.2c0.9-0.3,1.8-0.7,2.6-1.1c3.1-1.7,5.6-3.9,6.5-7.6c0-0.2,0.4-0.4,0.6-0.4
		c0.2,0,0.5,0.3,0.5,0.5c0.1,0.3,0,0.7-0.1,1.1C71.9,73,70.1,75,68,76.6c-1.8,1.4-3.8,2.6-6.1,3c-1.9,0.4-3.8,1.1-5.7,1.8
		c-1.9,0.7-3.8,1.7-5.7,2.4c-3.7,1.3-7.4,2.8-11.2,3.7c-4.1,1-7,3.6-9.6,6.6c-1.4,1.6-2.3,3.6-3.4,5.4c-2.1,3.3-4.1,6.6-6.2,10
		c-1.3,2.1-2.7,4.3-3.7,6.5c-1.2,2.6-2,5.4-3.2,8c-1.8,3.8-3,7.8-3.9,11.9c-0.9,3.8-1.5,7.7-2.3,11.5c-0.7,3.4-1.5,6.8-2.3,10.2
		c-0.8,3.4-1.7,6.8-2.5,10.1c2.1,0,4,0,6,0c0.5,0,1,0,1.5-0.1c0.7-0.2,1.2,0.1,1.3,0.7c0.1,0.7-0.5,1-1.1,1c-1.7,0-3.3,0-5,0
		c-0.8,0-1.5,0-2.3,0c-0.2,0-0.6,0.3-0.6,0.5c-0.1,2.5-0.5,5.1-0.1,7.5c0.7,4.8,1.8,9.5,2.9,14.2c0.5,1.9,1.4,3.7,2.1,5.6
		c1,3,1.9,6.1,3.1,9c1.9,4.8,3.1,9.9,5.7,14.4c0.3,0.6,0.7,0.8,1.3,0.7c1.2-0.3,2.4-0.7,3.6-1c0.6-0.2,1.2-0.3,1.9-0.4
		c0.1,0.1,0.2,0.2,0.3,0.3c-0.2,0.5-0.3,1.2-0.7,1.4c-1.8,0.6-3.4,1.5-5.4,1.4c-0.3,0-0.7,0.2-0.8,0.4c-0.8,2.3-1.4,4.7-0.8,7
		c0.6,2.8,1.4,5.6,3.1,8.1c0.9,1.2,1.8,2.2,3.4,3c0.1-1.1,0-2.1,0.2-3c0.7-3.2,1.5-6.3,2.1-9.5c0.5-2.6,1.5-5.1,1.5-7.8
		c0-1.8,0.4-3.6,0.8-5.3c0.8-2.9,1.7-5.8,2.6-8.8c0.4-1.3,0.7-2.5,0.3-3.9c-0.4-1.7-0.9-3.3-1.2-5c-0.2-1-0.4-2.1-0.5-3.2
		c-0.3-2.5-0.8-4.9-0.9-7.4c-0.1-5.7-0.1-11.3,0-17c0-1.1,0-2.2,0.2-3.2c0.7-3.5,1.6-7,2.3-10.5c0.8-3.6,1.5-7.2,1.4-10.9
		c0-1.8-0.1-3.6-0.2-5.4c-0.1-3.2-0.1-6.5-0.2-9.7c0-1.2-0.2-2.5-0.4-3.7c-0.2-1.7-0.4-3.3-0.6-5c-0.2-1.5-0.4-3.1-0.6-4.6
		c-0.2-1.8-0.5-3.5-0.6-5.3c0-0.3,0.5-0.7,0.7-1.1c0.3,0.3,0.7,0.6,0.8,0.9c0.3,1.4,0.4,2.8,0.6,4.2c0.6,4.1,1.3,8.3,1.8,12.4
		c0.3,3.2,0.3,6.4,0.4,9.6c0.1,3.6,0.1,7.2,0.3,10.7c0.1,1.6,0.4,3.1,0.6,4.7c0.5,2.5,1.2,5,1.5,7.5c0.3,3.6,0.4,7.3,0.4,10.9
		c0,2.3-0.1,4.6-0.3,6.9c-0.2,2.6-0.5,5.2-0.7,7.8c-0.2,1.9-0.5,3.8-0.7,5.7c-0.3,2.3-0.6,4.6-0.9,6.9c0,0.3,0.3,0.8,0.5,0.8
		c1.2,0.1,2.3,0,3.5,0c1.5,0,3-0.2,4.5-0.1c2.9,0.2,5.9,0.7,8.8,0.7c6.1,0.1,12.2,0,18.4,0c2.8,0,5.5,0,8.3-0.1
		c0.3,0,0.7-0.4,0.8-0.6c0.7-3.3,1.3-6.6,2-9.9c0.8-3.6,0.7-7.4,2.1-10.9c0.1-0.3,0.1-0.6,0.1-0.9c0-2.6-0.1-5.2-0.1-7.7
		c0-1.6,0-1.6,1.7-2c0,0.2,0,0.3,0,0.5c0.1,1.8,0.2,3.7,0.2,5.5c0,1.8-0.1,3.6-0.4,5.4c-0.4,2.4-1,4.7-1.4,7.1
		c-0.5,2.7-0.9,5.3-1.4,8c-0.3,1.9-0.7,3.7-1.1,5.6c0.1,0,0.2,0.1,0.3,0.1c3.3,0,6.6-0.1,9.9-0.1c2.4,0,4.7,0.2,7.1,0.3
		c0.8,0,1.4,0.4,2.1-0.6c1.5-2.4,3.2-4.6,4.9-6.9c2.2-2.8,3.9-5.9,5.5-9.1c1.9-4,4-7.9,5.8-11.9c1.2-2.6,2.5-5.3,3.3-8
		c0.8-3,1.2-6.1,1.7-9.1c0.7-4,1.2-8.1,2.2-12.1c1-4,2.4-7.9,3.6-11.8c1.7-5.1,2.8-10.4,5.3-15.3c0.8-1.6,1.7-3.2,3.2-4.4
		c0.2-0.2,0.6-0.3,0.9-0.3c0.1,0,0.3,0.4,0.3,0.6c-0.1,0.4-0.2,0.7-0.4,1.1c-0.4,0.6-0.9,1.1-1.3,1.8c-2.7,4.8-4.2,10-5.4,15.3
		c-0.6,2.7-1.9,5.1-2.2,7.8c0,0.1-0.1,0.1-0.1,0.2c-0.5,1.3-1.1,2.5-1.5,3.8c-0.4,1.5-0.5,3-0.8,4.5c0,0.3,0,0.6-0.2,0.9
		c-1.3,2.9-1.5,5.9-1.9,9c-0.2,1.8-0.3,3.6-0.8,5.4c-0.5,2.2-1.1,4.3-2,6.4c-1.4,3.3-3,6.5-4.6,9.7c-1.7,3.5-3.5,7-5.3,10.5
		c-2.3,4.5-5.6,8.3-8.6,12.4c-1,1.4-1.9,2.9-3,4.4c0.5,0.2,0.8,0.3,1.2,0.4c1.9,0.5,3.8,0.9,5.7,1.6c5.9,2.3,10.6,6.1,13.8,11.6
		c0.1,0.2,0.4,0.4,0.8,0.8c0-1.5,0.1-2.8,0-4c-0.3-3.2,1-5.6,3.2-7.8c2.4-2.3,4.9-4.6,7.2-7.1c1.7-1.8,3.3-3.6,4.4-5.9
		c1.6-3.4,3.4-6.6,4.9-10c1.1-2.5,2-5.1,3-7.7c0.8-1.9,1.7-3.7,2.3-5.6c1.1-3.7,2-7.5,3.1-11.2c0.5-1.8,1.5-3.6,1.5-5.5
		c0.1-9.5,0-19-0.1-28.5c0-2.5-0.1-5.1-0.2-7.6c-0.1-1.6-0.1-3.3-0.2-4.9c-0.1-1.3-0.1-2.6-0.4-3.7c-0.8-2.4-1.6-4.9-2.7-7.2
		c-1.3-2.5-2.9-4.9-4.4-7.3c-0.6-1-1.2-2-2.5-2.4c-0.4-0.1-0.7-0.5-1.1-0.7c-0.8-0.6-1.6-1.2-2.4-1.8c-2.9-1.8-6-3.4-9.4-4.2
		c-1.7-0.4-3.4-1.1-5.1-1.6c-1-0.3-2.1-0.3-3.1-0.8c-3-1.4-6-2.9-9-4.4c-0.8-0.4-1.5-1.1-2-1.8c-1.5-2-2.2-4.4-2.4-6.8
		C103.4,70.8,103.1,69.8,104.2,69.2z M31.6,154.8c-4.1,14.9-4.4,29.6-1.2,44.4c0.3-1.3,0.6-2.5,0.8-3.8c0.4-3.2,0.9-6.4,1.2-9.6
		c0.4-3.4,0.9-6.8,1-10.3c0.1-5.2,0.3-10.4-0.6-15.5C32.4,158.4,32,156.7,31.6,154.8z M58.3,59.5c-0.1,0-0.2,0.1-0.3,0.1
		c0.1,0.8,0.1,1.6,0.2,2.5c0.1,1,0.1,2,0.4,2.9c0.2,0.7,0.8,1.4,1.3,1.9c0.8,0.7,2.3,0.5,2.6-0.3c0.5-1.3,0.9-2.5,1.2-3.8
		c0.2-1,0.2-2,0.2-3c0-0.7,0.1-1.5-0.3-2c-1.7-2.5-2.5-5.7-5.4-7.1c-0.2,1.2-0.4,2.5-0.5,3.8c-0.1,1.4,0,2.6,1.2,3.6
		c0.8,0.7,1.4,1.8,2,2.7c0.4,0.5,0.3,1.2-0.3,1.4c-0.3,0.1-0.8-0.4-1.1-0.7C59.2,61,58.8,60.2,58.3,59.5z M121.1,66.8
		c-0.1-0.1-0.2-0.2-0.3-0.3c-0.3,0.4-0.6,0.9-1,1.2c-0.3,0.2-0.8,0.2-1.2,0.3c0-0.4-0.2-0.9,0-1.2c0.5-0.7,1.1-1.4,1.8-2
		c0.7-0.7,1.1-1.3,1-2.4c-0.2-2.7-0.1-5.5,0.8-8.2c-0.2,0.1-0.3,0.1-0.4,0.2c-2.4,2.5-3.8,5.6-5.4,8.5c0,0,0,0.1,0,0.1
		c-0.7,2.6-0.7,5.2-0.6,7.8c0,0.2,0.2,0.5,0.3,0.6c1.1,0.6,2.8,0.2,3.4-0.9C120.1,69.2,120.5,68,121.1,66.8z M75.6,238.9
		c-0.1,0-0.2,0-0.2,0c-0.1-1.5-0.1-3.1-0.2-4.6c-0.1-1.1-0.2-2.1-0.4-3.2c-0.1-0.3-0.6-0.6-0.9-0.6c-0.2,0-0.5,0.5-0.6,0.8
		c-0.1,0.2,0,0.4,0,0.6c0.1,3.3,0.1,6.7,0.2,10c0,0.9-0.2,1.7-0.3,2.6c-0.2,1.5-0.5,3-0.6,4.6c-0.1,0.6,0.3,1.2,1,1.2
		c0.7,0,1-0.4,1.1-1.1C74.8,245.7,75.2,242.3,75.6,238.9z M56.1,55c0.3-0.3,0.3-0.4,0.4-0.4c0.2-2,0.4-3.9,0.6-5.9
		c0-0.3-0.3-0.7-0.5-0.9c-0.6-0.6-2.5-0.4-3.1,0.2c-0.2,0.2-0.3,0.6-0.3,0.8c0.1,0.7,0.3,1.3,0.6,1.9C54.4,52.1,55.2,53.5,56.1,55z
		 M123,62.4c0.1,0,0.2,0.1,0.3,0.1c0.4-1.1,1-2.3,1.3-3.4c0.3-1.4,0.6-2.8,1.4-4.1c0.3-0.4,0.5-0.9,0.6-1.4c0.2-0.6,0.2-1.2-0.4-1.5
		c-0.6-0.2-1.3-0.4-1.7,0.5c-0.2,0.5-0.5,0.9-0.6,1.4C122.8,56.7,122.9,59.5,123,62.4z"/>
	<path class="st0" d="M99,102.2c-0.4,11.5,7.2,16.1,14.6,17.8c-0.4,1.9-0.5,2.1-2.2,1.3c-2.8-1.3-5.6-2.8-8.3-4.2
		c-0.4-0.2-0.6-0.6-0.9-1c-1.6-2.2-3.3-4.4-4.1-7.1c-0.4-1.6-0.9-3.3-0.6-5c0.1-0.7,0.8-1.3,1.2-2C98.8,102.1,98.9,102.2,99,102.2z"
		/>
	<path class="st0" d="M60.2,106.3c0.5,0.2,0.9,0.4,1.4,0.5c-1,8.2-4.4,14.8-12.3,18.5c0,0-0.1-0.2-0.2-0.3c-0.5-0.8-0.5-1.3,0.4-1.9
		c1.9-1.2,3.6-2.6,5.3-4c2-1.7,3-4.1,3.7-6.6C59,110.4,59.6,108.4,60.2,106.3z"/>
</g>
</svg>
