<?xml version="1.0" encoding="utf-8"?>
<!-- Generator: Adobe Illustrator 18.1.1, SVG Export Plug-In . SVG Version: 6.00 Build 0)  -->
<!DOCTYPE svg PUBLIC "-//W3C//DTD SVG 1.1//EN" "http://www.w3.org/Graphics/SVG/1.1/DTD/svg11.dtd">
<svg version="1.1" id="Layer_1" xmlns="http://www.w3.org/2000/svg" xmlns:xlink="http://www.w3.org/1999/xlink" x="0px" y="0px"
	 viewBox="0 0 100 246.2" style="enable-background:new 0 0 100 246.2;" xml:space="preserve">
<style type="text/css">
	.st0{fill:#FF5722;}
</style>
<g id="pinworm-girl">
	<path class="st0" d="M10,246.2c0.2-8.8,0.7-17.5,0.4-26.3c-0.5-11.9-1.2-23.8-2.8-35.5c-0.5-3.8-0.5-6.8,1.4-10
		c0.3-0.4,0.4-1.2,0.2-1.7c-1.4-3.1-1.1-6.2,0.2-9.1c2.2-4.9,1.2-9.4-0.9-14c-2.1-4.3-4.3-8.5-6.1-12.9c-1.1-2.9-1.9-6-2-9
		c-0.2-9.9-0.6-19.8,0.1-29.7c0.6-9.1,3.2-17.8,10.5-24.2c3-2.6,6.3-4.5,10.5-4.4c5.9,0.1,10.5-3,14.4-7c-5.5-4.5-11-9-16.6-13.6
		c-0.9,3.6-1.6,7.8-3,11.7c-0.6,1.7-2.2,3.7-3.8,4.4C9.9,66,8,63.5,8.5,60.5c0.4-2.2,1-4.5,0.9-6.6c-0.2-2-0.8-4.3-2-6
		c-2-3-3.4-6-3.2-9.6c0.2-3.5,0.3-7.1,0.6-10.6c0.1-0.8,0.4-2,1-2.3c2.1-1.1,4.5-1.7,6.6-2.9c2.7-1.5,4.6-0.1,7.2,1.8
		c1.5-3.4,3.3-6.4,4.2-9.8c1.4-5.6,4.5-9.8,9.5-12c4.5-2,9.3-3.5,14.5-1.9c2,0.6,4.2,0.6,6.3,0.9c6,0.9,11.3,3.7,15.6,7.6
		c5.9,5.3,9.4,12.2,9.8,20.3c0.3,6.6,0.5,13.1,0.9,19.7c0.5,7.5-3,12.7-9.4,16.3c-0.7,0.4-1.6,1.5-1.5,2.1c0.1,0.6,1.2,1.4,2,1.6
		c5.4,1.7,10.9,3.2,16.3,5c5.8,1.9,9.5,6,10.9,11.8c0.8,3.3,0.9,6.9,1.2,10.3c0.1,1.3,0,2.6-0.4,3.9c-3.4,10.5-3.1,21.4-4,32.1
		c-0.3,3.4-0.7,6.9-1.6,10.2c-2.1,7.9-4.6,15.7-6.6,23.6c-0.8,3-1.1,6.2-0.7,9.2c0.4,3.3,2.5,5.9,5.7,7.2c1.8,0.8,3.1,2.3,2.2,4
		c-0.5,1-2.6,1.8-3.8,1.7c-2.4-0.2-4.6-1.2-7.3-2c0.2,1.7,0.5,3.3,0.6,4.9c1,8.6,0.3,17.1-0.5,25.7c-0.9,9.7-0.7,19.6-1.1,29.4
		c-0.9,0-1.7,0-2.6,0c0.1-8.2,0-16.5,0.3-24.7c0.4-8.6,1.3-17.1,1.7-25.7c0.2-3.1-0.4-6.2-0.7-9.3c-1,0.5-1.4,1-1.8,1.5
		c-1.6,1.9-3,4-4.7,5.6c-4.7,4.5-11,6-16.7,8.6c-2.5,1.2-5.1,2.1-7.7,3.2c-2.7,1.2-2.9,2-2,4.9c0.7,2.1,1.4,4.3,1.7,6.5
		c0.4,2.8,0.5,5.7,0.7,8.5c0.6,6.9,1.2,13.8,1.8,20.7c-1,0-2.1,0-3.1,0c0.5-9.8-1.8-19.4-2.9-29.1c-2.3,9.6-3,19.3-2.9,29.1
		c-1.4,0-2.8,0-4.2,0c0.4-4.5,0.7-9,1.3-13.5c1-7,2.2-14,3.2-21.1c0.1-0.8-0.5-2.1-1.1-2.5c-5.5-2.9-10.9-5.9-16.6-8.3
		c-6-2.5-11.9-4.9-14.2-11.9c-0.3-0.9-1.1-1.7-1.6-2.6c2.9,19.9,2.5,39.8,2.9,59.7C12.5,246.2,11.3,246.2,10,246.2z M83.7,87
		c0.3,0.1,0.6,0.2,0.8,0.3c-0.1,0.6,0,1.3-0.2,1.9c-1.2,2.8-2.4,5.6-3.6,8.3c-1.5,3.2-3.6,6.3-4.3,9.7c-1.4,7-2.3,14.2-2.9,21.3
		c-0.9,9.9-1.2,19.9-2,29.8c-0.2,2.9-0.5,5.2,2.9,6.3c0.5,0.2,0.8,1.1,1.3,1.6c-0.7-0.1-1.6,0.1-2-0.2c-2.1-2-3.7-0.9-5.3,0.7
		c-1.2,1.2-2.5,2.5-3.3,4c-1.4,2.7-3.5,4.1-6.3,5c-0.6,0.2-1.1,1-1.6,1.5c0.7,0.4,1.4,1,2.1,1.1c1.8,0.2,3.7,0.1,5.6,0.1
		c0.1,0.3,0.1,0.6,0.2,0.9c-1.1,0.5-2.3,0.7-3.2,1.4c-1.2,0.9-3.3,2.8-3.1,3.1c1.1,2,3.1,1.2,4.8,0.7c1.2-0.3,2.5-0.7,3.7-1
		c0.1,0.3,0.2,0.5,0.3,0.8c-1.6,1.6-3.5,2.4-5.8,2.6c-0.7,0.1-1.4,0.8-2.2,1.3c0.6,0.6,1.3,1.6,1.9,1.6c2.2-0.1,4.4-0.5,6.5-1
		c1.2-0.3,2.2-0.9,3.4-1.4c0.2,0.2,0.3,0.4,0.5,0.7c-0.4,0.5-0.8,1.1-1.3,1.5c-2.3,1.7-4.7,3.4-7.1,5c-1.2,0.8-2.7,1.9-1.5,3.2
		c0.7,0.7,2.9,0.5,4.2,0c1.8-0.7,3.4-2.1,4.9-3.3c2.8-2.3,6-4,7.2-7.9c0.7-2.5,2.5-4.7,4.1-7.5c0.6,2.8,1,5.1,3.6,6.2
		c2.3,1,4.4,1.7,7.5,0.5c-1.2-0.9-2-1.6-2.9-2.1c-4.5-2.6-8-9.9-6.7-15c2-7.7,4.2-15.4,6.3-23.1c0.9-3.3,2.2-6.7,2.5-10.1
		c1.1-12,1.1-24,4-35.9c0.9-3.5,0.1-7.4-0.1-11.1c-0.4-6.4-3.4-10.2-9.5-12.1c-4.8-1.5-9.6-3.1-14.4-4.4c-5.8-1.5-10.3-4.7-13.6-9.6
		c-0.5-0.7-1.6-1.6-2.4-1.5c-5,0-10,0.2-15,0.5c-0.9,0.1-2.1,0.6-2.7,1.3c-4.5,5-9.8,8.1-16.6,9.2c-7,1.1-13.1,4.4-15.7,11.4
		c-2,5.2-3.2,10.8-3.9,16.3c-0.7,5.9-0.6,12-0.4,18c0.1,5.1,0.2,10.3,1.5,15.2c2,7.1,5,13.8,7.7,20.7c0.6,1.6,1.7,3,2.7,4.4
		c2.8,3.6,2.7,7,0.1,10.8c-2.3,3.4-4.3,7.1-6.2,10.7c-0.4,0.8-0.1,1.9-0.1,2.9c1.4-0.8,2.1-1.7,2.9-2.6c0.8-0.9,1.7-1.7,2.6-2.6
		c2.9-2.6,3-2.6,4.6,1c0.4,0.9,0.6,2,1.2,2.9c1.4,2.4,2.9,4.7,4.5,6.9c1.2,1.6,2.9,1.8,5.6,0.9c-2.6-2.6-4.8-4.8-7.4-7.4
		c4.8,0.4,5.6,5.1,8.7,6.9c0.9-0.6,1.7-1.2,2.5-1.7c-1.6-2-3.1-3.9-4.6-5.8c0.2-0.2,0.4-0.4,0.7-0.6c0.9,0.9,1.8,1.6,2.5,2.6
		c2.2,2.9,2.7,3,5.2,0.3c-4.7-5.6-4.7-5.6-4-7.1c0.8,3,2.6,4.8,6.4,5.7c-0.5-2-0.6-3.5-1.2-4.9c-0.7-1.7-2-3.1-2.6-4.8
		c-1.5-3.8-2.6-7.8-6.7-9.9c-0.9,0.8-2,1.7-3,2.6c-0.2-0.2-0.5-0.5-0.7-0.7c0.5-0.7,1-1.3,1.3-2c0.5-1.3,1.3-2.7,1.3-4
		c-0.1-2.1-0.7-4.3-1.1-6.4c-1.6-8.7-3.3-17.4-4.9-26c-0.3-1.5-0.1-3.1-0.1-4.6c0.4-7.8,0.4-15.5-3.2-22.7c-1.7-3.4-3.7-6.6-5.5-10
		c-0.3-0.6-0.2-1.4-0.3-2.1c0.7,0.3,1.6,0.4,2.1,0.9c0.8,0.9,1.4,2,2,3c5.2,9,8.7,18.3,6.8,29c-0.4,2.3-0.2,4.9,0.2,7.2
		c1.4,8.1,2.9,16.2,4.7,24.2c1.1,4.7,1.3,4.6,6.1,5c1.6,0.1,3.3,0.7,4.9,0.7c5.4-0.1,10.9-0.2,16.3-0.6c4.7-0.4,9.3-0.9,13.8,0.8
		c0.2-2.5,0.6-4.8,0.7-7.2c0.6-9.6,1-19.3,1.8-28.9c0.5-5.3,1.2-10.7,2.8-15.8c1.6-5.1,4.5-9.7,6.9-14.5
		C82.6,88.4,83.2,87.7,83.7,87z M59.3,180.3c0-0.4-0.1-0.7-0.1-1.1c-2.9,0-5.7,0-8.6,0c-2,0-4,0.2-6,0.2c-0.5,0-0.9-0.8-1.4-1.2
		c0.5-0.3,0.9-0.8,1.4-0.8c1.2-0.1,2.5-0.2,3.6,0c5.3,0.8,9.3-2.3,13.3-4.7c1.6-1,2.3-3.5,3.8-4.8c3.1-2.5,3.5-5.7,3.4-9
		c-12.7-0.3-25.4-0.6-38.5-1c0.7,1.3,1.2,2.4,1.7,3.4c1.5,2.7,3,5.4,4.5,8.2c1.1,2,2.1,4.1,3.4,6.1c1.7,2.7,1.6,5.1-0.7,7.4
		c-1.7,1.8-3.3,3.7-5.3,5.2c-1.5,1.2-3.3,2.2-5.2,2.6c-3.6,0.8-6-1.4-7.6-4.2c-1.8-3.1-3.4-6.4-5.3-9.8c-1.6,1.8-3.1,3.4-4.4,4.7
		c0.7,1.5,1.3,2.4,1.7,3.5c2.2,6.5,7,10.4,13.2,12.7c4.4,1.6,8.8,3.2,13.2,4.8c0.7,0.3,1.4,0.4,2.3,0.6c0.8-2.9,1-5.5-0.8-7.9
		c-1.1-1.5-0.9-2.8,1-4.4c1.4,3.3,2.7,6.4,4.2,9.9c1.6-3.2,3.1-6.2,4.5-9.2c0.3,0.1,0.6,0.3,0.9,0.4c0,3.8-1,7.3-3.9,10.3
		c0.8,0.1,1.3-0.1,1.8-0.3c1.9-0.8,3.8-1.7,5.7-2.4c2.2-0.9,4.9-0.9,5.1-4.2c0-0.5,0.9-1,1.4-1.5c0.7-0.7,1.5-1.3,2.2-1.9
		c-1.3-0.6-2.5-0.4-3.5-0.7c-0.9-0.2-2.3-0.8-2.4-1.5c-0.4-2-0.1-4-1.6-5.7c-0.2-0.3,0.5-1.5,1-2.2C58,181.1,58.7,180.8,59.3,180.3z
		 M79,49.4c-0.1-1.7-0.1-3.5-0.4-5.2c-0.1-0.9-0.7-1.7-1.1-2.6c-0.8,0.7-2,1.2-2.4,2.1c-2.6,6-6.4,11-11.4,15.2
		c-1.2,1-2.3,1.9-1.2,3.7c1.7,2.6,3.8,3.9,5.6,3.2C75.1,63.1,79.2,56.8,79,49.4z M35.4,10c-2.3,0.5-3.8,2-3.9,4
		c-0.1,1.4,0.5,3.4,1.5,4.3c3.4,2.8,3.6,3.6,1.9,7.8c-1,2.6-1.4,5.5-1.8,8.3C33,35,33.7,35.9,34,36.7c0.3-0.1,0.5-0.2,0.8-0.3
		c0-0.6-0.1-1.1,0-1.7c0.5-2.7,0.5-5.7,1.8-8c2.1-3.6,1.9-6.7-0.6-9.6C34,14.8,33.7,12.7,35.4,10z M60.6,23.2
		c0.2-1.4,0.3-2.4,0.5-3.3c0.4-1.6,1.5-2.5,3.3-2.2c1.7,0.3,2.3,1.4,2.2,3c-0.1,0.9-0.4,1.9-0.4,2.8c0,0.6,0.2,1.2,0.3,1.8
		c0.6-0.3,1.5-0.5,1.9-1c1.9-2.5,0.5-8.4-2.3-9.8c-0.8-0.4-1.9-0.7-2.8-0.5C59,15,57.8,19,60.6,23.2z M11.6,32.1
		c2.6,3.4,4.8,6.4,7.1,9.5c-0.2-2.8-0.4-5.7-0.6-8.4C16.1,32.9,14.2,32.5,11.6,32.1z M18.4,27.8c0-0.4,0-0.8,0-1.2
		c-1.1-0.7-2-1.9-3.2-2.1c-1.6-0.4-2.8,1-2.4,2.4c0.3,1.2,1.5,2.7,2.5,2.9C16.1,30.1,17.3,28.6,18.4,27.8z M12.1,168.8
		c3.4-3.2,3.9-5.2,2-7.4C11.8,163.3,10.8,166.6,12.1,168.8z"/>
</g>
</svg>
