<?xml version="1.0" encoding="utf-8"?>
<!-- Generator: Adobe Illustrator 18.1.1, SVG Export Plug-In . SVG Version: 6.00 Build 0)  -->
<!DOCTYPE svg PUBLIC "-//W3C//DTD SVG 1.1//EN" "http://www.w3.org/Graphics/SVG/1.1/DTD/svg11.dtd">
<svg version="1.1" id="Layer_1" xmlns="http://www.w3.org/2000/svg" xmlns:xlink="http://www.w3.org/1999/xlink" x="0px" y="0px"
	 viewBox="0 0 100 280.4" style="enable-background:new 0 0 100 280.4;" xml:space="preserve">
<style type="text/css">
	.st0{fill:#E91E63;}
</style>
<g id="uti-girl">
	<path class="st0" d="M33.7,280.4c-0.4-3.9-0.8-7.9-1.2-11.8c-0.2-2.2-0.8-4.3-0.9-6.5c-0.1-1.7-0.9-2.9-2.2-3.7
		c-2.7-1.7-3.7-3.8-3.3-7.2c0.7-7.6-1.4-15-2.5-22.4c-0.7-4.8-1.4-9.7-1.6-14.6c-0.2-7.7,0-15.3,0-23c0-4,0.1-8.1-0.3-12.1
		c-0.1-1.7-1.1-3.4-1.8-5c-2.3-5.2-4.9-10.3-6.1-15.9c-1.6-7.3-3.3-14.5-4.9-21.7c-0.3-1.6-0.4-3.2-0.4-4.8c0.1-1.5-0.6-2.4-1.9-3
		c-1.2-0.5-2.4-1.2-3.7-1.5c-1.1-0.3-1.2-0.9-1.2-1.7c-0.1-3-0.2-6-0.3-9c-0.1-2.5-0.2-5-0.4-7.4c-0.3-3.8-0.6-7.5-1-11.3
		c-0.5-4.3,1.5-7.7,3.7-11c0.5-0.7,1.6-1,2.5-1.5c6.3-3.4,12.6-6.9,18.9-10.3c0.9-0.5,2-0.9,3.2-1.4c-0.7-1-1.1-1.9-1.8-2.6
		c-5.3-5.8-9-12.5-10.7-20.2c-0.8-3.5-1.7-6.9-2.4-10.4c-1.3-6.1-0.6-12.1,1.3-18.1c1.9-6,5.2-11.1,9.7-15.3c3.2-2.9,7-4.9,11.4-5.7
		c5.3-1,10.7-1.4,16-1.2c4.7,0.2,8.4,2.5,10.9,6.8c1.2,2.1,3.1,3.7,4.8,5.7c2.2-4.7,5.6-6.8,10.1-6.2c1.9,0.2,3.9,1.2,5.6,2.8
		c3.4,3.2,5.3,7,6.3,11.3c1.2,5.1,2.3,10.3,1.4,15.5c-0.7,4-3.2,7.2-6.2,9.9c-0.9,0.8-1.9,1.4-2.7,2.2c-2.2,2.1-4.6,2-6.9,1.2
		c-1,2-1.9,4.1-3,6c-1.3,2.1-3.5,2.6-6.1,2.4c-0.1,0.7-0.1,1.3-0.2,2c-0.2,2.1-0.3,4.1-0.5,6.2c-0.1,1.1-0.1,1.8,1.2,2.2
		c3.2,1,6,2.9,8.4,5.3c2.7,2.7,5.3,5.5,7.9,8.4c3.3,3.8,6.6,7.6,9.7,11.6c4.3,5.6,6,11.9,4.6,19.1c-0.9,5-0.9,10.2-0.9,15.3
		c0,2.5,1.3,5,1.6,7.5c0.6,4.4,0.9,8.8,1.2,13.2c0.2,3.2,0.3,6.4,0.2,9.5c-0.3,4.6-0.6,9.3-1.4,13.9c-0.4,2.1-0.3,3.9,0.1,5.8
		c0.5,2.1,0.6,4.2,0.6,6.3c0,7.6-0.3,15.1-0.1,22.7c0.2,8.6,0.7,17.2,1.1,25.7c0.2,4.8,0.5,9.6,0.6,14.3c0,1-0.7,2.1-1.3,3
		c-1.2,1.5-2.4,3.1-3.9,4.3c-1.7,1.3-3.6,2.3-5.5,3.1c-1.4,0.6-2,1.3-2,2.9c0.2,6.8,0.3,13.6,0.4,20.4c-0.5,0-0.9,0-1.4,0
		c0.1-7.2,0.1-14.3-0.7-21.5c-4,1.3-7.8,1.4-11.7,1.2c-3.2-0.1-6.3-0.4-9.5-0.3c-5.6,0.2-5.7,0.3-5.6,6c0,4.9,0.1,9.8,0.1,14.7
		c-1,0-2.1,0-3.1,0c0.3-5.6,0.5-11.3,0.8-16.9c0.1-1.3-0.4-1.7-1.7-1.8c-6.8-0.2-13.6-0.1-20.3-1.6c-1.5-0.3-2,0.2-1.8,1.7
		c0.9,6.2,1.9,12.4,2.8,18.6C35,280.4,34.4,280.4,33.7,280.4z M53,191.2c0.2,0.1,0.4,0.1,0.6,0.2c0.3-0.5,0.6-0.9,0.9-1.4
		c2.5-4.6,4.8-9.3,7.5-13.8c2.8-4.8,5.7-9.4,7.7-14.6c1.5-3.7,3-7.3,2.1-11.5c-0.5-2.2-0.6-4.5-0.8-6.7c-0.8-9.1-1.8-18.2-3.7-27.2
		c-0.5-2.3-0.8-4.8-0.6-7.2c0.3-3.9,1.5-7.7,3.5-11.2c1.5-2.6,3.5-4.4,5.8-6c0.4-0.3,1-0.1,1.5-0.1c0,0.2,0.1,0.3,0.1,0.5
		c-0.7,0.7-1.3,1.5-2.1,2c-1.9,1-3.1,2.6-3.8,4.5c-0.9,2.3-1.8,4.6-2.3,7c-0.5,2.6-1,5.4-0.7,8c0.6,5.1,1.7,10.1,2.5,15.1
		c0.3,1.6,1.1,2.1,2.6,2.2c6.5,0.2,12.7-1,18.7-3.6c0.6-0.3,1.4-1.2,1.4-1.9c0.6-5.4,1-10.9,1.5-16.3c0.3-3.4,0.3-6.8-1.7-9.7
		c-3.4-4.8-6.9-9.6-10.5-14.3c-2.2-2.9-4.6-5.7-7-8.5c-1.3-1.4-2.8-2.6-4.2-3.9c-1.1,2.7-2,5-3.1,7.3c-0.4,1-1.1,1.9-1.6,2.8
		c-1,1.9-1.6,4-2.8,5.7c-2.2,2.9-3.3,6.3-4.6,9.5c-0.8,2.1-1.8,4.1-3,6c-2.4,3.8-5.3,7.3-7.6,11.1c-2.4,4.1-5.6,7-9.8,9.1
		c-3.4,1.7-6.5,1.4-9.8,0c-0.6-0.3-1.2-0.5-2.3-1c2.4,5.2,4.6,9.9,6.7,14.6c0.2,0.4,0.1,1,0.2,1.5c-0.5-0.2-1.3-0.3-1.5-0.7
		c-0.7-1.4-1.3-3-1.9-4.4c-1.4-3-2.5-6.3-4.4-8.9c-4-5.5-6.1-11.4-5.9-18.2c0.1-3-0.3-6-0.9-8.9c-0.8-4.1-2.1-8.1-1.6-12.3
		c0.2-1.8,0.8-3.6,1.2-5.5c-0.4,0.1-0.7,0.2-1,0.4c-3.4,2-6.8,4.1-10.2,6.1c-3.9,2.2-5.5,5.7-5.5,10c0,3.2,0.1,6.4,0.2,9.6
		c0,1.1,0.1,2.2,0.2,3.3c0.3,4.7,0.6,9.3,0.8,14c0,1.1,0.3,1.8,1.4,2.3c2.4,1,4.7,2.1,7.2,3c0.8,0.3,1.8,0.2,3.1,0.4
		c-3.1-6.7-6-13-8.8-19.2c-0.2-0.5-0.6-1-0.7-1.6c-0.1-0.4,0.3-0.8,0.4-1.2c0.3,0.2,0.8,0.4,1,0.7c1,1.9,2,3.8,2.9,5.7
		c2.1,4.6,3.9,9.2,6.2,13.7c3,6.1,6,12.3,8.1,18.8c0.9,2.7,2.1,5.3,3.2,8c0.9,2.3,1.5,4.9,2.9,7c2.6,4,5.7,7.8,8.6,11.7
		c1,1.4,2.4,2.5,3.3,4c1.9,3,3.6,6.1,5.4,9.2c1,1.7,2.2,3.4,3.3,5.2c0.4-0.5,0.4-1,0.4-1.4c-0.1-8-0.2-16-0.3-24
		c0-1.7,0.1-3.3,0.4-5c0.7-5.4,1.6-10.7,2.3-16.1c0.5-3.8,0.5-7.6,1.1-11.4c1.3-7.4,2.8-14.8,4.3-22.2c0-0.2,0-0.5,0.2-0.7
		c0.3-0.3,0.7-0.4,1-0.7c0.2,0.3,0.5,0.7,0.4,1c-0.2,1.7-0.5,3.3-0.8,5c-1.3,6.3-2.6,12.6-3.8,19c-0.1,0.4,0,0.8-0.1,1.2
		c-0.4,4-0.8,7.9-1.3,11.9c-0.7,5.4-2,10.7-2.2,16.1C52.5,173.1,52.9,182.2,53,191.2z M64.5,44.5c-0.2,0-0.4,0-0.6-0.1
		c-0.3-0.5-0.5-1.1-0.8-1.6c-0.8-1.4-1.6-2.9-2.6-4.2c-2.6-3.3-6.2-4.7-10.4-4.4c-4.5,0.3-8.6-0.6-12-3.7c-1.7-1.6-3.3-3.3-5-5
		c-0.5-0.5-1.1-1.1-1.6-1.1c-1.5,0.1-3.1,0.1-4.4,0.8c-4.1,2.2-7,5.8-8.6,10c-1.5,3.9-1.9,8.1-0.9,12.3c0.5,2,1,4.1,1.2,6.2
		c0.3,3.8,1.9,7.1,3.7,10.4c1.3,2.6,3,4.7,5.1,6.6c0.5,0.5,1.1,1,1.5,1.7c2.2,3.1,4.3,6.2,6.5,9.3c2,2.7,7.6,4.3,10.7,3
		c3.5-1.5,6.4-3.7,8.7-6.9c2.1-2.9,4.4-5.6,6.5-8.5c1-1.4,1.8-3.1,2.1-4.8c0.4-2.2,0.3-4.6,0.4-6.9c0.1-2,0.6-2.2,2.6-2.1
		c1.2,0.1,2.8-0.2,3.6-1c1.4-1.5,2.9-3.2,2.6-5.6c-0.1-0.4,0-0.9,0.1-1.4c0.8-2.3,0.8-4.6-0.1-6.9c-0.5-1.5-1.1-1.8-2.3-0.6
		c-3,2.9-4,6.4-3.1,10.9c1.2-1.3,2.8-2.2,3-3.3c0.2-1.2-1-2.6-1.6-4.1c1.7-0.1,2.1,1.3,2.7,2.4c0.7,1.3,0.6,2.7-0.5,3.8
		c-1.1,1-2.3,1.9-3.5,2.7c-0.6,0.4-1.6,0.9-1.7-0.3c-0.2-2-0.2-4,0.2-6c0.7-3.5,2.5-6.5,5.9-8.5c-0.5-0.3-0.9-0.6-1.1-0.6
		c-1.6,0.8-3.5,1.1-4.3,3.2C66.1,41.9,65.2,43.2,64.5,44.5z M79.8,214.9c-5.9-3.1-11.7-6.2-17.6-9.3c-2.1-1.1-3.9-2.3-5-4.6
		c-0.7-1.3-1.6-2.6-2.6-3.6c-4.6-4.7-8.2-10-11.3-15.8c-1.2-2.3-2.6-4.5-4.4-6.4c-4.8-5.1-8.9-10.7-11.5-17.3
		c-2.7-6.8-5.2-13.6-7.9-20.4c-0.6-1.6-1.3-3.2-2.1-4.7c-0.3-0.5-0.9-1-1.4-1.1c-1.8-0.4-3.7-0.5-5.9-0.8c0.2,1.2,0.2,2.2,0.5,3.3
		c1,4.2,2.1,8.4,3,12.6c1.1,4.9,2,9.9,3.1,14.8c1.3,5.4,3.8,10.2,7.3,14.6c1.6,2,3,4.2,4.5,6.3c2.1,3,4.1,6,6.1,9
		c3.4,5,6.8,10,10.1,15c1.4,2.2,1.7,4.7,1,7.3c-0.3,1.1-0.5,2.4-0.2,3.4c1,3.2,2.3,6.3,3.6,9.4c0.4,0.8,1.2,1.5,2,2.4
		c0.1-1.4,0.1-2.3,0.2-3.3c0.2,0,0.5,0,0.7,0c0.2,1.9,0.1,3.8,0.7,5.6c0.6,1.7,1.8,3.2,2.7,4.7c0.1-0.1,0.2-0.1,0.3-0.2
		c-0.1-2.9-0.3-5.8-0.4-8.7c0.3,0,0.6,0,0.9-0.1c0.2,2.5,0.5,5,0.6,7.5c0.1,4.3,0.4,5.6,2,7.3c0.2-2.4,0.3-4.8,0.6-7.2
		c0.3-2.3,0.7-4.6,1-7c0.3,0,0.5,0.1,0.8,0.1c-0.4,3.6-0.8,7.3-1.3,10.9c0.2,0,0.3,0.1,0.5,0.1c0.4-1,0.9-2,1.3-3.1
		c1.7-4.3,3.4-8.6,5.1-13c0.9-2.2,2.1-4.5-0.5-6.5c-0.3-0.2-0.3-0.9-0.5-1.4c0.4-0.1,0.5-0.1,0.6-0.1c0.1,0,0.2,0,0.3,0.1
		c1.5,1.5,3.2,2.1,5.3,2.2c1.3,0,2.6,0.8,3.9,1.2c1,0.3,2.1,0.7,3.1,1c0.1-0.1,0.2-0.2,0.3-0.3C78.2,217.5,78.5,216.1,79.8,214.9z
		 M23.9,178.5c0,4.2,0.1,8,0,11.9c-0.3,7.8-0.6,15.6,0.3,23.3c0.8,6.5,1.2,13,2.2,19.4c0.9,5.5,2,10.9,1.6,16.5
		c-0.2,3.2,1.7,5.3,3.5,7.4c0.6,0.7,1.7,1.3,2.6,1.5c2,0.4,4,0.7,6,0.8c5.3,0.2,10.7,0.3,16.1,0.4c1.1,0,1.2-0.8,1.3-1.7
		c0.1-2.9,0.9-5.8-0.6-8.7c-0.3-0.5-0.4-1.2-0.2-1.7c0.9-2.1-0.2-4-0.6-6c-0.8-3.8-3.1-6.2-6.7-7.6c-2.1-0.8-4.3-1.8-6.3-2.9
		c-3.3-1.9-6.1-4.4-8-7.7c-0.4-0.7-0.7-1.6-1-2.4c-0.1-0.2,0.4-0.6,0.6-0.9c0.2,0.2,0.6,0.4,0.7,0.7c0.5,0.9,0.9,2,1.5,2.9
		c3.1,4.5,7.7,6.8,12.6,8.8c0.3,0.1,0.6,0.1,1.1,0.1c-3.7-6.2-6.7-12.5-11.2-17.9c-1.5-1.7-1.5-2.5-0.5-4.8c0.8-1.9,2.6-3.6,1.8-5.9
		c-0.5-1.5-1.4-3-2.4-4.3c-4.6-6.3-9.2-12.7-13.1-19.5C24.9,179.7,24.4,179.2,23.9,178.5z M93.8,128.6c-0.9,0.3-1.6,0.5-2.3,0.7
		c-1.9,0.6-3.7,1.6-5.6,1.9c-4,0.6-8.1,0.8-12.2,1.2c-0.8,0.1-1.8-0.3-1.7,1.1c0.4,5.3,0.4,10.6,1.3,15.8c0.6,3.7,0.6,7-1,10.4
		c-4.4,9.8-9.6,19.2-15.1,28.5c-1,1.6-1.7,3.4-2.5,5.1c-0.5,1-0.2,1.7,0.5,2.5c1.1,1.2,2.2,2.4,3,3.8c1.2,2.3,3.1,3.8,5.3,5
		c1.3,0.7,2.6,1.4,3.8,2c0.1-0.1,0.3-0.2,0.4-0.3c-0.3-1.8-0.7-3.6-1-5.3c-1.7-0.3-3.1,1.1-4.5-0.6c0.9-0.4,1.6-0.6,2.3-1.1
		c0.8-0.5,1.8-1.1,2.4-1.8c2.4-3.1,4.9-6.1,7.1-9.3c3.2-4.6,6.2-9.3,9.3-13.9c5-7.5,8-15.7,8.8-24.8c0.4-4.1,1.2-8.2,1.5-12.3
		C94,134.4,93.8,131.6,93.8,128.6z M96.2,135.5c-0.2,0-0.4,0-0.7,0c-0.1,0.3-0.2,0.6-0.2,0.9c-0.5,4.5-0.9,9-1.7,13.4
		c-0.9,5-1.5,10.2-3.3,15C87,173.6,81,180.7,76,188.4c-1.9,2.8-4,5.5-6.1,8.1c-1.3,1.6-1.3,3.4-1,5.3c0.2,1.4,0.5,2.8,0.6,4.3
		c0.1,1.3,0.5,2.1,1.7,2.7c3.9,1.8,7.7,3.8,11.7,5.6c1.5,0.7,1.7,1.7,1.3,3.1c-0.7,2.7-4.3,4.4-7.2,3.3c-1.1-0.4-2.2-1-3.3-1.5
		c-2.4-0.9-3.5-0.4-4.1,1.9c-0.1,0.4-0.2,0.8-0.4,1.1c-2.8,4.3-3.8,9.3-5.7,14c-0.2,0.4-0.2,0.9-0.3,1.4c0.1,0.1,0.3,0.2,0.4,0.4
		c1.8-0.9,3.7-1.8,5.5-2.7c4.5-2.5,9.1-4.9,12.8-8.7c5.5-5.8,11.1-11.5,13.2-19.5c0.1-0.5,0.6-1,0.8-1.5c0.3-0.6,0.6-1.3,0.6-1.9
		c0.1-7.6,0.2-15.2,0.2-22.8c0-1.4-0.6-2.8-0.8-3.7c-3.1,2.9-6.2,5.7-9.3,8.5c-0.9,0.8-1.9,1.5-2.7,2.4c-0.6,0.7-1,1.5-1.9,0.7
		c-0.9-0.7-0.4-1.6,0.3-2.2c0.3-0.3,0.6-0.5,0.9-0.8c3.7-3.6,7.5-7.2,11-10.9c0.9-1,1.6-2.5,1.7-3.9c0.6-5.9,1.7-11.8,1.2-17.9
		c-0.3-3.1,0-6.3-0.1-9.5C96.8,140.9,96.5,138.2,96.2,135.5z M67.5,71.8c-0.1-1.5-1-2.1-2.2-2.3c-2.3-0.4-3.3,1.4-4.5,2.9
		c-3.8,4.7-6.7,10.2-12.7,12.9c-3.6,1.6-9.4,1.2-12-1.7c-1.7-1.9-3.3-3.9-4.8-5.9c-1-1.4-2.2-1.5-3.6-0.8c-3.5,2-5.9,4.7-5.7,9
		c0.1,2,0.3,4,0.8,6c1.5,5.7,2.2,11.4,2.1,17.2c-0.2,5.8,1.4,8.9,7,10.6c2.6,0.8,5.6,1.5,8-0.8c1.8-1.7,3.6-3.4,5-5.4
		c2.4-3.6,4.7-7.3,6.8-11c3.1-5.4,5.9-10.9,8.9-16.4c2.1-3.8,4.9-7.1,6.1-11.3C66.9,73.6,67.2,72.7,67.5,71.8z M64.8,239.5
		c4.7,1,9.4,2.6,14.2,0.9c0.4-0.2,1,0,1.5,0.1c-0.3,0.4-0.4,1.1-0.8,1.3c-1.1,0.4-2.3,1-3.4,0.9c-4.4-0.4-8.7-1-13-1.5
		c-0.5-0.1-1.3,0-1.5,0.3c-1.4,2.9-3.7,5.5-2.5,9.4c0.7,2.2,0.1,4.8,0.1,7.4c0.9,0,1.5,0,2.1,0c4.5,0,9-0.3,13.5,0
		c7.3,0.4,13.4-2.3,19-6.4c1.5-1.1,2.8-2.3,3.1-4.4c0.7-4.1,0.3-8.1,0.1-12.2c-0.3-5.5-0.6-10.9-0.8-16.4c-0.1-3.4,0-6.7,0-10.1
		C90,223.4,79,233,64.8,239.5z M23.3,78.5c-0.2-0.1-0.3-0.3-0.5-0.4c-0.9,1.2-2.1,2.3-2.6,3.6c-1.5,3.5-1.6,7.2-0.8,10.8
		c1.4,6.2,2.5,12.5,2.5,18.9c0,6.4,4,10.8,9.8,12.5c5.6,1.7,9.9-1.1,13.3-4.9c3.1-3.5,5.4-7.7,8.2-11.5c2.7-3.6,5.2-7.2,6.5-11.5
		c0.4-1.4,0.9-2.8,1.6-4.2c2.5-4.9,5.1-9.8,7.6-14.7c0.6-1.3,1.1-2.7,1.4-4.1c0.1-0.5-0.4-1.2-0.6-1.8c-0.2,0.1-0.4,0.1-0.6,0.2
		c-0.2,0.7-0.4,1.4-0.7,2.1c-1,2.3-1.9,4.6-3,6.8c-3.2,6-7.5,11.3-10.1,17.7c-1.3,3.1-2.9,6.1-4.5,9c-0.6,1.1-1.6,2-2.2,3.1
		c-1.8,3.5-4.4,6.2-7.4,8.6c-3.7,2.9-7.5,3.2-11.8,1.2c-4-1.9-5.7-5.1-5.6-9.3c0.3-6.8-0.8-13.4-2.5-19.9
		C20.3,86.5,20.2,82.1,23.3,78.5z M42.2,206.6c-0.4,0.9-0.7,1.5-1,2c-1.2,2.3-2,4.6,0.6,6.6c0.7,0.5,1.1,1.4,1.6,2.2
		c0.1-0.1,0.3-0.2,0.4-0.3C43.4,213.8,46,209.9,42.2,206.6z M72.5,26.6c0.1,0,0.2-0.1,0.3-0.1c-0.7-2.2-1.3-4.4-2.1-6.5
		c-0.2-0.4-0.9-0.7-1.4-1c-0.3,0.5-0.9,1.1-0.8,1.5c0.4,2.5,0.8,5,1.4,7.4c0.1,0.4,0.9,1,1.3,1c0.4,0,0.9-0.7,1.2-1.2
		C72.6,27.5,72.5,27,72.5,26.6z M82.9,216.6c-0.1-0.3-0.2-0.6-0.3-0.9c-0.7,0-1.6-0.3-2.2,0.1c-0.5,0.3-0.6,1.2-0.7,1.9
		c0,0.3,0.9,0.9,1,0.9C81.5,218,82.2,217.3,82.9,216.6z"/>
	<path class="st0" d="M39.7,69.5c1.5,0.4,3.5,0.9,5.3,1.6c0.4,0.1,0.8,1,0.7,1.4c-0.4,2.6-1.8,4.7-4.2,5.7c-1.7,0.7-3.7,0.5-5.1-0.8
		c-1-0.9-1.7-2.1-2.5-3.2c-0.2-0.3-0.2-0.8,0-1.1C35.3,71.3,36.9,69.7,39.7,69.5z M34.8,73.8c1.8,3.8,3.4,4.2,6.4,3.6
		c1.7-0.3,3.5-3,3.4-4.9c-0.6,0.5-1.1,1-1.6,1.4c-1.3,0.8-2.4,1.9-4.2,1.3C37.6,74.8,36.3,74.4,34.8,73.8z M35.1,73.5
		c0.9-0.2,1.9-0.4,2.8-0.6c1.2-0.2,2.4-0.5,3.6-0.3c1.7,0.3,1.7,0.5,2.9-0.9C40.9,69.5,36.7,70.1,35.1,73.5z"/>
	<path class="st0" d="M53.6,45.9c-3.8,2.9-8.1,3.4-12.6,2.3c0.4-3.7,1.5-4.9,4.5-5.3C49.7,42.4,52.7,43.6,53.6,45.9z M42.1,47.4
		c4.4,1.3,8,0.6,10-2.1c-0.9-0.5-1.7-1-2.2-1.2c-0.9,1-1.5,2.2-2.4,2.6c-1.7,0.8-2.5-0.8-3.4-2.4C43.3,45.5,42.7,46.4,42.1,47.4z"/>
	<path class="st0" d="M21.7,50.4c1.1-3.7,4.5-4.7,7.2-4.5c1.9,0.2,3.2,1.7,3.5,3.8C28.9,51.9,25.4,52.9,21.7,50.4z M32,49.3
		c-0.9-0.9-1.6-1.6-2.1-2.1c-0.9,1.1-1.5,2.5-2.4,2.7c-0.9,0.2-2.1-0.8-3.3-1.4c-0.3,0.3-0.8,1-1.3,1.6C26,52.3,28.7,50.8,32,49.3z"
		/>
	<path class="st0" d="M41.7,62.8c1.5-1.1,1.4-2.1-0.5-4.8c1.4,0.1,2.2,1,2.3,2.7c0.1,1.7-0.7,3-2.1,3.3c-0.9,0.2-1.8,0.7-2.7,0.8
		c-1.8,0-3.7,0.1-5.4-0.4c-1.4-0.4-1.3-2-0.9-3.3c0.3-1,0.6-2,1-2.9c1.6-3.8,0.6-7.5-0.6-11.2c-0.2-0.6-0.8-1.1-1.2-1.6
		c-0.2-0.3-0.4-0.6-0.4-1.1c1.7,1.1,2.7,2.7,2.9,4.5c0.3,3.1,0.2,6.3,0.1,9.4c-0.1,1.1-1,2.1-1.3,3.1c-0.5,1.8-0.1,2.4,1.8,3
		c0-0.4-0.1-0.8-0.2-1.5c0.6,0.3,1.1,0.6,1.5,0.8c1.1,0.5,2.3,1.5,2.9-0.6c0.1-0.4,0.8-0.8,1.3-1C40.7,61.9,41.2,62.4,41.7,62.8z"/>
	<path class="st0" d="M52.5,41.5c-0.4,0.1-0.8,0.3-1.3,0.3c-3.2-0.2-6.4-0.3-9.6-0.6c-0.6-0.1-1.1-0.8-1.6-1.2
		c0.6-0.2,1.2-0.6,1.8-0.6c3,0.2,5.9,0.5,8.9,0.8c0.7,0.1,1.3,0.4,1.9,0.6C52.6,41,52.6,41.2,52.5,41.5z"/>
	<path class="st0" d="M21.1,46.2c0.2-0.4,0.4-0.9,0.7-1.2c2.1-1.4,4.2-2.7,6.4-4c0.4-0.3,1.1-0.1,1.7-0.1c-0.3,0.5-0.5,1.2-1,1.5
		c-1.9,1.3-3.9,2.5-5.9,3.7c-0.4,0.3-1,0.3-1.5,0.4C21.3,46.4,21.2,46.3,21.1,46.2z"/>
</g>
</svg>
