<?xml version="1.0" encoding="utf-8"?>
<!-- Generator: Adobe Illustrator 18.1.1, SVG Export Plug-In . SVG Version: 6.00 Build 0)  -->
<!DOCTYPE svg PUBLIC "-//W3C//DTD SVG 1.1//EN" "http://www.w3.org/Graphics/SVG/1.1/DTD/svg11.dtd">
<svg version="1.1" id="Layer_1" xmlns="http://www.w3.org/2000/svg" xmlns:xlink="http://www.w3.org/1999/xlink" x="0px" y="0px"
	 viewBox="0 0 150 285.6" style="enable-background:new 0 0 150 285.6;" xml:space="preserve">
<style type="text/css">
	.st0{fill:#00BCD4;}
</style>
<g id="yeast-girl">
	<path class="st0" d="M103,149.2c1.9,3.7,2,7.2,1.1,10.9c-0.8,3.2-2.8,5.3-5,7.3c-2,1.8-3,4-3.5,6.6c0.9,0,1.6,0,2.4,0
		c16.4,0,32.7-0.1,49.1-0.1c1.1,0,3-0.6,2.9,1.2c0,1.5-1.8,1-2.9,1c-16.4,0-32.7-0.1-49.1-0.1c-0.8,0-1.7-0.1-2.8-0.2
		c-0.5,3.8-2.8,7-5.2,9.9c-1.8,2.2-3.5,4.3-4.4,7c-0.4,1.1-0.8,2.3-1.2,3.4c-0.3,0.7-0.4,1.8-0.9,2.1c-1.7,1-1.2,2.5-1.5,3.9
		c-0.8,3.7-1.5,7.6-2.9,11.1c-2.6,6.7-6,13.1-8.5,19.8c-1.2,3.2-1.4,6.8-1.4,10.2c0,2.2,1.1,4.4,3.4,5.5c2.5,1.2,4.2,3.1,3.8,6
		c-0.1,1.2-0.6,2.5-1.3,3.5c-0.8,1.3-0.8,2.3-0.4,3.7c1.4,5.8,5.2,10.4,7.2,15.9c0.4,1.2,0.7,2.5,0.8,3.7c0.2,1.5-0.4,2.7-1.8,3.3
		c-1.4,0.7-2.9,0.9-4.1-0.2c-1.4-1.3-2.7-1.2-4.4-0.5c-1.2,0.5-2.6,0.7-3.9,0.5c-2-0.3-3.8-1-4.2-3.5c-0.5-3.6-1.2-7.1-1.8-10.6
		c-0.1-0.4-0.1-0.9-0.2-1.3c-0.9-3.4-0.9-3.4-4.4-3c-1.5,0.1-3.1,0.1-4.6-0.2c-3.2-0.6-5-4.2-4-7.3c1.5-4.7,2.9-9.4,4.3-14.2
		c0.6-2,0.2-3.8-0.7-5.8c-1.9-4.3-3.4-8.8-5.2-13.1c-3-7.2-5.7-14.4-7.2-22.1c-0.1-0.5-0.3-1-0.2-1.4c0.4-3-0.6-5.7-1.5-8.4
		c-1.2-3.4-2-6.8-2.3-10.5c-0.2-2.2-1.7-4.2-2.8-6.2c-0.2-0.4-1.2-0.4-1.8-0.4c-9.7-0.1-19.4,0-29-0.1c-0.9,0-1.9-0.6-2.8-0.9
		c1-0.3,1.9-0.8,2.9-0.8c9.3-0.1,18.5-0.1,27.8-0.1c0.6,0,1.3,0,2.1,0c-1.3-4-2.9-7.6-3.6-11.4c-0.7-3.7-0.5-7.6-0.7-11.6
		c-3.7,0-7.4,0-11,0c-4.9,0-9.8-0.1-14.7-0.1c-0.4,0-0.9,0.1-1.3-0.1c-0.4-0.2-0.8-0.6-1.2-0.9c0.4-0.3,0.8-0.6,1.3-0.8
		c0.4-0.1,0.8-0.1,1.3-0.1c8.2,0,16.4-0.1,24.6-0.1c1.5,0,2.1-0.3,2.4-1.9c0.8-3.6,2.1-7,3-10.5c0.3-1.1,0.3-2.5-0.1-3.6
		c-2.4-7-4.7-13.9-3.7-21.6c0.5-3.6-0.2-7.3-0.4-11c-0.1-1.8-0.2-3.6-0.1-5.3c0.2-7,0.4-13.9,0.8-20.9c0.1-1.6,0.4-3.3,1.1-4.7
		c1.3-2.6,3.1-4.9,4.6-7.4c0.3-0.5,0.5-1.4,0.3-2c-1.2-3.2-1.5-6.6-1.2-9.9c0.1-1.2,0.6-2.3,1.2-3.4c2.7-4.9,5.6-9.7,8.1-14.7
		c2.1-4.3,3.5-8.9,5.5-13.3c2.2-4.7,4-9.6,8.5-12.9c2.2-1.6,4.7-2.4,7.3-3.2c3.2-1,6.9-0.4,9.7-3.1c0.5-0.5,1.8-0.2,2.7-0.1
		c1.2,0.1,2.4,0.7,3.5,0.7c4-0.2,7.1,1.1,9.9,4.1c3.2,3.5,5.2,7.4,6.4,12c1.3,4.9,1,9.8,2,14.6c1,5.3,2.9,10.4,4.3,15.6
		c0.5,1.9,1,3.8,1.2,5.7c0.3,3.2-0.9,5.7-3.9,7.2c-1.9,0.9-2.7,2.5-2.8,4.7c-0.1,5.9-0.2,11.8-0.6,17.7c-0.3,4.2-0.7,8.4-1.5,12.6
		c-1.1,5.4-2.6,10.8-4.2,16.1c-1,3.1-1.1,6,0.2,9c2.3,5.7,4.2,11.4,6.4,17.1c1.2,3.1,2.5,6.1,3.9,9.1c0.2,0.4,0.8,1,1.2,1
		c6.6,0,13.1-0.2,19.7-0.2c8.3-0.1,16.5-0.1,24.8,0c0.8,0,2.4,0.6,2.4,0.9c-0.1,1.5-1.5,1.1-2.4,1.1c-13.7,0-27.5-0.1-41.2-0.1
		C105.3,149.2,104.4,149.2,103,149.2z M90.1,121.2c-0.9,3.8-1.8,7.5-2.7,11.2c-0.2,0.8-0.9,1.5-1,2.3c-0.5,2.2-0.9,4.5-1.4,6.7
		c-0.7,2.8-1.5,5.5-2.3,8.3c-0.8,2.8-1.4,5.5-3.6,7.7c-4,4.1-7.5,8.6-11.2,12.9c-2.3,2.7-7.3,4.1-10.3,2.2
		c-4.3-2.8-6.9-7.1-8.9-11.7c-1.6-3.8-3.2-7.6-5.8-11c-1.4-1.9-2.7-3.8-4-5.8c-1.1-1.6-2.1-3.4-3.1-5c-0.3-0.4-0.8-0.7-1.2-1
		c-0.3,0.6-0.7,1.2-0.9,1.8c-0.2,0.5,0,1-0.1,1.5c-0.7,4.1-1.6,8.1-2.2,12.2c-0.8,5.3-0.4,10.4,1.8,15.4c0.3,0.6,0.4,1.2,0.6,1.9
		c0.6,1.8,0.9,3.9,2,5.3c2.8,3.6,2.9,7.8,3.7,11.9c0.5,2.5,1.5,4.9,2.4,7.2c0.6,1.5,2,1.9,3.5,2.1c2,0.2,4,0.6,6.1,0.8
		c2.9,0.4,5.9,0.7,8.8,1c0.7,0.1,1.4-0.3,2.1-0.5c0.9-0.3,1.8-0.8,2.7-0.9c4.1-0.3,8.2-0.6,12.4-0.7c4.3-0.1,4.9-1.2,6.4-4.4
		c1.1-2.3,2.1-4.8,3.6-6.8c2.5-3.5,5.1-6.9,6-11.1c0.8-3.6,2.2-6.8,4.8-9.3c2.9-2.7,4.9-5.6,4.4-9.7c-0.1-1.2,0-2.4-0.4-3.5
		c-1.1-2.8-2.6-5.4-3.7-8.2c-2.3-5.8-4.5-11.6-6.6-17.4C91.2,124.8,90.7,122.9,90.1,121.2z M77.5,60c-0.2-0.1-0.3-0.1-0.5-0.2
		c-0.7,1.2-1.4,2.4-2.1,3.6c-0.5,0.9-0.6,2.2-1.3,2.9c-3.4,3.5-7,6.9-12.6,5.3c-0.2-0.1-0.6,0.3-0.8,0.2c-2.4-0.8-5.2-1.1-7.2-2.5
		c-2.6-1.9-4.6-4.6-6.9-7c-2.2-2.3-2.8-2.4-5.7-1.1c-0.9,0.4-1.9,0.8-2.7,1.5c-1.6,1.3-3.1,2.6-3,5.2c0.3,7,1.8,13.6,4.8,20
		c0.9,2,2,4,2.2,6.1c0.6,5,0.9,10,1.2,15c0.2,3.5,0.2,3.5,3.6,3.3c0.2,0,0.4,0.1,0.5,0.1c1.9,0,3.8-0.1,5.7-0.1
		c2.2-0.1,4.3-0.3,6.5-0.1c1.4,0.1,1.8-0.4,1.6-1.6c-0.2-0.9-0.5-1.8-0.6-2.6c-0.4-3.6-0.7-7.2-1.1-10.9c-0.2-2.5-0.4-4.9-0.6-7.5
		c1.8,0.1,1.8,1.2,2,2.2c0.3,2.4,0.6,4.8,0.8,7.2c0.3,3.8,0.5,7.7,0.8,11.5c0,0.5,0.5,1.3,0.9,1.4c0.8,0.2,1.8,0.1,2.5,0.1
		c0.6-2.7,1.2-5.3,1.7-7.9c0.9-4,1.7-8.1,2.6-12.1c0.1-0.5,0.6-0.9,0.9-1.3c0.3,0.5,0.9,1,0.9,1.6c0,1-0.3,2-0.5,3
		c-1.1,5.4-2.2,10.8-3.3,16.4c2.6-0.2,4.9-0.4,7.2-0.6c1.4-0.1,1.8-0.9,1.9-2.3c0.2-2.5,0.6-5,1.1-7.5c0.8-3.6,1.7-7.2,2.6-10.7
		c0.5-2.1,1-4.3,1.4-6.5c1-4.6,2.1-9.1,2.9-13.7c0.3-1.9-0.9-2.6-2.7-2c-0.8,0.3-1.7,0.6-2.6,1c-0.5-0.9-1.1-1.6-1.2-2.4
		C77.9,64.6,77.8,62.3,77.5,60z M86.6,115.5c-0.2-0.1-0.3-0.2-0.5-0.3c0.5-0.6,1-1.2,1.5-1.8c2-2.6,3.9-5.3,3.9-8.9
		c0-1.3,0.1-2.7,0.5-3.9c2.3-6.4,2.9-13,3.4-19.7c0.4-5.5,0.3-11,0.4-16.4c0-2.5-1.2-3.5-3.5-2.2c-2.9,1.6-6.5,2.8-6.1,7.3
		c0,0.1-0.1,0.2-0.1,0.3c-1,5-2,10-3.3,14.9c-2,7.4-3.4,15-4.9,22.5c-1,5.3-1.7,10.8-2.7,16.1c-1.4,8.3-0.8,16.9-2.9,25.1
		c-0.3,1.4-0.7,2.4-2,3c-4.4,1.9-7.1,5.6-9.9,9.2c1.6,0.1,3.2,0.6,4.7,0.3c1.4-0.3,2.6-1.3,3.8-2c0.1,0.2,0.2,0.4,0.3,0.6
		c-0.8,0.5-1.7,1-2.5,1.5c-1.4,0.8-2.6,3.2-2,4.4c0.7,1.3,0,2-1,2.6c-2,1.3-4.1,0.7-6.1,0.2c-0.7-0.1-1.5,0-2.6,0
		c3,4.8,8.9,4.4,11.7,0.7c3.4-4.4,7.4-8.4,11-12.7c1.2-1.4,2-3.1,2.7-4.9c0.9-2.5,1.5-5,2.1-7.6c2.1-7.9,5.2-15.5,5.8-23.8
		c0.1-2,0.6-4.2-0.5-6.4C87.4,114.6,87,115.1,86.6,115.5z M72.5,257.9c2.4-2.1,3.1-5.5-0.6-7.2c-1-0.5-1.9-1.5-2.6-2.4
		c-1.8-2.2-2.4-4.9-2.8-7.7c-0.5-4-1.7-7.9-2.3-11.9c-0.5-3-0.4-6.1-0.8-9.1c-0.9-5.7-1.9-11.4-2.9-17.1c-0.1-0.6-0.9-1.5-1.5-1.6
		c-1-0.3-2.1,0.1-3.1-0.1c-3.7-0.5-7.4-1-11.1-1.6c-2.2-0.4-2.8-0.1-2.5,2.1c0.3,2.8,0.8,5.6,1.7,8.3c2.7,7.9,5.7,15.7,8.5,23.5
		c2.6,7.1,4.9,14.3,7.8,21.3c2.2,5.4,3.8,10.8,4,16.6c0.1,3.5,0.6,6.8,1.8,10.1c0.6,1.5,1.5,2.2,3.3,2.1c-0.3-1-0.4-1.7-0.7-2.5
		c-0.2-0.7-0.4-1.3-0.6-2c0.2-0.1,0.3-0.1,0.5-0.2c0.5,1,1,2.1,1.6,3c0.4,0.5,1.1,0.8,1.7,1.2c0-0.6,0-1.3-0.2-1.8
		c-0.5-1.2-1.1-2.2-1.6-3.4c0.2-0.1,0.4-0.2,0.6-0.3c0.6,1,1.2,2,1.7,3c0.9,1.7,1.5,1.9,3.2,1c-0.8-1.5-1.7-2.9-2.5-4.4
		c-0.2-0.4-0.1-0.8-0.2-1.3c0.4,0.3,0.9,0.5,1.1,0.9c1,1.6,1.9,3.3,2.8,5c1.6-0.7,3-1.3,4.5-2c-0.6-0.8-1-1.2-1.3-1.6
		c-4.5-6.5-6.4-14.2-10.1-21c-0.1-0.2,0.1-0.6,0.2-0.9c0.3,0.1,0.7,0,0.9,0.2C71.6,256.7,72,257.3,72.5,257.9z M33.7,67.8
		c-1.7,2.7-2.6,5.3-2.6,8.4c0.1,5.2-0.2,10.5-0.3,15.7c0,0.2,0,0.4,0,0.6c0.1,4.3,0.2,8.6,0.3,12.9c0,2.6,0,5.3,0,7.9
		c0,2.6-0.7,5.3-0.1,7.6c1.3,5.2,2.9,10.3,5.1,15.2c1.7,3.9,4.3,7.5,6.7,11.1c2.6,4,5.6,7.9,6.5,12.8c0.1,0.7,0.8,1.4,1.4,2
		c0.8,0.8,1.7,1.5,2.7,2.1c1,0.7,2,1.6,3.2,1.9c1.5,0.3,3.2,0.2,4.8,0c1-0.1,2-0.6,2.9-1c-2-0.4-3.8-0.5-5.6-0.4
		c-1.9,0-3.7,0-4.9-1.7c-1-1.5-1.8-3-2.8-4.6c2.4,1.5,2.5,5.1,6.1,5.2c2.6,0.1,5.4,1.5,8.1-1.5c-1.6-0.2-2.6-0.3-3.7-0.4
		c-2.3-0.1-4.1-1.4-4.8-3.5c-0.3-0.9-0.6-1.8-0.9-2.7c-0.6-1.4-1.3-2.9-1.9-4.3c0.1-0.1,0.3-0.2,0.4-0.2c1.3,2.2,2.6,4.3,3.7,6.2
		c1-0.9,2-1.7,3.1-2.6c-0.5-2.5-2.2-4.3-4.7-5.7c-2.8-1.6-5.3-3.9-6.5-7.1c-2.2-6-4.2-12.1-6.2-18.1c-0.3-1-0.7-2-1.1-3
		c-0.3-0.9-0.6-1.8-1.1-2.6c-0.6-0.9-1.4-1.6-2.1-2.3c0-0.1,0.1-0.1,0.1-0.2c0.9,0.5,1.7,0.9,3,1.6c-0.4-5.5-0.7-10.6-1-15.7
		c-0.3-4.3-0.8-8.5-2.6-12.5c-2.8-6.4-4.8-13-4.8-20.1C34.1,68.6,33.9,68.3,33.7,67.8z M61.8,34.3c-0.1-0.2-0.2-1-0.5-1.1
		c-1.2-0.3-2-0.9-2.5-2.1c-0.3-0.7-1-1.4-1.8-1.8c-0.5-0.3-1.5-0.5-2-0.2c-2.2,1.4-3.2,5.4-1.8,7.7c1,1.5,1.9,3.2,4.2,3.4
		c0.4,0,1.3,1.1,1.2,1.6c-0.5,3,0.3,5.9,1.7,8.1c2.6,4.1,6.1,7.5,10.5,9.8c1.9,0.9,3.7,0.7,5.4-0.3c1.4-0.9,2.8-2,3.8-3.4
		c2.3-3.4,4.4-6.9,6.4-10.4c0.4-0.7,0.7-2.1,0.3-2.6c-0.5-0.6-1.8-0.7-3-1.1c-0.1,2.4-0.2,4.4-0.3,6.4c0,1.5-0.9,2-2.2,1.7
		c-1.4-0.4-2.8-1.1-4.1-1.8c-0.3-0.2-0.7-0.8-0.6-1.2c0.1-0.4,0.5-0.8,0.9-1.2c0.1,0.1,0.2,0.1,0.3,0.2c-0.2,0.4-0.4,0.9-0.6,1.5
		c0.9,0.4,1.8,0.7,2.6,1.2c1.9,1.1,2.8,0.5,3.1-1.6c0.3-2.2,0.7-4.4,1.5-6.4c0.7-1.8,2-1.9,3.7-0.8c0.4,0.3,0.8,0.4,1.2,0.6
		c1.6-0.8,1.3-2.1,1.1-3.5c-0.3-1.9-1.9-2.8-2.7-4.3c-1.8-3.6-5.2-3.7-8.7-4.5c0.9,1.3,1.7,2.4,2.4,3.4c-0.1,0.1-0.3,0.3-0.4,0.4
		c-0.5-0.4-1-0.8-1.5-1.3c-1.1-1.1-2.1-2.2-3.2-3.2c-0.3-0.2-1.2-0.2-1.5,0.1c-2.4,2-5.1,3.2-8.2,3.9C64.7,31.8,63.3,33.3,61.8,34.3
		z M62,133.4c-0.6,0.6-1,1.2-1.5,1.3c-1.3,0.2-2.6,0.4-3.8,0.2c-0.3-0.1-0.6-1.8-0.4-2.7c0.2-1.2,0.8-2.4,1.4-3.4
		c1.5-2.5,2.6-4.9,0.1-7.4c-0.3-0.3-0.2-1-0.5-1.3c-0.6-0.5-1.5-1.4-2-1.2c-2.8,0.8-5.6,1.8-8.3,2.8c-0.6,0.2-1.4,1.1-1.4,1.7
		c0,1.4,0.3,2.8,0.7,4.2c0.9,3.2,2.1,6.4,2.9,9.7c1.2,5,3.7,9,8.4,11.5c0.8,0.4,1.8,0.8,2.2,1.5c1.2,1.8,2.1,3.7,3.2,5.6
		c0.1,0,0.2-0.2,0.4-0.3c2.1-1.4,4.3-2.6,6.3-4.1c1-0.7,1.7-1.9,2.3-3c0.2-0.4-0.4-1.5-0.9-1.8c-4.6-2.3-7-6.1-8.2-10.9
		C62.6,134.9,62.3,134.3,62,133.4z M57.6,41.4c-0.2,0-0.5,0-0.7-0.1c-0.5,2.2-0.9,4.3-1.4,6.5c-0.4,1.7-0.5,3.5-1.4,5
		c-1.6,2.7-4.1,4.6-6.8,6.1C46.1,59.5,46,60,47,61c1.8,1.9,3.4,4,5.4,5.7c1.8,1.5,3.9,3,6.2,3.6c3.2,0.8,6.5,0.8,9.6-1
		c2.9-1.7,4.6-4.2,5.1-7.5c0-0.2-0.4-0.7-0.8-0.8c-0.7-0.3-1.7-0.1-2.2-0.6c-2.7-2.2-5.4-4.5-7.9-6.8c-3-2.7-4-6.3-4.3-10.2
		C57.9,42.7,57.7,42,57.6,41.4z M67.2,234.4c0.2,0,0.4,0.1,0.6,0.1c0.3-0.4,0.7-0.8,0.8-1.3c1-4.3,2.8-8.4,4.8-12.4
		c3.1-6,5.2-12.4,6.6-19c0.5-2.1-0.1-2.9-2.3-3.1c-0.4,0-0.9,0-1.3,0c-3.2,0.1-6.4,0.2-9.5,0.5c-3.5,0.3-4,1.3-3.7,4.6
		c0.2,1.6,0.5,3.1,0.7,4.6c0.9,7.2,1.7,14.4,2.6,21.6C66.7,231.5,67,233,67.2,234.4z M57.6,19.4c0.2,0.2,0.3,0.4,0.5,0.6
		c0.9-0.6,1.9-1.1,2.7-1.8c2.5-2.2,4.9-4.3,8.3-4.8c2.6-0.3,5.2-0.8,7.8-1.1c5.5-0.7,10.3,0.2,13.4,5.4c0.3,0.4,1.2,0.5,1.7,0.8
		c0.1-0.7,0.4-1.5,0.2-2.1c-0.6-1.5-1.4-3-2.4-4.2c-1.3-1.5-2.8-3.2-4.5-4.1C81.5,5.9,77.2,6.5,73,7.4c-4.4,1-8.3,3.2-11.7,6.2
		C59.6,15.2,58,16.9,57.6,19.4z M72.2,137.8c0.2,0,0.3-0.1,0.5-0.1c0.2-0.7,0.4-1.3,0.5-2c0.5-4.4,0.8-8.9,1.6-13.3
		c0.3-2-0.2-2.8-2-3c-0.4,0-0.8,0-1.1-0.2c-1-0.7-1.7-0.1-2.1,0.7c-1.2,2.1-2.3,4.3-3.3,6.5c-0.2,0.5-0.2,1.4,0.1,2
		C68.2,131.6,70.2,134.7,72.2,137.8z M58.9,259.6c0.2,0,0.4,0,0.6,0.1c0,1.2-0.1,2.4,0.1,3.5c0.1,0.4,0.7,0.7,1.1,1
		c0.3-0.4,0.9-0.8,0.9-1.1c-0.1-1.1-0.2-2.3-0.7-3.1c-2-2.8-2.6-6-3.6-9.1c-0.5-1.6-1.1-3.1-1.7-4.9c-0.5,0.7-0.8,1-1,1.5
		c-1.3,4-2.6,8.1-3.8,12.2c-0.4,1.3-0.3,2.9,1.4,3.9c0.3-1.5,0.6-2.9,0.9-4.3c0.2,0,0.3,0,0.5,0c0,1.2-0.1,2.4,0,3.6
		c0,0.5,0.4,1,0.6,1.5c0.4-0.4,1.1-0.8,1.1-1.2c0.2-1.5,0.2-3.1,0.3-5.1c2,2.1-0.2,4.9,2.2,7C58.2,262.9,58.6,261.2,58.9,259.6z
		 M60.6,114.5c-0.1-0.2-0.1-0.5-0.2-0.7c-2.8,0-5.5,0-8.3,0c-1.9,0-3.7,0.3-5.6,0.3c-2.8,0.1-2.8,0-2.6,2.8c0,0.6-0.1,1.2,0.1,1.8
		c0.2,0.7,0.5,1.4,0.7,2.1C50.3,118.5,55.8,117.3,60.6,114.5z M64.6,130.4c-2.9,3,2.3,12.7,8.3,14.3c-0.4-1.6-0.5-3-1.2-4.1
		C69.5,137.2,67,133.8,64.6,130.4z M75.7,112.4c-3.7,0.8-5,2.3-4.6,5.1c0.7,0.1,1.5,0.3,2.3,0.3c0.6,0,1.7-0.2,1.8-0.5
		C75.5,115.8,75.5,114.2,75.7,112.4z M51.3,162.4c-0.2,0.5-0.3,0.7-0.2,0.8c0.6,2.5,3.2,4.6,5.7,4.6c0.6,0,1.2,0.2,1.8,0.2
		c2,0,4.1,0.8,5.8-1.4c-2.6,0-4.9,0-7.3,0c-2,0-3.4-0.8-4.4-2.6C52.4,163.6,51.9,163.1,51.3,162.4z M61.2,125.8
		c-0.8,1.5-1.7,2.9-2.3,4.4c-0.4,0.8-2,1.5-0.7,2.5c1.2,1,1.8-0.6,2.6-1.2c0.1-0.1,0.3-0.2,0.4-0.4
		C63.2,128.4,63.2,127.6,61.2,125.8z M64.4,124.9c0.3-0.6,0.5-1.2,0.7-1.7c0.3-0.6,0.6-1.2,0.9-1.7c1.2-1.8,1.1-2.1-0.9-3.1
		c-0.7,1.1-1.5,2.2-2.1,3.4C62.1,123.7,62.4,124.4,64.4,124.9z M59.1,118.7c0.1,0.4,0.2,1.2,0.6,1.6c0.3,0.3,1.3,0.3,1.6,0.1
		c0.6-0.5,1.2-1.3,1.5-2.1c0.2-0.8,0.2-1.9-0.2-2.5C62.2,115.2,59.1,117.6,59.1,118.7z M70.4,113.5c-0.6,0-0.9,0-1.2-0.1
		c-1.9-0.3-2.5,0.8-2.6,2.3c0,0.5,0.5,1.1,0.8,1.7c0.5-0.3,1.1-0.4,1.3-0.8C69.3,115.7,69.7,114.7,70.4,113.5z M79.1,285.2
		c1-1.2,1.7-1.9,2.3-2.7c-0.6-0.3-1.1-0.9-1.7-1c-1.1-0.2-2.1,0.3-2.2,1.6C77.6,283.6,78.3,284.2,79.1,285.2z M62.7,157.1
		c-0.1-0.2-0.1-0.5-0.2-0.7c-0.7-0.1-1.5-0.6-1.9-0.4c-0.6,0.4-1.1,1.3-1.4,2c-0.1,0.2,0.5,0.8,0.7,1.1
		C60.8,158.5,61.7,157.8,62.7,157.1z M84.9,40.4c1,0.6,1.8,1.1,2.6,1.4c0.1,0,0.4-0.5,0.7-0.7c-0.6-0.5-1.3-1.1-2-1.5
		C86,39.5,85.5,40,84.9,40.4z"/>
	<path class="st0" d="M72.3,51.6c2.2,0,4.2,0,6.1,0c1.4,0,2.4,0.9,2.3,2.1c-0.1,0.7-1.3,1.8-2.2,2C76.2,56.1,73.8,54.5,72.3,51.6z"
		/>
	<path class="st0" d="M58.3,38.8c-0.9-1-1.6-1.8-2.3-2.6c-1.1-1.1-1.8-2.2-0.9-3.6c0.3-0.4,0.9-0.6,1.4-0.7c0.2-0.1,0.4,0.3,0.7,0.4
		c-0.3,0.3-0.6,0.7-1,1c-1,0.9-0.2,1.4,0.3,2c0.6,0.7,1.3,1.5,1.9,2.3C58.6,37.9,58.4,38.4,58.3,38.8z"/>
	<path class="st0" d="M72.1,36.7c0.3-1,3-1.7,5.3-1.4c1.7,0.2,3,1.3,3.1,2.7c-1.4-0.6-2.6-1.4-4-1.6C75.1,36.1,73.6,36.5,72.1,36.7z
		"/>
	<path class="st0" d="M72,37.7c1,0.6,2,1.5,3,1.7c1.2,0.3,2.5-0.1,3.9-0.2c-1.6,2.4-4.7,1.9-7.3-1C71.8,38.1,71.9,37.9,72,37.7z"/>
</g>
</svg>
