<?xml version="1.0" encoding="utf-8"?>
<!-- Generator: Adobe Illustrator 18.1.1, SVG Export Plug-In . SVG Version: 6.00 Build 0)  -->
<!DOCTYPE svg PUBLIC "-//W3C//DTD SVG 1.1//EN" "http://www.w3.org/Graphics/SVG/1.1/DTD/svg11.dtd">
<svg version="1.1" id="Layer_1" xmlns="http://www.w3.org/2000/svg" xmlns:xlink="http://www.w3.org/1999/xlink" x="0px" y="0px"
	 viewBox="404.9 168.3 150 223.1" style="enable-background:new 404.9 168.3 150 223.1;" xml:space="preserve">
<style type="text/css">
	.st0{fill:#009688;}
</style>
<g id="badbreath-lady">
	<path class="st0" d="M553.9,302.8c-1.3-7.6-4.1-14.5-9.6-20c-4.3-4.4-9.6-7.1-15.3-9c-4.3-1.6-4.6-1.9-2.1-5.5
		c2.8-4.3,3.8-9,3.5-13.9c-0.5-10.1-0.5-20.2-3.9-30c-1.4-3.6-1.9-7.7-3.3-11.4c-2.7-7.4-5.7-14.7-8.5-22.1
		c-2.3-6.3-6.4-11.3-11.6-15.1c-1-0.9-2.1-1.7-3.2-2.5c-0.7-0.5-1.4-0.5-2-0.1c-1.2-0.4-2.4-0.9-3.5-1.4c-0.8-0.4-1.6-0.8-2.4-1.1
		c-0.1-0.1-0.2-0.2-0.3-0.2c-1.1-0.7-2.4-1.1-3.7-1.2c-3.5-1-7.1-1.4-10.9-0.8c-2.2,0.3-4.4,0.8-6.6,1.1c-0.1,0-0.3,0-0.4,0.1
		c-1,0.1-2.1,0.2-3.1,0.4c-5.4,0.9-9.6,4-13.6,7.5c-0.3,0.2-0.6,0.4-0.9,0.6c-0.3,0.2-0.5,0.6-0.8,0.8c-1.3,1.4-2.5,2.8-3.8,4.3
		c-1.2,1.3-2.3,2.7-3.3,4.2c-0.6,0.8-1.1,1.6-1.6,2.4c-2.5,4.7-4,10.7-4.6,16c-0.5,4.2,0.1,8.7,0.7,13c0,1.3,0,2.6,0.1,3.9
		c0.4,4.6,0.5,9.2,0.2,13.8c-0.1,0.8-0.2,1.5-0.2,2.3c-0.1,0.8-0.2,1.6-0.3,2.4c-1.1,6.6,0.6,12.8,5.5,17.7c1.1,1.1,1.9,2.5,2.8,3.8
		c0,0.3-0.2,0.5-0.2,0.8c-5.8,1.1-11.7,2.4-17.5,3.2c-9.3,1.4-14.4,7.6-17.8,15.3c-2.8,6.6-3.9,13.7-4.1,21
		c-0.2,7.7,0.2,15.6-2.1,23.2c-0.2,0.3-0.2,0.8-0.2,1.1c-0.2,5-0.3,10.3-0.3,15.3c0,6.8-0.6,13.6,1.1,20.2c0.5,1.7,0.8,3.5,1.3,5.2
		c1.6,4.4,4.3,8.2,8.4,10.6c1.6,0.9,3,0.9,4.6-0.3c0.9-0.8,2.1-1.4,3.5-2.5v15.9h1.9c0-4.6-0.3-9,0-13.6c0.2-2.2,0.6-4.7,1.7-6.8
		c1.9-3.2,4.4-6.2,6.5-9.1c2.2-3.2,5.5-4.1,9-4.9c3.5-0.8,7.3-0.9,10.6-2.1c7.6-2.4,14.7-1.4,21.6,2.1c3.9,2.1,8.2,3.5,12.3,5.2
		c0.5,0.2,1.1,0.3,1.6,0.5c0.2-0.2,0.3-0.5,0.3-0.6c-0.6-0.3-1.3-0.8-1.9-1.1c-5.4-2.2-11-4.1-16.2-6.8c-3.8-1.9-7.4-2.2-11.2-1.6
		c-7.6,1.4-15.1,3-22.9,4.6c0.9-1.3,1.7-2.5,2.7-3.8c2.1-2.7,4.4-5.2,6.2-8.2c3.2-5.5,5.8-11.2,8.7-16.7c0.5-0.8,0.9-2.2,1.6-2.2
		c3.5-0.2,7.1-0.8,9.9,2.2c1.1,1.3,2.4,2.2,3.8,3.2c0.3,0.2,1.1,0,1.6-0.3c0.3-0.2,0.5-0.8,0.8-1.1c4.9-3.6,9.6-7.4,15.6-8.8
		c2.7-0.6,5.2-1.3,7.9-1.9c5.8-1.6,11.2,0,16.1,2.5c3.5,1.9,6.9,4.1,9.3,7.6c0.9,1.4,2.1,2.7,1.3,4.7c-0.6,1.4-0.5,3-0.6,4.4
		c-0.6,3.9-1.1,8-1.9,12c-0.2,0.6-0.5,1.4-0.9,1.7c-3.6,2.5-5.7,6.2-7.3,10.1c-1.3,3.3-2.1,6.9-2.7,10.4c-0.9,5.8-3,11.8-1.1,17.8
		h1.6c-1.3-3.5-1.6-6.8-0.6-10.4c0.6-3,0.9-6.2,1.6-9.3c0.9-4.4,1.9-8.7,4.6-12.5c1.3-1.7,2.4-3.3,3.5-5c0.3,0.2,0.5,0.2,0.8,0.3
		c-0.3,2.7-0.5,5.2-0.8,7.9c-1.1,9.8-2.2,19.4-3.5,29.2h1.3c0.9-7.1,1.9-14.2,2.8-21.3c0.9-7.6,1.7-15.1,2.7-22.7
		c0.3-2.1,0.8-4.1,1.1-6.2c0.6-3.2,1.1-6.5,1.7-9.6c0.2-0.9,0.3-1.7,0.3-2.7c0.2-2.8,0-5.7,0.5-8.4c0.8-5.2,1.7-10.4,2.7-15.5
		c0-0.3-0.2-0.6-0.2-0.9h-0.8c-0.8,4.4-1.6,8.7-2.2,13.1s-1.3,8.8-1.7,13.2c-1.1-1.3-2.5-2.5-3.6-3.9c-2.2-2.8-5.5-4.1-8.5-5.7
		c-3.5-1.9-7.3-3.3-11.5-2.8c-2.7,0.3-5.4,0.6-7.9,1.4c-4.3,1.1-8.5,1.9-12.3,4.6c-2.7,1.9-5.4,3.6-8.2,5.5c-1.4-3.6,0.5-7.7-2.4-11
		c0.3,3.8,0.5,7.4,0.8,11.2c-0.2,0.2-0.3,0.3-0.3,0.5c-3.2-4.7-7.9-5.4-13.2-5c1.1-2.7,2.1-4.9,3.2-6.9c3.6-7.7,7.1-15.5,12.1-22.6
		c3-4.3,5.2-9.1,5.5-14.5c0.2-3.6,0.3-7.3,0.6-10.7c0-0.8,0.5-1.9,1.1-2.4c6.3-4.9,11.4-10.9,15.6-17.7c0.2-0.3,0.5-0.5,0.6-0.8
		c-0.6,7.7-0.2,15.1,1.3,22.6c0.7,3.4,1.5,6.7,2.4,10c0.5,2.3,1.2,4.5,2,6.7c0.3,0.9,0.7,1.9,1.2,2.7c0.2,0.6,0.5,1.2,0.7,1.8
		c0-0.2,0-0.4,0-0.6c1.3,1.9,2.9,3.5,5,4.3c3,2.8,7.4,4,11.4,4.7c1.5,0.3,2.8-0.9,2.5-2.5c-0.6-2.5-1.1-5-1.5-7.6
		c0.1-0.2,0.1-0.4,0.2-0.6c0,0.2,0.1,0.5,0.1,0.7c0.2,0,0.3,0,0.5-0.2c1.4-6.3,2.7-12.6,4.1-18.9c2.1,0.8,3.8,1.3,5.4,2.1
		c3,1.4,6.2,2.5,8.8,4.4c6.8,4.9,11,11.7,12.8,19.7c0.9,4.1,1.6,8.4,1.7,12.6c0.3,7.7,0.3,15.5-1.9,22.9c-2.1,6.6-3.2,13.4-4.1,20.2
		c-0.6,4.9-2.2,9.5-4.1,13.9c-0.3,0.8-0.5,1.6-0.6,2.5c-1.1,4.7-2.4,9.3-3.3,14c-0.3,1.6-0.5,3.2-0.8,4.7c0.2,0,0.5,0.2,0.6,0.2
		c0.2-0.5,0.5-0.9,0.6-1.4c0.6-2.1,1.1-4.3,1.6-6.3c0.9-4.3,1.4-8.8,3.2-12.8c2.8-6.9,4.1-14.2,5.2-21.6c0.3-2.5,0.6-4.9,1.4-7.4
		c1.6-5,2.7-10.1,3.2-15.3C555.2,317.9,555.2,310.2,553.9,302.8z M528.1,237.3c0.2,1.2,0.3,2.3,0.4,3.5c0-0.1-0.1-0.2-0.1-0.3
		C528.3,239.4,528.2,238.3,528.1,237.3C528.1,237.3,528.1,237.3,528.1,237.3z M482.9,169c-0.4,0-0.7,0-1.1,0c0,0-0.1,0-0.1,0
		c-0.3,0-0.6-0.1-0.8-0.1C481.6,168.9,482.3,168.9,482.9,169z M475.4,285c-0.9,3.6-2.4,7.1-4.4,10.3c-7.4,10.3-12.3,22.2-17.5,34.2
		c-3.5,8-7.7,15.6-13.4,22.6c-3.9,4.7-7.1,10.1-10.7,15c-2.7,3.6-5.2,7.3-9,9.8c-1.6,1.1-2.8,1.1-4.3,0.2c-3.2-2.2-5.5-5.2-6.9-8.8
		c-0.8-1.9-1.1-4.1-1.6-6.2c-1.6-6.5-1.1-12.9-0.9-19.4c0-2.4,0-4.9,0.2-7.3c0.5-4.7,1.1-9.3,1.4-14c0.3-4.3,0.6-8.4,0.6-12.6
		c0.2-6.6,0.3-13.2,1.9-19.7c1.4-5.5,3.8-10.7,7.6-15.1c3-3.6,7.1-5,11.7-5.8c5.2-0.9,10.4-2.1,15.6-3.2c2.7-0.8,3.6-0.5,3.8,2.5
		c0.2,3,0.2,6.2,0.5,9.1c0.3,2.7,0.5,5.5,1.6,7.9c2.5,5.8,0.9,10.6-2.7,15.1c-2.5,3.3-5.4,6.2-8.5,8.8c-1.6,1.3-2.7,3.2-4.1,5
		c-0.9-7.1,0.5-14.4-4.9-20.7c0,0.8-0.2,1.3,0,1.4c3.3,4.3,3.3,9.5,3.5,14.5c0.2,8.5,1.4,6.2-5.4,12c-3,2.5-6.5,4.6-9.1,7.6
		c-4.1,4.1-7.4,9-11,13.6c0,0,0,0.3,0.2,0.8c0.6-0.6,1.3-1.1,1.7-1.6c1.9-2.5,3.5-5.2,5.5-7.4c3.6-3.6,7.6-7.1,11.5-10.4
		c2.4-2.1,4.9-3.8,7.3-5.8c1.1-0.9,1.6-2.5,2.5-3.6c2.4-2.7,4.9-5,7.3-7.7c2.7-3.3,5.5-6.6,7.7-10.4c1.7-2.8,2.1-6.2,0.6-9.3
		c-1.9-4.3-2.2-8.8-2.1-13.6c0-1.3-0.2-2.5-0.2-3.8c3.3,2.4,3.6,3.8,2.1,7.6c-0.3,0.6-0.3,1.4-0.5,2.1c0.3,0.2,0.6,0.2,0.9,0.3
		c0.6-1.7,1.4-3.3,1.6-5c1.1-8.4,1.9-16.9-0.5-25.2c-0.2-0.3-0.2-0.8-0.2-1.1v-1.9c1.1-0.2,2.1-0.2,3.3-0.3c1.6,8.7,0.2,17.5,2.2,26
		c0.3,0,0.5,0,0.8,0.2c0.2-0.6,0.3-1.3,0.3-1.9c-0.3-5.2-0.8-10.3-1.3-15.5c-0.3-3-0.6-5.8-0.8-8.8c0-0.6,0.5-1.3,0.8-1.9
		c0.6-1.1,1.3-2.2,2.1-3.6c0.5,1.4,0.9,2.5,1.1,3.6c1.6,8.4,1.7,16.9,1.9,25.2c0,0.6,0.2,1.3,0.8,1.9c0.6-8.4-0.2-16.7-0.9-24.9
		c1.1-0.6,2.2-1.1,3.8-1.9c0.8,4.1,1.7,8.4,2.1,12.6c0.3,4.1-0.2,8.4-0.2,12.5c2.2-4.6,2.2-9.6,1.1-14.5c1.1-0.3,2.1-0.8,3.5-1.1
		c0.5,2.7,1.3,5.2,1.3,7.7C476.6,268.9,477.3,277.1,475.4,285z M454.7,243.3c0.3-0.8,0.8-1.6,1.1-2.4c0.3,0,0.5,0.2,0.8,0.2
		c0.3,0.8,0.6,1.6,1.1,2.4c-0.2,0.2-0.2,0.3-0.3,0.5C456.4,243.8,455.7,243.5,454.7,243.3z M458,238.6c0-0.3,1.4-0.5,2.4-0.6
		c0,0.3,0.2,0.5,0.3,0.8c-0.5,1.1-0.9,2.4-1.4,3.5l-0.8-0.2C458.3,241,457.9,239.7,458,238.6z M464.3,242.1c0.2-0.6,0.8-1.4,1.4-1.7
		c0.2-0.2,0.9,0.6,1.6,1.1l0,0.8c-0.6,0.5-1.4,0.9-2.1,1.4C465,243.2,464.2,242.5,464.3,242.1z M472.5,248.7
		c-0.3,0.3-1.1,0.3-1.3-0.2c-0.3-0.8-0.5-1.9-0.9-2.5c-0.5-0.6,0-1.6,0.8-1.3c0.9,0.3,1.9,0.2,2.8,0h0.5c0,0,0.2,0,0.2-0.2
		c0.8-0.5,1.4,0.6,0.9,1.3c-0.5,0.6-0.8,1.3-1.4,1.7C473.6,247.9,473,248.2,472.5,248.7z M473.8,251.2c0,0.5-0.8,0.9-1.6,1.6
		c-0.5-0.8-0.9-1.4-0.8-1.7c0.2-0.6,0.8-0.9,1.3-1.4C473,250.3,473.8,250.7,473.8,251.2z M494.1,248.2c-3.8,6.8-7.9,12.9-14.2,17.7
		c-0.3,0.3-0.6,0.6-1.1,0.8c-0.2,0.2-0.3,0-0.6,0.2c-0.3-3.2-0.3-6.5-0.8-9.6c-0.3-2.1-0.9-4.1-1.9-6c-0.5-1.3-0.6-2.2,0.2-3.3
		c0.8-1.3,1.3-2.5,2.1-4.1c-2.5-0.5-4.7-0.8-6.9-1.4c-0.8-0.2-1.6-0.6-2.2-1.3c-1.4-1.7-2.7-2.2-5-1.4c-0.5-0.5-0.9-1.1-1.4-1.6
		c0.9-1.6,2.2-0.8,3.2-0.6c1.7,0.2,2.7-0.6,2.8-2.4c0.2-1.7-0.6-2.5-2.7-2.4c0.5,0.3,1.1,0.5,1.4,0.9c0.8,0.9,0.5,2.7-0.6,2.8
		c-2.1,0.3-4.3,0.8-6.3,0.8c-3,0-3.5-1.1-2.5-4.1c0.8-2.2,0.8-4.7,1.1-7.1c0-0.5-0.3-0.9-0.5-1.4h-0.6v1.3c0.3,1.9,0.5,3.5,0,5.5
		c-0.5,1.7-0.9,3.2-1.4,4.7c0.2,0.3,0.2,0.8,0.5,1.1c0.5,0.6,0.2,1.7,0.3,2.7c-0.6,0-0.9,0.2-1.4,0.3c0,0.2,0,0.2,0,0.3
		c0,0.6-0.6,0.9-1.1,0.6c-0.6,0.5-0.8,1.6-1.1,2.7c-3.6-4.3-5.7-15-4.1-21.6c2.1-0.2,4.1-0.2,6-0.5c1.9-0.3,2.2-1.1,1.1-2.7
		c-1.4-2.1-3.3-3-5.7-2.8c-0.8,0-1.4,0.2-2.2,0.2c-0.2-0.3-0.3-0.6-0.3-0.9c0.2-0.8,0.3-1.7,0.5-2.5c0.8,0.5,1.4,0.8,2.2,1.3
		c0.8,0.5,1.4,0.8,2.2,1.3c0.2-0.3,0.3-0.5,0.6-0.8c-1.4-1.3-2.8-2.5-4.1-3.8c-0.5-0.6-1.1-1.4-1.1-2.2c0-2.4,0.2-4.7,0.6-7.1
		c0.8-3,2.2-5.7,5.5-6.5c0.9-0.3,2.1-0.8,3-0.9c3.2-0.9,6-0.3,8.5,2.1c1.4,1.3,3.2,1.9,4.6,3c1.3,0.9,2.8,1.7,3.8,3
		c1.7,2.2,3.3,4.6,4.9,6.9c0.3,0.4,0.4,0.9,0.7,1.4c0,0.1,0.1,0.1,0.1,0.2c-3.6,0.5-7.2,0.9-10.7,1.6c-0.9,0.2-1.7,0.9-2.5,1.7
		c4.7-0.5,9.2-0.9,14-1.6c0.2,0.4,0.3,0.9,0.5,1.3c0.2,0.8,0.3,1.5,0.5,2.3c-2.4,0-4.6-0.2-6.8,0c-1.7,0.2-3.5,0.8-5,1.4
		c-1.9,0.9-1.9,1.7-0.2,3c4.1,3,7.7,2.5,11.4-0.8c0.3-0.3,0.6-0.6,1.1-0.9c0.2,0.5,0.5,0.8,0.6,1.1c2.1,6.9,5.2,13.3,9.3,19.3
		c0.9,1.4,1.8,2.7,2.7,4C495.4,244.8,495.2,246.3,494.1,248.2z M448.7,218.2c0.9-0.5,2.1-0.6,3.3-0.9c-0.3,1.4-0.6,2.4-0.9,3.8
		c-0.8-0.3-1.7-0.6-2.4-1.1C448.4,219.8,448.4,218.4,448.7,218.2z M475.1,216.8v4.1c-2.2,0.6-3.8-0.6-5.4-1.7v-0.8
		C471.4,217.9,473.2,217.3,475.1,216.8z M501.1,238.2c-0.1-0.3-0.2-0.7-0.3-1c0.1,0.1,0.2,0.2,0.3,0.3
		C501.2,237.7,501.2,238,501.1,238.2C501.2,238.2,501.2,238.2,501.1,238.2z M512.8,261c0-0.9,0-1.8,0-2.7c0.1,1.3,0.2,2.6,0.3,3.8
		C513,261.8,512.9,261.4,512.8,261z"/>
	<path class="st0" d="M522.1,381.3c4.3-0.3,8.5-0.8,12.9-1.1c0,0.3,0,0.5,0,0.8c-4.3,0.3-8.5,0.6-12.9,0.9
		C522.2,381.8,522.1,381.5,522.1,381.3z"/>
</g>
</svg>
