<?xml version="1.0" encoding="utf-8"?>
<!-- Generator: Adobe Illustrator 19.2.1, SVG Export Plug-In . SVG Version: 6.00 Build 0)  -->
<svg version="1.1" id="Layer_1" xmlns="http://www.w3.org/2000/svg" xmlns:xlink="http://www.w3.org/1999/xlink" x="0px" y="0px"
	 viewBox="0 0 200 245" style="enable-background:new 0 0 200 245;" xml:space="preserve">
<style type="text/css">
	.st0{fill:#E91E63;}
</style>
<g id="cankersore-lady">
	<path class="st0" d="M200,152.9c-1.2-0.3-2.4-0.4-3.5-0.9c-2.8-1.3-5.5-3-8.5-4c-3.9-1.3-7.6-2.9-11.4-4.3c-0.9-0.4-2-0.5-2.9-0.8
		c-0.9,2.3-1.8,4.5-2.6,6.7c-1.2,3.4-2.2,6.8-3.4,10.2c-1.1,3.1-2.4,6.2-3.7,9.3c-1.8,4.6-3.6,9.1-5.6,13.7
		c-2.2,5.3-5.6,9.8-9.2,14.1c-1,1.2-1.6,2.6-1.2,3.9c1.2,5,1.9,10,3.8,14.8c2.3,5.6,4.4,11.2,6.4,16.9c1.4,3.8,2.5,7.7,3.7,11.5
		c-2.1,1-2.2,1-2.8-0.9c-0.4-1.3-0.8-2.6-1.2-4c-0.9-3.1-1.5-6.4-2.9-9.3c-3.1-6.7-5.4-13.7-7.5-20.8c-0.6-2-0.6-4.2-1.3-6.1
		c-0.9-2.5-2.1-5-3.3-7.4c-0.7-1.4-1.1-2.7-1.2-4.2c-0.1-3.4,0.3-6.8,1-10.1c0.5-2.6,1.2-5.2,1.8-7.8c0.5-1.8,1.3-3.6,1.7-5.4
		c0.5-2.3,0.9-4.6-0.6-6.8c-1.5-2.1-1.5-4.5-1.3-6.9c0.2-2.7,0.1-5.4,0.1-8.1c0-0.3-0.1-0.7-0.2-1c-0.3-1-1.8-1.8-2.8-2
		c-1.1-0.1-2.4-0.2-3.1-0.8c-1.6-1.4-3-3.1-2.8-5.5c0-0.6-0.2-1.2-0.3-1.9c-0.1,0-0.2,0-0.3,0c-1,3.7-1.5,7.5-0.7,11.3
		c0.1,0.7,0.3,1.8,0.6,1.9c1.4,0.3,2.3,2.1,4.1,1.3c0.3-0.1,0.9,0.4,1.4,0.7c-0.4,0.3-0.7,0.9-1.1,0.9c-1.2,0-2.3-0.2-3.4-0.4
		c0,1.5,0.1,3.3,0,5c-0.3,3.3,0.7,6.1,2.5,8.8c1.3,1.9,2,4.1,2.8,6.2c0.2,0.4-0.2,1-0.3,1.5c-0.4-0.3-1-0.6-1.2-1
		c-1.6-4.6-4.4-8.6-7-12.7c-0.7-1.1-1.8-2.1-2.4-3.2c-2.4-4.3-4.8-8.6-7.2-12.9c-0.5-0.8-0.7-1.8-1.1-2.6c-1.3-3.1-2.4-6.3-4.6-9
		c-2.2-2.6-4.2-5.3-6.3-8c-1.1,1.6-2.1,2.7-3.6,3.3c-1.5,0.5-3.1,0.5-4.4-1c0.1,0.3,0,0.5,0.1,0.5c1.6,2.5,3.3,4.9,4.8,7.4
		c1.6,2.6,3.2,5.3,4.6,8.1c0.9,1.7,1.2,2,3.1,1.3c0.6-0.3,1.2-0.6,1.9-0.7c0.4-0.1,0.9,0.3,1.3,0.5c-0.4,0.3-0.7,0.7-1.1,0.8
		c-1.2,0.5-2.4,0.9-3.5,1.3c0.3,1.2,0.6,2.3,0.9,3.3c1,3.6,1.9,7.1,3,10.7c0.5,1.6,1.4,3,2,4.6c0.2,0.4,0.1,1.3-0.2,1.5
		c-0.6,0.4-1-0.1-1.3-0.7c-1-2.2-2.1-4.3-2.9-6.5c-0.5-1.6-1.4-2.9-2.6-4.1c-1.2-1.3-2.5-2.5-4.5-2.8c-1.9-0.3-4.7,0.6-5.2,2.4
		c-0.4,1.4-0.4,3.2,0.2,4.5c1.5,3.4,3.3,6.6,5,9.9c0.6,1.1,1.4,2.2,2,3.4c0.2,0.3-0.2,0.8-0.3,1.3c-0.3-0.1-0.9-0.1-1-0.3
		c-1.6-2.6-3.2-5.1-4.7-7.8c-0.5-0.9-1.1-1.5-1.9-1.9c-1.9-0.9-5.1,0.3-5.3,2.3c-0.2,2-0.3,4,0.6,6c1.3,3,2.2,6.2,3.2,9.3
		c0.1,0.3-0.3,0.8-0.4,1.2c-0.4-0.2-0.9-0.3-1.1-0.6c-0.3-0.6-0.5-1.4-0.7-2c-0.7-2.2-1.5-4.3-2.2-6.5c-0.1-0.3-0.3-0.7-0.6-0.8
		c-2-0.8-5.1,1.4-4.8,3.4c0.4,2.3,0.4,4.7,0.8,6.9c0.6,3.6,1.8,7,4.7,9.6c5,4.5,9.8,9.2,14.7,13.8c2.5,2.4,4.9,4.8,6,8.2
		c1.3,4.1,2.7,8.2,3.8,12.3c0.9,3.4,1.5,6.9,2.4,10.3c0.4,1.6,0.9,3.2,1.3,4.9c-1,0-2.1,0.6-2.4-1c-0.7-3.1-1.3-6.2-2.1-9.3
		c-0.2-0.7-0.6-1.3-0.9-1.9c-0.4,0.3-0.9,0.6-1.3,0.9c-3.8,3-7.7,6-11.5,9c-0.2,0.2-0.5,0.3-0.7,0.3c-2,0-3.9,0-5.9-0.1
		c-0.3,0-0.6-0.2-0.8-0.5c-2.1-2.5-3.9-5.2-6.2-7.6c-2-2.2-4.5-4-6.6-6.1c-3.1-3.1-6.8-5.3-10.4-7.6c-2.2-1.4-4.1-3.1-4.9-5.8
		c-0.8-2.6-1.8-5.2-2.7-7.8c-0.8-2.5-2-5.1-2.4-7.7c-0.9-6.1-1.5-12.2-2-18.3c-0.5-5.4-1-10.8-1.2-16.2c-0.1-4.7,0.1-9.4,0.6-14
		c0.4-3.7,1.3-7.2,1.9-10.9c0.1-0.4,0.1-0.9,0.1-1.5c-0.8,0.2-1.4,0.2-2,0.4c-2.2,0.7-4.5,1.3-6.7,2c-2.7,0.8-5.4,1.5-7.9,2.5
		c-2.4,1-4.8,2-7.4,2.8c-3.7,1.1-7.2,2.7-10.8,4.1c-1.5,0.6-3.1,0.8-4.5,1.5c-2.2,1.2-4.2,2.6-6.3,4c-0.8,0.5-1.5,1-2.3,1.5
		c-0.7,0.5-1.5,0.9-2,1.5c-1.1,1.4-2.1,2.8-3.1,4.3c-0.5,0.7-1.1,1.5-1.5,2.3c-0.8,1.7-1.4,3.5-2.3,5.1c-1.1,1.8-0.9,3.4,0.2,5
		c1.4,2,2.5,4.2,4.5,5.9c1.3,1.1,2,2.9,2.8,4.4c1,2,1.8,4.2,3,6.1c0.8,1.4,1.9,2.7,3,4c1.8,2.2,4,4.1,5.6,6.4
		c2.2,3.3,4.6,6.2,7.5,8.9c0.7,0.7,1.6,1.2,2.4,1.8c0.1-0.1,0.2-0.1,0.3-0.2c0-0.4,0-0.8-0.1-1.2c-0.2-1.1-0.5-2.2-0.6-3.3
		c-0.1-3.1,0-6.2,0.8-9.3c0.2-0.7,0.3-1.4,0.3-2c0.1-8.1,0.3-16.3-1.7-24.2c-0.5-2.2-1.5-4.2-2.3-6.4c-0.1-0.4-0.3-0.8-0.4-1.3
		c0.5,0,1.4-0.1,1.6,0.2c1,1.3,2.2,2.7,2.6,4.3c0.9,3.1,1.5,6.3,2,9.5c0.8,5.7,0.6,11.4,0.2,17c-0.2,2.7-1.2,5.3-0.7,8.1
		c0.1,0.3,0.2,0.6,0.3,0.9c0.2-0.2,0.5-0.5,0.5-0.7c0.5-2.7,1.5-5.1,3.3-7.2c1.2-1.4,2.4-2.9,3-4.6c1.4-3.9,2.5-8,3.6-12
		c0.3-1.1,0.9-1.7,2-1.6c0,0.1,0.1,0.3,0,0.4c-0.6,3.2-1,6.4-1.8,9.5c-0.9,3.6-2.3,6.9-5.1,9.5c-1.7,1.6-2.9,3.8-3.5,6.1
		c-0.5,1.8-1.1,3.7-1.7,5.5c-0.4,1.2-0.6,2.5-0.2,3.7c0.6,1.9,1.4,3.7,1.9,5.6c0.6,2.2,1.9,4.3,1.2,6.8c-0.4,1.4-0.3,2.9-0.4,4.4
		c-0.1,2.3,0,4.5,0,7c-1.2-0.2-2.2-0.4-3.1-0.6c0.1-2.1,0.2-4.1,0.3-6c0.1-2.5,0.3-5,0.1-7.5c-0.1-2.2-0.6-4.5-2.1-6.2
		c-1.2-1.4-2.7-2.5-4-3.8c-2.3-2.2-4.7-4.2-6.5-7c-1.9-2.8-4.1-5.4-6.3-8.1c-1.1-1.3-2.5-2.5-3.3-4c-1.4-2.4-2.4-4.9-3.7-7.4
		c-0.3-0.7-0.6-1.4-1-2c-1-1.3-2.1-2.5-3-3.8c-1.1-1.4-2.1-2.8-3.1-4.2c-0.3,1.6-0.1,3.1-0.3,4.5c-0.6,3.6-1.5,7.1-2.1,10.6
		c-0.3,1.6-0.4,3.3-0.3,4.9c0,1.4,0.3,2.8-0.7,4.1C4,197,4,197.4,4,197.7c-0.2,4.1-0.4,8.2-0.7,12.3c-0.2,3.1-0.7,6.1-1.1,9.2
		c-0.2,1.9-0.3,3.8-0.5,5.7c-0.1,0.7-0.1,1.4-0.1,2.2c-0.7-0.3-1.1-0.5-1.5-0.6c0-2.7,0-5.4,0-8.1c0.4-2.1,1-4.2,1.1-6.4
		c0.3-4.2,0.3-8.5,0.5-12.8c0-0.2,0.1-0.4,0.1-0.7c0.3-2.4,0.7-4.9,1-7.3c0.2-1.3,0.2-2.6,0.5-3.9c1-4.7,2.3-9.3,2.1-14.1
		c-0.1-1.3,0-2.7,0.4-4c1-3.2,2.3-6.4,3.5-9.6c1-2.7,2.7-5,5-6.9c0.9-0.8,1.9-1.5,2.8-2.3c0.4-0.3,0.6-1,0.9-1c1.4,0,2.2-1,3.3-1.6
		c2.1-1.1,4.2-2.1,6.3-3.1c3.3-1.5,6.6-3.1,10.1-4.2c4-1.3,8-2.7,11.9-4.2c5.3-1.9,10.8-3.2,16.2-4.7c2.3-0.6,4.7-0.9,7-1.5
		c1.6-0.4,3.2-1,4.6-1.5c-0.9-1.9-1.8-3.5-2.4-5.3c-1.7-5.1-3.1-10.3-4.8-15.4c-1.5-4.3-3.4-8.6-5.2-12.8c-1.6-3.7-2-7.5-1.2-11.3
		c1.1-5.2,1.1-10.4,0.8-15.6c-0.1-1.5-0.6-3-1.8-4.2c-0.8-0.9-1.4-2-1.9-3.1c-0.7-1.5-1.3-3.1-1.9-4.6c-0.9-2.2-1.5-4.5-1.5-7
		c0-1.9,0.4-3.7,1-5.5c0.9-2.9,1.2-6,2.9-8.6c1.1-1.8,2-3.7,3-5.5c1.1-2,2.2-4.1,3.5-6c0.6-1,1.9-1.6,2.4-2.6
		c0.8-1.5,1.9-2.7,3.1-3.9c1.4-1.4,2.6-3,4-4.4C80.1,10,83.5,8,87,6.1c2.3-1.3,4.9-2,7.4-2.9C95.9,2.7,97.5,2.4,99,2
		c1.2-0.3,2.3-1,3.5-1.2c4.1-0.6,8.2-0.6,11.5,2.6c0.1-0.1,0.3-0.2,0.4-0.3C117.7,1,121.2-0.1,125,0c1.9,0,3.8,0.1,5.6,0.1
		c2,0,3.9,0.2,5.6,1.5c2.9,2.3,5.9,4.5,8.7,6.9c2,1.7,3.6,3.7,4.8,6.1c1.6,3.3,3.3,6.5,5,9.7c1.7,3.3,4,6.3,4.3,10.3
		c0.2,2.9,1.4,5.7,1.9,8.5c0.6,3.1,0.9,6.3,1.3,9.5c0.2,1.7,0.5,3.4,0.9,5c0.6,2.2,1.3,4.4,1.2,6.8c-0.1,2.2,0,4.5,0,6.8
		c0,3.4,0,6.8,0,10.2c0,2.3-0.3,4.5-0.9,6.7c-1.4,5-0.8,10,0.1,15c0.6,3.1,1,6.3,1,9.4c0,3.1,0,6.1,0.2,9.2c0.3,4.1,1,8.2,2.6,12
		c0.7,1.6,1.4,3.2,3,4.3c0.2,0.2,0.4,0.6,0.4,0.9c-0.1,0.7,0.4,0.9,0.9,1.1c5,1.7,9.9,3.4,14.8,5.2c2.1,0.8,4.4,1.4,6.3,2.5
		c2.3,1.2,4.5,2.5,7,3C200,151.5,200,152.2,200,152.9z M146.4,77.3c2.4,1.9,0.6,3.8-0.2,5.7c0.3,0,0.6,0.2,0.7,0.1
		c1.5-1,3-2,4.5-2.9c0.6-0.4,0.9-0.9,0.5-1.6c-0.4-0.6,0-1,0.4-1.2c0.4-0.2,1.1-0.5,1.3-0.3c0.3,0.3,0.6,0.9,0.5,1.4
		c-0.1,2.2-1.6,3.4-3.4,4.3c-2,1.1-3.9,2.2-5.6,3.9c-0.8,0.8-2.1,1.1-2.9,1.9c-0.6,0.5-0.9,1.4-1.1,2.2c-0.1,0.4,0.4,1.3,0.8,1.4
		c1.3,0.4,2.6,1.1,4.2,0.6c2.7-0.8,4.5-2.3,5.8-4.6c1.1-1.9,2.6-3.7,3.7-5.7c0.9-1.5,1.5-3.1,2.2-4.7c0.4-0.9,0.8-1.9,1.4-3.1
		c-1.4-0.1-2.6-0.4-3.9-0.3c-2.5,0.1-4.7-0.9-6.7-2.1c-2.6-1.6-4.9-3.5-7.4-5.1c-2.8-1.9-5.8-3.7-8.6-5.8c-2.6-1.9-5-4.2-7.4-6.3
		c-0.8-0.7-1.7-1.5-2.4-2.4c-3-4.3-6.3-8.4-8.7-13.1c-1.5-3-3.7-5.7-5.5-8.6c-1.8-2.9-3.1-6.2-3.2-9.8c0-2.5,0.4-4.8,1.3-7
		c0.6-1.3,1.8-2.4,2.9-3.5c0.6-0.6,1.4-1,2-1.5c0.2-0.2,0.2-0.9,0-1.2c-0.2-0.3-0.8-0.5-1.1-0.4c-2.9,1.2-5,3.3-6.2,6.2
		c-1.4,3.3-1.4,6.7-1.2,10.1c0.1,0.9,0.4,1.8,0.6,2.6c-2.8,0.5-5.4,0.8-8,1.4c-3.3,0.7-6.2,2.2-8.6,4.7c-3.2,3.4-6.7,6.4-10.8,8.7
		c-3.4,1.9-6.1,4.7-8.6,7.7c-0.5,0.6-0.7,1.4-1,2.2C66,54.1,65.7,57,65.7,60c0,1-0.1,2-0.2,3.2c2.1-1.2,4.3-1.5,6.5-1.6
		c3.5-0.1,6.6,1.2,8.8,3.8c2.2,2.7,4.3,5.6,4.1,9.6c-0.2,4,0.1,8.1-1.4,12c-0.9,2.4-1.7,4.9-2.5,7.3c-0.2,0.6-0.3,1.3-0.4,1.9
		c-0.2,1.1,1,2.9,2.2,3.1c1.7,0.3,3.4,0.4,5.1,0.4c0.4,0,0.8-0.4,1.1-0.7c1.6-2.1,3.6-2.4,5.7-0.7c0.6,0.5,2.7,0,3.4-0.8
		c1.2-1.2,1.1-3.3-0.4-4.4c-0.7-0.6-1.6-1-2.4-1.5c-0.3-0.2-0.5-0.5-0.7-0.7c0.3-0.1,0.6-0.4,0.8-0.4c2.7,0,5.6,4,4.6,6.4
		c-0.5,1.2-1.3,2.2-2.7,2.5c-1.9,0.5-3.8,1-5.7,0c-0.7-0.3-1.2-0.1-1.8,0.6c-0.4,0.5-1.1,1-1.7,1c-1.9,0-3.9-0.1-5.8-0.4
		c-1.6-0.2-3-2.1-3-3.7c-0.1-2.9,0.9-5.5,2-8.1c1.5-3.5,2.2-7.1,2.1-10.9c0-1.5-0.2-1.6-1.6-1.3c-2.3,0.5-4.4,1.4-6.8,1.2
		c-1.5-0.1-2.8-0.3-3.9-1.2c-1-0.8-2-1.7-3-2.6c0.3-0.3,0.7-0.5,0.9-0.8c1.8-3,4.7-3,7.6-2.5c1.6,0.3,3.2,0.8,4.9,1.3
		c-1.2-1.8-2.9-2.6-5-2.8c-0.9-0.1-1.8-0.1-2.6-0.3c-0.3,0-0.5-0.4-0.7-0.7c3.9-0.4,6.6-0.2,9.9,3.6c0.1,0,0.2-0.1,0.3-0.1
		c-0.8-1.4-1.5-3-2.6-4.2c-0.4-0.5-1.7-0.2-2.6-0.4c-2.2-0.4-4.4-1-6.7-1.4c-1.9-0.3-3.8-0.3-5.7-0.5c1.1,6.4,1.1,12.4-0.1,18.5
		c-0.7,3.6-0.6,7.1,1,10.6c1.8,3.9,3.5,7.7,4.9,11.7c1.9,5.4,3.5,10.8,5.1,16.3c0.8,2.8,2.6,5.1,4.2,7.5c0.7,1,1.5,2,2,3.1
		c1.3,2.4,3.1,4.4,5.3,5.9c1.5,1.1,3.5,1.7,5.4,2c2.4,0.3,4.9,0.4,7.2,0c2-0.4,3.8-1.6,5.7-2.5c0.6-0.3,1.1-0.7,1.8-1.2
		c-0.6-0.9-1.1-2-1.8-2.8c-1.8-1.8-3-3.9-4.1-6.2c-0.2-0.4-0.5-0.8-0.7-1.2c-2,0.2-4,0.8-6,0.6c-3.6-0.3-7.2-1.1-10.5-2.9
		c-3.1-1.6-4.4-4.1-4.4-7.5c0-0.8-0.4-1.7-0.6-2.5c-0.2-0.7-0.6-1.3-0.7-2c-0.3-1.5,0.1-2.8,1.6-3.6c0.8-0.4,1.4-1,2.2-1.5
		c1.9-1.1,3.9-0.9,5.8-0.2c0.4,0.2,1.1,0.4,1.4,0.3c1.5-1,3.2-0.8,4.8-0.5c3.5,0.5,7,1.2,10.2,2.8c1.4,0.7,2.7,1.3,4.1,1.9
		c0.1-0.1,0.2-0.1,0.2-0.2c-1.2-1.6-2.4-3.1-3.6-4.7c0.1-0.1,0.1-0.2,0.2-0.3c0.3,0.1,0.7,0,0.9,0.2c3.1,3.3,5.5,7,6.7,11.4
		c0.2,0.7,0.1,1.4,0.2,2.1c-0.1,0.1-0.3,0.1-0.4,0.2c-0.2-0.3-0.4-0.6-0.6-0.9c-0.5-1.4-0.9-2.8-1.3-4.2c-0.1-0.3-0.4-0.6-0.5-1
		c-0.1,0-0.2,0-0.3,0c-0.1,1.9-0.5,3.8-0.3,5.6c0.1,1.1,1.1,2.1,1.9,3c1.9,2.2,3.8,4.3,5.8,6.5c2.6-1.2,4.5-3.5,6.5-5.8
		c2.5-3,5-6.1,7.6-9.1c2.1-2.5,3.6-5.2,4.1-8.5c0.7-4.1,1.5-8.2,3-12c0.4-1,0.6-2,0.4-3.1c-0.3-1.7,0.5-3,1.9-4
		c1-0.7,2.4-1.2,2.7-2.6c0,0,0.1-0.1,0.1-0.1c0-1.7,0.9-3.1,1.5-4.6c0.3-0.8-0.3-1.4-1.2-1.5c-0.6-0.1-1.3-0.2-2.2-0.4
		C143.6,76.8,145.4,76.5,146.4,77.3z M96.4,162.4c1.6-1.9,3.6-2.8,6.1-2.3c0-0.2,0.1-0.4,0-0.5c-1.2-2-1.2-4.2-1.1-6.4
		c0-0.5,0.2-1,0.5-1.4c2.5-2.6,4-3.7,7.7-2.5c1.5,0.5,2.9,1.6,4.2,2.4c0.1-2.5-2.6-10.1-4.8-13.1c-1.9,1-3.8,1.9-5.6,3
		c-2.3,1.5-4.9,1.5-7.5,1.2c-2.2-0.2-4.5-0.2-6.6-1.3c-1.1-0.6-2.3-1.2-3.3-2c-2.8-2.2-4.7-5.2-6.4-8.2c-0.6-1-1.2-0.9-2.2-0.6
		c-1.9,0.6-3.8,1-5.7,1.5c-1.1,0.3-2.2,0.5-3.2,1c-0.3,0.1-0.6,0.8-0.7,1.2c-0.6,3.5-1.4,7.1-1.7,10.6c-0.5,5.3-0.9,10.7-0.8,16.1
		c0,5.2,0.6,10.4,1,15.5c0.4,4.4,0.8,8.7,1.3,13c0.4,4.1,1.3,8,2.9,11.8c1,2.4,1.8,4.9,2.6,7.3c1,3.1,2.6,5.6,5.9,6.7
		c1.1,0.4,2.1,1.1,3,1.8c3.4,2.8,6.6,5.8,10,8.6c2.8,2.3,5.3,4.9,7.5,7.8c0.3,0.4,0.5,1,0.9,1.3c0.6,0.4,1.3,0.7,1.9,0.6
		c0.3,0,0.8-0.8,0.9-1.3c0.6-3.6,1.1-7.2,1.6-10.8c0-0.1,0-0.3,0.1-0.3c0.3-0.4,0.6-0.7,0.9-1.1c0.3,0.4,0.9,0.7,0.9,1.1
		c0,1.8-0.1,3.5-0.2,5.3c-0.2,1.8-0.5,3.5-0.6,5.3c0,0.3,0.2,0.7,0.4,1c0.1,0.1,0.6,0,0.8-0.2c3.8-3,7.6-6,11.4-9
		c0.3-0.2,0.4-0.9,0.3-1.2c-1-3.6-2-7.2-3.1-10.7c-0.7-2.1-1.6-4.1-3.3-5.7c-4.5-4.3-8.9-8.6-13.4-12.9c-1.2-1.1-2.5-2.2-3.7-3.3
		c-2.2-2-3.8-4.3-4.3-7.3c-0.6-3.2-1.1-6.4-1.6-9.6c-0.4-2.8,1.3-4.5,3.6-5.6c0.7-0.3,1.6-0.3,2.5-0.4
		C95.8,166.7,94.8,164.4,96.4,162.4z M122.6,138.3c1.1,2.6,2.2,5.1,3.7,7.5c1.5,2.4,2.6,5,4,7.5c0.9,1.5,2,2.9,3.2,4.3
		c0.1-2.5,0.6-4.9-0.3-7.3c-1.9-4.7-1.7-9.4-0.6-14.2c0.5-2.4,2.1-3.9,4.4-4.1c1.4-0.1,3,0.5,3.4,2.4c0.3,1.3,0.6,2.5,0.9,3.8
		c0.4,2,1.5,3.6,3,4.9c1.2,1,1.6,2.3,1.6,3.7c0,3.3,0,6.6-0.1,9.9c0,1.3,0.2,2.5,1,3.6c1.6,2.1,1.3,4.6,1.1,7
		c-0.2,2.5-1.2,4.8-2.1,7.2c-0.8,2.3-1.1,4.7-1.6,7.1c-0.7,3.2-1.4,6.5-1,9.8c0.1,0.7,0.1,1.5,0.4,2.1c0.6,1.4,1.4,2.8,2.2,4.2
		c2.2-2.9,4.6-5.7,6.5-8.8c1.8-2.9,3.2-6.1,4.6-9.2c1.4-3.1,2.8-6.3,4.1-9.5c1.9-5,3.8-10,5.6-15c1.6-4.2,3.3-8.5,4.9-12.7
		c-2.7-1.6-5.4-3.3-8.2-4.7c-2.4-1.2-5-2.1-7.4-3.4c-2-1.1-3.7-2.7-5.6-4c-5-3.4-6.9-8.7-8.7-14c-0.7-2.3-0.4-5-0.3-7.5
		c0.2-3.7,1.6-7.1,2.4-10.7c0.2-0.9,0.3-1.8,0.4-2.7c0-0.3-0.3-0.8-0.7-1c-0.7-0.3-1.5-0.5-2.5-0.7c-0.4,1.4-0.9,2.7-1.2,4.1
		c-0.8,3.5-1.6,7-2.3,10.6c-0.5,2.8-2.1,5-3.7,7.1c-2.7,3.5-5.6,6.8-8.4,10.2c-1.6,1.9-3.2,3.8-5.4,5.1c-0.3,0.2-0.5,0.4-0.5,0.4
		C120.5,133.6,121.7,135.9,122.6,138.3z M100.5,123.4c0-0.7,0.1-1.4,0.1-2c-2.9,0-5.8-0.2-8.6,0.1c-4.5,0.4-8-1.8-9.2-6.1
		c-0.3-1-0.6-2-0.2-3.1c0.2-0.7,0.6-1.1,1.2-1.2c1.5-0.3,3-0.6,4.5-0.7c4,0,8,0.1,11.9,0.2c0.9,0,1.9-0.2,2.8-0.5
		c-3.4-1.4-6.9-2.1-10.5-2.2c-0.7,0-1.3,0.5-2,0.7c-0.5,0.1-1.2,0.2-1.6-0.1c-2.2-1.1-4.3-1.1-6.2,0.6c-0.3,0.2-0.6,0.4-0.9,0.6
		c-1.6,1-1.7,1.7-1.1,3.5c0.5,1.6,0.7,3.2,1.1,4.9c0.4,2,1.1,3.8,3,4.9c3.2,2,6.8,2.8,10.5,3.2c1.8,0.2,3.6-0.3,5.4-0.5
		C100.6,124.8,100.5,124.1,100.5,123.4z M90.8,120.2c2.4,0,4.8,0,7.3-0.1c1.3-0.1,2.6-0.4,3.7-0.9c2.5-1.1,4.7-3.2,6.2-5.7
		c-7.7,3-15.7,2.9-23.8,1.9C84.7,118.7,88.2,120.2,90.8,120.2z M107.3,111.8c-1.7-1.1-3.5-0.8-5.4-0.5c-2.5,0.4-5.1,0.3-7.6,0
		c-3.4-0.3-6.7,0.1-10.1,0.6c-0.9,0.1-0.7,0.8-0.7,1.3c0,0.3,0.4,0.8,0.7,0.9c0.7,0.2,1.4,0.3,2.1,0.3c4.6,0,9.2,0.1,13.8-0.2
		c2.6-0.2,5.2-1.2,7.8-1.9c0-0.1,0-0.2,0-0.3C107.8,112,107.5,112,107.3,111.8z M103.7,124.1c1.3,1.2,2.8,1.3,4.2,0
		c0.4-0.4,1.2-1,1.1-1.3c-0.4-0.9-0.9-2-1.7-2.4c-1-0.6-2.2-1.4-3.6-0.6c-1.4,0.8-1.7,2-1.6,3.3
		C102.7,123.4,103.2,123.7,103.7,124.1z M139.1,135.4c-0.4-1.8-0.9-2.1-2.6-1.7c0.2,1.5,0.1,3.1,0.6,4.5c0.4,1.2,1.4,2.3,2.3,3.3
		c0.2,0.3,0.9,0.2,1.4,0.4C140.1,139.6,139.6,137.5,139.1,135.4z M106,118.1c1,0.4,1.9,0.9,3,1.3c-0.1-1.8,1.1-3.4,0.5-5.5
		C108.2,115.5,107.1,116.8,106,118.1z M73.4,72.4c-1,0-2.6,0.8-2.8,1.5c-0.1,0.2,0,0.6,0.1,0.7c1.1,0.9,2.1,1.8,4,2
		C73.5,75.3,72.9,74,73.4,72.4z M79.7,76c0.9-0.3,1.7-0.5,2.5-0.8c-0.2-1.1-1.1-2-2.3-2.2C79.8,74,79.7,75,79.7,76z"/>
	<path class="st0" d="M200,200.7c-0.5,0.3-1.1,0.4-1.4,0.8c-1.6,2.5-3.9,4-6.6,5.1c-1.4,0.6-2.6,1.7-3.9,2.5
		c-0.2,0.1-0.5,0.2-0.7,0.2c-0.1-0.1-0.2-0.4-0.2-0.7c0.1-0.4,0.2-0.8,0.4-1.1c1.9-2.9,2.8-6.2,3.9-9.4c1.6-4.7,3.2-9.3,4.9-13.9
		c0.3-0.8,0.3-1.5-0.5-1.9c-0.3-0.1-1.1,0.5-1.3,1c-1.4,3.7-2.8,7.5-4.2,11.2c-1.9,5.2-3.7,10.3-6.4,15.2c-0.1,0.2-0.3,0.4-0.3,0.6
		c-0.3,2.5-2.1,4.1-3.4,6c-1.3,2-2.4,4.1-3.4,6.2c-1.8,3.5-4,6.6-6.4,9.7c-2,2.6-2.9,5.6-3.4,8.8c-0.2,1.2-0.4,2.3-0.6,3.6
		c0.9,0.1,1.7,0.2,2.5,0.3c0.2-1,0.5-1.9,0.6-2.8c0.2-2.9,1.6-5.4,2.7-7.9c0.6-1.3,1.5-2.4,2.3-3.6c2.5-3.5,4.6-7.3,6.4-11.2
		c0.9-1.9,2.1-3.6,3.9-4.7c0.6-0.4,1.1-1,1.6-1.6c1.6-1.9,3.5-3.4,5.8-4.3c3.1-1.2,5.6-3.2,7.6-5.9C200,202.2,200,201.5,200,200.7z"
		/>
	<path class="st0" d="M119.5,74.9c-1,0.4-2.1,0.7-3,1.1c-5,2.3-10.1,1.8-15.2,0.1c-0.4-0.1-0.8-0.8-0.7-1.2c0.2-1.2,0.4-2.4,0.9-3.5
		c0.5-1.2,1.1-2.8,2.7-2.8c2.6,0,5.2,0.2,7.7,0.6c1.9,0.4,3.8,1.3,5.7,2c0.7,0.3,1.5,0.5,2.2,0.9c0.2,0.1,0.3,0.6,0.4,0.9
		c-0.4,0-0.7,0-1.1-0.1c-0.7-0.2-1.3-0.5-2-0.7c-0.9-0.3-1.9-0.5-2.7-0.9c-3.1-1.7-6.5-1.7-9.9-1.6c-1.3,0.1-2.4,2-2,2.9
		c1-0.6,2.1-1.5,3.2-1.7c2.1-0.3,4.2-0.1,6.2,0.6c2.5,0.9,5,1.8,7.5,2.8C119.5,74.5,119.5,74.7,119.5,74.9z M106.3,72.1
		c-0.6,0.3-1.3,0.5-1.8,0.9c-0.5,0.3-1,0.8-1.5,1.2c-0.6,0.5-0.6,1,0.2,1.2c1.2,0.3,2.4,0.5,3.6,0.7
		C106.6,74.7,106.5,73.6,106.3,72.1z M116.6,74.9c-1.1-1.4-2.4-1.2-3.6-1.6c-0.2,0.9-0.4,1.6-0.6,2.7
		C114,75.6,115.2,75.3,116.6,74.9z"/>
	<path class="st0" d="M110.3,60.8c-3,0.4-6.4,0.9-9.8,1.3c-0.6,0.1-1.2,0-1.7,0c-1.2,0.1-2.4,1.1-2.4,2.3c0,0.3,0.6,0.9,0.9,0.9
		c2.4,0.2,4.9,0.3,7.4,0.3c0.5,0,1.1-0.3,1.6-0.6c1.5-1.3,3.3-1.9,5.2-2c2.5-0.2,4.9-0.2,7.3,0.6c0.7,0.3,1.4,0.6,2.2,0.8
		c0.3,0.1,0.8-0.1,1.1-0.1c-0.1-0.3-0.2-0.8-0.5-1c-1.3-1.1-2.9-1.5-4.5-1.7C115,61.2,112.9,61,110.3,60.8z"/>
</g>
</svg>
