<?xml version="1.0" encoding="utf-8"?>
<!-- Generator: Adobe Illustrator 19.1.0, SVG Export Plug-In . SVG Version: 6.00 Build 0)  -->
<svg version="1.1" id="Layer_1" xmlns="http://www.w3.org/2000/svg" xmlns:xlink="http://www.w3.org/1999/xlink" x="0px" y="0px"
	 viewBox="0 0 120 117.2" style="enable-background:new 0 0 120 117.2;" xml:space="preserve">
<style type="text/css">
	.st0{fill:#00BCD4;}
</style>
<g id="coldsore-recom">
	<path class="st0" d="M20.1,73.2c0.5,0.2,1.1,0.5,1.6,0.7c0.8,0.2,1.1,0.6,0.8,1.4c-0.2,0.5-0.4,1-0.7,1.4c-0.7,0.9-1.2,0.8-2.7,0.4
		c-0.2-0.1-0.4-0.1-0.6-0.2c0,0-0.1,0.1-0.1,0.1c0.5,0.4,0.9,0.8,1.5,1.1c2.1,1.4,4.4,2.4,6.9,3.1c2.2,0.7,4.4,1.6,6.6,2.4
		c0.6,0.2,1.2,0.4,1.8,0.6c0.1,0,0.3,0.1,0.4,0.2c0.1,0.1,0.2,0.3,0.2,0.5c-0.2,0-0.4,0.1-0.6,0.1c-2.4-0.9-4.7-1.8-7.1-2.6
		c-1.4-0.5-2.8-0.8-4.2-1.3c-0.7-0.2-1.3-0.7-1.9-0.9c-1.6-0.6-2.9-1.7-4.1-2.9c-0.4-0.4-1-0.5-1.5-0.8c-0.4-0.2-0.9-0.5-1.3-0.9
		c-1-1-2-2.2-3-3.2c-0.5-0.5-1.3-0.9-1.6-1.6c-0.4-0.8-0.8-1.6-1.2-2.4c-0.4-0.8-1-1.3-1.6-1.8c0,0-0.1,0.1-0.1,0.1
		c0.1,0.2,0.1,0.4,0.2,0.5c0.6,1.1,0.6,2.3,0.5,3.6c0,0.2-0.2,0.4-0.4,0.6c-0.1,0.1-0.3,0.2-0.4,0.3c-0.9,0.6-1,0.8-0.4,1.8
		c0.4,0.7,0.9,1.4,1.2,2.2c0.7,1.8,1.8,3.3,3.1,4.7c0.7,0.8,1.4,1.3,2.3,1.7c0.7,0.4,1.3,0.8,1.9,1.2c0.1,0.1,0.1,0.4,0.2,0.6
		c-0.2,0-0.5,0.1-0.7,0C14,83.6,13,83,11.9,82.3c-0.2-0.1-0.4-0.3-0.6-0.5c-0.5,0.3-1,0.6-1.5,0.9c-0.1,0.1-0.4,0-0.6,0
		c0-0.2,0-0.4,0.2-0.5c0.3-0.3,0.6-0.6,0.9-0.8c-0.3-0.6-0.6-1.1-0.9-1.6c-0.4-0.8-0.9-1.5-1.3-2.4c-0.4-0.8-0.7-1.7-1.1-2.6
		C7,74.6,6.8,74.3,6.6,74c-0.8,0.7-1.3,1.5-1.3,2.5c0.1,2.2,0.2,4.5,0.4,6.7c0,0.5,0.1,1,0.1,1.5c0,1.3,0.7,2.2,1.8,2.5
		c2,0.6,4,1,6.1,1.6c1.2,0.3,2.3,0.6,3.5,0.9c0.1,0,0.3,0.1,0.3,0.1c1.2,0.9,2.7,1,4.1,1.4c1.2,0.3,2.4,0.7,3.6,1
		c1.5,0.4,3,0.7,4.4,1.2c2,0.6,3.8,1.6,5.2,3.2c0.2,0.2,0.4,0.4,0.7,0.6c1.7,0.7,2.6,2.2,3.2,3.9c0.7,2.1,1.5,4.3,2.1,6.5
		c0.8,2.7,1.4,5.5,2.1,8.2c0.1,0.3,0.1,0.5,0.2,0.8c0,0.2,0.3,0.5-0.1,0.6c-0.3,0.1-0.6,0.1-0.7-0.4c-0.2-1.3-0.6-2.6-0.9-4
		c-0.5-2.8-1.4-5.5-2.4-8.1c-0.4-1.1-0.6-2.2-0.9-3.3c-0.3-1-0.8-1.9-1.6-2.7c-0.1-0.1-0.2-0.2-0.3-0.3c0,0-0.1,0-0.2-0.1
		c-0.1,0.2-0.2,0.3-0.2,0.5c-0.4,1-0.9,2-1.3,3c-0.4,0.9-0.8,1.8-1.2,2.7c-1.1,2.4-2.1,4.8-3.2,7.2c-0.4,0.8-1,1.5-1.6,2.2
		c-0.8,1-1.6,2.1-2.5,3.1c-0.2,0.2-0.6,0.2-0.9,0.3c0-0.1-0.1-0.1-0.1-0.2c0.2-0.3,0.4-0.6,0.6-0.9c0.5-0.6,0.9-1.2,1.4-1.8
		c1.3-1.4,2.1-3,3.1-4.6c1-1.8,1.6-3.7,2.3-5.5c0.6-1.5,1.4-2.9,2.1-4.3c0.2-0.5,0.4-1,0.6-1.5c0.1-0.2,0-0.6-0.2-0.7
		c-0.7-0.7-1.4-1.5-2.2-2c-1.7-1.2-3.7-1.8-5.8-2.2c-1.8-0.4-3.5-0.9-5.2-1.3c-0.5-0.1-0.9-0.1-1.4-0.3c-1.2-0.4-2.4-0.8-3.5-1.3
		c-0.3-0.1-0.6-0.3-1-0.4c-2.4-0.5-4.7-1-7.1-1.6c-1.4-0.3-2.8-0.9-3.4-2.4c-0.2-0.6-0.3-1.2-0.4-1.8c-0.2-2.3-0.3-4.5-0.4-6.8
		c0-1-0.1-1.8-0.9-2.5c-0.5-0.4-0.7-1.1-1-1.7c-1.3-2.5-2-5.1-2.4-7.8c-0.1-0.4-0.1-0.9,0-1.3c0.3-1.5,0.3-3,1-4.4
		c0.3-0.6,0.7-1.1,1.2-1.5c0.9-0.9,2.1-1.5,3.3-1.9c2-0.6,4-0.7,5.8,0.3c1.7,0.9,3.4,2.1,4.3,3.9c0.8,1.5,1.7,3.1,2.3,4.7
		c0.8,2,0.9,4.2,0.7,6.4c-0.1,0.4-0.2,0.9-0.3,1.3c0.1,0,0.2,0,0.2-0.1c0.8-0.5,1.7-0.6,2.6-0.4c1,0.3,1.9,0.6,2.9,0.8
		c0.7,0.2,1.3,0.3,2,0.6c0.8,0.3,1.5,0.7,2.2,1c0.7,0.3,1.4,0.8,2.1,1c1.4,0.5,2.8,0.9,4.3,0.9c1.3,0,2.6,0.3,3.9,0.9
		c0.1,0.1,0.3,0.1,0.5,0.2c-0.1-1-0.1-1.9-0.2-2.8c-0.2-1.1-0.5-2.3-0.1-3.4c0.1-0.2,0.1-0.4,0.2-0.5c1.1-1.7,1.9-3.6,2.6-5.5
		c0.8-2.4,2.1-4.6,4-6.3c1.6-1.6,3.4-3,5-4.6c0.5-0.5,0.9-1,1.4-1.5c0.1-0.2,0.1-0.5,0-0.8c-1-2.4-1.4-4.9-2.1-7.3
		c-0.3-1.1-0.7-2.1-1-3.2c-0.3-1.1-0.5-2.3-0.8-3.4c-0.3-1.3,0.1-2.6,0.4-3.9c0.4-1.9,0.6-3.8-0.1-5.7c-0.4-1-0.2-2,0.1-3
		c0.5-1.9,1.2-3.8,1.7-5.7c0.3-1,0.3-2.1,0.5-3.1c0.1-0.7-0.1-1.4-0.4-2c-0.3-0.8-0.1-1.7-0.1-2.6c0-2,1.1-3.4,2.7-4.4
		c1.1-0.7,2.2-1.2,3.4-1.6c1.8-0.7,3.2-1.8,4.5-3.2c0.2-0.2,0.3-0.4,0.5-0.5c1.3-0.6,2.6-1.2,3.9-1.7c1.1-0.4,2.2-0.8,3.3-1.1
		c1.3-0.3,2.7-0.1,3.9,0.4c0.2,0.1,0.4,0.1,0.6,0.1c0.9,0,1.8-0.1,2.7-0.1c0.5,0,0.9,0.2,1.3,0.3c0.7,0.2,1.4,0.4,2,0.7
		C80,2,80.9,2.3,81.9,2.8c0.9,0.4,1.8,0.9,2.7,1.4c0.8,0.4,1.7,0.8,2.4,1.4c3.1,2.7,5.6,5.7,6.8,9.7c0.4,1.2,0.8,2.5,1.1,3.7
		c0.2,0.8,0.2,1.7,0.4,2.5c0.4,2.6,0.4,5.1,0.4,7.7c0,0.2,0,0.5,0,0.7c-0.2,1.4-0.5,2.8-0.8,4.2c-0.2,1.2-0.5,2.3-0.6,3.5
		c-0.1,1.3-0.7,2.3-1.2,3.5c-0.5,1.2-1.1,2.3-2,3.3c-0.4,0.4-0.4,0.8-0.4,1.3c0.2,1.6,0.9,2.9,2,4c1.2,1.2,2.2,2.6,3.1,4.1
		c0.4,0.6,0.9,1.2,1.2,1.8c0.4,0.6,0.7,1.2,1,1.9c1.5,3.2,2.9,6.3,4.4,9.5c0.4,0.8,0.9,1.6,1.3,2.3c0.6,1,1.6,1.5,2.7,1.9
		c1.5,0.7,3.1,1.2,4.7,1.8c0.5,0.2,1,0.4,1.5,0.7c0.7,0.4,1.1,1.1,1.4,1.8c0.4,1.1,0.8,2.1,1.3,3.2c0.2,0.4,0.4,0.8,0.6,1.1
		c0.2,0.4,0.4,0.9,0.7,1.3c0.5,0.8,0.9,1.6,1.4,2.3c0.5,0.7,0.7,1.4,0.9,2.2c0.1,0.6,0.4,1.2,0.5,1.9c0.2,1.1,0.4,2.2,0.5,3.4
		c0.2,2.5,0.3,5,0.3,7.6c0,1.5-0.3,3-0.4,4.6c-0.1,0.9,0,1.8,0,2.7c0,1.1,0.2,2.3,0,3.3c-0.2,1.5-0.9,2.9-1.8,4
		c-1.1,1.3-2.2,2.6-3.3,3.9c-0.2,0.2-0.5,0.2-0.8,0.3c0-0.1-0.1-0.1-0.1-0.2c0.6-0.8,1.2-1.7,1.9-2.5c0.4-0.5,0.9-0.9,1.4-1.4
		c1.3-1.6,2.2-3.3,2.3-5.4c0-0.1,0-0.1,0-0.2c-0.6-1.5,0-3-0.1-4.5c0-0.8,0.1-1.7,0.2-2.5c0.3-2.5,0.3-4.9,0-7.4
		c-0.2-1.6-0.3-3.2-0.5-4.7c-0.2-1.2-0.5-2.4-0.8-3.6c-0.1-0.5-0.5-1-0.8-1.4c-0.3-0.5-0.6-0.9-0.9-1.4c-0.4-0.8-0.9-1.6-1.3-2.4
		c-0.2-0.5-0.4-1-0.6-1.5c-0.5-1.1-0.9-2.2-1.4-3.2c-0.2-0.3-0.5-0.6-0.8-0.8c-0.8-0.4-1.7-0.8-2.6-1.1c-1.7-0.6-3.4-1.1-4.9-2.2
		c-0.1-0.1-0.3-0.1-0.5-0.2c-0.5-0.2-1-0.4-1.5-0.6c-0.9-0.3-1.9-0.7-2.8-1c-0.1,0-0.4,0.1-0.6,0.3c-1.6,1.6-3.1,3.2-4.7,4.7
		c-1.2,1.2-2.5,2.2-3.7,3.4c-0.9,0.8-1.7,1.6-2.6,2.4c-0.1,0.1-0.1,0.1-0.2,0.2c-1,1.2-1.9,2.3-2.9,3.5c-1.8,2.1-3.7,4.3-5.6,6.4
		c-0.8,0.9-1.6,1.9-2.3,2.9c-1.1,1.7-2.5,3.1-4,4.4c-0.9,0.8-1.7,1.8-2.6,2.5c-1.4,1.2-2.9,2.4-4.4,3.5c-1.3,0.9-2.6,1.8-4,2.6
		c-1.8,1.1-3.6,2-5.4,3c-0.3,0.2-0.4,0.4-0.2,0.7c0.5,0.9,1,1.8,1.5,2.7c0.8,1.5,1.6,3,2.3,4.5c-0.6,0.2-0.6,0.2-0.8-0.3
		c-0.8-1.6-1.6-3.4-2.6-4.9c-1.2-1.8-1.7-3.8-2.7-5.6c-0.4-0.8-0.9-1.5-1.2-2.3c-0.7-1.7-1.3-3.5-1.9-5.3c-0.6-2-1.6-3.8-2.3-5.7
		c-0.8-2.1-2.2-3.9-3.2-5.9c-0.5-1-1.1-1.9-1.6-2.9c-0.5-0.9-1.1-1.7-2-2.3c-0.1-0.1-0.3-0.2-0.3-0.3c-0.6-1.1-1.7-1.6-2.6-2.4
		c-0.9-0.8-2-1.1-3.1-1.3c-0.8-0.1-1.7-0.2-2.5-0.3c-1.1-0.2-2.1-0.5-3.2-0.8c-1.1-0.3-2.1-1-3.1-1.5c-0.5-0.3-1.1-0.4-1.7-0.6
		c-0.8-0.3-1.6-0.5-2.4-0.8c-1-0.3-2.1-0.5-3.1-0.8C20.1,73,20.1,73.1,20.1,73.2z M98.8,68.7c-0.2-0.2-0.3-0.3-0.5-0.4
		c-2.1-1.6-4.2-3.3-6.1-5.3c-0.6-0.7-1.3-1.4-1.6-2.3c-0.7-1.6-1.2-3.3-1.8-4.9c-0.2-0.5-0.3-0.9-0.5-1.4c-0.1-0.3-0.3-0.7-0.4-1
		c-0.2-0.8-0.3-1.5-0.5-2.3c-0.1-0.7-0.3-1.4-0.4-2.2c-0.2-1.5-0.4-3-0.6-4.4c0-0.1-0.2-0.3-0.3-0.3c-0.9,0-1.8,0-2.8,0
		c-0.5,1.5-1,2.9-1.4,4.4c-0.4,1.3-1,2.3-2,3.1c-1.4,1.2-2.8,2.4-4.3,3.4c-1.2,0.9-2.5,1.7-3.9,2.3c-2.1,1-4.2,1.7-6.3,2.6
		c-0.3,0.1-0.5,0.2-0.3,0.6c0.3,1.1,0.6,2.3,0.8,3.4c0.1,0.6,0,0.8-0.6,1.1c-0.2,0.1-0.4,0.2-0.5,0.3c-0.6,0.8-1.2,1.7-1.8,2.5
		c-1,1.4-2,2.7-3,4.1c-0.1,0.2-0.3,0.4-0.5,0.6c0.7,0.3,1.3,0.6,1.9,0.7c0.8,0.1,1.6,0.2,2.2,0.8c0.2,0.2,0.7,0.4,0.4,0.8
		c-0.3,0.4-0.6-0.1-0.8-0.3c-0.1-0.1-0.2-0.2-0.4-0.3c-0.3-0.1-0.7-0.2-1.1-0.3c-0.4-0.1-0.8-0.2-1.2-0.3c-0.5-0.1-0.9-0.2-1.5-0.4
		c0,0.5,0.1,0.8,0.1,1.1c0,1.7,0.1,3.3,0,5c0,0.3-0.1,0.7-0.3,1c-0.5,0.9-1.1,1.7-1.6,2.6c-0.2,0.4-0.4,0.8-0.5,1.2
		c-0.2,0.8-0.2,1.5-0.4,2.3c-0.4,1.4-0.8,2.9-1.3,4.3c-0.2,0.7-0.6,1.3-0.1,2c0,0.1,0,0.1,0,0.2c0.2,0.7,0.3,1.4,0.5,2
		c0.6,1.7,1.1,3.5,1.7,5.2c0.6,1.5,1.1,3,1.8,4.5c0.7,1.5,1,1.6,2.5,0.7c1.1-0.7,2.2-1.5,3.3-2.1c2.6-1.6,4.9-3.5,6.9-5.8
		c0.3-0.4,0.8-0.7,1.2-1c0.8-0.7,1.7-1.3,2.2-2.3c0.1-0.2,0.3-0.3,0.4-0.4c0.3-0.3,0.6-0.6,0.8-0.9c1.1-1.3,2.1-2.7,3.2-4
		c1.7-2,3.4-4,5.2-6c1.4-1.6,2.8-3.1,4.2-4.7c0.3-0.3,0.5-0.6,0.9-0.9c-0.6-0.1-1-0.2-1.5-0.2c-1,0-2.1,0-3.1,0
		c-2-0.1-4-0.1-5.9-0.3c-1.6-0.1-3.1,0.2-4.5,0.6c-0.4,0.1-0.8,0.4-1.1,0.6c-0.8,0.7-1.5,1.4-2.2,2.2c-0.1,0.1-0.3,0-0.4,0
		c0-0.1-0.1-0.3,0-0.4c0.2-0.3,0.5-0.4,0.7-0.7c0.7-0.7,1.4-1.4,2-2.2c0.9-1.3,1.2-2.7,0.8-4.2c0-0.2,0-0.3,0-0.5c0.1,0,0.2,0,0.2,0
		c0.7,1.6,0.4,3.1-0.3,4.7c0.1,0,0.2,0,0.2,0c2.1-0.8,4.2-0.8,6.4-0.7c1.5,0.1,3,0.2,4.5,0.2c1.4,0,2.7,0,4.1,0.3
		c0.2,0.1,0.6,0,0.7-0.2c1.3-1.2,2.7-2.4,4-3.6c0.9-0.8,1.7-1.8,2.6-2.6C97.6,69.9,98.2,69.4,98.8,68.7z M83.4,41.3
		c0.1,0,0.2,0,0.3,0.1c0,0.2,0,0.5-0.1,0.7c-0.2,0.7-0.1,1,0.4,1.3c0.7,0.4,1.4,0.5,2.2,0.1c0.3-0.2,0.6-0.3,0.9-0.5
		c1.8-0.9,3.2-2.2,4.2-4c0.6-1,0.9-2.2,1.4-3.3c0.5-1.3,1-2.5,0.7-4c-0.2-1-0.7-1.7-1.5-2.3c-0.2-0.2-0.6-0.2-0.9-0.1
		c-1.5,0.3-2.7,1.1-3.7,2.3c-1.1,1.2-2.1,2.4-3.2,3.5c-0.3,0.3-0.7,0.6-1,0.8c-0.3,0.2-0.7,0.2-1-0.1c-0.7-0.6-1.3-1.3-1.3-2.3
		c0-0.7,0.1-1.4-0.1-2.1c-0.2-1.3-0.5-2.6-0.8-3.9c-0.2-1-0.7-1.9-1.4-2.6c-0.7-0.7-1.5-1.2-2.1-1.9c-0.7-0.8-1.4-1.6-2-2.4
		c-0.1-0.1-0.2-0.4-0.2-0.6c0.1-1.2,0-2.4,0.2-3.5c0.4-1.8-0.2-3-2-3.7c-1.6-0.7-3.3-1.2-4.9-1.9c-0.4-0.2-0.7-0.4-1.1-0.6
		c-0.2-0.1-0.5-0.3-0.8-0.3c-0.5-0.1-1.1,0-1.6,0c-0.8-0.1-1.4,0.1-1.9,0.6c-0.2,0.2-0.4,0.5-0.7,0.7c-0.6,0.5-1.3,0.8-2.2,0.6
		c-0.7-0.2-1.5-0.3-2.2-0.1c-1.7,0.6-3.1,1.7-4,3.3c-0.4,0.6-0.9,1.2-1.2,1.8c-0.2,0.3-0.4,0.7-0.4,1.1c-0.2,0.8-0.2,1.6-0.4,2.3
		c-0.1,0.4-0.3,0.8-0.4,1.2c-0.3,0.8-0.5,1.7-0.7,2.5c-0.2,0.6-0.3,1.1-0.5,1.7c-0.1,0.3,0,0.5,0.4,0.5c0.3,0,0.6,0.1,0.8,0.2
		c0.5,0.3,1,0.5,1.6,0.4c0.3,0,0.7,0.1,0.8,0.3c0.6,0.6,1.1,1.3,1.6,2c1.1,1.4,1.4,2.9,0.9,4.6c-0.6,2-1.5,3.8-2.5,5.5
		c-1,1.7-0.2,3.6,1.4,4.4c0.5,0.3,1,0.1,1.3-0.4c0.1-0.2,0.4-0.5,0.6-0.5c0.7-0.1,1.5-0.1,2.2-0.1c0.2,0,0.5,0.2,0.6,0.4
		c0.3,0.6,0.7,0.5,1.2,0.4c0.5-0.2,0.8-0.5,0.7-1.1c0-0.7-0.5-1-1-1.4c-0.1-0.1-0.1-0.2-0.1-0.4c0.1,0,0.3-0.1,0.4,0
		c0.3,0.3,0.8,0.6,1,1c0.5,1.1,0.3,2.2-1.2,2.5c-0.6,0.1-1.1-0.1-1.5-0.4c-0.5-0.3-1.1-0.2-1.6,0c-0.7,0.3-1.3,0.5-2,0.7
		c-0.3,0.1-0.8-0.1-1.1-0.2c-1-0.6-1.6-1.4-1.9-2.5c0-0.2-0.1-0.3-0.1-0.5c0.2-1.2,0.4-2.3,1.1-3.2c1-1.3,1.5-2.7,2-4.2
		c0-0.1,0-0.3,0-0.4c-0.1,0-0.2,0-0.2,0c-1.6,0.6-3.2,0.5-4.8,0.1c-0.3-0.1-0.4,0.1-0.5,0.3c-0.1,0.5-0.3,1.1-0.4,1.6
		c-0.3,1-0.6,2-0.4,3c0.1,0.6,0.3,1.2,0.4,1.8c0.3,2.1,1,4.1,1.6,6.2c0.4,1.3,0.6,2.6,1,3.9c0.2,0.8,0.5,1.5,0.7,2.3
		c0.1,0.2,0.2,0.4,0.3,0.6c0.2-0.1,0.3-0.2,0.4-0.3c0.5-0.2,0.4-0.4,0.2-0.8c-0.3-0.5-0.6-1.1-0.8-1.6c-0.5-1.5-0.5-2.9,0.5-4.1
		c0.6-0.7,1.2-1.1,2.2-0.5c0.6,0.4,1.2,0.4,1.9,0.2c0.4-0.1,0.9-0.2,1.2,0c2.2,0.8,4,2.2,5.5,3.9c0.3,0.3,0.2,0.4-0.1,0.7
		c-0.9,0.8-1.8,1.7-2.8,2.5c-1.2,1.1-2.6,2.1-4.4,1.7c0,0-0.1,0-0.1,0c-0.1,0.3-0.1,0.6-0.3,0.8c-0.4,0.7-0.9,1.3-1.3,2
		c-0.1,0.2-0.2,0.4-0.1,0.6c0.4,1.1,2.1,2.4,3.3,2.4c0.7,0,1.4,0,2.2,0c1.9,0,3.7-0.5,5.5-1.1c0.9-0.3,1.8-0.8,2.7-1.2
		c1.7-0.6,3.4-1.1,4.9-2.1c1.2-0.8,2.4-1.4,3.5-2.3c1-0.8,1.9-1.6,2.8-2.5c0.5-0.5,1.1-1.1,1.4-1.8c0.7-1.7,1.2-3.4,1.7-5.1
		c0.2-0.5,0.1-1.1,0.2-1.7C83.1,42.2,83.3,41.7,83.4,41.3z M57.8,71.7c0,0,0.1-0.1,0.1-0.1c-0.1-0.4-0.2-0.8-0.4-1.1
		c-0.7-1.2-1.5-2.3-2.6-3c-0.6-0.4-1.3-0.6-2.1-0.7c-0.3-0.1-0.7,0.3-1,0.4c-0.4,0.2-0.7,0.4-1,0.6c-1.6,0.7-3.1,1.3-4.7,2
		c-0.2,0.1-0.4,0.2-0.6,0.3c-0.2,0-0.4-0.1-0.6-0.1c0.1-0.2,0.2-0.4,0.3-0.5c0.1-0.1,0.3-0.1,0.4-0.2c2-1,1.9-0.5,2.1-2.8
		c0.1-1.5,0.5-2.9,1.7-4.1c0.6-0.6,1.1-1.1,1.6-1.7c0.7-0.7,0.7-0.9,0.1-1.7c-0.1-0.1-0.2-0.1-0.2-0.2c0-0.2,0.1-0.4,0.1-0.6
		c0.2,0.1,0.4,0.1,0.5,0.2c0.2,0.2,0.3,0.5,0.5,0.8c0.3-0.3,0.5-0.5,0.8-0.7c1.3-0.9,2.2-2.3,2.8-3.7c0.1-0.2,0.1-0.5,0.1-0.7
		c0,0-0.1,0-0.1,0c-0.2,0.3-0.5,0.6-0.7,0.9c-0.9,1.1-1.9,1.3-3,0.6c-0.2-0.1-0.3-0.2-0.5-0.4c-0.1,0-0.1,0.1-0.2,0.1
		c-1.5,1.4-3.1,2.8-4.6,4.2c-2,1.7-3.3,3.9-4.3,6.3c-0.7,1.8-1.5,3.5-2.2,5.3c-0.3,0.8-0.9,1.5-0.7,2.5c0.3,1.4,0.4,2.9,0.5,4.3
		c0.1,0.5,0,1,0.5,1.3c0.7,0.5,1.5,1,1.9,1.8c0,0.1,0.2,0.2,0.3,0.3c0.6,0.7,1.3,1.3,1.8,2c1.3,2.1,2.5,4.3,3.7,6.5
		c0.6,1,1,2.2,1.5,3.2c0.3,0.7,0.7,1.5,1.1,2.2c0.2,0.4,0.6,0.6,0.9,0.1c0.7-0.9,1.4-1.8,1.9-2.8c0.9-1.8,1.6-3.6,1.9-5.5
		c0.1-0.7,0.4-1.3,0.4-1.9c0-0.9,0.2-1.6,0.7-2.3c0.4-0.5,0.8-1.1,1.1-1.6c0.5-0.8,0.9-1.6,0.8-2.5c0-0.4,0-0.8,0-1.2
		c0-1.2-0.3-1.5-1.4-0.9c-1,0.5-2,1.2-3,1.8c-0.3,0.2-0.6,0.4-0.9,0.5c-0.2,0.1-0.4-0.1-0.6-0.2c0.1-0.1,0.1-0.3,0.2-0.4
		c0.5-0.4,1-0.8,1.5-1.1c1.1-0.7,2.2-1.5,3.6-1.5c0.3,0,0.4-0.2,0.4-0.5c0-0.5-0.1-1-0.1-1.5c0-0.3-0.1-0.6-0.3-0.7
		c-1.5-1.2-2.9-1.3-4.6-0.2c-1.2,0.7-2.4,1.5-3.8,1.8c-0.4,0.1-0.5,0-0.7-0.3c0.1-0.1,0.2-0.2,0.4-0.2c1.4-0.7,2.8-1.5,4.2-2.2
		c1.2-0.6,2.5-0.9,3.8-0.1C57.5,71.6,57.7,71.6,57.8,71.7z M5,74.9c0.6-0.7,1.2-1.3,1-2.2c-0.1-0.5-0.3-1-0.5-1.5
		c-0.4-1.1-0.9-2.2-0.8-3.4c0-0.4,0.1-0.8,0.5-1c0.7-0.2,1.4-0.4,2.1-0.5c0.2,0,0.4,0.1,0.6,0.2c1,0.6,1.6,1.5,2,2.6
		c0.3,0.8,0.9,1.5,1.4,2.1c0.6,0.7,1.4,1.4,2.1,2.1c0.5,0.5,1,1.1,1.6,1.6c0.2,0.2,0.4,0.2,0.6,0c1-0.9,1.5-2.1,1.6-3.3
		c0.2-2-0.1-4-0.6-6c-0.4-1.4-1.1-2.7-1.8-4c-1-1.9-2.6-3.1-4.4-4.2c-0.4-0.2-0.9-0.3-1.3-0.3c-1.7-0.1-3.3,0.2-4.9,0.9
		c-1.8,0.9-2.9,2.2-3,4.2c-0.1,1.6-0.1,3.1,0.2,4.7c0.4,2,0.9,3.9,1.9,5.7C3.9,73.6,4.5,74.2,5,74.9z M48.1,68.1
		c0.1,0,0.1,0.1,0.1,0.1c2-0.7,3.9-1.6,5.5-3c0.7-0.6,1.5-1.2,2.3-1.7c1-0.7,2.2-0.4,2.9,0.6c0.2,0.3,0.4,0.6,0.5,0.9
		c0.1,0.4,0.4,0.5,0.7,0.4c1.6-0.3,3.1-0.5,4.7-0.8c0.4-0.1,0.5-0.2,0.4-0.6c-0.2-0.9-0.4-1.8-0.7-2.7c-0.2-0.8-0.2-0.8-1-0.6
		c-0.2,0.1-0.5,0.1-0.7,0.1c-1.7,0.4-3.4,0.4-5.2,0.3c-0.4,0-0.8-0.2-1.2-0.4c-0.9-0.5-1.7-1.1-2.2-2.1c0-0.1-0.1-0.2-0.2-0.3
		c-0.1,0.1-0.2,0.2-0.3,0.2c-1.3,1.4-2.5,2.8-3.9,4.1C48.4,64.1,48.4,66.2,48.1,68.1z M54,93.3c-0.3,0.5-0.5,0.8-0.8,1.2
		c-0.4,0.7-1,1.4-1.7,1.8c-0.1,0.1-0.2,0.3-0.1,0.5c0.3,0.8,0.6,1.6,0.9,2.4c0.4,1.2,0.7,2.4,1.2,3.6c0.7,1.7,1.6,3.4,2.4,5.1
		c0.2,0.4,0.5,0.6,0.9,0.3c0.5-0.3,1-0.7,1.5-0.9c0.7-0.4,0.8-0.5,0.4-1.2c-0.7-1.5-1.5-3-2.1-4.6c-0.7-1.9-1.3-3.9-1.9-5.9
		C54.5,94.8,54.2,94.1,54,93.3z M63.1,49.7c-0.4-0.4-0.6-0.8-0.9-1c-0.8-0.7-1.6-1.4-2.6-1.9c-0.8-0.4-1.7-0.9-2.7-0.5
		c-0.7,0.3-1.2,0.1-1.8-0.2c-0.2-0.1-0.3-0.2-0.5-0.3c-0.2,0-0.4,0-0.6,0.1c-0.7,0.6-1.3,1.3-1.4,2.2c0,0.5,0.1,0.9,0.2,1.4
		c0.4-0.1,0.9-0.3,1.3-0.4c0,0,0.1-0.1,0.1-0.1c1.4-0.8,2.8-1.1,4.4-0.7c0.8,0.2,1.5,0.6,2.3,0.9C61.6,49.4,62.3,49.5,63.1,49.7z
		 M63.8,65.4c-1.2,0.2-2.3,0.4-3.5,0.5c-0.6,0.1-1,0.4-1.1,1c-0.1,0.3-0.3,0.6-0.5,0.8c-0.4,0.5-0.7,1-1.1,1.5c0.9,0.8,0.9,2,1.2,3
		c0.1-0.1,0.2-0.1,0.2-0.1c2-1.9,3.3-4.3,4.8-6.5C63.8,65.6,63.8,65.5,63.8,65.4z M53,50.3c0.3,0.5,0.5,1,0.8,1.4
		c0.1,0.2,0.3,0.4,0.4,0.4c1-0.1,1.5,0.6,1.9,1.2c0.3,0.5,0.7,0.7,1.2,0.7c1.2,0,2.3-0.5,3.2-1.4c0.5-0.5,1.1-1.1,1.7-1.6
		c0.2-0.2,0.4-0.4,0.7-0.7c-0.8-0.2-1.4-0.1-2,0.3c-1.9,1.2-4.2,1.1-6-0.2c-0.4-0.3-0.8-0.4-1.2-0.3C53.6,50.2,53.4,50.2,53,50.3z
		 M55.2,31.9c-0.2-1.5-0.8-2.6-1.8-3.6c-0.1-0.1-0.2-0.1-0.3-0.1c-0.3-0.1-0.6-0.1-0.9-0.2c-0.7-0.4-1.4-0.8-2.1-1.1
		c-0.6-0.3-1.1-0.1-1.1,0.6c0,0.4,0.1,0.9,0.1,1.3c0.1,0.3,0.2,0.7,0.3,1c0.2,0.8,0.2,0.8,1,0.6c1.7-0.4,3.3-0.3,4.5,1.2
		C54.9,31.8,55,31.8,55.2,31.9z M53.5,66.2c0.3,0.1,0.5,0.2,0.7,0.2c0.8,0.2,1.4,0.6,2,1.2c0.2,0.2,0.5,0.4,0.7,0.7
		c0.3,0.3,0.5,0.3,0.7-0.1c0.4-0.7,0.9-1.4,1.2-2.1c0.4-0.8,0.2-1.3-0.7-2.1c-0.4-0.4-1.1-0.4-1.7,0c-0.7,0.4-1.3,0.9-1.9,1.4
		C54.2,65.5,53.9,65.8,53.5,66.2z M20.4,77.1c0.3-0.1,0.6-0.2,0.7-0.3c0.4-0.6,0.7-1.2,1-1.8c0.1-0.1-0.1-0.4-0.3-0.5
		c-0.8-0.4-1.7-0.7-2.5-1c-0.1,0-0.3,0-0.4,0c-0.9,0.4-1.4,1.4-1.2,2.4c0,0.2,0.2,0.4,0.3,0.5C18.8,76.6,19.6,76.8,20.4,77.1z
		 M61.1,50c0-0.1,0-0.1,0-0.2c-0.5-0.2-1-0.5-1.5-0.7c-1.4-0.7-2.8-0.5-4.2-0.2c-0.5,0.1-0.6,0.4-0.2,0.7c1.2,1.1,2.5,1.6,4.1,1.1
		C59.9,50.6,60.5,50.3,61.1,50z M6.4,71.8c1.1-0.4,1.3-1.1,1.2-2c0-0.2,0-0.4-0.1-0.6c-0.2-0.6-0.3-1.2-0.6-1.7
		c-0.3-0.5-0.8-0.5-1.2,0c-0.3,0.4-0.5,1-0.3,1.5C5.7,69.9,6.1,70.8,6.4,71.8z M55.6,53.7c-0.3-0.3-0.5-0.6-0.8-0.8
		c-0.2-0.1-0.5-0.2-0.6-0.2c-0.9,0.4-1.7,0.9-2.2,1.8c0,0.1,0,0.3,0,0.3c0.3,0.5,1.2,0.8,1.7,0.5C54.3,54.9,54.9,54.3,55.6,53.7z
		 M53.7,31.4c0,0,0.1-0.1,0.1-0.1c-0.1,0-0.1,0-0.2-0.1c-0.8-0.6-3.1-0.6-3.8-0.1c-0.1,0.1-0.2,0.3-0.3,0.5
		C51,31.4,52.4,31.1,53.7,31.4z M54.5,32.5c0-0.1,0-0.1,0-0.2c-0.4-0.1-0.8-0.3-1.2-0.4c-0.1,0-0.4,0.1-0.4,0.2
		c0,0.2,0.1,0.5,0.2,0.5C53.6,32.8,54,32.7,54.5,32.5z M50,32.4c0.4,0.4,0.8,0.5,1.2,0.3c0.1-0.1,0.2-0.3,0.2-0.4
		c0-0.1-0.2-0.3-0.3-0.2C50.7,32.1,50.4,32.3,50,32.4z"/>
	<path class="st0" d="M86.7,99.1c0-0.3,0-0.6,0-0.9c0.1-1.8,0.1-3.5,0.5-5.3c0.2-1.2,0.9-2.4,1.4-3.5c0.4-0.8,0.9-1.4,1.4-2.1
		c0.2-0.3,0.4-0.8,0.8-0.5c0.4,0.3,0,0.7-0.2,1c-0.5,0.7-1,1.4-1.4,2.2c-0.8,1.5-1.2,3.1-1.4,4.8c-0.1,1.4-0.2,2.8-0.3,4.2
		c0,0.1,0,0.3,0.1,0.5c1.2-0.5,2.2-1.6,3.6-1c-0.2,0.1-0.3,0.3-0.5,0.3c-1.3,0.4-2.4,1-3.4,1.9c-0.2,0.2-0.4,0.5-0.5,0.8
		c-0.7,1.9-1.5,3.6-2.7,5.3c-1.5,2.1-2.5,4.3-3.5,6.7c-0.4,1.1-1,2.2-1.5,3.3c-0.2,0.5-0.5,0.5-1,0.4c0.1-0.1,0.1-0.3,0.1-0.4
		c1-1.9,1.8-3.8,2.4-5.9c0.4-1.4,1.2-2.5,2.1-3.6c0.9-1.2,1.7-2.4,2.3-3.8c0.2-0.5,0.4-0.9,0.7-1.4c0.4-0.8,0.3-1.5,0.1-2.3
		c-0.4-1.5-0.6-3.1-0.6-4.7c0-1.2,0-2.3,0.4-3.4c0.1-0.3,0.2-0.5,0.3-0.7c0.1-0.1,0.3-0.2,0.4-0.1c0.1,0.1,0.2,0.3,0.2,0.4
		c0,0.2-0.1,0.5-0.2,0.7c-0.6,2-0.5,4.1,0,6.1c0.1,0.3,0.1,0.7,0.2,1C86.5,99,86.5,99,86.7,99.1z"/>
	<path class="st0" d="M63,31.7c1.4,0.1,2.7,0.2,4,0.3c1.4,0.1,2.8,0.1,4.2,0.2c0.2,0,0.5,0.3,0.7,0.4c-0.2,0.2-0.3,0.5-0.6,0.6
		c-0.6,0.3-1.3,0.5-2,0.8c-1.7,0.6-3.4,0.5-5.1-0.2c-0.7-0.3-1.5-0.6-2.2-0.9c-0.3-0.1-0.4-0.2-0.2-0.5c0.7-1.1,1.6-1.8,2.9-2
		c1.1-0.1,2.2-0.2,3.3,0.2c0.5,0.2,1,0.1,1.5,0.2c0.2,0,0.4,0.2,0.6,0.3c0,0-0.1,0.3-0.1,0.3c-0.2,0-0.4,0-0.6,0
		c-1.7-0.4-3.5-0.8-5.3-0.2C63.7,31.2,63.4,31.5,63,31.7z M67.5,32.6c0,0.4-0.1,0.7-0.1,1.1c1,0,1.9-0.4,2.8-0.8c0-0.1,0-0.1,0-0.2
		C69.3,32.7,68.4,32.7,67.5,32.6z M65.4,33.5c0.1-0.3,0.1-0.7,0.2-1c-0.9-0.2-1.7-0.2-2.6,0c0,0.1,0,0.1,0,0.2
		C63.8,32.9,64.6,33.2,65.4,33.5z"/>
	<path class="st0" d="M85.5,39.1c0.3-0.1,0.7-0.3,1-0.4c0.6-0.1,1.2-0.3,1.8-0.3c0.5-0.1,0.8-0.3,0.8-0.8c0-0.5,0.1-0.9,0.2-1.5
		c0.2,0.2,0.3,0.2,0.4,0.3c0.6,1.1-0.3,2.5-1.5,2.6c-0.7,0-1.3,0.3-2,0.5c-0.1,0-0.2,0.1-0.2,0.1c-0.4,0.2-0.8,0.3-1.1-0.1
		c-0.3-0.4,0-0.8,0.2-1.1c0.2-0.4,0.6-0.6,0.8-1C86,37.3,86,37,86,36.7c-0.2-0.8-0.2-1.5,0.5-2.1c1.3-1.1,2.6-2.3,3.9-3.4
		c0.3-0.2,0.7-0.4,1-0.4c0.2,0,0.6,0.1,0.8,0.2c0.5,0.4,0.8,1,0.6,1.7c-0.2,0.8-0.6,1.5-0.8,2.3c-0.2,0.6-0.4,1.2-0.5,1.7
		c-0.4,1.6-1.3,2.9-2.4,4.1c-0.3,0.3-0.7,0.3-1-0.1c-0.2-0.2-0.3-0.4-0.4-0.6c-0.1-0.1,0-0.3,0-0.4c0.1,0,0.3,0,0.4,0.1
		c0.2,0.2,0.3,0.4,0.6,0.7c0.5-0.7,1-1.3,1.4-1.9c0.7-1,0.9-2.1,1.1-3.2c0-0.2,0.1-0.4,0.2-0.6c0.5-0.6,0.7-1.4,0.9-2.2
		c0.1-0.3-0.2-0.8-0.4-1.1c-0.1-0.1-0.6-0.1-0.8,0c-0.6,0.3-1.1,0.6-1.6,1c-0.9,0.8-1.7,1.8-2.6,2.6c-0.4,0.4-0.5,0.8-0.3,1.3
		c0.3,0.8,0,1.4-0.6,1.9c-0.2,0.2-0.4,0.4-0.6,0.6C85.4,39,85.4,39.1,85.5,39.1z"/>
	<path class="st0" d="M70.6,26.7c-0.7-0.3-1.4-0.6-2.1-0.9c-0.7-0.3-1.4-0.4-2.2-0.2c-0.4,0.1-0.8,0.1-1.2,0.3
		c-0.4,0.2-0.8,0.5-1.3,0.7c-0.8,0.4-1.6,0.8-2.5,1.1c-0.5,0.2-0.9-0.5-0.6-0.9c0.3-0.4,0.7-0.7,1.2-0.9c1.6-0.8,3.4-1,5.1-1.1
		c0.4,0,0.9,0.1,1.4,0.3c0.8,0.2,1.5,0.5,2.2,0.8c0.2,0.1,0.3,0.3,0.4,0.5C71,26.5,70.8,26.6,70.6,26.7z"/>
</g>
</svg>
