<?xml version="1.0" encoding="utf-8"?>
<!-- Generator: Adobe Illustrator 18.1.1, SVG Export Plug-In . SVG Version: 6.00 Build 0)  -->
<!DOCTYPE svg PUBLIC "-//W3C//DTD SVG 1.1//EN" "http://www.w3.org/Graphics/SVG/1.1/DTD/svg11.dtd">
<svg version="1.1" id="Layer_1" xmlns="http://www.w3.org/2000/svg" xmlns:xlink="http://www.w3.org/1999/xlink" x="0px" y="0px"
	 viewBox="404.6 202.8 150 152.5" style="enable-background:new 404.6 202.8 150 152.5;" xml:space="preserve">
<style type="text/css">
	.st0{fill:#00BCD4;}
</style>
<g id="coldsore-lady">
	<g>
		<path class="st0" d="M476.6,322.3C476.6,322.3,476.5,322.3,476.6,322.3c-0.1,0-0.1,0.1-0.1,0.1
			C476.5,322.4,476.6,322.3,476.6,322.3z"/>
		<path class="st0" d="M539,286.9c-8.9,2.7-14.7,8.9-18.8,17c-0.3,0.7-0.7,1.4-1,2c-4.4-1-8.1-3.2-11.7-5.6
			c-1.4-0.9-1.9-2.1-1.8-3.7c0.1-1.7-0.1-3.5,0.1-5.2c0.1-1.3,0.5-2.7,1.2-3.9c2.3-3.9,4.8-7.7,7.3-11.5c1.5-2.3,2.6-4.7,4.4-6.6
			c2-2,3.9-3.8,3.5-6.9c-0.1-0.6-0.1-1.4,0-2c0.3-1.2,0.5-2.5,1.1-3.5c2.7-4.2,5.2-8.6,5.8-13.6c1-8.6-1.1-16.8-5.8-24.1
			c-1.8-2.7-4.1-5.3-6.5-7.5c-1.6-1.4-3.8-2.2-5.8-3.2c-5.7-2.9-11.5-5.4-18.3-5.6c-6.3-0.2-12.1,1.3-17.5,4.3
			c-5,2.8-8.4,7.5-12.1,11.7c-0.2,0.2-0.3,0.5-0.4,0.8c-2.6,4.8-3.2,10-3.9,15.3c-0.4,2.6,0.1,5.3,0.3,8.6c-3.1,5-3.9,11-0.6,17
			c1.2,2.2,3.3,4,5,5.9c0.5,0.7,1.4,1.3,1.5,2c0.4,3.6,0.8,7.3,0.7,10.9c-0.1,2.4-0.8,4.8-1.3,7.1c-0.3,1.3-0.8,2.6-1.3,4.2
			c-0.8-1.1-1.4-1.8-2-2.5c-1-1.2-2.4-1.6-3.6-0.9c-0.7,0.4-0.8,1.9-0.9,2.9c-0.3,2.1-0.2,4.2-0.5,6.2c-0.3,1.8-1.1,3.4-1.3,5.2
			c-0.2,1.6-1,2.4-2.4,2.9c-3.9,1.4-7.8,3-11.7,4.5c-2.4,1-5,1.7-7.3,2.9c-5,2.7-9.7,5.8-14.8,8.3c-7.6,3.8-9.5,11.2-11.6,18.4
			c-1.2,3.9-1.4,7.9-2,11.9c-0.2,0.8-0.2,1.7-0.2,2.5c0.2,0,0.4,0.1,0.6,0.1c0.2-0.3,0.5-0.7,0.6-1.1c0.3-1.3,0.3-2.6,0.6-3.8
			c1.3-4.4,1.2-8.9,2.5-13.5c2.3-7.6,6.8-12.7,14.1-15.5c3.1-1.2,6.1-2.6,9-4c4.1-2.1,8.1-4.2,12.2-6.3c0.3-0.2,0.8-0.2,1.3-0.4
			c-0.2,2.5-0.3,4.9-0.4,7.2c-0.2,3.6-0.4,7.1-0.7,10.7c-0.3,4.4-0.3,8.7,1.7,12.8c0.6,1.3,0.6,2.2,0.1,3.3
			c-0.7,1.4-1.5,2.9-1.9,4.4c-0.7,2.6-1.1,5.3-1.7,7.9h1.5c0.6-2.8,1-5.8,1.8-8.6c1.5-5.3,3.3-10.5,4.8-15.9
			c0.7-2.3,0.9-4.9,0.9-7.3c0-4.9,0.2-9.6,2.3-14.4c1.5-3.2,1.7-7,2.7-10.4c0.8-2.9,1.6-5.7,0.8-8.7c-0.4-1.2,0.4-1.6,1.6-1.4
			c1.9,0.4,3.2,3.3,2.3,5c-0.8,1.3-1.6,2.5-2.3,3.8c-0.3,0.5-0.3,1.1-0.4,1.7c0.2,0.1,0.5,0.3,0.7,0.4c0.1-0.3,0.1-0.6,0.3-0.9
			c1.8-3.2,3.6-6.6,5.7-9.7c1.2-1.9,2.7-4.1,4.6-5.2c3.2-1.9,7-3,10.5-4.4c1.2,4,3.9,0.8,6.3,1.4c-1.5,1.3-2.7,2.3-3.9,3.3
			c-1.8,1.5-2.4,1.5-4.1,0c0,0-0.2,0.1-0.4,0.2c0.1,0.5,0.2,1,0.3,1.3c-2.1,1.8-4,3.6-5.8,5.2c-0.7-0.5-1.3-0.9-2.1-1.5
			c0.3,1.3,0.9,2.4,0.6,3c-1.1,2-2.6,3.7-3.9,5.6c-0.6,0.9-0.9,1.9-1.4,2.8c0.1,0.2,0.3,0.3,0.4,0.5c-1.5,0.3-3,0.4-4.3,0.9
			c-1.7,0.6-3.4,1.5-4.8,2.6c-1.1,0.9-1.1,2.8-0.2,4.6c-0.2-3.3,1.3-5.2,3.7-5.8c2.9-0.7,5.9-1.2,8.9-1.5c1.9-0.2,3.8,0.2,5.7,0.1
			c5.1-0.2,7.7,2.4,7.5,7.3c-2-0.2-4-0.7-6-0.7c-4.3-0.1-8.6,0.1-13,0.3c-0.7,0-1.6,0.6-2.1,1.2c-1.8,2.4-2.1,5.3-2,8.2
			c0.5-1.8,0.7-3.6,1.2-5.4c0.7-2.6,1.5-3.2,4.2-3.4c0.7-0.1,1.5-0.2,2.2-0.3c4.5-0.9,8.9-0.4,13.4,0.4c2.9,0.5,4.5,3.3,3.9,6.1
			c-1.5-0.5-3-1.3-4.6-1.4c-2.6-0.1-5.3,0-7.9,0.4c-1.3,0.2-2.4,1.3-3.6,2.1c-0.2,0.1-0.1,0.7-0.1,0.7c1.3-0.7,2.5-1.7,3.9-2.1
			c1.3-0.4,2.8-0.4,4.2-0.4c1.9,0,3.9,0,5.7,0.5c2.4,0.7,3.1,4.2,1.4,6.1c-0.2,0.3-0.7,0.3-1.1,0.3c-0.5,0-0.9-0.3-1.4-0.4
			c-2.2-0.6-3.6-0.3-4.8,0.9c1.7,0.8,2.9,1.4,4.1,2c0.1-0.1,0.2-0.2,0.3-0.3c-0.9-0.6-1.7-1.2-2.5-1.8c0.1-0.2,0.1-0.3,0.1-0.5
			c1.5,0.3,3,0.6,4.9,0.9c-0.5,0.8-0.7,1.3-1,1.6c-1.8,1.7-3.6,3.4-5.5,5.1c-1.1,0.9-2.1,0.6-2-0.9c0.2-1.9,0.9-3.7,1.5-6
			c-0.4,0.4-0.7,0.9-1.1,1.5c-0.3,0.6-0.7,1.2-1.1,1.7c-0.8,1.2-2,2.2-2.4,3.5c-0.9,3.4-1.7,6.8-2.1,10.2c-0.3,2.1-1.2,3.8-2.5,5.4
			c-1,1.3-2.1,1.3-3.4,0.4c-0.6-0.4-1.2-0.8-2.1-1.4c0,0.7-0.2,1.3,0,1.4c1.2,0.7,2.3,1.4,3.3,1.9c-0.5,2.8-0.9,5.4-1.4,8.1
			c0.4,0,0.8,0,1.1-0.6c0-0.9-0.3-1.8,0-2.6c0.8-2.4,0.8-5,3-6.9c1.8-1.6,2.7-3.8,3-6.4c0.3-3.3,1.2-6.5,1.9-9.8
			c0.1-0.4,0.4-0.9,0.7-1.6c0.2,0.6,0.3,0.8,0.4,1.1c0.7,2.1,1.9,2.5,3.6,1.1c0.4-0.3,0.7-0.8,1.1-1.2c0.9-0.9,1.7-2,2.8-2.7
			c4.1-2.7,5.1-6.9,4.8-11.3c-0.3-3.3-1.3-6.6-2-9.8c-0.1-0.5-0.4-1-0.7-1.3c-2.2-1.8-4.4-3.5-7.6-3.1c-2,0.2-4.1,0-6.1-0.2
			c-0.6,0-1.3-0.6-1.9-0.9c1.4-1.9,2.5-3.6,3.7-5.1c1.2-1.6,2.6-3.1,3.8-4.5c2.1,1.9,3.9,3.8,5.9,5.3c2.8,2.1,6,3.8,9.6,2.8
			c3.5-1,6.8-2.5,9.6-5c0.9-0.8,2.1-1.4,3.6-2.5v16.1c0.3,0.1,0.5,0.1,0.8,0.2c1.7-1.1,0.2-3.3,1-4.7c4.2,2.2,8.2,4.3,12.2,6.4
			c-0.7,3.4-1.4,6.9-2.2,10.4c-0.1,0.5-0.7,1-1.2,1.3c-4.6,2.9-9.6,4-15.1,2.3c-0.9-0.3-2.2-0.2-3,0.3c-2,1.1-3.7,2.6-5.5,3.9
			c0.1,0.1,0.2,0.3,0.3,0.4c0.8-0.7,1.6-1.3,2.4-1.9c2.2-1.7,4.3-2.8,7.4-1.9c2.8,0.8,6,1.1,8.9-0.4c1.7-0.9,3.6-1.5,5.4-2.2
			c0,0.3,0.1,0.4,0.1,0.5c-0.4,9.5,1.5,18.6,6.6,26.8c0.3,0.5,0.2,1.5,0,2.1c-0.6,1.7-1.5,3.4-2.2,5.1h1.5c0.8-1.5,1.5-3.1,2.3-4.8
			c1.5,1.7,3,3.2,4.4,4.8h2.6c-0.2-0.2-0.2-0.5-0.4-0.6c-9.3-8.3-13.3-19-13.1-31.3c0.3-10.9,3.7-20.8,11.9-28.3
			c7-6.3,15.2-8.3,24.3-5.1c0.2,0.1,0.5,0.1,0.7,0.1v-1.9C549.4,285.8,544.2,285.3,539,286.9z M452.7,310c-1.7,3.2-2.1,6.6-1.9,10.1
			c0.3,6.1-0.9,11.8-2.8,17.6c-0.1,0.3-0.3,0.5-0.5,1.1c-1.7-3.5-1.8-6.9-1.7-10.3c0.2-4.6,0.4-9.1,0.6-13.8v-0.4
			c0.1-5.9,1.3-7.4,7.7-8.5C453.6,307.3,453.4,308.8,452.7,310z M518.7,268.4c0.6-3.2,1.1-6.1,1.7-9.4
			C522.5,261.6,521.5,266.6,518.7,268.4z M492.9,204.7c0.4,0.1,0.9,0.7,1,1.1c0.5,1.8,1.5,3.1,2.9,4.3c0.9,0.8,1.3,2.1,1.9,3.2
			c-1,0.2-2,0.3-3,0.5c0.2-0.4,0.1-0.9,0-1.3c-0.6-1.2-1.6-2-2.3-3.1c-0.7-1.1-1.4-2.3-2.2-3.4c-0.5-0.6-1-1.2-1.6-1.5
			C490.7,204.5,491.8,204.6,492.9,204.7z M465.4,242.4c0,0.1,0,0.2,0,0.3c-0.1-0.1-0.2-0.2-0.3-0.4
			C465.2,242.4,465.3,242.4,465.4,242.4z M465.6,266.5c-0.7-0.3-1.4-0.6-2-1.1c-5.7-4.5-6.8-10.4-5.1-17.2c0.4-1.4,1.3-2.7,2.1-4.4
			c1.2,0.9,2,1.6,3,2.3c-3.4,2.6-4.1,6.2-3.9,9.9c0.1,1.6,1.2,3,3.4,4.1c-1-2.5-3.1-4.2-2.3-6.7c0.6-2.2,0.8-4.6,3.3-6.3
			c0.3,0.9,0.6,1.6,0.7,2.3c0.3,4.7,0.7,9.4,1,14.2c0,0.1,0.1,0.3,0.1,0.5L465.6,266.5z M466.6,286c-0.2,0-0.3-0.1-0.5-0.2
			c0.3-1.5,0.6-3,1-4.9c0.9,1,1.4,1.6,1.9,2.2C468.2,284.1,467.4,285.1,466.6,286z M486.5,279.4c-1.1,0.4-2.2,0.9-3.4,1.2
			c-0.3,0.1-0.8-0.5-1.2-0.8c0.3-0.4,0.5-0.8,0.8-1c0.7-0.3,1.4-0.7,2.2-0.7c0.5-0.1,1.1,0.4,1.7,0.7
			C486.6,279,486.5,279.2,486.5,279.4z M504.7,288.5c-0.3,0.3-0.5,0.8-0.8,1c-4.1,2.7-7.8,6.1-12.8,7.5c-2.8,0.8-5.4-0.1-7.6-1.5
			c-2.6-1.6-4.9-3.8-7.3-5.8c0-0.3,0.1-0.7,0.1-1c1.5-0.8,2.9-1.5,4.2-2.3c2.3-1.4,4.8-2.8,6.8-4.6c0.6-0.5,0.1-2.5-0.3-3.7
			c-0.5-1.4-1.9-1.2-3-0.9c-1.6,0.5-3.1,1.1-4.7,1.7c-2.6,1-5.3,2-7.9,3.1c-1,0.4-1.5,0.2-2.2-0.6c-1.3-1.5-1.9-2.9-1.9-4.9
			s-0.9-4.1-0.6-6c1.1-6-1.3-11.7-1.1-17.8c0.1-2.5,0.8-4.6,2.2-6.5c0.1,0,0.1-0.1,0.2-0.1c2.1-1.3,2.6-4.4,3.4-6.6
			c0.4-1.1,0.8-2.2,1.2-3.3c0.7-1.9,1.4-3.8,2.1-5.8c2-5.4,5.3-9.9,10.3-12.7c0.6-0.2,1.2-0.4,1.9-0.6c1.9-0.6,3.8-1,5.7-1.6
			c0.9-0.1,1.9-0.2,2.8-0.4c4.7-0.8,8.6,1.8,12.8,3.3c1,0.4,1.9,0.8,2.8,1.3c0.1,0.1,0.2,0.2,0.3,0.3c3.1,2.7,5.8,5.7,8.1,9.2
			c0.1,0.1,0.2,0.2,0.3,0.3c0.5,1.1,0.6,2.3,0.8,3.5c0.9,6.2,1.7,12.4,0.5,18.7c-0.3,1.2-0.5,2.6-1.1,3.7c-2,3.8-2.3,8-2.8,12.2
			c-0.4,3.6-2.5,6.4-4.3,9.3C510.2,281,507.3,284.7,504.7,288.5z"/>
	</g>
	<path class="st0" d="M554.6,347.5c-1.6,0.5-3.1,1.1-4.7,1.5c-6.8,1.4-12.4-0.8-17.3-5.6c-10.4-10.5-10.4-30.1,0.1-40.6
		c6-6,14.4-7.6,21.3-4.1c0.2,0.1,0.4,0.3,0.6,0.4c0,0.2,0,0.5,0,0.7c-8.2-4.2-17.2-2.1-23.2,5.6c-7.7,9.9-7.7,25.5,0,35.4
		c6,7.6,14.7,9.7,23.2,5.6C554.6,346.7,554.6,347.1,554.6,347.5z"/>
	<path class="st0" d="M500.8,264.9c0.2,1.1,0.3,1.6,0.3,2c2.1-0.7,2.6-1.5,2.3-4.1c-0.2-1.5-0.5-3-1-4.5c-1.7-5.1-0.1-9.6,2.7-13.9
		c1.2-1.8,3.3-1.8,5.1-2.1c2.9-0.6,6-0.6,8.1,2.2c0.4,0.5,0.4,1.2,0.6,1.8c-0.6-0.1-1.3-0.1-1.7-0.4c-2.7-2.5-5.9-1.5-9-1.4
		c-2.2,0-3.1,1-4,2.8c-1.8,3.5-2.2,7-1.2,10.7c0.5,1.9,0.9,4,0.9,6c0,2.3-0.9,3.7-3.7,3.2c-0.7-0.1-1.5,0.3-2.2,0.6
		c-1.4,0.6-2.5,0.5-3.4-0.8c-0.5-0.8-0.9-0.9-1.9-0.8c-1.1,0.1-2.3-0.6-3.2-1.3c-0.5-0.3-0.4-1.4-0.2-2.1c0.5,0.9,1.1,1.8,1.7,2.8
		c1.8-2,2.9-1.9,3.7,0.2c0.8,2,2.3,2.2,3.7,0.6C498.9,265.9,499.7,265.5,500.8,264.9z"/>
	<path class="st0" d="M482.2,272.6c3.6,0,7,0,10.3,0c0.3,0,0.7,0.4,1,0.6c0.5,0.2,1.1,0.6,1.5,0.4c2.8-1.3,4.3,0.8,6,2.3
		c1.3,1.2,1.2,2.1,0,3.5c-3.1,3.5-5.4,4-9.1,1.3c-3.2-2.3-6.3-4.9-9.4-7.4C482.3,273.3,482.3,273.1,482.2,272.6z M486.6,275
		c2.5,2.4,4.8,5,8.1,6.2c2.5,0.9,5-0.4,5.8-3.4C495,280.8,491.1,277,486.6,275z M500.5,276.5c-1.1-2.1-2.9-2.9-5-2.3
		c-0.5,0.1-1.3,0.1-1.7-0.1c-2.6-1.5-5.3-1-8-1c0,0.2-0.1,0.3-0.1,0.5C490.6,274.5,495.5,275.5,500.5,276.5z M499.4,277.1
		c-3.5-0.7-6.6-1.4-10-2.1C492.4,277.8,496.5,279.2,499.4,277.1z"/>
	<path class="st0" d="M504,250.9c4.5-0.1,8.8-0.8,12.4,2.5c0.3-3.4-2-5.7-5.1-5.5c-1.4,0.1-2.7,0-4.1-0.1c4.9-1.3,9.1-0.9,10,4.3
		c0.3,1.5-0.4,3.1-0.7,4.9c-3.1-0.7-5.8-1.3-8.5-2C506.2,254.5,504.7,253.2,504,250.9z M515.4,253.3c-0.7,0.4-1.2,0.7-1.8,0.9
		c-1.4,0.6-3.1,0.7-3.7-0.8c-1-2.3-2.6-1.8-4.4-1.7c1.2,2.6,6.6,4.5,10.7,3.6C515.9,254.7,515.7,254.1,515.4,253.3z"/>
	<path class="st0" d="M478.1,245.7c4.1,2.2,8.2,0.6,12.4,0.8c-0.4-1.7-1.4-2.5-2.9-2.5c-1.7,0.1-3.4,0.3-5.1,0.5
		c-0.6,0-1.3-0.1-1.9-0.1c0-0.2,0-0.4,0-0.6c2.8-0.1,5.7-0.4,8.5-0.3c1.3,0,3.8,4,3.6,5.2c-0.1,0.3-0.4,0.8-0.8,0.9
		c-4.2,1.2-8.3,1.6-12.2-1.1C478.7,247.9,477.9,247.2,478.1,245.7z M491.5,248.8c-2.1-2.1-2.4-1.9-3.8,1.2
		C489.2,249.5,490.4,249.2,491.5,248.8z M484.2,249.4c-1.2-1.9-1.8-2.1-3.9-1.5C481.4,248.8,482.2,250.3,484.2,249.4z"/>
	<path class="st0" d="M484,235.6c3.4-0.6,5.7,1.4,8,3.3c0.4,0.3,0.6,1.4,0.4,1.7c-0.3,0.5-1.2,0.9-1.8,0.8c-0.8-0.2-1.6-0.7-2.2-1.3
		c-2.6-2.2-6.6-2.7-9.7-1.1c-0.5,0.3-1.2,0.2-1.8,0.3c0.2-0.7,0.3-1.8,0.7-2c2-0.9,4.2-1.6,6.3-2.3C483.9,235.2,484,235.4,484,235.6
		z"/>
</g>
</svg>
