<?xml version="1.0" encoding="utf-8"?>
<!-- Generator: Adobe Illustrator 18.1.1, SVG Export Plug-In . SVG Version: 6.00 Build 0)  -->
<!DOCTYPE svg PUBLIC "-//W3C//DTD SVG 1.1//EN" "http://www.w3.org/Graphics/SVG/1.1/DTD/svg11.dtd">
<svg version="1.1" id="Layer_1" xmlns="http://www.w3.org/2000/svg" xmlns:xlink="http://www.w3.org/1999/xlink" x="0px" y="0px"
	 viewBox="404.7 207.8 150 144.8" style="enable-background:new 404.7 207.8 150 144.8;" xml:space="preserve">
<style type="text/css">
	.st0{fill:#03A9F4;}
</style>
<g id="drymouth-lady">
	<g>
		<path class="st0" d="M553.8,340.3c-0.4-3.8-2.6-5.9-5.9-6.9c-0.4-0.1-0.8-0.3-1.2-0.4c3.8,1.7,6,4.9,6.6,9.8
			c0.3,1.8,0.9,3.4,1.4,5C554.7,345.5,554.1,342.9,553.8,340.3z"/>
		<path class="st0" d="M525.9,326.5c-6.3-2.6-11.4-7-13.9-13.3c-3.4-8.8-4.1-18.1-3.6-27.5c0.1-2.4,0.4-4.5,3.3-5.4
			c1.3-0.4,2.4-1.9,3.1-3.1c3.3-5.4,4.5-11.1,3.3-17.4c-0.6-2.9-1.5-5.5-4.5-6.6c-0.8-0.3-1.3-0.8-1.4-1.3v0.1
			c-0.3,0.4-0.9,0-0.6-0.4c0.1-0.1,0.1-0.3,0.3-0.5c0,0,0,0,0-0.1c0.1-0.1,0.1-0.4,0.3-0.5V250c-0.1-2.9,0.1-6-0.9-8.6
			c-3.5-9.3-9.4-17.1-16-24.5c-5.6-6.3-12.3-9.1-20.6-8.6c-1.4,0-2.8-0.4-4.1-0.4c-6.6,0.3-13.4-0.4-19.1,4
			c-8.3,6.1-15,13.4-16.6,24c0,0.3-0.1,0.7-0.1,1c-0.4,2.2-0.6,4.4-0.4,6.7c0,2.7,0.1,5.5,0.5,8.2c0.5,4.9,2,9.9,3.5,14.6
			c1.6,5.3,4.1,10.3,5.9,15.4c2,5.9,3.4,12,7.6,16.9c0.4,0.4,0.5,1.1,0.5,1.6c0,5.5,0,11.1-0.3,16.6c-0.1,2.6-1.5,4.5-4,5.3
			c-4.6,1.4-9.1,3.1-13.9,3.9c-8.1,1.3-15.4,4.6-22.3,8.6c-5.6,3.3-8.3,10.9-6.3,17c0.1,0.4,0.4,0.6,0.6,1c0.3,0,0.4,0,0.6-0.1
			c0-2,0.1-4.1,0-6.1c-0.4-4.8,1.8-8.1,5.5-10.4c4-2.4,8.3-4.3,12.5-6.3c1.3-0.6,2.6-1.1,4-1.5c7.5-1.6,15.3-2.3,22-6.3
			c2.9,7.4,5.6,14.5,8.5,22c-5.8-1.1-8.8-5.4-12.4-8.5c2.6,5.6,10.4,11.4,14.1,9.3c-2.4-6.1-4.8-12.3-7.3-18.3
			c-1.4-3.3-1.4-6.4-0.9-9.8c0.4-2.3,0.5-4.6,0.5-7c0-8.1,0-16.4,0.1-24.5c0-1,0.9-2.8,1.5-2.8c1.9-0.3,1.6,1.5,1.5,2.6
			c-0.1,7.1-0.1,14.1-0.4,21.3c-0.1,3.1-0.6,6.1-0.9,9.1c-0.3,3.9-0.9,7.8,1.1,11.5c1.5,2.9,2.5,6,3.8,8.9c0.6,1.5,1.4,2.9,2.1,4.3
			l0.9-0.4c-0.9-2.4-1.8-4.8-2.8-7c-2.5-5.5-4.6-10.9-3.9-17.1c0.9-7.6,1-15.4,1.4-23.1c0.1-2.1-0.1-4.4,0-6.5
			c0-0.8,0.9-1.6,1.3-2.4c0.5,0.6,1.4,1.4,1.4,2c0.4,4.8,0.6,9.6,0.9,14.4c0.4,7.5-0.1,15.3,2,22.5c1,3.1,1.5,6.6,4.8,8.6
			c0-0.8-0.4-1.4-0.5-2c-1.4-4.4-3.5-8.8-4-13.3c-1-10.6-1.1-21.3-1.6-31.9c0.4,0,0.8-0.1,1-0.1c1.3,5.6,2.9,11.3,3.8,17
			c1.3,7.1,1.6,14.4,4.1,21.3c0.6,1.9,1.5,3.8,2.3,5.5l0.1-0.1c-3-14.8-6-29.5-9-44.3c0.3-0.1,0.5-0.3,0.9-0.3
			c0.5,1.1,1.1,2.3,1.6,3.4c2.9,7.8,5.8,15.6,8.6,23.4c1.1,3,2.1,6.1,3.8,8.9c4.3,7.9,6.8,16,5.9,25c0,0.4,0.5,0.8,0.8,1.1
			c1.3-9.3-0.6-17.8-4.9-26.1c14.1-3,20.9-13.5,26.1-25.5c1,5.4,1.3,10.8,2.8,15.8c1.5,5.1,1.6,10.3,1.6,15.6h1v-6.6
			c1.9,1.5,4.1,3.3,6.1,5c3.1,2.8,6.8,4.5,10.8,5.5c3.2,0.8,6.2,2,9.3,2.7C534.2,329.8,530,328.3,525.9,326.5z M511.2,255.1
			c1.3-1.8,2.8-1.3,3.9,0.4c1.9,2.5,2.5,5.4,2.3,8.5c-0.3,4.5-1.1,8.9-3.8,12.8c-0.9,1.3-2.3,2.3-3.5,3.4c-1.3-2.5-0.3-3.9,1.5-4.6
			c6.6-3.1,5.4-14.6,2-18.8c-0.3-0.3-0.5-0.4-0.8-0.5c-3,1-0.9,5.3-4.1,6.4C508.3,259.5,509.3,257.1,511.2,255.1z M512.4,266.4
			c0.1-2.8-2.4-5.4,0.3-7.6c3.9,6.4,2.6,12.8-3.4,15.5c-0.4-3.6-0.5-6.9-0.8-10.8C510,264.6,511,265.4,512.4,266.4z M467.5,284.1
			c-1.3-1.4-0.9-2.6,0.8-3.8c4.1-2.6,7.9-1.5,11.5,1.3c1.3,1,2.5,2,3.5,3.1c0.5,0.5,0.6,1.5,1,2.3c-0.3,0.1-0.4,0.3-0.6,0.4
			c-0.8-0.6-1.6-1.3-2.4-2c-2.3-2.1-4.8-3.9-7.9-4.4C470.1,280.6,469.3,281,467.5,284.1z M470.9,294.4c-0.5-2,1.3-4.4,3.4-4.6
			c0.5-0.1,1,0,1.5,0v-0.1c1,0.1,2,0.3,2.9,0.5c0.8,0.3,1.9,0.6,2,1c0.1,0.8-0.3,1.9-0.9,2.4c-1.4,1.1-2.9,2.3-4.5,2.9
			C473,297.1,471.3,296.3,470.9,294.4z M472.8,297.6c7.3,1,8.4-6.3,12.9-9.9c0.4,4.1-1.1,7.1-3.4,9.5c-1.3,1.4-3.1,2.3-4.8,3.1
			C474.1,301.9,473.4,301.5,472.8,297.6z M507.4,285.7c0,4.6-1.8,8.5-3.9,12.5c-3.3,6.5-7.1,12.5-13.6,16.1
			c-2.6,1.4-5.5,2.4-8.3,3.3c-0.5,0.1-1.9-0.5-2.1-1.1c-1.6-3.8-3.1-7.5-4.6-11.4c-0.9-2.3,0.9-3,2.5-3.5c5.5-1.6,8.3-5.6,9.3-11
			c0.3-1.4,0-3.4-0.8-4.5c-2.9-3.9-6.1-7.9-11.3-8.8c-3.4-0.6-6.3,0.5-8.3,3.4c-0.3,0.3-0.3,0.6-0.5,0.9c-0.4,0.4-2,0.5-3.8,0.5
			c-0.1,0.1-0.1,0.4-0.3,0.5c0,0.1-0.1,0.3-0.4,0.3c0,0.4-0.8,0.5-0.9,0c-0.1-0.5-0.4-0.8-0.6-0.9c-0.4,0-0.9,0-1.3-0.1h-0.6
			c0,0,0,0-0.1,0v0.1c-0.1,0.5-0.8,0.4-0.9,0c-0.1-0.1-0.1-0.4-0.3-0.5c-1-0.4-2.5-0.9-3.1-0.4c-0.9,0.5-1.6,2-1.8,3.1
			c-0.1,2.9,0.1,5.9,0.1,8.8c0,0.8-0.1,1.6-0.1,2.4c-0.4,0.1-0.8,0.1-1.3,0.3c-1.5-3.5-3-6.9-4.3-10.4c-1.3-3.4-2.4-6.8-3.1-10.3
			c-0.9-3.8-1.3-7.5-1.8-11.3c-0.5-4.4-0.8-8.8-1.3-13.1c-0.9-7.1,2.1-12.5,7.3-16.9c7.6-6.7,16.4-9.6,25.8-9.5c0.2-1,0.6-2,1-2.8
			c0.2-0.5,0.5-1.1,0.7-1.6c0.2-0.8,0.4-1.7,0.7-2.5c0.6-2.3,1.2-4.5,1.8-6.8c0.1-0.4,0-0.7-0.1-1c1.3,0.1,2.5,0.2,3.8,0.4
			c0.2,0,0.3,0,0.5,0.1c-1.1,0.4-1.4,1.5-1.8,2.9c-0.1,0.2-0.1,0.4,0,0.6c-0.2,0.6-0.3,1.2-0.5,1.8c-0.6,2.1-1.1,4.1-1.8,6.1
			c-0.1,0.3-0.3,0.6-0.6,0.8c-0.2,0.7-0.4,1.4-0.6,2.1c1.1,0.1,2.1,0.2,3.2,0.3c3.1,0.4,6.3,3.1,8.6,5.5c2.7,2.8,5.2,5.8,7.5,9
			c0.4,1.2,1.1,2.3,2,3.3c0.4,0.5,0.8,1,1.2,1.5c2.4,4.1,4.7,8.2,7.1,12.2c1.2,3.2,1,6.7,1.1,10
			C507.7,272.9,507.4,279.4,507.4,285.7z"/>
		<path class="st0" d="M538.5,331.1C538.5,331.1,538.5,331.1,538.5,331.1c2.7,0.8,5.5,1.2,8.2,1.9c-1.5-0.7-3.3-1.2-5.4-1.4
			C540.3,331.5,539.4,331.3,538.5,331.1z"/>
	</g>
	<path class="st0" d="M473.1,271.4c0.3-0.1,0.5-0.3,0.8-0.4c0.5-0.1,0.8-0.8,1-1.5c0,0,0,0,0-0.1c0-0.3-0.1-0.5-0.1-0.8l0,0
		c0-0.1,0-0.3-0.1-0.3l0,0l-1.1-0.5c-0.5,0.3-1.1,0.5-1.6,0.9c0,0.1-0.1,0.3-0.1,0.4s0,0.4,0.1,0.5c0,0.3,0,0.4,0,0.6
		c-0.1,0.9-0.8,1.8-1.5,2c-0.1,0.3-0.3,0.4-0.5,0.5c-1,0.8-2,0.3-2.5-1.1c0-0.1-0.3-0.3-0.4-0.4c-1,0.1-1.6,0.6-2.5,1.1
		c0,0.1-0.1,0.3-0.1,0.4c0,0.1,0,0.3,0,0.4c0.3,1.4,0.1,2.6-1.4,2.5c-0.9-0.1-2.3-1.3-2.4-2.1c-0.3-1.5,0.3-3.1,0.6-4.6
		c0.9-3.4,1.6-6.6,0.6-10.1c-0.8-2.6-1.6-5.1-4.5-6.5c-5.1-2.4-11-0.3-14.1,3.9c-0.4,0.6-0.5,1.4-0.9,2.1c0.3,0.1,0.4,0.1,0.6,0.3
		c2.5-2.9,5.8-4,9.4-4.5c6.1-0.9,9.4,2.1,9.1,8.3c0,0.9-0.3,1.6-0.4,2.5c-0.5,2.4-1.1,4.9-1.6,7.3c-0.4,1.8-0.1,3.4,1.9,4.3
		c1.9,0.8,3.3,0,4.4-1.4c0.4-0.4,0.9-1.1,1.3-1.1c2.5,0.6,4.1-1.1,6-2.3C473,271.5,473.1,271.4,473.1,271.4z"/>
	<path class="st0" d="M491.4,249.9c-4.5,4.3-9.9,4.6-15.4,4.4c-1.4-0.1-1.8-1-1.1-2c1.8-3,3.6-5.9,7.1-7.1
		C484.8,244.2,489.8,246.6,491.4,249.9z M483.6,247.3c-3.6-0.3-6.9,2.5-7,6c2.6-0.3,5.1-0.5,7.8-0.6
		C484,250.5,483.8,249,483.6,247.3z"/>
	<path class="st0" d="M445,263.1c-0.5-3.4,1.9-5.1,4.3-6.5c3.3-2,6.9-1.4,10.1,0.3c1.8,0.9,1.4,3.1-0.8,3.8c-4,1.3-7.6,3-10.6,6
		c-1.3,1.3-2.4,0.8-2.8-1.1C445.1,264.7,445.1,264,445,263.1z M447,265.5c2.4-1.6,4.4-3.1,6.4-4.8c0.4-0.4,0.4-1.5,0.1-2.1
		c-0.3-0.5-1-1.1-1.6-1.1C448.6,257.9,446,261.6,447,265.5z"/>
	<path class="st0" d="M470.1,248c3.3-6.5,8.8-7,14.1-7.6c3.8-0.4,4-0.1,5.1,2.4c-3.4,0.4-6.6,0.6-9.9,1.1
		C476.3,244.5,474.1,247.7,470.1,248z"/>
</g>
</svg>
