<?xml version="1.0" encoding="utf-8"?>
<!-- Generator: Adobe Illustrator 19.2.1, SVG Export Plug-In . SVG Version: 6.00 Build 0)  -->
<svg version="1.1" id="Layer_1" xmlns="http://www.w3.org/2000/svg" xmlns:xlink="http://www.w3.org/1999/xlink" x="0px" y="0px"
	 viewBox="0 0 200 199" style="enable-background:new 0 0 200 199;" xml:space="preserve">
<style type="text/css">
	.st0{fill:#2196F3;}
</style>
<g id="mouthwash-lady">
	<path class="st0" d="M1.6,199c0.7-2.4,0.8-4.7-0.2-7c-0.9-2.2-1.4-4.4-1.3-6.8c0.1-3.2,0.1-6.4,0.2-9.6c0-0.9,0.4-1.8,0.8-2.6
		c1.7-3.1,3.6-6.1,4.8-9.5c1.1-3.3,2.5-6.5,4.1-9.6c1.4-2.6,3-5.1,4.8-7.5c2.6-3.5,4.6-7.3,6.6-11.1c0.8-1.5,1.5-3,2.4-4.3
		c1.5-2.1,3.5-3.3,6.1-3.6c4.8-0.5,9.7-0.8,14.1-3.1c2.1-1.1,4.4-1.6,6.6-2.4c2-0.7,3.9-1.5,5.8-2.3c0.9-0.4,1.6-1,1.9-2
		c0.9-2.9,2-5.8,2.8-8.8c0.6-2.4,0.8-5,1.3-7.5c0.4-2.2,0.9-4.3,1.4-6.5c0.2-0.8,0.2-1.7,0.3-2.5c0.4-2.8,0.8-5.6,1.2-8.4
		c0.3-1.9,1-3.7,0.8-5.5c-0.6-5,1.9-9.3,2.6-14c0.6-3.6,1.2-7.1,1.9-10.7c0.4-1.8,0.8-3.7,1.4-5.4c1.5-4.7,2.9-9.5,4.5-14.1
		c0.7-1.9,2-3.6,3.1-5.4c1.4-2.3,2.9-4.5,4.1-6.9c1.8-3.9,4.5-6.9,7.6-9.7c3-2.6,5.9-5.2,9.1-7.4c3.5-2.4,7.3-4.3,11.6-4.4
		c4.1-0.1,8.2-0.4,12.3-0.3c1.9,0,3.8,0.5,5.6,1c2.9,0.8,5.8,1.8,8.7,2.7c0.4,0.1,1,0.3,1.3,0.6c2,2,4.5,3.3,7.1,4.4
		c3.2,1.4,5.7,3.7,8.4,5.7c2,1.5,3.5,3.5,4.4,5.8c0.7,1.8,0.9,3.7,0.2,5.6c2.3,1.2,3.4,3.2,4.3,5.5c1.2,3.1,2.8,6.1,2.6,9.6
		c-0.2,3.3,0.5,6.6-0.5,9.9c-0.8,2.6-0.9,5.4-1.5,8.1c-0.2,1.2-0.8,2.3-1.2,3.4c-0.9,2.3-1.3,4.7-1.5,7.2c-0.1,1.2-0.4,2.5-0.7,3.7
		c-1.9,6.7-3.8,13.4-5.7,20c-1,3.7-1.9,7.4-2.2,11.2c-0.2,2.3-0.8,4.5-1.2,6.7c0,0.3-0.1,0.5-0.1,0.8c-0.1,1.1-0.1,2,1.3,2.7
		c2.8,1.4,4.5,3.9,5.2,6.9c0.5,2,0,4-1.3,5.8c2-0.1,3.9-0.4,5.8-0.2c3.9,0.3,7.8,0.7,11.6,1.1c1.4,0.2,1.7,0.8,1.4,2.3
		c-0.2,0.7-0.3,1.5-0.5,2.5c0.6-0.2,1-0.4,1.4-0.5c1.4-0.6,2.9-1.1,4.5-0.9c0.8,0.1,1.6,0.5,2.3,0.8c0.8,0.3,1.6,0.7,2.3,0.7
		c3.6,0.2,4,1.1,4.9,4c0.3,0.9,0.5,1.9,0.8,2.8c0.1,0.4,0.5,0.7,0.8,1c1.1,0.7,2.3,1.2,3.3,2.1c1,0.9,1.9,2.1,2.7,3.3
		c0.5,0.8,0.2,1.8-0.4,2.6c-0.2,0.2-0.3,0.5-0.5,0.7c-0.9,1.3-0.9,1.8,0.3,2.8c1.4,1.1,1.9,2.5,1.8,4.2c-0.1,1.4-0.6,2.5-1.8,3.2
		c-0.8,0.5-0.8,1-0.5,1.7c0.2,0.6,0.4,1.2,0.5,1.8c0.2,1.7,0,3.3-1.3,4.6c-1.6,1.6-3,3.3-4.5,4.9c-1,1-2.2,1.9-3.4,2.8
		c-0.7,0.5-1.1,1.1-1,1.9c0.1,2.8,0.1,5.6,0.3,8.3c0.1,1.6,0.7,3.2,0.9,4.9c0.3,2.1,0.6,4.2,0.8,6.2c0.1,0.7,0.2,1.5,0.2,2.2
		c-0.6,0-1.2,0-1.8,0c-0.1-0.9-0.3-1.8-0.4-2.7c-0.4-2.5-0.6-5-1.1-7.5c-0.5-2.3-0.8-4.5-0.7-6.8c0-1.1,0-2.3,0-3.5
		c-2.6,1.1-5,2-7.7,1.6c-1-0.2-2-0.5-2.9-0.9c-1.1-0.6-2.2-1.3-3.3-2c-0.3-0.2-0.3-0.8-0.5-1.2c0.4,0.1,0.9,0.1,1.3,0.3
		c1.7,0.7,3.3,1.8,5,2.2c2.1,0.5,4.2-0.1,6.1-0.9c1-0.4,1.9-1,2.4-2.1c0.2-0.5,0.8-0.9,1.3-1.4c0.3-0.3,0.7-0.6,1.1-0.9
		c-0.1-0.2-0.2-0.2-0.3-0.3c-1.3-1.3-3-2.1-3.9-3.8c-0.1-0.3-0.8-0.5-1.1-0.5c-3.2,0.3-6.4,0.1-9.5-0.6c-2.2-0.5-4.4-0.9-5.7-3
		c-1.6,0.2-3.1,0.4-4.5,0.6c0.3,1,0.5,1.8,0.7,2.7c0.2,1.1,0.3,2.2,0.6,3.2c0.5,1.6,1.3,3.2,1.6,4.9c0.9,4.4,1.5,8.9,2.3,13.4
		c0.6,3.1,0.9,6.1,0.9,9.2c-0.7,0-1.3,0-2,0c-0.1-1.6-0.1-3.2-0.2-4.8c-0.3-2.8-0.8-5.6-1.2-8.4c-0.2-1.4-0.5-2.8-0.8-4.2
		c-0.3-1.8-0.4-3.7-1-5.4c-0.8-2.2-1.5-4.3-1.8-6.6c-0.1-0.9-0.3-2-0.8-2.7c-1.6-2.4-3.1-4.8-3.2-7.9c-1.4,0.1-2.8,0.1-4.3,0.3
		c-0.8,0.1-1.2-0.2-1.3-1c-0.5-3.5-1.1-7.1-1.6-10.6c-0.1-0.6-0.3-1.1-0.4-1.6c-0.7,1.3-1.3,2.6-1.9,3.7c0.3,0.5,0.7,1,0.7,1.4
		c-0.1,3.3-0.2,6.6-0.4,9.9c-0.3,5.3,0.5,10.5,0.9,15.7c0.2,2.8,0.4,5.7-0.3,8.4c-1.3,5-4.1,9.5-7.1,13.7c-1,0-1.9,0-2.9,0
		c3.2-3.1,4.8-7.1,6.9-11.1c-11.8,7.5-24.2,10.4-37.9,7.2c0.6,0.4,1,0.6,1.3,0.8c2,1.1,4.1,2.1,6.1,3.1c-1.6,0-3.3,0-4.9,0
		c-0.1-0.1-0.2-0.2-0.3-0.3c-1.5-0.9-3.2-1.5-4.4-2.7c-3.5-3.1-6.9-6.3-10.1-9.6c-1.7-1.8-3.2-3.9-4.5-6c-1.1-1.7-2-3.5-3.7-4.7
		c-2,2-4.4,3.7-5.8,6.3c-0.9,1.7-1.9,3.5-3,5.1c-2.8,4-5.8,7.9-8.6,11.9c-0.7,0-1.5,0-2.2,0c1.4-2,2.8-4.1,4.2-6.1
		c1.8-2.5,3.7-5,5.5-7.5c1.5-2.2,2.8-4.5,4.3-6.8c0.5-0.8,1.3-1.4,2-2c0.7-0.6,1.4-1.2,2.2-2c-2.5-0.7-4.2-2.2-5.8-3.7
		c-0.2-0.2-0.2-0.7-0.2-1.1c0.4,0,0.8,0,1.1,0.1c0.3,0.1,0.4,0.4,0.7,0.6c1.4,0.9,2.8,1.8,4.3,2.6c1.2,0.6,2.1,0.1,2.7-0.9
		c1.6-2.7,3.1-5.4,4.7-8.1c0.1-0.2,0.1-0.4,0.1-0.6c0-1.3,0-2.5,0-3.8c0-2.3,0.4-4.3,2.2-6c1.7-1.6,3.7-2.8,5.8-3
		c3.5-0.4,7.2-0.5,10.5,1.3c0.2,0.1,0.4,0.1,0.6,0.2c-1.1-2.9-1.1-3.3,0.6-5.1c-1.2-0.8-2.3-1.8-3.6-2.4c-1.2-0.6-2.7-0.9-4-1
		c-2.1-0.2-4.2-0.1-6.2,0c-1.2,0.1-2.4,0.4-3.5,0.7c-1.4,0.4-2.8,1.1-4.2,1.6c-0.2,0.1-0.5,0-0.6-0.1c-0.1-0.2-0.1-0.5,0-0.7
		c0.1-0.2,0.4-0.4,0.6-0.4c1.6-0.7,3.2-1.4,4.9-1.9c0.7-0.2,1.4-0.3,2.2-0.3c2.3-0.1,4.7-0.1,7-0.1c1.9,0,3.7,0.5,5.3,1.5
		c1.7,1.1,3.3,2.3,4.9,3.4c2.1,1.5,4.2,2.9,6.3,4.4c1.8,1.3,3.4,2.9,5.6,3.4c1.5,0.3,2.9,0.7,4.4,1.1c0.1-0.1,0.1-0.3,0.2-0.4
		c-0.7-0.7-1.2-1.4-2-2c-0.9-0.7-1.1-1.6-0.8-2.5c0.3-0.7,0.8-1.4,1.3-2.2c-1.3-0.9-2.6-2-4-2.8c-1.9-1-4.1-1.7-6-2.7
		c-5.3-2.7-11-3.5-16.8-4c-1.7-0.2-3.4-0.1-5.1-0.3c-0.4,0-0.7-0.5-1.1-0.7c0.3-0.3,0.6-0.8,0.9-0.8c1.4,0,2.7,0,4.1,0.1
		c2,0.2,4,0.4,5.9,0.7c2.6,0.5,5.2,0.9,7.7,1.6c2.2,0.6,4.3,1.6,6.4,2.6c2.1,1,4.3,2,6.3,3.2c1.8,1.1,3.3,2.4,5,3.6
		c0.3,0.2,0.7,0.2,1,0.3c-0.6-1.2-1.2-2.3-2.1-3.2c-0.8-0.8-0.8-1.6-0.4-2.5c0.5-1.1,1.2-1.9,2.8-1.9c-0.6-0.5-0.9-0.8-1.3-1.1
		c-0.8-0.6-1.7-1-2.5-1.6c-4.7-3.5-9.7-6.3-15.6-6.6c-3.2-0.2-6.3,0.2-9.5,0.4c-2.1,0.1-4.3,0.3-6.4,0.3c-0.4,0-0.7-0.5-1.1-0.8
		c0.4-0.2,0.8-0.4,1.2-0.5c1.4-0.1,2.9-0.1,4.3-0.2c2.8-0.2,5.5-0.5,8.3-0.7c3.6-0.3,7.2,0.8,10.9,0.4c2.6-0.3,5,0.2,7.3,1.7
		c1.1,0.7,2.3,1,3.5,1.6c0-0.1,0.1-0.2,0.1-0.2c-0.8-0.7-1.5-1.7-0.9-2.7c0.5-0.9,1.4-1.5,2.3-2.4c-1.1-1.1-2.2-2.3-3.5-3.5
		c-1-1-2.3-1.6-3.7-1.6c-1.9,0-3.7-0.2-5.6-0.9c-0.8-0.3-1.9-0.2-2.7,0c-1.9,0.7-3.7,1.7-5.6,2.5c-2.4,1-4.8,2.3-7.5,2.3
		c-2.3,0-4.5,0.4-6.7,1.3c-0.6,0.2-1.3,0.4-1.9,0.5c-2.2,0.3-4.2,1.1-5.4,3c-0.7,1.1-1.3,2.3-1.9,3.5c-2.5,4.9-6.1,9-9.7,13.2
		c-0.4,0.4-0.8,0.9-1.1,1.4c-1.4,2.2-2.6,4.5-4,6.7c-1.7,2.6-3.9,4.8-7.1,5.6c-1.5,0.4-2.7,1.4-3.4,3c-0.3,0.8-0.7,1.7-1.3,2.3
		c-2.1,2.2-4.4,4.4-6.5,6.5c-0.9,0.9-1.8,1.9-2.7,2.8c-2.5,2.7-4.3,5.9-7.4,8c-3,2.1-5.8,4.5-8.7,6.9c-2.2,1.8-4.2,3.6-6.4,5.5
		c-0.9,0-1.8,0-2.7,0c2.9-2.7,5.8-5.3,8.7-8.1c-1.8-1.4-3.8-3-5.8-4.5c-0.9-0.6-2-1-3-1.4c-0.7-0.3-1.5-0.5-2.3-0.8
		c-2.2-0.9-4.4-1.9-6.6-2.8c-1.5-0.6-3-1-4.4-1.7c-2.9-1.4-5.9-2-9.1-1.9c-2.4,0-2-0.4-2.7,2.2c0,0.2,0,0.4,0,0.6
		c0,3.9-1,7.6-1.7,11.4c-0.5,2.3-2.1,4.4-1.4,7C3.5,199,2.5,199,1.6,199z M118.6,62.3c-0.1,0.1-0.2,0.2-0.3,0.4
		c-1.7,2.5-3.3,5.1-5.1,7.5c-1.2,1.7-2.6,3.1-3.8,4.8c-2.2,3.2-4.2,6.5-6.3,9.7c-1.1,1.7-2.5,3.2-4.4,3.6c-1.6,0.3-3.4,0-5-0.2
		c-0.9-0.1-0.9-0.9-0.3-1.6c0.6-0.8,1.3-1.7,1.8-2.6c1.9-3.2,3.8-6.5,5.7-9.7c1-1.6,2.4-3,3.1-4.7c1.4-3,2.5-6,3.5-9.1
		c1.3-3.9,2.4-7.9,3.6-11.9c0.3-1,0.6-2,0.9-3c0.7-2.2,1.4-4.4,2.1-6.5c-0.6,0.1-1,0.4-1.3,0.7c-1.2,1.1-2.3,2.3-3.4,3.5
		c-1.9,2.1-3.9,4.1-5.7,6.3c-1.8,2.2-3.1,4.7-4.8,7c-2.5,3.4-5.2,6.6-7.9,10c1.3,1.1,1.7,2.7,1.6,4.5c0,0.7,0.3,1.7-0.8,1.7
		c-1.1,0-0.7-1-0.7-1.7c0-1.2-0.1-2.4-1.1-3.3c-0.2,0.2-0.4,0.3-0.6,0.5c-1.1,1.7-2.2,3.4-3.3,5.1c-0.1,0.2-0.1,0.7,0.1,0.9
		c1,1.4,2.3,2.5,4.1,1.8c0.4-0.3,0.9-0.7,1.3-1c0,0.6,0,1.2,0,1.8c0,0.3-0.1,0.6-0.1,1c0,1.3,0,2.5,0,3.8c0,1.8,0,3.6,0.1,5.5
		c0.1,2.4,0.1,4.7,0.2,7.1c0,0.3-0.1,0.6-0.2,0.8c-1.7,2.7-2.7,5.9-5.1,8.2c-1.5,1.5-2.8,3.3-4.2,4.9c-1.2,1.3-2.4,2.7-3.8,3.8
		c-2.2,1.7-4.7,3.1-7,4.8c-2.4,1.8-4.9,3.4-7.9,4c-3.1,0.7-6,1.7-9.2,2.5c0.4,0.9,0.9,2.1,1.6,3.1c1.1,1.8,2.4,3.5,3.6,5.3
		c1.5,2.3,2.9,4.6,4.4,6.9c1.6,2.3,3.5,4.5,5,6.9c1.6,2.5,3.1,5,4.5,7.6c1,1.8,2.4,3.3,4.3,4.5c1-1.8,2.1-3.5,3.1-5.3
		c0.6-0.9,1-2,1.7-2.8c4.1-4.6,8-9.4,10.6-15.1c1.1-2.4,2.9-4.1,5.5-4.8c1-0.3,2.1-0.3,3-0.6c2.4-0.9,4.9-1.5,7.4-1.5
		c1.9-0.1,3.6-0.6,5.3-1.4c1.6-0.8,3.2-1.6,4.9-2.2c1.4-0.5,2.2-1,2.4-2.7c0.1-1.5,0.8-3,1.5-4.4c1-2.2,1-2.1-1-3.3
		c-1.3-0.8-2.6-1.8-3.8-2.8c-1.3-1-2.6-2-3.9-2.9c-0.9-0.6-2-1-2.8-1.7c-2.5-1.8-4.9-3.5-7.3-5.4c-1.8-1.5-3.5-3.2-5.2-4.8
		c-0.2-0.1-0.2-0.6-0.1-0.8c0.2-0.2,0.6-0.4,0.8-0.3c0.4,0.2,0.8,0.5,1.1,0.8c1.4,1.2,2.7,2.6,4.1,3.7c1.8,1.5,3.7,2.8,5.6,4.2
		c0.4,0.3,0.8,0.5,1.2,0.8c2.3,1.5,4.8,2.9,6.9,4.7c1.6,1.4,3.4,2.6,5.3,3.6c0.7,0.4,1.7,0.4,2.3,0.9c2.3,1.6,4.8,1.5,7.3,1
		c3.1-0.6,5.8-1.9,7.5-4.8c0.6-1,1.2-2,1.9-3c0.9-1.2,1.9-2.2,2.7-3.4c1.3-2,2.3-4.3,3.7-6.3c2-2.7,3.2-5.8,4.7-8.7
		c0.6-1.2,1.3-2.3,1.7-3.5c0.4-1.1,0.7-2.3,1-3.5c0.4-2.1,1.4-4,1.2-6.3c-0.2-1.7-0.2-3.3-0.2-5c0-0.3,0-0.5-0.1-0.8
		c-1.1,0.5-2,1.1-3.1,1.5c-1.3,0.5-2.8,0.4-3.8-0.6c-1-1-2.1-2-3.5-2.3c-0.7-0.2-1-0.7-0.6-1.3c0.2-0.3,0.9-0.3,1.3-0.2
		c1.6,0.5,3.2,1.2,4.8,1.8c1.6,0.6,3.2,0.6,4.7-0.2c0.2-0.1,0.5-0.4,0.5-0.7c0.2-1.9,0.7-3.8,1.8-5.4c0.6-1,0.5-2,0.4-2.9
		c-1.8,0.1-3.6,0.1-5.3,0.3c-1.7,0.3-3.7,0.4-5.1,1.3c-1.5,1-3,2.5-3.6,4.4c-0.5,1.8-0.8,3.7-0.5,5.6c0.4,3.6,0.8,7.2,1.9,10.6
		c0.5,1.4,0.2,2.8-0.7,3.5c-2.1,1.4-4.5,2.1-7,1.8c-0.6-0.1-1.5-0.5-1.6-0.9c-0.4-1.4-1.6-1.1-2.3-1c-3.3,0.7-6.3-1.4-5.6-5.3
		c0.2-1.1,1.7-2.4,3.1-2.2c-0.3,0.4-0.5,0.7-0.8,0.9c-1.2,0.7-1.5,1.8-1.4,3.1c0.2,1.5,2.4,3.2,3.5,2.5c1.4-0.9,2.9-0.3,4.3-0.4
		c0.3,0,0.8,0.6,1,1c0.1,0.2-0.4,0.6-0.7,1c0.3,0.1,0.7,0.3,1,0.3c1.9,0,3.6-0.5,5.3-1.3c0.8-0.4,1.1-1,0.9-1.8
		c-0.2-1-0.5-1.9-0.7-2.9c-0.5-3.1-1-6.2-1.3-9.3c-0.1-1.7,0.1-3.4,0.4-5c0.4-2.4,2.3-3.8,3.9-5.4c0.6-0.6,1.2-1.4,2-1.8
		c3-1.7,6.1-2.5,9.4-0.9c0.3-1.2,0.9-2.4,0.9-3.5c0.2-6.3,0-12.6-2.3-18.6c-0.9-2.4-2-4.5-3.6-6.1c-0.6-0.1-1.1,0-1.4-0.2
		c-2.6-1.5-5.4-0.9-8.1-0.9c-0.4,0-0.7,0.3-1.1,0.5c-1.4,0.9-2.7,1.9-4.2,2.8c-4.5,2.6-8,6.2-10.7,10.7c-0.7,1.2-1.7,2.3-2.7,3.4
		c-1.8,2.1-2.7,4.6-3.5,7.2c0,0.1,0,0.3,0,0.3c4.1,0.2,8,0.5,11.5,2.8c0.7,0.5,1.1,1.1,0.6,1.8c-0.5,0.8-1.1,0.4-1.7,0.1
		c-1.4-0.7-2.7-1.6-4.2-1.9c-2.3-0.4-4.7-0.3-7-0.4c-0.1,0-0.4,0.2-0.5,0.4c-1,1.9-2.1,3.8-3.1,5.7c0.8,0.6,1.6,1.4,2.5,1.8
		c1.7,0.6,3.6,1.2,5.4,1.4c1.5,0.2,3-0.3,4.5-0.3c0.4,0,0.8,0.4,1.3,0.5c-0.3,0.4-0.5,0.8-0.8,1.1c-0.1,0.1-0.3,0.1-0.5,0.2
		c-1.7,0.3-3.3,0.6-5,0.8c-1.8,0.2-3.5,0.1-4.9-1.5C121.2,63.9,119.8,63.2,118.6,62.3z M48,185.9c0.3-0.2,0.5-0.2,0.7-0.4
		c1.8-1.5,3.4-3,5-4.8c3.7-4.3,7.7-8.2,11.6-12.3c0.5-0.5,1-1,1.2-1.7c0.7-2.5,2.6-3.7,4.8-4.7c1-0.4,2.1-0.7,3.1-1.2
		c2-1,2-1.9,0.3-3.4c-1.1-1-2-2.2-2.9-3.5c-1-1.5-1.8-3.2-2.8-4.8c-1.4-2.2-2.8-4.3-4.3-6.4c-1.5-2.2-3.2-4.4-4.7-6.7
		c-1.3-2-2.5-4-3.6-6.1c-1-2-3-3.4-3.4-5.7c-0.1-0.8-0.6-0.8-1.3-0.6c-3.3,1.3-6.6,2.5-9.9,3.8c-3.7,1.5-7.5,1.6-11.4,2
		c-2.1,0.2-3.9,1-5,2.6c-1.3,1.9-2.3,4-3.4,6.1c-1.3,2.3-2.5,4.8-4,7c-2.8,3.9-5.7,7.6-7.5,12.1c-1,2.4-2,4.9-3,7.3
		c0,0.1,0,0.2,0,0.2c1.1,0.3,2,0.6,3,0.9c5.5,1.4,11.2,2.4,16.6,4.2c4.6,1.5,9.3,3.4,12.9,7c1.2,1.2,2.4,2.3,3.5,3.5
		c0.6,0.6,1.1,1.3,1.9,2.2c-0.1-0.8-0.1-1.3-0.2-1.7c-0.3-2-0.8-4-1-6c-0.3-3.3-0.2-6.6-0.5-9.9c-0.3-3.6-0.5-7.1-1.2-10.6
		c-0.6-3.2-1.2-6.3-3.1-9.1c-0.8-1.2-1.2-2.7-1.7-4.2c-0.1-0.3,0.2-0.8,0.4-1.1c0.3,0.1,0.8,0.2,1,0.4c0.3,0.3,0.5,0.7,0.7,1
		c0.9,1.8,1.8,3.7,2.7,5.5c0.3,0.6,0.5,1.2,0.7,1.7c1.9,5.7,2.3,11.7,2.7,17.6c0.2,2.8,0.2,5.7,0.4,8.6c0.3,3.6,1.5,7.1,1.2,10.8
		C47.9,185.6,48,185.7,48,185.9z M126,133.4c0.4,0.2,0.8,0.3,1.2,0.5c3.9,1.7,7.5,4.1,10.6,6.9c1.9,1.7,3.1,4.1,4.5,6.3
		c0.3,0.4,0.2,1.4-0.2,1.8c-0.9,1.1-2,2-3.2,3.1c0.5,3.8-1.3,5.9-5.5,5.5c-2.3-0.2-4.7-0.9-6.8-2.1c-0.5-0.3-1.2-0.6-1.6-0.5
		c-0.5,0.1-1.1,0.7-1.4,1.2c-1.9,2.4-3.9,4.8-5.8,7.2c-0.8,1-1.2,1-2.3,0.3c-1.6-1.1-3.3-2.2-5-3c-2.3-1-4.8-1.6-7.3-2.2
		c-0.4-0.1-1.2,0.1-1.4,0.4c-1.9,2.3-3.8,4.6-5.5,7.1c-0.8,1.2-1.2,2.6-1.8,3.9c1.5,0.1,2.8,0.1,4.1,0.4c1.8,0.4,3.4,1,5.2,1.4
		c2.3,0.5,4,2,5.8,3.3c2.3,1.6,4.4,3.5,6.2,5.7c1.8,2.2,3.7,4.4,5.6,6.7c0.4-0.4,0.7-0.7,0.9-1c2.3-3.6,4.6-7.3,7-10.9
		c1.9-2.8,3.7-5.7,5.8-8.4c2.8-3.6,5.9-7,8.7-10.6c2.1-2.7,3.9-5.7,5.9-8.6c0.2-0.2,0.2-0.5,0.3-0.8c0.2-0.7,0.4-1.6,0.8-2.2
		c0.5-0.8,0.9-1.7,0.4-2.6c-0.8-1.5-1.7-2.9-2.6-4.3c-0.6-0.9-1.4-1.6-2-2.5c-0.7-0.8-1.3-1.6-2-2.4c-0.4-0.5-0.9-0.9-1.4-1.4
		c-1.3-1-2.5-2-3.8-3.1c1.1,2,2.3,3.8,3.6,5.6c0.6,0.9,0.5,1.6-0.2,2.4c-0.9,1-2,1-3.2,0.8c-3.1-0.6-6-1.8-8.8-3.4
		C129,133,127.5,133.2,126,133.4z M90.4,174.4c0.4,0.3,0.8,0.5,1.1,0.8c0.3,0.3,0.7,0.6,0.9,0.9c0.8,1.3,1.6,2.6,2.4,3.9
		c2.4,3.8,5.6,6.9,8.8,9.9c1.1,1.1,2.4,1.7,3.9,2.2c0.7,0.2,1.4,0.4,2.1,0.6c3.2,1.1,6.5,1.5,9.9,1.7c4.4,0.2,8.7-0.8,13-1.8
		c6-1.4,11.3-4.3,16-8.2c0.3-0.2,0.6-0.7,0.6-1.1c0-3.8,0.3-7.6-0.4-11.4c-0.8-4.6-0.5-9.2-0.1-13.8c0.2-1.9,0-3.8,0-5.9
		c-0.2,0.3-0.3,0.4-0.4,0.5c-2.9,3.8-5.7,7.6-8.6,11.4c-1.3,1.6-2.8,3.1-4,4.8c-3.4,5.1-6.7,10.2-10,15.4c-1.2,1.9-2.3,3.7-4.4,4.9
		c-1.8,1.1-3.6,1.5-5.6,1.6c-3,0.2-5.7-0.8-8.4-2.2c-3.4-1.8-6.5-4-9.3-6.5c-1.6-1.5-2.8-3.4-4-5.3c-0.7-1.1-1.2-2.5-1.8-3.7
		C91.5,173.5,91,173.9,90.4,174.4z M193.2,151c-0.5,0.2-0.9,0.4-1.3,0.5c-0.8,0.3-1.7,0.3-2.3,0.7c-3.6,2.2-7.4,3.6-11.7,3.8
		c-1.6,0.1-3.3,0.9-4.9,1.5c-0.6,0.2-1.2,0.7-1.8,0.9c-1,0.3-2.1,0.5-3.2,0.7c0.5,2.4,0.2,3-2,3.8c-0.6,0.2-1.2,0.2-1.8,0.3
		c-0.5,0.1-1,0.3-1.6,0.5c0,0.1,0,0.3,0,0.4c0.4,0.1,0.7,0.2,1.1,0.2c1.5-0.1,2.9-0.2,4.4-0.5c3.3-0.5,6.6-1.1,9.9-1.7
		c2.8-0.6,5.6-1.6,8.6-1.4c2.5,0.2,4.8-0.1,7.2-1c0.3-0.1,0.7,0.1,1.1,0.2c-0.2,0.3-0.4,0.8-0.7,0.9c-2,0.5-4,1.2-6,1.1
		c-4.3-0.2-8.2,0.9-12,1.9c-0.6,1.1-1,2-1.6,3c1.5,0.2,3.1,0.5,4.7,0.5c3.4,0.1,6.7,0.1,10.1,0.3c0.4,0,0.7,0.4,1.1,0.7
		c-0.4,0.2-0.7,0.6-1.1,0.6c-0.8,0-1.7-0.1-2.7-0.2c0.6,2,2.3,2.6,3.6,3.8c1.8-2,3.4-4,5.3-5.9c0.9-0.9,1.2-1.8,1-3
		c-0.1-0.6-0.3-1.1-0.5-1.7c-0.6-1.6-0.3-2.7,1.2-3.6c1.5-1,1.5-3.2,0.1-4.4c-2.2-1.9-2.4-3.4-0.6-5.7c0.6-0.8,0.6-1.4,0.1-2.2
		c-1.3-1.9-3.4-2.6-5-3.8c-0.5,0.3-0.9,0.7-1.2,0.7c-2-0.1-4-0.3-6-0.4c-0.5,0-1,0.1-1.5,0.3c-1.1,0.4-2.1,1-3.2,1.3
		c-2.9,0.8-5.8,1.5-8.6,2.2c0.6,1,1.2,1.8,1.7,2.8c0.4,0.8,0.3,1.6-0.3,2.2c-0.3,0.3-0.7,0.7-1.2,1.3c2.5-0.4,4.8-0.6,6.9-1.1
		c3.4-0.8,6.8-1.6,10.4-0.9c0.5,0.1,1.1-0.1,1.7-0.2C191.2,150.4,192.3,149.7,193.2,151z M174,131.7c-0.4,0.1-0.8,0.2-1.1,0.3
		c-2.4,0.4-4.7,1.1-7.1,1.3c-4.3,0.3-8.5-0.2-12.7-1.2c-0.6-0.1-1.3,0.4-1.9,0.8c-0.1,0.1,0.2,0.8,0.2,1.2c0.2,1,0.6,2,0.7,3.1
		c0.4,2.5,0.7,5,1.1,7.5c0.4,2.2,0.9,4.4,1.2,6.6c0.3,1.7,0.6,3.4,0.7,5.1c0.1,0.9,0.6,1,1.3,1c1.4,0,2.9-0.1,4.3,0.1
		c3.4,0.3,6.8,0.1,10.1-0.7c0.9-0.2,1.1-0.7,1-1.5c-0.1-0.9-0.4-1.8-1.7-1.6c-0.5,0.1-1-0.1-1.5-0.1c-2-0.1-3.7-1.3-3.9-2.8
		c-0.3-2.3,1-4.2,3.3-4.8c1.9-0.5,3.8-1.1,5.7-1.6c1.3-0.4,2.6-0.8,3.9-1.1c1.2-0.3,2.3-0.5,3.5-0.8c0-0.2-0.1-0.3-0.1-0.5
		c-1.5,0.2-3.1,0.5-4.6,0.7c-2.1,0.3-4.2,0.6-5.7-1.5c-0.1-0.2-0.4-0.3-0.6-0.4c-1.7-1.2-1.7-3.7,0.1-4.8c0.8-0.6,1.7-1.1,2.6-1.5
		C174,133.9,174.5,133,174,131.7z M2.6,174.8c1.4,0.5,2.5,0.9,3.6,1.2c0.4,0.1,0.8,0.1,1.2,0.1c3.9-0.7,7.7-0.2,11.4,1.2
		c3.9,1.5,7.7,3.3,11.7,4.7c3.4,1.2,6.6,2.6,9.4,4.9c1.2,1,2.2,2.1,3.5,3.3c0.8-0.7,1.9-1.7,3-2.6c-0.2-0.3-0.4-0.4-0.5-0.6
		c-1.7-3.3-4.1-6-6.8-8.5c-3.4-3.3-7.7-5.1-12-6.7c-4.4-1.6-9-2.5-13.6-3.6c-2.1-0.5-4.3-1-6.3-1.5C5.6,169.5,4.1,172.1,2.6,174.8z
		 M93.7,171.7c0,0.4,0,0.9,0.2,1.2c0.5,1.3,1.1,2.6,1.8,3.8c1.6,2.8,3.8,4.8,6.4,6.6c3.1,2.3,6.4,4.2,10.1,5.3
		c2.3,0.7,4.7,0.4,7.1-0.5c-0.4-0.5-0.7-0.9-1-1.3c-1.1-1.2-2.3-2.3-3.2-3.7c-1.7-2.4-3.6-4.7-6.1-6.3c-1.8-1.2-3.2-3.1-5.5-3.6
		c-1-0.2-1.9-0.6-2.9-0.9C98.3,171.7,96.1,171.2,93.7,171.7z M119.3,149.9c-0.1,0.6-0.1,0.8-0.1,1c-0.1,2-1.3,3.2-3.2,3.1
		c-1,0-2.1-0.4-3.1-0.7c-1.5-0.4-3-0.9-4.5-1.3c-0.2-0.1-0.6,0-0.7,0.1c-1.4,1.5-2.8,3-4.4,4.7c5,0.9,9.3,2.7,13.1,5.4
		c2.6-3,5.1-5.9,7.6-8.9C122.5,152.2,121,151.1,119.3,149.9z M173.3,135.3c0,0.1,0,0.3,0.1,0.4c1.6,0.1,2.5,1,3,2.5
		c0.4,1,0.2,1.6-0.8,2c-0.7,0.3-1.4,0.7-2.2,1.1c0,0.1,0.1,0.2,0.1,0.3c3.3-0.4,6.8-0.4,9.7-2.5c0.2-0.2,0.7-0.1,1-0.1
		c0,0.3,0,0.7-0.1,1c-0.2,0.4-0.5,0.6-0.8,1c0,0.1,0,0.2,0,0.3c2.4,0,4.8,0,7.2,0c-0.3-1.4-0.6-2.9-1.1-4.3c-0.5-1.5-0.6-2-2.4-2.1
		c-1.2-0.1-2.6-0.3-3.5-0.9c-1.3-0.9-2.5-0.9-3.8-0.6c-1.2,0.3-2.4,0.8-3.6,1.2C175.1,134.7,174.2,135,173.3,135.3z M151.2,131.2
		c-0.5-0.4-0.7-0.8-1-0.9c-0.9-0.5-1.6-1-1.7-2.1c0-0.1-0.2-0.3-0.4-0.4c-1.2-1.1-2.4-2.3-3.7-3.3c-0.9-0.7-1.9-1.5-3.1-0.6
		c-0.7,0.5-1.5,1-2.1,1.6c-0.2,0.2-0.3,0.8-0.1,1c0.3,0.5,0.8,1,1.3,1.3c0.9,0.7,1.9,1.2,2.7,1.9c1.4,1.3,2.8,2.7,4.2,4.1
		c1.2,1.3,2.2,2.7,3.3,4.1c0.1-0.1,0.2-0.1,0.3-0.2c-0.3-1.3-0.6-2.7-0.9-4.2c-0.3,0.3-0.4,0.5-0.5,0.6c-0.3,0.3-0.6,0.6-1,0.8
		c-0.1-0.5-0.3-1-0.2-1.5C148.6,132.1,149.5,131.3,151.2,131.2z M151.9,129.5c0.6-0.5,1.1-0.9,1.6-1.3c1.2-0.9,1.3-0.9,0.4-2.1
		c-1.2-1.5-2.5-3.1-3.9-4.4c-1.1-1-2.4-1.6-3.7-2.3c-1.5-0.9-1.5-0.8-2.8,0.4c-0.1,0.1-0.3,0.2-0.4,0.4c-0.8,0.8-0.6,1.4,0.3,2
		c1.8,1.2,3.6,2.4,5.2,3.7C149.9,127,150.9,128.5,151.9,129.5z M155.8,125.9c1.1-0.8,1.7-2.9,1.1-4.5c-1.1-3.1-3-5.6-6.5-6.1
		c-0.8-0.1-1.8-0.1-2.5,0.3c-0.6,0.4-1,1.3-1.5,2.2C150.7,119.3,153.2,122.6,155.8,125.9z M153.4,130.8c4.8,1.8,16.5,1.6,20.8-0.8
		c-0.2-0.1-0.4-0.2-0.5-0.2c-2.6-0.3-5.1-0.7-7.7-0.8c-2.1-0.1-4.3,0-6.4,0.2c-1.5,0.1-2.9,0.6-4.3,0.6
		C154.2,129.5,153.9,130,153.4,130.8z M3.7,191.8c0.2-0.3,0.3-0.5,0.3-0.7c0.6-4,1.2-8.1,1.8-12.1c0.1-0.4-0.2-1-0.5-1.2
		c-0.9-0.5-1.8-0.8-2.8-1.1c-0.1,0.1-0.2,0.2-0.3,0.3C2.7,181.9,1.2,186.9,3.7,191.8z M187.6,151.9c-4.9-0.8-9.3,1.7-14.3,1.7
		c0.2,0.8,0.4,1.4,0.5,2c1.7-0.3,3.2-0.8,4.8-0.9C181.9,154.6,184.8,153.4,187.6,151.9z M168.5,152.2c1,0,3.2-1.6,3.2-2.3
		c0-1.1-1.6-2.8-2.7-2.8c-1.5,0-3,1.2-3.1,2.7C165.8,151.1,166.9,152.1,168.5,152.2z M102.2,153.1c-3.1-0.3-6.3,3.7-5,8.1
		c1.5-2,3-4,4.4-6C101.9,154.6,102,153.8,102.2,153.1z M139.3,149.9c0.8-0.7,1.3-1.2,1.9-1.7c-1-1.6-1.8-2.8-2.4-4
		c-0.5-0.9-1.2-0.8-2-0.7c-0.8,0.1-1.4,1.6-0.9,2.1C136.9,147,138,148.4,139.3,149.9z M137.5,153c-0.2-0.3-0.3-0.8-0.7-1.1
		c-0.7-0.5-1.5-0.9-2.2-1.4c-0.7-0.6-1.2-0.3-1.6,0.2c-0.5,0.6-0.7,1.4-0.1,2c0.8,0.8,1.6,1.5,2.4,2.3c1,0.9,1.4,0.8,1.8-0.6
		C137.3,154,137.4,153.6,137.5,153z M166.7,159.5c-1.9-0.1-3.7-0.2-5.9-0.3c0.4,1.3,0.7,2.2,0.9,3c1.1-0.1,1.9-0.1,2.8-0.2
		C166.3,161.9,167,161.2,166.7,159.5z M136.6,132.7c0.5,0.6,0.7,0.9,1,1.2c0.7,0.6,1.3,1.3,2.1,1.8c0.3,0.2,0.9,0.1,1.4,0
		c0.2-0.1,0.4-0.7,0.3-0.8c-0.5-1-1.1-2-1.8-2.9c-0.2-0.3-0.9-0.6-1.2-0.5C137.8,131.7,137.3,132.2,136.6,132.7z M117.8,152
		c-0.1-1.4,0.7-2.9-1.2-3.8c-0.7-0.3-1-0.3-1.5,0.1c-0.7,0.7-0.5,1.5-0.2,2.2C115.5,151.6,116.5,151.8,117.8,152z M172.1,136.9
		c0.1,0.7,0.1,1.5,0.3,2.1c0.2,0.5,0.5,1.1,1.3,0.7c0.5-0.3,1-0.5,1.5-0.7C174.7,137,174.3,136.7,172.1,136.9z M174.6,164
		c-1.7,0.2-3.2,0.5-4.9,0.7C172.1,166.7,173.4,166.6,174.6,164z M170.8,136.9c-0.8,1.6-0.6,2.3,0.4,2.7
		C171.1,138.8,170.9,138,170.8,136.9z"/>
	<path class="st0" d="M125.6,89.8c2,0,4.1,0.1,6.1,0c1.4-0.1,2.8-0.3,4.2-0.4c0.5,0,1,0.1,1.4,0.4c0.7,0.5,1.3,0.6,2.1,0.3
		c1-0.4,1.8-0.1,2.5,0.7c0.8,1,1.7,1.9,2.5,2.9c0.2,0.2,0.2,0.7,0.1,1.1c-0.6,2.4-2.3,4-4.3,5.3c-2.6,1.7-6.3,1.3-8.7-0.9
		c-2.1-1.8-4.3-3.6-6.4-5.4c-0.9-0.8-1.7-1.6-2.6-2.5c-0.5-0.5-0.2-1.5,0.6-1.6c0.8-0.1,1.6-0.2,2.4-0.2
		C125.6,89.7,125.6,89.8,125.6,89.8z M126.5,93.5c0,0.3,0,0.4,0.1,0.5c2,1.6,4.1,3.1,6,4.8c1.8,1.6,5.5,1.9,7.3,0.4
		c0.7-0.6,1.6-1.1,2.2-1.8c0.5-0.6,0.8-1.5,1.2-2.2c-0.1-0.1-0.2-0.2-0.3-0.4c-1.7,0.2-3.4,0.4-5.1,0.6c-1,0.1-2.1,0.2-3,0
		C132.1,94.8,129.3,94.1,126.5,93.5z M142.8,93.7c0.1-0.1,0.1-0.2,0.2-0.3c-0.6-0.6-1.2-1.2-1.7-1.8c-0.5-0.6-1-0.7-1.7-0.5
		c-0.7,0.2-1.7,0.2-2.2-0.1c-1-0.8-2.1-0.8-3.2-0.6c-2.5,0.6-4.9,0.4-7.4,0.2c-0.6-0.1-1.3,0.1-1.9,0.1c0,0.2,0,0.4,0,0.6
		c2,0.1,4,0.1,6,0.3c2,0.2,4.1,0.4,6.1,0.7C139,92.7,140.9,93.3,142.8,93.7z M125.5,92.1c0,0.2-0.1,0.3-0.1,0.5
		c0.8,0.1,1.7,0.3,2.5,0.5c1.9,0.4,3.8,0.6,5.7,1.1c1.7,0.5,3.4,0.6,5.2,0.2c0.4-0.1,0.9-0.1,1.3-0.2c0-0.2,0-0.3,0-0.5
		C135.2,92.6,130.4,92,125.5,92.1z"/>
</g>
</svg>
