<?xml version="1.0" encoding="utf-8"?>
<!-- Generator: Adobe Illustrator 19.2.1, SVG Export Plug-In . SVG Version: 6.00 Build 0)  -->
<svg version="1.1" id="Layer_1" xmlns="http://www.w3.org/2000/svg" xmlns:xlink="http://www.w3.org/1999/xlink" x="0px" y="0px"
	 viewBox="0 0 200 199" style="enable-background:new 0 0 200 199;" xml:space="preserve">
<style type="text/css">
	.st0{fill:#2196F3;}
</style>
<g id="mouthwash-lady">
	<path class="st0" d="M195.5,199c0.7-2.6-1-4.7-1.4-7c-0.7-3.8-1.7-7.5-1.7-11.4c0-0.2,0-0.4,0-0.6c-0.7-2.6-0.3-2.1-2.7-2.2
		c-3.2-0.1-6.2,0.5-9.1,1.9c-1.4,0.7-3,1.1-4.4,1.7c-2.2,0.9-4.4,1.9-6.6,2.8c-0.7,0.3-1.5,0.5-2.3,0.8c-1,0.4-2.1,0.8-3,1.4
		c-2.1,1.5-4,3.1-5.8,4.5c3,2.7,5.9,5.4,8.7,8.1c-0.9,0-1.8,0-2.7,0c-2.1-1.8-4.2-3.7-6.4-5.5c-2.8-2.3-5.6-4.8-8.7-6.9
		c-3.1-2.2-4.9-5.4-7.4-8c-0.9-0.9-1.8-1.9-2.7-2.8c-2.2-2.2-4.4-4.3-6.5-6.5c-0.6-0.6-1-1.5-1.3-2.3c-0.7-1.6-1.9-2.6-3.4-3
		c-3.3-0.8-5.4-2.9-7.1-5.6c-1.4-2.2-2.7-4.5-4-6.7c-0.3-0.5-0.7-0.9-1.1-1.4c-3.6-4.1-7.1-8.3-9.7-13.2c-0.6-1.2-1.2-2.4-1.9-3.5
		c-1.2-1.9-3.2-2.7-5.4-3c-0.7-0.1-1.3-0.2-1.9-0.5c-2.1-0.9-4.4-1.3-6.7-1.3c-2.7,0-5.1-1.3-7.5-2.3c-1.9-0.8-3.7-1.8-5.6-2.5
		c-0.8-0.3-1.9-0.3-2.7,0c-1.8,0.7-3.7,0.9-5.6,0.9c-1.5,0-2.7,0.6-3.7,1.6c-1.2,1.2-2.4,2.4-3.5,3.5c0.9,0.9,1.8,1.5,2.3,2.4
		c0.6,1-0.1,2-0.9,2.7c0,0.1,0.1,0.2,0.1,0.2c1.2-0.5,2.5-0.8,3.5-1.6c2.2-1.5,4.7-2,7.3-1.7c3.7,0.4,7.2-0.7,10.9-0.4
		c2.8,0.2,5.5,0.5,8.3,0.7c1.4,0.1,2.9,0.1,4.3,0.2c0.4,0,0.8,0.3,1.2,0.5c-0.4,0.3-0.7,0.8-1.1,0.8c-2.1,0-4.3-0.2-6.4-0.3
		c-3.2-0.1-6.4-0.5-9.5-0.4c-6,0.3-10.9,3.1-15.6,6.6c-0.8,0.6-1.7,1.1-2.5,1.6c-0.4,0.3-0.7,0.6-1.3,1.1c1.6-0.1,2.3,0.8,2.8,1.9
		c0.4,0.9,0.4,1.7-0.4,2.5c-0.8,0.9-1.5,2-2.1,3.2c0.3-0.1,0.8-0.1,1-0.3c1.7-1.2,3.3-2.6,5-3.6c2-1.2,4.1-2.2,6.3-3.2
		c2.1-1,4.2-1.9,6.4-2.6c2.5-0.7,5.2-1.2,7.7-1.6c2-0.3,3.9-0.6,5.9-0.7c1.4-0.1,2.7-0.2,4.1-0.1c0.3,0,0.6,0.5,0.9,0.8
		c-0.4,0.2-0.7,0.7-1.1,0.7c-1.7,0.2-3.4,0.1-5.1,0.3c-5.8,0.6-11.5,1.4-16.8,4c-2,1-4.1,1.7-6,2.7c-1.4,0.8-2.7,1.9-4,2.8
		c0.5,0.8,1,1.5,1.3,2.2c0.4,1,0.1,1.8-0.8,2.5c-0.7,0.6-1.3,1.3-2,2c0.1,0.1,0.1,0.3,0.2,0.4c1.5-0.4,2.9-0.8,4.4-1.1
		c2.3-0.5,3.9-2.1,5.6-3.4c2.1-1.5,4.2-3,6.3-4.4c1.6-1.1,3.2-2.3,4.9-3.4c1.6-1,3.4-1.5,5.3-1.5c2.3,0,4.7,0,7,0.1
		c0.7,0,1.5,0,2.2,0.3c1.6,0.6,3.3,1.3,4.9,1.9c0.2,0.1,0.5,0.2,0.6,0.4c0.1,0.2,0.1,0.5,0,0.7c0,0.1-0.4,0.2-0.6,0.1
		c-1.4-0.5-2.8-1.1-4.2-1.6c-1.1-0.4-2.3-0.7-3.5-0.7c-2.1-0.1-4.2-0.1-6.2,0c-1.4,0.1-2.8,0.4-4,1c-1.3,0.6-2.4,1.6-3.6,2.4
		c1.7,1.8,1.8,2.2,0.6,5.1c0.3-0.1,0.5-0.1,0.6-0.2c3.3-1.8,7-1.7,10.5-1.3c2.1,0.2,4.1,1.5,5.8,3c1.8,1.7,2.2,3.7,2.2,6
		c0,1.3,0,2.5,0,3.8c0,0.2,0,0.5,0.1,0.6c1.5,2.7,3.1,5.4,4.7,8.1c0.6,1,1.5,1.6,2.7,0.9c1.5-0.8,2.9-1.7,4.3-2.6
		c0.2-0.2,0.4-0.5,0.7-0.6c0.3-0.1,0.7-0.1,1.1-0.1c-0.1,0.4,0,0.9-0.2,1.1c-1.7,1.5-3.4,3-5.8,3.7c0.8,0.7,1.5,1.3,2.2,2
		c0.7,0.7,1.5,1.3,2,2c1.5,2.2,2.8,4.6,4.3,6.8c1.8,2.5,3.7,5,5.5,7.5c1.4,2,2.8,4.1,4.2,6.1c-0.7,0-1.5,0-2.2,0
		c-2.9-4-5.8-7.9-8.6-11.9c-1.1-1.6-2.1-3.3-3-5.1c-1.4-2.6-3.8-4.3-5.8-6.3c-1.8,1.2-2.7,3-3.7,4.7c-1.3,2.1-2.7,4.2-4.5,6
		c-3.2,3.4-6.6,6.6-10.1,9.6c-1.3,1.1-3,1.8-4.4,2.7c-0.1,0.1-0.2,0.2-0.3,0.3c-1.6,0-3.3,0-4.9,0c2-1,4.1-2.1,6.1-3.1
		c0.4-0.2,0.7-0.5,1.3-0.8c-13.8,3.2-26.2,0.3-37.9-7.2c2.1,4,3.7,8.1,6.9,11.1c-1,0-1.9,0-2.9,0c-3-4.2-5.8-8.7-7.1-13.7
		c-0.7-2.6-0.5-5.6-0.3-8.4c0.4-5.2,1.2-10.4,0.9-15.7c-0.2-3.3-0.3-6.6-0.4-9.9c0-0.4,0.4-0.9,0.7-1.4c-0.6-1.1-1.2-2.4-1.9-3.7
		c-0.1,0.5-0.3,1-0.4,1.6c-0.5,3.5-1.1,7-1.6,10.6c-0.1,0.8-0.5,1-1.3,1c-1.4-0.2-2.9-0.2-4.3-0.3c-0.1,3.1-1.5,5.5-3.2,7.9
		c-0.5,0.7-0.7,1.8-0.8,2.7c-0.3,2.3-1,4.4-1.8,6.6c-0.6,1.7-0.7,3.6-1,5.4c-0.2,1.4-0.6,2.8-0.8,4.2c-0.4,2.8-0.9,5.6-1.2,8.4
		c-0.2,1.6-0.2,3.2-0.2,4.8c-0.7,0-1.3,0-2,0c0-3.1,0.3-6.2,0.9-9.2c0.8-4.4,1.4-8.9,2.3-13.4c0.3-1.7,1.1-3.3,1.6-4.9
		c0.3-1.1,0.4-2.2,0.6-3.2c0.2-0.9,0.5-1.7,0.7-2.7c-1.3-0.2-2.9-0.4-4.5-0.6c-1.2,2.1-3.5,2.5-5.7,3c-3.1,0.7-6.3,0.9-9.5,0.6
		c-0.4,0-1,0.2-1.1,0.5c-0.8,1.8-2.6,2.5-3.9,3.8c-0.1,0.1-0.1,0.2-0.3,0.3c0.4,0.3,0.8,0.6,1.1,0.9c0.5,0.4,1.1,0.8,1.3,1.4
		c0.4,1.2,1.4,1.7,2.4,2.1c2,0.8,4.1,1.4,6.1,0.9c1.7-0.4,3.3-1.5,5-2.2c0.4-0.2,0.8-0.2,1.3-0.3c-0.1,0.4-0.2,1-0.5,1.2
		c-1,0.7-2.1,1.4-3.3,2c-0.9,0.4-1.9,0.8-2.9,0.9c-2.7,0.4-5.1-0.4-7.7-1.6c0,1.2,0,2.4,0,3.5c0.1,2.3-0.2,4.5-0.7,6.8
		c-0.5,2.5-0.8,5-1.1,7.5c-0.1,0.9-0.3,1.8-0.4,2.7c-0.6,0-1.2,0-1.8,0c0.1-0.7,0.1-1.5,0.2-2.2c0.3-2.1,0.5-4.2,0.8-6.2
		c0.3-1.6,0.8-3.2,0.9-4.9c0.2-2.8,0.2-5.5,0.3-8.3c0-0.9-0.4-1.4-1-1.9c-1.2-0.9-2.4-1.8-3.4-2.8c-1.6-1.6-2.9-3.3-4.5-4.9
		c-1.3-1.3-1.5-2.9-1.3-4.6c0.1-0.6,0.3-1.2,0.5-1.8c0.2-0.7,0.2-1.2-0.5-1.7c-1.2-0.7-1.7-1.9-1.8-3.2c-0.1-1.7,0.4-3.1,1.8-4.2
		c1.2-1,1.2-1.5,0.3-2.8c-0.2-0.2-0.3-0.5-0.5-0.7c-0.6-0.8-0.9-1.7-0.4-2.6c0.7-1.2,1.6-2.4,2.7-3.3c0.9-0.8,2.2-1.4,3.3-2.1
		c0.3-0.2,0.7-0.6,0.8-1c0.3-0.9,0.5-1.9,0.8-2.8c0.9-2.9,1.3-3.8,4.9-4c0.8-0.1,1.6-0.5,2.3-0.7c0.8-0.3,1.5-0.6,2.3-0.8
		c1.6-0.2,3,0.3,4.5,0.9c0.4,0.2,0.8,0.3,1.4,0.5c-0.2-1-0.4-1.7-0.5-2.5c-0.3-1.5,0-2.1,1.4-2.3c3.9-0.4,7.8-0.9,11.6-1.1
		c1.9-0.1,3.9,0.1,5.8,0.2c-1.2-1.8-1.7-3.8-1.3-5.8c0.7-3,2.5-5.5,5.2-6.9c1.4-0.7,1.4-1.5,1.3-2.7c0-0.3,0-0.5-0.1-0.8
		c-0.4-2.2-1-4.5-1.2-6.7c-0.4-3.8-1.2-7.5-2.2-11.2c-1.9-6.7-3.8-13.4-5.7-20c-0.3-1.2-0.7-2.4-0.7-3.7c-0.1-2.5-0.5-4.9-1.5-7.2
		c-0.4-1.1-1-2.2-1.2-3.4c-0.6-2.7-0.7-5.5-1.5-8.1c-1-3.3-0.3-6.6-0.5-9.9c-0.2-3.5,1.3-6.5,2.6-9.6c0.9-2.3,2-4.3,4.3-5.5
		c-0.7-1.9-0.5-3.8,0.2-5.6c0.9-2.4,2.3-4.3,4.4-5.8c2.7-2.1,5.2-4.3,8.4-5.7c2.6-1.1,5.1-2.4,7.1-4.4c0.3-0.3,0.8-0.5,1.3-0.6
		C64.2,2.8,67.1,1.8,70,1c1.8-0.5,3.7-1,5.6-1C79.7,0,83.9,0.2,88,0.3c4.4,0.1,8.2,2,11.6,4.4c3.2,2.2,6.2,4.8,9.1,7.4
		c3.1,2.7,5.8,5.8,7.6,9.7c1.1,2.4,2.7,4.6,4.1,6.9c1.1,1.8,2.4,3.5,3.1,5.4c1.7,4.6,3.1,9.4,4.5,14.1c0.5,1.8,1,3.6,1.4,5.4
		c0.7,3.6,1.4,7.1,1.9,10.7c0.7,4.7,3.2,9,2.6,14c-0.2,1.8,0.5,3.7,0.8,5.5c0.4,2.8,0.8,5.6,1.2,8.4c0.1,0.8,0.2,1.7,0.3,2.5
		c0.4,2.2,1,4.3,1.4,6.5c0.5,2.5,0.7,5,1.3,7.5c0.8,3,1.9,5.8,2.8,8.8c0.3,1,1,1.6,1.9,2c1.9,0.8,3.9,1.6,5.8,2.3
		c2.2,0.8,4.5,1.3,6.6,2.4c4.5,2.3,9.3,2.6,14.1,3.1c2.6,0.3,4.6,1.5,6.1,3.6c0.9,1.3,1.7,2.9,2.4,4.3c2,3.8,4,7.6,6.6,11.1
		c1.8,2.4,3.5,4.9,4.8,7.5c1.6,3.1,3,6.3,4.1,9.6c1.1,3.4,3.1,6.4,4.8,9.5c0.4,0.8,0.8,1.7,0.8,2.6c0.2,3.2,0.1,6.4,0.2,9.6
		c0.1,2.4-0.4,4.6-1.3,6.8c-1,2.3-0.9,4.7-0.2,7C197.5,199,196.5,199,195.5,199z M77.9,65c-1.4,1.6-3.1,1.6-4.9,1.5
		c-1.7-0.1-3.3-0.5-5-0.8c-0.2,0-0.4,0-0.5-0.2c-0.3-0.4-0.5-0.8-0.8-1.1c0.4-0.2,0.9-0.6,1.3-0.5c1.5,0.1,3,0.5,4.5,0.3
		c1.8-0.2,3.7-0.7,5.4-1.4c0.9-0.3,1.7-1.2,2.5-1.8c-1.1-1.9-2.1-3.8-3.1-5.7c-0.1-0.2-0.3-0.4-0.5-0.4c-2.4,0.1-4.7,0-7,0.4
		c-1.5,0.3-2.8,1.2-4.2,1.9c-0.6,0.3-1.3,0.7-1.7-0.1c-0.5-0.8-0.1-1.3,0.6-1.8c3.5-2.3,7.4-2.6,11.5-2.8c0-0.1,0.1-0.2,0-0.3
		c-0.9-2.5-1.7-5.1-3.5-7.2c-1-1.1-1.9-2.2-2.7-3.4c-2.7-4.5-6.2-8.1-10.7-10.7c-1.4-0.8-2.8-1.8-4.2-2.8c-0.3-0.2-0.7-0.5-1.1-0.5
		c-2.7-0.1-5.5-0.7-8.1,0.9c-0.3,0.2-0.8,0.1-1.4,0.2c-1.6,1.6-2.7,3.7-3.6,6.1c-2.3,6.1-2.5,12.3-2.3,18.6c0,1.2,0.6,2.3,0.9,3.5
		c3.3-1.5,6.4-0.7,9.4,0.9c0.8,0.4,1.4,1.2,2,1.8c1.6,1.6,3.5,3,3.9,5.4c0.3,1.7,0.6,3.4,0.4,5c-0.3,3.1-0.8,6.2-1.3,9.3
		c-0.2,1-0.5,1.9-0.7,2.9c-0.2,0.8,0.2,1.4,0.9,1.8c1.7,0.9,3.4,1.4,5.3,1.3c0.4,0,0.7-0.2,1-0.3c-0.3-0.4-0.8-0.8-0.7-1
		c0.2-0.4,0.7-1,1-1c1.4,0,2.9-0.5,4.3,0.4c1.1,0.7,3.4-1,3.5-2.5c0.2-1.3-0.2-2.4-1.4-3.1c-0.3-0.2-0.5-0.5-0.8-0.9
		c1.3-0.1,2.9,1.1,3.1,2.2c0.8,3.9-2.3,6-5.6,5.3c-0.7-0.2-1.9-0.4-2.3,1c-0.1,0.4-1,0.8-1.6,0.9c-2.5,0.3-4.9-0.3-7-1.8
		c-0.9-0.6-1.2-2-0.7-3.5c1.2-3.4,1.5-7,1.9-10.6c0.2-2,0-3.8-0.5-5.6c-0.6-1.9-2-3.4-3.6-4.4c-1.4-0.9-3.3-1-5.1-1.3
		c-1.7-0.2-3.5-0.2-5.3-0.3c-0.2,1-0.2,2,0.4,2.9c1,1.7,1.6,3.5,1.8,5.4c0,0.3,0.3,0.6,0.5,0.7c1.5,0.8,3.1,0.8,4.7,0.2
		c1.6-0.6,3.2-1.3,4.8-1.8c0.4-0.1,1.1,0,1.3,0.2c0.4,0.6,0.1,1.2-0.6,1.3c-1.5,0.4-2.5,1.3-3.5,2.3c-1,1-2.5,1.1-3.8,0.6
		c-1-0.4-2-1-3.1-1.5c0,0.2-0.1,0.5-0.1,0.8c-0.1,1.7-0.1,3.3-0.2,5c-0.2,2.2,0.8,4.2,1.2,6.3c0.2,1.2,0.5,2.4,1,3.5
		c0.5,1.2,1.1,2.3,1.7,3.5c1.5,2.9,2.8,6,4.7,8.7c1.4,2,2.4,4.2,3.7,6.3c0.8,1.2,1.8,2.2,2.7,3.4c0.7,0.9,1.3,1.9,1.9,3
		c1.7,2.9,4.3,4.2,7.5,4.8c2.6,0.5,5,0.6,7.3-1c0.7-0.5,1.6-0.5,2.3-0.9c1.9-1,3.6-2.1,5.3-3.6c2.1-1.8,4.6-3.2,6.9-4.7
		c0.4-0.3,0.8-0.5,1.2-0.8c1.9-1.4,3.8-2.7,5.6-4.2c1.4-1.2,2.7-2.5,4.1-3.7c0.4-0.3,0.7-0.7,1.1-0.8c0.2-0.1,0.7,0.1,0.8,0.3
		c0.1,0.1,0.1,0.6-0.1,0.8c-1.7,1.6-3.4,3.3-5.2,4.8c-2.3,1.9-4.8,3.7-7.3,5.4c-0.9,0.6-1.9,1.1-2.8,1.7c-1.3,0.9-2.6,1.9-3.9,2.9
		c-1.3,0.9-2.5,1.9-3.8,2.8c-2,1.2-1.9,1.1-1,3.3c0.6,1.4,1.3,2.9,1.5,4.4c0.2,1.7,1,2.2,2.4,2.7c1.7,0.6,3.3,1.4,4.9,2.2
		c1.7,0.8,3.4,1.3,5.3,1.4c2.6,0.1,5,0.6,7.4,1.5c0.9,0.4,2,0.4,3,0.6c2.6,0.7,4.4,2.4,5.5,4.8c2.6,5.7,6.5,10.4,10.6,15.1
		c0.7,0.8,1.1,1.9,1.7,2.8c1,1.8,2.1,3.5,3.1,5.3c2-1.2,3.3-2.7,4.3-4.5c1.5-2.6,2.9-5.1,4.5-7.6c1.6-2.4,3.4-4.5,5-6.9
		c1.5-2.2,2.9-4.6,4.4-6.9c1.2-1.8,2.4-3.5,3.6-5.3c0.7-1,1.1-2.2,1.6-3.1c-3.1-0.9-6.1-1.8-9.2-2.5c-3-0.7-5.5-2.3-7.9-4
		c-2.3-1.7-4.8-3.1-7-4.8c-1.4-1.1-2.6-2.5-3.8-3.8c-1.4-1.6-2.6-3.4-4.2-4.9c-2.4-2.3-3.4-5.5-5.1-8.2c-0.1-0.2-0.2-0.6-0.2-0.8
		c0-2.4,0.1-4.7,0.2-7.1c0-1.8,0-3.6,0.1-5.5c0-1.3,0-2.5,0-3.8c0-0.3-0.1-0.6-0.1-1c0-0.6,0-1.2,0-1.8c0.4,0.3,0.9,0.7,1.3,1
		c1.8,0.8,3.1-0.3,4.1-1.8c0.2-0.2,0.2-0.7,0.1-0.9c-1.1-1.7-2.2-3.4-3.3-5.1c-0.1-0.2-0.3-0.3-0.6-0.5c-1,0.9-1.1,2.1-1.1,3.3
		c0,0.7,0.4,1.6-0.7,1.7c-1.1,0-0.8-1-0.8-1.7c-0.1-1.8,0.4-3.4,1.6-4.5c-2.7-3.4-5.3-6.6-7.9-10c-1.7-2.3-3.1-4.8-4.8-7
		c-1.7-2.2-3.8-4.2-5.7-6.3c-1.1-1.2-2.3-2.3-3.4-3.5c-0.3-0.3-0.7-0.6-1.3-0.7c0.7,2.2,1.4,4.4,2.1,6.5c0.3,1,0.6,2,0.9,3
		c1.2,4,2.3,8,3.6,11.9c1,3.1,2.2,6.2,3.5,9.1c0.8,1.7,2.2,3.1,3.1,4.7c2,3.2,3.8,6.5,5.7,9.7c0.5,0.9,1.2,1.8,1.8,2.6
		c0.6,0.8,0.5,1.5-0.3,1.6c-1.7,0.2-3.4,0.5-5,0.2c-2-0.4-3.4-1.9-4.4-3.6c-2.1-3.2-4.2-6.5-6.3-9.7c-1.1-1.7-2.6-3.1-3.8-4.8
		c-1.8-2.5-3.4-5-5.1-7.5c-0.1-0.1-0.2-0.3-0.3-0.4C80.2,63.2,78.8,63.9,77.9,65z M152.1,185.5c-0.3-3.7,0.8-7.2,1.2-10.8
		c0.2-2.8,0.2-5.7,0.4-8.6c0.4-5.9,0.9-11.9,2.7-17.6c0.2-0.6,0.4-1.2,0.7-1.7c0.9-1.9,1.8-3.7,2.7-5.5c0.2-0.4,0.4-0.8,0.7-1
		c0.3-0.2,0.7-0.3,1-0.4c0.1,0.4,0.5,0.8,0.4,1.1c-0.5,1.4-0.9,2.9-1.7,4.2c-1.9,2.8-2.5,6-3.1,9.1c-0.6,3.5-0.9,7.1-1.2,10.6
		c-0.3,3.3-0.2,6.6-0.5,9.9c-0.2,2-0.6,4-1,6c-0.1,0.5-0.1,0.9-0.2,1.7c0.8-0.9,1.3-1.6,1.9-2.2c1.2-1.2,2.3-2.3,3.5-3.5
		c3.6-3.6,8.2-5.5,12.9-7c5.4-1.8,11.1-2.8,16.6-4.2c1-0.2,1.9-0.6,3-0.9c0,0,0-0.1,0-0.2c-1-2.4-2-4.9-3-7.3
		c-1.8-4.5-4.7-8.2-7.5-12.1c-1.6-2.2-2.7-4.6-4-7c-1.1-2-2.1-4.2-3.4-6.1c-1.1-1.7-2.9-2.4-5-2.6c-3.8-0.4-7.7-0.5-11.4-2
		c-3.3-1.3-6.6-2.5-9.9-3.8c-0.7-0.3-1.1-0.3-1.3,0.6c-0.4,2.4-2.4,3.7-3.4,5.7c-1.1,2.1-2.3,4.1-3.6,6.1c-1.5,2.3-3.2,4.4-4.7,6.7
		c-1.5,2.1-2.9,4.3-4.3,6.4c-1,1.6-1.8,3.2-2.8,4.8c-0.8,1.2-1.8,2.5-2.9,3.5c-1.7,1.5-1.7,2.4,0.3,3.4c1,0.5,2,0.8,3.1,1.2
		c2.2,0.9,4.1,2.1,4.8,4.7c0.2,0.6,0.7,1.2,1.2,1.7c3.9,4.1,7.9,8,11.6,12.3c1.5,1.8,3.2,3.3,5,4.8c0.2,0.2,0.5,0.3,0.7,0.4
		C152,185.7,152.1,185.6,152.1,185.5z M69.6,133.8c-2.7,1.6-5.6,2.9-8.8,3.4c-1.1,0.2-2.3,0.3-3.2-0.8c-0.7-0.8-0.8-1.5-0.2-2.4
		c1.3-1.8,2.5-3.6,3.6-5.6c-1.3,1-2.6,2-3.8,3.1c-0.5,0.4-1,0.9-1.4,1.4c-0.7,0.8-1.3,1.6-2,2.4c-0.7,0.8-1.4,1.6-2,2.5
		c-0.9,1.4-1.8,2.8-2.6,4.3c-0.4,0.9-0.1,1.8,0.4,2.6c0.4,0.7,0.5,1.5,0.8,2.2c0.1,0.3,0.1,0.6,0.3,0.8c1.9,2.9,3.8,5.8,5.9,8.6
		c2.8,3.6,5.9,7,8.7,10.6c2.1,2.7,3.9,5.6,5.8,8.4c2.4,3.6,4.6,7.3,7,10.9c0.2,0.3,0.5,0.6,0.9,1c1.9-2.3,3.8-4.4,5.6-6.7
		c1.8-2.2,3.9-4.1,6.2-5.7c1.8-1.3,3.5-2.8,5.8-3.3c1.8-0.4,3.4-1,5.2-1.4c1.3-0.3,2.6-0.3,4.1-0.4c-0.6-1.3-1-2.7-1.8-3.9
		c-1.7-2.4-3.6-4.8-5.5-7.1c-0.3-0.3-1-0.5-1.4-0.4c-2.5,0.7-4.9,1.3-7.3,2.2c-1.8,0.7-3.4,1.9-5,3c-1.1,0.7-1.5,0.8-2.3-0.3
		c-1.9-2.4-3.8-4.8-5.8-7.2c-0.4-0.5-0.9-1-1.4-1.2c-0.5-0.1-1.2,0.2-1.6,0.5c-2.1,1.2-4.5,1.9-6.8,2.1c-4.2,0.4-6-1.7-5.5-5.5
		c-1.2-1.1-2.3-2-3.2-3.1c-0.3-0.4-0.4-1.4-0.2-1.8c1.4-2.2,2.6-4.6,4.5-6.3c3.1-2.8,6.7-5.2,10.6-6.9c0.4-0.2,0.8-0.3,1.2-0.5
		C72.5,133.2,71,133,69.6,133.8z M108,173.2c-0.6,1.3-1.1,2.6-1.8,3.7c-1.2,1.8-2.4,3.8-4,5.3c-2.8,2.5-5.9,4.7-9.3,6.5
		c-2.7,1.4-5.4,2.3-8.4,2.2c-1.9-0.1-3.8-0.6-5.6-1.6c-2.1-1.2-3.2-3-4.4-4.9c-3.3-5.2-6.6-10.3-10-15.4c-1.2-1.7-2.7-3.1-4-4.8
		c-2.9-3.8-5.8-7.6-8.6-11.4c-0.1-0.1-0.2-0.3-0.4-0.5c0,2.1-0.1,4,0,5.9c0.4,4.6,0.7,9.2-0.1,13.8c-0.7,3.8-0.4,7.6-0.4,11.4
		c0,0.4,0.3,0.8,0.6,1.1c4.7,3.9,10,6.8,16,8.2c4.3,1,8.6,2,13,1.8c3.4-0.1,6.7-0.6,9.9-1.7c0.7-0.2,1.4-0.4,2.1-0.6
		c1.5-0.4,2.7-1.1,3.9-2.2c3.2-3.1,6.4-6.1,8.8-9.9c0.8-1.3,1.6-2.6,2.4-3.9c0.2-0.4,0.6-0.6,0.9-0.9c0.3-0.3,0.6-0.5,1.1-0.8
		C109,173.9,108.5,173.5,108,173.2z M9.8,150.5c0.6,0,1.1,0.3,1.7,0.2c3.6-0.7,6.9,0.2,10.4,0.9c2.2,0.5,4.4,0.7,6.9,1.1
		c-0.6-0.6-0.9-1-1.2-1.3c-0.7-0.7-0.7-1.5-0.3-2.2c0.5-0.9,1.1-1.8,1.7-2.8c-2.9-0.7-5.8-1.4-8.6-2.2c-1.1-0.3-2.2-0.9-3.2-1.3
		c-0.5-0.2-1-0.3-1.5-0.3c-2,0.1-4,0.3-6,0.4c-0.4,0-0.7-0.4-1.2-0.7c-1.7,1.1-3.8,1.9-5,3.8c-0.5,0.8-0.6,1.4,0.1,2.2
		c1.8,2.2,1.6,3.8-0.6,5.7c-1.4,1.2-1.3,3.5,0.1,4.4c1.4,0.9,1.7,2,1.2,3.6c-0.2,0.6-0.4,1.1-0.5,1.7c-0.2,1.1,0.1,2.1,1,3
		c1.8,1.9,3.5,3.9,5.3,5.9c1.4-1.2,3.1-1.8,3.6-3.8c-1.1,0.1-1.9,0.2-2.7,0.2c-0.4,0-0.7-0.4-1.1-0.6c0.4-0.2,0.7-0.7,1.1-0.7
		c3.4-0.1,6.7-0.1,10.1-0.3c1.6-0.1,3.1-0.3,4.7-0.5c-0.5-1-1-1.9-1.6-3c-3.7-1-7.7-2.1-12-1.9c-2,0.1-4-0.7-6-1.1
		c-0.3-0.1-0.5-0.6-0.7-0.9c0.4-0.1,0.8-0.3,1.1-0.2c2.3,0.8,4.7,1.2,7.2,1c3-0.2,5.7,0.8,8.6,1.4c3.3,0.7,6.6,1.2,9.9,1.7
		c1.4,0.2,2.9,0.4,4.4,0.5c0.4,0,0.7-0.1,1.1-0.2c0-0.1,0-0.3,0-0.4c-0.5-0.2-1-0.4-1.6-0.5c-0.6-0.1-1.3-0.1-1.8-0.3
		c-2.2-0.7-2.5-1.4-2-3.8c-1.1-0.2-2.1-0.4-3.2-0.7c-0.6-0.2-1.2-0.7-1.8-0.9c-1.6-0.6-3.2-1.4-4.9-1.5c-4.3-0.2-8.1-1.6-11.7-3.8
		c-0.7-0.4-1.6-0.5-2.3-0.7c-0.4-0.1-0.8-0.3-1.3-0.5C7.7,149.7,8.8,150.4,9.8,150.5z M27.2,134.4c0.9,0.4,1.8,0.9,2.6,1.5
		c1.8,1.2,1.8,3.6,0.1,4.8c-0.2,0.1-0.5,0.2-0.6,0.4c-1.5,2.1-3.6,1.8-5.7,1.5c-1.5-0.2-3.1-0.4-4.6-0.7c0,0.2-0.1,0.3-0.1,0.5
		c1.2,0.3,2.4,0.5,3.5,0.8c1.3,0.3,2.6,0.7,3.9,1.1c1.9,0.5,3.8,1.1,5.7,1.6c2.3,0.5,3.6,2.5,3.3,4.8c-0.2,1.5-1.9,2.7-3.9,2.8
		c-0.5,0-1,0.2-1.5,0.1c-1.3-0.2-1.5,0.6-1.7,1.6c-0.1,0.7,0.1,1.3,1,1.5c3.3,0.8,6.7,1.1,10.1,0.7c1.4-0.1,2.9-0.1,4.3-0.1
		c0.8,0,1.2-0.1,1.3-1c0.2-1.7,0.4-3.4,0.7-5.1c0.4-2.2,0.9-4.4,1.2-6.6c0.4-2.5,0.7-5,1.1-7.5c0.2-1,0.5-2.1,0.7-3.1
		c0.1-0.4,0.4-1.1,0.2-1.2c-0.6-0.4-1.4-0.9-1.9-0.8c-4.2,1-8.4,1.5-12.7,1.2c-2.4-0.2-4.8-0.8-7.1-1.3c-0.4-0.1-0.8-0.2-1.1-0.3
		C25.5,133,26,133.9,27.2,134.4z M192.8,166.6c-2,0.5-4.1,0.9-6.3,1.5c-4.5,1.2-9.2,2-13.6,3.6c-4.3,1.6-8.5,3.4-12,6.7
		c-2.7,2.5-5.1,5.2-6.8,8.5c-0.1,0.2-0.2,0.3-0.5,0.6c1.1,0.9,2.1,1.9,3,2.6c1.3-1.2,2.3-2.3,3.5-3.3c2.8-2.3,6-3.7,9.4-4.9
		c4-1.4,7.8-3.2,11.7-4.7c3.7-1.4,7.5-1.9,11.4-1.2c0.4,0.1,0.8,0,1.2-0.1c1.1-0.4,2.3-0.8,3.6-1.2
		C195.9,172.1,194.4,169.5,192.8,166.6z M99.6,172.3c-1,0.3-1.9,0.7-2.9,0.9c-2.3,0.5-3.7,2.3-5.5,3.6c-2.5,1.7-4.4,3.9-6.1,6.3
		c-0.9,1.3-2.2,2.4-3.2,3.7c-0.3,0.4-0.6,0.8-1,1.3c2.4,0.9,4.8,1.2,7.1,0.5c3.7-1.1,7-3,10.1-5.3c2.5-1.9,4.8-3.9,6.4-6.6
		c0.7-1.2,1.2-2.5,1.8-3.8c0.2-0.4,0.1-0.8,0.2-1.2C103.9,171.2,101.7,171.7,99.6,172.3z M76.1,153.3c2.5,3,5,5.9,7.6,8.9
		c3.8-2.7,8.1-4.5,13.1-5.4c-1.6-1.7-2.9-3.2-4.4-4.7c-0.1-0.1-0.5-0.2-0.7-0.1c-1.5,0.4-3,0.9-4.5,1.3c-1,0.3-2.1,0.6-3.1,0.7
		c-2,0.1-3.1-1.2-3.2-3.1c0-0.2,0-0.4-0.1-1C79,151.1,77.5,152.2,76.1,153.3z M23.9,134.4c-1.2-0.4-2.4-0.9-3.6-1.2
		c-1.3-0.3-2.6-0.3-3.8,0.6c-0.9,0.7-2.3,0.8-3.5,0.9c-1.8,0.2-1.9,0.6-2.4,2.1c-0.5,1.4-0.8,3-1.1,4.3c2.4,0,4.8,0,7.2,0
		c0-0.1,0-0.2,0-0.3c-0.3-0.3-0.6-0.6-0.8-1c-0.1-0.3-0.1-0.7-0.1-1c0.3,0,0.8-0.1,1,0.1c2.9,2.2,6.4,2.2,9.7,2.5
		c0-0.1,0.1-0.2,0.1-0.3c-0.7-0.4-1.4-0.8-2.2-1.1c-0.9-0.4-1.2-1-0.8-2c0.6-1.4,1.4-2.4,3-2.5c0-0.1,0-0.3,0.1-0.4
		C25.8,135,24.9,134.7,23.9,134.4z M51.8,133.5c0.1,0.4-0.1,1-0.2,1.5c-0.3-0.3-0.6-0.6-1-0.8c-0.1-0.1-0.2-0.2-0.5-0.6
		c-0.3,1.6-0.6,2.9-0.9,4.2c0.1,0.1,0.2,0.1,0.3,0.2c1.1-1.4,2.1-2.8,3.3-4.1c1.3-1.4,2.7-2.8,4.2-4.1c0.8-0.7,1.8-1.2,2.7-1.9
		c0.5-0.4,0.9-0.8,1.3-1.3c0.1-0.2,0.1-0.8-0.1-1c-0.7-0.6-1.4-1.1-2.1-1.6c-1.3-0.9-2.3,0-3.1,0.6c-1.3,1-2.4,2.2-3.7,3.3
		c-0.1,0.1-0.3,0.3-0.4,0.4c-0.1,1.1-0.8,1.6-1.7,2.1c-0.3,0.2-0.5,0.5-1,0.9C50.5,131.3,51.4,132.1,51.8,133.5z M51.4,125.9
		c1.6-1.4,3.4-2.6,5.2-3.7c1-0.6,1.2-1.2,0.3-2c-0.1-0.1-0.3-0.2-0.4-0.4c-1.3-1.2-1.3-1.2-2.8-0.4c-1.3,0.7-2.6,1.3-3.7,2.3
		c-1.4,1.3-2.7,2.9-3.9,4.4c-0.9,1.2-0.8,1.2,0.4,2.1c0.5,0.4,1,0.8,1.6,1.3C49.1,128.5,50.1,127,51.4,125.9z M53.7,117.8
		c-0.6-0.8-0.9-1.8-1.5-2.2c-0.7-0.4-1.7-0.4-2.5-0.3c-3.6,0.5-5.4,2.9-6.5,6.1c-0.6,1.6,0,3.8,1.1,4.5
		C46.8,122.6,49.3,119.3,53.7,117.8z M44.7,129.6c-1.4,0.1-2.9-0.5-4.3-0.6c-2.1-0.1-4.3-0.3-6.4-0.2c-2.6,0.1-5.1,0.5-7.7,0.8
		c-0.2,0-0.3,0.1-0.5,0.2c4.3,2.4,16,2.6,20.8,0.8C46.1,130,45.8,129.5,44.7,129.6z M197.9,177c-0.1-0.1-0.2-0.2-0.3-0.3
		c-0.9,0.4-1.9,0.7-2.8,1.1c-0.3,0.2-0.6,0.8-0.5,1.2c0.5,4.1,1.2,8.1,1.8,12.1c0,0.2,0.1,0.3,0.3,0.7
		C198.8,186.9,197.3,181.9,197.9,177z M21.4,154.7c1.6,0,3.1,0.6,4.8,0.9c0.1-0.6,0.3-1.2,0.5-2c-4.9,0-9.4-2.6-14.3-1.7
		C15.2,153.4,18.1,154.6,21.4,154.7z M34.1,149.8c-0.1-1.5-1.5-2.8-3.1-2.7c-1.1,0-2.7,1.7-2.7,2.8c0,0.8,2.2,2.4,3.2,2.3
		C33.1,152.1,34.2,151.1,34.1,149.8z M98.5,155.2c1.4,2,2.9,3.9,4.4,6c1.3-4.4-2-8.4-5-8.1C98,153.8,98.1,154.6,98.5,155.2z
		 M64.2,145.7c0.4-0.5-0.2-2-0.9-2.1c-0.7-0.1-1.5-0.2-2,0.7c-0.7,1.3-1.5,2.5-2.4,4c0.5,0.5,1.1,1,1.9,1.7
		C62,148.4,63.1,147,64.2,145.7z M62.8,154.4c0.4,1.3,0.8,1.4,1.8,0.6c0.8-0.7,1.7-1.5,2.4-2.3c0.6-0.6,0.4-1.4-0.1-2
		c-0.4-0.6-0.9-0.9-1.6-0.2c-0.6,0.6-1.5,0.9-2.2,1.4c-0.3,0.3-0.5,0.8-0.7,1.1C62.6,153.6,62.7,154,62.8,154.4z M35.5,162
		c0.9,0,1.7,0.1,2.8,0.2c0.2-0.8,0.5-1.8,0.9-3c-2.2,0.1-4,0.2-5.9,0.3C33,161.2,33.7,161.9,35.5,162z M61.6,131.5
		c-0.3-0.1-1,0.2-1.2,0.5c-0.7,0.9-1.2,1.9-1.8,2.9c-0.1,0.2,0.1,0.8,0.3,0.8c0.4,0.1,1,0.2,1.4,0c0.8-0.5,1.4-1.2,2.1-1.8
		c0.3-0.3,0.5-0.6,1-1.2C62.7,132.2,62.2,131.7,61.6,131.5z M85.1,150.5c0.4-0.8,0.5-1.5-0.2-2.2c-0.5-0.5-0.8-0.5-1.5-0.1
		c-1.9,0.9-1.1,2.4-1.2,3.8C83.5,151.8,84.5,151.6,85.1,150.5z M24.7,139c0.5,0.2,1,0.5,1.5,0.7c0.8,0.4,1.1-0.1,1.3-0.7
		c0.2-0.7,0.2-1.4,0.3-2.1C25.7,136.7,25.3,137,24.7,139z M30.2,164.7c-1.7-0.3-3.2-0.5-4.9-0.7C26.6,166.6,27.9,166.7,30.2,164.7z
		 M28.8,139.6c1.1-0.4,1.2-1.1,0.4-2.7C29.1,138,28.9,138.8,28.8,139.6z"/>
	<path class="st0" d="M74.4,89.6c0.8,0.1,1.6,0.1,2.4,0.2c0.7,0.1,1.1,1,0.6,1.6c-0.8,0.9-1.7,1.7-2.6,2.5c-2.1,1.8-4.3,3.5-6.4,5.4
		c-2.4,2.2-6.1,2.6-8.7,0.9c-2-1.3-3.6-2.9-4.3-5.3c-0.1-0.3-0.1-0.8,0.1-1.1c0.8-1,1.7-1.9,2.5-2.9c0.7-0.9,1.5-1.2,2.5-0.7
		c0.7,0.3,1.4,0.2,2.1-0.3c0.4-0.3,1-0.4,1.4-0.4c1.4,0.1,2.8,0.4,4.2,0.4c2,0.1,4.1,0,6.1,0C74.4,89.8,74.4,89.7,74.4,89.6z
		 M65.1,95.4c-1,0.2-2,0.1-3,0c-1.7-0.1-3.4-0.4-5.1-0.6c-0.1,0.1-0.2,0.2-0.3,0.4c0.4,0.7,0.7,1.6,1.2,2.2c0.6,0.7,1.5,1.2,2.2,1.8
		c1.8,1.5,5.5,1.2,7.3-0.4c1.9-1.7,4-3.2,6-4.8c0,0,0-0.1,0.1-0.5C70.7,94.1,67.9,94.8,65.1,95.4z M63,92.3c2-0.4,4.1-0.6,6.1-0.7
		c2-0.2,4-0.2,6-0.3c0-0.2,0-0.4,0-0.6c-0.6-0.1-1.3-0.2-1.9-0.1c-2.5,0.2-4.9,0.4-7.4-0.2c-1-0.2-2.1-0.2-3.2,0.6
		c-0.5,0.4-1.5,0.3-2.2,0.1c-0.8-0.2-1.2-0.1-1.7,0.5c-0.5,0.6-1.1,1.2-1.7,1.8c0.1,0.1,0.1,0.2,0.2,0.3C59.1,93.3,61,92.7,63,92.3z
		 M60,93.6c0,0.2,0,0.3,0,0.5c0.4,0.1,0.9,0.1,1.3,0.2c1.7,0.4,3.4,0.3,5.2-0.2c1.8-0.6,3.8-0.8,5.7-1.1c0.8-0.2,1.7-0.3,2.5-0.5
		c0-0.2-0.1-0.3-0.1-0.5C69.6,92,64.8,92.6,60,93.6z"/>
</g>
</svg>
