<?xml version="1.0" encoding="utf-8"?>
<!-- Generator: Adobe Illustrator 19.1.0, SVG Export Plug-In . SVG Version: 6.00 Build 0)  -->
<svg version="1.1" id="Layer_1" xmlns="http://www.w3.org/2000/svg" xmlns:xlink="http://www.w3.org/1999/xlink" x="0px" y="0px"
	 viewBox="-504.1 103.9 300 594.4" style="enable-background:new -504.1 103.9 300 594.4;" xml:space="preserve">
<style type="text/css">
	.st0{fill:#03A9F4;}
</style>
<g id="toothache-lady">
	<path class="st0" d="M-504.1,204.8c0,1.8,0.2,3.4,0.8,5c2.6,6.8,4,14,8.2,19.9c7.4,10.8,6,22.1,2.2,33.7c-0.8,2.6-1.2,5.2-2,7.8
		c-0.6,2.4,0.4,3.4,2.2,4.6c3.8,2.2,7.4,4,12,4c2.6,0,3.6,1,3.6,3.8c0,2.2,0,5,1,6.8s3.2,3,5.2,4.8c0,0-0.2,0.4-0.2,1.2
		c-1.2,4-0.4,6,3.6,7.6c4.2,1.4,5.2,5.2,6,9c0.2,1.6,1.2,3.2,1.2,4.8c0.2,1.2-0.2,2.6-0.8,4.2c-1,3-2,5.8-3,8.6
		c-2-1.4-4-2.6-5.8-4.2c-0.6-0.8-1-2.4-1.2-3.6c-1.6-9.4-3.4-19-5.2-28.1c-0.8-4.8-2.8-8.8-6.8-11.6c-1.6-1.2-3.4-2-5.2-1
		c-2,1-2.2,3-2.2,5c0,7,1.2,13.8,3,20.5c1,4,0.6,8.4,1.2,12.6c0.6,7,1.6,14,1.6,21.1c0.2,11.6,4.6,21.1,10.8,30.7
		c4.4,6.4,6.4,13.6,6.6,21.1c0.2,6.2,0.8,12.8,0,19c-0.8,7.8-2.4,15.2-4,22.7c-0.8,4-0.8,8.2-2,12c-3.6,11.8-4.4,23.9-6.6,35.9
		c-2,10.6-5.8,20.9-10,31.1c-2,4.8-3.2,9.4-2.6,14.6c0.2,4.2-0.8,8.8-0.6,13c0.4,3,1.4,6.2,2.6,9.2c1.8,4.2,4.4,8.2,4.6,13
		c0.2,4,0.8,8,2,11.8c0.8,2.8,2.4,5.4,4,8c3.2,6,8.6,10.2,13.8,14c4,2.8,8.8,1.8,13,1.2c0.8,0,1.6-0.2,2.6-0.8
		c-0.4,1.6-0.6,3-1.2,4.2c-1.8,4.6-3.8,9.4-5.8,14.2c-1.6,3.6-1.8,6.8-1,10.6c0.8,3.6,0.8,7,0.6,10.6c0,3.6,1,6.4,3.6,8.6
		c5,4.2,10.2,8.4,15.8,12.2c3,2.2,5.4,0.8,5.6-3c0.4-3.4-1-5.4-3.2-7.6c-3.2-3-5.6-6.6-8.2-10.2c-0.2-0.2,0-1,0-1.8
		c1,0,2.8-0.4,3,0.2c4.6,6.8,12.4,10,17.6,15.8c-0.2,2.2-0.8,4.2-0.8,6.2c0.2,9-3,17.4-4,26.1c-0.4,3.2-0.6,6.8-1.2,10
		c0,0.4,0.6,1.2,0.8,2c0.6-0.6,1.6-1,1.6-1.6c0.6-3.6,0.8-7.4,1.6-11.2c0.6-4,1.6-8.2,2.2-12.2c0.8-5.4,1.2-11.2,1.8-17
		c0-0.2,0-0.8,0.2-1c0.4-0.2,0.4-0.2,0.6-0.2c2.2,0,4.4-0.4,5.2-3c1-2.4,0-4.2-1.8-6c-3.6-3.4-3.8-4.4-2.6-8.6
		c2.2,2,4.8,3.8,6.8,5.8c8.2,8,18.2,12.8,28.7,16.8c8.6,3.2,17.4,6.2,26.1,9c3.4,1,7.4,1.6,11.2,1.6c7.2,0.4,13.6,2.6,19.8,5.6
		c5.4,2.8,11,3.6,17,2.8c1.2-0.2,2.8-0.4,3.8-1.2c4-2.4,8-5.2,10.8-9.2c0.2-0.4,0.6-0.8,1.2-1c1.2-1,3-1.8,3.8-3
		c3.2-5.2,6-10.4,9-16c1.6-2.6,3.8-5.2,4.6-8.2c2.4-9.6,4.4-19,7-28.5c1.6-6,2.8-12,6.8-17c1.2-1.6,1.6-3.8,2.2-5.6
		c2-8,4-16,5.8-23.9c1-4.6,1.8-9.4,2.6-14.2c1.2-9,4.2-17.4,7.2-25.9c0.4-0.4,0.4-0.6,0.6-1.2c1.4-12.2,7.4-23.5,8-35.7
		c0.2-2.8,1-4.6,4.2-5.8c13.2-5.6,23.1-18,23.1-34.1c0-7,0-14.2-0.6-21.1c-0.6-5.8-1.4-11.4-2.6-17c-2-9.2-4.4-18.2-7.2-27.1
		c-1.8-5.8-4.2-11.2-6.8-17c-1.8-4.4-3-9-5.6-13c-3.6-5.6-7.6-10.8-11.8-15.6c-2-2.2-5.6-3.2-8.6-5c-0.2,0-0.6,0-0.8-0.2
		c-3-3-6.8-1-10-1c-3.4-0.2-7,0-10.2,0.8c-3.4,1-6.8,3-10,4.8c-6.8,4-13.8,8-19.6,13.8c-3.6,3.4-6.8,7-9.8,11
		c-6,8.2-9.8,17.6-15,26.1c-4,6.6-7,13.6-9.6,21.1c-3.4,9-5.4,18.4-4.6,27.9c0.4,6.2,3,12,7.2,16.8c2.2,2.6,2.8,4.8,2,7.8
		c-0.4,2.6-1,5-1,7.6c-0.2,11.4-1,22.5-3.8,33.5c-1.2,5.4-1.4,11.4-2,17.2c-1,11-2,21.7-2.8,32.7c0,0.8,0,1.8-0.2,2.6
		c-0.2,8.4-0.4,16.4-1.2,24.5c-0.2,3-2,6-2.8,8c-6.4,1.8-11.6,3-16.6,4.8c-5.2,1.8-10.4,2.8-16,1c-9-3-17.8-6.4-26.7-9.6
		c-4-1.6-6.6-3.8-5.6-8.6c0.2-1.8,0.2-3.8,0-5.6c-0.6-3.4,2-5.4,3.6-8c0.2-0.6,2.2-0.6,3.2,0c2.4,1,4.6,2.4,7.2,3.6
		c5.4,2.4,10.8,4,16.6,4.2c2,0,4.2,1.4,5.8,2.6c3.6,2.8,7.6,3,11.6,2.2c1.8-0.4,3-0.4,4.6,1.2c1.8,1.8,5.2,1.8,7.8,0
		c-0.4-0.2-0.8-0.2-1-0.2c-2.8-0.2-5.4-0.6-7.6-2.8c-0.4-0.6-2.2-0.2-3.2,0c-4.6,1.2-8.2,0-11.8-2.6c-2.4-1.8-4.8-2.4-7.6-2.6
		c-6.4-0.2-12.2-2.8-18-5.8c-3-1.4-5.6-3.2-9.2-2c-0.2,0.2-1,0-1.2,0c-2-1.4-4-3-6.2-4.2c-3.8-2-4.6-6-5.6-9.6
		c-3-10.4-5.4-21.1-7.2-32.1c-2.2-13.2-2.2-26.1-1.2-39.3c0.6-6,0.8-12.2,1.6-18.2c1.2-9.2,2.4-18.8,4.2-27.9c1-5.6,3.2-11,4.8-16.6
		c0.6-3,1.2-5.8,2.2-8.8c1-3.4,2.2-6.4,3-9.6c1-4.4,1.8-8.6,2.6-13.2c0.2-1.4,0.2-2.4,0-3.6c-1-8,2.4-15,5.2-22.1
		c3.2-8,8.2-14.4,13.2-22.1c1.2,2.2,2.2,4.2,3,6.2c0.4,0.6,0,1.2-0.2,1.8c-3,6.4-6.2,12.4-9.2,18.6c-0.6,1.8-0.6,4-1.2,5.8
		l-6.8,27.7c-1.8,7.2-4,14.4-5,21.9c-1.4,8.4-1.6,17.2-1.6,25.9c0,7,8.2,13.2,15.8,12.6c5.4-0.4,9.8-2.4,13.6-6
		c4.2-4,7.4-8.2,10-13.2c1.4-2.2,3-4,4.6-6c2-2.8,4.2-5.2,6.2-8c3.2-4,6.4-8.2,9.2-12.2c5-7,9.8-14.4,14.8-21.5
		c3.6-5,6.8-9.8,10.6-14.8c2.4-3.6,5.4-7,8-10.6c0.8-1,1.2-2,1.8-3.2c3.4-7,7.6-13.8,13.6-18.8c3.4-3,8.4-4.8,13-5.8
		c9-2.4,17.4-5.6,25.5-9.6c0.8-0.2,1.8-0.2,2.6-0.2c19,3.2,32.1,14,39.9,31.1c4,8.6,7.6,17.4,11.2,26.1c1.8,4.2,3,8.6,3.8,13.2
		c1.2,6.6,1.8,13,2.8,19.6c1.6,10.2,2.4,20.3,2.2,30.9c0,7.4,0,14.6-0.2,22.1c-0.2,9.2-3,18-6,26.7c-1,3-1.6,6-2.6,9.2
		c-0.8,3-1.8,6-2.6,9.2c-2,6.6-4,13-6,19.6c-2.6,8.4-5.4,16.6-8.2,25.1c-1,2.8-1.4,5.8-2,8.8c-0.6,4.4-1.2,9-2.2,13.2
		c-0.6,2.4-1.8,4.4-2.6,6.6c-0.4,1.6-1,3.2-1.2,4.8c-1.2,8.8-3,17.8-3.8,26.5c-0.4,7-0.2,14,0.8,20.9c1,7,4.6,13.4,8.2,19.6
		c7.4,12.6,13,25.9,18,39.7c0.6,1.6,1,3,1.6,4.6c1.2,0.2,2.2,0.2,3,0.2c-4.6-14.4-10.8-28.1-17.6-41.3c-3-6-6.4-12-9.2-18.2
		c-1.4-3.8-2.2-8-2.2-12c-0.2-9-0.4-18,1.8-26.7c0.4-2.4,0.4-5.2,1.2-8c1-3.6,1-7.4,3.2-10.6c1-1.4,1.4-3.4,1.6-5.2
		c0.6-4.6,1.2-9.2,2.2-13.8c0.8-3.8,1.8-7.2,2.8-10.8c3.2-11.2,6.6-22.5,10.2-33.7c1.2-4,3-8,4-12c3-10,5.8-20.1,8.6-30.1
		c0.6-1.8,0-3.8,0.6-5.6c1.8-8.6,0.6-17,1.2-25.5c0.6-12-0.6-23.9-2.6-35.9c-1-5.8-1.4-11.8-2.6-17.6c-2.4-8.6-4.6-17-8.6-24.7
		c-3.4-6.2-5.4-13-8.6-19.2c-5.8-10.8-14.2-19.6-25.7-24.5c-4.2-2-9-2.8-13.8-4c-6.6-1.8-12.6-4.2-17.6-9c-4.6-4-9.8-7.2-14.8-10.8
		c-3.4-2.2-3.4-3.4-1.6-7c2.4-5.2,4.8-10.6,7-15.8c2.4-5.8,5.2-11.6,7.2-17.6c3-9.2,5.6-18.8,5-28.7c-0.6-13.4-3.6-26.1-12.2-36.9
		c-5.4-7.2-12.6-12.4-20.5-17c-0.8-1-2.2-1.6-3.4-1.8c-3.4-1.6-6.8-2.4-10.6-1.2c-1.6,0.4-3.2,1.2-5.2,2c-2-6.2-4.2-12.4-6-19
		c-1.6-6.4-4-11.8-8.8-16.6c-4-4-7.6-8.4-10.8-12.6c-5.4-7-13.2-11.6-20.9-15.6c-6.6-3.6-13.6-5.2-21.1-5.8c-7.4-0.2-14-2.6-21.5-2
		c-6.2,0.6-12.2,1.6-18,3.6c-9.4,3.4-18.4,8-27.1,13.2c-0.2,0.2-0.6,0.2-0.8,0.2c-6,0.2-8.4,5.8-12,9c-2.8,2.6-5.6,4.8-8.8,6.6
		c-5.6,3.2-9,8.2-11.8,14c-1,1.8-1.6,3.8-2,5.8c-0.2,0-0.2,0.2-0.2,0.2c-0.8,1.2-1,2.6-0.6,4c-0.4,3-0.4,6.2-0.2,9.2
		c0,1.8,0.6,3.2,1,4.8c0.4,1.6,0.8,3.4,0.6,4.6C-504.1,187.6-504.1,196.4-504.1,204.8z M-360.1,244.5l-0.2-0.2
		c-0.4-0.4-0.6-1.4-0.6-2.2c0.2,0.8,0.4,1.4,0.6,2C-360.3,244.3-360.1,244.5-360.1,244.5z M-344.3,151.1c-0.8-2-2-4-3-5.8
		C-346.1,147.1-345.1,148.9-344.3,151.1z M-322.9,207.2c0,0.8-0.6,1.8-1.2,2c-1.6,0.6-3,0.6-4.8,0.8c-0.2-0.8-0.2-1.2-0.2-2
		c-0.6-7.6-1.4-15.4-2.2-23.1c-0.6-3.8,2-6.4,6-7c0.2,1.6,0.2,3.2,0.8,4.8C-322.1,190.6-323.1,199-322.9,207.2z M-327.5,256.3
		c-0.6,0.6-1.6,1-2.6,1.2c-0.4-1-1.2-2-1.2-3.2c0.8-13.6,1.4-27.3,2-41.3c3.2,0.4,6-1.2,8,1.6c0.8,1.4,1.6,2.8,2.4,4.2
		c0.8,2.8,1.6,5.6,2.4,8.4C-316,238.5-321.3,247.5-327.5,256.3z M-401.3,319.1c-3.6-3.2-7-5.8-10.8-8.8c2.4-1.4,4.4-3.2,6.6-4.2
		c4.2-2.2,7.8-5.4,10.8-9.2c1.8-2.2,3.2-4.6,4.8-7.2c1.2-2.4,2-5,3-7.6c2-5.2,4.8-10.2,4-16c-0.2-1.8-0.6-3.6-0.8-5.6
		c10.2,0.8,16-5.2,19.8-13.8c0.8,0.6,1.2,1,1.8,1.2c3.8,3,7,6.4,11.6,8.2s9,2.6,13.6,0c1-0.4,1.6-0.8,2.2,0.8c1.4,3.6,2,7,3.6,10.6
		c2.2,5.4,4.4,11,8,15.6c3.8,4.8,9,8.8,14,12.6c11.6,8.4,22.1,17.8,34.7,24.9c0,0,0,0.4,0.2,0.6c-0.6,0.2-1,0.8-1.8,1
		c-6.6,2-13,4.2-19.6,6.2c-6.4,2-13,3.8-17.2,9.8c-3.2,4.6-6.8,9-10,13.6c-0.6,0.6-1,1.6-1.6,1.6c-3.6,1-7,2.2-10.6,3
		c-8.2,1.8-16.8,3.2-24.9,5c-4.2,1-8.8,2.6-11.8,6.2c-0.6,0.4-0.6,1.4-0.8,2.2c0.8-0.2,1.8-0.2,2.6-0.8c2-1.2,3.6-3,5.8-4
		c3.6-1.4,7.4-2.2,11.2-3.2c8-2,16.4-2.2,23.9-5.8c1-0.6,2.4-0.4,4.2-0.6c-0.4,1.4-0.6,2-1.2,2.6c-2.6,3.2-5.2,6.6-7.8,9.8
		c-3.6,5-7,10-10.6,15c-4.8,6.6-9.2,13.4-14,20.1c-3,4.4-6.4,8.4-9.6,12.6c-2.4,2.8-4.6,5.8-6.6,8.6c-1.6,2-3.6,4-4.6,6.2
		c-2.8,5-6,9.2-10,13.2c-4.4,4.4-10,5.2-16,5.2c-2.6,0-8.2-5.2-8.8-7.8c-0.6-2.6-0.8-5.4-0.8-8.2c0-12,1.8-23.7,4.8-35.5
		c2.6-10.4,5.6-20.3,7.8-30.5c1.8-7.8,3.8-15,7.8-21.7c0.8-1.4,1.8-2.6,2.6-4.2h0.8c1.4,5.4,2.6,10.6,3.6,16.2
		c0.6,2,0.4,4.4,0.6,6.6c0,0.8,0.4,1.8,0.6,2.6c0.4,0.2,1.6,0.2,1.6,0.2c0.4-0.8,0.6-1.8,0.6-2.6c-1.4-7-2.6-13.8-3.6-20.7
		C-389,333.5-394.4,325.7-401.3,319.1z M-408.5,315.7c1,1,2.6,2,3.8,2.8c-5.2,2-10,3.8-14.8,5.8c-3-4.2-2-6.2,1.2-9.2
		C-414.3,311.7-411.5,312.7-408.5,315.7z M-418.3,327.7c-0.2-0.6,0.6-1.4,0.8-1.6c3.8-1.6,7.2-3.4,11-4.6c3-1,5.4-0.4,7.2,2.6
		c0.6,1.6,2,2.8,3.2,4.6c-7.6,8.4-12.4,18.8-17.2,28.9C-414.5,347.4-414.7,337.5-418.3,327.7z M-414.5,567.9c0.2,3,0.2,6,0.2,9.2
		c-3-1.2-5.6-2.2-7.8-3.2c2.4-4.2,4.6-8.6,7.2-12.8c0.6-0.8,1.8-1.2,2.6-1.8c0.4,0.4,0.4,0.4,0.6,0.6
		C-414.9,561.9-414.3,564.9-414.5,567.9z M-440.8,633.5c4.8-3,7.8-2.6,10.8,1c3.4,3.6,6.6,7.4,10.2,11.2c1.4,1.2,2,2.4,0.8,4
		c-1.2,1.6-2.8,0.8-4-0.2c-3.8-3-7.8-6-11.6-9.2C-437.1,638.3-439.1,635.9-440.8,633.5z M-424.5,637.5c-2.6-2.6-4.8-5-6.8-7.2
		c0-0.2,0.2-0.4,0.2-1c1.6,0.2,3.2,0.2,4.8,1C-423.7,631.9-424.1,634.3-424.5,637.5z M-450.8,599c0.6-3,2.2-4.4,4.2-6
		c4.8-3.4,10-6.4,14.6-10.2c2.8-2.2,5.2-4.4,8.8-5.2c1.2-0.2,2.8-0.2,3.8,0c3.4,1.4,6.4,3.8,10,5c8.8,3.6,17.6,6.8,26.5,9.8
		c4.4,1.4,9.4,2,14.2,0.2c4.2-1.4,8.6-2.8,12.8-4c2-0.6,3-1,4.8-1.2c-1,1.6-1.6,2-1.8,2.8c-0.8,1.4-1.4,2.4-2,3.6
		c-1.2,3-2.2,6-3.2,9c-0.4,0.6,0.2,1.4,0.2,2.2c0.6-0.4,1.6-0.6,1.8-1.2c1-2.4,1.8-5,2.8-7.2c1.2-2.2,2.8-4.6,4-6.8
		c2.2-4.2,5-8.4,6-13.2c1.2-4.6,0.8-10,1-15.2c0.8-9.6,1.2-19.4,2-29.1c1.2-13.8,2.2-27.1,4.8-40.7c2.4-12,2.6-24.3,3.6-36.5
		c1-13.4,2-26.3,2.8-39.5c0.2-2.2,0.6-4.6,0.8-7.2c-2.2,1-2.6,2.8-2.8,4.6c-0.6,11-1.4,22.1-2.2,33.1c0,1.2-0.4,2.2-0.6,4
		c-0.6-0.4-1.2-0.8-1.2-1c-3.6-4.6-6-10.2-6.2-16.2c-0.4-15.4,4.8-29.3,11.6-42.5c1.2-2.4,2.8-4.8,4-7c3.8-7,6.8-14.6,12-20.7
		c2.2-2.8,3.4-6.6,6-8.8c6-5.4,11.8-11.4,19.6-15.2c1.2-0.6,2.8-1.4,3.8-2.2c5.2-3.8,11-6.4,17.8-5.8c3.2,0.2,6.8,1,10,1.2
		c4,0,7,1.8,9.6,4.6c4,4.8,8.2,9.2,11.2,14.8c4.4,7.8,7.8,16,10.6,24.5c4,12.8,7.2,26.1,10,39.3c2.4,11.2,1.6,22.3,1.8,33.9
		c0,1-0.4,2-0.6,3c-1.8,10.4-7.6,17.8-15.8,23.5c-2,1.2-4,2.2-6.2,3.2c-0.2-0.4-0.6-0.6-0.8-0.6c0.6-2.4,0.6-5,1.6-7.2
		c3.2-8,6.4-15.8,10-23.7c0.2-0.4,0-1.4,0-2.2c-0.2,0-0.4,0-1-0.2c-0.6,1.2-1.4,2.8-2.2,4c-1.2,2.6-2,5.2-3.2,7.8
		c-4.6,9.2-7,19.2-9.2,29.1c-2.4,11.8-5.2,23.7-8,35.5c0,0.4-0.4,0.6-0.6,1.2c-3,8.6-5.6,17-7.2,25.7c-0.8,5-1.6,10-2.8,14.8
		c-1.4,5.8-3.4,11.6-4.6,17.6c-1,5.8-3.8,10.8-6,16c-1,2.2-2,4.6-2.8,7.2c-1.8,7-3.2,14-5,21.1c-1,4.4-1.6,8.6-3.2,12.6
		c-2,5-4.6,9.8-7.2,14.6c-1,2-2.6,3.8-3.8,5.6c-1.4,2-3.2,4-5,5.8c-0.6,0.8-1.4,1.4-2.2,2c-3,2.6-6,5.6-9.2,8.2
		c-1,0.8-2.4,1.4-4,1.6c-5.6,0.4-10.6,0-15.6-2.6c-6.6-3.2-13.2-5.8-20.7-5.8c-3.4,0-7-0.2-10.2-1.2c-7.6-2.2-15.4-5-23.1-7.8
		c-5.4-2-10.8-4.8-16-7c-4.4-2-8-4.4-11.6-7.6c-4.8-4.6-10.2-8-14.8-12.8c-3.2-3.2-6.8-3.2-9.8-2c-1,0.6-2,1-3.2,1.6
		c-3.2,1.2-6.8,2.2-10,3.8c-1.8,0.8-2.2,3-1.2,4.6c3.2,4,6.8,8,10,12.2c1,1.2,1.2,2.6,1.8,4.2c0.2,0.6-0.6,1.4-0.6,2.2
		c-0.8-0.2-1.4-0.2-2-0.8c-3.6-2.6-7.6-5.2-11.2-8.2c-4.2-3.6-7-7.6-6.2-13.6c0.2-2.2,0.2-4.8-0.6-7c-1.2-4-0.2-7.6,1.6-11.2
		C-453.4,611.2-451.2,605.6-450.8,599z M-476.8,344.2c0.4,0.6,0.6,1.4,1.2,1.6c2.8,0.4,5.4,0,7.6-1.6c0.8-0.4,1.4-1,2-1.2
		c1.4,2.6,2.2,5,4,6.8c3,3,6.6,5.4,10.2,8c0.4,0.2,1,0,1.6,0c0-0.6,0-1.6-0.2-1.8c-2-1-1.4-3-2-4.8c-0.2-1.4-0.8-2.8-1-4
		c-0.4-2-1.4-4.2-1.2-6.2c0.8-4.4,2.4-9,3.6-13.2c0.2-0.8,1.2-1.6,2-1.6c3.4-0.2,7.2,0,11,0c0,1.4,0.2,3.8,0.2,6
		c0,0.4-0.6,0.6-0.8,1.2c-2.6,4.2-6,8.2-7.8,12.8c-3,8.8-2.4,18,0.6,26.7c0.4,0.8,1,1.2,1.6,1.8c0.2-0.6,0.4-1.6,0.2-2.2
		c-1.4-4.8-2-9.8-2-14.8c-0.4-8,2.6-14.8,7.2-20.9c0.2-0.4,0.6-0.6,1.2-1.2c0.8,1.8,1,3,1.8,4.6c0.2,0.4,0.6,0.8,1.2,1
		c0.2-0.6,0.8-1,0.8-1.6c0-0.8-0.6-1.2-0.6-2c-0.8-4-1.2-8-2-12c0-0.4,0.6-1.2,0.8-1.2c3.8-1.6,7.2-3,10.8-4.6
		c1.4,3.4,2.6,6.8,3.6,10c1.2,4.2,2.8,8.6,3,12.8c0.8,11.2,1.4,22.7,1.6,33.9c0.4,6-0.6,12-3.2,17.6c-0.8,1.4-1,3.2-1.6,5
		c-1.6,7-3.4,14-5.2,20.9c-1.4,5.8-3.4,11.2-4.2,17c-0.4,5.2-1.2,10.2-2,15.2c-2.4,18.4-4,37.1-1.2,55.9c1.4,10,2.4,19.9,6,29.5
		c1,2.6,1,5,1.6,7.6c0.4,3.2,1.2,6.2,4,8.2c3,1.4,5,3,7.8,5.2c-3.8,5.6-7.6,11.6-11.6,17.2c-2,2.8-4.8,5.6-7.6,7.6
		c-5.4,4.2-11,8-16.6,11.8c-4.2,3-11.8,3.2-15.8,0.2c-5.2-3.8-9.8-8-13-13.8c-1.2-2.2-2.4-4.6-3.2-7.2c-1-4.4-1.2-9-2.2-13.2
		c-0.6-3-1.6-6-2.8-8.6c-2.4-4.8-3.8-9.8-3.2-15c0.2-3.6,0.4-7.2,0.2-10.8c-0.2-4,1-7.8,2.6-11.6c4.8-11.8,9.2-23.7,10.8-36.5
		c0.8-6.6,1.2-13.2,2.8-19.8c2-8.8,4.6-17.6,5.8-26.5c1-6.8,2.4-13.2,3-19.9c0.6-6.8,0-13.8-0.2-20.5c-0.2-8.2-3-15.8-7.8-22.7
		c-4-6.4-7.6-13-8.6-20.5c-1-7.4-1.6-15.2-2.2-22.9c-0.6-8.4-0.6-16.8-2.8-24.9c-1.2-4.6-1-9.6-1.2-14.6c0-0.8,0.4-2.4,1.2-2.6
		c0.8-0.2,2,0.2,2.8,0.8c2.4,1.6,4.4,4,5,7.2c2.2,11.2,4.2,22.5,6.2,33.7c0,0.4-0.4,1.4-1,2c-2,1.2-4.4,2-6.6,3.2
		c-0.4,0.2-0.6,1.4-1.2,2c0.6,0,1.4,0.4,2.2,0.2c1-0.4,1.8-0.8,2.8-1.6c7-4.8,9.4-2.8,11.6,4.2c0.4,0.8,0.6,1.8,0.6,2.8
		c0,0.4,0,1.2-0.2,1.2c-3,1.6-5.6,4.8-9.6,3.6C-475,342.6-475.8,343.4-476.8,344.2z M-458.2,320.9c1.8,1,3.8,1.8,5.6,2.8
		c0.4,0.2,1,1.4,1,2c-1,3.8-2.6,7.2-3.8,10.8c-1.2,3.8-1,7.2,0.8,11c0.4,1.6,0.4,3,1,4.8c-0.2,0.4-0.6,0.4-0.8,0.6
		c-2.6-2-5.4-4.4-7.2-7.6c-0.2-0.6-0.2-1-0.2-1.6c-0.4-2.2-0.6-4.8-0.6-7c0-1.2-0.6-2.6,0-3.8C-461.2,328.9-459.8,324.9-458.2,320.9
		z M-469,298.4c0.4-1.8,1-2.4,2.6-3c4.8-0.6,9.6-1.4,14.6-2.2c0,0.4,0.2,0.4,0.2,0.6c-3,2.4-6,4.4-8.8,7.2c-2.4,2-4,2.4-6.6,0.8
		C-468.2,301-469.2,300.2-469,298.4z M-473.4,290.6c4-1.4,16.4-1,19.6,0.6C-460.4,292.8-467,294-473.4,290.6z M-500.9,196.6h-0.8
		c1.4-6.6,2.6-13,3.6-19.8c0.4-2.4,1.8-3.4,4-4.2c2.2-0.8,4.4-2,7-2.8c6-2,11.6-2,17.2,1c6.6,3.8,10.6,9.8,14.6,15.8
		c1.8,2.6,3.6,5.4,5.6,7.6c5.8,6.6,13.2,9.8,21.7,11.6c4.8,1,9.2,3,11,8.2c0.6,1.8,1.6,3.2,2.6,4.8c2.6,4,5.4,8.2,8.2,12.2
		c2.4,3.4,4.4,6.4,6.6,9.6c1.4,1.8,2.8,1.6,3.6,0c0.4-0.8,0.8-1.4,1.2-2.2c2.8-1,4.8-3.4,3.6-6.4c-0.2-0.4-0.4-1-0.6-1.4
		c2.4-7.4,4.6-14.8,11.4-19.9c2.8-2,5.4-2.8,8-1.8c7,3,12.4,9,11.2,17.8c-0.6,4-1,7.8-1.8,11.8c-0.2,0.8-0.8,1.8-1,2.6
		c-0.6,1-1.4,2-2.2,3c-1,1.6-1.8,3.4-2.8,5.2c-3.8,6.8-10.8,9.4-18,6.6c-0.8-0.2-1.6,0.4-2.6,0.6c0.2,1,0.2,2.4,0.8,2.6
		c2.8,1.6,2.8,4,3,6.6c0.4,4.4-0.8,8.4-2.6,12.2c-2.4,4.6-3.8,9.6-6.6,14.2c-3,5.6-7.8,9.8-13.6,12.6c-1,0.4-2,1.2-3,2
		c-6.6,5.4-13.8,9.4-21.7,13c-7.2,3.2-14.4,5.8-21.9,0.6c-2.4-1.8-4.2-3.6-5-6.6c-0.4-2.2-1.2-4.8-2-7c-0.4-1.2-0.4-2,0.6-2.8
		c2.2-1.6,4.6-3.4,6.8-5.2c2-1.8,3.6-3.6,5.2-5.6c1.8-2.6,1-4.4-2.2-4.6c-6.6-0.6-13.4-0.8-20.1-0.8c-3.4,0-3.8,0-3.2-3.2
		c0.6-5.4-3-7-7.2-7.2c-2.8-0.2-5.2-1.2-7.8-2.2c-0.8-0.2-1.6-1.4-1.6-2.2c0.2-2.8,0.8-5.4,1.8-8c4-12.2,4.6-24.1-2.6-35.9
		C-497.7,219.4-501.9,208.8-500.9,196.6z"/>
	<path class="st0" d="M-431.3,624.1c-0.6-0.2-1.4-0.4-2.2-1c-2-1.8-4-3.4-6.2-5c-4.8-3.2-4.2-11-0.6-15c0.2-0.2,0.6-0.2,1.2-0.2
		c0,0.2,0.2,0.6,0.2,1.2c0,0.6-0.6,1-0.8,1.6c-2.8,5.2-1.8,9,3,12.2c2.2,1.8,4,3.8,6,5.6C-431.1,623.9-431.3,624.3-431.3,624.1z"/>
	<path class="st0" d="M-364.6,226.9c0.2,7.8-1.8,13.2-7,18.8c-0.6,0.4-1.2,0.4-1.8,0.6c0-0.8-0.2-1.4,0-2c0.4-1,0.8-1.8,1.6-2.6
		c4.4-4.4,5.2-10.2,4.6-16.2c-0.2-6.8-5.2-8.8-10.2-8.8c-0.8,0-1.6,1-2,1.6c-0.4,0.6,0.4,1.6,1.2,2.2c1.6,1,3.4,2,5.2,3.2
		c3.2,2,4.8,9,2.6,11c-2.6,2.4-4.8,5.2-8.6,6c-2,0.4-4.4,1.2-4.6,4c0,0.4-1,1-1.2,1c-0.4-0.4-1.2-1-1.2-1.6c0-1,0.4-2,1-2.6
		c2-1.4,4-2.4,5.8-3.6c2.2-1.8,4.8-3,6.8-5c1.4-1.2-0.2-6.8-2.2-8c-1.6-1-3-1.8-4.8-2.6c-2-1-2.8-2.2-2.6-4.2c0.2-2,1-3.4,3-4.2
		c4-1.4,10,0.4,12,4.2c1.4,2.4,2,5.4,3,8.2C-364.2,226.5-364.6,226.5-364.6,226.9z"/>
	<path class="st0" d="M-484.5,228.7c-0.2-0.8,0.8-2.2,1.6-2.8c6.8-3.2,13.8-6.2,21.7-6c2.2,0.4,4.8,0.8,7,1.6c0.2,0.2,1,1.4,0.8,2
		c-0.2,0.4-1.2,1-2,1c-8.2-0.8-16.2-0.4-22.9,5.2c-1,0.8-2.2,1-3.8,1.8C-483.1,230.5-484.3,230.1-484.5,228.7z"/>
	<path class="st0" d="M-466.2,275c-3,2.2-10,2-13.2-0.6c-0.8-0.8-1-2-1.6-3c1-0.6,2.2-1.8,3.2-1.6c1.6,0.6,3.4,1.6,4.6,2.8
		c1.6,1.4,2.8,1.6,4.6,0.8c2.2-0.8,2.4-2.8,1.6-5.6c-0.2-0.8,0-1.2,0-2c0.8,0.2,1.6,0.4,1.8,1c0.4,1.4,0.6,2.6,1.2,4.6
		C-464.4,272.4-465.2,273.8-466.2,275z"/>
	<path class="st0" d="M-470.2,237.3c-0.4-0.6-0.2-1.8-0.2-2.6c0.6,0,1.4,0,2.2,0.2c0.4,0.2,0.6,0.8,1.2,1c5.6,4.2,9,4.2,14.8,0.2
		c0.6-0.4,1.4-0.8,2.2-1c0.6,0,1.4,0.2,1.6,0.8c0,0.6-0.4,1.4-0.6,1.6c-3.4,2-6.4,5.4-11,4.6C-464.4,243.1-467,239.5-470.2,237.3z"
		/>
	<path class="st0" d="M-382.2,246.9c2,0,3.6,1.6,3.6,4.2c0,2.8-1,4-4,4c-2.6,0.2-3.8-1-3.8-4C-386.4,248.5-384.8,247.1-382.2,246.9z
		 M-384.2,250.7c1,1,1.4,2,2,2c0.8,0,1.4-1,2-1.6c-0.2-0.2-0.6-0.6-0.8-0.8C-381.8,250.5-382.6,250.5-384.2,250.7z"/>
</g>
</svg>
