<?xml version="1.0" encoding="utf-8"?>
<!-- Generator: Adobe Illustrator 18.1.1, SVG Export Plug-In . SVG Version: 6.00 Build 0)  -->
<!DOCTYPE svg PUBLIC "-//W3C//DTD SVG 1.1//EN" "http://www.w3.org/Graphics/SVG/1.1/DTD/svg11.dtd">
<svg version="1.1" id="Layer_1" xmlns="http://www.w3.org/2000/svg" xmlns:xlink="http://www.w3.org/1999/xlink" x="0px" y="0px"
	 viewBox="0 0 150.5 162.2" style="enable-background:new 0 0 150.5 162.2;" xml:space="preserve">
<style type="text/css">
	.st0{fill:none;stroke:#E91E63;stroke-miterlimit:10;}
	.st1{fill:#E91E63;}
</style>
<g>
	<g id="syringe">
		<path class="st0" d="M4.3,155.9c0-2.1,5-3.9,11.2-3.8c6.2,0,11.2,1.8,11.2,3.9c0,0.3,0,1.6,0,1.9c0,2.1-5,3.9-11.2,3.8
			c-6.2,0-11.2-1.8-11.2-3.9C4.3,157.5,4.3,156.2,4.3,155.9z"/>
		<path class="st0" d="M26.7,155.7c-0.5-2-5.3-3.6-11.1-3.6c-5.9,0-10.7,1.5-11.2,3.5c0.5,2,5.3,3.6,11.1,3.6
			C21.3,159.2,26.1,157.7,26.7,155.7z"/>
		<polygon class="st0" points="21.7,90.3 9.6,88.2 9.3,155 21.4,157.1 		"/>
		<polygon class="st0" points="12.7,158.1 16,156.1 16.3,89.2 13.1,91.3 		"/>
		<path class="st0" d="M0.5,124.7c0,2.9,6.8,5.3,15.1,5.3c8.4,0,15.2-2.3,15.2-5.2c0-0.4,0-1.9,0-2.3c0-2.9-6.8-5.3-15.1-5.3
			c-8.4,0-15.2,2.3-15.2,5.2C0.5,122.8,0.5,124.3,0.5,124.7z"/>
		<path class="st0" d="M30.6,121.6c-1.2-2.5-7.4-4.4-14.9-4.4c-7.5,0-13.7,1.8-15,4.3c1.2,2.5,7.4,4.4,14.9,4.4
			C23.1,126,29.4,124.1,30.6,121.6z"/>
		<path class="st0" d="M5.2,119.7c0,2,4.7,3.7,10.5,3.7c5.8,0,10.5-1.6,10.5-3.6c0-1.6,0.3-61.7,0.3-63.2c0-2-4.7-3.6-10.5-3.7
			c-5.8,0-10.5,1.6-10.5,3.6C5.5,58.1,5.2,118.1,5.2,119.7z"/>
		<path class="st0" d="M6.3,91.4c0,1.8,4.2,3.3,9.5,3.3c5.3,0,9.5-1.4,9.5-3.2c0-0.9,0-3.8,0-4.7c0-1.8-4.2-3.3-9.5-3.3
			c-5.3,0-9.5,1.4-9.5,3.2C6.3,87.6,6.3,90.5,6.3,91.4z"/>
		<path class="st0" d="M6.3,86.1c0,1.8,4.2,3.3,9.5,3.3c5.3,0,9.5-1.4,9.5-3.2c0-0.9,0.1-27.9,0.1-28.8c0-1.8-4.2-3.3-9.5-3.3
			c-5.3,0-9.5,1.4-9.5,3.2C6.5,58.2,6.3,85.2,6.3,86.1z"/>
		<path class="st0" d="M11.8,86.3c-1.8-0.3-3.3-0.7-4.3-1.3l0,0.3c1,0.6,2.6,1,4.3,1.3L11.8,86.3z M11.9,75.1
			c-1.8-0.3-3.3-0.7-4.3-1.3l0,0.3c1,0.6,2.6,1,4.3,1.3L11.9,75.1z M20.8,80.7l0-0.3c-1.5,0.4-3.4,0.6-5.4,0.6
			c-3.3,0-6.2-0.6-7.9-1.5l0,0.3c1.7,0.9,4.6,1.5,7.9,1.5C17.5,81.3,19.3,81.1,20.8,80.7z M20.9,69.4l0-0.3
			c-1.5,0.4-3.4,0.6-5.4,0.6c-3.3,0-6.2-0.6-7.9-1.5l0,0.3c1.7,0.9,4.6,1.5,7.9,1.5C17.5,70,19.4,69.8,20.9,69.4z M20.7,103.3l0-0.3
			c-1.5,0.4-3.4,0.6-5.4,0.6c-3.3,0-6.2-0.6-7.9-1.5l0,0.3c1.7,0.9,4.6,1.5,7.9,1.5C17.3,103.8,19.2,103.6,20.7,103.3z M11.3,97.5
			c-1.6-0.3-2.9-0.7-3.8-1.2l0,0.3c0.9,0.5,2.3,0.9,3.8,1.2L11.3,97.5z M11.5,108.9c-1.7-0.3-3.2-0.7-4.2-1.2l0,0.3
			c1,0.5,2.5,1,4.2,1.2L11.5,108.9z"/>
		<path class="st0" d="M12.6,53.7c0,0.7,1.5,1.2,3.5,1.2c1.9,0,3.5-0.5,3.5-1.2c0-0.6,0-7.9,0-8.4c0-0.7-1.5-1.2-3.5-1.2
			c-1.9,0-3.5,0.5-3.5,1.2C12.6,45.8,12.6,53.1,12.6,53.7z"/>
	</g>
	<g id="bottle">
		<path class="st1" d="M50.5,37c-0.3-0.1-0.6-0.2-0.9-0.2c-1.3,0-2.6,0-3.8,0c-1.1,0-1.6-0.5-1.3-1.6c0.8-2.9,1.5-5.8,2.8-8.6
			c0.5-1,0.5-2.2,0.5-3.3c0.1-7.3,0-14.7,0.1-22C47.8,0.2,48,0,49,0c12.3,0,24.7,0,37,0c0.3,0,0.7,0,1,0c1.1,0,1.4,0.4,1.4,1.4
			c0,7.8,0.1,15.5,0,23.3c0,2.4,0.2,4.6,1.1,6.8c0.5,1.3,0.6,2.7,0.8,4.1C90.4,36.6,90,37,89,37c-1.2,0-2.5,0-3.7,0
			c-0.3,0-0.6,0.3-0.9,0.4c0.3,0.2,0.6,0.6,0.9,0.6c1.1,0.1,2.2,0,3.4,0c1,0,1.5,0.5,1.6,1.4c0.1,1.5,0.2,2.9,0.1,4.4
			c-0.1,0.7-0.7,1.3-1.1,2.2c0.6,0.4,1.4,0.9,2.2,1.4c1.3,0.9,2.7,1.7,4,2.7c1.5,1.2,2.2,2.9,2.2,4.8c0.1,7.8,0.1,15.6,0.1,23.3
			c0,23.7-0.2,47.5-0.1,71.2c0,3.3-1.6,5.4-3.9,7.2c-1.2,0.9-2.9,1.3-4.4,1.7c-2.3,0.7-4.8,1.1-7.1,2c-2.9,1.1-5.9,0.7-8.9,0.9
			c-3.2,0.2-6.3,0.3-9.5,0.5c-0.5,0-1.1,0-1.6-0.1c-1.9-0.2-3.7-0.5-5.6-0.7c-3.7-0.5-7.3-1-10.9-1.7c-2.3-0.4-4.4-1.6-6.3-3.1
			c-1.9-1.5-2.6-3.5-2.4-5.9c0.1-1.1,0-2.2,0-3.3c0-29.7,0.1-59.5,0-89.2c0-4.1,1.6-6.9,4.6-9.2c1-0.7,2-1.4,3.1-2.1
			c0.9-0.6,0.9-0.7,0.3-1.6c-0.4-0.6-0.7-1.4-0.8-2.1c-0.2-1.5,0.3-2.9,1-4.3c0.5-0.8,1.2-1.2,2.1-1.1c0.6,0,1.1,0.1,1.7,0.1
			c0.5,0,1-0.1,1.6-0.1C50.5,37.2,50.5,37.1,50.5,37z M38.3,64c0,0.4-0.1,0.6-0.1,0.9c0,2.6,0,5.3,0,7.9c0,12.7,0,25.4,0,38.1
			c0,9.6,0,19.1,0,28.7c0,0.5,0.1,1,0.4,1.4c0.7,0.9,1.7,1.6,2.9,1.8c4.8,1.1,9.6,2,14.5,2.2c0.5,0,1.1,0,1.6,0.1c4,0.8,8,1,12,0.8
			c3.5-0.2,7-0.2,10.5-0.4c2.4-0.2,4.7-0.5,7.1-0.9c1.8-0.3,3.7-0.6,5.4-1.4c2.2-1,3.7-2.2,3.7-5.3c-0.1-24.6,0-49.2,0-73.8
			c0-0.2,0-0.5-0.1-1c-1.8,2.3-4.1,2.1-6.4,2.1c-2.5,0-4.9-0.2-7.4-0.2c-10.3,0-20.6,0-30.9,0c-0.6,0-1.2,0-1.8,0
			C45.9,65.3,42.1,65.6,38.3,64z M67.3,63.7c0,0,0-0.1,0-0.1c8.6,0,17.2,0,25.9,0c1.1,0,3.1-1.7,3.1-2.8c0-2.2,0.1-4.4-0.1-6.6
			c-0.1-1-0.6-2.2-1.3-3c-0.9-0.9-2.1-1.6-3.2-2.3c-1-0.7-2.2-1.2-3.1-1.9c-0.9-0.8-1.8-1-3-1c-12.3,0-24.5,0-36.8,0
			c-1.1,0-2.2,0-3,1c-0.2,0.2-0.5,0.3-0.8,0.5c-1.7,1.4-3.4,2.7-5,4.3c-1,1-1.6,2.3-1.7,3.8c-0.1,2.1-0.1,4.2-0.1,6.3
			c0,0.3,0.3,0.7,0.6,1c1,0.8,2.2,0.8,3.4,0.8C50.6,63.7,59,63.7,67.3,63.7z M96.1,142.7c-0.3,0.2-0.6,0.4-0.8,0.6
			c-0.2,0.2-0.5,0.3-0.7,0.4c-2.9,1.8-6.3,1.9-9.6,2.4c-2.7,0.4-5.4,0.5-8.1,0.6c-4.5,0.2-9.1,0.3-13.6,0.2c-2.3,0-4.5-0.7-6.8-0.8
			c-4.6-0.2-9.1-0.9-13.6-1.9c-1.6-0.4-3.1-1-4.6-1.6c-0.3,1.4,0.1,7.2,0.6,9.9c0.3,1.7,1.3,2.8,2.8,3.5c1.4,0.7,2.9,1.5,4.5,1.9
			c2,0.5,4.1,0.8,6.1,1.1c3.5,0.4,7,0.7,10.6,1c1.9,0.1,3.9,0.2,5.9,0.1c2.1-0.1,4.1-0.3,6.2-0.5c1.6-0.1,3.3-0.2,4.9-0.5
			c2.5-0.5,4.9-1.3,7.4-1.8c2.4-0.5,4.6-1.5,6.6-2.9c0.4-0.3,0.6-0.7,0.9-1.1c0.3-0.4,0.5-0.9,0.7-1.4c0.3-0.8,0.7-1.6,0.7-2.5
			c0.1-1.9,0-3.7,0-5.6C96.2,143.5,96.1,143.2,96.1,142.7z M45.7,35.6c14.6,0,28.9,0,43.4,0c-0.8-3-1.5-5.9-2.3-8.9
			c-2.6,0-5.2,0-7.8,0c-9.6,0-19.2,0-28.9-0.1c-1.2,0-1.9,0.5-2.2,1.4C47.1,30.5,46.5,32.9,45.7,35.6z M67.4,45
			C67.4,45,67.4,44.9,67.4,45c6.4,0,12.8,0,19.1-0.1c0.6,0,1.3-0.1,1.9-0.4c0.4-0.2,0.8-0.7,0.8-1.1c0.1-1,0-2,0-3
			c0-0.6-0.4-1-1-1.1c-1.9-0.2-3.7-0.7-5.6-0.7c-11.5-0.1-23-0.1-34.5-0.1c-1.4,0-1.9,0.4-2.3,1.7c-0.2,0.6-0.3,1.2-0.3,1.7
			c-0.1,2.2,0.7,3,2.9,3C54.7,45,61,45,67.4,45z M68.8,26c0-0.3,0.1-0.4,0.1-0.6c0-7.9,0-15.7,0.1-23.6c0-0.6-0.3-0.7-0.8-0.7
			c-1.6,0-3.2,0-4.9,0c-0.8,0-1.1,0.2-1.1,1.1c0,7.3,0,14.6,0,21.9c0,0.6,0,1.2,0,1.9C64.5,26,66.6,26,68.8,26z M80.6,13.6
			C80.6,13.6,80.6,13.6,80.6,13.6c0.1,3.8,0.1,7.7,0,11.5c0,0.7,0.2,1,0.9,1c1.5-0.1,3-0.1,4.6,0c0.9,0,1.1-0.3,1.1-1.2
			c0-7.3,0-14.6,0-21.9c0-1.6,0-1.6-1.4-1.6c-1.3,0-2.6-0.1-3.9-0.2c-1.3-0.1-1.3,0-1.3,1.2C80.6,6.1,80.6,9.8,80.6,13.6z M61.7,26
			c0-8.1,0-16.1,0-24.1c0-0.6-0.2-0.9-0.9-0.9c-1.5,0-3,0.1-4.6,0c-0.9,0-1.2,0.3-1.1,1.2c0.1,6.5,0.1,13,0.1,19.5
			c0,1.2,0,2.4,0,3.5c0,0.5,0.1,0.8,0.7,0.8C57.8,26,59.7,26,61.7,26z M54.6,13.6C54.6,13.6,54.7,13.6,54.6,13.6
			c0.1-3.9,0-7.7,0.1-11.6c0-0.7-0.2-1-1-1c-1.2,0-2.4,0-3.5,0c-1.2,0-1.4,0.2-1.4,1.4c0,3,0,5.9,0.1,8.9c0,4.6,0,9.1,0,13.7
			c0,0.8,0.3,1.1,1.1,1c1.2-0.1,2.5-0.1,3.7,0c0.7,0,1-0.2,0.9-1C54.6,21.3,54.6,17.4,54.6,13.6z M74.8,26c0-2.2,0-4.3,0-6.4
			c0-5.8,0-11.6,0-17.5c0-0.8-0.2-1.1-1.1-1.1c-1.1,0.1-2.1,0.1-3.2,0c-0.9-0.1-1.1,0.3-1.1,1.1c0,7.4,0,14.9,0,22.3
			c0,0.5,0.1,1,0.1,1.5C71.3,26,73,26,74.8,26z M75.3,13.5C75.3,13.5,75.3,13.5,75.3,13.5c0,3.8,0,7.6,0,11.5c0,0.9,0.3,1.1,1.1,1.1
			c0.9-0.1,1.8-0.1,2.7,0c0.7,0,1-0.2,1-0.9c0-2.4,0-4.8,0-7.2c0-5.3,0-10.5,0.1-15.8c0-0.8-0.2-1.1-1.1-1.1c-0.9,0.1-1.8,0.1-2.7,0
			c-0.9-0.1-1.1,0.2-1.1,1.1C75.3,5.9,75.3,9.7,75.3,13.5z M51.9,37.3c0,0.1,0.1,0.3,0.1,0.4c0.3,0,0.6,0,0.9,0c9.7,0,19.5,0,29.2,0
			c0.4,0,0.8-0.2,1.2-0.4c-0.4-0.1-0.8-0.3-1.2-0.3c-8.5,0-17.1,0-25.6,0c-1.2,0-2.5,0-3.7,0C52.5,37,52.2,37.2,51.9,37.3z"/>
	</g>
	<g id="cup">
		<path class="st1" d="M127.7,161.7c-2.9,0-5.8,0-8.8,0c-4,0-6.8-2.2-7.8-5.9c-0.4-1.4-0.6-2.8-0.8-4.2c-0.5-2.9-1-5.8-1.4-8.7
			c-1.3-8.3-2.7-16.6-4-24.9c-0.3-1.7-0.6-3.3-0.8-5c-0.1-0.6-0.1-1.2-0.1-1.8c0-1,0.6-1.6,1.4-2.1c1.1-0.7,2.4-1.1,3.7-1.5
			c2.6-0.8,5.3-1.2,8-1.5c4.1-0.5,8.2-0.6,12.3-0.5c2.2,0.1,4.3,0.2,6.5,0.3c2.2,0.2,4.4,0.3,6.6,0.8c1.9,0.5,3.8,1.1,5.7,1.7
			c0.9,0.3,1.7,0.9,2.2,1.8c0.3,0.6,0.3,1.3,0.2,1.9c-0.1,0.7-0.3,1.3-0.4,2c-0.1,0.8-0.2,1.7-0.4,2.5c-0.1,1.1-0.3,2.2-0.4,3.2
			c-0.3,1.9-0.6,3.8-0.9,5.7c-0.3,1.6-0.5,3.1-0.8,4.7c-0.3,1.5-0.5,3.1-0.8,4.6c-0.3,1.9-0.6,3.8-1,5.7c-0.2,1.4-0.5,2.9-0.8,4.3
			c-0.2,1.4-0.4,2.8-0.7,4.2c-0.3,1.5-0.6,3.1-0.9,4.6c-0.3,1.2-0.5,2.4-0.9,3.5c-0.9,2.4-2.6,3.8-5,4.4c-0.2,0.1-0.5,0-0.7,0
			C133.8,161.7,130.7,161.7,127.7,161.7z M126.6,146.7c0,0,0-0.1,0-0.1c0-1,0-2,0-3c0-0.2-0.1-0.2-0.3-0.2c-0.9,0-1.8,0-2.7-0.1
			c-1.2-0.1-2.3-0.2-3.5-0.3c-0.1,0-0.2-0.1-0.3-0.2c0.1,0,0.2-0.1,0.3-0.1c0.4,0,0.7,0.1,1.1,0.1c1.7,0.1,3.4,0.2,5,0.3
			c0.3,0,0.4-0.1,0.4-0.4c0-1.6,0-3.3,0-4.9c0-0.1,0-0.2,0-0.4c-0.1,0-0.2,0-0.3,0c-1.2-0.1-2.4-0.1-3.6-0.2
			c-1.8-0.2-3.5-0.4-5.3-0.5c-0.3,0-0.6-0.1-0.9-0.1c-0.1,0-0.1-0.1-0.2-0.2c0.1,0,0.2-0.1,0.2-0.1c0.1,0,0.3,0,0.4,0
			c0.9,0.1,1.9,0.2,2.8,0.3c1.5,0.1,3,0.3,4.5,0.4c0.8,0.1,1.6,0.1,2.4,0.1c0-2.3,0-4.5,0-6.8c-0.2,0-0.3,0-0.4,0
			c-1.8-0.1-3.5-0.2-5.2-0.3c-0.1,0-0.2-0.1-0.3-0.2c0.1,0,0.3-0.1,0.4-0.1c0.6,0,1.1,0.1,1.7,0.2c1.2,0.1,2.4,0.1,3.6,0.1
			c0.3,0,0.3-0.1,0.3-0.3c0-1.8,0-3.7,0-5.5c0-0.3-0.1-0.4-0.4-0.4c-3.4,0-6.7-0.2-10.1-0.6c-0.1,0-0.2-0.1-0.3-0.2
			c0.1-0.1,0.2-0.2,0.4-0.2c0.6,0,1.1,0.1,1.7,0.2c2.7,0.1,5.5,0.2,8.2,0.4c0.4,0,0.4-0.1,0.4-0.4c0-1.2,0-2.3,0-3.5
			c0-0.1,0-0.2,0-0.3c0-0.1,0.1-0.1,0.2-0.2c0.1,0.1,0.1,0.1,0.2,0.2c0,0.1,0,0.2,0,0.2c0,1.2,0,2.4,0,3.6c0,0.3,0.1,0.5,0.4,0.5
			c3.1,0,6.2-0.1,9.3-0.6c0.1,0,0.2,0.1,0.3,0.1c-0.1,0.1-0.2,0.2-0.3,0.2c-1.1,0.1-2.2,0.3-3.3,0.3c-2,0.1-4.1,0.2-6.1,0.2
			c-0.3,0-0.4,0.1-0.4,0.4c0,0.8,0,1.7,0,2.5c0,0.1,0,0.2,0,0.4c0.8,0,1.5,0.1,2.2,0.1c1.3,0,2.7-0.1,4-0.2c0.1,0,0.2,0.1,0.3,0.1
			c-0.1,0.1-0.1,0.2-0.2,0.2c-0.2,0-0.4,0.1-0.6,0.1c-1.7,0-3.5,0-5.2,0c-0.2,0-0.4,0-0.6,0c0,1.8,0,3.6,0,5.4c0.2,0,0.3,0,0.5,0
			c2.6,0.1,5.2,0,7.8-0.2c0.2,0,0.5-0.1,0.7-0.1c0.1,0,0.2,0.1,0.3,0.1c-0.1,0.1-0.2,0.1-0.3,0.2c0,0-0.1,0-0.1,0
			c-1.4,0.1-2.8,0.2-4.2,0.3c-1.4,0-2.9,0-4.3,0c-0.3,0-0.4,0.1-0.4,0.4c0,1.1,0,2.1,0,3.2c0,0.3,0.1,0.4,0.4,0.4
			c1.4,0,2.8-0.1,4.2-0.1c0.2,0,0.4-0.1,0.5,0.2c0,0-0.3,0.2-0.5,0.2c-1.4,0-2.8,0.1-4.2,0.1c-0.3,0-0.4,0.1-0.4,0.4
			c0,0.9,0,1.8,0,2.7c0,0.3,0.1,0.5,0.4,0.5c2.6-0.1,5.3-0.2,7.9-0.3c0.1,0,0.2,0.1,0.3,0.1c-0.1,0.1-0.2,0.2-0.3,0.2
			c-1.6,0.1-3.1,0.2-4.7,0.3c-1.1,0-2.2,0-3.3,0c-0.3,0-0.3,0.1-0.3,0.3c0,1.2,0,2.4,0,3.6c0,0.2,0.1,0.3,0.3,0.3c1.1,0,2.3,0,3.4,0
			c0.2,0,0.5,0.1,0.5,0.1c0,0.3-0.3,0.2-0.5,0.2c-1,0-2,0-3,0c-0.7,0-0.7,0-0.7,0.7c0,0,0,0.1,0,0.1c0.1,0,0.1,0,0.2,0
			c1.1,0,2.3,0.1,3.4,0.1c1.3,0.1,2.5,0.2,3.8,0.4c1.4,0.2,2.9,0.5,4.2,1.1c1,0.4,2,0.8,2.6,1.9c0.5-0.8,0.9-1.7,1.1-2.6
			c0.4-1.8,0.7-3.6,1.1-5.5c0.5-2.3,1-4.6,1.5-6.8c0.3-1.6,0.6-3.2,0.9-4.7c0.2-1,0.3-1.9,0.5-2.9c0.2-1.1,0.4-2.1,0.6-3.2
			c0.2-1.1,0.4-2.1,0.6-3.2c0.2-1.1,0.4-2.3,0.6-3.4c0.2-1.2,0.5-2.4,0.7-3.6c0.1-0.6,0.1-1.2,0.2-1.8c-0.3,0.2-0.6,0.4-0.8,0.5
			c-0.8,0.3-1.7,0.7-2.5,0.9c-2.7,0.8-5.5,1.3-8.3,1.6c-1.2,0.1-2.5,0.2-3.7,0.3c-0.9,0.1-1.7,0.1-2.6,0.1c-1,0-2,0.1-3,0.1
			c-1.2,0-2.4,0-3.7-0.1c-0.5,0-1.1,0-1.6-0.1c-1,0-2-0.1-3-0.1c-0.6,0-1.2-0.1-1.8-0.1c-0.7-0.1-1.4-0.2-2.2-0.3
			c-0.7-0.1-1.4-0.2-2.2-0.3c-1-0.2-2-0.4-3-0.6c-1.5-0.3-2.9-0.7-4.2-1.4c-0.4-0.2-0.8-0.4-1.2-0.6c0.1,0.6,0.2,1.3,0.4,1.9
			c0.3,1.4,0.5,2.8,0.8,4.1c0.2,1.3,0.5,2.5,0.7,3.8c0.2,1.2,0.5,2.5,0.7,3.7c0.2,1.3,0.5,2.6,0.7,3.8c0.3,1.4,0.5,2.7,0.8,4.1
			c0.2,1.3,0.5,2.6,0.7,3.9c0.2,1.3,0.5,2.5,0.7,3.8c0.2,1.1,0.4,2.1,0.5,3.2c0.2,1.2,0.6,2.4,1,3.6c0.2,0.7,0.7,1.4,1.2,2
			c0.2-0.5,0.5-0.9,0.9-1.1c0.8-0.4,1.5-0.8,2.3-1.1c1.6-0.6,3.3-0.9,5.1-1.1c1.2-0.1,2.3-0.2,3.5-0.3
			C125.8,146.8,126.2,146.7,126.6,146.7z M141.7,153c-0.8,0.3-1.5,0.7-2.2,1c-1.7,0.7-3.5,1.2-5.3,1.6c-1.1,0.2-2.1,0.3-3.2,0.5
			c-0.5,0.1-1.1,0.1-1.6,0.1c-0.8,0.1-1.6,0.1-2.4,0.1c-1.3,0-2.6-0.1-3.9-0.3c-0.7-0.1-1.4-0.2-2.1-0.3c-1-0.2-2.1-0.4-3.1-0.7
			c-1.3-0.3-2.6-0.6-3.8-1.3c-0.3-0.2-0.7-0.4-1-0.6c0.1,0.4,0.1,0.8,0.2,1.2c0.2,1.3,0.7,2.5,1.7,3.5c0.7,0.7,1.5,1.3,2.2,1.9
			c0.4,0.3,0.7,0.6,1.1,0.8c0.5,0.3,1.1,0.3,1.7,0.3c3.5,0,7,0,10.5,0.1c1.2,0,2.4,0,3.6,0c0.6,0,1.3,0,1.9-0.3
			c0.9-0.4,1.8-0.9,2.6-1.5c1.2-1,2.1-2.3,2.7-3.8C141.4,154.7,141.7,153.9,141.7,153z M127.2,106.1c0,0,0-0.1,0-0.1
			c-1.7,0.1-3.4,0.1-5,0.2c-1.8,0-3.5,0.3-5.2,0.6c-1.2,0.2-2.5,0.3-3.7,0.5c-1.4,0.2-2.9,0.5-4.3,0.8c-1.3,0.3-2.6,0.8-3.7,1.6
			c-0.3,0.3-0.7,0.5-0.8,1c-0.1,0.7,0.3,1.1,0.8,1.4c0.8,0.7,1.8,1.1,2.9,1.4c1.9,0.6,3.7,1,5.7,1.3c1.3,0.2,2.6,0.4,3.9,0.5
			c1.1,0.1,2.2,0.2,3.3,0.3c1,0.1,1.9,0.1,2.9,0.1c2.8,0,5.6,0,8.4-0.1c0,0,0.1,0,0.1,0c1.1-0.1,2.3-0.2,3.4-0.3
			c0.5,0,1.1-0.1,1.6-0.1c0.9-0.1,1.9-0.3,2.8-0.4c1.1-0.2,2.1-0.3,3.2-0.6c1-0.2,2-0.6,3.1-0.9c0.9-0.3,1.8-0.7,2.6-1.3
			c0.3-0.3,0.7-0.5,0.8-1c0.1-0.7-0.3-1.1-0.8-1.4c-1.1-0.8-2.4-1.3-3.7-1.7c-2.4-0.7-4.9-1.1-7.3-1.4c-2.1-0.2-4.1-0.4-6.2-0.5
			C130.3,106,128.7,106.1,127.2,106.1z M126.6,148.1c-1.1,0.1-2.2,0.1-3.3,0.2c-1,0.1-2.1,0.3-3.1,0.5c-1.3,0.2-2.5,0.6-3.6,1.2
			c-0.4,0.2-0.7,0.5-0.8,0.9c-0.2,0.7,0.1,1.5,0.9,1.7c0.3,0.1,0.6,0.2,1,0.4c0.6,0.2,1.1,0.5,1.7,0.7c0.6,0.2,1.3,0.3,2,0.4
			c0.8,0.1,1.6,0.4,2.4,0.4c2.8,0,5.5,0.2,8.3-0.2c0.9-0.2,1.8-0.3,2.7-0.5c0.5-0.1,1-0.4,1.5-0.5c0.9-0.2,1.7-0.6,2.5-1
			c0.1,0,0.2-0.2,0.2-0.3c0-0.4-0.1-0.8-0.2-1.2c-0.2-0.6-0.7-0.8-1.2-1c-1-0.4-1.9-0.7-2.9-0.9c-1.2-0.3-2.4-0.4-3.6-0.5
			c-0.5-0.1-0.9-0.1-1.4-0.1c-0.8,0-1.7,0-2.6,0c0,0.2,0,0.4,0,0.6c0,0.2,0.1,0.4-0.2,0.5c-0.1-0.2-0.1-0.4-0.2-0.5
			C126.6,148.5,126.6,148.3,126.6,148.1z M150.2,111.2c-0.2,0.3-0.3,0.5-0.4,0.7c-0.1,0.2-0.2,0.4-0.2,0.6c-0.2,1.2-0.3,2.4-0.5,3.5
			c-0.2,1.1-0.4,2.2-0.6,3.3c-0.2,1.1-0.4,2.2-0.6,3.3c-0.2,1.3-0.5,2.6-0.7,3.8c-0.2,1.3-0.5,2.7-0.7,4c-0.2,1.3-0.4,2.5-0.7,3.8
			c-0.3,1.4-0.5,2.7-0.8,4.1c-0.4,1.9-0.8,3.8-1.1,5.7c-0.3,1.6-0.6,3.2-1.2,4.8c-0.5,1.4-1.4,2.6-2.7,3.3c-1.4,0.8-3,1.4-4.6,1.7
			c-1.5,0.3-3,0.5-4.5,0.7c-0.3,0-0.7,0-1,0c-0.6,0-1.1,0.1-1.7,0.1c-1.4,0-2.7,0-4.1-0.1c-1-0.1-2-0.2-3.1-0.4
			c-1.8-0.3-3.6-0.9-5.2-1.8c-0.8-0.4-1.5-0.9-2-1.6c-1-1.3-1.7-2.7-2.1-4.3c-0.3-1.2-0.5-2.5-0.8-3.8c-0.3-1.3-0.5-2.5-0.7-3.8
			c-0.2-1.3-0.5-2.5-0.7-3.8c-0.3-1.4-0.5-2.7-0.8-4.1c-0.3-1.5-0.6-3-0.9-4.5c-0.2-0.9-0.4-1.8-0.5-2.6c-0.2-1.3-0.5-2.6-0.7-3.9
			c-0.2-0.9-0.4-1.8-0.5-2.6c-0.2-1.3-0.5-2.6-0.7-3.9c-0.1-0.4-0.3-0.9-0.4-1.3c0-0.1,0-0.3-0.1-0.4c-0.1-0.2-0.3-0.4-0.5-0.6
			c0,0.1,0,0.2,0,0.2c0.2,1.1,0.4,2.2,0.5,3.3c0.1,0.7,0.2,1.3,0.3,2c0.1,0.3,0.1,0.7,0.1,1c0.1,0.5,0.3,1,0.4,1.5
			c0.1,0.3,0.1,0.7,0.1,1.1c0.1,0.7,0.3,1.3,0.4,2c0.2,1,0.3,2,0.5,3c0.2,1.1,0.3,2.2,0.5,3.2c0.1,0.6,0.2,1.1,0.3,1.7
			c0.2,0.9,0.4,1.9,0.5,2.8c0.3,1.5,0.5,3.1,0.8,4.6c0.1,0.9,0.3,1.8,0.5,2.7c0.1,0.9,0.3,1.8,0.4,2.7c0.2,1.2,0.4,2.4,0.6,3.6
			c0.2,0.9,0.3,1.9,0.5,2.8c0.2,0.9,0.3,1.8,0.5,2.7c0.2,1.2,0.4,2.4,0.8,3.6c0.6,2.1,1.9,3.7,4,4.5c0.5,0.2,1,0.3,1.5,0.5
			c-0.3-0.3-0.6-0.4-0.8-0.7c-0.5-0.4-0.9-0.8-1.4-1.2c-0.9-0.7-1.6-1.6-2-2.6c-0.5-1.2-0.7-2.5-0.7-3.8c0-0.2,0.1-0.4,0.2-0.5
			c0.2-0.1,0.4,0,0.5,0.2c0.7,0.8,1.7,1.3,2.7,1.6c1.1,0.3,2.3,0.5,3.4,0.8c2.1,0.6,4.2,0.8,6.4,0.9c1.3,0.1,2.5,0,3.8-0.1
			c0.3,0,0.6,0,1-0.1c1.2-0.2,2.3-0.3,3.5-0.6c1.7-0.3,3.3-0.8,4.9-1.4c1-0.4,2-0.9,3-1.4c0.4-0.2,0.8,0,0.7,0.4
			c0,0.4-0.1,0.8-0.1,1.2c-0.5,2.5-1.8,4.5-3.7,6.1c-0.5,0.4-1.1,0.7-1.7,1.1c0.2,0,0.3-0.1,0.5-0.1c2.3-0.5,3.8-2,4.6-4.2
			c0.7-1.9,1-3.9,1.4-5.8c0.2-1.1,0.4-2.3,0.6-3.4c0.2-1.1,0.4-2.2,0.6-3.3c0.2-1.1,0.4-2.2,0.6-3.4c0.2-1.3,0.5-2.7,0.7-4
			c0.2-1.3,0.4-2.5,0.6-3.8c0.2-1.4,0.5-2.7,0.7-4.1c0.2-0.9,0.3-1.8,0.4-2.7c0.1-0.8,0.3-1.7,0.5-2.5c0.1-0.4,0.1-0.7,0.1-1.1
			c0.1-0.8,0.3-1.7,0.4-2.5c0.1-0.8,0.2-1.5,0.3-2.3c0.1-0.7,0.2-1.4,0.3-2.2c0.1-0.6,0.2-1.3,0.3-1.9
			C149.9,113,150.2,112.2,150.2,111.2z M139.4,151.9c0.4-0.3,0.8-0.6,1.2-1c0.4-0.3,0.4-0.6,0.1-0.9c-0.2-0.2-0.4-0.4-0.6-0.5
			c-1.1-0.8-2.4-1.2-3.7-1.4c-1.2-0.3-2.5-0.5-3.7-0.6c-1-0.1-2-0.2-3-0.3c-0.7,0-1.4,0-2.1,0c-0.6,0-0.6,0-0.6,0.6
			c0,0,0,0.1,0.1,0.2c0.8,0,1.7,0,2.5,0c0.4,0,0.8,0,1.2,0.1c1.1,0.1,2.2,0.3,3.3,0.5c1.3,0.2,2.6,0.6,3.7,1.2
			c0.5,0.3,1,0.5,1.2,1.1C139.2,151,139.2,151.4,139.4,151.9z M115.3,151.9c0-0.2,0-0.4,0-0.6c0-0.4,0.1-0.8,0.5-1.1
			c0.7-0.6,1.5-1,2.4-1.2c1.3-0.4,2.7-0.7,4.1-0.8c1.1-0.1,2.3-0.2,3.4-0.3c0.3,0,0.6-0.1,0.9-0.1c0-0.2,0-0.4,0-0.7
			c-1,0.1-2,0.1-3,0.2c-0.9,0.1-1.7,0.2-2.6,0.3c-1.6,0.2-3.1,0.5-4.5,1.1c-0.8,0.3-1.7,0.6-2.3,1.3c-0.4,0.5-0.4,0.8,0,1.1
			C114.6,151.3,114.9,151.6,115.3,151.9z"/>
		<path class="st1" d="M123.8,107.2c1.3,0,2.6,0,3.9,0c1.2,0,2.5,0,3.7,0.1c0.9,0,1.9,0.1,2.8,0.1c1.1,0.1,2.2,0.2,3.2,0.3
			c2.3,0.2,4.5,0.5,6.7,1.1c0.9,0.2,1.9,0.5,2.7,1c0.2,0.1,0.4,0.2,0.5,0.4c0.4,0.5,0.2,1-0.5,1.4c-0.8,0.5-1.6,0.7-2.5,0.9
			c-0.6,0.2-1.3,0.4-1.9,0.5c-0.8,0.2-1.6,0.3-2.4,0.4c-0.9,0.1-1.8,0.2-2.6,0.3c-0.6,0.1-1.2,0.1-1.8,0.1c-1.3,0.1-2.7,0.1-4.1,0.2
			c-0.4,0-0.8,0.1-1.2,0.1c-1.6,0-3.2,0.1-4.7,0.1c-1,0-2,0-3-0.1c-0.9,0-1.8-0.1-2.7-0.1c-1.2-0.1-2.5-0.2-3.7-0.3
			c-1-0.1-2-0.2-3-0.4c-1.9-0.3-3.9-0.6-5.7-1.4c-0.4-0.2-0.8-0.5-1.1-0.8c-0.4-0.4-0.1-0.9,0.2-1.1c0.8-0.6,1.8-0.9,2.7-1.2
			c1.4-0.3,2.8-0.6,4.2-0.8c1.1-0.2,2.1-0.3,3.2-0.4c1.3-0.1,2.5-0.2,3.8-0.3C121.8,107.4,122.8,107.3,123.8,107.2
			C123.8,107.3,123.8,107.2,123.8,107.2z M132.1,114C132.1,113.9,132.1,113.9,132.1,114c0.4-0.1,0.8-0.1,1.2-0.1
			c0.9,0,1.7-0.1,2.6-0.1c0.3,0,0.6-0.1,0.9-0.1c0.6-0.1,1.2-0.1,1.8-0.2c0.5,0,1-0.1,1.5-0.1c0.6-0.1,1.1-0.2,1.7-0.4
			c1.1-0.3,2.2-0.5,3.3-0.8c0.7-0.2,1.4-0.4,2-0.9c0.4-0.3,0.3-0.6,0-0.9c-0.9-0.6-1.9-0.9-2.9-1.2c-1.4-0.3-2.8-0.5-4.2-0.8
			c-1.1-0.2-2.2-0.3-3.3-0.4c-0.9-0.1-1.8-0.2-2.7-0.2c-1-0.1-2-0.1-3-0.1c-1.1,0-2.2,0-3.3,0c-1.6,0-3.2,0.1-4.9,0.1
			c-0.9,0-1.9,0.1-2.8,0.1c-0.9,0.1-1.8,0.1-2.7,0.2c-1,0.1-2,0.2-3,0.4c-1.4,0.2-2.8,0.5-4.2,0.8c-1,0.2-2,0.5-2.9,1.2
			c-0.4,0.3-0.4,0.6-0.1,0.9c0.5,0.3,0.9,0.6,1.5,0.8c1.4,0.5,2.9,0.9,4.4,1.1c1.3,0.2,2.6,0.4,3.9,0.5c1.1,0.1,2.3,0.2,3.4,0.3
			c1,0.1,1.9,0.1,2.9,0.1c1.1,0,2.2,0.1,3.3,0.1c0.7,0,1.3,0,2-0.1C129.6,114,130.9,114,132.1,114z"/>
	</g>
</g>
</svg>
