<?xml version="1.0" encoding="utf-8"?>
<!-- Generator: Adobe Illustrator 19.1.0, SVG Export Plug-In . SVG Version: 6.00 Build 0)  -->
<svg version="1.1" id="Layer_1" xmlns="http://www.w3.org/2000/svg" xmlns:xlink="http://www.w3.org/1999/xlink" x="0px" y="0px"
	 viewBox="0 0 100 99.4" style="enable-background:new 0 0 100 99.4;" xml:space="preserve">
<style type="text/css">
	.st0{fill:#00BCD4;}
</style>
<g id="bedbug">
	<path class="st0" d="M60.2,15.4c3,2.6,4,7.1,2.4,10.7c-0.5,1.2-1.1,3,0,3.5c0.5,0.2,1.2,0,1.7-0.2c2.5-0.9,5-1.9,7.5-2.8
		c3.7-1.4,5.2-5.6,6.3-9.4c1.1-3.8,2.7-8,6.4-9.3c-3.3,3.5-4.3,8.3-5.9,12.8c-1.6,4.5-4.3,9.2-8.9,10.4c-1.1,0.3-2,1.3-2,2.5
		c-0.1,1.9,1.9,3.4,3.8,3.7c1.9,0.3,3.9,0,5.8,0.3c4.6,0.8,7.6,5.2,10.1,9.2c2.1,3.4,4.1,6.7,6.2,10.1c1.7,2.7,3.6,5.6,6.6,6.4
		c-2.2,1-4.6-0.9-6.1-2.8c-2.9-3.4-5.4-7.1-7.7-11c-1.3-2.2-2.5-4.5-4.5-6.1c-2-1.6-5-2.2-7.1-0.6c0.7,3.8,1.4,7.6,2.2,11.4
		c0.2,1,0.5,2,1.3,2.5c4.6,2.3,6.8,7.7,6.8,12.8c0,5.1-1.7,10-2.9,14.9c-1.2,5-2,10.3-0.3,15.1c-3.2-1.5-3.1-6.1-2.5-9.6
		c0.9-5.1,1.8-10.3,2.7-15.4c0.4-2.4,0.8-4.9,0.2-7.2c-0.7-2.3-2.9-4.4-5.3-4.1c-0.9,6.2-4.3,11.9-8.5,16.6
		C64,84.3,58.9,88,53.8,91.7c-1.1,0.8-2.3,1.6-3.7,1.7c-1.8,0.1-3.4-1-4.8-2c-4.7-3.4-9.4-6.9-13.4-11.1c-4-4.2-7.2-9.4-8.3-15.1
		c-0.4-2.2-4-2.2-5.3-0.4c-1.3,1.9-1,4.4-0.6,6.6c0.9,5.6,1.8,11.2,2.7,16.8c0.6,3.4,0.9,7.4-1.5,9.8c0.9-6.5-0.7-13-2.3-19.3
		c-1-3.9-2-7.9-1.6-11.9c0.4-4,2.4-8.1,6-9.8c2.5-1.2,2.1-4.7,2.1-7.4c0-2.4,0.7-4.7,1.9-6.8c-1.8-1.6-4.8-1.2-6.8,0.3
		c-2,1.5-3.2,3.7-4.4,5.9c-2.3,3.9-4.8,7.6-7.6,11.1c-1.6,2-4.1,4-6.3,2.9c3.9-1.9,6.6-5.6,8.7-9.4c2.1-3.8,3.8-7.9,6.6-11.1
		c2.8-3.3,7.1-5.8,11.3-5.1c2.5,0.4,4.4-2.1,5.7-4.3c-5.8-2.5-10.4-7.9-11.9-14.1c-1-3.9-2.8-7.5-5.3-10.6c2.7,0.9,4.5,3.5,5.5,6.1
		c1,2.7,1.5,5.5,2.8,8c1.3,2.5,3.8,4.7,6.6,4.6c1.1,0,2,0.6,2.9,1.2c0.9,0.6,1.9,1.2,2.9,1.1c1.1-0.1,2-1.3,1.5-2.2
		c-2.2-3.8-1.4-9,1.7-12.1c1.3-1.2,2.9-2.2,3.7-3.8c-4.2-4.3-9.4-7.6-15-9.6c6.2,0.9,12.1,4.2,16,9.2c2-3.3,7-4.3,10.1-2
		c1.4,1.1,3.3-0.2,4.7-1.3c4.5-3.8,9.8-6.5,15.4-8c-2.1,2.5-5.5,3.5-8.4,4.9c-3.4,1.6-6.4,4-8.8,6.8C57.2,13.4,58.9,14.3,60.2,15.4"
		/>
</g>
</svg>
