<?xml version="1.0" encoding="utf-8"?>
<!-- Generator: Adobe Illustrator 19.1.0, SVG Export Plug-In . SVG Version: 6.00 Build 0)  -->
<svg version="1.1" id="Layer_1" xmlns="http://www.w3.org/2000/svg" xmlns:xlink="http://www.w3.org/1999/xlink" x="0px" y="0px"
	 viewBox="0 0 100 75.8" style="enable-background:new 0 0 100 75.8;" xml:space="preserve">
<style type="text/css">
	.st0{fill:#00BCD4;}
</style>
<g id="bee">
	<path class="st0" d="M42.4,21c1-0.8,1.9-1.7,2.9-2.5c-2.5,0.1-4.5-3-3.5-5.4c0.9-2.4,4-3.4,6.4-2.5c0.3-2.4-1.5-4.6-3.5-6
		c-2-1.3-4.4-2.1-6.4-3.5C37.9,1,37.4,0.3,37.8,0c2.6,0.9,5.2,1.8,7.5,3.3c2.3,1.5,4.2,3.8,4.7,6.5c0.5-0.8,1-1.6,1.6-2.4
		c2.9-3.9,7.6-6.4,12.5-6.5c-2.1,1.5-4.4,2.8-6.7,3.9c-1.2,0.6-2.5,1.1-3.4,2c-1,0.9-1.6,2.3-1.1,3.6c2.1-0.8,4.7,0.4,5.4,2.5
		c0.7,2.1-0.5,4.7-2.7,5.3c-0.3,1.4,1.5,2.6,2.9,2.3c1.4-0.3,2.4-1.5,3.2-2.7c1.2-2,2.1-4.2,3.5-6.1c1.4-1.9,3.6-3.5,5.9-3.2
		c-0.3,1-1.4,1.4-2.3,2c-2.1,1.2-3.4,3.4-4.6,5.4c-1.6,2.7-3.1,5.4-4.7,8.1c2.3-0.8,4.4,3.1,6.6,2.1c2.6-1.2,5.3-2.3,8-3.5
		c0.4-0.2,0.8-0.3,1.2-0.2c0.4,0.1,0.7,0.7,0.4,1c-2.7,1.6-5.4,3.2-8,4.9c5.6,3,11,6.2,16.4,9.5c5.3,3.3,10.7,6.9,14.3,12.1
		c1,1.4,1.8,2.9,1.7,4.6c-0.1,1.7-1.4,3.4-3,3.4c-3.9,0-7.9-0.1-11.7-0.9c-3.8-0.9-7.6-2.6-10.2-5.5c-0.4-0.5-1.2,0.1-1.7,0.4
		c-1.2,0.7-2.7-0.2-3.7-1.1c-5.2-4.4-8.5-11-9.1-17.8c-1.4-0.5-3.1,0.2-3.7,1.5c2.9,1,4.2,4.3,5.3,7.2c2.8,7.4,6.6,14.5,11.3,21
		c-2.3,0-4.5-1.4-5.9-3.3c-1.4-1.8-2.3-4.1-3.1-6.3c-1.6-4.3-3.2-8.6-4.8-12.9c-0.6-1.7-1.8-3.7-3.6-3.3c7.9,10.3,7.7,26-0.4,36.2
		c-1.3,1.6-3.1,3.2-5.1,2.7c-0.7-0.2-1.3-0.6-1.9-1c-5.7-4.1-9.6-10.6-10.6-17.6c-1-7,0.9-14.3,5.2-19.9c-2.6,0.1-3.9,3.2-4.8,5.7
		c-2.8,8.2-8,15.6-14.7,21c-0.6,0.3-1.2-0.7-0.9-1.3c0.3-0.6,1-1,1.6-1.4c2.1-1.7,1.9-5.2,4-6.9c3.8-2.9,6.2-7.2,8-11.6
		c0.7-1.7,1.3-3.4,2.4-4.9c1.1-1.5,2.7-2.6,4.5-2.7c-1.2-1.3-2.7-2.3-4.4-2.9c-0.5,7.8-5,15.3-11.7,19.4c-1,0.6-2.3,1.2-3.3,0.6
		c-1.4-0.8-1-2.9-0.4-4.4c-2,2.9-5.1,4.7-8.5,5.8c-3.3,1-6.8,1.3-10.3,1.5c-1.3,0.1-2.6,0.1-3.6-0.6c-1.4-1.1-1.2-3.4-0.5-5.1
		c1.3-3.2,3.8-5.7,6.5-7.9c7.9-6.3,17.8-9.6,26.1-15.3c-1.9-1.4-3.7-2.8-5.6-4.2c1.9-0.7,3.7,1.1,5.5,2c2.3,1.2,5.3,0.8,7.3-0.9
		c-2.4-1.3-3.5-4.1-4.5-6.6c-1-2.5-2.5-5.3-5.1-6c-0.4-0.1-0.9-0.2-1.2-0.5c-0.3-0.3-0.3-1,0.2-1.1c2.9-0.3,5.1,2.3,6.4,4.9
		c1.3,2.6,2.2,5.5,4.6,7.2c0.3,0.2,0.5,0.3,0.9,0.3C41.9,21.5,42.2,21.2,42.4,21 M43.4,23.4c0.5,0.9-0.3,2.2-1.3,2.2
		c-0.2,0-0.3,0.2-0.3,0.4c-0.5,2.6,0,5.4,1.3,7.6c0.3,0.5,0.7,1.1,1.3,1.4c0.8,0.4,1.7,0.4,2.5,0.3c1.9-0.1,3.8-0.2,5.6-0.3
		c0.7,0,1.3-0.1,1.9-0.4c0.4-0.3,0.8-0.7,1.1-1.1c1.1-1.7,2-3.5,2.5-5.5c0.1-0.6,0.2-1.3-0.3-1.6c-1.1-0.8-1.1-2.6-0.1-3.4
		c-1-0.8-1.6-2.1-2.7-2.9c-1-0.8-2.3-1.1-3.6-1.2C48,18.6,44,20,42.3,23.1C42.6,23.4,43,23.5,43.4,23.4 M58.9,58.8
		c-2.6-0.3-5.3-0.6-7.9-1c-1.1-0.1-2.2-0.3-3.3-0.3c-2.7,0-5.4,0.9-7.6,2.4c0.6,2.7,1.8,5.4,3.4,7.6c0.3,0.5,0.9,1,1.4,0.8
		c3.6-1.1,7.5-0.7,11.2-0.4c0.5,0,1,0.1,1.4-0.1c0.5-0.3,0.8-0.9,1-1.5c0.5-1.5,1-3,1.4-4.5c0.2-0.6,0.3-1.2,0.2-1.8
		C59.9,59.4,59.5,58.8,58.9,58.8 M57.2,40.9c-0.4-0.3-1-0.4-1.5-0.5c-4.3-0.5-8.6-0.1-12.8,1.1c-1.3,0.4-1.9,1.7-2.4,3
		c-0.4,1.1-0.9,2.2-1.3,3.2c-0.1,0.3-0.3,0.7-0.2,1c0.1,0.3,0.4,0.7,0.7,0.6c6.7-2,13.9-2,20.6,0c0.1-2.7-1.2-5.2-2.4-7.5
		C57.7,41.5,57.5,41.1,57.2,40.9 M85.7,55.4c-0.6-0.7-1.1-1.6-1.2-2.5c-0.3-2.1-1.9-3.7-3.7-4.9c-1.7-1.2-3.6-2.2-5-3.8
		c-0.4,1-1.8,1.6-1.7,2.7c0.2,1.5,1,2.8,2,3.9c1,1,2.3,1.8,3.6,2.6C81.7,54.3,83.7,55.2,85.7,55.4 M83.5,44c-0.6-0.5-1.3-0.9-2.1-1
		c-1.3-0.3-2.6,0.2-3.8-0.3c-0.4,0.3-0.9,0.7-1.3,1c1.4,1.2,2.8,2.2,4.4,3.2c1.2,0.8,2.5,1.5,3.4,2.7c0.6,0.9,1.9,0.9,2.9,0.8
		c0.2,0,0.3,0,0.4-0.1c0.3-0.2,0.2-0.7,0.1-1.1c-0.3-0.7-0.5-1.4-0.9-2.1C85.9,45.8,84.7,44.9,83.5,44 M47.3,14.1
		c-0.6,0.3-0.6,1.2-0.6,1.9c0,0.7-0.1,1.3-0.3,2c2.2,0,4.4,0,6.6,0c0.2,0,0.5,0,0.7-0.2c0.2-0.2,0.2-0.4,0.2-0.7
		c0.1-1,0.1-2.1-0.5-2.9c-0.3-0.4-0.7-0.7-1.1-1.1s-0.7-0.8-0.7-1.3c0-0.2-0.2-0.3-0.4-0.4c-1.2-0.4-2.7,0.3-3.2,1.5
		C48,13.3,47.7,13.8,47.3,14.1 M98.7,53.9c-0.1-0.7-0.3-1.4-0.6-2c-0.4-0.1-0.7-0.1-1.1-0.1c0-0.2,0.1-0.4,0.2-0.5
		c-0.1-0.5-0.8-0.7-1.3-0.8c-0.4-0.1-0.9-0.3-1.3-0.4c-0.4-0.1-0.7-0.2-1.1-0.4c-1.1-0.3-2.2-0.7-3.2-1.3c0.3,0.6,0.6,1.3,0.9,1.9
		c0.2,0.4,0.4,0.9,0.4,1.4c-0.1,0.7,0.3,1.3,0.7,1.9c0.5,0.7,1,1.5,1.5,2.2c0.1,0.1,0.2,0.3,0.3,0.4c0.2,0.1,0.3,0.1,0.5,0.1
		c1.3,0.1,2.6,0.2,3.8-0.4c0.1-0.4,0.1-0.9,0.2-1.3c-0.1,0-0.1-0.2-0.1-0.3C98.7,54.2,98.7,54,98.7,53.9 M23.8,45.7
		c0.1-0.2,0.3-0.3,0.4-0.5c-0.5-0.5-1-1-1.4-1.4c-0.1-0.1-0.2-0.2-0.3-0.3c-0.4-0.1-0.7,0.1-1,0.4c-1.7,1.5-3.4,3.1-5.1,4.6
		c-0.3,0.2-0.5,0.5-0.7,0.8c-0.6,0.8-0.6,1.8-0.7,2.8c0,0.1,0,0.3,0.1,0.3c0.1,0.1,0.3,0.1,0.4,0.1c2-0.4,3.8-1.6,5-3.3
		c0.5-0.8,1.3-1.5,2-2.1C22.9,46.6,23.4,46.2,23.8,45.7 M5.1,53.9c0.2,0,0.4,0,0.6-0.1c0.2-0.1,0.3-0.2,0.4-0.4
		c0.8-1,1.7-2.2,1.5-3.4c0-0.2-0.1-0.4-0.1-0.6c-0.1-0.7,0.4-1.4,0.7-2.1c0.4-0.9,0.7-1.8,0.7-2.8c-1.3,1.5-2.6,2.9-4,4.3
		c-0.6,0.6-1.5,0.9-2.3,1c-0.7,0-1.2,0.9-1.3,1.6c-0.1,0.9,0,1.9,0.7,2.4c0.5,0.3,1.2,0.3,1.8,0.3C4.3,54,4.7,54,5.1,53.9
		 M14.3,44.2c-0.3,0.3-0.6,0.5-0.9,0.8c-0.8,0.8-1.6,1.7-2.1,2.7c-0.1,0,0,0.2,0.1,0.3c1.8,0.7,3.9,0.2,5.2-1.2
		c1.5-1.6,3.1-3.3,5.1-4.3c-0.5,0.1-0.6-0.6-1-1c-0.3-0.3-0.7-0.3-1.1-0.3c-0.9,0-1.8,0.3-2.6,0.8c-0.4,0.2-0.7,0.5-1.1,0.8
		C15.4,43.3,14.9,43.7,14.3,44.2 M77.1,41.3c-0.2,0-0.2-0.3-0.2-0.5c0-0.9-0.7-1.7-1.4-2.4c-0.3-0.3-0.7-0.7-1-1
		c-0.6-0.6-1.1-1.1-1.7-1.7c-0.2-0.2-0.5-0.4-0.8-0.4c-0.1,0-0.3,0.1-0.4,0.2c-0.2,0.2-0.4,0.4-0.5,0.7c-0.1,0.3,0.1,0.6,0.2,1
		c0.8,1.9,1.6,3.8,2.4,5.8c0.3,0.6,0.4,1.3,0.4,2c0.8-0.6,1-2,1.9-2.4C76.5,42.2,76.9,41.8,77.1,41.3 M83.6,39.8
		c1.6,1.1,3.1,2.2,4.5,3.4c0.8,0.7,1.7,1.7,1.3,2.6c-0.2,0.5,0,1,0.4,1.4c0.4,0.3,0.9,0.5,1.4,0.6c1.9,0.6,3.9,1.2,5.8,1.8
		c-1.3-1.6-2.9-3-4.4-4.3c-0.9-0.7-1.7-1.4-2.6-2.1c-1.9-1.5-3.9-2.9-6.1-4.2C83.7,39.3,83.6,39.5,83.6,39.8 M93.3,55.9
		c-0.5-0.1-1-0.3-1.3-0.7c-0.1-0.1-0.2-0.3-0.3-0.4c-0.6-0.9-1.2-1.8-1.8-2.8c-0.4-0.6-1.1-0.6-1.8-0.6c-0.6,0-1.2,0-1.7,0
		c-0.4,0-0.9,0-1.3-0.2c0.1,0.3,0.1,0.5,0.2,0.8c0.1,0.5,0.3,1.1,0.4,1.6c0.2,0.7,0.4,1.5,0.8,2.1c0.7,0.1,1.4,0.2,2.2,0.3
		c1.5,0.2,3,0.2,4.5,0.2C93.3,56.1,93.3,56,93.3,55.9 M25.2,44.1c-0.2-0.5-0.3-1-0.4-1.5c0-0.4,0-0.9,0.1-1.3c0.1-1,0.2-2,0.6-3
		c0.5-1.3,1.3-2.3,2.3-3.3c-0.6,0-1.1-0.1-1.7-0.1c-0.2,0-0.4,0-0.5,0.1C24.8,36,23.9,37,23,37.9c-0.6,0.7-1.3,1.4-1.3,2.3
		c0,0.6,0.2,1.2,0.7,1.5c0.3,0.1,0.6,0.4,0.9,0.7c0.5,0.6,1.1,1.1,1.6,1.7C25,44.2,25.1,44.1,25.2,44.1 M28.2,45.1
		c0.1-0.2,0.2-0.5,0.2-0.8c0.1-1.2,0-2.5-0.1-3.7c-0.1,0.3-0.2,0.5-0.3,0.8c-0.3,0.7-0.6,1.4-1,2.1c-0.3,0.4-0.6,0.9-0.8,1.3
		c-1,1.6-1.7,3.5-1.9,5.4c0,0.4,0,0.9,0.3,1.1c0.3,0.1,0.6,0,0.9-0.2c0.3-0.2,0.6-0.3,0.9-0.5c0.4-0.2,0.9-0.6,0.9-1
		C27.1,48,27.4,46.5,28.2,45.1 M62.7,28.1c1.2,1.5,2.3,3.1,3.3,4.7c0.6,0.9,1.2,1.9,1.7,2.9c1.8,3,3.6,6.1,5.4,9.1
		c0-0.7-0.2-1.4-0.5-2c-0.3-1-0.7-2-1.1-3C69.7,35.1,66.6,31.1,62.7,28.1 M9.7,49.9c-0.5,0.7-0.9,1.5-1.2,2.4
		c-0.1,0.1-0.3,0.2-0.4,0.3c0,0.3-0.1,0.7-0.3,0.9c1.1-0.1,2.1-0.3,3.2-0.4c0.7-0.1,1.4-0.2,2-0.3c0.2-0.1,0.4-0.1,0.6-0.3
		c0.1-0.2,0.3-0.4,0.3-0.6c0-0.2-0.2-0.5-0.4-0.4c0.3-0.7,0.5-1.4,0.7-2.1c-1.1,0-2.1,0-3.2,0c-0.2,0-0.5,0-0.7,0.1
		C10,49.5,9.8,49.7,9.7,49.9 M32,43c0.1,0.6,0.4,1.3,1,1.5c0.9-0.9,1.7-1.9,2.3-3c-0.6-0.6-0.3-1.7-0.8-2.4
		c-0.5-0.6-0.1-1.7-0.7-2.2c-0.6,1.4-1.2,2.8-1.8,4.1c-0.1,0.1-0.2,0.3-0.3,0.3c-0.4,0.2-0.2,0.9,0.2,1C31.9,42.5,31.9,42.7,32,43
		 M61.7,33.1c0,0.6,0,1.2,0,1.7c0.1,1,0.2,2,0.5,2.9c0.1,0.4,0.3,0.7,0.6,1.1c0.2-0.8,0.5-1.7,0.6-2.5c0-0.6,0-1.2-0.1-1.8
		c-0.1-0.7,0.1-1.4,0.2-2.1c0.1-0.7,0.1-1.5-0.5-2c-0.8-0.8-1.4-1.6-1.9-2.6c-0.4,0.1-0.6,0.6-0.4,1c0.6,1.2,0.9,2.5,1,3.8
		C61.7,32.8,61.7,32.9,61.7,33.1 M3.2,48.3c0.9-0.4,1.6-1.1,2.3-1.8c2.1-2.1,4.1-4.3,6.7-6c1.3-0.8,2.7-1.5,3.5-2.7
		c-4.9,2.4-9.4,5.8-13,10C2.9,47.9,3.1,48,3.2,48.3 M35.9,40.4c0.1-0.2,0.2-0.3,0.3-0.5c0.7-3.5,1.4-7,2.1-10.4
		c0.1-0.3,0.1-0.7,0.2-1c-1.3,1-1.3,2.8-2,4.3c-0.3,0.7-0.8,1.4-1.2,2.1c-0.3,0.7-0.5,1.6-0.2,2.4C35.5,38.2,35.8,39.3,35.9,40.4
		 M25.8,43.2c2.9-6.1,6.8-11.7,11.6-16.5c0.2-0.2,0-0.6-0.2-0.9c-1.7,3.1-4.5,5.4-6.9,8.1C27.9,36.5,25.7,39.7,25.8,43.2 M66.1,43.8
		c0.2-0.6,0.5-1.3,0.9-1.8c0.1-0.5-0.1-0.9-0.3-1.4c-0.2-0.4-0.3-0.8-0.5-1.2c-0.5-1.2-1.2-2.3-2-3.4c0,0.6,0,1.3-0.1,1.9
		c-0.1,0.6-0.3,1.2-0.3,1.8c0,1.2,0.7,2.2,1.4,3.2C65.4,43.3,65.7,43.7,66.1,43.8 M71.1,43.4c-0.4-0.5-0.7-1-0.9-1.6
		C70,41.9,70,42.1,70,42.2c0.1,0.1,0.2,0.3,0.2,0.4c0,0.2,0,0.3-0.1,0.5c-0.1,0.2-0.2,0.5-0.3,0.7c0.1,0.2,0.1,0.4,0.2,0.6
		c0.3,1,0.6,2,0.7,3c0.1,0.6,0.1,1.2,0.1,1.8c-0.1,0.7,0.4,1.3,1,1.5c0.3,0.1,0.8-0.1,0.8-0.4c0-0.1,0.1-0.3,0.2-0.4
		c0-0.1-0.1-0.4-0.2-0.3c0.1-0.1,0.2-0.3,0.3-0.5c0.1-0.4,0-0.8-0.2-1.2c-0.1-0.4-0.3-0.9-0.4-1.3c-0.3-0.8-0.5-1.7-1-2.4
		C71.2,43.9,71,43.6,71.1,43.4 M33.5,33.9c0-0.4-0.2-0.8-0.2-1.2c-0.3,0.8-0.7,1.6-1.2,2.4c-0.5,0.7-1,1.3-1.5,2
		c-0.6,0.8-1.2,1.8-1.3,2.8c0,0.5,0.1,1.1,0.4,1.5c0.1,0.1,0.4,0.1,0.6,0c0.2-0.1,0.3-0.3,0.3-0.5c0.3-0.6,0.6-1.3,1-1.9
		c0.3-0.5,0.5-1,0.8-1.5c0.3-0.5,0.5-1,0.7-1.6C33.3,35.3,33.5,34.6,33.5,33.9 M64.3,33.2c0.1,0.2,0.1,0.5,0.1,0.8
		c0.1,1,0.8,1.9,1.3,2.7c0.9,1.3,1.6,2.8,2,4.3c0.1,0.3,0.3,0.6,0.5,0.9c0.3,0.4,0.7,0.8,1,1.3c0.3-0.4-0.3-1.1-0.1-1.5
		c0.2-0.4,0-0.8-0.2-1.2c-1.3-2.4-2.6-4.9-4-7.2c-0.2-0.3-0.3-0.5-0.6-0.7C64.4,32.8,64.4,33,64.3,33.2 M78.3,41.7
		c0.9,0,1.8,0,2.6,0c0.2-0.1,0.1-0.3,0-0.5c-0.4-0.5-0.8-1-1.2-1.5c-0.9-0.9-1.6-2-2.1-3.1c-0.1-0.2-0.3-0.3-0.5-0.3
		c-1-0.2-2-0.4-3-0.6c1.3,1.1,2.6,2.2,3.7,3.5c0.3,0.7,0.4,1.5,0.5,2.2C78.3,41.5,78.3,41.6,78.3,41.7 M70.1,34.7
		c0.5,0.1,1-0.1,1.2-0.6c-1.3-2-3.2-3.6-5.1-5.1c-1.6-1.3-3.2-2.5-4.9-3.6c-0.2,0.3-0.1,0.7,0.1,0.9c0.2,0.3,0.5,0.4,0.8,0.6
		c2.8,1.7,5.3,3.9,7.1,6.6C69.6,34,69.8,34.4,70.1,34.7 M74.5,33.3c-0.8-0.5-1.6-1-2.4-1.4c-0.6-0.3-1.1-0.7-1.7-1
		c-0.3-0.2-0.7-0.4-1-0.4c-0.1,0.2,0.1,0.3,0.2,0.5c0.4,0.4,0.8,0.7,1.2,1.1c0.6,0.6,1.3,1.3,1.5,2.2c0.7,0.1,1.4,0.4,2.1,0.6
		c0.6,0.2,1.1,0.3,1.7,0.4c0.8,0.1,1.6,0.3,2.4,0.4c-0.1-0.4-0.6-0.6-1.1-0.8c-0.6-0.2-1.3-0.6-1.9-1C75.2,33.8,74.8,33.5,74.5,33.3
		 M18.5,39.9c0.6,0.4,1.4,0.4,2,0c0.3-0.2,0.3-0.7,0.4-1c0.1-0.3,0.3-0.6,0.5-0.9c0.9-1.1,1.9-2.1,2.9-3c-0.4,0-0.9,0-1.3,0
		c-0.3,0-0.6,0-0.7,0.2c-0.4,0.4-0.8,0.7-1.2,1.1c-0.5,0.5-1.1,1-1.5,1.5c-0.4,0.6-0.6,1.3-0.6,2C18.9,39.8,18.7,39.9,18.5,39.9
		 M69.4,45.6c-0.2-0.5-0.4-1-0.6-1.4c-0.3-0.6-0.6-1.1-0.9-1.7c-0.2,0.3-0.4,0.7-0.7,1c-0.2,0.3-0.4,0.7-0.5,1.1
		c-0.1,0.4,0.1,0.9,0.5,1c0.4,0.8,0.9,1.6,1.5,2.4c0.3,0.4,0.7,0.9,1.2,1.2c0-0.2,0-0.5,0-0.7c0-0.4-0.1-0.8-0.1-1.3
		C69.6,46.7,69.6,46.2,69.4,45.6 M88.5,46.3c0-0.3,0.1-0.7,0-1c-0.1-0.4-0.4-0.7-0.6-1c-0.3-0.3-0.6-0.6-0.8-1
		c-0.1-0.1-0.3-0.2-0.4-0.3c-0.1,0.8-0.1,1.6,0,2.3c1,1.3,1.7,2.9,2,4.5c0,0.2,0.2,0.3,0.4,0.4c0.5,0.3,1,0.6,1.6,0.9
		c0-0.4-0.1-0.7-0.4-0.9c-0.3-1-0.7-1.9-1.2-2.7C88.7,47.2,88.5,46.8,88.5,46.3 M28.4,49.1c1.1-1.1,2.3-2.2,3.4-3.2
		c0-0.1,0-0.2,0-0.3c-0.3,0-0.5-0.4-0.6-0.7c-0.1-0.4-0.2-0.8-0.3-1.3c-0.1-0.3-0.2-0.7-0.5-0.7c-0.2,0-0.4,0.1-0.6,0.3
		c-0.1,0.2-0.2,0.4-0.2,0.6c-0.2,0.8-0.4,1.6-0.7,2.4c-0.3,1-0.6,2-1,2.9C28.1,49.3,28.3,49.2,28.4,49.1 M34.7,27.5
		c-0.4,0.1-0.8,0.3-1.1,0.6c-1.9,1.3-3.7,2.9-5.3,4.6c-0.3,0.3-0.5,0.6-0.4,1c0.1,0.2,0.5,0.3,0.7,0.3c0.3-0.1,0.5-0.3,0.7-0.5
		c2-1.9,3.9-3.8,5.7-5.9C34.9,27.5,34.8,27.5,34.7,27.5 M9.9,43.8c0.1,0.2,0.2,0.4,0.3,0.6c0.1,0.1,0.1,0.3,0.1,0.4
		c-0.3,0.5-0.5,1-0.5,1.5c-0.1,0.7-0.3,1.5-0.8,2.1C9.1,48.6,9,48.8,9,49c0.4-0.3,0.8-0.7,1-1.2c0.5-1.1,1.1-2.2,1.9-3.1
		c0.3-0.2,0.5-0.4,0.7-0.5c0-0.9,0-1.8,0-2.6c-0.6,0.4-1.2,0.8-1.7,1.2C10.6,43.1,10.3,43.5,9.9,43.8 M85.9,44.7
		c0.1-0.6,0-1.1-0.1-1.7c0-0.1-0.1-0.3-0.1-0.4c-0.1-0.1-0.2-0.2-0.3-0.3c-0.7-0.6-1.4-1.2-2.1-1.8c-0.2-0.2-0.4-0.3-0.6-0.5
		c-0.3-0.2-0.7-0.2-1.1-0.2c-0.1,0-0.2,0.2-0.2,0.3c0,0.1,0.1,0.3,0.2,0.4c0.2,0.3,0.2,0.7,0.3,1.1c0.1,0.4,0.3,0.7,0.7,0.8
		c0.5,0,0.9,0.4,1.3,0.7C84.6,43.7,85.2,44.2,85.9,44.7 M65.1,51.7c-0.1,0.4,0.1,0.9,0.2,1.3c0.7,2,1.6,3.8,2.9,5.5
		c0.3,0.4,0.6,0.7,1,1c0.1,0.1,0.3,0,0.3-0.2c0-0.1,0-0.3-0.1-0.4c-0.4-0.8-0.7-1.7-1.1-2.5c-0.1-0.2-0.1-0.3-0.2-0.5
		c-0.3-0.6-0.7-1.2-1.2-1.8C66.3,53.3,65.7,52.5,65.1,51.7 M15,40c-0.3,0.2-0.6,0.4-0.8,0.5c-0.4,0.6-0.5,1.4-0.4,2.2
		c0.1,0.1,0.3,0,0.4,0c0.7-0.6,1.5-1.1,2.2-1.7c0.4-0.3,0.8-0.6,1-1c0.1-0.3,0.2-0.6,0.5-0.7c0-0.1,0-0.3,0-0.4
		C16.8,38.6,15.6,39.1,15,40 M32.4,52.4c0.6-0.5,1-1.1,1.4-1.8c2.1-3.5,3.8-7.1,5.1-10.9c-0.7,0.5-1,1.4-1.3,2.2
		c-1.1,3-2.6,5.9-4.5,8.5C32.8,50.9,32.3,51.6,32.4,52.4 M31.4,54.1c0.2-0.3,0.4-0.5,0.5-0.7c-0.6,0.1-1.1,0.4-1.5,0.9
		c0,0.1-0.1,0.1-0.2,0.2c-0.2,0-0.4,0.2-0.5,0.4c-0.5,0.6-1,1.3-1.5,1.9c-0.3,0.1-0.5,0.4-0.6,0.7c-0.3,0.8-0.7,1.6-1,2.5
		c0.1,0.1,0.3,0,0.5-0.1c0.7-0.6,1.3-1.4,1.7-2.2c0-0.1,0.1-0.1,0.2-0.1C29.8,56.4,30.6,55.2,31.4,54.1 M50.5,37.1
		c0.5-0.3,1.1-0.4,1.7-0.5c0-0.1,0-0.2,0-0.3c-2,0-4.1,0-6.1,0.1c0,0.2,0.1,0.3,0.2,0.4c0.7,0.6,1.5,1.3,2.4,1.2
		C49.4,37.9,49.9,37.4,50.5,37.1 M80.4,37c-0.5-0.3-1.2-0.6-1.8-0.3c0.6,1,1.4,1.9,2.3,2.6c0.5-0.2,1-0.2,1.6-0.2
		c0.3,0,0.6,0,0.7-0.1c0.2-0.2,0.1-0.6-0.2-0.6c-0.4,0.1-0.9-0.2-1.3-0.5C81.4,37.6,80.9,37.3,80.4,37 M27.3,31.3
		c-1.1,0.7-2.3,1.3-3.6,1.9c-0.2,0.1-0.3,0.1-0.5,0.1c0,0.1,0,0.2,0,0.3c0.9,0,1.8-0.1,2.6-0.2c0.4-0.1,0.9-0.2,1-0.6
		c0.1-0.4,0.4-0.6,0.8-0.9c0.7-0.6,1.4-1.2,2.1-1.8c-0.1-0.1-0.2-0.1-0.3-0.1C28.7,30.4,28,30.9,27.3,31.3 M37.8,27.9
		c0.2,0.1,0.5-0.2,0.5-0.5c0.1-0.3,0.1-0.6,0.4-0.6c-0.2-0.1-0.4,0.1-0.6,0.3c-0.3,0.3-0.5,0.7-0.8,1c-0.1,0-0.1,0.1-0.2,0.1
		c-0.8,0.8-1.5,1.7-2,2.7c-0.2,0.3-0.3,0.6-0.4,0.9c-0.3,0.8-0.4,1.7-0.2,2.6c0.1-0.1,0.2-0.2,0.3-0.4c0.4-1,0.8-1.9,1.2-2.9
		c0.1-0.2,0.2-0.4,0.2-0.7c0-0.3,0.2-0.5,0.3-0.8c0.2-0.3,0.5-0.7,0.7-1C37.5,28.5,37.7,28.2,37.8,27.9 M65.2,50.9
		c0.1-0.1,0.1-0.1,0.2-0.2c-0.2-0.2-0.3-0.4-0.5-0.5c-0.2-0.6-0.4-1.2-0.7-1.9c-0.2-0.5-0.3-1-0.6-1.5c-0.2-0.5-0.4-0.9-0.6-1.4
		c-0.6-1.2-1.1-2.4-1.7-3.6c0,0.4,0.1,0.8,0.3,1.2c0.3,0.7,0.5,1.3,0.8,2c0.2,0.6,0.4,1.1,0.7,1.7c0.2,0.6,0.5,1.2,0.7,1.8
		c0.2,0.5,0.4,1.1,0.6,1.6c0.1,0.2,0.2,0.4,0.3,0.6C64.8,51,65,51,65.2,50.9 M39.8,28c0,0.4-0.1,0.9-0.2,1.3c-0.2,0.6,0,1.2,0.4,1.7
		c0.3,0.3,0.8,0.5,1.2,0.3c-0.5-0.3-0.6-1-0.6-1.6c0-0.6,0.1-1.2,0-1.8c-0.2,0-0.3-0.2-0.3-0.4C40.1,27.7,39.9,27.8,39.8,28
		 M59.2,27.8c-0.5,0.4,0,1.4-0.5,1.8c-0.3,0.2-0.2,0.7,0,1c0.3,0.3,0.6,0.4,1,0.5c0.1,0,0.2,0.1,0.3,0c0.1,0,0.2-0.2,0.3-0.1
		c-0.3-1-0.7-2-1-3C59.3,27.9,59.3,27.8,59.2,27.8 M67.5,27c0.9-0.5,1.7-0.9,2.6-1.4c0.4-0.2,0.8-0.4,1.1-0.8
		c-0.5-0.1-1,0.2-1.5,0.4c-1.1,0.5-2.1,1.1-3.2,1.6C66.7,27.1,67.2,27.2,67.5,27 M19.7,36.1c0.4-0.3,0.8-0.6,1.1-1
		c0-0.1-0.2-0.1-0.2,0c-1,0.6-2.1,1.2-3.1,1.7c-0.2,0.1-0.3,0.2-0.4,0.4c-0.1,0.2,0,0.4,0.2,0.5c0.1-0.3,0.5-0.1,0.8-0.2
		c0.2,0,0.4-0.1,0.5-0.3C18.9,36.9,19.3,36.5,19.7,36.1 M39.5,25.8c0.1,0,0.2,0.1,0.2,0.2c0.5-0.1,0.9-0.4,1-0.9
		c0.6,0.2,1.4,0,1.9-0.5c0-0.1,0-0.2,0-0.4c-0.2-0.2-0.4,0-0.6,0.2c-0.5,0.3-1.1,0.5-1.6,0.4C40.2,25.2,39.9,25.6,39.5,25.8
		 M57.9,32.1c0.5,0.1,1,0,1.4-0.2c0-0.1,0-0.2,0-0.3c-0.4-0.1-0.7-0.2-1.1-0.4C58.1,31.6,58,31.8,57.9,32.1 M41.7,32.5
		c-0.3-0.2-0.7-0.4-1-0.6c-0.2,0.2-0.2,0.5-0.1,0.7C41,32.6,41.4,32.6,41.7,32.5 M38.9,25.2c-0.4-0.1-0.8-0.1-1.2,0.2
		c0,0.1,0,0.2,0,0.3C38.2,25.7,38.6,25.5,38.9,25.2 M33.3,25.4c0.1,0.2,0.2,0.4,0.3,0.7c0.3,0.1,0.6-0.1,0.8-0.2
		C34.1,25.6,33.7,25.4,33.3,25.4"/>
</g>
</svg>
