<?xml version="1.0" encoding="utf-8"?>
<!-- Generator: Adobe Illustrator 19.1.0, SVG Export Plug-In . SVG Version: 6.00 Build 0)  -->
<svg version="1.1" id="Layer_1" xmlns="http://www.w3.org/2000/svg" xmlns:xlink="http://www.w3.org/1999/xlink" x="0px" y="0px"
	 viewBox="0 0 100 104" style="enable-background:new 0 0 100 104;" xml:space="preserve">
<style type="text/css">
	.st0{fill:#00BCD4;}
</style>
<g id="blackfly">
	<path class="st0" d="M0,66.1c0.4-0.6,0.8-1.3,1.2-1.9c4.2,3.5,10.4,4.5,15.5,2.5c4.5-1.8,8.7-5.7,13.4-4.4c1.4,0.4,2.9-0.5,3.8-1.7
		c0.8-1.2,1.1-2.7,1.4-4.1c-2.7-1.5-4.4-4.5-5.4-7.4c-1-3-1.5-6.1-2.5-9.1c-1.8-5-5.2-9.3-9.6-12.2c0.4-0.3,0.9-0.6,1.3-0.8
		c2.7,4.9,8.9,7.5,10.7,12.8c0.9,2.5,0.7,5.2,1.1,7.8c0.5,2.6,2,5.4,4.6,5.8c-0.7-8.8-1.4-17.5-2-26.3c-0.3-4-0.6-8.1,0-12.1
		s2.4-8,5.5-10.6c0.6-0.5,1.3-1,2-1c1.3-0.2,2.5,0.8,3.4,1.7c3.6,3.7,6.1,8.5,7.2,13.6c2.6-1,2.9-4.5,2.7-7.3C54,7.5,53.5,3.8,53,0
		c0.4,0.7,1.6,0.9,2.1,0.3C53.9,3.5,55,7,55.6,10.4c0.6,3.4,0.5,7.5-2.3,9.5c-0.7,0.6-0.8,1.6-0.7,2.6c0.2,3.1,0.5,6.3-0.3,9.3
		c-0.8,3-3.2,5.8-6.3,6.2c0.5-2.6,0.9-5.3,1.4-7.9c-1.5,4.5-3,9-4.4,13.4c0.9-3.3,4-5.9,7.4-6.3c-2.1,3-4.2,6-6.3,9
		c5.9-4.9,9.4-12.5,9.4-20.2c0-0.9,0.9-1.4,1.7-1.8c3.7-1.6,7.8-2.4,11.9-2.3c0.8,0,1.6,0.1,2.3,0.6c0.7,0.4,1.1,1.2,1.4,1.9
		c1.8,3.6,2.7,7.6,2.9,11.7c0,1.5,2.2,2,3.4,1.2c1.2-0.8,1.8-2.3,2.3-3.6c0.6-1.4,1.4-2.8,2.8-3.2c4.7-1.2,9.2-3,13.5-5.4
		c-0.4,0.7,0.4,1.6,1.1,1.4C93,28,89.3,29.4,85.6,31c-2.5,1.1-5.4,2.9-5,5.6c4.6-1,9.4-1.1,14-0.3c2.6,0.5,5.7,2,5.5,4.6
		c-0.1,1.2-0.8,2.2-1.6,3.1c-2.8,3.5-5.6,7.1-9.5,9.4c-2.4,1.4-5,2.3-7.6,3.1c-8.3,2.9-16.3,6.2-24.2,10.2c1.7,1.9,4.7,1.9,7.1,1.2
		c2.4-0.7,4.7-2.1,7.2-2.4c5.7-0.8,10.8,3.7,16.5,4c-0.1,0.5-0.1,1-0.2,1.5c-5-2.8-10.9-3.8-16.5-2.9c-4.9,0.8-10.1,3-14.6,0.9
		c-1.9-0.9-4.3-0.2-5.5,1.4c-1.2,1.7-1.1,4.2,0.3,5.7c3.5,3.8,0.8,10,1.7,15.1c0.9,5,5.3,8.6,9.4,11.7c-0.4,0.3-0.9,0.7-1.3,1
		c-2.2-3-4.8-5.7-7.7-8.1c-2.3-1.8-2.4-5.2-2-8.1c0.4-2.9,1.1-6-0.1-8.6c-0.6-1.3-1.7-2.4-3.1-2.8c-1.4-0.4-3,0.2-3.7,1.4
		c0.8,2-0.9,4.2-3,4.8c-2,0.6-4.2-0.1-6.3-0.7c0.5,1.6,0.5,3.4-0.1,4.9c0.3-2-0.6-4.2-2.3-5.3c-1.7-1.1-4-1.2-5.8-0.2
		c1.1-1.2,2.7-1.9,4.2-1.9c-1.5-1.6-3.2-3.3-3.6-5.4c-0.4-2.2,1-4.8,3.2-4.8c1.4-2.5-1.8-5.5-4.7-5.3c-2.9,0.2-5.2,2.2-7.6,3.8
		c-2.4,1.6-5.5,2.9-8,1.6C7.3,67.6,3.7,66.5,0,66.1 M74.5,50.6c-0.2,0.5,0.3,1.1,0.9,1.1s1.1-0.2,1.6-0.5c2.2-1,4.7-1.5,7-2.2
		C87.8,48,91.3,46,94.7,44c1.2-0.7,2.5-1.4,3.7-2.1c0.2-0.1,0.4-0.2,0.4-0.4c0.1-0.2-0.1-0.4-0.3-0.4c-2,0.5-4.1,1-6.2,1
		c-2.1,0-4.2-0.4-5.9-1.6c-0.4-0.3-0.9,0.1-1.2,0.5C82.3,44.8,78.6,48.1,74.5,50.6 M39.7,30.3c0.6,0.3,1.3,0.4,1.9,0.4
		c0.5-5.3,2-10.6,4.3-15.4c-2.2-0.4-3.8-2.3-4.7-4.3c-0.9-2-1.3-4.2-2-6.3c-0.6,4.2-0.8,8.6-0.7,12.8c0,0.9,0.1,1.9,0.3,2.8
		c0.2,0.9,0.5,1.7,0.7,2.6C40.1,25.2,40.2,27.8,39.7,30.3 M51,19c-1.5-4.8-3.1-9.7-6.7-13.2c-1.2-1.2-3-2.2-4.6-1.5
		c1,1.8,1.1,3.9,1.9,5.8c1,2.3,3,4.1,5.3,4.9c-0.8,1.1-1.4,2.3-1.8,3.6c-0.1,0.3,0.1,0.6,0.3,0.9c0.7,1,1.3,2,2,3
		C48.8,21.6,50,20.4,51,19 M72,43.5c-0.1,0.2-0.2,0.5-0.1,0.7c0.1,0.2,0.4,0.3,0.5,0.2c1.1-2,2.2-4,3.2-6c-0.7,0.3-1.5,0.3-2.2-0.1
		c-0.3-0.1-0.6-0.1-1,0c-4.4,1-8.1,4.1-10.9,7.7c-1.9,2.5-3.6,5.5-3.3,8.7c0,0.3-0.3,0.4-0.6,0.4c-2,0.4-3.5,2.4-3.4,4.4
		c1.4-1,2.6-2.3,3.7-3.6c0.2-0.2,0.6,0,0.6,0.3c0,0.3-0.2,0.6-0.5,0.8c-1.3,1.3-2.7,2.5-4,3.7c0.1,0.5,0.9,0.4,1.3,0.2
		c2.9-1.5,5.8-3,8.7-4.4c0.3-0.1,0.6-0.5,0.5-0.8c-1.8,0.8-3.8,0.9-5.6,0.3c4.4-2.5,8.5-5.7,12.1-9.3c0.3-0.3,0.6-0.7,0.4-1.1
		c-2,1.5-3.9,3.1-5.6,4.9c0-1.4-0.1-2.7-0.1-4.1c0-0.9,0-1.9,0.2-2.8c0.5-1.5,1.7-2.6,3.1-3.3c1.4-0.7,2.9-1,4.4-1.4
		C73.1,40.4,72.6,41.9,72,43.5 M91.9,50.1c-7.2,1.5-14.2,3.6-21,6.3c-2.3,0.9-4.5,1.9-6.8,3c-1.3,0.6-2.6,1.2-3.9,1.9
		c-1.9,1-3.8,2-5.6,3.2c0.9,0,1.8-0.4,2.7-0.8c8.1-3.5,16-8.4,24.8-8.8C85.8,54.6,89.2,52.6,91.9,50.1 M38.7,33.5
		c0.6-4.1,1.2-8.4-0.4-12.3c-0.3-0.8-0.4-1.8-0.4-2.7c-0.1-4.3,0-8.6,0.4-12.8c-0.8,1.1-1.4,2.3-2,3.5c-0.3,0.7-0.6,1.3-0.8,2
		c-0.1,0.7-0.1,1.3-0.1,2C35.8,20.1,36.9,26.9,38.7,33.5 M97.8,38.5c-0.7-0.8-1.8-1.1-2.9-1.4c-2.7-0.6-5.4-0.8-8.1-0.6
		c-0.4,0-0.5,0.5-0.5,0.9c0.1,0.4,0.2,0.8,0,1.1c-0.2,0.3-0.1,0.8,0.1,1.1c0.2,0.3,0.6,0.5,1,0.7c3.6,1.6,7.7,1,11.5-0.1
		c0-0.1,0.1-0.2,0.2-0.3C98.5,39.6,98.2,39,97.8,38.5 M34.9,13c-1.9,2.7-1.4,6.3-0.9,9.6c0.1,0.7,0.2,1.3,0.4,2
		c0.2,0.7,0.5,1.4,0.7,2c2.4,6.7,2.6,13.9,2.7,21.1c0,2.2,0.1,4.4,0.1,6.5c0.5-0.1,0.6-0.7,0.6-1.2c0.3-6.8,0.6-13.7-0.8-20.3
		c-0.3-1.5-0.7-3-1.1-4.5C35.5,23.2,34.9,18.1,34.9,13 M79.4,51.1c-3.1,1-5.8,2.8-8.5,4.6c6-2.5,12.2-4.5,18.5-5.9
		c1.2-0.3,2.4-0.5,3.3-1.2c0.5-0.4,0.9-0.9,1.3-1.3c1.2-1.4,2.4-2.8,3.6-4.2c-1.3,0.8-2.6,1.5-4,2.3c-3.2,1.8-6.5,3.7-10.1,4.7
		C82.3,50.4,80.8,50.7,79.4,51.1 M43.8,30.9c-1-2.9,0.4-6.3,3.1-7.7c-0.8-1.2-1.5-2.3-2.3-3.5c-2.3,8.1-3.6,16.5-3.7,25
		c0.5-0.1,0.8-0.5,0.9-1c0.1-0.5,0-1-0.1-1.4c-0.3-2.1,0.2-4.3,1.3-6.1c0.6-0.9,1.3-1.8,1.3-2.9C44.5,32.4,44.1,31.6,43.8,30.9
		 M34.5,27c0.5,8.1,1,16.3,1.5,24.4c0.1,1.1,0.3,2.4,1.2,2.9c-0.1-8.6-0.2-17.2-2-25.6C35.1,28.1,34.9,27.5,34.5,27 M78.4,43.6
		c-0.4,1.3-0.7,2.8-1.7,3.8c-1.9,1.8-5.4,1.1-7,3.2c-1,1.4-2,2.7-3,4.1C72.7,51.8,78,47.4,83,42.8c-1-0.1-2.1-0.2-3.1-0.2
		c-0.3,0-0.5,0-0.8,0.1C78.7,42.8,78.5,43.2,78.4,43.6 M80.2,55.8c-0.7-0.3-1.5-0.1-2.3,0.2c-5.1,1.4-9.9,3.6-14.8,5.8
		c-2.4,1.1-4.7,2.1-7.1,3.2c-0.6,0.3-1.3,0.6-1.5,1.3c0.5,0.1,1-0.1,1.5-0.3C64.1,62.6,72.1,59.2,80.2,55.8 M85,40.2
		c0.6-1,1-2.1,0.8-3.2c0-0.1,0-0.2-0.1-0.2c-0.1-0.1-0.3-0.1-0.5-0.1c-1.3,0.1-2.5,0.3-3.7,0.5c-0.4,0.1-0.8,0.2-1.1,0.5
		c-0.1,0.2-0.2,0.4-0.3,0.6c-0.4,1.2-0.8,2.4-1.1,3.6c1.3,0.1,2.5,0.1,3.8,0.2c0.2,0,0.5,0,0.7-0.1c0.2-0.1,0.4-0.3,0.6-0.4
		C84.3,41.1,84.7,40.6,85,40.2 M55.6,62.8c1.7-0.8,3.4-1.7,5.1-2.5c4.1-2,8.2-4.1,12.1-6.6c0.4-0.3,0.8-0.6,1.3-0.8
		c0.1-0.1,0.3-0.2,0.3-0.4c0.1-0.3-0.2-0.6-0.5-0.7c-0.3,0-0.6,0.1-0.9,0.3c-5.6,3.1-11.3,6.3-16.9,9.4c-0.5,0.3-1,0.6-1.2,1.1
		C54.9,63,55.4,62.9,55.6,62.8 M39.2,53.5c0.9-0.4,1-1.6,1-2.6c0-6.3,0.3-12.6,1-18.9c0.1-0.6-0.7-1-1.3-1.2c-0.1,0-0.2,0-0.3,0
		c-0.1,0.1-0.2,0.2-0.2,0.4C39.4,38.7,39.3,46.1,39.2,53.5 M42.3,51.6c0.2-1.6,0.7-3.2,1.4-4.7c0.1-0.3,0.3-0.6,0-0.8
		c-0.4-0.3-0.4-0.9-0.8-1.2c-0.4-0.3-1.1-0.1-1.5,0.3c-0.3,0.4-0.4,1-0.5,1.6c-0.2,2-0.3,3.9-0.3,5.9C41.4,52.9,42.2,52.3,42.3,51.6
		 M76.2,44.9c0.4-0.9,0.6-1.8,0.5-2.7c-0.5-0.3-1.1-0.5-1.7-0.6c-1,1.7-2.1,3.3-3.3,4.9c-0.2,0.3-0.4,0.6-0.3,0.9
		c0.2-0.1,0.5-0.1,0.7-0.2c0.8-0.2,1.5-0.4,2.3-0.6c0.2-0.1,0.4-0.1,0.6-0.2C75.6,45.9,76,45.4,76.2,44.9 M45.2,27.2
		c0.6,1.2,0.3,2.8,1.2,3.8c0.2-0.7,0.6-1.4,1-2.1c0.7-1.2,1.5-2.4,2.2-3.6c0.1-0.1-0.1-0.3-0.3-0.4c-0.3-0.1-0.5-0.3-0.8-0.4
		c-0.1,0-0.2-0.1-0.3-0.1c-0.1,0-0.2,0.1-0.3,0.1C47,25.4,46.1,26.3,45.2,27.2 M43,52.1c1.4-0.7,2.4-2.2,2.4-3.7
		c0-0.4-0.1-0.8-0.4-1.1c-0.4-0.2-0.8,0.3-1,0.7C43.5,49.2,43.1,50.6,43,52.1 M52.5,23.7c0.1-0.2-0.2-0.4-0.4-0.3
		c-0.2,0.1-0.3,0.3-0.4,0.5c-0.8,1.6-2.6,2.8-2.8,4.6c0.5-0.1,0.7-0.5,1-0.9c0.6-0.8,1.4-1.6,2.2-2.1C52.6,25.2,52,24.2,52.5,23.7
		 M77.1,41.3c0.3-1,0.7-2,1-3c0.1-0.2,0.1-0.4,0.2-0.7c-1.4,0.3-2.5,1.7-2.5,3.1C76.2,41,76.6,41.2,77.1,41.3 M51.7,21.2
		c-0.5,0.5-1.1,1-1.6,1.5c-0.4,0.4-0.8,0.8-1.4,0.9c0.5,0.4,1.2,0.8,1.8,0.5c0.3-0.1,0.4-0.3,0.6-0.6c0.3-0.4,0.5-0.7,0.7-1.1
		C51.9,22.1,51.9,21.6,51.7,21.2"/>
	<path class="st0" d="M63.6,52.3c-1.4,1-2.9,1.9-4.4,2.7c-0.1-1.8,0.3-3.6,1.1-5.3c0.8-1.6,1.9-3.1,3.1-4.5c0.6-0.8,1.3-1.5,2-2.2
		c-0.1,2.3-0.2,4.7-0.2,7C65.2,51,64.4,51.7,63.6,52.3"/>
</g>
</svg>
