<?xml version="1.0" encoding="utf-8"?>
<!-- Generator: Adobe Illustrator 19.1.0, SVG Export Plug-In . SVG Version: 6.00 Build 0)  -->
<svg version="1.1" id="Layer_1" xmlns="http://www.w3.org/2000/svg" xmlns:xlink="http://www.w3.org/1999/xlink" x="0px" y="0px"
	 viewBox="0 0 100 117.6" style="enable-background:new 0 0 100 117.6;" xml:space="preserve">
<style type="text/css">
	.st0{fill:#00BCD4;}
</style>
<g id="chigger">
	<path class="st0" d="M13.2,19.5c0.7-0.8,1.7-1.4,2.7-1.7c-1.9-0.8-3.7-1.9-5.1-3.5c0.8,0.2,1.6,0.3,2.4,0.5c-1.1-1.8-3.2-3-5.3-3
		c1.2-0.5,2.4-0.9,3.6-1.4c-1.3-0.8-2.7-1.6-4-2.4C8,6.8,8.6,5.6,9.2,4.4c1,1.6,2,3.2,3,4.8c-0.1-1.4-0.2-2.9-0.2-4.3
		c-0.3,0.4-0.9,0.5-1.3,0.2c0.6-0.9,1.2-1.7,1.8-2.6c0.5,3,1.3,5.9,2.5,8.6c-0.3-1.2,0.3-2.6,1.5-3.2c-0.5,2.2,0.3,4.6,2,6.2
		c-0.4-1.3-0.2-3.3,1.1-3c-0.3,2.1,0,4.3,0.9,6.2c-0.1-1,0.3-2.1,1-2.7c-0.1,1.9,0.7,3.8,2.1,5c-0.5-0.7,0.3-1.9,1.1-1.7
		c0,3.5,1.7,7.1,4.5,9.2c-0.6-1.3-0.6-2.7,0-4c0.8,2.5,1.5,5,2.3,7.4c0.5,1.6,1.3,3.5,3,3.7c0.5,5.1,3.5,9.9,7.7,12.8
		c0.4-0.4,0.7-0.8,1.1-1.3c-2-0.8-3.1-3-3.3-5.2c-0.2-2.2,0.4-4.3,1-6.4c0.4-1.5,0.8-3,1.3-4.5c0.2,1.4,0.4,2.8,0.7,4.1
		c0.5-0.7,1.4-1,2.2-0.7c-1.8,2.2-1.8,5.8,0,8c0-2.2-0.1-4.4-0.1-6.5c1.5-0.4,2.8-1.2,3.8-2.4c-0.3,1.1,1.4,1.5,2.5,1.1
		c1-0.4,2.4-0.9,3.1,0c-0.5-1.2-0.5-2.7,0.2-3.9c1.3,2.7,2.6,5.4,3,8.4c0.4,2.9-0.2,6.2-2.3,8.3c0.6,0.1,1.2,0.3,1.8,0.4
		c3.1-3.6,6.4-7.7,6.1-12.4c0-0.7-0.1-1.6,0.6-1.9c0.6-0.3,1.1,1.1,0.4,0.9c1.9-3.5,2.9-7.4,3.1-11.4c0.4,1.2,0.7,2.3,1.1,3.5
		c1.6-1.1,2.6-2.9,2.7-4.8c0.1-1-0.1-2.1,0.3-3c0.4-0.9,1.8-1.5,2.4-0.7c0-1.4,0.4-2.8,1.2-3.9c0.2,1.2,0.4,2.3,0.5,3.5
		c0.3-1.5,0.7-3,1-4.5c0.1-0.6,0.3-1.2,0.8-1.4c0.5-0.3,1.3,0.2,1,0.7c0.7-1.6,1.3-3.1,2-4.7C80.8,7.1,81,7.9,81,8.7
		c1-2.9,1.8-5.8,2.5-8.7c0.6,1.8,0.5,3.7-0.2,5.4c0.7-1.1,1.4-2.2,2.3-3.2c0.3,1,1.5,1.5,2.5,1.2c-0.2,1.4-1.5,2.6-2.9,2.6
		c0.4,0.6,1.2,1,1.9,0.8c-0.4,0.6-1,1-1.7,1.3c0.7,0.2,1.4,0.3,2.1,0.5c-1.1,0.9-2.3,1.7-3.6,2.4c0.5,0.4,1.2,0.7,1.9,0.7
		c-1.8,1.5-3.7,3-5.5,4.5c1,0,1.9,0,2.9,0.1c-0.2,1.3-1.8,1.7-3.1,1.9c-1.3,0.3-2.8,1.2-2.4,2.5c0.6-0.6,1.7-0.7,2.4-0.2
		c-2.5,2-5,4.1-7.5,6.1c0.9-0.1,1.7-0.2,2.6-0.2c-3.1,2.5-5.5,5.9-6.7,9.7c1.1-1.3,2.6-2.1,4.2-2.3c-0.4,1.5-2,2.3-3.4,3.1
		c-1.4,0.8-2.7,2.3-2.1,3.8c0.3-1.1,1.7-1.7,2.8-1.3c-2.3,2.4-4.7,4.8-7,7.2c0.9-0.1,1.8,0.6,1.9,1.5c-1-1-3-0.3-3.5,1
		c-0.5,1.4,0.2,2.9,1.3,3.8c0.8-2.6,5.5-1,6.8-3.4c0.3-0.5,0.3-1.2,0.6-1.7c0.3-0.5,1.1-0.9,1.5-0.4c-0.3,0.6-0.5,1.2-0.8,1.8
		c1.7-0.6,3.2-1.9,3.9-3.6c1.1,1.2,3.5,0.8,4.1-0.7c0.3,0.8,0,1.8-0.7,2.3c2.7-1,5-2.8,6.7-5c0.4,1.1-0.1,2.5-1.1,3
		c2.7-0.4,5.1-2.4,5.9-4.9c0.6,1,0.3,2.4-0.6,3.1c2.2-0.2,4.2-1.5,5.2-3.4c0.6,0.9,0.2,2.3-0.8,2.7c2.1-0.4,4-1.3,5.7-2.5
		c-0.5,1.1-0.1,2.5,0.9,3.2c-1.7,0.6-3.3,1.1-5,1.7c0.9-0.1,1.8,0.7,1.8,1.6c-2.3-0.9-5.1-0.4-7,1.2c1,0.6,1.4,2.1,0.9,3.2
		c-1.2-2.5-5.3-3-7-0.7c1.2-0.4,2.4,1.2,1.8,2.2c-1.7-1.7-4.5-2.1-6.7-1.1c1,0.2,1.7,1.2,1.6,2.2c-1.2-1.3-3.4-1.5-4.8-0.5
		c0.8,0.4,1.2,1.4,1,2.3C75,53.8,72.2,54.3,70,55c-1,0.3-2,0.6-2.8,1.3c-1.5,1.3-1.8,3.6-1.3,5.5c0.5,1.9,1.8,3.5,3,5.1
		c-0.8,0.1-1.6-0.4-1.9-1.1c-0.1,1.2,0.7,2.4,1.5,3.3c1,1.3,2.1,2.6,3.1,3.9c1.3,1.7,3.3,3.5,5.2,2.7c-0.9,1-2.5,1.4-3.7,0.8
		c1.9,1.4,3.7,2.7,5.6,4.1c-0.5-0.6-1.1,0.6-1,1.3c0.7,3,2.6,5.8,5.2,7.5c-1.2,0.4-2.5-0.3-3-1.4c0.7,4.2,2.7,8.1,5.5,11.2
		c-1.1,0.3-2.4-0.6-2.6-1.7c0,0.8-0.9,1.4-1.6,1.2c0.5-3.2-0.7-6.6-3.2-8.7c0.5,2.8,1.2,5.5,2.1,8.2c0.3,0.9,1.3,1.9,1.9,1.2
		c-0.6,3.8,0.4,7.7,2.5,10.9c-0.7-3.9-1.4-7.8-2-11.8c3.2,4.8,6.5,9.5,9.7,14.3c-3-2.5-5.7-5.3-7.9-8.6c1.1,2.7,2.2,5.3,3.3,8
		c-1-0.5-1.7-1.4-2.1-2.5c-0.1,1.9,0.6,3.9,2,5.3c-1.5-0.5-2.6-1.8-3-3.3c-0.4,0.9-0.5,2-0.3,3c0.3-0.4,0.6-0.8,0.9-1.2
		c0.8,1.2-0.3,3.2-1.8,3c0.1-2.6-0.2-5.3-0.8-7.8c-0.3,1.9-0.6,3.8-1.9,5.2c1-5.2,0.6-10.8-1.2-15.8c0.3,1.7-0.1,3.4-1,4.8
		c-0.1-5.4-1.2-10.9-3.4-15.9c0.4,1.4-0.1,3-1.3,3.8c0.6-2.5,0.5-5.2-0.5-7.6c-0.2,0.7-0.4,1.3-0.6,2c-0.8-1.2-1.1-2.7-1-4.1
		c-0.6,1.5-1.5,2.9-2.6,4c0.1-1.8,0.6-3.5,1.4-5.1c-1-1.8-2-3.5-3-5.3c0.6,2.6-0.9,5.1-1.8,7.6c-1.1,3-1.5,6.2-1.1,9.4
		c-0.4-1.4-0.7-2.9-1.1-4.3c-3.4,2.7-6,6.2-7.5,10.3c0.1-1.8,0.2-3.6,0.3-5.4c-0.4,1.5-1.1,2.9-2,4.1c0-1,0.1-2,0.1-3
		c-2.6,0.8-5.5,0.4-7.9-0.9c0.5,2,0.9,4.1,1.4,6.2c-2.1-0.7-3.3-3.4-2.3-5.4c-2.8-0.9-5.1-3.1-6.1-5.9c0,1.6,0.1,3.1,0.1,4.7
		c-1.1-3.2-2.2-6.4-3.3-9.6c-0.7-2.2-1.5-4.4-1.4-6.7c-0.9-0.2-1.7-0.3-2.6-0.4c1.5,0.9,1.5,3,1,4.7s-1,3.5-0.2,5
		c-1.1-1.2-1.8-2.8-2-4.4c0,2,0.1,4,0.1,6c-1.2-0.6-1.6-2.3-0.8-3.4c-0.9,1.1-1.8,2.2-2.7,3.3c1.5,1.4,2.2,3.5,2,5.4
		c-1.2-0.9-1.8-2.5-1.6-4c-2.4,4.6-3,10-1.8,15.1c-1.1-0.7-1.7-2.2-1.4-3.5c-1.3,0.8-0.8,2.8-0.4,4.2c0.4,1.5-0.1,3.7-1.6,3.5
		c1.2,2.1,1.9,4.5,2,7c-1.3-1.3-2-3-2.1-4.8c-0.6,1.6,0.1,3.4,0,5.1s-1.8,3.7-3.2,2.7c0.8-0.7,0.3-2.3-0.8-2.5
		c0.5-1.2,1-2.3,1.5-3.5c-0.6,0.4-1.4,0.5-2.1,0.2c1.2-1.7,1.9-3.8,2.1-5.9c-2.2,3.1-4.3,6.3-6.5,9.4c2-4,4-8,6-12
		c0.7-1.3,1.3-3,0.4-4.1c1.6-3,2.8-6.2,3.5-9.5c-0.7,0.3-1.5,0.6-2.3,0.9c1.5-2.6,3-5.2,4.4-7.8c-0.7-0.2-1.3-0.5-2-0.7
		c1.7-1.4,3.4-2.7,5.1-4.1c-1.3,0.1-2.5,0.2-3.8,0.4c0.2-1.6,2.7-1.4,4.1-2.3c0.5-0.4,0.9-1,1.2-1.6c1.3-2.4,2.6-4.8,3.9-7.2
		c-0.5,0.8-1.5,1.3-2.5,1.2c2.1-2.6,3.3-5.9,3.3-9.3c-3.5-2.4-8-4.7-11.5-2.5c0.2-0.8,0.4-1.6,0.7-2.4c-1.5,0.3-3,0.7-4.4,1
		c0.2-0.8,0.8-1.6,1.6-1.8c-2.4-0.5-5-0.3-7.3,0.8c0.7-0.7,1.3-1.4,2-2.2c-2.2-1.5-5.6-0.9-7.1,1.3c-0.3-1,0.1-2,0.8-2.7
		c-1.8-1.3-4.3-1.6-6.4-0.7c0.7-0.8,1.3-1.6,2-2.5C3.4,47.8,1.3,47,0,45.5c0.7-0.1,1.4-0.3,2.1-0.4c-1,0-1.9-0.9-1.9-1.9
		c2.2,0.7,4.4,1.5,6.7,2.3c-1.2-0.7-2.5-2.4-1.4-3.3c1.4,2.1,3.6,3.6,6.1,4.1c-1.4-0.8-3.1-2.5-2-3.7c1.3,2.6,4,4.4,6.9,4.8
		c-1.2-0.7-2.1-1.7-2.7-3c3,0,4.5,5.4,7.3,4.4c-1-0.1-1.7-1.2-1.5-2.1c1.7,1.1,3.4,2.1,5,3.2c-0.8-0.8-1.2-2-0.8-3.1
		c1.1,1.9,2.8,3.5,4.9,4.3c-0.5-0.4-0.9-0.9-1-1.6c-0.1-0.6,0.5-1.4,1.1-1.2c0.3,1.2,0.7,2.4,1.5,3.4c0.8,0.9,2.3,1.4,3.3,0.8
		c1.1-0.6,2.6-0.2,3.2,0.9c0.3-0.9,0.7-1.9,0.4-2.9c-0.2-1-1.3-1.8-2.2-1.5c0.9-1.6-0.6-3.5-2.1-4.5c-1.6-1-3.5-1.9-3.9-3.8
		c0.9,0.2,1.7,0.4,2.6,0.7c-1.9-2.2-4-4.1-6.3-5.8c1.9,0.1,3.8,1,5.1,2.4c-2.2-3.6-4.8-6.9-7.7-9.9c0.8,0.3,1.7,0.6,2.5,0.8
		c0.5-0.8-0.7-1.5-1.6-1.8c-2.6-0.9-4.8-2.9-6-5.3c2.5,2,5.3,3.6,8.3,4.7c-1.2-1.2-1.3-3.1-2.1-4.7c-0.7-1.5-3-2.7-4.1-1.3
		c1.3,0.7,2.2,2,2.3,3.5C19.6,21.7,16.5,20.1,13.2,19.5 M40.8,47.5c-0.5-0.1-1.1,0.3-1.3,0.7c-0.5,0.1-1,0.2-1.5,0.2
		c0,0.8,0.7,1.6,0.4,2.4c-0.1,0.2-0.3,0.6-0.1,0.7c0.2-0.4,0.4-0.8,0.7-1.1c0.5-0.9,1.2-1.9,2.2-2.2C41.1,48,40.9,47.7,40.8,47.5
		 M47.7,90.7c-0.3,0.6,0.1,1.4,0.7,1.7c0.6,0.3,1.3,0.3,1.9,0.3c0.7,0,1.3-0.1,2-0.2c0.6-0.1,1.3-0.2,1.9-0.5c0.6-0.3,1-0.9,0.9-1.6
		c-0.1-0.5-0.4-0.9-0.5-1.5c-0.1-0.5,0.3-1.2,0.8-1c0.2,0.1,0.3,0.4,0.4,0.6c0.3,0.9,0.3,1.9,0.2,2.9c2.9-0.2,5-2.9,6.6-5.4
		c0.2-0.2,0.3-0.5,0.2-0.8c-0.1-0.4-0.9-0.8-0.6-1.1c0.9,0,1.6-0.6,2.1-1.3c0.4-0.7,0.6-1.6,0.8-2.5c-1.2-1.2-2.1-2.6-2.8-4.2
		c0.3-0.4,1,0,1.3,0.4c0.7,0.9,1.4,1.9,2.1,2.8c0.5-3.7,0.8-7.4,0.7-11.1c-0.1-1.9-0.4-4.2-2-5.2c-0.5-0.3-1.1-0.5-1.4-1
		c-0.4-0.5-0.2-1.3,0.4-1.4c0.6,0.6,1.2,1.2,1.9,1.7c-0.9-3-2.2-6-3.8-8.7c-1.8-2.9-4.1-5.8-7.3-6.9c-2.3-0.8-4.9-0.7-7.3-0.5
		c-2.4,0.2-4.3,1.8-5.8,3.7c-2.8,3.5-4.5,7.9-4.8,12.4c0.6-0.5,1.3-0.8,2.1-0.8c0.3,0.4,0,1-0.4,1.4c-0.4,0.3-0.9,0.5-1.3,0.9
		c-1,0.8-1.1,2.3-1.2,3.5c-0.1,2.2-0.1,4.4,0,6.7c0.8-1,1.2-2.3,1.8-3.4c0.6-1.2,1.5-2.3,2.8-2.5c-1.2,2.4-2.5,4.7-4,6.8
		c-0.3,0.4-0.3,0.8-0.2,1.3c0.1,1.6,0.5,3.1,1.2,4.5c0.2-2,0.7-4.3,2.5-5c0.2,1.7-1.2,3-1.7,4.7c-0.4,1.5,0,3.2,1.2,4.3
		c0.4-0.4,0.9-0.8,1.5-0.9c0.4,0.5-0.5,1.2-0.6,1.9c-0.1,0.4,0.1,0.8,0.3,1.1c1,1.8,2.5,3.3,4.3,4.3c0.7,0.4,1.6,0.8,2.3,0.3
		C46.4,89.9,47,88.3,48,87C48.3,88.2,48.2,89.6,47.7,90.7 M75.1,17.4c-1.2,0.5-2,1.6-2,2.9c-0.1,1.2-1,2.3-1.8,3.1
		c-0.4,0.4,0,1.1,0.5,1.3c0.5,0.2,1.1-0.1,1.5-0.4c1.1-0.7,2-1.7,2.4-3c0.3-0.6,0.6-1.3,0.9-1.8c0.4-0.7,0.1-1.8-0.7-2.1
		c-0.1-0.1-0.3-0.1-0.4-0.1C75.4,17.4,75.3,17.4,75.1,17.4 M51.2,37c-0.2-0.4-0.2-0.9,0.1-1.2c-0.1,0-0.2,0-0.3,0
		c-0.1-0.1-0.1-0.2-0.1-0.3c0.1-0.1,0.2-0.1,0.3-0.1c0.1-0.2,0.1-0.5,0.1-0.7c-0.3-0.1-0.7-0.1-1,0c0.5,0.5,0.4,1.4-0.2,1.8
		c0.2,0,0.3,0.2,0.2,0.3c-0.1,0.1-0.2,0.2-0.4,0.3c-0.2,0.1-0.4,0.1-0.6,0.2c-0.2,0.2,0,0.5,0.1,0.7c1.1,1.9,0.3,4.2,0.5,6.3
		c0,0.2,0.1,0.5,0.3,0.5c1.4,0,2.9,0.3,4.2,0.9c0-0.1,0.1-0.3,0.1-0.4c-0.9-0.2-1.3-1.3-1.6-2.2c-0.3-0.9-0.8-1.8-1.3-2.7
		c-0.3-0.5-0.7-0.9-0.9-1.5c-0.2-0.4-0.3-1,0.1-1.3c-0.1,0-0.2,0-0.4-0.1c-0.2-0.2,0.2-0.6,0.4-0.5c-0.1,0.2,0.1,0.4,0.3,0.3
		C50.9,37.3,51,37,51.2,37 M76.5,15.8c0.6,0.6,1.2,1.2,1.7,1.7c0.6-0.9,1.3-1.8,1.3-2.9c0-0.2,0-0.5,0-0.7c0-0.7,0.4-1.3,0.8-1.8
		c0.5-0.7,1-1.3,1.4-2c0.3,0,0.5,0.3,0.5,0.6c0,0.3-0.1,0.5-0.3,0.8c-0.4,0.8-0.8,1.5-1.2,2.3c-0.1,0.2-0.2,0.5,0,0.6
		c0.6-0.5,1-1.2,1.4-1.9c0.7-1.2,1.3-2.4,2-3.5c-0.6,0.1-1.2,0.2-1.7,0.3c-0.5,0.1-1.1,0.2-1.5,0.5c-0.4,0.3-0.6,0.8-0.8,1.3
		c-0.7,1-2,1.6-2.4,2.8c-0.1,0.4-0.1,0.8-0.2,1.2c-0.2,0.4-0.6,0.7-0.9,0.5C76.5,15.5,76.5,15.7,76.5,15.8 M48.7,37.6
		c-0.1,0-0.2-0.1-0.3-0.2c-0.3,0.1-0.6,0.3-0.9,0.6c-0.1,0.2-0.2,0.3-0.2,0.5c-0.6,1.3-1.2,2.5-1.8,3.8c-0.4,0.8-0.7,1.6-1,2.4
		c1.2,0.3,2.5,0.5,3.7,0.4c0.1-0.5,0.2-0.9,0.3-1.4c-0.4-1.2-0.6-2.5-0.6-3.8C47.9,39.2,48,38.2,48.7,37.6 M19.1,17
		c-0.2-0.3-0.3-0.6-0.5-0.9c-0.4-0.6-0.7-1.3-1.3-1.7c-0.7-0.5-1-1.4-1.7-1.8c-0.7-0.5-1.7-0.5-2.2-1.2c-0.2-0.3-0.4-0.8-0.8-0.7
		c-0.1,0.2-0.3,0.3-0.6,0.4c0.7,0.6,1.2,1.3,1.5,2.2c0.4,1.2,1.3,2.3,2.4,3c0,0.1,0.2,0.1,0.3,0.1c0.1-0.1,0.1-0.2,0.1-0.3
		c-0.2-0.3-0.4-0.5-0.6-0.8c-0.5-0.7-1.1-1.5-0.9-2.4c0.2-0.2,0.5,0,0.7,0.2c0.4,0.6,0.9,1.1,1.3,1.7c0.7,0.3,0.9,1.2,0.4,1.8
		c0.5,0.8,1.3,1.4,2.2,1.6c-0.1,0.3-0.4,0.6-0.7,0.6c-0.6-0.1-1.1-0.4-1.6-0.8c-0.1,0.3-0.4,0.5-0.8,0.5c-0.1,0.2-0.1,0.3,0,0.5
		c0.6-0.2,1.2-0.1,1.7,0.3c0.4,0.3,0.9,0.3,1.4,0.1c0.4-0.2,0.7-0.7,0.7-1.2C19.6,17.8,19.3,17.4,19.1,17 M70.6,28.2
		c0.6-0.4,0.9-1,0.9-1.7c-0.7,0.1-1.4,0-2-0.2c-0.5-0.2-1,0.2-1.3,0.6c-0.3,0.5-0.4,1-0.6,1.5c-0.3,0.8-0.9,1.6-0.6,2.4
		c0.6,0.6,1.6,0.8,2.4,0.5c0.5-0.3,0.9-0.9,0.6-1.4c-0.3-0.4-1-0.4-1.1-0.8c-0.1-0.4,0.3-0.7,0.7-0.8C69.8,28.2,70.2,28.3,70.6,28.2
		 M26.1,28.3c0.1,0,0.2,0.2,0.2,0.3c0,0.1-0.1,0.3,0,0.4c0.1,0.3,0.5,0.2,0.8,0c0.3-0.2,0.6-0.4,0.8-0.2c0.2,0.6-0.1,1.2-0.3,1.8
		c-0.2,0.6-0.3,1.4,0.2,1.8c0.5,0.5,1.4,0.2,2-0.2c0.3-0.2,0.3-0.6,0.3-0.9c0-0.5-0.1-1-0.2-1.5c-0.3-0.8-0.7-1.6-1.4-2.1
		c-0.4-0.2-0.7-0.4-1.1-0.6c-0.1-0.1-0.2-0.1-0.4-0.1c-0.3,0-0.5,0.3-0.6,0.5C26.3,27.8,26.3,28.1,26.1,28.3 M24.5,91.1
		c-0.6,0.7-0.7,1.7-0.9,2.6c-0.3,1.6-0.9,3.2-1.7,4.7c-0.2,0.4-0.1,0.9,0.3,1.2c1,0.3,2.3-0.7,2.2-1.8c-0.1-0.7,0-1.4,0.1-2.1
		c0.2-1.5,0.4-3,0.6-4.5C24.9,91.1,24.7,91.1,24.5,91.1 M35.9,44.9c0.7-0.7,0.3-1.9-0.1-2.8c-0.3-0.6-0.5-1.2-0.8-1.9
		c-0.9,0.1-1.9,0-2.8-0.4c0.2,0.9,0.2,1.9,0.7,2.6c0.4,0.5,1,0.8,1.5,1.2c0.6,0.5,1.1,1.3,1.4,2c0.1-0.2,0.2-0.4,0.3-0.5
		C36,45.2,35.9,45,35.9,44.9 M67.4,53.2c0.2,0.1,0.3,0.3,0.2,0.5c0.9,0.6,2,0.8,3,0.5c0.7-0.2,1.3-0.7,1.3-1.4
		c0-0.4-0.2-0.9,0.2-1.1c0.3-0.3-0.3-0.7-0.2-1.1c-0.5-0.2-1,0-1.4,0.3c-0.4,0.3-0.7,0.7-1.1,1c-0.3,0.3-0.7,0.4-1,0.6
		c-0.3,0.2-0.7,0.3-1,0.5C67.4,53,67.4,53.1,67.4,53.2 M80.4,49.7c0.8-0.2,1.6-0.3,2.4-0.5c0.4-0.1,0.8-0.2,1.2-0.4
		c0.8-0.7,0.7-2.3,1.7-2.6c-0.9-0.1-1.9,0.2-2.8,0.6c-1.1,0.6-2.2,1-3.4,1.2C79.6,48.6,80,49.2,80.4,49.7 M61.8,42.5
		c-0.1,0.1-0.1,0.3,0,0.4c0.5,0.3,0.8,0.9,1.3,1c0.7,0.1,1.1-0.7,1.4-1.4c0.8-0.8,1.4-1.9,1.5-3.1c-0.8,0-1.6-0.1-2.4,0
		c-0.3,1-0.8,2-1.5,3C62,42.5,61.9,42.6,61.8,42.5 M22.6,100.3c-0.2,0-0.4-0.1-0.5-0.3c-0.1,0-0.2,0.2-0.2,0.3
		c0.2,0,0.3,0.2,0.2,0.3c-0.5,1.4-0.9,2.8-1.2,4.3c0,0.2-0.1,0.3-0.1,0.5c0,0.5,0.3,1.1,0.8,1.1c0.2,0,0.3-0.1,0.5-0.2
		c0.7-0.4,1.2-1.1,1.2-1.9c0-0.2,0-0.3-0.1-0.5C23,102.7,22.8,101.5,22.6,100.3 M65.5,38.4c0.2,0.1,0.4,0.2,0.6,0.1
		c0.8-1.3,1.4-2.7,1.6-4.1c0.2-1-0.8-2-1.9-1.9c-0.5,0.8-0.9,1.6-1.2,2.5c-0.3,0.8-0.4,1.7-0.4,2.6c0.2,0.1,0.5,0,0.7-0.2
		c0.2-0.2,0.2-0.5,0.3-0.7c0.2-0.7,0.4-1.5,0.5-2.2c0.1-0.4,0.4-1,0.8-0.9c0.2,1,0,2-0.2,3C66.2,37.2,66,37.9,65.5,38.4 M18.8,49.2
		c-0.6,0.2-1.2-0.2-1.8-0.4c-0.6-0.3-1.2-0.5-1.8-0.5c-0.4,0-0.7,0-1,0.2c-0.3,0.2-0.5,0.6-0.3,0.9c0.1,0.1,0.2,0.2,0.3,0.3
		c0.9,0.7,2,1.1,3.2,1.3c0.4,0.1,0.9,0.1,1.3-0.2C19.1,50.5,19.2,49.7,18.8,49.2 M76.8,82.3c-0.1-0.1-0.2-0.1-0.3-0.1
		c-0.1-0.3-0.1-0.6,0-0.8c-0.5-0.2-0.7-0.7-1-1.1c-0.2-0.4-0.6-0.9-1.1-0.8c-0.1-0.3-0.2-0.5-0.3-0.8c-0.5,0.4-1,0.9-1.4,1.4
		c-0.1,0.2-0.3,0.4-0.3,0.6c0,0.2,0.1,0.4,0.2,0.6c0.6,1.1,1.4,2.1,2.4,2.9c0.7-0.3,1.4-0.4,2.2-0.3c0.1-0.4,0.1-0.7,0.1-1.1
		c-0.1-0.1-0.2-0.1-0.3-0.1C76.7,82.6,76.7,82.4,76.8,82.3 M27.9,53.8c0.8,1.1,2.1,1.8,3.4,1.7c0.2,0,0.4,0,0.6-0.1
		c0.4-0.2,0.4-0.8,0.1-1.1c-0.6,0.1-1.1-0.4-1.6-0.9c-0.7-0.7-1.5-1.3-2.3-1.8c-0.4,0.2-0.6,0.6-0.6,1
		C27.4,53.1,27.6,53.5,27.9,53.8 M33.1,39.1c-0.9-1.2-1.7-2.5-2.2-3.9c0.2-0.2,0.6-0.2,0.8,0c0.2,0.2,0.4,0.4,0.5,0.7
		c0.3,0.6,0.5,1.1,0.8,1.7c0.2,0.4,0.6,0.9,1,0.7c-0.4-1.5-1-2.9-1.7-4.2c-0.1-0.2-0.2-0.4-0.5-0.5c-0.5-0.3-1,0.2-1.4,0.6
		c-0.1,0.2-0.3,0.3-0.3,0.5c-0.1,0.4,0.1,0.9,0.3,1.2c0.5,1,1.1,2,1.6,3C32.3,39,32.8,39.2,33.1,39.1 M64.5,57.1
		c0.5-0.4,0.9-0.8,1.4-1.2c0.1-0.1,0.2-0.2,0.3-0.3c0.1-0.2,0.1-0.4,0-0.6c-0.2-1-0.3-2-0.5-3.1c-0.8,0.6-1.6,1.3-2.3,2
		c-0.1,0.1-0.1,0.1-0.1,0.2c0,0.1,0,0.1,0,0.2C63.7,55.3,64.1,56.2,64.5,57.1 M7.2,46.5c-0.3,0-0.8,0.1-0.9-0.3
		c-0.3,0-0.5,0.2-0.7,0.5c0.9,0.9,2.1,1.4,3.3,2c0.6,0.3,1.1,0.5,1.8,0.6c0.6,0.1,1.3-0.2,1.6-0.7c0.1-0.2,0.2-0.5,0-0.7
		c-0.1-0.1-0.2-0.1-0.3-0.1c-1-0.2-1.9-0.3-2.9-0.5C8.4,47.2,7.9,46.5,7.2,46.5 M29.3,80.5c-0.6-0.4-1.4-0.2-1.9,0.3
		c-0.5,0.5-0.7,1.1-1,1.8c0,0.1-0.1,0.2,0,0.3c0.4,0.6,0.8,1.4,1,2.1c0.6-1,1.3-1.9,1.9-2.9c0.2-0.3,0.5-0.7,0.3-1.1
		C29.5,81,29.3,80.7,29.3,80.5 M76.3,84.6c-0.2,0-0.3-0.1-0.5-0.1c0.2,1.8,0.6,3.6,1.5,5.2c0.4,0,0.8-0.1,1.2-0.3
		c0.3-0.2,0.5-0.8,0.2-1c-0.2-0.2-0.2-0.4-0.3-0.7C78.1,86.4,77.3,85.3,76.3,84.6 M53.9,36.8c-0.2-1-0.5-2-0.9-2.9
		c-0.3-0.1-0.5,0.3-0.6,0.6c-0.4,2.2-0.1,4.6,1,6.5c0.2-0.5,0.4-1.1,0.5-1.6C53.7,38.5,53.6,37.6,53.9,36.8 M26.8,84.9
		c-0.2-0.2-0.6,0-0.8,0.3c-0.5,0.6-0.9,1.3-1.3,2c-0.3,0.6-0.5,1.3-0.6,2c0.4,0.1,0.5,0.5,0.8,0.8c0.3,0.3,0.9,0.3,0.9-0.1
		c0.3-1,0.4-2,0.6-2.9C26.6,86.3,26.7,85.6,26.8,84.9 M61.1,47.3c0.6-0.5,1.1-1.2,1.4-1.9c-0.9-0.4-1.6-1.3-1.8-2.3
		c-0.5,1-1.1,1.9-1.6,2.9c0.4,0.4,0.8,0.9,1.2,1.3C60.5,47.3,60.8,47.3,61.1,47.3 M67.3,69.6c0,1.7,0,3.4,0,5
		c0.1-0.1,0.2-0.3,0.1-0.4c0.9-0.4,1.7-0.8,2.6-1.2c0.2-0.1,0.1-0.4,0-0.5c-0.4-0.6-0.9-1.2-1.4-1.7C68.2,70.4,67.8,70,67.3,69.6
		 M34.1,53.4c-0.1,0.7-0.2,1.5-0.3,2.3c0,0.2-0.1,0.3,0,0.5c0.1,0.6,0.7,1,1.2,1.4c0.3,0.1,0.5-0.3,0.6-0.6c0.2-0.7,0.4-1.5,0.6-2.2
		C35.9,53.9,35,53.3,34.1,53.4 M31.4,80c0.2-0.1,0.3-0.3,0.4-0.5c0.1-0.2,0.2-0.4,0.3-0.5c0.3-0.6,0.6-1.3,0.2-1.8
		c-0.3-0.4-0.9-0.4-1.4-0.2c-0.5,0.2-0.8,0.6-1.1,1c-0.2,0.2-0.3,0.4-0.3,0.6c-0.1,0.4,0.3,0.8,0.6,1C30.4,79.9,30.9,80.2,31.4,80
		 M34,70.5c-0.2-0.1-0.5,0-0.6,0.2c-0.7,0.7-1.3,1.6-1.6,2.6c-0.1,0.3-0.2,0.7,0,1c0.2,0.2,0.4,0.2,0.7,0.3c0.4,0.1,0.7,0.1,1,0.2
		c-0.1,0.2,0.3,0.4,0.5,0.2c0.2-0.2,0.1-0.5,0.1-0.7c-0.1-0.5-0.2-1-0.3-1.5C33.5,72,34.2,71.2,34,70.5 M71.9,76.9
		c0-0.1-0.1-0.3-0.1-0.4c-0.9-0.1-1.7-0.1-2.6-0.2c0.3,1,0.9,1.8,1.6,2.5c0.2,0.2,0.4,0.4,0.7,0.4c0.5,0,0.9-0.5,1.1-1
		c0.1-0.2,0.2-0.4,0.1-0.6c-0.1-0.3-0.6-0.5-0.5-0.7C72.1,76.9,72,76.9,71.9,76.9 M22.4,52.8c0.3-0.2,0.6-0.5,0.8-0.8
		c0.2-0.3,0.2-0.8-0.1-1.1c-0.2-0.2-0.4-0.3-0.6-0.3c-0.3-0.1-0.6-0.2-0.9-0.4c-0.3-0.1-0.6-0.2-0.8-0.1c-0.5,0.3,0,1.3-0.5,1.7
		c0.5,0.3,1,0.5,1.5,0.8C22.1,52.5,22.3,52.6,22.4,52.8 M56.7,40.9c-0.7,0-1.4,0-2.1,0c-0.6,0.6-0.8,1.7-0.3,2.5
		c0.1,0.2,0.4,0.4,0.6,0.4c0.3,0,0.5-0.3,0.6-0.6c0.3-0.5,0.6-0.9,0.8-1.4C56.6,41.6,56.7,41.2,56.7,40.9 M88.6,44.4
		c-0.2,0.1,0.1,0.4,0.3,0.4c0.6,0.2,1.1,0.4,1.7,0.4c0.9,0.1,1.8-0.1,2.7-0.3c0.6-0.1,1.3-0.4,1.3-1c-0.8-0.1-1.7,0.1-2.5,0.2
		c-0.2,0-0.5,0.1-0.7,0.1c-0.8,0.1-1.6,0.3-2.4,0.4C88.9,44.5,88.7,44.4,88.6,44.4 M38.1,47.3c0.3,0.1,0.5,0.1,0.8,0
		c0.1-0.4,0.6-0.7,0.7-1.1c0.1-0.4-0.2-0.7-0.5-1c-0.3-0.3-0.6-0.5-1-0.5c-0.4,0-0.8,0.2-1,0.5c-0.1,0.4,0.1,0.8,0.3,1.1
		C37.7,46.7,38,46.9,38.1,47.3 M76.4,49.1c0,0.5,0.2,1.1,0.3,1.6c0.1,0.4,0.7,0.4,1.1,0.2c0.4-0.1,0.9-0.3,1-0.8
		c0-0.2-0.1-0.3-0.1-0.4c-0.2-0.3-0.3-0.7-0.4-1c-0.5,0-0.9,0-1.4,0c-0.2,0-0.3,0-0.4,0.1C76.4,48.9,76.4,49,76.4,49.1 M43.4,44.3
		c0.1-0.7,0.4-1.4,0.7-2c0.1-0.2,0.1-0.4-0.1-0.6c-0.3-0.3-0.7-0.5-1.2-0.4c-0.4,0.1-0.8,0.3-1.1,0.6C42.3,42.6,42.8,43.5,43.4,44.3
		 M87.1,46.4c0.1,0.2,0.2,0.3,0.3,0.4c0.9,0.6,2.2,0.5,3-0.2c-0.2-0.4-0.7-0.3-1.1-0.3c-0.5-0.1-0.9-0.4-1.3-0.5
		C87.5,45.6,86.9,45.9,87.1,46.4 M24.2,52.6c0,0.2,0,0.4,0,0.6c0.9,0.7,2.1,0.8,3.1,0.3c-0.5-0.5-1.2-0.7-1.9-0.9
		C25,52.4,24.5,52.3,24.2,52.6 M47.5,34.7c-0.3,0-0.6,0-0.9,0c-0.1,0.1-0.1,0.2-0.1,0.3c-0.1,0.1-0.2,0.1-0.3,0.1
		c-0.1,0.2-0.1,0.5,0.1,0.6c0.1-0.2,0.3-0.3,0.5-0.3c0.1,0.2,0,0.4-0.2,0.5C46.5,36,46.3,36,46.1,36c0.3,0.2,0.3,0.8,0,1
		c0.2,0.2,0.3,0.4,0.3,0.7c0.2,0,0.4-0.3,0.4-0.5c0.3-0.2,0.7-0.3,1.1-0.4c-0.3-0.3-0.5-0.7-0.5-1.1c0-0.2,0-0.6,0.3-0.6
		C47.6,34.9,47.6,34.8,47.5,34.7 M70.9,74.2c0,0.2-0.2,0.3-0.4,0.3c-0.8,0.1-1.6,0.2-2.4,0.3c0.1,0.2,0.2,0.5,0.1,0.7
		c1.2,0.1,2.3,0,3.4-0.4C71.6,74.7,71.3,74.3,70.9,74.2 M42.7,35.1c0.2-0.1,0.5-0.2,0.7-0.3c0.1-0.2-0.3-0.4-0.5-0.4
		c-0.3,0-0.6-0.1-0.6-0.4c-0.2,0.2-0.3,0.5-0.3,0.7c-0.1,0.8-0.2,1.6-0.4,2.4c0.4,0.1,0.9-0.3,1-0.7C42.8,36.1,42.8,35.6,42.7,35.1
		 M74.2,52.5c0.4,0,0.8-0.1,1-0.4c0.2-0.3,0.2-0.8,0-1c-0.6-0.2-1.3-0.1-1.7,0.3c-0.2,0.2-0.2,0.6,0,0.8
		C73.6,52.4,73.9,52.5,74.2,52.5 M56,35.5c-0.1-0.5-0.2-1-0.5-1.4c-0.6,0.7-0.8,1.7-0.6,2.6c0.2,0.3,0.7,0.2,0.9-0.1
		C56.1,36.3,56.1,35.9,56,35.5 M48.8,33.2c-0.6,0.7-0.5,1.7-0.4,2.7c0,0.2,0.1,0.4,0.2,0.5c0.2,0.2,0.5,0,0.6-0.2
		c0.1-0.2,0.1-0.5,0.1-0.7C49.2,34.7,49.2,33.9,48.8,33.2 M21.6,107.6c-0.1,0.1-0.1,0.3-0.1,0.4c-0.1,0-0.1,0.1-0.2,0.1
		c-0.6,0.9-0.7,2-0.2,2.9c0.4-0.8,0.7-1.7,0.9-2.6c0.1,0,0.3-0.1,0.3-0.3C22,108.1,21.8,107.8,21.6,107.6 M60.1,49
		c0-0.2,0-0.4,0-0.7c-0.7-0.3-1.3-0.8-1.7-1.4c-0.3,0.1-0.6,0.3-0.8,0.4c0.8,0.5,1.4,1.1,1.7,1.9c0.1,0.2,0.3,0.3,0.4,0.2
		C59.6,49.3,59.8,49.1,60.1,49 M55.2,38.5c-0.1,0.1-0.2,0.3-0.3,0.3c0.3,0.1,0.2,0.6,0,0.9c0.5,0,1-0.2,1.4-0.4
		c0-0.2,0.1-0.5,0.1-0.7c-0.4-0.4-1-0.6-1.5-0.5C54.8,38.3,55,38.5,55.2,38.5 M42.6,39.8c0.1-0.2,0.3-0.4,0.4-0.6
		c-0.2-0.2-0.4-0.5-0.5-0.8c-0.5-0.1-1.1,0.3-1.1,0.9C41.5,39.9,42.3,40.2,42.6,39.8 M26.7,51.4c-0.6-0.6-1.3-1.1-2.1-1.3
		c-0.1,0.1-0.1,0.2,0,0.3c0.3,0.7,0.9,1.2,1.7,1.3C26.4,51.6,26.6,51.5,26.7,51.4 M75,48.9c-0.2-0.2-0.6-0.2-0.8,0
		c-0.2,0.2-0.4,0.4-0.7,0.5c0,0.2,0,0.4,0,0.6c0.4,0.1,0.8,0,1.1-0.2C74.9,49.6,75.2,49.2,75,48.9 M95.1,43.6
		c-0.1,0.1,0.2,0.2,0.3,0.2c1-0.1,1.9-0.5,2.7-1.2c-0.8,0.2-1.7,0.4-2.5,0.6C95.4,43.4,95.3,43.5,95.1,43.6 M55.4,33.3
		c-0.3-0.1-0.7-0.1-1,0c-0.3,0.1-0.5,0.5-0.3,0.8c0.4-0.1,0.9-0.1,1.3-0.1C55.6,33.8,55.6,33.5,55.4,33.3 M83.3,7.8
		c0.2,0,0.4,0,0.6,0c0-0.3,0.2-0.5,0.5-0.6c-0.1-0.2-0.2-0.3-0.3-0.5c-0.2,0.2-0.5,0.2-0.8,0.2C83.2,7.2,83.2,7.5,83.3,7.8
		 M21,115.1c0.3,0.1,0.6-0.1,0.6-0.3c-0.2-0.3-0.6-0.6-0.9-0.6C20.6,114.5,20.7,114.9,21,115.1 M74.7,47.9c0.3,0.3,0.8,0.5,1.3,0.4
		C76,48.2,76,48,76,47.8c-0.4,0.1-0.8,0-1.1-0.2C74.8,47.7,74.8,47.8,74.7,47.9 M37.1,47.6c0-0.3-0.2-0.6-0.4-0.6
		c-0.1,0.5,0.1,1,0.6,1.2c0-0.1,0.1-0.3,0.1-0.4C37.2,47.9,37.1,47.8,37.1,47.6 M85.7,48c0.3-0.2,0.6-0.3,0.9-0.5
		c-0.2-0.1-0.3-0.3-0.3-0.5c-0.2,0.2-0.4,0.5-0.6,0.7C85.6,47.8,85.6,47.9,85.7,48 M20.6,17.4c0,0.3,0.1,0.6,0.1,0.9
		c0.1,0.1,0.2,0.1,0.3,0.1c0.1-0.4,0.1-0.7-0.1-1.1C20.9,17.2,20.7,17.3,20.6,17.4 M41.2,40.8c-0.4,0-0.6,0.6-0.3,0.8
		c0.2,0,0.4-0.1,0.6-0.2C41.4,41.2,41.3,41,41.2,40.8 M3.8,46.4c0.2,0.1,0.4,0.1,0.6,0.2c0-0.2,0.1-0.4,0.3-0.5
		C4.3,46,4,46,3.6,46.1C3.6,46.2,3.7,46.3,3.8,46.4 M72.7,17.6c-0.2,0.2-0.3,0.4-0.4,0.7c0,0.2,0,0.4,0.1,0.6
		C72.7,18.5,72.8,18.1,72.7,17.6"/>
	<path class="st0" d="M40.3,48.7c-0.2,0.1-0.5,0.1-0.7,0.2c-0.1-0.1-0.1-0.2-0.1-0.3c0.2-0.1,0.5-0.2,0.7-0.2
		C40.3,48.5,40.3,48.6,40.3,48.7"/>
	<path class="st0" d="M59.6,56.4c0.2,0.5,0.3,1,0.4,1.6c0.2,0.5-0.3,1-0.7,1.3c-0.3,0-0.4-0.4-0.4-0.7c0-0.3,0.1-0.6-0.2-0.8
		c-0.3-0.3,0.4-0.9,0.1-1.3C59.1,56.4,59.4,56.4,59.6,56.4"/>
	<path class="st0" d="M73.5,79.6c0.2,0,0.4-0.1,0.7-0.1c0.2,0.7,0.6,1.4,1,2c0.5,0.6,1.1,1.3,0.9,2c-0.4,0-0.8-0.1-1.2-0.4
		c-0.4-0.3-0.6-0.7-0.9-1.1C73.6,81.4,73.1,80.4,73.5,79.6"/>
	<path class="st0" d="M54.6,73.1c-0.4-0.2-0.7-0.6-0.7-1.1c-0.1-1.1-0.4-2.2-0.9-3.2c-0.2-0.4-0.5-0.8-0.4-1.3
		c0.1-0.5,0.7-0.8,1-0.5c0.6,1.3,1.1,2.6,1.4,4c0.1,0.3,0.2,0.7,0.2,1c0,0.3-0.1,0.6-0.3,0.8C54.8,73,54.7,73,54.6,73.1"/>
	<path class="st0" d="M64.5,71c0.5,0.7,1.1,1.5,1,2.4c-0.3,0.2-0.7-0.1-1-0.4c-0.9-0.9-1.7-1.9-2.5-2.9c-0.2-0.3-0.5-0.6-0.5-1
		c0-0.4,0.3-0.8,0.6-0.8c0.3,0,0.5,0.3,0.6,0.5c0.3,0.4,0.6,0.8,0.9,1.2C64,70.3,64.3,70.6,64.5,71"/>
	<path class="st0" d="M41.9,81.3c0.2-1.2,0.5-2.3,0.9-3.3c0.1-0.4,0.3-0.8,0.6-1.2c0.3-0.3,0.8-0.5,1.2-0.4c0.1,0.4,0.1,0.8-0.2,1.1
		c-0.3,0.6-0.5,1.2-0.7,1.9c-0.3,0.6-0.5,1.2-0.6,1.9c-0.1,0.4,0,0.7-0.2,1.1c-0.2,0.3-0.6,0.5-0.9,0.3c-0.1-0.2-0.2-0.4-0.3-0.5
		C41.8,81.9,41.9,81.6,41.9,81.3"/>
	<path class="st0" d="M59.8,82c-0.3,0-0.5,0.1-0.8,0.1c-0.3-0.6-0.6-1.3-0.8-1.9c-0.5-1.1-1-2.2-1.7-3.2c-0.2-0.2-0.2-0.6,0-0.8
		c0.2-0.2,0.5-0.3,0.8-0.2c0.3,0.3,0.5,0.5,0.7,0.8c0.4,1,0.9,2,1.3,3.1C59.6,80.6,59.9,81.3,59.8,82"/>
	<path class="st0" d="M48.1,66.6c-0.2,1-0.3,2.1-0.5,3.1c-0.1,0.6-0.2,1.3-0.4,1.9c-0.1,0.5-0.3,1-0.6,1.4c-0.2,0.4-0.7,0.9-1.1,0.7
		c-0.2-0.4-0.1-0.9,0.1-1.3c0.2-0.4,0.5-0.8,0.5-1.3c0.1-0.9,0.3-1.8,0.4-2.8c0-0.2,0.1-0.5,0.2-0.7C46.9,66.9,47.5,66.5,48.1,66.6"
		/>
	<path class="st0" d="M59.5,70.9c0.4,0.7,0.8,1.5,1.1,2.2c-0.3,0.3-0.8,0.2-1.1-0.1c-0.3-0.2-0.5-0.6-0.7-0.9
		c-0.6-1-1.1-2.1-1.7-3.1c-0.2-0.3-0.3-0.6-0.4-0.9c-0.1-0.2-0.1-0.5-0.1-0.7c0.1-0.2,0.3-0.4,0.5-0.4c0.2,0,0.3,0.2,0.4,0.4
		C58.3,68.6,58.9,69.7,59.5,70.9"/>
	<path class="st0" d="M41.4,74.4c-0.2,0.4-0.8,0.2-1-0.2c-0.2-0.4,0-0.8,0.2-1.2c0.5-1.1,0.9-2.1,1.3-3.2c0.2-0.5,0.4-1,0.7-1.4
		c0.3-0.4,0.8-0.8,1.3-0.7c0,0.6-0.3,1.3-0.5,1.8C42.8,71.1,42.1,72.7,41.4,74.4"/>
	<path class="st0" d="M47,77.6c0.2-0.8,0.3-1.7,0.3-2.5c0.2,0,0.4-0.2,0.5-0.4c0.2,0,0.4,0,0.5,0c0.2,0.8,0.1,1.7-0.2,2.5
		c0.2,0.4,0.4,0.9,0.6,1.3c0.2,0.5,0.5,0.9,0.5,1.5c0,0.9,0,1.9,0,2.8c0,0.2,0.1,0.4,0.3,0.4c-0.3,0.4-0.3,0.9-0.2,1.4
		c-0.3,0-0.6,0-0.8,0.1c-0.9-1.8,0.4-4.3-0.8-5.9C47.3,78.3,47.1,77.9,47,77.6"/>
	<path class="st0" d="M53.4,83.4c0.1-0.1,0.2,0.1,0.2,0.2c-0.2,0.2-0.4,0.5-0.4,0.8c-0.1,0.2-0.4,0-0.5-0.2c-0.2-0.6-0.4-1.3-0.5-2
		c0-0.2,0-0.4,0.1-0.6c0.1-0.2,0.3-0.4,0.2-0.6c-0.3-0.7,0.4-1.4,0.8-2.1c0.3-0.6,0.4-1.4,0-2c-0.5-0.7-0.7-1.5-0.7-2.3
		c0.5,0,1,0.3,1.3,0.7c0.2,0.7,0.5,1.4,0.7,2c0.2,0.5,0.4,1.2,0,1.6c-0.6,0.7-1.1,1.6-1.2,2.6C53.6,82.1,53.8,82.8,53.4,83.4"/>
	<path class="st0" d="M46.2,63.5c-0.1,0.9-0.3,1.8-0.4,2.7c0,0.2-0.1,0.4-0.2,0.6c-0.4,0.4-1-0.1-1.1-0.5c-0.1-0.5,0.2-1,0.3-1.5
		c0.2-0.6,0.1-1.4-0.2-1.9c-0.5-1-1.7-1.5-2.2-2.5c-0.1,1.8-0.1,3.5-0.2,5.3c0,0.5-0.5,1.3-0.9,0.9c-0.6-2.6-0.5-5.3,0.4-7.8
		c-0.4,0.3-1,0.6-1.5,0.5c-0.5-0.1-0.9-0.8-0.6-1.2c1.2-1.5,1.9-3.4,1.8-5.3c0-0.9,1.2-1.4,2.1-1.4c2.7-0.1,5.4,0.7,8.1,0.2
		c1.9-0.3,4-1.1,5.4,0.1c1.1,0.9,1.2,2.5,1.1,3.9c-0.1,1.4-0.4,2.8,0.2,4.1c0.8,1.9,1.2,4.1,1,6.2c-0.5,0.3-1-0.4-1.1-1
		c-0.3-1.6-0.5-3.2-0.8-4.8c-0.2,0.5-0.7,0.8-1.1,1.3c-1.1,1.3-0.9,3.3-0.6,5c-0.4,0.4-1.1-0.1-1.2-0.6c-0.2-0.5,0-1.1-0.1-1.6
		c-0.1-0.5-0.6-1.1-1.1-0.9C51.1,64.1,48.5,64.3,46.2,63.5 M42.6,57.2c0,1.8,1.1,3.5,2.8,4.2c0-1.7,0.3-3.4,0.7-5.1
		c0.6,0.1,1.1,0.5,1.5,1c-0.3,1.6-0.8,3.2-1.3,4.7c2.1,0.9,4.6,0.9,6.6-0.2c0.4-0.2,0.9-0.5,0.9-1c0-0.3-0.2-0.6-0.4-0.9
		c-0.5-0.6-1.1-1.2-1.3-2c-0.2-0.8,0.2-1.8,1-1.8c0.2,0.1,0.4,0.2,0.6,0.2c-0.1,1.2,0.4,2.3,0.9,3.3c0.1,0.2,0.2,0.5,0.5,0.6
		c0.4,0.2,0.9-0.1,1.1-0.4c0.5-0.7,0.5-1.5,0.5-2.4c0-1.3,0-2.6,0-3.9c0-0.3,0-0.5-0.1-0.8c-0.2-0.4-0.8-0.5-1.2-0.5
		c-1.3,0-2.7,0.1-4,0.4c-0.4,0.1-0.7,0.2-0.9,0.5c-0.2,0.2-0.2,0.5-0.2,0.7c-0.1,1.1,0,2.2,0.3,3.2c-0.2,0.6-0.2,1.2-0.2,1.8
		c-0.5,0-1-0.4-1.2-0.9c-0.2-0.5-0.2-1.1-0.2-1.6c0-0.8,0-1.6,0-2.4c0-0.5-0.4-1-0.9-1.2c-0.5-0.2-1-0.2-1.6-0.2c-0.7,0-1.5,0-2.2,0
		c-0.4,0-0.9,0-1.2,0.4c-0.2,0.3-0.2,0.6-0.2,0.9C42.6,55.1,42.6,56.1,42.6,57.2"/>
</g>
</svg>
