<?xml version="1.0" encoding="utf-8"?>
<!-- Generator: Adobe Illustrator 19.1.0, SVG Export Plug-In . SVG Version: 6.00 Build 0)  -->
<svg version="1.1" id="Layer_1" xmlns="http://www.w3.org/2000/svg" xmlns:xlink="http://www.w3.org/1999/xlink" x="0px" y="0px"
	 viewBox="0 0 100 123" style="enable-background:new 0 0 100 123;" xml:space="preserve">
<style type="text/css">
	.st0{fill:#00BCD4;}
</style>
<g id="fireant">
	<path class="st0" d="M26.1,59.1c2.3-0.9,4.4-2.2,6.8-2.8c2.4-0.6,5.3-0.1,6.7,1.9c1.2,1.6,1.6,4.4,3.6,4.5c1.8,0,3.4-1.4,3.8-3.1
		c-3.2-0.4-5.9-2.7-7.5-5.6c-1.5-2.8-2-6.1-2.1-9.3c-0.1-3.1-3.2-5-5.8-6.6c-2.6-1.6-5.5-4.1-5-7.1c0.5-2.6-1.4-4.9-2.9-7
		c-1.5-2.2-2.5-5.3-0.7-7.1c3.1,3.8,5.3,8.3,6.3,13c1,4.7,6.4,6.8,9.7,10.3c2.2,2.2,3.6,5.2,3.9,8.3c0.3,3,0.3,7.1,3.3,7.9
		c-2.7-5-0.8-11.9,4.1-14.8c-3.1,1.7-7.6,0.1-8.7-3.3c-2.3-6.5-1-14.2,3.2-19.6c-4.1-0.8-8.4-0.5-12.4,0.9c-1.5,0.6-3.1-1.2-2.9-2.8
		c0.1-1.6,1.3-2.9,2.4-4.1C37.1,7.7,43,3.4,49.4,0c0.6,1.5-0.1,3.3-1.3,4.4C47,5.5,45.4,6.2,44,6.9c-4.6,2.3-8.6,5.7-11.7,9.8
		c4-1.4,8.4-1.6,12.5-0.6c1.1-3.3,4.5-5.7,7.9-5.6c3.5,0.1,6.7,2.6,7.6,5.9c4.2-0.7,8.6-0.4,12.6,1.1c-3.6-5-8.4-9.1-13.8-11.9
		c-1-0.5-2-1-2.6-1.9C55.9,2.8,56,1.4,57,0.9c1-0.5,2.1,0.3,2.9,1c4,3.3,8,6.7,11.9,10c1.6,1.3,3.3,2.9,3.7,5
		c0.3,2.1-1.7,4.5-3.6,3.6c-3.7-1.6-7.9-2.1-11.9-1.3c2.8,4.4,4,9.7,3.5,14.9c-0.3,2.7-1.1,5.4-3.1,7.2c-2,1.8-5.3,2.4-7.3,0.6
		c4.4,3,6.1,9.3,3.8,14.1c0.7,0,1.3-0.1,2-0.1c0.8-5.6,1.8-11.7,6-15.5c1.8-1.6,4.1-2.7,6.1-4.1c2-1.5,3.8-3.5,3.9-6
		c0.2-4.3,5.6-7.2,5.4-11.5c1.4-0.7,2.9,1.2,2.6,2.7c-0.3,1.5-1.5,2.7-2.5,4c-1.9,2.5-2.5,5.8-3.7,8.7c-1.2,2.9-3.3,5.9-6.5,6.3
		c-2.1,0.3-3.6,2.4-4.2,4.5c-0.6,2.1-0.6,4.3-1.1,6.4c-1.1,4.2-4.7,7.6-8.9,8.6c-1.1,1.7,1.5,3.7,3.4,3c1.9-0.7,3-2.6,4.2-4.2
		c1.3-1.6,3.5-2.9,5.2-1.9c8.1,5,18.2,6.8,27.5,5c1.4-0.3,3.6,0,3.3,1.5c-0.2,0.9-1.3,1.2-2.2,1.3c-10.3,1-21.7,1.7-29.9-4.6
		C66,62.7,63,65,59.7,66c-1.2,0.4-2.8,0.8-3.1,2c-0.2,0.5-0.1,1,0,1.4c0.8,3.6,4.3,6.4,8,6.3c4.4-0.1,7.9,3.7,9.7,7.7
		c1.8,4,2.6,8.5,4.9,12.2c4.4,7.1,13,10,19.9,14.5c0.3,0.2,0.6,0.4,0.6,0.7c0.1,0.6-0.7,1-1.4,1c-3.1,0.1-5.8-1.7-8.4-3.4
		c-2.6-1.8-5.2-3.5-7.9-5.3c-1.6-1.1-3.3-2.2-4.5-3.8c-1.3-1.6-2.1-3.6-2.8-5.6c-1.5-4.2-3.1-8.4-4.6-12.6
		c-4.9,1.4-9.3-4.6-14.4-4.1c-0.5-1.5-1.4-2.8-2.5-3.8c1.1,4.1,1.3,8.5,0.4,12.7c1.8-0.7,3.9,0.1,5.3,1.4c1.4,1.3,2.2,3.2,2.9,5
		c2,5.5,2.6,11.7,1,17.3c-1.6,5.7-5.7,10.7-11.2,12.8c-0.9,0.3-1.9,0.6-2.8,0.5c-0.9-0.1-1.6-0.5-2.4-1c-6.2-4-10-11.3-9.7-18.7
		c0.1-2.8,0.7-5.6,1.4-8.3c0.6-2.6,1.4-5.4,3.2-7.4c1.8-2,5-3.1,7.3-1.6c-1.5-0.7-1.7-2.7-1.6-4.4c0.2-2.8,0.9-5.6,1.9-8.3
		c-4.8,4-10.8,6.5-17,7.2c-0.6,0.1-0.9,0.7-1.1,1.1c-2,4.4-3.9,8.8-5.6,13.3c-1.1,2.9-3.9,4.6-6.5,6.2c-3.3,2-6.7,4-10.1,6
		c-2.7,1.6-6.3,3.2-8.8,1.3c5.1-2.9,10.2-5.8,15.3-8.6c1.4-0.8,2.7-1.5,3.9-2.6c3.8-3.3,5.1-8.5,7.1-13.1c2-4.6,5.9-9.3,10.9-9
		c4.4,0.2,8.6-3.6,8.7-8c-4.3-1.7-9.1-3.9-10.9-8.2c-3.9,2.8-8.7,4.5-13.5,4.7c-2,0.1-4-0.1-6-0.3c-2.7-0.2-5.4-0.5-8.1-0.7
		c-1-0.1-2.1-0.2-3-0.8c-0.9-0.6-1.4-1.8-0.8-2.7C11.1,60.5,19,61.9,26.1,59.1 M46.9,89.7c1,0.3,2,0.5,3,0.8c-0.6,1-1.6,1.8-2.7,2.3
		c-0.1,0.3-0.2,0.6-0.3,0.8c-0.6,0.1-1.3,0.2-1.9,0.4c-0.1,0.3-0.1,0.5-0.2,0.8c1.2,0.2,2.4-0.3,3.4-1c0.8-0.6,1.7-1.3,2-2.3
		c0.3-1,0-2.2-1-2.6c-1.7-0.3-3.6-0.5-5,0.5c-1.1,0.8-1.6,2.1-2,3.4c-0.5,1.4-0.9,2.7-1.4,4.1c0.3,0.1,0.6,0.2,0.9,0.2
		c0.6-2.1,1.9-4.1,3.7-5.4c0.3-0.4,0.4-0.9,0.2-1.3C46.3,90.4,46.7,90.2,46.9,89.7 M53.2,12.4c-0.6-0.4-1.6-0.1-2.1,0.6
		c-0.5,0.6-0.6,1.5-0.7,2.3c-0.1,0.6-0.2,1.3,0.1,1.9c0.2,0.6,0.7,1.2,1.4,1.1c0.1,0,0.3,0,0.4-0.1c0.9-0.2,1.7-0.6,2.3-1.3
		c0.6-0.7,0.6-1.9,0-2.4C54,14,53.9,12.9,53.2,12.4 M48.7,26.6c1.1-0.1,2.2-0.8,2.8-1.8c-3,0.1-5.8,2.6-6.1,5.6
		c0.4,0.3,0.9-0.2,1.1-0.6C47.2,28.8,47.9,27.7,48.7,26.6 M43.1,113.3c0,0.3,0,0.6-0.1,0.9c1.6,1.2,3.7,1.6,5.7,1.2
		c0.4-0.3-0.2-0.9-0.7-1C46.4,114,44.8,113.6,43.1,113.3 M49,62.9c-0.4,0.7-0.7,1.5-1,2.2c1.1-0.7,2.1-1.5,2.9-2.4
		c-0.2-0.3-0.6-0.5-0.9-0.6C49.7,62.5,49.3,62.7,49,62.9 M50.9,45.7c0.5-0.3,0.9-0.6,1.4-1c-1.5-0.1-3.1,1-3.5,2.5
		C49.7,47,50.4,46.5,50.9,45.7 M51.3,56.4c0.1-0.3-0.1-0.8-0.4-0.8c-0.4,0.4-0.7,0.7-1.1,1.1c0.4,0.1,0.8,0.6,0.7,1.1
		C50.8,57.3,51.1,56.9,51.3,56.4"/>
</g>
</svg>
