<?xml version="1.0" encoding="utf-8"?>
<!-- Generator: Adobe Illustrator 19.1.0, SVG Export Plug-In . SVG Version: 6.00 Build 0)  -->
<svg version="1.1" id="Layer_1" xmlns="http://www.w3.org/2000/svg" xmlns:xlink="http://www.w3.org/1999/xlink" x="0px" y="0px"
	 viewBox="0 0 100 86.6" style="enable-background:new 0 0 100 86.6;" xml:space="preserve">
<style type="text/css">
	.st0{fill:#00BCD4;}
</style>
<g id="flea">
	<path class="st0" d="M26.7,43.3c-1.6-0.8-1.7-3.1-1.9-4.9c-0.3-2.8-1.6-5.5-2.4-8.2c-0.8-2.8-1-5.9,0.6-8.3c-0.7-1.6-0.4-3.7,0.7-5
		c-1.9,0.3-3.8,0.4-5.7,0.4c0.9,1.9,1,4.3,0.2,6.3c-0.8,1.9-2.4,3.9-1.8,5.9c0.3,1.1,1.2,1.8,2,2.6c1.7,1.6,3.3,3.7,3.7,6
		c0.4,2.4-0.5,5.1-2.6,6.2c-4.2,2.3-8.1,5.1-11.5,8.4c-0.9,0.8-1.7,1.7-2.1,2.9c-0.4,1.1-0.1,2.6,0.9,3.2c-1.5-0.6-2.4-2.2-2.2-3.8
		c-0.7,0.9-0.9,2.2-0.6,3.3c-0.9-0.6-1.1-1.9-0.7-3c0.4-1,1.2-1.8,2-2.6c2.1-2.1,4.3-4.2,6.4-6.3c2.8-2.7,6.1-5.6,9.9-5.2
		c-2.2-0.7-4.4-1.7-6-3.3c-1.3-1.2-2.2-2.7-3-4.3c-3-6.1-4-13.1-2.7-19.8c-2.5,4-4.2,8.6-4.9,13.2c-0.7-3.3,0.5-6.7,1.7-9.9
		C5.4,20.4,4,23.7,2.6,27c0.8-3.2,1.7-6.4,2.6-9.6c-1.4,2.8-2.7,5.6-4.1,8.5c0.4-2.8,1.4-5.5,2.8-7.9c-1.1,0.8-2,2-2.5,3.3
		c-0.3-0.5-0.5-1.1-0.8-1.6c3.2-2.4,5.1-6.4,5-10.4c-0.1-3.3,2.5-6.2,5.5-7.5c3-1.3,6.4-1.4,9.7-1.4c2.8,0,5.6,0,8.4-0.1
		c6-0.1,12-0.1,18-0.1c1,0,2,0,3,0.4c1.7,0.8,3.6,0.5,5.4,0.6C58.9,1.1,62,2.2,65,3.3c1.7,0.6,3.4,1.3,5,1.9
		c3.7,1.4,7.1,3.1,10.4,5.3c1.9,1.3,3.7,2.6,5.3,4.3c3.9,4.1,6.1,9.6,8.2,14.9c0.5,1.2,0.9,2.5,0.6,3.7c-1.9,6.6-7.4,12.1-14.1,13.9
		c-1.3,0.4-3,0.9-3.1,2.2c-0.1,0.9,0.6,1.7,1.3,2.4c5.1,5,10.4,10.1,17,12.7c1.4,0.6,2.9,1.1,3.9,2.3c0.9,1.2,0.7,3.3-0.7,3.8
		c0.5-1,0.6-2.2,0.2-3.3c-0.2,1.5-1.1,2.8-2.3,3.6c1.2-0.6,1.1-2.5,0.3-3.5c-0.9-1-2.2-1.5-3.5-2c-6-2.4-10.8-7-15.7-11.2
		c-2.2-1.8-4.7-3.7-7.5-3.5c-0.9,0.1-1.8,0.3-2.7,0.5c-3.3,0.7-6.9,0.1-9.8-1.7c1.1,2.7,3.7,4.3,6,6.2c2.2,1.8,4.4,4.4,4.1,7.2
		c3.5,3.1,7,6.3,10.6,9.5c2.9,2.6,5.9,5.3,9.6,6.6c1.8,0.6,3.8,1,5.2,2.3c1.4,1.3,1.6,4.1-0.1,4.9c0.6-1.2,0.6-2.8-0.2-4
		c0.1,1.7-0.9,3.5-2.4,4.3c0.6-0.8,1.3-1.7,1.2-2.7c-0.2-1.3-1.7-1.9-2.9-2.3c-4.6-1.8-8.6-4.8-12.5-7.8c-3.3-2.6-6.7-5.1-10.1-7.7
		c-2.3-1.8-4.7-3.6-6.1-6.1c-1.2-2-1.7-4.2-2.9-6.2c-1.2-2-3.2-3.7-5.5-3.5c-5,0.6-10.3-2.6-12.1-7.3c-1-2.6-3-4.8-4.5-7.2
		c-1.6-2.4-2.9-5.1-2.4-7.9c-0.6,2.2-1.9,4.1-3.7,5.5c-1,0.7-0.8,2.3,0,3.2c0.8,0.9,1.9,1.4,3,2c2.5,1.4,4.4,3.7,5.4,6.4
		c0.4,1.1,0.3,2.7-0.8,2.9c3,2.7,3.9,7.5,2.2,11.1c0.7,1.6,1.5,3.2,2.2,4.9c0.4,0.8,0.7,1.7,0.1,2.3c2,1.1,3.6,3,4.4,5.1
		c2.4,0.3,4.1,3.1,3.2,5.4c0-0.8-0.3-1.6-0.8-2.2c0.1,1.7-1.1,3.3-2.7,3.7c1.2-0.6,1.5-2.3,1-3.5c-0.5-1.3-1.6-2.2-2.5-3.1
		c-2.6-2.7-4.5-6-5.5-9.6c-0.5-1.8-1.7-3.3-2.4-5s-1.2-3.8-0.1-5.3c0.7-1.1,0.4-2.6-0.4-3.6c-0.8-1-2-1.6-3.1-2.2
		C30.1,45,28.4,44.2,26.7,43.3 M44.2,39.3c-0.1-1.2-1.1-2.3-2.3-2.4c1.2-2.2,2.4-4.6,2.2-7.1c-0.2-2.3-1.6-4.4-3.7-5.4
		c1.2,1.5,2.5,3,2.8,4.9c0.4,2.4-0.7,4.8-1.9,6.9c-0.3,0.5,0.1,1.1,0.6,1.4c0.5,0.3,1,0.5,1.4,1c0.3,0.5,0.1,1.3-0.5,1.3
		c-1.1-0.1-2.2,0.4-2.8,1.2c-0.1,0.1-0.2,0.3-0.1,0.5c0.1,0.2,0.5,0,0.7-0.1c1.3-1.2,3.3-1.3,5.1-1.1c4.2,0.5,8.5,2.8,10.2,6.7
		c0.2,0.4,0.5,1,1,0.8c-0.7-2.4-2.4-4.5-4.6-5.9c-2.1-1.4-4.7-2-7.2-2.1C44.7,39.8,44.2,39.7,44.2,39.3 M57.7,13.6
		c0.7,2.5,1.6,5,1.4,7.6c-0.3,3.5-2.8,6.4-5.6,8.5c-0.3,0.2-0.6,0.5-0.6,0.8c4.6-2,7.5-7.2,6.8-12.1c-0.3-1.9-1-3.7-1.5-5.6
		C57.7,11,57.4,9,58.1,7.2c0.5-1.3,1.4-2.4,1.9-3.7c-1.6,1-2.5,2.8-2.7,4.6C56.9,9.9,57.3,11.8,57.7,13.6 M50.9,12.7
		c-0.4-1.2-1.3-2.2-1.4-3.4c-0.1-1.3,0.7-2.4,1.4-3.6C51.5,4.6,51.8,3,51,2.1c0,1.5-0.4,2.9-1.1,4.2c-0.4,0.7-0.9,1.5-1.1,2.3
		c-0.3,2,1.6,3.7,1.6,5.6c0,2.1-2,3.7-2.9,5.6c-0.6,1.4-0.6,3-0.9,4.5c-0.3,1.7-0.8,3.3-1.7,4.9c1.5-0.8,2.1-2.7,2.3-4.3
		c0.2-1.7,0.3-3.5,1-5c0.7-1.4,1.9-2.4,2.5-3.9C51.3,15,51.3,13.8,50.9,12.7 M75.7,23.4c0.5-1.9,0.8-3.8,1.5-5.6
		c0.7-1.7,1.7-3.2,2.9-4.5c0.2-0.2,0.4-0.5,0.2-0.7c-2.2,1.4-3.4,4-4.2,6.5c-0.8,2.5-1.2,5.1-2.3,7.5c-1.2,2.6-3.2,4.8-5.6,6.3
		c-0.3,0.2-0.6,0.6-0.3,0.8C71.9,31.7,74.5,27.6,75.7,23.4 M63.4,31.1c4.1-2.4,6.3-7.2,7-11.9c0.2-1.1,0.2-2.1,0.5-3.2
		c0.4-1.7,1.2-3.3,1.9-4.9c0.3-0.5,0.5-1.1,0.8-1.6c-1.9,1.6-2.8,4.1-3.4,6.5c-0.5,2.4-0.8,4.9-1.6,7.3c-0.9,2.7-2.7,5.1-4.9,6.9
		C63.5,30.4,63.2,30.8,63.4,31.1 M51,17.3c1.7,2.3,2.4,5.2,1.9,8c-0.7,4-3.5,7.2-5.5,10.7c-0.5,0.8-0.9,1.7-0.7,2.6
		c1.7-3.2,4-6,5.6-9.2c1.6-3.2,2.3-7.2,0.6-10.3C52.4,18.3,51.8,17.6,51,17.3 M85.4,16.7c-2.3,1.1-3.5,3.7-4.2,6.1
		c-0.8,2.4-1.2,5-2.7,7.1c-0.8,1.2-2,2.2-3.2,3.1c-0.6,0.5-1.3,0.9-2,1.3c-0.2,0.2-0.4,0.6-0.2,0.6c3.8-1.6,6.8-5,7.9-9
		c0.3-1,0.4-1.9,0.7-2.9C82.5,20.7,84,18.7,85.4,16.7 M61,23.9c-0.2-0.2-0.7-0.4-0.8-0.1c1.4,1.5,2,3.7,1.7,5.7
		c-0.3,2-1.4,3.9-2.9,5.3c-1.1,1.1-2.5,1.9-3.6,2.9c-1.2,1-2.1,2.4-2.2,4c0.9-1.6,2.1-3,3.6-4.2c1-0.9,2.2-1.6,3.1-2.6
		c1.5-1.4,2.6-3.3,2.8-5.4C63,27.6,62.5,25.5,61,23.9 M63.1,49.6c0.3-1.7-0.2-3.3-0.2-5c0-4.3,3-8,4.2-12.1c0.4-1.3,0.6-2.7,0-3.9
		c-0.3,2.6-1,5.1-2.1,7.4c-0.7,1.4-1.4,2.8-2,4.3C62,43.3,62,46.7,63.1,49.6 M32.8,26.3c0.2-0.2,0.3-0.5,0.5-0.8
		c0.9-2,0.2-4.7-1.5-6c1.4-0.3,2.5-1.4,2.8-2.8S34.2,13.8,33,13c-1-0.7-2.4-0.8-3.6-0.6c-1.2,0.3-2.3,0.9-3.3,1.6
		c-0.2,0.1-0.4,0.4-0.4,0.6c1.2-0.3,2.2-1.1,3.4-1.5c0.9-0.3,1.9-0.3,2.8,0.1c0.9,0.4,1.6,1.1,1.9,2.1c0.2,1-0.1,2.1-0.8,2.9
		c-0.7,0.8-1.6,1.3-2.6,1.5c-0.3,0.1-0.6,0.3-0.4,0.5c0.8-0.3,1.8,0.1,2.4,0.9c0.5,0.7,0.7,1.7,0.6,2.6C33,24.5,32.8,25.4,32.8,26.3
		 M63.1,26.2c1-0.9,1.4-2.3,1.6-3.6c0.3-1.8,0.3-3.8,0-5.6c-0.6-3.6,0.1-7.4,2.1-10.4c-2.5,1.7-3.1,5.2-3,8.2c0.1,3,0.7,6.1-0.2,9
		C63.5,24.6,63.1,25.4,63.1,26.2 M72.3,31c-0.2,1.5-0.5,3-0.9,4.4c-0.6,2.4-1.5,4.7-1.9,7.2c-0.3,2.1-0.3,4.2,0.2,6.3
		c0.3,0,0.4-0.4,0.4-0.7c-0.2-2.1,0-4.3,0.4-6.4c0.7-3.7,2.4-7.2,2.3-11C72.7,30.8,72.5,30.8,72.3,31 M8.4,12
		c-0.6-0.1-1.2-0.2-1.7-0.4c1.6,1.2,3.8,1.6,5.7,0.8c1.1-0.4,2.1-1.2,3.2-1.8c1.5-0.7,3.3-1,4.6-2c1.9-1.6,2.2-4.4,1.7-6.8
		c-0.1,0.8-0.3,1.6-0.4,2.5c-0.2,1.2-0.4,2.5-1.3,3.5C19,9.1,17,9.3,15.4,10.1c-1.4,0.7-2.6,1.8-4.1,2.1C10.3,12.4,9.4,12.2,8.4,12
		 M37.1,18.8c0.4-0.3,0.4-0.8,0.3-1.3c-0.3-5.1,3-9.7,3.6-14.8c0.1-0.4,0-0.9-0.4-1c-0.3,1.3-0.6,2.6-1,3.9
		c-0.7,2.2-1.6,4.3-2.2,6.4C36.9,14.3,36.6,16.6,37.1,18.8 M77.7,35.7c2.7-0.1,5.1-1.9,6.7-4.1c0.9-1.2,1.6-2.5,2.4-3.7
		c0.9-1.4,2-2.7,3.2-3.9c0.1-0.2-0.3-0.2-0.5-0.1c-3.2,2.1-4.3,6.4-7.2,9C81,34.1,79.3,34.9,77.7,35.7 M76.7,34.2
		c-0.2,1.2-0.3,2.4-0.2,3.6c-0.1,3,0.5,6.1,1.7,8.9c0.3-0.3,0.2-0.8,0.1-1.3c-1-3.9-1.4-8-0.9-12.1C76.9,33.4,76.7,33.9,76.7,34.2
		 M89.8,39.5c-1.4-1.6-2.4-3.6-2.9-5.8c-0.2-0.9-0.3-1.8-0.4-2.8c0-0.4-0.1-0.8-0.1-1.2c-0.2,0-0.3,0.3-0.3,0.5
		c-0.3,3.2,0.7,6.5,2.9,9C89.2,39.5,89.6,39.8,89.8,39.5 M25.1,11.5c1.5-1.9,2.4-4.3,2.7-6.7c0.1-0.9,0.3-2-0.2-2.8
		c-0.2,0-0.2,0.2-0.2,0.4c-0.1,3.3-1.2,6.6-3.1,9.3c0.1,0.2,0.3,0.2,0.4,0.2C24.9,11.8,25,11.6,25.1,11.5 M35.3,1.8
		c-0.1-0.1-0.3-0.1-0.4,0.1c-0.1,0.1-0.1,0.3-0.1,0.4c0,2.8-0.8,5.6-2.2,8.1c-0.2,0.4-0.4,0.8-0.3,1.1c0.6-0.3,1-0.9,1.3-1.5
		c1.3-2.4,2-5.2,1.8-8C35.3,2,35.3,1.9,35.3,1.8 M85.4,44c-0.1-0.4-0.4-0.7-0.7-1c-1.4-1.8-2.4-4-2.7-6.3c-0.1-0.5-0.1-1-0.4-1.3
		c-0.3,0.3-0.3,0.8-0.3,1.2c0.2,2.4,1.2,4.8,2.7,6.7C84.4,43.5,84.9,43.9,85.4,44 M33.9,20.4c0.2-0.1,0.4-0.1,0.6-0.2
		c0.4-0.1,0.8-0.3,1.3-0.3c0.8,0,1.6,0.5,2,1.2c0.3,0.7,0.2,1.7-0.3,2.3c-0.6,0.7-1.5,0.9-2.3,1.1c0.7,0.3,1.6,0.2,2.2-0.2
		c0.7-0.4,1.1-1.1,1.3-1.8c0.1-0.9-0.2-1.8-0.9-2.4c-1.1-1-3-1-4.1,0.1C33.6,20.3,33.7,20.4,33.9,20.4 M24.3,16.1
		c0.5-0.6,0.7-1.5,0.5-2.2c-0.2-0.8-0.7-1.4-1.4-1.8c-0.6-0.3-0.7-1-1-1.5c-0.4-0.6-1-1.1-1.6-1.5C20.6,9,20.3,9,20.4,9.1
		c0.2,0.7,1,1,1.4,1.6c0.2,0.4,0.3,0.8,0.5,1.2c0.3,0.5,0.9,0.7,1.3,1c0.7,0.6,0.9,1.6,0.6,2.4c-0.1,0.2-0.1,0.3-0.1,0.5
		C24,16,24.1,16.1,24.3,16.1 M92,30.3c0.1-0.5,0.3-1,0.4-1.5c-0.1-0.1-0.2-0.1-0.3-0.1c-0.6,0.9-1,2-1.2,3.1c-0.2,1.5,0.2,3,1.3,4
		c0.2-0.3,0-0.7-0.1-1c-0.5-1-0.6-2.1-0.5-3.2C91.7,31.1,91.8,30.7,92,30.3 M11.4,13.7c2.1,0.1,4.3,0.7,5.6,2.4
		c0.1,0.1,0.3,0,0.4-0.2c0-0.2-0.1-0.3-0.2-0.4c-1.1-1.3-2.8-2.1-4.5-2.2C12.3,13.1,11.7,13.2,11.4,13.7 M28,19.6
		c-0.3-0.1-0.6,0-1,0c-1,0.1-2,0.5-2.8,1.1c-0.2,0.2-0.4,0.4-0.3,0.6c0.2,0.1,0.4,0,0.6-0.2c1.3-0.8,2.9-1.1,4.4-1
		c0.1-0.1,0.1-0.2,0.1-0.3C28.7,19.7,28.4,19.6,28,19.6 M10.6,7c-0.3-0.2-0.7-0.1-1,0.1C9.4,7.2,9.1,7.4,9.1,7.7
		c0,0.3,0.1,0.5,0.3,0.6c0.4,0.3,1,0.3,1.4-0.1C11.2,7.9,11.1,7.2,10.6,7 M40.4,37.9c-0.5,0.4-1.2,0.6-1.9,0.4
		c-0.2,0-0.3,0.2-0.2,0.3c0.1,0.2,0.2,0.2,0.4,0.3c1.1,0.3,2.4-0.4,2.7-1.5C41,37.4,40.7,37.7,40.4,37.9 M14.8,28.8
		c0.3-0.1,0.6-0.4,0.5-0.6c-1,0.2-2.1,0.3-3.2,0.1c-0.1,0.2,0.2,0.4,0.4,0.5C13.3,29.1,14.1,29.1,14.8,28.8 M55,50.3
		c0.3,0.3,0.9,0.5,1.3,0.3c0.4-0.2,0.8-0.6,0.8-1.1c0-0.2-0.1-0.5-0.3-0.6C56.6,49.7,55.8,50.1,55,50.3 M13.1,31.2
		c0.8-0.3,1.7-0.5,2.5-0.8c0.2-0.1,0.4-0.2,0.3-0.3c-0.7-0.1-1.5-0.1-2.1,0.3C13.5,30.6,13.1,30.9,13.1,31.2 M27.7,34.3
		c-0.9,0-1.9,0.1-2.8,0.1c0.3,0.4,0.9,0.6,1.4,0.6C26.8,34.9,27.3,34.6,27.7,34.3 M25.7,37.5c0.8,0,1.6-0.1,2.4-0.1
		c0.1,0,0.3-0.1,0.3-0.2c0-0.1-0.1-0.1-0.1-0.1C27.5,36.6,26.3,36.8,25.7,37.5 M5.9,16.2c0.4,0,0.7-0.4,0.9-0.8
		c0.2-0.4,0.3-0.8,0.5-1.1c-0.1-0.2-0.4-0.1-0.5,0c-0.1,0.1-0.2,0.3-0.3,0.5C6.3,15.1,6.1,15.6,5.9,16.2 M66.2,64.6
		c0.4,0.3,1,0.1,1.2-0.3c0.1-0.2,0.1-0.4,0.1-0.6c-0.1-0.1-0.2-0.1-0.2,0C66.9,63.9,66.5,64.2,66.2,64.6 M7.6,14.9
		c0.5-0.1,0.8-0.5,0.8-1c0-0.1-0.1-0.2-0.2-0.3c-0.1,0.1-0.2,0.2-0.3,0.3C7.8,14.2,7.7,14.5,7.6,14.9 M8.9,51.3
		c0.1-0.4-0.4-0.8-0.7-0.6C8.1,51,8.5,51.4,8.9,51.3 M77.8,73.3c0-0.2,0-0.4,0-0.6c-0.3,0.2-0.6,0.4-0.8,0.7
		C77.1,73.7,77.5,73.5,77.8,73.3 M12.2,47.3c-0.1-0.1-0.3,0.1-0.3,0.3c0.2,0.2,0.5,0.3,0.8,0.4C12.7,47.6,12.5,47.3,12.2,47.3
		 M7.1,52.8c-0.2,0-0.4-0.4-0.6-0.3c-0.2,0.1,0,0.4,0.2,0.5C6.9,53.2,7.1,53.1,7.1,52.8 M74,69.7c-0.3,0.1-0.5,0.6-0.2,0.8
		C74,70.3,74.2,69.9,74,69.7 M79.9,75.3c-0.1,0.1-0.2,0.2-0.3,0.3c0.1,0.2,0.3,0.3,0.5,0.3c0-0.1,0.1-0.3,0.2-0.3
		C80.4,75.3,80.1,75.2,79.9,75.3 M14,45.9c0.2,0.2,0.5,0.1,0.6-0.2c-0.2-0.2-0.5-0.3-0.7-0.1C13.9,45.8,13.9,45.9,14,45.9
		 M10.8,49.4c0-0.3-0.3-0.6-0.6-0.6C10.3,49.2,10.5,49.4,10.8,49.4 M85.3,58.9c0.1-0.1,0-0.3-0.2-0.3c-0.2,0.1-0.3,0.3-0.4,0.4
		c0.1,0.1,0.2,0.1,0.3,0.2C85.1,59.1,85.2,59,85.3,58.9"/>
	<path class="st0" d="M32.8,38.3C32.1,37.5,31,37,30,36.8c-0.2,0-0.4-0.1-0.5-0.2c-0.1-0.1-0.1-0.2-0.2-0.4
		c-0.2-0.6-0.4-1.3-0.6-1.9c0.6-0.4,1.2-0.8,1.7-1.3c0.4-0.3,0.7-0.5,1.2-0.6c0.4-0.1,0.9,0.1,1.1,0.6c0.4,1.1,0.7,2.2,1.3,3.3
		c0.6,1,1.4,1.9,2.5,2.4c0.3,0.1,0.7,0.3,0.8,0.6c-1.2,0.6-2.8,0.5-3.8-0.4C33.3,38.7,33.1,38.5,32.8,38.3"/>
	<path class="st0" d="M55.8,56.8c0.4,0.7,1.2,1,1.9,1.5c0.9,0.6,1.6,1.7,1.6,2.9c0,0.6-0.2,1.3-0.8,1.3c0.2-0.7,0.3-1.7-0.4-2.1
		c-0.1,0.7-0.2,1.5-0.6,2.1c-0.4,0.6-1.1,1.1-1.8,1.1c0.2-0.9,1.6-1.3,1.5-2.2c-0.1-0.8-1.3-1-1.7-1.7c-0.2-0.3-0.2-0.7-0.3-1.1
		c-0.1-0.4-0.3-0.8-0.7-0.7c-0.5,0-0.8-0.6-0.9-1c-0.1-0.5-0.4-1.1-0.8-1.2c-0.9-0.2-1-1.3-1.5-2.1c-0.3-0.4-0.6-0.7-0.9-1.2
		c-0.3-0.4-0.4-1-0.1-1.4c0.3,0.4,0.8,0.3,1.3,0.4c0.5,0,1,0.4,0.9,0.8c-0.3,0.9,1.5,1.3,1.4,2.3c-0.1,0.8,1.2,1,1.6,1.7
		C55.7,56.2,55.7,56.5,55.8,56.8"/>
	<path class="st0" d="M2.5,51.1c-0.9-0.2-1-1.4-1-2.4c0-0.5,0.1-1,0.1-1.5c-0.9,0.7-1.3,1.9-1.1,3c-0.8-0.7-0.7-2.1,0-3
		c0.6-0.9,1.6-1.4,2.6-1.9c2.9-1.5,5.9-3,8.8-4.4c1.3-0.6,2.6-1.3,4.1-1.3c1,0,1.9,0.4,2.7,1c-1.2,0.5-2.4,1.1-3.5,1.6
		c-0.5,0.2-1,0.4-1.5,0.5c-1,0-1.9,0.5-2.8,0.9c-2.3,1.1-4.6,2.2-6.9,3.3c-0.9,0.4-1.9,1.1-2,2.1C2.1,49.7,2.6,50.4,2.5,51.1
		 M6,44.5c-0.1,0.1-0.2,0.3-0.2,0.5c0.1,0.1,0.2,0.1,0.4,0.1c0.1-0.1,0.1-0.2,0.1-0.4C6.1,44.6,6.1,44.6,6,44.5"/>
</g>
</svg>
