<?xml version="1.0" encoding="utf-8"?>
<!-- Generator: Adobe Illustrator 19.1.0, SVG Export Plug-In . SVG Version: 6.00 Build 0)  -->
<svg version="1.1" id="Layer_1" xmlns="http://www.w3.org/2000/svg" xmlns:xlink="http://www.w3.org/1999/xlink" x="0px" y="0px"
	 viewBox="0 0 100 73.8" style="enable-background:new 0 0 100 73.8;" xml:space="preserve">
<style type="text/css">
	.st0{fill:#00BCD4;}
</style>
<g id="puss-moth-cat">
	<path class="st0" d="M63.1,63.5c-0.5,2-0.3,4.1-0.8,6.2c-0.5,2-2,4.1-4,4.1c-2.4,0.1-4-2.3-4.6-4.6c-0.6-2.3-0.8-4.8-2.2-6.6
		c-1.4,2.3-2.3,5-2.4,7.7c-0.1,1.4-1.6,2.4-3,2.3c-1.4,0-2.7-0.8-3.9-1.5c-0.7-0.4-1.5-1.3-1-2c1.2-1.4-0.3-3.5-1.7-4.7
		c-2.4,1.5-6.1,0-6.9-2.7c-1.2,0.9-3,0.8-4.1-0.1c-0.3-0.3-0.8-0.2-1.2-0.1c-2.8,0.8-5.4,2.2-7.6,4c-0.9,0.8-1.9,1.7-3.1,1.8
		c-1.2,0.1-2.4-1.5-1.6-2.4c2-2.2,3.5-4.7,4.5-7.5c-1.7,2.2-3.8,4-6.2,5.4c-0.3,0.2-0.7,0.4-1.1,0.4c-0.8,0-1.2-0.9-1.2-1.7
		c0-0.8,0.4-1.5,0.4-2.3c0.1-1.6-0.8-3.1-2-4.1c-1.2-1.1-2.6-1.8-3.9-2.8c-1.4-1.2-2.6-2.7-3.4-4.3c-1.9-3.6-2.4-7.8-2.1-11.9
		c0.1-2.1,0.5-4.3,1.6-6.1c1.9-3.2,5.7-4.7,9.3-5.8c6.2-1.9,13.4-2.9,18.6,0.8c1.2,0.8,2.7,0.3,4.1,0c1.4-0.3,3.3,0.2,3.4,1.6
		c0.1,2.5,2.2,4.6,4.5,5.4c2.4,0.9,4.9,0.8,7.4,0.7c9.3-0.3,18.5-0.6,27.8-0.9c2.3-0.1,4.8-0.1,6.7,1.3c1,0.7,2,1.8,3.2,1.4
		c0.6-0.2,0.9-0.8,1.3-1.3c2.6-4.2,4.8-8.7,5-13.6c0.2-4.9-2.3-10.1-6.8-11.9c-1.4-0.6-3.3-1.1-3.4-2.7c4.8-0.6,8.7,3.7,11.5,7.6
		c-0.6-3.2-0.6-6.6,0-9.8c0.2-1.2,0.7-2.5,1.8-2.9c1.8-0.6,3.2,1.5,3.9,3.2c-1.1,0.4-2.5-0.6-2.5-1.8c-1.6,0.9-2,3-2,4.8
		c-0.2,7.1,2.5,14.6-0.6,20.9c-1.1,2.4,1.4,5.3,0.3,7.7c-0.3,0.6-0.8,1.1-1,1.7c-0.5,1.1,0,2.4,0.2,3.6c0.2,1.2,0,2.7-1.2,3.1
		c2.1,1.2,2.7,4.5,1.1,6.4c-1.1,1.4-0.7,3.5-0.7,5.3c-0.1,1.8-1.6,4-3.2,3.3c-1.4-0.6-2.8,1-2.9,2.5c-0.1,1.5,0.5,2.9,0.6,4.4
		c0.1,3.6-3.9,6.7-7.3,5.7c-0.5-0.2-1-0.5-1.1-1c-0.3-3.3-2.5-6.4-5.5-7.7c0.6,1.5,0.3,3.3-0.7,4.6c-0.7,1-1.8,2.3-1,3.1
		c0.7,0.8-0.6,1.8-1.6,2c-1.5,0.3-3.1,0.7-4.6,0.2c-1.5-0.5-2.7-2-2.3-3.5C64.5,67,64.2,65,63.1,63.5 M39.2,63.1
		c0.3-0.2,0.7-0.4,0.9-0.7c0.5-0.7,0.3-1.8-0.1-2.6c-0.4-0.8-0.9-1.7-0.7-2.6c0.2-1.6-0.1-3.2,0.2-4.7c0.2-0.8,0.5-1.5,0.8-2.2
		c0.6-1.2,1.2-2.5,1.7-3.7c0.6,1.2-0.2,2.6-0.7,3.8c-1.3,2.9-1.5,6.2-0.4,9.2c0.3,0.9,0.1,2,0.7,2.7c1.2,1.2,2.7,2.1,4.4,2.6
		c1.2,0.4,2.7,0.4,3.3-0.7c0.8-1.6,0.7-3.5,0.2-5.2c-0.4-1.7-1-3.5-1-5.3c0-2,0.9-3.9,1.1-5.9c0.3-2.4-0.4-5,0.4-7.3
		c0.3-0.7,0.7-1.4,0.4-2.1c-0.1-0.2-0.3-0.5-0.4-0.7c-1.2-1.4-2.9-2.3-4.6-2.7c-0.3-0.1-0.6-0.1-0.8,0.1c-0.1,0.2-0.2,0.4-0.1,0.6
		c0,2.2,0.1,4.4,0.1,6.6c0,0.2-0.3,0.3-0.5,0.1c-0.2-0.1-0.2-0.4-0.2-0.6c-0.3-2.6-0.5-5.3,0-7.9c-1.9,0.6-4.1-0.4-4.9-2.2
		c-1,1.4-1.8,2.8-2.6,4.3c-0.4,0.7-0.8,1.6-0.6,2.4c0.4,2.1-1.5,3.9-2.6,5.8c-2.6,4.4-1.4,10.3-4.1,14.6c-0.5,0.8,0,2.1,0.9,2.4
		c0.9,0.3,2-0.1,2.7-0.8c0.7-0.7,1-1.7,1-2.7c0.1-1,0-2,0-3c0-1.7,0.3-3.4,0.9-5c0.9-2.5,2.6-4.9,3-7.5c0.1-0.9,0.2-1.8,0.7-2.5
		c0.6-0.7,2-0.7,2.1,0.2c0.1,0.5,0.2,1.1,0,1.6c-0.2,0.5-0.7,1-1.2,0.9c-0.4-0.1-0.7,0.4-0.8,0.8c-0.6,1.4-1.1,2.8-1.7,4.2
		c-0.6,1.5-1.2,2.9-1.4,4.5c-0.5,3.2,0.4,6.7-1.2,9.5c-0.3,0.6,0.2,1.2,0.7,1.6c0.4,0.4,0.9,0.8,1.5,1
		C37.4,64.1,38.4,63.6,39.2,63.1 M76,34.7c-2.2-0.1-4.1,2.3-6.2,2c0.1,2.1,0.1,4.2,1,6.2c0.3,0.7,0.7,1.3,1,2.1
		c1.1,2.9-0.3,6.2-0.2,9.3c0.1,3.2,1.9,6.3,4.7,7.9c1.2,0.7,2.2,1.7,2.9,2.8c0.6,0.9,1.9,0.8,2.9,0.4c1.3-0.4,2.6-1.1,3.7-2
		c0.3-0.2,0.5-0.4,0.6-0.7c0.1-0.3,0.1-0.5,0.1-0.8c-0.1-1.4-0.2-2.9-1-4c-3.5-4.9-6.9-10.4-7-16.4c0-2.2-0.8-4.3-1.6-6.3
		c-0.1-0.1-0.1-0.3-0.2-0.4C76.4,34.7,76.2,34.7,76,34.7 M50.4,47.2c-0.1,3.2-1.4,6.5-0.6,9.7c0.4,1.5,1.3,2.9,1.3,4.5
		c0.6-0.3,1.4,0.2,1.7,0.8c0.3,0.6,0.3,1.4,0.4,2c0.2,0.7,0.6,1.4,1.3,1.4c1.5,0.1,3.1-0.1,4.5-0.7c1-0.4,2.1-1,2.4-2.1
		c0.4-1.3-0.5-2.7-0.9-4c-0.3-1-0.4-2.1-0.4-3.1c-0.1-1.3-0.1-2.6-0.2-4c-0.2-3.4-0.3-6.8,0.1-10.1c0.1-0.8-0.8-1.4-1.5-1.8
		c-1.4-0.7-2.8-1.4-4.3-1.2c-1.1,0.2-2.3-0.3-2.9-1.1c0.3,1.3-0.4,2.5-0.7,3.8C50.2,43.2,50.5,45.2,50.4,47.2 M70.3,44
		c-1.1-2.1-1.6-4.6-1.3-7c-2,1.4-4.4,2.2-6.8,2.2c-0.6,0-1.1,0.5-1.4,1.1c-0.2,0.6-0.2,1.2-0.2,1.8c0.1,3.8,0.3,7.6,0.4,11.4
		c0.1,2.2,0.2,4.4,1,6.4c0.6,1.5,1.6,2.7,2.6,4c0.5,0.6,1.3,1,2.1,1.2c1.8,0.5,3.8,0.5,5.6,0c0.2,0,0.4-0.1,0.5-0.2
		c0.2-0.2,0.2-0.4,0.2-0.7c0.1-1.2,0.1-2.5-0.3-3.6c-0.4-1.2-1.1-2.1-1.6-3.3C69.4,53.1,72.4,48,70.3,44 M6.9,51.4
		c1.5-0.1,2.9,0.7,4.3,0.4c0.9-0.2,1.6-0.8,2.2-1.5c1.8-2,3-4.5,4.1-6.9c0.4-0.8,0.8-1.7,0.9-2.6c0.1-1-0.1-2-0.2-3
		c-0.4-2.3-0.9-4.6-1.3-6.9c-0.1-0.6-0.2-1.2-0.1-1.7c0.8,0.2,1.1,1,1.4,1.7c0.9,3,1.4,6.2,1.3,9.3c0,1.2-0.1,2.3-0.5,3.4
		c-0.3,1.1-0.9,2-1.4,3c-1.4,2.5-3,5.1-5.4,6.6c0.7,1,1.1,2.1,1.3,3.2c0.2-0.6,0.4-1.2,0.6-1.7c0.3-0.9,0.7-1.9,1.7-2
		c0.6-0.1,1.2,0.3,1.4,0.9c0.3,0.5,0.2,1.2,0.1,1.7c0.6,0,1.1-0.6,1.3-1.2c0.2-0.6,0.4-1.2,0.8-1.7c0.7-0.7,1.1-1.7,1.4-2.7
		c2.2-6.9,3.4-14.4,1.2-21.3c-0.4-1.1-0.8-2.3-1.8-3c-0.9-0.7-2.5-0.8-3.2,0.2c-0.3,0.4-0.7,1.1-1.2,0.8c-0.4-0.2-0.3-0.8,0-1.2
		c0.3-0.3,0.7-0.7,0.7-1.1C11,25,5.6,26.8,2.3,30.9c-0.3,0.4-0.5,1.2,0,1.3c1-1.6,2.9-2.7,4.8-2.6c0.3,0,0.7,0,1-0.1
		c0.4-0.2,0.5-0.7,0.7-1.1c0.4-0.9,1.2-1.6,2.2-1.7c1-0.1,2,0.6,2.2,1.5c0.1,0.9-0.4,2.1,0.3,2.7c2.6,2.1,3.2,5.9,2.8,9.2
		c-0.2,2.1-0.8,4.1-1.9,5.9c-1.1,1.8-2.9,3.2-4.9,3.5c-1.8,0.3-3.8-0.2-5.1-1.5c0.1,0.8,0.3,1.6,0.7,2.3S6.1,51.4,6.9,51.4
		 M89.3,46.4c0.8,1.1,1.7,2.2,2.5,3.2c0.5-0.9,1-1.9,1-3c0-2-1.9-3.5-3.5-4.7c-1.7-1.2-3.5-2.7-3.5-4.7c0-0.9-0.8-1.5-1.5-2.1
		c-0.7-0.5-1.3-1-2-1.5c0.9,2.5,2,4.9,3.1,7.3c0.3,0.7,0.9,1.6,1.7,1.5c0.9-0.1,1.7,0.9,1.4,1.7c-0.2,0.8-1.4,1.2-2.1,0.7
		c-0.3-0.3-0.5-0.6-0.7-1c-1.3-2.8-2.5-5.6-3.5-8.5c-0.2-0.7-1-1-1.7-0.9c-0.7,0.1-1.3,0.4-1.9,0.8c-0.4,0.2-0.9,0.7-0.6,1.1
		c1.9,2.3,1.1,5.7,1.8,8.6c0.2,1.1,0.7,2.1,1.1,3.1c1.2,2.7,2.7,5.4,4.4,7.9c0.4,0.5,0.8,1.1,1.4,1.3c0.7,0.2,1.5-0.1,2-0.6
		c1.3-1.1,2-2.7,2.5-4.3c0.3-0.8,0.5-1.7-0.1-2.3c-1.2-1.2-2.2-2.6-3.1-4.2C88.4,45.6,89,46,89.3,46.4 M28.8,38.4
		c0.2-1.4,0.9-2.6,1.3-3.9c0.4-1.5,0.3-3,0.1-4.5c-0.2-1.5-0.5-3.2-1.6-4.3c-0.9-0.8-2.1-1.2-3.3-1.2c-1.2,0-2.4,0.4-3.5,0.9
		c1.6,2.7,2.4,5.8,2.6,8.9c0.2,3.1-0.2,6.2-0.8,9.3c-0.2,0.9-0.3,1.8-0.6,2.6c-0.2,0.8-0.5,1.7-0.8,2.5c-0.6,1.8-1.2,3.7-1.8,5.5
		c-0.1,0.4-0.3,0.9-0.3,1.4c0,0.5,0.3,0.9,0.8,1.1c0.7,0.2,1.2-0.4,1.6-1c1.4-1.9,2.3-4.1,3.3-6.3c0.6-1.4,1.2-2.8,1.8-4.2
		c0.6-1.4,1.2-2.8,1.2-4.2C28.9,40.2,28.7,39.3,28.8,38.4 M34.8,37.6c0.1-2.1,1.1-4.2,2.6-5.7c0.3-0.3,0.7-1,0.2-1.2
		c-1.8-0.6-1.1-4.1-2.9-4.6c-0.5-0.1-1.1,0.1-1.6,0.3c-0.6,0.3-1.2,0.5-1.8,0.8c-0.2,0.1-0.5,0.3-0.4,0.5c0.6,2,1,4,0.6,6
		c-0.3,1.7-1.3,3.3-1.4,5.1c-0.1,1,0.1,2.1,0,3.1c-0.1,1.1-0.6,2.1-1,3.1c-1.5,3.2-2.9,6.5-4.4,9.7c-0.4,0.8-0.7,1.9-0.1,2.6
		c0.5,0.6,0.2,1.5-0.4,2c-0.6,0.5-1.3,0.7-2,1.1c-0.7,0.4-1.2,1.1-1,1.9c2.1-0.3,4.3-0.9,5.8-2.4c0.5-0.6,0.9-1.3,1.3-2
		c2.3-4.9,1.4-11.1,4.6-15.5c0.7-1,1.6-1.9,1.9-3.1C34.8,38.8,34.8,38.2,34.8,37.6 M5.6,47.2c0.9,0.5,1.9,1,2.9,1.1
		c2.2,0.2,4.1-1.5,5.2-3.4c2-3.5,2-8.1,0-11.7c-0.5-0.9-1.1-1.7-2-2.1c-0.6-0.3-1.4-0.4-2.1-0.4c-1.6-0.1-3.3-0.3-4.7,0.5
		c-2.2,1.2-2.8,4-3.2,6.5c-0.3,2.2-0.6,4.7,0.5,6.6C3.1,45.6,4.4,46.5,5.6,47.2 M67.2,33.6c-0.3-0.2-0.6-0.2-0.9-0.2
		c-1.4,0-2.8,0-4.1,0c-0.4,0-0.8,0-1.2,0.1c-0.8,0.2-1.5,0.7-2.2,0.6c0.1,0.8,0.2,1.6,0.3,2.5c0,0.3,0.1,0.7,0.3,1
		c0.2,0.3,0.6,0.5,0.9,0.3c1.5-0.8,3.1-1.5,4.7-2c0.3-0.1,0.6-0.2,0.9-0.2c0.8-0.1,1.7-0.2,2.5-0.5c-0.2-0.4-0.5-0.7-0.7-1.1
		C67.5,33.8,67.4,33.7,67.2,33.6 M54.3,36.3c0.6,0.1,1.2,0.2,1.9,0.4c0.8,0.2,1.6,0.4,2.3,0.6c0.2-0.1-0.1-0.4-0.2-0.6
		c-0.1-0.2-0.1-0.3-0.1-0.5c0-0.6-0.1-1.1-0.1-1.6c0-0.5-0.6-0.6-1.1-0.7c-0.8-0.1-1.6-0.2-2.4-0.3c-0.6-0.1-1.1-0.1-1.7,0
		c-1.1,0.2-2.2,0.9-3.3,0.6c0.2,0.7,0.7,1.4,1.4,1.7C52.2,36.3,53.3,36.1,54.3,36.3 M91,42.2c0.5,0.1,0.9,0.2,1.4,0.3
		c-0.4-0.4-0.4-1.1-0.3-1.7c0-0.6-0.1-1.3-0.7-1.5c-0.7-0.1-1.3-0.4-1.7-0.9c-0.6-0.5-1.1-1.2-1.8-1.3c-0.3,0-0.4-0.3-0.5-0.5
		c-0.1-0.3-0.1-0.5-0.4-0.7c-0.2-0.2-0.6,0-0.6,0.2c0.1,0.7,0.2,1.4,0.6,2c0.3,0.7,0.8,1.2,1.3,1.7c0.4,0.5,0.9,1,1.3,1.4
		c0.1,0.2,0.3,0.3,0.5,0.4C90.3,42.1,90.6,42.2,91,42.2 M56.2,69.1c1.1,0.2,2.2-0.2,3.2-0.5c0.6-0.2,1.3-0.5,1.6-1.1
		c0.3-0.5,0.2-1.2,0.6-1.7c0.1-0.2,0.3-0.3,0.3-0.5c0-0.2-0.2-0.4-0.4-0.3c-1.6,1.4-3.9,2.1-6.1,1.7c-0.1,0-0.3-0.1-0.4,0
		c-0.2,0.1-0.3,0.4-0.3,0.6c0,0.2,0.2,0.5,0.3,0.7c0.2,0.3,0.4,0.7,0.8,0.9C55.9,69,56.1,69.1,56.2,69.1 M48,67.4
		c0.1-0.2,0.1-0.6,0.4-0.7c-0.1-0.3-0.4-0.3-0.7-0.2c-1.4,0.1-2.7-0.7-3.9-1.5c-0.6-0.4-1.2-0.8-1.7-1.4c-0.2-0.3-0.4-0.6-0.8-0.6
		c0.1,1.1,0.2,2.3,1,3.1c0.3,0.3,0.7,0.5,1.1,0.7c0.5,0.3,1,0.5,1.5,0.8c0.5,0.3,1.1,0.5,1.6,0.6C47.2,68.2,47.8,67.9,48,67.4
		 M92.1,34.5c0.4,0.4,1,0.8,1.5,0.6c0.2-0.1,0.4-0.3,0.5-0.6c0.4-0.9,0.1-1.9-0.4-2.7c-0.1-0.2-0.3-0.4-0.5-0.5
		c-0.4-0.2-0.9-0.1-1.2-0.4c-0.1-0.1-0.2-0.2-0.3-0.3c-0.1-0.1-0.3-0.2-0.4,0c-0.1,0.1-0.1,0.2-0.1,0.3c0.1,0.7,0.1,1.5,0.2,2.2
		c0,0.3,0.1,0.5,0.2,0.7C91.7,34.1,91.9,34.3,92.1,34.5 M83.1,67c-0.8,0.3-1.6,0-2.4,0.1c-0.2,0.6,0.4,1.3,1,1.5
		c0.6,0.2,1.3,0,2-0.2c0.8-0.2,1.7-0.5,2.2-1.1c0.5-0.7,0.6-1.6,0.6-2.4c0-0.1,0-0.3-0.1-0.4c-0.2,0.1-0.3,0.3-0.2,0.5
		c-0.8,0.5-1.5,1.1-2.3,1.6C83.7,66.7,83.4,66.9,83.1,67 M71.6,67.3c0.4-0.3,1.1-0.5,1-1c-0.7,0-1.3,0.2-1.8,0.6
		c-0.5,0.3-1.2,0.3-1.9,0.2c-1.2-0.2-2.4-0.5-3.2-1.4c-0.1-0.1-0.2-0.2-0.3-0.3s-0.3,0-0.3,0.1c0,0.1,0,0.1,0,0.2
		c0.2,0.5,0.4,1.1,0.6,1.6c0.1,0.2,0.1,0.3,0.2,0.4c0.1,0.1,0.3,0.1,0.4,0.2c1.1,0.2,2.2,0.4,3.3,0.6c0.2,0,0.5,0.1,0.7,0
		C71,68.2,71.2,67.6,71.6,67.3 M74.5,33.3c0.7,0,1.4,0.1,2.1,0.1c0-0.1,0-0.2,0-0.3c-0.4-0.4-1-0.5-1.5-0.5c-0.8,0-1.6,0-2.4,0.2
		c-1.5,0.3-3.1,0.9-4.6,0.6c0.1,0.2,0.2,0.4,0.2,0.7c0.1,0.3,0.2,0.6,0.4,0.8c0.2,0.2,0.6,0.3,0.9,0.2
		C71.2,34.2,72.8,33.3,74.5,33.3 M93.9,19.9c0.6,0.4,1.4-0.1,1.6-0.7c0.2-0.6,0.1-1.3-0.1-2c-0.1-0.2-0.2-0.5-0.4-0.6
		c-0.6,0.6-0.3,1.6-0.7,2.3C94.1,19.2,93.8,19.5,93.9,19.9 M94.3,23.3c0,0.1,0.1,0.1,0.1,0.1c0.2,0.1,0.4-0.1,0.5-0.3
		c0.3-0.9-0.2-2-1.1-2.4C93.7,21.6,93.9,22.5,94.3,23.3 M93,24.7c-0.2,0.3-0.4,0.7-0.4,1.1c0,0.4,0.2,0.8,0.6,1
		c0.3,0.1,0.6,0.1,0.8,0.1C94.1,26.1,93.7,25.2,93,24.7 M93.5,29.1c0-0.1,0.1-0.2,0-0.4c-0.1-0.1-0.2-0.2-0.4-0.2
		c-0.3-0.1-0.6-0.2-0.9-0.3c-0.4,0.3-0.3,1,0.1,1.3C92.7,29.8,93.3,29.6,93.5,29.1"/>
	<path class="st0" d="M51.5,45.5c0-0.1,0.2-0.2,0.3-0.2c0.6-0.3,1.5-0.1,1.9,0.4c0,0.5,0.1,1-0.1,1.5c-0.2,0.5-0.6,0.9-1.1,0.9
		c-0.5,0-1-0.5-1.1-1C51.2,46.5,51.3,46,51.5,45.5"/>
	<path class="st0" d="M43.5,45.4c-0.2,0.3-0.7,0.4-1.1,0.3c-0.4-0.1-0.7-0.5-0.7-0.8c0-0.2,0-0.3,0.1-0.5c0.2-0.6,0.6-1.2,1.1-1.5
		c0.2-0.2,0.6-0.3,0.8-0.1c0.3,0.2,0.2,0.8,0.4,1.1C44.1,44.4,43.9,45,43.5,45.4"/>
	<path class="st0" d="M82,45c0.8-0.2,1.7,0.1,2,0.8c0.3,0.7,0,1.7-0.7,2c-0.6,0.3-1.3,0.1-1.7-0.3c-0.3-0.3-0.4-0.7-0.4-1
		c-0.1-0.5,0-1,0.4-1.3C81.6,45.1,81.8,45,82,45"/>
	<path class="st0" d="M76.2,49.4c0,0.4,0,0.8-0.3,1.1c-0.3,0.3-0.7,0.3-1.1,0.3c-0.3,0-0.5,0-0.8-0.1c-0.6-0.3-0.7-1.1-1.1-1.7
		c0.3-0.1,0.3-0.5,0.4-0.7c0.2-0.5,0.9-0.6,1.5-0.5c0.3,0,0.6,0.1,0.8,0.2C76.2,48.2,76.2,48.9,76.2,49.4"/>
	<path class="st0" d="M62.8,49.4c-0.3-0.2-0.6-0.4-0.7-0.7C62,48.5,62,48.3,61.9,48c-0.1-0.5-0.1-1.1,0.3-1.4c0.5-0.5,1.3-0.3,1.9,0
		c0.2,0.1,0.3,0.1,0.4,0.2c0.1,0.1,0.2,0.3,0.2,0.4c0.2,0.5,0.4,1.1,0.2,1.7C64.6,49.6,63.6,49.8,62.8,49.4"/>
	<path class="st0" d="M13.7,42.5c-0.4,1.7-1.2,3.6-2.8,4.3c-1,0.4-2.1,0.3-3.1-0.1c-1-0.4-1.9-1-2.7-1.7c-0.7-0.5-1.5-1.1-2-1.9
		c-0.8-1.4-0.5-3.1-0.2-4.7c0.2-1.1,0.5-2.1,0.9-3.1c1-2.2,3.5-3.9,5.9-3.5c2.1,0.4,3.7,2.3,4.2,4.3C14.5,38.2,14.2,40.4,13.7,42.5
		 M7,41.7c0.7-0.8,1.4-1.5,2.3-1.9c0.9-0.4,2.1-0.3,2.7,0.5c0.2,0.2,0.6,0.1,0.8-0.1c0.2-0.2,0.1-0.6,0.1-0.9
		c-0.2-1.3-0.7-2.6-1.3-3.7c-0.2-0.3-0.4-0.7-0.7-0.9c-1-1-2.6-1.1-3.9-0.5c-1.2,0.6-2.1,1.9-2.5,3.2c-0.4,1.1-0.5,2.3-0.3,3.4
		c0.1,0.8,0.5,1.7,1.3,1.7C6.1,42.6,6.6,42.1,7,41.7 M11,44.8c0.5-0.5,0.5-1.2,0.9-1.8c-0.6-0.5-1.2-1.3-2-1.2
		c-0.5,0-0.9,0.5-1.3,0.8c-0.5,0.5-1.1,0.8-1.7,1.1c-0.2,0.1-0.2,0.4-0.1,0.6s0.4,0.3,0.6,0.4C7.5,44.9,7.8,45,8,45.1
		c0.3,0.2,0.7,0.3,1.1,0.3c0.3,0,0.6-0.1,0.9-0.2C10.4,45.2,10.8,45.1,11,44.8"/>
</g>
</svg>
