<?xml version="1.0" encoding="utf-8"?>
<!-- Generator: Adobe Illustrator 19.1.0, SVG Export Plug-In . SVG Version: 6.00 Build 0)  -->
<svg version="1.1" id="Layer_1" xmlns="http://www.w3.org/2000/svg" xmlns:xlink="http://www.w3.org/1999/xlink" x="0px" y="0px"
	 viewBox="0 0 100 110.2" style="enable-background:new 0 0 100 110.2;" xml:space="preserve">
<style type="text/css">
	.st0{fill:#00BCD4;}
</style>
<g id="spider">
	<path class="st0" d="M87.5,73.3c-5.2-4.2-10.5-8.5-16.9-10.5c0.6,2.3,1.3,4.7,1.2,7.1c-0.1,2.4-1.1,4.9-3.2,6.2
		c-2.2,1.4-5.2,1.1-7.5-0.1c-2.3-1.2-4.1-3.2-5.9-5.1c1.2,4,2.4,8,3.6,12.1c1.7,5.6,3.4,11.2,6.5,16.1c2.6,4.2,6.2,7.7,9.7,11.2
		c-4.7-3-8.7-7.1-11.7-11.8c-3.6-5.8-5.7-12.4-7.7-18.9c-1.6-5.1-3.2-10.4-2.1-15.6c-2.4,1.9-2.4,5.4-3.3,8.3
		c-1.4,4.8-5.4,8.6-10.2,10.1c-4.8,1.5-10.1,0.8-14.4-1.6c5.5,1.7,11.6,1.1,16.6-1.5c1.3-0.7,2.6-1.5,3.5-2.7c0.8-1,1.3-2.3,1.7-3.5
		c1.3-3.6,2.6-7.2,3.9-10.7c-11.1-4-22.7-6.7-34.4-8.2c10.3,0.2,20.6,1.7,30.5,4.4c-2.2-1.5-4.4-2.9-6.6-4.4
		C27.3,44.9,13.7,35.7,0,26.6c14.1,8.2,28.1,16.7,41.9,25.5c1.6,1,3.2,2,5,2.1c1.8,0.1,3.9-1.3,3.8-3.1c0.6,0.2,1.3,0.4,1.9,0.6
		c-0.7-4.2-1.4-8.5-2.1-12.7c-0.4-2.7-0.9-5.4-2.1-7.8C42.9,19.4,35,8.7,25.4,0c7.4,4.8,13.2,11.8,18.1,19.1
		c4.5,6.6,8.4,13.7,9.7,21.5c0.7,4.4,0.7,9.1,3.1,12.8c4.2-13.8,5.3-28.6,3.1-42.9c3.6,12.3,3.6,25.6-0.1,37.8
		c-0.7,2.3-1.5,4.8-0.8,7.1c4.4-1.4,8.9-2.8,12.9-5.2c4-2.4,7.5-5.9,8.9-10.3c0.7-2.2,0.9-4.6,1.5-6.9c1.2,7.3-2.6,15.2-9.1,18.7
		c-4.1,2.2-9.1,2.9-12.4,6.1C72.6,60.1,84,66.2,92.8,75c4.4,4.4,5.9,10.8,7.2,16.9c-1.8-2-2-4.9-3-7.4
		C95.3,79.8,91.3,76.5,87.5,73.3 M67,69.8c0.1-0.1,0.1-0.4,0.1-0.5c-0.1-0.2-0.3-0.3-0.4-0.4c-0.5-0.3-1.1-0.6-1.6-0.9
		c-0.3-0.1-0.6-0.3-0.8-0.5c-0.7-0.6-0.6-1.7-1-2.5c-0.1,0-0.2,0-0.4,0c0.2,0.7,0.4,1.3,0.6,2c0.1,0.2,0.1,0.4,0.2,0.6
		c0.2,0.3,0.6,0.5,1,0.7c0.7,0.3,1.4,0.6,2.1,1c-0.4,0.6-0.7,1.1-1.1,1.6c-0.2,0.3-0.5,0.7-0.9,0.8c-0.2,0-0.4,0-0.6,0
		c-0.2,0-0.4,0.2-0.4,0.4c-0.3,0.2-0.5-0.2-0.7-0.5c-0.3-0.7-0.6-1.3-0.8-2c-0.1-0.3-0.4-0.4-0.7-0.6c-0.8-0.4-1.6-0.7-2.4-1.1
		c0-0.1-0.1-0.2-0.1-0.2c-0.2,0-0.5,0-0.7,0c0.3,0.6,0.9,1,1.6,1.1c1.1,0.3,2.1,1.2,2.4,2.3c0.2,0.5,0.4,0.9,0.6,1.4
		c0.1,0.1,0.3,0.1,0.4,0.2c1-0.3,2.1-0.7,2.7-1.6C66.4,70.7,66.6,70.2,67,69.8 M58.7,67.6c0.6,0.1,1.1-0.3,1.5-0.6
		c0.4-0.3,0.7-0.6,1.1-0.9c0.6-0.5,1.1-1,1.7-1.5c0-0.2-0.2-0.3-0.4-0.3c-0.2,0-0.3,0.1-0.5,0.3C61.1,65.6,59.9,66.6,58.7,67.6
		 M28.6,45.3c0.7,0.6,1.5,1.1,2.3,1.5c0.1,0.1,0.2,0.1,0.3,0.1c0.2,0,0.3-0.1,0.4-0.3c-0.8-0.8-1.9-1.4-3-1.7
		C28.6,45.1,28.5,45.2,28.6,45.3 M79.7,66.2c0.3,0.1,0.8,0.1,0.9-0.3c-0.7-0.5-1.5-0.9-2.3-1.1c-0.1,0.2,0,0.5,0.2,0.6
		C78.8,65.8,79.2,66,79.7,66.2 M66.4,74.2c0.1,0.1,0.4,0.1,0.6,0c0.2-0.1,0.3-0.3,0.4-0.5c0.1-0.2,0.2-0.5,0-0.6
		c-0.4-0.2-1,0-1.3,0.4C66.2,73.8,66.3,74,66.4,74.2 M59.8,60.5c-0.2,0-0.5,0.1-0.7,0.2c-0.2,0.1-0.4,0.2-0.4,0.4
		c0.5,0.3,1.3,0.2,1.7-0.3c0.1-0.1,0-0.3-0.1-0.4S59.9,60.5,59.8,60.5 M59.1,63.6c0.1-0.1,0.2-0.2,0.1-0.3c0-0.1-0.2-0.1-0.3-0.2
		c-0.3-0.1-0.8,0-0.9,0.3c0,0.2,0.2,0.4,0.4,0.5C58.7,63.8,58.9,63.7,59.1,63.6 M55,54.2c0,0,0.1-0.1,0.1-0.2c0.1-0.3,0.1-0.6,0-0.9
		c-0.2-0.1-0.4,0-0.6,0.1c0.1,0.2,0,0.5,0,0.7C54.5,54.1,54.8,54.3,55,54.2 M61.2,26.2c0.4-0.3,0.5-0.9,0.3-1.4
		c-0.3,0-0.5,0.3-0.6,0.6C61,25.7,61.1,26,61.2,26.2"/>
</g>
</svg>
