<?xml version="1.0" encoding="utf-8"?>
<!-- Generator: Adobe Illustrator 19.1.0, SVG Export Plug-In . SVG Version: 6.00 Build 0)  -->
<svg version="1.1" id="Layer_1" xmlns="http://www.w3.org/2000/svg" xmlns:xlink="http://www.w3.org/1999/xlink" x="0px" y="0px"
	 viewBox="0 0 100 107.6" style="enable-background:new 0 0 100 107.6;" xml:space="preserve">
<style type="text/css">
	.st0{fill:#00BCD4;}
</style>
<g id="tick">
	<path class="st0" d="M60.6,43.9c0.3,1.7,2.3,2.4,4,3c5.2,1.8,9.6,5.4,14.2,8.4c4.6,3,10,5.6,15.5,4.8c1.3-0.2,2.7-0.6,4-0.2
		c1.3,0.4,2.3,2,1.5,3.1c-0.4,0.5-1,0.7-1.6,0.9c-6.2,1.8-13-0.1-18.7-3.1c-5.7-3.1-10.8-7.2-16.5-10.3c-0.6,2.3,0.4,4.7,1.8,6.6
		c1.4,1.9,3.2,3.5,4.5,5.5c2.3,3.4,3.1,7.5,4.1,11.5c2.6,10.4,6.5,20.4,11.8,29.7c0.5,0.9,1.1,2.1,0.6,3c-0.5,1-2,1.1-2.9,0.6
		c-1-0.5-1.6-1.5-2.1-2.5c-5.6-9.9-9-20.8-12.3-31.7c-1-3.4-2.1-6.8-3.1-10.2c-0.1,4.3-0.3,8.8-2.2,12.6c-3.3,6.7-12,10-19,7.5
		c-7-2.5-11.5-10.4-10.4-17.8c0.1-0.7,0.1-1.8-0.7-1.9c-2.5,5.7-3.5,11.8-5.1,17.8c-2,7.9-5,15.5-8.8,22.6c-0.9,1.7-3,3.6-4.4,2.4
		c-1.2-1-0.5-2.9,0.3-4.3c4.5-8,7.8-16.7,9.8-25.7c1.1-4.9,1.8-10,4.6-14.2c2.5-3.7,6.7-7.2,5.7-11.6c-5.5,3-10.3,7.2-15.8,10.3
		c-5.5,3.1-12.1,5.1-18,3.1c-0.3-0.1-0.6-0.2-0.8-0.4c-1.2-0.9-0.3-2.9,1.1-3.4C3,59.5,4.5,60,5.9,60.1c5.3,0.6,10.4-2.2,14.7-5.2
		c4.4-3.1,8.5-6.7,13.7-8.1c1.4-0.4,3.2-1.6,2.3-2.7c-0.3-0.4-0.7-0.5-1.2-0.6C25.7,40.6,17.2,34.8,8.8,29c-1.2-0.8-2.5-2.3-1.7-3.5
		c0.7-1.1,2.5-0.7,3.7,0c9,4.7,16.9,12.4,26.9,13.9c0.9,0.1,2.3-0.6,1.7-1.3c-6.6-7-12.6-14.7-17.7-22.9c-0.4-0.7-0.9-1.5-0.9-2.3
		c0-0.7,0.4-1.4,0.7-2c1.6-2.8,3.4-5.6,5.4-8.2c0.9-1.2,2.3-2.4,3.5-1.7c1.3,0.8,0.6,2.8-0.2,4.2c-1.6,2.6-3.3,5.2-4.9,7.8
		c4.9,8.2,10.9,15.8,17.8,22.4C42.9,30,44.2,24.5,47,19.9c0.1,3,0.1,6,0.1,9c0,0.7,0.1,1.5,0.6,1.8c0.6,0.4,1.6,0.1,2-0.6
		c0.4-0.7,0.4-1.5,0.4-2.2c0-2.7,0.1-5.3,0.1-8c2.5,4.7,4,9.9,4.5,15.2c6.1-6.4,11.5-13.5,16.1-21c0.6-1,1.2-2.3,0.5-3.2
		c-1.5-2.1-3-4.2-4.5-6.3c-0.9-1.2-1.8-3-0.7-4.1c1.3-1.4,3.6,0.3,4.7,1.9c1.6,2.3,3.2,4.7,4.9,7c0.4,0.6,0.9,1.3,0.9,2.1
		c0.1,0.8-0.4,1.6-0.8,2.4c-4.4,7.7-9.7,14.9-15.7,21.4c-1,1.1-2.2,2.6-1.6,4c10.9-1.4,19.3-9.7,28.9-15c1.4-0.8,3.8-1.2,4.3,0.4
		c0.4,1.1-0.7,2.2-1.7,2.8C80.9,34.2,71.4,40.8,60.6,43.9 M43.4,46.9c0.2-0.7,0.3-1.6-0.1-2.2c-0.4-0.5-1.2-0.3-1.6,0.1
		c-0.4,0.4-0.6,1.1-0.7,1.7c-0.4,1.6-0.8,3.1-1.2,4.7c-0.1,0.5-0.2,0.9-0.1,1.4c0.1,0.5,0.4,0.9,0.8,1c0.5,0.1,1-0.2,1.3-0.6
		c0.3-0.4,0.4-0.9,0.5-1.3c0.3-1.1,0.5-2.1,0.8-3.2C43.1,48.1,43.3,47.5,43.4,46.9"/>
</g>
</svg>
