<?xml version="1.0" encoding="utf-8"?>
<!-- Generator: Adobe Illustrator 19.2.1, SVG Export Plug-In . SVG Version: 6.00 Build 0)  -->
<svg version="1.1" id="Layer_1" xmlns="http://www.w3.org/2000/svg" xmlns:xlink="http://www.w3.org/1999/xlink" x="0px" y="0px"
	 viewBox="0 0 200 316.6" style="enable-background:new 0 0 200 316.6;" xml:space="preserve">
<style type="text/css">
	.st0{fill:#E91E63;}
</style>
<g id="cankersore-boy">
	<path class="st0" d="M0,310.3c1.3-2.5,2.7-5.1,3.9-7.6c1.3-2.7,2.3-5.5,3.6-8.1c2.6-4.8,4.2-9.9,5.6-15.1
		c1.6-5.9,3.4-11.7,5.1-17.5c0.3-1,0.8-2,1-3c0.4-1.6,0.7-3.2,1.1-4.8c0.7-2.4,1.5-4.8,2-7.2c0.4-1.6,0.6-3.3,0.6-5
		c0.1-5.3,0.1-10.5,0-15.8c-0.1-5.9-0.7-11.7-0.4-17.5c0.3-5.6,0.2-11.1,0.4-16.7c0.1-1.6,0.9-3.2,1.3-4.8c0.7-2.5,1.2-5,1.9-7.5
		c1.1-4,3.1-7.7,5.5-11c3.8-5.3,8.5-9.6,15-11.6c4.3-1.3,8.6-2.8,12.9-4.3c0.3-0.1,0.5-0.2,0.8-0.4c-0.5-1.8-1.1-3.6-1.5-5.4
		c-0.6-2.5-1.1-5-1.4-7.5c-0.4-3.6-0.8-7.1-1-10.7c-0.2-3,0.1-6-0.1-9c-0.1-2.8-0.3-5.5-0.8-8.2c-0.2-1.3-0.9-2.6-1.5-3.8
		c-1.8-3.9-3.1-8-3.8-12.3c-0.3-1.8-0.2-3.7-0.1-5.6c0.2-2.4,1.4-3.4,4.2-3.7c-0.3-1.4-0.4-2.8-0.8-4.1c-0.7-2.4-1.1-4.8-1-7.3
		c0.1-3.2-0.1-6.3,0-9.5c0.3-5.8,0.1-11.7,1.9-17.4c2-6.4,4.7-12.3,8.8-17.6c3.7-4.8,8.1-8.9,12.7-12.8c2-1.7,3.8-3.8,5.9-5.4
		c2.5-1.9,5-3.7,7.8-5.1c2.9-1.5,6-2.6,9.2-3.5c4-1.1,8-1.9,12.1-2.5c3.2-0.5,6.5-0.4,9.8-0.6c0.7,0,1.4-0.1,2.1-0.1
		c1,0,2.1,0,3.1,0c2.2,0.3,4.4,0.4,6.5,0.8c3.3,0.8,6.7,1.7,9.9,2.8c5.5,1.9,10.8,4.1,15.8,7c4.6,2.7,8.6,6.1,12.4,9.8
		c2.5,2.5,5,5.1,7.5,7.7c0.6,0.6,0.8,1.5,1.2,2.2c0.3,0.6,0.5,1.2,0.8,1.7c1.7,2.4,2.6,5.1,3.4,7.9c0.4,1.5,1,2.9,1.6,4.3
		c0.6,1.5,1.5,3,2,4.6c0.4,1.2,0.7,2.5,0.8,3.8c0.2,2.7,0.4,5.4,0.4,8c-0.1,3-0.4,6-0.7,8.9c-0.7,6.1-1.2,12.3-1.2,18.5
		c0,2.8-0.3,5.7-0.4,8.5c2.6,0.3,3.1,2.7,3.3,4.7c0.2,2.6-0.2,5.1-1.5,7.5c-1.1,1.9-1.6,4.2-2.5,6.2c-0.7,1.6-1.7,3.1-2.6,4.6
		c-2.7,4.7-5.5,9.5-8.1,14.2c-1.1,2-2.2,4.1-3.9,5.8c-1.2,1.2-2.4,2.1-4.1,2.2c-1.6,0.1-3.2,0.3-5.3,0.5c-0.9,2-2,4.3-3.2,6.7
		c-1.1,2.2-2.2,4.4-3.3,6.6c-0.3,0.6-0.2,1,0.3,1.4c1.9,1.6,3.9,3.3,5.8,4.9c1.9,1.7,3.9,3.5,5.7,5.3c2.2,2.2,4.4,4.3,7,6
		c4.6,3,9.1,6.2,12.7,10.4c1.2,1.4,2.1,3.2,2.8,4.9c1.7,3.8,3.3,7.5,4.7,11.4c1.4,3.9,2.5,7.8,3.7,11.7c0.7,2.3,1.7,4.5,2.1,6.8
		c0.5,2.6,0.3,5.2-0.9,7.7c-0.2,0.3-0.3,0.7-0.3,1c0.1,4.5-1,8.8-2,13.1c-0.9,4.1-1.9,8.1-3.5,11.9c-0.6,1.5-1.4,2.9-2.2,4.3
		c-2.6,4.1-3.6,8.8-5.1,13.4c-0.8,2.6-1.8,5.2-2.5,7.8c-0.7,2.8-1.3,5.6-1.7,8.4c-0.5,3.4-0.5,6.8-1,10.1c-0.4,3,0,5.7,1.1,8.4
		c1.4,3.4,3.8,6,7,7.8c1.7,1,3.1,2.4,4.6,3.6c-0.1,0.1-0.1,0.2-0.2,0.3c-17.8,0-35.6,0-53.6,0c1.3-1,2.4-1.9,3.6-2.9
		c3.4-2.9,6.3-6.3,8.7-10.2c1.6-2.6,3.4-5,5-7.5c2.9-4.5,5.6-9,8.4-13.6c1.8-2.9,3.6-5.7,5.3-8.6c2.5-4.4,4.9-8.9,7.4-13.2
		c3.4-5.8,6.4-11.7,10.4-17.1c2.8-3.9,5.4-7.9,8-11.9c0.4-0.6,0.5-1.3,0.5-2c0.1-1.5,0.1-3.1,0.3-4.6c0.2-1.6,0.6-3.1,0.7-4.7
		c0.1-1.1-0.2-2.3-0.5-3.4c-0.7-2.6-1.6-5.2-2.3-7.8c-1.4-4.6-2.9-9.2-5-13.6c-1-1.9-1.6-4-2.4-6c-1.5-3.9-4.3-6.7-7.5-9.1
		c-3-2.2-6.1-4.2-9-6.5c-1.8-1.4-3.5-3-5.1-4.7c-3-3.2-6-6.2-9.6-8.8c-1-0.7-1.7-1.6-2.6-2.4c-1.1,1.6-2.3,3-3.1,4.6
		c-1.4,2.9-3.8,4.9-6.2,6.7c-4.1,2.9-8.5,5.5-12.7,8.3c-4.9,3.3-10.1,6.1-14.4,10.2c-1.8,1.8-3.9,3.1-6.5,3.3
		c-0.3,0-0.7,0.4-0.9,0.7c-2.4,3.4-4.9,6.7-7.3,10.1c-2.4,3.5-3.9,7.5-4.6,11.7c-1.1,6.5-1.9,13-1.5,19.6c0.5,8.4,2.2,16.6,4.6,24.7
		c1.3,4.3,2,8.9,3.3,13.3c0.9,2.9,2.2,5.7,3.4,8.6c0.1,0.4,0.4,0.6,0.7,1c2.1-1.5,3.3-3.6,4.4-5.7c1.6-2.9,3-5.9,4.7-8.8
		c1.5-2.6,3.3-5.1,4.8-7.7c0.9-1.6,1.6-3.2,2.3-4.9c1.5-3.6,4.2-6.3,7-8.9c3-2.8,5.1-6.3,7.2-9.8c0.7-1.2,1.2-2.5,1.7-3.8
		c1.7-4.2,4.5-7.4,8.5-9.5c2.4-1.3,4.7-2.6,7-3.9c0.6-0.4,1.2-1,1.9-1.3c0.4-0.2,1,0,1.5,0c-0.1,0.5,0,1.1-0.2,1.4
		c-1.5,1.9-3.6,2.7-5.6,3.9c-3.2,1.9-6.7,3.5-8.7,6.7c-1,1.6-1.9,3.3-2.5,5.1c-1.5,4.2-4.2,7.6-7.2,10.8c-2.4,2.7-4.9,5.4-7.1,8.3
		c-1.4,1.8-2.1,4.1-3.3,6.2c-2.5,4.6-5.1,9.2-7.7,13.7c-1.8,3.1-3.7,6.2-5.6,9.3c-0.8,1.4-0.2,3.3,1.2,5.1c3,3.9,5.9,7.8,7.6,12.5
		c1.1,3,2,6.1,2.8,9.2c0.7,2.5,0.8,5.1,0.2,7.7c-0.7,0-1.3,0-2,0c-0.3-3.1-0.6-6.1-1.1-9.2c-0.8-4.9-2.8-9.4-5.7-13.5
		c-3-4.4-5.7-9-8.7-13.4c-1.9-2.8-2.4-6-3.5-9.1c-2.6-7.7-4.5-15.6-6.3-23.5c-1.7-7.4-2.1-15-1.7-22.6c0.1-1.6,0.7-3.2,0.6-4.8
		c-0.1-2.4,0.8-4.6,1.3-6.8c0.5-2.3,1.1-4.6,1.9-6.8c1.6-4.4,4.5-8.1,7.2-11.9c1.2-1.7,2.3-3.4,3.6-5c0.8-1,1.6-2,1.9-2.7
		c-0.8-1-1.6-2-2.4-3.1c-0.2-0.2-0.1-0.6-0.2-0.9c0.4,0,0.9-0.2,1.2-0.1c1.1,0.6,2.1,1.3,2.9,1.8c1.7-1.6,3.2-3.1,4.9-4.7
		c-0.4-0.3-0.9-0.6-1.4-0.8c-1.1-0.7-1.4-1.9-0.6-2.9c0.8-1.1,1.6-2.1,2.5-3.2c0.7-0.8,1.5-1.3,2.6-1.2c1.6,0.1,3.4-0.3,4.5,1.4
		c1.2-1.1,1.1-2.8-0.3-3.5c-3.6-2.1-7.3-2-10.6,0.3c-4.8,3.3-9.4,7-14.2,10.5c-1.9,1.4-3.6,3.1-6,3.6c-0.7,0.1-1.5,0.1-2.4,0.2
		c0.5,1.3,0.9,2.6,1.4,3.8c0.9,2.1,1,4.4,0.9,6.6c0,0.4-0.6,0.8-0.9,1.2c-0.3-0.4-0.9-0.8-0.8-1.2c0.2-4.3-1.5-8.1-3.2-11.9
		c-0.6-1.2-1.6-2.3-2.6-3.2c-3.2-2.9-4.5-6.4-4.1-10.7c0.2-2.7-0.1-5.5,0-8.3c0.2-2.8,0.7-5.6,1.1-8.4c0.1-0.4,0.1-0.8,0.2-1.2
		c0.2-1.9,0-2-1.8-1.7c-2.5,0.4-4.7,1.4-6.8,2.8c-0.3,0.2-0.6,0.7-0.7,1.2c-0.2,1-0.3,2-0.4,2.8c1,0.2,2.2,0.3,3.4,0.6
		c0.3,0.1,0.5,0.7,0.8,1.1c-0.4,0.2-0.9,0.5-1.3,0.6c-0.3,0.1-0.7-0.2-1-0.2c-0.8,0-1.6,0.2-2.3,0.3c-1.1,0.1-0.8,1.1-1.1,1.7
		c-0.7,1.7-1.4,3.3-2.1,5c-0.8,2.2-1.8,4.3-2.3,6.5c-0.7,2.8-2.8,4.1-5.1,5.1c-0.3,0.1-1-0.1-1.2-0.4c-0.1-0.3,0.1-1,0.3-1.2
		c0.8-0.6,1.7-1.1,2.6-1.7c1.2-0.8,1.7-1.9,1.7-3.3c0-0.9-0.5-1.1-1.1-1.3c-2.3-0.5-5.9,1-7,3c-0.5,0.8-0.5,1.9-0.8,2.8
		c-0.4,1.3-0.7,2.6-1.4,3.7c-1.6,2.6-1.7,5.2-0.8,8c0.1,0.3,0.2,0.7,0.1,0.9c-0.2,0.4-0.6,0.7-0.9,1.1c-0.3-0.3-0.9-0.6-0.9-0.9
		c-0.4-2.1-1.2-4.3-0.5-6.5c0.3-1,0.7-2,1.1-3.2c-0.7,0.2-1.5,0.3-2.1,0.6c-2.3,1.2-3.9,2.8-5.2,5.3c-1.5,3-2.2,5.6-0.4,8.7
		c0.7,1.1,0.8,2.6,1,4c0.1,0.4-0.5,0.9-0.8,1.4c-0.4-0.4-0.9-0.7-1-1.2c-0.7-2.2-1.4-4.4-2.1-6.9c-2,2.3-3.2,4.7-4.2,7.1
		c-1.1,2.7-1.7,5.5-0.5,8.3c0.9,2.2,2.3,4.3,3.6,6.4c1.1,1.7,2.2,3.5,3.4,5.1c1.4,2,2.9,3.7,5,5.2c4.8,3.4,8.2,7.9,9.3,13.8
		c0.8,4.3,1.9,8.6,2.5,12.9c0.7,4.9,0.9,9.8,1.4,14.7c0.5,5.8,1,11.6,2.5,17.2c0.7,2.7,0.9,5.5,1.3,8.2c0.8,5.3,1.6,10.6,2.4,15.9
		c0.1,0.9,0.4,1.8,0.7,2.6c1,3,2,6.1,3.1,9.2c-0.9,0-1.7,0-2.4,0c-2.6-5.3-3.7-11-4.6-16.8c-0.6-4-1.1-8-1.8-12
		c-0.6-3.7-1.3-7.5-1.9-11.2c-0.4-2.2-0.6-4.5-0.8-6.8c-0.3-3.1-0.6-6.3-0.9-9.4c-0.3-3-0.5-6-0.9-9c-0.6-4-1.3-7.9-2-11.9
		c-0.6-3.9-1.8-7.6-3.9-10.9c-0.4-0.6-0.9-1.2-1.4-1.7c-0.2-0.2-0.6-0.2-0.8-0.2c-0.2,0.1-0.3,0.5-0.2,0.7c0.2,3.4,0.4,6.9,0.7,10.3
		c0.2,1.6,0.4,3.2,1,4.7c1.5,3.9,1.7,7.9,2.2,12c0.9,9,0.4,17.9,0.6,26.9c0,1.9-0.6,3.9-0.6,5.9c0.2,4.2,0.4,8.5,1.2,12.7
		c0.6,3,2.1,5.7,3.2,8.6c0.6,1.7,1.3,3.4,1.9,5c0.4,0.9,0.7,1.9,1.1,2.9c-7.1,0-14.3,0-21.5,0c0.8-1.5,1.4-3,2.3-4.4
		c2.7-4.4,4.1-9.3,5.2-14.3c0.6-2.5,1.4-4.9,2-7.2c-2,0-4,0.2-6,0.1c-2-0.1-4.1,0.2-6-0.9c0.2-1.3,0.8-1.6,2.1-1.4
		c2.2,0.4,4.5,0.5,6.8,0.6c1.1,0,2.3-0.3,3.4-0.8c0.5-0.2,0.9-1,1-1.7c0.4-2.4,0.9-4.8,0.9-7.2c0-8.6,0-17.1-0.3-25.7
		c-0.1-3.1-1-6.3-1.7-9.4c-0.8-3.4-1.2-6.7-1.3-10.2c-0.1-3.1-0.6-6.1-1-9.1c-0.1-0.4-0.3-0.9-0.6-1.2c-2.4-2.3-4.6-4.8-6.3-7.7
		c-1.7-2.8-3.8-5.4-5.2-8.5c-1.4-3.1-1.5-6.2-0.7-9.3c0.9-3.1,2.5-6,4.5-8.6c0.5-0.7,1.3-1.2,1.9-1.7c0.2-0.2,0.4-0.4,0.5-0.7
		c1-2.1,1.8-4.3,2.9-6.3c1.3-2.4,3.8-3.5,6.2-4.5c0.4-0.2,1.1-0.2,1.5,0c0.9,0.3,1.2-0.2,1.3-0.8c0.2-0.6,0.4-1.3,0.5-2
		c0.1-1.9,1.1-3.2,2.6-4.3c2.4-1.8,4.9-2.6,7.9-1.6c0.7,0.2,1.1,0,1.3-0.6c0.3-0.8,0.7-1.6,0.9-2.4c0.1-0.2,0.1-0.6-0.1-0.8
		c-1.5-2.5-2.9-5.1-4.5-7.6c-0.5-0.9-1.3-1.7-1.8-2.4c-4.3,1.4-8.5,2.7-12.7,4.1c-1.9,0.7-3.7,1.8-5.6,2.5
		c-4.8,1.8-7.7,5.5-10.2,9.7c-1.9,3.3-3.8,6.6-4.8,10.3c-0.9,3.3-1.9,6.6-2.7,9.9c-0.2,0.7-0.2,1.4-0.2,2.1c0,4,0.3,8.1-0.1,12.1
		c-0.6,5.5-0.3,10.9-0.3,16.4c0,6.9,0.3,13.9,0.5,20.8c0.1,2.4-0.4,4.6-1,6.9c-0.8,2.8-1.5,5.6-2.3,8.4c-0.7,2.3-1.5,4.5-2.2,6.8
		c-2,7.2-3.9,14.5-6.1,21.7c-0.8,2.8-2.1,5.4-3.3,8.1c-1.9,4.3-3.7,8.7-5.7,12.9c-1.4,2.8-3.1,5.4-4.7,8.1C0,313.3,0,311.8,0,310.3z
		 M129.4,41.2c-0.4,1-0.8,1.8-1,2.6c-0.4,2.2-0.8,4.4-1.1,6.6c-0.5,3.7-0.9,7.4,0.3,11c0.2,0.8,0.5,1.6,0.5,2.4c0,0.4-0.4,1-0.7,1.3
		c-0.2,0.1-0.9-0.3-1.2-0.6c-0.6-0.8-1-1.7-1.4-2.6c-0.6-1.4-1.3-2.8-1.6-4.3c-0.7-3.2-1.1-6.4-1.7-9.7c-0.4-2.2-0.9-4.4-1.5-6.5
		c-0.1-0.4-0.6-1-0.8-1c-0.9,0.3-2.1,0.3-2.3,1.4c-0.3,1.2-1.1,1.7-1.9,2.4c-2.9,2.5-6.3,4.1-9.3,6.2c-3.8,2.7-8,4.2-12.5,4.6
		c-1.3,0.1-2.6,0-3.8,0c-0.1-0.2-0.1-0.4-0.2-0.6c0.6-0.5,1.1-1.1,1.7-1.6c2.8-2.1,5.7-4,8.4-6.1c1.9-1.6,3.9-3.3,4.2-6
		c0.3-2.5-1.2-4.6-3.6-4.1c-2.5,0.4-5.2,1.1-7.3,2.5c-3,2.1-5.6,4.8-8.3,7.3c-1.2,1.1-2.2,2.4-3.6,3.9c-0.1-0.8-0.2-1.3-0.2-1.7
		c0-1.3,0.2-2.7,0.1-4c0-0.6-0.6-1.6-1-1.6c-1.8-0.1-3.7-0.5-5.4,0.6c-1.6,1-3.1,2-4.5,3.2c-1.1,0.9-2.3,1.8-3.1,2.9
		c-3.4,5.4-5.4,11.3-5.9,17.7c-0.4,5.3-0.9,10.5-1.5,15.8c-0.5,4.2-1,8.4-0.9,12.6c0,1-0.2,2.1-0.2,3.1c0,2.6,0.2,5.1,0.1,7.7
		c-0.1,1.7,1.3,3.4-0.1,5c-0.1,0.1,0,0.4,0,0.6c0.2,2.8,0.5,5.5,0.6,8.3c0.2,4.5,0.2,9,0.6,13.5c0.4,4.3,1.1,8.6,1.9,12.8
		c0.6,2.9,1.7,5.6,3.5,8.1c1,1.3,1.7,2.8,2.6,4.2c0.5,0.8,1.2,1.4,1.9,2.2c0.9-2.3,1.7-4.3,2.4-6.4c0.1-0.2-0.1-0.6-0.3-0.8
		c-0.8-0.5-0.6-1,0-1.5c1.9-1.5,3.8-3.1,5.7-4.5c1.6-1.2,3.4-2.2,5.1-3.3c2.2-1.3,4.5-2.7,6.8-3.7c2-0.8,4.4-1.1,6.2-0.1
		c2.5,1.3,4.9,1.4,7.5,0.7c2.1-0.6,4.1-0.4,6.1,0.4c3.8,1.5,7.1,3.7,10.2,6.3c2,1.7,3.9,3.5,5.8,5.2c0.3,0.3,0.5,0.8,0.6,1.2
		c0.1,0.6-0.1,1.2-0.2,1.7c-0.2,2.9-0.7,5.8-2.6,8.2c-0.4,0.6-0.8,1.2-1.3,1.8c1.2,0.5,2.3,1,3.4,1.5c2.8,1.4,3.2,4.9,0.8,7
		c-3.6,3.3-7.1,6.6-10.6,10c-1,0.9-1.7,2.1-2.6,3.1c0.1,0.1,0.2,0.2,0.3,0.3c1.1-0.8,2.3-1.6,3.4-2.4c1.2-1,2.3-2.3,3.6-3.1
		c5.4-3.6,10.8-7,16.2-10.5c0.2-0.1,0.4-0.2,0.6-0.4c1.2-0.7,2.6-1.2,3.7-2c4.5-3.2,8.1-7.1,10.7-12c1.4-2.6,3-5,4.4-7.6
		c1.2-2.4,2.3-4.9,3.4-7.4c0.7-1.6,1.7-3.2,2.1-5c1.2-5.2,2.1-10.5,3.5-15.6c0.8-3.2,2.1-6.4,3.4-9.4c1.6-3.6,2-7.2,1.6-11.1
		c-0.5-4.3-1-8.7-1.2-13c-0.2-3.5-0.1-7,1.1-10.4c0.7-1.9,1.4-3.8,1.5-5.7c0.1-3.9-0.2-7.7-0.4-11.6c0-0.8-0.9-1.3-1.3-0.8
		c-0.5,0.5-1,1.2-1.1,1.8c-0.1,2.5-1.2,4.6-2.3,6.7c-1.2,2.2-2.8,4-4.9,5.7c-0.1-0.5-0.2-0.8-0.1-1.2c0.1-1.7,0.4-3.3,0.5-5
		c0.2-5.4-0.5-10.6-3.2-15.3c-1.5-2.7-3.3-5.3-4.7-8c-1.1-2.3-2.9-3.7-4.7-5.3c-0.2-0.2-1.1-0.2-1.2,0c-0.4,0.8-0.9,1.6-0.9,2.5
		c-0.1,3.6,0.5,7,1.7,10.4c1.4,3.7,2.6,7.5,4,11.1c0.6,1.4,1.7,2.6,2.6,4.1c-3.4,0.1-6.3-0.9-8.7-3c-2.1-1.8-3.9-3.9-5.8-5.9
		c-0.5-0.5-1-1.1-1.3-1.7c-2.3-4.4-4.6-8.9-7-13.3C131.5,43.2,131,41.9,129.4,41.2z M195.6,236.6c-0.1-0.1-0.2-0.1-0.3-0.2
		c-0.2,0.3-0.5,0.6-0.7,0.9c-1.6,2.5-3,5.1-4.7,7.5c-4.1,5.7-7.2,11.8-10.7,17.9c-2.8,4.8-5.5,9.7-8.4,14.4c-3,5-6.1,10-9.2,14.9
		c-2.2,3.5-4.4,7-6.6,10.5c-1.5,2.4-3.1,4.8-4.6,7.2c-0.2,0.4-0.4,1.1-0.2,1.3c0.2,0.3,0.9,0.5,1.3,0.4c1.9-0.4,3.9-0.7,5.7-1.3
		c5.7-1.8,11.2-4.2,16.2-7.4c1.7-1.1,2.9-3,4.3-4.5c0.1-0.2,0.2-0.4,0.2-0.7c0.3-3.3,0.5-6.6,1-9.9c0.5-3.7,1.2-7.3,2.1-10.9
		c0.6-2.5,1.6-4.9,2.4-7.4c1.5-4.8,2.7-9.6,5.4-14c1.1-1.9,2.2-3.8,2.9-5.9C193.2,245.3,194.3,240.9,195.6,236.6z M110.7,152
		c-0.2-0.1-0.3-0.2-0.4-0.2c-3.8-0.8-7.7-1.5-11.4-2.5c-2.9-0.7-5.8-0.7-8.8-0.6c-0.3,0-0.8,0.5-0.8,0.8c0.1,4.1,0.4,8.2,0.6,12.3
		c0.1,1.6,0.8,2.7,2.3,3.2c3.9,1.3,7.8,2.3,11.9,2.3c1.3,0,3.4-0.8,3.7-2.5c0.1-1,0.5-2,0.7-3C109,158.4,108.9,155,110.7,152z
		 M177.7,115.9c-0.3,1.6-0.3,2.9-0.7,4c-0.6,1.7-1.4,3.4-2.3,5c-1.5,2.7-3,3-6.2,2.3c-2.3-0.5-2.6-0.5-3.2,1.8
		c-0.8,2.9-1.5,5.8-2.1,8.7c-0.5,2.3-0.3,2.4,2,2.2c0.1,0,0.2,0,0.4,0c1.6-0.1,3-0.5,3.9-1.9c1.1-1.6,2.3-3.1,3.2-4.8
		c2.6-5.2,5.4-10.3,8.7-15.1c1.1-1.6,2.1-3.3,2.9-5.1c0.3-0.7,0.3-1.6,0.3-2.3c-0.1-1.3-0.5-2.5-0.7-3.8c-0.2-1-1-1.5-1.8-0.7
		c-1.1,1-2.3,1.7-3.4,2.4c-1.5,1-2,2.9-2.3,4.7c-0.1,0.3,0.2,0.7,0.4,1.1C177,114.9,177.5,115.5,177.7,115.9z M83.9,162.5
		c-0.2,0.4-0.7,0.7-0.6,1c0.1,1.1,0.1,2.5,0.7,3.2c1.3,1.6,2.9,3,4.6,4.4c0.9,0.8,2,1.4,3.2,1.7c3.2,1.1,6.5,1.6,10,1.4
		c0.6,0,1.2,0.2,1.8,0.3c0.4,0,0.8,0.1,1.1-0.1c1.8-1.3,3.5-2.6,5.2-3.9c2-1.6,4.2-2.8,6.6-3.4c1.6-0.4,3.1-0.6,4.1-2.2
		c0.8-1.4,1.8-2.7,2.6-4.2c0.2-0.3-0.1-0.8-0.1-1.2c-0.3,0.2-0.7,0.3-0.9,0.5c-1.6,2.3-3.3,4.4-6,5.7c-2.6,1.2-5,2.9-7.9,3.1
		c-5.2,0.4-10.3-0.1-15.3-1.8c-3-1.1-5.9-2.4-8.5-4.3C84.4,162.7,84.2,162.7,83.9,162.5z M119.4,151.2c-2.9-2.5-5.6-4.7-8.7-6.3
		c-2.8-1.4-5.6-2.2-8.8-1.2c-2.4,0.8-4.9,0.7-7.1-1c-0.3-0.2-0.8-0.3-1.2-0.3c-5-0.7-8.3,2.6-12,5c0.3,0.1,0.5,0.1,0.7,0.1
		c5,0,10-0.4,14.9,0.2C104.5,148.5,111.8,150,119.4,151.2z M108.7,167.2c2.8-0.8,5.4-1.6,7.7-3.4c2.4-1.8,4.3-3.8,5.5-6.6
		c0.4-0.9,0.3-1.8-0.4-2.4c-2.7-2.1-6-2.5-9.5-2.7c-0.4,2.5-1,4.8-1.2,7.2C110.4,162,109.9,164.6,108.7,167.2z M101.8,176.6
		c-2.5-0.2-4.6-0.3-6.8-0.6c-3-0.4-6-1.1-8.3-3.4c-0.8-0.8-1.6-1.4-2.5-2.2c-0.2,0.1-0.3,0.1-0.5,0.2c0.1,1.1-0.1,2.4,0.3,3.4
		c0.6,1.4,1.7,2.5,2.7,3.7c1.1,1.2,2.4,2.3,3.5,3.5c1,1.1,2.3,1.5,3.7,0.9c0.6-0.2,1.1-0.6,1.6-1c1.3-0.9,2.6-1.9,4-2.8
		C100.2,177.8,100.9,177.2,101.8,176.6z M185.9,107.2c0.1,0,0.2,0,0.4,0.1c0.3-0.5,0.7-1,0.8-1.6c0.2-1.6,0.2-3.2,0.2-4.8
		c0-1.5-0.6-2.2-2.2-2.2c-3.5,0.1-6.6,1.2-8.8,4c-1.1,1.4-2,3-2.9,4.6c-1.4,2.4-1.4,2.6,1,4.2c1-2.3,2-4.5,4.6-5.3
		c0.2-0.1,0.3-0.4,0.5-0.5c0.9-0.6,1.8-1.4,2.8-1.8c1.4-0.6,2.3,0,2.8,1.5C185.4,105.9,185.7,106.5,185.9,107.2z M166.1,124.6
		c1.2,0.3,2.2,0.6,3.3,0.7c0.9,0,2,0,2.6-0.5c1.7-1.3,2.9-3.1,3.1-5.4c0.1-0.7,0.1-1.3,0.2-2c0.2-1.3-0.2-2-1.4-2.3
		c-1.1-0.3-1.8-0.9-2.2-2c-0.1-0.3-0.4-0.6-0.7-0.9c-0.3,0.3-0.7,0.5-0.9,0.8c-1.2,2.8-2.3,5.6-3.3,8.5
		C166.3,122.5,166.2,123.6,166.1,124.6z M87.4,148.9c-0.7,0-1.2-0.1-1.6,0c-0.4,0.1-0.9,0.5-0.9,0.9c-0.4,3.1-0.8,6.3-1.2,9.4
		c0,0.3,0,0.8,0.2,1c1.1,1,2.3,1.9,3.5,2.9C87.4,158.2,87.4,153.6,87.4,148.9z M123.5,174.5c-0.6-0.2-1-0.5-1.4-0.5
		c-1.1-0.1-2.3-0.5-3.2,0.5c-0.8,1-1.5,2.2-2.3,3.3c0.7,0.4,1.4,0.7,2.1,1C120.2,177.4,121.7,176,123.5,174.5z M56,95.7
		c0.7-2.4-0.7-4.4-1.2-6.7c-0.1-0.4-1.1-0.9-1.6-0.9c-0.7,0.1-1.1,2.4-0.6,3.1C53.8,92.8,54.9,94.2,56,95.7z M55.9,105.9
		c0-1.5,0-3.1,0-4.6c0-0.5,0.1-1.2-0.1-1.6c-1-1.7-2-3.4-3.1-5.1C53.1,98.5,54.4,102.2,55.9,105.9z"/>
	<path class="st0" d="M83.7,93.1c3.8-0.3,6.9,1.8,9.4,4.9c0.9,1.2,1,3,1.4,4.5c0,0.2-0.7,0.8-1,0.8c-2.6-0.3-5,0.4-7.5,0.5
		c-2.4,0.1-4.8,0.1-7.2-0.4c-1.5-0.3-2.9-1.6-4.1-2.6c-1-0.8-2-0.8-3.1-0.4c-0.7,0.2-1.2,0.7-1.9,0.9c-0.4,0.1-0.9-0.3-1.4-0.4
		c0.3-0.3,0.5-0.7,0.8-0.9c1.8-1.3,3.6-2.5,5.4-3.8c0.3-0.2,0.6-0.5,0.9-0.8C77.6,93.1,80.5,93,83.7,93.1z M78.6,101.9
		c-0.1-1.8-0.1-3.4-0.2-4.9c0-0.3-0.1-0.7-0.1-1c-0.4,0.1-0.8,0-1.1,0.2c-0.8,0.6-1.6,1.2-2.3,2c-0.2,0.2,0,0.9,0.2,1.2
		c0.4,0.5,1,0.8,1.6,1.2C77.3,101,78,101.4,78.6,101.9z M90.7,97.6c-0.1,0.1-0.2,0.1-0.3,0.2c0,0.5,0.1,1.1,0,1.6
		c-0.1,0.5-0.4,1-0.4,1.6c0,0.3,0.5,0.7,0.7,0.7c1.8,0,2.2-0.8,1.4-2.4C91.7,98.7,91.1,98.2,90.7,97.6z"/>
	<path class="st0" d="M148.2,107.6c-0.4-0.1-0.7-0.2-0.9-0.3c-2-0.8-4.1-1-6.1-0.2c-3.9,1.5-7.6,1.1-11.5-0.1
		c-2.7-0.8-5.3-1.8-8.2-1.5c-0.5,0-1-0.5-1.4-0.8c0.3-0.4,0.5-0.9,0.8-1.2c0.7-0.7,1.5-1.4,2.3-2c3.4-2.7,7.2-4.5,11.6-3.7
		c2.2,0.4,4.2,1.7,6.2,2.8c1.3,0.8,2.4,2.1,3.7,3c1.2,0.9,2.5,1.5,3.8,2.4c0.3,0.2,0.6,0.7,0.6,1C149,107.2,148.5,107.4,148.2,107.6
		z M127.4,104.7c0.1-1.2,0.1-2.1,0.2-3c0-0.6,0.1-1.4-0.7-1c-1.3,0.7-2.5,1.8-3.7,2.7c0,0.1,0.1,0.3,0.1,0.4
		C124.8,104.1,126.2,104.4,127.4,104.7z M138.5,105.9c0.1,0.1,0.2,0.2,0.3,0.3c1.3-0.5,2.5-1.1,3.8-1.7c0.2-0.1,0.3-0.7,0.2-0.8
		c-1-0.7-2.1-1.4-3.2-2.1c-0.1,0.1-0.2,0.2-0.2,0.2C139.9,103.4,139.5,104.7,138.5,105.9z"/>
	<path class="st0" d="M154.4,92.7c-0.2,1.4-0.8,1.3-1.5,1.1c-4.2-1.6-8.4-3.2-12.5-4.8c-2.5-1-5-1.2-7.6-0.8
		c-1.9,0.3-3.8,0.9-5.8,1.2c-0.5,0.1-1.2-0.2-1.5-0.6c-0.2-0.2-0.1-1,0.2-1.3c0.7-0.7,1.5-1.5,2.4-1.7c3.6-1,7.5-1.3,11-0.2
		c3.5,1,7.1,1.9,10.1,4.4c1,0.9,2.6,1.1,3.8,1.8C153.7,91.9,154.1,92.4,154.4,92.7z"/>
	<path class="st0" d="M93.2,89.5c-1.7-0.6-3.3-1-4.9-1.7c-6.7-3-13.6-4-20.8-2c-0.4,0.1-0.9-0.1-1.4-0.2c0.2-0.5,0.2-1.1,0.5-1.4
		c1.8-1.8,4.2-2,6.6-2.1c5.4-0.4,10.5,0.8,15.7,2.1c2,0.5,3.7,1.6,5.1,3.2c0.3,0.3,0.4,1,0.3,1.4C94.2,89,93.6,89.2,93.2,89.5z"/>
	<path class="st0" d="M91.8,127.7c2.7-0.5,4.1,1,5.5,2.9c1.9,2.6,4.5,3.2,7.4,1c1.6-1.2,3.2-2.2,5.2-2.6c1.6-0.3,3,0.3,4,1.2
		c0.9,0.8,1.7,0.6,2.6,0.4c1.2-0.3,2.2-1.9,2.3-3.1c0.2-1.7-0.5-2.9-1.8-3.9c-0.7-0.6-1.4-1.1-2.1-1.8c-0.2-0.2-0.1-0.7-0.1-1
		c0.3,0,0.7-0.1,0.9,0.1c1.1,0.9,2.3,1.8,3.3,2.9c1.3,1.3,1.5,4.1,0.6,5.7c-1.1,1.9-3.5,3.1-5.4,2.6c-0.2-0.1-0.4-0.2-0.6-0.3
		c-2.9-1.7-4.9-1.6-7.6,0.3c-0.9,0.6-1.8,1.2-2.8,1.6c-2.5,1-5.2,0.1-6.8-2.1c-0.6-0.8-1.1-1.7-1.9-2.3c-0.5-0.4-1.3-0.5-2-0.5
		c-0.7-0.1-1.5,0-2.2,0.1c-1.3,0.1-2.5-0.2-3.1-1.5c-0.6-1.3-0.6-2.7,0.2-3.8c1.1-1.3,2.4-2.5,3.7-3.6c0.2-0.2,0.8,0,1.3,0
		c-0.2,0.4-0.3,0.8-0.6,1.1c-1,1-2.1,2-3.1,3c-0.3,0.3-0.4,0.8-0.4,1.2c-0.1,2.2,0.1,2.3,2.3,2.3C91.1,127.7,91.5,127.7,91.8,127.7z
		"/>
</g>
</svg>
