<?xml version="1.0" encoding="utf-8"?>
<!-- Generator: Adobe Illustrator 19.2.1, SVG Export Plug-In . SVG Version: 6.00 Build 0)  -->
<svg version="1.1" id="Layer_1" xmlns="http://www.w3.org/2000/svg" xmlns:xlink="http://www.w3.org/1999/xlink" x="0px" y="0px"
	 viewBox="0 0 200 197.7" style="enable-background:new 0 0 200 197.7;" xml:space="preserve">
<style type="text/css">
	.st0{fill:#00BCD4;}
</style>
<g id="coldsore-girl2">
	<path class="st0" d="M0.3,197.7c-0.1-2.9-0.4-5.8-0.2-8.7c0.3-4.5,1-9.1,1.6-13.6c0.4-2.7,0.7-5.4,1.4-8c2.2-8.3,5.7-16.1,10-23.6
		c1.7-3,3.4-5.9,5.8-8.5c1.3-1.4,1.8-3.7,2.6-5.6c0.7-1.6,1.5-3.3,1.9-5c2.4-8.3,4.8-16.7,7.1-25.1c1.2-4.3,2.2-8.6,3.2-13
		c0.9-4,1.4-8.2,2.8-12.1c1.7-4.9,3.6-9.9,6.2-14.4c3.5-6,7.2-11.8,10-18.1c1.7-3.7,3.2-7.5,4.7-11.2c0.3-0.8,0.4-1.8,0.4-2.7
		c-0.1-2.9,1.4-5,3.6-6.5c5.1-3.5,9.7-7.8,14.4-11.8c1.7-1.5,3.5-3.1,5.4-4.2c1.7-1,3.8-1.4,5.7-2c5.4-1.7,10.9-2.8,16.5-3
		c2.7-0.1,5.5-0.3,8.2-0.6c2.5-0.3,4.8,0.5,7,1.7c2.6,1.5,5.2,3,7.9,4.4c4.3,2.2,7.2,5.8,10.1,9.4c3.5,4.5,6.9,9.1,10.2,13.8
		c0.8,1.1,1.2,2.5,1.8,3.8c1.6,3.9,3.3,7.8,4,12.1c0.3,2.1,0.4,4.4,1,6.4c1,3.6,2.2,7.1,3.4,10.5c2.5,7,5.5,13.8,7.7,20.8
		c1.5,4.6,2.1,9.5,3,14.3c0.7,3.6,1.2,7.2,1.7,10.9c0.4,2.9,0.4,5.9,1.1,8.7c0.6,2.7,2.1,5.1,2.9,7.8c1.3,4.1,2.4,8.4,3.7,12.5
		c0.4,1.3,1,2.5,1.8,3.6c0.3,0.5,1.2,0.7,1.9,0.9c2,0.5,4.1,0.7,5.5,2.2c1,1.1,2.1,2.3,2.6,3.7c1.3,3.1,2.3,6.4,3.4,9.6
		c1.1,3.4,2.1,6.8,3.3,10.2c1.8,5,3,10.1,3.5,15.3c0.6,5,0.7,10.1,1,15.2c-1,0-2,0-3,0c0.3-4.8,0.3-9.5-0.6-14.3
		c-0.9-4.9-1.6-9.8-3.3-14.5c-1.3-3.6-2.3-7.3-3.5-10.9c-1-3.1-1.9-6.1-3.1-9.1c-0.9-2.5-2.6-4.3-5.5-4.7c-0.5-0.1-1.2,0.1-1.4,0.4
		c-2.6,3.4-5,7-7.5,10.4c-3.5,4.7-6.7,9.6-8.6,15.1c-1.1,3.1-1.9,6.3-2.5,9.5c-0.9,4.7-0.7,9.6-2.3,14.2c-0.2,0.5-0.1,1-0.1,1.5
		c-0.1,0.8-0.2,1.6-0.3,2.4c-0.9,0-1.8,0-2.7,0c0.2-1.2,0.3-2.5,0.5-3.7c0.6-4,1.4-8,1.8-12c0.9-9.1,3.8-17.4,9.3-24.8
		c3.1-4.1,6.2-8.2,9.4-12.3c1-1.4,1-1.8-0.4-2.7c-1.2-0.8-2.3-1.8-3.6-2.4c-5.5-2.9-11.1-5.8-16.7-8.7c-1.3-0.7-2.6-1.3-3.8-1.9
		c-1.8-1-3.6-2.1-5.1-3c-14.5,15.8-31.9,24.1-53.8,22.8c0.7,0.6,1.1,1.2,1.7,1.5c1.8,1,3.7,1.9,5.6,2.8c4.1,1.9,5,6.1,2,9.6
		c-0.5,0.5-0.8,1.4-0.8,2.1c0.1,3.2,0.3,6.4,0.5,9.5c0.1,1.2-0.4,2-1.4,2.7c-3.7,2.5-7.3,5.2-10.9,7.8c-3.1,2.3-6.1,4.6-9.2,6.9
		c-0.6,0.4-0.8,0.8-0.7,1.6c0.2,1.4,0.2,2.8,0.2,4.3c-0.9,0-1.8,0-2.7,0c0-3.8,0-3.7-3.6-5.1c-2.8-1.1-5.7-1.9-8.2-3.3
		c-4.4-2.5-8.9-4.8-13.8-6.3c-2-0.6-3.8-0.6-5.5,0.9c-1.5,1.4-3.1,2.6-4.7,3.9c-3.2,2.7-4.9,6.4-6.8,10c-1.2,0-2.4,0-3.6,0
		c2.7-3.8,5.3-7.7,8.1-11.4c1.5-2,1.6-1.9,0-3.8c-1.3-1.6-2.4-3.3-2.3-5.5c0.1-1.5,0.2-3.1,0.4-4.6c0.6-5.1,1.3-10.2,1.1-15.4
		c-0.2-3-0.2-6.1-0.3-9.1c-0.1-1.5,0.5-2.2,2.4-2.2c0.2,2.5,0.5,5.1,0.6,7.6c0.2,2.6,0.3,5.3,0.3,7.9c0,2.5-0.2,5-0.4,7.8
		c0.4-0.8,0.8-1.4,1-2c1.1-4.2,2.3-8.3,3.3-12.5c0.6-2.5,1.3-4.9,1.5-7.4c0.2-3.7,0.5-7.4,1.8-10.8c0.4-0.9,1-1.6,1.6-2.4
		c0.2,0.1,0.4,0.1,0.6,0.2c0.2,0.8,0.7,1.7,0.5,2.3c-1.3,3.8-1.3,7.8-1.9,11.7c-0.5,3.4-1.6,6.8-2.1,10.2c-0.5,3.2-1.1,6.2-2.5,9.1
		c-1,2.2-2.1,4.4-2.9,6.7c-1,2.7-1.4,5.4,0.6,7.9c0.3,0.3,1.2,0.5,1.4,0.4c2.2-1.9,5-3,6.9-5.5c3.3-4.2,7.1-8.1,9.8-12.8
		c1.3-2.3,3.1-4.2,4.7-6.4c2.5-3.3,5-6.6,7.4-9.9c0.9-1.2,1.5-2.7,2.2-4.1c0.4-0.8,0.3-1.3-0.5-1.7c-1.3-0.7-2.6-1.6-4-2.3
		c-3.1-1.6-5.8-3.7-8-6.4c-0.9-1.1-1.6-2.4-2.5-3.5c-0.8-1-1.7-1.8-2.4-2.9c-0.9-1.3-2-1.6-3.5-1.2c-2,0.5-4,0.9-5.9,1.4
		c-2.6,0.6-5.3,1.1-7.9,1.9c-4.1,1.4-8,3-12,4.6c-0.6,0.2-1,0.8-1.7,1.2c0.5,0.3,0.7,0.5,1,0.7c3.4,2.1,5.3,5.2,6.7,8.7
		c0.4,1,0.9,2.4-0.5,2.8c-1.5,0.5-1.7-1-2.1-2c-1.4-3.8-3.7-6.8-7.4-8.6c-0.9-0.5-1.5-0.3-2.3,0.3c-1.9,1.8-3.7,3.7-4.9,6.1
		c-1.6,3.1-3.8,6-5.1,9.2C8.9,159,5.2,166,4.6,174c-0.2,2.1-0.7,4.1-1,6.1c-0.4,2.9-0.8,5.8-0.8,8.7c-0.1,2.9,0.3,5.8,0.5,8.8
		C2.3,197.7,1.3,197.7,0.3,197.7z M83.6,122.9c1.2-3.2,2.2-5.9,3.2-8.7c0.1-0.2,0-0.7-0.2-0.9c-1.5-1.9-2.2-4.1-2.4-6.5
		c-0.1-1.2,0.3-1.9,1.4-2.3c5.2-1.8,10.5-2.2,16-1c0.6,0.1,1.4-0.1,2-0.1c1.1-0.1,2.2-0.5,3.2-0.3c3.4,0.6,7,0.2,10.1,2.1
		c0.4,0.2,0.9,1.1,0.7,1.3c-0.7,1.3-1.5,2.7-2.6,3.8c-5.4,5.6-11.7,9.4-19.9,10c-0.8,2.3-1.7,4.7-2.6,7.2c1.2,0.2,1.9,0.3,2.7,0.4
		c3.1,0.3,6.2,0.5,9.2-0.6c9.7-3.5,18.3-8.9,25.9-15.8c3.8-3.4,5.9-8.2,5.9-13.4c0-6.7,0.7-13.3,2.5-19.8c1.6-5.9,2.2-11.9,1.8-18
		c-0.2-2.7-1-5.2-3.1-7.1c-1.7-1.5-3.4-3.1-5.2-4.4c-3.1-2.1-5.3-5-7-8.2c-2-3.6-5.1-5.6-8.6-7.2c-0.6-0.3-1.5-0.3-2.2,0
		c-1.6,0.5-3.1,1.4-4.6,1.9c-2.9,1.1-5.7,2.6-8.7,2.9c-5,0.5-10.1,0.1-15.1,0c-3.9,0-7.2,1.5-10.2,3.6c-2,1.4-3.9,3-5.8,4.5
		c-1.3,1.1-2.8,2.1-3.3,3.9c-0.4,1.4-1,2.8-1.3,4.3c-0.4,1.8-0.9,3.6-0.9,5.4c0,8.3,0.2,16.7,0.3,25c0.1,4-0.1,8.1,0.4,12.1
		c0.8,6.4,3.7,12.1,8.2,16.7C76.3,117.1,79.9,119.8,83.6,122.9z M52.1,180c2.6,1,5.3,1.8,7.9,3c5.6,2.7,10.9,5.9,17,7.5
		c0.4,0.1,1.1,0.3,1.4,0c2.9-2.1,5.9-4.3,8.7-6.5c3.9-3,7.3-6.6,12-8.5c0.5-0.2,1-1,1-1.6c-0.1-3.4-0.3-6.9-0.5-10.3
		c0-0.3-0.5-0.7-0.8-0.9c-0.9-0.6-1.8-1-2.6-1.7c-0.4-0.3-0.5-1-0.7-1.6c0.6,0,1.2-0.1,1.7,0.1c0.8,0.3,1.6,0.8,2.4,1.2
		c1.3,0.7,1.9,0.4,2.4-1c0.7-2.1-0.1-4-2.6-5c-2.2-0.9-4.5-1.8-6.3-3.3c-1.4-1.1-2.4-1.2-3.8-0.6c-0.4,0.1-0.9-0.2-1.4-0.3
		c0.2-0.5,0.3-1.1,0.6-1.3c0.5-0.4,1.2-0.6,1.5-0.7c-0.3-2.3-0.8-4.4-0.8-6.6c0-2.8,0.3-5.7,0.7-8.5c0.8-4.4,1.3-8.9,3.4-13
		c1.1-2.2,1.7-4.5,2.7-7.1c-2.3,2-4.9,1.7-6.7,0.2c-0.4,0.7-0.8,1.4-1.1,2.1c-1.7,4.7-3.4,9.5-5.1,14.3c-1,2.6-2.3,5.1-3.1,7.7
		c-1.9,7-5.6,13-10.1,18.6c-2.6,3.3-5,6.7-7.4,10.1c-2.1,2.9-4.1,5.9-6.5,8.6C54.5,176.6,52.7,177.8,52.1,180z M80.9,22.9
		c1,0.3,1.7,0.5,2.4,0.6c0.7,0.1,1.4,0,2.1,0.2c3.9,1,7.7,2,11.6,3.1c5.5,1.6,6,1.5,8.2-4.4c0.3-0.8,0.7-1.6,1.1-2.4
		c0.4-0.8,1.1-1.3,2.1-1c1.4,0.3,2.8,0.6,4.2,0.9c2.9,0.6,5.7,1.1,8.6,1.8c1.6,0.4,3.3,0.8,4.7,1.7c3,1.9,6,4.1,8.8,6.3
		c4.7,3.8,8.1,8.5,9.3,14.5c0.7,3.6,0.6,7.4,0.6,11.2c0,1.4-0.6,2.7-0.9,4.1c-0.1,0.6-0.2,1.3-0.2,1.9c0,0.3,0.3,0.7,0.6,0.7
		c0.3,0.1,0.8-0.1,0.9-0.3c0.5-1.3,1.3-2.7,1.4-4.1c0.2-3.2,0-6.4,0.1-9.5c0-4.7-1-9.2-3.6-13.1c-1.1-1.7-2.7-3.1-3.8-4.9
		c-1.2-1.9-2.7-3.5-4.5-4.9c-4.6-3.5-9.7-6-15.2-7.7c-3.3-1-6.6-1.6-9.8-2.4c-0.3-0.8-0.4-1.9-1-2.3c-0.7-0.4-1.8-0.1-2.7-0.1
		c-0.6-2.3-1.3-4.7-1.9-7.2c-0.2-1.1-0.5-1.4-1.7-1c-3.2,1.1-6.5,2-9.7,3.2c-4.2,1.6-7.8,4-10.4,7.8c-1,1.5-2.3,2.8-4.4,2
		c-0.7-0.3-1.6-0.4-2.3-0.3c-4.4,0.3-8.2,2.2-11.8,4.6c-2.3,1.5-4,3.3-4.2,6.3c-0.2,2.3-0.1,4.5,1.4,6.3c0.9,1.1,1.9,2,2.9,3
		c1.2,1.4,2.4,2.9,3.7,4.5c0.7-0.8,1.3-1.4,1.9-2c1.2-1.4,2.6-2.7,3.6-4.1c2.5-3.4,4.9-7,7.2-10.5C80.5,24.8,80.6,23.7,80.9,22.9z
		 M136.7,124.5c-0.9-0.7-1.8-1.4-2.7-1.9c-2-1.2-4.1-2.2-6-3.5c-1.7-1.2-1.9-1.4-3.6-0.2c-5.3,4.2-11.3,7.1-17.5,9.8
		c-3.8,1.7-7.8,1.9-11.9,1.3c-2.5-0.3-2.6-0.5-3,1.9c-0.4,3-0.6,5.9-0.8,8.9C104.2,145.1,129.2,136.8,136.7,124.5z M83,125
		c-2.6-1.9-4.8-3.6-7.1-5.3c-0.9-0.6-1.9-0.9-2.9-0.1c-2,1.6-4.2,2.5-6.8,2.8c-0.4,0-0.8,0.4-1,0.8c-0.1,0.2,0.2,0.7,0.4,1
		c0.8,1.1,1.6,2.3,2.5,3.3c0.9,1.1,2,2.1,3.1,3c1.2,1,2.6,1.9,3.8,2.8c1.1,0.8,2.1,1.8,3.6,2.9C80.1,132.2,81.5,128.6,83,125z
		 M91.1,143.3c-0.1,0.1-0.2,0.3-0.4,0.4c0.3,0.6,0.4,1.6,0.9,1.8c1.4,0.6,3,1.3,4.5,1.4c4.4,0.4,8.8,0,13.1-0.9
		c7.7-1.6,15-4.5,21.6-8.9c4.5-3,8.3-6.9,12.4-10.5c0.4-0.4,0.6-1,0.9-1.5c-1.2-0.8-2.2-1.5-3.2-2.1c-5.4,8.7-13,13.8-22,17.4
		C109.9,144,100.8,145.3,91.1,143.3z M114.3,106.6c-5.4,0.9-10.7,1.1-16.1,0.9c-1.5,0-3-0.2-4.3-0.8c-2.2-0.9-4.3-1.2-7.1-0.7
		c1,1.5,1.8,2.8,2.7,4.2c3.1-3.2,6.9-1.8,8.4,2.7C104.5,113.8,109.5,110.4,114.3,106.6z M62.5,84.9c0-3.7,0-7.3,0-11
		c0-0.8-0.1-1.6-0.3-2.4c-0.1-0.4-0.4-0.7-0.6-1.1c-0.4,0.2-1,0.3-1.2,0.7c-0.8,1.4-1.6,2.7-2.1,4.2c-0.5,1.7-0.7,3.6-0.9,5.4
		c-0.4,4.4,0.8,8.3,4.2,11.2c0.2,0.1,1.1-0.2,1.1-0.4c0.2-1.9,0.1-3.8-1.3-5.3c-1.4-1.4-2.6-2.8-2.4-5c0.1-0.7-0.5-1.5,0.4-1.8
		c0.2-0.1,0.7,1.1,1.1,1.7c0,0.1,0,0.2,0,0.3C60.5,83,61.4,84,62.5,84.9z M61.3,123.2c-1.2,0-2.1,1.2-1.5,1.9c1.9,2.5,3.7,5.2,6,7.2
		c2.9,2.6,6.3,4.7,9.6,6.9c0.3,0.2,1,0.1,1.5,0.1c-0.1-0.6-0.1-1.4-0.4-1.8c-1-1-2.1-1.9-3.3-2.7c-4.3-2.9-7.7-6.8-10.9-10.9
		C61.8,123.7,61.4,123.4,61.3,123.2z M138,90.4c0.2,0.1,0.5,0.2,0.7,0.4c0.3-0.7,0.8-1.3,1-2c0.3-1.7,0.5-3.5,2.4-4.3
		c0.6-0.2,1.2-0.3,1.9-0.5c-0.5-0.7-1-1.1-1.3-1.7c-0.2-0.5-0.2-1.1-0.3-1.7c0.5,0.3,1.1,0.4,1.5,0.8c0.6,0.5,1,1.2,1.7,2
		c0.2-2.8,1.2-5.3-0.7-7.7c-1-1.3-1.6-1.5-2.9-0.5c-0.8,0.7-1.4,1.5-1.6,2.6C139.7,82.1,138.8,86.3,138,90.4z M95.9,118.6
		c7.1-0.5,12.3-4.1,17.1-8.5c-4.9,2.6-9.7,5.3-15.5,4.2C97,115.8,96.5,117,95.9,118.6z M145.1,85.4c-0.4,0.1-0.6,0.2-0.8,0.2
		c-2.4,0.2-2.6,0.3-3,2.7c-0.2,1.3-0.2,2.6-1.5,3.3c-1.2,0.7-2.3,1.6-1.8,3.2c0.1,0.4,0.1,0.8,0.2,1.2c0.4-0.1,0.9-0.1,1.2-0.3
		C142.7,93.2,144.3,89.7,145.1,85.4z M146.3,75.2c0.2-2.4,0.4-4.3,0.5-6.3c0-0.4-0.1-0.9-0.2-1.3c-0.2-1.1-1-1.2-1.6-0.6
		c-1.8,1.8-3.3,3.8-3.2,6.7C143.7,72.6,145,73.4,146.3,75.2z M111.1,105.5c-2.6-0.7-5.2-1.5-7.9-0.5c-0.5,0.2-1.2,0.1-1.8,0.1
		c-2.4-0.3-4.7-0.6-7-0.9c-0.4-0.1-0.9,0.2-1.7,0.4C99,106.9,105,105.9,111.1,105.5z M90.4,112.1c1.8,1.9,3.8,1.5,4.5-1
		C93,109.6,91.8,109.8,90.4,112.1z M87.7,112.4c0.9-1,0.1-2.5-2-4.2C86.4,109.8,87,111,87.7,112.4z"/>
	<path class="st0" d="M76.8,73.3c4.2-3,8.9-3.8,13.8-2.6c1.8,0.5,3.5,1.8,5.1,2.8c0.4,0.2,0.6,0.9,0.6,1.4c0,0.2-0.7,0.5-1.2,0.6
		c-2.5,0.5-5,1.2-7.5,1.4c-2.5,0.2-4.7-0.8-6.8-2.1c-0.4-0.3-1.1-0.6-1.5-0.4C78,74.9,77.2,74.5,76.8,73.3z M93.2,74.3
		c0-0.2,0-0.4,0-0.6c-0.9-0.3-1.8-0.9-2.6-0.8c-0.4,0-0.7,1.3-1,2.1c0.1,0.1,0.2,0.2,0.3,0.3C91.1,75,92.2,74.6,93.2,74.3z
		 M84.1,72.4c-1,0.1-1.8,0.2-2.7,0.3c0,0.2-0.1,0.4-0.1,0.6c0.8,0.5,1.5,0.9,2.3,1.4C83.8,73.9,83.9,73.3,84.1,72.4z"/>
	<path class="st0" d="M121.5,78.2c-2.8-0.5-5.1-0.8-7.4-1.2c-0.4-0.1-1.1-0.6-1.1-0.9c0-0.5,0.3-1.1,0.7-1.4
		c4.5-3.8,9.5-3.9,14.8-1.8c0.7,0.3,1.5,0.5,2.2,0.9c0.4,0.2,0.8,0.8,0.8,1.2c-0.1,0.5-0.5,1.3-0.9,1.4
		C127.4,77,124.3,77.6,121.5,78.2z M124.5,73.3c-0.1,1.2-0.2,1.9-0.3,2.9c1.3-0.4,2.4-0.7,3.5-1c0-0.2,0-0.4,0.1-0.7
		C126.7,74.2,125.7,73.8,124.5,73.3z M117.3,76c0-0.7,0-1.2,0-2c-1,0.6-1.7,1.1-2.5,1.6c0.1,0.1,0.1,0.3,0.2,0.4
		C115.8,76,116.5,76,117.3,76z"/>
	<path class="st0" d="M83.4,62.7c2.9,0.3,5.9,0.6,8.8,1.1c0.8,0.1,1.6,0.6,2.2,1.1c0.3,0.2,0.3,0.8,0.5,1.2
		c-0.4,0.1-0.9,0.4-1.2,0.3c-3.6-1.7-7.4-1.1-11.2-1.2c-2.5,0-4.8,0.3-7.1,1.4c-0.4,0.2-1,0-1.5,0c0.2-0.5,0.2-1.1,0.5-1.6
		c0.2-0.3,0.6-0.5,1-0.6C78,63.5,80.7,62.8,83.4,62.7z"/>
	<path class="st0" d="M115.4,67.1c1-1.8,2.5-1.8,3.8-2.1c1.7-0.4,3.6-0.5,5.4-0.5c3.3-0.1,6.4,0.7,9.4,2c0.4,0.2,0.6,0.9,0.8,1.3
		c-0.5,0.1-1.2,0.6-1.6,0.4c-3.8-1.8-7.7-1.6-11.7-0.7c-1.2,0.3-2.5,0.5-3.7,0.4C117,67.9,116.3,67.4,115.4,67.1z"/>
	<path class="st0" d="M111.4,89.4c0.8,0.4,1.6,0.7,2.3,1.2c1.1,0.9,1.6,3.6,1,4.9c-0.3,0.5-0.9,0.9-1.5,1c-0.8,0.2-1.6,0.1-2.4,0.1
		c-1.8,0-3,1.2-4.2,2.3c-1.8,1.5-4.1,1.4-5.5-0.4c-1.1-1.4-2.5-1.9-4.2-1.9c-0.5,0-1.1,0-1.6-0.1c-1.9-0.5-3-1.6-2.9-2.9
		c0.1-2.7,1.6-4.4,4.4-4.8c-0.5,0.6-0.8,1-1.1,1.3c-0.4,0.3-1,0.5-1.1,0.9c-0.4,1-1,2.2-0.7,3c0.3,0.7,1.7,1.3,2.7,1.4
		c2.3,0.1,4.1,0.6,5.6,2.6c0.8,1.1,2.7,1.2,3.6,0.3c1.9-1.9,4-2.8,6.7-2.5c0.9,0.1,1.4-0.4,1.4-1.3c0.1-1.4-0.4-2.5-1.6-3.3
		c-0.4-0.3-0.8-0.6-1.2-1C111.2,89.7,111.3,89.5,111.4,89.4z"/>
</g>
</svg>
