<?xml version="1.0" encoding="utf-8"?>
<!-- Generator: Adobe Illustrator 18.1.1, SVG Export Plug-In . SVG Version: 6.00 Build 0)  -->
<!DOCTYPE svg PUBLIC "-//W3C//DTD SVG 1.1//EN" "http://www.w3.org/Graphics/SVG/1.1/DTD/svg11.dtd">
<svg version="1.1" id="Layer_1" xmlns="http://www.w3.org/2000/svg" xmlns:xlink="http://www.w3.org/1999/xlink" x="0px" y="0px"
	 viewBox="0 0 182.4 283.1" style="enable-background:new 0 0 182.4 283.1;" xml:space="preserve">
<style type="text/css">
	.st0{fill:#00BCD4;}
</style>
<g id="coldsore-girl">
	<path class="st0" d="M11.5,283.1c-0.3-1.2-0.5-2.5-0.8-3.7c-1-3.2-0.7-6.4-0.2-9.6c0.5-3.1,1.4-6.1,2.5-9.1c0.4-1.2,1-2.3,1.6-3.4
		c1.8-3.6,3.7-7,5-10.9c1.4-4,2.7-8,3.6-12.2c0.6-2.6,1.4-5.2,1.9-7.8c0.2-1.2,0.1-2.6,0.1-3.8c-0.5-9.2-2.5-18.2-4.8-27.1
		c-0.3-1.3-0.9-2.6-1.4-3.9c-0.1-0.4-0.3-0.8-0.3-1.3c-0.1-4.2-1.8-8.1-2.7-12.1c-0.4-2.1-1-4.2-1.6-6.2c-0.5-1.5-1.5-2.9-1.8-4.4
		c-0.6-3.5-1.9-6.7-3-10c-1-2.9-1.5-5.9-2.5-8.7c-1.7-4.9-3.7-9.7-5.5-14.5c-1.1-2.8-1.7-5.6-1.4-8.7c0.2-2.6,0.1-5.2,0.6-7.7
		c1.2-5.2,3.7-9.8,8.1-13.3c1.1-0.8,2.2-1.5,3.5-1.2c1.8,0.3,2.9-0.9,4.1-1.7c1.3-0.9,2.7-1.4,4.2-1.2c2.3,0.3,3.6-1.3,4-3.2
		c0.6-3.3,1.3-6.6,1.8-9.9c1-6.5,1.7-13,2.8-19.4c0.5-3,1.7-5.8,2.5-8.7c0.2-0.7,0-1.6-0.2-2.2c-0.7-1.9-0.7-3.7,0.1-5.5
		c0.3-0.6,0.3-1.4,0.2-2c-0.3-1.5-0.8-3-1.2-4.5c-0.7-2.9-1.3-5.9-1.1-9c0.2-3,0-6.1,0.4-9.1c0.3-2.3,1.1-4.6,1.8-6.8
		c0.5-1.6,1.2-3.2,2.1-4.7c1.7-2.9,4.2-5.1,7-6.9c1.6-1,3.1-2.4,4.7-3.5c0.6-0.4,1.1-1,1.8-1.2C50,2.7,53,1.4,56,0.2
		C56.3,0.1,56.6,0,56.9,0c2.7,0,5.5-0.1,8.2,0.2c3,0.3,6,1.2,9.1,1.5c2.3,0.2,4.4,0.7,6.3,2c0.7,0.5,1.3,1.2,2.1,1.8
		c1.6,1.3,3.2,2.7,5,3.8c2.2,1.4,3.6,3.5,5.4,5.3c2.3,2.5,2.6,5.6,3.5,8.6c0.2,0.6,0.5,1.3,0.6,1.9c0.1,0.9,0.3,1.9,0.2,2.8
		c-0.2,2.3,0.1,4.6,1.2,6.6c1.3,2.4,1.1,5,0.8,7.5c-0.3,2.8-0.6,5.5,0.4,8.3c0.4,0.9,0.3,2,0.3,3.1c0.1,1.2-0.1,2.4,0.1,3.6
		c0.4,4.1-1.1,7.7-2.3,11.5c-0.7,2.1-1.2,4.2-1.8,6.3c-0.2,0.9-0.1,1.5,1,1.9c1.1,0.3,2,1.1,3,1.6c0.5,0.2,1.1,0.5,1.6,0.4
		c1.7-0.2,3.3-0.5,5.3-0.8c0-0.7,0-1.7,0-2.6c0.1-4.2,0.1-8.4,0.4-12.6c0.3-3.4,0.8-6.9,1.5-10.3c0.4-2.2,2.2-3.5,4.1-4.7
		c4.7-2.8,9.9-4.4,15.1-6c4.2-1.4,8.6-2.4,13-3.3c2.1-0.4,4.4,0,6.6-0.1c4.2-0.1,8.5-0.7,12.7-0.4c3.6,0.2,7.3,1.2,10.5,3.1
		c2,1.2,2.5,3.2,3,5.2c1.1,5,2.3,10,2.4,15.2c0.2,7.1,0.4,14.2,0.5,21.3c0,1.2-0.2,2.5-0.5,3.7c-0.6,2.8-1.2,5.6-2.1,8.3
		c-0.7,2.2-2.4,3.9-4.4,5.1c-0.8,0.5-1.6,1.1-2.4,1.6c-2.1,1.5-4.6,1.7-7,2.3c-2.3,0.6-4.5,1.6-6.7,2.3c-0.9,0.3-1.9,0.6-2.8,0.7
		c-1.4,0.1-2.1,0.5-2.2,2c-0.1,1.2,0,2.5,0,3.8c1.2,0.3,2.3,0.5,3.3,0.7c1.6,0.4,2.5,1.4,2.9,3c0.4,1.3,0.8,2.7,1.2,4
		c0.6,1.8,1.8,3,3.3,4c2.3,1.4,3.7,3.2,4.5,5.9c0.6,2.4,0.5,4.6,0.4,7c-0.2,4.1-0.3,8.3-0.5,12.4c-0.1,1.3-0.1,2.6-0.2,3.9
		c-0.2,2.6,1.5,4.2,3.1,5.7c1.5,1.4,3.1,2.9,4.6,4.3c1.3,1.2,2.8,2.3,3.7,3.8c2.3,3.7,4.7,7.4,6.3,11.3c1.3,3.1,1.3,6.7,0.9,10.1
		c-0.4,3.1-1.3,6-2.5,8.8c-0.6,1.5-1.7,2.8-2.7,4.2c-0.7,0.9-1.5,1.9-2.5,2.6c-0.8,0.6-1.8,1.2-2.7,1.2c-3.4,0.2-6.5-0.8-9.6-2
		c-2.1-0.8-4.1-1.7-6.1-2.7c-0.7-0.3-1.4-0.8-2-1.3c-3.2-3.2-6.6-6.1-9.1-9.9c-0.3-0.5-0.7-1-0.9-1.5c-1.6-3.5-4-6.5-6.6-9.4
		c-0.7-0.8-1.5-1.7-2-2.6c-0.8-1.3-2-2.1-3.3-2.8c-1.3-0.7-2.8-1.2-3.8-2.1c-1.3-1.2-2.4-2.6-3.4-4.1c-1.2-1.7-2.3-3.5-3.4-5.2
		c-0.1-0.1-0.3-0.2-0.7-0.3c0.1,1.8,0.2,3.5,0.4,5.3c0.9,5.3,0.9,10.6-0.3,15.9c-1,4.6-1.6,9.4-1.8,14.2c-0.1,4.5,0.5,8.8,1.2,13.2
		c0.2,1.2,0,2.5,0.1,3.8c0.1,3.3,0.1,6.6,0.3,9.9c0.2,2.8,0.6,5.6,0.9,8.5c0.1,0.8,0.2,1.7,0.1,2.5c-0.1,3.2,0.1,6.4,0.8,9.5
		c0.7,3.2,2.5,5.9,4.2,8.7c0.7,1.2,1.5,2.3,2.2,3.5c1.5,2.2,4.1,3.2,6.1,4.7c3.5,2.6,7.1,5.1,10.7,7.7c4.3,3.2,8.7,6.4,13,9.5
		c0.9,0.7,1.8,1.4,2.8,2c0.5,0.4,1.1,0.6,1.7,1c0.5,0.4,1,0.8,1.5,1.3C113.5,283.1,62.5,283.1,11.5,283.1z M88.8,44.6
		c0.1-0.1,0.2-0.2,0.3-0.3c0.2-0.1,0.4-0.1,0.6-0.2c2.6-2.1,5.3-2,8.4-0.7c0.6-2.4,0.6-4.8,0-7.1c-0.1-0.4-0.8-1-1.2-0.9
		c-2.1,0.2-4.1,0.7-5.8,2.1c-0.7,0.6-1.4,0.3-1.4-0.5c0-0.6,0.3-1.3,0.7-1.6c1.9-1.8,4.2-1.7,6.7-1.4c-0.2-1.2-0.7-2.3-0.6-3.4
		c0.1-3.1-1.7-5.4-2.9-8c-0.8-1.7-2.2-3.1-4-4.1c-1.9-1-3.5-2.3-5.3-3.5c-0.9-0.6-1.8-0.9-3-0.7c-1.6,0.3-3.3,0.4-4.9,0.3
		c-2.2-0.2-4.2,0.3-6.2,1.1c-1.4,0.6-2.8,1-4.1,1.7c-2.9,1.4-5.8,2.6-8.5,4.4c-1.9,1.3-3.6,3.1-5,4.9c-2.2,2.7-1.9,6.3-2.2,9.5
		c-0.2,1.9-0.4,3.8-1.3,5.5c-0.3,0.6-0.5,1.3-0.6,1.9c-0.3,2.9-0.7,5.8-0.9,8.7c-0.1,1-0.4,1.7-1.3,2.1c-0.9,0.4-1.8,0.2-2.6-0.4
		c-0.7-0.5-1.4-1-2-1.5c0.2,0.9,0.4,2,1.1,2.4c1.7,1.1,2.2,3.8,0.9,5.3c-0.2,0.2-0.5,0.3-0.7,0.3c-0.1,0-0.4-0.3-0.4-0.5
		c0.1-1.5-0.6-2.6-1.8-3.3c1-1.9,0.8-2.8-0.6-3.6c-0.4-0.2-1-0.3-1.5-0.5c-3.3-1.4-3.8,0.4-3.5,3c0.1,0.4,0.2,0.9,0.3,1.3
		c0.4,1.2,1,2.4,1.3,3.7c0.6,2.4,2.2,3.8,4.4,4.4c1.2,0.3,2.6,0.9,3.6-0.9c0.7-1.1,2.6-0.8,3.2,0.4c1.2,2.5,0.9,4.2-1.7,6.2
		c-0.6,0.5-0.8,0.9-0.6,1.6c0.3,1,0.6,2.1,0.8,3.1c0.4,2.2,1.3,4.5,1.2,6.7c-0.3,5.3-2.9,9.3-7.9,11.6c-1.1,0.5-2.2,1.2-3.4,1.8
		c1.7,2.1,3.4,4,4.8,6c2.8,3.8,5.5,7.7,8.2,11.6c1.8,2.7,3.4,5.5,5.2,8.1c1.6,2.3,3.5,4.4,4.8,6.8c2.2,4,4.1,8.1,6.2,12.1
		c0.1,0.2,0.2,0.3,0.5,0.7c3.8-7.3,7.9-14.1,10.2-22.1c-0.6,0.4-1.1,0.8-1.6,1.1c-0.5,0.3-0.9,0.7-1.4,0.8c-2.1,0.7-4-0.5-6-0.7
		c-2.1-0.2-4.1-0.5-6.2,0.4c-0.4,0.2-0.9,0.2-1.4,0.2c0.9-0.6,1.7-1.1,2.6-1.3c2.7-0.7,5.4,0,8,0.6c2.5,0.5,4.1,0.2,5.6-1.8
		c0.4-0.6,1-1.1,1.2-1.8c0.6-2.3,1.3-4.7,1.7-7.1c0.6-3.8,1.4-7.5,3.1-11c0.5-1.1,0.9-2.3,1.3-3.5c-2.4-0.4-4.6-0.7-6.8-1.1
		c-1.1-0.2-2.2-0.6-3.3-1.1c-3-1.4-5.9-3-8.9-4.5c-4-1.9-7.4-4.5-10.2-7.9c-1-1.2-2-2.4-3-3.6c0.8-0.2,1.4,0.4,1.8,1.1
		c1.6,2.3,3.5,4.2,5.7,5.9c1.1,0.9,2.3,1.8,3.5,2.4c2.7,1.4,5.6,2.5,8.2,4.1c3.8,2.2,7.8,3.4,12.1,3.8c1.6,0.1,1.6,0,2.1-1.4
		c0.3-0.8,0.8-1.6,1.3-2.3c0.8-1,1.6-1.9,2.5-2.9c1-1.1,1.8-2.4,2.9-3.3c0.8-0.7,0.7-1.2,0.5-1.7c-1.3,0.5-2.6,1.2-3.9,1.5
		c-2.5,0.5-5,0.5-6.9-1.8c-1.7-2-3.4-4.1-5.1-6.2c0.5-0.6,0.8-1,1.2-1.3c2.2-1.8,4.3-3.6,6.5-5.4c1.2-1,2.6-1.5,4.2-1.5
		c0.6,0,1.2-0.2,1.8-0.5c1.9-1.1,4.7,0.3,4.8,2.5c0.1,1.3,0,2.5,0,3.8c0,1-0.1,2-0.2,3.1c0.1,0,0.2,0,0.4,0c0.1-0.5,0.3-0.9,0.4-1.4
		c0.5-2,0.7-4,1.4-5.9c1.6-4.2,2.9-8.3,2.5-12.9c-0.2-2.6,0.1-5.3-0.9-7.8c-0.3-0.6-0.1-1.4-0.1-2.1c0-0.4-0.1-0.7-0.1-1.1
		c-0.6,0.6-0.9,1.2-1.3,1.8c-1.2,1.9-4,2.3-5.6,0.8c-0.6-0.5-1.1-1.2-1.8-1.5C88,45.7,88.2,45.2,88.8,44.6z M118,131.1
		c0.1,0.1,0.2,0.3,0.2,0.4c0.8,4.3,1.7,8.6,1.3,13c0,0.5,0,1,0,1.4c0.5,5.9,1.1,11.8,4.5,16.9c2.3,3.5,4.8,6.7,9,8.3
		c2.2,0.9,4.1,2.4,5.4,4.4c2.1,3.3,4,6.8,6.2,10.1c1.8,2.8,3.8,5.4,5.7,8.1c0,0.1,0.1,0.1,0.2,0.2c2.9,3,6.2,5.3,9.9,7.1
		c1.6,0.8,3.3,1.2,4.8,2.1c2.3,1.4,4.6,1.1,7,0.8c0.5-0.1,0.9-0.5,1.3-0.8c0.6-0.5,1.1-1.1,1.6-1.7c0.6-0.7,1.4-1.3,1.9-2.1
		c3.6-6,3.7-12.5,2-19.1c-0.2-0.8-0.6-1.5-0.8-2.2c-0.1,0-0.2,0-0.4,0c-0.1,0.4-0.3,0.8-0.4,1.2c-0.1,0.4,0,0.8-0.1,1.2
		c-1,3.1-2.6,5.9-5,8.2c-1,1-1.8,2-3.5,2.3c-2,0.3-3.9,0.6-6,0.5c-4.6-0.4-7.6-2.9-9.8-6.7c-0.1-0.3-0.3-0.5-0.6-1.1
		c-0.1,0.7-0.1,1.1-0.1,1.5c0,1.4,0.1,2.8,0,4.2c0,0.4-0.4,0.8-0.6,1.2c-0.3-0.4-0.7-0.7-0.8-1.1c-0.2-0.5-0.1-1.1-0.1-1.7
		c-0.3-3.7,1.4-7.4,0.5-11.2c-0.4-1.9-0.2-4-0.9-5.7c-1.5-3.8-3.6-7.3-6.1-10.5c-0.6-0.8-1.2-1.3-2.2-1.3c-1,0-1.7-0.4-2.3-1.3
		c-0.4-0.6-0.9-1-1.3-1.6c-1-1.3-2-2.3-3.8-2.5c-1.4-0.1-2.1-1.2-2-2.7c0.1-1.1,0.5-2.2,0.8-3.3c0.1-0.4,0.3-0.9,0.2-1.4
		c-0.1-1.1-0.3-2.1-0.3-3.2c-0.2-2.2,0.4-4.5-0.6-6.6c-1.1-2.2-0.9-2.9,0.8-4.7c0.2-0.3,0.5-0.5,0.8-0.8c0.8-0.7,1-1.6,0.9-2.7
		c-0.3-2-0.6-4-0.6-6.1c0-1.9-0.1-3.4-1.5-5c-2.1-2.4-3.8-5.2-5.7-7.8c-0.2-0.3-0.6-0.5-1-0.6c-1.1-0.3-2.2-0.4-3.3-0.6
		c-2.6-0.5-5.2-1-7.9-1.4c-1-0.2-2.1-0.6-2.6,0.9c-0.1,0.2-0.3,0.3-0.4,0.4c-2.3,1.8-3.9,4.3-6.4,6c-1.6,1.1-2.8,2.8-4.1,4.2
		c-1,1.1-2,2.1-1.3,4.1c1.4,4,2.4,8.1,3.5,12.2c0.6,2.1,1.2,4.2,1.4,6.3c0.2,2.3,0,4.7-0.3,7c-0.9,5.4-3.4,10.3-5.8,15.1
		c-0.1,0.1-0.2,0.2-0.3,0.4c-1.7,2.6-3.4,5.2-5.1,7.8c-0.1,0.2-0.1,0.6-0.2,0.8c-1.3,2.6-2.6,5.1-3.9,7.6c-0.5,0.9-1.5,0.7-1.9-0.3
		c-0.4-0.9-0.6-1.8-1.1-2.6c-1.8-2.9-3.8-5.8-5.7-8.7c-0.2-0.3-0.3-0.7-0.4-1c-0.8,0.9-1.2,1.3-1.3,1.8c-0.1,0.4-0.2,1.2,0,1.4
		c1.2,0.9,0.7,1.8,0.2,2.8c-1.6,3.4-3.4,6.7-4.7,10.2c-2.2,5.9-4.9,11.5-8.2,16.9c-0.7,1.2-1.3,2.4-2.1,3.5
		c-1.6,2.5-3.5,4.7-6.2,6.2c-0.9,0.5-1.7,1.1-2.4,1.7c-3.1,2.6-6.9,3.2-10.2,1.2c-2.5-1.5-5-3.2-6.9-5.5c-2.3-2.7-4.8-5.2-7.1-7.8
		c-1.6-1.8-3.1-3.6-4.6-5.5c-0.5-0.6-0.9-1.2-1.4-1.8c-1.1-1.5-2.3-3-3.2-4.7c-1.2-2.2-2.1-4.5-3.1-6.7c-0.1-0.2-0.4-0.3-0.6-0.5
		c-0.2,0.5-0.2,0.8-0.1,1.1c0.4,1.1,0.9,2.1,1.1,3.1c0.5,2.2,1,4.3,1.4,6.5c1.2,5.9,2.3,11.9,3.6,17.7c1.2,5.3,1.6,10.7,1.8,16.2
		c0,0.9,0,1.8-0.2,2.6c-1.7,6.2-3.3,12.4-5.2,18.6c-1.3,4.1-3.1,8.1-5.2,11.9c-1.6,2.7-2.4,5.9-3.5,8.9c-0.3,0.9-0.3,1.9-0.4,3.4
		c1.3-0.4,2.3-0.6,3.1-1.1c1.6-0.9,3-2.2,5-2.5c1.1-0.2,2.2-0.6,3.2-1c3.6-1.3,7.2-2.7,10.2-5.2c0.3-0.3,0.8-0.4,1.2-0.5
		c3.1-1,6.4-0.9,9.6-1c3.3-0.1,6.5-0.4,9.8-0.6c1-0.1,2.1-0.2,3.1-0.2c1.7,0,3.4,0.1,5,0.2c1.8,0.1,3.7,0.2,5.5,0.3
		c2.1,0.2,4.1,0.6,6.2,0.8c2,0.1,4,0.1,5.9-0.2c1.6-0.3,3.1-1.3,4.6-1.9c3.5-1.5,7.2-2.5,11-3.1c3.8-0.5,7.3-1.6,10.6-3.6
		c3.4-2.1,7-3,11-2.7c1.4,0.1,2.8,0,4.3,0c0-0.4,0-0.6-0.1-0.9c-0.6-3.7-1.4-7.5-1.7-11.2c-0.6-7.4-1-14.9-1.4-22.3
		c0-0.3-0.1-0.6-0.1-0.9c-0.3-2.9-0.6-5.9-0.7-8.8c-0.1-3.2,0.2-6.4,0.1-9.6c-0.1-3.5,0.5-6.8,0.9-10.2c0.3-2,0.7-4,0.6-6
		c-0.1-7.2,0.2-14.5-0.7-21.7c-0.6-5.1-0.7-10.3-1.1-15.4c-0.1-1.6-0.5-3.2-0.6-4.8c-0.1-0.7,0.2-1.5,0.2-2.3c0-0.3,0.1-0.7,0.1-1
		C116.4,131.5,116.8,131,118,131.1z M140.2,116c2.3-0.9,4.4-1.6,6.4-2.4c0.2-0.1,0.4-0.5,0.4-0.7c0.1-1.4,0.2-2.9,0.3-4.3
		c0.1-2,1.3-3,3.3-2.8c0.6,0.1,1.3,0,1.8-0.2c2.3-1.3,4.7-2.4,7.3-2.9c2.3-0.4,4.6-0.5,6.6-1.9c0.7-0.6,1.4-1.2,2.2-1.6
		c2.8-1.3,4-3.8,4.8-6.5c0.7-2.3,1.1-4.7,1.6-7.1c0.1-0.6,0.2-1.3,0.2-1.9c-0.1-5.5-0.3-11-0.2-16.5c0.1-6.9-1-13.7-2.5-20.4
		c-0.3-1.4-1-3-2.1-4c-1.3-1.3-3-2.1-5-2.4c-2-0.3-3.9-1.1-5.9-1.2c-2.5-0.1-5.1,0.4-7.6,0.5c-3.4,0.1-6.9,0.1-10.3,0.1
		c-0.4,0-0.7,0.1-1.1,0.1c-3.4,0.9-6.9,1.7-10.3,2.7c-2.3,0.7-4.5,1.5-6.8,2.3c-1.2,0.4-2.3,0.8-3.5,1.3c-1.8,0.7-3.6,1.3-5.2,2.3
		c-1.1,0.7-2,1.8-2.6,3c-0.8,1.6-1.2,3.4-1.1,5.3c0.1,1.2-0.1,2.4-0.1,3.6c-0.2,5-0.6,10-0.5,14.9c0.1,3.7,0.7,7.3,1.1,11
		c0.1,0.8,0.1,1.6,0.2,2.4c0.3,2.8,0.7,5.7,1,8.5c0.1,0.9,0.1,1.8,0.2,2.7c0.6,3.6,2.5,5.8,5.4,6.2c4.8,0.6,9.7,1.2,14.5,1.8
		c2.1,0.2,4.3,0.3,6.4,0.3c1.2,0,1.3,0.6,1.3,1.6C140.4,111.7,140.3,113.7,140.2,116z M31,128.8c0.1-0.1,0.2-0.1,0.2-0.2
		c-1.2-1.9-2.6-3.8-3.7-5.8c-1.5-2.7-3.1-5.2-5.4-7.3c-0.8-0.7-1.2-1.7-2.1-2.3c-2.7-1.7-4.4-4.7-7.5-5.8c-0.1,0-0.1-0.1-0.1-0.2
		c-1-1.1-3-1.5-4.1,0c-0.2,0.3-0.5,0.6-0.7,0.9c-2.4,3.2-4.4,6.7-5.2,10.7c-0.5,2.6-0.9,5.3-0.8,8c0,2.8,0.9,5.4,2.2,8
		c1.5,3,2.6,6.3,3.7,9.5c1.7,5.1,3.2,10.3,4.9,15.4c1.3,3.8,2.6,7.6,4.2,11.3c2,4.5,4.2,9,6.5,13.4c2,3.9,4.7,7.4,7.7,10.6
		c2.5,2.8,5,5.6,7.6,8.4c1.9,2.1,3.9,4.2,6,6.1c2.9,2.6,6.5,2.6,9.5,0c1.5-1.2,3-2.4,4.4-3.6c1.3-1.1,2.7-2.2,3.9-3.5
		c2.1-2.2,3.6-4.8,5-7.4c0.5-0.9,1.4-1.7,1.9-2.6c1.2-2.3,2.3-4.5,3.3-6.9c1.4-3.1,2.7-6.3,4-9.5c0.5-1.2,0.4-2.2-0.4-3.3
		c-1.6-2.2-3.2-4.4-4.7-6.6c-0.9-1.3-1.8-2.7-3.5-3c-0.3-0.1-0.5-0.3-0.8-0.6c-1.7-1.5-3.2-3.2-5-4.6c-1-0.8-2.4-1.3-3.8-1.5
		c-0.6-0.1-1.4,0.6-2.1,1.1c-2.6,1.8-5.3,3.6-7.4,6.1c-1.4,1.6-3,3.1-4.2,4.8c-1,1.5-2.1,3.1-2.4,4.8c-0.5,2.5-0.3,5.2,0.6,7.6
		c0.5,1.3,1.1,2.6,1.6,4c0.6,1.5,1.1,3.1,1.5,4.7c0.1,0.4-0.1,0.8-0.2,1.3c-0.4-0.1-0.9-0.2-1.1-0.5c-2.9-4-5.1-8.3-4.8-13.5
		c0.1-1.2,0.2-2.4,0.2-3.6c0.1-1.5-0.2-1.7-1.6-1.2c-0.9,0.3-1.6,0.8-2.5,1.1c-0.8,0.3-1.4,0-1.6-1c0.7-0.2,1.4-0.2,2-0.5
		c3.5-1.8,6.6-4,9.1-7c0.7-0.8,1.5-1.9,1.5-3c0.2-2.7-0.2-5.3-1.4-7.8c-1.4-2.8-2.7-5.7-3.8-8.6c-1.5-3.8-4-6.9-6.6-9.9
		c-2.2-2.4-4.8-4.5-7.3-6.7c-1-0.9-2-1.9-2.9-2.9c-0.2-0.3-0.3-1-0.2-1.3c0.2-0.3,0.9-0.6,1.2-0.5c0.6,0.2,1.2,0.7,1.7,1.2
		C28.6,126.4,29.8,127.6,31,128.8z M91.5,103.4c-0.1,0-0.2-0.1-0.3-0.1c0.1-0.8,0.3-1.6,0.4-2.5c0.3-2.5,0.9-4.9,2.6-7
		c1.6-2,3-4.2,4.5-6.3c0.9-1.3,0.6-2.7,0.8-4.3c-2.7,1.5-3.9,1.9-5.5,1.2c-1.4-0.7-2.5,0-3.2,0.8c-1.9,2.4-3.8,4.9-5.3,7.5
		c-1.3,2.2-2.2,4.6-3.1,6.9c-0.8,2-1.5,3.9-1.9,6c-1.1,5.6-2,11.2-4.3,16.4c-0.9,2-1.2,4.2-2.2,6.2c-3.2,6.3-6.5,12.5-9.8,18.7
		c-1.3,2.4-3,4.7-4.5,7c6.6,4,12,9.4,17.7,15.1c0.6-1.7,1.2-3.1,1.7-4.5c2.1-6.4,4-12.8,6.2-19.2c1.3-4,2.9-7.8,4.4-11.7
		c1.4-3.7,3-7.3,5.6-10.4c0.8-0.9,1.5-1.8,2.4-2.7c0.8-0.8,1.7-1.4,2.5-2.2c1.5-1.7,2.9-3.5,4.5-5.1c2.2-2.3,4.6-4.5,6.8-6.7
		c0.9-0.9,0.9-1.5,0-2.5c-0.4-0.5-0.8-1.1-1.2-1.6c-1.3-2.4-1.9-5.1-2.2-7.8c-0.1-1.5-0.2-3-0.2-4.6c-0.1,0-0.2-0.1-0.3-0.1
		c-0.5,0.8-1,1.6-1.6,2.3c-0.6,0.8-1.1,1.7-1.9,2.2c-2.1,1.4-4.3,2.6-6.5,3.9c-1.1,0.6-2,1.4-3.1,2c-1.1,0.6-2,1.2-2.4,2.3
		C92,102.9,91.7,103.2,91.5,103.4z M155.2,139c0.1,0.3,0.6,0.8,0.5,1.2c-0.1,0.4-0.8,0.6-1.3,0.9c-0.1,0.1-0.3,0-0.5,0.1
		c-3.9,0.8-7.8,1.8-11.7,2.5c-2.1,0.4-3.7,1.7-5.4,2.8c-0.1,0.1-0.2,0.3-0.3,0.4c1.8,1.1,1.6,3,1.6,4.8c1.3-0.7,2.4-1.3,3.6-1.8
		c2.1-0.8,3.9-2.4,6.3-2.3c2.1,0.1,4.2,0,6.3,0c0.1,0.1,0.1,0.2,0.2,0.3c-0.3,0.3-0.6,0.7-1,0.9c-0.5,0.2-1.2,0.1-1.8,0.3
		c-0.3,0.1-0.7,0.4-0.7,0.6c-0.2,0.7-0.2,1.4-0.3,2.1c-0.3,2.9-1.7,5.2-4.6,6.2c-0.4,0.2-0.8,0.4-1.2,0.6c1.1,1.7,2.1,3.2,3.1,4.7
		c2.2,3.5,4.3,7.1,4.5,11.5c0.1,3.2,0.3,6.5,2.1,9.3c0.8,1.2,1.7,2.6,2.8,3.3c4.3,2.5,8.7,2.4,13.2,0.5c0.6-0.2,1.1-0.8,1.5-1.4
		c1-1.6,2-3.2,2.9-4.9c1.3-2.3,1.6-4.9,1-7.4c-0.8-2.9-1.9-5.7-4.3-7.8c-1.6-1.4-2.9-3.3-4.5-4.7c-1.6-1.4-3.5-2.6-4.4-4.6
		c-0.1-0.1-0.2-0.2-0.5-0.4c-0.8,1-1.5,2.1-2.4,3c-0.3,0.3-0.8,0.5-1.2,0.7c-0.1,0-0.4-0.3-0.4-0.3c0.2-0.4,0.4-0.8,0.7-1.1
		c1.4-1.4,2.9-2.9,3-5c0.2-3.9,0.2-7.9,0.3-11.9c0-1.1,0.1-2.2,0.2-3.3c0.4-3,0.8-5.9-0.3-8.8c-0.7-1.8-1.6-3.2-3.2-4.2
		c-0.6-0.4-1.1-0.8-1.6-1.2c-2.4-1.9-3.3-4.6-3.9-7.5c-0.3-1.5-0.9-2.1-2.4-2.4c-3.8-0.9-7.1,0.5-10.4,2.3c-1,0.5-1.7,1.4-2.7,2.3
		c3.2,1.2,2.8,3.3,1.8,5.7c1.1-0.7,1.8-1.5,2.7-1.8c2.5-0.9,5.3-0.9,7.6-2.6c0.1-0.1,0.4,0,0.6,0c0.1,0,0.1,0.4,0,0.5
		c-0.5,0.7-1.4,1.3-1.4,1.9c0,0.7,0.8,1.4,1.3,2.3c-0.7,0.1-1.2,0.2-1.7,0.3c-1.3,0.2-2.8,0-4,0.5c-2.4,1-4.8,2.3-7.1,3.6
		c-1,0.6-1.8,1.6-2.8,2.3c-2.1,1.5-2.2,1.6-1.1,3.8c0.7,1.4,1.8,1.7,3.2,1.1c1.3-0.6,2.6-1.1,3.8-1.7c4.5-2.3,9.5-2,14.2-2.8
		c0.3,0,0.6,0.2,0.9,0.4c-0.2,0.3-0.4,0.7-0.6,0.7c-0.9,0.2-1.9,0.5-2.8,0.5c-4.6,0.3-9,1-13.2,3.1c-0.8,0.4-1.4,1.1-2.2,1.6
		c-0.3,0.2-0.7,0.6-1.1,0.6c-1,0-1.3,0.6-1.4,1.3c-0.1,1.4,0,2.8,0,4.5c1.2-0.4,2.1-0.6,3.1-1c0.7-0.3,1.2-0.8,1.9-1
		c2.3-0.8,4.7-1.6,7.1-2.2c2.2-0.5,4.6-0.7,6.8-1.2C154.2,139.8,154.6,139.4,155.2,139z M49.2,159.7c0.5-0.2,0.8-0.3,1.1-0.5
		c1.6-1.1,3.3-2.1,4.7-3.4c2-1.9,4-3.8,5.6-6c1.1-1.4,1.5-3.2,2.3-4.8c0.8-1.6,1.6-3.1,0.5-5c-1.2-2-1.9-4.3-3.1-6.3
		c-1.3-2.2-3-4.2-4.3-6.3c-2.6-4.1-5.1-8.4-7.7-12.5c-3.7-5.7-7.3-11.4-11.7-16.5c-1.4-1.7-2.6-2-4.6-1.1c-2.7,1.2-5.4,2.4-8.1,3.5
		c-0.8,0.3-1.7,0.5-2.5,0.7c-1.8,0.6-3.8,0.5-5.1,2.3c-0.3,0.4-0.8,0.7-1.5,1.3c1.6,1.7,3.1,3.7,4.9,5.2c2.6,2.2,4.9,4.6,7,7.3
		c0.8,1.1,1.8,2.1,2.6,3.3c1.7,2.7,3.2,5.5,5,8.2c1.9,3,4,5.8,6.1,8.7c3.1,4.4,5.5,9.2,7,14.3c0.5,1.7,0.9,3.4,1.3,5.1
		C48.8,157.9,49,158.8,49.2,159.7z M124.3,255.4c-0.3-0.8-0.5-1.3-0.7-1.8c-0.7-2.1-1.9-3.7-4.2-3.9c-4.4-0.4-8.7-0.1-12.7,2.3
		c-2.2,1.3-4.6,2.5-7.1,3.1c-5.4,1.2-10.8,2.4-15.9,4.4c-3.8,1.5-7.8,2-11.9,1.5c-1.9-0.2-3.7-1-5.9-0.6c-3.3,0.6-6.7,0.2-10,0.3
		c-4.6,0.2-9.3-0.2-13.9,0.3c-0.2,0-0.4,0-0.6,0c-2.6-0.8-5.1-0.3-7.3,1.1c-3.1,1.9-6.3,3.5-9.8,4.7c-3.1,1.1-6.4,1.9-9.1,4.1
		c-0.4,0.3-1,0.4-1.6,0.4c-2.2,0.1-2.2,0.1-2.3,2.3c0,0.4-0.1,0.8,0,1.2c0.1,0.3,0.4,0.7,0.7,0.8c2.7,0.3,5.3,0.1,7.9-0.6
		c1.9-0.5,3.5-1.4,5-2.5c1.4-0.9,2.9-1.8,4.4-2.6c0.9-0.5,2-0.5,2.7-1.1c3.2-2.7,7-1.9,10.7-2.1c0.3,0,0.5,0.2,0.8,0.3
		c1,0.5,2,0.5,3-0.1c0.3-0.2,0.6-0.4,1-0.5c3.2-0.6,6.4-1.3,9.6-1.9c0.2,0,0.5-0.1,0.7,0c3.4,0.9,6.8,0.7,10.2,0.5
		c0.9,0,1.8-0.3,2.6-0.1c2.6,0.7,5.1,0.4,7.6-0.2c2.7-0.6,5.2-1.7,8-1.7c0.2,0,0.4-0.1,0.6-0.1c3.7-1,7.4-2.1,11.1-3
		c5.1-1.3,9.9-3.2,14.7-5.4c0.6-0.3,1.2-0.8,1.8-0.9c2.7-0.2,5.4-0.2,7.9,1.2C122.9,255.2,123.5,255.2,124.3,255.4z M88.7,176.1
		c0.6-0.8,1-1.3,1.3-1.9c0.9-1.9,1.6-4,2.8-5.7c3.6-5.2,6.8-10.7,9.1-16.7c0.6-1.6,0.7-3.5,1-5.4c-2.8,0.9-5.1,1.7-7.5,2.5
		c-3.2,1-6.3,1.9-9.7,1.4c-0.3,0-0.9,0.3-0.9,0.6c-1.4,4.5-2.8,9-4.1,13.5c-0.1,0.3,0.1,0.7,0.2,0.9c1.6,2.2,3.3,4.3,4.8,6.4
		C86.6,173,87.5,174.4,88.7,176.1z M86.7,144.9c0.6,0,1.1,0.1,1.5,0c1.4-0.2,2.9-0.3,4.2-0.7c3.1-1,6.2-2.1,9.2-3.2
		c0.8-0.3,1.1-0.9,1.1-1.8c-0.1-3.4-0.9-6.7-2-9.9c-0.4-1.1-0.5-2.3-0.9-3.5c-0.4-1.3-1-2.6-1.4-4c-0.2,0-0.3,0-0.5-0.1
		c-1.5,2.1-3.3,4-4.5,6.3c-1.7,3.4-2.9,7.1-4.3,10.7C88.2,140.7,87.5,142.7,86.7,144.9z M79.9,72.9c0,0.1,0.1,0.1,0.1,0.2
		c0.1,0,0.2,0,0.3-0.1c1.9-1.9,4.5-2.2,6.9-2.8c2.1-0.6,3.7,0,4.2,1.9c0.2,0.9-0.1,2-0.4,2.9c-0.2,0.6-0.5,1.2-1,1.6
		c-2.7,2.1-5.8,3-9.1,1.7c-1.2-0.5-2.2-1.2-3.4-1.9c1.2,2.5,3.2,4,5,5.8c0.1,0.1,0.3,0.2,0.5,0.3c2.3,0.6,4.4,0.5,6.6-0.6
		c1.6-0.9,2.2-2.3,2.7-3.9c0.9-2.8,1.1-5.6,0.6-8.5c-0.3-1.9-1.9-2.4-3.4-1.3c-0.3,0.2-0.8,0.2-1.2,0.3c-1.1,0.2-2.4,0-3.2,0.5
		C83.3,70,81.7,71.5,79.9,72.9z M149.5,151.2c0-1.9-0.2-2.3-1.8-2.4c-0.5,0-1,0.2-1.5,0.3c-1.6,0.6-3.2,1.3-4.7,2
		c-0.9,0.4-1.8,0.9-2.6,1.4c-0.3,0.2-0.7,0.8-0.6,1.1c0.2,1.3,2.8,3.6,4.1,3.7C145.4,157.6,149.9,155.8,149.5,151.2z M40.7,52.1
		c0-0.1,0.1-0.2,0.1-0.3c-0.6-0.7-1.1-1.5-1.7-2.1c-1.4-1.5-5.1-0.6-5.8,1.3c-0.2,0.4-0.3,0.9-0.6,1.3c-0.6,0.9-0.7,1.8-0.3,2.7
		c1.1,2.5,2.1,5.1,3.4,7.5c0.9,1.7,2.4,3.2,3.5,4.8c1,1.4,2.4,2,4,2.3c2.4,0.5,4.3-1.5,3.7-3.8c-0.1-0.4-0.5-1.1-0.8-1.1
		c-0.4-0.1-1,0.3-1.4,0.6c-0.4,0.2-0.8,0.6-1.2,0.7c-3.1,0.1-6.1-0.9-7.5-4.4c-0.7-1.7-1.5-3.3-2-5.1c-0.3-1.1-0.4-2.3-0.2-3.4
		c0.1-1.1,0.9-1.8,2.1-1.6c0.9,0.1,1.7,0.3,2.6,0.4C39.3,51.8,40,52,40.7,52.1z M111.5,101.7c0.1,0,0.3-0.1,0.4-0.1
		c-2.9-16.7-3.6-33.4-1.4-50.2c-0.3,0.5-0.6,0.9-0.7,1.4c-0.5,3-1.2,6-1.4,9.1c-0.3,4.3-0.3,8.7-0.3,13.1c0,3.9-0.3,7.9,0.5,11.8
		c0.7,3.7,0.9,7.4,1.5,11.1C110.4,99.2,111.1,100.4,111.5,101.7z M128.8,108.8c2.1,3.1,4.1,5.9,6.1,8.8c0.5-0.6,0.9-1.3,1.4-1.8
		c0.4-0.4,1-0.9,1.5-0.9c1.3,0.1,1.5-0.6,1.4-1.6c0-0.4,0-0.9,0-1.3c0-2.4,0-2.4-2.3-2.5c-0.2,0-0.5,0-0.7-0.1
		C133.8,109.2,131.5,109,128.8,108.8z M105,91.7c0.5-0.6,1-1.2,1.5-1.8c1.5-1.7,1-3-0.4-4.3c-1.9-1.9-3.7-4-5.7-5.8
		c-1.5-1.3-3.2-2.5-5.3-2.5c-0.5,0-1.2,0.6-1.4,1.1c-0.2,0.4,0.2,1.3,0.5,1.5c0.4,0.2,1.2,0.2,1.7-0.1c1.4-0.8,2.2-0.7,3.4,0.5
		c1.4,1.4,1.5,3.1,1.4,4.8c0,0.8,0.2,1.3,0.7,1.7C103.2,87.8,104.1,89.7,105,91.7z M79.2,75.6c0.7,1.8,3.9,2.9,6.7,2.3
		c2.3-0.5,4.6-3,4.5-4.8C86.4,72.5,83,75,79.2,75.6z M103,142.7c-0.1-0.1-0.2-0.1-0.3-0.2c-1.5,0.5-2.9,1-4.4,1.4
		c-3.6,0.9-7.3,1.6-10.9,2.4c-1,0.2-1.6,0.9-1.8,2c0.9,0,1.7,0.1,2.5,0c2.6-0.5,5.2-1,7.8-1.7c2.2-0.6,4.6-1.2,6.3-2.9
		C102.6,143.5,102.8,143.1,103,142.7z M98.8,90.8c-1.4,1.2-2.7,2.3-3.9,3.4c1.6,1.7,4.9,1.9,6.4,0.4C100.5,93.4,99.6,92,98.8,90.8z
		 M136.9,129.2c3.4-2.3,6.8-4,10.8-4.9c-0.4-0.4-0.7-0.6-1-0.6c-2.1,0-4.1,0.4-5.7,1.8c-0.8,0.7-1.9,0.8-2.9,0.6
		c-0.5-0.1-1-0.4-1.5-0.7c-0.1,0.3-0.1,0.4-0.1,0.6C136.4,127,136.6,128,136.9,129.2z M102.1,94.1c1.4-1.5,1.7-2.9,0.9-4
		c-0.4-0.6-0.8-1.1-1.3-1.5c-0.4-0.3-0.9-0.4-1.4-0.6c-0.2,0.7-0.8,1.5-0.6,2C100.3,91.3,101.2,92.6,102.1,94.1z M93.6,83
		c1.5,1,3.1,0.9,4.4-0.1c1.1-0.9,1.2-1.3,0.6-2.2c-0.6-0.8-1.6-0.9-2.5-0.1C95.3,81.3,94.5,82.2,93.6,83z M139.8,122.5
		c-0.2-0.6-0.3-1.1-0.5-1.4c-0.4-0.8-1.6-1-2-0.3c-0.4,0.9-0.7,1.9-0.8,2.9c-0.1,0.9,1.5,1.8,1.9,1.2
		C139,124.2,139.4,123.3,139.8,122.5z M94.1,95.5c-0.5,1.5-0.9,2.9-1.3,4.3c0.1,0.1,0.3,0.2,0.4,0.2c1.4-0.8,3.2-1.1,4-3.1
		C96.3,96.5,95.4,96.1,94.1,95.5z M135.7,147.4c-0.5,0.9-1.1,1.8-1.4,2.7c-0.1,0.4,0.5,1.4,0.7,1.4c0.7,0,1.8-0.2,2.1-0.7
		C137.8,149.8,137.1,148.2,135.7,147.4z M135.7,121.5c1.1-1.5,1.9-2.7,2.9-4c0.4-0.5,0.9-1,0.3-1.5c-0.6-0.6-1.2-0.3-1.8,0.3
		C135.6,117.7,135.6,119.5,135.7,121.5z M79.9,74.1c0.1,0.1,0.1,0.2,0.2,0.4c3.3-1,6.4-2.8,10.1-2.5c-0.5-1.2-0.8-1.4-1.8-1.1
		c-1.4,0.4-2.8,0.9-4.1,1.5C82.8,72.8,81.4,73.5,79.9,74.1z M106.9,79c-1.7,0.1-3.1,0.3-4.5,0.4c0,0.1,0,0.3,0,0.4
		c1.2,0.6,2.6,0.9,3.9,0.4C106.6,80,106.7,79.5,106.9,79z M103.7,81.3c1.1,0.9,2,1.7,2.9,2.4C107.1,81.6,106.5,81.1,103.7,81.3z
		 M94,47c1.5-0.6,1.9-1.6,1.1-3C94.7,45,94.4,46,94,47z M89.4,45.4c0.7,0.5,1.2,0.8,1.9,1.3c-0.1-0.9-0.3-1.5-0.4-2.3
		C90.3,44.7,89.9,45,89.4,45.4z"/>
	<path class="st0" d="M88.8,44.6c-0.6,0-0.7-0.2-0.6-0.8c0.4-1.2,3-3.4,4.3-3.5c1.1-0.1,2.2-0.3,3.3-0.2c0.6,0.1,1.1,0.6,1.6,1.2
		c-1.8-1.1-3.8-0.7-5.4-0.1c-1.2,0.4-2,2-3,3.1C88.9,44.4,88.8,44.5,88.8,44.6z"/>
	<path class="st0" d="M70.3,50.8c-1.8,0.2-3.3-0.6-4.8-1.5c-0.4-0.3-1-0.2-1.4-0.4c-0.3-0.1-0.6-0.2-0.8-0.3
		c0.1-0.3,0.2-0.7,0.4-0.8c2.4-1,4.7-2.1,7.1-3c2.2-0.8,3.8,0,4.9,2.1c0.9,1.6,0.9,1.6-0.9,2.3c-0.6,0.2-1.1,0.6-1.7,0.9
		c-0.9,0.4-1.8,0.7-2.7,1C70.3,51,70.3,50.9,70.3,50.8z M69.8,46.7c-1.2,0.5-2.5,1-4.2,1.6c1.8,1.2,3.4,1.5,5.1,1.3
		C70.5,48.7,70.2,47.8,69.8,46.7z M71.8,46.5c0.6,0.4,1,0.8,1.4,1.1c0.1-0.1,0.2-0.1,0.3-0.2c-0.1-0.6-0.3-1.2-0.4-1.7
		C72.7,45.9,72.3,46.1,71.8,46.5z M74,48.5c1.2-0.4,1.2-1,0-2.3C74,47.1,74,47.7,74,48.5z"/>
	<path class="st0" d="M88.5,39.2c0.1,0.5,0.2,1,0.1,1.4c-0.2,1.2-0.5,2.4-0.9,3.6c-0.7,1.8,0.3,3.2,1,4.7c1.2,2.7,2.4,5.4,3.5,8.2
		c0.2,0.6,0.2,1.3,0.1,2c-0.3,2.2-3.2,4.2-5.3,3.7c-1.1-0.3-1.9-0.1-2.8,0.5c-1.1,0.9-3.3,0.8-4.3-0.1c-1.4-1.2-1.8-2.6-0.9-4.3
		c0.3-0.6,0.4-1.7,1.7-1.7c-0.8,1.6-2.3,3-0.9,4.8c0.8,1,1.8,1.2,3,0.9c-0.4-1.1,0-1.8,1.1-2.2c1.2-0.5,2.6-0.4,3,0.4
		c0.4,0.8,1,0.7,1.5,0.7c1.4-0.1,3.3-2.5,3.2-3.8c0-0.5-0.2-0.9-0.3-1.4c-1.1-2.6-2.2-5.1-3.3-7.6c-0.5-1.2-1.5-2.3-1.2-3.8
		c0.2-0.8,0.4-1.7,0.6-2.5c0.2-1.2,0.5-2.3,0.7-3.5C88.2,39.2,88.3,39.2,88.5,39.2z"/>
	<path class="st0" d="M74.6,34.7c2.7-0.2,3.4,1,3.7,2.5c0,0.3-0.1,0.8-0.3,0.9c-0.3,0.1-0.8,0.2-1,0c-1.2-1-2.5-1.1-3.9-0.8
		c-2.6,0.4-5.2,0.9-7.7,1.4c-0.7,0.1-1.3,0.7-1.9,0.9c-0.3,0.1-0.7,0-1.1,0c0.1-0.3,0.1-0.8,0.4-1c0.4-0.4,0.9-0.8,1.5-1
		c2.8-1,5.6-1.9,8.4-2.7C73.2,34.7,73.9,34.7,74.6,34.7z"/>
	<path class="st0" d="M63.8,46.4c2.9-4,8.7-4.9,12.2-2.5C71.5,42.6,67.3,43,63.8,46.4z"/>
</g>
</svg>
