<?xml version="1.0" encoding="utf-8"?>
<!-- Generator: Adobe Illustrator 19.1.0, SVG Export Plug-In . SVG Version: 6.00 Build 0)  -->
<svg version="1.1" id="Layer_1" xmlns="http://www.w3.org/2000/svg" xmlns:xlink="http://www.w3.org/1999/xlink" x="0px" y="0px"
	 viewBox="0 0 199.8 173.1" style="enable-background:new 0 0 199.8 173.1;" xml:space="preserve">
<style type="text/css">
	.st0{fill:#03A9F4;}
</style>
<g id="dryeyes-boy">
	<path class="st0" d="M0,152.8c0.5-0.8,1.1-0.6,1.8-0.4c12,3.2,24.1,6.4,36.1,9.7c11.5,3.1,23,6.2,34.5,9.2c1.2,0.3,2.5,0,3.9-0.1
		c-0.9-2.7-1.7-5.1-2.5-7.4c-3.1-9.3-6.3-18.5-9.4-27.7c-0.2-0.5-0.6-0.9-0.8-1.3c-0.1-0.2-0.3-0.5-0.3-0.8c-0.1-0.6,0-1.3-0.2-1.8
		c-3.1-9.2-6.1-18.4-9.4-27.5c-0.9-2.6-1.6-5.2-2.6-7.8c-1-2.6-1.8-5.3-2.7-7.9c-0.9-2.6-1.8-5.3-2.7-7.9c-0.2-0.7-0.6-1-1.3-1.1
		c-7.4-1-14.7-1.9-22.1-2.9c-7-0.9-14-1.9-21-2.8c-0.4-0.1-0.8-0.3-1-0.6c-0.3-0.5,0.2-1,1-0.9c6.1,0.8,12.3,1.6,18.4,2.4
		c7.5,1,14.9,2,22.4,2.9c1.2,0.1,2.3,0,3.5,0.1c0.4,0.1,0.9,0.6,1,1c1.4,4.1,2.8,8.2,4.2,12.4c1,3.1,2.1,6.1,3.1,9.2
		c0.4,1,0.6,1.1,1.6,0.5c3.3-2.3,6.6-4.6,9.9-6.9c4-2.9,7.9-5.9,11.8-8.8c2.1-1.6,4.4-3,6.6-4.5c0.3-0.2,0.7-0.5,0.9-0.8
		c1.8-2.1,3.6-4.3,5.4-6.4c1.2-1.5,1.2-3.6,0-5.1c-1.3-1.6-2.1-3.4-2.6-5.4c-0.1-0.4-0.2-0.8-0.4-1.2c-1.9-4.3-0.8-8.2,1.5-11.9
		c1.1-1.8,2.4-3.6,3.6-5.3c1.4-2.1,3.1-3.9,5.4-5.3c-0.2-0.5-0.4-1.1-0.8-1.6c-0.9-1.3-1.2-2.7-1.2-4.3c0.1-3.5,0.1-7,0.9-10.5
		c0.6-2.5,2-4.4,3.4-6.4c2.4-3.5,5.7-6,9-8.4c1.8-1.3,3.7-2.6,5.5-3.9c1.2-0.9,2.3-2.1,3.6-3c0.6-0.4,1.5-0.7,2.3-0.7
		c1.8-0.2,3.6-0.1,5.4-0.2c2.4-0.1,4.8-0.3,7.3-0.4c3.5-0.1,6.9,0.7,9.9,2.5c1.4,0.9,3,1.6,4.4,2.5c1,0.7,2,1.7,2.7,2.7
		c2,2.9,3.8,6,5.7,8.9c0.7,1,1.5,2,2.2,3c1.7,2.5,2.3,5.3,2.9,8.1c0.4,2,0.6,4,0,6c-0.5,1.6-1,3.2-1.2,4.8c-0.2,1.4,0,2.9,0.1,4.3
		c0,0.2,0.3,0.5,0.5,0.6c1.8,1.1,2.7,2.7,3.1,4.8c0.8,4.6-0.3,8.9-2,13c-1.2,2.9-3.1,5.4-6.8,5.5c-0.9,0-1.2,0.7-0.8,1.7
		c0.8,2,1.8,3.9,3.6,5.2c0.5,0.4,1,1,1.4,1.5c1.3,1.6,2.9,2.7,4.8,3.3c4.6,1.5,9.3,2.8,13.9,4.3c1.2,0.4,2.5,1.2,3.3,2.2
		c2,2.5,3.7,5.2,5.6,7.9c0,0,0,0.1,0,0.1c1.5,2,1.8,4.5,2.1,6.8c0.1,1.1,0.6,2.2,0.5,3.2c-0.2,1.5-0.8,3-1.1,4.6
		c-0.7,3-2.2,5.8-2.3,9.1c0,1.9,0.3,3.7,1.1,5.4c1,2.4,1.7,4.9,1.5,7.5c-0.1,2.1-2,4.9-4.9,5.5c-0.8,0.2-1.1,0.5-1.2,1.4
		c-0.2,2.7-0.5,5.3-0.8,8c-0.1,0.9,0.1,1.3,1.1,1.3c5.4,0.3,10.8,0.6,16.3,0.9c0.3,0,0.5,0,0.7,0.1c0.1,0.1,0.3,0.3,0.3,0.4
		c-0.1,0.2-0.2,0.3-0.4,0.4c-0.2,0.1-0.4,0-0.6,0c-3.7-0.2-7.4-0.4-11.1-0.6c-6.8-0.4-13.6-0.8-20.4-1.2c-0.1,0-0.2,0-0.3,0
		c-1.9-0.7-3,0.4-4.1,1.9c4,1.5,8,2.9,12,4.4c0.3-0.2,0.7-0.4,1.4-0.7c0,0.9,0.1,1.6,0,2.3c-0.6,2.4-1.1,4.9-2,7.3
		c-0.6,1.8-2.1,3-3.9,3.8c-1.4,0.6-2,0.1-2-1.4c0-0.6,0.1-1.2,0.2-1.7c0.1-0.6,0.1-1.1,0.2-1.7c-1.4-0.1-1.9,0.5-2.3,1.7
		c-0.6,1.7-1.4,3.4-2.3,4.9c-0.4,0.7-1.2,1.2-1.9,1.6c-1.6,1-3.3,1.5-5.2,1.5c-2.5,0-2.7-0.8-2.6-3c0-0.8,0.2-1.5,0.3-2.3
		c0-0.5,0-1.1,0-1.4c-2-0.8-4-1.5-5.9-2.3c-1.4-0.7-2.8-0.6-4.2-0.4c-19,3.4-38.1,6.9-57.1,10.3c-4.6,0.8-9.2,1.7-13.7,2.5
		c-0.3,0.1-0.6,0-1-0.1c-23.8-6.4-47.5-12.7-71.3-19.1c-0.5-0.1-1-0.6-1.5-0.9C0,152.9,0,152.9,0,152.8z M141.8,50.5
		c0-0.3,0-0.6,0-0.9c-0.1-0.8,0.2-1.2,1.1-1.1c1.2,0,1.4,0.9,1.7,1.7c0.4,1,0.8,2,2,2.4c-0.4-2.7-1.8-4.6-4.2-5.5
		c-2.9-1-4.9-2.7-6-5.6c-0.1-0.4-0.5-0.7-0.8-1c-1-0.9-2-1.9-3.2-2.6c-1.1-0.7-2.3-1.3-3.5-1.5c-1.7-0.3-3.4-0.2-5,0.5
		c-1,0.4-2,0.7-3.1,0.9c-0.9,0.1-1.9-0.2-2.8-0.3c-1,0-2-0.1-2.9,0.1c-1.2,0.3-2.4,0.9-3.6,1.3c-3.4,1-6.1,3-8.2,5.8
		c-0.2,0.2-0.1,0.8,0,1.1c0.4,1.1,0.9,2.2,1.5,3.3c0.3,0.6,0.6,1.3,1.1,1.8c1.2,1.1,2.4,2.1,2.9,3.7c0.4,1.1,1.1,1.8,2.1,2.4
		c1.4,1,2.7,2.1,2.5,4.1c0,0.4,0.3,0.8,0.5,1.2c0.7,1.2,1.7,2.2,1.4,3.7c-0.3,1.8-0.1,3.7-0.9,5.4c-0.4,0.9-0.9,1.8-1.1,2.7
		c-0.3,1.2-0.7,2.6-0.5,3.8c0.1,0.6,1.3,1.1,2.1,1.5c0.5,0.2,1.1,0.2,1.7,0.2c0.4,0,0.8-0.2,1.1-0.3c0.8-0.1,1-0.4,0.7-1.1
		c-0.5-1.1-1-2.2-1.2-3.5c-0.3-2.2-1.1-4.4-0.9-6.7c0.1-1.1,0.3-2.2,0.2-3.2c-0.4-2.6,0.9-4.5,2.3-6.4c0.3-0.4,1-0.7,1.4-0.6
		c0.8,0.1,0.8-0.2,0.9-0.8c0.1-0.5,0.1-1.2,0.5-1.4c0.8-0.6,1.8-1.3,2.8-1.6c0.9-0.2,1.9,0,2.7,0c0.5-0.9,1.2-1.9,1.7-2.9
		c0.6-1.2,1.5-0.9,2.5-0.8c0.3,0,0.5,0.2,0.8,0.3c1.1,0.6,2.2,1.2,3,1.6c0.9-0.7,1.7-1.3,2.6-2c1.2-0.9,2.2-0.2,3.3,0.3
		C141.4,50.5,141.7,50.4,141.8,50.5c0.2,0.2,0.4,0.3,0.5,0.6c1.1,1.8,2.5,3.6,2.4,6c-0.2,3.2,0,6.3,1.3,9.3c0.2,0.5,0.2,1.1,0.2,1.7
		c0,0.3-0.3,0.5-0.4,0.8c-0.1-0.3-0.3-0.5-0.4-0.8c-0.2-0.9-0.3-1.8-0.5-2.6c-0.3-1.8-1.1-3.6-1-5.4c0.1-2.5,0.2-4.7-0.9-7
		c-0.8-1.6-2.1-2.4-3.6-2.7c-1.6-0.3-3.3,1.5-3.4,3.3c-0.1,2.2,0.2,4.4,0.9,6.5c0.1,0.3,0,0.7,0,1c-0.1,0-0.2,0-0.3,0
		c-0.2-0.2-0.5-0.5-0.6-0.7c-0.3-1.8-0.5-3.5-0.6-5.3c-0.1-2.6-2.1-4.5-4.7-4.4c-0.2,0-0.5,0.1-0.7,0.2c-1.3,1.4-2.1,2.9-1.7,4.9
		c0.4,2,0.8,4.1,1.2,6.1c0.1,0.3-0.1,0.6-0.2,1.2c-0.3-0.4-0.4-0.5-0.4-0.6c-0.1-2.4-0.8-4.7-1.6-7c-0.4-1.1-0.9-1.5-2-1.2
		c-0.7,0.2-1.3,0.5-2,0.7c-1,0.4-1.3,1.1-1.2,2.2c0.1,1.5,0.1,2.9,0.3,4.4c0.1,0.9,0.4,1.8,0.6,2.7c0.1,0,0.2,0.1,0.4,0.1
		c-0.3,0.2-0.6,0.4-1,0.7c-0.1-0.3-0.4-0.7-0.4-1c-0.2-1.4-0.3-2.9-0.5-4.3c-0.1-0.4-0.5-0.8-0.7-1.2c-0.4,0.2-0.7,0.5-1.1,0.7
		c-0.1,0.1-0.3,0.2-0.4,0.3c-0.5,0.9-1.4,1.7-1.5,2.6c-0.3,2.7-0.4,5.4-0.2,8.1c0.2,2.1,0.8,4.2,1.5,6.2c0.6,1.7,1.8,3.3,2.4,5
		c0.7,2.3,1.2,4.8,1.6,7.2c0.4,2.1,0.5,4.2,0.7,6.4c0.1,1,0,2.2,0.5,3.1c1.2,2.6,1.1,5.3,1.5,8c0.5,3.4,0.6,6.9,1.7,10.2
		c0.6,1.8,0.9,3.7,1.2,5.5c0.7,3.2,1.2,6.5,1.9,9.7c0.7,2.8,1.8,5.5,3.2,8c0.3,0.5,0.6,0.6,1.2,0.5c1.2-0.3,2.6-0.5,3.8-0.4
		c4.3,0.5,8.2,2.3,12.2,3.6c3,1,6.1,2.1,9.1,3.1c0.5,0.2,1.2,0.2,1.6-0.1c2.9-2.4,6-4.7,8.3-7.8c1.1-1.5,2.3-3,3.4-4.5
		c0.2-0.2,0.2-0.5,0.3-0.8c0.4-1,0.7-2.3,1.4-3.1c1.1-1.3,1.7-2.7,2.3-4.2c0.3-0.6,0.6-1.2,1-1.7c0.8-1.2,1.7-2.4,2.6-3.6
		c0.4-0.5,0.2-0.8-0.2-1.2c-0.8-0.5-1.7-0.9-2.4-1.5c-3.5-2.9-7.7-3.9-12-4.2c-2-0.2-4.1-0.1-6.1,0.1c-1.5,0.1-2.9,0.7-4.5,1
		c0.9,1.3,1.5,2.4,2.3,3.4c1.6,2.1,2.9,4.3,3.2,6.9c0.1,0.6-0.1,1.2-0.7,1.2c-0.3,0-0.8-0.4-0.9-0.7c-0.3-0.8-0.3-1.7-0.6-2.5
		c-1.4-4-4.1-7.1-6.9-10.1c-4.1-4.4-6.5-9.7-7.8-15.5c-0.4-1.9-0.6-3.8-1.1-5.7c-0.3-1.2-1-2.3-1.3-3.6c-0.3-1.3-0.5-2.8-0.6-4.1
		c0-1-0.4-1.4-1.3-1.3c-1.2,0.1-2.5,0.2-3.7,0.2c-2.9,0.1-5.9,0.1-8.8,0.2c-0.1,0-0.3-0.3-0.6-0.6c0.7-0.1,1.3-0.2,1.8-0.2
		c3.7-0.1,7.3-0.2,11-0.2c0.9,0,1.6-0.3,2-1.4c0.4-1.2,1.2-2.4,1.9-3.5c0.3-0.6,0.7-1.2,1.1-1.7c0.7-1,1.4-1.9,2.1-2.9
		c0.7-1,1.7-1.8,1.9-3.1c0.1-0.6,0.5-1.1,0.8-1.7c0.2-0.5,0.5-1,0.5-1.5c0.1-2.9,0.3-5.8,0.2-8.6c-0.1-1.6-1-3-2.5-3.7
		c-1.7-0.8-2.7-2-3.4-3.7c-0.2-0.4-0.3-0.8-0.6-1.1c-0.2-0.2-0.6-0.3-0.8-0.3c-0.2,0-0.3,0.4-0.5,0.6
		C142.1,50.1,142,50.3,141.8,50.5z M92.9,56.5c-1-0.4-1-1-0.8-1.6c0.4-1.2,0.9-2.3,1.3-3.5c0.5-1.6,1.4-2.8,2.7-3.9
		c1.1-0.9,2-2.1,2.8-3.2c0.5-0.7,0.3-2.1-0.3-2.5c-0.8-0.5-1.6-0.3-2.2,0.4c-0.9,1-1.8,1.9-2.6,2.9c-1.2,1.7-2.1,3.7-3.5,5.2
		c-2.1,2.3-2.6,5.1-2.7,7.9c-0.1,3.3,1.6,6.1,3.1,8.9c0.6,1.2,1.3,2.5,1.7,3.8c0.5,1.8-0.6,3.2-1.8,4.6c0.8,0.4,1.5,0.8,2.2,1
		c2.2,0.5,4.5,0.9,6.7,1.4c0.9,0.2,1.2,0.1,1.4-0.8c0.1,0.5,0.2,1,0.3,1.8c-4-0.9-7.8-0.8-11.2-2.9c-0.5,0.5-0.8,1-1.2,1.4
		c-1.5,1.6-2.9,3.5-4.6,4.9c-2.8,2.2-5.8,4.1-8.6,6.2c-3.6,2.6-7.2,5.3-10.9,7.9c-3.2,2.3-6,5.1-9.8,6.8c2.9,8.7,5.9,17.4,9,26.4
		c0.5-0.6,0.9-1,1.3-1.4c1.6-1.7,3-3.5,4.7-5c3.1-2.7,6.4-5.3,8.9-8.7c2.1-2.9,4.1-5.7,6.6-8.3c1.7-1.8,2.9-3.9,4.6-5.8
		c2.7-3,5.5-5.9,8.3-8.8c1.2-1.2,2.4-2.4,3.6-3.4c1.7-1.5,3.7-2.6,5.2-4.2c1.7-1.8,3.2-3.8,4.3-5.9c1.1-2,1.1-4.3-0.4-6.3
		c-0.4-0.5-0.9-1.2-0.9-1.8c0.1-2.1-0.2-4.3,1.6-6c2.3-2.3,1-5.3-1.7-6.7c-0.2-0.1-0.7,0-0.9,0.2c-2.2,1.6-4,3.6-5.7,5.8
		c-0.2,0.2-0.5,0.4-0.7,0.6c-0.1-0.4-0.1-0.6,0-0.8c1.3-2.2,3.1-4,5.2-5.6c0.7-0.5,0.9-1,0.7-1.9c-0.4-1.6-1.5-2.7-2.7-3.6
		c-0.8-0.6-1.5-0.6-2.3,0c-2.1,1.7-3.5,4-4.7,6.4c-0.2,0.3-0.4,0.7-0.6,1c-0.3-0.3-0.3-0.5-0.3-0.7c1.1-2.7,2.5-5.2,4.8-6.9
		c1.9-1.5,1.3-3.4,0.3-4.6c-1.3-1.5-3.2-1.5-4.7-0.2c-1.2,1-2.7,1.8-3.3,3.1C93.9,51.9,92.5,53.9,92.9,56.5z M132.7,141
		c-0.2-0.3-0.2-0.4-0.3-0.6c-1.6-2.1-2.2-4.6-2.9-7c-0.9-3-1.5-6.1-2.2-9.1c-0.3-1.5-0.5-3-0.9-4.4c-0.1-0.6,0.1-1.5-0.9-1.7
		c-0.1,0-0.2-0.4-0.2-0.7c-0.3-3.5-0.6-7.1-0.8-10.6c0-0.7-0.3-1-1-1.1c-3.3-0.3-6.5-1.1-9.2-3.1c-0.9-0.6-2-1.2-2.4-2.1
		c-1.3-2.8-2.4-5.6-3.3-8.5c-0.6-1.9-0.9-3.8-1.4-6.1c-2.4,1.9-4.7,3.6-6.9,5.5c-1.9,1.7-3.6,3.5-5.3,5.3c-1.8,1.8-3.7,3.6-5,5.9
		c-0.7,1.2-1.7,2.2-2.5,3.3c-0.6,0.8-1.3,1.6-1.8,2.4c2.2,3,3.3,6.2,4.1,9.7c0.6-0.5,1.3-0.9,1.6-1.5c0.4-1.1,0.5-2.4,0.8-3.6
		c0.3-1.2,0.6-2.5,1-3.6c0.1-0.3,0.6-0.4,0.9-0.6c0.1,0.3,0.2,0.6,0.2,0.9c0,0.2-0.1,0.4-0.1,0.6c-0.5,2.4-1.1,4.8-1.6,7.2
		c0,0.1,0.1,0.1,0-0.1c1.7,0.5,3.3,1,4.8,1.6c0.3,0.1,0.4,0.7,0.7,1c-0.4,0.1-0.8,0.3-1.1,0.2c-0.3,0-0.7-0.3-1-0.4
		c-0.7-0.2-1.4-0.5-2.1-0.7c-0.8-0.2-1.7,0.4-1.7,1c0,1.9,0,3.9,0.2,5.8c0.3,4.3,0.8,8.7,1.1,13c0.1,1.1,0.5,1.2,1.3,1.4
		c4,1,8.2,0.9,12.3,1.1c6.9,0.5,13.7,0.7,20.6,1.2C129.4,142.8,130.9,141.7,132.7,141z M65.8,135.3c0.1,0.3,0.1,0.4,0.1,0.5
		c3.1,9.2,6.2,18.4,9.3,27.6c0.3,0.8,0.7,0.7,1.3,0.6c5.6-0.9,11.2-1.8,16.8-2.7c10.1-1.6,20.3-3.3,30.4-4.9
		c2.8-0.5,5.6-0.9,8.7-1.4c-0.7-0.3-1.1-0.6-1.5-0.7c-3.5-1.3-7-2.7-10.5-3.9c-1.7-0.6-3.5-1.3-5.2-1.5c-2.5-0.3-4.5,1.4-6.6,2.5
		c-1.6,0.8-3,1.8-4.6,2.7c-0.2,0.1-0.7,0-0.8-0.1c-0.2-0.3-0.4-0.9-0.2-1.1c0.2-0.4,0.7-0.7,1.1-0.8c2.5-1.1,5-2.3,7.6-3.4
		c1.8-0.8,3.6-1.1,5.5-0.4c1.5,0.6,3.1,1,4.7,1.6c3.3,1.3,6.6,2.6,9.9,3.9c1.6,0.6,3.2,1.1,4.9,0.5c0.6-0.2,1.3-0.2,1.9-0.3
		c1.6-0.3,3.2-0.5,4.8-0.8c0-0.1,0-0.1,0-0.2C117.6,147,91.8,141.2,65.8,135.3z M184.5,120.9c0-0.2,0-0.3,0-0.4
		c-0.8-3.3,0-6.3,1-9.5c1.2-3.5,2.7-7,1.7-10.9c-0.3-1.2-0.4-2.5-0.8-3.7c-0.4-1-0.9-2.2-1.7-2.6c-4.3-2.1-8.8-1.9-13.3-0.6
		c-2.1,0.6-4,1.6-6,2.4c-0.2,0.1-0.5,0.1-1.1,0.1c0.4-0.4,0.6-0.6,0.8-0.7c5.1-2.5,10.4-4,16.3-3.2c0.9,0.4,2.1,0.8,3.3,1.2
		c0.1-0.1,0.2-0.2,0.2-0.3c-0.5-0.7-1-1.4-1.5-2.1c-0.6-0.7-1.3-1.4-1.7-2.2c-0.8-1.5-1.9-2.7-3.4-3.4c-4-1.9-8.2-3.3-12.5-4.4
		c-0.6-0.2-0.9,0-1.2,0.6c-1,1.9-1.9,3.8-3,5.7c-1.1,1.8-2.3,3.5-3.6,5.2c-1.5,2-3,3.9-5.2,5.2c-1.9,1.1-3.8,2.5-5.6,3.8
		c-0.3,0.2-0.6,0.8-0.5,1c1.2,2.4,2.4,4.9,3.9,7.2c1.2,1.8,3,3.3,4.5,5c0.2-0.1,0.6-0.3,1-0.4c3-1.1,6.1-1.3,9.3-1.1
		c2.3,0.1,4.7-0.1,6.8,0.6c2.4,0.8,4.6,2.3,6.7,3.6C180.7,118,182.5,119.5,184.5,120.9z M151.1,70.1c0.1,0,0.3,0.1,0.4,0.1
		c-0.3,1-0.4,2-0.9,2.9c-1,2-2.2,3.8-3.1,5.8c-0.8,1.8-2.1,3.2-3.4,4.6c-1,1.1-1.8,2.2-1.3,3.9c0.6,1.7,1.2,3.3,1.6,5
		c0.3,1.3,0.4,2.6,0.7,4c0.2,1,0.7,1.2,1.6,0.7c1.7-0.9,3.3-1.8,4.5-3.3c0.9-1.1,2.1-2,3-3.1c0.8-0.9,1.4-1.9,2.1-2.9
		c0.3-0.4,0.5-0.8,0.7-1.2c0.6-1.1,1.2-2.3,1.9-3.4c0.9-1.2,1.6-2.4,1.5-4c0-0.3,0-0.6-0.2-0.8c-1.1-1.1-2.2-2.3-3.4-3.2
		c-2.2-1.8-3.5-4.1-4.4-6.7c-0.4-1.1-0.7-2.2-0.3-3.4c0.4,0.1,0.8,0.3,1.1,0.4c2.3,0.2,4.1-0.8,5.6-2.6c1.4-1.7,1.9-3.6,2.3-5.6
		c0.5-2.1,0.9-4.3,1-6.4c0.1-1.8,0-3.8-1.4-5.2c-0.3-0.3-0.8-0.7-1.1-0.6c-2.7,0.7-5.3,1.6-6.1,4.7c-0.1,0.3-0.3,0.7-0.4,1
		c-0.8,1.8-0.9,4.1-3.9,4c0.4,0.6,0.7,1,0.9,1.4c0.2,0.5,0.6,1.1,0.6,1.6c0,2.4-0.1,4.9-0.2,7.3c0,0.2,0,0.6,0.1,0.7
		c0.6,0.6,0.4,1.3,0.1,1.9c-0.4,0.9-0.8,1.9-1.3,2.8c-0.6,1-1.2,2-1.8,3c-0.5,0.8-1.3,1.4-1.8,2.2c-0.8,1.1-1.4,2.3-2.1,3.4
		c-1,1.6-1.7,3.2-1.2,5.2C146.5,80.1,149.5,75.5,151.1,70.1z M76,165.5c0.5,1.6,1,3.2,1.6,4.7c0.1,0.2,0.6,0.4,0.9,0.4
		c6.9-1.2,13.9-2.5,20.8-3.7c12.3-2.2,24.7-4.4,37-6.7c2.4-0.4,4.7-0.9,7.1-1.3c-2.5-1.1-5-2-7.6-2.9c-0.3-0.1-0.6-0.1-0.9-0.1
		c-5.8,0.9-11.6,1.8-17.3,2.8c-10.2,1.6-20.4,3.3-30.6,5C83.4,164.3,79.8,164.9,76,165.5z M90.6,119.1c-0.5,0.2-0.8,0.3-1,0.5
		c-1.5,0.9-3.1,1.8-4.6,2.7c-1.3,0.7-2.7,1.4-4,2.2c-4.7,3.3-9.8,5.8-15.1,8c-0.3,0.1-0.5,0.4-0.8,0.7c0.3,0.2,0.6,0.5,0.9,0.6
		c6.7,1.5,13.4,3.1,20.1,4.6c1.8,0.4,3.6,0.8,5.6,1.2c-0.1-2.3,0-4.4-0.4-6.5c-0.8-3.9-0.9-7.8-0.8-11.8
		C90.5,120.7,90.6,120,90.6,119.1z M174.1,152.5c-1.9-0.7-3.7-1.2-5.5-1.9c-1.7-0.6-3.4-1.2-5-1.9c-1.2-0.5-2.3-0.4-3.3,0.4
		c-3.5,2.6-7.5,4-11.7,5.3c0.1,1.7,0.2,3.4,0.2,5.2c0.7,0.3,1.5,0.7,2.4,1.1c0.9,0.4,1.7,0.8,2.6,1.1c0.3,0.1,0.9-0.2,1.2-0.5
		c0.5-0.4,0.8-1.1,1.3-1.5c2.7-1.7,5.8-2.6,9-3.1c1.6-0.3,1.7-0.1,2.1,1.6c0.4,0,0.8,0,1.3-0.1C169.4,155.4,172,154.3,174.1,152.5z
		 M141.1,150.7c0.3,0.1,0.7,0.2,1,0.3c2,0.5,4,1,6.1,1.3c1,0.2,2.1,0.3,2.9-0.1c3-1.4,5.8-3,8.7-4.5c0.1,0,0.1-0.2,0.2-0.3
		c-2.4-0.8-4.8-1.6-7.1-2.4c-4.4-1.4-8.9-2.9-13.4-4.2c-1.5-0.4-3.1-0.3-4.6,0.7c1.5,1.8,2.9,3.6,4.4,5.5
		C140.1,148.1,141.3,149.1,141.1,150.7z M64.3,131.4c0.2,0.1,0.3,0.2,0.5,0.4c2.8-1.4,5.6-2.6,8.3-4.1c3.5-2,6.9-4.3,10.3-6.5
		c0.4-0.3,0.8-0.9,0.7-1.4c-0.2-1.9-0.5-3.8-0.9-5.7c-0.1-0.6-0.6-1.1-0.9-1.7c-0.5,0.4-1.1,0.8-1.5,1.3c-1.4,1.7-2.5,3.8-4.2,5.3
		c-4.2,3.6-8.2,7.3-11.9,11.3C64.5,130.5,64.4,131,64.3,131.4z M165.7,144.8c5,0.3,9.7,0.5,14.4,0.8c-0.4-1.2-0.8-2.3-1.2-3.6
		c0.5,0.1,0.8,0.2,1,0.2c0.4-2,0.7-4,1.1-6c0.1-0.8-0.2-0.9-0.9-1c-1.8-0.1-3.5-0.3-5.5-0.5C172.5,138.5,169.7,142,165.7,144.8z
		 M165.4,157.2c-0.8,0.2-1.7,0.3-2.4,0.6c-2,0.7-4,1.5-6,2.3c-0.8,0.4-1.4,0.9-1.4,2.1c0,1.9-0.2,3.7-0.4,5.6
		c-0.1,0.8,0.5,1,1.1,1.1c2.6,0.1,5-0.5,6.8-2.5c2-2.2,2.7-5.1,3.4-7.9C166.8,157.6,166.5,157.1,165.4,157.2z M183.1,122.1
		c-0.5,0.5-1.1,0.9-1.6,1.4c-0.8,0.8-2,1.3-2.5,2.5c-0.9,2-2,3.9-3,5.8c-0.6,1.3-0.5,1.8,0.9,1.9c2,0.2,4.1,0.1,6.2,0
		c2.2-0.1,2.8-2.1,3.6-3.7c0.3-0.5,0.3-1.3,0.2-1.9C186.4,125.6,185.1,123.6,183.1,122.1z M111.5,83.5c-0.2,0.1-0.3,0.1-0.5,0.2
		c0.1,1.2-0.1,2.5,0.2,3.6c0.7,2.7,1.6,5.4,2.5,8c0.1,0.3,0.2,0.6,0.5,0.9c1.8,1.7,3.5,3.4,5.3,5c1,0.8,2.3,1,3.7,0.9
		c-0.1-0.5-0.2-0.9-0.3-1.3c-0.2-1.8-0.4-3.6-0.7-5.5c-0.1-0.6-0.3-0.9-1-0.8c-1.1,0.2-2.1-0.3-2.7-1.1c-1.4-1.8-2.8-3.7-4.2-5.6
		C113.5,86.4,112.5,84.9,111.5,83.5z M121.5,86.3c-3.4,0.4-5.5-1.3-7.3-3.9c0.8,0.3,1.4,0.5,2.1,0.7c1.2,0.3,2.4,0.6,3.6,0.8
		c0.2,0,0.7-0.5,0.6-0.8c-0.1-0.7-0.4-1.3-0.7-1.9c-0.6-1.2-1.2-1.5-2.5-1.1c-0.3,0.1-0.5,0.3-0.8,0.3c-0.4,0.1-0.9,0.2-1.2,0
		c-0.8-0.3-1.4-0.8-2.2-1.1c-0.5-0.2-1.2-0.4-1.5-0.2c-0.5,0.3-0.8,1-1.2,1.5c-0.4,0.5-0.1,0.8,0.3,1.2c1.1,1,2.2,1.9,3,3.1
		c1.5,2,2.9,4.2,4.4,6.2c0.6,0.9,1.4,1.6,2.6,1.6c0.3,0,0.7-0.3,0.7-0.4C121.7,90.4,121.6,88.4,121.5,86.3z M124.1,105.1
		c0-1.3-0.5-1.7-1.6-1.8c-1.8-0.1-3.5-0.6-4.9-1.8c-1.4-1.2-2.7-2.5-3.9-3.9c-0.7-0.8-1.2-1.9-1.7-2.9c-0.3-0.7-0.4-1.4-0.6-2.2
		c-0.7-2.9-2.2-5.8-1.4-8.9c0-0.2-0.1-0.6-0.3-0.6c-0.3-0.1-0.7,0-0.9,0.2c-0.3,0.3-0.6,0.7-0.6,1.1c-0.1,1.5-0.3,3,0.1,4.4
		c0.7,2.9,1.6,5.7,2.5,8.6c0.7,2.3,2,4.3,4.4,5.2c0.2,0.1,0.4,0.2,0.7,0.4C118.3,104.5,121.2,104.7,124.1,105.1z M138.5,150.2
		c0.1-0.1,0.3-0.2,0.4-0.3c-0.6-1.2-1.2-2.3-1.8-3.4c-0.2-0.3-0.4-0.7-0.7-1c-0.6-0.6-1.1-1.4-1.8-1.5c-1.4-0.3-3.1-0.6-4.4-0.1
		c-2,0.7-3.8,2-5.8,3.1C129.3,148.1,133.9,149.2,138.5,150.2z M146.5,100.5c0.2-0.1,0.4-0.2,0.6-0.4c1.6-1.1,3.2-2.2,4.8-3.2
		c1.8-1.1,3.4-2.4,4.6-4.2c1-1.5,1.9-3.2,3.1-4.6c1.8-2.1,3-4.5,4.2-7c0.1-0.3,0.2-0.7,0-0.9c-0.2-0.2-0.7-0.4-0.9-0.3
		c-0.5,0.3-1.4,0.3-1.3,1.3c0,0.4-0.2,0.8-0.4,1.1c-1.7,2.6-3.3,5.2-5,7.9c-2.3,3.6-5.1,6.7-9.2,8.3
		C145.8,99,145.8,99.1,146.5,100.5z M127.1,143.6c0-0.1,0-0.1-0.1-0.2c-7.9-0.5-15.8-0.9-23.8-1.4c0.1,0.1,0.2,0.2,0.3,0.2
		c5.2,1.2,10.3,2.3,15.5,3.5c1.4,0.3,2.6,0.8,4.1-0.1C124.3,144.9,125.8,144.3,127.1,143.6z M175.6,152.7c-0.1,0-0.2-0.1-0.3-0.1
		c-1.6,1.3-3.3,2.5-4.9,3.8c-0.3,0.2-0.5,0.7-0.5,1c-0.3,2-0.6,3.9-0.8,5.9c-0.1,0.8,0.5,0.9,1.1,0.7c1.8-0.9,3.1-2.2,3.6-4.1
		c0.5-1.8,1-3.5,1.5-5.3C175.4,154,175.5,153.3,175.6,152.7z M112.6,72.8c0.1,0,0.2,0,0.3,0c0.5-1.4,1.2-2.7,1.6-4.2
		c0.4-1.6,0.2-3.2-0.6-4.7c-0.2-0.4-0.4-0.9-0.9-0.4c-1.4,1.5-2.4,3.3-2.5,5.5C110.5,70.8,112.1,71.5,112.6,72.8z M147.3,158.1
		c-0.1-1.4-0.2-2.7-0.3-4.1c-3.2,0.5-6.3,1-9.7,1.6c1.2,0.4,2.2,0.7,3.1,1c1.1,0.4,2.1,0.9,3.1,1.3
		C144.7,158.5,145.9,158.8,147.3,158.1z M86.2,119.5c1.7-0.4,2-0.7,1.8-2.2c-0.4-2.5-1.4-4.8-2.6-7c-0.1-0.2-0.4-0.4-0.6-0.6
		c-0.3,0.3-0.5,0.6-0.8,0.9c-0.6,0.5-0.7,0.9-0.2,1.6c0.4,0.6,0.6,1.5,0.9,2.2C85.2,116.1,85.7,117.8,86.2,119.5z"/>
	<path class="st0" d="M153.5,60.5c0.4-0.7,0.8-1.5,1.2-2.2c0.6-1,1.4-1.4,2.6-1.2c0.8,0.1,1.3,0.7,1.4,1.9c0.1,0,0.2,0,0.3,0.1
		c0.2-0.8,0.3-1.6,0.5-2.5c0.3-1.9,0.6-3.8,0.8-5.7c0.1-0.8,0.1-1.7-0.8-2.2c-0.9-0.5-1.5,0.2-2.1,0.7c-1.4,1.1-2.4,2.6-3,4.3
		c-0.1,0.3-0.4,0.6-0.6,1c-0.1-0.3-0.3-0.5-0.2-0.5c0.7-1.4,1.3-2.8,2.1-4c0.5-0.8,1.4-1.3,2.2-2c0.7-0.6,1.5-0.6,2.2,0
		c0.5,0.4,1,1.1,0.9,1.7c-0.1,1.8-0.4,3.6-0.7,5.5c-0.1,1.1-0.2,2.1-0.4,3.2c0,0.3-0.1,0.6-0.3,0.8c-0.3,0.4-0.8,0.6-1.2,1
		c-0.2-0.4-0.3-0.8-0.5-1.1c-0.3-0.4-0.5-1.2-0.8-1.2c-0.5,0-1.1,0.3-1.5,0.7c-0.4,0.4-0.6,1.1-1,1.7c-0.2,0.3-0.7,0.4-1,0.6
		C153.6,60.7,153.6,60.6,153.5,60.5z"/>
</g>
</svg>
