<?xml version="1.0" encoding="utf-8"?>
<!-- Generator: Adobe Illustrator 19.2.1, SVG Export Plug-In . SVG Version: 6.00 Build 0)  -->
<svg version="1.1" id="Layer_1" xmlns="http://www.w3.org/2000/svg" xmlns:xlink="http://www.w3.org/1999/xlink" x="0px" y="0px"
	 viewBox="0 0 200 204" style="enable-background:new 0 0 200 204;" xml:space="preserve">
<style type="text/css">
	.st0{fill:#FF5722;}
</style>
<g id="redeye-girl2">
	<path class="st0" d="M0,194.4c2-0.6,4.1-1.3,6.1-1.9c1.3-0.4,2.6-0.5,3.9-0.9c2.2-0.6,4.3-1.4,6.3-2.1c0-3.6-0.1-7.2,0-10.7
		c0.2-5.4-0.1-10.9,2.8-15.8c2.1-3.5,3.7-7.5,7.1-10c2-1.5,2.4-3.8,3.5-5.7c1.4-2.2,2.3-4.8,3.3-7.2c1.3-3,2.4-6.1,3.6-9.2
		c0.4-1,0.8-2.1,1.2-3.2c1-3.3,1.9-6.5,2.9-9.8c0.8-2.6,1.7-5.3,2.5-7.9c0.6-1.9,1.1-3.8,1.8-5.6c0.7-1.7,1.5-3.4,2.4-5.1
		c0.7-1.3,1.4-2.6,2.2-3.8c0.4-0.7,0.3-1.2,0-1.9c-0.6-1.3-1.2-2.7-1.7-4.1c-0.4-1.2,0.5-2.6,1.9-3.3c0.5-0.2,1-0.4,1.7-0.7
		c-1.1-1.4-2.1-2.7-3.1-3.9c-1.4-1.8-2.9-3.5-4.3-5.2c-1.4-1.6-2.7-3.3-4.1-4.9c-3.3-4.1-5.5-8.8-7.9-13.4c-1.1-2.1-2.1-4.3-3-6.4
		c-1.2-2.7-1-5.4-0.4-8.2c0.7-3.3,1.8-6.5,2.3-9.7c0.8-4.7,2.7-8.9,5.5-12.7c0.9-1.2,1.5-2.6,2.3-3.9c1.8-2.6,4.5-4.3,7.1-5.9
		c3.8-2.4,7.7-4.6,11.7-6.8c2.5-1.4,5-2.9,8-3.2c0.7-0.1,1.4-0.1,2.1,0c2.5,0.4,4.8-0.2,7.2-0.8c2.4-0.5,4.7-0.6,7.1,0.3
		c2.9,1,5.9,1.5,8.8,2.2c2.5,0.6,5,1,7.4,1.7c0.7,0.2,1.3,0.8,1.9,1.3c0.8,0.6,1.4,1.4,2.3,1.9c2.6,1.5,5.3,2.9,7.9,4.3
		c1.5,0.8,2.7,1.8,3.4,3.4c0.6,1.3,1.7,1.9,3,2.1c2.4,0.3,3.6,2,4.7,3.7c0.9,1.4,1.9,2.8,2.8,4.3c0.6,0.9,1.4,1.3,2.3,1.2
		c2-0.3,3.5,0.8,4.5,2.2c1.2,1.6,2.4,3.2,2.3,5.4c-0.1,2.2,0.9,3.3,3.1,3.8c2.8,0.6,4.2,2.5,5,5c0.4,1.1,0.9,2.2,1.5,3.2
		c0.2,0.3,0.7,0.4,1.1,0.6c1.2,0.6,2.3,1.3,3.5,2c2,1.1,2.5,3,2.8,5c0.1,0.6,0.1,1.1,0.3,1.7c0.4,1.6,1.6,2.4,3.9,2.7
		c1.5,0.2,3,1.3,3.3,2.8c0.3,1.5,0.5,3.1,0.7,4.8c1.5,0.7,2.8,1.9,3.7,3.4c0.3,0.5,0.7,1,1.1,1.3c1.1,0.7,1.7,1.6,1.9,2.8
		c0.5,2.8,2.4,4.8,3.7,7.2c0.1,0.2,0.7,0.4,1,0.3c5.5-0.2,10.6,1.5,15.6,3.6c1,0.4,1.9,1.4,2.7,2.3c2.3,2.5,4.2,5.3,5.7,8.3
		c0.7,1.3,1,2.9,1.2,4.4c0.3,2,0.1,4,0.3,6c0.2,2.3-0.7,4.3-1.5,6.3c-1.9,4.8-3.2,9.6-3.7,14.7c-0.2,2.5-0.6,4.9-0.9,7.4
		c-0.2,1.6-0.4,3.3-0.7,4.9c-0.3,1.8,0.1,2.2,1.8,1.7c2.4-0.7,4.7-1.4,7.1-2c0.4-0.1,0.9-0.3,1.2-0.2c0.4,0.1,0.8,0.4,1.2,0.7
		c-0.3,0.3-0.4,0.9-0.8,1c-2.1,0.8-4.3,1.6-6.5,2.4c-1.4,0.5-2.9,0.9-4.3,1.4c-0.4,0.2-0.9,0.8-1,1.2c-0.6,3.8-2.5,6.9-5,9.8
		c-1.1,1.3-1.7,3.2-2.9,4.5c-3.1,3.6-5.3,7.8-8.9,10.9c-3,2.6-6.4,4.6-10.2,5.7c-0.7,0.2-1.6,0.3-2.3,0.1c-2.7-0.4-5.4-1.1-7.7-2.7
		c-1.3-0.9-2.4-2.1-3.1-3.6c-0.8-1.6-1.8-3.3-3-4.5c-1.9-2-3.3-4.2-4.5-6.6c-1-1.9-0.6-1.9-2.8-1.2c-6,1.9-12.1,4-18.1,5.8
		c-3.4,1-6.9,1.4-10.3,2.3c-2.8,0.7-5.6,1.7-8.4,2.5c-3.4,1-6.8,1.8-10.1,2.8c-6.6,1.9-13.2,3.6-19.6,5.9c-3.5,1.2-7,1.9-10.6,2.7
		c-1.9,0.4-3.9,0.8-5.8,1.3c-0.2,0.1-0.5,0.2-0.6,0.4c-1.2,1.9-2.4,3.7-3.5,5.6c-1.1,1.9-2,4-3.1,5.9c-0.7,1.4-1.5,2.8-2.3,4.1
		c-0.4,0.6-1,1.1-1.7,1.4c-3.7,1.7-7.6,3.3-11.3,5c-2.4,1.1-4.5,1-6.5-0.8c-2.2-2.1-5-3.8-6.5-6.6c-0.6-1.1-0.9-2.4-1.4-3.6
		c-0.1-0.2-0.5-0.5-0.7-0.5c-0.8,0.2-1.5,0.5-2.3,0.7c-2,0.5-4,1-6,1.5c-1.3,0.4-2.5,1-3.8,1.4c-1.5,0.5-3,0.8-4.4,1.2
		C0,195.8,0,195.1,0,194.4z M156.3,122.4c0.2-0.1,0.4-0.1,0.6-0.2c0.3-1.7,0.5-3.4,0.9-5.1c0.6-2.9,1.1-5.9,1.8-8.8
		c0.5-2,0.9-4.2,2.6-5.7c0.3-0.3,0.8-0.3,1.3-0.5c0,0.4,0.1,0.9,0,1.3c-0.3,0.8-1,1.4-1.2,2.2c-0.6,2.3-1.2,4.5-1.7,6.8
		c-0.7,3.5-1.3,7.1-1.8,10.6c-0.1,0.5,0.2,1.2,0.5,1.5c1.7,2,3.5,3.9,5.3,5.8c2.7,2.9,5.6,5.6,7.2,9.3c0.8,1.9,1.6,3.8,2.3,5.8
		c0.1,0.4-0.3,0.9-0.5,1.4c-0.4-0.2-1-0.4-1.3-0.8c-0.3-0.4-0.4-1-0.5-1.5c-0.9-2.7-2-5.3-3.8-7.5c-2.1-2.5-4.3-5-6.5-7.4
		c-2.2-2.3-4.6-4.5-6.9-6.8c-1.2-1.2-2.4-2.4-3.5-3.6c-0.8-0.9-1.6-1.9-2.5-2.8c-2.1-2.4-4.5-4.6-6.3-7.2c-2.5-3.6-4.7-7.5-6.9-11.4
		c-0.9-1.6-1.6-3.3-2.5-4.9c-1.4-2.4-3-4.6-4.3-7c-1.1-2-1.9-4.2-2.9-6.3c-1.7-3.3-1.4-6.4,0.3-9.7c1-2,2.3-4.1,1.6-6.7
		c-0.7-3-0.9-6.1-1.5-9.1c-0.2-1-0.8-2-1.4-2.8c-1-1.2-2.1-2.2-3.3-3.3c-1-1-1.8-2.1-0.8-3.5c0.1-0.1,0.1-0.4,0.1-0.6
		c0-2.9-0.5-5.7-2.3-8.1c-1.6-2.1-3.3-4.1-5-6.1c-0.9-1-1.8-2.1-3-2.8c-1.7-1-3.7-0.9-5.5-0.4c-1.4,0.4-1.8,1.9-1.5,3.9
		c0.3-0.1,0.5-0.1,0.7-0.2c0.8-0.5,1.5-1.2,2.4-1.5c2.3-0.7,5.3,0.6,6,2.6c0.1,0.3,0.5,0.7,0.9,0.8c1.7,0.8,2.8,2.1,3.4,3.8
		c0.9,2.8,1.7,5.7,2.5,8.6c0.6,2.1,1.4,4.2,1.8,6.3c0.5,2.5,1.5,4.8,2.9,6.9c0.3,0.4,0.4,0.9,0.7,1.3c0.3,0.6,0.4,1.2-0.3,1.4
		c-0.3,0.1-1-0.4-1.2-0.7c-0.6-1-1.1-2-1.6-3.1c-0.6-1.4-1.3-2.7-1.7-4.2c-1.4-4.9-2.6-9.9-4.1-14.8c-0.4-1.3-1.2-2.4-2-3.5
		c-0.6-0.8-1.5-1.3-2.6-0.8c0,0.2,0,0.3,0,0.4c1.4,5.3,2.7,10.5,4.1,15.8c0.1,0.4-0.3,0.8-0.5,1.3c-0.3-0.3-0.9-0.5-1-0.8
		c-0.3-0.8-0.5-1.8-0.7-2.7c-1.1-4.3-2.2-8.6-3.2-12.9c-0.8-3.4-3.2-4.1-6.2-2.5c-1.2,0.6-2.3,1.4-3.4,2.1c-0.2,0.1-0.3,0.4-0.6,0.6
		c0.8,0.1,1.4,0.2,2,0.3c2.7,0.3,4.4,1.7,5,4.4c0.8,3.3,1.6,6.7,2.3,10c0.1,0.4-0.3,0.8-0.5,1.3c-0.3-0.3-0.9-0.5-1-0.9
		c-0.8-3.4-1.6-6.7-2.4-10.1c-0.3-1.5-1.1-2.5-2.6-2.8c-1.4-0.3-2.9-0.6-4.3-0.8c-0.2,0-0.5,0.1-0.6,0.2c-0.7,0.6-1.4,1.2-1.9,1.8
		c-0.4,0.5-0.6,1,0.2,1.5c1.5,1,3.1,2.1,3.8,4c1.3,3.4,2.7,6.8,4,10.2c0.1,0.3,0.3,0.7,0.2,1c-0.1,0.4-0.4,0.7-0.6,1.1
		c-0.3-0.2-0.7-0.4-0.9-0.7c-0.2-0.4-0.3-0.9-0.5-1.4c-1.1-2.9-2.4-5.9-3.4-8.8c-0.7-2.1-2.3-3.2-3.9-4.4c-0.1-0.1-0.3-0.2-0.4-0.2
		c-1.3,0.3-2.2,1.2-2.9,2.3c-0.6,1,0.2,1.6,0.7,2.2c1,1.2,1.5,2.6,1.6,4.1c0.2,3.5,0.2,6.9,0.3,10.4c0,0.3,0,0.7,0.1,1
		c0.5,1.9,1,3.8,1.5,5.7c1.3,4.5,2.7,8.9,4.9,13c1.8,3.3,4.6,6,7.3,8.6c2.5,2.4,4.3,5.3,5.4,8.6c0.2,0.8,0.6,1.5,0.9,2.2
		c1.7,3.4,3.9,6.6,4.9,10.4c0.1,0.5,0.2,1,0.4,1.4c1,2.1,1.9,4.1,3,6.1c2.8,5.7,5.7,11.3,8.5,17.1c2.7,5.7,5.2,11.5,7.9,17.2
		c2.1,4.4,3.7,9.1,7.4,12.6c1.4,1.3,2.2,3.3,3.4,4.8c0.9,1.2,1.2,2.9,2.9,3.4c1.8,0.5,3.5,1.1,5.3,1.5c0.8,0.2,1.9,0.2,2.6-0.1
		c1.7-0.7,3.4-1.6,4.9-2.6c3.3-2.1,6.1-4.8,8.8-7.6c1.1-1.1,2.3-2.1,2.6-3.7c0.1-0.4,0.4-0.7,0.6-1c0.5-0.6,1-1.2,1.5-1.8
		c1.4-2.1,2.9-4.1,4.2-6.3c0.9-1.6,1.9-3.3,2.3-5c1-4.9,1.8-9.9,2.6-14.8c0.3-1.5,0.6-3,0.7-4.4c0.3-4.9,1.7-9.5,3.4-14.1
		c0.6-1.7,1.6-3.3,1.7-5c0.2-2.7,0-5.5-0.2-8.3c-0.1-1-0.4-2.2-0.9-3.1c-1.3-2.2-2.7-4.4-4.3-6.5c-1.1-1.5-2.2-3.1-4.1-3.8
		c-0.8-0.3-1.6-0.6-2.4-0.9c-3.4-1.1-6.9-2.2-10.6-2.1c-2.2,0-4.4,0.5-6.7,0.7c-1.3,0.1-2.4,0.5-3.2,1.6c-0.8,1.2-1.7,2.4-2.3,3.7
		c-1.3,2.6-2.4,5.3-3.5,8c-0.7,1.7-1.5,3.3-2.1,5c-1.3,3.8-2.5,7.7-3.9,11.6c-0.4,1-0.2,1.5,0.5,2.2c0.7,0.7,1.4,1.4,2.1,2.2
		C153.4,119.2,154.8,120.8,156.3,122.4z M59.6,100.9c0-0.7-0.1-1.4,0-2.1c0.1-0.3,0.4-0.8,0.7-0.9c0.3-0.1,0.9,0.4,0.9,0.6
		c0,1.7,0.4,3.6-0.1,5.1c-0.7,2.4-2,4.6-3.1,6.9c-0.5,1.1-0.9,2.2-1.5,3.3c-1.8,3.4-3.6,6.8-5.6,10.1c-1.8,3-3.9,5.8-5.9,8.7
		c-1.5,2.3-3.1,4.5-4.6,6.8c-0.5,0.8-0.6,1.9-1.2,2.7c-2.4,3.1-4.6,6.4-7.4,9.1c-3.1,2.9-6.3,5.6-8.6,9.3c-3,4.7-4.8,9.6-4.5,15.3
		c0.1,2.6-0.1,5.3-0.1,7.9c0,2,0.2,3.9,0.3,5.9c0.1,1.2,0.2,2.5,0.6,3.6c0.4,1.1,1.1,2.2,1.9,3c1.7,1.7,3.5,3.2,5.3,4.8
		c0.8,0.7,1.8,1.3,3,0.7c1.7-0.7,3.4-1.4,5-2.1c2.3-1,4.5-2.1,6.7-3.2c0.6-0.3,1.4-0.7,1.7-1.2c1.3-1.9,2.4-3.9,3.6-5.9
		c1.1-2,2.2-4,3.3-6c1.5-2.9,3.2-5.8,4.3-8.8c2.2-5.8,4.9-11.4,6.9-17.3c1.5-4.6,3.4-9,4.8-13.6c1-3.3,2.3-6.6,3.7-9.8
		c1.4-3.2,3-6.4,4.6-9.5c1.3-2.4,2.8-4.7,4.2-6.9c0.7-1.1,1.8-1.8,3.1-2.1c2.1-0.4,4.2-0.8,6.3-1.2c1.8-0.3,3.3-1.8,3.6-3.4
		c0.2-1.4-0.7-3.7-1.9-4.3c-1.2-0.6-2.3-1.3-3.6-1.6c-3.1-0.9-5.7-2.7-8.3-4.5c-1.1-0.7-2.3-1.4-3.4-2.1c-0.6-0.4-1.3-0.7-1.9-1.1
		c-2.4-1.4-4.7-2.9-7.2-4.2c-1.6-0.8-3.3-1.2-5-1.8c-0.6-0.2-1.2-0.6-1.8-1c-0.5-0.4-1-0.8-1.5-1.2c-0.6-0.4-1.3-0.7-1.9-1.1
		c-1.4-0.9-2.8-1.1-4.3-0.2c-0.7,0.4-1.2,1-1,1.9c0.3,1.7,1.2,3.1,2.5,4.2C54.6,96.2,57,98.5,59.6,100.9z M101.9,87.4
		c-0.1,2.2-0.1,4-0.4,5.7c-0.2,1.2-0.9,2.4-1.6,3.4c-0.9,1.1-2,2.2-3.3,3c-1.3,0.9-2.8,1.8-4.3,2.1c-2,0.5-4.2,0.4-6.2,0.5
		c-0.3,0-0.6,0.1-1.3,0.3c0.9,0.5,1.4,0.8,1.9,1c2,0.7,4.1,1.3,6.1,2c2.8,1,5.7,1.3,8.6,1.6c1,0.1,2.2,0,3.2-0.4
		c1.5-0.6,3-1.4,4.4-2.3c1.2-0.8,2.6-1.6,2.7-3.2c0.1-1-0.1-2-0.3-2.9c-0.8-3.7-3-6.4-5.5-9.1c-2.3-2.4-4.7-4.9-6.6-7.6
		c-3-4.4-4.1-9.6-5.9-14.6c-1.6-4.4-1.7-8.9-1.6-13.5c0-0.8,0-1.6,0-2.3c-0.1-1.8-0.4-3.4-1.6-4.9c-2-2.4-0.9-4.1,0.5-5.5
		c0.4-0.3,0.7-0.7,1.2-1.1c-1.4-0.5-2.6-1.1-3.9-1.4c-1.6-0.3-3.4-0.6-5-0.4c-3.9,0.6-7.6,0.5-11.1-1.4c-1.7-0.9-3.1-2-4.2-3.7
		c-0.4-0.6-1.2-1.1-1.9-1.1c-3.9-0.4-7.2,0.8-10,3.6c-2.4,2.4-5,4.5-8.3,5.4c-1.1,0.3-2.1,0.9-3.1,1.5c-1.6,1.1-2.9,2.6-3.2,4.7
		c-0.2,1.9-0.5,2.1-2.3,1.5c-1.2-0.4-2.3,0-2.7,1.2c-0.7,2.1-1.2,4.3-1.8,6.4c-0.2,0.6-0.5,1.3-0.3,1.8c0.7,1.6,1.5,3.1,2.3,4.7
		c1.9,3.6,4.2,6.8,6.8,9.9c1.2,1.5,2.4,3.1,3.6,4.7c0.9,1.1,1.8,2,2.7,2.9c1.3-1.5,2.5-2.8,3.7-4c0.6-0.6,1.3-1.1,2.3-0.5
		c0.8,0.5,0.7,0.9,0.1,1.5c-1.3,1.1-2.6,2.3-3.8,3.6c-0.5,0.5-0.5,1.1-0.1,1.8c0.7,1,1.3,2.1,2,3.1c0.2,0.2,0.4,0.4,0.7,0.6
		c1,0.4,2.2-0.1,2.8-1.2c0.5-0.9,0.8-1.8,1.4-2.7c1.1-1.9,2.7-3.4,4.8-3.9c0.9-0.2,1.8-0.1,2.7-0.2c-1.1-0.3-2.3-0.3-3.4-0.4
		c-0.2,0-0.5-0.3-0.7-0.5c0.2-0.2,0.4-0.6,0.6-0.5c1.5,0.1,3,0.2,4.5,0.4c0.3,0,0.7,0.3,0.9,0.5c1.6,2.2,3.3,4.3,4.8,6.5
		c1.8,2.8,3.5,5.7,5.2,8.5c0.4,0.7,0.9,0.8,1.7,0.6c1.3-0.5,2.6-0.8,3.8-1.4c0.4-0.2,0.8-0.9,0.8-1.4c0-1.8,0.3-3.1,2.4-3.7
		c2.2-0.7,2.6-3.2,0.8-4.4c-0.8-0.5-1.9-0.5-3.2-0.8c-0.2-0.5,0.3-0.9,1-1c1.8-0.2,3.8,1.2,4.1,2.9c0.4,2.1-0.6,3.7-2.7,4.2
		c-1.2,0.3-1.6,0.9-1.5,2c0,0.4,0,0.9,0,1.3c0.1,0.8-0.3,1.4-1.1,1.7c-1.3,0.5-2.5,1.2-3.9,1.5c-1.4,0.4-2.7,0.4-3.6-1.2
		c-1.6-2.8-3.2-5.5-4.9-8.3c-1-1.7-2.2-3.3-3.3-5c-0.4,0.5-0.7,0.8-0.9,1.1c-1.7,2.9-4.2,4.4-7.4,5.1c-1.1,0.3-2.1,0.9-3.2,1.3
		c0,0.1,0,0.3,0,0.4c0.6,0.2,1.3,0.6,1.9,0.5c2.7-0.6,5.3-1.3,7.6-2.9c0.2-0.2,0.7-0.1,1-0.1c-0.2,0.3-0.2,0.9-0.5,1
		c-1.7,0.8-3.5,1.6-5.2,2.3c-0.7,0.3-1.4,0.4-2.1,0.6c0,0.1,0,0.2,0,0.3c0.5,0.2,0.9,0.5,1.4,0.7c0.8,0.3,1.6,0.3,2.3,0.7
		c2.1,1,4.3,1.9,6.3,3.1c4.3,2.5,8.8,4.6,12.7,7.7c0.7,0.5,1.2,0.6,1.7-0.2c0.7-1.2,1.4-2.5,2.3-3.6c0.3-0.4,0.9-0.8,1.4-0.8
		c0.8,0,1.1-0.4,1.4-1.1c0.2-0.5,0.3-1.2,0.7-1.5c1.5-0.9,3.1-1.7,4.8-2.3c2.2-0.8,4-2.1,5.7-3.6C100.6,87.9,101.3,87.7,101.9,87.4z
		 M92.3,107.1c0.3,0.8,0.4,1.3,0.6,1.8c0.5,1.2,0.8,2.4,0.1,3.6c-1.1,1.9-2.8,3.2-5,3.6c-0.9,0.1-1.2,0.6-1.3,1.3
		c-0.1,0.3,0,0.7-0.1,1c-1.3,3.4-1.5,7-1.2,10.6c0.1,1.1,0.4,2.2,0.9,3.2c0.6,1.4,1.3,2.7,2.2,3.9c1,1.5,2,3.1,3.4,4.2
		c3.6,2.7,7.9,3.9,12.2,5c5.9,1.4,11.3-0.3,16-3.8c3-2.2,5.8-4.9,8.6-7.3c-0.6-1-1.1-1.8-1.5-2.7c-1.8-3.9-3.6-7.7-5.5-11.6
		c-0.8-1.8-1.9-3.5-2.5-5.3c-1.6-4.2-3.1-8.5-5.5-12.3c-1.6,3.3-5.2,4.1-8,6c3,1.6,3.1,1.6,2.9,2.9c-1-0.5-2.1-0.9-3-1.5
		c-1.3-0.8-2.7-1.3-4.4-0.9c0.3,1.8,1.5,2.9,3.1,3.6c2,0.8,4,1.4,6,2.1c0.5,0.2,1.3,0.4,0.9,1.1c-0.2,0.3-1,0.6-1.4,0.5
		c-2.1-0.6-4.1-1.4-6.1-2.1c-1.4-0.5-2.5-1.4-3.1-2.8c-0.8-2-1.9-3.5-4.4-3.1c-0.7,0.1-1.4-0.4-2.1-0.6
		C93.4,107.4,93,107.3,92.3,107.1z M145.3,110.5c1.3-3.4,2.4-6.4,3.5-9.4c1.2-3.5,1.9-7.1,4-10.2c1.3-1.9,2.1-4.2,3.1-6.3
		c-0.3,0-0.8,0.1-1.4,0.2c-3.5,0.3-6.8-0.5-10-1.5c-2.7-0.8-5.2-2.1-7.8-3c-1.9-0.7-3.5-1.7-4.9-3.2c-0.8-0.9-1.8-1.6-2.6-2.5
		c-0.8-0.7-1.6-1.5-2.6-2.4c-0.2,2.3-0.8,4.3,0.2,6.3c1,1.9,2.2,3.7,2.8,5.7c0.4,1.6,1.2,2.8,2,4.1c1.6,2.5,3.3,5,4.8,7.5
		c0.6,0.9,0.7,2.1,1.2,3.1c1,1.8,2,3.6,3.1,5.3C142.1,106.3,143.7,108.3,145.3,110.5z M31.3,148.6c0.1,0,0.1,0.1,0.2,0.1
		c1.1-1.4,2.3-2.7,3.4-4.1c1.3-1.6,2.6-3.3,3.4-5.4c0.5-1.3,1.1-2.5,2-3.6c3.5-4.6,7.1-9.2,9.8-14.3c2-3.8,4.1-7.7,6.1-11.5
		c0.6-1.2,0.9-2.7,1.6-3.8c1.1-1.7,0.6-3.1-0.5-4.3c-1.6-1.9-3.3-3.6-5-5.3c-0.5-0.5-0.9-0.5-1.2,0.2c-1.6,3.3-3.8,6.3-4.7,10
		c-0.3,1.5-0.6,3-1.2,4.3c-1.2,2.7-1.9,5.4-2.6,8.2c-0.6,2.5-1.4,4.9-2.2,7.4c-0.7,2.3-1.5,4.5-2.3,6.7c-0.7,1.8-1.5,3.6-2.2,5.5
		c-1.2,3-1.9,6.2-4,8.8C31.6,147.8,31.5,148.2,31.3,148.6z M151.3,80.1c-0.6-0.3-1.2-0.6-1.7-0.9c-0.4-0.2-0.9-0.4-1.1-0.7
		c-1.3-2-2.5-4.1-3.8-6.2c-0.4-0.6-0.8-1.1-1.3-1.5c-2.2-1.9-4.5-3.7-5.3-6.8c-0.2-0.7-0.5-1.5-0.5-2.2c-0.1-0.7-0.4-0.9-1-1
		c-0.7-0.2-1.5-0.4-2.1-0.8c-2.4-1.7-4.4-3.7-5.3-6.7c-0.1-0.5-0.5-1-0.9-1.3c-0.4-0.3-0.9-0.2-1.4-0.3c0,0.4-0.2,0.9-0.1,1.3
		c0.3,1.5,0.8,2.9,1.1,4.4c0.5,2.4,1,4.7,1.5,7.1c0.1,0.5,0.1,1.1,0,1.6c-0.4,1.4-0.9,2.9-1.2,4.3c-0.1,0.4,0.1,0.9,0.3,1.2
		c1.1,1.2,2.3,2.3,3.5,3.4c1.8,1.6,3.6,3.3,6.1,4c2.7,0.7,5.1,2,7.8,2.9c1.6,0.5,3.2,0.8,4.8,1.1C150.7,82,151,81.2,151.3,80.1z
		 M73,173.5c-2.3-7.3-4.2-14.9-7-22.1c-0.1,0-0.3,0-0.4,0c-3.7,9.1-7.3,18.2-11.1,27.7C60.8,177,67.3,176.8,73,173.5z M81.8,117
		c-0.7,0.4-1.1,0.5-1.3,0.8c-2,2.3-3.8,4.7-4.8,7.5c-0.2,0.6-0.5,1.2-0.8,1.8c-1,2-2.2,4-3.2,6.1c-0.2,0.5-0.3,1.3-0.1,1.7
		c0.5,0.7,1.2,0.2,1.7-0.1c0.9-0.6,1.8-1.2,2.6-2c2.2-2,3.2-4.8,4.4-7.4C81.4,122.8,81.6,120.1,81.8,117z M100.1,91.6
		c-4.4,3.1-8.1,6.9-13.1,9.3c0.5,0,0.6,0.1,0.8,0.1c3.6-0.5,7-1.7,9.9-4C99.4,95.6,100.7,94,100.1,91.6z M86.1,100
		c2.1-0.8,12.2-8.1,12.7-8.9c-2.5,1.2-5.1,2.5-7.7,3.8c-0.4,0.2-0.6,0.7-0.9,1.1c-0.6,0.6-1.1,1.6-1.8,1.8C87,98,86.7,98.9,86.1,100
		z M127.8,34.1c-0.2-1.5-0.4-3.4-0.7-5.2c0-0.3-0.5-0.5-0.7-0.8c-0.2,0.3-0.6,0.5-0.7,0.8c-0.1,0.4-0.1,0.9-0.1,1.4
		c0.1,1.6,0.2,3.2,0.5,4.7c0.1,0.5,0.6,1.1,1,1.2c0.8,0.1,0.9-0.7,0.9-1.3C127.8,34.8,127.8,34.6,127.8,34.1z M62.2,79.9
		c-1.4,0.8-2.3,1.9-2.7,3.3c-0.1,0.3-0.2,0.8,0,0.9c0.2,0.2,0.8,0.3,1,0.2c1.3-0.5,2.5-1.1,4-1.8C62.2,81.4,62.1,81.2,62.2,79.9z
		 M142.4,48.1c0,1.7,0,3.4,0,5.1c0,0.2,0.6,0.6,0.8,0.5c0.3-0.1,0.7-0.5,0.7-0.9c0.1-1,0-2.1,0-3.1
		C144.1,48.7,143.7,48.1,142.4,48.1z M146.2,71.2c0.8,2.3,3.7,3.8,5.9,2.8c-0.2-0.8-0.5-1.4-1.5-1.6
		C149.1,72.1,147.6,71.6,146.2,71.2z M133.3,52.9C133.3,52.9,133.3,52.8,133.3,52.9c0.6,0,1.2,0.1,1.7-0.1c0.4-0.1,0.6-0.5,1-0.8
		c-0.3-0.3-0.6-0.8-1-0.8c-1.3,0-2.6,0.1-3.8,0.2c-0.2,0-0.6,0.4-0.6,0.7c0,0.2,0.4,0.6,0.6,0.7C131.9,52.9,132.6,52.9,133.3,52.9z
		 M128.9,45.1c0,0.1-0.1,0.2-0.1,0.3c-0.7,0-1.4-0.1-2.1,0c-0.7,0.1-1.4,0.3-2,0.5c-0.2,0.1-0.4,0.5-0.4,0.8c0,0.2,0.4,0.5,0.7,0.5
		c1.3-0.1,2.7-0.3,4-0.5c0.3-0.1,0.7-0.5,0.7-0.8C129.7,45.6,129.2,45.4,128.9,45.1z M159.4,68.9c-0.3,1.4-0.6,2.7-0.8,4
		c0,0.3,0.4,0.8,0.6,1.1c0.3-0.2,0.8-0.3,1-0.6C161.3,71.8,161,70.4,159.4,68.9z M144.3,63.6C144.3,63.6,144.3,63.6,144.3,63.6
		c0.7,0,1.4,0.1,2.1,0c0.3,0,0.5-0.5,0.8-0.7c-0.3-0.2-0.5-0.7-0.8-0.7c-1.3-0.1-2.6-0.1-4,0c-0.3,0-0.5,0.5-0.8,0.7
		c0.3,0.2,0.5,0.6,0.8,0.7C143,63.7,143.6,63.6,144.3,63.6z M152.1,62.4C152.1,62.4,152,62.4,152.1,62.4c-0.1-0.7,0-1.3-0.1-2
		c0-0.3-0.4-0.5-0.6-0.8c-0.2,0.2-0.5,0.5-0.6,0.7c-0.1,1.2-0.2,2.5-0.2,3.7c0,0.3,0.5,0.6,0.7,0.9c0.2-0.3,0.6-0.5,0.7-0.8
		C152.2,63.6,152.1,63,152.1,62.4z M133.1,42.2c0.1,0.4,0.1,1,0.3,1.6c0.1,0.2,0.5,0.5,0.7,0.4c0.3-0.1,0.6-0.5,0.6-0.7
		c0-1.1-0.1-2.1-0.3-3.2c0-0.2-0.4-0.4-0.5-0.6c-0.2,0.2-0.5,0.4-0.6,0.7C133.1,41,133.2,41.5,133.1,42.2z"/>
	<path class="st0" d="M84.9,61.8c-0.1,1-0.1,2-0.3,3c-0.5,3.2-2.8,4.9-5.4,6.2c-0.9,0.5-2,0.8-3,1.1c-0.7,0.2-1.2-0.2-1.2-0.8
		c0-2.5-0.1-5.1,1.3-7.4c1.1-1.9,3.1-2.6,4.8-3.7c0.8-0.5,1.7-1,2.6-1.4c0.6-0.3,1.1-0.1,1.1,0.6C84.9,60.1,84.8,60.9,84.9,61.8
		C84.9,61.8,84.9,61.8,84.9,61.8z M76.6,70.6c2.4-1.1,4.7-2.1,6.2-4.6c-2,1.1-4.1,0.3-5.1-1.4C76.6,65.1,76,68.1,76.6,70.6z
		 M83.6,60.3c-0.7,0.4-1.1,0.7-1.6,1c0.5,0.4,0.9,0.8,1.6,1.4C83.6,61.8,83.6,61.2,83.6,60.3z"/>
	<path class="st0" d="M77.2,51.3c0.4,0.3,0.8,0.6,1.3,1c-0.4,0.4-0.6,0.9-1.1,1.2c-3.5,2-6.6,4.4-8.8,7.9c-0.3,0.5-0.5,1.2-0.8,1.8
		c-0.1,0.2-0.3,0.6-0.5,0.6c-0.2,0-0.5-0.2-0.7-0.4c-0.6-0.7-0.7-2.2,0.1-3.1c1.7-2.1,3.4-4.1,5.3-6c1-1,2.3-1.7,3.5-2.4
		C75.9,51.5,76.4,51.5,77.2,51.3z"/>
</g>
</svg>
