<?xml version="1.0" encoding="utf-8"?>
<!-- Generator: Adobe Illustrator 19.1.0, SVG Export Plug-In . SVG Version: 6.00 Build 0)  -->
<svg version="1.1" id="Layer_1" xmlns="http://www.w3.org/2000/svg" xmlns:xlink="http://www.w3.org/1999/xlink" x="0px" y="0px"
	 viewBox="0 0 150 174.7" style="enable-background:new 0 0 150 174.7;" xml:space="preserve">
<style type="text/css">
	.st0{fill:#F44336;}
</style>
<g id="redeye-girl">
	<path class="st0" d="M150,128.6c-4.2-7.1-11-10.4-18.4-13.1c-3.4-1.2-6.7-2.8-10-4.1c-0.8-0.3-1.6-0.3-2.8-0.5
		c0,9.9,0.3,19.5-0.1,29c-0.1,3.5,0.1,5.3,4,6.5c4.9,1.5,9.4,4,13.9,6.4c1.6,0.9,3,2.4,4.3,3.8c0.7,0.8,1.1,2.1,1,3.1
		c-0.2,2.2,0.4,3.9,1.8,5.6c1.9,2.3,1.7,3.7,0.1,6.2c-0.4,0.6,0,1.8,0.1,2.9c-0.4-0.2-1.4-0.4-1.5-0.8c-0.3-0.8-0.3-2,0.1-2.7
		c1.7-2.7,1.8-3-0.3-5.5c-1.2-1.4-1.9-2.8-1.6-4.8c0.7-3.9-2.7-5.3-5-6.9c-3.2-2.1-7-3.4-10.6-5c-1.7-0.8-3.5-1.7-5.3-1.8
		c-2.2-0.2-4.6,0.1-6.8,0.7c-1.6,0.4-3.2,1.3-3.1,3.5c0.1,2.3,2.5,2.2,3.7,3.2c0.5,0.4,1.5,0.4,2.2,0.5c2.2,0.3,2.7,0,3.9-2.8
		c-2.6-0.8-5.1-1.3-7.5,0.9c0.3-2.1,0.8-2.6,2.6-2.7c3.5-0.2,6.8,0.9,9.9,2.4c1.6,0.8,3.2,1.4,4.8,1.9c2.9,0.8,5,2.6,6.9,4.7
		c0.2,0.2-0.1,0.7-0.1,1.1c-0.4-0.1-0.9,0-1.1-0.2c-2-3-5-4-8.3-4.8c-2.2-0.5-4.1-2-6.2-3c-1.3,3.3-1.3,3.3-6.9,3.8
		c0.8,0.6,1.3,1.1,1.9,1.4c5,2.4,9.9,4.8,15.4,5.8c3.3,0.6,5.3,2.9,7,5.6c-0.1,0.2-0.2,0.3-0.3,0.5c-0.6-0.4-1.4-0.7-1.8-1.2
		c-1.4-2.3-3.5-3.2-6.1-3.8c-3-0.7-6-2-8.9-3c-0.9-0.3-1.8-0.4-2.6-0.6c-1-0.6-2.3-1.1-3.1-1.9c-1.4-1.4-3-1-4-0.1
		c-0.8,0.7-0.8,2.3-1.2,3.5c5.7,0.7,5.7,0.7,8.4-1.5c0.1,2.6-1.8,4-4.5,3.4c-0.9-0.2-1.7-0.5-2.8-0.8c0.6,2.1,2.3,2,3.6,2.6
		c5.5,2.5,11.6,3.8,16.2,8c0.2,0.2,0.4,0.4,0.5,0.6c-0.1,0.2-0.2,0.4-0.3,0.5c-2.6-1.3-5.3-2.7-7.9-3.9c-2.8-1.3-5.6-2.6-8.6-4
		c-0.6,0.7-1.3,1.5-2,2.3c0.9,0.7,1.6,1.3,2.3,1.8c1.2,0.8,2.5,1.6,3.5-0.4c0.1-0.3,0.8-0.4,1.2-0.5c0,0.5,0.1,1.1-0.1,1.4
		c-1.1,1.7-3.2,1.9-4.7,0.6c-0.6-0.5-1.2-1-1.9-1.5c-0.2,0.2-0.4,0.3-0.6,0.5c0.8,1.1,1.6,2.2,2.4,3.3c-0.1,0.2-0.2,0.3-0.3,0.5
		c-0.8-0.6-1.8-1.1-2.5-1.8c-1.2-1.3-1.1-2.9-0.3-4.3c0.9-1.5,0.9-2.5-0.8-3.3c-20.8,9.6-41.6,8.9-62.1-1.7c-1.1,3.8-2,7.3-3,10.8
		c0,0.1-0.8,0.1-1.1,0.1c1.4-5.9,2.9-11.8,4.3-17.7c1.5-6.2,3.1-12.4,4.6-18.6c0.7-3.1,1.3-6.2,2-9.3c0.1-0.5,0.2-1,0.5-1.4
		c2.5-3.2,2.9-7.2,3.9-11c1.3-5.1,0.7-10.3,1.3-15.4c0.4-3.5,2.2-6.8,3.5-10.1c1.4-3.4,2.9-6.7,4.5-10c0.9-2,2-3.9,3-5.8
		c0.2-0.4,0.8-0.9,0.7-1.3c-0.1-1.3-0.4-2.5-0.7-3.8c-1,0.4-2.5,0.5-3,1.3c-1.9,2.8-3.7,5.8-5.2,8.9c-3.5,7.2-6.9,14.4-10.3,21.6
		c-0.2,0.4-0.4,0.8-1.1,1.3c0-0.6-0.2-1.3,0-1.8c1.9-4,4-7.9,5.9-11.9c1.6-3.4,3.1-6.9,4.3-10.5c-3,1.7-5.5,3.9-7.3,6.8
		c-1.8,2.9-3.6,5.7-5.6,8.4c-1.8,2.6-3.9,4.9-5.6,7.5c-0.6,0.9-0.7,2.3-0.9,3.4c-0.2,1-0.4,2.1-0.7,3.3c-0.6-0.3-0.9-0.4-0.9-0.5
		c0.1-2.6-0.1-5.2,1.7-7.4c3.1-4,6.4-8,9.1-12.2c1.7-2.6,2.7-5.6,5.2-7.6c0.8-0.7,1.7-1.3,2.4-2.1c1.9-2.1,3.7-4.4,5.6-6.5
		c1.2-1.3,2.5-2.5,3.7-3.7c0.3-0.3,0.8-0.9,0.7-1.1c-0.2-0.4-0.8-1-1.2-1c-1,0.1-2.2,0.3-2.9,0.9c-1.8,1.6-3.5,3.3-5.1,5.1
		c-2.2,2.3-4.8,4.4-6.5,7.1c-2,3-5.2,4.5-7.3,7.1c-2.2,2.8-4.7,5.3-7.1,7.9c-0.5,0.6-1,1.2-1.6,1.7c-4.2,3.8-1.9,8.2-1.1,12.5
		c0.1,0.7-0.1,1.5-0.2,2.2c-0.2,0-0.4-0.1-0.5-0.1c-1.2-4.5-2.3-8.9-3.5-13.4c-0.2,0.1-0.4,0.1-0.7,0.2c-0.1,5.5-0.2,10.9,1.7,16.3
		c1.6,4.5,1.5,9.3,0.2,13.8c-1.8,6.7-4,13.3-6.3,19.8c-1.3,3.5-3.5,6.7-4.9,10.2c-1.2,2.9-2,6-3.1,9c-0.8,2.2-1.7,4.5-2.7,6.6
		c-0.2,0.5-0.8,0.8-1.2,1.2c-0.2-0.1-0.4-0.3-0.5-0.4c0.7-1.8,1.4-3.6,2.1-5.4c0.8-2.2,1.6-4.3,2.4-6.5c1.4-3.7,2.4-7.5,4.3-10.9
		c1.8-3.4,1.1-6.2-0.6-9.3c-0.8-1.4-1.2-3.2-1.5-4.8c-0.1-0.5,0.6-1.2,1-1.9c0.5,0.5,1.2,0.9,1.5,1.5c0.8,2.2,1.5,4.4,2.6,6.6
		c2.7-5.5,4.6-11.1,5.9-16.9c1.4-6.2-0.1-12.1-2.1-18.1c-0.3,0-0.9-0.1-1.5,0c-3.6,0.7-7.2,1.4-10.8,2.3c-8.1,2-14.3,6.4-17.1,14.6
		c-0.8,2.2-0.9,4.7-1.4,7.1c-0.1,0.3-0.3,0.6-0.4,0.9c0-4,0-8,0-12c2.8-4,5.8-7.8,10.3-10.1c1.6-0.8,3.3-1.8,5.1-2.2
		c4.8-1.1,9.6-1.9,14.4-2.9c0.6-0.1,1.6-1.4,1.5-2c-0.6-4.1,0.5-8.6-2.2-12.3c-0.4-0.5-0.6-1.2-0.6-1.8c-0.3-4.2-0.6-8.3-0.9-12.5
		c-0.1-1.3,0.2-2.7,1.5-2.9c1.2-0.2,2.7,0.1,3.6,0.8c1.5,1.2,2.6,2.9,4.3,4.9c0.8-1.5,1.5-2.9,2.3-4.2c2.1-3.3,2.1-6.3-0.1-9.8
		c-4.6-7.4-5.4-15.8-5.3-24.3c0.1-4,0.2-8,0.8-11.9c0.4-2.7,1.5-5.4,2.8-7.8c1.7-3.1,3.9-5.9,5.9-8.8c3-4.4,7.6-6.5,11.9-9.2
		C64-1.2,73.3-0.6,82.7,1.6c4.9,1.2,9.9,2.4,14.6,4c3.4,1.2,6,3.6,7.6,7.1c1.3,2.9,3.9,5.3,4.9,8.2c1.9,5.3,3.4,10.8,4.5,16.4
		c0.5,2.7,0.4,5.8-0.5,8.4c-1.1,3.3-1.2,6.4-0.8,9.8c0.2,1.5-0.4,3.2-0.8,4.8c-0.3,1.3-0.3,2.8-0.9,3.9c-1.1,2-2.5,3.8-3.8,5.6
		c-1,1.4-2.4,2.6-2.9,4.1c-1.3,4.1-2.4,8.2-3.2,12.4c-0.6,3.4-2.1,6-4.4,8.4c-0.8,0.9-1.1,2.4-1.5,3.6c-0.1,0.3,0.1,1.1,0.4,1.1
		c2.1,0.5,1.9,2.6,2.8,4c1.5,2.5,4.1,2.6,6.5,3c6.3,0.9,12.7,1.3,18.9,2.8c6,1.5,11.9,3.9,17.6,6.4c2.6,1.2,4.5,3.8,6.7,5.8
		c0.5,0.5,1,0.9,1.6,1.4C150,124.8,150,126.7,150,128.6z M62.6,105.6c-0.1,0.4-0.3,0.9-0.4,1.4c-0.1,0.4,0,0.9,0,1.3
		c-0.3,6.4-1.4,12.7-4.1,18.6c-1,2.2-1.7,4.4-2.3,6.7c-0.8,3.1-1.2,6.3-2,9.5c-1.4,5.6-3,11.2-4.5,16.9c1.4,0.8,2.6,1.6,3.9,2.2
		c1.9,0.8,3.9,1.3,5.9,1.9c5.3,1.6,10.6,3.5,16,4.5c9.6,1.8,18.9-0.7,27.9-3.7c3-1,5.9-2.5,6.5-6.2c0.1-0.7,0.8-1.4,1.4-2
		c1.2-1,1.5-1.7-0.2-2.5c-1.4-0.7-2.2-1.9-2.1-3.6c0.1-1.9,2.8-4.7,5.4-4.8c2.2,0,2.4-1.1,2.3-2.8c-0.2-5.8-0.5-11.7-0.6-17.5
		c0-4.3,0.2-8.7,0.5-13c0.1-1.4-0.5-1.9-1.7-2.1c-2.3-0.2-4.7-0.4-7-0.8c-2.2-0.3-4.5-0.5-6.6-1.3c-4.2-1.6-6-5.3-7.9-9.9
		c-0.6,1-1,1.7-1.5,2.3c-2.6,3.8-6.6,6-10.6,7.9c-3.8,1.8-7.7,2.2-11.7,0.3C67,108,64.9,106.8,62.6,105.6z M54.4,63.8
		c5.9-3.6,11.2-1.1,16.4,1.9c1,0.6,1.4,2.2,2.3,3.2c1.4,1.8,1.6,4.5,0.5,6.5c-1.5,2.9-3,5.8-4.4,8.6c1.1,0.6,2.1,0.9,2.8,1.5
		c1.6,1.3,2.9,1.4,4.5-0.1c0.8-0.7,1.8-1.7,3.1-0.4c0.2,0.2,1.3-0.2,1.3-0.3c0.1-1,0.1-2-0.2-2.9c-0.4-1-1.2-1.7-1.9-2.6
		c0.1-0.1,0.3-0.2,0.4-0.4c0.8,0.8,2,1.6,2.3,2.6c0.4,1.1,0.6,2.7,0.1,3.7c-0.4,0.7-2,0.9-3.1,1.2c-0.6,0.2-1.4-0.2-1.8,0.1
		c-1.9,1.6-3.6,1.3-5.4-0.3c-1-0.8-2.5-1-3.2,0.5c-0.6,1.3-1,2.7-1.5,4.3c3.6,0,6.7-0.1,9.9,0c3.1,0.1,6.1,0.3,9.5,0.5
		c-2.8,3.9-5.6,6.9-10.1,7.2c-4.3,0.3-8.1-1.1-11.2-3.9c-0.7,1.5-1.2,2.8-1.7,4.1c-0.5,1.3-1.3,2.5-0.3,4c3.3,4.6,11.5,7.1,16.5,4.9
		c5.8-2.4,10.2-6.4,14-11.1c1.6-2,3.5-4,4.5-6.4c1.6-3.9,2.6-8.1,3.9-12.2c0.8-2.7,1.7-5.5,2.4-8.2c0.2-0.7,0.5-1.5,0.4-2.3
		c-0.2-1.8-0.1-3.3,1.1-4.8c1.8-2.5,3.7-5.1,2.4-8.6c0.5,0.4,0.9,0.9,1,1.4c0.5,3.2-0.7,5.9-2.7,8.3c-1.2,1.4-1.2,2.6,0.7,4.1
		c1.1-2.2,2.6-4.3,3.1-6.6c0.7-3.1,0.8-6.4,1-9.7c0-0.5-0.4-1.4-0.8-1.5c-0.7-0.2-1.6,0-2.2,0.3c-0.6,0.4-0.9,1.2-1.2,1.9
		c-0.6,2-1.2,4.1-1.7,6.2c-0.7-0.6-1.2-1.4-1.2-2.2c0-1.8,0.5-3.6,0.3-5.3c-0.9-6.1-2.3-12-8.9-14.7c-0.6-0.2-1.1-0.7-1.6-1
		c-0.8-0.3-1.7-0.8-2.5-0.7c-4.5,0.2-8.4,1.1-11.9,4.6c-3,2.9-4.4,3.1-7.7,0.2c-4.2-3.7-7-3.2-11.9,0c-2.7,1.7-5.2,3.8-7.7,5.8
		c-0.6,0.5-1,1.2-1.4,1.8c-0.9,1.4-1.8,2.9-2.6,4.4c-1.3,2.6-3.2,4.9-3.2,8.1c0,2.2-0.5,4.5-0.8,6.7c-0.1,0.8-0.3,1.7-0.4,2.5
		c0.2,0.1,0.5,0.1,0.7,0.2c1-2.3,2.1-4.6,3.2-6.8c1.1-2.4,3.4-2.8,5.3-1C53.1,61.9,53.6,62.8,54.4,63.8z M109.7,30.2
		c-0.5-6.2-3.4-10.4-8.5-12.8c-4.4-2-9-3.6-13.5-5.3c-1-0.4-2.1-0.4-3.2-0.4c-6.5,0.4-13,0.6-19.4,1.4c-9.4,1.3-17.4,5.5-24.1,12.4
		c-2.2,2.3-2.1,5-2.4,8.5c1.1-1,1.7-1.6,2.4-2.1c3.5-2.6,6.8-6,10.7-7.7c9.3-4.1,18.6-8.8,29.5-7.5c3.8,0.4,7.5,1.1,10.8,2.9
		c5.2,2.9,10.2,6,15.2,9C107.9,29.2,108.6,29.6,109.7,30.2z M34.5,98.5c0.2,0,0.5,0,0.7,0c0.3-0.3,0.6-0.5,0.9-0.8
		c2-2.2,4-4.4,5.9-6.7c1.3-1.6,2.9-3.1,3.3-5c1.2-5.1,2.1-10.1,5-14.7c1.3-2,3.1-4.2,2.3-6.8c-0.3-1.2-1.6-2.2-2.4-3.3
		c-0.7,0.5-1.6,0.9-2,1.6c-2.1,3.5-2.9,7.6-6.2,10.5c-1.9,1.7-2.8,4.8-3.8,7.4c-1.5,4.1-2.7,8.4-3.8,12.7
		C34,95.1,34.4,96.9,34.5,98.5z M54.6,66.4c-2.8,5.7-6.9,10.9-7,17.6c0.2,0.1,0.4,0.3,0.6,0.4c4.5-4.8,9-9.7,13.4-14.4
		C59,68.7,56.8,67.5,54.6,66.4z M32.3,95c1.2-3.7,2.4-7.3,3.6-10.8c0.2-0.6,0.2-1.5-0.1-2.1c-0.9-1.8-1.8-3.7-3-5.3
		c-0.7-0.8-2.2-0.8-3.3-1.2c-0.2,1-0.5,2.1-0.5,3.1c0.1,2.3,0.7,4.6,0.6,6.9C29.2,89.1,30.8,92,32.3,95z M65.8,92.4
		c0.8,3.1,3.3,3.7,5.2,4.4c4.5,1.6,9.1,0,11.8-3.8C77.3,94.6,71.7,96.1,65.8,92.4z M63.1,63.9c0.2,2-0.2,3.4-2.2,3.2
		c-2.1-0.2-1.3-1.9-1.3-3.6c-1.3,0.4-2.4,0.8-3.7,1.3c3.3,3.6,7.6,3.7,9.8,0.4C64.9,64.9,64.1,64.4,63.1,63.9z M68.4,92.1
		c2.7,2.1,8.8,2.1,11.4,0C75.7,92.1,72,92.1,68.4,92.1z"/>
	<path class="st0" d="M81.7,66.7c0.9-1.4,1.6-2.6,2.5-3.7c1.2-1.6,5.1-2.4,7.1-1.4c1.4,0.7,2.7,1.7,4,2.7c0.4,0.3,0.6,1.1,0.6,1.6
		c-0.1,0.3-0.9,0.7-1.3,0.7C90.4,66.7,86.2,66.7,81.7,66.7z M87.4,66.1c-0.1-1.4-0.2-2.4-0.3-4c-1.2,1.3-2.1,2.2-3,3.2
		c0.1,0.2,0.2,0.4,0.3,0.6C85.4,65.8,86.3,65.9,87.4,66.1z M93.9,65.5c-0.7-1-1.4-1.9-2.1-3c-0.7,1.4-1.1,2.3-1.6,3.3
		C91.5,65.7,92.8,65.6,93.9,65.5z"/>
	<path class="st0" d="M80,60.2c1.4-0.8,2.8-1.9,4.3-2.3c3.3-0.8,6.7-1.2,10.1-1.7c0.6-0.1,1.3,0.1,1.8,0.4c0.4,0.2,0.7,0.7,1,1
		c-0.4,0.1-0.9,0.4-1.3,0.4c-1.7,0.1-3.4,0-5,0.3c-3,0.7-5.9,1.6-8.9,2.4c-0.5,0.1-1.1,0.1-1.7,0.1C80.2,60.6,80.1,60.4,80,60.2z"/>
	<path class="st0" d="M53.7,58.6c3.4-2.2,13.5-0.5,14.5,2.5C63.4,60.4,58.7,59.5,53.7,58.6z"/>
</g>
</svg>
