<?xml version="1.0" encoding="utf-8"?>
<!-- Generator: Adobe Illustrator 19.1.0, SVG Export Plug-In . SVG Version: 6.00 Build 0)  -->
<svg version="1.1" id="Layer_1" xmlns="http://www.w3.org/2000/svg" xmlns:xlink="http://www.w3.org/1999/xlink" x="0px" y="0px"
	 viewBox="0 0 150 147.9" style="enable-background:new 0 0 150 147.9;" xml:space="preserve">
<style type="text/css">
	.st0{fill:#FF5722;}
</style>
<g id="sty-girl">
	<path class="st0" d="M0,147.9c0.5-1.1,1.2-2.3,1.3-3.4c0.5-3.7,1.7-7.2,3.1-10.6c2.8-6.7,5.8-13.3,7.9-20.2c0.8-2.6,2.1-5,3.1-7.5
		c0.5-1.3,0.8-2.8,1.5-4c1.4-2.3,3-4.5,4.4-6.7c0.9-1.4,1.5-2.9,2.3-4.3c1-2,2.1-3.9,3-5.9c1.2-2.9,2.7-5.6,4.6-8.1
		c1.9-2.5,3.5-5.2,5.2-7.8c0.1-0.2,0.3-0.5,0.3-0.8c-0.2-1.8-0.5-3.7-0.6-5.5c-0.1-2.7-0.2-5.4,0.1-8c0.8-7,2.8-13.7,5.5-20.2
		c1.7-4.1,4.1-7.6,8.2-9.7c2.1-1.1,3.9-5.1,3.6-7.4c0-0.2-0.2-0.6-0.4-0.7c-1.6-0.6-1.5-2.1-1.4-3.3c0.1-1.7-0.2-3.2-0.9-4.7
		c-1-2.1,0-4.8,2-5.3c0.8-0.2,1.7,0.1,2.5,0.2C57.1,4.3,59,4.8,61,5.2c0.7,0.1,1.5-0.1,2.3-0.2c2.6-0.4,2.6-0.4,4.3,1.5
		c0.3-0.4,0.6-0.8,0.9-1.1c1.5,1.1,2.9,2.2,4.6,3.5C73,7.5,73,6.5,72.9,5.5c-0.1-2.5,1.3-4.1,3.1-5.4c0.5-0.3,1.7,0,2.3,0.4
		c2.4,1.4,4.7,3.1,7.2,4.5c0.7,0.4,1.8,0.3,2.7,0.5c1.1,0.2,2.2,0.2,3.2,0.7c2,1,2.3,2.9,0.7,4.6c-0.4,0.4-0.7,0.7-0.9,0.9
		c0.4,1,0.7,1.9,1,2.8c2,0.8,4.1,1.7,6.2,2.6c0.6,0.3,1.3,0.5,1.9,0.7c0.9,0.3,1.5,0.6,1.8,1.8c0.3,1.2,1.3,2.2,2,3.2
		c1.2,1.8,2.6,3.4,3.8,5.2c3.1,4.6,6.3,9.2,7.8,14.7c0.8,2.9,2,5.7,2.5,8.6c1,5.7,1.7,11.4-0.6,17.1c-0.8,1.9-0.5,4.2-1.1,6.2
		c-0.5,1.9-1.4,3.7-2.2,5.5c-0.6,1.4-1.3,2.9-2.1,4.2c-0.3,0.5-1.1,1-1.7,1.1c-2.1,0.2-2.2,0.3-2.6,2.3c-0.6,2.9-1.3,5.8-1.9,8.7
		c-0.6,3.2-2.6,5.6-4.5,8.1c-0.7,0.8-0.8,1.6-0.4,2.6c1.2,2.9,3.4,5.1,5.9,7c1.7,1.3,3.2,2.7,4.8,4c1.1,1,2.3,1.7,3.9,1.8
		c1.5,0.1,3,0.6,4.6,0.8c2.9,0.3,5.8,0.8,8.7,0.8c6.5,0.1,10.9,3.2,13.7,8.8c1.2,2.3,2.6,4.5,3.6,6.8c1.3,3.3,2.3,6.7,3.5,10
		c0.1,0.3,0.2,0.6,0.3,0.9c-0.5,0-0.9,0-1.4,0c-0.8-2.8-1.3-5.7-2.5-8.4c-1.4-3.3-3.2-6.5-5-9.6c-2-3.5-4.5-6.5-8.9-7
		c-2.1-0.3-4.1-0.6-6.5-0.9c0.3,0.6,0.3,0.8,0.4,0.9c2.6,2.2,5.2,4.4,7.7,6.7c0.7,0.6,1.4,1.4,1.7,2.3c0.5,1.5,0.8,3.1,0.9,4.7
		c0.2,3.8,0.2,7.5,0.3,11.3c-0.5,0-0.9,0-1.4,0c0.1-0.7,0.3-1.5,0.3-2.2c-0.1-3.3-0.1-6.7-0.3-10c-0.2-1.9-0.3-4-2-5.4
		c-1.4-1.1-2.7-2.3-4-3.4c-1.6-1.4-3.2-2.8-4.8-4.1c-0.6,0.7-1.2,1.4-1.7,2c-0.1-0.1-0.3-0.2-0.4-0.3c0.4-0.7,0.8-1.4,1.3-2.3
		c-2-0.3-3.9-0.9-5.8-0.8c-3.5,0.3-7.1,0.9-10.6,1.5c-1.4,0.2-1.8,1.3-1.3,2.6c0.5,1.2,1.5,1.6,3.4,1.4c4-0.5,8.1-0.8,12,0.7
		c1.7,0.6,3.3,1.3,4.9,2.1c0.2,0.1,0.2,0.7,0.3,1c-0.3,0-0.7,0-1-0.1c-1.1-0.5-2.1-1.3-3.2-1.7c-2.4-0.9-2.4-0.8-3.8,1.2
		c0,0.1-0.1,0.1-0.4,0.2c-1.1-1.1,0.7-1.5,0.5-2.5c-0.4-0.1-0.8-0.3-1.2-0.4c-4.5-0.4-8.8,0.3-12.9,1.9c-0.6,0.2-1.2,0.3-1.6,0.7
		c-0.6,0.6-1.1,1.3-1.3,2.1c-0.1,0.4,0.7,1.2,1.2,1.4c0.6,0.3,1.5,0.3,2.2,0.2c2.4-0.1,4.8-0.4,7.2-0.4c2.1,0.1,4.3,0.3,6.3,0.9
		c1.8,0.5,3.5,1.6,5.2,2.5c0.2,0.1,0.3,0.5,0.4,0.8c-0.4,0-0.8,0.2-1.1,0.1c-1-0.5-1.9-1.2-3-1.8c-0.8-0.4-1.6-0.6-2.5-1
		c-0.2,2.3-0.3,2.5-1.4,2.6c0-0.1-0.1-0.2-0.1-0.2c0-0.1,0.1-0.3,0.1-0.4c0.7-1.5,0.6-2-0.9-2c-3.9-0.1-7.9-0.1-11.8,0.1
		c-0.8,0-1.7,0.7-2.3,1.3c-0.4,0.5-0.5,1.3-0.7,2c0.6,0.2,1.2,0.5,1.8,0.5c1.7,0.1,3.5,0,5.1,0.3c4.6,1,9,2.4,13.2,4.6
		c0.6,0.3,1.2,0.5,1.8,0.8c-0.1,0.2-0.2,0.4-0.2,0.6c-2,0.2-3.4-1.8-5.2-2.1c-0.4,0.8-0.8,1.5-1.2,2.3c-0.1-0.1-0.3-0.1-0.4-0.2
		c0.3-0.8,0.6-1.6,0.9-2.6c-2.7-0.8-5.3-1.6-7.8-2.4c-1.5-0.5-3-0.9-4.5,0c-1.2,0.7-1.4,1.9-0.4,2.8c0.3,0.3,0.7,0.4,1.1,0.6
		c2.5,1.2,5,2.3,6.9,4.5c-0.5,0-0.9,0-1.4,0c-1.9-1.2-3.7-2.5-5.7-3.5c-1.4-0.8-2.5-1.6-2.5-3.5c-0.3,0.2-0.6,0.3-0.8,0.5
		c-2,2.9-5,4.4-8.3,5.4c-0.8,0.3-1.6,0.7-2.4,1.1c-0.5,0-0.9,0-1.4,0c1-0.6,1.9-1.3,2.9-1.7c3.2-1.2,6.5-2.4,8.6-5.5
		c0.3-0.4,0.8-0.6,1.2-0.8c0.2-0.1,0.4,0,0.7,0c0-0.1,0-0.3,0-0.4c-1.3-0.1-2.7-0.2-3.2-1.8c-0.3,0.2-0.6,0.3-0.8,0.5
		c-2.4,2.6-5.5,4.3-8.7,5.8c-1.2,0.6-2.6,0.8-4,0.9c-3.2,0.1-6.3-0.7-9.2-1.8c-3.1-1.2-6.5-2.1-8.7-4.8c-2.3-2.8-4.5-5.7-6.5-8.7
		c-2.1-3.1-3.7-6.6-4.2-10.4c-0.1-1-0.6-2-0.9-3c-2.5,1.8-2.8,2.9-1.7,5.3c0.2,0.4,0.3,0.8,0.4,1.2c1.4,4.5,3.2,8.9,5.6,12.9
		c0.4,0.7,1,1.3,1.7,1.8c2.1,1.7,4.3,3.3,6.3,5.2c3.2,3.2,7.1,4.6,11.5,4.7c0.6,0,1.2,0.3,1.7,0.5c-2,0-3.9,0-5.9,0
		c-0.2-0.1-0.3-0.2-0.5-0.3c-1.8-0.8-3.8-1.3-5.3-2.4c-3.1-2.3-5.9-4.9-8.8-7.3c-0.4-0.3-0.8-0.6-1-1c-1.7-3.5-3.4-7.1-5.1-10.7
		c-0.8-1.8-1.4-3.6-2.1-5.4c-1.9,0.8-3.4,0.8-5.1-0.2c-3.2-1.8-6.6-2.8-10.3-2.3c-2.3,0.3-3.5,0.9-3.7,2.4
		c-0.6,3.8-1.4,7.5-1.7,11.3c-0.4,5.3-0.4,10.6-0.6,15.9c-0.6,0-1.1,0-1.7,0c0.1-0.7,0.2-1.5,0.3-2.2c0.4-5.4,0.7-10.8,1.2-16.2
		c0.3-2.9,0.7-5.9,1.3-8.8c0.8-3.5,1.9-7,2.9-10.5c0.3-1.1,0.2-1.9-0.5-2.8c-2.1-2.7-4.3-5.2-7.7-6.6c0.4-0.2,0.8-0.4,1-0.2
		c1.6,1,3.3,1.9,4.8,3.1c1.1,0.9,2,2.2,3.2,3.5c0.8-2,0.8-3.8,0.4-5.4c-1.1-4-0.7-8.1-0.3-12.1c0.1-0.6,0.5-1.1,0.8-1.6
		c0.1,2.4-0.3,4.8-0.2,7.1c0.1,3.7,0.5,7.3,0.8,11c0,0.1,0.7,0.3,0.9,0.1c0.7-0.5,1.3-1.2,1.9-1.7c2.2-1.8,4.4-3.9,7.3-4.6
		c3-0.7,4.3-3,5.4-5.4c0.6-1.2,1.4-2.4,1.9-3.6c0.7-1.5,1.5-3.1,1.9-4.7c0.4-1.9,0.2-4,0.4-6c0.2-1.6-0.4-2.3-1.9-2
		c-2.2,0.4-4,1.3-4.7,3.6c-0.4,1.4-0.7,2.8-1,4.3c-0.2,1.5,0.1,2.9,0.8,4.3c0.6,1.2,0.9,2.4,0.3,3.7c-0.9-2.3-1.7-4.6-2.2-7
		c-0.2-0.9-0.6-1.2-1.3-1c-1.1,0.3-2.1,0.8-3.1,1.4c-0.6,0.3-1,0.9-1.7,1.6c0-0.6,0-0.9,0.1-1.1c1-1.6,2.6-2.7,4.4-2.7
		c1.8,0,2-0.9,2.4-2.2c1-4.1,2.2-5.3,6.6-5.7c0.4,0,0.9-0.3,1.6-0.5c-0.5-0.3-0.7-0.6-0.9-0.5c-1.1,0.1-1.9-0.4-2.7-1.1
		c-0.9-0.7-1.9-1-3-0.4c-1.1,0.6-2.2,1.3-3.3,1.9c-1.2,0.7-2.1,0.3-2.6-1c1.9,0.5,1.9,0.5,3.8-1.1c1.4-1.2,4.3-1.5,5.6-0.3
		c0.9,0.9,1.9,1,3,1c1.3-0.1,1.9-1.2,1.3-2.3c-1.7-3-5.3-4.9-8.9-4.6c0.1,0.3,0.3,0.6,0.4,0.9c0.2,1.9,0.5,3.4-2.3,3.2
		c-1.2-0.1-2.3-0.6-3.5-0.8c-0.4-0.1-0.9-0.1-1.1,0.1c-0.8,0.9-1.6,1.8-2.3,2.7c0.1,1,1.7,1.6,1.1,3.3c-1.1-1.4-1.6-3-3.4-3.2
		c-0.1,0-0.4-0.4-0.3-0.5c0.1-0.2,0.4-0.5,0.6-0.5c1.9,0.2,2.7-1.2,3.5-2.5c0.6-0.9,1.1-1,2.1-0.7c1.4,0.5,3,0.8,4.3,1.1
		c1.3-2.2-0.4-3.5-2.2-4.1c-3.7-1.3-9,0.5-11.2,3.7c-1.1,1.7-2.1,3.5-3.1,5.2c-1.4,2.2-3,4.2-4.2,6.5c-1.7,3.4-3.2,7-4.8,10.5
		c-0.2,0.3-0.4,0.6-0.6,0.9c-1.4,2.2-2.7,4.4-4.1,6.6c-0.2,0.3-0.4,0.5-0.5,0.8c-0.5,0.7-1,1.3-1.3,2c-0.3,0.6-0.4,1.3-0.7,1.9
		c-1.3,3.3-2.7,6.5-3.9,9.8c-1,2.5-1.8,5-2.8,7.5c-1.7,4.2-3.4,8.3-5.2,12.4c-1.7,3.9-2,8.2-3.1,12.2C1.1,147.9,0.6,147.9,0,147.9z
		 M113.2,64.8c-0.4,0.6-0.8,1.2-1.1,1.8c-0.6,0.9-1,2-1.7,2.9c-0.6,0.9-1.2,0.8-1.5-0.3c-0.2-0.7-0.3-1.6-0.3-2.3
		c0.2-6.2-1.5-11.9-4-17.4c-1.5-3.3-3.9-4.3-7.3-3.2c-3.9,1.2-7.3,0.3-10.4-2.1c-1.6-1.3-3.3-1.4-4.8-0.6c-2.4,1.4-5.1,1.1-7.6,1.2
		c-3.3,0.2-6.6-0.6-9.6-2.1c-1.2-0.5-2.4-1-3.7-1.2c-3.6-0.5-6.9,0.5-10,2.3c-0.6,0.4-1.3,1.1-1.5,1.8c-0.8,3.6-1.4,7.3-2,10.9
		c-0.5,2.9-0.8,5.8-1.1,8.7c-0.1,0.5,0.1,1.3,0.4,1.5c0.5,0.4,1.3,0.6,1.9,0.7c3,0.5,6,0.7,8.7,2.4c0.1,0.1,0.3,0.1,0.4,0.1
		c2.3,0,4.6,0,6.9,0.1c1.7,0.1,3.4,0.2,3.8,2.4c0,0.2,0.4,0.6,0.7,0.6c1.8,0,2.1,1.4,2.5,2.6c0.4,1.2-0.6,2-1.5,2.6
		c-3.1,2.1-6.2,4.1-9.4,6c-1.5,0.9-2.8,1.6-2.9,3.6c0,0.7-0.6,1.4-0.9,2.1c-1,2-1.8,4.1-3,5.8c-1,1.4-0.5,2.4-0.1,3.7
		c0.8,2.4,2.1,4.4,4.2,5.9c3.3,2.3,6.7,4.5,10.1,6.6c2.4,1.6,5,2.9,8,3.2c4,0.5,7.8-0.5,11.4-2.1c5.9-2.6,10.9-6.4,14.9-11.6
		c1.7-2.2,2.4-4.7,2.9-7.3c0.7-3.1,1.3-6.2,1.7-9.4c0.3-2.6,0.4-5.3,0.6-8c0.1-0.8,0.5-1.6,0.7-2.4c0.2,0,0.4,0.1,0.6,0.1
		c-0.1,1.2-0.2,2.4-0.3,3.6c1.5,0.5,2.3,0,2.7-1.3c0.2-0.8,0.7-1.6,0.7-2.4c0-1.2,0.6-2.6-0.8-3.5c-0.1,0,0.2-0.9,0.5-1.1
		c0.8-0.4,1.6,0.3,1.6,1.3c0.1,1.1,0.1,2.2,0,3.3c-0.3,3.2-1.5,4.7-4.4,5.3c-0.1,0.8,0,1.7-0.2,2.5c-0.1,0.8-0.4,1.6,0.5,1.9
		c0.9,0.3,1.7,0,2.2-1c0.9-1.8,1.9-3.6,2.7-5.4c0.5-1.3,0.6-2.7,0.8-4.1C115.7,70.7,115.7,67.7,113.2,64.8z M106.9,127.7
		c-0.3-0.2-0.6-0.4-0.9-0.6c-1.1-0.9-1.6-3.2-0.6-4c1.4-1.1,1.3-2.4,1-3.8c-0.5-2.3-0.7-4.7-2.6-6.4c-1.6-1.5-2.7-3.3-3.6-5.2
		c-0.2-0.3-0.4-0.6-0.7-1c-1.3,1.1-2.4,2.1-3.7,3c-3.8,2.7-7.6,5.4-12.4,6.1c-2.9,0.4-5.7,1-8.6,0.1c-4.5-1.4-8.7-3.4-12.2-6.6
		c-0.6-0.5-1.1-0.7-1.5,0c-1.2,1.9-2.4,3.9-3.6,5.8c-0.1,0.1-0.1,0.4,0,0.5c0.7,2.7,1.2,5.6,2.2,8.2c1.8,4.8,4.8,8.8,8.1,12.6
		c1.7,2.1,3.8,3.8,6.5,4.6c2.3,0.7,4.6,1.7,6.9,2.2c2.5,0.6,5.1,1.2,7.6,0.1c4-1.8,7.7-4.2,10.7-7.5c0.7-0.8,1.6-1.7,1.3-3
		c-0.4-1.9,0.2-2.9,2-3.7C104.1,128.7,105.5,128.3,106.9,127.7z M60.3,108.1c-0.3-0.3-0.6-0.7-1-0.9c-2.9-1.6-4.9-3.9-5.9-7.1
		c-0.3-0.9-0.8-1-1.5-0.4c-0.6,0.4-1.3,0.9-2,1.1c-3.8,1.1-6.8,3.4-9.7,6c-1.4,1.3-2.5,3.1-3.4,4.9c-0.7,1.4-1,3.1-1.4,4.7
		c-0.1,0.4,0,0.9,0,1.3c1.3-0.2,2.4-0.3,3.5-0.4c3.8-0.4,7.1,1.1,10.4,2.8c1.1,0.5,2.6,0.4,3-0.3c0.8-1.1,1.6-2.3,2.4-3.3
		c0.8-1,1.9-1.9,2.7-3C58.4,111.7,59.2,109.9,60.3,108.1z M75.7,15.7c1.7,0.8,3.7,1.8,5.6,2.6c2.7,1.2,5.5,2.3,8.3,3.4
		c0.2,0.1,0.7-0.3,0.7-0.6c0.2-2.2,0.3-4.3,0.4-6.5c0-0.5,0-1.2-0.2-1.4c-1.5-0.9-3-2-4.6-2.4c-3-0.7-6-0.3-8.6,1.7
		c-0.3,0.2-0.5,0.5-0.7,0.8C76.2,14.1,76,14.9,75.7,15.7z M56.6,26.4c3.6-2.8,7.2-5.6,10.8-8.5c-1-0.7-2.1-1.6-3.3-2.2
		c-0.7-0.3-1.7-0.4-2.5-0.2c-2,0.5-3.9,1.2-5.8,1.7c-1.2,0.3-1.5,1-1.6,2.1C53.9,22,54.8,24.3,56.6,26.4z M68.7,6.8
		C67.9,8,67,9.2,66.3,10.6c-0.6,1.2-1.4,2.6-1.3,3.8c0,0.6,1.8,1.2,2.7,1.8c0.3,0.2,0.6,0.3,0.9,0.5c0.2,0.1,0.5,0.2,0.6,0.2
		c2-0.9,4-1.9,6-2.9C73.5,11.1,72,8.2,68.7,6.8z M58.5,84.3c0.3-0.1,0.5-0.1,0.7-0.2c2.2-1.3,4.4-2.6,6.6-4c1.5-1,3-2,4.4-3
		c0.9-0.6,1-1.4,0.4-2.3c-0.6-0.9-1.4-0.9-2.3-0.5c-2,0.8-4,1.6-6,2.3c-1.3,0.5-2.7,0.7-4.1,1.1C59.9,79.8,58.3,82.1,58.5,84.3z
		 M59.9,6c-0.3-0.2-0.4-0.4-0.6-0.4c-1.7-0.3-3.4-0.7-5.2-0.9c-2.3-0.3-3.8,1.5-2.8,3.5c1,2.1,1.3,4.3,1.2,6.6c0,0.9,1,1.7,2.1,1.4
		c0.8-0.2,1.4-0.7,1-1.8c-0.4-1.3-0.4-2.5,0.3-3.7c0.9-1.5,1.7-3.1,3.3-4C59.5,6.5,59.6,6.3,59.9,6z M57.3,15.8
		c1.7-0.6,3.5-1.1,5.2-1.7c0.2-0.1,0.3-0.3,0.4-0.5c1-2.3,0-5.7-2.1-7C57.9,9,54.9,11.3,57.3,15.8z M87.9,6.3
		c-1.7-0.2-3.3-0.3-4.9-0.5c-3.3-0.3-5.4,1.9-7.7,3.6c-0.7,0.5-0.9,1.1-0.3,1.9c0.6,0.9,1.3,0.8,2,0.2c1.9-1.4,4.1-2,6.5-1.9
		c0.4,0,0.9-0.1,1.2-0.4C85.8,8.4,86.7,7.4,87.9,6.3z M83.6,5c0-0.2,0-0.3,0-0.5c-2.1-1.2-4.1-2.5-6.2-3.6c-0.3-0.2-1,0-1.3,0.3
		c-2.5,2.1-2.9,4.7-1.8,7.8C77.2,7.1,79.6,4.2,83.6,5z M58.5,70.4c1.1,2.1,3.4,3.4,1,6c2.6-0.7,4.7-1.3,6.7-1.9
		c0.4-0.1,0.8-0.5,1.1-0.8c0.9-1,0.6-2.2-0.7-2.4C64,70.8,61.4,70.6,58.5,70.4z M85.6,9.5c1.2,0.5,2,0.9,2.8,1.2
		c1.4,0.5,2.9,0.1,3.5-1.3c0.3-0.5,0.3-1.5,0-1.8c-0.6-0.5-1.7-1.2-2.3-0.9C88.2,7.4,87.1,8.5,85.6,9.5z M107.4,115.6
		c-0.1,0.1-0.2,0.2-0.4,0.3c0.2,1.2,0.5,2.4,0.7,3.6c0.1,0.7,0,1.7,0.4,2.1c0.4,0.3,1.3-0.1,2.1-0.2c1.1-0.2,1.9-1.3,1.2-2.1
		C110.2,117.9,108.7,116.8,107.4,115.6z M64.3,11.5c0.9-1.2,1.6-2.3,2.3-3.3c0.2-0.3,0.1-0.9,0-1.3C66,5.5,63.8,5.2,62,6.2
		C63.8,7.4,64.2,9.3,64.3,11.5z"/>
	<path class="st0" d="M39.4,147.9c1-3.5,1.1-7,0.6-10.5c-0.2-1.4-0.3-2.7-0.4-4.1c0.9-0.5,1.3,0,1.4,0.7c0.6,3.9,0.7,7.9,0.1,11.8
		c-0.1,0.7,0,1.4,0,2.1C40.5,147.9,39.9,147.9,39.4,147.9z"/>
	<path class="st0" d="M47.4,84.4c-4-1.2-7.6-2.3-11.1-3.3C38,80.2,45.7,82.1,47.4,84.4z"/>
	<path class="st0" d="M99.1,66.4c-6.3-0.1-12.3,0.7-17.9,3.6c-0.6-0.8-0.8-1.5,0.2-2.1c3-1.8,6.2-3.3,9.7-3.5c2.3-0.2,4.6-0.2,6.9,0
		C99.2,64.5,99.4,65.2,99.1,66.4z"/>
	<path class="st0" d="M68.3,101.7c2.7-0.9,5-2.8,7.8-2.5c1.3,0.1,2.5,0.3,3.8-0.1c0.8-0.2,1.8,0.1,2.7,0.2c1.9,0.3,3.8,0.5,5.7,0.9
		c0.2,0,0.5,1.3,0.3,1.5c-2,1.7-3.7,3.7-6.4,4.7c-3.6,1.3-8.5,0.3-11-2.6C70.6,103,69.5,102.5,68.3,101.7z M70.5,101.9
		c2.3,3.8,5.9,4.9,9.8,4.4c3-0.4,5.6-1.9,7.1-5c-2.8,0.3-5.6,1.2-8.4,1.3C76.2,102.7,73.3,102.1,70.5,101.9z M85.1,100.5
		c0-0.1,0-0.1,0-0.2c-0.9-0.1-1.9-0.1-2.8-0.3c-1.2-0.2-2.2-0.6-3.5,0c-0.6,0.3-1.5,0.2-2.2,0c-1.7-0.5-3.5-0.1-4.8,1.2
		c2.2,0.3,4.5,0.9,6.7,0.8C80.8,101.9,82.9,101,85.1,100.5z"/>
	<path class="st0" d="M82.2,75.1c2-2.6,3.6-4.9,7.1-4.9c2.8,0,5.1,1.1,7.3,2.3c0.8,0.4,0.8,1,0,1.5c-3.6,2.5-7.6,2.4-11.7,1.7
		C84.1,75.6,83.3,75.4,82.2,75.1z M96,73.1c-1.4-0.7-2.8-1.5-4.1-2.2c0.3,1.4,0.3,2.7-0.7,3.4c-0.6,0.4-1.8,0.5-2.4,0.2
		c-1.4-0.7-1.2-2-0.8-3.3c-2.2,0.1-3.4,1.3-4.4,3.5C87,76.1,93.9,76,96,73.1z"/>
	<path class="st0" d="M82.4,84.8c0.8,1.5,1.8,3,2.4,4.6c0.6,1.7-0.8,3.2-2.9,3.3c-1.4,0-2.7,0.1-4.1,0c-0.8,0-1.6-0.3-2.4-0.4
		c-0.4,0-0.8,0-1.1,0.1c-1.7,0.6-3.3-0.4-3.3-2.2c0-1.3,0-2.6,1.2-3.8c-0.2,1.4-0.5,2.6-0.5,3.8c0,0.5,0.5,1.2,1,1.5
		c0.2,0.2,0.8-0.3,1.3-0.4c0.5-0.1,1.2-0.2,1.6,0.1c1.4,1,2.6,1,4-0.1c0.7-0.5,1.6-1.4,2.2,0.2c0.1,0.2,0.8,0.3,1.1,0.2
		c0.5-0.3,1.2-0.7,1.3-1.2c0.1-0.6-0.1-1.3-0.4-2c-0.4-0.9-1-1.8-1.4-2.7c-0.1-0.3-0.1-0.6-0.1-1C82.2,84.8,82.3,84.8,82.4,84.8z"/>
</g>
</svg>
