<?xml version="1.0" encoding="utf-8"?>
<!-- Generator: Adobe Illustrator 19.2.1, SVG Export Plug-In . SVG Version: 6.00 Build 0)  -->
<svg version="1.1" id="Layer_1" xmlns="http://www.w3.org/2000/svg" xmlns:xlink="http://www.w3.org/1999/xlink" x="0px" y="0px"
	 viewBox="0 0 182.3 300.9" style="enable-background:new 0 0 182.3 300.9;" xml:space="preserve">
<style type="text/css">
	.st0{fill:#2196F3;}
</style>
<g id="hemorrhoids-man2">
	<path class="st0" d="M153.5,300.9c-0.2-2-0.4-4-0.7-6c-0.4-3.2-0.9-6.4-1.3-9.6c-0.3-2.2-0.4-4.4-0.8-6.6c-0.6-3-1.3-6-2-9
		c-0.6-2.6-1.1-5.2-1.7-7.8c-0.3-1.4-0.8-2.7-1.2-3.9c-0.9,0.1-1.8,0.2-2.6,0.3c-2.1,0.2-4.2,0.4-5.9,2.1c-0.6,0.6-1.9,0.6-2.9,0.8
		c-0.2,0-0.6-0.3-0.6-0.5c0-0.3,0.1-0.8,0.4-0.9c1.5-0.9,3.1-1.8,4.7-2.7c1.4-0.8,3-0.7,4.6-0.7c1.5,0,1.7-0.3,1.3-1.7
		c-0.2-0.8-0.3-1.6-0.5-2.5c-1.7,0.1-3.3,0.3-5,0.4c-4.4,0.3-8.8,0.6-12.9-1.4c-3.1-1.5-6.4-2.5-9.1-4.9c-1.8-1.6-2.8-3.5-3.2-5.8
		c-0.3-2-1.5-3.3-3.1-3.9c0.2,4.2,0.3,8.5,0.6,12.8c0.2,3.2,1,6.4,2.2,9.4c1.9,4.9,3.9,9.8,5.9,14.6c1.1,2.7,1,5.6,1.3,8.4
		c0.7,6.3-0.7,12.4-2,18.5c0,0.2,0,0.4,0,0.6c-0.7,0-1.4,0-2.1,0c0.5-2.8,0.9-5.6,1.5-8.4c0.7-3.4,0.8-6.9,0.4-10.4
		c-0.2-1.9-0.1-3.8-0.5-5.6c-0.4-1.8-1.2-3.5-1.8-5.2c-2.1-5.5-4.2-11-6.1-16.6c-0.7-1.9-0.7-4.1-0.8-6.2c-0.2-4.5-0.2-9-1-13.4
		c0-0.2-0.1-0.3-0.5-0.5c-0.6,3.3-1.2,6.6-1.8,9.9c-0.6,3.2-1.1,6.4-1.7,9.6c-0.4,2.4-0.7,4.8-1.1,7.1c-0.4,2.2-0.9,4.5-2.9,6
		c-1,0.7-2,1.3-3,1.7c-1.8,0.7-3.6,1.4-5.5,1.9c-1.3,0.4-2.8,0.7-4.1,0.7c-4.1,0-8.1-0.1-12.2-0.2c-2.2,0-4.5-0.1-6.7,0
		c-0.3,0-0.8,0.5-0.8,0.8c-0.4,2.1-1,4.2-1.1,6.3c-0.3,4.1,0.6,8.1,1.4,12.1c0.6,2.6,1.4,5.1,2.2,7.6c0.3,0.9,0.9,1.8,1.4,2.7
		c-0.8,0-1.5,0-2.3,0c-1-2.7-2.1-5.4-3-8.2c-0.5-1.5-0.6-3.1-1-4.6c-0.8-2.9-0.9-5.9-0.8-8.9c0-1.1-0.4-1.6-1.4-1.7
		c-2-0.2-4-0.4-6-0.6c-1.3-0.2-2.6-0.4-3.8-0.7c-0.4-0.1-0.6-0.5-0.8-1c4.1-0.2,8.2-1.3,12.1,0.8c0.5-1.6,0.9-2.9,1.3-4.4
		c-1.3-0.1-2.6,0.1-3.8-0.3c-5.2-1.5-10.6-1.1-15.9-1.5c-1.4-0.1-2.7-0.6-4-0.7c-2.2-0.3-4.4-0.3-6.6-0.7c-3.1-0.5-6.2-1.3-9.4-2
		c0.3,1.5,0.6,3,1,4.5c1.2,5,2.4,10,3.5,15c0.7,3.4,1.3,6.9,2,10.3c0.3,1.5,0.4,3.1,0.6,4.7c-0.7,0-1.4,0-2.1,0
		c-0.3-2.3-0.5-4.6-1-6.9c-0.8-4.3-1.6-8.6-2.5-12.8c-0.9-3.9-1.9-7.7-2.9-11.5c-0.2-0.9-0.5-1.9-0.5-2.8c0-1.2-0.7-1.9-1.6-2.4
		c-1.2-0.6-1.5-1.7-1.5-2.9c0-3.3-0.2-6.5,0-9.8c0.3-4.8,0.9-9.7,1.3-14.5c0.2-2.2,0.3-4.4,0.5-6.5c0.3-3.3,0.5-6.6,0.8-9.8
		c0.2-2.4,0.4-4.9,0.6-7.3c0.3-2.6,0.7-5.2,0.9-7.8c0.2-3.4,0.7-6.9,0.2-10.2c-0.7-4.3,0.4-8.2,1.5-12.2c1.8-6.3,3.4-12.7,5.1-19
		c0.8-2.9,1.7-5.8,2.3-8.8c0.3-1.5,0.3-3.2,0.4-4.8c0-0.3,0-0.7-0.2-0.8c-1.4-0.9-1.1-2.2-0.6-3.3c0.4-1,0.3-2,0.6-3
		c0.5-2,1.1-4.1,1.6-6.1c0.8-3.2,1.4-6.4,2.4-9.5c1.1-3.4,2.8-6.6,5.3-9.3c0.6-0.7,1.2-1.4,1.9-1.9c0.7-0.5,1.6-0.9,2.3-1.2
		c-1.1-2.9-2.2-5.8-3.2-8.7c-1.7-5.1-2.6-10.4-3.5-15.6c-0.8-5.1-2.2-10-4.2-14.8c-1.5-3.8-2.6-7.7-4.1-11.4
		c-1.8-4.5-3.2-9.2-6.1-13.1c-1-1.4-2.4-2.6-3.9-3.5c-3.4-2.3-5.8-5.4-7.7-8.9c-2.6-4.7-5.2-9.4-7.8-14.1C5.4,21.1,3,16.7,1.6,11.8
		C0.5,8.2-0.1,4.4,0,0.6C0,0.4,0.2,0.2,0.2,0c1,0,2,0,3,0C5.1,1.5,7,3,8.9,4.5c4.4,3.4,9,6.6,13.3,10.1c2,1.6,3.5,3.8,5.2,5.8
		c2.7,3.2,5.5,6.3,7.9,9.7c1.6,2.3,2.8,5,3.8,7.6c1.9,5,4.6,9.5,7.5,14c2.3,3.6,4.4,7.2,6.6,10.9c4.6,7.9,11.3,13.9,17.5,20.4
		c3.3,3.4,6.3,7.2,9.6,10.7c2.8,3.1,4.8,6.7,6.6,10.4c1,2,2.2,4,3.6,5.8c2.6,3.4,4.4,7.2,5.5,11.4c0.6,2,1.6,4,1.8,6
		c0.4,3.4,0.4,6.9,0.4,10.3c0,3.1-0.2,6.2-0.3,9.3c0,0.7,0.3,1.5,0.5,2.2c0.7,2.6,1.5,5.1,2.1,7.7c0.2,1,0,2.1,0,3.3
		c2.1-0.2,4-0.6,5.7,1.1c0.1-0.6,0.3-1,0.3-1.4c0.2-2.7-0.2-5.3-1-7.8c-0.2-0.8-0.5-1.6-0.4-2.4c0.4-1.9-0.9-2.7-2-3.8
		c-0.9-0.8-1.7-1.8-2.4-2.8c-0.2-0.3,0.1-0.9,0.1-1.3c0.4,0.1,1,0.1,1.2,0.4c2.8,2.7,5.3,5.6,8.8,7.6c3.1,1.8,6,3.9,8.9,6
		c1.1,0.8,1.9,2,2.8,3c1.3,1.5,2.5,3,4,4.3c0.6,0.6,1.7,0.8,2.6,1c0.2,0,0.7-0.5,0.7-0.7c-0.1-3.2-1.1-6.1-3-8.7
		c-2-2.6-3.8-5.3-5.6-8c-0.2-0.3,0-1,0-1.4c0.5,0.1,1.1,0,1.4,0.3c1.7,1.5,3.4,3,5.1,4.6c2.1,1.9,3.2,4.3,3.6,7.1
		c0.2,1.8,0.9,2.3,2.7,1.8c0.7-0.2,1.3-0.4,1.9-0.8c0.3-0.2,0.7-0.7,0.6-1c-0.4-2.7,0.5-5.5-1.8-7.9c-1.3-1.4-2.1-3.4-3.1-5.1
		c-0.1-0.2-0.3-0.5-0.2-0.7c0.1-0.4,0.2-0.9,0.5-1c0.3-0.1,0.8,0.2,1,0.4c1.1,1.7,2.1,3.5,3.2,5.3c0.7,1.2,1.5,2.4,2.3,3.7
		c0.8-0.9,1.5-1.5,2.1-2.3c0.2-0.3,0.2-0.8,0.1-1.2c-0.7-2.3-1.9-4.2-3.3-6.2c-1.2-1.7-2-3.7-3-5.5c-0.1-0.2-0.2-0.5-0.1-0.7
		c0.1-0.4,0.4-0.7,0.6-1c0.3,0.2,0.8,0.3,1,0.6c1.9,3.2,3.8,6.4,5.7,9.7c0.3-0.2,0.3-0.2,0.3-0.3c2.1-3.4,2.1-3.4-0.1-6.8
		c-1.6-2.5-3.1-5-4.6-7.6c-1.7-3-4-5.3-6.6-7.4c-3.6-2.9-7-5.8-10.5-8.8c-2.3-2-4.7-3.9-6.9-6.1c-2.5-2.5-4.5-5.4-6.3-8.4
		c-1.6-2.6-3.5-5-5.2-7.6C97.3,86,93.7,79,91.6,71.2c-0.6-2.4-1.1-4.8-2-7c-1.5-3.8-3.1-7.5-5-11.1c-2.4-4.7-5.2-9.1-7.7-13.7
		c-1.6-2.9-2.9-6-4.7-8.8c-4.9-7.5-10-14.9-14.9-22.4c-1.2-1.8-2.2-3.8-3.2-5.7c-0.5-0.8-0.9-1.7-1.4-2.5c0.9,0,1.8,0,2.8,0
		c1.7,2.9,3.2,5.8,5,8.6c3.9,6.1,7.9,12.1,12,18c2.7,3.9,4.8,8.1,6.9,12.3c3.1,6,6.4,12,9.6,18c2.2,4.2,3.7,8.7,4.8,13.4
		c1.2,5.4,3.6,10.3,6.3,15.1c2.2-0.8,4.5-1,6.8-1c9.8,0,19.5-0.1,29.3-0.1c4.3,0,8.7-0.2,13-0.3c0.3,0,0.5-0.1,0.9-0.1
		c-0.6-1.1-1-2.2-1.6-3.2c-1.5-2.5-3.1-4.9-4.5-7.5c-1.9-3.4-3.6-7-5.6-10.3c-1.4-2.4-3.2-4.5-4.8-6.7c-1.2-1.7-2.5-3.4-3.7-5.2
		c-1.8-2.7-2.3-5.9-2.7-9.1c-0.5-3.4-1-6.8-1.5-10.3c-0.6-4.2-1.2-8.5-1.9-12.7c-0.4-2.7-0.9-5.4-1.5-8c-0.7-3.3-0.3-6.5-0.2-9.8
		c0-0.4,0-0.8,0-1.1c0.8,0,1.7,0,2.5,0c-0.6,5.6,0.1,11,1.4,16.4c0.8,3.4,1.1,7,1.6,10.4c0.6,4,1.1,8,1.8,11.9
		c0.5,2.9,2.4,5.3,4.4,7.3c3.7,3.9,5.7,8.4,6.7,13.6c0.7,3.7,2.4,7.1,4.3,10.4c4.3,7.4,8.7,14.6,13,21.9c2.7,4.4,4.1,9.3,5.2,14.3
		c0.3,1.5,1,1.9,2.5,1.4c0.2-0.1,0.5-0.4,0.7-0.3c0.4,0.1,0.8,0.3,1.2,0.4c-0.1,0.4-0.2,0.9-0.5,1c-0.9,0.3-1.9,0.7-2.8,0.7
		c-1,0-1.2,0.3-1.4,1.3c-0.1,1.2-0.5,2.4-1,3.5c-1.5,3.4-3,6.7-4.5,10c0,0.1-0.1,0.1-0.1,0.2c-1.1,5.2-5.2,8.5-8.2,12.5
		c-1,1.2-1.8,2.6-2.5,3.6c1,1.1,1.8,1.9,2.7,2.8c0.6-0.7,1.3-1.5,2.1-2.3c1.4-1.4,2.9-2.8,4.4-4.2c1.5-1.4,3.1-2.7,4.7-4.1
		c0.4-0.3,0.7-0.8,1.1-1c0.3-0.1,0.7,0,1.1,0c0,0.4,0.1,0.8-0.1,1c-1.6,1.6-3.2,3.4-5,4.8c-1.8,1.4-3.5,2.9-5,4.7
		c-1.7,2.1-3.5,4.1-5.9,5.4c-0.3,0.2-0.5,0.5-0.7,0.7c-0.3,0.2-0.6,0.6-0.9,0.7c-2.3,0.6-2.3,0.6-3.8,2.8c0.6,0.5,1.2,1,1.8,1.4
		c2.2-1.4,4.5-2.8,6.7-4.2c0.9-0.6,1.6-1.5,2.5-2.2c2.8-2.1,5.6-4.1,8.4-6.2c2.2-1.6,4.1-3.6,6.4-4.9c1.6-0.9,2.1-2,2.2-3.7
		c0-0.3,0.4-0.6,0.6-1c0.3,0.3,0.7,0.7,0.7,1c-0.1,1.2-0.2,2.4-0.5,3.6c0,0.2-0.5,0.5-0.7,0.6c-0.9,0.5-1.9,0.8-2.6,1.4
		c-3.2,2.5-6.2,5.2-9.4,7.7c-2.6,2-5.3,3.8-8,5.8c-1.7,1.2-3.3,2.4-5,3.6c-0.5,0.3-1,0.6-1.3,1.1c2.5,0,4.8-0.4,6.8-1.6
		c2.4-1.5,4.7-3.3,7.2-4.7c3.1-1.8,5.8-4,8.3-6.5c1-1,2.4-1.7,3.7-2.3c1.4-0.7,2.5-1.5,2.8-3.1c0-0.3,0.5-0.4,0.8-0.6
		c0.2,0.3,0.6,0.6,0.6,0.8c-0.1,1.2-0.3,2.4-1.4,3.2c-1.4,1-2.7,2.1-4.3,2.9c-2,1-3.2,2.8-5,3.9c-2.3,1.5-4.5,2.9-6.8,4.5
		c-1.1,0.8-2.2,1.6-3.4,2.4c-2.3,1.5-4.6,2.9-7.4,3.3c0.1,0.7,0.1,1.3,0.2,2c0.9-0.3,1.8-0.6,2.7-0.8c1.8-0.5,3.6-0.9,5.3-1.3
		c2.4-0.5,4.4-1.6,6.3-3.1c2.7-2.2,5.7-4.1,8.5-6.2c2.6-1.9,4.5-4.4,6.4-7c0.4-0.6,1.2-1,2-1.7c-0.1-0.9-0.2-2.3-0.5-3.6
		c-0.7-4.4,0.2-8.4,2.2-12.3c1.7-3.3,2.5-6.8,2.6-10.5c0-0.4-0.4-0.9-0.6-1.3c-0.2-0.3-0.4-0.6-0.6-0.9c-2.5-5.1-3.8-10.5-5-16
		c-0.9-4.5-2.1-9.1-3.2-13.5c-0.5-2-1.5-3.9-2.2-5.9c-1.3-3.5-2.4-7-3.7-10.4c-1.8-4.9-3.7-9.7-5.5-14.6c-1.3-3.8-2.5-7.6-3.6-11.5
		c-0.2-0.6-0.5-0.9-1.1-0.9c-1.7,0-3.5,0-5-1c-0.6-0.4-1.2-0.8-0.8-1.6c0.4-0.8,1.1-0.8,1.8-0.5c1.4,0.7,2.9,1,4.4,0.8
		c-2.8-12.7-5.9-25.2-12.9-36.4c0.8,0,1.5,0,2.3,0c0.4,0.6,0.9,1.2,1.2,1.8c1.8,3.7,3.7,7.4,5.1,11.3c1.6,4.2,2.9,8.5,4.1,12.9
		c1.4,5.2,2.3,10.4,3.8,15.6c1.2,4.1,2.9,8,4.3,12c1.8,5.2,3.6,10.4,5.4,15.6c1.8,5.3,4.3,10.4,5.6,15.9c1,4.5,2.2,8.9,3.1,13.4
		c0.9,4.4,2.1,8.6,4.6,12.4c0.2,0.3,0.3,0.7,0.3,1.1c0.2,4.6-0.6,8.9-2.7,13.1c-0.8,1.6-1.4,3.4-1.9,5.2c-0.8,3.2,0.1,6.5,0.3,9.7
		c0.1,1.9,0.2,4-0.2,5.8c-0.5,2.2-1.6,4.3-2.4,6.5c-0.6,1.5-1.4,2.8-3.1,3.3c-0.3,0.1-0.5,0.3-0.7,0.5c0.1,0.3,0.2,0.6,0.2,0.9
		c-0.2,3.6-0.3,7.2-0.8,10.7c-0.4,3.3-1.1,6.6-2,9.8c-1.1,4.1-1.7,8.3-3.4,12.3c-0.8,1.8-1.5,3.6-2,5.4c-0.4,1.3-0.5,2.7-0.9,4
		c-1,3.4-2.1,6.8-3.1,10.2c-0.6,2.4-0.8,4.9-1.6,7.2c-1.6,5.1-3.4,10.2-5.3,15.3c-2.3,6.1-4.3,12.3-5.2,18.8
		c-0.1,0.4-0.4,1.1-0.7,1.2c-0.8,0.3-0.7,0.8-0.5,1.4c0.2,0.5,0.4,1.1,0.5,1.6c0.7,2.1,1.5,4.1,2.1,6.3c0.9,3.4,1.6,6.9,2.3,10.3
		c0.5,2.3,1.2,4.5,1.6,6.7c0.5,2.7,0.7,5.4,1,8.1c0.6,4.9,1.2,9.8,1.8,14.6C154.9,300.9,154.2,300.9,153.5,300.9z M2.4,6.3
		c1.2,7.4,4.8,13.7,8.5,20c1.4,2.3,2.5,4.7,3.9,7c1.9,3.3,3.7,6.6,5.8,9.7c1,1.4,2.4,2.5,3.9,3.5c3.6,2.4,6.1,5.7,7.6,9.8
		c1.9,5,3.9,10,5.8,15c1,2.7,2.2,5.4,3,8.2c1.1,3.8,2,7.7,2.9,11.6c0.6,2.9,1,5.8,1.7,8.6c0.7,3,1.6,5.8,2.5,8.8
		c0.1,0.2,0.2,0.4,0.4,0.9c0.3-1,0.5-1.8,0.7-2.5c1.1-3.9,3.8-6.8,6.8-9.3c1.5-1.3,3-2.6,4.5-3.9c2.1-1.8,4.5-2.7,7.1-3.5
		c1.8-0.5,3.6-1.1,5.6-1.8c-0.5-0.5-0.8-0.9-1.1-1.2c-4.5-4.6-9.1-9-13.4-13.7c-2.5-2.8-4.6-5.9-6.7-9c-2.4-3.6-4.4-7.5-6.9-11.1
		c-4-5.7-6.9-12-9.4-18.4c-0.9-2.3-2.4-4.1-3.9-6c-2.4-2.8-4.8-5.6-7-8.6c-2-2.7-4.7-4.7-7.3-6.8C12.6,10,7.8,6.2,3.1,2.5
		C2.8,2.3,2.4,2,2.1,1.8C2,1.8,1.9,1.9,1.8,1.9C2,3.4,2.2,4.8,2.4,6.3z M116.6,188.6c-0.6,3.1-1.3,6.2-2.2,9.2
		c-1.3,4.1-2.1,8.3-2.9,12.6c-0.3,1.9-1,3.8-1.4,5.7c-0.7,3.4-1.2,6.7-1.9,10.1c-0.1,0.4-0.3,0.9-0.3,1.1c0.7,0.6,1.4,1.1,2,1.6
		c1.3-1.7,1.4-3.8,1.9-5.9c0.5-2.3,1.5-4.4,2.1-6.7c0.6-2.1,0.9-4.3,1.3-6.5c0.6-3.3,0.8-6.7,2.3-9.8c0.4-0.9,0.5-2,0.6-3
		c0.4-2.4,0.7-4.7,1.1-7.1c0.2-1.4,0.6-2.8,0.9-4.2C117.7,185.3,117.1,185.9,116.6,188.6z M80.7,262.8c4.4-0.1,8.7-0.4,13-0.7
		c1-0.1,2-0.3,3-0.8c0.5-0.2,1-1,0.9-1.4c-0.1-0.9-0.9-0.6-1.6-0.5c-1.6,0.3-3.2,0.7-4.8,0.8c-9.7,0.2-19.4,0.3-29.1,0.5
		c-1.3,0-2.6,0.2-3.8,0.5c-3.3,0.6-6.5-0.4-9.7-0.8c-2.9-0.4-5.9-0.8-8.8-1.3c-2.2-0.4-4.3-0.9-6.4-1.5c-0.8-0.2-1.4-0.1-1.6,0.6
		c-0.1,0.4,0.5,1.2,0.9,1.3c2.3,0.6,4.6,1.2,7,1.6c2.3,0.4,4.6,0.7,6.9,1.1c2.9,0.4,5.9,0.9,8.8,1.2c1,0.1,2.2,0,3.2-0.2
		c3.9-0.8,7.8-0.3,11.7-0.4c0.3,0,0.7,0,1,0C74.4,262.8,77.5,262.9,80.7,262.8z M88.1,117.1c-0.3-0.8-0.7-1-1.7-0.8
		c-1.5,0.3-3.1,0.4-4.6,0.5c-3.7,0.1-7.1,1.2-10.5,2.3c-1.4,0.4-2.8,0.9-4.2,1.5c-0.4,0.2-0.9,0.6-1.1,1c-0.2,0.4,0,0.9,0,1.3
		c0.4,0,0.8,0,1.2-0.1c3.5-0.5,7-1.1,10.6-1.6c2.6-0.4,5.1-0.9,7.6-1.3c1.2-0.2,2.5-0.2,3.2-1.5C88.4,118,88.3,117.6,88.1,117.1z
		 M143,245.7c0.4-0.3,0.7-0.6,1-1c-0.4-0.3-0.7-0.8-1.1-0.8c-2.6-0.3-5.3-0.4-8-0.8c-1.5-0.2-2.9-1.1-4.4-1.4
		c-3.9-0.7-6.8-3.1-9.7-5.5c-2.2-1.7-3.1-4-3.6-6.5c-0.1-0.8-0.4-1.5-1.3-1.3c-1,0.2-0.8,1-0.7,1.7c0.7,3.3,2.1,6.2,5,8.3
		c2.2,1.6,4.3,3.6,6.9,4.4c4.2,1.2,8.2,3.3,12.8,2.8c0.7-0.1,1.5,0.1,2.1,0.2C142.5,245.8,142.9,245.9,143,245.7z M167.2,155.7
		c1.6-0.7,3.3-1.5,4.9-2.3c0.4-0.2,0.8-0.6,1-1c1-2.4,2-4.8,2.9-7.2c0.3-0.7,0.2-1.5,0.3-2.3c-0.1-0.1-0.2-0.1-0.4-0.2
		c-0.5,0.6-1,1.2-1.6,1.8c-1.5,1.7-2.9,3.5-4.5,5.1c-0.9,0.9-2.1,1.4-3.2,2c-2.2,1.1-3.3,2.8-3.5,5.7
		C164.7,156.8,166,156.3,167.2,155.7z M145.6,194.3c-0.5-2.2-0.9-4.5-0.8-6.7c0.2-3.1-0.9-6-1.1-9c-0.1-0.8-0.2-1.7-0.3-2.5
		c-0.1-1.8-0.2-3.6-0.3-5.4c0-0.6,0-1.3-0.3-1.8c-0.2-0.3-0.9-0.4-1.7-0.7c0,2.1-0.1,3.9-0.1,5.7c0,0.1,0,0.2,0,0.2
		c1.3,2.1,0.8,4.6,1.4,6.9c0.7,2.8,0.6,5.6,0.7,8.4c0.1,3.1,0.5,6.2,0.7,9.5C145.7,197.8,146,196.3,145.6,194.3z M140.5,122.4
		c-0.4-2.5-0.9-4.9-1.4-7.4c-0.5-2.6-0.9-5.2-1.7-7.7c-0.6-1.9-1.5-3.7-2.4-5.5c-0.1-0.2-0.5-0.3-0.7-0.2c-0.3,0.2-0.7,0.5-0.7,0.7
		c-0.1,0.6-0.1,1.2,0.2,1.7c1.4,2.2,1.5,4.7,2,7.2c0.9,4.3,1.8,8.6,2.8,12.9c0.1,0.3,0.3,0.7,0.5,1.1
		C140.4,124.4,140.7,123.5,140.5,122.4z M122.6,161.7c-1.4,2.1-3.9,2.4-5.7,3.8c-2.1,1.6-4.3,3.3-6.4,5c-0.1,0.1-0.2,0.3-0.3,0.5
		c0.9,0.5,1.7,0.2,2.4-0.3c2.2-1.5,4.3-3.1,6.5-4.6c1.5-1.1,3.1-2,4.8-3.2C123.4,162.4,123,162.1,122.6,161.7z M130.2,45.8
		c1.3,4.5,4.3,7.9,7.2,11.3C136.7,52.3,133.4,49.1,130.2,45.8z M102.6,166.7c1.7-0.8,2.7-2.2,2.6-3.5c-0.1-1.1-0.7-1.6-1.7-1.7
		c-0.8-0.1-1.6,0.1-2.7,0.2C101.4,163.6,100.9,165.6,102.6,166.7z M146.5,142.9c-0.1-0.2-0.4-0.3-0.7-0.4c-0.6,1.1-1.3,2.1-1.7,3.2
		c-0.2,0.5,0.2,1.2,0.3,1.8c0.5-0.2,1-0.3,1.4-0.6c0.6-0.5,1.1-1.2,1.7-1.9C147.2,144.2,146.9,143.5,146.5,142.9z M143.1,159
		c-0.6-0.9-3.2-0.6-3.6,0.3c-0.3,0.6,0.1,1.3,0.9,1.3c1,0,2,0,3.2,0C143.3,160,143.3,159.4,143.1,159z M138.7,154.5
		c-0.8,0.7-0.7,2.2,0.1,2.6c0.3,0.1,0.8,0,1-0.2c0.6-0.6,1.2-1.3,1.4-2.1c0.1-0.3-1-0.9-1.4-1.3
		C139.5,153.9,139.1,154.2,138.7,154.5z"/>
	<path class="st0" d="M87.5,0c0.3,1.4,0.6,2.8,1.1,4.2C91,11,93.7,17.7,96,24.6c1.4,4.4,2.3,9,3.2,13.5c1.4,6.4,3,12.7,5.5,18.7
		c1.4,3.3,3.4,6.2,5.7,9c0.2,0.3,0.8,0.5,1.1,0.4c0.3-0.1,0.7-0.6,0.7-0.9c0-0.5,0-1.1-0.3-1.5c-4.5-5.2-6.6-11.5-8.3-18
		c-1.4-5.4-2.5-11-3.9-16.4c-0.9-3.6-2.1-7.1-3.4-10.6c-2.2-6.1-4.5-12.1-6.8-18.1c-0.1-0.2-0.1-0.4-0.2-0.7C88.7,0,88.1,0,87.5,0z"
		/>
</g>
</svg>
