<?xml version="1.0" encoding="utf-8"?>
<!-- Generator: Adobe Illustrator 18.1.1, SVG Export Plug-In . SVG Version: 6.00 Build 0)  -->
<!DOCTYPE svg PUBLIC "-//W3C//DTD SVG 1.1//EN" "http://www.w3.org/Graphics/SVG/1.1/DTD/svg11.dtd">
<svg version="1.1" id="Layer_1" xmlns="http://www.w3.org/2000/svg" xmlns:xlink="http://www.w3.org/1999/xlink" x="0px" y="0px"
	 viewBox="0 0 102.7 211" style="enable-background:new 0 0 102.7 211;" xml:space="preserve">
<style type="text/css">
	.st0{fill:#03A9F4;}
</style>
<g id="hemorrhoid-lady">
	<path class="st0" d="M35.5,211c-1.3-3.1-2.7-6.1-4-9.2c-0.8-2-1.4-4-2-6.1c-0.6-2.3-0.9-4.6-1.6-6.8c-1-3.3-0.2-6.5,0.1-9.8
		c0.4-4.9,0.9-9.8,1.3-14.8c0.4-4.9,0.6-9.9,1.1-14.8c0.3-2.8-0.3-4.9-2.6-6.9c-3.6-3.1-6.8-6.6-10.2-9.8c-2-1.9-4.2-3.7-6.2-5.7
		c-1.8-1.9-3.6-3.8-4.9-6c-2.2-3.7-4-7.6-5.9-11.4c-1.1-2.2-0.9-4.5-0.5-6.8c1.2-6.7,3.4-13.1,5.5-19.6c1.4-4.2,2.3-8.6,3.7-12.9
		c0.9-2.6,1.9-5.3,3.4-7.6c1.3-1.9,3.3-3.2,5.1-4.7c0.5-0.4,1.4-0.3,2.2-0.2c1.4,0.1,2.7-0.1,4-0.9c1.2-0.8,2.7-1.3,4-1.8
		c0.7-0.3,1.2-0.4,1.4-1.4c1.2-4.8,0.3-9.5-0.1-14.3c-0.5-5.8,0.2-11.3,1.1-17c0.8-4.7,2.3-9.1,4.2-13.4c0.7-1.6,1.8-2.9,2.9-4.3
		c1-1.2,2.2-2.3,3.4-3.3c0.8-0.6,1.7-1.1,2.7-1.3c5.7-1.3,10.5,0.9,14.9,4.2c5.1,3.7,8.1,9.2,9.4,15c1.8,8,2.4,16.2-0.4,24.4
		c-1,3-1.1,6.4-1.6,9.6c-0.2,1.6,1.2,2.5,2.7,2c0.2-0.1,0.5,0,0.7,0c3.7,0.6,7.4,1.2,11.1,2c3.1,0.6,4.4,3.2,5.9,5.6
		c2.7,4,3.4,8.8,4.6,13.4c1.5,5.6,2.5,11.3,3.9,16.9c1.1,4.6,2.5,9.2,3.7,13.8c0.5,1.9,1,3.9,1.6,5.7c1.5,4.1,1.8,8.3,1.9,12.5
		c0.2,4.4,0.2,8.8,0.4,13.2c0.2,5.6-0.6,11.1-2.1,16.5c-0.4,1.5-1.4,3-2.4,4.3c-1.5,1.9-1.7,4.1-2,6.3c-0.5,4-1.5,7.8-3.2,11.4
		c-0.5,1.1-0.8,2.4-0.8,3.6c-0.2,4.9-2,9.5-3.6,14c-1.8,5.2-3.7,10.4-5.6,15.6c-0.1,0.2-0.2,0.5-0.3,0.7c-0.5,0-1,0-1.5,0
		c0.8-2.4,1.7-4.8,2.4-7.2c1.3-4.1,2.5-8.2,3.7-12.3c1-3.2,1.9-6.4,2.8-9.6c0.2-0.8,0.3-2.1-0.2-2.6c-1.5-1.7-0.9-3.2-0.2-4.8
		c0.2-0.5,0.3-1.3,0.1-1.6c-0.9-1-0.7-2-0.4-3.1c0.5-1.5,1.1-3,1.6-4.5c0.4-1,0.7-2,1.1-3.3c-0.5,0.2-0.7,0.3-0.9,0.3
		c-0.6,0-1.5,0.1-1.7-0.2c-0.3-0.4-0.3-1.3-0.2-1.9c0.2-0.6,0.8-1.2,1-1.8c0.3-0.7,0.6-1.5,0.5-2.1c-0.6-2.3-1.4-4.7-2.2-6.9
		c-0.9-2.2-1-2.3-3.4-1.8c-5.8,1.3-11.7,1.4-17.5,1.7c-2.8,0.2-5.6,0.4-8.3,0.6c-0.4,0-1,0.4-1.1,0.7c-0.4,1.3-1.2,1.8-2.4,2
		c-1.4,0.2-2.8,0.4-4.1,0.6c-1,0.1-2,0.3-2.9,0.5c0,0.1,0,0.3,0,0.4c2.3,0.8,4.5,1.9,6.8,2.5c2,0.5,3.9,1,5,2.8
		c0.3,0.5,0.8,1.4,0.6,1.8c-0.3,0.6-1.1,1.3-1.7,1.3c-1,0.1-2-0.3-3-0.6c-2.7-0.8-5.4-1.6-8.1-2.4c-0.1,0.1-0.1,0.2-0.2,0.4
		c1.1,0.8,2.3,1.5,3.4,2.3c2,1.3,4.2,2.6,6.1,4c0.5,0.4,0.6,1.6,0.5,2.4c-0.1,0.4-1,1-1.5,1c-2.6,0-5-0.7-7.1-2.3
		c-1.4-1.1-3-1.9-4.5-2.8c-0.2,0.1-0.3,0.2-0.5,0.4c1.4,2.8,2.7,5.6,4.1,8.3c0.4,0.8,1,1.4,0.2,2.3c-0.8,0.8-1.7,0.7-2.6,0.2
		c-0.5-0.3-1-0.5-1.4-0.9c-1.5-1.5-2.9-3-4.3-4.6c-0.5-0.6-0.7-1.4-0.9-2.2c-0.5-1.4-1-2.9-1.6-4.5c-0.3,0.5-0.5,0.6-0.5,0.8
		c-0.2,0.5-0.3,1-0.4,1.4c-0.3,1-1.8,1.7-2.3,0.9c-0.8-1.3-1.7-2.7-1.9-4.1c-0.2-2.4,0.1-4.9,0.1-7.3c0-1.7,0.5-3.6-0.9-5.5
		c-0.2,0.6-0.3,1-0.3,1.4c-0.3,5.9-0.6,11.8-0.8,17.6c0,0.8-0.1,1.6-0.2,2.4c-0.4,4.6-0.9,9.1-1.3,13.7c-0.1,1.1-0.2,2.3,0,3.4
		c0.5,2.7,1,5.4,1.9,8c1.1,3.6,2.5,7.1,3.9,10.7c0.6,1.5,1.5,2.9,2.3,4.3C36.9,211,36.2,211,35.5,211z M76.2,124.4L76.2,124.4
		c-0.2-0.8-0.5-1.5-0.8-2.5c-0.7,0.5-1.2,0.7-1.6,1.1c-1.2,1.3-2.8,1.8-4.6,1.9c-0.7,0-1.6,0-2.1,0.4c-2.1,1.6-4,3.3-6,5
		c-0.3,0.2-0.5,0.4-0.7,0.7c-0.1-0.1-0.3-0.2-0.4-0.4c0.9-2.5,3.3-3.8,4.8-5.9c-0.7,0.1-1.4,0.2-2,0.6c-3.4,2.5-7.2,3.3-11.4,2.9
		c-3.2-0.3-6.5-0.2-9.3,1.9c-0.3,0.2-0.6,0.3-0.9,0.4c-0.1-0.1-0.3-0.2-0.4-0.4c0.3-0.4,0.5-0.9,0.9-1.2c3.2-2.2,6.9-2.3,10.6-2.1
		c2,0.1,4-0.1,5.9-0.6c1.5-0.4,2.8-1.7,4.3-2.3c1-0.4,2.1-0.6,3.2-0.5c3,0.4,5.8,0.4,8.1-2.2c0.6-0.7,0.7-1.1,0.5-1.9
		c-0.4-1.6-0.9-3.3-0.9-5c0.1-5.6,0.3-11.2,0.6-16.8c0.1-1.2-0.3-1.7-1.3-2.1c-1.6-0.7-3.2-1.6-4.9-2.5c0.9-0.9,1.8-0.6,2.6-0.2
		c1,0.5,2,1.2,3,1.6c0.3,0.1,1.2-0.1,1.2-0.3c0.3-1.6,0.9-3.4,0.6-4.9c-0.6-2.6-1.6-5.1-3.4-7.2c-0.3-0.4-0.4-0.9-0.6-1.4
		c0.2-0.1,0.4-0.2,0.6-0.3c1.2,1.6,2.5,3.2,3.8,4.9c0-0.4,0-0.6,0.1-0.9c0.4-2.1,0.5-4.4,1.3-6.4c1.1-2.7,2.7-5.1,4.1-7.6
		c0.3-0.6,0.8-1.1,1.3-1.6c0.2-0.2,0.5-0.1,0.8-0.2c0,0.3,0.1,0.7,0,0.9c-0.3,0.5-0.8,0.9-1.1,1.4c-2.1,4-4.5,7.9-4.7,12.6
		c-0.1,2.1-0.6,4.2,0.5,6.2c1.2,2,2.2,4.1,3.3,6.2c2.4,4.7,4,9.8,5.4,14.9c0.1,0.4,0.2,0.9,0.2,1.3c0.1,1.3,0.1,2.5,0.3,3.8
		c0.2,1.1,0.5,2.2,0.8,3.4c1.5,6.5,3.1,12.9,5.6,19.1c0.6,1.5,1,3.1,1.6,4.8c0.9,0,2.2,0,3.4,0c0.4,0,0.7,0.3,1.1,0.5
		c-0.3,0.3-0.5,0.8-0.8,0.9c-0.8,0.2-1.6,0.2-2.3,0.1c-1.7-0.2-2.8,0.3-3.5,1.8c-0.2,0.5-0.4,1.1-0.7,1.6c-0.7,1.1-0.8,1.9,0.7,2.4
		c0.8,0.3,1.4,1.1,2,1.7c0.9,0.9,1.6,1.8,2.5,2.8c1.9-2,2.2-4.1,2.4-6.2c-0.9,0-1.8,0.1-2.6,0c-0.5-0.1-0.9-0.5-1.4-0.8
		c0.5-0.2,0.9-0.4,1.4-0.5c0.2-0.1,0.5,0.1,0.7,0c1.1-0.4,2.5-0.4,2.7-1.9c0.1-1.3,0.1-2.6,0.1-3.9c-0.1-3.8-0.2-7.7-0.4-11.5
		c-0.2-4.4-0.5-8.9-0.7-13.3c-0.1-1.3-0.6-2.3-1.9-2.8c-0.9-0.4-1.8-0.9-2.6-1.4c-1.7-0.9-3.3-0.6-4.5,0.9c-0.4,0.5-0.7,0.9-1,1.4
		c-0.2,0-0.3-0.1-0.5-0.1c0.1-0.5,0-1.1,0.3-1.5c1.6-2.4,4.1-3,6.6-1.6c0.7,0.4,1.3,0.7,2.3,1.2c-0.9-3.8-1.7-7.3-2.6-10.7
		c-0.8-3-2-5.9-2.8-9c-0.7-2.7-0.8-5.5-1.5-8.2C90.3,80,88.8,75,87.6,69.9c-0.8-3.5-2.5-6.5-4.8-9.2c-0.7-0.8-1.8-1.6-2.8-1.8
		c-4.8-0.9-9.7-1.5-14.8-2.3c-0.3,2.1-0.5,3.8-0.8,5.5c-0.1,0.4-0.4,0.9-0.8,1.2c-2.5,1.7-5.1,3.3-7.7,4.9c-3.1,2-6.6,2.2-10.1,1.7
		c-2.5-0.3-4.5-1.5-6-3.6c-2.2-3.1-4.5-6.1-6.7-9.1c-1.2-1.6-2-1.7-3.7-0.8c-0.4,0.2-0.8,0.3-1.2,0.5c-1,0.4-2.1,0.8-3.1,1.2
		c-1.2,0.4-2.4,1.4-3.6,1.2c-3.6-0.4-5.7,1.7-7.3,4.2c-1.4,2.1-2.2,4.7-3.2,7c-1.7,4.2-2,8.8-3.6,13C5,89.9,3.1,96.2,1.9,102.7
		c-0.5,2.8-0.4,5.3,1,7.8c0.8,1.6,1.5,3.3,2.4,4.8c1.9,3.1,3.5,6.5,5.9,9.1c3.7,4.1,8,7.7,12.1,11.4c0.7,0.7,1.5,1.4,2.3,2
		c4.5,3.6,7.8,8,9.2,13.6c0.2,0.8,0.2,1.6,0.3,2.5c0.4-0.3,0.7-0.4,1-0.6c2.6-2.4,5.3-4.7,7.8-7.2c0.2-0.2,0.2-1.2-0.1-1.4
		c-1.2-1.2-2.5-2.3-3.4-3.1c-1.1,0.9-2,1.8-3.1,2.5c-0.4,0.3-1.1,0.4-1.6,0.5c0.3-0.5,0.5-1.2,0.9-1.6c0.9-0.9,1.9-1.7,2.9-2.5
		c-1-1.7-1.9-2.3-3.5-2.2c-1.7,0.1-3.5-0.1-5.2-0.2c-1.4-0.1-2.5-1.3-2.5-2.5c3.6,1.5,6,1.9,8.1,1.1c-2.3-2.9-4.5-5.8-6.9-8.5
		c-5.5-6.1-8.5-13.8-13.1-20.5c-1-1.5-2-2.4-3.8-2.3c-0.7,0-1.4-0.1-2.1-0.2c0-0.2,0-0.3,0-0.5c1.6-1.2,3.4-0.5,5.2-0.5
		c0.3-2,0.3-4,1-5.8c1.5-4.1,3.3-8.2,5.1-12.2c0.1-0.3,0.6-0.5,1-0.7c0.2,0.3,0.5,0.6,0.6,0.9c0.2,0.7,0.4,1.3,0.6,2
		c0.2,0,0.3-0.1,0.5-0.1c-0.1-1.5-0.1-3-0.3-4.5c-0.5-3.5-1-7-3.9-9.6c-0.2-0.2-0.2-0.7-0.4-1c0.4,0.1,0.9,0,1.1,0.2
		c1.8,1.4,2.9,3.3,3.5,5.4c1.1,3.7,1.4,7.5,1.2,11.4c-0.1,1.6-0.2,3.2,0.4,4.8c2.8,7.3,5.6,14.6,6.7,22.4c0.6,4.1,1.5,8.1,1.3,12.3
		c0,0.6,0.2,1.3,0.5,1.8c2.6,3.3,5.3,6.5,8,9.7c0.4,0.4,1.1,0.8,1.6,0.9c2.8,0.1,5.7,0.1,8.5,0.2c2.9,0.1,6-0.2,8.8,0.3
		c7.8,1.5,15-0.3,22.1-3.5c0.3-0.1,0.5-0.4,0.8-0.5c-0.5-1.1-1-2.1-1.5-3.1c-0.7-1.4-1.2-2.8-2-4.1c-0.9-1.6-2-3.1-3-4.6
		C77.3,126.1,76.8,125.2,76.2,124.4z M90.3,147.4c0.1,0.1,0.3,0.2,0.4,0.2c0.6-2,1.3-4,1.8-6c0.1-0.3-0.1-0.7-0.3-1
		c-3-6.9-4.7-14.1-6.2-21.4c-0.7-3.4-0.9-6.8-1.7-10.2c-1.3-5.6-3.8-10.8-6.3-16c-0.2-0.4-0.6-0.8-1.1-1.6c-0.4,2.3-1,4.1-1.1,6
		c-0.4,4.4-0.4,8.9-0.8,13.3c-0.7,7.4,3.1,13.1,6.7,18.9c1.3,2.1,2.7,4.1,3.7,6.3C87.1,139.8,88.7,143.6,90.3,147.4z M32,128
		c0.2-0.1,0.3-0.2,0.5-0.3c-0.6-13.2-5.2-25.4-10-37.7c-0.3,0.2-0.5,0.3-0.5,0.4c-2,4-4.2,8-4.4,12.6c-0.1,2.2-0.1,4.3,1.6,6
		c0.7,0.7,1.1,1.8,1.7,2.6c2.4,4.1,4.8,8.3,7.4,12.3C29.2,125.4,30.7,126.6,32,128z M41.1,155.9c-0.1,0.1,0.2,0,0.2-0.1
		c0.5-1.5,1.4-1.2,2.4-0.6c1.3,0.8,2.6,1.7,4,2.2c2.5,1,5.1,1.7,7.6,2.5c1.3,0.4,2.7,0.7,4.1,1.1c0.1-0.2,0.2-0.3,0.3-0.5
		c-0.9-0.8-1.7-1.8-2.7-2.2c-2.3-1-4.6-1.8-7-2.4c-1.7-0.4-3-1.1-3.6-2.9c-0.6,0.2-1,0.4-1.6,0.6c1.2-1.7,2.7-2,4.5-2
		c2.1,0,4.2-0.2,6.2-0.4c0.5,0,0.9-0.5,1.3-0.7c-0.4-0.3-0.8-0.8-1.2-0.8c-2.2-0.1-4.4,0-6.6-0.2c-1-0.1-2.1-0.5-2.9-1.2
		c-0.9-0.8-1.5-0.7-2.2,0c-2.9,2.6-5.7,5.3-8.6,7.9c-0.9,0.8-1.1,1.6-0.6,2.7c0.8-0.3,1.6-0.6,2.4-0.9c0.8,1.6,1.7,3,2.3,4.5
		c1.3,3,1.9,6.3,4.6,8.6c0.3,0.3,0.5,0.7,0.8,1c0.7,0.8,1.5,1.5,2.3,2.3c0.1-0.1,0.2-0.2,0.3-0.3c-0.1-0.3-0.2-0.5-0.3-0.8
		c-1.4-3-2.7-6.1-4.1-9.1c-0.3-0.7-0.3-1.5-0.7-2.1c-1.2-1.6-2.6-3.1-3.9-4.6c0-0.2,0.1-0.4,0.1-0.6c0.6,0,1.4-0.2,1.8,0.1
		c1.9,1.8,3.5,3.9,5.5,5.5c2.3,1.8,5,3.2,7.6,4.6c0.9,0.5,2.2,0.4,3.3,0.6c0-0.2,0.1-0.3,0.1-0.5c-0.8-0.6-1.7-1.2-2.5-1.9
		c-2.8-2.4-6.9-3.2-8.4-7.1c-0.1-0.2-0.3-0.3-0.4-0.4C44.1,157.3,42.6,156.6,41.1,155.9z M45.6,144c0.3,0.8,0.5,1.3,0.7,1.9
		c0.5,1.8,1.2,2.3,3,2.4c2.4,0.1,4.8,0.2,7.2,0.3c0.7,0,1.4,0,2.2,0c1.5-0.2,3-0.4,4.6-0.5c4.3-0.3,8.7-0.4,13-0.9
		c3-0.3,5.9-1.1,8.8-1.6c2.4-0.4,2.4-0.3,1.5-2.5c-0.1-0.1-0.2-0.3-0.2-0.4c-0.4-1.5-1.3-1.7-2.6-1.2c-1.7,0.6-3.4,1.1-5.1,1.7
		c-4.3,1.6-8.7,2.1-13.2,1.8c-4.5-0.2-8.9-0.6-13.4-0.8C49.9,143.9,47.9,144,45.6,144z M91.3,169.9c2.1-2.7,3.5-5.8,4.1-9.2
		C93,163.3,92,166.5,91.3,169.9z M91.8,159.7c0.9-0.5,1.7-1,2.6-1.5c2.2-1.4,2.2-2.3-0.4-3.9C94.8,156.8,92.7,157.9,91.8,159.7z
		 M35.7,164.4c0-1.8,0.9-3.7-1-5.5C34.4,161.2,33.8,163,35.7,164.4z"/>
	<path class="st0" d="M55,211c1.1-4.1,2.3-8.2,3.3-12.3c1-4.1,2-8.1,3-12.2c0-0.1,0-0.3-0.1-0.8c-0.7,0.8-1.2,1.5-1.8,2.1
		c-1.3,1.2-2.6,2.5-3.9,3.6c-0.2,0.2-0.7,0-1.1,0c0.1-0.4,0.1-0.8,0.3-1c0.4-0.5,1.1-0.7,1.5-1.2c1-1,1.8-2.1,2.7-3.1
		c0.5-0.6,1-1.1,1.6-1.6c0.4-0.4,1.1-0.8,1.3-1.3c1.3-3.8,2.5-7.6,3.8-11.4c1.2-3.6,0.9-7.3,0.5-11c-0.1-1-0.2-2.1-0.2-3.1
		c0.2,0,0.3,0,0.5-0.1c0.2,0.2,0.5,0.4,0.5,0.6c1.1,5,1.9,10,0.1,15c-0.9,2.5-1.7,5-2.7,7.4c-0.5,1.2-0.2,1.8,1,1.9
		c1.5,0.2,3.1,0.2,4.6,0.4c0.6,0.1,1.1,0.5,1.7,0.8c-0.5,0.2-1.1,0.5-1.6,0.5c-2-0.1-4-0.3-6.3-0.4c0,0.5,0.1,1.1,0,1.8
		c-0.3,2.7-0.9,5.3-1,8c-0.3,5.1-0.4,10.3-0.6,15.4c0,0.6,0,1.3-0.1,1.9c-0.4,0-0.8,0-1.2,0c0-5.2,0-10.4,0-15.5
		c-0.1,0.1-0.2,0.4-0.3,0.8c-1,3.5-1.9,6.9-2.9,10.4c-0.4,1.4-1.1,2.8-0.4,4.4C56.4,211,55.7,211,55,211z"/>
	<path class="st0" d="M76.2,124.4c-0.1,0.5-0.1,1-0.4,1.4c-0.4,0.6-1,1-1.3,1.6c-2.5,4.8-6.8,7.4-11.5,9.4c-0.4,0.2-0.9-0.1-1.4-0.2
		c0.3-0.3,0.5-0.9,0.8-1c3.2-0.9,5.6-3.1,8.2-5c0.9-0.6,1.3-1.9,2.1-2.7C73.9,126.7,75.1,125.6,76.2,124.4
		C76.2,124.4,76.2,124.4,76.2,124.4z"/>
</g>
</svg>
