<?xml version="1.0" encoding="utf-8"?>
<!-- Generator: Adobe Illustrator 18.1.1, SVG Export Plug-In . SVG Version: 6.00 Build 0)  -->
<!DOCTYPE svg PUBLIC "-//W3C//DTD SVG 1.1//EN" "http://www.w3.org/Graphics/SVG/1.1/DTD/svg11.dtd">
<svg version="1.1" id="Layer_1" xmlns="http://www.w3.org/2000/svg" xmlns:xlink="http://www.w3.org/1999/xlink" x="0px" y="0px"
	 viewBox="0 0 146 156.4" style="enable-background:new 0 0 146 156.4;" xml:space="preserve">
<style type="text/css">
	.st0{fill:#FF5722;}
</style>
<g id="jockitch-man">
	<path class="st0" d="M140.4,156.1c-14.7,0-29,0-43.3,0c-3-9.5-6.1-19-9.1-28.6c-0.5,0.1-1,0.1-1.5,0.2c0,2.3-0.2,4.7,0,7
		c0.8,7,1.9,14,2.9,21.5c-2.9,0-4.9,0-7,0c-10.4,0-20.8-0.1-31.2,0.1c-3.3,0.1-4.4-1.1-5-4.1c-2.2-12.9-4.9-25.8-6.7-38.8
		c-1.4-10.2-2-20.5-2.8-30.7c-0.3-3.9,0.1-7.8-0.4-11.6c-0.2-1.7-1.2-3.8-2.5-4.9c-7.6-6.8-15.4-13.3-22.9-20
		C7.3,43.1,4,39.7,1.2,36.1c-1.1-1.4-1.5-4.2-0.9-5.8c1.6-4.3,3.9-8.4,6.1-12.5c0.4-0.8,1.4-1.3,2.8-1.5c-0.2,0.6-0.2,1.3-0.5,1.9
		c-1.5,3.1-3.1,6.1-4.6,9.2c-2.2,4.7-1.8,6.6,2,10c10.4,9.4,20.9,18.8,31.3,28.3c2.2,2,4,4.5,6.4,6c2.5,1.6,5.5,3.2,8.2,3.2
		c11.2-0.1,21.4-4.3,31.5-8.2c-6.4,0-12.7-0.3-18.9,0.1c-6.5,0.4-11.7-1.7-16-6.4c-2.6-2.8-5.6-5.1-8.2-7.9
		c-6-6.2-11.9-12.6-18-19.1c-0.5,0.3-1.6,1-2.7,1.6c-0.3-0.2-0.6-0.4-0.9-0.6c2.5-7.4,7.1-13.8,10.3-20.9c0.5,0.2,1,0.4,1.5,0.6
		c-1.3,2.8-2.5,5.7-3.9,8.5c-0.5,1.1-1.3,2.1-1.8,3.2c-1,2.1-1,3.9,0.8,5.9c4,4.4,7.7,9.2,11.5,13.8c0.5,0.6,1.3,1,2.2,1.6
		c3.5-15.1,0-30.1,1.2-45c0.5-0.1,1-0.2,1.4-0.4c0.6,1.3,1.8,2.7,1.8,4c0.1,7.1,0.1,14.1-0.1,21.2c-0.2,6.8-0.9,13.6-1.2,20.4
		c-0.1,1.3,0.4,3,1.2,3.8c3.4,3.5,7,6.8,10.8,9.9c1.2,1,3.1,1.2,4.8,1.4c5.3,0.6,10.7,1.1,16,1.5c1,0.1,2.2-0.1,3.2-0.5
		c3.1-1.1,6.1-2.5,9.3,0.1c0.7,0.6,2.4,0.2,3.6,0c9-1.5,16.6-6.4,24.5-10.6c0.7-0.4,1.2-1.8,1.2-2.8c-0.5-15.9-1.1-31.7-1.6-47.6
		c0-0.9,0.2-1.8,0.4-2.7c0.3,0,0.7,0,1-0.1c0.5,4.1,1.3,8.2,1.6,12.3c0.7,10.2,1.8,20.5,1.4,30.8c-0.2,7.1,3.3,12.7,5.3,19.5
		c0.2-1.1,0.4-1.7,0.5-2.3c0.1-0.7,0.1-1.5,0.1-2.2c0.8-10.1,1.4-20.2,2.5-30.3c0.7-6.6-2.8-12-4.6-18c-0.3-1-0.7-2-0.5-3.3
		c3.1,2.4,4.9,5.7,5.8,9.2c2.1,8.1,2.1,16.4,0.8,24.8c-0.8,5.5-0.8,11.2-1.3,16.8c-0.4,4.7,0.1,9.5-3.2,13.6
		c-0.7,0.9-0.5,2.6-0.8,3.9c-1.8,10-7.7,18.1-12.7,26.6c-2.2,3.8-4.8,7.2-4,12.2c2.1-3,4.1-5.9,6.8-9.8c0.3,5.2-4.2,8.9,0.1,14
		c1.8-5.1,3.3-9.4,5.1-14.4c2.4,5.6-3.1,10.9,0.5,15.5c0.5,0.1,0.9,0.1,1.4,0.2c1-4.5,2.1-9.1,3.1-13.6c0.5,0.1,0.9,0.1,1.4,0.2
		c-0.3,4.6-0.6,9.2-0.9,13.7c0.5,0.1,1,0.2,1.5,0.2c0.7-1.9,1.5-3.7,2.2-5.6c1.4-4,2.8-8,4-12.1c1-3.5,2.5-7.1,2.6-10.6
		c0.5-16.5,3.5-32.6,6.3-48.8c0.9-5,1.5-10.1,1.9-15.2c0.7-7.8-2.6-14.5-6.2-21.1c-0.6-1.1-0.5-2.5-0.7-3.8c1.2,0.7,3,1.1,3.4,2
		c2.1,5.5,4.8,11.1,5.4,16.8c1.6,15.6-2.9,30.8-5,46.2c-1.3,9.2-1.9,18.5-2.9,27.7c-0.3,2.7-0.5,5.5-1.6,7.8
		c-2,4.1-1.3,8.1-0.8,12.2c1.3,10.9,2.7,21.7,4,32.5C139.7,150.4,140,153.1,140.4,156.1z M119.7,55.8C96.9,66.3,73.3,74.1,48.5,78.2
		c1.4,0.4,2.7,0.8,4.1,0.9c7.6,0.5,14.8-1.2,21.6-4.5c3.2-1.6,5.7-1.6,7.3,2.2c0.6,1.4,1.6,2.6,2,3.2c8.1-5,15.9-9.9,23.7-14.7
		C111.6,62.5,116.8,60.8,119.7,55.8z M100.5,79c-0.3,0.3-0.6,0.6-0.9,0.9c0.2,7.1,5.4,11,10.3,15.4c0.6-1.1,1.1-1.7,1.5-2.6
		c-5-2.5-8.1-6.4-9-11.8C102.4,80.2,101.2,79.6,100.5,79z M109.8,78.7c4.4,2.2,8.2-0.3,8.3-5C115.5,75.3,112.8,76.8,109.8,78.7z
		 M88,95.2c1.8-3.4,0-9-4-11.6C85.5,87.9,86.7,91.4,88,95.2z M70.7,87.6c1.1-1.9,2.2-3,2-3.7c-0.3-1.2-1.6-2-2.4-3
		c-0.7,0.8-2,1.7-1.9,2.4C68.5,84.4,69.5,85.6,70.7,87.6z M39.5,89.2c-0.3,0.2-0.7,0.3-1,0.5c1.5,1.4,2.8,3,4.5,4.1
		c0.8,0.5,2.3,0.1,3.5,0.1c-0.1-0.2-0.1-0.5-0.2-0.7C44.1,91.9,41.8,90.5,39.5,89.2z"/>
	<path class="st0" d="M79.4,35c-1.8,1.6-2.9,2.6-4,3.5c-0.8-1-2.4-2.3-2.2-3c0.4-1.3,1.8-2.4,3-3.2C76.4,32.2,77.8,33.6,79.4,35z"/>
</g>
</svg>
