<?xml version="1.0" encoding="utf-8"?>
<!-- Generator: Adobe Illustrator 18.1.1, SVG Export Plug-In . SVG Version: 6.00 Build 0)  -->
<!DOCTYPE svg PUBLIC "-//W3C//DTD SVG 1.1//EN" "http://www.w3.org/Graphics/SVG/1.1/DTD/svg11.dtd">
<svg version="1.1" id="Layer_1" xmlns="http://www.w3.org/2000/svg" xmlns:xlink="http://www.w3.org/1999/xlink" x="0px" y="0px"
	 viewBox="0 0 120 166.3" style="enable-background:new 0 0 120 166.3;" xml:space="preserve">
<style type="text/css">
	.st0{fill:#E91E63;}
</style>
<g id="menstrualpain">
	<path class="st0" d="M27.5,166.3c1.1-4.7,2.3-9.3,3.4-14c1.1-4.7,1.8-9.4,3.1-14c0.9-3.4,1.7-6.9,1.6-10.4c0-0.4-0.3-1.1-0.7-1.2
		c-5.8-1.7-11-5-16.4-7.6c-3.7-1.8-7.1-4-10.3-6.7c-2.1-1.8-4.6-3.1-7-4.5c-1.1-0.6-1.4-1.4-1.2-2.6c0.7-4.3,2-8.4,4.1-12.3
		c3.6-6.8,7.2-13.7,11.6-20.1c1.3-1.8,2.2-3.9,3.3-5.9c0.7-1.2,1.6-2.2,2.3-3.4c1.9-3.2,3.8-6.5,5.7-9.7c1.3-2.3,3.5-3.2,5.9-3.8
		c2.7-0.7,5.6-0.3,8.2-1.5c0.9-0.4,1.8-0.9,2.9-1.5c-3-1.7-3-4.5-3.1-7.2c0-3.3-0.1-6.6,0.2-9.9c0.3-3.1,1.3-6,1.9-9.1
		c1-4.9,4.1-8.6,7-12.3c2.1-2.7,4.5-5.2,7.5-6.8c1.8-1,4-1.6,6.1-1.7c2.6-0.2,5.3-0.1,7.8,0.5c3,0.6,5.6,2.2,8,4.2
		c3.9,3.3,6.3,7.7,7.5,12.6c0.9,3.6,1.3,7.2,0.4,10.9c-0.4,1.7-0.4,3.5-0.6,5.2c-0.1,0.5,0,1-0.2,1.5c-1.1,2.8-2.2,5.6-3.4,8.4
		c-0.7,1.5-2.1,2.3-3.4,3.2c-0.6,0.4-1.2,0.8-1.8,1.3c-0.1,0.1-0.1,0.4-0.1,0.6c0,0.1,0.3,0.2,0.4,0.2c3.1-0.8,5.9,0.2,8.8,1.3
		c3.1,1.1,5.3,3.2,7.1,5.7c1.6,2.2,3.1,4.5,4.5,6.9c0.8,1.3,1.3,2.8,2.1,4.1c1.1,1.9,2.3,3.8,3.4,5.8c2.3,3.9,4.5,7.8,6.8,11.7
		c2.2,3.7,4.4,7.4,6.6,11.2c1.3,2.2,1.9,4.5,2.1,7c0.1,1.2,0.3,2.3,0.5,3.5c0.2,1.2-0.1,1.9-1.1,2.5c-0.8,0.4-1.8,0.8-2.6,1.3
		c-2.2,1.2-4.4,2.5-6.7,3.8c-0.8,0.5-1.7,0.9-2.6,1.3c-2.2,1.1-4.4,2.3-6.7,3.4c-2.6,1.3-5.3,2.7-7.9,4c-1.2,0.6-2.4,1.2-3.5,1.8
		c-0.2,0.1-0.4,0.7-0.3,0.9c0.4,1.5,0.8,3,1.4,4.5c1.4,3.7,1.5,7.5,1.6,11.4c0,3,0,6,0,9c0,3.7,0.1,7.4,0,11c-0.1,1.7-0.5,3.4-0.8,5
		c0,0.3-0.1,0.6-0.1,0.8c-0.4,0-0.9,0-1.3,0c0.4-1.8,1-3.7,1.1-5.5c0.1-6.4,0-12.7,0-19.1c0-3.1-0.1-6.2-0.7-9.2
		c0-0.2-0.1-0.5-0.2-0.6c-1.9,0.3-3.6,0.8-5.4,1c-3,0.3-5.9,0.4-8.9,0.6c-1.4,0.1-2.8,0.3-4.3,0.4c-3.5,0.1-7-0.2-10.6-0.7
		c-7.7-1.2-15.4-0.6-23.1-0.9c-0.2,0-0.6,0.2-0.7,0.4c-0.6,1.8-1.1,3.7-1.6,5.5c-1,4.3-1.8,8.7-2.8,13c-1.2,5.1-2.4,10.1-3.7,15.1
		C28.2,166.3,27.9,166.3,27.5,166.3z M77.4,113c0,0.1,0,0.3,0,0.4c0.5,0.4,1,0.7,1.4,1.1c0.8,0.7,1.6,1.5,2.4,2.3
		c0.2,0.2,0.1,0.7,0.1,1c-0.3-0.1-0.7-0.2-0.9-0.4c-0.5-0.5-1-1.1-1.5-1.6c-1-0.9-2-1.7-3.1-2.5c-0.8-0.6-1.6-1-2.7-0.6
		c-4.3,1.4-6.4,5.7-6.2,9.6c0,0.3,0.4,0.7,0.7,0.9c2,1.4,4.4,1.3,6.6,1.3c3,0,6-0.4,9-0.8c1.4-0.2,2.8-0.9,4.2-1.4
		c1.4-0.5,2.8-0.9,4.2-1.4c3.4-1.3,6.5-3,9.5-5c0.9-0.6,1.9-1,2.8-1.5c2-1,4.1-1.9,6-3c2-1.2,3.9-2.7,6.3-3.4
		c0.6-0.2,1.1-0.4,1.7-0.7c0.3-0.2,0.6-0.5,0.6-0.7c0-1.2,0.1-2.4-0.1-3.6c-0.3-2-0.6-4.1-1.4-5.9c-0.9-2.2-2.3-4.1-3.5-6.2
		c-1.4-2.5-2.9-4.9-4.3-7.4c-1.8-3.1-3.4-6.2-5.2-9.2c-1.3-2.2-2.8-4.3-4.1-6.5c-1.2-2.1-2.3-4.2-3.4-6.3c-0.3-0.5-0.6-1.1-0.9-1.6
		c-1.1-1.7-2.2-3.4-3.4-5c-0.9-1.1-2.2-2.1-3.4-3c-0.4-0.3-1.3-0.4-1.5-0.2c-1.4,1.5-3.1,2.7-3.6,5c-0.2,1.2-0.6,2.3-0.9,3.4
		c-0.1,0.3-0.5,0.6-0.8,0.9c-0.1-0.1-0.2-0.2-0.3-0.3c0.7-3.6,1.6-7.1,4.8-9.5c-1.1-0.5-1.8-1-2.6-1.3c-0.3-0.1-0.9,0.1-1,0.4
		c-0.7,1.4-1.3,2.8-2,4.2c-1.1,2.2-2,4.5-3.3,6.5c-2.2,3.3-4.7,6.4-7.1,9.6c-0.4,0.5-0.5,1.3-0.6,1.9c-0.2,1.1-0.1,2.3-0.3,3.4
		c-0.4,2.7-0.9,5.5-1.4,8.2c-0.1,0.3-0.4,0.5-0.6,0.7C67.3,84.6,67,84.3,67,84c0.2-1.4,0.5-2.9,0.7-4.3c0.3-1.7,0.7-3.3,1.1-5
		c0.1-0.6,0-1.3,0-2.2c-6.5,6.6-13.4,7.1-20.7,1.9c0.8,3.5,1.7,6.9,2.5,10.4c0.1,0.3,0.1,0.6,0.1,1c0,0.1-0.2,0.4-0.3,0.4
		c-0.1,0-0.4-0.1-0.4-0.2c-0.1-0.2-0.2-0.5-0.3-0.8c-0.7-3.1-1.4-6.1-2.2-9.2c-0.5-1.8-1.3-3.4-2.1-5c-1.4-2.6-2.6-5.5-3.6-8.3
		c-1.3-3.6-2.2-7.4-3.3-11c-0.1-0.3-0.7-0.7-1-0.7c-1.4,0.1-2.7,0.3-4.2,0.4c0.2,0.5,0.2,0.8,0.4,1.1c1.7,2.3,2.3,5,2.6,7.7
		c0.1,0.6-0.1,1.2-0.2,1.8c-0.2-0.6-0.6-1.1-0.7-1.7c-0.3-2.8-1.1-5.5-2.8-7.9c-0.2-0.3-0.7-0.6-1-0.5c-1.4,0.5-2.7,1.2-3.5,2.6
		c-1.9,3.4-3.8,6.8-5.8,10.1c-1,1.7-2.3,3.4-3.3,5.1c-0.7,1.2-1.2,2.5-2,3.7C12.5,79.7,9,86.4,5.5,93.2c-1.7,3.3-3.4,6.7-3.8,10.5
		c-0.3,3.1-0.9,2.2,1.7,3.8c2.9,1.8,5.9,3.5,8.4,5.9c1.2,1.1,2.6,2,4.1,2.8c1.7,1,3.5,1.7,5.3,2.6c3.1,1.6,6.1,3.3,9.3,4.7
		c2,0.9,3.9,1.9,6.2,2c0.9,0,1.8,0.6,2.7,0.8c2.5,0.7,5.1,1.3,7.6,2.2c1.3,0.5,2.6,0.5,4,0.5c0.2,0,0.6-0.2,0.6-0.4
		c0.1-0.8,0.2-1.6,0-2.3c-0.8-3.9-2.6-7.3-5.4-10.1c-0.1-0.1-0.3-0.2-0.5-0.3c-0.4,0.5-0.8,1-1.2,1.4c1.2,2.2,1.4,5,0.2,5.7
		c-0.1-0.4-0.2-0.7-0.2-1c-0.1-0.8,0-1.6-0.2-2.3c-0.2-0.8-0.5-1.9-1.1-2.3c-0.9-0.7-2.1-1.1-3.3-1.5c-2.5-0.7-4.5-2.3-6.6-3.6
		c-1.9-1.2-4-2.3-5.9-3.4c-0.6-0.4-1.2-0.7-1.8-1.2c-1.5-1.3-3-2.7-4.5-4.1c-1.3-1.1-2.9-1.9-3.4-3.7c-2,0.3-3.8,0.7-5.4,1.9
		c-0.4,0.3-0.9,0.5-1.2-0.2c1.5-1.3,3.1-2,5-2.4c1-0.2,1.9-0.5,2.9-0.7c0-0.1,0.1-0.2,0.1-0.4c-0.5-0.5-1-1.2-1.6-1.4
		c-1.3-0.5-2.7-0.7-4-1.1c-0.7-0.2-1.3-0.3-2-0.4c0-0.1,0-0.2,0-0.3c0.2-0.1,0.5-0.4,0.7-0.3c2.7,0.4,5.6,0.2,7.7,2.8
		c1.2-2,2.2-3.7,3.2-5.5c1-1.9,1.9-3.8,2.9-5.7c1.1-2.2,2.4-4.4,3.4-6.6c0.8-1.8,1.5-3.7,2.2-5.5c0.2-0.4,0-1.1-0.2-1.5
		c-0.8-1.5-1.7-2.9-2.6-4.3c-0.2-0.3-0.3-0.6-0.4-0.9c1.7,0.4,2.2,1.7,2.8,2.9c0.7,1.2,1.2,2.4,1.9,3.7c0.3-0.4,0.7-0.9,0.9-1.4
		c0.6-1.5,1-3,1.5-4.4c0.1-0.3,0.4-0.5,0.6-0.7c0.1,0.3,0.4,0.6,0.4,0.8c0,0.5-0.1,0.9-0.2,1.4c-0.6,2-1.1,4.1-2.7,5.6
		c-0.6,0.5-0.7,0.8-0.3,1.5c0.6,1.1,1.5,2.2,1.7,3.4c0.6,2.6,0.9,5.4,1.2,8.1c0.4,4.5,3.9,8,7.9,8.7c3.4,0.6,6.8,0.7,10.2,0.9
		c3.9,0.2,7.7,0.2,11.6,0.3c4.6,0.1,9.1-0.7,13.4-2.5c1.1-0.5,1.9-1.2,2-2.5c0-0.2,0.2-0.4,0.3-0.6c0.1-0.3,0.4-0.5,0.5-0.8
		c0.3-1.2,0.5-2.5,0.8-3.7c0.5-1.8,1.2-3.6,1.5-5.5c0.4-2.4,0.6-4.9,2.1-7c0.4-0.5,0.3-1.1-0.3-1.5c-1.7-1.4-2.3-3.3-2-5.4
		c0.2-1.7,0.8-3.3,1.3-4.9c0.1-0.2,0.4-0.3,0.7-0.6c0,0.5,0.1,0.7,0.1,0.9c-0.3,1-0.6,2-0.9,3.1c-0.7,2.3-0.1,4.4,1.8,5.6
		c0.6,0.4,1,1,1.4,1.6c2.6,3.6,4.4,7.7,6.3,11.7c1.6,3.3,3.1,6.6,4.6,9.9c0.2,0.5,0.5,1,0.8,1.7c0.6-1,0.9-1.9,1.5-2.6
		c1.7-2.1,4.2-2.6,6.7-2.7c0.3,0,0.8,0.3,0.8,0.5c0.1,0.4-0.1,0.8-0.1,0.9c-0.8-0.2-1.4-0.4-1.9-0.4c-2.5,0.3-4.6,1.1-5.4,3.8
		c-0.3,0.9-0.3,1.3,0.7,1.6c0.3,0.1,0.6,0.1,0.8,0.2c2,0.8,4,1.5,5.9,2.4c0.2,0.1,0.2,0.6,0.4,0.9c-0.3,0-0.6,0.1-0.7,0
		c-2.3-1.5-4.9-2.3-7.7-2.8c-0.2,0.2-0.5,0.5-0.7,0.8c-2.1,1.8-4.3,3.5-6.3,5.4c-1.4,1.3-3.2,2-4.9,2.7c-0.8,0.3-1.6,0.8-2.3,1.3
		c-0.5,0.3-0.9,0.6-1.3,0.8c-0.4,0.2-0.8,0.2-1.2,0.4c-1.4,0.6-2.9,1.2-4.3,1.8C79.1,112.5,78.2,112.7,77.4,113z M69.5,45.4
		c-2,0.8-3.6,1.6-5.3,2.3c-2.5,0.9-4.9,0.7-7.1-0.9c-1.4-1-2.7-2.2-4-3.3c-0.9-0.8-1.2-0.8-2,0c-0.9,0.9-1.9,1.8-3,2.6
		c-1.7,1.2-3.4,2.2-5.1,3.3c-0.7,0.4-1,0.9-0.9,1.6c0.2,1.1,0.7,2.1,0.8,3.2c0.4,3.8,1.7,7.4,2.8,11c0.9,2.8,2.5,5.1,5.1,6.6
		c1.7,1,3.5,1.8,5.2,2.7c1.5,0.7,2.9,0.6,4.2-0.3c0.9-0.6,1.7-1.3,2.7-1.8c2.6-1.4,4.7-3.4,6.6-5.7c2.7-3.3,5.5-6.6,7.2-10.6
		c0.5-1.1,1.1-2.2,1-3.7c-1.1,4-3.3,5.3-7.1,3.3c-1.3,1.3-2.6,2.6-4,3.9c-0.6,0.6-1.1,1.2-1.6,1.7c-0.1,0.1-0.4,0.1-0.6,0.2
		c0-0.2,0-0.5,0-0.7c0.1-0.2,0.3-0.3,0.4-0.5c1.5-1.7,3-3.3,4.6-4.9c0.4-0.4,0.5-0.7,0-1.1c-1.7-1.6-1.9-3.3-0.9-5.4
		C68.9,47.8,69.1,46.6,69.5,45.4z M71.3,2.7c0.3,0.7,0.6,1.4,0.7,2.1c0.6,2.5,1.3,5.1,1.7,7.6c0.3,1.9-0.9,2.6-2.8,2.5
		c-1.1-0.1-2.2,0-3.3,0.1c-0.4,0-0.8,0-1.2,0c-1.8,0.1-3.6,0-5.4,0.2c-1.4,0.2-2.8,0.7-3.5,2c-1.1,1.8-2.1,3.7-2.8,5.7
		c-1,2.6-2.2,5.1-2.4,8c-0.1,2.4-0.2,4.9-0.3,7.3c-0.1,1.4,0.3,2.5,1.2,3.5c1.1,1.2,2.3,2.5,3.5,3.6c1.5,1.2,3.1,2.3,5.1,1.9
		c2.5-0.4,4.7-1.4,6.7-2.9c1.6-1.2,3.2-2.4,3.9-4.4c1-3.1,2.3-6.1,3.1-9.2c0.8-3.5,1.3-7.2,1.7-10.8c0.2-1.5-0.1-3-1.4-4.1
		c-0.2-0.1-0.3-0.4-0.3-0.6c0-4-1.2-7.8-2.7-11.5C72.6,2.9,72.3,2.5,71.3,2.7z M31.8,75.9c-0.2,0.5-0.3,0.8-0.4,1.1
		c-0.8,1.9-1.5,3.7-2.4,5.6c-1.5,3-3,5.9-4.6,8.8c-1.5,2.6-3.1,5.2-4.7,7.8c-0.5,0.7-0.6,1.2,0.1,1.7c1.1,1,2.3,1.9,3.4,2.9
		c2.1,1.8,3.9,4,6.7,4.8c0.4,0.1,0.7,0.4,1.1,0.7c1.7,1.1,3.4,2.3,5.2,3.3c1.5,0.8,1.7,0.6,1.9-1.1c0-0.1,0-0.1,0-0.2
		c0.5-5.6-0.5-11-1.6-16.4c-0.8-3.9-1.4-7.8-2-11.8C34,80.6,33.3,78.3,31.8,75.9z M39.5,107.1c-0.2,2.3-0.4,4.5-0.6,6.7
		c0,0.3,0.3,0.7,0.6,0.8c0.8,0.4,1.7,0.7,2.5,1.1c1.5,0.7,1.6,0.7,2.5-0.7c0.1-0.1,0.3-0.2,0.4-0.4c0.8-1.3,1.8-2.6,1.2-4.4
		c-0.2-0.5,0.2-1.3,0.6-1.7c0.6-0.7,0.9-1.3,0.4-2.2c-0.8-1.4,0-3.1,1.6-3.5c0.3-0.1,0.8-0.1,1-0.3c1.1-1.1,2.3-0.8,3.6-0.4
		c0.7,0.2,1.5,0.6,2.2,0.7c1.6,0.3,3.1,0.7,4.5,1.6c1.6,1.1,3.2,2,4.9,2.8c1.4,0.7,2.9,1.3,4.3,1.8c0.3,0.1,1,0,1.1-0.2
		c0.4-0.7,0.5-1.5,0.8-2.3c-0.3-0.1-0.6-0.2-0.9-0.2c-0.8,0-1.6,0.1-2.4,0.1c-0.5,0-1-0.3-1.5-0.5c0-0.1,0-0.2,0-0.4
		c0.2-0.1,0.5-0.2,0.7-0.2c1.6,0,3.1-0.1,4.7,0c1.6,0,3.1-0.5,4.5-1.3c0.9-0.5,1.7-1.1,2.5-1.6c2.8-1.7,3.8-4.3,2.9-7.5
		c-0.6,0.4-1.2,0.8-1.8,1.1c-4,1.9-8.2,2.9-12.6,2.8c-7-0.1-13.9-0.3-20.9-0.7c-3.1-0.2-6-1.3-8.2-3.7c-0.2-0.2-0.4-0.4-0.7-0.6
		c0.4,2.2,0.8,4.3,1.2,6.3c0.3,1.6,0.3,3.2,0.6,4.9c0.1,0.4,0.5,0.9,0.8,1c1.4,0.5,2.8,0.8,4.2,1.2c0.3,0.1,0.6,0.3,0.7,0.5
		c0.1,0.1-0.1,0.6-0.2,0.6c-0.3,0.1-0.6,0-0.9-0.1C42.4,108,41,107.5,39.5,107.1z M88,75.5c-0.2,0-0.3,0-0.5,0
		c-0.6,1.3-1.4,2.6-1.6,4c-0.4,3.3-1.2,6.6-2.5,9.7c-0.1,0.2-0.1,0.5-0.2,0.7c-0.2,4.7-0.9,9.5,0.9,14.1c0.4,0.9,0.5,2,0.8,3
		c0.1,0.4,0.4,0.9,0.5,1.2c1.1-0.4,2-0.8,2.9-1.2c1-0.4,2.2-0.7,3.1-1.4c2.5-1.9,4.8-3.9,7.2-5.9c0.3-0.3,0.4-1,0.3-1.4
		c-0.7-1.8-1.4-3.6-2.2-5.3c-2.3-4.8-4.6-9.5-6.9-14.2C89.4,77.6,88.7,76.5,88,75.5z M36.7,130.8c5.4,0,10.6-0.1,15.8,0
		c2.9,0.1,5.8,0.2,8.6,0.7c4.4,0.8,8.8,0.8,13.2,0.4c3.1-0.3,6.2-0.4,9.3-0.7c1.5-0.1,3-0.5,4.5-0.9c0.5-0.1,0.8-0.4,0.6-1
		c-0.7-1.8-1.4-3.7-2.2-5.6c-2.7,0.5-5.2,1.1-7.7,1.4c-2.8,0.3-5.6,0.3-8.4,0.5c-0.3,0-0.6,0-0.8,0.2c-1.5,1.1-3.3,1.5-5.1,1.6
		c-0.7,0-1.4,0.4-2.2,0.5c-1.6,0.3-3.2,0.7-4.8,0.8c-1.4,0.1-2.8-0.2-4.3-0.3c-0.1,0.5-0.2,1.1-0.4,1.7c-1,0.1-2,0.3-3,0.2
		c-1.8-0.2-3.5-0.5-5.2-0.9c-1.5-0.4-2.8-1.1-4.3-1.5c-0.8-0.2-1.7-0.3-2.5-0.4c-0.4-0.1-0.8-0.1-1.2-0.2
		C36.7,128.6,36.7,129.6,36.7,130.8z M50.7,103c0,0.1-0.1,0.2-0.1,0.4c0.2,0.2,0.5,0.4,0.7,0.5c1.7,0.6,3.4,1.1,5.1,1.8
		c1.7,0.7,3.3,1.5,4.9,2.4c0.2,0.1,0.2,0.6,0.2,0.9c-0.3,0-0.6,0-0.8-0.1c-0.5-0.3-0.9-0.7-1.4-0.9c-3.3-1.3-6.6-2.5-9.9-3.8
		c-0.6-0.2-1.3-0.1-1.5,0.6c-0.2,0.7,0.3,1,0.9,1.2c1.9,0.7,3.9,1.3,5.7,2.1c1.7,0.7,3.7,1.1,4.9,2.7c0.2,0.3,0.3,0.7,0.4,1
		c-0.4,0.1-0.7,0.3-1.1,0.3c-0.3,0-0.7-0.1-1-0.2c-1-0.3-1.9-0.6-2.9-0.8c-2.2-0.6-4.4-1.1-6.6-1.7c-0.3-0.1-0.7,0.2-1,0.2
		c0.2,0.3,0.4,0.7,0.7,0.8c1.1,0.4,2.1,1,3.2,1.1c2.4,0.3,4.6,1.1,6.7,2.3c0.5,0.3,0.9,0.8,1.3,1.1c-0.6,0.1-1.3,0.4-1.9,0.3
		c-2.4-0.4-4.7-1-7.1-1.5c-0.3-0.1-0.6-0.1-0.9-0.1c0.4,0.9,0.6,1,1.7,1.3c3.2,1.2,6.5,2.4,9.3,4.5c1.6,1.2,3.3,1.9,5.3,2.1
		c0.1-0.2,0.1-0.4,0.1-0.6c0.3-4,1.9-7.2,5.7-8.8c1.6-0.7,2.4-1.5,2.4-3.2c0-1,0.3-1.9,0.5-3.2c-0.9,0.4-1.6,0.5-2,0.9
		c-0.4,0.6-0.5,1.4-0.7,2.1c-0.4,1.3-0.8,1.7-2.1,1.3c-2.2-0.8-4.4-1.8-6.6-2.8c-1.8-0.9-3.4-2.1-5.3-2.8c-1.7-0.7-3.5-1.1-5.3-1.5
		C51.9,102.9,51.3,103,50.7,103z M56.4,118.6c-1.2-0.6-2.1-1-3.1-1.4c-1.4-0.6-2.9-1.1-4.3-1.8c-0.7-0.3-0.9-1.1-0.7-1.9
		c0.3-0.8,1-0.7,1.6-0.6c2,0.4,3.9,1,5.9,1.5c0.5,0.1,1.1,0.3,1.6,0.4c0-0.1,0.1-0.2,0.1-0.3c-0.4-0.2-0.8-0.5-1.2-0.6
		c-2.2-0.6-4.4-1.2-6.6-1.7c-0.7-0.2-1.7-0.5-2.2-0.2c-0.6,0.4-0.7,1.4-1,2.1c-0.4,0.7-0.3,1.2,0.3,1.8c2.1,2.1,3.8,4.4,4.6,7.4
		c0.4,1.4,0.8,2.8,1.2,4.2c1.2,0.2,2.5,0.6,3.7,0.7c1.1,0.1,2.3-0.2,3.4-0.4c1.3-0.3,2.5-0.7,3.7-1c1.4-0.4,2.8-0.7,4.1-1
		c0.2-0.1,0.4-0.3,0.8-0.6c-3.2-0.7-6.2,0-9.1,0.2c-0.3,0-0.6-0.1-0.9-0.2c0.2-0.3,0.3-0.6,0.6-0.8c0.3-0.2,0.7-0.2,1-0.3
		c0.9-0.1,1.8-0.1,2.7-0.2c0.7-0.1,1.4-0.3,2.1-0.5c0-0.1,0-0.3,0-0.4c-1.6-0.3-3.1-1.4-4.9-0.9c-0.4,0.1-0.8-0.2-1.3-0.3
		c0.2-0.4,0.4-0.8,0.6-1.2c-1.4-1.5-1.5-1.5-3.6-0.7c-0.4,0.1-0.7,0.3-1.1,0.3c-0.2,0-0.5-0.2-0.7-0.3c0.2-0.2,0.3-0.4,0.5-0.5
		C55.1,119,55.6,118.9,56.4,118.6z M81.6,49.6c-0.1,0-0.2-0.1-0.3-0.1c-0.2,0.1-0.4,0.3-0.5,0.5c-0.9,1.7-1.9,3.4-2.6,5.1
		c-1.2,3.1-2.9,5.9-5,8.4c-0.9,1.1-1.9,2.2-2.8,3.4c-3.1,4.2-7.3,6.8-11.9,9c-0.3,0.2-0.9,0.2-1.2,0.1c-3-1-5.9-2.2-8.3-4.3
		c-1.3-1.1-2.6-2.5-3.3-4.1c-1.2-2.5-2.1-5.2-2.8-7.9c-0.9-3-1.5-6.1-2.2-9.3c-0.5,0.1-0.8,0.2-1.3,0.4c0.4,1.2,0.8,2.2,1.1,3.3
		c1,3.6,1.9,7.2,3,10.7c1.3,4.4,3.8,8,7.8,10.5c0.5,0.3,1.2,0.5,1.8,0.7c0.5,0.2,1,0.2,1.5,0.4c2,0.6,4.1,1,6.1,0.3
		c2.6-0.9,5.1-2.1,6.9-4.3c2.3-2.7,4.4-5.5,6.6-8.3c1-1.3,2.2-2.7,3-4.2c1.6-3,2.9-6.1,4.3-9.2C81.6,50.3,81.5,50,81.6,49.6z
		 M82.2,101.1c-1.1,0.8-1.9,1.6-2.9,2.2c-2.3,1.4-4.1,2.9-4.4,6c-0.1,1.8,0.6,3.1,2.5,2.5c2.2-0.7,4.3-1.6,6.5-2.5
		c0.2-0.1,0.5-0.6,0.4-0.9C83.6,106,82.9,103.5,82.2,101.1z M59,111.1c0-0.1,0-0.2,0.1-0.3c-0.2-0.1-0.4-0.3-0.6-0.4
		c-1.8-0.7-3.7-1.3-5.5-2c-0.3-0.1-0.6,0.1-0.9,0.2c0.2,0.2,0.4,0.6,0.7,0.7c1.8,0.6,3.5,1.2,5.3,1.7
		C58.3,111.2,58.6,111.1,59,111.1z M50.5,109.1c0.5-1.5-0.8-2.2-2.8-1.8C48.7,107.9,49.6,108.5,50.5,109.1z"/>
	<path class="st0" d="M52.4,57.8c-0.4,0.1-0.7,0.3-0.8,0.2c-2.3-1.4-4.5-2.9-6.8-4.4c0,0-0.1,0-0.1-0.1c-0.1-0.4-0.2-0.7-0.3-1.1
		c0.4,0.1,0.8,0.2,1.1,0.4c1.1,0.7,2.3,1.4,3.4,2.2c1,0.7,2,1.4,3,2.1C52,57.1,52.1,57.4,52.4,57.8z"/>
	<path class="st0" d="M67.7,40.4c-0.3,0.1-0.5,0.3-0.8,0.4c-1.3,0.3-2.6,0.7-3.9,1c-1.6,0.3-2.8-0.3-3.8-1.4
		c-0.6-0.7-1.4-1.2-2.1-1.8c-0.1-0.1-0.3-0.4-0.2-0.5c0.1-0.1,0.3-0.3,0.5-0.3c1.6-0.1,3.2-0.3,4.8-0.2c1,0.1,2,0.5,2.9,0.9
		c1,0.4,1.9,1,2.8,1.5C67.7,40.2,67.7,40.3,67.7,40.4z M58.7,39.1c1.9,2.3,4.9,2.9,7.2,1.5C63.6,40.1,61.2,39.6,58.7,39.1z
		 M65.8,39.9c0-0.1,0-0.3,0.1-0.4c-2.1-1.4-4.4-1.1-6.6-1.2c0,0.1,0,0.2-0.1,0.4C61.4,39.1,63.6,39.5,65.8,39.9z"/>
	<path class="st0" d="M63.1,26.7c-3,1.3-5.4-0.1-7.9-1.7c0.7-1,1.8-0.9,2.8-0.9C60.8,24,62.1,24.7,63.1,26.7z M60.7,25.3
		c-0.5,0.4-0.9,0.9-1.1,0.8c-0.5-0.1-1.2-0.4-1.4-0.8c-0.4-0.8-0.7-0.6-1.3-0.3c0.9,1.1,1.9,1.7,3.3,1.6c0.4,0,0.8-0.4,1.3-0.6
		C61.2,25.9,60.9,25.5,60.7,25.3z"/>
	<path class="st0" d="M74.7,30.3c-2.6,0.1-4.9-0.3-7.1-1.6c-0.1-0.1-0.1-0.6,0-0.7C70.2,26.1,73.6,27.4,74.7,30.3z M72.5,28.8
		c-0.6,0.3-1,0.6-1.4,0.6c-0.8,0-1.5-0.4-1.6-1.5c-0.3,0.3-0.6,0.7-0.5,0.8c0.5,0.9,3.3,1.4,4.3,0.7C72.9,29.1,72.6,28.9,72.5,28.8z
		"/>
	<path class="st0" d="M66.2,28.6c0,0.3-0.1,0.6-0.1,0.9c-0.2,1.3-0.1,2.5,0.5,3.7c1.1,2.1,0.2,3.4-2.1,3.4c-1,0-1.9,0-2.4-1
		c-0.1-0.2-0.4-0.3-0.6-0.3c-1,0-1.3-0.7-1.3-1.5c-0.1-0.9,0.4-1.5,1-2c0.1,0.1,0.2,0.1,0.3,0.2c-0.2,0.4-0.5,0.8-0.7,1.2
		c-0.4,0.8-0.1,1.2,0.8,1.4c0.4,0.1,0.8,0.4,1.1,0.7c0.6,0.7,2.5,1,3.4,0.4c0.9-0.6,0.6-1.5,0.1-2.2c-0.7-1.2-0.8-2.6-0.6-3.9
		c0.1-0.4,0.2-0.7,0.3-1.1C66,28.6,66.1,28.6,66.2,28.6z"/>
	<path class="st0" d="M62.9,23.8c-0.8,0.4-6.4-0.8-7.1-1.4C57.2,21.4,62.4,22.4,62.9,23.8z"/>
	<path class="st0" d="M75.4,28.2c-0.3-0.2-0.7-0.3-1-0.5c-1.3-0.9-2.7-1.6-4.3-1.8c-0.3,0-0.6-0.1-0.8-0.2c-0.2-0.1-0.4-0.4-0.4-0.6
		c0-0.2,0.3-0.4,0.5-0.4c0.3-0.1,0.7-0.1,0.9,0c1.6,0.7,3.1,1.4,4.7,2.2c0.3,0.2,0.4,0.7,0.6,1C75.7,28,75.5,28.1,75.4,28.2z"/>
	<path class="st0" d="M63.5,44c-1.5-0.4-3-0.8-4.5-1.1C60.3,42.1,62.9,42.8,63.5,44z"/>
</g>
</svg>
