<?xml version="1.0" encoding="utf-8"?>
<!-- Generator: Adobe Illustrator 19.2.1, SVG Export Plug-In . SVG Version: 6.00 Build 0)  -->
<svg version="1.1" id="Layer_1" xmlns="http://www.w3.org/2000/svg" xmlns:xlink="http://www.w3.org/1999/xlink" x="0px" y="0px"
	 viewBox="0 0 200 290" style="enable-background:new 0 0 200 290;" xml:space="preserve">
<style type="text/css">
	.st0{fill:#00BCD4;}
</style>
<g id="menstrual-lady2">
	<path class="st0" d="M0,232c6.4,0,12.8,0,19.1,0c5.6,0,11.1,0,16.7,0c0.8,0,1.5,0,2.4,0c0.4-3.1,0.9-6.3,1.2-9.5
		c0.5-5,2.1-9.7,3.5-14.5c0.2-0.6,0.5-1.1,0.8-1.6c0.7-0.9,0.9-1.9,0.3-2.9c-1.2-1.7-0.9-3.7-1-5.6c-0.2-2.5-0.3-5-0.7-7.5
		c-1.3-7.8-2.4-15.6-1.9-23.5c0.2-2.7,0.1-5.5,0.3-8.3c0.2-3.9,0.6-7.7,0.9-11.6c0.3-2.7,0.6-5.4,1-8.1c0.6-3.6,1-7.2,1.9-10.6
		c1.3-5.2,3.2-10.4,4.4-15.6c0.9-3.8,2.9-6.8,5-9.9c1.2-1.8,2.3-3.6,3.5-5.3c2.2-3,4.9-5.5,8.1-7.6c2.6-1.8,5.4-3.1,8.2-4.4
		c0.6-0.3,1.3-0.9,1.6-1.5c1.2-2.6,2.2-5.2,1.9-8.3c-0.3-3.2-0.7-6.3-0.9-9.5c-0.2-1.9,0-3.9,0.4-5.8c0.7-3.3,1.9-6.6,2.5-9.9
		c0.3-1.3-0.1-2.8-0.4-4.2c-0.4-2.3-1.1-4.6-1.5-6.9c-0.6-3.4-0.3-6.7,0.5-10.1c1.2-5.1,2.9-10,5.3-14.5c2.9-5.4,7-9.6,13.1-11.2
		c2.2-0.6,4.5-0.5,6.7,0.2c2.8-3.8,6.9-4.8,11.5-2.2c4.5,2.5,9,5.2,12.8,8.7c2.8,2.5,4.6,5.7,5.6,9.3c0.5,1.8,1.5,3.4,2,5.2
		c0.7,2.7,1.1,5.5,1.7,8.3c0.1,0.6,0.1,1.2,0.2,1.8c0.1,0.3,0.4,0.6,0.6,0.7c2.3,0.9,3.2,2.7,3.3,5c0,3,0,6.1-0.3,9.1
		c-0.2,1.8-0.8,3.6,0,5.3c0.7,1.7,1.5,3.4,2.3,5.1c1.4,3,3.1,5.9,4.1,9c0.7,2.4,0.6,5.2,0.6,7.8c0,1.9-0.2,3.8-0.3,5.7
		c-0.1,1,0.8,1,1.3,1c8.1,0.7,15.4,3.7,22.3,7.7c3.4,2,6.3,4.7,7.1,8.8c0.9,4.8,1.2,9.6,0.1,14.4c-0.7,3-0.9,6.2-1.4,9.3
		c-0.4,2.6-1,5.1-1.6,7.7c-0.8,4.1-1.8,8.2-2.5,12.4c-0.4,2.1-0.2,4.2-0.6,6.3c-0.4,2.1-1.3,4.1-1.9,6.2c-0.8,2.7-1.6,5.5-2.2,8.3
		c-0.5,2-0.7,4.1-1,6.2c-0.8,4.2-1.5,8.3-2.4,12.5c-0.7,3.2-1.4,6.5-3.1,9.4c-0.4,0.6-1.1,1.1-1.5,1.7c-0.3,0.5-0.9,1.3-0.7,1.6
		c1,1.8,0.2,3.4-0.2,5c-0.2,0.7-0.7,1.3-1,2c-0.4,0.7-0.7,1.4-1,2.2c0.1,0.1,0.2,0.3,0.3,0.4c0.7-0.2,1.4-0.4,2.1-0.6
		c1.5-0.3,3-0.7,4.5-0.9c2.7-0.3,5.3-0.6,8-0.8c2.8-0.2,5.1,1.3,7.6,2.1c4.9,1.6,8.4,5.1,11.7,8.8c1.9,2.2,3.8,4.7,4.9,7.4
		c1.3,3.3,2.4,6.8,2.5,10.5c0.1,4.1,0.7,8.3,1.1,12.4c0,0.1,0,0.2,0,0.4c0.1,4.3,0.2,8.6,0.2,12.9c0,5.5-0.1,11,0,16.5
		c0.1,5.3,0.3,10.7,0.5,16c-0.7,0-1.3,0-2,0c-0.1-1.3-0.1-2.6-0.2-4c-0.1-1.7,0.2-3.5-1-4.7c0.2-0.6,0.5-1,0.5-1.5
		c0-5.6,0-11.2,0-16.8c0-3.5,0.1-7.1,0-10.6c-0.2-5.3-0.6-10.6-0.9-15.9c-0.3-4.2-0.3-8.3-1.8-12.4c-1.1-3-2.6-5.9-4.7-8.3
		c-3-3.5-6.3-6.8-10.7-8.6c-0.3-0.1-0.5-0.2-0.7-0.4c-1.8-1.7-4-2-6.3-1.8c-2.8,0.2-5.6,0.6-8.4,0.8c-3.1,0.2-6,1.1-8.7,2.6
		c-6.6,3.5-13,7.3-19,11.8c-1.4,1.1-2.9,2-3.9,3.6c-0.4,0.6-1.2,1-1.8,1.4c-0.2,0.2-0.5,0.3-0.9,0.7c2.5-0.1,4.6-0.3,6.8-0.4
		c2.7-0.1,5.4-0.2,8.2-0.1c3.2,0.2,5.9,1.7,8.6,3.3c1.4,0.8,2.6,1.9,4,3c0.7-1.4,1.5-2.8,2.2-4.2c0.3-0.7,0.4-1.9,1.5-1.6
		c1,0.3,0.6,1.4,0.3,2.1c-0.7,1.6-1.5,3.2-2.3,4.8c-0.5,0.9-0.6,1.6,0.4,2.3c2.1,1.4,3.7,3.4,4.3,5.8c0.7,2.5,1.7,4.9,2,7.6
		c0.2,1.8,0.8,3.5,1.2,5.3c0.6,2.6,1.4,5.1,1.8,7.8c0.4,2.6,0.2,5.3,0.7,7.9c1.3,6.8,1.5,13.6,1,20.5c-0.7,0-1.5,0-2.2,0
		c-0.1-0.4-0.2-0.8-0.2-1.2c0-1,0.1-2,0.2-3c0.1-0.9-0.1-1.8-0.1-2.7c0.1-3.1-0.3-6.3-0.6-9.4c-0.4-3.3-1.2-6.6-1-10
		c0.1-1.1-0.1-2.3-0.4-3.4c-1.3-5.5-2.8-11.1-4-16.6c-0.6-2.8-2.1-4.8-4.1-6.7c-1.2-1.1-2.1-2.4-3.2-3.7c-0.3-0.4-0.4-0.9-0.8-1.2
		c-3.1-2.3-6.4-4.4-10.5-4.4c-5.5,0-10.9,0.3-16.4,0.6c-1.8,0.1-3.7,0.3-5.5,0.7c-3.6,0.6-7.3,1.4-10.9,2c-4.2,0.7-8.4,1.3-12.5,2.1
		c-4.5,0.8-8.9,1.9-13.4,2.8c-2.9,0.6-5.8,1.2-8.8,1.7c-2.6,0.5-5.2,0.8-7.7,1.3c-1.7,0.3-3.4,0.5-4.9,1.1c-2.5,1-4.9,2.3-7.4,3.3
		c-3.1,1.2-5.9,2.7-8.5,4.7c-0.3,0.2-0.8,0.3-1.3,0.3c-0.3,0-0.6-0.3-0.7-0.5c-0.1-0.2,0-0.7,0.2-0.9c2.3-1.5,4.1-3.6,6.8-4.5
		c1.6-0.5,3.1-1.4,4.6-2.2c0.3-0.1,0.5-0.4,0.7-0.6c0-0.1-0.1-0.2-0.1-0.3c-1.1,0-2.2-0.1-3.3,0c-4.5,0.3-9,0.6-13.4,0.9
		c-2.1,0.1-2.3,0.3-2.9,2.3c-0.9,3.5-2,7-2.9,10.5c-0.6,2.4-1.5,4.7-0.8,7.2c1.1,3.5,2.8,6,7.2,6c4.1,0,8.3-0.5,12.4-1
		c4.4-0.6,8.8-1.4,13.2-2.4c5.3-1.1,10.5-2.5,15.4-4.5c2-0.8,4-1.4,6.1-2c7.8-2.1,15.7-4,23.5-6c2.9-0.7,5.7-1,8.5,0.3
		c1.8,0.8,3.6,1.6,5.5,2.4c0.4-0.8,0.7-1.6,1.2-2.3c0.3-0.4,1-0.9,1.3-0.8c0.8,0.2,0.6,1,0.4,1.6c-0.3,0.7-0.7,1.4-0.9,2.1
		c-0.1,0.4-0.2,1,0,1.2c0.6,0.8,1.4,1.5,2.2,2.4c0.2-0.7,0.3-1.3,0.6-1.9c0.1-0.3,0.5-0.5,0.8-0.7c0.2,0.3,0.6,0.6,0.6,0.9
		c-0.2,1.3-0.5,2.5-1.7,3.4c-2.1,1.6-2.5,3.9-1.5,6.4c0.6,1.3,0.9,2.8,1,4.2c0.1,2.9-0.1,5.9,0.1,8.8c0.1,3.9,0.5,7.8,0.7,11.7
		c-0.4,0-0.8,0-1.2,0c-0.1-1-0.1-1.9-0.2-2.9c-0.2-1.8-0.5-3.7-0.5-5.5c-0.1-4.1,0-8.3,0-12.4c0-0.6-0.1-1.3-0.3-1.9
		c-0.5-1.8-1.1-3.6-1.6-5.4c-0.5,0.4-1.2,1-1.9,1.6c-0.9,0.8-1.3,1.6-0.9,2.9c0.9,3,1.3,6.1,1.2,9.2c-0.1,2.5-0.2,5-0.2,7.5
		c0,2.3,0.1,4.7,0.2,7c-0.7,0-1.5,0-2.2,0c0-1.7-0.1-3.4-0.1-5.1c0-1.9,0.4-3.8-0.4-5.6c-0.4-1.1-0.9-1.3-1.9-0.7
		c-0.7,0.4-1.3,0.9-2,1c-3.5,0.7-6.7,2.6-10.4,2.7c-2.9,0.1-5.9,0.7-8.8,0.8c-6,0.1-12.1,0-18.1-0.2c-6.4-0.2-12.9-0.3-19.3-0.8
		c-4.2-0.3-8.5-1.1-12.6-2c-3.1-0.6-6.1-1.6-8.6-3.5c-4.6-3.4-7.8-7.9-9.2-13.5c-0.3-1-0.4-2.1-0.2-3.1c0.9-4.4,1.9-8.8,3-13.2
		c0.9-3.4,2-6.8,3-10.3c-12.7,0-25.3,0-37.9,0C0,235.1,0,233.5,0,232z M77.4,86.2c-1,0.5-1.9,1.1-2.9,1.4c-3.1,1.2-6,2.7-8.7,4.7
		c-1.2,0.9-2.5,1.7-3.5,2.8c-4,4-6.7,9-9.7,13.8c-0.4,0.7-0.9,1.4-1.1,2.1c-1.2,4.3-2.4,8.6-3.5,12.9c-0.5,1.7-1.2,3.3-1.5,4.9
		c-0.7,3.4-1.2,6.8-1.7,10.3c-0.4,2.7-0.7,5.3-1,8c-0.1,0.9-0.2,1.8-0.3,2.7c-0.3,3-0.8,5.9-0.9,8.9c-0.1,4.8,0.1,9.7-0.1,14.5
		c-0.2,5,0.9,9.9,1.6,14.8c0.6,4,1.7,8,1.3,12.1c-0.2,1.8,0.6,2.9,2.1,3.7c3.8,2.1,7.4,4.2,11.2,6.2c1.5,0.8,3.2,1,4.7,1.7
		c2.5,1.2,4.9,2.8,7.5,3.9c3.1,1.4,6.4,2.4,9.5,3.8c4.8,2.1,9.8,3.2,14.9,4.1c3.3,0.6,6.7,0.9,10,1.5c2.5,0.4,4.9,1.2,7.4,1.6
		c1,0.2,1.8,0.4,2,1.4c3.9-0.7,7.7-1.3,11-1.9c0.8-0.7,1.2-1.3,1.8-1.6c1.4-0.7,2.7-1.5,3.5-2.9c0.3-0.5,0.7-0.9,1.2-1.2
		c5.8-4.4,11.9-8.3,18.2-11.8c1.1-0.6,2.3-1.1,3-2c1.1-1.4,1.9-3,2.6-4.6c0.8-1.6,1.9-3.1,1.4-4.9c-2,1.4-4,2.7-6,4.1
		c-0.7,0.5-1.4,1-2.1,1.5c-1.7,1.1-3.3,2.3-5.1,3.3c-1,0.6-2.1,0.4-3-0.2c-0.9-0.7-0.8-1.7-0.5-2.6c0.5-1.3,1.1-2.5,1.7-3.6
		c0.9-1.6,1.9-3.2,3-5c-1.9-0.2-3.9,0.5-4.9-1.9c-0.4,0.9-0.7,1.4-1,2c-1,2.3-2.4,4.3-4.3,6c-1.9,1.6-3.7,3.3-5.4,5.2
		c-1.2,1.4-2.1,3-2.2,5.1c0.8,0,1.6-0.2,2.2,0.1c0.5,0.2,0.8,0.8,1.3,1.2c-0.4,0.3-0.9,1-1.3,1c-1.8,0-3.7-0.1-5.4-0.5
		c-1.9-0.4-3.6-1.3-5.5-1.8c-5.5-1.3-10.6-3.7-15.8-6c-3.4-1.5-6.7-3.4-10.1-4.9c-3.3-1.5-6.5-3-9.9-4.2c-4.4-1.6-8.9-2.8-13-5.1
		c-0.6-0.4-1.1-0.3-1.4,0.5c-0.8,1.6-2.2,2.6-3.8,3.2c-0.3,0.1-1-0.1-1.2-0.4c-0.2-0.3-0.1-1,0.2-1.3c0.3-0.4,0.9-0.5,1.3-0.8
		c0.4-0.3,1-0.7,1.2-1.1c0.5-1.2,0.8-2.4,1.1-3.6c0.8-3,1.5-6,2.3-9c0.5-2.1,1.2-4.1,1.7-6.2c0.6-2.9,1.1-5.9,1.7-8.8
		c0.3-1.7,0.7-3.3,1-5c0.2-1.3,0.1-2.6,0.3-3.9c0.3-1.9,1-3.8,1.3-5.8c0.5-3.2,0.8-6.5,1.1-9.8c0.2-2.5,0.3-5,0.5-7.5
		c0.1-0.7,0.3-1.5,0.7-2c0.2-0.4,0.9-0.4,1.4-0.6c0.1,0.5,0.4,1.1,0.4,1.6c-0.2,1.6-0.4,3.3-0.7,4.9c0.1,0,0.2,0.1,0.3,0.1
		c0.2-0.3,0.5-0.6,0.7-0.9c0.9-2.1,1.9-4.2,2.7-6.4c0.9-2.6,1.6-5.3,2.5-7.9c1-3.1,1.5-6.2,1.7-9.4c0-0.6-0.2-1.3-0.4-1.9
		c-0.2-0.8-0.7-1.6-0.8-2.4c-0.5-4-2.2-7.6-4-11C80.7,92.1,78.2,89.6,77.4,86.2z M81.8,53.7c-0.2,0.1-0.3,0.2-0.5,0.3
		c0.2,2.4,1,4.6,2,6.7c0.6,1.2,2.5,1.3,3.5,0.3c1-1,2.3-0.9,2.8,0.4c0.7,1.8,1.6,3.7,1.7,5.6c0.2,2.8,1.6,4.8,3.4,6.7
		c2.2,2.3,5,3.5,7.8,4.6c3.4,1.3,6.9,1.7,10.4,1.3c3.8-0.5,7.4-1.4,10.8-3.5c3.3-2.1,6.6-4.1,8.9-7.3c1.6-2.2,3-4.5,2.1-7.7
		c-0.9-3-0.9-6.3-1.1-9.5c-0.1-1.9,0.2-2.1,2-2.2c1.7-2.5,1.5-5.2,0.3-7.8c1.1-0.4,1.6,0,1.8,0.8c0.9,2.3,0.7,4.5-0.3,6.7
		c-0.5,1.1-0.7,2.2-2.4,1.9c-0.1,2.1-0.1,4.1,0.6,6.1c2.2-0.9,2.7-1.9,2.4-4.1c-0.1-0.6,0-1.3,0-1.9c0.2-1.8,0.5-3.5,0.6-5.3
		c0.1-1.9,0-3.8,0-5.7c0-1.2-0.5-2-1.3-2.8c-1.1,0.4-1.1,1.2-1.3,2.1c-0.1,0.4-0.6,1-0.9,1c-0.4,0-0.9-0.4-1.2-0.8
		c-0.3-0.3-0.5-0.8-0.7-1.2c-0.5-0.8-1.2-1.5-1.6-2.4c-0.7-1.9-2.2-3.1-4-3.7c-0.7-0.2-1.5-0.1-2.3-0.1c-3.1-0.1-6,0.8-8.9,1.9
		c-0.5,0.2-1.1,0-2,0c1.2-1.8,2.4-2.6,4.2-2.7c2.1-0.2,4.1-0.5,6.4-0.8c-1.1-0.7-2-1.3-2.8-1.9c-2-1.5-3.8-3.3-4.9-5.6
		c-1.5-3-3.4-5.5-6.6-6.9c-2.3-1-4.6-2.3-6.6-3.3c-1.2,1.1-2.3,2.5-3.8,3.4c-3,1.8-3.9,4.8-4.7,7.8c-0.8,3.1-1.2,6.4-1.9,9.5
		c-0.4,1.6-1,3.1-1.7,5c0.9-0.4,1.7-0.6,2.2-1c1.8-1.2,3.8-1.8,5.9-1.6c0.5,0.1,1.3,0.5,1.4,0.9c0.3,0.8-0.6,1.1-1.2,1.2
		c-1.4,0.3-2.9,0.4-4.3,0.8c-2.6,0.8-5.5,0.8-7.3,3.3c-0.6,0.8-1.2,1.6-1.7,2.5c-1.5,2.8-2.9,5.7-1,9c0.1,0.2-0.1,0.7-0.2,1
		c-0.3-0.2-0.8-0.2-1-0.5c-0.7-1.2-1.3-2.4-2-3.5c-0.2-0.4-0.8-0.6-1.3-0.6c-0.3,0-0.8,0.6-0.8,0.9c0,0.4,0.4,0.8,0.8,1.2
		c0.4,0.4,1,0.7,1.4,1.2c0.2,0.3,0,0.9,0,1.3c-0.4-0.1-0.7-0.2-1.1-0.4C82,54.2,81.9,53.9,81.8,53.7z M142.6,203.8
		c0.1,0.1,0.2,0.2,0.3,0.2c0.6-0.3,1.3-0.5,1.9-0.9c1.8-1.2,3.4-2.6,5.3-3.7c2.7-1.5,4.9-3.4,7-5.7c2.2-2.4,3.5-5.2,4.2-8.3
		c1.3-5.3,2.1-10.6,3.2-15.9c0.8-4.1,1.8-8.2,2.6-12.3c0.3-1.3,0.2-2.8,1-3.8c1-1.3,1.2-2.7,1.4-4.1c0.3-2.2,0.2-4.5,0.6-6.6
		c1.2-5.8,2.5-11.5,3.8-17.3c0.1-0.4,0.3-0.9,0.2-1.3c-0.2-3.4,0.7-6.8,1.4-10c1-4.3,0.8-8.6,0.2-12.9c-0.6-4.2-3.4-6.7-6.8-8.6
		c-4.1-2.3-8.4-4.4-13-5.6c-2-0.5-4-1-6.2-1.5c0.2,0.8,0.3,1.3,0.4,1.7c0.6,2,1.4,3.9,1.8,5.9c0.9,5.2,2.3,10.2,4,15.2
		c0.7,2.1,0.9,4.3,1.2,6.5c0.3,2.3,0.6,4.6,0.7,6.9c0.1,1.6,1.1,3.2-0.1,4.8c-0.3,0.4-0.3,1-0.3,1.5c0,0.3,0.3,0.9,0.5,0.9
		c0.3,0.1,0.8-0.2,1.1-0.4c0.2-0.1,0.2-0.5,0.3-0.8c0.9-2,1.7-4,2.7-5.9c0.2-0.3,0.8-0.7,1.1-0.6c0.3,0.1,0.6,0.6,0.8,1.1
		c0.1,0.3,0,0.6-0.2,0.9c-1.5,3-3,6-4.5,9.1c-0.4,0.8-0.8,1.7-1.1,2.5c-0.4,1.1-0.8,2.2-1.1,3.3c-0.6,1.8-1.4,3.6-1.8,5.5
		c-0.8,4-1.4,8-2,12c0,0.2-0.1,0.5-0.1,0.7c0.5,4.4,0,8.7-1.1,12.9c-0.8,2.9-1.7,5.8-4.6,7.5c-0.3,0.2-0.5,0.6-0.8,0.9
		c0.1,0.2,0.1,0.3,0.2,0.5c1.8-0.1,3.5-0.3,5.3-0.4c0.5,0,1.1,0.2,1.6,0.3c-0.2,0.5-0.3,1.3-0.7,1.5c-0.9,0.4-1.9,0.7-2.9,0.7
		c-1.2,0.1-2.5-0.2-3.7-0.2c-1.7,0-2.3,0.5-2.7,1.9c-0.3,1.1-0.6,2.2-1,3.2c-0.7,1.9-1.5,3.7-2.4,5.7c0.8-0.8,1.4-1.5,2-2.2
		c1.9-1.8,4.6-1.3,5.5,1.1c0.6,1.4,0.6,2.9-0.1,4.2c-1.4,2.6-2.9,5.1-4.3,7.7C143.1,202.1,142.9,203,142.6,203.8z M35.5,265.3
		c0.1,0.5,0.1,0.8,0.3,1c2.1,4.7,5.4,8.2,10.3,10c0.6,0.2,1.1,0.4,1.7,0.7c3.5,1.3,7.1,2.2,10.8,2.5c2.9,0.2,5.7,0.4,8.6,0.6
		c3.7,0.3,7.3,0.8,11,0.8c6.5,0.1,13,0.1,19.5,0c3,0,6-0.1,9-0.3c1.2-0.1,2.4-0.4,3.5-0.8c3.9-1.2,7.8-2.6,11.8-3.8
		c0.8-0.2,1.2-0.7,1.1-1.5c-0.2-2-0.1-4-0.6-5.9c-1.1-4.3-0.8-8.3,1.4-12.1c0.5-0.8,1-1.5,1.6-2.5c-1.8-0.8-3.5-1.5-5.2-2.3
		c-2.4-1.2-4.8-1-7.2-0.4c-6.2,1.6-12.5,3.4-18.7,5c-2.6,0.7-5.3,1-7.8,1.8c-3.5,1.1-6.8,2.7-10.3,3.6c-6.1,1.6-12.2,3-18.4,4.2
		c-4.5,0.9-9.1,1.2-13.7,1.7C41.1,268.2,38.2,267.5,35.5,265.3z M94.2,75.8c0.9,2.2,1.7,4.4,2.6,6.6c1.5,3.7,3.1,7.3,4.3,11.1
		c1.2,3.8,3.2,7.4,3.4,11.5c0.1,1.6,0.8,3.3,1,4.9c0.4,3.7,0.2,7.4-0.7,11.1c-0.8,3.3-0.4,3.7,1.8,5.3c0.6,0.4,1.1,1,1.6,1.5
		c2,1.8,4.1,3.2,6.8,3.8c2.5,0.6,4.8,0,7.2-0.2c1.5-0.1,3-0.5,4.4-1.1c4-1.8,6.4-5.1,7.8-9.2c0.4-1.3,0.8-2.6,1.1-4
		c0.8-3.7,1.5-7.5,2.2-11.2c0.2-1.1,0.4-2.1,0.5-3.2c-2.7,2.1-5.5,3.5-8.5,4.5c-2,0.7-4.2,1.2-6.3,1.7c-0.4,0.1-0.9-0.2-1.2-0.5
		c-0.1-0.1,0.2-0.7,0.4-1.1c0.1-0.4,0.4-0.8,0.4-1.2c0.3-2.2,0.5-4.4,0.9-6.6c0.8-4.4,3.5-7.9,5.5-11.7c0.4-0.7,0.7-1.5,0.8-2.3
		c0.3-2.7,0.5-5.5,0.8-8.2c0.2-1.4,0.5-2.9,0.8-4.6c-0.6,0.5-1,0.7-1.4,1c-4.4,3.5-9,6.3-14.6,7.3c-3.8,0.7-7.5,0.8-11.2-0.1
		C101,80,97.3,78.5,94.2,75.8z M65.2,237.3c15.2-2.9,30.2-5.8,45.3-8.7c-4-0.9-8.1-1.6-12.1-2.4c-3.9-0.7-7.9-1.3-11.7-2.3
		c-2.7-0.7-5.3-2-8-2.8c-3.9-1.2-7.6-2.7-11.1-4.9c-1.7-1.1-3.7-1.8-5.6-2.6c-0.6,0.9-1,1.6-1.5,2.3c2.2,1.9,4.4,3.8,6.8,5.8
		c0-0.7,0-1.1,0.1-1.4c0.1-0.3,0.4-0.5,0.7-0.8c0.2,0.3,0.5,0.5,0.5,0.8c0.1,0.6,0,1.3,0,2.3c1.1,0.6,2.5,1.3,3.9,2
		c0.8,0.4,1.6,0.6,2.3,1.1c0.3,0.2,0.3,0.8,0.5,1.2c-0.5,0.1-1,0.4-1.4,0.3c-3-1.3-5.8-2.7-8.4-4.7c-0.2-0.2-0.5-0.3-0.7-0.4
		c-0.7-0.2-1.5-0.3-2.2-0.5c-1.5-0.6-3-1.2-4.4-1.8c-0.4,1-0.7,1.8-1.2,2.8c2.5,2.2,5.1,4.4,7.9,6.8c0-0.8,0-1.4,0.1-1.9
		c0.1-0.4,0.4-0.8,0.6-1.1c0.2,0.3,0.6,0.7,0.7,1c0.1,0.6,0.1,1.2-0.1,1.8c-0.3,1,0.2,1.3,1,1.5c1.8,0.5,3.5,1,5.3,1.5
		c0.8,0.2,1.7,0.3,2.6,0.6c0.3,0.1,0.4,0.6,0.7,0.9c-0.3,0.1-0.6,0.4-0.9,0.4c-1.2-0.1-2.4-0.2-3.5-0.5c-2.5-0.7-5.2-1-7.2-2.8
		c-1.5-1.4-3.5-1.6-5.1-2.9c-0.2,0.9-0.5,1.7-0.6,2.4c0,0.4,0.1,0.8,0.4,1.1c1.4,1.4,2.8,2.7,4.2,4c0.3,0.3,0.5,0.8,0.7,1.2
		c0.1-0.1,0.3-0.3,0.4-0.4c0.3-0.7,0.7-1.3,1.1-2.1C66.2,235.1,65,236,65.2,237.3z M120.9,208.9c1.2,0.5,2,0.9,2.8,1.2
		c2.2,0.9,2.4,0.8,3.1-1.4c1.3-3.9,4-6.8,7.2-9.1c2.6-1.9,3.7-4.5,5.1-7.4c-0.9,0.7-1.6,1.4-2.4,2c-2,1.4-4.4,2.4-5.9,4.2
		c-2.5,3.1-5.2,6-8.2,8.5C122,207.4,121.6,208.1,120.9,208.9z M88.4,61.9c-1,0.6-1.8,1.1-2.8,1.7c0.6,1.2,1.2,2.6,2,3.7
		c0.4,0.5,1.3,0.7,2,1c0.1-0.6,0.5-1.3,0.3-1.9C89.5,64.9,88.9,63.5,88.4,61.9z M127.3,255.6c-1.8,2-2.5,4.3-2.9,6.8
		c1.6-1.4,3.2-2.7,4.9-4.2C128.5,257.2,127.9,256.4,127.3,255.6z M146.5,192.8c0-0.4,0-1,0.1-1.6c0.1-1.1-0.2-2-1.3-2.4
		c-1-0.4-1.9,0.2-2.3,1.1c-0.3,0.7-0.3,1.6-0.2,2.4c0,0.2,0.9,0.4,1.4,0.4C144.8,192.9,145.5,192.8,146.5,192.8z M56.1,221.4
		c0.1-0.9,0.2-1.6,0.3-2.3c0.1-1.1-0.8-1-1.4-1.1c-0.3,0-0.9,0.4-1.1,0.8C53.5,219.8,54.1,220.5,56.1,221.4z M57.5,227.4
		c-0.9-0.1-1.9-1.3-2.8,0.1c-0.5,0.8,0.3,1.7,2,2.5C56.9,229.2,57.2,228.4,57.5,227.4z M57.9,212.1c-0.3,1.2-0.1,2.2,0.9,2.5
		c0.4,0.1,1.1-0.6,1.8-1.1C59.5,212.9,58.8,212.6,57.9,212.1z"/>
	<path class="st0" d="M113.2,69.1c-2.2-0.6-4.1-1-6-1.5c-0.5-0.1-0.9-0.3-1.4-0.4c-1.3-0.3-1.5-0.6-0.8-1.7c1.4-2.2,3.2-4.1,5.5-4.9
		c1.6-0.6,3.5-1.1,5.2-1.4c2.7-0.3,5.2,0.7,7.3,2.4c0.3,0.2,0.3,1.3,0.1,1.5c-1.3,1.3-2.6,2.8-4.2,3.7
		C117.1,67.8,115,68.4,113.2,69.1z M122,62c-1.9-1.7-4.1-2.3-6.3-1.9c-1.5,0.3-3.1,0.6-4.5,1.1c-2.3,0.7-4.1,2.6-5.3,5
		C110.8,63.1,115.9,61.1,122,62z M121,63.9c-2.2,0.6-4.2,1.3-6.3,1.8c-2,0.5-4.1,0.9-6.2,1.4C113.4,68.8,117.4,67.6,121,63.9z
		 M119.4,62.9c-3-0.5-9.9,1.5-10.5,3C110.7,66,118.8,63.8,119.4,62.9z"/>
	<path class="st0" d="M118.7,41.2c-1,0-2,0-2.9,0c-1.2-0.1-1.5-0.6-0.9-1.6c1.4-2.7,5.2-4.6,8.1-3.8c1.2,0.3,2.4,0.8,3.5,1.4
		c1.3,0.7,1.2,1.6-0.1,2.3C124.3,40.8,122.1,41.3,118.7,41.2z M116.5,39.4c0.1,0.2,0.2,0.4,0.3,0.6c1.3,0,2.5,0,3.8,0
		c-0.1-1.1-0.3-1.8-0.4-3C118.8,37.9,117.6,38.7,116.5,39.4z M123.2,36.8c0.4,0.9,0.6,1.5,0.9,2.3c0.3-0.3,0.6-0.7,0.9-1
		C124.5,37.7,124,37.3,123.2,36.8z"/>
	<path class="st0" d="M92,46.3c0.4-0.6,0.8-1.3,1.3-1.8c1.9-1.9,3.8-3.7,6.8-3.5c1,0.1,2.1,0.4,3,0.8c1.2,0.5,1.4,1.8,0.2,2.5
		c-1.7,0.9-3.5,1.8-5.4,2.2c-1.7,0.4-3.6,0.1-5.5,0.1C92.2,46.5,92.1,46.4,92,46.3z M97.1,42.9c-0.8,0.6-1.5,1.3-2.3,1.9
		c0.1,0.1,0.1,0.3,0.2,0.4c0.9,0,1.8,0,2.6,0C97.4,44.5,97.2,43.8,97.1,42.9z M102.3,43.2c-0.7-0.4-1.2-0.6-1.7-0.9
		c0,0.8,0,1.3,0,1.9C101.1,44,101.5,43.7,102.3,43.2z"/>
	<path class="st0" d="M117.3,50.4c1.3,1.9,1.4,3,0.2,4c-0.2,0.2-0.4,0.4-0.6,0.4c-1.7-0.2-2.7,0.9-4,1.6c-0.4,0.2-1.1,0.1-1.7,0
		c-0.6,0-1.4-0.4-1.9-0.2c-2.9,0.9-4-0.9-3.9-3.1c0-1.7,0.5-3.5,0.7-5.2c0.2,0,0.3,0,0.5,0c0,0.6,0.2,1.3,0.1,1.9
		c-0.1,1.2-0.3,2.3-0.4,3.5c0,0.6,0.2,1.2,0.5,1.7c0.4,0.6,0.9,1.1,1.7,0.3c0.7-0.7,1.5-0.7,2.4-0.1c1.2,0.8,1.9,0.7,2.7-0.5
		c0.1-0.1,0.1-0.2,0.2-0.3c1-1.5,1.1-1.5,2.6-0.5c1.1-0.5,1-1.3,0.6-2.3c-0.2-0.4-0.1-0.8-0.2-1.2C117,50.4,117.1,50.4,117.3,50.4z"
		/>
</g>
</svg>
