<?xml version="1.0" encoding="utf-8"?>
<!-- Generator: Adobe Illustrator 19.2.1, SVG Export Plug-In . SVG Version: 6.00 Build 0)  -->
<svg version="1.1" id="Layer_1" xmlns="http://www.w3.org/2000/svg" xmlns:xlink="http://www.w3.org/1999/xlink" x="0px" y="0px"
	 viewBox="0 0 150 282.1" style="enable-background:new 0 0 150 282.1;" xml:space="preserve">
<style type="text/css">
	.st0{fill:#E91E63;}
</style>
<g id="pinworm-lady2">
	<path class="st0" d="M15.3,282.1c1.2-4.4,2.4-8.8,3.5-13.2c0.3-1.2,0.4-2.4,0.4-3.7c0.1-2.4,0.1-4.9,0-7.3c-0.2-4-0.5-8.1-0.7-12.1
		c0-0.5,0-1.1,0-1.6c0-4.6-0.1-9.2-1-13.8c-0.2-1.2-0.2-2.5-0.3-3.7c-0.2-3.3-0.6-6.6-0.7-10c-0.1-1.9,0.2-3.9,0.3-5.8
		c0-0.3,0.2-0.6,0.1-0.8c-0.5-3.4,0.8-6.6,1.6-9.8c0.6-2.5,1.6-4.9,1.8-7.3c0.3-5.6,2.6-10.7,3.1-16.2c0.1-1.5,0.3-3,0.3-4.6
		c-0.1-3.5,1.2-6.4,2.9-9.4c0.7-1.2,0.9-2.8,1.3-4.2c0.2-0.6,0.4-1.1,0.5-1.7c0-0.4-0.1-0.9-0.3-1.2c-1.6-2-3.2-4-4.8-6.1
		c-3.7-4.8-7.7-9.3-11-14.4c-2.9-4.4-5.1-9.2-7.6-13.9c-0.7-1.3-1.4-2.5-2.2-3.7c-2.7-3.9-3-8.2-1.5-12.5c1.2-3.3,2.7-6.5,4.7-9.4
		c3.9-5.8,8-11.4,12.4-16.9c2.2-2.8,5.2-4.9,7.6-7.5c3.2-3.5,6.9-6,11.1-8c2-0.9,4.2-1.7,5.9-3.1c1.5-1.2,2.7-3,2.7-5.2
		c0-3.8-0.2-7.5-0.2-11.3c-0.1-4.1,0.8-7.9,3.3-11.3c0.9-1.2,1.3-2.9,1.5-4.4c0.5-3.5,1-6.9,2.3-10.1c0.5-1.2,1.3-2.5,2.3-3.4
		c2.7-2.7,5.4-5.4,8.3-8c3-2.7,6-5.5,10.1-6.5c1.6-0.4,3.4-0.3,5.1-0.2c3.1,0.3,6.2,0.3,8.8,2.4c2.8,2.3,5.3,5,6.6,8.6
		c0.4,1,1.2,2,2,2.7c2.4,2,3.4,4.6,3.4,7.6c0.1,4.5,0.5,9,1.5,13.4c0.4,2.1,1.8,3.5,3,5.1c0.8,1,1.6,2.1,2.4,3.1
		c1.2,1.7,1.2,3.7,1.3,5.7c0.2,3.4-0.1,6.7-0.6,10.1c-0.3,2,0.4,4.1,0.6,6.2c0,0.2,0.3,0.5,0.5,0.6c2.6,1.6,5.3,3.1,7.9,4.6
		c4.9,2.9,8.2,7.2,11.5,11.7c2,2.7,4.2,5.2,6.2,7.8c4.9,6,8.6,12.7,11.9,19.7c1.2,2.5,1.7,5.3,2.6,7.9c0.4,1.2,1.1,2.3,1.6,3.4
		c1,2.4,0.9,4.6-0.8,6.7c-1.9,2.3-3.6,4.7-5.5,7c-1.6,2-3.5,3.7-5.2,5.7c-1.2,1.5-2.2,3.2-3.3,4.7c-2.1,2.9-4.7,5.1-7.5,7.3
		c-2,1.6-3.9,3.4-5.6,5.3c-3.6,3.9-7.2,7.8-11.5,11c-0.6,0.5-1,1-0.8,1.9c0.7,3.5,1.1,7,1.8,10.5c0.8,4.3,1.3,8.6,1.3,13
		c0.1,3.8,0.6,7.5,0.9,11.3c0.3,3.3,0.7,6.6,1,9.9c0.1,1.4,0.2,2.8,0.6,4.1c0.5,1.8-0.2,3.3-1.2,4.7c-0.4,0.5-0.7,1.4-0.6,2
		c0.6,3.9-0.1,7.6-0.7,11.4c-0.4,2.9-0.7,5.8-1.1,8.7c-0.4,2.4-0.9,4.8-1.3,7.2c-0.5,3.1-1.1,6.2-1.4,9.3c-0.3,4.1-0.5,8.2-0.5,12.4
		c0,2.4,0.5,4.9,0.7,7.3c-0.8,0-1.7,0-2.5,0c-0.2-3.3-0.6-6.6-0.6-9.9c0.1-4.5,0.3-9,0.8-13.4c0.3-3.2,1.2-6.3,1.7-9.4
		c0.9-5.5,1.7-11.1,2.4-16.6c0.3-2.1,0.2-4.1,0.4-6.1c-3.5,0.2-6.7,0.4-9.8,0.7c-4.1,0.3-8.1,0.7-12.2,1.2
		c-3.9,0.5-7.9,1.1-11.8,0.4c-1.5-0.3-3-0.6-4.6-1c0.1,1,0.3,1.9,0.4,2.8c0.6,6.1,1.3,12.1,1.9,18.2c0.2,2,0.2,4,0.6,5.9
		c0.9,4.8,2.1,9.5,3,14.3c0.8,4.3,2.1,8.5,1.8,12.9c-0.7,0-1.5,0-2.2,0c-0.5-3.6-1-7.1-1.6-10.7c-1.1-6.3-2.6-12.5-3.6-18.9
		c-0.6-3.9-0.7-7.9-1-11.8c-0.2-1.9-0.4-3.8-0.7-5.7c-0.3-2.5-0.8-4.9-1-7.4c-0.3-2.8-0.7-5.5-1.6-8.1c-0.4-1-0.4-2.1-0.6-3.2
		c-0.3-1.6-0.6-3.3-0.9-4.9c-0.2,0-0.3,0-0.5-0.1c-1,1.7-2.2,3.3-2.8,5.1c-1.3,3.7-2.3,7.4-3.2,11.2c-1.9,7.8-3.7,15.5-5.5,23.3
		c-0.6,2.5-0.9,5.1-1.4,7.7c-0.9,4.9-1.8,9.8-2.8,14.7c-0.6,3-1.5,5.9-2.2,8.9c-0.7,0-1.5,0-2.2,0c0.4-1.7,0.9-3.4,1.2-5.1
		c1.5-8.2,2.9-16.4,4.6-24.5c1.5-7.1,3.3-14,5-21c0.4-1.6,0.8-3.2,1.2-5c-1.2,0.3-2.1,0.7-3,0.7c-3.3-0.1-6.5-0.1-9.7-0.6
		c-7.4-1.2-14.5-3.4-21.4-6.5c-1.7-0.8-3.4-1.6-5.3-2.4c0.4,4.9,0.9,9.7,1.3,14.4c0.3,4.2,0.5,8.4,0.7,12.6
		c0.3,6.5,0.6,12.9,0.8,19.4c0,2-0.1,4-0.6,5.9c-1,4.1-2.2,8.2-3.3,12.2C16.9,282.1,16.1,282.1,15.3,282.1z M92.7,164.7
		c2.2-2.4,4.6-5,7-7.7c1.2-1.4,1.8-2.8,0.8-4.8c-2.3-4.9-2.9-10.2-3.4-15.5c-0.1-1.5,0-3,0.2-4.4c0.4-2.5,0.7-5.1,1.6-7.5
		c2.3-6.1,4.9-12,7.4-18.1c0.5-1.3,0.9-2.6,1.2-3.7c-2.1-1.6-4.1-3-6-4.5c-1.9-1.6-3.7-3.2-5.6-4.9c-0.2,0.2-0.5,0.3-0.6,0.6
		c-0.6,1.7-2,2.5-3.3,3.5c-2.4,1.8-5,3.1-8,3.5c-0.7,0.1-1.3,0.7-1.9,1.1c-0.6,0.5-1.1,1.2-1.7,1.6c-2,1.5-4.3,1.7-6.5,0.5
		c-1.9-1-3.9-1.8-6.1-1.3c-2.9,0.7-5.8,0.8-8.7,0.3c-1.5-0.3-2.3,0.1-3.3,1.1c-1.7,1.8-3.6,3-6.3,2.3c-0.8-0.2-1.3-0.7-1.5-1.4
		c-0.2-0.8,0.3-1.1,0.9-1.4c0.3-0.2,0.7-0.3,1-0.5c0.9-0.7,1.9-1.3,2.6-2.1c1.3-1.5,1.6-3.3,1.5-5.3C54,94.1,53.7,92,53,90
		c-2,1.2-3.8,2.8-5.9,3.4c-2.1,0.6-4.4,0.3-6.7,0.4c-0.2,1.7-0.9,3.1-2.6,3.8c1.1,2.9,2.2,5.8,3.2,8.8c1,3,2.2,6,2.7,9.2
		c0.9,5.8,1.1,11.7,0.9,17.6c-0.1,1.4-0.4,3-1,4.3c-1.1,2.5-2.5,4.8-3.8,7.1c-0.3,0.6-0.4,1-0.1,1.6c1.9,3.3,3.7,6.6,5.7,9.8
		c1.1,1.7,2.4,3.4,4,4.5c0.8,0.6,2.5-0.1,3.8-0.2c0.1,0,0.2,0,0.4,0c4.3-0.1,8.6-0.3,12.9-0.4c3.5-0.1,7.1-0.4,10.5,0.1
		c4.4,0.7,8.7,2.1,13,3.3C90.9,163.5,91.7,164.2,92.7,164.7z M115.2,83.2c1.1,0.8,1.2,1.6,0.8,2.5c-0.2,0.5-0.5,1-0.7,1.6
		c-1.2,3.9-2.5,7.9-3.6,11.9c-0.1,0.5,0,1.2,0.3,1.5c1.2,1.6,2.6,3,3.8,4.6c1.8,2.4,3.5,5,5.2,7.4c1.9,2.6,3.8,5.2,5.8,7.8
		c0.4,0.6,1.1,1,1.7,1.5c0.8,0.8,0.7,1.5,0,2.4c-0.9,1.1-1.9,2.3-2.6,3.6c-3,4.7-5.9,9.4-10.1,13.2c-0.9,0.8-1.7,1.8-2.5,2.7
		c-6,7.2-12,14.5-18.1,21.7c-2.8,3.3-4.9,6.9-6.1,11c-0.9,3.1-2.4,5.7-5.1,7.5c-1.6,1-2.9,2.4-4.5,3.8c1.8,0.4,2.3,1.5,2.6,3
		c2.3-1.7,4.5-3.3,6.7-4.9c0.5-0.4,0.9-1.1,1.7-0.5c0.8,0.5,1.4,1.2,0.8,2.2c-0.9,1.6-1.9,3.2-2.9,4.7c-1.5,2.2-3,4.4-4.6,6.7
		c1.6,0.2,3.4-0.5,3.8,1.7c0.3-0.4,0.6-0.7,0.8-1c3.1-4,6.3-7.9,8.2-12.6c0.1-0.3,0.5-0.5,0.7-0.7c0.1,0.1,0.2,0.2,0.3,0.2
		c-0.1,3.4-2.5,5.9-4.1,8.7c-1.7,2.8-3.8,5.4-5.5,7.9c1,0.8,1.9,1.5,2.9,2.3c-0.2,0-0.1,0,0,0c0.4-0.5,0.8-1.1,1.3-1.6
		c2.8-3.1,5.5-6.2,6.8-10.3c0.3-1.1,0.9-2.1,1.3-3.2c0.2-0.6,0.1-1.2,0.3-1.8c0-0.2,0.3-0.4,0.5-0.6c0.2,0.2,0.5,0.5,0.5,0.7
		c0,1.1,0.1,2.2-0.2,3.2c-1,2.8-2.3,5.5-3.5,8.3c-0.7,1.6-1.5,3.2-2.2,4.7c1.4,0.3,2.6,0.6,3.9,0.9c0.6-1.3,1.4-2.9,2.2-4.5
		c0.5-1.1,1.1-2.2,1.3-3.3c0.7-3.4,1.2-6.8,1.8-10.3c0-0.3,0.5-0.5,0.7-0.7c0.2,0.2,0.5,0.5,0.5,0.7c0,0.9-0.1,1.9-0.1,2.8
		c0,1.5,0,2.9,0.2,4.4c0.1,0.4,0.9,0.7,1.4,1.1c0.3-0.5,0.6-1,0.7-1.5c0.2-1.3,0.3-2.6,0.5-3.9c0-0.4,0-0.9,0-1.4
		c-0.1-1.6-0.2-3.1-0.5-4.7c-0.3-1.9-0.6-3.8-1.1-5.6c-0.7-2.5-2.3-4.9-1.6-7.7c0-0.2-0.2-0.5-0.4-0.7c-0.3-0.3-0.6-0.5-0.9-0.8
		c-0.6-0.6-0.4-1.3,0.1-1.8c0.6-0.7,1.1-0.2,1.5,0.2c0.3,0.3,0.5,0.5,0.6,0.6c2.4-2,4.7-4,7-5.9c0.7-0.6,1.3-1.1,1.9-1.8
		c3.3-3.6,6.3-7.4,10.3-10.4c1.4-1.1,2.9-2.2,4.2-3.5c1.7-1.8,3.2-3.9,4.7-5.8c1.9-2.3,3.6-4.7,5.7-6.8c2.8-2.9,5.2-6,7.4-9.4
		c0.9-1.3,0.6-2.9-0.3-4.2c-1.3-1.8-2.3-3.8-2.6-6c-0.4-2.5-1.5-4.7-2.6-7c-2.8-5.5-5.7-10.8-9.5-15.7c-3-3.8-5.9-7.7-8.9-11.5
		c-1.5-2-2.9-4-4.8-5.7c-3.2-2.9-6.7-5.1-10.5-6.9c-0.3-0.1-0.7-0.2-0.9,0c-0.2,0.1-0.2,0.6-0.2,0.9c-0.1,0.7,0.1,1.5-0.2,2.1
		c-1.9,4.6-4.8,8.6-8.4,12c-0.3,0.3-0.6,1.1-0.5,1.4c0.7,1.4,1.4,2.9,2.3,4.1c1.5,1.9,3.3,3.6,4.9,5.3c1.3,1.3,2.9,2.1,4.7,2.5
		C111.5,91.9,112.8,87.4,115.2,83.2z M56.9,180.8c-1.2-1.3-2.6-2.6-4-4.1c-1.4-1.5-3.1-2.8-3.7-5c-0.5-2.1-0.9-4.2-1.3-6.2
		c-0.4-2.2-1.3-4.1-2.8-5.9c-1.6-1.8-2.8-4-4.1-6.1c-2.1-3.3-3.8-6.9-6.3-9.8c-4.9-5.8-8-12.6-11-19.5c-2-4.7-3.9-9.5-5.9-14.2
		c-0.2-0.5-0.6-0.9-0.9-1.3c-0.3-0.4-0.7-0.8-0.7-1.3c-0.1-0.6-0.2-1.5,0.1-1.7c0.6-0.5,1.2,0.1,1.6,0.7c0.6,0.9,1.4,1.8,2.2,2.9
		c2-1.6,4-3,5.8-4.6c3.7-3.3,7.4-6.6,11-9.9c0.3-0.3,0.6-0.7,0.6-1c0-1.5,0.2-3-0.1-4.4c-0.6-3.1-1.4-6.2-2.1-9.3
		c-0.2-0.8-0.2-1.6-0.3-2.3c1.3-0.4,1.5,0.3,1.8,1.1c1.1,3.1,2.2,6.2,3.3,9.4c0.5,0,1.3-0.1,1.9,0c3.2,0.9,5.5-0.8,7.7-2.7
		c0.8-0.6,1-1.3,0.5-2.3c-2-4.3-3.9-8.6-5.8-13c-0.7-1.7-1.4-3.5-1.9-5.3c-0.3-1.4-0.5-1.6-1.8-1c-1.7,0.9-3.3,1.8-5,2.7
		c-2.4,1.2-4.6,2.6-6.5,4.5c-2.1,2.2-4.4,4.2-6.6,6.4c-1.5,1.5-3.1,2.8-4.3,4.5C14,88.2,9.1,94.2,5.3,101c-1.4,2.6-2.5,5.3-2.9,8.3
		c-0.4,3,0.9,5.5,2.2,7.9c2.6,4.8,5.4,9.5,8,14.3c2.3,4.2,5.2,8,8.3,11.8c4.3,5.2,9.1,10,12,16.3c0.2,0.4,0.9,0.6,1.3,0.8
		c0.7,0.3,1.5,0.5,2.2,0.8c0.3,0.2,0.6,0.8,0.5,1c-0.2,0.3-0.6,0.7-1,0.7c-0.7,0.1-1.4-0.1-2-0.1c-0.4,1-0.7,2.1-1.3,3
		c-2.9,4.5-4.7,9.4-6.4,14.4c-0.2,0.5-0.2,1.2,0,1.6c0.9,1.5,1.1,3,1,4.7c0,0.5,0.4,1.4,0.8,1.5c0.8,0.2,1.6-0.3,1.7-1.2
		c0.2-1.3,0.3-2.5,0.4-3.8c0-0.7-0.2-1.5-1.2-1.6c-0.2,0-0.5-0.4-0.6-0.6c0-0.1,0.2-0.5,0.4-0.5c1.3,0,1.8-1,2.3-1.9
		c0.1-0.2,0.6-0.4,0.7-0.4c0.2,0.2,0.4,0.5,0.5,0.7c0.3,3.5,0.5,7,0.8,10.4c0.2,3.4,2.3,6.1,3.3,9c0.8-0.4,1.3-0.8,1.9-0.9
		c0.6-0.1,1.3,0.2,2,0.3c-0.7-2.1-1.5-4.2-2.1-6.3c-0.6-2.2-1-4.5-1.4-6.7c-0.1-0.4,0.4-0.9,0.7-1.4c0.2,0.4,0.5,0.7,0.7,1.1
		c0.1,0.2,0.1,0.5,0.1,0.7c0.7,2.4,1.2,4.8,2.1,7c0.9,2.1,2.1,4.1,3.1,5.9c1.5-0.5,2.6-1,3.5-1.3c-1.6-3.4-3.3-7-4.9-10.6
		c-0.6-1.3-1-2.7-1.4-4c-0.1-0.2,0.1-0.8,0.3-0.8c0.3-0.1,0.8,0,1,0.2c0.3,0.3,0.3,0.7,0.5,1.1c1.6,3.5,3.2,7,4.8,10.5
		c0.1,0.3,0.6,0.5,0.9,0.5c0.8,0,1.6-0.1,2.5-0.2c-1.4-3.8-2.7-7.7-4.1-11.6c-0.1-0.3-0.3-0.5-0.5-0.7c-0.8-0.7-0.2-1.3,0.1-1.8
		c0.6-0.6,1.2-1.5,2.2-1c0.8,0.4,1.5,1,2.2,1.5c1.6,1.4,3.2,2.8,4.6,4.1C55.4,183,56.1,182,56.9,180.8z M110.4,102.3
		c-0.6,2.1-1.2,4-1.8,5.8c-0.3,0.8-0.7,1.6-1,2.4c-1.2,3.1-2.4,6.2-3.7,9.2c-1.9,4.3-3.8,8.4-4.1,13.2c-0.3,4.5,0,8.9,1.1,13.2
		c0.6,2.2,1.5,4.2,2.4,6.6c1.2-1.5,2.3-2.7,3.3-4c2.7-3.2,5.4-6.4,8.1-9.6c1-1.1,2.2-2,3.1-3.2c3-4.2,5.9-8.5,8.6-12.4
		c-2.4-3.1-4.9-5.9-6.8-8.9c-1.8-2.9-3.4-5.9-5.8-8.3C112.5,104.9,111.5,103.6,110.4,102.3z M37.7,143.4c0.7-1.1,1.4-2.1,2-3.1
		c1.8-2.9,2.9-6,2.7-9.4c-0.1-2-0.3-3.9-0.2-5.9c0.1-6.5-1.2-12.7-3.7-18.6c-1-2.4-1.7-4.9-2.7-7.6c-1.7,1.5-3.2,2.8-4.6,4.3
		c-2.8,2.9-5.9,5.5-9.2,7.8c-0.7,0.5-0.9,0.8-0.5,1.7c0.8,1.8,1.4,3.6,2.2,5.4c1.9,4.3,3.9,8.6,5.7,12.9
		C31.2,135.5,34.4,139.4,37.7,143.4z M96.2,85.5c-0.6,1.9,0.2,3.7,0.8,5.4c0.4,1.2,1.7,2.1,2.7,3c1.2,1.2,2.5,2.3,3.8,3.3
		c1.4,1.1,2.8,2,4.3,3.1c0.4-0.4,0.6-0.8,0.8-1c0.9-0.7,0.7-1-0.2-1.4c-1.1-0.4-2.2-0.9-3-1.6c-2.2-2-4.3-4.2-6.3-6.4
		C98,88.5,97.2,86.9,96.2,85.5z M40.4,91.5c2.2-0.2,4.4,0,6.4-0.7c2-0.7,3.8-2,5-3.9c-0.6,0-1.2,0.2-1.7,0.5
		c-0.9,0.5-1.6,1.2-2.5,1.7c-1.8,0.9-3.6,1.2-5.6,0.8C40.5,89.6,40.2,89.9,40.4,91.5z M48.5,200.1c0-0.6-1.8-2.2-2.6-1.9
		c-0.6,0.2-1.3,0.8-1.6,1.4c-0.3,0.7,1.6,2.5,2.3,2.5C47.7,201.9,48.5,201.1,48.5,200.1z M86.5,201.5c-0.1,0-0.2-0.1-0.3-0.1
		c0.2-1-0.2-1.2-1.1-1.2c-1.1,0.1-2,0.6-2.4,1.6c-0.2,0.5,0,1.3,0.4,1.7c0.3,0.4,1.4,0.7,1.6,0.4C85.4,203.3,85.9,202.4,86.5,201.5z
		 M96.6,209.9c0.9,0,1.9-1.1,1.8-2.2c0-0.9-0.5-1.6-1.5-1.5c-0.9,0-2.2,1.3-2.2,2C94.7,209.1,95.6,209.9,96.6,209.9z M90,206.4
		c-0.9-0.7-1.5-1.5-2.2-1.6c-0.9-0.2-2.4,1.1-2.3,1.8c0,0.9,1.3,2.1,2.1,1.8C88.4,208,89,207.2,90,206.4z M59.2,184.7
		c0-1-1-2.4-1.6-2.4c-0.6,0-1.8,1.7-1.5,2.5c0.2,0.6,1.1,1.2,1.7,1.3C58.8,186.5,59.2,185.7,59.2,184.7z M79.2,189.1
		c-0.8,0-1.5,0.7-1.4,1.6c0,0.8,0.9,1.8,1.5,1.8c0.9-0.1,1.5-0.6,1.4-1.6C80.7,189.6,80.2,189.1,79.2,189.1z M38.8,202.3
		c0.2,0,0.4,0,0.6,0c0.4-0.6,0.9-1.1,1.2-1.7c0.2-0.3-1.8-2-2.3-1.9c-0.4,0.1-1.2,0.8-1.1,0.9C37.7,200.6,38.3,201.5,38.8,202.3z
		 M47.7,194.9c0.6,0.9,1.1,1.8,1.6,2.6c0.5,0.9,1,0.5,1.3-0.1c0.4-0.6,0.4-1.3-0.2-1.9C49.7,194.8,48.8,194.6,47.7,194.9z"/>
</g>
</svg>
