<?xml version="1.0" encoding="utf-8"?>
<!-- Generator: Adobe Illustrator 18.1.1, SVG Export Plug-In . SVG Version: 6.00 Build 0)  -->
<!DOCTYPE svg PUBLIC "-//W3C//DTD SVG 1.1//EN" "http://www.w3.org/Graphics/SVG/1.1/DTD/svg11.dtd">
<svg version="1.1" id="Layer_1" xmlns="http://www.w3.org/2000/svg" xmlns:xlink="http://www.w3.org/1999/xlink" x="0px" y="0px"
	 viewBox="0 0 120 177.3" style="enable-background:new 0 0 120 177.3;" xml:space="preserve">
<style type="text/css">
	.st0{fill:#E91E63;}
</style>
<g id="pinworm-lady">
	<path class="st0" d="M3.4,0C3.3,7.5,3,15,3,22.6c0,2.5,0.6,5,1.1,7.5c0.3,1.3,1.2,2.1,2.7,1.9c1.3-0.2,2.6-0.2,4.1-0.3
		C9,26.9,6,22.8,6.3,17.6c2.3,1.1,9,17.4,11,27.4c1.9,9.8,3.3,19.6,4.9,29.5c1.5-0.4,3.5-0.8,5.4-1.4c4.3-1.4,8.7-1.3,13.2-1.6
		c5.1-0.3,10.3-1,15.3-2.1c5.3-1.1,10.3-3.3,15.6-4c3-0.4,5-1.3,5.5-3.9c0.3-1.6-0.6-3.6-1.4-5c-0.4-0.7-2.1-1.1-3.2-1
		C64.7,56.7,57,58,49.2,59.3c-1.9,0.3-3.8,0.8-5.8,0.9c-0.9,0.1-1.8-0.6-2.7-1.4c11-2.6,21.9-5,33.2-6.2c-0.9-0.2-1.8-0.5-2.8-0.5
		c-4,0-8,0.1-11.9,0.1c-9.8,0-18.8-3.1-27.3-7.8c-0.4-0.2-0.7-0.6-1.2-1c0.8-2,2-0.9,3-0.5c3.8,1.5,7.4,3.4,11.3,4.6
		c2.6,0.8,5.5,1.1,8.2,1.3c4.6,0.4,9.2,0.6,14.1,0.9c-0.3-0.3-0.4-0.6-0.6-0.6c-5-1.8-9.9-3.6-14.9-5.3c-2.1-0.7-4.3-0.9-6.3-1.8
		c-1-0.4-1.7-1.8-2.3-2.8c-0.2-0.3,0.3-1.1,0.6-1.4c0.3-0.2,1.1-0.1,1.3,0.2c2.1,2.4,5.2,2.5,7.9,3.4c5.5,1.9,11,3.6,16.5,5.3
		c0.7,0.2,1.5,0.3,1.9,0.4c0.2-10.7,0.4-21.3,0.6-31.8c0-1.6,0.1-3.3,0.6-4.8c0.3-0.8,1.5-1.4,3.1-2.6c-0.1,6,4.4,7.2,7.5,9.4
		C86.9,11.7,90.5,5.9,94.1,0c1.8,0,3.7,0,5.5,0c3,2.8,6.2,5.5,9,8.5c4.2,4.4,9.2,8.3,11.1,14.5c0.6,2.1,0.6,4-1.1,5.7
		c-0.9,0.9-1.5,2.3-2.2,3.5c-5.9,11.6-13,22.2-22.1,31.5c-2.2,2.2-5,3.8-5.7,7.1c-0.1,0.6-0.3,1.3-0.1,1.8
		c2.6,6.6,4.9,13.4,7.9,19.8c3.1,6.5,6.8,12.6,10.3,18.9c1.7,3.2,1.3,3.9-2.2,4.6c-1.4,0.3-2.9,0.7-4,1.5c-0.9,0.7-1.7,2-1.8,3.1
		c-0.9,7.6-1.7,15.1-2.5,22.7c-0.4,4.1-0.7,8.2-1,12.3c-0.6,7.2-1.3,14.4-2,21.6c-0.8,0-1.7,0-2.5,0c0-1.4-0.1-2.8,0-4.2
		c1-9.7,1.9-19.3,3-28.9c0.8-7.1,1.6-14.2,2.4-21.3c0.2-2.1-0.8-3.1-2.9-2.8c-1.5,0.3-3.1,0.5-4.6,1c-6.3,1.8-13,1.7-18.9,4.9
		c-5.6,3-8,6.6-6.3,12.7c2.5,8.4,2.5,17,3.4,25.6c0.4,4.3,0.7,8.7,1,13.1c-1,0-2,0-3,0c0-2.5,0.1-5-0.2-7.4
		c-0.5-6.5-1.2-12.9-1.9-19.3c-0.3-2.6-0.4-5.3-1.2-7.7c-1.5-4.2-1.9-8.4-1-12.7c0.1-0.5-0.3-1.1-0.5-1.6c-1.1,1.5,0,4-2.7,4
		c-1.8,0-2.1,1.1-2.4,2.2c-0.4,2.1-0.4,4.3-0.9,6.3c-1.6,6.6-3.3,13.1-2.8,20.1c0.4,5.5,0,11-1.9,16.2c-0.8,0-1.7,0-2.5,0
		c0-0.6-0.2-1.2,0-1.7c2-5.1,1.6-10.4,1.3-15.7c-0.2-5-0.4-9.8,1.4-14.7c1.1-2.8,1.2-6,1.8-9c0.2-1.2,0.4-2.5,0.6-4
		c-11.4,0.1-22.2-0.4-32.8,1.9c1,4.6,2.1,8.8,2.8,13c0.8,4.5,1.2,9.1,1.8,13.6c0.7,5.5,1.5,11,2.2,16.6c-0.8,0-1.7,0-2.5,0
		c-1-7.8-1.8-15.6-3-23.4c-1-6.2-2.5-12.3-3.8-18.4c-0.1-0.6-0.7-1.5-1.2-1.6c-2-0.5-2.3-1.8-2-3.6c0.7-4.6,1.4-9.2,2.1-13.9
		c0.8-5.2,1.8-10.5,2.4-15.7c0.6-5.4,0.9-10.8,1-16.3c0.1-5.7-0.1-11.5-0.5-17.2c-0.2-3.3-1.5-6.1-4.5-8c-0.9-0.6-1.8-1.5-2.3-2.5
		c-3.1-6-6.7-11.8-7.7-18.7c-0.1-1-1.3-1.8-2-2.7C1.5,35,1,34.6,1,34.2c-0.4-3.3-1-6.7-1-10c0-6.8,0.3-13.5,0.5-20.3
		c0-1.3,0.3-2.6,0.5-3.9C1.8,0,2.6,0,3.4,0z M71.3,68.3c0,0-0.3,0-0.6,0.1c-6.4,1.7-12.7,3.7-19.1,5.1c-4.2,0.9-8.5,1-12.8,1.1
		c-3.4,0.1-6.9-0.1-10.1,1.5c-0.9,0.4-2.1,0.3-3.1,0.4c-2,0.1-4.2,2-4.2,3.7c0,3.2,0.2,6.3,0,9.5c-0.3,4.4-0.9,8.8-1.3,13.2
		c-0.7,6.4-1.4,12.7-2.1,19.1c-0.1,0.8-0.4,1.6-0.4,2.4c-0.1,1.7-0.1,3.4-0.1,5c0,1.8,1,1.7,2.3,1.5c2-0.4,3.9-1,5.9-1
		c9.7-0.1,19.4,0,29.1,0.2c1.9,0,2.8-0.7,2.6-2.3c-1.1-8.2,3.3-16,1.6-24.2c-0.2-0.7,0.5-1.7,0.8-2.5c0.4,0.1,0.8,0.1,1.1,0.2
		c0.2,3.2,0.4,6.4,0.7,9.8c1.6-2.2,3.1-4.1,4.6-6.1c0.2,0.1,0.5,0.1,0.7,0.2c0.2,0.8,0.3,1.7,0.4,1.9c-1.1,0.8-2,1.1-2.2,1.7
		c-0.8,2.1-1.5,4.2-2.1,6.4c-0.4,1.3-0.3,3-1.1,3.9c-2.1,2.4-2.5,4.2-0.9,7.1c1.3-0.3,2.7-0.5,3.9-1.1c5.5-2.7,11.3-4.5,17.4-5.5
		c4.7-0.8,9.4-1.8,14-3c2.5-0.7,4.8-1.9,7.1-3.1c0.3-0.2,0.5-1.1,0.4-1.5c-0.7-1.9-1.3-3.9-2.3-5.7c-4.7-8-9.3-16.1-12-25.1
		c-0.9-2.9-2.3-5.6-3.7-8.9c-1.3,2.5-2.2,4.5-1.1,6.7c1.3,2.5,2.4,5.1,4.1,7.4c2.6,3.8,3.3,7.8,2.3,12.1c-0.2,0.8-1.1,1.4-1.7,2.1
		c-0.7-0.6-1.5-1.2-2.1-2c-0.6-0.8-0.9-1.7-1.7-3.2c-0.7,3-1.3,5.2-1.8,7.6c3.6,1.3,6.8,2.9,7.7,6.9c-1.3-1-2.3-2.5-3.6-3.4
		c-1.4-0.9-3.8-2.2-4.7-1.7c-2.2,1.3-4,1.4-6.3,0.5c0,3.5,0.4,6.9-2.4,9.6c0.6-3.1,1.2-6.2,1.7-9.4c-2-0.7-3.2-1.6-4.5-2.4
		c-1.1-0.7-2.1-1.5-3.3-2c-3.1-1.3-3.8-3.6-2.3-6.5c0.7-1.3,1.1-2.9,1.3-4.4c0.3-2.3,0.1-4.6,0.5-6.8C68.7,78.4,70.1,73.4,71.3,68.3
		z M79.1,104.5c1.4,0.3,2.6,0.1,3.1-2.2c0.4-2.2,1.4-4.3,1.9-6.6c0.6-2.6,0.4-5.5,1.4-7.9c0.9-2.1,0.4-3.3-0.8-4.9
		c-2.5-3.6-2.3-11.2,0.5-14.6c1.7-2.1,3.8-3.9,5.7-5.8c8.5-8.5,15.5-18.1,21.2-28.7c1-1.9,1.9-3.8,3.1-5.6c2.2-3.3,2.4-5,0.1-8.3
		C110.8,13.6,104.8,8.6,99,3.4c-2-1.8-3.2-1.5-4.6,0.8c-1.6,2.8-3.3,5.6-5.1,8.3c-1.7,2.7-1.7,3.7,1.1,5.5c2.3,1.5,4.7,2.8,7.2,4.1
		c1.3,0.7,2.7,1.2,4.1,1.6c0.8,0.2,1.7-0.1,2.5-0.1c-0.2,0.9-0.2,1.9-0.5,2.7c-0.4,0.8-1.2,1.3-1.7,1.9c-1.6,1.8-3.5,3.5-4.7,5.6
		c-3.5,5.8-6.4,12-10,17.7c-2.6,4.2-6.1,7.7-8.7,11.9c-2.6,4.2-6.9,7.4-7.4,13c-0.5,4.9-2.7,9.5-2.2,14.5c0.1,1.4-0.7,2.9-1.1,4.4
		c-0.3,1.3-0.7,2.6-1,3.9c0.3,0.1,0.5,0.1,0.8,0.2c1-1.8,2.2-3.5,3-5.5c0.7-1.9,1-4,1.4-6.1c0.3,0.1,0.7,0.2,1,0.3
		c0.6,4.4-1.6,8-3.9,11.6c1.3,1.9,2.4,1.5,3.7-0.1c1.6-1.9,2-4.1,2.2-6.5c0.2-2.2,1.5-4.4,2.5-6.5c0.2-0.3,1.1-0.3,1.7-0.5
		c0,0.4,0.2,0.9,0,1.1c-2.8,2.5-2.1,5.4-1.4,8.5c0.4,1.6-0.1,2.9-1.8,3.9c-1.2,0.7-2.1,2-3.4,3.2c3.7,0.9,5.7-0.5,6.7-3.9
		c0.6-1.9,0.9-3.9,1.7-5.8c0.6-1.4,1.3-1.3,1.9-0.4C81.8,96.9,80.5,100.6,79.1,104.5z M75.5,15.3c-0.4,1.3-0.8,2.1-0.8,2.9
		c-0.1,5.2,0.5,10.5-0.2,15.7C73.4,41.4,75,48.3,78.1,55c1,2.1,1.9,2.4,3.4,0.5c2.2-3,4.1-6.3,6.1-9.5c3.8-5.7,6.1-12.3,10.5-17.6
		c1.1-1.3,1-2.2-0.6-3.1c-3-1.7-6-3.7-9-5.4c-0.7-0.4-2.2-0.5-2.6,0c-1.8,1.8-3,1-4.6-0.4C79.8,18.1,77.8,17,75.5,15.3z M16.2,57.5
		c0.4-0.2,0.8-0.3,1.2-0.5c-0.1-1.6,0-3.2-0.4-4.7c-1.4-5.1-3.3-10.1-4.4-15.2c-0.5-2.4-1.6-2.3-3.2-2.1c-0.6,0.1-1.3,0.4-1.9,0.4
		C6,35.4,6,36,6.2,37.4c0.9,6.1,4,11.2,6.7,16.5C13.6,55.3,15.1,56.3,16.2,57.5z M89.2,98.9c1.7-3.6,0.8-9.1-2-11.7
		C86.4,91.3,86.9,95.1,89.2,98.9z"/>
</g>
</svg>
