<?xml version="1.0" encoding="utf-8"?>
<!-- Generator: Adobe Illustrator 18.1.1, SVG Export Plug-In . SVG Version: 6.00 Build 0)  -->
<!DOCTYPE svg PUBLIC "-//W3C//DTD SVG 1.1//EN" "http://www.w3.org/Graphics/SVG/1.1/DTD/svg11.dtd">
<svg version="1.1" id="Layer_1" xmlns="http://www.w3.org/2000/svg" xmlns:xlink="http://www.w3.org/1999/xlink" x="0px" y="0px"
	 viewBox="0 0 102.9 180.2" style="enable-background:new 0 0 102.9 180.2;" xml:space="preserve">
<style type="text/css">
	.st0{fill:#00BCD4;}
</style>
<g id="yeast-lady">
	<path class="st0" d="M85.8,0c0.5,4.1,1.1,8.3,1.5,12.4c0.3,2.2,0.4,4.4,0.6,6.7c0.3,3.6,0.5,7.2,0.8,10.8c0.4,3.6-0.9,6.6-2.7,9.5
		c-0.4,0.7-0.7,1.5-1.1,2.2c-2.4,5.4-5.9,10.2-8.9,15.2c-2,3.3-4.2,6.3-6.7,9.2c-1,1.1-2,2.3-3,3.4c0.4,0.2,1.1,0.6,1.8,0.9
		c0,0.1,0,0.2-0.1,0.3c-0.2,0-0.5,0.1-0.7,0c-2.8-1.3-5.3-0.2-7.7,1.1c-2.5,1.5-5,3-7.4,4.5c-1,0.6-1.8,1.5-2.6,2.3
		c1.4,1.2,1.4,1.5,0.4,3.4c1.5-1,3.1-1.8,4.5-2.9c1.3-1.1,2.4-2.5,3.6-3.7c0.1,0.1,0.2,0.2,0.3,0.3c-0.4,0.5-0.7,1-1.1,1.5
		c-1.1,1.6-2.1,3.3-3.3,4.9c-1.7,2.5-3.5,4.9-5.2,7.4c-0.7,1-0.7,2.1-0.6,3.2c0,0.3,0.5,0.9,0.6,0.9c0.5-0.2,1-0.5,1.5-0.8
		c-0.5-0.7-0.9-1.2-1.4-2c0.4,0.1,0.6,0,0.6,0.1c0.8,1.2,1.6,0.9,2.3-0.1c0.9-1.2,1.9-2.3,2.9-3.5c0.3-0.4,0.8-0.7,1.1-1.1
		c0.1,0.1,0.3,0.2,0.4,0.3c-1.6,2-3.2,3.9-4.8,5.9c0.3,0.3,0.6,0.5,0.9,0.8c0,0.1,0,0.2-0.1,0.3c-0.4-0.1-0.8-0.1-1.4-0.2
		c-0.2,0.2-0.4,0.5-0.8,0.8c2,0.7,3.3-0.4,4.6-1.5c1-1,2-2.1,3-3c0.5-0.5,1.3-0.7,1.9-1.1c0.8-0.5,0.9,0,0.9,0.6
		c-2.3,0.6-4,1.9-5.4,4.2c1.7-0.7,3.4-1,4.2-2.7c0.3-0.6,0.7-1,1.1-1.5c1.1-1.5,2.7-1.9,4.4-1.9c1.9,0.1,2.8-1,3.6-2.4
		c1.6-2.5,3-5.2,4.7-7.6c2.8-4,5.8-7.9,8.9-11.7c1.8-2.3,3.7-4.6,5.9-6.5c2.7-2.4,3.8-5.6,5.5-8.5c0.7-1.2,1.6-2.3,2.4-3.4
		c1.8-2.7,3.1-5.6,4.1-8.7c0.8-2.6,1.7-5.1,1.4-7.9c-1.1-8.8-0.2-17.7-0.4-26.5c0-1.3,0.4-2.6,0.7-3.9c0.2,0,0.5,0,0.7,0
		c0,1.2,0,2.3-0.1,3.5c0,0.6-0.2,1.3-0.2,1.9c0,6.3,0,12.6,0,18.8c0,1.9,0.3,3.9,0.5,5.8c0.2,2.9-0.5,5.6-1.4,8.3
		c-1.1,3.4-2.7,6.6-4.6,9.7c-2,3-3.4,6.4-5.6,9.3c-1.7,2.4-1.5,4.7-1.2,7.2c0.7,5.6,2.2,11.1,1.7,16.9c-0.4,5.2-0.6,10.4-1.6,15.5
		c-0.3,1.6-0.4,3.2-0.5,4.8c-0.2,3.3-0.7,6.5-1.5,9.7c-0.5,1.8-1,3.7-1.5,5.9c-0.7-0.4-1.4-0.6-1.9-1c-1.5-1-2.9-2-4.5-3
		c-0.4,0.8-0.6,1.4-0.9,2c-3.5,5.7-5.4,12-7.5,18.3c-2.3,6.8-5.4,13.2-9.1,19.4c-1.2,1.9-1.8,4.1-2.7,6.2c-1.3,2.9-2.2,6-2.6,9.2
		c-0.2,2.2-0.1,4.4-0.3,6.6c-0.2,1.8-0.5,3.6-0.8,5.4c-0.6,0-1.1,0-1.8,0c1.8-3.5,1.4-7.1,1.4-10.9c-0.2,0.1-0.4,0.1-0.6,0.2
		c-2.5,1.7-5.1,1.2-7.7,0.6c-0.3-0.1-0.6-0.3-0.8-0.5c-0.1-0.1-0.2-0.5-0.1-0.6c0.1-0.1,0.4-0.2,0.6-0.2c1.6,0.3,3.2,0.7,4.9,0.8
		c2,0.1,3.7-1.5,4.3-3.5c0.8-2.8,1.8-5.5,2.7-8.2c1.2-3.6,3.2-6.7,5.1-9.9c2.3-3.8,3.8-7.9,5.3-12c1.2-3.3,2.2-6.7,3.4-9.9
		c1.4-3.8,2.9-7.5,5.1-10.9c1.4-2.1,1.2-2.2-1-3.2c-2.2-1-4.3-2.2-6.4-3.3c-4.2-2.1-8.5-4.1-12.6-6.5c-2-1.1-3.7-2.8-5.6-4.3
		c-0.2-0.2-0.5-0.4-0.8-0.7c-0.1,0.3-0.3,0.6-0.3,0.8c-0.5,2.6-1,5.2-1.4,7.8c-0.6,4.2-1.4,8.4-2.5,12.5c-1.2,4.7-2.4,9.4-3.4,14.1
		c-1.2,5.1-2.3,10.2-3.4,15.3c-0.9,4.2-1.9,8.3-2.8,12.5c-0.2,1-0.1,2.2-0.3,3.2c-0.2,1.2-0.4,2.4-1,3.5c-2,3.7-2.7,7.8-3.8,11.9
		c0,0.2,0,0.3-0.1,0.5c-0.1,0.3-0.2,0.6-0.3,0.9c-0.5,0-1,0-1.9,0c1.4-4.4,2.5-8.7,4.3-12.7c1.2-2.8,1.4-5.4,1.1-8.3
		c-0.2-1.4-0.1-2.8-0.4-4.1c-0.6-2.7-1.4-5.4-2.1-8.1c-1.2-4.9-2.5-9.7-3.6-14.6c-0.4-1.9-0.4-3.9-0.9-5.8c-0.9-3.3-2.1-6.6-3.2-9.9
		c-0.2-0.7-0.7-0.9-1.5-0.6c-2.8,1.1-5.7,1.3-8.6,1.5c-1.9,0.1-2.2-0.2-2.7-2c-0.8-3-1.7-5.9-2.4-9c-0.4-2-0.6-4-0.6-6
		c-0.1-2.7-0.2-5.4,0-8c0.2-2.3,0.8-4.6,1.1-7c0.3-2,0.4-3.9,0.8-5.9c0.9-5.1,0.6-10.2,1-15.3c0.2-2.7,0.7-5.3,0.9-8
		c0.1-0.6-0.2-1.4-0.6-1.8c-2.6-2.3-5.2-4.6-7-7.7c-1.2-2.1-2.9-4-4-6.1c-1.7-3.4-2.2-7.2-1.8-11c0.2-2,0.8-4,1.2-6
		c0.4-2.4,0.6-4.9,1-7.3C2.9,12.6,3.7,8.8,4.4,5c0.3-1.7,0.7-3.3,1-5c0.4,0,0.8,0,1.2,0C5.9,3.4,5.3,6.8,4.7,10.2
		c-0.5,2.9-1.1,5.7-1.6,8.6c-0.5,2.8-0.9,5.7-1.3,8.5c-0.2,1.2-0.4,2.4-0.5,3.6c-0.5,5.9,1.8,10.9,5.5,15.3c1.3,1.6,2.5,3.3,4,4.8
		c1.2,1.3,2.7,2.3,3.9,3.5c1.6,1.5,2.9,3.3,4.5,4.7c3,2.7,6,5.2,9.1,7.8c2.3,1.9,4.4,4.1,5.6,6.9c1.5,3.4,3.3,6.7,5.1,10
		c0.5,0.9,1.5,1.6,2.3,2.3c1.1,0.9,2.2,1.9,3.5,2.7c0.7,0.5,1.6,0.6,2.6,1c-0.4-2-2.4-2.5-2.9-4.1c0.1-0.1,0.3-0.2,0.4-0.3
		c1.1,1.1,2.1,2.2,3.2,3.4c1.2-0.9,1.4-1.8,1-2.9c-0.1-0.3,0-0.7,0-1c0.3,0.2,0.6,0.5,0.9,0.7c0.1,0.1,0.1,0.2,0.1,0.4
		c0.8-1.1,1.5-2.1,2.1-3.2c0.2-0.3,0-0.8-0.1-1.2c-1.2,1-2.4,1.5-3.7,1.2c-0.5-0.1-1.3-0.4-1.4-0.8c-0.2-0.5,0.1-1.2,0.4-1.7
		c0.8-1.1,1.8-2.1,2.6-3.2c0.2-0.3,0.1-0.8,0-1.2c-0.1-0.5-0.4-1.1-0.5-1.6c0.1-0.1,0.3-0.1,0.4-0.2c0.2,0.3,0.4,0.7,0.6,1
		c0.2,0.3,0.6,0.4,0.9,0.7c0-0.4,0.2-0.8,0-1.1c-1.1-2.6-3.2-4.4-5.2-6.3c-1.9-1.8-4-3.5-6-5.3c-0.7-0.7-1.2-0.6-1.9-0.1
		c-0.4,0.3-0.9,0.5-1.3,0.7c-0.1-0.1-0.1-0.2-0.2-0.3c0.6-0.5,1.2-0.9,1.8-1.4c-1-0.8-2-1.3-2.8-2.2c-2.2-2.4-4.3-4.9-6.4-7.4
		c-2.2-2.6-4.3-5.4-6.6-8c-1.4-1.6-3.1-3.1-4.4-4.8c-1.2-1.5-2.5-3.1-3.3-4.9c-0.8-1.7-0.2-3.7,0.4-5.4c0.9-2.7,1.8-5.3,2.6-8
		c0.9-3.2,1.7-6.4,2.5-9.6c0.6-2.5,1-5,1.7-7.5c0.4-1.5,1.1-3,1.7-4.5c0.2,0,0.5,0,0.7,0c0.2,1.5,0.5,2.9,0.6,4.4
		c0.5,4.9,1.9,9.6,2.9,14.3c0.4,1.7,0.2,3.5,0.4,5.2c0.2,2.3,0.5,4.6,0.7,6.9c0,0.3,0,0.7-0.1,0.8c-1.7,0.7-1.6,2.7-2.7,3.9
		c-0.9,1-1.3,2.5-2,3.7c-1.5,2.5-0.7,4.7,0.9,6.8c0.4,0.5,0.5,1.6,1.6,1.2c0,0,0.2,0.2,0.2,0.3c2.6,4.3,6,7.8,9.6,11.2
		c3.3,3.1,6.7,5.9,10.2,9.1c1.1-2,2.1-4,3.1-5.9c0.2,0.1,0.3,0.1,0.5,0.2c-0.5,2.3-1.2,4.4-2.7,6.2c1.4,1.7,2.7,3.3,4,5
		c0.2,0.2,0.4,0.5,0.5,0.8c0.1,0.5,0,1.1,0.7,0.9c0.4-0.2,0.8-0.7,0.9-1.1c0.2-0.8,0-1.7,0.2-2.5c0.2-1,0.6-2,0.9-3
		c0.5-1.5,1-2.9,1.4-4.4c0.4-1.7,1.6-2.7,2.9-3.4c0.2-0.1,0.6,0,0.9,0c0,0.1,0.1,0.2,0.1,0.3c-0.2,0.2-0.4,0.5-0.7,0.6
		c-1.5,0.8-2.2,2.1-2.5,3.7c-0.3,1.4-0.9,2.8-1.4,4.2c-0.4,1.2-0.9,2.5-0.5,4c1.1-0.7,2-1.3,3-1.8c2.1-1,4.2-1.9,6.3-2.9
		c0.5-0.2,1.1-0.5,1.5-0.9c3-2.9,5.9-5.8,8-9.5c1.6-3,3.8-5.6,5.5-8.5c1.1-1.8,1.9-3.9,2.7-5.8c0.6-1.4,1.2-2.7,1.7-4.1
		c0.2-0.4,0.3-1,0.2-1.4c-0.6-1.9-1.5-3.7-1.9-5.7c-0.4-1.6-0.5-3.3-0.6-5c0-2.1,0.1-4.2,0.3-6.3c0.3-2.5,0.9-5.1,1.3-7.6
		c0.1-0.5,0-1,0-1.5c0.1-0.1,0.2-0.2,0.4-0.2c0.1,0.2,0.2,0.4,0.3,0.5c0.3-2.3,0.4-4.6,0.8-7c0.3-1.9,0-3.7-0.5-5.4
		C84.7,0,85.2,0,85.8,0z M14.7,56.4c-0.1,1.1-0.1,1.8-0.2,2.6c-0.3,3.5-0.7,7-0.9,10.5c-0.2,2.8,0,5.5-0.3,8.3
		c-0.4,3.4-0.6,6.9-1.8,10.3c-0.5,1.4-0.5,3.1-0.6,4.5c4,1.7,7.8,2,11.7,1c0.2,0,0.3-0.1,0.5,0c0.2,0.1,0.4,0.3,0.6,0.4
		c-0.2,0.2-0.3,0.5-0.5,0.5c-0.9,0.2-1.9,0.5-2.8,0.5c-2.9,0.1-5.8,0.2-8.5-1.1c-0.2-0.1-0.5-0.1-0.7-0.2c0,3.2-0.1,6.4,0,9.6
		c0.1,4.1,1.3,8,2.6,11.9c0.3,0.9,0.7,1.3,1.7,1.2c1.1-0.1,2.2-0.2,3.4-0.3c1-0.1,1.9-0.3,2.9-0.4c0.1,0,0.1-0.1,0.2-0.1
		c-0.1-0.1-0.3-0.2-0.5-0.3c0.4,0,0.7,0,1-0.1c4.1-1.2,7.9-2.9,11.6-5c2.3-1.3,4.8-2.4,6.9-4c2.1-1.4,3.9-3.2,5.8-5
		c0.9-0.8,1.6-1.8,2.3-2.8c0.4-0.6,1-1.2,1.1-1.9c0.1-0.6-0.1-1.4-0.5-1.9c-0.4-0.5-1.2-0.8-1.9-0.9c-1.1-0.1-0.8-0.7-0.7-1.2
		c0.2-0.7,0-1.2-0.8-1.4c-0.2,0-0.4-0.2-0.6-0.3c-0.8-0.4-1.5-0.8-2.3-1.1c-0.6-0.2-1.2-0.2-1.9-0.4c-2.3-0.7-4.7-1.4-6.9-2.3
		c-1.2-0.5-2.3-1.3-3.4-2c-0.7-0.5-1.4-1-2.1-1.6c-0.4-0.3-0.9-0.7-1.3-1c0.1-0.1,0.2-0.3,0.2-0.4c0.3,0.1,0.7,0.1,1,0.3
		c1.2,0.9,2.3,2,3.7,2.6c2.8,1.2,5.7,2.2,8.5,3.2c-1.4-1.6-2.8-3.2-4.1-4.9c-0.4-0.6-0.6-1.4-0.9-2c-0.7-1.3-1.4-2.6-2.1-3.8
		c-1-1.8-1.6-3.9-2.9-5.4c-2-2.3-4.5-4.2-6.8-6.3c-2.3-2.2-5.1-3.7-7-6.4C16.8,58.3,15.8,57.5,14.7,56.4z M90.6,78.1
		c-0.1,0-0.3,0-0.4-0.1c-0.9,0.5-1.8,1.1-2.7,1.5c-1.7,0.8-3.5,1.5-5.3,2.2c-0.3,0.1-0.8-0.2-1.1-0.3c0.3-0.3,0.5-0.6,0.8-0.8
		c0.5-0.2,1-0.2,1.5-0.4c2.1-1,4.2-2,6.3-3.1c0.9-0.4,1.1-1.2,1-2.1c-0.1-0.9-0.2-1.9-0.4-2.8c-0.5-3-1.1-6-1.7-9
		c-0.1-0.4-0.3-0.8-0.5-1.2c-0.4,0.2-1,0.3-1.3,0.7c-3.4,3.9-6.8,7.7-10,11.7c-1.8,2.2-3.6,4.5-4.6,7.2c-0.7,1.6-1.5,3.2-2.4,4.7
		c-0.7,1.1-1.6,2-3.1,2c-0.6,0-1.2,0-1.8,0.1c-0.8,0.2-1.8,0.3-2.5,0.8c-0.8,0.6-1.3,1.5-1.9,2.3c2.6,0,5,0,7.4,0c1.7,0,3.4,0,5,0
		c0.5,0,0.9,0.1,1.4,0.1c-0.4,0.3-0.8,0.7-1.3,1c-0.2,0.1-0.4,0.1-0.6,0.1c-1.7,0-3.5,0.2-5.1-0.2c-4.2-1-7.8,1-11.7,2
		c-0.1,0-0.2,0.1-0.3,0.2c-0.7,0.6-1.5,1.1-2.8,0.4c0.3,0.8,0.4,1.4,0.7,1.7c0.9,1,1.8,2.2,2.9,2.8c3.5,2,7.2,3.9,10.8,5.7
		c2.9,1.5,5.8,2.9,8.8,4.2c1.7,0.7,3,2.2,5,2.2c0.3,0,0.5,0.3,0.8,0.5c1.1,0.9,2.3,1.9,3.4,2.9c0.6,0.5,1.1,0.5,1.3-0.4
		c0.6-2.6,1.4-5.1,1.8-7.7c0.4-2.6,0.5-5.3,0.8-7.9c0.4-3.7,1-7.4,1.4-11.2C90.4,84.7,90.4,81.4,90.6,78.1z M36.6,157.7
		c0.1,0,0.2,0,0.3,0c0.6-2.2,1.4-4.3,1.8-6.5c0.6-2.8,0.9-5.6,1.4-8.4c0.6-3,1.5-6,2.2-9.1c0.8-3.7,1.5-7.4,2.4-11.1
		c0.6-2.7,1.6-5.4,2.1-8.1c0.6-3,1-6,1.5-9c0.2-1.2,0.4-2.4,0.6-3.6c-0.1-0.1-0.2-0.1-0.4-0.2c-3,3.3-6.9,5.3-10.5,7.7
		c-3.7,2.4-7.7,4.4-11.6,5.9c0.6,2.2,1.1,4.1,1.7,6c0.7,2.2,1.6,4.4,2.1,6.6c0.4,1.5,0.3,3.2,0.6,4.7c0.6,2.7,1.4,5.3,2,8
		c0.5,2.2,2,4.1,1.4,6.5c0,0.1,0.1,0.3,0.1,0.4C34.9,150.9,37,154,36.6,157.7z M21.5,40.8c0.7-1.2,1.5-2.3,2.1-3.5
		c1-1.7,1.9-3.5,2.9-5.2c0.8-1.3,1.2-2.7,1-4.3c-0.3-1.9-0.4-3.9-0.6-5.9c-0.1-1-0.1-2-0.3-3c-0.8-3.8-1.7-7.5-2.6-11.2
		c-0.2-0.9-0.3-1.7-0.5-2.6c-0.1,0-0.2,0-0.3,0c-0.4,1.5-0.7,3.1-1.1,4.6c-1.1,4.4-2.2,8.7-3.4,13.1c-0.8,2.7-1.8,5.4-2.6,8.1
		c-0.4,1.4-0.9,2.9,0.1,4.2c1.1,1.5,2.3,2.9,3.5,4.3C20.4,39.9,20.9,40.3,21.5,40.8z M85.3,37.4c0.2-0.1,0.4-0.2,0.4-0.3
		c0.1-0.2,0.2-0.4,0.4-0.6c1.6-2.4,1.5-5.1,1.3-7.7c-0.3-4.6-0.8-9.2-1.2-13.9c-0.1-1-0.3-2-0.5-3c-0.2,0-0.3,0-0.5,0
		c-0.5,2-1.1,4.1-1.4,6.2c-0.4,2.4-0.3,4.9-0.8,7.3C82.1,29.8,84.3,33.4,85.3,37.4z M49.4,82.5c0.3-0.7,0.5-1.2,0.6-1.7
		c0.1-0.3,0.2-0.8,0.1-0.9c-0.2-0.2-0.8-0.3-0.9-0.1c-0.6,0.6-1,1.3-1.5,2C48.3,82,48.9,82.3,49.4,82.5z"/>
</g>
</svg>
