<?xml version="1.0" encoding="utf-8"?>
<!-- Generator: Adobe Illustrator 19.2.1, SVG Export Plug-In . SVG Version: 6.00 Build 0)  -->
<svg version="1.1" id="Layer_1" xmlns="http://www.w3.org/2000/svg" xmlns:xlink="http://www.w3.org/1999/xlink" x="0px" y="0px"
	 viewBox="0 0 200 153.3" style="enable-background:new 0 0 200 153.3;" xml:space="preserve">
<style type="text/css">
	.st0{fill:#00BCD4;}
</style>
<g id="compare-pharm">
	<path class="st0" d="M199.6,112c-0.5-1.3-1.2-2.5-1.9-3.6c-1.3-2.2-2.6-4.5-4.1-6.6c-1.6-2.3-3.7-4.2-5-6.8
		c-0.7-1.4-1.8-2.7-2.6-4.1c-0.8-1.2-1.5-2.5-2.2-3.7c-0.3-0.4-0.6-0.8-0.8-1.3c-1-1.8-2-3.7-3-5.5c-0.6-1.1-1.4-2.1-2.1-3.1
		c-1-1.3-2.1-2.5-3.1-3.7c-0.6-0.7-0.9-1.4-0.9-2.3c0-1.4-0.6-2.4-2-2.8c-0.9-0.2-1.8-0.2-2.6-0.5c-1.7-0.5-3.3-1.2-4.9-1.8
		c-1-0.4-1.6-1.1-1.4-2.3c0-0.1,0-0.3-0.1-0.5c-0.2-0.7-0.5-1.5-0.7-2.2c-1.1-3-0.9-6.2-1.4-9.2c-0.4-2.7-0.4-5.4-1.1-8.1
		c-0.3-1.2-0.3-2.5-0.6-3.7c-0.4-1.9-1-3.7-1.4-5.6c-0.2-0.9-0.3-1.8-0.5-2.7c-0.4-1.5-1-3.1-1.5-4.6c-0.6-1.8-1.2-3.5-1.7-5.3
		c-0.3-1-0.9-1.9-1.4-2.8c-0.4-0.7-0.6-1.6-1-2.3c-1.3-2.1-2.8-4.1-4.1-6.2c-1-1.5-2-3-3-4.5c-0.3-0.4-0.7-0.8-1.1-1.1
		c-1.1-0.9-2.3-1.8-3.4-2.7c-1.3-1.2-2.6-2.2-4.4-2.4c-1.9-0.3-3.9-0.2-5.8,0c-2.3,0.2-4.5,0.8-6.6,1.7c-2.1,0.9-4.4,1.4-6.6,2
		c-2.4,0.7-4.4,2.1-6,4c-1,1.3-1.8,2.8-2.7,4.2c-1.2,1.9-1.6,4.1-1.9,6.2c-0.1,1.1-0.2,2.2-0.4,3.3c-0.2,1.3-0.4,2.5-0.5,3.8
		c-0.1,1.6-0.2,3.2-0.2,4.8c-0.1,1.2-0.1,2.5-0.2,3.7c0,0.2,0,0.5-0.1,0.5h-7.9v-0.5c0-2.7-0.2-5.5-0.2-8.2c0-0.7-0.5-1-1.1-0.8
		C95,25,94.7,25,94.5,25c-3.2,0-6.5,0-9.7,0c-1,0-1.2,0.3-1.2,1.2c0,2.5,0,5,0,7.5c0,0.6-0.2,0.8-0.8,0.7c-2.3,0-4.6,0-6.9,0
		c-0.2,0-0.4,0-0.7-0.1c0-0.3,0-0.5,0-0.7c0-5.3,0-10.6,0-15.9c0-0.2,0-0.4,0.1-0.7c0.2-0.8,0.1-1-0.8-1c-2,0-3.9,0-5.9,0
		c-1.2,0-1.3,0.1-1.3,1.3c0,5,0,10.1,0,15.1c0,0.6-0.1,1.2-0.1,1.8c-0.2,0-0.3,0.1-0.4,0.1c-2.1,0-4.3,0-6.4,0
		c-0.5,0-0.6-0.3-0.6-0.7c0-2.7,0-5.3,0-8c0-0.6-0.2-0.8-0.8-0.8c-3.7,0-7.4,0-11,0c-0.8,0-0.7,0.1-0.7,0.9c0,2.5,0.2,5,0.2,7.4v1.1
		c-1,0-0.8,0.1-1,0.1c-5.8,0-11.8,0-17.6,0c-0.6,0-0.9-0.2-0.9-0.8c0-6.2,0-12.5,0-18.7c0-1,0-1-1-1c-2,0-4,0-6,0
		c-1.2,0-1.4,0.1-1.4,1.2c0,6.1-0.1,12.3-0.1,18.4c0,0.3,0,0.5,0,0.9c-1,0-3.2,0-4.8,0c-0.1,0-0.3-0.3-0.3-0.5c0-4,0-8,0-12
		c0-2.3,0-4.6,0-6.8c0-0.7-0.2-0.9-0.9-0.9c-2.1,0-4.2,0-6.4,0c-0.3,0-0.5,0-0.8,0c-0.7-0.1-0.9,0-0.9,0.7c0,6.1,0.1,12.1,0.1,18.2
		c0,0.4,0,0.4,0,1.4h-6v2.6c7,0,14.3,0,21.4,0c20.6,0,41.4,0.2,62,0.2c7,0,14.1,0.2,21,0.2c0.1,0,0.3,0,0.5,0c0,0,0.1,0.9,0,1.4
		c-0.4,2.1-0.2,4.1-0.1,6.2c0.1,0.9-0.1,1.8-0.1,2.7c-0.1,1.1-0.1,2.1-0.2,3.1c-0.1,0.5-0.2,1.1-0.3,1.6c-0.2,1.2,0,2.5,0.2,3.7
		c0.1,1.2,0.4,2.3,1.2,3.4c-0.9,0.3-1.7,0.5-2.5,0.9c-2.6,1.1-5.1,2.2-7.7,3.3c-2,0.8-3.2,2.4-3.9,4.4c-0.7,2.1-1.4,4.1-2.1,6.1
		c0,0.1-0.1,0.2-0.1,0.2h-2.3v-0.6c0-3.6-0.2-7.1-0.2-10.7c0-0.8-0.2-0.9-1-0.9c-3.5,0-7.1,0-10.6,0c-0.6,0-1,0.3-1,0.9
		c0,3.5-0.2,7.1-0.2,10.6v0.7h-10v-0.6c0-4.1,0-8.2,0-12.3c0-0.2,0.1-0.4,0.1-0.5c0.1-0.9,0.1-1-0.8-1c-3.3,0-6.5,0-9.8,0
		c-0.9,0-1.4,0.3-1.4,1.2c0,4.2-0.2,8.3-0.2,12.5v0.7h-10v-1.6c0-5.7,0.2-11.4,0.2-17.1c0-0.3,0.1-0.6,0-0.8
		c-0.1-0.2-0.3-0.4-0.5-0.5c-0.4,0-0.8,0.1-1.2,0.1c-4.1,0-8.1,0-12.3,0c-1.1,0-1.2,0.2-1.2,1.3v18.5h-6v-0.7c0-5.5-0.1-11-0.1-16.5
		c0-0.3,0.1-0.6,0.1-0.9c0-0.3-0.1-0.7-0.3-0.9c-0.1-0.1-0.5,0-0.8,0c-0.2,0-0.4,0.1-0.6,0.1c-3.9,0-7.8,0-11.7,0
		c-0.2,0-0.4,0-0.5,0c-0.7-0.1-1,0.2-0.9,0.9c0.1,0.5,0,0.9,0,1.4c0,5.3-0.1,10.6-0.1,15.9v0.8h-6v2.8c2,0,2.7-0.1,3.9-0.1
		c16,0,32.2,0,48.2,0c11.6,0,23.2,0,34.8,0c0.4,0,0.8,0.1,1.3,0.1c-0.1,0.2-0.2,0.4-0.2,0.6c-1,2.5-2.1,5-3,7.6
		c-1,2.7-1.6,5.4-2.7,8.1c-0.9,2.3-2.2,4.5-3.8,6.4c-1.6,2-3.3,4-3.9,6.6c-0.8-0.5-1.6-0.8-2.3-1.3c-1.2-0.8-2.3-1.6-3.5-2.4
		c-0.4-0.3-0.9-0.6-1.4-0.7c-1.5-0.6-2.8-1.6-4-2.5c-1.1-0.8-2.2-1.6-3.5-2c-0.6-0.2-1.1-0.5-1.6-0.8c-1.5-0.8-3-1.5-4.4-2.3
		c-1.1-0.7-2.1-1.6-3.1-2.4c-0.5-0.4-1.1-0.7-1.8-0.9c-0.9-0.2-1.7-0.8-2.4-1.3c-1.4-1-2.6-2.2-4-3.2c-1.3-1-2.6-1.9-4-2.8
		c-0.9-0.5-1.9-0.9-3-0.8c-2.2,0.1-4.4,0.1-6.6,0.1c-1.6,0-2.9-0.6-4.4-1c-1.2-0.4-2.4-0.5-3.7-0.1c-0.7,0.2-1.1,0.6-1.2,1.3
		c-0.2,0.9,0,1.7,0.8,2.3c1.1,0.8,2.4,0.9,3.7,1.2c0.8,0.2,1.6,0.3,2.3,0.4c0.2,0,0.3,0.1,0.5,0.2c-0.7,0.7-1.6,0.7-2.3,0.7
		c-1.9-0.1-3.7,0.6-5.5,0.9c-1.3,0.2-2.6,0.1-4,0.1c-0.4,0-0.7-0.3-1.1-0.5c-0.9-0.5-1.9-1-3-1c-0.4,0-1,0-1.2,0.3
		c-0.8,0.7-1.5,0.3-2.3,0.2c-0.6-0.1-1.3-0.1-1.9,0c-0.4,0.1-0.8,0.2-1.3,0.1c-0.6-0.2-2.1,0.7-2.3,1.3c-0.2,0.5,0.1,1.2,0.8,1.5
		c1.6,0.7,3.3,1.4,5,2c1.3,0.5,2.8,0.7,4.1,1.1c1.7,0.5,3.4,1.1,5.1,1.4c1.5,0.3,3.1,0.1,4.6,0.2c0.9,0,1.8,0.2,2.8,0.3
		c1.3,0.1,2.7,0.1,4,0.1c1.3,0,2.5-0.1,3.8-0.2c1.1-0.1,2.2-0.2,3.3-0.2c2.4,0,4.2,1.2,5.6,3c0.2,0.2,0.1,0.8-0.1,1.1
		c-0.6,1.1-1.3,2.1-1.8,3.2c-0.5,1-0.8,2-1,3.1c-0.4,1.4-0.8,2.9-0.6,4.4c0.1,1.2,0.1,1.5,1.3,1.9c1.3,0.5,2.6,1,3.8,2h-11v-12H30
		c-2.6,0-5.2-0.2-7.8-0.2c-0.9,0-1.1,0.4-1.1,1.3c0,3.6,0,6.9,0,10.9h-5.5v-1.2c0-3.1-0.1-6.2-0.1-9.3c0-0.3,0-0.6,0.1-0.8
		c0.2-0.6,0-1-0.7-1c-2.6,0-5.2,0-7.8,0.1c-0.1,0-0.2,0-0.3,0c-0.7,0.1-1.1,0.3-1.1,1c0,3.3-0.1,6.6-0.1,10v1.2h-6v2.1
		c7,0,14.4,0,21.5,0c7.9,0,15.9,0,23.8,0c0.4,0,0.9-0.2,1.3-0.2c0.2,0,0.4,0,0.5,0.1c1.1,0.7,2.3,1.4,3.4,2.1
		c1.8,1.1,3.6,2.3,5.5,3.3c0.7,0.4,1.5,0.6,2.2,0.9c1,0.5,2,1,3.1,1.5c1.3,0.6,2.6,1,3.9,1.6c0.4,0.1,0.7,0.3,1.1,0.5
		c0.7,0.3,1.3,0.7,2,1.1c0.6,0.3,1.1,0.7,1.7,1c1.3,0.7,2.7,1.3,4,1.9c0.2,0.1,0.4,0.2,0.5,0.4c1.1,1.7,3.3,1.6,5,0.7
		c2.9-1.6,5.3-3.7,7.9-5.8c3-2.4,4.9-5.6,7.2-8.6c0.8-1.1,1.6-2.2,2.4-3.3c0.1,0,0.2,0.1,0.3,0.1c0.1,0.5,0.1,0.9,0.2,1.4
		c0.6,2.7,1.2,5.3,1.6,8c0.2,1.3,0.1,2.6-0.3,3.9c-0.6,1.8-1,3.6-1.6,5.3c-0.8,2.2-1.5,4.4-2.6,6.5c-0.7,1.3-0.8,2.8-1.2,4.2
		c-0.3,1.1-0.6,2.4-1.1,3.5c-0.9,2.2-1.7,4-1.5,7h1.3c-0.4-2,0.5-4.4,1.3-6.4c0.5-1.3,1-2.7,1.5-4c0.1-0.1,0.1-0.3,0.1-0.5
		c-0.3-1.8,0.7-3.2,1.4-4.7c0.2-0.3,0.4-0.7,0.5-1c0.9-2.5,1.8-5,2.5-7.5c0.5-1.7,1.2-3.5,1-5.4c-0.1-1.1-0.3-2.3-0.5-3.4
		c-0.2-1.3-0.4-2.6-0.6-3.9c-0.2-1-0.6-2-0.7-3c-0.4-2.7-1.5-5.2-2.1-7.9c-0.2-1.2-0.4-2.4-0.5-3.6c-0.3-1.9-0.6-3.8-0.8-5.6
		c-0.1-0.7-0.1-1.3-0.3-2C94.3,94.4,94,94,93.8,94c-0.4-0.1-0.6,0.3-0.6,0.7c0.1,0.8,0.2,1.7,0.3,2.5c0.2,1.5,0.5,2.9,0.7,4.4
		c0.3,3.2,0.8,6.3,2,9.2c0.1,0.3,0.2,0.7,0.3,1.1c0,0.2-0.1,0.5-0.2,0.6c-1.6,1.3-2.5,3.1-3.8,4.7c-0.7,1-1.4,2-2.2,2.9
		c-0.5,0.7-0.9,1.4-1.5,2c-1.5,1.4-3,2.8-4.6,4.1c-1.1,0.9-2.2,1.8-3.3,2.6c-1,0.7-2.2,1.2-3.3,1.7c-0.8,0.4-1.3,0.1-1.9-0.4
		c-0.8-0.6-1.7-1-2.5-1.5c-1.3-0.7-2.6-1.4-3.8-2.1c-0.2-0.1-0.3-0.2-0.5-0.3c-0.8-0.4-1.6-0.9-2.5-1.3c-1-0.5-2.1-0.8-3.2-1.2
		c-0.7-0.3-1.4-0.7-2.1-1c-0.9-0.4-1.8-0.9-2.7-1.3c-0.5-0.2-1-0.2-1.4-0.5c-1.7-1-3.3-2-4.9-3c-0.5-0.3-1-0.6-1.5-0.9
		c-1.2-0.7-2.4-1.4-3.5-2.2c-1.6-1.2-3.4-2-5.3-2.8c-0.4-0.2-0.8-0.4-1.2-0.7c2-1.5,3.2-3.6,4.4-5.7c1.1-1.9,2-4,3-6
		c0.3-0.6,0.6-1.2,0.9-1.8c0.7-1.5,1.1-3.1,0.7-4.8c1.4,1.1,2.7,2.1,4.1,3c0.7,0.5,1.4,0.8,2.2,1.1c1.3,0.6,2.6,1.1,3.8,1.8
		c1.1,0.6,2.1,1.4,3.1,2c1.2,0.7,2.4,1.5,3.6,2.2c0.9,0.5,1.7,1,2.6,1.6c1,0.6,2,1.3,2.9,2c1.5,1,3.2,1.5,4.8,2.3
		c0.6,0.3,1.2,0.7,1.9,1c0.4,0.2,0.9,0.4,1.3,0.6c0.6,0.2,1.3,0.4,1.9,0.6c0.2,0.1,0.4,0.1,0.6,0.1c0.4,0.1,0.8,0,0.8-0.5
		c0-0.3-0.3-0.6-0.6-0.7c-0.8-0.3-1.7-0.5-2.5-0.8c-0.4-0.2-0.8-0.5-1.3-0.7c-1.1-0.5-2.1-1-3.4-1.6c0.2-0.5,0.3-1.2,0.6-1.7
		c0.7-1.6,1.8-2.9,2.9-4.3c2.3-2.9,4.1-6,5.1-9.5c0.8-3.3,2.1-6.4,3.3-9.5c1.4-3.5,2.8-6.9,4.1-10.4c0.3-0.8,0.5-1.6,0.7-2.4
		c0.7-2.4,2.2-3.9,4.5-4.8c2.4-0.9,4.6-2,7-2.9c1.4-0.6,3-0.9,4.4-1.3c0.1,0,0.1,0,0.2,0.1c-0.3,1.3-0.7,2.6-0.9,3.9
		c-0.2,1.3-0.4,2.6-0.5,3.9c-0.2,2.6-0.3,5.2-0.4,7.8c-0.1,1.1,0.5,1.3,1.4,0.8c2-1,4.1-1.9,6.1-2.8c0.1,0,0.2,0,0.4-0.1
		c0,0.2,0,0.3-0.1,0.4c-0.6,1.4-1.3,2.7-1.9,4.1c-0.5,1.1-1,2.3-1.5,3.5c-0.2,0.4-0.5,0.8-0.4,1.1c0.1,0.3,0.6,0.5,0.9,0.7
		c0.5,0.3,1,0.6,1.4,1c0.4,0.3,0.8,0.6,1.1,0.9c1.5,1.7,3.2,3.1,5,4.5c1.2,0.9,2.2,2.1,3.2,3.2c1.3,1.4,2.7,2.7,4,4.1
		c0.3,0.3,0.5,0.6,0.9,1c-1,0.3-1.5,0.9-1.4,1.9c0.1,0.7,0.6,1.1,1.2,1.3c0.6,0.2,1,0,1.7-0.7c0.7,1.4,1.6,2.7,1.3,4.4
		c-0.3,1.4-0.3,2.9-0.4,4.4c-0.1,1.5-0.1,3.1-0.3,4.7c-0.3,2.7-0.7,5.4-1,8.1c-0.2,1.3-0.1,2.6-0.3,3.8c-0.1,0.5-0.1,0.9-0.2,1.4
		c-0.1,0-0.1,0-0.2,0c-0.5,0.1-1,0.1-1.6,0.1c0-0.1,0-0.2,0-0.2c0-0.9-0.7-1.2-1.7-1.4c-0.8-0.1-1.6,1-1.5,2.1
		c0,0.7,0.8,1.4,1.6,1.4c0.5,0,1-0.3,1.3-0.8c0.6,0,1.3,0,1.9-0.1c0,0.2-0.1,0.3-0.1,0.5c-0.7,3.1-1.6,6.1-2.3,9.2
		c-0.6,2.6-1.1,5.2-1.4,7.8c-0.2,2.2,0,4.5,0.1,6.8c0,0.2,0,0.6,0,0.6h1.1c-0.1-1-0.3-1.9-0.2-2.7c0.2-2.9,0.1-5.9,0.9-8.7
		c0.7-2.4,1-5,1.5-7.5c0.3-1.6,0.8-3.2,1.2-4.7c0.6-2.4,0.9-4.9,1.1-7.3c0.1-1.8,0.5-3.7,0.7-5.5c0.1-0.5,0.1-1.1,0.2-1.6
		c0.2-2.3,0.4-4.7,0.5-7c0.1-1.8,0.4-3.6,0.4-5.4c0-2.2-0.6-4.4-1.2-6.5c-0.3-0.9-0.6-1.8-0.9-2.6c-0.2-0.5-0.2-0.8,0.4-1.2
		c2.2-1.4,4.3-2.9,6.6-4.1c1.7-0.9,3.5-1.5,5.3-2.2c1.1-0.4,2.3-0.6,3.5-0.8c0.4-0.1,0.7-0.4,0.7-0.8c0-1.7-0.1-3.3-0.1-5
		c0-1.3,0-2.5,0-3.9c1.1,0.6,2.2,1.2,3.3,1.8c1.4,0.7,2.8,1.4,4.2,2.1c0.3,0.1,0.5,0.3,0.7,0.4c0.5,0.2,1.1-0.1,0.9-0.6
		c-0.3-1.2,0.1-2.4,0.2-3.6c0.4-3.1,1.4-6.2,1.3-9.4c0-1.3-0.6-2.4-1-3.6c-0.1-0.2-0.1-0.4-0.2-0.6c1.5,0.7,3,1.3,4.4,2.1
		c2.2,1.1,4.3,2.4,6.5,3.5c1.5,0.7,3,1.3,4.7,1.3c0.6,0,1.2,0.2,1.7,0.4c0.8,0.3,1.1,0.9,1.1,1.7c0,0.6,0,1.1,0.1,1.7
		c0.1,0.6,0.2,1.2,1,1.4c0.1,0,0.1,0.1,0.2,0.1c1.4,1.7,2.9,3.3,4.2,5.1c1.4,2.1,2.5,4.4,3.7,6.6c0.4,0.7,0.9,1.3,1.3,2
		c1.1,1.8,2.3,3.7,3.4,5.5c0.3,0.5,0.7,1,0.9,1.5c0.8,1.9,2.4,3,3.5,4.6c1.5,2.1,2.9,4.3,4.2,6.5c1,1.6,2,3.1,2.8,4.7
		c0.8,1.5,0.9,3.1,0.3,4.9c-0.8,2.2-1.4,4.5-1.8,6.7c-0.4,2.2-1.3,4-2.7,5.6c-1.8,2.1-3.5,4.2-5.1,6.5c-2.6,3.7-5.1,7.4-7.6,11.2
		c-1.2,1.8-2.2,3.7-3.3,5.5c-0.3,0.5-0.5,0.6-1,0.3c-1.3-0.9-2.6-1.8-3.9-2.5c-1.5-0.8-2.6-2-3.9-3.1c-0.6-0.5-1.4-0.8-2-1.3
		c-1.2-0.8-2.4-1.5-3.6-2.3c1.1-1.8,2.2-3.6,3.7-5.1c1.3-1.2,2.4-2.5,3.3-4.1c0.7-1.3,1.7-2.3,2.6-3.5c0.8-1,1.3-2.1,1.6-3.5
		c0.2-1.2,0.9-2.2,1.8-3c1.1-0.9,1.8-2.1,2.3-3.4c0.7-1.6,2-2.2,3.6-2.4c1.8-0.2,3.6-0.3,5.4-0.7c0.8-0.2,1.5-0.8,2.2-1.2
		c0.4-0.2,0.5-0.7,0.2-1c-0.2-0.2-0.7-0.2-0.9-0.1c-0.6,0.3-1.2,0.8-1.8,1c-1,0.3-2,0.3-3,0.4c-1.1,0.1-2.3,0.3-3.4,0.4
		c-0.1,0-0.2,0-0.3,0c-0.3,0.1-0.7,0.4-0.9,0.3c-0.2-0.1-0.3-0.5-0.5-0.8c-0.5-1.1-0.9-2.2-1.4-3.2c-0.3-0.5-0.6-1.1-1-1.5
		c-1.2-1.2-2.4-2.4-3.5-3.7c-1.2-1.5-2.9-2.3-4.6-3.1c-1-0.5-2.1-1.1-2.8-2c-0.2-0.2-0.3-0.6-0.2-0.9c0.3-1.4,0.9-2.8,1.1-4.2
		c0.4-2.2,0.7-4.5,1-6.7c0.1-0.7,0.1-1.4,0.1-2.1c0-0.2-0.3-0.5-0.5-0.7c-0.2,0.2-0.5,0.4-0.7,0.6c-0.1,0.1-0.1,0.3-0.1,0.4
		c0,1.8-0.1,3.7-0.6,5.5c-0.2,0.9-0.3,1.9-0.5,2.9c-0.8,2.9-1.4,5.9-3.3,8.4c-1.1,1.5-1.9,3.2-2.9,4.8c-0.1,0.1-0.2,0.2-0.4,0.4
		c0.1-1,0.3-1.8,0.4-2.6c0.1-1,0.1-2,0.3-3c0.4-2.1,1-4.2,1.5-6.2c0.1-0.4,0.2-0.9,0.4-1.3c0.2-0.8,0.5-1.6,0.8-2.4
		c0.3-0.9,0.1-1.4-0.8-1.4c-1.3-0.1-2.7-0.1-4-0.1c-3.2-0.1-6.3-0.5-9.5-1.1c-1.7-0.3-3.5-0.4-5.3-0.5c-1.1-0.1-2.2-0.1-3.3-0.2
		c-0.6,0-0.8,0.2-0.8,0.7c-0.1,0.8-0.1,1.7-0.2,2.5c-0.2,2.5-0.4,5-0.5,7.4c-0.1,1-0.1,1.9-0.1,2.9c-0.2,2.3-0.3,4.6-0.5,6.9
		c0,0.4-0.2,0.8-0.1,1.3c0,0.4,0.1,0.9,0.3,1.2c0.7,1.4,1.6,2.7,2.3,4.1c0.3,0.5,0.7,0.7,1.2,0.7c1.3,0.1,2.5,0,3.8,0.2
		c2.1,0.2,4.3,0,6.4,0.8c0.8,0.3,1.3-0.4,1.8-0.8c0.4-0.3,0.8-0.7,1.3-0.9c-0.1,0.6-0.2,1.1-0.4,1.7c-0.3,1-0.5,2-1,2.9
		c-0.6,1.2-1.4,2.4-2.1,3.6c-0.4,0.7-1,1.3-1.2,2c-0.3,0.8-0.8,1.2-1.4,1.6c-0.9,0.9-1.9,1.8-2.8,2.7c-0.5,0.5-0.9,1.1-1.4,1.6
		c-0.2,0.3-0.5,0.7-0.1,1c0.4,0.3,0.6-0.1,0.9-0.3c1-1.2,2.1-2.3,3.1-3.5c0.3-0.3,0.8-0.6,1.1-0.9c0.7,1.5,1.3,3,2,4.6
		c-0.4,0-0.7,0-1,0c-2.2,0-4.3,0.1-6.4,0.7c-0.7,0.2-1.4,0.6-1.9,1.1c-0.9,0.7-0.6,2.1,0.4,2.5c0.6,0.2,1.2,0.4,1.8,0.4
		c1.2,0,2.4-0.1,3.5-0.1c0.3,0,0.6,0.1,0.9,0.2c-0.6,0.2-1.2,0.3-1.8,0.5c-1.7,0.6-3.4,1.1-5,1.7c-0.8,0.3-1.5,0.7-2.2,1.1
		c-0.8,0.4-1,1.2-0.9,2c0.1,0.7,0.6,1,1.2,1.2c0.1,0,0.2,0.1,0.3,0.2c0,0.1,0,0.1,0,0.1c-0.2,1.7,0.4,2.4,2.3,2.5
		c0.7,0,1.4,0,2.1,0.1c0.2,0,0.5,0.2,0.6,0.4c0.6,1.5,2,1.8,3.4,2c1.1,0.2,2.2,0.8,3.4,0.8h1.6c-0.1,0-0.2-0.5-0.4-0.5
		c-1.5-0.4-3.1-0.9-4.5-1.3c0.1-0.4,0.2-1,0.4-1.6c0-0.1,0.3-0.3,0.4-0.3c1.2,0,2.3,0,3.5,0c0.2,0,0.4,0.3,0.5,0.5
		c0.1,0.2,0.1,0.5,0.2,0.7c0.1,0.2,0.3,0.2,0.5,0.3c0.1-0.2,0.2-0.4,0.3-0.6c0-0.2-0.1-0.5-0.1-0.8c0.3,0.1,0.5,0.1,0.8,0.2
		c0.6,0.2,1.3,0.4,1.9,0.6c0.2,0,0.4-0.2,0.6-0.2c-0.1-0.2-0.2-0.4-0.4-0.5c-2.2-0.9-4.5-1.4-6.9-1.1c-1.8,0.2-3.6,0.3-5.4,0.4
		c0.4-0.9,0.3-1.7-0.2-2.6c1.2-0.2,2.3-0.5,3.4-0.7c0.8-0.2,1.6-0.3,2.3-0.4c0.4-0.1,0.6,0.1,0.7,0.5c0,0.2,0.1,0.5,0.2,0.7
		c0.1,0.1,0.3,0.2,0.5,0.3c0.1-0.2,0.2-0.4,0.2-0.5c0-0.3-0.1-0.5-0.3-1c1,0.1,1.8,0.2,2.7,0.3c0.3,0,0.7,0.3,0.8-0.2
		c0-0.2-0.4-0.5-0.6-0.6c-2.2-0.4-4.3-0.6-6.5,0c-1.4,0.4-2.8,0.6-4.3,0.9c0.1-0.9,0-1.8-0.9-2.4c2-0.5,3.8-1.6,5.8-1.9
		c0.1,0.4,0.1,0.8,0.2,1.2c0,0.1,0.3,0.2,0.4,0.3c0.1-0.1,0.3-0.3,0.3-0.4c0-0.4,0-0.8,0-1.3c1,0.2,1.8,0.4,2.7,0.6
		c0.4,0.1,0.8,0.2,1.2,0.2c0.2,0,0.4-0.2,0.6-0.3c-0.2-0.2-0.4-0.4-0.6-0.4c-1-0.2-1.9-0.4-3-0.7c0.4-0.3,0.8-0.4,1-0.7
		c0.1-0.1,0.1-0.4,0.2-0.6c-0.2,0-0.4-0.1-0.6,0c-1,0.6-2.1,0.7-3.3,0.6c-1-0.1-2.1,0.1-3.3,0.1c1.3-0.7,1.9-1.5,1-2.9
		c1.5-0.1,2.9-0.1,4.3-0.2c1-0.1,1.7,0.3,2.5,0.9c2,1.5,3.5,3.4,5,5.3c0.9,1.2,2,2.1,3.7,2.3c0.5,0.1,1.1,0.6,1.5,1.1
		c0.4,0.5,0.5,1.1,0.7,1.7c0.1,0.3,0.3,0.6,0.4,0.9c0.1,0,0.1,0,0.2,0c0.1-0.1,0.2-0.3,0.2-0.4c0.1-1.2-0.7-3.2-2.1-3.8
		c-0.2-0.1-0.3-0.4-0.5-0.5c0.3-0.2,0.7-0.5,1-0.5c0.5,0.1,0.9,0.5,1.4,0.7c1.5,0.9,2.9,1.8,4.3,2.8c0.8,0.6,1.4,1.3,2.1,2
		c0.1,0.1,0.2,0.5,0.1,0.6c-0.5,1.1-1.1,2.3-1.7,3.3h1.3c0.5-1,1-1.8,1.5-2.6c0.1-0.1,0.5-0.2,0.6-0.1c1.4,0.9,2.9,1.7,4.3,2.7h1.6
		c0.3-1,0.7-1.2,1-1.7c1-1.7,2-3.5,3.1-5.2c2.2-3.3,4.5-6.7,6.7-10c1.9-2.8,4.2-5.4,6.4-8c1.2-1.4,1.8-3.1,2.2-4.9
		c0.5-2.2,1-4.5,1.8-6.7C199.9,115.2,200.3,113.6,199.6,112z M12.7,34.5c-1.8,0-3.7,0-5.5,0c-0.4,0-0.6-0.1-0.6-0.6
		c0-6.1,0-12.1,0-18.2c0-0.1,0-0.2,0-0.2h6.9c0,0,0,0.4,0,0.6c0,5.9,0,11.8,0,17.7C13.5,34.4,13.3,34.5,12.7,34.5z M26.4,34.5
		c-1.6,0-3.3,0-4.9,0c-0.4,0-0.7-0.1-0.6-0.6c0-6.2,0-12.2,0-18.4c0-0.1,0,0,0,0h6.7v0.2c0,6-0.2,12-0.2,18.1
		C27.4,34.4,27,34.5,26.4,34.5z M58.9,33.7c0,0.6-0.2,0.9-0.9,0.9c-3-0.1-6.1,0-9.2,0c-0.3,0-0.6,0.2-0.6-0.3c0-2.6,0-5.8,0-7.8
		h10.6c0,0,0.1,0.3,0.1,0.6c0,2.2,0,4.2,0,6.4C58.9,33.5,58.9,33.5,58.9,33.7z M73.4,34.5c-1.5,0-3,0-4.5,0c-0.4,0-0.7-0.1-0.7-0.6
		c0-5.5,0-10.9,0-16.4c0,0,0,0,0,0h5.8c0,0,0,0.4,0,0.6c0,5.3,0,10.5,0,15.7C74.2,34.4,74,34.5,73.4,34.5z M94.4,34.5
		c-2.2,0-4.4,0-6.6,0c-0.9,0-1.7,0-2.6,0c-0.4,0-0.6,0.1-0.6-0.3c0-2.6,0-5.7,0-7.7H95c0,2,0,5.1,0,7.8
		C95.1,34.7,94.7,34.5,94.4,34.5z M19.6,74.5h-13v-18h13V74.5z M40.6,74.5h-13v-19h13V74.5z M62.6,74.5h-10v-13h10V74.5z M84.6,74.6
		c-3.3,0-6,0-10,0V63.5h10.6c0,0,0,0.4,0,0.6c0,3.3-0.1,6.6-0.1,9.9C85.2,74.3,85.1,74.6,84.6,74.6z M14.5,114.5H6.6v-11.3
		c3,0,4.9,0,7.2,0c0.3,0,0.6,0.3,0.6,0.7C14.4,107.3,14.5,110.5,14.5,114.5z M30.5,114c0,0.1,0-0.5,0,0.5h-8.3c0-1,0-0.6,0-0.8
		c0-3.2,0-6.5,0-9.7c0-0.5,0.1-0.8,0.7-0.8c2.3,0,4.6,0,6.9,0c0.5,0,0.9,0.2,0.9,0.8C30.5,107.2,30.5,110.7,30.5,114z M10.7,88.7
		c0.3,0.4,0.6,0.9,0.9,1.4c-0.1,0-0.1,0.1-0.2,0.1c-0.4-0.3-0.9-0.6-1.3-1C10,89.1,10,88.9,10,88.7C10.2,88.7,10.6,88.6,10.7,88.7z
		 M3.5,90.6C3.2,90.4,3,90.2,2.8,90c0-0.1,0.1-0.3,0.2-0.6c0.3,0.4,0.5,0.7,0.6,1C3.6,90.5,3.5,90.5,3.5,90.6z M3.7,89.2
		c0-0.1,0.1-0.1,0.1-0.2c0.2,0.1,0.6,0.2,0.6,0.3c0.2,1,1,1.5,1.7,2c0.2,0.2,0.3,0.4,0.4,0.6C5,91.6,4.2,90.5,3.7,89.2z M5.2,89.4
		c0.7-0.7,1-0.7,1.4-0.1c0.4,0.5,0.8,1,0.7,1.9C6.6,90.5,5.9,90,5.2,89.4z M12.4,93.3c-1.2-0.8-2.6-1-3.9-1.5
		c-0.5-0.2-0.7-0.4-0.7-0.9c0-0.4-0.2-0.8-0.4-1.2C7.3,89.5,7.2,89.3,7,89c1,0,1.8,0.2,2.5,0.8c1,1,2.3,1.6,3.6,2.2
		c2,0.9,4,1.9,5.9,2.9C16.7,94.7,14.4,94.5,12.4,93.3z M44.3,104.4c-0.8,1.4-1.7,2.8-2.7,4.1c-0.7,1-1.5,1.9-2.7,2.4
		c-0.4-2.6,0.8-7.4,3.4-10.5c0.8,0.9,1.6,1.7,2.3,2.7C44.7,103.3,44.5,104,44.3,104.4z M47.4,98c-0.4,0.8-0.8,1.6-1.1,2.4
		c-0.2,0.4-0.4,0.7-0.6,1.1c-0.2-0.1-0.4-0.2-0.6-0.3c-1.2-1.2-2.4-2.5-3.6-3.7c-2-2-4.2-3.2-7.2-2.8c-2,0.3-4,0.2-5.9,0.4
		c-1.5,0.1-3,0.2-4.5-0.2c-1.4-0.3-2.8-0.5-4.3-0.8c-0.6-0.1-1.2-0.5-1.8-0.8c-1.7-0.8-3.4-1.6-5.1-2.4c-0.3-0.1-0.5-0.4-0.6-0.7
		c-0.2-0.5-0.4-1-0.7-1.7c0.7,0.3,1.3,0.6,2,0.9c2.3,1,4.5,2.3,7.1,2.3c0.6,0,1.1,0.2,1.3,0.8c0.1,0.2,0.4,0.3,0.6,0.5
		c0-0.3,0.1-0.6,0.1-0.8c0-0.1-0.1-0.2-0.1-0.4c1.1-0.1,2.2-0.3,3.4-0.4c0.1,0.2,0.1,0.4,0.2,0.6c0.1,0.2,0.3,0.3,0.4,0.4
		c0.1-0.2,0.2-0.4,0.3-0.6c0-0.1,0-0.2,0-0.3c-0.2-0.4,0-0.5,0.3-0.6c1.2-0.4,2.4-0.9,3.6-1.3c0.3-0.1,0.5-0.2,0.8-0.4
		c1.1-0.9,2.3-1.1,3.6-1.3c0.4-0.1,0.9,0.1,1.4,0.1c0.2,0,0.6,0,0.7-0.2c0.3-0.2,0-0.6-0.4-0.7c-1.1-0.3-2.3-0.1-3.3,0.2
		c-0.8,0.2-1.5,0.7-2.3,1c-1.5,0.6-2.9,1.2-4.4,1.7c-2.5,1-5.2,1-7.8,0.7c-0.5-0.1-0.9-0.3-1.5-0.5c1.4-0.3,2.8-0.6,4.1-0.8
		c1.2-0.2,2.5-0.2,3.7-0.4c0.7-0.1,1.3-0.4,2-0.7c0.8-0.3,1.4-1,1.9-1.6c0.1-0.2,0.1-0.5,0.1-0.7c-0.2,0-0.5,0-0.7,0
		c-0.1,0-0.1,0.1-0.2,0.1c-0.9,1.3-1.9,0.4-2.9,0.3c-0.1,0-0.2-0.3-0.2-0.5c0-0.2,0.2-0.3,0.2-0.5c0-0.2,0-0.4,0-0.6
		c-0.2,0.1-0.6,0.1-0.7,0.3c-0.2,0.3-0.3,0.7-0.5,1.1c-1.2-0.3-2.4-0.3-3.5-1.1c-0.4-0.3-0.6-0.7-0.5-1.3c0.1-0.6,0.4-0.8,0.9-1
		c1-0.3,1.9-0.2,2.8,0.1c2.2,0.8,4.5,1.3,6.9,1.1c1.3-0.1,2.7-0.1,4-0.2c1.4-0.1,2.7,0.4,3.8,1.2c0.3,0.3,0.7,0.5,1,0.7
		c1.1,0.7,1.5,2.4,0.9,3.6c-0.1,0.1-0.1,0.2-0.2,0.3c-0.1,0.4-0.2,0.8,0.2,1c0.2,0.1,0.5-0.3,0.7-0.5c0.2-0.4,0.4-0.8,0.5-1.3
		c0.1-0.4,0-0.9,0-1.5c0.2,0.2,0.4,0.3,0.5,0.4c1.7,1.5,3.5,2.9,5.4,4c0.1,0.1,0.3,0.2,0.4,0.4C48.7,94.2,48.4,96.1,47.4,98z
		 M143.7,30.7c0-0.3,0.2-0.6,0.4-0.8c0.2-0.3,0.4-0.5,0.7-0.7c0.2-0.2,0.5-0.4,0.8-0.3c0.2,0,0.4,0.4,0.5,0.6
		c0.4,1.5,0.5,3.1,0.1,4.7c-0.2,0.7-0.5,1.4-1.5,1.5c-0.7,0.1-1.1-0.1-1.1-0.8c0-0.5,0-1.4,0-1.4c0,0,0,0,0,0
		C143.7,32.5,143.6,31.6,143.7,30.7z M145.1,56c-0.2-0.6-0.3-0.9-0.4-1.4c-0.2-1-0.3-2-0.5-3c-0.1-0.4-0.1-0.9,0-1.3
		c0.1-0.4,0.4-0.4,0.6-0.1C146.1,51.8,146.6,53.9,145.1,56z M143.7,56.9c0.2,1.1-0.4,1.7-1,2.3c-1.2,1.2-2.4,2.4-4,3.2
		c-0.6,0.3-1.1,0.5-1.7,0.7c-1.6,0.6-2.8,1.7-3.6,3.1c-0.3,0.6-0.7,1.1-1.1,1.7c-0.4,0.6-0.8,1.2-1.1,1.7c-1.3-0.7-2.6-1.4-3.9-2.1
		c-0.2-0.1-0.3-0.2-0.4-0.4c-0.3-0.5-0.5-1.1-0.9-1.5c-0.7-0.8-1.6-1.6-2.3-2.4c-0.4-0.4-0.6-0.9-0.9-1.3c-0.8-1.3-1.7-2.5-2.5-3.8
		c-0.2-0.3-0.3-0.8-0.3-1.2c0-1.1,0-2.1,0-3.2c0-0.3,0.1-0.6,0.2-0.9c0.3,0.1,0.6,0.1,0.8,0.2c2,1.1,4,1.1,6.2,0.7
		c2-0.4,3.7-1.3,5.2-2.6c1.7-1.6,3.6-3.1,5.2-4.8c2-1.9,3.8-4.1,4.9-6.6c-0.1,0.8-0.2,1.6-0.3,2.3c-0.1,1.4-0.1,2.9,0,4.3
		c0.1,1,0.4,2,0.5,3C143.1,51.9,143.3,54.4,143.7,56.9z M110.6,17.5c0.3-1.4,1-2.6,2-3.5c1.3-1.2,2.6-2.3,4-3.4
		c0.8-0.6,1.8-0.8,2.6-1.2c0.5-0.2,0.9-0.4,1.4-0.7c0.4-0.2,0.7-0.6,0.6-1.2c-0.2-0.9-0.2-1.7-0.3-2.6c-0.1-0.6,0.2-0.8,0.7-0.8
		c0.5-0.1,0.7,0.2,0.7,0.7c0.1,0.7,0.2,1.4,0.3,2.1c0.1,1.2,0.7,1.8,1.9,1.9c2.7,0,5,1.2,7.3,2.2c1,0.4,1.8,1.3,2.5,2.1
		c1.4,1.6,2.7,3.3,3.9,5.1c1.3,1.8,2,4,2.6,6.1c0.5,2.1,1.2,4.1,1.7,6.2c0.4,1.8,0.5,3.7-0.1,5.6c-0.6,1.9-1.2,3.9-2.3,5.6
		c-1.1,1.6-2.3,3.1-3.8,4.4c-1.3,1.2-2.6,2.3-3.9,3.5c-2.4,2.2-5.1,3.3-8.4,3.1c-1.4-0.1-2.4-0.8-3.4-1.6c-0.8-0.6-1.6-1.3-2.4-2
		c-2.2-1.9-4-4.1-5.2-6.7c-0.7-1.5-1.6-3-1.9-4.7c-0.2-1.2-0.2-2.4-0.3-3.6c-0.2-2.1-0.4-4.2-0.6-6.3c-0.1-1.2,0.9-2.2,2.1-2.1
		c1,0.1,1.9,0.3,2.8,0.6c0.4,0.1,0.7,0.2,0.9-0.2c0.2-0.4,0.3-0.9-0.1-1.1c-0.5-0.3-1.1-0.6-1.7-0.7c-1.2-0.2-2.4,0-3.3,1
		c-0.1,0.1-0.3,0.2-0.5,0.4c0,0-0.1,0-0.2,0.1C110.2,22.9,110,20.2,110.6,17.5z M129.4,99.8c0.1,0.2,0,0.4,0.1,0.8
		c-0.4-0.6-0.7-1.1-1-1.6c-0.6-1.1-1.4-2.1-2.3-3c-1.5-1.5-2.8-3.1-4.2-4.5c-0.9-1-2-1.8-3-2.7c-1.4-1.3-2.8-2.6-4.2-3.9
		c-0.6-0.5-1.2-1-1.8-1.4c-0.1-0.1-0.3-0.1-0.4-0.2c-0.9-0.6-0.9-0.8-0.5-1.8c0.8-1.6,1.4-3.3,2.2-5c0.5-1.1,1-2.1,1.5-3.2
		c0.1-0.2,0.1-0.6-0.1-0.7c-0.2-0.2-0.6-0.2-0.8-0.1c-2.1,0.9-4.2,1.8-6.3,2.8c-0.3,0.1-0.6,0.3-0.9,0.4c0-1.6-0.1-3.2,0-4.7
		c0.1-1.6,0.3-3.2,0.5-4.8c0.3-2.1,0.7-4.1,1.5-6.1c0.1-0.2,0.4-0.5,0.7-0.6c0.4-0.2,0.9-0.3,1.4-0.4c0.9,0,1.5-0.5,2-1.1
		c0.9-1,1.7-2.1,2.5-3.1c0.2-0.2,0.4-0.4,0.6-0.7c0.1,0,0.1,0,0.2,0.1c-0.2,0.9-0.3,1.8-0.5,2.7c-0.6,2.5-0.8,4.9-0.6,7.4
		c0.2,2.1,0.2,4.3,1,6.4c0.3,0.7,0.7,0.9,1.3,0.4c0.2-0.1,0.3-0.3,0.6-0.5c1,2.4,1.9,4.8,2.9,7.1c0.6,1.4,1.2,2.7,1.8,4
		c1.1,2.4,2.1,4.8,2.9,7.4c0.5,1.7,1.1,3.4,1.6,5.1C128.4,96.2,128.9,98,129.4,99.8z M154.2,70.9c-0.4,2.1-0.8,4.2-1.1,6.4
		c-0.1,0.5,0,1,0,1.5c-1.5-0.3-2.6-1.1-3.8-1.7c-1.3-0.7-2.5-1.4-3.7-2.1c-0.3-0.2-0.6-0.4-0.9-0.6c-0.2-0.1-0.5-0.1-0.7,0
		c-0.1,0.1-0.2,0.4-0.2,0.6c0,0.6,0.2,1.2,0.2,1.8c0.1,2.3,0.1,4.6,0.2,6.9c0,0.5-0.2,0.7-0.6,0.8c-2.7,0.6-5.2,1.7-7.8,2.7
		c-1.8,0.7-3.3,1.8-4.9,3c-0.8,0.6-1.7,1.1-2.6,1.7c-0.3-0.7-0.5-1.1-0.1-1.8c1.5-2.4,3.1-4.6,5-6.7c1.8-2,3.3-4.1,4.9-6.3
		c1.1-1.5,2.2-3.1,3.4-4.5c0.9-1.1,1.8-2.2,2.8-3.3c1.4-1.6,2.2-3.4,2.7-5.5c0.2-0.9,0.6-1.7,0.8-2.6c0.4-1.6,1-3.1,0.6-4.8
		c0.1,0,0.2,0,0.2-0.1c0.2,0.3,0.4,0.5,0.5,0.8c0.7,1.4,1.7,2.6,3,3.5c0.7,0.5,1,1.2,1.3,1.9c0.2,0.4,0.3,0.9,0.5,1.3
		C154.9,66.2,154.6,68.6,154.2,70.9z M147.9,150.2c0.4,0.1,0.4,0.4,0.1,0.7c-0.3,0.2-0.6,0.7-0.9,0.6c-0.7-0.1-1-0.7-1.3-1.5
		C146.6,150,147.3,150,147.9,150.2z M144.2,148.2c0,0.7-0.6,1.3-1.4,1.3c-0.2,0-0.6,0-1-0.2c-0.5-0.2-0.8-0.5-0.8-1.1
		c0-0.6,0.3-0.8,0.8-0.9c0.4-0.1,0.8-0.2,1.2-0.3C143.6,147,144.2,147.4,144.2,148.2z M143,145c0.1,0.6-0.4,1.4-1,1.5
		c-0.4,0.1-0.8,0.1-1.3,0.2c-0.3,0-0.6-0.1-0.8-0.2c-0.7-0.2-0.8-1.1-0.2-1.5c0.5-0.4,1-0.7,1.6-0.9
		C141.9,143.9,142.8,144.4,143,145z M144.6,139c-0.5,0.3-1,0.6-1.6,0.8c-0.5,0.2-1-0.2-1-0.9c0.1-0.1,0.2-0.4,0.4-0.5
		c0.6-0.3,1.3-0.6,2-0.7c0.2,0,0.6,0.3,0.7,0.6C145.1,138.4,144.9,138.8,144.6,139z M153.9,117.9c-0.6,0.4-1.2,0.9-1.7,1.3
		c-0.4,0.4-0.8,0.6-1.4,0.3c-1.1-0.4-2.2-0.5-3.4-0.5c-1.9,0-3.9-0.3-5.8-0.3c-0.8,0-1.1-0.4-1.4-1c-0.5-1-1.1-2-1.8-3
		c-0.4-0.5-0.4-1.1-0.3-1.6c0.1-1.6,0.3-3.2,0.4-4.8c0.2-2.9,0.3-5.8,0.5-8.6c0.1-1.9,0.3-3.7,0.4-5.6c0-0.3,0.1-0.7,0.2-1.1
		c0.5,0,1,0,1.5,0c1.2,0.1,2.4,0.2,3.6,0.3c1.7,0.2,3.4,0.5,5,0.7c1.4,0.2,2.8,0.4,4.2,0.5c2.3,0.2,4.7,0.3,7,0.4
		c-0.3,1.3-0.7,2.6-1.1,3.9c-0.8,2.7-1.4,5.5-1.7,8.3c-0.1,1.2-0.3,2.4-0.5,3.6c-0.1,0.5,0,1-0.2,1.4c-0.7,1.5-1.3,3-2.2,4.4
		C155.3,117.2,154.5,117.5,153.9,117.9z M160.4,143.4c-0.4,0.3-0.7,0.3-1-0.1c-1.3-1.5-2.6-3-3.9-4.5c-0.6-0.7-1.4-1.2-2.2-1.9
		c-0.3-0.3-0.7-0.5-0.9-0.9c-1-1.5-1.8-3.1-2.1-4.8c-0.1-0.6,0.1-1.4,0.4-2c0.3-0.7,0.8-1.3,1.3-1.8c1.1-1.2,1.9-2.5,2.3-4.1
		c0.7-2.9,1.9-5.7,3.7-8.1c0.9-1.3,1.8-2.7,2.6-4.1c1.4-2.3,2.7-4.6,4-6.9c0.1-0.1,0.2-0.3,0.2-0.2c1.5,0.8,2.8,1.6,4.2,2.3
		c1.5,0.8,2.8,1.8,3.9,3.2c0.8,1.1,1.9,1.9,2.9,2.9c0.2,0.2,0.5,0.5,0.6,0.9c0.5,1,0.9,2,1.4,3.1c0.4,0.9,0.5,1.7,0,2.7
		c-0.8,1.6-1.9,3-3.1,4.4c-0.9,1.1-1.4,2.4-1.8,3.8c-0.2,0.9-0.8,1.7-1.3,2.5c-1.1,1.6-2.3,3.2-3.4,4.7c-0.4,0.5-0.8,1-1.2,1.4
		c-1.2,1.3-2.4,2.5-3.5,3.8c-0.4,0.5-0.6,1.1-1,1.6C161.9,142.1,161.1,142.7,160.4,143.4z"/>
	<path class="st0" d="M123.2,47c-1.9,0-3.3-0.7-4.1-2.6c-0.3-0.7-0.7-1.3-1.2-1.9c-0.3-0.4-0.2-0.7,0.2-0.8c1.3-0.4,2.6-1,4.1-0.8
		c0.4,0.1,0.9,0,1.3-0.2c2.1-0.7,4.2-0.9,6.4-0.9c0.5,0,1,0,1.5,0c0.2,0,0.4,0,0.6,0.1c0,0.2,0,0.5-0.1,0.6c-0.6,0.9-1.2,1.9-2,2.6
		c-1.1,1.1-2.4,2-3.7,2.9C125.4,46.6,124.4,47,123.2,47z M130.8,40.9c-1.1,0.7-2.2,1.4-3.3,2c-1.9,1-3.8,1.9-6,1.4
		c-0.7-0.1-1.3-0.4-1.9-0.6c0.6,2.4,3.3,3.5,5.6,2.2c0.7-0.4,1.4-0.8,2-1.2C128.6,43.6,130,42.6,130.8,40.9z M128.8,41.3
		c-2.8,0.6-5.7,1.1-8.6,1.7c0.5,0.6,2,1,3,0.8C125.3,43.3,127.2,42.6,128.8,41.3z M119.1,41.9c0,0.1,0,0.2,0.1,0.3
		c3.4-0.1,6.6-0.9,9.8-1.8c-1.1,0-2.1,0.1-3.2,0.2c-1.4,0.2-2.7,0.8-4.2,0.8C120.8,41.4,120,41.7,119.1,41.9z"/>
	<path class="st0" d="M123,23.4c0.1-1.1,0.8-1.7,1.5-2.2c1.9-1.2,4.1-1.6,6.3-1.4c0.5,0.1,1,0.3,1.5,0.5c0.6,0.3,1.1,0.7,1.7,1.1
		c0.2,0.1,0.2,0.4,0.3,0.6c-0.2,0-0.5,0.1-0.7,0.1c-0.2-0.1-0.5-0.3-0.7-0.4c-1.1-0.9-2.5-0.8-3.7-0.4c-1.7,0.5-3.4,1.3-4.7,2.6
		c-0.3,0.3-0.7,0.4-1.1,0.6C123.3,24.1,123.1,23.6,123,23.4z"/>
	<path class="st0" d="M115.7,28.5c1.5-0.1,2.5,0.8,3.5,1.5c0.1,0.1,0.2,0.4,0.2,0.5c0,0.1-0.3,0.3-0.4,0.3c-1.2,0.3-2.3,0.6-3.5,0.8
		c-1.3,0.3-2.5-0.1-3.7-0.4c-0.1,0-0.2-0.7-0.1-0.8C112.9,29.4,114.1,28.3,115.7,28.5z M114.4,29.3c-0.6,0.4-1.1,0.8-1.7,1.2
		c0,0.1,0,0.2,0,0.3c0.6,0.1,1.2,0.2,1.8,0.4C114.5,30.5,114.4,30,114.4,29.3z M118.3,30.3c0-0.1,0-0.1,0.1-0.2
		c-0.4-0.3-0.8-0.5-1.3-0.9c0,0.5,0,0.9,0,1.3C117.5,30.4,117.9,30.3,118.3,30.3z"/>
	<path class="st0" d="M125.8,29.2c-0.1-0.1-0.4-0.1-0.4-0.3c-0.1-0.1,0.1-0.4,0.2-0.6c0.4-0.5,0.9-1,1.4-1.4
		c1.2-1.1,2.6-1.2,4.1-1.1c0.5,0,1,0.1,1.5,0.2c0.2,0,0.4,0.2,0.5,0.3c-0.1,0.2-0.2,0.4-0.4,0.6c-1.1,1-2.4,1.6-4,1.8
		C127.8,28.9,126.9,29,125.8,29.2z M126,28.5c0,0.1,0.1,0.2,0.1,0.2c0.8-0.2,1.7-0.3,2.5-0.5c-0.2-0.5-0.4-0.9-0.6-1.5
		C127.3,27.4,126.6,28,126,28.5z M130.7,27.9c0.5-0.4,1-0.8,1.5-1.1c0-0.1-0.1-0.1-0.1-0.2c-0.6,0-1.1,0-1.6,0
		C130.5,27,130.6,27.4,130.7,27.9z"/>
	<path class="st0" d="M119.3,34.1c0,0.2,0,0.5-0.1,0.7c-0.3,0.6-0.6,1.2-0.9,1.9c-0.5,1.1-0.2,1.6,1,1.6c0.6,0,1.3,0.2,1.9,0.4
		c0.7,0.2,1.1,0.1,1.5-0.5c0.6-0.8,1.4-1.2,2.4-1.2c0.3,0,0.6,0,0.8-0.1c0.7-0.3,0.8-1.1,0.2-1.5c-0.2-0.1-0.4-0.3-0.6-0.4
		c-0.1-0.1-0.1-0.2-0.2-0.3c0.1-0.1,0.3-0.2,0.4-0.2c0.8,0.2,1.4,0.9,1.3,1.8c-0.1,0.8-0.7,1.4-1.5,1.3c-1-0.1-1.8,0.3-2.4,1.1
		c-0.8,0.9-1.1,0.9-2.2,0.5c-0.6-0.2-1.2-0.3-1.8-0.4c-1.5-0.1-1.9-0.8-1.3-2.3c0.3-0.7,0.7-1.4,1-2.1c0.1-0.1,0.2-0.3,0.3-0.4
		C119.1,34,119.2,34.1,119.3,34.1z"/>
</g>
</svg>
