<?xml version="1.0" encoding="utf-8"?>
<!-- Generator: Adobe Illustrator 19.1.0, SVG Export Plug-In . SVG Version: 6.00 Build 0)  -->
<svg version="1.1" id="Layer_1" xmlns="http://www.w3.org/2000/svg" xmlns:xlink="http://www.w3.org/1999/xlink" x="0px" y="0px"
	 viewBox="0 0 150 182.9" style="enable-background:new 0 0 150 182.9;" xml:space="preserve">
<style type="text/css">
	.st0{fill:#E91E63;}
</style>
<g id="doctor-lady">
	<path class="st0" d="M6.4,142.4c-2.9,13.1-1.1,27.2-6.4,39.5c0.9-9.9,1.8-19.8,2.8-29.7c0.7-7.1,1.5-14.6,6-20.2
		c7.6-9.3,23.6-10.6,27.7-21.9c2.4-6.7,8.9-11.7,16-12.3c-4.5-5.2-7.6-11.6-9.1-18.4C35,74.6,32,62.4,37.3,54.3
		c-2.8-12.8-5.5-27.1,1.5-38.2c4-6.4,10.7-10.7,17.9-13.3c11.2-4.1,24.6-3.9,34.3,3c7.3,5.1,11.9,13.4,13.8,22.1
		c2,8.7,1.5,17.7,0.3,26.5c4.9,3.6,3.7,11,2.1,16.8c-1,3.4-2.4,7.3-5.9,8.3c-1.1,7.1-4.4,13.9-9.3,19.2c5.7,6.9,12.6,12.8,20.4,17.3
		c9.5,5.5,20.8,9.4,26.5,18.8c2.5,4,3.6,8.7,4.7,13.3c2.8,11.5,5.6,23.1,6.3,34.9c-2.8-11.7-5.5-23.3-8.3-35
		c-1-4.3-2.1-8.6-4.3-12.4c-7.9-12.9-27.3-14.2-36.4-26.4c1.8,3.6,3.6,7.2,5.4,10.8c3.3-0.2,6.5,1.9,8.4,4.6s2.7,6.1,3.2,9.4
		c1.5,9.5,0.7,19.4-2.1,28.6c2.1,2.6,5.6,3.9,8.8,3.4c1.9-0.3,2.1,3.2,0.3,3.9c-1.8,0.7-3.8-0.4-5.4-1.5c-1.6-1.1-3.3-2.2-4.9-3.3
		c-1.6,1.3-2.6,3.2-3.8,4.8c-1.2,1.6-2.8,3.2-4.9,3.5c-2,0.3-4.3-1.5-4-3.5s4.1-2.1,4.1,0c2.7-1.6,4.8-4.1,6-7
		c-4.7-4.2-8.6-9.4-11.3-15.1c-7.3,7.2-14.5,14.3-21.7,21.5c5.8-8.6,12.9-16.1,21.1-22.4c-2.6-4.1-4.3-8.8-4.8-13.6
		c-1.3,0-2.5-1-2.9-2.2c3.3-2.9,6.2-6.5,8.3-10.4c-0.9-7.5-5.1-14.5-11.2-18.9c4.4,26.2-10.1,51.9-11.8,78.4
		c-0.1-3.8-1.6-7.6-4.2-10.4c-2.4-2.7-5.7-4.6-8.8-6.5c-8.6-5.3-16.5-11.6-23.5-18.8c-0.7-0.7-1.3-1.5-1.2-2.4
		c0.1-0.8,0.8-1.3,1.4-1.7c3-2.2,6-4.4,8.9-6.6c-2.3-0.4-4.7-0.7-6.7-2c-2-1.2-3.5-3.6-3.1-5.9c0.9-5.2,1.9-10.3,2.8-15.5
		c-3.1,0.7-5.3,3.5-6.2,6.5s-0.7,6.2-0.5,9.4c0.5,7.1,1,14.2,1.5,21.3c0.2,2.7,0.8,6,3.4,6.8c4,1.3,5.6,7.2,2.8,10.4
		c-2.8,3.2-8.6,2.7-11-0.8c-2.4-3.5-0.8-9,3-10.9c-2.1-12-2.7-24.3-1.8-36.4c-6.2,4.1-12.5,8.2-18.7,12.3c-2.4,1.6-4.9,3.3-6.7,5.6
		C7.8,137,7,139.7,6.4,142.4 M106.3,171.2c-0.7-0.1-1.2-0.7-1.9-0.9c-0.7-0.2-1.7,0.5-1.2,1c1.1,0.8,2.6,0.9,3.9,0.4
		c1.3-0.5,2.3-1.4,3.2-2.5c4-4.5,6-10.4,6.8-16.4c0.7-6,0.3-12-0.3-18c-0.8,0.3-0.8,1.4-0.7,2.3c0.7,5.9,1.2,12,0.2,17.9
		c-1,5.9-3.6,11.7-8.3,15.5C107.5,170.9,106.9,171.3,106.3,171.2 M70.1,109.9c2.8,0.5,5.7-0.6,8.3-1.9C86,104.1,92.3,97.7,96,90
		c3.3-6.6,4.7-14,6-21.2c0.4-2.1,0.8-4.3,0.9-6.5c0.2-6.6-2.7-12.8-4-19.2c-0.8-4-1-8.2-3-11.7c-2.1-3.6-5.8-6-9.8-7.3
		c-4-1.3-8.2-1.6-12.4-1.9c-4.5-0.3-9.1-0.6-13.6-0.9c-0.5,0-0.9,0.2-1.3,0.5c-1.6,1.1-3.3,2.2-4.9,3.3c-4.7,3.2-9.8,6.7-11.9,12
		c-2.8,7,0.2,15-1.2,22.4c-0.1,0.3-0.3,0.8-0.6,0.6c-0.6-1.2-1.3-2.3-1.9-3.4c-1.3-0.2-2,1.5-2.1,2.8C35.8,65,37.2,70.6,40,75.3
		c0.6,1.1,1.6,2.2,2.8,2c-1.4-3.4-2.2-7.1-2.1-10.8c0.5-0.4,1.1,0.5,1.2,1.1c1.5,7.9,3.8,15.7,7.6,22.8c3.8,7.1,9.3,13.4,16.2,17.6
		C67.1,108.9,68.5,109.6,70.1,109.9 M95.9,28.6c2.2,2.9,3,6.5,3.8,10c1.1,5.1,2.3,10.2,3.4,15.3c0.6-3.3,1-6.6,1.2-9.9
		c0.2-2.2,0.2-4.5,0.2-6.7c-0.3-7-2.2-14-5.6-20.1c-1.2-2.1-2.5-4.1-4.1-5.9C88.4,4,78,0.5,68.3,1.8c-5.2,0.7-10.3,1.8-15.1,4
		c-4.8,2.1-9.1,5.3-12.1,9.6c-3.8,5.4-5.2,12.3-5.2,18.9s1.5,13.2,3,19.7c0.2,0.8,0.4,1.6,1,2.1c-0.1-2.2-0.2-4.3-0.4-6.5
		c-0.3-5.8-0.5-11.9,2.6-16.8c3.3-5,9.3-7.4,14.1-10.9c0.7-0.5,1.4-1.1,1.7-2c0.2-0.7,0-1.5-0.2-2.2c-0.8-3.1-1.6-6.3-2.4-9.4
		c-0.1-0.4-0.2-0.8-0.1-1.2c0.1-0.4,0.6-0.7,0.9-0.5c0.3,0.1,0.4,0.5,0.5,0.7c1.2,4.2,2.2,8.4,3.1,12.7c7.3,0.2,14.7,0.4,22,1.7
		C87,22.6,92.6,24.3,95.9,28.6 M89,108.5c0.1-1.8,0.1-3.9-1.4-4.9c-2.4,1.8-4.8,3.6-7.4,5.2c-1.7,1.1-3.5,2.1-5.4,2.6
		c-3.6,0.9-7.5-0.2-10.6-2.2c-3.1-2-5.6-4.8-8.1-7.5c-2,4.2-1.2,9.1,0,13.6c4.3,16.5,13,31.5,19.2,47.4c0.9,2.4,1.8,4.9,2.1,7.4
		c3.1-15.4,8.6-30.3,10.2-46c-8.1,3-17,3.6-25.4,1.8c-1.1-0.2-2.5-0.8-2.6-1.9c9,2.3,18.8,1.8,27.5-1.6c0.3-0.1,0.7-0.3,0.9-0.5
		c0.2-0.3,0.2-0.6,0.2-1C88.4,116.8,88.7,112.6,89,108.5 M52.4,134c0,0.6-0.5,1-1,1.3c-3.2,2.4-6.4,4.9-9.6,7.3
		c4,4.2,8.4,8,13.2,11.2c1.2,0.8,2.5,1.6,3.6,2.6c1.2,1.1,2.3,2.4,3.5,3.5c4.1,3.4,10.1,4.3,13.5,8.3c-0.7-1.9-1.4-3.9-2.2-5.8
		c-3.9-9.7-8.8-19-12.9-28.5c-4.2-9.6-7.7-19.5-8.8-29.9c-0.1-0.7,0.3-1.8,0.9-1.5c-0.2,1.2,0,2.5,0.6,3.5c0.1-2.2,0.6-4.4,1.4-6.5
		c-2.8,2-5.6,4.1-7.4,7c-1.5,2.5-2.1,5.3-2.7,8.1c-0.9,4.6-1.5,9.2-2,13.8c0,0.5,0,1.1,0.4,1.2c2.5,0.9,5,1.7,7.5,2.6
		C51.4,132.6,52.5,133.1,52.4,134 M109.8,140.4c0.3,0.4-0.1,0.9-0.5,1.2c-2,1.6-4,3.2-6.1,4.8c2.8,5.3,6.3,10.2,10.4,14.6
		c1.2-3.8,1.9-7.8,2-11.7c0-2.1-0.1-4.2-0.2-6.3c-0.1-1.9-0.2-3.8-0.3-5.6c-0.2-3.5-0.5-7.2-2.3-10.2c-1.8-3-5.8-5-9-3.4
		c0.7,0.7,0.9,2,0.5,2.9c-0.5,0.9-1.6,1.5-2.6,1.3c-1-0.2-1.9,0.5-2.4,1.4c-0.5,0.9-0.5,1.9-0.6,2.9c0,0.4,0,0.9,0.2,1.2
		c0.2,0.2,0.4,0.4,0.7,0.6C103,136.1,106.4,138.2,109.8,140.4 M101.7,76.7c1,0,1.9-0.7,2.4-1.5c0.5-0.8,0.8-1.8,1-2.7
		c0.3-1.7,0.5-3.5,1-5.2c0.2-0.6,0.5-1.2,0.7-1.8c0.9-2.7,0.7-5.9-0.6-8.5c-0.3-0.5-1.1-0.4-1.5,0c-0.3,0.5-0.4,1.1-0.4,1.7
		c0,5.1-0.8,10.3-2.2,15.2C101.8,74.9,101.5,75.8,101.7,76.7 M104.9,143c0.8-0.6,1.6-1.3,2.4-1.9c0.2-0.1,0.3-0.3,0.2-0.5
		c-1.5-0.8-3-1.7-4.5-2.5c-0.3-0.2-0.7-0.4-1-0.6c-1-0.6-2-1.3-2.8-2.1c-0.3,0.4-0.1,1,0.1,1.5c1.1,2.8,2.2,5.7,3.3,8.5
		c0.1,0,0.2,0,0.3,0C103.1,144.4,104,143.7,104.9,143 M38.9,110.6c-0.3,0.5-0.5,1.1-0.2,1.5c1.6-1.2,3.1-2.4,4.7-3.6
		c0.8-0.6,1.6-1.2,1.9-2.1c0.5-1.5,1.7-2.6,2.9-3.6c1-0.8,2-1.7,3.1-2.4c-0.9-0.2-1.8,0.2-2.7,0.5c-2.1,1-4.1,2.3-5.7,4
		C41.3,106.6,40.1,108.6,38.9,110.6 M41.4,165.4c0.9-0.4,1.7-1.3,2.1-2.2c1.1-2.4,0.4-5.4-1.6-7.1c-1.1-0.9-2.5-1.3-3.8-1.2
		c-1.6,0.2-3.1,1.4-3.7,3c-0.7,2,0.1,4.2,1.5,5.7c0.6,0.6,1.2,1.1,1.9,1.4c0.7,0.4,1.5,0.6,2.3,0.6C40.5,165.7,41,165.6,41.4,165.4
		 M105.1,152.8c1,1.4,2,2.8,3,4.2c1.5,2,3,4,5.2,5.3c-6.7-6.9-11.9-15.3-15-24.5c-0.5,1,0,2.1,0.4,3.1
		C100.4,145.1,102.6,149.1,105.1,152.8 M99.2,110.4c-0.3,0.1-0.2,0.5-0.1,0.7c0.9,2.4,1.7,4.7,2.7,7c0.4,1,0.8,1.9,0.9,2.9
		c0.1,0.4,0.7,0.3,0.8,0c0.2-0.3,0-0.7-0.1-1C102.1,116.8,100.7,113.6,99.2,110.4 M124.8,167.2c-0.6-0.3-1.2,0.3-1.5,0.9
		c-3.1-0.7-5.9-2.3-8.1-4.5c-0.1,0.5,0.3,0.9,0.6,1.2c2,1.8,4.4,3.1,7,3.8c0.6,0.2,1.3,0.3,1.8,0
		C125.1,168.4,125.3,167.5,124.8,167.2 M102.7,126c0.2-0.1,0.4-0.2,0.4-0.4c0-0.1,0-0.3,0-0.5c-0.1-0.4-0.2-0.8-0.3-1.2
		c-1.1,0.8-2.1,1.9-2.9,3C100.9,126.8,101.8,126.4,102.7,126 M95.6,130.7c-0.4,0.1-0.9,0.3-1.3,0.6c0.5,0.4,1.1,0.7,1.7,0.7
		c0.2-0.6,0.3-1.3,0.3-1.9C96,130.3,95.8,130.4,95.6,130.7 M91,101.7c0.3,0.4,0.9,0.6,1.4,0.4c-0.6-0.8-1.6-1.2-2.6-1
		C90.2,101.4,90.5,101.6,91,101.7"/>
	<path class="st0" d="M38.8,69.1c-1.1-1.4-1.5-3.2-1.2-5c0-0.1,0.1-0.3,0.1-0.4c0.2-0.2,0.5-0.3,0.7-0.2c0.8,1.6,1.2,3.3,1.2,5.1
		C39.4,68.8,39.1,68.9,38.8,69.1"/>
	<path class="st0" d="M103.8,69.2c0.4-1.5,0.6-3,0.7-4.6c0.1-0.9,0.1-1.9,0.5-2.7c0.1-0.3,0.6-0.3,0.8,0c0.2,0.3,0.2,0.6,0.2,0.9
		c0,1.7-0.3,3.4-0.8,5C105.1,68.5,104.6,69.4,103.8,69.2"/>
	<path class="st0" d="M73.1,83.4c-0.5,0-1,0-1.4-0.2c-0.5-0.3-0.8-0.9-1.4-1.2c-0.7-0.3-1.5,0-2.2,0.3c-0.7,0.3-1.6,0.6-2.2,0.1
		c-0.5-0.4-0.6-1.2-0.6-1.8c0-0.3,0-0.7,0.2-0.9c0.2-0.3,0.7-0.3,0.8,0c-0.1,0.5-0.1,0.9,0.1,1.3c0.2,0.4,0.8,0.6,1.1,0.3
		c1.3-1.1,3.6-0.6,4.4,0.9c1.1,0.3,2.2,0,3.1-0.7c0.9-0.7,2.2-1.1,3.4-0.9c0.2,0,0.5,0.1,0.7,0c0.6-0.2,0.9-1,1.4-0.7
		c0.3,0.4,0.2,1-0.2,1.4c-0.3,0.4-0.8,0.6-1.3,0.7c-0.3,0.1-0.6,0.2-0.8,0.2c-0.7,0-1.4-0.7-1.9-0.2C75.5,82.8,74.3,83.3,73.1,83.4"
		/>
	<path class="st0" d="M96,46.2c-0.5,0.8-1.6,0.7-2.6,0.8c-0.7,0.1-1.4,0.4-2,0.7c-1.9,0.9-3.8,2-5.7,3c-1.1,0.6-2.2,1.3-3.4,1.7
		c-1.2,0.4-2.5,0.5-3.7,0c-0.4-0.6,0.1-1.4,0.7-1.8c0.6-0.3,1.4-0.3,2.1-0.4c2.3-0.3,4.4-1.5,6.5-2.6c2.5-1.3,5.3-2.6,8.1-2.1
		C96.1,45.9,96.1,46,96,46.2"/>
	<path class="st0" d="M47.9,49.7c-0.7-0.2-1-1.1-0.7-1.7c0.3-0.7,1-1,1.7-1.1c0.7-0.1,1.4,0.1,2.1,0.3c2,0.6,4,1.3,6,2
		c0.5,0.2,0.9,0.3,1.3,0.5c2,0.7,3.9,1.4,5.9,2.1c0.6,0.2,1.3,0.6,1.2,1.2c0,0.7-1,0.9-1.7,0.8c-2.8-0.3-5.3-1.7-7.8-3
		c-1.9-1.1-4.2-2.2-6.3-1.4C49.1,49.5,48.5,49.9,47.9,49.7"/>
	<path class="st0" d="M37.9,164.2c-1.4-0.7-2.6-2-2.9-3.5c-0.3-1.5,0.5-3.2,1.8-4c1.3-0.8,3.1-0.8,4.4,0.1c0.6,0.4,1,1,1.4,1.6
		c0.5,1,0.7,2.1,0.5,3.3c-0.1,0.8-0.5,1.5-1.1,2c-0.2,0.2-0.5,0.3-0.7,0.5c-0.5,0.2-1,0.4-1.5,0.5C39.1,164.7,38.5,164.4,37.9,164.2
		 M41.9,160.5c-0.3-0.1-0.4-0.5-0.4-0.8c-0.2-1.5-1.9-2.6-3.4-2.2c-1.5,0.4-2.3,2.2-1.7,3.6c0.4,0.8,1.2,1.5,2,1.8
		c0.6,0.2,1.3,0.4,1.9,0.2c0.6-0.2,1.2-0.7,1.3-1.3C41.6,161.3,41.5,160.7,41.9,160.5"/>
	<path class="st0" d="M17.3,152.1c0.3,0,0.5,0.1,0.8,0.1c-0.2,9.3,1.1,18.6,3.8,27.4c0.2,0.6-0.5,1.1-1.1,1c-0.6-0.1-1-0.7-1.1-1.3
		c-0.1-0.6-0.1-1.2-0.2-1.8c-0.1-0.8-0.4-1.5-0.6-2.2c-1.6-4.7-1.8-9.7-2-14.6C16.7,157.8,16.6,154.9,17.3,152.1"/>
	<path class="st0" d="M126.4,177c1-2.8,1.5-5.8,1.5-8.8c0-1.6-0.2-3.3-0.3-4.9c-0.4-5.7,0-11.4,0.9-17c0.1-0.7,0.7-1.5,1.2-1.1
		c-0.7,6.1-0.3,12.2,0,18.3c0.1,2.4,0.3,4.8,0.4,7.2c0.1,2.6-0.5,5.3-1.8,7.6c-0.3,0.6-0.9,1.2-1.5,1.1
		C126,179.2,126.1,177.9,126.4,177"/>
	<path class="st0" d="M97.5,56.8c0.6,0.2,0.5,1.1,0.2,1.7c-1.2,2.2-3.5,3.7-5.9,4.3c-2.4,0.6-5,0.4-7.5,0.1c-1.3-0.2-2.7-0.4-4-0.6
		c-0.6-0.6-0.7-1.6-0.2-2.3c2.1-3,5.8-4.9,9.5-4.8c1.6,0,3.2,0.5,4.8,0.9C95.4,56.2,96.4,56.5,97.5,56.8 M91.2,60.5
		c0.3,0.2,0.7,0.1,1-0.1c0.6-0.3,1.2-0.7,1.8-1c0.5-0.3,1-0.8,0.7-1.2c-0.1-0.1-0.2-0.2-0.4-0.3c-1-0.4-2.2-0.1-2.9,0.7
		C91.2,59.2,91.2,59.9,91.2,60.5 M84.9,58.4c-0.8,0.5-1.5,1-2.1,1.7c-0.3,0.3-0.7,0.7-1.1,0.8c1.3,0.2,2.6,0.5,3.8,0.8
		C84.4,61,84,59.4,84.9,58.4"/>
	<path class="st0" d="M47.4,59.4c1.7-0.4,3.4-1.1,4.9-2c2.1-1.4,4.9-1,7.3-0.1c0.4,0.1,0.8,0.3,1.1,0.5c1.1,0.5,2,1.4,2.9,2.3
		c0.3,0.3,0.7,0.7,0.9,1.1c0.2,0.5,0.1,1-0.3,1.3c-2.8,2.2-6.6,2.3-10.2,2.1c-1.4-0.1-2.8-0.2-4-0.9c-0.8-0.5-1.4-1.2-2-2
		C47.5,60.9,47,60.1,47.4,59.4 M54.3,63c-0.9-0.3-1.5-1.3-1.4-2.3c0.1-0.6-0.8-0.9-1.4-0.7c-0.6,0.2-1.1,0.7-1.7,0.8
		c0.1,0.6,0.5,1,0.9,1.3C51.8,62.8,53.1,63.2,54.3,63 M61.6,60.5c-0.1-0.4-0.7-0.7-1-0.5c-0.2,0.9-0.6,1.8-1.1,2.6
		c-0.5-0.1-1.2-0.1-1.4,0.3c1.8,0.2,3.6-0.4,5-1.5C62.5,61.1,62,60.8,61.6,60.5"/>
	<path class="st0" d="M60.3,90.4c1.4,0.9,3.3,0.9,4.7-0.2c2.1-1.6,5-2.1,7.5-1.1c1,0.4,2-0.6,3.1-0.9c2.9-1,5.8,2.9,8.7,1.8
		c0.8-0.3,1.6-1,2.4-0.5c0,0.9-1.1,1.2-1.9,1.6c-1.1,0.6-1.7,1.8-2.5,2.8c-1.8,2.5-4.7,4.3-7.7,4.8c-3.1,0.5-6.3-0.3-8.8-2.1
		c-1.3-1-2.5-2.4-2.7-4c-0.9-0.2-1.9-0.5-2.7-1C60.2,91.1,60.3,90.7,60.3,90.4 M73.1,97.5c0.4,0,0.7-0.1,1.1-0.1
		c1.1-0.2,2.3-0.3,3.3-0.9c0.7-0.4,1.3-1,1.9-1.5c1-1,1.9-2,2.8-3c-5.8,2.2-12.2,2.5-18.2,0.9c0.9,1.3,2,2.4,3.3,3.3
		c0.8,0.5,1.6,0.9,2.5,1.1C70.9,97.4,72,97.2,73.1,97.5 M74.6,89.9c-0.5,0.6-1.5,0.6-2.3,0.4c-0.8-0.2-1.5-0.6-2.3-0.7
		c-0.8,0-1.6,0.3-2.4,0.6c-1,0.4-2,0.8-3.1,1.2c-0.2,0-0.2,0.3,0,0.3c5.3,1.2,10.8,0.9,16-0.7c0.2-0.1,0.5-0.1,0.6,0.1
		c0.1-0.2,0.3-0.4,0.6-0.4c-0.1-0.1-0.2-0.2-0.3-0.3c-1.1-0.2-2.2-0.5-3.3-0.8C76.9,89.4,75.4,89,74.6,89.9"/>
</g>
</svg>
