<?xml version="1.0" encoding="utf-8"?>
<!-- Generator: Adobe Illustrator 19.2.1, SVG Export Plug-In . SVG Version: 6.00 Build 0)  -->
<svg version="1.1" id="Layer_1" xmlns="http://www.w3.org/2000/svg" xmlns:xlink="http://www.w3.org/1999/xlink" x="0px" y="0px"
	 viewBox="0 0 194.9 200" style="enable-background:new 0 0 194.9 200;" xml:space="preserve">
<style type="text/css">
	.st0{fill:#2196F3;}
</style>
<g id="pharm-becky">
	<path class="st0" d="M0,165.1c1.1-0.5,2.2-1,3.3-1.4c3.4-1.5,7.1-2.3,10.6-3.3c2.9-0.8,5.7-1.7,8.5-2.8c1.9-0.7,3.6-1.9,5.4-2.8
		c2.1-1.1,4.3-2.2,6.4-3.3c0.8-0.5,1.6-1,2.4-1.6c2.1-1.7,4.7-2.4,7.2-3.3c1.5-0.5,3-1,4.4-1.6c1-0.5,1.9-1.2,2.7-2.1
		c3-3.3,6.4-6.1,10-8.7c1.7-1.2,3-2.8,4.3-4.5c1.3-1.7,2.9-3.2,4.4-4.9c0.3-0.4,0.6-0.9,0.7-1.4c0.1-1.8,0.1-3.6,0.2-5.4
		c0.1-1.2-0.4-2.1-1.1-3c-0.8-0.9-1.5-1.9-2.4-2.7c-0.8-0.8-1.8-1.4-2.7-2.1c-2.9-2.3-6.2-4-8.7-6.8c-0.9-1-1.7-2.1-2.6-3.1
		c-0.6-0.9-1.2-1.8-1.8-2.6c-1.8-2.5-3-5.2-4-8.1c-1.2-3.4-2.5-6.7-3.6-10.1c-0.7-2.3-1.2-4.6-1.7-6.9c-0.4-1.7-0.7-3.5-0.8-5.2
		c-0.3-2.9-0.3-5.8,0.5-8.7c1.2-4.5,2.9-8.7,4.7-13c0.6-1.5,1.5-2.9,2.3-4.3c1.1-2,2-4,3.3-5.9c1.2-1.8,2.6-3.6,4.2-5.1
		c2.9-2.7,4.6-6,5.1-9.9c0.3-1.9,0.4-3.9,0.7-5.8c0.3-1.9,1.4-3.5,2.6-5c1.2-1.5,2.3-3,3.8-4.2C68.8,5,69.4,4.5,70,4.1
		c2.6-1.5,5.5-2.2,8.4-2.9c4.7-1.1,9.5-1.5,14.2-1c4,0.4,8,0.3,11.9,1.3c2.4,0.6,4.9,0.9,7.4,1.4c0.7,0.1,1.4,0.4,2.1,0.7
		c1.6,0.8,3.3,1.5,4.8,2.5c2.3,1.4,4.6,2.7,6.8,4.3c2.3,1.7,4.6,3.5,6.5,5.7c2.1,2.4,4.4,4.7,6.5,7c1.7,1.9,3.3,3.8,4.9,5.7
		c0.7,0.9,1.1,2.1,1.7,3.1c0.3,0.6,0.5,1.2,0.9,1.8c1.6,2.6,2.7,5.4,3.9,8.2c1,2.3,1.7,4.6,2.3,7c0.3,1.2,0.9,2.3,1.3,3.5
		c0.6,1.6,0.8,3.3,0.9,5.1c0.1,2.4,0.5,4.8,0.7,7.2c0.2,2.3,0.4,4.6,0.6,6.9c0,0.5,0.1,1,0.2,1.5c0.1,1.4-0.1,2.8-0.5,4.2
		c-0.5,2.1-0.8,4.2-1.2,6.3c-0.2,0.8-0.5,1.6-0.6,2.4c-0.3,1.9-0.5,3.9-0.8,5.8c-0.3,1.8-0.6,3.6-0.9,5.4c-0.2,1.1-0.3,2.1-0.4,3.2
		c-0.2,1.7-0.4,3.4-0.5,5.1c-0.2,1.7-0.4,3.3-0.5,5c-0.2,3.9-0.9,7.7-2.5,11.2c-1,2.1-2.5,4.1-4,5.9c-1.2,1.5-2.7,2.8-4,4.1
		c-0.5,0.5-0.8,0.9-0.7,1.6c0.1,0.4,0,0.9,0.1,1.3c0,0.2,0.2,0.5,0.4,0.6c2.1,0.8,3.7,2.3,5.4,3.7c2.6,2.1,5.3,4,7.9,6
		c0.4,0.3,0.7,0.6,1.1,1c1.3,1.4,2.6,2.6,4.2,3.7c0.8,0.5,1.4,1.2,2,1.9c1.9,2.3,4.3,3.8,6.8,5.1c4.1,2.1,8.5,3.5,13,4.6
		c2.6,0.6,5.3,1.3,7.7,2.6c0.7,0.4,1.2,0.9,1.9,1.3c1.4,0.8,2.8,1.7,4.3,2.4c0.7,0.3,1,0.8,0.8,1.5c0,0.2,0,0.4,0,0.8
		c-1.5-0.8-2.9-1.4-4.2-2.2c-1.6-1-3.1-2.3-4.9-3c-2.3-0.9-4.8-1.5-7.2-2.2c-5.6-1.5-11.1-3.5-16-6.7c-0.9-0.6-1.6-1.3-2.5-2
		c0.1,0.4,0.2,0.7,0.4,1c1.1,2.3,2.2,4.7,3.4,6.9c0.5,1,1.5,1.7,2.2,2.6c0.3,0.3,0.6,0.7,0.6,1c0,0.3-0.5,0.6-0.9,0.7
		c-2.5,0.9-5,1.7-7.5,2.5c-1.8,0.6-3.5,1.2-5.5,1.8c3.3,1.4,6.4,2.6,9.7,4c-0.6,0.7-1.2,1.3-1.8,1.9c-0.3,0.4-0.6,0.8-1,1.2
		c-1.4,1.6-2.9,3.2-4.2,4.9c-2.4,2.9-4.8,5.7-7,8.7c-2.3,3.1-4.8,6-7.5,8.8c-0.4,0.4-0.7,0.6-1.2,0.5c-0.4,0-0.7,0-1,0
		c6.9-8.4,13.9-16.9,20.9-25.5c-1-0.4-2-0.8-2.9-1.2c-1.7-0.7-3.4-1.4-5.1-2.2c-0.3-0.1-0.6-0.3-1-0.4c-0.5-0.2-0.8-0.5-0.8-1.1
		c0-0.6,0.5-0.8,1-0.9c1.5-0.5,3-0.8,4.5-1.3c3-1,5.9-2,9-3c-0.3-0.4-0.6-0.7-0.9-1c-2-2.8-3.2-5.9-4.7-9c-0.3-0.7-0.6-1.5-0.8-2.2
		c-0.4-0.9-0.7-1.8-1.7-2.3c-0.5-0.2-0.9-0.7-1.3-1.1c-2.8-2.9-6-5.5-9.4-7.8c-1.3-0.8-2.4-2-3.6-2.9c-0.8-0.6-1.7-1-2.6-1.6
		c0.1,1.2,0.1,2.1,0.2,3.1c0.3,2.7,0.1,5.2-0.7,7.8c-0.7,2.1-1,4.2-1.5,6.3c-0.8,3.1-1.7,6.1-2.5,9.2c-1.7,6.1-3.4,12.2-5.2,18.3
		c-0.9,3.1-2,6.2-3.1,9.2c-1.1,3-2.4,6-3.6,9c-0.1,0.3-0.5,0.6-0.7,0.6c-4.6,0-9.2,0-13.9,0c0.7-2.1,1.3-4.2,1.9-6.3
		c0.6-2.2,1.3-4.3,2.8-6c1.4-1.8,3-3.4,4.5-5.1c1.6-1.8,3.3-3.5,4.9-5.2c0.8-0.8,0.9-1.8,0.5-2.8c-1-2.4-1.5-4.9-1.3-7.5
		c0.1-0.7,0.3-1.4,0.6-2.1c1-2.3,2.1-4.6,3.2-6.9c0.3-0.7,0.6-1.5,1-2.2c0.7-1.4,0.8-2.9,1.3-4.3c0.9-2.8,1.5-5.6,2-8.4
		c0.3-1.8,0-3.6-0.4-5.4c-0.7-2.8-0.7-5.6-0.1-8.4c0.2-0.8,0.2-1.7,0.2-2.6c0.1-2.1,0.2-4.2,0.3-6.6c-0.7,0.7-1.2,1.2-1.7,1.7
		c-2.4,2.8-5,5.3-7.8,7.7c-2,1.8-4.4,3-6.5,4.5c-3.1,2.3-6.6,3.6-10.3,4.5c-4.5,1.1-8.9,0.9-13-1.6c-1.4-0.9-3-1.6-4.4-2.5
		c-0.9-0.6-1.7-1.3-2.4-2c-1.3-1.2-2.7-2.4-3.9-3.7c-1.3-1.5-2.4-3.2-3.6-4.8c-1.3-1.9-2.6-3.7-4-5.7c-0.1,0.7-0.2,1.4-0.2,2
		c-0.1,1.6-0.2,3.3-0.3,4.9c0,1,0.1,1.9,0.2,2.9c0.2,2,0.5,4,0.5,6c0,2,0.3,3.8,1.3,5.6c1,1.8,1.4,3.9,2.8,5.4
		c0.8,0.8,1.6,1.7,2.3,2.6c1.5,1.9,2.8,3.8,4.4,5.6c1.2,1.4,2.6,2.5,3.8,3.8c1.2,1.2,1.2,3.4,0.2,4.8c-0.6,0.7-1.1,1.5-1.6,2.2
		c-0.8,1.2-1.8,2.3-2.1,3.7c-0.2,1.1-0.4,2.2-0.4,3.3c0,1,0.7,1.7,1.6,2c0.9,0.4,1.7,0.7,2.6,0.9c1.6,0.4,3.1,1.1,4.2,2.2
		c0.8,0.8,1.3,2,1.7,3.2c1,3.2,1.9,6.4,2.7,9.6c0.2,0.6,0.1,1.3,0.2,1.9c0.5,2.9,0.9,5.8,1.4,8.7c-1.4,0-2.9,0-4.4,0
		c-0.2,0-0.4-0.3-0.5-0.5c-0.8-2.4-1.5-4.9-2.3-7.3c-0.1-0.3-0.2-0.7-0.4-1c-2-4.5-4.1-9.1-6.1-13.6c-0.7-1.6-1.5-3.1-2.2-4.7
		c-1-2.5-2-5.1-3-7.6c-0.4-1-0.9-1.9-1.4-2.9c-1.6-2.9-2.3-6.1-3.2-9.2c-1-3.2-1.7-6.6-2.7-9.8c-0.4-1.2-0.4-2.4-0.4-3.6
		c0-2.2,0.1-4.5,0-6.7c-0.1-1.7-0.3-3.4-0.5-5.1c0-0.4-0.1-0.7-0.1-1c-1,0.9-2.1,1.7-3,2.8c-1.3,1.7-2.5,3.5-4.2,4.9
		c-1.4,1.1-2.9,2.2-4.3,3.3c-0.4,0.3-0.7,0.5-1.1,0.8c-0.4,0.3-0.8,0.6-0.7,1.3c0,0.3-0.2,0.6-0.4,0.9c-1.1,1.6-1.7,3.3-2.2,5.2
		c-0.6,2.3-1.2,4.5-1.7,6.8c-0.3,1.1-0.2,2.3-0.4,3.5c-0.4,2.1-0.8,4.3-1.2,6.4c-0.4,2.3-0.9,4.6-1.4,6.9c-0.1,0.3,0,0.6,0,1.1
		c1.8-0.7,3.4-1.4,5.1-2c3.2-1.2,6.4-2.3,9.6-3.5c1-0.4,1.9-0.8,2.8-1.2c0.3-0.1,0.6-0.2,0.9-0.2c0.8,0,1.2,0.4,0.8,1.2
		c-2,4-3.3,8.5-5.9,12.2c-2.7,3.8-5.4,7.7-8,11.5c-0.1,0.2-0.2,0.3-0.3,0.5c4.2,3.3,8.1,6.8,11.9,10.7c-1.2,0.1-2.2,0.2-3.1-0.9
		c-2.9-3.3-6.3-6-9.8-8.7c-0.9-0.6-0.9-1.2-0.3-2.1c2.2-3.2,4.3-6.6,6.7-9.6c2.7-3.5,4.4-7.4,6-11.4c0.2-0.4,0.3-0.7,0.5-1.2
		c-1.2,0.4-2.4,0.8-3.6,1.2c-4.4,1.6-8.7,3.2-13.1,4.8c-0.2,0.1-0.5,0.2-0.7,0.2c-0.7,0.2-1.3-0.2-1.2-1c0.2-1.5,0.4-2.9,0.6-4.4
		c0.5-2.7,1-5.3,1.5-8c0.6-3.2,1-6.4,1.7-9.5c0.5-2.4,1.3-4.7,1.9-7.2c-0.4,0.4-0.9,0.8-1.2,1.2c-1.1,1.6-2.7,2.4-4.5,3
		c-2.5,0.9-5.1,1.8-7.5,2.9c-1.7,0.8-3.1,1.9-4.7,2.9c-1.6,0.9-3.3,1.8-4.9,2.7c-1.7,0.9-3.4,1.8-5.1,2.6c-1.4,0.7-2.8,1.2-4.2,1.8
		c-0.8,0.4-1.6,0.8-2.5,1c-3,0.9-6,1.6-9,2.5c-2.4,0.8-4.8,1.7-7.2,2.6c-0.9,0.4-1.9,0.8-2.8,1.2C0,166.3,0,165.7,0,165.1z
		 M57.8,89.2c0.6-0.2,1-0.3,1.4-0.4c0.8-0.2,1.4-0.6,1.5-1.5c0-0.3,0.3-0.5,0.3-0.8c0.1-0.4,0.2-0.8,0.2-1.2
		c-0.1-0.9-0.3-1.7-0.4-2.5c0-0.3,0.2-0.7,0.4-0.8c0.2-0.1,0.6,0.1,0.8,0.2c0.6,0.3,0.4,0.9,0.5,1.4c0.3,1.9,0.7,3.8,1.1,5.8
		c0.6,2.5,1.2,5,1,7.6c-0.1,1.4,0,2.9,0.1,4.4c0.1,3.8,1.5,7.3,3.7,10.3c1.2,1.7,2.6,3.3,3.9,5c1.6,2.1,3.1,4.3,4.6,6.5
		c1,1.4,1.9,2.9,3,4.2c1.1,1.3,2.5,2.5,3.7,3.7c1.5,1.5,3,2.8,4.9,3.8c1.3,0.7,2.7,1.4,4,2.1c2.8,1.5,5.8,1.3,8.8,1
		c2.5-0.2,4.7-1.4,7-2.1c2.1-0.7,3.7-2,5.5-3.1c2.9-1.7,5.6-3.7,8-6.1c2.2-2.2,4.3-4.4,6.4-6.6c0.8-0.9,1.7-1.8,2.3-2.9
		c0.9-1.5,1.7-3.1,2.5-4.7c0.6-1.2,1.2-2.5,1.4-3.8c0.5-3.3,0.8-6.5,1-9.8c0.1-2.7,0.1-5.5-0.2-8.2c-0.1-1.7-0.7-3.4-1.8-4.9
		c-1.6-2-2.8-4.3-3.8-6.6c-0.4-1-0.8-1.9-1.1-2.9c-0.3-0.8-0.6-0.9-1.3-0.6c-3.3,1.2-6.6,2.2-10.2,1.7c-2.4-0.3-4.6-0.8-6.6-2.2
		c-0.3-0.2-0.7-0.4-1.1-0.5c-0.6-0.3-0.7-0.8-0.2-1.2c0.3-0.2,0.6-0.5,0.9-0.7c1.2-1.1,2.7-1.9,4.2-2.4c2.9-0.9,5.8-0.7,8.6,0.3
		c1.2,0.4,2.3,0.8,3.7,1.2c-0.1-0.5-0.2-0.9-0.3-1.3c-0.5-2.6-1.6-5-3-7.2c-0.1-0.2-0.4-0.4-0.6-0.4c-0.6,0-1.2,0-1.9,0.1
		c-3.2,0.4-6.4,1-9.4,2.3c-0.2,0.1-0.7,0-0.8-0.2c-0.1-0.2-0.1-0.6,0.1-0.8c0.1-0.2,0.4-0.4,0.6-0.4c1.4-0.5,2.7-1,4.1-1.3
		c2.2-0.5,4.5-0.8,6.8-1.1c-0.1-0.2-0.2-0.6-0.4-0.9c-0.9-1.4-1.8-2.8-2.7-4.2c-0.9-1.4-1.7-2.7-2.6-4c-1.2-1.7-2.4-3.4-3.6-5.2
		c-1.3-1.8-2.5-3.8-3.9-5.4c-2.2-2.5-4.4-5-6.1-7.8c-1.2-1.9-2.6-3.5-4.9-4.2c-1.2-0.4-2.5-0.6-3.8-0.8c-2.4-0.3-4.8-0.7-7.2-1.3
		c-2.1-0.5-4,0.1-5.7,1.1c-2.5,1.4-4.9,3.1-7.5,4.5c-4,2.2-6.3,5.6-7.5,9.8c-0.5,1.6-0.7,3.3-1.1,5c-0.9,3.3-1.7,6.6-1.6,10.1
		c0,0.9,0,1.7-0.2,2.6c-0.6,2.6-1.1,5.2-1.1,7.9c0,1.5-0.1,3.1-0.4,4.6c-0.3,1.6-0.7,3.2-0.6,4.9c0,0.5-0.1,0.9-0.7,1
		c-0.6,0.1-0.9-0.3-1.1-0.8c-0.2-0.6-0.4-1.2-0.6-1.8c-0.3-0.8-0.8-1.3-1.7-1.4c-1,0-1.7,0.4-2.1,1.2c-0.3,0.8-0.6,1.7-0.8,2.5
		c-0.2,1.3-0.2,2.6-0.4,3.9c-0.3,2.9-0.3,5.8,0.5,8.7c0.5,1.8,1.2,3.5,2.1,5.2c0.6,1.2,1.9,1.3,3.1,1.5c0.1,0,0.3-0.1,0.4-0.1
		c0.8-0.6,1.5-1.2,2.3-1.8c0.5-0.3,0.7-0.7,0.7-1.3c-0.2-1-0.3-2.1-0.5-3.1c-0.2-1.2-0.5-2.4-0.8-3.5c-0.4,0.5-0.6,1-1.1,1.3
		c-0.8,0.4-1.6,0.8-2.4,1c-1.3,0.3-2-0.3-2-1.7c0-1.4,0-2.8,0.2-4.2c0.1-1,0.5-2.1,0.8-3c0.1-0.3,0.6-0.4,0.9-0.6
		c0.1,0.3,0.3,0.7,0.3,1c0,0.2-0.1,0.4-0.2,0.6C57.8,84.6,57.8,86.8,57.8,89.2z M116.1,76.2c-1.1-1.1-1.6-2.3-1.4-3.8
		c0-0.3,0.2-0.6,0.1-0.9c0-0.2-0.4-0.5-0.5-0.5c-1.3,0.7-2.5,1.4-3.8,2.1c-0.1,0.1-0.2,0.3-0.3,0.5C112,75.2,114,75.8,116.1,76.2z
		 M122.6,75.9c0.2,0,0.4-0.1,0.6-0.2c1.2-0.4,2.3-0.7,3.5-1.1c0.8-0.3,1.1-1.1,0.4-1.4c-1.2-0.7-2.5-1.2-3.7-1.7
		C123.2,73.1,122.9,74.5,122.6,75.9z M119.8,72.7c0-0.7-0.3-1-0.9-1c-0.6,0-1.1,0.2-1.1,1c0,0.6,0.2,1,0.9,1
		C119.4,73.8,119.8,73.3,119.8,72.7z"/>
	<path class="st0" d="M118.6,105.6c0.2,0.9-0.2,1.5-0.6,2.1c-0.9,1.3-1.8,2.5-2.7,3.7c-2,3-4.9,4.6-8.2,5.9
		c-3.8,1.5-7.7,1.2-11.6,0.7c-2.5-0.3-4.9-1.2-6.7-3c-0.9-0.9-1.6-2.1-2.1-3.2c-0.9-2.1-2.2-3.7-4.2-4.8c-0.2-0.1-0.4-0.2-0.5-0.4
		c-0.1-0.3-0.2-0.6-0.2-1c0.3,0,0.6,0,0.9,0.2c1.4,0.6,2.7,1.3,4.3,1.3c2.9,0,5.8,0.1,8.7,0.1c0.5,0,1.1-0.1,1.6-0.1
		c0.9-0.1,1.8,0,2.6,0.5c0.7,0.4,1.4,0.3,2.2,0c1.6-0.5,3.2-0.8,4.9-1c2.4-0.3,4.7,0.2,7.1,0.5c1.4,0.2,2.9,0.1,3.9-1.2
		C118.1,105.8,118.4,105.7,118.6,105.6z M116.2,108.7c-0.7,0.4-1.5,0.7-2.2,1.1c-1.3,0.6-2.6,1.5-4.1,1.8c-2,0.4-4.2,0.5-6.3,0.5
		c-2.4,0.1-4.9,0-7.3-0.1c-2.2-0.1-4.5-0.1-6.6-1c-0.9-0.4-1.8-0.8-2.9-1.2c0.6,1.6,1.1,3,2.1,4.3c1.1,1.3,2.5,1.9,4,2.6
		c2.8,1.2,5.6,1.1,8.5,1.2c0.8,0,1.7-0.1,2.5-0.3c1.2-0.3,2.3-0.8,3.4-1.1C111.5,115.1,114.2,112.4,116.2,108.7z M86.4,107.9
		c0,0.1-0.1,0.2-0.1,0.2c0.1,0.1,0.3,0.2,0.4,0.3c0.2,0.2,0.5,0.3,0.7,0.5c2.3,1.6,5,2.1,7.7,2.3c3.1,0.2,6.3,0.1,9.4,0.2
		c2.9,0.1,5.7-0.7,8.3-2c0.5-0.3,1-0.7,1.5-1c0-0.1-0.1-0.2-0.1-0.3c-0.9-0.2-1.8-0.4-2.8-0.6c-2.9-0.4-5.7-0.4-8.5,0.7
		c-1.2,0.5-2.2,0.5-3.4,0.1c-0.7-0.3-1.4-0.5-2.1-0.5c-2.7,0-5.3,0.2-8,0.2C88.5,108.1,87.4,108,86.4,107.9z"/>
	<path class="st0" d="M84.2,76.3c-2.9-0.1-5.6-0.5-8.3-1.3c-0.6-0.2-1.3-0.1-1.9-0.2c-0.4-0.1-0.7-0.4-1-0.6
		c0.2-0.3,0.3-0.6,0.6-0.8c0.9-0.8,1.9-1.5,2.9-2.2c1.3-1,2.9-1.2,4.5-1.4c1-0.1,2-0.4,3-0.3c1.6,0.1,3.2,0.4,4.6,0.9
		c0.8,0.3,1.5,1.1,2.2,1.7c0.6,0.5,1.1,1,1.7,1.5c0.2,0.2,0.4,0.6,0.3,0.8c-0.1,0.2-0.4,0.5-0.7,0.5c-1.9,0.4-3.8,0.8-5.6,1.2
		C85.7,76.3,84.8,76.3,84.2,76.3z M80.5,70.9c-2,0.5-3.8,1.1-5.4,2.8c1.9,0.5,3.6,0.9,5.4,1.4C79.5,73.5,79.8,72.2,80.5,70.9z
		 M86,70.8c1.4,1.4,1.3,2.9,0.5,4.6c1.6-0.4,3-0.8,4.6-1.2C89.9,72,88,71.2,86,70.8z M83.1,73c0.5-0.1,1-0.3,1-0.9
		c0-0.7-0.5-0.8-1-0.8c-0.5,0-1,0.3-0.9,0.9C82.2,72.7,82.4,73.1,83.1,73z"/>
	<path class="st0" d="M99.5,101.9c-2,0.2-3-1-3.9-2.4c-0.9-1.3-1.9-2.1-3.6-1.6c-0.5,0.2-1.1,0.1-1.6,0c-0.8-0.1-1.3-0.6-1.4-1.4
		c-0.2-1.7,0.6-3.1,1.5-4.5c0.2-0.3,0.4-0.7,0.7-0.9c0.2-0.2,0.5-0.2,0.8-0.3c0,0.3,0.2,0.6,0.1,0.8c-0.2,0.4-0.5,0.7-0.8,1.1
		c-0.7,1-1.2,2.1-1.3,3.3c0,0.7,0.3,0.9,0.9,0.9c0.9-0.1,1.7-0.2,2.6-0.3c1.2-0.1,2.1,0.4,2.6,1.5c0.5,1.1,1.1,2.2,2.4,2.6
		c2,0.6,3.2-0.6,4.3-1.9c0.4-0.5,0.8-1,1.3-1.4c0.9-0.8,1.9-1.2,3.2-0.9c1,0.3,1.9-0.2,2.4-1.2c0.6-1.3,0.8-2.5-0.3-3.7
		c-0.3-0.3-0.6-0.8-0.7-1.2c-0.1-0.2,0.1-0.6,0.2-0.9c0.3,0.1,0.6,0.2,0.7,0.4c0.4,0.6,0.8,1.2,1.2,1.8c0.8,1.4,0.4,2.8-0.2,4.1
		c-0.6,1.2-1.6,1.7-2.8,1.7c-1.8-0.1-3.2,0.5-4.3,2.1c-0.4,0.5-1,0.9-1.5,1.4C101.2,101.7,100.4,102.1,99.5,101.9z"/>
	<path class="st0" d="M79.9,61.8c4.1-0.6,7.9,1.6,11.7,3.3c0.2,0.1,0.4,0.5,0.5,0.7c0,0.2-0.2,0.6-0.4,0.6c-0.4,0-0.9,0-1.3-0.2
		c-0.6-0.2-1-0.7-1.6-0.9c-1.2-0.5-2.4-1-3.7-1.4c-0.9-0.3-1.7-0.7-2.6-0.7c-2.8-0.1-5.7-0.6-8.4,0.6c-1,0.4-1.8,1.2-2.6,2
		c-0.4,0.4-0.7,0.6-1.2,0.2c-0.5-0.4-0.2-0.8,0.1-1.2c1.8-2,4-3.1,6.7-3C77.9,61.8,78.7,61.8,79.9,61.8z"/>
</g>
</svg>
