<?xml version="1.0" encoding="utf-8"?>
<!-- Generator: Adobe Illustrator 19.2.1, SVG Export Plug-In . SVG Version: 6.00 Build 0)  -->
<svg version="1.1" id="Layer_1" xmlns="http://www.w3.org/2000/svg" xmlns:xlink="http://www.w3.org/1999/xlink" x="0px" y="0px"
	 viewBox="0 0 161 179.1" style="enable-background:new 0 0 161 179.1;" xml:space="preserve">
<style type="text/css">
	.st0{fill:#8BC34A;}
</style>
<g id="pharm-carly-green">
	<path class="st0" d="M5.6,161.7c2.2-1,4.5-2,6.6-3.1s4.1-2.4,6.2-3.6c3.9-2.3,7.8-4.5,11.8-6.7c3.4-1.8,6.7-3.6,10.1-5.4
		c0.3-0.1,0.5-0.2,0.9-0.4c0.1,2.5,0.1,4.8-0.6,7.1c-0.2,0.9-0.5,1.7-0.7,2.6c-0.3,1.4-0.4,2.8-0.8,4.1c-0.6,2.6-1.4,5.1-2.1,7.6
		c-0.3,1.1,0.2,1.8,1.3,2c1.8,0.3,3.5,0.5,5.3,0.7s3.5,0.4,5.4,0.7c-0.2,0.3-0.3,0.5-0.4,0.7c-0.7,0.9-1.4,1.8-2,2.7
		c-1.7,2.9-3.7,5.7-5.7,8.4h3.3c0.7-0.9,1.4-1.8,2-2.7c1.5-2.1,2.9-4.3,4.4-6.5c0.5-0.8,1.2-1.6,1.8-2.4c0.6-0.7,0.4-1.4-0.3-1.6
		c-0.9-0.3-1.8-0.6-2.8-0.8c-2.9-0.5-5.7-0.8-8.5-1.2c-1-0.1-1.1-0.1-0.8-1.1c0.7-2.2,1.4-4.4,2-6.7c0.4-1.5,0.5-3.1,1-4.6
		c0.8-2.8,1.1-5.8,0.9-8.7c-0.1-0.9,0.2-1.4,0.8-1.9c1.4-1.2,2.7-2.4,4-3.6c0.5-0.5,0.9-1.1,1.4-1.6c1.8-1.6,3.7-3.2,5.5-4.8
		c0.1,0,0.2,0,0.2,0c0.2,0.6,0.3,1.2,0.4,1.7c0.2,1.2,0.6,2.4,0.7,3.6c0.2,2.7,0.1,5.4,0.3,8.1c0.3,3.4,0.5,6.8,1.3,10.1
		c1.2,4.9,2.6,9.7,4.9,14.3c0.5,1,1,2,1.4,3.1c0.9,2.2,1.7,4.4,2.5,6.6c0.1,0.2,0.2,0.5,0.3,0.7h35.2c0.2-1,0.2-2.1,0.5-3.1
		c0.8-2.7,1.6-5.3,2.5-7.9c1.1-3.2,2-6.4,1.8-9.8c-0.1-1-0.3-1.9-0.3-2.9c0-2.2,0.2-4.5,0.3-6.7c0.2-5.8,0.3-11.6,0.5-17.4v-0.8
		c0.1-0.1,0.2-0.1,0.3-0.2c0.3,0.4,0.6,0.8,0.9,1.2c1,1.3,2.2,2.4,3.9,2.9c0.2,0,0.4,0.2,0.5,0.3c1.1,1,2.3,2,3.3,3.1
		c1.7,1.9,3.3,3.8,5,5.8c0.6,0.7,1.2,1.3,1.6,2c0.8,1.5,1.5,3.1,2.3,4.6c1.1,2.1,2.3,4.2,3.4,6.3c0.5,0.9,0.4,1.1-0.5,1.6
		c-2.7,1.5-5.3,3-8,4.5c-0.7,0.4-0.9,1.1-0.4,1.6c0.6,0.7,1.3,1.4,2,2c1.6,1.5,3.2,3,4.8,4.5c0.1,0.2,0.1,0.5,0,0.7
		c-0.4,0.6-0.8,1.3-1.2,1.9c-0.5,0.7-1.1,1.2-1.5,1.8c-0.8,1.3-1.7,2.7-2.5,4h2.5c1-1.6,2-3.2,2.9-4.8c0.5-0.9,1-1.8,1.5-2.7
		c0.4-0.8,0-1.4-0.6-1.9c-1.2-1-2.3-2.1-3.4-3.1c-0.7-0.7-1.4-1.3-2.1-1.9c-0.3-0.2-0.6-0.6-0.9-0.9c0.5-0.3,0.8-0.6,1.2-0.7
		c2-0.6,3.9-1,5.7-2.1c0.8-0.5,1.7-0.9,2.5-1.4c1.1-0.6,1.2-0.9,0.6-2c-1-1.7-2-3.4-2.9-5.1c-1.5-2.9-2.8-5.9-4.3-8.8
		c-0.9-1.9-2.1-3.7-3.1-5.5c0.1-0.1,0.1-0.1,0.2-0.2c0.3,0.1,0.6,0.3,0.9,0.4c0.5,0.2,1,0.4,1.5,0.5c1.7,0.3,3.5,0.5,5.2,1
		c2.9,0.9,5.8,2,8.6,3c1.8,0.7,3.6,1.4,5.3,2.2c2.1,1,4.2,2.1,6.3,3.1c3.6,1.7,7.3,3.1,10.6,5.4c0.2,0.1,0.4,0.3,0.6,0.4
		c0-0.4,0.1-0.8,0.1-1.1c-1.7-1.1-3.5-2.2-5.2-3.1c-5.2-2.5-10.5-4.8-15.8-7.2c-2.4-1.1-4.8-2.2-7.3-3c-3-0.9-6.2-1.4-9.3-2.4
		c-2.7-0.8-5.3-1.9-7.8-3.2c-1.5-0.8-2.7-2-4.1-3c-1.2-0.9-2-2-2.5-3.5c-0.3-0.9-0.6-1.8-1-2.7c-0.6-1.5-0.8-2.8,0.3-4.3
		c2-2.8,3.5-6,5-9.1c1.4-3,2.4-6,2.9-9.2c0.4-2.4,0.7-4.8,1.1-7.3c0,0,0.2-0.1,0.3-0.1c1.4-0.3,2.5-1,3-2.5c0.9-2.4,1.2-4.9,1.3-7.4
		c0.1-1.5,0.3-2.9,0.9-4.3c0.7-1.7,1.3-3.5,1.7-5.3c0.3-1.2,0.2-2.5,0.3-3.8c0.1-1.8,0.3-3.6,0.1-5.3c-0.2-1-0.7-2.3-1.5-2.8
		c-1.2-0.8-1.5-1.4-1.2-2.8c0.6-2.4,0.7-5,1.9-7.2c0.4-0.7,0.7-1.6,0.9-2.4c0.4-2.2,1-4.5,1.2-6.8c0.2-2.5,0.2-4.9,0-7.4
		c-0.1-2.1-0.6-4.2-1.1-6.2c-0.4-1.8-1.1-3.5-1.8-5.1c-0.8-1.8-1.9-3.5-2.8-5.3c-0.7-1.4-1.5-2.7-2.7-3.8c-0.8-0.8-1.6-1.5-2.2-2.4
		c-2.2-3-4.9-5.5-7.6-8c-1.3-1.3-2.9-2.4-4.8-2.7c-3.2-0.6-6.5-1.1-9.7-1.7c-2.4-0.4-4.8-1.1-7.2-1.3C82.1,0,77.9,0.1,73.7,0
		c-2.4-0.1-4.8,0.4-7.1,1.4c-4.7,2.2-9.3,4.4-14,6.6c-1.4,0.7-2.8,1.3-4,2.3c-1.9,1.6-3.7,3.4-5.5,5.2c-1,1.1-1.7,2.5-2.8,3.5
		c-1.9,1.8-3.4,3.8-4.8,6c-1.3,2-2.8,4-3.6,6.2c-1.1,2.9-1.6,6-2.4,9c-0.5,1.6-0.8,3.3-1.2,5c-0.2,0.8-0.3,1.6-0.4,2.4
		c-0.1,1.4-0.2,2.9-0.3,4.3c-0.2,1.5-0.5,2.9-0.5,4.4c0,3.5,0.1,7,0.2,10.5c0.1,1.4,0.3,2.8,0.5,4.2c0.2,1,0.3,2,0.5,3
		c0.2,0.9,0.3,1.9,0.5,2.8c0.5,2.1,1.2,4.2,1.6,6.3C31.2,87,32.7,90.7,35,94c1.4,2,2.8,4,3.7,6.4c0.6,1.3,1.3,2.6,2,3.9
		c0.4,0.7,0.9,1.3,1.3,2.1c1.4,2.9,2.5,5.9,5.2,8c0.1,0.1,0.2,0.3,0.3,0.4c1.1,1.4,2.2,2.9,3.3,4.3c0.7,0.8,1.6,1.4,2.1,2.3
		c0.9,1.9,1.6,3.9,2.4,5.9c0.1,0.2,0,0.5-0.2,0.7c-0.4,0.4-1,0.7-1.4,1.1c-1,0.9-2,1.9-3.1,2.8c-1.8,1.6-3.7,3.1-5.3,4.9
		c-1,1.1-2.3,2.2-3.6,3c-3.1,1.8-6.3,3.4-9.4,5c-2.9,1.6-5.9,3.1-8.8,4.7c-2.9,1.5-5.5,3.3-8.6,4.4c-1.6,0.6-3.1,1.4-4.6,2.2
		c-3.3,1.9-6.5,4-10,5.6c-0.1,0.8-0.2,1.5-0.3,2.3c1.5-0.7,3-1.2,4.5-1.8C4.9,162,5.2,161.9,5.6,161.7z M119.2,69.7
		c0.1-1.2,0.4-2.4,0.6-3.6s1.2-1.6,2.2-1.9c0.2-0.1,0.6,0.1,0.7,0.3c0.3,0.7,0.9,1.4,0.9,2.1c0,2.3-0.3,4.5-0.4,6.8
		c-0.1,2.6-1.7,4.7-2.2,7.1c-0.1,0.3-0.1,0.6-0.2,0.9c-0.1,0-0.1,0-0.2,0c-0.2-0.5-0.6-1-0.3-1.6c0-1.6-1-3-1.1-4.6
		C119,73.4,119.1,71.5,119.2,69.7z M117.7,79.9c0-0.6,0.2-1.2,0.5-1.8c0.2,0.9,0.3,1.8,0.5,2.6c0.3,0.8,0.6,1.7,0.9,2.5
		c0,0.1,0,0.1,0,0.1c1.7,1.1,0.6,2.7,0.6,4c0,0.9-0.3,1.9-0.5,2.8c-0.5,1.8-0.5,1.8-2.1,2.3c0-3.1,0-6.3,0.1-9.6
		C117.7,81.8,117.6,80.9,117.7,79.9z M105.4,131.7c-0.1,1.9-0.4,3.7-0.6,5.5c0,0.5,0.1,1,0.1,1.5c0,2.6,0.1,5.1,0.1,7.7
		c0,0.8,0,1.7-0.1,2.5c-0.3,2.9-0.6,5.9-1,8.8c-0.3,1.8-0.7,3.6-1.3,5.3c-0.5,1.7-1.5,3.2-3.1,4.3c-3,2.1-6.2,3.7-9.7,4.5
		c-3.4,0.8-7,0.8-10.5,0.5c-1.7-0.1-3.4-0.4-5-0.8c-2.5-0.6-4.3-2.1-5.9-4.1c-1.7-2.2-2.8-4.7-3.9-7.3c-1.4-3.3-2.6-6.6-3.1-10.1
		c-0.4-2.8-0.7-5.7-1.1-8.5c-0.5-3.7-0.8-7.5-1.8-11.1c-0.5-2.1-0.9-4.1-1.4-6.1c1,1,2,2.2,3.2,3.1c2,1.5,4.2,2.7,6.2,4.2
		c2.4,1.9,5.1,3.5,8,4.2c2.6,0.6,5.4,0.8,8.1,0.6c4.1-0.3,7.8-2.1,11.4-4.2c2.1-1.2,4.2-2.4,6.1-3.8c1.9-1.4,3.5-3,5.3-4.6
		c0,0.1,0.1,0.2,0.1,0.3C105.4,126.7,105.5,129.2,105.4,131.7z M53.8,117.7c-0.8-1.1-1.3-2.4-1.9-3.6c-0.8-1.7-1.5-3.4-2.2-5.2
		c-1.1-2.8-2.5-5.4-2.6-8.5c0-0.9-0.2-1.8-0.5-2.6c-0.6-2.1-0.7-4.3-0.6-6.5c0-1.8,0.2-3.7,0.3-5.5c0-0.1,0.1-0.2,0.1-0.3
		c1.3-3.5,1.6-7.3,2.7-10.9c0.5-1.6,1.4-3.1,2.3-4.6c1.7-2.9,3.5-5.7,5.3-8.5c1.8-2.8,4.3-5,6.8-7.2c2.5-2.2,5.3-4.1,8.1-5.9
		c0.3-0.2,0.6-0.3,0.9-0.5l0.1,0.1c-0.7,1.1-1.4,2.1-2.1,3.4c-0.5,0.7-0.9,1.5-1.4,2.2c-0.5,0.6-1.1,1.1-1.6,1.6
		c-2.2,2.2-4.5,4.2-6.6,6.4c-2.5,2.6-4.9,5.4-7.2,8.2c-0.9,1.1-1.5,2.6-2.2,3.9c0.1,0,0.1,0.1,0.2,0.1l4.8-4.8
		c0.4-0.5,0.9-0.8,1.6-0.8c1.2-0.1,2.4-0.4,3.6-0.6c2.3-0.4,4.6-0.8,6.9-0.3c2.1,0.5,3.9,1.5,5.3,3.2c0.3,0.4,0.7,0.8,1.2,0.4
		s0.5-0.9,0.1-1.4c-2.2-2.9-5-4.6-8.7-4.6h-6.1c0,0,0-0.1,0.1-0.2c1.4-1.4,2.7-2.9,4-4.3c0.6-0.6,1.2-1.1,1.8-1.7
		c1.8-1.7,3.5-3.5,5.3-5.2c1.1-1.1,2.4-2,3.6-3c1.9-1.6,3.6-3.2,5.5-4.6c1.8-1.4,3.7-2.5,5.6-3.7c0.5-0.3,1.1-0.3,1.6-0.4
		c0.5-0.1,1,0.7,0.8,1.2c-1.1,2.8-1.4,5.9-3.5,8.3c-1.1,1.3-1.9,2.9-2.8,4.4c-0.8,1.3-1.6,2.3-2.8,3.1c-0.7,0.5-1,1.1-0.8,2
		c1.6-0.1,2.6-1.2,3.5-2.1c2.4-2.3,4.7-4.8,7-7.3c2.2-2.4,4.2-5,6.4-7.4c1.4-1.4,2.9-2.7,4.3-4c1.2-1,2.3-2.1,3.4-3.2
		c0.4-0.3,0.7-0.8,0.9-1.2c0.6-1,0.8-1.1,1.9-0.7c1.8,0.6,2.9,2.1,4,3.5c1.7,2.2,2.2,4.7,3.1,7.2c1.9,5.2,2.4,10.6,2.3,16.1
		c0,3.6,0.2,7.3,0.3,10.9c0.1,1.6,0.2,3.3,0.2,4.9c0,3.3-0.1,6.6-0.1,9.9c0,2.5,0,4.9,0.1,7.3c0.1,3-0.6,5.8-1.1,8.7
		c-0.6,3.4-2.2,6.4-3.8,9.4c-0.8,1.6-1.5,3.3-2.5,4.7c-2.2,3.1-4.7,5.9-7.5,8.5c-1.9,1.7-4.2,2.6-6.2,4.1c-2.8,2-5.9,3.3-9.1,4.4
		c-2.2,0.7-4.4,0.8-6.7,0.6c-0.9-0.1-1.7-0.1-2.5-0.2c-2.3-0.3-4.5-1.2-6.5-2.4c-1.7-1.1-3.4-2.4-5.1-3.6c-1.4-1-3-1.7-4.2-2.8
		c-1.4-1.3-2.6-2.9-3.9-4.4C55.9,120.4,54.8,119.1,53.8,117.7z"/>
	<path class="st0" d="M102.3,105.1c-0.2,0.4-0.4,0.9-0.6,1.3c-1.8,2.6-4.3,4.5-6.8,6.5c-2.4,1.9-5.2,3-8.1,3.6
		c-3.2,0.6-6.4,0.7-9.6,0.3c-2.1-0.3-3.9-1.6-5.7-2.8c-2-1.4-3.8-3-5.3-4.9c-0.3-0.4-0.9-0.7-1.3-1c-0.5-0.4-1-0.8-1.5-1.1
		c0-0.1,0.1-0.2,0.1-0.3c0.5,0.1,0.9,0.1,1.3,0.2c1.9,0.6,3.7,0.2,5.6-0.4c2.2-0.8,4.4-1.4,6.6-2.1c1.7-0.5,3.5-0.2,5.2,0.2
		c1,0.2,2.1,0.1,3-0.4c1.4-0.8,2.8-0.6,4.2-0.1c2.4,0.7,4.7,1.6,7.1,2.2c1.9,0.5,3.8,0.1,5.5-0.9C102.2,105,102.2,105,102.3,105.1z
		 M97,109.6c0-0.1-0.1-0.2-0.1-0.3c-0.3,0-0.7,0-1,0.1c-3.7,0.9-7.3,2.1-11.2,2.6c-3.1,0.4-6.1,0.1-9.1-0.6
		c-2.2-0.5-4.4-1.1-6.5-1.7c-0.1,0.1-0.1,0.2-0.2,0.4c1.2,0.9,2.4,1.8,3.6,2.7c0.4,0.3,1,0.5,1.4,0.8c2.2,1.7,4.9,1.6,7.4,1.7
		c1.8,0.1,3.6-0.3,5.4-0.6c1.7-0.3,3.5-0.7,5-1.5C93.7,112.2,95.3,110.8,97,109.6z M96.2,108.4c0-0.1,0-0.3-0.1-0.4
		c-0.8,0.1-1.6,0.2-2.5,0.2c-1.8,0-3.7-0.1-5.5-0.2c-1.7,0-3.4,0-5.2,0c-1.3,0-2.6-0.2-3.9-0.2c-2.1,0-4.1,0.1-6.2,0.2
		c-1,0.1-2,0.3-2.9,0.5c0,0.1,0,0.2,0,0.3c2.1,0.5,4.3,1,6.4,1.6s4.3,0.8,6.5,0.7c1.1-0.1,2.2-0.2,3.3-0.4c1.9-0.3,3.7-0.7,5.6-1.2
		C93.2,109.2,94.7,108.7,96.2,108.4z M96.5,107c-0.3-0.2-0.5-0.3-0.7-0.4c-2.2-0.7-4.4-1.4-6.6-2c-1.3-0.4-2.7-0.4-3.9,0.3
		c-1.1,0.6-2.3,0.9-3.6,0.5c-0.7-0.2-1.5-0.6-2.2-0.6c-1.8-0.2-3.4,0.6-5.1,1c-1.3,0.3-2.5,0.9-3.8,1.3c0,0.1,0,0.2,0.1,0.3
		C79.1,106.3,87.7,107,96.5,107z"/>
	<path class="st0" d="M66.1,79.3c-1.9-0.1-3.9-0.2-5.8-0.5c-1.1-0.2-2.1-0.8-3.1-1.2c-0.8-0.3-1.5-0.7-2.3-1
		c-0.3-0.1-0.6-0.3-0.9-0.5c-0.4-0.3-0.5-0.8,0-1.1c2.2-1.3,4.4-2.7,6.7-3.7c3.8-1.5,7.3-0.6,10.5,1.8c0.9,0.7,1.7,1.4,2.6,2.1
		c0.3,0.3,0.5,0.7,0.6,1.1c0.2,0.5,0,0.9-0.6,1c-0.3,0.1-0.6,0.1-0.8,0.2C71,78.9,68.6,79.4,66.1,79.3z M60.9,72.9
		c-2,0.5-3.1,2.1-4.7,2.8c1.4,0.7,2.8,1.4,4.2,1.9c0.2,0.1,0.5,0,1-0.1C59.9,76.1,60.6,74.6,60.9,72.9z M68.3,73.5
		c0.5,1.6,1,3-0.3,4.4c1.7,0,3.1-0.6,4.5-1.4C71.4,75.1,70.2,73.8,68.3,73.5z M65.4,73.6c-0.1-0.1-0.4-0.5-0.7-0.5
		c-0.6-0.1-1,0.4-1,1c0,0.3,0.5,0.8,0.7,0.8C65,74.9,65.4,74.5,65.4,73.6z"/>
	<path class="st0" d="M101.1,78c-1.8-0.2-3.5-0.5-5.1-0.6c-1.8-0.1-3.6-0.1-5.4-0.2c-0.8,0-1.1-0.4-0.7-1.1c0.8-1.4,1.6-2.9,2.9-4
		c1.2-1.1,2.7-1.6,4.1-2.1c1.3-0.4,2.6-0.4,3.9-0.6c2.2-0.3,4.2,0.7,6.2,1.4c0.7,0.3,1.4,0.6,2.1,0.8c0.7,0.2,1,0.9,0.4,1.3
		c-2,1.5-3.7,3.6-6.1,4.5C102.7,77.8,101.8,77.8,101.1,78z M96.5,76.1c-1-1.6-1-1.7-0.7-4.5c-2,0.9-3.5,2.4-4.7,4.5
		C93,76.1,94.7,76.1,96.5,76.1z M103.7,71.1c0.3,1.9,0.5,3.5-0.3,5.1c1.7-0.7,2.8-2,4.3-3.3C106.3,72.4,105.1,71.8,103.7,71.1z
		 M101,72.8c-0.6-0.4-0.9-0.8-1.2-0.8c-0.4,0.1-0.6,0.5-1,0.8c0.3,0.3,0.6,0.8,0.9,0.8C100.1,73.7,100.4,73.2,101,72.8z"/>
	<path class="st0" d="M112.3,63.8c0,0.8-0.6,1.3-1.1,0.9c-2-1.5-4.1-1.2-6.3-0.9c-4.5,0.6-8.7,2.2-12.8,4c-1.3,0.6-2.3,1.6-3.5,2.4
		c-0.2,0.2-0.5,0.4-0.7,0.4c-0.3,0-0.8-0.2-0.9-0.4c-0.1-0.3,0-0.8,0.2-1c2.4-2.2,5.3-3.8,8.4-4.7c2.3-0.7,4.6-1.5,6.9-2
		c2-0.5,4-1.1,6-0.6c1.1,0.3,2.2,0.9,3.3,1.4C112.2,63.3,112.3,63.6,112.3,63.8z"/>
	<path class="st0" d="M93.6,94.1c0.2,2.3-1.2,4.1-3.1,4c-0.2,0-0.4-0.1-0.7-0.1c-0.8-0.2-1.3,0.1-1.9,0.5c-1,0.7-2,1.5-3.2,1.9
		c-1.6,0.6-3.2,0.3-4.6-0.7c-0.8-0.6-1.7-1.1-2.6-1.5c-1.1-0.5-2.2-0.2-3.1,0.5c-0.8,0.6-1.8,0.3-2.2-0.6c-0.5-1.3-0.8-2.7-0.2-4
		c0.1-0.3,0.3-0.6,0.6-0.8c0.2-0.1,0.5,0,0.8,0c-0.1,0.2-0.1,0.5-0.2,0.7c-0.6,0.7-0.7,3.2,0,3.8c0.1,0.1,0.6,0.1,0.8,0
		c1.2-1,2.7-0.9,4.1-0.8c0.4,0,0.8,0.4,1,0.6c2.6,2.8,6,2.3,8.2,0.1c0.9-0.9,1.9-1.2,3.1-0.8c1.2,0.5,1.9-0.7,2.3-2.1
		c0.2-0.9,0-1.8-0.9-2.3c-0.2-0.1-0.2-0.4-0.3-0.7c0.3,0,0.6-0.2,0.8-0.1C93.2,92.3,93.7,93.1,93.6,94.1z"/>
</g>
</svg>
