<?xml version="1.0" encoding="utf-8"?>
<!-- Generator: Adobe Illustrator 19.2.1, SVG Export Plug-In . SVG Version: 6.00 Build 0)  -->
<svg version="1.1" id="Layer_1" xmlns="http://www.w3.org/2000/svg" xmlns:xlink="http://www.w3.org/1999/xlink" x="0px" y="0px"
	 viewBox="0 0 164.2 176.2" style="enable-background:new 0 0 164.2 176.2;" xml:space="preserve">
<style type="text/css">
	.st0{fill:#2196F3;}
</style>
<g id="pharm-lindsey">
	<path class="st0" d="M39,150.2c0.5,0.4,1.5,0.6,1.7,1.1c0.2,0.5-0.3,1.3-0.5,2c-1.1,4.2-2.2,8.4-3.3,12.6c-0.7,2.6-1.3,5.3-1.9,7.9
		c-0.1,0.5-0.1,1.2,0.2,1.4c0.3,0.2,1,0.2,1.4,0c2.5-1.1,5-2.3,7.5-3.5c0.7-0.3,1.4-0.6,2.2-0.9c-0.1,0.3-0.1,0.4-0.1,0.5
		c-0.8,1.6-1.7,3.2-2.5,4.8h2.5c0.4-0.9,0.9-1.8,1.3-2.7c1.1-2.2,2.7-3.9,4.9-4.9c1.5-0.7,3.1-1.3,4.7-1.9c1.4,3.2,2.7,6.2,4,9.2
		c0,0.1,0.1,0.2,0.2,0.3h2.1c-0.1-2.7-0.2-5.5-0.2-8.1c0-0.7,0.1-1.4,0.1-2.3c0.8,0.6,1.4,1.1,2.1,1.4c3.6,1.9,6.4,4.7,8.8,7.8
		c0.3,0.4,0.7,0.8,1,1.2h1.9c-0.1-0.2-0.3-0.4-0.4-0.5c-1-1.3-2.1-2.7-3.2-3.9c-2.3-2.5-4.8-4.7-7.8-6.4c-2.6-1.5-2.6-1.6-2.7-4.6
		c-0.1-3.3-0.1-6.5-0.2-9.8c-0.2-5.1-0.3-10.1-0.7-15.1c-0.3-4.2-0.5-8.5-0.5-12.8c0-2.5-0.1-4.9-0.1-7.4c0-0.2,0.1-0.5,0.2-0.9
		c2,2.2,3.9,4.3,6.1,6.1c0.8,0.8,1.8,1.6,2.8,2.3c1.6,1.2,3.1,2.4,4.8,3.5c1.6,1.1,3.4,1.6,5.3,1.8c0.6,0.1,1.3,0.2,2,0.2
		c4.5,0.2,8.5-1.5,12-4.2c2.5-2,5.2-3.8,7.7-5.9c1.2-1,2-2.5,2.9-3.7c0.2-0.4,0.5-0.7,0.8-1.1c0.1,0.1,0.1,0.1,0.2,0.1v3.7
		c0,0.5,0.1,1.1,0.1,1.6c-0.1,1.8-0.2,3.6-0.4,5.4c-0.2,2.1-0.4,4.2-0.6,6.3c-0.3,3.5-0.5,7-0.7,10.5c-0.1,1.5-0.1,3.1-0.2,4.6
		c-0.2,3-0.5,5.9-0.7,8.8c-0.2,2.5-0.2,5-0.2,7.5c0,0.8-0.3,1.3-0.8,1.7c-3.2,2.5-6.5,5-9.7,7.5c-1.9,1.5-3.6,3-5.2,4.7h2.5
		c0.8-0.8,1.6-1.5,2.5-2.2c3.6-3,7.3-5.8,11-8.6c0.1-0.1,0.4-0.3,0.5-0.2c1,0.4,1.9,0.8,2.9,1.2c-0.3,0.7-0.5,1.2-0.7,1.7
		c-0.8,1.6-1.8,3.1-2.3,4.8c-0.4,1.1-0.7,2.2-1,3.3h1.6c0.6-2.1,1.2-4,2.3-5.8c0.7-1.1,1.1-2.2,1.7-3.4c1.8,0.5,3.7,0.9,5.6,1.6
		c3.4,1.2,6.8,2.4,10.1,3.8c2,0.8,3.9,1.9,5.8,2.9c0.5,0.2,1,0.6,1.4,0.2c0.3-0.3,0.3-0.8,0.3-1.3c0-0.2-0.2-0.4-0.3-0.6
		c-0.2-0.7-0.4-1.5-0.6-2.2c0.1,0,0.2-0.1,0.3-0.1c1.5,1.4,2.9,2.7,4.3,4.1c-0.3,0.3-0.5,0.6-0.8,0.8h2.4c0,0,0,0,0,0
		c0.3-0.8,0.3-1.3-0.3-1.8c-1.1-1-2.3-2.1-3.4-3.2c-1.2-1.3-2.4-2.6-3.5-3.9c-0.8-0.9-0.7-2.2,0.2-3c0.6-0.5,1.3-1,2-1.4
		c1.6-1,3.2-1.9,4.8-2.8c1.1-0.6,1.3-1.1,0.7-2.2c-1.1-2.1-2.2-4.3-3.2-6.4c-1.5-3.1-3-6.3-4.5-9.5c-0.4-1-0.9-2-1.4-3
		c0.4,0,0.6,0,0.8,0.1c2,1.1,4,2.2,5.9,3.4c2.5,1.6,5.1,3,7.9,4c2.7,1,5.4,2,8,3.2c3.6,1.7,7.1,3.6,10.7,5.4
		c0.7,0.3,1.4,0.7,2.1,1.1c0-0.5,0-1.1,0-1.6c-0.9-0.4-1.9-0.9-2.8-1.3c-3.3-1.6-6.4-3.4-9.7-4.9c-2.9-1.4-5.9-2.3-8.8-3.5
		c-1.6-0.7-3.1-1.5-4.6-2.2c-0.5-0.2-0.8-0.6-0.7-1.2c0.5-3.1,0.9-6.3,1.4-9.4c0.4-2.7,0.7-5.3,1.2-7.9c0.6-3.2,1.1-6.4,1-9.7
		c0-0.7,0.1-1.4,0.1-2.1c0.2-4.5,0.6-9,0.7-13.5c0-6-0.1-12-0.2-18c-0.1-1.8-0.3-3.7-0.6-5.5c-0.5-2.9-1.3-5.8-1.8-8.7
		c-0.5-3-0.7-6.1-1.5-9.1c-1.1-3.8-1.8-7.7-3-11.5c-0.7-2.1-1.9-3.9-2.8-5.9c-0.7-1.7-1.7-3.3-2.1-5c-0.7-3-2.3-5.5-3.6-8.2
		c-0.8-1.5-2.1-2.8-3.2-4.2c-1.3-1.6-2.7-3.1-4-4.7c-2.2-2.7-4.2-5.4-6.5-7.9c-2-2.2-4.5-3.6-7.3-4.8c-3.3-1.4-6.6-2.7-10-3.8
		c-3-1-6-1.6-9.2-1.5c-2.2,0-4.4-0.1-6.6,0c-2.4,0.2-4.7,0.6-7.1,0.9c-0.1,0-0.2,0.1-0.3,0.1c-2.5,1.1-5.2,2.2-7.7,3.5
		c-2.8,1.4-5.6,2.8-8.3,4.5c-1.5,1-2.7,2.4-4.1,3.6c-3.5,3.1-6.5,6.6-8.5,10.9c-1,2.2-2.3,4.3-3.3,6.5c-1.7,3.5-3.4,7.2-5,10.8
		c-0.6,1.4-1.3,2.8-1.7,4.3c-1,3.4-1.8,6.9-2.8,10.4c-0.8,2.8-1.5,5.6-1.7,8.5c-0.1,2.4-0.2,4.7-0.3,7.1c-0.1,1.7-0.2,3.5-0.2,5.2
		c-0.1,2.8-0.1,5.5,0,8.3c0,1.4,0.4,2.7,0.5,4c0.2,4.2,0.3,8.3,0.4,12.5c0,0.5,0.1,1,0.1,1.5c0.2,2.5,0.4,5.1,0.6,7.6
		c0.1,2.6,0.2,5.2,0.3,7.8c0.1,5.3-0.3,10.5-1.9,15.6c-0.9,2.5-1.7,5.1-2.6,7.7c-0.6,1.7-1.7,3.2-3.6,3.8c-0.6,0.2-1.1,0.6-1.7,0.9
		c-1.5,0.8-3,1.6-4.6,2.3c-1.9,0.8-3.8,1.5-5.7,2.2c-0.7,0.3-1.3,0.6-2,0.7c-2.9,0.5-5.7,1.3-8.3,2.7c0,0.6,0,1.3-0.1,1.9
		c1.3-0.8,2.7-1.5,4.2-2c1.6-0.5,3.3-0.7,4.9-1.3c3.2-1.1,6.4-2.4,9.6-3.7c1.5-0.6,2.9-1.5,4.3-2.2c2.4-1.2,4.9-2.4,7.3-3.6
		c0.8-0.4,1.6-0.8,2.2-1.1c1.2,1.9,2.1,3.7,3.4,5.4C36.7,148.4,37.9,149.3,39,150.2z M129.8,172.9c-5-2.3-10-4.4-15.2-5.9
		c-1.4-0.4-2.8-0.7-4.2-1.2c-1.6-0.6-3.1-1.3-4.6-2c-0.2-0.1-0.3-0.5-0.3-0.8c0.1-3.2,0.1-6.3,0.3-9.5c0.2-3.9,0.5-7.9,0.7-11.8
		c0.2-3.4,0.5-6.9,0.7-10.3c0.2-3,0.5-5.9,0.7-8.9c0-0.3,0.1-0.6,0.2-1c0.6,0.4,1.1,0.6,1.5,1c2.5,2.3,4.8,4.8,7.4,7
		c2.5,2.1,3.6,4.8,4.4,7.9c1,4,2.1,8,3.1,12.1c0.8,3.1,1.2,6.2,1.9,9.3c0.4,1.8,0.9,3.6,1.4,5.4c0.4,1.5,0.6,2.9,1.1,4.3
		C129.4,169.9,129.9,171.3,129.8,172.9z M127.9,140.8c0.6,2,1.9,3.9,2.9,5.9c0.7,1.5,1.4,3.1,2.1,4.6c1.2,2.5,2.4,4.9,3.6,7.5
		c-2.4,1.4-4.8,2.9-7.4,4.5c-1-4.6-1.8-9.2-2.9-13.8c-1.1-4.6-2.3-9.1-3.4-13.7C124.8,137.2,127.1,138.1,127.9,140.8z M50.9,51.7
		c1.1-2.3,2-4.8,3-7.2c0.9-2,2.3-3.6,3.9-5.1c-1.8-4.4-3.1-8.9-4.1-13.5c-0.4-1.9-0.1-4.1-0.1-6.1c0-0.4,0.5-0.9,0.8-1.2
		c0.1-0.2,0.5-0.1,0.8,0c0.1,0,0.2,0.4,0.2,0.6c-0.6,2.6-0.4,5.1,0.2,7.7c0.5,2.4,1,4.8,1.6,7.1c0.5,2,1.7,3.8,3.2,5.3
		c1.4,1.5,2.9,2.9,4.4,4.3c0.6,0.5,1.4,0.8,2.1,1.1c4,1.5,8,3,12.1,4.3c2.7,0.8,5.5,1.5,8.2,2.2c0.3,0.1,0.6,0.1,0.9,0.1
		c2.5-0.1,5,0.3,7.5,0.8c2.9,0.6,5.8,1.2,8.8,1.5c2.8,0.3,5.5,1.5,7.8,3.5c1,0.9,2.2,1.8,2.9,2.9c1.3,1.9,2.2,4.1,2.7,6.5
		c-8,1.4-16,0.9-24,1.5c1.3-1.1,2.6-2,4.3-2.4c1.8-0.5,3.6-1.4,5.4-1.9c1.6-0.5,3.3-0.7,5-1c0.5-0.1,1.2,0,1.1-0.7
		c-0.1-0.8-0.7-0.8-1.3-0.7c-1.9,0.3-3.8,0.6-5.6,1.1c-2.4,0.7-4.7,1.6-7.1,2.4c-1.6,0.5-3.1,1.3-4.2,2.7c-0.8,1.1-2.1,1.2-3.3,1.4
		c-1.6,0.3-3.2,0.5-4.7,0.5c-1.4-0.1-2.8-0.5-4.2-0.8c-0.4-0.1-0.9-0.2-1.3-0.3c-1.5-0.3-2.4-1.4-3.4-2.4c-2.1-2-4.4-3.3-7.3-3.6
		c-1.3-0.1-2.7-0.4-4-0.5c-0.7,0-1.4,0-2.1,0.1c-0.3,0-0.7,0.3-0.7,0.5s0.3,0.6,0.5,0.7c0.5,0.2,1,0.4,1.5,0.4
		c3.5-0.2,6.7,0.7,9.5,2.8c0.5,0.4,1.1,0.7,1.6,1.2h-1.1c-4-0.6-8.1-0.2-12.1-0.2H51c-1.2,0-1.4-0.3-1.5-1.5c-0.2-1.6-0.4-3.3-0.4-5
		C49,57.6,49.4,54.6,50.9,51.7z M105.5,69.7c2,0.7,3.8,1.7,5.2,3.3c-6,4.7-10,5.5-17,1.8c1-1,1.9-2,3.1-3.3
		c-0.1,3.1,1.9,4.1,4.2,4.5c2,0.4,3.7-0.4,4.7-2.2C106.5,72.5,106.4,71.1,105.5,69.7z M92.8,74.4c-0.5,0.5-0.3,0.9,0.2,1.1
		c3,1.3,5.9,2.8,9.3,2.5c2.4-0.2,4.6-1.2,6.6-2.5c1-0.6,2-1.3,3-1.9c0.6-0.4,0.5-0.8,0.1-1.1c-1-0.8-2-1.7-3-2.5
		c-0.3-0.3-0.6-0.5-0.9-0.8c3-0.7,6-0.5,9-0.9c0.4,3.8,0.7,7.6-0.4,11.3c-0.5,1.6-1.8,2.5-3.4,2.8c-2.3,0.4-4.5,0.5-6.8,0.5
		C102,82.8,97.5,83,93,83c-0.8,0-1.5,0-1.8-1.1c-0.6-1.7-1.5-3.2-1.9-4.9c-0.4-1.6-0.4-3.3-0.5-5c0-0.8,1.1-1.9,2-2
		c1.8-0.2,3.5-0.3,5.2-0.5c0.5-0.1,1.1-0.1,1.7-0.2C95.9,71.1,94.3,72.8,92.8,74.4z M61.8,74c0.7,0.7,1.4,1.4,2.4,1.5
		c2.1,0.3,4.5-1.2,4.6-4.8c0.9,0.7,1.7,1.2,2.4,1.7c0.7,0.6,0.6,1.2-0.2,1.6c-2.2,1.1-4.4,2.4-7,2.3c-1.3-0.1-2.4-0.4-3.3-1.3
		c-1.1-1-2.3-2-3.6-3.1c1.3-0.7,2.6-1.5,4.2-2.4C60.9,71.3,60.7,72.7,61.8,74z M57.5,70.5c-0.5,0.4-1.1,0.6-1.6,1
		c-0.3,0.2-0.4,0.6-0.4,0.9c0,0.1,0.4,0.3,0.6,0.4c1.2,0.8,2.4,1.4,3.4,2.4c1.3,1.4,2.8,2.1,4.7,2.1c3.2,0.1,5.8-1.5,8.4-3
		c0.6-0.4,0.6-1,0.2-1.5c-0.9-1.3-2.2-2.2-3.6-2.9c-0.6-0.3-1.1-0.5-1.6-0.8c0.1-0.1,0.1-0.2,0.1-0.3c1.1,0,2.2,0.1,3.3,0.2
		c1.7,0.2,3.4,0.4,5.1,0.7c0.7,0.2,1.5,0.5,2.1,1c1.3,0.9,1.6,2.3,1.2,3.8c-0.5,1.8-1,3.5-1.6,5.3c-0.3,0.7-0.7,1.3-1.2,1.9
		c-0.7,0.8-1.5,1.3-2.7,1.3c-3.7,0-7.4,0.1-11.1,0c-3-0.1-6-0.4-9-0.7c-1-0.1-1.6-0.7-2.1-1.5c-0.8-1.2-0.9-2.7-1.2-4.1
		c-0.4-2.1-0.1-4.3-0.1-6.4c0-0.7,0.2-1,0.9-1.1c0.5,0,1-0.2,1.5-0.2c2.2-0.1,4.4-0.5,6.9,0.1C58.8,69.7,58.1,70.1,57.5,70.5z
		 M46.8,70.9c0.6,0.6,1.2,1,1.7,1.1c0.2,0.3,0.4,0.7,0.4,1c0.2,2,0.3,3.9,0.7,5.8c0.3,1.6,1,3.2,2.6,4c0.9,0.4,2,0.6,3.1,0.7
		c3.8,0.3,7.6,0.5,11.4,0.6c2.5,0.1,5.1,0.2,7.6,0.2c2.3,0.1,3.6-1.3,4.4-3.1c0.8-2,1.4-4.1,2.1-6.1c0.6-1.9,2.4-3.3,4.5-2.3
		c1.3,0.6,1.9,1.9,2.3,3.3c0.5,1.9,1,3.8,1.7,5.7c0.6,1.6,1.8,2.5,3.6,2.4c2.5-0.1,5.1,0,7.6,0c2.6,0,5.3,0.2,7.9,0.1
		c2-0.1,4-0.3,5.9-0.8c1.7-0.4,2.9-1.7,3.4-3.4c0.6-1.9,0.9-3.8,1.4-5.7c0.4-1.5,1.1-3,1.8-4.4c0.9,1.5,1.3,3,1,4.6
		c-0.3,1.5-0.9,3-1.3,4.5c-0.4,1.6-0.6,3.2-1,4.7c-0.4,1.8-0.7,3.6-1.3,5.3c-0.4,1.1-1.3,1.8-2.5,2c-0.7,0.1-0.9-0.2-0.7-0.9
		c0.3-1.3,0.6-2.6,0.8-3.9c0-0.2,0.1-0.4,0-0.5l-0.6-0.9c-0.1,0.3-0.3,0.6-0.4,0.9c-0.3,1.5-0.5,3.1-0.8,4.6c-0.3,1.9-0.6,3.9-1,5.9
		c-0.4,1.9-1,3.8-1.6,5.7c-0.9,3-2.4,5.8-4.3,8.3c-0.1,0.3-0.3,0.5-0.5,0.7c-1,1.2-2.1,2.3-2.9,3.6c-1.3,2.2-3.2,3.6-5.2,5
		c-1.8,1.3-3.5,2.8-5.3,4.1c-2.2,1.6-4.6,2.8-7.3,3.3c-2.4,0.5-4.7,0.4-7-0.2c-1.7-0.4-3.1-1.2-4.5-2.4c-1.3-1.2-2.9-2-4.2-3.1
		c-1.5-1.3-2.9-2.7-4.3-4.2c-1.5-1.6-2.9-3.4-4.4-4.9c-1.6-1.5-2.8-3.2-3.9-5.1c-1.5-2.6-2.3-5.5-3.1-8.4c-0.7-2.7-0.8-5.4-1.3-8.1
		c-0.2-0.8-0.2-1.7-0.4-2.5c0-0.3-0.3-0.5-0.5-0.7c-0.2,0.2-0.5,0.5-0.5,0.7c0,1,0.1,2,0.2,3c0,0.2-0.1,0.6-0.2,0.7
		c-0.2,0.1-0.6,0.1-0.8,0c-2-1-2.9-2.6-3-4.9c-0.1-1.9-0.4-3.7-0.7-5.5c-0.4-2.4-0.9-4.8-1.1-7.2C46.2,73.2,46.6,72.1,46.8,70.9z
		 M60,128.1c0.1,2.5,0.4,4.9,0.6,7.4c0.1,1.8,0,3.5,0.1,5.3c0.1,2.8,0.3,5.5,0.4,8.3c0,0.1,0,0.2-0.1,0.6c-1-0.6-2-1.1-2.7-1.9
		c-2.1-2.1-4.2-4.2-6-6.6c-1.1-1.4-1.7-3.2-1.6-5.1c0.1-1.8,0.3-3.5,0.5-5.2c0.2-1.5,0.9-2.7,2.2-3.7c2.1-1.5,4-3.1,6-4.7
		c0.1-0.1,0.3-0.1,0.6-0.3C60,124.2,59.9,126.2,60,128.1z M61.2,152.7c0.2,6.8,0.4,13.5,0.6,20.1c-0.1,0-0.1,0-0.2,0
		c-0.9-2-1.9-4-2.8-6.1c-0.2-0.4-0.1-0.9-0.2-1.3c-0.1-0.6-0.6-0.9-1.2-0.6c-2.3,0.9-4.5,1.8-6.8,2.8c-4.3,1.8-8.5,3.7-12.8,5.6
		c-0.2,0.1-0.4,0.2-0.7,0.3c1.6-7.2,3.1-14.3,5.5-21.2C48.8,154.3,54.9,155.9,61.2,152.7z"/>
	<path class="st0" d="M83.9,114.3c-2-0.3-4-0.6-5.9-1c-2-0.4-3.1-1.9-4.2-3.4c-1-1.3-2-2.7-3-4c-0.5-0.6-1.1-1-1.6-1.5
		c-0.2-0.2-0.3-0.5-0.4-0.7c0.3-0.1,0.6-0.4,0.8-0.4c2.5,0.1,5,0.2,7.4,0.2c0.7,0,1.3,0,2-0.1c0.9-0.1,1.8,0,2.6,0.6
		c1.3,0.8,2.8,0.9,4.1,0.1c1-0.7,2.1-0.8,3.3-0.8c2.4,0,4.9-0.1,7.3-0.2c0.2,0,0.4,0,0.6,0c1.1,0.1,1.5,0.7,0.9,1.6
		c-0.7,1.1-1.6,2.2-2.5,3.2c-1.2,1.4-2.5,2.8-3.9,4c-1.7,1.4-3.7,2.4-6.1,2.2c-0.4,0-0.9,0-1.3,0C83.9,114.1,83.9,114.2,83.9,114.3z
		 M71.4,104.6c1,1.5,2.1,2.7,3.7,3.6c2.7,1.5,5.5,2.3,8.7,2.1c1.9-0.1,3.8,0,5.6-0.9c0.4-0.2,0.9-0.4,1.4-0.5c2.4-0.6,4-2.3,5.6-4
		c0.2-0.2,0.2-0.4,0.4-0.7c-0.6,0.2-1.1,0.5-1.6,0.6c-0.8,0.2-1.6,0.4-2.4,0.6c-3.6,0.7-7.1,1.7-10.8,1.1c-1.7-0.3-3.3-0.5-5-0.9
		C75.1,105.2,73.4,104.3,71.4,104.6z"/>
	<path class="st0" d="M77.5,95.8c1.3-0.2,2.5,0.3,3.5,1.4c1.2,1.2,2.6,1.2,3.9,0.6c1-0.5,2-1.2,3-1.8c0.4-0.3,0.8-0.5,1.2-0.8
		c0.1-0.1,0.3-0.1,0.5-0.2c1.8-0.8,1.9-2,0.6-3.4c-0.2-0.2-0.4-0.8-0.4-0.8c0.4-0.4,0.8-0.1,1,0.3c0.4,0.6,0.9,1.2,1.1,1.9
		c0.3,1.4-0.6,2.2-1.9,2.9c-0.7,0.4-1.4,0.8-2.1,1.3c-1.4,1-2.9,1.7-4.6,1.9c-1.1,0.1-2-0.2-2.6-1c-1.1-1.1-2.4-1.5-3.9-1.4
		c-0.6,0-1.3-0.1-1.8-0.4c-0.9-0.5-1.2-1.8-0.8-3.1c0.1-0.4,0.3-0.8,0.5-1.1c0.2-0.2,0.5-0.3,0.8-0.4c0,0.3,0.1,0.6,0,0.8
		c-0.1,0.6-0.4,1.2-0.5,1.8c-0.1,1,0.4,1.4,1.4,1.4C76.7,95.8,77,95.8,77.5,95.8z"/>
</g>
</svg>
