<?xml version="1.0" encoding="utf-8"?>
<!-- Generator: Adobe Illustrator 19.2.1, SVG Export Plug-In . SVG Version: 6.00 Build 0)  -->
<svg version="1.1" id="Layer_1" xmlns="http://www.w3.org/2000/svg" xmlns:xlink="http://www.w3.org/1999/xlink" x="0px" y="0px"
	 viewBox="0 0 195.7 200" style="enable-background:new 0 0 195.7 200;" xml:space="preserve">
<style type="text/css">
	.st0{fill:#03A9F4;}
</style>
<g id="pharm-melissa">
	<path class="st0" d="M0,180.6c1.9-1.5,3.7-3,5.7-4.3c1.9-1.3,3.9-2.3,5.9-3.4c2.9-1.7,5.9-3.3,8.8-5c0.7-0.4,1.3-0.8,1.9-1.3
		c0.2-0.2,0.3-0.6,0.5-0.9c0.1-0.3,0.2-0.6,0.3-0.8c0.8-1.9,1.7-3.8,2.5-5.8c0.4-1,0.7-2.1,1.1-3.2c0.1-0.2,0.1-0.5,0.1-0.7
		c0-1.7,0-3.4-0.1-5c-0.3-4.3-1.3-8.4-3-12.4c-0.5-1.2-0.7-2.6-1-4c-0.8-3-1.5-6-2.7-8.8c-0.6-1.3-0.8-2.8-1.3-4.1
		c-0.7-1.9-1.6-3.7-2.3-5.5c-0.8-2-1.6-4-2-6.1c-0.5-2.3-1.6-4.3-2.4-6.5c-0.6-1.7-1.2-3.3-1.7-5c-0.7-2.3-1.4-4.6-1.9-6.9
		c-0.3-1.4-0.3-2.8-0.4-4.2c-0.2-1.9-0.3-3.7-0.4-5.6c0-2.3,0.1-4.6,0.1-6.9c0-0.2,0-0.5,0-0.7c0.1-3.6,0.2-7.3,0.3-10.9
		c0-0.8,0.3-1.6,0.4-2.4c0.1-0.5,0.3-1,0.2-1.5c-0.1-1.8,0.6-3.3,1.1-4.9c0.4-1.5,0.7-3.1,1.1-4.7c0.4-1.7,0.6-3.5,1-5.2
		c0.6-2.2,1.2-4.5,1.9-6.7c0.7-2.2,1.6-4.2,2.9-6.1c1.3-1.8,2.7-3.5,4-5.2c0.2-0.2,0.4-0.5,0.5-0.8c1.1-2.3,3-4.1,4.4-6.2
		c1.5-2.2,3.3-4.1,5.2-5.8c1.7-1.5,3.5-2.7,5.3-4.1c2.7-2,5.5-3.7,8.4-5.3c1-0.6,2.2-0.9,3.3-1.4c1.2-0.5,2.4-1,3.7-1.4
		C52.9,0.3,54.7,0,56.7,0c2,0,4,0,6,0c1.6,0.1,3.2,0.1,4.8,0.4c1,0.2,2.1,0.6,2.9,1.3c1.4,1.1,2.6,0.9,4.1,0.4
		c1.1-0.4,2.4-0.6,3.6-0.7c1.6-0.1,3.2-0.2,4.8-0.1c2.4,0.1,4.7,0.3,7,1.2c1.5,0.6,3.1,1.2,4.6,1.8c1.1,0.5,2.2,1.1,3.3,1.6
		c0.9,0.4,1.8,0.7,2.6,1.2c1.1,0.6,2.1,1.4,3.1,2.1c0.5,0.3,1.1,0.5,1.5,0.8c0.9,0.7,1.8,1.4,2.7,2.1c1.2,0.9,2.5,1.6,3.7,2.5
		c0.6,0.4,1.1,1,1.7,1.5c1,0.8,2.1,1.5,3,2.4c1.4,1.3,2.7,2.8,4.1,4.2c0.8,0.8,1.6,1.4,2.4,2.2c0.7,0.7,1.4,1.5,2.2,2.2
		c1,1,2.1,2.1,3.1,3.1c1,1,2,2.1,2.9,3.2c0.6,0.7,1.1,1.5,1.8,2.1c2.2,2.1,3.9,4.6,4.9,7.5c0.6,1.7,1.3,3.5,2,5.2
		c0.3,0.8,0.8,1.6,1.2,2.5c0.8,1.8,1.6,3.6,2.4,5.4c0.2,0.5,0.4,1,0.6,1.4c1.2,2.5,1.9,5.2,2.5,7.9c0.5,2.1,1,4.1,1.5,6.2
		c0.5,2,1.2,4.1,1.7,6.1c0.4,1.7,0.6,3.4,1.2,5c0.7,1.9,1.7,3.7,2.6,5.5c1.4,2.9,2.9,5.7,4.4,8.5c0.5,1,1.3,1.8,1.9,2.7
		c0.8,1.1,1.7,2.1,2.4,3.2c1.4,2,2.6,4.1,4.1,6c0.8,1.1,1.8,1.9,2.8,2.9c0.3,0.3,0.6,0.6,0.9,0.9c1.1,1.1,2.3,2.2,3.4,3.3
		c1.1,1,2.4,2,3.5,3c1.2,1.1,2.4,2.2,3.6,3.2c0.6,0.5,1.3,0.9,2,1.3c0.3,0.2,0.6,0.4,1,0.6c0.2,0.1,0.5,0.3,0.8,0.3
		c3.9-0.1,7.7,0.2,11.5,0.7c0,0.4,0,0.8,0,1.2c-0.2,0-0.4,0-0.7,0c-2.4-0.2-4.8-0.4-7.3-0.6c-2.1-0.2-4.1,0.2-6.2-0.7
		c-1.3-0.6-2.9-0.7-4.3-1.1c-1.8-0.5-3.7-0.3-5.6-0.3c-1.6,0-3.2,0.3-4.8,0.4c-0.8,0-1.6-0.1-2.4-0.1c-4.6,0.1-9.2-0.2-13.8,0.2
		c-1.4,0.1-2.9,0.1-4.4,0.2c-0.4,0-0.8,0.1-1.3,0.2c0.1,0.2,0.2,0.4,0.3,0.5c1.5,1.7,3.1,3.4,4.5,5.1c1.1,1.3,2.2,2.7,3,4.3
		c0.9,1.7,1.3,3.6,2,5.3c0.7,2,1.4,3.9,2.2,5.8c0.8,2,1.2,4.1,1.5,6.2c0.3,2.1,0.5,4.1,0.7,6.2c0.2,2.3,0.3,4.6,0.4,7
		c0.1,4.5,0.2,9,0.3,13.4c0,1.2,0.1,2.4,0,3.6c-0.1,1.6-0.5,3.2-0.6,4.9c-0.2,1.9-0.2,3.8-0.3,5.7c0,0.2,0,0.3-0.1,0.5
		c-0.1,1-0.3,2-0.3,3.1c-0.1,1.4,0,2.9,0,4.3c-0.4,0-0.8,0-1.2,0c0-2.7,0-5.5,0.4-8.2c0.3-1.8,0.2-3.5,0.3-5.3
		c0-0.6,0.1-1.3,0.2-1.9c0.2-1.4,0.5-2.8,0.5-4.2c0-2.6-0.2-5.2-0.2-7.8c-0.1-3.7-0.1-7.5-0.2-11.2c0-1.2-0.2-2.4-0.3-3.5
		c-0.2-1.6-0.3-3.3-0.5-4.9c-0.1-0.8-0.1-1.5-0.3-2.3c-0.4-2.3-1.1-4.5-1.9-6.7c-0.6-1.8-1.3-3.5-2-5.3c-0.8-2.1-1.3-4.4-2.9-6.1
		c-0.8-1-1.6-2-2.4-2.9c-1.1-1.3-2.3-2.7-3.5-3.9c-0.6-0.6-1-1.5-2.1-1.3c-1,0.2-1.9,0.3-2.9,0.6c-1,0.3-1.6,1.6-1.1,2.6
		c0.2,0.4,0.5,0.8,0.7,1.2c1.3,2,2.7,3.9,3.9,6c0.7,1.2,1.3,2.5,1.8,3.9c0.4,1.1,0.4,2.3,0.7,3.4c0.6,2.5,1.3,5.1,1.9,7.6
		c0.5,1.7,1,3.5,1.5,5.2c0.2,0.7,0.4,1.3,0.5,2c0.1,1.7,0.2,3.3,0.2,5c0,4.9,0,9.7-0.1,14.6c0,1-0.2,2.1-0.4,3.1
		c-0.2,1-0.4,2-0.5,3.1c-0.2,2.5-0.3,4.9-0.4,7.4c0,0.6-0.1,1.1-0.2,1.7c-0.7,2.8-1,5.6-1.1,8.4c-0.4,0-0.9,0-1.3,0
		c0.1-1.5,0.3-3,0.4-4.5c0.1-0.5,0.1-1.1,0.2-1.6c0.2-1.1,0.6-2.1,0.7-3.2c0.2-1.9,0.2-3.8,0.3-5.7c0.1-1,0.1-2.1,0.3-3.1
		c0.8-3.4,0.9-6.8,1-10.3c0.1-1.9-0.1-3.7-0.1-5.6c-0.1-2.7-0.1-5.5-0.2-8.2c0-0.7-0.2-1.5-0.4-2.2c-0.4-1.4-0.9-2.7-1.3-4.1
		c-0.5-1.7-0.9-3.4-1.3-5c-0.4-1.5-0.8-3-1.1-4.5c-0.3-1.2-0.3-2.4-0.8-3.5c-0.6-1.5-1.4-2.9-2.2-4.3c-1.1-1.7-2.3-3.4-3.4-5.1
		c-0.1,0-0.2,0-0.3,0.1c-0.1,0.6-0.4,1.2-0.4,1.9c-0.1,1.3-0.5,2.6-0.8,3.9c-0.3,1.3-1.4,2.3-1.1,3.7c0,0,0,0,0,0.1
		c-0.6,1.2-1.1,2.5-1.9,3.7c-1.1,1.8-2.4,3.4-3.2,5.4c-0.7,1.6-1.5,3.1-2.2,4.6c-0.6,1.3-1.3,2.5-1.8,3.8c-0.7,1.7-1.2,3.5-1.9,5.3
		c-0.7,1.9-1.4,3.6-2.7,5.2c-1.1,1.4-2.3,2.6-3.4,4c-0.9,1.1-2,2.1-3.2,2.8c-2.2,1.2-4.3,2.6-6.6,3.6c-2.4,1-4.8,1.9-7.5,1.5
		c-1.7-0.3-3.6-0.2-5.3-0.3c-0.5,0-1.1-0.1-1.6-0.2c-1.5-0.4-2.9-1.3-4.3-2c-2.1-1-3.9-2.4-5.6-4c-0.9-0.8-1.8-1.6-2.9-2.3
		c-3-1.8-6.2-3.5-9.2-5.3c-1.4-0.8-2.7-1.7-4.1-2.5c-1.9-1.1-3.7-2.1-5.6-3.1c-0.3-0.2-0.6-0.3-1-0.5c-0.1,2.3,0.5,4.3,1.1,6.4
		c0.4,1.4,0.9,2.8,1.4,4.1c0.8,2.3,1.5,4.6,2.5,6.8c0.7,1.5,1.7,2.9,2.5,4.4c0.4,0.8,0.8,1.7,1.2,2.5c1.4,2.9,2.9,5.7,4.3,8.6
		c1.2,2.5,2.4,5,4.5,6.9c0.7,0.6,1.3,1.3,2,2c-0.6,0-1.2,0-1.7,0c-0.8-0.8-1.6-1.5-2.3-2.4c-1-1.3-1.9-2.6-2.7-4.1
		c-0.9-1.7-1.6-3.6-2.5-5.3c-1-2-2.1-3.9-3.1-5.8c-0.9-1.6-1.7-3.2-2.6-4.8c-0.6-1.1-1.2-2.1-1.6-3.3c-0.7-1.9-1.3-3.8-1.9-5.7
		c-0.6-1.8-1.2-3.5-1.7-5.3c-0.6-1.9-1.1-3.7-0.7-5.7c0-0.2-0.2-0.5-0.4-0.6c-2.5-1.5-4.1-3.7-5.9-5.8c-0.9-1.1-1.6-2.3-2.4-3.5
		c-0.8,0-1.2,0.5-1.6,1.1c-0.1,0.1-0.1,0.3-0.3,0.4c-1,0.6-1.3,1.5-1.2,2.6c0,0.2,0,0.3,0,0.5c-0.1,2,0,4,0.7,5.9
		c0.7,1.8,1.3,3.7,1.8,5.6c0.6,1.9,1.1,3.8,1.5,5.6c1,4.2,2.2,8.3,3.7,12.3c0.9,2.4,1.8,4.7,3,6.9c0.5,1,0.8,2.2,1.4,3.2
		c1.6,2.8,3.3,5.4,5,8.2c-0.5,0-1.1,0-1.6,0c-0.5-0.8-1-1.7-1.5-2.5c-1.2-1.9-2.4-3.9-3.5-5.9c-0.6-1.2-1-2.5-1.6-3.6
		c-1.1-2.1-1.9-4.3-2.7-6.6c-0.5-1.4-1.1-2.7-1.5-4.2c-1-3.6-1.9-7.3-2.9-10.9c-0.6-2.1-1.2-4.2-2-6.3c-0.7-1.9-1.1-3.9-1.5-5.9
		c-0.1-0.7,0.1-1.4-0.7-1.9c-0.1,0.1-0.3,0.3-0.6,0.5c-2,1.7-4,3.2-6.3,4.5c-1.8,1.1-3.5,2.4-5.3,3.4c-3.2,1.7-6.4,3.5-9.3,5.8
		c-0.4,0.3-0.8,0.5-1.2,0.8c-0.7,0.5-1.4,1.1-2.1,1.6c-2,1.2-4.1,2.3-6.1,3.5c-2.3,1.3-4.5,2.5-6.7,3.9c-2.2,1.4-4.2,2.9-6.3,4.4
		c-0.7,0.5-1.4,1.2-2.1,1.8C0,181.7,0,181.2,0,180.6z M41.4,85.9c0.8-0.3,1.4-0.4,2-0.7c1.7-0.9,3.6-1.3,5.4-1.8
		c3-0.9,6.1-1.2,9.2-1.2c0.2,0,0.4,0,0.5,0c1.9-0.1,3.7-0.3,5.6-0.2c1.5,0,2.9,0.3,4.4,0.5c0.8,0.1,1.4,0.8,1.3,1.5
		c-0.1,0.7-0.9,1.2-1.6,1.1c-2-0.3-3.9-0.6-5.9-0.4c-1.8,0.2-3.6,0.1-5.4,0.2c-1.1,0.1-2.3,0.1-3.4,0.3c-1.5,0.2-2.9,0.8-4.4,1
		c-1.7,0.3-3.3,1-4.9,1.6c-0.4,0.2-0.7,0.6-1.1,0.9c-0.3,0.2-0.6,0.6-1,0.7c-1.6,0.6-2.6,1.7-3.1,3.2c-0.3,1-0.6,2.1-0.8,3.2
		c-0.3,1.7-0.6,3.4-0.9,5.1c-0.2,1-0.3,2.1-0.4,3.1c0,1-0.1,2,0.1,3c0.2,1.1,0.6,2.2,0.9,3.2c0.6,1.8,1.1,3.5,1.7,5.2
		c0.6,1.5,1.4,2.9,2,4.4c0.8,2,1.5,3.9,2.3,5.9c0.3,0.9,0.7,1.8,0.9,2.8c0.5,2.7,1.3,5.2,2.5,7.6c1.1,2.2,2.1,4.4,3.1,6.7
		c0.7,1.4,1.2,2.9,2,4.3c1,1.7,2.2,3.2,3.3,4.8c0.7,0.9,1.5,1.9,2.4,2.6c1.7,1.3,3.4,2.5,5.2,3.6c2.8,1.7,5.6,3.3,8.4,4.9
		c2.4,1.4,4.6,2.9,7,4.2c2.6,1.4,5.1,3,7.2,5.1c0.6,0.6,1.3,1.1,2.1,1.6c0.8,0.5,1.7,0.9,2.5,1.4c2,1.2,4.1,2,6.6,1.9
		c1.2-0.1,2.5,0.1,3.7,0.1c1.2,0,2.5,0.1,3.7-0.1c1.3-0.3,2.6-0.9,3.9-1.5c2.1-1.1,4.2-2.3,6.3-3.5c0.7-0.4,1.3-0.9,1.8-1.4
		c0.7-0.7,1.2-1.5,1.9-2.2c0.8-1,1.7-1.9,2.4-2.9c1.5-1.9,2.1-4.1,2.9-6.3c0.8-2.1,1.4-4.4,2.5-6.4c1-1.9,2-3.9,2.9-5.8
		c0.7-1.4,1.5-2.7,2.3-4.1c1-1.5,1.9-3,2.5-4.7c0.8-2,1.2-4.1,1.7-6.2c0.3-1.4,0.5-2.8,0.6-4.2c0.1-0.7,0-1.5,0.2-2.2
		c0.4-1.6,0.6-3.1,0.5-4.7c-0.1-2.6,0-5.2-0.2-7.7c-0.1-1.6-0.5-3.1-0.8-4.7c-0.1-0.3-0.1-0.6-0.1-0.9c-0.2-1.2-0.3-2.3-0.5-3.5
		c-0.3-1.7-0.7-3.3-1.1-5c-0.3-1.5-0.5-3-0.8-4.5c-0.1-0.4-0.2-0.8-0.3-1.3c-0.1-0.6-0.2-1.3-0.3-1.9c-0.2-1.2-0.3-2.3-0.5-3.5
		c-0.3-1.8-0.6-3.7-1-5.5c-0.3-1.2-0.7-2.3-1.1-3.5c-0.8-2.6-1.6-5.3-2.4-7.9c-0.8-2.5-1.7-5.1-2.5-7.6c-0.6-1.8-0.9-3.7-1.9-5.4
		c-0.5-0.9-0.9-1.7-1.3-2.6c-0.3-0.8-0.8-1.5-1.3-2.2c-0.5-0.6-0.8-1.3-1.2-2c-0.2-0.3-0.2-0.6-0.4-0.8c-0.5-0.8-1.1-1.5-1.7-2.2
		c-1.2-1.7-1.6-3.8-3.2-5.2c-1-0.9-1.9-2-2.9-2.9c-1-0.8-2.1-1.4-3.2-2.1c-1.3-0.8-2.7-1.6-4-2.5c-1.7-1.2-3.3-2.4-5-3.7
		c-0.7-0.6-1.4-1.2-2.1-1.9c-1.3-1.3-2.7-2.5-3.2-4.4c-0.3-0.9-0.7-1.7-1.1-2.5c-0.3-0.7-0.8-1.4-1.1-2.1c-0.7-1.7-1.4-3.3-1.9-5
		c-0.7-2.6-2.4-4.3-4.7-5.4c-2.5-1.2-5.1-2.1-7.6-3c-1.2-0.5-2.3-0.9-2.9-2.2c-0.2-0.6-0.8-0.7-1.4-0.4C73,5,72.7,5.9,73,6.3
		c0.8,0.9,1.4,2.1,2.6,2.5c1,0.4,2,0.7,3.1,1.1c0.5,0.2,1,0.6,1.6,0.6c1,0,1.8,0.6,2.6,1c0.3,0.2,0.7,0.3,1,0.5
		c1.7,0.9,3.2,1.8,3.9,3.8c0.3,0.8,0.6,1.7,0.9,2.5c0.4,1.5,1.4,2.8,1.6,4.3c0.1,0.8,0.4,1.6,0.4,2.4c0,0.7-0.1,1.5-0.4,2.1
		c-0.4,0.9-1.1,1.8-1.6,2.7c-0.8,1.5-1.8,2.8-2.9,4c-1,1.1-2,2.3-3,3.4c-0.9,1.2-1.8,2.4-2.7,3.5C79,42,78,43.1,77.1,44.4
		c-2.1,2.9-4.1,5.9-6.8,8.3c-0.6,0.5-1.1,1.1-1.7,1.6c-1.7,1.7-3.3,3.3-5,5c-0.6,0.7-1.2,1.4-1.8,2.1c-1.1,1.3-2.2,2.5-3.3,3.8
		c-1.2,1.4-2.4,2.8-3.5,4.2c-0.9,1-1.7,2-2.6,3.1c-0.9,1-1.6,2.1-2.6,3.1c-1.3,1.3-2.8,2.6-4.2,3.9c-1.8,1.7-2.8,3.9-4,5.9
		C41.5,85.4,41.5,85.6,41.4,85.9z M40,119.4c-0.1,0-0.2,0-0.2,0.1c-0.2,0-0.4,0.1-0.6,0c-0.4-0.3-0.7,0-0.9,0.3
		c-0.6,0.8-1.2,1.7-1.6,2.6c-0.5,1.3-0.5,2.6,0.6,3.7c0.3,0.3,0.6,0.6,0.9,0.7c1.7,0.6,3.5,0.4,5.5,0.4
		C42.4,124.6,41.2,122,40,119.4z M37.4,127.6c0.4,1.2,0.7,2.3,1.1,3.4c0.2,0.5,0.5,1.1,0.9,1.5c1.8,1.6,3.1,1.6,5.1,0.3
		c0.2-0.1,0.2-0.5,0.2-0.7c-0.2-0.9-0.5-1.8-0.7-2.8c-0.1-0.6-0.6-1-1.3-1C40.9,128.2,39.2,128.3,37.4,127.6z M35.3,123.1
		c0.7-1.8,1.5-3.4,3.1-4.6c-0.5-0.2-0.9-0.4-1.4-0.6c-1.2-0.4-2.9,0-2.6,1.9C34.6,120.9,35,122,35.3,123.1z M38.9,117.7
		c-0.3-0.8-0.5-1.4-0.8-2.1c-0.2-0.6-1.4-1.2-2-1c-0.9,0.3-1.8,1.7-1.7,2.7C35.9,116.4,37.4,116.7,38.9,117.7z"/>
	<path class="st0" d="M95.8,154.6c-1.8,0.1-3.6-0.1-5.3-0.7c-0.8-0.3-1.5-0.7-2.3-1c-1-0.5-1.9-1.1-2.9-1.6c-1.5-0.7-3-1.7-4.3-2.7
		c-1.1-0.8-2.3-1.5-3.3-2.3c-1.2-1-2.4-2-3.5-3.1c-1-0.9-2-1.8-2.9-2.7c-0.2-0.2-0.4-0.5-0.5-0.7c0.3-0.2,0.5-0.5,0.8-0.5
		c0.9-0.2,1.8-0.3,2.6-0.5c1.3-0.4,2.6-0.9,3.9-1.4c2.4-0.8,4.7-1.7,7.1-2.5c1.7-0.6,3.4-1.4,5.2-1.9c1-0.3,2.1-0.2,3.2-0.1
		c0.8,0,1.5,0,2.2-0.4c2.4-1.4,5-2,7.6-3c3.1-1.2,6.2-2.5,9.3-3.5c2.1-0.7,4.3-1,6.4-1.5c0.1,0,0.2,0,0.3,0c0.7-0.4,1.1-0.2,1.4,0.4
		c0.3,0.6,0.1,1.2-0.2,1.6c-0.9,0.9-1.1,2.1-1.4,3.2c-0.5,1.3-0.9,2.7-1.4,4c-0.5,1.6-1.1,3.1-1.6,4.7c-0.8,2.6-1.4,5.2-2.8,7.5
		c-1.1,1.8-2.5,3.3-4.2,4.6c-2.8,2-6,3.1-9.4,3.8c-1.3,0.3-2.5,0.4-3.8,0.6C95.8,154.7,95.8,154.7,95.8,154.6z M114.9,129.4
		c-0.8,0.5-1.6,1-2.4,1.3c-3.6,1.6-7.2,3.1-10.9,4.6c-1.5,0.6-3.1,1.1-4.7,1.5c-2.5,0.6-5.1,1-7.6,1.6c-1.4,0.3-2.7,0.7-4.1,0.9
		c-2.4,0.4-4.8,0.8-7.2,1.2c0.1,0.3,0.3,0.6,0.3,0.9c0.3,1.7,1.5,2.5,3.1,2.9c0.5,0.1,0.9,0.2,1.4,0.4c0.9,0.3,1.7,0.8,2.6,1
		c1.3,0.4,2.6,0.6,3.9,0.9c0.8,0.1,1.6,0.1,2.5,0.2c1.3,0,2.6,0.2,4,0.1c1.8-0.1,3.5-0.6,5.1-1.3c1.6-0.7,3.2-1.4,4.6-2.3
		c1.1-0.6,2.1-1.4,2.9-2.3c1.3-1.3,2.3-2.9,3.6-4.1c1.6-1.5,2.2-3.4,3.1-5.3c0-0.1,0-0.1,0-0.2C115,130.7,114.9,130.1,114.9,129.4z
		 M117,131.4c-0.1,0-0.1,0-0.2-0.1c-0.1,0.1-0.2,0.2-0.2,0.3c-0.6,1-1.1,2-1.7,2.9c-0.5,0.8-1.2,1.6-1.8,2.4c-0.4,0.5-1,1-1.4,1.5
		c-1.4,1.8-2.8,3.6-4.8,4.9c-1.5,0.9-2.9,1.8-4.5,2.5c-2.8,1.3-5.8,2-8.9,1.9c-1.7-0.1-3.5,0-5.2-0.3c-4.2-0.9-8.3-2.3-12.2-4.1
		c0,0-0.1,0-0.1,0.1c0.4,1.1,1.4,1.6,2.3,2.3c1.2,0.9,2.4,1.8,3.7,2.6c1.2,0.8,2.5,1.6,3.8,2.4c0.6,0.4,1.4,0.6,2,1
		c1.7,1.2,3.6,2,5.7,2.1c2,0.1,4.1,0.3,6.1-0.3c2.8-0.8,5.5-1.6,8-3.1c3.6-2.2,5.6-5.4,6.8-9.4c0.5-1.7,1-3.3,1.5-5
		c0.4-1.2,0.8-2.3,1.1-3.5C116.9,132.2,116.9,131.8,117,131.4z M119.9,125c-0.6,0.1-1.2,0.2-1.7,0.3c-1.8,0.5-3.7,0.8-5.5,1.4
		c-3.1,1.1-6.2,2.3-9.2,3.5c-2.5,0.9-5.1,1.6-7.4,2.9c-1.1,0.7-2.4,0.6-3.6,0.5c-1-0.1-1.9,0-2.8,0.4c-1.7,0.6-3.3,1.3-5,1.9
		c-2.2,0.8-4.5,1.6-6.7,2.4c-1.2,0.4-2.4,0.8-3.6,1.2c-0.5,0.1-1,0.2-1.5,0.3c0.1,0.1,0.2,0.1,0.2,0.2c0.1,0,0.2,0.1,0.3,0.1
		c1.1,0.2,2.2,0.1,3.3-0.1c2.4-0.4,4.8-0.7,7.2-1.1c2.1-0.4,4.2-0.9,6.3-1.4c1-0.2,2.1-0.5,3.1-0.7c1.7-0.4,3.4-0.6,5.1-1.1
		c2-0.6,3.9-1.5,5.8-2.2c3.1-1.2,6.2-2.4,9.2-4.1c1.6-0.9,3.2-1.7,4.8-2.6C118.8,126.4,119.4,125.8,119.9,125z"/>
	<path class="st0" d="M71.3,97.6c-0.6-0.4-1.2-0.8-1.8-1.2c-1.9-1.3-4-1.9-6.3-1.6c-2.1,0.3-4.1,1-6,2.1c-0.6,0.3-1.1,0.6-1.7,0.9
		c-1.9,0.9-3.7,1.9-4.9,3.7c-0.1,0.2-0.3,0.3-0.5,0.5c-0.6-0.2-0.8-0.7-0.3-1.1c1.1-1,2.1-2.1,3.3-2.8c2.3-1.3,4.6-2.7,7-3.5
		c3-1,6.2-1.3,9.1,0.8c1.3,0.9,2.6,1.7,3.9,2.6c0.2,0.1,0.3,0.2,0.5,0.4c0.7,0.7,1.4,1.5,2.1,2.2c0.4,0.5,0.4,0.7-0.2,0.9
		c-1.8,0.5-3.7,1-5.5,1.6c-2,0.7-4,1.4-6,2.1c-1.6,0.5-3.3,0.2-4.9,0.2c-2.3-0.1-4.5-0.6-6.8-0.2c-0.4,0.1-0.8,0.2-1.3,0.3
		c-0.2,0-0.4,0-0.7,0c0-0.2,0-0.5,0.2-0.7c0.5-0.6,1.1-1.1,1.7-1.7c1-1,1.9-2,3-2.8c0.7-0.5,1.5-0.9,2.3-1.3
		c1.2-0.6,2.4-1.3,3.6-1.9c0.7-0.3,1.4-0.5,2.1-0.6c1.2-0.1,2.5-0.2,3.8-0.1c0.9,0.1,1.7,0.5,2.5,0.8c0.6,0.2,1.2,0.5,1.8,0.8
		C71.2,97.8,71.3,97.7,71.3,97.6z M65.9,97c1.5,2.3,1.1,4.4-0.2,6.6c0.3-0.1,0.6-0.2,0.8-0.3c1.9-0.8,3.7-1.6,5.8-1.9
		c0.6-0.1,1.3-0.1,1.7-0.9C71.6,98.7,68.9,97.6,65.9,97z M57.6,100c-0.1-0.1-0.1-0.1-0.2-0.2c-0.6,0.3-1.3,0.6-1.9,1
		c-0.6,0.4-1.1,1-1.5,1.5c-0.5,0.5-0.9,1.1-1.4,1.7c2.6,0.1,5,0.7,7.5,0.4c-0.6-0.7-1.3-1.3-1.8-1.9C57.8,101.7,57.4,101,57.6,100z
		 M61.2,99.7c0,0.5,0.3,0.9,0.7,0.9c0.4,0,1.1-0.6,1.1-1c0-0.4-0.5-0.9-1-0.9C61.5,98.7,61.2,99.1,61.2,99.7z"/>
	<path class="st0" d="M101.7,87.9c0.8-1,1.6-2,2.5-3c1.5-1.8,3.6-2.7,5.9-3.1c2.1-0.3,4.4-0.4,6.5,0.1c1.5,0.4,2.9,1.1,4.3,1.7
		c0.3,0.1,0.6,0.3,0.8,0.5c-0.1,0.1-0.1,0.2-0.2,0.3c-0.3,0.1-0.6,0.2-0.9,0.3c-0.5,0.3-1.1,0.6-1.6,0.9c-2.4,1.8-4.9,3.3-7.8,4.3
		c-1.6,0.5-3.3,0.8-5,1.3c-2.1,0.6-4.1,1.4-6.1,2c-0.3,0.1-0.7,0-1,0c0-0.4-0.1-0.8,0.1-1.1c0.9-1.6,1.3-3.3,1.5-5
		c0.1-1,0.6-1.9,1.3-2.6c1.6-1.8,3.4-3.3,5.7-4.1c1.6-0.6,3.2-0.7,4.8-0.8c2,0,3.9-0.2,5.9-0.2c0.9,0,1.8,0.2,2.5,0.8
		c0.2,0.1,0.2,0.4,0.3,0.6c-0.3,0.1-0.6,0.2-0.8,0.1c-0.9-0.5-1.8-0.7-2.8-0.7c-1.1,0-2.3-0.1-3.4,0c-2.1,0.2-4.2,0.4-6.2,0.9
		c-1.2,0.3-2.3,1.1-3.3,1.8c-1.2,0.9-2.4,1.9-3,3.4c-0.2,0.4-0.3,0.9-0.4,1.4C101.6,87.9,101.7,87.9,101.7,87.9z M112.4,82.8
		c0.7,1.2,1.6,2.1,1.3,3.5c-0.1,0.4-0.2,0.8-0.3,1.3c0,0.1,0,0.3,0,0.5c0.2,0,0.3,0,0.5-0.1c1.7-1.1,3.4-2.2,5.1-3.3
		c0.4-0.3,0.5-0.5,0-0.7c-1-0.4-2-0.8-3.1-1c-1-0.2-2-0.2-3.1-0.3C112.7,82.6,112.5,82.7,112.4,82.8z M107.2,90
		c-0.9-1-1.7-1.9-2.6-2.9c-0.4-0.5-0.7-0.5-1,0c-0.9,1.3-1.8,2.6-2.6,4c-0.2,0.3-0.4,0.7-0.6,1.2C102.8,91.4,105.1,90.7,107.2,90z
		 M109.2,84.7c-0.6,0-0.9,0.3-0.9,0.7c0,0.5,0.2,0.8,0.8,0.9c0.5,0,1-0.5,0.9-0.9C109.9,84.9,109.7,84.6,109.2,84.7z"/>
	<path class="st0" d="M120.5,67.7c-0.1,0-0.2,0-0.3,0c-1.4-0.7-2.8-0.3-4.2-0.2c-3.5,0.3-6.5,1.7-9.3,3.7c-2,1.5-3.8,3.3-5.7,4.9
		c-1.2,1-2.3,2-3.5,2.9c-0.5,0.4-1.4,0.2-1.8-0.2c-0.4-0.4-0.5-1.1-0.1-1.7c0.1-0.1,0.2-0.3,0.4-0.4c1.9-0.9,3.2-2.5,4.7-3.9
		c1.2-1.2,2.6-2.2,4-3.3c0.5-0.4,1-0.9,1.6-1.3c1.2-0.7,2.5-1.2,3.8-1.9c1.4-0.7,2.9-1.4,4.4-1.5c1.9-0.2,3.9-0.5,5.8-0.1
		c0.6,0.1,1.2,0.4,1.5,1.1C122.2,66.8,121.5,67.7,120.5,67.7z"/>
	<path class="st0" d="M77.9,121.6c0.3-0.8,0.5-1.6,0.8-2.5c0-0.1,0.2-0.3,0.3-0.4c0.2-0.1,0.4-0.1,0.7-0.2c0,0.2,0.1,0.5,0,0.7
		c-0.8,1.4-1,2.8-0.3,4.3c0.6,1.2,1.5,1.9,2.9,1.9c2-0.1,4,0.1,6,0.8c0.9,0.4,1.8,0.9,2.7,1.4c1,0.6,1.9,1,3.1,1
		c2.2,0,4.2-1.5,4.9-3.5c0.6-1.7,1.9-2.9,3.3-3.9c0.9-0.6,1.8-1.2,2.5-2c1.1-1.2,1.4-2.7,1.2-4.3c0-0.3-0.3-0.5-0.5-0.7
		c-0.4-0.4-0.9-0.8-1.2-1.3c-0.1-0.2-0.2-0.6-0.1-0.8c0.3-0.3,0.5-0.1,0.7,0.2c0.3,0.4,0.7,0.7,1.1,1.1c0.6,0.5,0.9,1.1,1,1.9
		c0.1,2.5-0.9,4.5-3.1,5.9c-1.4,0.9-2.7,1.7-3.6,3.2c-0.2,0.3-0.4,0.5-0.4,0.8c-0.4,1.4-1.3,2.3-2.3,3.3c-0.1,0.1-0.3,0.3-0.5,0.3
		c-2,0.8-4,1.2-6,0c-0.9-0.5-1.8-1.1-2.7-1.5c-1.8-0.7-3.7-1.1-5.6-0.9c-2.7,0.3-4.9-2.4-4.6-4.7C78.1,121.7,78,121.7,77.9,121.6z"
		/>
	<path class="st0" d="M39.7,130c0-0.9,0.5-1.3,1.5-1.3c1.1,0,2.2,1,2.2,1.8c-0.1,1-1.1,1.8-2.2,1.9C40.4,132.5,39.7,131.1,39.7,130z
		"/>
</g>
</svg>
