<?xml version="1.0" encoding="utf-8"?>
<!-- Generator: Adobe Illustrator 19.2.1, SVG Export Plug-In . SVG Version: 6.00 Build 0)  -->
<svg version="1.1" id="Layer_1" xmlns="http://www.w3.org/2000/svg" xmlns:xlink="http://www.w3.org/1999/xlink" x="0px" y="0px"
	 viewBox="0 0 225.6 279.5" style="enable-background:new 0 0 225.6 279.5;" xml:space="preserve">
<style type="text/css">
	.st0{fill:#03A9F4;}
</style>
<g id="pharm-nicole">
	<path class="st0" d="M225.6,239.9c-0.4-0.1-0.8-0.2-1.2-0.3c-5.9-1.3-11.8-2.5-17.6-4c-7.1-1.8-14.1-3.5-21.1-5.7
		c-5.2-1.6-10.3-3.7-15.3-5.8c-1.8-0.8-3.6-2-4.7-3.5c-1.9-2.7-3.3-5.8-4.9-8.6c-0.9-1.5-1.8-3-2.6-4.5c-0.5-0.9-1.1-1.8-1.2-2.8
		c-0.2-2.1-0.1-4.2,0.7-6.2c0.1-0.3,0.3-0.7,0.5-0.9c1.1-0.6,2.2-1.1,3.3-1.6c3.1-1.7,6.3-3.4,9-5.8c4.9-4.3,9.8-8.7,14.6-13.2
		c3.5-3.3,6-7.3,7.9-11.7c0.4-0.9,0.7-1.8,1.3-2.5c3.2-3.7,5.2-8,7.1-12.4c1.5-3.6,2.8-7.2,4-10.9c1-3,2-6,2.8-9
		c0.5-1.8,0.8-3.7,1.1-5.6c0.5-3.3,0.8-6.5,1.4-9.8c0.6-3.1,1.3-6.2,1.1-9.4c-0.2-3.5-0.1-7.1-0.5-10.6c-0.6-5-1.4-9.9-2.3-14.8
		c-0.6-3.4-1.6-6.7-1.9-10.1c-0.5-4.3-1-8.6-2.2-12.7c-0.9-3.4-2.2-6.7-3.6-9.9c-2.1-5.1-5.1-9.6-8.4-13.9c-0.6-0.8-1.2-1.5-1.9-2.1
		c-2.6-2.2-5.1-4.4-7.8-6.6c-4.3-3.4-8.5-6.8-12.9-10c-4.5-3.2-9.6-5.3-14.6-7.7c-4.1-2-8.4-3.6-12.8-4.6c-3.6-0.8-7.2-1.1-10.8-1.6
		c-2.8-0.4-5.6-0.7-8.4-1c-6.5-0.6-12.8,0.7-19,2.4c-3,0.8-5.9,1.7-8.8,2.7c-1.8,0.6-3.4,1.7-5.1,2.5c-3.6,1.7-7,3.7-9.9,6.5
		c-2.1,2-4.1,4.1-6.2,6.2c-2.7,2.7-5,5.6-6,9.4c-0.4,1.5-1.3,2.8-1.9,4.2c-0.7,1.9-1.2,3.8-1.9,5.7c-2.2,6-4.4,12-5.7,18.3
		c-1,4.9-1.9,9.6-1.9,14.6c0,1.6-0.2,3.3-0.2,4.9c-1.2,0.2-2.2,0.3-3.3,0.6c-3.7,0.8-7.3,1.7-10.2,4.2c-1,0.8-1.6,1.9-1.6,3.2
		c0,2.6-0.1,5.1,0,7.7c0.2,2.4,0.8,4.8,3.1,5.9c2.1,1.1,4.4,1.8,6.7,2.6c1.2,0.4,2.5,0.6,3.7,0.8c-0.2,2.3-0.4,4.5-0.6,6.7
		c-0.3,2.4-0.6,4.9-0.8,7.3c-0.2,2.6-0.5,5.3-0.1,7.9c0.6,4,1.6,7.9,2.7,11.8c1.4,5,3.2,9.9,5.4,14.7c1.1,2.4,2,5,2.8,7.6
		c1.4,4.4,2.9,8.8,6,12.4c1.7,2,3.3,4,5.1,5.8c0.6,0.6,0.7,1.1,0.6,1.8c-0.3,2.4-0.6,4.7-1,7.1c-0.1,0.8-0.3,1.6-0.8,2.2
		c-2.5,2.7-5.1,5.4-7.7,8C66,197,65,198.7,63,199c-0.1,0-0.3,0.2-0.4,0.4c-0.4,0.8-1.2,0.9-2,1c-2.8,0.1-5.7,0-8.4,0.6
		c-3.6,0.7-7.2,2-10.7,3c-5.4,1.5-10.8,3.1-16.2,4.3c-5.5,1.2-11.1,1.8-16.6,2.6c-2.7,0.4-5.5,0.5-8.2,0.8c-0.2,0-0.3,0-0.5,0.1
		c0.1,0.6,0.2,1.2,0.3,1.8c0.4-0.1,0.8-0.1,1.2-0.2c1.8-0.2,3.6-0.4,5.3-0.6c4-0.5,8.1-0.8,12-1.4c4.7-0.8,9.3-1.9,13.9-2.9
		c2.3-0.5,4.6-0.8,6.9-1.4c2.1-0.6,4.1-1.7,6.3-2.2c2.8-0.7,5.7-1,8.6-1.4c1.9-0.3,3.9-0.4,5.9-0.6c0,0.5,0,0.8-0.1,1
		c-0.9,2.4-1.9,4.8-2.6,7.3c-2.1,7.8-4.2,15.6-6.1,23.4c-2.3,9.6-4.5,19.3-6.7,29c-0.2,0.9-0.4,1.8-0.6,2.7c-0.3,1.2,0.1,2,1.3,2.5
		c0.1,0,0.2,0.1,0.3,0.2c3.4,1.2,6.8,2.4,10.3,3.5c2.1,0.7,4.3,1.1,6.4,1.7c0.4,0.1,1.1,0.9,1,1.3c-0.2,1.3-0.5,2.6-0.8,3.9h2.4
		c0.2-0.6,0.3-1.1,0.5-1.7c0.2-0.7,0.2-1.4,0.3-2c1.9,0.4,3.9,0.8,5.8,1.1c0.7,0.1,1.5-0.2,2.3-0.1c2.6,0.1,5.2,0.1,7.9,0.7
		c1.9,0.5,3.7,1.2,5.3,2.1h5.8c-0.9-0.7-1.7-1.5-2.6-2.1c-3-2.3-6.5-2.9-10.2-3.1c-1.7-0.1-3.4-0.1-5,0c-4.2,0.4-8-0.9-11.8-2.6
		c-2.5-1.1-5.1-1.9-7.9-2.3c-2.8-0.4-5.4-1.5-8.2-2.3c-0.8-0.2-0.6-0.8-0.5-1.3c0.6-2.5,1.2-5.1,1.8-7.6c2.2-9.4,4.2-18.9,6.6-28.3
		c1.8-7.3,3.9-14.5,6-21.7c0.6-2.2,1.7-4.3,2.9-6.3c0.6-1,1.8-1.6,2.7-2.5c2.1-2,4.1-4.1,6.2-6.2c0.4-0.4,0.8-0.8,1.3-1.2
		c0.1,0,0.2,0.1,0.2,0.1c-0.2,1.3-0.3,2.6-0.6,3.9c-1,4.2-0.5,8.2,0.8,12.2c0.9,2.9,1.4,5.9,2.1,8.8c0.4,1.5,1,2.9,1.4,4.3
		c2.3,7.5,4.6,15,7,22.5c0.9,2.9,2.3,5.7,3.4,8.6c0.1,0.3,0.4,0.7,0.3,1c-0.4,2.3,1.2,3.9,2,5.8c1.1,2.5,2.2,5.1,3.4,7.5
		c1.3,2.6,2.9,5.1,4.3,7.7c0.9,1.7,1.9,3.4,2.8,5.1h2.9c-0.4-0.3-0.7-0.8-0.9-1.2c-0.8-2.9-2.7-5.2-4.3-7.6
		c-1.8-2.7-3.3-5.6-4.4-8.6c-1.6-4.2-3.3-8.4-5-12.5c-0.9-2.2-1.9-4.4-2.6-6.7c-1.3-4.3-2.6-8.7-3.7-13.1
		c-1.6-6.6-3.6-13.1-5.9-19.5c-0.6-1.8-1.3-3.7-1.5-5.6c-0.3-2.2-0.5-4.4-0.2-6.5c0.6-4.6,1.7-9.1,2.4-13.7c0.4-2.1,0.5-4.2,0.8-6.3
		c2.6,0.9,4.9,1.8,7.2,2.3c2.8,0.7,5.7,1.1,8.6,1.5s5.9,0.5,8.8,0.7c1.2,0.1,2.4,0.2,3.6,0.2c5.4,0.2,10.7-0.6,16-1.7
		c4.5-0.9,9.1-1.6,13.6-2.7c5.8-1.3,11.6-3,16.5-6.7c1.4-1.1,2.5-2.7,3.5-4.2c2.7-4.4,5.2-8.8,7.9-13.2c0.9-1.6,2.2-2.9,3.2-4.5
		c1.1-1.8,2.2-3.6,3.2-5.4c0.4-0.8,0.9-0.7,1.5-0.6c1.6,0.3,3.2,0.6,4.9,1c-0.4,0.6-0.8,1.4-1.4,2.1c-4.2,5.8-8.3,11.7-11.7,18
		c-0.9,1.6-1.9,3.1-2.7,4.7c-1.5,2.8-2.5,5.8-2.8,9c-0.3,2.5-0.6,4.9-0.9,7.4c-0.2,2.1-0.5,4.1-0.7,6.2c0,0.1,0,0.3-0.1,0.4
		c-1.7,3.1-2,6.7-2.3,10.1c-0.2,2.4,0.3,4.9,0.4,7.3c0.1,2,0.1,3.9,0,5.9c-0.2,3.7-0.4,7.3,0.4,10.9c0.5,2.1,0.3,4.3,0.3,6.4
		c0,1.5-0.2,3-0.2,4.5c0,0.6,0.1,1.3,0.4,1.8c0.2,0.3,0.9,0.7,1.2,0.6c0.4-0.2,0.9-0.8,0.9-1.2c0.1-1.4,0.1-2.8,0-4.2
		c-0.1-2-0.2-4-0.2-6c0.9,1.6,2.1,3,2.1,5c0,4.5,0,9-0.3,13.4c-0.2,2.4-1,4.8-1.5,7.2c-0.4,1.9-0.7,3.7-1.2,5.6
		c-0.2,0.7-0.8,1.3-1,2c-0.4,2.3-2.5,3.5-3.6,5.4c-1.6,2.7-3.9,4.7-6.4,6.5c-2.7,1.9-5.5,3.8-8.6,5c-0.5,0.2-0.9,0.3-1.4,0.5h19.5
		c0.9-3.5,1.8-6.9,2.6-10.4c0.4-1.6,0.6-3.4,0.8-5c0.4-5.1,1.9-10,2.9-15c0.3-1.4,0.5-2.9,0.5-4.4c0-4,0.3-8-0.3-11.9
		c-0.3-2.5-1.7-4.9-2.9-7.1c-1.4-2.6-2.3-5.1-2.1-8.1c0.2-2.3,0-4.7,0-7.5c0.4,0.7,0.7,1,0.9,1.4c2.2,4.1,4.5,8.2,6.6,12.3
		c0.9,1.8,2,3.5,2.2,5.6c0.1,0.8,0.9,1.5,1.3,2.2c0.8,1.8,1.5,3.6,2.3,5.4c1.4,3,2.4,6.2,4.7,8.8c1.3,1.4,2.2,3.1,3.1,4.8
		c2.2,4.4,4.1,9,6.3,13.4c0.9,1.8,2.1,3.5,3.3,5.2s1.6,3.8-0.1,5.7c-1.3,1.4-2.1,3.2-3.3,4.7h2.4c1.6-2.1,3.2-4.3,4.8-6.4
		c0.6-0.8,0.5-1.5,0.1-2.3c-1-1.7-1.9-3.5-2.8-5.2c-1.8-3.7-3.3-7.5-5.2-11.1c-3.2-6-6.6-11.8-10-17.7c-0.6-1.1-1.5-2.1-1.8-3.2
		c-0.5-2.2-1.4-4.2-2.8-6c-0.3-0.4-0.4-0.9-0.6-1.3c5.9,2.2,11.7,4.4,17.6,6.4c2.9,1,5.9,1.6,8.9,2.4c5.5,1.5,10.9,3.1,16.4,4.5
		c4.3,1.1,8.7,1.8,13,2.6c0.3,0.1,0.7,0.1,1,0.2C225.6,241.6,225.6,240.8,225.6,239.9z M173.2,91.9c2.4,0.5,4.8,1,7,1.9
		c3.1,1.3,6.1,2.6,9.2,3.9c0,0.1-0.1,0.3-0.1,0.4c-1.3,0.1-2.6,0.2-3.8,0.2c-2.8,0-5.7,0.3-8.5,0c-3.1-0.3-6.1-1.3-9.1-1.7
		c-1.7-0.3-3.4-0.1-5.1-0.1c-2,0-4,0.1-6.1,0c-2.3-0.1-4.6-0.2-6.9-0.3c-1.1-0.1-2.2-0.2-3.4-0.3V84.6c4.1,1.1,8.2,2.4,12.4,3.2
		C163.7,88.6,168.3,90.8,173.2,91.9z M61.1,73.7c0.1-0.9,0.4-1,1.2-1.1c6.2-0.9,12.2-0.1,17.7,2.9c1,0.5,2.1,0.4,2.7-0.4
		c0.5-0.6,0.3-2.3-0.5-2.8c-1.2-0.8-2.4-1.5-3.7-2c-4.3-1.7-8.9-1.9-13.5-1.7c-0.3,0-0.6,0.1-0.9,0.2c-0.3,0-0.6,0-1.2,0.1
		c0.6-2.2,1.2-4.2,1.8-6.3c0.9-3.1,1.9-6.1,2.7-9.2c0.7-2.6,2.6-4.2,4.6-5.6c4.3-2.8,8.9-5.1,13.9-6.4c0.6-0.2,1.2-0.6,1.9-0.7
		c1.6-0.4,3.3-0.9,4.9-1c2.8-0.2,5.6-0.1,8.4,0c3.4,0,6.7,0.4,9.9,1.7c3.5,1.5,7.2,2.7,10.7,4.3c2.9,1.4,5.6,3.1,8.4,4.7
		c2.6,1.5,5.3,2.7,7.7,4.5c2.5,1.8,5,3.8,6.7,6.2c3.4,4.6,6.3,9.6,9.4,14.4c1.3,2.1,2.5,4.3,3.7,6.5c0.6,1.2,1.1,2.6,1.8,4.2
		c-2.7-0.7-5-1.2-7.3-1.8c-2.4-0.6-4.7-1.3-7-2.1c-0.6-0.2-1.4-0.4-1.4-1.4c0-0.3-0.4-0.7-0.6-1c-3.9-4.2-8.7-6.7-14.2-7.8
		c-3.2-0.6-6.5-0.9-9.8-1.3c-2.2-0.2-4.4-0.3-6.6-0.2c-1.7,0-3.5,0.2-4.4,2c-0.2,0.4-0.3,0.9-0.6,1.6c2.2-0.2,4-0.5,5.8-0.6
		c2.2-0.1,4.4-0.1,6.6,0c2.5,0.2,5.1,0.5,7.5,0.9c4.8,0.9,9.4,2.2,13.4,5.5c-1.9-0.5-3.7-1-5.4-1.5c-5.5-1.4-11-2.3-16.7-2.3
		c-4.5,0-8.8,0.6-13.1,1.5c-3,0.6-6,1.4-9,2c-0.4,0.1-0.8,0.1-1.2,0c-3.8-0.3-7.6-0.4-11.4-1c-7.9-1.3-15.7-1.8-23.7-1.6
		c-0.1,0-0.2,0-0.3-0.1C60.4,76,61,74.9,61.1,73.7z M141.1,82.5c0.2,0,0.3,0,0.3,0c2.9,1.2,2.9,1.2,2.9,4.3c0.1,3,0.1,5.8,0.1,8.6
		c-1.6,0.5-3,1-4.6,1.5C141.7,92.2,141.4,87.4,141.1,82.5z M125.8,84.4c1.7,0.7,3.1,1.2,4.4,1.8c2,0.9,3.9,1.8,5.9,2.8
		c0.4,0.2,0.6,0.7,1,1.1c-0.4,0.3-0.7,0.7-1.1,0.8c-1.4,0.3-2.8,0.5-4.2,0.6c-2.1,0.2-4.1,0.2-6.2,0.3l-0.2-0.2
		C127.7,89.6,127.4,87.2,125.8,84.4z M134.5,86.2c-3.9-1.6-7.8-3.5-12-4.3c-1.4-0.3-2.7,0-3.9,0.6c-2.2,1.1-4.4,2.3-6.4,3.5
		c-1.2,0.7-2.2,1.7-3.2,2.7c-0.6,0.6-0.4,1.6,0.6,2c1.5,0.5,3,0.9,4.5,1.3c3.7,1.2,7.6,1.6,11.5,1.4c3.4-0.2,6.9-0.6,10.3-1
		c0.7-0.1,1.4-0.5,2.1-0.7c1.1-0.2,1.4,0.2,1.2,1.3c-0.3,1.8-1.3,3.3-2.6,4.5c-0.4,0.4-1.1,0.5-1.6,0.6c-5.3,1.3-10.7,2.3-16.3,1.7
		c-4.2-0.4-8.5-0.8-12.5-2.5c-4.8-2-7.8-5.6-8.6-10.8c-0.2-1-0.4-2-0.4-3.1c0-0.4,0.6-1,1-1.1c3.1-0.9,6.2-1.8,9.3-2.6
		c3.2-0.8,6.5-0.9,9.8-1.1c5-0.3,9.8,0.8,14.6,1.7c2.2,0.4,4.3,1.1,6.2,2.3c0.5,0.3,1,0.9,1.1,1.4c0.1,1.6,0.1,3.2,0.1,4.9
		C137.6,88,136.1,86.9,134.5,86.2z M123,86c-0.2,1.1-0.5,1.5-1.3,1.5c-0.7,0-1.4-0.3-1.3-1c0.1-0.5,0.7-1.1,1.2-1.3
		C122,85.1,122.5,85.7,123,86z M116.6,90.8c-0.1,0.1-0.1,0.2-0.2,0.3c-1.6-0.4-3.3-0.7-4.9-1.2c-0.7-0.2-0.8-0.8-0.1-1.2
		c0.4-0.2,0.8-0.4,1.2-0.6c1.1-0.5,2.2-0.9,3.5-1.5C115.6,88.1,115.4,89.6,116.6,90.8z M61.9,79.6c4.8,0.3,9.6,0.6,14.4,0.9
		c1.6,0.1,3.3,0.2,4.9,0.5c0.8,0.1,1.5,0.7,2.2,1.1c1,0.6,0.9,1.5,0.5,2.4c-0.6,1.2-1.3,2.4-2.1,3.8c-1.9-1.4-3.8-2.9-5.7-4.3
		c-0.1-0.1-0.2-0.3-0.4-0.3c-2.7-0.3-5.3-1.9-8.1-1c-2.2,0.7-4.2,1.9-6.2,2.8c-0.5,0.2-0.9,0.5-1.6,0.9c-0.3-2.2-0.5-4.3-0.8-6.6
		C60.1,79.7,61,79.6,61.9,79.6z M79.7,90.8c-1.7,0.4-3.4,0.6-5.1,1c1.4-2.4,1.6-2,1.7-5.7c1.5,1.1,2.9,2.1,4.1,3.2
		C81.1,89.8,80.7,90.5,79.7,90.8z M73.1,86.8c-0.4,0.3-0.8,0.8-1.3,0.9c-0.6,0.2-1.7-0.8-1.5-1.3c0.2-0.4,0.8-1,1.2-1
		c0.5,0,1,0.5,1.5,0.8C73.1,86.5,73.1,86.6,73.1,86.8z M67.1,84.4v6c-2.2-0.3-3.6-2.1-5.4-3.2v-0.4C63.5,86,65.3,85.2,67.1,84.4z
		 M60.1,87.6c5.7,5.3,12.4,6,19.5,5c-0.4,2.2-3,4.9-5.5,5.4c-2.4,0.6-4.9,0.9-7.3,1.2c-2.2,0.3-4.4,0.5-6.6,0.7h-1.6
		C61.2,96.1,60.1,92,60.1,87.6z M50.5,81.6c2-0.8,4.2-1.3,6.3-1.8c0.5,3.6,0.9,6.8,1.3,10C58,89.9,57.9,90,57.8,90
		c-2.2-1.3-4.3-2.6-6.5-3.9c-0.4-0.2-0.8-0.5-1.2-0.8c-0.4-0.4-1.2-1-1.2-1.2C49.3,83.2,49.7,81.9,50.5,81.6z M44.3,93.5
		c-0.1-2.9-0.1-5.7,0-8.6c0-0.4,0.3-1,0.7-1.3c0.7-0.6,1.6-1.1,2.5-1.7c-1.3,5.7-1.5,11.3,1.4,16.5C46.8,98.4,44.4,96.1,44.3,93.5z
		 M48.7,86.1c1.1,0.8,2,1.5,3,2.1c1.8,1.1,3.6,2.1,5.5,3.1c0.5,0.3,0.8,0.6,0.8,1.3c-0.1,1,0,2,0,3.2h-8.4
		C48.8,92.8,47.9,89.7,48.7,86.1z M51.1,97.2h6.2c-0.3,1-0.6,1.9-0.9,2.9C54.4,99.5,52.5,98.9,51.1,97.2z M171.7,141.3
		c0.1-1.3,0.1-2.3,0.4-3.2c0.6-2.3,1.1-4.6,2-6.8c0.4-1.1,1.3-2,2.2-2.8c0.3-0.3,1.5-0.2,1.9,0.1c1.1,1,2.2,0.9,3.4,0.5
		c0.6-0.2,1.2-0.7,1.9-0.7c0.8,0,1.7,0.1,2.3,0.5c2.4,1.6,4.8,1.5,7-0.3s3.5-4.2,5-6.5c1.7-2.8,3.1-5.7,3.7-8.9
		c0.6-3.1,0.4-6.3-2-8.7c-0.7-0.7-2-1.1-3.1-1.2c-2.8-0.2-5.2,0.7-6.9,3.2c-0.6,0.9-1.6,1.6-2.4,2.5c-0.7,0.7-1.3,1.5-1.9,2.3
		c-0.4,0.6-0.9,1.3-0.1,1.9c0.3,0.2,1-0.2,1.8-0.5c1.1,0.9,2.4,1.9,3.7,3c0.6,0.5,1.1,0.4,1.6,0c0.6-0.6,0.1-0.9-0.4-1.3
		c-1.4-1.1-2.7-2.3-4.4-3.8c0.6-0.4,1.1-0.6,1.4-0.9c0.9-0.8,1.8-1.6,2.5-2.6c1.6-2.2,4.6-2.4,6.4-1.8c1.8,0.6,2.3,2.2,2.5,3.9
		c0.4,4-0.9,7.6-2.7,10.9c-1.4,2.5-3.2,4.7-4.9,7c-0.6,0.7-1.6,1.1-2.5,1.5s-1.8,0.3-2.6-0.5c-1.7-1.6-3.6-1.5-5.6-0.5
		c-0.5,0.2-1.1,0.3-1.6,0.5c-0.1-0.1-0.2-0.2-0.3-0.4c0.3-0.4,0.6-0.8,1-1.2c2-2,3.3-4.3,3.2-7.2c0-1-0.5-2.1-1-3
		c-0.5-1-1.2-1.9-1.9-2.7c-0.3-0.3-1.1-0.6-1.5-0.4c-0.7,0.3-0.2,0.8,0.2,1.3c0.6,0.7,1.1,1.5,1.6,2.2c1.2,1.7,1.5,3.6,0.4,5.5
		c-0.9,1.6-2.1,2.9-3.2,4.4c-0.1,0.1-0.4,0.2-0.6,0.2c-2.3-0.1-3.7,1.4-4.5,3.2c-1.1,2.4-1.7,5.1-2.5,7.6c-0.6,1.9-0.9,3.9-1.5,5.8
		c-0.8,2.5-2.2,4.5-3.9,6.5c-0.9,1.1-1.8,2.2-2.5,3.5c-2.6,5.4-5.9,10.4-9.3,15.3c-1.3,1.9-3.4,2.7-5.3,3.8c-2.3,1.3-4.9,2.1-7.4,3
		c-5.6,1.9-11.4,2-17,3.4c-2.9,0.8-6,1.3-9,1.6c-2.3,0.3-4.7,0.1-7,0.1c-4.8-0.1-9.6-0.1-14.4-1.1c-3-0.7-6.1-1.1-9.1-1.8
		c-1.1-0.2-2-1-3-1.3c-3.8-1.4-5.8-4-8-6.5c-3.7-4.4-5.3-9.7-7-15c-0.6-1.8-1.2-3.6-2.1-5.3c-2.2-4.6-4-9.5-5.4-14.4
		c-1-3.5-1.9-7-2.5-10.6c-0.4-2.3-0.2-4.8-0.1-7.2c0.2-2.9,0.6-5.8,0.9-8.8c0.2-1.7,0.3-3.5,0.5-5.2c0.1-0.7,0.5-1,1.3-1.1
		c5.1-0.7,10.3-0.6,15.3-2.1c1.3-0.4,2.5-1.1,3.7-1.6c-0.5,1.6-1.1,3.2-1.6,4.9c-0.6,2.1-1.4,4.2-1.8,6.4c-0.4,1.9,0.2,3.6,2,4.7
		c2.4,1.5,4.8,3,7,4.7c2,1.4,4.1,1.3,6.2,0.6c0.9-0.3,1.8-0.4,2.6-0.7c0.3-0.1,0.6-0.4,0.9-0.7c-0.3-0.2-0.7-0.5-0.9-0.5
		c-1.3,0.3-2.7,0.6-4,1c-1.4,0.4-2.7,0.2-3.9-0.6c-2-1.4-3.9-2.7-5.8-4.1c-0.2-0.1-0.3-0.2-0.5-0.3c-2.5-1.3-3.1-2.7-2.2-5.4
		c2.1-5.8,3.9-11.6,7.1-16.9c1.1-1.8,2-3.8,2.9-5.8c1.3-3,1.6-2.9,5.3-2.6c1.7,0.2,2.7,1,3,2.9c0.7,4.7,2.9,8.6,6.7,11.6
		c1.1,0.8,2.4,1.4,3.7,1.9c3.9,1.6,8,2.2,12.1,2.4c3.8,0.2,7.7,0.1,11.5-0.2c2.7-0.2,5.4-1.1,8.1-1.7c1.4-0.3,2.8-0.7,4.1-1.2
		c2.6-1,5.2-1.2,7.9-1c3.9,0.3,7.7,0.4,11.6,0.5c1.4,0.1,2,0.6,2.3,1.9c0.7,3.2,1.5,6.3,1.5,9.6c0,0.6,0.4,1.1,0.4,1.7
		c0.2,1.4,0.5,2.9,0.5,4.4c0.1,3.4,0.1,6.9,0,10.3c-0.1,2.3,1.1,4.1,2.3,5.8c0.2,0.3,1.3,0.1,1.9,0c0.1,0,0.3-1.2,0-1.4
		c-1.5-1.4-1.9-3.2-1.9-5.2c0-1.3,0.2-2.3,1.4-2.9c0.5-0.3,0.6-1,1-1.5c0.7-1,1.5-2,2.4-3.2c1.1-0.2,1.3-0.5,1.5-2.1
		c0.2-2.8,0.6-5.5,0.7-8.3c0.1-2-0.2-4-0.3-6c0-0.5-0.1-0.9-0.1-1.5c3.2,0.7,6.2,0.7,9.2,0c0.3-0.1,0.7,0.2,1.1,0.3
		c-0.2,0.3-0.3,0.6-0.6,0.9c-1.2,1.1-2.4,2-3.5,3.1c-0.2,0.2-0.2,1,0,1.3c0.3,0.5,0.9,0.9,1.5,0.3s1.3-1.1,1.8-1.7
		c1.6-1.9,3.9-3,6.1-3.9s4.6-1.7,7-2c2.9-0.3,4.1,0.8,4.9,3.7c0.5,1.9,1.2,3.8,1.7,5.8c0.8,3.5,0.8,7-0.6,10.4
		c-1.8,4.5-4.1,8.7-7.6,12.2c-0.4,0.4-0.8,0.9-1.1,1.4c-2.6,4.2-6,7.4-10.6,9.2c-1.2,0.5-2.5,0.7-3.8,0.7
		C177,141.8,174.4,141.5,171.7,141.3z"/>
	<path class="st0" d="M93.6,148.2c-3.2-0.4-6.5-0.6-9.7-1.2c-1.8-0.3-3.5-1.2-5.2-2c-2.1-1-3.1-2.9-4-4.9c-0.6-1.5-1.2-2.9-2-4.3
		c-0.5-0.9-1.2-1.7-1.7-2.5c-0.2-0.4-0.5-1.1-0.3-1.4c2.7-3.7,6.1-6.3,10.9-6.4c1.4,0,2.8,0.4,4.2,0.9c1.6,0.6,3,0.8,4.6,0.2
		c3.3-1.2,6.8-1.3,10.1-0.3c5.9,1.7,11.8,3.5,17.6,5.5c2.3,0.8,4.4,2,6.5,3.2c1.1,0.6,1,1.3,0,1.8c-4.3,2.2-8.5,4.4-12.8,6.4
		c-2.5,1.1-5.2,1.9-7.9,2.7c-2.5,0.8-5.1,1.4-7.7,2c-0.8,0.2-1.7,0.2-2.6,0.2C93.6,148.1,93.6,148.2,93.6,148.2z M94.1,139.8
		c0,0.1,0,0.2,0,0.2c2.3,0,4.6,0.1,6.8,0c3-0.2,5.9-0.7,8.8-0.9c3.4-0.2,6.6-0.8,9.4-2.6c0.3-0.2,0.7-0.7,0.6-0.9
		c-0.1-0.3-0.5-0.7-0.9-0.8c-2-0.7-4.1-1.4-6.2-1.9c-3.5-0.9-7-1.9-10.7-1.7s-7.3,0.4-11,0.5c-2.3,0.1-4.5,0.1-6.8,0
		c-2.9-0.1-5.4,0.7-7.7,2.5c-1.2,0.9-1.2,1.7,0,2.6c2.5,1.7,5.3,2.8,8.2,3C87.9,140,91,139.8,94.1,139.8z"/>
	<path class="st0" d="M88,115.2c-0.2-0.9,0-1.3,0.8-1.6c2.2-0.8,4.3-0.8,6.4-0.2c2.1,0.6,4.2,1.4,6.4,2c1.8,0.5,3.9,0.4,4.9-1.1
		c1-1.3,1.1-3.4,0.1-5.1c-0.2-0.3-0.1-0.8-0.1-1.2c0.4,0.1,0.9,0.1,1.1,0.3c2.1,2.2,0.8,7.4-2.2,8.3c-1.5,0.4-3,0.4-4.6-0.1
		c-2.8-0.8-5.7-1.5-8.6-2c-1-0.2-2.1,0.3-3.1,0.5C88.9,115.1,88.5,115.1,88,115.2z"/>
</g>
</svg>
