<?xml version="1.0" encoding="utf-8"?>
<!-- Generator: Adobe Illustrator 19.2.1, SVG Export Plug-In . SVG Version: 6.00 Build 0)  -->
<svg version="1.1" id="Layer_1" xmlns="http://www.w3.org/2000/svg" xmlns:xlink="http://www.w3.org/1999/xlink" x="0px" y="0px"
	 viewBox="0 0 166.3 200" style="enable-background:new 0 0 166.3 200;" xml:space="preserve">
<style type="text/css">
	.st0{fill:#03A9FE;}
</style>
<g id="pharm-trisha_1_">
	<path class="st0" d="M166.1,139.5c-0.6-0.2-1.1-0.5-1.6-0.8c-1.9-1-3.8-2-5.8-2.9c-1.9-0.9-3.9-1.7-5.9-2.4
		c-4-1.5-8.1-2.9-12.1-4.6c-2.7-1.2-5.2-2.8-7.7-4.3c-0.8-0.5-0.8-1.2,0-1.7c2.3-1.3,4.6-2.7,6.9-4c0.3-0.2,0.6-0.3,0.9-0.5
		c1.1-0.4,1.7-1.2,2.5-2c1.2-1.2,1.3-2.5,1.3-4c0-1.2,0-2.5,0-3.7c0.2-2.8,1.7-4.9,3.7-6.7c1-0.9,2.1-1.5,3.1-2.4
		c0.9-0.8,1.9-1.8,2.3-2.9c0.4-1,0.2-2.4-0.1-3.5c-0.5-1.7-1.3-3.2-1.9-4.8c-0.2-0.5-0.4-1.1-0.6-1.6c-0.4-1.1-0.7-2.2-1.2-3.2
		c-0.9-1.7-0.4-3.5,1.1-4.7c2-1.5,2.6-3.7,2.4-6.1c-0.1-1.6-0.4-3.2-1.5-4.4c-1.8-2.1-2.3-4.7-3-7.2c-0.3-0.9-0.1-1.9-0.1-2.9
		c0-0.7,0.1-1.3,0.1-2c0.1-2.8,0.2-5.6,0.1-8.4c-0.1-2.3-0.6-4.6-1.4-6.8c-0.6-1.6-1.7-2.6-3-3.7c-1.6-1.3-3.3-2.7-3.7-4.8
		c-0.4-2.1-0.9-4.2-0.9-6.4c0-2.9-1.1-5.5-3-7.8c-0.5-0.5-0.9-1.1-1.3-1.7c-1.4-2.1-3.5-3.2-5.8-3.8c-0.7-0.2-1.6,0.1-2.4,0.2
		c-1.1,0.1-2.3,0.4-3.4,0.4c-1.2,0-2.4-0.3-3.5-0.7c-0.5-0.2-0.9-0.8-1.4-1c-1.7-1-3.4-1.9-5.1-2.8c-2-1-4.2-1.4-6.3-1.7
		c-1.7-0.2-3.4,0-5.1,0.2c-1.4,0.1-2.9,0.6-4.3,0.7c-0.5,0-1.3-0.4-1.7-0.8C95.6,5.7,94,4.9,92.5,4c-2.5-1.5-5.2-2.4-7.9-3.2
		c-2.4-0.7-4.8-0.9-7.3-0.7c-1.7,0.2-3.4-0.1-5.1-0.1c-1.5,0-3,0-4.5,0.3C64.2,1,60.7,1.8,57.3,3c-1.6,0.6-3,1.5-4.2,2.6
		c-1.2,1.1-2.5,2.1-3.9,2.9c-2,1-3.8,2.2-5.6,3.5c-0.5,0.4-1.2,0.6-1.8,0.6c-2.1,0-4.1,0.5-6,1.2c-1.5,0.5-2.4,1.8-2.7,3.4
		c-0.6,2.4-2.6,4-5,3.9c-3.3-0.1-5.4,2.5-5.3,5.4c0,1.2,0.1,2.3-0.9,3.2c-0.8,0.8-1.8,1.5-2.9,1.7c-1.9,0.3-3.3,1.2-4.3,2.8
		c-0.7,1-1,2.1-1,3.3c0.1,1,0.2,2.1-0.1,3c-0.5,1.6-1.7,2.6-3,3.6c-1.6,1.3-3.3,2.5-4.8,3.8c-1,0.9-1.8,1.9-1.4,3.4
		c0.2,0.7,0.5,1.5,0.6,2.2c0.3,1.3,0.6,2.6,0.6,3.9c0,0.8-0.5,1.7-0.9,2.5c-0.4,0.6-1,1.1-1.5,1.6c-0.2,0.2-0.5,0.5-0.6,0.8
		c-0.8,1.5-1.8,2.9-2.3,4.5c-0.6,2.1-0.5,4.4,1,6.3c0.8,1,1.7,2.1,2.2,3.3c0.7,1.6,0.8,3.4,0,5.1c-0.6,1.3-0.9,2.7-1,4.1
		c-0.1,0.8-0.1,1.5-0.1,2.3c0,0.3,0,0.6,0,0.9c0.2,1.1,0.3,2.2,0.6,3.2c0.3,1.2,0.8,2.3,1.3,3.5c1,2.6,2.9,4.7,4.1,7.1
		c0.8,1.6,1.2,3.4,1.8,5.1c0.8,2.4,1.4,5,3,7.1c1.2,1.5,2.5,2.8,4.5,3.3c2.5,0.7,4.5,2.3,5.8,4.6c1,1.8,2.2,3.4,3.3,5.1
		c0.1,0.2,0.5,0.4,0.7,0.4c1.7,0,2.9,1,4,2c0.9,0.8,1.7,1.8,2.6,2.7c0.8,0.8,0.7,1.8,0,2.6c-0.2,0.2-0.3,0.5-0.2,0.7
		c0.1,1-0.1,1.9-0.7,2.7c-0.6,0.9-0.6,2-0.8,3c-0.1,0.4-0.1,0.8-0.2,1.1c-0.9,2.2-0.5,4.4-0.4,6.6c0,1.3,0.5,2.3,1.1,3.3
		c0.9,1.4,0.4,2.8-0.8,3.8c-1.5,1.2-3.1,2.2-4.8,3.1c-1.6,0.8-3.1,1.8-4.6,2.9c-2,1.3-3.9,2.7-5.9,4.1c-1.3,0.9-2.6,1.6-3.9,2.5
		c-2.4,1.6-4.6,3.3-7,4.8c-1.2,0.8-2.5,1.5-3.8,2.1c0,0.6,0,1.1-0.1,1.7c2.7-1.2,5.2-2.8,7.6-4.5c2.4-1.7,4.9-3.3,7.3-5
		c2.1-1.5,4.2-3.1,6.4-4.6c0.5-0.4,1-0.7,1.6-0.9c2.4-1.3,4.8-2.5,7.2-3.8c0.1,0,0.2-0.1,0.3-0.1c1.6-0.8,1.8-0.6,1.9,1.2
		c0.1,1.6,0.1,3.2,0.2,4.7c0.1,3.4,0.1,6.8,0.2,10.2c0,1.1,0.4,2.3,0.6,3.4c0.5,2.5,0.9,5,1.4,7.5c0.5,2.8,1,5.5,1.5,8.3
		c0.3,1.9,0.6,3.9,0.9,5.8h1.6c-0.3-1.7-0.6-3.5-0.9-5.2c-0.9-4.7-1.8-9.4-2.7-14.2c-0.3-1.9-0.6-3.7-0.8-5.6
		c-0.2-3.4-0.3-6.8-0.5-10.2c-0.1-2-0.2-4-0.3-6c-0.1-1.3-0.4-2.5-0.6-3.8c-0.2-1.4-0.3-2.9-0.6-4.3c-0.4-2.1-0.6-4.2-0.6-6.3
		c0-0.8,0.4-1.3,1-1.7c2.7-1.5,5.5-2.9,8.1-4.4c1.6-0.9,3.2-1.5,4.9-2.1c2.1-0.7,4.2-1.6,6.3-2.5c1.2-0.5,2.4-0.8,3.7-0.8
		c0.4,0,0.7-0.1,1.1-0.1c0.4,0,0.9,0.1,1.3,0.3c0.6,0.3,1.2,0.8,1.8,1.2c1.7,1.1,3.5,2.2,5.2,3.3c1.7,1.1,3.4,2.3,5.1,3.4
		c0.4,0.3,0.8,0.7,1.2,1.1c0.1,0.1,0.2,0.3,0.2,0.4c-0.5,1.8,0.5,3.3,1.3,4.8c0.3,0.5,0.6,0.9,0.9,1.4c-2.1,0.5-3.5-0.5-4.8-2
		c-0.9-1-2-1.8-2.9-2.8c-1-1.1-2.1-1.1-3.4-1.1c-1.2,0-2.2-0.6-3.1-1.3c-0.6-0.4-1.3-0.9-1.9-1.3c-0.2-0.1-0.5-0.1-0.7,0
		c-1.6,1.1-3.5,1.3-5.3,1.9c-0.3,0.1-0.6,0.1-0.9,0c-1-0.1-2-0.3-3-0.4c-0.3,0-0.7,0.2-0.8,0.4c-0.2,0.5,0.3,0.7,0.7,0.7
		c0.6,0.1,1.2,0.1,1.8,0.2c0.2,0,0.5,0.1,0.8,0.2c-0.8,1.3-1.6,2.6-2.4,3.9c-0.3,0.5-0.7,0.4-1.1,0.3c-1-0.1-1.9-0.3-2.9-0.4
		c-0.4-0.1-0.9,0.1-0.9,0.5c0,0.5,0.4,0.5,0.9,0.6c0.9,0.1,1.9,0.1,2.7,0.5c0.5,0.3,0.9,1,1.1,1.7c0.8,3.4,1.5,6.8,2.2,10.2
		c0.6,2.9,1.8,5.6,3.3,8.2c0.7,1.3,0.9,2.9,1.3,4.3c0.1,0.5,0.2,1,0.5,1.4c0.1,0.2,0.5,0.4,0.8,0.5c0.1-0.3,0.3-0.6,0.3-0.8
		c-0.7-3-1.3-5.9-3-8.6c-0.5-0.9-0.9-1.9-1.3-2.8c0.1,0,0.1-0.1,0.2-0.1c0.3,0.4,0.5,0.8,0.8,1.1c1.9,2.6,3.8,5.3,5.8,7.9
		c0.3,0.5,0.6,1,1,1.4c0.2,0.2,0.6,0.4,0.9,0.3c0.5-0.2,0.4-0.6,0.1-0.9c-1.3-1.9-2.7-3.7-4-5.6c-1.6-2.3-3.1-4.7-4.9-6.9
		c-1.3-1.7-1.3-3.8-1.8-5.7c-0.4-1.7-0.8-3.4-1.3-5c-0.1-0.5-0.2-0.9,0.3-1.3c0.4-0.3,0.5-0.9,0.8-1.3c0.1-0.2,0.3-0.5,0.6-0.7
		c0.1,0.3,0.2,0.5,0.2,0.8c0.2,0.9,0.3,1.7,0.5,2.6c0.1,0.3,0.4,0.6,0.7,0.7c1.7,0.5,3.4,1,5.1,1.5c1.1,0.3,2.2,0.7,3.3,0.9
		c0.7,0.1,1.4,0,2.2,0c1.5,0.1,2.7,0.9,3.7,1.8c0.4,0.3,0.8,0.8,1.2,1.2c0.3,0.3,0.6,0.5,0.8,0.1c0.2-0.2,0.2-0.8,0.1-0.9
		c-1.1-1.3-2.3-2.3-3.9-2.9c-1.2-0.5-1.3-0.5-0.6-1.7c0.9-1.5,1.8-3,2.8-4.6c0.9,0.9,1.8,1.6,2.4,2.5c1.5,1.9,3.4,2.4,5.8,2.1
		c-0.2,0.9-0.3,1.8-0.5,2.6c-0.4,1.5-0.8,3.1-1.2,4.6c-0.6,2.1-1.1,4.3-1.8,6.4c-0.9,3-1.8,6.1-3.4,8.9c-0.8,1.4-1.8,2.6-2.6,4
		c-0.9,1.4-1.6,2.9-2.3,4.4c-0.5,1.2-1,2.4-1.3,3.7c-0.4,1.6-0.8,3.2-1,4.8c-0.4,3.3-0.6,6.7-0.9,10c0,0.2,0,0.3,0,0.5h1.4
		c0.2-2.4,0.4-4.9,0.6-7.4c1.1,0.1,2.2,0.2,3.3,0.4c2,0.3,4,0.4,5.9,1c4.7,1.4,9.2,3.5,13.5,5.9c0.1,0,0.1,0.1,0.2,0.2h2.5
		c-0.5-0.4-1-0.9-1.6-1.3c-3.7-2-7.4-4.1-11.5-5.3c-1-0.3-1.8-0.9-2.8-1.3c-0.1-0.1-0.3-0.2-0.4-0.2c-1.9,0.3-3.6-0.4-5.5-0.4
		c-0.9,0-1.8-0.2-2.7-0.3c-0.6-0.1-0.8-0.4-0.7-1c0.2-2.5,0.8-4.9,1.8-7.1c0.7-1.6,1.3-3.3,2.2-4.9c1.3-2.3,2.9-4.5,4.2-6.8
		c0.6-1.1,1-2.5,1.5-3.7c0.2-0.4,0.5-0.9,0.9-1c0.2-0.1,0.8,0.3,1,0.6c1.1,1.3,2.2,2.7,3.3,4.1c1.2,1.7,2.3,3.4,3.5,5
		c0.8,1.1,1.8,2.1,2.5,3.2c1.5,2.4,3,4.8,4.3,7.3c1.6,3.2,3.4,6.3,5.4,9.2c0.8,1.2,1.5,2.6,2.2,3.9h1.7c-0.7-1.3-1.4-2.8-2.2-4
		c-2.8-3.9-4.9-8.2-7.1-12.4c-1.4-2.6-2.9-5-4.8-7.3c-1.2-1.4-2.4-2.8-3.4-4.3c-1.8-2.5-3.6-5.1-5.4-7.7c-0.5-0.7-0.4-1.5-0.3-2.3
		c1-3.8,1.9-7.6,2.9-11.4c0.8-3,1.8-6,2.5-9c0.5-1.8,0.7-3.7,1-5.5c0.1-0.5,0.1-1.1,0.2-1.6c0.1-0.7,0.5-1,1.1-0.6
		c1.3,0.8,2.7,1,4.1,1.1c0.4,0,0.9,0.1,1.3,0.2c2.6,0.2,5.1-0.3,7.5-1.3c2.6-1.1,5-2.5,7.3-4.1c2-1.4,4-2.8,5.7-4.6
		c0.9-1,2.2-1.7,3.2-2.6c0.8-0.7,1.5-1.4,2.3-2.1c0.1-0.1,0.3-0.2,0.5-0.4c0.9,2.6,1.9,5.1,2.3,7.8c0.8,5.6,0.7,11.2,0.7,16.8
		c0,0.9,0.3,1.7,0.2,2.6c-0.1,0.8-0.4,1.6-0.7,2.4c-0.4,1.2-0.9,2.3-1.5,3.4c-0.5,1.2-1.2,2.3-1.7,3.4c-0.8,1.7-1.6,3.4-2.4,5.1
		c-1.5,3.4-3,6.8-4.5,10.2c-0.7,1.6-1.2,3.2-2,4.7c-1.2,2.5-1.7,5.2-2.4,7.9c-0.6,2.4-1.3,4.7-1.8,7c-0.6,2.7-1.1,5.4-1.6,8.2
		c0,0.2-0.1,0.4-0.1,0.5h1.6c0.3-2,0.4-4.1,1-6c0.5-1.6,1.5-3.2,2.5-4.6c3.3-4.7,7.4-8.7,11.7-12.4c1.5-1.3,3-2.6,4.5-4
		c1.2-1.1,2.2-2.3,3.3-3.6c1-1.2,1.9-2.5,2.9-3.8c0.3-0.4,0.6-0.7,1-1.1c0.8-0.8,1.6-1.6,2.4-2.5c-1.2-1.5-2.4-2.8-3.6-4.2
		c-1-1.2-1.9-2.4-2.9-3.6c-0.5-0.6-0.3-1.3,0.4-1.5c1-0.2,2-0.4,3-0.5c1.3-0.1,2.7-0.1,4-0.2c2.1-0.1,4.2-0.1,6.2-0.2
		c2-0.1,3.9-0.2,5.9-0.3c1.8-0.1,3.5-0.1,5.3-0.2c2.4-0.1,4.8-0.2,7.1-0.3c-0.9-1.7-1.7-3.4-2.6-5c-1.6-2.8-3.2-5.6-4.9-8.3
		c-0.7-1.1-1.6-1.9-2.5-2.8c-0.9-0.9-1.7-2-2-3.3c0.7,0.3,1.4,0.6,2.2,0.8c1.1,0.3,2.3,0.6,3.5,0.9c1.5,0.5,2.9,1,4.3,1.5
		c1.7,0.6,3.3,1.3,5,2c1,0.4,1.9,1,2.8,1.5c1.8,0.9,3.6,1.8,5.4,2.7C166.2,140.7,166.1,140.1,166.1,139.5z M61.4,151.5
		c-2.3-0.5-4.6-1.4-6.8-2.1c-0.9-0.3-1.2-0.9-1.2-1.7c0-1-0.2-2.1-0.2-3.1c0-0.2,0.2-0.6,0.4-0.6c1.8-0.7,3.7-1.3,5.5-1.9
		c0.2-0.1,0.5,0.2,0.7,0.3c1,0.5,1.8,1.1,2.1,2.2c0.5,1.6,1.1,3.1,1.7,4.6c0.1,0.2,0.1,0.5,0.1,0.8
		C63.8,151.5,62.9,151.8,61.4,151.5z M66.6,145.6c-0.5,0.8-1.1,1.6-1.8,2.6c-0.4-0.8-0.7-1.4-0.9-2c-0.2-0.4-0.3-0.9-0.4-1.3
		c-0.1-0.4-0.1-0.8,0.4-0.7c0.7,0,1.3,0,2,0.2c0.3,0.1,0.7,0.3,0.9,0.5C66.9,145,66.7,145.4,66.6,145.6z M123.9,68.1
		c0.2,0,0.5,0,0.7,0.1c0.6,0.3,1.2,0.6,1.7,1c0.3,0.2,0.5,0.6,0.7,0.9c-0.1,0-0.1,0.1-0.2,0.1c0,0.7,0.1,1.5,0.1,2.2
		c0,0.3,0.1,0.7,0.1,1c0.2,1.8,0.3,3.5,0.5,5.3c0.1,0.9-1.4,2.5-2.3,2.4c-0.2,0-0.4-0.5-0.3-0.6c0.2-0.3,0.5-0.7,0.8-0.9
		c0.8-0.4,0.7-1,0.7-1.6c-0.1-1.4-0.2-2.8-0.3-4.2c-0.1-1-0.1-1.9-0.2-2.9c0-0.3-0.3-0.6-0.6-0.8c-0.4-0.4-1-0.7-1.4-1.2
		C123.8,68.8,123.9,68.4,123.9,68.1z M121.8,78.5c-0.6,1.8-1.6,2.7-3.3,3.3c-2,0.7-4.1,1-6.2,1.2c-2.6,0.2-5.3,0.3-7.9,0.3
		c-2.3,0-4.6-0.3-6.7-1.3c-0.9-0.4-1.6-1-2.1-1.8c-0.2-0.4-0.5-0.8-0.8-1.2c-0.9-1.1-1.2-2.4-1.3-3.8c-0.1-1.3,0.8-2.1,1.6-2.7
		c1.5-1.1,3.3-1.6,5-2c0.1,0,0.2,0,0.3,0c0.1,0,0.1,0.1,0.2,0.2c-1.3,1.1-2.6,2-3.9,3.1c-0.3,0.2-0.7,0.8-0.5,1
		c0.2,0.4,0.7,0.7,1.1,0.8c0.7,0.1,1.4,0,2.1-0.1c1-0.3,2-0.1,2.9,0.2c2.8,0.8,5.5,0.6,8-1.1c1.3-0.9,2.7-1.7,4.1-2.5
		c0.5-0.3,0.5-0.7-0.2-1c-0.9-0.4-1.9-0.7-2.8-1c-0.6-0.2-1.1-0.4-1.7-0.7c0-0.1,0-0.2,0-0.2c0.4-0.1,0.9-0.2,1.3-0.2
		c2.5,0,5.1-0.1,7.6,0c1,0,2,0.4,2.9,0.9c0.5,0.3,0.8,1.1,0.8,1.7C122.4,73.9,122.5,76.2,121.8,78.5z M101.1,71.8
		c0.4,1,0.8,1.9,1.1,2.7c-1.2-0.1-2.5-0.2-4-0.3C99,73.1,100,72.3,101.1,71.8z M104.2,71.7c0-0.7,0.6-0.8,1.1-0.8
		c0.5,0,0.9,0.5,0.8,1c-0.1,0.6-0.5,0.8-1,0.8C104.5,72.6,104.2,72.3,104.2,71.7z M108.3,70.2c0.6,0.1,1,0.2,1.5,0.4
		c0.7,0.2,1.4,0.5,2.2,0.8c0.2,0.1,0.4,0.2,0.4,0.4c0,0.1-0.1,0.4-0.2,0.4c-1.5,0.9-3.1,1.7-4.6,2.6c-0.1,0.1-0.2,0-0.4,0.1
		C108.7,72.6,108.9,71.8,108.3,70.2z M49.5,73c0.9-1,1.8-1.8,2.7-2.8c0.7-0.7,1.2-1.5,1.9-2.2c1.4-1.3,3.2-1.8,5.1-2.1
		c1.9-0.3,3.9-0.5,5.8-0.8c0.6-0.1,1.2,0,1.8,0.2c2.7,0.6,5.3,1.3,8,1.8c0.9,0.2,1.9-0.2,2.9-0.3c0.2,0,0.4-0.3,0.4-0.5
		c-0.1-0.5-0.1-1.3-0.5-1.5c-1.7-1.1-3.5-1.7-5.6-1.8c-2.9-0.1-5.8,0.4-8.7,0.6c-2.2,0.2-4.4,0.6-6.5,1.3c-0.9,0.3-1.6,0.8-2.6,1.2
		c-0.4-2.2-1.7-4.2-0.6-6.4c0.5-1,1.1-2,1.9-2.7c1.5-1.5,1.6-3.1,0.8-4.9c-0.4-0.8-0.9-1.6-1.4-2.3c-0.9-1.4-0.7-2.7,0.9-4
		c1.7-1.4,3.2-3,3.6-5.3c0-0.3,0.1-0.5,0.1-0.8c-0.2-1.3,0.2-2.5,0.5-3.7c0.3-1,1.2-1.6,2-2.2c1.5-1.1,3.2-1.6,4.9-2.3
		c2.1-0.9,4.2-1.5,6.4-1.8c1.3-0.2,2.7-0.3,4-0.5c2.7-0.5,5.4-0.7,8.1-1c3.1-0.3,6.2-1.1,9-2.5c1.5-0.8,3-1.7,3.7-3.4
		c0.1-0.2,0.5-0.3,0.7-0.3c0.2,0,0.3,0.3,0.4,0.5c0.1,0.1,0,0.3,0,0.4c-0.9,1.6,0.3,2.5,1.3,3.4c1.7,1.7,3.8,2.6,6.1,3.3
		c1.8,0.6,3.4,1.5,5.1,2.3c0.6,0.3,1,1,1.5,1.4c1.4,1.3,2.9,2.5,4.2,3.7c0.4,0.4,0.7,1,1,1.5c0.2,0.4,0.3,0.8,0.6,1.1
		c0.9,1.1,1.4,2.3,1.6,3.8c0.2,1.2,0.5,2.3,0.8,3.4c0.1,0.4,0.1,0.8,0.2,1.2c0.1,2.5,0.2,5,0.3,7.5c0,0.6-0.1,1.2-0.1,1.9
		c0,2.1,0,4.3,0.1,6.4c0,0.9,0.2,1.7,0.3,2.6c0,0.3-0.1,0.7-0.2,1c-0.5-0.1-1.1-0.1-1.4-0.4c-1.5-1.3-2.8-2.9-4.3-4.1
		c-0.9-0.7-2.1-0.9-3.2-1.2c-2.2-0.5-4.4-0.6-6.7-0.3c-2.3,0.3-4.5,0.6-6.6,1.6c-1.1,0.5-2,1.2-3,1.9c-0.2,0.2-0.4,0.8-0.2,1
		c0.2,0.3,0.7,0.4,1,0.5c1.3,0.1,2.3-0.9,3.5-1.4c2.6-1,5.3-1.8,8.1-1.7c2.1,0.1,4.4,0,6.3,1.2c0.8,0.5,1.3,1.3,2,2
		c0.3,0.3,0.5,0.7,0.9,1.2c-2.4,0-4.5-0.1-6.7,0c-2.2,0.1-4.4,0.5-6.5,0.7c-1.3,0.1-2.7,0.2-4,0.5c-1.5,0.3-3,0.8-4.5,1.2
		c-1.8,0.6-3.6,1.2-5.4,1.8c-1.9,0.7-3.8,0.7-5.7,0.2c-1.7-0.4-3.5-0.6-5.2-0.9c-0.1,0-0.2,0-0.3-0.1c-2.1-0.9-4.4-1-6.6-1.1
		c-1.9-0.1-3.8-0.2-5.6-0.1c-2.9,0.1-5.7,0.4-8.6,0.6c-1.9,0.1-3.8,0.7-5.4,1.7c-0.8,0.5-1.6,1.1-2.4,1.6c-0.3,0.2-0.7,0.4-1,0.4
		c-0.3,0-0.7-0.2-1-0.3C49.2,73.8,49.2,73.3,49.5,73z M67.5,76.8c0,0.1-0.1,0.1-0.1,0.2c-1.9-0.7-3.9-1.4-5.8-2.2c0-0.1,0-0.2,0-0.3
		c1.5-0.8,3-1.5,4.5-2.3c0.1,0.1,0.1,0.1,0.2,0.2C65.7,74.2,66.5,75.6,67.5,76.8z M60.8,74c-0.5,0.3-0.9,0.7-1.2,1.1
		c-0.3,0.3-0.3,0.7,0.2,0.8c0.8,0.2,1.7,0.2,2.5,0.5c1.4,0.4,2.8,0.8,4.2,1.3c1.5,0.6,3,0.7,4.5,0.9c2.3,0.3,4.3-0.8,6.4-1.2
		c0.9-0.2,1.8-0.5,2.7-0.8c0.2-0.1,0.5-0.3,0.5-0.4c0-0.2-0.2-0.4-0.4-0.6c-0.9-0.9-1.9-1.8-2.8-2.8c-0.1-0.1-0.1-0.3-0.3-0.7
		c1.6,0.4,3.1,0.6,4.5,1.2c2.1,0.9,2.1,1.7,1.7,3.5c-0.3,1.2-0.8,2.3-1.2,3.4c-0.9,2.2-2.8,3.3-4.9,4c-1,0.3-2,0.6-3,0.7
		c-1.2,0.2-2.5,0.4-3.7,0.5c-2.2,0.2-4.4,0.3-6.6,0.3c-1.8,0-3.7-0.3-5.5-0.6c-1.9-0.3-3.1-1.5-3.5-3.3c-0.4-1.6-0.5-3.2-0.7-4.8
		c-0.3-1.8,0.7-3,2.2-3.8c1.8-1,3.7-1.4,5.7-1.6c0.8-0.1,1.5-0.1,2.3-0.1c0.3,0,0.5,0.1,0.8,0.1C63.6,72.4,62.2,73.2,60.8,74z
		 M68.9,73.8c0-0.6,0.3-1,0.9-1c0.7,0,1,0.3,1,0.9c0,0.5-0.5,1.1-1,1.1C69.2,74.8,68.9,74.4,68.9,73.8z M73.3,72
		c0.4-0.5,0.9-0.2,1.4-0.1c1.2,0.4,3.3,2.4,3.9,3.6c-0.3,0.4-5,1.4-6,1.4C73.7,75.4,74.2,73.8,73.3,72z M36.5,136
		c0.3-1.3,0.4-2.6,0.6-3.9c0.2-1.1,0.3-2.3,0.5-3.4c0.2-1.5,0.4-3,0.8-4.5c1-3.9,2.7-7.6,4.3-11.3c1.1-2.5,2.3-4.9,3.4-7.4
		c0.6-1.4,1.1-2.9,1.6-4.4c0.2-0.7,0.5-1.3,1.2-1.7c0.9-0.6,1.5-1.5,2.2-2.3c0.5-0.5,0.8-1.2,1.4-1.9c0.6,2,1.2,4,1.3,6.1
		c0.1,1.7-0.3,3.2-0.8,4.7c-0.6,1.8-1.1,3.7-1.4,5.6c-0.4,2.3-1.3,4.4-2.1,6.5c-0.9,2.3-2.7,4-4.3,5.8c-1.2,1.3-2.4,2.6-3.4,4.1
		c-0.7,1-0.9,2.3-1.5,3.3c-1.4,2.4-2.9,4.7-4.3,7.1c-0.1,0-0.1-0.1-0.2-0.1C36,137.5,36.4,136.8,36.5,136z M48.8,97.4
		c0.7-1.5,1.4-3,2.2-4.5c0.1-0.1,0.5-0.1,0.5-0.1c0.1,0.3,0.4,0.8,0.3,1c-0.8,1.3-1.6,2.6-2.5,3.9L48.8,97.4z M54,107.1
		c0.3,0.9,0.6,1.8,1,2.6c0.5,1,1,1.9,1.6,2.9c0.3,0.5,0.5,0.9,0.4,1.6c-0.2,1.4-0.2,2.9-0.4,4.4c-0.1,0.6-0.2,1.1-0.4,1.6
		c-2.1-0.4-3.9-0.7-5.9-1.1C52.1,115.3,52.8,111.1,54,107.1z M60.2,132c-2.2-0.3-4.3-0.1-6.3,0.7c-0.2,0.1-0.5,0.1-0.8,0.1
		c0.5-1,0.9-2,1.3-2.9c0.2-0.5,0.7-0.7,1.2-0.5c1.6,0.5,3.2,0.5,4.9,0.4c0.5,0,1,0,0.9,0.6C61.3,131.6,61,132.1,60.2,132z
		 M61.3,128.7c-1.9,0-3.8,0-5.7-0.5c-0.4-0.1-1,0.2-1.7,0.3c-0.1-0.5-0.4-1-0.4-1.6c-0.1-0.5-0.2-0.8-0.7-0.6
		c-0.3,0.1-0.6,0.6-0.5,0.8c0.2,0.7,0.4,1.5,0.8,2.1c0.3,0.5,0.2,0.9,0,1.4c-0.5,0.9-1.1,1.9-1.6,2.8c-0.1,0.2-0.4,0.3-0.7,0.4
		c-2.3,0.9-4.7,1.8-7,2.8c-1.7,0.8-3.3,1.9-5,2.8c-0.9,0.5-1.8,0.9-2.9,1.2c0.7-1,1.5-2.1,2.2-3.1c0.9-1.3,1.7-2.7,2.5-4
		c0.6-1.1,1-2.3,1.6-3.4c0.6-1.1,1.2-2.1,1.9-3c1.1-1.4,2.4-2.7,3.7-4c0.4-0.4,0.8-0.9,1.1-1.4c0.7-1,1.7-1.4,2.8-1.2
		c2.3,0.4,4.7,0.9,7,1.4c2,0.5,4,1.2,6,1.5c2.3,0.3,3.9,1.7,5.8,2.6c0.2,0.1,0.5,0.5,0.5,0.6c-0.5,1.5,0.5,2.5,1.4,3.5
		c1,1.2,2,2.4,3,3.6c-0.5,0.2-0.9,0.5-1.4,0.6c-0.9,0.2-1.7-0.4-2.4-0.9c-1.4-0.9-2.7-2-4-3c-1-0.7-2-1.3-3.1-2c0-0.4,0.1-0.8,0-1.2
		c-0.1-0.3-0.4-0.6-0.7-0.9c-0.2,0.3-0.5,0.6-0.5,0.9C62.9,128.5,62.7,128.7,61.3,128.7z M57.5,120.5c0.2-1.7,0.3-3.3,0.5-5.3
		c1.9,2.3,3.7,4.5,5.6,6.8C61.5,121.4,59.6,120.9,57.5,120.5z M71.8,127.2c0.1-0.1,0.2-0.1,0.3-0.2c0.9,0.8,1.7,1.5,2.6,2.3
		c0.3,0.3,0.7,0.6,1,0.8c0.5,0.5,1.1,0.9,0.9,2.4C74.7,130.9,72.7,129.5,71.8,127.2z M69.9,137.9c-0.1,0-0.2,0.1-0.3,0.1
		c-1-0.7-2.1-1.5-3.1-2.2c-1.1-0.7-2.3-1.5-3.5-2.1c-1-0.5-1.1-0.8-0.8-1.9c0.1-0.5,0.2-1,0.3-1.5c0.3-0.9,0.8-1.1,1.6-0.7
		c2.3,1.1,4.1,2.8,6.2,4.2c0.2,0.1,0.3,0.5,0.3,0.7C70.4,135.7,70.1,136.8,69.9,137.9z M76.8,148.4c-1-1.4-2-2.6-2.1-4.4
		c0.4,0.4,0.7,0.8,1.1,1.3c0.4,0.4,0.7,0.9,1,1.3C77.3,147.3,77.4,147.8,76.8,148.4z M80.2,133.5c-0.6,3-1.1,6-1.7,8.9
		c-0.2,1.1-0.6,2.1-0.9,3.3c-0.1-0.1-0.3-0.2-0.4-0.4c-1.1-1.4-2.1-2.8-3.3-4.1c-0.7-0.7-1.5-1.3-2.4-1.9c-0.4-0.3-0.6-0.5-0.5-1
		c0.3-1.1,0.6-2.2,0.9-3.3c2,0.5,3.8,0.1,5.2-1.2c0.5-0.5,0.7-1.3,1-2.1c0.6,0.3,1.3,0.7,1.9,1.2C80.1,133,80.2,133.3,80.2,133.5z
		 M114,118.2c-1.5,1.8-3.2,3.3-5.2,4.6c-0.8,0.5-1.5,1.3-2.2,1.9c-1.6,1.3-3.3,2.7-5,4c-2.3,1.7-4.8,3.1-7.5,4.2
		c-3.4,1.4-6.9,1.4-10.4,0.3c-2-0.7-4-1.8-5.8-3c-1.8-1.2-3.4-2.8-5.2-4.1c-1.1-0.8-2.4-1.5-3.7-2.1c-2.5-1.3-4.8-2.7-6.6-5
		c-1.4-1.8-3-3.6-4.3-5.5c-1.6-2.3-2.7-4.9-3.2-7.7c-0.2-0.8,0-1.7,0-2.5c0.1-3.6-0.8-7-2.1-10.3c-0.1-0.2-0.2-0.5-0.3-0.7
		C52,91.1,51,91,50.2,92.1c-0.2,0.2-0.3,0.4-0.5,0.6c-0.3-1.7-0.7-3.3-1-5c-0.3-1.4-0.6-2.7-0.8-4.1c-0.1-0.5-0.2-1.1-0.2-1.6
		c0-0.2,0.3-0.6,0.6-0.6c0.2-0.1,0.6,0.1,0.8,0.3c0.5,0.8,1.3,1.1,2.2,1.3c1.6,0.4,2.8,1.3,3.9,2.5c0.2,0.3,0.6,0.5,0.9,0.7
		c1.6,0.8,3.4,0.7,5.1,0.8c1.2,0,2.4-0.3,3.6-0.1c1.9,0.4,3.7,0.1,5.5-0.1c3.3-0.4,6.6-0.7,9.6-2.3c2.5-1.3,4.4-3.3,5.3-6.1
		c0.4-1.1,0.8-2.3,2.1-2.4c1.5-0.2,3.1-0.6,4.3,0.6c0.7,0.8,1.2,1.8,1.8,2.7c0.7,1.1,1.4,2.2,2.2,3.3c0.6,0.8,1.3,1.6,1.9,2.4
		c1,1.3,2,2.6,2.9,4c0.6,0.9,0.7,1.9,0.6,3c-0.1,0.8-0.8,1.4-1.9,1.3c-2-0.2-3.6,0.7-5.2,1.6c-0.8,0.5-1.5,1.2-2.4,1.7
		c-1.4,0.8-2.3,0.6-3.5-0.6c-1.6-1.4-3.4-2-5.5-1.5c-2.4,0.6-4.2-1.5-3.6-4c0.2-0.6,0.4-1.2,0.6-1.8c-0.6-0.2-0.8,0.1-1,0.5
		c-0.7,1.8-0.5,3.6,0.6,5.1c0.4,0.5,1.2,0.9,1.8,0.9c0.9,0.1,1.9,0,2.9-0.1c1.5-0.2,2.6,0.5,3.6,1.3c0.3,0.3,0.7,0.5,1.1,0.8
		c1.6,1.1,3.1,0.6,4.8-0.8c1.1-0.9,2.2-1.7,3.6-2.1c0.8-0.2,1.6-0.3,2.4-0.3c1.4,0,2.6-1.2,2.6-2.6c-0.1-1.9-0.9-3.4-2.1-4.9
		c-0.9-1.1-1.7-2.2-2.6-3.2c1.5,0.3,3,0.7,4.6,1c0.8,0.1,1.7,0.1,2.5,0.1c0.4,0,0.9,0.1,1.3,0.2l0,0c0.2-0.1,0.5-0.2,0.7-0.2
		c1.8-0.1,3.7,0,5.5-0.2c1.7-0.1,3.4-0.4,5.1-0.7c1.6-0.3,3.2-0.6,4.7-1c0.6-0.2,1-0.6,1.5-1c0.2-0.1,0.4-0.3,0.6-0.4
		c0,1.9,0,3.8,0,5.7c0,0.8-0.1,1.5-0.2,2.3c-0.3,2-0.5,4-0.8,6c-0.3,1.8-0.6,3.6-0.9,5.4c-0.2,2-0.8,3.8-1.6,5.7
		c-0.7,1.5-1.1,3.2-1.7,4.7c-0.2,0.6-0.7,1.2-1,1.8c-0.5,0.9-1,1.8-1.5,2.7C115.2,116.4,114.7,117.4,114,118.2z M125.3,159.7
		c0.3,0.3,0.5,0.6,0.7,0.9c0.7,1,0.8,1.5-0.2,2.6c-2.2,2.7-4.1,5.7-6.6,8.2c-2,2-4.2,3.8-6.2,5.8c-1.4,1.4-2.9,2.7-4.3,4.1
		c-1.9,2-3.8,4.1-5.6,6.2c1-4,1.6-8.3,3.6-12.2c0.5-0.9,1.1-1.9,1.3-2.9c0.4-1.8,1.2-3.4,2.1-5c1.5-2.7,2.6-5.5,3.6-8.4
		c0.1-0.3,0.2-0.6,0.4-0.8c1.6-2.3,2.6-4.9,3.8-7.4c0.1-0.2,0.4-0.4,0.6-0.6c0.2,0.2,0.4,0.4,0.5,0.6
		C120.9,153.9,122.7,157.1,125.3,159.7z M144.6,136.9c1.7,1.7,2.9,3.6,4.1,5.7c1.1,2,2.1,4.1,3.1,6.2c0.1,0.3,0.2,0.6,0.3,1.1
		c-3.6,0.1-7,0.1-10.4,0.4c-4.2,0.4-8.3,0.4-12.5,0.5c-2.3,0.1-4.6,0.5-7,0.7c-0.3,0-0.7-0.2-0.8-0.4c-1.3-2.2-2.5-4.4-2.6-7
		c0-2.6,0.3-5.3,0.2-7.9c-0.1-2.4-0.5-4.9-0.7-7.3c-0.1-1.1-0.1-2.2-0.4-3.2c-0.3-1.3-0.9-2.5-1.4-3.7c-0.2-0.7-0.5-1.4-0.6-2.1
		c-0.1-0.8,0.3-1.3,1-1.5c0.6-0.2,0.8,0.3,1.2,0.6c0.6,0.6,1.5,0.9,2.2,1.4c1.9,1.3,3.8,2.6,5.8,3.8c1,0.6,2.1,0.8,3.1,1.3
		c1.7,0.9,3.6,1.4,5.1,2.7c0.9,0.8,1.9,1.4,3,1.9c1.6,0.6,2.6,1.9,3.7,3C142.2,134.2,143.3,135.6,144.6,136.9z"/>
	<path class="st0" d="M91.8,116.6c-2.8-0.1-5.7-0.3-8.2-1.7c-2-1.1-3.9-2.2-5.6-3.8c-1.3-1.2-2.9-2.3-4.3-3.4
		c-0.2-0.2-0.3-0.5-0.3-0.7c0-0.2,0.3-0.5,0.5-0.5c1.9,0.1,3.5-0.9,5.2-1.3c2.5-0.6,4.9-1.2,7.4-1.7c0.7-0.1,1.6,0,2.3,0.3
		c1.4,0.4,2.5,0.1,3.8-0.4c1.9-0.7,3.9-0.9,5.9-0.6c1.8,0.3,3.7,0.7,5.5,1.1c0.6,0.1,1.1,0.4,1.6,0.7c0.2,0.1,0.3,0.6,0.2,0.8
		c-0.4,0.7-0.9,1.3-1.3,2c-1.6,2.5-3.7,4.5-6,6.3c-1,0.8-1.9,1.8-3.3,2.1C94.1,116.1,92.9,116.4,91.8,116.6z M104.3,106.4
		c0,0-0.1-0.1-0.1-0.1c-0.2,0.1-0.5,0.2-0.7,0.4c-3,2.1-6.4,3.4-9.8,4.5c-1.8,0.6-3.7,0.8-5.5,0.4c-2.3-0.4-4.6-1.2-6.9-1.9
		c-1.6-0.5-3.2-1.1-4.8-1.6c-0.2-0.1-0.5-0.1-1-0.1c0.3,0.4,0.5,0.6,0.7,0.8c2.2,1.9,4.5,3.6,7,5.1c0.5,0.3,1.1,0.6,1.7,0.8
		c1.5,0.5,3,1.1,4.8,0.8c1-0.2,2.2,0.2,3.2,0.1c1.4-0.1,2.9-0.3,3.9-1.3c2-1.7,4.1-3.3,5.7-5.4C103.2,108,103.7,107.2,104.3,106.4z
		 M103.9,105.1c0-0.1,0-0.3,0-0.4c-2-0.3-4-0.7-6-1c-1.9-0.2-3.8-0.1-5.6,0.7c-1.4,0.7-2.7,0.5-4.1,0.1c-0.6-0.2-1.3-0.2-1.9-0.1
		c-1.7,0.3-3.4,0.6-5.1,1c-1.3,0.3-2.7,0.8-4,1.2c0,0.1,0,0.2,0.1,0.3C86.3,107.8,95.1,106.8,103.9,105.1z M79.2,108.1
		c0.5,0.2,1,0.5,1.5,0.6c1.5,0.5,3.1,1.1,4.7,1.5c1.2,0.3,2.4,0.5,3.7,0.7c2,0.3,3.9-0.3,5.7-1c1.7-0.6,3.3-1.3,4.9-2
		c0.6-0.2,1.2-0.5,1.2-1.3C93.7,107.5,86.5,108.4,79.2,108.1z"/>
	<path class="st0" d="M105.4,84.7c1.2,0,2.5,0,3.7,0c0,0,0,0,0,0C107.9,84.7,106.7,84.7,105.4,84.7
		C105.4,84.7,105.4,84.7,105.4,84.7z"/>
</g>
</svg>
