<?xml version="1.0" encoding="utf-8"?>
<!-- Generator: Adobe Illustrator 19.2.1, SVG Export Plug-In . SVG Version: 6.00 Build 0)  -->
<svg version="1.1" id="Layer_1" xmlns="http://www.w3.org/2000/svg" xmlns:xlink="http://www.w3.org/1999/xlink" x="0px" y="0px"
	 viewBox="0 0 166.9 177.2" style="enable-background:new 0 0 166.9 177.2;" xml:space="preserve">
<style type="text/css">
	.st0{fill:#FF5722;}
</style>
<g id="pharm-stephanie-orange">
	<path class="st0" d="M10.5,145.4c4.4-2.4,8.8-4.6,13.4-6.5c2-0.8,3.9-2,5.8-3.1c2.1-1.2,4.1-2.3,6.2-3.5c0.1,0.1,0.1,0.2,0.1,0.2
		c-0.7,2-1.5,3.9-2.3,5.9c-0.6,1.6-1.3,3.2-1.9,4.8c-1,2.8-2,5.6-2.9,8.4c-0.6,1.9-1.1,3.8-1.6,5.7c-0.2,0.6,0,1,0.6,1.3
		c3.9,1.8,7.9,3.2,12.2,3.8c1.4,0.2,2.7,0.4,4,0.6c0.5,0.1,1,0.3,1.6,0.5l-1.5,3c-0.6,1.2-1.3,2.4-1.9,3.5c-1.3,2.5-2.7,4.9-4.1,7.2
		h1.7c0.9-1.6,2-3.2,2.8-4.7c1.3-2.4,2.4-4.8,3.7-7.2c0.3-0.5,0.8-1,1-1.6c0.5-1.2,0.9-2.5,1.3-3.7c0.7-2.3,1.2-4.7,1.9-7
		c0.3-1.1,0.8-2.2,0.5-3.4c0-0.3-0.4-0.6-0.6-0.6c-0.2-0.1-0.6,0.3-0.6,0.5c0.1,2-0.9,3.7-1.3,5.6c-0.4,1.9-0.9,3.7-1.4,5.5
		c-0.4,1.5-1.1,1.8-2.6,1.3c-0.7-0.2-1.3-0.2-2-0.3c-1.2-0.2-2.4-0.5-3.6-0.7c-3-0.5-5.9-1.4-8.7-2.6c-0.5-0.2-1.1-0.5-1.7-0.8
		c0.2-0.7,0.5-1.5,0.7-2.2c0.5-1.7,0.9-3.5,1.5-5.3c0.8-2.6,1.7-5.1,2.6-7.7c0.9-2.5,1.8-5,2.8-7.5c0.3-0.9,0.9-1.6,1.3-2.4
		c0.2-0.3,0.2-0.7,0.4-1.2c0.9-0.7,1.9-1.4,2.9-2.3c0.6-0.5,1-1.1,1.5-1.7c1.4-1.6,3.1-2.8,4.8-4.1c1-0.7,1.8-1.6,2.7-2.5
		c0.7-0.7,1.3-1.5,2-2.2c0.2,0.1,0.3,0.1,0.4,0.2c-0.1,0.9-0.1,1.9-0.4,2.8c-0.4,1.5-1,2.9-1.4,4.3c-0.3,0.9-0.4,1.9-0.4,2.8
		c0,1.5,0,3,0.2,4.5c0.4,2.5,0.9,5,1.3,7.5c0.4,2.9,1.8,5.4,3,7.9c1.3,2.7,2.5,5.4,4,8c1.7,2.9,3.3,5.8,4.6,8.9
		c1.5,3.6,2.9,7.1,4.3,10.7c0.2,0.4,0.4,0.8,0.5,1.2h1.6c-1.7-4-3.2-8.1-4.9-12c-1.2-2.8-2.6-5.5-4-8.2c-1.2-2.4-2.4-4.7-3.6-7.1
		c-0.7-1.5-1.4-3-2.2-4.5c-1.3-2.3-1.8-4.9-2.2-7.5c-0.5-3.1-1.1-6.2-0.9-9.3c0.1-1.7,0.4-3.3,1.3-4.7c0.6-0.9,0.8-1.9,0.8-3
		c0-1.3,0.1-2.7,0.2-4c0-0.1-0.1-0.2,0-0.3c1.2-2,0.7-4.2,0.7-6.3c0-2.1-0.1-4.2-0.2-6.3c-0.1-0.3-0.1-0.7-0.1-1.2
		c0.7,1.3,1.5,2.3,2,3.5c1.6,3.8,4.2,7,6.8,10.2c2.8,3.4,6,6.2,9.7,8.4c2.2,1.3,4.6,2.1,7.2,2.4c1.4,0.1,2.9,0.3,4.3,0.4
		c2.3,0.2,4.3-0.6,6.4-1.4c2.8-1.1,5.4-2.5,7.9-4.1c1.3-0.8,2.5-1.7,3.7-2.6c1.3-1,2.6-2,3.9-3c0.2-0.1,0.7-0.2,0.8-0.1
		c0.2,0.2,0.5,0.6,0.4,0.9c-0.8,2.6-0.8,5.3-0.7,7.9c0.1,1.8,0.4,3.7,0.6,5.5c0.3,2.5,0.7,4.9,1,7.4c0,0.7,0.2,1.3,0.4,2
		c0.1,0.6,0.3,1.1,0.3,1.6c-0.1,1.8,0.8,3.4,1.4,5c0.2,0.6,0.2,1.1,0,1.7c-0.6,1.7-1.2,3.4-1.8,5.1c-0.4,1.1-0.9,2.2-1.3,3.3
		c-0.8,2.1-1.6,4.2-2.4,6.3c-1.2,3-2.5,5.9-3.7,8.9c-0.7,1.7-1.4,3.4-2.1,5.1h1.3c1.2-2.9,2.4-5.8,3.6-8.6c1.3-3.1,2.8-6.2,3.8-9.4
		c0.5-1.9,1.4-3.6,2.1-5.4c0.4-1.1,0.7-2.3,1.1-3.5c0.1-0.2,0.2-0.4,0.5-0.6c0.4,1,0.7,2.1,1.1,3.1c0.3,1,0.7,1.9,1,2.8
		c1,2.7,1.8,5.4,3,8c1.8,3.9,3.4,7.9,5.8,11.4c0.5,0.7,1,1.5,1.6,2.2h42.8v-2c-0.1-0.3-0.4-0.5-0.5-0.8c-0.6-1.6-1.3-3.2-1.9-4.8
		c-0.8-2.3-1.8-4.5-2.5-6.8c-1.2-4.2-2.2-8.3-3.2-12.5c-0.2-1-0.2-2.1-0.4-3.1c-0.5-2.4-1.2-4.8-1-7.3c0-0.5,0.1-1,0-1.5
		c-0.1-0.9-0.3-1.7-0.5-2.5c-0.2-1.2-0.4-2.3-0.6-3.5c-0.2-2-0.5-4-0.7-6c-0.3-3-0.6-6.1-0.9-9.1c-0.2-2.6-0.2-5.2-0.5-7.8
		c-0.3-3.3-0.8-6.5-1.2-9.8c-0.3-1.9-0.6-3.9-0.9-5.8c-0.4-2.5-0.9-5-1.3-7.5c-0.5-3-1-5.9-1.5-8.8c-0.4-2.8-0.9-5.6-1.4-8.4
		c-0.3-1.9-0.5-3.9-0.9-5.8c-0.4-2.4-0.9-4.8-1.4-7.2c-0.6-3-1.3-6.1-2.1-9.1c-1-3.8-2.8-7.3-4.9-10.6c-1.5-2.3-2.7-4.8-3.4-7.4
		c-0.5-2.1-1.5-4-2.8-5.8s-2.6-3.6-3.5-5.7c-0.8-1.8-2.4-3.1-3.7-4.6c-0.1-0.2-0.4-0.3-0.6-0.4c-2.1-0.9-4-2.1-6-3.3
		c-1.6-1.1-3.5-1.8-5.3-2.6c-2.4-1.1-4.7-2.1-7-3.3c-1-0.5-1.8-1.2-3-1.3c-1.3,0-2.6,0-3.8-0.6c-0.2-0.1-0.6,0-0.8-0.1
		c-0.7-0.6-1.6-0.6-2.5-0.8c-1.2-0.3-2.5-0.5-3.8-0.5c-2.2-0.1-4.3-0.1-6.5,0c-2.3,0.1-4.4,1.2-6.7,1.4c-1.8,0.1-3.6,0.7-5.3,1.3
		c-1.8,0.7-3.6,1.4-5.4,2.2c-1.3,0.6-2.6,1.1-3.8,1.8c-2.6,1.7-4.3,4.3-6.2,6.6c-1.9,2.3-3.5,4.8-5.8,6.8c-1.9,1.6-3.2,3.6-4.3,5.8
		c-0.5,1-0.9,2.1-1.4,3.1c-1.4,2.9-3,5.7-4.3,8.6s-2.5,5.9-3.6,8.9c-0.9,2.4-2,4.8-3.2,7.1c-1.2,2.2-2.3,4.4-3.1,6.7
		c-0.8,2.2-0.5,4.6-0.2,6.9c0.4,2.4,1.4,4.5,2.7,6.5c1.7,2.6,3.2,5.3,4.4,8.2c0.3,0.6,0.4,1.3,0.7,1.8c1,1.8,2,3.5,3.1,5.2
		c1,1.6,2.3,3.1,3.3,4.8c1,1.6,2.1,2.9,3.8,3.7c0.3,0.1,0.6,0.2,0.8,0.4c0.5,0.4,1,0.7,1.3,1.2c0.4,0.6,0.6,1.4,0.6,2.1
		c0.2,2.9,0.3,5.9,0.4,8.9c0.1,1.5,0.1,2.9,0,4.4c0,0.6-0.3,1.3-0.7,1.8c-0.9,1-1.9,1.9-2.8,2.9c-1.4,1.4-2.8,2.8-4.5,4
		c-1.3,0.9-2.6,2-3.6,3.2c-1.6,1.9-3.3,3.4-5.4,4.6s-4.3,2.4-6.4,3.6c-3,1.8-6.1,3.5-9.4,4.9c-3.5,1.6-7,3.3-10.4,5.2
		c-3.3,1.9-6.7,3.6-10.3,4.9c0,0.3,0,0.6-0.2,0.8c3-1.2,6.2-2.2,8.9-4.1C9.4,146,10,145.7,10.5,145.4z M50.6,86.2
		c0,1.2-0.2,1.3-1.4,1.1c-0.7-0.1-1.5,0-1.8-0.8c-0.4-0.9-0.7-1.7-0.9-2.6c-0.1-0.9,0.1-1.9-0.1-2.8c-0.2-1-0.5-2.1-1-3.1
		c-1.2-2.5-1.8-5.1-2.2-7.8c-0.1-0.5-0.2-0.9-0.3-1.3c-0.6-1.7-0.5-3.5-0.2-5.2c0.2-1.2,1.3-1.9,2.4-1.5c0.4,0.1,0.7,0.5,0.9,0.9
		c0.7,1.7,1.5,3.5,2.2,5.3c0.7,1.8,1.2,3.6,1.3,5.6c0.1,1.4,0.4,2.7,0.6,4.1c0.1,0.6,0.1,1.1,0.2,1.7c0,0.1-0.1,0.1-0.1,0.1
		c-0.4-0.7-0.9-1.4-1.5-1.9c-0.4-0.9-1-1.7-1.9-2.1c-0.2-0.1-0.8-0.1-0.9,0.1c-0.2,0.3,0.2,0.5,0.5,0.7c0.5,0.3,1,0.8,1.3,1.3
		c0.7,1.1,1.3,2.2,2,3.3c0.9,1.3,0.8,2.8,0.9,4.3V86.2z M53.4,96.5c-0.7-1.8-0.9-3.7-1.1-5.5c-0.2-2.3-0.1-4.7-0.3-7
		c-0.1-2.2-0.3-4.3-0.6-6.5c-0.3-2.4-0.9-4.7-1.2-7.1c-0.1-1.4,0-2.9,0-4.3c0-1.9,0-3.8,0.6-5.6c0.4-1.2,0.9-2.3,1.4-3.5
		c1.5-3.3,3-6.7,4.5-10c1.2-2.7,2.6-5.3,4.2-7.7c1.5-2.2,2.8-4.6,4.5-6.6c2-2.3,4.3-4.5,7.6-5c1.4-0.2,2.9-0.2,4.4-0.2
		c1.2,0,2.5,0.1,3.7,0.2c1.6,0.1,2.8,1.1,4.2,1.8c1,0.5,2,1.3,3.1,1.6c2.9,0.7,5.9,1,8.8-0.4c2.2-1,4.5-1.7,6.9-1.8
		c1.4,0,1.4-0.1,2,1.2c0.4,0.9,0.7,1.9,1.1,2.9c0.6,1.8,1.1,3.5,1.9,5.2c0.8,2,1.2,4.1,1.6,6.2c0.3,1.7,0.7,3.4,1,5.1
		c0.5,2.2,0.9,4.5,1.3,6.7c0.2,1.1,0.2,2.2,0.3,3.3v1.1c-0.4-0.1-0.7-0.1-1.1-0.2c-1.3-0.3-2.7-0.4-3.9-0.9
		c-1.6-0.7-3.3-0.5-4.9-0.5c-1.5,0-2.9,0.5-4.1,1.4c-0.8,0.5,0,0.9,0,1.3c1.3-0.5,2.5-1,4-1.2c1.1-0.2,2.2-0.1,3.3-0.1
		c1.9,0,3.6,0.6,5.3,1.5c0.1,0.1,0.2,0.1,0.3,0.1c1.2,0,1.7,0.8,1.9,1.9c0.7,3.2,1.8,6.3,3.1,9.4c0.9,2.3,1.3,4.6,1.3,7.1
		c0.1,3.4-0.4,6.7-0.4,10c0,1.3,0,2.7-0.1,4c-0.2,3.3-1,6.4-2.9,9.2c-1.4,2.1-2.7,4.1-4.1,6c-0.6,1-1.5,1.7-2.3,2.6
		c-0.8,0.8-1.4,1.8-2.2,2.6c-1,1-1.9,2-3,2.9c-1.2,1-2.5,1.9-3.8,2.8c-3.8,2.6-7.7,4.8-12.1,6c-1.1,0.3-2.5,0.3-3.7,0.2
		c-1.6-0.1-3.2-0.3-4.7-0.6c-2.8-0.6-5.2-1.9-7.5-3.6c-2.9-2.2-5.6-4.7-7.8-7.7c-1.2-1.8-2.6-3.4-3.8-5.2c-0.5-0.8-0.9-1.6-1.3-2.4
		c-1-1.7-1.9-3.5-2.9-5.2c-0.4-0.6-0.7-1.2-1-1.9C54.4,98.9,53.9,97.7,53.4,96.5z"/>
	<path class="st0" d="M85.9,108.8c-1.4-0.1-3,0-4.4-0.4c-2.3-0.6-4.6-1.5-6.3-3.4c-0.6-0.7-1.4-1.3-2-2c-0.4-0.5-0.9-1-1.2-1.6
		c-0.7-1.5-1.9-2.5-3.2-3.4c-0.2-0.1-0.3-0.4-0.4-0.6c0.3,0,0.6-0.2,0.8-0.1c2.2,0.9,4.5,1,6.9,0.7c1.8-0.2,3.7-0.5,5.5-0.7
		c0.8-0.1,1.6,0.1,2.3,0.5c0.9,0.5,1.8,0.6,2.8,0.2c1.7-0.7,3.3-0.3,4.9,0c1.6,0.4,3.2,0.7,4.8,1c0.7,0.1,1.5,0.1,2.3,0.2
		c0.3,0,0.6,0.1,0.9,0.2c0.4,0.1,0.5,0.4,0.2,0.7c-1.5,1.7-2.9,3.4-4.5,5c-1.9,1.9-4.2,3-6.9,3.4C87.5,108.8,86.7,108.8,85.9,108.8z
		 M98.3,100.3c-0.1,0.1-0.3,0.1-0.4,0.2c-1.9,1.3-3.9,2.2-6,3.1c-2,0.8-4.1,1.3-6.3,1c-0.7-0.1-1.4-0.1-2.1-0.2
		c-1.6-0.1-3.2-0.5-4.6-1.2c-2.3-1.2-4.6-2.4-6.8-3.6c2.2,4.4,6.4,8.2,13,8.5C91.1,108.4,95.1,105.1,98.3,100.3z M74.9,99
		c2.3,0.6,4.5,1.3,6.7,1.9s4.5,0.6,6.8,0.4c1.2-0.1,6.1-1.3,6.5-1.6c-1.2-0.3-2.4-0.6-3.7-0.8c-1.3-0.3-2.6-0.8-4-0.2
		c-1.3,0.6-2.6,0.6-3.8-0.1c-0.5-0.3-1.1-0.4-1.6-0.4C79.5,98.3,77.3,98.7,74.9,99z M74,99.6c0,0.1-0.1,0.2-0.1,0.3
		c0.9,0.5,1.7,1,2.6,1.4c1.3,0.6,2.6,1.4,4,1.8s2.8,0.6,4.3,0.8c1.2,0.1,2.4,0,3.6-0.1c2.1-0.2,4-1.2,5.9-2.1
		c0.9-0.4,1.7-0.9,2.5-1.4c-0.1-0.1-0.2-0.2-0.3-0.1c-2.8,0.6-5.4,1.7-8.2,1.8c-1.8,0.1-3.7,0.1-5.5-0.1c-2.1-0.3-4.1-0.9-6.1-1.7
		C75.8,99.9,74.9,99.8,74,99.6z"/>
	<path class="st0" d="M103.7,73.4c-2,0.1-4.1-0.6-6.2-1.1c-0.7-0.2-1.5-0.2-2.2-0.4c-0.3-0.1-0.7-0.2-0.7-0.3c0-0.3,0.1-0.7,0.3-0.8
		c0.9-0.7,1.7-1.5,2.7-2c1.6-0.8,3.3-1.4,5.1-1.9c1-0.2,2.1-0.1,3.1,0.2c2.5,0.5,4.7,1.6,6.7,3.2c0.1,0.1,0.3,0.4,0.2,0.5
		c-0.2,0.2-0.4,0.5-0.7,0.6c-0.9,0.3-1.8,0.4-2.7,0.6c-0.8,0.2-1.6,0.5-2.3,0.8C105.5,73.4,105.4,73.4,103.7,73.4z M110.3,70.3
		c0-0.1,0-0.1,0-0.2c-1.4-0.6-2.7-1.2-4.2-1.8c0.4,1.6,0.5,1.7-0.3,3.7C107.4,71.5,108.9,70.9,110.3,70.3z M100,68.8
		c-1.4,0.5-2.7,1.1-3.7,2c0,0.1,0.1,0.1,0.1,0.2c1.2,0.3,2.5,0.6,3.8,0.9C99.4,70.9,99.6,69.9,100,68.8z M102.9,68.8
		c-0.6,0-1,0.2-0.9,0.6c0,0.2,0.5,0.6,0.5,0.6c0.3-0.1,0.6-0.4,0.8-0.7C103.4,69.2,103,68.9,102.9,68.8z"/>
	<path class="st0" d="M71.4,71.8c-2.8,0.2-5.1-1.2-7.3-2.6c-0.7-0.4-1.5-0.6-2.2-1c-0.3-0.1-0.5-0.4-0.7-0.6
		c0.2-0.2,0.5-0.4,0.7-0.5c1.5-0.3,3-0.4,4.4-1.1c2.3-1.1,4.6-1.4,7.1-0.5c2.2,0.8,4.1,2.1,5.7,3.8c0.3,0.3,0.6,0.5,0.8,0.8
		c0.1,0.2,0.2,0.5,0.2,0.6c-0.1,0.2-0.4,0.4-0.7,0.4c-1,0.1-2,0.1-3.1,0.1C74.7,71.4,73,71.6,71.4,71.8z M68.1,66.7
		c-1.2,0.3-2.5,0.7-4,1.1c1.5,1,2.7,2.2,4.3,2.4C68.3,69.1,68.2,68,68.1,66.7z M78.2,70.1c0,0,0-0.1,0-0.2c-1.1-0.9-2.1-1.7-3.2-2.5
		c-0.1,0-0.5,0.2-0.5,0.3c-0.2,0.9-0.4,1.8-0.6,2.7C75.2,70.3,76.7,70.2,78.2,70.1z M71.2,66.4c-0.3,0.4-0.6,0.7-0.6,0.9
		c0,0.3,0.4,0.5,0.6,0.7c0.2-0.2,0.5-0.4,0.6-0.7C71.8,67,71.4,66.8,71.2,66.4z"/>
	<path class="st0" d="M68.8,56.9c3-0.2,5.7,0.5,8.2,1.8c0.4,0.2,0.7,0.5,1,0.8c0.5,0.6,0,1.4-0.7,1.4c-0.6,0-1.2-0.1-1.7-0.4
		c-1.7-1.1-3.5-1.7-5.5-1.9c-2.2-0.3-4.5-0.3-6.6,0.4c-0.9,0.3-1.8,0.8-2.7,1.1c-0.4,0.1-0.8,0.3-1.2,0.2c-0.2,0-0.6-0.4-0.6-0.7
		s0.3-0.6,0.5-0.8c0.6-0.3,1.2-0.4,1.8-0.6C63.7,57.1,66.3,56.7,68.8,56.9z"/>
	<path class="st0" d="M85.6,93.6c-1.2,0-2.1-0.5-2.8-1.3c-1.3-1.5-3-2.1-4.9-2.2c-2.1-0.1-3.3-2-2.6-3.9c0.3-0.8,0.9-1.5,1.4-2.3
		c0.1-0.2,0.5-0.2,0.7-0.3c-0.1,0.3-0.1,0.6-0.3,0.8c-0.7,0.7-1.1,1.5-1.2,2.5c-0.1,1.4,0.5,2.2,2,2.3c1.9,0.2,3.8,0.7,5.2,2.2
		c1.4,1.6,3.1,1.7,4.7,0.4c0.7-0.6,1.5-1.1,2.3-1.5c0.7-0.3,1.6-0.5,2.4-0.5c1.7,0,2.6-1.3,2.2-3c-0.3-1.2-1-2.2-1.8-3.2
		c-0.2-0.2-0.2-0.5-0.2-0.8c0.3,0.1,0.6,0.1,0.8,0.3c1.2,1.4,2.2,2.8,2.1,4.7c-0.1,1.1-0.6,2-1.7,2.4c-0.4,0.1-0.9,0.3-1.3,0.3
		c-1.5-0.1-2.6,0.6-3.7,1.4c-0.5,0.4-1,0.8-1.5,1C86.8,93.4,86.2,93.4,85.6,93.6z"/>
</g>
</svg>
