<?xml version="1.0" encoding="utf-8"?>
<!-- Generator: Adobe Illustrator 19.2.1, SVG Export Plug-In . SVG Version: 6.00 Build 0)  -->
<svg version="1.1" id="Layer_1" xmlns="http://www.w3.org/2000/svg" xmlns:xlink="http://www.w3.org/1999/xlink" x="0px" y="0px"
	 viewBox="0 0 200 197.1" style="enable-background:new 0 0 200 197.1;" xml:space="preserve">
<style type="text/css">
	.st0{fill:#E91E63;}
</style>
<g id="pharm-amy-red">
	<path class="st0" d="M0,163.5c3.1-2,6.5-3.6,9.8-5.2c2.6-1.2,5.3-1.9,8-2.6c0.5-0.1,0.9-0.3,1.4-0.5c3.6-1.3,7.2-2.7,10.9-4
		c1.7-0.6,3.4-0.8,5.2-1.1c1.4-0.2,2.8-0.3,4.2-0.5c1.6-0.3,3.1-1.2,4.3-2.3c1.2-1.1,2.4-2.1,3.7-3.2c1-0.9,0.9-2,0.7-3.1
		c-0.2-0.9-0.5-1.7-0.8-2.6c-0.5-1.6-1.1-3.2-1.4-4.8c-0.3-1.6-1-2.9-1.5-4.4c-1.3-3.3-2.5-6.6-3.7-10c-0.7-2.1-1.2-4.3-1.8-6.5
		c-0.3-1.2-0.8-2.3-1-3.4c-0.2-1.4-0.7-2.7-1.5-3.9c-1.2-1.9-1.5-4.2-1.6-6.4c-0.1-1.4,0.1-2.8,0-4.2c-0.1-1.4-0.3-2.7-0.5-4.1
		c-0.1-0.9-0.2-1.8-0.3-2.6c-0.3-2.1-0.6-4.2-1.1-6.3c-0.7-3.1-1.6-6.1-2.2-9.1c-1-5.1-2-10.3-1.6-15.6c0.1-1.9,0.1-3.8,0.6-5.7
		c0.5-1.8,0.5-3.7,0.9-5.5c0.7-2.7,1.6-5.3,2.5-8c0.2-0.7,0.6-1.3,0.9-1.9c1.3-2.5,2.6-5,3.9-7.5c1.1-2,2.2-4.1,3.6-5.8
		c2.7-3.3,5.6-6.5,9.2-8.8c2.2-1.5,4.5-2.8,6.9-4.1c1.8-0.9,3.7-1.5,5.5-2.3c0.4-0.2,0.9-0.4,1.2-0.7c0.9-0.8,2-1.2,3.1-1.6
		c0.9-0.3,1.8-0.9,2.7-1.3C72,3,73.8,2,75.6,1.4c1.7-0.6,3.4-1.1,5.2-1.3c2.3-0.2,4.6,0,6.9,0.1c1.6,0.1,3.1,0.4,4.7,0.6
		c0.7,0.1,1.4,0.3,2,0.5c1.9,0.7,3.9,1.4,5.6,2.5c1.2,0.7,2.6,1.1,3.9,1.6c0.7,0.3,1.4,0.6,2,0.9c1.2,0.5,2.5,1.1,3.7,1.7
		c2.4,1.1,4.8,2.3,6.7,4.2c2,2.1,3.8,4.4,5.6,6.7c1.3,1.6,2.3,3.5,3.6,5.1c2.3,2.8,4,6,5.4,9.4c0.6,1.6,1.7,3,2.5,4.5
		c0.6,1.2,1.1,2.4,1.6,3.6c0.6,1.5,1.3,3.1,1.8,4.7c0.9,2.9,1.6,5.8,2.4,8.7c0.6,2.2,1.5,4.2,2,6.4c0.7,3.1,1.2,6.2,1.8,9.4
		c0.4,2.1,0.7,4.1,1,6.2c0.1,0.9,0.2,1.9,0.3,2.8c0.1,2.5-0.1,5,0.2,7.4c0.4,3.4,0.4,6.9,1,10.3c0.5,2.4,0.4,5,0.6,7.4
		c0.2,2.1,0.5,4.1,0.7,6.1c0.1,1.1,0.2,2.2,0.3,3.3c0.2,1.6,0.5,3.3,0.7,4.9c0.3,2.3,0.6,4.7,1,7c0.3,2.1,0.8,4.1,1.2,6.1
		c0.4,1.7,1,3.4,1.3,5.2c0.4,2,0.5,4,0.8,6c0.4,1.9,0.9,3.8,1.4,5.7c0.2,0.6,0.7,1.1,1,1.6c0.1,0.1,0.4,0.2,0.6,0.2
		c1.1-0.1,2.3-0.2,3.4-0.4c3.9-0.8,7.5-0.3,10.7,2.1c2,1.5,4.1,2.7,6.6,3.1c2.5,0.4,5,1.3,7.5,1.8c1.9,0.5,4,0.7,5.8,1.3
		c1.9,0.7,3.7,1.8,5.6,2.7c1.3,0.6,2.6,1.2,4,1.5c0.9,0.2,1.2,0.6,1,1.4c0,0.1,0,0.3,0,0.5c-2.3-0.7-4.7-1-6.6-2.6
		c-0.2-0.2-0.5-0.2-0.7-0.4c-3-1.5-6.1-2.5-9.5-2.8c-0.2,0-0.4-0.1-0.6-0.2c-2.7-0.7-5.4-1.2-8.1-2c-1.7-0.5-3.4-1.1-4.8-2.3
		c-1.7-1.3-3.6-2.6-5.8-2.9c-1.4-0.2-2.8-0.1-4.2,0.1c-1.8,0.3-3.5,0.7-5.3,0.6c-1.1-0.1-1.2,0-0.9,1.1c0.4,1.7,0.8,3.3,1.2,5
		c0.2,0.9,0.7,1.7,1,2.5c1.4,4.7,2.7,9.5,4,14.2c0.6,2.1,1,4.2,1.4,6.3c0.9,4.7,1.7,9.4,2.6,14c0.1,0.3,0.3,0.6,0.5,1
		c-1.6,0-3.3,0.3-4.8-0.1c-1.3-0.4-2.5-1.4-3.5-2.3c-2.1-1.9-3.4-4.5-4.9-6.9c-1.4-2.2-3.1-4.3-5.9-5c-0.6-0.2-1.3-0.2-2-0.1
		c-0.2,0-0.5,0.5-0.5,0.8c0,0.8,0.1,1.5,0.2,2.3c0.2,1.3,0.6,2.6,0.5,3.8c-0.1,2.2-1,4.1-3.1,5.3c-0.8,0.5-1.5,1.1-2.1,1.7
		c-0.4,0.4-0.7,0.6-1.3,0.6c-0.6,0-1.3,0-2,0c0.3-1.4,0.7-2.6,0.8-4c0.2-2.4,0.3-4.9,0.3-7.3c0.1-5,0.1-10,0.2-15
		c0-3.6-0.1-7.1-0.7-10.7c-0.4-2.2-0.4-4.5-0.8-6.7c-0.8-4.1-2.1-8-4-11.8c-1.2-2.4-2.3-4.9-2.8-7.6c-0.5-2.6-1.2-5.1-1.8-7.7
		c-1-3.7-1.2-7.5-1.2-11.4c0-3.4,0.5-6.7,0.7-10c0-0.2,0.1-0.4,0-0.5c-0.2-0.3-0.4-0.5-0.6-0.8c-0.2,0.2-0.5,0.4-0.6,0.6
		c-0.5,1.9-1,3.9-1.5,5.9c-0.4,1.3-0.8,2.7-1.2,4c-0.2,0.6-0.6,1.1-0.7,1.8c-0.4,1.8-1.7,3.1-3,4.3c-1.7,1.5-3.4,2.9-5.1,4.4
		c-0.7,0.6-1.2,1.4-1.8,2c-2.9,2.9-6.4,4.8-9.6,7.2c-3.6,2.6-7.6,4.3-11.5,6.3c-0.4,0.2-1,0.3-1.5,0.3c-3.1,0.1-6.1,0.1-9.1-0.9
		c-1.8-0.6-3.5-1.5-5.2-2.4c-1-0.5-2-1.1-3.3-1.8c0.2,1.6,0.3,3,0.5,4.5c0.3,2.1,0.9,4.2,1,6.4c0.2,3.5,1.6,6.8,2.1,10.3
		c0.2,1,0.1,2.1,0.4,3.1c0.5,1.8,1,3.5,1.6,5.3c1,3,2.3,5.9,3.1,9c0.9,3.4,2.4,6.6,5,9.1c0.6,0.6,1,1.5,1.3,2.3
		c0.7,1.7,1.8,3,3.4,3.9c1.7,0.9,3.4,1.6,5.1,2.6c1.5,0.9,3.3,1.5,4.2,3.3c0.4,0.7,1.1,1.3,1.7,2c-1.4,0.3-2.4,0.2-3-1.1
		c-0.8-1.6-2.4-2-3.7-2.8c-2-1.2-4.1-2.2-6.1-3.4c-1.4-0.8-2.2-2.1-2.7-3.5c-0.6-1.5-1.6-2.6-2.8-3.8c0.2,2,0.4,3.9,0.6,5.7
		c0,0.2,0.1,0.3,0.2,0.5c1.2,1.8,2.3,3.6,3.5,5.3c0.5,0.7,1.3,1.3,2,1.9c0.4,0.4,0.8,0.8,1.3,1.2c-2.5,0.7-3.7-0.9-4.8-2.5
		c-0.8-1.1-1.4-2.3-2.1-3.4c-0.4-0.6-0.9-1.2-1.4-1.7c-0.3-0.3-1-0.4-1.3-0.3c-2.1,1-4.2,1.7-6.4,2.3c-2.4,0.5-4.6,1.4-7,2
		c-2.5,0.7-5.1,1.3-7.6,1.8c-1.6,0.3-3.2,0.3-4.9,0.5c-2,0.3-4.1,0.7-6.1,1c-1.2,0.2-2.3,0.3-3.6,0.5c-0.3-2.4-0.3-4.6-0.1-6.8
		c0.1-1.4,0.2-2.8,0.4-4.1c0.2-1.6,0.4-3.3,0.6-4.9c0-0.2,0.1-0.5,0-0.7c-0.2-3.4,0.3-6.8,0.7-10.2c0-0.2,0.1-0.3,0.1-0.5
		c0.2-4.2,0.5-8.4,0.7-12.6c0.1-1.8,0-3.6,0-5.5c-1.5,0-3,0-4.5,0c-0.7,0-1.5,0-2.2-0.3c-1.3-0.5-2.5-0.1-3.8,0.2
		c-2.1,0.5-4.3,0.9-6.3,1.5c-2.5,0.8-5.1,1.6-7.5,2.6c-2.3,1-4.7,1.8-7.2,2.3c-0.8,0.2-1.6,0.5-2.3,0.8c-3.9,1.7-7.7,3.5-11.3,5.7
		c-0.4,0.3-0.8,0.6-1.3,0.9C0,164.8,0,164.1,0,163.5z M125.1,87.2c0.2-0.1,0.3-0.1,0.4-0.1c2.2-1.5,3.4-3.5,3.7-6.1
		c0.1-1.3-0.4-2.7,0.1-4c0-0.1,0-0.3-0.1-0.4c-1-1.5-1.8-3-4-3.2c-1.9-0.1-3.8-0.7-5-2.4c-1.7-2.3-3.2-4.6-4.8-6.9
		c-0.4-0.6-0.7-1.3-1.2-1.8c-1.5-1.6-3.2-3-4.7-4.6c-1.6-1.6-3.1-3.3-4.5-5c-1.4-1.6-2.7-3.3-4.2-4.9c-0.9-1-2-1.8-3-2.8
		c-1.5-1.6-2.9-3.2-4.4-4.8c-1.2-1.3-2.5-2.4-4.1-3.1c-1.5-0.7-3-1.5-4.5-2.2c-0.6-0.3-1.2-0.9-1.8-1.1c-1.7-0.7-3.3-1.4-5.1-1.8
		c-3-0.7-5.9-1.4-9-1.2c-1.4,0.1-2.8,0.1-4.1,0.3c-1.1,0.2-1.2,0.3-1.8-0.7c-0.2-0.4-0.5-0.8-0.5-1.3c-0.2-1.7-0.5-3.5-0.5-5.3
		c0-1.5,0.3-3,0.6-4.5c0.5-2.3,1.2-4.6,2.5-6.6c0.2-0.3,0.2-0.9,0-1.1c-0.3-0.2-0.9-0.3-1.2-0.1c-0.4,0.2-0.7,0.6-0.9,1
		c-0.5,1-0.8,2.1-1.3,3.1c-1.1,2.6-1.5,5.4-1.8,8.1c-0.3,2.6,0.1,5.3,0.2,8c0,0.7,0,1.3-0.6,1.7c-1.5,0.9-3.1,1.8-4.6,2.8
		c-1.1,0.7-2.3,1.4-3.4,2.2c-0.8,0.6-1.5,1.4-2.3,2.1c-2,1.6-3.5,3.5-3.9,6.1c-0.1,0.7-0.1,1.5-0.1,2.2c0,4.1,0,8.2,0.8,12.3
		c0.4,2.2,0.5,4.4,0.7,6.6c0,0,0.2,0,0.3,0c1.5-0.3,2.9-0.7,4.4-0.9c1.9-0.3,3.8-0.4,5.7-0.5c0.5,0,1,0,1.5,0.2
		c1.5,0.4,3.1,0.6,4.4,1.6c0.2,0.2,0.3,0.6,0.4,0.9c-0.3,0.1-0.6,0.4-0.9,0.4c-1-0.1-1.9-0.4-2.9-0.5c-2.4-0.1-4.8-0.3-7.2-0.1
		c-1.3,0.1-2.7,0.5-3.9,1.1c-1,0.6-2,1.5-1.9,3c0.1,1.6,0.6,3.1,1.3,4.5c0.1,0.1,0.4,0.3,0.5,0.3c0.7-0.2,1.3-0.5,1.9-0.8
		c1.2-0.7,2.4-1.6,3.7-2.3c1.6-0.9,3.3-1.6,5.2-1.7c2.7,0,5.1,1.1,7.3,2.5c1.5,1,1.9,1.3-0.1,2.5c-0.9,0.6-2.1,0.8-3.2,1.1
		c-1.7,0.4-3.4,0.9-5.1,1.1c-2.1,0.3-4-0.5-6-1c-1.3-0.3-2.7-0.9-3.8,0.1c0.1,1.7,0.2,3.5,0.2,5.2c0,0.9-0.1,1.9,0,2.8
		c0.1,2.7,0.3,5.5,0.3,8.2c0,3.4,0.9,6.5,2.4,9.5c0.9,1.8,1.9,3.6,2.7,5.4c0.6,1.3,1,2.7,1.6,4c1.5,3.1,3.2,6,5.3,8.7
		c2.2,2.8,4.7,5.4,7.1,8c2,2.1,4.3,3.9,6.9,5.1c1.7,0.7,3.3,1.7,5,2.2c2.8,0.9,5.7,0.7,8.6,0.7c0.3,0,0.6-0.1,0.9-0.2
		c4.5-2.2,9-4.3,13.1-7.3c2.6-1.9,5.4-3.5,7.7-5.9c0.6-0.6,1.1-1.4,1.8-2c1.7-1.5,3.5-3,5.2-4.6c0.7-0.7,1.6-1.4,1.9-2.3
		c1.2-2.7,2-5.5,2.7-8.3c0.6-2.1,0.9-4.3,2.1-6.2c0.7-1.1,0.9-2.3,0.8-3.6c-0.2-2.4-0.5-4.9-0.7-7.3c-0.2-2.6-0.3-5.2,0.2-7.8
		c0.9-0.1,1.1,0.2,1,1.1C125.2,85.3,125.2,86.2,125.1,87.2z M45.4,195.5c0.4-0.1,0.7-0.1,0.9-0.2c2.2-0.4,4.3-0.9,6.5-1.2
		c1.7-0.3,3.4-0.2,5.1-0.6c3.6-0.8,7.1-1.7,10.6-2.6c1.9-0.5,3.9-1,5.8-1.5c1.3-0.3,2.5-0.7,3.6-1.6c0.7-0.6,1.5-1.6,2.7-0.6
		c-0.1-1-0.2-1.8-0.3-2.5c-0.3-2.9-0.7-5.7-1.8-8.4c-0.4-1-0.6-2.1-0.9-3.1c-0.4-1.3-0.7-2.6-1.2-3.9c-0.7-1.8-1.4-3.6-2.1-5.4
		c-0.4-1.1-0.8-2.2-1-3.3c-0.3-1.4-0.3-2.9-0.6-4.3c-0.8-3.8-2-7.5-2.4-11.5c-0.2-2.4-0.8-4.9-1.2-7.3c-0.1-0.3-0.3-0.6-0.5-0.9
		c-0.3,0.3-0.7,0.5-0.8,0.9c-0.3,0.5-0.3,1.2-0.6,1.7c-1.5,1.9-2.5,4.3-5,5.3c-0.2,0.1-0.3,0.2-0.5,0.3c-3.5,2.3-7.2,4.2-11.2,5.5
		c-1.7,0.6-2.1,1-2.1,2.9c-0.1,1.6-0.2,3.1-0.3,4.7c-0.2,3-0.3,6-0.5,8.9c-0.1,1.7-0.2,3.3-0.3,5c-0.1,1.7-0.4,3.3-0.5,5
		c-0.1,1.9-0.2,3.9-0.4,5.8c-0.3,3-0.6,5.9-0.9,8.9C45.3,192.8,45.4,194.1,45.4,195.5z M131.2,138.1c-0.1,0-0.1,0.1-0.2,0.1
		c0.3,0.8,0.6,1.7,1,2.5c0.8,1.9,1.8,3.8,2.6,5.7c0.4,1,0.5,2.1,0.8,3.1c1,2.9,1.5,6,1.6,9.1c0,0.4,0,0.7,0.1,1.1
		c0.2,1.9,0.4,3.7,0.6,5.6c0.1,1-0.1,2.1,0.2,3c0.5,1.5,1.2,3,1.9,4.5c0.3,0.7,0.6,1.3,0.9,2c0.5,1.1,1,2.2,1.5,3.3
		c0.5,0.9,1.1,1.7,1.8,2.7c1.3,0,2.7,0.6,3.9,1.4c2,1.3,3.4,3.1,4.6,5c1.7,2.8,3.2,5.7,6.1,7.6c1,0.6,2,1.1,3.3,1.2
		c-0.5-3-0.9-5.8-1.4-8.7c-0.6-3.1-1.2-6.3-2-9.3c-1.2-4.7-2.4-9.3-3.8-13.9c-0.9-3-2.2-5.9-2.7-9c-0.3-2.2-1.3-3.8-3.4-4.7
		c-1.3-0.6-2.6-1.3-3.8-2.2c-1.8-1.3-3.4-2.7-5.2-4c-2.1-1.6-4.1-3.1-6.2-4.6C132.8,139.1,132,138.6,131.2,138.1z M125.5,95.5
		c1.2-0.2,2.3-0.4,3.3-0.4c1.9-0.1,3.1-1.4,3.8-2.9c0.6-1.2,0.5-2.7,0.2-4.1c-0.4-2.1-0.8-4.2-1.3-6.2c-0.1-0.4-0.6-0.7-0.9-1.1
		c-0.3,0.3-0.6,0.6-0.8,1c-0.1,0.2,0,0.5-0.1,0.8c0,0.5,0.1,1.1-0.2,1.4c-0.9,1.3-1.9,2.6-3.1,3.7c-0.9,0.8-1.6,1.5-1.5,2.8
		C125.3,92.3,125.4,93.9,125.5,95.5z M138,172.9c-0.1,0-0.1,0-0.2,0.1c0,0.8,0,1.5,0,2.3c0,1.3-0.1,2.6-0.2,3.9
		c-0.1,2.1-0.1,4.1-0.1,6.2c0,2.1-0.1,4.2-0.2,6.3c0,1.1-0.2,2.3-0.3,3.3c0.9-0.6,1.9-1.2,2.8-1.9c0.4-0.3,0.8-0.8,1.1-1.3
		c1.1-1.8,0.7-3.7,0.2-5.6c-0.5-1.9-0.6-3.7,0.3-5.5c0.1-0.3,0.1-0.8-0.1-1c-1.2-1.4-1.8-3-2.4-4.7
		C138.7,174.2,138.3,173.6,138,172.9z M56.8,79.1c-0.3-1.3-0.7-2.7-1.1-4.1c-1.2,0.8-2.5,1.7-4,2.7C53.6,78.5,55.1,79.2,56.8,79.1z
		 M62.1,78c1.2,0.4,3.6-0.4,4.3-1.4c-0.7-0.9-3.6-2.3-4.7-2.2C62.4,75.6,62.9,76.8,62.1,78z M59.1,74.5c-0.4,0.5-0.9,0.9-0.9,1.2
		c0,0.3,0.5,0.8,0.8,0.9c0.5,0.1,1-0.3,0.9-0.9C59.9,75.4,59.5,75,59.1,74.5z"/>
	<path class="st0" d="M76.4,122.7c-3.3,0.1-5.5-1.6-7.2-4.2c-1.6-2.7-3.1-5.5-4.7-8.2c-0.3-0.5-0.7-1-1.1-1.5
		c-0.3-0.4-0.3-0.9,0.2-1c1.9-0.4,3.8-0.7,5.7-1c1.6-0.3,3.3-0.5,4.9-0.7c0.9-0.1,1.9-0.4,2.7,0.5c0.1,0.1,0.6,0.2,0.7,0
		c1.8-1.4,3.9-1.1,5.9-1.3c2.8-0.3,5.6-0.5,8.4-0.8c1.8-0.2,3.5-0.2,5.3,0.2c0.4,0.1,0.9,0.1,1.3,0.1c0.6,0.1,0.8,0.3,0.6,1
		c-0.8,2.3-2.2,4.4-3.5,6.4c-2.1,3.4-5.1,6-8.6,8c-1,0.6-2.2,0.9-3.4,1.2c-1.5,0.4-3,0.7-4.5,0.9C78.2,122.5,77.3,122.6,76.4,122.7z
		 M97.2,106.3c-0.4,0-0.5-0.1-0.7,0c-1.3,0.2-2.7,0.3-4,0.5c-2.5,0.4-4.9,0.7-7.4,1.3c-3.3,0.8-6.7,1.3-10.1,1.5
		c-2,0.1-4,0.2-5.9,0.3c-0.2,0-0.5,0.1-0.5,0.2c-0.1,0.1,0.1,0.4,0.2,0.6c0.1,0.1,0.2,0.2,0.3,0.3c0.6,1.4,1.5,2.5,2.9,3.3
		c1.9,1.1,3.8,1.8,6,1.7c1.4-0.1,2.8-0.2,4.2-0.3c1.9-0.2,3.7-0.9,5.3-1.8c1.7-1,3.3-2.2,5.1-3.1C94.4,109.8,95.7,108.1,97.2,106.3z
		 M98,106.9c-0.1,0-0.1-0.1-0.2-0.1c-0.7,0.9-1.4,1.8-2.2,2.6c-3.4,3.3-7.5,5.2-11.9,6.8c-1.3,0.4-2.7,0.5-4.1,0.6
		c-1.2,0.1-2.5,0.2-3.7,0c-1.3-0.2-2.5-0.7-3.7-1.2c-0.9-0.4-1.8-0.8-2.5-1.5c-0.6-0.6-1-1.5-1.4-2.3c-0.7-1.3-2-1.7-3.4-2.4
		c0.2,0.5,0.2,0.8,0.3,1.1c0.2,0.4,0.5,0.7,0.7,1.1c1.3,2.1,2.5,4.3,3.8,6.4c1.8,3.1,4.5,4.6,8.1,4c2.3-0.4,4.6-1,6.9-1.6
		c0.6-0.2,1.4-0.2,1.9-0.6c1.5-0.9,3-1.9,4.3-3c2.4-2,4.1-4.6,5.7-7.3C97.1,108.7,97.5,107.8,98,106.9z M96.8,105.5c0,0,0-0.1,0-0.1
		c-0.3-0.1-0.5-0.2-0.8-0.2c-1.6,0-3.2-0.1-4.8,0c-2.9,0.2-5.9,0.5-8.8,0.8c-1.5,0.1-3.1,0.1-4.4,1.1c-0.6,0.4-1.2,0.3-1.8-0.2
		c-0.2-0.2-0.6-0.4-0.9-0.3c-2.9,0.4-5.7,0.8-8.5,1.3c-0.7,0.1-1.4,0.3-2.1,0.5c1.3,0.9,2.6,1.2,4.1,1c1.6-0.2,3.3-0.3,5-0.4
		c1.5-0.1,3.1,0,4.6-0.2c3.4-0.5,6.7-1.3,10-1.9c1.8-0.3,3.6-0.6,5.4-0.9C94.8,105.8,95.8,105.6,96.8,105.5z"/>
	<path class="st0" d="M98.1,58.6c2.4-0.4,4.5,0.7,6.6,1.5c0.8,0.3,1.7,0.6,2.6,0.9c0.5,0.2,0.8,0.4,0.7,1c-0.1,0.6-0.4,0.8-1,0.5
		c-2.8-1.1-5.6-1.9-8.6-1.9c-4,0.1-7.4,1.6-10.8,3.4c-1.4,0.7-3.1,1-4.6,1.3c-0.6,0.1-1.4,0.1-2,0c-0.7-0.1-0.9-0.7-0.4-1.2
		c0.5-0.5,1.1-1,1.7-1.4c2.3-1.6,5-2.2,7.6-2.8c1.8-0.4,3.5-0.9,5.3-1.2C96.1,58.6,97.1,58.6,98.1,58.6z"/>
	<path class="st0" d="M103.1,70.8c-1.4,1.8-3.2,2.7-5.3,3.1c-3.8,0.6-7.5,0-11.3,0c-0.5,0-1,0-1.6,0c-0.2,0-0.5,0-0.5-0.1
		c-0.1-0.2-0.1-0.6,0.1-0.7c1.8-1.6,3.2-3.6,5.4-4.6c2.1-0.9,4.2-1.1,6.5-0.8c2.4,0.3,4.3,1.6,6.3,2.6
		C102.8,70.4,102.9,70.6,103.1,70.8z M96.9,68.8c0.2,1.6,1,3.1-0.5,4.3c1.9-0.3,3.7-0.5,5.2-2.2C100.1,70.2,98.6,69.5,96.9,68.8z
		 M85.9,72.8c1.9,0.1,3.7,0.2,5.7,0.4c-1-1.3-1.2-2.5-0.8-3.9C88.9,70.2,87.4,71.3,85.9,72.8z M95.1,70.2c-0.4-0.3-0.7-0.6-0.9-0.5
		c-0.2,0-0.6,0.4-0.6,0.5c0.1,0.3,0.4,0.5,0.6,0.7C94.5,70.8,94.7,70.6,95.1,70.2z"/>
	<path class="st0" d="M64.7,96.6c0.2-1,0.4-2.1,0.7-3.1c0.3-1.3,0.5-2.6,0.7-4c0-0.2-0.1-0.4,0-0.6c0.1-0.2,0.2-0.5,0.4-0.7
		c0.2,0.2,0.7,0.4,0.7,0.6c0,0.6-0.1,1.3-0.2,1.9c-0.3,2.1-0.7,4.2-1,6.3c-0.1,0.6,0.3,1,0.8,1.1c2.1,0.7,4.1,1.3,6.2,2.1
		c1.3,0.5,3.3,0.3,4.1-1.1c0.3-0.5,0.8-1,1.2-1.5c1-1.2,2.3-1.5,3.7-1.8c0.6-0.1,1.3-0.1,2-0.2c1.4-0.1,2.6-1.6,2.5-3
		c-0.1-0.7-1.1-1.8-1.9-2c-0.4-0.1-0.8-0.1-0.6-0.5c0.1-0.3,0.6-0.5,0.9-0.5c1.1,0.1,2.6,1.9,2.6,3.1c0,2.1-1.5,3.7-3.6,3.9
		c-1.2,0.1-2.4,0.2-3.5,0.7c-0.8,0.4-1.6,1.2-2.2,1.9c-1.5,2.1-3.6,2.7-6,1.7c-1.9-0.7-3.9-1.3-5.8-2C65.1,98.8,64.8,98.4,64.7,96.6
		z"/>
</g>
</svg>
