<?xml version="1.0" encoding="utf-8"?>
<!-- Generator: Adobe Illustrator 19.2.1, SVG Export Plug-In . SVG Version: 6.00 Build 0)  -->
<svg version="1.1" id="Layer_1" xmlns="http://www.w3.org/2000/svg" xmlns:xlink="http://www.w3.org/1999/xlink" x="0px" y="0px"
	 viewBox="0 0 149.7 200" style="enable-background:new 0 0 149.7 200;" xml:space="preserve">
<style type="text/css">
	.st0{fill:#E91E63;}
</style>
<g id="pharm-karen-red">
	<path class="st0" d="M0,144.7c0.7-0.2,1.4-0.3,2-0.6c2-0.8,4.1-1.2,6.3-1.6c1.1-0.2,2.2-0.7,3.3-0.9c3.5-0.8,7-1.5,10.5-2.2
		c2.2-0.5,4.5-0.9,6.7-1.3c1.2-0.2,2.5-0.3,3.7-0.5c1.4-0.3,2.8-0.7,4.2-1c0.3-0.1,0.5-0.1,0.8-0.1c1.3,0,2.1-1,3-1.8
		c1.9-1.8,3.7-3.6,5.5-5.4c1.2-1.3,1.3-1.1,0-2.2c-1.4-1.4-3-2.5-4.5-3.8c-0.9-0.8-1.8-1.8-2.6-2.7c-0.4-0.4-0.7-0.9-1.1-1.3
		c-0.9-0.9-1.4-1.9-1.9-3.1c-0.5-1.4-1.1-2.7-1.5-4.1c-0.7-2.1-1.3-4.3-1.8-6.5c-0.9-3.5-1.8-7-2.7-10.5c-0.5-1.7-0.6-3.4-0.8-5.1
		c-0.3-2.6-0.3-5.2-0.3-7.8c0-0.6,0.1-1.1,0.1-1.7c0-0.4-0.2-0.8-0.2-1.2c-0.2-1.6-1-2.9-1.8-4.3c-0.4-0.6-0.8-1.3-1-1.9
		c-0.6-1.6-1.6-2.8-2.6-4.1c-0.3-0.3-0.5-0.7-0.7-1.1c-1.2-3.3-2.3-6.7-2.9-10.2c-0.2-1.3-0.1-2.7-0.2-4.1c-0.1-3.1,0.5-6.2,1.4-9.1
		c0.4-1.2,0.4-2.4,0.7-3.6c0.3-1.4,0.7-2.8,1.2-4.2c1.1-3.3,2.5-6.6,4.5-9.5c0.9-1.4,1.9-2.7,3-3.9c1.6-1.7,3.3-3.3,5-5
		c1.5-1.5,3-3,4.5-4.5c1.4-1.4,3-2.7,4.8-3.6c1.6-0.8,3.2-1.7,4.9-2.4c1.2-0.5,2.6-1,3.9-1.2c1.2-0.2,2.6-0.1,3.8,0.1
		c1.3,0.2,2.4,0.2,3.3-0.8c1.1-1.1,2.5-1.8,3.8-2.6c0.5-0.3,0.9-0.7,1.4-1c1.9-1.4,4.1-2.1,6.5-2.1c1.5,0,3,0,4.5,0
		c2-0.1,4,0.1,6,0.7c2.3,0.6,4.5,1.1,6.8,1.6c2,0.4,3.7,1.3,5.4,2.3C95.5,5.1,96.3,6,97,6.8c1.3,1.6,2.5,3.4,3.9,4.9
		c2,2.2,4.1,4.3,6.6,5.9c0.4,0.3,0.8,0.6,1.2,0.9c0.8,0.7,1.6,1.4,2.6,1.9c0.5,0.2,0.8,0.7,1.1,1.1c0.3,0.4,0.6,0.8,1.1,0.9
		c0.1,0,0.2,0.1,0.2,0.1c1.3,1.4,2.6,2.8,3.8,4.3c1.6,2.2,2.5,4.7,3.4,7.3c0.5,1.7,1.3,3.4,1.7,5.1c0.5,2.2,1,4.4,1.1,6.7
		c0,3.3,0.2,6.6,0.2,9.9c0,2.2-0.1,4.4-0.1,6.6c0,0.3-0.1,0.6-0.2,1c-0.3,1.2-0.6,2.3-0.8,3.5c-0.2,1-0.2,2-0.4,3
		c-0.2,1.6-0.4,3.2-0.6,4.7c-0.1,0.9-0.2,1.9-0.3,2.8c-0.1,1.1-0.4,2-1,3c-0.6,1-1,2.1-1.5,3.2c-1.1,2.6-3.1,4.5-5.2,6.2
		c-0.8,0.6-1.9,0.9-2.8,1.4c-0.2,0.1-0.6,0.4-0.6,0.6c-0.2,1.3-0.2,2.5-0.3,3.8c0,0.1,0,0.2,0.1,0.2c0.8,0.9,1.6,1.7,2.4,2.5
		c1.3,1.4,2.6,2.7,3.9,4.1c1.9,2,3.6,4.1,4.9,6.5c0.2,0.4,0.3,0.8,0.5,1.3c0.2,0.5,0.4,1,0.6,1.5c1.3,2.5,2.4,5.1,3.1,7.8
		c0.4,1.6,1.1,3.2,1.6,4.8c1,3,2,6,2.8,9.1c0.6,2.2,1.1,4.5,1.9,6.7c0.6,1.7,1.3,3.4,1.9,5.1c0.2,0.6,0.7,1,1.4,1.3
		c2.4,0.9,4.7,1.9,6.5,3.8c0.9,1,1.8,1.9,2.8,2.8c1.6,1.4,3.2,2.9,5.2,3.8c0,0.5,0,1,0,1.5c-0.3-0.2-0.6-0.4-1-0.6
		c-1.9-1.1-3.6-2.5-5.1-4c-1-0.9-2-1.8-2.9-2.8c-1.6-1.8-3.7-2.6-5.8-3.4c-1.4-0.6-2.6-1.5-3.7-2.4c-1.1-0.9-2-2.1-3.3-2.8
		c-0.4-0.2-0.6-0.5-0.9-0.8c-1.4-1.3-2.8-2.6-4.3-3.8c-1.6-1.2-3.4-2.1-5.1-3.2c0.1,0.3,0.2,0.6,0.3,0.8c0.6,1.3,1.2,2.5,1.7,3.8
		c0.9,2.3,1.8,4.6,1.9,7.1c0,1.7,0.3,3.4,0.2,5c-0.1,1.2-0.5,2.5-0.7,3.7c-0.4,1.8-0.5,3.7-1.2,5.5c-0.2,0.4-0.3,0.8-0.4,1.2
		c-0.5,2.2-1,4.4-1.5,6.6c-0.3,1.3-0.6,2.6-1,3.9c-0.4,1.3-0.9,2.6-1.4,3.8c-0.5,1.4-1.1,2.9-1.7,4.3c-0.5,1.2-1.1,2.4-1.5,3.6
		c-0.7,1.9-1,3.9-2.1,5.7c-0.9,1.5-1.5,3.2-2,5c-0.5,1.8-1.3,3.5-2,5.3c-0.5,0-0.9,0-1.4,0c0.1-0.2,0.2-0.4,0.3-0.6
		c0.5-1.3,1.1-2.6,1.6-3.9c0.2-0.4,0.4-0.9-0.1-1.3c-0.1-0.1,0-0.5,0.1-0.8c0-0.1,0.2-0.2,0.3-0.3c0.7-1.4,1.6-2.8,2.2-4.3
		c1-2.4,1.8-4.9,2.7-7.3c0.5-1.4,1.1-2.8,1.7-4.1c0.8-1.9,1.6-3.8,2.2-5.8c0.7-2.2,1-4.5,1.6-6.7c0.5-2,1.2-4,1.7-6.1
		c0.3-1.3,0.4-2.7,0.8-3.9c0.7-2.4,0.9-4.7,0.6-7.2c-0.1-0.9-0.2-1.8-0.3-2.7c-0.6-3.2-2.1-6.1-3.3-9c-0.4-1-0.8-2-1.1-3
		c-0.3-0.9-0.3-1.9-0.8-2.6c-1-1.7-2.2-3.2-3.2-4.9c-0.8-1.3-1.4-2.7-2.1-4c-0.2-0.4-0.4-0.7-0.5-1.1c-0.1,0-0.2,0-0.2,0
		c-0.1,0.2-0.2,0.5-0.2,0.7c0,1.4,0,2.9,0,4.3c0,1.7-0.1,3.4-0.1,5.2c0,1.4,0.1,2.8,0.6,4.2c0.4,1,0.2,1.9-0.6,2.8
		c-1.5,1.6-2.9,3.4-4.2,5.2c-1.1,1.5-2,3.2-3.1,4.7c-1.6,2.3-3.2,4.5-4.5,7c-1.2,2.3-2.4,4.7-3.9,6.9c-1.2,1.7-2.1,3.7-3,5.6
		c-1.4,3.2-2.5,6.5-4.2,9.6c-1.1,2-1.7,4.2-2.7,6.3c-0.8,1.8-1.7,3.6-2.8,5.3c-1.5,2.3-3.3,4.4-5,6.7c-0.9,1.2-1.8,2.5-2.6,3.7
		c-0.4,0.5-0.7,1.1-1,1.6c-4.9,0-9.8,0-14.7,0c0.5-1,0.9-2.1,1.5-3c1.5-2.1,3.2-4,4.8-6.1c2.2-2.8,4.4-5.5,6.6-8.3
		c2-2.5,4-4.9,5.9-7.5c2.9-3.8,5.9-7.3,9.6-10.3c1.1-0.9,2-2.1,3.4-2.7c0.2-0.1,0.3-0.2,0.4-0.4c0.9-0.8,1.7-1.5,2.6-2.3
		c0.8-0.7,1.7-1.3,2.2-2.3c1.1-2.3,2.3-4.5,3.5-6.6c1.3-2.2,2.8-4.4,4.3-6.5c1.8-2.5,3.4-5.2,5.6-7.4c0.5-0.5,0.6-1.1,0.3-1.7
		c-0.9-2-0.8-4-0.7-6.1c0-2.1,0.3-4.2,0.3-6.3c0-2.4-0.2-4.8-0.2-7.1c0-1.3,0.1-2.7,0.1-4c0-0.6,0.1-1.3,0.1-1.9
		c0-0.8,0.1-1.5,0.1-2.3c-0.9,1.3-1.7,2.6-2.4,3.9c-1.2,2.3-2.3,4.7-3.7,6.9c-0.3,0.5-0.5,1.2-0.9,1.6c-1.4,1.4-2.9,2.8-4.4,4.1
		c-1.1,0.9-2.3,1.6-3.4,2.5c-1.7,1.3-3.4,2.8-5.1,4c-2.2,1.6-4.4,3-6.7,4.5c-1.4,0.9-2.8,1.7-4.2,2.4c-2.4,1.3-5,1.8-7.6,2
		c-2.9,0.3-5.7-0.1-8.5-0.9c-2.5-0.8-4.6-1.9-6.6-3.6c-0.4-0.4-0.9-0.7-1.5-1.2c0,0.6,0.1,1.1,0.1,1.5c0,0.9,0.1,1.7,0,2.6
		c-0.1,1.4-0.5,2.8-0.5,4.2c-0.1,2.2,0,4.4,0.1,6.7c0,2.8,0,5.5,0.1,8.3c0.1,2,0.5,4,0.8,6c0.2,1.8,0.5,3.5,0.7,5.3
		c0.3,2.6,0.4,5.1,0.7,7.7c0.2,2.2,0.7,4.4,0.7,6.6c0.1,4,0,8-0.2,12c-0.1,1.9-0.1,3.8-1,5.6c-5.8,0-11.6,0-17.5,0
		c0-0.7,0-1.4,0.1-2.1c0.1-1.3,0.3-2.5,0.4-3.8c0.1-1.9,0.1-3.9,0.1-5.9c0-0.2,0-0.3,0-0.5c0.1-1.2,0.3-2.3,0.3-3.5c0-2.3,0-4.7,0-7
		c0-0.3,0.1-0.6,0.1-0.9c0.1-0.5,0.2-1,0.1-1.5c-0.1-0.4-0.2-0.7,0.1-1.1c0.1-0.1,0.1-0.3,0.2-0.5c0.5-2.8,1-5.7,1.5-8.5
		c0.5-2.5,1.1-4.9,1.5-7.4c0.2-1.3,0.4-2.5,0.4-3.8c0.1-2.5,0-4.9,0-7.4c0-1,0.2-1.9,0.8-2.8c0.8-1.3,1.6-2.7,2.3-4
		c0.4-0.8,0.8-1.6,1.2-2.4c1-1.7,2-3.4,3-5.1c0.1-0.2,0.2-0.6,0.1-0.8c-0.3-0.6-0.7-1.2-1-1.7c-1.3,1.2-2.6,2.4-3.9,3.6
		c-1.2,1.1-2.4,2.3-3.6,3.4c-0.7,0.6-1.4,1.2-2,1.9c-0.4,0.4-0.7,0.9-1.1,1.4c-0.2,0.3-0.5,0.5-0.8,0.7c-1,0.9-1.9,1.9-2.9,2.8
		c-2.2,2.1-4.4,4.2-6.1,6.8c-0.6,1-1.2,2-1.9,2.9c-0.9,1.2-2,2.4-2.9,3.6c-1.3,1.7-2.5,3.5-3.4,5.4c-0.5,1.2-1.2,2.3-2,3.3
		c-1.8,2.4-3.4,4.9-4.2,7.8c-1,3.4-2.8,6.5-4.3,9.6C8,184.4,7,186.1,6,187.8c-0.2,0.3-0.2,0.5,0.1,0.7c0.4,0.2,0.8,0.5,1.2,0.8
		c1.1,0.6,2.1,1.2,3.3,1.7c1.4,0.6,2.9,1.1,4.4,1.8c1,0.5,1.9,1.1,2.9,1.7c1.1,0.6,2.2,1.1,3.4,1.6c0.2,0.1,0.4,0.1,0.6,0
		c1.2-0.5,2.3-1.1,3.5-1.6c2.9-1.4,5.9-2.9,8.8-4.4c0.4-0.2,0.8-0.3,0.9,0.2c0.2,0.4-0.1,0.7-0.5,0.9c-2.2,1.1-4.5,2.1-6.6,3.3
		c-2.2,1.2-4.5,2-6.5,3.4c-0.3,0.2-0.7,0.1-1,0.2c-1,0.6-2,1.3-3,2c-0.7,0-1.4,0-2.1,0c1.6-1.1,3.3-2.3,5-3.4
		c-0.6-0.3-1.3-0.5-1.9-0.8c-1.1-0.6-2.2-1.2-3.3-1.7c-0.5-0.3-1.1-0.6-1.6-0.9c-1.1-0.4-2.3-0.8-3.3-1.2c-0.8-0.3-1.6-0.8-2.3-1.2
		c-1-0.6-1.9-1.2-2.8-1.9c-0.5-0.3-0.5-0.7-0.2-1.2c0.6-0.8,1-1.7,1.5-2.6c0.3-0.5,0.4-1,0.7-1.5c0.2-0.4,0.6-0.8,0.8-1.2
		c0.4-0.7,0.7-1.5,1.1-2.2c1.3-1.9,2.1-4.1,2.8-6.3c0.9-2.7,2-5.3,3.7-7.7c1.2-1.7,2.2-3.5,3.3-5.3c1.4-2.1,2.7-4.3,4.2-6.3
		c1-1.4,2.1-2.6,3-4c1.3-1.9,2.6-3.8,4.3-5.5c1.8-1.7,3.6-3.5,5.3-5.2c0.6-0.6,1.2-1.2,1.9-1.9c-0.3-0.1-0.5-0.1-0.7-0.1
		c-1.1,0.3-2.2,0.6-3.3,0.8c-1.4,0.3-2.7,0.4-4.1,0.6c-2.2,0.4-4.4,0.8-6.7,1.3c-3.5,0.7-7.1,1.4-10.6,2.2c-1.1,0.2-2.2,0.6-3.3,0.9
		c-1.5,0.4-2.9,0.6-4.4,1c-1.4,0.4-2.8,0.8-4.2,1.3C0,145.6,0,145.2,0,144.7z M30.6,67.3c0.3-0.2,0.6-0.5,0.9-0.7
		c1-0.6,2-1.2,3.1-1.2c2.3-0.2,4.6-0.2,6.9,0.1c2.5,0.3,4.8,1.4,7,2.4c0.3,0.1,0.6,0.6,0.5,0.9c0,0.3-0.3,0.7-0.6,0.9
		c-0.9,0.5-1.9,0.5-2.9,0c-1.3-0.7-2.6-1.2-4-1.5c-1.8-0.3-3.5-1.2-5.4-1.2c-0.1,0-0.2,0-0.2-0.1c-0.6-0.4-1.2-0.3-1.8-0.1
		c-1.8,0.6-3.5,1.5-3.7,3.7c-0.2,1.9-0.1,3.9-0.1,5.8c0,1.3,0.2,2.7-0.1,3.9C30,81.1,30,82.1,29.9,83c-0.1,2.9,0.1,5.8,0.5,8.7
		c0.3,1.9,0.7,3.8,1.2,5.7c0.6,2.3,1.2,4.5,1.9,6.8c1.1,3.5,1.7,7.2,3.3,10.6c0,0.1,0.1,0.2,0.1,0.2c0.4,1.4,1,2.6,2,3.6
		c1.3,1.4,2.5,3.1,4.1,4.2c2.4,1.7,4.4,3.7,6.2,6.1c0.7,1,1.6,1.9,2.7,2.7c1.1,0.7,2.1,1.7,3.2,2.5c1.1,0.8,2.2,1.7,3.4,2.2
		c4.2,1.7,8.5,2.5,13,1.3c1.8-0.5,3.8-0.8,5.4-1.8c4.4-2.8,8.8-5.6,12.9-8.8c1.2-0.9,2.4-1.9,3.6-2.8c1.2-0.9,2.5-1.7,3.6-2.7
		c1.2-1,2.3-2.2,3-3.6c0.8-1.6,1.7-3.1,2.6-4.6c0.4-0.7,0.7-1.5,1.1-2.2c1-1.8,2.1-3.5,3.1-5.2c0.2-0.4,0.6-0.7,0.7-1.1
		c0.3-1.3,0.6-2.5,0.8-3.8c0.4-2.5,0.6-5.1,0.5-7.7c0-1-0.2-1.9-0.1-2.8c0.3-2.4,0.6-4.7,0.4-7.1c-0.1-2.8-0.3-5.6-0.5-8.5
		c-0.1-1-0.5-1.8-1.1-2.4c-0.9-1-1.4-2.2-1.6-3.6c0-0.3-0.1-0.6-0.2-0.9c-0.4-1.2-0.7-2.4-1.1-3.5c-0.6-1.8-1.3-3.6-2-5.4
		c-0.7-1.9-1.8-3.5-3.2-4.9c-0.9-0.9-2-1.6-3-2.5c-1.3-1.1-2.8-2.2-3.6-3.8c-0.6-1.2-1.5-2-2.7-2.6c-0.4-0.2-0.7-0.5-1-0.8
		c-0.6-0.7-1.2-1.4-1.8-2.1c-1.1-1.2-2.3-2.3-3.5-3.4c-0.4-0.3-0.7-0.7-1.1-1c-0.9-0.7-1.9-1.3-2.7-2.1c-1.5-1.4-3.3-2.3-5.3-2.8
		c-1.9-0.5-3.9-0.8-5.8-1.1c-1-0.2-2.1-0.2-3.1-0.1c-1,0.1-1.9,0.3-2.9,0.5c-0.9,0.3-1.8,0.6-2.6,1.1c-1.4,0.8-2.8,1.6-4.2,2.5
		c-0.7,0.5-0.7,0.5-1.5,0.1c-0.7-0.4-1.3-0.9-2-1.1c-1.4-0.5-2.9-0.4-4.4-0.3c-2.4,0.1-4.6,1-6.6,2.3c-3.1,2.1-6,4.6-8.4,7.5
		c-0.6,0.8-1.2,1.6-1.5,2.5c-0.6,1.7-1.1,3.4-1.4,5.2c-0.5,3-0.4,6-0.3,9.1c0,1,0,2,0.1,3C30.2,65.2,29.9,66.3,30.6,67.3z M110,89.9
		c0.7-0.2,1.3-0.4,1.9-0.6c1.2-0.5,2.2-1.4,3.1-2.3c0.8-0.9,1.6-1.8,2.3-2.8c0.7-0.9,1.2-2,1.7-3c0.7-1.4,1.4-2.9,1.4-4.5
		c0-1.4,0-2.9,0.1-4.3c0.3-2.4,0.9-4.8,0.7-7.3c-0.1-1.4-0.6-2.7-1.3-3.8c-0.5-0.8-1.2-1-2.1-0.8c-1.8,0.5-3.2,1.6-4.3,3.2
		c-0.8,1.2-1.5,2.4-2.2,3.7c-0.4,0.7-0.9,1.5-1.2,2.2c-0.1,0.3-0.2,0.8,0,1c1.1,0.9,1.9,2.1,2.5,3.4c0.4,0.8,0.7,1.8,0.6,2.7
		c-0.1,1.4-0.6,2.8-0.8,4.3c0,0.2,0.1,0.6,0.1,0.6c0.2,0,0.6,0,0.7-0.1c0.2-0.3,0.4-0.7,0.5-1c0.4-1.1,1.7-2.2,2.9-2.2
		c0.6,0,0.9-0.3,1-0.8c0.2-1.3,0.3-2.5,0.4-3.8c0.1-1.6,0.1-3.2,0-4.9c0-1-0.2-2.1-0.5-3.1c-0.2-0.7-0.6-0.8-1.2-0.4
		c-0.4,0.3-0.8,0.6-1.2,0.8c-0.2,0.1-0.6,0.1-0.8-0.1c-0.2-0.1-0.2-0.6-0.1-0.7c0.6-0.6,1.2-1.2,1.9-1.7c0.5-0.4,1.2-0.3,1.6,0.1
		c0.3,0.3,0.7,0.4,0.9,0.7c0.4,0.6,1,1.3,1,2c0,1.8-0.2,3.6-0.3,5.5c-0.1,1.6-0.1,3.2-0.1,4.8c0,0.6-0.2,1.2-0.3,1.8
		c-0.2,0.7-0.6,1-1.3,1.1c-1.4,0.1-2.3,0.9-2.7,2.2c-0.3,1-1,1.4-1.9,1.6c-1.1,0.3-2.1-0.7-1.9-1.8c0.3-1.6,0.6-3.1,0.9-4.7
		c0.1-0.5,0-1.1-0.2-1.6c-0.2-0.5-0.5-1-0.8-1.5c-0.3-0.4-0.6-0.8-0.9-1.2C109.8,78.2,110.9,84,110,89.9z"/>
	<path class="st0" d="M62.7,120.9c-2.1-0.1-4-0.2-5.8-0.8c-2.2-0.7-3.9-2-5.3-3.9c-0.5-0.7-1.4-1.3-2-1.9c-0.2-0.1-0.4-0.4-0.3-0.5
		c0-0.2,0.3-0.4,0.5-0.4c2.6-0.6,5-1.6,7.3-2.7c1.1-0.5,2.2-0.5,3.3-0.2c0.7,0.2,1.4,0.3,2,0.5c0.9,0.2,1.7,0.1,2.4-0.3
		c0.5-0.3,1-0.6,1.5-0.8c1.2-0.6,2.5-0.5,3.8-0.4c3.1,0.2,6.1,0.4,9.1-0.4c0.9-0.2,1.7-0.4,2.6-0.6c0.2,0,0.5,0,0.5,0.1
		c0.1,0.1,0.1,0.4,0,0.6c-0.3,0.4-0.6,0.8-0.9,1c-1.3,0.8-2.2,1.9-3.1,3c-1.6,2-3.4,3.7-5.7,5c-2.5,1.3-5.1,2.1-7.9,2.7
		C64,120.9,63.3,120.9,62.7,120.9z M78.3,111.8c-0.7,0.1-1.3,0.2-1.9,0.4c-3.2,0.7-6.4,1.5-9.6,2.2c-2.3,0.5-4.5,0.9-6.9,0.8
		c-0.8,0-1.7-0.1-2.5-0.1c-1.9-0.1-3.9-0.1-5.9-0.2c0.6,0.7,1.1,1.5,1.7,2.1c1.9,2.1,4.4,2.8,7.1,3.1c2.4,0.3,4.8-0.1,7.2-0.7
		c4.2-1.2,7.8-3.3,10.4-6.9C78.1,112.2,78.2,112,78.3,111.8z M78.7,110.2c0,0,0-0.1-0.1-0.1c-1.1,0.1-2.2,0.3-3.3,0.3
		c-1.7,0-3.4-0.1-5.2-0.2c-1.7-0.1-3.4,0.1-4.8,1.1c-0.8,0.6-1.8,0.6-2.8,0.4c-0.7-0.1-1.4-0.3-2-0.5c-1.3-0.3-2.5-0.2-3.7,0.5
		c-0.9,0.5-2,0.9-3,1.3c-0.7,0.3-1.5,0.5-2.3,0.8c0,0.1,0,0.1,0,0.2c0.2,0,0.4,0.1,0.7,0.1c1.7,0.1,3.4,0.2,5.2,0.2
		c1.4,0.1,2.9,0.3,4.3,0.1c2.5-0.3,5-0.8,7.5-1.3c1.3-0.3,2.5-0.6,3.8-1C74.8,111.5,76.7,110.8,78.7,110.2z"/>
	<path class="st0" d="M89.2,72.5c-2.7,2.1-5.4,3.8-8.6,4.4c-1.1,0.2-2.3,0.1-3.4,0.2c-1.7,0-3.4,0.1-5.2,0.1c-0.4,0-0.8,0.2-1.3,0.3
		c-0.3,0-0.6-0.1-0.9-0.1c0.1-0.3,0-0.6,0.2-0.7c1.1-1.2,2.2-2.5,3.4-3.6c1.3-1.2,2.5-2.3,4.1-3c1.3-0.6,2.6-1.1,4.1-0.9
		c1.2,0.2,2.4,0.5,3.5,1c1.2,0.4,2.3,1.1,3.4,1.6C88.8,71.9,88.9,72.2,89.2,72.5z M71.7,76.4c0,0,0.1,0.1,0.1,0.1
		c0.4,0,0.8-0.1,1.1-0.1c2.1,0,4.2,0,6.2,0c0.5,0,1-0.1,1.4-0.2c-1.1-0.2-2.1-0.5-2.8-1.5c-0.7-1-0.5-2.1-0.5-3.2
		C75,72.7,73.5,74.6,71.7,76.4z M83.3,75.1c0,0,0.1,0.1,0.1,0.1c1.3-0.7,2.7-1.5,4-2.2c0.5-0.3,0.5-0.7-0.1-0.9
		c-0.7-0.3-1.4-0.6-2.1-0.9C85,71,84.7,71,84.5,70.9C84.4,72.5,84.6,74,83.3,75.1z M80.8,71.6c-0.7,0-1,0.3-0.9,0.6
		c0,0.2,0.4,0.5,0.6,0.6c0.4,0.1,0.7-0.3,0.7-0.7C81.2,72,80.9,71.7,80.8,71.6z"/>
	<path class="st0" d="M52.3,79.2c-1.1,0.3-2.2,0.5-3.3,0.9c-2.6,0.8-5.3,1.4-8.1,1.1c-1.2-0.1-2.3-0.5-3.3-1.3
		c-0.6-0.4-1.2-0.8-1.8-1.2c-0.2-0.2-0.5-0.4-0.6-0.6c-0.1-0.1,0.1-0.5,0.2-0.6c1.2-0.7,2.4-1.4,3.6-2.2c1.6-1,3.3-1.5,5.2-1.6
		c0.7,0,1.3-0.1,2,0c1.6,0.2,2.9,0.9,4.1,1.9c0.4,0.4,0.9,0.7,1.4,1c0.6,0.5,1.3,0.9,1.9,1.4c0.2,0.1,0.4,0.5,0.3,0.7
		c-0.1,0.3-0.4,0.5-0.7,0.6c-0.2,0.1-0.5,0-0.8,0C52.3,79.3,52.3,79.3,52.3,79.2z M43.5,80.3c-0.2-0.1-0.2-0.2-0.3-0.2
		c-1.3-1-2.1-2.3-2-4c0-0.2,0-0.5-0.1-0.5c-0.2-0.1-0.5-0.1-0.7,0c-1.1,0.7-2.2,1.4-3.3,2.1c-0.4,0.3-0.4,0.6,0,0.8
		c0.8,0.4,1.7,0.9,2.5,1.3C41,80.3,42.2,80.3,43.5,80.3z M52.6,78.4c0,0-0.1-0.1-0.1-0.2c-1.2-0.8-2.3-1.6-3.5-2.4
		c-0.4-0.3-0.7,0.1-0.7,0.6c0,0.5,0.1,1,0,1.5c-0.1,0.6-0.5,1.1-0.7,1.7C49.2,79.3,50.9,78.9,52.6,78.4z M44.8,76.6
		c0-0.1,0-0.2,0-0.3c-0.3-0.2-0.6-0.5-0.8-0.4c-0.2,0.1-0.5,0.4-0.6,0.7c0,0.2,0.4,0.6,0.6,0.6C44.3,77.1,44.6,76.8,44.8,76.6z"/>
	<path class="st0" d="M84,57.9c2.2,0.2,4.4,0.5,6.3,1.7c1,0.7,2.2,1.2,3.3,1.8c0.4,0.2,0.5,0.4,0.4,0.9c-0.2,0.5-0.5,0.4-0.8,0.3
		c-0.5-0.2-1-0.4-1.5-0.7c-1.2-0.6-2.3-1.5-3.5-1.9c-1.4-0.5-2.9-1.1-4.5-0.7c-1.2,0.3-2.5,0.3-3.7,0.5c-0.3,0-0.6,0.2-0.8,0.3
		c-1.6,1.2-3.2,2.3-4.7,3.5c-0.6,0.4-0.9,1.1-1.5,1.6c-0.8,0.8-1.7,1.6-2.6,2.2c-0.3,0.2-1,0.1-1.5,0c-0.5-0.1-0.6-0.8-0.2-1.4
		c0.5-0.7,1.1-1.4,1.7-2.1c1.3-1.5,2.8-2.8,4.6-3.7c0.8-0.4,1.6-0.8,2.5-1c1.7-0.5,3.5-0.9,5.3-1.3C83.1,57.9,83.6,57.9,84,57.9z"/>
	<path class="st0" d="M73.4,97.8c0.2-1.9-0.8-3.2-2.1-4.4c-0.2-0.2-0.6-0.4-0.8-0.6c-0.1-0.1-0.1-0.4-0.2-0.6c0.2,0,0.5-0.1,0.6-0.1
		c0.3,0.1,0.6,0.4,0.9,0.6c2.1,1.7,2.8,3.9,2.6,6.5c0,0.3-0.3,0.6-0.6,0.8c-1,0.6-2.1,0.7-3.2,0.6c-0.9-0.1-1.8-0.2-2.7-0.1
		c-1.3,0-2.4,0.6-3.2,1.5c-1.1,1.1-2.3,1.8-3.9,1.6c-1.2-0.1-2.1-0.6-3-1.4c-0.7-0.7-1.5-0.7-2.4-0.6c-1.1,0.1-2.2,0.3-3.3,0.2
		c-1.7-0.1-2.5-1.3-2-3c0.4-1.3,0.9-2.6,1.4-3.8c0.1-0.2,0.4-0.3,0.6-0.5c0,0.3,0.2,0.5,0.1,0.8c-0.4,1.1-0.8,2.2-1.2,3.2
		c-0.1,0.4-0.2,0.8-0.2,1.3c-0.1,0.7,0.4,1.3,1.2,1.3c0.4,0,0.8,0,1.2,0c0.9-0.1,1.8-0.1,2.7-0.3c0.9-0.1,1.6,0.2,2.3,0.7
		c0.7,0.5,1.4,0.9,2.2,1.2c1.1,0.4,1.9,0,2.8-0.8c0.9-0.8,1.8-1.5,2.8-2.1c1.4-0.7,2.9-0.6,4.4-0.2c0.4,0.1,0.9,0.2,1.4,0.1
		c0.9-0.1,1.6-0.5,1.4-1.5C73.3,98.1,73.4,98,73.4,97.8z"/>
</g>
</svg>
