<?xml version="1.0" encoding="utf-8"?>
<!-- Generator: Adobe Illustrator 19.2.1, SVG Export Plug-In . SVG Version: 6.00 Build 0)  -->
<svg version="1.1" id="Layer_1" xmlns="http://www.w3.org/2000/svg" xmlns:xlink="http://www.w3.org/1999/xlink" x="0px" y="0px"
	 viewBox="0 0 158.8 177.2" style="enable-background:new 0 0 158.8 177.2;" xml:space="preserve">
<style type="text/css">
	.st0{fill:#673AB7;}
</style>
<g id="pharm-amanda-deep-purple">
	<path class="st0" d="M158.8,147.6c-2.4-0.7-4.8-1.5-7.3-2.1c-1.3-0.3-2.6-0.3-3.9-0.6c-2-0.4-4-1.1-6.1-1.5
		c-4.7-0.7-9.4-1.6-14-2.9c-0.7-0.2-1.5-0.4-2.1-0.8c-1.5-1-2.9-2-4.2-3.1c-1.6-1.3-2.2-2.6-1.4-4.7c0.6-1.5,1.1-3,1.5-4.6
		c0.8-3.3,1.4-6.6,2.4-9.8c1.3-4.3,2-8.6,2.4-13c0.3-3,0.5-6,0.7-9.1c0.1-1.7,0.3-3.4,0.3-5.1c-0.1-5.3-0.1-10.6-0.4-15.9
		c-0.1-1.7-0.5-3.3-1-4.9c-0.5-1.7-1.2-3.4-1.7-5.1c-0.6-2.3-1.1-4.7-1.7-7c-1-3.7-1.8-7.5-3-11.2c-1-3-2.5-5.9-3.8-8.8
		c-0.4-1-1-2-1.4-3c-0.3-0.7-0.3-1.5-0.7-2.2c-1.7-3-3.6-5.9-5.4-8.9c-0.3-0.5-0.5-0.9-0.8-1.4c-0.5-0.9-1-2-1.7-2.8
		c-1.3-1.5-2.7-2.9-4.2-4.2c-2.9-2.6-6.1-4.8-9.5-6.8c-2-1.2-3.9-1.7-6.1-1.6c-0.5,0-1,0.1-1.5,0C83.6,6.4,83,6.3,82.5,6
		c-2.4-2-5.3-3.2-8-4.7C74,0.9,73,0.2,72,0.1c-1.9-0.2-3.8-0.1-5.7,0c-1,0-2,0.3-3,0.6C62,1.1,60.7,1.5,59.5,2
		c-1.7,0.7-3.6,1.3-5.1,2.3c-4,2.7-8.3,5.1-12,8.3c-1.9,1.7-4,3.1-5.7,5c-2.7,3-4.7,6.6-6.4,10.2c-1,2-1.8,4-2.9,5.9
		c-1.2,2.1-2.3,4.2-3.3,6.5c-2.3,5.6-3.8,11.4-5.3,17.3c-1,3.8-1.8,7.7-2.1,11.6c-0.2,3.4-0.9,6.8-1.2,10.2
		c-0.2,3.2-0.2,6.4-0.3,9.6c0,4.4,0.1,8.8,1.1,13.1c0.2,1,0.5,2.1,0.7,3.1c0.6,5.3,1.7,10.5,3.2,15.7c0.2,0.6,0.3,1.2,0.4,1.8
		c0.4,2.8,0.9,5.5,1.8,8.2c0.3,1,0.7,2.1,1.1,3c0.5,1.1,1,2.2,1.6,3.2c0.9,1.5,1.7,3,2.7,4.4c1.6,2.3,3.5,4.4,3.9,7.3
		c0,0.2,0,0.4-0.1,0.6c-0.9,1.1-2.1,1.7-3.5,1.9c-1,0.1-2,0.4-2.9,0.6c-1.1,0.3-2.2,0.6-3.3,0.9c-6.3,1.5-12.6,3-18.8,4.6
		c-1,0.2-2,0.5-3,0.8v2c2.1-0.6,4.3-1.1,6.4-1.7c0.4-0.1,0.9-0.3,1.3-0.4c2.8-0.8,5.5-1.6,8.3-2.3c3.5-0.9,6.9-1.7,10.4-2.6
		c0.2-0.1,0.4,0,0.7-0.1c0.1,0.1,0.1,0.2,0.2,0.3c-0.6,0.5-1.1,1.1-1.7,1.4c-3.3,1.7-6.6,3.3-9.9,5c-0.7,0.3-1.3,0.8-2,1.1
		c-1.8,0.9-3.7,1.8-5.6,2.6c-2.8,1.2-5.6,2.4-8.1,4.2v2c0.7-0.5,1.4-0.9,2.2-1.3c1.1-0.5,2.2-0.9,3.3-1.1c1.7-0.4,3.5-0.4,5-0.9
		s2.5,0.2,3.6,0.8c1,0.5,2,1.2,3,1.8c0.7,0.4,1.4,0.7,2.1,1.1c-1.7,1.2-3.1,1.5-5.6,2.1c-0.6,0.2-1.2,0.3-1,1.1
		c0.2,1.3,0.4,2.5,0.6,3.8H15c-0.2-0.8-0.3-1.6-0.5-2.4c-0.1-0.4-0.1-0.8,0.5-0.9c2.9-0.4,5.2-2,7.3-3.8c2.6-2.2,5.2-4.5,7.8-6.7
		c1.5-1.2,3.1-2.3,4.6-3.5c0.7-0.5,1.2-1.3,1.8-2c0.3,0.5,0.5,0.9,0.7,1.3c1.3,2.4,2.6,4.9,3.9,7.2c0.9,1.6,1,3.2,0.2,4.9
		c-0.6,1.3-1.2,2.6-1.4,4c-0.1,0.6-0.2,1.2-0.3,1.9h11.3c-1.7-2.2-3.5-4.2-5.1-6.5c-1.6-2.2-2.8-4.7-4.2-7.1
		c-0.7-1.2-1.3-2.3-1.9-3.5c-0.1-0.2-0.2-0.5-0.3-0.9c0.3,0,0.6-0.1,0.8-0.1c2.6,0.2,5.1,0.2,7.6-0.6c1.3-0.4,1.2-0.2,1.9,0.9
		c1.1,1.9,1.6,4,2.1,6.1c0.9,3.9,1.9,7.7,2.8,11.6h1.7v-0.1c-0.6-1.8-0.8-3.7-1.2-5.5c-0.4-1.7-0.9-3.5-1.3-5.2
		c-0.2-0.8-0.3-1.6-0.5-2.3c-0.5-2.3-1.5-4.4-2.6-6.4c-0.3-0.6-0.5-1.4-0.5-2.1c0.1-2,0.4-4,0.6-6c0.2-2,0.5-3.9,0.6-5.9
		c0.2-2.8,0.4-5.6,0.5-8.5c0.1-2.8,0.1-5.6,0.1-8.4c0-2.6-0.1-5.2-0.1-7.9c0-0.8,0.2-1.6,0.4-2.5c1.4,1,2.6,1.9,3.9,2.8
		c3.8,2.5,7.9,3.9,12.5,3.5c2.7-0.2,5.4-0.6,8.1-0.9c0.8-0.1,1.5-0.4,2.2-0.8c2.7-1.5,5.3-2.9,7.9-4.5c1.3-0.8,2.5-1.8,3.7-2.8
		c1.5-1.3,2.9-2.7,4.2-4.2c1.7-2.1,3.2-4.5,4.8-6.7c0.3-0.4,0.6-0.8,0.8-1.1c0.1,0,0.2,0,0.3,0.1c0,0.5-0.1,1.1,0,1.6
		c0.6,4-0.1,7.9-1.2,11.8c-0.8,2.7-0.9,5.5-1,8.3c0,1.5-0.3,2.7-1.2,4c-2.2,2.8-4.1,6-6.5,8.6c-3,3.3-5.3,7-7.7,10.7
		c-2.1,3.3-3,7-3.5,10.8c-0.1,0.8-0.1,1.7-0.3,2.5c-0.5,2.9-1.8,5.5-3.9,7.6c-1,1.1-2.1,2-3.2,3c-1.8,1.7-3.3,3.6-4.5,5.7
		c-0.2,0.3-0.4,0.6-0.6,0.9h16.2c0.4-0.7,0.8-1.5,1.2-2.2c1.9-3.7,3.7-7.5,5.5-11.2c1.1-2.1,2.2-4.2,3.3-6.2
		c0.5-0.9,1.1-1.7,1.7-2.6c0.8,1,1.6,1.9,2.4,2.8c3.4,3.7,7.8,6.2,11.7,9.3c0.3,0.2,0.8,0.3,1.2,0.2c0.8-0.1,1.5-0.5,2.3-0.7
		c4.8-1,9.5-2.4,13.9-4.6c0.4-0.2,0.8-0.3,1.3-0.5c-1.2,1.7-2.2,3.4-3.4,5c-2.7,3.6-5.5,7.2-8.2,10.8h2.2
		c4.4-5.8,8.7-11.6,13.1-17.4c0.2-0.3,0.2-0.7,0.3-1.1c-0.4-0.1-0.9-0.4-1.3-0.3c-1.1,0.3-2.1,0.7-3.2,1.1c-2.5,0.9-5,1.9-7.4,2.8
		c-1.7,0.6-3.4,1.3-5.1,1.8c-0.2,0.1-0.5-0.1-0.7-0.1c0.1-0.2,0.1-0.4,0.3-0.6c2.6-1.9,5.1-3.9,7.8-5.7c1-0.7,2.2-1.3,3.4-1.3
		c2.7,0,5.3,0.4,8,0.6c1.2,0.1,2.4,0.3,3.6,0.3c0.4,0,1-0.4,1.1-0.7s-0.2-0.8-0.5-1.2c-0.6-0.8-1.3-1.4-1.9-2.2c-2-3.2-4-6.4-6-9.6
		c-0.1-0.2-0.1-0.4-0.2-0.6c1.3,0.3,2.6,0.6,3.8,0.8c3.3,0.6,6.5,1.1,9.8,1.8c2.6,0.6,5.2,1.5,8,1.5c0.4,0,0.7,0.1,1.1,0.3
		c2.1,0.6,4.1,1.3,6.2,1.9C158.7,148.8,158.8,148.2,158.8,147.6z M107.2,72.9c1.3,1.1,1.8,2.4,2.4,3.6c0.6,1.3,1.3,2.5,1.6,3.8
		c-0.3,3.4-1.5,6.3-4.3,7.6c-0.2-0.1-0.4-0.1-0.6-0.2c-0.3-0.4-0.7-0.7-1-1.1c-0.8-1-0.2-2-0.1-3.1c0.2-1.8,0.5-3.7,0.8-5.5
		C106.5,76.4,106.8,74.7,107.2,72.9z M35.8,71.4c0.2,0.2,0.5,0.4,0.6,0.6c0.3,2,0.6,4,0.8,5.9c0.1,1.1,0,2.3,0,3.5
		c-1,0-1.4-0.4-1.4-1.4c-0.1-2.7-0.2-5.3-0.2-8C35.5,71.9,35.7,71.6,35.8,71.4z M38.2,85.9c0.2,1.1,0.3,2.2,0.5,3.3
		c0.1,0.6-0.1,0.8-0.7,0.8c-1.5,0-1.9-0.2-2-1.7s0-2.9,0-4.5c0.2,0.1,0.4,0.2,0.6,0.3C38,84.5,38,84.5,38.2,85.9z M34.6,157.4
		c-1.3,1.2-2.8,2.3-4.2,3.5c-2.1,1.8-4.1,3.5-6.2,5.3c-0.7,0.6-1.4,1.3-2.2,1.8c-0.3,0.2-0.8,0.3-1.1,0.2c-1.9-0.9-3.8-1.9-5.7-2.9
		c0-0.1,0-0.2,0-0.3c0.4-0.2,0.8-0.4,1.1-0.6c3-1.2,6.2-2.2,9-3.7c2.7-1.4,5.2-3.4,7.8-5.2c0.5-0.4,0.8-1,1.3-1.6
		C35.6,155.3,35.7,156.4,34.6,157.4z M49.8,139.4c0,0.5-0.1,0.9-0.1,1.4c-0.1,1.8-0.2,3.7-0.7,5.5c-0.4,1.7-0.3,3.5-0.4,5.3
		c-0.1,1.3-0.2,2.5-0.2,3.8c0,0.7-0.2,1.2-1.1,1.5c-1.8,0.7-3.6,0.6-5.5,0.7c-0.1,0-0.2,0-0.3,0c-2.5,0.2-4.2-0.8-4.9-3.4
		c-0.1-0.2-0.2-0.5-0.4-0.7c-0.3-0.5-0.8-1-0.7-1.4c0.2-0.9,0.5-1.9,1.1-2.7c1.5-2.1,3.1-4.2,4.7-6.2c1.4-1.9,2.9-3.8,4.3-5.8
		c1.2-1.7,2.6-3.2,3.1-5.3c0.1-0.5,0.4-0.9,1-0.8c0.6,0.1,0.8,0.6,0.7,1.1C50.2,134.7,50,137,49.8,139.4z M99.6,100
		c-1.3,1.9-2.6,3.7-4,5.4c-1.2,1.6-2.4,3.3-3.9,4.7c-1.8,1.8-3.9,3.5-5.8,5.2c-0.1,0.1-0.2,0.2-0.3,0.2c-3.3,1.1-5.9,3.7-9.4,4.6
		c-2.9,0.8-5.8,1.2-8.8,1.1c-2.3-0.1-4.6-0.5-6.8-1.4c-2.3-1-4.5-2.3-6.4-3.9c-0.9-0.8-1.7-1.8-2.6-2.7c-1.1-1.2-2.3-2.3-3.3-3.6
		c-1.9-2.6-3.7-5.2-4.5-8.3c-0.3-1-0.6-2-1-3c-1.8-4.4-2.6-9-3.1-13.7c-0.3-2.5-0.5-5-0.8-7.4c-0.2-1.2-0.5-2.4-0.8-3.6
		c-0.6-2.5-0.5-5-0.1-7.5c0.1-0.4,0.2-0.9,0.2-1.3c0-0.9,0.3-1.4,1.1-1.9c3.6-2.3,7.4-2.9,11.5-2.1c1,0.2,2,0.3,3,0.5
		c1.2,0.3,2.4,0.7,3.6,1c0.4,0.1,0.8,0,1.3-0.1c-0.1-0.5-0.1-1-0.2-1.5c-0.1-0.3-0.4-0.5-0.6-0.7c-1.4-0.8-2.9-1.6-4.6-1.5
		c-1.6,0-3.2-0.2-4.8-0.3c-0.7,0-1.5,0-2.2,0.1c-2.3,0.1-4.1,1.3-6,2.3c-0.4,0.2-0.8,0.5-1.5,0.8c0.7-1.9,1.3-3.6,1.9-5.3
		c0-0.1,0.1-0.2,0.2-0.3c2-1.7,3.4-4,5.6-5.4c1.5-1,2.9-2.3,4.2-3.5c2.6-2.3,5.3-4.3,8.6-5.5c2.2-0.8,4.4-1.6,6.6-2.4
		c0.5-0.2,1-0.4,1.5-0.7c2.6-1.6,5.3-3.1,7.8-4.8c2.7-1.8,5.4-3.6,7.9-5.6c1.5-1.2,2.8-2.6,2.6-4.8c-0.1-0.8,0.1-1.6,0-2.4
		s0.3-1.4,0.8-1.9c0.1-0.1,0.5-0.2,0.7-0.1s0.4,0.3,0.4,0.5c0.5,3,0.8,5.9,0.8,9c0,0.5-0.2,1.1-0.1,1.6c0,0.8,0,1.7,0.3,2.4
		c0.5,1.6,1.4,3,2.5,4.4c1.9,2.5,3.7,5.1,5.3,7.9c0.7,1.3,0.9,2.9,1.1,4.4c0.2,1.4,0.1,2.8,0,4.2c0,1.3,0.4,2.5,1.2,3.5
		c0.8,1,1.7,2,2.5,3c1.3,1.5,2.2,3.2,2.6,5.2c0.4,2.1,0.9,4.1,2.3,5.8c0.2,0.2,0.3,0.6,0.3,0.9c-0.1,0.8-0.2,1.6-0.3,2.5
		c-0.2,1-0.4,2-0.6,2.9c-0.4,2.6-0.8,5.3-1.3,7.9c-0.5,2.5-1,5-1.6,7.5C101.6,95.1,101.1,97.8,99.6,100z M121.5,156.2
		c-3.1,1.5-5.4,4.1-8.3,5.9c-1.3,0.8-2.6,1.5-4,2.2c-0.2,0.1-0.6,0-0.8-0.1c-3.6-2.7-7.5-5.2-10.5-8.7c-0.6-0.7-1.3-1.4-1.9-2.1
		c-0.1-0.1-0.2-0.4-0.2-0.5c0.6-1.8,1.3-3.5,2-5.4c2.5,1.3,4.7,2.6,6.9,3.8c2.7,1.3,5.3,2.7,8.1,3.7c1.8,0.6,3.8,0.6,5.7,0.8
		c1,0.1,2,0.2,3,0.2C121.6,156.1,121.6,156.2,121.5,156.2z M135.2,155.6c-0.4,0-0.9,0-1.3-0.1c-2.1-0.3-4.3-0.8-6.4-0.9
		c-3.4-0.1-6.8-0.5-10.1-1c-0.8-0.1-1.5-0.1-2.3-0.2c-2.5-0.4-5-1.2-7.2-2.4c-3-1.6-6-3.3-9.1-4.9c-0.2-0.1-0.3-0.2-0.5-0.3
		c-3.3-1.9-6-1-8.2,2c-1.4,1.9-2.7,3.9-4.1,5.8c-0.6,0.9-1.5,1.6-2.2,2.4c-0.8,0.8-1.7,1.6-2.6,2.4c-0.3-1.4,0.1-2.6,0.5-3.8
		c0.4-1.4,0.7-2.8,1.3-4.2c0.5-1.3,1.2-2.6,1.9-3.8c1.8-2.8,3.5-5.7,5.6-8.2c3.1-3.6,5.8-7.4,8.5-11.3c0.6-0.8,1.3-1.5,2-2.2
		c0.2-0.2,0.7-0.4,1-0.4c2.1,0,4-0.5,5.7-1.8c1.7,2.1,3.4,4.3,5.2,6.3c1.1,1.3,2.2,2.5,3.3,3.8c0.8,0.9,1.7,1.9,2.4,2.9
		c1.4,2.1,3.1,3.9,5.3,5.1c1,0.5,2.1,0.9,3.1,1.4c0.3,0.1,0.6,0.4,0.8,0.6C130.2,147.4,132.6,151.5,135.2,155.6z"/>
	<path class="st0" d="M70.5,94.5c3.3,0,6.6,0,9.9,0c0.9,0,1.8,0.4,2.7,0.5c0.7,0.1,1.5,0,2.3,0.1c0.4,0,0.9,0.2,1.1,0.4
		c0.1,0.3,0,0.9-0.3,1.1c-3,2.8-6.2,5.3-10.2,6.6c-3.4,1.1-6.7,1.7-10.3,1.2c-2.9-0.5-5.7-1.5-8.1-3.2c-1.6-1.1-3-2.6-4.5-3.9
		c-0.4-0.4-0.4-0.9,0.2-1c3.1-0.6,6-2.2,9.4-1.9c2.6,0.2,5.2,0,7.8,0C70.5,94.4,70.5,94.4,70.5,94.5z M82.9,97.8
		c-8.4,2.9-16.9,4.1-25.7,1.7c3.4,2.6,7.3,3.9,11.5,3.9C74.1,103.4,78.8,101.2,82.9,97.8z M80,97.3c-8,0-16,0-24.1,0
		C58.9,100.3,75.4,100.4,80,97.3z M58.7,96c0.7,0.1,1.5,0.3,2.2,0.3c3.6,0,7.3-0.1,10.9-0.1c2.9,0,5.8,0.1,8.7,0.1
		c0.4,0,0.7-0.1,1.3-0.2C80.5,95.3,60.1,95.1,58.7,96z"/>
	<path class="st0" d="M96,67.3c-0.4,0.4-0.9,1-1.5,1.3c-3.1,1.9-6.6,2.6-10.2,2.2c-1.9-0.2-3.8-0.6-5.8-0.9c-0.3,0-0.5-0.1-0.7-0.2
		c-0.7-0.3-0.8-0.7-0.2-1.3c1.8-1.9,3.9-3.4,6.3-4.6c3-1.5,5.8-0.9,8.5,1C93.5,65.8,94.7,66.5,96,67.3z M93.4,67.5
		c0-0.1,0.1-0.2,0.1-0.4c-1.2-0.6-2.4-1.2-3.5-1.7c-0.1,1.3-0.2,2.4-0.4,3.6C91.1,69,92.2,68.2,93.4,67.5z M82.7,66
		c-1,0.8-2.1,1.8-3.3,2.9c1.3,0.2,2.3,0.5,3.3,0.7C82.7,68.2,82.7,67.1,82.7,66z"/>
	<path class="st0" d="M51.7,71.6c-2.8-0.2-5.7-0.3-8.4-1.2c-0.4-0.1-1-0.6-1-1c-0.1-0.4,0.3-1,0.6-1.2c1.3-0.9,2.6-2,4-2.6
		c1.7-0.8,3.7-1.1,5.6-0.8c2.8,0.4,4.8,2.2,6.8,4.1c0.6,0.5,0.5,1.2-0.2,1.3C56.7,70.9,54.3,71.8,51.7,71.6z M47.3,67.1
		c-1,0.6-2,1.3-3.1,1.9c0,0,0.1,0.6,0.3,0.7c1.3,0.2,2.6,0.3,3.8,0.5C47.9,69.2,47.7,68.3,47.3,67.1z M54.3,70.4
		c1-0.2,2-0.4,2.9-0.6c0.2,0,0.3-0.6,0.2-0.9c-0.3-0.8-1.1-1-1.8-1.1c-0.2,0-0.5,0.3-0.6,0.5C54.7,69,54.5,69.7,54.3,70.4z
		 M52.1,67.6c-0.5-0.3-0.8-0.7-1.1-0.7s-0.7,0.5-0.7,0.7c0,0.3,0.4,0.7,0.7,0.7C51.3,68.4,51.6,68,52.1,67.6z"/>
	<path class="st0" d="M88.3,56.4c1.6,0.3,3.2,0.5,4.8,0.9c0.6,0.1,1.1,0.5,1.5,0.9c0.4,0.3,0.8,0.7,0.3,1.3
		c-0.4,0.4-1.5,0.4-1.7-0.1c-0.4-1-1.3-1-2.1-1c-1.5,0-3,0.2-4.5,0.2c-2.2,0-4.1,0.9-6,1.9c-1.5,0.8-3,1.6-4.5,2.4
		c-0.3,0.2-0.6,0.3-1,0.3c-0.3,0-0.9-0.2-1-0.4c-0.1-0.3,0.1-0.9,0.3-1.1c1.5-1.1,3-2,4.5-3.1C81.8,56.9,85,56.7,88.3,56.4z"/>
	<path class="st0" d="M76.1,86.9c-1.9-0.2-3.2,0.2-4.4,1.2c-2.3,1.8-3.7,1.7-6,0c-0.5-0.3-0.9-0.6-1.4-1c-0.6-0.4-1.2-0.2-1.9,0.1
		c-1.4,0.7-2.6,0.4-3.6-0.7c-0.7-0.8-0.7-3,0.1-3.7c0.2-0.2,0.5-0.2,0.7-0.2c0,0.3,0.1,0.5,0,0.8c-0.4,0.8-0.6,1.7,0,2.5
		s1.5,0.8,2.4,0.4c1.7-0.8,3.1-0.3,4.3,1s2.8,1.4,4.2,0.4c0.6-0.4,1.1-0.9,1.6-1.2c0.3-0.2,0.7-0.4,1.1-0.4c0.8-0.1,1.6,0,2.4,0
		c1.7,0,2.5-1.3,1.8-2.8c0-0.1-0.2-0.2-0.1-0.3c0.1-0.3,0.2-0.5,0.3-0.8c0.2,0.1,0.6,0.2,0.7,0.4C79.9,84.8,77.9,87.2,76.1,86.9z"/>
</g>
</svg>
