<?xml version="1.0" encoding="utf-8"?>
<!-- Generator: Adobe Illustrator 19.2.1, SVG Export Plug-In . SVG Version: 6.00 Build 0)  -->
<svg version="1.1" id="Layer_1" xmlns="http://www.w3.org/2000/svg" xmlns:xlink="http://www.w3.org/1999/xlink" x="0px" y="0px"
	 viewBox="0 0 203 200" style="enable-background:new 0 0 203 200;" xml:space="preserve">
<style type="text/css">
	.st0{fill:#03A9F4;}
</style>
<g id="pharm-amber">
	<path class="st0" d="M0,187.4c0.9-0.3,1.7-0.7,2.6-1c1.6-0.6,3.2-1.2,4.8-1.8c2.1-0.8,4.2-1.7,6.4-2.4c3.3-1,6.6-1.9,10-2.8
		c0.4-0.1,0.8-0.1,1.2-0.3c0.8-0.3,1.6-0.5,2.4-0.9c1.1-0.6,2.2-1.2,3-2c1.4-1.3,2.4-2.9,3.1-4.8c0.7-2.1,1.7-4.2,2.4-6.4
		c0.8-2.5,1.5-5,2.3-7.5c0.1-0.2,0-0.4,0-0.6c0-1.5,0-3,0-4.6c0-3-0.3-5.9-1.1-8.9c-0.9-3.5-1.7-7.1-2.5-10.6c-0.4-2-1-3.9-1.1-5.9
		c-0.2-2.1,0-4.3,0.1-6.4c0.1-1.6,0.3-3.2,0.4-4.8c0.3-2.4,0.5-4.9,1.1-7.3c0.8-3.2,1.8-6.4,3.2-9.4c0.3-0.8,0.4-1.6,0.7-2.5
		c0.2-0.7,0.4-1.4,0.6-2.2c0.4-1.3,0.8-2.7,1.2-4c0.5-1.7,1.2-3.4,1.7-5.1c0.7-2.6,1.3-5.2,2-7.8c0.4-1.6,1.1-3.1,1.6-4.6
		c0.4-1.3,0.8-2.7,1.3-4.1c0.7-1.9,1.3-3.8,2.1-5.6c1-2.4,1.8-4.9,2.2-7.5c0.3-2.1,0.9-4.2,1.7-6.3c1.1-2.8,1.8-5.6,3.2-8.3
		c0.8-1.5,1.6-2.9,2.4-4.4c0.6-1.2,1.1-2.5,1.7-3.8c0.9-2,1.9-3.9,3.3-5.7c1.2-1.5,2.4-3.1,3.7-4.6c2-2.1,4.1-4.2,6.3-6.2
		c2.4-2.2,4.8-4.3,7.3-6.4c1.2-1,2.6-1.9,3.9-2.8c1.9-1.4,3.7-2.8,5.6-4.3c1.5-1.2,3.3-1.8,5.1-2.3c1.1-0.3,2.2-0.6,3.3-0.7
		c1.3-0.1,2.6-0.2,3.8-0.1c3.6,0.3,6.7,2,9.8,3.8c0.7,0.4,1.3,1,2,1.5c0.2,0.1,0.6,0,0.8-0.1c1.8-1.3,3.8-2.3,6-2.7
		c2.2-0.4,4.4-0.9,6.5,0.1c1.6,0.7,3.1,1.7,4.5,2.8c1.7,1.3,3.2,2.7,4.9,4c2,1.6,3.8,3.4,5.6,5.2c0.4,0.5,1,0.8,1.4,1.3
		c2.5,2.6,4.9,5.4,6.7,8.7c0.7,1.3,1.7,2.6,2.4,4c0.9,2,1.6,4.1,2.3,6.1c1.3,3.4,2.5,6.7,3.8,10.1c0.5,1.3,0.8,2.7,1.3,4
		c0.7,1.9,1.6,3.7,2.2,5.5c0.4,1.1,0.6,2.4,0.9,3.6c0.5,1.9,1,3.7,1.4,5.6c0.4,1.9,0.6,3.9,1,5.8c0.4,1.9,0.8,3.9,1.2,5.8
		c0.6,2.7,1.2,5.5,1.9,8.2c0.7,2.5,1.5,5,2.3,7.5c0.2,0.7,0.8,1.4,1.1,2.1c1,2.2,1.7,4.5,2.1,6.9c0.3,1.7,0.8,3.4,1.2,5.1
		c0.4,1.9,0.7,3.8,1,5.7c1.1,6.1,0.6,12.2,0.7,18.3c0,1.5-0.4,3-0.5,4.5c-0.2,2.4-0.8,4.6-1.3,6.9c-0.3,1.2-0.3,2.4-0.3,3.6
		c-0.1,2.3,0,4.5-0.2,6.8c-0.1,2.6,0.4,5,0.9,7.5c0.4,1.9,0.9,3.8,1.1,5.8c0.1,1.8,0.7,3.7,1.2,5.5c0.5,1.8,1.1,3.6,2.1,5.2
		c0.6,1,0.8,2.2,1.2,3.2c0.9,2,1.8,4,2.7,6c0.7,1.6,1.5,3.2,2,4.9c0.2,0.7,0.5,1,1.1,1.2c1.8,0.6,3.6,1.2,5.5,1.8
		c0.5,0.2,0.9,0.4,1.4,0.7c0.5,0.3,1,0.5,1.5,0.8c1,0.6,1.9,1.3,2.8,1.9c0.3,0.2,0.7,0.4,1.1,0.5c1.1,0.5,2.2,1,3.3,1.6
		c0,0.5,0,1,0,1.5c-0.1,0-0.1-0.1-0.2-0.1c-2.1-0.9-4.2-1.8-6.2-2.7c-0.2-0.1-0.3-0.2-0.4-0.4c-0.2-0.6-0.6-0.9-1.2-1.2
		c-0.4-0.2-0.8-0.4-1.3-0.6c-0.8-0.4-1.6-0.8-2.4-1.1c-2.6-0.9-5.3-1.6-8-2.5c-2.7-0.9-5.1-2.4-7.4-4c-2.2-1.5-4.5-2.7-7-3.5
		c-2.4-0.7-4.8-1.4-7-2.6c-1.4-0.8-2.7-1.8-3.8-3c-2.1-2.1-4.1-4.3-6.3-6.3c-2.2-2-3.7-4.4-5-7c-0.5-1-1.1-1.9-2-2.5
		c-0.5-0.3-1.1,0-1.2,0.5c0,0.3,0,0.6,0.1,0.8c0.2,0.7,0.5,1.3,0.8,2c0.5,1.4,0.6,2.8,0.8,4.3c0.2,1.3,0,2.5-0.6,3.6
		c-0.2,0.3-0.4,0.6-0.5,1c-1,3.3-2.2,6.5-3.9,9.4c-0.6,1-1.4,1.9-2.1,2.9c-1.9,2.6-3.7,5.3-5.7,7.8c-1.5,1.9-2.6,4.1-3.6,6.3
		c-0.1,0.1,0,0.3-0.1,0.4c-0.5,0-1.1,0-1.6,0c0.8-1.7,1.5-3.5,2.5-5.1c1-1.7,2.3-3.2,3.4-4.7c1.5-2.1,3-4.1,4.5-6.2
		c0.6-0.8,1.3-1.6,1.7-2.5c1-2.1,1.9-4.3,2.7-6.5c0.2-0.6,0.3-1.4,0-1.9c-0.6-1.4-1.4-2.7-2.2-3.9c-1.7-2.5-3.1-5-4.3-7.8
		c-1.3-3.3-2-6.7-2.1-10.3c0-0.9-0.1-1.8-0.2-2.8c-1.2,0.8-2.3,1.7-3.5,2.5c-2.6,1.7-5.3,3.4-8,5.2c-3.2,2.1-6.4,4.1-10.2,5
		c-2,0.4-3.9,1.1-5.9,1c-1.2,0-2.5,0.1-3.7,0c-1.9-0.1-3.9-0.1-5.7-0.7c-1.9-0.6-3.7-1.6-5.4-2.7c-2-1.2-3.9-2.7-5.8-4
		c-2.8-2-5.9-3.7-8.3-6.2c-0.6-0.6-1.2-1.2-1.8-1.7c0.1,0.5,0.3,1.1,0.3,1.7c0,1.5-0.1,2.9-0.1,4.4c0,2.3-0.5,4.5-1,6.8
		c-0.8,3.4-2.6,6.3-4,9.4c-0.2,0.5-0.5,0.9-0.8,1.4c-0.1,0.2-0.1,0.6,0,0.7c1.9,3.1,3.8,6.3,5.9,9.3c1.1,1.7,2.6,3.1,3.9,4.7
		c1.7,2,3.4,4,5.2,5.9c1.1,1.2,2.4,2.1,3.7,3.1c0.9,0.7,1.4,1.4,1.2,2.5c-0.2,1.2-0.5,2.4-0.7,3.6c-0.5,0-1,0-1.5,0
		c0.2-1.1,0.5-2.1,0.7-3.2c0.1-0.5,0-1.2-0.3-1.5c-0.7-0.7-1.6-1.3-2.4-2c-0.6-0.5-1.2-1-1.7-1.5c-1.1-1.2-2.1-2.4-3.2-3.6
		c-1.7-1.9-3.5-3.7-5.1-5.7c-1.6-2.1-3-4.3-4.5-6.5c-0.9-1.4-1.8-2.9-2.7-4.5c-0.3,0.3-0.5,0.6-0.7,0.8c-0.8,0.8-1.6,1.6-2.4,2.3
		c-2.2,1.7-4.4,3.5-6.6,5.1c-1.1,0.8-2.4,1.7-3.7,2c-2,0.6-4,1.1-6.2,0.9c-1.4-0.1-2.9,0-4.3,0c-0.2,0-0.4,0-0.6,0
		c-1.7-0.2-3.4-0.5-5.1-0.5c-3.3-0.1-6.6,0-9.9,0c-1,0-2-0.1-2.9-0.3c-1.1-0.2-2.3-0.4-3.4,0c-0.7,0.2-1.5,0.5-2.2,0.7
		c-2.3,0.6-4.6,1.2-6.9,1.9c-1.9,0.6-3.7,1.4-5.6,2.1c-0.9,0.3-1.8,0.5-2.6,0.8c-1.7,0.7-3.4,1.4-5.1,2.1C0,188.8,0,188.1,0,187.4z
		 M75.1,69.8c0.7-0.1,1.1-0.1,1.6-0.2c2.8-0.7,5.6-0.5,8.4,0.2c1.3,0.3,2.5,1,3.7,1.4c3.4,1.1,6.7,2.4,9.9,3.8
		c0.6,0.3,0.8,0.8,0.6,1.3c-0.2,0.5-0.7,0.8-1.2,0.7c-0.7-0.2-1.3-0.5-1.9-0.7c-0.7-0.3-1.5-0.7-2.2-1c-0.5-0.2-0.9-0.3-1.4-0.5
		c-3.3-1.2-6.4-2.8-9.9-3.4c-1.3-0.2-2.6-0.1-3.9-0.1c-0.9,0-1.9,0.3-2.8,0.4c-1.4,0.2-2.3,0.5-2.3,2.1c0,0.3-0.1,0.6-0.2,0.9
		c-0.9,3.9-2.7,7.5-4.1,11.3c-0.9,2.4-2,4.7-2.9,7.1c-0.5,1.4-0.9,2.9-1.1,4.3c-0.3,1.7-0.5,3.4-0.8,5.1c-0.1,1-0.2,1.9-0.3,2.9
		c-0.2,1.6-0.5,3.3-0.5,4.9c-0.1,1.9,0.1,3.8,0.1,5.7c0,2.6,0.6,5.1,1.2,7.5c0.7,2.4,1.5,4.7,2.4,7c1.4,3.5,3.4,6.6,5.4,9.8
		c0.7,1,1.5,2,2.2,3c1.9,2.8,4.3,5.2,7.1,7.2c3.2,2.2,6.4,4.4,9.6,6.6c1.7,1.1,3.4,2.3,5.4,2.7c1.8,0.3,3.6,0.5,5.5,0.6
		c2.7,0.2,5.4-0.1,8-0.8c2.8-0.8,5.5-1.8,8-3.4c1.5-0.9,2.9-1.9,4.3-2.9c2.6-1.7,5.3-3.3,7.8-5.1c1.5-1.1,3.1-2.3,3.9-4.1
		c0-0.1,0.1-0.2,0.2-0.2c0.9-0.2,1.2-1,1.7-1.6c2.8-3.4,5-7.1,6.5-11.2c0.9-2.5,1.8-5,2.5-7.5c0.7-2.6,1.2-5.3,1.7-7.9
		c0.4-2,0.6-4,0.3-6.1c-0.5-2.9-0.9-5.9-1.3-8.8c-0.3-1.9-0.5-3.8-0.6-5.8c0-4,0.1-7.9,0.1-11.9c0-0.8,0-1.6,0.2-2.4
		c0.2-1.2-0.2-2-1.4-2.5c-1.7-0.7-3.4-1.7-5.1-2.5c-2.2-1-4.4-0.5-6.5,0.3c-1.4,0.6-2.8,1.2-4.3,1.8c-1.8,0.7-3.7,0.9-5.6,1.1
		c-0.7,0.1-1.3,0-2-0.1c-0.6-0.1-1-0.9-0.9-1.4c0.1-0.6,0.6-0.8,1.3-0.8c1.1,0.1,2.2,0,3.3-0.3c0.5-0.2,1-0.3,1.4-0.4
		c2-0.4,4.1-0.8,6-1.7c1.3-0.6,2.8-0.8,4.2-1c1.6-0.3,3.2,0.2,4.6,0.9c1.3,0.6,2.5,1.4,3.7,2.1c0.2,0.1,0.6,0.1,0.8,0.2
		c0-0.3,0.1-0.6,0.1-0.9c0-0.3-0.2-0.6-0.2-1c0-0.7,0.1-1.5,0.1-2.2c0-1.8-0.1-3.6-0.1-5.4c0-0.8-0.1-1.6-0.2-2.4
		c-0.2-1.3-0.5-2.6-0.8-3.8c-0.6-2.8-1.3-5.5-2.6-8.1c-0.8-1.6-1.9-3.2-2.4-4.9c-0.7-2.5-1.2-5-1.9-7.5c-0.4-1.4-1.2-2.5-2.2-3.5
		c-2.3-2.3-4.8-4.2-7.5-6c-2.3-1.5-4.9-2.1-7.5-2.5c-1.5-0.3-3-0.3-4.5-0.5c-0.6-0.1-1.3-0.1-1.7-0.9c-0.5-1-0.9-2-0.9-3.2
		c0-2.8,0-5.5,0-8.3c0-0.3,0.1-0.6,0.1-0.8c0.1-1.1,0.2-2.2,0.1-3.2c0-0.3-0.4-0.6-0.6-0.8c-0.3,0.2-0.7,0.4-0.7,0.6
		c-0.3,1.4-0.7,2.8-0.7,4.2c-0.1,2.9,0,5.8,0.1,8.7c0,0.9,0.2,1.9,0.3,2.8c0.2,1.2-0.1,1.5-1.3,1.3c-0.8-0.1-1.7-0.2-2.6,0
		c-1.3,0.3-2.6,0.8-3.9,1.2c-3.6,1.1-7,2.5-10.3,4.3c-0.8,0.4-1.5,1-2.2,1.6c-1.1,1.1-2,2.2-3,3.4c-1.4,1.7-2.8,3.4-4,5.2
		c-1,1.5-1.6,3.2-2.5,4.8c-2,3.3-3.5,6.7-3.6,10.6c0,0.7-0.1,1.4-0.3,2.1c-0.7,2.1-1.5,4.1-2.3,6.1C75.7,68.2,75.5,68.9,75.1,69.8z"
		/>
	<path class="st0" d="M104.9,144.1c-1.7-0.2-3.5-0.3-5.1-0.7c-1.8-0.4-3.3-1.5-4.7-2.7c-2.6-2.2-4-5.2-5.3-8.2c-1-2.2-2.4-4-4.1-5.6
		c-0.4-0.3-0.7-0.7-1-1c-0.1-0.2-0.2-0.5-0.2-0.6c0.1-0.1,0.4-0.2,0.6-0.2c0.7,0,1.4,0.4,2,0.8c0.6,0.3,1.3,0.4,1.9,0.5
		c2.3,0.3,4.6,0.5,6.9,0c2.6-0.6,5.2-1,7.9-1c0.8,0,1.6,0.1,2.3,0.7c0.9,0.8,1.9,0.6,2.8,0.1c1.2-0.7,2.4-0.7,3.7-0.3
		c2,0.6,4.1,1.3,6.1,1.8c1.7,0.4,3.5,1.1,5.3,0.8c0.4-0.1,0.9,0.1,1.3,0.2c0.2,0.1,0.5,0.2,0.5,0.4c0,0.2-0.1,0.5-0.3,0.7
		c-0.1,0.1-0.3,0.2-0.5,0.3c-1.8,0.3-2.8,1.6-3.8,2.8c-1.8,2.2-3.1,4.8-5.3,6.7c-1.4,1.2-2.6,2.7-4.5,3.3c-2.2,0.7-4.4,1.3-6.7,1
		C104.9,143.9,104.9,144,104.9,144.1z M121.7,131c-0.7,0.3-1.4,0.6-2.1,0.9c-1.6,0.7-3.2,1.6-4.9,2.3c-0.9,0.4-1.8,0.6-2.8,0.9
		c-1.2,0.4-2.4,1-3.7,1.1c-2.7,0.2-5.4,0.2-8.1-0.7c-1.7-0.6-3.1-1.6-4.6-2.6c-1.8-1.2-3.7-2.3-5.5-3.4c-0.6-0.4-1.2-0.8-1.8-1.3
		c0,0.2,0,0.2,0.1,0.3c0.9,1.5,1.9,2.9,2.6,4.5c1.2,2.6,2.5,5.1,4.7,7.1c2.1,2,4.7,2.9,7.5,3.1c1.2,0.1,2.4,0,3.6,0
		c1.8,0.1,3.5-0.5,5.1-1.3c2.2-1.1,3.9-2.9,5.4-4.7C118.8,135.1,120.2,133,121.7,131z M120.7,129.3c0-0.1,0-0.2,0-0.3
		c-0.6-0.2-1.2-0.3-1.8-0.5c-1.9-0.6-3.7-1.1-5.5-1.7c-1.5-0.5-2.9-0.7-4.4,0.2c-1.2,0.7-2.4,0.4-3.4-0.4c-0.3-0.2-0.7-0.5-1-0.4
		c-1.9,0.1-3.9,0-5.7,0.4c-2.2,0.4-4.3,0.9-6.5,0.9c-0.5,0-0.9-0.1-1.4-0.1c0.6,0.4,1.2,0.8,1.9,1c3.4,1.3,7,1.8,10.6,2
		c2.6,0.1,5.2,0,7.8,0c0.2,0,0.4,0,0.6,0c2.1-0.2,4.1-0.4,6.2-0.6C118.9,129.7,119.8,129.5,120.7,129.3z M119.4,130.8
		c0,0,0-0.1,0-0.1c-0.7,0-1.4,0-2.1,0c-2.1,0.2-4.2,0.5-6.3,0.5c-3.9,0.1-7.8,0.2-11.7-0.4c-1.8-0.3-3.6-0.7-5.3-1.1
		c-0.9-0.2-1.8-0.6-2.6-0.9c0.9,0.8,1.9,1.6,3,2.2c0.6,0.4,1.2,0.7,1.8,1.1c1.3,0.9,2.6,2,4.2,2.4c1.5,0.4,2.9,1,4.5,0.9
		c1.5-0.1,3,0,4.4-0.2c1.1-0.2,2-0.8,3.1-1c2.4-0.6,4.5-1.7,6.6-2.8C119,131.1,119.2,131,119.4,130.8z"/>
	<path class="st0" d="M87.2,81.9c3.1,0.2,5.5,0.9,7.6,2.5c1.4,1.1,2.8,2.2,4.2,3.3c0.1,0.1,0.3,0.5,0.2,0.6
		c-0.1,0.2-0.4,0.4-0.7,0.4c-0.8,0.1-1.7,0-2.5,0.2c-2,0.3-4,0.7-6,1c-1.7,0.3-3.3,0.1-4.9-0.4c-1.9-0.6-3.3-1.8-4.9-2.9
		c-0.6-0.4-1.2-0.7-1.8-1.1c-0.3-0.2-0.6-0.4-0.6-0.7c-0.1-0.4,0.4-0.5,0.7-0.6c1.7-0.9,3.5-1.3,5.3-1.7C85,82.2,86.3,82,87.2,81.9z
		 M91.8,83.7c0.4,1.9,0.2,3.5-0.9,5c0.1,0,0.1,0.1,0.2,0.1c2.1-0.3,4.2-0.7,6.5-1C95.8,86.1,93.9,84.9,91.8,83.7z M79.4,84.8
		c2,1.3,3.5,2.9,5.6,3.6c-1.2-1.6-2-3.2-0.5-5.2C82.6,83.5,81.2,84.3,79.4,84.8z M87,85.1c0.1,0.1,0.4,0.4,0.6,0.4
		c0.5,0,0.9-0.3,0.8-0.9C88.4,84.4,88,84,87.8,84C87.3,84,86.9,84.3,87,85.1z"/>
	<path class="st0" d="M128.5,84.9c2.9,0,5.4,1.1,7.7,2.8c0.9,0.6,1.7,1.3,2.6,2c0.5,0.4,0.4,0.7-0.2,1c-1.8,0.9-3.6,1.4-5.6,1.7
		c-2.5,0.3-5,0.1-7.5-0.5c-1.8-0.4-3.5-0.9-5.2-1.4c-0.2-0.1-0.5,0-0.7,0c-0.7,0-0.9-0.4-0.5-1c1-1.5,2.4-2.6,4-3.2
		c1.4-0.5,2.8-0.9,4.2-1.3C127.7,84.8,128.1,84.9,128.5,84.9z M137.6,90c-1.7-1.1-3.2-2.4-4.9-3.2c-0.1,1,0,1.9-0.3,2.6
		c-0.3,0.8-0.9,1.4-1.4,2.2C133.4,91.5,135.5,90.9,137.6,90z M125.2,86.4c-2,0.5-3.7,1.3-5,3.1c1.8,0.5,3.5,0.9,5.3,1.4
		c0-0.1,0.1-0.1,0.1-0.2C124.8,89.4,124.6,88,125.2,86.4z M129.9,87.6c-0.5-0.3-0.8-0.6-1.1-0.7c-0.5-0.1-0.7,0.4-0.8,0.8
		c0,0.4,0.3,0.8,0.7,0.7C129.1,88.4,129.4,88,129.9,87.6z"/>
	<path class="st0" d="M97.7,106.6c-0.1,0.3-0.2,0.6-0.4,0.8c-1,0.9-1.4,2-1.6,3.3c-0.1,1,0.4,2,1.5,2.3c1.2,0.4,2.5,0.7,3.7,0.9
		c1.1,0.1,1.7,0.7,2.3,1.5c0.5,0.7,1.1,1.3,1.7,1.8c0.5,0.3,1.2,0.4,1.8,0.5c0.8,0.1,1.5,0,2.3,0c1.3,0,2-1.1,2.7-1.9
		c1-1.1,2.1-1.4,3.4-1.9c0.9-0.3,1.8-0.6,2.6-1c0.8-0.4,1.3-1,1.1-2.4c-0.1-0.4-0.1-0.9-0.2-1.3c-0.1-0.4-0.2-0.9-0.3-1.3
		c0.1-0.1,0.1-0.1,0.2-0.2c0.2,0.1,0.5,0.2,0.6,0.4c0.6,1.2,0.7,2.5,0.5,3.7c-0.1,0.6-0.7,1.2-1.3,1.6c-0.6,0.5-1.4,0.8-2.2,1
		c-1.8,0.4-3.4,1.2-4.6,2.7c-0.8,1-2,1.4-3.3,1.4c-0.9,0-1.8,0-2.6-0.2c-0.6-0.1-1.2-0.5-1.7-0.9c-0.7-0.6-1.3-1.5-2.1-2.1
		c-0.7-0.6-1.6-0.6-2.4-0.8c-1.2-0.3-2.4-0.5-3.5-1c-1.2-0.5-1.5-1.7-1.3-2.9c0.2-1.5,0.8-2.8,1.9-3.7c0.2-0.2,0.5-0.2,0.7-0.3
		C97.5,106.5,97.6,106.5,97.7,106.6z"/>
</g>
</svg>
