<?xml version="1.0" encoding="utf-8"?>
<!-- Generator: Adobe Illustrator 19.2.1, SVG Export Plug-In . SVG Version: 6.00 Build 0)  -->
<svg version="1.1" id="Layer_1" xmlns="http://www.w3.org/2000/svg" xmlns:xlink="http://www.w3.org/1999/xlink" x="0px" y="0px"
	 viewBox="0 0 168.6 200" style="enable-background:new 0 0 168.6 200;" xml:space="preserve">
<style type="text/css">
	.st0{fill:#00BCD4;}
</style>
<g id="pharm-trina-cyan">
	<path class="st0" d="M65,199.9c0.6-1.5,1.2-2.9,1.9-4.3c1-2.1,1.9-4.2,3-6.2c2.4-4.4,4.8-8.9,7.3-13.2c2.2-3.8,4.4-7.6,6.8-11.3
		c2.2-3.4,4.6-6.7,6.8-10.1c2.2-3.3,4.1-6.8,6.2-10.2c0.9-1.5,2-2.8,3-4.2c1.4-1.8,2.8-3.6,4.2-5.4c0.9-1.1,0.8-1.5-0.2-2.5
		c-1.4-1.5-2.8-3.1-4.3-4.6c-0.5-0.6-1.1-1-1.9-1.7c-0.7,1.8-1.4,3.6-1.9,5.3c-0.8,2.7-2.5,4.9-4.1,7.1c-1.2,1.6-2.3,3.3-3.4,4.9
		c-2.6,4-6.1,7-10.1,9.5c-1.6,1-3,2.2-4.5,3.3c-1.6,1.1-3.3,2-5.2,2.5c-1.5,0.4-2.9,1.2-4.4,1.6c-3,0.8-6,1.5-8.9,2.2
		c-0.4,0.1-0.8,0-1.3,0c0.5,1.4,0.9,2.7,1.4,3.9c1.1,2.5,1.5,5.3,2.3,7.9c0.9,3.1,2,6.2,2.9,9.3c0.6,2.1,1.3,4.1,1.8,6.3
		c0.5,2.3,0.9,4.5,1.2,6.8c0.2,1.1,0,2.2,0,3.4c-11.1,0-22.2,0-33.3,0c-0.2-1.5-0.7-3.1-0.7-4.6c0-2,0.5-4,0.7-6
		c0.1-0.4,0.3-0.9,0.2-1.3c-0.1-1.2,0.4-2.3,0.7-3.5c0.1-0.5,0.1-1,0.1-1.8c-0.5,0.4-0.8,0.6-1.1,0.8c-2.8,2.3-5.4,4.7-8.3,6.9
		c-1.6,1.2-3.4,2.1-4.6,3.7c-1.2,1.6-2.3,3.4-3.3,5.2c-0.3,0.5-0.6,0.8-1.3,0.6c0.9-2,1.9-4,3.3-5.6c1.3-1.4,2.7-2.7,4.3-3.9
		c1.8-1.5,3.8-2.8,5.7-4.2c1.2-0.9,2.2-1.9,3.3-2.9c0.4-0.4,0.7-0.9,1.1-1.5c-0.3-1-0.7-2.4-1.2-3.8c-1-2.5-2-5-3.1-7.5
		c-0.9-2-2.1-3.9-3.8-5.3c-1.8-1.6-3-3.6-4.1-5.7c-1.4-2.6-2.7-5.1-3.8-7.8c-0.9-2.2-1.2-4.6-1.4-7c-0.3-3.5-0.2-6.9-0.1-10.4
		c0.1-2.3,0.4-4.5,1.3-6.7c0.4-1.1,0.6-2.4,0.8-3.6c0.2-1.4,0.4-2.8,0.6-4.2c0.2-2.4-0.7-4.6-1.5-6.9c-0.6-1.9-2.1-3.3-3.1-4.9
		c-1.7-2.9-3.4-5.9-5-8.8c-1.5-2.7-2.9-5.4-3.7-8.3c-0.6-2.2-1.1-4.5-1.5-6.8c-0.4-2.4-0.7-4.9-1-7.3c0-0.2,0-0.5,0-0.7
		c0-2.8,0-5.7,0-8.5c0-3.4,0.5-6.7,1.3-9.9c0.5-2,1.2-3.9,1.7-5.9c0.2-0.9,0.2-1.9,0.4-2.8C4,45.7,5.1,43,6.6,40.5
		c1.5-2.5,3.2-5,4.3-7.8c0.9-2.5,2-5,3.3-7.3c1-1.7,2.4-3.2,3.6-4.8c2.6-3.1,5.8-5.5,8.9-8c2.4-2,5-3.7,7.5-5.6
		c1.6-1.2,3-2.5,4.9-3.4c2.4-1.1,4.7-2.3,7.1-3.4C46.6,0.1,47.1,0,47.6,0c2.3,0,4.6,0,6.8,0.2c2.1,0.3,4.2,0.9,6.3,1.3
		c0.4,0.1,0.8,0.2,1.2,0.1c2.6-0.1,5.1,0.6,7.6,1.1c0.2,0,0.4,0.1,0.6,0.2c1.5,0.6,2.9,1.5,4.5,1.6c0.2,0,0.5,0.2,0.7,0.3
		c0.8,0.4,1.7,0.7,2.5,1.1C78.9,6.4,80,7,81.1,7.4c3.3,1.2,6.3,2.9,9,5.1c1.9,1.5,3.8,2.8,5.2,4.7c0.7,1,1.5,2,2,3.1
		c0.6,1.4,1.9,1.8,3,2.4c1.2,0.6,2,1.6,2.8,2.5c1.2,1.4,2.3,3,3.4,4.4c0.8,1,1.9,1.9,2.7,2.9c1,1.4,1.9,2.9,2.8,4.3
		c0.6,1,1.2,2,1.9,3c1.9,2.4,3.9,4.7,5.1,7.5c0.7,1.6,1.2,3.2,1.9,4.8c0.3,0.6,0.7,1.2,1,1.8c0.5,1.1,1.1,2.3,1.5,3.5
		c0.7,1.7,1.3,3.4,2,5.2c0.2,0.4,0.3,0.9,0.3,1.4c0.1,2.1,0.8,3.9,2,5.5c0.8,1.1,1.3,2.3,1.9,3.5c0.5,1,0.9,2.2,1.6,3.1
		c1.2,1.8,2.4,3.5,3.7,5.1c1,1.2,1.5,2.7,2.4,4c0.5,0.8,1.3,1.4,1.8,2.2c0.9,1.3,1.7,2.6,2.4,4c0.8,1.4,1.4,2.9,2.1,4.3
		c0.8,1.7,1.5,3.5,2.2,5.2c0,0.1,0,0.2,0.1,0.2c0.9,1,1.2,2.3,1.5,3.5c0.4,1.6,0.9,3.3,1.5,4.9c0.3,0.9,0.7,1.7,1,2.6
		c0.6,1.8,1.3,3.6,1.8,5.4c0.3,1.1,0.5,2.3,0.8,3.5c0.2,0.8,0.6,1.6,0.8,2.4c0.8,2.4,0.7,4.9,0.7,7.4c0,0.4,0,0.8,0.2,1.1
		c0.7,1.1,0.7,2.4,0.8,3.7c0.1,1-0.1,1.9-0.1,2.9c0,0.9,0.1,1.9,0.1,2.8c0,1.1-0.1,2.1-0.1,3.2c0,1.2,0,2.3,0.1,3.5
		c0.1,1.4,0.4,2.8,1.2,4c0.1,0.2,0.2,0.5,0.2,0.8c-0.1,1.8,0.9,3.1,1.9,4.5c0.1,0.1,0,0.4,0.1,0.5c0.1,0.3,0.2,0.6,0.4,0.8
		c0.7,0.7,1.5,1.4,2.1,2.2c1,1.2,1.9,2.6,2.9,3.8c0.6,0.9,1.3,1.7,2,2.6c0.8,1.1,1.6,2.3,2.2,3.5c0.3,0.5,0.3,1.2,0.3,1.8
		c0,9,0,18.1,0,27.1c0,0.1,0,0.2,0,0.4c-1.6,0-3.2,0-4.7,0c-0.2,0-0.4-0.3-0.5-0.5c-0.8-1.9-1.7-3.7-2.5-5.7c-0.9-2.2-2-4.2-3.5-6
		c-1.1-1.3-2.3-2.6-3.3-3.9c-1.3-1.6-2.9-2.9-3.8-4.8c-0.3-0.5-0.9-0.8-1.3-1.2c-1.8-2-3.5-4-5.2-6.1c-1.6-2-3.1-4.1-4.8-6.1
		c-1-1.1-2.2-1.9-3.3-3c-1.7-1.6-3.4-3.3-5.1-5c-0.6-0.6-1.1-1.3-1.7-1.9c-1.1-1.1-2-2.2-2.7-3.6c-0.6-1.2-1.2-2.4-2.7-2.8
		c-0.7,1.3-1.4,2.8-2.3,4.2c-1.5,2.2-3.4,4.2-5.5,5.9c-1.3,1.1-2.5,2.3-3.8,3.4c-2.3,2-4.7,3.8-7,5.8c-1.3,1.1-2.4,2.2-3.6,3.4
		c-1.6,1.6-3.3,3.2-4.8,4.8c-1.4,1.5-2.7,3.2-4,4.9c-1.4,1.6-2.8,3.2-4.1,4.9c-0.9,1.2-1.8,2.6-2.5,3.9c-1.6,3.1-3.5,5.9-5.5,8.7
		c-0.3,0.5-0.4,0.5-1.8,0.3c1-1.4,1.9-2.8,2.9-4.2c1-1.5,2-3,2.8-4.6c1.7-3.4,3.9-6.4,6.6-9.2c1.2-1.2,2.1-2.7,3.1-4
		c0.9-1.1,2-2.1,3-3.2c0.9-0.9,1.7-1.7,2.6-2.6c2.1-2,4.1-4.1,6.2-6c1.3-1.2,2.8-2.2,4.1-3.3c1.6-1.3,3.2-2.6,4.8-4
		c1.2-1.1,2.4-2.2,3.4-3.4c1.7-2,3.3-4.1,3.8-6.8c0.1-0.3-0.1-0.7-0.3-0.9c-2.3-2.2-4.6-4.4-6.9-6.6c-0.3-0.3-0.5-0.7-0.8-1
		c-1.2-0.9-2.3-1.9-3.5-2.8c-0.9-0.8-1.9-1.5-2.8-2.3c-0.5-0.4-0.8-0.3-1.2,0.2c-1.3,1.6-2.8,3.2-4.1,4.8c-1.4,1.9-2.7,3.8-4.1,5.8
		c-1.2,1.8-2.4,3.5-3.5,5.3c-1.4,2.2-2.8,4.5-4.2,6.7c-2.3,3.4-4.6,6.8-6.8,10.2c-1.3,2.1-2.5,4.3-3.8,6.4c-0.8,1.4-1.7,2.7-2.5,4.1
		c-2.5,4.4-5.2,8.7-7.1,13.4c-0.6,1.4-1.4,2.7-2.1,4.1c-0.5,1-1,1.9-1.3,3C66.6,200,66,200.2,65,199.9z M40.3,37.9
		c0.5-1.2,0.9-2.3,1.5-3.3c0.9-1.6,2-3,2.9-4.6c1.4-2.3,3.2-4.2,5.3-5.8c0.2-0.2,0.6-0.6,0.5-0.7c-0.2-0.3-0.5-0.7-0.8-0.7
		c-0.4-0.1-0.9,0.1-1.1,0.4c-1.2,1.3-2.3,2.6-3.4,4c-1.2,1.5-2.3,3-3.6,4.4C40.2,33.2,39,35,38,36.9c-0.2,0.3-0.5,0.5-0.8,0.7
		c-1,0.4-2.1,0.7-3.2,1.1c-1.3,0.5-2.6,1-3.9,1.5c-1.2,0.5-2.4,0.7-3.4,1.7c-1.4,1.4-3.1,2.4-4.5,3.7c-0.9,0.9-2.2,1.4-2.9,2.6
		c-1.5,2.7-3.4,5.3-4.8,8.1c-1.2,2.4-2.1,4.9-2.3,7.6c-0.1,1.7-0.4,3.3-0.5,5c-0.2,3,0.1,6,0.5,9c0,0.2,0.3,0.5,0.5,0.5
		c2.6-0.1,5.2-0.2,7.8-0.2c1,0,2.1,0.1,3.1,0.3c1.8,0.4,3.5,0.9,5.2,1.4c0.7,0.2,1.4,0.3,2,0.6c0.3,0.1,0.5,0.8,0.4,1.1
		c-0.1,0.5-0.6,0.7-1.2,0.5c-0.4-0.1-0.8-0.3-1.2-0.4c-3.7-1.3-7.5-1.8-11.4-1.6c-1.4,0.1-2.7,0.1-4.1,0.2c0.1,1.2,0.1,2.2,0.2,3.3
		c0.2,2.7,0.4,5.3,0.7,8c0.1,1.5,0.3,2.9,0.5,4.4c0.1,1.2,0.2,2.3,0.2,3.5c0,1.8-0.2,3.5-0.3,5.3c0,0.6,0.2,1.2,0.3,1.8
		c0.3,1.8,0.4,3.7,0.8,5.5c0.4,2.2,1,4.3,1.5,6.4c0.5,1.8,0.8,3.7,1.7,5.4c2.3,3.8,4.4,7.8,6.6,11.6c1.1,1.8,2.4,3.5,3.7,5.2
		c0.8,1,1.8,1.8,2.7,2.7c0.9,0.9,1.6,1.9,2.6,2.6c1.9,1.6,3.3,3.5,4.1,5.9c1,2.9,2.6,5.3,5.2,7c3.3,2.2,7,2.7,10.8,2.1
		c3.3-0.5,6.6-1.4,9.9-2.3c1.4-0.4,2.8-1,4.2-1.6c1.4-0.6,2.9-1.2,4.2-2c2.8-1.9,5.6-3.8,8.3-5.9c1.5-1.2,3-2.4,4.2-3.9
		c2.2-2.8,4.1-5.8,6.2-8.7c1.6-2.2,3-4.4,3.8-7.1c0.2-0.8,0.6-1.6,0.9-2.4c0.7-1.6,0.7-2.1-0.5-3.4c-0.1-0.1-0.2-0.3-0.3-0.4
		c-0.7-1.1-1.3-2.3-2.1-3.4c-1.7-2.4-3.2-5-4.1-7.9c-1.3-4.1-2.7-8.1-4.6-11.9c-0.5-0.9-0.9-1.8-1.3-2.8c-1-2.2-1.8-4.4-2.8-6.6
		c-0.8-1.7-1.7-3.3-2.4-4.9c-1.7-4.1-3.6-8-6-11.7c-0.3-0.5-0.6-0.7-1.3-0.6c-1.5,0.3-2.9,0.5-4.4,0.9c-2.2,0.6-4.4,1.2-6.5,2
		c-1.3,0.5-2.7,1-3.6,2.3c-0.3,0.5-0.7,0.8-1.4,0.4c-0.6-0.4-0.7-0.9-0.3-1.4c0.4-0.6,0.9-1.1,1.4-1.5c2.1-1.4,4.5-1.9,6.8-2.6
		c2.6-0.8,5.1-1.4,7.8-2.1c-0.1-0.3-0.2-0.5-0.3-0.8c-0.1-0.3-0.2-0.5-0.3-0.8c-1.7-4.6-4-8.8-6.7-12.9c-0.4-0.6-0.9-1.2-1.3-1.8
		c-0.8-1-1.5-2.1-2.4-3c-1.1-1.1-2.3-2.1-3.4-3.1c-0.4-0.3-0.8-0.6-1.1-0.9c-0.6-0.4-1.3-0.8-1.9-1.3c-0.7-0.6-1.2-1.3-1.9-1.8
		c-2.6-1.8-5.2-3.7-7.5-5.9C42.9,38.6,41.8,37.9,40.3,37.9z"/>
	<path class="st0" d="M48.7,142.7c-1.4-0.2-3-0.1-4.3-0.6c-1.8-0.7-3.5-1.8-5-3c-2.1-1.5-3.7-3.6-4.8-6c-0.7-1.6-1.6-3.2-3.3-4.1
		c-0.2-0.1-0.3-0.6-0.3-0.9c0-0.2,0.5-0.3,0.7-0.3c2,0,3.9,0.1,5.9,0c2.8-0.2,5.5-0.7,8.3-0.9c0.7-0.1,1.4,0.2,2.2,0.3
		c0.4,0.1,1,0.2,1.3,0.1c1.7-0.9,3.6-0.8,5.4-0.8c2.6,0,5.1-0.1,7.7-0.2c1.9,0,3.9-0.2,5.8-0.1c1.1,0,2.1,0.4,3.2-0.3
		c0.1-0.1,0.4,0.1,0.5,0.2c0.1,0.2,0.1,0.5,0,0.7c-0.3,0.5-0.7,1-1.1,1.5c-1.6,1.9-3.1,3.9-4.8,5.8c-0.5,0.6-1.2,0.9-1.6,1.5
		c-2.4,2.8-5.6,4.4-8.9,5.8c-2.2,0.9-4.4,1.4-6.8,1.2C48.7,142.5,48.7,142.6,48.7,142.7z M68.7,129.2c-0.1,0-0.1-0.1-0.2-0.1
		c-1.8,1.1-3.6,2.3-5.4,3.2c-3.4,1.7-7,2.9-10.8,3.9c-2.6,0.7-5.3,0.4-7.7-0.5c-2.8-1.1-5.4-2.9-8-4.4c-0.9-0.5-1.7-1-2.8-1.6
		c0.7,1.3,1.5,2.3,1.9,3.4c1.7,3.8,4.8,6.1,8.3,7.9c2.3,1.1,5,0.7,7.5,0.5c2.3-0.2,4.5-1.3,6.5-2.4c1.4-0.7,2.7-1.5,3.9-2.5
		c1.6-1.3,2.9-2.8,4.3-4.3C67.2,131.2,67.9,130.2,68.7,129.2z M35.3,129c0,0.1-0.1,0.1-0.1,0.2c1,0.5,2,1,3,1.4
		c0.7,0.2,1.4,0.3,2.2,0.3c1.2,0,2.4,0.1,3.5,0c2.4-0.2,4.8-0.7,7.3-0.8c3-0.1,6.1,0,9-0.6c2.8-0.6,5.5-1.4,8.2-2.2
		c0-0.1,0-0.2,0-0.2c-0.8,0-1.5-0.2-2.3-0.1c-1.2,0.1-2.5,0.3-3.7,0.3c-2.2,0.1-4.4,0.1-6.6,0.2c-1,0-2-0.1-2.9,0
		c-0.9,0.1-1.8,0.4-2.7,0.5c-0.8,0.1-1.6,0.3-2.3,0.1c-1.5-0.6-2.9-0.5-4.3-0.2c-1.7,0.3-3.5,0.5-5.3,0.8
		C37.2,128.8,36.2,128.9,35.3,129z M66.7,128.9c-0.2,0-0.3,0-0.3,0c-3.8,1.5-7.7,2-11.8,2.2c-2,0.1-4,0.1-6,0.2
		c-2.3,0.2-4.5,0.4-6.8,0.7c-0.6,0.1-1.1,0-1.7,0c2.2,1.1,4,2.9,6.6,3.2c1.9,0.2,3.8,0.4,5.7-0.1c1.7-0.4,3.3-1.1,5-1.6
		C60.8,132.5,63.8,131,66.7,128.9z"/>
	<path class="st0" d="M56.2,91.1c0.9-2.4,1.5-4.8,3.4-6.4c1.5-1.2,3.2-2.1,5.2-2.3c2.5-0.3,4.9-0.2,7.3,0.6c0.8,0.2,1.5,0.6,2.2,0.9
		c0,0.1-0.1,0.2-0.1,0.3c-0.3,0-0.6,0-0.8-0.1c-2.4-0.7-4.9-1.3-7.5-1.1c-3.4,0.3-6,1.8-7.6,4.8c-0.2,0.3-0.3,0.7-0.4,1.2
		c0.2-0.1,0.3-0.3,0.5-0.4c1-0.9,2-1.8,3.1-2.6c2.3-1.7,4.9-1.7,7.5-1.5c2.7,0.3,4.7,1.8,6.7,3.5c0.4,0.3,0.4,0.5,0,1
		c-1.4,1.6-3.3,1.8-5.1,2c-3.5,0.3-7,0.4-10.5,0.5C58.7,91.6,57.5,91.3,56.2,91.1z M57.3,90.5c2.7,0.6,5.3,0.5,8.2,0.3
		c-1.9-1.5-1.6-3.3-1.2-5.4C61.4,86.4,59.5,88.6,57.3,90.5z M74.8,88.7c-1-1.1-1.8-2.2-3.2-2.5c-0.3,1.4-0.6,2.7-0.9,4
		C72.1,90,73.6,89.9,74.8,88.7z M66.5,87c0,0.1,0,0.3,0.1,0.4c0.4,0.1,0.8,0.3,1.1,0.2c0.2-0.1,0.4-0.5,0.5-0.8
		c0-0.1-0.4-0.5-0.4-0.5C67.3,86.5,66.9,86.7,66.5,87z"/>
	<path class="st0" d="M36.7,89.3c-2.3-2-4.8-3.9-8-3.6c-2.9,0.2-6,0.2-8.3,2.7c-0.3-0.8-0.1-1.3,0.8-1.6c1.3-0.5,2.7-1.1,4.1-1.3
		c1.5-0.3,3.1-0.5,4.6-0.3c1.3,0.1,2.5,0.6,3.7,1.1c1,0.5,1.9,1.2,2.9,1.8c1.1,0.7,1.7,1.7,2.2,2.9c0.1,0.2-0.1,0.6-0.2,0.8
		c-1.4,1.3-3.1,2.1-5,2.3c-2.1,0.3-4.3,0.4-6.4,0.3c-1.5-0.1-3-0.4-4.4-1c-0.8-0.3-1.4-1.3-2.1-2.1c-0.1-0.1,0.1-0.6,0.2-0.7
		c0.7-0.8,1.5-1.5,2.5-1.7c2.2-0.4,4.5-1,6.7-1.2C32.3,87.4,34.5,88.3,36.7,89.3z M27.8,93.6c-1.7-1.3-1.9-3-1.2-5.1
		c-1.5,0.6-2.9,1-4.2,1.7c-1.5,0.7-1.5,1.4-0.1,2.4c0,0,0.1,0,0.2,0.1C24.1,93.6,26,93.4,27.8,93.6z M33.3,93.4
		c1.3-0.3,2.6-0.7,3.8-1.6c0.7-0.5,0.7-1-0.1-1.4c-0.9-0.5-1.8-0.9-2.6-1.3C34,90.6,33.7,92,33.3,93.4z M29.8,89.2
		c-0.3,0.4-0.5,0.7-0.8,0.9c0.2,0.2,0.5,0.6,0.7,0.5c0.3,0,0.5-0.4,0.8-0.6C30.3,89.9,30.1,89.6,29.8,89.2z"/>
	<path class="st0" d="M46,121.6c-1.3-0.5-2.4-0.9-3.6-1.3c-2.1-0.7-3.8-1.9-5.1-3.7c-0.5-0.8-0.6-1.5-0.4-2.4
		c0.3-1.8,0.9-3.4,1.9-4.9c0.1-0.1,0.1-0.3,0.1-0.4c0.1-0.2,0.2-0.5,0.4-0.6c0.1-0.1,0.5,0.1,0.6,0.2c0.1,0.3,0.2,0.6,0.1,0.8
		c-0.4,0.9-1,1.8-1.4,2.8c-0.3,0.8-0.6,1.7-0.6,2.6c0,0.5,0.2,1.1,0.6,1.5c1.1,1.4,2.5,2.4,4.2,3c0.7,0.2,1.3,0.6,1.9,0.8
		c1.6,0.6,2.8-0.2,4.1-1.2c1.9-1.6,3.8-3.1,6.2-3.8c1.1-0.3,2.2-0.5,3.3-0.8c1.1-0.4,1.6-1.6,1.1-2.7c-0.4-0.9-0.8-1.8-1.9-2.1
		c-0.2-0.1-0.4-0.2-0.5-0.4c-0.1-0.2-0.2-0.6-0.2-0.6c0.2-0.2,0.6-0.4,0.8-0.3c1.3,0.7,3.1,2.2,2.9,4.4c-0.1,1.2-0.6,2.1-1.7,2.6
		c-1,0.4-2,0.7-3,0.9c-1.4,0.2-2.6,0.9-3.7,1.7c-1.2,0.9-2.4,1.9-3.7,2.8C47.7,120.9,46.8,121.1,46,121.6z"/>
</g>
</svg>
