<?xml version="1.0" encoding="utf-8"?>
<!-- Generator: Adobe Illustrator 19.2.1, SVG Export Plug-In . SVG Version: 6.00 Build 0)  -->
<svg version="1.1" id="Layer_1" xmlns="http://www.w3.org/2000/svg" xmlns:xlink="http://www.w3.org/1999/xlink" x="0px" y="0px"
	 viewBox="0 0 178.9 175.6" style="enable-background:new 0 0 178.9 175.6;" xml:space="preserve">
<style type="text/css">
	.st0{fill:#00BCD4;}
</style>
<g id="pharm-stella_1_">
	<path class="st0" d="M178.3,152.2c-2.5-0.8-4.6-2.6-6.7-4.2c-1.7-1.2-3.2-2.5-4.8-3.8c-0.2-0.1-0.3-0.3-0.4-0.5
		c-0.2-0.3-0.3-0.7-0.5-0.9c-1.3-1.5-2.7-3.1-4-4.7c-0.8-1.1-1.5-2.4-2.5-3.4c-2.6-2.7-4.2-5.9-6-9c-0.8-1.5-1.6-3.2-2.4-4.8
		c-0.7-1.3-1.5-2.5-2.1-3.9c-1-2.3-1.9-4.7-2.7-7.1c-1.1-2.9-2.1-5.8-2.5-8.9c-0.3-2.7-0.6-5.5-0.7-8.2c-0.1-5.2,0-10.3-0.5-15.5
		c-0.1-1.2-0.3-2.5-0.4-3.7c-0.2-1.7-0.4-3.3-0.6-5c-0.2-2.1-0.5-4.2-0.8-6.2c-0.3-1.7-0.7-3.5-1-5.2c-0.2-1.3-0.4-2.6-0.7-3.9
		c-0.4-1.7-1-3.3-1.3-5c-0.5-2.3-1.2-4.6-2-6.8c-0.6-1.6-1.1-3.2-1.8-4.8c-0.8-2-1.7-3.9-2.5-5.8c-1.1-2.5-2.1-5.1-3.4-7.4
		c-2-3.5-5.1-5.9-8.1-8.5c-1.7-1.4-3.4-2.8-5.1-4.3c-1.3-1.1-2.5-2.3-3.9-3.3c-3.1-2.2-6.5-4-9.9-5.6C98,0.4,95,0,91.8,0
		c-2.6,0-5.2,0.3-7.9,0.7c-2.5,0.4-4.9,0.7-7.3,1.5c-1.5,0.6-2.9,1.2-4.4,1.7c-4.5,1.4-8.1,4-10.7,8c-1.4,2.2-3,4.2-4.9,6
		c-0.6,0.6-1.2,1.2-1.7,1.9c-1.6,2.2-3.1,4.4-4.6,6.7c-0.9,1.5-1.8,3.1-2.6,4.8c-1,2.2-1.8,4.5-2.7,6.7c-0.7,1.7-1.5,3.4-2.2,5.1
		c-0.9,2.1-1.4,4.4-1.7,6.7c-0.2,1.7-0.7,3.4-1,5.1c-0.5,2.3-0.8,4.7-1.3,7c-0.5,2.2-0.9,4.5-0.9,6.8c0,2-0.2,4.1-0.4,6.1
		c-0.2,1.5-0.5,3-0.6,4.5c-0.1,1.7-0.2,3.5-0.3,5.3c0,0.8-0.1,1.5-0.2,2.2c-0.3,1.1-0.7,2.2-0.8,3.3c-0.3,3.1-0.6,6.3-0.9,9.4
		c-0.1,1.3-0.3,2.6-0.5,3.9c-0.3,1.7-0.5,3.3-0.7,5c-0.2,1.3-0.3,2.7-0.5,4c-0.3,1.9-0.7,3.7-1,5.6c-0.5,2.7-1,5.5-2.1,8.1
		c-0.9,2.3-1.9,4.5-4,6.1c-1.1,0.9-2.1,1.9-3.3,2.7c-1.9,1.3-3.8,2.4-5.7,3.6c-1,0.6-2,1.3-3.1,1.6c-2,0.5-3.8,1.6-5.6,2.6
		c-2.9,1.7-5.7,3.7-8.2,5.9c0,0.5,0,1,0,1.2c0.4-0.2,0.8-0.4,1.2-0.7c0.7-0.6,1.4-1.2,2.2-1.8c2.5-1.8,5-3.5,7.8-4.9
		c1.9-0.9,3.8-1.4,5.8-1.4c0.8,0,1.6,0,2.4,0.1c2,0.2,4.1,0.2,6.1,0.7c2.1,0.5,4.3,0.5,6.5,0.5c0.6,0,1.3-0.2,2-0.3
		c0,0.8-0.1,1.5,0,2.1c0.3,2.2,0.6,4.5,1,6.7c0.6,3.3,1.3,6.5,1.9,9.8c0.2,1.3,0.4,2.6,0.7,3.9c0.2,1.1,0.6,1.3,1.6,0.9
		c3-1.3,5.9-2.7,8.9-4c1.7-0.7,3.5-1.4,5.4-2.1c-0.3,0.8-0.5,1.3-0.7,1.9c-0.2,0.7-0.1,1.5,0.4,2.1c0.6,0.6,1.5,1.1,2.2,1.7
		c0.7,0.6,1.5,1.1,2.2,1.7c2.5,2.3,4.8,4.6,7.2,6.9c0.5,0,1,0.1,1.5,0.1c-2.1-2.1-4.1-4.1-6.3-6.2c-1.3-1.2-2.7-2.2-4.1-3.3
		c-0.6-0.5-1.2-1-1.8-1.6c-0.1-0.1-0.1-0.5,0-0.7c0.4-0.9,0.8-1.7,1.1-2.6c0.6-1.8,1.2-3.5,1.8-5.2s1.3-3.4,1.9-5.1
		c0.1-0.3,0.1-0.9-0.1-1.1c-0.3-0.4-0.7,0-0.9,0.3c-0.4,0.9-0.8,1.8-1.1,2.7l-2.4,6.9c-0.1,0.3-0.3,0.6-0.5,1.1
		c-0.4-0.7-0.9-0.6-1.4-0.4c-3.9,1.7-7.7,3.4-11.6,5.1c-0.6,0.3-1.2,0.6-1.8,0.8c-0.4-1.8-0.9-3.5-1.2-5.3c-0.4-1.7-0.6-3.5-0.9-5.3
		c-0.4-2.1-0.8-4.1-1.1-6.2c-0.3-1.8-0.3-3.7-0.4-5.5c0-0.2,0.3-0.4,0.5-0.5c2.7-0.7,5.2-2,7.5-3.6c2.3-1.7,4.5-3.7,6.1-6.2
		c1.6-2.6,3.3-5,4.2-7.9c0.2-0.5,0.4-1.1,0.8-1.6c0.2-0.2,0.7-0.4,1-0.4c0.2,0,0.4,0.5,0.5,0.8c0.4,2,0.8,4,1.1,6
		c0.3,1.7,0.5,3.3,0.7,5c0.3,2.3,0.5,4.6,1,6.8c0.8,3.7,2.1,7.4,3,11.1c0.6,2.7,2,4.9,3.4,7.2c2.4,3.9,5,7.6,7.5,11.5
		c0.9,1.4,1.8,2.9,2.6,4.4c1.6,0.2,3.3,0.5,4.9,0.7c0.2-1,0.3-2,0.6-3c0.4-1.8,0.9-3.6,1.5-5.3c0.3-0.8,0.7-1.6,1.1-2.4
		c0.7-1.5,1.4-3,2.2-4.5c0.9-1.7,1.3-3.5,0.3-5.3c-0.6-1-1.2-1.9-1.8-3c0.5-0.2,1-0.4,1.6-0.5c1.6-0.3,3.2-0.7,4.7-1.1
		c2.2-0.6,4.3-1.2,6.5-1.9c1.9-0.6,3.8-1.3,5.6-2c1-0.3,1.9-0.7,2.8-1.1c0.2-0.1,0.4-0.2,0.6-0.1c1.3,0.5,2.6,1.1,3.4,2.2
		c1.2,1.7,2,3.6,2.6,5.6c0.3,1,0.5,2,1,3c0.6,1.4,1.5,2.7,2.2,4.1c0.8,1.5,2,2.7,3,4c0.7,0.9,1.7,1.4,2.7,1.7c2,0.7,4.1,1.2,6.1,1.9
		c0.5,0.2,1.1,0.3,1.5,0.7c0.4,0.4,0.8,0.7,1.4,0.5c0.6-0.2,0.7-0.7,0.7-1.2c-0.1-3.2-0.1-6.5,0.4-9.8c0.4-2.6,0.6-5.2,1.1-7.8
		c0.7-3.4,1.6-6.7,2.5-10c0.4-1.3,0.9-2.6,1.2-3.9c0.3-1,0.7-1.3,1.7-0.8c0.3,0.2,0.7,0.4,1,0.4c2.3,0.2,4.6,0.6,6.9,0.7
		c2.1,0.1,4,0.7,5.9,1.4c0.9,0.4,1.9,0.7,2.9,1c1.7,0.5,3.2,1.3,4.7,2.2c2.1,1.3,4.4,2.4,6.5,3.7c1.4,0.9,2.7,2,4,2.9
		c2.1,1.5,4.2,3,6.4,4.4c1,0.6,1.8,1.5,3.1,1.5C178.8,153.2,179.3,152.5,178.3,152.2z M120.2,81.5c0.3-1.6,0.5-3.2,0.8-4.8
		c0.1-0.2,0.1-0.5,0.2-0.8c0.8,0.1,1.5,0.9,1.7,1.6c0.7,2.1,0.3,4.3,0.3,6.4c0,0.7-0.2,1.4-0.4,2.1c-0.4,1.4-2.1,2-3.3,1.3
		c-0.2-0.1-0.4-0.5-0.4-0.7C119.5,84.9,119.9,83.2,120.2,81.5z M52.3,64c0.1-0.3,0.6-0.4,1.1-0.7c0.5,3.9,0.9,7.6,1.4,11.3
		c-0.4,0-0.6-0.1-0.8,0.1c-0.7,0.1-1.2-0.1-1.6-0.8c-0.5-0.8-1-1.6-1.4-2.4c0.4-0.6,0.9-1.1,1.3-1.6c0.3-0.3,0.5-0.7,0.1-1.1
		c-0.4-0.4-0.9-0.2-1.2,0.1c-0.5,0.5-1,1.1-1.6,1.6C50,68.1,51.1,66,52.3,64z M55.2,82.5c-1.1-0.4-2.3-0.7-3.2-1.7
		c-1.2-1.3-1.8-2.8-2.6-4.2c-0.7-1.2-0.7-2.5-0.1-3.8c0.3-0.4,0.5-0.3,0.8,0c0.2,0.2,0.3,0.4,0.4,0.6c0.4,0.6,0.8,1.3,1.3,1.9
		c0.3,0.3,0.9,0.5,1.3,0.6c0.6,0.1,1.2,0.1,2.1,0.1c0.2,2.1,0.3,4.2,0.5,6.4C55.4,82.5,55.3,82.5,55.2,82.5z M60.9,96.2
		c-0.6-0.7-0.9-1.7-1.3-2.6c-0.3-0.8-0.6-1.7-0.8-2.6c-0.9-3.6-1.9-7.1-1.9-10.8c0.1-1.7-0.5-3.4-0.7-5.1c-0.2-1.4-0.3-2.8-0.5-4.2
		l-0.6-5.4c-0.2-1.6-0.5-3.3-0.6-5c-0.1-1.2-0.1-2.4,0-3.6c0.2-2.9,0.4-5.9,0.6-8.9c0.2-1.5,0.3-3.1,0.7-4.5c0.7-2.4,1.6-4.7,2.5-7
		c0.2-0.5,0.5-1,0.8-1.5c0.9-1.6,1.7-3.4,2.9-4.8c2.6-3,5.4-5.6,9.5-6.6c1.8-0.4,3.7-0.9,5.5-1.6c0.8-0.3,1.4-0.9,2.1-1.5
		c0.2-0.2,0.2-0.7,0.1-1c-1-2.3-2.1-4.6-3.1-6.9c-0.3-0.7-0.5-1.4-0.7-2.1c-0.1-0.5,0-0.9,0.6-1s0.8,0.3,1,0.8
		c0.7,1.8,1.5,3.6,2.2,5.4c0.3,0.7,0.7,1.3,1,2c0.4,1.3,1.2,2.1,2.4,2.7c3.3,1.8,6.8,3.4,10.4,4.9c2,0.8,3.9,1.6,5.9,2.5
		c2.1,1,3.6,2.6,5,4.4c1.4,1.8,2.7,3.5,3.8,5.4c1.4,2.4,2.6,4.9,3.9,7.3c0.4,0.6,0.8,1.2,1.1,1.9c0.5,0.9,0.9,1.9,1.3,2.9
		c0,0.1-0.1,0.2-0.2,0.3c-0.7-0.1-1.3-0.3-2.1-0.6c-1.3-0.1-2.5-0.2-3.7-0.1c-1.9,0.1-3.9,0.4-5.8,0.7c-0.9,0.1-1.7,0.6-2.6,0.9
		c-0.2,0.1-0.4,0.2-0.5,0.4c-0.1,0.2-0.1,0.5,0,0.7c0,0.1,0.3,0.2,0.5,0.2c1.3-0.4,2.5-0.9,3.7-1.1c3.2-0.6,6.4-0.8,9.7,0
		c1.1,0.3,1.6,0.9,1.9,1.9c0.9,3.2,1.8,6.4,2.6,9.6c0.7,2.8,1.3,5.6,2,8.4c0.5,1.9,0.2,3.7-0.1,5.5c-0.7,3.3-1.1,6.6-1.9,9.8
		c-0.5,2.2-1.3,4.4-2.1,6.5c-0.5,1.2-1.2,2.4-1.8,3.7c-0.8,1.8-2,3.4-3.4,4.9c-2.3,2.4-4.6,4.6-6.9,6.9c-1.9,2-4.1,3.6-6.6,4.8
		c-2.7,1.3-5.6,2.2-8.7,1.8c-2.8-0.3-5.6-0.6-8.2-1.6c-3.6-1.3-6.9-3.1-9.8-5.6c-2.5-2.1-4.1-4.9-6.1-7.4
		C62.9,99,62.1,97.4,60.9,96.2z M105.5,123.5c-1.8,1.7-3.5,3.5-5.3,5.2c-1.3,1.1-2.8,2.1-4.2,3.2c-1.4,1.1-2.7,2.2-4,3.3
		c-3.1,2.6-5.1,6.1-7.4,9.3c-0.9,1.1-1.7,2.3-2.1,3.7c-0.5,2.1-0.4,4,1,5.8c0.7,0.9,1.3,1.9,1.7,3c0.3,0.9,0,1.7-0.4,2.5
		c-0.6,1.1-1.2,2.3-1.9,3.5c-0.1-1-0.2-1.9-0.2-2.8c-0.1-2.8-1.1-5.4-2.6-7.8c-1.2-1.9-2.3-3.9-3.2-6c-0.7-1.7-1.8-3.3-2.8-5
		c-1.3-2.2-3-4-4.6-6c-1.3-1.7-2.4-3.6-3.8-5.2c-1.8-2.2-2.7-4.7-3.3-7.3c-0.1-0.6-0.1-1.1-0.1-1.7c0.1-2-0.2-4,0.6-6
		c0.2-0.5,0.2-1.2,0.2-1.8c0-2.1,0.1-4.2,0-6.3c-0.1-1.5-0.3-3.1-0.4-4.6v-0.9c0.1-0.1,0.1-0.1,0.2-0.1c1,1.3,2,2.6,2.9,4
		c1.4,1.9,2.9,3.5,4.8,4.8c0.9,0.6,1.8,1.4,2.8,1.9c1.6,0.9,3.3,1.6,5,2.4c2.6,1.2,5.5,1.5,8.3,1.9c2.6,0.4,5.2,0.3,7.7-0.5
		c2.9-0.9,5.5-2.3,7.8-4.2c2.1-1.7,4.1-3.3,5.7-5.4c0.9-1.3,2.2-2.2,3.3-3.3c0.1,0,0.2,0.1,0.3,0.1c0.1,0.5,0.3,0.9,0.3,1.4
		c-0.1,1.6-0.1,3.2-0.4,4.7c-0.5,3.1-0.6,6.3-2.2,9.1C108.1,120.2,107,122,105.5,123.5z M134.2,136.6c-0.7,2.7-1.5,5.4-2.2,8.2
		c-0.5,1.8-0.9,3.6-1.2,5.4c-0.4,2-0.7,4.1-0.9,6.2c-0.3,3.5-0.5,7-0.7,10.5v0.4c-1.2-0.3-2.4-0.4-3.5-1c-1.8-0.5-3.6-1.2-5.3-1.9
		c-0.5-0.2-0.9-0.5-1.2-0.9c-1.3-1.7-2.8-3.3-3.8-5.1c-0.9-1.6-1.4-3.6-2-5.4c-0.7-2.2-1.5-4.4-2.9-6.2c-1.1-1.5-2.8-2.3-4.6-2.8
		c0.2-0.2,0.4-0.6,0.6-0.9c1.5-2.7,3.1-5.3,4-8.3c1-3.4,1.8-6.9,2.7-10.4c0.1-0.3,0.2-0.5,0.3-0.8c0.3-0.9,0.8-1.2,1.6-0.6
		c2,1.6,4.3,2.5,6.5,3.6c1.8,1,3.5,2.2,5.4,3.1c2.3,1.1,4.1,3.1,6.2,4.6c0,0.1,0.1,0.2,0.2,0.2C134.3,135,134.5,135.5,134.2,136.6z"
		/>
	<path class="st0" d="M75.5,86.8c1.5,0,2.8,0,4.1,0c2.2-0.1,4.3,0.4,6.4,1.1c0.7,0.2,1.6,0.3,2.3,0c2-0.7,4-0.7,6-0.4
		c2.9,0.4,5.8,0.6,8.7,0.3c0.3,0,0.8,0.1,0.8,0.2c0,0.4,0.1,0.9-0.1,1.3c-1,1.8-2.3,3.4-3.9,4.7c-1.5,1.2-3,2.4-4.5,3.5
		c-2.5,1.7-5.2,2.1-8.2,1.7c-3.2-0.3-6.1-1.6-8.8-3.3c-0.9-0.6-1.7-1.6-2.5-2.4c-1.4-1.5-2.8-3-4.1-4.6c-0.2-0.3-0.4-0.7-0.5-1
		c0-0.1,0.5-0.4,0.8-0.4C73.4,87.1,74.5,86.9,75.5,86.8z M73.7,88.5c0.1,0.2,0.2,0.4,0.3,0.5c0.7,0.5,1.5,0.9,2.2,1.4
		c2.6,1.4,5.1,2.8,8,3.5c2.6,0.6,5.2,0.9,7.9,0.2c3.5-0.9,6.8-2.5,9.8-4.4c0.3-0.2,0.5-0.5,0.7-0.7c0-0.1-0.1-0.2-0.1-0.2
		c-1.7,0.1-3.4,0.2-5.1,0.4c-1,0.1-2,0.4-3,0.5c-1.9,0.2-3.8,0.4-5.7,0.6c-0.7,0.1-1.5,0-2.2-0.1c-1.2-0.2-2.5-0.3-3.6-0.7
		C80,88.3,77,87.8,73.7,88.5z"/>
	<path class="st0" d="M77.3,62.2c-3.5-0.3-6.7-0.6-9.6-1.9c-0.9-0.4-1.8-0.9-2.6-1.5c-0.5-0.3-0.5-0.6,0-1c1.4-0.8,2.7-1.8,4.2-2.5
		c1.9-0.9,3.9-1.1,6.1-0.5c2.6,0.7,4.4,2.5,6.3,4.2c0.3,0.2,0.6,0.4,0.7,0.7c0.2,0.4,0.2,1,0.2,1.5c0,0.1-0.4,0.3-0.7,0.3
		C80.3,61.8,78.7,62,77.3,62.2z M81.3,60.6c-0.9-1.9-2.8-2.7-4.2-3.8c-0.1,1.4-0.1,2.7-0.2,4.1C78.3,60.8,79.8,61,81.3,60.6z
		 M71.2,56.4c-1.6,0.5-3.1,1.1-4.4,2.1c0,0.1,0,0.2,0,0.3c1,0.4,2,0.9,3.1,1.4C69.9,58.7,69.7,57.2,71.2,56.4z M75.1,57.7
		c-0.5-0.4-0.8-0.8-1-0.8c-0.3,0.1-0.7,0.4-0.8,0.7c-0.1,0.5,0.2,0.9,0.7,0.8C74.4,58.4,74.7,58,75.1,57.7z"/>
	<path class="st0" d="M105.7,63.8c-1.5-0.2-3.1-0.4-4.7-0.6c-1.5-0.2-3.1-0.4-4.6-0.5c-0.2,0-0.5-0.1-0.7-0.1
		c-0.6-0.2-0.7-0.6-0.3-1.1c1.1-1.2,2.5-1.7,3.9-2.4c1.8-0.9,3.5-1.7,5.5-1.9c1.3-0.1,2.6,0.1,3.9,0.5c1.8,0.6,3,2,4.5,3
		c0.4,0.3,0.4,0.6,0,0.9c-1.6,1-3.3,1.8-5.1,2C107.4,63.6,106.5,63.7,105.7,63.8L105.7,63.8z M108,58.7c0.5,1.4,0.6,2.7-0.4,4
		c1.5-0.3,2.8-0.7,4-1.4c0.5-0.3,0.4-0.6,0-0.9c-0.1-0.1-0.2-0.2-0.3-0.3C110.2,59.3,109.1,59.1,108,58.7z M101.1,59.4
		c-1.3,0.7-2.8,1.4-4.3,2.2c0,0.1,0,0.2,0.1,0.3c1.5,0.2,3.1,0.4,4.6,0.6C101.4,61.3,101.2,60.4,101.1,59.4z"/>
	<path class="st0" d="M69.7,46.1c1.6-0.1,3.2,0.4,4.8,1c1.7,0.6,3.4,1.2,5.2,1.9c0.3,0.1,0.6,0.4,0.9,0.6c0.4,0.3,0.6,0.7,0.2,1
		c-0.2,0.2-0.7,0.3-1,0.2c-2.2-0.8-4.4-1.7-6.7-2.5c-1.8-0.6-3.6-0.9-5.5-0.4c-2,0.6-3.8,1.5-5.2,3c-0.6,0.6-1.2,1.3-1.8,1.9
		c-0.2,0.2-0.7,0.3-1,0.2c-0.4-0.2-0.6-0.7-0.2-1.1c1.1-1.1,2.1-2.2,3.3-3.2c0.5-0.5,1.2-0.8,1.8-1.1C66,46.7,67.7,46,69.7,46.1z"/>
	<path class="st0" d="M77.6,77.3c-0.2-1.3,0.6-2.3,1.3-3.4c0.1-0.1,0.4-0.2,0.6-0.3c0.1,0.2,0.2,0.4,0.2,0.6s-0.1,0.4-0.2,0.5
		c-0.7,0.9-1,1.9-1,3c0.1,0.8,0.3,1.2,1.1,1.2c2,0,3.6,0.7,4.9,2.1c1.1,1,2.8,1.2,4.3,0.5c0.8-0.4,1.7-0.8,2.4-1.3
		c1.3-0.8,2.8-0.6,4.2-0.5c0.9,0.1,1.4-0.1,1.7-1c0.5-1.4-0.1-2.8-1.6-3.7c-0.1-0.1-0.4-0.1-0.4-0.2c-0.1-0.2-0.2-0.4-0.1-0.6
		c0-0.1,0.3-0.2,0.5-0.2c1.2,0.2,2.7,2,2.7,3.2c0,0.9-0.1,1.7-0.6,2.5c-0.6,0.9-1.4,1.1-2.3,1c-1.5-0.2-2.8-0.1-4.2,0.7
		c-1.3,0.7-2.6,1.5-4.2,1.5c-1.4,0-2.5-0.6-3.5-1.5s-2.2-1.4-3.5-1.5C78.2,79.8,77.6,79.3,77.6,77.3z"/>
</g>
</svg>
