<?xml version="1.0" encoding="utf-8"?>
<!-- Generator: Adobe Illustrator 19.2.1, SVG Export Plug-In . SVG Version: 6.00 Build 0)  -->
<svg version="1.1" id="Layer_1" xmlns="http://www.w3.org/2000/svg" xmlns:xlink="http://www.w3.org/1999/xlink" x="0px" y="0px"
	 viewBox="0 0 168.2 200" style="enable-background:new 0 0 168.2 200;" xml:space="preserve">
<style type="text/css">
	.st0{fill:#03A9F4;}
</style>
<g id="pharm-christina">
	<path class="st0" d="M167,166c-0.3-0.3-0.3-0.8-0.4-1.3c-0.2-0.5-0.2-1.1-0.5-1.5c-1-1.3-1.4-2.7-1.8-4.2c-0.4-1.5-1.1-2.9-1.6-4.3
		c-0.7-2.2-1.5-4.5-2-6.8c-1.1-5.1-2.3-10.1-4-15.1c-0.8-2.2-1.4-4.5-1.9-6.8c-0.4-1.7-0.4-3.5-0.7-5.3c-0.2-1.7-0.4-3.4-0.8-5.1
		c-0.5-2-1.3-4-1.8-6c-0.4-1.4-0.5-2.9-0.7-4.3c-0.4-2.6-0.9-5.2-1.4-7.8c-0.2-1.1-0.3-2.2-0.4-3.3c-0.2-2-0.5-4.1-0.7-6.1
		c-0.1-1.4-0.1-2.7-0.3-4.1c-0.2-1.5-0.5-2.9-0.9-4.3c-0.8-2.9-1.8-5.7-2.5-8.6c-0.8-3-1.4-6.1-2.3-9.1c-0.8-2.7-1.9-5.3-2.9-8
		c-0.6-1.7-0.9-3.4-1.5-5.1c-0.8-2.4-1.5-4.8-2.4-7.2c-1.2-3.4-2.5-6.7-3.9-10c-0.4-0.9-1.1-1.7-1.6-2.5c-0.7-1.1-1.4-2.3-2.2-3.4
		c-0.8-1.2-1.7-2.4-2.6-3.6c-1-1.3-2-2.7-3.1-4c-1.9-2.5-4-4.8-6.3-6.9c-0.4-0.4-1-0.7-1.5-1c-3.2-2-6.4-3.8-9.4-6
		c-3.2-2.3-6.7-3.5-10.5-4.1c-2.7-0.4-5.3-0.2-7.9,0.6c-1.1,0.3-2.1,0.9-3,1.4c-0.7,0.4-1.4,0.4-2,0c-2.8-1.6-5.7-1.5-8.6-0.6
		c-1.4,0.4-2.7,1.1-4.1,1.6c-1.2,0.4-2.5,0.7-3.7,1.3c-0.9,0.4-1.9,1-2.4,1.8c-0.9,1.5-2.2,2.5-3.6,3.5c-1.5,1-2.7,2.4-3.9,3.7
		c-2.3,2.6-4.4,5.4-6.6,8c-1.2,1.4-2.4,2.9-3.1,4.6c-0.2,0.5-0.8,0.9-1,1.5c-0.9,1.9-1.9,3.7-2.7,5.6c-1.4,3.3-2.7,6.6-4.1,9.9
		c-0.4,1-1.1,1.8-1.5,2.8c-1,2.6-1.9,5.3-2.9,7.9c-0.6,1.6-1.3,3.2-1.9,4.8c-0.5,1.4-0.8,2.9-1.1,4.4c-0.3,1.1-0.6,2.1-0.9,3.2
		c-0.1,0.6-0.2,1.2-0.2,1.8c0,2.7-0.3,5.3-0.9,7.9c-0.4,2.1-0.6,4.2-0.7,6.3c-0.2,2.8-0.2,5.5-0.3,8.3c-0.1,1.9-0.3,3.8-0.1,5.7
		c0.3,3,0.8,5.9,1.2,8.9c0.2,1.8,0.4,3.5,0.5,5.3c0.1,1.9,0.2,3.8,0.7,5.6c0.3,1.2,0.2,2.6,0.5,3.9c0.3,1.5,0.7,3,1.1,4.6
		c0.4,1.8,0.7,3.6,1.1,5.4c0.3,1.3,0.7,2.6,1.2,3.8c0.7,1.7,1.4,3.5,2.2,5.2c0.9,2,1.9,3.9,2.9,5.9c0.9,1.8,1.7,3.6,2.6,5.4
		c0.3,0.6,0.8,1.1,1.3,1.7c0.2,0.2,0.4,0.5,0.6,0.7c-3,2.1-6.1,4.2-9,6.4c-0.4,0.3-0.8,0.7-1.1,1.1c-1.1,1.2-2.2,2.5-3.2,3.8
		c-1.2,1.4-2.9,1.7-4.4,2.4c-2,0.9-4,1.2-6.2,1.3c-1.3,0.1-2.7,0.4-4,0.7c-3.6,0.8-7.2,1.8-10.8,2.3c-1.5,0.2-3,0.5-4.4,0.9
		c0,0.5,0,1,0,1.5c1.6-0.3,3.2-0.6,4.8-0.9c3.7-0.6,7.3-1.6,10.9-2.4c1.3-0.3,2.7-0.7,4-0.7c2.3,0,4.4-0.6,6.5-1.5
		c1.5-0.6,3.1-1.1,4.3-2.4c0.9-1,1.9-2,2.7-3.1c1-1.3,2.2-2.3,3.6-3.2c1.1-0.7,2.2-1.5,3.4-2.3c1.3-0.9,2.6-1.7,4.1-2.7
		c0.3,1,0.6,1.8,0.7,2.6c0.3,1.7,0.6,3.3,0.7,5c0.1,1.6,0.2,3.2,0,4.8c-0.4,2.6-1,5.1-1.6,7.6c-0.8,3.4-1.4,6.8-3.2,9.8
		c-1.1,1.8-2.1,3.7-3.1,5.6c-0.3,0.6-0.6,1.1-0.8,1.7c-1,2.1-2,4.1-3,6.2c-0.4,0.9-0.9,1.8-1.4,2.7c1.1,0,2.2,0,3.2,0
		c0.3,0,0.6-0.2,0.8-0.4c1.3-1.7,2.5-3.5,3.7-5.3c2.2-3,4.1-6.1,5.7-9.4c0.8-1.7,1.7-3.3,2.7-5.1c0,0.5,0,0.9,0,1.3
		c-0.2,4.1,0.2,8.1,0.7,12.1c0.2,1.7,0.6,3.4,0.8,5.2c0.3,1.8-0.1,1.6,1.9,1.6c0,0,0.1-0.1,0.1-0.1c-0.1-0.3-0.1-0.7-0.2-1
		c-0.5-3.8-1.2-7.7-1.6-11.5c-0.2-2.7-0.1-5.4-0.1-8.1c0-1.7,0.6-2.2,2.3-1.9c0.4,0.1,0.7,0.2,1.1,0.2c1.3,0.3,2.6,0.6,3.8,0.9
		c2,0.6,4.3,0.5,6,2.2c0.4,0.4,0.9,0.2,1.3-0.4c0.3-0.5,0.2-1-0.3-1.2c-1.5-0.7-2.8-1.5-4.5-1.8c-2.8-0.5-5.6-1.2-8.4-1.9
		c-0.8-0.2-1-0.8-0.7-1.5c0.1-0.3,0.4-0.5,0.5-0.8c0.7-1.8,1.3-3.5,1.9-5.3c0.8-2.3,1.6-4.5,1.8-6.9c0.2-2.4,0.4-4.9,0.6-7.3
		c0.2-2.2,0.1-4.4-0.4-6.6c-0.3-1.1-0.4-2.2-0.1-3.3c1-3.7,1-7.4,0.9-11.2c0-1.1-0.2-2.1-0.2-3.1c0.3,0.1,0.4,0.3,0.5,0.4
		c0.9,1,1.7,2.2,2.7,2.9c3.3,2.4,6.7,4.6,10.4,6.1c2.3,0.9,4.5,1.9,6.8,2.8c1.4,0.5,3,0.8,4.4,1.4c2.6,1.2,5.3,1.3,8,0.7
		c2.4-0.5,4.6-1.3,6.7-2.4c1.1-0.6,2.2-1.1,3.3-1.7c1.1-0.5,2.2-0.9,3.3-1.4c1.4-0.7,2.8-1.6,4.2-2.4c0.6-0.3,1.2-0.6,1.6-1
		c1.2-1.1,2.3-2.2,3.5-3.3c0.6-0.5,1.2-1.1,1.9-1.7c0,0.3,0.1,0.4,0.1,0.6c0,0.1,0,0.3,0,0.4c-0.8,2.5-0.4,4.8,1.1,6.9
		c0.3,0.4,0.4,1,0.3,1.5c0,0.8-0.2,1.6-0.4,2.3c-0.3,1.2-0.8,2.3-1.1,3.4c-1.6,5.7-3.4,11.3-6.3,16.4c-0.6,1-1,2.1-1.3,3.2
		c-0.3,1.4-0.8,2.8-1.7,3.9c-2.3,2.8-4.7,5.6-7,8.2c-1.9-0.5-3.4-0.3-4.9,0.4c-0.5,0.2-1.1,0.5-1.6,0.6c-1.8,0.4-3.7,0.6-5.6,1
		c-1,0.2-2,0.5-2.9,0.8c-1.1,0.4-2.2,1-3.3,1.4c-0.7,0.3-1.3,0.9-1.1,1.4c0.2,0.6,0.8,0.8,1.7,0.4c0.9-0.4,1.9-0.8,2.7-1.3
		c1.6-1.1,3.4-1.2,5.2-1.4c1.9-0.2,3.8-0.6,5.6-1.4c0.8-0.4,1.6-0.6,2.5-0.4c0,0.1,0,0.2,0,0.2c-0.2,0.2-0.5,0.4-0.7,0.7
		c-1.8,1.8-3.6,3.7-4.6,6.1c-0.5,1.2-1.2,2.3-1.9,3.4c-1.2,1.8-2.5,3.6-3.8,5.4c-1.3,2-2.6,4-3.9,6c1.2,0.3,2,0,2.6-1.1
		c1.3-2.2,2.7-4.3,4.1-6.4c1.3-2,2.9-3.8,3.8-5.9c1.4-2.9,3.4-5.2,5.7-7.4c1.1-1,2.1-2.2,3.1-3.3c1.5-1.6,3-3.3,4.5-5
		c0.2,1.6,0.3,3.2,0.5,4.8c0.2,1.4,0.4,2.9,0.7,4.2c0.7,2.8,1.6,5.5,2.4,8.2c1.2,3.6,2.4,7.2,3.7,10.8c0.4,1.3,0.5,1.2,1.8,1.2
		c0,0,0.1,0,0.1-0.1c-2.3-7.3-5.3-14.4-6.9-22c1.4,0.5,2.8,1.1,4.1,1.7c3.4,1.8,6.2,4.6,9.9,6.1c1.5,0.6,2.8,1.8,4.6,1.7
		c0.3,0,0.6,0.1,0.8,0.2c1.2,0.4,2.4,0.9,3.7,1.3c0.7,0.2,1.5,0.3,2.3,0.3c0.7,0,1.2-0.2,1.3-1c0.1-0.8,0.2-1.6,0.3-2.4
		c0.2-3.1,0.3-6.2,0.5-9.4c0-0.4,0-0.8,0.2-1.1c0.4-1,1-2,1.4-3.1c1.3-3.4,2.6-6.8,3.9-10.2c0.4,0.2,1.1,0.2,1.6,0.6
		c2.8,2,5.7,3.7,8.8,5.2c1.1,0.5,2.2,0.9,3.2,1.4c1.7,0.8,3.4,1.7,5.1,2.7c1.1,0.6,2.1,1.4,3.1,2.1c1.9,1.2,3.8,2.5,5.8,3.5
		c0.2,0.1,0.4,0.2,0.6,0.3v-10.4C167.8,166.9,167.4,166.5,167,166z M112.1,127.9c-2.8,3.3-6.1,6-9.7,8.3c-1.5,0.9-3.2,1.5-4.8,2.3
		c-2.7,1.4-5.4,2.8-8.4,3.5c-1.9,0.4-3.8,0.6-5.7,0.1c-3.1-0.9-6.2-2-9.3-3.1c-3.8-1.5-7.6-3.1-11-5.5c-1.9-1.3-3.8-2.5-5.1-4.4
		c-0.6-1-1.4-1.9-2.1-2.9c-1.1-1.6-2.3-3.2-3.3-4.9c-0.9-1.6-1.6-3.4-2.4-5.1c-1.1-2.6-2.1-5.3-2.6-8.1c-0.7-4.1-1.3-8.2-2-12.3
		c-0.2-1.1-0.5-2.3-0.6-3.4c-0.1-2.2,0-4.4,0-6.6l0.1,0c0-1.1,0-2.3,0-3.4c-0.1-3.2,0.2-6.3,0.9-9.4c0.4-1.8,1-3.7,1.3-5.5
		c0.7-3.5,1.2-6.9,1.8-10.4c0.5-2.7,0.9-5.3,1.3-8c0.4-2.2,1.5-3.8,3.7-4.6c1-0.4,1.8-1.2,2.7-1.8c0.3-0.2,0.6-0.6,0.9-0.8
		c1.8-1.5,3.4-3.1,4.5-5.2c1-1.9,1.9-4,2.7-6.1c0.7-1.8,1-3.8,1.6-5.7c0.5-1.3,1.1-2.7,1.8-3.9c0.5-0.8,1-1.6,1.5-2.4
		c1,0,2.1,0,3.1,0c-1,1.6-2,3.2-3,4.8c-0.8,1.2-1.1,2.6-1.1,4c0,0.7,0.2,1.5,0.5,2.2c0.2,0.5,0.7,0.8,1,1.2c0.6,0.8,1.3,1,2.3,0.9
		c1.8-0.1,3.5-0.3,5.3-0.3c3.1,0,6.3,0.2,9.4,0.3c0.4,0,0.7,0,1.1,0.1c2.1,0.5,4.2,1,6.4,1.5c3.3,0.8,5.9,2.9,8.7,4.5
		c0.2,0.1,0.4,0.3,0.6,0.6c1.1,1.4,2,2.8,3.2,4.1c1.9,2,3,4.4,4,6.9c1,2.4,2,4.7,3.6,6.8c1,1.2,1.9,2.6,2.3,4.1
		c0.2,0.8,0.4,1.6,0.6,2.3c0.4,1.3,0.8,2.6,1.1,4c0.2,0.7-0.3,1.1-1,0.9c-0.6-0.1-1.2-0.3-1.8-0.4c-2.3-0.4-4.6-1-6.9-1.1
		c-2.9-0.2-5.7,0.1-8.5,0.9c-1.5,0.5-3,1-4.4,1.6c-0.8,0.3-1.1,1.2-0.9,1.7c0.4,0.7,1,0.8,1.9,0.3c2.6-1.4,5.5-2.1,8.4-2.5
		c2.7-0.4,5.5-0.3,8.2,0.2c1.7,0.3,3.4,1.1,5,1.7c0.2,0.1,0.5,0.3,0.5,0.5c0.3,1,0.7,2,0.8,3.1c0.3,3.6,0.4,7.2,0.7,10.9
		c0.1,1.4,0.2,2.8,0.3,4.2c0.1,1.9,0.1,3.8,0,5.7c0,1.7-0.3,3.3-0.3,5c0.1,2.4,0.4,4.8,0.4,7.1c0.1,2.5,0,5-0.6,7.4
		c-0.9,3.4-2.7,6.3-4.7,9.1C115,124.5,113.5,126.2,112.1,127.9z M132.5,182c-0.1,1.6-0.1,3.2-0.2,4.8c0,0.7-0.2,1-0.9,0.8
		c-2-0.5-4-0.9-5.9-1.6c-2-0.7-4-1.8-6-2.7c-0.5-0.3-1-0.6-1.5-1c-3.3-2.7-7.1-4.6-10.9-6.4c-0.6-0.3-0.7-0.7-0.6-1.3
		c0-0.2,0.1-0.4,0.1-0.5c-0.2-1.2-0.5-2.4-0.6-3.6c-0.1-0.9-0.2-1.9,0.4-2.8c0.4-0.7,0.6-1.6,0.8-2.4c0.3-1,0.7-2,1.1-2.9
		c1.1-2.5,2.5-4.9,3.4-7.4c1.7-4.6,3.1-9.2,4.6-13.9c0.4-1.4,0.5-2.7,0.1-4.1c-0.2-0.7,0.3-1.2,0.9-0.9c0.4,0.2,0.7,0.6,1,1
		c0.3,0.3,0.4,0.7,0.6,1.1c0.6,0.9,1.2,1.8,1.7,2.7c1.6,3.1,3.2,6.1,5.3,8.9c1.2,1.7,2.4,3.4,2.7,5.6c0.3,2.9,0.6,5.8,0.8,8.7
		c0.1,2.9,0.1,5.8-0.6,8.6c-0.3,1.3-0.5,2.7-0.8,4.1c-0.3,1.1-0.7,2.2-0.9,3.3c-0.2,1.1-0.1,2.3-0.9,3.4c-0.1,0.1-0.1,0.3-0.1,0.6
		c1.3-0.8,2.6-1.4,3.8-2.2c1.2-0.8,2.2-1.7,2.7-3.2c0.1,0,0.2,0.1,0.3,0.1C132.8,179.7,132.6,180.8,132.5,182z"/>
	<path class="st0" d="M26.4,178.8c-0.7,0.4-1.4,0.9-2,1.3c-1.8,1.2-3.6,2.4-5.2,3.7c-1.2,1-2.2,2.3-3.4,3.3
		c-1.6,1.3-3.2,2.5-4.9,3.5c-2.1,1.2-4.3,2.1-6.5,3c-0.8,0.4-1.7,0.6-2.6,0.9c-0.7,0.3-0.9,0.8-0.8,1.5c0.2,1.3,0.4,2.6,0.6,3.9
		c0.4,0,0.9,0,1.4,0c-0.2-1.3-0.3-2.5-0.5-3.8c0-0.2,0.1-0.5,0.3-0.5c0.4-0.2,0.9-0.3,1.3-0.5c3.9-1.2,7.5-3,10.7-5.5
		c1.1-0.8,2.3-1.7,3.2-2.8c2.2-2.4,5-4.1,7.7-6c1.7-1.2,3.4-2.4,5.1-3.6c0.4-0.3,1-0.5,1.4-0.8c0.3-0.2,0.7-0.6,0.7-0.9
		c0-0.6-0.5-0.7-1-0.6c-0.6,0.1-1.1,0.4-1.7,0.6c-0.4,0.2-0.9,0.5-1.3,0.8c-0.8,0.7-1.8,0.9-2.7,0.3c-1.6-0.9-3.3-0.6-4.9-1
		c-1.8-0.4-3.5-1-5.2-1.7c-1.5-0.6-2.8-1.5-4.2-2.3c-0.5-0.3-1-0.5-1.6-0.6c-0.3-0.1-0.8,0-1,0.3c-0.2,0.2-0.2,0.7-0.1,1
		c0.3,0.8,1.4,1.2,2.3,1.1c0.3,0,0.7,0.1,1,0.3c2.3,1.5,4.8,2.5,7.4,3.3c0.9,0.3,1.9,0.2,2.9,0.4c1.2,0.2,2.5,0.6,3.7,0.8
		C26.4,178.5,26.4,178.7,26.4,178.8z"/>
	<path class="st0" d="M67.2,110.9c0.5,0.6,1.1,0.8,1.9,0.8c1.9-0.1,3.9-0.1,5.8-0.2c1.4-0.1,2.8-0.1,4.2-0.4
		c1.6-0.2,3.1-0.1,4.5,0.5c1.1,0.5,2.1,0.7,3.2,0.2c1.7-0.7,3.5-0.7,5.3-0.2c2.3,0.6,4.7,1.2,7.2,1c1-0.1,2-0.2,3-0.3
		c0.2,0,0.5,0.2,0.7,0.3c-0.2,0.2-0.3,0.6-0.5,0.6c-1.1,0.2-1.7,1.1-2.3,1.9c-1.5,1.9-3,3.7-4.8,5.2c-1.6,1.3-3.4,2.4-5.5,2.6
		c-2.4,0.1-4.7,0.3-7.1,0.3c-0.7,0-1.4-0.1-2.1-0.3c-2.4-0.5-4.6-1.4-6.7-2.9c-2.1-1.5-3.7-3.3-5-5.5c-0.7-1.3-1.6-2.6-3.1-3.3
		c-0.2-0.1-0.4-0.4-0.6-0.6C66.2,109.9,66.7,110.3,67.2,110.9z M69.8,114.1c0.1,0.3,0.2,0.6,0.3,0.8c0.9,1.4,2,2.8,3.4,3.8
		c2.3,1.7,4.7,3,7.5,3.4c1.1,0.2,2.2,0.2,3.3,0.1c2.2-0.1,4.3-0.3,6.5-0.5c1.5-0.1,2.6-1.1,3.7-1.9c1.7-1.3,3.2-2.9,4.5-4.6
		c0.2-0.3,0.5-0.6,0.8-1C89.8,117.3,79.9,118.4,69.8,114.1z M90.9,112.2c-0.9-0.2-1.9-0.1-2.8,0.2c-1.7,0.5-3.2,0.9-5-0.1
		c-1.3-0.7-2.9-0.6-4.4-0.4c-0.8,0.1-1.6,0.2-2.3,0.3c-2,0.1-4,0.1-6,0.2c-0.4,0-0.9,0.1-1.4,0.2c2.7,1.5,5.4,2.4,8.2,2.9
		c2.9,0.5,5.8,0.7,8.8,0.6c1.5-0.1,3-0.2,4.5-0.5c2.5-0.5,4.9-1.1,7.3-1.6c0.2-0.1,0.5-0.2,0.5-0.2
		C95.9,113.2,93.4,112.6,90.9,112.2z"/>
	<path class="st0" d="M113.1,79.7c-2.7,1.7-5.5,2.5-8.7,1.7c-1.8-0.5-3.7-0.7-5.6-1.1c-0.7-0.1-1.5-0.1-2.3-0.3
		c-0.3,0-0.5-0.3-0.7-0.5c0.2-0.2,0.3-0.5,0.5-0.6c1-0.9,2.2-1.7,3.1-2.6c1-1,2.2-1.7,3.5-2c2-0.4,4-0.3,5.9,0.5
		c2.1,0.8,4.1,1.7,6.2,2.5c0.8,0.3,1,0.7,0.8,1.3C114.8,78.9,113.9,79.2,113.1,79.7z M109.4,80.3c1.5-0.7,3-1.5,4.7-2.4
		c-1.9-0.8-3.6-1.5-5.4-2.2c0.2,1.8-0.5,3.3-1.5,4.6c0,0.1,0.1,0.2,0.1,0.2C107.9,80.5,108.7,80.5,109.4,80.3z M103,79.9
		c-0.7-1.2-1.5-2.4-0.9-4.2c-1.9,0.9-3.3,2.3-4.8,3.3c0,0.1,0.1,0.1,0.1,0.2C99.2,79.4,101,79.6,103,79.9z M105.3,77.3
		c0.3-0.1,0.5-0.4,0.8-0.5c-0.2-0.2-0.4-0.6-0.6-0.6c-0.3,0-0.6,0.3-1,0.6C104.9,77,105.1,77.3,105.3,77.3z"/>
	<path class="st0" d="M59.4,77.3c-1-0.5-2.1-0.8-3.2-1.2c-0.2-0.1-0.4-0.2-0.5-0.4c0-0.1,0.2-0.4,0.3-0.4c1.4-0.8,2.8-1.6,4.2-2.3
		c2.4-1.3,4.8-1,7.3-0.4c3.1,0.8,5.4,3.1,8.1,4.6c0.2,0.1,0.3,0.7,0.3,1c-0.1,0.4-0.5,0.3-0.8,0.2c-1.7-0.1-3.3-0.3-5-0.2
		c-1.6,0.1-3.2,0.4-4.4,0.5C63.2,78.5,61.3,78.2,59.4,77.3z M58.3,75.2c0,0.1,0.1,0.2,0.1,0.3c1.6,0.9,3.1,1.8,5.2,1.9
		c-1-1.3-1.6-2.5-1.1-4c-0.1-0.1-0.2-0.1-0.2-0.2C61,73.9,59.7,74.6,58.3,75.2z M73.1,77c0-0.1,0-0.2,0-0.3c-1.1-0.7-2.2-1.3-3.3-2
		c-0.4,0.8-0.7,1.6-1.1,2.3C70.2,77,71.6,77,73.1,77z"/>
	<path class="st0" d="M52.8,66.6c0.1,0,0.5-0.1,0.6-0.3c0.4-1,1.3-0.9,2-1.1c2.2-0.5,4.5-0.6,6.8-0.4c3.9,0.3,7.2,1.9,10.5,3.7
		c1.1,0.6,2.2,0.5,3.4,0.7c0.3,0,0.8-0.4,0.9-0.6c0.1-0.3-0.1-0.8-0.4-1.1c-1.1-1.1-2.5-1.7-3.9-2.2c-1.3-0.5-2.6-1.1-3.9-1.4
		c-2-0.4-4.1-0.6-6.1-0.9c-2.9-0.3-5.8,0.2-8.7,0.7c-0.7,0.1-1.3,0.5-1.9,0.7c-0.5,0.2-0.8,0.6-0.6,1.2
		C51.5,66.2,51.9,66.6,52.8,66.6z"/>
	<path class="st0" d="M92.3,102c-2.2-0.5-3.5,0.9-5,2c-0.6,0.5-1.3,0.8-2,1.1c-1,0.4-2,0.1-2.8-0.6c-1-0.8-2.1-1.6-3.3-2.2
		c-0.6-0.3-1.3-0.5-1.9-0.5c-1.1,0-2.1-0.2-2.9-0.9c-0.3-0.3-0.6-0.8-0.7-1.2c-0.2-1.3-0.2-2.6,0.9-3.7c0.2-0.2,0.4-0.3,0.6-0.4
		c0.2-0.1,0.3-0.3,0.4-0.5c-0.2-0.1-0.3-0.4-0.5-0.4c-0.3,0-0.7,0.1-0.8,0.3c-1.3,1.5-1.9,3.3-1.4,5.3c0.3,1.2,1.3,1.6,2.2,2
		c0.7,0.3,1.4,0.4,2.1,0.4c0.8,0,1.5,0.2,2.1,0.7c1.1,0.8,2.2,1.6,3.3,2.3c1.1,0.7,2.4,0.6,3.5,0c0.9-0.5,1.8-1.1,2.6-1.8
		c0.8-0.7,1.7-1.1,2.8-1c0.3,0,0.6,0,0.9,0c3,0,4.4-1.5,4.5-4.5c0-1.1,0-2.1-0.5-3.1c-0.3-0.5-0.8-0.9-1.2-1.4
		c-0.1-0.1-0.4,0.1-0.6,0.1c0,0.2,0,0.5,0.1,0.6c1.7,1.1,1.2,2.8,1.3,4.3c0.1,1-0.6,1.8-1.3,2.5c-0.3,0.2-0.7,0.3-1,0.4
		C93.3,102,92.8,102,92.3,102z"/>
</g>
</svg>
