<?xml version="1.0" encoding="utf-8"?>
<!-- Generator: Adobe Illustrator 19.2.1, SVG Export Plug-In . SVG Version: 6.00 Build 0)  -->
<svg version="1.1" id="Layer_1" xmlns="http://www.w3.org/2000/svg" xmlns:xlink="http://www.w3.org/1999/xlink" x="0px" y="0px"
	 viewBox="0 0 184.2 200" style="enable-background:new 0 0 184.2 200;" xml:space="preserve">
<style type="text/css">
	.st0{fill:#009688;}
</style>
<g id="pharm-bailey-teal">
	<path class="st0" d="M0,159.5c0.8-0.4,1.5-0.8,2.3-1.2c1.6-0.8,3.2-1.6,4.7-2.5c2.4-1.4,4.8-2.8,7.2-4.2c2.4-1.3,4.5-3,6.4-4.9
		c1-1,1.3-2.3,1.6-3.6c0.3-1.5,0.6-3,0.8-4.4c0.2-1.8,0.2-3.6,0.4-5.5c0.2-2,0.5-3.9,0.7-5.9c0.1-0.7,0-1.3,0-2
		c0.1-1.2,0.3-2.4,0.4-3.7c0.2-2.1,0.4-4.2,0.6-6.3c0.1-0.6,0-1.2,0-1.8c0.1-1.7,0.2-3.5,0.5-5.2c0.3-2,0.7-3.9,1.1-5.9
		c0.5-2.5,1.1-5.1,1.6-7.6c0.2-0.8,0.4-1.6,0.6-2.3c0.3-1.1,0.7-2.2,1-3.4c0.2-0.8,0.3-1.7,0.5-2.6c0.5-2.1,1.2-4.2,2.3-6.1
		c0.1-0.2,0.3-0.4,0.4-0.7c0.6-1.6,1.3-3.2,1.9-4.9c0.9-2.4,1.5-5,2.6-7.3c1.2-2.6,2.1-5.2,3-7.9c0.9-2.8,1.8-5.6,2.6-8.5
		c0.9-3.2,1.7-6.4,2.5-9.6c0.4-1.8,0.7-3.5,1.2-5.3c1-3.3,2.2-6.4,3.7-9.5c1.9-3.9,4.3-7.3,6.9-10.6c3.6-4.5,7.9-8,13-10.6
		c3.8-1.9,7.6-3.8,11.7-4.7c1.6-0.4,3.2-0.5,4.8-0.7C88,0.1,88.9,0,89.7,0c2.1,0,4.2,0,6.3,0.2c2.2,0.2,4.5,0.3,6.6,1.3
		c0.3,0.2,0.7,0.3,0.9,0.5c1.1,1,2.4,0.9,3.7,0.6c3-0.9,5.6-0.4,8.2,1.3c1.9,1.3,3.9,2.3,5.8,3.6c1.2,0.8,2.3,1.8,3.4,2.7
		c1.4,1.3,2.9,2.6,4.2,4c1.3,1.3,2.5,2.6,3.6,4.1c1.3,1.7,2.5,3.4,3.4,5.3c1.5,3.1,2.7,6.4,4,9.6c1.3,3.4,2.5,6.8,3.8,10.2
		c0.3,0.8,0.3,1.7,0.5,2.6c0.2,1,0.3,2,0.6,3c0.8,2.7,1.3,5.5,1.4,8.3c0.1,2,0.6,4.1,0.8,6.1c0.1,0.6,0.1,1.3,0,1.9
		c-0.1,2.7,0.3,5.3,0.9,7.9c0.3,1.1,0.1,2.3,0.2,3.5c0,0.2,0,0.4,0,0.5c0,1.2,0.2,2.3,0.1,3.4c0,1.2-0.2,2.5-0.3,3.7
		c-0.3,2.9-1.3,5.6-1.4,8.5c0,1.8-0.4,3.6-0.7,5.5c-0.4,2.4-0.8,4.9-1.2,7.3c-0.3,1.5-0.6,3-0.9,4.6c-0.1,0.9,0,1.8-0.2,2.7
		c-0.3,1.6-0.5,3.2-0.4,4.8c0,1.8-0.1,3.5-0.1,5.3c-0.1,1.9,0.1,3.7,0.6,5.6c0.2,0.8,0.3,1.6,0.3,2.5c0.1,3.2,0.9,6.2,2.6,9
		c0,0,0.1,0.1,0.1,0.1c0,1.2,0.9,1.2,1.8,1.4c3.4,1,6.9,2,10.3,3.1c3.4,1,6.8,2.1,10.2,3.1c0.6,0.2,1.1,0.2,1.7,0.3
		c1.7,0.3,3.3,0.6,5,0.8c1.3,0.2,2.6,0.3,4,0.6c1.9,0.3,3.7,0.8,5,2.4c0,0.7,0,1.4,0,2.1c-0.3-0.3-0.7-0.6-0.9-0.9
		c-0.6-0.9-1.5-1.3-2.5-1.5c-1.1-0.3-2.2-0.5-3.3-0.7c-2.2-0.4-4.4-1.2-6.7-1c-0.1,0-0.2-0.1-0.3-0.1c-1.2-0.4-2.4-0.7-3.7-1.1
		c-1.9-0.6-3.9-1.1-5.8-1.6c-1.5-0.5-2.9-1.1-4.3-1.5c-1.4-0.4-2.8-0.7-4.2-1c-1.9-0.4-3.8-0.8-5.7-1.4c-1.9-0.6-3.8-1.4-5.7-2
		c-0.3-0.1-0.5-0.1-1-0.1c0.6,0.9,1,1.7,1.6,2.4c2.1,2.7,4.3,5.2,6,8.2c0.9,1.6,2.1,3,3.2,4.5c0.7,1.1,1.5,2.1,2.2,3.2
		c0.7,1.1,1.3,2.2,2,3.3c1.3,2,2.9,3.8,4,5.8c1,2,2.7,3.4,3.7,5.3c0.5,0.9,1.5,1.6,0.7,2.8c0,0,0,0.1,0,0.1
		c-0.2,1.2-0.8,1.5-1.9,1.2c-0.8-0.3-1.6-0.6-2.3-1.1c-1-0.6-2-1.3-3-1.9c-1.7-0.9-3.5-1.7-5.5-1.9c-1.1-0.2-2.2-0.3-3.4-0.5
		c-1.8-0.2-3.7-0.1-5.4-0.8c-0.6-0.3-1.3,0.1-1.4,0.7c-0.5,2.1-1.8,3.7-3.4,5.1c-0.9,0.7-1.8,1.3-2,2.6c-0.5,2.8-1.2,5.5-1.8,8.2
		c-0.4,1.8-0.6,3.7-0.9,5.6c-0.2,1-0.3,2-0.5,3.1c-0.1,1-0.2,2.1-0.3,3.1c-0.6,0-1.1,0-1.7,0c0.2-1.3,0.4-2.5,0.6-3.8
		c0.3-2,0.5-4.1,1-6.1c0.4-2,1.1-3.9,1.6-5.9c0.3-1.4,0.6-2.8,0.6-4.2c0.1-0.9,0.4-1.6,1.1-2.1c1.3-0.9,2.4-2.1,3.2-3.4
		c0.8-1.2,0.7-2.4-0.1-3.6c-0.2-0.2-0.3-0.5-0.4-0.8c-0.3-0.7-0.6-1.5-0.9-2.2c-0.4-0.9-0.9-1.9-1.4-2.8c-0.5-0.9-1.2-1.8-1.7-2.7
		c-0.8-1.4-1.6-2.8-2.4-4.2c-0.2-0.5-0.2-1,0.4-1.2c0.6-0.2,0.8,0.2,1,0.7c0.8,1.5,1.4,3.1,2.6,4.3c0.4,0.4,0.7,0.9,1,1.4
		c1,1.8,1.9,3.5,2.8,5.4c0.5,1,1.2,1.3,2.2,1.3c1.5,0.1,3,0.1,4.5,0.4c2.7,0.5,5.3,0.8,8,1.6c2.4,0.7,4.4,1.9,6.3,3.5
		c0.3,0.3,0.6,0.5,1,0.6c0.5,0.2,1.2,0.4,1.6-0.3c0.3-0.6-0.1-1.2-0.6-1.7c-0.5-0.4-1.1-0.8-1.4-1.2c-1.6-2-3.2-3.9-4.7-6
		c-1.5-2.2-2.9-4.5-4.4-6.7c-2.3-3.4-4.6-6.9-7-10.3c-2-2.9-4-5.8-6.2-8.6c-1.5-1.8-3.3-3.4-4.9-5.1c-0.2-0.2-0.4-0.4-0.5-0.5
		c-1.4-1.5-2.9-3-4.3-4.5c-1.4-1.4-2.9-2.8-4.2-4.3c-0.7-0.8-1.1-0.8-1.6,0.1c-0.1,0.2-0.1,0.6-0.2,0.9c-0.2,1.8-0.3,3.5-0.5,5.3
		c-0.2,2.2-0.3,4.3-0.4,6.5c0,1.4,0.1,2.7,0.1,4.1c0.1,2,0.1,4.1,0.2,6.1c0.1,2.9,0.1,5.9,0.2,8.8c0,1.4,0.1,2.7,0.1,4.1
		c0.1,2.9,0.2,5.9,0.3,8.8c0.1,2.6,0,5.1,0,7.7c0,0.3,0,0.6,0,0.8c0.1,2.2,0.2,4.5,0.2,6.7c0,2-0.1,4-0.1,6c0,2.4,0.1,4.8,0.1,7.1
		c-0.5,0-0.9,0-1.4,0c-0.1-0.4-0.1-0.8-0.1-1.2c-0.1-4.3-0.2-8.6-0.3-12.8c0-1.5,0.1-2.9,0.1-4.4c0-2.8-0.1-5.5-0.1-8.3
		c0-1.6-0.1-3.2-0.2-4.8c-0.1-2.4-0.2-4.8-0.3-7.2c-0.1-3.2-0.1-6.4-0.2-9.6c0-1.6-0.1-3.2-0.1-4.7c0-3.3-0.1-6.7,0-10
		c0-1.4,0.3-2.7,0.4-4.1c0.1-1.2,0.2-2.3,0.3-3.5c0-0.2-0.2-0.5-0.4-0.7c-0.1-0.1-0.5,0.1-0.6,0.2c-2.1,2-4.1,4-6.2,6
		c-2,2-4.3,3.6-6.8,4.8c-2,1-4.3,1.4-6.5,2c-0.8,0.2-1.8,0.4-2.6,0.3c-1.7-0.2-3.5-0.6-5.2-1.1c-1.1-0.3-2.3-0.6-3.2-1.4
		c-1.1-0.9-2.3-1.6-3.6-2.5c0.3,0.9,0.5,1.6,0.8,2.2c1.7,3.5,2.1,7.4,2.3,11.2c0.1,2.2,0.5,4.3,1.9,6.1c0.8,1,1.3,2.3,1.8,3.5
		c0.7,1.7,1.4,3.4,2.1,5.1c0.2,0.4,0.4,0.8,0.7,1.3c0.9,1.6,1.8,3.3,2.8,4.9c1.5,2.3,3.2,4.5,4.9,6.7c2.7,3.6,4.7,7.5,6.8,11.4
		c1.4,2.6,2.5,5.4,3.7,8.2c0.3,0.7,0.5,1.5,0.8,2.3c-0.5,0-1,0-1.5,0c-0.1-0.3-0.2-0.6-0.3-0.9c-1.3-2.9-2.4-5.9-3.9-8.7
		c-1.7-3.3-3.6-6.5-5.5-9.6c-1.4-2.3-3.2-4.4-4.7-6.6c-1.7-2.3-3.1-4.8-4.4-7.3c-1.1-2.1-2-4.3-2.8-6.5c-0.5-1.4-1.2-2.6-2.2-3.8
		c-0.1,0.3-0.1,0.6-0.2,0.8c-0.2,0.8-0.5,1.6-0.6,2.4c-0.1,0.7,0.1,1.5-0.1,2.2c-0.7,2-0.7,4.1-0.9,6.1c-0.3,2.1,0.5,3.7,1.6,5.2
		c1.6,2.3,3.3,4.5,5.2,6.6c1.9,2.1,2.7,4.7,3.2,7.3c0.4,2.1,0.3,4.2,0.3,6.4c0,2.2-0.3,4.3-1.2,6.2c-22.5,0-45,0-67.5,0
		c-0.1-0.4-0.2-0.8-0.2-1.2c0-1.6,0.1-3.2,0-4.8c-0.3-2.4-0.8-4.8-1.2-7.2c-0.5-3.4-1-6.7-1.5-10.1c-0.4-2.5-1-5-1.4-7.5
		c-0.4-2.2-0.8-4.4-1.1-6.6c-0.3-1.7-0.4-3.4-0.8-5c-0.6-2.4-0.4-4.8-0.3-7.3c0-0.3-0.2-0.8-0.5-1c-0.2-0.1-0.7,0-1,0.2
		c-0.5,0.3-0.9,0.8-1.4,1.1c-1.6,1-3.2,1.9-4.8,2.8c-2.7,1.6-5.4,3.3-8.1,4.8c-2,1.2-4.1,2.2-6.2,3.2C0,160.8,0,160.1,0,159.5z
		 M64.8,75.9c0.2,2.4,0.3,4.9,0.6,7.5c0.3,2.7,0.8,5.4,1.2,8.1c0.4,2.2,0.4,4.4,1,6.6c0.8,2.8,1.1,5.6,1.8,8.4
		c0.5,2.4,1.1,4.8,1.9,7.2c0.5,1.6,1.3,3.1,2,4.5c1.2,2.2,2.6,4.4,3.7,6.7c1.3,2.8,3.4,5,5.5,7.2c1.8,1.8,3.8,3.4,5.8,5
		c1.2,0.9,2.3,1.9,3.8,2.3c1.1,0.3,2.3,0.5,3.3,0.9c1.8,0.6,3.7,0.3,5.5,0c1.6-0.3,3.1-0.8,4.6-1.4c2.6-1.2,5-2.8,7.1-4.8
		c1.5-1.4,3-2.9,4.5-4.4c1.3-1.4,2.7-2.8,3.9-4.2c1.5-1.8,2.7-3.8,4.3-5.5c2.9-3.2,4.7-6.9,5.9-10.9c0.7-2.3,1.1-4.8,1.8-7.1
		c0.7-2.2,0.8-4.6,1.1-6.9c0.2-1.7,0.4-3.5,0.5-5.2c0.2-2.8,0.4-5.5,0.4-8.3c0.1-4-0.7-8-1-12c-0.3-3-0.6-5.9-0.8-8.9
		c-0.2-3.2,0.2-6.5-1.1-9.6c0,0,0-0.1,0-0.2c-0.2-1.1-0.4-2.2-0.7-3.2c-0.3-1-0.5-2-0.8-3c-0.3-0.9-0.7-1.9-1.1-2.8
		c-0.9-1.8-2.6-3.1-4-4.6c-0.4-0.4-0.8-0.8-1.2-1.1c-1.9-1.5-3.4-3.2-4.1-5.5c-0.6-2-1.1-3.9-1.4-6c-0.1-1.3-0.3-2.6-0.5-3.9
		c0-0.4-0.1-0.8-0.3-1.1c-0.3-0.4-0.7-0.7-1.3-0.4c-0.6,0.3-0.5,0.7-0.3,1.2c0.1,0.3,0.2,0.6,0.3,0.9c0.2,1.2,0.3,2.4,0.5,3.6
		c0.3,1.5,0.2,2.8-1,3.9c-1.8,1.8-3.8,3.6-6.4,4c-2.7,0.4-5.3-0.1-8-0.3c-1.5-0.2-3.1-0.4-4.6-0.5c-1.5-0.1-2.9,0.1-4.4,0
		c-2.2-0.1-4.3,0.3-6.3,0.9c-2.3,0.6-4.5,1.4-6.7,2.3c-1.9,0.7-3.7,1.7-5.1,3.2c-2,2.2-3.3,4.7-4.7,7.3c-1.6,3-3.1,6.1-4,9.4
		c-0.7,2.6-1.3,5.1-1.3,7.8c0,1.2-0.2,2.4-0.3,3.6c0,0.4,0.1,0.9,0.3,1.1c0.2,0.2,0.8,0.2,1.1,0c1.1-0.4,2.1-0.9,3.2-1.3
		c2.3-0.8,4.7-0.7,7.1-0.7c1.9,0,3.9,0.3,5.8,0.6c1.9,0.3,3.6,1,5.1,2.2c0.4,0.3,0.9,0.7,0.6,1.2c-0.2,0.4-0.7,0.9-1.1,1.1
		c-0.4,0.2-0.9,0.1-1.4,0c-2.5-0.6-5-1.2-7.5-1.9c-1.9-0.5-3.9-0.9-5.9-0.6c-1.4,0.2-2.9,0.3-4.4,0.5c-0.5,0.1-1.1,0.2-1.5,0.4
		c-0.3,0.1-0.6,0.5-0.6,0.8C65.1,71.8,64.9,73.8,64.8,75.9z"/>
	<path class="st0" d="M99.6,124.5c-2.9,0.1-5.8-0.4-8.6-1.1c-1.5-0.4-3-1.1-3.7-2.6c-0.1-0.1-0.2-0.2-0.3-0.4
		c-2.3-2.2-4-4.8-5.8-7.4c-0.4-0.6-0.9-1.2-1.3-1.9c-0.1-0.2-0.1-0.5-0.1-0.6c0.1-0.1,0.4-0.2,0.6-0.2c1.6,0.2,3.2,0.5,4.8,0.8
		c0.9,0.1,1.8,0.1,2.7,0.2c1.4,0.1,2.8,0.3,4.2,0.5c1,0.1,2,0.2,3,0.2c1.2,0,2.2,0.4,3.2,1c0.4,0.2,0.9,0.3,1.3,0.1
		c1.2-0.4,2.3-0.9,3.5-1.2c1.6-0.4,3.3-0.6,4.9-0.8c2.1-0.3,4.2-0.5,6.3-0.8c0.9-0.1,1.9-0.3,2.6-1c0.2-0.2,0.7-0.4,1-0.4
		c0.3,0,0.3,1.3,0.1,1.6c-0.9,1-1.8,2-2.7,3.1c-1,1.3-1.9,2.8-3,4.1c-1.1,1.3-2.3,2.4-3.4,3.6c-0.6,0.6-1.2,1.1-1.9,1.6
		c-1.7,1.1-3.7,1.4-5.7,1.6C100.8,124.5,100.2,124.5,99.6,124.5z M113.2,112.6c-0.1-0.1-0.1-0.2-0.2-0.2c-1.2,0.3-2.3,0.6-3.5,0.9
		c-2.8,0.7-5.6,1.5-8.4,1.9c-1.9,0.3-3.8,0.1-5.7-0.1c-1.6-0.2-3.2-0.6-4.7-0.9c-1.7-0.4-3.4-0.8-5.2-1.3c-0.3-0.1-0.6-0.1-0.9-0.1
		c-0.1,0.1-0.1,0.2-0.2,0.2c0.2,0.3,0.4,0.7,0.7,1c0.7,0.6,1.5,1.1,2.3,1.6c1.5,1,3,2.1,4.6,2.9c1.8,0.9,3.7,1.4,5.7,1.3
		c0.8-0.1,1.6,0,2.5,0c3,0.1,5.6-1,8-2.8c1.2-1,2.5-1.9,3.8-2.9C112.4,113.5,112.8,113,113.2,112.6z M81.9,112.1
		c-0.1,0.1-0.1,0.1-0.2,0.2c1.4,1.9,2.7,3.8,4.1,5.7c0.8,1,1.6,1.9,2.5,2.8c0.4,0.4,0.9,0.8,1.4,1.1c1.4,0.8,3,1.1,4.5,1.3
		c1.5,0.2,3,0.4,4.5,0.5c1.3,0.1,2.6,0,3.9-0.2c1.2-0.2,2.4-0.5,3.5-1.1c1.2-0.7,2.2-1.7,3.3-2.6c2.3-1.9,3.7-4.6,5.5-7
		c-2.5,1.8-4.9,3.5-7.2,5.2c-2.2,1.7-4.7,2.3-7.4,2.3c-1.2,0-2.3,0-3.5,0c-2.3,0-4.4-0.7-6.3-1.8C87.4,116.6,84.4,114.6,81.9,112.1z
		 M85.8,111.8c0,0.1,0,0.1,0,0.2c0.3,0.1,0.5,0.3,0.8,0.3c3.4,0.7,6.7,1.5,10.1,2c1.7,0.3,3.6,0.2,5.4-0.1c2.2-0.3,4.4-1,6.6-1.6
		c1.3-0.3,2.6-0.7,3.9-1.1c-0.3-0.1-0.6-0.2-0.9-0.1c-1.7,0.2-3.3,0.6-5,0.7c-2,0.1-3.8,0.5-5.6,1.4c-1.2,0.6-2.4,0.9-3.6-0.1
		c-1.2-0.9-2.8-0.6-4.3-0.8c-1.3-0.2-2.6-0.3-3.8-0.4C88.2,112.1,87,112,85.8,111.8z"/>
	<path class="st0" d="M82.1,82.9c-2.1-0.3-4.3,0.2-6.3-0.7c-1.3-0.6-2.7-1.1-4-1.6c-0.4-0.2-0.5-0.5-0.1-0.8c2-1.9,4.2-3.8,6.8-4.7
		c2.4-0.9,4.8-1.1,7,0.8c1.7,1.5,3.7,2.8,5,4.7c0.3,0.5,0.3,0.8-0.2,1c-0.9,0.3-1.7,0.5-2.6,0.7c-1.4,0.2-2.9,0.4-4.4,0.6
		C82.9,82.9,82.5,82.9,82.1,82.9z M77.9,76.3c-0.8,0.5-1.6,1-2.4,1.6c-0.7,0.6-1.3,1.4-2,2.1c0.8,0.4,1.8,0.8,2.7,1.3
		c1,0.4,2,0.6,3.1,0.5C77.5,80.3,77.3,78.4,77.9,76.3z M84,81.8c1.9-0.2,3.4-0.4,5-0.6c0.2,0,0.4-0.1,0.5-0.3c0-0.1-0.1-0.4-0.2-0.5
		c-1.1-1.1-2.2-2.2-3.4-3.2c-0.2-0.1-0.4-0.2-0.7-0.4C85.4,78.6,85.7,80.4,84,81.8z M81.2,76.7c-0.4,0.5-0.9,0.8-0.9,1.1
		c0,0.3,0.5,0.7,0.8,0.8c0.2,0,0.7-0.4,0.7-0.7C81.9,77.5,81.6,77.2,81.2,76.7z"/>
	<path class="st0" d="M119.2,81.1c-1.7-0.1-3.4-0.3-5-0.3c-1.1,0-2.2,0.3-3.4,0.5c-0.4,0.1-0.9,0.1-1.4,0.1
		c-1.2,0.1-1.7-0.7-1.1-1.8c0.5-0.9,1.3-1.6,2-2.3c0.6-0.6,1.3-1.1,1.7-1.7c0.7-1,1.6-1.6,2.5-2.2c0.9-0.6,1.9-0.6,2.9-0.7
		c2,0,3.9,0.6,5.6,1.8c0.8,0.6,1.7,0.9,2.5,1.4c1,0.6,1,1.4,0.1,2.1c-1,0.7-1.9,1.4-2.9,2.1C121.8,80.8,120.6,81.2,119.2,81.1z
		 M125,77.3c-0.4-0.3-0.7-0.5-1-0.7c-1.4-0.8-2.8-1.6-4.2-2.4c-0.2-0.1-0.4,0-0.6,0c0,0.2,0,0.4,0.1,0.6c0.6,1.2,0.7,2.4,0.3,3.6
		c-0.2,0.6-0.5,1.1-0.8,1.7C121.5,80.4,123.1,78.6,125,77.3z M112.5,76.4c-1,1.1-2.1,2.1-3.1,3.2c-0.1,0.2-0.1,0.5-0.2,0.9
		c1.6-0.3,3-0.5,4.4-0.8C113.3,78.7,113,77.6,112.5,76.4z M116.8,77c0.2-0.3,0.7-0.6,0.7-0.9c0-0.3-0.5-0.7-0.8-0.8
		c-0.5-0.1-0.8,0.3-0.8,0.8C115.9,76.7,116.2,76.9,116.8,77z"/>
	<path class="st0" d="M130.7,67.3c-0.6-0.2-1.2-0.4-1.6-0.6c-2.8-1.2-5.5-1.2-8.3,0.1c-2.4,1.1-4.8,2.2-7.1,3.4
		c-0.7,0.3-1.4,0.8-2.1,1.1c-0.5,0.2-1.1,0.3-1.6,0.3c-0.4,0-0.9-0.3-1.1-0.6c-0.3-0.5-0.1-1,0.3-1.4c0.7-0.6,1.5-1.1,2.2-1.6
		c1.9-1.4,3.8-2.6,6-3.3c2.6-0.8,5.1-1.6,7.8-1.3c0.5,0.1,1.1,0.1,1.6,0.4c1.4,0.7,2.8,1.4,4.2,2.2c0.3,0.1,0.5,0.6,0.4,0.9
		C131.4,66.9,131,67.1,130.7,67.3z"/>
	<path class="st0" d="M111.2,98.7c-0.2,2.2-1,3.3-3.3,3.9c-1,0.3-2,0.5-3,0.8c-1.5,0.4-2.8,1.3-4,2.2c-0.4,0.3-0.9,0.5-1.4,0.5
		c-1.2,0-2.4-0.2-3.4-1.1c-1.6-1.3-3.5-2-5.6-2.2c-0.8-0.1-1.8-0.9-2.3-1.6c-0.5-0.7-0.2-1.7,0.4-2.4c0.7-0.8,1.4-1.7,2.1-2.4
		c0.2-0.2,0.6-0.1,0.9-0.2c0,0.3,0,0.6-0.1,0.8c-0.6,0.8-1.3,1.6-2,2.3c-0.7,0.8-0.6,1.4,0.3,2.1c0.6,0.4,1.2,0.6,1.8,0.7
		c2.1,0.2,3.9,1.1,5.4,2.4c1.1,0.9,2.6,0.9,3.7,0c1.5-1.2,3.3-1.9,5.2-2.4c1-0.3,2-0.6,2.9-1c1-0.4,1.6-1.9,1.3-2.9
		c-0.1-0.2-0.3-0.3-0.4-0.5c-0.5-0.6-1.1-1.1-1.5-1.7c-0.1-0.2,0-0.6,0.1-0.8c0.2,0.1,0.5,0.1,0.7,0.3c0.6,0.6,1.2,1.1,1.7,1.8
		C110.8,97.7,110.9,98.3,111.2,98.7z"/>
</g>
</svg>
