<?xml version="1.0" encoding="utf-8"?>
<!-- Generator: Adobe Illustrator 19.2.1, SVG Export Plug-In . SVG Version: 6.00 Build 0)  -->
<svg version="1.1" id="Layer_1" xmlns="http://www.w3.org/2000/svg" xmlns:xlink="http://www.w3.org/1999/xlink" x="0px" y="0px"
	 viewBox="0 0 234.5 278.2" style="enable-background:new 0 0 234.5 278.2;" xml:space="preserve">
<style type="text/css">
	.st0{fill:#03A9F4;}
</style>
<g id="pharm-trina">
	<path class="st0" d="M90.5,278c0.9-2,1.7-4,2.7-6c1.4-2.9,2.7-5.8,4.2-8.6c3.3-6.2,6.7-12.3,10.2-18.4c3-5.3,6.2-10.5,9.4-15.7
		c3-4.8,6.4-9.3,9.5-14.1c3-4.6,5.7-9.5,8.7-14.1c1.3-2,2.7-3.9,4.2-5.8c1.9-2.5,3.9-5,5.9-7.5c1.2-1.6,1.1-2.1-0.2-3.5
		c-2-2.1-4-4.3-6-6.4c-0.7-0.8-1.6-1.5-2.6-2.4c-0.9,2.6-1.9,4.9-2.6,7.4c-1.1,3.8-3.5,6.8-5.7,9.8c-1.6,2.2-3.2,4.5-4.7,6.8
		c-3.6,5.5-8.5,9.7-14.1,13.2c-2.2,1.4-4.2,3.1-6.3,4.6c-2.2,1.5-4.5,2.8-7.2,3.4c-2.1,0.5-4.1,1.6-6.2,2.2c-4.1,1.1-8.3,2-12.4,3
		c-0.5,0.1-1.1,0-1.8,0c0.7,1.9,1.2,3.7,2,5.4c1.6,3.5,2.1,7.4,3.2,11c1.3,4.3,2.7,8.6,4.1,12.9c0.9,2.9,1.8,5.8,2.5,8.7
		c0.7,3.1,1.3,6.3,1.7,9.5c0.2,1.5,0,3.1,0,4.7c-15.4,0-30.8,0-46.3,0c-0.3-2.1-1-4.3-0.9-6.4c0.1-2.8,0.6-5.6,1-8.4
		c0.1-0.6,0.4-1.2,0.3-1.8c-0.2-1.7,0.5-3.2,1-4.8c0.2-0.7,0.1-1.4,0.2-2.5c-0.7,0.5-1.1,0.8-1.5,1.1c-3.8,3.2-7.5,6.6-11.5,9.6
		c-2.2,1.6-4.7,2.9-6.3,5.1c-1.7,2.3-3.2,4.8-4.6,7.2c-0.5,0.8-0.9,1.2-1.9,0.8c1.2-2.8,2.6-5.6,4.6-7.9c1.8-2,3.8-3.8,5.9-5.5
		c2.6-2.1,5.3-3.9,7.9-5.9c1.6-1.3,3.1-2.7,4.6-4.1c0.6-0.5,0.9-1.3,1.5-2.2c-0.4-1.3-1-3.3-1.7-5.2c-1.4-3.5-2.7-7-4.3-10.4
		c-1.3-2.7-2.9-5.4-5.2-7.4c-2.6-2.2-4.2-5-5.8-7.9c-1.9-3.6-3.8-7.1-5.3-10.9c-1.2-3.1-1.6-6.4-1.9-9.8c-0.4-4.8-0.3-9.6-0.1-14.4
		c0.1-3.2,0.6-6.3,1.8-9.3c0.6-1.6,0.9-3.3,1.2-5c0.3-1.9,0.6-3.9,0.8-5.8c0.3-3.4-1-6.5-2.1-9.6c-0.9-2.6-2.9-4.6-4.3-6.9
		c-2.4-4-4.7-8.2-7-12.3c-2.1-3.7-4-7.5-5.1-11.6c-0.9-3.1-1.5-6.2-2.1-9.4c-0.6-3.4-1-6.8-1.4-10.2c0-0.3,0-0.6,0-1
		c0-4,0-7.9,0-11.9c0.1-4.7,0.6-9.3,1.8-13.8c0.7-2.7,1.6-5.5,2.4-8.2c0.3-1.3,0.3-2.6,0.6-3.9c0.8-4.1,2.3-7.8,4.4-11.4
		c2.1-3.5,4.5-6.9,5.9-10.8c1.3-3.5,2.8-6.9,4.6-10.1c1.4-2.4,3.3-4.5,5.1-6.7c3.5-4.3,8-7.7,12.3-11.2c3.4-2.8,7-5.2,10.5-7.8
		C49.8,8,51.8,6.2,54.4,5c3.3-1.5,6.5-3.1,9.8-4.7c0.6-0.3,1.3-0.4,2-0.3c3.2,0,6.3-0.1,9.5,0.3c3,0.4,5.8,1.2,8.8,1.9
		c0.5,0.1,1.1,0.2,1.7,0.2c3.6-0.1,7,0.8,10.5,1.5c0.3,0.1,0.6,0.2,0.9,0.3c2.1,0.8,4,2,6.3,2.2c0.3,0,0.7,0.3,1,0.4
		c1.2,0.5,2.3,1,3.5,1.5c1.5,0.7,2.9,1.5,4.4,2c4.6,1.6,8.7,4.1,12.5,7.1c2.6,2,5.3,3.9,7.2,6.6c1,1.4,2.1,2.8,2.8,4.3
		c0.9,1.9,2.7,2.5,4.2,3.3c1.7,0.8,2.8,2.2,3.9,3.5c1.7,2,3.1,4.1,4.8,6.1c1.2,1.4,2.6,2.6,3.7,4.1c1.4,1.9,2.6,4,3.9,6
		c0.9,1.4,1.7,2.8,2.7,4.1c2.6,3.3,5.4,6.5,7.1,10.5c0.9,2.2,1.7,4.4,2.6,6.6c0.4,0.9,1,1.6,1.4,2.5c0.7,1.6,1.5,3.2,2.1,4.8
		c1,2.4,1.9,4.8,2.7,7.2c0.2,0.6,0.4,1.3,0.5,1.9c0.1,2.9,1.1,5.4,2.8,7.7c1.1,1.5,1.8,3.3,2.7,4.9c0.7,1.4,1.3,3,2.2,4.4
		c1.6,2.4,3.3,4.9,5.2,7.1c1.4,1.7,2.1,3.7,3.3,5.5c0.7,1.1,1.8,2,2.6,3.1c1.2,1.8,2.4,3.7,3.4,5.6c1.1,2,2,4,2.9,6
		c1.1,2.4,2.1,4.8,3.1,7.2c0,0.1,0.1,0.2,0.1,0.3c1.3,1.4,1.7,3.1,2.1,4.9c0.5,2.3,1.3,4.5,2,6.8c0.4,1.2,1,2.4,1.4,3.6
		c0.9,2.5,1.8,5,2.6,7.5c0.5,1.6,0.6,3.2,1.1,4.8c0.3,1.1,0.8,2.2,1.2,3.3c1.1,3.3,1,6.8,1,10.3c0,0.5,0,1.1,0.2,1.5
		c1,1.6,1,3.4,1.2,5.1c0.1,1.3-0.2,2.7-0.2,4.1c0,1.3,0.2,2.6,0.2,3.9c0,1.5-0.1,3-0.1,4.4c0,1.6,0,3.3,0.1,4.9
		c0.1,2,0.6,3.8,1.7,5.5c0.2,0.3,0.3,0.8,0.2,1.1c-0.2,2.5,1.3,4.4,2.6,6.2c0.1,0.2,0,0.5,0.1,0.7c0.1,0.4,0.3,0.8,0.6,1.1
		c1,1,2.1,1.9,3,3c1.4,1.7,2.7,3.6,4.1,5.4c0.9,1.2,1.9,2.3,2.7,3.6c1.1,1.6,2.2,3.2,3.1,4.8c0.4,0.7,0.4,1.6,0.4,2.5
		c0,12.6,0,25.1,0,37.7c0,0.2,0,0.3-0.1,0.6c-2.2,0-4.4,0-6.6,0c-0.2,0-0.5-0.4-0.7-0.7c-1.2-2.6-2.4-5.2-3.5-7.9
		c-1.2-3-2.8-5.8-4.8-8.3c-1.5-1.8-3.1-3.6-4.7-5.4c-1.8-2.2-4-4.1-5.3-6.6c-0.4-0.7-1.3-1.1-1.8-1.7c-2.5-2.8-4.9-5.6-7.3-8.5
		c-2.3-2.8-4.3-5.7-6.6-8.5c-1.3-1.5-3.1-2.7-4.6-4.1c-2.4-2.3-4.7-4.6-7.1-6.9c-0.8-0.8-1.6-1.8-2.4-2.6c-1.5-1.5-2.7-3.1-3.7-5
		c-0.8-1.6-1.7-3.4-3.7-3.9c-1,1.9-1.9,4-3.2,5.8c-2.1,3.1-4.7,5.9-7.7,8.2c-1.8,1.5-3.5,3.2-5.3,4.8c-3.2,2.7-6.6,5.3-9.8,8.1
		c-1.7,1.5-3.4,3.1-5,4.7c-2.3,2.2-4.6,4.4-6.7,6.7c-2,2.2-3.7,4.5-5.6,6.8c-1.9,2.3-3.9,4.5-5.7,6.9c-1.3,1.7-2.4,3.6-3.4,5.5
		c-2.2,4.3-4.9,8.2-7.7,12.1c-0.5,0.7-0.6,0.7-2.5,0.5c1.3-2,2.7-3.9,4-5.8c1.4-2.1,2.8-4.2,3.9-6.4c2.4-4.7,5.5-8.9,9.2-12.7
		c1.6-1.7,2.9-3.7,4.4-5.5c1.3-1.5,2.7-3,4.2-4.4c1.2-1.2,2.4-2.4,3.6-3.6c2.9-2.8,5.7-5.7,8.7-8.4c1.8-1.6,3.9-3,5.8-4.5
		c2.3-1.8,4.5-3.7,6.7-5.6c1.7-1.5,3.3-3,4.7-4.7c2.3-2.8,4.6-5.7,5.3-9.5c0.1-0.4-0.1-1-0.4-1.3c-3.2-3.1-6.4-6.2-9.6-9.2
		c-0.4-0.4-0.7-1-1.2-1.4c-1.6-1.3-3.3-2.6-4.9-3.9c-1.3-1.1-2.6-2.1-3.9-3.2c-0.6-0.5-1.2-0.5-1.7,0.2c-1.9,2.2-3.9,4.4-5.7,6.7
		c-2,2.6-3.8,5.3-5.7,8c-1.7,2.4-3.3,4.9-4.9,7.4c-2,3.1-3.8,6.2-5.8,9.3c-3.1,4.8-6.4,9.4-9.5,14.2c-1.9,2.9-3.5,6-5.2,9
		c-1.1,1.9-2.3,3.8-3.4,5.7c-3.5,6.1-7.2,12.1-9.9,18.7c-0.8,2-2,3.8-2.9,5.8c-0.7,1.3-1.3,2.7-1.8,4.1
		C92.6,278.1,91.8,278.4,90.5,278z M56,52.7c0.7-1.6,1.3-3.2,2.1-4.6c1.3-2.2,2.7-4.2,4-6.4c1.9-3.2,4.4-5.9,7.4-8
		c0.3-0.2,0.8-0.8,0.7-1c-0.2-0.4-0.7-1-1.1-1c-0.5-0.1-1.3,0.1-1.6,0.5c-1.6,1.8-3.2,3.6-4.7,5.5c-1.7,2-3.2,4.2-4.9,6.2
		c-2.1,2.3-3.7,4.8-5.1,7.5c-0.2,0.4-0.7,0.8-1.1,0.9c-1.5,0.6-3,1-4.4,1.5c-1.8,0.7-3.6,1.4-5.4,2.1c-1.6,0.6-3.3,0.9-4.7,2.3
		c-1.9,1.9-4.3,3.3-6.3,5.2c-1.3,1.2-3.1,1.9-4,3.6c-2.1,3.8-4.7,7.3-6.7,11.2c-1.6,3.3-2.9,6.8-3.2,10.6c-0.2,2.3-0.6,4.6-0.7,6.9
		c-0.3,4.2,0.1,8.4,0.7,12.6c0,0.2,0.4,0.6,0.6,0.6c3.6-0.1,7.2-0.2,10.9-0.3c1.5,0,2.9,0.1,4.4,0.4c2.4,0.5,4.8,1.3,7.2,1.9
		c0.9,0.3,1.9,0.4,2.8,0.8c0.4,0.2,0.7,1.1,0.6,1.5c-0.2,0.6-0.9,1-1.7,0.8c-0.5-0.2-1.1-0.4-1.6-0.6c-5.1-1.8-10.4-2.6-15.8-2.2
		c-1.9,0.1-3.8,0.2-5.7,0.3c0.1,1.6,0.2,3.1,0.3,4.5c0.3,3.7,0.6,7.4,1,11.1c0.2,2,0.5,4.1,0.7,6.1c0.1,1.6,0.3,3.3,0.3,4.9
		c-0.1,2.5-0.3,4.9-0.4,7.4c0,0.8,0.3,1.7,0.4,2.5c0.4,2.6,0.6,5.2,1.1,7.7c0.6,3,1.3,6,2.1,9c0.6,2.5,1.1,5.1,2.4,7.5
		c3.1,5.3,6.1,10.8,9.2,16.2c1.5,2.5,3.3,4.9,5.1,7.2c1.1,1.4,2.5,2.5,3.7,3.8c1.2,1.2,2.3,2.6,3.6,3.7c2.7,2.2,4.6,4.9,5.8,8.2
		c1.4,4,3.7,7.3,7.3,9.7c4.6,3.1,9.7,3.7,15,3c4.6-0.6,9.2-2,13.7-3.2c2-0.5,3.9-1.4,5.8-2.2c2-0.8,4-1.6,5.8-2.8
		c3.9-2.6,7.8-5.3,11.6-8.2c2.1-1.6,4.2-3.4,5.8-5.4c3.1-3.9,5.7-8.1,8.7-12.1c2.2-3,4.2-6.2,5.2-9.8c0.3-1.2,0.8-2.3,1.3-3.4
		c1-2.2,0.9-3-0.7-4.7c-0.2-0.2-0.3-0.4-0.4-0.6c-1-1.6-1.9-3.2-2.9-4.7c-2.4-3.4-4.5-7-5.7-11c-1.8-5.6-3.7-11.2-6.4-16.5
		c-0.6-1.3-1.3-2.5-1.9-3.8c-1.3-3-2.5-6.1-3.9-9.1c-1-2.3-2.3-4.5-3.3-6.9c-2.3-5.6-5-11.1-8.3-16.2c-0.4-0.6-0.9-1-1.8-0.8
		c-2,0.5-4.1,0.7-6.1,1.2c-3.1,0.8-6.1,1.7-9.1,2.7c-1.9,0.7-3.8,1.4-5,3.2c-0.5,0.7-1,1.2-1.9,0.6c-0.9-0.5-1-1.3-0.5-2
		c0.5-0.8,1.2-1.5,2-2.1c2.9-1.9,6.3-2.6,9.5-3.6c3.5-1,7.2-1.9,10.8-2.9c-0.2-0.4-0.3-0.8-0.4-1.1c-0.2-0.4-0.3-0.7-0.5-1.1
		c-2.4-6.4-5.5-12.3-9.4-17.9c-0.6-0.9-1.2-1.7-1.9-2.6c-1.1-1.4-2.1-2.9-3.4-4.2c-1.5-1.5-3.1-2.9-4.7-4.4
		c-0.5-0.4-1.1-0.8-1.6-1.2c-0.9-0.6-1.8-1.2-2.6-1.9c-0.9-0.8-1.6-1.8-2.6-2.5c-3.6-2.5-7.2-5.2-10.4-8.2
		C59.7,53.6,58.1,52.7,56,52.7z"/>
	<path class="st0" d="M67.7,198.4c-2-0.3-4.2-0.1-6-0.9c-2.5-1-4.8-2.5-7-4.1c-2.9-2.2-5.1-5-6.6-8.4c-1-2.2-2.2-4.5-4.6-5.7
		c-0.3-0.1-0.4-0.8-0.4-1.2c0-0.2,0.7-0.4,1-0.5c2.7,0,5.4,0.2,8.1,0c3.9-0.3,7.7-0.9,11.6-1.3c1-0.1,2,0.3,3,0.5
		c0.6,0.1,1.4,0.3,1.8,0.1c2.4-1.2,5-1.1,7.6-1.1c3.5-0.1,7.1-0.2,10.6-0.2c2.7-0.1,5.4-0.3,8.1-0.2c1.5,0,3,0.5,4.4-0.4
		c0.1-0.1,0.6,0.1,0.7,0.3c0.1,0.3,0.2,0.7,0,0.9c-0.5,0.7-1,1.4-1.6,2.1c-2.2,2.7-4.4,5.4-6.6,8.1c-0.7,0.8-1.6,1.3-2.3,2.1
		c-3.3,3.9-7.8,6.1-12.4,8.1c-3,1.3-6.2,2-9.5,1.6C67.7,198.2,67.7,198.3,67.7,198.4z M95.6,179.7c-0.1-0.1-0.1-0.1-0.2-0.2
		c-2.5,1.5-4.9,3.2-7.6,4.5c-4.8,2.3-9.8,4.1-15,5.4c-3.7,0.9-7.4,0.6-10.7-0.7c-3.9-1.6-7.5-4.1-11.2-6.1c-1.2-0.7-2.4-1.4-3.9-2.3
		c1,1.8,2,3.2,2.7,4.7c2.3,5.3,6.7,8.5,11.6,10.9c3.2,1.6,7,1,10.4,0.7c3.3-0.3,6.2-1.8,9.1-3.4c1.9-1,3.8-2.1,5.4-3.5
		c2.2-1.8,4.1-3.9,6-6C93.5,182.5,94.5,181.1,95.6,179.7z M49.1,179.4c0,0.1-0.1,0.2-0.1,0.3c1.4,0.7,2.8,1.4,4.2,1.9
		c0.9,0.3,2,0.4,3,0.4c1.6,0.1,3.3,0.1,4.9,0c3.4-0.3,6.7-1,10.1-1.1c4.2-0.1,8.4,0,12.6-0.8c3.8-0.8,7.6-2,11.4-3
		c0-0.1,0-0.2,0-0.3c-1.1-0.1-2.1-0.2-3.2-0.2c-1.7,0.1-3.5,0.4-5.2,0.4c-3.1,0.1-6.1,0.2-9.2,0.3c-1.4,0-2.7-0.1-4.1,0
		c-1.3,0.1-2.5,0.6-3.8,0.7c-1.1,0.1-2.3,0.5-3.2,0.1c-2-0.8-4-0.6-6-0.3c-2.4,0.4-4.9,0.7-7.3,1.1
		C51.8,179.2,50.4,179.2,49.1,179.4z M92.8,179.3c-0.2,0-0.4,0-0.5,0c-5.3,2-10.8,2.8-16.3,3.1c-2.8,0.2-5.6,0.1-8.3,0.3
		c-3.1,0.2-6.3,0.6-9.4,0.9c-0.8,0.1-1.5,0-2.3,0c3.1,1.6,5.6,4,9.2,4.4c2.7,0.3,5.3,0.6,7.9-0.1c2.3-0.6,4.6-1.5,6.9-2.2
		C84.6,184.3,88.8,182.2,92.8,179.3z"/>
	<path class="st0" d="M78.2,126.7c1.2-3.3,2-6.7,4.7-8.9c2.1-1.7,4.4-2.9,7.2-3.2c3.4-0.4,6.8-0.3,10.1,0.8c1,0.3,2,0.8,3,1.2
		c0,0.2-0.1,0.3-0.1,0.5c-0.4-0.1-0.8,0-1.2-0.2c-3.4-1-6.8-1.8-10.4-1.5c-4.8,0.4-8.4,2.4-10.6,6.7c-0.3,0.5-0.5,1-0.6,1.7
		c0.2-0.2,0.5-0.4,0.7-0.5c1.4-1.2,2.8-2.4,4.3-3.6c3.1-2.4,6.8-2.4,10.5-2.1c3.7,0.3,6.6,2.5,9.3,4.8c0.6,0.5,0.5,0.7,0,1.4
		c-1.9,2.2-4.5,2.6-7.1,2.8c-4.9,0.4-9.8,0.6-14.7,0.7C81.7,127.4,80,126.9,78.2,126.7z M79.7,125.8c3.7,0.9,7.4,0.8,11.4,0.4
		c-2.6-2.2-2.2-4.7-1.7-7.5C85.4,120.2,82.8,123.3,79.7,125.8z M104,123.4c-1.4-1.5-2.5-3-4.4-3.4c-0.4,1.9-0.8,3.7-1.2,5.6
		C100.3,125.2,102.4,125.1,104,123.4z M92.5,120.9c0,0.2,0.1,0.4,0.1,0.6c0.5,0.1,1,0.4,1.5,0.3c0.3-0.1,0.6-0.7,0.7-1.2
		c0-0.2-0.5-0.7-0.6-0.6C93.6,120.3,93.1,120.6,92.5,120.9z"/>
	<path class="st0" d="M51,124.1c-3.2-2.7-6.7-5.4-11.1-5c-4,0.3-8.4,0.3-11.5,3.8c-0.4-1.1-0.1-1.8,1-2.3c1.9-0.7,3.7-1.5,5.7-1.9
		c2.1-0.4,4.3-0.6,6.4-0.5c1.7,0.1,3.5,0.8,5.1,1.5c1.4,0.6,2.7,1.7,4,2.5c1.5,1,2.4,2.4,3,4c0.1,0.3-0.1,0.8-0.3,1.1
		c-1.9,1.9-4.3,2.9-6.9,3.2c-2.9,0.4-5.9,0.6-8.9,0.5c-2.1-0.1-4.2-0.6-6.2-1.3c-1.2-0.5-2-1.8-2.9-2.9c-0.1-0.1,0.1-0.8,0.3-1
		c1-1.1,2-2,3.5-2.3c3.1-0.6,6.2-1.4,9.4-1.7C44.9,121.6,48,122.7,51,124.1z M38.7,130.2c-2.3-1.8-2.6-4.2-1.7-7.1
		c-2.1,0.8-4,1.4-5.8,2.3c-2.1,1-2.1,2-0.2,3.3c0.1,0,0.1,0.1,0.2,0.1C33.6,130.2,36.2,129.9,38.7,130.2z M46.3,130
		c1.8-0.4,3.7-1,5.3-2.2c0.9-0.7,0.9-1.4-0.1-2c-1.2-0.7-2.5-1.2-3.7-1.8C47.3,126,46.8,128,46.3,130z M41.4,124.1
		c-0.5,0.6-0.8,0.9-1,1.3c0.3,0.3,0.7,0.8,1,0.8c0.4,0,0.7-0.5,1.1-0.8C42.1,125,41.9,124.7,41.4,124.1z"/>
	<path class="st0" d="M63.9,169.1c-1.8-0.6-3.4-1.2-5-1.8c-2.9-1-5.3-2.6-7.1-5.2c-0.7-1-0.8-2.1-0.6-3.4c0.4-2.5,1.2-4.7,2.6-6.8
		c0.1-0.2,0.1-0.4,0.2-0.5c0.2-0.3,0.3-0.7,0.6-0.9c0.1-0.1,0.7,0.1,0.8,0.3c0.1,0.4,0.2,0.9,0.1,1.2c-0.6,1.3-1.4,2.5-2,3.9
		c-0.5,1.2-0.8,2.4-0.9,3.6c-0.1,0.7,0.3,1.6,0.8,2.1c1.5,2,3.5,3.3,5.9,4.1c0.9,0.3,1.8,0.9,2.7,1.2c2.3,0.8,4-0.2,5.7-1.7
		c2.6-2.2,5.2-4.3,8.6-5.3c1.5-0.4,3.1-0.6,4.6-1.1c1.6-0.5,2.2-2.3,1.5-3.8c-0.5-1.3-1.2-2.4-2.6-2.9c-0.2-0.1-0.5-0.3-0.6-0.5
		c-0.2-0.3-0.3-0.8-0.2-0.9c0.3-0.2,0.8-0.5,1.1-0.4c1.8,1,4.2,3.1,4.1,6.1c-0.1,1.7-0.8,2.9-2.3,3.6c-1.3,0.5-2.7,1-4.1,1.2
		c-2,0.3-3.6,1.2-5.1,2.4c-1.7,1.3-3.4,2.6-5.1,3.8C66.3,168.1,65.1,168.5,63.9,169.1z"/>
</g>
</svg>
