<?xml version="1.0" encoding="utf-8"?>
<!-- Generator: Adobe Illustrator 19.2.1, SVG Export Plug-In . SVG Version: 6.00 Build 0)  -->
<svg version="1.1" id="Layer_1" xmlns="http://www.w3.org/2000/svg" xmlns:xlink="http://www.w3.org/1999/xlink" x="0px" y="0px"
	 viewBox="0 0 163.5 200" style="enable-background:new 0 0 163.5 200;" xml:space="preserve">
<style type="text/css">
	.st0{fill:#00BCD4;}
</style>
<g id="pharm-tonia-cyan">
	<path class="st0" d="M0,196c0.1-0.1,0.3-0.3,0.3-0.4c0.9-1.8,1.8-3.7,2.7-5.5c0.8-1.5,1.7-3,2.5-4.5c1.4-2.8,2.7-5.5,3.9-8.4
		c1.1-2.4,2-4.8,3.3-7c0.7-1.3,1.2-2.7,2-4c1-1.6,2.2-3,3.2-4.5c1.1-1.6,2.7-2.9,4.2-4.1c0.6-0.5,1.2-1,1.7-1.6
		c2.2-2.5,4.9-4.1,8.1-5c1.8-0.5,3.6-1,5.4-1.5c0,0.1,0,0.1,0,0.2c0,0,0.1-0.1,0-0.1c-0.8-1.4-1.6-3-2.5-4.3c-1.2-1.7-2.6-3.3-3.8-5
		c-0.5-0.7-0.8-1.7-1.3-2.4c-1.3-2.1-2.4-4.2-3.2-6.5c-0.8-2.2-1.7-4.4-1.9-6.8c-0.3-2.8-1.5-5.3-2.3-7.9c-0.6-1.9-1.1-3.9-1.5-5.8
		c-0.4-2-0.8-4.1-1.2-6.1c-0.2-0.9-0.3-1.9-0.3-2.8c-0.1-1.6-0.2-3.3-0.1-4.9c0-1.2,0.3-2.4,0.4-3.7c0.2-1.6,0.4-3.2,0.6-4.9
		c0.2-1.3,0.5-2.5,0.7-3.8c0.5-2.6,1.2-5.3,1.5-7.9c0.2-1.7,0.1-3.4-0.1-5.1c-0.3-2.7-0.8-5.3-1.2-7.9c-0.3-2.3-0.1-4.5,0.2-6.8
		c0.1-1,0.2-2,0.3-2.9c0.1-1.1,0.3-2.2,0.4-3.3c0.2-1.5,0.5-2.9,0.6-4.4c0.1-0.8,0.1-1.7,0.1-2.6c0-1.7,0.2-3.4,0.6-5
		c0.4-1.3,0.8-2.7,1.3-4c0.6-1.6,1.2-3.3,1.8-4.9c0.3-0.7,0.7-1.4,1-2c0.7-1.2,1.3-2.4,2.1-3.5c0.9-1.3,2-2.5,3-3.7
		c1.3-1.4,2.6-2.8,3.9-4.2c1.6-1.7,3.4-2.9,5.3-4.2c2.5-1.7,5-3.3,7.5-4.9c1.7-1.1,3.4-2.2,5.2-3.1c1.8-0.9,3.7-1.7,5.6-2.3
		c1.4-0.5,2.9-0.6,4.3-0.9c1.7-0.3,3.3-0.5,5-0.7c0.6-0.1,1.1-0.2,1.7-0.2C75.2,0.1,79.1,0.1,83,0c2.3,0,4.5,0.4,6.8,0.9
		c1.5,0.4,3.1,0.7,4.7,1.1c1.9,0.5,3.8,1,5.5,2c1,0.6,2.2,0.9,3.3,1.5c1.1,0.6,2.2,1.2,3.3,1.8c2.2,1.2,4,2.9,5.7,4.7
		c1.3,1.4,2.8,2.7,4,4.3c1.1,1.4,2,3.1,3.1,4.6c0.8,1.2,1.7,2.4,2.5,3.7c0.3,0.5,0.6,1.1,0.8,1.7c0.9,1.8,1.9,3.6,2.7,5.5
		c0.6,1.6,1,3.2,1.4,4.8c0.6,2.4,1.1,4.8,1.6,7.2c0.2,0.9,0.3,1.9,0.4,2.8c0.1,1.3,0.3,2.5,0.4,3.8c0,0.2,0,0.4,0,0.5
		c0,1.6-0.1,3.1,0,4.7c0.1,1.8-0.2,3.5-0.6,5.2c-0.2,0.9-0.3,1.9-0.3,2.9c0,3.1,0,6.2,0,9.3c0,1-0.2,1.8,1.1,2.2
		c0.7,0.2,1.1,1.2,1.7,1.6c1.5,1.1,1.8,2.6,2,4.3c0.1,0.9,0.2,1.7,0.3,2.6c0.1,1.4-0.3,2.8-0.8,4.1c-0.7,1.7-1.2,3.5-2,5.2
		c-0.9,1.8-1.4,3.7-2.2,5.6c-0.5,1.4-1.3,2.7-1.9,4.1c-0.4,1-0.9,1.9-1.3,2.9c-0.9,2.2-2.2,4-4.4,5.1c-1.7,0.8-3.5,1.3-5.4,1.3
		c-0.5,0-1,0-1.5,0c-1.2,5.2-2.4,10.4-3.7,15.6c0.2,0,0.4,0.1,0.5,0c2.3-0.6,4.6-0.6,7-0.7c1.4,0,2.8,0,4.2,0c0.9,0,1.7-0.2,2.6-0.2
		c0.8,0,1.5,0.3,1.9,1.1c1.4,3,3,6.1,4.4,9.1c0.7,1.4,1.2,2.9,1.8,4.3c1.2,2.5,2.4,5,3.8,7.4c1.7,2.8,3.7,5.5,5.5,8.3
		c1.2,1.8,2.3,3.7,3.5,5.5c1.1,1.6,2.2,3.2,3.3,4.8c1.3,1.9,2.6,3.8,4,5.6c0.5,0.7,1.2,1.2,1.8,1.8c0.9,0.9,1.9,1.8,2.8,2.7
		c0.7,0.7,1.3,1.5,2,2.3c0.3,0.3,0.6,0.6,1,0.9c1,0.9,2,1.8,3.3,2.4c0,0.6,0,1.3,0,1.9c-0.4-0.4-0.7-0.8-1.1-1.1
		c-1.2-0.9-2.4-1.7-3.5-2.7c-0.6-0.5-1-1.3-1.6-1.9c-1.4-1.5-2.9-2.9-4.4-4.3c-0.4-0.4-0.9-0.8-1.3-1.3c-1.7-2.3-3.3-4.6-4.9-7
		c-1.1-1.6-2.1-3.2-3.2-4.8c-0.6-0.8-1.2-1.6-1.9-2.5c-1.2,1.2-2.5,2.2-3.5,3.4c-1.6,2.1-3.5,3.8-5.6,5.3c-1.3,1-2.8,1.6-4.2,2.5
		c-2.5,1.5-4.7,3.5-6.7,5.6c-1.2,1.3-2.2,2.7-3.4,4.1c-1.1,1.3-2.3,2.6-3.5,4c-0.7,0.8-1.5,1.6-2.1,2.5c-1.4,2.1-2.7,4.3-3.9,6.5
		c-0.7,1.2-1.3,2.5-2,3.8c-0.6,1-1.2,2.1-1.7,3.1c-0.5,0-1.1,0-1.6,0c1-1.6,2-3.2,2.9-4.8c1.5-2.7,2.8-5.4,4.4-8
		c1.1-1.8,2.7-3.3,4-5c0.9-1.1,1.9-2.2,2.8-3.3c0.9-1.1,1.7-2.3,2.7-3.4c1.1-1.2,2.3-2.2,3.5-3.2c1.2-1,2.4-2,3.7-2.8
		c1.2-0.8,2.5-1.3,3.7-2.1c1.1-0.7,2.1-1.6,3.1-2.4c0.7-0.6,1.4-1.2,2-1.9c1.3-1.7,2.6-3.3,4.4-4.5c0.2-0.2,0.7-0.4,0.4-0.9
		c-1-1.5-2.1-3.1-3.1-4.6c-1.1-1.7-2.3-3.4-3.3-5.1c-1.1-2-2.1-4-3-6c-0.8-1.7-1.6-3.5-2.3-5.3c-0.8-1.7-1.5-3.4-2.3-5
		c-0.5-1-1-2.1-1.6-3.2c-0.2,0.5-0.3,0.8-0.4,1.1c-0.4,1-0.8,2-1.4,2.9c-1,1.7-2,3.3-3,5c-0.7,1.1-1.2,2.3-2,3.2
		c-2.4,2.9-4.7,5.7-6.8,8.7c-0.7,1.1-1.5,2.2-2.3,3.2c-1.2,1.6-2.4,3.1-3.6,4.6c-1.7,2.1-3.4,4.2-5.2,6.2c-2.5,2.6-5,5.1-7,8
		c-1,1.4-1.8,2.9-2.9,4.2c-1.4,1.7-2.9,3.3-4.4,4.8c-1.7,1.7-3.3,3.4-4.5,5.5c-1,1.7-2.3,3.3-3,5.1c-0.6,1.4-1.5,2.6-2.2,3.9
		c-0.2,0.3-0.4,0.6-0.7,0.8c-1.3,1.4-2.5,2.8-3.8,4.1c-0.6,0-1.3,0-1.9,0c1.4-1.4,2.8-2.8,4.1-4.3c0.7-0.8,1.3-1.7,1.9-2.7
		c0.3-0.5,0.4-1,0.6-1.5c0.1-0.3,0.3-0.6,0.5-0.9c0.2-0.2,0.4-0.3,0.6-0.5c0.4-0.7,0.8-1.4,1.2-2.1c1.8-3,3.6-6,6.3-8.4
		c2.7-2.4,4.8-5.3,6.8-8.3c1.2-1.7,2.4-3.4,3.8-4.9c3.1-3.2,6.2-6.5,8.9-10.1c1.2-1.6,2.5-3,3.7-4.6c1.5-2.1,2.9-4.2,4.4-6.3
		c0.6-0.8,0.4-1.4,0.2-2.2c-0.6-1.7-1.3-3.3-1.8-5c-0.8-2.6-1.5-5.3-2.3-8c0,0-0.1,0.1-0.2,0.3c-0.7,1.5-1.4,3.1-2.2,4.6
		c-1.3,2.1-2.8,4.1-4.7,5.7c-1,0.9-2,1.7-3,2.5c-1.4,1.2-2.8,2.4-4.3,3.5c-1.4,1.1-2.7,2.3-4.1,3.3c-1.5,1-3.1,1.9-4.7,2.8
		c-0.7,0.4-1.3,1-2.1,1.4c-2.4,1.2-4.6,2.7-7.2,3.3c-0.1,0-0.3,0.1-0.4,0.2c-1.2,0.7-2.5,1.4-3.7,2c-0.9,0.4-1.9,0.8-2.9,1.1
		c-1.8,0.5-3.6,0.9-5.4,1.2c-2.2,0.4-4.4,0.7-6.6,0.6c-0.8,0-1.6,0-2.5,0c0,0.9-0.1,1.7,0,2.5c0.4,1.9,0.9,3.8,1.5,5.7
		c0.6,1.7,1.4,3.4,1.9,5.1c0.6,1.8,0.9,3.7,1.4,5.6c0.6,2.6,1.1,5.1,1,7.8c0,0.9-0.1,1.9-0.1,2.8c0,0.5-0.2,0.8-0.7,0.8
		c-0.5,0-0.7-0.4-0.7-0.8c0-0.4,0.1-0.8,0.1-1.3c0.1-2.7,0-5.4-0.7-8c-0.2-0.8-0.4-1.7-0.7-2.7c-1.5,2.3-3.5,3.9-4.8,6.1
		c-0.7,1.2-1.8,2.1-2.5,3.2c-1,1.5-1.9,3.2-2.8,4.8c-0.5,0.9-1,1.8-1.3,2.8c-0.4,0.9-0.6,1.9-0.8,2.8c-3,0-6.1,0-9.1,0
		c0-0.1,0-0.2,0.1-0.3c0.7-1.1,1.4-2.3,2.1-3.4c1-1.7,2-3.4,3.1-5c1.5-2.2,3-4.4,4.7-6.5c1.6-2.1,3.2-4,4.8-6
		c1.3-1.6,2.5-3.2,3.8-4.8c0.4-0.5,0.4-1.1,0.2-1.7c-0.6-2.2-1.2-4.4-1.7-6.6c-0.2-0.9-0.2-1.9-0.2-3.1c-0.7,0.9-1.3,1.7-1.8,2.5
		c-1.4,2-2.8,4.1-4.6,5.8c-1.3,1.2-2.5,2.3-3.7,3.6c-0.7,0.8-1.3,1.6-2,2.5c-0.3,0.3-0.3,0.8-0.7,1.1c-0.8,0.6-1.1,1.5-1.6,2.3
		c-1.1,2.1-2.4,3.9-4.1,5.6c-1.6,1.6-2.8,3.5-3.7,5.5c-1,2.1-2.1,4.1-3.8,5.8c-0.8,0.8-1.4,1.9-2.1,2.9c-0.6,0-1.2,0-1.8,0
		c0.2-0.2,0.4-0.5,0.6-0.7c0.7-0.9,1.3-2,2.1-2.8c1.6-1.6,2.8-3.4,3.7-5.4c1.1-2.6,2.8-4.9,4.7-6.9c1.2-1.3,2.1-2.7,3-4.3
		c0.6-1.1,1.2-2.3,1.9-3.4c0.8-1.1,1.7-2,2.7-3c1.6-1.6,3.4-3.1,4.9-4.8c1.7-1.9,3.1-4.1,4.6-6.2c-0.4-0.2-0.7-0.3-1-0.4
		c-1.5-0.6-3-1.1-4.5-1.7c-1.1-0.4-1.9-1.4-2.8-2.2c-1.4-1.3-2.4-2.8-3.3-4.4c-0.4-0.7-0.7-1.5-1-2.3c-0.2-0.4-0.4-0.5-0.8-0.5
		c-2,0-3.8,0.5-5.7,1.1c-3.1,0.9-5.8,2.5-8,4.9c-0.4,0.4-0.8,0.8-1.2,1.2c-1.8,1.4-3.5,2.9-4.8,4.9c-1.1,1.6-2.2,3.1-3.2,4.8
		c-0.6,0.9-0.9,2-1.4,3c-0.8,1.6-1.7,3.3-2.4,4.9c-1.2,2.7-2.4,5.4-3.6,8.1c-0.9,1.9-2.1,3.6-3,5.4c-1.1,2.2-2.2,4.5-3.3,6.7
		c-0.5,0.9-1.1,1.8-1.6,2.7C0,197.9,0,197,0,196z M24,71.7c0,0.3,0,0.6,0,0.9c0,1.6,0,3.2-0.1,4.7c-0.1,1.4-0.6,2.8-0.8,4.2
		c-0.4,1.9-0.6,3.7-1,5.6c-0.6,2.5-0.9,5.1-0.9,7.6c0,0.2,0,0.4-0.1,0.7c-0.3,1.1-0.6,2.3-0.5,3.4c0.1,0.7,0.1,1.5,0.1,2.2
		c0.1,1.2,0.2,2.3,0.4,3.5c0.3,1.6,0.7,3.2,1,4.8c0.4,2.6,0.9,5.1,1.9,7.5c0.7,1.8,1.4,3.7,1.9,5.6c0.4,1.5,0.5,3,0.9,4.5
		c0.9,3,1.9,5.9,3.5,8.7c0.7,1.3,1.4,2.6,2.1,3.9c0.7,1.1,1.6,2.2,2.4,3.3c1.3,1.6,2.5,3.3,3.3,5.3c0,0.1,0.1,0.2,0.2,0.3
		c0.9,1.3,2.1,2.4,2.7,4c0.4,1.1,1.1,2.2,1.8,3.2c0.6,0.9,1.5,1.5,2.1,2.3c0.7,0.9,1.6,1.4,2.6,1.7c0.5,0.1,1,0.3,1.5,0.5
		c1.8,0.9,3.8,1.6,5.8,1.7c1.8,0,3.7,0,5.5-0.1c2.2-0.2,4.4-0.6,6.5-1.1c1.6-0.4,3.1-0.9,4.6-1.6c1.7-0.7,3.3-1.8,5.1-2.3
		c1.7-0.6,3.2-1.4,4.7-2.2c2.6-1.4,5.1-2.9,7.6-4.5c2.2-1.4,4.2-3.1,6.1-4.8c2-1.8,4-3.4,6.1-5.1c1.7-1.4,3-3,4.1-4.8
		c1-1.7,1.8-3.5,2.6-5.3c0.5-1.1,1-2.3,1.4-3.5c0.3-0.8,0.4-1.6,0.6-2.5c0.2-0.9,0.5-1.7,0.7-2.6c0.4-1.7,0.8-3.4,1.1-5.1
		c0.3-1.7,0.9-3.3,0.8-5.1c0-0.6-0.1-1.2,0-1.8c0.1-0.8,0.4-1.5,0.6-2.2c0.1-0.5,0.2-1,0.5-1.3c1-1.2,2.1-2.5,3.2-3.5
		c0.5-0.5,0.8-0.9,1-1.6c0.1-0.5,0.2-1,0.4-1.4c0.8-1.7,0.7-3.3-0.3-4.9c-0.2-0.3-0.3-0.6-0.3-0.9c0-0.2,0.2-0.5,0.4-0.6
		c0.2-0.1,0.5,0,0.6,0.2c0.6,1.1,1.4,2.1,1.3,3.5c-0.1,0.8,0,1.5,0,2.3c0.7-0.2,1.3-0.3,1.9-0.6c0.6-0.3,1.4-0.6,1.8-1.1
		c0.8-1,1.1-2.3,0.9-3.7c-0.2-1.6-1.2-2.9-2.1-4.3c-0.1,0.3-0.2,0.5-0.3,0.8c-0.1,0.2-0.3,0.5-0.5,0.5c-0.2,0-0.6-0.2-0.6-0.3
		c0-0.4,0-0.9,0.1-1.2c0.5-0.9,1-1.8,1.3-2.8c0.6-1.6,1.3-3.2,1.9-4.8c0.4-1.1,1.3-1.7,2.4-1.9c1.6-0.2,2.9,0.2,3.2,1.8
		c0.1,0.7,0.1,1.5,0.1,2.2c0,1.4,0.1,2.8,0.1,4.2c0,0.4-0.1,0.8-0.7,0.8c-0.5,0-0.6-0.3-0.7-0.7c0-1.9-0.1-3.8-0.1-5.6
		c0-0.6,0-1.2-0.7-1.4c-1-0.3-2,0.1-2.3,0.8c-0.5,1.1-1,2.2-1.5,3.4c-0.3,0.8-0.6,1.7-0.8,2.6c0,0.1,0,0.3,0,0.4
		c0.4,0.7,0.8,1.5,1.3,2.2c0.9,1.4,1.2,3,1.2,4.6c0,2.3-1.6,4.3-3.9,4.9c-1.8,0.5-2.9,1.7-3.4,3.5c-0.1,0.2-0.5,0.6-0.7,0.6
		c-0.7-0.1-1.2,0.3-1.6,0.8c-0.5,0.6-1,1.2-1.5,1.8c-0.2,0.3-0.4,0.7-0.5,1.1c-0.2,0.6-0.3,1.3-0.4,1.9c-0.1,0.5-0.2,1-0.3,1.5
		c2.6,0.3,4.9-0.2,7-1.4c1.8-1,2.7-2.7,3.4-4.6c0.3-0.8,0.6-1.6,1-2.3c1.1-2,2-4,2.7-6.2c0.9-2.7,2.1-5.3,3.1-7.9
		c0.5-1.4,1.2-2.8,1.1-4.4c-0.1-1.4-0.3-2.9-0.6-4.3c-0.1-0.4-0.3-0.9-0.6-1.2c-0.5-0.6-1.1-1.1-1.6-1.6c-0.4-0.4-0.8-0.9-1.4-0.8
		c-0.4,0.1-0.7,0.1-1.1,0.1c-0.3,0-0.6,0.1-0.7,0.2c-1.3,1.2-2.4,2.5-3.2,4.1c-0.7,1.5-1.6,3-2.5,4.5c-0.4,0.7-1,1.3-1.6,1.8
		c-1,0.7-2.6,0.3-2.8-0.8c-0.4-1.5-1.3-2.8-1.5-4.4c-0.4-2.5-0.7-5.1-0.8-7.7c-0.1-2.1-0.2-4.2-1.2-6.1c-1-2-1.9-4.1-2.5-6.3
		c-0.4-1.3-0.4-2.9-0.2-4.3c0.2-1.7,0.9-3.3,1.2-5c0.1-0.7,0.2-1.5-0.1-2.2c-0.5-1.4-1.2-2.7-2-3.9c-1.1-1.8-2.8-3.2-4.4-4.5
		c-2.2-1.8-4.3-3.6-6.6-5.2C95.8,35,93.6,34,92.2,32c-0.1-0.1-0.2-0.1-0.3-0.2c-1.2-0.6-2.5-1-3.4-2c-0.4-0.4-0.8-0.7-1.3-0.9
		c-1.1-0.6-2.3-1.2-3.5-1.7c-1.3-0.5-2.6-1.1-3.9-1.5c-0.6-0.2-1.3,0-2,0c-0.9,0-1.7-0.2-2.6-0.1c-1.1,0.2-2-0.1-3-0.4
		c-0.4-0.1-0.9-0.3-1.3-0.3c-3.4-0.2-6.1-1.6-8-4.8c-0.6,0.6-1,1.4-1.7,1.9c-1,0.6-2,1.1-3.1,1.5c-1.2,0.5-2.5,0.9-3.8,1.1
		c-1.6,0.2-3.3,0.2-5,0.3c-1.4,0.1-2.7,0.1-4.1,0.1c-2.6,0.1-4.9,1-7.1,2.2c-1,0.6-1.9,1.3-2.8,2.1c-1.2,1-2,2.3-2.7,3.7
		c-0.2,0.4-0.5,0.8-0.7,1.2c-1.1,1.9-2.5,3.5-3.4,5.5c-0.5,1.2-1.1,2.4-1.6,3.6c-0.8,1.9-1.6,3.8-2.5,5.6c-0.3,0.6-0.7,1.2-0.7,1.9
		c-0.1,1.2-0.3,2.3-0.4,3.5c-0.2,1.4-0.3,2.7-0.4,4.1c-0.1,1.6-0.2,3.2-0.1,4.8c0.2,2.2,0.7,4.5,1.1,6.7c0,0.1,0.3,0.3,0.5,0.3
		c1.8-0.4,3.5-0.8,5.3-1.3c0.3-0.1,0.6-0.1,0.9-0.1c2.1-0.2,4.2,0.2,6.3,0.6c1.4,0.3,2.7,0.7,4,1.2c0.8,0.3,1.6,0.9,2.3,1.5
		c0.4,0.3,0.7,0.9,0.4,1.4c-0.3,0.5-0.9,0.6-1.5,0.4c-0.9-0.3-1.9-0.7-2.8-1.1c-2.4-1.1-5-1.6-7.6-1.8C29,71,26.5,71,24,71.7z
		 M114.3,142.8c0.3-0.5,0.4-1,1.1-0.8c0,0,0.1-0.1,0.1-0.1c0.8-0.9,1.6-1.8,2.3-2.8c1-1.6,1.9-3.2,2.8-4.9c0.9-1.6,1.8-3.1,2.6-4.7
		c0.2-0.4,0.3-0.9,0.5-1.4c-0.9,0.1-1.7,0.3-2.4,0.3c-2.4,0-4.8-0.1-7.1,0c-1.4,0.1-2.7,0.4-4.1,0.6
		C110.8,133.9,112.5,138.3,114.3,142.8z"/>
	<path class="st0" d="M56.5,140.3c-2.1-0.3-4.2-0.4-6.2-0.9c-2.3-0.6-4.2-2-6-3.5c-1.2-1-2-2.3-2.8-3.6c-1.3-2.2-2.2-4.5-2.7-7
		c-0.2-0.8-0.6-1.5-1-2.2c-0.1-0.2-0.5-0.4-0.7-0.5c-0.4-0.2-0.6-0.4-0.5-0.8c0-0.1,0.1-0.4,0.2-0.4c0.1,0,0.3,0.1,0.5,0.1
		c0.3,0.1,0.6,0.2,0.9,0.4c0.5,0.2,1.1,0.5,1.6,0.8c1.1,0.7,2.3,0.9,3.5,1c3,0.3,6.1,0.1,9.1,0.8c0.6,0.2,1.3,0.4,1.9,0.7
		c0.6,0.3,1.2,0.4,1.9,0.2c1.3-0.3,2.6-0.7,3.9-1c0.2,0,0.4,0,0.6,0c2,0,4.1-0.1,6.1,0c2.2,0.1,4.4,0.3,6.6,0.5c0.2,0,0.4,0,0.5,0
		c1.4,0,2.8-0.1,4.1,0.2c1.2,0.3,2.4-0.2,3.5,0.4c0.5,0.3,0.6,0.5,0.1,0.9c-0.9,0.9-1.8,1.8-2.8,2.7c-0.3,0.3-0.6,0.4-0.9,0.7
		c-1.9,1.6-3.9,3-5.7,4.8c-1.5,1.5-3.4,2.4-5.3,3.3c-1.8,0.8-3.7,1-5.5,1.6c-1.6,0.6-3.3,0.7-5,0.6
		C56.5,140.1,56.5,140.2,56.5,140.3z M80.4,126.8c0-0.1-0.1-0.2-0.1-0.3c-0.4,0.1-0.8,0.1-1.1,0.2c-0.7,0.4-1.2,0.9-1.9,1.2
		c-1.6,0.7-3.2,1.2-4.7,1.8c-3.3,1.2-6.4,2.6-9.9,3.3c-1.3,0.2-2.6,0.4-3.9,0.5c-1.3,0-2.5-0.2-3.8-0.2c-2.3-0.1-4.6-0.5-6.8-1.4
		c-1.3-0.5-2.4-1.3-3.3-2.3c-1.3-1.3-2.5-2.5-3.3-4.2c-0.5-1-1.4-1.7-2.6-2.2c0.3,0.7,0.5,1.2,0.6,1.8c0.5,2.2,1.3,4.3,2.3,6.3
		c1.3,2.6,3.2,4.5,5.6,6c1.8,1.1,3.8,1.9,6,1.9c2.7,0.1,5.4,0.4,8-0.5c1.9-0.7,3.9-0.9,5.7-1.8c1.6-0.8,3.1-1.6,4.4-2.7
		c1.4-1.2,2.8-2.5,4.3-3.7C77.3,129.3,78.8,128,80.4,126.8z M42.7,125.4c0.1,0.4,0,0.8,0.2,1.1c0.9,1.1,1.9,2.2,2.9,3.2
		c1.4,1.3,3.2,1.9,5,2.3c1,0.3,2,0.3,3,0.4c2.2,0.3,4.4,0.6,6.6,0.3c1.3-0.2,2.5-0.3,3.7-0.7c2.7-0.9,5.4-1.9,8.1-2.9
		c1.5-0.6,3-1.1,4.5-1.7c0.5-0.2,0.9-0.6,1.4-0.9c0-0.1-0.1-0.2-0.1-0.2c-0.6,0.1-1.3,0.2-1.9,0.3c-1.2,0.2-2.4,0.5-3.5,0.7
		c-1.9,0.4-3.9,0.7-5.8,1.1c-2,0.4-4,0.8-6.1,0.7c-1.4-0.1-2.8,0-4.2,0c-0.7,0-1.5,0-2.2-0.2c-2.5-0.5-4.9-1-7.3-1.7
		C45.7,126.8,44.3,126,42.7,125.4z M42.7,124.3c0,0,0,0.1-0.1,0.1c1,0.5,2,1.2,3.1,1.6c1.6,0.6,3.3,0.9,4.9,1.4
		c2.5,0.7,5.1,1.1,7.8,1c1.5,0,3,0,4.6,0c0.2,0,0.4,0,0.6,0c1.6-0.3,3.2-0.6,4.8-0.9c2.8-0.5,5.5-1.1,8.3-1.7
		c-2.4-0.2-4.8-0.5-7.1-0.6c-2.2-0.1-4.3-0.1-6.5-0.2c-2.3-0.1-4.5,0.4-6.7,1c-0.6,0.2-1.3,0.4-1.9,0c-2.1-1.2-4.5-1.3-6.9-1.4
		C46,124.4,44.4,124.4,42.7,124.3z"/>
	<path class="st0" d="M81.8,79.1c1.3-0.1,2.4,0.4,3.6,0.9c0.9,0.4,1.7,0.8,2.5,1.3c1.5,0.9,2.8,2,3.7,3.4c0.1,0.2,0.3,0.2,0.4,0.4
		c0.1,0.2,0.3,0.6,0.2,0.8c-0.1,0.2-0.5,0.4-0.7,0.3c-0.8-0.2-1.6,0-2.3,0.3c-3.1,1.2-6.4,1.6-9.7,1.4c-2.3-0.2-4.5-1-6.5-2.1
		c-0.9-0.5-1.8-0.6-2.6,0.2c-0.2,0.2-0.4,0.3-0.7,0.3c-0.2,0-0.4-0.1-0.5-0.2c-0.1-0.1,0-0.4,0.1-0.5c0.3-0.3,0.7-0.6,1.1-0.9
		c0.9-0.7,1.7-1.4,2.5-2.1c0.8-0.6,1.5-1.2,2.3-1.8c1.1-0.8,2.5-1,3.8-1.3C80.1,79.3,81,79.2,81.8,79.1z M78.2,80.7
		c-2.6,0.4-4,2.3-5.8,3.7c0.7,0.4,1.4,0.8,2.2,1.1c0.7,0.3,1.5,0.6,2.2,0.8c0.7,0.2,1.5,0.4,2.2,0.6C77.5,85.7,77.2,83.1,78.2,80.7z
		 M86.2,81.6c0.5,0.9,0.4,1.9,0.1,2.7C86,85.2,85.5,86,85,86.9c1.9-0.6,3.8-1.1,5.7-1.7C89.5,83.6,88.1,82.4,86.2,81.6z M80.9,82.4
		c0,0.4,0.4,1,0.8,1c0.6,0,1.1-0.4,1.1-1c0-0.5-0.4-0.8-1-0.8C81.4,81.7,80.9,81.8,80.9,82.4z"/>
	<path class="st0" d="M36.3,87.1c-1.8-0.1-3.4-0.1-4.9-0.3c-1.1-0.2-2.1-0.7-2.9-1.7c-0.5-0.6-1.1-1-1.6-1.6
		c-0.1-0.2-0.3-0.5-0.2-0.7c0.6-1.3,1.7-2.2,2.6-3.2c0.5-0.5,1.3-0.5,2-0.8c1.3-0.5,2.6-0.9,3.9-0.9c1.2,0,2.4,0.2,3.5,0.5
		c3.3,0.9,6.1,2.7,8.1,5.5c0,0,0.1,0.1,0.1,0.1c0.1,0.5,0.3,0.9,0.4,1.4c-0.4,0.1-0.8,0.3-1.3,0.3c-1.8,0.2-3.6,0.4-5.4,0.7
		C39,86.7,37.5,86.9,36.3,87.1z M35.3,79.1c0-0.1,0-0.2-0.1-0.2c-1,0.3-1.9,0.6-2.9,0.9c-0.5,0.1-1,0.2-1.4,0.4
		c-0.7,0.3-1.4,0.4-1.7,1.3c0,0.1-0.2,0.3-0.3,0.3c-1.2,0.6-1.3,0.9-0.5,2c1,1.3,2.1,2.2,3.7,2.3c1.3,0.1,2.6,0.1,3.9,0.1
		c0.2,0,0.3,0,0.6,0C33.2,84.6,33.8,80.9,35.3,79.1z M40.4,85.5c1.4-0.1,3-0.3,4.5-0.4c0.2,0,0.4-0.1,0.6-0.1
		c0.4-0.1,0.6-0.4,0.4-0.7c-0.9-1.2-1.9-2.3-3.3-3C42.2,83,42.2,84.8,40.4,85.5z M38.7,81.2c0-0.5-0.5-0.6-0.9-0.7
		c-0.5-0.1-0.8,0.4-0.8,0.9c0,0.6,0.4,1.1,0.9,1.1C38.3,82.6,38.7,82.1,38.7,81.2z"/>
	<path class="st0" d="M85.6,69.5c1.3,0.1,2.9,0.1,4.5,0.4c1.8,0.4,3.5,1.1,5.3,1.7c0.4,0.1,0.8,0.3,1.1,0.4c0.7,0.2,0.6,0.6,0.5,1.1
		c-0.2,0.5-0.5,0.4-0.8,0.3c-1.3-0.4-2.7-0.8-4-1.2c-1.3-0.3-2.5-0.7-3.8-0.7c-1.2-0.1-2.5,0.1-3.8,0.3c-3.2,0.4-6.2,1.5-9.2,2.7
		c-1.5,0.6-3,0.4-4.5,0.2c-0.7-0.1-1.4-0.2-2.1-0.3c-0.2,0-0.5-0.2-0.7-0.3c0.1-0.3,0.2-0.5,0.3-0.7c1.6-2,3.8-2.6,6.1-3.1
		c1.2-0.3,2.4-0.3,3.6-0.4C80.5,69.8,82.9,69.7,85.6,69.5z"/>
	<path class="st0" d="M67.4,105.2c0.8,0.1,1.2,0.7,1.7,1.3c1,1.2,0.8,2.6,0.6,3.9c-0.5,2.8-2.9,4.1-5.7,3.3
		c-2.1-0.6-3.9,0.1-5.7,1.3c-1.2,0.8-2.6,1.6-3.9,2.1c-0.9,0.3-1.9,0.3-2.9,0.3c-0.9,0-1.7-0.2-2.6-0.5c-0.7-0.2-1.3-0.6-1.7-1.3
		c-0.5-0.7-1-1.5-1.4-2.2c-0.5-0.9-1.4-1.5-2.3-1.6c-1.5-0.3-2.9-2.1-2.5-3.9c0.3-1.3,1.2-2.3,1.9-3.3c0.1-0.1,0.2-0.2,0.3-0.2
		c0.2,0,0.4,0.1,0.6,0.1c0,0.2,0,0.4-0.1,0.6c-0.7,0.9-1.5,1.8-1.9,3c-0.4,1.4,0.4,2.7,1.8,3c1.2,0.3,2.2,1,2.9,2.1
		c0.4,0.8,0.9,1.5,1.5,2.3c0.7,0.9,1.7,1,2.7,1.2c2.7,0.5,4.8-0.6,7-2c0.9-0.6,1.9-1.1,2.9-1.5c1.2-0.5,2.5-0.6,3.7-0.1
		c1.6,0.6,2.9,0.1,4-0.9c0.4-0.3,0.5-1.1,0.6-1.6c0.2-1.1,0.3-2.3-0.4-3.3c-0.2-0.3-0.6-0.6-0.8-0.9c-0.2-0.2-0.3-0.5-0.5-0.8
		C67.3,105.3,67.3,105.2,67.4,105.2z"/>
</g>
</svg>
