<?xml version="1.0" encoding="utf-8"?>
<!-- Generator: Adobe Illustrator 19.2.1, SVG Export Plug-In . SVG Version: 6.00 Build 0)  -->
<svg version="1.1" id="Layer_1" xmlns="http://www.w3.org/2000/svg" xmlns:xlink="http://www.w3.org/1999/xlink" x="0px" y="0px"
	 viewBox="0 0 256.2 300" style="enable-background:new 0 0 256.2 300;" xml:space="preserve">
<style type="text/css">
	.st0{fill:#E91E63;}
</style>
<g id="pharm-amanda-pink">
	<path class="st0" d="M0,248.5c3-0.1,6-0.2,9.1-0.2c1.4,0,2.7,0.1,4.1,0.2c2.3,0.1,3.9-1,5.3-2.7c2-2.4,3.7-5,5.3-7.7
		c1.6-2.6,4.1-4.4,6.4-6.1c0.2-0.4,0.5-0.9,0.7-1.3c0.1-0.2,0.4-0.4,0.4-0.6c0.2-1.8,0.4-3.6,0.6-5.3c0.2-1.7,0.3-3.4,0.6-5
		c0.3-1.9,0.6-3.9,1.2-5.7c0.7-2.1,1.7-4.1,2.6-6.1c1.4-3,3.6-5.5,6-7.7c1.8-1.7,4-3.1,6.1-4.6c2-1.4,4.1-2.8,6.2-4.2
		c2.3-1.6,4.5-3.2,6.8-4.8c1.2-0.8,2.5-1.5,3.6-2.4c1.1-1,2-2.2,3-3.3c0.5-0.6,0.6-1.2,0.4-1.9c-0.9-4.1-2-8.1-2.8-12.2
		c-0.6-3.6-1.5-7.2-1.3-10.9c0.1-3.4-0.2-6.8-0.4-10.2c0-0.1-0.1-0.2-0.1-0.3c-4.4,1-7.7-2.7-7.6-6.5c0.1-3.4-0.1-6.8-0.2-10.2
		c-0.1-3-0.4-5.9-0.6-8.9c-0.2-3.5-1.1-6.9-1.5-10.3c-0.5-4-0.5-8-0.5-12c0-2.1,0.5-4.2,0.8-6.3c0-0.2,0.1-0.4,0.2-0.7
		c0.8-1.9,0.7-1.9,0.8-4c0.1-3.3,0.1-6.7,0.7-10c0.5-3,1.5-6,2.5-8.9c2.1-6.3,4.3-12.5,6.7-18.7c1.3-3.4,2.9-6.7,4.9-9.9
		c1.1-1.8,2.1-3.8,3.1-5.7c1.3-2.5,3.2-4.4,5.2-6.4c1.8-1.8,3.5-3.8,5.3-5.6c2.1-2.2,4.2-4.3,6.5-6.3c2.4-2.2,4.9-4.3,7.5-6.3
		c2.8-2.1,5.7-4,8.9-5.4c2.6-1.1,5.3-1.9,8.2-2.3c2.2-0.3,4.5-0.9,6.7-1c3.7-0.2,7.4-0.3,11,0c2,0.2,3.9,0.6,5.9,0.5
		c2.4-0.1,4.8-0.4,7.2-0.6c2.7-0.2,5.3-0.5,7.9,0.6c2.1,0.9,4.4,1.3,6.5,2.2c3.3,1.4,6.8,2.4,9.8,4.6c1.6,1.1,3.4,1.9,5.2,2.5
		c2.9,1.1,5.5,2.7,7.8,4.7c3.4,2.9,6.7,6.1,9.8,9.4c2.2,2.3,4,5,6,7.5c1,1.2,2,2.5,3,3.7c1.8,2.2,2.5,4.9,3.2,7.5
		c0.8,2.7,1.3,5.5,1.9,8.2C207,52,207,53,207.1,54c0.2,1.4,0.4,2.8,0.6,4.2c0.1,1.1,0.2,2.3,0.4,3.4c0.3,1.8,0.7,3.6,1,5.4
		c0.3,1.5,0.5,3.1,0.6,4.6c0.1,3.8,0.1,7.6,0,11.4c0,1.8-0.4,3.7-0.6,5.5c-0.1,1-0.1,1.9-0.3,2.9c-0.3,1.6-0.8,3.2-1.1,4.8
		c-0.2,1.3-0.3,2.6-0.4,3.9c-0.1,2.1-0.8,4-1.7,5.9c-0.4,0.7-0.7,1.5-1,2.3c2.1,0.6,3,1.9,3.1,4.1c0.2,4.5-1.3,8.6-2.6,12.8
		c-0.8,2.5-1.3,5-1.9,7.6c-0.8,3.6-1.5,7.2-2.2,10.8c-0.5,2.4-0.7,4.8-1.3,7.1c-0.7,3.1-2.2,5.9-4.1,8.5c-1.1,1.5-2.8,2.1-4.7,2.3
		c-0.1,0-0.3,0-0.4,0c-2.7,0-2.7,0-3.8,2.6c-1.5,3.5-2.4,7.2-3.2,10.9c-1,4.9-2.9,9.4-5.6,13.7c-0.8,1.3-1.6,2.6-2.5,3.8
		c-0.3,0.4-0.4,0.7,0,1.2c2.3,2.3,4.6,4.7,6.9,7.1c2.9,2.9,5.5,6.1,8.1,9.3c1.7,2.1,3.7,4,5.5,6.1c1.3,1.5,2.5,3.1,3.7,4.7
		c1.1,1.5,1.9,3.1,3,4.7c1.8,2.8,4.6,3.7,7.7,3.5c2.6-0.2,5.2-0.9,7.8-1.3c0.4-0.1,0.9-0.1,1.3-0.1c2.1,0,4.2,0,6.3,0
		c0.4,0,0.8,0,1.2,0.2c1.7,0.8,3.3,1.6,4.9,2.6c0.9,0.5,1.6,1.3,2.4,2c2,1.8,3.9,3.7,6,5.3c1.1,0.8,2.7,1.1,4.1,1.2
		c2.7,0.2,5.4,0.2,8.1,0.2c1.2,0,2.5-0.2,3.8-0.4c0,0.5,0,1,0,1.8c-0.9,0.1-1.8,0.3-2.8,0.3c-3.2,0-6.3,0-9.5-0.2
		c-2.4-0.1-4.5-0.9-6.3-2.6c-2.3-2.2-4.6-4.3-7.1-6.2c-1.3-1-3-1.6-4.6-2.4c-0.1,0-0.2,0-0.3,0c-3.2,0.1-6.5-0.2-9.7,0.6
		c-2.1,0.5-4.2,0.8-6.4,0.9c-1.3,0.1-2.6-0.4-4-0.7c0,0.2,0,0.4,0.1,0.6c0.9,2.8,2,5.5,2.8,8.3c0.9,3.1,1.6,6.2,2.3,9.3
		c0.6,2.6,0.8,5.3,1.5,7.9c1.3,4.5,2.8,8.9,4.9,13c2.9,5.6,5.4,11.5,7.4,17.5c0.4,1.3,0.9,2.6,1.2,4c0.5,1.7-0.1,2.6-1.7,3
		c-2.1,0.6-4.2,1.2-6.3,1.6c-3.3,0.6-6.6,0.6-9.9-0.1c-1.6-0.3-3.3-0.4-4.9-0.8c-1.6-0.4-3.2-1-4.7-1.5c-3.8-1.3-7.6-2.8-11.5-3.9
		c-2.6-0.8-5.3-1-7.9-1.7c-1.7-0.4-3.3-1-4.9-1.5c-0.8-0.3-1.6-0.5-2.4-0.8c-0.3-0.1-0.7-0.2-1,0c-2.2,1-4.5,1.8-6.6,3.1
		c-1.8,1.1-3.4,2.7-5,4.1c-1.1,0.9-2.3,1.8-3.5,2.7c-1.5,1.1-3.1,2.2-4.4,3.5c-1.2,1.2-2.3,1.7-4.1,1.2c0.6-0.6,1.1-1.1,1.6-1.6
		c2.6-2.1,5.2-4.1,7.8-6.2c2-1.6,3.9-3.4,6-4.9c1.4-1,3-1.8,4.6-2.5c1.2-0.5,2.5-1,3.8-1.2c1-0.1,2.2,0.3,3.2,0.7
		c3,1.2,6.2,1.6,9.3,2.4c3.2,0.7,6.3,1.8,9.4,2.8c3.5,1.1,7,2.8,10.6,3.4c3.7,0.7,7.4,1.9,11.2,1.3c3-0.5,5.9-1.2,8.8-1.9
		c0.7-0.2,0.7-0.9,0.5-1.7c-1.6-4.3-3.1-8.7-4.8-12.9c-1.5-3.5-3.4-6.9-4.9-10.4c-1.2-2.8-2.2-5.6-3-8.5c-0.9-3.1-1.4-6.4-2.1-9.6
		c-0.4-1.7-0.7-3.5-1.2-5.2c-1-3.6-2.1-7.1-3.2-10.7c-0.4-1.2-0.7-2.5-1.1-3.7c-0.1-0.2-0.1-0.4-0.3-0.5c-2-1.6-2.9-3.9-4.3-6
		c-1.9-2.8-3.9-5.4-6.3-7.8c-2.1-2.1-3.9-4.6-5.8-6.8c-1.3-1.5-2.5-3-3.9-4.4c-2.9-3.1-5.9-6.1-9-9.2c-1.8,1.8-3.6,3.6-5.3,5.4
		c-0.1,0.1-0.2,0.3-0.2,0.4c0,1,0,2,0,3c-0.1,3-0.1,6.1-1,9c-0.4,1.2-0.2,2.6-0.4,3.9c-0.2,1.5-0.6,3-0.8,4.5
		c-0.3,1.9-0.5,3.7-0.8,5.6c-0.5,3.3-1.1,6.6-1.6,9.9c-0.4,2.6-0.9,5.1-1.2,7.7c-0.4,4.2-2,8.1-2.9,12.1c-0.9,4.2-2.1,8.3-3.4,12.3
		c-0.9,2.6-2.2,5.1-3.3,7.6c-1.6,3.9-3.2,7.8-4.8,11.7c-1.4,3.5-2.8,7-4.2,10.6c-0.5,1.4-1.5,1.6-2.9,1.3c0.4-0.9,1-1.7,1.3-2.6
		c1.9-4.8,3.6-9.6,5.5-14.3c1.2-2.9,2.6-5.8,3.9-8.7c1.1-2.5,2.1-5.1,3-7.7s1.7-5.2,2.4-7.9c1.1-4.3,2.2-8.7,3.1-13
		c0.4-2,0.6-4.1,0.9-6.2c0.3-1.8,0.5-3.5,0.8-5.3c0.3-2,0.5-3.9,0.8-5.9c0.6-3.6,1.2-7.1,1.8-10.7c0.2-1.4,0.5-2.8,0.4-4.2
		c-0.2-3.3,0.6-6.5,1-9.8c0-0.4,0.1-0.8,0.1-1.4c-0.8,0.6-1.5,1.2-2.1,1.8c-4.1,4.2-8.7,7.9-13.4,11.3c-2.1,1.5-4,3.3-6,5
		c-2.5,2-4.9,4.2-7.6,5.9c-2.3,1.5-4.8,2.5-7.3,3.6c-2,0.9-4,1.8-6,2.5c-2.9,1-6,1-9,0.5c-1.3-0.2-2.6-0.6-4-0.8
		c-2.5-0.5-4.5-2-6.4-3.6c-1.6-1.3-3.4-2.4-5.1-3.6c-0.8-0.6-1.6-1.3-2.3-2.1c-1.6-1.8-3.1-3.6-4.7-5.4c-2.9-3.3-6-6.4-8.7-9.8
		c-2.3-2.8-4.1-6-6.1-9c-0.2-0.3-0.4-0.6-0.7-1.1c-0.2,0.9-0.4,1.6-0.5,2.4c-0.4,4.9-0.9,9.8-0.6,14.7c0.1,2.5,0.5,5,0.8,7.4
		c0.2,1.3,0.5,2.5,0.5,3.7c0.1,5.1,0.8,10.1,2.3,15c1.1,3.6,2,7.2,2.6,10.9c0.7,4.3,2.2,8.3,3.5,12.4c1.3,4.2,2.9,8.3,4.6,12.5
		c2.2,5.7,4.5,11.4,6.9,17c0.9,2,2,4,3,5.9c0.1,0.2,0.2,0.4,0.3,0.7c-1.3,0-2.5,0-3.8,0c0.5-1.2-0.4-1.6-1-2.3
		c-1.8-2-4.1-3.3-6.2-4.8c-2-1.4-3.9-2.8-5.9-4.3c-2.5-1.9-5.3-2.3-8.6-0.4c-5.1,3-10.4,5.7-15.6,8.5c-2.1,1.1-4.2,2.2-6.4,3
		c-1.1,0.4-2.4,0.3-3.6,0.4c0-0.1-0.1-0.3-0.1-0.4c1.5-0.8,3.1-1.7,4.6-2.5c3.1-1.5,6.3-2.9,9.4-4.6c4.1-2.2,8-4.5,12-6.7
		c1.7-0.9,3.5-1.2,5.5-0.7c2.5,0.6,4.3,2.2,6.3,3.6c2.2,1.5,4.4,3.2,6.7,4.7c0.6,0.4,1.1,0.8,1.9,1.4c-0.9-2.2-1.7-4.3-2.5-6.2
		c-1.1-2.8-2.3-5.6-3.4-8.5c-1-2.5-2.2-4.9-3.1-7.4c-1.9-5.2-3.7-10.3-5.3-15.5c-0.8-2.7-1.3-5.5-1.9-8.2c-1.1-4.5-2.3-8.9-3.3-13.4
		c-0.3-1.3-0.5-2.6-0.5-3.8c-0.2-3.5-0.4-7.1-1-10.6c-0.9-4.7-0.7-9.6-0.6-14.4c0.1-3.3,0.6-6.5,0.9-9.7c0.1-0.8-0.1-1.7,0.5-2.5
		c0.1-0.1-0.4-0.7-0.7-1.4c-1,1.8-1.9,3.4-2.8,4.9c-2.1,3.5-4.3,7-6.5,10.5c-0.9,1.5-1.9,3-2.8,4.5c-0.9,1.4-1.8,2.7-2.7,4.1
		c-0.3,0.5-0.4,1-0.7,1.5c-0.2,0.4-0.4,0.8-0.7,1.1c-2.3,1.8-3.5,4.5-4.9,6.9c-1.3,2.2-1.7,4.6-2,7.1c-0.2,1.7-0.6,3.4-0.9,5.2
		c-0.4,2.4-0.7,4.7-1.1,7.1c-0.2,1.4-0.7,2.7-0.9,4.1c-0.4,2.4-0.8,4.8-1.1,7.3c-0.3,2.3-0.7,4.7-1,7c-0.2,1.9-0.4,3.8-0.7,5.6
		c-0.2,1.9-0.3,3.8-0.7,5.6c-1.2,5.7-2.6,11.5-3.9,17.2c-0.4,1.8-0.6,3.6-1.1,5.4c-0.4,1.7-0.6,1.7-2.4,1.5c0.4-1.6,0.8-3.2,1.2-4.8
		c1-4.6,2.1-9.2,3-13.8c0.7-3.4,1.4-6.8,2-10.2c0.3-1.5,0.3-3.1,0.4-4.7c0.1-1.2,0.4-2.4,0.6-3.6c0.2-1.4,0.3-2.8,0.4-4.3
		c0.2-1.9,0.5-3.8,0.8-5.7c0.5-3,1.1-5.9,1.6-8.9c0.5-2.8,1.1-5.6,1.6-8.5c0.3-1.5,0.2-3.1,0.6-4.6c0.4-1.6,1-3.2,1.6-4.9
		c-1,0.6-2,1.3-3.1,1.8c-2.6,1-5.3,1.9-7.9,2.9c-3,1.1-6.2,2-9.1,3.3c-2.8,1.3-5.1,3.5-6.6,6.2c-1.8,3.1-3.9,5.9-6.3,8.5
		c-1.3,1.3-2.8,1.8-4.6,1.9c-4.1,0.1-8.3,0-12.4,0c-0.5,0-1,0.1-1.6,0.2C0,249.9,0,249.2,0,248.5z M134.5,63.6
		c-4.1,0.4-8.7,0.8-13.2,1.2c-1.2,0.1-2.4,0-3.6,0.3c-4.1,0.7-8.1,1.9-12,3.2c-3.2,1.1-6.4,2.1-9.5,3.5c-3.5,1.6-6.9,3.5-10.4,5.2
		c-3.6,1.8-7.1,3.6-10,6.7c-1.1,1.2-2.1,2.4-3,3.7c-0.6,0.9-1.2,1.8-1.7,2.8c-0.7,1.4-1.5,2.9-2,4.4c-0.3,1-0.2,2.3-0.3,3.4
		c-0.2,2.1-0.5,4.1-0.8,6.2c-0.2,1.7-0.4,3.4-0.6,5.2c-0.1,0.9-0.3,1.8-0.4,2.7c-0.2,1.7-0.3,3.4-0.4,5.1c-0.2,2.5-0.6,5-0.8,7.5
		c-0.2,2.9-0.2,5.9-0.2,8.9c0,2.9,0.3,5.9,0.4,8.8c0,1.4,0,2.7,0,4.1c0.1,3,0.5,6,0.3,8.9c-0.2,3.8,0.6,7.5,1.4,11.2
		c1,5.2,2.4,10.3,3.6,15.4c0.1,0.6,0.2,1.3,0.4,1.8c0.9,1.8,1.8,3.5,2.8,5.3c1.6,3,3.1,6.2,5,9.1c2.2,3.3,4.6,6.5,7,9.7
		c1.1,1.5,2.4,2.9,3.6,4.3c1.2,1.3,2.5,2.7,3.7,4c1.7,1.8,3.3,3.6,5.1,5.4c0.6,0.6,1.5,1.1,2.1,1.7c1.8,2.1,4.4,3.2,6.3,5
		c1.9,1.7,4.3,1.6,6.5,2.3c2,0.7,4.4,0.5,6.6,0.5c1.1,0,2.3-0.2,3.3-0.6c2-0.7,3.9-1.7,5.9-2.4c5.2-1.9,9.6-5.1,13.7-8.7
		c1.9-1.7,4-3.4,6-5c2.8-2.2,5.8-4.3,8.5-6.6c3.6-3,6.9-6.3,10.5-9.4c4.1-3.6,7-8.1,9.7-12.8c2.4-4.2,3.8-8.8,4.6-13.5
		c0.8-4.2,2.4-8,4-11.9c0.2-0.4,0.6-0.8,0.6-1.2c0.2-1.8,0.2-3.7,0.4-5.5c0.3-2.4,0.6-4.8,1-7.2c0.5-2.7,1.2-5.4,1.6-8.2
		c0.5-3.6,1.2-7.2,2.4-10.6c0.7-2.2,1.3-4.4,1.8-6.7c0.3-1.3,0.1-2.6,0.2-3.9c0.3-2.9,0.8-5.9,0.9-8.8c0.1-2.2,0-4.5-0.2-6.8
		c-0.1-1.9-0.3-3.8-0.6-5.6c-0.2-1.3-0.6-2.6-1-3.8c-0.6-1.6-1.5-3-2-4.6c-1-3-1.9-6.1-3.9-8.5c-1.8-2.2-4-4.1-6-6.2
		c-1.5-1.6-3.8-2.7-4.2-5.2c-0.2-0.8-0.2-1.6-0.4-2.4c-1-4.2-1.3-8.4-1.4-12.7c0-1-0.1-2.1-0.3-3.1c-0.9-4.3-3.4-7.8-5.6-11.4
		c-1.5-2.5-3.4-4.7-5.4-6.8c-0.8-0.8-1.4-1.7-2.3-2.4c-2-1.6-3.9-3.1-5.5-5.2c-1.9-2.6-4.2-5-6.4-7.5c-2-2.2-4.1-4.3-6.2-6.4
		c-0.7-0.7-1.6-1.4-2.1-2.3s-1.2-0.8-1.8-0.7c-0.2,0-0.3,1-0.4,1.5c0,0.3,0.2,0.6,0.5,0.8c1.4,1.5,2.9,2.9,4.3,4.3
		c1.4,1.4,2.8,2.7,4,4.1c2,2.4,3.7,4.9,5.7,7.3c0.9,1.2,2,2.2,3.2,3.2c1.4,1.2,3,2.3,4.3,3.6c0.9,0.9,1.6,2,2.4,3
		c0.5,0.6,1.2,1.2,1.7,1.9c1.5,2.2,2.8,4.5,4.4,6.8c1.7,2.5,2.8,5,2.5,8.1c-0.2,1.8-0.1,3.6-0.2,5.4c-0.2,2-0.6,4-2.4,5.4
		c-1.6,1.3-3.5,1.8-5.4,2.1c-1.2,0.2-2.3,0.6-3.5,0.6c-3.6-0.1-7.1-0.6-10.7-0.7C145.2,63.5,140.1,63.6,134.5,63.6z M189.7,159.6
		c2.7,0,4-0.6,5.4-2.9c1.4-2.4,2.8-4.9,3.2-7.7c0.3-2.4,0.9-4.7,1.4-7.1c0.8-4,1.4-7.9,2.3-11.9c0.7-2.9,1.6-5.7,2.5-8.5
		c0.3-0.9,0.2-1.6-0.5-2.3c-0.9-1-1.5-1.1-2.5-0.1c-1.9,1.9-3.7,3.9-5.5,5.9c-1.1,1.2-2.3,2.3-2.5,4c0,0.4-0.1,0.8,0.1,1.1
		c1.1,1.7,1.3,3.6,1.4,5.5c0.1,1.3,0.3,2.6,0.6,3.9c0.3,1.8,0.7,3.6,0.2,5.3c-0.7,2.4-1.8,4.5-4.6,5.3c-1.7,0.5-2.3,1.7-2.3,3.4
		c0,1.5-0.2,2.9-0.4,4.4C188.3,159.3,188.4,159.6,189.7,159.6z M64.1,131.4c0.1-1,0.2-1.8,0.2-2.6c0-0.9-0.1-1.7-0.1-2.6
		c0.2-3.2,0.5-6.5,0.7-9.7c0.1-1.2,0.3-2.4,0.4-3.6c0-0.7,0.1-1.5-0.2-2.2c-0.5-1-1.2-1.9-1.9-2.8c-1.3-1.8-2.7-3.6-4-5.4
		c-0.9-1.3-1.8-2.6-2.7-3.9c-0.2-0.3-0.5-0.4-0.8-0.6c-0.1,0.3-0.4,0.7-0.3,1c0.1,2.8,0.2,5.7,0.4,8.5c0.1,1.4,0.3,2.8,0.5,4.1
		c0.3,2,0.6,4,0.9,6c0,0.3,0.1,0.7,0.2,1.2c0.7-1.2,1.2-2.1,1.7-3.1c0.4-0.7,0.7-1.4,1.1-2.1c0.2-0.2,0.7-0.4,0.9-0.4
		s0.4,0.6,0.4,0.9s-0.1,0.6-0.3,0.8c-0.9,1.5-1.7,3.1-2.6,4.6c-0.9,1.4-1.1,2.9-0.4,4.4c0.5,1.2,1.3,2.3,2.1,3.3
		C61.6,128.8,62.8,130,64.1,131.4z M58.1,126.8c-0.1,0-0.3,0.1-0.4,0.1c0.1,1.6,0.2,3.3,0.3,4.9c0.1,2.5,0.1,5,0.2,7.5
		c0.1,2,1.3,3.8,3.2,4.3c0.8,0.2,2,0,2.7-0.4c0.4-0.2,0.2-1.4,0.1-2.2c-0.1-0.9-0.4-1.7-0.4-2.5c0-1,0.1-2,0.2-3
		c0.2-1.4-0.4-2.3-1.3-3.2c-1.2-1.3-2.4-2.6-3.5-3.9C58.8,127.8,58.5,127.3,58.1,126.8z M55.6,95.7c1.2,1.2,2.2,2.1,3,3.1
		c1.1,1.5,2,3.1,3.1,4.6s2.3,3,3.5,4.5c0-0.7,0.1-1.4-0.2-2c-1.3-2.9-2.7-5.8-4.1-8.7c-0.7-1.6-1.4-3.2-2.2-4.8
		c-0.4-0.8-1.1-1.5-1.8-2.3C55.5,92.2,55.9,94.2,55.6,95.7z M189.5,149.3c1.1-0.6,2.2-0.9,3-1.6c2.1-1.9,2.3-4.5,1.7-6.9
		c-0.5-2.4-0.9-4.7-0.9-7.2c0-0.5-0.3-1-0.4-1.5c-0.1,0-0.2,0-0.3,0C191.6,137.8,190.5,143.4,189.5,149.3z M205.2,118
		c0.1-0.5,0.3-0.9,0.3-1.3c0.1-1.8,0.2-3.6,0.1-5.4c0-0.4-0.8-0.9-1.3-1c-0.4-0.1-1,0.3-1.3,0.7c-0.9,1.2-1.6,2.5-2.4,3.7
		c-1.2,2-2.4,3.9-3.6,5.9c-0.1,0.2-0.1,0.6-0.2,0.9c0.1,0,0.2,0.1,0.3,0.1c0.5-0.6,1-1.2,1.5-1.7c0.5-0.6,1.2-1.1,1.7-1.7
		C202,116.2,203.4,116.2,205.2,118z"/>
	<path class="st0" d="M121.7,204.9c-5.6,0.3-10.6-1.8-15.3-5c-0.9-0.6-1.7-1.6-2.4-2.6c-2.6-3.7-5.2-7.4-7.7-11.1
		c-0.9-1.4-1.7-2.8-2.6-4.2c-0.3-0.4-0.7-0.7-1-1.1c-0.3-0.3-0.6-0.6-0.8-1c-0.4-0.8-0.1-1.2,0.8-1.2c0.4,0,0.8,0.1,1.2,0.2
		c3.6,1.1,7.1,2.3,10.7,3.3c1.9,0.5,3.9,0.6,5.8,0.9c3,0.5,5.9,1.4,8.7,2.7c1.2,0.6,2.3,1.2,3.5,1.8c0.2,0.1,0.5,0.2,0.7,0.1
		c3.7-1.2,7.6-1.3,11.4-1.1c2.7,0.1,5.4,0.3,8.1,0.4c2.7,0,5.4-0.5,8-1.3c0.2-0.1,0.4-0.4,0.7-0.4c0.5,0,0.9,0.1,1.4,0.2
		c-0.1,0.4,0,0.9-0.2,1.1c-1,0.9-2.2,1.5-3.2,2.4c-1.4,1.3-2.7,2.7-4,4c-1.6,1.5-3.2,3.1-4.8,4.5c-0.9,0.8-1.9,1.6-2.9,2.4
		c-2.6,2-5.6,2.9-8.7,3.7C126.6,204.3,124.3,205.1,121.7,204.9z M146,190.3c-1.4,0.4-2.7,1-4,1.2c-3.1,0.7-6.3,1.3-9.4,1.8
		c-1.3,0.2-2.7,0.6-4,0.6c-3.1,0-6.3,0.3-9.4-0.4c-2.4-0.5-4.8-0.5-7.2-1.4c-3.8-1.4-7.4-2.9-10.7-5.3c-1.4-1-2.9-1.8-4.4-2.7
		c0.8,1.5,1.6,2.8,2.5,4.1c2,2.9,3.9,5.8,6,8.6c0.6,0.8,1.4,1.7,2.3,2.2c3.1,1.9,6.2,3.8,10,4.2c1.9,0.2,3.8,0.4,5.7,0.3
		c1.9-0.2,3.7-0.8,5.5-1.2c2.7-0.6,5.3-1.3,7.6-3c1.3-1,2.5-2,3.8-3C142.3,194.6,144.3,192.8,146,190.3z M95.8,181.2
		c0,0.1,0,0.1-0.1,0.2c0.5,0.4,0.9,0.9,1.4,1.2c2.9,1.9,5.8,3.9,8.9,5.7c3.8,2.1,7.8,3.6,12.2,3.8c1.7,0.1,3.3,0.5,5,0.5
		c2.2,0.1,4.5,0,6.7-0.1c1.4-0.1,2.9-0.6,4.3-0.8c2.2-0.4,4.4-0.6,6.5-1.2c2.5-0.6,4.9-1.5,7.3-2.4c0.2-0.1,0.3-0.3,0.5-0.4
		c-2,0.2-4,0.5-5.9,0.5c-2.5,0-5-0.3-7.5-0.4c-1.8-0.1-3.7-0.2-5.5,0c-2,0.2-4,0.7-5.9,1c-0.7,0.1-1.5,0.2-2-0.2
		c-2.4-1.7-5.2-2.7-8-3.5c-2-0.6-4.2-0.6-6.3-1.1c-3.7-0.9-7.4-1.9-11.1-2.9C96.2,181.3,96,181.2,95.8,181.2z"/>
	<path class="st0" d="M81.7,122.2c4.1-1.7,7.9-3.1,12-3c4.4,0.1,8.7,1.2,12,4.5c0.7,0.8,1.3,1.7,1.9,2.5c0.8,1.1,1.5,2.1,2.2,3.2
		c0.2,0.3,0.3,0.9,0.2,1.3c0,0.2-0.6,0.3-0.9,0.3c-3.4,0-6.8,0.2-10.2,0c-5-0.2-9.6-1.8-13.4-5.3c-0.8-0.8-1.8-1.4-2.6-2.2
		C82.6,123.3,82.2,122.8,81.7,122.2z M93,128.8c-1-2.7-3-5-0.9-7.9c-2.6,0.2-5.1,0.9-7.7,1.8C87,125.4,89.6,127.4,93,128.8z
		 M108.1,129.8c0-0.1,0.1-0.3,0.1-0.4c-0.3-0.4-0.6-0.9-0.8-1.3c-1.1-1.7-2-3.4-3.8-4.6c-0.6-0.4-0.8-0.1-0.8,0.4
		c0,1.8-0.9,3.1-2.3,4.1c-0.7,0.5-1.3,0.9-2.1,1.5c0.3,0.1,0.4,0.2,0.6,0.2c1,0,2,0,3,0C104.1,129.8,106.1,129.8,108.1,129.8z"/>
	<path class="st0" d="M146.1,135.7c0.2-0.4,0.4-0.8,0.7-1.1c2.3-2.1,5-3.7,7.8-5c4.6-2.2,9.2-1.9,13.7,0.4c2.2,1.1,4.1,2.7,6.1,4
		c0.3,0.2,0.5,0.4,0.7,0.7c0.3,0.4,0.2,0.8-0.3,0.8c-1.7,0-3.1,0.8-4.5,1.6c-4,2.2-8.2,2.7-12.6,1.7c-1-0.2-1.9-0.7-2.8-1.1
		c-2.7-1.1-5.5-2-8.5-1.8C146.2,135.9,146.1,135.8,146.1,135.7z M162,138c3.3,0.4,9-2.1,9.7-4.1c-1.1-1.1-3-2.2-5.9-3.4
		C165.6,133.6,164.8,136.3,162,138z M154.9,136.4c-0.4-1.5-0.7-3.2-1.1-4.9c-1.8,0.8-3.5,1.8-4.8,3.1
		C151.1,135.3,153.1,135.9,154.9,136.4z M159.6,133.5c0.5-0.6,1.1-1,1.1-1.4c0-0.3-0.6-1-0.8-1c-0.5,0.1-1,0.6-1.2,1
		C158.6,132.3,159.1,132.8,159.6,133.5z"/>
	<path class="st0" d="M180.7,124.3c-0.6-0.3-1.1-0.5-1.5-0.8c-1.9-1.5-4.1-1.9-6.4-2.3c-1.4-0.2-2.8-0.5-4.2-0.4c-2,0.2-4,0.6-6,1
		c-2.6,0.5-5.3,1.1-7.8,1.8c-1.5,0.4-2.9,1-4.4,1.6c-1.9,0.8-3.7,1.6-5.6,2.4c-1,0.4-2.2,0.8-3.3,0.4c-0.4-0.2-1-0.5-1.1-0.9
		c-0.1-0.3,0.4-1,0.7-1.1c2-0.9,4.1-2,6.2-2.6c4.1-1.2,8.3-2.2,12.5-3.2c3.3-0.7,6.6-1.9,10.1-1.5c3.4,0.3,6.7,0.9,9.6,2.8
		c0.6,0.4,1.2,0.6,1.7,1.1c0.3,0.2,0.5,0.7,0.4,1C181.6,123.9,181.1,124.1,180.7,124.3z"/>
	<path class="st0" d="M139.4,160.1c0.9,2.6,2,5.2,2.8,7.8c0.5,1.9,0.3,3.9-0.5,5.7c-0.9,1.9-3.3,2.9-5.4,2.3
		c-0.4-0.1-0.8-0.3-1.3-0.3c-1.2-0.2-2.3-0.2-3.3,0.7c-1.8,1.5-3.7,2.9-6.1,3.5c-3.7,1-7,0.2-8.5-3.3c-1.1-2.6-3.2-3.8-5.6-4.7
		c-1-0.3-2-0.4-3-0.7c-1.6-0.6-2.9-1.7-3.8-3.2s-0.5-3.2-0.2-4.9c0.3-1.4,1.1-2.6,2.1-3.6c0.9-1,1.7-2.1,2.5-3.1
		c0.2-0.3,0.6-0.4,1-0.6c0,0.4,0.2,1,0.1,1.2c-0.8,1.1-1.6,2.3-2.6,3.2c-1.8,1.7-2.3,3.8-2.2,6.2c0,0.5,0.3,1,0.7,1.4
		c1.4,1.7,3.3,2.2,5.3,2.7c2.8,0.7,5.2,2,6.4,4.9c1,2.5,3,4,5.8,3.5c1.7-0.3,3.3-1,4.8-1.8c1-0.5,1.9-1.3,2.7-2
		c1.3-1.1,2.8-0.8,4.3-0.6c1.1,0.1,2.1,0.7,3.3,0.2c1.8-0.8,2.1-2.3,2.3-4s-0.3-3.3-0.9-4.9c-0.5-1.4-1-2.8-1.5-4.2
		c-0.3-0.7,0-1,0.3-1.4C139.2,160.2,139.3,160.2,139.4,160.1z"/>
	<path class="st0" d="M85.7,107.6c3.2-0.3,6.1,0.4,9,1.4c1,0.4,2,0.9,2.8,1.6c1.9,1.7,4.2,2.7,6.5,3.7c2.1,0.9,3.9,2.4,5.6,3.8
		c1,0.8,2.1,1.6,3.2,2.4c0.4,0.4,1.1,0.8,0.4,1.5c-0.6,0.6-1.2,0.3-1.8-0.1c-0.7-0.5-1.3-1-1.9-1.5c-2.7-2.5-6-3.9-9.2-5.5
		c-1.7-0.9-3.1-2.1-4.8-3.1c-2.1-1.2-4.3-2-6.8-2.1c-1.3-0.1-2.5-0.1-3.8-0.2c-2-0.1-3.9,0.5-5.7,1.2c-0.7,0.3-1.3,0.4-1.6-0.4
		c-0.3-0.8,0.3-1.3,1-1.6C81,107.9,83.3,107.3,85.7,107.6z"/>
	<path class="st0" d="M194.5,154.1c0,1.1-1,2.2-2,2.2c-0.9,0-1.8-0.9-1.8-1.7c0-1.2,1.2-2.6,2.1-2.6
		C193.6,152.1,194.5,153.2,194.5,154.1z"/>
	<path class="st0" d="M62.9,139.4c0,1.3-0.6,2.1-1.5,2.1c-1.2,0-1.9-0.8-1.9-2.3c0-1.2,0.7-2.2,1.6-2.2
		C61.9,137.1,62.9,138.3,62.9,139.4z"/>
</g>
</svg>
