<?xml version="1.0" encoding="utf-8"?>
<!-- Generator: Adobe Illustrator 19.2.1, SVG Export Plug-In . SVG Version: 6.00 Build 0)  -->
<svg version="1.1" id="Layer_1" xmlns="http://www.w3.org/2000/svg" xmlns:xlink="http://www.w3.org/1999/xlink" x="0px" y="0px"
	 viewBox="0 0 164.4 180.1" style="enable-background:new 0 0 164.4 180.1;" xml:space="preserve">
<style type="text/css">
	.st0{fill:#00BCD4;}
</style>
<g id="pharm-carly-cyan">
	<path class="st0" d="M1.6,165c1.9-1,3.9-1.7,5.9-2.5c0.4-0.2,0.7-0.3,1.1-0.5c2.2-1,4.4-2,6.6-3.1c2.1-1.1,4.1-2.4,6.2-3.6
		c3.9-2.2,7.9-4.5,11.8-6.7c3.3-1.9,6.7-3.6,10.1-5.4c0.2-0.1,0.5-0.2,0.9-0.4c0,2.5,0,4.8-0.6,7.1c-0.2,0.9-0.5,1.7-0.7,2.6
		c-0.3,1.3-0.5,2.7-0.8,4.1c-0.7,2.5-1.5,5-2.1,7.6c-0.3,1.1,0.2,1.8,1.3,2c1.8,0.3,3.5,0.5,5.3,0.7s3.5,0.5,5.4,0.7
		c-0.2,0.3-0.3,0.5-0.4,0.7c-0.7,0.9-1.4,1.7-2,2.7c-1.8,3.2-4,6.2-6.2,9.1h3.3c0.9-1.1,1.7-2.3,2.5-3.4c1.5-2.1,2.9-4.4,4.4-6.5
		c0.6-0.8,1.3-1.6,1.8-2.4s0.4-1.4-0.3-1.6c-0.9-0.3-1.9-0.6-2.8-0.8c-2.8-0.4-5.6-0.8-8.5-1.2c-1-0.1-1.1-0.2-0.8-1.1
		c0.7-2.2,1.4-4.5,2-6.7c0.4-1.5,0.5-3.1,1-4.6c0.9-2.9,1.1-5.8,0.9-8.7c-0.1-0.9,0.2-1.4,0.8-1.9c1.4-1.1,2.7-2.4,4-3.6
		c0.5-0.5,0.9-1.1,1.4-1.6c1.8-1.6,3.6-3.2,5.5-4.8h0.2c0.1,0.6,0.2,1.1,0.4,1.7c0.3,1.2,0.6,2.4,0.7,3.6c0.2,2.7,0.1,5.4,0.3,8.1
		c0.3,3.4,0.5,6.8,1.3,10.1c1.2,4.9,2.6,9.8,4.9,14.3c0.5,1,1,2.1,1.4,3.1c0.9,2.2,1.7,4.4,2.5,6.6c0.1,0.4,0.3,0.8,0.4,1.2
		c0,0.1,0,0.1,0.1,0.2h34.9V180c0.3-1.2,0.3-2.5,0.6-3.7c0.8-2.7,1.6-5.3,2.5-7.9c1.1-3.2,2-6.4,1.8-9.8c-0.1-1-0.3-1.9-0.3-2.9
		c0-2.2,0.2-4.5,0.3-6.7c0.2-5.8,0.3-11.6,0.5-17.4v-0.8l0.3-0.2c0.3,0.4,0.6,0.8,0.9,1.2c1.1,1.3,2.2,2.5,3.9,2.9
		c0.2,0,0.4,0.2,0.5,0.3c1.1,1,2.3,2,3.3,3.1c1.7,1.9,3.4,3.9,5,5.8c0.5,0.6,1.2,1.3,1.6,2c0.8,1.5,1.5,3.1,2.3,4.6
		c1.1,2.1,2.3,4.2,3.4,6.3c0.5,0.9,0.4,1.1-0.5,1.6c-2.7,1.5-5.3,3-8,4.5c-0.7,0.4-0.9,1-0.4,1.6c0.6,0.7,1.3,1.3,2,2
		c1.6,1.5,3.2,3,4.8,4.5c0.1,0.1,0.1,0.5,0,0.7c-0.4,0.7-0.8,1.3-1.2,1.9c-0.5,0.6-1.1,1.1-1.5,1.8c-1,1.6-1.9,3.1-2.9,4.7h2.5
		c1.1-1.8,2.2-3.7,3.4-5.5c0.5-0.9,1.1-1.8,1.5-2.7c0.4-0.8,0.1-1.4-0.6-1.9c-1.2-1-2.2-2.1-3.4-3.1c-0.7-0.6-1.4-1.2-2.1-1.9
		c-0.3-0.3-0.5-0.6-0.9-0.9c0.5-0.3,0.8-0.6,1.2-0.7c1.9-0.6,3.9-1,5.7-2.1c0.8-0.5,1.7-1,2.5-1.4c1.1-0.6,1.2-0.8,0.6-2
		c-0.9-1.7-2-3.3-2.9-5.1c-1.5-2.9-2.8-5.9-4.3-8.8c-1-1.9-2.1-3.6-3.1-5.5l0.2-0.2c0.3,0.1,0.6,0.3,0.9,0.4c0.5,0.2,1,0.4,1.5,0.5
		c1.7,0.4,3.5,0.5,5.2,1c2.9,0.9,5.7,1.9,8.6,3c1.8,0.7,3.6,1.4,5.3,2.2c2.1,1,4.2,2.1,6.3,3.1c3.6,1.7,7.3,3.1,10.6,5.4
		c0.4,0.3,0.7,0.5,1.1,0.8c-0.5-0.7-0.5-1.3-0.5-2c-1.7-1.1-3.4-2.2-5.3-3.1c-5.2-2.5-10.5-4.8-15.8-7.2c-2.4-1.1-4.8-2.2-7.3-3
		c-3.1-1-6.3-1.5-9.3-2.4c-2.7-0.9-5.3-2-7.8-3.2c-1.5-0.7-2.7-2-4.1-3c-1.2-0.9-2.1-2.1-2.5-3.5c-0.3-0.9-0.7-1.8-1-2.7
		c-0.6-1.5-0.8-2.8,0.3-4.3c2.1-2.8,3.6-5.9,5-9.1c1.4-3,2.4-6,2.9-9.2c0.4-2.4,0.7-4.8,1.1-7.3c0,0,0.1,0,0.3-0.1
		c1.5-0.3,2.5-1,3-2.5c0.8-2.4,1.2-4.9,1.3-7.4c0-1.5,0.3-2.9,0.9-4.3c0.7-1.7,1.3-3.5,1.7-5.3c0.3-1.2,0.3-2.5,0.3-3.8
		c0.1-1.8,0.3-3.6,0.1-5.3c-0.1-1-0.7-2.3-1.5-2.8c-1.2-0.8-1.5-1.4-1.2-2.8c0.5-2.4,0.6-4.9,1.9-7.2c0.4-0.8,0.7-1.6,0.9-2.4
		c0.5-2.3,1-4.5,1.2-6.8c0.2-2.4,0.2-4.9,0-7.4c-0.2-2.1-0.6-4.2-1.1-6.2c-0.4-1.7-1.1-3.4-1.8-5.1c-0.8-1.8-1.9-3.5-2.8-5.3
		c-0.7-1.4-1.5-2.7-2.7-3.8c-0.8-0.7-1.6-1.5-2.2-2.4c-2.2-3-4.9-5.5-7.6-8c-1.4-1.2-2.9-2.3-4.8-2.7c-3.2-0.5-6.5-1.1-9.7-1.7
		c-2.4-0.4-4.8-1.1-7.2-1.3C84.8,0,80.6,0.1,76.4,0c-2.5-0.1-4.9,0.4-7.1,1.4C64.5,3.6,59.9,5.8,55.2,8c-1.4,0.7-2.8,1.3-4,2.3
		c-1.9,1.6-3.7,3.4-5.5,5.2c-1,1.1-1.7,2.5-2.8,3.5c-1.9,1.8-3.4,3.8-4.8,6c-1.3,2-2.7,4-3.6,6.2c-1.1,2.9-1.7,6-2.4,9
		c-0.4,1.7-0.8,3.3-1.2,5c-0.2,0.8-0.3,1.6-0.4,2.4c-0.1,1.4-0.2,2.9-0.3,4.3c-0.1,1.5-0.5,2.9-0.5,4.4c0,3.5,0.1,7,0.2,10.5
		c0.1,1.4,0.3,2.8,0.5,4.2c0.1,1,0.3,2,0.5,3c0.2,0.9,0.3,1.9,0.5,2.8c0.5,2.1,1.1,4.2,1.6,6.3c0.8,4,2.3,7.6,4.6,10.9
		c1.4,2.1,2.8,4.1,3.7,6.4c0.5,1.4,1.3,2.6,2,3.9c0.4,0.7,1,1.4,1.3,2.1c1.4,2.9,2.5,6,5.2,8c0.1,0.1,0.2,0.3,0.3,0.4
		c1.1,1.4,2.2,2.9,3.3,4.3c0.7,0.8,1.7,1.4,2.1,2.3c1,1.9,1.7,3.9,2.4,5.9c0.1,0.2-0.1,0.5-0.2,0.7c-0.4,0.4-0.9,0.7-1.4,1.1
		c-1,0.9-2,1.9-3.1,2.8c-1.9,1.5-3.7,3-5.3,4.9c-1,1.2-2.3,2.2-3.6,3c-3.1,1.8-6.2,3.3-9.4,5c-2.9,1.6-5.9,3.1-8.8,4.7
		c-2.8,1.5-5.5,3.3-8.6,4.4c-1.6,0.6-3.1,1.4-4.6,2.2c-3.5,2-6.9,4.3-10.7,5.9c-0.7,0.3-1.5,0.6-2.2,1c0.1,0.9,0.1,1.9,0.1,2.8
		C0.6,165.5,1.1,165.3,1.6,165z M121.6,70c0.1-1.2,0.4-2.4,0.6-3.6s1.2-1.6,2.2-1.9c0.2-0.1,0.6,0.1,0.7,0.3
		c0.4,0.7,0.9,1.4,0.9,2.1c0,2.3-0.3,4.5-0.4,6.8c-0.1,2.6-1.7,4.7-2.2,7.1c-0.1,0.3-0.1,0.6-0.2,0.9c-0.1,0-0.1,0-0.2,0
		c-0.2-0.5-0.6-1-0.5-1.5c0.1-1.7-0.9-3.1-1.1-4.6C121.4,73.6,121.5,71.8,121.6,70z M120.1,83.1c0-1,0-2,0.1-2.9
		c0-0.6,0.2-1.2,0.5-1.8c0.2,0.9,0.3,1.7,0.5,2.6s0.6,1.7,0.9,2.5v0.1c1.7,1.1,0.7,2.6,0.6,4c0,0.9-0.3,1.9-0.5,2.8
		c-0.4,1.8-0.5,1.8-2.1,2.3V83.1z M108,131.8c-0.1,1.8-0.4,3.6-0.6,5.5c0,0.5,0.1,1,0.1,1.5c0.1,2.6,0.1,5.1,0.1,7.7
		c0,0.8,0,1.7-0.1,2.5c-0.3,2.9-0.6,5.9-1,8.8c-0.3,1.8-0.7,3.6-1.3,5.3c-0.6,1.7-1.6,3.2-3.1,4.3c-3,2.1-6.2,3.7-9.7,4.5
		c-3.4,0.7-7,0.8-10.5,0.5c-1.7-0.1-3.4-0.4-5-0.8c-2.5-0.6-4.3-2.1-5.9-4.1c-1.8-2.2-2.9-4.7-3.9-7.3c-1.4-3.3-2.6-6.6-3.1-10.1
		c-0.4-2.8-0.7-5.7-1.1-8.5c-0.5-3.7-0.8-7.5-1.8-11.1c-0.5-2-1-4.1-1.4-6.1c1,1,2,2.1,3.2,3c2,1.5,4.2,2.7,6.2,4.2
		c2.5,1.9,5.1,3.4,8,4.2c2.6,0.6,5.4,0.8,8.1,0.6c4.2-0.3,7.9-2.2,11.4-4.2c2.1-1.2,4.2-2.4,6.1-3.8c1.9-1.4,3.5-3,5.3-4.6
		c0,0.1,0.1,0.2,0.1,0.3C108.1,126.8,108.1,129.3,108,131.8z M56.2,117.8c-0.7-1.1-1.3-2.3-1.9-3.6c-0.8-1.7-1.5-3.5-2.2-5.2
		c-1.1-2.8-2.5-5.4-2.6-8.5c0-0.9-0.2-1.7-0.5-2.6c-0.7-2.1-0.7-4.3-0.6-6.5c0.1-1.8,0.2-3.7,0.3-5.5c0-0.1,0-0.2,0.1-0.3
		c1.3-3.5,1.7-7.3,2.7-10.9c0.5-1.6,1.5-3.1,2.3-4.6c1.7-2.9,3.5-5.7,5.3-8.5c1.8-2.8,4.3-5,6.8-7.2c2.5-2.2,5.3-4.1,8.1-5.9
		c0.3-0.2,0.6-0.3,0.9-0.5l0.1,0.1c-0.7,1-1.3,2.1-2,3.1c-0.5,0.7-0.9,1.5-1.4,2.2c-0.5,0.6-1,1.1-1.6,1.6c-2.2,2.1-4.5,4.1-6.6,6.4
		c-2.5,2.7-4.9,5.4-7.2,8.2c-0.9,1.2-1.5,2.6-2.2,3.9c0.1,0,0.1,0.1,0.2,0.1c1.6-1.6,3.3-3.2,4.8-4.8c0.5-0.5,0.9-0.8,1.6-0.8
		c1.2-0.1,2.4-0.4,3.6-0.6c2.3-0.3,4.6-0.7,6.9-0.3c2.1,0.4,3.9,1.5,5.3,3.2c0.3,0.4,0.6,0.8,1.2,0.4c0.5-0.4,0.5-0.9,0.1-1.4
		c-2.2-2.9-5-4.5-8.7-4.6h-6.1c0,0,0-0.1,0.1-0.2c1.3-1.4,2.6-2.9,4-4.3c0.6-0.6,1.2-1.2,1.8-1.7c1.7-1.7,3.5-3.5,5.3-5.2
		c1.2-1.1,2.4-2,3.6-3c1.8-1.5,3.6-3.1,5.5-4.6c1.8-1.3,3.7-2.5,5.6-3.7c0.4-0.3,1-0.3,1.6-0.4c0.5-0.1,1,0.7,0.8,1.2
		c-1.1,2.8-1.4,5.9-3.5,8.3c-1.1,1.3-1.9,2.9-2.8,4.4c-0.7,1.2-1.6,2.3-2.8,3.1c-0.7,0.5-1,1.1-0.8,2c1.6,0,2.5-1.2,3.5-2.1
		c2.4-2.4,4.7-4.8,7-7.3c2.2-2.4,4.2-5,6.4-7.4c1.3-1.4,2.8-2.7,4.3-4c1.1-1.1,2.3-2.1,3.4-3.2c0.4-0.4,0.7-0.8,0.9-1.2
		c0.5-1,0.7-1.1,1.9-0.7c1.8,0.6,2.9,2.1,4,3.5c1.7,2.1,2.2,4.7,3.1,7.2c1.9,5.2,2.4,10.6,2.3,16.1c-0.1,3.6,0.2,7.3,0.3,10.9
		c0.1,1.6,0.2,3.3,0.2,4.9c0,3.3-0.1,6.6-0.1,9.9c0,2.4,0.1,4.8,0.1,7.3c0.1,3-0.6,5.8-1.1,8.7c-0.6,3.4-2.1,6.4-3.8,9.4
		c-0.9,1.6-1.5,3.3-2.5,4.7c-2.3,3.4-4.8,6.2-7.6,8.8c-1.9,1.7-4.2,2.6-6.2,4.1c-2.7,2.1-5.9,3.3-9.1,4.4c-2.2,0.7-4.4,0.8-6.7,0.6
		c-0.8-0.1-1.6-0.1-2.5-0.2c-2.3-0.4-4.5-1.2-6.5-2.4c-1.8-1.1-3.4-2.4-5.1-3.6c-1.4-0.9-3-1.7-4.2-2.8c-1.5-1.3-2.6-2.9-3.9-4.4
		C58.3,120.5,57.2,119.2,56.2,117.8z"/>
	<path class="st0" d="M104.8,105.3c-0.2,0.4-0.4,0.9-0.6,1.3c-1.8,2.6-4.3,4.5-6.8,6.5c-2.4,1.9-5.2,3-8.1,3.6
		c-3.2,0.6-6.4,0.7-9.6,0.3c-2.1-0.3-3.9-1.6-5.7-2.8c-2-1.4-3.8-3-5.3-4.9c-0.3-0.4-0.9-0.7-1.3-1c-0.5-0.4-1-0.8-1.5-1.1
		c0-0.1,0.1-0.2,0.1-0.3c0.5,0.1,0.9,0.1,1.3,0.2c1.9,0.6,3.7,0.2,5.6-0.4c2.2-0.8,4.4-1.4,6.6-2.1c1.7-0.5,3.5-0.2,5.2,0.2
		c1,0.2,2.1,0.1,3-0.4c1.4-0.8,2.8-0.6,4.2-0.1c2.4,0.7,4.7,1.6,7.1,2.2c1.9,0.5,3.8,0.1,5.5-0.9
		C104.7,105.2,104.8,105.2,104.8,105.3z M99.6,109.8c0-0.1-0.1-0.2-0.1-0.3c-0.3,0-0.7,0-1,0.1c-3.7,0.9-7.3,2.1-11.2,2.6
		c-3.1,0.4-6.1,0.1-9.1-0.6c-2.2-0.5-4.4-1.1-6.5-1.7c-0.1,0.1-0.1,0.2-0.2,0.4c1.2,0.9,2.4,1.8,3.6,2.7c0.4,0.3,1,0.5,1.4,0.8
		c2.2,1.7,4.9,1.6,7.4,1.7c1.8,0.1,3.6-0.3,5.4-0.6c1.7-0.3,3.5-0.7,5-1.5C96.2,112.4,97.8,111,99.6,109.8z M98.7,108.6
		c0-0.1,0-0.3-0.1-0.4c-0.8,0.1-1.6,0.2-2.5,0.2c-1.8,0-3.7-0.1-5.5-0.2c-1.7,0-3.4,0-5.2,0c-1.3,0-2.6-0.2-3.9-0.2
		c-2.1,0-4.1,0.1-6.2,0.2c-1,0.1-2,0.3-2.9,0.5c0,0.1,0,0.2,0,0.3c2.1,0.5,4.3,1,6.4,1.6s4.3,0.8,6.5,0.7c1.1-0.1,2.2-0.2,3.3-0.4
		c1.9-0.3,3.7-0.7,5.6-1.2C95.7,109.4,97.2,108.9,98.7,108.6z M99,107.2c-0.3-0.2-0.5-0.3-0.7-0.4c-2.2-0.7-4.4-1.4-6.6-2
		c-1.3-0.4-2.7-0.4-3.9,0.3c-1.1,0.6-2.3,0.9-3.6,0.5c-0.7-0.2-1.5-0.6-2.2-0.6c-1.8-0.2-3.4,0.6-5.1,1c-1.3,0.3-2.5,0.9-3.8,1.3
		c0,0.1,0,0.2,0.1,0.3C81.6,106.5,90.2,107.2,99,107.2z"/>
	<path class="st0" d="M68.6,79.5c-1.9-0.1-3.9-0.2-5.8-0.5c-1.1-0.2-2.1-0.8-3.1-1.2c-0.8-0.3-1.5-0.7-2.3-1
		c-0.3-0.1-0.6-0.3-0.9-0.5c-0.4-0.3-0.5-0.8,0-1.1c2.2-1.3,4.4-2.7,6.7-3.7c3.8-1.5,7.3-0.6,10.5,1.8c0.9,0.7,1.7,1.4,2.6,2.1
		c0.3,0.3,0.5,0.7,0.6,1.1c0.2,0.5,0,0.9-0.6,1c-0.3,0.1-0.6,0.1-0.8,0.2C73.5,79.1,71.2,79.6,68.6,79.5z M63.4,73.1
		c-2,0.5-3.1,2.1-4.7,2.8c1.4,0.7,2.8,1.4,4.2,1.9c0.2,0.1,0.5,0,1-0.1C62.5,76.3,63.2,74.8,63.4,73.1z M70.8,73.7
		c0.5,1.6,1,3-0.3,4.4c1.7,0,3.1-0.6,4.5-1.4C73.9,75.3,72.7,74,70.8,73.7z M68,73.8c-0.1-0.1-0.4-0.5-0.7-0.5c-0.6-0.1-1,0.4-1,1
		c0,0.3,0.5,0.8,0.7,0.8C67.6,75.1,68,74.7,68,73.8z"/>
	<path class="st0" d="M103.6,78.2c-1.8-0.2-3.5-0.5-5.1-0.6c-1.8-0.1-3.6-0.1-5.4-0.2c-0.8,0-1.1-0.4-0.7-1.1c0.8-1.4,1.6-2.9,2.9-4
		c1.2-1.1,2.7-1.6,4.1-2.1c1.3-0.4,2.6-0.4,3.9-0.6c2.2-0.3,4.2,0.7,6.2,1.4c0.7,0.3,1.4,0.6,2.1,0.8c0.7,0.2,1,0.9,0.4,1.3
		c-2,1.5-3.7,3.6-6.1,4.5C105.2,78,104.3,78,103.6,78.2z M99,76.3c-1-1.6-1-1.7-0.7-4.5c-2,0.9-3.5,2.4-4.7,4.5
		C95.5,76.3,97.3,76.3,99,76.3z M106.3,71.3c0.3,1.9,0.5,3.5-0.3,5.1c1.7-0.7,2.8-2,4.3-3.3C108.8,72.6,107.6,72,106.3,71.3z
		 M103.6,73c-0.6-0.4-0.9-0.8-1.2-0.8c-0.4,0.1-0.6,0.5-1,0.8c0.3,0.3,0.6,0.8,0.9,0.8C102.6,73.9,103,73.4,103.6,73z"/>
	<path class="st0" d="M114.9,64c0,0.8-0.6,1.3-1.1,0.9c-2-1.5-4.1-1.2-6.3-0.9c-4.5,0.6-8.7,2.2-12.8,4c-1.3,0.6-2.3,1.6-3.5,2.4
		c-0.2,0.2-0.5,0.4-0.7,0.4c-0.3,0-0.8-0.2-0.9-0.4c-0.1-0.3,0-0.8,0.2-1c2.4-2.2,5.3-3.8,8.4-4.7c2.3-0.7,4.6-1.5,6.9-2
		c2-0.5,4-1.1,6-0.6c1.1,0.3,2.2,0.9,3.3,1.4C114.7,63.5,114.8,63.8,114.9,64z"/>
	<path class="st0" d="M96.2,94.3c0.2,2.3-1.2,4.1-3.1,4c-0.2,0-0.4-0.1-0.7-0.1c-0.8-0.2-1.3,0.1-1.9,0.5c-1,0.7-2,1.5-3.2,1.9
		c-1.6,0.6-3.2,0.3-4.6-0.7c-0.8-0.6-1.7-1.1-2.6-1.5c-1.1-0.5-2.2-0.2-3.1,0.5c-0.8,0.6-1.8,0.3-2.2-0.6c-0.5-1.3-0.8-2.7-0.2-4
		c0.1-0.3,0.3-0.6,0.6-0.8c0.2-0.1,0.5,0,0.8,0c-0.1,0.2-0.1,0.5-0.2,0.7c-0.6,0.7-0.7,3.2,0,3.8c0.1,0.1,0.6,0.1,0.8,0
		c1.2-1,2.7-0.9,4.1-0.8c0.4,0,0.8,0.4,1,0.6c2.6,2.8,6,2.3,8.2,0.1c0.9-0.9,1.9-1.2,3.1-0.8c1.2,0.5,1.9-0.7,2.3-2.1
		c0.2-0.9,0-1.8-0.9-2.3c-0.2-0.1-0.2-0.4-0.3-0.7c0.3,0,0.6-0.2,0.8-0.1C95.7,92.5,96.3,93.3,96.2,94.3z"/>
</g>
</svg>
