<?xml version="1.0" encoding="utf-8"?>
<!-- Generator: Adobe Illustrator 19.2.1, SVG Export Plug-In . SVG Version: 6.00 Build 0)  -->
<svg version="1.1" id="Layer_1" xmlns="http://www.w3.org/2000/svg" xmlns:xlink="http://www.w3.org/1999/xlink" x="0px" y="0px"
	 viewBox="0 0 159.1 179.6" style="enable-background:new 0 0 159.1 179.6;" xml:space="preserve">
<style type="text/css">
	.st0{fill:#E91E63;}
</style>
<g id="pharm-amanda-red">
	<path class="st0" d="M158.9,146.9c-1.6-0.5-3.2-1-4.8-1.3c-1.3-0.4-2.6-0.3-3.9-0.6c-2.1-0.5-4.1-1.2-6.1-1.5
		c-4.7-0.7-9.4-1.6-14-2.9c-0.7-0.2-1.5-0.4-2.1-0.8c-1.4-1-2.9-2-4.2-3.1c-1.6-1.2-2.2-2.6-1.4-4.7c0.6-1.5,1.1-3.1,1.5-4.6
		c0.8-3.2,1.4-6.6,2.4-9.8c1.3-4.2,1.9-8.6,2.4-13c0.3-3.1,0.5-6.1,0.7-9.1c0.1-1.7,0.3-3.4,0.3-5.1c-0.1-5.3-0.2-10.6-0.4-15.9
		c-0.1-1.6-0.6-3.3-1-4.9c-0.5-1.7-1.2-3.4-1.7-5.1c-0.7-2.3-1.1-4.7-1.7-7c-1-3.8-1.8-7.5-3-11.2c-1-3-2.5-5.9-3.8-8.8
		c-0.4-1-1-2-1.4-3c-0.3-0.7-0.3-1.6-0.7-2.2c-1.8-3-3.6-5.9-5.4-8.9c-0.3-0.5-0.5-0.9-0.8-1.4c-0.6-1-1-2-1.7-2.8
		c-1.3-1.5-2.7-2.9-4.2-4.2c-2.9-2.6-6.1-4.8-9.5-6.8c-2-1.2-3.9-1.8-6.1-1.6c-0.5,0.1-1,0.1-1.5,0c-0.6-0.1-1.3-0.2-1.7-0.5
		c-2.5-1.9-5.3-3.2-8-4.7c-0.9-0.5-1.9-1.1-2.9-1.2c-1.9-0.2-3.8-0.1-5.7,0c-1,0-2,0.3-3,0.6C64.2,1,62.9,1.5,61.7,2
		c-1.7,0.7-3.6,1.3-5.1,2.3c-4.1,2.7-8.3,5.1-12,8.3c-1.9,1.7-4,3.2-5.7,5c-2.7,3-4.6,6.6-6.4,10.2c-1,2-1.8,4-2.9,5.9
		c-1.2,2.1-2.4,4.2-3.3,6.5C24,45.8,22.5,51.7,21,57.5c-1,3.8-1.8,7.6-2.1,11.6c-0.2,3.4-0.9,6.8-1.2,10.2c-0.3,3.2-0.3,6.4-0.3,9.6
		c0,4.4,0.2,8.8,1.1,13.1c0.3,1,0.6,2.1,0.7,3.1c0.6,5.3,1.7,10.6,3.2,15.7c0.2,0.6,0.3,1.2,0.4,1.8c0.4,2.8,0.9,5.5,1.8,8.2
		c0.4,1,0.7,2,1.1,3c0.5,1.1,1,2.2,1.6,3.2c0.8,1.5,1.7,3,2.7,4.4c1.6,2.3,3.4,4.4,3.9,7.3c0,0.2,0,0.5-0.1,0.6
		c-0.9,1.1-2,1.7-3.5,1.9c-1,0.1-1.9,0.4-2.9,0.6c-1.1,0.3-2.2,0.6-3.3,0.9c-6.3,1.5-12.5,3-18.8,4.6c-1.8,0.5-3.6,0.9-5.3,1.5v2
		c2.9-0.8,5.9-1.5,8.8-2.3c0.4-0.1,0.9-0.3,1.3-0.4c2.7-0.8,5.5-1.6,8.3-2.3c3.5-0.9,6.9-1.7,10.4-2.6c0.2-0.1,0.5-0.1,0.7-0.1
		c0.1,0.1,0.1,0.2,0.2,0.3c-0.6,0.5-1.1,1.1-1.7,1.4c-3.3,1.7-6.6,3.3-9.9,5c-0.7,0.3-1.3,0.8-2,1.1c-1.9,0.9-3.7,1.8-5.6,2.6
		c-3.2,1.5-6.5,2.8-9.2,5.2c-0.5,0.4-1,0.9-1.3,1.4v1.8c1.4-1.4,2.8-2.7,4.6-3.5c1.1-0.4,2.2-0.8,3.3-1.1c1.6-0.3,3.4-0.3,5-0.9
		c1.5-0.5,2.5,0.2,3.6,0.8c1,0.5,2,1.2,3,1.8c0.7,0.4,1.4,0.7,2.1,1.1c-1.7,1.2-3.1,1.5-5.6,2.1c-0.6,0.1-1.1,0.3-1,1.1
		c0.4,1.9,0.6,3.8,1,5.7c0,0.2,0.1,0.3,0.1,0.5h1.9c0,0,0,0,0-0.1c-0.3-1.6-0.6-3.1-0.9-4.7c-0.1-0.4-0.1-0.8,0.5-0.9
		c2.9-0.4,5.1-2,7.3-3.8c2.6-2.2,5.2-4.5,7.8-6.7c1.5-1.2,3.1-2.3,4.6-3.5c0.6-0.5,1.2-1.3,1.8-2c0.2,0.5,0.5,0.9,0.7,1.3
		c1.3,2.4,2.6,4.8,3.9,7.2c0.9,1.6,1,3.2,0.2,4.9c-0.6,1.3-1.1,2.6-1.4,4c-0.3,1.4-0.4,2.9-0.6,4.3h13.5c-0.4-0.6-0.8-1.2-1.2-1.8
		c-1.9-2.5-4-4.8-5.8-7.3c-1.6-2.3-2.8-4.7-4.2-7.1c-0.6-1.1-1.3-2.3-1.9-3.5c-0.1-0.3-0.2-0.6-0.3-0.9c0.3,0,0.5-0.1,0.7,0
		c2.5,0.2,5.1,0.2,7.6-0.6c1.3-0.4,1.2-0.2,1.9,0.9c1.1,1.9,1.6,4,2.1,6.1c1.2,4.7,2.3,9.5,3.5,14.2h2.1c-0.3-1-0.6-1.9-1-2.9
		c-0.6-1.7-0.8-3.7-1.2-5.5c-0.4-1.7-0.9-3.5-1.3-5.2c-0.2-0.7-0.3-1.5-0.5-2.3c-0.6-2.2-1.5-4.3-2.6-6.4c-0.3-0.6-0.5-1.4-0.5-2.1
		c0.1-2,0.4-4,0.6-6c0.2-2,0.5-3.9,0.6-5.9c0.2-2.9,0.4-5.7,0.5-8.5c0.1-2.8,0.1-5.6,0.1-8.4c0-2.7-0.1-5.3-0.1-7.9
		c0-0.8,0.3-1.6,0.4-2.5c1.4,1,2.7,2,4.1,2.6c3.8,2.5,7.9,3.8,12.5,3.5c2.7-0.1,5.4-0.5,8.1-0.9c0.7-0.1,1.5-0.4,2.2-0.8
		c2.7-1.5,5.3-2.9,7.9-4.5c1.3-0.8,2.6-1.8,3.7-2.8c1.5-1.3,3-2.7,4.2-4.2c1.8-2.1,3.2-4.5,4.8-6.7c0.2-0.3,0.5-0.7,0.8-1.1
		c0.1,0.1,0.2,0.1,0.3,0.1c0,0.6-0.1,1.1,0,1.6c0.6,4.1-0.1,8-1.2,11.8c-0.9,2.7-1,5.5-1,8.3c0,1.5-0.3,2.8-1.2,4
		c-2.2,2.8-4.1,5.9-6.5,8.6c-2.9,3.3-5.3,7-7.7,10.7c-2.2,3.2-3,7-3.5,10.8c-0.1,0.8-0.2,1.7-0.3,2.5c-0.5,2.9-1.9,5.4-3.9,7.6
		c-1,1.1-2.1,2-3.2,3c-1.8,1.7-3.3,3.6-4.5,5.7c-0.6,1-1.3,2-2,2.9c-0.2,0.3-0.4,0.6-0.6,0.9h16.7c0.8-1.5,1.6-3,2.4-4.6
		c1.8-3.7,3.6-7.5,5.5-11.2c1-2.1,2.2-4.1,3.3-6.2c0.5-0.9,1.1-1.7,1.7-2.6c0.8,1,1.6,1.9,2.4,2.8c3.5,3.7,7.8,6.2,11.7,9.3
		c0.3,0.2,0.8,0.3,1.2,0.2c0.8-0.2,1.5-0.5,2.3-0.7c4.8-1,9.5-2.4,13.9-4.6c0.4-0.2,0.8-0.3,1.3-0.5c-1.2,1.8-2.2,3.4-3.4,5
		c-3.3,4.4-6.6,8.7-10,13.1h2.2c0.5-0.6,0.9-1.2,1.4-1.9l13.5-18c0.2-0.3,0.2-0.7,0.3-1.1c-0.4-0.1-0.9-0.4-1.3-0.3
		c-1.1,0.3-2.2,0.7-3.2,1.1c-2.4,0.9-4.9,1.9-7.4,2.8c-1.7,0.6-3.4,1.2-5.1,1.8c-0.2,0.1-0.5-0.1-0.7-0.1c0.1-0.2,0.2-0.5,0.3-0.6
		c2.6-1.9,5.1-3.9,7.8-5.7c1-0.7,2.3-1.3,3.4-1.3c2.7,0,5.3,0.4,8,0.6c1.2,0.1,2.4,0.3,3.6,0.3c0.4,0,1-0.4,1.1-0.7
		c0.1-0.3-0.2-0.9-0.5-1.2c-0.6-0.7-1.4-1.4-1.9-2.2c-2-3.2-4-6.4-6-9.6c-0.1-0.2-0.1-0.4-0.2-0.6c1.3,0.3,2.5,0.6,3.8,0.8
		c3.3,0.6,6.6,1.1,9.8,1.8c2.7,0.5,5.3,1.4,8,1.5c0.4,0.1,0.7,0.2,1.1,0.3c1.3,0.4,2.7,0.8,4,1.2C159,148,159,147.4,158.9,146.9z
		 M109.8,72.6c1.2,1,1.8,2.1,2.3,3.4c0.6,5.4,0.6,12.1-2.8,11.9c-0.4-0.4-0.9-0.9-1.2-1.4c-0.8-1-0.2-2.1-0.1-3.1
		c0.2-1.9,0.5-3.7,0.8-5.5C109.1,76.2,109.4,74.5,109.8,72.6z M38.5,71.1c0.2,0.2,0.6,0.4,0.6,0.6c0.3,1.9,0.6,3.9,0.8,5.9
		c0.1,1.2,0,2.3,0,3.5c-1,0-1.5-0.4-1.5-1.3c0-2.7-0.1-5.3-0.2-8C38.2,71.6,38.4,71.3,38.5,71.1z M40.9,85.7
		c0.1,1.1,0.3,2.2,0.5,3.3c0.1,0.6-0.1,0.8-0.7,0.8c-1.5,0-1.9-0.2-2-1.7c-0.1-1.5,0-3,0-4.5c0.2,0.1,0.4,0.2,0.7,0.3
		C40.7,84.3,40.7,84.3,40.9,85.7z M37.4,157.3c-1.3,1.3-2.8,2.3-4.2,3.5c-2.1,1.7-4.1,3.5-6.2,5.3c-0.7,0.6-1.4,1.3-2.2,1.8
		c-0.3,0.2-0.8,0.3-1.1,0.2c-1.9-0.9-3.8-1.9-5.7-2.9v-0.3c0.3-0.2,0.7-0.4,1.1-0.6c3-1.2,6.1-2.2,9-3.7c2.8-1.5,5.2-3.4,7.8-5.2
		c0.5-0.4,0.8-1,1.3-1.6C38.3,155,38.4,156.1,37.4,157.3z M52.5,139c0,0.5-0.1,0.9-0.1,1.4c-0.1,1.8-0.2,3.7-0.7,5.5
		c-0.4,1.7-0.3,3.5-0.4,5.3c-0.1,1.3-0.1,2.5-0.2,3.8c-0.1,0.8-0.3,1.2-1.1,1.5c-1.8,0.7-3.7,0.6-5.5,0.7c-0.1,0-0.2,0-0.3-0.1
		c-2.6,0.2-4.3-0.8-4.9-3.4c-0.1-0.3-0.3-0.5-0.4-0.7c-0.2-0.5-0.8-1-0.7-1.4c0.2-1,0.6-1.9,1.1-2.7c1.5-2.1,3.1-4.1,4.7-6.2
		c1.5-1.9,2.9-3.9,4.3-5.8c1.2-1.7,2.6-3.2,3.1-5.3c0.1-0.5,0.4-0.9,1-0.8c0.6,0.1,0.7,0.6,0.7,1.1C52.9,134.3,52.7,136.6,52.5,139z
		 M52.3,113.2c0.5,0.4,0.7,1.2,0.7,1.7c0,0.1,0,0.2,0,0.2C52.8,114.5,52.6,113.8,52.3,113.2z M102.2,99.9c-1.3,1.8-2.6,3.6-4,5.4
		c-1.3,1.6-2.5,3.3-3.9,4.7c-1.8,1.8-3.9,3.5-5.8,5.2c-0.1,0.1-0.2,0.2-0.3,0.2c-3.4,1.1-6,3.7-9.4,4.6c-2.9,0.8-5.8,1.3-8.8,1.1
		c-2.4-0.1-4.6-0.5-6.8-1.4c-2.3-1-4.5-2.2-6.4-3.9c-1-0.8-1.8-1.8-2.6-2.7c-1.1-1.2-2.4-2.3-3.3-3.6c-1.9-2.5-3.7-5.1-4.5-8.3
		c-0.2-1-0.6-2-1-3c-1.8-4.4-2.5-9-3.1-13.7c-0.3-2.5-0.5-4.9-0.8-7.4c-0.2-1.2-0.5-2.4-0.8-3.6c-0.6-2.5-0.5-5-0.1-7.5
		c0.1-0.5,0.2-0.9,0.2-1.3c0-0.9,0.4-1.4,1.1-1.9c3.6-2.3,7.4-2.9,11.5-2.1c1,0.2,2,0.3,3,0.5c1.2,0.3,2.4,0.7,3.6,1
		c0.4,0.1,0.9-0.1,1.3-0.1c0-0.5,0-1-0.2-1.5c-0.1-0.3-0.3-0.6-0.6-0.7c-1.4-0.8-2.8-1.6-4.6-1.5c-1.6,0-3.2-0.2-4.8-0.3
		c-0.7,0-1.5,0.1-2.2,0.1c-2.2,0.1-4.1,1.4-6,2.3c-0.4,0.2-0.8,0.4-1.5,0.8c0.7-2,1.2-3.6,1.5-5.1c0.1-0.1,0.1-0.2,0.2-0.3
		c2-1.7,3.4-3.9,5.6-5.4c1.5-1,2.8-2.3,4.2-3.5c2.6-2.3,5.3-4.3,8.6-5.5l6.6-2.4c0.5-0.2,1-0.4,1.5-0.7c2.6-1.6,5.2-3.1,7.8-4.8
		c2.7-1.8,5.3-3.6,7.9-5.6c1.5-1.1,2.8-2.6,2.6-4.8c0-0.8,0.1-1.6,0-2.4c-0.1-0.8,0.3-1.4,0.8-1.9c0.2-0.1,0.5-0.2,0.7-0.1
		c0.2,0,0.4,0.3,0.4,0.5c0.6,3,0.9,6,0.8,9c0,0.5-0.1,1.1-0.1,1.6c0.1,0.8,0.1,1.6,0.3,2.4c0.6,1.6,1.5,3,2.5,4.4
		c1.9,2.6,3.7,5.2,5.3,7.9c0.7,1.3,0.9,2.9,1.1,4.4c0.2,1.4,0,2.8,0,4.2c0,1.3,0.4,2.5,1.2,3.5s1.7,2,2.5,3c1.3,1.5,2.2,3.2,2.6,5.2
		c0.4,2.1,0.9,4.1,2.3,5.8c0.2,0.2,0.3,0.6,0.3,0.9c0,0.9-0.2,1.7-0.3,2.5c-0.2,0.9-0.4,1.9-0.6,2.9c-0.5,2.7-0.8,5.3-1.3,7.9
		c-0.4,2.5-1,5-1.6,7.5C104.2,95,103.7,97.7,102.2,99.9z M124.3,155.9c-3.1,1.5-5.4,4.1-8.3,5.9c-1.3,0.9-2.7,1.5-4,2.2
		c-0.2,0.1-0.6,0.1-0.8-0.1c-3.6-2.8-7.5-5.3-10.5-8.7c-0.7-0.7-1.3-1.4-1.9-2.1c-0.1-0.1-0.3-0.4-0.2-0.5c0.6-1.8,1.3-3.6,2-5.4
		c2.4,1.4,4.6,2.6,7,3.8c2.7,1.3,5.3,2.7,8.1,3.7c1.8,0.6,3.8,0.6,5.7,0.8c1,0.1,2,0.1,3,0.2C124.4,155.8,124.3,155.9,124.3,155.9z
		 M137.8,155.5c-0.4,0-0.8,0-1.3-0.1c-2.1-0.3-4.2-0.8-6.4-0.9c-3.4-0.1-6.7-0.6-10.1-1c-0.8-0.1-1.5-0.1-2.3-0.2
		c-2.5-0.4-4.9-1.2-7.2-2.4c-3.1-1.6-6.1-3.3-9.1-4.9c-0.2-0.1-0.4-0.2-0.5-0.3c-3.3-1.9-6.1-1-8.2,2c-1.3,1.9-2.7,3.9-4.1,5.8
		c-0.6,0.9-1.4,1.6-2.2,2.4s-1.7,1.5-2.6,2.4c-0.3-1.4,0.1-2.6,0.4-3.3c0.4-1.4,0.8-2.9,1.3-4.2s1.1-2.6,1.9-3.8
		c1.8-2.8,3.5-5.7,5.6-8.2c3.1-3.6,5.8-7.4,8.5-11.3c0.5-0.8,1.3-1.5,2-2.2c0.2-0.3,0.7-0.4,1-0.4c2,0,3.9-0.5,5.7-1.8
		c1.8,2.1,3.5,4.2,5.2,6.3c1,1.3,2.2,2.5,3.3,3.8c0.9,0.9,1.7,1.9,2.4,2.9c1.4,2.1,3.1,3.9,5.3,5.1c1,0.5,2.1,0.9,3.1,1.4
		c0.3,0.1,0.6,0.3,0.8,0.6C132.8,147.2,135.3,151.3,137.8,155.5z"/>
	<path class="st0" d="M73.1,94.2c3.3,0,6.6,0,9.9,0c0.9,0,1.8,0.4,2.7,0.5c0.7,0.1,1.5,0,2.3,0.1c0.4,0,0.9,0.2,1.1,0.4
		c0.1,0.3,0,0.9-0.3,1.1c-3,2.8-6.2,5.3-10.2,6.6c-3.4,1.1-6.7,1.7-10.3,1.2c-2.9-0.5-5.7-1.5-8.1-3.2c-1.6-1.1-3-2.6-4.5-3.9
		c-0.4-0.4-0.4-0.9,0.2-1c3.1-0.6,6-2.2,9.4-1.9c2.6,0.2,5.2,0,7.8,0C73.1,94.1,73.1,94.1,73.1,94.2z M85.6,97.5
		c-8.4,2.9-16.9,4.1-25.7,1.7c3.4,2.6,7.3,3.9,11.5,3.9C76.8,103.1,81.4,100.9,85.6,97.5z M82.7,97c-8,0-16,0-24.1,0
		C61.5,100,78.1,100.1,82.7,97z M61.3,95.7c0.7,0.1,1.5,0.3,2.2,0.3c3.6,0,7.3-0.1,10.9-0.1c2.9,0,5.8,0.1,8.7,0.1
		c0.4,0,0.7-0.1,1.3-0.2C83.2,95,62.8,94.8,61.3,95.7z"/>
	<path class="st0" d="M98.7,67c-0.4,0.4-0.9,1-1.5,1.3c-3.1,1.9-6.6,2.6-10.2,2.2c-1.9-0.2-3.8-0.6-5.8-0.9c-0.3,0-0.5-0.1-0.7-0.2
		c-0.7-0.3-0.8-0.7-0.2-1.3c1.8-1.9,3.9-3.4,6.3-4.6c3-1.5,5.8-0.9,8.5,1C96.1,65.5,97.3,66.2,98.7,67z M96.1,67.2
		c0-0.1,0.1-0.2,0.1-0.4c-1.2-0.6-2.4-1.2-3.5-1.7c-0.1,1.3-0.2,2.4-0.4,3.6C93.7,68.7,94.9,67.9,96.1,67.2z M85.4,65.7
		c-1,0.8-2.1,1.8-3.3,2.9c1.3,0.2,2.3,0.5,3.3,0.7C85.4,67.9,85.4,66.8,85.4,65.7z"/>
	<path class="st0" d="M54.4,71.3c-2.8-0.2-5.7-0.3-8.4-1.2c-0.4-0.1-1-0.6-1-1c-0.1-0.4,0.3-1,0.6-1.2c1.3-0.9,2.6-2,4-2.6
		c1.7-0.8,3.7-1.1,5.6-0.8c2.8,0.4,4.8,2.2,6.8,4.1c0.6,0.5,0.5,1.2-0.2,1.3C59.4,70.6,57,71.5,54.4,71.3z M49.9,66.8
		c-1,0.6-2,1.3-3.1,1.9c0,0,0.1,0.6,0.3,0.7c1.3,0.2,2.6,0.3,3.8,0.5C50.6,68.9,50.3,68,49.9,66.8z M56.9,70.1c1-0.2,2-0.4,2.9-0.6
		c0.2,0,0.3-0.6,0.2-0.9c-0.3-0.8-1.1-1-1.8-1.1c-0.2,0-0.5,0.3-0.6,0.5C57.4,68.7,57.2,69.4,56.9,70.1z M54.8,67.3
		c-0.5-0.3-0.8-0.7-1.1-0.7c-0.3,0-0.7,0.5-0.7,0.7c0,0.3,0.4,0.7,0.7,0.7C54,68.1,54.3,67.7,54.8,67.3z"/>
	<path class="st0" d="M91,56.1c1.6,0.3,3.2,0.5,4.8,0.9c0.6,0.1,1.1,0.5,1.5,0.9c0.4,0.3,0.8,0.7,0.3,1.3c-0.4,0.4-1.5,0.4-1.7-0.1
		c-0.4-1-1.3-1-2.1-1c-1.5,0-3,0.2-4.5,0.2c-2.2,0-4.1,0.9-6,1.9c-1.5,0.8-3,1.6-4.5,2.4c-0.3,0.2-0.6,0.3-1,0.3
		c-0.3,0-0.9-0.2-1-0.4c-0.1-0.3,0.1-0.9,0.3-1.1c1.5-1.1,3-2,4.5-3.1C84.5,56.6,87.7,56.4,91,56.1z"/>
	<path class="st0" d="M78.8,86.6c-1.9-0.2-3.2,0.2-4.4,1.2c-2.3,1.8-3.7,1.7-6,0c-0.5-0.3-0.9-0.6-1.4-1c-0.6-0.4-1.2-0.2-1.9,0.1
		c-1.4,0.7-2.6,0.4-3.6-0.7c-0.7-0.8-0.7-3,0.1-3.7c0.2-0.2,0.5-0.2,0.7-0.2c0,0.3,0.1,0.5,0,0.8c-0.4,0.8-0.6,1.7,0,2.5
		s1.5,0.8,2.4,0.4c1.7-0.8,3.1-0.3,4.3,1c1.2,1.3,2.8,1.4,4.2,0.4c0.6-0.4,1.1-0.9,1.6-1.2c0.3-0.2,0.7-0.4,1.1-0.4
		c0.8-0.1,1.6,0,2.4,0c1.7,0,2.5-1.3,1.8-2.8c0-0.1-0.2-0.2-0.1-0.3c0.1-0.3,0.2-0.5,0.3-0.8c0.2,0.1,0.6,0.2,0.7,0.4
		C82.6,84.5,80.6,86.9,78.8,86.6z"/>
</g>
</svg>
