<?xml version="1.0" encoding="utf-8"?>
<!-- Generator: Adobe Illustrator 19.2.1, SVG Export Plug-In . SVG Version: 6.00 Build 0)  -->
<svg version="1.1" id="Layer_1" xmlns="http://www.w3.org/2000/svg" xmlns:xlink="http://www.w3.org/1999/xlink" x="0px" y="0px"
	 viewBox="0 0 276.8 300" style="enable-background:new 0 0 276.8 300;" xml:space="preserve">
<style type="text/css">
	.st0{fill:#2196F3;stroke:#2196F3;stroke-miterlimit:10;}
</style>
<g id="pharm-lisa">
	<path class="st0" d="M226.6,181.7c-0.1,0.8-0.2,1.7-0.2,2.6c-0.2,2.5-0.5,4.9-0.6,7.4c-0.1,0.8,0.2,1.6,0.3,2.4
		c0.1,1.3,0.5,2.6,0.4,4c-0.1,1.6,0.5,3.2,0.8,4.8c0.6,2.5,1.1,5,1.9,7.4c0.4,1.4,1.1,2.6,1.6,4c0.6,1.7,1.3,3.3,1.8,5.1
		c0.4,1.6,0.5,3.4,0.9,5.1c0.6,3-0.3,5.9-0.9,8.8c-0.3,1.5-1.2,2.8-1.7,4.2c-1,2.9-2,5.9-2.8,8.9c-0.6,2.2-1,4.4-1.4,6.7
		c-0.2,1.4-0.3,2.9-0.4,4.4c-0.1,5.1-0.3,10.3-0.3,15.4c0,1.2,0.3,2.4,0.3,3.6c0,1,0,2.1-0.2,3.1c-0.7,3.4-0.6,6.8-0.9,10.2
		c-0.2,1.9-0.7,3.8-1.1,5.7c-0.2,1.2-0.6,2.3-0.8,3.5c-0.1,0.8-0.5,1.2-1.3,1c-0.2,0-0.4,0-0.7,0c0.3-1.1,0.6-2.2,0.8-3.3
		c0.5-3.1,0.9-6.1,1.3-9.2c0.3-2.7,0.6-5.4,0.8-8c0.1-1,0-2.1,0-3.1c0-3.9,0-7.8,0-11.7c0-2.4,0-4.8,0.2-7.2c0.3-5,1.1-9.9,2.6-14.6
		c1-3,2.2-5.9,3.2-8.9c1.1-3.1,1.8-6.2,1.4-9.5c-0.2-1.7-0.2-3.3-0.8-4.9c-1-2.6-2.2-5.1-3-7.7c-0.9-3-1.6-6-2.2-9
		c-0.3-1.4-0.4-2.7-0.7-4.4c-0.1,0.6-0.3,1.1-0.3,1.5c0.1,2-1,3.7-1.6,5.4c-1.3,3.6-2.6,7.2-3.9,10.8c-1.1,2.9-2.3,5.8-3.5,8.7
		c-0.6,1.6-1.1,3.2-1.8,4.7c-1.4,2.6-2.9,5-4.4,7.5c-1.2,2-2.5,4.1-3.9,6c-2.1,2.8-4.5,5.5-6.7,8.2c-1.3,1.7-2.5,3.5-3.9,5.2
		c-0.7,0.8-1.6,1.3-2.4,1.9c-2.5,2.1-5.5,3.3-8.3,4.8c-3.7,2-7.6,3.3-11.6,4.3c-1,0.2-2,0.4-2.9,0.4c-3,0-6,0-9-0.1
		c-1.8-0.1-3.7-0.3-5.5-0.3c-2.9,0-5.5-0.8-8.2-1.8c-3.7-1.3-7.4-2.7-11.1-4.2c-1.9-0.7-3.7-1.7-5.5-2.6c-0.5-0.2-1-0.5-1.5,0
		c-0.4,0.5,0,0.9,0.3,1.4c1.4,1.7,2.1,3.6,2.7,5.7c1.2,4,2.4,8.1,3.7,12c0.8,2.3,2.4,4.2,3.9,6.1c2.2,2.8,4.1,5.8,4.6,9.5
		c0.2,1.6,0.1,3.3,0.1,4.9c0,0.5-0.5,0.9-0.8,1.4c-0.1,0-0.2,0-0.3-0.1c-0.1-0.4-0.2-0.8-0.3-1.2c-0.8-4.1-2.9-7.7-5-11.2
		c-1.2-2-2.2-4-3.2-6.1c-0.7-1.7-1.1-3.6-1.8-5.3c-0.7-2-1.5-3.9-2.3-5.9c-0.2-0.6-0.4-1.2-0.6-1.7c-0.6-1.5-1.3-3-1.8-4.6
		c-0.8-2.5-2.6-4.1-4.4-5.7c-0.2-0.2-0.6-0.3-0.9-0.4c-0.5-0.3-1-0.6-1.4-1.1c-0.7-1-1.6-1.5-2.8-1.5c-0.6,0-1.2-0.1-1.8,0
		c-1.5,0.2-2.3,1.4-3.2,2.4c-2.2,2.5-4.2,5.2-6.7,7.4c-1,0.9-1.8,1.9-2.7,2.8c-2.2,2.1-4.5,4-6.8,6.1c-1.3,1.2-2.5,2.5-3.7,3.8
		c-1.4,1.5-2.8,3.1-4.1,4.7c-0.5,0.7-0.9,1.5-1.2,2.3c-0.9,2.1-2.4,3.8-3.7,5.5c-0.7,1-1.3,2.1-2,3.1c-1,1.5-2.1,2.9-3.1,4.4
		c-0.4,0.6-0.8,1.4-1.2,2c-0.2,0.2-0.6,0.3-0.9,0.5c-0.1,0.1-0.3,0-0.4,0c-24.7,0-49.4,0-74,0c-0.3,0-0.6,0-1.1,0
		c0.6-1.2,1.3-2.3,1.8-3.5c0.9-1.8,1.7-3.7,2.5-5.5c0.5-1.1,1.1-2.2,1.6-3.3c0.7-1.7,1.4-3.4,2-5.2c0.4-1.2,0.6-2.5,0.9-3.7
		c0.3-1.1,0.7-2.1,1-3.1c0.7-2.3,1.6-4.5,2.2-6.8c0.4-1.3,0.3-2.8,0.6-4.2c0.3-1.8,0.8-3.5,1.1-5.3c0.1-0.7,0.1-1.5,0.1-2.3
		c0-0.2,0-0.5,0.1-0.7c1.2-1.8,1.8-3.9,2.3-6c0.3-1.2,0.5-2.4,0.6-3.6c0.1-2.9,0-5.8,0-8.7c0.1-2.2-0.3-4.3-0.8-6.5
		c-0.5-1.9-1-3.8-1.4-5.8c-0.4-1.9-0.5-3.9-0.8-5.9c-0.3-2.3-0.7-4.6-0.9-6.9c-0.2-1.5-0.2-3.1-0.3-4.6c-0.1-1.5-0.2-2.9-0.3-4.4
		c0-0.6,0-1.3,0-1.9c-0.2-2.1-0.4-4.3-0.5-6.4c0-0.8,0.1-1.6,0.1-2.4c0-0.8,0.1-1.6,0-2.3c-0.1-1.2-0.2-2.5-0.3-3.7
		c-0.3-2.5-0.6-5-1-7.6c-0.3-2-0.6-3.9-0.9-5.9c-0.4-2.6-0.6-5.2-1.2-7.7c-0.8-3.8-1.8-7.5-2.8-11.2c-0.3-1.1-0.8-2.1-1.2-3.1
		c-0.6-1.6-1.2-3.3-1.8-4.9c-0.6-1.5-1.3-3-1.8-4.6c-0.9-2.7-1.6-5.4-2.4-8.1c-0.6-2-0.7-4-0.7-6c0-2.3,0-4.6,0-6.9
		c0-2.1,0.1-4.1,0.2-6.2c0.1-2.5,0.2-4.9,0.3-7.4c0.1-1.6,0.1-3.1,0.2-4.7c0.1-1.7,0.4-3.4,0.6-5.1c0.6-4.1,1.9-7.9,3.2-11.8
		c0.7-2.2,1.6-4.4,2.7-6.5c0.7-1.4,1.8-2.5,2.7-3.8c0.2-0.3,0.5-0.5,0.7-0.9c1.8-3.1,4.1-5.6,6.3-8.4c0.6-0.8,1.1-1.7,1.7-2.5
		c1-1.4,2.2-2.6,3-4.1c1.2-2.2,3.1-3.9,4.5-5.9c1.7-2.4,3.4-4.9,4.9-7.5c1.2-2.1,2.6-3.9,4.1-5.8c1.4-1.8,2.8-3.7,4.2-5.5
		c1.4-1.7,2.8-3.4,4.2-5.1c1.1-1.4,2.2-2.7,3.4-4.1c0.6-0.7,1.3-1.3,2-2c0.9-1,1.7-2.1,2.6-3.1c2.4-2.6,5.2-4.8,8.3-6.6
		c1.4-0.8,2.3-1.9,2.9-3.3c1.1-2.1,3.1-3.3,5.1-4.3c1-0.5,2-1,3-1.3c1.8-0.6,3.7-1.1,5.6-1.6c2-0.5,3.9-1,5.9-1.5
		C83.4,2.1,84.7,2,86,1.9c1.8-0.2,3.5-0.5,5.3-0.7c0.7-0.1,1.4-0.1,2-0.2c2.2-0.3,4.3-0.6,6.5-0.9c0.3,0,0.7-0.1,1-0.1
		c7.7,0,15.4,0,23.1,0c3.1,0,6.1,0.4,9,1.5c2.3,0.9,4.8,1.4,7.2,1.9c2.8,0.6,5.8,0.8,8.5,1.6c2.9,0.8,5.9,1.5,8.5,3.2
		c1.6,1.1,3.3,2.1,4.8,3.3c1.4,1.1,2.7,2.4,4.1,3.6c0.1,0.1,0.2,0.2,0.4,0.3c1.5,0.8,3.1,1.5,4.6,2.2c1.6,0.7,3.1,1.4,4.7,2.1
		c2.8,1.2,5.6,2.4,8.4,3.5c1.9,0.8,3.9,1.3,6,1.8c4.3,1.1,8.1,3.1,10.5,7.1c0.8,1.3,1.9,2.4,2.9,3.6c1.4,1.7,3,3.3,4.4,4.9
		c0.5,0.6,0.8,1.4,1.1,2.1c0.5,1,0.9,2.1,1.4,3.2c0.5,1.1,0.8,2.3,1.3,3.4c1.3,3,2.1,6.2,4.4,8.6c1.3,1.4,2.5,3.1,3.8,4.6
		c2,2.3,3.8,4.7,6.4,6.4c1.2,0.8,2.4,1.8,3.3,2.8c2.6,2.8,4.7,6,6,9.7c0.5,1.3,0.9,2.7,1.8,3.7c1.5,1.7,3.4,2.9,5.6,3.6
		c0.9,0.3,1.7,1.1,2.6,1.6c1.9,1.2,2.9,3.1,4.1,4.9c1.7,2.6,2.8,5.5,4.1,8.2c0.8,1.6,1.2,3.4,1.9,5.1c1,2.4,2.2,4.8,3.3,7.2
		c0.5,1.2,0.9,2.5,1.4,3.7c1.4,3.2,2.7,6.4,4.1,9.5c0.3,0.6,0.8,1,1.2,1.6c1.7,2.1,3.4,4.2,5.1,6.2c1,1.2,2.2,2.3,3.3,3.5
		c0.2,0.2,0.4,0.4,0.5,0.5c1.4,1.3,1.9,2.8,1.9,4.8c-0.1,18.4,0,36.8,0,55.2c0,1.3-0.4,1.6-1.7,1.3c-3.9-1.1-7.7-2.1-11.5-3.2
		c-3.5-1.1-6.9-2.4-10.4-3.5c-2.6-0.9-5.3-1.6-8-2.3c-2.4-0.6-4.5-1.6-6.6-2.8c-1.7-1-3.4-2.1-5-3.2c-1.1-0.8-2.1-1.7-3.2-2.5
		C229.1,183.7,227.9,182.7,226.6,181.7z M63.3,149.1c2.7-3.4,6.1-5.9,8.4-9.5c1.7-2.5,4.3-4.4,7-5.9c2.8-1.5,5.8-2.8,8.8-3.9
		c2.7-1,5.5-1.6,8.4-2.2c1.9-0.4,3.9-0.3,5.8,0.4c1,0.4,2.1,0.7,3.2,0.9c1,0.2,1.5,0.7,1.9,1.5c0.4,1-0.2,2.2-1.2,2.3
		c-1.8,0.1-3.6,0.2-5.5,0.4c-1.3,0.1-2.6,0.1-3.9,0.3c-2.3,0.4-4.5,0.9-6.7,1.6c-2.2,0.7-4.3,1.6-6.4,2.6c-3.5,1.5-7.2,2.9-9.9,5.8
		c-2.4,2.5-4.8,4.9-7.2,7.4c-0.5,0.5-1,1.1-1.6,1.4c-0.4,0.2-0.5,0.4-0.5,0.9c0,2.5-0.1,5-0.2,7.4c0,0.7-0.2,1.4-0.2,2
		c-0.2,2.2-0.8,4.4,0.2,6.6c0.2,0.4,0.2,0.9,0.4,1.4c1.1,3.8,2.1,7.7,3.3,11.5c0.6,1.8,1.4,3.5,2.2,5.1c1.4,2.5,2.9,5,4.3,7.5
		c0.9,1.6,1.8,3.3,2.7,5c1.4,2.4,2.9,4.8,4.2,7.3c0.9,1.6,1.7,3.3,3,4.7c2.3,2.4,3.9,5.1,5.3,8c1.8,3.6,4.3,6.8,6.9,9.8
		c1,1.2,2.1,2.4,3.1,3.6c1.7,2.1,3.3,4.4,5.2,6.3c2,2,4.3,3.8,6.6,5.5c1.4,1.1,3.1,1.9,4.4,3.1c1.4,1.2,3,2.1,4.8,2.8
		c1.7,0.7,3.4,1.6,5,2.4c1.7,0.9,3.3,2.1,5.1,3c2,1,4.1,1.8,6,2.9c3.6,2,7.3,3.7,11.3,4.9c2.1,0.7,4.3,1.1,6.5,1.6
		c1,0.2,2.1,0.1,3.1,0.2c3,0.2,6.1,0.4,9.1,0.5c1.6,0.1,3.3,0.1,4.9-0.2c2.6-0.6,5.2-1.3,7.7-2.2c3-1.2,5.8-2.7,8.7-4.1
		c1.2-0.6,2.3-1.3,3.3-2.1c1-0.8,2.3-1.2,2.8-2.7c0.4-1.1,1.6-1.9,2.4-2.8c0.9-1,1.8-1.9,2.6-2.9c1.1-1.3,2.1-2.7,3.2-4.1
		c1-1.3,2.1-2.4,3.1-3.7c1.2-1.7,2.3-3.6,3.4-5.4c1.4-2.2,2.8-4.4,4-6.8c0.8-1.6,1.3-3.3,2-4.9c1.4-3.6,2.8-7.3,4.2-10.9
		c1.1-2.8,2.1-5.7,3.3-8.5c0.8-2.1,1.7-4.1,1.8-6.4c0.1-1.6,0.3-3.3,0.5-4.9c0.3-2.1,0.6-4.2,0.8-6.4c0.1-1.2,0.2-2.5,0.3-3.7
		c0.2-1.4,0.5-2.7,0.5-4.1c0-1.7-0.2-3.3-0.4-5c-0.1-0.7-0.1-1.5-0.3-2.2c-0.9-2.9-1.9-5.7-3-8.5c-0.4-1.1-1.2-2-1.6-3.1
		c-0.9-2.1-1.7-4.2-2.6-6.3c-1.8-4.4-3.5-8.9-5.3-13.3c-1.1-2.8-1.7-5.8-2-8.8c-0.1-1.1-0.1-2.2-0.2-3.3c-0.2-2.5-0.4-5.1-0.7-7.6
		c-0.2-2-0.3-4.1-0.7-6c-0.4-1.8-0.5-3.6-1.9-5.1c-0.5-0.5-0.7-1.1-1.2-1.6c-1.4-1.7-2.8-3.5-4.2-5.2c-1.3-1.6-2.4-3.3-3.8-4.6
		c-1.6-1.4-3.5-2.5-5.3-3.6c-3.4-1.9-6.7-3.8-9.1-7.1c-1.9-2.6-3.9-5.1-5.7-7.8c-2.1-3.3-4-6.9-6-10.3c-1.6-2.6-3.4-5.2-4.5-8.1
		c-0.1-0.3-0.4-0.6-0.7-0.9c-1.2-1.4-2.4-2.8-3.5-4.3c-2.2-2.9-4.7-5.5-7.7-7.7c-0.9-0.7-1.9-1.3-2.4-2.4c-0.4-0.8-1.1-1.4-1.8-2
		c-1.1-1-2.2-1.9-3.3-2.8c-2.1-1.9-4.4-3-7.2-3c-4.2,0.1-8.5,0.2-12.7,0.3c-0.6,0-1.3,0.1-1.9,0.2c-2,0.5-4,1-6,1.5
		c-2.8,0.6-5.6,1.1-8.3,1.9c-3.5,1-7,2.3-10.4,3.5c-2.8,0.9-5.5,2-7.9,3.7c-1.5,1.1-3.1,2.1-4.2,3.6c-0.9,1.2-1.8,2.4-2.8,3.5
		c-1.3,1.3-2.8,2.5-4.3,3.6c-2.1,1.7-4.2,3.4-6.8,4.6c-2.3,1-4.2,2.6-5.8,4.5c-1.5,1.8-3.1,3.4-4.9,4.8c-2,1.5-4,2.9-5.1,5.3
		c-1.6,3.2-3.3,6.3-4.8,9.5c-1.5,3.2-2,6.6-2,10.1c0,3.1,0.1,6.2,0.7,9.2c0.4,2.1,0.6,4.2,1,6.3c0.5,3,1.2,5.9,1.8,8.9
		c0.3,1.4,0.3,2.9,0.7,4.3c1.1,4.2,2.4,8.5,3.6,12.7c0.6,2.1,1.3,4.1,2.5,5.9C63,147.3,63.1,148.2,63.3,149.1z M222.4,161.2
		c0.7-0.4,1.2-0.7,1.8-1c2-1,3.4-2.4,4.3-4.5c0.6-1.3,0.7-2.7,1.2-4.1c0.5-1.6,0.7-3.3,0.6-5c-0.1-2.6-0.1-5.1-0.2-7.7
		c-0.1-1.5-0.1-3.1-0.4-4.6c-0.5-2.5-1-5-1.7-7.4c-0.6-2.3-1.6-4.4-2.1-6.7c-0.8-3.8-2.3-7.3-3.9-10.7c-1-2.2-2-4.5-2.8-6.8
		c-0.9-2.3-2.7-3.4-5.2-2.7c-0.7,0.2-1.5,0.4-1.8,0.8c-0.6,0.7-1,1.6-1.2,2.5c-0.3,1.8-0.4,3.7-0.6,5.6c-0.1,0.8,0,1.6-0.6,2.2
		c-0.1,0.2-0.1,0.6,0,0.9c0.3,1.3,0.7,2.7,0.9,4c0.3,2.5,0.5,5.1,0.7,7.6c0.3,3.5,0.5,7.1,0.9,10.6c0.3,2.1,1,4.1,1.5,6.1
		c0,0.2,0.2,0.5,0.4,0.5c0.8,0.1,1.6,0.2,2.4,0.2c0.6,0,1.1-0.4,0.9-1.2c-0.1-0.7-0.3-1.3-0.4-2c-0.2-1.3-0.1-2.5,0.6-3.6
		c0.6-1,1.2-2,2.6-2c0.2,0,0.7-0.6,0.6-0.8c-0.3-0.8-0.7-1.6-1.1-2.4c-0.5-1.1-1.4-1.9-2.5-2.5c-0.4-0.2-0.7-0.6-0.4-1.1
		c0.3-0.5,0.7-0.4,1.2-0.2c1,0.5,2,1.1,2.5,2.2c0.3,0.7,0.8,1.3,1.2,1.9c0.7-2.1,0.8-4.3,0.5-6.4c-0.2-2.1-0.7-4.2-1.8-6.2
		c-1.6-2.9-2.9-5.8-4.3-8.8c-0.2-0.5-0.6-0.5-0.8-0.1c-0.4,0.7-0.9,1.4-1,2.1c-0.4,1.6-0.8,3.2-1.8,4.6c-0.2,0.2-0.6,0.4-0.7,0.4
		c-0.2-0.1-0.4-0.5-0.4-0.7c0-0.3,0.1-0.5,0.2-0.8c0.3-0.8,0.6-1.5,0.8-2.3c0.4-1.1,0.6-2.2,1-3.2c0.4-1,1.1-1.8,2.3-1.8
		c1.1-0.1,1.6,0.7,2,1.4c1.3,2.5,2.5,5.2,3.9,7.7c1.7,3.1,2.4,6.4,2.4,9.8c0,1.8-0.4,3.6-0.8,5.3c-0.4,1.7-1.1,3.4-3.3,3.6
		c-0.1,0-0.2,0.1-0.3,0.2c-0.9,0.9-1.3,1.8-1.1,3.1c0.2,1.1,0.3,2.2,0.3,3.3c0,0.4-0.4,1-0.7,1.3c-1.1,0.9-2.4,1-3.7,0.8
		c0.7,1.8,1.3,3.5,2,5.2c1.3,3.4,2.6,6.8,4,10.1C221.2,159.1,221.9,160.2,222.4,161.2z"/>
	<path class="st0" d="M194.1,183.7c0.1,1,0.3,2,0.3,2.9c-0.1,2.6-0.9,5-1.6,7.5c-1.1,4-3.1,7.5-5,11c-1.3,2.5-3.2,4.6-4.8,6.9
		c-0.8,1.1-1.5,2.2-2.3,3.4c-2.2,3.2-4.9,5.7-8.4,7.6c-3.1,1.7-6.3,3-9.7,3.9c-3.8,1-7.6,2.1-11.4,3c-0.9,0.2-1.9,0.1-2.9,0.1
		c-2.4-0.1-4.8,0.1-7-0.4c-4.4-1.1-8.7-2.8-12.6-5.3c-1.6-1-3-2.3-4.6-3.4c-1-0.7-2.1-1.3-3.2-2c-0.9-0.6-1.1-1.5-0.3-2.3
		c0.6-0.6,1.3-1.1,1.9-1.8c1.5-1.9,2.8-3.8,4.7-5.2c1.3-0.9,2.6-1.9,3.9-2.7c3-1.8,6-3.6,9-5.4c1.2-0.7,2.5-0.7,3.8-0.7
		c2.7,0.1,4.9-1.1,7.1-2.5c1.4-0.9,2.8-1.7,4.2-2.5c2.2-1.2,4.3-2.3,6.6-3.3c3.8-1.8,7.9-3,12-3.9c2.9-0.7,5.7-1.4,8.6-2.1
		c1.8-0.4,3.6-0.5,5.4-0.9C189.8,185.1,191.8,184.3,194.1,183.7z M185,189.8c-1.3,0.6-2.5,1.1-3.5,1.7c-2.2,1.3-4.4,2.6-6.6,3.9
		c-2.2,1.3-4.5,2.5-6.7,3.9c-3.9,2.6-7.9,4.8-12.2,6.5c-3.9,1.5-8,2.9-12,4.3c-2.7,0.9-5.5,1.8-8.2,2.7c-1.3,0.4-2.6,0.7-4,1
		c0.8,2.3,1.6,4.6,2.4,6.9c0.2,0.5,0.4,0.8,1,0.8c0.6,0,1.1,0.1,1.7,0.2c2.8,0.3,5.5,1.1,8.4,0.5c1.9-0.4,4-0.5,5.9-1.1
		c2.5-0.7,5-1.7,7.4-2.8c2.8-1.3,5.5-2.7,8.1-4.4c2.7-1.7,5.3-3.5,8.1-5c2.3-1.3,4.4-2.9,6.1-4.9c2.3-2.6,4.4-5.4,6.6-8.1
		c0.2-0.3,0.4-0.8,0.2-1.1C186.8,193.1,185.9,191.5,185,189.8z M193.3,188.3c-0.1,0-0.2,0-0.2,0c-0.3,0.7-0.7,1.4-1,2.2
		c-0.9,2.3-2,4.4-3.8,6.1c-1.5,1.6-2.8,3.4-4.3,5c-1.6,1.8-3.1,3.8-4.9,5.4c-1.5,1.3-3.3,2.3-5,3.4c-1.5,0.9-3,1.8-4.5,2.7
		c-2.5,1.6-5,3.3-7.6,4.7c-1.9,1.1-4,1.8-6.1,2.6c-1.6,0.6-3.2,1.2-4.8,1.6c-1.8,0.4-3.7,0.7-5.5,1c-0.9,0.1-1.8,0.4-2.7,0.3
		c-2-0.1-4.1-0.4-6.1-0.6c-1.6-0.2-3.2-0.4-4.8-0.5c-1.2-0.1-2.3-0.2-3.5-0.2c-0.1,0.1-0.1,0.2-0.2,0.3c0.4,0.3,0.8,0.8,1.2,1
		c1.8,1,3.6,2,5.5,2.9c1.7,0.8,3.4,1.4,5.2,2c2.2,0.8,4.6,0.8,6.9,0.7c1.3,0,2.6,0.2,3.8-0.1c3.8-0.9,7.5-1.9,11.3-2.9
		c3.4-0.9,6.6-2.2,9.6-3.9c3.1-1.7,5.6-4,7.7-6.8c1.5-2,3-4.1,4.5-6.2c1.2-1.7,2.3-3.4,3.3-5.2c0.7-1.2,1.2-2.6,1.9-3.8
		c0.9-1.7,1.8-3.4,2.2-5.3c0.3-1.5,1-3,1.4-4.5C193.1,189.6,193.1,188.9,193.3,188.3z M124.1,214.9c1.1-0.5,2.2-1.1,3.4-1.5
		c2.3-0.7,4.8-1.1,7.1-1.8c3.2-0.9,6.3-1.9,9.5-2.9c0.9-0.3,1.9-0.7,2.8-1c4.5-1.6,9.1-2.8,13.3-5c3.1-1.6,6-3.5,9-5.3
		c1.5-0.9,3.1-1.8,4.7-2.7c1.4-0.8,2.7-1.5,4.1-2.3c1.7-1,3.4-1.9,5-2.9c0.6-0.4,1.4-0.6,1.9-1c0.4-0.4,0.7-1,1.1-1.6
		c-1.2,0.2-2.4,0.3-3.6,0.5c-2.9,0.7-5.9,1.4-8.8,2.1c-3.8,0.9-7.5,2-11,3.6c-2.6,1.2-5.3,2.5-7.8,3.9c-1.6,0.9-3.2,2-4.8,3
		c-1.6,1-3.3,1.6-5.1,1.6c-2.1,0-3.9,0.4-5.8,1.5c-4.1,2.6-8.5,4.8-12.2,8C125.7,212.3,124.8,213.5,124.1,214.9z"/>
	<path class="st0" d="M112.3,146.7c-1.6-0.2-3.1-0.5-4.7-0.7c-0.7-0.1-1.3-0.2-2-0.2c-0.7,0-1.4-0.1-2,0c-1,0.1-2.1,0.4-3.1,0.4
		c-2.2,0-4.3,0.4-6.3,0.9c-1.6,0.4-3.1,0.8-4.6,1.2c-0.4,0.1-0.9,0.4-1.3,0.7c-0.4,0.2-0.8,0.6-1.2,0.1c-0.4-0.5-0.1-1,0.3-1.2
		c0.8-0.4,1.7-0.8,2.6-1.1c2.4-0.7,4.8-1.4,7.2-1.9c1.5-0.3,3.2-0.3,4.8-0.5c4.4-0.4,8.7,0.4,12.9,1.8c1,0.4,2,0.9,3,1.5
		c0.7,0.4,0.7,0.9,0,1.4c-1.8,1.1-3.6,2.4-5.5,3.3c-2.3,1.1-4.6,2.3-6.7,3.8c-1.5,1.1-3.3,2-5,2.8c-2.2,1.1-4.4,2.2-6.7,3.2
		c-4.1,1.7-8.2,3.2-12.6,4.2c-1,0.2-2,0.4-3,0.4c-0.9,0-1.2-0.5-0.7-1.2c1.8-3,3.1-6.3,5.5-8.8c0.8-0.8,1.7-1.5,2.6-2.1
		c1.8-1.2,3.5-2.5,5.3-3.6c2.7-1.5,5.5-2.6,8.6-3.3c2.3-0.5,4.5-0.8,6.8-0.7c1.6,0.1,3.3,0.2,4.9,0.3c0.3,0,0.5,0,0.8-0.1
		C112.2,147,112.3,146.9,112.3,146.7z M93.7,160.7c0-0.1,0-0.2,0-0.2c-2.6-1-4-3-4.5-5.7c-0.1-0.6-0.4-0.8-1-0.4
		c-1.2,0.9-2.6,1.6-3.6,2.7c-1.5,1.6-3,3.2-3.9,5.2c-0.2,0.5-0.6,0.9-0.8,1.4c-0.1,0.3-0.2,0.8-0.1,1c0.2,0.2,0.7,0.3,1,0.2
		c2.9-0.8,5.7-1.6,8.6-2.5C90.9,161.9,92.3,161.3,93.7,160.7z M103.7,155.8c0.8-0.6,1.5-1.2,2.3-1.7c2.2-1.5,4.5-2.8,7.1-3.7
		c0.3-0.1,0.6-0.4,0.9-0.6c-0.3-0.3-0.7-0.5-1-0.8c-0.1-0.1-0.3,0-0.5,0c-0.9,0-1.8,0.1-2.7,0c-1.6-0.1-3.1-0.3-4.7-0.5
		c-0.7-0.1-1.3,0-2.1,0.1C103.9,151.4,104.1,153,103.7,155.8z M96.3,155.1c1.2,0,1.7-0.5,1.7-1.7c0-1.1-0.4-1.5-1.5-1.5
		c-0.9,0-1.8,0.9-1.8,1.9C94.7,154.8,95.1,155.1,96.3,155.1z"/>
	<path class="st0" d="M179.5,118.2c-1,0.9-2,1.8-3.1,2.6c-2.6,1.9-5.2,3.7-7.9,5.4c-1.9,1.3-4.1,2-6.3,2.4
		c-3.8,0.8-7.3,2.3-10.8,3.7c-1.6,0.7-3.1,1.2-4.4,2.4c-0.3,0.3-0.6,0.5-0.9,0.7c-0.2,0.1-0.5,0.2-0.7,0.3c-0.1-0.3-0.4-0.7-0.4-1
		c0.6-2.4,1.2-4.7,1.9-7.1c0.6-2,1.8-3.6,3.1-5.1c1.5-1.8,3.1-3.5,5-4.8c2-1.3,4.2-2.1,6.5-2.6c1-0.2,1.9-0.5,2.9-0.7
		c0.6-0.1,1.2-0.1,1.8-0.2c0.1,0.1,0.1,0.2,0.2,0.3c-0.3,0.2-0.5,0.5-0.8,0.6c-2,0.6-4.1,1.2-6.1,1.8c-2.7,0.8-4.8,2.5-6.8,4.4
		c-3.1,2.9-5,6.5-5.8,10.6c-0.1,0.3,0,0.6,0.2,1c1.1-1.9,2.3-3.7,3.4-5.6c1.3-2.3,2.9-4.4,5-6c2.7-2.1,5.5-3.9,9-4.4
		c2.5-0.4,5-0.7,7.5,0c1.7,0.4,3.6,0.4,5.4,0.6c0.7,0.1,1.4,0.2,2.1,0.3C179.4,118,179.5,118.1,179.5,118.2z M168.7,125.1
		c2.9-2.1,5.7-4.1,8.6-6.2c0-0.1-0.1-0.2-0.1-0.3c-3.4,0-6.7-1.1-10.1-0.8c1,1,2.2,1.7,2.2,3.2C169.1,122.4,168.9,123.7,168.7,125.1
		z M149.3,132.1c0.2-0.1,0.6-0.3,1-0.5c2.3-0.9,4.7-1.7,7-2.6c0.2-0.1,0.4-0.3,0.6-0.4c-0.2-0.2-0.3-0.3-0.5-0.5
		c-1.5-1-2.9-2.1-2.7-4.3c-0.7,0.7-1.3,1.4-1.8,2.2C151.7,128.1,150.4,130.1,149.3,132.1z M159.6,123.3c0,0.8,0.4,1.3,1.1,1.3
		c0.8,0,1.3-0.6,1.3-1.6c0-0.9-0.5-1-1.1-1C159.9,122,159.6,122.4,159.6,123.3z"/>
	<path class="st0" d="M133.5,114.1c-0.1-1.1,0.8-1.5,1.4-2.1c1.6-1.5,3.2-2.9,4.9-4.3c1.7-1.3,3.5-2.4,5.2-3.5
		c2.4-1.6,4.8-3,7.1-4.7c2.9-2.1,6.2-3,9.5-3.9c2.1-0.5,4.3-1,6.4-1.3c1.6-0.3,3.3-0.4,5-0.6c0.9-0.1,1.5,0.6,1.5,1.4
		c0,0.8-0.5,1.3-1.5,1.4c-0.4,0-0.8,0.1-1.3,0.1c-3.7,0.5-7.3,1.2-10.7,2.6c-2.5,1-4.7,2.6-6.6,4.5c-1.3,1.3-2.8,2.2-4.2,3.3
		c-1.4,1.1-2.9,2.1-4.3,3.1c-2,1.4-4,2.6-5.9,4c-0.4,0.3-0.8,0.6-1.1,0.9c-1.3,1.2-2.8,1.5-4.4,1.1c-0.3-0.1-0.6-0.4-0.7-0.7
		C133.5,115,133.5,114.5,133.5,114.1z"/>
	<path class="st0" d="M122.3,183.8c0-0.5,0-1,0-1.5c0-1.1,0.1-2.1,0.6-3c0.5-1,0.9-2.2,1.4-3.3c0.1-0.2,0.5-0.3,0.8-0.4
		c0,0.3,0.2,0.7,0.1,0.9c-0.5,1.4-1.2,2.7-1.7,4.1c-0.2,0.5-0.2,1.1-0.2,1.6c0,1.4,0,2.9,0.1,4.3c0.1,1.4,1.4,2.6,2.8,2.8
		c2.1,0.2,4.1-0.5,6-1.1c2.2-0.7,4.5-1.1,6.8-0.6c1,0.2,1.9,0.8,2.7,1.4c1.3,0.9,4.9,0.9,5.8-0.1c1.1-1.2,2.1-2.4,2.5-4
		c0.4-2.3,1.9-3.8,3.5-5.2c1.2-1.1,2.5-2,3.8-3c0.3-0.2,0.7-0.4,1-0.6c1.2-0.7,2.5-1.4,3.7-2.2c1.3-1,2.2-2.3,2.1-4.1
		c0-1.6-0.1-3.2-1.3-4.4c-1.1-1.1-2.1-2.4-3.7-2.7c-0.4-0.1-0.8-0.3-1.1-0.5c-0.2-0.1-0.2-0.4-0.3-0.7c0.2-0.1,0.5-0.3,0.7-0.2
		c2.9,0.9,5.2,2.7,6.4,5.5c0.5,1,0.2,2.4,0.3,3.6c0.1,1.2-0.4,2.1-1.1,2.9c-0.7,0.8-1.5,1.6-2.5,2.2c-1.5,1.1-3.2,1.9-4.6,3
		c-1.7,1.2-3.2,2.6-4.7,4.1c-0.6,0.6-0.9,1.5-1.2,2.4c-0.6,1.6-1.1,3.1-2.4,4.4c-1,1-2.2,1.5-3.6,1.6c-2.1,0.2-3.7-0.9-5.5-1.8
		c-0.5-0.3-1.2-0.4-1.8-0.4c-2.5-0.2-4.8,0.7-7.1,1.5c-0.8,0.3-1.8,0.3-2.7,0.4c-0.9,0-1.8-0.1-2.6-0.2c-1.3-0.1-2-1.1-2.5-2.2
		c-0.3-0.6-0.4-1.2-0.5-1.8C122.2,185.4,122.3,184.6,122.3,183.8z"/>
	<path class="st0" d="M225.4,150.2c-0.5,0-0.8,0-1-0.1c-1.7-0.4-2.5-2.4-1.6-4.1c0.9-1.7,2.1-2.3,3.9-1.8c0.9,0.2,1.3,0.8,1.5,1.8
		c0.2,1.6-0.4,3.4-1.7,4C226,150.1,225.6,150.1,225.4,150.2z"/>
</g>
</svg>
