<?xml version="1.0" encoding="utf-8"?>
<!-- Generator: Adobe Illustrator 19.2.1, SVG Export Plug-In . SVG Version: 6.00 Build 0)  -->
<svg version="1.1" id="Layer_1" xmlns="http://www.w3.org/2000/svg" xmlns:xlink="http://www.w3.org/1999/xlink" x="0px" y="0px"
	 viewBox="0 0 149.4 177.6" style="enable-background:new 0 0 149.4 177.6;" xml:space="preserve">
<style type="text/css">
	.st0{fill:#00BCD4;}
</style>
<g id="pharm-amanda-cyan">
	<path class="st0" d="M145.2,145.5c1.4,0.3,2.8,0.6,4.1,0.9c0-0.5,0-1,0-1.6c-2.1-0.5-4-1.2-6-1.5c-4.7-0.7-9.4-1.6-14-2.9
		c-0.7-0.2-1.5-0.4-2.1-0.8c-1.4-1-2.9-2-4.2-3.1c-1.6-1.2-2.2-2.6-1.4-4.7c0.6-1.5,1.1-3.1,1.5-4.6c0.8-3.2,1.4-6.6,2.4-9.8
		c1.3-4.2,1.9-8.6,2.4-13c0.3-3.1,0.5-6.1,0.7-9.1c0.1-1.7,0.3-3.4,0.3-5.1c-0.1-5.3-0.2-10.6-0.4-15.9c-0.1-1.6-0.6-3.3-1-4.9
		c-0.5-1.7-1.2-3.4-1.7-5.1c-0.7-2.3-1.1-4.7-1.7-7c-1-3.8-1.8-7.5-3-11.2c-1-3-2.5-5.9-3.8-8.8c-0.4-1-1-2-1.4-3
		c-0.3-0.7-0.3-1.6-0.7-2.2c-1.8-3-3.6-5.9-5.4-8.9c-0.3-0.5-0.5-0.9-0.8-1.4c-0.6-1-1-2-1.7-2.8c-1.3-1.5-2.7-2.9-4.2-4.2
		c-2.9-2.6-6.1-4.8-9.5-6.8c-2-1.2-3.9-1.8-6.1-1.6c-0.5,0.1-1,0.1-1.5,0c-0.6-0.1-1.3-0.2-1.7-0.5c-2.5-1.9-5.3-3.2-8-4.7
		c-0.9-0.5-1.9-1.1-2.9-1.2c-1.9-0.2-3.8-0.1-5.7,0c-1,0-2,0.3-3,0.6C63.5,1,62.2,1.5,61,2c-1.7,0.7-3.6,1.3-5.1,2.3
		c-4.1,2.7-8.3,5.1-12,8.3c-1.9,1.7-4,3.2-5.7,5c-2.7,3-4.6,6.6-6.4,10.2c-1,2-1.8,4-2.9,5.9c-1.2,2.1-2.4,4.2-3.3,6.5
		c-2.3,5.6-3.8,11.5-5.3,17.3c-1,3.8-1.8,7.6-2.1,11.6c-0.2,3.4-0.9,6.8-1.2,10.2c-0.3,3.2-0.3,6.4-0.3,9.6c0,4.4,0.2,8.8,1.1,13.1
		c0.3,1,0.6,2.1,0.7,3.1c0.6,5.3,1.7,10.6,3.2,15.7c0.2,0.6,0.3,1.2,0.4,1.8c0.4,2.8,0.9,5.5,1.8,8.2c0.4,1,0.7,2,1.1,3
		c0.5,1.1,1,2.2,1.6,3.2c0.8,1.5,1.7,3,2.7,4.4c1.6,2.3,3.4,4.4,3.9,7.3c0,0.2,0,0.5-0.1,0.6c-0.9,1.1-2,1.7-3.5,1.9
		c-1,0.1-1.9,0.4-2.9,0.6c-1.1,0.3-2.2,0.6-3.3,0.9c-6.3,1.5-12.5,3-18.8,4.6c-1.5,0.4-3.1,0.8-4.6,1.3c0,0.7,0.1,1.3,0.1,2
		c2.6-0.7,5.3-1.3,8-2.1c0.4-0.1,0.9-0.3,1.3-0.4c2.7-0.8,5.5-1.6,8.3-2.3c3.5-0.9,6.9-1.7,10.4-2.6c0.2-0.1,0.5-0.1,0.7-0.1
		c0.1,0.1,0.1,0.2,0.2,0.3c-0.6,0.5-1.1,1.1-1.7,1.4c-3.3,1.7-6.6,3.3-9.9,5c-0.7,0.3-1.3,0.8-2,1.1c-1.9,0.9-3.7,1.8-5.6,2.6
		c-3.2,1.5-6.5,2.8-9.2,5.2c-0.1,0.1-0.3,0.2-0.4,0.4c0,0.7-0.1,1.4-0.1,2.1c1.1-1.1,2.3-2,3.8-2.6c1.1-0.4,2.2-0.8,3.3-1.1
		c1.6-0.3,3.4-0.3,5-0.9c1.5-0.5,2.5,0.2,3.6,0.8c1,0.5,2,1.2,3,1.8c0.7,0.4,1.4,0.7,2.1,1.1c-1.7,1.2-3.1,1.5-5.6,2.1
		c-0.6,0.1-1.1,0.3-1,1.1c0.3,1.4,0.5,2.8,0.7,4.2H17c-0.2-0.9-0.4-1.8-0.5-2.8c-0.1-0.4-0.1-0.8,0.5-0.9c2.9-0.4,5.1-2,7.3-3.8
		c2.6-2.2,5.2-4.5,7.8-6.7c1.5-1.2,3.1-2.3,4.6-3.5c0.6-0.5,1.2-1.3,1.8-2c0.2,0.5,0.5,0.9,0.7,1.3c1.3,2.4,2.6,4.8,3.9,7.2
		c0.9,1.6,1,3.2,0.2,4.9c-0.6,1.3-1.1,2.6-1.4,4c-0.1,0.8-0.3,1.5-0.4,2.3h11.9c-1.9-2.4-3.9-4.6-5.6-7.1c-1.6-2.3-2.8-4.7-4.2-7.1
		c-0.6-1.1-1.3-2.3-1.9-3.5c-0.1-0.3-0.2-0.6-0.3-0.9c0.3,0,0.5-0.1,0.7,0c2.5,0.2,5.1,0.2,7.6-0.6c1.3-0.4,1.2-0.2,1.9,0.9
		c1.1,1.9,1.6,4,2.1,6.1c1,4,2,8.1,3,12.2h1.9c-0.1-0.3-0.2-0.6-0.3-0.9c-0.6-1.7-0.8-3.7-1.2-5.5c-0.4-1.7-0.9-3.5-1.3-5.2
		c-0.2-0.7-0.3-1.5-0.5-2.3c-0.6-2.2-1.5-4.3-2.6-6.4c-0.3-0.6-0.5-1.4-0.5-2.1c0.1-2,0.4-4,0.6-6c0.2-2,0.5-3.9,0.6-5.9
		c0.2-2.9,0.4-5.7,0.5-8.5c0.1-2.8,0.1-5.6,0.1-8.4c0-2.7-0.1-5.3-0.1-7.9c0-0.8,0.3-1.6,0.4-2.5c1.4,1,2.7,2,4.1,2.6
		c3.8,2.5,7.9,3.8,12.5,3.5c2.7-0.1,5.4-0.5,8.1-0.9c0.7-0.1,1.5-0.4,2.2-0.8c2.7-1.5,5.3-2.9,7.9-4.5c1.3-0.8,2.6-1.8,3.7-2.8
		c1.5-1.3,3-2.7,4.2-4.2c1.8-2.1,3.2-4.5,4.8-6.7c0.2-0.3,0.5-0.7,0.8-1.1c0.1,0.1,0.2,0.1,0.3,0.1c0,0.6-0.1,1.1,0,1.6
		c0.6,4.1-0.1,8-1.2,11.8c-0.9,2.7-1,5.5-1,8.3c0,1.5-0.3,2.8-1.2,4c-2.2,2.8-4.1,5.9-6.5,8.6c-2.9,3.3-5.3,7-7.7,10.7
		c-2.2,3.2-3,7-3.5,10.8c-0.1,0.8-0.2,1.7-0.3,2.5c-0.5,2.9-1.9,5.4-3.9,7.6c-1,1.1-2.1,2-3.2,3c-1.8,1.7-3.3,3.6-4.5,5.7
		c-0.4,0.6-0.8,1.2-1.2,1.8h16.4c0.5-0.8,0.9-1.7,1.4-2.6c1.8-3.7,3.6-7.5,5.5-11.2c1-2.1,2.2-4.1,3.3-6.2c0.5-0.9,1.1-1.7,1.7-2.6
		c0.8,1,1.6,1.9,2.4,2.8c3.5,3.7,7.8,6.2,11.7,9.3c0.3,0.2,0.8,0.3,1.2,0.2c0.8-0.2,1.5-0.5,2.3-0.7c4.8-1,9.5-2.4,13.9-4.6
		c0.4-0.2,0.8-0.3,1.3-0.5c-1.2,1.8-2.2,3.4-3.4,5c-2.8,3.7-5.6,7.4-8.5,11.1h2.2l13.4-17.9c0.2-0.3,0.2-0.7,0.3-1.1
		c-0.4-0.1-0.9-0.4-1.3-0.3c-1.1,0.3-2.2,0.7-3.2,1.1c-2.4,0.9-4.9,1.9-7.4,2.8c-1.7,0.6-3.4,1.2-5.1,1.8c-0.2,0.1-0.5-0.1-0.7-0.1
		c0.1-0.2,0.2-0.5,0.3-0.6c2.6-1.9,5.1-3.9,7.8-5.7c1-0.7,2.3-1.3,3.4-1.3c2.7,0,5.3,0.4,8,0.6c1.2,0.1,2.4,0.3,3.6,0.3
		c0.4,0,1-0.4,1.1-0.7c0.1-0.3-0.2-0.9-0.5-1.2c-0.6-0.7-1.4-1.4-1.9-2.2c-2-3.2-4-6.4-6-9.6c-0.1-0.2-0.1-0.4-0.2-0.6
		c1.3,0.3,2.5,0.6,3.8,0.8C138.7,144.3,142,144.8,145.2,145.5z M109.1,72.6c1.3,1.1,1.9,2.3,2.5,3.8c0.4,0.9,0.8,1.8,1.2,2.7
		c0.1,4.1-1,7.4-4.8,8.1c-0.2-0.2-0.4-0.5-0.6-0.7c-0.8-1-0.2-2.1-0.1-3.1c0.2-1.9,0.5-3.7,0.8-5.5
		C108.4,76.2,108.7,74.5,109.1,72.6z M37.8,71.1c0.2,0.2,0.6,0.4,0.6,0.6c0.3,1.9,0.6,3.9,0.8,5.9c0.1,1.2,0,2.3,0,3.5
		c-1,0-1.5-0.4-1.5-1.3c0-2.7-0.1-5.3-0.2-8C37.5,71.6,37.7,71.3,37.8,71.1z M40.2,85.7c0.1,1.1,0.3,2.2,0.5,3.3
		c0.1,0.6-0.1,0.8-0.7,0.8c-1.5,0-1.9-0.2-2-1.7c-0.1-1.5,0-3,0-4.5c0.2,0.1,0.4,0.2,0.7,0.3C40,84.3,40,84.3,40.2,85.7z
		 M36.7,157.3c-1.3,1.3-2.8,2.3-4.2,3.5c-2.1,1.7-4.1,3.5-6.2,5.3c-0.7,0.6-1.4,1.3-2.2,1.8c-0.3,0.2-0.8,0.3-1.1,0.2
		c-1.9-0.9-3.8-1.9-5.7-2.9v-0.3c0.3-0.2,0.7-0.4,1.1-0.6c3-1.2,6.1-2.2,9-3.7c2.8-1.5,5.2-3.4,7.8-5.2c0.5-0.4,0.8-1,1.3-1.6
		C37.6,155,37.7,156.1,36.7,157.3z M51.8,139c0,0.5-0.1,0.9-0.1,1.4c-0.1,1.8-0.2,3.7-0.7,5.5c-0.4,1.7-0.3,3.5-0.4,5.3
		c-0.1,1.3-0.1,2.5-0.2,3.8c-0.1,0.8-0.3,1.2-1.1,1.5c-1.8,0.7-3.7,0.6-5.5,0.7c-0.1,0-0.2,0-0.3-0.1c-2.6,0.2-4.3-0.8-4.9-3.4
		c-0.1-0.3-0.3-0.5-0.4-0.7c-0.2-0.5-0.8-1-0.7-1.4c0.2-1,0.6-1.9,1.1-2.7c1.5-2.1,3.1-4.1,4.7-6.2c1.5-1.9,2.9-3.9,4.3-5.8
		c1.2-1.7,2.6-3.2,3.1-5.3c0.1-0.5,0.4-0.9,1-0.8c0.6,0.1,0.7,0.6,0.7,1.1C52.2,134.3,52,136.6,51.8,139z M101.5,99.9
		c-1.3,1.8-2.6,3.6-4,5.4c-1.3,1.6-2.5,3.3-3.9,4.7c-1.8,1.8-3.9,3.5-5.8,5.2c-0.1,0.1-0.2,0.2-0.3,0.2c-3.4,1.1-6,3.7-9.4,4.6
		c-2.9,0.8-5.8,1.3-8.8,1.1c-2.4-0.1-4.6-0.5-6.8-1.4c-2.3-1-4.5-2.2-6.4-3.9c-1-0.8-1.8-1.8-2.6-2.7c-1.1-1.2-2.4-2.3-3.3-3.6
		c-1.9-2.5-3.7-5.1-4.5-8.3c-0.2-1-0.6-2-1-3c-1.8-4.4-2.5-9-3.1-13.7c-0.3-2.5-0.5-4.9-0.8-7.4c-0.2-1.2-0.5-2.4-0.8-3.6
		c-0.6-2.5-0.5-5-0.1-7.5c0.1-0.5,0.2-0.9,0.2-1.3c0-0.9,0.4-1.4,1.1-1.9c3.6-2.3,7.4-2.9,11.5-2.1c1,0.2,2,0.3,3,0.5
		c1.2,0.3,2.4,0.7,3.6,1c0.4,0.1,0.9-0.1,1.3-0.1c0-0.5,0-1-0.2-1.5c-0.1-0.3-0.3-0.6-0.6-0.7c-1.4-0.8-2.8-1.6-4.6-1.5
		c-1.6,0-3.2-0.2-4.8-0.3c-0.7,0-1.5,0.1-2.2,0.1c-2.2,0.1-4.1,1.4-6,2.3c-0.4,0.2-0.8,0.4-1.5,0.8c0.7-2,1.2-3.6,1.5-5.1
		c0.1-0.1,0.1-0.2,0.2-0.3c2-1.7,3.4-3.9,5.6-5.4c1.5-1,2.8-2.3,4.2-3.5c2.6-2.3,5.3-4.3,8.6-5.5l6.6-2.4c0.5-0.2,1-0.4,1.5-0.7
		c2.6-1.6,5.2-3.1,7.8-4.8c2.7-1.8,5.3-3.6,7.9-5.6c1.5-1.1,2.8-2.6,2.6-4.8c0-0.8,0.1-1.6,0-2.4c-0.1-0.8,0.3-1.4,0.8-1.9
		c0.2-0.1,0.5-0.2,0.7-0.1c0.2,0,0.4,0.3,0.4,0.5c0.6,3,0.9,6,0.8,9c0,0.5-0.1,1.1-0.1,1.6c0.1,0.8,0.1,1.6,0.3,2.4
		c0.6,1.6,1.5,3,2.5,4.4c1.9,2.6,3.7,5.2,5.3,7.9c0.7,1.3,0.9,2.9,1.1,4.4c0.2,1.4,0,2.8,0,4.2c0,1.3,0.4,2.5,1.2,3.5s1.7,2,2.5,3
		c1.3,1.5,2.2,3.2,2.6,5.2c0.4,2.1,0.9,4.1,2.3,5.8c0.2,0.2,0.3,0.6,0.3,0.9c0,0.9-0.2,1.7-0.3,2.5c-0.2,0.9-0.4,1.9-0.6,2.9
		c-0.5,2.7-0.8,5.3-1.3,7.9c-0.2,1-0.4,2-0.6,3c-0.5,0.5-0.6,1.3-0.4,2c-0.2,0.8-0.4,1.7-0.6,2.5C103.5,95,103,97.7,101.5,99.9z
		 M123.6,155.9c-3.1,1.5-5.4,4.1-8.3,5.9c-1.3,0.9-2.7,1.5-4,2.2c-0.2,0.1-0.6,0.1-0.8-0.1c-3.6-2.8-7.5-5.3-10.5-8.7
		c-0.7-0.7-1.3-1.4-1.9-2.1c-0.1-0.1-0.3-0.4-0.2-0.5c0.6-1.8,1.3-3.6,2-5.4c2.4,1.4,4.6,2.6,7,3.8c2.7,1.3,5.3,2.7,8.1,3.7
		c1.8,0.6,3.8,0.6,5.7,0.8c1,0.1,2,0.1,3,0.2C123.7,155.8,123.6,155.9,123.6,155.9z M137.1,155.5c-0.4,0-0.8,0-1.3-0.1
		c-2.1-0.3-4.2-0.8-6.4-0.9c-3.4-0.1-6.7-0.6-10.1-1c-0.8-0.1-1.5-0.1-2.3-0.2c-2.5-0.4-4.9-1.2-7.2-2.4c-3.1-1.6-6.1-3.3-9.1-4.9
		c-0.2-0.1-0.4-0.2-0.5-0.3c-3.3-1.9-6.1-1-8.2,2c-1.3,1.9-2.7,3.9-4.1,5.8c-0.6,0.9-1.4,1.6-2.2,2.4s-1.7,1.5-2.6,2.4
		c-0.3-1.4,0.1-2.6,0.4-3.3c0.4-1.4,0.8-2.9,1.3-4.2s1.1-2.6,1.9-3.8c1.8-2.8,3.5-5.7,5.6-8.2c3.1-3.6,5.8-7.4,8.5-11.3
		c0.5-0.8,1.3-1.5,2-2.2c0.2-0.3,0.7-0.4,1-0.4c2,0,3.9-0.5,5.7-1.8c1.8,2.1,3.5,4.2,5.2,6.3c1,1.3,2.2,2.5,3.3,3.8
		c0.9,0.9,1.7,1.9,2.4,2.9c1.4,2.1,3.1,3.9,5.3,5.1c1,0.5,2.1,0.9,3.1,1.4c0.3,0.1,0.6,0.3,0.8,0.6
		C132.1,147.2,134.6,151.3,137.1,155.5z"/>
	<path class="st0" d="M72.4,94.2c3.3,0,6.6,0,9.9,0c0.9,0,1.8,0.4,2.7,0.5c0.7,0.1,1.5,0,2.3,0.1c0.4,0,0.9,0.2,1.1,0.4
		c0.1,0.3,0,0.9-0.3,1.1c-3,2.8-6.2,5.3-10.2,6.6c-3.4,1.1-6.7,1.7-10.3,1.2c-2.9-0.5-5.7-1.5-8.1-3.2c-1.6-1.1-3-2.6-4.5-3.9
		c-0.4-0.4-0.4-0.9,0.2-1c3.1-0.6,6-2.2,9.4-1.9c2.6,0.2,5.2,0,7.8,0C72.4,94.1,72.4,94.1,72.4,94.2z M84.9,97.5
		c-8.4,2.9-16.9,4.1-25.7,1.7c3.4,2.6,7.3,3.9,11.5,3.9C76.1,103.1,80.7,100.9,84.9,97.5z M82,97c-8,0-16,0-24.1,0
		C60.8,100,77.4,100.1,82,97z M60.6,95.7c0.7,0.1,1.5,0.3,2.2,0.3c3.6,0,7.3-0.1,10.9-0.1c2.9,0,5.8,0.1,8.7,0.1
		c0.4,0,0.7-0.1,1.3-0.2C82.5,95,62.1,94.8,60.6,95.7z"/>
	<path class="st0" d="M98,67c-0.4,0.4-0.9,1-1.5,1.3c-3.1,1.9-6.6,2.6-10.2,2.2c-1.9-0.2-3.8-0.6-5.8-0.9c-0.3,0-0.5-0.1-0.7-0.2
		c-0.7-0.3-0.8-0.7-0.2-1.3c1.8-1.9,3.9-3.4,6.3-4.6c3-1.5,5.8-0.9,8.5,1C95.4,65.5,96.6,66.2,98,67z M95.4,67.2
		c0-0.1,0.1-0.2,0.1-0.4c-1.2-0.6-2.4-1.2-3.5-1.7c-0.1,1.3-0.2,2.4-0.4,3.6C93,68.7,94.2,67.9,95.4,67.2z M84.7,65.7
		c-1,0.8-2.1,1.8-3.3,2.9c1.3,0.2,2.3,0.5,3.3,0.7C84.7,67.9,84.7,66.8,84.7,65.7z"/>
	<path class="st0" d="M53.7,71.3c-2.8-0.2-5.7-0.3-8.4-1.2c-0.4-0.1-1-0.6-1-1c-0.1-0.4,0.3-1,0.6-1.2c1.3-0.9,2.6-2,4-2.6
		c1.7-0.8,3.7-1.1,5.6-0.8c2.8,0.4,4.8,2.2,6.8,4.1c0.6,0.5,0.5,1.2-0.2,1.3C58.7,70.6,56.3,71.5,53.7,71.3z M49.2,66.8
		c-1,0.6-2,1.3-3.1,1.9c0,0,0.1,0.6,0.3,0.7c1.3,0.2,2.6,0.3,3.8,0.5C49.9,68.9,49.6,68,49.2,66.8z M56.2,70.1c1-0.2,2-0.4,2.9-0.6
		c0.2,0,0.3-0.6,0.2-0.9c-0.3-0.8-1.1-1-1.8-1.1c-0.2,0-0.5,0.3-0.6,0.5C56.7,68.7,56.5,69.4,56.2,70.1z M54.1,67.3
		c-0.5-0.3-0.8-0.7-1.1-0.7c-0.3,0-0.7,0.5-0.7,0.7c0,0.3,0.4,0.7,0.7,0.7C53.3,68.1,53.6,67.7,54.1,67.3z"/>
	<path class="st0" d="M90.3,56.1c1.6,0.3,3.2,0.5,4.8,0.9c0.6,0.1,1.1,0.5,1.5,0.9c0.4,0.3,0.8,0.7,0.3,1.3
		c-0.4,0.4-1.5,0.4-1.7-0.1c-0.4-1-1.3-1-2.1-1c-1.5,0-3,0.2-4.5,0.2c-2.2,0-4.1,0.9-6,1.9c-1.5,0.8-3,1.6-4.5,2.4
		c-0.3,0.2-0.6,0.3-1,0.3c-0.3,0-0.9-0.2-1-0.4c-0.1-0.3,0.1-0.9,0.3-1.1c1.5-1.1,3-2,4.5-3.1C83.8,56.6,87,56.4,90.3,56.1z"/>
	<path class="st0" d="M78.1,86.6c-1.9-0.2-3.2,0.2-4.4,1.2c-2.3,1.8-3.7,1.7-6,0c-0.5-0.3-0.9-0.6-1.4-1c-0.6-0.4-1.2-0.2-1.9,0.1
		c-1.4,0.7-2.6,0.4-3.6-0.7c-0.7-0.8-0.7-3,0.1-3.7c0.2-0.2,0.5-0.2,0.7-0.2c0,0.3,0.1,0.5,0,0.8c-0.4,0.8-0.6,1.7,0,2.5
		s1.5,0.8,2.4,0.4c1.7-0.8,3.1-0.3,4.3,1c1.2,1.3,2.8,1.4,4.2,0.4c0.6-0.4,1.1-0.9,1.6-1.2c0.3-0.2,0.7-0.4,1.1-0.4
		c0.8-0.1,1.6,0,2.4,0c1.7,0,2.5-1.3,1.8-2.8c0-0.1-0.2-0.2-0.1-0.3c0.1-0.3,0.2-0.5,0.3-0.8c0.2,0.1,0.6,0.2,0.7,0.4
		C81.9,84.5,79.9,86.9,78.1,86.6z"/>
</g>
</svg>
