<?xml version="1.0" encoding="utf-8"?>
<!-- Generator: Adobe Illustrator 19.2.1, SVG Export Plug-In . SVG Version: 6.00 Build 0)  -->
<svg version="1.1" id="Layer_1" xmlns="http://www.w3.org/2000/svg" xmlns:xlink="http://www.w3.org/1999/xlink" x="0px" y="0px"
	 viewBox="0 0 161.3 179.1" style="enable-background:new 0 0 161.3 179.1;" xml:space="preserve">
<style type="text/css">
	.st0{fill:#673AB7;}
</style>
<g id="pharm-meg-purple">
	<path class="st0" d="M14.1,153.5c1.5-0.6,2.9-1.3,4.4-1.9c0.3-0.1,0.7-0.1,1,0.1c0.7,0.4,1.3,0.4,2-0.1c0.9-0.7,1.9-1.2,2.8-1.8
		c0.4-0.3,0.9-0.1,1.2,0.5c0.3,0.6,0.5,1.2,0.8,1.8c0.6,1.1,1.2,2.1,1.7,3.2c0.6,1.6,1,3.2,1.5,4.8c0.3,0.9,0.5,1.7,0.8,2.6
		c0.2,0.5,0.1,0.8-0.2,1.1c-0.3,0.3-0.4,0.7-0.7,1.1c-0.6,0.9-1.1,1.8-1.7,2.6c-2.9,3.5-5.8,7-8.7,10.5c-0.3,0.4-0.7,0.8-1,1.2h1.8
		c1.4-1.6,2.7-3.3,4.1-4.9c2.2-2.5,4.2-5.1,6.3-7.7c0.3-0.3,0.7-0.5,1-0.8c0.7,1.4,1.3,2.6,1.9,3.9c0.2,0.4,0.5,0.7,0.9,0.6
		c0.3-0.1,0.5-0.4,0.7-0.6c0.7-0.8,1.3-1.8,2.1-2.5c1.1-1.1,2.2-2,3.4-3c0.1-0.1,0.2-0.1,0.3-0.2c0.7,1.7,0.7,3.5,0.7,5.3
		c0,2.5,0,5.1-0.1,7.6c0,0.8-0.1,1.5-0.2,2.3h14.9c0.2-1.3,0.5-2.5,0.4-3.7c-0.1-1.4-0.6-2.9-0.9-4.3c-0.3-1.5-1.2-2.8-2.1-4.1
		c-1.5-2.1-2.7-4.3-4.2-6.4c-1.4-2-1.9-4.3-2.5-6.6c0-0.1,0-0.3,0-0.4c0-1.4,0-2.9,0-4.3c0-0.3,0.1-0.8,0.3-1c1.5-1.5,2-3.6,2.8-5.4
		c0.8-1.8,0.9-3.7,1-5.5c0.1-2,0.2-4.1,0.3-6.1c0.1-0.8,0.3-1.7,0.3-2.5c0-1.1,0-2.1,0-3.2c0-1-0.2-2.1-0.2-3.1
		c0-0.2,0.2-0.5,0.3-0.8c0.2,0.1,0.6,0.2,0.7,0.4c0.6,0.7,1.1,1.6,1.7,2.3c0.5,0.6,1.1,1.2,1.7,1.8c2.2,2,4.3,4.1,6.6,6.1
		c0.6,0.5,1.3,0.9,1.9,1.3c1.7,1,3.5,2.1,5.3,3c0.8,0.4,1.7,0.8,2.6,0.9c2.5,0.4,5.1,0.7,7.6,0.1c1.1-0.2,2.2-0.6,3.2-1.1
		c3.3-1.6,6.6-3.3,9.8-5c1-0.5,1.9-1.2,2.7-1.9c1.3-1.1,2.7-2.1,4-3.3c1.3-1.2,2.4-2.5,3.4-4c0.8-1.2,1.9-2.3,2.8-3.5
		c0.2-0.3,0.4-0.5,0.6-0.8c0.6-0.9,1.3-1.8,1.9-2.7c0.1,0,0.1,0,0.2,0.1c0,0.1,0.1,0.3,0.1,0.4c0,0.7,0,1.4,0,2.1
		c0,0.6-0.1,1.2,0.3,1.8c0.1,0.2,0.1,0.5,0.1,0.8c0,1.3,0,2.6,0,4c0,0.8,0,1.7,0.5,2.5c0.1,0.2,0,0.7-0.2,0.9
		c-0.8,1-1.8,1.9-2.6,2.9c-1.1,1.3-2.2,2.7-3.3,4.1c-0.8,1-1.6,2-2.3,3.1c-0.6,0.9-1.2,1.8-1.6,2.8c-1.1,2.7-2.8,4.9-4.8,6.9
		c-1.6,1.6-3,3.4-4.4,5.2c-0.6,0.7-1.1,1.6-1.7,2.3c-0.3,0.4-0.3,0.7,0.1,1.1c1.2,1.2,1.5,2.7,1.8,4.3c0.3,1.7,0,3.4-0.6,5.1
		c-0.3,0.9-0.6,1.9-0.8,2.9c-0.2,0.7-0.6,1.2-1.2,1.5c-0.5,0.3-1.1,0.6-1.6,0.9c-1.9,0.9-3.6,2-5.1,3.5c-1.4,1.5-2.7,3-3.8,4.7h11.7
		c0,0,0-0.1,0.1-0.1c1.1-1.5,2.1-3.1,3.3-4.6c1.4-1.8,2.9-3.5,4.3-5.3c1.1-1.4,2.1-2.8,3.1-4.3c1.5-2.3,3-4.7,4.6-7
		c1.4-2,2.9-3.8,4.4-5.7c0.4-0.5,0.8-1.2,1.1-1.8c1.3-2.4,2.4-5,3.4-7.5c1-2.6,2.1-5.1,3.1-7.7c0-0.1,0.1-0.2,0.3-0.2
		c0,0.2,0,0.4,0,0.7c0,4,0,7.9,0.1,11.9c0.1,3.2,0.8,6.4,2.8,9c1.9,2.5,4,4.9,6.6,6.6c1.9,1.2,4,2,6.2,2.3c1.8,0.2,3.7,0.2,5.5,0.1
		c1.3-0.1,2.6-0.4,3.9-0.6c0.2,0.9,0.4,1.8,0.7,2.8c0.1,0.5-0.1,0.6-0.5,0.7c-2.1,0.7-4.1,1.7-6,2.9c-0.8,0.5-1.5,1-2.3,1.4
		c-1.2,0.4-2.4,0.7-3.6,1.1c-1,0.3-2,0.8-3.1,1c-2.6,0.5-5.3,0.7-7.9,0.1c-0.6-0.1-1.3-0.1-1.9-0.1c-0.3,0-0.7,0.4-0.7,0.6
		c0,0.3,0.2,0.7,0.5,0.8c0.4,0.2,0.8,0.1,1.3,0.1c0.4,0,0.7-0.2,1.1-0.1c1.7,0.4,3.4,0.3,5,0.3c2.6,0,4.9-1.2,7.4-1.8
		c0.1,0,0.3,0,0.4,0c-0.8,1.6-1.5,3.1-2.3,4.7h1.5c0.8-1.5,1.5-3,2.4-4.4c0.3-0.5,0.8-1,1.3-1.3c1.9-1.1,3.8-2.2,5.7-3.2
		c0.7-0.4,1.6-0.6,2.4-0.9c0.8-0.3,1.1-0.6,0.9-1.4c-0.2-1.3-0.5-2.5-0.8-3.7c1.5-0.9,3.1-1.8,4.7-2.7c0.5-0.3,1.2-0.3,1.7-0.6
		c0.3-0.1,0.8-0.5,0.8-0.7c0-0.5-0.5-0.6-0.9-0.6c-2-0.1-4-0.2-6-0.3c-0.9,0-1.5-0.3-1.8-1.2c-1.2-3.3-2.6-6.6-3.8-9.9
		c-0.5-1.3-0.5-2.9-0.7-4.5c0.6,0.3,1,0.4,1.4,0.7c2.2,1.7,4.5,3.2,6.9,4.6c3.4,2.1,6.7,4.4,10.2,6.5c1,0.6,2.1,1,3.2,1.4
		c1.2,0.5,2.4,0.9,3.7,1.3V157c-3.8-1.2-7.4-3-10.6-5.4c-1.4-1.1-3.1-1.8-4.6-2.8c-2-1.3-4-2.7-6-4c-0.9-0.6-1.7-1.2-2.6-1.8
		c-0.5-0.3-0.6-0.6-0.4-1.2c0.5-1.3,1.1-2.6,1.6-3.9c0,0,0,0,0-0.1c1.5-2,2-4.6,3.2-6.8c0.6-1.2,0.8-2.6,1.1-3.9
		c0.4-1.6,0.9-3.2,1.4-4.8c0.3-1.2,0.5-2.5,0.5-3.7c-0.1-3.2,0-6.4-0.2-9.6c-0.1-1.4-0.4-2.9-0.6-4.3c-0.2-1.8-0.6-3.6-0.5-5.4
		c0.1-1.9-0.2-3.7-0.6-5.5c-0.2-1.2-0.3-2.4-0.9-3.5c-1-1.9-1.6-4-2-6.2c-0.3-1.4-0.8-2.7-1.3-4.1c-0.9-2.5-1.9-4.9-2.8-7.4
		c-0.4-0.9-0.8-1.8-1.1-2.8s-0.4-2.1-0.5-3.1c-0.2-1.4-0.4-2.8-0.4-4.2c0-2.5-0.6-4.8-1.3-7.1c-0.6-1.8-1.3-3.6-2.1-5.3
		c-0.6-1.4-0.7-2.9-1.1-4.4c-1.2-4.9-2.4-9.7-4-14.4c-1-3.1-1.7-6.3-2.7-9.4c-0.5-1.5-1.3-2.9-2-4.2c-0.9-1.6-2-3-2.9-4.5
		c0-0.1-0.1-0.2-0.2-0.2c-2-1.7-3.7-3.8-6-5.2c-1.3-0.8-2.4-1.8-3.6-2.5c-0.8-0.5-1.7-0.7-2.6-1c-2.6-0.9-5.2-0.6-7.8-0.6
		c-1.5,0-2.7-0.5-4-1c-2.4-1-4.9-1.8-7.4-2.7c-0.1,0-0.2,0-0.3,0c-3,0-5.9,0-8.9,0c-0.5,0-1,0.2-1.4,0.3c-1.9,0.5-3.8,0.9-5.6,1.6
		c-1.9,0.7-3.7,1.7-5.5,2.5c-1.9,0.9-3.8,1.9-5.7,2.8c-2.4,1.2-4.6,2.7-6.5,4.5c-1,1-2.1,1.9-3.3,2.8c-1.4,1.1-2.6,2.4-3.8,3.8
		c-1,1.2-2.1,2.3-3.1,3.5c-0.2,0.2-0.3,0.4-0.4,0.6c-0.4,0.7-0.9,1.4-1.3,2.1c-0.6,1-1.2,2-1.8,3c-0.9,1.5-1.8,3.1-2.8,4.6
		c-1.4,2-2.8,4.1-3.7,6.4c-0.4,1-0.7,2.1-1.1,3.1c-0.9,2.3-2,4.5-2.8,6.7c-1,2.9-2.3,5.7-3.8,8.4c-1,1.8-1.6,3.8-2.4,5.7
		c-0.4,0.9-0.8,1.8-1,2.8c-0.5,2.1-0.9,4.2-1.3,6.3c-0.2,1.1-0.5,2.2-0.5,3.3c-0.1,3.8-0.2,7.6-0.3,11.4c0,3-0.1,5.9-0.6,8.8
		c-0.3,2.1-0.3,4.2-0.2,6.3c0,2.8,0.1,5.7,0.3,8.5c0.2,2.2,0.5,4.4,0.8,6.6s0.1,4.3-0.1,6.5s-0.3,4.4-0.5,6.5
		c-0.1,1.5-0.3,3.1-0.4,4.6s-0.2,3-0.2,4.5c0,2.1-0.1,4.3,0,6.4c0.1,1.6,0.3,3.1,0.4,4.7c0,0.2-0.1,0.5-0.3,0.6
		c-0.5,0.3-1,0.4-1.5,0.7c-2.5,1.1-4.9,2.2-7.3,3.3c-1.6,0.8-3,1.7-4.5,2.6c-1.3,0.7-2.7,1.4-4,2.2c-0.1,0.1-0.3,0.1-0.5,0.2v1.6
		c1.9-1,3.9-2,5.7-3.2C8.4,156.1,11.2,154.8,14.1,153.5z M135,146.2c0.5,4.4,2.8,8.1,4.1,12.1c-1.5-0.2-4.1-2.6-5-4.9
		C133.1,150.8,134.1,148.5,135,146.2z M115.7,85.8c0.6,1.1,1.2,2.1,1.7,3c0,0.1,0.1,0.1,0.1,0.2c-0.1,0.8,0.4,1.5,0.6,2.2
		c0.6,1.9,0.6,3.7-0.6,5.4c-0.6,0.9-2.2,0.7-2.8-0.1c-0.6-0.8-0.4-1.6-0.3-2.5c0.3-2,0.6-4.1,0.9-6.1
		C115.3,87.3,115.5,86.6,115.7,85.8z M35.6,91.3c0.7-1.9,1.3-3.8,1.9-5.8c0.4-1.5,0.7-3,0.8-4.5c0.1-0.9-0.2-1.8-0.1-2.7
		c0.1-3.2,0.4-6.4,1.8-9.3c0.6-1.2,1.1-2.4,1.8-3.5c0.4-0.8,1-1.5,1.6-2.1c1-1,2-2,3.1-3c0.3-0.3,0.7-0.4,1.1-0.5
		c0.1-0.1,0.4,0,0.4-0.1c1.1-1.2,2.4-1.3,3.8-1.1c1.6,0.3,3.2,0.2,4.7,0.7c1.8,0.5,3.5,1.4,5.2,2.2c0.8,0.4,1.6,0.7,2.5,0.6
		c0.6,0,1.2,0,1.4-0.6c0.3-0.7,0-1.3-0.5-1.8c-0.7-0.7-1.6-0.8-2.5-1c-2-0.3-4.1-0.6-6.1-0.9c-1.4-0.2-2.7-0.3-4.1-0.5
		c0-0.1,0-0.1,0-0.2c1.2-0.5,2.5-0.8,3.6-1.4c1.7-1.1,3.6-1.7,5.5-2.2c4.5-1.2,8-4,11.4-7.1c2.3-2.1,4.6-4.1,6.8-6.3
		c1.2-1.2,2.2-2.6,3.3-3.9c0.5-0.6,1.2-1.2,1.7-1.8s1.1-1.3,1.5-2c1-2.1,2.6-3.7,4.5-5.1c1.2-0.9,2.6-1.5,3.9-2.2
		c0.3-0.2,0.5-0.5,0.7-0.8c1-2,1.9-4.1,2.8-6.1c0.5-1,1.1-2,1.2-3.1c0.2-1.4,0.1-2.8,0.1-4.2c0-0.2-0.2-0.5-0.2-0.7
		c0.1-0.3,0.3-0.8,0.6-0.9c0.2-0.1,0.7,0.1,0.9,0.4c0.7,0.7,0.3,1.7,0.4,2.5c0.1,2.2-0.5,4.3-1.3,6.3c-0.4,1-0.9,2-1.3,3
		c-0.7,1.6-1.2,3.4-1.4,5.1c0,0.2,0,0.5,0.1,0.6c2.1,4.1,3.2,8.5,4.4,12.8c1,3.6,2.1,7.2,3.4,10.7c0.6,1.6,1.6,3.1,2.6,4.6
		c1.4,2.1,3.3,4,4.1,6.5c0.7,2.2,1.8,4.3,2.2,6.7c0.3,2.1,0.9,4.1,1.2,6.1c0.1,0.7,0.1,1.5,0.1,2.3c0.1,3.2,0.2,6.3-0.5,9.5
		c-0.6,2.8-0.9,5.8-1.4,8.6c-0.2,1.3-0.7,2.5-1,3.8c-0.5,2.1-0.9,4.2-1.4,6.4c-0.1,0.7-0.3,1.3-0.5,1.9c-0.2,0.7-0.4,1.5-0.7,2.2
		c-0.5,1.2-0.9,2.4-1.5,3.4c-0.7,1.3-1.6,2.5-2.6,3.7c-1.2,1.7-2.5,3.3-3.8,4.9c-0.1,0.1-0.1,0.1-0.2,0.2c-1.1,1.8-2.4,3.3-4,4.6
		c-1.7,1.4-3.5,2.9-5.3,4.2c-1.4,1-3,1.7-4.5,2.4c-2,1-4,1.9-6,2.9c-2.1,1.1-4.4,1.3-6.7,1.1c-1.1-0.1-2.2-0.3-3.3-0.4
		c-1.6-0.2-2.9-1.2-4.3-2c-1.9-1.1-3.8-2.3-5.6-3.6c-1.2-0.9-2.2-2.1-3.3-3.1c-0.8-0.7-1.6-1.4-2.3-2.2c-0.8-0.8-1.5-1.8-2.3-2.6
		c-1-1.1-2.1-2.1-3.1-3.2c-0.5-0.5-0.8-1.2-1.2-1.8c-0.5-0.7-1.1-1.5-1.6-2.2c-0.8-1.2-1.7-2.4-2.3-3.7c-0.7-1.7-1.3-3.4-1.4-5.3
		c-0.1-0.8-0.5-1.5-0.7-2.3c-0.8-2.2-1.4-4.4-1.4-6.7c0-1.6-0.2-3.1-0.7-4.7c-0.4-1.4-0.5-3-0.8-4.4c-0.2-0.8-0.4-1.5-0.7-2.2
		c-0.1-0.2-0.4-0.3-0.7-0.3c-0.1,0-0.2,0.3-0.3,0.5c-0.2,1.1,0.6,1.9,0.6,2.9c0.1,1.8,0.4,3.5,0.5,5.3c0,0.7-1.2,1.8-1.9,1.8
		c-1,0.1-1.9,0-2.6-0.7c-0.2-0.2-0.5-0.6-0.5-0.9C35.2,93.8,35.2,92.6,35.6,91.3z M29,139.5c2-2.3,4.4-4.1,6.6-6.2
		c1.1-1,2-2.2,2.9-3.3c0.3-0.4,0.7-0.6,1.1-0.3c0.4,0.3,0.4,0.8,0.1,1.1c-1.1,1.3-2.2,2.6-3.4,3.8c-1.6,1.6-3.3,3-4.9,4.5
		c-0.6,0.6-1.4,1.2-1.6,2.1c-0.1,0.2-0.6,0.4-0.8,0.3c-0.3-0.2-0.5-0.5-0.8-0.9C28.6,140.1,28.8,139.8,29,139.5z"/>
	<path class="st0" d="M75.8,116.7c-2.9-0.2-5.7-0.1-8.5-1c-0.9-0.3-1.7-0.6-2.5-1.1c-1.6-1.1-3.1-2.3-4.6-3.5
		c-0.2-0.1-0.3-0.3-0.4-0.5c-1.4-2.3-2.9-4.6-4.3-6.9c-0.9-1.5-0.8-1.4,0.9-1.5c1.4-0.1,2.9-0.4,4.3-0.6c1.5-0.2,3-0.4,4.5-0.5
		c2.1-0.2,4.2-0.3,6.3-0.3c0.6,0,1.2,0.2,1.7,0.5c0.8,0.6,1.5,0.7,2.4,0.1c0.6-0.4,1.4-0.5,2.1-0.6c2-0.1,4-0.1,6,0
		c2.3,0.1,4.6,0.3,6.9,0.5c0.9,0.1,1.8,0.5,2.6,0.7c0.4,0.1,0.7,0.1,1.1,0.1s0.8,0.2,0.7,0.6c0,0.3-0.3,0.8-0.5,0.9
		c-1.1,0.2-1.6,0.9-2,1.9c-0.6,1.5-1.3,3-2.3,4.4c-0.9,1.2-2.1,2-3.2,3c-1.5,1.4-3.2,2.4-5.1,2.8C80,116.2,78,116.8,75.8,116.7z
		 M75.1,111.8c2.2-0.2,4-0.1,5.7-0.5c1.4-0.3,2.7-0.8,3.9-1.5c1.5-0.9,3-2,4.4-3.1c0.9-0.7,1.7-1.6,2.5-2.5c0.5-0.5,0.2-1-0.5-1
		c-1,0-1.9-0.1-2.9,0c-1.9,0.2-3.8,0.4-5.8,0.7c-1.7,0.3-3.4,0.9-5.1,0.9c-3,0.2-6,0.1-9-0.6c-2-0.4-4.1-0.7-6.1-1
		c-0.2,0-0.6,0.2-0.6,0.3c-0.1,0.7-0.1,1.5,0,2.2c0,0.3,0.5,0.5,0.7,0.7s0.4,0.5,0.7,0.7c1.7,1.7,3.5,3.3,6,3.7
		C71.2,111.5,73.4,111.7,75.1,111.8z M92,105.6c-1.2,0.9-2.4,1.8-3.7,2.8c-1.1,0.8-2.2,1.7-3.4,2.4c-2.1,1.3-4.4,1.7-6.8,1.7
		c-2.5,0-5-0.1-7.6-0.3c-1.6-0.1-3.1-0.5-4.4-1.3c-2.8-1.7-5.2-3.9-7.1-6.5c-0.8-1.1-1.7-1-2.9-1.1c0.3,0.5,0.5,1,0.7,1.4
		c0.9,1.4,1.9,2.6,2.7,4.1c1.4,2.6,3.8,4,6.2,5.5c2.2,1.3,4.8,1.5,7.3,1.6c1.8,0.1,3.7-0.1,5.5-0.2c1-0.1,2-0.1,2.9-0.3
		c1.9-0.5,3.8-1,5.1-2.6c0.2-0.2,0.5-0.4,0.8-0.6C89.7,110.5,91.1,108.1,92,105.6z M62.2,102.3c0,0.1,0,0.1,0,0.2
		c0.8,0.1,1.7,0.2,2.5,0.3c2.7,0.4,5.3,1.3,8.1,1.4c2.3,0,4.6,0.2,6.9-0.4c1.5-0.3,2.9-0.7,4.4-0.9c2.1-0.3,4.3-0.5,6.4-0.7
		c-0.1,0-0.3-0.1-0.5-0.1c-2.1-0.1-4.2-0.3-6.3-0.4c-2-0.1-4,0-6,0c-0.6,0-1.3,0.1-1.8,0.5c-1.2,0.8-2.2,0.6-3.3-0.2
		c-0.5-0.4-1-0.5-1.6-0.4c-2.2,0.1-4.5,0.2-6.7,0.4C63.7,102.1,62.9,102.2,62.2,102.3z"/>
	<path class="st0" d="M58,73.1c-3,0-5.8-0.4-8.6-1.5c-0.5-0.2-1.2-0.2-1.8-0.3c-0.2-0.1-0.5-0.2-0.6-0.4c0-0.2,0.1-0.4,0.3-0.6
		c1.7-1.6,3.7-2.8,5.9-3.4c1-0.3,2-0.3,3-0.3c2.6,0.1,4.9,0.9,7.1,2.3c0.6,0.4,1.2,0.6,1.8,1c0.4,0.3,0.9,0.7,1.2,1.1
		c0.4,0.5,0.1,1.1-0.5,1.2c-2,0.3-3.9,0.6-5.9,0.9C59.4,73.2,58.7,73.1,58,73.1z M55,67.5c-1.8-0.2-6,1.9-6.3,3.3
		c2.2,0.5,4.4,1.1,6.6,1.6C53.8,70.2,53.8,69.3,55,67.5z M61.4,68.9c-0.1,0.7-0.1,1.2-0.1,1.7c-0.1,0.5-0.2,1.1-0.2,1.6
		c1.3-0.2,2.6-0.4,4-0.6c0.1,0,0.3-0.2,0.2-0.2c-0.1-0.1-0.2-0.3-0.3-0.4c-0.8-0.5-1.6-1-2.4-1.4C62.2,69.3,61.8,69.1,61.4,68.9z
		 M57.6,69.2c0.1,0.1,0.3,0.4,0.4,0.4c0.4-0.1,0.9-0.2,0.8-0.7c0-0.2-0.3-0.5-0.6-0.5C57.8,68.2,57.6,68.6,57.6,69.2z"/>
	<path class="st0" d="M93,73.5c-2.2-0.1-4.3-0.2-6.5-0.3c-0.8-0.1-1.5-0.3-2.3-0.5c-0.1,0-0.3-0.2-0.3-0.2c0-0.2,0.1-0.4,0.2-0.5
		c1-0.8,1.9-1.7,2.9-2.4c0.9-0.6,1.9-1,2.8-1.4c1-0.4,2.1-0.7,3.1-0.9c0.5-0.1,1.1,0.1,1.7,0.1c0.7,0,1.4-0.2,2,0.1
		c0.9,0.4,2.1-0.1,2.9,0.8c0.2,0.2,0.6,0.4,0.9,0.4c0.7,0.1,1.1,0.6,1.6,0.9c0.5,0.4,1.1,0.7,1.7,1c0.2,0.1,0.4,0.2,0.5,0.4
		c0.3,0.4,0.2,0.8-0.3,0.8c-2.7,0.1-5.2,1.1-7.9,1.5c-1,0.2-2,0-3.1,0C93,73.4,93,73.4,93,73.5z M92.6,72.8
		c-0.9-0.3-1.5-0.8-1.8-1.7c-0.3-0.9-0.1-1.7,0.5-2.5c-1.6,0.2-5.6,2.5-5.9,3.4C87.7,73.2,90.1,72.8,92.6,72.8z M96,72.6
		c2.4-0.5,4.6-1,6.8-1.4c0-0.1,0-0.1,0-0.2c-1.9-1.2-4-2.3-6.5-2.8C97.7,69.8,97.3,71.2,96,72.6z M93.8,70.4c0.3-0.4,0.6-0.7,0.7-1
		c0-0.1-0.5-0.5-0.6-0.4c-0.3,0.2-0.6,0.4-0.7,0.7C93.1,69.8,93.5,70.1,93.8,70.4z"/>
	<path class="st0" d="M96.5,58c2.1,0,4.2,0.3,6.2,0.9c2,0.6,3.7,1.9,5.1,3.5c0.1,0.1,0,0.4,0,0.6c-0.3,0-0.7,0.1-1-0.1
		c-1.3-0.7-2.5-1.6-3.9-2.2c-0.9-0.4-1.9-0.4-2.8-0.6c-2-0.3-4-0.1-5.9,0.4C93,61,91.8,61.6,90.6,62c-0.9,0.2-1.8,0.3-2.7,0.4
		c-0.5,0-1-0.2-1.2-0.8c-0.1-0.6,0.1-1.1,0.6-1.4c2-1.1,4.1-1.9,6.4-2C94.6,58.2,95.5,58.1,96.5,58z"/>
	<path class="st0" d="M63.2,90.6c-0.1-1.2,0.5-2.3,1.3-3.3c0.2-0.2,0.3-0.5,0.5-0.6s0.4-0.1,0.6-0.2c0,0.2,0.1,0.4,0,0.6
		c-0.2,0.4-0.5,0.8-0.9,1.2c-0.8,0.9-0.8,2-0.8,3c0,0.6,0.9,1.3,1.6,1.3c0.8,0,1.5,0,2.3,0.1s1.3,0.6,1.7,1.3c0.5,0.7,0.9,1.4,1.5,2
		c1.4,1.5,3.9,1.6,5.4,0.2c1.1-1,2.1-2.1,3.2-3.1c0.5-0.5,1.1-0.8,1.9-0.8c0.9,0,1.6-0.4,2-1.3c0.2-0.5,0.3-0.9,0-1.4
		c-0.4-0.8-0.9-1.6-1.3-2.4c-0.1-0.1,0-0.3,0-0.5c0.2,0,0.4,0,0.5,0s0.1,0.1,0.2,0.2c0.5,0.9,1,1.9,1.4,2.9c0.3,0.8-0.4,2.2-1.3,2.7
		c-0.5,0.3-1.1,0.5-1.6,0.5c-0.9,0-1.3,0.6-1.9,1.1c-1.1,1.1-2.3,2.2-3.5,3.2c-1.2,0.9-2.5,0.5-3.8,0.3c-1.2-0.3-2-1.2-2.6-2.1
		c-1.5-2.2-1.3-2.1-3.9-2.1C64.2,93.4,63.2,92.3,63.2,90.6z"/>
</g>
</svg>
