<?xml version="1.0" encoding="utf-8"?>
<!-- Generator: Adobe Illustrator 18.1.1, SVG Export Plug-In . SVG Version: 6.00 Build 0)  -->
<!DOCTYPE svg PUBLIC "-//W3C//DTD SVG 1.1//EN" "http://www.w3.org/Graphics/SVG/1.1/DTD/svg11.dtd">
<svg version="1.1" id="Layer_1" xmlns="http://www.w3.org/2000/svg" xmlns:xlink="http://www.w3.org/1999/xlink" x="0px" y="0px"
	 viewBox="0 0 200 150.4" style="enable-background:new 0 0 200 150.4;" xml:space="preserve">
<style type="text/css">
	.st0{fill:#F44336;}
</style>
<g id="earache-girl">
	<path class="st0" d="M96.5,55c0.6-0.1,1.1-0.2,1.5-0.4c1.7-0.6,3.4-0.7,5.1-0.2c2.2,0.7,3.9-0.3,5.6-1.4c0.6-0.4,0.7-1,0.5-1.8
		c-1.4-3.9-0.7-7.7,0.4-11.5c0.1-0.4,0.2-0.8,0.2-1.2c0-1.9,0.1-3.8,0-5.7c0-1.2,0.2-2.2,0.9-3.1c0.9-1.2,1.9-2.3,2.9-3.5
		c1.8-2.1,4.3-2.6,6.8-3c2.4-0.4,4.7-1.1,6.7-2.4c1.9-1.2,4.1-0.9,6.1-1.4c1.6-0.3,3-0.1,4.4,0.7c1.4,0.8,2.8,1,4.3,0.1
		c1.3-0.7,2.7-0.7,4.2-0.7c3.5,0.2,6.8,1.4,10.1,2.4c1.7,0.5,3.3,1.2,4.9,2c2.1,1,3.2,3,4.2,5c1.4,2.9,2.8,5.8,3.8,8.8
		c0.8,2.4,1.2,5,1.6,7.5c0.3,1.4,0.5,2.9,0.4,4.4c0,1.8,0.2,3.6,1,5.3c1.5,3.2,1.7,6.7,1.8,10.1c0,1.1,0,2.1,0.9,2.9
		c0.1,0.1,0.2,0.2,0.1,0.3c-0.1,1.5,0.8,2.2,2.1,2.8c1.9,1,2.2,2,1.5,4c-0.5,1.6-0.4,2,0.9,2.8c1.1,0.7,1.3,1.3,0.7,2.6
		c-0.3,0.6-0.2,0.9,0.1,1.6c0.4,0.9,0.4,2,0.3,3c-0.2,1.8,0.5,3.4,2,4.3c1.8,1.2,3.8,2.2,5.4,3.6c2.6,2.4,5.7,4.5,7.4,7.7
		c1.2,2.2,1.7,4.8,2.5,7.2c0.4,1.2,0.7,2.4,1,3.7c1.3,5.9,1.3,11.9,1.2,17.9c0,3.3-0.5,6.5-1.3,9.6c-0.1,0.3-0.6,0.5-0.8,0.8
		c-0.3-0.4-0.8-0.8-0.8-1.1c0.3-2.6,0.7-5.2,1.2-7.8c0.7-3.4,0.6-6.8,0.3-10.2c-0.4-5-1.8-9.8-2.8-14.7c-0.6-2.9-2.2-5.4-4.1-7.5
		c-0.7-0.8-1.6-1.4-2.4-2c-2.5-1.9-5.1-3.8-7.6-5.8c-0.5-0.4-1-0.5-1.5,0c0,0.1-0.1,0.1-0.2,0.1c-1.7,0.8-2.8,2-3.8,3.6
		c-3,5.1-5.4,10.4-5.7,16.4c-0.2,3.6,0.5,7,2.2,10.2c1.9,3.7,3.8,7.4,5.3,11.3c0.7,1.8,0.9,4.1,0.4,5.9c-0.5,1.8-1.1,4-3.5,4.7
		c-0.5,0.1-0.9,0.7-1.2,1.2c-0.8,1.1-1.9,1.9-3.3,2c-3.8,0.4-7.6,0.7-11.5,1.1c-1.8,0.2-3.7,0.3-5.5,0.6c-2.4,0.3-4.7,0.2-6.9-0.7
		c-1.4-0.5-2.7-0.6-4.1-0.1c-1.2,0.4-2.5,0.7-3.7,1.1c-1.2,0.4-2.3,0.2-3.4-0.3c-0.5-0.2-1.1-0.3-1.7-0.4c-0.7-0.1-0.7-0.5-0.4-1
		c1-1.4,2.1-2.8,3.2-4.2c0.5-0.6,1-1.1,1.4-1.7c3-4.3,6-8.6,9-12.9c0.8-1.1,1.5-2.3,2.2-3.4c0.2-0.3,0.3-0.8,0.4-1.1
		c0.2-0.6,0.3-1.2,0.7-1.7c3.4-5,6.8-10.1,10.4-14.9c2.1-2.8,4.7-5.2,7.2-7.8c1.2-1.3,2.5-2.5,3.7-3.8c1-1.1,0.6-2.5,0.4-3.9
		c-0.6,0.7-1.1,1.4-1.7,2c-0.3,0.3-0.8,0.4-1.3,0.5c0.1-0.4,0.2-0.9,0.4-1.2c0.1-0.3,0.4-0.4,0.6-0.6c1.7-1.6,2.3-3.5,1.4-5.8
		c-1.2,1.5-2.4,3.1-3.7,4.7c-0.7-0.8-0.4-1.3,0.1-1.9c0.7-0.8,1.5-1.6,2.1-2.5c0.9-1.2,1.4-2.6,1.3-4.1c-0.1-1.5,0-3,0-4.5
		c-0.1,0-0.2-0.1-0.4-0.1c-0.3,0.8-0.8,1.6-1,2.4c-0.4,1.8-1.7,3-2.8,4.3c-0.1,0.1-0.4,0.2-0.5,0.1c-0.2-0.1-0.3-0.3-0.3-0.5
		c0-0.2,0.1-0.4,0.2-0.5c2.6-2.3,2.8-5.9,4.7-8.7c0.6-0.9,0.3-2.5,0.4-3.7c0.1-2-0.4-3.8-1.3-5.6c-2.5,5.2-5.6,10-9.5,14.2
		c-1.1,1.2-2.5,2.2-3.7,3.3c-0.8,0.8-2,1.5-1.6,3c0,0.1-0.6,0.5-0.9,0.5c-0.2,0-0.6-0.7-0.5-0.8c0.5-0.9,1-1.8,1.6-2.7
		c0.2-0.4,0.6-0.7,0.9-1c2.9-2.2,4.3-5.4,5.8-8.5c0.6-1.2,1-2.5,1.3-3.8c0.1-0.7-0.2-1.5-0.4-2.2c-0.3-0.8-1.2-1-1.8-0.3
		c-0.9,1.2-1.9,2.4-2.7,3.7c-1.5,2.2-2.9,4.4-4.4,6.5c-0.4,0.6-0.9,1.3-1.5,1.7c-3,2.1-4.8,5-5.9,8.4c0,0,0,0.1,0,0.1
		c-2.1,3.1-2.2,6.7-2.1,10.1c0.1,3.6-1.5,6.2-3.5,8.8c-2.1,2.9-4.1,5.9-6.1,8.9c-2,3-4.2,5.8-6.9,8.4c-2.2,2.2-3.8,4.8-5.6,7.4
		c-2.6,3.8-5.5,7.4-8.3,11.1c-1,1.4-2.1,2.7-3.2,4.1c-0.2,0.2-0.6,0.3-0.9,0.5c0-0.3-0.1-0.7,0-0.9c0.5-0.9,1.2-1.7,1.7-2.6
		c0.2-0.3,0.5-0.7,0.4-1c-1.1-5.6-2.2-11.2-3.4-16.8c-0.2-0.9-0.8-1.7-0.9-2.7c-0.2-1.8-0.3-3.7-0.2-5.5c0-1.7,0.2-3.4,0.3-5.1
		c0.1-2.2,0.2-4.5,0.3-6.7c-3.9,0.9-7.8,0.7-11.5-0.9c-3.4-1.5-6.7-3.1-9.8-5c-4.9-3-9.6-6.3-14.4-9.5c-2.9-1.9-5.7-3.9-8.6-5.8
		c-0.6-0.4-1.2-1.1-1.8-1.5c-1-0.7-2.1-1.4-3.2-2c-0.2-0.1-0.4-0.2-0.6-0.3c-2.3-1.8-4.8-3.5-6.3-6.2c-1-1.8-2-3.5-3-5.3
		c-0.1-0.2-0.3-0.3-0.5-0.3c-1.1-0.4-2.2-0.7-3.4-1.2c-1.1,1.6-2.3,3.5-3.6,5.1c-2.7,3.2-5.3,6.5-8.8,9c-2.1,1.5-3.9,3.4-5.6,5.3
		c-2.4,2.6-4.6,5.3-6.9,7.9c-1.4,1.6-2,3.4-2,5.6c0,2.7,0.7,5.2,1.8,7.6c0.6,1.3,0.7,2.7,1.2,4.1c1.2,3.4,2.3,6.9,3.6,10.3
		c1.8,4.6,4.8,8.4,8,12c2.1,2.5,4.3,5.1,6.8,7c2.9,2.3,4.8,5.3,6.8,8.2c0.2,0.3,0.1,0.7,0.1,1.1c-0.3-0.1-0.8-0.2-1-0.5
		c-1.3-1.8-2.5-3.7-3.9-5.4c-0.7-0.9-1.8-1.5-2.6-2.3c-4.5-4.1-8.5-8.7-11.9-13.7c-1.3-1.9-2.6-3.7-3.7-5.7
		c-0.6-1.1-0.8-2.4-1.1-3.5c-0.8-2.9-1.6-5.9-2.6-8.7c-0.6-1.8-1.5-3.5-2-5.3c-1.2-4.1-1.4-8.2,1.8-11.7c3.4-3.8,6.8-7.7,10.3-11.5
		c0.8-0.9,1.9-1.4,2.9-2.2c1.1-0.9,2.2-1.8,3.2-2.8c1.7-1.8,3.3-3.6,4.9-5.5c1-1.1,1.9-2.4,2.6-3.6c0.2-0.4,0.1-1.2-0.2-1.6
		c-1.6-1.9-3.5-3-6-3.5c-4.2-0.9-8.3-2.2-11.9-4.7c-0.9-0.6-1.8-1.3-2.5-2.1c-2.4-2.8-4.7-5.7-6.9-8.6c-0.9-1.2-1.3-2.6-2.1-3.9
		c-0.2-0.4-0.6-0.8-1-0.9c-2.8-0.6-5.2-1.8-7.4-3.6c-5.1-4-6-9.4-4.6-15.1c1-4.3,4.4-7,8.7-8.3c0.6-0.2,1.2,0.1,1.9,0.2
		c0.7,0.1,1.4,0.3,2.1,0.4c0.3,0,0.8-0.2,0.9-0.5c1.3-2.6,3.5-4.5,5.7-6.2c2.2-1.7,4.5-3.2,6.9-4.7c1.4-0.8,2.9-1.4,4.4-1.9
		c3.3-1,6.7-2.1,10.1-2.8c2.4-0.4,4.9-0.2,7.3,0c4.7,0.5,9.1,2.3,13.4,4.4c0.1,0,0.1,0.1,0.2,0.1c4.7,0.7,7.5,4.1,10.6,7.2
		c0.7,0.7,1.8,1,2.5,1.7c1.4,1.4,2.7,2.9,3.9,4.5c2.8,3.7,5.5,7.5,8.2,11.2c0.5,0.7,1.1,1.5,1.5,2.3c2.5,5.1,4.9,10.2,6.2,15.7
		C95.5,49.8,95.9,52.3,96.5,55z M42.9,61.8c0.1,0,0.3-0.1,0.4-0.1c0.2,0.3,0.4,0.7,0.6,1c0.8,1.5,1.9,2.1,3.3,1.6
		c0.9-0.3,1.4-0.2,1.9,0.5c0.2,0.2,0.5,0.4,0.7,0.5c0.7,0.5,1.2,1.1,1.2,2c0,0.3,0.3,0.6,0.5,0.8c1,0.8,1.9,1.5,2.9,2.2
		c0.4,0.3,0.7,0.5,1.1,0.7c2,0.8,4,1.7,6.1,2.4c1.5,0.6,2.9,1.3,4.5,1.5c4.1,0.5,8.2,0.1,12.2-0.9c2.5-0.6,4.9-1.3,7.4-2.1
		c2.1-0.6,4.2-1.3,5.9-2.8c1.3-1.1,2.5-2.3,2.8-4.2c0.5-3.1,1.2-6.2,0.7-9.3c-0.4-2.4-0.5-4.9-1-7.3c-0.5-2.2-1.2-4.4-2-6.5
		c-0.9-2.3-1.2-4.9-3.5-6.8c0.2,1.1,0,2.2,0.5,2.9c1.1,1.5,1.1,3,0.4,4.5c-0.4,1-0.8,2.2-1.6,2.8c-0.8,0.7-1.3,1.5-1.8,2.3
		c-0.2,0.4-0.5,0.9-0.9,1.2c-0.3,0.2-0.7,0.3-1.1,0.4c0.1-0.4,0-0.8,0.2-1.1c0.3-0.5,0.7-1,1-1.5c1.3-3.1,2.6-6.2,2.4-9.7
		c0-0.7-0.1-1.4,0.1-2c0.5-2-0.4-3.5-1.5-4.9c-2.6-3.6-5-7.2-7.6-10.8c-0.8-1.1-1.9-2.1-3-3.2c-0.3,2.7-0.6,5.2-0.9,7.6
		c-0.2,1.6-0.4,3.2-0.7,4.7c-0.4,2.8-0.5,5.6-1.5,8.3c-1.2,3.4-3.6,5.5-6.7,6.9c-0.6,0.3-1.1,0.2-1.6-0.3c-0.4-0.5-0.9-0.9-1.5-1.1
		c-2.9-0.9-5.7-1.9-8.6-2.6c-2.6-0.7-5-1.5-7.2-3.1c-0.4-0.3-0.8-0.6-1-1c-0.7-1.7-1.4-3.5-2.1-5.2c-0.3-0.7-0.5-1.4-0.8-2.1
		c-0.1-0.2-0.6-0.4-0.8-0.4c-0.2,0.1-0.4,0.5-0.4,0.8c0.5,2.9,1.3,5.7,2.9,8.2c0.6,0.9,1.5,1.7,2.4,2.2c3.9,2,8.1,3.3,12.5,4.2
		c1,0.2,2,0.7,3,1.1c0,0.1,0,0.3,0,0.4c-1.8,0.4-3.7,0.8-5.5,1.3c-1.8,0.5-3.8,0.8-5.4,1.6c-1.9,0.9-3.6,2.2-5.2,3.6
		c-1.8,1.5-3.5,3.2-2.1,6c0.4,0.9-0.8,3.1-1.7,3.5c-0.2,0.1-0.6,0-0.9,0c-0.3-0.1-0.6-0.2-1-0.3c-0.7-0.2-1.3,0.1-1.4,0.8
		c-0.1,0.4,0.1,1,0.4,1.3c1,0.9,2,1.9,3.1,2.6c1.3,0.9,2.8,1.7,4.2,2.4c0.6,0.3,1.4,0.4,2.3,0.6c-0.5-1.9-1.4-2.5-2.9-2.2
		c-1.1,0.2-3.4-1.1-3.8-2.2C42.8,62.8,42.9,62.3,42.9,61.8z M155.8,71.3c-0.9-1.2-1.7-2-2.3-3c-0.7-1.1-1.2-2.4-1.7-3.6
		c-0.6-1.3-1.1-2.6-1.7-3.8c-0.7-1.6-1.4-3.3-2.2-4.9c-0.4-0.9-0.8-1.9-1.5-2.6c-0.8-0.7-2-0.8-2.8-1.5c-2.1-1.8-4.5-2.5-7-3
		c-0.1,0-0.3-0.1-0.4-0.2c-2.1-0.9-4.3-1.7-5.5-4c-1-1.7-2.7-2.4-4.8-2.5c-2.7-0.1-5.4-0.1-7.8-1.3c-0.8-0.4-1.6-0.8-2.5-1.1
		c-1.5-0.7-3.6-0.5-4.4,0.5c-0.4,0.5-0.5,1.3-0.7,1.9c-0.3,1.2-0.7,2.4-0.8,3.6c-0.2,3.5,1,6.9,1.9,10.2c0.5,2,1.6,3.8,1.4,6
		c0,0.3,0.2,0.6,0.3,1.1c0.6-0.3,1.1-0.5,1.7-0.7c1.5-0.8,3.8-0.4,4.6,0.8c1.5,2.2,1.4,4.6,0.7,7c-0.3,1.2-1.3,2.3-1.7,3.5
		c-0.3,0.8-0.5,1.7,0.3,2.4c0.8,0.6,1.6,1,2.4,1.5c0.6-1.3,2.3-1.9,3.7-1.4c1.8,0.7,2.9-0.2,2.6-2.2c0-0.2,0-0.5,0-1.1
		c0.4,0.5,0.7,0.7,0.7,0.9c-0.1,0.9-0.2,1.9-0.6,2.7c-0.5,0.9-1.5,1-2.5,0.8c-0.9-0.1-2.1-0.3-2.5,0.2c-1.1,1.1-1.9,0.9-2.8,0
		c0,0-0.1,0-0.4,0.1c0.3,0.7,0.5,1.3,0.8,1.9c0.7,1.3,0.8,1.3,0.3,1.8c-0.4-0.7-0.9-1.3-1.2-2c-0.6-1.2-0.6-2.7-1.7-3.7
		c-0.2-0.2-0.3-0.9-0.2-1.3c0.3-0.9,0.7-1.8,1.1-2.6c0.9-1.7,1.7-3.3,1-5.5c-1.4,0.4-2.8,0.6-4,1.1c-1.7,0.7-0.8,2.4-0.9,3.6
		c-0.2,2.5-0.6,5.1,0.9,7.5c0.8,1.2,1.4,2.6,2.4,3.7c1.5,1.7,3.1,3.1,4.7,4.7c0.8,0.8,1.9,1.6,2.2,2.6c0.5,1.6,1.6,2.6,2.6,3.7
		c1.4,1.5,3.2,2.1,5.1,2.1c3.5,0,6.5-1.5,9.1-3.7c2-1.6,3.2-3.8,4.1-6.1c1-2.5,2.3-5,4.5-6.7C153,76.7,154.2,73.7,155.8,71.3z
		 M105.9,98c0.1-0.1,0.2-0.1,0.3-0.2c0.4,0.5,0.8,1.1,1.1,1.7c0.3,0.7,0.8,0.9,1.3,0.4c1.7-1.9,3.2-3.8,3-6.7
		c-0.3-3.3-0.8-6.5-2.8-9.2c-3.5-4.9-7.1-9.7-10.7-14.6c-0.9-1.2-2-2.2-2.9-3.1c-0.7,1-1.2,2-1.9,2.6c-1.3,1.1-2.6,2.3-4.1,2.9
		c-3.7,1.4-7.4,2.4-11.2,3.6c-0.4,0.1-0.7,0.1-1.1,0.2c-1,0.3-2.1,0.4-3,0.8c-1.8,0.8-3.6,1.7-5.4,2.6c-0.9,0.4-1.9,0.5-2.8,0.1
		c2.2-0.8,4.3-1.6,6.4-2.4c0-0.2-0.1-0.3-0.1-0.5c-0.6,0-1.2,0-1.8,0c-2.7,0.2-5.3,0.1-7.7-1.1c-1.7-0.8-3.5-1.6-5.2-2.3
		c-1.6-0.7-3.2-1.3-4.6-2.6c-0.7-0.7-1.8-1-2.8-1.5c-0.1,0.1-0.2,0.2-0.3,0.4c1.1,1.8,2.2,3.7,3.5,5.4c0.8,1.1,2.1,1.9,3,3
		c0.9,1,1.9,1.8,3.2,2.3c0.4,0.2,0.8,0.6,1.2,0.8c1.2,0.7,2.4,1.6,3.7,2c1.2,0.4,2.6,0.4,3.9,0.3c1.2-0.1,2.4-0.5,3.6-0.8
		c1.3-0.4,2.6-1,3.9-1.5c0.2-0.1,0.4,0,0.7,0.1c0,0.1,0,0.2,0,0.3c-1.7,0.8-3.4,1.7-5.2,2.2c-1.8,0.5-3.8,0.5-6.1,0.7
		c0.8,0.7,1.4,1.3,2.2,1.7c1.9,1.2,3.9,2.2,5.7,3.4c3.1,2.1,6.1,4.4,9.2,6.5c1.2,0.8,2.6,1.4,3.9,2.1c0.5,0.3,1,0.5,1.5,0.8
		c1.2,0.8,2.3,1.6,3.5,2.3c1.5,0.8,3.1,1.4,4.6,2.2c2.2,1.2,4.5,1.7,6.9,1.8c1.2,0.1,2.6,0.1,3.7-0.2c2-0.5,2.3-2.5,1-4
		C106.7,99.7,105.9,99,105.9,98z M123.9,112.5c0.1,0,0.3,0,0.4,0c0.1-0.6,0.3-1.2,0.4-1.8c0.3-1.7,0.5-3.5,0.9-5.2
		c0.7-3.1,1.5-6.2,2.2-9.3c0.1-0.5-0.3-1.2-0.5-1.7c-0.2-0.3-0.7-0.4-0.8-0.7c-1.1-2-2.8-1.7-4.4-1.1c-2.4,0.9-4.8,2-7.1,3.1
		c-0.8,0.4-1.7,0.8-2.2,1.5c-1.3,1.8-2.4,3.7-3,6c-1.4,6-1.2,12-0.8,18.1c0.1,1.2,0.3,2.4,0.5,3.5c1,4.7,2,9.3,3,14
		c0.2,0.7,0.4,1.5,0.7,2.4c4.9-5.3,8.5-11.3,12.4-17c-0.2-0.5-0.4-1.1-0.5-1.8c-0.4-2.1-0.7-4.3-1.2-6.4c-0.4-1.7-1-3.4-1.5-5.1
		c-0.1-0.4,0-1,0-1.4c0.1,0,0.3,0,0.4,0C123.1,110.5,123.5,111.5,123.9,112.5z M96.9,56.1c-0.3,2.1-0.2,4.2-0.9,6
		c-0.8,2.1-0.3,3.3,1.3,4.9c2.8,2.9,5.2,6.2,7.6,9.4c1.3,1.7,2.5,3.5,3.6,5.3c1.2,1.9,2.3,3.9,3.4,5.9c0.1,0.3,0.2,0.6,0.2,0.9
		c0.1,2.1,0.2,4.1,0.4,6.2c0,0.2,0.1,0.5,0.2,0.9c3.8-1.8,7.4-3.8,11.7-4.6c-0.4-0.8-0.5-1.7-1.1-2.2c-1.5-1.4-3.2-2.7-4.7-4.1
		c-0.7-0.7-1.5-1.4-2-2.3c-0.9-1.3-1.5-2.8-2.3-4.1c-0.7-1.2-0.7-2.4-0.8-3.7c-0.3-2.7,1.1-5.6-0.7-8.3c-0.8-1.1-0.6-2.9-0.8-4.4
		c-0.2-2.8-1.4-5.2-2.4-7.7c-4.3,1.5-3.6,2.2-7.8,1.1c-0.7-0.2-1.4-0.1-2.1,0C98.7,55.6,97.8,55.9,96.9,56.1z M128.7,120.4
		c0.1,0.1,0.3,0.1,0.4,0.2c0.6-0.6,1.4-1.2,1.9-2c3.4-5,6.9-10,10.2-15c0.8-1.2,1.4-2.5,1.7-3.8c0.4-1.6,0.3-3.2,0.3-4.8
		c0-0.6-0.1-1.1-0.3-1.7c-0.1-0.2-0.6-0.5-0.7-0.4c-1,0.5-2,1.1-3,1.5c-1.6,0.7-3.2,1.3-4.8,2c-0.7,0.3-1.5,0.8-1.9,1.4
		c-0.4,0.6-0.4,1.4-0.5,2.2c-0.9,4.2-1.9,8.4-2.7,12.6C129,115.2,128.9,117.8,128.7,120.4z M166.3,102c-2.2,1.2-3.6,2.9-4.9,4.8
		c-2.6,3.9-5.3,7.8-7.9,11.7c-1.3,1.9-2.4,3.9-3.6,5.8c-0.3,0.6-0.7,1.1-1.1,1.9c0.4,0,0.6,0.1,0.7,0c1.3-0.5,2.7-1,3.9-1.7
		c2.7-1.5,5.4-3.2,8-4.9c2.2-1.4,3.6-3.2,3.3-6c-0.3-3.3,0.2-6.6,1.3-9.8C166.3,103.2,166.3,102.6,166.3,102z M171.8,78.2
		c0,2.6-0.2,4.9,1.4,6.9c-0.3,0.2-0.5,0.3-0.6,0.3c2.1,0.4,4.2,0.8,6.4,1.2c0.2-0.7,0.4-1.5,0.5-2.4c0.1-0.6,0.2-1.2-0.7-1.6
		c-0.2-0.1-0.5-0.7-0.4-1c0.1-0.5,0.4-1.1,0.6-1.5c0.4-0.6,0.2-1-0.4-1.4c-1.8-1.1-2-1.9-1.4-3.8c0.6-1.9-0.1-3.2-2.1-3.5
		c-0.6-0.1-1,0-1.1,0.7c-0.2,0.8-0.3,1.8-1.5,1.8c-0.1,0-0.3,0.4-0.4,0.6c-0.1,0.5-0.2,1-0.3,1.5c-0.3,1-0.2,1.7,0.9,2
		c0.3,0.1,0.5,0.4,0.8,0.6c0,0,0,0.1-0.1,0.1C173,78.6,172.5,78.4,171.8,78.2z M12.8,17.5c-0.7,0-2.3,1.7-2.4,2.5
		c-0.3,2.4-0.9,4.8-0.9,7.3c-0.1,3.8-0.2,7.6,1,11.3c0.1,0.3,0.1,0.7,0.1,1c0,1.4,0.3,1.6,2,1.6C10,33.3,10.2,25.4,12.8,17.5z
		 M119.1,63.9c-0.5-0.2-1-0.6-1.4-0.5c-1.2,0.2-2.5,0.5-3.6,0.9c-0.2,0.1-0.4,0.5-0.5,0.8c0.3,0,0.6,0.2,0.9,0.1
		C115.9,64.8,117.3,64.3,119.1,63.9z M174.8,88c-1-0.1-1.7-0.2-2.3-0.3c0,0.7,0,1.4,0,2.3C173.3,89.3,174,88.8,174.8,88z"/>
	<path class="st0" d="M69.6,120.2c1.7,3.4,3.5,6.7,5.1,10.2c1.5,3.2,3,6.4,4.4,9.7c0.3,0.6,0.4,1.2,0.5,1.8c0.1,0.4-0.1,0.8-0.2,1.3
		c-0.3-0.2-0.5-0.2-0.5-0.3c-2.4-7.1-5.9-13.8-9.5-20.4c-1.3-2.4-2.5-4.9-3.9-7.2c-1.6-2.7-3.7-5.1-6.5-6.8c-3.1-1.9-6-4-9-6
		c-3.1-2.1-6.7-3.3-10.2-4.7c-1.7-0.7-3.5-1.2-5.3-1.9c-0.3-0.1-0.5-0.5-0.7-0.7c0.3,0,0.7-0.2,1-0.1c4.4,1.7,8.9,3.1,13.1,5.1
		c3.3,1.6,6.2,3.9,9.2,5.9c0.6,0.4,1.2,0.8,1.8,1.2c3.3,2,5.9,4.8,8.3,7.8c1.2,1.6,2.5,3.1,3.8,4.6c1.8,2.1,3.6,4.1,5.3,6.3
		c0.3,0.4,0.3,1,0.5,1.6c-0.4-0.3-0.8-0.6-1.2-1c-0.6-0.7-1.1-1.4-2.1-1.8c-0.8-0.3-1.4-1.4-2-2.2c-0.6-0.8-1.1-1.6-1.6-2.4
		C69.8,120.1,69.7,120.1,69.6,120.2z"/>
	<path class="st0" d="M32.7,90c0.1-0.3,0.2-0.6,0.4-0.8c2.1-2.3,4.3-4.5,6.4-6.9c2.3-2.7,4.5-5.6,6.8-8.4c0.2-0.3,0.5-0.6,1-0.7
		c-3.6,6.6-9.4,11.4-14.2,17C32.9,90.1,32.8,90,32.7,90z"/>
	<path class="st0" d="M75.5,60.6c-0.3,0-0.4,0-0.4,0.1c-1.2,1.6-3,2.2-4.8,2.9c-1.4,0.5-2.7,1.4-4,2.1c-0.3,0.1-0.5,0.4-0.8,0.4
		c-0.3,0.1-0.6-0.1-0.9-0.1c0.1-0.3,0.2-0.7,0.4-0.8c1.3-0.8,2.6-1.8,4.1-2.3c3.5-1.1,5.8-3.4,8.1-6c0.3-0.3,0.7-0.5,1.2-0.8
		c0.1,0.3,0.2,0.4,0.2,0.5c-1.7,1.9-1.2,4.6-2.7,6.5c-0.4,0.5-0.9,1.1-1.4,1.4c-1.3,0.8-2.6,1.5-4,2.1c-1,0.4-1.2,0.3-2.5-0.5
		c0.7-0.3,1.2-0.5,1.7-0.6c2.4-0.7,4.4-1.9,5.7-4.1C75.3,61.1,75.4,60.9,75.5,60.6z"/>
	<path class="st0" d="M82.6,60.4c0,0.6,0,1,0,1.4c0,1.1,1.1,1.8,2.1,1.5c1.4-0.4,2.8-0.8,4.2-1.2c1.9-0.5,3.2-2.3,3-4.3
		c0-0.4-0.3-0.8-0.5-1c-0.8-0.7-1.6-1.3-2.4-1.9c-1.2-1-1.9-2.3-2-3.8c0.1-0.1,0.2-0.1,0.3-0.2c0.2,0.2,0.4,0.4,0.5,0.6
		c0.4,2.4,2.5,3.4,4.1,4.7c0.6,0.5,0.9,1,0.8,1.7c-0.5,3.4-1.6,4.6-4.6,5.1c-1,0.2-2,0.6-3,0.9c-1,0.4-2.2,0.3-2.8-0.7
		c-0.4-0.7-0.2-1.7-0.3-2.5C82.1,60.7,82.3,60.6,82.6,60.4z"/>
	<path class="st0" d="M82.5,70.3c0.5-0.4,1-0.8,1.6-1.1c1.6-0.9,3.3-1.6,4.8-2.7c1.6-1.1,3.2-2.3,4.2-4.1c0.1-0.2,0.7-0.3,1-0.4
		c0,0.4,0.2,0.9,0,1.1c-1,1.2-2.1,2.4-3.2,3.5c-0.6,0.6-1.3,1.1-2,1.6c-1,0.8-2.2,1.3-3.5,1.2c-0.3,0-0.7,0.2-1,0.4
		c-0.6,0.3-1.1,0.7-1.6,1C82.7,70.6,82.6,70.4,82.5,70.3z"/>
	<path class="st0" d="M135.7,80c-1.1-0.5-2.2-0.9-3.1-1.5c-1-0.6-1.8-1.6-2.6-2.4c0.1-0.1,0.2-0.2,0.2-0.3c0.6,0.4,1.1,0.8,1.7,1.2
		c0.9,0.6,1.8,1.4,2.8,1.8c2.6,1.1,4.2,3.8,3.7,6.6c0,0.2-0.3,0.4-0.5,0.7c-0.4-1.8,0.4-3.7-1.4-5c-0.2,0.3-0.5,0.5-0.6,0.7
		c-0.6,1.5-2,2.2-3.2,3.1c-0.2,0.2-0.5,0.3-0.7,0.3c-2.2,0.3-4.4,0.6-6.7,0.9c-1,0.1-1.7-0.3-2.1-1.3c-0.2-0.6-0.6-1.1-0.9-1.7
		c-0.6-0.9-0.4-1.4,0.8-1.5c0.9-0.1,1.8,0,2.5-0.3C128.8,80.1,132.2,80.2,135.7,80z M133,84c0-0.2-0.1-0.4-0.1-0.5
		c-3,0.3-6,0.7-9.1,1c0.2,1,1,1.1,1.8,1c1.8-0.2,3.6-0.5,5.4-0.9C131.7,84.5,132.3,84.2,133,84z M134.1,81.6c-1.9-0.3-3.4,0.7-5,0.9
		c-1.6,0.3-3.3,0.7-4.9,1c0,0.1,0.1,0.3,0.1,0.4c1-0.1,2-0.2,3-0.3c1.3-0.2,2.7-0.4,4-0.7C132.2,82.8,133.4,83,134.1,81.6z
		 M122.8,82.5c0,0.1-0.1,0.2-0.1,0.3c0.4,0,0.8,0.2,1.2,0.1c0.8-0.1,1.7-0.3,2.5-0.5c1.9-0.4,3.9-0.9,5.8-1.4c0-0.1,0-0.2-0.1-0.3
		c-1,0.1-2,0-3,0.2C127,81.5,124.9,82.1,122.8,82.5z"/>
	<path class="st0" d="M127,64.4c3.7,0.3,7.4-1.2,11.3,1c-0.5,0.2-0.8,0.4-1.1,0.4c-3.1,0.1-6.2,0.7-9.3,0c-0.4-0.1-0.8-0.6-1.2-0.9
		C126.9,64.7,126.9,64.6,127,64.4z"/>
	<path class="st0" d="M129.4,60.6c1.3,0,2.6-0.1,3.8,0c0.3,0,0.6,0.6,0.9,0.9c-0.3,0.2-0.5,0.4-0.8,0.5c-0.8,0.1-1.7,0.2-2.5,0.1
		c-1.5-0.1-2.7,0.3-3.9,1.2c-0.4,0.3-1,0.4-1.5,0.3c-0.2,0-0.4-0.6-0.5-1c0-0.2,0.1-0.5,0.2-0.6c1.4-0.7,2.7-1.3,4.1-1.9
		C129.3,60.3,129.3,60.4,129.4,60.6z"/>
</g>
</svg>
