<?xml version="1.0" encoding="utf-8"?>
<!-- Generator: Adobe Illustrator 19.2.1, SVG Export Plug-In . SVG Version: 6.00 Build 0)  -->
<svg version="1.1" id="Layer_1" xmlns="http://www.w3.org/2000/svg" xmlns:xlink="http://www.w3.org/1999/xlink" x="0px" y="0px"
	 viewBox="0 0 200 234" style="enable-background:new 0 0 200 234;" xml:space="preserve">
<style type="text/css">
	.st0{fill:#FF5722;}
</style>
<g id="earache-girl2">
	<path class="st0" d="M0,224.3c1.8,0,3.7,0,5.5-0.2c1.3-0.1,1.4-0.3,1-1.5c-0.3-1-0.5-2-0.9-2.9c-0.9-2-0.7-4.2-1-6.3
		c-0.4-3.7,0.6-7.4,0.7-11.1c0-1.4-0.2-2.9,0-4.2c0.3-1.5,0.7-3,1.4-4.4c2.8-5.6,5.8-11.1,8.5-16.7c2.3-4.7,4.4-9.5,6.7-14.2
		c1.3-2.7,2.8-5.3,4.3-7.9c0.6-1,1.1-2.1,1.5-2.9c-1.3-1.2-2.6-2.3-3.7-3.4c-1-1-1-2.3-0.3-3.5c0.3-0.5,0.8-1,1.2-1.5
		c2.6-3.3,5.3-6.6,7.8-9.9c1-1.3,1.8-2.7,2.8-4c0.3-0.5,0.9-0.8,1.2-1.3c0.3-0.4,0.5-0.9,0.6-1.4c0.2-0.6,0.3-1.2,0.3-1.7
		c0.3-2.6-1.3-4-3.1-5.4c-1.3-1-2.7-1.8-4-2.8c-1.4-1.1-2.6-2.4-3.9-3.6c-1-0.9-2-1.9-3.1-2.7c-3.8-3-5.4-6.9-4.8-11.7
		c0.3-2.7,0.7-5.3,1-8c0.2-1.7,0.3-3.4,0.5-5.1c0.3-2.7,0.6-5.4,0.9-8.1c0.1-1.1,0.3-2.2,0.3-3.4c0.2-5.5,0.2-10.9,0.5-16.4
		c0.1-2.3,0.9-4.5,1.3-6.8c0.7-3.8,1.3-7.6,2.1-11.4c0.3-1.5,0.9-2.9,1.5-4.3c1.7-3.8,3.4-7.7,5.2-11.5c1.6-3.4,4.1-6.1,7.2-8.2
		c2.3-1.5,4.6-3,7.1-4.1c1.4-0.6,3.1-0.2,4.7-0.3c0,0,0.1,0,0.1,0c0.7,0.5,1.4,1.2,2.2,0.7c1-0.6,2-1.3,2.7-2.2
		c2-2.9,4.7-4.9,7.8-6.3c2.9-1.2,5.9-2.3,9-3c4.2-0.9,8.5-1.2,12.6-0.1c4,1.1,7.7,2.9,10.9,5.7c1.4,1.2,3,2.3,4.6,3.4
		c3.2,2.1,6.1,4.5,8.5,7.5c0.5,0.6,1.1,1.1,1.7,1.6c0.3,0.2,0.6,0.5,0.8,0.7c2.5,3.4,4.9,6.8,7.5,10.1c1.7,2.1,3.4,4.2,5.5,6
		c2.5,2.2,4.4,4.9,6,7.9c1.3,2.5,2.6,5,4.1,7.4c1.2,2,2.9,3.8,4.1,5.8c2.7,4.5,5,9.2,6.1,14.3c0.4,2,0.4,4.2,0.5,6.2
		c0.1,2.9,0.1,5.9,0,8.8c-0.1,2.1-0.3,4.3-0.5,6.7c2.6,1.5,5.5,3,8.2,4.8c1.7,1.1,3.2,2.4,4.8,3.6c1.3,1,3.3,1,4.7,0.1
		c2-1.4,3.7-3.4,6.2-4.1c1.6-0.4,3.1-0.6,4.6,0.3c4,2.5,8.1,4.9,12,7.5c2.1,1.4,4.1,2.9,6,4.5c2.7,2.3,4.2,5.3,4.1,9
		c-0.1,3.9,0.3,7.7-0.6,11.5c-0.8,3.5-1.8,7-2,10.5c-0.4,5.6-2.7,10.7-4,16.1c-1,3.8-2.2,7.6-3.4,11.4c-0.1,0.2-0.1,0.3-0.1,0.5
		c0.1,1,0,2-1,2.5c-0.8,0.5-1.7,0.8-2.6,1.2c-0.1,1.3-0.1,2.9-0.3,4.4c-0.1,0.9-0.5,1.8-0.7,2.7c-1,3.1-2,6.2-3.1,9.3
		c-0.3,0.9-0.6,1.8-1,2.6c-1.4,2.6-2.1,5.5-2.5,8.3c-0.3,2.1-0.2,4.3-0.3,6.5c0,1.7-0.1,3.3,0,5c0.1,3.3-0.6,6.4-1.1,9.6
		c-0.4,2.5-1,2.3,1.8,2.3c8.4,0,16.8,0,25.2,0c0,0.6,0,1.3,0,1.9c-0.1,0-0.2,0-0.3,0c-11.3,0-22.5,0.1-33.8,0.1
		c-10.6,0-21.2,0-31.9,0.1c-14,0-28.1,0-42.1,0c-12,0-24.1-0.1-36.1-0.2c-5.6,0-11.3,0-16.9,0c-0.7,0-1,0.2-1.4,0.7
		c-1.1,1.6-2.3,3.2-3.4,4.7c-0.2,0.3-0.4,0.7-0.6,0.8c-1.7,0.7-3.4,1.2-5,1.9c-3.1,1.4-6.4,0.6-9.5,0.4c-1,0-2.2-0.6-3.1-1.2
		c-1.8-1.3-3.6-2.7-5.3-4.1c-0.7-0.6-1.4-1.3-2.1-2c-0.2-0.2-0.4-0.4-0.6-0.4c-1.4,0.1-2.7,0.3-4.1,0.4c-1,0.1-1.9,1.2-2.8,0.1
		c-0.4,0.2-0.7,0.3-1,0.4C0,226.1,0,225.2,0,224.3z M119.7,141.9c-2.7,1.3-5.2,2.6-7.7,3.8c-3.7,1.8-7.5,3.1-11.7,2.8
		c-1.7-0.1-3.5-0.1-5.2,0c-2.7,0.1-5.4-0.2-8-1.3c-2.1-0.9-4.3-1.7-6.1-3.1c-3.1-2.3-4.7-5.9-6-9.5c-0.3-0.9-0.5-1.9-0.5-2.9
		c0-1.6,0.2-3.2,0.3-4.9c0.1-1-0.3-1.2-1.2-0.9c-1.9,0.7-3.9,1.3-5.7,2c-0.8,0.3-1.6,0.8-2.1,1.4c-1.7,2.7-3.5,5.3-4.8,8.2
		c-1.2,2.6-1.8,5.4-2.7,8.1c-1.2,3.6-2.7,7.1-3.8,10.7c-1.6,5.3-2.9,10.6-4.3,16c-0.2,0.8-0.2,1.5,0.6,2.1c2,1.5,4,3,6,4.6
		c0.2-0.4,0.4-0.8,0.6-1.2c1.3-3.1,2-6.4,4-9.1c0.2-0.2,0.3-0.5,0.3-0.8c-0.1-2.5-0.2-5-0.3-7.5c-0.1-1.6-0.4-3.2-0.5-4.8
		c0-0.2,0.2-0.5,0.3-0.8c0.2,0.2,0.5,0.4,0.7,0.6c0.2,0.2,0.2,0.5,0.2,0.8c0.2,2.3,0.5,4.6,0.7,6.9c0.1,1.1,0.2,2.3,0.3,3.1
		c0.7,0.1,1.2,0.2,1.7,0.3c-0.1,0.4-0.2,0.9-0.5,1.2c-1.5,2.2-2.8,4.5-3.7,7c-1.1,2.9-2.3,5.7-3.6,8.6c-1.2,2.7-2.7,5.3-4,8.1
		c-1.1,2.3-2,4.7-2.9,7.1c-1.2,3.1-2.6,6.2-3.3,9.4c-0.5,2.1-0.9,4.1-2,5.9c-0.5,0.9-1,1.9-1.2,3c-0.5,1.8-1.1,3.4-2.5,4.7
		c-0.6,0.6-1.1,1.3-1.7,2.1c0.5,0,0.7,0,0.9,0c3.8,0,7.6,0,11.4,0c13.8,0,27.7-0.1,41.5-0.1c8.8,0,17.5,0,26.3,0
		c12.4,0,24.8,0,37.2,0c4.4,0,8.8,0,13.2,0c0.4,0,1-0.3,1-0.6c0.4-2.1,0.9-4.2,1.1-6.3c0.3-2.6,0.3-5.2,0.4-7.7
		c0.1-3.2,0.3-6.5,0.4-9.9c-0.7,0.9-1.3,1.6-2,2.3c-2.2,2.4-4.4,4.9-7.6,6c-0.2,0.1-0.4,0.2-0.6,0.4c-1.7,1.2-3.4,2.6-5.2,3.7
		c-2.3,1.5-5.7,1.1-7.5-0.9c-1.1-1.2-2-2.5-3-3.8c-2.1-2.7-4.4-5.2-5.9-8.3c-0.8-1.7-1.6-3.3-2.5-4.9c-2.2-4-4.7-7.8-6.4-12
		c-0.5-1.2-1.1-2.2-1.7-3.3c-0.1,0-0.3,0.1-0.4,0.1c0.3,2.2,0.5,4.5,1,6.6c0.9,3.8,1.6,7.6,1.6,11.6c0,4.6-0.7,8.9-3,13
		c-1,1.7-2.1,3.4-3.3,5.1c-0.6,0.9-1.1,0.8-1.6,0c2.8-3.2,4.8-6.7,5.9-10.8c1.3-5.2,1-10.4-0.1-15.6c-0.8-3.9-1.7-7.7-1.5-11.7
		c0.1-1.6-0.1-3-0.6-4.5c-0.1-0.3-0.2-0.7-0.3-1c-1.6-5-3.2-10-4.8-15.1c-0.4,0.3-0.5,0.4-0.6,0.5c-2.9,2.7-4.5,6.2-6.1,9.8
		c-2.1,4.8-4.1,9.7-6.6,14.3c-1.9,3.6-4.6,6.8-6.9,10.1c-0.2,0.2-0.7,0.2-1.4,0.4c0.3-0.7,0.4-1.1,0.6-1.4c0.2-0.4,0.5-0.9,0.8-1.2
		c5.6-6.3,8.7-13.9,11.9-21.5c1.8-4.4,3.7-8.7,7.4-11.8c0.2-0.2,0.3-0.7,0.3-1C121.6,149.8,120.7,145.9,119.7,141.9z M111.9,50
		c-0.1,1.5-0.5,3.1-0.2,4.5c0.7,3.5-0.6,6.8-0.6,10.2c0,0,0,0.1,0,0.1c-0.9,3.3-1.9,6.6-2.8,9.9c-0.6,2.2-1.3,4.3-1.6,6.5
		c-0.4,3.3-0.4,6.7-0.5,10.1c-0.1,3.3,0.8,6.4,2.2,9.4c1.7,3.7,3.9,7.2,4.2,11.5c0.1,1.4,0.8,2.8,1.2,4.2c1.1,4,2.2,8,3.3,12
		c0.6,2.2,1,4.4,1.8,6.5c1.7,4.5,3.2,9,4.3,13.7c0.6,2.6,1.1,5.3,2,7.8c2.1,5.7,4,11.4,5.4,17.3c0.4,1.8,1.4,3.4,2.2,5.1
		c1.5,3.1,3.1,6.3,4.7,9.3c1.3,2.5,2.8,5,4.2,7.5c1,1.7,1.8,3.6,3,5.2c1.6,2.4,3.4,4.6,5.2,6.9c2.1,2.7,5.5,3.9,8.2,0.4
		c1.2-1.5,2.8-2.4,4.6-3.1c0.8-0.3,1.6-0.7,2.3-1.3c1.7-1.6,3.4-3.2,5-4.9c3-3.2,5.2-6.8,6.4-11.1c1-3.3,2.2-6.4,3.2-9.7
		c0.3-0.9,0.5-1.9,0.5-2.9c0-4.6-0.3-9.2-0.1-13.8c0.1-2.1-0.6-3.2-2-4.4c-1.4-1.2-2.9-1.8-4.7-1.7c-3.5,0.3-7,0.6-10.5,0.9
		c0,0.1,0,0.2,0,0.2c0.1,0.2,0.2,0.4,0.4,0.5c1.8,2.3,3.6,4.5,4.6,7.3c1,2.8,2.4,5.5,3.4,8.3c0.7,1.7,1,3.6,1.5,5.4
		c0.1,0.5,0.1,1.2-0.6,1.3c-0.7,0.1-1-0.3-1.1-1c0-0.1-0.1-0.1-0.1-0.2c-0.8-2.6-1.5-5.3-2.5-7.8c-0.9-2.5-1.8-5.2-3.2-7.4
		c-1.7-2.8-3.8-5.2-5.9-7.7c-1.7-2-3.5-3.9-4.8-6.3c-1.9-3.6-3.9-7.2-6.4-10.5c-3.4-4.4-6-9.3-8-14.4c-1.5-3.8-3-7.5-4.6-11.2
		c-0.9-2.1-2-4.2-3-6.2c-0.4-0.9-1.1-1.9-1.2-2.9c-0.3-3.5-0.2-7,1.1-10.3c2-5.2,3.9-10.4,6.1-15.5c1.3-3,0.5-5.5-1-8.3
		c0,1.4,0.1,2.6,0,3.7c0,0.4-0.5,0.7-0.8,1.1c-0.2-0.4-0.7-0.7-0.7-1.1c-0.1-1.9,0-3.8,0-5.8c0-1.3-0.2-1.8-1.6-2.3
		c-0.1,0.4-0.3,0.7-0.3,1.1c-0.2,1.3-0.4,2.6-0.7,3.9c-0.1,0.4-0.6,0.7-1,1c-0.1-0.4-0.5-0.9-0.4-1.3c0.3-1.8,0.6-3.5,1.1-5.2
		c0.3-1.1-0.1-1.8-0.7-2.6c-0.9-1.1-1.8-2.2-2.7-3.3c-0.6-0.7-1.2-1.4-1.8-2.1c-0.2,1.7-0.1,3.2-0.2,4.7c0,0.3-0.5,0.7-0.7,1
		c-0.2-0.3-0.7-0.7-0.7-1c-0.1-1,0-2,0-3c0.1-1.5,0.3-3.1-1.6-3.8c0,0,0,0-0.1-0.1c-1.3-1.6-3.2-1.2-5-1.6c0,0.4,0,0.5,0,0.7
		c0.1,2.7,0.2,5.3,0.3,8c0,0.6,0,1.2-0.7,1.1c-0.3,0-0.7-0.7-0.8-1.1c-0.1-1.8-0.2-3.6-0.3-5.4c-0.1-1.2-0.1-2.3-0.2-3.5
		c0-0.2-0.1-0.5-0.2-0.5C115.8,50.8,114.2,49.9,111.9,50z M71.8,124.5c-0.9-0.9-1.8-1.6-2.6-2.4c-1.4-1.4-2.6-2.9-4-4.3
		c-4.2-4.1-7.9-8.7-11.4-13.4c-1.6-2.1-3.4-4-5.1-6.1c-0.9-1.1-1.5-2.4-2.2-3.6C46,93.9,45.6,93,45,92.2c-0.2-0.2-0.8-0.4-1-0.3
		c-0.2,0.2-0.4,0.7-0.4,1.1c0.4,3.2,1.2,6.4,1.2,9.6c0.1,4.4,0.7,8.9-0.8,13.2c-0.8,2.4-1,5-2.3,7.2c-1.4,2.5-2.6,5.1-3.6,7.7
		c-2.5,6-4.6,12.1-7,18.2c-0.9,2.2-1.9,4.4-3,6.5c-1.2,2.4-2.8,4.7-4,7.1c-2,4.1-3.8,8.2-5.7,12.3c-0.8,1.8-1.7,3.5-2.6,5.3
		c-1.9,3.6-3.8,7.3-5.6,10.9c-1.1,2.2-2.4,4.3-2.8,6.6c-0.7,3.8-0.7,7.7-0.9,11.5c-0.3,4.3,0.9,8.4,1.8,12.5
		c0.5,2.3,1.8,4.2,3.7,5.5c2.1,1.4,4.2,3.2,6.6,4.1c4.1,1.5,8.2,0.9,12-1.2c1.4-0.7,2.7-1.6,3.6-3.1c1.3-2.1,2.7-4.1,4.1-6.1
		c0.7-0.9,1.7-1.6,2.2-2.6c0.6-1.2,1.1-2.6,1.3-4c0.5-2.7,0.7-5.5,1.1-8.3c0.9-5.7,2-11.4,2.9-17.1c0.3-1.9,0.3-3.8,0.5-5.7
		c0.4-3.2,0.9-6.3,1.4-9.5c0.4-2.2,0.9-4.4,1.5-6.5c1.4-5.1,2.9-10.3,4.5-15.4c0.7-2.1,1.9-4.1,2.5-6.3c1.4-5.1,3.6-9.9,6-14.6
		c1.1-2.2,2.9-3.8,5.1-4.9C68.9,125.6,70.3,125.1,71.8,124.5z M56.1,92.2c0.3-0.1,0.8-0.3,1.3-0.6c0.3-0.1,0.7-0.3,1-0.5
		c0.2-0.1,0.5-0.2,0.7-0.2c0.2,0,0.4,0.1,0.5,0c2.1-0.7,4.3-0.5,6.4-0.4c1.1,0,1.8,0.8,2,1.7c0.1,0.6-0.4,1.4-0.8,2
		c-0.2,0.4-0.7,0.5-1.1,0.8c-1.8,1.1-3.5,2.3-5.3,3.3c-1,0.5-2.1,0.8-3.2,1c-1.2,0.1-2.4,0-3.6-0.1c-0.7-0.1-0.8,0.3-0.7,0.8
		c0.1,0.3,0.2,0.5,0.4,0.7c2.3,3.1,4.4,6.3,6.8,9.2c2.5,3,5.1,5.8,7.8,8.6c1.7,1.7,3.5,3.4,5.5,4.8c1.4,1,3.1,1.7,4.7,2.5
		c1,0.5,2,0.8,3,1.2c1.9,0.7,3.8,1.3,5.7,1.9c2.1,0.8,4.1,1.8,6.3,2.4c2.2,0.6,4.5,0.9,6.6-0.3c1.7-1,3.4-2,4.9-3.3
		c2.2-2,4.3-4.2,6.4-6.3c0.8-0.8,1.1-1.6,0.6-2.8c-0.4-0.9-0.6-1.9-0.7-2.9c-0.8-5.1-2.6-9.7-4.9-14.3c-1.6-3.2-2.5-6.7-2.4-10.4
		c0.1-2.1,0-4.2,0.2-6.3c0.2-2.4,0.5-4.8,1-7.2c1.1-4.4,2.3-8.7,3.5-13c0.2-0.6,0.3-1.2,0.3-1.9c0.1-1.2-0.4-1.5-1.6-1.1
		c-1.1,0.3-2.2,0.8-3.4,0.9c-2.7,0.2-5.4,0.3-8.1,0.2c-1.6-0.1-3.5-0.4-4.7-1.3c-2.1-1.7-4.3-3.1-6.8-4.3c-3.6-1.6-7.3-2.5-11.1-3.1
		c-3.6-0.6-7.2-1-10.8-1.5c-1.3-0.2-2.6-0.3-3.8-0.7C57.1,51,56,49.2,55,47.4c-1.7-3.3-3.3-6.7-4.9-10.1c-0.3-0.7-0.7-1.5-0.7-2.3
		c0-4.2-0.5-8.4,1.2-12.4c0.1-0.3,0-0.8-0.2-0.9c-0.2-0.2-0.8-0.1-1,0.1c-0.5,0.6-1.2,1.3-1.3,2c-0.3,3.5-0.5,7-0.7,10.5
		c0,1,0.2,2,0.5,3c0.8,2.3,1.8,4.6,2.7,7c0.1,0.4,0.3,0.7,0.5,1c1.2,2,2.5,3.9,3.8,5.9c0.5,0.8,0.6,1.5,0.1,2.3
		c-0.4,0.7-0.7,1.4-1,2.1c-1.6,3.6-3.1,7.2-4.7,10.8c-1.1,2.4-2.4,4.8-3.5,7.2c-0.9,2.1-2.2,4.1-2.5,6.3c-0.4,3.1-0.6,6.4,1.8,9
		c0.4,0.5,0.8,0.7,1.3,0.4c1.7-1.3,3.7-1.5,5.7-1.9c0.5-0.1,0.9-0.2,1.4-0.3c3.1-0.1,6.2,0,9.2-0.2c3.2-0.2,8.5,3.3,9.6,6.6
		c1,3,1.8,6,1.9,9.2c0,1.8,0.2,3.6,0.2,5.4c0,0.7,0.4,1.2,1.1,1.1c0.7-0.1,1.3-0.4,2-0.5c0.7-0.1,1.6-0.3,2.2-0.1
		c1.7,0.6,2.8,0,3-1.8c0.2-2.2,1.6-3.6,3.7-3.9c0.2,0,0.5,0.1,0.6,0.2c0.1,0.1,0.1,0.5,0,0.7c-0.1,0.2-0.3,0.4-0.5,0.7
		c2-0.3,2.5-1,2.1-2.6c-0.4-1.7-1.7-2.4-3.2-2.9c-0.3-0.1-0.6-0.2-0.9-0.4c0-0.2,0-0.3,0.1-0.5c0.5,0,1.1-0.2,1.5,0
		c2.2,1,3.6,2,3.6,4.8c0,0.9-0.3,1.7-1.2,1.9c-1,0.3-2,0.5-3,0.7c-0.9,0.2-1.7,0.3-1.8,1.6c-0.1,1.8-1.5,3.1-3,2.8
		c-1.5-0.3-2.8-0.1-4.2,0.4c-1.7,0.6-3.3-0.4-3.2-2.4c0.1-3.6-0.3-7.2-1-10.7c-1-4.8-3.8-7.7-8.4-8.9c-1.1-0.3-2.4-0.2-3.6,0
		c-1.4,0.2-2.7,0.8-4.1,1.1c-2.8,0.5-5.4,1.4-7.9,2.7c-0.2,0.1-0.5,0.7-0.4,0.9c0.4,0.8,0.9,1.7,1.5,2.4c0.8,1,1.8,2,2.8,3
		c1-2.2,2-4.1,3.8-5.3C56.1,92.9,56.1,92.6,56.1,92.2z M149.2,97.1c-0.2,0.6-0.3,1.1-0.5,1.6c-1.3,3.2-2.7,6.5-4.1,9.7
		c-1.4,3.1-2.9,6.2-4.3,9.3c-0.2,0.4-0.3,1-0.1,1.4c0.4,1.3,0.9,2.7,1.5,3.9c1.5,3,2.9,6.1,4.6,9c2.2,3.6,4.6,7,6.9,10.4
		c1.7-3.6,3.4-7.1,5.1-10.7c1.1,0.6,0.7,1.4,0.3,2.1c-1.2,2.6-2.5,5.3-3.7,7.9c-0.4,0.8-0.8,2-0.5,2.7c1.6,3.6,3.6,6.9,6.6,9.5
		c0.3,0.2,0.7,0.5,1.1,0.4c1.6-0.1,3.1-0.3,4.7-0.4c2-0.2,3.9-0.4,5.9-0.5c1.4,0,2.9,0,4.1,0.6c2.5,1.2,4.6,3,6,5.5
		c0.8,1.5,1.4,3,2.2,4.7c0.8-2.5,1.6-4.8,2.3-7.2c1.1-3.6,2.3-7.3,3.2-11c0.7-2.8,1-5.7,1.5-8.5c0.4-2.4,1-4.9,1.5-7.3
		c0.3-1.3,0.6-2.6,0.6-4c0.1-2.7,0-5.4,0-8.1c0-2.6-0.9-4.9-2.8-6.6c-1.7-1.6-3.6-3.1-5.5-4.4c-2.8-1.9-5.8-3.5-8.8-5.3
		c-0.2-0.1-0.7-0.1-0.8,0c-1.4,1.3-2.7,2.6-4,3.9c-1.2,1.2-2.5,2.4-3.8,3.6c-0.2,0.2-0.6,0.1-0.9,0.1c0-0.3-0.1-0.7,0-1
		c0.1-0.2,0.3-0.4,0.5-0.6c1-0.9,2-1.8,3-2.8c1.3-1.2,2.5-2.4,3.8-3.5c0.3-0.2,0.6-0.3,1-0.4c-0.1-0.2-0.2-0.3-0.3-0.5
		c-1.2-0.6-2.3-1.6-3.5-1.9c-1.9-0.5-3.6,0.5-5.1,1.8c-2.1,1.7-4.4,3.2-5.6,5.8c-0.1,0.2-0.3,0.3-0.4,0.5c-2.1,2-4.2,4.1-6.3,6.1
		c-0.2,0.2-0.6,0.3-0.8,0.2c-0.2-0.1-0.4-0.5-0.4-0.7c0-0.3,0.2-0.7,0.4-0.9c1.5-1.4,3-2.8,4.6-4.2c1.1-1,2.4-1.7,2.8-3
		c-1.2-0.4-2.3-0.7-3.4-1.2c-0.6-0.3-1.1-0.9-1.6-1.3C154,99.8,151.7,98.2,149.2,97.1z M113.7,121.9c-1.2,1.1-2.3,2.2-3.5,3.2
		c-0.8,0.8-1.8,1.5-2.5,2.4c-1.9,2.4-4.3,4.1-7,5.3c-2.8,1.3-5.6,0.4-8.4-0.1c-1.4-0.3-2.5-1.3-3.9-1.9c-1.8-0.8-3.8-1.4-5.6-2.1
		c-0.1,0.1-0.2,0.2-0.4,0.3c0.1,1.5-0.1,3.2,0.4,4.6c1,2.9,3.2,4.9,6.1,6.1c2.1,0.8,4.3,1.2,6.6,1.4c2.8,0.2,5.4-0.2,7.9-1
		c3.8-1.2,7.5-2.8,10.9-4.9c2.4-1.4,2.4-1.3,1.8-4c0-0.1,0-0.1,0-0.2C115.2,128.1,114.4,125,113.7,121.9z M76.1,126.3
		c0,1.4,0.1,2.6,0,3.9c-0.2,2.6,0.9,4.8,1.9,7.1c0.8,1.9,2.2,3.5,3.8,5c1.4,1.3,3.1,1.9,4.7,2.6c2.4,1.1,4.9,1.8,7.6,1.7
		c1.4-0.1,2.9,0,4.4,0.1c3.2,0.2,6.3,0.1,9.3-1.1c3.8-1.7,7.6-3.5,11.4-5.3c-0.5-1.5-1-2.9-1.6-4.3c-0.4,0.2-0.7,0.3-0.9,0.4
		c-2.8,1.4-5.6,2.9-8.5,4.1c-3.3,1.4-6.7,2.8-10.4,2.4c-1.7-0.2-3.5-0.3-5.2-0.4c-3.1-0.3-6-1.1-8.3-3.4c-1.6-1.5-3.1-3.2-3.4-5.5
		c-0.2-1.6,0-3.2,0-4.7C79.3,128,77.9,127.3,76.1,126.3z M139,116.3c0.1,0,0.3,0,0.4,0c3.1-6.5,6.2-13,8.6-19.8
		c-1.2-0.9-2.2-1.6-3.4-2.4c-0.2,0.5-0.3,0.9-0.5,1.2c-0.9,1.9-1.8,3.9-2.8,5.8c-0.4,0.7-0.9,1.2-1.3,1.9c-1.2,2-2.3,3.9-3.4,5.9
		c-0.2,0.3-0.4,0.8-0.3,1.2C137.2,112.1,138.1,114.2,139,116.3z M45.3,205c3.1-8.5,6.6-16.7,10.7-24.5c-2.2-1.7-4.2-3.2-6.4-4.9
		C48.1,185.5,46.7,195.3,45.3,205z M34.2,135.3c-0.1,0-0.1-0.1-0.2-0.1c-0.6,0.8-1.1,1.5-1.7,2.3c-2.2,2.6-4.5,5.3-6.8,7.9
		c-0.5,0.6-0.5,1.8,0,2.3c0.9,0.9,1.9,1.8,3.2,2.9C30.6,145.3,32.4,140.3,34.2,135.3z M58.2,93.4c-0.1,0-0.3-0.1-0.3,0
		c-1.1,1.2-2.2,2.3-3.2,3.6c-0.1,0.1,0.3,0.8,0.6,0.8c1,0.2,2,0.3,3,0.2c1.1-0.1,2-0.6,2.8-1.5C58.5,95.7,58.3,95.5,58.2,93.4z
		 M182,162.1c0,2.8,0,5.5,0,8.2c1.6-0.2,1.8-0.5,1.8-1.9C183.9,166.1,182.9,164.2,182,162.1z M64.8,92.1c0.1,0.7-0.4,1.7,0.7,1.8
		c0.3,0,1-0.7,1-1.1C66.5,91.7,65.6,92.1,64.8,92.1z"/>
	<path class="st0" d="M81.8,78.1c1.7-0.8,3.3-1.6,5-2.4c2-0.9,4.2-0.7,6.3-0.7c2.2,0,2.1-0.1,1.3,1.9c-1.8,4.3-5.1,6.6-9.4,7.9
		c-1.1,0.4-2.3,0.8-3.4,1.3c-0.9,0.4-1.5,0.1-1.3-0.8c0.4-2,0.9-4,1.4-6c0.1-0.3,0.1-0.6,0.2-0.8C82,78.3,81.9,78.2,81.8,78.1z
		 M87.3,82.7c0-0.1,0-0.2,0-0.3c-1.8-0.4-3.1-1.4-3.5-3.5c-1.3,1.8-1.4,3.6-2,5.6C83.8,83.8,85.5,83.2,87.3,82.7z M91.3,79.5
		c0.3-0.3,0.7-0.6,0.9-1c0.3-0.6,0.5-1.2,0.7-1.8c-0.5-0.1-1.1-0.1-1.6-0.2c-0.1,0-0.3,0.1-0.3,0.1C91.1,77.5,91.2,78.4,91.3,79.5z"
		/>
	<path class="st0" d="M79.9,121.3c0.1-0.3,0.1-0.7,0.3-0.9c0.7-1.2,1.3-2.4,2.2-3.5c0.3-0.4,1-0.8,1.6-0.8c1.2-0.1,2.1-0.5,2.7-1.6
		c0.7-1.2,1.8-1.6,3.2-1.7c1.8-0.1,3.7-0.5,5.5-0.9c2-0.4,4.1-1,6.1-1.5c0.2-0.1,0.7,0.1,0.7,0.2c0.1,0.3,0,0.7-0.1,0.8
		c-2.4,2.3-4.7,4.7-7.2,6.9c-1.5,1.2-3.3,2.1-5.1,2.9c-1.8,0.9-3.8,0.6-5.8,0.4C82.5,121.4,81.3,121.4,79.9,121.3z M98.7,112.9
		c-3.2,1.1-6.1,2.2-8.8,4c-0.9,0.6-1.9,1-2.9,1.4c-1.2,0.5-2.5,1-3.7,1.5c0,0.1,0.1,0.3,0.1,0.4c0.6,0.1,1.3,0.3,1.9,0.4
		c2.3,0.2,4.4-0.5,6.4-1.7C94.3,117.3,96.7,115.5,98.7,112.9z M94,113.3c-0.9-0.5-1.8-0.2-2.8,0.2c-0.3,0.1-0.8,0.1-1.1,0.2
		c-0.8,0.3-1.9,0.4-2.3,1c-1,1.6-2.5,2-4.1,2.4c-0.6,0.1-1.7,1.3-1.6,1.8c0,0.2,0.4,0.5,0.6,0.5c0.3,0,0.6-0.2,0.8-0.5
		c0.8-1.1,2-1.4,3.3-1.7c0.5-0.1,1-0.2,1.5-0.5C90.2,115.6,92.1,114.4,94,113.3z"/>
	<path class="st0" d="M73.4,80.6c-0.4-0.1-0.8-0.2-1.1-0.4c-0.2-0.1-0.4-0.5-0.4-0.8c0-0.2,0.3-0.5,0.5-0.6c1.9-0.1,2.9-1.5,4.1-2.7
		c2.4-2.6,4.8-5.1,8.1-6.6c1.6-0.7,3.3-1.1,5-1.6c0.7-0.2,1.3-0.4,2-0.5c0.4-0.1,0.8,0.1,1.1,0.2c-0.2,0.3-0.4,0.7-0.7,0.8
		c-2.8,1.5-5.8,2.7-8.2,4.9c-0.7,0.7-1.4,1.5-2,2.3c-1.9,2.4-4.6,3.5-7.3,4.7C74.2,80.5,73.8,80.5,73.4,80.6z"/>
</g>
</svg>
