<?xml version="1.0" encoding="utf-8"?>
<!-- Generator: Adobe Illustrator 19.2.1, SVG Export Plug-In . SVG Version: 6.00 Build 0)  -->
<svg version="1.1" id="Layer_1" xmlns="http://www.w3.org/2000/svg" xmlns:xlink="http://www.w3.org/1999/xlink" x="0px" y="0px"
	 viewBox="0 0 168.9 200" style="enable-background:new 0 0 168.9 200;" xml:space="preserve">
<style type="text/css">
	.st0{fill:#FF5722;}
</style>
<g id="swimear-girl_1_">
	<path class="st0" d="M168,149.8c-0.7-0.4-1.5-0.7-2.2-0.9c-1.1-0.4-2.1-0.9-2.6-2c-0.4-0.9-0.9-1.9-1.4-2.8
		c-0.4-0.7-0.9-0.7-1.6-0.5c-0.3,0.1-0.7,0.1-1,0.1c-1.2-0.2-2.4-0.5-3.6-0.6c-1.3-0.1-2.6,0-3.9,0c-2.3,0-4.5-0.3-6.8,0.2
		c-0.1-0.2-0.2-0.4-0.3-0.6c-0.7-1.2-1.3-2.5-2-3.6c-1.2-1.9-2.7-3.6-3.6-5.7c-0.2-0.5-0.5-0.9-0.8-1.3c-1-1.5-1.9-2.9-2.9-4.4
		c-0.8-1.2-1.6-2.5-2.4-3.7c-0.7-1.1-1.4-2.2-2.1-3.3c-0.7-1.3-1.4-2.7-2.1-4.1c-0.4-0.7-0.8-1.4-1.1-2.1c-1.3-2.9-2.8-5.7-3.8-8.7
		c-0.3-0.7-0.6-1.5-0.9-2.2c-0.3-0.9-0.3-1.7,0.4-2.4c0.3-0.4,0.6-0.8,0.9-1.2c2-2.8,3.4-5.9,4.2-9.3c0.3-1.4,0.7-2.8,0.9-4
		c1-0.3,1.7,0.3,2.4,0.8c1.1,0.8,2.3,1.3,3.6,1.7c0.4,0.1,0.8,0.3,1.1,0.5c1.1,0.6,2.3,1.2,3.4,1.9c1.6,1,3.2,1.9,4.7,2.9
		c0.9,0.6,1.8,1.2,2.7,1.9c0,0,0,0.1-0.1,0.1c-0.9,0.8-1.8,1.6-2.7,2.4c-1.6,1.4-3.2,2.8-4.7,4.2c-1.1,1.1-2.3,2.1-2.6,3.8
		c-0.1,0.4-0.2,0.9,0.3,1c0.5,0.1,0.6-0.3,0.8-0.6c0.2-0.6,0.4-1.2,0.8-1.7c1-1.1,2.2-2.1,3.2-3.2c2.4-2.3,4.9-4.5,7.2-6.9
		c1.1-1.2,2.5-2.2,3.8-3.3c1-0.8,2.1-1.3,3.4-0.9c1.7,0.4,3.1,1.1,4.4,2.3c1,0.9,2.1,1.8,3.3,2.5c1.4,0.8,2.8,1.4,4.3,2.1
		c0-0.1,0-0.2,0-0.3c0.2-1,0.2-1.1-0.8-1.5c0,0-0.1,0-0.1,0c-1.7-0.5-3.1-1.4-4.5-2.5c-1.8-1.4-3.3-3-5.7-3.6
		c-1.4-0.3-2.7-0.4-4.1,0.3c-1.8,1-3.2,2.4-4.7,3.7c-0.6,0.5-1.5,0.7-2.1,0.3c-0.8-0.5-1.5-1.2-2.4-1.7c-2.6-1.5-5.3-3.1-7.9-4.6
		c-0.3-0.2-0.6-0.3-0.9-0.4c-1.2-0.3-2.3-0.8-3.3-1.5c-0.8-0.6-1.6-1.3-2.6-1.2c0.4-2,0.8-3.9,1-5.9c0.2-1.7,0.4-3.4,0.5-5
		c0.1-2,0.1-4,0-5.9c-0.1-1.4-0.2-2.8-0.5-4.2c-0.3-1.5-0.7-3-1.1-4.5c-0.2-0.5-0.4-1.1-0.7-1.6c-0.4-0.7-0.9-1.2-1.3-1.9
		c-1.4-3-3.4-5.7-5.3-8.3c-0.7-1-1.4-2-2.1-3.1c-0.7-1.1-1.2-2.3-1.9-3.4c-0.8-1.3-1.6-2.5-2.5-3.7c-1.2-1.7-2.6-3.3-3.8-5
		c-1-1.5-2.2-2.8-3.3-4.1c-0.8-0.9-1.8-1.7-2.6-2.7c-1.5-1.8-3-3.8-4.5-5.6c-0.4-0.5-0.7-1-1.1-1.4c-1.4-1.4-2.7-2.8-4.1-4.2
		c-0.6-0.6-1.3-1.3-1.8-2c-1.6-2.1-3.2-4.3-5.3-6c-1.3-1-2.4-2.2-3.7-3.2c-1.1-0.9-2.3-1.5-3.7-1.8c-1.3-0.3-2.7-0.4-3.9-0.8
		c-1-0.3-1.9-0.3-2.9-0.3c-0.1,0-0.2-0.1-0.3-0.1c-1.4-0.2-2.9-0.5-4.3-0.6c-2.9-0.2-5.7,0.2-8.5,0.8c-3.7,0.8-7,2.5-9.9,4.8
		c-1.6,1.3-3.1,2.7-4.7,4.1c-0.2,0.2-0.5,0.3-0.7,0.3c-0.3,0-0.6-0.1-0.9-0.2c-3.5-0.5-6.6,0.6-9.4,2.7c-1.3,1-2.6,2.1-3.8,3.2
		c-1.2,1.1-2.3,2.1-3.4,3.3c-1.3,1.5-2.5,3-3.7,4.6c-1.4,1.8-2.7,3.7-3.6,5.8c-0.6,1.3-1,2.6-1.6,3.9c-0.7,1.5-1.1,3.1-1.4,4.7
		c-0.9,4.9-2.4,9.6-3,14.6c-0.2,1.6-0.4,3.2-0.4,4.8c0,3.3-0.2,6.5-0.5,9.8c-0.1,1.5-0.3,3.1-0.1,4.6c0.2,2,0,3.9-0.2,5.8
		c-0.2,2.1-0.5,4.3-0.7,6.4c-0.1,2.3-0.1,4.6-0.2,6.9c0,1-0.2,1.9-0.2,2.9c0,1.5-0.3,3,0.2,4.4c0.5,1.5,1,3.1,2.2,4.3
		c1.4,1.5,2.7,3.2,4.1,4.7c1.9,2,2.7,4.5,2.9,7.2c0.1,1.3,0.2,2.6,0.6,3.9c0.5,1.8,1.1,3.6,1.7,5.4c0.3,1,0.5,2-0.2,3
		c-0.4,0.6-0.8,1.2-1.2,1.9c-1.4,2.5-2.7,5.1-4.1,7.6c-0.4,0.7-0.8,1.4-1,2.2c-0.3,1.7-0.3,1.8,1.2,2.6c0.5,0.3,1,0.5,1.6,0.7
		c-0.5,0.9-1,1.7-1.3,2.5c-1.1,2.6-2.5,5-3.4,7.7c-0.6,1.6-1.6,3-2.3,4.5c-1.1,2.3-2.3,4.6-3.9,6.7c-1.9,2.6-3.5,5.4-5,8.2
		c-1,1.9-2,3.9-2.9,5.9c-0.6,1.4-1.2,2.7-1.7,4.2c-0.3,0.9-0.3,1.9-0.5,2.9c-0.1,0.8-0.4,1.5-0.5,2.3C0,188.4,0,190.2,0,192.1
		c0,2.5-0.1,5,0.8,7.5c0,0.1,0,0.3,0,0.4h1.4c-0.6-1.2-0.9-2.5-0.9-3.8c-0.1-2.9-0.1-5.9,0-8.8c0-0.8,0.4-1.6,0.6-2.4
		c0.1-0.6,0.3-1.3,0.4-1.9c0.1-0.6,0.1-1.2,0.5-1.8c0.2-0.3,0.1-0.8,0.2-1.1c0.2-0.7,0.5-1.3,0.8-2c1.1-2.3,2.2-4.6,3.4-6.9
		c1.4-2.6,2.9-5.1,4.6-7.5c1.2-1.7,2.2-3.5,3.2-5.4c0.8-1.4,1.6-2.9,2.3-4.4c0.8-1.7,1.5-3.5,2.3-5.2c0.9-1.9,1.9-3.8,2.8-5.7
		c1-2.1,2.1-4.1,3-6.3c1-2.6,2.3-5,3.4-7.6c0.8-1.9,1.6-3.9,2.2-5.9c0.8-2.4,1.8-4.7,3-7c0.9-1.7,1.9-3.4,2.2-5.4
		c0.4-2.2,0.5-4.5,0.1-6.7c-0.4-2.4-0.8-4.8-1.1-7.3c-0.2-1.4-0.1-2.8,0-4.2c0-0.9,1.1-1.9,2.2-2.1c0.8-0.2,1.7-0.3,2.5-0.3
		c0.6,0,1.2,0.3,1.7,0.6c0.7,0.4,1.2,0.9,1.8,1.3c0.3,0.3,0.7,0.5,0.9,0.9c1.6,2,3.1,4,4.6,6c1.6,2.2,3,4.5,4.6,6.7
		c1.5,2.1,2.9,4.2,4.8,5.9c0.9,0.8,1.7,1.7,2.5,2.6c0.2,0.3,0.6,0.4,1,0.6c0.3,0.2,0.7,0.4,1,0.6c0,0.1,0,0.1,0,0.2
		c-0.3,0.1-0.7,0.2-1,0.3c-1.1,0.3-2.2,0.6-3.3,0.9c-1.9,0.5-3.3,1.6-4,3.5c-0.8,2.2-1.6,4.5-2.5,6.7c-0.2,0.4-0.4,0.8-0.6,1.2
		c-1.4,2.4-2.5,5-3.4,7.7c-1,3-1.9,6-2.8,9c-0.4,1.4-0.7,2.8-1.1,4.2c-0.4,1.6-0.7,3.1-1,4.7c-0.5,2.6-1.1,5.1-1.6,7.7
		c-0.4,2-0.8,4.1-1.2,6.1c-0.3,1.8-0.5,3.7-0.6,5.5c-0.2,2-0.7,4-1.1,5.9c-0.4,1.8-0.6,3.6-0.9,5.4c-0.2,1-0.3,2.1-0.5,3.1
		c-0.2,1.4-0.3,2.7-0.6,4.1c-0.3,1.6-0.7,3.1-1.1,4.7c-0.1,0.4-0.2,0.8,0.3,0.9c0.5,0.2,0.7-0.2,0.8-0.6c0.7-2.2,1.2-4.5,1.5-6.8
		c0.2-2,0.6-4.1,0.9-6.1c0.3-2.8,1.1-5.4,1.7-8.1c0.2-0.8,0.2-1.7,0.3-2.5c0.2-1.5,0.3-3,0.5-4.4c0.2-1.5,0.5-2.9,0.8-4.4
		c0-0.1,0.1-0.3,0.2-0.6c1.4,1.9,3.7,2.6,5.5,4c-0.7,1.3-1.5,2.6-2.1,3.9c-0.9,1.9-1.7,3.9-2.4,5.9c-0.8,2.1-1.5,4.2-2.2,6.4
		c-0.7,2.2-1.2,4.5-1.9,6.8c-0.4,1.4-1,2.7-1.4,4.1c-0.5,1.8-1.3,3.3-2.3,4.8h1.6c0.1-0.2,0.1-0.4,0.2-0.6c0.9-1.5,1.5-3,1.9-4.7
		c0.2-0.9,0.7-1.7,0.9-2.6c0.4-1.6,0.7-3.2,1.1-4.7c0.6-1.8,1.3-3.6,1.9-5.4c0.4-1.1,0.7-2.2,1.1-3.3c0.6-1.7,1.2-3.3,1.9-4.9
		c0.9-2,2.1-3.8,3.1-5.8c0.5-1.1,1.1-2.1,1.5-3.2c0.9-2.3,2.1-4.5,3.6-6.5c0.6-0.8,1.3-1.4,1.9-2.1c0.4-0.4,0.7-0.8,1-1.1
		c0.2-0.3,0.6-0.5,0.7-0.8c0.1-0.3,0.1-0.6,0.2-0.9c-0.3,0-0.6-0.2-0.9-0.1c-0.3,0.1-0.5,0.4-0.7,0.6c-0.5,0.5-1,1.1-1.5,1.6
		c-1.3,1.2-2.2,2.7-3.2,4.1c-0.9,1.4-1.6,2.9-2.2,4.4c-0.4,1-0.9,2-1.4,3c-0.5-0.3-1-0.7-1.6-1c-1.3-0.7-2.5-1.4-3.5-2.5
		c-0.3-0.3-0.6-0.7-0.8-1.1c-0.1-0.3,0-0.7,0-1c0.3-1.2,0.6-2.3,0.8-3.5c0.3-1.3,0.4-2.7,0.7-4c0.3-1.6,0.7-3.1,1-4.7
		c0.4-1.9,0.9-3.7,1.6-5.5c0.5-1.3,0.7-2.7,1.1-4.1c0.6-1.8,1.1-3.7,1.9-5.4c0.9-2.1,2-4.1,2.9-6.2c0.6-1.4,1.1-2.8,1.7-4.2
		c0.5-1.2,0.9-2.3,1.4-3.5c0.6-1.6,2-1.8,3.3-2.2c0.5,1.6,1,3,1.6,4.5c0.3,0.7,0.6,1.3,1,1.9c1.2,1.9,1.9,4,2.3,6.2
		c0.3,1.8,0.7,3.6,1.1,5.4c0,0.2,0.2,0.4,0.3,0.5c0.2,0.1,0.5,0.2,0.6,0.1c0.1-0.1,0.3-0.4,0.2-0.6c-0.8-2.2-1-4.5-1.5-6.8
		c-0.3-1.7-0.9-3.3-1.8-4.7c-1.1-1.7-1.7-3.6-2.4-5.5c-0.1-0.3-0.1-0.8,0-1.1c0-0.1,0.2-0.3,0.4-0.4c1.1-0.3,2.2-0.6,3.4-0.9
		c0.2,0,0.4,0,0.6,0c1.2,0.4,2.3,0.9,3.5,1.2c0.9,0.3,1,1.1,1.2,1.8c0.4,1.2,0.5,2.4,0.8,3.6c0.6,2.4,1.1,4.8,1.7,7.2
		c0.7,2.6,2.1,4.5,4.8,5.5c2.7,1,5.4,1.3,8.2,1.2c2-0.1,3.9-0.1,5.9-0.3c1.1-0.1,2.3-0.3,3.4-0.5c2.1-0.4,4.3-0.7,6.3-1.2
		c1.7-0.4,3.3-1.1,4.9-1.7c0.6-0.2,1.1-0.6,1.7-1c0.2,0.9,0.4,1.8,0.6,2.6c0.3,0.9,0.6,1.8,0.8,2.8c0.4,1.8,0.8,3.6,1.3,5.4
		c0.2,0.7,0.3,1.4,0.5,2c0.9,2.8,1.8,5.5,2.7,8.3c0.4,1.2,1.1,2.4,1.5,3.7c0.6,2,1.1,3.9,1.6,5.9c0.3,1.1,0.9,2.1,1.4,3.1
		c0.9,1.6,1.6,3.3,2.4,5c0.9,2,1.8,4.1,2.7,6.1c0.5,1.2,1,2.5,1.6,3.8c0.2,0.5,0.6,0.9,0.8,1.3c1,1.8,1.9,3.6,3.1,5.3
		c1.3,1.9,2.8,3.7,4.4,5.4c0.9,0.9,2,1.7,3,2.5c1,0.8,2.2,0.8,3.4,0.9c1.4,0.1,2.8-0.2,4-0.8c3-1.5,6-3.1,8.6-5.1
		c1.8-1.4,3.4-3,4.7-4.8c1.1-1.4,2-3,3.1-4.6c-0.1,1.1-0.2,2.1-0.3,3.1c-0.3,2.5-1.1,4.9-1,7.5c0.1,1.5,0.3,2.9,0.4,4.4
		c0.1,1.2,0.1,2.4,0.2,3.6h1.2c0-0.9-0.1-1.8-0.1-2.7c-0.1-1-0.1-2-0.3-3c-0.3-2-0.3-3.9,0.1-5.9c0.3-1.4,0.5-2.8,0.8-4.2
		c0.2-1.1,0.3-2.2,0.5-3.3c0.1-0.6,0.4-1.2,0.6-1.8c0.5-1.6,0.9-3.2,1.3-4.8c0.4-1.5,0.8-3.1,1.1-4.7c0.2-1.2,0.4-2.5,0.6-3.7
		c0.2-1,0.4-2,0.5-3c0.1-1.4,0.1-2.7,0.1-4.1c0-0.6,0-1.3,0.1-1.9c0.3-1.6,0.3-3.3,0-4.9c-0.1-0.6-0.1-1.2-0.2-2
		c1.2,0.6,2.4,1.1,3.5,1.6C168.9,150.4,168.9,150.3,168,149.8z M27.2,129.8c-0.6,1.4-1.1,2.8-1.8,4.1c-1,1.8-1.6,3.7-2.4,5.5
		c-0.2,0.5-0.5,0.9-0.7,1.4c-0.5-0.3-1-0.5-1.4-0.7c-1.3-0.6-1.1-0.7-0.7-1.8c0.3-0.9,0.9-1.6,1.3-2.5c1.1-2.1,2.2-4.3,3.4-6.4
		c0.4-0.8,1-1.5,1.6-2.5c0.2,0.6,0.3,1,0.5,1.5c0.1,0.3,0.3,0.7,0.4,1C27.3,129.5,27.3,129.7,27.2,129.8z M69.2,117.5
		c-1.3-0.5-2.6-1-3.9-1.5c-0.3-0.1-0.6-0.3-0.9-0.5c-0.5-0.3-1-0.7-1.5-0.9c-0.8-0.3-1.4-0.8-1.9-1.4c-0.8-0.9-1.7-1.6-2.5-2.5
		c-1.4-1.7-2.7-3.4-4-5.1c-1.2-1.6-2.3-3.2-3.4-4.8c-0.6-0.9-1.3-1.8-1.9-2.7c-1.1-1.4-2.1-2.8-3.2-4.2c-0.2-0.3-0.7-0.5-0.4-1.1
		c0.3-0.5,0.7-0.7,1.3-0.7c0.2,0,0.5,0,0.7,0c2,0.2,3.9-0.3,5.7-1.3c1.7-0.9,3.4-1.8,5-2.8c0.9-0.5,1.1-1.4,1.2-2.3
		c0-0.2-0.2-0.4-0.3-0.5c-0.8-0.6-1.8-0.7-2.8-0.8c-1.3-0.2-2.6-0.1-3.8,0.2c-0.5,0.1-1,0.3-1.5,0.6c-0.9,0.5-1.7,1.1-2.5,1.7
		c-1.2,1-1.9,2.3-2.7,3.7c-0.3,0.6-0.6,1.2-1,2c-0.3-0.3-0.5-0.6-0.7-0.8c-1-1-2.1-2-3-3c-1.8-1.9-0.6-3.3,1-4.3
		c0.7-0.4,1.5-0.6,2.3-0.8c1.2-0.4,2.4-0.7,3.6-1.1c0.6-0.2,1.3-0.3,1.9-0.5c0.4-0.1,0.7-0.3,1-0.5c0.1-0.1,0.2-0.4,0.1-0.5
		c-0.1-0.1-0.3-0.3-0.5-0.3c-0.7,0.1-1.4,0.1-2.1,0.3c-1.5,0.4-2.9,0.7-4.5,0.8c-0.5,0-1,0.1-1.5,0.2c-1.3,0.5-2.8,0.8-4,1.8
		c-0.5,0.4-0.9,0.3-1.1-0.3c-0.5-1.5-1.1-2.9-1.3-4.4c-0.2-1.1,0-2.3,0.1-3.4c0.2-1.4,0.4-2.9,0.8-4.3c0.4-1.6,1-3.2,1.7-4.8
		c1.1-2.8,2.2-5.7,3.5-8.5c0.8-1.8,2-3.5,3.1-5.2c0.8-1.2,1.8-2.3,2.8-3.4c0.1-0.1,0.2-0.3,0.2-0.4c-0.3-0.8-0.6-1.5-0.9-2.3
		c-1.4-3.6-3.7-6.9-5.2-10.5c-1.3-3.1-1.9-6-1.6-9.3c0.3-3.1,2-6.5,1.8-9.6c-0.1-1.3,1.9-1.2,1.9,0c0.1,2.1-0.7,4.1-1.1,6.1
		c-0.6,2.8-0.8,5.3-0.4,7.8c0.1,0.4,0.2,0.8,0.4,1.1c0.8,2.3,1.8,4.5,2.7,6.7c0.1,0.2,0.1,0.3,0.2,0.5c0.9,1.7,1.9,3.4,2.7,5.3
		c0.3,0.7,0.5,1.3,0.7,2c0.4,0.5,0.9,0.9,1.4,1.3c0.2,0.2,0.6,0.3,0.9,0.3c1.2,0,2.3,0,3.5,0c0.4,0,0.7,0.1,1.1,0.1
		c0.7,0.1,1.5,0.2,2.2,0.3c1.3,0.3,2.6,0.5,3.9,0.9c3.7,1,7.4,2.1,10.9,3.9c2.3,1.2,4.6,2.3,7,3.3c2.5,1,5.1,1.7,7.9,1.6
		c2.1-0.1,4.1,0,6.2-0.1c0.8,0,1.5-0.2,2.3-0.2c0.3,0,0.8,0,1,0.2c0.2,0.1,0.1,0.6,0,0.9c-0.6,2.1-1.3,4.2-2,6.4
		c-1,3.4-1.8,6.8-2.2,10.2c-0.3,2.4-0.2,4.8,0.1,7.3c0.2,2,0.4,4,0.6,6c0.1,1.9,0.7,3.6,1.8,5.2c0.9,1.4,1.9,2.8,2.3,4.5
		c0.4,1.4,0.7,2.9,1.1,4.3c0.4,1.7,0.9,3.4,1.3,5.1c0.1,0.5,0.1,1.1-0.1,1.6c-0.6,1.4-1.2,2.8-1.9,4.1c-2,3.1-4.2,6.1-7.6,7.8
		c-1.4,0.7-2.8,1.1-4.4,1.2c-1.9,0.1-3.5-0.4-5.2-1.1c-1.8-0.8-3.7-1.6-5.6-2.2c-1.1-0.4-2.3-0.5-3.4-0.9
		C71.5,118.3,70.4,117.9,69.2,117.5z M53.1,90.1c-1.2,0.4-2.3,1-3.5,1.2c-0.9,0.2-1.9,0-2.8,0c-0.1,0-0.3-0.3-0.2-0.4
		c0.7-1.5,1.5-3,3-4c0.1-0.1,0.2-0.1,0.3-0.2c0.1,0,0.1,0,0.3,0c0,0.8,0.2,1.6,0.9,2.1C51.7,89.3,52.4,89.7,53.1,90.1z M52.2,86.6
		c0-0.4,0.2-0.7,0.9-0.7c0.2,0,0.4,0.2,0.4,0.6c0,0.5-0.3,0.7-0.7,0.7C52.5,87.3,52.2,87.1,52.2,86.6z M55.4,85c1.1,0,2,0,2.8,0.4
		c0.5,0.2,0.6,0.8,0.3,1.4c-0.3,0.5-1.5,1.3-2.2,1.5C56.9,86.9,56.5,85.9,55.4,85z M101,111.6c0.1-0.3,0.3-0.6,0.6-1.1
		c0.3,1.4,0.5,2.5,0.8,3.7c0.5,2.2,1.1,4.3,2,6.4c0.5,1.4,0.8,2.8,1.1,4.2c0.1,0.4,0.2,1-0.6,1c-0.1,0-0.4,0.2-0.4,0.4
		c0,0.7-0.6,0.9-1.1,1.2c-1.6,0.9-3.3,1.3-5.1,1.7c-2.2,0.5-4.4,1.1-6.6,1.5c-2.9,0.5-5.8,0.7-8.7,0.1c-1.7-0.3-3.3-1.1-4.7-2.1
		c-1.7-1.2-2.6-3-3.3-4.9c-0.3-1.1-0.6-2.3-0.9-3.5c1.7,0.1,3.1,0.8,4.6,1.4c2.9,1.2,5.6,2.8,8.9,2.3c1.7-0.2,3.4-0.7,4.8-1.7
		c1.2-0.8,2.4-1.7,3.4-2.7c0.9-0.9,1.6-2,2.4-3C99.5,115,100.3,113.3,101,111.6z M100.9,134.4c-2.1,0.6-4.2,0.8-6.4,1.2
		c-3.6,0.7-7.2,0.7-10.8,0.8c-2.5,0.1-4.8-0.4-7.1-1.4c-2-0.8-2.9-2.5-3.4-4.4c-0.7-2.7-1.3-5.4-2-8.2c-0.2-0.9-0.5-1.8-0.8-2.7
		c0-0.2,0-0.3,0-0.6c0.8,0.2,1.6,0.3,2.1,0.6c0.4,0.3,0.5,1,0.6,1.6c0.6,2.6,1.2,5.2,3.2,7.2c2,2,4.5,3.1,7.2,3.6
		c1.3,0.2,2.7,0.3,4,0.2c2.2-0.1,4.4-0.3,6.6-0.9c2.4-0.7,4.7-1.2,7.1-1.8c1.6-0.4,3.2-1.1,4.4-2.4c0.4,1.4,0.8,2.9,1.2,4.3
		C105.4,133.4,103,133.8,100.9,134.4z M164.2,158.9c-0.1,0.9-0.1,1.9-0.1,2.8c0,1.4-0.3,2.8-0.5,4.2c-0.3,1.5-0.4,3-0.7,4.5
		c-0.5,2.2-1.2,4.3-1.8,6.5c-0.2,0.7-0.5,1.3-0.8,2c-0.1,0.2-0.4,0.4-0.6,0.5c-0.1,0.1-0.3,0.2-0.3,0.3c-0.3,0.5-0.6,1.1-0.9,1.6
		c-0.8,1.3-1.5,2.5-2.4,3.7c-2.5,3.4-5.7,6-9.4,7.9c-1.6,0.8-3.2,1.7-4.8,2.5c-1,0.5-2.2,0.3-3.3,0.3c-1.2,0-2-0.6-2.9-1.3
		c-3.2-2.5-5.7-5.7-7.7-9.3c-0.9-1.7-2-3.4-2.9-5.1c-0.6-1.2-1-2.4-1.5-3.6c-1.4-3.2-2.8-6.4-4.3-9.5c-0.2-0.4-0.5-0.8-0.7-1.2
		c-0.6-1.1-1.1-2.2-1.3-3.4c-0.1-0.9-0.5-1.7-0.7-2.5c-0.6-2.6-1.9-5-2.7-7.5c-1-2.9-1.8-5.8-2.7-8.8c-0.4-1.6-0.7-3.2-1.1-4.8
		c-0.2-0.8-0.6-1.6-0.9-2.5c-0.8-2.8-1.5-5.7-2.2-8.5c-0.5-2-0.8-4.1-1.3-6c-0.4-1.3-1-2.6-1.4-4c-0.6-2-0.9-4-1.5-6
		c-0.4-1.4-0.8-2.7-1.2-4c-0.6-2.3-1.2-4.6-1.8-6.9c-0.3-1.1-0.5-2.2-0.9-3.2c-0.4-0.9-0.8-1.9-1.5-2.6c-1.7-2.2-2.3-4.7-2.4-7.4
		c0-2-0.5-4-0.6-6c-0.1-1.6-0.2-3.2,0-4.8c0.4-2.8,1-5.6,1.6-8.3c0.3-1.5,0.9-3,1.3-4.5c0.5-1.7,1-3.4,1.6-5.1
		c0.2-0.7,0.4-1.4,0.6-2c0.7-2.4,0.7-4.8,0.4-7.2c-0.1-0.6-0.3-1.2-0.4-1.7c-0.1-0.2-0.1-0.4-0.1-0.6c0-0.6-0.2-1.2,0.4-1.6
		c0.6-0.4,1.2-0.3,1.9,0c0.4,0.2,0.8,0.5,1.2,0.6c2.4,0.6,3.5,2.5,3.7,4.7c0.2,2.1,0.3,4.2,0.4,6.4c0,0.5,0,1.1,0.1,1.6
		c0,0.2,0.3,0.4,0.5,0.5c0.1-0.2,0.4-0.4,0.4-0.6c0-0.4-0.1-0.8-0.1-1.2c0-1.3,0-2.5-0.1-3.8c-0.1-1.6-0.3-3.1-0.5-4.7
		c0-0.2-0.1-0.3-0.1-0.6c0.3,0.1,0.5,0.2,0.7,0.3c1.1,0.9,2.1,1.7,3.1,2.6c0.7,0.6,1.4,1.3,2.2,1.8c0.7,0.5,0.8,1.1,0.8,1.8
		c0,0.9,0,1.8,0,2.8c0,0.2,0,0.3,0,0.5c0.1,0.2,0.3,0.4,0.5,0.5c0.1-0.2,0.4-0.4,0.4-0.6c0-1.1,0-2.3,0-3.5c0.3,0.2,0.5,0.3,0.8,0.5
		c1.3,0.7,2,2,2.9,3.1c0.4,0.5,0.9,1,1.4,1.5c0.6,0.7,0.7,1.6,0.6,2.5c-0.1,1-0.4,2-0.6,3c0,0.1,0,0.1,0,0.2c0,0.3,0,0.7,0.4,0.7
		c0.2,0,0.5-0.3,0.5-0.6c0.1-0.6,0.2-1.1,0.3-1.7c0.1-0.4,0.3-0.9,0.4-1.4c1.1,0.4,2.1,0.7,2.7,1.9c0.8,1.5,1.3,3.1,1,4.7
		c-0.2,1.5-0.6,2.9-1.1,4.4c-0.5,1.5-1,3-1.6,4.5c-0.7,1.7-1.6,3.4-2.3,5.1c-1.2,3-2,6.2-2,9.5c0,3.2,0.7,6.2,2.3,9.1
		c0.6,1.1,0.8,2.3,1.3,3.4c1.2,3,2.3,6,3.8,8.8c1.1,2,2.2,4.1,3.2,6.2c0.9,2,2.1,3.6,3.3,5.4c1.3,2,2.5,4.1,3.8,6.1
		c0.5,0.8,1.2,1.5,1.7,2.4c0.4,0.6,0.7,1.4,1.1,2c0.8,1.3,1.7,2.5,2.5,3.7c0.8,1.2,1.3,2.5,2.1,3.7c1.5,2.5,3.1,4.9,4.6,7.4
		c0.4,0.7,1.2,1.2,1.6,1.9c0.8,1.3,1.4,2.7,2.1,4c0.2,0.3,0.4,0.7,0.6,1c1.3,1.5,2.3,3.2,3.1,5c0.3,0.7,0.5,1.4,0.6,2.1
		c0.1,0.4,0.3,0.7,0.8,0.6c0.5-0.2,0.5-0.5,0.3-1c-0.3-0.7-0.4-1.5-0.7-2.2c-0.8-1.9-1.9-3.5-3.1-5.1c-0.6-0.8-1-1.8-1.5-2.7
		c-0.7-1.5-1.7-2.7-2.7-4c-1.4-1.8-2.7-3.9-4-5.8l0.1-0.3c0.9,0,1.9-0.1,2.8-0.1c2.7,0,5.4,0,8.1,0.1c0.8,0,1.5,0.4,2.2,0.5
		c0.5,0.1,1,0.1,1.5,0c0.3-0.1,0.5,0,0.6,0.2c0.4,0.8,0.7,1.6,1.2,2.3c0.4,0.6,1,1.1,1.3,1.7c0.3,0.6,0.6,1.2,0.7,1.9
		c0.2,1.3,0.3,2.6,0.2,3.9C164.5,156.2,164.3,157.6,164.2,158.9z"/>
	<path class="st0" d="M81.9,70.3c0.3,0,0.7,0,1,0c0.5-0.1,1.1-0.2,1.6-0.3c0.2,0,0.4,0,0.6,0.1c0,0.2,0,0.5-0.1,0.6
		c-1.3,0.8-1.9,2.1-2.9,3.2c-1.2,1.3-2.3,2.7-3.9,3.4c-1.7,0.8-3.6,1.3-5.5,1.6c-0.3,0-0.6,0.3-0.8,0.4c-0.2,0.1-0.5,0.2-0.6,0.2
		c-0.2-0.1-0.4-0.4-0.4-0.6c0-0.5,0.1-0.9,0.2-1.4c0.2-0.7,0.4-1.3,0.6-2c0.3-1.3,1-2.4,1.9-3.3c0.4-0.4,1.1-0.6,1.7-0.8
		c1.3-0.3,2.6-0.6,4-0.9C80.2,70.3,81,70.3,81.9,70.3C81.9,70.2,81.9,70.2,81.9,70.3z M74.1,73.7C73.2,74.4,72,77,72,78.2
		c1.8-0.4,3.5-0.8,5.3-1.2c0-0.1,0-0.1,0-0.2C75.5,76.4,74.3,75.6,74.1,73.7z M80,71.5c0.8,0.6,0.9,1.5,0.9,2.5c0,0,0.1,0,0.1,0
		c0.6-0.8,1.2-1.5,1.8-2.3C82.3,71.2,80.9,71,80,71.5z M77.5,73.2c0-0.4-0.3-0.7-0.6-0.6c-0.3,0.1-0.6,0.5-0.7,0.8
		c0,0.1,0.4,0.6,0.6,0.6C77.2,74,77.5,73.7,77.5,73.2z"/>
	<path class="st0" d="M61.2,74.5c0-0.8,0.6-1.4,1.3-1.4c0.3,0,0.8,0,1-0.2c1.4-1,2.9-1.9,4.2-3c2.2-1.8,4.2-3.9,6.7-5.3
		c1.2-0.7,2.4-0.8,3.6-1.2c0.7-0.2,1.4-0.4,2.1-0.6c0.2,0,0.3-0.1,0.5,0c0.2,0.1,0.5,0.3,0.6,0.4c0,0.2-0.2,0.5-0.4,0.6
		c-1.1,0.4-2.1,0.9-3.2,1.2c-1.3,0.4-2.3,1-3.2,1.9c-1.7,1.7-3.3,3.5-5.1,5.1c-0.7,0.6-1.5,1.1-2.3,1.5c-1,0.5-2.1,1-3.1,1.5
		c-0.6,0.3-1.4,0.5-2,0.1C61.5,75,61.3,74.7,61.2,74.5z"/>
	<path class="st0" d="M75.9,113.3c-1.8-0.1-3-0.1-4.3-0.2c-0.2,0-0.3,0-0.5,0c-0.2,0-0.4,0-0.5-0.1c-0.1-0.1-0.1-0.4,0-0.6
		c0.7-1.1,1.3-2.2,2-3.3c0.7-1,1.5-1.7,2.9-1.6c0.6,0.1,0.9-0.3,1-0.8c0.4-0.9,1-1.3,1.9-1.6c2.2-0.8,4.5-0.8,6.7-1.2
		c1.3-0.2,2.6-0.5,4-0.8c0.2,0,0.5,0,0.5,0.1c0.1,0.2,0.1,0.4,0,0.6c-1.2,2.2-2.7,4.3-4.8,5.9c-1.2,0.9-2.5,1.7-3.9,2.3
		c-0.9,0.4-1.8,0.5-2.8,0.7C77.4,113,76.4,113.2,75.9,113.3z M72.5,112.2c0.6,0.7,6.4,0.2,8.2-0.6c3.3-1.6,6.1-3.7,7.8-7.1
		c-0.2,0-0.4,0-0.6,0.1c-1.2,0.5-2.4,0.9-3.6,1.4c-1.3,0.5-2.5,1-3.6,1.8c-1,0.7-1.9,1.7-3.2,1.8C75.5,109.9,74.2,111.4,72.5,112.2z
		 M71.7,111.6c0.1,0.1,0.1,0.2,0.2,0.2c0.3-0.2,0.7-0.3,1-0.5c0.6-0.4,1.2-0.9,1.8-1.3c0.8-0.6,1.7-0.9,2.7-1c1.3-0.1,2.1-1,3.1-1.7
		c1.3-0.9,2.7-1.7,4.3-2.1c0.4-0.1,0.8-0.3,1.2-0.5c0-0.1,0-0.1,0-0.2c-0.2,0-0.5,0-0.7,0c-0.4,0-0.7,0.1-1,0.2
		c-1.9,0.3-3.8,0.3-5.6,1c-0.7,0.3-1.2,0.6-1.5,1.3c-0.3,0.8-0.8,1.2-1.7,1.2c-0.8,0-1.5,0.3-2,1C72.9,110.1,72.3,110.8,71.7,111.6z
		"/>
	<path class="st0" d="M64.8,97.9c-0.1,0.7-0.1,1.3-0.2,2c-0.1,0.8,0.2,1.2,1.1,1.1c1.1-0.2,2.1-0.4,3.2-0.5c0.5-0.1,1,0,1.5,0.1
		c0.8,0.1,1.2,0,1.7-0.7c0.6-1,1.3-2,1.9-3c0.5-0.9,1.3-1.3,2.3-1.2c0.2,0,0.3,0,0.5,0c1.2,0,1.9-1,1.2-2.1c-0.4-0.7-1-1.4-2-1.4
		c-0.1,0-0.4-0.2-0.4-0.3c0-0.1,0.1-0.3,0.3-0.4c0.2-0.1,0.4,0,0.6,0c1.6,0.4,2.7,1.8,2.3,3.6c-0.1,0.4-0.6,0.8-1.1,1.1
		c-0.3,0.2-0.8,0.1-1.2,0.1c-0.8,0-1.4,0.3-1.8,1c-0.6,0.9-1.2,1.9-1.9,2.8c-0.5,0.8-1.2,1.3-2.2,1.1c-1.5-0.3-2.9,0-4.3,0.3
		c-1.7,0.4-2.5-0.4-2.3-2.1c0.2-1.4,0.1-2.9-0.2-4.3c-0.1-0.5-0.1-1-0.2-1.5c0-0.1,0.1-0.3,0.2-0.4c0.1,0,0.3,0,0.4,0.1
		c0.1,0.1,0.2,0.3,0.2,0.5C64.5,95.4,64.6,96.7,64.8,97.9z"/>
</g>
</svg>
