<?xml version="1.0" encoding="utf-8"?>
<!-- Generator: Adobe Illustrator 19.2.1, SVG Export Plug-In . SVG Version: 6.00 Build 0)  -->
<svg version="1.1" id="Layer_1" xmlns="http://www.w3.org/2000/svg" xmlns:xlink="http://www.w3.org/1999/xlink" x="0px" y="0px"
	 viewBox="0 0 150.4 150" style="enable-background:new 0 0 150.4 150;" xml:space="preserve">
<style type="text/css">
	.st0{fill:#E91E63;}
</style>
<g id="earinfection-girl">
	<path class="st0" d="M65.7,149.9c-5.7,0-11.3,0-16.9,0c-0.2-0.8-0.4-1.7-0.5-2.5c-0.3-1.6-0.6-3.1-0.8-4.7
		c-0.1-0.8-0.3-1.6-0.3-2.5c0-2.5,0-5.1,0-7.6c0-0.9,0.2-1.8,0.3-2.7c0-0.5,0-1,0-1.4c0-0.1,0-0.3,0-0.4c0.5-0.7,0.3-1.5,0.5-2.2
		c0.4-1.7,0.3-3.4,0.4-5.1c0-0.5,0.1-1.1,0.2-1.6c0-0.2-0.1-0.4-0.2-0.5c-0.6-0.5-1.2-0.9-1.7-1.4c-0.5-0.5-1.1-1-1.6-1.5
		c-0.3-0.3-0.4-0.7-0.2-1.1c0.2-0.6,0.4-1.1,0.5-1.7c0-0.2,0-0.5-0.1-0.8c-0.6-1.2-1.3-2.3-1.9-3.5c-0.2-0.3-0.2-0.6-0.3-1
		c-0.1-0.3-0.1-0.5-0.3-0.7c-0.8-0.8-1.6-1.6-2.2-2.7c-0.6-1.1-0.9-2.3-0.8-3.5c0-0.6-0.2-0.8-0.7-1.1c-0.5-0.3-1-0.8-1.5-1.3
		c-0.2-0.2-0.3-0.2-0.5-0.1c-0.6,0.4-1.2,0.9-1.8,1.3c-1.1,0.8-2.1,1.6-3.1,2.4c-1.3,1-2.8,1.8-4.3,2.5c-1,0.4-1.8,1.1-2.7,1.7
		c-1.3,0.9-2.5,1.8-3.9,2.7c0.4,0.2,0.7,0.5,1.1,0.6c1,0.5,1.8,1.2,2.4,2.1c1,1.5,2.1,2.8,3.4,3.9c1.4,1.3,2.7,2.8,3.7,4.3
		c1.2,1.7,2.1,3.6,2.9,5.6c0.7,1.9,1.5,3.7,2.2,5.6c0.3,0.7,0.5,1.3,0.7,2c0.1,0.3,0.2,0.5-0.2,0.7c-0.3,0.1-0.5-0.1-0.6-0.4
		c-0.7-1.9-1.4-3.8-2.2-5.7c-0.6-1.5-1.2-3.1-1.9-4.6c-0.6-1.2-1.2-2.4-2.1-3.5c-1.3-1.6-2.7-3.1-4.1-4.5c-1-1-1.9-2.2-2.7-3.4
		c-0.3-0.5-0.8-0.9-1.2-1.2c-0.7-0.5-1.5-0.9-2.3-1.2c-1-0.3-2-0.5-3-0.8c-0.5-0.1-1-0.1-1.5,0.1c-1.9,0.6-3.8,1.2-5.6,2.2
		c-0.6,0.3-1.1,0.7-1.6,1c-0.8,0.5-1.1,1.3-1.2,2.2c-0.4,2.2-0.7,4.4-1.1,6.5c-0.2,1.1-0.6,2.2-0.8,3.3c-0.5,2-0.9,4.1-1.4,6.1
		c0.6,0,1.1,0.1,1.7,0.2c0.2,0,0.5,0.1,0.7,0.2c2,0.7,3.9,1.5,5.9,2.2c1.9,0.7,3.7,1.8,5.6,2.5c1.3,0.4,2.5,1,3.7,1.7
		c1.4,0.8,2.8,1.7,4.1,2.6c1.1,0.8,2,1.7,3,2.6c1.7,1.5,3.4,3,5.1,4.6c0.8,0.8,1.6,1.7,2.3,2.5c0.1,0.1,0.2,0.2,0.3,0.4
		c0.3-0.5,0.6-1,0.9-1.4c0.1-0.1,0.1-0.2,0.1-0.3c0-0.8,0-1.6,0-2.4c-0.1-1.1-0.2-2.2-0.4-3.4c-0.2-1.1-0.4-2.2-0.5-3.4
		c0-0.2-0.1-0.4,0-0.6c0.1-0.2,0.3-0.3,0.4-0.3c0.1,0,0.3,0.2,0.3,0.4c0.2,1.2,0.4,2.5,0.6,3.7c0.2,1.5,0.5,3,0.4,4.5
		c0,0,0,0.1,0.1,0.2c0.2-0.5,0.5-1.1,0.6-1.6c0.3-1,0.5-2,0.7-3c0.1-0.4,0.1-0.9,0.1-1.3c0.2-1.5,0.4-2.9,0.6-4.4
		c0.1-0.9,0.2-1.8,0.4-2.6c0.1-0.6,0.3-1.2,0.3-1.8c0.1-0.4,0.1-0.9,0.1-1.3c0-0.3,0.1-0.6,0.4-0.6c0.4,0,0.5,0.3,0.5,0.6
		c0,0.6-0.1,1.3-0.2,1.9c-0.1,0.8-0.3,1.6-0.4,2.3c-0.2,1-0.4,2-0.5,2.9c-0.2,1-0.3,2-0.4,3c-0.2,2.9-0.8,5.7-2.6,8.1
		c-0.2,0.3-0.4,0.7-0.6,1c0,0,0,0.1-0.1,0.1c-0.2,0.2-1.5,0-1.7-0.2c-1.4-1.6-2.8-3.1-4.4-4.4c-1-0.8-1.9-1.7-2.9-2.5
		c-0.6-0.6-1.2-1.2-1.9-1.8c-1.2-0.9-2.4-1.6-3.6-2.5c-1.2-0.9-2.6-1.4-4-2c-1.8-0.8-3.6-1.7-5.4-2.5c-0.4-0.2-1-0.3-1.4-0.5
		c-0.8-0.3-1.7-0.8-2.5-1.1c-0.6-0.3-1.3-0.4-1.9-0.6c-0.7-0.3-1.5-0.6-2.2-0.7c-0.5-0.1-1,0-1.5,0c-0.1,0-0.2,0.1-0.2,0.2
		c-0.5,1.5-1.3,3-2.1,4.3c0,0.1-0.1,0.1-0.1,0.2c0.8,0,1.5,0,2.3,0c1.3,0.1,2.5,0.5,3.7,0.9c1.6,0.5,3.1,1,4.7,1.5
		c1.5,0.5,2.9,1.2,4.1,2.1c1.2,0.9,2.4,1.9,3.6,2.8c0.7,0.5,1.4,0.9,2.1,1.4c0.2,0.2,0.4,0.4,0.7,0.6c0.5,0.5,1,0.9,1.4,1.4
		c0.7,0.7,1.2,1.5,1.9,2.3c0.3,0.4,0.6,0.7,0.9,1.1c-0.8,0.2-1.1,0.1-1.5-0.5c-0.8-1.1-1.7-2.1-2.7-3c-0.6-0.5-1-1.1-1.6-1.5
		c-1.3-0.9-2.6-1.8-3.9-2.8c-0.8-0.5-1.5-1.1-2.2-1.7c-1-0.8-2.3-1.2-3.5-1.6c-1.7-0.6-3.5-1.1-5.2-1.7c-1.5,1.7-2.1,3.7-2.5,5.8
		c-0.4,2-0.9,3.9-1.3,5.9c-0.1,0.4-0.2,0.8-0.3,1.2c-0.3,0-0.5,0-0.9,0c0.3-1.2,0.6-2.3,0.8-3.5c0.2-1.1,0.5-2.1,0.7-3.2
		c0-0.1,0-0.2-0.1-0.3c-0.2-0.4-0.5-0.8-0.8-1.2c-0.1-0.1-0.3-0.2-0.4-0.4c-0.1-0.1-0.2-0.3-0.2-0.4c-0.1-0.3-0.2-0.7-0.4-1
		c-0.2-0.5-0.5-1-0.8-1.5c-0.4-0.9-0.2-1.7,0.3-2.5c0.5-0.7,0.9-1.5,1.4-2.2c0.8-1.4,1.3-2.9,1.6-4.4c0.3-1.7,0.7-3.4,1.1-5
		c0.2-0.9,0.5-1.8,0.7-2.7c0.3-1.4,0.5-2.8,0.7-4.2c0.3-1.5,0.5-3,0.8-4.4c0.1-0.7,0.7-1.1,1.2-1.5c0.5-0.3,1-0.7,1.5-1
		c2-1.1,4.1-1.9,6.3-2.4c0.7-0.2,1.4-0.2,2.2,0.1c1.5,0.6,2.8,0.4,4-0.6c1.3-1,2.6-2,4-2.8c1-0.6,2.2-1,3.2-1.7
		c1.4-0.9,2.6-1.8,3.9-2.8c1.2-0.9,2.3-1.7,3.5-2.6c0.2-0.2,0.3-0.3,0.2-0.5c-0.1-0.6-0.2-1.1-0.3-1.7c-0.1-0.2-0.3-0.5-0.5-0.6
		c-0.8-0.6-1.3-1.3-1.7-2.2c-0.3-0.8-0.8-1.5-0.6-2.4c0-0.3,0.1-0.7,0.2-1c0.1-0.2,0.1-0.4-0.2-0.5c-1.7-1-2.3-2.6-2.4-4.5
		c0-0.9-0.1-1.8,0.3-2.7c0-0.1-0.1-0.3-0.2-0.5c-0.8-1-1.5-2.1-1.9-3.3c-0.4-1.2-0.5-2.6-0.2-3.8c0.2-0.7,0-1.1-0.4-1.6
		c-0.6-0.7-1.1-1.5-1.8-2.2c-1-1-2.2-1.8-3.6-2.2c-1.1-0.3-2.1-0.5-3.2-0.7c-0.3-0.1-0.7-0.2-1-0.4c-0.7-0.4-1-1-0.7-1.8
		c0.2-0.6,0.5-1.1,0.7-1.7c-1.3-0.9-2.4-2.1-3.3-3.5c-0.4-0.7-0.9-1.3-1.3-2c-0.6-0.9-1.1-1.9-1.6-2.8c-0.6-1.1-1.2-2.3-1.7-3.4
		c-0.2-0.3-0.2-0.7-0.4-1c-0.5-1.2-1-2.4-1.4-3.6c-0.4-1.5-0.7-3.1-1-4.6c-0.2-1.1-0.3-2.1-0.5-3.2c-0.1-1-0.2-1.9-0.3-2.9
		c0-0.5-0.1-0.9-0.2-1.4c-0.1-2.7,0.3-5.3,1.1-7.8c0.3-0.9,0.4-1.9,0.7-2.8c0.3-1,0.7-1.9,1.2-2.8c0.5-0.8,0.8-1.7,1-2.6
		c0.4-1.7,0.9-3.3,1.7-4.9c0.5-1,1.3-1.5,2-2.2c1.2-1,2.4-1.9,3.8-2.5c0.5-0.2,1.1-0.3,1.7-0.5c0.1,0,0.2-0.1,0.2-0.2
		c0.6-1.1,1.4-1.9,2.3-2.7c1-0.8,2-1.6,3-2.3c1-0.6,2.1-1,3.2-1.4c0.9-0.3,1.9-0.6,2.8-0.9c0.6-0.1,1.2-0.2,1.8-0.3
		c1.2-0.2,2.4-0.3,3.6-0.5c1.1-0.2,2.3-0.3,3.4-0.5c2-0.4,4-0.2,6-0.2c1.4,0,2.8,0.3,4.2,0.4c1.3,0.1,2.4,0.5,3.7,0.7
		c0.7,0.1,1.3,0.2,1.9,0.5c0.6,0.3,1.1,0.6,1.6,1.1c0.3,0.3,0.4,0.3,0.7-0.1c0.3-0.6,1.3-1,2-0.8c0.9,0.3,1.8,0.6,2.6,1.2
		c0.9,0.6,1.9,1.1,3,1.4c1.3,0.3,2.5,0.9,3.6,1.7c1.6,1.1,3.1,2.1,4.7,3.1c1.5,0.9,2.6,2.2,3.7,3.5c0.2,0.2,0.4,0.4,0.6,0.6
		c1.5,1.3,2.8,2.9,4,4.5c0.6,0.8,1.4,1.3,2.2,1.9c0.9,0.8,1.9,1.4,2.8,2.2c0.8,0.7,1.4,1.5,1.9,2.5c0.2,0.3,0.4,0.5,0.7,0.8
		c0.1,0.1,0.2,0.2,0.2,0.4c0.6,1.7,1.2,3.4,1.9,5.1c0.4,1,0.8,2,1.2,2.9c0.7,1.4,1.6,2.7,3,3.6c0.8,0.5,1.5,1.1,2.3,1.6
		c1.2,0.8,2.5,1.4,3.9,1.8c1.4,0.4,2.8,0.8,4.2,1.2c0.3,0.1,0.5,0.1,0.8,0.1c0.9,0.1,1.8,0.2,2.8,0.3c0.8,0.1,1.7,0.2,2.5,0.3
		c1.7,0.1,3.5,0.1,5.2,0.3c1.7,0.1,3.4,0.4,5.1,0.6c1.8,0.2,3.5,0.4,5.3,0.6c0.9,0.1,1.8,0.3,2.8,0.4c0.7,0.1,1.3,0.2,2,0.2
		c1.7,0.1,3.4,0.2,5,0.3c1.5,0.2,2.9,0.4,4.3,0.7c1.6,0.3,3.2,0.6,4.9,0.6c0.6,0,1.2,0.1,1.8,0.2c0,0.3,0,0.5,0,0.8
		c-1.4-0.1-2.8-0.3-4.1-0.3c-1.3,0-2.5-0.5-3.8-0.7c-1.2-0.2-2.4-0.4-3.6-0.5c-1.3-0.1-2.7-0.2-4.1-0.3c-1.2-0.1-2.3-0.3-3.4-0.4
		c-1.1-0.1-2.2-0.2-3.2-0.3c-0.7-0.1-1.3-0.2-2-0.3c-1.5-0.2-3-0.5-4.5-0.6c-1.3-0.1-2.6-0.2-4-0.3c-1.7-0.1-3.3-0.3-5-0.4
		c-1.2-0.1-2.4-0.4-3.6-0.4c-1.2,0-2.3-0.4-3.4-0.8c-1.1-0.4-2.2-0.6-3.3-0.9c-1.7-0.5-3.1-1.6-4.5-2.6c-0.7-0.5-1.5-1-2.1-1.7
		c-0.9-0.9-1.6-2-2.1-3.2c-0.4-1-0.8-2-1.2-3c-0.4-1.2-0.8-2.3-1.3-3.5c-0.2-0.6-0.6-1.1-0.9-1.7c-0.1-0.1-0.2-0.2-0.2-0.4
		c-0.7-1.5-1.8-2.6-3.1-3.6c-1-0.8-2.1-1.5-3-2.4c-0.6-0.5-1-1.2-1.5-1.8c-1-1.1-2-2.3-3-3.4c-0.8-0.9-1.7-1.8-2.6-2.7
		c-0.1-0.1-0.2-0.3-0.3-0.4c-0.4,0.3-0.7,0.6-1,0.8c-0.1,0.1-0.3,0.1-0.5,0.1c0-0.2-0.1-0.4,0-0.5c0.1-0.2,0.3-0.4,0.5-0.5
		c0.4-0.3,0.4-0.3,0-0.6c-0.8-0.5-1.7-1.1-2.5-1.6C72,8,71,7.2,69.8,6.5C69,6,68.1,5.6,67.2,5.3c-1-0.4-2.1-0.6-3.1-1.2
		c-0.2-0.1-0.3-0.1-0.5,0c-0.8,0.4-1.7,0.4-2.5,0c-0.3-0.2-0.7-0.3-1.1-0.5c-0.2,0.2-0.2,0.4,0.1,0.6c0.5,0.5,1.1,0.8,1.7,1.1
		c1.6,0.5,2.9,1.3,4.1,2.5c1.1,1.1,2.5,1.9,4,2.4c1,0.4,1.7,1,2.5,1.8c0.6,0.6,1.3,1.1,1.8,1.7c1.3,1.3,2.7,2.5,3.7,4
		c0.7,1,1.5,1.9,2.4,2.7c0.6,0.5,1,1.2,1.5,1.9c0.2,0.2,0.3,0.5,0.4,0.7c0,0.1-0.1,0.4-0.1,0.5c-0.2-0.1-0.4-0.1-0.5-0.2
		c-0.3-0.3-0.4-0.8-0.7-1.1c-0.5-0.6-0.9-1.2-1.5-1.7c-1-0.8-1.6-1.9-2.4-2.8c-0.8-0.9-1.7-1.9-2.6-2.8c-1.2-1.2-2.4-2.3-3.7-3.4
		c-0.3-0.2-0.6-0.4-1-0.5c-1.4-0.6-2.9-1.2-4.1-2.4C65.2,9,64.4,9,63.6,8.9c-0.8-0.1-1.3-0.8-1.9-1.4c-0.1,0.6-0.1,1.2,0.3,1.7
		c0.6,0.8,1.2,1.6,1.9,2.3c1.3,1.2,2.6,2.4,3.9,3.5c0.9,0.8,1.7,1.6,2.6,2.4c0.1-0.2,0.2-0.4,0.2-0.7c0.1-0.3,0.3-0.5,0.6-0.4
		c0.3,0.1,0.2,0.4,0.1,0.6c-0.1,0.3-0.3,0.6-0.4,1c0,0.1,0,0.3,0,0.4c0.2,0.4,0.6,0.8,0.8,1.2c0.5,0.9,0.9,1.9,1.3,2.8
		c0,0.1,0.1,0.2,0.2,0.3c0.1-0.1,0.3-0.2,0.4-0.3c0.2-0.2,0.4-0.4,0.6-0.5c0.2-0.1,0.5-0.1,0.6,0c0.2,0.2,0.1,0.4-0.2,0.6
		c-0.4,0.3-0.8,0.5-1.1,0.8c-0.1,0.1-0.1,0.3-0.1,0.4c0.1,0.4,0.3,0.9,0.4,1.3c0.3,0.9,0.6,1.7,0.8,2.6c0.2,1.1,0.7,2,1.1,3.1
		c0.4,1.2,0.7,2.4,1.1,3.5c0.3,1,0.7,2,1.1,3c0.4,1.1,0.8,2.2,1.2,3.3c0.6,1.4,1.3,2.8,1.8,4.3c0.7,1.7,1.6,3.3,2.6,4.8
		c0.2,0.3,0.6,0.6,0.9,0.9c1,0.8,1.9,1.5,2.6,2.6c0.3,0.5,0.8,0.8,1.3,1.1c0.8,0.4,1.7,0.8,2.6,1.1c0.3,0.1,0.5,0.2,0.8,0.2
		c1.1,0,2.2,0.2,3.3,0.6c1.6,0.6,3.3,1,4.9,1.6c1.8,0.7,3.6,1,5.4,1.6c1.7,0.5,3.4,0.9,5,1.4c0.6,0.2,1.1,0.6,1.7,0.8
		c0.3,0.2,0.7,0.3,1.1,0.4c2.2,0.5,4.2,1.4,6.1,2.5c1.1,0.6,2.2,1.1,3.3,1.4c0.7,0.2,1.3,0.6,2,0.8c1.5,0.5,2.9,0.8,4.4,1.3
		c0.5,0.1,1,0.3,1.5,0.5c1.1,0.4,2.2,0.8,3.3,1.3c0.2,0.1,0.4,0.2,0.5,0.3c0.4,0.4,0.9,0.6,1.4,0.6c0.6,0.1,1.2,0.4,1.8,0.6
		c1,0.4,1.9,0.8,2.9,1.1c2,0.7,3.9,1.9,5.7,2.8c1.1,0.6,2.1,1.1,3.2,1.6c0.8,0.4,0.9,0.4,0.8,1.4c-0.7-0.3-1.4-0.7-2.1-1
		c-1.4-0.7-2.7-1.4-4.1-2.1c-0.1-0.1-0.4-0.1-0.5,0c-1,0.4-2,0.7-3.1,0.6c-1.4-0.1-2.7,0.3-4.1,0.5c-1.2,0.2-2.4,0.4-3.6,0.4
		c-1.1,0-2,0.4-2.9,1c-0.7,0.5-1.3,1.2-1.8,1.8c-0.7,0.8-0.8,1.7-1,2.7c-0.1,0.5-0.2,0.9-0.2,1.3c-0.1,1.1-0.3,2.2-0.4,3.3
		c-0.1,1.5-0.2,3-0.2,4.5c0,0.9,0.2,1.9,0.4,2.8c0.3,1.5,0.7,2.9,1.1,4.4c0.2,0.7,0.5,1.3,0.7,2c0.4,1.1,0.7,2.2,1,3.2
		c0.4,1.2,0.7,2.5,1,3.8c0.5,2,0.7,4.1,0.7,6.2c0,1.2,0.1,2.5,0.2,3.8c0.3-0.5,0.6-0.9,0.9-1.4c1.1-2,2.4-3.7,4-5.3
		c0.6-0.5,1.3-1,2-1.4c1.5-0.8,3-1.6,4.6-2.2c1.6-0.6,3.2-1.1,4.9-1.3c0.8-0.1,1.7-0.4,2.5-0.6c0,0.3,0,0.5,0,0.8
		c-1,0.2-2.1,0.4-3.1,0.7c-0.5,0.1-0.9,0.2-1.4,0.3c-2.1,0.5-4.1,1.2-5.9,2.3c-1.1,0.6-2.1,1.3-3.2,2c-0.7,0.4-0.6,1.1-0.5,1.8
		c0.1,1,0.2,2,0.1,3c-0.1,1.6-0.9,2.9-1.8,4.2c-0.3,0.3-0.6,0.6-1.1,0.6c-0.7,0-1.5,0.1-2.2,0.1c-0.3,0-0.4,0.2-0.4,0.4
		c-0.4,1.1-0.7,2.2-1.1,3.3c-0.4,1-0.8,2-1.1,3c-0.3,1.2-0.5,2.4-0.7,3.5c-0.1,0.6-0.1,1.3-0.3,1.9c-0.2,0.5,0.1,0.8,0.2,1.1
		c0.6,1.4,1.3,2.9,1.9,4.4c0.2,0.6,0.2,1.4,0.4,2.1c0.2,1,0.5,1.9,0.8,2.8c0.7,2.1,1.4,4.2,2.1,6.3c0,0.1,0.1,0.3,0.1,0.4
		c-0.2,0-0.3,0-0.4,0c-3.3,0-6.6,0-10,0c-0.4,0-0.8-0.1-1.2-0.2c-0.2-0.1-0.4-0.3-0.5-0.6c-0.7-1.2-1.3-2.5-2-3.7
		c-0.4-0.6-0.8-1.2-1.2-1.8c-0.3-0.4-0.7-0.7-1.1-1.1c-0.6-0.7-1.3-1.4-1.9-2.2c-0.4-0.5-0.7-1.2-1-1.8c-0.8-1.9-1.8-3.7-2.5-5.6
		c-1-3-1.9-6-2.8-9c-0.4-1.3-0.7-2.5-1.2-3.8c-0.7-1.7-1.2-3.5-2.4-4.9c-0.6-0.7-1.1-1.4-1.6-2.1c-0.3-0.4-0.4-0.8-0.6-1.2
		c-0.3,0.3-0.6,0.7-0.8,1.1c-0.5,0.7-0.9,1.4-1.4,2.2c-0.4,0.6-0.8,1.1-1.4,1.5c-1,0.7-2,1.5-3.1,2.1c-1.3,0.8-2.7,1.6-4,2.4
		c-1.3,0.7-2.6,1.1-4,1.5c-0.9,0.3-1.8,0.7-2.7,0.9c-1.2,0.3-2.3,0.4-3.5,0.7c-1.6,0.4-3.3,0.4-4.9,0.3c-1,0-2.1-0.1-3.1-0.1
		c-1.2,0-2.4-0.2-3.5-0.4c-0.7-0.1-1.4-0.1-2.2-0.2c-1.6-0.3-3.1-0.5-4.7-0.9c-1.5-0.4-3-0.9-4.5-1.4c-1-0.4-2-0.9-3.1-1.4
		c0.4,0.6,0.7,1.2,1,1.8c1.3,2.4,2.5,4.9,3.3,7.5c0.4,1.4,0.9,2.9,1.3,4.3c0.5,2,0.9,4,1.5,6c0.7,2.5,1.4,4.9,2.1,7.4
		C65.1,148.3,65.4,149.1,65.7,149.9z M25.7,64.3c1.2,0.5,2,1.4,2.8,2.3c0.6,0.7,1.3,1.3,1.9,2c0.7,0.8,1.3,1.6,1.9,2.4
		c0.5,0.6,1,1.3,1.5,1.9c0.4,0.5,0.8,1.1,1.3,1.6c1.4,1.4,2.8,2.7,4.2,4.1c0.4,0.4,0.8,0.8,1,1.3c0.5,1.3,1.5,2.2,2.5,3
		c1.4,1,2.8,2,4.1,3c0.5,0.4,1.1,0.8,1.6,1.1c1.2,0.6,2.5,0.9,3.7,1.2c1.9,0.4,3.7,0.7,5.6,1.2c0.9,0.2,1.9,0.6,2.9,0.6
		c1.4,0,2.9,0.1,4.3,0c1.5-0.1,3-0.3,4.5-0.6c1.5-0.3,2.8-0.9,4-1.8c1-0.7,2-1.3,2.9-2c0.5-0.4,0.9-1,1.4-1.4c1.5-1.4,2.5-3.2,3.6-5
		c0.7-1.1,1.3-2.4,1.9-3.6c0.5-0.9,1-1.8,1.6-2.8c0.3-0.5,0.6-1.1,0.8-1.6c0.3-0.7,0.5-1.4,0.8-2.1c0.2-0.4,0.5-0.8,0.7-1.3
		c0.3-0.8,0.5-1.6,0.7-2.4c0.3-1.9,0.2-3.8,0.1-5.7c0-0.4-0.1-0.8-0.2-1.2c-0.4-1.3-0.8-2.6-1.2-4c-0.3-1-0.9-1.7-1.6-2.3
		c-0.8-0.7-1.7-1.3-2.3-2.2c-0.9-1.5-1.7-2.9-2.4-4.5c-0.8-1.8-1.7-3.5-2.3-5.4c-0.4-1.2-0.9-2.3-1.4-3.5c-0.2-0.6-0.4-1.2-0.6-1.7
		c-0.3-0.8-0.6-1.5-0.8-2.3c-0.1-0.6-0.5-0.8-1-0.9c-0.4-0.1-0.9,0-1.3,0.1c-1.7,0.4-3.3,0.2-4.8-1c-0.4-0.4-1-0.7-1.6-0.7
		c-1.3-0.1-2.6,0.1-3.8,0.8c-1.8,1.1-2.9,2.6-3.5,4.6c-0.5,1.6-1.4,2.9-3.2,3.3c-0.4,0.1-0.7,0.2-1,0.2c-1.7,0.4-3.3,0.8-5.1,0.7
		c-0.6,0-1.1-0.1-1.7-0.1c-0.6,0-0.8,0.3-0.7,0.9c0.1,0.3,0,0.7-0.1,1c0,0.2-0.2,0.4-0.2,0.7c-0.1,1.1-0.4,2.1-0.9,3.1
		c-0.5,1.1-1.3,1.9-2.4,2.3c-0.2,0.1-0.5,0.1-0.8,0.1c-0.7,0.2-1.5,0.5-2.2,0.7c-0.7,0.2-1.4,0.5-2,0.7c-0.1,0.1-0.3,0.2-0.4,0.3
		c-0.3,0.4-0.5,0.9-0.8,1.3c-0.4,0.5-0.9,0.9-1.3,1.3c-1,0.9-1.9,1.9-3.3,2.2c-0.7,0.2-1.5,0.5-2.2,0.6c-1,0.1-2.1,0.1-3.2,0.1
		c-0.1,0-0.2-0.1-0.3-0.1c-0.3-0.1-0.6-0.2-0.9-0.3c-0.2,0-0.4,0-0.5,0.1c-0.1,0.2,0,0.4,0.1,0.6c0.6,0.8,1,1.8,1.3,2.7
		c0.4,1.3,0.3,2.7-0.1,4C27.2,62.7,26.8,63.7,25.7,64.3z M52.1,104.7c0.1,0.4,0.1,0.8,0.1,1.1c0,1.6,0.1,3.1,0.1,4.7
		c0,0.4,0,0.6,0.5,0.6c0.3,0,0.5,0.1,0.8,0.2c0.3,0.1,0.5,0.2,0.5,0.6c0,0.4,0.1,0.8,0.2,1.2c0.2,0.6,0.2,1.3,0.8,1.7
		c1.9,1,3.8,2.1,5.8,2.9c2,0.8,4.1,1.2,6.2,1.9c1.9,0.6,3.8,0.8,5.8,0.9c1.3,0.1,2.7-0.1,4-0.1c1.3,0,2.5-0.3,3.7-0.6
		c1.1-0.3,2.2-0.7,3.4-1c2.9-0.8,5.8-1.8,8.3-3.7c0.9-0.7,1.8-1.5,2.6-2.4c0.9-1,1.7-2.2,2.5-3.4c0.6-0.9,1-1.9,1.4-2.9
		c0.2-0.6,0.5-1.2,0.5-1.8c0.1-1.4,0-2.7,0.1-4.1c0-0.6-0.1-0.7-0.7-0.6c-0.8,0.1-1.6,0.3-2.4,0.6c-1.5,0.6-2.9,1.5-4.2,2.4
		c-0.2,0.2-0.4,0.4-0.6,0.1c-0.3-0.3,0-0.5,0.2-0.6c0.5-0.3,1-0.7,1.5-1c1.6-1,3.2-1.9,5.1-2.1c0.3,0,0.5-0.1,0.8-0.2
		c-0.4-0.4-0.7-0.8-1.1-1.1c-0.6-0.4-0.9-1-1.3-1.6c-0.2-0.4-0.4-0.8-0.6-1.2c-0.2-0.5-0.5-1-0.6-1.6c-0.1-1.1,0-2.2,0.4-3.3
		c0.1-0.1,0-0.3-0.1-0.5c-0.3-0.6-0.6-1.1-0.6-1.8c0-0.8-0.3-1.4-1-1.8c-0.7-0.4-1.1-1.1-1.4-1.9c-0.2-0.6-0.5-1.2-1-1.6
		c-0.8-0.8-1.4-1.7-1.9-2.7c-0.6-1.5-1.1-3-1.6-4.5c-0.5-1.5-1.1-2.9-1.1-4.5c0-0.2-0.1-0.5-0.1-0.6c-0.5,0.9-1,1.9-1.5,2.9
		c-0.2,0.4-0.4,0.7-0.6,1.1c-1.2,2.1-2.1,4.3-3.5,6.3c-0.9,1.3-1.7,2.6-2.8,3.7c-0.5,0.5-1,1.2-1.6,1.6c-0.7,0.6-1.6,1.1-2.3,1.7
		c-1.2,0.9-2.5,1.5-4,2c-1.8,0.5-3.6,0.8-5.4,0.9c-2.5,0.1-4.9,0.2-7.4-0.6c-1.5-0.5-3.2-0.7-4.7-1c-1.2-0.3-2.3-0.5-3.5-0.8
		c-0.4,0.3-0.4,0.7-0.1,1.1c0.1,0.1,0.1,0.3,0.2,0.4c0.5,0.9,0.9,1.9,1.5,2.8c1.5,2.4,3.6,4.1,6.1,5.4c0.7,0.4,1.5,0.7,2.2,1.1
		c0.3,0.1,0.4,0.4,0.2,0.6c-0.1,0.1-0.4,0.1-0.7,0.1c-0.1,0-0.2-0.2-0.3-0.2c-0.6-0.3-1.3-0.6-1.9-0.9c-1.8-0.9-3.4-2.1-4.8-3.5
		c-1.4-1.4-2.3-3.1-3-4.9c-0.1-0.3-0.3-0.5-0.4-0.8c-0.5,0.6-0.9,1.1-1.4,1.6c-0.3,0.3-0.4,0.6-0.2,0.9c0.1,0.3,0.3,0.5,0.3,0.8
		c0.1,1.1,0.2,2.1,0.3,3.2c0,0.3,0.1,0.5,0.3,0.7c0.7,0.8,1.4,1.6,1.5,2.7c0.1,0.6,0.1,1.2,0.2,1.8c0,0.2,0.1,0.4,0.2,0.4
		c0.8,0.7,1.3,1.5,1.8,2.4c0.1,0.1,0.3,0.2,0.4,0.2c0.9,0,1.7-0.1,2.6-0.2c0.7-0.1,1.5-0.3,2.2-0.3c2-0.1,4.1-0.2,6.1-0.3
		c0.3,0,0.5,0.1,0.5,0.4c0,0.3-0.2,0.4-0.5,0.4c-0.1,0-0.2-0.1-0.4-0.1c-1.4,0.1-2.7,0.1-4.1,0.2c-0.6,0-1.2,0-1.8,0.1
		c-1,0.1-2,0.3-3.1,0.4C53.2,104.6,52.6,104.7,52.1,104.7z M110.9,84.2c-0.5,0.3-1,0.5-1.6,0.5c-1.1-0.1-1.9-0.7-2.7-1.3
		c-0.4-0.3-0.8-0.6-1.3-0.7c-1-0.3-2-0.4-3-0.6c-1.1-0.2-2.1-0.4-3.2-0.7c-0.3-0.1-0.4,0-0.4,0.3c0,0.3,0,0.6,0,1
		c0,0.2,0.1,0.5,0.2,0.6c0.4,0.6,0.9,1.2,1.3,1.8c0.6,0.9,0.7,2,0.7,3.1c0,0.1,0.1,0.3,0.2,0.4c0.3,0.2,0.7,0.3,1,0.6
		c0.6,0.5,1,1.1,1.2,1.8c0.2,1.1,0.4,2.3,0.6,3.4c0.2,0.8,0.1,1-0.6,1.3c0,0-0.1,0.1-0.1,0.1c0,0.1,0.1,0.1,0.1,0.2
		c1.2,1.3,2.4,2.7,3.6,4c1.8,1.9,3.6,3.8,5.4,5.7c0.9,1,1.8,2.1,2.7,3.2c1.1,1.5,1.8,3.1,2.6,4.7c1.2,2.5,2.6,5,3.8,7.5
		c0.9,1.8,1.7,3.6,2.6,5.4c0.9,1.7,1.8,3.5,2.6,5.2c0,0,0.1,0,0.1,0c0.1-0.5,0.1-0.9,0.2-1.3c0.1-0.8,0.3-1.7,0.5-2.5
		c0.3-1.3,0.7-2.5,1.2-3.7c0.6-1.5,1.1-3.1,1.4-4.7c0.3-1.3,0.4-2.6,0.3-3.9c0-0.9-0.2-1.9-0.2-2.8c0-1.9-0.3-3.7-0.7-5.5
		c-0.2-1.1-0.6-2.3-0.9-3.4c-0.4-1.3-0.8-2.6-1.2-3.9c-0.2-0.6-0.5-1.2-0.6-1.8c-0.4-1.4-0.7-2.9-1.1-4.3c-0.3-1.2-0.5-2.3-0.4-3.6
		c0-1.1,0.1-2.2,0.2-3.3c0.2-1.8,0.4-3.6,0.7-5.4c0.1-1.1,0.3-2.2,1-3.1c0.5-0.6,1-1.1,1.5-1.7c0.1-0.1,0.2-0.2,0.3-0.3
		c-1.2,0.1-2.4,0.2-3.5,0.4c-0.8,0.1-1.7,0.4-2.5,0.6c-0.1,0-0.2,0.1-0.3,0.2c-0.2,0.4-0.3,0.7-0.4,1.1c-0.4,1-0.5,2-0.7,3
		c-0.1,0.7-0.2,1.4-0.2,2.1c0,1,0.1,1.9,0.2,2.9c0,0.3,0,0.5-0.4,0.6c-0.3,0-0.4-0.2-0.5-0.5c0-0.2-0.1-0.5-0.1-0.7
		c0-1.4-0.1-2.9,0.2-4.3c0.2-1,0.4-2,0.6-3c0.1-0.4,0.3-0.8,0.5-1.3c-0.7,0.1-1.2-0.4-1.8-0.7c-0.4-0.3-0.9-0.6-1.3-0.6
		c-0.8-0.1-1.7,0.1-2.5,0.1c-0.3,0-0.5,0.1-0.8,0.1c-0.9,0-1.6,0.2-2.4,0.7c-0.2,0.1-0.4,0.3-0.4,0.5c-0.2,1.1-0.3,2.2-0.5,3.3
		c-0.1,0.6-0.3,1.2-0.4,1.8c-0.1,0.2-0.1,0.5-0.1,0.7c0,0.2,0.1,0.4,0.1,0.5c0.1,1.9,1,3.5,2.1,5c0.9,1.3,2,2.4,3.1,3.6
		c0.2,0.2,0.4,0.4,0.4,0.6c0.1,0.2,0,0.5-0.1,0.6c-0.2,0.2-0.4,0-0.6-0.2c-0.4-0.5-0.9-1-1.3-1.5c-0.9-1.1-1.8-2.1-2.6-3.3
		c-0.8-1.1-1.4-2.3-1.7-3.6C111.1,85.2,111,84.7,110.9,84.2z M143,74.1c0,0,0-0.1,0-0.1c-0.1,0-0.1,0-0.2-0.1
		c-0.8-0.3-1.6-0.7-2.4-1c-1.2-0.5-2.3-0.9-3.5-1.4c-0.2-0.1-0.3-0.2-0.5-0.2c-0.9,0.2-1.6-0.3-2.3-0.8c-0.5-0.3-1-0.6-1.5-0.8
		c-0.3-0.1-0.7-0.2-1-0.3c-1.1-0.4-2.2-0.8-3.3-1.2c-1.3-0.4-2.7-0.8-4-1.2c-0.7-0.2-1.3-0.6-2-0.8c-1.1-0.3-2.1-0.7-3.2-1.3
		c-2-1.1-4-2.1-6.3-2.6c-0.4-0.1-0.8-0.2-1.1-0.4c-0.6-0.3-1.1-0.6-1.7-0.8c-1.1-0.3-2.3-0.6-3.4-0.9c-0.8-0.2-1.6-0.5-2.5-0.8
		c-1.3-0.4-2.6-0.7-3.9-1.1c-1.3-0.4-2.6-1-3.9-1.4c-1.1-0.3-2.1-0.8-3.2-0.8c-0.6,0-1.2-0.2-1.9-0.3c0,0.1,0.1,0.2,0.1,0.2
		c0.4,1.2,0.5,2.4,0.1,3.6c-0.1,0.3-0.1,0.6,0.2,0.9c0.5,0.5,0.9,1.1,1.3,1.7c0.7,1,1.2,2,1.4,3.2c0.2,1.2,0.3,2.4-0.2,3.6
		c-0.1,0.3-0.2,0.6-0.3,0.7c0.4,0.3,0.7,0.5,1,0.8c0.3,0.3,0.5,0.6,0.8,0.9c0.6,0.6,0.9,1.3,0.9,2.1c0,1.1-0.1,2.2-0.5,3.3
		c0,0.1,0,0.3,0.1,0.4c0.8,1,1.7,1.9,2.5,2.9c0.1,0.1,0.2,0.1,0.3,0.2c0.7,0.1,1.4,0.3,2,0.4c1.4,0.3,2.7,0.5,4.1,0.8
		c0.7,0.1,1.4,0.4,2,0.9c0.5,0.4,1.2,0.8,1.8,1.1c0.8,0.4,2.3-0.2,2.5-1c0.2-0.8,0.2-1.6,0.4-2.4c0.1-0.9,0.3-1.7,0.5-2.6
		c0-0.2,0.2-0.4,0.4-0.5c0.6-0.3,1.1-0.6,1.7-0.8c1.1-0.2,2.2-0.3,3.4-0.5c1.2-0.2,2.3,0.1,3.3,0.9c0.5,0.4,1.1,0.7,1.8,0.4
		c1.2-0.6,2.6-0.7,3.9-0.9c1-0.1,2.1-0.3,3.1-0.4c1.5-0.2,2.9-0.4,4.4-0.5c0.8-0.1,1.6-0.2,2.4-0.3c1.2-0.2,2.4-0.5,3.6-0.5
		c0.5,0,1,0,1.4-0.1C142,74.4,142.5,74.2,143,74.1z M100.2,104.4c0,0-0.1,0-0.1,0c0,0.3,0,0.6-0.1,0.8c-0.6,1.4-1,2.9-1.9,4.1
		c-1.4,2-2.6,4.1-4.6,5.6c-0.9,0.6-1.7,1.4-2.7,1.9c-0.9,0.5-1.9,1-2.9,1.3c-1.5,0.6-3.1,1-4.6,1.5c-2.7,0.9-5.5,1.6-8.4,1.5
		c-2.6-0.1-5.1,0-7.6-0.8c-2.2-0.7-4.4-1.2-6.5-2c-1.7-0.6-3.4-1.6-5.1-2.4c-0.3-0.1-0.5-0.3-0.8-0.5c0,0.1,0,0.2,0,0.3
		c0,0.1,0,0.2,0.1,0.3c0.2,0.8,0,1.2-0.6,1.4c0.4,0.6,0.4,1.5,1.4,1.7c0.9,1,2.2,1.3,3.4,1.8c1.4,0.6,3,1.1,4.5,1.4
		c1.5,0.4,3.1,0.6,4.7,0.9c0.7,0.1,1.4,0.1,2.1,0.2c1.1,0.2,2.2,0.4,3.3,0.4c0.9,0,1.8,0,2.7,0c0.1,0,0.3,0,0.4,0c1,0,2,0,2.9,0
		c0.7,0,1.4-0.2,2-0.3c1.1-0.2,2.3-0.4,3.4-0.7c0.7-0.2,1.4-0.5,2.1-0.8c1.6-0.5,3.2-0.9,4.6-1.8c0.8-0.5,1.6-1,2.4-1.5
		c1.2-0.7,2.3-1.4,3.5-2.2c0.9-0.6,1.8-1.4,2.3-2.4c0.3-0.5,0.6-1.1,1-1.6c0.4-0.5,0.8-1,0.9-1.6c0.1-0.3,0.1-0.7,0-1
		c-0.3-0.8-0.6-1.6-0.9-2.5c-0.2-0.6-0.4-1.3-0.5-2C100.4,105.2,100.3,104.8,100.2,104.4z M36.8,77.1c0,0,0-0.1-0.1-0.1
		c-0.5-0.4-0.9-0.9-1.4-1.3c-0.9-0.9-1.7-1.9-2.5-2.9c-0.8-1-1.6-2-2.5-3c-0.6-0.7-1.1-1.4-1.7-2c-0.5-0.6-1.1-1.1-1.6-1.6
		c-0.5-0.4-1-0.8-1.5-1.1c-0.6-0.3-1.3-0.4-1.9-0.8c-0.9-0.5-1.9-0.6-3-0.5c-0.6,0.1-1,0.4-1.1,0.8c0,0.2-0.1,0.5-0.1,0.7
		c-0.1,0.6,0,0.9,0.6,1c0.8,0.2,1.7,0.4,2.5,0.6c0.6,0.1,1.3,0.2,1.9,0.4c0.8,0.3,1.5,0.7,2.2,1.3c0.8,0.6,1.6,1.3,2.2,2.2
		c0.5,0.7,1,1.4,1.6,2c0.5,0.5,1,0.9,1.6,1.3c0.7,0.6,1.5,1.1,2.2,1.7c0.3,0.2,0.6,0.4,0.8,0.6c0.3,0.2,0.6,0.5,0.9,0.8
		c0.2,0.2,0.4,0.1,0.6-0.1C36.6,77.2,36.7,77.2,36.8,77.1z M99.4,97.9c0.2-0.3,0.3-0.5,0.5-0.7c0.6-0.9,1.2-1.9,2.5-2.1
		c0.2,0,0.3-0.1,0.5-0.2c0.2-0.1,0.3-0.2,0.2-0.4c-0.2-0.8-0.3-1.6-0.5-2.4c-0.1-0.7-0.1-1.5-0.7-2c-0.5-0.5-1-1-1.9-0.8
		c-0.5,0.1-1.1,0.3-1.6,0.4c-0.5,0.1-1.1,0.2-1.6,0.4c-0.2,0-0.3,0.2-0.4,0.4c-0.3,1.2-0.6,2.4,0.1,3.5c0.2,0.3,0.4,0.7,0.5,1.1
		C97.6,96.4,98.4,97.1,99.4,97.9z M48.6,117.8c0.6-0.7,1.5-0.8,2.2-0.9c1-0.2,2-0.1,3-0.1c0.1,0,0.3-0.2,0.2-0.2
		c0-0.4-0.1-0.8-0.2-1.2c-0.2-0.9-0.4-1.8-0.6-2.6c-0.1-0.6-0.2-0.6-0.8-0.6c-0.2,0-0.5,0-0.7,0c-1,0-1.9-0.1-2.9,0
		c-0.9,0.1-1.7,0.4-2.4,0.9c-0.2,0.2-0.5,0.5-0.6,0.7c-0.2,0.3-0.2,0.7-0.3,1.1c0,0.2,0,0.4,0.1,0.5
		C46.7,116.2,47.6,116.9,48.6,117.8z M135.3,112.5c-0.2,0.2-0.3,0.3-0.3,0.4c-1.4,1.8-2.5,3.7-3.6,5.6c-0.2,0.3-0.2,0.8-0.3,1.2
		c0.5,0,1,0,1.5,0c0.7,0.1,1.2-0.1,1.6-0.8c0.7-1.1,1.4-2.3,1.3-3.7c0-0.6,0-1.2,0-1.8C135.5,113.3,135.4,112.9,135.3,112.5z
		 M87.8,69.7c-0.1,0-0.1,0.1-0.2,0.1c0.3,1.2,0.5,2.3,0.8,3.5c0.6,2,1.2,3.9,1.9,5.8c0.3,0.9,0.8,1.6,1.3,2.4c0.1,0,0.1,0,0.2-0.1
		c0.1-0.9,0.1-1.7,0.2-2.6c0-0.2-0.1-0.4-0.2-0.6c-0.2-0.4-0.5-0.8-0.7-1.2c-0.3-0.5-0.5-1.1-0.8-1.6c-0.5-0.8-0.7-1.7-0.5-2.6
		c0.1-0.4,0.1-0.8,0.1-1.3c0-0.2,0-0.4-0.1-0.5C89,70.6,88.4,70.1,87.8,69.7z M5.3,136.8c-0.1,0-0.3-0.1-0.4-0.1
		c-1.3-0.2-2.5-0.4-3.7,0.1c-0.1,0-0.2,0.2-0.3,0.3c-0.1,0.6,0.1,1.2,0.4,1.7c0.3,0.5,0.5,1,0.8,1.5c0.3,0.5,0.6,1,0.9,1.6
		c0.3-0.9,0.5-1.8,0.9-2.6C4.3,138.4,4.8,137.7,5.3,136.8z M46.5,90.6c0.4-0.5,0.8-0.9,1.1-1.4c0.3-0.4,0.4-0.9,0.7-1.3
		c0.1-0.2,0-0.3-0.2-0.4c-1-0.7-2-1.3-3-2c-0.2-0.2-0.4-0.3-0.7-0.5c0,0.1,0,0.2,0,0.2c0.7,1.2,1,2.5,0.7,3.9c0,0.1,0,0.2,0.1,0.3
		C45.6,89.6,46,90.1,46.5,90.6z M62.1,7C62.6,7.4,63,8,63.5,8.2c0.7,0.3,1.2,0.3,1.7-0.4c-0.6-0.4-1.2-0.9-1.8-1.3
		C62.9,6.2,62.5,6.3,62.1,7z M60.5,2.8c0.6,0.8,1.9,1.1,2.7,0.7C62.7,2.9,61.1,2.5,60.5,2.8z"/>
	<path class="st0" d="M43.3,56.4c1.3,0.1,2.5,0,3.6,0.4c0.3,0.1,0.6,0.3,0.6,0.7c0,0.4-0.3,0.5-0.6,0.6c-1,0.4-1.9,0.8-2.9,1.1
		c-1.2,0.5-2.2,1.2-3.2,2c-0.7,0.6-1.5,1-2.2,1.4c-0.9,0.5-1.8,0.9-2.5,1.7c-0.3,0.3-0.4,0.7-0.6,1c-0.3,0.4-0.7,0.8-1.2,0.9
		c-0.1,0-0.3-0.1-0.5-0.1c0.1-0.1,0.2-0.3,0.3-0.4c0.8-0.3,1.3-0.9,1.6-1.6c0.4-1.2,0.8-2.5,1.3-3.7c0.2-0.5,0.5-0.9,0.8-1.3
		c0.6-0.6,1.2-1.3,1.9-1.8c0.6-0.5,1.2-0.7,2-0.8C42.2,56.5,42.8,56.5,43.3,56.4z M38.1,59.6c-0.5,0.3-1.6,3.1-1.5,3.7
		c1.2-0.7,2.4-1.4,3.6-2.1C39.2,61,38.3,60.9,38.1,59.6z M43,59.2c0.1,0,0.2,0,0.2-0.1c0.8-0.3,1.6-0.6,2.4-1
		c0.2-0.1,0.3-0.1,0.5-0.2c0.1-0.1,0.2-0.3,0.3-0.4c-0.2-0.1-0.3-0.2-0.5-0.3c-0.1,0-0.1,0-0.2,0c-0.9,0-1.8-0.1-2.7-0.1
		c-0.2,0-0.4,0.1-0.7,0.1C43.3,57.8,42.9,58.6,43,59.2z"/>
	<path class="st0" d="M57.6,49.8c0.4-1.5,0.1-3.1,0.7-4.5c0.5-1.2,1.3-2.1,2.6-2.6c0.9-0.4,1.8-0.8,2.8-1.1c1-0.3,2-0.4,3-0.5
		c1.1-0.1,2.2-0.3,3.2-0.7c0.1,0,0.3,0,0.5,0c0.1,0,0.1,0.2,0.1,0.3c0,0.1-0.1,0.2-0.2,0.2c-0.3,0.1-0.5,0.2-0.8,0.3
		c-0.7,0.1-1.2,0.5-1.6,1c-1.2,1.2-2.6,2.1-4,3c-1.3,0.8-2.6,1.5-3.7,2.5c-0.7,0.7-1.4,1.3-1.8,2.2c-0.1,0.1-0.3,0.2-0.5,0.3
		C57.7,50.1,57.6,49.9,57.6,49.8z M58.3,48.8c0.5-0.6,1-1.1,1.5-1.6c0.5-0.5,1-0.9,1.5-1.2c-0.3-0.2-0.8-0.4-1.1-0.8
		c-0.2-0.4-0.3-0.9-0.4-1.3C58.4,45.2,58.3,47,58.3,48.8z M67.7,41.6c0,0-0.1-0.1-0.1-0.1c-1.1,0.1-2.2,0.3-3.4,0.5
		c0.7,0.5,0.8,1.1,0.6,1.9c0,0,0.1,0,0.1,0C65.9,43.1,66.8,42.4,67.7,41.6z"/>
	<path class="st0" d="M59.9,77.9c-0.7-0.2-1.7-0.4-2.8-0.7c-0.9-0.2-1-0.3-0.4-1c1.2-1.5,2.4-3,3.7-4.5c0.3-0.4,0.8-0.7,1.3-0.9
		c0.3-0.2,0.8-0.2,1.2-0.2c0.3,0,0.5-0.2,0.5-0.5c0.1-1.2,0.9-1.9,1.8-2.5c1.4-0.8,3-1.3,4.5-1.6c1-0.2,1.9-0.6,2.9-0.9
		c0.2,0,0.5-0.1,0.5-0.1c0.1,0.2,0.2,0.5,0.1,0.7c-0.6,1.8-1.3,3.6-1.9,5.4c-0.4,1.1-1.2,2-2.1,2.7c-0.7,0.6-1.4,1.2-2.2,1.8
		c-1,0.8-2.3,1.1-3.4,1.6C62.6,77.7,61.5,77.7,59.9,77.9z M57.6,76.9c0.9,0.2,1.7,0.5,2.5,0.5c1.2,0,2.4-0.1,3.5-0.5
		c1.2-0.5,2.4-0.8,3.4-1.6c0.8-0.6,1.5-1.2,2.2-1.9c0.8-0.7,1.5-1.4,1.8-2.4c0.4-1,0.7-2,1.1-3c0.2-0.4,0.3-0.9,0.5-1.4
		c-1.5,0.7-2.6,1.7-3.8,2.6c-1.1,0.8-2.1,1.8-3.2,2.5c-2.3,1.6-4.7,3.1-7.1,4.6C58.2,76.4,58,76.6,57.6,76.9z M72.4,65.8
		C72.3,65.8,72.3,65.7,72.4,65.8c-0.9,0.1-1.7,0.4-2.5,0.6c-1.7,0.4-3.3,0.9-4.8,1.9c-0.7,0.5-1.1,1.1-1.2,2c0,0.5-0.3,0.7-0.8,0.8
		c-0.5,0.1-1.1,0.1-1.5,0.4c-0.7,0.5-1.3,1.1-1.9,1.8c-0.9,1-1.6,2-2.4,3.1c0,0,0,0.1,0,0.2c0.8-0.4,1.5-0.8,2.3-1.3
		c0.7-0.4,1.3-1,2-1.4c2.3-1.4,4.7-2.9,6.7-4.8c1.1-1,2.3-1.9,3.6-2.6C72.1,66.2,72.2,66,72.4,65.8z"/>
	<path class="st0" d="M42.7,51.7c0.4,0,0.7,0,1,0c0.2,0,0.5-0.1,0.6,0.3c0,0.3-0.1,0.6-0.4,0.7c-0.4,0.1-0.7,0.2-1.1,0.2
		c-2,0.1-3.4,1.2-4.7,2.5c-1.1,1.1-2.3,2.1-3.4,3.2c-0.7,0.7-1.4,1.5-2,2.2c-0.3,0.3-0.6,0.7-1.1,0.7c-0.2,0-0.4-0.1-0.5-0.2
		c-0.1-0.2-0.1-0.5,0-0.6c0.6-0.8,1.1-1.6,1.7-2.4c0.7-0.9,1.5-1.7,2.3-2.5C36,54.8,37,53.9,38,53c0.6-0.5,1.3-0.8,2.1-1
		C41,51.8,41.9,51.6,42.7,51.7z"/>
	<path class="st0" d="M52.6,48.8c-0.2-0.1-0.4-0.2-0.5-0.3c-0.1-0.1,0-0.3,0-0.5c0.6-0.9,1.1-1.8,1.8-2.7c0.4-0.5,0.9-0.9,1.4-1.3
		c1-0.8,2.1-1.5,3.2-2.3c0.8-0.6,1.4-1.4,2.2-2c0.5-0.4,1-0.7,1.5-1.1c0.2-0.1,0.5-0.1,0.7,0.1c0.2,0.2,0,0.4-0.2,0.5
		c-1.2,0.9-2,2.1-3,3.1c-0.7,0.7-1.5,1.3-2.3,1.9c-0.7,0.6-1.5,1.1-2.1,1.8c-0.8,0.8-1.5,1.6-2.2,2.4C53,48.6,52.8,48.7,52.6,48.8z"
		/>
	<path class="st0" d="M61.9,57.1c0.1-0.1,0.2-0.2,0.3-0.2c0.9,0,1.9-0.1,2.7,0.5c0.9,0.6,1,1.4,0.9,2.4c-0.1,0.9-0.7,1.3-1.5,1.7
		c-0.7,0.3-1.3,0.8-1.9,1.4c-0.3,0.3-0.3,0.8-0.4,1.2c-0.1,0.5,0,1-0.1,1.4c-0.2,0.8-0.7,1.3-1.3,1.8c-0.7,0.5-1.4,0.4-2.2,0.4
		c-0.6-0.1-1.1-0.2-1.7-0.2c-0.8,0.1-1.3,0.7-1.9,1.2c-0.7,0.7-2.1,0.4-2.6-0.5C52,67.4,52,66.6,52,65.8c0-1.2,0-2.3,0-3.5
		c0-0.1,0.1-0.3,0.2-0.4c0.1,0.1,0.3,0.2,0.4,0.3c0.1,0.1,0,0.2,0,0.3c0,0.9,0,1.9,0,2.8c0,0.2,0,0.4-0.1,0.6
		c-0.1,0.8,0.1,1.5,0.4,2.1c0.2,0.4,1.2,0.5,1.5,0.2c0.2-0.2,0.4-0.4,0.6-0.6c0.8-0.9,2.2-1.2,3.2-0.8c1.5,0.6,2.6-0.3,3.2-1.4
		c0.1-0.3,0.1-0.7,0.1-1c0.1-0.5,0.1-1,0.2-1.5c0.1-0.7,0.6-1.2,1.3-1.5c0.5-0.2,1-0.5,1.5-0.7c0.5-0.3,0.9-0.7,0.9-1.4
		c0-1.2-0.8-2-2-2c-0.5,0-0.9-0.1-1.4-0.1C62,57.2,61.9,57.1,61.9,57.1z"/>
</g>
</svg>
