<?xml version="1.0" encoding="utf-8"?>
<!-- Generator: Adobe Illustrator 18.1.1, SVG Export Plug-In . SVG Version: 6.00 Build 0)  -->
<!DOCTYPE svg PUBLIC "-//W3C//DTD SVG 1.1//EN" "http://www.w3.org/Graphics/SVG/1.1/DTD/svg11.dtd">
<svg version="1.1" id="Layer_1" xmlns="http://www.w3.org/2000/svg" xmlns:xlink="http://www.w3.org/1999/xlink" x="0px" y="0px"
	 viewBox="0 0 171.1 138.7" style="enable-background:new 0 0 171.1 138.7;" xml:space="preserve">
<style type="text/css">
	.st0{fill:#009688;}
</style>
<g id="earwax-girl">
	<path class="st0" d="M171.1,92.6c-2.1-0.5-4.2-0.9-6.3-1.5c-2.7-0.8-5.3-1.7-7.9-2.5c-1.6-0.5-3.2-0.7-4.7-1.2
		c-1.4-0.4-2.7-0.8-4.1-1.3c-0.1,0-0.1,0-0.2,0c-0.2,1-0.4,1.9-0.7,2.9c-0.3,1-0.8,2-1.3,3c-0.2,0.5-0.5,0.5-0.9,0.3
		c-0.8-0.4-1.6-0.8-2.5-1.2c-0.3-0.1-0.6-0.2-0.9-0.3c-1.1,1.9-1.2,3.9-1.3,6c-0.1,4,0.2,7.9,0.9,11.8c0.1,0.6,0,1.3,0,2
		c0.3,2.9,0.5,5.8,0.8,8.7c0.1,0.6,0.1,1.1,0.2,1.7c0.2,0,0.3-0.1,0.6-0.1c-0.1,0.4-0.1,0.7-0.1,1c-0.2,1.1-0.4,2.2-0.5,3.3
		c0,3.7,0,7.3,0,11c0,0.5-0.1,1-0.1,1.4c0,0.2-0.3,0.3-0.4,0.4c-0.1-0.1-0.3-0.3-0.3-0.4c0-0.5,0.2-0.9,0.2-1.4c0-0.3-0.1-0.7-0.2-1
		c-0.1-0.3-0.4-0.6-0.4-0.9c0-6-0.2-11.9-1.1-17.8c-0.3-2.4-0.3-4.8-0.4-7.1c0-0.4,0.2-0.8,0.3-1.2c0.1-0.4,0.1-0.9,0.1-1.3
		c-0.3-2.6-0.7-5.3-0.9-7.9c-0.2-2.1-0.3-4.2,0.2-6.2c0.2-0.6,0.6-1.2,0.9-1.7c0.3-0.5,0.3-0.8,0.1-1.4c-0.5-1-0.9-2.1-1-3.2
		c-0.1-2.5,0.2-5,0.3-7.4c0-0.2,0.1-0.3,0.2-0.5c0.1,0,0.2,0,0.3,0c0,0.5,0.1,1.1,0.1,1.6c-0.1,2.1-0.2,4.3-0.2,6.4
		c0,1.1,0.2,2.2,1.3,3.1c0.1-1.1,0.1-2,0.2-2.9c0.2-2.6,0.4-5.1,1.2-7.6c0.8-2.4,1.6-4.7,2.3-7.1c0.2-0.8,0.4-1.5,0.6-2.3
		c0.4-1.8,0.9-3.6,2.5-5c-4.2-1.9-8.3-3.8-12.5-5.6c-1.4-0.6-2.8-1.1-4.2-1.4c-0.8-0.2-1.7,0.1-2.6,0.3c-0.1,0-0.2,0.4-0.2,0.6
		c0.8,1.6,0.7,3.3,0.9,5c0.4,2.5-0.3,4.9-0.4,7.4c0,0.3-0.4,1-0.5,1c-0.6-0.2-0.4-0.6-0.3-1.1c0.4-2.8,0.7-5.5,0.2-8.3
		c-0.2-1.1-0.4-2.1-0.7-3.1c-0.1-0.5-0.4-0.8-1.1-0.6c-0.7,0.2-1.4,0.2-2.3,0.2c-0.4,1.6-1.6,2.8-2.8,4c-0.8,0.8-1.9,1.4-2.9,2
		c-0.8,0.5-1.2,0.9-1.2,1.9c0.1,1.4,0.1,2.8,0.1,4.2c0,0.6-0.1,1.2-0.3,1.7c-0.6,1.6-1.3,3.2-1.8,4.9c-0.7,2.4-1.9,4.6-3.2,6.7
		c-0.6,1.1-1.3,2.1-2,3.1c-0.1,0.1-0.3,0.2-0.5,0.2c0-0.2-0.2-0.4-0.1-0.5c0.2-0.5,0.5-0.9,0.7-1.3c1.8-2.6,3.4-5.2,4.3-8.3
		c0.5-1.6,1.3-3.2,1.7-4.8c0.3-1.2,0.3-2.5,0.3-3.7c0-1-0.1-2-0.1-2.9c-2.2,0.1-4.4,0.3-6.7,0.4c-0.4,0-0.8,0-1.1-0.1
		c-1.6-0.2-2.9,0.6-4.4,0.8c-2.2,0.4-4.3,0.9-6.5,1.3c-1.9,0.3-3.9,0.6-5.9,0.4c-2.4-0.2-4.9-0.4-7-1.8c-1.2-0.8-2.5-1.4-3.3-2.7
		c-0.8,1.2-1.5,2.2-2.2,3.3c-0.6,0.8-1.4,1.4-1.9,2.2C77.3,71,77,71.9,77,72.7c-0.1,2.7-0.1,5.4-0.2,8.1c-0.1,1.1-0.4,2.2-0.7,3.3
		c-0.1,0.2-0.3,0.4-0.5,0.6c0,0-0.3-0.1-0.3-0.2c0-0.3-0.1-0.7,0-0.9C76,83,76,82.2,76,81.4c0.1-2.7,0.1-5.3,0.2-8
		c0.1-1.8,0.2-3.6,1-5.3c0.1-0.2,0.4-0.4,0.5-0.5c0,0.3,0,0.5,0,0.8c0,0.2-0.1,0.5-0.3,0.9c2-1.3,2.6-3.3,3.9-5
		c-0.4-0.1-0.8-0.2-1.1-0.3c-1.5-0.2-3-0.5-4.5-0.7c-0.7-0.1-1.5,0-2.2,0.1c-1.6,0.2-3.3,0.5-4.9,0.7c-0.4,0.1-0.9,0-1.4-0.1
		c-0.9-0.3-1.7,0-2.6,0.2c-0.9,0.2-2,0.2-2.9,0.2c-0.7,0-1.2,0.2-1.6,0.9c-0.6,1-1.6,1.6-2.9,1.8c-1.3,0.3-2.6,0.9-3.9,1.5
		c-2,1-4,2.1-6,3.2c-0.5,0.3-1,0.6-1.6,0.9c0.5,0.6,0.9,1.1,1.2,1.6c0.9,1.3,1.8,2.6,2.5,4c1.8,3.9,3.6,7.8,5.2,11.7
		c0.7,1.5,1.1,3.1,1.7,4.9c0.3-0.8,0.6-1.4,0.8-2c0.5-1,1.1-2,1.5-3c0.3-0.9,0.4-2,0.6-3c0-0.2,0.1-0.5,0.1-0.7c0.1,0,0.2,0,0.3,0
		c0.1,0.2,0.3,0.5,0.2,0.7c-0.2,1.2-0.3,2.5-0.7,3.6c-0.6,1.6-1.5,3.1-1.8,4.8c-0.2,0.8-0.7,1.6-0.5,2.4c0.3,1.2,0.6,2.4,1,3.7
		c1-0.7,1.9-1.4,2.9-2c0.9-0.6,1.6-1.3,2.1-2.2c0.8-1.5,1.6-3,2.3-4.5c0.2-0.3,0.3-0.8,0.8-0.5c0.2,0.1,0.2,0.8,0,1.1
		c-0.7,1.3-1.5,2.6-2.2,3.9c-0.7,1.3-1.6,2.4-2.9,3.1c-0.8,0.4-1.5,1-2.1,1.4c0.9,2,1.8,3.8,2.6,5.7c0.3,0.6,0.3,1.4,0.3,2.1
		c0,6.1-0.1,12.2-0.2,18.3c0,1.5-0.2,2.9-0.4,4.4c-0.2,1.8-0.5,3.5-0.7,5.2c0,0.3-0.1,0.5-0.2,0.7c-0.1,0.2-0.3,0.3-0.4,0.4
		c-0.1-0.1-0.3-0.3-0.3-0.4c-0.1-1.2-0.2-2.5-0.1-3.7c0.1-2,0.4-4,0.5-6.1c0.2-3.6,0.2-7.3,0.3-10.9c0.1-1.6,0.3-3.3,0.2-4.9
		c-0.1-1.9-0.4-3.9-0.7-5.8c-0.2-1.1-0.6-2.1-1.2-3c-0.3-0.4-1.2-0.7-1.8-0.7c-0.7,0-1.4,0.4-2.1,0.6c-0.7,0.2-1.2,0-1.4-0.7
		c-0.6-2.2-1.1-4.4-1.7-6.5c-0.2-0.9-0.4-1.8-0.7-2.9c-0.2,0.1-0.5,0.1-0.7,0.3C46.1,96,42,98,38,100.1c-1.4,0.7-2.7,1.6-4,2.4
		c-0.3,0.2-0.7,0.5-1,0c-0.3-0.5,0-0.8,0.4-1c1.8-1,3.5-2,5.3-3c2.6-1.4,5.3-2.8,7.9-4.2c1.2-0.6,2.4-1.1,3.5-1.6
		c0.4-0.2,0.6-0.4,0.3-0.9c-0.3-0.6-0.3-1.4-0.6-2c-0.9-2-2-4-3.3-5.8c-1.2-1.7-2.2-3.6-3.4-5.4c-1.2-1.8-1.2-1.7-3-0.8
		c-1.7,0.8-3.5,1.5-5.2,2.3c-0.2,0.1-0.5,0.2-0.7,0.2c-1-0.2-1.4,0.4-1.9,1.1c-2.2,3.3-4.5,6.7-6.7,10c-1.4,2.1-2.7,3.4-4.2,4.1
		c-0.4-0.4-0.2-0.9,0.1-1.2c2.7-2,4.1-5,6-7.7c1.3-1.9,2.7-3.7,4-5.6c0.6-0.8,1-1.8,1.7-2.4c2.8-2.5,4.9-5.5,7.9-7.8
		c1.5-1.1,2.7-2.5,4.3-3.5c3.1-1.9,6.2-4,9.4-5.8c1.5-0.9,3.1-1.4,4.6-2.2c1.8-1,3.5-2.2,5.3-3.3c2.5-1.6,5.1-3.1,7.6-4.7
		c1.3-0.8,2.4-1.7,3.6-2.5c0.6-0.4,0.7-1,0.6-1.7c-0.3-1.5-0.5-3.1-0.7-4.6c0-0.2-0.1-0.5-0.2-0.7c-0.3,0.1-0.5,0.1-0.8,0.2
		c-1.1,0.6-1.3,1.8-1.6,2.8c-0.1,0.2-0.1,0.4-0.2,0.7c-0.4,1.1-0.3,1.3,0.8,2.1c0.1,0.1,0.2,0.1,0.2,0.2c-0.7,0.4-0.9,0.3-1.8-0.8
		c-0.4,0.5-0.8,0.9-1.1,1.4c-0.6,1.2-1.7,1.9-2.8,2.5c-0.8,0.4-2.3-0.7-2.2-1.7c0-0.3,0.1-0.7,0.1-1c0-0.1-0.1-0.4-0.2-0.4
		c-0.1,0-0.4,0-0.4,0.1c-0.8,1.3-2.2,1.8-3.4,2.5c-0.7,0.4-1.5,0.4-2.1-0.1c-0.3-0.3-0.6-1.1-0.5-1.5c0.3-0.8,0.8-1.5,1.3-2.2
		c0.4-0.5,0.9-0.9,1.4-1.4c-1.8-1.3-3.9-2.2-4.3-4.7c0.2,0.1,0.4,0.3,0.5,0.4c0.6,1.4,1.8,2.1,3,2.9c0.2,0.2,0.5,0.3,0.7,0.4
		c0.3,0.2,0.6,0.6,1,0.1c0.4-0.5,0.9-1,0.4-1.6c-0.2-0.3-0.7-0.6-1-0.8c-0.6-0.5-1.2-0.9-1.8-1.4c-0.1-0.1,0-0.3,0-0.4
		c0.1,0,0.3,0,0.4,0.1c0.3,0.2,0.5,0.5,0.8,0.7c1,0.8,1.9,0.5,2.2-0.7c0.1-0.3,0.1-0.5,0.2-0.8c0.1,0,0.2,0,0.2,0
		c0.1,0.3,0.2,0.5,0.2,0.8c0,0.7,0.1,1.2,0.6,1.8c0.3,0.4,0.5,0.9,0.5,1.5c0.1,0.8,0,1.6,0,2.5c0,0.4,0.1,0.8,0.4,1.1
		c0.3,0.4,0.9,0.3,1-0.2c0.3-1.7,1.3-3.3,1.1-5.1c-0.1-0.9-0.3-1.6-0.9-2.2c-0.1-0.1-0.1-0.1-0.2-0.2c-0.3-1.1-1.2-1.2-2.1-1.2
		c-2.3-0.1-4.7-0.3-7,0.2c-0.7,0.1-1.2,0.4-1.6,0.9c-2,2.7-4,5.3-6,8c-0.8,1.1-1.4,2.4-2.3,3.4c-0.7,0.8-1.6,1.4-2.4,2
		c-0.4,0.3-0.8,0.7-1.2,1c-0.8,0.6-1.6,1.2-2.4,1.8c-1.2,0.9-2.4,1.8-3.5,2.9c-2.8,2.7-6.1,4.8-9.3,7c-2.2,1.5-4.3,3.3-6.4,5
		c-2.6,2.1-5,4.4-7.6,6.5c-0.4,0.4-0.8,0.7-1.3,1c-1.4,1-2.7,2.1-3.8,3.4c-1.6,2-3.4,3.8-5,5.7c-0.7,0.8-1.2,1.7-2,2.5
		c-1.5,1.7-2.4,3.6-2.9,5.8c-0.1,0.6-0.5,1.1-0.7,1.6c-0.1,0-0.1,0-0.2-0.1c0-0.2,0-0.4,0-0.6c0.3-2.9,1.4-5.4,3.4-7.6
		c2.6-2.9,5.1-5.9,7.7-8.8c0.7-0.8,1.5-1.4,2.3-2c1.7-1.4,3.3-2.8,5-4.2c2.1-1.8,4.2-3.5,6.4-5.3c1.6-1.3,3.1-2.6,4.8-3.7
		c3.6-2.2,6.9-4.9,10.1-7.6c2-1.7,4.1-3.3,6.2-4.9c1.6-1.3,2.9-2.8,4-4.7c1.5-2.5,3.4-4.8,5.2-7.2c0.4-0.6,0.8-1.1,1.3-1.6
		c0.4-0.4,0.9-0.8,1.4-0.9c2.3-0.5,4.6-0.5,6.9-0.3c0.5,0.1,1,0.1,1.5,0c0.6,0,1.1,0.2,1.5,0.8c0.3,0.6,0.8,0.6,1.4,0.4
		c1-0.4,1-1,1.1-2c0.2-2.8,0.7-5.5,1.2-8.3c0.6-3.7,1.7-7.2,2.8-10.7c1-3.2,2.6-6.1,4.2-9c1-1.7,2.4-3,4.1-4.1c2.5-1.6,5.2-3,8-4.1
		C90.9,0.1,91.4,0,91.8,0c2.3,0,4.7,0,7,0c1.2,0,2.3,0.1,3.5,0.3c0.6,0.1,1.3,0.5,1.8,0.9c1.1,0.8,2.2,1,3.6,0.8
		c3.8-0.6,6.8,0.8,8.9,3.9c2.5,3.7,4,7.7,4.6,12.1c0.2,1.4,0.6,2.7,0.8,4.1c0.4,3.1,0.7,6.2,1,9.3c0.1,1,0.2,2,0.5,3
		c0.6-1.2,1.6-1.2,2.6-1.1c2.6,0.1,5.1,0.2,7.7,0.5c1,0.1,1.9,0.6,2.5,1.7c1.1,1.8,2.4,3.4,3.7,5.1c0.6,0.8,1.2,1.5,1.8,2.3
		c0.4,0.4,0.8,0.8,1.3,1.1c3.4,2.2,6.8,4.4,10.2,6.6c0.8,0.5,1.7,0.8,2.5,1.3c0.5,0.3,0.9,0.6,1.4,0.9c1.4,1.1,2.8,2.2,4.3,3.2
		c0.9,0.7,1.9,1.4,2.8,2.2c2.1,1.6,4.5,2.5,6.9,3.2c0,0.3,0,0.5,0,0.8c-3-0.7-5.7-2-8.2-3.9c-2.1-1.6-4.1-3.2-6.2-4.9
		c-0.1-0.1-0.2-0.1-0.3-0.2c-1.4-0.8-2.8-1.5-4.1-2.3c-3-1.9-6-3.5-8.8-5.7c-1.5-1.1-3-2-4-3.7c-0.9-1.6-2.1-3-3.1-4.5
		c-0.9-1.3-1.8-2.4-3.5-2.5c-1.4-0.1-2.9-0.3-4.3-0.3c-1.1,0-2.3,0-3.5,0.1c-0.8,0.1-1,0.7-0.8,1.5c0.2,0.4,0.2,0.8,0.3,1.2
		c0.5,2.3,1.8,4,3.7,5.2c0.2,0.1,0.6,0,0.9,0c0-0.3,0.1-0.8-0.1-1c-0.8-1.3-1.5-2.7-1.7-4.2c0-0.1,0.1-0.3,0.2-0.4
		c0.1,0.1,0.3,0.2,0.4,0.3c0.1,0.2,0.2,0.5,0.3,0.9c1.2-0.3,1.4-1.9,2.6-2.1c-0.7,1-1.1,2.3-2.4,2.9c0.1,0.3,0.2,0.5,0.3,0.8
		c0.1,0.2,0.2,0.4,0.3,0.6c0.5,0.9,0.9,1,1.5,0.1c0.2-0.2,0.1-0.7,0-1c-0.3-0.6-0.1-1,0.3-1.3c0.6-0.6,1.3-1.2,1.9-1.8
		c0.1-0.1,0.1-0.4,0.2-0.6c0.1,0.1,0.3,0.2,0.4,0.3c-0.1,0.3-0.1,0.6-0.3,0.9c-0.3,0.4-0.6,0.8-1,1.1c-0.6,0.5-0.7,1-0.5,1.7
		c0.1,0.8,0.3,1.6,0.5,2.3c0.4,2.3-1.4,4.4-3.7,4.3c-0.4,0-0.7-0.1-1.1-0.2c-0.1,0.1-0.2,0.2-0.4,0.4c-1.6,1.4-3.1,1.4-4.7-0.1
		c-0.1-0.1-0.2-0.2-0.4-0.3c-1.6-0.8-2.9-1.9-3.5-3.5c-0.3-0.8-0.9-1.5-0.8-2.4c0-0.2-0.1-0.3-0.1-0.5c0,0.1-0.1,0.2-0.1,0.2
		c-0.5-0.1-1-0.1-1.4-0.3c-0.8-0.3-1.5-0.6-2.3-0.9c-0.6,1.4-0.5,2,0.7,2.8c0.6,0.4,1.1,0.8,1.7,1.1c0.6,0.3,0.7,0.7,0.4,1.3
		c-0.1,0.2-0.2,0.4-0.3,0.6c-0.8,1.4-0.5,2.2,0.9,2.9c2.1,1.2,4.2,2.4,6.4,3.6c0.3,0.2,0.7,0.3,1,0.4c1.2,0.4,2.5,0.7,3.7,1.2
		c0.7,0.3,1.3,0.8,2,1.1c1.2,0.7,2.4,1.2,3.8,1.4c1.3,0.3,2.6,0.9,3.9,1.6c3.3,1.7,6.6,3.6,9.9,5.3c0.4,0.2,0.7,0.5,1.1,0.6
		c1.6,0.4,2.9,1.4,3.9,2.7c0.5,0.5,0.9,1.1,1.5,1.6c2,1.5,4.1,2.9,6.1,4.4c1.3,1,2.5,2.3,3.4,3.6c2.2,3.3,4.8,6.2,7.3,9.1
		c0,0.6,0,1.2,0,1.8c-1.6-1.8-3.1-3.5-4.7-5.3c-0.1-0.1-0.2-0.3-0.3-0.4c-1.3-1.9-2.5-3.8-3.8-5.6c-2.2-2.9-5.4-4.6-8.1-6.8
		c-0.2-0.1-0.6-0.2-0.7-0.1c-0.7,0.6-1.5,1.1-1.8,1.9c-0.9,2.1-1.5,4.4-2.4,6.5c-0.7,1.6-1,3.2-1,4.9c0,1.4-0.1,2.8-0.1,4.2
		c0,0.2,0.1,0.6,0.3,0.7c1.2,0.5,2.4,1.2,3.7,1.5c1.8,0.3,3.5,0.6,5.3,1.2c0.9,0.3,1.9,0.6,2.8,0.8c1.7,0.5,3.5,1,5.2,1.4
		c1.9,0.4,3.7,0.7,5.6,1.1C171.1,91.7,171.1,92.2,171.1,92.6z M90.3,33.4c-3.6-1-7-0.4-10.4,1.1c-0.5,0.2-0.8,0.6-0.7,1.2
		c0.1,0.8,0.2,1.6,0.3,2.4c0.4,2.2,0.8,4.4,1.1,6.6c0.1,1,0.1,2,0.2,2.9c0.2,1.5,0.6,2.9,1.4,4.2c1.1,2,2.6,3.7,4.5,5
		c1.9,1.3,3.7,2.9,6,3.7c2.8,0.9,5.5,0.8,8.1-0.6c1.8-0.9,3.4-2.1,4.8-3.5c1.4-1.5,3.1-2.7,3.8-4.8c0.9-2.7,1.9-5.4,2.7-8.1
		c0.5-1.9,0.8-3.8,1.1-5.8c0.5-2.6,0.9-5.1-0.3-7.6c-0.5-1-0.8-2-1.4-2.9c-1-1.5-2.1-2.8-3.2-4.2c-0.8-1-1.7-2-2.6-3
		c-0.1-0.1-0.3-0.3-0.3-0.4c0.1-0.7,0.1-1.3,0.3-1.9c0.1-0.7,0.4-1.3,0.5-2c0.1-1.8,0.3-3.5,0.2-5.3c0-1.6,0-3.4-1.1-4.8
		c-0.2-0.2-0.5-0.3-0.7-0.4c0,0.3,0,0.6,0.1,0.8c0.3,1,0.9,1.9,1,2.9c0.3,2.8,0,5.5-0.7,8.2c-0.8,2.6-2.3,4.6-4.1,6.5
		c-2.6,2.6-5.9,4.2-9.1,5.9c-1.2,0.6-2.3,1.4-3.4,2.1c0,0.1,0.1,0.2,0.1,0.3c0.5,0.1,1,0.3,1.5,0.4C90.6,32.5,90.7,32.6,90.3,33.4z
		 M71.8,52.5c-0.2,0.1-0.4,0.1-0.5,0.2c-2,1.2-4,2.5-6,3.7c-2,1.2-3.9,2.5-5.9,3.7c-1.3,0.7-2.7,1.2-4,1.9c-2,1.1-3.9,2.4-5.8,3.6
		c-2.9,1.8-5.9,3.3-8.2,5.9c-0.8,0.9-1.9,1.7-2.8,2.5c-1.5,1.5-3.1,3.1-4.6,4.7c-0.2,0.2-0.3,0.4-0.6,0.8c0.5-0.1,0.8,0,1-0.1
		c2.1-0.9,4.2-1.9,6.2-2.9c0.2-0.1,0.4-0.4,0.3-0.7c0-0.6,0.2-0.9,0.7-1.2c1.3-0.9,2.6-1.8,3.9-2.6c0.5-0.3,1-0.6,1.5-0.9
		c1.9-1,3.8-2.1,5.7-3c1.4-0.7,2.8-1.4,4.2-1.7c1-0.2,1.8-0.6,2.3-1.5c0.5-0.9,1.1-1.2,2.1-1.2c1.2,0,2.4,0.1,3.6-0.4
		c0.5-0.2,1.1-0.3,1.6-0.1c1.6,0.5,3.3,0.1,4.9-0.1c0.8-0.1,1.7-0.4,2.6-0.6C72.1,59.3,71.9,56,71.8,52.5z M109.1,53.7
		c-0.1,0-0.1-0.1-0.2-0.1c-0.1,0.1-0.1,0.3-0.2,0.4c-1.5,1.4-2.8,3-4.4,4.3c-2.5,2.1-5.4,3.5-8.8,3.4c-2.1-0.1-3.9-0.8-5.6-1.7
		c-1.1-0.6-2.1-1.5-3.2-2.2c-0.3-0.2-0.8-0.2-1-0.1c-0.2,0.1-0.2,0.6-0.2,0.9c0.2,0.6,0.3,1.1-0.2,1.6c-0.3,0.3-0.5,0.7-0.8,1
		c-0.4,0.4-0.3,0.7,0.1,1.1c0.7,0.5,1.3,1,1.9,1.4c0.5,0.4,1,0.9,1.6,1c2.5,0.5,5,0.9,7.6,1.2c2.9,0.3,5.6-0.7,8.4-1.5
		c0.6-0.2,0.7-0.6,0.9-1.1c0.7-2.6,1.7-5,3-7.3C108.4,55.3,108.7,54.5,109.1,53.7z M145,91.4c1.3-2,1.9-4.2,2-6.5c0-1,0.1-2,0.3-3.1
		c0.3-2.4,0.2-4.9,1.5-7.1c0-0.1,0-0.1,0.1-0.2c0.6-2.9,1.4-5.7,3.6-7.9c-1-1.2-2.6-0.9-3.8-1.7c-0.1,0.2-0.1,0.3-0.2,0.4
		c-1.1,0.8-1.5,2.1-1.8,3.4c-0.2,1-0.4,2.1-0.9,3c-1.2,2.8-1.7,5.7-2.8,8.5c-1.1,2.9-1,6-1,9.1c0,0.2,0.1,0.5,0.2,0.6
		C143.1,90.5,144,91,145,91.4z M45.1,73.3c-0.8,0.5-1.7,1.1-2.5,1.7c-0.8,0.5-0.8,0.6-0.2,1.4c0.6,0.8,1.2,1.5,1.8,2.3
		c1,1.6,1.9,3.2,3,4.7c0.9,1.3,2,2.6,2.8,4c2,3.7,2.3,7.8,3.3,11.8c0,0.1,0,0.2,0,0.2c0.2,0.8,0.4,1.7,0.7,2.5
		c0.1,0.3,0.5,0.5,0.8,0.5c0.8,0.1,1.5,0.1,2.2-0.6c-0.1-0.5-0.2-1-0.4-1.6c-0.4-1.4-0.8-2.8-1.2-4.3c-0.4-1.4-0.5-2.9-1-4.2
		c-1.3-3.5-2.7-6.9-4.2-10.3C48.9,78.6,47.7,75.6,45.1,73.3z M126.1,52.1c-0.1,0.5-0.2,0.8-0.3,1c-0.3,1.5-0.5,3-0.8,4.4
		c-0.1,0.3-0.1,0.6-0.1,0.9c0.3,0,0.6,0,1,0c0.1,0,0.3-0.1,0.4-0.2c1.1-0.4,2.1-1.2,3.4-1.2c1.1,0,2.1,0.3,3.1,0.7
		c2.2,0.8,4.4,1.4,6.5,2.3c4.2,1.9,8.3,4.1,12.7,5.5c0,0,0.1,0,0.3-0.2c-0.9-0.7-1.7-1.7-2.6-2c-1.3-0.3-2.2-1-3.2-1.6
		c-2.7-1.5-5.5-3-8.2-4.4c-1.3-0.7-2.7-1.2-4-1.8c-0.1,0-0.2,0-0.4,0c-0.4-0.1-0.8,0-1.2-0.2c-1.3-0.6-2.6-1.3-3.9-1.9
		C128,52.9,127.1,52.6,126.1,52.1z M106.9,66.5c-1-1.5-1.7-1.8-3.1-1.4c-0.3,0.1-0.5,0.2-0.8,0.2c-2.1,0.5-4.1,1.2-6.2,1.1
		c-1.6-0.1-3.3-0.2-4.9-0.3c-2.7-0.1-5-1.1-7.2-2.6c-0.2-0.2-0.7-0.2-1-0.1c-0.5,0.1-0.9,0.4-1.4,0.7c0.8,0.8,1.5,1.6,2.4,2.3
		c2.3,1.7,5,2.2,7.7,2.2c2.7,0,5.5-0.3,8.2-0.7C102.6,67.6,104.7,67,106.9,66.5z M126.8,44.6c-0.6-0.5-1.3-1.2-2.1-1.8
		c-2-1.5-4.5-2.5-5.1-5.4c-1.2,0.6-1.6,2.3-1,3.5c1.2,2.1,3.2,3.6,5.1,5c0.1,0.1,0.3,0.1,0.4,0.1C125.3,46.2,126.2,46,126.8,44.6z
		 M70.8,39.1c0.1,0,0.2,0,0.2,0c0.1,0.1,0.2,0.3,0.2,0.4c0.1,1,0.2,1.9,0.2,2.9c0,0.2,0,0.5-0.1,0.6c-0.6,0.6-1.1,1.2-1.8,1.7
		c-0.7,0.5-1.2,1-1.4,1.8c-0.1,0.4-0.5,0.8-0.8,1.2c-0.2,0.3-0.3,0.6-0.5,1c0.7-0.4,1.2-0.9,1.8-1c0.6-0.1,1.2,0.3,1.9,0.6
		c1.5-1.5,2.2-3.5,2.7-5.6c0.3-1.1,0.7-2.1,0.4-3.3c-0.2-0.6-0.4-0.8-1-0.7c-0.6,0.1-1.2,0.3-1.8,0.2c-0.8-0.1-1.3,0.3-2,0.6
		c0.6,0.4,1.1,0.7,1.7,1.1C70.6,40,70.7,39.5,70.8,39.1z M130.4,44c-0.1-0.8-0.5-1.1-1.2-1.2c-0.8-0.2-1.7-0.5-2.3-1
		c-1.3-1.1-2.3-2.5-2.8-4.2c-0.1-0.5-0.4-1-0.7-1.4c-0.5-0.5-1.6-0.4-2,0c-0.8,0.7-1,1.8-0.5,2.5c0.6,0.7,1.3,1.3,2,1.9
		c1.7,1.4,3.8,2.3,5.2,4.1c0.3,0.3,1.1,0.3,1.7,0.2C130,44.9,130.2,44.4,130.4,44z M60.7,48.2c0,0.1,0.1,0.1,0.1,0.2
		c1-0.8,1.8-0.7,2.5,0.2c0.1,0.1,0.4,0.1,0.5,0c0.9-0.6,1.6-1.4,1.7-2.5c0.1-0.8,0-1.6,0-2.5c0-0.8-0.4-1.5-1.2-2.1
		c0.1,0.4,0,0.7,0.1,0.9c0.4,0.9,0.2,1.7-0.4,2.3c-0.8,0.9-1.7,1.7-2.6,2.5C61.2,47.6,60.9,47.9,60.7,48.2z M114,34.4
		c0,1,0,1.7,0,2.5c0,0.2,0.2,0.4,0.4,0.4c0.5,0.2,1,0.5,1.5,0.7c0.4,0.2,0.7,0,0.9-0.4c0.6-1.3,0.1-2.5,0-3.9
		C116,34.5,115.2,34.9,114,34.4z M76.6,42.4c0.9-0.9,1.6-1.5,2.3-2.3c0.4-0.4,0.3-1.4-0.1-1.8c-0.1-0.1-0.4-0.1-0.6-0.1
		c-1.1,0.5-2.1,1-3.2,1.5c-0.2,0.1-0.4,0.5-0.4,0.7c0,0.2,0.3,0.5,0.5,0.5C76,40.9,76.5,41.3,76.6,42.4z M76.9,31.8
		c-1.2,0.4-1.9,2.1-1.3,3.2c0.4,0.7,0.7,1.5,1,2.3c0.1,0.2,0.4,0.5,0.6,0.5c0.5-0.1,1-0.3,1.5-0.5c0,0,0-0.2,0-0.3
		c-0.4-1.4-0.9-2.7-1.3-4.1C77.3,32.5,77.1,32.2,76.9,31.8z M117.8,37.3c0,0,0.1,0.1,0.1,0.1c0.2-0.7,0.5-1.4,0.6-2.1
		c0.2-1.3,0.2-2.7-0.6-3.8c-0.7-0.9-1.6-0.8-2.1,0.2c-0.3,0.7-0.6,1.3-0.9,2c0,0.1,0.1,0.1,0.1,0.2c0.3-0.2,0.5-0.4,0.8-0.6
		c0.4-0.2,0.9-0.4,1.3-0.4c0.2,0,0.5,0.5,0.6,0.9C117.8,35,117.8,36.2,117.8,37.3z M115.1,43c0.1-1-0.7-1.1-1.3-1.4
		c-0.5-0.3-0.7-0.1-0.9,0.4c-0.2,0.7-0.4,1.5-0.6,2.2c-0.1,0.3,0,0.8,0.1,0.9c0.3,0.1,0.9,0.2,1.1,0.1
		C114.4,44.6,115.2,43.9,115.1,43z M70.1,48.7c-1.1-0.9-1.7-0.9-2.6,0.1c-0.6,0.6-0.5,1.1,0.2,1.3c0.4,0.1,0.9,0,1.2-0.2
		C69.4,49.6,69.7,49.1,70.1,48.7z M79.3,41.3c-0.1,0-0.2-0.1-0.3-0.1c-0.2,0.2-0.5,0.4-0.6,0.7c-0.1,0.5,0,1.1,0,1.7
		c0,0.6,0.4,0.9,0.9,1.1c0.4,0.2,0.7,0,0.6-0.4C79.8,43.2,79.6,42.3,79.3,41.3z M69.1,44.3c0.7-0.7,1.6-1.1,1.7-2.1
		c0.1-0.6-0.8-1.4-1.5-1.6C69.2,41.7,69.2,42.9,69.1,44.3z M63.1,49.1C62.4,48,62,47.9,61,48.7c-0.2,0.2-0.3,0.6-0.5,0.9
		c0.4,0.1,0.8,0.4,1.1,0.4C62.1,49.8,62.6,49.4,63.1,49.1z M130.9,43.4c0.8-0.7,0.7-2.1,0-2.9c-0.2,0.2-0.5,0.4-0.4,0.5
		C130.6,41.7,130.8,42.5,130.9,43.4z"/>
	<path class="st0" d="M87.8,49.8c0.6-0.1,0.9-0.3,1.3-0.3c1.6-0.2,3.2-0.3,4.8-0.5c0.3,0,0.6,0.1,0.8,0.3c0.6,0.5,1,0.4,1.7,0.1
		c0.5-0.2,1.2-0.1,1.8-0.1c1.2,0.1,2.4,0.2,3.6,0.3c0.8,0.1,1,0.5,0.5,1.1c-0.6,0.7-1.3,1.3-2,1.9c-0.3,0.3-0.7,0.5-1,0.7
		c-1.5,1.4-3.2,1.3-5.1,1.2c-2.2-0.1-3.5-1.5-4.8-3C88.8,51,88.4,50.5,87.8,49.8z M89.8,51.2c-0.1,0.1-0.1,0.2-0.2,0.2
		c0.8,0.7,1.5,1.5,2.4,2.1c0.6,0.4,1.4,0.4,2.1,0.5c1.7,0.3,3.4,0.3,4.8-1.1c0.3-0.3,0.6-0.4,0.9-0.7c0.6-0.5,1.2-1,1.7-1.6
		c0.1-0.1,0-0.4,0-0.6c-0.2,0.1-0.4,0.1-0.6,0.2c-0.2,0.1-0.3,0.3-0.4,0.4c-1.2,0.6-2.3,1.2-3.5,1.8c-1.7,0.9-3.3,0.6-4.9-0.2
		C91.4,52,90.6,51.6,89.8,51.2z M90.1,50.7c3.5,2.2,5.6,2.3,8.3,0.8c0.7-0.4,1.5-0.6,1.8-1.5c-1-0.3-1.7,0.1-2.4,0.5
		c-2.1,1-4.3,1-6.5,0.4C91,50.8,90.6,50.7,90.1,50.7z M89,49.9c0,0.1,0,0.2,0,0.2c0.3,0,0.6,0.1,0.9,0.1c0.7,0.1,1.5,0.1,2.2,0.2
		c0.9,0.1,1.8,0.3,2.6,0.3c1.2-0.1,2.4-0.2,3.4-1c-0.7-0.3-1.2-0.3-1.8,0c-0.4,0.2-1.1,0.3-1.3,0.1c-0.6-0.6-1.3-0.4-1.9-0.4
		c-0.7,0-1.4,0.1-2.1,0.2C90.3,49.8,89.6,49.9,89,49.9z"/>
	<path class="st0" d="M87.8,37.6c-1.6,0.1-3-0.6-4.4-1c-0.5-0.2-0.6-0.6-0.2-1c1-0.8,2-1.6,3.3-1.6c0.7,0,1.4,0.1,2.1,0.1
		c1.3,0.1,2.1,1,2.8,1.9c0.3,0.4,0.2,0.7-0.2,0.8c-1.1,0.3-2.2,0.6-3.3,0.9C87.8,37.7,87.8,37.6,87.8,37.6z M90.6,36.7
		c0-0.1,0-0.2,0.1-0.3c-0.5-0.5-1.1-0.9-1.5-1.4c-0.4,0.8-0.8,1.4-1.2,2.1C88.8,37,89.7,36.9,90.6,36.7z M85.5,35.2
		c-0.4,0.2-0.8,0.5-1.5,0.9c1,0.3,1.8,0.6,2.6,0.8C86.3,36.4,85.9,35.8,85.5,35.2z"/>
	<path class="st0" d="M107.1,36.4c-0.5,0.2-1,0.3-1.3,0.5c-1.1,1-2.3,0.8-3.5,0.6c-1-0.1-1.9-0.2-2.9-0.3c-0.3,0-0.5-0.1-0.8-0.2
		c0.1-0.3,0.1-0.7,0.3-0.9c0.4-0.4,0.9-0.8,1.5-1.1c2.7-1.3,4.6-1,6.5,0.9C107.1,36.1,107.1,36.3,107.1,36.4z M105.6,36.3
		c-0.3-0.3-0.6-0.6-0.9-0.8c-0.1-0.1-0.4,0.1-0.5,0.2c-0.3,0.5-0.5,1-0.8,1.5C104.2,37.3,105,37.1,105.6,36.3z M99.1,36.6
		c0,0.1,0.1,0.1,0.1,0.2c0.8,0,1.6,0,2.4,0c-0.2-0.5-0.3-0.9-0.6-1.5C100.3,35.7,99.7,36.1,99.1,36.6z"/>
	<path class="st0" d="M103,31.3c1.7-0.2,3.3,0.4,4.8,1.3c0.2,0.1,0.3,0.4,0.4,0.6c-0.3,0.1-0.5,0.3-0.8,0.2
		c-1.3-0.2-2.6-0.6-3.9-0.7c-0.9-0.1-1.8,0.2-2.8,0.4c-0.4,0.1-0.8,0.3-1.2,0.4c-0.2,0.1-0.5,0-0.7,0c0-0.3-0.1-0.7,0.1-0.9
		c0.2-0.3,0.5-0.4,0.9-0.6C100.8,31.5,101.8,31.1,103,31.3z"/>
	<path class="st0" d="M91.5,42.6c-0.2,0.4-0.5,0.8-0.7,1.2c-0.1,0.3-0.3,0.6-0.3,0.8c-0.1,1,0,1,1,1.1c0.5,0,1,0.3,1.5,0.5
		c0.6,0.3,1.2,0.6,1.8,0.8c0.9,0.2,1.7,0.2,2.4-0.7c0.2-0.3,0.8-0.4,1.2-0.6c0.5-0.2,1.1-0.3,1.3-0.7c0.3-0.6,0-1.2-0.6-1.6
		c-0.1-0.1-0.2-0.2-0.4-0.5c0.8,0.1,1.3,0.5,1.4,1.1c0.1,0.6,0.3,1.4-0.5,1.7c-1.1,0.4-2.1,0.9-3.1,1.6c-0.9,0.6-2.1,0.3-3.1-0.2
		c-0.8-0.5-1.6-1-2.7-0.9c-0.2,0-0.6-0.3-0.7-0.5C89.6,44.7,90.4,43,91.5,42.6z"/>
	<path class="st0" d="M77,35.3c0.3,0.7,0.8,1.3,0.3,2.3c-0.2-0.3-0.3-0.4-0.4-0.6c-0.2-0.5-0.4-1-0.6-1.5c-0.1-0.2-0.2-0.5-0.2-0.7
		c0.1-0.3,0.3-0.6,0.5-0.8c0.2,0.2,0.6,0.3,0.7,0.5c0.1,0.2-0.1,0.5-0.1,0.8C77.1,35.2,77.1,35.3,77,35.3z"/>
</g>
</svg>
