<?xml version="1.0" encoding="utf-8"?>
<!-- Generator: Adobe Illustrator 19.2.1, SVG Export Plug-In . SVG Version: 6.00 Build 0)  -->
<svg version="1.1" id="Layer_1" xmlns="http://www.w3.org/2000/svg" xmlns:xlink="http://www.w3.org/1999/xlink" x="0px" y="0px"
	 viewBox="0 0 200 277" style="enable-background:new 0 0 200 277;" xml:space="preserve">
<style type="text/css">
	.st0{fill:#FF5722;}
</style>
<g id="motion-girl">
	<path class="st0" d="M20.8,277c-0.1-1.2-0.1-2.4-0.8-3.5c-0.3-0.5-0.3-1.5,0-1.9c1.2-1.6,0.8-3.4,0.7-5.2
		c-0.2-5.4-0.3-10.9-0.6-16.3c-0.2-2.9-0.6-5.7-0.8-8.6c-0.2-2.7-0.5-5.3-0.7-8c-0.5-7.4-0.9-14.9-3.4-22c0-0.1-0.1-0.2-0.1-0.2
		c0.4-2-1.1-2.7-2.3-3.8c-4.7-4.3-8.5-9.3-11.3-15.1c-1.9-3.9-1.6-7.8-0.7-11.9c0.8-3.7,1.7-7.4,2.1-11.2c0.5-5,0.8-10,0.6-15
		c-0.2-5.7,2.1-9.8,6.3-13.4c4.8-4.1,10.2-7,16.4-8.1c2.5-0.4,5.1-0.2,7.6-0.1c0.7,0,1.5,0.6,2.3,0.9c2.1-4,4.5-7.9,4.4-12.7
		c-0.1-2.1,0.6-4,2-5.5c2.1-2.2,3-4.7,2.7-7.7c-0.2-2.7,0-5.4-0.1-8c0-2-0.3-4-0.2-6c0.2-3.9,0.5-7.8,0.7-11.7
		c0.1-1.8,0.1-3.6,0.2-5.3c0.2-2.7,0.6-5.4,0.8-8.1c0.2-2.1,0.2-4.2,0.2-6.4c0.1-4.1,0-8.3,0.3-12.4c0.2-2.9,0.4-6,2.6-8.4
		c1.4-1.6,1.4-1.8,3.5-2.2c0.4-2.2,0.8-4.5,1.3-6.7c0.9-4.1,2.9-7.7,5.9-10.7c2.7-2.8,5-5.9,7.7-8.6c2.8-2.8,6.1-4.8,9.8-6.1
		c2.3-0.8,4.6-1.6,6.8-2.7c3-1.4,6.1-1.6,9.3-1.3c0.7,0.1,1.5-0.2,2.1-0.6c2.4-1.8,5.2-2.3,8.1-2.6c4.7-0.4,9.1,0.5,13.2,2.8
		c2.1,1.2,4.1,2.7,6.2,3.9c3.4,1.9,5.9,4.8,8.2,7.9c2.8,3.7,5.6,7.4,8.3,11.1c0.9,1.2,1.6,2.6,2,4.1c0.5,1.8,1,3.5,2.4,4.8
		c2.2,2.1,2.7,5,3.5,7.7c0.7,2.3,1.4,4.5,2,6.8c1,4.2,2.4,8.3,2.4,12.7c0,1.2,0.5,2.4,0.7,3.6c0.4,2.2,1.1,4.4,1.2,6.6
		c0.3,3.6,0.2,7.1,0.3,10.7c0.1,1.3,0.5,2.6,0.7,4c0.6,2.8,0.2,5.6-0.4,8.3c-1.2,5.2-2.7,10.4-4,15.6c-0.5,2.1-0.2,4.1,0.2,6.2
		c0.7,3.5,2.8,6.3,4.4,9.3c1.2,2.5,3.3,4.6,4.7,7c1.4,2.3,2.6,4.8,3.8,7.3c0.5,1,1.1,1.5,2.4,1.4c4-0.3,8,0.1,12,1.1
		c1.8,0.5,3.6,0.9,5.4,1.3c3.4,0.9,5.9,3.2,8.4,5.6c4.3,4.1,6.8,9.3,7.5,15.1c0.5,4-0.1,8.1,0,12.1c0,3.3,0.2,6.5,0.2,9.8
		c0,2.3,0.4,4.7-0.1,6.9c-1.2,5.7-2.9,11.2-5.7,16.4c-1.5,2.7-3.2,5-6,6.5c-1.2,0.6-2.1,1.8-3.2,2.5c-1.9,1.2-3.9,2.3-6,3.2
		c-1.1,0.5-1.8,1-2.2,2c-1.8,4.8-3.8,9.5-5.1,14.4c-0.9,3.6-1,7.6-1.1,11.4c-0.1,5.1-0.1,10.1-1,15.1c-0.5,3-0.5,6-0.8,9
		c-0.1,0.9-0.2,1.8-0.3,2.7C119.2,277,70,277,20.8,277z M133.7,66.7c0.5-2.8,0.2-5.3-0.8-7.8c-0.5-1.2-0.8-2.4-1.3-3.6
		c-1.2-2.8-2.3-5.7-3.8-8.4c-1.2-2-3.1-3.6-4.4-5.5c-2-2.8-3.6-5.7-5.6-8.5c-2.9-4.1-7.3-5.7-12-6.4c-3.6-0.5-7.3-0.1-10.6,1.8
		c-0.2,0.1-0.5,0.2-0.7,0.3C92.2,29,91,28.9,91.3,26c0.1-0.9,0.2-1.9,0.1-2.8c-0.1-2.3-0.3-4.6-0.4-7c-0.1-3.2,0.2-6.3,2.7-8.7
		c0.2-0.2,0.3-0.9,0.1-1.3c-0.1-0.3-0.8-0.6-1.1-0.5c-0.4,0.1-0.7,0.6-0.9,1c-1.7,2.5-3.4,4.9-3.2,8.2c0.2,2.5,0.1,5.1,0.3,7.7
		c0.1,1.7,0.4,3.4,0.5,5c0.1,1-0.6,1.6-1.5,1.6c-1.2-0.1-2.5-0.2-3.7-0.7c-2.5-1-4.9-1.6-7.4,0c-2.4,1.5-4.7,3-6.3,5.3
		c-2.1,3-4.2,6-6,9.2c-1.7,3-2.9,6.3-3.4,9.8c-0.7,5.5-1.7,11.1-2.1,16.6c-0.2,2.6,0.6,5.3,0.8,8c0.9,9.4,2.9,18.6,6,27.6
		c2.1,6.1,5.4,11.4,9.8,15.9c1.8,1.8,3.7,3.8,5.9,5c6.2,3.3,12.7,5.1,19.8,3.5c4.3-1,8.4-2.4,11.4-5.9c2.1-2.4,4.4-4.8,6.7-7
		c3.1-2.8,4.5-6.5,5.5-10.3c1-3.6,1.4-7.3,2.2-10.9c1-4.6,2.4-9.2,3.4-13.8C131.8,76.4,134.3,71.7,133.7,66.7z M126.5,113
		c0.3,0.6,0.5,1.1,0.6,1.6c1.3,3.5,2.5,6.9,2.7,10.7c0.1,1.8,0.5,3.6,0.9,5.4c1,4.4,2.6,8.5,3.3,13c1.3,8.3,3.2,16.5,4.9,24.8
		c0.7,3.5,1.7,7,2.3,10.5c0.9,4.9,1.4,9.9,2.5,14.8c0.8,3.6,2.2,7,3.6,10.4c0.6,1.6,1.6,3.1,2.6,4.5c1,1.4,2.4,2.7,3.4,4.1
		c0.9,1.3,2,2.3,3.4,3c0.7,0.4,1.3,0.8,1.9,1.2c3.1,2.5,6.7,4.1,10.7,4.3c1.8,0.1,3.7-0.3,5.5-0.5c2.7-0.3,5.3-1.1,7.6-2.7
		c2.1-1.6,4.4-3.1,6.5-4.7c0.7-0.5,1.2-1.3,1.7-2c2.5-3.7,3.8-7.9,5.3-12.1c0.4-1.2,1.1-2.5-0.1-3.7c-0.1-0.1-0.1-0.3-0.1-0.5
		c-0.8-3-1.5-5.9-2.3-8.9c-0.1-0.3-0.2-0.6-0.4-0.8c-1-0.8-1.2-1.8-1.2-3c0-0.6-0.1-1.2-0.4-1.7c-1.3-2.5-2.4-5-4-7.4
		c-2.1-3.2-4.2-6.4-6.7-9.4c-3.4-4.1-7.1-8.1-10.9-12c-3.2-3.3-5.9-6.8-8-10.9c-2.2-4.5-4.9-8.8-7.4-13.3c-1.5-2.6-3.2-5.2-4.4-7.9
		c-0.8-1.8-1.5-3.6-2.8-5.2c-0.8-1-1.7-2-2.5-3c-0.5-0.6-0.7-1.4,0-1.9c0.7-0.5,1.1-0.1,1.6,0.6c0.6,0.9,1.4,1.6,2.3,2.5
		c0.1-1,0.1-1.8,0.3-2.5c0.7-2.8,1.5-5.5,2.3-8.3c1.3-4.8,2.5-9.6,2.1-14.6c-0.1-1.3-0.6-2.6-0.7-4c-0.2-3.1-0.1-6.3-0.3-9.4
		c-0.2-2.9-0.2-5.7-1.3-8.5c-0.5-1.2-0.5-2.6-0.7-3.9c-0.2-1.3-0.2-2.5-0.4-3.8c-0.7-3.3-1.5-6.6-2.4-9.9c-0.9-3.4-2-6.9-3-10.3
		c-0.4-1.2-1.4-1.3-2.1-0.3c-0.2,0.3-0.4,0.6-0.4,0.9c-0.2,2.2-0.4,4.4-0.5,6.6c0,0.4,0.5,1.1,0.9,1.2c2.1,0.5,3.2,1.5,3.4,3.7
		c0.1,1.3,0.2,2.5,0.3,3.8c0.2,5.8,0.3,11.6,0.5,17.3c0,0.4-0.1,1-0.4,1.1c-1.2,0.5-0.9,1.4-0.9,2.3c0,0.8,0.1,1.7-0.1,2.4
		c-0.1,0.5-0.7,0.8-1.1,1.2c-0.3-0.4-0.8-0.9-0.8-1.3c-0.1-2-0.1-4.1,0-6.1c0.1-2.1-0.3-4-1.1-5.9c-0.6-1.3-3.8-2.1-4.9-1.1
		c-0.1,0.1-0.1,0.3-0.2,0.5c-0.5,2.1-0.9,4.2-1.4,6.3c-1,4-2,8.1-3.1,12.1c-0.7,2.8-1.5,5.6-2.1,8.5c-1.1,5-2,10-3,14.9
		c-0.3,1.6-1,3.2-1.6,5.1c2.2-0.6,4.2-1.1,6.2-1.6c1.6-0.4,3.1-0.9,4.8-1.2c0.4-0.1,0.9,0.5,1.3,0.8c-0.4,0.3-0.7,0.8-1.1,1
		c-1.3,0.5-2.7,0.9-4.1,1.3c-1.3,0.4-2.7,0.7-4,1.1C128.1,112.7,127.4,112.9,126.5,113z M47.3,109.5c1.3-0.5,2.3-0.9,3.4-1.2
		c0.4-0.1,0.8,0.3,1.2,0.5c-0.2,0.4-0.3,0.9-0.7,1.2c-0.4,0.3-0.9,0.4-1.4,0.5c-1.5,0.4-2.5,1.2-3.1,2.7c-0.5,1.1-1.3,2.1-2.1,3
		c-1.3,1.5-2,3.2-2,5.2c0,2.6-0.5,5.2-1.6,7.5c-1.5,3.1-3.1,6.2-4.7,9.2c-0.8,1.6-1.5,3.3-2.7,4.6c-2.3,2.7-4.9,5-7.4,7.6
		c-2.2,2.3-4.3,4.8-6.5,7.2c-0.3,0.3-0.5,0.7-0.8,1c-2.3,2.5-4.6,4.9-6.8,7.4c-2.1,2.5-3.8,5.4-5.2,8.4c-1.1,2.5-1.8,5.4-4.2,7.3
		c-0.1,0.1-0.2,0.3-0.2,0.4c-0.4,2.6-0.9,5.3,0.3,7.7c1.6,3.3,3.6,6.5,5.6,9.5c1.4,2.1,3,4.1,4.9,5.6c3.4,2.7,7.1,5.2,10.8,7.4
		c2.5,1.4,5.4,2.3,8.2,2.9c1.6,0.4,3.7,0.1,5.2-0.6c3.8-1.6,7.6-3.3,11.1-5.3c2.4-1.4,4.1-3.8,5-6.5c0.7-2.2,1.4-4.3,2-6.5
		c0.8-2.9,2-5.9,2.3-8.9c0.5-4.5,0.5-9,0.5-13.5c0-6.8,0.4-13.5,1.2-20.2c0.4-3.3,1-6.6,1.5-9.9c0.4-2.8,0.8-5.6,1.3-8.4
		c0.3-1.6,0.9-3.1,1.3-4.6c0.4-1.4,0.7-2.9,1.3-4.2c1-2.2,0.9-4.1-0.5-6c-1.6-2.1-3.2-4.2-4.8-6.3c-0.6-0.7-1-1.6-2.1-1.5
		c-0.2,0-0.6-0.4-0.8-0.7c-0.1-0.1,0.2-0.6,0.4-0.7c1-0.2,2.2-0.5,3,0.4c1.6,1.9,3.1,3.9,4.7,5.9c0.3,0.4,0.8,0.5,1.2,0.8
		c0.2-0.4,0.7-0.8,0.7-1.2c-0.2-1.8-0.3-3.8-1-5.5c-3.4-8.2-5.6-16.7-7.2-25.3c-1-5.4-1.6-10.8-2.4-16.1c-0.1-1-0.8-1.7-1.7-1.8
		c-0.6-0.1-1.6,0.3-2,0.9c-2.1,2.8-3.9,5.7-4,9.4c0,2.9-0.2,5.8-1.2,8.5c-0.3,1-0.5,2.2-0.5,3.2c0,4.4,0.2,8.8,0.2,13.3
		C47.4,105.6,47.3,107.5,47.3,109.5z M124.4,114.3c-2,2.2-4,4.3-6,6.4c-2.4,2.5-4.5,5.3-7.5,7.2c-4.9,3.1-10.2,4.8-16,4.3
		c-3-0.3-5.9-1.3-8.8-1.8c-4.2-0.8-7.2-3.7-10.4-6.2c-0.2-0.1-0.3-0.5-0.4-0.6c-0.4-0.3-0.8-0.6-1.2-0.8c-0.2,0.5-0.7,1-0.7,1.5
		c0,0.9,0.2,1.8,0.4,2.8c0.3,2.3,0.7,4.5,0.9,6.8c0.1,0.8,0.1,1.6,0.1,2.4c0,1.5-1.3,2.8-0.4,4.4c0,0.1,0,0.2-0.1,0.2
		c-0.5,1.8-1.1,3.6-1.6,5.4c-0.2,0.8-0.7,1.1-1.4,0.8c-0.7-0.2-1.4-0.5-1.1-1.5c0.3-0.8,0.4-1.6,0.7-2.3c2.2-4.7,1.4-9.5,0.6-14.3
		c-0.1-0.9-0.7-1.5-1.6-0.9c-1.3,0.7-2.5,1.5-3.7,2.3c-0.4,0.3-0.8,0.7-0.9,1.2c-0.6,2.8-1.1,5.6-1.5,8.4c-0.7,5.4-1,10.9-1.9,16.2
		c-0.9,5.3-0.9,10.6-1.1,15.8c-0.1,2,0.2,3.9,0.5,5.9c0.1,0.7,0.4,1.5,0.8,2c3.2,3.3,7.1,5.4,11.4,6.7c3.7,1.1,7.5,2.1,11.3,2.4
		c9.3,0.8,18.6,1.3,27.7-1.6c5.5-1.8,11-3.4,16.4-5.3c2.5-0.9,4.8-2.1,7.2-3.3c2-1,2.2-1.4,1.8-3.6c-0.4-2-0.9-4-1.3-6
		c-0.8-3.6-1.8-7.1-2.5-10.7c-0.5-2.4-0.8-4.8-1.2-7.3c-0.8-4.8-1.6-9.5-2.4-14.2c-0.1-0.4-0.3-0.8-0.5-1.2c-0.1,0-0.3,0.1-0.4,0.1
		c-0.2,3.3-0.5,6.6-0.7,9.9c-0.1,0.8,0.1,2-1,2c-1.2,0-0.9-1.2-0.9-2c0.2-3.2-0.1-6.5,0.8-9.7c0.7-2.5-0.2-5.2,0-7.8
		c0.2-4.7-1.8-8.7-3.1-12.9C124.7,114.9,124.6,114.7,124.4,114.3z M48.7,71.4c0.1-0.1,0.3-0.1,0.3-0.2c0.2-0.3,0.3-0.6,0.5-0.9
		c1.3-2.1,2.6-4.2,5.5-4c0.2,0,0.7-0.5,0.7-0.8c0-1.1,0-2.2-0.2-3.3c-0.1-0.6-0.6-1.5-1.1-1.6c-1.1-0.2-2.4-0.8-3.1,0.7
		c-0.5,1.1-1,2.3-1.5,3.5c-0.3,0.6-0.7,1.2-0.7,1.8C48.9,68.1,48.8,69.7,48.7,71.4z M144.2,56.1c-0.1-1.8-0.1-4-0.3-6.1
		c-0.1-1.3-1.9-2.4-2.6-1.6c-0.7,0.8-1.3,1.7-1.6,2.7c-0.4,1.6-0.5,3.2-0.8,5C140.6,56.1,142.3,56.1,144.2,56.1z M49.2,60.5
		c0.9-1.6,2.1-2.6,4-2.3c1.3,0.2,2.4-0.7,2.1-2C55,54.8,54.5,53.4,54,52c-0.3-0.7-0.8-0.7-1.3-0.2c-1,0.9-2,1.7-2.2,3.2
		c-0.1,0.6-0.2,1.4-0.6,1.8C48.6,57.8,49.2,59.2,49.2,60.5z M49,52.1c1.5-1,3-2,4.3-2.9c0.2-0.1,0.3-0.4,0.3-0.6
		c-0.1-2.1-0.1-4.1-0.2-6.2c0-0.7-0.7-0.9-1.1-0.4c-0.8,1-1.8,2-2.1,3.2C49.6,47.4,49.4,49.8,49,52.1z M144,64.8
		c-0.3-2,0.9-4.1-0.9-6c-0.6-0.7-1-1.1-1.9-1c-0.9,0.1-1.7,0.2-2.7,0.4c-0.1,1.1-0.2,2.2-0.3,3.5C140.9,61.5,143.1,61.8,144,64.8z"
		/>
	<path class="st0" d="M88.7,98.3c1,0.3,1.9,0.6,2.7,0.8c0.4,0.1,1,0.1,1.1-0.1c1.1-1.6,2.7-1.3,4.2-0.9c3.9,1.1,7.3,3.4,10.6,5.8
		c0.6,0.5,0.9,1,0.1,1.6c-0.3,0.2-0.5,0.5-0.8,0.6c-2.7,1.3-5.4,2.5-8,3.9c-3.2,1.7-6.6,1.4-9.9,0.6c-1.2-0.2-2.3-0.5-3.4-1.1
		c-1.9-1-3.8-2.1-5.7-3.3c-0.7-0.4-0.6-1.6,0.1-2.1c2.2-1.6,4.3-3.3,6.5-4.9C87,98.8,88,98.6,88.7,98.3z M103.5,105.7
		c-7.2-1.3-14-1.2-21.1,0.5c2.6,1.9,5.5,2.4,8.3,2.9C95.3,110.1,99.3,108.2,103.5,105.7z M104.3,104.1c-0.2-0.3-0.2-0.4-0.3-0.5
		c-2.3-2.2-5.3-3.3-8.3-4.2c-0.6-0.2-1.3,0.4-2,0.7c-0.3,0.1-0.6,0.4-1,0.4c-0.9,0-1.8-0.2-2.8-0.2c-0.6,0-1.4-0.3-1.8,0
		c-1.8,1.1-3.5,2.3-5.2,3.5c0.1,0.2,0.2,0.4,0.2,0.6c1.4-0.3,2.9-0.6,4.3-0.9c0.2,0,0.4-0.1,0.6-0.2c3.8-0.5,7.5-0.2,11.3,0.3
		C101,103.7,102.6,103.9,104.3,104.1z"/>
	<path class="st0" d="M63.8,69.5c3.5-4.8,8.1-6.2,13.3-6c0.8,0,1.7,0.4,2.5,0.9c1.5,0.9,3,1.9,4.4,3c1.4,1,1.4,1.5-0.1,2.3
		c-1.8,0.9-3.6,1.9-5.6,2.5c-1.5,0.4-3.2,0.6-4.6,0.2C70.4,71.7,67.3,70.6,63.8,69.5z M77.7,65.8c0.7,2,0.4,3.5-0.5,4.9
		c1.3-0.4,2.5-1,3.6-1.6c0.4-0.2,0.7-0.5,1-0.8c-0.3-0.3-0.6-0.6-0.9-0.8c-0.5-0.4-1-0.7-1.6-1.1C78.9,66.2,78.5,66.1,77.7,65.8z
		 M71.3,66c-1.7,1-3.2,1.8-4.9,2.8c1.9,0.6,3.4,1.1,4.9,1.7C71.3,69,71.3,67.7,71.3,66z"/>
	<path class="st0" d="M112.4,69.8c-3.2-0.3-6.4-0.6-9.6-1c-0.6-0.1-1.1-0.6-1.7-0.9c0.4-0.5,0.8-1.1,1.2-1.5c1-0.9,2.1-1.7,3.3-2.5
		c4.4-3,10.5-2.8,14.7,1.6c1,1,0.7,2-0.5,2.4C117.3,68.7,115,70,112.4,69.8z M108.2,64.6c-1.3,0.8-2.6,1.5-3.8,2.3
		c-0.1,0,0.1,0.9,0.3,0.9c1.2,0.2,2.4,0.3,3.2,0.4C108.1,67.1,108.1,65.9,108.2,64.6z M115.3,67.4c1.1-0.3,2.1-0.6,3.1-0.8
		c-0.6-1.3-2-2.3-3.1-2.3C115.3,65.3,115.3,66.3,115.3,67.4z"/>
	<path class="st0" d="M98.8,89.3c2.1-0.2,3-1.3,2.3-3.3c-0.4-1.1-1.1-2.1-1.7-3.2c-0.3-0.4-0.7-0.8-0.9-1.2
		c-0.1-0.3,0.1-0.8,0.2-1.2c0.4,0.1,0.8,0.2,1,0.4c0.5,0.6,0.8,1.4,1.4,1.9c1.2,1.1,1.4,2.6,1.7,4c0.3,1.7-0.5,2.9-2.1,3.8
		c-2,1.1-3.4,1-4.9-0.2c-1.1,1.2-2.3,2.4-4.1,2c-1.1-0.3-2.2-0.7-3.3-1c-1.2-0.3-2.4-0.2-3.6-0.6c-2.7-0.9-3.4-3.1-2-5.6
		c0.7-1.4,1.5-2.7,2.1-4c0.6-1.3,0.9-2.6,1.4-3.9c0.1-0.4,0.5-0.6,0.8-0.9c0.2,0.4,0.7,0.8,0.6,1.1c-0.3,1.3-0.5,2.6-1,3.9
		c-0.6,1.5-1.5,2.9-2.2,4.4c-0.5,1-0.9,2,0,3c0.6,0.6,1.1,1.4,2.1,0.3c0.7-0.8,1.7-0.8,2.7,0c0.8,0.7,1.4,1.8,2.8,1.7
		c1.1,0,1.7-0.3,2.2-1.3c0.4-0.7,0.9-1.4,1.5-1.8c0.7-0.4,1.6-0.5,2.3-0.3C98.7,87.3,98.7,88.5,98.8,89.3z"/>
	<path class="st0" d="M75.2,56.8c-1.5-0.1-3-0.4-4.4-0.2c-1.6,0.2-3.1,0.6-4.6,1.2c-1,0.3-1.8,1.1-2.8,1.5c-0.4,0.1-1-0.1-1.3-0.4
		c-0.2-0.2-0.1-1,0.2-1.2c1.8-1.3,3.4-2.8,5.7-3.2c2.7-0.5,5.4-1.1,8.2-0.8c1,0.1,1.9,0.3,2.9,0.5c0.6,0.1,1.2,0.1,1.1,1
		c-0.1,0.8-0.2,1.5-1.3,1.5C77.6,56.7,76.4,56.7,75.2,56.8C75.2,56.7,75.2,56.8,75.2,56.8z"/>
	<path class="st0" d="M115.2,52.4c0.7,0.1,1.8,0.1,2.7,0.4c0.5,0.2,1.1,0.9,1,1.4c-0.1,0.7-0.7,0.8-1.6,0.8c-2.3-0.1-4.6,0-6.8,0.2
		c-1.3,0.1-2.7,0.3-4,0.6c-1.4,0.4-2.8,0.9-4.2,1.4c-0.5,0.2-0.9,0.6-1.4,0.6c-0.5,0-1.1-0.3-1.4-0.7c-0.1-0.2,0.3-1.1,0.6-1.3
		c3.2-1.8,6.7-2.8,10.4-3C112,52.7,113.4,52.5,115.2,52.4z"/>
</g>
</svg>
