<?xml version="1.0" encoding="utf-8"?>
<!-- Generator: Adobe Illustrator 19.2.1, SVG Export Plug-In . SVG Version: 6.00 Build 0)  -->
<svg version="1.1" id="Layer_1" xmlns="http://www.w3.org/2000/svg" xmlns:xlink="http://www.w3.org/1999/xlink" x="0px" y="0px"
	 viewBox="0 0 200 264.8" style="enable-background:new 0 0 200 264.8;" xml:space="preserve">
<style type="text/css">
	.st0{fill:#FF5722;}
</style>
<g id="swimear-girl">
	<path class="st0" d="M200.1,154c-0.1-0.3-0.7-0.8-1.1-0.9c-1.3-0.3-2.6-0.4-3.9-0.6c-4.3-0.7-8.5-1.7-12.8-2.3
		c-4.1-0.6-8.3-0.9-12.4-1.4c-1.5-0.2-3.1-0.6-4.7-0.9v-0.4c0.6-0.5,1.1-0.9,1.6-1.4c1.9-1.6,3.8-3.2,5.6-5c1.1-1.1,2-2.4,3-3.6
		c0.5-0.5,0.9-1.2,0.2-1.8c-0.8-0.7-1.3,0.1-1.7,0.6c-1.1,1.3-2.1,2.8-3.3,4c-1.9,1.9-4,3.5-5.9,5.3c-1,0.9-1.9,1.2-3.2,0.8
		c-2.7-0.8-5.5-1.5-8.2-2.4c-2.6-0.8-5.1-1.8-7.7-2.7c-4.5-1.5-9.1-2.8-13.5-4.5c-2.7-1.1-5.3-2.3-7-4.8c-0.5-0.7-1-1.5-1-2.3
		c-0.1-3.7-0.1-7.3,0-11c0-0.4,0.3-1,0.7-1.2c1-0.6,3.6,0.3,4.2,1.6c1.1,2.3,2.1,4.7,3.1,7c-0.8,1.2-1.6,2.4-2.4,3.6
		c-0.1,0.3,0,0.8,0,1.2c0.4-0.1,0.9-0.1,1.1-0.4c0.7-0.8,1.3-1.8,2-2.8c1.5,1.3,3.3,1.3,5.2,1c-0.1,2-0.3,4-0.3,6
		c0,0.4,0.4,0.8,0.6,1.2c0.3-0.4,0.8-0.8,0.8-1.2c0.2-2,0.1-4,0.3-6c0.1-1.5,0.4-3,0.7-4.5c0.1-0.5,0.3-0.9,0.4-1.4
		c0.5,0.2,1.2,0.3,1.6,0.7c0.7,0.6,1.2,1.4,1.8,2c1.2,1.3,2.6,2.6,3.8,4c1.4,1.7,1.6,1.8,3.6,1c2.6-1,2.6-3.2,1.8-5.3
		c-0.4-1-1.1-1.9-1.7-2.9c-0.7-1-1.4-2-2.1-3.1c1.1-0.3,2-0.5,2.9-0.7c0.1-0.1,0.1-0.3,0.1-0.4c-0.4-0.1-0.9-0.4-1.3-0.4
		c-0.7-0.1-1.3,0.1-2,0c-0.3,0-0.9-0.3-0.9-0.6s0.2-0.9,0.5-1.1c0.6-0.4,1.3-0.5,2-0.8c2.1-0.9,2.8-0.7,4,1.3c0.2,0.3,0.3,0.7,0.5,1
		c0.8,1.4,1.6,2.8,2.4,4.2c0.3,0.5,0.7,0.8,1.2,0.3c0.2-0.3,0.3-0.9,0.1-1.2c-1.7-2.6-3-5.4-5.4-7.4c0.8-0.8,1.5-1.7,2.4-2.3
		c1.4-0.9,2.9-1.7,4.3-2.6c0.3-0.2,0.8-0.3,1-0.6c0.1-0.2-0.1-0.8-0.3-0.9c-0.4-0.1-1-0.2-1.3,0c-1.8,1.2-3.6,2.4-5.4,3.7
		c-1.6,1.1-3.1,2.4-4.7,3.4c-0.6,0.4-1.8,0.5-2.3,0.1c-0.6-0.5-1.2-1.8-1-2.2c0.7-1.2,1.7-2.3,2.8-3.1c1.8-1.3,3.7-2.2,5.6-3.3
		c0.3-0.1,0.2-0.7,0.3-1.1c-0.3-0.1-0.7-0.2-1-0.1c-0.7,0.3-1.2,0.7-1.8,1.1c-1,0.6-1.9,1.2-2.8,1.8c0-0.1-0.1-0.1-0.2-0.2
		c0.2-0.7,0.5-1.3,0.6-1.9c0.1-0.3-0.1-0.8-0.3-0.9c-0.2-0.2-0.7-0.1-0.9,0.1c-0.2,0.2-0.4,0.6-0.5,0.9c-0.3,1.5-0.9,2.7-2,3.8
		c-0.6,0.6-1,1.4-1.4,2.2c-1,1.8-2,3.8-3.1,5.6c-0.4,0.7-1.2,1.1-1.8,1.7c-0.1-0.1-0.2-0.1-0.3-0.2c0.9-2.4,2.1-4.8-0.8-6.8
		c0.5-1.7,0.9-3.4,1.5-5s1.3-3.2,2.2-4.7c0.5-0.7,1.5-1.3,2.3-1.5c2.1-0.6,4.1-1,6.2-1.4c0.8-0.2,1.6-0.5,2.3-0.3
		c4.2,1.1,8.4,2,11.9,4.7c1.7,1.3,3,2.8,4.1,4.6c0.6,0.9,1,1.9,1.7,2.7c2.6,3.1,5.2,6.2,8.1,9c1.4,1.4,1.6,2.8,1.7,4.5
		c0,0.6-0.2,1.3-0.1,1.9c0.1,0.5,0.5,0.9,0.7,1.3c0.2-0.3,0.7-0.6,0.7-1c0.1-0.9,0-1.8,0-2.7c0-0.4-0.1-0.9-0.1-1.5
		c0.6,0.1,1.1,0.2,1.5,0.3c2.2,0.4,4.4,1,6.6,1.4c2.9,0.5,5.9,0.8,8.9,1.1c0.4,0.1,0.9-0.3,1.3-0.5c-0.2-0.5-0.4-1.1-0.8-1.4
		c-0.2-0.3-0.8-0.2-1.2-0.3c-4.4-0.7-8.9-0.6-13.3-1.9c-2.5-0.8-4.7-1.9-6.1-4.2c-0.3-0.7-0.7-1.4-1.3-1.8
		c-3.5-2.7-6.1-6.2-8.2-10.2c0.4,0.2,0.8,0.3,1.2,0.4c3.9,1.3,7.8,2.8,11.7,4c2.1,0.7,4.4,0.8,6.6,1.3c3.5,0.9,6.4,3.1,9.5,4.9
		c0.6,0.3,1.2,0.5,1.5-0.1c0.2-0.4,0-1.1-0.2-1.6c-0.1-0.3-0.6-0.4-0.9-0.6c-0.7-0.4-1.5-0.8-2.2-1.3c-2.2-1.7-4.8-2.7-7.4-3.4
		c-2-0.6-4.2-0.6-6.2-1.2c-3.8-1.1-7.5-2.5-11.3-3.7c-1.6-0.5-3.2-0.9-4.8-1.4c-0.5-0.1-0.9-0.6-1.1-1.1c-0.1-0.3,0.3-0.8,0.6-1.2
		c0.3-0.4,0.7-0.7,0.9-1.1c0.7-1.2,1.3-2.3,1.9-3.5c0.1-0.2,0.3-0.4,0.4-0.7c1.6-4.6,2.5-9.2,2.6-14c0.1-1.2,0-2.5,0.4-3.7
		c1.2-3.4,0.6-6.7,0-10c-0.4-2.1-1.2-4.1-1.7-6.1c-0.5-2.3-0.8-4.7-1.2-7.1c-0.7-4.2-2.1-8.2-4.7-11.7c-1.5-2.1-3.3-4-4.7-6.2
		c-1.8-2.7-3.9-5-6.2-7.2c-2.6-2.5-5.3-5-8.7-6.5c-1.9-0.8-3.9-1.5-6-1.3c-1.4,0.1-2.8,0-4.1,0.3c-2.5,0.5-5.3-0.2-7.4,1.8
		c-1.1-1.2-2.1-2.3-3.2-3.4c-1.2-1.1-2.5-2-3.6-3.1c-3.2-3.3-7.1-5.6-11.1-7.6c-3.2-1.6-6.7-2.5-10-3.7C95.9,3.5,92,2.8,88,3
		c-3.6,0.2-7.1,0.3-10.7,0.4c-1,0.1-1.9,0.1-2.9,0.3c-5.6,1.1-10.9,3.1-15.9,5.9c-2,1.1-3.9,2.3-5.9,3.5c-0.2,0.2-0.7,0.2-0.9,0.1
		c-1.5-0.7-3.2-1.2-3.7-3.1c0-0.2-0.2-0.3-0.3-0.4c-1.7-1.7-3.3-3.5-5-5.2C41.3,3,40,1.5,38,1.2c-2.2-0.4-4.5-0.8-6.7-1.1
		c-3.6-0.5-6.7,0.5-9.3,3c-2.7,2.6-4,6-5.1,9.3c-1.4,3.8-2.2,7.8-4.2,11.4c-1,1.8-1.8,3.7-2.7,5.5c-1.9,3.9-1.6,8.2-1.5,12.3
		c0.1,4.7,0.6,9.4,1.2,14c0.3,2.4,1,4.8,1.7,7.1c0.4,1.1,0.9,2.2,1.4,3.3c0.4,1,1.2,1.8,1.9,2.6c1.2,2.1,2.1,4.4,3.3,6.5
		c3.4,5.7,5.8,11.8,6.6,18.4c0.5,3.8,0.8,7.6,0.6,11.3c-0.3,5.2-2.2,10-5.6,14.1c-1.2,1.5-1.8,3.2-1.8,5.1c0.1,3.6,0.7,7,2,10.3
		c0.3,0.8,0.7,1.3,1.8,1.2c0-1.5-0.1-3,0-4.5c0-1.1,0-2.3,0.4-3.2c1-2.1,2.2-4.1,3.4-6c1.8-2.8,4.6-4.6,7.2-6.5
		c1.4-1.1,1.4-1.1,2.4,0.5c0.1,0.3,0.3,0.6,0.5,0.8c1.7,1.8,3.5,3.4,5,5.2c0.8,0.9,1.8,2.3,1.6,3.3c-0.3,1.6-1.8,2.8-3.2,3.7
		c-0.8,0.5-1.6,1.1-2.2,1.7c-0.9,1-1.9,2-2.7,3.1c-2.5,3.1-4.9,6.4-8,8.9c0,0.1-0.1,0.1-0.1,0.2c-1.6,2.1-2.5,4.6-3.3,7.1
		c-1.3,3.7-2.4,7.4-3.7,11.1c-1.5,4.2-3.8,8.1-4.3,12.7c-0.4,3.5-1.3,6.9-1.7,10.3c-0.5,4.1-0.5,8.3-1,12.5c-0.5,4-1.2,8.1-2,12.1
		c-0.8,4-1.9,7.9-2.8,11.9c-0.2,0.8-0.1,1.9,0.3,2.6c0.7,1.2,0.6,2.2,0.1,3.4c-1,2.6-2.1,5.2-2.9,7.8c-1.2,3.9-2.1,7.8-2.9,11.7
		c-0.6,2.8-1.2,5.7-1.4,8.6c-0.3,3.4-0.2,6.9-0.3,10.3c0.7,0,1.4,0,2.3,0c0.1-2.5,0-5,0.3-7.5c0.4-3.8,0.9-7.7,1.5-11.5
		c1.2-6.9,3.5-13.4,6.2-19.9c2.3,0.7,4.5,1.4,6.8,2c1.8,0.5,3.7,0.8,5.5,1.1c0.5,0.1,1.1,0.2,1.7,0.2c4.5,0.1,8.9-0.5,13.1-1.7
		c2.7,0.2,5.6-0.7,8.3-0.7c2.1,0,11.3,1.4,12.6-0.6c-0.1,0.3,0,0.6,0.3,0.9c-0.5,2.4-0.7,4.9-0.9,7.3c-0.1,2.1-0.6,4.3-1.2,6.4
		c-1.9,7-3.8,14-5.8,21c-0.3,1-0.6,2.1-0.9,3.1h2.1c1.5-5.3,2.8-10.6,4.3-15.9c0.8-2.9,1.9-5.8,2.6-8.8c0.6-2.6,0.8-5.4,1.2-8.1
		c0.3-2,0.5-4,0.8-6c0.1,0,0.3-0.1,0.4-0.1c0.9,1.7,1.8,3.4,2.6,5.1c0.8,1.8,1.5,3.6,2.3,5.4c1.7,3.6,3.5,7.1,5.1,10.8
		c0.7,1.6,0.9,3.5,1.4,5.3c1,4,2,7.9,3,11.8c0,0.2,0.1,0.4,0.1,0.6H78c-1.2-5.7-2.3-11.4-3.5-17.1c-0.5-2.4-1.4-4.6-3.1-6.4
		c-0.4-0.5-0.9-0.9-1.2-1.4c-1.5-3-2.9-6.1-4.4-9.1c-0.8-1.6-1.7-3.3-2.5-4.9c-0.9-1.9-2.1-3.8-2.8-5.8c-2.2-5.9-4.2-11.8-6.3-17.7
		c-1.5-4.3-3-8.6-4.5-12.9c-0.6-1.8-1.2-3.6-1.5-5.5c-0.6-3.2-1.6-6.2-2.9-9.1c-1.8-4-3.6-8-5.4-12c-0.2-0.4-0.4-0.8-0.7-1.1
		c-0.2-0.2-0.7-0.2-1-0.3c0,0.3-0.1,0.7,0,1c0.1,0.4,0.3,0.7,0.5,1.1c1.1,2.8,2.1,5.5,3.2,8.2c1.2,3.2,2.8,6.2,3.6,9.4
		c1.5,5.8,3,11.7,5.2,17.3c0.5,1.2,0.9,2.4,1.4,3.8c-1-0.3-1.8-0.4-2.5-0.8c-1.4-0.7-2.7-1.6-4.1-2.3c-3.6-1.8-6.7-4.4-9.7-7
		c-1.2-1-2.4-2-3.7-2.9c-0.3-0.2-0.7-0.1-1.1-0.1c0,0.4-0.1,0.8,0,1.2c0,0.2,0.3,0.4,0.5,0.6c2.3,2,4.4,4.1,6.8,5.9
		c3.9,3,7.9,5.8,12.6,7.4c0.6,0.2,1.2,0.5,1.8,0.8c-0.1,0.1-0.1,0.3-0.2,0.4c0.2,0.1,0.3,0.2,0.5,0.4c0.4,0.8,0.7,1.4,0.9,2.2
		c0,0,0,0,0-0.1c0.9,2.6,1.9,5.2,2.8,7.7c0.9,2.3,1.8,4.6,2.6,6.9c0.1,0.3,0.1,0.8,0,1.1c-0.1,0.4-0.2,0.8-0.4,1.2
		c-2.9-0.8-7-0.2-9.7-0.2c-2.4,0-4.8-0.2-7.1,0c-1.4,0.1-2.9,0.6-4.3,0.6c-0.1-0.1-0.1-0.3-0.2-0.4c-0.4,0.1-0.7,0.2-1.1,0.3
		c-0.1,0-0.2,0-0.2,0c-0.5-0.1-0.8,0.1-1,0.4c-1.1,0.3-2.2,0.5-3.3,0.8c-3.8,1-7.6,0.7-11.4,0.2c-1.8-0.3-3.6-0.9-5.4-1.4
		c-1.4-0.4-2.8-0.8-4.1-1.5c-0.5-0.3-1-1.3-1-1.9c0-1.8,0.3-3.5,0.4-5.3c0.1-0.5,0.1-1,0.2-1.4c0.6-2.4,1.3-4.7,1.9-7.1
		c1.3-4.9,1.8-9.9,2.2-15c0.1-1.9,0.1-3.9,0.3-5.8c0.3-2.9,0.6-5.9,1.1-8.9c0.6-3,0.9-6.1,2-8.9c2.3-6.3,5-12.4,6.8-18.9
		c0.8-3.1,2.1-6.1,4.8-8.2c0.9-0.7,1.7-1.5,2.4-2.3c1.9-2.3,3.6-4.9,5.6-7.1c1.8-2.1,4-3.8,6-5.7c0.8,1.5,1.6,3.3,2.5,5
		c1.1,2,2.4,3.7,4.3,4.9c1.1,0.7,2,1.2,2.2,2.8c0.3,2.3,1.4,4.5,2,6.7c1.4,5.1,3.7,9.8,7.2,13.9c2,2.4,4.1,4.7,6.2,7.1
		c2.5,2.9,5.1,5.7,7.6,8.6c2.5,2.9,5.5,5.1,8.9,6.8c1.3,0.7,2.7,1.1,4.1,1.4c1.1,0.3,2.1,0.3,3.2,0.4c3.4,0.3,6.9,0.2,10.1-1.3
		c4.1-2,7.1-5.3,10-8.6c1.2-1.4,2-3.1,2.9-4.8c1.9-3.6,4-7.2,5.7-11c1.3-2.9,2.1-6.1,2.9-9.2c1.1-4.6,3-8.9,3-13.9
		c0.9,0.4,1.6,0.8,2.4,1.2c2.1,1,4.3,2.1,6.5,2.9c5.3,1.9,10.7,3.6,16.1,5.3c0.7,0.2,0.8,0.6,0.7,1.2c-0.9,4.8-1.9,9.6-2.9,14.4
		c-0.5,2.4-1.3,4.7-1.8,7.1c-1.2,5.8-2.8,11.5-5,17c-0.2,0.7-0.4,1.5-0.4,2.2c0,0.4,0.4,0.7,0.6,1.1c0.3-0.3,0.9-0.5,1-0.8
		c0.7-1.6,1.4-3.3,1.9-5.1c1.6-5.7,3.2-11.4,4.7-17.1c0.8-3.4,1.5-6.7,2.1-10.1c0.5-3,1-6.1,1.5-9.2c0.4,0,0.7,0.1,1,0.1
		c2.8,0.5,5.2,2.2,8.1,2.7c2.3,0.3,4.4,1.3,6.7,1.6c3.7,0.6,7.5,0.7,11.2,1.3c4.1,0.6,8.1,1.5,12.1,2.2c1.9,0.4,3.9,0.5,5.9,0.8
		C199.6,155,200.2,154.7,200.1,154z M148.7,128.3c-0.5-0.7-1.3-1.3-1.9-2c1.5-1.3,1.5-1.3,2.3,0.1c0.5,0.8,1,1.5,1.5,2.2
		C149.9,129.2,149.3,129.2,148.7,128.3z M145.2,114.2c0.3,0.6,0.8,1.2,0.8,1.9c0,1.3,0.7,2.2,1.3,3.1c0.9,1.2,1.9,2.4,2.7,3.7
		c0.8,1.3,1.3,2.7,2,4c-0.2,0.1-0.3,0.1-0.4,0.2c-0.4-0.6-0.9-1.2-1.5-1.8c-1.2-1.8-1.8-1.9-3.6-0.7c-0.3,0.1-0.5,0.3-0.8,0.5
		c-1-0.9-2-1.7-2.9-2.5c-0.9-0.8-1.8-1.6-2.5-2.2C142,118.2,143.6,116.3,145.2,114.2z M135.5,127.2c-1.4,0-2.1-0.7-2.1-2
		c0.1-1.3,1.4-2.5,2.7-2.5c1.2,0,2,0.8,2,2.1C138.1,126.4,137.2,127.2,135.5,127.2z M137.5,118.4c-1.4-0.6-1.6-1.2-0.9-2.7
		c0.2-0.4,0.5-0.9,0.7-1.3c0.3-0.5,0.5-0.9,0.7-1.4C139.1,114,139.1,114.1,137.5,118.4z M135.9,114.3c-2.2-2-2.1-4.3-1.5-6.6
		c0.1-0.5,0.6-1.1,1-1.4c1.2-0.9,2.5-1.8,3.9-2.5C138.2,107.3,137.1,110.7,135.9,114.3z M137.9,103c-0.8,0.5-1.6,1.2-2.5,1.7
		c-3.2,1.7-3.9,7-1.7,9.6c0.8,0.9,1.3,2,1.1,3.3c-0.2,1.1,0.8,1.4,1.5,2c0.6,0.5,1,1,1.4,1.7c-2.3-0.5-3.8,0.7-5.5,2.1
		c-0.3-0.8-0.5-1.5-0.8-2.1c-1.2-3.4-2.5-6.7-3.6-10.1c-0.8-2.6-0.6-5.3,0.1-7.9c0.4-1.6,1.5-2.2,3.1-2.2c2.8-0.1,5.6-0.2,8.4-0.3
		c0.4,0,0.7,0,1.2,0.3C139.7,101.7,138.8,102.4,137.9,103z M126.3,108c-0.8-0.4-1.2-0.6-1.6-0.8c-3.3-2-6.6-4-9.9-6
		c-0.1-0.1-0.3-0.2-0.4-0.3c-2.1-1.7-2.1-1.8-1.2-4.4c0.4-1,0.7-2,1-3c4.2,3.2,9.3,4.5,13.6,6.9c-0.5,1.2-1.2,2.4-1.4,3.6
		C126.1,105.2,126.3,106.5,126.3,108z M112,106.2c-1.4-0.7-1.8-2.1-1.1-3.5c0.3-0.6,0.5-1.3,0.8-1.9c2.4,1.6,4.7,3.2,7.2,4.9
		C116.7,106.9,114.4,107.4,112,106.2z M118.9,107.4c-0.3,2.3-0.6,4.4-0.9,6.5c-0.4,3.4-0.7,6.9-1.1,10.3c-0.2,2.1-0.7,4.1-0.9,6.2
		c-0.4,4-0.9,8-2.1,11.8c-1.7,5.5-3,11.2-5.1,16.6c-1.5,3.8-3.3,7.7-6.6,10.4c-2.4,2-5,3.4-8.4,3.1c-1.7-0.2-3.3-0.2-4.9-0.6
		c-1.5-0.4-2.7-1.2-3.9-2.2c-1.8-1.5-3.8-3-5.6-4.5c-3.6-3-6.6-6.6-8.8-10.8c-2.6-5-5.1-10-7.8-15.1c1.5-0.4,2.7-0.7,4-1.1
		c5.2-1.6,10.3-3.3,15.1-5.9c1.4-0.8,2.9-1.4,4.4-2c2.9-1.2,5.4-3,7.6-5.2c2.5-2.6,5.1-5.1,7.7-7.5c2.9-2.7,5-6,7.1-9.3
		c0.4-0.5,0.7-1.1,1.1-1.7C112.7,108.7,115.7,108.7,118.9,107.4z M124.1,88.3c0-0.5-0.6-1-1-1.4c-1-1-0.8-2.2,0.6-2.7
		c2-0.8,4-1.6,6-2.3c1.9-0.7,4.3,0.1,5.2,1.9c0.3,0.6,0.2,1.7-0.1,2.3c-0.8,1.5-1.8,3-2.8,4.3c-1.6,2.1-3.4,4.1-5.1,6.2
		c-1.1,1.3-1,1.4-2.5,0.4c3.5-2.8,4.4-7,6-10.6c0.1-0.3-0.2-0.8-0.3-1.2c-0.3,0.2-0.9,0.4-1,0.7c-0.8,1.9-1.6,3.8-2.4,5.7
		c-0.7,1.9-1.7,3.6-3.6,4.6c-0.4,0.2-0.9,0.1-1.5,0C124.7,94.2,124.1,91.1,124.1,88.3z M129.4,96c2.7,1.1,5.1,2,7.4,3
		c-3.2,0.4-6.4,1.2-9.9-0.3C128,97.5,128.8,96.6,129.4,96z M131.5,33.1c0.1-0.3,0.8-0.5,1.2-0.5c1.5-0.2,2.9,0.4,4,1.3
		c5.4,4.5,9.3,10.1,10.9,17c0.8,3.5,0.9,7.1,1.2,9.8c-0.4,5.8-1.1,10.8-3.6,15.5c-1.5,2.5-1.4,5.3-1.1,8.1c0.3,2.5,1,5,1.6,7.5
		c0.4,1.8,1,3.6,1.4,5.4c0.1,0.2-0.3,0.8-0.5,0.8c-3.1,0.6-6.1,0.2-9-0.9c-1.3-0.5-2.7-0.8-4-1.2c-0.3-0.1-0.6-0.2-0.9-0.3
		c-1.3-0.6-1.4-1.1-0.3-2.2c0.9-0.9,1.8-1.8,2.7-2.8c1.5-1.7,2.1-3.8,2.4-6.1c0.3-2.2,0.9-4.4,1.5-6.6c0.9-2.9,1.3-5.9,0.9-9
		c-0.5-3.3-0.6-6.6-1.1-9.8c-0.6-3.4-1-6.8-1.3-10.2c-0.3-2.5-1.5-4.9-2.4-7.3c-0.5-1.4-1.2-2.8-1.8-4.2c-0.4-1-1-1.9-1.5-2.9
		C131.6,34.1,131.4,33.5,131.5,33.1z M115.7,30.1c0.1-1.8,1.1-2.4,2.5-3.2c2.2-1.2,4.5-1.6,6.9-1.8c1.5,1.5,1.8,3.6,2.3,5.6
		c0.2,1.2,0.4,2.4,0.7,3.5c0.2,0.7,0,1.2-0.4,1.8c-0.5,0.8-1,1.6-1.3,2.4c-1,2.5-4.9,2.8-6.2,0.3c-0.7-1.4-1.8-2.6-2.9-3.7
		C115.8,33.6,115.6,32,115.7,30.1z M117.8,85.2c1.8-2,3.6-4,5.5-5.9c0.5-0.5,1.3-0.7,2-1c3.6-1.3,7.3-2,11.3-0.6
		c-0.3,1.2-0.6,2.4-0.9,3.7c-1.6-0.9-3.1-2-4.9-1.6c-0.5,0.1-0.9,0-1.3,0.2c-3.2,1.5-6.5,3-9.7,4.6c-0.5,0.2-1,0.8-1.4,1.3
		c-0.2,0.3-0.1,0.9-0.1,1.3c0.4,0,0.9,0.1,1.2-0.1c0.4-0.2,0.8-0.5,1.4-1c0.3,1.4,0.7,2.6,0.9,3.8c0.4,1.7-0.5,2.9-1.4,4.2
		c-0.4,0.5-0.8,0.7-1.4,0.4c-1.4-0.6-2.9-1.1-3.8-2.5c-0.3-0.4-0.3-1-0.3-1.5C115,88.3,116.4,86.7,117.8,85.2z M42.7,13.5
		c0.6-0.7,1.3-1.4,1.9-2.1c0.2-0.3,0.5-0.6,0.8-0.9c1.1,1.7,2.2,3.6,4.5,4.2C50,14.9,50,15,50,15.1c-1.1,0.8-2.1,1.8-3.3,2.6
		c-1.3,0.7-2,0.4-3.1-0.7C42.1,15.5,41.9,14.6,42.7,13.5z M30.4,23.7c0.5-4.2,2.9-7.3,7.4-8.1c0.9-0.2,2.1-0.3,2.9,1.1
		c0.7,1.1,2,1.9,2.9,2.7c-2.4,2.7-4.7,5-6.6,7.5s-3.5,5.3-5.3,7.9c-0.2,0-0.3-0.1-0.5-0.1c-0.1-0.8-0.2-1.5-0.3-2.3
		C30.7,29.5,30.1,26.6,30.4,23.7z M46.9,130c-1.8-4.4-3.6-8.8-7.6-11.9c-2.6-2-3.8-5.1-5.3-8c-1.7-3.2-3-6.5-2.6-10.2
		c0-0.4-0.1-0.7-0.1-1.1c-0.3-2.8-0.8-5.5-0.8-8.2c0-3,0.6-6,0.7-9c0.2-3.5,0.1-7.1,0.1-10.6c0-1.8-0.1-3.7-0.2-5.5
		c-0.1-0.8,0.2-1,1.1-1.2c3-0.6,5.5,0.5,7.9,2.2c0.2,0.1,0.4,0.4,0.6,0.4c0.5,0.1,1,0,1.5,0c-0.1-0.5,0.1-1.2-0.2-1.5
		c-0.6-0.7-1.5-1.1-2.2-1.6c-2.4-1.9-5.1-2.3-8.1-1.7c-0.1,0-0.2-0.1-0.5-0.1c0.1-0.9,0.2-1.9,0.3-2.8c0.4-4.5,0.9-8.9,1.3-13.4
		c0.2-2.9,2-4.7,4.3-5.8c3-1.5,6.2-2.3,9.5-2.5c2-0.1,4.1-0.2,6.2-0.3c2.9-0.1,5.7,0.3,8.5,1.3c4.1,1.4,8.3,2.3,12.3,3.8
		c2.5,0.9,4.8,2.5,7.1,3.9c1.8,1.1,3.5,2.4,5.1,3.7c0.7,0.5,1.2,1.4,1.5,2.2c0.8,1.9,1.2,3.9,2.2,5.7c2.2,3.9,4.4,8,8.4,10.4
		c1.9,1.1,3.8,2.1,5.7,3c2.4,1.1,4.9,2.2,7.4,3.2c2.1,0.8,3,2.5,3.3,4.6c0.6,3.8,0.4,7.4-0.8,11c-1,2.9-2,5.9-2.9,8.8
		c-0.7,2-1,4.2-2,6c-1.6,2.9-3.5,5.6-5.5,8.2c-1.4,1.8-3.2,3.4-4.8,5c-2,2-4.2,3.9-6.1,6.1c-1.8,2-4,3.1-6.3,4.2
		c-2.8,1.4-5.6,2.9-8.5,4c-4.1,1.6-8.3,2.9-12.5,4.3c-1.2,0.4-2.5,0.7-3.7,0.7c-2.5,0-5.1,0.2-7.3-0.6
		C50.8,135.6,48.3,133.5,46.9,130z M124.6,136c-0.4,3.2-1,6.4-2,9.5c-1.2,3.7-2.2,7.4-3.2,11.1c-1.2,4.2-3.6,7.8-5.7,11.5
		c-0.7,1.1-1.4,2.3-2.1,3.4c-1,1.3-1.8,2.8-3,3.9c-2.2,1.9-3.9,4.2-6.5,5.6c-1.7,1-3.5,1.7-5.3,1.8c-2.4,0.1-4.8,0-7.2-0.1
		c-4.5-0.2-7.7-2.9-10.9-5.6c-1.6-1.4-2.9-3.2-4.3-4.8c-3.3-3.7-6.7-7.5-10.1-11.2c-4.3-4.7-7.1-10.2-8.8-16.3
		c-0.5-1.9-1.1-3.8-1.7-5.6c2.1,0,4,0.1,6,0c0.9-0.1,1.3,0.2,1.7,1c1.1,2.6,2.3,5,3.4,7.6c1.8,4.3,4.2,8.3,7,12c2,2.7,4.8,5,7.3,7.4
		c1.7,1.6,3.6,2.9,5.3,4.4c2,1.7,4.4,2.2,6.8,2.6c3.6,0.6,7.1-0.2,10.1-2.2c1.5-1,2.9-2.2,4-3.7c4.4-6.1,7-13,8.6-20.4
		c0.5-2.7,1.5-5.2,2.1-7.9c0.6-2.5,1-5.1,1.4-7.6c0.2-1.9,0.5-3.7,0.7-5.5c0.3-2.1,0.5-4.1,0.7-6.1c0.4-3.3,0.9-6.7,1.3-10
		c0.2-1.3,0.4-2.7,0.6-4.1c1.7,0.9,3.3,1.7,4.9,2.5c0.2,0.1,0.3,0.2,0.4,0.4c0.6,2,1.3,3.9,1.9,5.8c0,0.1,0,0.2,0,0.2
		c-0.8-0.1-1.5-0.3-2.3-0.3c-2,0-3.5,1.4-3.6,3.7c-0.1,3.3,0,6.5-0.1,9.8c-0.1,1.7,0.5,3.1,1.7,4.3C124.5,134,124.8,134.8,124.6,136
		z"/>
	<path class="st0" d="M189.4,264.8c-0.1-4.9-0.8-9.7-1.6-14.5c-1.2-7-2.1-14.1-2-21.3c0.1-3.5-0.3-7.1-0.4-10.6
		c-0.2-3.5-0.3-7-0.5-10.5c-0.3-4.2-0.6-8.4-0.9-12.6c-0.1-2.3-0.2-4.6-0.3-7c-0.1-1.9-0.2-3.8-0.2-5.8c0-0.9-0.6-1-1.3-1.2
		c-4.2-0.8-8.5-1.6-12-4.2c-4.6-3.5-7.9-7.9-10.1-13.2c-0.6-1.4-0.9-3-1.3-4.4c0-0.1,0-0.2,0-0.2c0.1-0.8,0.1-2,1.2-1.9
		c1,0,0.9,1.1,0.9,1.9c-0.2,1.9,0.8,3.3,1.6,4.8c2.1,4.4,5.2,8.1,9,11.2c1.8,1.5,4,2,6.1,2.7c-1.3-2.4-2.7-4.7-4-7.1
		c-0.4-0.7-0.6-1.6-0.6-2.5c0-0.4,0.6-0.8,0.9-1.2c0.2,0.4,0.5,0.7,0.7,1.1c0.2,0.5,0.2,1,0.5,1.4c1.5,2.5,3.2,4.8,4.6,7.4
		c0.9,1.7,2.2,1.9,3.8,2.2c2.8,0.6,5.5,1.6,8.2,2.4c1.5,0.4,3.1,0.7,4.7,1.1c0.7,0.2,1.4,0.5,1.2,1.4c-0.1,0.8-0.6,1.2-1.4,1.3
		c-0.7,0.1-1.5,0.6-1.7-0.7c0-0.1-0.2-0.2-0.3-0.3c-2.8-0.7-5.5-1.3-8.5-2c0.1,0.7,0.1,1.3,0.1,1.9c0.2,3.9,0.5,7.8,0.7,11.8
		c0.3,6.3,0.6,12.6,1,19c0.2,3.2,0.3,6.4,0.5,9.5c0.1,2.6,0.1,5.1,0.3,7.7c0.3,4.6,0.6,9.3,1.5,13.9c0.8,4.4,1.3,8.8,1.8,13.2
		c0.2,1.7,0.2,3.4,0.2,5.2C190.8,264.8,190.1,264.8,189.4,264.8z"/>
	<path class="st0" d="M48.9,81.6c-1.2-0.1-2.3-0.2-3.4-0.3c-1.5,0-3,0.1-4.4,0.1c-2.6,0-4-1.8-5.6-3.5c-0.8-0.9-1.8-1.6-2.7-2.6
		c5.2-1.9,10.3-3,15.2,1c-0.2-0.4-0.5-0.8-0.6-1.3c-0.1-0.3,0.1-0.7,0.1-1.1c0.3,0.1,0.8,0.2,1,0.4c1.2,1.6,1.6,3.5,1.8,5.5
		c0.4,5-1.5,9.4-3.8,13.7c-0.7,1.3-1.6,2.5-2.4,3.7c-0.5,0.7-0.9,1.5-1.2,2.4c-0.6,1.8-0.3,2.6,1.1,3.8c0.4,0.4,0.9,0.8,1.2,1.2
		c1.3,1.5,3.2,1.9,4.9,2.5c0.5,0.2,1.4-0.6,2-1c0.3-0.2,0.4-0.5,0.6-0.7c1.2-2.3,2.4-2,4.6-1.2c0.2,0.1,0.3,0.2,0.5,0.3
		c0.9,0.3,1.9,0.4,2.3-0.4c0.3-0.6,0.1-1.5-0.1-2.3c-0.1-0.4-0.7-0.8-0.9-1.2c-0.2-0.3-0.2-0.6-0.2-0.9c0.4,0,0.8-0.2,1.1-0.1
		c1.5,0.8,2.4,3.1,1.9,4.7c-0.4,1.1-1.3,1.7-2.4,1.7c-1,0-2.1-0.2-3.1-0.5c-0.8-0.3-1.4-0.3-2,0.4c-2.5,3.4-5.2,3.4-8.8,1
		c-1.2-0.8-2.3-1.8-3.2-2.9c-1.8-2.1-1.3-5.1,0.3-7.2c3.1-4,5.1-8.5,6.2-13.3C49,82.8,48.9,82.1,48.9,81.6z M40.7,79.4
		c0.1-1.1,0.1-2,0.2-3c0.1-1-0.2-1.6-1-1.5c-1,0.1-1.9,0.3-2.9,0.4c-0.9,0.1-1.1,0.8-0.7,1.3C37.4,78.2,38.9,79.3,40.7,79.4z"/>
	<path class="st0" d="M45.3,113.7c1.2-0.2,2.5,0,3.6,1.2c0.2,0.3,1,0.3,1.4,0.2c1.5-0.4,2.8-0.3,4.2,0.3c3.7,1.7,7.6,2.8,11.6,3.7
		c0.3,0.1,0.6,0.5,0.9,0.8c-0.3,0.3-0.6,0.8-0.9,0.8c-3.1,0.1-5.9,1.5-8.8,2.4c-3.3,0.9-6.5,0.6-9.7-0.4c-2.2-0.7-3.3-2.5-4.1-4.7
		c-0.3-0.9-0.8-1.8-1.4-2.7c-0.6-0.9-0.4-1.4,0.7-1.6c0.1,0,0.2,0,0.2,0C43.8,113.7,44.4,113.7,45.3,113.7z M45,117.5
		c0.4,2.4,1.7,3.6,3.8,4.1c1,0.2,2,0.4,3,0.5c2.8,0.4,5.3-0.3,8.1-1.5C54.6,120.3,49.6,120.5,45,117.5z M59.2,119
		c-2.1-0.9-4.2-1.8-6.3-2.6c-0.6-0.2-1.4-0.1-2,0.2c-1.2,0.4-2.3,0.2-3.1-0.7c-0.9-1-1.9-0.8-3.2-0.6C49,119.2,54.2,118.7,59.2,119z
		"/>
	<path class="st0" d="M78.8,88.2c-2.7,0-5.7-0.7-8.6-1.8c-0.9-0.3-1.8-0.2-2.8-0.4c-0.4-0.1-1-0.2-1.1-0.4c-0.1-0.5-0.2-1.3,0.1-1.5
		c2.1-1.7,4.3-3.4,6.6-4.7c0.7-0.4,2.1-0.1,3,0.3c2,0.8,4,1.8,5.9,2.8c0.7,0.4,1.3,1,1.9,1.3c0.4,0.2,0.9,0.2,1.3,0.4
		c0.4,0.2,0.9,0.4,1,0.8c0.1,0.3-0.1,1-0.4,1.1C83.8,87.3,81.6,88.2,78.8,88.2z M72.9,85.4c0.2-1.3,0.5-2.4,0.6-3.5
		c0.1-0.3,0-0.6,0-1c-0.3,0.1-0.7,0.1-0.9,0.2c-1.3,0.8-2.5,1.7-3.7,2.6c-0.2,0.1-0.3,0.5-0.5,1C70,85,71.5,85.2,72.9,85.4z
		 M78.9,86.5c0.9,0.6,2.8,0.3,4.5-1c-0.8-0.6-1.5-1.2-2.3-1.7c-0.2-0.1-0.8,0.1-0.9,0.3C79.8,84.8,79.4,85.6,78.9,86.5z"/>
	<path class="st0" d="M73.1,69.3c4.7,1.3,9.6,1.2,13.7,4.1c0.2,0.1,0.4,0.3,0.6,0.4c0.6,0.5,1.2,1.1,0.5,1.7
		c-0.3,0.3-1.2,0.3-1.8,0.1c-1.2-0.5-2.3-1.2-3.5-1.7c-3.8-1.3-7.6-2-11.7-1.3c-0.9,0.1-1.6-0.1-1.9-1s0.5-1.3,1.1-1.5
		C71.2,69.7,72.2,69.5,73.1,69.3z"/>
</g>
</svg>
