<?xml version="1.0" encoding="utf-8"?>
<!-- Generator: Adobe Illustrator 18.1.1, SVG Export Plug-In . SVG Version: 6.00 Build 0)  -->
<!DOCTYPE svg PUBLIC "-//W3C//DTD SVG 1.1//EN" "http://www.w3.org/Graphics/SVG/1.1/DTD/svg11.dtd">
<svg version="1.1" id="Layer_1" xmlns="http://www.w3.org/2000/svg" xmlns:xlink="http://www.w3.org/1999/xlink" x="0px" y="0px"
	 viewBox="105.8 0.1 749 559.3" style="enable-background:new 105.8 0.1 749 559.3;" xml:space="preserve">
<style type="text/css">
	.st0{fill:#009688;}
</style>
<g id="bald-man">
	<path class="st0" d="M643.4,453.4c-6.9-2.5-10.6-10-13.1-16.8c-9.4-21.8-18.7-44.3-18.7-68c0-13.1,3.1-26.2,5.6-38.7
		c2.5-11.8,6.9-26.2,19.3-29.3c21.2-5,29.3-29.9,31.8-51.8c1.9-15.6,3.1-31.8,3.1-47.4c0-8.7-0.6-19.3-6.9-26.2
		c-6.2-6.9-19.3-8.1-23.7,0c8.7-65.5-26.8-135.3-86.1-162.8C495-15,416.4,4.4,379,58c-16.8,24.9-24.9,55.5-28.1,85.4
		c-2.3,21.7-2.5,43.9,6.1,63.3c-4.2-2.9-12.4-2.1-15.5,2.8c-4.4,6.9-2.5,16.2,0,24.3c6.2,23.1,13.1,45.5,20,68.6
		c3.1,10,8.1,21.8,18.1,23.1c8.1,1.2,14.3,8.7,15.6,16.8c1.2,8.1-0.6,16.2-2.5,24.3c-15.6,8.7-20,28.7-28.7,44.3
		c-17.5,30.6-54.9,42.4-87.9,54.3c-51.8,17.5-101.6,40.5-149,67.3c-10,5.6-20.6,13.1-21.2,24.3c116-63.6,238.8-124.7,371.7-134.1
		c20.6-1.9,42.4-1.9,63,2.5c19.3,4.4,38,11.2,56.1,18.7c79.2,31.2,159.6,63,232,108.5c8.1,5,18.7,10,26.2,4.4
		C788.7,514.5,717.6,479.6,643.4,453.4z M595.7,62c0.2,0.3,0.5,0.4,0.7,0.6c-0.3,0.2-0.5,0.5-0.7,0.8c0,0-0.1,0.1-0.1,0.1
		c-0.1-0.3-0.2-0.7-0.2-1C595.5,62.4,595.6,62.2,595.7,62z M612.8,296.8c3.7-7.5,13.1-9.4,20.6-12.5c7.5-3.1,15.6-11.2,11.8-18.7
		c-6.2,7.5-14.3,13.1-23.1,16.2c0.2-0.7,0.4-1.3,0.6-2c0.4-1,0.9-2,1.3-3.1c1.9-5,3.7-11.5,4.3-18c5.4-21.9,9.5-44.1,9.5-66.7
		c7.5,9.4,11.2,21.2,10.6,33.1c0,2.5-0.6,5.6,0,8.7c1.2,3.1,4.4,5.6,6.9,4.4c1.2-11.8,0.6-24.3-2.5-36.2
		c-1.9-6.9-6.2-14.3-12.5-13.1c0-5,5-8.1,10-10.6c2.5-1.2,5.6-2.5,8.1-0.6c1.9,1.2,1.9,3.7,2.5,6.2c1.9,18.7,2.5,38,0,57.4
		c-1.9,11.8-3.7,23.1-9.4,33.1c-5.6,10-15,18.7-26.2,20.6c-5,1.2-7.5,6.2-8.7,11.2c-8.1,25.6-12.5,52.4-13.7,79.2
		c-26.8-8.7-53.6-17.5-81.7-22.4c-39.9-7.5-80.4-6.9-119.7,1.9c1.9-12.5-1.9-25.6-2.5-38.7c-0.6-8.1,0-16.8,1.2-24.9
		c10,17.5,29.3,28.1,48.6,32.4c19.3,4.4,39.9,3.1,59.9,1.9c5-0.6,10.6-0.6,16.2-1.2c2.4-0.2,4.8-0.4,7.2-0.5
		c7.9,0.1,15.7-0.9,23.1-2.6c6.5-1,12.8-2.4,19-4.4C590.4,321.8,605.3,311.8,612.8,296.8z M415.3,217.1c0.4,0.6,0.8,1.1,1.1,1.7
		c-0.1,0.1-0.1,0.2-0.2,0.2C416,218.4,415.6,217.8,415.3,217.1z M420.8,243.6c0.2-0.1,0.5-0.1,0.7-0.2l0.5,1.6
		C421.6,244.5,421.2,244,420.8,243.6z M508.4,331.4c0.7-0.1,1.4-0.3,2.1-0.4c0.3-0.1,0.6-0.1,1-0.2c0.2,0.1,0.5,0.1,0.7,0.2
		C510.9,331.2,509.7,331.3,508.4,331.4z M590.9,44.8c-0.1,0-0.2,0-0.3,0c-0.5-0.7-0.9-1.4-1.4-2.1C589.8,43.3,590.4,44,590.9,44.8z
		 M419.5,31.2c33.7-21.8,76.1-28.1,114.7-17.5c8.7,2.5,16.8,5.6,25.6,8.7c5.6,1.9,11.2,3.7,14.3,8.7c1.2,1.9,1.2,3.7,3.1,5
		c0.8,0.5,1.8,0.6,2.6,0.4l0.2,0.4c0,0.2,0.1,0.4,0.1,0.6c1.2,2.9,2.4,5.8,3.6,8.7c6.1,25.3,2.4,52.7-10.9,75.3
		c-3.1,5.6-7.5,11.2-12.5,15.6c-5.6,5-11.8,8.1-18.7,10c-14.6,4.7-30.3,5.1-44.8,1.6c-3.5-1.7-7.1-3-10.8-3.5c-1-0.4-2-0.8-2.9-1.2
		c-18.1-8.1-33.7-23.1-41.8-41.2c-5-10.6-10-21.8-18.1-30.6c-8.1-9.4-19.3-16.2-31.2-16.2C399.6,45.5,408.9,38,419.5,31.2z
		 M383.3,304.3c2.5,2.5,6.2,3.1,10,3.7c0,4.4-0.6,9.4-0.6,13.7c-6.9-0.6-13.7-5.6-17.5-11.2c-3.7-6.2-6.2-13.1-8.1-20
		c-5-16.8-9.4-33.1-13.7-49.3c-1.9-6.2-3.7-13.1-5.6-20c-0.6-2.5-1.2-4.4-0.6-6.9c0-2.5,1.9-4.4,4.4-4.4c3.7,6.2,5.6,13.7,6.9,20.6
		c1.2,6.2,2.5,11.8,3.7,18.1c1.9,0.6,3.1-0.6,3.7-1.9c0.6-1.2,0-3.1,0-4.4c-1.2-7.5-2.5-15.6-3.7-23.1c0.4-0.8,1.3-0.3,2.4,0.7
		c2,6.8,4.2,13.6,6.6,20.3c0,0.1,0.1,0.2,0.1,0.3c5.9,20.7,13.5,40.7,22.7,59.9c-1.9,1.2-4.4-0.6-5.6-1.9c-1.9-1.2-3.1-3.1-5-3.7
		C380.2,296.8,380.8,301.8,383.3,304.3z M542.4,415.3c-45.5-7.5-92.3,0.6-137.8,8.1c-13.1,2.5-26.2,4.4-39.3,6.9
		c7.5-13.7,14.3-28.1,21.2-41.8c1.2-3.7,3.1-6.9,6.2-9.4c3.7-2.5,7.5-3.7,11.8-4.4c30.6-6.2,61.7-8.7,92.3-5.6
		c25.6,2.5,49.9,10,74.8,16.8c15.6,4.4,33.1,10,39.9,24.9c5,10.6,3.1,23.7,9.4,33.7C597.2,429.7,569.8,419.7,542.4,415.3z"/>
	<path class="st0" d="M579.2,439c0,0.6,0,1.2,0.6,1.9c-1.2,1.2-3.1,1.9-4.4,3.1c-0.6-1.2-0.6-3.1-0.6-5C576,439,577.9,439,579.2,439
		"/>
</g>
</svg>
