<?xml version="1.0" encoding="utf-8"?>
<!-- Generator: Adobe Illustrator 18.1.1, SVG Export Plug-In . SVG Version: 6.00 Build 0)  -->
<!DOCTYPE svg PUBLIC "-//W3C//DTD SVG 1.1//EN" "http://www.w3.org/Graphics/SVG/1.1/DTD/svg11.dtd">
<svg version="1.1" id="Layer_1" xmlns="http://www.w3.org/2000/svg" xmlns:xlink="http://www.w3.org/1999/xlink" x="0px" y="0px"
	 viewBox="270.7 0 419.3 560" style="enable-background:new 270.7 0 419.3 560;" xml:space="preserve">
<style type="text/css">
	.st0{fill:#03A9F4;}
</style>
<g id="dandruff-man">
	<path class="st0" d="M680.3,525.1c-5.2-18.8-9.4-37.7-7.7-57.2c0-2.1,1.4-4.9,3.1-5.9c5.9-3.1,7.3-7.7,6.3-13.6
		c-2.1-11.5-7-22.3-5.2-34.5c0.7-5.6-1-11.5-2.1-17.1c-2.4-16.4-5.2-32.8-7.7-49.2c-2.1-12.2-5.2-24.1-11.5-34.9
		c-2.1-3.5-4.2-8.4-7.7-10.1c-12.9-6.6-26.2-13.3-39.8-18.1c-15.7-5.6-30.7-10.8-40.5-25.1c-0.7-1-1.7-1.7-2.8-2.4
		c-3.5-1.7-3.5-3.8-1.7-7c1.4-1.7,2.4-3.8,2.8-5.9c3.8-15.4,8.4-30.7,7.3-46.8c-0.3-6.6-1-13.3-1-19.9c0.3-11.2,0-22-4.9-32.1
		c-0.3-1-0.3-2.4-0.7-4.2c8-1.7,14-5.9,14.7-14.3c0.7-7.7,0-15.4-1-23c-1.4-9.1-4.2-17.8-5.2-26.9c-1.4-11.5-3.5-22.3-12.9-30.4
		c-1.4-1-2.4-2.8-3.5-4.2c-2.8-4.2-4.9-8-10.5-9.8c-2.1-0.3-3.5-4.2-5.6-7.3c-8-3.5-17.4-7.7-26.9-11.9c-1.7-0.7-3.5-1.4-4.9-2.4
		c-3.8-2.4-7.3-5.9-11.5-6.6C488,2.1,476.5,0.7,465.3,0c-2.8-0.3-5.9,2.4-8,3.5c-2.1,2.1-3.8,4.9-5.6,7.7c-2.4,3.5-5.2,3.5-8.4,1.7
		c-1-0.3-2.1-1.4-3.1-1.4c-11.9-0.7-23.7-2.1-34.2,6.3c-6.3,4.9-10.5,11.2-14,18.1c-3.5,6.6-8.7,12.2-13.6,18.1
		c-9.1,10.8-13.3,23.7-17.1,36.6c-0.7,2.4,0,5.2-0.3,7.7c-1.4,8.4-3.8,16.7-5.2,25.1c-1.4,10.1-0.3,19.9,4.9,29
		c2.4,3.8,4.2,8.7,4.2,13.3c0,7.3-1.7,14.3-8,19.9c-8.7,7.7-13.6,18.5-10.1,30c2.1,6.6,0,11.2-2.4,16.4c-3.1,6.6-6.3,12.9-9.4,19.5
		c-4.5,9.4-6.3,19.5-16.4,26.2c-7.3,4.5-12.2,13.3-19.2,19.5c-11.2,10.1-14.7,22.7-14.7,37.3c-0.3,5.2-2.8,10.5-4.5,15.7
		c-1,3.8-2.8,7.3-3.8,11.2c-1.7,7-3.5,14.3-4.2,21.3c-1,10.8-3.1,21.6,1.7,32.1c3.5,6.6,6.6,13.3,10.1,19.9c1,1.7,1.7,3.8,3.1,5.6
		c14.3,17.4,35.9,23.7,57.2,16.4c1.4-0.3,4.2,0.3,4.9,1.4c1.4,2.1,2.4,4.9,2.8,7.7c1.7,13.3,3.8,26.2,4.9,39.4
		c1.4,15.4,1.7,30.7,2.4,46.1c0,2.8-1,5.9-1.4,8.7h7.3c0-12.2,0.3-24.4,0.3-36.6c0-1,0-2.4-0.3-3.5c-2.1-13.3-4.2-26.5-6.3-39.8
		c-1-7-1.7-14.3-4.2-20.6c-1.7-4.5-2.1-7.3,1.7-10.5c13.3-11.5,18.1-28.3,24.4-43.6s7.3-32.4,10.5-48.8c1.4-8.4,0.7-16.7,3.1-24.8
		c5.6-18.8,7.7-38,9.8-57.6c0-1.4,1-2.8,2.1-5.9c1.4,2.8,2.4,4.2,2.8,5.6c1.4,3.5,2.1,7.7,3.8,11.2c5.2,11.5,10.5,22.7,15.4,34.2
		c2.8,6.3,4.9,7.3,11.2,3.5c4.2-2.4,8.7-4.2,12.9-6.6c5.2-2.8,10.5-5.9,15.7-8.7c2.8-1.4,6.3-3.1,8.4-2.4c6.3,2.4,12.6,5.2,17.8,9.4
		c13.3,11.2,18.5,27.9,24.4,43.3c4.9,12.6,6.6,26.2,9.1,39.4c1.4,9.8,1.4,19.2,2.4,29c0.3,2.1,1,3.8,1.4,5.9h2.4
		c0.7-2.4,2.1-4.9,1.7-7.3c-1.7-15.7-2.4-31.8-5.9-46.8c-3.5-14.7-9.4-29-15.4-42.9c-3.5-8-8.4-16-14.3-22.7
		c-3.8-4.9-10.1-7.3-16.4-11.5c2.4,0,3.8-0.7,5.2-0.3c5.2,1,10.5,2.8,15.7,3.8c14.3,2.8,24.1,12.9,32.1,23
		c6.6,8.4,9.4,19.2,11.2,30.4c3.5,22,8,44.3,7,67c-0.3,4.2,1.4,5.6,5.6,4.5c0-9.1,1-17.8,0-26.5c-1.4-12.9-3.8-25.8-5.9-38.7
		c-2.8-16.4-6.3-32.8-18.5-45.4c5.6-7.7,10.1-15,15.7-22c5.2-6.6,14-7.7,21.3-3.1c5.2,2.8,10.1,6.6,14.7,10.1
		c2.8,2.4,6.3,5.2,8.7,2.1c1.4-1.7-0.7-6.6-1.7-9.8c-0.3-1.4-1.7-2.4-2.4-3.5c-2.8-3.8-5.9-7.7-9.1-12.2c8,3.1,15,6.3,22.3,9.1
		c10.8,4.2,22,8,32.4,12.6c12.6,5.6,16.7,18.1,19.5,29.7c4.9,19.2,7.7,39.1,11.2,58.6c1.4,7.3,1.7,14.7,2.4,22
		c0.3,5.2-0.7,10.5,0.3,15.4c1.4,7.3,3.8,14,5.6,20.9c0.7,3.8,0.3,7-4.2,8.7c-4.5,1.7-8.7,4.2-13.3,6.3c-7.7,3.1-15.4,5.9-24.1,3.8
		c0-3.5-0.7-7,0-10.1c3.5-15.7,8-31.1,11.2-46.8c1.4-5.9,0.3-12.2,0.3-18.1c-0.7,0-1-0.3-1.7-0.3c-0.7,2.1-1.7,4.2-2.1,6.6
		c-0.3,2.4,0,4.9-0.3,7.3c-3.5,14.7-6.6,29.7-10.5,44.3c-2.1,8.4-6.6,16-7.3,24.4c-0.7,9.1-3.5,19.2,2.1,28.3
		c1.4,1.7,2.4,4.2,2.4,6.6c1,14,1.7,27.9,2.4,41.9c0,2.8-1,5.9-1.4,8.7c3.1,0,6.3,0,10.1,0c-0.7-3.1-2.1-6.3-2.4-9.8
		c-1-16.4,0.7-32.8-5.2-48.5c-2.4-6.6-3.8-12.9-3.1-19.9c0.7-5.6,4.9-7.3,8.7-7.3c9.4,0,16.7-4.2,24.8-8c1-0.7,2.1-1,3.5-1.4
		c-1.4,33.1,8,63.9,18.1,94.6h4.9C686.6,548.1,683.4,536.6,680.3,525.1z M364.2,111c-1.4-6.6,0.3-12.6,3.1-18.1
		c0.7-1.4,3.5-1.7,5.9-2.8c0.3,4.2,0.7,7.7,1,10.8h2.1c0.3-2.1,0.7-4.5,0.7-7c-0.3-7,2.4-12.2,7-16.7c7-6.6,14-13.3,21.3-19.9
		c1-1,3.8-2.1,5.2-1.7c4.5,1.4,9.1,3.5,14.7,5.6c-3.8,2.4-6.6,3.8-9.4,5.9c-7.3,5.2-14.7,10.5-20.9,16.4c-2.8,2.8-3.5,7.3-4.9,11.2
		c-0.3,0.7,1,1.7,1.4,2.4c0.3,0,1-0.3,1-0.3c1.7-13.6,13.3-17.4,22-24.1c7.3-5.6,15-10.5,25.1-9.8c7,0.7,13.3,4.2,14.3,8.7
		c-8.7,2.8-17.1,5.2-25.5,7.3c-2.8,0.7-5.6,1-8.4,1.4c-6.6,0.7-10.5,7-7.7,13.6c0.7-1.7,1.7-2.8,2.1-4.2c1-4.2,3.1-6.6,8-4.9
		c1.4,0.3,3.8-0.7,5.6-1.4c11.9-6.3,25.1-4.5,33.5,4.2c-5.2,0.7-10.5,1.4-15.7,2.4c-9.1,1.7-13.6,7.3-14.7,16.4
		c-0.7,7.3-1,15-1.7,22.3c-1.7,15.7-7.7,30.4-14.7,44.7c-3.8,7.7-5.2,16.7-8,25.1c-5.2-2.1-11.5-4.9-17.4-7.7
		c-1-0.3-2.8-0.7-3.1-1.7c-4.2-7.3-10.5-10.1-18.5-8.4c1.4-8.7,2.4-16.7,3.1-24.8C372.2,140.6,367.3,126,364.2,111z M412.7,196.8
		c0.7,0,1-0.3,1.7-0.3c1,1,2.1,2.4,3.1,3.8c4.5,6.3,10.1,11.2,18.1,12.2c1,0.3,2.8,2.1,3.1,3.5c1,5.6,1.7,11.2,2.4,16.7
		c0.3,1-0.7,2.8-1.7,3.8c-0.3,0.7-2.4-0.3-3.5-1c-2.1-1.4-4.2-3.5-6.3-4.9c-4.9-2.8-9.4-1-10.1,4.2c-1,6.3-5.6,9.4-9.4,13.3
		c-0.3-0.3-1-0.3-1.4-0.7C409.9,230.3,411.3,213.5,412.7,196.8z M354.4,197.1c0.7-0.3,1.4-0.3,2.1-0.3c0.7,4.5,1.7,9.4,2.4,14
		c0.7,0.3,1,0.3,1.7,0.7c1-3.1,3.5-6.6,2.8-9.4c-1-3.1-4.5-5.6-7.3-8.7c4.2-3.5,8.4-7,12.2-10.5c4.9,4.9,6.6,17.1,3.1,22.3
		c-2.8,3.8-5.2,7.7-8.7,10.8c-1.7,1.7-6.6,2.4-8,1.4c-2.4-2.1-4.2-5.9-4.2-9.1C350.9,204.5,353,201,354.4,197.1z M318.1,283
		c0.7,0.3,1,0.7,1.7,1c-9.8,16.4-19.2,33.1-29,49.5C288.1,309.5,306.2,298.3,318.1,283z M405,235.5c-1.7,10.5-2.4,21.3-4.2,32.1
		c-2.4,16.7-5.2,33.5-8,50.2c-2.8,15.4-5.6,30.7-8,46.1c-1.4,8.4-1.7,16.7-2.8,25.1c-0.3,2.1-1,4.5-2.4,5.9
		c-7.3,7.7-7.3,18.1-12.2,26.9c-4.2,7.7-8,16.4-14,22.7c-8.4,8.4-19.9,11.5-32.1,10.1c-10.5-1-19.5-5.2-26.2-12.9
		c-5.2-5.6-8.4-12.9-12.2-19.9c-1.7-3.5-3.1-7.7-4.5-11.5c-1.4-4.2-2.4-8.4-3.5-11.5c3.1-17.1,3.1-33.5,11.5-47.1
		c4.9-8.7,10.5-16.7,15.7-25.5c6.6-11.2,13.3-22.3,19.2-33.8c8.4-16.4,15.7-33.1,23.4-49.9c3.1-6.3,6.3-12.6,9.4-18.8
		c0.3-1,1.4-1.7,2.4-2.1c3.8-2.1,8.4-3.5,11.9-6.3c5.6-4.5,14-6.3,20.6-2.8c2.8,1.4,5.9,3.1,8.7,4.9C406,223,406.7,225.4,405,235.5z
		 M407.4,220.2c-1.4-0.7-2.4-1.4-3.5-2.1c-7-3.8-14.3-8-21.6-11.2c-2.4-1.4-6.3,0-8.4,0.3c0.7-7.3,1.4-14.7,2.1-23
		c1.7,1.7,3.5,3.5,5.6,4.9c3.5,2.1,6.6,5.2,10.5,6.3C406,199.9,409.9,204.5,407.4,220.2z M435.3,318.9c-4.9-9.8-9.1-18.1-12.9-26.5
		c-4.2-8.7-8.4-17.4-12.2-26.5c-2.8-7-1.7-11.2,4.5-15.7c4.2-3.1,8-6.6,9.1-12.6c0.7-3.5,3.1-2.4,5.6-0.7
		c7.3,5.2,11.5,12.6,15.7,20.2c6.6,12.6,22.3,31.4,32.1,38.7C462.9,303.6,449.3,311.2,435.3,318.9z M550.5,293.4
		c-6.3,7-12.2,14-18.1,20.9c-4.2-3.1-8-7-12.9-9.1c-9.4-3.8-19.5-6.3-29.3-10.1c-5.2-2.1-10.8-4.9-14.7-8.7
		c-8-8-14.7-17.1-21.6-26.2c-3.1-3.8-5.2-8.4-7.7-12.9c-1-2.4-2.4-5.2,1-7.3c0.7-0.7,1-2.8,0.7-3.8c-0.7-4.5-2.1-8.7-2.8-12.9
		c-1-4.9-3.5-9.4,2.4-13.3c2.4-1.7,2.4-5.2-1.4-7c-7.3,6.3-13.6,5.6-21.3-2.1c-4.9-4.9-9.4-10.1-11.2-17.8H442
		c-1.7-5.6-3.5-6.3-25.5-5.6c2.1-4.2,3.8-7.7,5.9-11.2c2.5-4,4.8-8.2,6.7-12.4c0,2.1,0.3,4.1,0.9,6.2c0.9,3.1,5.7,1.8,4.8-1.3
		c-1.9-6.8,0.3-13.6,1.1-20.4c0.8-7.4,0.5-14.8,0.6-22.2c0.1-5.9-0.2-15.4,6.6-17.8c2.9-1,6.1-0.9,9.3-0.7c-0.2,1.4,0.9,3,2.5,2.9
		c0.8,1.2,2.5,1.8,3.9,0.6c1.4-1.3,2.9-2.6,4.3-3.9c0.8,1.3,2.6,1.8,3.7,0.7c1.3,0.4,2.8-0.1,3.2-1.6c0.7-3,1-6,1.1-9.1
		c0-3.2-5-3.2-5,0c0,0.2,0,0.4,0,0.6c-0.1,0.1-0.1,0.3-0.2,0.4c-0.1,0-0.1,0.1-0.2,0.1c-0.1-0.3-0.2-0.7-0.4-1.2
		c1.1-0.8,1.7-2.5,0.6-3.9c-1.4-1.8-2.9-3.4-4.4-4.9c-0.4-0.7-0.9-1.3-1.5-1.8c-0.1-0.1-0.1-0.3-0.2-0.4c0-0.2,0-0.4,0-0.7
		c0,0,0-0.1,0-0.1c0.3-0.2,0.7-0.5,1-0.8c2.1-2.7-0.6-6.3-2.8-8.5c-0.3-0.8-0.7-1.6-1.3-2.3c0.2-0.9-0.1-1.8-1.3-2.3
		c-1.2-0.6-2.4-1.1-3.6-1.7c-2-1.2-4.1-2.1-5.6-2.6c-0.6-0.2-1.1-0.1-1.5,0.1c0,0-0.1,0-0.1,0c-0.2-0.2-0.5-0.5-0.8-0.6
		c-0.4-0.2-0.8-0.3-1.2-0.5c-0.1-0.1-0.3-0.2-0.5-0.4c-4.7-2.6-9.6-4.4-14.9-5.4c-3-0.9-6-1.7-9.1-2.4c0.5,0.1,1,0.1,1.5,0.2
		c3.1,0.6,4.5-4.2,1.3-4.8c-3.2-0.6-6.1-0.7-9-0.2c-0.6-1.3-2-2.2-3.4-1.1c-1.6,1.2-3.3,2.4-5,3.6c-0.2-1.9-2.5-3.4-4.2-1.6
		c-1.2,1.2-2.3,2.4-3.5,3.6c-0.8-0.3-1.8-0.2-2.6,0.5c0,0-0.1,0.1-0.1,0.1c-0.1-0.2-0.3-0.4-0.5-0.6c0.7-0.9,1.4-1.7,2-2.6
		c2.4-3.5,3.1-8,5.2-11.5c9.8-17.1,20.9-19.2,39.1-13.6c4.5,1.4,8.7,1.4,12.2-2.4c2.1-2.1,4.2-4.2,5.9-6.3c5.2-5.9,11.2-8,18.8-4.9
		c3.1,1,7.3,0.7,10.5,1.7c7.7,2.4,15.4,5.2,23,8.4c5.9,2.4,11.9,4.5,17.4,7.7c6.6,3.8,12.6,8.4,17.8,13.6
		c5.6,4.9,10.8,9.8,15.7,15.4c4.9,5.9,7.7,11.9,8,19.5c0.3,7.3,1.7,15,3.8,22c3.1,11.2,3.1,22.7,1.7,33.8c-0.3,2.4-3.8,4.5-6.3,5.9
		c-0.3,0.3-3.8-2.8-4.5-4.9c-3.8-9.8-6.6-19.9-10.8-29.7c-2.4-5.9-6.3-11.9-10.8-16.7c-7-7.7-17.8-8.4-26.9-3.8
		c-4.2,2.1-9.1,4.2-14,5.2c-7.3,1.4-13.3,4.5-18.1,10.1c-5.9,6.3-12.2,12.2-18.1,18.8c-4.2,4.5-6.6,10.1-7.7,16.7
		c-1.4,7.7-4.9,15-7.3,22.3c-1.4,3.8-2.4,7.7-3.1,11.5c-0.3,1,1.4,2.8,2.4,4.2c0.7-1.4,2.4-2.4,2.8-3.8c2.1-5.9,4.2-11.9,5.9-17.8
		c1.7-5.2,3.5-10.8,4.2-16.4c1.4-9.8,8-16,14.3-22.7c4.2-4.2,9.1-7.7,13.3-12.2c5.9-6.3,14.3-4.9,21.3-7.3c2.4-0.7,4.5-1.7,7-2.8
		c12.2-5.6,20.6-2.4,25.5,10.1c1.7,4.5,3.5,9.1,5.2,13.3c-6.3,2.1-12.9,3.8-19.9,7c3.1,5.6,4.9,5.9,8,3.1c3.8-3.1,11.9-4.2,15.7-2.1
		c3.1,1.7,4.5,6.3,3.5,11.9c-5.2-3.5-11.9-7-17.1-2.1c-5.6,5.2-7.7,12.6-5.9,20.6c18.8-2.8,22-4.9,25.5-15
		c3.1,11.9,7.3,23.7,9.1,35.6c1.7,11.9,1.7,24.1,1.4,36.3c-0.3,8-2.4,16-3.8,24.1c-0.7,3.5-1.4,7-2.1,10.5
		c-1.7,9.4-8,16.4-17.1,16.7c-9.4,0.3-18.8-0.7-28.3-1.7c-14.7-1.7-24.4-13.3-37-19.9c-4.5-2.8-9.1-5.9-13.6-8.7
		c-1.4-0.7-3.1-1-4.5-1.4c-0.3,0.3-0.7,1-1,1.4c0.7,1.4,1.4,3.1,2.8,3.8c12.9,8.7,26.2,16.7,39.1,25.8c5.9,4.2,12.2,4.5,18.8,5.2
		c5.6,0.7,11.2,0,16.7,0.3c1.7,0.3,4.5,2.4,4.5,3.1c-1,7,3.8,11.2,7.7,15.7C556.4,285.8,556.1,286.8,550.5,293.4z M552.6,129.1
		c-2.1,9.8-7,12.2-17.8,10.5c1-3.1,2.4-5.9,3.5-8c3.1,1,5.6,2.8,8,2.4C548,133.6,549.8,131.2,552.6,129.1z M589.2,296.6
		c-0.3,0.3-1,1-1.4,1.4c-2.4-1.7-5.6-2.8-6.6-4.2c-4.2-6.6-10.5-7.7-17.1-8.7c-2.1-0.3-4.5-2.1-5.6-3.8c-3.5-5.2-6.6-10.8-9.4-16.4
		c-1.4-2.4-1.7-5.2,1.7-6.6c2.8-1.4,5.2-2.8,8,0.3c5.9,7.7,12.6,14.7,18.5,22.3C581.5,285.8,585.4,291.3,589.2,296.6z"/>
	<path class="st0" d="M526.8,560c-7.3-9.4-14-19.9-22-28.6c-18.5-19.9-33.5-41.9-42.9-67c-3.8-10.5-8.7-20.2-12.9-30.4
		c-4.9-11.5-9.1-23.4-13.6-35.2c-3.1-7.3-7-14.3-10.1-22c-0.7-1.7-0.3-3.8-0.3-5.9c0.7,0,1.4-0.3,2.1-0.3c1,2.8,2.1,5.6,3.5,8.4
		c3.5,7,7.7,13.6,10.8,20.6c5.6,13.6,10.1,27.6,16,40.8c9.4,20.6,18.5,40.8,29.7,60.4c5.9,10.8,16,19.2,23.7,29
		c7.7,9.8,15.4,20.2,22.7,30.4C530.6,560,528.5,560,526.8,560z"/>
	<path class="st0" d="M521.2,331.5c6.6-2.4,9.8,0,11.2,4.9c0.3,1.7-0.3,3.8-0.7,5.6c-1.7-0.3-4.2-0.3-5.2-1.4
		C524.3,338.1,522.9,334.6,521.2,331.5z"/>
	<path class="st0" d="M537.2,383.1c2.4-2.8,3.8-5.9,5.6-5.9c4.9-0.3,4.5,4.5,4.5,7.3c0,2.1-2.4,4.5-3.8,6.6
		C541.4,388.7,539.7,386.2,537.2,383.1z"/>
	<path class="st0" d="M513.5,218.4c2.4-1.7,4.5-3.1,6.3-4.5c3.5-2.4,7.7-4.5,10.8-8c3.1-3.5,5.6-7,10.8-4.5c0.7,0.3,2.1,0,2.8-0.3
		c7-3.8,14.7-3.8,16.4,0.3c2.8,6.3,2.4,17.4-5.6,21.6c-12.6,5.9-24.8,5.2-36.6-1.4C517,220.5,515.9,219.8,513.5,218.4z M523.6,220.9
		c0,0.3,0,1-0.3,1.4c8.4,0,17.1,0.3,25.5,0c6.3-0.3,11.2-8,10.1-14C547.3,212.1,535.5,216.7,523.6,220.9z M557.8,203.1
		c-3.8-3.5-7-4.5-10.5-1c-1,1-2.4,2.1-3.5,1.7c-10.5-1.7-13.6,8.7-21.3,11.9C535.1,214.9,546.6,211.1,557.8,203.1z"/>
	<path class="st0" d="M475.1,159.5c1.7-10.1,9.8-14.7,17.1-18.1c7.3-3.8,12.2,3.1,17.1,8.7C499.5,158.1,488.4,161.2,475.1,159.5z
		 M486.3,149c-1.4,1.7-3.1,3.8-5.2,6.3c0.3,0.7,0.3,1,0.7,1.7c4.9-1,10.1-1.7,16-3.1C493.6,152.1,490.8,151.1,486.3,149z"/>
	<path class="st0" d="M532.7,151.4c4.9,5.9,10.5,11.5,14.3,18.1c2.1,3.8,3.5,10.1,2.1,14c-1.7,4.5-7,8-13.6,5.9
		c-1.7-0.7-4.5,0.7-6.3,1.7c-4.5,2.4-8.7,3.1-11.9-1.4c-2.8-4.2-2.4-8.4,2.1-12.6c0,2.1-0.3,4.5,0,6.6c0.3,1.4,1,3.8,2.1,4.2
		c1.4,0.3,4.2,0,5.2-1c2.8-2.8,5.6-4.5,9.1-2.1c4.2,3.1,6.6,0,9.1-2.4c3.1-3.1,2.8-6.6,0.7-9.8c-3.5-5.2-7.3-10.1-11.2-15
		c-1.4-1.7-2.1-3.8-3.1-5.9C531.6,151.8,532.3,151.8,532.7,151.4z"/>
	<path class="st0" d="M505.5,127.7c-14.7-1-23,10.1-33.8,18.1c1.4-7.7,18.1-20.9,27.6-21.6c2.1-0.3,4.5,1,7,1.7
		C505.8,126.3,505.5,127,505.5,127.7z"/>
	<path class="st0" d="M421,189.1c3.5-1.4,6.3-2.4,8.7-3.1c3.5,2.4,7,4.9,11.2,7.7c-1,0.7-3.1,2.8-4.2,2.4
		C431.5,194.3,426.6,191.9,421,189.1z"/>
	<path class="st0" d="M575.6,105.6c-0.3-6.4-1.4-12.8-3.3-19c-0.3-1.1-1.1-1.9-2-2.4c-0.1-1.8-0.3-3.6-0.4-5.3
		c0.3-0.6,0.4-1.3,0.3-2.1c-0.9-8-2.2-16.3-7.5-22.5c-2.2-5.1-5-9.7-8.6-14c-1.7-2.1-4.3-1.6-6-0.1c-6.9-8.5-15.5-15.1-25.6-19.3
		c-0.5-0.3-0.9-0.6-1.4-0.9c-0.8-0.5-1.6-0.6-2.4-0.6c-0.4-0.1-0.8-0.3-1.2-0.4c-0.5-0.2-1-0.2-1.5-0.2c0,0,0,0,0-0.1
		c-0.6-0.7-1.2-1.1-2-1.3c-3.1-3.2-6.5-6.1-10.4-8.5c-2.4-1.5-4.9-0.3-6.1,1.7c-1.5-1.3-3-2.6-4.8-3.4C487,4.5,479.7,4.5,473.4,5
		c-6.9-1.6-14.8-2.6-17.5,5.4c0,0.1,0,0.1,0,0.2c-2.7,1.9-5.2,4.1-7.3,6c-0.9,0.5-1.7,0.9-2.6,1.5c-0.6,0.3-1,0.8-1.3,1.3
		c-5.5-2.1-11.4-3.3-17-4.3c-13.7-2.2-21.8,6-28.1,17.1c-0.2,0.3-0.3,0.7-0.4,1c-1.6,2.3-3.2,4.8-4.6,7.3c-0.6,1-0.7,2-0.6,2.9
		c-1.1,2.3-2,4.7-2.8,7.2c-1,3.5,3.4,7.5,6.6,5.1c5.8-4.4,12.8-6.9,20.2-6.1c6.3,0.7,12.4,3.6,18.3,6.3c1.6,1,3.3,1.8,5.2,2.3
		c0.8,0.2,1.5,0.2,2.2,0c4,4.8,8.7,8.9,13.9,12.2c0,0,0,0,0,0.1c-1,1.7-1.4,3.6-1.3,5.4c-0.1,0.7,0,1.4,0.4,2.1
		c0.6,1.8,1.7,3.5,3.3,4.8c0.9,0.8,2.1,1.1,3.2,1c-0.2,0.6-0.2,1.3,0.2,1.9c0.8,1.3,1.4,2.6,1.8,4c0,0.9,0,1.7,0,2.6
		c-3.1,2.4-6,4.9-8.7,7.7c0-1.6-1.7-2.8-3.2-2.4c-1.6-0.7-3.2-0.8-4.6-0.4c-2.2,0-4.4,0.5-6.3,1.7c-1.5,0.3-2.8,1.2-3.5,2.6
		c-0.1,0.1-0.2,0.2-0.3,0.2c-1.2,1.1-1.6,2.8-1.8,4.5c-1.4,5.1-2.3,10.2-2.8,15.4c-0.1,0.6,0.1,1,0.4,1.4c-0.7,1.9-1.3,3.8-2,5.6
		c-0.8,2.1,1.4,3.4,3.2,2.9c-0.6,3.1-1.1,6.2-1.3,9.4c-0.3,1-0.5,2-0.7,3c-0.1,0.6-0.1,1.1,0.1,1.5c-0.1,0.1-0.2,0.3-0.3,0.5
		l-8.4,15.3c-2.6,4.8-4.9,10.7-8.7,14.7c-1.8,1.9,0,4.6,2.4,4.2c4.4-0.8,8.9-1.7,13.4-0.4c2.3,0.6,4.5,1.9,6.9,1.9
		c0.1,0.4,0.3,0.7,0.4,1.1c0.6,2.4,4.2,2.4,4.8,0c0.6-2.1,1.1-4.3,1.7-6.4c1.6-3.3,2.4-7.5,3.4-10c0.3-0.7,0.1-1.4-0.3-1.9
		c2.7-10.3,5.3-20.6,8-30.8c0.2-0.7,0.1-1.3-0.2-1.8c0.3-1,0.6-1.9,1-2.9c0.3-0.9,0.1-1.6-0.3-2.1c0.2-0.4,0.4-0.9,0.6-1.4
		c2.4-3.2,4.1-6.6,5.4-10.4c0.3-0.1,0.6-0.3,0.9-0.5c3.4-3,6.4-6.3,9.3-9.8c0.6,0,1.3-0.1,1.9-0.7c4.2-3.4,7.9-7.1,11.3-11.3
		c0,0,0,0,0,0c0.2-0.1,0.3-0.3,0.5-0.4c0,0,0,0,0,0c0.1-0.1,0.2-0.2,0.3-0.3c0.6-0.5,1.2-1,1.7-1.5c0.1-0.1,0.2-0.1,0.2-0.2
		c0.6,0.3,1.4,0.3,2.2-0.2c1.2-0.7,2.3-1.5,3.4-2.3c1.2-0.8,2.5-1.6,3.8-2.3c1.7,0.5,3.5,0.5,5.4,0.1c1.1,0.4,2.3,0.4,3.6-0.4
		c1.6-0.9,3.3-1.8,4.9-2.7c2.4-1.1,4.9-2.1,7.4-2.7c2.1-0.4,4.2-0.8,6.3-1.2c0.7-0.1,1.3-0.4,1.8-0.8c2.6,1.1,5.4,1.7,8.3,1.9
		c0.5,0.3,1,0.5,1.6,0.8c2.9,6.2,6.3,12.2,10.1,17.9c0.9,1.4,2.2,2,3.4,2.1c0.2,0.4,0.4,0.8,0.7,1.2c-2,1.1-3.2,3.4-1.6,5.9
		c0.7,1.1,1.4,2.2,2.1,3.2c2.2,3.8,3.8,7.8,4.9,12.2c1.2,4.9,2.5,9.2,5.6,13.2c2.1,2.6,6,1.2,7.3-1.4c2.5,0.5,5.5-1.7,5.8-4.5
		C577.1,122.2,576.6,113.9,575.6,105.6z"/>
</g>
</svg>
