<?xml version="1.0" encoding="utf-8"?>
<!-- Generator: Adobe Illustrator 19.2.0, SVG Export Plug-In . SVG Version: 6.00 Build 0)  -->
<svg version="1.1" id="Layer_1" xmlns="http://www.w3.org/2000/svg" xmlns:xlink="http://www.w3.org/1999/xlink" x="0px" y="0px"
	 viewBox="0 0 126.4 158.9" style="enable-background:new 0 0 126.4 158.9;" xml:space="preserve">
<style type="text/css">
	.st0{fill:#03A9F4;}
</style>
<g id="dandruff-man2">
	<path class="st0" d="M23.4,55.4c-1,0.3-1.6,1.3-1.3,2.4c0,0.1,0.2,0.2,0.4,0.3c-0.3,0.5-0.6,1-0.8,1.6c0,0-0.1-0.1-0.1-0.1
		c-1.7-0.2-1.8,0.7-1.8,1.5c-0.1,0.5,0.1,0.8,0.4,1.1c-0.2,0.4-0.4,0.8-0.6,1.2c-0.1,0-0.2-0.1-0.3-0.1c-0.4-0.1-1.2,0.7-1.2,1.2
		c0,0.6,0,1.7,1,1.6c0.6-0.1,1.1-0.8,2-1.4c-0.3-0.2-0.5-0.4-0.7-0.6c0.2-0.6,0.5-1.1,0.8-1.6c0.6-0.1,1.4-0.8,1.4-1.3
		c0-0.2-0.1-0.4-0.3-0.7c0.1-0.1,0.2-0.1,0.2-0.3c0.2-0.6,0.5-1.1,0.8-1.6c0,0,0,0,0.1,0c0.2,0.1,0.4,0.1,0.9,0.2
		c0.2-0.9,0.4-1.7,0.4-2.6C24.7,55.4,24.1,55.2,23.4,55.4z"/>
	<path class="st0" d="M119.8,125.5c2.2,1.1,4.2,2,6,3c0.1-0.1,0.2-0.3,0.3-0.4c-1-2.1-3.8-1.7-5.2-3.4c0.8-0.5,1.6-1,2.3-1.6
		c1-0.8,1.7,0.7,3,0.2c-0.6-0.6-1-1.1-1.6-1.7c-0.3-0.8,1.7-1.2,0.7-2.5c-0.3,0.4-0.5,0.8-0.8,1.1c-1,1-2,2.1-3.1,3
		c-2.4,1.9-5,3.5-7.2,5.5c-2.1,1.9-3.7,4.3-4.8,7c-0.7,1.6-0.9,3.4-0.5,5.1c0.2,1,0.7,2.1,1.1,3.1c0,0.1-0.1,0.1-0.2,0.2
		c-3.8-4.8-7.6-9.6-11.4-14.3c0.2-0.7,0.4-1.3,0.6-2.1c-0.6,0.4-0.9,0.7-1.3,1c-1.3-2.3-0.8-4.5,1.3-5.8c2-1.3,4.4-1.6,6.7-2
		c3.1-0.5,6.2-1,9.2-1.6c2.9-0.6,5.8-1.1,8.6-2c3-0.9,2.7-0.3,2.5-2.6c-0.4,0.1-0.7,0.2-1,0.4c-1.9,1.2-3.9,0.9-5.6-0.5
		c-0.9-0.7-1.5-1.9-2.9-1.7c-1.3,0.1-2.7,0.4-4,0.6c-0.6,0.1-1.3,0.1-1.8,0.4c-1.6,0.9-3.5,0.4-4.6-1c-0.8-1.1-1.6-2.2-2.5-3.2
		c-1.1-1.1-2.3-2-3.5-2.9c-0.7-0.5-1.6-0.7-2.2-1.3c-1.6-1.4-3.3-2.9-4.1-5c-0.1-0.2-0.3-0.4-0.4-0.6c-0.3-0.8-0.7-1.6-1-2.4
		c-0.1-0.3-0.1-0.7-0.2-1c-0.7-1.9-1.4-3.9-2.1-5.8c-1.1-3-2.5-6-2.7-9.3c-0.1-1.4-0.7-2.9-1-4.3c-0.7-3-1.3-6-1.9-9
		c-0.7-3.6-1.4-7.3-2.2-10.9c-0.3-1.2-0.8-2.5-1.6-3.4c-1.8-2.1-4.5-3-6.9-4.2c-2.4-1.3-4.9-2.5-7.3-3.7c-0.6-0.3-1.4-0.6-2-0.9
		c-0.3-0.2-0.7-0.6-0.6-0.8c0.3-1,0.6-2,1.2-2.8c1.4-1.7,1.2-3.7,1-5.7c-0.1-1.4,0-2.8,0.1-4.2c0.1-1,0.5-2,0.5-3s0.2-1.6,1.3-1.9
		c1.5-0.4,1.9-1,1.8-2.6c0-0.6-0.1-1.3-0.2-1.9c0-0.5-0.1-1.1-0.2-1.6c0-0.2-0.1-0.5-0.1-0.7c-0.4-2.2-0.7-4.5-1.6-6.6
		c-2-5-5.3-8.9-10.3-11.3c-2.2-1.1-4.4-1.5-6.8-1.7c-3.9-0.3-7.7,0.3-11.2,2c-2.4,1.1-4.7,2.7-6.9,4.1c-0.9,0.6-1.8,1.2-2.3,2.1
		c-0.9,1.5-2,1.9-3.6,1.9c-0.8,0-1.7-0.1-2.4,0.2c-2.6,1.3-3.8,3.5-3.8,6.4c0,3.8-0.1,7.7,0,11.6c0,0.8,0.2,1.8,0.6,2.5
		c1.3,2.2,1.9,4.5,1.9,7c0,0.8-0.3,2-1.1,1.9c-1.9-0.2-3.5,1-5.2,1.4c-2.3,0.6-4.4,1.9-6.9,2.2c-2.3,0.3-4.6,0.9-6.2,3
		c-1,1.3-2.1,2.7-2.9,4.1C0.2,51.2,0.2,52.2,0,53c0.1,0,0.2,0.1,0.5,0.1c0.3-0.3,0.6-0.6,0.9-1c1.4-1.9,2.8-3.8,4.3-5.7
		c0.4-0.5,1.2-0.8,1.8-1c3.2-0.9,6.5-1.5,9.6-2.9c1.7-0.7,3.4-1.9,5.6-1.2c-0.3,0.7-0.6,1.3-1,1.9c-1.4,2-2.9,3.8-4.1,5.8
		c-2.4,3.9-4.6,7.9-7,11.9c-0.9,1.5-2.1,2.9-2.9,4.4C7,66.6,5.9,68,6.6,69.7c0.8-1.2,1.3-2.5,1.9-3.7c0.4-0.8,0.8-1.4,1.3-2.1
		c0.7-1,1.5-2,2.1-3.1c0.4-0.7,0.5-1.7,1.1-2.3c1.5-1.7,2.3-3.8,3.5-5.6c1.7-2.8,3.5-5.6,5.3-8.6c0.7,1,1.1,1.9,1.7,2.6
		c1.5,1.9,3.2,3.6,5.2,4.8c0,0.1,0,0.3,0.1,0.5c-3.7,7-7.6,13.8-11.3,20.8c0.1,0.1,0.2,0.1,0.3,0.2c3.8-6.9,7.6-13.9,11.4-20.7
		c0.2,0,0.4,0,0.5-0.2c1.5,0.8,3.1,1.3,4.8,1.6c0.8,0.1,1.1,0.3,0.8,1.1c-0.2,0.3-0.3,0.7-0.4,1c-1.1,2.6-2.3,5.1-3.3,7.8
		c-1.1,3.1-2,6.3-3.1,9.4c-0.5,1.4-1.3,2.7-1.9,4.1c-1.2,2.9-2.4,5.8-3.6,8.7c-1.9,4.6-5.2,7.9-9.1,10.8c-0.7,0.5-1.3,1.1-2,1.6
		c0,0.1,0.1,0.2,0.1,0.3c0.5-0.1,1.1-0.1,1.5-0.4c3.2-2.5,6.7-4.7,8.8-8.4c0.1,1.4,0.5,2.9-0.5,4.2c-0.8,1-1.6,2-2.8,2.8
		c-0.8,0.9-1.7,1.7-2.6,2.5c-2.3,2-5.2,2.2-8,1.9c-1.5-0.2-2.8-0.9-3.2-2.6c-0.1-0.5-0.5-1-0.7-1.5c-0.1,0-0.2,0.1-0.3,0.1
		c-0.1,0.2-0.3,0.5-0.2,0.7c0.4,1,0.7,2.1,1.2,3c0.5,0.9,1.2,1.6,2.4,1.6c1.4,0,2.9,0.2,4.4,0.3c0,0.5,0,1-0.1,1.4
		c-1,3.3-1.9,6.6-3,9.9c-0.3,0.9-0.8,1.8-1.5,2.4c-1.2,1-1.6,2.1-1.2,3.8c6.9-0.7,13.5,2,20.4,1.7c-0.2-0.3-0.5-0.6-0.9-0.7
		c-1.6-0.3-3.3-0.5-4.9-0.7c-4.1-0.5-8.1-0.9-12.2-1.4c-0.4,0-0.8-0.1-1.5-0.2c0.4-0.5,0.7-1,1-1.5c1.5-2.1,3-4.1,3.7-6.6
		c0.6-2.2,1-4.4,1.6-6.6c0.3-1,0.1-2.1,1.8-2.7c2.9-1.1,5-3.6,7.1-5.9c0.3-0.4,0.5-0.9,0.8-1.4c1.1-1.9,0.5-4.1,0.6-6.1
		c0-0.5,0.1-1.1,0.3-1.6c1.7-4,3.5-7.9,5.2-11.9c0.9-2,1.5-4.1,2.3-6.2c0.8,1.3,1.6,2.5,2.3,3.8c0.9,1.5,1.5,3.3,2.5,4.8
		c1.5,2.5,3.3,4.8,5,7.2c2.7,3.8,5.5,7.4,8.1,11.3c1.5,2.3,3.2,4.8,3.8,7.4c0.6,2.6,0.5,5.3,0.4,8c-0.3-0.1-0.7-0.1-1-0.1
		c0-0.3-0.1-0.6-0.3-0.8c0.2-0.6-0.5-1.3-1.1-1.3c-0.8,0-1.9,0.5-2.3,1.2c-0.2,0.4-0.2,0.8,0.1,1.2c0,1.1,0.8,2,2.2,2.1
		c0.7,0.1,1.3-0.4,1.4-1.3c0.3,0,0.6,0,0.9,0.1c0,0,0,0,0.1,0c0,0.1,0,0.2,0,0.3c-0.1,3.1-0.6,6.2-1,9.3c-0.2,1.2-0.3,2.3-0.4,3.5
		c-0.1,0.6-0.3,1.2-0.4,1.8c-0.1,1.1-0.2,2.3-0.4,3.4c-0.1,0.7-0.6,1-1.3,0.5c0.2-0.6,0.4-1.1,0.5-1.7c0.1-0.2,0.1-0.7,0-0.7
		c-0.8-0.3-1.7-0.9-2.3-0.6c-0.7,0.3-1.6,1.4-1.5,2c0.1,1.2-0.4,1.3-1.3,1.3H9.7c-1,0-1.9,0-2.8,0.1c-0.3,0-0.6,0.3-0.9,0.5
		c0.1,0.2,0.1,0.3,0.2,0.5h39.6c3.4,0,6.7,0.3,10,0.3c3,0,5.9-0.1,8.9-0.1c1.4,0.1,2.7,0.4,4.1,0.4c2.5-0.1,5-0.3,7.4-0.5v0.4
		c-7.6,0.8-15.2,1.6-22.9,2.4c0.2,0.5,0.2,0.9,0.4,1.2c0.6,1.1,1.2,2,2.2,2.9c2.8,2.4,5.3,5.1,8.3,7.3c1.6,1.2,2.9,2.9,4.4,4.2
		c3.1,2.7,6.4,5.3,9.6,7.8c0.4,0.3,1.2,0.6,1.7,0.5c2.4-0.3,4.7-0.7,7-1.1c4.2-0.6,8.5-1,12.6-1.9c6.2-1.3,12.4-2.9,18.6-4.5
		c2.4-0.6,4.8-1.4,7.2-2.1c0.7-0.2,0.9-0.6,0.6-1.3c-1.5,0.4-3.1,0.8-4.6,1.2c-5.1,1.4-10.2,2.9-15.3,4.1c-4.8,1.1-9.7,1.8-14.5,2.6
		c-2.6,0.4-5.2,0.6-7.7,1.1s-4.8,0.7-6.9-1.2c-0.6-0.6-1.4-1.1-2.1-1.7c-1-0.8-2-1.6-3.2-2.6c0.6-0.2,0.9-0.4,1.2-0.4
		c4-0.3,8-0.3,12-0.9c6-0.9,12.1-2.2,18.1-3.3c1.9-0.3,3.9-0.7,5.8-1c0.3-0.1,0.8-0.1,1,0.1c0.6,0.5,1,0,1.1-0.4
		c0.2-0.6,0.2-1.3,0.1-1.9c-0.2-1.3-0.7-2.5-0.9-3.8c-0.5-2.8,0.9-4.9,2.2-7.1c0.1-0.3,0.6-0.5,0.8-0.5c1.1,0.2,2.3,0.6,3.5,0.8
		c1.5,0.3,3,0.3,4.5-0.5c0.7-0.4,1.5-0.7,2.3-0.8s1.7,0.2,2.6,0.3c0.2-0.9,0.1-1.4-1.1-1.5c-0.9-0.1-1.6-0.6-2.4-1
		c-0.8-0.4-1.6-1-2.4-1.3C118.1,127.7,117.2,127.1,119.8,125.5z M109.7,116.1c1.7-0.4,3.3-1.3,5-1.7c1.2-0.3,2.4-0.3,3.4,0.8
		c0.6,0.6,1.4,1.1,2.2,1.7c-1.2,0.3-2.3,0.6-3.4,0.8c-0.4,0.1-0.8-0.3-1.2-0.5c-0.3-0.2-0.7-0.4-1-0.6c0.1,0.4,0.1,0.8,0.2,1.2
		c0,0.1,0.1,0.2,0.3,0.5c-3.3,0.6-6.6,1.3-9.8,1.9c-0.1-0.1-0.1-0.3-0.2-0.4C106.4,118.2,107.5,116.5,109.7,116.1z M82.1,62.3
		c0.5,1.9,0.9,3.8,1.3,5.7c0.3,1.8,0.7,3.6,1.1,5.4c0.3,1.4,0.7,2.8,0.9,4.2c0.3,1.6,0.4,3.4,0.8,5c0.5,2.1,1.2,4.1,1.8,6.1
		c0.6,2.3,2.1,4.3,2.1,6.9c0,0.9,0.9,1.8,1.3,2.7c0.3,0.6,0.5,1.2,0.7,1.7c-2.1-0.2-4.1-0.4-6.2-0.5c-0.8-0.1-1.6,0-2.4,0.2
		c-0.3,0.1-0.5,0.7-0.8,1.1c0.4,0.1,0.8,0.4,1.2,0.3c2.1-0.5,4.3-0.4,6.4,0c0.6,0.1,1.3,0.2,2,0.4c0.5,0.1,0.9,0.4,1.3,0.6
		c0,0.1-0.1,0.3-0.1,0.4c-2.3,0.3-4.6,0.5-6.7,1.2c-1.8,0.4-3.5,1.2-5.2,1.9c-0.3,0.1-0.5,0.5-0.7,0.8c0,0.1,0.1,0.2,0.2,0.3
		c0.8-0.3,1.5-0.6,2.3-0.8c3.5-1,7-1.9,10.7-1.5c0.7,0,1.6,0.6,2,1.2c1,1.5,2.6,2,4,2.8c0.7,0.4,1.3,0.9,1.8,1.5
		c1.7,1.9,3,4.3,5.6,5.6c-1.4,1.6-2.7,3.1-4.1,4.6c-0.4,0.4-1,0.6-1.5,0.7c-3.4,0.7-5.4,2.9-5.7,6.4c0,0.4-0.2,0.7-0.3,1.1
		c-0.3-0.2-0.7-0.3-1-0.5c-1.7-0.9-3.3-1.8-5-2.6c-3.3-1.5-6.6-3-9.2-5.6c-1.7-1.6-2.6-3.7-2.5-6.1c0-2.7-0.1-5.3,0-8
		c0.1-2.3,0.5-4.6,0.7-6.9c0.2-1.6,0.1-3.3,0.2-5c0-1.9-0.2-3.9,0.3-5.6c0.8-2.5,1.6-5,3.6-6.9c0.5-0.4,0.5-1.3,0.7-2
		c-0.1,0-0.3-0.1-0.4-0.1c-0.1,0.1-0.2,0.2-0.3,0.3c-0.9,1.5-1.8,3.1-2.7,4.6c-0.1,0.2-0.4,0.4-0.7,0.6c0-0.3-0.2-0.6-0.2-0.9
		c0.5-4,1.3-7.9,1.6-11.9c0.3-3.1,0.1-6.3,0.1-9.4v-2.1c0.2,0,0.3-0.1,0.5-0.1C81.8,60.9,81.9,61.6,82.1,62.3z M70.5,96.5
		c-0.1-2.2-0.4-4.5-0.6-6.8c-0.1-0.7,0-1.3,0.8-1.6c1.8-0.6,3.6-1.3,5.3-2c0.6-0.2,1.6-0.3,1.1-1.3c-2.4,0.9-4.7,1.8-7.1,2.8v-3.8
		c2.8-1.3,5.7-2.7,8.6-4.1c-0.1,0.8-0.2,1.8-0.2,2.7c-0.1,2.7-0.2,5.3-0.3,8c-0.1,1.9-0.3,3.8-0.4,5.7c-0.3,4.1-0.7,8.3-0.9,12.4
		c-0.2,3.1-0.2,6.2-0.3,9.3c-0.1,0.8-0.2,1.6-0.3,2.4c-0.2,0-0.3,0.1-0.5,0.1c-0.3-0.7-0.6-1.5-1-2.3c-1.2-2.7-2.4-5.3-3.6-7.9
		c-0.4-0.8-0.7-1.7-0.7-2.5C70.4,103.9,70.6,100.2,70.5,96.5z M77.6,120.4c0.2-0.6,0.3-1.3,0.6-2.2c1.3,2,2.5,3.4,4.3,4.3
		c3.4,1.7,6.7,3.4,10,5.2c1.3,0.7,2.5,1.5,3.7,2.6c-2.5,0.2-5,0.5-7.5,0.7c-1.5,0.1-2.9,0.1-4.4,0.2c-0.9,0.1-1.5-0.3-1.9-1
		c-1.3-1.9-2.6-3.8-3.8-5.7c0-0.1-0.1-0.3-0.2-0.4C76.7,123.1,77.1,121.8,77.6,120.4z M70.5,49.2c2.6,1.3,5.2,2.6,7.8,4
		c0.7,0.4,1,1.5,1.7,1.9c1.5,1,1.1,2.6,1.5,3.9c0,0.2-0.1,0.5-0.1,0.8c-1.2-0.5-1.3,0.2-1.3,1.1c0,2.2,0.1,4.4,0,6.5
		c-0.3,3.3-0.7,6.6-1,9.9c-0.2,1.3-1.1,2-2.1,2.5c-2.1,0.9-4.2,1.8-6.3,2.6c-0.2,0-0.7-0.3-0.8-0.5c-0.1-0.4,0-0.9,0-1.3
		c0-1.1,0.1-2.2,0.2-3.3c0.2-3.4,0.4-6.7,0.5-10.1v-3.6c0.1-2.1,0.3-4.2,0.3-6.3c0-0.4-0.5-0.9-0.9-1.1c-1-0.6-2.1-1-3.1-1.5
		c-0.7-0.3-0.9-0.7-0.5-1.5c1-1.9,0.9-2.4-0.6-3.9c-1.1-1.2-2.2-2.3-3.3-3.4c-0.1-0.2-0.2-0.5-0.3-0.9
		C65.1,46.4,67.8,47.8,70.5,49.2z M65.4,52.8c0,0.1-0.9,0-1.3-0.1c-0.4-0.1-0.7-0.4-1.1-0.6c-0.7-0.4-1.9-0.9-1.9-1.4
		c0-1.3,0.6-2.5,1-4c1.4,1.6,2.6,2.9,3.6,4.3C66,51.3,65.6,52.2,65.4,52.8z M63.8,41c-0.6,0.9-0.9,2.1-1.3,3.2h-0.4
		c-0.9-2.2-2.7-4.1-2.3-6.8c0.1-0.8,0.2-1.3,1.1-1c0.3,0,0.6,0,0.8-0.1c1-0.4,2-0.8,3.1-1.3C65.1,37.3,65.2,39.2,63.8,41z
		 M60.7,35.8c0.8-1.6,2.7-1.8,3.8-3c0.5,1.2,0,1.7-0.9,1.9C62.7,35.1,61.8,35.4,60.7,35.8z M42.9,32.8c1.3,0,1.9,0.8,2.6,1.6
		c0.3,0.3,0.7,0.6,1.2,1.1c0.2-1.2,0.3-2,0.4-2.9c0.2-0.1,0.3-0.2,0.5-0.4c0.7,0,1.4,0,2.1,0.2c1.9,0.4,3.8,0.1,5.7-0.6
		c1-0.4,2.1-0.6,3.2-0.8c1.9-0.4,3.2-1.9,4.5-3.1c0.4-0.4,0.3-1.5,0.4-2.2c0.2,0,0.3,0.1,0.4,0.1c0.4,0.3,0.8,0.6,1.2,0.8
		c0.5,0.8,0.2,1.9,0,2.9c-0.1,1.7-1.2,2.8-2.4,3.8c-1.1,0.9-2.1,1.8-3.1,2.8c-1,1.1-0.9,2.5-0.4,3.8c0.6,1.7,1.4,3.2,2.1,4.8
		c0.1,0.3,0.3,0.8,0.2,1.2c-0.6,2.1-0.7,2.2-3.5,1.2c-0.5-0.2-1.2-0.3-1.7-0.6c-0.4-0.2-0.7-0.7-1-1c0.3-0.2,0.6-0.5,0.9-0.8
		c-0.7-0.7-1.4-0.1-2.1,0.2c0.9,1,1.2,2.5,3,2.3c0.7-0.1,1.4,0.6,2.1,1.2h-9c0.1-0.3,0.1-0.6,0.1-0.9c-0.2-0.1-0.3-0.3-0.5-0.4
		c0,0.3-0.1,0.5-0.1,0.8c0.1,0.4,0.2,1,0.4,1.1c1.6,0.7,3.4,1.3,5,2c1.4,0.6,4.1-0.7,4.9-2.2c0.1-0.1,0.3-0.3,0.5-0.4
		c0.1,0.2,0.2,0.5,0.2,0.7c-0.4,2.4-2.8,4.1-5,4.2c-3.4,0.1-5.9-1.5-8.3-3.5c-1.3-1.1-2.5-2.3-3.8-3.4c1,2.1,2.9,3.4,4.7,4.9
		c-0.1,0.1-0.1,0.2-0.2,0.3c-0.8-0.5-1.7-1-2.5-1.5c-1.6-1-3.2-2.2-4.9-3.2c-2-1.2-3-3.2-3.3-5.3c-0.2-1.4,0.4-2.9,0.7-4.3
		c0.3-1.3,0.6-2.6,0.9-3.9c0.1-0.3,0.3-0.6,0.5-0.6C40.6,32.8,41.8,32.9,42.9,32.8z M58.8,49c-0.9,1.4-2.7,1.9-5.9,0H58.8z
		 M44.4,59.3c0.4-0.6,0.9-1.1,1.4-1.7c1.2,1.8,2.2,3.3,3.1,4.8c0.2,0.2,0.2,0.6,0.1,0.8c-0.6,1.8-1.2,3.7-1.8,5.6
		c-0.2,0.8-0.3,1.7-0.5,2.5h-0.4c-0.3-0.8-0.4-1.7-0.7-2.5c-0.6-1.6-1.2-3.3-2-4.8C42.6,62.2,43.4,60.7,44.4,59.3z M42.4,60.3
		c-1.2-3-2.2-5.7-3.3-8.5c-1.2-3-2.3-6-3.4-9c-0.1-0.4,0.3-1,0.4-1.5c0.1,0.1,0.3,0.1,0.4,0.1c0.2,0.4,0.4,0.9,0.6,1.4
		c0.8,3.3,3.5,4.8,6.1,6.4c1.7,1.1,3.3,2.2,5.2,3.4C46.4,55.2,44.4,57.7,42.4,60.3z M47.9,59.3c-0.1-0.1-0.1-0.2-0.2-0.3
		c-1.4-2-1.4-2,0.1-4c0.3-0.4,0.6-0.8,0.8-1.2c0.2-0.4,0.4-0.8,0.6-1.4c1,0.4,2.1,0.7,2.9,1.3c2.1,1.6,2.6,3.8,2,6.3
		c-0.5,2-0.5,2-2.7,1.9C49.6,61.8,49.1,60.1,47.9,59.3z M54,54c0.9-0.1,1.7-0.1,2.7-0.2c-0.3,1.5-0.5,2.9-0.8,4.4
		C55.3,56.9,54.7,55.5,54,54z M22.5,30.6c-0.4-1.1-0.7-2.4-0.8-3.6c-0.1-2.6,0-5.3,0-8c0-1.5,0.1-2.9,0.2-4.4
		c0.2-2.1,2.8-3.6,5.2-3.1c-0.8,2.6-2.5,5-2.3,7.9c0.1,0.1,0.2,0.1,0.3,0.2c0.3-0.4,0.6-0.8,0.8-1.2c0.7-2,1.3-3.9,2-5.8
		c0.7-1.7,2-2.5,3.8-2.1c1.3,0.3,2.6,0.9,3.9,1.4v0.4c-0.6,0-1.3-0.1-1.9,0c-1.6,0.3-2.8,1.2-3.5,2.7c-0.4,1.1-0.9,2.2-1.3,3.3
		c-0.1,0.3,0.1,0.6,0.2,0.9c0.2-0.1,0.6-0.3,0.7-0.5c0.6-1.2,1-2.5,1.7-3.6c1.3-2.1,4.6-2.5,6.3-0.8c0.5,0.4,1,0.8,1.5,1.5
		c-0.7-0.2-1.5-0.3-2.2-0.6c-0.7-0.3-1.3-0.2-1.7,0.3c-0.9,1.1-1.7,2.4-2.4,3.6c-0.2,0.2,0.1,0.6,0.1,1c0.3-0.3,0.6-0.5,0.8-0.7
		c0.1-0.1,0.2-0.3,0.3-0.5c1.6-3,2.4-3.2,5.4-2.1c0.3,0.2,0.6,0.5,0.8,0.8c0.4,0.6,0.7,1.3,0.9,2c0,0.1,0,0.2,0,0.4
		c-0.1,0.2-0.2,0.3-0.3,0.5c-0.2,0.1-0.5,0.2-0.8,0.2c-0.2-0.2-0.4-0.3-0.7-0.4c-0.1-0.1-0.2-0.3-0.2-0.5c-0.1-0.3-0.2-0.8-0.3-1.2
		c-1.8,1.1-2.2,2.6-2.1,4.5c0.2,2.8-0.1,5.7,0.6,8.6c0.4,1.4-0.4,3.1-0.6,4.7c-0.2,1.9-1.2,3.4-2.3,4.9c-1.2,1.7-1.9,3.9-2.9,6
		c-2-0.2-3.9-1.5-5.6-2.9c-0.7-0.6-1.5-1.2-2.1-1.9c-0.3-0.3-0.7-1.1-0.5-1.4C25.4,37.3,23.9,34,22.5,30.6z M33.9,52
		c-0.1,0.2-0.8,0.4-1.1,0.3c-2.9-1-5.5-2.4-7.4-4.9c-0.9-1.1-1.6-2.2-2.4-3.3c-0.2-0.3-0.3-0.7-0.2-1.2c3.4,3.1,6.9,5.8,11.8,6.4
		C34.3,50.3,34.1,51.2,33.9,52z M42.9,84.1c-0.3-0.4-0.6-0.8-0.9-1.2c-3.1-3.5-5.3-7.6-7.7-11.6c-0.9-1.6-1.7-3.2-2.3-4.9
		c-0.3-0.8,0.1-1.9,0.4-2.7c1.2-3,2.4-6,3.6-9c0.2-0.3,0.1-1-0.2-1.3c-1-0.9-1-1.9-0.4-3.1c0.4-0.7-0.2-1.9-0.9-2.2
		c-1.1-0.5-1.5-1.6-0.9-2.7c0.3-0.5,0.8-1,1.1-1.4c7.6,17,13.5,34.5,16.5,52.4C48.7,92.5,45.8,88.3,42.9,84.1z M60.9,122.6
		c0,0.3-0.2,0.5-0.2,0.8c-0.1,1.4-0.2,2.8-0.3,4.2c0,0.7,0.2,1.4,0,2.1c-0.1,0.4-0.6,1.1-1,1.1c-2.1,0.1-4.2,0-6.3,0
		c-0.2,0-0.5-0.1-0.7-0.1c0.5-4.2,1.1-8.3,1.7-12.4c0.2-1.9,0.5-3.8,0.7-5.7c0-0.9-0.2-1.9-0.2-2.9c0-1.9,0.1-3.9,0.1-5.8
		c0-0.6-0.2-1.1-0.4-1.7c-0.8-2.9-1.6-5.9-2.4-8.9c-0.7-2.5-1.4-5.1-2-7.6c-0.4-2-0.8-4-1.2-5.9c-0.2-1.1-0.6-2.3-1-3.4
		c-0.8-2.4,0-4.6,0.6-6.9c0.4-1.6,0.9-3.1,1.2-4.7c0.3-1.6,0.8-2,2.4-1.8c0.6,0.1,1.2,0,1.9,0c1.9,2.3,3.1,5,2.9,8.3
		c-0.1,1.5,0.3,3.1,0.5,4.6c0.4,3.2,0.7,6.3,1,9.5c0.2,2.2,0.2,4.5,0.4,6.7c0.2,2.1,0.6,4.3,0.8,6.4c0.1,1.6,0.1,3.3,0.2,4.9
		c0.2,2.1,0.4,4.2,0.6,6.3c0.3,2.6,0.6,5.1,0.7,7.7C61,119.1,60.9,120.9,60.9,122.6z M69.9,131.3c-2.4-0.1-4.8-0.2-7.2-0.3
		c-0.9-0.1-1.4-0.6-1.3-1.4c0.2-2.4,0.5-4.8,0.6-7.2c0.1-2.3,0-4.7-0.1-7c-0.1-1.9-0.4-3.8-0.5-5.7c-0.2-3.6-0.3-7.2-0.6-10.8
		c-0.4-3.8-0.9-7.6-1.3-11.4c-0.3-3-0.4-6-0.7-9c-0.4-3.6-0.7-7.3-1.3-10.9c-0.1-1.2-0.9-2.3-1.6-3.3c-1-1.4-1.3-2.8-0.7-4.6
		c0.4,0.7,0.6,1.3,1,2.2c1.2-2.2,0.4-4.4,1.2-6.5c0.2,0.4,0.3,0.6,0.3,0.9c0.3,3.1,0.6,6.3,1,9.4c0.4,3.1,1.1,6.2,1.6,9.3
		c0.3,1.9,0.4,3.9,0.7,5.8c0.4,2.4,0.9,4.7,1.3,7.1c0.5,2.9,0.9,5.8,1.4,8.7c1,5.9,1.9,11.7,2.9,17.6c0.4,2.5,1,5,1.6,7.5
		c0.3,1.3,1.1,2.4,1.5,3.6c0.5,1.7,0.8,3.4,1.1,5.1C70.9,131,70.6,131.3,69.9,131.3z M73.6,131.3c-1.3,0.1-1.9-0.2-2.3-1.7
		c-0.8-2.9-1.6-5.8-2.2-8.7c-0.8-4.4-1.5-9-2.3-13.5c-0.8-4.5-1.5-9-2.3-13.5c-0.2-1.6-0.4-3.3-0.7-4.9c-0.8-5.6-1.7-11.3-2.6-16.9
		c-0.5-3.6-1.2-7.2-1.8-10.8c-0.4-2.5-0.8-5-1.2-7.5c0-0.2,0.1-0.6,0.3-0.7c0.6-0.5,1.3-0.9,1.9-1.3c3.1,1.8,6,3.5,8.6,5.4
		c0.3,0.2,0.6,0.7,0.6,1c0,1-0.1,2-0.2,3c-0.3-0.1-0.6-0.3-0.8-0.5c-0.1-0.1-0.3-0.2-0.4-0.1c0-0.7-0.5-1.4-1.3-1.4
		c-0.2,0-0.4,0.1-0.6,0.2c0,0,0,0-0.1,0c-0.2-0.1-0.5,0-0.6,0.2c-0.1,0.1-0.1,0.2-0.1,0.3c-0.1,0-0.1,0.1-0.2,0.1
		c0.1,0,0.1,0.1,0.2,0.1c0,0.3,0.1,0.7,0.3,0.9c0,0,0,0.1,0.1,0.1c0.1,0.1,0.2,0.2,0.3,0.3c0,0,0,0,0,0c0.1,0.1,0.2,0.2,0.4,0.2
		c0.4,0.2,0.9,0.3,1.3-0.1c0.1,0,0.1-0.1,0.1-0.2c0,0,0,0.1,0.1,0.1c0.4,0.4,0.8,0.7,1.3,0.8c0,0,0.1,0,0.1,0
		c-0.1,1-0.1,2.1-0.2,3.1C69,70.6,68.8,75.8,68.7,81c-0.1,3.5-0.6,6.9-0.1,10.3c0.8,5.7,0.5,11.3,0.7,17c0.1,2.1,1.3,3.7,2.1,5.5
		c1.2,2.9,2.4,5.8,3.6,8.8c0.4,1,0.7,2,1.9,2.3c0.1,0,0.2,0.1,0.3,0.2c1.1,1.5,2.2,3.1,3.2,4.7c0.5,0.8,0.1,1.2-0.7,1.3
		c-1,0.1-1.9,0-2.8,0C75.8,131.2,74.7,131.2,73.6,131.3z M108.5,144.7c-4.6,1-9.2,2.2-13.8,2.9c-6.6,1.1-13.3,1.8-19.9,2.6
		c-0.4,0-0.9,0-1.4,0.1c-2.2,0.3-3.9-0.1-5.5-2c-1.5-1.9-3.6-3.2-5.4-4.9c-2.6-2.5-5.6-4.5-7.9-7.7c1.6-0.2,3-0.2,4.2-0.3
		c2.5-0.3,4.9-0.6,7.3-0.9c1.3-0.1,2.5-0.2,3.7-0.3c2.3-0.3,4.7-0.6,7.1-0.9c0.6-0.1,1.3,0,2-0.1c1.7-0.2,3.4-0.3,5.1-0.5
		c0.7,0,1.5-0.2,2.2-0.2c2.9-0.1,5.8-0.1,8.7-0.3c2.8-0.2,4.9,1.1,6.5,3c2.5,3.1,4.9,6.3,7.3,9.4
		C108.7,144.6,108.6,144.7,108.5,144.7z M119.3,129c0.6,0.4,1.2,0.7,1.8,1c-0.9,1.6-2,2.8-4.1,2.1c-0.8-0.3-1.7-0.2-2.6-0.3
		c-0.9-0.1-1.1-0.5-0.5-1.2c0.3-0.4,0.6-0.9,1-1.2c0.7-0.6,1.4-1.5,2.2-1.6C117.8,127.7,118.6,128.6,119.3,129z"/>
	<path class="st0" d="M54.4,37.9c-0.1,0.1-0.2,0.2-0.3,0.3c-0.6-0.6-1.3-1-2.1-1.2c-0.1,0-0.1-0.1-0.2-0.1c-0.1,0-0.2,0-0.3-0.1
		c-0.1,0-0.2,0-0.2,0c-1.8-0.3-4.3-0.1-4.9,0.8h4.6c0.1,0.1,0.1,0.1,0.3,0.2c0.8,0.1,1.5,0.4,2.1,1c-1.8,1.3-3.6,2-5.6,0.2
		c-0.2,0.6,0.4,1.5,1.2,1.7c1.2,0.3,3.8-0.1,4.9-1.6c0.3,0,0.6-0.4,0.4-0.7C54.3,38.2,54.4,38.1,54.4,37.9z"/>
</g>
</svg>
