<?xml version="1.0" encoding="utf-8"?>
<!-- Generator: Adobe Illustrator 19.1.0, SVG Export Plug-In . SVG Version: 6.00 Build 0)  -->
<svg version="1.1" id="Layer_1" xmlns="http://www.w3.org/2000/svg" xmlns:xlink="http://www.w3.org/1999/xlink" x="0px" y="0px"
	 viewBox="0 0 120 129.9" style="enable-background:new 0 0 120 129.9;" xml:space="preserve">
<style type="text/css">
	.st0{fill:#009688;}
</style>
<g id="hairloss-male">
	<path class="st0" d="M97.2,76.9c-1,2-1,4.2-1.1,6.5c-0.2,6.3-1.5,12.6-3.7,18.5c-0.8,2.2,1.8,3.9,4,4.8c5.9,2.2,11.8,4.4,17.7,6.6
		c2.6,1,5.5,2.4,5.9,5.1c-9.7-3.8-19.4-7.5-29.1-11.3c-3.7,5.2-7.7,10.1-12,14.8c-3.2,3.4-6.8,6.9-11.4,7.7c-5.6,1-11-2.1-15.6-5.4
		c-4.9-3.6-9.6-7.5-13.2-12.4c-0.7-0.9-2.1-0.5-3.1,0c-11.5,6.1-23,12.2-34.5,18.2c-0.8,0-1.2-1-1-1.7c0.3-0.7,1-1.2,1.7-1.5
		c11.3-6.5,22.9-12.4,34.8-17.9c-3.2-7.3-5.7-15-7.2-22.9c-0.6-3.2-1.3-6.8-4-8.8c-3.3-2.5-2.4-7.6-3.8-11.5
		c-1.3-3.4-4.5-6.3-3.8-9.9c0.5-2.5,0-5.1-0.5-7.6c-1.4-7.9-1.2-16.1,1.3-23.7C21.1,16.8,26.1,9.9,33,5.8c3.7-2.2,7.8-3.6,12-4.5
		c12-2.6,25-1.4,35.7,4.7c10.7,6.1,18.6,17.2,19.7,29.4c0.5,5.7-0.3,11.9,2.6,16.8c1,1.7,0.6,3.9,0.2,5.9
		C101.7,64.5,100.2,71,97.2,76.9 M93.2,64.9c-3.5-4.4-1.4-11.8-5.4-15.7c-2.4-2.3-6.7-3.3-7.1-6.6c-0.2-1.4,0.6-2.8,1.1-4.2
		c2.6-6.9-0.2-14.9-5-20.5c-2.1-2.5-5-4.8-8.3-4.8c-2.7,0-5.2,1.6-7.7,2.7c-2.5,1.1-5.7,1.7-7.8-0.1c-3.3-2.8-8.1-3.6-12.1-2.1
		s-7.1,5.4-7.6,9.6c-0.6,4.5,1.3,8.9,2.7,13.2c1.3,4.3,2,9.5-0.8,13c-1.2,1.5-2.9,2.6-3.9,4.3c-2.3,4,0.6,9.4-1.6,13.5
		c-1.4,2.7-1,5.9-0.4,8.9c1.3,7.3,2.7,14.6,5.1,21.6c2.5,7,6.1,13.7,11.6,18.8c2.5,2.4,5.3,4.3,8.2,6.3c2.9,2,6,4.1,9.5,4.4
		c6.4,0.6,11.6-4.5,15.9-9.2c2.7-2.9,5.4-5.9,7.5-9.3c6.6-10.4,7.3-23.4,7.8-35.7C95,70.2,95,67.1,93.2,64.9 M27.9,66.6
		c1-2.8,0.5-5.9,0.4-8.9c0-3,0.6-6.3,3-8c3.5-2.6,3.8-7.8,2.7-12c-1.1-4.2-3.3-8.2-3.5-12.6c-0.3-5.6,3.1-11.1,8.1-13.5
		c5-2.4,11.5-1.4,15.6,2.4c1.3,1.2,3.4,1.1,5,0.4c1.6-0.7,3-1.9,4.6-2.6c5.2-2.4,11.7,0.1,15.3,4.6c3.7,4.4,5,10.3,5.9,15.9
		c0.4,2.7,0.6,5.9-1.3,7.9c-1.1,1.2-0.3,3.2,0.9,4.2c1.3,1,2.9,1.5,4.2,2.5c2,1.5,2.8,4.1,3.2,6.6c0.4,2.5,0.5,5,1.3,7.4
		c0.4,1.1,1.6,2.3,2.4,1.5c0.3-0.2,0.3-0.6,0.4-1c1.5-7.6,2.6-15.4,2-23.1C97.5,30.6,95,22.8,90,16.9C85.8,12,80.2,8.6,74.5,5.8
		c-1.3-0.6-2.7-1.3-4-1.8c-7.2-2.6-15.1-1.7-22.7-0.8c-2.7,0.3-5.4,0.7-7.9,1.5c-3.9,1.3-7.2,3.9-10.4,6.4c-0.9,0.7-1.8,1.3-2.5,2.2
		c-0.7,0.8-1.1,1.7-1.6,2.7c-2.8,5.6-5.4,11.5-6.4,17.7c-1.4,8.9,0.6,18.4,5.7,25.9c1.5,2.3,2.4,5.1,2.4,7.8
		C27.4,67.5,27.7,67,27.9,66.6 M96.7,73.5c0.2,0,0.5,0,0.7,0c1.2-2.5,1.1-5.4,1.5-8.1c0.3-1.9,0.9-3.8,1.6-5.6
		c0.7-1.9,1.5-3.9,1-5.8c-0.1-0.4-0.3-0.8-0.7-1.1c-0.4-0.2-1-0.1-1.1,0.4c-0.7,3.2-1.4,6.5-2.2,9.7C96.9,66.4,96.1,70,96.7,73.5
		 M19.4,57.8c0.5,2.4,2.6,4.1,3.5,6.4c0.3,0.8,0.5,1.7,0.6,2.5c0.2,1.3,0.5,2.6,0.8,3.9c0.4,2.3,1.1,4.9,3.2,5.8
		c-1.1-4.3-2.2-8.6-3.3-12.9c-0.2-0.8-0.4-1.6-0.9-2.3c-1.3-1.8-2.5-3.7-3.4-5.7C19.3,56,19.2,57,19.4,57.8"/>
	<path class="st0" d="M62.1,121.9c1.1-0.3,2.3-0.2,3.3,0.2c0.4,0.1,0.8,0.4,0.8,0.9c0,0.4-0.6,0.6-1.1,0.6c-1.2,0.1-2.3,0-3.5-0.1
		C61.3,123,61.7,122.4,62.1,121.9"/>
	<path class="st0" d="M52.2,94c-1,0.2-1.8,0.9-2.7,1.3c-1.6,0.7-3.5,0.3-5.2-0.2c-0.7-0.2-1.4-0.4-2-0.7c-0.9-0.5-1.5-1.3-2.2-2.1
		c-1.1-1.4-2.2-2.7-3.2-4.1c-0.2-0.3-0.5-0.7-0.3-1c0.1-0.3,0.5-0.3,0.9-0.3c1.5,0.1,2.8,1.1,4.1,1.9c3.3,2.1,7.2,3.2,11.1,3.3
		c1.6,0,3.1,0.5,4.4,1.3c0,0.3,0.1,0.5,0.1,0.8C55.7,95.1,53.9,93.7,52.2,94"/>
	<path class="st0" d="M66.7,116.7c2.8-1,5.8-1.3,8.7-0.9c0.2,0.5-0.1,1.1-0.6,1.3c-0.5,0.2-1,0.3-1.6,0.3c-3.1,0.2-6.2,0.9-9.1,2.1
		c-0.8,0.3-1.6,0.7-2.5,0.5c-0.4-0.1-0.7-0.2-1-0.4c-2.7-1.2-5.7-1.4-8.6-1.6c-0.6,0-0.8-1.1-0.3-1.5c0.4-0.5,1.2-0.5,1.8-0.5
		c2.5,0.1,5,0.6,7.3,1.6C62.7,118.4,64.8,117.4,66.7,116.7"/>
	<path class="st0" d="M82.9,92.1c-2.7,2.2-6.6,3.4-9.7,1.8c-0.4-0.2-0.8-0.4-1.2-0.5c-0.7-0.1-1.3,0.2-1.9,0.5
		c-0.6,0.3-1.3,0.5-1.9,0.3c-0.6-0.2-1.1-1-0.7-1.5c2.7-1.6,5.9-1.8,8.9-2.8c1.5-0.5,3-1.2,4.4-1.9c1.6-0.8,3.1-1.7,4.6-2.6
		c0.7-0.5,1.5-1,2.4-0.9c0,1-0.4,1.9-0.9,2.7C85.8,89.1,84.5,90.7,82.9,92.1"/>
	<path class="st0" d="M53.3,104.4c0.3,0,0.6,0,0.8,0c0.9,1.2,0.2,2.9,0.4,4.3c0.3,1.7,1.9,2.9,3.4,3.8c1.3,0.8,2.7,1.6,4.3,1.6
		c1.1,0,2.1-0.4,3-0.9c2.2-1.1,4.3-2.8,4.8-5.3c0.1-0.7,0.1-1.3,0.4-2c0.3-0.6,0.9-1.1,1.6-0.9c0.1,1.8,0.2,3.7-0.6,5.3
		c-0.6,1.3-1.8,2.3-3,3.2c-1.6,1.1-3.4,2.1-5.3,2.7c-0.6,0.2-1.2,0.4-1.7,0.3c-0.5-0.1-0.9-0.3-1.3-0.5c-2.2-1.1-4.5-2.2-6-4.2
		C52.5,109.8,52.2,106.8,53.3,104.4"/>
</g>
</svg>
