<?xml version="1.0" encoding="utf-8"?>
<!-- Generator: Adobe Illustrator 19.1.0, SVG Export Plug-In . SVG Version: 6.00 Build 0)  -->
<svg version="1.1" id="Layer_1" xmlns="http://www.w3.org/2000/svg" xmlns:xlink="http://www.w3.org/1999/xlink" x="0px" y="0px"
	 viewBox="0 0 120 195" style="enable-background:new 0 0 120 195;" xml:space="preserve">
<style type="text/css">
	.st0{fill:#00BCD4;}
</style>
<g id="headache-lady">
	<path class="st0" d="M9.2,195c0.1-0.2,0.2-0.3,0.3-0.5c1.2-9.8,3.9-19.1,7.2-28.3c0-0.1,0-0.3-0.1-0.6c-3.3,0.3-6-1.3-8.2-3.6
		c-4.7-4.8-8.6-10.1-8.4-17.3c0.1-3.6,0.1-7.3,0.4-10.9c0.2-2,1.3-4,1.8-6c0.7-2.7,1.3-5.5,1.7-8.3c0.6-4.4,0.7-8.9,1.5-13.2
		c1.2-6.4,2.8-12.7,4.2-19c0.4-1.9,1.1-3.7,1.3-5.6c0.5-3.7,2.4-6.7,4.9-9.4c0.8-0.9,2.2-1.5,3.4-1.9c1.4-0.4,1.8-1.1,1.8-2.6
		c0.1-6.3,0.3-12.7,0.4-19c0.1-4.2-0.2-8.4,0.1-12.5c0.7-8.1,1-16.5,5.9-23.4c4.1-5.8,9.1-10.8,16.8-11.7C48.2,0.6,52.1,0.2,56,0
		c1-0.1,2.1,0.4,3,0.9c6.2,2.8,10.4,7.7,13.9,13.5c3.9,6.5,5.6,13.8,8.2,20.9c2.1,5.8,1.9,12,2.8,17.9c0.6,4,1.1,8,1.7,12
		c0.2,1.4,1,2.1,2.3,2.8c5.5,3.2,11.6,4.7,17.7,6.3c1.7,0.4,3.1,2,4.5,3.2c2.9,2.6,4.3,6.2,5.5,9.7c0.7,2.1,0.8,4.4,1,6.6
		c0.3,3.8,0.7,7.5,0.8,11.3c0.1,3.3-0.1,6.6,0,9.9c0.4,8.1,0.9,16.1,1.5,24.2c0.2,2.8,1.1,5.5,1.2,8.2c0.1,3.1-0.3,6.2-0.4,9.3
		c-0.1,1.3-0.2,2.6-0.3,4c-0.2,2.7-0.6,5.2-2.3,7.5c-0.6,0.8-0.9,1.9-1.3,2.9c-2.3,6.2-7.6,9.3-14.1,8.5c-3-0.4-5.9-0.4-9.3-0.6
		c0.3,2.5,0.7,4.8,0.8,7.1c0.2,2.9,0.1,5.9,0.2,8.9c-0.5,0-1.1,0-1.6,0c-0.5-4.8-1.1-9.6-1.5-14.4c-0.2-2-1.1-2.7-2.9-2.7
		c-1.1,0-2.2,0.2-3.4,0.2c-3.8,0.2-7.5,0.5-11.3,0.4c-3.5,0-7-0.4-10.5-0.7c-2.3-0.2-4.6-0.4-6.8-1.1c-5.8-1.8-11.5-3.8-17.2-5.7
		c-0.7-0.2-1.6-0.2-2.3-0.4c-2.7-0.9-5.5-1.6-8.1-2.8c-1.5-0.7-2.5-2.3-3.8-3.4c-0.3-0.3-1.1-0.3-1.5-0.2c-2.2,0.9-3.6,2.5-4.5,4.7
		c-3.3,8.4-4.6,17.2-6.4,26C10.8,195,10,195,9.2,195z M36.8,82c-2.1,4.3-4.1,8.1-4.1,12.6c0,8.7,0.1,17.4,0.2,26
		c0.1,3.5,0.5,7,0.6,10.5c0.1,5.4,0.1,10.9,0.1,16.3c0,0.6-0.2,1.3,0.1,1.7c1.9,2.5,4.3,4.7,7.3,5.4c4.6,1,9.2,1.7,13.9,2.2
		c4,0.4,8.1,0.5,12.1,0.3c4-0.1,8-0.5,12-1.1c3.2-0.5,6.3-1.6,9.4-2.4c2.3-0.6,3.4-2.2,3.8-4.4c0.5-2.7,1-5.4,1.3-8.2
		c0.4-4.5,0.4-9.1,0.7-13.7c0.3-4,0.6-8,1.5-11.8c1-4.2,2.6-8.3,4-12.4c0.7-2,1.6-3.9,2.4-5.8c0.5,0.5,0.6,0.8,0.5,1.1
		c-1,3.4-2,6.8-3,10.2c-0.8,2.5-2,4.9-2.6,7.4c-1.3,5.7-1.2,11.6-1.3,17.4c-0.1,5.4-0.1,10.9-2.3,16c-0.1,0.1,0.1,0.3,0.2,0.5
		c3.8-1,5.4-0.8,6.7,1.1c-2.3,0-4.6-1.1-6.4,0.6c1.8,1.5,3.5,2.9,5.3,4.3c-0.2,0.2-0.3,0.5-0.5,0.7c-0.5-0.2-1-0.3-1.4-0.6
		c-0.9-0.6-1.7-1.3-2.5-1.9c-1.3-1-2.5-1.2-3.7,0.1c-0.3,0.3-0.9,0.6-1.3,0.7c-3.3,0.8-6.5,1.7-9.8,2.3c-4.2,0.8-3.8,0.2-3.7,4.6
		c0.2,5,0.8,10,1.2,15.1c1.9-0.1,3.3-0.2,4.8-0.2c3.5-0.1,7.1-0.3,10.6-0.2c3.7,0.1,7.4,0.6,11.1,0.8c2.8,0.2,5.5-0.8,7-3
		c2.3-3.4,4-7.3,5.9-11c0.1-0.3,0.1-0.7,0.1-1c0.7-6.9,0.7-13.8-0.1-20.8c-1-8.6-1.1-17.3-1.5-26c-0.1-2.1,0-4.2-0.1-6.3
		c-0.3-5.8-0.8-11.5-1.1-17.3c-0.4-6.4-3-11.5-8.1-15.4c-1.8-1.4-4.2-1.3-5.7,0.4c-2.1,2.4-4.1,4.9-6.1,7.3
		c-1.8,2.2-2.4,4.6-1.9,7.4c0.5,2.9,0.9,5.9,1,8.8c0,3.2-0.4,6.5-0.7,9.7c-0.5,5.4-1.8,10.5-5.2,15c-1.8,2.5-4.1,3.5-6.7,4
		c-2.3,0.4-4.6,0-6.8-1.4c-2.5-1.7-3.3-4-3.5-6.8c-0.2-4.8-0.3-9.6-0.4-14.3c0-1.6,0.2-3.1,0.3-4.8c-1.9,0.1-3.7,0.3-5.8,0.4
		c3.1,6.7,4,13.5,2,20.5c-2.2,7.5-9.8,14.2-14.3,14.1c1.5-3.4,1-6.8,0-10.1c-2.1-7-4.4-13.9-6.7-20.9c-1.5-4.6-4.8-8.4-6.2-13.2
		c-0.8-2.9-2.9-5.4-2.1-8.7C37.4,83.7,37.1,83.1,36.8,82z M34.1,33.9c-0.3,0-0.5-0.1-0.8-0.1c-0.8,1.5-1.7,2.9-2.2,4.5
		c-2,5.9-3.9,11.9-7.3,17.2c-0.2,0.4-0.3,0.9-0.3,1.3c0.1,2.7,0.2,5.3,0.3,8c0.2,3.8,0.8,7.5-0.4,11.4c-3,9.7-5.7,19.4-8.2,29.3
		c-1.4,5.4-2.2,10.9-4.7,15.9c-1.2,2.4-1,3.5,1.2,4.9c2.6,1.6,5.2,3.3,8.1,4.2c3.5,1.1,7.4,2.1,10.6-1c0.6-0.6,1.1-1.6,1.1-2.4
		c-0.2-8-0.7-15.9-0.9-23.9c-0.2-7.9,0.9-15.5,4.9-22.6c1.5-2.6,2.4-5.5,1.8-8.7c-0.6-3.3-1.6-6.7-0.7-10.2c0.1-0.4-0.1-1.1-0.3-1.5
		c-0.5-0.7-1.3-1.3-1.9-1.9c-0.4,0.9-1.3,1.8-1.3,2.6c0.4,4.1,0.8,8.3,1.6,12.4c0.5,2.5-0.1,4.5-1.1,6.6c-0.7,1.5-1.1,3.2-1.7,4.8
		c-0.2,0.5-0.6,0.8-0.9,1.3c-0.2-0.5-0.7-1-0.6-1.4c0.6-1.9,1.3-3.7,1.9-5.5c0.4-1.3,1.1-2.6,1-3.9c-0.1-2.5-0.5-5.1-1-7.6
		c-0.7-3.5-1.4-7-0.5-10.6c0.5-2,0.9-4.1,1.2-6.2c0.4-2.7,0.9-5.3,1.1-8C34.4,39.6,34.2,36.7,34.1,33.9z M45.1,35.6
		c0,0.3,0.1,0.6,0.1,0.8c-0.5,0.2-1,0.5-1.5,0.6c-2.1,0.3-4.3,0.5-6.4,0.9c-0.6,0.1-1.6,0.8-1.7,1.3c-0.1,2-0.3,4.1,0.4,5.9
		c1.4,3.8,3,7.7,5.1,11.2c1.6,2.7,3.8,5.4,6.4,7.3c2.6,2,5.9,3.3,8.9,4.7c4.4,2,9.7-0.9,11.6-3.8c0.7-1.1,1.1-2.8,1-4.1
		c-0.6-5.1-1.4-10.2-2.2-15.3c-0.4-2.5-0.6-5-1.2-7.4c-0.5-2.4-1.2-2.5-3.5-1.8c-1.7,0.5-3.5,0.7-5.2,0.9c-0.3,0-0.7-0.5-1.4-1
		c3-0.5,5.6-0.2,7.5-2.4c-1.3-0.2-2.7-0.4-3.9-0.2c-1.2,0.2-2.3,0.8-3.5,1.2c-0.1-0.2-0.2-0.4-0.2-0.6c0.9-0.4,1.7-0.9,2.6-1.1
		c1.3-0.3,2.6-0.4,3.9-0.8c0.4-0.1,1-1,0.8-1.2c-0.3-0.5-0.9-1.1-1.3-1c-1.2,0.3-2.5,0.8-3.6,1.4c-1.4,0.7-2.7,1.7-4.1,2.5
		c-0.6,0.3-1.4,0.3-2.1,0.4c0-0.2-0.1-0.4-0.1-0.7c3.2-1.8,6.3-3.6,9.9-5.7c-2.6-2.6-5-5.4-7.8-7.7c-2.4-2.1-6.1-1.8-8.6,0.1
		c-0.8,0.6-1.8,1.2-2.5,2c-4,4.1-8.5,8.1-6.6,14.8C38.9,36.4,42,36,45.1,35.6z M2.5,140c-0.1,0.4-0.2,0.7-0.3,1.1
		c-0.8,4.7,0.3,8.9,2.7,13c3.2,5.7,7.3,10,14.5,9.3c1.1-0.1,2.5-0.4,3.2-1.1c2.7-2.6,6.1-4.6,7.2-8.5c0.5-1.6,1.2-3.2,1.4-4.9
		c0.5-3.8,0.8-7.6,0.9-11.4c0.1-2.3-0.3-4.6-0.5-6.9c-1.8,0.7-3.5,1.9-5.1,1.9c-2.9-0.1-6-0.6-8.7-1.6c-3.7-1.3-7.3-3-9.7-6.4
		c-3.6,3.4-4.7,5.1-5.5,8.3c-1,3.8-0.1,5.9,3.2,7.8c0.5,0.3,1.1,0.5,1.6,0.8c0.4,0.3,0.7,0.8,1.1,1.2c-0.2,0.2-0.3,0.4-0.5,0.6
		C6.3,142.2,4.4,141.2,2.5,140z M24.9,162.8c1.6,2.4,4.3,4.5,6.8,5.2c3,0.8,6.1,1.5,9.1,2.4c5.2,1.6,10.2,3.9,15.4,4.9
		c6.3,1.2,12.8,1.3,19.2,1.8c0.2,0,0.5-0.2,0.5-0.2c-0.5-6.2-1-12.4-1.5-18.5c-11.5,0.5-22.9,0.3-34-2.1c-0.4,1-0.7,1.9-1.2,2.6
		c-0.3,0.4-0.9,0.5-1.4,0.7c0-0.5-0.1-1.1,0-1.5c0.2-0.8,0.6-1.5,1-2.2c-2.1-1.6-4-3-5.9-4.4c-1.1,2.2-1.9,4.4-3.2,6.3
		C28.3,159.5,26.5,161.1,24.9,162.8z M46.1,63.9c-0.1,0.6-0.3,0.8-0.2,1.1c1.1,4.9,2.1,9.9,3.5,14.7c1.3,4.4,4.5,7.7,7.5,11.1
		c1.8,2.1,4.3,3.8,5.5,6.2c1.5,2.8,3.5,3.5,6.2,3.6c1.3,0,1.9-0.5,1.8-1.9c-0.1-1.4,0.1-2.8,0.1-4.1c0.2-4.1,0.5-8.2,0.5-12.3
		c0-2.6-0.6-5.1-0.9-7.7c-0.3-2.5-0.6-4.9-0.9-7.9C60.4,73.6,53.2,69.9,46.1,63.9z M5,125.5c0.7-0.6,1.1-1,1.5-1.3
		c2.9-2.8,4.1-6.6,5.2-10.3c1.6-5.1,2.5-10.3,3.8-15.5c1.2-4.9,2.5-9.8,3.8-14.6c0.9-3.1,1.9-6.2,2.7-9.3c0.2-0.6-0.4-2-0.5-2
		c-1.3,0.1-2.9,0-3.7,0.8c-2,1.8-3.8,3.9-4.4,6.7c-0.9,4.2-2.1,8.3-3,12.5c-1.3,5.9-3.1,11.6-3.3,17.7c-0.1,2.2-0.4,4.5-0.7,6.7
		C6.1,119.6,5.6,122.3,5,125.5z M99.7,75.5c-4.3-1.7-8.2-3.2-12.5-4.9c1.6,4.5,3.2,8.7,4.9,12.9C94.7,80.6,97.1,78.1,99.7,75.5z
		 M45.4,12.7c-0.1,0-0.1,0-0.2,0.1c0.3,1.2,0.5,2.4,1,3.5c0.3,0.6,1.2,0.8,1.8,1.2c0.2-0.8,0.8-1.6,0.5-2.3
		c-0.6-1.9-0.8-3.8-0.6-5.8c0.1-1.2-0.8-2.5-1.4-3.7c-0.2-0.4-1.2-0.4-1.8-0.5c0.1,0.7-0.1,1.6,0.2,2c1,0.9,1,1.9,0.7,3.1
		C45.5,11,45.5,11.9,45.4,12.7z"/>
	<path class="st0" d="M65.1,54.5c-0.4,2.5-2.5,3.3-4.2,4.6c-3.4,2.5-6.5,2.7-11,0.9c0.6-1.5,1.3-3.1,1.9-4.6
		c0.1-0.2,0.2-0.4,0.4-0.4c2.7-0.7,5-2.9,8.1-1.6C61.7,54,63.4,54.1,65.1,54.5z M52.3,59.9c4.2,1,9.5-1.2,11.1-4.5
		C59.4,56.2,55.7,57,52.3,59.9z M61.2,54.6c-2.7-2.3-5.5-0.3-8.1,0.8c-0.9,0.4-1.2,2.2-1.8,3.3C54.8,57.2,58,55.9,61.2,54.6z"/>
	<path class="st0" d="M38.2,43.7c-0.2-1.1-0.3-2-0.5-3.2c2.9-2.3,7.3-2.7,9.3,0.2C43.8,41.3,41.7,44.3,38.2,43.7z M44.6,40.4
		c-2.4-1.5-4.8-0.7-5.9,1.8C40.9,41.5,42.7,40.9,44.6,40.4z"/>
	<path class="st0" d="M56,44c2.1,0.5,2.8,1.6,3.1,3c0.3,1.5-1,1.8-2,2.2c-0.9,0.3-1.7,0.8-2.5,1.2c-2.6,1.6-6.2-0.4-6-3.7
		c0.2-3-0.3-6.1-0.5-9.2c0.3,0.6,0.9,1.4,1,2.2c0.3,2.2,0.4,4.5,0.4,6.7c0,1.6,0.3,2.7,1.8,3.4c1.5,0.7,2.8,0.4,3.9-0.9
		c0.3-0.4,1-0.5,1.5-0.7c0.6-0.2,1.1-0.5,1.7-0.7c-0.3-0.6-0.5-1.3-0.8-1.9C57.1,45.2,56.7,44.8,56,44z"/>
</g>
</svg>
