<?xml version="1.0" encoding="utf-8"?>
<!-- Generator: Adobe Illustrator 19.2.0, SVG Export Plug-In . SVG Version: 6.00 Build 0)  -->
<svg version="1.1" id="Layer_1" xmlns="http://www.w3.org/2000/svg" xmlns:xlink="http://www.w3.org/1999/xlink" x="0px" y="0px"
	 viewBox="0 0 120 185.8" style="enable-background:new 0 0 120 185.8;" xml:space="preserve">
<style type="text/css">
	.st0{fill:#00BCD4;}
</style>
<g id="headache-lady2">
	<path class="st0" d="M10.4,156.6c4.2,0.8,8.7-0.3,12.5-2.3c6.5,9.9,12,20.5,16.4,31.5h3.3c-3.9-10.3-9.3-19.9-16.1-28.5
		c-1.5-1.9-0.2-4.7,1.1-6.7c3-4.7,6.1-9.4,9.1-14.1c-1.6,7.7-1.1,15.9-0.5,23.9c0.2,3.5,0.6,7.3,3.1,9.7c2.6,2.5,6.6,2.6,10.2,2.3
		c17.1-1.6,32.7-10.5,46.4-20.9c1.9-1.5,4.1-3.9,3-6.1c-13.1,12.8-30.1,21.6-48.1,25c-3.9,0.7-8.7,0.9-11.1-2.3
		c-1.3-1.7-1.5-3.9-1.7-6.1c-0.5-5.7-1-11.4-0.7-17.1c0.9-16,8.4-30.9,11.1-46.7c0.5-3,0.9-6.2,2.3-8.9s4.2-5,7.3-4.8
		c-2.7-1-5.9-0.4-8.1,1.5c2-14.3,2.4-28.9,1.3-43.3c6.2,3.9,2,14.5,6.4,20.3c-0.1-6-0.9-12-2.4-17.9c3.1-0.7,5.7,2.6,6.2,5.7
		c0.6,3.1,0.1,6.5,1.6,9.3c1.5-4.7,1-9.9-1.3-14.2c4.2,1.2,7.4,5.1,7.4,9.3c0,2.8-0.8,6.4,1.6,7.8c-0.2-2.8-0.4-5.5-0.6-8.3
		C75,63,74.7,74.1,69.4,82c3-2.2,4.9-5.8,5-9.5c1.4,1.9,1,4.7-0.1,6.8c-1.1,2.1-2.9,3.8-4.3,5.7c-3.2,4.5-4.1,10.1-4.7,15.5
		c-0.7,6.2-1.1,12.4-1.2,18.6c-0.1,4.9,0,9.7-0.3,14.6c-0.3,5.7-1.1,11.4-2.3,16.9c3.7-5.4,5.1-12.2,3.9-18.7
		c-0.7-3.7,2.2-6.9,4.9-9.5c7.4-7,14.7-14,22-21.1c2.1-2,4.3-4,7-5c2.7-0.9,6.2-0.4,7.9,1.9c8.8,12.6,8.9,29.3,6.9,44.5
		c-1.8,14.4-5.2,28.9-3.3,43.1h2.7c0.1-0.9,0.1-1.9-0.1-2.8c-1.6-11.2,0.3-22.6,2.1-33.8s3.4-22.6,1.6-33.8
		c-1.9-11.2-7.9-22.2-18.1-27.2c-4.4-2.2-9.3-3.1-13.7-5.3c-4.4-2.1-8.5-5.9-8.9-10.8c-0.5-6.4-1.1-13-3.9-18.8
		c-2.8-5.8-8.3-10.7-14.8-10.9c-7.9-0.3-11.3-11.8-19.1-12.7c-4.4-0.5-8.3-4.1-9.2-8.6c-0.2-1.2-0.2-2.6,0.3-3.7
		c0.5-1.1,1.4-1.9,2.3-2.6C43,6,57.6,0,71.8,2.6C84.4,4.9,95.1,14,101.6,25.1c6.5,11.1,9.1,24,10,36.8c0.3,3.9,0.4,7.7,1.1,11.5
		c1.1,5.7,3.6,11.1,7,15.8c1.5-4.6-1.7-9.2-3.4-13.7c-1.8-4.7-1.9-10-2.2-15.2c-1.4-20.8-9.1-42.9-26.9-53.8c-9.8-6-22-8-33.2-5.4
		C46.3,3,39.2,6.9,32.7,11.4c-1.8,1.3-3.6,2.7-4.8,4.6c-3.1,5.3,0.6,12.2,5.6,15.8c-2.6,5.9,3.4,12.5,2.2,18.9
		c-0.5,2.4-1.9,4.5-2.8,6.8c-0.9,2.3-1,5.2,0.8,6.9c1.7,1.6,2.5,4,3.1,6.3c1.7,6,3.3,12.5,0.9,18.3c-7,16.8-22.6,28.4-32.8,43.4
		c-3.3,4.9-6.2,11-4.2,16.5C2.2,153,6.1,155.8,10.4,156.6z M95.6,90.5c1.7,0.9,3.4,1.8,5,2.7c-9.3,3.6-15.1,12.5-22.3,19.4
		c-4.5,4.4-9.9,8.1-13.1,13.5c-0.1-3.7,0-7.4,0.3-11c0.1-1.1,0.2-2.2,0.6-3.2c0.6-1.4,1.6-2.6,2.6-3.7c3.6-4.2,7.3-8.4,11.6-11.8
		c3.3-2.4,6.8-4.5,10.6-6.1c0.8-0.3,1.7-0.7,2.6-0.6C94.2,89.8,94.9,90.1,95.6,90.5z M77.9,81.5c4.1,3.1,8.8,5.6,13.8,7.1
		c-4.9,1.4-9.6,3.9-13.6,7.1c-4.6,3.7-8.3,8.5-12,13.2c0.7-5.1,1.3-10.2,1.9-15.2c0.2-1.8,0.5-3.6,1.2-5.3c0.7-1.4,1.7-2.7,2.8-3.9
		c0.9-1,1.8-2.1,2.7-3.1c0.2-0.3,0.5-0.6,0.9-0.7C76.4,80.4,77.2,80.9,77.9,81.5z M35.4,41.6c-0.4-1.4-0.7-2.9-0.9-4.4
		c-0.1-1.8,0-3.5,0.5-5.2c0.2-0.1,0.4-0.2,0.6-0.3c1.5,0.3,3,0.6,4.4,0.9c0.4,0.1,0.9,0.2,1.3,0.4c0.8,0.4,1.4,1.1,1.9,1.9
		c1.7,2.1,3.6,4.1,5.7,5.8c0.5,0.4,1,0.7,1.2,1.3c0.2,0.6,0.2,1.3-0.3,1.6c-0.7-1.2-2.1-1.9-3.4-2.5c-1.6-0.7-3.2-1.4-4.9-1.3
		c-0.9,0.1-1.7,0.3-2.5,0.6C37.8,40.8,36.6,41.2,35.4,41.6z M35.5,64c-1-0.6-1.5-1.8-1.5-3s0.4-2.3,0.8-3.4c1-2.8,2-5.7,3-8.5
		c0.8-2.2-2-4.4-1.9-6.7c1.3,1.3,3.4,0.5,5.2,0.1c2.8-0.7,5.9,0,8.2,1.9c0.4,0.3,0.5,0.9,0.5,1.4c0.6,10.1,1.2,20.3-0.2,30.3
		c-0.4,2.7-0.9,5.3-0.8,8c-1.1-0.7-2-1.8-2.4-3.1c-0.5-1.7-0.2-3.7-1.4-5.1c0.9-0.8,1.6-1.9,1.9-3c0.3-0.9,0.2-2.2-0.7-2.5
		c-2-0.7-3.9-1.3-5.9-2c-0.6-0.3-1.3-0.9-0.9-1.3c0.6-0.8-0.2-1.9-1.1-2.3C37.4,64.4,36.4,64.5,35.5,64z M43.9,75.4
		c-0.1,0.2-0.3,0.4-0.5,0.4c-0.1,0-0.2-0.1-0.4-0.2c-0.3-0.2-0.7-0.6-0.7-0.9c0-0.2,0.1-0.4,0.1-0.6c0.7-1.3,1.9-2.2,3.3-2.5
		C45.3,73,44.7,74.3,43.9,75.4z M37.8,65.4c0.5,1,0.5,2.3,0.1,3.3C37.3,67.7,37.3,66.4,37.8,65.4z M4.6,136.6
		c5-5.8,8.1-13.2,13.9-18.3c9.4-8.2,15.7-19.2,21.7-30.1c0.4-0.8,0.9-1.6,1.1-2.5c0.6-2.3-0.4-4.7-1.2-7c-1.2-2.9-1.9-6.1-2.2-9.3
		c0.6,1.5,2.2,2.6,3.8,2.6c-0.6,1-1.1,2.2-0.9,3.3c0.2,1.1,1.3,2.2,2.5,1.9c0.6-0.1,1.1,0.4,1.3,0.9c0.2,0.6,0.1,1.2,0.1,1.8
		c0,2.3,1.7,4.5,4,5.1c0.7,5-0.6,10-1.9,14.8c-1.7,6.2-3.3,12.3-5,18.5c-1.1,4.1-2.2,8.2-3.9,12.1c-1.1,2.5-2.4,4.9-3.7,7.3
		c-2.8,5.1-5.9,10.4-10.7,13.9c-4.7,3.5-11.6,4.8-16.5,1.6c-2.7-1.7-4.6-4.6-5-7.7C1.5,142.4,2.5,139,4.6,136.6z"/>
	<path class="st0" d="M39.7,63c0.1,0.2,0.2,0.5,0.1,0.9c-0.1,0.3-0.5,0.4-0.7,0.3c-1.1-0.7-2.4-0.9-3.6-0.6c-0.1-0.5,0.2-1,0.6-1.3
		C37.2,61.4,39.1,61.7,39.7,63"/>
	<path class="st0" d="M40.9,51c0.5,0.1,1.1-0.3,1.3-0.8c-0.3-0.5-0.5-1.1-0.8-1.6c-0.2-0.5-0.4-0.9-0.8-1.1c-1.1-0.6-2-1.4-2.8-2.4
		c-0.1-0.4-0.2-0.7-0.2-1.1c1.3-0.2,2.6,0.3,3.9,0.7c1.9,0.6,3.7,1.3,5.6,1.9c0.5,0.1,1,0.3,1.5,0.6c0.4,0.3,0.8,0.6,1.2,1
		c-0.2,0.4-0.3,0.8-0.5,1.1c-0.9,1.5-2.6,2.2-4.3,2.7c-0.9,0.3-1.2,1.7-0.5,2.3c-0.2,0.3-0.3,0.6-0.5,0.9c-0.2,0.3-0.7,0.4-0.9,0.2
		c0-0.8-0.1-1.7-0.6-2.3c-0.6-0.7-1.6-0.9-2.3-0.5c-0.1-0.3-0.1-0.7,0-1.1C40.5,51.6,40.9,51.3,40.9,51 M44.4,48
		c0.4,0.7,0.6,1.4,0.6,2.1c0.7-0.5,1.5-1,2.2-1.5c0-0.1,0-0.2,0-0.3c-0.8,0.2-1.7,0.1-2.4-0.3C44.7,47.9,44.5,47.9,44.4,48"/>
</g>
</svg>
