<svg id="Layer_1" data-name="Layer 1" xmlns="http://www.w3.org/2000/svg" viewBox="0 0 300 282.1"><defs><style>.cls-1{fill:#00bcd4;}</style></defs><title>headache-lady3 | Self-care OTC</title><g id="headache-lady3"><path class="cls-1" d="M229.6,282.1a25.5,25.5,0,0,0,.8-4.5c0-5.7,1.4-11.2,2.8-16.7a53.6,53.6,0,0,0,1.4-16.7c-0.4-8,.6-15.9,1.8-23.8a94.5,94.5,0,0,0,1.4-20.4c-0.1-2.5,0-4.9,0-7.8a8.7,8.7,0,0,0-1.5,1.4c-4.6,7.5-9.3,15-13.8,22.6-1.5,2.7-2.4,5.7-3.6,8.6a3.3,3.3,0,0,1-.7,1.2,1.6,1.6,0,0,1-1.2.4,1.1,1.1,0,0,1-.5-1,27.8,27.8,0,0,1,.9-3.7c2.2-6.7,6.3-12.5,10-18.4s6-9.2,9-13.7c0.6-.9,2-1.7,1.2-3a8,8,0,0,0-2.5-2.4,34.9,34.9,0,0,0-8.8-4.2c-5.8-1.7-11.5-4-17.2-6h-0.3l-3.1,11.6a84.9,84.9,0,0,1-8.3,19.8,55,55,0,0,1-7,9.5,126.2,126.2,0,0,1-10.3,10.3,41.4,41.4,0,0,1-7.6,5.3,89.4,89.4,0,0,1-10.9,5.1,90,90,0,0,1-8.9,2.4,58.2,58.2,0,0,1-19.7,1.7c-3.7-.3-7.3-1.4-11-2.2s-5.1-.8-7.6-1.4A9.4,9.4,0,0,1,112,235l-0.7-.5c-4.1-2.2-8.2-4.2-12.2-6.5s-8.7-6.9-11.9-11.7c-5.7-8.6-7.5-18.1-7-28.2a69,69,0,0,1,1.3-8l-2.8.5c-5.4,1-10.4,3.3-15.2,5.9a71.9,71.9,0,0,1-13.6,5.8c-4,1.2-7.7,2.9-11.7,4.5a7.9,7.9,0,0,0,.6,1.1c3.7,4.8,5.6,10.3,7,16s2.2,9.7,3.2,14.6c0.2,0.9.2,2-1,2a2.3,2.3,0,0,1-1.3-1.7c-0.6-6.7-2.5-13-4.5-19.3-1.2-3.8-3.4-7.3-5.3-10.9a1.6,1.6,0,0,0-1.5-.5c-5.8,2.3-11,5.3-14.7,10.7-2.6,3.7-5.8,6.9-8.7,10.5-1.6,2-3,4.2-4.7,6.6,16.5,9.9,27,25.2,38.1,40.7,0.4-2,.6-3.6,1-5.2,1.6-7.3,3.3-14.7,5-22a9.3,9.3,0,0,1,1.3-2.9A6,6,0,0,1,54,235a5.3,5.3,0,0,1,.5,1.9c-0.6,3.8-1.4,7.5-2.1,11.2-1.4,7.9-2.9,15.7-4.1,23.6a49.2,49.2,0,0,0-.1,8.2,7.5,7.5,0,0,0,.6,2H42.2c-1.7-2.6-3.3-5.3-5.2-7.8-4.3-5.6-8.8-11-13.2-16.5a67.9,67.9,0,0,0-4.8-5.4c-4.3-4.2-8.6-8.4-12.9-12.5a17.6,17.6,0,0,0-1.7-1.3c0,1-.1,1.7,0,2.4a36.7,36.7,0,0,1,.6,4.5c-0.2,8.5-.3,17.1-0.7,25.6-0.1,3.7-.7,7.3-1.1,11H0c1.5-6.6,1.1-13.3,1.4-20s0.5-11.3.6-17a72.9,72.9,0,0,0-.6-8.8c-0.6-5.5,1.6-10,4.7-14.2s6.7-8.5,10.1-12.7c0.9-1.1,1.9-2.3,2.7-3.5,3.2-4.9,8.1-7.6,13.2-9.9s9.6-4,14.4-5.9c1.7-.7,3.6-1,5.3-1.8,4.4-2,8.9-3.9,13.2-6.1s11-4,16.7-5.5c7.9-2.1,15.9-4,22.7-8.8,4.2-3,8.2-6.6,9.2-12.2a2.4,2.4,0,0,1,.5-1.3c1.4-1.4.9-2.7,0.1-4.1-1.8-3.1-1.9-6.7-2.5-10.1s-1.3-8.2-1.9-12.3-0.6-5.2-.9-8a11.2,11.2,0,0,1-8.3-7.5C98,105.6,96.2,98.5,97.4,91c0.6-4,1-8,1.5-12s0.8-5.1,3.7-6.2a1.3,1.3,0,0,0,.5-0.9c0.5-3.7.9-7.4,1.5-11.1,1-5.7,1.8-11.5,3.2-17.1a69.2,69.2,0,0,1,4-10.5c1.1-2.7,2.1-5.7,3.9-7.8a133.8,133.8,0,0,1,10.9-10.5c6.7-6.1,14.9-9.8,23.1-13.2,4.8-2,9.9-1.8,15-1.4a100.8,100.8,0,0,1,11,1.3c6.5,1.2,11.3,5.2,15.5,10,2.4,2.8,5.5,4.3,8.6,5.9s5.1,2.1,7,4.3a33,33,0,0,1,6.8,11.4c0.7,1.9,1.7,3.8,2.4,5.7a49.4,49.4,0,0,1,3.9,20c-0.1,3,0,6,0,9a25,25,0,0,1-.7,4.9,12.2,12.2,0,0,0,1,6.6c2.1,5.1,4.4,10.2,6.8,15.1s6.1,12.6,9.4,18.8a29.4,29.4,0,0,0,4.7,6.5,23.7,23.7,0,0,1,4.7,7.5c3,7.2,5.9,14.5,9.3,21.5,1.9,3.9,4.7,7.4,7.1,11.1s2.9,5.5,4.9,7.6,4,6.9,5.1,10.7c0.6,1.9.3,4,.3,6.1a3.3,3.3,0,0,0,2.5,3.6,43.9,43.9,0,0,1,18.6,12.4c4.2,4.9,6.6,10.2,6.5,16.6s-0.8,14.4-1.2,21.7c-0.2,2.7-.2,5.4-0.5,8.1-0.6,6.3-1.3,12.5-1.8,18.7s-0.7,9.7-1,14.6c0,0.6,0,1.3-.1,1.9h-4.3c-2.5-5.4-5.4-10.6-7.5-16.2-2.8-7.5-3.7-15.4-5-23.2-1.5-9.4-3.3-18.7-4.7-28.1-1.1-7.2-2.1-14.4-3-21.6-0.4-3.3-.2-6.6-0.9-9.8-1.1-5-2.3-9.9-5.9-14-2.1-2.3-3.4-5.3-5-8-2.6-4.2-5.6-8.2-7.7-12.6-3.4-6.9-6.1-14.2-9.2-21.2a28.3,28.3,0,0,0-3.2-5c-1.2-1.7-2.9-3-3.8-4.8-3.3-6.2-6.5-12.5-9.6-18.8-2.4-4.7-4-9.9-7.8-13.8a21.8,21.8,0,0,1-3.5-5.2c-1.1-2.2-1.9-4.6-2.9-6.9-4.3,1.2-6.7-.9-8.4-4.6-0.3,1.8-.8,3.7-0.2,5a129.6,129.6,0,0,0,6.7,12.7c2.7,4.6,6.6,8.3,9.3,13s5.3,6.2,8,9.3a51.3,51.3,0,0,1,3.3,4.5c1.8,2.6,3.5,5.2,5.2,7.9a4.6,4.6,0,0,1,.2,1.8,3.4,3.4,0,0,1-1.7-.2,12.9,12.9,0,0,1-2.8-3.2c-2.5-4.7-5.1-9.3-9.2-12.8h-0.1l-5.2-5.9-0.4.3,5.9,10.5q2,3.5,4.1,6.9c3.3,5.3,6.6,10.5,9.9,15.8,0.3,0.5,0,1.3-.1,2s-1.5-.2-1.7-0.6c-1.8-2.8-3.4-5.6-5.1-8.4-0.8-1.3-1.6-2.6-2.4-3.9-2.5-3.7-5.3-7.3-7.1-11.5-1-2.3-2.7-4.4-3.8-6.7-2-4.1-3.8-8.3-5.8-12.3s-3.4-6.4-5.2-9.7c-3.3,2.7-6,1.8-8.6-.9a7,7,0,0,0,.4,2.5c1,2.3,2.1,4.5,3.2,6.8,2.1,4.5,4.2,9,7.7,12.8a15.6,15.6,0,0,1,2.7,4.8c1.4,3.3,2.5,6.6,3.8,9.9s2.3,5.1,3.2,7.8,0.7,4.4,1.4,6.5c1.3,4.6,4.3,8.4,4.7,13.5s3.2,10.1,5.7,14.8c1.3,2.5,2.5,5,3.6,7.6,0.2,0.6-.2,1.4-0.3,2.2a5.6,5.6,0,0,1-2.1-.8,9.8,9.8,0,0,1-2-2.9c-2.2-5-4.3-10.1-6.4-15.1a10.8,10.8,0,0,0-1.1-1.6c-1.6.9-2.4,1.8-2.4,3.6a28.1,28.1,0,0,1-.5,5.4,3.5,3.5,0,0,1-1.2,1.2,3.6,3.6,0,0,1-.9-1.3,13.7,13.7,0,0,1,.1-2.8c0.1-1.3.3-2.5,0.4-3.8-6.9.4-5.9,0.4-7.5,4.9-0.3.8-.3,2-1.5,1.7s-1.2-1.4-.9-2.5l1.4-4.1-1.7-.4c-2.6-.3-5.4-1.1-7.8-0.5s-2.4,2.9-3.5,4.4l-1,1.2-3.5,5.1,1.8,0.2c4.7,0.3,9.4.4,14.1,1.1,6.8,1,13,3.1,17.1,9.3,1.1,1.7,2.7,3.7,4.4,4.1,3.6,1,6.5,3.2,9.8,4.7a2.2,2.2,0,0,0,1.8,0c1.4-.9,2.5-2.1,3.9-3a5.7,5.7,0,0,1,2.3-.3,5.5,5.5,0,0,1-.7,2.1c-1.4,1.4-3,2.6-4.4,3.9,0.1,2.2.4,4.5,0.4,6.7s-0.2,6.6.1,9.9c0.7,6.5-.5,12.8-1.3,19.1-0.5,3.9-1.3,7.9-1.5,11.8-0.3,6.4-.2,12.9-0.5,19.3a52.7,52.7,0,0,1-1.4,11c-1.1,4.3-2.3,8.6-2.2,13.1a50.9,50.9,0,0,1-.7,6.5h-3.9ZM204,63.2c-0.6-1.6-1-3.1-1.6-4.5s-1.4-2.5-2-3.9-1.7-3.4-1.9-5.2c-0.4-3.8-.2-7.7-0.6-11.5a38,38,0,0,0-1.5-7c-0.4-1.4-1.8-1.4-2.9-1s-0.5,1.3-.6,2a10,10,0,0,0,.1,1.7c0.2,3.7.2,7.4,0.6,11.1s-1,5.3-4.5,5.4a14.3,14.3,0,0,0-3.7.4,93.5,93.5,0,0,0-16.2,6.5,91.7,91.7,0,0,1-11.8,5.1c-7.9,2.9-16.1,5.3-24,8.3-5,1.9-9.8,4.6-14.7,6.9a9.7,9.7,0,0,0-5.9,7.5c-0.3,1.9-.7,3.8-1.2,5.6a4.3,4.3,0,0,1-1.3,1.3,5.6,5.6,0,0,1-1-1.5c-0.2-1.1-.2-2.2-0.4-3.3-0.8-3.9-1.7-7.8-4.3-11-0.9-1.1-1.8-1.1-2.3.1a24.4,24.4,0,0,0-1,3.4c1.2,0.7,2.3,1.1,2.8,1.8a13.5,13.5,0,0,1,2.2,8.2,4,4,0,0,1-1.1,1.5,4.9,4.9,0,0,1-1.3-1.4c-0.5-1.5-.6-3.1-1.1-4.6a11.8,11.8,0,0,0-1.4-2.4,14.3,14.3,0,0,0-.8,2.4c-1.3,8.5-1.2,16.9,2,24.9a21.1,21.1,0,0,0,3.3,4.9,2.1,2.1,0,0,0,2,.5c2.5-1.2,2.8-5.6.5-7.2a7.1,7.1,0,0,1-3.1-6.5c0-.7.8-1.4,1.2-2s1.2,1.3,1.1,1.9c-0.2,2.3,1.4,3.4,2.8,4.8a6.1,6.1,0,0,1,1.9,2.8,24.3,24.3,0,0,1,.1,5.2c0,1.8-1.3,3.3-.8,5.2a19.3,19.3,0,0,1,.3,3c0.3,2.7.6,5.3,1,8s0.9,6.7,1.5,10,0.8,6.5,2.7,9.4,4.8,6.9,7.1,10.4,6.4,9.4,10.9,13c2.2,1.7,4.3,3.7,6.5,5.4s3.4,2.6,5.3,3c4.3,0.9,8.8,1.3,13.2,1.9a8.9,8.9,0,0,0,7-1.6c2.5-1.9,5.2-3.7,7.7-5.6A43.1,43.1,0,0,0,186.5,164c1.8-3.3,4.2-6.2,6.3-9.3a49.7,49.7,0,0,0,3.6-5.2,44.1,44.1,0,0,0,4-12.1c1.5-8,4.7-15.4,7.7-22.9a7.8,7.8,0,0,0-1-7.8c-2.1-3.1-4.3-6.1-6.5-9.2a1.6,1.6,0,0,0-1.2-.6l-7.3,1.6a24.2,24.2,0,0,1-11.5.2,1.7,1.7,0,0,1,1.3-2.5A47.2,47.2,0,0,1,196,93.6a16.7,16.7,0,0,0,2.5-.5,65.9,65.9,0,0,0-3-6c-2.7-4.3-1.3-13.3,4.7-13.8l0.3-.2A10.1,10.1,0,0,1,204,63.2Zm-87.4,92-0.3.3-0.6,2.4c-1.4,5.5-5.3,9.2-9.6,12.2s-8.3,4.1-12.6,6.1a2.4,2.4,0,0,0-1.3.9c-0.7,3.3-1.4,6.6-1.8,10-0.7,5.5.8,10.7,2.4,15.9a23.5,23.5,0,0,0,7.8,11.1c2.2,1.8,4.6,3.5,6.8,5.3a39.9,39.9,0,0,0,18.5,8.6c5.2,0.9,10.5,1.6,15.8,2a39.4,39.4,0,0,0,22-4.9c3.1-1.7,6-3.8,9-5.8l0.4-.4c4-4.2,8.1-8.2,11.9-12.5s6.9-10.8,9.3-16.7c1.4-3.3,2.3-6.7,3.7-9.9a13.4,13.4,0,0,0,1.4-7.1c-0.1-1.3-.5-2-1.8-2.1-3.4-.4-6.8-0.9-9.7-3.4l-1.6,2.3a13.4,13.4,0,0,1-2,2.9q-7.2,6-14.5,11.9c-3.2,2.6-6.9,3-11,2.6a97.5,97.5,0,0,1-12.3-2.1A14.6,14.6,0,0,1,140,181l-3.8-3.4a57.5,57.5,0,0,1-5.7-4.9c-3.3-3.7-6.3-7.5-9.4-11.4C119.4,159.3,118.1,157.3,116.6,155.2Zm86,16.9c-0.2,2.1,0,4.3-.6,6.3a88.2,88.2,0,0,1-22.3,38.2,60.6,60.6,0,0,1-19.9,13.1,39.6,39.6,0,0,1-14.3,3.1c-2.9.1-5.8-.2-8.6-0.3-7-.4-14.1-0.8-20.5-4.2a112,112,0,0,1-10.3-5.9c-5-3.4-9.7-7.2-13.3-12.5s-4.7-11.2-5.2-17.2,0.5-9.7.8-14.7l-3.4.8a1.8,1.8,0,0,0-1.6,1.7,73.2,73.2,0,0,0-1.2,7.3c-0.4,9.2.7,18,6,25.9,2.8,4.2,5.5,8.5,10.1,11.1s7.2,4.4,11,6.3a61.9,61.9,0,0,0,8.7,3.6c2,0.7,4.3.7,6.3,1.3a53.8,53.8,0,0,0,25.7.6c6.4-1.4,12.3-3.9,18.3-6.3a32.8,32.8,0,0,0,12.6-8.7c2.3-2.6,5-5,7.5-7.5a42,42,0,0,0,8.8-13,161.9,161.9,0,0,0,8.4-25.1c0.7-3,.5-3.3-2.6-3.7h-0.5Zm89.2,104c0.9-7.4,1.9-14.3,2.5-21.2s1.2-16.7,1.7-25.1c0.1-1.7-.1-3.5.3-5.1a17.1,17.1,0,0,0-1.9-12.9,10.2,10.2,0,0,0-2.5-3.1,59.6,59.6,0,0,0-5.9-3.9,6.6,6.6,0,0,0-8.7,1.2l-1.7,1.5c1,5.7,2,11.4,3.1,17.2s2.2,9.6,2.8,14.5c1.1,8.2,2.1,16.3,4.8,24.1C287.7,267.6,289.9,271.6,291.8,276.1ZM200.1,148.8c1.5,0.1,2.8.1,4.1,0.4,3.5,0.6,7,1.7,10.7.9s6.7-4,5-8-3.9-9-4.9-14-3-8.2-4.6-12.3C205.2,126.2,203.6,137.7,200.1,148.8ZM6.1,228.1c-1.6,2.1-1.6,4.3-1.6,6.5a1.4,1.4,0,0,0,.5.9L16.6,246a9.2,9.2,0,0,0,1.7,1.3,22,22,0,0,1,8.1,7.9,58.7,58.7,0,0,0,3.7,5.4l11.7,14.7c0.8,1,1.9,1.1,2,.2s0.5-3.3-.2-4.5a134.6,134.6,0,0,0-7.7-11.4c-6.3-8.4-12.2-17.1-20.4-23.8ZM293,205.5l0.3-.4a8.6,8.6,0,0,0-.8-1.3l-6-6.5a8.5,8.5,0,0,0-1.9-1.5l-7.9-4.3a4.8,4.8,0,0,0-1.7-.5c-1.1-.1-1.6.3-1.4,1.5s0.4,3.1.6,4.7,0.6,4.5,1,7.2c1.7-3.1,4.2-4.1,7.1-3.6a28.5,28.5,0,0,1,6.1,2A44.4,44.4,0,0,1,293,205.5ZM191.5,164.9l-0.2.9a29.6,29.6,0,0,0,3.8,1.5c2.2,0.6,4.4.9,6.6,1.4a71.4,71.4,0,0,1,13.8,4.9,33.9,33.9,0,0,0,5.6,1.4c-2.4-3.5-5-5.8-8.7-6.7s-5.6-1.7-8.4-2.1S195.6,165.3,191.5,164.9Zm19.4-93.7a36.2,36.2,0,0,0-1.8-5.8c-0.3-.6-1.8-1.1-2.7-1a2.5,2.5,0,0,0-1.6,1.8,12.2,12.2,0,0,0,2.3,4.3C207.7,71.1,209.2,70.9,210.8,71.2Zm-7,9.3-3.1-5.4c-1.3.8-3.2,0.8-3.1,2.9a3.9,3.9,0,0,0,2.4,3.7C201.6,82.4,202.8,81.8,203.9,80.4Zm12.9-.4h0.4c-0.5-2.4-.9-4.8-1.4-7.2s-1.1-1.8-2.5-1.3Z"/><path class="cls-1" d="M181.5,156.6l-4.2,2.5-6.8,4.3a4.3,4.3,0,0,1-2.1.8c-4.3-.1-8.7.1-13-0.6-2.1-.3-4.1-2.1-5.8-3.6s-4-4-6.7-4.9a6.1,6.1,0,0,1-1.6-1.4,6.3,6.3,0,0,1,1.8-1.4c4.3-1.2,8.5-2.3,12.8-3.3,1.9-.4,3.9-0.4,5.2,1.5a2.7,2.7,0,0,0,3.5.7c3.4-2.2,6.2-.4,9,1.1ZM148,154.9l-0.2.7,2.7,2.7c2.4,2.3,5,3.9,8.6,3.4a13.8,13.8,0,0,1,5.4.4c4.5,1.2,6.9-2.2,10-4.1-3.1-.3-6.2-0.3-9.2-0.6s-5.9-1-8.8-1.5Zm26.5,0.8c-2.8-2-5.4-4.1-9.1-2.5-2,.8-3.8.2-5.6-1a3.7,3.7,0,0,0-2.2-.7l-10.1,1.2v0.5l2.7,0.2,8.5,0.9c2.5,0.3,5,.8,7.6,1S171.8,155.5,174.5,155.7Z"/><path class="cls-1" d="M136.4,88c8.3-.4,15.7,1.9,22.9,5.6a3.2,3.2,0,0,1,1.2.9,2.4,2.4,0,0,1,.6,1.7,2.3,2.3,0,0,1-1.7,1,14.6,14.6,0,0,1-7.4-1.5,55.7,55.7,0,0,0-8.6-3.3,62.3,62.3,0,0,0-7.2-2c-1.4-.3-2.9-0.1-4.4-0.3a3.8,3.8,0,0,1-1.4-1,3.7,3.7,0,0,1,1.4-1.1C133.3,87.9,134.9,88,136.4,88Z"/><path class="cls-1" d="M129.6,99.8c1-.2,2-0.7,2.4-0.4,3.4,2.2,7.3,2.6,11.1,3.5s6.2-.2,9.4-1c-0.7-1.8-2.2-1.6-3.4-2.2a11.8,11.8,0,0,1-1.6-1.1c0.5-.4,1.1-1.2,1.6-1.1a8.9,8.9,0,0,1,3.9,1.1,24.6,24.6,0,0,1,4.2,4.1,2.2,2.2,0,0,1,.2,2c-0.4.8-1.2,0.5-2.1,0.4a14.6,14.6,0,0,0-4.5.5c-4.2,1-8.4.4-12.5-.1a12.7,12.7,0,0,1-7.9-4.5Z"/><path class="cls-1" d="M183.5,103.4a6.4,6.4,0,0,1,1.9-.3l11.5,2.2a49.5,49.5,0,0,1,5.5,1.5,1.6,1.6,0,0,1,.3,1.5c-1.7,3.1-6.6,4.9-10,3.7s-4.3-1.8-6.5-2.4a16.1,16.1,0,0,0-4.4-.2,13.4,13.4,0,0,1-2,.4,5.9,5.9,0,0,1-1.8-1,7.1,7.1,0,0,1,1.6-1.1c1-.3,2-0.5,3-0.7,2.9-.7,5.5.4,8.1,1.2a22.2,22.2,0,0,0,4.6.9,4.3,4.3,0,0,0,1.8-.8,4.6,4.6,0,0,0-1.5-1.2l-8.6-1.6C185.6,105.4,184.1,105.4,183.5,103.4Z"/><path class="cls-1" d="M155.1,126.8a4.9,4.9,0,0,1-.3,1.7c-1.5,2-1.5,4.3-1.4,6.6s1.5,1.7,2.5,1.5c3.4-.6,5.6,1,7.5,3.5a3,3,0,0,0,3.9,1c0.9-.4,1.7-1.1,2.6-1.5a14.3,14.3,0,0,1,3.2-1.3c1.2-.3,1.9-0.8,1.9-2.1s0-4.5-1.4-6.4a3.8,3.8,0,0,1-.3-1.5l0.7-.3a11.1,11.1,0,0,1,1.8,2.9,27.3,27.3,0,0,1,.7,5.9c0,1.6-1.4,2.5-3,2.9a10.2,10.2,0,0,0-3.9,1.8,5,5,0,0,1-7.6-1,5.3,5.3,0,0,0-5.1-2.4c-1.3.1-2.6-.6-3.8-1a1.7,1.7,0,0,1-.9-0.9c-0.9-2,.3-7.3,2-8.9Z"/></g></svg>