<?xml version="1.0" encoding="utf-8"?>
<!-- Generator: Adobe Illustrator 19.1.0, SVG Export Plug-In . SVG Version: 6.00 Build 0)  -->
<svg version="1.1" id="Layer_1" xmlns="http://www.w3.org/2000/svg" xmlns:xlink="http://www.w3.org/1999/xlink" x="0px" y="0px"
	 viewBox="0 0 150 154" style="enable-background:new 0 0 150 154;" xml:space="preserve">
<style type="text/css">
	.st0{fill:#E91E63;}
</style>
<g id="headlice-lady-1">
	<path class="st0" d="M118.1,153.8c-0.5,0-0.9,0-1.4,0c1.1-5.7,2.1-11.4,3.2-17.2c-5-0.9-9.5-3.4-14.6-3c-0.9,0.1-1.9,0.4-2.8,0.4
		c-0.4,0-0.7-0.3-1.1-0.5c0.3-0.2,0.6-0.6,0.9-0.7c4.7-1,9.3-0.1,13.7,1.5c1,0.4,2.1,0.6,3.2,0.8c0.7,0.2,1.2-0.1,1.3-0.8
		c0.3-1.4,0.7-2.8,1.1-4.2c0.3-1,0.7-1.9,0.9-2.9c0.2-0.9,0.6-2,0.4-2.9c-0.5-2.7-1.2-5.4-1.8-8.1c-0.2-1-0.8-1.3-1.7-1
		c-5,1.7-10.3,1-15.4,0.9c-4-0.1-8-0.9-11.9-1.5c-2.5-0.3-5-0.7-7.5-1.1c-0.3-0.1-0.6-0.4-0.9-0.6c0.3-0.2,0.6-0.6,0.9-0.5
		c0.9,0,1.7,0.2,2.6,0.3c2.2,0.4,4.4,0.8,6.7,1.3c0-0.1,0.1-0.2,0.1-0.4c-0.6-0.4-1.2-0.8-1.8-1.1c-4-1.9-8.4-2.7-12.7-3.4
		c-2.8-0.5-5.6-0.7-8.4-1.1c-1.1-0.2-1.7,0.1-1.9,1.3c-1.4,5.7-2.8,11.3-2.8,17.2c0,3.3-0.2,6.6,0.9,9.7c0.2,0.5,0.6,1.1,1.1,1.4
		c3.6,2.3,6.6,5.4,9.7,8.2c3.3,3,7.1,5.2,11.5,6.2c1.7,0.4,3.5,0.7,5.3,1c0.3,0.1,0.6,0.3,0.8,0.4c0,0.1,0,0.2-0.1,0.4
		c-1.4,0-2.9,0.2-4.2,0c-5.9-1.3-11.1-4-15.3-8.3c-2.6-2.6-5.2-5.1-8.4-6.9c-0.3-0.2-0.6-0.4-0.8-0.6c-1.8-2-4.1-2.4-6.5-2.6
		c-0.8,0-1.5-0.3-2.3-0.5c-1.2-0.4-2.3-1-3.5-1.5c-1-0.5-2-1-3.1-1.4c-0.9-0.3-1.8-0.6-2.7-0.6c-1,0-1.3,1.1-0.9,2
		c1.3,2.5,3.1,3.9,6.1,3.7c1.7-0.1,3.4,0.6,5.1,1.1c1,0.2,2,0.6,3,0.9c0.3,0.1,0.6,0.5,0.8,0.7c-0.1,0.1-0.1,0.2-0.2,0.3
		c-0.4,0-0.8,0-1.2-0.1c-3.4-0.9-6.6-2.1-10.2-2.1c-0.9,0-1.9-0.8-2.8-1.3c-0.6-0.4-1.1-0.5-1.6,0c-0.8,0.7-1.7,1.4-2.3,2.2
		c-0.5,0.7-0.4,1.5,0.4,2.1c1.1,0.9,2.1,1.7,3.6,2c1.2,0.2,2.3,1.3,3.5,2c0.1,0.1,0.2,0.5,0.2,0.6c-0.2,0.2-0.6,0.4-0.8,0.3
		c-0.7-0.3-1.4-0.7-2.4-1.2c0.4,1.8,0.7,3.4,1,5.2c0.2,0,0.7-0.1,1.1,0c0.5,0.1,1,0.4,1.5,0.6c-0.4,0.3-0.8,0.6-1.2,1
		c-0.1,0.7-0.1,1.5-0.2,2.5c-0.5,0-0.8,0-1.2,0c0-0.1-0.1-0.1-0.1-0.1c0.9-1.6-0.9-2.2-1.3-3.2c-0.5-1.5-0.7-3.2-0.7-4.8
		c0-1.1-0.1-1.7-1.3-1.8c-0.4-0.1-0.7-0.3-1.4-0.5c-1,3.5-2.1,7-3.1,10.5c-0.2,0-0.6,0-1,0c0-0.2,0-0.4,0-0.5
		c0.9-3.4,1.9-6.8,2.8-10.2c0.1-0.3,0-0.9-0.2-1.1c-1.1-1-1.1-2.2-0.6-3.4c0.4-1,0.1-1.5-0.8-2.1c-2.6-1.8-5-3.7-7.6-5.6
		c-0.1,0.2-0.3,0.5-0.4,0.9c-1.1,3.2-2.1,6.4-3.1,9.6c-0.2,0.5,0,1.1,0.1,1.6c0.8,2.9,1.7,5.8,2.5,8.7c0.1,0.3-0.4,0.8-0.6,1.2
		c-0.3-0.3-0.9-0.5-1-0.8c-0.4-1.3-0.8-2.7-1-4.1c-0.3-2.7-1.9-4.7-3.2-6.9c-2.8-4.5-5.4-9.2-8-13.9c-1-1.8-1.7-3.7-2.5-5.5
		c-0.7-1.4-3.4-3-4.8-2.8c-0.2,0-0.5,0.1-0.7,0.3c-1.2,1.5-2.8,1.5-4.4,1.1c-1-0.2-1.9-0.6-2.8-1.1c-0.3-0.1-0.4-0.6-0.6-0.9
		c0.3-0.1,0.7-0.3,1-0.2c1.2,0.2,2.3,0.7,3.4,0.6c0.9,0,1.8-0.5,2.6-1c0.7-0.5,1.3-0.7,2-0.4c2.3,0.8,4.5,1.7,6.8,2.4
		c1.7,0.5,3.5,0.9,5.2,1.3c0.3-0.4,0.5-0.8,0.8-1.2c-2.1-1.9-4.3-3.4-6.9-4.4c-2.1-0.8-4.2-1.8-6.2-2.7c-0.6-0.2-1.1-0.5-1.6-0.8
		c-0.3-0.2-0.5-0.6-0.7-0.9c0.4,0,0.8-0.2,1.2-0.1c1.3,0.5,2.6,1.3,3.9,1.8c1.6,0.6,3.3,1.1,5,1.5c0.3,0.1,0.8-0.1,0.9-0.3
		c0.1-0.2,0-0.7-0.1-0.9c-1.6-2.8-3.7-4.8-7-5.4c-0.3,0-0.5-0.1-0.7-0.3c-0.3-0.3-0.5-0.6-0.8-0.9c0.4,0,0.8-0.1,1.1-0.1
		c0.5,0.1,1,0.3,1.5,0.4c3.3,0.9,5.7,2.8,7.1,5.9c0.5,1.2,1.8,2,1.6,3.6c0,0.3,0.9,0.8,1.4,1.1c2.6-2.9,1.2-6.7-0.8-8.8
		c-0.1-0.2-0.4-0.2-0.5-0.4c-1.4-3.1-4.4-4-7.1-5.2c-0.7-0.3-1.4-0.8-2.1-1.3c0.1-0.2,0.2-0.3,0.3-0.5c0.4,0.1,0.9,0.2,1.2,0.3
		c1.3,0.5,2.5,1.2,3.9,1.6c1.9,0.7,3,2.1,4.4,3.4c2.3,2.2,4.7,4.1,7.2,6.1c0.4,0.3,1.4,0.4,1.7,0.1c0.3-0.3,0.4-1.3,0.2-1.8
		c-0.5-1-1.3-2-2-2.9c-1.4-1.5-2.9-3-4.4-4.4c-0.9-0.8-1.9-1.4-2.8-2.1c-2.9-2.4-6.5-3.5-9.9-5.1c-0.4-0.2-1-0.1-1.3,0.1
		c-2.4,1.7-4.7,3.7-6.3,6.3c-0.5,0.9-1.3,1.6-1.9,2.5c-1.2,1.6-2.4,3.1-3.4,4.8c-0.4,0.7-0.5,1.6-0.6,2.4c-0.1,1.1-0.1,2.3-0.2,3.4
		c-0.2,2.5,1.2,4.6,2,6.8c0.6,1.6,1.2,3.3,2,4.8c1.1,2.4,2.3,4.8,3.5,7.2c3.1,6,5.5,12.2,7.4,18.6c-1.4,0.3-1.4,0.4-1.8-0.9
		c-2.3-7.6-5.6-14.8-9.2-21.8c-1.5-2.9-2.3-6.2-3.9-9.2c-1.6-3-1.3-6.1-1.2-9.2c0.1-2.3,1.4-4.3,2.7-6c2.1-2.7,4.3-5.4,6.6-8
		c1.1-1.2,2.4-2.1,3.7-3.1c0.9-0.6,1.8-0.4,2.7,0c1.2,0.6,2.5,1,3.7,1.6c3.5,1.8,7,3.5,9.8,6.4c0.5,0.5,1.1,0.8,1.7,1.4
		c0.1-0.4,0.2-0.6,0.2-0.8c0.3-4.4,0.4-8.8,0.8-13.1c0.5-4.8,0.3-9.6-0.4-14.4c-1-7.8-2.1-15.6-2.7-23.5c-0.3-4.3,0.2-8.6,0.4-13
		c0.3-5.3,2-10.4,3.6-15.4c0.6-1.7,1.6-3.2,2.5-4.7C39.8,13.4,45.5,8.3,51.9,4C53,3.2,54.6,2.9,56,2.4c1.7-0.5,3.4-0.9,5.1-1.4
		c5.4-1.6,10.7-1.3,15.8,0.7c2.3,0.9,4.4,2.4,6,4.6c3.7,4.9,7.9,9.5,10.4,15.3c2.7,6.2,4.2,12.6,3.9,19.4c0,1.1-0.5,2.2-0.9,3.3
		c-0.5,1.2-0.6,2.3,0,3.5c1.5,2.9,2.7,5.9,4.3,8.7c1.8,3,4,5.4,7.6,6.5c5.3,1.7,10.3,4.1,15.6,5.7c4.3,1.3,8.4,2.8,12.5,4.7
		c2.1,1,3.6,2.3,4.4,4.7c1.2,3.9,3,7.6,4.2,11.4c0.8,2.4,1,5,1.6,7.5c0.7,3.3,1.4,6.6,2.1,10c1.6,7.8,1.5,15.7,1.3,23.5
		c-0.1,4.6-0.2,9.1-0.3,13.7c-0.1,2.9-0.3,5.9-0.5,8.8c0,0.4-0.5,0.7-0.8,1c-0.2-0.1-0.4-0.1-0.5-0.2c0-2.5,0-5.1,0-7.6
		c0.2-9.4,0.7-18.8,0.5-28.1c-0.1-5.1-1.3-10.2-2.1-15.3c-0.3-2.2-0.8-4.5-1.3-6.7c-0.5-2.4-1.1-4.8-1.8-7.1
		c-0.7-2.4-1.9-4.7-2.5-7.2c-1.2-4.5-4-7.3-8.5-8.8c-6.8-2.2-13.5-4.5-20.3-6.9c-1.9-0.7-3.9-1.4-5.7-2.3c-3.2-1.6-5.5-4.1-7.1-7.3
		c-1.6-3.2-3.1-6.3-4.6-9.5c-1.3-2.8-2.6-5.6-4-8.6c-0.4,0.4-0.7,0.7-1,1.1c-1.1,1.5-2.7,2-4.5,1.8c-1.1-0.1-1.3-0.7-1-1.7
		c0.2,0,0.4-0.1,0.6,0c2.4,0.3,4.1-0.7,5-3c0.3-0.8,0.5-1.7,0.9-2.5c0.9-2.2-0.4-4.5-1.9-5.9c-1.3-1.3-3.8-1.1-5.7,0
		c-1.4,0.8-2,2.1-1.9,3.5c0.1,2.2,0.5,4.3,0.9,6.4c0.2,1.1,0.1,2-0.7,2.9c-0.8,0.8-1.6,0.6-2.4,0.1c-2-1.4-4.1-2.7-6-4.2
		c-4.3-3.4-9-5.7-14.6-5.8c-2.7,0-5.4,0.2-8.1,0.3c-1.5,0.1-3,0.1-4.5,0.1c-2.2,0-3.6,1.3-4.4,3.2c-1,2.5-1.3,5.1-0.2,7.8
		c0.8,2,1.3,4.2,1.8,6.3c0.5,1.9,0.7,2.3,2.6,2.6c3.9,0.7,5.7,2.4,6.6,6.3c0.4,2,1,4,1.5,6c0.3,1,0.8,1.7,1.8,1.8
		c1.1,0,1.9-0.3,2.4-1.4c0.2-0.5,0.9-0.8,1.4-1c2.1-0.7,2.1-0.7,2.1-2.7c0.8,0.3,1.1,1.8,0.3,2.5c-0.8,0.7-1.7,1.1-2.3,1.5
		c0.7,0.6,1.3,1.3,2.2,2.1c2.3-0.4,5-0.9,7.7-1.4c0.1,0.1,0.2,0.2,0.2,0.4c-0.9,2.1-1.9,4.1-4,5.6c0.4,0.3,0.8,0.6,1.2,0.8
		c1.1,0.5,1.7,1.3,1.9,2.5c0.6,2.4,2.8,3.3,5,2c0.6-0.4,1.2-0.9,1.7-1.4c1.8-2.2,3.7-4.3,5.3-6.7c0.9-1.4,1.4-3.1,2.1-4.6
		c1.2-2.6,2.3-5.2,3.5-7.8c0.9-2.1,0.8-4.2,0.2-6.3c-0.3-0.9-0.4-1.8-0.7-2.8c0.1-0.1,0.2-0.1,0.3-0.2c0.2,0.2,0.6,0.3,0.6,0.5
		c0.4,1.6,0.8,3.1,1.1,4.7C88,53.9,87,56,86.1,58c-1.4,3.3-3,6.5-4.5,9.8c-0.4,0.9-0.9,1.8-1.7,2.5c-0.9,0.8-0.6,1.5-0.3,2.4
		c0.7,1.8,1.4,3.6,2,5.4c0.1,0.4-0.1,0.8-0.4,1.2c-0.7-1.9-1.4-3.8-2.3-5.6c-0.2-0.4-0.8-0.8-1-0.8c-0.6,0.3-1.1,0.7-0.6,1.6
		c1.7,3.1,1.3,6.4,0.4,9.5c-1.3,4.7-2.9,9.3-4.5,13.8c-0.8,2.4-2,4.7-3,7c-0.4,0.9-0.2,1.5,0.7,1.6c3,0.6,6,1.1,9,1.7
		c4.2,0.8,8.4,1.6,12.4,3.3c1.6,0.7,3,1.7,4.5,2.6c0.3,0.1,0.5,0.3,0.8,0.4c5.3,0.4,10.5,1.2,15.8,0.8c2-0.2,4-0.8,6-1.3
		c0.2-0.1,0.5-0.8,0.4-1.2c-0.5-2.1-1.1-4.3-1.5-6.4c-0.2-0.9-0.2-1.8-0.2-2.7c0-0.3,0.4-0.5,0.5-0.8c0.2,0.2,0.6,0.4,0.6,0.7
		c2,8.3,4,16.6,5.8,25c0.6,3,0.8,6.1,1.2,9.1c0.5,4.7,1.1,9.5,1.6,14.2c0.1,0.6,0,1.3,0,2c-0.5,0-1,0-1.5,0
		c-0.6-5.7-1.1-11.3-1.7-17c-0.2-1.7-0.5-3.5-0.8-5.2c-0.1-0.3-0.4-0.6-0.6-0.9c-0.2,0.3-0.6,0.5-0.7,0.8c-0.7,3.2-1.4,6.5-2.1,9.7
		c-0.4,1.6-0.9,3.2-1.1,4.8c-0.4,2.4-0.7,4.7-1.1,7.1C118.2,153.4,118.1,153.6,118.1,153.8z M29.6,140.9c0.1,0,0.3-0.1,0.4-0.1
		c0.3-0.6,0.6-1.3,0.8-1.9c0.8-2.6,1.6-5.2,2.5-7.8c0.6-1.7,0.2-3-0.5-4.6c-1-2.1-1.8-4.4-2.5-6.7c-0.4-1.4-0.7-2.7-2-3.6
		c-0.6,1.1-1.3,2-0.9,3.5c0.4,1.7-1.5,2.9-3.6,2.4c-1.6-0.4-3.2-0.8-4.9-1.3C21.4,128.2,26,134.3,29.6,140.9z M54.9,107.2
		c0.1,0.4,0.3,0.7,0.4,1.1c0.4,1.4,0.7,2.7,1.1,4.1c0.1,0.3,0.6,0.6,0.9,0.8c0.2-0.4,0.5-0.8,0.4-1.1c-0.2-1.7-0.6-3.3-0.9-5
		c0.4-0.1,0.7-0.1,1.2-0.2c0.5,1.7,1.1,3.3,1.6,5c0.2,0.8,0.7,1.2,1.5,1c0.8-0.2,0.8-0.9,0.7-1.6c-0.5-2.5-1-5.1-1.4-7.6
		c-0.4-2.3-1-2.7-3.2-2.2c-3.5,0.7-7,1.5-10.5,2.1c-4.5,0.8-9.1,1.4-13.7,2.1c-0.4,0.1-0.7,0.6-1,1c0.5,0.2,1,0.7,1.5,0.7
		c2.1-0.3,4.3-0.7,6.4-1.1c3.5-0.6,7.1-1.1,10.6-1.8c2.4-0.4,4.7-1.1,7.1-1.5c0.4-0.1,1.1,0.4,1.2,0.8c0.1,0.6,0.1,1.3-0.8,1.5
		c-2.5,0.4-5,0.9-7.5,1.3c-3.9,0.7-7.8,1.4-11.7,2.1c-1.3,0.2-2.6,0.5-3.9,0.8c0.3,2.3,1.9,0.8,2.8,1.3c0,0.5-0.1,1.2,0,1.7
		c0.1,0.4,0.6,0.8,1,0.9c0.6,0.1,1-0.2,0.9-0.9c-0.1-0.7,0-1.5,0-2.2c1.3-0.5,1.5-0.4,1.7,0.9c0.1,0.3,0,0.6,0.2,0.9
		c0.2,0.3,0.5,0.5,0.8,0.7c0.2-0.3,0.6-0.6,0.7-1c0.1-0.6-0.1-1.3-0.1-1.9c0.5-0.1,0.9-0.2,1.4-0.4c0.2,0.5,0.4,1.1,0.7,1.5
		c0.2,0.3,0.6,0.4,1,0.7c0.2-0.3,0.4-0.7,0.4-1c0-0.5-0.2-1-0.3-1.5c1.8-0.4,1.9-0.3,2.3,1.5c0.1,0.3,0.1,0.7,0.3,1
		c0.2,0.3,0.6,0.5,1,0.8c0.1-0.4,0.4-0.8,0.4-1.2c-0.1-0.9-0.4-1.8-0.6-2.7c2.1-0.5,2.3-0.3,2.7,1.8c0.1,0.7,0.2,1.4,0.5,2
		c0.1,0.4,0.5,0.6,0.8,1c0.2-0.4,0.5-0.8,0.5-1.1c0-0.6-0.2-1.2-0.3-1.8c-0.1-0.9-0.3-1.9-0.4-2.8C54,107.5,54.4,107.3,54.9,107.2z
		 M44.9,12.7c-0.2,0-0.3-0.1-0.5-0.1c-0.4,0.3-0.9,0.5-1,0.9c-0.4,1.3-0.7,2.6-0.9,3.9c-0.3,2.6-0.4,5.1-0.6,7.7
		c-0.2,1.8-0.4,3.5-0.6,5.3c0,0.3,0.2,0.7,0.4,1c0.1,0.1,0.6,0.1,0.7,0c0.4-0.8,1.1-1.5,1.2-2.4c0.6-4.9,1-9.8,1.5-14.8
		C45.2,13.8,45,13.2,44.9,12.7z M66.6,67.7c-1,0.6-1.9,1.1-2.9,1.7C65,70.5,65.7,70.1,66.6,67.7z M67.1,66.3c0-0.1-0.1-0.2-0.1-0.3
		c-1.5,0.7-3,1.3-4.5,2c0.1,0.2,0.2,0.4,0.3,0.6C64.3,68,65.6,67,67.1,66.3z M29.1,115.7c0.1,0,0.3-0.1,0.4-0.1
		c-0.2-1.2-0.4-2.3-0.6-3.5c-0.2,0-0.3,0.1-0.5,0.1C28.7,113.3,28.9,114.5,29.1,115.7z"/>
	<path class="st0" d="M63.5,44.3c0.3,2.5-0.5,4.7-2.5,6.3c-1.3,1.1-3,1.3-5.1,0.8c1.6-0.9,2.9-1.4,4-2.3c1-0.9,1.7-2.3,2.5-3.4
		c-0.1-0.2-0.3-0.3-0.4-0.5c-2.7,1.1-5.3,2.2-8.1,3.4C55.2,46.3,60.7,44,63.5,44.3z"/>
	<path class="st0" d="M83.4,36.8c1.4-1.2,2.6-2.3,3.7-3.4c0.2-0.2,0.3-0.9,0.1-1.2c-0.2-0.3-0.8-0.5-1.2-0.6c-0.3-0.1-0.7,0.3-1,0.2
		c-0.6-0.1-1.5-0.1-1.6-0.5c-0.5-1.2,0-1.9,1.2-2.1c2.9-0.5,4.6,0.8,4.5,3.4c0,0.6-0.3,1.3-0.7,1.8c-0.9,1.1-2,2-3.1,2.9
		c-0.3,0.3-1,0.3-1.5,0.2C83.5,37.5,83.4,36.9,83.4,36.8z"/>
	<path class="st0" d="M95,75.9c0.3-0.2,0.6-0.4,1-0.5c1.8-0.3,3.6-0.5,5.4-0.8c2.8-0.4,5.5-0.8,8.3-1.2c2.9-0.4,5.3-1.8,7.9-2.9
		c0.6-0.3,1.3-0.3,2-0.5c0,0.1,0.1,0.2,0.1,0.4c-0.2,0.2-0.4,0.4-0.7,0.5c-4.2,2.3-8.7,3.6-13.5,3.9c-1,0.1-1.9,0.3-2.8,0.4
		c-2.5,0.4-4.9,0.8-7.4,1.3C95.1,76.3,95.1,76.1,95,75.9z"/>
	<path class="st0" d="M61.5,42.2c-0.5,0.4-0.8,0.6-1.1,0.7c-2.2,1.3-4.4,2.6-6.5,4c-1.1,0.8-1.9,1.9-2.9,2.8
		c-0.3,0.2-0.8,0.1-1.2,0.2c0.1-0.5-0.1-1.1,0.2-1.3c2.8-2.4,5.4-5.1,8.9-6.6c0.5-0.2,1.1-0.4,1.6-0.4C60.7,41.5,61,41.8,61.5,42.2z
		"/>
	<path class="st0" d="M90.2,68.6c1.7,4.3,1.1,8.2-1.8,11.8c-0.3,0.3-0.6,0.6-1.2,1.1c1.1-2.4,2.4-4.3,2.9-6.4
		C90.6,73,90.2,70.8,90.2,68.6z"/>
</g>
</svg>
