<?xml version="1.0" encoding="utf-8"?>
<!-- Generator: Adobe Illustrator 19.1.0, SVG Export Plug-In . SVG Version: 6.00 Build 0)  -->
<svg version="1.1" id="Layer_1" xmlns="http://www.w3.org/2000/svg" xmlns:xlink="http://www.w3.org/1999/xlink" x="0px" y="0px"
	 viewBox="0 0 120 175.9" style="enable-background:new 0 0 120 175.9;" xml:space="preserve">
<style type="text/css">
	.st0{fill:#E91E63;}
</style>
<g id="lice-lady">
	<path class="st0" d="M33.2,175.9c2.9-2.2,5.6-4.7,9.1-6c1.8-0.7,3.5-1.5,5.2-2.2c0.9-0.4,1.8-0.8,2.7-1c4.2-0.9,8.5-1.6,12.6-2.7
		c3-0.8,6-1.9,8.9-3.1c5.9-2.5,11.9-4.8,17-8.8c1.4-1.1,2.7-2.3,3.5-3.8c0.7-1.3,0.8-3,1-4.6c1.1-8.2,0.2-16.3,0.2-24.5
		c0-0.1-0.1-0.3-0.2-0.6c-1.3,1.5-2.7,2.8-3.7,4.4c-3.3,5-8.1,6.4-13.7,5.8c-1.6-0.2-3.3-0.5-4.8,0.5c-0.2,0.1-0.6-0.1-0.9-0.1
		c0.1-0.3,0.2-0.8,0.4-0.9c0.8-0.3,1.6-0.7,2.5-0.7c2-0.1,4.1,0,6.1,0.1c3.9,0.2,6.8-1.7,9.1-4.7c0.8-1,1.5-2.1,2.4-2.9
		c3.1-3.1,3-6.8,2-10.5c-1.1-4-2.3-8-3.4-12c-0.2-0.8-0.1-1.8,0-2.7c0.1-2-0.3-2.7-2-3.5c-1.8-0.8-2.1-1.4-1.8-3.3
		c0.2-1.2-0.3-2.6,1.1-3.6c0.2-0.1-0.1-0.8-0.1-1.2c0-0.7-0.3-1.5,0.6-2.1c0.3-0.2,0-1.2-0.1-1.8c-0.2,0-0.3,0-0.5,0
		c-0.2,1.3-0.4,2.5-0.6,3.8c-0.2,1.2-0.7,1.5-1.8,0.9c-0.7-0.4-1.3-1-1.9-1.5c-1.8-1.3-2.5-1.1-3.2,0.9c-0.7,2.1-1.4,4.1-2.1,6.2
		c-0.1,0.5,0,1,0,1.5c0.1,0,0.3,0,0.4,0c0.1-0.5,0.3-1,0.5-1.8c0.5,2.5,2.4,2.6,4,3.1c0.8,0.2,1.2,0.5,1.2,1.3
		c0,0.9,0.2,1.7,0.3,2.6c0.1,1.9-0.2,2.7-2.1,3.3c-2.3,0.8-4.7,1.3-7,1.8c-6.3,1.2-12.7,0.8-19.1,0.1c-2.2-0.2-4.4-0.2-6.8,0
		c0.4,0.3,0.7,0.7,1.1,1c1.6,1.1,3.2,2.1,4.8,3.3c0.7,0.5,1.2,1.2,1.7,2c0.9,1.5,0.1,3.2-1.6,3.1c-1.4-0.1-2.9-0.6-4.2-1.2
		c-1.5-0.7-2.7-1.9-4.1-2.7c-0.3-0.2-1.3,0-1.5,0.3c-1.2,1.8-2.8,2.4-4.7,1.4c-1-0.5-1.7-0.7-1.9,0.8c-0.1,0.4-0.7,1-1.2,1.1
		c-0.7,0.2-1.5,0.2-2.3,0.2c-0.8,0-1.3,0.1-1.7,1c-0.2,0.5-1.1,0.8-1.7,0.9c-1.3,0.2-2.6,0.2-3.9,0.2c-1.1-0.1-1.6,0.4-1.6,1.4
		c-0.4,4.6-0.7,9.2-1.1,13.9c3.6,0.3,6.7,1.9,9.8,3.6c1.1,0.6,2.5,0.8,3.7,0.9c2.5,0.2,5,0.1,7.5,0.1c0.5,0,1.1,0.2,1.6,0.3
		c0,0.2,0,0.3,0.1,0.5c-0.5,0.1-1,0.4-1.4,0.4c-3,0-6,0.1-9-0.2c-1.5-0.2-3-1-4.5-1.6c-2.5-1-5-2.1-7.8-3.3
		c-0.1,0.9-0.3,1.4-0.3,1.9c0.2,3.4,0.4,6.8,0.5,10.1c0,1.3-0.1,2.8-0.6,3.9c-2.3,5-3.4,10.2-4.1,15.6c-0.7,5.4-2.5,10.7-3.8,16
		c-0.6,0-1.2,0-1.7,0c0.9-3.4,1.8-6.7,2.6-10.1c0.6-2.9,1-5.9,1.5-8.8c0.3-1.9,0.6-3.8,0.9-6c-2,1.7-4,3.2-5.9,5
		c-1,0.9-1.6,0.9-2.6,0.2c-1.3-0.9-2.7-1.7-4-2.6C6,152.8,5.2,152,4.7,151c-2.6-4.2-3.5-8.8-4-13.6c-0.1-1.3-0.7-2.6-0.7-4
		c0-2.2,0.3-4.5,0.5-6.7c0.6-5.4,1.3-10.7,1.9-16.1c0.5-5.3,1.8-10.4,3.5-15.5c0.7-2.2,0.8-4.5,1.2-6.8c0.8-5.6,1.5-11.2,2.4-16.7
		c1-5.7,4.9-8.6,10-10.4c1-0.4,1.8-0.7,2.3-1.7c2.6-5.1,5-10.3,6.2-16c1.3-5.9,2.8-11.7,4.1-17.5c1-4.6,2.8-8.8,4.9-12.9
		c2-3.9,5.4-6.4,9-8.6c3.8-2.5,8.1-3.4,12.5-4.1c2.9-0.4,5.6-0.1,8.3,0.8c2.2,0.7,3.8,2.3,5.1,4.1c3.1,4.4,4.8,9.4,6.3,14.4
		c2,6.7,3,13.6,3.8,20.6c0.5,4.3,1.5,8.5,3.9,12.2c0.7,1.1,1.6,1.7,2.9,1.9c2.7,0.3,5.4,0.7,8.1,1c3.4,0.4,5.4,2.6,6.6,5.4
		c1.2,3,2.1,6.1,2.9,9.2c0.6,2.4,1,4.8,1.5,7.3c0.2,1,0.6,1.7,1.7,1.9c1,0.3,2,0.6,3,1c1.9,0.8,2.5,1.6,2.2,3.7
		c-0.2,1.4,0.2,2.6,0.7,3.9c0.4,1,0.7,2.3,0.4,3.3c-0.6,1.9-0.2,3.7,0.1,5.5c0.7,4.7,1.1,9.5,1.8,14.2c0.6,4.1,1.5,8.3,2,12.4
		c0.3,2,0.3,4.2-0.2,6.2c-1.1,4.7-2.8,9.2-5.2,13.4c-1.6,2.7-4.1,4.5-6.7,6.1c-0.5,0.3-1.6,0.1-2.3-0.2c-4.8-2-7-6.2-8.9-10.6
		c-0.2-0.5-0.3-1-0.8-1.4c-0.2,2.5-0.5,5-0.7,7.5c-0.1,1.4-0.2,2.9-0.3,4.3c-0.1,5.3,2.1,10,4,14.8c1.5,3.9,3.3,7.7,4.9,11.6
		c0.1,0.3,0.1,0.7,0.2,1c-0.7,0-1.4,0-2,0c-0.4-1.5-0.7-3.1-1.3-4.6c-2.6-5.8-5.5-11.5-7-17.8c-0.3-1.1-0.5-2.2-0.8-3.3
		c-1.2,1-2.2,2.1-3.3,2.9c-5.1,3.9-11.1,6.2-17,8.7c-2.8,1.2-5.7,2.4-8.7,3.1c-6.4,1.5-12.9,2.3-19,5c-3.6,1.6-6.7,3.7-9.9,5.9
		C34.2,175.9,33.7,175.9,33.2,175.9z M25.1,107.4c0-0.1,0.1-0.3,0.1-0.4c1.2-0.5,2.2,0.1,3.2,0.5c2.1,0.8,4.2,1.6,6.4,2.2
		c1.1,0.3,1.9-0.2,2.2-1.3c0.3-1.3-0.9-1.2-1.5-1.5c-2.4-1.3-4.8-2.6-7.2-3.9c-0.4-0.2-0.7-0.8-1-1.1c0.1-0.1,0.2-0.2,0.3-0.3
		c0.4,0.2,0.7,0.4,1.1,0.5c3.8,1.9,7.6,3.8,11.5,5.7c1.3,0.6,2.6,0.3,3.1-0.7c0.5-0.9-0.1-2.1-1.4-2.8c-2.6-1.5-5.3-3-7.9-4.5
		c-0.4-0.2-0.6-0.7-0.8-1.1c0.1-0.1,0.3-0.3,0.4-0.4c6,3.6,12,7.2,17.9,10.6c0.6-0.8,1.2-1.8,1.9-2.6c-2-1.4-4.1-2.9-6.1-4.4
		c-0.7-0.5-1.2-1.2-1.9-1.6c-4.2-2.5-8.5-4.8-12.6-7.4c-2-1.3-4.1-1.6-6.3-1.4c-3.8,0.2-7.7,0.6-11.5,0.8c-2.9,0.1-7.6,2.6-8.4,6.6
		c-0.9,4.4-2.1,8.6-2.4,13.1c-0.3,4.1-0.8,8.3-1.3,12.4c-0.5,3.5-1.4,7-0.7,10.6c0.5,2.6,0.6,5.2,1.3,7.7c1.1,4.3,2.1,8.7,6.8,10.8
		c0.2,0.1,0.4,0.3,0.6,0.4c1.7,1.2,2.3,1.2,3.8-0.2c1.7-1.6,3.4-3.1,5-4.9c1.3-1.5,2.8-2.9,3.6-5c0.9-2.2,0.7-4.3,0.5-6.5
		c-0.5-6.1-0.3-12.3,0.4-18.4c0.2-1.7,0.3-3.5,0.4-5.2c0-0.4-0.2-1-0.5-1.1c-2-0.6-4.1-1.1-6.5-1.7c0.2,3,0.2,5.6,0.4,8.2
		c0.4,4.7,0.8,9.3,3,13.6c0.4,0.7,0.7,1.5,0.9,2.3c0.5,2.1,0.8,4.1,1.1,6.2c0,0.3-0.6,0.7-0.9,1c-0.2-0.4-0.6-0.8-0.6-1.2
		c-0.1-0.8,0.1-1.6-0.1-2.3c-0.6-2.4-1.4-4.7-2.1-7c-0.5-1.5-1-3-1.3-4.6c-0.4-1.8-0.5-3.7-0.7-5.6c-0.3-2.9-0.7-5.8-0.6-8.6
		c0.1-1.7-0.5-2.3-1.9-2.6c-1.5-0.3-2.5-1.4-3.1-2.9c0.4,0,0.8,0.2,1.1,0.4c1.4,0.7,2.8,1.6,4.3,2.1c1.5,0.5,3.2,0.4,4.7,0.8
		c3.1,0.8,6.2,1.1,9.3,0.7c0.5-0.1,1-0.5,1.5-0.7c0-0.2-0.1-0.3-0.1-0.5C29.7,109.3,27.4,108.3,25.1,107.4z M90.6,92.7
		c0.2,2.2,0.2,3.9,0.5,5.6c0.6,2.8,1.6,5.5,2.3,8.2c1.3,5.6,1.8,11.3,1.8,17c0,2.6-0.1,5.1,0.4,7.6c0.3,1.6,1.4,3.1,2.2,4.7
		c1.3,2.6,2.5,5.3,3.9,7.9c1,2,3,2.6,4.8,3.5c0.2,0.1,0.5,0.1,0.7,0c1.6-1.2,3.3-2.2,4.6-3.6c2.7-3,3.9-6.7,5.2-10.4
		c1-2.7,1.8-5.4,1.4-8.3c-0.3-2.2-0.9-4.3-1.1-6.5c-0.6-5.2-1-10.5-1.5-15.7c0-0.3-0.1-0.7-0.2-1c-0.5-2.6-1-5.3-1.6-7.9
		c0-0.1-0.1-0.2-0.1-0.3c-0.2,0-0.4,0.1-0.5,0.1c-0.2,0-0.4,0-1.2,0.1c2.8-2.7,3.3-5.2,0.2-7.5c0.2-0.4,0.5-0.7,0.6-1
		c0.9-2,0.5-3.2-1.4-3.8c-1-0.3-1.9-0.7-2.9-0.9c-4.3-0.8-8.7-1.3-13.1-0.6c-1.8,0.3-3.5,0.7-5.1,1c-0.1,1.2-0.2,2.2-0.3,3.4
		c0.9-0.2,1.8-0.5,2.7-0.7c3.1-0.8,6.2-0.8,9.3-0.5c1.3,0.1,2.6,0.6,3.9,1c0.9,0.3,1.8,0.6,2.6,1c0.2,0.1,0.6,0.3,0.5,0.5
		c0,0.2-0.3,0.6-0.5,0.6c-0.7,0.1-1.4,0.1-2.2,0c-1.7-0.1-3.3-0.4-5-0.5c-1.6-0.1-3.2-0.2-4.8-0.2c-2.5,0-5,0-7.4,0
		c-0.2,0.7-0.4,1.6-0.6,2.6c0.6,0.1,1.3,0.2,1.9,0.3c2.5,0.3,5,0.5,7.4,0.9c1.9,0.3,3.7,0.8,5.6,1.1c1.3,0.2,2.7,0.2,4,0.4
		c0.4,0,0.8,0.3,1.2,0.4c-0.4,0.2-0.8,0.7-1.1,0.7c-2.6-0.3-5.2-0.7-7.8-1.1c-3.6-0.5-7.1-1-10.6-1.5c-0.2,0.8-0.4,1.3-0.6,1.9
		c0.2,0.1,0.4,0.2,0.6,0.2c3.6,1.1,7.1,2.1,10.7,3.2c0.6,0.2,1.3,0.2,2,0.3c1.5,0.3,3,0.5,4.5,0.8c0.4,0.1,0.6,0.6,0.9,0.9
		c-0.5,0-1,0.2-1.4,0.1c-0.9-0.1-1.8-0.6-2.6-0.6c-2.5,0-4.9-0.5-7.1-1.7c-0.8-0.4-1.6-0.7-2.5-1c-0.1,0.2-0.2,0.3-0.2,0.5
		c2.4,1.4,4.8,2.9,7.2,4.3c1.6,0.9,3.2,1.8,4.2,3.5c0.4,0.7,1.3,1.1,2.1,1.4c1.3,0.5,2.5,0.1,3.6-0.6c0.2-0.1,0.6,0,0.9,0
		c-0.1,0.2-0.1,0.6-0.3,0.7c-1,1-2.2,1.6-3.7,1.2c-0.6-0.2-1.3-0.3-2-0.4c-0.1,0.7-0.1,1.4-0.2,2c-0.4,2.9-0.8,5.8-1.1,8.7
		c-0.4,4.3-1,8.5-3.1,12.4c-1,1.8-1.5,3.8-2.3,5.7c-0.1,0.3-0.4,0.5-0.6,0.8c-0.2-0.1-0.3-0.1-0.5-0.2c0.2-0.9,0.2-1.8,0.5-2.6
		c0.7-1.6,1.4-3.3,2.3-4.8c1.7-3.2,2.4-6.7,2.7-10.4c0.2-2.9,0.7-5.8,1-8.7c0.1-1.1,0.3-2.2,0.2-3.3c-0.2-2.2-2-3.3-3.7-4.3
		c-2.6-1.6-5.2-3.2-7.8-4.9C92.4,93.6,91.7,93.3,90.6,92.7z M46,44.1c-0.2,0-0.3,0.1-0.5,0.1c0.6,3,1,6.1,1.7,9.1
		c0.5,2.2,1.3,4.3,2.1,6.5c0.2,0.5,0.6,1,1,1.2c1.5,0.8,3,1.8,4.6,2.3c3.4,1.2,7,1,9.9-1.1c3.7-2.6,6.4-6.3,7.4-10.8
		c0.7-3.2,1.1-6.5,1.9-9.7c0.8-3.5,1.4-7,0.6-10.7c-1.3-5.4-2-11-5.2-15.8c-1.6-2.4-2.8-3.1-5.7-2.6c-1.8,0.3-3.6,0.3-5.4,0.7
		c-2,0.4-4.2,0.5-5.8,1.5c-2.9,1.9-4.4,5-5.4,8.3c-1.6,5.1-1.6,10.4-1.5,15.7C45.5,40.5,45.8,42.3,46,44.1z M70,58.7
		c-5.8,7.8-12.8,7.5-20.8,3c0.5,1.5,0.8,2.8,1.2,4c0.7,1.9,1.7,3.6,2.2,5.5c0.7,2.4,1.1,2.8,3.6,3.2c1,0.1,2,0.6,2.9,1.1
		c0.3,0.2,0.4,0.8,0.6,1.2c-0.5,0.1-1,0.3-1.4,0.3c-1.2-0.2-2.4-0.5-3.7-0.7c0.3,2.1,0.7,3.8,0.9,5.6c0.5,3.5,0.4,7-2.3,9.8
		c-0.9,0.9-0.7,1.6,0,2.3c2.1,0.2,2.3-1.3,3-2.6c0.2,0.4,0.3,0.9,0.6,1.6c0.5-0.4,0.8-0.8,1.2-1c0.3-0.2,0.8-0.5,1-0.4
		c1.4,1.1,1.8-0.1,2.3-1c1.2,1.2,1.6,1.1,2.7-0.3c1.3,1.2,2.2,1.1,3.1-0.2c0.5,0.2,0.9,0.6,1.3,0.6c0.3,0,0.6-0.6,0.8-0.7
		c0.6,0.3,1.1,0.6,1.7,0.9c0.2-0.8,0.3-1.3,0.5-1.9c0.6,0.6,0.2,2.1,1.6,1.6c0.1-0.5,0.2-1.2,0.3-1.2c1.5-0.1,1.2-1.4,1.6-2.2
		c0.5-1.1,0.7-2.4,1.2-3.6c0.7-1.7,1.7-3.3,0.2-5.1c-0.9-1-1.3-2.5-1.9-3.7c-0.5-1.1-1.2-1.4-2.4-0.8c-0.7,0.4-1.7,0.4-2.5,0.6
		c-1.3,0.4-2.6,0.8-3.9,1.1c-0.6,0.2-1.3,0.2-1.9,0.3c0.4-0.6,0.7-1.3,1.2-1.7c0.4-0.4,1-0.5,1.6-0.7c1.3-0.3,2.5-0.6,3.8-0.9
		c2.3-0.5,2.7-1,1.9-3.2C70.7,66,69.5,62.6,70,58.7z M25.9,90.4c1.3-5.7,2.7-11.2,3.9-16.8c0.7-3.5-0.1-7-0.9-10.4
		C28.6,62.3,28,61.9,27,62c-1.6,0.2-3.2,0.4-4.7,0.4c-4.7-0.1-10.1,4-11.1,8.6c-0.3,1.6-0.7,3.1-0.9,4.7c-0.5,3.9-1,7.8-1.5,11.6
		c-0.3,2.1-0.6,4.2-0.9,6.7c0.8-0.5,1.2-0.9,1.8-1.1c1.3-0.6,2.6-1.4,4-1.6C17.7,90.9,21.8,90.7,25.9,90.4z M88.4,56
		c-0.2,0-0.3,0-0.5,0c-0.4,3.2-1,6.4-1.2,9.7c-0.1,2.4,0.3,4.9,0.6,7.3c0.3,1.9,0.8,3.9,1.2,5.8c0.2,1,0.8,1.2,1.8,1
		c3.9-1,7.8-1.5,11.9-1.3c1.1,0,2.1,0.2,3.5,0.4c-1-4.7-1.9-9.1-2.9-13.5c-0.6-2.5-1.7-4.8-3.4-6.8c-0.4-0.4-1-0.9-1.5-1
		c-3.1-0.6-6.2-1.1-9.4-1.6C88.5,56,88.4,56,88.4,56z M27.2,90c1.4,0.2,2.5,0.1,3.3,0.6c3.7,2,7.3,4.2,10.9,6.2
		c0.7,0.4,1.6,0.9,2.4,1c2.1,0.1,4.3,0.1,6.4,0c0.4,0,0.8-0.5,1.2-0.7c-0.4-0.4-0.8-0.9-1.2-1.2c-0.7-0.3-1.6-0.4-2.3-0.7
		c-1.3-0.7-2.4-1.8-3.8-2.4c-2.8-1.3-5-3.1-6.3-5.9c-1.5-3.2-2.8-6.3-2.2-10c0.9-5.1-1.3-9.5-3.8-13.6c-0.1-0.2-0.3-0.4-0.5-0.5
		c-0.3-0.1-0.6-0.2-0.9-0.3c0,0.3-0.2,0.7-0.1,0.9c0.3,0.7,0.8,1.3,0.9,1.9c1.4,6,0.2,11.7-1.8,17.3C28.5,84.9,28,87.4,27.2,90z
		 M63.4,92.3c-2.2-0.6-1,1.7-2.1,2.3c-0.2-0.7-0.4-1.3-0.7-2.4c-0.6,0.8-0.8,1.6-1.3,1.8c-0.6,0.2-1.4-0.1-2-0.1
		c-0.2,0-0.4,0.3-0.6,0.5c-0.2,0.1-0.4,0.3-0.6,0.3c-0.8,0.1-1.5,0.2-2.3,0.2c4.8,2.8,24.7,1.1,27.4-2c-0.9-0.3-1.8-0.6-2.6-0.8
		c-0.2,0.5-0.4,0.8-0.6,1.2c-0.3-0.6-0.5-1.1-0.8-1.6c-0.1,0-0.2,0.1-0.3,0.1c-0.1,0.4-0.2,0.8-0.3,1.2c-1-0.2-1-2.2-2.5-1.3
		c0,0.5-0.1,1-0.1,1.5c-0.1,0-0.2,0.1-0.3,0.1c-0.2-0.6-0.5-1.2-0.7-1.8c-1.8-0.3-0.5,1.6-1.4,2c-0.2-0.7-0.4-1.4-0.6-2.1
		c-0.1,0-0.3-0.1-0.4-0.1c-0.3,0.7-0.5,1.5-0.9,2.7c-0.3-1-0.5-1.6-0.7-2.3c-0.4,0-0.8,0-1.2,0c-0.1,0.7-0.1,1.3-0.2,2
		c-0.1,0-0.3,0-0.4,0c-0.2-0.6-0.4-1.3-0.6-2c-0.5,0-1,0.1-1.5,0.1c-0.1,1-0.1,1.7-0.1,2.5c-0.2,0-0.3,0-0.5,0.1
		C64,93.8,63.7,93,63.4,92.3z M53.3,96.8c-0.3,2-0.2,2.1,1.4,2.5c0.8,0.2,1.5,0.3,2.3,0.4c5.7,0.8,11.3,0.1,16.9-0.5
		c2.5-0.2,4.9-1.2,7.3-2.1c1.5-0.5,1.6-1.8,0.7-2.8c-1.6,0.8-3,2-4.6,2.3c-3.9,0.8-7.8,1.2-11.7,1.6C61.5,98.5,57.3,98.6,53.3,96.8z
		 M95,84c0,0.1,0,0.2,0,0.3c1,0.1,1.9,0.2,2.9,0.2c0.9,0.1,1.8,0.1,2.7,0.1c0.9,0,1.7-0.2,2.6-0.2c0-0.1,0-0.3,0-0.4
		C100.4,84,97.7,84,95,84z M52.9,109.6c0.8-0.2,2,0.7,2.1-1c0-0.7,0-1.5-1-1.3C52.8,107.5,52.5,108.3,52.9,109.6z M89.2,81.3
		c-0.2,0-0.3-0.1-0.5-0.1c-0.5,0.6-1,1.2-1.3,1.9c-0.1,0.2,0.4,0.9,0.7,0.9c1.1,0.1,1.3-0.9,1.5-1.7C89.7,82,89.4,81.6,89.2,81.3z
		 M88.2,85c-1.2,0.1-2,0.5-1.7,1.8c0.1,0.3,0.8,0.8,1,0.7C88.3,87,88.8,86.2,88.2,85z M86.2,88.9c0.5,0.5,1,0.9,1.5,1.5
		C88.5,88.8,88.2,88.5,86.2,88.9z"/>
	<path class="st0" d="M112.9,95c-0.2,0.8-0.3,1.3-0.6,1.6c-1.2,1.2-2.5,2.4-3.8,3.5c-0.2,0.1-0.5,0.1-0.8,0.1c0-0.3-0.1-0.7,0.1-0.9
		c0.6-0.6,1.2-1.2,1.9-1.8C110.6,96.7,111.6,96,112.9,95z"/>
	<path class="st0" d="M67,50c-1.2-2.4-4.3-3.7-6.9-3c-0.4,0.1-0.8,0-1.1,0.1c-0.9,0.3-2,0.4-2.7,1c-1.1,0.9-2.1,2.1-3.3,3.4
		c1.5,1.1,2.7,2.5,4.3,3c3.9,1.2,7.2-0.2,9.6-3.6C67,50.8,67.2,50.3,67,50z M55.1,50.4c0.7-0.7,1.2-1.8,2.1-2
		c1.8-0.5,3.7-0.9,5.6-0.8c0.9,0,1.8,1.2,2.7,1.8c0,0,0,0-0.1,0.1c0.5,0.4,0,1.1-0.5,0.8c-1-0.6-2.2-1-3.3-1.2
		c-0.6,0-1.1,0.1-1.8,0.2c-1.4,0.3-2.7,0.9-3.8,1.8c-0.4,0.3-0.9-0.3-0.7-0.7C55.3,50.3,55.2,50.4,55.1,50.4z M55.3,52
		c3.7,1.4,7.1,0.6,10.7-1.5C63.7,54.7,57.5,55.4,55.3,52z"/>
	<path class="st0" d="M68.8,31.1c-0.4-0.1-0.7-0.3-1.1-0.4c-1.7-0.5-5.3,0.8-6.3,2.2c2.2,2.6,5.5,2.8,8,0.5
		C71,31.9,71,31.9,68.8,31.1z M65.1,33.5c0,0.1,0,0.1,0,0.2c0.2,0.4-0.4,0.9-0.8,0.5c-0.2-0.1-0.3-0.3-0.5-0.5
		c-0.3-0.2-0.7-0.4-1.1-0.6c0.8-0.5,1.4-0.9,2-1.3v0.3c0.1,0,0.1,0,0.2,0.1c0.4,0.1,0.4,0.5,0.3,0.8V33.5z M69.2,32.9
		C69.2,32.9,69.2,32.9,69.2,32.9C69.1,33,69.1,33,69,33.1c-0.1,0.1-0.3,0.1-0.4,0.1c-0.1,0.2-0.2,0.3-0.4,0.4
		c-0.3,0.1-0.8,0-0.8-0.4c0-0.3,0.1-0.5,0.1-0.8c0-0.3,0.3-0.6,0.6-0.5c0,0,0,0,0.1,0c0.1-0.1,0.3-0.2,0.5-0.1
		c0.2,0.1,0.3,0.1,0.5,0.2C69.5,32.1,69.5,32.7,69.2,32.9z"/>
	<path class="st0" d="M46.5,32.8c1.8-0.6,3.4-1.2,5.1-1.7c1.1-0.3,3.3,1.2,3.4,2.3c0,0.3-0.2,0.6-0.4,0.8c-2.1,2.2-6,2.1-7.8-0.4
		C46.5,33.6,46.6,33.2,46.5,32.8z M52.1,34.9c0.1,0.1,0.2,0.2,0.2,0.3c0.6-0.5,1.3-1,2.2-1.7c-0.9-0.5-1.5-0.8-2-1.1
		C52.3,33.4,52.2,34.1,52.1,34.9z M47.7,33.2c-0.1,0.1-0.1,0.2-0.2,0.3c0.8,0.6,1.7,1.1,2.7,1.9c-0.3-1-0.5-1.5-0.7-2.1
		C49,33.2,48.4,33.2,47.7,33.2z"/>
	<path class="st0" d="M63.4,39.2c0.4,0.9,1,1.8,1,2.7c0,1-0.9,1.5-1.9,1.5c-0.3,0-0.6,0.4-0.8,0.6c-0.8,0.8-1.7,1.1-2.9,0.5
		c-0.5-0.2-1.1-0.3-1.6-0.3c-1.8,0-2.8-1.4-2-3c0.4-0.9,1.1-1.6,1.8-2.4c0.2,1.6-2.4,2.6-1.2,4.1c0.4-0.3,0.9-0.7,1.3-0.7
		c0.4,0,0.8,0.5,1.1,0.9c0.9,1.1,2.2,1.1,3-0.2c1-1.5,1-1.5,2.5-1.2c-0.4-0.9-0.7-1.6-1-2.4C63,39.3,63.2,39.3,63.4,39.2z"/>
	<path class="st0" d="M57,25c0.5,0.8,0.5,2.6-0.1,3.8c-0.5,0.9-1.1,1.6-2.5,1.6c-2,0-4.1,0.3-6.1,0.5c-0.4,0-0.8-0.4-1.2-0.6
		c0.3-0.3,0.6-0.7,0.9-0.8c2.4-0.3,4.8-0.4,7.2-0.7c0.5-0.1,1.1-0.6,1.3-1C56.8,26.8,56.9,25.8,57,25z"/>
	<path class="st0" d="M58.8,24.7c0.4,1.1,0.8,1.9,1.2,2.8c0.4,0.9,1.1,1.1,1.9,0.6c2.1-1.1,4.3-0.7,6.5-0.3c0.3,0.1,0.6,0.5,0.9,0.8
		c-0.3,0.1-0.7,0.3-1,0.3c-1.8,0.1-3.7,0.2-5.5,0.4C60.2,29.5,58.9,28.3,58.8,24.7z"/>
</g>
</svg>
