<?xml version="1.0" encoding="utf-8"?>
<!-- Generator: Adobe Illustrator 19.2.0, SVG Export Plug-In . SVG Version: 6.00 Build 0)  -->
<svg version="1.1" id="Layer_1" xmlns="http://www.w3.org/2000/svg" xmlns:xlink="http://www.w3.org/1999/xlink" x="0px" y="0px"
	 viewBox="0 0 185.5 193.2" style="enable-background:new 0 0 185.5 193.2;" xml:space="preserve">
<style type="text/css">
	.st0{fill:#00BCD4;}
</style>
<g id="lady-migraine">
	<path class="st0" d="M11.8,178.8c1.3,3.7,2.6,7.5,4,11.2c0.4,1.1,0.9,2.1,1.4,3.2h2.6c-0.6-1.5-1.3-3.1-1.8-4.6
		c-1.2-3.2-2.3-6.5-3.4-9.7c-0.7-1.8-1.4-3.6-2.1-5.5c-1.1-3.1-2-6.2-1.8-9.5c0.3-4.4,0.6-8.8,1.4-13.2c1-5,4.2-8.7,8.3-11.6
		c2.3-1.7,4.8-3.1,6.6-5.5c0.7-0.9,1.7-1.3,2.9-1.1c0.3,0,0.5,0.2,0.7,0.3c1.6,1.4,3.1,2.9,4.7,4.4c1.1,1,2,2.1,2.4,3.6
		c0.2,0.6,0.4,1.3,0.9,1.8c0.3,0.3,1.2,0.6,1.3,0.5c0.4-0.3,0.7-1.1,0.6-1.5c-0.7-1.6-1.4-3.2-2.5-4.5c-1.2-1.4-2.8-2.6-4.3-3.9
		c0.4-0.1,0.8-0.3,1.2-0.5c2.4-1,4.8-2.1,6.8-3.8c0.7-0.6,1.6-0.7,2.5-1.1c1.4-0.6,2.9-1.2,4.3-1.8c1.1-0.4,1.9-0.1,2.6,0.8
		c3.8,5.1,7.6,10.1,10.7,15.7c1.3,2.5,3.3,4.3,5.9,5.3c1.5,0.6,2.1,1.7,2.1,3.2c0.1,3.7,0,7.3,0.1,11c0.1,3.6,0.4,7.2,0.6,10.7
		c0.2,4.7,0.3,9.3,0.5,14c0,0.1-0.1,0.1-0.3,0.3c-1.7-3.7-5.6-5-8.2-7.7c-1.8-1.8-3.3-3.9-4.9-5.8c-0.1-0.2-0.2-0.6-0.1-0.7
		c0.6-0.7,0.3-1.3,0.1-2c-0.8-2.6-1.6-5.3-2.4-7.9c-0.9-3-2.5-5.6-4.4-8c-1.8-2.2-3.2-4.6-5.6-6.2c-0.5-0.4-1.2-0.6-1.8-0.7
		c-0.2-0.1-0.7,0.3-0.8,0.5c-0.1,0.2,0,0.8,0.3,0.9c3.2,2,5,5.3,7.1,8.2c1.3,1.8,2.2,3.9,3.3,5.8c-0.1,0.1-0.2,0.1-0.3,0.2
		c-0.9-1.1-1.6-2.3-2.6-3.4c-2.3-2.4-5.1-3.9-8.2-5c-0.8-0.3-1.9-0.2-2.8-0.1c-0.3,0-0.9,0.6-0.9,0.8c0.1,0.4,0.6,1,0.9,1
		c3.4-0.1,5.9,2,8.4,3.8c2.2,1.5,3.4,3.9,4.2,6.3c1.1,3.1,2.5,5.9,4.3,8.6c2.5,3.6,5.6,6.5,9.3,8.8c2.2,1.4,3.4,3.5,4.2,5.8
		c0.3,0.8,0.1,1.7-0.1,2.7h2.7c0.4-2,0.8-4,1-6c0.3-2.5,0.2-5,0-7.5c-0.2-3.7-0.8-7.4-1-11.1c-0.2-4.2,0.1-8.4-0.1-12.6
		c-0.1-2.5-0.6-4.9-0.9-7.3c-0.2-1.5-0.2-2.9-0.2-4.4c0-1.8,1.2-2.9,2.6-3.9c0.9-0.7,2-1.2,2.1-2.9c-1.2,0.3-2.2,0.6-3.3,0.9
		c0-1.6,0-3,0-4.5c-0.1-6.1-0.1-12.1-0.2-18.2c-0.1-3.4-0.2-6.8-0.4-10.2c-0.1-2.1,0.7-3.8,1.6-5.5c0.1-0.2,0.5-0.4,0.6-0.4
		c0.2,0.2,0.5,0.5,0.5,0.7c-0.1,1.5-0.2,3-0.5,4.5c-0.2,1-0.7,1.9-0.8,2.8c-0.2,1.6-0.3,3.3-0.2,5c0,0.4,0.8,0.7,1.3,1.1
		c0.4-2.7,0.6-5.1,1.1-7.5c0.6-2.9,0.4-5.7,0.5-8.6c0.1-2,0.7-3.9,1.1-5.9c0.2-1.2,0.5-2.5,0.7-3.7c0.1-0.2,0.2-0.5,0.3-0.7
		c0.1,0,0.3,0,0.4,0c0.1,0.8,0.3,1.6,0.2,2.3c-0.3,2.9-0.8,5.7-0.8,8.6c-0.1,3.2-0.8,6.3-1.4,9.5c-0.3,1.9-0.1,3.9-0.1,5.9
		c1-0.1,1.4-0.5,1.4-1.6c-0.1-2.7,0.3-5.3,1.3-7.8c0.3-0.9,0.3-1.9,0.4-2.9c0.3-2.9,0.6-5.8,0.7-8.7c0.1-2.5-0.1-5.1-0.3-7.6
		c0-0.8-0.1-1.3,1-1.4c1.2-0.1,2-1.3,2.1-2.7c0-0.3,0-0.7,0.1-1c0.1,0,0.3-0.1,0.4-0.1c0.2,1,0.7,2,0.7,3c0.1,3.5,0.1,6.9,0.6,10.3
		c0.4,2.5,0,5.2-0.2,7.7c0,0.3-0.7,0.7-1.1,0.9c-0.3,0.1-0.8,0-1.3,0c0.3,1.6,1.5,0.7,2.2,1.1c0.5,2,0.9,4.2,1.5,6.2
		c1.1,3.3,0.9,6.7,1.4,10.1c0.5,3.6,1.2,7.2,1.8,10.8c0.5,2.7,0.5,5.3-0.2,7.8c-1.5-0.6-2.9-1.3-4.3-1.7c-0.4-0.1-0.9,0.3-1.3,0.5
		c0.3,0.4,0.5,1.1,0.8,1.2c1.4,0.4,2.8,1,3.7,2.2c0.2,0.2,0.4,0.5,0.4,0.8c-0.8,4.2,0.7,8.1,1.9,12.1c1.2,3.8,2.4,7.5,3.6,11.3
		c0.2,0.5,0.2,1.1,0.2,1.6c0.1,4.8,0.6,9.5,1.8,14.1c1.1,4.4,2.2,8.9,3.3,13.3h2.3c-0.5-2-1.1-4-1.7-6c-1.3-4.3-2.1-8.8-3.1-13.3
		c-0.3-1.5-0.3-3.1-0.5-4.6c1.4,1,2.9,1.9,4.3,2.9c0.6,0.4,1.1,1,1.6,1.5c0.2,0.2,0.4,0.6,0.7,0.6c1.9,0.4,3.1,1.9,4.5,2.9
		c0.5,0.3,1,0.6,1.6,0.8c0.3,0.1,0.9,0,1-0.2c2-3.1,4.6-5.9,5.5-9.6c0.5-1.9,1.1-3.8,2.2-5.5c1.1-1.7,1.2-3.5,1-5.4
		c-0.2-1.8-0.3-3.7-0.9-5.4c-0.8-2.2-1.9-4.4-3-6.4c-1.5-2.8-3.4-5.4-4.9-8.2c-0.8-1.6-1.2-3.5-1.9-5.5c2,0.9,3.7,1.8,5.5,2.6
		c3.7,1.6,7.4,3.3,11.2,4.8c1.5,0.6,3,0.3,4.5-0.5c1.2-0.7,1.8-0.6,2.7,0.4c1.2,1.3,2.6,2.5,3.5,4.1c1.6,2.8,3,5.6,3.1,9
		c0,1.6,0.8,3.3,1.7,4.7c2,3.1,3.3,6.6,4.8,9.9c0.9,1.9,2,3.7,2.6,5.7c0.6,1.7,0.8,3.6,0.9,5.5c0.5,4.9,0.9,9.7,1.1,14.6
		c0,0.2,0,0.4,0,0.5h2.4c-0.2-4.2-0.5-8.4-0.9-12.5c-0.2-2.6-0.4-5.2-0.8-7.7c-0.5-3.2-1.3-6.4-1.9-9.6c-0.4-2.1-0.8-4.3-1.1-6.4
		c-0.1-0.5-0.2-1.1-0.4-1.6c-1.1-2.8-2.2-5.6-3.4-8.4c-0.6-1.4-1.3-2.7-2-4.2c1.5,0,3,0.1,4.4,0c0.7,0,1.4-0.3,2-0.6
		c0.3-0.1,0.3-0.7,0.4-1.1c-0.4-0.1-0.8-0.4-1.1-0.4c-2.4,0.1-4.7,0.2-7.1,0.4c-0.2,0-0.4-0.1-0.5-0.2c-2.8-2.4-5.6-4.8-6.9-8.6
		c-1.5-4.4-3-8.7-3.8-13.3c-0.2-1.3-0.3-2.5-0.6-3.8c-0.3-1.2-0.7-2.3-1.1-3.7c1.1-1.2,2.4-2.5,3.9-4.2c0.8,2,1.6,3.8,2.2,5.7
		c0.5,1.4,0.9,2.9,1.5,4.4c0.3,0.8,1.1,0.8,1.7,0c1.7-2.1,2.3-4.4,2-7.1c-0.3-2.7-0.4-5.4-0.5-8.1c0.2,0.1,0.3,0.1,0.5,0.2
		c0.4-0.4,0.8-0.9,1.2-1.3c-0.6-0.2-1.1-0.3-1.6-0.5c-2.8-4.1-2.2-8.6-1.2-13.1c0.2,0,0.3-0.1,0.5-0.1c0.7,2,1.4,4,2,6.1
		c0.6,2.3,1,4.7,1.5,7.1c0,0.2,0.1,0.4,0.2,0.4c0.4,0.2,0.9,0.4,1.3,0.6c0.2-0.4,0.5-0.9,0.5-1.3c0-0.6-0.3-1.1-0.6-1.9
		c0.6,0,1,0.1,1.4,0c0.3-0.1,0.5-0.3,0.8-0.5c-0.3-0.2-0.5-0.6-0.8-0.7c-0.5-0.1-1,0-1.7,0c-0.3-1.7-0.7-3.3-1-4.9
		c0.7-0.4,1.2-0.7,1.8-1c-0.5-0.2-1.1-0.5-1.6-0.7c-0.3-0.1-0.5-0.3-0.7-0.6c-0.6-1.1-1.3-2.2-1.7-3.4c-0.3-0.9-0.4-1.9-0.4-2.9
		c-0.1-1.1,0-2.2,0-3.2c0-1.1,0.2-2.1,0.3-3.2c1.3,0,2,0.8,2.3,2.1c0.6,2.5,1.3,4.9,1.8,7.3c0.5,2.2,1,4.4,1.3,6.6
		c0.4,2.4,0.6,4.7,0.8,7.1c0,0.2,0,0.4,0.1,0.6c0.3,0.4,0.7,0.7,1,1c0.3-0.4,0.7-0.8,0.7-1.3c0.2-2.9-0.7-5.8-1-8.6
		c-0.4-4.1-2.4-7.7-3.2-11.7c-0.1-0.7-0.4-1.4-0.3-2.1c0-0.4,0.3-1,0.6-1.1c0.5-0.1,1.4-0.1,1.6,0.2c1.7,2.6,3.3,5.4,5,8.1
		c-2.7,1.4-3.2,2.3-2.6,5c0.6,2.7,1.2,5.4,1.7,8.2c0.2,1.3,0.1,2.6,0.2,3.9c0,0.7,0,1.5,0.9,1.6c0.8,0,1.1-0.8,1-1.5
		c-0.3-2.6-0.7-5.3-1.1-7.9c-0.3-2-0.8-3.9-1-5.8c-0.1-0.5,0.2-1.3,0.6-1.4c0.9-0.4,1,0.5,1.2,1c1.9,4.3,3,8.9,4.1,13.5
		c0.8,3.3,1.7,6.6,2.5,10c0.7,2.7,0.6,5.3,0.3,8c-0.3,3.4-0.3,6.9-0.5,10.4c0,1-0.2,2.1-0.2,3.1c0.2,4,0.8,7.9,3.4,11.3
		c0.6,0.8,0.8,2.1,0.8,3.2c0,8,1.7,15.7,3.9,23.3c1.4,4.5,2.8,9,4.4,13.4c0.9,2.3,2.2,4.5,3.2,6.8c0.3,0.6,0.6,1.3,0.9,1.9h2.4
		c-0.5-1.4-1.1-2.8-1.6-4.3c-0.5-1.3-1.6-2.5-2.1-3.8c-1-2.6-1.6-5.2-2.5-7.8c-1.8-4.9-3.6-9.8-4.6-15c-0.8-4.2-1.8-8.4-1.7-12.7
		c0.1-3.6-1-6.7-2.6-9.9c-0.7-1.4-1.4-2.8-1.5-4.3c-0.2-2.9-0.2-5.9-0.1-8.9c0.1-3,0.4-6,0.5-8.9c0.1-2.5-0.2-5-0.9-7.4
		c-1.2-4.1-2.3-8.3-3.4-12.4c-0.7-2.5-1.5-5-2.3-7.4c-0.9-2.6-1.7-5.3-2.9-7.7c-1-2.2-2.4-4.2-3.7-6.2c-0.6-1-2-1.6-3.2-1.3
		c-0.6,0.1-1.1,0.4-1.7,0.6c-0.2-1.3-1.5-2.2-1-3.7c0.4-1.2,0.6-2.4,1.1-3.6c0.9-2.1,1.3-4.3,1.1-6.6c-0.2-2.3,0-4.6-1.1-6.8
		c-2.4-4.7-4.2-9.7-7.4-14c-0.6-0.8-0.9-1.9-1.4-2.9c-0.8-1.6-1.5-3.1-2.3-4.7c-0.5-0.9-0.9-2-1.7-2.7c-1.5-1.6-3.2-3.2-4.9-4.6
		c-1.4-1.2-2.9-2.1-4.7-2.3c-2.2-0.3-4.4-0.4-6.5-0.9c-5.7-1.6-11.4-0.9-17-0.1c-4.3,0.7-8.4,2.5-12.2,4.7c-5.6,3.2-9.4,8-11.4,14.1
		c-1.3,4-2.4,8-3.5,12.1c-0.6,2.4-0.8,4.8,0.3,7.2c0.8,1.8,0.4,3.9-1,5.2c-4.2,3.8-7.6,8.3-10.5,13.1c-1.3,2.1-2.9,4-4,6.2
		c-2.3,4.9-4.4,9.9-6.5,15c-1.3,3.1-2.4,6.3-3.4,9.5c-0.9,3.1-1.6,6.2-2.2,9.3c-0.3,1.4-0.1,2.8-0.3,4.2c-0.4,3.4-2.7,5.4-5.6,6.7
		c-0.8,0.4-2,0.6-2.8,0.4c-2.7-0.8-5.6-0.2-7.6,1.8c-1.8,1.7-3.7,3.2-5.6,4.8c-1.5,1.3-3,2.5-4.3,3.9c-2.7,3.2-4.8,6.8-5.6,10.9
		c-0.7,3.4-0.8,6.9-1.1,10.4c-0.3,4.3,0.5,8.5,2,12.5C10.8,176.2,11.4,177.5,11.8,178.8z M136.8,140.6c1.2,1.5,2.7,2.8,3.5,4.5
		c1.3,2.5,2.1,5.2,3.2,7.8c0.1,0.3,0.1,0.6,0.3,0.8c1.7,2.5,1.7,5.6,2.2,8.4c0.1,0.7,0.2,1.3,0.3,2c0,0-0.1,0-0.1,0.1
		c-0.9-1.8-1.7-3.7-2.6-5.5c-0.8-1.5-1.7-2.9-2.4-4.5c-0.4-0.8-0.6-1.8-0.6-2.7c-0.1-2.3-0.7-4.4-1.8-6.4c-0.8-1.4-1.5-2.8-2.2-4.2
		C136.6,140.7,136.7,140.6,136.8,140.6z M108.4,139.7c1,2.1,2.3,4,3.6,6c1.6,2.3,3.1,4.7,3.6,7.5c0.3,1.7,0.6,3.4,0.8,5
		c0.1,0.6,0.1,1.4-0.2,1.9c-1.7,3.1-2.7,6.5-4.1,9.6c-0.8,1.8-2,3.4-3.1,5.1c-2.8-1.7-5.4-3.3-8.1-5c-0.5-0.3-0.9-0.6-1.4-0.9
		c-0.8-0.3-1.5-0.8-1.6-1.8c0-0.1-0.1-0.3-0.2-0.4c-2.9-3.3-3.4-7.5-4.8-11.4c-0.8-2.3-1.4-4.8-2.1-7.1c-0.9-3.1-1.2-6.2-0.2-9.4
		c1.1-3.8,0.7-7.5-0.1-11.3c-0.8-3.3-1.2-6.6-1.8-9.9c0.2-0.1,0.3-0.2,0.5-0.3c0.9,0.8,2,1.5,2.8,2.4c1.4,1.5,3,2.7,4.8,3.7
		c1.3,0.7,2.6,1.5,3.8,2.4c0.5,0.4,0.8,1.1,1.2,1.6c0.9,1.1,1.4,2.5,2.6,3.4c0.9,0.7,1.4,2,1.9,3.1
		C107.1,135.9,107.5,137.9,108.4,139.7z M130.6,132c0.5,1.3,1,2.7,1.5,4.1c-1.6-0.4-3.1,0-4.5,0.8c-0.7,0.4-1.8,0.3-2.6,0.1
		c-1-0.2-1.9-0.8-2.8-1.2c-4.9-2.1-9.9-4.2-14.8-6.3c-1-0.4-2-0.8-3.1-1.3c0.1-0.2,0.1-0.3,0.2-0.5c2,0,4.1-0.1,6.1,0
		c3.3,0.2,5.1-1.6,6.4-4.2c1.4-2.9,2.8-5.7,5.2-7.8c1.1-1,2.4-2,3.8-3.2c0.3,1.3,0.7,2.5,0.8,3.7C127,121.8,128.5,127,130.6,132z
		 M136.4,102.2c0.3,3.4,0.4,6.8,0.6,10.1c0,0.5,0,1.1-0.1,1.6c0,0.2-0.4,0.6-0.6,0.6c-0.3,0-0.7-0.2-0.8-0.5
		c-0.3-0.8-0.4-1.7-0.7-2.5c-0.8-1.9-1.6-3.7-2.5-5.6c2.1-1.9,2.8-4.4,3-7.1c0.1,0,0.2,0,0.3,0C135.9,99.9,136.3,101,136.4,102.2z
		 M101.1,70.6c2.8-1,4.6-2.9,5.9-5.4c1.4-2.8,3.1-5.2,6.6-5.9c2.7-0.6,5.4-0.8,8.1-1c2-0.2,3.3,1.1,4.5,2.3c1.3,1.3,2.1,1.5,3.6,0.4
		c1.5-1.2,3.2-2.2,5.2-2.6c2-0.4,3.2,0.4,3.5,2.3c0.4,2.6,0.6,5.1,0.4,7.8c-0.3,3.5-1.5,6.8-2.1,10.2c-0.2,1-0.1,2.1-0.1,3.1
		c0,2.3,0,2.3-2.2,2.7c-2.2,0.4-4.4,0.9-6.6,1.3c-1.9,0.4-2.4-0.1-2.1-2c0.1-0.5,0-1,0-1.4c-1.2,0.9-1.6,2.8-1.1,3.7
		c0.6,1,2,1.4,3.4,1.1c2.6-0.6,5.2-1.1,7.7-1.7c-0.4,1.4-0.8,2.9-1.4,4.3c-0.2,0.4-0.9,0.7-1.3,0.8c-0.6,0.1-1.3,0-2-0.1
		c-0.8-0.2-1.6-0.3-2.3-0.7c-1.1-0.6-2.1-1-3.4-0.9c1.4,2.6,4.5,4.1,8.9,3.1c-0.3,3.1-0.5,6.3-1.1,9.3c-0.3,1.3-1.3,2.6-2.2,3.7
		c-1.7,1.9-3.5,3.7-5.4,5.5c-1,1-2.1,1.9-3.1,2.9c-1.7,1.8-3.5,3.6-5.1,5.5c-0.9,1.2-1.4,2.7-2.1,4.1c-1.1,2.1-2.6,3.5-5.2,3.3
		c-1.8-0.1-3.6-0.1-5.4-0.3c-0.7-0.1-1.4-0.5-2.1-0.9c-2.2-1.3-4.4-2.7-6.6-4.2c-1.3-0.9-2.4-2.1-3.6-3.1c-0.9-0.7-1.8-1.2-2.7-1.9
		c-0.5-0.4-1.1-1-1.3-1.6c-0.7-2.6-1.1-5.2-1.8-7.8c-0.7-2.3-0.8-4.6-0.4-6.9c0.3-2.4,0.5-4.7,0.7-7.1c0.1-0.6,0.3-1.1,0.5-1.7
		c0.7-1.6,1.6-3.1,2.2-4.7c0.7-1.8,2.1-3,3.4-4.4c2.4-2.8,4.7-5.6,6-9.1C99.4,71.6,100.3,70.9,101.1,70.6z M97.1,68.4
		c-0.9,0.9-1.4,2.1-2.9,2C94.5,68.6,95.9,67.6,97.1,68.4z M93.4,71.9c1.7,0.2,3.2-0.1,4.2-1.7c0.1,0.1,0.2,0.1,0.3,0.2
		c-0.4,1-0.5,2.1-1.1,3c-1.8,2.6-3.6,5.3-5.7,7.7c-1.6,1.9-3.1,3.8-3.7,6.4c-0.2,0.8-0.8,1.4-1.3,2.2c-0.1-0.1-0.2-0.1-0.3-0.2
		c0-2.3,0.1-4.5,0-6.8c-0.1-2,1.4-3.1,2.5-4.4c1.4-1.9,2.9-3.8,4.3-5.7C92.7,72.2,93.1,71.8,93.4,71.9z M86.5,76.3
		c0.6-2,1.1-4,1.8-6c0.3-1,1.3-1.3,2.1-1c0.6,0.3,0.9,1.4,0.4,2.2c-0.5,0.8-1.1,1.4-1.7,2.2c-0.8,1.1-1.5,2.3-2.5,3.8
		C86.6,76.8,86.4,76.5,86.5,76.3z M82.7,68c1.1,0.5,1.1,1.3,1,2.1c-0.1,1.1-0.8,1.9-2.3,2.3C81.9,70.8,82.3,69.4,82.7,68z
		 M80.7,76.3c0.2-0.5,0.1-1.1,0.1-1.6c0-0.2,0.1-0.4,0.3-0.6c0.2-0.2,0.5-0.4,0.7-0.6c2.8-1.8,3.2-2.5,2.5-5.7
		c1.2,0.4,1.9,1.2,1.7,2.4c-0.3,2.2-0.7,4.3-1,6.5c-0.1,0.7-0.2,1.3-0.2,1.9c-1.2-0.4-2.3-0.8-3.4-1.1
		C80.7,77.3,80.4,77.1,80.7,76.3z M79.4,81.5c0.1-0.5,0.1-1.2,0.4-1.6c0.3-0.4,1-0.7,1.5-0.7c0.3,0,0.7,0.5,1.3,1
		c-0.7,1-1.2,1.7-1.8,2.4c-0.2,0.2-0.8,0.1-1.1-0.1C79.5,82.4,79.4,81.9,79.4,81.5z M70.8,101.4c-1,1.1-1,2.4-0.9,3.7
		c0,0.3-0.2,0.7-0.4,1c-0.3-0.2-0.6-0.4-0.8-0.8c-0.7-1.2-1.3-2.5-1.9-3.7c-0.5-1,0-2,1.1-2c1,0,2,0.1,3.2,0.2
		C71,100.6,71.1,101.2,70.8,101.4z M72.2,98.2c-0.2-0.5-0.3-0.8-0.3-1.1c0.1-2.2,0.2-4.4,0.2-6.5c0-1,0.1-1.5,1.3-1.2
		c0.7,0.2,1.5,0,2.4,0C74.7,92.5,74.5,95.6,72.2,98.2z M68.4,66c1.8-2.4,4.3-2.5,6.2-0.2c1.1,1.3,2,2.7,3,4c1.8,2.3,1.7,4.9,1.1,7.5
		c-0.3,1.2-0.5,2.5-0.8,3.7c-0.1,0.5-0.3,1.1-0.7,1.4c-0.3,0.2-0.9,0.1-1.3,0c-0.1,0-0.3-0.6-0.1-0.8c1.5-2.5,1.4-5.1,0.7-7.7
		c-0.5-2.2-1.7-4.2-2.6-6.3c-0.5-1-2-1.2-3-0.4c-1.8,1.4-2.9,3.2-2.8,5.6c0,0.3,0.3,0.6,0.5,1.3c0.4-0.6,0.6-0.9,0.8-1.2
		c0.6-1.1,1.1-2.3,1.7-3.3c0.6-0.9,1.2-0.9,1.6,0c1.5,3,2.5,6.1,1.9,9.5c-0.1,0.5-0.5,0.9-0.7,1.4c-0.4-0.3-0.8-0.5-1-0.8
		c-0.6-0.7-1.2-1.5-1.7-2.3c-0.2,0-0.3,0-0.5,0c-0.1,0.5-0.5,1.2-0.3,1.6c0.9,2,2.1,3.8,4.1,4.8c1,0.5,1.5,1.6,1.1,2.8
		c-0.2,0.7-1.4,1.1-2.5,0.9c-1.2-0.3-2-1-2.7-1.9c-2.1-2.8-3.5-6-4-9.4C66,72.5,66.1,69,68.4,66z M53.8,124.6c1.9-1,3.9-1.8,5.5-3.2
		c2.7-2.2,5.1-4.7,7.5-7.3c0.8-0.8,1.1-2.1,1.7-3.1c0.1-0.3,0.4-0.4,0.6-0.7l0.3,0.2c0,2.1,0,4.1,0,6.2c0.1,5.4,0.1,10.7,0.3,16.1
		c0.1,2.8,0.4,5.5-0.3,8.2c-0.4,1.6-0.8,3.1-1.1,4.8c-1.7-0.4-3-1.7-4-3.2c-1.5-2-2.9-4-4.3-6.1c-1.3-2-2.4-4.1-3.6-6.1
		c-0.9-1.4-2-2.7-3-4C52.8,125.5,52.8,125.1,53.8,124.6z"/>
	<path class="st0" d="M150.6,111.5c0.7,4.5,0.2,8.9-1.7,13.1c-0.9,1.9-2.2,3.6-3.2,5.4c-0.6,1.1-1.1,2.3-1.5,3.4
		c-0.2,0.6-0.4,1.3-1.1,1c-0.3-0.1-0.6-0.9-0.5-1.4c0.2-1.9,1.2-3.5,2.4-5c2.8-3.4,3.9-7.3,4.4-11.5c0.1-1,0-2.1,0.1-3.1
		c0.1-0.7,0.5-1.4,0.8-2.2C150.3,111.3,150.4,111.4,150.6,111.5z"/>
	<path class="st0" d="M102.6,105.5c2-0.1,3.9-0.1,5.8-0.3c2.2-0.2,4.1,0.7,5.9,1.8c0.8,0.5,1.8,0.8,2.8,0.8c1.9,0,3.8-0.2,5.7-0.3
		c0.2,0,0.5,0.1,0.6,0.2c0.1,0.1,0.1,0.4,0,0.5c-1.1,2-2.1,4.1-3.3,6.1c-1.1,1.7-2.5,3.2-4.6,3.7c-2.6,0.5-5.2,0.4-7.5-1.1
		c-0.6-0.4-1-1-1.4-1.6c-1.7-2.6-3.4-5.3-5.1-8c-0.8,0.5-0.2,2.3-2.1,2.6c0.3-1.1,0.5-2.2,0.9-3c0.5-0.9,1.2-1.7,2-2.5
		c0.2-0.3,0.8-0.3,1.2-0.4c-0.1,0.4-0.3,0.7-0.4,1.1C102.9,105.2,102.7,105.3,102.6,105.5z M119,111.1c-0.8,0-1.5,0-2.1,0
		c-2.1,0.1-4.2,0.6-5.9-1.2c-0.3-0.3-0.7-0.5-1.2-0.6c-2.3-0.7-4.6-1.4-6.9-2.1c0.2,0.7,0.5,1.3,1,1.7c2.3,1.7,4.8,3.1,7.6,4
		C114.3,113.7,116.7,113.4,119,111.1z M105.4,111.5c1.9,3.1,3.8,6.4,8.4,5.7c3.1-0.5,4.9-2.1,6-5.1c-1.2,0.6-2.3,1.4-3.6,1.9
		c-1.4,0.6-2.9,0.9-4.5,0.2C109.7,113.2,107.5,112.3,105.4,111.5z M104.8,106.6c2.7,1,5.5,1.4,7.8,3.2c0.2,0.1,0.4,0.2,0.7,0.2
		c2,0,4,0,6-0.1c0.4,0,0.7-0.5,1.4-0.9c-0.9,0.1-1.5,0.2-2,0.2c-2.1,0.1-3.8-0.9-5.7-1.7C110.3,106.3,107.6,106.1,104.8,106.6z"/>
	<path class="st0" d="M115.2,85.4c-1.9-0.6-3.7-1.1-5.4-1.7c-1.5-0.6-2.9-1.4-4.4-2.1c-0.9-0.4-1.8-0.5-2.7-0.9
		c-0.3-0.1-0.6-0.5-0.9-0.8c0.3-0.2,0.7-0.7,0.9-0.6c1.5,0.4,2.9,0.8,4.4,1.3c1.4,0.5,2.9,1.1,4.3,1.6c1.7,0.6,3.5,1.2,5.2,2
		c0.7,0.3,0.8,0.9,0.3,1.6c-1.5,1.8-3.3,3.2-5.8,3.8c-2.9,0.7-5.5,0.2-8-1.1c-1.7-0.8-2.4-2.5-3.3-4c-0.1-0.2,0-0.8,0.2-0.9
		c0.2-0.2,0.7-0.1,0.9,0c0.3,0.1,0.5,0.4,0.7,0.6c1.7,2.4,4.1,3.9,6.9,3.8C110.8,87.9,113.4,88.1,115.2,85.4z"/>
	<path class="st0" d="M106.7,100.2c0.3-0.3,0.5-0.8,0.8-1c2-1,4.1-1.9,6.1-2.9c0.3-0.1,0.7-0.2,1-0.2c0.3,0,0.7,0.2,0.8,0.4
		c0.1,0.2,0,0.6-0.2,0.9c-0.4,0.4-0.8,0.7-1.2,1.1c-1.5,1.4-1.2,3,0.8,3.6c1.2,0.4,2.4,0.7,3.6,1c0.8,0.2,1.3,0.6,1.4,1.4
		c0,0.3,0.3,0.6,0.5,0.7c1.6,0.6,5.4-1.2,5.9-2.4c0.5-1.2,0-2.2-0.5-3.2c-0.3-0.7-0.7-1.3-0.9-2c-0.1-0.2,0.2-0.6,0.4-0.7
		c0.2-0.1,0.6,0.2,0.7,0.4c0.5,0.9,0.9,1.9,1.4,2.9c0.6,1.3,0.3,2.4-0.2,3.6c-0.4,0.9-0.7,1.8-0.8,2.8c-0.2,1.3-0.8,2.3-1.8,3.3
		c-0.7-1.5,1.4-2.8,0.4-4.4c-0.3,0.1-0.7,0.3-1,0.5c-1.3,0.7-2.6,0.8-4,0.4c-0.4-0.1-0.9-0.4-1-0.8c-0.3-1.1-1.2-1.3-2.2-1.5
		c-0.9-0.2-1.9-0.5-2.7-0.8c-1.5-0.5-2.5-1.4-2.4-3.2c0-0.4,0-0.8-0.1-1.4c-1.6,0.6-3,1.3-4.5,1.9
		C106.9,100.4,106.8,100.3,106.7,100.2z"/>
</g>
</svg>
