<?xml version="1.0" encoding="utf-8"?>
<!-- Generator: Adobe Illustrator 18.1.1, SVG Export Plug-In . SVG Version: 6.00 Build 0)  -->
<!DOCTYPE svg PUBLIC "-//W3C//DTD SVG 1.1//EN" "http://www.w3.org/Graphics/SVG/1.1/DTD/svg11.dtd">
<svg version="1.1" id="Layer_1" xmlns="http://www.w3.org/2000/svg" xmlns:xlink="http://www.w3.org/1999/xlink" x="0px" y="0px"
	 viewBox="0 0 120 74.4" style="enable-background:new 0 0 120 74.4;" xml:space="preserve">
<style type="text/css">
	.st0{fill:#00BCD4;}
</style>
<g id="sleep-lady2">
	<path class="st0" d="M120,66.1c-0.5-0.6-1-1.2-1.5-1.8c-1.6-1.9-3.1-4-5.3-5.4c-0.4-0.3-0.7-0.6-1-0.9c-0.7-0.6-1.4-1.3-2.1-1.9
		c-0.1-0.1-0.3-0.1-0.5-0.1c-0.7,0.3-1.4,0.6-2,1c-0.7,0.4-1.3,0.8-1.9,1.2c-0.6,0.4-1.1,0.8-1.7,1.1c-1.2,0.7-2.4,1.3-3.8,1.7
		c-2.1,0.6-4.2,1.4-6,2.8c-0.9,0.6-1.7,1.4-2.5,2c-0.6,0.4-1.2,0.7-1.9,1.2C90,67,90.1,67,90.2,67c1.4,0.5,2.9,0.8,4.4,0.5
		c2-0.4,3.8-1.3,5.6-2.5c0.1-0.1,0.2-0.2,0.3-0.2c0.1,0,0.3,0,0.4,0.1c0.1,0.1,0,0.3,0,0.4c-0.6,0.6-1.1,1.2-1.9,1.5
		c-1.1,0.4-2.1,0.9-3.2,1.2c-0.5,0.2-1,0.2-1.6,0.2c-1,0-2,0-3-0.2c-0.9-0.2-1.8-0.6-2.5-1.3c-0.2-0.2-0.6-0.3-0.8-0.3
		c-0.8-0.1-1.6-0.2-2.5-0.2c-4.1,0-8.2-0.1-12.2,0.1c-2.5,0.1-4.9-0.1-7.3-0.5c-1.1-0.2-2.2-0.5-3.3-0.7c-0.4-0.1-0.9-0.2-1.3-0.2
		c-0.7-0.1-1,0.5-1.4,0.9c-0.9,1-1.7,2-2.5,3.1c-1,1.4-2,2.8-2.9,4.3c-0.2,0.4-0.7,0.7-0.8,1.1c-0.3,0-0.6,0-1,0
		c0.8-1.3,1.6-2.7,2.5-4c0.9-1.3,1.9-2.5,2.9-3.8c1.6-2,3.3-3.9,4.8-5.9c1.1-1.5,2.1-3,3.2-4.5c1.2-1.6,2.4-3.1,3.5-4.6
		c0.5-0.7,1-1.4,1.5-2c0.2-0.3,0.5-0.4,0.8-0.7c0.7-0.7,1.4-1.4,2-2.1c0.2-0.2,0.4-0.3,0.6-0.4c0.1,0.2,0.3,0.5,0.2,0.7
		c-0.1,0.6-0.4,1.1-0.6,1.7c0.5,0.4,1.1,0.7,1.8,0.8c0.4,0.1,0.6-0.2,0.9-0.3c0.3-0.2,0.8-0.2,1.1-0.3c0.7-0.3,1.5-0.5,2.2-0.9
		c0.4-0.2,0.7-0.5,1-0.8c1.4-1.2,2.7-2.5,3-4.4c0.3-1.5,0.3-3.1-0.2-4.7c-0.7-2.4-2.1-4.2-3.9-5.8c-0.5-0.4-1.3-0.6-1.9-0.9
		c-0.7-0.3-1.4-0.6-2.2-0.9c-0.3-0.1-0.6-0.2-0.9-0.3c-0.9-0.1-1.9-0.3-2.8-0.2c-1.6,0.1-3.1,0.3-4.4,1.3c-0.7,0.5-1.5,1-2.1,1.6
		c-0.9,1-1.8,2.1-2.6,3.2c-1,1.5-2,3-3,4.6c-0.3,0.6-0.6,1.2-0.8,1.8c-0.8,2.1-2.2,4-2.8,6.2c-0.3,1-1,1.9-1.5,2.8
		c-0.9,1.6-1.8,3.2-2.7,4.7c-0.2,0.3-0.5,0.6-0.7,0.9c-0.3,0.4-0.5,0.8-0.8,1.1c-0.3,0.4-0.7,0.8-1.1,1.2c-0.8,0.8-1.4,1.7-1.9,2.6
		c-0.3,0.7-0.7,1.3-1.1,2c-0.6,0.8-1.2,1.6-1.8,2.4c-0.4,0.5-0.8,1-1.2,1.4c-0.1,0.1-0.2,0.1-0.3,0.1c0-0.1,0-0.3,0-0.3
		c0.6-1.1,1.3-2.2,1.9-3.2c0.3-0.5,0.4-0.9,0.2-1.5c-0.6-1.4-1.1-2.8-1.6-4.1c-0.4-1-0.9-2-1.3-3c-0.2-0.4-0.3-0.8-0.4-1.1
		c-0.5-1.7-1.2-3.5-1.6-5.2c-0.5-2.2-0.9-4.5-1.3-6.7c-0.1-1.1,0.1-2.2,0.1-3.3c0-0.1-0.1-0.3-0.2-0.3c-0.3-0.2-0.6-0.4-0.9-0.6
		c-0.1-0.1-0.1-0.4-0.2-0.6c0.2,0,0.4-0.1,0.6,0c0.3,0.1,0.6,0.4,0.9,0.6c0.2-0.6,0.3-1.1,0.5-1.6c0.3-1.1,0.7-2.2,1-3.3
		c0.2-0.6,0.3-1.1,0.4-1.7c0.1-0.7,0.1-1.4-0.2-2.1c-0.3-0.8-0.5-1.6-0.7-2.4c-0.1-0.6-0.4-0.9-0.9-1.1c-0.2-0.1-0.5-0.1-0.3-0.4
		c0.1-0.1,0.4-0.1,0.6-0.1c0.1,0,0.2,0.1,0.4,0.1c0-0.4-0.4-0.9-0.7-1c-0.4-0.1-0.9-0.2-1.4-0.3c-0.1,0.4-0.1,0.9,0.1,1.4
		c0.5,1.2,0.5,2.4,0.2,3.6c-0.1,0.2,0,0.5,0,0.7c0,0.1-0.1,0.3-0.2,0.4c-0.1-0.1-0.3-0.1-0.4-0.2c-0.2-0.6-0.5-1.1-1-1.5
		c-0.1-0.1-0.1-0.4-0.1-0.5c0-0.6,0-1.2,0-1.8c0-0.2-0.2-0.5-0.3-0.7c-0.1-0.2-0.1-0.5-0.2-0.7c0.2-0.1,0.5-0.1,0.7-0.2
		c0.3-0.2,0.2-0.5,0.1-0.9c-0.1-0.2-0.1-0.4,0.1-0.6c0.3-0.3,0.4-0.2,0.5,0c0.4-0.2,0.8-0.5,1.3-0.6c0.2-0.1,0.6,0.1,0.8,0.3
		c0.2,0.1,0.4,0.3,0.6,0.1c0.2-0.3,0.3-0.6,0-0.9c-0.3-0.2-0.7-0.4-1.1-0.6c-0.4-0.1-0.8-0.1-1.2-0.3c-0.6-0.2-1.1,0.2-1.6,0.4
		c-0.7,0.1-1,0.5-1.2,1.3c-0.2,0.9-0.6,1.7-0.9,2.6c0,0.1-0.2,0.2-0.3,0.2c-0.2,0.1-0.4,0.2-0.7,0.3c0-0.6,0.5-1.1,0.7-1.7
		c0.1-0.6,0.4-1.1,0.6-1.7c0,0-0.1,0-0.1-0.1c-0.2,0.2-0.3,0.3-0.5,0.5c-0.2,0.2-0.3,0.4-0.5,0.5c-0.6,0.3-0.8,0.7-0.9,1.3
		c0,0.5-0.1,1-0.6,1.4c-0.4-0.5,0.1-1.1-0.1-1.7c-0.6,0.2-0.8,0.5-0.8,1.1c0,0.4-0.1,0.8-0.1,1.2c0,0.4,0.1,0.7,0.1,1.1
		c0,0.4,0.1,0.8-0.4,1.1c-0.1,0.1-0.2,0.2-0.3,0.5c-0.3-1.1-0.1-2.1-0.1-3c0,0-0.1-0.1-0.1-0.1c-0.2,0.2-0.4,0.4-0.5,0.6
		c0,0,0,0.1-0.1,0.1c-0.9,0.7-0.5,1.6-0.4,2.4c0.4,1.6,1,3.2,1.6,4.8c0.3,0.9,0.5,1.8,0.8,2.7c0.3,1.2,0.7,2.4,0.9,3.6
		c0.3,1.4,0.5,2.8,0.8,4.2c0.4,2.5,0.9,5,1.3,7.6c0.2,1.1,0.2,2.2,0.4,3.3c0.2,1.6,0,3.2,0.5,4.8c0.7,2.1,1.3,4.3,1.9,6.4
		c0.4,1.5,0.8,3,1.2,4.6c0.2,0.8,0.5,1.6,0.7,2.4c-0.3,0-0.5,0-0.8,0c-0.6-1.9-1.2-3.7-1.7-5.6c-0.3-1-0.5-1.9-0.8-2.9
		c-1.3-0.1-2.4-0.1-3.6-0.2c-0.5,0-0.9,0-1.3-0.2c-1.3-0.6-2.7-0.6-4.1-1c-1.9-0.5-3.5-1.3-4.8-2.7c-0.9-0.9-1.9-1.8-2.8-2.7
		c-0.8-0.8-1.5-1.5-2.2-2.3c-0.9-1-2-1.3-3.3-1.1c-1.4,0.2-2.7,0.5-3.8,1.4c-0.2,0.2-0.5,0.3-0.7,0.3c-0.1,0-0.3-0.1-0.5-0.2
		c0.1-0.1,0.2-0.3,0.3-0.4c0.4-0.3,0.9-0.5,1.3-0.9c0.7-0.6,1.6-0.7,2.4-0.9c0.5-0.1,1.1,0,1.7-0.1c1.3-0.1,2.3,0.5,3.2,1.4
		c1.4,1.4,2.9,2.8,4.3,4.2c0.3,0.3,0.7,0.7,1,1.1c1,1.1,2.3,1.7,3.8,2c0.9,0.2,1.7,0.4,2.6,0.5c0.2,0,0.4,0.1,0.5,0.2
		c1.7,0.9,3.6,0.7,5.4,0.8c0.4,0,0.5-0.1,0.4-0.5c-0.3-1.2-0.7-2.3-1-3.5c-0.2-0.7-0.2-1.4-0.3-2.1c-0.2-2.4-0.3-4.8-0.8-7.2
		c-0.5-2.6-1-5.3-1.5-7.9c-0.2-1.1-0.4-2.2-0.6-3.3c-0.1-0.5-0.4-0.6-0.8-0.8c-0.9-0.3-1.9-0.6-2.8-1c-0.3-0.1-0.6-0.3-0.4-0.6
		c0.2-0.3,0.5-0.2,0.7,0c0.8,0.6,1.8,0.8,2.9,1c-0.1-0.4-0.1-0.8-0.2-1.2c-0.2-1.4-0.9-2.5-2.3-3c-0.3-0.1-0.7-0.2-0.6-0.6
		c0.2-0.4,0.6-0.1,0.8,0c0.3,0.1,0.5,0.2,0.9,0.4c-0.1-0.5-0.2-0.9-0.3-1.3c-0.3-1-0.7-2.1-0.9-3.1c-0.2-1-0.1-2-0.1-2.9
		c0-0.5,0.5-0.7,0.8-1c0.3-0.2,0.6-0.6,0.9-0.9c0.6-0.6,1.1-1.1,1.7-1.7c0.5-0.4,1-0.8,1.5-1.2c1.6-1.1,3.1-2.2,5.2-1.5
		c0.5,0.2,1,0.3,1.5,0.5c1.1,0.6,1.1,1.3,0.2,2.4c-0.2,0.2-0.3,0.5-0.1,0.7c0.6,0.7,0.7,1.6,0.9,2.5c0.2,0.8,0.4,1.5,0.6,2.3
		c0.5,1.7,0.4,3.3-0.3,5c-0.3,0.8-0.6,1.6-0.7,2.4c-0.1,0.5,0.2,1,0.4,1.4c0.6,1.4,1.9,2.1,3.2,2.5c0.6,0.2,1.2,0.3,1.9,0.4
		c0.2,0,0.3,0.3,0.4,0.4c0,0.1-0.2,0.3-0.4,0.4c-0.2,0.1-0.4,0-0.5-0.1c-1.1-0.4-2.2-0.8-3.2-1.3c-0.6-0.3-1-0.9-1.5-1.5
		c-0.3-0.3-0.4-0.6-0.7-1c-0.2,0.6-0.4,1-0.6,1.6c-0.1,0.5-0.1,1.1-0.1,1.6c0,0.1,0.1,0.3,0.2,0.4c0.6,0.7,1.2,1.4,1.8,2.1
		c0.3,0.3,0.6,0.5,0.9,0.8c0.2,0.2,0.4,0.3,0.5,0.5c0.1,0.1,0,0.3,0.1,0.4c-0.1,0-0.3,0.1-0.4,0c-0.6-0.5-1.2-0.9-1.7-1.4
		c-0.4-0.4-0.7-0.8-1.2-1.3c0,0.1-0.1,0.2-0.1,0.2c0.2,1.2,0.5,2.5,0.7,3.7c0.2,1,0.5,2.1,0.8,3.1c0.1,0.4,0.3,0.8,0.4,1.2
		c0.5,1.1,0.9,2.3,1.4,3.4c0.1,0.3,0.2,0.6,0.3,0.9c0.6,1.2,0.8,2.6,1.2,3.9c0.1,0.2,0.2,0.4,0.3,0.7c0.4,0.8,0.7,1.7,1.1,2.5
		c0,0.1,0.1,0.2,0.2,0.4c0.1-0.2,0.2-0.3,0.3-0.4c0.9-1.7,2.1-3.3,3.5-4.6c0.4-0.4,0.7-0.8,0.8-1.3c0.1-0.3,0.4-0.7,0.6-1
		c1.9-1.9,3-4.4,4.3-6.7c0.3-0.6,0.5-1.3,0.7-1.9c0-0.1-0.1-0.4-0.2-0.5c-0.5-0.4-1.2-0.4-1.8-0.4c-0.6,0-1.3,0-1.9,0
		c-0.4,0-0.6-0.1-0.5-0.5c0.1-0.4,0.3-0.2,0.6-0.2c0.6,0,1.1,0.1,1.7,0c0.8-0.1,1.6-0.1,2.3,0.4c0.2,0.2,0.4,0.1,0.5-0.1
		c0.7-1.3,1.5-2.6,1.9-4.1c0.4-1.6,1.5-2.8,2.4-4.1c0.3-0.4,0.6-0.8,0.8-1.3c0.1-0.1,0-0.4-0.1-0.5c-0.2-0.1-0.5-0.3-0.7-0.2
		c-0.6,0.1-1.1,0.3-1.7,0.5c-1.3,0.4-2.5,1-3.9,0.6c-0.7-0.2-1.2-0.5-1.5-1.1c-0.3-0.6-0.5-1.3-0.7-2c-0.2-0.7-0.4-1.3-1-1.7
		c-0.2-0.1-0.4-0.4-0.4-0.6c-0.1-0.4-0.4-0.4-0.7-0.5c-1.2-0.4-2.3-1-3-2.1c-0.1-0.1-0.1-0.2-0.2-0.2c-0.8-0.5-0.9-1.4-1.2-2.2
		c-0.4-1-0.8-1.9-1.2-2.9c-0.7-1.6-1.3-3.3-2-4.9c-0.1-0.2-0.1-0.5-0.2-0.8c0.1,0,0.1,0,0.2-0.1c0.1,0.1,0.3,0.2,0.3,0.4
		c0.6,1.3,1.2,2.6,1.8,3.9c0.6,1.5,1.1,3.1,1.9,4.6c0.7,1.4,1.8,2.6,3.4,3.2c0.1,0,0.2,0.1,0.3,0.2c0.1,0,0.2,0.1,0.4,0.1
		c-0.1-0.1-0.1-0.3-0.2-0.3c-0.5-0.4-0.6-0.8-0.6-1.4c0-0.2-0.1-0.5-0.1-0.7c0-0.4-0.2-0.5-0.6-0.5c-1.2,0-2.3-1-1.8-2.5
		c0.1-0.5,0.3-0.9,0.5-1.4c0.5-0.7,0.4-1.5,0.2-2.2c-0.6-1.7-1.1-3.4-1.3-5.2c-0.1-1-0.4-1.9-0.5-2.8c-0.1-0.6,0-1.2,0-1.8
		c0.1-0.7-0.1-0.9-0.9-0.9c-1,0.1-2,0.2-3,0.2c-1,0.1-1.9,0.1-2.9,0.1c-2.1-0.1-4.1,0.2-6.2,0.6c-1.6,0.3-3.2,0.6-4.8,0.9
		c-0.3,0.1-0.7,0.1-1,0.1c-1.7-0.1-3.3,0.3-5,0.8c-1.2,0.3-2.3,0.4-3.6,0.4c-1.4-0.1-2.7,0-4.1,0c-0.6,0-1.3,0.1-1.9,0.2
		c-0.8,0.1-1.2,0.7-1.5,1.4c-0.2,0.6-0.4,1.2-0.5,1.8c-0.1,1.2,0,2.5,0,3.7c0,0.8,0.1,1.7,0.2,2.5c0.1,0.7,0.3,1.3,0.4,2
		c0.1,0.8,0.2,1.6,0.3,2.4c0.1,1.6,0.1,3.1,0.2,4.7c0,0.1,0,0.3,0.2,0.5c0.3-0.4,0.5-0.9,0.8-1.3c0.4-0.5,0.4-1.1,0.2-1.7
		c-0.1-0.2-0.1-0.4-0.1-0.6c0-0.4,0-0.7,0.4-0.8c0.4-0.1,0.8-0.2,1.1,0.2c0.4,0.7,1,0.8,1.7,0.7c1.2-0.2,2.4,0.1,3.5,0.4
		c1,0.4,1.9,1.1,2.4,2.1c0.1,0.1,0.1,0.4,0,0.5c-0.3,0.2-0.7,0.5-1,0.5c-0.4,0-0.8-0.2-1.2-0.3c-0.5-0.1-1-0.3-1.5-0.4
		c0,0.1,0,0.1-0.1,0.2c0.2,0.1,0.5,0.2,0.7,0.3c1.1,0.5,2.5,0.6,3.5,1.4c0.1,0,0.1,0.1,0.2,0.1c0.4,0.1,0.5,0.3,0.1,0.6
		c-0.2,0.2-0.4,0.4-0.7,0.6C24,35,23.8,35,23.7,35c-0.6,0.5-1.1,1.1-1.7,1.5c-0.3,0.2-0.8,0.1-1.3,0c-0.7-0.2-1.4-0.4-2.2-0.1
		c-0.1,0.1-0.3,0.1-0.5,0.2c0.4,0.2,0.7,0.4,1,0.5c0,0,0,0.1,0,0.1c-0.1,0-0.2,0-0.2,0c-0.4-0.1-0.7-0.3-1.1-0.4
		c-0.1,0-0.3,0.2-0.4,0.3c-0.2,0.5-0.3,1-0.5,1.5c0,0.1-0.2,0.2-0.3,0.2c0.2-0.6,0.3-1.2,0.5-1.8c-0.7-0.1-1.1,0.3-1.6,0.7
		c-0.7,0.8-1.5,1.6-2.3,2.4c-1.6,1.6-3.2,3.2-4.8,4.8c-1.3,1.4-1.9,3.1-2.8,4.8c-1,2-2,4.1-3,6.2c-0.5,1-1.1,1.9-1.6,2.9
		c-0.2,0.3-0.2,0.8-0.6,1c-0.1,0-0.1,0.2-0.1,0.2c0.3,0.3,0,0.3-0.1,0.5c0-0.8,0-1.6,0-2.3c0.4-0.7,0.8-1.3,1.2-2
		c1.2-2.2,2.3-4.3,3.5-6.5c0.8-1.6,1.7-3.1,2.5-4.7c0.3-0.5,0.7-1,1.1-1.4c0.9-1,1.8-2.1,2.8-3.1c-0.7-1.1-0.7-2.3-0.3-3.5
		c0.1-0.4,0.1-0.8,0.1-1.2c0-0.5,0.2-0.9,0.5-1.3c0.5-0.4,1-0.8,1.6-1.1c0.3-0.2,0.4-0.3,0.2-0.6c-0.1-0.2-0.2-0.6-0.2-0.8
		c-0.1-1.9-0.2-3.7-0.4-5.6c-0.1-0.8-0.3-1.6-0.4-2.4c-0.1-0.6-0.2-1.1-0.3-1.7c0-1.7-0.1-3.5,0-5.2c0-0.9,0.2-1.9,0.6-2.7
		c0.4-0.9,1.1-1.6,2.3-1.8c2.1-0.3,4.2-0.2,6.3-0.2c0.8,0,1.7-0.1,2.4-0.3c1.9-0.5,3.8-0.9,5.8-0.9c1.3,0,2.5-0.4,3.8-0.6
		c2.3-0.4,4.6-1,7-1c2.5,0,5-0.2,7.5-0.4c0.2,0,0.4-0.2,0.4-0.3c0.3-0.6,0.6-1.1,1.3-1.3c0.1,0,0.3-0.3,0.3-0.5
		c0-0.3-0.1-0.6-0.1-0.9c0-0.7,0.2-1.3,0.5-1.9c0.8-1.7,2.3-2,4-2.2C54.8,2.2,55.5,2,56,1.5c0.1-0.1,0.3-0.3,0.4-0.3
		c1.7-0.3,3.3-0.9,5-1.1c1.5-0.1,3-0.2,4.5-0.1c1,0.1,1.9,0.3,2.7,0.7c0.3,0.1,0.6,0.2,1,0.3c1.9,0.5,3.6,1.4,5.1,2.6
		c0.2,0.2,0.5,0.4,0.8,0.5c1,0.6,1.7,1.4,2.1,2.4c0.4,1.3,1.2,2.3,2,3.3c0.9,1.1,1.4,2.3,1.6,3.7c0.2,1.3,0.3,2.7,0.5,4
		c0.2,1.8,0.6,3.6,0.9,5.4c0.1,0.4,0.2,0.8,0.2,1.2c0.1,1.7,0.5,3.3,1.4,4.8c0.7,1.3,1.5,2.6,2.3,3.9c0.3,0.5,0.7,1.1,1,1.6
		c0.1,0.2,0.3,0.3,0.4,0.5c0.3,0.4,0.6,0.9,0.8,1.4c0.5,0.9,1.1,1.8,1.5,2.7c0.3,0.7,0.6,1.4,0.8,2.1c0.3,0.9,0.6,1.8,0.8,2.7
		c0.3,1.1,0.4,2.2,0.6,3.3c0.2,1.2,0.2,2.5,0.3,3.8c0,0.5,0,1,0.1,1.5c0,1.4,0.7,2.3,1.8,3c1.5,1,2.9,1.8,4.7,2.2
		c0.7,0.1,1.3,0.5,1.9,0.8c0.5,0.2,1,0.4,1.6-0.1c1.8-1.4,3.8-2.5,5.9-3.4c0.9-0.4,1.9-0.2,2.7,0.7c0.9,1.1,1.8,2.1,3,2.9
		c0.6,0.4,1.1,0.9,1.6,1.4c1.2,1.2,2.4,2.4,3.6,3.6c0.1,0.1,0.2,0.2,0.3,0.2C120,64.8,120,65.4,120,66.1z M66,31.9
		c0.3-0.2,0.5-0.2,0.6-0.4c1.2-0.9,2.4-1.7,3.9-1.9c0.4-0.1,0.8-0.2,1.2-0.3c0.1,0,0.2-0.1,0.3-0.2c0.6-1.2,1.2-2.5,1.8-3.7
		c0.3-0.5,0.5-1,0.9-1.5c0.5-0.8,1.1-1.4,1.7-2.2c0.9-1.3,1.4-2.7,1.2-4.3c-0.1-0.3-0.2-0.7-0.4-1c-0.3-0.4-0.7-0.8-1-1.2
		c-0.1-0.1-0.1-0.3-0.2-0.5c0.2,0,0.4-0.1,0.6,0c0.3,0.2,0.5,0.5,0.8,0.7c0.2,0.2,0.3,0.5,0.5,0.6c0.5,0.3,0.6,0.8,0.6,1.3
		c0,1.6-0.4,3.1-1.3,4.5c-0.6,0.9-1.5,1.8-2,2.7c-0.7,1.3-1.3,2.7-1.9,4.1c-0.3,0.6-0.2,0.6,0.4,0.7c1.8,0.2,3.6,0.8,5.3,1.3
		c0.7,0.2,1.4,0.3,2,0.6c1.3,0.5,2.6,1.1,3.9,1.7c-0.1-0.2-0.1-0.5-0.2-0.7c-0.5-1-1.1-2.1-1.6-3.1c-0.3-0.6-0.7-1.2-0.8-1.9
		c-0.5-2.1-0.9-4.1-1.2-6.2c-0.4-2.6-0.6-5.2-1.1-7.8c-0.2-0.9-0.6-1.9-1.2-2.7c-0.6-0.8-1.1-1.7-1.6-2.5c-0.7-1.2-1.4-2.3-2.5-3.2
		c-1.2-0.9-2.4-1.6-3.6-2.4c-0.4-0.2-0.8-0.4-1.2-0.6c-0.5-0.2-1-0.3-1.5-0.5c-1.6-0.8-3.3-1-5.1-0.8c-1.9,0.2-3.7,0.5-5.6,0.9
		C57.4,1.6,57,1.8,56.6,2c0,0.1,0,0.1,0,0.2c1.9,0.2,3.5,0.9,4.9,2.2c-0.4,0.4-0.7,0.4-1.1,0.1c-1.8-1.3-3.7-1.9-5.9-1.4
		c-0.5,0.1-1.1,0.1-1.5,0.3c-0.6,0.2-1.2,0.4-1.6,0.8c-0.8,0.9-1.1,2-0.8,3.2c0.1,0.5-0.1,0.8-0.5,1.2c-0.4,0.3-0.7,0.7-0.9,1.1
		c-0.5,1-0.6,2.1-0.6,3.2c0,0.1,0.1,0.3,0.1,0.5c0.1-0.2,0.2-0.4,0.3-0.5c0.4-0.8,0.9-1.6,1.3-2.5C50.9,9,51.8,8.1,53.3,8
		c1.1-0.1,2.1,0.2,3,1c0.4,0.4,0.9,0.8,1.4,1.1c0.7,0.5,1.5,0.9,2.2,1.3c0.6,0.4,1.1,0.9,1.7,1.2c1.7,1.1,3.4,2.2,5.1,3.3
		c0.4,0.2,0.7,0.5,1,0.8c0.3,0.4,0.7,0.8,0.7,1.2c0.4,2.2,0.7,4.5-0.6,6.5c-0.1,0.1-0.1,0.2-0.2,0.4c-0.5,1.6-1.1,3.1-1.6,4.7
		C65.9,30.3,65.8,31,66,31.9z M61.4,64.1c0.8,0.2,1.5,0.4,2.2,0.5c0.5,0.1,1.1,0.1,1.7,0.2c0.7,0.1,1.3,0.4,1.9,0.5
		c2.5,0.3,5,0.4,7.4,0.2c3.5-0.4,7.1-0.5,10.6-0.1c0.8,0.1,1.6,0.2,2.4,0.3c0.5,0.1,0.9,0.2,1.4,0.4c0.3,0.1,0.4,0.1,0.7,0
		c0.7-0.5,1.4-1,2.1-1.5c0.5-0.3,1-0.7,1.5-1c1-0.7,1.9-1.4,3-2c1.5-0.7,3.1-1.2,4.7-1.8c0.2-0.1,0.3-0.1,0.5-0.2c0,0,0-0.1,0-0.1
		c-0.3-0.1-0.6-0.2-0.8-0.3c-1.8-0.3-3.4-1.2-5-2.1c-0.7-0.4-1.3-0.9-2-1.2c-0.9-0.4-1.9-0.6-2.8-0.9c-0.3-0.1-0.6-0.2-0.8-0.3
		c-0.6-0.4-1.3-0.5-2-0.6c-1.6-0.3-3.2-0.6-4.7-1c-1.1-0.3-2.2-0.9-3.3-1.3c-0.7-0.2-1.4-0.2-2-0.4c-1.2-0.5-2.3-1.1-3.5-1.7
		c-0.4-0.2-0.8-0.4-1.4-0.2c-1,0.4-1.8,0.9-2.3,1.9c-0.7,1.2-1.5,2.4-2.3,3.6c-0.6,0.8-1.2,1.6-1.9,2.4c-1.2,1.6-2.3,3.3-3.7,4.8
		C62.4,62.7,62,63.4,61.4,64.1z M52.1,28.1c0.4-0.1,0.7-0.3,1.1-0.3c1.1-0.1,2.1-0.2,3.2-0.2c0.3,0,0.7,0.1,1,0.2c0,0,0,0.1,0,0.1
		c-0.6,0.5-1.1,0.9-1.7,1.4c-0.7,0.6-1.3,1.1-2,1.7c-0.3,0.2-0.3,0.5,0,0.7c0.6,0.6,0.8,1.4,1,2.1c0.1,0.5,0.3,1,0.6,1.5
		c0.3,0.5,0.8,0.7,1.4,0.7c0.6,0,1.1,0.2,1.7,0c0.6-0.2,1.1-0.5,1.7-0.7c1-0.3,2.1-0.7,3.1,0.1c0.7-0.8,1.4-1.6,2-2.3
		c0.1-0.2,0.1-0.4,0.2-0.7c-0.7,0.4-1.2,0.9-1.8,1.2c-0.6,0.4-1.2,0.6-1.8,0.3c0-0.6,0.4-0.7,0.8-0.7c0.2,0,0.3,0,0.5-0.1
		c0.5-0.4,1-0.7,1.5-1.1c0.5-0.4,0.8-0.9,0.8-1.6c0-0.4,0.2-0.9,0.4-1.3c0.2-0.7,0.5-1.5,0.8-2.2c0.3-1,0.6-2,1.1-2.9
		c0.5-1,0.8-2,0.6-3.2c0-0.3-0.1-0.6-0.1-0.9c0.1-1.5-0.7-2.5-1.7-3.3c-1-0.8-2.2-1.6-3.3-2.3c-1-0.6-2.1-1-2.9-1.8
		c-0.8-0.8-1.7-1.3-2.7-1.9c-0.5-0.3-1-0.6-1.4-1.1c-1-1.3-4.1-1.3-4.9,0.7c-0.3,0.7-0.8,1.4-1.2,2.1c-0.6,1.1-1,2.2-0.8,3.5
		c0.1,0.6,0.2,1.1,0.2,1.7c0.1,0.5,0.2,1.1,0.9,1c0,0,0.1,0,0.1,0c0.1,0.1,0.3,0.3,0.4,0.4c-0.1,0.1-0.3,0.3-0.4,0.3
		c-0.3,0.1-0.4,0.2-0.3,0.5c0.2,0.6,0.4,1.2,0.5,1.8c0.3-0.6,0.7-1.3,0.5-2.1c0.1,0.4,0.2,0.8,0.1,1.1c-0.3,0.8-0.6,1.6-0.9,2.4
		c-0.3,0.7-0.6,1.3-0.8,2c-0.2,0.8,0.7,1.5,1.5,1.4c0.3-0.1,0.6-0.1,1-0.1c-0.1,0.2-0.3,0.4-0.3,0.5C51.8,27.2,52,27.7,52.1,28.1z
		 M81.3,32c-0.1,0.1-0.1,0.1-0.2,0.2c1.3,0.9,2.5,1.8,3.1,3.3c0.6,1.4,1.3,2.8,1.3,4.4c-0.1,1.5,0,3.1-0.8,4.5
		c-0.7,1.4-1.7,2.6-2.8,3.7c-1.2,1.1-2.7,1.3-4.2,1.9c0.1,0.1,0.1,0.1,0.2,0.1c1.4,0.5,2.9,1.1,4.3,1.6c0.6,0.2,1.2,0.6,1.9,0.8
		c1.5,0.4,3.1,0.6,4.7,1c1.1,0.2,2.1,0.5,3.1,0.8c0-0.6,0-1.2,0-1.8c0-1.9,0.1-3.9-0.4-5.8c-0.2-0.7-0.3-1.5-0.5-2.2
		c-0.1-0.5-0.4-1-0.5-1.6c-0.2-0.6-0.3-1.3-0.5-1.8c-0.5-1.2-1-2.4-1.7-3.5c-0.5-0.8-1.2-1.6-1.9-2.3c-0.8-0.8-1.7-1.4-2.6-2.1
		C82.9,32.8,82.1,32.4,81.3,32z M22.6,33c-0.2,0-0.4-0.1-0.5-0.1c-0.7-0.2-1.4-0.5-2-0.7c-0.5-0.2-1.1-0.4-1.6-0.5
		c-0.3-0.1-0.6-0.2-0.9-0.1c-0.6,0.1-1.1,0.3-1.6,0.6c-0.9,0.6-1.7,1.2-2.5,1.9c-0.1,0-0.1,0.1-0.2,0.1c-0.4,0.2-0.8,0.5-1.3,0.7
		c-0.5,0.3-0.6,0.7-0.6,1.3c0,0.6-0.1,1.1-0.2,1.7c-0.2,0.9-0.2,1.8,0.5,2.6c0.1-0.1,0.3-0.1,0.4-0.2c0.9-0.8,1.8-1.6,2.8-2.5
		c0.4-0.4,0.7-0.8,1.3-0.9c0.6-0.1,1.2-0.2,1.7-0.5c1.1-0.4,2.1-0.6,3.3-0.2c0.2,0.1,0.5,0,0.7,0c-0.2-0.2-0.3-0.5-0.5-0.7
		c-0.1-0.1-0.2-0.1-0.4-0.1c-0.3-0.1-0.6-0.2-0.9-0.3c-0.6-0.2-1.2-0.4-1.8-0.4c-1.3-0.1-2.5,0.3-3.7,1c-0.4,0.2-0.8,0.5-1.2,0.7
		c0-0.1-0.1-0.1-0.1-0.2c0.7-0.5,1.4-1,2.2-1.3c2.3-0.9,4.4-0.4,6.5,0.8c0.3,0.2,0.5,0.2,0.8,0c-0.6-0.3-1.1-0.8-1.2-1.2
		c0-0.4-0.2-0.5-0.5-0.6c-1.2-0.3-2.4-0.7-3.5-0.9c-0.7-0.2-1.4,0-2,0.4c-0.6,0.5-1.3,0.9-1.9,1.4c-0.1,0.1-0.2,0.1-0.3,0.1
		c0,0,0-0.1-0.1-0.1c0.8-0.6,1.6-1.2,2.4-1.7c0.4-0.2,0.9-0.4,1.3-0.4c1.9,0.1,3.6,0.6,5.3,1.5c0.3,0.2,0.7,0.3,1,0.5
		c0,0,0.1-0.1,0.1-0.1C22.5,34.2,22.2,33.7,22.6,33z M22.1,30.3c-0.6-0.6-1.4-0.6-2.1-0.8c-1.8-0.3-3.5-0.3-4.6,1.5
		c-0.4,0.6-0.8,1.2-1.2,2c0.7-0.5,1.4-0.9,2-1.3c0.7-0.4,1.4-0.6,2.3-0.4c1.2,0.2,2.4,0.4,3.5,0.6C21.4,31,21.4,30.9,22.1,30.3z
		 M56.2,27.9c0-0.1,0-0.1,0-0.2c-1.1,0.1-2.3,0.2-3.4,0.4c-0.3,0-0.6,0.6-0.5,0.8c0.1,0.4,0.6,0.6,1,0.4c0.6-0.3,1.3-0.6,1.9-0.8
		C55.5,28.3,55.9,28.1,56.2,27.9z M53.1,31c1.2-1,2.5-2,3.7-3.1c0,0,0-0.1-0.1-0.1c-0.3,0.2-0.6,0.5-1,0.7c-0.7,0.3-1.4,0.6-2.1,0.9
		C52.9,29.7,52.7,30.3,53.1,31z M37.8,25.6c-0.1,0.2-0.2,0.4-0.2,0.6c0,0.7,0.1,1.4,0.1,2.2c0,0.4,0.2,0.7,0.5,0.9
		C38.7,28,38.3,26.8,37.8,25.6z M21.7,31c0.1,0.2,0.1,0.4,0.2,0.5c0.3,0.2,0.7,0.5,1,0.7c0.2,0.2,0.4,0.2,0.6-0.1
		c0.2-0.3,0.2-0.5-0.1-0.7c-0.3-0.2-0.5-0.5-0.8-0.7c-0.2-0.1-0.5-0.1-0.7-0.1C21.9,30.7,21.8,30.9,21.7,31z M24.6,34
		c-0.6-0.3-1.1-0.6-1.6-0.8c-0.3-0.1-0.3,0-0.4,0.2c0,0.3,0,0.6,0.3,0.7c0.2,0.1,0.4,0.2,0.5,0.3C24.1,34.8,24.2,34.8,24.6,34z
		 M16.7,29.3c-0.2-0.2-0.4-0.5-0.6-0.7c-0.3-0.3-0.8-0.2-0.8,0.1c0,0.4,0.1,0.9,0.1,1.3C15.9,29.8,16.2,29.6,16.7,29.3z M23.3,35
		c-0.5-0.3-1-0.6-1.7-0.9c0.1,0.6,0.5,0.9,0.9,1.1C22.7,35.3,23,35.5,23.3,35z M39.9,24.7c0-0.1,0.1-0.1,0.1-0.2
		c-0.2-0.6-0.4-0.7-1.2-0.5C39.2,24.3,39.6,24.5,39.9,24.7z"/>
	<path class="st0" d="M19.1,22.1c0.4,0.1,0.8,0.2,1.3,0.3c0.5,0.1,0.9,0.1,1.3-0.2c1.7-1,3.3-1.9,5.4-2c0.9,0,1.7-0.3,2.4-0.8
		c0.3-0.3,0.7-0.4,1.1-0.6c0.2-0.1,0.4-0.3,0.6-0.5c0.2-0.2,0.3-0.5,0.6-0.3c0.3,0.2,0.4,0.7,0.1,0.9c-0.5,0.5-1.1,0.9-1.9,1.1
		c-0.9,0.2-1.8,0.6-2.7,0.8c-0.4,0.1-0.9,0.1-1.3,0.2c-1.5,0.2-2.7,1-4,1.8c-0.6,0.3-1.1,0.4-1.7,0.2c-0.4-0.1-0.9-0.2-1.4-0.3
		c-0.2,0-0.6,0-0.6-0.4c0-0.4,0.3-0.3,0.6-0.3C19,22.1,19,22.1,19.1,22.1C19.1,22.1,19.1,22.1,19.1,22.1z"/>
	<path class="st0" d="M58.6,14.9c-0.2,0-0.5,0.1-0.7,0.1c-1.8-0.4-3.3,0.3-4.6,1.4c-0.2,0.2-0.5,0.4-0.7,0.1
		c-0.1-0.2-0.1-0.7,0.1-0.8c1.3-1.2,2.8-1.6,4.5-1.6C58,14.1,58.4,14.3,58.6,14.9z"/>
	<path class="st0" d="M58.5,17.8c-0.1,0.6-0.6,0.9-1.2,1.2c-0.3,0.2-0.7,0.4-1,0.5c-0.3,0.1-0.5,0.2-0.8,0.2c-0.3,0-0.6-0.1-0.9-0.2
		c-0.1-0.1-0.2-0.4-0.2-0.6c0-0.1,0.2-0.3,0.3-0.3c1.1,0,2-0.5,3-1C57.9,17.7,58.2,17.5,58.5,17.8z"/>
	<path class="st0" d="M52.7,24.8c0.1,0.1,0.3,0.2,0.3,0.3c0,0.1-0.1,0.3-0.3,0.4c-0.3,0.1-0.7,0.2-1,0.3c-0.1,0-0.3-0.1-0.4-0.2
		c0.1-0.1,0.1-0.3,0.3-0.3C51.9,25.1,52.3,25,52.7,24.8z"/>
	<path class="st0" d="M53.7,25.2c0.2-0.2,0.4-0.4,0.5-0.6c0.1-0.3,0-0.6-0.3-0.8c-0.2-0.1-0.5-0.3-0.7-0.4c0.7-0.1,1,0,1.3,0.5
		c0.2,0.5,0.2,1-0.1,1.3C54.1,25.4,54,25.4,53.7,25.2z"/>
</g>
</svg>
