<?xml version="1.0" encoding="utf-8"?>
<!-- Generator: Adobe Illustrator 19.1.0, SVG Export Plug-In . SVG Version: 6.00 Build 0)  -->
<svg version="1.1" id="Layer_1" xmlns="http://www.w3.org/2000/svg" xmlns:xlink="http://www.w3.org/1999/xlink" x="0px" y="0px"
	 viewBox="0 0 120 89.8" style="enable-background:new 0 0 120 89.8;" xml:space="preserve">
<style type="text/css">
	.st0{fill:#00BCD4;}
</style>
<g id="sleeping-lady">
	<path class="st0" d="M54.9,41.9c-3.1,2.8-5.9,5.9-8.6,9.1c3,4.8,5.7,9.9,8,15.1c1-2.2,2.5-4.1,4.3-5.5c2.1-1.6,1.2-4.9-0.3-7
		c-1.5-2.1-3.5-4.4-3-6.9c2.4,3.7,4.8,7.5,6.2,11.7c6.1-10.9,16.3-19.5,28.1-23.6c0.3,1.7-1,3.5-2.7,3.8c1.7,0.2,3.4,0.3,5.1,0.5
		c0.8,1.6-0.7,3.8-2.5,3.7c0.7,0.4,1.6,0.4,2.3,0.2c0.3,1.4-1.5,2-2.9,2.4c-3.8,0.9-7,3.6-9.5,6.6c-2.5,3-4.5,6.5-7,9.5
		c1.2-4.4,3.7-8.5,7.1-11.5c-3.4,0.1-6.2,2.7-7.8,5.7c-1.6,3-2.3,6.3-3.5,9.5c-1.9,5-5.3,9.5-9.5,12.8c6.7,0.3,13.3,0.5,20,0.8
		c-3.9-3.4-8.8-5.4-13.9-5.8c2.9-1.8,6.8-0.5,9.6,1.5c2.8,2,5.3,4.6,8.7,5.5c1.2,0.4,2.8,0.7,3.1,1.9c-9.6-3.5-20.7-2.9-29.9,1.8
		c1.9-2.2,4.6-3.6,7.4-3.9c-6.6-1.5-13.7,3.5-20.1,1.2c-3.3-1.2-5.7-4.1-7.9-6.9c-1.7-2.2-3.5-4.6-3.5-7.4c1.3,2.1,2.7,4.3,4,6.4
		c-1-5.9-4.7-11.3-9.8-14.3c1.4-0.1,2.9,0.4,4,1.5c-1.9-3.9-6.1-5.9-10.2-7.3c-2.6-0.9-5.3-1.7-8-1.5C8.1,51.6,3.6,54.1,0,52
		c0.9-0.3,1.7-0.5,2.6-0.8C5.8,47.9,8.3,44,10,39.7c4.3-10.9,14.1-18.4,23.6-25.2c1.9-1.4,4.1-3.4,3.6-5.7c-0.6-3-0.1-6.2,1.4-8.8
		C47.3,3.8,58,0.8,66.2,5.4c-5-0.6-10.1-1.2-15.1-1.8c-4.1-0.5-8.2-1-12.2-2.2c-0.9,2.9-1.1,5.9-0.4,8.9c1.4-1.5,2.8-3,4.2-4.5
		C43,7.1,42,8.4,41,9.3c-5.6,5.3-12.1,9.7-17.9,14.8C17.3,29.2,12.1,35.4,10,42.9c0.7-1.2,1.5-2.4,2.3-3.5c0.6,1.4-0.5,2.9-1.5,4.1
		c-2.4,2.7-4.8,5.5-7.2,8.2c3.6-0.9,7.3-1.4,11-1.7c-0.5-1.4,0.9-2.8,2.2-3.5c1.3-0.7,2.9-1.3,3.5-2.7c1.5-3.8,3.5-7.6,6.8-10
		c3.3-2.4,8.3-2.9,11.3-0.3c0.6,0.5,1.5,0.2,2.2-0.1c3.6-1.6,7.1-3.1,10.7-4.7c-0.8-1.1-0.5-2.8,0.6-3.5c0,0.7,0.1,1.5,0.1,2.2
		c1.2-0.3,0.5-2.1,0-3.2c-0.7-1.7,0.2-3.8,1.8-4.7c-1.1-1.3-0.6-3.4,0.6-4.6c1.2-1.2,2.9-1.7,4.5-2.2c-1.2-0.7-1.7-2.2-1.3-3.4
		c2.1-0.2,4.2-0.8,6-1.9c1-0.6,1.9-1.2,3-1.4c1.1-0.1,2.4,0.6,2.3,1.7c3.6-4,10.8-3.8,14.1,0.4c0.7,0.9,1.2,1.8,1.8,2.8
		c0.8,1.5,1.6,2.9,2.4,4.4c2.5,1.3,5,2.6,6.7,4.8c1.2,1.5,2,3.6,1.5,5.5C95,27.4,92.8,28.8,91,28c1.2,2.3-0.3,5.7-2.9,6.2
		c-1.6,0.3-2.9,1.4-4.3,2c-1.5,0.6-3.6,0.5-4.2-1c-2.3,1.9-4.6,3.8-7,5.8c-1.3,1.1-2.7,2.2-4.3,2.9c-2.6,1-5.5,0.7-8,2
		c-1.1,0.6-2.5,0.1-3.4-0.8S55.4,43,54.9,41.9 M54.6,67.1c-0.6,0.3-1.1-0.4-1.4-0.9c-2.3-4.2-4.7-8.4-7-12.5
		c-0.7-1.2-1.4-2.5-1.8-3.8c-0.3-1.1-0.4-2.3-0.6-3.4c-0.4-3-1.5-5.9-3.1-8.4c-1.5-2.5-3.8-4.9-6.7-5.3c-3.1-0.5-6.1,1.2-8.2,3.5
		c-2.1,2.3-3.3,5.2-4.8,7.9c-0.7,1.2-1.4,2.6-1.2,4c0.9-1,1.8-2.2,3.2-2.3c1.3-0.2,2.9,1.2,2.2,2.4c1.2-0.5,2.7,0.8,2.3,2
		c-0.2,0.6,0.7,0.9,1.2,1.2c1.3,0.9,0.6,2.9-0.2,4.3c1.2,1,2.1,2.4,2.9,3.8c0.7,1.1,1.3,2.2,2,3.3c1.7,2.8,3.4,5.8,3.8,9.1
		c0.1,1.1,1.6,1.3,2.7,1.2c1.5-0.1,3-0.2,4.5-0.4c-3.4-4.6-6.3-9.6-8.7-14.9c-1.4-3-2.7-6.4-5.6-8.1c-0.5-0.3-1.1-0.6-1.2-1.2
		c1-0.4,2.2,0,3.1,0.7c0.8,0.7,1.4,1.7,2,2.6c5,8.8,9,18.3,15.7,25.7c1,1.1,2.7,1.5,4.2,1.2c1.5-0.3,2.8-1.2,4-2.1
		c6.8-5.4,9.8-14.2,13.1-22.3c0.6-1.4,1.2-2.9,2.4-3.9c2.6-2.1,6.8-1.1,9.2-3.4c2-2,4.9-3.1,7.7-3.1c-1.4-0.7-3.1-0.7-4.5-0.2
		c-0.4,0.1-0.8,0.3-1.2,0.3c-0.4,0-0.8-0.5-0.6-0.8c2.7-0.4,5.3-1.2,7.6-2.6c-2.5,0.5-5.1,0.9-7.6,1.3c-0.6,0.1-1.4-0.3-1.1-0.7
		c2.5-0.6,5.1-1,7.7-1.3c-1.8-0.7-4-0.7-5.8,0c-1.3,0.5-3,1.2-3.7,0c2.9-0.5,5.6-1.9,7.6-4c-5.6,1.7-10.3,5.3-14.8,8.9
		c-1.5,1.2-2.9,2.3-4.2,3.7c-2.1,2.3-3.5,5.3-5.4,7.7C61.3,60.2,57,62.9,54.6,67.1 M63,24.5c-0.4,0.2-0.8-0.2-1-0.6
		c-0.1-0.4-0.1-0.8-0.3-1.2c-0.4-1-2.1-1-2.5,0c-0.3,0.5-0.5,1.4-1.1,1.2c-0.5-0.8,0-2,0.8-2.5c0.8-0.5,1.8-0.6,2.8-0.5
		c-0.6-0.9-2.1-1-3-0.4c-0.9,0.6-1.4,1.7-1.7,2.8c-0.2,1.1-0.3,2.2-0.6,3.3c-0.2,0.9,0.8,1.6,1.7,2c0,0.5-0.8,0.7-1.3,0.5
		c-0.5-0.2-0.8-0.7-1.2-1.1c-0.4-0.4-1-0.6-1.4-0.2c-1.8,1.5-4,2.5-6.1,3.5c-1.2,0.6-2.5,1.1-3.7,1.7c-1.6,0.7-3.2,1.5-5,1.5
		c3.8,4.3,6,10,6.1,15.8c2.4-3.3,4.8-6.7,8.3-8.8c0.5-0.3,1-0.6,1-1.2c0-2.3,0-4.6,0-6.8c0-1.1,0.2-2.6,1.3-2.9
		c-0.1,2-0.3,4.1-0.4,6.1c-0.1,2.3-0.3,4.6,0.8,6.6c0.6,1.2,2,2.2,3.2,1.6c2.3-1.2,5.1-0.9,7.6-1.8c1.7-0.6,3.1-1.7,4.2-3.1
		c-0.5-0.1-1-0.4-1.3-0.8c0,0.5-0.6,0.8-1,0.7c0.2-1,0.4-2.1,0.9-3c0.5-0.9,1.5-1.6,2.6-1.6c-0.3,0.7-0.9,1.2-1.2,1.8
		c-0.3,0.7-0.2,1.6,0.5,1.9c0.9,0.2,2-0.6,1.9-1.6c0-0.5-0.3-1-0.4-1.5c-0.1-0.5,0.3-1.2,0.8-1.1c0.2,0.7,0.4,1.4,0.6,2.2
		c1.8,0.1,3.2-1.7,3.7-3.5c0.5-1.8,0.5-3.7,1.2-5.4c0.8-1.8-0.5-4-2.2-5c-1.7-1.1-3.7-1.4-5.5-2.3c-0.8-0.4-1.6-0.8-2.4-1.1
		c-1.5-0.5-3.3-0.2-4.6,0.8C63.9,21.3,63.1,22.9,63,24.5 M81.1,25.6c0.7,2.8-1.6,5.7-1.2,8.6c1,1.3,3,1.7,4.4,0.8
		c1.9-1.2,2-3.9,2.4-6.1c0.3-1.5,0.9-3,1.8-4.3c0.5-0.8,1.5-1.7,2.4-1.3c-2.2,2.7-3.4,6.1-3.4,9.6c1.2,0,2.2-1,2.6-2.1
		c0.4-1.1,0.3-2.3,0.3-3.5c0.8-0.3,1.8,0.1,2.7-0.2c0.6-0.2,1.1-0.8,1.3-1.5c0.7-1.7,0.3-3.8-1-5.1c-1.3-1.3-3.4-1.7-5.1-1
		c-0.3-0.7,0.8-1.2,1.5-1.4c-0.7-1.1-2-1.7-3.3-1.7c-0.4,0-0.8,0.1-1.1,0c-0.4-0.1-0.6-0.5-0.5-0.9c0.6,0,1.2-0.1,1.7-0.1
		c-0.6-1-1.3-2-2-3.1c0,0.5,0,1.1-0.3,1.4c-0.4,0.3-1.2,0-1-0.5c0.5-1.3,0.1-2.8-0.6-3.9c-0.8-1.1-1.9-1.9-3-2.7
		c-1.3-0.9-3-1-4.6-0.7c-1.6,0.4-3,1.2-4.3,1.9c-0.7,0.4-0.8,1.5-0.6,2.3c0.2,0.8,0.6,1.7,0.4,2.5c-0.1,0.3-0.2,0.6-0.5,0.7
		c-0.3,0.1-0.7-0.1-0.6-0.4c0.1-2-0.4-4-1.4-5.6C67.6,7,67,6.5,66.6,6.8c-2.2,1.8-4.9,2.9-7.7,3.2c-0.5,0.7,0.1,1.7,0.9,2
		c0.8,0.3,1.7,0.1,2.5-0.1c0.7-0.2,1.4-0.4,2-0.5c0.4-0.1,0.8-0.2,1.1-0.1c0.4,0.1,0.7,0.4,0.7,0.8c-2.7,0.5-5.3,1.2-7.9,2
		c-0.9,0.3-1.8,0.7-2.5,1.3C54.9,16,54.5,17,54.8,18c0.1,0.4,0.4,0.8,0.5,1.2c0.1,0.4,0,1-0.4,1.1c-1.6,0.6-2.4,2.8-1.4,4.2
		c0.5,0.7,0.7,1.5,0.6,2.3c1-0.4,2.1-1.2,1.9-2.3c-0.4-1.7,0.7-3.4,2-4.5c0.9-0.8,2.3-1.5,3.3-0.9c1,0.5,1.3,1.8,1.4,3
		c0.9-2.1,3.2-3.6,5.5-3.5c1.3,0,2.6,0.5,3.9,1c1,0.4,2.1,0.8,3.1,1.2C77.7,21.7,80.4,23,81.1,25.6 M24.1,47
		c-0.4-0.3-0.9-0.3-1.3-0.1c-0.4,0.2-0.8,0.5-1.1,0.8c-0.4,0.4-0.9,0.8-1.3,1.2c-0.2,0.2-0.4,0.4-0.6,0.4c-0.3,0-0.6-0.1-0.6-0.3
		c-0.2-0.8-0.5-1.8-1.3-1.9c-0.6-0.1-1.1,0.4-1.5,0.9c-0.4,0.6-0.7,1.4-0.7,2.1c4.3,0.6,8.5,2.3,12,4.9c0.2-0.7,0.5-1.5,0.9-2.2
		c0-0.4-0.4-0.6-0.7-0.8c-0.3-0.1-0.7-0.2-1-0.4c-0.3-0.2-0.5-0.7-0.2-1c0.4-0.4,0.1-1.2-0.4-1.5c-0.6-0.3-1.2-0.2-1.8-0.1
		C24.3,48.5,24.3,47.7,24.1,47 M37.9,74.2c0.6,0.8,1.2,1.6,1.9,2.4c0.3,0.4,0.6,0.7,0.9,1c0.8,0.8,1.9,1.3,3,1.8
		c1.2,0.6,2.4,1.1,3.8,1.2c1.3,0.1,2.6-0.1,3.7-0.8c-1.3-0.1-2.4-1.2-3.2-2.3c-0.9-1.1-1.8-2.2-2.7-3.2C44.9,74,44.5,74,44.1,74
		C42,74,39.9,74.1,37.9,74.2"/>
	<path class="st0" d="M67.7,38.9c0.1,0.1,0.3,0.2,0.3,0.3c0,0.1,0,0.2-0.1,0.3c-0.3,0.4-0.9,0.5-1.3,0.3c-0.4-0.2-0.7-0.8-0.5-1.3
		C66.6,38.5,67.2,38.6,67.7,38.9"/>
	<path class="st0" d="M61.3,24.5c-0.6,0.6-1,1.3-1.3,2.1c-0.1,0.3-0.6,0.2-0.8,0c0.1-0.6,0.2-1.2,0.6-1.7
		C60.1,24.4,60.8,24.1,61.3,24.5"/>
	<path class="st0" d="M66.2,40.7c0.5,0,1.1,0,1.6,0.1c0.2,0,0.4,0,0.6,0c0.4-0.1,0.9-0.5,1.2-0.3c0.2,0.1,0.1,0.4-0.1,0.6
		c-0.8,0.9-2.5,1-3.4,0C66.2,41,66.2,40.8,66.2,40.7"/>
	<path class="st0" d="M70.5,32.9c-0.1,0-0.2,0-0.4,0c-0.1-1-0.3-1.9-0.8-2.8c-0.2-0.4-0.6-0.9-0.6-1.4c0.7-0.1,1.2,0.4,1.6,1
		c0.4,0.6,0.6,1.4,0.6,2.2C70.9,32.3,70.8,32.8,70.5,32.9"/>
	<path class="st0" d="M68.3,33.8c-0.5-0.5-0.9-1.1-1.1-1.8c-0.1-0.3-0.1-0.7-0.2-1c-0.1-0.7-0.1-1.5-0.2-2.2
		c0.4-0.2,1.1,0.1,1.2,0.6c0.3,1.4,0.8,2.9,1.6,4.1C69.4,33.9,68.8,34.1,68.3,33.8"/>
	<path class="st0" d="M68.6,26.2c0.5-0.1,1,0.1,1.4,0.4c1.6,1,2.8,2.5,3.3,4.3c0.1,0.4-0.4,0.7-0.4,1c-0.3,0-0.6-0.1-0.7-0.4
		c-0.2-0.2-0.2-0.6-0.3-0.8c-0.4-1.5-1.5-2.8-2.8-3.5C68.7,27,68.5,26.6,68.6,26.2"/>
	<path class="st0" d="M92.5,41.8c-0.2-0.2-0.1-0.6,0.1-0.8s0.5-0.3,0.7-0.4c0.8-0.3,1.6-0.7,2.5-1c1.6-0.6,3.2-1.3,4.9-1.1
		c0.1,0,0.1,0,0.2,0.1c0.2,0.2-0.1,0.5-0.4,0.6c-2.2,0.8-4.4,1.6-6.6,2.4C93.4,41.7,93,41.8,92.5,41.8"/>
	<path class="st0" d="M61.4,39.8c0-0.8,0-1.6,0-2.3c0.3-0.3,0.9-0.2,1,0.2c0.2,0.8,1.1,1.3,1.6,2c0.5,0.6,0.7,1.3,0.7,2.1
		c0,0.5-0.2,1-0.6,1.1c-0.3,0.1-0.6,0-0.9-0.2c-0.9-0.5-1.7-1.2-1.8-2.2C61.4,40.3,61.4,40,61.4,39.8 M63.8,41.9
		c-0.3-1.1-0.9-2-1.6-2.9c0,0.6,0.1,1.2,0.4,1.7C62.8,41.2,63.3,41.7,63.8,41.9"/>
	<path class="st0" d="M119,26.5c-2.2-1.1-4.4-2.1-6.6-3.2c1.1,1.3,2.2,2.6,3.3,3.8c-0.4,0.4-1.1,0.1-1.5-0.3
		c-1.2-1.1-2.1-2.5-3.3-3.6c-2.9-3-7-4.4-11-5.5c-4-1-8.2-1.8-11.9-3.7c-0.6-0.3-1.2-0.9-0.9-1.4c3.5,1.5,7.1,2.7,10.8,3.4
		c4.6,0.9,8.9,3.1,13,5.3c0.9,0.5,1.8,0.9,2.6,1.4c1.5,0.8,3,1.6,4.6,2.4C118.7,25.4,119.3,26.1,119,26.5"/>
	<path class="st0" d="M31.9,88.8c-4-4.5-9.2-7.8-15-9.4c2.6,3.4,5.3,6.7,7.9,10.1c-0.5,0.5-1.4,0.4-1.9,0c-0.6-0.4-0.9-1.1-1.2-1.7
		c-1.7-3.1-4.1-5.7-6.5-8.3c-3.6-4-7.3-8-11.9-11c-1.4-0.9-3.1-2.1-3.2-3.8c0-0.3,0.2-0.6,0.4-0.5c5.3,3.6,10,8,14,12.9
		c0.7,0.9,1.9,1.1,3,1.4c5,1.2,9.6,3.7,13.3,7.3c1.3,1.2,2.5,2.7,4.2,3.4C34.2,89.8,32.7,89.7,31.9,88.8"/>
	<path class="st0" d="M114,33.7c-1.1,1.5-2.1,2.9-3.3,4.4c3.6-2.2,6.5-5.6,8.2-9.6c0.9,1.6-0.1,3.5-1.3,4.9
		c-1.9,2.2-4.1,4.1-6.6,5.6c2.5,2,5.1,4.1,7.6,6.1c0.9,0.7,1.9,1.8,1.3,2.8c-3.1-2.6-6.1-5.2-9-7.9c-0.5-0.5-1.2,0.3-1.4,0.9
		c-2,5-3.6,10.1-6.1,14.8c-2.5,4.7-5.9,9.2-10.5,11.8c-1.2,0.7-2.4,1.2-3.7,1.8c-3.8,1.7-7.6,3.3-11.4,5c0-0.6,0.5-1.2,0.9-1.6
		c2.3-2,5.3-2.8,8.1-3.9C91,67.3,95,65,98,61.6c6.9-7.9,7.3-20.1,14.7-27.5C113,33.7,113.6,33.4,114,33.7"/>
</g>
</svg>
