<?xml version="1.0" encoding="utf-8"?>
<!-- Generator: Adobe Illustrator 18.1.1, SVG Export Plug-In . SVG Version: 6.00 Build 0)  -->
<!DOCTYPE svg PUBLIC "-//W3C//DTD SVG 1.1//EN" "http://www.w3.org/Graphics/SVG/1.1/DTD/svg11.dtd">
<svg version="1.1" id="Layer_1" xmlns="http://www.w3.org/2000/svg" xmlns:xlink="http://www.w3.org/1999/xlink" x="0px" y="0px"
	 viewBox="0 0 130 117.4" style="enable-background:new 0 0 130 117.4;" xml:space="preserve">
<style type="text/css">
	.st0{fill:#00BCD4;}
</style>
<g id="dryeye-recom">
	<path class="st0" d="M1.7,117.4c-0.4-1.3-0.8-2.7-1.1-4c-0.3-1.5-0.6-3.1-0.6-4.7c0-1.3,0.4-2.6,0.6-3.9c0.5-2.7,1.1-5.4,1.4-8.1
		c0.3-2.9,0.4-5.9,0.4-8.9c0-2.5-0.3-5-0.3-7.5c0-3.4,0.1-6.8,0.3-10.3c0.1-2.8,0.3-5.5,0.4-8.3c0-0.8,0.2-1.6,0.2-2.3
		c-0.1-2.3,0.3-4.4,0.7-6.7c0.4-2.3,0.6-4.6,0.9-6.8c0.2-1.6,0.5-3.2,0.8-4.8c0.4-2.6,0.8-5.2,1.4-7.7c0.7-2.8,1.5-5.6,2.6-8.3
		c1.4-3.3,2.7-6.7,5.3-9.4c0.6-0.6,1.3-1,2.1-1.4c1.4-0.8,1.6-1.1,1.4-2.7C18,10.3,18.8,9.2,19.4,8C21,5,23.5,2.9,26.8,1.8
		c1.1-0.4,2.1-0.9,3-1.4c0.8-0.5,1.5-0.3,2.3-0.2c1.6,0.1,3.1,0,4.7,0c2.4,0,4.8,0.3,7,1.6c0.4,0.2,0.9,0.3,1.3,0.4
		c0.6,0.2,1.2,0.2,1.7,0.4c2.4,1.2,4.7,2.4,7,3.7c0.4,0.2,0.8,0.7,1.2,1c2.6,2.5,5.3,4.8,7.7,7.4c3.3,3.5,5.8,7.6,7.4,12.2
		c1.2,3.4,2.8,6.7,3.4,10.3c0.5,3.4,1.1,6.8,1.7,10.2c0.2,1.2,0.3,2.3,0.6,3.4c0.1,0.4,0.6,0.8,1,1.1c1.9,1.5,3.3,3.3,4.5,5.4
		c1.6,2.8,3.4,5.4,5.2,8.1c0.2,0.3,0.9,0.6,1.1,0.5c2.3-1.5,5-1.7,7.6-2.5c2.4-0.7,4.7-1,7.2-1.1c0.7,0,1.5,0,2.1,0.3
		c2.1,1,4.3,2,6.3,3.2c1.3,0.8,2.4,1.8,3.6,2.9c0.5,0.4,0.8,1.1,1.2,1.6c0.3,0.4,0.7,0.9,1.2,1.1c1.3,0.6,1.8,1.8,2,3
		c0.3,1.7,0.3,3.4,0.7,5c0.2,1,0.6,1.9,1.2,2.7c1.2,1.6,1.8,3.5,2.3,5.4c0.8,3.1,1.7,6.3,2.5,9.4c0.7,2.5,1.3,5,1.9,7.5
		c0,0.1,0,0.1,0,0.2c1.3,2.7,1.6,5.6,2.2,8.5c0.3,1.4,0.4,2.9,0.5,4.3c-0.5,0-0.9,0-1.4,0c-0.5-2.9-0.9-5.7-1.4-8.6
		c-0.3-1.5-1.1-3-1.5-4.5c-0.7-2.5-0.7-2.6-3.3-2.4c-0.1,0-0.1,0-0.2,0c-0.6,0-0.9,0.2-0.8,0.9c0.1,1.3,0.1,2.5,0.2,3.8
		c0,0.7,0,1.3,0,2c0.3,3,0.6,5.9,1,8.8c-0.5,0-1,0-1.6,0c-0.1-1.8-0.1-3.6-0.3-5.4c-0.1-1.4-0.6-2.8-0.7-4.2
		c-0.2-2.7-0.3-5.5-0.4-8.2c-0.1-1.4-0.2-2.7-0.4-4.1c-0.8-4.5-1.3-8.9-1.4-13.5c0-2.5-0.4-5-0.7-7.6c-0.1-0.8-0.5-1.5-1.4-1.9
		c-0.5-0.2-1.1-0.8-1.4-1.3c-0.7-1.4-1.9-2.3-3-3.2c-1.5-1.2-3.2-1.8-4.7-2.8c-2.7-1.9-5.5-1.6-8.4-1.1c-2.5,0.4-4.9,1.2-7.3,1.8
		c-0.5,0.1-0.9,0.4-1.3,0.5c1.2,1.7,1.1,2.6-0.4,3.8c-0.6,0.5-1.2,1-1.8,1.5c0,0.1,0.1,0.3,0.1,0.4c0.9-0.1,1.9-0.1,2.6-0.5
		c1.6-0.8,3-1.9,4.5-2.9c1.5-1,2.9-2,4.3-3c0.2-0.1,0.5-0.1,0.8-0.2c-0.1,0.2-0.1,0.6-0.3,0.7c-1.5,1.1-3.1,2.2-4.7,3.3
		c-0.5,0.3-1,0.6-1.4,0.9c0.5,0.4,1.1,0.7,1.3,1.1c0.6,1.3,0.5,1.7-0.6,2.7c-0.7,0.6-1.4,1.2-2.3,2c2.1-0.3,3.7-0.7,5-2.2
		c1.1-1.3,2.4-2.5,3.8-3.4c1.9-1.2,4-2.2,6.1-3.2c0.2-0.1,0.5-0.2,0.7-0.2c0.1,0,0.3,0.2,0.4,0.3c-0.1,0.1-0.2,0.3-0.3,0.4
		c-1.2,0.6-2.3,1.2-3.5,1.7c-2.3,1-4.3,2.3-5.9,4.2c-0.2,0.2-0.4,0.5-0.4,0.8c0.1,1.3,0.3,2.6,0.5,4.1c0.7-0.4,1.5-0.7,2.2-1.2
		c2-1.5,4-3,6.7-2.9c2.2,0.1,4.6-0.6,6.4,1.5c0.5,0.6,1.2,1.1,1.7,1.7c0.1,0.2,0.1,0.5,0.1,0.8c-0.2-0.1-0.5-0.1-0.7-0.2
		c-0.9-0.7-1.7-1.5-2.5-2.2c-0.4-0.3-1-0.7-1.4-0.7c-1.7,0-3.3,0-5,0.2c-0.7,0.1-1.6,0.3-2.1,0.8c-1.1,1-2.1,2.1-3.1,3.2
		c-0.2,0.3-0.4,0.9-0.3,1.2c0.1,0.3,0.7,0.8,1,0.7c0.7-0.1,1.3-0.4,1.9-0.7c0.6-0.2,1.1-0.6,1.7-0.7c1.3-0.1,2.6-0.2,3.9-0.1
		c0.4,0,0.8,0.3,1.2,0.5c-0.2,0.3-0.4,0.6-0.7,1.1c0.7,0.6,1.6,1.3,2.4,2c0.2,0.2,0.3,0.5,0.4,0.7c-0.3,0-0.7,0.1-0.9,0
		c-0.8-0.7-1.6-1.4-2.4-2.1c-0.3-0.3-0.6-0.5-0.9-0.7c-0.1,0-0.2,0.1-0.2,0.1c0.1,0.5,0,1,0.2,1.4c0.5,1.2,1.1,2.5,1.8,3.7
		c0.3,0.5,0.3,0.7-0.2,1.2c-0.7,0.6-1.5,1.4-1.6,2.2c-0.2,2-0.5,4.3,1.5,5.8c0.1,0.1,0,0.6,0,0.8c-0.3,0-0.7,0-0.7-0.1
		c-0.6-1.2-1.3-2.3-1.6-3.6c-0.4-2,0.1-3.9,1.5-5.5c0.2-0.2,0.3-0.7,0.1-0.9c-1.2-1.4-1.5-3-1.7-4.8c0-0.2-0.1-0.6-0.2-0.7
		c-0.6-0.5-2.1-0.4-2.8,0.1c-0.3,0.3-0.6,0.7-1,0.8c-0.7,0.2-1.6,0.3-2.3,0.2c-0.8-0.1-1-0.9-1.1-1.7c-0.2-0.9,0.4-1.4,0.9-2.2
		c-1.1,0.6-1.9,1-2.8,1.4c-1.2,0.6-2,0.3-2.5-0.9c-0.3-0.7-0.3-1.5-0.5-2.3c-1.4-0.2-1.9,0.5-2.8,2.4c1.3,0.2,1.8,1.3,2.5,2.3
		c1.7,2.6,2.7,5.6,5.1,7.7c1.3,1.2,2.5,2.6,3.9,4c1-1,1.9-1.9,2.8-2.7c0.2,1.4-0.7,2.2-1.6,3.1c-0.3,0.3-0.6,0.5-0.3,1
		c0.5,0.8,0.8,1.7,1.2,2.5c0.4,0.7,0.7,1.6,1.3,2.1c1,0.8,2.2,1.4,3.3,1.9c0.7,0.3,1.6,0.4,2.4,0.6c0.2,0.1,0.5,0.1,0.7,0.2
		c0,0.1,0,0.2-0.1,0.4c-1.7,0.9-3.3-0.7-5-0.8c0.1,0.4,0.1,0.6,0.1,0.9c0.4,2.5,0.5,5-0.5,7.4c-0.4,1-0.4,2.2-0.7,3.3
		c-0.4,1.6-0.8,3.2-1.2,4.8c-0.5,0-1,0-1.6,0c0.2-0.5,0.5-1.1,0.6-1.6c0.4-2.2,0.6-4.4,1.3-6.5c0.7-2,0.9-4,0.7-6.1
		c-0.1-1-0.4-2.1-0.8-3c-0.4-0.8-1-1.5-1.5-2.4c-0.7-1.2-1.1-2.6-1.9-3.7c-1.3-1.7-2.9-3.3-4.4-4.9c-0.5-0.6-1-1.1-1.4-1.7
		c-1.3-2.1-2.6-4.3-3.8-6.5c-0.8-1.3-1.8-1.4-2.8-0.3c-2.2,2.5-4.3,5-6.7,7.3c-1.7,1.6-3.7,2.9-5.6,4.3c-0.8,0.6-1.6,1.1-2.3,1.8
		c-1.1,1-2.1,2.1-3.5,2.9c-3.3,2-6.4,4.2-9.6,6.2c-1.1,0.7-2.3,1.5-3.6,0.5c-1.5-1.1-2.9-2.2-4.3-3.3c-1.3-1-2.5-2.1-3.8-3.1
		c-0.3-0.2-0.8-0.3-1-0.2c-0.3,0.1-0.4,0.6-0.4,1c-0.1,1.2-0.1,2.4-0.2,3.6c-0.1,0.6-0.6,1.2-0.7,1.8c-0.3,1.6-0.5,3.2-0.7,4.8
		c-0.5,3-1.1,6-1.6,9.1c-0.3,0-0.7,0-1,0c0.1-1.2,0.3-2.4,0.4-3.5c0-0.4,0.1-0.8,0.2-1.1c0.4-1.9,0.8-3.8,1.1-5.7
		c0.3-2.1,0.2-4.2,1.5-6.1c0.1-0.1,0-0.3,0-0.4c0.2-1.6,0.4-3.2,0.6-4.7c0-0.4,0-0.9-0.2-1.2c-0.4-0.6-1-1.2-1.5-1.8
		c-2.4-2.5-4.8-5-7.2-7.6c-1.1-1.3-2.1-2.7-3.1-4.1c-0.7,1.8-1.2,3.7-2.1,5.5c-1.9,3.8-3.3,7.8-4.6,11.7c-1.3,3.8-2.8,7.3-5.3,10.5
		c-2.1,2.7-3.8,5.7-5.7,8.5c-0.7,0-1.3,0-2,0c1.3-2,2.5-3.9,3.8-5.9c0.6-1,1.2-2,1.9-2.9c1.8-2,3.1-4.3,4.3-6.7c0.5-1.1,0.7-2,0-3.1
		c-1.1-1.8-2-3.8-3.9-5c-0.3-0.2-0.5-0.4-0.7-0.7c-0.9-1.4-1.7-2.8-2.5-4.3c-0.1-0.2,0-0.5,0.1-0.8c0.3,0,0.6,0,0.9,0.1
		c0.3,0.2,0.4,0.5,0.6,0.8c1.3,2.1,2.7,4,4.6,5.6c0.9,0.8,1.5,2.1,2.2,3.1c0.6-1.5,1.3-3,1.9-4.6c0.3-0.7,0.3-1.4,0.6-2.1
		c1-2.4,2.1-4.7,3.2-7.1c0.4-0.8,0.8-1.6,1-2.4c0.4-1.1,0.9-2.3,0.2-3.4c-0.6-1.1-1.2-2.2-2.1-3c-1.9-1.7-3.3-3.7-4.7-5.8
		c-1.2-1.8-2.7-3.5-4-5.3c-0.8-1.1-0.8-1.1-2-0.5c-0.3,0.1-0.5,0.4-0.8,0.6c-0.7,0.6-1.5,1.2-2.1,1.9c-1.6,1.6-3.2,3.1-4.5,4.8
		c-2.3,3.1-4.3,6.4-6.4,9.6c-1.2,1.9-2.3,3.9-3.2,5.9c-0.5,1.2-0.6,2.7-0.8,4.1c-0.3,3-0.5,5.9-0.9,8.9c-0.3,2.3-1.1,4.5-1.5,6.8
		c-0.5,3-0.6,6,0.5,9c0.3,0.8,0.5,1.7,0.7,2.5C2.7,117.4,2.2,117.4,1.7,117.4z M68.1,47c0-1.3,0.2-2.5,0-3.6
		c-1-4.3-2.1-8.6-3.4-12.8c-0.5-1.6-1.5-3.2-2.6-4.5c-1.8-2.2-4-4.1-5.9-6.2c-2.7-3.1-5.7-5.6-9.3-7.4c-1.8-0.9-3.6-1.7-5.7-1.2
		c-0.9,0.2-1.9,0.3-2.8,0.4c-3.2,0.3-6.2,1.3-9.2,2.5c-2,0.8-3.1,2.7-4.5,4.2c-1,1-1.2,2.3-1.4,3.5c-0.3,2.1-0.4,4.3-0.2,6.4
		c0.1,2,0.6,4.1,0.9,6.1c0.1,0,0.2,0.1,0.3,0.1c0.4-1.6,1.4-2.2,3-1.8c0.4-1.7,0.1-3.8,2.4-4.3c1.9-0.4,3.1,0.4,3.5,2.6
		c0.2-0.3,0.3-0.5,0.3-0.6c0.8-1.5,1.9-2,3.6-1.6c1.2,0.3,1.3,1.4,1.5,2.4c0,0.1,0,0.1,0,0.2c0,0.8,0.3,1.3,1.1,1.8
		c0.6,0.4,1.1,1.2,1.3,1.9c0.4,1.7,0.6,3.4,0.8,5.2c0.2,1.6,0.3,3.2,0.5,4.8c0.2,1.2,0.8,1.4,2,0.7c0-0.2-0.2-0.5-0.1-0.6
		c0.1-0.4,0.3-1,0.6-1.2c0.4-0.2,1-0.2,1.4,0c0.7,0.4,2.4,0.1,2.8-0.6c0.3-0.6,0.6-1.1,0.9-1.7c0.5-1,1.3-1.2,2.1-0.4
		c1.5-0.8,1.3-2.7,0-3.2c-0.4-0.2-0.9-0.4-1.3-0.6c-0.2-0.1-0.4-0.3-0.6-0.4c0.1-0.1,0.1-0.3,0.2-0.4c0.7,0.2,1.4,0.4,2.1,0.7
		c1.5,0.8,1.4,1.4,1.3,3c-0.1,1-1.2,1.8-2.3,1.9c-0.3,0-0.7,0.2-0.9,0.4c-0.7,1.1-1.6,2-3,2.1c-0.2,0-0.3,0.3-0.5,0.4
		c-1.2,0.7-2.2,2.1-4.2,1.5c0.6,2.1,1.2,3.9,1.8,5.8c0.1,0,0.2,0,0.3,0c0.6-1,1.2-1.9,1.7-2.9c0.4-0.9,1-1.3,1.9-1.2
		c0.7,0.1,1.1-0.2,1.2-0.8c0.2-0.8,0.7-1.2,1.6-1.4c2.8-0.4,5.6-1.3,8.5-0.1c-2.7,5.5-6.7,9.3-13.3,9.6c0.1,0.4,0.1,0.5,0.2,0.7
		c1.2,2.2,2.4,4.4,3.6,6.6c0.2,0.3,0.4,0.7,0.7,0.8c2.4,0.6,4.8,0.8,7-0.7c0.7-0.5,1.4-1,2.1-1.5c2.2-1.6,4.5-3.2,5.8-5.8
		c1.1-2,2.8-3.7,2.4-6.3c0-0.3-0.3-0.7-0.5-0.8c-0.9-0.4-1.8-0.6-2.6-1c-0.3-0.1-0.6-0.7-0.5-0.9c0.1-0.3,0.6-0.5,0.9-0.6
		c0.3-0.1,0.6,0.1,0.9,0.2C66.7,46.5,67.3,46.7,68.1,47z M58.4,101.2c0.1-0.4,0.1-1,0.4-1.3c1.2-1.3,2.3-2.8,3.7-3.9
		c1.5-1.1,3.2-1.9,4.9-2.8c0.3-0.2,0.7-0.3,1-0.3c1.1-0.2,2.2-0.4,3.3-0.6c0.2-1.2,0.7-1.6,2-1.2c0.3,0.1,0.6,0.2,0.9,0.3
		c0.9,0.5,1.8,0.3,2.8-0.7c0.6-0.6,0-1.2-0.2-1.8c-0.1-0.2-0.1-0.3-0.1-0.5c0-0.3-0.1-0.7,0.1-0.8c0.3-0.2,0.7-0.3,1.1-0.4
		c0.2,0,0.4,0.1,0.5,0.2c0.3-5.8,4.3-8.2,8.8-10c-0.3-0.3-0.7-0.6-0.9-1c-0.7-0.9-1.4-1.9-2.1-2.8c-1.5-1.5-1.6-3.3-0.3-5
		c0.3-0.4,0.6-1,0.8-1.5c0.3-0.6-0.3-1.6-0.9-1.8c-3-1-5.9-2-8.3-4.3c-0.3-0.3-0.8-0.4-1.4-0.7c1.1,2.5,2.1,4.6,3.1,6.7
		c0.1,0.3,0,0.6,0,0.9c-0.2-0.2-0.5-0.4-0.7-0.7c-0.1-0.1-0.1-0.2-0.1-0.3c-1.6-3.1-3.1-6.1-4.7-9.2c-0.6-1-1.3-2-1.9-3
		c-0.5-0.7-0.9-1.5-1.4-2.3c-0.3,0.4-0.4,0.6-0.5,0.8c-1,1.6-1.9,3.3-3.2,4.6c-1.7,1.8-3.5,3.4-5.4,4.9c-2.3,1.8-5,2.4-7.9,1.9
		c-0.2,0-0.5,0.1-0.8,0.1c0.1,0.3,0.1,0.6,0.2,0.8c0.6,1.3,1.4,2.5,1.9,3.9c0.8,2.6,0.3,5.2-0.3,7.7c-0.1,0.6-0.2,1.1,0.5,1.3
		c0.9,0.3,1.8,0.7,2.7,1c0.9,0.2,1.8,0.3,2.6,0.6c0.3,0.1,0.6,0.4,0.9,0.6c-0.3,0.1-0.7,0.4-0.9,0.3c-0.8-0.1-1.6-0.4-2.3-0.6
		c-1.2-0.3-2.4-0.5-3.7-0.8c-0.2,0.8-0.3,1.5-0.5,2.1c-1.3,3.8-1,7.8-1.9,11.6c-0.1,0.3,0.1,0.7,0.3,1
		C52.7,97.3,55.3,99.6,58.4,101.2z M49,92.8c0.1-0.5,0.2-0.8,0.2-1c0.2-4.6,1.3-9,2.1-13.5c0.2-1.3,0.5-2.7,0.6-4
		c0.2-2.6-0.3-5-1.5-7.3c-1.2-2.6-2.3-5.2-3.8-7.6c-0.8-1.3-1.6-2.7-2.1-4.1c-0.9-2.4-1.7-4.9-2.6-7.3c-0.1-0.3-0.2-0.6-0.2-0.8
		c-0.3-2.6-0.6-5.2-0.9-7.8c-0.8,0.9-1.7,1.1-3,0.6c-0.1,2.2-0.3,4.2-0.3,6.2c-0.1,2,0,2,2,2c0.2,0,0.5,0.2,0.7,0.3
		c-0.2,0.1-0.4,0.4-0.6,0.4c-0.7,0.1-1.3,0-2.2,0c0.1,1.5,0.2,2.9,0.4,4.3c0.1,0.7-0.1,1.1-0.9,0.8c0-1.5,0.1-2.9,0-4.4
		c-0.3-3.6-0.3-7.1,0.6-10.6c0.5-1.9,0.6-3.8,0.4-6c-1.1,1.7-2.5,1.9-4.1,1.2c-0.6,3.7-1.2,7.3-1.8,11c0.8,0,1.6,0,2.3,0
		c0,0.1,0,0.3,0.1,0.4c-0.8,0.2-1.5,0.4-2.4,0.6c0,2.4-0.3,5,0.5,7.5c0.2,0.6,0.2,1.2,0.3,1.8c0,0.2-0.2,0.3-0.3,0.5
		c-0.2-0.1-0.5-0.2-0.5-0.4c-0.3-1.6-0.6-3.1-0.7-4.7c-0.1-3.2-0.1-6.4,0.7-9.6c0.3-1.3,0.7-2.6,0.8-3.9c0.1-1.6,0.1-3.2,0.1-4.8
		c0-0.8-0.2-1.7-0.3-2.5c-0.5,1.1-0.9,2.2-1.3,3.2c-0.7,1.6-1.1,1.7-2.8,1.3c-0.3,3.8-0.6,7.7-0.9,11.6c1.1,0,1.9,0,3,0
		c-0.8,1.2-2,0.6-2.9,1.1c0,0.2-0.1,0.4-0.1,0.6c0.2,2.6,0.4,5.1,0.6,7.7c0,0.3-0.1,0.6-0.2,0.9c-0.2-0.3-0.5-0.5-0.5-0.8
		c-0.8-2.7-0.6-5.4-0.6-8.1c0-1.5,0.1-3.1,0.2-4.6c0.1-1.3,0.2-2.6,0.4-3.8c-0.9-0.2-1.7-0.5-2.5-0.7c-0.2,1.3-0.5,2.7-0.6,4
		c-0.2,2.1-0.3,4.2-0.5,6.3c-0.2,3-0.3,6,0.6,8.9c0.3,0.8,0.6,1.7,0.6,2.6c-0.1,1.8,1.1,2.9,1.9,4c1.8,2.5,3.9,4.7,5.8,7.1
		c1.1,1.3,2,2.8,3.1,4.2c0.8,1.1,1,1.1,2.1,0.3c0.3-0.2,0.6-0.5,0.9-0.5c1.6-0.4,3.1,0,4.6,0.5c0.3,0.1,0.6,0.3,0.8,0.5
		c0.2,0.2,0.3,0.5,0.4,0.8c-0.3,0-0.6,0-0.9-0.1c-0.5-0.2-0.9-0.6-1.4-0.6c-1.3,0.1-2.7,0.3-4,0.7c-1.3,0.4-1.4,1.2-0.6,2.4
		c0.5,0.7,0.9,1.5,1.5,2.2c1.3,1.6,2.6,3.3,4.1,4.6c1.5,1.3,3,2.5,4.2,4.2C47.7,91.3,48.4,92,49,92.8z M57.5,47.6
		c-2.1,0.1-11,5.6-11.3,7.1C49.5,55.3,56.4,51.6,57.5,47.6z M124.6,99.8c-0.8-2.9-1.5-5.7-2.2-8.5c-0.1-0.5-0.4-1-1-0.7
		c-0.6,0.3-1.4,0.3-1.3,1.3c0.3,2.5,0.7,4.9,1,7.4c0.1,0.5,0.3,0.8,0.9,0.7C122.7,99.9,123.6,99.8,124.6,99.8z M59.4,101.7
		c0.1,0.1,0.3,0.2,0.4,0.3c3.7-2.8,7.9-5.1,11.3-8.4c-1.3,0.2-2.5,0.4-3.6,0.9c-1.2,0.5-2.2,1.3-3.3,1.9c-1.7,0.8-3,2-4,3.5
		C59.9,100.3,59.7,101,59.4,101.7z M57.8,46.2c-0.4,0-0.7-0.1-1-0.1c-1.6,0.1-3.3,0.2-4.9,0.5c-0.8,0.1-1.7,0.5-1.9,1.4
		c-0.2,0.8-0.7,0.8-1.4,0.9c-0.5,0.1-1.1,0.4-1.4,0.8c-0.6,0.9-1.1,1.9-1.6,2.9c-0.1,0.2-0.1,0.5-0.2,0.9c2.1-1.4,4.1-2.8,6.1-3.9
		C53.5,48.4,55.6,47.4,57.8,46.2z M83.6,64.1c-2-4-4.4-7.5-7.4-10.5c-0.1,0.3-0.1,0.5,0,0.7c0.7,1.9,1.5,3.8,2,5.7
		c0.5,1.9,1.6,2.9,3.4,3.5C82.2,63.7,82.8,63.8,83.6,64.1z M88.3,78.7c-2.8,0.5-5.8,2.5-7.3,4.8c-0.7,1.1-1.3,2.2-0.9,3.8
		C83,84.4,86.7,82.5,88.3,78.7z M35.3,34c0.9,0,1.5-0.3,1.8-1c0.2-0.3,0.2-0.7,0.4-1.1c0.4-1.1,0.2-2.1-0.6-2.4
		c-0.9-0.4-2.1,0.1-2.6,1.1c-0.2,0.6-0.3,1.2-0.4,1.8C33.7,33.5,34.1,34,35.3,34z M28.2,31.9c0.1,0.5,0.1,0.7,0.1,1
		c0,0.6,0.1,1.2,0.8,1.3c0.7,0.1,0.9-0.4,1.2-0.9c0.8-1.1,0.9-2.4,1.1-3.7c0-0.2-0.3-0.6-0.5-0.6c-0.9-0.3-1.9,0.2-2.3,1
		C28.4,30.6,28.3,31.4,28.2,31.9z M89.8,74.5c0,0.8,0.7,1.5,1.1,1.2c1.1-0.7,2.1-1.6,3-2.5c0.2-0.2,0.2-0.9,0-1.3
		c-0.1-0.3-0.7-0.5-1-0.5C91,71.4,89.8,72.6,89.8,74.5z M86,71.5c0,0,0.2-0.1,0.3-0.1c1-0.7,2.1-1.3,3-2.1c0.6-0.5,0.3-1.3,0-1.8
		c-0.3-0.4-0.9-0.5-1.4-0.1c-0.3,0.2-0.6,0.4-0.9,0.6c-0.6,0.5-1.2,0.9-1.6,1.4C84.7,70.2,85.1,71.4,86,71.5z M84.8,72.3
		C84.8,72.3,84.8,72.4,84.8,72.3c1.4,1.7,2.7,3.2,4.1,4.8c0.2,0.2,0.7,0.3,1,0.2c0.5-0.3,0.3-0.8,0-1.1c-0.8-0.7-0.9-1.7-0.7-2.7
		c0-0.2,0.1-0.4,0.1-0.5C87.7,72.8,86.2,72.5,84.8,72.3z M27.4,38.1c0-0.9,0-1.9,0-2.9c0-0.2,0.1-0.5,0-0.7c-0.3-0.4-0.6-1-1-1.1
		c-0.6-0.3-0.9,0.3-1.1,0.8c-0.2,0.7-0.2,1.3-0.4,2C24.6,37,25,37.5,25.6,38C26.1,38.4,26.7,38.6,27.4,38.1z M39,39.5
		c0.5-0.2,0.8-0.3,1-0.4c1.1-0.9,0.9-3.1-0.4-3.7c-0.6-0.3-1-0.2-1.1,0.6c-0.1,0.9-0.2,1.8-0.2,2.7C38.4,38.8,38.8,39.1,39,39.5z
		 M119.7,89.1c1.8-0.5,1.9-0.7,1.5-2.1c-0.3-0.9-0.6-1.8-1-2.6c-0.1-0.3-0.4-0.6-0.6-0.9c-0.1,0-0.2,0.1-0.3,0.1
		C119.5,85.4,119.6,87.2,119.7,89.1z M97,75.2c-0.1,0-0.2-0.1-0.3-0.1c-0.4,0.6-0.9,1.2-1.2,1.8c-0.3,0.6-0.2,1.2,0.3,1.7
		c0.6,0.6,1.1,0.6,1.2-0.3C97.1,77.3,97,76.3,97,75.2z M69.2,46.7c0,0.1,0,0.3-0.1,0.4c0.5,0.1,1,0.2,1.4,0.5c1.3,0.7,2.7,1.4,4,2.1
		c0.2,0.1,0.4,0.1,0.6,0.1c0-0.2,0-0.5-0.1-0.6c-0.2-0.3-0.5-0.6-0.8-0.7c-1.2-0.6-2.5-1.2-3.8-1.7C70.1,46.6,69.6,46.7,69.2,46.7z"
		/>
	<path class="st0" d="M46.6,29.7c2.9,0.1,5.1-1.4,7.8-2.5c-2.2-0.9-3.7,0.4-5.3,1.2c-0.1-0.1-0.1-0.2-0.2-0.3
		c0.1-0.3,0.2-0.8,0.4-0.9c1-0.5,2-1.1,3-1.1c1.7-0.1,3.5,0.2,5.2,0.3c0.2,0,0.4,0.3,0.6,0.4c-0.2,0.2-0.4,0.4-0.6,0.5
		c0,0-0.1,0-0.1,0c-1.8-0.5-2.9,1-4.4,1.6c-1.5,0.6-3.1,1.2-4.6,1.7C47.4,31.1,46.9,30.7,46.6,29.7z"/>
	<path class="st0" d="M54.3,21c-0.4,0.2-0.8,0.4-1.1,0.4c-2.7,0.1-4.5,1.8-6.4,3.4c-0.2,0.2-0.4,0.5-0.6,0.8
		c-0.3,0.5-0.7,0.8-1.3,0.4c-0.5-0.4-0.8-1-0.1-1.5c1.4-1.1,2.9-2.2,4.3-3.3c1-0.8,2.1-1.3,3.4-1.1c0.4,0.1,0.9,0.2,1.3,0.4
		C54,20.5,54.1,20.7,54.3,21z"/>
	<path class="st0" d="M73,71.2c-0.1,0.4-0.2,0.6-0.3,0.7c-1.1,1.3-2.2,2.5-3.3,3.8c-1.3,1.4-2.6,2.9-3.8,4.3
		c-0.2,0.2-0.5,0.4-0.7,0.3c-0.2-0.1-0.4-0.4-0.4-0.7c0-0.2,0.1-0.5,0.2-0.6c1.3-1.4,2.7-2.8,4-4.2c1-1,1.9-2.1,2.9-3.1
		c0.2-0.2,0.4-0.5,0.7-0.7C72.4,70.9,72.7,71.1,73,71.2z"/>
</g>
</svg>
