<?xml version="1.0" encoding="utf-8"?>
<!-- Generator: Adobe Illustrator 18.1.1, SVG Export Plug-In . SVG Version: 6.00 Build 0)  -->
<!DOCTYPE svg PUBLIC "-//W3C//DTD SVG 1.1//EN" "http://www.w3.org/Graphics/SVG/1.1/DTD/svg11.dtd">
<svg version="1.1" id="Layer_1" xmlns="http://www.w3.org/2000/svg" xmlns:xlink="http://www.w3.org/1999/xlink" x="0px" y="0px"
	 viewBox="404.9 180 150 200.2" style="enable-background:new 404.9 180 150 200.2;" xml:space="preserve">
<style type="text/css">
	.st0{fill:#FF5722;}
</style>
<g id="eye-lady">
	<g>
		<path class="st0" d="M435.7,251.2c-0.1-1.3-0.2-2.6-0.4-3.9c-0.1-1.2-0.5-2.4-0.5-3.6c0-0.1,0-0.1,0-0.2c0,0.6,0.1,1.2,0.1,1.7
			C435.2,247.2,435.4,249.2,435.7,251.2z"/>
		<path class="st0" d="M434.8,243.4C434.8,243.4,434.8,243.4,434.8,243.4C434.8,243.4,434.8,243.4,434.8,243.4z"/>
		<path class="st0" d="M435.8,252c0-0.3-0.1-0.6-0.1-0.8c0,0.4,0.1,0.7,0.1,1.1C435.9,252.2,435.9,252.1,435.8,252z"/>
		<path class="st0" d="M554.9,355c-0.7-2.7-1.6-5.4-2.2-8.1c-0.6-3-1.4-6.1-1.4-9.1c0-5.9-1.4-11.4-3-16.9c-0.6-2-1-4.2-1.4-6.4
			c-0.4-2.2-0.6-4.5-0.9-6.7c-0.2-1.6-0.6-3.4-0.6-5c-0.1-2.9,0-5.7-0.7-8.6c-0.7-2.5-1.4-5-1.7-7.5c-0.6-3.7-3.2-6.1-5.6-8.7
			c0,0-0.1-0.1-0.2-0.1c-2.2-1-4.5-2-6.9-3c-0.9-0.4-1.9-0.5-2.6-1c-2.9-1.6-6-1.9-9.1-2c-3.9-0.1-7.9,0.6-11.7,1
			c-2.7,0.4-5.5,0.9-8.4,0.4c-2.2-0.5-3.6-1.9-3.9-4c-0.2-1.9-0.5-3.6-0.7-5.5c0-0.9-0.2-1.9,0.1-2.5c1-1.9,2.5-3.6,3.5-5.5
			c1-2,2.1-4,2.7-6.1c0.9-3.2,1.2-6.5,1.7-9.7c0.1-1.7,1.2-2.9,2.4-4c2.6-2.6,4.6-5.5,5.4-9.1c0.5-2.7,0.9-5.5,1.2-8.2
			c0.4-2.2,0.6-4.4,0.9-6.6c0.2-2.5-0.6-4.9-0.9-7.4c-0.4-4.9-2.5-8.6-5.9-11.7c-1.5-1.4-3.1-2.6-4.6-3.9c-0.4-0.4-0.7-0.7-1.2-1
			c-3.6-1.7-7.1-3.9-11.1-4.5c-0.2,0-0.4-0.1-0.6-0.1c-1-0.6-2.1-1-3.2-1.4c-1.9-0.9-3.8-1.7-6-1.6c-1.9,0.1-3.9-0.1-5.7-0.2
			c-2.2-0.1-4.5-0.2-6.7,0.5c-3.7,1.2-6.5,3.9-9.2,6.5c-1.2,1.2-2.4,2.6-3.7,3.7c-2.9,2.4-5.1,5-6.4,8.5c-0.6,1.6-0.9,3.5-1.6,5.1
			c-2.1,4.5-1.9,9.4-1.9,14.1c0,0.4,0,0.6,0.1,1c0.5,2.1,1,4.1,1.6,6.1c0.9,3,1.9,5.9,2.9,8.9c0.2,0.6,0.6,1.2,0.1,2
			c-0.9,1.7-1.7,3.5-2.5,5.4c-0.9,2.1-1.6,4.4-2.5,6.9c-0.6-1-1-1.7-1.5-2.5c-1-1.6-1.7-3.2-2.9-4.6c-1-1.4-2.7-0.9-3.2,0.7
			c-0.1,0.3-0.1,0.6-0.1,1c0-0.6,0.4-1.1,0.8-1.4c0.4-0.1,1.2,0.4,1.6,0.7c0.9,1,1.5,2.2,2.1,3.4c0.5,0.9,0.9,1.9,1.5,2.6
			c0.5,0.6,0.5,1.2,0.2,2c-0.7,2-1.4,4.1-2,6.2c0,0.2,0.1,0.6,0.2,0.9c0.2-0.2,0.5-0.4,0.6-0.6c1.2-3.5,2.4-7,3.5-10.5
			c0.1-0.6,0.5-0.9,1.1-0.6c0.6,0.1,1.1,0.1,1.7,0.1c0.1-0.1,0.1-0.4,0.1-0.5c-0.5-0.1-1-0.2-1.4-0.5c-0.2-0.2-0.7-0.7-0.6-1
			c1.4-3.6,2.5-7.2,5.4-10c0.4-0.4,0.9-0.5,1.2-0.5c1.7,0,3.5,0.4,5.2-0.5c-0.5,1.4-1.1,2.6-1.9,3.9c-1.6,2.7-3.2,5.5-3.7,8.7
			c-0.4,2.1-0.9,4.1-1.2,6.2c-0.1,0.4-0.1,0.7-0.4,1c-2,2.5-3.9,5-6.5,6.7c-0.9,0.5-1.4,1.2-1.2,2.4c0.2,1.9,0.4,3.7,0.5,5.6
			c0.1,0.2,0.4,0.6,0.5,0.9c0.2-0.2,0.5-0.6,0.5-0.9c0-1.2-0.2-2.6-0.2-3.9c0-1.1-0.5-2.4,0.7-3.4c1.9-1.5,3.6-3.4,5.4-5.1
			c2.1-2.1,4.2-4.4,6.4-6.6c0.2-0.2,0.6-0.2,1-0.2c0.4,0,0.7,0.1,1.1,0.1c-0.2-0.2-0.4-0.6-0.6-0.9c0-0.1,0-0.2-0.1-0.4
			c3.2-3.7,6.5-7.5,9.6-11.1c1,0.7,1.7,1.4,2.5,2c-1,1.4-2.1,2.9-3.4,4.4c-0.6,0.9-1.5,1.4-2.2,2.1c-0.5,0.5-1.1,1-1.5,1.5
			c-2,2.9-4,5.7-5.7,8.7c-1,1.7-2,3.4-3.9,4.4c-0.9,0.5-1.7,1.4-2.5,2.1c-1.9,2-2.4,4.5-1.6,7.2c0.1,0.4,0.5,0.6,0.7,1
			c0.1-0.4,0.2-0.5,0.2-0.6c0-0.4,0-0.7-0.1-1.1c-0.7-2.9,0.4-5.1,2.5-6.9c0.6-0.5,1.2-1.1,2-1.5c1.2-0.9,2.1-1.9,2.9-3.1
			c0.7-1.4,1.6-2.6,2.5-3.9c0.1-0.1,0.5-0.4,0.7-0.4c0.4-0.1,0.7,0,1.1,0c-0.2-0.4-0.5-0.6-0.7-1c0-0.1,0-0.1-0.1-0.5
			c1.2-1.6,2.4-3.6,4-5.1c1.5-1.4,3-2.7,4.1-4.5c0.5-0.7,1-1.4,2-0.6c0.2,0.2,0.7,0.2,1.1,0.2c1.5,0.1,2.9-0.1,4.1-1.2
			c-0.1,2.1-1.5,3.2-2.6,4.7c0-0.4-0.1-0.5-0.1-0.6c-0.4-1.2-1.2-1.6-2.4-1.7c-1.1-0.1-1.5,0.6-1.9,1.5c-0.2,0.5-0.5,1.1-0.9,1.5
			c-1.9,1.9-2.6,4.4-3.9,6.6c-1.5,2.6-2.6,5.4-4,8.1l-2.2,4.5c-0.1,0.2-0.1,0.7-0.1,1.1c0.1,0,0.2,0.1,0.4,0.1
			c0.2-0.2,0.5-0.5,0.6-0.9c1.1-2.1,2.2-4.4,3.4-6.6c0.9-1.5,0.7-1.5,2.4-0.7c0.2,0.1,0.5,0,0.7,0c-0.1-0.2-0.1-0.5-0.2-0.7
			c-0.2-0.2-0.5-0.4-0.7-0.4c-1-0.1-1-0.6-0.6-1.4c1.1-2.1,2.2-4.2,3.2-6.5c0.4-0.7,0.6-1,1.5-0.9c1.6,0.1,2.1-0.2,2.6-1.7
			c0.1-0.5,0.4-0.9,0.6-1.4c0.1,0,0.2,0.1,0.4,0.1c-0.2,1.6-0.4,3.2-0.9,4.9c-0.9,2.7-2,5.2-2.9,8c-0.6,1.7-1.1,3.5-2.4,4.9
			c-1,1.1-1.4,2.5-1.4,4c0,4.9,0,9.7-0.1,14.6c-0.1,2.6,0.1,5.4-0.9,7.9c-0.9,2.5-2.4,4.4-5.4,4c-0.6,0-1.4-0.2-2-0.4
			c-0.4,0-0.7,0.1-1.1,0.1c0.4,0.2,0.5,0.6,0.9,0.7c1.2,0.2,2.5,0.5,4,0.7c-0.6,2-1.2,4-2,5.6c-0.1,0.5-0.4,1.1-0.5,1.6
			c-1,5.9-1.9,11.7-2.7,17.6c-0.6,3.6-1.4,7.2-1.7,10.9c-0.7,7.6-4,14.5-6.6,21.6c-0.4,0.6-0.7,1.2-1.1,2c-0.9,1.9-1.9,3.7-2.6,5.7
			c-0.9,2.4-1.5,4.9-2.5,7.1c-1.1,2.4-2.5,4.7-3.9,7.1c-1.2,2-2.2,4.1-4.2,5.5c-0.2,0.2-0.6,0.4-0.9,0.5c0.2,0.2,0.4,0.4,0.5,0.6
			c0.6-0.2,1.4-0.4,1.7-0.9c1.2-1.6,2.6-3.2,3.6-5c1.9-3.2,3.9-6.5,5-10.2c0.9-2.9,2.1-5.6,3.2-8.4c0.6-1.5,1.6-2.9,2.2-4.4
			c1.2-3,2.4-5.9,3.4-8.9c0.6-1.7,1.1-3.5,1.6-5.4c1-3.7,1.9-7.6,1.9-11.6c0-1.1,0.5-2.1,0.7-3.2c1.1,0.7,2,1.5,3,2
			c3.1,1.4,6.2,2.7,9.4,3.9c2.1,0.7,4.4,1.2,6.5,1.5c4.1,0.4,8.2,0.5,12.4,0.6c3,0.2,5.7-0.5,8.5-1.4c2.5-0.9,5.1-1.6,7.5-2.6
			s4.5-2.4,6.7-3.6c0.5-0.2,0.9-0.6,1.2-0.9c0.1,0.5,0,0.9-0.1,1.2c-0.6,2.9-1,5.6-0.4,8.5c0.4,2,1,4,1.5,6c0.6,2.9,1.6,5.7,1.5,8.9
			c0,0.5,0.4,1,0.6,1.5c0.2,0.5,0.7,1.1,0.9,1.7c0.5,2.1,0.9,4.4,1.4,6.5c1,3.9,2.2,7.7,3.1,11.7c0.9,3.7,1.5,7.6,2.2,11.5
			c0.1,0.6,0.4,1,1.4,0.5c-2.5-10.2-4.9-20.5-7.4-31c1.2,0.2,2.4,0.5,3.4,0.6c1,0.1,2,0.7,3,0c-0.4-0.2-0.7-0.4-1.1-0.5
			c-1.5-0.2-3-0.5-4.5-0.9c-1.6-0.4-2-1-2.1-2.7c-0.1-1.6-0.5-3.1-0.9-4.7c-0.2-1.1-0.5-2.1-0.7-2.9c1.7-0.7,3.2-1.5,4.7-2.1
			c0-0.2-0.1-0.4-0.1-0.5l-1.1,0.4c-0.9,0.4-1.6,0.7-2.5,1.1c-0.7,0.2-1.2,0-1.4-0.9c-0.1-0.9-0.4-1.7-0.6-2.6
			c-1.2-3.7-0.7-7.5,0.4-11.4c0.5,0.2,0.7,0.5,1.1,0.6c1.2,0.6,2.5,1.2,3.7,1.7c3,1.2,6.4,1.7,8.9,4.1c0.6,0.6,1.4,1,2,1.5
			c1,0.7,1.9,1.4,2.7,2c0,0.1-0.1,0.1-0.1,0.2c-1.1-0.6-2.2-1.4-3.5-1.9c-3.9-1.7-7.6-3.5-11.5-5.2c-1.6-0.7-3,0-3.1,1.9
			c0,2.1,1.2,3.5,2.9,4.4c1.5,0.9,3.1,1.4,4.6,2.1c2.5,1.1,5,2.4,7.1,4.4c0.6,0.5,1.2,0.9,1.9,1.4c0.1-0.1,0.1-0.2,0.2-0.4
			c-0.7-0.6-1.4-1.5-2.2-2c-2.4-1.4-4.7-2.7-7.2-4.1c-1.4-0.7-2.9-1.4-4.4-2.1c-0.4-0.1-0.6-0.5-1-0.7c2.2,0.4,3.9-0.4,5-2.2
			c0.5,0.2,0.9,0.4,1.2,0.5c1.9,0.9,3.7,1.7,5.6,2.6c1.5,0.7,1.5,0.7,0.9,2.2c0,0,0.1,0.1,0.2,0.4c0.4-0.5,0.7-1,1.1-1.5
			c1.6,0.9,3.2,1.7,4.9,2.5h0.6c0-0.2,0-0.5-0.1-0.6c0-0.1-0.2-0.2-0.4-0.4c-2.6-2-5.1-4.1-7.7-6c-1-0.7-2.1-1.2-3.2-1.7
			c-3.4-1.4-6.9-2.6-10.4-4c1.4,0,2.7,0.2,4,0.1c1.2-0.1,1.9-1.1,2.1-3c1.4,0.4,2.7,0.9,4.2,1.2c1.9,0.5,4,0.7,5.9,1.4
			c1.1,0.4,2.2,1,3.1,1.9c0.2,0.4-0.2,1.6-0.5,2.5c1.1,0.1,0.9-1.1,1.5-1.5c0.6,0.5,1.1,1.1,1.9,1.4c1.6,0.6,2.6,2,3.5,3.5
			c1,1.7,1.6,3.6-0.1,5.5c-0.9,0.9-1.1,2-1.1,3.2c0,0.7-0.2,1.5-0.7,2c-1.1,1.1-2.2,2.1-3.4,3.1c-1.7,1.5-2,2.2-1.2,4.4
			c0.6,2,1.2,4.1,2.1,6c0.6,1.2,1.4,2.5,2.4,3.5c3,3.1,6,6.2,9.1,9.4c1.2,1.1,2.6,2.1,4,3.2c0.1,0,0.2-0.1,0.4-0.2
			c-0.4-0.5-0.5-1-0.9-1.4c-0.9-0.7-2-1.5-2.9-2.4c-3-3.1-6.1-6.2-9.1-9.4c-0.6-0.6-1.2-1.2-1.5-2c-1-2.5-2-5-2.9-7.6
			c-0.4-1.2,0.1-2.1,1-3c1.2-1,2.4-2,3.4-3.1c0.5-0.6,1-1.5,1-2.2c0-1.4,0.4-2.5,1.2-3.5c1.1-1.4,1.4-2.7,0.5-4.4
			c-0.2-0.6-0.2-1,0.5-1.4c1.7-0.9,2.4-3.1,1.2-4.6c-0.7-0.9-1.5-1.7-2.2-2.6c-0.2-0.2-0.5-0.7-0.4-1c1.1-3.1-0.2-6-3.5-7.5
			c-1.9-0.9-3.5-2.2-5.1-3.5c-1.6-1.2-3.2-2.5-5.5-2.1c-1,0.1-2.1,0-3.1,0c-0.2,0-0.7-0.1-0.7-0.2c-0.4-1.1-1.1-2.4-1.1-3.6
			c-0.4-7.5-0.5-14.9-0.7-22.4c-0.1-2.2-0.4-4.4-0.6-6.6c-0.1-0.6,0-1.1,0.9-1.2c2.9-0.2,5.6,0.4,8.5,0.9c0.4,0.1,0.9,0.4,1.2,0.5
			c1.2,0.5,2.6,1.1,4,1.6c3.9,1.4,7.5,2.7,9.5,6.7c0,0.1,0.1,0.2,0.2,0.4c1,1.2,1.7,2.5,1.9,4.1c0.1,1.1,0.4,2.2,0.6,3.4
			c1,3.9,2,7.9,1.9,12c-0.1,2.5,0.4,5.1,0.6,7.6c0.1,1.4,0.5,2.7,0.7,4c0.5,2.7,1,5.4,1.7,8c1.1,4.1,2.5,8.2,2.5,12.5
			c0,7.2,2,14,3.7,20.9c0.1,0.2,0.5,0.5,0.7,0.7C554.7,355.8,555,355.3,554.9,355z M469.3,245.9c-0.2,0.2-0.9,0.2-1.2,0.4
			c0-0.1-0.1-0.2-0.1-0.4c1.4-2.7,1.4-2.7,2.4-2.5C469.9,244.2,469.8,245.1,469.3,245.9z M515.8,327.5c-0.5,0.5-1.2,0.7-1.6,0.9
			c-2.2,0-3.4-0.7-3.1-2.2c0.1-1.1,1.2-1.7,2.2-1.2c0.7,0.4,1.6,0.7,2.4,1.1C516.5,326.4,516.3,327,515.8,327.5z M512.2,273.7
			c0-1.1,1-0.6,1.5-0.7c0.5-0.1,0.9,0.1,0.9,0.7c0.2,3.7,0.5,7.4,0.6,11.1c0.2,5.1,0.4,10.4,0.5,15.5v2c-0.7,0.1-1.2,0.2-2.2,0.2
			v-1.2c0.2-6.1-0.1-12.1-1-18.1C511.9,280.1,512.2,276.8,512.2,273.7z M503.4,223.9c-0.4-1,1-3.7,2.2-4.2c1-0.4,2-0.4,3.1-0.6v2.6
			c-0.1,0.5-0.2,1-0.4,1.6c-0.5-0.6-0.7-1.1-1.2-1.5c-0.5-0.4-1.1-0.5-1.6-0.5c-0.2,0-0.6,0.5-0.7,0.7c0,0.2,0.4,0.7,0.6,0.7
			c1.4,0.2,1.5,1.4,1.6,2.4c0,1.1,0.1,2.2-0.1,3.4c-0.1,0.9-0.7,1.6-1.2,2.4c-0.7,1.1-1.5,2.1-2.2,3.2c-0.1,0-0.2-0.1-0.4-0.1
			c0.2-1.5,0.5-3.1,0.7-4.6C503.9,227.6,504,225.8,503.4,223.9z M498.3,188.7c0.4,0.2,0.9,0.6,1.1,1c-0.4-0.4-0.8-0.7-1.2-1
			C498.2,188.6,498.3,188.7,498.3,188.7z M448.3,233.1c-0.7-2.7-1.6-5.4-2.2-7.9c-0.1-0.5,0.2-1.1,0.6-1.6c0.5-0.6,1.2-0.4,1.5,0.4
			c0.6,2.2,1.2,4.5,1.7,6.7C450.2,231.9,449.8,232.6,448.3,233.1z M453.7,233.1h-0.9c-1.4,0-1.7-0.6-1-1.7c0.5-0.9,1.1-1.7,1.9-2.2
			c0.6-0.4,1.7-0.5,2.4-0.2c0.4,0.1,0.6,1.2,0.7,1.9C457.2,232.6,455.7,233.3,453.7,233.1z M464.1,235.9c-1-0.9-2-1.7-3-2.6
			c0.1-0.1,0.1-0.1,0.2-0.2c1.6,0.9,3.2,1.6,4.9,2.4C465.6,236.5,465.1,236.6,464.1,235.9z M464.2,233.8c-0.9-0.5-1.7-1.1-2.6-1.6
			c0-0.1,0.1-0.4,0.1-0.5c0.6-0.2,1.1-0.5,1.7-0.7c0.6,1.6,1.6,2.4,3,2.1c0.7-0.1,1.4-0.7,2-1.1c0-0.1-0.1-0.2-0.1-0.4
			c0.2,0.2,0.6,0.5,0.9,0.7c0.5,0.5,0.4,0.7-0.1,1.2C467.4,235.3,465.8,234.8,464.2,233.8z M467.6,235.6c0.9-0.6,1.7-1.4,2.7-1.7
			c0.5-0.2,1.2-0.1,1.7,0.1c0.6,0.4,0.9,1,0.1,1.6c-0.2,0.1-0.4,0.5-0.6,0.7C470.2,238.1,468.7,237.9,467.6,235.6z M473.9,239.1
			c-1.1,1-3.1,1.2-4.4,0.4c1-0.9,1.9-1.9,2.9-2.6c0.7-0.5,1.5,0,2,0.7C474.9,238.4,474.4,238.8,473.9,239.1z M465.1,263.9
			c1.4-1.9,2.9-3.7,3.2-6.2c3.2,5.7,6.6,5.4,11.9,4.7c2-0.2,5.6-4.4,5.7-5.9c-5.5,0.2-11.1,0.7-16.6-0.7c-0.1-2,1.6-4.4,3.5-4.6
			c0.6-0.1,1.4,0.2,2,0.6c2.1,1.2,2,1.2,3.9-0.2c0.4-0.4,1-0.6,1.5-0.5c2,0.5,3-0.5,2.6-2.5c-0.1-0.5-0.4-0.9-0.5-1.2
			c-0.1,0.1-0.2,0.1-0.4,0.1c0.1,0.5,0.1,0.9,0.2,1.2c0.2,1.5-0.4,2.1-1.9,1.7c-1-0.2-1.7-0.1-2.4,0.7c-0.6,0.9-1.4,0.9-2.2,0.2
			c-1.2-1-2.6-1.5-4.2-0.7c-0.5-2.2,0.5-4,1.7-5.6c0.7-1,1.4-1.9,2-2.9c1.6-2.4,1.4-4.7-1.5-6.1c0.4-1.9-0.6-3-2.4-3.2
			c-0.4,0-1-0.5-1.2-0.9c-1.7-3.1-7.5-2.5-9.6-0.4c-0.1,0.1-0.2,0.6-0.1,0.9c0.4,1.5,1.5,2.5,2.6,3.4c0.5,0.5,1.1,0.9,1.9,1.5
			c-4.4,4.7-8.6,9.5-12.9,14.2c-0.1,0-0.2-0.1-0.4-0.1c0-0.5,0-1,0.1-1.5c0.1-1.2,0.2-2.5,0.6-3.6c0.6-1.9,1.2-3.6,2-5.4
			c0.9-2,2.1-4,3.1-6c0.9-1.6,0.7-3.4,0.2-5.1c-0.6-2.4-2.6-2.4-4.2-1.5c-0.7,0.4-1.2,1.1-2,1.9c-0.5-2.2-1.1-4.4-1.7-6.5
			c-0.1-0.2,0-0.7,0.1-1c0.6-1.9,1.4-3.6,2.1-5.4c0.6-1.4,1.9-2.4,3.4-2.4c3,0.1,5-1.6,7.1-3.4c1.5-1.4,3-2.7,4.6-3.9
			c1.9-1.1,3.7-1.2,5.7-0.1c3,1.7,6.7,1.9,9.1-1.2c0.5-0.6,0.7-1.4,1.1-2.1c0,0,0,0,0.1,0.1c-0.2-2.1-0.6-4.1-1.3-6
			c-0.3-0.7-1.9-3.4-2.2-5c-0.3-0.1-0.4-0.5-0.4-0.8c-0.2-0.2-0.3-0.5-0.5-0.7c-0.1-0.2-0.1-0.3-0.1-0.5c-0.1-0.2-0.3-0.5-0.4-0.7
			c-0.1-0.2-0.1-0.6,0.1-0.8c1.1-1,2.4,0.5,3.5,2.4c0.4,0.6,0.8,1.4,1.1,1.9c0.4,0.8,0.9,1.7,1.2,2.5c1.3,3,2.1,6.3,2.2,9.6
			c1.5,0.3,3,0.1,4.6-0.3c1.4-0.4,2.7-0.6,4.2-0.9c1.5-0.2,2.6,0.2,3.3,1c0,0,0,0.1,0,0.1c0.3,0.9,0.6,1.8,0.9,2.7
			c0.2,1.7,0.1,3.3,0.2,5c0.1,1.9,0.4,3.7,0.7,5.6c0.4,2,1.4,3.9,1.6,5.9c0.2,2.1,0.1,4.2-0.1,6.4c-0.5,4.5-1.1,9-1.7,13.5
			c-0.6,4.5-2.2,8.7-5,12.5c-1.9,2.6-3.7,5.2-6,7.5c-3.1,3.1-6.9,5.4-11.1,6.7c-0.4,0.1-0.7,0.1-1.1,0.1c-4,0.1-7.5-0.7-10-4.2
			c-0.5-0.6-1.1-1.1-1.7-1.7C464.7,265.2,464.6,264.6,465.1,263.9z M484.1,257.7c-2.6,4.2-6.5,4.7-10.9,3.7
			c-1.9-0.4-2.9-1.9-3.9-3.7C474.4,259.2,479.3,259.1,484.1,257.7z M469.4,256.6c0.2-0.1,0.5-0.2,0.7-0.2c3.4,0.9,6.7,1,10.2,0.7
			h2.5c0,0,0,0.1,0,0.2c-1,0.2-2.1,0.6-3.1,0.9c-3.2,0.1-6.5,0.2-9.6-0.9C469.9,257.2,469.7,256.9,469.4,256.6z M454.7,316.7
			c0.4-2.4,0.9-4.6,1.2-7c0.4-2.6,0.6-5.2,1.2-7.9c0.6-2.5,1.4-4.9,2.2-7.2c0.4-1,1.2-1.7,2-2.5c2-2,2.5-4.6,2.6-7.2
			c0.1-5.6,0.1-11.1,0.2-16.7c0-0.5,0.1-1.1,0.1-2c0.9,0.9,1.6,1.4,2.1,2.1c2.7,3.7,6.7,4.9,10.9,4.2c3-0.5,6.1-1.7,8.6-4
			c2.1-1.7,4.2-3.6,6.4-5.6c0.2,1.9,0.6,3.9,0.7,5.7c0.1,3.5,2.1,5.5,5.7,5.6c2.5,0.1,5-0.2,7.5-0.4c1.6-0.1,3.1-0.4,4.9-0.5v2
			c-0.1,4.2,0,8.5,0.7,12.7c0.9,4.9,0.4,9.9,0.4,14.7c0,0.9-0.1,1.9-0.1,2.7c0,0.7-0.4,0.9-1,0.9c-0.7-0.1-1.4-0.1-2-0.1
			c-1.5,0-3,1.9-2.4,3.4c0.4,0.7,1,1.5,1.6,1.9c1.6,0.9,2.1,1.7,1.7,3.5c0,0-0.1-0.1-0.2-0.1c-0.6,0.5-1.2,1.1-1.9,2
			c-0.4,0.2-0.6,0.6-1,0.9c-3.7,2.2-7.6,4-11.9,5.2c-5.9,1.7-11.9,2.6-18,2.4c-3.6-0.1-7.4-0.7-10.7-2c-3.1-1.1-6.2-2.4-9.2-3.7
			c-1-0.5-1.7-1.2-2.5-1.9C454.6,317.6,454.7,317.1,454.7,316.7z M510.5,310.8c0.1-0.4,0.6-0.9,1-1c1.5-0.6,3,0.1,4.5,0.6
			c0.7,0.2,0.7,1.1,0.2,1.7c-0.7,0.7-1.6,1.2-2.7,1.1c-0.5-0.1-0.9-0.1-1.4-0.1C510.3,312.9,510,312.6,510.5,310.8z M506.7,322.2
			c-2.7,2-5.9,3.1-9.1,4.1c-1.5,0.5-3,0.9-4.4,1.5c-2.7,1.1-5.5,1.1-8.4,1c-3,0-6.1-0.1-9.1-0.1c-3,0-5.9-0.2-8.7-1.5
			c-3.2-1.4-6.6-2.7-10-4.2c-0.6-0.2-1-0.7-1.5-1.1c-1.1-0.9-0.9-1.9-0.6-3.1c3.4,2.7,7.2,3.9,11,5.4c3.2,1.2,6.6,1.4,10,2.1
			c1.5,0.4,3,0.1,4.5,0c3.5-0.2,7.1-0.4,10.5-1.1c4-1,8-2,11.7-4c1.6-1,3.4-1.7,5.1-2.6C508.5,320.6,508.4,320.9,506.7,322.2z
			 M514,320.3c-0.7,0.2-1.6,0.1-2.5,0c-0.9,0-1.7-0.4-3-0.6c0.1-1,0.1-2.1,0.5-3.1c0.4-0.9,1.4-0.9,2.1-0.6c1.2,0.4,2.5,1,3.6,1.6
			C515.8,318.2,515.3,319.9,514,320.3z M517.5,317.9c-2.1-0.9-4.4-1.6-6.5-2.5c0-0.6,0-1,0.1-1.1c2,0.9,3.9,1.6,5.9,2.5
			c0.2,0.1,0.5,0.5,0.7,0.7C517.6,317.7,517.6,317.8,517.5,317.9z M518.5,317.2c1.4,0.6,2.6,1.1,3.7,1.6
			C520.6,319.1,518.6,318.3,518.5,317.2z M538.1,323.9c0.6,0.9,0.4,2.6-0.5,3.2c-0.5,0.4-1,0.5-1.5-0.1c-1.1-1.2-2.4-2.2-3.9-3
			c-1-0.5-1.7-1.6-2.7-2.2c-1.5-0.9-3.4-1.4-4.9-2.4c-2.5-1.5-5.4-2.5-8.1-3.6c-0.5-0.2-1.1-0.4-1.6-0.6c-0.9-0.4-1.7-0.7-2.6-1.1
			c0-0.1,0.1-0.2,0.1-0.4c1.4,0.1,2.9,0.2,3.7-0.7c0.4-0.4,0.7-1,0.9-1.5c0.2-0.6,0.5-0.9,1-0.6c3,1.1,6.1,2.2,9.1,3.4
			c0.5,0.1,0.9,0.5,1.4,0.7c1.2,0.9,1.2,1,0.6,2.4c0,0.1-0.1,0.4-0.1,0.5c0.1,0,0.2,0.1,0.4,0.1c0.4-0.6,0.6-1.1,1-1.7
			c1.2,0.6,2.5,1.4,3.2,2.7c0.6,0.9,1.5,1.5,2.1,2.2C536.5,322,537.4,322.9,538.1,323.9z M522.8,307.4c2.1,0,2.7,0.5,3.1,2.5
			c0,0.2,0.1,0.4,0.2,0.5c0.1-0.1,0.1-0.1,0.2-0.1c0-0.4,0-0.7-0.2-1.4c0.7,0.6,1.4,1.2,2,1.6c1.7,1,3.5,2,5.2,3.1
			c2,1.4,2.7,3.9,1.5,6.1c-0.4-0.5-0.7-1-1.1-1.4c-0.9-0.9-1.7-1.7-2.6-2.5c-3-2.4-6.5-3.7-10.2-4.7c-2.4-0.6-4.6-1.4-7-2
			c-1.2-0.4-2.4-0.4-3.5,0.4c-0.2,0.2-0.5,0.5-0.6,0.7c-0.4,1.1-0.9,0.7-1.5,0.2c-0.7-0.7-1-1.6-0.5-2.7c0.5-1,1.4-0.9,2.2-0.9
			C514.3,307.1,518.5,307.3,522.8,307.4z M516.8,305.1c0.2,0.5,0.2,1,0.4,1.7c-1.4-0.1-2.5-0.2-3.5-0.5c-0.2-0.1-0.6-0.6-0.6-0.9
			c-0.1-1,0.2-1.7,1.4-2C515.3,303.3,516.4,304.1,516.8,305.1z"/>
		<path class="st0" d="M438.6,270.1c0,0.7-0.1,1.1-1,1.1c-1.4,0-2.6,0-4,0.2c-2.2,0.4-4.6,0.9-6.9,1.4c-2.4,0.5-4.7,1-7,1.6
			c-2.9,0.9-4.5,3-6,5.6c-3.2,5.9-4,12.2-3.7,18.9c0.2,4.7,0.7,9.4-0.5,14c-0.5,1.7-0.9,3.4-0.9,5.2c0,2.5-0.2,5-0.4,7.5
			c-0.1,3.6-0.4,7.1-0.6,10.6c0,0.9-0.2,1.6-0.5,2.5c-0.5,2-1.1,3.9-1.4,5.9c-1.2,8-1.4,16,1.2,23.9c0.5,1.4,0.6,2.9,1.2,4.1
			c1.2,2.4,2.7,4.6,4.1,6.9c0.1,0.2,0.6,0.4,1,0.6c0.1-0.1,0.1-0.1,0.2-0.2c-0.1-0.4-0.2-0.7-0.5-1.1c-1.2-2.4-2.9-4.7-3.9-7.2
			c-1.5-3.9-2.7-8-3-12.2c-0.4-6.2-0.2-12.4,1.4-18.2c1.2-4.4,1.5-8.6,1.7-13c0.2-4.6-0.1-9.4,1-13.9c1.2-5.1,0.9-10.4,0.7-15.5
			c-0.1-3.4,0.1-6.7,0.5-10.1c0.4-3.2,2.1-6,2.7-9.1c1.2-2.7,3.4-3.9,6-4.5c4-0.9,7.9-1.7,11.9-2.5c1.6-0.2,3.4-0.4,5-0.5
			c0.6,0,1,0.1,1.1,0.9c0.5,3.2,1.1,6.6,1.5,9.9c0.4,2.6,0.2,5.1-0.9,7.6c-1.5,3.6-2.9,7.5-4.2,11.2c-0.1,0.5-0.4,1-0.5,1.4
			c-0.7-1.5-1.5-3-2.4-4.4c-0.4-0.5-1-1-1.5-1.5c-0.1-0.1-0.5,0-0.7,0c0,0.2,0,0.6,0.1,0.7c0.2,0.2,0.7,0.5,1,0.9
			c2.1,3.1,3.2,6.4,1.5,10.1c-0.2,0.4-0.2,0.9-0.5,1.4c-0.6,1.5-1.1,3-1.9,4.4c-0.4,0.7-1.2,1.4-1.6,2.1c-1.2,2.4-2.4,4.7-3.6,7.1
			c-0.2,0.4-0.5,0.7-0.7,1.1c-0.7,1.4-1.4,2.7-2,4.2c-1,2.5-1.6,5-2.9,7.4c-1.5,2.7-3.5,5.1-5,7.7c-2.2,4-5,7.7-5.5,12.5
			c0,0.4,0.1,0.9,0.2,1.2c0.2-0.4,0.6-0.6,0.7-1c0.1-0.2,0-0.6,0.1-0.9c0.4-1.2,0.7-2.6,1.2-3.9c1.9-4.2,4.4-8.1,7-12
			c1.9-2.7,3.5-5.5,4.4-8.7c0.6-2.6,1.4-5.1,3.1-7.2c0.4-0.5,0.4-1.2,0.7-1.9c1-1.9,1.7-4,3.1-5.5c1.4-1.5,2.1-3,2.7-4.7
			c2.6-7.1,5.1-14.4,7.7-21.6c0.4-0.9,0.9-1.9,1-2.9c0.2-3.9,0.1-7.7-0.7-11.5c-0.7-3.2-1.4-6.4-1.2-9.7c0.1-2.6-0.5-5.2-1.2-7.7
			c-0.6-1.9-1.1-3.9-1.5-5.9c0-0.2-0.1-0.4-0.1-0.6c0.1,1.5,0.1,3.2,0.7,4.6C438.2,261.1,438.6,265.6,438.6,270.1z"/>
	</g>
	<path class="st0" d="M451.5,373.8c0.4-0.6,0.6-1.2,0.9-1.6c2.7-3.9,6-7.1,10.5-9.1c2.7-1.2,5.5-2.7,8.2-4.1c2.6-1.2,5.5-2,8.4-2.2
		c3.2-0.2,6-1.6,8.2-4.1c1.5-1.6,3.1-3.2,4.7-4.7c0.5-0.5,1.1-0.9,1.9-1.1c0.2-0.1,0.9,0.1,1,0.4c0.1,0.1,0,0.7-0.1,1
		c-3,2.7-5.9,5.6-8.9,8.4c-1.6,1.5-3.7,1.9-5.9,2.1c-4.4,0.4-8.4,2-12.2,4c-2.1,1.1-4.1,2.2-6.4,3.4c-3.4,1.6-5.5,4.5-7.7,7.2
		c-0.1,0.2-0.1,0.6-0.4,0.9c-0.4,0.4-0.7,0.7-1.2,0.7C452.2,374.6,451.8,374.1,451.5,373.8z"/>
	<path class="st0" d="M482.4,234.1c1.4-2.4,2.9-3.9,5.4-4.1c2.4-0.2,4.6,0.1,6.5,1.7c1.1,0.9,1.1,1.4,0,2.2c-1.5,1.2-3.1,2-5.1,2
		c-1.5,0.1-3,0.1-4.5,0.1c-0.2,0-0.4-0.1-0.6-0.2c3-1,6.4,0.5,9.1-1.9C489.5,234.1,486.2,234.1,482.4,234.1z M487.3,230.8
		c-1.1,0.7-2,1.2-2.9,1.9c0,0.1,0.1,0.2,0.1,0.5c1,0.1,2,0.1,3.1,0.2C487.6,232.4,487.4,231.8,487.3,230.8z M493,232.5
		c0-0.1,0-0.2,0.1-0.2c-0.5-0.2-1-0.5-1.6-1c0,0.7,0,1.2,0,1.7C492.2,232.9,492.7,232.8,493,232.5z"/>
	<path class="st0" d="M494.2,224.6c0.6,0,1.2,0,1.9,0c1.2-0.1,2,0.7,2.5,1.7c0.1,0.2,0,0.6-0.1,1c-0.2,0-0.6,0-0.9-0.1
		c-1.4-1.1-2.9-1-4.5-0.6c-2.5,0.6-4.9,1.4-7.2,1.9c-0.6,0.1-1.2,0.1-1.7,0c-0.4-0.1-0.9-0.6-0.9-0.9c0-0.4,0.5-1,0.9-1
		C487.4,225.9,490.7,224.4,494.2,224.6z"/>
	<path class="st0" d="M462.2,225.9c2,0.2,4,0.2,6,0.6c0.7,0.1,1.5,0.6,2.1,1.1c0.2,0.1,0.2,0.7,0.1,1.1c-0.1,0.2-0.6,0.2-1,0.2
		c-0.1,0-0.4,0-0.5-0.1c-2.5-1.6-5.4-1.5-8.1-1.5c-0.2,0-0.6,0-0.9,0c-0.4-0.1-0.6-0.4-1-0.5c0.4-0.2,0.6-0.5,1-0.6
		C460.6,225.9,461.5,225.9,462.2,225.9z"/>
</g>
</svg>
