<?xml version="1.0" encoding="utf-8"?>
<!-- Generator: Adobe Illustrator 18.1.1, SVG Export Plug-In . SVG Version: 6.00 Build 0)  -->
<!DOCTYPE svg PUBLIC "-//W3C//DTD SVG 1.1//EN" "http://www.w3.org/Graphics/SVG/1.1/DTD/svg11.dtd">
<svg version="1.1" id="Layer_1" xmlns="http://www.w3.org/2000/svg" xmlns:xlink="http://www.w3.org/1999/xlink" x="0px" y="0px"
	 viewBox="405 223.2 150 113.6" style="enable-background:new 405 223.2 150 113.6;" xml:space="preserve">
<style type="text/css">
	.st0{fill:#E91E63;}
</style>
<g id="eye-rubbing-lady">
	<path class="st0" d="M554.6,303.8c-0.8-0.4-1.4-0.8-2.1-0.9c-2.2-0.5-4.6-1.1-7-1.2c-2.6-0.2-5.1-0.4-7.7-0.9
		c-1.4-0.2-2.7-0.2-4.1-0.5c-2.1-0.4-4.4-0.5-6.5-0.1c-0.5,0-1,0.2-1.5,0.1c-1.2-0.1-2.4,0.2-3.5,0.5c-2.2,0.5-4.5,1.1-6.9,1.1
		c-1.2,0-2.5,0.1-3.6-0.4c-1.4-0.6-2.9-1.2-4.4-1.6c-2.5-0.6-5-1.5-7.5-2c-2.5-0.5-5-1.1-7.2-2.2c-0.4-0.1-0.5-0.2-0.2-0.6
		c0.4-0.8,0.9-1.5,1.5-2c1.6-1.4,3-3.1,4.4-4.7c1.4-1.5,2.5-3.1,3.2-5c0.5-1.1,0.9-2.1,1.4-3.1c0.1-0.2,0.1-0.5,0.5-0.2
		c1.9,1.1,3.9,1.7,6.1,1.7c1.4-0.1,2.6,0.2,3.9,0.7c1.2,0.6,2.6,0.9,4,1c1.9,0,3.9,0.2,5.7-0.1c1-0.2,2-0.4,3-0.4
		c1.5,0,3,0.1,4.5-0.4h0.5c1.2-0.1,2.6-0.1,3.9-0.2c1.5-0.1,2.9-0.1,4.4,0c1.4,0.1,2.6,1,3.9,1.7c1.2,0.7,2.5,1.6,3.9,2.1
		c2.5,0.7,4.9,1.9,7.5,2.1c0.1,0,0.2,0.1,0.2-0.1c0-0.1,0-0.2-0.1-0.4c-0.1,0-0.2-0.1-0.4-0.1c-1.6-0.1-3.1-0.7-4.7-1.2
		c-2.1-0.6-4.1-1.5-6-2.9c-1.4-1-2.9-1.7-4.6-1.9c-2,0-4.1,0-6.2,0.2c-0.9,0.1-1.9,0-2.9,0.4c-0.5,0.2-1.1,0.2-1.6,0.2
		c-1.1,0.1-2.4-0.1-3.5,0.1c-2.5,0.5-5,0.5-7.6,0.2c-1-0.1-1.9-0.2-2.7-0.6c-1.6-0.7-3.4-1.1-5.1-1.1c-1.7,0.1-3.2-0.6-4.9-1.2
		c-0.6-0.2-1.1-0.8-1.4-1.2c-0.4-0.9-1-1.2-1.7-1.6c-2-1.1-4.1-2.1-5.7-3.7c-0.4-0.4-0.5-0.9,0-1.1c0.7-0.2,1.4-0.7,2.2-0.9
		c2.7-0.5,5.1,0,7.4,1.6c0.5,0.4,1,0.6,1.6,0.8c1.1,0.2,2.1,0.1,3.2,0.1s2.2-0.2,3.4,0c0.6,0.1,1.4,0.4,2.1,0.4c0.1,0,0.2,0,0.4-0.1
		c0-0.1,0-0.4-0.1-0.4c-0.4-0.1-0.7-0.5-1.2-0.5c-0.2,0-0.6,0-0.6,0c0.5-0.6,1.1-0.7,1.6-1.2c0.1-0.1,0.6-0.1,0.4-0.5
		c-0.2-0.4-0.5-0.1-0.8,0c-0.1,0-0.2,0.1-0.4,0.2c-0.6,0.4-1.1,1-1.7,1.1c-1.7,0.6-3.5,0.5-5.4,0.4c-0.5,0-1-0.1-1.5-0.4
		c-0.6-0.2-1.2-0.5-0.9-1.4c0.1-0.2,0-0.4,0-0.6c0-0.6-0.1-1.2,0.4-1.7c0.6-0.6,1.1-1.2,1.4-2.1c0.1-0.4,0.2-0.6,0.6-0.6
		c0.7,0,1.2-0.5,1.5-1.1c0.4-0.7,0.6-1.6,0.6-2.6c0-0.6,0.1-1.4,0.1-2c0-0.5,0.1-0.7,0.6-0.5c0.5,0.1,1,0.1,1.5,0.2
		c1.9,0.4,3-0.9,4.1-1.9c0.1-0.1,0.1-0.2,0-0.4c-0.1-0.1-0.2-0.1-0.4,0c-0.4,0.2-0.6,0.6-1,0.9c-0.7,0.5-1.4,1-2.4,0.9
		c-0.5-0.1-1-0.1-1.5-0.2c-0.7-0.1-0.7-0.2-0.4-0.9c0.1-0.4,0.2-0.7,0.5-1c0.1-0.2,0.4-0.6,0-0.7c-0.4-0.2-0.4,0.1-0.5,0.4
		c-0.1,0.2-0.1,0.9-0.5,0.9c-0.4,0-0.4-0.6-0.5-0.9c-0.1-0.2-0.2-0.5-0.5-0.4c-0.2,0.1-0.1,0.4,0,0.6c0.4,0.6,0.5,1.4,0.5,2.1
		c-0.1,1-0.1,2-0.1,3c-0.1,0.7-0.4,1.5-0.7,2.1c-0.2,0.5-0.6,0.7-1.2,0.6c-0.5-0.1-0.9-0.5-1-1c-0.1-0.2-0.1-0.5-0.1-0.8
		c0-1.2-0.2-2.4-0.9-3.5c-0.4-0.6-0.2-1.2,0.1-1.7c0.2-0.2,0.5-0.6,0.7-0.9c0.9-0.9,1.6-1.9,1.9-3.1c0.2-0.7,0.9-1.1,1.6-1.1
		c1,0,2,0,3,0.4c1.2,0.5,2.5,0.5,3.9,0.5c0.6-0.1,1.4,0,2,0.2c1.2,0.5,2.5,0.7,3.7,1.1c0.2,0,0.6,0.1,0.9,0.3c2.5,1.4,5.2,1.6,8,2.2
		c1.1,0.2,2.2,0.4,3.2,1c1,0.6,2.1,1,3.1,1.6c2.1,1.4,4.2,2.7,6.5,3.7c0.2,0.1,0.2,0.2,0.2,0.5v1.7c0,0.7,0,1.5-0.4,2.2
		c-0.8,1.4-1.4,2.7-2.4,4c-0.2,0.1-0.5,0.4-0.1,0.6c0.2,0.1,0.5-0.1,0.6-0.4c0.6-1.1,1.4-2.4,2-3.5c0.6-1,0.7-2.1,0.6-3.2
		c-0.1-0.4-0.1-0.8,0-1.1c0.1-0.4,0.2-0.5,0.5-0.2c0.4,0.2,0.6,0.5,1,0.6c2.7,1,5.4,2,8.2,2.7c0.1,0,0.4,0.4,0.5,0
		c0.1-0.4-0.1-0.4-0.4-0.5c-2.4-0.9-4.7-1.4-7-2.4c-1.1-0.5-2.2-1.2-3.5-1.7c-1.1-0.5-2.2-1-3.2-1.6c-1.2-0.6-2.2-1.6-3.5-2.2
		c-0.6-0.4-1.4-0.8-2.1-1.1c-1.2-0.6-2.5-1.1-3.9-1.4c-2.4-0.5-4.7-0.9-7.1-1.7c-3.1-1.1-6.2-2.4-9.6-2.1c-0.4,0-0.4-0.1-0.4-0.5
		c0-2,0.1-4.1-0.2-6.1c-0.6-2.6-1.1-5.2-1.6-7.9c-0.4-2-1-4-2-5.7c-0.9-1.6-1.9-3.2-3-4.7c-0.7-1-1.7-1.6-2.9-2.1
		c-0.5-0.2-1-0.6-1.5-1c-0.2-0.2-0.6-0.5-1-0.6c-2.1-0.7-4.2-1.6-6.6-1.6c-2.8,0-5.5,0-8.2,0.2c-0.3,0-0.7,0-1,0
		c-0.4,0-0.7,0.1-1.1,0.2c-0.6,0.1-1.2,0.2-1.7,0.3c0.2,0,0.4-0.1,0.6-0.1c-0.1,0-0.3,0-0.4,0.1c-0.2,0-0.5,0.1-0.7,0.1
		c0.2,0,0.3-0.1,0.5-0.1c-0.5,0.1-1,0.2-1.4,0.3c-1.4,0.3-2.8,0.7-4.1,1.2c-0.2,0-0.3,0.1-0.5,0.1c-0.1,0-0.2,0.1-0.4,0.1
		c-0.3,0.1-0.6,0.3-0.9,0.5c-2.3,1-4.5,2.2-6.5,3.6c-0.1,0.1-0.2,0.2-0.2,0.3c-1.3,0.8-2.4,1.9-3.6,2.9c-1,0.9-1.9,1.9-2.5,3.1
		c-0.6,1.2-1.2,2.5-2,3.7c-1.7,3.1-3.1,6.4-4,9.7c-0.7,2.9-1.4,5.6-1.2,8.6c0,1.9,0,3.7-0.5,5.5c-0.1,0.2-0.1,0.6-0.1,1
		c-0.1,1.4,0.1,2,1.9,2.6c0.5,0.1,0.8,0.5,0.8,1c0.1,0.9,0,1.9-0.2,2.9c-1,3.5-1.1,7-0.4,10.6c0.2,1.5,0.7,3,1.4,4.5
		c0.9,2.1,1.4,4.1,1.2,6.4c-0.1,1.5-0.5,2.9-0.9,4.4c-0.2,0.6-0.6,1-1.1,1.4c-0.9,0.5-1.9,0.9-2.9,1.1c-3.1,0.9-6.2,1.7-9.2,3.1
		c-1.2,0.6-2.6,1.2-4.1,1.5c-0.7,0.1-1.5,0.1-2.2,0.4c-2.6,0.7-5.4,1.2-8.1,1.6c-1.2,0.1-2.4,0.4-3.5,0.6c-3.5,0.8-6.6,2.4-9.9,3.6
		c-2.1,0.7-3.5,2.5-4.4,4.6c-0.2,0.6-0.5,1.1-0.8,1.7c-1.2,2.5-2.4,5.1-3.4,7.7c-0.5,1.4-1,2.7-1.7,4.1c-0.4,0.5-0.6,1.1-0.7,1.7
		c-0.4,1.6-0.9,3.2-1.6,4.7c-0.1,0.2-0.2,0.4-0.2,0.6c0,0.1,0,0.5,0.1,0.5c0.2,0.1,0.4-0.1,0.4-0.4c0-0.2,0.1-0.5,0.2-0.7
		c0.4-0.9,0.7-1.7,1-2.6c0.4-1.2,0.5-2.6,1.2-3.9c0.4-0.7,0.6-1.6,1-2.4c0.9-1.9,1.5-3.9,2.4-5.9c0.7-1.7,1.6-3.6,2.4-5.5
		c0.8-1.9,2.1-3.1,4-4c1.2-0.6,2.6-0.9,3.9-1.5c2.9-1.4,5.9-2.1,9-2.6c1.4-0.1,2.9-0.2,4.2-0.6c0.7-0.2,1.4,0,2,0.2
		c1.4,0.6,2.4,1.7,3.2,2.9c0.7,0.9,1.4,1.9,2.4,2.5c0.2,0.2,0.5,0.4,0.7,0.4c0.1,0,0.4,0,0.4-0.2s-0.1-0.4-0.2-0.4
		c-0.9-0.2-1.5-1-2-1.6c-0.7-1.1-1.7-2.1-2.7-3.1c-0.5-0.4-1.1-0.6-1.7-1.1c1.1-0.4,2.1-0.6,3.1-0.7c1.1-0.1,2.1-0.4,3.1-0.7
		c1.7-0.5,3.4-1.4,5-2c3-1.2,6.4-1.7,9.4-3.1h0.1v0.1c-0.7,2.5-2,4.7-4.1,6.4c-0.1,0.1-0.2,0.2-0.1,0.5c0.2,0.2,0.4,0.1,0.6,0
		c0.1-0.1,0.2-0.1,0.4-0.2c1-0.9,2-1.9,2.6-3.1c1.1-2.2,1.9-4.6,2.5-7.1c0.2-1.2,0.6-2.5,0.5-3.9v-1.4c0.5,0.4,0.6,0.7,0.9,1.1
		c0.9,1.9,2,3.6,3.2,5.2l1.1,1.1c1.9,1.4,3.9,2.5,6.2,2.7c0.2,0,0.4,0.1,0.5,0.1c1.9,0.8,3.9,0.6,5.9,0.5c2.2-0.1,4.2-0.9,6.4-1.5
		c2-0.5,3.6-1.6,5.2-2.9c0.1-0.1,0.4-0.4,0.5-0.2s0,0.4,0,0.5c-0.1,2.1,0.4,4.1,1.1,6.1c0.1,0.2,0.2,0.6,0.4,0.9
		c0.1,0.2,0.2,0.4,0.4,0.2c0.2,0,0.1-0.2,0.1-0.4c-0.1-0.4-0.2-0.7-0.4-1.1c-0.7-1.9-1.1-3.7-1-5.7c0-0.5,0.2-0.9,0.5-1.2
		c0.1,0,0.2-0.1,0.2-0.1c0.4,0.4,1,0.1,1.5,0.4c1.9,1,3.9,1.5,6,1.9c0.4,0,0.9,0.1,1.4,0.2c2,0.6,4.1,1.2,6.2,1.9
		c1.1,0.4,2.2,0.6,3.4,1.1c0.4,0.2,0.5,0.4,0.2,0.7c-0.5,0.6-1,1.4-1.5,2.1c-1.4,2-2.1,4.2-3.4,6.2c-0.1,0.2-0.2,0.6-0.2,0.9
		c-0.1,0.2,0,0.5,0.2,0.5c0.2,0,0.4-0.1,0.4-0.4c0-0.5,0.1-0.9,0.4-1.2c1.5-2.6,2.7-5.4,4.5-7.7c0.2-0.4,0.5-0.6,0.9-0.4
		c0.4,0.1,0.7,0.2,1.1,0.2c3.2,0.4,6.4-0.4,9.5-1c1-0.2,2.1-0.9,3.2-0.2h0.1c0.5-0.6,1.2-0.4,1.9-0.5c1.4-0.4,2.9-0.4,4.2-0.1
		c3,0.5,6,0.6,9,1.2c1.6,0.4,3.2,0.1,4.7,0.4c3.2,0.6,6.6,0.7,9.6,2.4C555.1,303.9,555,303.7,554.6,303.8z M504.3,271.4
		c-0.5,0.2-1.1-0.4-1.7-0.6c-0.6-0.2-1.2-0.4-1.9-0.4c-1.5,0.1-3,0-4.4,0.6c-0.4,0.1-0.9,0.2-1.2,0.6c-0.2,0.2-0.4,0.1-0.6,0
		c-1-0.9-2.2-1.2-3.5-1.7c-2.6-1-5.2-2-7.5-3.7c-1-0.7-1.2-1.9-0.6-2.9c0.4-0.6,0.6-0.7,1.4-0.7c0.4,0,0.9,0,1.1,0.2
		c1.6,1,3.5,1.1,5.4,1.5c0.6,0.1,1.1,0.1,1.6,0.4c0.4,0.2,0.5,0.4,0.4,0.9c-0.2,1.2-0.4,2.6-0.1,3.9c0.4,1.4,2.2,2.1,3.5,1.4
		c0.8-0.5,1.4-1.1,1.9-1.9c0.2-0.4,0.5-0.6,0.9-0.6c1.9-0.2,3.7,0.2,5.5,0.9c0.1,0.1,0.2,0.2,0.2,0.4v0.1
		C504.4,270.2,504.8,271.2,504.3,271.4z M497.1,268.1c0.2,0.4,0.2,0.5,0,0.9c-0.4,0.4-0.6,0.7-1,1c-0.7,0.6-1.5,0.6-2.2,0.2
		s-0.9-1-0.9-1.7c-0.2-2.5,0.6-4.5,2.5-6.1c0.1-0.1,0.4-0.4,0.6-0.4c-0.1,0.4-0.1,0.9-0.2,1.2C495.3,265.1,495.9,266.7,497.1,268.1z
		 M506.3,266.3c0.4,1.1-1.4,2.5-2.5,2.1c-1.2-0.5-2.4-0.6-3.7-0.9c1-0.7,1.1-1.7,1.1-2.9c0-1.1,1.1-1.9,2.2-1.6
		c0.6,0.2,1.4,0.5,1.6,1C505.5,264.8,506,265.6,506.3,266.3z M505.1,262.8c0,0.1,0.1,0.2,0.1,0.4c-0.1,0.1-0.2,0-0.4-0.1
		c-0.5-0.5-1.1-0.5-1.6-0.6c-0.4-0.1-0.5-0.1-0.2-0.5c0.2-0.4,0.5-0.9,0.9-1.1c0.1-0.2,0.4-0.2,0.5,0
		C504.8,261.4,505.1,262.1,505.1,262.8z M505.6,256.7c-0.2,0.2-0.5,0.6-0.7,0.9c-0.4,0.4-0.7,0.7-0.7,1.2c0,0.8-0.2,1.1-0.9,1.5
		c-0.2,0.1-0.4,0.5-0.6,0.7c-0.5,0.6-0.9,1.4-1.5,1.9c-0.5,0.5-0.8,1-0.8,1.7c0.1,1.5-0.9,2.6-2.2,3c-0.4,0.1-0.6,0.1-0.9-0.2
		c-1-1.2-1.4-2.5-1-4.1c0.6-2.4,2.2-4.1,3.7-5.9c0.9-1,2-1,3.1-1.1h0.9c0.5,0.1,1.1,0,1.5,0C505.8,256.3,505.9,256.4,505.6,256.7z
		 M457,266.4c-1-0.4-1.2-0.7-1.2-1.7c0-0.9,0.2-1.9,0.4-2.7c0.2-1.5,0.1-2.9,0.1-4.2c0-0.6,0.1-1.1,0.6-1.5c0.5-0.5,0.9-1,1.6-1.1
		c0.4,0,0.6,0,0.5,0.5c-0.1,0.9-0.1,1.9-0.1,2.7c0,0.2,0,0.5-0.4,0.2c-0.4-0.2-0.6-0.1-0.9,0.1c-0.5,0.5-0.6,1.1-0.6,1.9
		c0.1,2.2,0.7,4.2,1.2,6.4C457.9,266.6,457.4,266.4,457,266.4z M458.6,265.4c-0.7-1.6-1.1-3.4-1.1-5.2c0-0.1,0-0.4,0.1-0.6
		c0.2-0.7,0.5-0.7,1-0.1c0.4,0.4,0.4,0.7,0.4,1.1C459.1,262.2,458.8,263.8,458.6,265.4z M490.6,295.7c-1.1,0.6-2.1,1.6-3.2,2.2
		c-0.9,0.5-1.7,1-2.7,1.2c-1.2,0.2-2.5,0.7-3.9,1.1c-2.1,0.6-4.2,0.7-6.4,0.5c-3.2-0.5-6.4-1.2-8.9-3.6c-1.1-1.1-1.9-2.5-2.6-3.7
		c-0.7-1.4-1.4-2.9-2.5-4c-0.1-0.1-0.2-0.4-0.2-0.5c-0.7-2.7-2-5.4-2.5-8.2c-0.2-1.1-0.2-2.4-0.2-3.7c-0.1-2.5,0.6-5.1,1.2-7.6
		c0.4-1.7,0.5-3.5,0.7-5.2c0.2-2.1,0.1-4.4,0.1-6.5c0-2.6,0.2-5.1,1.6-7.5c1.9-3.1,3.6-6.5,6.7-8.7c2.6-1.7,5.1-3.7,8.4-4.4
		c0.4-0.1,0.7-0.2,1.1-0.4c1-0.5,2.2-0.6,3.4-0.5c0.7,0,1.4,0,2.1-0.2c0.5-0.2,1.1-0.2,1.7-0.1c1.5,0.1,2.9,0.5,4.4,0.7
		c0.1,0,0.2,0.1,0.3,0.1c0,0.1,0.1,0.1,0.1,0.2c0.1,0.1,0.2,0.1,0.3,0.2c0,0,0,0,0,0c0,0,0.1,0.1,0.2,0.1c0,0,0.1,0,0.1,0
		c0.2,0.1,0.5,0.1,0.8,0.1c0.2,0,0.4,0.1,0.6,0.2c0.8-1.2,1.8-2.3,2.4-3.6c0.1-0.4,0.3-0.7,0.5-1.1c0.6-1.6,0.9-3.2,1.4-4.8
		c0-0.1,0-0.2,0-0.3c0-0.1,0.1-0.2,0.2-0.2c0.2,0,0.5,0.1,0.7,0.2c0,0,0,0,0,0c0,0,0,0,0,0c0.1,0,0.2,0,0.2,0.1
		c-0.1,0-0.1,0.1-0.2,0.1c0,0,0,0,0,0.1c0.1,0,0.2,0.1,0.2,0.2c-0.8,3.5-1.5,7.2-3.9,9.9c1.3,0.7,2.5,1.6,3.5,2.6
		c0.6,0.6,1.5,1,2.2,1.4c1.9,1.1,3.5,2.4,4.6,4.4c0.5,0.9,1.2,1.6,2,2.2c1.2,1.2,1.9,2.7,2.6,4.2c0.1,0.1,0.1,0.2,0,0.4
		c-0.6,0.4-0.8,1.1-1,1.9c-0.2,0.9-0.5,1-1.4,0.9c-1.4-0.2-2.7-0.1-4.1,0.1c-0.9,0.1-1.6,0.7-2.1,1.5c-0.7,1-1.6,2-2.4,3
		c-0.4,0.5-1,0.7-1.5,1.1c0,0.1-0.1,0.1-0.2,0c-0.6-0.6-1.5-0.6-2.2-0.6c-1,0-2,0.1-2.9,0.5c-0.4,0.1-0.6,0.2-0.6,0.6
		c0,0.4,0.4,0.5,0.6,0.5c0.9,0,1.9,0.1,2.7,0.4c1,0.2,1,0.2,0.4,1.1c-0.2,0.2-0.4,0.4-0.6,0.1c-0.5-0.4-1-0.4-1.6-0.5
		c-1.9-0.4-3.7-0.5-5.5-1.5c-0.7-0.4-1.7-0.5-2.6,0.1s-1.1,1.7-0.9,2.9c0.1,0.5,0.5,0.9,0.9,1.2c0.6,0.5,1.2,0.9,1.9,1.2
		c0.4,0.2,0.4,0.4,0.4,0.7c-0.2,2.1-0.2,4.4,0.1,6.5c0.2,1.2,0.2,2.5-0.6,3.6c-0.2,0.4-0.5,0.7-1,0.9s-1,0.4-1.1-0.5
		c-0.1-0.9-1-1-1.7-0.5c-0.5,0.4-1,0.7-1.7,0.7c-1.5,0-1.7,0-2.1-1.4c-0.1-0.5-0.5-0.8-0.9-1c-0.6-0.5-1.2-1-2.1-0.5
		c-0.1,0.1-0.5-0.4-0.5-0.7c-0.1-0.5,0-1,0.2-1.4c0.2-0.5,0.6-1,1-1.4c2.1-2.4,3.9-5,5.4-7.7c0.4-0.7,0.7-1.6,0.6-2.6
		c0-0.2,0-0.5-0.4-0.5c-0.2,0-0.1,0.4-0.1,0.5c0.1,0.9-0.2,1.6-0.6,2.4c-1.5,2.7-3.2,5.2-5.4,7.6c-0.4,0.4-0.6,0.9-1,1.4
		c-0.5,0.7-0.6,1.6-0.2,2.4c0.5,1,1.4,1.5,2.5,1.2c0.5-0.1,0.7,0,0.9,0.5c0.4,1.9,2.4,2.1,3.6,1.6c0.4-0.1,0.6-0.2,0.9-0.4
		s0.5-0.1,0.7,0.1c0.9,0.9,2.2,0.9,3.1-0.1c1.2-1.2,1.5-2.7,1.1-4.4c-0.4-1.4-0.4-2.7-0.4-4.1c0-0.7,0.1-1.4,0.1-2.1
		c0-0.1,0.1-0.5,0.4-0.2c1.9,1.2,4.1,1.7,6.1,2.6c0.9,0.4,1.6,0.7,2.2,1.4c0.1,0,0.2,0,0.2,0.1c0.6,1.7,2.1,2.5,3.6,3.4
		c1.1,0.6,2.2,1.4,3.4,2c0.9,0.5,1.1,1.1,0.7,2c-0.9,2.2-1.6,4.5-3.2,6.4c-1.9,2.1-3.4,4.2-5.5,6.1c-0.5,0.4-0.9,1-1.2,1.5
		C491.9,294.8,491.3,295.3,490.6,295.7z"/>
	<path class="st0" d="M541,330.2c0.5,0,1.1-0.2,1.7-0.2c2.5-0.1,5.1-0.4,7.6-0.2c1.4,0,2.7,0.4,4.1,0.5c0.2,0,0.5,0.1,0.5,0.5
		c-0.1,0.4-0.4,0.1-0.6,0.1c-2.6-0.6-5.2-0.6-8-0.4c-2.4,0.1-4.7,0.4-7.1,0.6c-1.9,0.2-3.6,0.9-5.4,1.5c-1.9,0.7-3.1,2-4.2,3.5
		c-0.1,0.1-0.1,0.2-0.2,0.2c-0.2,0.2-0.5,0.4-0.8,0.2c-0.2-0.2,0.1-0.4,0.2-0.6c0.4-0.5,0.8-1,1.1-1.4c2.4-2.7,5.6-3.7,9.1-4.2
		C539.6,330.3,540.3,330.1,541,330.2z"/>
	<path class="st0" d="M521.8,336.8c-0.4,0-0.4-0.1-0.2-0.5c0.2-1.4,0.9-2.7,1.5-4c0.4-1,0.6-2,1-2.9c0.5-1.5,1-3,1.9-4.4
		c1-1.6,2.6-2.9,4.2-3.9c0.5-0.4,0.9-0.6,1.5-0.9c0.2-0.1,0.5-0.1,0.7-0.1s0.4,0,0.5,0.2c0,0.2-0.2,0.2-0.4,0.2
		c-0.2,0-0.5,0.1-0.6,0.2c-1.6,1-3.4,2.1-4.6,3.6c-0.6,0.7-0.9,1.7-1.4,2.7c-1.2,2.7-2.1,5.7-3.1,8.6c0,0.1-0.1,0.4-0.1,0.5
		C522.1,336.8,522.1,336.8,521.8,336.8z"/>
	<path class="st0" d="M517.3,263.4c-1.1,0-2,0.1-2.9-0.2c-0.1-0.1-0.4-0.1-0.4-0.4c0.1-0.2,0.2-0.1,0.5-0.1c2.5,0.5,4.9,0.5,7-0.9
		c0.1-0.1,0.4-0.2,0.5,0c0.1,0.2-0.1,0.4-0.4,0.5C520.4,263.2,518.8,263.6,517.3,263.4z"/>
	<path class="st0" d="M478.6,290.8c-1,0.1-2.2-0.1-3.5-0.4c-1.7-0.2-3.1-1.1-4.4-2.4c-1.2-1.2-2.2-2.5-3.1-4c-0.5-0.9-0.9-1.9-2-2.4
		c-0.1-0.1-0.2-0.2-0.1-0.4c0.1-0.2,0.4-0.1,0.5,0c2.1,0.7,4.2,0.9,6.5,0.6c0.7-0.1,1.5-0.2,2.2-0.4c0.7-0.1,1.1,0,1.4,0.8
		c0.2,0.6,0.5,1,1.2,0.6c0.6-0.2,1.2,0,1.7,0.4c1.2,0.8,2.5,1.5,3.7,2.6c1.1,1,2.6,1.7,3.9,2.6c0.1,0.1,0.4,0.1,0.4,0.4
		s-0.2,0.4-0.5,0.4c-1.6,0.1-3.1,0.6-4.6,1.4C481.1,291.1,480,290.8,478.6,290.8z M467.5,282.7c0.1,0.6,0.5,0.9,0.7,1.2
		c1.2,2.4,3,4.2,5.4,5.5c0.9,0.4,1.7,0.5,2.6,0.6c2.2,0.2,4.6,0.7,6.7-0.5c0.6-0.4,1.4-0.5,2.1-0.7c-0.2-0.2-0.6-0.2-0.9-0.4
		c-1.6-0.4-3.1-0.5-4.7-1.2c-1.1-0.5-2.2-1.1-3.5-1.4c-2.2-0.4-4.2-1.5-6.2-2.1C468.9,283.4,468.3,283.1,467.5,282.7z M484.4,287.7
		c-1.2-0.7-2.1-2-3.4-2.6c-0.7-0.4-1.5-0.9-2.1-1.4c-0.4-0.4-0.9-0.5-1.4-0.2c-0.5,0.2-1,0.1-1.4-0.4c-0.2-0.2-0.4-0.5-0.5-0.7
		c-0.2-0.4-0.6-0.5-1.1-0.4c-1.7,0.5-3.6,0.7-5.5,0.4c-0.2,0-0.4-0.1-0.6,0C469.3,283.3,482.3,287.7,484.4,287.7z"/>
	<path class="st0" d="M468.8,252.1c1.7,0.2,3.6,0.5,5.4,1.4c1.6,0.9,2.9,2.2,4.1,3.6c0.2,0.4,0.4,0.7,0.1,1.1c-0.2,0.4-0.6,0.1-1,0
		c-0.4-0.1-0.6-0.5-0.9-0.7c-1.5-1.5-3.1-2.7-5.1-3.4c-1.5-0.5-3-0.6-4.5-0.5c-0.4,0-1,0.2-1-0.5c-0.1-0.5,0.4-0.7,1-0.9
		C467.5,252.1,468,252.1,468.8,252.1z"/>
	<path class="st0" d="M477.8,261.7c-1-0.5-1.9-1.4-3.1-1.6c-0.5-0.1-1.1-0.4-1.5-0.6c-1-0.5-2.1-0.5-3.2-0.6c-0.1,0-0.4,0.1-0.4-0.1
		s0.2-0.2,0.5-0.2c1.2,0.1,2.5,0.2,3.7,0.7c1.4,0.6,2.7,1.2,4.1,2.1c0.1,0.1,0.4,0.2,0.5,0.4c0.5,0.4,0.5,0.9-0.1,1
		c-1.7,0.4-3.4,1-5.2,1c-1.6-0.1-3-0.5-4.4-1.2c-1.1-0.6-1.9-1.6-2.5-2.6c-0.1-0.2-0.2-0.5,0-0.6c0.2-0.1,0.4,0.1,0.6,0.2
		c1.2,1.2,2.5,2.4,4.2,3c1.2,0.5,2.6,0.5,4,0.4c1-0.1,2-0.4,3-0.6C477.8,261.8,477.8,261.8,477.8,261.7z"/>
</g>
</svg>
