<?xml version="1.0" encoding="utf-8"?>
<!-- Generator: Adobe Illustrator 19.1.0, SVG Export Plug-In . SVG Version: 6.00 Build 0)  -->
<svg version="1.1" id="Layer_1" xmlns="http://www.w3.org/2000/svg" xmlns:xlink="http://www.w3.org/1999/xlink" x="0px" y="0px"
	 viewBox="0 0 120 87.8" style="enable-background:new 0 0 120 87.8;" xml:space="preserve">
<style type="text/css">
	.st0{fill:#E91E63;}
</style>
<g id="eye-red-lady">
	<path class="st0" d="M89.4,81.5c-1.4-1.7-3.9-2.7-6-3.4c-2.7-0.9-5.7-1.3-8.5-1.8c-1.3-0.2-2.6-0.4-3.9-0.5c-2.5-0.3-5-0.5-7.5-1
		c-2.3-0.4-4.2-1.9-4.5-4.2c-0.3-2.2,0.3-4.5,0.6-6.9c0.7,0.2,1.2,0.3,1.7,0.4c2.7,0.4,5.3,0.1,6.8-2.5c1.4-2.5,2.6-5.1,3.7-7.7
		c0.9-2,1.2-4.3,2.2-6.3c1.3-2.6,2.1-5.2,2-8.1c-0.1-1.9,0.1-3.7,0.7-5.5c0.5-1.5,0.6-3.3,0.2-4.8c-0.5-2.1-0.4-4.2-0.3-6.4
		c0.2-3.2,0.3-6.4-1.4-9.3c-1.4-2.3-3.1-4.3-4.7-6.5c-0.3-0.4-0.8-0.8-1.2-1.1c-2.8-2.6-6.2-3.9-9.9-4.9c-4.9-1.3-9.8-1.3-14.5,0.4
		c-1.4,0.5-2.7,1.4-4,2.2c-1.4,0.9-2.8,1.7-4,2.8c-1.7,1.7-3.2,3.5-4,5.9c-0.5,1.6-1.3,3.1-1.9,4.6c-0.4,1.1-1,1.6-2.3,1.6
		c-0.6,0-1.2,0.1-1.7,0.3c-1.9-1.8-5.5-1.6-7.5,0c0,0,0,0-0.1,0.1c-2.2,0.8-3.4,3.5-3.7,6.1c-0.9,2.6-0.9,5.7,0.2,8.2
		c0.4,0.8,0.9,1.6,1.6,2.1c0.2,0.3,0.5,0.5,0.8,0.6c0.1,0.1,0.2,0.1,0.3,0.2c0.4,1.5,1.1,2.9,2.5,3.7c2.2,1.4,4.8,0.7,5.9-1.4
		c0.3,0.1,0.6,0.1,0.9,0.2c0.4,0.1,0.8,0.3,1,0.6c0.6,0.9,1.2,1.7,1.8,2.6c0.1,0.1,0.1,0.3,0.2,0.4c0.1,0.3,0.3,0.5,0.5,0.6
		c1.1,1.6,2.1,3.1,3.1,4.7c0.4,0.7,0.9,1.5,0.9,2.3c0.1,2.1,0,4.2,0,6.3c0,0.4-0.1,1-0.3,1.1c-1.2,0.6-1,1.4-0.7,2.4
		c0.1,0.4,0,0.9-0.2,1.4c-0.6,1.8-1.2,3.5-1.8,5.2c-1.2,3.4-3.5,6-6.4,7.9c-2.5,1.6-5.3,2.8-8,4.2c-0.5,0.2-1.2,0.2-1.7,0.1
		c-7.7-1.4-12.7,1.7-15.9,7.5C0,86.3,0.1,86.8,0,87.8h0.8c1.2-4,3.6-6.8,7.4-8.1c1.9-0.6,4-0.9,6-0.9c1.5,0,2.9,0.8,4.4,1
		c2.7,0.4,5.4,0.7,8,1c0.2,0,0.3-0.2,0.8-0.4c-2.7-1.6-5.7-0.6-8.3-1.6c3.9-1.8,7.6-3.7,10.6-6.8c3.1-3.1,3.9-7.3,5.4-11.2l0.3,0
		c0.1,0.4,0.3,0.8,0.3,1.2C36,70.5,36,79,36.1,87.4c0,0.1,0,0.4,0,0.4h1c-0.1-5,0.1-10.4-0.3-15.6c-0.2-3.4,0.8-6.5,1.6-9.7
		c0.4-1.5,1.8-2.8,2.6-4.2c2.3-4,4.6-8,6.8-11.9c0.1-0.3,0.3-0.5,0.5-0.7c0.1,0,0.2,0,0.3,0.1c2.4,2.4,2.4,2.4,0.8,5.4
		c-1.6,3-3.3,6-5,9c0,0-0.1,0.1-0.1,0.1c-0.1,1.7-0.9,3.2-1.7,4.7c-0.1,0.1,0,0.4,0.1,0.9c0.5-0.5,0.8-0.7,1-1.1
		c2.1-3.6,4.1-3.2,7.3-2.3c0.4,0.1,0.7,1,1,1.6c-1.9,0.8-3.9,0.3-5.2,1.7c0,0.2,0.1,0.3,0.1,0.5c0.9-0.2,1.9-0.5,2.8-0.6
		c1-0.1,2-0.1,3,0c0.8,0.1,1.1,0.8,1,1.8c-0.5-0.1-1-0.2-1.4-0.1c-0.2,0-0.4,0.2-0.6,0.3c0.2,0.2,0.3,0.5,0.5,0.6
		c0.9,0.5,1.8,0.9,2.7,1.4c0.8,0.4,0.9,1.2,0.7,2c-1.3,5.1-2.8,10.1-4.6,15c-0.2,0.4-0.4,1.3-0.6,1.3h1c1-3,2.2-5.7,3.1-8.6
		c0.8-2.7,1.5-5.4,2-8.1c0.1-0.7-0.4-1.6-0.9-2.2c-0.5-0.6-1-1.1-0.9-2c0.1-1-0.3-1.7-1.3-2.2c-0.3-0.2-0.7-0.7-0.7-1.1
		c-0.1-1.4-0.7-2.4-2.2-2.4c-1.7,0-3.5,0-5.3,0c0-1.5,1.3-2.3,2.1-3.4c0.1-0.1,0.7,0,0.9,0.1c3.2,1.8,6.4,3.6,9.6,5.4
		c0.3,0.2,0.6,0.7,0.6,1.1c0,1-0.2,2-0.4,2.9c-1.2,4.3,1.6,7.3,5.2,8.3c0.7,0.2,1.5,0.3,2.4,0.5c-2,1.8-4.5,1.6-6.7,2.2
		c1.7,0.2,3.5,0.4,5-0.6c2.9-1.9,6.1-1.4,9.2-1c3.3,0.4,6.5,1.1,9.6,2.1c2.1,0.6,4.4,1.6,5.8,3.1c1.3,1.4,1.6,3.8,2.3,5.8h1
		C91.1,85.8,90.8,83.1,89.4,81.5z M29.6,21.4c-1.3,1.7-1.2,3.3-0.6,5.2c0,0.1,0,0.2,0,0.2c-0.1,0.3-0.1,0.7,0.1,1c0,0.1,0,0.1,0,0.2
		c-0.1,0.2-0.2,0.3-0.2,0.5c-0.1,0.2,0,0.3,0,0.5c0,0.1-0.1,0.3-0.2,0.4c-0.8,1.4-0.8,2.6-0.4,4c0.1,0.2,0.2,0.5,0.3,0.7
		c0.5,1.1,0.4,2.5-0.5,3.1c-0.2,0.1-0.5,0.2-0.8,0.1c0.1-0.2,0.3-0.4,0.3-0.6c0-0.2,0.1-0.5,0.1-0.7c0-0.4-0.2-0.7-0.5-0.9
		c-0.6-2.3-0.5-4.3,0-6.8c0.4-2.2-1.1-5.4,0.7-7.2c0.6-0.5,0.3-1.2-0.2-1.5c0.3,0,0.6-0.1,0.9-0.1C29.9,19.6,30.4,20.4,29.6,21.4z
		 M69.8,33c0.6-1.4,1.5-1.8,2.7-1.9c1-0.1,1.8,0.1,2.4,1.2C73.1,32.5,71.6,32.8,69.8,33z M72.1,33.5c-0.1,0.5-0.2,1-0.4,1.8
		c-0.7-0.5-1.3-0.8-1.8-1.2c0-0.1,0.1-0.3,0.1-0.4c0.3-0.1,0.6-0.2,1-0.2C71.4,33.5,71.7,33.5,72.1,33.5z M37.1,65.3
		c-0.1,0.2-0.3,0.4-0.4,0.6c-0.1,0-0.3,0-0.4-0.1c0.1-1.3,0.5-2.7,0.3-3.9c-0.2-1.2-1.1-2.4-1.6-3.5c1.6-0.5,2.7,0,3.4,1.4
		c0.1,0.2,0.2,0.4,0.1,0.6C38.1,62,37.6,63.6,37.1,65.3z M49.1,45c0-0.6,0.8-1.3,1.3-1.9c0.5,0.7,1,1.3,1.7,2.2
		c-0.6,0.6-1,1.1-1.5,1.5C50.1,46.2,49.2,45.6,49.1,45z M53,59.5c-1.3-1-2.8-1.7-4.2-2.5c-0.8-0.4-1-0.8-0.6-1.7
		c1.1-2.4,2.1-4.8,3.1-7.2c0.2-0.4,0.4-0.7,0.7-1.1c0.9-1.3,0.8-3.1-0.3-4.3c-0.9-1-1.9-1-2.8,0.3c-1.5,2.3-2.9,4.7-4.3,7
		c-0.5,0.8-1,1.6-1.5,2.4c-0.1,0-0.3,0-0.4,0.1c-0.9-2.8-1.8-5.5-2.6-8.3c-0.2,0-0.4,0.1-0.5,0.1c0,0.3-0.1,0.6,0,0.9
		c0.9,2.7,1.9,5.4,2.8,8.1c0.1,0.3,0.2,0.6,0,0.8c-0.9,1.7-1.9,3.4-2.9,5.1c-1.1-0.8-2.1-1.5-3.3-2.3c0-1.7-0.1-3.7,0-5.7
		c0.1-2.1-0.5-3.7-1.8-5.3c-0.8-1-1.7-2.1-2.4-3.2c0.4-0.2,0.7-0.7,0.5-1.1c-0.3-0.8-0.7-1.6-1-2.4c0-0.1,0-0.2,0-0.3
		c-0.1-0.7-0.3-1.5-0.4-2.3c0.2,0.6,0.5,1.2,0.8,1.7c1.2,2.2,2.8,4.2,4.8,5.7c0.1-0.1,0.3-0.1,0.4-0.2c-0.1-0.5-0.3-0.9-0.4-1.4
		c1.4-1,1.5-3,0.2-4.2c-0.3-0.3-0.8-0.3-1.3-0.4c-0.2,0-0.4,0.4-0.5,0.6c0,0.1,0.3,0.4,0.5,0.4c1-0.1,1,0.6,1.1,1.2
		c0.1,0.4-0.1,0.9-0.3,1.1c-0.3,0.2-0.9,0.1-1.2-0.1c-2.7-1.9-3.7-6.6-2-9.4c0.2-0.3,0.7-0.8,0.9-0.7c0.4,0.1,0.7,0.5,0.9,0.9
		c0.2,0.6,0.3,1.2,0.4,1.8c0.2,0,0.3,0,0.4,0c0.4-0.7-0.3-3.1-1.1-3.6c-0.7-0.4-1.7,0.1-2.3,1.3c-0.2,0.3-0.3,0.7-0.5,1.1
		c-0.2,0.3-0.3,0.7-0.5,1.1c-0.5-0.8-0.1-2.4,0.6-3.3c0.3-0.4,0.7-0.7,1.1-1.1c0.9-0.8,1.8-0.7,2.6,0.3c1.2,1.5,2.4,3,3.7,4.4
		c1.5,1.7,3.2,1.3,4.1-0.9c0.3-0.8,0.6-1.6,0.9-2.5c0.2-0.4,0.5-1.1,0.7-1.8c0.1-0.3,0.2-0.5,0.3-0.8c0.4-0.9,1.1-1.8,1.8-2.6
		c0.9-0.9,1.4-1.9,1.8-3.1c0.6-1.8,1.9-3.4,3-5.1c0.1-0.2,0.5-0.3,0.8-0.4c1.3-0.5,2.7-0.9,4-1.6c3-1.6,6.2-2.3,9.6-2.5
		c0.2,0,0.4,0.1,0.6,0.2c2.2,1.5,4.2,3.4,6.5,4.4c2.1,0.9,1.8,2.4,1.8,3.9c0,1.8-0.3,3.7-0.4,5.6c-1.5,0.1-2.8,0.4-3.7,2.3
		c1.5-0.2,2.8-0.3,4.3-0.5c0.2,1.1,0.4,2.3,0.6,3.5C76.3,32,76.1,32,76,32.1c-0.3-0.2-0.5-0.4-0.7-0.6c-1.1-1.2-2.6-1.4-4-1.2
		c-0.5,0.1-1.1,0.9-1.4,1.6c-0.4,1.1-0.6,2.2-0.1,3.4c0.9,1.9,1.5,3.9,2.3,5.9c0.3,0.8,0.2,1.3-0.3,1.8c-0.4,0.4-0.8,0.8-1.2,1.2
		c-0.7,0.6-1.3,0.5-1.9-0.1c-1.3-1.5-2-1.4-3.3,0c-0.2,0.2-0.9,0.4-0.9,0.3c-0.3-0.4-0.5-0.9-0.8-1.7c0,0.7-0.2,1.5,0.1,1.8
		c0.3,0.3,1.3,0.5,1.7,0.3c1.2-0.8,2.3-0.6,3.4,0.1c1,0.6,1.7,0.5,2.6-0.3c2-1.8,2.2-2.7,0.8-5.5c-0.4-0.9-0.8-1.8-1.2-2.7
		c1.4-0.2,2.6-0.3,3.9-0.5c-0.1,3.4,0.3,6.8-1.2,10.1c-1.2,2.5-1.8,5.3-2.9,7.8c-1,2.5-2.3,5-3.6,7.4c-1.2,2.1-3.3,2.5-5.5,2.2
		C58.5,62.7,55.6,61.5,53,59.5z"/>
	<path class="st0" d="M113.3,87.8c0-1.3,0.4-2.8-0.1-3.9c-1.5-2.9-3.5-5.7-5.4-8.7c-0.6,1.1-1.1,1.9-1.6,2.7c-0.7,1-1.3,2-2.2,2.8
		c-2.1,1.7-4.3,0.8-6.4,0c-0.5-0.2-0.9-1.1-0.9-1.7c0-5.7,0-11.5,1.6-17.1c0.8-2.9,1.2-5.9,2-8.7c0.5-1.8,1.2-3.5,1.8-5.2
		c0.9-2.8,1.7-5.7,2.8-8.5c1.4-3.7,3.2-7.3,5.6-10.5c1.5-1.9,3.9-1.7,5.8-0.4c2.3,1.6,1.9,3.9,2.2,6c0.6,3.9-0.4,7.6-1.2,11.3
		c-0.6,2.8-1.2,5.5-2,8.2c-0.9,2.8-0.4,5.4,0.4,8c1.8,5.6,2.6,11.3,3.2,17.1c0.1,0.6,0.1,1.3-0.1,1.9c-0.5,1.7,0,3.2,0.7,4.7
		c0.3,0.7,0.4,1.4,0.7,2.1c-0.5,0-1,0-1.5,0c-0.4-1.3-0.8-2.6-1.2-3.9c-0.8,0.2-1.5,0.4-2.2,0.5c0,1.1,0,2.3,0,3.4
		C114.5,87.8,113.9,87.8,113.3,87.8z M109.3,69.5c0.1,0,0.2,0,0.3,0c0.2-0.4,0.4-0.7,0.5-1.1c2.1-7.8,4.1-15.7,6.1-23.5
		c1-4,1.8-8,1-12.1c-0.1-0.7-0.3-1.5-0.4-2.2c-0.1,0-0.2,0-0.3-0.1c-0.4,0.6-0.8,1.2-1.1,1.8c-0.9,1.7-1.6,3.5-2.5,5.2
		c-3,5.8-5.1,11.9-6.8,18.2c-0.3,1-0.4,2.1-0.2,3c0.6,2.6,1.5,5.2,2.3,7.8C108.6,67.5,108.9,68.5,109.3,69.5z M114.1,59.7
		c-0.2,0-0.3,0-0.5,0c-0.1,0.8-0.4,1.7-0.3,2.4c0.9,5,2,9.9,3,14.9c0.2,1.1,0.2,2.3,0.1,3.5c-0.1,1.2-0.8,1.4-1.7,0.7
		c-0.4-0.3-0.6-0.7-0.9-1.1c-0.6-1.1-1.2-2.3-1.8-3.4c-1.8-3.3-3.9-6.4-4.8-10.2c-1-4.4-3.3-8.4-3.3-13c0-0.3-0.8-0.8-0.9-0.8
		c-0.6,0.4-1.2,0.9-1.5,1.5c-0.2,0.4,0.2,1.1,0.5,1.6c0.4,0.6,1,1.1,1.2,1.8c1.2,3.9,2.2,7.8,3.3,11.8c1.3,4.4,3.9,8.2,6.2,12
		c0.5,0.9,1.3,1.4,2.3,1.5c1.1,0.2,2.3-0.3,2.5-1.4c0.2-1.5,0.3-3.1,0.1-4.6c-0.3-2.7-0.7-5.4-1.3-8.1
		C115.8,65.8,114.9,62.8,114.1,59.7z M101.6,51.9c0.6-0.1,1.2-0.1,1.8-0.3c0.4-0.1,0.9-0.4,1.1-0.8c0.9-2.3,1.7-4.6,2.6-6.8
		c1.2-2.9,2.3-5.8,3.7-8.5c1.2-2.3,2.7-4.5,4.1-6.8c-1.2-0.9-2.9-0.5-4.1,1.2c-2.4,3.4-4.3,7.1-5.5,11.1
		C104.2,44.6,102.8,48.2,101.6,51.9z M100.1,80.2c-0.1-1.1-0.3-2.3-0.3-3.4c0.2-5.8,1-11.6,2.6-17.2c0.4-1.6,0.2-3.1-2.1-3.2
		c-0.8,3.9-1.9,7.8-2.5,11.7c-0.5,3.2-0.4,6.6-0.5,9.9C97.4,79.9,98,80.4,100.1,80.2z M115.2,80.4c0.6-1-1.4-14.1-2.5-16.7
		c-0.1,0.2-0.2,0.3-0.3,0.4c-0.7,2.2-1.4,4.4-2.1,6.6c-0.1,0.3,0.1,0.7,0.3,1c0.8,1.6,1.7,3.2,2.5,4.7
		C113.8,77.8,114.5,79.1,115.2,80.4z M103.1,79.4c0.2,0.1,0.4,0.2,0.6,0.2c1.1-1.7,2.3-3.4,3.1-5.2c0.4-0.9-0.3-2.3-0.6-3.4
		c-0.1-0.6-0.3-1.2-0.5-1.7c-0.4-1.3-0.8-2.6-1.2-3.9C103.6,70.1,101.6,74.6,103.1,79.4z M105,56.3c2.6-9.3,6.2-18.2,11.2-26.7
		C112.4,30.7,104,51.2,105,56.3z M103.2,60.7c-0.3,0.5-0.4,0.6-0.4,0.7c-0.5,3.1-1.1,6.1-1.6,9.2c-0.4,3-0.7,6,0,9.1
		c0.1,0.3,0.4,0.6,0.7,0.9c0.1-0.3,0.2-0.7,0.2-1c0-2.4-0.3-4.8,0-7.2c0.3-3.3,1.1-6.6,1.6-9.9C103.7,62,103.4,61.5,103.2,60.7z"/>
	<path class="st0" d="M66,51.9c-1.8-0.2-3.6-1.4-5.8-0.7c0.8,0.5,1.3,0.9,2,1.2c1.3,0.7,2.6,1.4,3.9,1.8c1.3,0.4,2.6,0,3.3-1.3
		c0.1-0.2,0.3-0.2,0.5-0.4c-0.6,1.9-2.6,3.1-4.4,2.3c-2.4-1.1-4.6-2.6-6.9-3.9c0-0.2,0-0.3,0-0.5c2.6-1.1,5.2-2.4,7.9-3.1
		c2.9-0.7,4.3,1.3,3.7,4.4c-0.8,0.1-1.6,0.2-2.4,0.3c0.5-0.3,1.1-0.5,1.7-0.8c-1.6-1.8-4.6-2-6.3-0.6C64.2,51,65.1,51.5,66,51.9z
		 M60.4,50c0.1,0.2,0.1,0.4,0.2,0.6c0.8-0.2,1.7-0.2,2.4-0.6c2.4-1.1,4.6-1.1,6.8,0.3c0,0,0.1-0.1,0.2-0.1c0-1.4-0.9-2-2.1-2.3
		C64.9,47.2,62.9,49.4,60.4,50z"/>
	<path class="st0" d="M53.9,27.4c0.5-0.8,1.1-1.6,2.1-1.9c1.3-0.3,2.8-0.6,4.1-0.5c1.8,0.1,3.5,0.5,5.2,1c0.7,0.2,1.4,0.7,0.9,1.6
		c-0.4,0.9-1.2,0.7-2,0.5c-0.3-0.1-0.6-0.3-0.9-0.5c-2.9-2-5.9-2-8.9-0.1c-0.1,0.1-0.2,0.1-0.3,0.1C54.1,27.6,54,27.5,53.9,27.4z"/>
	<path class="st0" d="M55.1,31.2c1.5-1.4,3.1-2.1,5.1-2c1.7,0.1,3.1,2.1,2.5,3.7c-0.2,0.5-0.9,1-1.4,1
		C58.9,34.1,56.6,33.6,55.1,31.2z M59.8,31.6c-1.2,0-2.2,0-3.1,0c-0.1,0.2-0.1,0.3-0.2,0.5c0.9,0.5,1.7,0.9,2.7,1.4
		C59.4,32.8,59.6,32.3,59.8,31.6z M57.1,31c1.5-0.1,2.7-0.2,3.9-0.3C59.9,29.6,58.2,29.8,57.1,31z"/>
</g>
</svg>
