<?xml version="1.0" encoding="utf-8"?>
<!-- Generator: Adobe Illustrator 19.1.0, SVG Export Plug-In . SVG Version: 6.00 Build 0)  -->
<svg version="1.1" id="Layer_1" xmlns="http://www.w3.org/2000/svg" xmlns:xlink="http://www.w3.org/1999/xlink" x="0px" y="0px"
	 viewBox="0 0 119.4 103.3" style="enable-background:new 0 0 119.4 103.3;" xml:space="preserve">
<style type="text/css">
	.st0{fill:#FF5722;stroke:#FF5722;stroke-width:0.3154;stroke-miterlimit:10;}
</style>
<g id="eye-sty-lady">
	<path class="st0" d="M20.6,103.1c0.2-1.1,0.3-2.1,0.5-3.2c0.2-1.6,0.4-3.3,0.6-4.9c0.1-0.7,0.2-1.5,0.2-2.3c0-1.6-0.1-3.1,0-4.7
		c0-1.3,0.2-2.6,0.3-3.9c0.1-0.9,0.1-0.8-0.8-0.9c-0.7-0.1-1.4-0.2-2-0.4c-0.2-0.1-0.5-0.4-0.5-0.6c0.1-0.4,0.5-0.3,0.8-0.2
		c1.3,0.6,2.7,0.6,4-0.1c1.1-0.6,1.9-1.5,2.5-2.5c0.7-1.1,1.2-2.2,1.5-3.4c0.2-0.7,0.6-1.4,0.8-2.1c0.4-1.5,0.8-3,1.1-4.5
		c0.5-2.8,2-4.8,4.6-6c2.7-1.3,5.5-2.5,8.3-3.7c0.5-0.2,1-0.3,1.6-0.5c1-0.2,1.6-0.8,2.3-1.6c-0.9-0.1-1.7-0.1-2.5-0.1
		c-0.3,0-0.6,0-0.9-0.1c-1.2-0.1-1.3-0.2-1.6-1.4c-0.3,0.1-0.6,0.1-1,0.2c-2,0.7-3.9,1.4-5.9,2.1c-0.7,0.3-0.7,0.4-0.2,0.9
		c0.2,0.2,0.2,0.4,0.3,0.7c0,0.1-0.1,0.3-0.2,0.3c-0.1,0-0.3-0.1-0.4-0.1c-0.1,0-0.1-0.1-0.1-0.2c-0.7-1-0.7-1-1.8-0.6
		c-1.1,0.4-2.2,0.9-3.4,1.3c-1.5,0.5-2,1.6-2.3,3c0,0.2-0.2,0.4-0.4,0.6c-0.1,0.1-0.4,0-0.4-0.1c-0.1-0.2-0.1-0.4-0.1-0.6
		c0.2-0.6,0.4-1.2,0.6-1.8c0.4-0.9,1.1-1.4,2-1.7c3.9-1.5,7.9-3,11.8-4.4c0.7-0.3,1.5-0.3,2.2-0.5c1.6-0.3,3.2-0.7,4.8-1.4
		c0.9-0.4,1.8-0.5,2.7-0.8c1-0.3,1.4-0.9,1.2-1.7c-0.1-0.3-0.4-0.7-0.6-0.7c-1.4,0-2.8,0-4.3,0.1c0.2,0.7,0.5,1,1,1c1,0,2-0.1,3-0.2
		c0.2,0,0.4,0.1,0.6,0.1c-0.1,0.2-0.2,0.4-0.4,0.5c-1.2,0.4-2.5,0.4-3.7,0.1c-0.4-0.1-0.6-0.6-1-0.8C45.3,51.2,45,51,44.8,51
		c-2.1,0.3-4.2,0.6-6.3,1c-1.3,0.2-2.6,0.5-3.9,0.8c-0.5,0.1-0.5,0.3-0.3,0.7c0.1,0.2,0,0.4,0,0.6c-0.2-0.1-0.5-0.2-0.5-0.4
		c-0.2-0.6-0.5-0.6-1-0.4c-2.1,0.8-4.3,1.6-6.4,2.4c-0.4,0.2-0.8,0.4-1.2,0.4c-1.9,0.3-3.2,1.5-4.5,2.7c-0.4,0.4-0.6,0.9-0.9,1.4
		c-0.2,0.3-0.3,0.6-0.5,0.9c-0.1,0.1-0.3,0.2-0.4,0.2c0-0.2-0.1-0.4-0.1-0.5c0.5-1.6,1.6-2.8,3-3.8c1-0.7,2.1-1.2,3.3-1.5
		c0.6-0.2,1.2-0.6,1.8-0.8c2-0.7,4-1.5,6-2.1c2.6-0.9,5.3-1.3,8-1.7c1.6-0.2,3.1-0.6,4.6-0.9c1.5-0.3,3.1-0.3,4.6-0.3
		c0.5,0,0.9,0.5,1.5,0.8c0.8-0.4,1.1-1.1,0.8-2.1c-0.2-0.5-0.5-0.8-1.1-0.8c-1.9-0.1-3.7,0.5-5.6,0.9c-1.1,0.2-2.2,0.4-3.4,0.5
		c-3,0.5-6,0.9-9,1.3c0,0.1,0.1,0.1,0.1,0.2c-0.1,0.3-0.3,0.6-0.4,0.9c-0.2-0.3-0.4-0.5-0.7-0.9c-0.7,0.1-1.6,0.2-2.5,0.3
		c-3.2,0.4-6.4,1.1-9.4,2.2c-0.7,0.3-1.3,0.7-1.7,1.4c-0.4,0.9-0.8,1.8-1.1,2.7c-0.3,0.9-0.5,1.9-0.8,2.9c0,0.2-0.3,0.3-0.4,0.4
		c-0.1-0.2-0.3-0.4-0.3-0.5c0.7-2.1,0.9-4.5,2.4-6.3c0.3-0.4,0.8-0.8,1.3-1c3.3-1.3,6.8-2.1,10.4-2.5c1.6-0.2,3.2-0.5,4.9-0.8
		c0.1,0,0.1,0,0.2,0c2.5-0.3,5-0.6,7.6-1c0.4-0.1,0.9-0.1,1.3-0.2c-0.6-0.8-1.2-1.6-1.7-2.3c-0.1-0.1-0.3-0.2-0.5-0.1
		c-2.7,0.4-5.3,0.4-8,0.5c-1,0-2,0.2-3.1,0.4c0.2,0.3,0.4,0.6,0.4,0.8c0,0.2-0.1,0.5-0.1,0.7c-0.2-0.1-0.5-0.2-0.6-0.4
		c-0.6-1.1-0.6-1.1-1.8-0.9c-1.7,0.3-3.3,0.6-5,0.9c-1.5,0.3-3,0.6-4.5,0.9c-1.5,0.3-2.5,1.3-2.9,2.7c-0.5,1.6-0.8,3.3-1.2,5
		c-0.3,1.1-0.4,2.3-0.8,3.4c-0.5,1.6-0.8,3.3-0.9,5c-0.1,1.9-0.6,3.7-0.9,5.6c-0.5,2.4-0.9,4.8-2.1,7c-0.1,0.2-0.2,0.4-0.4,0.6
		c-0.2,0.4-0.5,0.8-0.6,1.2c-0.4,2.1-1,4.1-2.1,6c-0.6,1-0.8,2.2-1.1,3.3c-0.4,1.6-0.7,3.2-1.2,4.8c-0.4,1.1-0.9,2.3-1.5,3.3
		c-1.1,2.1-1.9,4.3-2.6,6.6c-0.3,0-0.5,0-0.8,0c0.7-2.3,1.5-4.7,2.7-6.8c0.9-1.6,1.6-3.3,2-5.1c0.4-1.9,1-3.7,1.5-5.6
		c0.1-0.4,0.2-0.7,0.5-1C8,83,8.4,81.1,8.8,79.3c0.2-0.9,0.6-1.8,1.1-2.6c0.6-1.1,1.1-2.4,1.4-3.6c0.6-2.2,1-4.5,1.4-6.7
		c0.1-0.6,0.2-1.2,0.2-1.9c0-0.6-0.1-1.3,0.1-1.9c0.3-1.2,0-2.4-0.5-3.4c-1.3-2.5-1.2-5.2-1-7.9c0.2-3.2,1.1-6.3,1.7-9.4
		c0.3-1.4,0.3-2.8,0.4-4.2c0.1-1,0.1-2,0-3c-0.1-2.8,0.2-5.6,0.5-8.4c0.4-3.4,1.9-6.5,3.9-9.2c1.3-1.8,2.7-3.5,4.3-5.1
		c0.7-0.7,1.1-1.5,1.6-2.3c0.7-1.1,1.3-2.3,2.1-3.4c0.8-1.2,2.1-1.8,3.4-2.3c1.2-0.4,2.3-1,3.5-1.4c0.3-0.1,0.6-0.2,1-0.3
		c2.1-0.5,4.2-1,6.3-1.5c1.1-0.2,2.2-0.3,3.3-0.4c2.4-0.3,4.5,0.4,6.6,1.4c1.7,0.8,3.4,1.4,5.1,2c2.7,1,5.4,1.8,8.1,2.7
		c1.1,0.4,1.9,1,2.6,1.9c0.9,1.2,2,2.4,2.9,3.7c0.5,0.8,0.8,1.8,1.1,2.8c0.3,0.9,0.4,1.9,0.6,2.8c0.2,1.3,0.2,2.6,0.4,3.9
		c0.1,0.8,0.2,1.5,0.4,2.3c0.2,1,0.5,2.1,0.7,3.1c0.1,0.3-0.1,0.7-0.2,1.1c-0.5,1.6-0.5,3.2,0.4,4.8c0.3,0.5,0.4,1.2,0.6,1.8
		c0.2,0.9,0.4,1.8,0.5,2.7c0.1,0.8,0.1,1.7,0.1,2.5c0,1.9-0.2,3.7-0.1,5.6c0,0.7,0.3,1.3,0.5,2c0.1,0.6,0.3,1.1,0.3,1.7
		c0,1.9,0,3.7,0,5.6c0,1.6-0.4,3.1-1,4.6c-0.3,0.7-0.2,1.2,0.5,1.5c0.8,0.3,1.6,0.6,2.4,0.7c1.9,0.3,3.8,0.5,5.8,0.8
		c2.2,0.3,4.3,0.9,6.2,2.1c1.5,0.9,3.3,0.8,5,0.6c2.7-0.3,5.3,0.1,7.7,1.2c0.4,0.2,0.7,0.7,1,1.1c1.6,1.9,2.9,4,3.8,6.2
		c0.5,1.1,1.1,2.1,2,3c0.7,0.8,1.2,1.8,1.7,2.7c0.7,1.4,1.4,2.7,2,4.1c1,2.5,1.8,5,2.8,7.4c0.5,1.2,1.1,2.4,1.7,3.6
		c0.4,0.8,0.7,1.6,1,2.4c0.8,1.6,1.5,3.2,2.3,4.8c0.2,0.5,0.4,1.1,0.6,1.7c-0.3,0-0.5,0-0.8,0c-0.3-0.7-0.5-1.4-0.8-2.1
		c-1.2-2.4-2.5-4.7-3.6-7c-0.5-1-0.7-2.1-1-3.1c-0.9-2.4-1.7-4.9-2.7-7.3c-0.7-1.7-1.5-3.4-2.3-5c-0.3-0.6-0.8-1.3-1.3-1.8
		c-0.9-0.9-1.6-1.9-2.1-3.1c-0.9-2.2-2.2-4.3-3.7-6.2c-0.7-0.8-1.6-1.3-2.6-1.6c-2.2-0.7-4.4-0.7-6.7-0.4c-0.7,0.1-1.5,0-2.3,0
		c-0.7,0-1.2,0.1-1.7,0.6c-1.6,1.8-3.2,3.7-4.8,5.4c0-0.6,3.8-5.1,5.3-6.2c-2.3-1.7-4.9-2.4-7.7-2.7c-1.9-0.2-3.8-0.4-5.6-0.7
		c-0.1,0-0.2,0-0.3-0.1c-1-0.2-1-0.2-1.3,0.7c-0.5,1.8-0.4,3.7-0.2,5.5c0.4,2.5,0.6,5,0.4,7.5c-0.1,1.3-0.9,2.5-1.6,3.7
		c0-0.1,0-0.2,0-0.3c1.5-2.4,1.5-5.1,1.2-7.8c-0.2-2-0.4-4-0.5-6.1c0-0.9,0.2-1.9,0.4-2.8c0.2-0.9,0.2-0.9-0.7-1.3
		c-0.4,1.1-0.8,2.1-1.2,3.2C70.7,66,70,67.8,69,69.5c-1,1.7-2.5,2.8-4.3,3.6c-1.3,0.5-2.6,1.2-4,1.4c-1.4,0.3-2.9,0.3-4.3,0.1
		c-1.8-0.2-3.5-0.8-5.2-1.3c-1.6-0.5-3-1.3-4.4-2.3c-1.3-1-2.9-1.7-4.3-2.5c-0.6-0.4-1.2-0.8-1.8-1.1c-0.2-0.1-0.5-0.2-0.7-0.1
		c-2,1-3.9,2.1-5.9,3.2c-1.6,0.8-2.9,2-4.1,3.3c-1.2,1.3-1.9,2.9-2.7,4.4c-0.6,1.2-1.3,2.4-2.3,3.2c-0.6,0.5-1.3,0.8-1.9,1.3
		c-0.2,0.1-0.4,0.3-0.4,0.4c-0.1,1.6-0.3,3.2-0.3,4.8c-0.1,2,0.1,4,0,6c-0.1,1.5-0.4,3-0.6,4.5c-0.1,1.1-0.1,2.3-0.2,3.4
		c0,0.3-0.2,0.6-0.2,1C21.1,103.1,20.8,103.1,20.6,103.1z M46.9,54.4c0.4,1,0.5,1.9,0.1,2.8c-0.6,1.4-1.7,2.3-3.3,2.7
		c-0.5,0.1-1.1,0.3-1.6,0.5c-1.2,0.5-2.5,1.1-3.7,1.6c-0.5,0.2-0.6,0.4-0.2,0.8c0.8,1,1.6,2,2.2,3.1c0.5,1,1.4,1.5,2.3,2
		c1.5,0.8,3.1,1.6,4.5,2.6c1.1,0.8,2.3,1.5,3.6,1.9c1.9,0.6,3.8,1.1,5.8,1.4c1.3,0.2,2.7,0.1,4.1-0.1c1.3-0.2,2.5-0.8,3.7-1.3
		c2-0.8,3.6-2.1,4.6-4.1c0.4-0.9,0.9-1.9,1.2-2.8c0.5-1.4,1-2.8,1.6-4.2c0-0.1,0.1-0.3,0-0.4c-0.2-0.8,0.1-1.4,0.4-2
		c0.6-1.4,1-2.8,1-4.3c0.1-2.8,0.3-5.7-0.6-8.5c-0.4-1.1-0.3-2.3-0.4-3.5c-0.3-3-1.5-5.7-2.2-8.6c-0.5-2-0.9-4-1.4-6
		c-0.1-0.4-0.2-0.9-0.5-1.2c-1-1.5-1.9-3-2.4-4.7c-0.2-0.6-0.5-1.2-0.9-1.6c-1.1-1.2-2.2-2.3-3.3-3.5c-0.5-0.5-1.1-0.9-1.8-0.7
		c-1.1,0.3-2.2,0.5-3.2,1c-1.4,0.8-2.9,1.2-4.5,1.2c-1.1,0-2.1,0.7-2.4,1.8C49,21.8,48,22.1,47,22.2c-2.7,0.1-5.3,0.5-7.7,1.8
		c-0.6,0.3-1.2,0.5-1.8,0.8c-0.8,0.4-1.7,0.8-2.5,1.4c-1.6,1.3-3.2,2.6-4.7,4c-0.1,0.1-0.2,0.2-0.3,0.3c-0.5,1.1-1.1,2.2-1.4,3.4
		c-0.3,1.7-0.4,3.5-0.5,5.2c0,0.3,0,0.7,0.2,1c0.4,0.8,0.6,1.7,0.5,2.6c-0.1,1-0.2,2-0.2,2.9c0,0.2,0,0.3,0,0.6c0.3,0,0.4,0,0.6,0
		c2.1-0.2,4.2-0.4,6.4-0.5c1.7-0.1,3.4-0.2,5.2-0.3c2-0.2,3.9-0.5,5.9-0.7c0.7-0.1,1.4,0,2.1,0c0.1,0,0.4-0.1,0.4-0.2
		c0.1-0.2,0.1-0.4,0-0.5c-0.5-0.5-1-0.9-1.7-0.8c-2.7,0.2-5.3,0.9-7.8,2.2c-0.3,0.2-0.7,0.4-0.9,0c-0.1-0.1,0.2-0.6,0.4-0.8
		c0.4-0.3,0.9-0.5,1.2-0.9c0.6-0.7,1.4-1,2.3-1.2c0.5-0.1,0.9-0.3,1.4-0.4c1.5-0.4,3-0.6,4.5,0c0.2,0.1,0.5,0.4,0.5,0.5
		c-0.2,0.5,0.2,0.7,0.5,1c0.5,0.4,0.6,0.9,0.2,1.4c-0.1,0.2-0.2,0.4-0.2,0.6c0,0.6,0.1,1.2,0.2,1.8c0.6,0,1.2,0,1.8,0
		c1,0,1.4,0.4,1.8,1.3c0.3,1,0.2,2.1-0.4,2.6c-0.6,0.4-1.1,0.8-1.3,1.6c-0.2,0.7-0.8,1-1.5,1.2c-0.5,0.1-0.9,0.2-1.4,0.3
		C47.9,54.1,47.4,54.3,46.9,54.4z M13.5,59.8c0.1,0,0.2,0,0.2,0c0.2-1,0.6-1.9,0.7-2.9c0.2-2,0.6-3.9,1.3-5.8
		c0.2-0.6,0.6-1.1,0.9-1.6c0.8-1.1,2-1.6,3.3-1.8c1.3-0.2,1.6-0.7,1.8-2c0.2-1.8,0.8-3.6,1.3-5.4c0-0.1,0.1-0.3,0.2-0.4
		c0.5-0.9,1.3-1.8,1.6-2.8c0.5-1.8,1.6-3.2,2.6-4.7c1.4-2,3.3-3.5,5.1-5.2c1.6-1.4,3.2-2.7,5.3-3.4c0.5-0.1,0.9-0.4,1.3-0.6
		c1.8-0.9,3.7-1.4,5.7-1.6c0.9-0.1,1.7-0.1,2.6-0.2c0.7-0.1,0.8-0.3,0.6-0.9c-0.2-0.5-0.4-1-0.6-1.4c-0.8-1.4-1.7-2.9-2.5-4.3
		c-1.2-2.1-2.8-3.7-5-4.9c-0.5-0.3-1.1-0.6-1.6-0.9c-0.1-0.1-0.2-0.4-0.2-0.6c0.2,0,0.4,0,0.5,0.1c0.3,0.2,0.7,0.4,1,0.5
		c1.7,0.8,3.3,1.8,4.4,3.3c1.2,1.8,2.4,3.6,3.5,5.5c0.5,0.8,0.9,1.7,1.3,2.6c1-2,1.6-2.4,3.8-2.5c1.1-0.1,2.2-0.4,3.2-0.9
		c1.2-0.7,2.5-1.2,3.9-1.3c0.9-0.1,1.7,0.3,2.3,1c0.8,0.9,1.7,1.7,2.5,2.6c0.7,0.8,1.4,1.6,1.8,2.6c0.5,1.3,1.2,2.5,1.8,3.8
		c0.5,1,1.2,1.5,2.4,1.2c0.5-0.1,0.6-0.3,0.5-0.7c-0.2-0.7-0.3-1.3-0.5-2c-0.2-0.9-0.3-1.9-0.5-2.8c-0.2-1.2-0.2-2.4-0.4-3.6
		c-0.1-0.9-0.3-1.8-0.6-2.7c-0.3-0.9-0.5-1.9-1-2.7c-0.8-1.3-1.9-2.3-2.8-3.5c-0.6-0.8-1.3-1.4-2.2-1.7c-2.6-0.9-5.3-1.7-8-2.7
		c-1.8-0.6-3.6-1.4-5.3-2.1c-1.9-0.8-3.8-1.6-5.9-1.3c-2.4,0.4-4.7,0.7-7.1,1.1c-1.1,0.2-2.2,0.6-3.3,1c-1.3,0.5-2.7,1-4,1.5
		c-1.1,0.4-2.1,1-2.8,2c-0.7,1.1-1.4,2.3-2.1,3.4c-0.5,0.8-1,1.7-1.7,2.4c-1.5,1.6-2.9,3.3-4.2,5c-2,2.7-3.4,5.6-3.8,8.9
		c-0.3,2.7-0.7,5.5-0.5,8.3c0,1,0,2.1,0,3.1c0,1.8-0.1,3.5-0.6,5.2c-0.7,2.7-1.4,5.5-1.5,8.3c-0.1,2.1-0.5,4.2,0.4,6.2
		C12.9,58.2,13.2,59,13.5,59.8z M29.2,73.5c0.1,0,0.1,0.1,0.2,0.1c0.2-0.2,0.4-0.3,0.5-0.5c1.3-1.6,3-2.6,4.8-3.6
		c1.6-0.8,3.1-1.7,4.7-2.5c0.4-0.2,0.5-0.5,0.2-0.8c-0.7-1-1.4-2-2-2.9c-0.2-0.3-0.4-0.4-0.7-0.3c-0.7,0.3-1.5,0.6-2.3,0.9
		c-1.9,0.8-3.5,2-4.1,4C30,69.7,29.7,71.6,29.2,73.5z M28.1,42.9C28.1,42.9,28,42.9,28.1,42.9C28,42.6,28,42.2,28,41.8
		c-0.1-1.5-0.7-2-2.1-2c-0.2,0-0.5,0-0.7,0c-0.4,0.1-0.8,0.2-1,0.4c-0.3,0.3-0.6,0.7-0.7,1.1c-0.5,1.7-1.1,3.3-1.2,5.1
		c0,0.8,0,0.9,0.8,0.8c1.4-0.2,2.8-0.5,4.1-0.8c0.2,0,0.4-0.3,0.5-0.6C27.9,44.9,28,43.9,28.1,42.9z M72.3,41.1
		c0.1-0.7,0.4-1.3,0.3-1.9c-0.3-2-0.5-4.1-1.2-5.9c-0.7-1.7-0.9-3.4-0.5-5.1c0.1-0.4,0-0.5-0.4-0.5c-0.6,0-1.2,0.1-1.7,0.1
		C69.2,32.4,71.2,36.6,72.3,41.1z M43.2,45.7c0.4,0.5,0.7,1.1,1.1,1.5c0.3,0.3,0.8,0.7,1.2,0.7c0.8-0.1,1.7-0.3,2.5-0.6
		c0.7-0.2,0.9-0.7,0.8-1.3c-0.2-0.7-0.5-1-1.3-0.9c-1.3,0.2-2.7,0.3-4,0.5C43.4,45.6,43.3,45.7,43.2,45.7z M28,32.8
		c-1.7,1.7-2.4,4.1-3.4,6.4c0.8,0,1.6,0,2.3,0c0.1,0,0.4-0.2,0.4-0.4c0.1-0.6,0.1-1.2,0.2-1.7C27.7,35.5,27.9,34.1,28,32.8z
		 M44.9,56.9c0.4,0,0.8-0.1,1.2-0.1c0.1,0,0.3-0.2,0.3-0.3c0-0.4,0-0.8-0.1-1.2c0-0.2-0.4-0.4-0.6-0.3c-1.2,0.2-2.3,0.5-3.5,0.9
		c-0.2,0-0.3,0.3-0.4,0.4c0.2,0.2,0.3,0.4,0.5,0.4C43.3,56.8,44.1,56.8,44.9,56.9z"/>
	<path class="st0" d="M91,103.1c-0.4-1.7-0.7-3.4-1.3-5c-0.3-0.9-1-1.6-1.5-2.4c-0.1-0.2-0.3-0.3-0.4-0.5c0,0,0.1-0.1,0.1-0.1
		c0.2,0,0.4,0,0.5,0.1c1.2,1.5,2.1,3.1,2.5,5c0.1,0.7,0.4,1.3,0.6,2c0.1,0.3,0.1,0.6,0.1,1C91.4,103.1,91.2,103.1,91,103.1z"/>
	<path class="st0" d="M42.6,74.7c0.7,0.2,1.4,0.3,2,0.5c0.7,0.3,1.3,0.8,2,1.2c0.8,0.5,1.2,1.2,1.6,2c1.3,3,3.4,5.4,6.3,7
		c0.8,0.4,1.7,0.7,2.5,1c0.2,0.1,0.4,0.2,0.6,0.4c-0.1,0-0.2,0-0.2,0c-4.3-1.4-7.5-4.1-9.3-8.3c-0.3-0.8-0.8-1.5-1.5-1.9
		c-0.8-0.5-1.5-1-2.3-1.3c-0.5-0.2-1.1-0.2-1.6-0.4C42.6,74.8,42.6,74.7,42.6,74.7z"/>
	<path class="st0" d="M58.7,60.6c0.6,0.2,1.1-0.1,1.7-0.6c1.7-1.5,3.7-2.2,6-2.3c0.4,0,0.6,0.1,0.5,0.5c-0.3,1.6-0.6,3.1-1.4,4.5
		c-0.6,1-1.4,1.8-2.4,2.4c-2.3,1.4-4.9,1.7-7.5,1.3c-0.7-0.1-1.4-0.5-2.1-0.9c-0.7-0.4-1.5-0.8-2.2-1.3C51.2,64.2,51,64.1,51,64
		c0-0.2,0.2-0.3,0.3-0.4c0.3-0.2,0.6-0.2,0.9-0.4c1.1-0.6,2.2-1.2,3.3-1.8C56.5,60.8,57.4,60.5,58.7,60.6z M66.1,59.5
		c-0.1-0.1-0.1-0.1-0.2-0.2c-0.8,0.6-1.6,1.1-2.3,1.8c-1.4,1.3-2.9,2.2-4.8,2.2c-2,0-4,0.4-5.9,1.2c1.3,1.1,2.8,1.7,4.5,1.6
		c1.9-0.1,3.7-0.5,5.4-1.5C64.9,63.6,65.7,61.7,66.1,59.5z M66.3,58.3c-0.1,0-0.1-0.1-0.2-0.1c-2,0.1-3.8,0.8-5.3,2.1
		c-0.7,0.6-1.3,0.9-2.1,0.8c-1.2-0.1-2.3,0.2-3.3,0.9c-0.9,0.6-1.8,1-2.7,1.5c-0.1,0-0.1,0.1-0.2,0.2c0,0.1,0,0.1,0,0.2
		c0.3,0,0.7,0.1,1,0c0.4-0.1,0.8-0.3,1.2-0.4c2.5-0.8,5-1.6,7.6-2.4c1.5-0.5,2.6-1.7,4-2.5C66.2,58.4,66.2,58.4,66.3,58.3z"/>
	<path class="st0" d="M52.4,53.6c0,0.2,0,0.4,0,0.6c-0.1,1.2,0.4,2.2,1.4,2.8c0.2,0.1,0.7,0.1,0.8,0c0.9-1,2.1-0.7,3.1-0.4
		c1.1,0.3,2,0,2.6-1c0.3-0.5,0.8-0.9,1.2-1.3c0.7-0.7,0.9-1.7,0.4-2.6c-0.5-0.8-1-1.6-1.6-2.3c-1.3-1.9-2.6-3.7-3.9-5.6
		c-0.2-0.3-0.2-0.6-0.3-1c-0.1-0.9-0.1-1.8-0.2-2.7c0-0.2,0.1-0.5,0.2-0.7c0.6-0.8,1.2-1.6,1.9-2.2c1.7-1.5,3.2-3.1,5.2-4.1
		c0.1-0.1,0.3-0.2,0.4-0.2c0.3-0.1,0.7-0.3,0.9,0.1c0.1,0.3,0,0.9-0.2,1c-1.7,0.8-2.9,2.4-4.3,3.6c-1.1,0.9-2.1,1.8-3.1,2.8
		c-0.1,0.1-0.3,0.3-0.3,0.4c0,1.1-0.3,2.2,0.4,3.2c1.4,1.9,2.7,3.8,4.1,5.7c0.7,1,1.4,2.1,1.5,3.5c0,0.5-0.1,0.9-0.5,1.2
		c-0.6,0.6-1.2,1.3-1.8,2c-0.6,0.7-1.9,1-2.8,0.8c-0.6-0.2-1.2-0.2-1.8-0.3c-0.2,0-0.5,0.2-0.7,0.4c-0.3,0.5-0.8,0.5-1.3,0.4
		c-1.4-0.6-2.3-2.1-2-3.7c0-0.1,0.2-0.3,0.2-0.4C52.3,53.6,52.3,53.6,52.4,53.6z"/>
	<path class="st0" d="M66.3,38.1c-2,0.5-3.9,1-5.8,1.5c0-0.1-0.1-0.1-0.1-0.2c0.2-0.5,0.7-0.5,1.1-0.6c1.2-0.3,2.5-0.6,3.7-1
		c0.5-0.2,0.9-0.6,1.3-0.9c0.1-0.1,0.3-0.1,0.4-0.2c0,0.2,0.1,0.3,0.1,0.5c-0.1,0.3-0.2,0.7-0.3,1c-0.1,0.3-0.2,0.7-0.4,0.9
		c-1,1.1-2.1,2.2-3.5,2.5c-1,0.2-2,0.1-3.1,0.1c-0.7,0-1.4-0.2-2,0.5c-0.3-0.6,0-1,0.6-1c0.8,0,1.6,0,2.3,0.1
		c2.2,0.3,3.7-0.9,5.1-2.3C66.1,38.8,66.1,38.5,66.3,38.1z"/>
	<path class="st0" d="M64.4,67c-2.1,0-4,0.7-5.4,2.2c-0.1,0-0.1,0-0.2-0.1c0.1-0.2,0.1-0.4,0.2-0.6c1.4-1.2,3-2.1,4.9-2
		c0.1,0,0.2,0,0.3,0.1c0.1,0,0.1,0.1,0.1,0.1C64.4,66.9,64.4,66.9,64.4,67z"/>
</g>
</svg>
