<?xml version="1.0" encoding="utf-8"?>
<!-- Generator: Adobe Illustrator 18.1.1, SVG Export Plug-In . SVG Version: 6.00 Build 0)  -->
<!DOCTYPE svg PUBLIC "-//W3C//DTD SVG 1.1//EN" "http://www.w3.org/Graphics/SVG/1.1/DTD/svg11.dtd">
<svg version="1.1" id="Layer_1" xmlns="http://www.w3.org/2000/svg" xmlns:xlink="http://www.w3.org/1999/xlink" x="0px" y="0px"
	 viewBox="0 0 120 104.2" style="enable-background:new 0 0 120 104.2;" xml:space="preserve">
<style type="text/css">
	.st0{fill:#E91E63;}
</style>
<g id="redeye-recom">
	<path class="st0" d="M120,89.2c-0.2-0.1-0.5-0.2-0.6-0.4c-1.4-1.7-2.6-3.4-4.1-5c-1.5-1.5-2.6-3.3-3.7-5.1
		c-1.6-2.6-3.2-5.1-4.8-7.6c-2.7-4.4-5.9-8.4-7.9-13.2c-1.4-3.2-3.7-5.7-5.9-8.4c-1.4-1.7-2.5-3.6-2.6-5.9c-0.1-0.9-0.6-1.7-0.9-2.6
		c-0.8-2.5-1.6-5-2.5-7.4c-0.8-2-1.7-3.9-3.2-5.5c-0.8-0.9-1.4-2.1-2.1-3.2c-0.6-0.8-1.1-1.7-1.8-2.5c-1.1-1.1-2.7-1-3.7,0.2
		c-1,1.2-2,2.4-2.9,3.6c-0.8,1-0.7,1.8,0.1,2.8c0.8,1,1.4,2.2,2.1,3.3c0.2,0.3,0.8,0.7,0.8,0.6c0.4-0.3,1-0.7,1-1.2
		c0.1-1.3-0.2-2.5-1.3-3.2c-0.1-0.1-0.3-0.2-0.4-0.3c-0.1-0.3-0.2-0.6-0.3-0.9c0.3,0,0.6-0.1,0.9-0.1c0.2,0,0.3,0.2,0.6,0.4
		c0.2-0.8,0.4-1.5,0.7-2.2c0.1-0.4,0.5-0.7,0.7-1c0.1,0.4,0.3,0.8,0.3,1.1c0,0.5-0.5,1.2-0.3,1.6c0.1,0.3,0.9,0.3,1.4,0.6
		c0.3,0.1,0.4,0.5,0.7,0.7c-0.3,0.1-0.6,0.2-0.9,0.2c-0.2,0-0.3-0.1-0.5-0.1c-1.1-0.2-1.2,0.1-0.9,1c0.1,0.2,0.1,0.4,0.2,0.6
		c0.7,2.4-0.4,3.8-2.8,3.8c-0.4,0.6-0.7,1.3-1.1,1.9c-0.4,0.5-0.9,0.7-1.4,0.2c-0.4-0.3-0.8-0.5-1.1-0.9c-1-1.2-2.1-2.5-3-3.8
		c-0.4-0.6-0.7-1.4-1.1-2.2c-0.3,0.3-0.9,0.7-1,1.1c-0.1,0.9-0.1,1.9,0.8,2.4c1.8,0.9,2.8,2.4,3.8,3.9c0.5,0.7,0.7,1.3,0.1,2
		c-0.6,0.7-1.3,0.4-1.9,0c-2.2-1.3-4.3-2.7-6.5-3.9c-0.7-0.4-1.5-0.5-2.2-0.7c-0.7-0.2-1.4-0.2-2-0.4c-1.2-0.4-2.2,0-3.1,0.6
		c-0.7,0.5-0.7,1,0.1,1.4c0.6,0.3,1.2,0.6,1.9,0.8c1.4,0.3,2.4,1.2,3.5,2.1c1,0.8,2.1,1.5,3.2,2.2c0.8,0.5,1.6,0.9,2.3,1.6
		c3.2,3.3,6.2,6.6,9.4,9.9c1.2,1.3,2.5,2.7,4.6,2.7c0.4,0,0.8-0.1,1.1-0.2c2-1,4-2,6-2.9c0.2-0.1,0.5,0.1,0.8,0.1
		c-0.1,0.2-0.1,0.5-0.3,0.7c-0.3,0.3-0.8,0.4-1.2,0.6c-1.7,0.9-3.5,1.8-5.4,2.8c0.8,0.7,1.3,1.3,2,1.8c4.3,3.5,7.6,8,10.5,12.7
		c0.7,1.1,1.1,2.4,1.6,3.6c0.2,0.4,0.2,0.8,0.4,1.2c1.4,3,3,6,4.3,9c2,4.5,4,9,5.9,13.4c0.9,2.1,1.7,4.2,2.5,6.3
		c-0.9,0.3-1.3,0.1-1.6-0.7c-1-2.6-1.9-5.3-3-7.9c-1-2.4-2-4.7-3.1-7.1c-1.3-2.7-2.6-5.4-4.2-7.9c-2.2-3.4-4.6-6.7-9.1-7.7
		c-1.2-0.3-2.3-1.1-3.5-1.5c-1.8-0.6-3.6-1.2-5.5-1.6c-2.2-0.5-4.5-0.9-6.7-1.4c-1.6-0.4-3.2-1-4.8-1.5c-1.1-0.4-1.1-0.3-1.3,0.8
		c-0.2,1.5-0.6,2.9-1.2,4.3c-1.9,4.8-3.2,9.8-4.1,14.8c-0.3,1.5-0.2,3.1-0.3,4.6c0,0.3-0.3,0.6-0.5,1c-0.2-0.3-0.7-0.7-0.7-1
		c0.1-1.8,0-3.6,0.4-5.3c0.7-3.6,1.5-7.1,2.5-10.6c0.6-2.1,1.5-4.2,2.2-6.3c0.1-0.3,0.2-0.7,0.2-1c0.3-3,0.5-6.1,0.9-9.1
		c0.3-2.5,0.8-4.9,1-7.4c0.1-1.4,0.1-2.8,0-4.2c0-0.2-0.4-0.5-0.7-0.5c-0.5,0-1.3-0.3-1.4,0.7c-0.2,1.2-0.4,2.4-0.6,3.6
		c-0.3,1.7-1.3,3-2.4,4.2c-2.1,2.4-4.7,4.2-7.4,5.9c-2.2,1.4-4.5,2.8-6.9,3.9c-2,0.9-4.2,1.2-6.3,1.7c-0.8,0.2-1.7-0.2-2.8-0.3
		c-0.5,3.9,0.7,7.4,3,10.6c-0.7,0.4-1,0.1-1.3-0.5c-1.9-3.2-3-6.6-2.8-10.4c0-0.1,0-0.2-0.1-0.5c-1.6,0.7-3.1,1.5-4.6,2.1
		c-2.4,1-4.8,1.8-7.1,2.9c-2.1,1-4,2.3-6.1,3.4c-1.7,0.9-3.6,1.8-5.3,2.7c-2.3,1.3-4.5,2.6-6.8,4c-0.3,0.2-0.5,0.5-0.7,0.8
		c-0.6,0.9-1.2,1.9-1.9,2.8c-1.6,1.9-2.3,4-2.8,6.4c-0.7,3.7-0.6,7.4-0.4,11.2c0,0.4,0.1,0.8,0,1.2c-0.1,0.3-0.4,0.5-0.6,0.7
		c-0.2-0.2-0.5-0.5-0.5-0.7c-0.1-1.2-0.2-2.4-0.2-3.6c-0.2-3.5,0.1-7.1,1-10.5c0.4-1.7,1.5-3.3,2.3-4.9c0.6-1.1,1.2-2.2,2-3.1
		c1-1,2.1-2,3.3-2.7c3.1-1.7,6.3-3.3,9.5-5c1.4-0.8,2.7-1.8,4.1-2.5c2.3-1.1,4.8-2,7.2-3.1c1.9-0.9,3.8-1.8,5.7-2.8
		c0.7-0.3,0.7-0.7,0.3-1.3c-0.7-0.9-1.3-1.7-2-2.6c-1.7-2-2.7-4.2-3.9-6.5c-0.8-1.6-1.8-3.1-2.6-4.6c-1.5-2.7-2.3-5.6-1.4-8.6
		c0.5-1.6,0.4-3.2,0.2-4.8c0-0.3-0.1-0.6-0.2-0.9c-1.2-2.8-1.1-5.6-0.3-8.4c0.8-2.8,0.7-5.7,0.7-8.6c0-1.4,0.4-2.8,1-4.1
		c1.9-4.6,5-8.5,9.3-11.1c2.7-1.6,5.7-2.7,8.9-3c0.1,0,0.2,0,0.2,0c1.1-0.9,2.3-0.2,3.5-0.4c0.4-0.1,0.7-0.1,1.1-0.2
		c0.9-0.2,1.8-0.4,2.7-0.5c2.5-0.3,4.7,0.6,6.9,1.6c0.5,0.2,1,0.6,1.4,1c2.2,2,4.3,4,6.4,6.1c2.1,2.1,3.6,4.5,4,7.5
		c0.1,1,0.3,2,0.6,2.9c0,0.2,0.4,0.4,0.5,0.4c1-0.3,1.6,0.2,2.2,0.8c0.8,0.9,1.6,1.2,2.9,0.6c1.2-0.6,2.5-0.3,3.4,0.8
		c1.1,1.3,2.1,2.8,3.1,4.2c0.4,0.6,0.7,1.3,1.2,1.8c1.7,1.8,2.7,4.1,3.6,6.4c1,2.7,1.9,5.5,2.8,8.3c0.3,0.8,0.2,1.7,0.5,2.5
		c0.6,1.4,1.3,2.7,2.1,4c0.6,0.9,1.4,1.7,2.1,2.5c2.2,2.4,3.5,5.4,5,8.2c1.2,2.3,2.7,4.5,4.1,6.8c2.7,4.2,5.4,8.4,8,12.7
		c1.8,3,4.3,5.4,6.6,7.9c0.1,0.1,0.2,0.1,0.3,0.1C120,87.6,120,88.4,120,89.2z M26.9,37.4c0.4,2.1,0,4-0.7,5.8c-0.1,0.2,0,0.4,0,0.6
		c-0.2,2.3,0.8,4.2,1.7,6.1c1,2,2.2,3.8,3.2,5.7c1.5,2.9,3.4,5.6,5.7,8c1.6,1.6,3.5,1.9,5.5,1.7c3.2-0.4,6.2-1.8,8.9-3.5
		c2.9-1.9,5.8-3.9,8.6-6c1.8-1.3,2.7-3.1,3.1-5.1c0.5-2.7,0.9-5.3,2-7.8c0.2-0.6,0-0.7-0.5-0.9c-1.6-0.7-3-1.7-4.3-3
		c-0.7-0.7-1.7-1.1-2.6-1.6c-0.6-0.3-1.4-0.3-1.9-0.7c-0.6-0.4-1.2-1.1-1.4-1.7c-0.2-0.8,0.6-1.4,1.4-1.8c1.3-0.6,2.5-0.9,3.8-0.4
		c0.6,0.2,1.3,0.2,1.9,0.3c0.2,0,0.5-0.2,0.5-0.3c0.2-0.6-0.7-2.1-1.3-2.3c-1-0.4-2-0.8-3.1-1.1c-1.6-0.4-2.5-1.4-3.5-2.6
		c-0.3-0.3-0.5-1-0.3-1.2c0.2-0.4,0.8-0.5,1.2-0.7c0.6-0.2,1.3-0.3,2-0.5c0.2-0.1,0.4-0.4,0.4-0.6c0.1-1.3,0.1-2.6,0.1-3.9
		c0-0.9,0.3-2.1-0.1-2.7c-1.1-1.4-2.3-2.8-3.8-3.9c-1.4-1-2.4-2.2-3-3.7c-0.7-1.9-1.1-4-1.7-6c-0.1-0.3-0.4-0.5-0.6-0.7
		c-0.1,0.3-0.4,0.6-0.4,0.9C47.9,6,47.9,8,49,9.7c0.2,0.4,0.4,0.8,0.5,1.2c0.1,0.3,0.1,0.8-0.1,1c-0.2,0.2-0.7,0.2-1.1,0.2
		c-0.5,0-0.9-0.3-1.4-0.3c-3.8,0.3-7.5,1.1-11.1,2.6c-2.4,1-5,1.9-6.9,3.8c-0.9,0.9-1.7,2.1-1.9,3.3c-0.5,2.1-0.5,4.3-0.7,6.5
		c1.3,0,2.7,0,4.1,0c0.4,0,0.7,0.4,1,0.6c-0.3,0.2-0.6,0.6-1,0.7c-0.9,0.1-1.8,0.1-2.8,0c-1-0.1-1.8,0.4-2,1.1
		c-0.2,1.1-0.1,2.2-0.1,3.4c0.1,0,0.2,0.1,0.3,0.1c2.7-2.8,5.5-1.9,8.2-0.1c0.1-0.1,0.1-0.2,0.2-0.3c-0.6-1-1.2-2.1-1.8-3.1
		c0.1-0.1,0.1-0.1,0.2-0.2c0.3,0.2,0.6,0.3,0.8,0.6c1.2,1.4,1.8,3,1.7,4.8c-0.2,2.3-0.5,4.6-0.9,6.9c-0.2,1,0,1.6,1,2
		c0.5,0.2,1,0.5,1.5,0.8c-1.2,0.6-2.1,0.1-2.7-0.6c-0.4-0.4-0.5-1.3-0.4-1.9c0.3-1.9,0.7-3.8,1-5.7c0.1-0.7,0-1.3,0-2.3
		C32.1,36.1,29.8,37.5,26.9,37.4z M94.8,75.2c0-0.2,0.1-0.2,0.1-0.3c-1.3-3.4-3.4-6.4-5.6-9.3c-1.1-1.5-2.5-3-3.8-4.3
		c-1.6-1.5-3.3-2.9-4.9-4.3c-2.1-1.7-4.4-3.3-6.4-5.1c-1.6-1.5-3-3.2-4.6-4.8c-0.3-0.3-0.7-0.4-1.1-0.6c-0.1,0.4-0.3,0.8-0.4,1.2
		c-0.3,2.7-0.4,5.5-0.8,8.2c-0.4,2.9-0.1,5.8-1.1,8.6c0,0.1,0.2,0.5,0.4,0.5c1,0.4,2.1,1,3.2,1.2c2.4,0.6,4.9,0.9,7.3,1.6
		c4,1.1,8,2.2,11.8,3.9c2,0.9,4.2,1.5,5.7,3.4C94.5,75.2,94.6,75.2,94.8,75.2z M62.3,28c0.2,1.7,0.3,2.9,0.4,4.1
		c0.1,0.5,0.1,1.1,0.4,1.4c0.5,0.4,1.2,0.9,1.7,0.9c0.8,0,1.1-0.9,1-1.8c-0.1-0.8-0.1-1.6-0.1-2.4c0-0.5-0.1-1-0.1-1.4
		c0-0.4,0-0.8,0-1.2c0.3,0.2,0.7,0.4,0.9,0.7c0.3,0.7,0.7,0.6,1.1,0.1c0.5-0.7,1.1-1.5,1.5-2.3c0.7-1.3,1.3-2.7,1.9-4
		c0.1-0.2,0-0.6-0.1-0.7c-0.9-0.9-1.7-1-2.6-0.1c-1.5,1.6-3.5,2.7-4.8,4.6C62.8,26.6,62.1,27.3,62.3,28z M72.8,20.5
		c-0.2,0.3-0.4,0.5-0.5,0.7c-1,2.1-2,4.3-3.1,6.4c-0.6,1.1-0.4,2.2,0.2,3.1c1,1.4,2.2,2.8,3.4,4.1c0.2,0.2,0.9,0.4,1.1,0.2
		c0.5-0.3,0.4-0.8,0.1-1.3c-0.6-1-1.2-2-1.6-3.1c-0.8-2.1-0.9-4.2,0.9-5.9c0.7-0.7,1.2-1.5,1.8-2.3C74.4,21.7,73.7,21.1,72.8,20.5z
		 M54.8,25.9c0,0.1-0.1,0.3-0.1,0.4c0.1,0.2,0.3,0.4,0.4,0.6c1.5,1.8,3.8,1.9,5.7,2.7c0.1,0.1,0.6-0.3,0.6-0.4
		c0.1-1.2-0.3-2.6,0.9-3.6c-0.1,0-0.2-0.1-0.2-0.1C59.6,25.5,57.2,25.7,54.8,25.9z M70.5,38.3c0.1-0.1,0.2-0.2,0.4-0.3
		c-0.9-1.2-1.4-2.6-2.7-3.5c-0.2-0.2-0.7-0.2-1-0.2c-0.8,0.1-1.1,0.8-0.5,1.3C67.9,36.5,69.2,37.4,70.5,38.3z M29.3,33.2
		c-0.3,0.1-0.6,0.1-0.8,0.2c-1,0.3-2.1,2.1-1.7,2.7c0.6,0.9,1.5,0.4,2.3,0.3c0.2,0,0.4-0.2,0.6-0.3C28.9,35.1,28.9,35.1,29.3,33.2z
		 M66.3,43.6c-0.1,0-0.3,0-0.4,0c-0.1,0.6-0.2,1.2-0.3,1.8c0.7,0.1,1.3,0.2,2,0.3c0-0.1,0.1-0.2,0.1-0.3
		C67.2,44.7,66.8,44.1,66.3,43.6z M33.5,34.7c-0.4-0.8-0.8-1.3-1.3-0.8c-0.2,0.2-0.1,0.7-0.1,1.1C32.6,34.9,33.1,34.8,33.5,34.7z"/>
	<path class="st0" d="M79.9,96.5c2.4-0.2,4.1,0.8,5.8,2c1.1,0.8,2.4,1.4,3.6,2.2c1.4,1,2.7,2.1,4.1,3.1c-1.2,0.5-1.6,0.3-2.4-0.4
		c-0.9-0.8-1.9-1.5-2.9-2.1c-1.8-1.1-3.6-2.2-5.5-3.2c-1.5-0.9-4.8,0.2-5.5,1.8c-0.5,1.1-1.1,2.2-1.7,3.3c-0.5,1-0.9,1.2-2.2,0.9
		c0.5-0.8,1.1-1.6,1.6-2.5c0.9-1.5,1.5-3.2,3.1-4.3c0.3-0.2,0.5-0.7,0.6-1c0.6-2.6,2.2-4.7,3.6-6.9c1-1.5,2.1-3,3.2-4.5
		c0.2-0.3,0.6-0.5,0.9-0.5c0.1,0,0.5,0.3,0.5,0.5c0,0.4-0.1,0.8-0.3,1.1c-2,2.3-3.9,4.7-4.5,7.8c-0.1,0.8-0.3,1.6-1.3,2
		C80.3,95.7,80.2,96.1,79.9,96.5z"/>
	<path class="st0" d="M29.5,104.1c-0.4,0-0.7,0-1.2,0c0-0.6-0.1-1.2-0.1-1.7c-0.1-2.7,0-5.5-0.2-8.2c-0.2-2.8-1.4-5.2-2.9-7.5
		c-0.7-1.1-2.1-1.6-3.5-1.6c-0.6,0-1.5,0.3-1.6-0.6c0-1,0.9-0.6,1.5-0.6c2.5,0,4.3,1.1,5.4,3.3c1.7,3.1,2.6,6.4,2.4,9.9
		C29.4,99.4,29.5,101.7,29.5,104.1z"/>
	<path class="st0" d="M44,93.1c-3.2-0.1-6-1.2-8.4-3.4c-2.1-2-4.4-3.8-6.6-5.7c-0.2-0.2-0.3-0.7-0.4-1c0.5-0.1,1.1-0.3,1.3-0.1
		c0.9,0.6,1.7,1.3,2.5,2c1.8,1.6,3.6,3.2,5.4,4.7c1.9,1.7,4.3,2,6.7,2c0.2,0,0.5-0.1,0.7,0.1c0.3,0.2,0.6,0.4,0.6,0.7
		c0,0.2-0.3,0.6-0.6,0.7C44.9,93.1,44.4,93,44,93.1z"/>
	<path class="st0" d="M81.1,42.3c0.5-2,0-3.9-1.1-5.6c-0.1-0.2-0.3-0.4-0.3-0.5c0-0.3,0.2-0.6,0.3-1c0.2,0.2,0.6,0.3,0.7,0.6
		c1.9,3.1,1.8,6.6,1.4,10c-0.1,1.3,0,2.6,0.2,4c0,0.4,0.5,0.8,0.7,1.2c0.1,0.3,0.1,0.6,0.2,0.9c-0.3-0.1-0.7,0-0.9-0.2
		c-0.9-0.8-1.2-1.8-1.2-2.9C81,46.6,81.1,44.4,81.1,42.3z"/>
	<path class="st0" d="M48,51.7c-0.5,0.4-0.6,0.6-0.9,0.8C45.1,53.6,43,54.8,41,56c-1.4,0.8-2.9,1-4.5,0.8c-1.5-0.1-2.1-0.9-2.7-2.3
		c-0.5-1.1-0.6-2-0.3-3.1c0.4-1.7,1.4-2.1,3-2.4c2.9-0.4,5.3,0.7,7.7,1.9c0.6,0.3,1.4,0.4,2.1,0.5C46.8,51.6,47.3,51.6,48,51.7z
		 M44.7,53.1c-0.3-0.2-0.4-0.2-0.4-0.2c-3,0.4-5.9,0.7-8.9,1.1c-0.4,0.1-0.8,0.5-0.9,0.9c-0.1,0.2,0.3,0.7,0.7,0.9
		c0.6,0.3,1.2,0.6,1.9,0.6C40.1,56.6,42.2,54.7,44.7,53.1z M44.4,52.2c0-0.1,0.1-0.3,0.1-0.4c-0.4-0.2-0.8-0.5-1.3-0.7
		c-1.5-0.6-3-1.3-4.6-1.7c-1-0.2-2.1,0.2-3.2,0.3c-1,0.1-1.3,1.1-1.5,2c-0.1,0.6,0.1,1.2,0.2,1.7c0.4-0.3,0.9-0.6,1.3-0.9
		c0.1-0.1,0.2-0.2,0.3-0.3c1.3-1.2,4.1-1.6,5.8-0.9C42.4,51.8,43.4,52,44.4,52.2z M35.8,52.9c0.1,0.1,0.1,0.2,0.2,0.3
		c0.9,0,1.7,0.1,2.6,0c0.8-0.1,1.5-0.2,2.3-0.4c0.2-0.1,0.4-0.4,0.6-0.6c-0.2-0.2-0.5-0.5-0.7-0.5c-1.1,0-2.2,0-3.3,0.3
		C36.8,52.1,36.3,52.6,35.8,52.9z"/>
	<path class="st0" d="M46.2,33.9c-1.2-0.2-2.4-0.3-3.5-0.5c-1-0.2-1-0.4-0.5-1.3c1.4-3,6.5-3.6,9.6-1.8c0.7,0.4,0.5,0.9,0,1.2
		C50.1,32.6,48.5,34,46.2,33.9z M46.5,33c-0.3-0.9-0.6-1.7-0.9-2.5c-1,0.2-1.8,0.9-2.4,1.7c-0.1,0.1,0.2,0.6,0.4,0.6
		C44.5,32.9,45.5,32.9,46.5,33z M50.6,31.4c-0.5-0.3-1.1-0.7-1.1-0.7c-0.4,0.4-0.7,1-1,1.5c0.1,0.1,0.2,0.2,0.3,0.2
		C49.3,32.1,49.9,31.8,50.6,31.4z"/>
	<path class="st0" d="M48.4,23.8c1.3-0.1,2.2,0.4,3,1.4c0.1,0.2,0.1,0.7,0,0.8c-0.2,0.2-0.8,0.3-0.9,0.2c-1.3-1.7-3-0.8-4.5-0.6
		c-1.5,0.1-2.8,0.8-3.9,1.9c-0.3,0.4-0.7,0.9-1.3,0.3c-0.5-0.5-0.1-0.9,0.3-1.3c1.3-1.2,2.8-1.9,4.6-2.1
		C46.7,24.1,47.5,24,48.4,23.8z"/>
	<path class="st0" d="M40.2,40.7c1.1,0.4,1.7,1,2.1,2c0.3,0.8,0.2,1.5-0.5,2.1c-0.5,0.4-0.9,1.1-2.1,0.7c1-0.6,2.3-0.9,2-2.2
		C41.5,42.4,40.8,41.7,40.2,40.7z"/>
	<path class="st0" d="M36.8,44.5c0.8-1.3,2.2-1.6,3-0.8c0.1,0.1,0.2,0.3,0.2,0.4c0,0.1-0.2,0.3-0.3,0.3
		C38.7,44.5,37.8,44.5,36.8,44.5z"/>
</g>
</svg>
