<?xml version="1.0" encoding="utf-8"?>
<!-- Generator: Adobe Illustrator 18.1.1, SVG Export Plug-In . SVG Version: 6.00 Build 0)  -->
<!DOCTYPE svg PUBLIC "-//W3C//DTD SVG 1.1//EN" "http://www.w3.org/Graphics/SVG/1.1/DTD/svg11.dtd">
<svg version="1.1" id="Layer_1" xmlns="http://www.w3.org/2000/svg" xmlns:xlink="http://www.w3.org/1999/xlink" x="0px" y="0px"
	 viewBox="0 0 150 129.7" style="enable-background:new 0 0 150 129.7;" xml:space="preserve">
<style type="text/css">
	.st0{fill:#FF5722;}
</style>
<g id="sty-recom">
	<path class="st0" d="M0,129.7c0.5-1.8,1-3.5,1.6-5.3c1.2-3.3,2.5-6.6,4-9.8c1.1-2.4,2.5-4.7,4.3-6.7c0.2-0.2,0.5-0.5,0.6-0.8
		c0.9-2,2.6-3.3,4.1-4.7c0.8-0.8,1.3-1.8,2.1-2.7c0.6-0.7,1.4-1.3,2.1-2c0.2-0.2,0.4-0.4,0.4-0.6c1-4,0.6-8.1,0.7-12.2
		c0-0.7-0.1-1.3-0.7-1.9c-2-1.9-2-5.5-0.2-7.3c0.7-0.7,1.3-1.5,2-2.2c0.6-0.7,0.7-1.6,0.5-2.4c-0.7-2.8-1.4-5.7-2.2-8.5
		c-0.4-1.3-0.8-2.6-1.3-3.9c-0.5-1.5-0.2-2.9-0.1-4.4c-0.8-0.2-1-0.9-1.1-1.7c0-0.8-0.2-1.6-0.3-2.4c0-0.2-0.1-0.4-0.1-0.5
		c-1-1.4-1-3-1.1-4.6c0-1,0-2,0-3c0-0.2,0-0.5-0.1-0.6c-0.7-0.6-0.5-1.4-0.4-2.1c0.2-1.2,0.4-2.3,0.5-3.5c0.1-0.5-0.1-1-0.1-1.5
		c0-0.5,0.1-1.1,0.2-1.6c0-0.4,0.1-0.9,0.1-1.3c0-0.2,0-0.5,0-0.7c0.7-2.3,1.4-4.6,2.2-6.8c0.9-2.4,2.3-4.5,4.2-6.3
		c0.6-0.6,1-1.3,1.5-1.9c1.2-1.6,2.5-3.1,3.5-4.9c0.8-1.4,2.2-2.1,3.6-2.8c1-0.5,2-1,3-1.6c1.8-1,3.6-2,5.4-3.1
		c1-0.6,1.9-1.1,2.9-1.7c1.5-0.8,3.1-0.9,4.7-1.3c2.2-0.5,4.4-0.4,6.6-0.5C54.6,0,56.2,0,57.8,0c0.5,0,1.2,0,1.6,0.3
		C60.5,1,61.8,1,63,1.3c2.1,0.6,4.2,1,6.1,2.3c1,0.7,2.2,1,3.3,1.5c1,0.4,2,0.9,3,1.4c0.8,0.4,1.3,1,1.8,1.8
		c0.4,0.7,0.9,1.2,1.4,1.8c1.7,2,3.3,4,5,6c0.9,1.1,2,2.1,2.8,3.2c1.6,2.1,3.2,4.2,4.7,6.3c0.3,0.4,0.4,1,0.6,1.5
		c0.9,2.3,1.8,4.6,2.8,6.9c1.1,2.6,1.9,5.3,2.6,8.1c0.4,1.5,1.1,3,1.5,4.5c0.6,2.2,1.2,4.4,1.7,6.6c0.3,1.6,0.5,3.1,0.9,4.7
		c0.7,3.5,1.5,7,2.2,10.5c0.1,0.4,0.2,0.8,0.1,1.2c0,0.5,0.2,0.6,0.7,0.6c1.9,0.2,3.7,0.5,5.6,0.7c0.9,0.1,1.8,0.1,2.7,0.3
		c1,0.2,2,0.6,3,0.9c2,0.6,4,1.2,6.1,1.8c1.6,0.5,3.2,0.8,4.7,1.4c1.3,0.6,2.6,1.4,3.7,2.4c1.5,1.3,2.9,2.8,4.4,4.2
		c0.4,0.4,1,0.8,1.4,1.2c0.4,0.4,0.8,0.8,1.1,1.3c1.2,1.7,2.4,3.5,3.4,5.3c1.2,1.9,1.8,4.1,2.3,6.2c0.8,4,2.3,7.8,3.5,11.6
		c0.6,2,1,4,1.4,6.1c0.6,2.8,1,5.6,1.5,8.3c0.3,1.8,0.7,3.6,1,5.5c0.1,0.7,0,1.5,0,2.2c-0.4,0-0.7,0-1.1,0c0-0.7,0-1.3-0.1-2
		c0-0.4-0.3-0.9-0.2-1.2c0.3-1.1-0.1-2-0.3-3.1c-0.6-3.3-1.3-6.6-2-9.9c-0.4-1.9-0.8-3.9-1.4-5.8c-0.8-2.5-1.7-5-2.5-7.5
		c-0.8-2.6-1.1-5.3-2.2-7.8c-0.5-1.1-1-2.3-1.6-3.3c-1.5-2.3-3.2-4.5-5.3-6.4c-1.6-1.5-3.1-3.1-4.7-4.5c-2.2-1.9-5.1-2.5-7.9-3.2
		c-1.8-0.4-3.6-0.8-5.3-1.5c-2.6-1.1-5.2-1.3-7.9-1.6c-1.1-0.1-2.2-0.2-3.3-0.4c-0.7-0.1-0.8-0.1-0.7,0.6c0,0.1,0,0.2,0,0.3
		c0,3.3,0.1,6.5,0.1,9.8c0,0.7-0.2,1.6-0.6,2.2c-0.5,1-1.2,1.9-2,2.6C99.9,88,98.4,89,97,90.1c-0.2,0.1-0.4,0.4-0.4,0.6
		c0,0.5,0.1,1.1,0.3,1.5c0.8,1.7,1.3,3.4,1,5.3c-0.1,0.7-0.2,1.4-0.4,2.1c-0.5,1.8-1.1,3.7-1.7,5.5c-0.2,0.6-0.5,1.2-0.2,1.9
		c0,0.1,0,0.2,0,0.3c-0.5,1.8-0.4,3.5,0.3,5.2c0.3,0.8,0.8,1.6,1,2.5c1.3,4.3,3,8.4,5,12.4c0.3,0.7,0.6,1.4,0.9,2.1
		c-0.4,0-0.8,0-1.2,0c0-0.2,0-0.4-0.1-0.6c-0.5-1.1-1.1-2.3-1.6-3.4c-0.7-1.7-1.5-3.4-2.2-5.1c-0.8-2.1-1.3-4.4-2.3-6.4
		c-1.4-3.1-1.4-6.1-0.4-9.2c0.7-2,1.3-4.1,1.8-6.1c0.4-1.8,0.5-3.7-0.4-5.5c-0.3-0.7-0.7-1.4-0.9-2.2c-0.3-1.3-0.4-2.6-0.7-3.9
		c-0.6-2.3-1.7-4.2-4.1-5.3c-0.8-0.3-1.5-1.1-2.1-1.7c-0.6-0.7-1.2-1.4-1.8-2.2c-1,2.2-4.9,2.7-7,1.4c0.4,1.9,1.3,3.7,2.2,5.3
		c1.1,1.9,2.3,3.7,3.5,5.6c1,1.6,1.5,3.3,1.7,5.1c0.1,0.7,0.3,1.2,0.7,1.6c0.4,0.5,0.5,1,0.1,1.5c-0.7-0.8-1.2-1.6-2-2.2
		c-0.8-0.6-1.8-0.9-2.7-1.4c-0.1,0-0.1,0.1-0.2,0.1c1,1.1,1.2,2.4,1.4,3.7c0,0.2-0.1,0.5-0.2,0.5c-0.1,0.1-0.5,0-0.5-0.1
		c-0.1-0.3-0.2-0.6-0.2-0.9c-0.1-0.6-0.1-1.3-0.4-1.7c-1.1-1.8-1.9-3.7-2.7-5.6c-1.7-3.9-2.9-7.9-4.2-11.9c-1.3-4.3-3-8.4-5.3-12.2
		c-1.2-1.9-2.2-4-3.3-5.9c-0.5-0.9-1.1-1.8-1.6-2.7c-0.5,0.9-0.9,1.8-1.4,2.5c-0.6,0.8-1.3,1.6-2.4,1.5c-0.5,0-0.9-0.3-1.4-0.6
		c0.4,1,0.7,2,1.1,3c0,0.1,0.2,0.2,0.2,0.3c0.3,0.4,0.6,0.8,0.8,1.2c0.6,1.2,1,2.5,1.3,3.8c0.4,1.6,1.1,3.1,1.5,4.7
		c0.9,3.4,1.6,6.8,2.4,10.2c0.4,1.7,0.9,3.4,0.9,5.2c0.1,2-0.5,4-1,5.9c0,0.2-0.3,0.4-0.4,0.4c-0.2,0-0.4-0.2-0.5-0.3
		c-0.1-0.2-0.1-0.5,0-0.7c0.1-0.3,0.3-0.5,0.4-0.8c0.2-0.7,0.4-1.4,0.5-2.1c0.1-1.3,0-2.6,0-3.7c-0.5,0.2-0.9,0.4-1.3,0.4
		c-1,0-1.8-0.4-2.3-1.2c-0.9-1.5-1.9-3-2.5-4.7c-0.7-1.7-1.1-3.5-1.6-5.3c-0.3-1-0.3-2,0.3-2.9c0.6-1,1.2-2,1.7-3
		c0.5-0.8,0.3-1.6-0.4-2.3c-0.4,0.4-0.8,0.8-1.2,1.1c-0.7,0.5-1.4,1.1-2.2,1.2c-1.4,0.3-2.8,0-3.9-0.9c-0.8,0.5-1.5,0.9-1.8,1.8
		c-0.4,1.1-0.6,2.2-0.6,3.4c0,1.7,0.1,3.5,0,5.2c-0.2,1.9-0.1,3.6,1,5.2c0.8,1.3,1.2,2.8,2,4c1.1,1.7,2.3,3.3,3.5,4.9
		c1.1,1.5,1.1,3.2,1.2,4.8c0,0.2-0.3,0.5-0.3,0.5c-0.4-0.1-0.7-0.3-1-0.6c-0.1-0.1-0.1-0.3-0.1-0.5c0,0,0.1-0.1,0.1-0.1
		c0.5,0,0.3-0.4,0.3-0.6c0-2-1.1-3.4-2.4-4.7c-0.3-0.3-0.6-0.5-0.8-0.8c-0.6-1.3-1.9-2.3-2.1-3.8c0,0,0-0.1-0.1-0.1
		c-0.6-1.3-1.3-2.7-1.9-4.1c-0.2-0.5-0.3-1.1-0.4-1.6c0-0.9,0-1.9,0.1-2.8c0-0.4-0.1-0.6-0.5-0.6c-0.9-0.1-1.6,0.4-2,1.1
		c-0.8,1.3-1.2,2.6-1.5,4.1c-0.2,1-0.2,2.1-0.8,3.1c-0.2,0.2-0.2,0.6-0.2,0.9c-0.1,1-0.2,2.1-0.3,3.1c0,0.8-0.1,1.7,0.2,2.4
		c0.5,1.2,1.4,2.1,2.4,2.9c1.2,1,2.3,2.1,3.5,3.2c0.4,0.4,0.7,0.9,1,1.4c0.1,0.2-0.1,0.5-0.1,0.7c-0.2-0.1-0.5-0.1-0.6-0.3
		c-0.5-1.2-1.5-1.9-2.4-2.7c-1.1-1.1-2.3-2.1-3.4-3.2c-1.3-1.4-1.6-3-1.3-4.9c0.2-1.1,0-2.2,0-3.3c-0.9,0.3-2,0.5-2.4,1.6
		c-0.4,0.9-0.6,1.9-0.7,2.8c-0.2,2.8-0.4,5.5-0.5,8.3c0,0.6,0.2,1.1,0.7,1.4c1.5,1.1,3.1,1.7,4.9,1.9c0.2,0,0.4,0.1,0.6,0.2
		c1.8,1,3.5,2,5.3,3c2.2,1.2,4.5,2.4,6.8,3.6c0.8,0.4,1.5,0.9,2.3,1.4c1.4,0.9,2.9,1.5,4.1,2.6c2.5,2.2,5.2,4.3,7.2,7.1
		c1.5,2.1,3.3,3.9,4.2,6.4c-0.7,0-1.3,0-2,0c-0.8-1.8-1.4-3.7-2.8-5.2c-1.1-1.2-2.1-2.6-3.2-3.9c-1.5-1.7-3.1-3.3-5.1-4.4
		c-1.4-0.8-2.7-1.6-4.1-2.4c-1.6-0.9-3.2-1.8-4.8-2.7c-1.2-0.7-2.5-1.2-3.7-1.9c-1.2-0.6-2.3-1.3-3.5-1.9c-0.5-0.3-1.2-0.3-1.7-0.5
		c-1-0.4-2-0.8-2.9-1.3c-0.9-0.5-1.9-1.1-2.7-1.8c-0.4-0.3-0.6-1-0.6-1.6c0-1.6,0-3.2,0.1-4.8c0.1-1.2,0.1-2.4,0.3-3.6
		c0.1-0.8,0.4-1.6,0.5-2.4c0.1-0.9,0.4-1.6,1.1-2.1c0.8-0.5,1.7-0.9,2.6-1.3c0.5-0.2,0.7-0.5,0.8-0.9c0.4-1.8,0.7-3.7,1.7-5.4
		c0.7-1.2,0.5-1.7-0.3-2.5c-0.9,0.4-1.8,0.7-2.7,1.1c-1.8,0.8-3.6,1.4-4.9,3c-0.4,0.5-0.8,0.8-1.3,1.3c0.2,0.6,0.5,1.2,0.8,1.9
		c1.2,3.2,1.7,6.4,0.6,9.7c-0.7,2.1-1.7,4.2-2.4,6.3c-0.7,2.1-1.3,4.2-1.8,6.3c-0.3,1.5-0.4,3-0.6,4.5c-0.4,2.2-0.8,4.4-0.7,6.7
		c0,3.2-0.1,6.4-0.1,9.5c-0.3,0-0.6,0-0.9,0c0-2.1-0.1-4.1,0-6.2c0.1-2.4,0.1-4.8,0.3-7.2c0.2-2.1,0.6-4.3,1-6.4
		c0.2-1.3,0.3-2.7,0.7-4c0.8-2.5,1.8-5,2.7-7.5c0.1-0.3,0.1-0.6,0-1c-0.2-0.9-0.8-1.3-1.6-1.7C36,95.6,35.5,95.3,35,95
		c-1.9-1.2-3.1-3-4.1-5c-0.4-0.8-0.3-1.8-0.4-2.6c0-0.2,0.3-0.5,0.4-0.5c0.2,0,0.5,0.2,0.6,0.4c0.1,0.2,0,0.5,0.1,0.7
		c0.2,0.7,0.3,1.4,0.6,2.1c0.2,0.5,0.5,1,0.8,1.4c1,1.4,2.2,2.8,4,3.3c0.6,0.2,1.1,0.4,1.6,0.6c0.9-1.3,0.7-2.9,0.8-4.3
		c0.1-1.5-0.4-3-1.1-4.4c-0.6-1.2-1.1-2.5-1.6-3.8c-0.7-2.1-1.5-4.2-1.5-6.5c0-0.8-0.3-1.5-0.5-2.4c-1,0.5-1.9,0.9-2.7,1.3
		c-0.6,0.3-1.2,0.8-1.5,1.3c-0.7,1.3-1.1,2.6-1.7,4c-0.1,0.2-0.3,0.4-0.4,0.6c0,0-0.4-0.1-0.4-0.2c0-0.2,0-0.5,0.1-0.7
		c0.4-1,1-2,1.3-3.1c0.4-1.2,1.1-1.9,2.1-2.5c0.7-0.4,1.3-0.7,2-1c1.6-0.7,3.1-1.6,4.2-3c0.7-0.9,1-1.8,0.9-2.9
		c-0.1-0.8-0.7-1.6-1.3-1.4c-1,0.3-2.1,0.5-3,1.1c-1.1,0.6-2,1.4-3.4,1.3c-0.2,0-0.5,0.1-0.7,0.2c-0.9,0.5-1.7,1.1-2.6,1.6
		c-0.5,0.3-1,0.6-1.5,0.8c-0.2,0.1-0.5-0.1-0.7-0.2c0.2-0.2,0.3-0.4,0.5-0.6c0.3-0.2,0.7-0.3,1.1-0.5c0.8-0.5,1.5-1.1,2.3-1.5
		c1.4-0.8,1.5-0.8,1.3-2c0-0.2-0.1-0.3-0.1-0.4c-0.4-1.6,0-2.9,1.3-4c1-0.9,1.9-1.9,2.8-2.9c0.8-0.9,1.5-2,2.7-2.4
		c0.4-0.2,0.8-0.4,1.2-0.6c1.6-1,3.2-2.1,4.9-3.1c1.1-0.7,2.3-1.4,3.5-2.1c0.1-0.1,0.2-0.2,0.2-0.3c0-0.7,0.2-1.5-0.2-2.1
		c-1.1,0.6-2.1,1.2-3.2,1.6c-1.2,0.5-2.7,0.3-3.2-1.1c-0.1-0.2-0.2-0.4-0.3-0.6c-1.7,0.8-3.3,1.5-4.8,2.4c-1.1,0.6-2,1.5-2.9,2.2
		c-1.3,1.1-2.7,2.1-4,3.1c-0.6,0.5-1.4,0.7-1.8,1.4c-0.2,0.4-0.6,0.6-0.9,1c-0.5,0.6-0.9,1.3-1.5,1.9c-0.1,0.1-0.4,0.1-0.7,0.2
		c0-0.2,0-0.5,0.1-0.6c0.1-0.2,0.3-0.3,0.5-0.5c0.6-0.8,1.2-1.5,1.5-2.6c-0.5,0-0.9,0-1.2,0c-0.4,0-0.8,0-1.2-0.1
		c-0.1,0-0.3-0.3-0.3-0.5c0-0.1,0.2-0.4,0.3-0.4c0.3-0.1,0.6-0.1,1-0.1c0.3,0,0.7,0.1,1,0c0.2,0,0.4-0.2,0.4-0.4
		c0.2-0.6,0.3-1.2,0.6-1.8c0.5-1.1,1.1-2.1,1.6-3.2c0.6-1.2,1.2-2.3,2.3-3.1c1.9-1.3,3.7-2.9,4.8-5c0.5-1,0.7-1.9,0.3-3.1
		c-0.4,0.4-0.9,0.8-1.2,1.2c-1.2,1.2-2.6,1.7-4.2,1.5c-0.3,0-0.6-0.4-0.9-0.6c-0.2-0.2-0.3-0.4-0.4-0.6c-0.1,0.1-0.2,0.1-0.3,0.2
		c-2.6,2.1-4.6,4.8-6.2,7.7c-0.5,1-1.1,2.1-1.7,3c-1.5,2.4-2,4.8-1,7.6c0.9,2.3,1.6,4.6,2.2,7c0.5,2,1.1,3.9,1,6
		c0,0.8-0.3,1.4-0.8,1.9c-0.4,0.5-0.8,0.9-1.2,1.4c-0.5,0.6-1.2,1.2-1.5,1.9c-0.7,1.7-0.4,3.5,1,5c0.3,0.3,0.6,0.8,0.7,1.2
		c0.1,1.5,0.2,2.9,0.2,4.4c0.2,3.4-0.2,6.8-0.9,10.2c-0.3,1.6-0.3,3.2-0.4,4.8c-0.1,0.8-0.1,1.6-0.2,2.4c-0.3,1.8-0.4,3.7-0.4,5.5
		c0,2.1-0.1,4.1-0.4,6.2c-0.3,2.2-0.8,4.4-1.2,6.6c-0.1,0.5-0.3,0.9,0.1,1.4c0.1,0.1,0,0.3,0,0.5c-0.1,0.3-0.2,0.6-0.2,0.9
		c-0.1,1-0.1,2-0.1,3c-0.4,0-0.7,0-1.1,0c0-0.3,0.1-0.7,0.1-1c0-1-0.2-2.1-0.1-3.1c0.3-2.5,0.8-4.9,1.2-7.4c0.3-1.7,0.6-3.4,0.7-5.2
		c0.1-2.1,0-4.1,0.1-6.2c0-0.6-0.2-1.3,0-1.7c0.4-0.7,0.5-1.4,0.5-2.2c0.1-1.1,0-2.2,0-3.2c-0.5,0.6-1.1,1.2-1.7,1.9
		c-0.6,0.6-1.1,1.2-1.7,1.8c-1.5,1.3-3.1,2.6-3.9,4.5c-0.1,0.3-0.4,0.6-0.6,0.8c-1.8,1.9-3.1,4.2-4.2,6.5c-1.5,3.2-2.7,6.5-4,9.7
		c-0.6,1.6-1,3.2-1.5,4.9C0.7,129.7,0.4,129.7,0,129.7z M65.8,49.2C65.8,49.1,65.8,49.1,65.8,49.2c-0.8,0-1.6,0.1-2.4,0.2
		c-2.7,0.6-4.7,2.2-6.4,4.3c-0.3,0.4-0.3,0.9-0.6,1.4c-0.1,0.2-0.3,0.3-0.5,0.5c-0.2-0.2-0.5-0.4-0.5-0.6c-0.1-0.2,0.1-0.5,0.2-0.7
		c0.5-0.7,1-1.4,1.5-2.1c1.4-1.6,3-2.7,5-3.3c2.2-0.6,4.6-0.8,6.9-0.8c0.2,0,0.5,0.1,0.7,0.2c1.2,0.6,2.4,1.3,3.7,2
		c-2.2,2.7-5,4.9-6.6,8c0.2,0.2,0.4,0.5,0.6,0.9c1,1.8,2,3.7,3,5.5c0.4,0.8,1.1,1.4,1.4,2.2c1.4,3.2,3.2,6.1,4.3,9.5
		c0.8,2.5,1.6,5,2.5,7.5c0.5,1.5,1,3,1.6,4.4c0.3,0.9,0.7,1.9,1.1,2.8c0.1,0.3,0.3,0.6,0.6,0.8c1.1,0.9,2.4,0.7,3.8,0.8
		c-0.8-1.4-1.5-2.6-2.2-3.8c-0.8-1.3-1.6-2.5-2.3-3.8c-0.5-0.8-0.9-1.7-1.2-2.6c-0.6-1.5-1.2-3-1.5-4.5c-0.3-1.8,0.9-3,2.1-4.1
		c0.7-0.6,1.6-0.4,2.2,0.3c0.4,0.4,0.9,0.7,1.4,0.3c1.1-0.9,2.3-1.6,3.1-2.8c0.6-0.9,1.4-1.7,2.2-2.4c0.5-0.5,1.3-0.9,2-0.5
		c0.6,0.3,1.1,0.2,1.5-0.3c0.5-0.5,1.1-0.8,1.9-0.5c1.4,0.6,2.8,1.1,4.1,1.8c0.2,0.1,0.5,0.6,0.4,0.9c-0.2,1.2-0.4,2.5-0.8,3.7
		c-0.8,2.7-3,3.9-5.4,4.9c-1.3,0.5-2.6,0.8-4.1,1.3c0.6,0.4,1.1,1,1.7,1.2c1.9,0.8,3.3,2.2,3.9,4.1c0.5,1.3,0.8,2.6,1.2,4
		c0.6-0.4,1.2-0.8,1.7-1.3c1.1-1,2.5-1.6,3.4-2.9c0.9-1.2,1.6-2.4,1.5-4c-0.1-1.6,0-3.1,0-4.7c-0.1-2-0.1-4.1-0.3-6.1
		c-0.3-2.2-0.7-4.4-1.2-6.6c-0.3-1.5-0.7-3-1-4.5c-0.5-2.4-0.8-4.9-1.3-7.3c-0.5-2.5-1.3-4.9-2.2-7.3c-0.8-2.2-1.2-4.4-2-6.6
		c-0.9-2.7-2.1-5.3-3.2-7.9c-0.4-1-0.6-1-1.5-0.5c-2.8,1.7-4.3,4.5-5.8,7.3c-0.1,0.2-0.4,0.3-0.6,0.4c-0.1-0.3-0.4-0.5-0.4-0.8
		c0-0.3,0.3-0.7,0.5-1c0.2-0.4,0.5-0.8,0.8-1.2c0.8-1.1,1.4-2.3,2.3-3.3c1.1-1.1,2.5-2.1,3.9-3.2c-0.3-0.6-0.7-1.5-1.2-2.3
		c-1.4-2-2.8-4-4.4-5.9c-2.1-2.6-4.3-5-6.3-7.6c-1.1-1.3-2.3-2-4.1-1.5c-1.5,0.5-3,0.8-4.6,1.1c-1.6,0.4-3,1.1-3.8,2.7
		c-0.4,0.8-1,1.6-1.4,2.5c-0.3,0.7-0.9,1.1-1.6,1.2c-0.7,0.1-1.4,0.1-2.1,0c-1.8-0.3-3.7-0.6-5.5,0.1c-1,0.4-1.9,0.8-2.9,1.1
		c-1.4,0.4-2.6,1.1-3.7,1.9c-1.3,1-2.5,2-3.9,3c-1.7,1.3-3,2.8-4,4.7c-0.1,0.1-0.1,0.3-0.1,0.4c-0.2,0.4-0.3,0.9-0.5,1.3
		c-0.3,0.5-0.7,1-0.9,1.6c-0.5,1.5-1.1,3.1-1.2,4.8c-0.1,2.4,0.3,4.8,1.1,7c0.4,1.2,0.9,2.4,1.3,3.5c1.1-0.3,2.2-0.7,3.3-0.9
		c0.8-0.1,1.7-0.3,2.3,0.3c0.4,0.4,0.7,0.3,1.1,0c0.4-0.3,0.8-0.6,1.3-0.7c1.3-0.5,2.6-0.9,4-1.3c1.2-0.3,2.4-0.7,3.6-0.9
		c0.7-0.1,1.4,0,1.9,0.6c0.9,1.2,1,3.2-0.1,4.3c-1.3,1.5-3,2.3-4.7,3.1c-1.9,0.9-3.8,1.8-5.7,2.8c-1.7,1-3.4,2.2-5.1,3.2
		c-0.5,0.3-0.7,0.6-0.6,1.2c0.3,1.4,0.7,2.7,0.9,4.1c0.1,1,0.1,2,0.1,3c0,0.2-0.3,0.6-0.4,0.6c-0.5-0.1-1.1,0.3-1.4-0.3
		c-0.5-1.3-1.7-1.8-2.7-2.5c-0.2-0.1-0.5-0.2-0.7-0.1c-0.3,0.1-0.5,0.3-0.8,0.5c-0.1,0.7-0.1,0.7,0.4,1.2c0.7,0.6,1.1,1.3,1.3,2.1
		c0.2,0.8,0.2,1.6-0.4,2.3c-1.1,1.2-2.1,2.4-3.3,3.7c0.2,0.5,0.5,1.3,0.9,2c1,1.5,2.4,2.4,4.3,2.2c1-0.1,2-0.5,3.1-0.8
		c0.6-0.1,1.2-0.3,1.7-0.3c0.8-0.1,0.8-0.1,0.8-0.9c0-0.9-0.2-1.2-0.9-1.2c-0.6,0-1.2,0.1-1.8,0.2c-1.3,0.3-2.6-0.2-3.3-1.3
		c0.5-0.8,0.5-0.8,1.2-0.3c0.6,0.4,1.2,0.5,1.9,0.4c0.7-0.2,1.5-0.2,2.3-0.2c0.8,0,1.3,0.4,1.5,1.1c0.1,0.7,0.1,1.5,0.1,2.3
		c0,0.2-0.1,0.4,0,0.5c0.5,0.8,1,1.5,1.5,2.2c0.1,0.1,0.2,0.2,0.3,0.2c0.5,0,1-0.1,1.4-0.2c0.1,0,0.2-0.2,0.3-0.3
		c0.3-0.8,0.5-1.6,0.4-2.4c-0.1-0.6-0.1-1.2-0.1-1.7c0.2-1.7,0.5-3.4,2.2-4.5c0.7-0.4,1.4-0.8,2.1-1.1c1.6-0.9,3.2-1.3,5-1.5
		c0.9-0.1,1.6,0.2,2.1,1c0.2,0.3,0.4,0.7,0.7,1.1c-0.1-1.4-0.5-2.5-1.1-3.5c-0.5-0.8-1.1-1.5-1.4-2.3c-0.6-1.4-0.9-2.9-1.4-4.4
		c-0.2-0.5-0.3-1.1-0.7-1.5c-0.9-0.8-1.2-2.2-0.6-3.3c0.2-0.4,0.5-0.7,0.8-1.1c1.3-1.7,2.8-3.2,4.8-4.2
		C64.5,49.8,65.2,49.5,65.8,49.2z M47.8,47.9c0.1,1,0.1,1.8,0.2,2.6c0.1,0.6-0.2,1-0.6,1.2c-1.2,0.7-2.4,1.4-3.5,2.1
		c-1,0.6-2,1.3-3,1.9c-1,0.6-2,1.4-3,1.9c-0.7,0.3-1.3,0.7-1.8,1.3c-1.3,1.7-2.6,3.2-4.2,4.6c-0.3,0.2-0.6,0.7-0.6,1
		c0,1.1,0.2,2.2,0.3,3.5c0.7-0.3,1.4-0.4,1.8-0.8c0.7-0.6,1.5-1,2.4-1.2c0.3-0.1,0.5-0.2,0.8-0.3c0.1-0.1,0.3-0.2,0.3-0.3
		c0.1-0.6,0.2-1.2,0.3-1.7c0.1-1.7,0.9-3,2.2-4c1.4-1,2.9-1.8,4.4-2.8c2.6-1.7,5.1-3.3,7.9-4.6c1.8-0.8,3.6-1.8,5.3-2.7
		c1-0.5,1.7-1.4,1.8-2.6c0-0.4-0.1-0.9-0.2-1.3c-0.1,0-0.1,0-0.2,0C57.8,47.3,56.8,48,55,48c-0.4,0-0.9,0.1-1.3,0
		c-1.1-0.2-2.4,0-3-1.4C49.6,47,48.6,47.5,47.8,47.9z M67.7,86.7c0-0.1-0.1-0.4-0.2-0.6c-0.3-1.1-0.5-2.2-0.8-3.3
		c-0.8-3.3-1.5-6.6-2.3-9.9c-0.1-0.3-0.4-0.5-0.7-0.8c-0.2,0.2-0.5,0.5-0.7,0.7c-0.4,0.7-0.8,1.4-1.1,2.1c-0.3,0.6-0.7,1.3-0.7,1.9
		c0.1,2.3,0.9,4.5,1.8,6.7c0.4,1.1,1.1,2.1,1.6,3.1c0.4,0.7,0.8,1.4,1.6,1.8c0.5,0.3,1.1,0.2,1.2-0.2C67.6,87.7,67.6,87.2,67.7,86.7
		z M98.9,70.7c-0.7,0.3-1.3,0.4-1.8,0.7c-1.7,1-3.2,2.2-4.9,3.2c-1.5,0.9-3.2,1.6-5,1.8c-0.1,0-0.4,0.1-0.4,0.2
		c0,0.2,0.1,0.4,0.2,0.5c0.4,0.5,0.8,0.9,1.2,1.3c0.5,0.5,1,0.9,1.9,0.6c0.7-0.3,1.5-0.5,2.2-0.7c1.4-0.2,2.5-1.2,3.7-1.8
		c0.4-0.2,0.6-0.5,0.9-0.8C98.1,74.3,98.6,72.6,98.9,70.7z M65.3,57.6c-0.6-0.9-1.4-1.6-2.7-1.4c-0.3,0.1-0.7,0-1.1,0
		c-1.2,0-2,1.2-1.6,2.4c0.3,0.8,0.6,1.6,0.8,2.1c0.5,0.2,0.8,0.4,1.1,0.6c0.3,0.1,0.8,0.4,1,0.3c1.2-0.6,2-1.7,2.3-3.1
		C65.2,58.2,65.2,57.9,65.3,57.6z M86.3,77.5c-0.4-0.4-0.8-0.7-1.2-1c-0.8-0.6-1.7-1.2-2.6-1.8c-1.3-0.9-1.5-0.8-2.4,0.5
		c-0.5,0.8-1,1.6-0.8,2.6c0.3,0.1,0.6,0.2,0.8,0.4c0.7,0.8,1.5,0.9,2.5,0.9c1,0,1.9-0.1,2.6-0.8C85.6,78,85.9,77.8,86.3,77.5z
		 M98.2,69.6c-1.1-0.5-2-0.9-2.9-1.3c-1-0.5-1.2-0.4-2,0.4c-0.5,0.5-1.1,0.7-1.7,0.4c-0.8-0.4-1.3-0.1-1.8,0.4
		c-0.8,0.8-1.5,1.6-2.2,2.5c-0.6,0.7-1.1,1.5-2,1.9c-0.4,0.2-0.8,0.6-1.2,1c0.3,0.2,0.5,0.4,0.8,0.6c1-0.8,2-1.4,2.9-2.3
		c2-1.9,4.4-3.1,7.2-3.5C96.2,69.6,97.1,69.6,98.2,69.6z M38,83.5c0.1,0,0.2,0.1,0.2,0.1c2.2-2.9,5.4-4,8.7-5.2
		c-0.6-0.5-1.2-0.4-1.8-0.2c-1.2,0.3-2.4,0.6-3.6,0.9c-1,0.2-1.9,0.2-2.8-0.2c-0.7-0.4-1.5-0.8-2.3-1.3C36.9,79.5,37.4,81.5,38,83.5
		z M87.2,75.8c1.2-0.4,2.6-0.6,3.7-1.2c2.1-1.1,4.1-2.5,6.1-3.8c0.1-0.1,0.3-0.2,0.4-0.4c-0.2-0.1-0.4-0.2-0.6-0.2
		c-1,0.2-2.1,0.3-3.1,0.6c-0.9,0.2-1.7,0.6-2.5,1c-0.7,0.4-1.3,0.9-2,1.3c-0.8,0.6-1.6,1.2-2.4,1.9c-0.1,0.1-0.2,0.4-0.2,0.5
		C86.7,75.6,86.9,75.7,87.2,75.8z M34.9,38.5c-0.6-0.8-0.8-0.8-1.5-0.4c-0.1,0.1-0.2,0.1-0.3,0.2c-1.5,0.1-2.6,1-3.7,1.9
		c-0.1,0.1-0.2,0.5-0.1,0.7c0.1,0.5,1,0.8,1.6,0.6c0.9-0.3,1.9-0.6,2.5-1.4C33.9,39.5,34.4,39,34.9,38.5z M58,45
		c-0.1-0.1-0.1-0.2-0.2-0.3c-0.8,0.2-1.5,0.3-2.3,0.5c-1.1,0.3-2.2,0.5-3.4,0.8c-0.2,0.1-0.3,0.4-0.5,0.6c0.2,0.2,0.4,0.4,0.7,0.5
		c0.6,0.1,1.1,0.2,1.7,0.2c1,0.1,2.1,0.2,2.8-0.7C57.4,46.1,57.7,45.5,58,45z M41.1,48.3c0.6,1.3,0.8,1.6,1.9,1.3
		c1.4-0.3,2.6-1,3.6-1.9c-0.4-0.5-0.8-0.7-1.3-0.5C43.9,47.6,42.5,48,41.1,48.3z M60.9,55.4c1,0,2-0.1,3,0c0.8,0.1,1.3-0.2,1.9-0.6
		c-0.7-0.4-1.7-0.3-2-1.1c-0.3-0.8-0.6-1.1-1.5-0.6c-0.5,0.3-1,0.5-1.2,1C61,54.6,61,55,60.9,55.4z M67.8,53.1
		c0.7-0.5,1.3-0.8,1.9-1.2c0.4-0.3,0.4-0.6,0.1-1c-0.4-0.6-1.9-1.1-2.5-0.8c-0.2,0.1-0.4,0.4-0.5,0.6c0,0.1,0.1,0.4,0.2,0.5
		c0.5,0.1,0.5,0.5,0.6,0.8C67.7,52.3,67.7,52.6,67.8,53.1z M55.9,70.7c2.1,1,3.4,0.6,5-1.5C59.1,69.3,57.5,69.8,55.9,70.7z
		 M69.2,53.5c-0.1-0.1-0.1-0.1-0.2-0.2c-1.2,1-2.4,2-3.7,3.1c0.4,0.4,0.6,0.6,0.9,1C67.2,56.1,68.2,54.8,69.2,53.5z M86.2,95.4
		c0.2-1.1,0-1.6-0.6-1.7c-1-0.1-2-0.2-3.1-0.3C83.6,94.6,85,94.7,86.2,95.4z"/>
	<path class="st0" d="M107.2,107.3c0.7-1.2,1.5-2.4,2.2-3.6c0.5-0.8,0.9-1.6,1.3-2.5c0.4-0.8,0.8-1.6,1.9-1.7c0.4,0,0.8-0.5,1.1-0.9
		c1.2-1.1,2.4-2.2,3.6-3.3c0.3,0.6,0.3,0.7-0.1,1.1c-1.1,1-2.2,2-3.3,3c-1.8,1.6-3.3,3.5-4.4,5.7c-0.5,0.9-0.9,1.8-1.3,2.7
		c-0.9,1.9-0.8,3.9-1,5.9c-0.1,1.5,0,3,0,4.5c0,0.2-0.2,0.3-0.3,0.5c-0.2-0.1-0.4-0.2-0.5-0.4c-0.1-0.1,0-0.2,0-0.3
		c0.1-2.3,0.2-4.5,0.3-6.8c0-1.2,0.3-2.4,0.7-3.5c0.1-0.1-0.1-0.3-0.1-0.5C107.3,107.4,107.2,107.4,107.2,107.3z"/>
	<path class="st0" d="M83.5,44.7c0.9,2,2.2,3.7,3.7,5.4c1,1.1,1.9,2.3,2.8,3.5c0.8,1,1.8,2,2.6,3c0.8,1,1,2.1,0.9,3.3
		c0,0.1,0,0.2,0,0.3c-0.6,1.6-2.8,3.2-4.6,3.3c-1.7,0.1-3.2,0.9-4.5,2c-1,1-3.1,0.8-3.9-0.3c-0.3-0.5-0.7-0.9-1-1.4
		c-0.5-0.9-0.4-1.8-0.1-2.7c0.1-0.2,0.1-0.4,0.3-0.5c0.1-0.2,0.3-0.3,0.5-0.4c0.1,0,0.3,0.2,0.4,0.3c0,0.2,0,0.4-0.1,0.6
		c-0.1,0.4-0.4,0.8-0.4,1.2c-0.2,1.3,0.8,2.1,1.5,2.9c0.4,0.4,1.4,0.2,1.9-0.1c0.9-0.5,1.3-1.3,1.9-2c0.7-0.9,2.8-1.1,3.7-0.4
		c0.1,0.1,0.3,0.2,0.4,0.2c0.8-0.3,1.7-0.4,2.2-1.2c0.1-0.2,0.3-0.4,0.5-0.6c0.9-1.1,1-2.3,0.2-3.5c-0.5-0.7-1.1-1.4-1.6-2.1
		c-1.3-1.5-2.6-3.1-3.8-4.6c-0.7-0.8-1.4-1.5-2-2.3c-1-1.3-1.8-2.6-2.2-4.1c-0.1-0.7,0-1.5,0.1-2.2c0.1-0.5,0.4-0.8,1-0.6
		c0.1-0.4,0.1-0.7,0.2-1c0.1-1.1,0.6-2,1.5-2.8c1.2-1.1,2.4-2.1,4-2.6c0.6-0.2,1.2-0.2,1.7-0.2c0.2,0,0.4,0.2,0.5,0.3
		c-0.2,0.1-0.3,0.4-0.5,0.4c-0.3,0.1-0.7,0-1,0.1c-2.6,0.9-4.7,2.4-5.4,5.3c-0.1,0.6-0.3,1.1-0.4,1.7c0.1,0,0.1,0.1,0.2,0.1
		c0.5-0.7,1-1.4,1.5-2c1.9-2.3,4.3-3.5,7.4-3.1c0.4,0.1,0.6,0.7,0.4,1.2c-0.2,0.5-0.4,1-0.5,1.4c-0.5,1.7-1.6,2.7-3.2,3.3
		c-1.8,0.6-3.7,0.9-5.7,1.1C84.2,44.7,83.9,44.7,83.5,44.7c0-0.9,0.1-1.7,0.1-2.6C83.3,43,83.3,43.9,83.5,44.7z M92.8,38.8
		c-1-0.4-2-0.3-2.8,0.2c-0.2,0.1-0.3,0.5-0.3,0.6c0.8,0.6,0.6,1.4,0.4,2.2c0,0.2,0,0.5,0.2,0.6c0.1,0.1,0.4,0,0.6,0
		C92,41.9,93,40.1,92.8,38.8z"/>
	<path class="st0" d="M63.5,41.4c1-0.1,2.2-0.3,3.3-0.3c0.9,0,1.9,0.1,2.8,0.2c0.4,0.1,0.7,0.4,1,0.6c0.3,0.3,0.5,0.7,0.2,1
		c-0.2,0.2-0.6,0.4-0.9,0.4c-1.1-0.1-2.2-0.3-3.3-0.5c-1.5-0.3-2.9-0.2-4.3,0.3c-0.6,0.2-1.3,0-1.8,0.6c0,0.1-0.5-0.1-0.7-0.3
		c-0.4-0.5-0.2-1.1,0.2-1.3C61,41.6,62.1,41.1,63.5,41.4z"/>
</g>
</svg>
