<?xml version="1.0" encoding="utf-8"?>
<!-- Generator: Adobe Illustrator 19.2.0, SVG Export Plug-In . SVG Version: 6.00 Build 0)  -->
<svg version="1.1" id="Layer_1" xmlns="http://www.w3.org/2000/svg" xmlns:xlink="http://www.w3.org/1999/xlink" x="0px" y="0px"
	 viewBox="0 0 200.1 123" style="enable-background:new 0 0 200.1 123;" xml:space="preserve">
<style type="text/css">
	.st0{fill:#FF5722;}
</style>
<g id="ear-check">
	<path class="st0" d="M178.4,38.6c2.2,0.1,4.4,0,6.6,0.2c1.1,0.1,2.2,0.7,3.2,1.3c2.5,1.5,4.8,3.5,7.4,4.9c1.2,0.6,2.1,1.6,2.9,2.8
		c0.4,0.6,0.6,1,1.6,1.4v-1.7c0-0.2-0.3-0.3-0.4-0.5c-1.5-2.1-3.5-3.4-5.8-4.6c-0.7-0.3-1.3-0.8-1.9-1.3c-1.6-1.3-3.3-2.4-5.2-3.2
		c-0.7-0.3-1.6-0.4-2.3-0.5c-2.3-0.1-4.7-0.1-7-0.2c-0.5,0-1-0.3-1.6-0.4c0.1-0.3,0.2-0.6,0.3-0.8c1-2.7,1.4-5.5,1.1-8.3
		c-0.2-1.9-0.6-3.8-1.4-5.5c-1.2-2.8-2.6-5.6-4-8.3c-0.3-0.6-0.6-1.1-0.9-1.7c-0.5-1-1.1-1.9-1.8-2.9c0,0,0,0,0-0.1
		c-0.4-1.2-0.9-2.4-1.7-3.5c-2.3-3.2-5.9-4.4-9.7-4.8c0,0,0,0,0,0c-9.1-3-18.2,0.4-26,5.4c-0.3,0.2-0.7,0.4-1,0.5
		c-0.6,0.3-1.1,0.8-1.7,1.2c-1.1,0.9-2.4,1.7-3.3,2.7c-1.6,1.9-3.4,3.7-3.4,6.6c0,0.9,0.2,1.6,0.8,2.3c0.1,0.1,0.1,0.6,0,0.8
		c-0.7,0.9-1.3,1.9-1.6,3.2c-0.3,1.3-0.7,2.6-1,3.9c-0.1,0.3-0.1,0.5-0.1,0.8c0,1.1,0,2.3,0,3.4c-0.1,0-0.2,0-0.2-0.1
		c-0.3,0.2-0.7,0.4-1,0.6c-0.3,0.2-0.6,0.4-1,0.4c-1,0.2-1.5,1.1-1,2c0.3,0.6,0.6,1.2,0.9,1.8c0.6,1.5,1.2,3,1.9,4.5
		c0.4,0.9,1,1.8,1.6,2.5c0.3,0.4,0.3,0.7,0.1,0.9c-1.1,1.2-1.2,2.7-1.7,4.1c-0.4,1.1-0.4,2.4-0.6,3.6c-0.5,2.1-0.2,4.2-0.3,6.2
		c-0.1,1.5-0.4,3-0.4,4.6c0.1,2.7,0.3,5.4,0.9,8.1c0.4,1.8,0.3,3.7,0.5,5.6c0,0.1,0,0.2-0.1,0.3c-1.7-4.5-4.2-8.7-6.5-12.8
		c-0.6-1-1.1-2-1.8-2.9c-0.7-0.8-1.6-1.5-2.4-2.3c-0.6-0.6-1.2-1-2.1-1.2c-0.9-0.2-1.3,0-1.8,1c-0.7-0.9-1.5-1.7-2.1-2.6
		c-0.9-1.2-1.9-2.4-2.6-3.7c-0.5-0.9-0.7-2-1-3c-0.4-1.2-0.7-2.4-1-3.6c-0.1-0.6-0.2-1.2-0.2-1.8c-0.1-0.8-0.4-1-1.2-0.7
		c-1.4,0.7-2.8,1.3-4.2,2c-0.1,0.1-0.3,0.2-0.3,0.3c-0.3,1.3-1.5,1.5-2.3,2c-0.8,0.5-1.7,1-2.6,1.4c-0.9,0.4-1.8,0.7-2.7,1
		c0,0.2,0,0.4,0.1,0.7c0.7-0.1,1.4-0.1,2.1-0.2c1.8-0.1,3.5-0.2,5.3-0.3c0.7,0,1.2,0.2,1.6,0.9c0.7,1.3,1.5,2.7,2.2,4
		c0.3,0.5,0.7,0.8,1,1.3c0.2,0.2,0.2,0.5,0.3,0.7c-0.5,0.3-1,0.6-1.4,0.9c-1,0.7-1.1,1.8-1.1,2.8c0,0.4,0.3,0.8,0.5,1.2
		c0.2,0.3,0.5,0.7,0.8,1c0.8,0.9,0.6,1.9,0.4,3c-0.1,0.5-0.1,1-0.1,1.4c0.1,0.7,0.5,1.1,1.1,1.4c0.7,0.3,0.7,0.5,0.3,1.2
		c-0.3,0.6-0.5,1.2-0.6,1.9c-0.2,1.5-0.4,2.9-0.5,4.4c0,0.5,0.2,1.1,0.4,1.6c0.4,0.8,0.9,1.6,1.3,2.5c0.6,1.2,1.4,2,2.6,2.7
		c1.6,0.9,3.1,1.9,4.6,2.9c1.1,0.7,1.8,1.8,2.2,3.1c0.4,1.4,1.1,2.7,1.6,4.1c0.3,1.1,0.5,2.2,0.7,3.3c-0.1,0-0.2,0.1-0.3,0.1
		c-0.5-0.6-1.1-1.2-1.6-1.8c-1.7-2.2-3.3-4.5-5.1-6.6c-1-1.2-2.3-2.2-3.5-3.2c-0.8-0.7-1.7-0.5-2.5-0.1c-0.2,0.1-0.5,0.1-0.7,0
		c-0.5-0.3-0.9-0.6-1.3-1c-1.3-1-2.8-1.3-4.3-1.8c-1.9-0.7-3.8-0.9-5.8-0.8c-0.3,0-0.7,0-0.8,0.2c-0.4,0.5-0.9,0.4-1.3,0.2
		c-1.8-0.9-3.7-1.1-5.6-1.3c-1.3-0.1-2.4-0.5-3.3-1.4c0.1-2.5,1.3-4.7,2.4-6.9c0.8-1.7,1.6-3.5,2.1-5.3c0.5-1.7,0.8-3.5,0.5-5.3
		c-0.1-0.7,0-1.5,0-2.2c0.7-0.3,1.4-0.6,2.1-0.8c0.7-0.2,1-0.7,1.2-1.4c0.8-1.8,0.9-3.6,1.1-5.5c0.2-2.2,0.3-4.4,0.1-6.6
		c-0.1-0.9-0.8-1.8-1.3-2.7c-0.3-0.5-2.2-0.6-2.6,0.1c-0.2,0.3-0.5,0.5-0.9,0.7c0.1-0.6,0.1-1.2,0.3-1.8c0.5-2.4,0.8-4.7-0.1-7.1
		c-0.3-0.9-0.2-2-0.5-2.9c-0.4-1.2-1.1-2.4-1.7-3.6c-0.3-0.5-0.5-1.1-0.7-1.6c-0.3-0.7-0.5-1.5-1-2.1c-1.6-1.8-3.1-3.7-5-5.1
		c-2.2-1.6-4.7-2.7-7.2-3.8c-1.3-0.6-2.8-1-4.3-0.9c-0.8,0-1.5,0.2-2.2,0.4c-1.3,0.3-2.6,0.6-3.9,1c-1.5,0.4-2.9,1-4.4,1.5
		c-0.3,0.1-0.6,0.3-0.9,0.4c-2.6,0.9-4.1,3-5.7,5c-1.9,2.3-3.2,5-4.1,7.9c-0.6,2-0.9,3.9-0.8,6c0.1,1.2-0.2,2.4-0.3,3.6
		c-0.1,2.1,0.6,4,1.4,5.9c0.4,0.9,0.9,1.8,1.3,2.7c0.1,0.2,0.2,0.5,0.3,0.9c-0.6-0.4-1-0.7-1.3-1c-1-0.8-1.8-0.6-2.2,0.7
		C35,51.1,35.1,53,35.3,55c0.2,2,1.2,3.8,2.1,5.5c0.6,1.2,1.5,2.2,2.4,3.2c0.3,0.4,1,0.5,1.5,0.7c0.4,0.1,0.8,0.1,1.3,0.2
		c0.4,2,0.9,4.1,0.8,6.2c0,0.6-0.2,1.2-0.1,1.9c0,1.2,0.2,2.3,0.3,3.5c0,0.2,0,0.5-0.2,0.6c-1.3,1.1-2.6,2.2-3.9,3.3
		c-0.4,0.4-0.9,0.6-1.5,0.4c-0.1-0.1-0.3-0.1-0.5,0c-0.9,0.1-1.7,0-2.5-0.5c-0.8-0.5-1.5-0.3-2.3,0.2c-0.4-0.1-0.9-0.1-1.3,0.1
		C23,83.5,13.9,86.2,8.6,94.1c-4.4,6.7-7.5,15-7.7,23.2c-0.3,0.7-0.5,1.3-0.7,2c-0.1,0.4-0.2,0.8-0.3,1.1c1.1,0.2,2.2,0.3,3.3,0.4
		c8.8,1.1,17.7,1.9,26.7,2c0.6,0,1.3,0.1,1.9,0.1H110c-0.3-1-0.6-2-0.9-3c-0.4-1.4-0.9-2.8-1.2-4.3c-0.2-0.7,0.1-1.6,0.1-2.4
		c1.9,0.2,3.8,0.4,5.7,0.7c0.3,0,0.7,0.3,0.9,0.6c0.8,1.8,2.1,3.3,3.3,4.7c0.4,0.5,0.8,1,1.2,1.4c0.6,0.7,1,1.5,2,1.8
		c0.2,0.1,0.3,0.5,0.5,0.5h4.8c0.6-1,1.1-1.1,1.8-1.8c1,0.5,2.2,0.8,3.4,1.8h3.6c-0.7-1-1.3-0.6-2-0.9c-2.5-1.3-5-2.5-7.5-3.8
		c-0.6-0.3-1.2-0.7-1.8-1.2c-1.7-1.4-3.8-2.2-5.8-3c-2.9-1.3-5.9-1.6-9-2c-0.8-0.1-1.7-0.5-2.4-1c-3-1.9-5.5-4.3-7.6-7.1
		c-0.9-1.3-1.8-2.6-2.8-3.9c-0.7-0.9-1.6-1.7-2.4-2.4c-1.1-1-2.3-1.9-3.4-2.9c-1.2-1.1-2.4-2.2-3.6-3.3c-0.6-0.6-0.9-1.4-0.9-2.2
		c0-0.4,0.3-0.7,0.4-1.1c1.7,1.3,3.2,2.5,4.8,3.6c0.6,0.4,1.2,0.7,1.8,1.1c1.5,1.1,3,2.3,4.5,3.5c0.7,0.5,1.2,1.2,1.9,1.7
		c0.2,0.1,0.5,0.1,0.8,0.1c-0.1-0.3,0-0.6-0.2-0.8c-1.2-1.1-2.4-2.3-3.8-3.3c-2.1-1.5-4.3-2.9-6.4-4.4c-0.7-0.5-1.4-1.1-2.2-1.6
		c0-0.1,0.1-0.1,0.1-0.2c0.5,0.1,1,0.1,1.4,0.2c2.2,0.7,4.2,1.6,6.1,2.9c1,0.7,2.1,1.2,3.2,1.8c0.2,0.1,0.6,0,0.9-0.1
		c-0.1-0.3-0.2-0.6-0.5-0.7c-1.7-1-3.3-2.1-5.1-3c-2-1.1-4.1-2.1-6.4-2.1c-0.3,0-0.5,0-0.8-0.2c-1.2-0.7-2.4-1.4-3.6-2.1
		c-0.3-0.2-0.7-0.3-0.9-0.4c0.4-0.4,0.9-0.8,1.5-1.2c0.2-0.1,0.4-0.3,0.6-0.2c0.9,0.2,1.8,0.3,2.7,0.7c1.9,0.7,3.8,1.2,5.6,2.2
		c2.2,1.2,4.1,2.7,6.2,4.1c0.5,0.3,0.9,0.7,1.4,0.9c0.2,0.1,0.5-0.1,0.7-0.1c-0.1-0.2-0.1-0.6-0.2-0.7c-1.8-1.3-3.7-2.4-5.5-3.8
		c-1.5-1.1-3.1-1.9-4.8-2.5c-1.7-0.6-3.4-1.1-5.1-1.7c1.7-0.1,3.3,0.2,5,0.6c2.8,0.6,5,2.1,7.1,3.7c1.2,0.9,2.5,1.8,3.7,2.7
		c0.2,0.1,0.5,0,0.7,0c-0.1-0.3,0-0.7-0.2-0.8c-0.8-0.6-1.7-1.1-2.5-1.7c-0.5-0.3-0.9-0.7-1.4-1.1c1-0.5,1.3-0.5,2,0.1
		c3,2.4,5.3,5.4,7.5,8.6c2.2,3.1,4.8,5.8,8.1,7.7c1.3,0.7,2.9,1,4.3,1.5c2.4,0.8,4.7,1.7,7.1,2.5c1.4,0.5,2.9,1.1,4.4,1.2
		c1.5,0.2,2.9,0.5,4.3,1.1c0.5,0.2,1,0.7,1.5,0.9c2.7,1.4,5.6,2.1,8.5,2.8c2.4,0.5,4.9,0.8,7.3,1.3c4.1,1,8.2,2.1,12.4,3.1
		c0.7,0.2,1.4,0.3,1.9-0.5c0.3-0.6,1.1-0.9,1.6-1.3c1.1-0.9,1.9-2,2.3-3.3c0.2-0.7,0.7-1.3,1-1.9c0.7-1.1,1.4-2.2,2.1-3.4
		c1.1,1.3,2.7,1.4,4.2,1.8c0.3,0.1,0.7,0.2,1,0.4c2,1.4,4.5,1.9,6.8,2.6c1.7,0.5,3.4,0.9,5.2,0.7c0.2,0,0.4,0,0.8,0.1
		c-0.3,0.4-0.4,0.7-0.6,0.9c-1.3,1.3-2.3,2.9-3,4.6c-0.9,2-1.9,3.7-2.9,5.7h1.6c0.3-1,0.6-1.2,0.9-1.8c0.6-1.2,1.2-2.4,1.8-3.7
		c0.6-1.4,1.4-2.7,2.5-3.8c0.4-0.5,0.7-1.1,1.1-1.7c0.3,0,0.9,0.2,1.4,0.2c1.8,0,3.5-0.4,5.1-1.2c0.1-0.1,0.3-0.1,0.3-0.1v-1.4
		c-1,0.3-1.9,0.7-2.9,1c-1.6,0.5-3.1,0.3-4.7,0.1c-0.3,0-0.5-0.1-0.8-0.1c-2.4,0.2-4.5-0.5-6.8-1.1c-2-0.5-3.8-1.3-5.6-2.3
		c-0.9-0.5-1.9-0.6-2.8-0.9c-0.5-0.2-1-0.5-1.5-0.8c0.6-1.4,1-2.8,1.6-4c1.2-2.4,2.4-4.8,3.7-7.2c0.9-1.8,1.8-3.6,2.2-5.6
		c0.5-2.4,1.7-4.6,3-6.7c1-1.6,1.7-3.3,1.4-5.3c0-0.3-0.3-0.5-0.5-0.7c-0.2,0.2-0.6,0.4-0.6,0.6c-0.2,0.7-0.2,1.4-0.3,2.1
		c-0.1,0.6-0.4,1.2-0.6,1.8c-0.1,0-0.2,0-0.2,0c-0.1-0.3-0.2-0.6-0.2-0.8c0.1-1,0.2-2.1,0.3-3.1c0.3-2.9,1.4-5.6,2.9-8.1
		c0.3-0.5,0.8-0.9,1.2-1.3c0.1-0.2,0.2-0.4,0.3-0.6c-0.2-0.1-0.5-0.3-0.7-0.2c-0.5,0.3-1.1,0.6-1.4,1c-1.8,2.7-3.2,5.5-3.5,8.7
		c-0.1,1.3-0.3,2.5-0.4,3.8c0,0.4-0.1,0.8,0.1,1.1c0.5,1,0.2,1.9-0.2,2.8c-0.7,1.4-1.4,2.9-1.7,4.4c-0.5,2.9-2.1,5.3-3.4,7.8
		c-1,2.1-2,4.1-3,6.2c-0.2,0.5-0.3,1.1-0.6,1.5c-0.8,1.3-1.7,2.6-2.6,4c-0.4,0.7-0.8,1.4-1.1,2.2c-0.7,1.5-1.7,2.7-2.8,3.8
		c-0.7,0.7-1.3,1.3-2.2,1.8c-0.2,0.1-0.4,0.1-0.6,0.1c-2.3-0.6-4.5-1.2-6.7-1.8c-1.1-0.3-2.3-0.3-3.4-0.6c-0.8-0.2-1.5-0.6-2.3-0.7
		c-1.6-0.3-3.2-0.4-4.8-0.8c-2.8-0.6-5.6-1.3-8.3-2c-0.7-0.2-1.4-0.6-2.1-1c-0.1-0.1-0.3-0.3-0.3-0.5c0.1-1.7,0.3-3.4,0.4-5.1
		c0.1-1.8,0.3-3.6,0.4-5.4c0.1-1.6,0.3-3.2,0.4-4.9c0.1-0.9,0-1.7,0-2.7c1.4,0.7,2.7,1.4,4.1,1.9c1.9,0.7,3.4,2,4.8,3.4
		c1.6,1.6,3.3,3.1,4.8,4.8c1.1,1.2,2.1,2.5,3,3.8c1.2,1.7,2.8,2.8,4.7,3.5c0.2,0.1,0.7,0,0.8-0.2c0.3-0.4,0-0.7-0.4-0.9
		c-0.8-0.5-1.8-0.8-2.5-1.4c-1-0.9-1.8-1.9-2.6-2.9c-1.3-1.7-2.7-3.4-4.4-4.8c-0.1-0.1-0.2-0.2-0.2-0.5c2.1,1,4.2,2.1,6.3,2.9
		c2.7,1.1,5.5,2,8.4,2.4c1,0.1,1.8,0.1,2.7-0.3c0.5-0.2,0.6-0.3,0.4-1c-1.3,0.8-2.6,0.3-3.8-0.3c-0.2-0.1-0.3-0.6-0.3-0.9
		c0.1-1.8,0.3-3.5,0.2-5.3c-0.1-1.9,0.1-3.8-0.7-5.6c-0.2-0.5-0.5-1.1-0.8-1.5c-1-1.7-2.1-3.4-3.1-5.1c-0.1-0.2-0.2-0.5-0.3-0.8
		c0-0.2,0-0.3,0-0.5c-0.4-1.9,0.6-3.3,1.8-4.6c2.2-2.5,4.5-4.9,6.5-7.5c0.8-1,1.2-2.4,1.8-3.7c1-2.1,1.5-4.3,1.9-6.5
		c0.2-1.2,0.1-2.6-0.1-3.9c-0.2-1.7-0.6-3.4-1-5c-0.2-0.8-0.5-1.5-0.8-2.2c2.4-2.6,3.8-5.9,5.7-8.7
		C176.4,38.5,177.4,38.6,178.4,38.6z M79.2,44.4c0.3-0.4,0.6-0.8,1-1.1c0.6-0.6,1.2-0.5,1.6,0.2c0.7,1.1,1,2.2,0.8,3.6
		c-0.1,0.5,0,1.1,0,1.7c0,1.1-0.1,2.1-0.2,3.2c-0.1,0.9-0.1,1.9-0.3,2.8c-0.2,0.9-0.4,1.7-0.9,2.5c-0.3,0.5-1,0.7-1.5,1.1
		c-0.3-0.6-0.6-1-0.8-1.5c-0.2-0.4-0.2-0.9,0.4-1.1c0.6-0.2,0.8-0.7,1-1.3c0.1-0.3,0.2-0.7,0.4-1c1.2-1.4,1.2-3,1-4.6
		c-0.1-0.6-0.2-1.1-0.3-1.7c-0.1-0.9-0.7-1.5-1.5-1.5c-0.2,0-0.4,0.2-0.6,0.3c0.1,0.2,0.2,0.5,0.4,0.5c0.5,0.1,0.7,0.5,0.8,0.9
		c0.2,1,0.3,2.1,0.3,3.1c0,0.6-0.3,1.3-0.5,1.9c-0.1,0-0.2,0-0.3,0c-0.4-1.1-1.3-2-0.9-3.3c0.1-0.4-0.3-1-0.6-1.4
		C77.9,46.4,78.3,45.4,79.2,44.4z M41.8,61.8c-0.1,0.5,0,1,0,1.5c-1.1,0.2-1.6-0.6-2.2-1.3c-1.5-1.6-2.4-3.6-3-5.6
		c-0.6-2.1-0.9-4.3-0.3-6.6c0.3-1,0.4-1,1.2-0.4c0.6,0.4,1.2,0.8,1.8,1.2c0.5,0.3,0.9,1.9,0.7,2.5c-0.1,0.3-0.1,0.6-0.1,0.8
		c-0.3,0.2-0.6,0.3-0.8,0.4c0.1,0.2,0.2,0.4,0.4,0.6c0.4,0.4,0.3,0.9,0.2,1.3c-0.1,0.6-0.3,1.2-0.3,1.9c-0.1,1,0.5,1.6,1.3,1.9
		C41.6,60.3,42,60.9,41.8,61.8z M40.8,56.2c0.2,1,0.4,2,0.6,2.9C40.2,59,40.1,58.4,40.8,56.2z M42.9,62.9c-0.1,0-0.1-0.3-0.1-0.4
		c0-0.4,0-0.9,0-1.3c0.1-0.9-0.1-1.7-0.5-2.5C42,58,42,57.1,41.8,56.4c-0.2-0.9-0.7-1.9-0.6-2.8c0.1-2-0.6-4-0.3-6
		c0.1-0.4,0.1-0.9,0.4-1.2c0.8-1.3,1.1-2.7,1.3-4.3c0.3-1.8,0.7-3.6,1.2-5.4c0.2-0.6,0.8-1.3,1.4-1.7c1.3-0.9,2.7-1.6,4.1-2.3
		c0.4-0.2,1-0.3,1.5-0.4c1-0.1,2.1-0.3,3.1-0.3c0.9,0,1.7,0.3,2.6,0.5c1.3,0.3,2.7,0.7,4.1,0.3c2-0.5,4-1,6-1.4
		c0.9-0.2,1.8-0.1,2.7-0.2c0.1,0,0.3,0,0.4,0.1c1.3,0.9,2.6,1.8,3.3,3.3c0.2,0.4,0.5,0.7,0.8,1c1,0.9,1.8,1.9,1.9,3.4
		c0,0.8,0.4,1.6,0.6,2.3c0.1,0.5,0.1,1,0.2,1.5c0,0.2,0,0.4,0.1,0.5c1.2,1.5,0.7,3.4,1.6,5c0.1,0.1,0.1,0.2,0.1,0.4
		c-0.2,1.2,0.2,2.2,0.7,3.2c0.3,0.6,0.3,1.3,0.4,1.9c0,0.2-0.2,0.5-0.4,0.7c-1,0.6-1.3,1.8-0.7,2.8c0.2,0.3,0.1,0.6,0.1,1
		c0,0.3-0.1,0.6-0.1,0.8c0,1.1,0,2.2,0,3.3c-0.1,1.4-0.2,2.8-0.5,4.1c-0.2,0.8-0.7,1.4-1,2.2c-0.7,1.7-1.4,3.5-2.2,5.3
		c-0.6,1.4-1.4,2.7-2.7,3.7c-1.4,1-2.6,2.2-4.3,2.6c-1,0.2-1.9,0.5-2.9,0.6c-0.9,0.1-1.9,0.2-2.5,0.2c-2.1-0.1-3.9,0.1-5.5-0.7
		c-0.5-0.2-0.9-0.5-1.4-0.8c-2.8-1.7-5.7-3.2-7.8-5.9c-0.7-0.9-1.6-1.6-2-2.7c-0.8-2.1-1.2-4.3-1.7-6.5
		C43.5,64.1,43.6,63.3,42.9,62.9z M72.9,79.5c-0.2,2.3-0.3,4.6-0.5,6.9c-0.1,1.1,0,2.2-0.2,3.3c-0.1,0.6-0.6,1.2-1,1.7
		c-2.1,2.1-4.3,4-7.5,4.3c-1.4,0.1-2.8,0.1-4.3-0.3c-1.6-0.5-3.4-0.7-5-1.1c-0.8-0.2-1.6-0.6-2.4-0.9c-0.9-0.3-1.8-0.5-2.7-1
		c-1.5-0.8-2.9-1.7-4.3-2.7c-1-0.7-1.8-1.7-2.8-2.6c-0.3-0.3-0.7-0.6-1.1-1c-1.3-1.3-2.6-2.5-3.8-3.8c-0.1-0.1-0.1-0.2-0.2-0.4
		c2.6-0.7,4.2-2.7,6.1-4.3c0.1,0,0.1,0.1,0.2,0.1c-0.1,0.4-0.2,0.8-0.4,1.1C42.7,80,42.6,81,43,81.9c0.1,0.2,0.4,0.3,0.6,0.5
		c0.1-0.2,0.3-0.5,0.2-0.7c-0.2-1-0.1-1.9,0.3-2.8c0.6-1.6,0.5-3.2,0.3-4.8c-0.1-0.8,0-1.7,0-2.7c0.2,0.3,0.2,0.5,0.3,0.6
		c0.5,0.7,0.9,1.4,1.5,2.1c0.9,1,1.8,2,2.7,2.9c1.7,1.6,3.9,2.6,5.9,3.8c1,0.6,2.1,1.2,3.2,1.4c3,0.4,6,0.4,9.1-0.4
		c2.3-0.5,4-1.8,5.6-3.2c0.1-0.1,0.2-0.1,0.3-0.2c0,0,0,0,0.2,0C73,78.7,72.9,79.1,72.9,79.5z M125.9,120.2c-0.2,1.1-0.9,2-2.1,2.2
		c-0.3,0.1-0.7,0-1-0.2c-0.9-0.8-1.7-1.6-2.5-2.4c-0.8-0.7-1.6-1.4-2.3-2.2c-0.3-0.3-0.5-0.8-0.8-1.2c-0.2-0.3-0.4-0.7-0.7-1.2
		C120.2,116,122.9,118.2,125.9,120.2z M85,87c0.4,0.2,0.7,0.4,0.9,0.5c-0.3,0.7-0.6,1.4-1,2.2c-0.8-0.5-1.6-1.1-2.3-1.6
		C83.6,88.1,84.5,88.1,85,87z M84.3,86.5c-0.4,0.7-0.9,0.7-1.5,0.3c-0.6-0.4-1.2-0.7-1.8-1.1c0-0.1,0.1-0.2,0.1-0.3
		C82.5,84.6,83.2,86.3,84.3,86.5z M81.6,83.1c-0.3-0.1-0.7-0.1-1-0.2c-0.2-0.1-0.6-0.2-0.6-0.3c0-0.3,0.1-0.6,0.3-0.8
		c0.1-0.1,0.4-0.1,0.6,0c0.7,0.3,1.3,0.6,2,0.9C82.5,83.1,82.2,83.3,81.6,83.1z M153.5,50.7c0.4,1,0.8,2.1,0.2,3.2
		c-0.5,1-0.8,2-1.7,2.8c-2.3,2-4.6,4-7.5,5.3c-1.5,0.7-3.2,1.1-4.9,1.5c-1.5,0.4-3.1,0.9-4.7,1.1c-1.9,0.3-3.8,0.3-5.4-1.3
		c-0.5-0.5-0.8-1.8-0.5-2.5c0.4-0.9,0.2-1.3-0.6-1.8c-0.4-0.2-0.8-0.5-1.1-0.8c-0.1-0.1-0.1-0.4-0.2-0.5c0.2-0.1,0.4-0.2,0.6-0.2
		c1.1,0.1,2.1,0.3,3.2,0.5c0.4,0.1,1.1,0.4,1.2-0.4c0.1-0.8-0.6-0.6-1.1-0.7c-2.2-0.2-3.3-0.2-5.3-1.5c0.1-0.8,0.1-1.6,0.2-2.4
		c0.5,0.1,1.1,0.3,1.6,0.4c1.6,0.3,2.2-0.1,2.4-1.8c0.6,0.1,1.2,0.2,1.8,0.3c0.9,0.2,1.6-0.3,1.5-1.3c-0.1-0.8-0.1-1.5-0.3-2.3
		c-0.1-0.5,0.1-0.7,0.5-0.8c1.7-0.5,3.4-1.1,5.1-1.6c1.9-0.5,3.8-0.9,5.7-1.5c0.8-0.2,1.6-0.7,2.4-1.1c0.5-0.3,0.8-0.2,1.3,0
		c1.4,0.8,2.9,1.3,4.5,1.1c1.3-0.2,2-0.8,2.5-2.3c0.9-2.8,4.6-4.3,6.8-2.5c0.9,0.7,1.5,1.6,1.6,2.9c0.1,1.8-0.4,3.5-1.2,5
		c-0.4,0.7-1.2,1.2-1.8,1.7c-1,0.7-2,1.4-3.1,2.1c-0.9,0.5-1.7,0.3-2.2-0.3c-0.2-1.1-0.4-2-0.6-2.9C153.4,48.5,153,49.5,153.5,50.7z
		 M146,62.9c0.6,0.4,1.3,0.8,1.9,1.1c1.5,0.6,1.8,2.1,2.6,3.3c1.3,2,2.6,4.1,4.1,5.9c1.2,1.5,2.7,2.7,4.1,4.1
		c-0.2,0.4-0.3,0.8-0.4,1.1c-0.5-0.5-1.1-1-1.7-1.5c-0.3-0.3-0.6-0.7-0.9-1c-0.6-0.5-1.2-1.1-1.9-1.5c-0.8-0.4-1.7-0.6-2.6-0.9
		c-1.3-0.4-2.4-1.2-3-2.5c-0.8-1.7-1.5-3.4-2.1-5.1c-0.3-0.9-0.2-1.8-0.3-2.7C145.9,63,145.9,63,146,62.9z M132,50.4
		c0,0.1,0,0.2,0,0.4c-2,0.1-3.3-0.9-4.4-2.3c-1.2-1.5-2.2-3.1-2.7-5c2,0.6,3.8,1.7,5.6,2.8c0.2,0.1,0.3,0.3,0.4,0.5
		C131.2,48,131.6,49.2,132,50.4z M131.4,45.3c0.8,0.1,1.4,0.3,2,0.4c0,0,0,0.1,0,0.1c-0.4,0.1-0.7,0.3-1.1,0.4
		C132.1,45.9,131.8,45.6,131.4,45.3z M121.7,32.1c0.1-1.8-0.2-3.7,0.5-5.5c0.3-0.9,0.4-1.9,0.8-2.8c0.4-1,0.9-1.9,1.4-2.9
		c0.3,0.3,0.5,0.4,0.7,0.6c2.8,2.3,5.9,3.8,9.5,4.7c0.5,0.1,0.7,0.3,0.9,0.8c0.5,1.7,1.1,3.4,2.2,4.9c1,1.4,1.6,3.1,2.4,4.7
		c1.1,2.2,2.7,3.9,4.8,5.2c0.1,0.1,0.2,0.2,0.4,0.3c-0.3,0.1-0.4,0.2-0.7,0.3c-2.7,0.9-5.4,1.8-8.1,2.6c-0.2,0.1-0.5,0-0.7,0
		c-0.9-0.2-1.9-0.4-2.8-0.6c-1-0.2-1.9-0.7-2.7-1.7c1.2,0.2,2.3,0.4,3.3,0.6c0.9,0.2,1.5,0,2-0.7c0.3-0.4,0.2-0.7-0.3-0.9
		c-1.2-0.6-2.6-0.6-3.9-0.7c-1.5,0-3-0.2-4.4-0.3c-0.5,0-0.9,0.2-1.4,0.3c0,0.1,0,0.2,0,0.3c0.4,0.2,0.8,0.4,1.2,0.5
		c0.8,0.1,1.6,0.2,2.1,1c0.5,0.9,1.3,1.5,2,2.3c-0.2-0.1-0.4-0.2-0.7-0.3c-1.3-0.7-2.6-1.3-3.9-2.1c-0.6-0.3-1.2-0.7-1.8-1.2
		c-0.2-0.2-0.2-0.6-0.4-0.9c-0.2-0.4-0.4-0.9-0.6-1.2c-0.4-0.6-0.9-1.1-1.3-1.7c-0.1-0.1-0.2-0.2-0.2-0.3
		C121.8,35.7,121.6,33.9,121.7,32.1z M118.4,34.7c0.7-0.4,1.3-0.7,2-1.1c0.1,0.4,0.3,0.8,0.3,1.2c-0.2,2.2,0.8,3.9,2.2,5.4
		c0,0,0.1,0.1,0.1,0.2c-0.1,0.1-0.1,0.1-0.2,0.2C121.3,38.6,119.9,36.6,118.4,34.7z M120.4,40.2c-0.1-0.2-0.1-0.6-0.1-0.9
		c0.1,0,0.2-0.1,0.2-0.1c0.4,0.5,0.8,0.9,1.2,1.4c0.2,0.3,0.4,0.7,0.7,0.9c0.6,0.5,0.2,1,0.1,1.8C121.7,42.2,121.1,41.2,120.4,40.2z
		 M121.3,48.2c0.2-0.3,0.2-0.7,0.3-1.1c0.3-0.7,0.7-1.4,1-2c0.3-0.6,0.6-1.2,0.9-1.9c0.2,0.4,0.4,0.8,0.5,1.2
		c0.5,1.9,1.6,3.4,2.7,4.9c0.5,0.6,0.8,1.4,1.5,1.9c0.3,0.2,0.3,0.8,0.4,1.1c-0.4,0-0.8,0.1-1.2,0.1c-0.5-0.1-0.9-0.3-1.4-0.5
		c-0.8-0.3-1.6-0.2-2.4,0.2c-1.3,0.6-2.7-0.3-2.7-1.7C120.8,49.6,121,48.9,121.3,48.2z M110.3,61.3c-1.5-0.1-3.2-1.4-3.3-2.6
		C108.5,59,109.1,60.4,110.3,61.3z M106.3,65.2C106.3,65.2,106.3,65.2,106.3,65.2c0.5,0.2,0.7-0.8,1.2-0.3c0.3,0.3,0.5,0.7,0.7,1.1
		c0.1,0.2,0.2,0.4,0.3,0.5c-0.7,0.5-1.4,1.1-2,1.5c-0.7-0.5-1.4-0.9-2-1.4C104.7,65.7,105.7,65.7,106.3,65.2z M106,74
		c0.5,0.3,1.3,0.3,1.9,0.5c-0.2,0.7-0.4,1.5-0.6,2.3c-1-0.5-2.1-1-3-1.6c-1.3-0.9-2.8-1-4.2-1.4c-0.6-0.2-1.3-0.1-1.5-0.8
		c-0.2-0.8,0-1.6,0.5-2.4c0.4-0.6,0.8-0.6,1.3-0.2C102.2,71.7,104.1,72.9,106,74z M105.8,70.1c0.3,0,0.7-0.1,1.1-0.2
		c0.1,0.1,0.4,0.3,0.6,0.5c0.6,0.5,0.9,1.4,0.6,2.1c-0.3,0.8-1,1.1-1.7,0.6c-0.7-0.4-1.4-0.7-1.7-1.6
		C104.5,70.5,104.9,70,105.8,70.1z M107.1,77.9c0.7,0.3,1.3,0.5,1.8,0.7c0.3,0.2,0.2,1-0.3,1.3c-0.6,0.4-1.4,0.2-1.5-0.5
		C107,79,107.1,78.6,107.1,77.9z M108.6,77.4c-0.3-0.2-0.3-1.3,0-1.9c0.5,0.6,0.9,1.2,1.4,1.7C109.7,77.7,109.1,77.7,108.6,77.4z
		 M99.9,54.1c0.4-0.3,0.8-0.2,1,0.2c0.4,0.7,0.7,1.4,1,2c-0.6,0.5-1.2,0.9-1.8,1.4c-0.4,0.3-0.8,0.4-1.1-0.1
		c-0.4-0.5-0.7-0.9-1.1-1.4c-0.3-0.5-0.1-0.8,0.3-1C98.8,54.8,99.3,54.4,99.9,54.1z M100.6,63.8c-0.2,0.6-0.4,1.1-1.1,1.2
		c-1.2,0-2-1.4-1.6-2.4c0-0.1,0-0.2,0.1-0.2c0.5-0.5,1-0.3,1.5-0.1C100.3,62.6,100.7,63.3,100.6,63.8z M95.8,51.9
		c-0.5-0.6-0.8-1.2-1.2-1.7c1.2-0.6,2.3-1.3,3.5-1.9c0.2,0.6,0.3,1.2,0.5,1.8C97.7,50.7,96.7,51.3,95.8,51.9z M97,62.2
		c-1.1-0.6-1-1.6-0.6-2.4c0.2-0.5,0.9-0.9,1.4-1.3c0.1-0.1,0.5,0.1,0.6,0.3c0.5,0.9,1,1.8,1.5,2.7C98.9,61.4,97.7,60.8,97,62.2z
		 M98.1,67.9c-0.2-0.1-0.3-0.5-0.3-0.8c0-0.5,0.1-1,0.1-1.5c1.2,0.5,2.3,0.6,3.3-0.4c1.7,1.3,3.3,2.6,5,3.9
		c-2.1,0.2-2.1,0.2-2.5,2.1c-0.2-0.1-0.4-0.2-0.6-0.3c-1.1-0.6-2.2-1.3-3.3-1.9C99.2,68.7,98.6,68.3,98.1,67.9z M99.1,78.7
		c-1.1-1.1-1.4-2.8-0.8-4.2c2.9,0.6,5.6,1.5,8,3.2c-0.1,0.7-0.2,1.4-0.3,2.3c-0.5-0.2-0.9-0.3-1.4-0.5c-1.7-0.7-3.4-0.8-5.1-0.6
		C99.4,78.8,99.2,78.8,99.1,78.7z M126.9,105.3c-1-0.4-2-0.9-3-1.2c-2.2-0.7-4.4-1.4-6.5-2c-2.1-0.6-3.7-1.9-5.1-3.5
		c-0.7-0.8-0.8-2-0.9-3c-0.1-1.6-0.7-3.1-1.3-4.5c-0.6-1.3-1-2-1.5-4c1.4,0,2.8,0,4.2,0c0.1,0,0.3,0.2,0.4,0.1
		c0.2-0.2,0.4-0.4,0.7-0.7c-0.3-0.2-0.7-0.4-1-0.4c-0.4,0-0.9,0.2-1.3,0.3c-2,0-3.9-0.4-5.6-1.6c-1.4-1-3-1.8-4.5-2.7
		c-0.8-0.5-1.4-1.2-1.8-2.2c0.4,0,0.7-0.1,1.1,0c1.4,0.1,2.8,0.3,4,0.9c1.1,0.5,2.4,0.6,3.6,0.5c0.9,0,1.6-0.9,1.8-1.9
		c0.1-0.4,0.3-0.7,0.5-1.2c0.6,1,1.1,1.7,1.6,2.4c0.2,0.4,1.3,0.6,1.8,0.2c0.8-0.5,1.6-1,2.4-1.6c0.7-0.5,0.8-1.4,0.3-2.2
		c-0.5-0.7-0.9-1.5-1.3-2.2c-0.4-0.6-0.7-1.2-1.1-1.8c-1.3-1.7-2.6-3.5-3.3-5.6c-0.1-0.2,0.1-0.5,0.1-0.8c0-0.3,0.1-0.6,0.1-1
		c-0.3,0-0.6,0.1-1,0.2c-1.1-1.3-2.3-2.6-3.4-4c-0.3-0.4-0.7-1-0.2-1.6c0.2,0.2,0.5,0.4,0.7,0.6c0.8,1.3,2.3,1.4,3.6,1.7
		c0.3,0.1,0.6,0.3,0.8,0.6c0.8,1.3,1.5,2.7,2.2,4.1c0.9,1.6,1.8,3.2,2.5,4.8c1.2,2.7,2.5,5.3,3.1,8.2c0.1,0.5,0.4,0.9,0.6,1.4
		c0.6,1.4,0.7,2.8,0.6,4.3c-0.1,3.7,1,7.1,2.8,10.3c1.4,2.4,2.8,4.7,4.2,7.1c0.3,0.6,0.6,1.2,0.9,1.8c0.2,0.3,0.4,0.6,0.7,1
		C128.6,105.8,127.7,105.6,126.9,105.3z M112.9,77.8c0.5-0.2,0.9-0.6,1.4-0.9c0.3-0.1,0.8-0.3,1-0.1c0.4,0.3,0.6,0.8,1.1,1.4
		c-0.3,0.1-0.5,0.2-0.7,0.4c-0.6,0.4-1.3,0.8-1.9,1.1c-0.3,0.2-0.6,0.2-0.8-0.2c-0.1-0.2-0.2-0.3-0.3-0.5
		C112,78.3,112,78.2,112.9,77.8z M136,107.3c-1.6-0.4-3-0.9-4.5-1.2c-0.9-0.2-1.3-1-1.7-1.7c-0.7-1.1-1.2-2.3-1.7-3.3
		c2.7-1.1,5.6-2.3,8.4-3.5C136.4,100.9,136.2,104.1,136,107.3z M137.2,91.4c-0.1,1.1-0.3,2.2-0.2,3.3c0,0.9-0.4,1.4-1.1,1.8
		c-1.8,0.9-3.7,1.8-5.6,2.6c-0.8,0.4-1.7,0.5-2.6,0.7c-0.4,0.1-0.7-0.1-0.9-0.5c-1.7-2.9-3.4-5.8-4.2-9.2c-0.4-1.6-0.6-3.1-0.5-4.7
		c0.1-1.6-0.1-3.2-0.9-4.7c-0.2-0.4-0.2-0.9-0.1-1.3c0.5-1.6,0.2-3.3,0.2-4.9c-0.1-1.5-0.3-3-0.4-4.2c1.2,1,2.5,2.2,3.9,3.2
		c1.6,1.1,3.4,1.3,5.3,1c0.2,0,0.5,0.1,0.6,0.2c0.6,1.1,1.2,2.2,1.8,3.4c0,0.1-0.1,0.1-0.1,0.2c-1.3-0.6-2.9-0.6-4.1-1.6
		c-0.3-0.2-0.7-0.4-0.8,0c-0.1,0.2,0,0.6,0.2,0.8c0.4,0.4,0.9,0.7,1.5,0.9c1.2,0.4,2.5,0.7,3.7,1.1c0.3,0.1,0.6,0.3,0.7,0.6
		c0.6,1.1,1.2,2.3,1.7,3.5c0.5,1.1,1.1,2.1,1.4,3.2C137.1,88.2,137.4,89.8,137.2,91.4z M161.1,86.2c1.2,1.9,1.9,3.9,1.9,6.2
		c0,2.1,0,4.2,0,6.3c0,0.5-0.1,1.1-0.2,1.7c-0.2,0-0.3-0.1-0.5-0.1c-3.4-1-6.7-2.2-9.8-3.9c-0.7-0.4-1.5-0.7-2.3-1
		c-1.6-0.6-2.9-1.7-4.2-2.7c-1-0.7-2.1-1.5-3.2-2.1c-1-0.5-2.1-0.8-3.2-1.3c-0.2-0.1-0.5-0.2-0.7-0.4c-0.2-0.2-0.3-0.5-0.2-0.8
		c0.1-0.7,0.4-1.4,0.6-2c0.1-0.4,0.3-0.8,0.4-1.3c0.1-0.3,0-0.6-0.1-0.9c-0.3,0.1-0.8,0.1-0.9,0.3c-0.3,0.7-0.4,1.4-0.6,2.1
		c-0.1,0.2,0,0.4,0,0.5c-1.9-3.9-3.7-7.8-5.8-11.7c-1.2-2.4-2.8-4.6-4.2-6.8c-0.3-0.4-0.4-0.9-0.6-1.3c-0.1-0.2-0.3-0.3-0.5-0.5
		c-0.1,0.2-0.4,0.4-0.4,0.6c0.1,0.6,0.2,1.1,0.5,1.6c0.8,1.4,1.6,2.9,2.5,4.3c-1.7,0.1-3.2-0.1-4.6-1c-1.7-1.1-3.1-2.6-4.5-4
		c-0.2-0.2-0.3-0.6-0.3-1c-0.1-1.6-0.3-3.1-0.3-4.7c0-0.9,0.2-1.7,0.3-2.6c0.1-2,0.1-3.9,0.2-5.9c0-0.6,0.1-1.2,0.2-2
		c1.3,1.7,2.8,1.3,4.4,0.6c-0.1,0.9-0.2,1.6-0.4,2.2c-0.3,0.8-0.2,1.2,0.6,1.6c0.4,0.2,0.7,0.4,1.1,0.6c-0.4,1.2-0.3,1.5,0.7,2.2
		c0.4,0.3,0.8,0.6,1.1,0.8c0,0.9-0.1,1.7,0,2.6c0,0.4,0.2,0.8,0.5,1.1c1.1,1.2,2.4,2.1,4.2,2c1.5,0,2.9,0,4.4-0.1
		c0.8-0.1,1.6-0.3,2.4-0.6c1.1-0.4,2.3-0.8,3.4-1.2c0,0,0.1,0,0.1,0c0.7,0.6,1.2-0.2,1.9-0.2c-0.2,3.3,1.3,6.1,2.9,8.8
		c0.7,1.2,2,1.9,3.3,2.4c0.7,0.3,1.4,0.5,2.2,0.7c1.9,0.5,3.1,1.9,3.8,3.6C158.1,81.6,159.6,83.9,161.1,86.2z M170.1,53.3
		c0.2,1.5,0.4,3.1,0.3,4.6c-0.1,1.5-0.7,3-1.1,4.5c-0.4,1.2-1,2.4-1.5,3.7c-0.7,1.8-1.9,3.2-3.3,4.6c-1.7,1.7-3.4,3.5-5.2,5.4
		c-1.2-0.3-2-1.2-2.8-2.4c-0.4-0.6-0.9-1.1-1.3-1.7c-1.2-1.8-2.4-3.6-3.6-5.4c-0.2-0.2-0.2-0.5-0.4-0.8c0.4-0.3,0.7-0.3,1.1-0.1
		c0.6,0.3,1.2,0.3,1.9,0.5c1.4,0.4,2.9,0.9,4.3,1.3c0.1,0,0.3,0.1,0.4,0.1c0.4,0.1,0.9,0.1,0.9-0.4c0-0.3-0.2-0.7-0.4-0.9
		c-0.6-0.3-1.2-0.6-1.9-0.8c-1.5-0.4-3.1-0.7-4.6-1c-2.3-0.5-4.4-1.2-6.2-2.7c1.6-1.3,3.2-2.6,4.9-3.9c1.8-1.3,2.7-3.1,3.2-5.2
		c0-0.2,0.1-0.3,0.1-0.5c1.7,0.7,3-0.1,4.2-0.9c0.4,0.4,0.8,0.9,1.3,1.1c0.6,0.3,1.3,0,1.9-0.4c0.9-0.7,1.9-1.4,2.8-2.1
		c0.8-0.6,1.7-1.2,2.5-1.9c0.7-0.5,1.1-0.5,1.3,0.4C169.5,50.2,169.9,51.7,170.1,53.3z"/>
	<path class="st0" d="M55,71.4c0.4-0.3,0.6-0.6,0.9-0.8c1.4-0.8,2.7-1.7,4.1-2.5c0.4-0.2,1.1-0.2,1.5-0.1c0.7,0.2,1.3,0.2,1.9-0.3
		c0.6-0.4,1.3-0.5,2.1-0.4c1.5,0.3,3.1,0.6,4.6,1c0.1,0,0.3,0.2,0.3,0.3c0,0-0.1,0.2-0.1,0.3c-0.7,0.6-1.4,1.2-2.1,1.9
		c-1,0.9-2,1.8-3.3,2.2c-2.5,0.8-5,0.8-7.4-0.7c-0.7-0.4-1.3-0.8-2.1-0.7C55.4,71.5,55.2,71.4,55,71.4z M57,71.1
		c3.8,3.2,9.7,1.4,11.8-2c-0.6,0-1.1,0-1.6,0.1c-1.4,0.2-2.8,0.6-4.3,0.8c-1,0.2-2.1,0.1-3.1,0.3C58.9,70.5,58,70.8,57,71.1z
		 M67.8,68.6c-0.8-0.2-1.4-0.4-2.1-0.6c-0.7-0.2-1.4-0.3-2,0.2c-0.8,0.7-1.5,0.6-2.4,0.2c-0.2-0.1-0.5-0.1-0.7-0.1
		c-1,0.6-2,1.2-2.9,1.7c0.7-0.1,1.4-0.3,2.1-0.4c1.9-0.3,3.7-0.5,5.6-0.7C66.1,68.9,66.9,68.7,67.8,68.6z"/>
	<path class="st0" d="M52.9,50.6c-2.2-0.7-4-0.2-5.6,1c-0.2,0.1-0.4,0.2-0.6,0.3c0-0.1-0.1-0.1-0.1-0.2c0.1-0.2,0.2-0.4,0.4-0.5
		c1.6-1.4,3.5-1.7,5.5-1.5c0.7,0.1,1.4,0.2,2.1,0.4c0.9,0.2,1.7,1.2,1.6,2.1c0,0.2-0.2,0.6-0.4,0.6c-1.8,0.3-3.5,1.2-5.3,1
		c-1.4-0.1-2.6-0.6-4-1.3C48.4,51.4,50.5,50.8,52.9,50.6z M51.6,53.4c-0.1-0.6-0.1-1.1-0.2-1.6c0-0.1-0.2-0.3-0.3-0.3
		c-1.1,0.3-2.3,0.6-3.4,1c0,0.1,0,0.2,0,0.3C48.9,53.5,50.3,53.5,51.6,53.4z"/>
	<path class="st0" d="M72.1,47.7c-2.2,0.1-4.3,0.3-6.1,1.6c1.2-0.3,2.4-0.6,3.6-0.9c1.2-0.3,2.4,0,3.6,0.5c-1.9,1.5-3.7,3.1-6.3,2.7
		c-0.9-0.1-1.9-0.1-3-0.1c-0.1-0.6,0.3-1.1,0.6-1.6c1.1-1.5,2.7-2.1,4.4-2.5c0.8-0.2,1.7-0.2,2.5-0.3C71.9,47.1,72.1,47.2,72.1,47.7
		z M69.2,51c-0.1-0.7-0.2-1.3-0.4-1.9c-1.4,0.2-2.6,0.8-3.7,1.9C66.6,51,67.9,51,69.2,51z"/>
	<path class="st0" d="M73.5,45c-0.2,0.1-0.3,0.4-0.5,0.5c-1.2,0.5-2.4,0.9-3.7,0.8c-1.5-0.1-3,0.4-4.4,1c-0.3,0.1-0.6,0.2-0.9,0.2
		c-0.2,0-0.4,0-0.6,0c0.1-0.3,0.1-0.6,0.2-0.8c0.6-0.5,1.3-1,2-1.3c1-0.4,2-0.6,3-1c1.2-0.5,2.5-0.5,3.7-0.5
		C72.9,44,73.3,44.3,73.5,45z"/>
	<path class="st0" d="M53.3,49c-1,0-2-0.1-2.9,0c-1.1,0.1-2.2,0.3-3.3,0.5c-0.4,0.1-1,0.3-1.1-0.2c-0.2-0.6,0.5-0.6,0.9-0.7
		c0.5-0.2,1-0.5,1.5-0.6c1.6-0.2,3.2-0.4,4.8-0.6c0.6-0.1,1.2-0.1,1.8,0c0.2,0,0.6,0.4,0.6,0.6c0,0.3-0.3,0.7-0.5,0.8
		c-0.5,0.2-1.1,0.3-1.7,0.4C53.3,49.2,53.3,49.1,53.3,49z"/>
	<path class="st0" d="M64.9,62.5c0.7-0.5,0.8-1.6,0.2-2.2c-0.5-0.5-0.9-0.9-0.9-1.7c0.1,0,0.2,0,0.2,0c0.6,1,1.8,1.6,1.7,3.1
		c-0.1,0.8-0.5,1.3-1.3,1.4c-0.7,0.1-1.3,0.2-1.8,0.6c-1.3,1-1.9,0.9-3,0.2c-0.9,0.1-1.6,0.3-2.3,0.2c-0.6-0.1-1-0.6-0.9-1.3
		c0.1-0.8,0.2-1.5,0.3-2.2c0-0.2,0.2-0.3,0.4-0.4c0,1.1-0.1,2-0.1,3c0,0.2,0.4,0.4,0.7,0.6c0.5-1,0.9-1.1,1.9-0.5
		c1.4,0.8,1.9,0.7,3.1-0.3c0.2-0.2,0.5-0.3,0.7-0.5C64.3,62,64.6,62,64.9,62.5z"/>
	<path class="st0" d="M159.7,46.9c0.9-0.4,1.1-1.1,1-1.9c-0.1-0.7,0-1.5,0-2.2c0-0.8-0.3-1-1-1.1c-1.1-0.1-2.1-0.1-2.8,1
		c-0.1,0.2-0.2,0.4-0.4,0.6c-0.1,0.2-0.3,0.2-0.5,0.4c-0.1-0.2-0.4-0.5-0.4-0.7c0.2-1,1.7-2.2,2.7-2.2c0.6,0,1.2,0,1.8,0
		c1,0,1.7,0.7,1.7,1.7c0,1.3,0.1,2.6,0,3.9c-0.1,1-1.1,1.4-1.8,2c-0.1,0.1-0.5-0.2-0.6-0.4c-0.2-0.3-0.3-0.6-0.5-0.9
		c-0.1-0.3-0.2-0.7-0.3-1c-0.1-0.4-0.3-0.8-0.4-1.3c-0.1-0.2-0.1-0.6,0-0.7c0.1-0.1,0.5-0.2,0.7-0.1c0.6,0.5,0.9,1.1,1,1.9
		C159.7,46.1,159.7,46.5,159.7,46.9z"/>
</g>
</svg>
