<?xml version="1.0" encoding="utf-8"?>
<!-- Generator: Adobe Illustrator 18.1.1, SVG Export Plug-In . SVG Version: 6.00 Build 0)  -->
<!DOCTYPE svg PUBLIC "-//W3C//DTD SVG 1.1//EN" "http://www.w3.org/Graphics/SVG/1.1/DTD/svg11.dtd">
<svg version="1.1" id="Layer_1" xmlns="http://www.w3.org/2000/svg" xmlns:xlink="http://www.w3.org/1999/xlink" x="0px" y="0px"
	 viewBox="0 0 100 119.4" style="enable-background:new 0 0 100 119.4;" xml:space="preserve">
<style type="text/css">
	.st0{fill:#FF5722;}
</style>
<g id="earache-recom">
	<path class="st0" d="M29.8,52.7c-1.2-0.2-2.3-0.3-3.4-0.5c-0.1,1-0.3,2.2-0.3,3.5c0,3.8,0.1,7.7-0.1,11.5c0,1.7-0.5,3.4-0.7,5.2
		c-0.2,1.6-0.5,3.3-0.5,4.9c0,3.1,0,6.1,0.2,9.2c0.1,2.1,0.7,4.1,1,6.1c0.7,5.2,1.3,10.4-0.3,15.5c-1,3.2-1.9,6.4-2.8,9.6
		c-0.2,0.5-0.3,1.1-0.5,1.6c-7.5,0-14.9,0-22.4,0c0.8-5.5,0.5-11.1,2.8-16.4c1.2-2.7,1.9-5.5,2.7-8.3c0.6-2.2,1.8-3.9,3.7-5
		c2.5-1.5,5.1-2.9,8.2-3.5c1.8-0.3,3.4-1.1,5.2-1.7c0.6-0.2,0.7-0.6,0.6-1.3C23,82.4,23,81.6,23,80.8c-2-0.1-3.9-0.1-5.8-0.5
		c-0.9-0.2-1.9-0.8-2.3-1.6c-0.8-1.3-1.1-2.8-1.7-4.3c-0.4-0.9-0.6-1.9-1.2-2.7c-0.7-1.1-1.2-2.1-0.9-3.4c0.3-1,0-1.8-1-2.3
		c-1.6-0.8-2.1-2.3-2.2-3.8C8,61.4,7.8,61,6.8,61c-1.7-0.1-3.1-0.9-4.4-2c-0.9-0.8-1.1-1.8-0.6-2.9c1.3-2.8,2.4-5.7,3.8-8.5
		c1.1-2.2,0.2-4-0.6-6c-0.2-0.5-0.5-1-0.6-1.5c-0.1-3.1-0.2-6.3-0.1-9.4c0-1.8,0.4-3.6,0.5-5.4c0-1.2-0.4-2.4-0.5-3.6
		c-0.1-1-0.3-2,0-2.9c0.4-1.3,1.1-2.5,1.8-3.6c0.7-1,1.7-1.9,2.6-2.8c2.9-3,6.3-5.2,10.1-7c3.2-1.5,6.6-2.7,10.1-3.3
		c0.8-0.2,1.7-0.2,2.5-0.5c1.4-0.4,2.7-1,4.1-1.2c2.5-0.3,5-0.5,7.5-0.5c2.5,0,4.9,0.3,7.3,0.6c1.2,0.2,2.5,0.5,3.6,1
		c2.9,1.4,5.8,2.8,8.6,4.4c1.1,0.6,2.2,1.6,3,2.6c2.3,2.9,4.5,5.9,6.6,9c1,1.6,1.6,3.4,2.3,5.2c0.6,1.5,1.4,2.9,1.8,4.4
		c0.6,2,0.6,4.2,1.3,6.1c1.7,5.1,2.7,10.4,4.8,15.4c1.3,3,2,6.2,2.9,9.3c1,3.4,1.9,6.7,2.9,10.1c0.5,1.8,0.9,3.7,1.7,5.4
		c1,2.3,2.2,4.6,3.3,6.9c1.1,2.3,2.1,4.6,3.2,6.9c1.1,2.3,2.2,4.5,3.2,6.8c0.9,1.9,1.1,3.9-0.1,5.9c-0.3,0.4-0.3,1-0.3,1.6
		c0,2-0.1,4.1,0,6.1c0.1,3.3-0.7,6.4-1.8,9.4c-0.1,0.2-0.2,0.4-0.2,0.6c-0.7,1.9-0.7,1.9-2.9,1.7c0.2-0.6,0.5-1.1,0.7-1.7
		c0.7-1.9,1.6-3.8,1.9-5.7c0.4-2.3,0.4-4.6,0.5-6.9c0.1-2.2,0-4.4,0.2-6.5c0.2-3-1.4-5.2-3.1-7.4c-1.3-1.7-3.1-2.9-4.9-3.9
		c-1-0.5-2.3-0.7-3.4-0.7c-2.3,0.2-4.7,0.2-6.8,1.1c-7,2.8-12.9,7.1-17,13.5c-1,1.5-2.1,3-3.1,4.5c-1.8,2.7-2.9,5.7-3,8.9
		c0.1,0.1,0.2,0.1,0.3,0.2c1.2-1.7,2.4-3.4,3.7-5c0.8-1.2,1.7-2.3,2.5-3.5c0.2-0.2,0.7-0.3,1-0.4c0,0.4,0.2,0.9,0,1.2
		c-2.8,3.5-4.9,7.4-8.1,10.5c-1.6,1.5-3.1,2.1-5.1,2c-2.9-0.1-5.7,0-8.6,0c0.2-2.4,0.3-4.8,0.6-7.1c0.2-2.1,0.7-4.2,0.9-6.3
		c0.2-1.7,0.3-3.5,0.4-5.2c0.2-3.4,1-6.6,2.7-9.6c0.8-1.4,1.2-3,1.7-4.6c0.8-2.2,1.7-4.4,2.3-6.7c1.1-4,1.9-8,2.9-12
		c0.1-0.3,0.1-0.6,0-1c-0.1-1.2-0.1-2.4-0.3-3.5c-0.1-0.8-0.5-1.6-0.7-2.5c-0.1-0.3-0.1-0.7-0.2-1c-0.1-0.4-0.3-0.9-0.4-1.3
		c-0.2,0-0.4,0-0.6,0c-0.2,0.7-0.4,1.4-0.5,2.1c-0.2,1.2-0.5,2.4-0.6,3.7c-0.2,2-0.2,4-0.2,6c0,2.4,0.1,4.8,0.2,7.2
		c0,0.3-0.1,0.6-0.2,0.9c-0.1,0-0.3,0-0.4,0c-0.2-0.7-0.5-1.5-0.5-2.2c0-3.9,0.1-7.9,0.2-11.8c0.1-1.7,0.5-3.4,0.6-5.2
		c0.1-2.4-0.1-4.9-0.1-7.3c0-2.1,0-4.1,0-6.2c-1.7,0.6-2.5-0.5-3.6-1.5c-0.2,2.6-0.7,5-0.4,7.5c0.3,2.5,0.2,5-0.4,7.5
		c-0.5,2.5-0.8,5-1.3,7.4c0,0.3-0.3,0.5-0.5,0.8c-0.1-0.3-0.4-0.6-0.3-0.9c0.2-1.5,0.6-3,0.8-4.5c0.6-3.1,0.9-6.2,0.9-9.3
		c0-3.6,0.4-7.1,0.6-10.7c0-0.2,0-0.4,0-0.7c-1.5,0.9-2.8,0.5-4.1-0.3c-0.1,0.3-0.1,0.5-0.1,0.7c0,4.2-0.9,8.3-1.2,12.5
		c-0.3,4.2-1.6,8.1-2.1,12.3c0,0.2-0.3,0.4-0.5,0.6c-0.1-0.3-0.3-0.6-0.3-0.8c0.7-2.6,0.9-5.3,0.7-7.9c-0.1-1.8-0.4-3.6-0.4-5.4
		c0.1-2.8,0.4-5.7,0.7-8.5c-1.2-0.2-2.4-0.5-3.8-0.8c-0.1,1.8-0.2,3.8-0.4,5.8c-0.2,1.9-0.5,3.9-0.7,5.8c-0.2,2.1-0.2,4.1-0.4,6.2
		c-0.1,1.4-0.4,2.9-0.7,4.3c-0.4,1.5-0.9,2.9-0.5,4.4c0,0.2-0.2,0.5-0.3,0.7c-0.2-0.2-0.5-0.4-0.6-0.6c-0.1-0.2,0-0.6,0-0.9
		c-0.1-2.9-0.3-5.9-0.4-8.8c-0.1-1.8-0.3-3.5-0.4-5.3C29.5,54.4,29.7,53.4,29.8,52.7z M31,64.9c0.1,0,0.2,0,0.3,0
		c0.1-0.8,0.3-1.5,0.4-2.3c0.1-1.7,0.1-3.5,0.3-5.3c0.3-3.7,0.6-7.4,1.1-11.2c0.2-1.9,0.1-4,1.5-5.7c0.7-0.9,2.6-1.2,3.4-0.2
		c1.2,1.4,0.8,3,0.6,4.5c-0.4,3.9-0.7,7.8-0.6,11.8c0,0.4,0.2,0.8,0.3,1.2c0.3-0.3,0.3-0.6,0.3-0.9c0.2-2,0.4-4,0.6-6
		c0.1-1.3,0.3-2.6,0.5-3.9c0.2-2.5,0.4-5,0.7-7.6c0.1-1.2,0.6-2.3,1.9-2.8c0.1,0,0.1-0.2,0.2-0.4c-0.8-0.3-1.5-0.6-2.3-0.7
		c-3.4-0.4-6.3-1.8-8.7-4.1c-0.9-0.9-1.9-1.7-2.8-2.5c-2.7-2.5-5.9-4.1-9.5-4.8c-2-0.4-3.9-1.1-5.8-1.7c-1.7-0.6-3.3-1.3-4.9-1.8
		c-1.1-0.4-1.9,0-2.2,1.2c-0.1,0.5-0.1,1-0.1,1.5c-0.2,3.3-0.3,6.6-0.7,9.8c-0.4,3.1-0.3,6,1.2,8.8c0.9,1.7,1.2,3.7,0.5,5.5
		c-1.2,3-2.6,5.9-4,8.8c-0.3,0.7-0.4,1.4,0.2,2.1c0.9,1.1,2.3,1.5,3.6,1.7c1.1,0.2,2.3,0.1,2.4,1.7c0,0.1,0.1,0.2,0.1,0.2
		c0.5,0,1-0.2,1.4-0.1c2.6,0.7,5.1,1.3,7.7,2.1c0.6,0.2,1.4,0.9,0.7,1.7c-1.6,1.7-3.2,3.3-4.9,4.7c-1.2,0.9-1.4,1.3-0.2,2.2
		c0.4,0.3,1.1,0.2,1.7,0.2c0.6,0,1.1-0.2,1.7-0.3c0,0.1,0.1,0.2,0.1,0.3c-0.2,0.2-0.5,0.5-0.7,0.6c-0.5,0.2-1,0.4-1.5,0.4
		c-0.7,0.1-0.9,0.5-0.8,1.1c0.1,2.4,1.7,4.4,3.9,4.8c1.1,0.2,2.3,0.2,3.5,0.1c1.1-0.1,1.8-0.7,2-1.9c0.4-3,1-5.9,1.2-8.9
		c0.3-4.8,0.2-9.7,0.4-14.5c0.1-1.7,0-3.5,0.9-5.2c0.4-0.6,0.7-1,1.4-1c1.6-0.1,2.8,1,2.8,2.6c0,1.2-0.2,2.4-0.2,3.6
		c0.1,3.4,0.3,6.8,0.4,10.1C30.8,64.5,30.9,64.7,31,64.9z M44.3,105.2c0.7-0.5,1.2-0.7,1.6-1c2.4-2.1,4.8-4.2,7.2-6.3
		c2-1.8,3.9-3.5,6-5.3c1.5-1.3,3-2.4,4.5-3.7c2.4-2.2,4.8-4.4,7.1-6.7c0.4-0.4,0.7-0.9,1.1-1.3c-0.6-0.2-1.2-0.4-1.8-0.5
		c-0.2-0.1-0.5,0-0.7,0c-0.8-0.1-1.6-0.3-2.4-0.5c-1.3-0.3-2.7-0.5-4-0.8c-0.8-0.2-1.6-0.3-2.3-0.6c-2.4-1.3-4-3.2-5.1-5.7
		c-0.4-1-0.9-2-1.4-3.2c-0.9,3.7-1.5,7.1-2.6,10.4c-1.5,4.5-3.2,9-5,13.4C44.7,97.1,44.6,101,44.3,105.2z M25.3,101.1
		c-0.1-1-0.2-2-0.3-3c-0.3-2.5-0.6-5-1-7.5c0-0.3-0.4-0.8-0.6-0.8c-0.3,0-0.7,0.3-1,0.6c-0.2,0.2-0.2,0.6-0.4,0.8
		c-2.2,2.3-3.6,5-5.1,7.8c-1,1.9-2,4-2.6,6.1c-0.5,1.8-0.4,3.8-0.8,5.7c-0.8,3.8,2.3,8.5,6.8,8.1c0.6-0.1,0.9-0.2,1.1-0.9
		c0.7-2.9,1.4-5.8,2.2-8.7C24.4,106.5,25.4,103.9,25.3,101.1z M50,48.8c0,1.1,0.2,2.1,0,3.1c-0.2,1.1,0.4,1.4,1.1,1.4
		c1.5-0.1,3.4,0.4,4.1-1.8c0.1-0.2,0.4-0.4,0.6-0.6c1.7-1.5,2.2-3.5,1.9-5.5c-0.4-2.4-1-4.8-2.9-6.7c-0.7-0.7-1.4-1.1-2.4-1.1
		c-0.9,0-1.4,0.4-1.6,1.1c-0.3,0.8,0.4,1.1,1,1.4c1.9,0.7,2.9,2.3,3.4,4.2c0.4,1.4,0.1,2.7-0.8,3.2c-0.5,0.3-1.2,0.3-1.8,0.5
		C52.2,49.6,51.9,49.7,50,48.8z M2.2,112c0.1,0,0.3,0.1,0.4,0.1c0.2-0.6,0.4-1.2,0.7-1.8c1.8-3.5,3.6-7,5.3-10.6
		c0.8-1.5,1.4-3.1,2.2-4.6c0.9-1.7,2-3.4,3-5c0.3-0.5,0.8-0.9,1.4-1.5c-0.4,0-0.6-0.1-0.7,0c-1.3,0.7-2.6,1.3-3.8,2.1
		c-2.6,1.7-4,4.1-4.7,7.1c-1,4.3-2.4,8.5-3.6,12.8C2.2,111.1,2.2,111.6,2.2,112z M51.4,48.6c0.1-0.3,0.3-0.5,0.3-0.8
		c0-0.7,0.5-0.9,1.1-0.9c1.4-0.1,2-0.8,1.7-2.1c-0.5-1.9-1.3-3.6-3.4-4.2c-0.4-0.1-0.7-0.5-1.1-0.8c-0.4,0.3-0.9,0.7-1.3,1
		c1.7,2.2,0.9,4.8,1.4,7.1C50.5,48.1,50.9,48.3,51.4,48.6z M45.1,40.4c-0.2-0.9-0.2-1.8-0.6-2.5c-0.4-0.8-1.3-1-2.1-0.6
		c-0.8,0.4-1.4,1.1-1.3,2c0.1,0.9,0.7,1.6,1.6,1.6C43.6,41,44.3,40.6,45.1,40.4z M52.9,58.1c0.2-0.9,0.4-2,0.6-3
		c0.2-0.6-0.1-0.8-0.7-0.8c-0.8,0-1.6-0.1-2.3,0c-0.3,0-0.7,0.5-0.7,0.7c0,0.8,0.2,1.7,0.2,2.2C51.1,57.6,52,57.8,52.9,58.1z
		 M18.5,64.7c-0.6-0.3-1-0.6-1.4-0.6c-1.6,0.2-3.1,0.5-4.7,0.9c-0.3,0.1-0.7,0.8-0.6,1c0.2,0.5,0.5,1,1.4,0.7
		c1.4-0.5,2.9-0.8,4.4-1.3C17.9,65.3,18.1,65,18.5,64.7z M49.1,44c-0.1-0.7-0.2-1.4-0.5-2.1c-0.4-1.1-1.1-1.1-1.9-0.4
		c-0.6,0.5-0.9,1.1-0.6,1.8c0.4,0.7,0.9,1.3,1.6,1.7C48.3,45.4,49.1,44.7,49.1,44z M37.9,42.4c0-1.2-0.7-2-1.5-2
		c-0.9,0-1.9,0.9-1.9,1.8c0,0.8,0.9,1.5,2.3,1.5C37.6,43.6,38.1,43.2,37.9,42.4z M29.7,50.5c0-1-0.9-2.2-1.6-1.8
		c-0.6,0.3-1.2,1.1-1.4,1.8c-0.3,0.7,0.8,1.6,1.7,1.6C29.1,52,29.7,51.3,29.7,50.5z M14.7,63.4c-0.4-0.2-0.8-0.5-1.3-0.7
		c-0.9-0.3-1.9-0.5-2.9-0.6c-0.3,0-0.9,0.5-1,0.8c0,0.5,0.2,1,0.6,1.4c0.2,0.2,0.8,0.3,1.1,0.2C12.4,64.2,13.5,63.8,14.7,63.4z
		 M17,66.7c-0.1-0.1-0.2-0.2-0.2-0.3c-1.1,0.4-2.3,0.7-3.4,1.2c-0.5,0.3-0.9,1-1.1,1.6c-0.2,0.6,0.5,1,1,0.6
		C14.6,68.8,15.8,67.7,17,66.7z"/>
	<path class="st0" d="M7.5,32.9c0,0.5,0,1-0.1,1.5c-0.3,1.5-0.2,2.9,0.3,4.3c0.2,0.5,0.5,0.7,1,0.3c1.9-1.4,4.1-1.9,6.5-2
		c0.8,0,1.7,0,2.5,0.1c0.3,0.1,0.6,0.5,0.9,0.8c-0.3,0.2-0.6,0.5-0.9,0.5c-1.2,0.1-2.6-0.3-3.7,0.2c-1.5,0.5-2.7,1.6-4,2.5
		c-1,0.7-1.9,0.6-2.3-0.6c-0.5-1.4-1-2.8-1.2-4.3c-0.1-1,0.3-2.1,0.6-3.1c0-0.1,0.2-0.2,0.3-0.3C7.3,32.9,7.4,32.9,7.5,32.9z"/>
	<path class="st0" d="M19,42.7c-1.2,0.1-2.4,0.2-3.7,0.2c-1.1,0.1-2.1,0.9-3.2,0.8c1.1-1.3,2.4-1.7,3.9-1.8c1.4,0,2.9,0.2,4.3,0.4
		c0.2,0,0.7,0.3,0.7,0.4c0,0.3-0.2,0.6-0.4,0.8c-1.3,1-2.5,2-3.9,2.8c-0.5,0.3-1.4,0.4-2,0.3c-0.8-0.1-1.6-0.4-2.3-0.7
		c-0.2-0.1-0.4-0.4-0.6-0.5c0.2-0.2,0.4-0.4,0.6-0.5c1.9-1.1,4-1.2,6.1-1.5c0.2,0,0.4-0.2,0.5-0.2C19.1,43,19.1,42.8,19,42.7z"/>
	<path class="st0" d="M7.2,57.9c1.1,0,2.2-0.2,3.3-0.1c1.3,0.1,1.9-0.8,2.5-1.7c0.5-0.7,0.1-1.4-0.4-2c-0.1-0.2-0.1-0.4,0-0.8
		c3.6,4.3,7.8,8,9.8,13.4c-0.5,0-0.5-0.1-1.9-2.6c-0.6-1.1-1.2-2.1-1.9-3.1c-0.7-0.9-1.6-1.7-2.4-2.6c-0.8-0.9-1.5-1.8-2.4-2.9
		c-1.1,2.2-2.9,3.3-5.3,3.2c-0.5,0-0.9-0.3-1.4-0.4C7.1,58.3,7.1,58.1,7.2,57.9z"/>
</g>
</svg>
