<?xml version="1.0" encoding="utf-8"?>
<!-- Generator: Adobe Illustrator 18.1.1, SVG Export Plug-In . SVG Version: 6.00 Build 0)  -->
<!DOCTYPE svg PUBLIC "-//W3C//DTD SVG 1.1//EN" "http://www.w3.org/Graphics/SVG/1.1/DTD/svg11.dtd">
<svg version="1.1" id="Layer_1" xmlns="http://www.w3.org/2000/svg" xmlns:xlink="http://www.w3.org/1999/xlink" x="0px" y="0px"
	 viewBox="404.9 142.2 150 274.5" style="enable-background:new 404.9 142.2 150 274.5;" xml:space="preserve">
<style type="text/css">
	.st0{fill:#FF5722;}
</style>
<g id="earache-lady-main">
	<path class="st0" d="M554.2,174.3c-0.7-2.6-2.4-5.2-4.2-7.1c-6.3-6.6-12.9-13.4-19.8-19.3c-3.7-3.5-8.5-5.4-13.9-4.9
		c-1,0-2.1,0-2.8-0.4c-1.2-0.7-2.6-0.4-3.5,0.5c-1.6-0.2-3.2-0.2-4.8,0.2c-0.4-0.1-0.8-0.1-1.2,0c-1.2,0.3-2.4,0.8-3.4,1.5
		c-1.4,0.6-2.6,1.5-3.8,2.6c-0.2,0.2-0.4,0.4-0.6,0.6c-0.1,0-0.1,0.1-0.2,0.1c-1.2,0.8-2.3,1.6-3.3,2.6c-0.8,0.8-1.2,1.6-1.3,2.5
		c-0.3,0.3-0.6,0.7-1,1V150c-1.6,0.5-3.3,0.7-4.5,1.6c-1.2,0.9-2.4,2.4-3.3,3.8c-4.7,5.9-9.2,12-14.1,17.6c-3.5,4-4.9,8-4.2,12.9
		c1.2,9.4,1.9,18.8-1.2,28c-0.7,1.9-1.6,4-3.1,5.4c-3.8,3.8-8,6.8-13.2,8.5c-2.6,0.7-4.9,1.9-7.5,2.8c-6.3,2.4-12.7,2.8-19.3,1.2
		c-2.8-0.7-5.2-0.5-7.5,1.4c-8,6.3-9.2,19-6.1,26.1c5.6,12.7,8,26.1,10.8,39.5c0.2,1.4,0.7,3.1,0.2,4.2c-1.6,4.5,0.9,8.2,2.4,12.2
		c0.2,0.7,0.7,1.4,0.9,2.1c4.9,15.1,9.9,30.1,14.6,44.7c3.8,10.6,2.6,21.4-0.5,32c-2.1,7.3-5.4,14.3-5.4,22.1h1.6
		c-0.7-4.7,0.7-8.9,2.1-13.4c1.6-5.6,3.3-11.3,5.2-16.9c0.2-0.7,0.9-1.4,1.4-1.6c4.2-0.9,8.2-1.2,12.5,0.5c2.1,0.9,4.5,1.6,6.6,1.6
		c4.2,0.2,7.8,1.6,10.8,4.2c0.9,0.7,2.1,0.7,3.1,0.9c-4.5-4.5-10.1-5.6-16-6.8c-5.9-1.2-11.5-3.1-17.9-0.9V380
		c-0.2-4.9,0-10.1-1.2-15.1c-1.2-5.4-3.8-10.6-5.4-16c-3.3-9.6-6.3-19-9.4-28.7c-1.2-3.5-2.6-6.8-3.8-10.3c0.2,0,0.5-0.2,0.7-0.2
		c4.9,3.5,9.6,7.1,14.6,10.6c0-0.9-0.2-1.6-0.7-1.9c-4-2.8-8-5.9-12-8.5c-1.9-1.2-2.4-2.4-2.6-4.5c-0.2-3.5-0.9-7.1-1.4-10.6
		c-0.2-2.4-0.9-4.5-1.4-6.8c0.7,0.2,1.4,0,1.9,0.2c5.4,1.6,9.6,0.2,13.2-4c0.2-0.5,1.6-0.5,2.4-0.2c3.5,0.7,6.8,1.9,10.3,2.4
		c11.3,1.2,22.8,0.9,34.1,3.3c4.2,0.9,8.5,0,11.1-3.8c2.1-3.1,4.7-3.1,7.8-3.1c5.4-0.2,10.8-0.5,16.2-1.2c3.5-0.5,6.3-3.5,6.6-7.1
		c0.2-2.6,0-5.2-0.5-7.5c-1.6-9.4-6.8-16.9-12-24.7c-0.7-0.7-0.9-1.6-1.9-3.1c3.3,0.2,5.9-0.5,7.8,2.1c5.9,8,9.9,16.7,11.8,26.3
		c1.2,6.6,2.1,13.4,3.3,20c1.4,7.1,2.8,14.3,4.5,21.4c1.2,5.6-2.1,10.1-4.2,14.8c0,0.5-0.5,0.7-0.9,0.9c-4.9,3.3-9.9,4.2-15.5,0.9
		c-1.6-0.7-4.2-1.2-5.6-0.2c-3.3,2.1-6.6,1.6-10.1,1.4c-4.2-0.5-8.5-0.9-12.7-1.2c-0.7,0-1.2,0.2-1.9,0.5c0.2,0.5,0.7,0.7,0.9,0.7
		c4.9,0.5,9.6,0.9,14.3,1.4c3.3,0.2,6.6,0.5,9.6-1.9c0.7-0.5,2.1-0.5,3.1-0.2c2.4,0.7,4.5,1.6,6.6,2.6c0.5,0.2,0.7,1.4,0.7,2.1
		c-0.2,4.5-0.9,9.2-1.2,13.6c-0.5,11.5,4,22.3,6.3,33.6c0.2,2.1,0,3.3-0.7,4.9c-1.4,2.8-2.1,6.1-3.1,9.2c-0.2,0.5,0.7,1.6,1.2,1.9
		c0.5,0,1.6-0.5,2.1-0.9c1.2-1.2,2.1-2.4,3.3-3.5c0.2,0.2,0.7,0.2,0.9,0.5c0,1.2,0.2,2.6-0.2,3.5c-0.9,2.1-1.9,4-3.3,5.6
		c-4.2,5.2-5.4,10.8-2.6,17.2h1.2c0-1.4-0.5-3.3,0.2-4c3.1-3.5,6.3-6.8,9.4-10.1c0.7-0.9,1.2-1.9,1.9-2.8c-2.6,1.6-4.7,3.8-6.8,5.6
		c-2.1,1.6-2.8,5.2-6.3,5.6c0.2-0.7,0.2-1.4,0.2-1.9c0.2-4.9,3.8-8.2,6.1-12.2c1.6-2.6,3.5-4.9,1.2-7.8c0.9-0.7,1.4-1.2,2.1-1.6
		c-4.2,0-5.9,3.5-8.9,5.9c-0.2-3.8,0.9-6.8,2.8-9.6c1.4-1.9,2.4-4.2,5.2-2.6c-2.8-16-5.9-31.7-4.5-47.7c6.1-0.7,9.9-4,12.9-8.5
		c-2.8,1.9-5.4,4.2-8.5,6.1c-1.2,0.7-3.8,0.7-4.2,0c-1.2-1.4,0-2.6,1.6-3.3c1.4-0.7,3.3-1.4,4-2.6c3.3-5.2,5.6-11.1,4.7-17.4
		c-0.9-5.6-2.4-11.1-3.5-16.7c-0.7-2.4-1.4-4.7-1.9-7.1c-0.7-4-1.2-8.2-1.9-12.5c-1.9-9.9-4.7-19.5-11.1-27.7
		c-0.5-0.7-0.7-1.6-1.4-2.8c5.9-0.2,9.6,2.6,13.4,5.9c2.1,1.6,4.7,3.8,5.4,6.1c1.6,5.2,2.6,10.8,3.1,16.2c0.7,7.5,0.9,15.1,1.4,22.6
		c0.2,4.7,0.9,9.4,1.4,14.1c0.5,3.3,0.9,6.8,1.6,10.1c1.6,6.6,4.7,12.9,4.9,19.5c0.5,12.5,0.9,25.2-1.6,37.9
		c-1.6,7.1-0.9,14.6-1.4,21.9c-0.2,1.2-0.5,2.1-0.7,3.5c-1.4-1.2-2.4-1.6-3.3-2.6c-0.9-0.7-1.9-1.9-2.1-2.8
		c-0.7-3.1-1.4-3.5-4.9-2.1c3.8-0.5,4,1.6,4,4c0,0.5,0.7,1.4,1.2,1.4c4.2,0.9,4.2,4.5,4.7,7.5c0.2,0.7-0.9,1.9-1.6,2.6
		c-0.9,0.7-2.1,1.2-2.8,2.1c-1.6,2.4-3.1,4.9-4.7,7.5c0.5,0,1.2,0,1.2,0.2c1.2-2.1,2.4-4.2,3.8-6.3c0.5-0.7,1.2-1.6,2.1-1.9
		c3.1-0.7,3.1-2.8,2.8-5.2c-0.2-1.2-0.2-2.6,0-3.8c0.2-1.9,1.2-3.5,1.2-5.2c0.5-7.3,0.2-14.3,1.4-21.4c1.4-7.3,1.9-14.6,1.9-21.9
		c0-4.7,0.2-9.6,0-14.3c0-2.4-0.2-4.7-0.7-7.1c-1.2-7.5-4.9-14.1-5.2-21.6c-0.2-6.6-1.6-13.2-2.4-19.8c-0.9-9.6-1.9-19.5-2.6-29.4
		c-0.2-6.8-4.5-11.1-9.2-15.1c-3.3-2.8-7.1-4.9-11.8-4.9c-1.9,0-4-0.5-6.6-0.9c0.9-0.7,1.6-1.2,2.1-1.4c6.3-2.6,11.8-6.6,16.2-12
		c1.4-1.4,2.8-2.4,4.2-3.8c1.2-1.2,2.1-2.1,2.8-3.3c2.4-4.9,4.9-9.6,6.8-14.8c2.1-5.4,4.7-10.3,9.4-14.3
		C554.4,184.6,556,179.9,554.2,174.3z M525.5,374.4c0.2,1.6-0.2,3.1-0.5,4.7c-0.9-1.4-2.1-2.6-2.4-4c-1.9-7.8-3.8-15.5-5.2-23.3
		c-0.5-3.8,0-7.8,0-11.5c0-1.9,0.7-4,0.7-5.9c0.2-4.5,0.2-4.5,4.2-4.9c-0.2,3.3-0.5,5.9-0.5,8.7
		C521.7,350.4,523.3,362.4,525.5,374.4z M462.7,218.9c0.2,0,0.5,0.2,0.7,0.2c-0.5,9.9-0.9,19.8-1.4,29.6
		c-6.6-5.6-13.4-11.1-20.7-17.2C450,229.1,457,225.3,462.7,218.9z M438.7,232.6c1.2,0,2.4,0.5,3.3,1.2c5.4,4.2,10.3,8.5,15.5,12.7
		c1.4,1.2,2.8,2.4,4.5,3.8c-0.2,0.2-0.2,0.5-0.5,0.7c-0.5,1.2-0.9,2.4-1.4,3.5c-5.9-0.2-9.9-4-13.2-8.2c-3.8-5.2-8.2-9.4-14.6-10.8
		c-0.7-0.2-1.2-0.7-2.1-1.2C433.3,233.8,435.9,232.8,438.7,232.6z M478.7,288.3c-11.8-2.6-23.8-2.1-35.5-3.3
		c-6.3-0.7-11.8-3.8-17.2-6.8c-1.9-1.2-4-2.4-6.1-3.5c-0.2,0.2-0.2,0.5-0.5,0.7c3.8,2.4,7.5,4.5,11.1,6.8c-2.4,4.7-9.6,6.8-13.4,4
		c-0.9-0.5-1.4-1.9-1.6-2.8c-1.4-8.7-4.9-16.7-8-24.7c-2.8-7.5-1.6-19.3,6.8-24.9c0.9-0.7,2.4-1.4,4-0.9c9.6,1.9,19,3.8,26.1,11.3
		c1.6,1.9,3.1,4,4.7,5.9c2.8,3.3,6.3,5.6,10.6,6.1c0.9,4.5,1.6,8.7,2.6,12.9c0.5,0,0.7-0.2,1.2-0.2c-0.2-0.7-0.2-1.6-0.5-2.4
		c-1.9-5.2-2.4-10.3,0.5-15.5c0.5-0.9,0.5-2.1,0.5-3.1c0.2-9.4,0.5-19,0.7-28.5v-3.1c-0.2-5.9,1.4-9.2,6.1-13.2
		c-1.4,0.5-2.6,0.9-4.2,1.4c-0.5-7.8-0.9-15.5-1.2-23.3c0-1.4,0.5-3.1,1.4-4.2c2.4-3.1,5.2-5.9,8-8.7c-0.9,1.6-1.6,3.1-2.6,4.7
		c0.2,0,0.2,0.2,0.5,0.2c1.2-2.1,2.6-4,3.8-6.1c2.8-4.5,5.6-8.7,8.5-12.9c0.5-0.7,1.6-0.9,2.6-1.2c0.2,0.2,0.7,0.2,0.9,0.5
		c0.5,1.4,1.6,2.6,1.6,4.2c0.2,6.6,0.7,13.6,0,20.2c-1.2,9.4-0.9,18.8-4.5,27.7c-0.9,2.1,0.5,5.4,0.9,8c0,0.7,0.9,1.4,0.9,2.1
		c0.9,6.6,1.6,13.2,2.6,19.8c0,0.7,0,1.4,0.2,2.1c4,14.6,2.6,28.9,0,43.5C489.2,286,484.1,289.5,478.7,288.3z M518.4,267.9
		c0.5,1.9,0.5,4,0.2,6.1c-0.2,3.3-2.6,5.9-5.6,6.1c-6.8,0.9-13.9,1.2-21.4,1.9c2.4-16.2,3.5-31.3-0.7-47.3c1.9,1.9,3.3,3.1,4.5,4.2
		c2.4,2.4,4.9,2.8,8,2.1c0.7-0.2,1.9,0,2.1,0.5C511.1,249.8,516.5,258,518.4,267.9z M542.4,195.2c-1.6,3.3-2.8,6.6-4.2,9.6
		c-2.4-0.2-4.5-0.9-6.8-0.7c-5.6-0.2-8.5,2.4-9.2,8c-0.2,0.9-0.2,2.1-0.2,3.3c-0.2,3.5-1.4,4.2-4.7,2.6c-0.7-0.5-1.4-0.9-2.1-1.4
		c-3.1-2.1-3.3-2.8-1.2-6.1c-0.5,0.2-1.4,0.5-1.4,0.7c-0.2,1.4-0.9,3.5-0.2,4c2.1,1.6,4.2,3.5,6.8,4.5c2.6,0.7,4-0.9,3.5-3.8
		c-0.7-2.8,0-5.4,2.1-7.3c1.9,0.7,3.5,1.6,5.2,2.4c0.2,0,1.2-0.7,1.6-0.9c-0.5-0.2-0.7-0.9-1.2-1.2c-0.9-0.7-2.1-1.2-3.3-1.9
		c3.3-2.6,6.8-2.6,10.3,0.2c-2.8,4.9-4.2,10.8-9.2,14.6c-2.1,1.4-4,3.3-5.6,5.4c-3.8,4.7-9.2,7.1-14.3,9.4c-1.4,0.7-2.8,1.9-4.2,2.6
		c-3.3,1.9-6.3,1.2-8.7-2.1c-0.2-0.2-0.2-0.5-0.5-0.7c-5.6-5.6-5.6-13.2-6.6-20.2c-0.2-2.8-1.2-5.9-1.6-8.7c0-0.5-0.2-0.9,0-1.2
		c2.6-6.1,2.8-12.5,3.5-18.8c0.3-2.2,1.9-3.1,3.5-3.8c0.4,0,0.9-0.2,1.3-0.5c0.2-0.1,0.4-0.3,0.6-0.4c1.6-0.7,3.3-1.6,4.4-3
		c1.6-1.9,3.5-2.8,5.9-2.8c6.8-0.2,13.4-0.7,20.2-0.9c0.5,0,1.2,0,1.6-0.2c0.7-0.3,1.3-0.4,1.7-0.5c0.2-2,0.3-4-0.2-6
		c-0.8-3.2-2.5-6-2.9-9.3c-0.1-0.9,1-1.1,1.6-0.6c1,0.9,1.9,2,2.6,3.3c0.7,1,1.1,2.2,1.4,3.5c0.8,2.4,1.2,4.9,1.5,7
		c0.2,1.7,0.5,3.6,0.5,5.5c0.4,0.6,0.9,1.1,1.3,1.7c0.6,1.3,1.6,2.4,2.8,3.3c0.1,0.1,0.2,0.1,0.3,0.2c0.6,0.6,1.2,1.2,1.9,1.8
		c0.8,0.6,1.4,1.3,1.8,2.1c0,0.1,0,0.1,0,0.2c0,0.1,0,0.1-0.1,0.2c-0.2,1.2,0.3,2.4,1.2,3.1C543.3,192.4,543,193.8,542.4,195.2z"/>
	<path class="st0" d="M524.3,416.5c2.8-5.6,7.5-9.6,12.5-13.6c-3.5,4.5-7.1,9.2-10.6,13.6C525.5,416.5,525,416.5,524.3,416.5z"/>
	<path class="st0" d="M520.1,399.6c-1.2-0.9-2.6-1.6-3.8-2.6c-8-6.6-16.2-12.7-23.8-19.8c-5.2-4.7-9.9-10.3-14.3-15.8
		c-1.6-2.1-3.3-3.8-7.1-3.1c2.6-2.1,4.5-1.4,5.9,0c4.5,4.7,8.7,9.4,13.2,14.1c3.1,3.3,6.3,6.8,9.9,9.6c6.1,5.2,12.7,9.9,19,14.8
		c0.7,0.5,0.9,1.4,1.6,1.9C520.5,399.3,520.3,399.3,520.1,399.6z"/>
	<path class="st0" d="M488.3,153.6c-1.4,1.2-3.1,2.1-3.8,3.5c-2.4,4.7-4.7,9.6-6.8,14.6c-1.4,3.1-2.4,6.3-3.3,9.2
		c-0.9-3.8,7.1-21.6,12.7-27.7C487.6,153.1,487.8,153.3,488.3,153.6z"/>
	<path class="st0" d="M482,176.6c-0.9-6.1,2.6-10.8,3.5-16.2C484.3,165.6,483.1,171,482,176.6z"/>
	<path class="st0" d="M500.5,224.1c-0.2-2.8,1.4-3.8,3.8-4.2c5.2-1.2,9.2,1.9,13.2,4.5c0.5,0.2,0.2,2.1,0,2.8
		c-0.9,1.6-1.9,3.1-3.3,4.2c-1.6,1.4-3.8,2.8-5.9,3.1c-2.8,0.2-4.9-1.6-5.9-4.5C501.7,228.1,501,226.2,500.5,224.1z M501.2,224.1
		c1.2,2.8,1.9,5.4,3.3,7.3c2.1,3.1,5.9,3.1,8.5,0.2c1.6-1.9,2.8-3.8,4.5-6.1c-4-1.6-7.1-5.2-11.8-4.5c2.1,1.2,4.5,2.4,6.6,3.8
		c1.9,0.9,2.1,2.4,1.2,4.2c-1.2,1.9-2.8,1.9-4.2,0.9C506.6,227.9,504.3,226.2,501.2,224.1z M505.2,222.5c-0.2,0.2-0.2,0.5-0.5,0.7
		c2.6,1.4,4.9,3.1,8.2,4.7C512.1,224.6,508.5,222.5,505.2,222.5z"/>
	<path class="st0" d="M509.2,189.5c3.5,0,9.9,5.2,11.1,9.4C516.3,195.7,512.8,192.6,509.2,189.5z"/>
	<path class="st0" d="M506.2,193.1c1.9,4.5,5.2,6.8,9.6,8c-2.1,0.9-4,0.2-6.8-2.1S505.5,195.7,506.2,193.1z"/>
</g>
</svg>
