<?xml version="1.0" encoding="utf-8"?>
<!-- Generator: Adobe Illustrator 18.1.1, SVG Export Plug-In . SVG Version: 6.00 Build 0)  -->
<!DOCTYPE svg PUBLIC "-//W3C//DTD SVG 1.1//EN" "http://www.w3.org/Graphics/SVG/1.1/DTD/svg11.dtd">
<svg version="1.1" id="Layer_1" xmlns="http://www.w3.org/2000/svg" xmlns:xlink="http://www.w3.org/1999/xlink" x="0px" y="0px"
	 viewBox="0 0 100 54.7" style="enable-background:new 0 0 100 54.7;" xml:space="preserve">
<style type="text/css">
	.st0{fill:#009688;}
</style>
<g id="earwax-recom">
	<path class="st0" d="M69,54.7c0.1-1.8,0.9-3.2,2.5-4.1c0.3-0.2,0.7-0.4,1.1-0.6c0.2-0.2,0.5-0.4,0.7-0.6c0.4-0.5,0.9-1,1.3-1.6
		c0.4-0.6,0.7-1.3,0.9-2.1c0.1-0.7,0.1-1.5-0.1-2.3c-0.2-1-0.4-1.9-0.9-2.8c-0.5-0.8-0.8-1.7-1.2-2.5c-0.1-0.2,0-0.3,0.1-0.4
		c0.2-0.1,0.3,0,0.4,0.2c0.2,0.5,0.4,1,0.7,1.5c0.3,0.6,0.8,1.2,1,1.9c0.2,0.5,0.4,1.1,0.5,1.7c0.2,1.5,0.4,3.1-0.4,4.5
		c0.4-0.2,0.8-0.4,1.1-0.5c1.3-0.6,2.7-1.2,4-1.7c0.9-0.4,1.9-0.8,2.8-1.1c0.4-0.1,0.8-0.1,1.1-0.2c0.9,0,1.7,0,2.6-0.1
		c1.3-0.2,2.5-0.4,3.7-0.7c1.8-0.4,3.4-1.4,4.9-2.4c0.7-0.4,1.3-0.9,1.9-1.5c0.5-0.4,0.8-1,1.2-1.5c0.4-0.5,0.2-1.2,0.3-1.8
		c0-0.2-0.2-0.5-0.4-0.7c-0.4-0.5-0.8-1.1-1.2-1.6c-0.4-0.5-0.7-1.1-1.2-1.6c-1-1-2-2-3-2.9c-0.3-0.3-0.7-0.5-1-0.7
		c-0.7-0.4-1.3-0.9-1.8-1.5c-0.6-0.6-1.3-1.2-1.9-1.7c-0.3,0.2-0.5,0.3-0.7,0.5c-0.1,0.1-0.2,0.1-0.3,0.2c-1,0.9-2.1,1.7-3.3,2.3
		c-0.5,0.3-1,0.5-1.6,0.7c-0.3,0.1-0.4,0.3-0.2,0.6c0.1,0.1,0.2,0.3,0.3,0.5c0.8,0.9,1.5,1.8,2.3,2.7c1,1,2.1,1.8,3.4,2.4
		c0.9,0.4,1.9,0.9,2.8,1.4c0.1,0.1,0.2,0.3,0.2,0.4c-0.1,0.3-0.4,0.2-0.6,0.1c-0.7-0.3-1.3-0.7-2-1c-0.7-0.4-1.4-0.8-2-1.1
		c-0.2-0.1-0.4-0.1-0.6-0.2c-0.1,0-0.2-0.1-0.3-0.1c-0.3-0.1-0.5-0.3-0.8-0.3c-0.9-0.1-1.8-0.1-2.7-0.2c-0.7-0.1-1.5-0.3-2.2-0.4
		c-0.6-0.1-1.2-0.1-1.8-0.2c-0.8-0.1-1.6-0.2-2.4-0.4c-0.1,0-0.2,0-0.3,0c-1.7-0.1-3.2-0.5-4.7-1.3c-1-0.5-2-0.7-3.1-0.3
		c-1.2,0.4-2.5,0.6-3.8,0.6c-0.4,0-0.9,0.1-1.3,0.2c-0.6,0.1-1.1-0.1-1.5-0.4c-0.4-0.3-0.7-0.3-1.1,0.1c-0.5,0.5-1,0.9-1.5,1.3
		c-0.5,0.4-1.2,0.6-1.8,0.8c0,0-0.1,0-0.1,0.1c0,0,0,0,0,0.1c1,0.1,1.9,0.2,2.9,0c0.6-0.1,1.3-0.2,1.9-0.2c0.4,0,0.8-0.1,1.2-0.1
		c0.1,0,0.3,0.1,0.4,0.2c-0.1,0.1-0.2,0.3-0.3,0.3c-0.9,0.1-1.9,0.2-2.8,0.3c-0.6,0.1-1.2,0.2-1.8,0.2c-0.9,0-1.9,0-2.8-0.3
		c-0.6-0.2-1.1,0-1.7,0c-1.6,0.1-3.2,0.1-4.8-0.3c-0.3-0.1-0.7-0.2-1-0.2c-0.2,0-0.5,0.2-0.7,0.2c-0.9,0.1-1.7,0.1-2.6-0.1
		c-0.6-0.2-1.3-0.3-1.9-0.3c-0.8-0.1-1.7-0.1-2.6-0.1c-0.1,0-0.3-0.2-0.4-0.3c0.2-0.1,0.3-0.2,0.5-0.2c0.6,0,1.2,0,1.8,0.1
		c1,0.1,2,0.3,3,0.4c0.5,0.1,1,0.1,1.4,0.2c0,0,0-0.1,0-0.1c-0.1,0-0.2-0.1-0.3-0.1c-0.7-0.3-1.5-0.6-2.1-1
		c-0.5-0.3-0.9-0.9-1.3-1.3c-0.1-0.1-0.2-0.4-0.3-0.5c-0.1-0.1-0.4-0.2-0.5-0.1c-0.5,0.6-1.3,0.6-1.9,0.7c-0.8,0.1-1.6,0.3-2.3,0.7
		c0,0-0.1,0.1-0.1,0.1c-1.2,0-2.5,0.2-3.7-0.1C33,31.8,32,31.9,31,32c-1.1,0.1-2.2,0.3-3.3,0.4c-0.8,0.1-1.5,0.2-2.2,0.4
		c-2,0.6-4.1,0.5-6.2,0.5c-0.8,0-1.6,0.2-2.4,0.3c-0.4,0.1-0.9,0.1-1.3,0.2c-0.4,0.1-0.8,0.2-1.2,0.3c-0.8,0.1-1.5,0.2-2.3,0.3
		c-0.3,0-0.6,0.1-0.8,0.2c-1.1,0.4-2.3,0.6-3.2,1.4c-0.1,0-0.2,0-0.3,0c0-0.1-0.1-0.3,0-0.4c0.2-0.2,0.4-0.4,0.6-0.5
		c1.1-0.4,2.2-0.9,3.4-1.2C12.1,34,12.6,34,13,34c0.2,0,0.4,0,0.6-0.1c0.5-0.1,0.6-0.2,0.5-0.8c-1.3-0.1-2.1-1-3-1.8
		c-0.9-0.7-1.9-1.2-2.9-1.7c-0.6-0.3-1.1-0.6-1.7-1c-0.3,0.4-0.7,0.8-1.1,1.2C5,30.3,4.5,30.7,4,31c-1.2,0.8-2.2,1.8-3.1,3
		c-0.4,0.6-0.3,1.2-0.2,1.8c0.1,1.3,0.9,2.2,2,2.9c1.7,1.1,3.5,2.2,5.4,2.9c0.7,0.3,1.4,0.6,2.1,0.8c0.4,0.1,0.8,0.2,1.1,0.3
		c1,0.1,1.9,0.4,2.8,0.7c0.8,0.3,1.7,0.5,2.5,0.6c1.2,0.2,2.4,0.2,3.6,0.3c1.1,0.1,2.2,0.2,3.3,0.3c0.6,0.1,1.2,0.3,1.8,0.5
		c0.1,0,0.2,0.1,0.2,0.1c0.6,0.7,1.5,1.1,2.3,1.5c0.3,0.1,0.6,0.3,0.9,0.5c-0.1-0.4-0.1-0.7-0.1-1c0-1.4,0-2.7,0-4.1
		c0-0.4,0.3-0.8,0.3-1.2c0-0.2,0-0.4-0.1-0.6c0-0.1-0.2-0.2-0.2-0.4c-0.3-1.2-1-2.3-1.6-3.4c-0.3-0.5-0.5-1-0.7-1.5
		c0-0.1,0-0.2,0.1-0.4c0.1,0,0.3,0.1,0.3,0.2c0.1,0.2,0.2,0.4,0.3,0.7c0.5,0.9,1,1.9,1.5,2.8c0.2,0.4,0.4,0.9,0.6,1.4
		c0.2-0.4,0.3-0.7,0.5-1.1c0.1-0.3,0.2-0.6,0.4-0.9c0.1-0.1,0.3-0.2,0.4-0.3c0,0.1,0.1,0.3,0,0.4c-0.2,0.6-0.5,1.1-0.7,1.7
		c-0.5,1.6-0.9,3.2-0.8,4.9c0.1,0.9,0.1,1.9,0.4,2.8c0,0.1,0.1,0.2,0.2,0.3c0.3,0.3,0.6,0.6,0.8,0.9c0.4,0.8,0.8,1.6,1.3,2.3
		c0.3,0.5,0.7,1,0.9,1.5c0.3,0.7,0.5,1.4,0.7,2.1c-0.3,0-0.6,0-0.9,0c-0.1-0.4-0.2-0.8-0.4-1.1c-0.3-0.6-0.6-1.2-0.8-1.7
		c-0.5-1-0.9-1.9-1.5-2.9c-0.3-0.4-0.7-0.8-1.1-1.1c-0.8-0.5-1.7-0.9-2.6-1.4c-0.2-0.1-0.3-0.2-0.5-0.3c-0.2-0.3-0.6-0.4-0.9-0.5
		c-1-0.3-2.1-0.4-3.1-0.5c-0.8,0-1.6-0.2-2.4-0.3c-0.4,0-0.8-0.1-1.2-0.1c-1.5-0.1-3-0.4-4.4-1c-0.7-0.3-1.6-0.3-2.4-0.5
		c-0.3-0.1-0.7-0.1-0.9-0.3c-0.8-0.5-1.7-0.7-2.5-1c-2.2-0.9-4.4-2-6.2-3.6c-1.2-1.1-1.6-2.6-1.2-4.2c0.2-0.7,0.8-1.2,1.2-1.8
		c0.8-0.9,1.7-1.6,2.7-2.3c0.4-0.2,0.7-0.6,1-0.9c1-0.9,2-1.8,3-2.7c1.1-1,2.4-1.8,3.8-2.6c1.2-0.7,2.4-1.2,3.6-1.8
		c1.1-0.6,2.2-1.1,3.2-1.8c1-0.6,1.8-1.4,2.8-2.1c0.5-0.3,1-0.6,1.4-0.9c0.2-0.2,0.5-0.4,0.6-0.7c0.2-0.5,0.5-0.8,0.9-1.2
		c0.6-0.4,1.1-1,1.7-1.5c0.7-0.7,1.6-1.3,2.5-1.7c0.8-0.4,1.7-0.1,2.4,0.6c0.2,0.2,0.4,0.4,0.7,0.4c0.4,0.1,0.7,0.4,0.9,0.7
		c0.2,0.3,0.4,0.5,0.8,0.5c0.7,0.1,1.1,0.6,1.2,1.2c0.1,0.8,0.8,1.2,1.5,1.2c0.7,0,1.4,0,2.1-0.3c0.2-0.1,0.3,0,0.5-0.1
		c-0.3-0.9,0-1.9,0.2-2.8c0.3-1.7,0.7-3.4,1.2-5c0.2-0.8,0.7-1.4,1.1-2.1c0.5-0.9,1-1.8,1.5-2.6C43.7,2.4,45.1,1,47,0.3
		c1-0.4,2.2-0.4,3.3-0.1c0.3,0.1,0.8-0.1,1.1-0.1c1.1-0.1,2.3-0.2,3.4,0.3c0.6,0.2,1.1,0.5,1.6,0.7c1.1,0.6,2,1.4,2.7,2.4
		c0.5,0.7,1,1.4,1.4,2.1c0.4,0.8,0.8,1.7,1.1,2.6c0.5,1.5,0.9,3,1.3,4.5c0.2,0.8,0.2,1.6,0.3,2.3c0.1,0.4,0.1,0.9,0.2,1.3
		c0,0.1,0.2,0.2,0.3,0.2c0.5,0.1,0.9,0.2,1.4,0.2c0.2,0,0.4,0,0.6,0.1c0.1-0.4,0.1-0.8,0.2-1.1c0.1-0.4,0.3-0.7,0.7-0.8
		c0.7-0.2,1.4-0.5,2-1.1c0.5-0.5,1.1-0.9,1.7-1.3c1.2-0.8,2.5-1.1,3.8-0.3c0.3,0.2,0.6,0.5,0.9,0.8c1,1,2,2,3,3
		c0.2,0.2,0.4,0.4,0.6,0.7c0.3,0.4,0.6,0.8,1,1.2c0.7,0.5,1.2,1.2,1.8,1.7c1.1,0.9,2.3,1.6,3.5,2.4c1,0.7,2.1,1.2,3.1,1.8
		c0.7,0.4,1.3,1,1.9,1.5c0.5,0.5,1.1,1,1.6,1.5c0.3,0.3,0.7,0.6,1.1,0.8c0.8,0.6,1.6,1.1,2.2,1.7c1,0.9,1.9,1.9,2.8,3
		c0.8,0.9,1.4,1.8,2.1,2.8c0.3,0.4,0.5,0.9,0.4,1.4c-0.2,0.8-0.4,1.6-1,2.3c-1.5,1.7-3.4,2.8-5.3,3.8c-1.5,0.8-3,1.2-4.6,1.5
		c-1,0.2-2.1,0.2-3.2,0.3c-1.2,0.1-2.4,0-3.5,0.6c-0.9,0.5-1.9,0.8-2.9,1.2c-1,0.4-2,0.9-3,1.4c-0.4,0.2-0.7,0.4-1,0.6
		c-0.3,0.2-0.6,0.3-0.8,0.4c-0.3,0.3-0.7,0.6-0.9,0.9c-0.3,0.4-0.6,0.7-1,0.9c-0.5,0.3-1.1,0.6-1.6,1c-0.9,0.7-1.3,1.6-1.5,2.7
		c0,0.1-0.1,0.3-0.1,0.4C69.4,54.7,69.2,54.7,69,54.7z M43.5,21.3c0,0-0.1,0-0.1,0c0,0.3,0,0.5,0.1,0.8c0.2,0.8,0.3,1.6,0.5,2.4
		c0.2,0.6,0.5,1.2,0.9,1.8c0.4,0.5,1,0.8,1.2,1.5c0,0.1,0.2,0.2,0.3,0.3c0.9,0.8,1.9,1.3,2.9,2c0.8,0.5,1.6,0.6,2.5,0.3
		c0.6-0.2,1.2-0.6,1.8-0.9c1.3-0.8,2.4-1.8,3.2-3.1c1-1.6,1.5-3.4,1.6-5.3c0-0.8,0.2-1.7,0.2-2.5c0-0.5,0.1-0.9,0.1-1.4
		c0-0.5,0-0.9-0.1-1.4c-0.1-0.7-0.1-1.4-0.4-2c-0.4-1-1.2-1.7-2.3-2c-0.3-0.1-0.6-0.2-0.9-0.3c-0.5-0.1-1-0.2-1.5-0.2
		c-0.9,0.1-1.8-0.1-2.6-0.6c-0.5-0.3-0.8-0.7-0.8-1.3c0.1-0.8,0.2-1.7,0.2-2.5c0.1-0.8,0.1-1.7,0.2-2.5c0-0.2,0.1-0.5-0.2-0.5
		c-0.1,0-0.3,0.3-0.4,0.5c0,0,0,0.1,0,0.1C50,5,49.9,5.6,49.9,6.2c0,0.3,0,0.5-0.1,0.8c-0.1,0.7-0.3,1.4-0.4,2.1
		c-0.1,0.7-0.2,0.8-0.8,0.9c-1.4,0.3-2.8,0.9-3.8,2c-1.7,1.7-2.3,3.8-1.8,6.2C43.1,19.2,43.3,20.2,43.5,21.3z M15,33.3
		c0.4,0,0.8,0,1.2-0.1c1.3-0.4,2.6-0.5,4-0.5c1.9,0.1,3.7-0.1,5.5-0.6c0.8-0.2,1.7-0.3,2.6-0.4c0.5-0.1,1.1-0.1,1.6-0.2
		c1.4-0.3,2.9-0.4,4.3,0c1.1,0.3,2.1,0.2,3.2,0.2c0-0.2,0-0.3,0-0.5c0-1,0-2,0.1-3c0-0.7,0.1-1.3,0.2-2c0.1-1.3,0.3-2.6,0.4-3.8
		c0.1-0.6,0.1-1.2,0.2-1.8c0.1-0.4,0-0.6-0.5-0.6c-0.5,0-1,0-1.5,0.1c-0.9,0.2-1.9,0.2-2.6,0.8c-0.2,0.2-0.4,0.4-0.6,0.5
		c-0.2,0.1-0.4,0.3-0.6,0.4c-0.4,0.2-0.8,0.4-1.2,0.6c-0.6,0.3-1.3,0.6-2,0.4c-0.5-0.1-1-0.2-1.5-0.2c-0.2,0-0.5,0-0.7,0.1
		c-0.5,0.2-0.9,0.5-1.3,0.8c-0.8,0.5-1.6,0.9-2.2,1.5c-1.1,0.9-2.2,2-3.3,3c-0.9,0.8-1.9,1.7-2.8,2.5C16.4,31.2,15.5,32,15,33.3z
		 M85,33.7c-0.1-0.2-0.2-0.3-0.3-0.5c-0.8-0.9-1.6-1.9-2.3-2.8c-0.1-0.1-0.2-0.2-0.3-0.4c-0.7-0.9-1.4-1.8-2-2.8
		c0,0-0.1-0.1-0.1-0.1c-0.7-0.6-1.4-1.1-2-1.7c-1-1.1-2.1-1.8-3.3-2.7c-0.2-0.2-0.5-0.3-0.8-0.4c-0.7-0.2-1.4-0.4-2.1-0.6
		c-0.2-0.1-0.4-0.1-0.6-0.1c-0.6-0.1-1.1-0.1-1.7-0.2c-1-0.3-1.9-0.6-2.9-0.9c-0.8-0.2-1.7-0.3-2.6-0.4c-0.2,0-0.4,0-0.5,0.3
		c0,0.5-0.1,1-0.1,1.4c0,2,0.1,4.1,0.1,6.1c0,0.4,0,0.9,0,1.3c0,0.2,0,0.3-0.1,0.5c-0.1,0.4-0.2,0.8-0.2,1.2c0,0.2,0.1,0.5,0.2,0.5
		c0.3,0.1,0.7,0.1,1.1,0.1c1.1-0.1,2.2-0.3,3.3-0.7c1-0.3,2-0.3,2.9,0.1c0.5,0.2,0.9,0.5,1.4,0.7c1.3,0.3,2.6,0.9,4,0.9
		c0.1,0,0.1,0,0.2,0c0.8,0.1,1.7,0.2,2.5,0.4c0.6,0.1,1.2,0.1,1.7,0.2C82,33.6,83.4,33.8,85,33.7z M27.4,13.7c-0.1,0-0.1,0-0.1,0
		c-1,0.9-2,1.8-3,2.8c-0.5,0.6-0.6,1-0.2,1.7c0.3,0.4,0.5,0.9,0.8,1.3c0.1,0.2,0.2,0.4-0.1,0.5c-0.2,0.1-0.3-0.1-0.4-0.3
		c-0.1-0.4-0.3-0.8-0.5-1.2c-0.2-0.5-0.6-0.6-1.1-0.4c-0.4,0.2-0.9,0.4-1.3,0.7c-0.9,0.6-1.7,1.4-2.6,2c-1,0.7-2.1,1.2-3.2,1.8
		c-1,0.5-2,0.9-2.9,1.4c-0.8,0.4-1.5,0.9-2.3,1.4c-0.5,0.3-0.9,0.7-1.3,1c-0.3,0.2-0.5,0.4-0.8,0.6c-0.4,0.4-0.9,0.7-1.3,1.1
		c0.2,0.2,0.4,0.3,0.6,0.4c0.5,0.3,1.1,0.6,1.6,0.8c1.2,0.5,2.1,1.3,3.1,2.1c0.6,0.5,1.2,0.9,1.9,1c0.3,0,0.4,0,0.5-0.2
		c0.5-1,1.3-1.8,2.1-2.5c1.4-1.2,2.8-2.4,4.1-3.7c1.2-1.2,2.5-2.2,3.9-3c0.6-0.4,1.2-0.8,1.8-1.2c-0.2-0.2-0.4-0.3-0.5-0.4
		c-0.3-0.4-0.6-0.8-0.9-1.1c0,0,0-0.2,0-0.2c0.1,0,0.2,0,0.2,0.1c0.1,0.1,0.1,0.2,0.1,0.2c0.4,0.7,1,1.2,1.8,1.3
		c0.6,0.1,1.2,0.1,1.7,0.2c0.4,0.1,0.8,0.1,1.2-0.1c0.4-0.2,0.8-0.4,1.2-0.6c0.6-0.2,0.7-0.4,0.7-1.1c-0.3,0-0.6,0-0.9,0
		c-0.4,0-0.6-0.3-0.6-0.6c0-0.3,0-0.6,0-1c-0.4,0.2-0.7,0.6-0.7,1c-0.1,0.4-0.3,0.7-0.7,0.9c-0.3,0.1-0.5,0.3-0.5,0.7
		c0,0.1-0.1,0.1-0.2,0.2c0-0.1-0.1-0.2-0.1-0.3c0-0.1,0.1-0.3,0.1-0.4c-0.4-0.2-0.9-0.4-0.9-0.8c0-0.4,0.2-0.8,0.3-1.1
		c-0.8-0.2-1.1-1-0.3-2c-0.9-0.6-0.8-1.3-0.3-1.9C27.7,14.3,27.6,14,27.4,13.7z M72,19.1c0.3,0.7,0.6,1.3,0.7,1.9
		c0.1,0.5,0.4,0.7,0.9,0.7c0.6,0.1,1.2,0.2,1.7,0.7c0.4,0.3,0.8,0.6,1.2,0.9c0.3,0.3,0.7,0.5,0.9,0.8c0.7,0.8,1.7,1.3,2.3,2.2
		c0,0.1,0.1,0.1,0.2,0.1c0.7,0.4,1.2,1,1.6,1.7c0.2,0.3,0.4,0.5,0.5,0.6c2.4-0.9,4.4-2.1,6.2-3.9c-0.3-0.2-0.5-0.4-0.9-0.5
		c-0.8-0.4-1.6-0.8-2.3-1.3c-1.1-0.7-2.1-1.4-3.1-2.1c-0.6-0.4-1.2-0.9-1.7-1.5c-0.4-0.5-1-0.6-1.4-1c-0.4,0.5-0.8,0.9-1.2,1.4
		c-0.1,0.1-0.3,0.1-0.5,0.1c0-0.1,0-0.3,0.1-0.4c0.2-0.2,0.4-0.4,0.7-0.7c0.5-0.6,0.6-0.9,0.1-1.5c-0.1-0.2-0.3-0.4-0.4-0.5
		c-1.1-1.1-2.2-2.3-3.3-3.4c-0.3-0.3-0.7-0.5-1.1-0.8c0,0.5,0,0.9,0,1.3c0.2-0.2,0.4-0.3,0.5-0.4c0.1,0,0.2,0.1,0.4,0.1
		c0,0.1,0,0.2-0.1,0.3c-0.2,0.2-0.3,0.3-0.5,0.4c0.2,0.4,0.4,0.7,0.6,1.1c0.3,0.5,0.5,1,0,1.4c0.9,0.7,0.9,0.8,0.9,1.5
		c0,0.4-0.3,0.7-0.6,0.9c-0.3,0.2-0.7,0.1-1-0.1c-0.2-0.2-0.5-0.3-0.8-0.1C72.2,19,72,19,72,19.1z M44.5,26.4
		C44.5,26.4,44.5,26.4,44.5,26.4c-0.1,0.5-0.1,0.9-0.1,1.4c-0.1,0.8-0.3,1.5-0.9,2.1C43,30.3,43,30.5,43.3,31
		c0.9,1.5,2.4,1.9,3.9,2.4c0.3,0.1,0.6,0.1,0.9,0.1c0.6,0.1,1.3,0.3,1.9,0.4c2.1,0.2,4.1,0.2,6.2-0.2c1.4-0.3,2.4-1,3.4-2
		c-1.6-0.8-3-1.7-3-3.9c-0.2,0.1-0.2,0.2-0.3,0.2c-1.1,1.2-2.3,2.1-3.7,2.7c-1.1,0.5-2.2,0.5-3.3-0.1c-1.1-0.6-2-1.4-2.9-2.2
		C45.7,27.9,45.1,27.1,44.5,26.4z M29.7,19.4c0.2-0.3,0.4-0.6,0.7-0.9c0.5-0.5,1.2-0.6,1.8-0.4c0.6,0.1,0.9-0.2,1.3-0.5
		c0.1-0.1,0.3-0.1,0.4-0.2c0,0.1,0.1,0.1,0.1,0.2c-0.4,0.3-0.7,0.5-1.2,0.8c0.3,0.5,0.1,0.9-0.1,1.3c-0.1,0.3-0.2,0.5-0.3,0.8
		c0,0,0.1,0,0.1,0c0.1-0.1,0.1-0.1,0.2-0.2c0.4-0.2,0.7-0.5,1.1-0.7c0.7-0.2,1.5-0.3,2.2-0.4c0.7-0.1,1.5-0.3,2.2,0.1
		c0.1,0,0.2,0,0.3,0c1.2-0.2,2.4-0.5,3.5-0.8c0.3-0.1,0.5-0.2,0.4-0.6c-0.1-0.2-0.1-0.4-0.1-0.6c0-0.3-0.2-0.4-0.5-0.4
		c-0.9,0-1.8,0-2.7,0.1c-0.5,0-1,0.2-1.6,0.2c-0.8,0.1-1.6,0.2-2.4,0.1c-0.9-0.1-1.4-0.8-1.6-1.7c-0.1-0.4-0.3-0.6-0.7-0.7
		c-0.4-0.1-0.8-0.2-1.1-0.7c-0.1-0.3-0.5-0.4-0.8-0.6c-0.3-0.2-0.6-0.4-0.8-0.6c-0.4-0.4-0.9-0.7-1.5-0.6c-0.2,0-0.4,0.2-0.4,0.3
		c0,0.7-0.4,1.2-0.8,1.7c-0.2,0.2-0.3,0.6-0.4,0.9c0,0.2,0.2,0.5,0.3,0.6c0.2,0.1,0.5,0.1,0.7,0c0.6-0.5,1.1-1.1,1.6-1.7
		c0.2-0.2,0.4-0.4,0.5-0.6c0,0,0.1,0.1,0.1,0.1c-0.7,1.3-1.9,2.3-3,3.2c0.6,0,0.9,0.3,1.1,0.9c0.1-0.1,0.2-0.1,0.3-0.2
		c1-0.7,2-1.5,3-2.2c0.1-0.1,0.4-0.1,0.5-0.2c0,0.1,0.1,0.1,0.1,0.2c-1.5,0.8-2.7,1.8-4,3C29.3,18.7,29.5,19.1,29.7,19.4z
		 M69.1,20.6C69.1,20.6,69,20.5,69.1,20.6c-0.7-0.8-1.4-1.4-1.9-2.1c-0.4-0.5-0.8-0.7-1.4-0.8c-0.4,0-0.8-0.1-1.2-0.2
		c-0.9-0.1-1.7-0.2-2.6-0.3c-0.3,0-0.6,0.2-0.9,0.1c-0.5,0-0.9-0.1-1.4-0.2c-0.2,0-0.5,0-0.5,0.2c-0.1,0.5-0.2,1-0.2,1.4
		c0.9,0.2,1.7,0.4,2.5,0.5c0.6,0.1,1.2,0.3,1.7,0.3c1-0.1,2-0.1,3,0.2C67.2,20,68.1,20.3,69.1,20.6z M69.9,17.8
		c-0.5,0.5-0.9,0.9-1.3,1.4c0.3,0.4,0.7,0.8,1.1,1.2c0.2,0.2,0.4,0.5,0.6,0.5c0.7,0.1,1.3,0.2,2,0.3c0-0.1,0-0.3-0.1-0.4
		c-0.2-0.6-0.4-1.1-0.9-1.5C70.7,18.8,70.3,18.3,69.9,17.8z M68.4,14.8c0.2,0.2,0.3,0.4,0.4,0.5c0.6,0.5,1.2,0.9,2,1.1
		c0.5,0.1,1.1,0.4,1.5,0.6c0.3,0.2,0.6,0.2,0.9,0c-1.2-1-2.4-2.1-3.3-3.4C69.6,14,69,14.4,68.4,14.8z M70.5,13.3
		c0.1,0.3,0.2,0.6,0.4,0.8c0.7,0.8,1.5,1.5,2.3,2.3c0.1,0.1,0.3,0.1,0.3,0.1c0.1-0.1,0.2-0.3,0.1-0.4c-0.1-0.2-0.2-0.4-0.3-0.6
		c-0.3-0.5-0.6-1.1-0.8-1.6c-0.1-0.3,0-0.7,0-1.1C71.9,12.6,71.1,12.8,70.5,13.3z M71.2,17c-0.2,0-0.3-0.1-0.4-0.1
		c-0.9-0.2-1.7-0.6-2.3-1.3c-0.4-0.5-0.7-0.3-1.2-0.2c-0.2,0.1-0.4,0.1-0.5,0.2c-0.1,0.1-0.3,0.2-0.3,0.4c-0.1,0.3-0.1,0.6-0.1,1
		c0,0.1,0.1,0.3,0.2,0.3c0.3,0.2,0.6,0.2,0.8-0.1c0.9-1.1,2-0.7,2.6,0c0.2,0.2,0.4,0.4,0.6,0.7C70.8,17.6,71,17.3,71.2,17z
		 M59.4,16.8c0.3,0.1,0.5,0.2,0.8,0.2c0.1,0,0.3-0.1,0.4-0.1c0.2-0.6,0.4-1.2,0.6-1.8c0.1-0.3-0.1-0.7-0.4-0.8
		c-0.3-0.1-0.6,0.1-0.8,0.4C59.6,15.3,59.5,16.1,59.4,16.8z M31.2,18.4c0,0.4-0.1,0.7-0.1,1c0,0.5,0.3,0.8,0.8,0.6
		c0.2-0.1,0.3-0.1,0.5-0.2c0.4-0.2,0.4-0.9,0.2-1.2C32.2,18.1,31.8,18.3,31.2,18.4z M69.5,17.3c-0.3-0.1-0.5-0.2-0.6-0.3
		c-0.5-0.2-0.8,0.2-1.1,0.4c-0.2,0.2-0.4,0.4-0.2,0.7c0.2,0.3,0.8,0.5,1,0.2C68.9,18.1,69.2,17.8,69.5,17.3z M29.7,19.9
		c-0.1-0.2-0.2-0.4-0.3-0.5C29.2,19.2,29,19,28.8,19c-0.3,0.1-0.6,0.3-0.7,0.5c-0.1,0.2,0,0.5,0.3,0.7
		C28.9,20.5,29.2,20.4,29.7,19.9z M71.6,17.2c-0.2,0.3-0.4,0.7-0.5,1c-0.1,0.3,0.1,0.4,0.3,0.4c0.3,0,0.6-0.1,0.8-0.2
		c0.4-0.2,0.5-0.6,0.1-0.9C72.1,17.4,71.9,17.3,71.6,17.2z M73.9,17.4c-0.1,0.1-0.3,0.3-0.4,0.3c-0.4-0.1-0.5,0.2-0.4,0.5
		c0,0.2,0.2,0.4,0.4,0.5c0.1,0.1,0.4,0.2,0.5,0.1c0.2-0.1,0.3-0.3,0.3-0.5C74.3,17.9,74.2,17.6,73.9,17.4z M43.1,20.6
		c-0.1-0.5-0.2-1-0.3-1.4c-0.1,0-0.2,0-0.2,0c-0.6,0-0.7,0.1-0.4,0.7C42.3,20.2,42.5,20.6,43.1,20.6z M58.8,20.7
		c0.5-0.3,0.7-0.6,0.8-1.1c0-0.2,0-0.4-0.3-0.4c-0.2,0-0.5,0-0.6,0.3C58.8,19.9,58.8,20.3,58.8,20.7z M28.4,18.4
		c0,0,0.1-0.1,0.1-0.1c-0.1-0.2-0.1-0.4-0.2-0.5c-0.1-0.1-0.4-0.1-0.5-0.2c0,0-0.1,0.1-0.1,0.2c0.1,0.2,0.2,0.3,0.3,0.5
		C28,18.4,28.2,18.4,28.4,18.4z M28.3,13.2c0,0-0.1,0-0.1-0.1c-0.2,0.1-0.3,0.2-0.5,0.3c0.1,0.2,0.2,0.4,0.2,0.6c0,0,0.1,0,0.1,0
		C28.1,13.8,28.2,13.5,28.3,13.2z"/>
	<path class="st0" d="M51.2,28c-1.2-0.1-2.3-0.4-3.1-1.2c-0.2-0.2-0.4-0.6-0.5-0.9c0.3-0.1,0.7-0.2,1-0.3c0.3-0.1,0.7-0.1,1-0.1
		c0.1,0,0.1,0,0.2,0c1,0.4,2-0.2,2.9-0.1c0.4,0,0.8,0.2,1.2,0.3c0.4,0.2,0.4,0.3,0.2,0.7c-0.5,0.8-1.3,1.3-2.2,1.6
		C51.7,27.9,51.4,28,51.2,28z M48.4,26.5c1.6,1.3,3.5,1.5,4.9,0C51.7,26.5,50,26.5,48.4,26.5z M53.6,26c0,0,0-0.1,0-0.1
		c-0.1-0.1-0.3-0.2-0.4-0.2c-0.5,0-0.9,0-1.4,0c-0.5,0-0.9,0.1-1.4,0.2c-0.3,0-0.7-0.1-1-0.1c-0.4,0-0.7,0.1-1.1,0.1
		C50.2,26.5,51.9,26.2,53.6,26z"/>
	<path class="st0" d="M50.3,19.6c-0.1,1-0.2,2-0.8,2.9c-0.1,0.1-0.2,0.3-0.2,0.4c-0.2,0.6,0,0.9,0.7,0.9c0.4,0,0.7,0,1,0.3
		c0.2,0.2,0.5,0.2,0.7,0c0.3-0.3,0.6-0.5,1-0.5c0.4,0,0.7-0.6,0.5-1.1c-0.1-0.2-0.3-0.4-0.4-0.5c0-0.1,0-0.2,0-0.3
		c0.1,0,0.2,0,0.2,0c0.6,0.4,0.7,1.5,0.2,2c-0.1,0.1-0.2,0.2-0.3,0.2c-0.4,0-0.7,0.3-1,0.5c-0.2,0.2-0.5,0.3-0.8,0
		c-0.4-0.3-0.9-0.3-1.4-0.4c-0.5-0.1-0.8-0.5-0.7-1c0.1-0.3,0.2-0.5,0.4-0.8c0.5-0.6,0.7-1.4,0.7-2.1c0-0.5,0-1-0.1-1.6
		c-0.1-0.7-0.4-0.9-1-0.9c-0.4,0-0.7-0.1-1-0.2c-0.8-0.3-1.7-0.5-2.6-0.4c-0.1,0-0.2-0.1-0.4-0.2c0.1-0.1,0.2-0.3,0.3-0.3
		c0.6,0,1.3,0,1.9,0.1c0.6,0.1,1.1,0.2,1.7,0.3c0.2,0,0.3,0.1,0.4,0.2C50.2,17.8,50.4,18.6,50.3,19.6z"/>
	<path class="st0" d="M56.4,16.6c0.2,0,0.4,0,0.6,0.1c0.1,0,0.1,0.2,0.2,0.3c-0.1,0.1-0.2,0.2-0.3,0.2c-1-0.3-1.9,0.1-2.8,0.5
		c-0.4,0.2-0.8,0.1-1.2,0.2c-0.1,0-0.2-0.1-0.2-0.1c0-0.1,0.1-0.3,0.2-0.3c1.1-0.3,2.1-0.5,3.2-0.7C56.1,16.6,56.2,16.6,56.4,16.6
		C56.4,16.6,56.4,16.6,56.4,16.6z"/>
	<path class="st0" d="M49.1,18.5c-0.4,0.7-1.1,0.9-1.7,1.2c-0.2,0.1-0.7,0-0.9-0.2c-0.4-0.3-0.8-0.8-1.2-1.2
		c0.2-0.2,0.3-0.2,0.5-0.1c0.2,0.2,0.4,0.4,0.6,0.5c0.6,0.4,1.2,0.3,1.8,0c0.3-0.1,0.5-0.2,0.8-0.3C49.1,18.4,49.1,18.4,49.1,18.5z"
		/>
	<path class="st0" d="M52.7,18.4c0.4-0.1,0.7-0.1,1,0.2c0.4,0.4,1,0.5,1.5,0.2c0.2-0.1,0.4-0.3,0.6-0.4c0.1,0,0.3,0,0.4,0.1
		c0.1,0,0,0.3,0,0.4c-0.8,1-1.8,1.1-2.7,0.2C53.2,18.9,53,18.7,52.7,18.4z"/>
</g>
</svg>
