<?xml version="1.0" encoding="utf-8"?>
<!-- Generator: Adobe Illustrator 18.1.1, SVG Export Plug-In . SVG Version: 6.00 Build 0)  -->
<!DOCTYPE svg PUBLIC "-//W3C//DTD SVG 1.1//EN" "http://www.w3.org/Graphics/SVG/1.1/DTD/svg11.dtd">
<svg version="1.1" id="Layer_1" xmlns="http://www.w3.org/2000/svg" xmlns:xlink="http://www.w3.org/1999/xlink" x="0px" y="0px"
	 viewBox="404.8 229 150 106" style="enable-background:new 404.8 229 150 106;" xml:space="preserve">
<style type="text/css">
	.st0{fill:#009688;}
</style>
<g id="earwax-lady-main">
	<path class="st0" d="M512.7,260.2c-0.8,1.5-1.3,3-1.9,4.5c0,0.3,0.1,0.6,0.1,0.9c0.1,0,0.1,0,0.3,0c0.1-0.1,0.1-0.4,0.3-0.5
		c0.6-1.5,1.1-2.9,1.8-4.3c0.3-0.6,1-1.1,1.6-1.3c0.8-0.1,1.5,0.3,2.1,0.6c2.5,1.6,5,3.4,7.5,5.1c1.1,0.8,2,1.8,3.1,2.5
		c1.9,1.5,3.9,2.9,5.9,4.3c2.4,1.6,4.9,3,7.9,3.4c0.8,0.1,1.5,0.4,2.1,0.8c3.8,2,7.4,4.3,10.8,7c0.1,0,0.4,0.1,0.5,0
		c0,0,0.1-0.4,0-0.5c-0.3-0.3-0.5-0.6-0.8-0.8c-3.4-2.1-6.9-4.4-10.3-6.5c-0.8-0.5-1.6-0.8-2.5-0.9c-2.5-0.4-4.8-1.4-6.8-2.8
		c-3.9-2.6-7.5-5.5-11.3-8.4c-0.3-0.3-0.5-0.6-0.5-1c-0.1-1.3-0.1-2.5-0.1-3.8c0-1.1,0-2.3-0.3-3.3c-0.8-3.4-2.4-6.1-5.4-7.9
		c-1.9-1.3-3.9-2.1-6.3-1.8c-0.3,0-0.6-0.3-0.8-0.5c-0.4-0.5-0.6-1.1-1-1.8c-0.7-1.1-1.4-2.2-2.1-3.3c-0.5-0.9-0.9-1.8-1.5-2.6
		c-0.1-0.1-0.2-0.3-0.3-0.3c-1.7-2.4-3.8-4.3-6.5-5.8c-0.4-0.3-0.8-0.6-1.1-0.9c-1.1-0.6-2.3-1.4-3.4-1.5c-3-0.1-6.1-0.3-9.3,0.4
		c-1,0.3-2.1,0.4-3.1,0.4c-2.5,0-5,0.4-7.3,1.4c-0.4,0.3-0.9,0.3-1.3,0.4c-0.6,0.1-1.3,0.3-1.9,0.6c-1.1,0.8-2.3,1.5-3.4,2.1
		c-0.9,0.6-2,0.9-2.9,1.6c-0.5,0.4-1,0.9-1.4,1.3c-1.6,0.8-3.1,1.9-3.8,3.5c-0.3,0.3-0.7,0.7-1,1c-0.3,0.3-0.5,0.5-0.5,0.9
		c-0.1,1.3-0.3,2.5-0.5,3.8c-0.1,1-0.4,1.9-0.6,2.9c-0.3,1-0.5,2-0.6,3.1c-0.1,1.8-0.1,3.5-0.1,5.3c0,0.9-0.4,1-1.1,0.6
		c-0.9-0.4-1.8-0.6-2.6-0.8c-0.5-0.1-0.9-0.3-0.9-0.9c-0.1-1.6-1.8-3.1-3.4-3.3c-2.4-0.3-4,1.1-5.5,2.8c-0.3,0.3-0.5,0.6-0.5,1
		c-0.1,0.8-0.5,1-1.3,1.1c-1.6,0.4-3.4,0.8-5,1.3c-1.4,0.4-2.8,0.9-4.1,1.4c-0.6,0.3-1.1,0.5-1.6,0.9c-1.6,1.5-3.5,3-5,4.8
		c-2.1,2.3-4,4.9-6.5,6.8c-1.8,1.3-3.3,2.9-4.6,4.5c-1.1,1.4-2.4,2.6-3.5,4c-0.9,1-1.9,2-2.5,3.1c-1.1,2-2.1,4-3.1,6
		c-0.3,0.4-0.4,0.9-0.4,1.4c0,1.6,0.1,3.3,0.3,4.9c0.4,2,3.3,7.3,4.8,8.9s3.5,2.4,6.1,3.9c1.9,1,3.6,2,5.5,3.1
		c1.8,1.1,3.5,2.4,5.4,3.5c1.5,0.9,2.9,1.6,4.4,2.4c1.4,0.8,2.8,1.5,4.3,1.9c2.6,0.6,5.4,1,8.1,1.4c1,0.3,2,0.3,3.3,0.4
		c-0.4,1-0.6,2-1,2.9c-0.6,1.5-1,3-1.1,4.6c-0.1,1.8-0.4,3.4-0.6,5h1c0.1-2,0.4-4,0.5-6c0.1-1.8,1.1-3.3,1.8-4.8
		c0-0.1,0.3-0.3,0.3-0.5c0.5-3,1-5.9,1.4-8.9c0.4-2,0.4-4,0.9-6c0.6-2.8,1.8-5.3,3.5-7.5c0.8-1,1.3-2.3,1.9-3.3
		c0.1-0.3,0.4-0.4,0.6-0.4c2-0.3,4-0.6,6.1-0.8c0.6,0,1.4,0.3,2,0.5c1.1,0.5,2.1,1,3.3,1.6c0.1,0.1,0.3,0.4,0.4,0.6
		c0.5,1,1.1,2.1,1.8,3.1c0.3,0.4,0.9,0.6,1.4,0.8c1,0.4,2,0.6,3.1,0.8c1.1,0.3,2.4,0.4,3.5,0.4c0.5,0,0.8,0.1,0.9,0.6
		c0.4,1.4,0.4,2.4-0.5,3.6c-2.4,3.5-4.8,7-6.9,10.6c-1.4,2.4-2.6,4.8-3.1,7.5c-0.5,2.6-0.9,5.1-1.4,7.8h0.8c0.4-2.4,0.8-4.8,1.3-7.1
		c0.9-3.9,2.8-7.4,4.9-10.8c1.8-2.8,3.6-5.3,5.4-8c0.3-0.5,0.5-1.3,0.5-1.9c0.1-0.6-0.1-1.4-0.3-2.3h2.1c1,0,1.9-0.1,2.8-0.8
		c1.3-0.9,2.5-1.6,3.8-2.5c2.4-1.5,4.6-3.1,6.4-5.4c0.4-0.6,1-1.1,1.6-1.6c0.8-0.6,1.5-1.3,2.1-1.9c0.1-0.1,0.1-0.4,0.1-0.6h-0.6
		c-0.1,0-0.3,0.1-0.4,0.3c-1.6,1.4-3.1,2.9-4.6,4.4c-0.6,0.6-1.3,1.4-2,1.9c-1.6,1.3-3.4,2.4-5,3.6s-3.3,2-5.4,1.8
		c-1.4-0.1-2.6,0-4,0c-0.5,0-1.1-0.1-1.8-0.3c-1.1-0.3-2.3-0.4-3.4-0.8c-0.4-0.1-0.9-0.5-1.1-0.9c-1.4-2.4-2.8-4.9-4-7.3
		c-0.8-1.4-1.4-2.8-2.1-4.1c-1.1-2.1-2.3-4.3-3.5-6.4c-1-1.8-1.4-3.5-1.3-5.4c0-2.8,0.3-5.6-0.5-8.5c1.9,0,3.6,0.1,5.5,0.3
		c-0.1,0.8-0.1,1.8-0.4,2.6c-0.8,2.8-1.5,5.5-2.3,8.3c-0.3,1.1,0.8,3.1,1.9,3.5c0.6,0.1,1.4,0.3,1.9,0.1c1.6-0.5,3.1-1.1,4.6-1.8
		c0.6-0.4,1.4-1,1.9-1.6c0.6-0.6,0.4-1.5-0.4-2.1c-0.9-0.6-1.8-0.8-2.6-0.5c-0.8,0.3-1.1,0.9-1,1.5c0.1-0.3,0.4-0.4,0.5-0.5
		c0.8-0.8,2-0.8,2.8,0c0.4,0.4,0.5,0.9,0.1,1.3c-0.4,0.5-1.1,1.3-1.4,1.1c-1.5-0.6-2.6,0.3-3.8,0.6c-0.3,0-0.4,0.4-0.5,0.6
		c-0.3,0.3-0.4,0.6-0.6,0.6c-1.6,0.3-3.3-1.4-2.9-3c0.8-2.8,1.5-5.4,2.3-8c0.8-2.6,0.4-4.4-1.6-6.1c-0.4-0.4-0.8-0.6-1-1
		c-0.5-0.8-1.1-1.1-2-1.1c-0.6,0-1.1-0.1-1.6-0.3v-0.9c0-2.3,0.1-4.6,0.1-7c-0.1-3.3-0.1-6.4,1.1-9.5c0-0.3,0.3-0.5,0.4-0.6
		c0.4-0.4,0.9-0.6,1.4-1c1-0.8,2.3-1,3.4-0.6c2,0.8,4,0.8,6,0c1.3-0.5,2.3-0.1,3.4,0.6c1.4,1,2.9,2,4.5,2.4c1.8,0.5,3.8,0.4,5.6,0.5
		c0.4,0,0.9-0.1,1.3,0c0.9,0.1,1.6,0.1,2.1,1c0.3,0.6,0.6,1.3,1,1.9c0.6,0.9,0.9,1.8,0.9,2.8c0,1.5-0.1,2.9,0,4.4
		c0,0.5,0.1,1.3,0.3,1.9c0.8,1.4,1.6,2.6,2.5,3.9c1.4,2,1.4,1.4-0.1,3.1c-1.3,1.4-1.3,3.5-0.3,5c0.9,1.3,2.3,1.6,3.5,2.1
		c1.4,0.5,1.9,0.3,2.5-1c0-0.1,0.1-0.1,0.3-0.3c0,0.1,0,0.1,0,0.3c-0.4,2.3,0,3,2.1,3.9c0.4,0.1,0.6,0.3,0.9,0.4
		c0.6,0.3,1.1,0.5,1.8,0.8c-0.6,0.6-1.1,0.5-1.8,0.3c-1.8-0.6-3.4-1.4-5.1-2c-1.6-0.6-3.3-0.4-4.6,0.8c-0.9,0.6-1,1.6-0.3,2.4
		c1.5,1.5,2.8,3.4,5.3,3.6c0.1,0,0.3,0,0.4,0.1c2.4,1.5,4.9,2.5,7.5,3.4c0.3,0.1,0.5,0.5,0.6,0.8c0.6,1.6,1.1,3.5,1.9,5.1
		c1.3,2.9,3.3,5.4,5.5,7.6c2.3,2.1,4.6,3.8,7.6,4.5c1.1,0.3,2.1,0.9,3.3,1.4c0,0,0,0.1,0,0.3c-0.5,0.3-1.1,0.4-1.6,0.6
		c-1,0.5-2.1,0.9-3,1.4c-1.1,0.6-2.1,1.4-3.1,2.1c-3.4,2.5-6.6,4.9-9.9,7.4c-0.1,0.1-0.4,0.1-0.5,0.3c-0.8,0.4-1.5,0.5-2.1,0.9
		c-0.9,0.4-1.8,0.5-2.8,0.4c-1.9-0.3-3.6-0.5-5.4-1c-1.6-0.5-2.9,0-4.1,0.9c-0.6,0.5-1.5,0.9-2.3,1.1c-1.3,0.5-2.6,0.9-3.9,1.3
		c-0.1,0-0.1,0.1-0.4,0.4c0.6,0,1,0.1,1.4,0c2.1-0.8,4.4-1.1,6.3-2.5c0.5-0.5,1.4-0.8,2.1-0.6c2,0.3,4,0.8,6,1.1
		c1.3,0.1,2.4,0.1,3.5-0.5c0.1,0,0.3,0,0.6-0.1c-0.3,0.4-0.4,0.5-0.5,0.8c-2.5,3.1-5,6.3-7.5,9.3c-0.6,0.6-1.4,1.1-2,1.9
		c-0.8,0.8-1.4,1.6-2,2.5c0.3,0,0.5,0,0.6,0.4c0.8-0.8,1.5-1.6,2.3-2.4c0.8-0.9,1.8-1.8,2.5-2.8c2.1-2.5,4.1-5,6.1-7.5
		c1.5-2,3.3-3.6,5.3-5.1c3.1-2.3,6.4-4.5,9.6-6.8c0.9-0.6,2.1-1,3.1-1.5c0.8-0.4,1.4-0.8,2.1-1.1c0.3-0.1,0.5-0.1,0.8,0
		c1.6,0.4,3.1,0.9,4.6,1.4c2.1,0.8,4.4,0.5,6.5,0.8c2.4,0.3,4.8,0.6,7.1,1c1.8,0.3,3.4,0.5,5,0.8c0.8,0.1,1.4,0.5,2.3,0.9
		c-0.4,0.3-0.6,0.4-0.8,0.5c-3.1,1.5-5.9,3.5-8.3,6.1c-2,2.3-2.8,4.9-3.1,7.6c-0.3,2.1-0.4,4.3-0.6,6.4c-0.1,0.6-0.4,1.3-0.5,1.9h1
		c0.1-1,0.4-1.9,0.5-2.9c0.4-2.5,0.6-5,1-7.5c0.3-1.8,1.1-3.3,2.3-4.6c1.6-2,3.5-3.6,5.6-4.9c1-0.6,2.1-1.3,3.3-1.8
		c0.4-0.1,1,0,1.5,0.1c0.6,0.3,1.3,0.6,1.9,1c0.4,0.1,0.6,0.5,1,0.8c0,0,0.1,0.1,0.3,0.1c0.3-0.1,0.5-0.3,0.8-0.4
		c-0.1-0.3-0.1-0.5-0.4-0.6c-2-1.1-4.1-2.1-6.3-3.3c-0.3-0.1-0.6-0.3-0.9-0.3c-2.6-0.5-5.1-0.9-7.8-1.3c-1.5-0.3-3.1-0.5-4.8-0.6
		c-1.8-0.1-3.5-0.1-5.3-0.5c-3-0.6-5.9-1.5-8.6-3c-0.5-0.3-0.9-0.4-1.4-0.5c-2.4-0.5-4.6-1.5-6.4-3.3c-1.6-1.5-3-3-4.4-4.6
		c-1.5-1.8-2.5-3.9-3.3-6.3c-0.3-0.8-0.5-1.5-0.8-2.4c0.4,0.1,0.6,0.1,0.8,0.1c1.3,0,2.6,0.3,3.8,0c1.4-0.4,2.8-1.1,4.1-1.6
		c1.5-0.6,2.9-1.1,4.4-1.6c0.8-0.3,1.8-0.3,2.5,0.3c1.9,1.1,3.6,2.1,5.5,3.3c1.4,0.9,2.8,1.6,4.1,2.5c0.6,0.4,1.3,0.9,2.1,0.9
		c0.5,0,1,0.3,1.4,0.5c1.6,1.1,3.4,2.3,5,3.4c0.5,0.4,1.1,0.9,1.9,1.1c3.3,1.1,5.5,3.5,7.9,5.8c1.9,1.8,3.4,3.9,5,5.8
		c0.3,0.1,0.4,0.4,0.5,0.4c0.3,0.1,0.5,0,0.8,0c-0.1-0.3-0.1-0.5-0.3-0.6c-0.3-0.4-0.8-0.8-1-1.1c-2.6-3.6-5.9-6.8-9.5-9.4
		c-1.1-0.8-2.5-1.1-3.6-1.9c-2-1.1-3.9-2.5-5.8-3.8c-0.5-0.4-1.1-0.9-1.6-0.9c-1.1-0.1-2-0.8-2.9-1.4c-1.3-0.9-2.6-1.5-3.9-2.3
		c-1.8-1-3.4-2.1-5.1-3.1c-1.1-0.8-2.4-0.8-3.6-0.3c-2.5,0.9-5,2-7.6,2.9c-0.8,0.3-1.6,0.3-2.4,0.4c-1.1,0.3-1.9-1.3-3-0.9
		c-2.1-0.9-4.3-1.8-6.4-2.6c-1-0.5-2.1-0.9-3.1-1.4c-0.4-0.1-0.9-0.3-1.1-0.5c-1-0.8-1.9-1.8-2.8-2.6c-0.4-0.5-0.4-1,0.1-1.4
		c1.1-0.9,2.4-1.3,3.8-0.8c1.9,0.6,3.6,1.5,5.5,2.1c0.5,0.1,1.1,0.3,1.5,0.1c0.9-0.3,1.8-0.5,2.5-1c1.5-0.9,3-1.9,4.4-2.8
		c0.5-0.3,0.9-0.6,1.3-1c0.1-0.3,0.1-0.5,0.1-0.8c-0.3,0.1-0.4,0.1-0.6,0.3c-1.6,1.1-3.1,2.1-4.8,3.3c-0.3-0.6-0.5-1-0.6-1.4
		c-0.6-2.3-0.6-4.6-0.5-6.9c0-0.8,0.1-1.8,0.6-2.4c1-1.5,2.3-2.9,3.4-4.4c0.9-1.1,1.8-2.4,2.8-3.6c-0.9-0.3-1,0.4-1.4,0.8
		c-0.8,1-1.4,1.9-2.1,2.8c-0.1,0.3-0.5,0.5-0.8,0.5c-0.8,0-1.4,0-2-0.1c-0.1,0,0-0.8-0.1-1.1c-0.1-0.3-0.3-0.4-0.4-0.5
		c0,0.1-0.3,0.3-0.3,0.5c-0.1,1.4-0.4,1.8-1.4,2c-0.5-0.5-0.9-1-1.3-1.5c0,0-0.1,0.1-0.3,0.1c0.1,0.3,0.1,0.5,0.3,0.8
		c0.9,1.5,0.5,4.3-0.6,5.5c-0.6,0.6-0.9,0.5-1.4-0.3c-1.8-2.6-0.6-5.3,0.6-7.6c0.1-0.3,0.3-0.6,0.5-0.9c0.7-0.4,1.4-0.8,2.1-1.2
		c0.3-0.1,0.6-0.3,0.9-0.4c0.1,0,0.1,0,0.2,0c0.6,0,1.1-0.1,1.8-0.1c2.8,0,5.4,0,8,0.1c0.5,0,0.9,0.3,1.5,0.5
		C513.5,259.4,513,259.8,512.7,260.2z M456.6,263.9c0,1-0.3,2.1-0.4,3.1c0,0.1-0.1,0.3-0.1,0.3c-0.6,0.8-1.3,1.5-2,2.1
		c-0.5,0.5-2-0.3-2.1-1c-0.3-1,0-1.4,1.1-1.3h0.5c0.1,0,0.4-0.1,0.4-0.3s-0.1-0.5-0.3-0.5c-0.5-0.1-1-0.3-1.5-0.4
		c-1.3,0.1-2.6,0.4-3.9,0.4c-1,0.1-2,0.1-3,0.1c-0.9-0.1-1.4-0.9-1.3-1.6c0.1-0.9,0.6-1.3,1.5-1.3c0.5,0,1.3,0,1.6-0.3
		c2-1.3,4.3-1.1,6.5-0.9c0.6,0,1.1,0.1,1.8,0.1C456.6,262.8,456.7,262.9,456.6,263.9z M457,270.4c-0.8-0.1-1.4-0.1-2.3-0.3
		c0.5-0.6,0.9-1.1,1.4-1.9C456.5,269,456.7,269.7,457,270.4z M452.7,258.4c0.9,0.1,1.6,0.4,2.4,0.6c0.1,0,0.1,0.1,0.3,0.1
		c0.4,0.1,1,0.1,1,0.4c0.1,0.6,0.1,1.3,0.1,1.9c0,0.1-0.3,0.4-0.4,0.4c-0.3,0.1-0.6,0-0.9,0c-1.4-0.1-2.9-0.1-4.4,0
		c-1.3-0.1-2.4,0.3-3.5,0.8c-0.5,0.1-1,0.3-1.5,0.4c-0.3,0-0.8-0.3-0.8-0.4c0-0.4,0-1,0.3-1.1C447.6,260,449.7,258,452.7,258.4z
		 M443.7,256.8c1.1-1.5,2.5-2.4,3.8-2.5c2,0,3.4,1,3.6,2c0.1,0.6,0,0.9-0.6,1.1c-1.4,0.5-2.6,1.3-3.9,1.9c-0.4,0.3-0.8,0.5-1.1,0.5
		c-0.8,0.1-1.5,0.1-1.9-0.6C443.2,258.4,443.2,257.5,443.7,256.8z M452.8,299.9c-3.5,4.3-4.9,9.3-5.1,14.8c0,1.9-0.6,3.9-0.9,5.8
		c0,0.5-0.4,0.6-0.9,0.6c-1.8-0.3-3.8-0.1-5.4-0.6c-1.5-0.5-3.1-0.5-4.5-1c-1.9-0.6-3.6-1.4-5.4-2.3c-1.5-0.8-2.8-1.5-4.1-2.3
		c-1.8-1-3.4-2.1-5-3.1c-1.9-1.1-3.9-2.3-5.9-3.4c-1.9-0.9-4-1.5-5.3-3.3c-1.9-2.6-3.9-5.1-4.4-8.4c-0.3-1.4-0.3-2.9-0.3-4.4
		c0-0.4,0.1-0.8,0.3-1.1c1.1-2.1,2.3-4.3,3.5-6.4c0.5-0.9,1.1-1.5,1.8-2.3c1.8-2,3.5-4,5.1-5.9c0.6-0.8,1.4-1.5,2.1-2
		c2.6-1.9,4.5-4.3,6.6-6.5c1.8-1.9,3.8-3.8,5.6-5.5c0.4-0.4,1-0.5,1.5-0.8c1.3-0.5,2.6-1,3.9-1.4c2-0.5,3.9-1,5.9-1.5
		c0.3,0,0.5,0.3,0.6,0.4c0.4,0.4,0.9,0.8,1.3,1.1c0.1,0.1,0.4,0.3,0.4,0.4c-0.1,0.9-0.3,1.9-0.6,2.6c-0.5,0.8-0.9,1.6-0.4,2.5
		c0.5,0.9,1.3,1.5,2.4,1.4c1.3-0.1,2.4-0.3,3.5-0.4c0.5-0.1,0.9-0.1,1.3-0.1c0.4,0,0.6,0.3,0.5,0.6c-0.3,1.4,0.5,2,1.6,2.6
		c1.4,0.6,2.8,1.1,4.3,1c0.6,0,0.5,0.6,0.5,1c0.1,1.1,0,1.3-1,1c-3-0.8-6-0.8-9-0.6c-0.9,0-1.8-0.3-2.5-0.9c-2.1-1.8-4.6-2.5-7.4-2
		c-1.4,0.1-2.8,0.3-3.8,1.3l-0.4,0.4c-0.1,0.3-0.3,0.6-0.4,1c0.3-0.1,0.6-0.1,0.9-0.4c1.1-1.1,2.6-1.3,4.1-1.5
		c2-0.4,3.9,0.3,5.6,1.3c0.4,0.3,0.6,0.5,0.9,0.8c0,0.1-0.1,0.1-0.1,0.3c-0.5,0-1-0.1-1.6-0.1c-0.3,0-0.6-0.1-0.9-0.1
		c-0.3,0-0.4,0.3-0.5,0.4c0.1,0.1,0.3,0.4,0.4,0.4c0.9,0.1,1.6,0.4,2.5,0.4c2.1,0,4.3-0.3,6.4-0.1c2,0.1,3.9,0.5,5.9,0.8
		c0.3,0,0.6,0.3,0.6,0.5c0,0.3-0.3,0.6-0.5,0.8c-0.9,0.8-1.9,1-3,1h-6c-1,0-1.9,0.3-2.6,0.9c-0.4,0.3-0.8,0.5-1,0.8
		c-1,1.1-2.3,1.4-3.8,0.9c-1.4-0.5-2.6-0.5-4-0.4c-1,0.1-2,0-3,0c-0.6-0.1-0.9,0.1-1.1,0.8c-1,2.4-2.1,4.5-4.3,6
		c-1.8,1.3-1.6,3.4-1,4.8c0.5,0.9,1.3,1.8,1.9,2.6c-0.1,0-0.3,0.1-0.5,0.3c-1.8,0.9-3.6,1.8-5.4,2.6c-0.1,0.1-0.3,0.1-0.4,0.3
		c-2.1,1.3-4.1,2.5-6.1,3.9c-0.8,0.5-1.5,0.6-2.4,0.5c-0.3,0-0.4-0.1-0.6-0.1s-0.4,0.1-0.5,0.4c0.1,0.1,0.3,0.4,0.4,0.5
		c1.3,0.6,2.5,0.6,3.6-0.1c2-1.3,3.9-2.6,5.9-3.8c1.9-1.1,4-2,6-3.1c1.1-0.6,1.9-0.5,2.8,0.3c0.3,0.3,0.8,0.4,1.1,0.4
		c2,0,3.8,0.9,5.5,1.4c2.8,0.9,5.4,1.6,8.3,1.9c1.5,0.1,2.9,0.5,4.4,0.5c1.1,0,2.1-0.3,3.3-0.4C453.6,298.7,453.3,299.3,452.8,299.9
		z M459,284.9c1.3,2.1,2.5,4.4,3.6,6.5c0.8,1.5,1.5,3,2.3,4.5c0.4,0.5,0.6,0.9,1,1.4l-0.1,0.1c-0.3-0.1-0.5-0.1-0.6-0.3
		c-1.8-1.4-3.9-1.3-5.9-1c-1.6,0.1-3.1,0.4-4.6,0.6c-0.4,0-0.8,0.1-1.1,0.3c-1.9,0.9-3.9,0.6-5.8,0.4c-0.9-0.1-1.8-0.3-2.6-0.4
		c-3-0.6-6-1.4-9-2.5c-0.9-0.4-1.9-0.4-2.9-0.5c-0.9,0-1.5-0.3-2-0.9c-0.4-0.4-1-0.6-1.5-1c-1.4-0.9-2.3-2.1-2.1-3.9
		c0-0.6,0.1-1.1,0.6-1.5c2.3-1.8,3.6-4.1,4.9-6.5c0.1-0.3,0.5-0.5,0.8-0.5c1.3-0.1,2.6-0.3,4-0.1c1,0,1.9,0.3,2.9,0.5
		c1.3,0.3,2.3,0.1,3.3-0.6c3.1-2.4,2-2,6.3-2c1.1,0,2.4,0.1,3.6,0c1.3-0.1,2.4-0.5,3.6-0.8c0,0.3,0,0.9,0.1,1.8
		C457.3,280.9,457.8,282.9,459,284.9z M458.3,266.5h0.6c1.1-0.1,2,0.4,2.5,1.3c-1,0.4-2.1,0.8-3.3,1.4c-0.5,0.3-0.9,0-1-0.5
		c0-0.3-0.1-0.4-0.1-0.5C456.8,266.8,457.1,266.5,458.3,266.5z M459.5,242.8c0-0.1,0.1-0.3,0.1-0.4c0,0,0,0.1,0,0.1
		C459.6,242.6,459.5,242.7,459.5,242.8z M468.5,235.1c-0.1,0.1-0.3,0.1-0.4,0.2C468.2,235.2,468.3,235.1,468.5,235.1
		C468.5,235,468.5,235.1,468.5,235.1z M496.1,273.9c-0.1,0.1-0.8,0.3-1.1,0.1c-1.3-0.5-2.6-0.8-3.4-2c-0.6-1-0.8-2.8,0-3.8
		c0.5-0.6,1-1.1,1.6-1.9c0.9,1.8,1.5,3.4,2.3,5c0.3,0.4,0.5,0.8,0.6,1.1C496.2,272.9,496.2,273.5,496.1,273.9z M501.6,265.9
		c0.1-0.5,0-1.3,0.4-1.5c1-0.8,2-1.1,3.3-0.6c-0.6,1-1.3,2-1.9,2.9c-0.3,0.3-1,0.1-1.5,0.1c-0.1,0-0.1-0.5-0.3-0.8
		C501.6,265.9,501.6,265.9,501.6,265.9z M499.9,269.8c0.5-0.6,1-1.4,1.6-2c0.1-0.3,0.6-0.3,0.9-0.3c0.1,0,0.4,0.3,0.4,0.4
		c-0.1,1.3-0.1,2.4-0.3,3.6c-1.1,0.1-2-0.3-2.6-0.8C499.5,270.5,499.5,270.2,499.9,269.8z M499.7,271.5c0.5,0.3,1,0.5,1.5,0.8v0.1
		c-0.6,0-1.3,0.1-2,0.1C499.5,272.2,499.5,271.8,499.7,271.5z M499.6,273.2c0.8-0.1,1.5-0.3,2.3-0.3c0.3,0,0.6,0.3,0.6,0.4
		c0.3,1.4,0.5,2.8,0.8,4.1c0,0.6-0.3,0.9-0.8,0.6c-1.3-0.5-2.5-1-3.8-1.6c-0.6-0.3-0.9-0.8-0.9-1.5
		C497.9,273.7,498.4,273.3,499.6,273.2z M498.1,262.3c-1.6,2.3-1,5.5,0.6,7.5c0.8,1,0.5,2.6-0.6,2.9c-0.4,0.1-0.8-0.1-1.1-0.3
		c-0.3-0.1-0.4-0.5-0.5-0.8c-0.8-1.4-1.3-2.8-2-4.1c-0.4-0.8-0.3-1.5,0.1-2c0.9-1.3,1.8-2.5,2.8-3.6c0.1-0.3,0.5-0.4,0.8-0.6
		l0.1,0.1C498.1,261.7,498,261.9,498.1,262.3z M516,259.1C516,259.1,516,259.1,516,259.1C516,259.1,516,259.1,516,259.1
		c0.1,0,0.1,0.1,0.2,0.1C516.1,259.2,516,259.2,516,259.1C515.9,259.2,515.9,259.2,516,259.1z M513.7,246.9c0,0-0.1,0.1-0.1,0.1
		c0-0.1-0.1-0.1-0.1-0.2C513.6,246.9,513.7,246.9,513.7,246.9z M513.4,257.9c-0.1-0.1-0.3-0.5-0.3-0.6c0.5-2-0.3-3.8-0.8-5.6
		c-0.4-1.6-1-3.1-1.6-4.9c0.7,0,1.4-0.1,2.1,0c-0.1,0.1-0.1,0.2,0,0.4c1.1,1.5,1.5,3.6,1.9,5.4c0.2,0.9,0.5,1.9,0.7,2.8
		c0.2,1.1,0.6,2.3,0.1,3.3c0,0.1,0,0.2,0,0.3C514.7,258.5,514,258.2,513.4,257.9z"/>
	<path class="st0" d="M477.7,287.7c-0.4,0.4-0.8,0.8-1.3,1c-1.9,1-3.8,1.8-5.5,2.8c-1.6,1-3.3,0.8-5,0.3c-1.1-0.4-1.5-0.9-1.5-2.1
		c0-0.8-0.1-1.5-0.3-2.3c0-0.4,0-0.9,0.3-1s0.6,0.1,1,0.1c0.8,0.1,1.6,0.5,2.4,0.5c2,0,4-0.3,6-0.3c1.3,0,2.5,0.4,3.6,0.5
		C477.6,287.4,477.6,287.5,477.7,287.7z M465,288.5c0,0.8-0.4,1.5,0.4,2.3c0.8,0.8,3.5,1.1,4.5,0.6c0.8-0.4,1.5-0.6,2.3-1
		c1-0.5,2-1.1,3-1.8c0-0.1,0-0.1-0.1-0.3c-1.4,0.3-2.9,0.4-4.1,0.8c-1.1,0.4-2.1,0.5-3.3,0.3C466.7,289.2,466,288.8,465,288.5z
		 M465,287c-0.1,0.1-0.1,0.1-0.3,0.3c0.3,0.3,0.4,0.5,0.6,0.6s0.5,0.3,0.8,0.4c1.4,0.8,2.8,0.8,4.1,0.4c1-0.3,2.1-0.5,3.1-0.6
		c0.5-0.1,1.1-0.1,1.6-0.3c0-0.1,0-0.1,0-0.3c-0.3,0-0.5-0.1-0.6-0.1c-1.3,0-2.4,0-3.6,0.1C468.7,287.7,466.8,288.2,465,287z"/>
	<path class="st0" d="M481.4,271.5c-0.6,0-1.1,0.1-1.8,0c-0.8-0.1-1.4-0.1-2.3,0.1c-2.1,0.9-4.3,0.5-6.1-0.9
		c-0.1-0.1-0.3-0.4-0.4-0.5c-0.4-0.8-0.3-1,0.5-0.9c1.3,0.1,2.4,0.3,3.6,0.5c2,0.4,4,0.9,6,1.4c0.1,0,0.1,0.1,0.1,0.1
		C481.4,271.4,481.4,271.5,481.4,271.5z M473.3,271.3c-0.3-1.3-0.4-1.4-1.8-1C472.1,270.5,472.7,270.9,473.3,271.3z M476.8,271.4
		c0-0.1,0-0.3,0-0.3c-0.4-0.1-0.8-0.4-1.1-0.4c-0.1,0-0.4,0.4-0.5,0.6c0,0.1,0.1,0.1,0.1,0.3C475.8,271.4,476.3,271.4,476.8,271.4z"
		/>
	<path class="st0" d="M479.5,267c-1.1-0.1-2-0.3-3-0.3c-2.9-0.1-5.8-0.1-8.6-0.1c-0.5,0-1,0-1.4-0.1c-0.3-0.1-0.4-0.5-0.5-0.8
		c0.3-0.1,0.5-0.3,0.8-0.3c1.9,0.1,3.6,0.1,5.5,0.3c2.4,0.1,4.8,0.3,7.1,0.5c0.3,0,0.4,0.3,0.6,0.5C479.7,266.9,479.5,267,479.5,267
		z"/>
	<path class="st0" d="M479.7,286c-1-0.8-2-1.6-2.9-2.4c-0.1,0.2-0.2,0.3-0.3,0.5c0,0,0,0-0.1,0.1c0.6,0.7,1.3,1.3,2.2,1.7
		c0.6,0.3,1.1,0.9,1.3,1.8c0,0.6,0.4,1.1,0.5,1.8c0.3-0.1,0.3-0.1,0.4-0.1s0.1-0.1,0.1-0.1C480.7,288,480.7,286.9,479.7,286z"/>
</g>
</svg>
