<?xml version="1.0" encoding="utf-8"?>
<!-- Generator: Adobe Illustrator 19.2.0, SVG Export Plug-In . SVG Version: 6.00 Build 0)  -->
<svg version="1.1" id="Layer_1" xmlns="http://www.w3.org/2000/svg" xmlns:xlink="http://www.w3.org/1999/xlink" x="0px" y="0px"
	 viewBox="0 0 200 138.2" style="enable-background:new 0 0 200 138.2;" xml:space="preserve">
<style type="text/css">
	.st0{fill:#FF5722;}
</style>
<g id="itchy-ear-lady">
	<path class="st0" d="M182.4,102.1c2.4,0.8,4.7,1.5,7,2.4c3.6,1.5,7.3,3.2,10.6,4.8v-2.5c-5.7-3.4-12-5.8-18.7-7.3
		c-5.1-1.1-10-2.7-14.9-4.6c-4.6-1.8-8.9-4.2-13.3-6.3c-0.6-0.3-1.1-0.7-1.6-1.1c-3.1-1.8-2.8-4.7-2-7.4c1.3-4.3,1.4-8.7,1.4-13.1
		c0-2.7,0.6-5.3,1-8c0.7-4.5,0.5-8.9-0.4-13.3c-0.9-3.9-1.6-7.9-2.5-11.8c-0.1-0.6-0.3-1.3-0.6-1.8c-3.5-7.2-7.3-14.3-12.6-20.4
		c-0.9-1-2-1.8-3.2-2.5c-2.2-2.6-4.7-5.1-7.5-6.8c-4.8-2.9-10.9-2.6-16.3-2.3c-5.8,0.3-10.3,2.8-15,5.9c-3.2,2.1-6.6,4.8-7.7,8.5
		c-3,3.7-4.5,8.2-5.6,12.9c-0.9,4.2-1.5,8.4-1.8,12.7c-0.3,3.7-0.4,7.5,0.1,11.2c0.5,3.4,2.1,6.6,3.1,10c0.2,0.6,0.1,1.9-0.3,2.1
		c-2,0.9-4.1,1.8-6.3,2.3c-5.6,1.2-11.1,2.6-16,5.5c-3.3,2-6.5,4.1-9.6,6.5c-3.1,2.4-6,5-8.7,7.9c-3.3,3.6-7.3,6.3-11.2,9.1
		c-4.4,3-8.7,6.2-13.3,9C10.4,107.4,4.7,111,0,116.5v4c1.7-2,3.3-4.3,5.3-6c3.4-2.8,7-5.3,10.6-7.8c4.6-3.2,9.5-6.1,14.1-9.3
		c5-3.4,9.9-6.9,13.8-11.6c1.7-2,3.8-3.8,6-5.4c3.5-2.6,7.2-5.1,11-7.3c4.6-2.7,9.9-3.8,15.1-5.1c2.2-0.5,4.4-1.5,6.4-2.5
		c2.8-1.3,5.5-2.9,8.7-3.3c0.8-0.1,1.5-0.7,2.2-1c-0.1-0.2-0.2-0.5-0.2-0.7c-0.8,0.1-1.6,0.4-2.4,0.4c-0.8,0-1.8,0-2.3-0.5
		c-1.1-1-1-3.9,0-5.2c1-1.3,2.7-1.6,4.2-0.8c0.6,0.3,1,0.9,1.4,1.5c1.4,2.7,2.7,5.4,4.1,8c0.8,1.4,1.3,2.7,0.2,4.1
		c-0.8,0.9-1.8,1.4-3,0.8c-1.6-0.8-2.5-1.9-2.5-3.8c0.6-0.3,1.2-0.5,1.8-0.8c0-0.2,0-0.3,0-0.5c-0.7-0.1-1.5-0.4-2-0.1
		c-2.1,1.1-4.1,2.3-6.2,3.4c-0.4,0.2-0.8,0.4-1.3,0.6c-2.3,1-4.6,1.9-6.9,2.9c-0.3,0.1-0.6,0.4-0.8,0.7c-0.3,0.5-0.6,1.1-0.9,1.6
		c0.5,0.3,1,0.5,1.7,0.9c-2.5,2.6-5.1,5.5-7.8,8.1c-1.4,1.4-1.5,3-0.8,4.4c0.4,0.9,2,1.2,3.1,1.6c1.9,3.4,3.3,3.7,7.4,2.1
		c0.4,0.5,0.9,1.1,1.2,1.4c-1.1,1.7-2.2,3.3-3,5c-0.8,1.6-0.2,2.3,1.6,2.7c3.3,0.8,6.5,0,9.7-0.5c3.1-0.5,5.8,0.8,8.2,2.6
		c0,0.2,0.1,0.5,0.1,0.7c-2.4,1-4.8,2.5-7.3,2.8c-4.1,0.6-8.4,0.8-12.5,0.6c-4.7-0.3-8.7-2.7-12.3-5.7c-2.8-2.3-5.6-2.1-8.7-0.9
		c-6.2,2.4-12,5.7-17,9.9c-4.7,4-8.9,8.5-13.1,13c-3.3,3.6-6.5,7.4-9.6,11.2c-1.4,1.7-2.4,3.5-3.5,5.5h1.8c2.5-3,5-6,7.4-9
		c1.7-2.2,3.8-3.6,6.4-4.4c3.6-1.1,7.2-2.4,10.6-4.1c2-1,3.8-2.7,5.3-4.4c2.8-3.1,6.1-5.4,9.8-7.3c3.1-1.6,6.1-3.5,9-5.4
		c1.4-1,2.5-0.8,3.9,0c1.5,1,3.2,1.8,4.8,2.6c0.2,0.1,0.5,0.2,0.6,0.4c4.7,8.2,7.6,16.9,8.3,26.6c-1-1.6-1.7-3.2-2.8-4.4
		c-2-2.1-4.2-4-6.4-5.9c-0.2-0.2-0.4-0.3-0.6-0.3c-0.6,0-1.1,0.2-1.7,0.3c0.2,0.5,0.4,1,0.8,1.4c1.5,1.3,3.3,2.5,4.7,3.9
		c2.7,2.8,4.2,6,5.5,10h109.7c-2-3-4.3-5.7-5.9-8.8c-1.4-2.7-2.1-5.9-3-8.9c-1.5-5.1-1.8-10.3-0.5-15.5
		C181.6,104.2,182,103.3,182.4,102.1z M62.5,102.2c-4.1,2.3-8.3,4.4-12.1,6.9c-2.7,1.8-5,4.2-7.4,6.5c-1.7,1.7-3.4,3.1-5.7,3.8
		c-2.7,0.9-5.4,1.9-8.1,2.9c-0.1-0.1-0.2-0.2-0.3-0.4c0.6-0.7,1.2-1.3,1.7-2c5.9-6.5,12.4-12.2,20.2-16.3c2.7-1.4,5.6-2.6,8.4-3.8
		c1.8-0.8,3.4-0.1,5.2,1.1C63.6,101.5,63.1,101.9,62.5,102.2z M98.6,61.4c-1.6-3-3.4-6.2-3.9-9.5c-0.6-3.5-0.3-7.3,0.4-10.8
		c0.7-3.2,2.5-6.2,3.9-9.3c1.4-3,3.9-4.9,6.5-6.7c1.4-1,2.8-2.1,4-3.3c1.8-1.9,2-3.4,0.5-5.6c-2-2.9-4.3-5.6-6.5-8.3
		c-0.2-0.2-0.4-0.4-0.6-0.7c1.7-1.1,2.9-0.6,3.8,0.7c2.5,3.4,5,6.8,7.4,10.2c1.5,2.1,3.8,2.4,5.9,2.7c3.7,0.6,7.6,0.9,11.3,1.6
		c3.6,0.7,6.7,2.7,8.7,5.8c2.8,4.4,6,8.7,7.9,13.5c2.1,5.3,2.8,11.1,1.8,17c-0.6,3.8-1,7.6-1,11.4c0,4.8-1.4,9.2-2.6,13.7
		c-0.2,0.6-0.5,1.3-1,1.6c-3.6,2.4-7.3,4.5-11.8,4.4c-4.3-0.1-8.5-0.5-12.3-2.6c-2.7-1.5-5.2-3.6-7.5-5.7c-2.6-2.5-5-5.4-7.4-8.1
		c-0.1-0.1-0.2-0.2-0.2-0.3C104.5,68.7,100.8,65.5,98.6,61.4z M71.4,85.5c-0.9-1.7-0.6-2.4,1.2-2.4C73.1,84.9,73.1,84.9,71.4,85.5z
		 M73.3,81.3c2.3-2.5,4.6-5.1,6.9-7.6c0.7-0.7,3.6-0.3,4,0.6c0.1,0.3-0.1,0.9-0.3,1.2c-0.9,0.9-1.8,1.7-2.8,2.5
		c-1.7,1.4-3.3,2.9-5,4.3c-0.4,0.3-0.8,0.6-1.3,1C74.3,82.5,73.8,81.9,73.3,81.3z M77.7,87.6c-0.4,0.4-1,1.2-1.2,1.1
		c-0.6-0.3-1-0.9-1.6-1.4c0.5-0.4,1-1,1.6-1.1c0.4-0.1,1,0.4,1.5,0.6C77.9,87.1,77.8,87.3,77.7,87.6z M80.2,87.7
		c-1.2-1.8-1.9-2.8-2.8-4.1c1.4-1.1,3-2.4,4.5-3.7c0.8-0.6,1.5-1.4,2.4-1.9c0.6-0.3,1.5-0.6,2.1-0.5c1.7,0.4,1.8,1.3,0.7,2.6
		C84.8,82.5,82.6,85,80.2,87.7z M89.3,82.1c1.1-0.4,2.2-0.4,2.7,1.1c0.4,1.3,0.3,2.2-1.2,2.8c-1.7,0.7-3.2,1.6-4.8,2.5
		c-0.6-0.9-1.1-1.7-1.7-2.6C85.4,84.1,87.2,82.9,89.3,82.1z M79.8,97.3c1-2.9,2.7-4.4,4.7-5.7c2.5-1.5,5.1-2.7,7.7-4.1
		c1.9-1,2.3-1.8,1.8-3.9c-0.6-2.6-1.4-3.4-3.5-3.5c-0.3,0-0.6-0.1-0.9-0.1c0.4-2.1,0-2.9-2-4c-0.5-0.3-1.1-0.6-1.2-1.1
		c-0.6-2.3-1.4-3.1-3.8-3.5c-0.5-0.1-1-0.2-1.6-0.3c0-0.2-0.1-0.3-0.1-0.5c1.6-0.5,3.1-1,4.7-1.5c0.2-0.1,0.6,0.1,0.7,0.3
		c2,3,4.4,5.7,6.3,8.8c2.7,4.3,3.5,9.3,5.6,13.7c0.2,0.5,0.2,1.1,0.3,1.7C92.7,97,86.5,97,79.8,97.3z M91,106.8
		c2.6-0.8,5.2-2,7.6-3.3c1.8-1,1.5-3.4-0.5-4.9c-0.5-0.4-1.1-0.7-1.9-1.2c1.4-0.5,2.6-0.7,3.6-1.3c4-2.1,8-4.1,11.8-6.5
		c1.3-0.8,1.9-2.7,2.7-4.1c10.4,8.1,21.5,9.4,33.2,1.3c6.6,6,14.8,9.2,23.3,12.4c-2.3,1.2-2.4,3.6-3.3,5.5c-0.7,1.5-2.1,2.7-3.3,3.9
		c-3,3.2-6.1,6.4-9.2,9.6c-2.8,2.8-5.8,5.2-9.7,6.4c-2.2,0.6-4.2,1.8-6.3,2.4c-1.9,0.6-3.9,0.9-5.9,1.2c-2,0.3-3.9,0.4-5.9,0.7
		c-3.9,0.6-7.7,0.3-11.5-0.3c-6.4-1-12.3-3.3-17.5-7.1c-5.2-3.9-9.8-8.4-13.3-14.2C87.1,107.2,89.2,107.4,91,106.8z M171.1,106.8
		c-2.9,3.7-5.8,7.4-8.8,11c-2.8,3.3-6.3,5.7-10.2,7.6c-0.4,0.2-0.9,0.3-1.3,0.6c-4.2,3.9-9.6,5.1-14.9,6.7c-4.2,1.2-8.6,2-13,1.8
		c-5.1-0.3-10-1.2-14.9-3c-5.1-1.9-9.7-4.5-14.1-7.5c-2.8-1.8-4.8-4.9-6.9-7.6c-2-2.5-3.6-5.1-5.4-7.7c-0.2-0.3-0.4-0.6-0.6-0.9
		c0.1-0.2,0.2-0.4,0.3-0.5c0.5,0.3,1.2,0.5,1.5,1c3.5,4.8,7.2,9.4,11.8,13.2c5.4,4.5,11.4,7.6,18.4,8.8c3,0.5,6.1,0.9,9.2,1.1
		c2.1,0.1,4.3-0.2,6.4-0.5c1.4-0.1,2.8-0.6,4.2-0.6c2.8,0.1,5.4-0.5,7.9-1.7c3.2-1.5,6.9-2.2,9.7-4.2c3.7-2.5,6.8-6,10.1-9
		c0.9-0.9,1.6-1.9,2.6-2.7c4-3.3,6.6-7.8,9.9-11.7c0.7-0.9,1.4-1.3,2.5-0.3C174.1,102.6,172.6,104.8,171.1,106.8z"/>
	<path class="st0" d="M59.5,138.1c2.6-3.4,10.3-6.7,14.5-4.3c1.8,1.1,3.3,2.8,4.9,4.3c-1.2,0-2.4,0-3.6,0c-1.1-1.8-2.7-2.4-4.7-2.6
		c-3-0.3-5.4,1.4-7.9,2.6C61.6,138.1,60.5,138.1,59.5,138.1z"/>
	<path class="st0" d="M142.6,62.6c0.4,1.7,0.8,3.1,1.2,4.6c1.6,5.9-3.2,12.1-9.3,12.3c-5.5,0.2-9.8-2.2-13.7-5.8
		c-0.8-0.8-0.7-1.5,0.2-1.7c3.1-0.8,5.1-3.1,7.5-5c1-0.8,1.9-2.1,3.6-1.4c0.3,0.1,1-0.2,1.2-0.5c1.9-2.3,4.5-2.4,7.1-2.5
		C141.2,62.6,142,62.6,142.6,62.6z M123,73.7c2.3,2.6,7.1,4.4,10.9,4.3c6.3-0.1,9.8-4.5,8.4-10.8c-0.9,4.4-3.8,6.6-7.8,8
		C130.3,76.7,126.7,75,123,73.7z M140.7,67.4c-5,2-9.8,3.9-14.6,5.8c2.3,1.8,6.7,1.7,10.1,0C138.6,71.9,140.3,70.3,140.7,67.4z
		 M126.5,70.7c5.2-1.5,10.5-2.6,14.9-6.6c-2.8-0.2-5.3-0.4-7.2,1.9c-0.3,0.4-1,0.8-1.5,0.8C129.6,66.5,128.6,69.4,126.5,70.7z"/>
	<path class="st0" d="M132.9,50.9c1.4,1.9,4.2,2.5,4.5,5.2c0.1,0.7-0.1,1.6-0.5,2.1c-0.8,1.2-1.9,2.2-2.8,3.3
		c-1.2,1.4-2.5,1.4-4.1,0.7c-0.7-0.3-2-0.2-2.5,0.3c-1.2,1-2.2,1.4-3.5,0.5c-1.3-1-2.1-2.3-1.6-4c0.3-1.1,0.9-2.1,1.1-3.2
		c0.3-3-0.3-5.9-1.8-8.6c-1-1.7-3.4-2.1-5-1c-0.3,0.2-0.6,0.4-0.9,0.4c-3.2-0.3-5.8,1.4-8.6,2.7c-1.2,0.6-2.4,1-3.6,1.4
		c-0.3,0.1-0.8-0.2-1.2-0.3c0.2-0.4,0.3-1.1,0.6-1.3c5.2-2.2,10-5.6,16.1-4.8c1.9,0.3,3.4,0.9,4.1,2.8c1.4,3.8,2.7,7.6,0.6,11.7
		c-0.3,0.7,0.2,2.1,0.8,2.8c0.8,1,1.5,0.2,2.2-0.5c1.1-1.1,2.4-1.2,3.7-0.4c1.6,0.9,2.2,0.7,3.1-0.9c0.5-0.9,1.5-1.4,1.9-2.3
		c0.3-0.7,0.3-1.7,0-2.5c-0.2-0.6-1.1-0.9-1.6-1.4c-0.6-0.7-1.2-1.6-1.8-2.3C132.4,51.2,132.6,51.1,132.9,50.9z"/>
	<path class="st0" d="M132.4,37.8c2.3-0.3,4.7-0.7,7.1-0.8c0.7,0,1.7,0.6,2,1.3c0.4,0.9-0.6,1.2-1.3,1.7c-1.4,1-2.4,2.6-4.4,2.9
		c-1.9,0.2-3.7,0.7-5.6,0.9c-0.2,0-0.8-0.8-0.7-1.1c0.4-1.1,1-2,1.6-3.2c-0.9,0.2-1.6,0.3-2.9,0.6c0.5-1,0.7-1.7,1.2-2.2
		c0.8-1,1.9-1.8,2.7-2.8c1.8-2,3.8-3.4,7.3-3c-0.6,0.8-0.9,1.6-1.3,1.7C135.3,34.3,133.6,35.9,132.4,37.8z M136.7,41.7
		c0.8-1.1,1.3-1.9,1.9-2.7c-0.7-0.3-1.4-0.5-2.2-0.8C136.5,39.4,136.6,40.3,136.7,41.7z M134.5,42c-0.4-0.7-0.8-1.4-1.2-2.2
		c-0.6,0.7-1.2,1.4-1.9,2.2C132.6,42,133.5,42,134.5,42z"/>
	<path class="st0" d="M119.3,48.6c-4,5.4-8.7,7.4-14.5,5.8c0-0.2-0.1-0.4,0-0.5c2.4-1.9,4.8-4,7.4-5.6
		C114.4,46.9,116.9,47.7,119.3,48.6z M114.6,51.4c0.6-0.4,1.4-1,2.2-1.6c-0.1-0.2-0.3-0.3-0.4-0.5c-1-0.1-2.1-0.2-3.1-0.4
		C113.8,50,114.2,50.7,114.6,51.4z M110.6,50.6c-0.6,1-1,1.7-1.5,2.4c0.9,0.1,1.9,0.2,3.1,0.4C111.6,52.3,111.3,51.7,110.6,50.6z"/>
	<path class="st0" d="M118.9,115.8c-4.3,0.1-7.9-0.2-11.3-1.7c-0.5-0.2-1.2-0.5-1.5-0.9c-0.3-0.5-0.3-1.3-0.5-1.9
		c0.6,0.1,1.2,0.2,1.8,0.4c1.5,0.5,3,1.3,4.5,1.5c2.2,0.3,4.4,0.6,6.6,0.3c4.4-0.5,7.7,1.5,10.8,4.2c0.9,0.8,1.3,2.4,3.1,1.7
		c0.3,0.8,0.5,1.6,0.8,2.4c-0.7,0.2-1.5,0.7-2.1,0.5c-0.8-0.3-1.5-1.1-2.2-1.8c-1-0.9-2-1.9-3-2.8
		C123.6,115.9,121,115.4,118.9,115.8z"/>
	<path class="st0" d="M160.7,106.1c-1.1,3.9-4,4.9-6.8,5.6c-2.8,0.7-5.9,0.7-8.8,0.8c-3.6,0.1-6.4,2.4-7.2,5.9
		c-0.1,0.3-0.4,0.9-0.7,0.9c-0.3,0-0.9-0.4-0.9-0.6c-0.1-0.8-0.2-1.7,0.1-2.4c1.7-3.6,4.5-5.7,8.6-5.9c2.8-0.1,5.7-0.2,8.5-0.8
		c1.8-0.4,3.5-1.7,5.2-2.6C159.2,106.7,159.7,106.5,160.7,106.1z"/>
</g>
</svg>
