<?xml version="1.0" encoding="utf-8"?>
<!-- Generator: Adobe Illustrator 18.1.1, SVG Export Plug-In . SVG Version: 6.00 Build 0)  -->
<!DOCTYPE svg PUBLIC "-//W3C//DTD SVG 1.1//EN" "http://www.w3.org/Graphics/SVG/1.1/DTD/svg11.dtd">
<svg version="1.1" id="Layer_1" xmlns="http://www.w3.org/2000/svg" xmlns:xlink="http://www.w3.org/1999/xlink" x="0px" y="0px"
	 viewBox="405.2 215.5 150 131.4" style="enable-background:new 405.2 215.5 150 131.4;" xml:space="preserve">
<style type="text/css">
	.st0{fill:#FF9800;}
</style>
<g id="motion-lady">
	<path class="st0" d="M554.6,307.7c-0.1-0.5-0.1-1.1-0.4-1.6c-0.5-1.2-1.1-2.4-1.7-3.5c-1.1-2-1.9-4.1-2.4-6.2c-0.6-2.2-1-4.6-1.4-7
		c-0.5-3.2-1.6-6.1-3.4-8.9c-2.1-3.2-4.6-6.1-8.1-8.1c-1-0.6-1.9-1.4-2.7-2c-1.5-1.1-3-2.2-4.5-3.4c-1.6-1.1-3.1-2.4-3.9-4.2
		c-0.6-1.4-1.1-2.6-1.5-4c-0.6-2.1-1.2-4.2-1.9-6.4c-1-3.6-1.6-7.5-2.1-11.2c0-0.5-0.2-1-0.4-1.5c-0.2-0.7-0.5-1.4-0.7-2.1
		c-1-3.2-2.1-6.4-3.9-9.2c-0.5-0.9-1.1-1.9-1.7-2.7c-1.2-1.7-2.5-3.4-3.7-5c-0.7-1-1.7-1.7-2.9-1.7c-1.6-0.6-3.2-1.2-4.9-1.9
		c-2.4-0.9-4.9-1.6-7.5-1.4h-1.7c-2.2,0-4.4,0.1-6.5,1c-1.1,0.4-2.2,0.9-3.4,1.2c-3.1,0.9-5.7,2.4-8.1,4.4c-3.1,2.9-5.6,6.2-7.5,10
		c-1.1,2.2-2,4.5-3.1,6.7c-1.6,3.1-2.2,6.5-2.5,9.9c0,1,0.1,2-0.1,2.9c-0.5,2.7-0.9,5.6-0.6,8.5c0,0.4-0.2,0.7-0.5,1
		c-0.6,0.4-1.2,0.7-2,1c-2.6,0.9-5.1,1.7-7.7,2.4c-2.9,0.6-5.5,1.9-7.6,3.9c-2.4,2-4.5,4.2-6.5,6.6c-1.2,1.6-2.4,3.2-3,5.2
		c-0.6,2-1,4-1.6,5.9c-1.2,4-2.6,8-4,12c-0.2,0.7-0.6,1.5-1.1,2.2c-0.6,1-1.5,2-2.1,3c-0.7,1-1.5,2.1-2.5,2.9
		c-0.2,0.1-0.4,0.4-0.5,0.6c-1.2,2-2.6,3.9-3.9,5.7c-1.1,1.7-2.2,3.6-3.2,5.5c-1.6,3.1-3.1,6.4-4.9,9.5c-1.5,2.9-3,5.6-3.9,8.7
		c-0.5,1.9-0.7,3.9-1,5.9c-0.1,1.1,0.1,2.2,0.7,3.2c0.2,0.5,0.5,1,0.7,1.5h2.1c-0.4-1-1-2-1.4-3c-0.1-0.4-0.2-0.9-0.2-1.4
		c0.1-1.9,0.2-3.7,0.7-5.6c0.6-2.6,1.9-4.9,3.1-7.2c1.6-3.2,3.2-6.4,5-9.6c1.1-2,2.1-4,3.2-6c1.1-1.9,2.5-3.7,3.7-5.6
		c0.1-0.2,0.2-0.4,0.4-0.5c1.7-1.2,2.7-3,3.9-4.7c1-1.5,2.2-2.9,2.7-4.6c1-3,2-5.9,3-8.7c0.4-0.9,0.5-1,1.2-0.2
		c2.5,2.5,4.1,5.5,5.2,8.9c0.7,2.6,1.9,5.1,3.2,7.5c0.9,1.5,1.2,3.2,2.9,4.2c-0.1,0.2-0.2,0.4-0.4,0.5c-1.2,0.9-2.4,1.9-3.6,2.7
		c-1.5,1-3.1,2-4.7,2.9c-1.9,1-3.7,1.9-5.5,2.9c-0.7,0.4-1.5,0.9-2.2,1.4c-1.7,1.2-3.5,2.6-5.7,2.9c-0.2,0.1-0.5,0.2-0.7,0.4
		c-1.5,0.9-3,1.7-4.5,2.6c-0.4,0.2-0.7,0.5-1.1,0.7c-0.6,0.5-1.2,1.1-2,1.6c-0.6,0.5-1.2,0.7-1.9,1.2c-0.4,0.4-0.5,0.7-0.2,1.1h0.1
		c1-0.7,2.1-1.6,3.2-2.4c0.7-0.5,1.4-1,2-1.5c0.7-0.5,1.5-1,2.2-1.4c1.5-0.9,2.9-1.7,4.5-2.1c1-0.2,2-0.9,2.9-1.5
		c1.6-1.1,3.4-2.4,5.2-3.2c1.9-0.7,3.6-1.6,5.4-2.7c3-2,6-3.9,8.6-6.4c1.5-1.4,3.1-2.4,4.7-3.5c1.2-0.7,2.5-1.4,3.7-2.2
		c3.2-2.2,6.1-5,8.9-7.7c1.5-1.5,3-3.1,5.2-3.6l0.1-0.1c1.6-1.2,3.5-1.5,5.5-1.4c1.5,0,2.9,0.1,4.4,0.1c0.5,0,0.6,0.1,0.7,0.5
		c0.1,0.6,0.5,1.2,1.2,1.4c0.6,0.1,1.4,0.1,2.1,0.2c0.6,0.1,1.2,0,1.9-0.4c0.1-0.2,0.4-0.4,0.6-0.5c0.1,0.7,0,1.4-0.6,1.6
		c-0.9,0.4-1.7,0.7-2.6,1c-0.6,0.2-1.4,0.4-2,0.6c-1.2,0.5-2.5,0.7-3.9,0.7h-2.9c-1,0-1.9,0.5-2.5,1.2c-0.1,0.1-0.1,0.6,0,0.7
		c0.2,0.2,0.5,0.1,0.7-0.1c0.6-0.6,1.4-1,2.2-1c1.5,0.1,3,0.2,4.5,0.2c1.4,0,2.6,0.5,3.9,0.9c0.7,0.2,1.6,0.4,2.2,0.1
		c3.7-1.2,7.4-2.5,11-3.7c1.7-0.6,3.4-1.4,5-2.4c0.2-0.1,0.5-0.2,0.7-0.4c-0.5,1.1-0.6,2.2-0.5,3.4c0.1,0.5,0,0.7-0.4,1
		c-1.9,1.4-3.9,2.5-6.1,3.4c-3.6,1.4-7.4,2.6-11.1,3.9c-1.1,0.4-2.1,0.4-3.2,0.5c-0.4,0.1-0.9,0-0.9,0.5c0,0.6,0.5,0.5,0.9,0.6h0.4
		c1.6-0.5,3.4-0.9,5.1-1.4c2.6-0.9,5.2-1.9,8-2.9c3-1.1,5.7-2.6,8.2-4.6c0.2-0.1,0.4-0.2,0.6-0.4c1-0.4,2-0.9,3.1-1.4
		c-0.1,0.5-0.1,0.6-0.1,0.9c0,0.6-0.1,1.2,0.1,1.7c0.2,0.6,0.2,0.9-0.2,1.2c-1.9,1.4-3.6,2.7-5.5,4c-1.5,1-3.1,2-4.7,2.7
		c-2.5,1-5.1,1.7-7.7,2.6c-0.1,0.1-0.4,0.1-0.5,0.2c-1.5,0.6-2.9,1.2-4.4,1.9c-0.4,0.1-0.9,0-1.2-0.1c-0.7-0.4-1.4-0.7-2-1.1
		c-0.1-0.1-0.4,0-0.6,0c0,0.2,0,0.5,0.1,0.6c0.2,0.2,0.6,0.4,1,0.6c1.2,0.7,2.5,1.2,3.9,0.4c0.6-0.2,1.2-0.5,1.9-0.7
		c1-0.4,2-0.9,3-1.2c1-0.4,2-0.6,3-1c1-0.4,2-0.7,2.9-1.1c1.4-0.6,2.7-1.1,4-1.9c1.6-1,3-2.1,4.5-3.2c0.4-0.4,0.9-0.6,1.5-1
		c0,1.2-1.1,2.6,0.6,3.5c-0.5,0.2-0.9,0.4-1.2,0.5c-2.2,1-4.5,1.7-6.6,2.7c-2.4,1.1-4.6,2.4-7,3.5c-1.4,0.6-2.9,1-4.2,1.7
		c-1.6,0.7-3.1,0.9-4.7,0.5c-2-0.4-4-0.7-5.9-1.2c-1.9-0.5-3.7-0.6-5.7-0.4c-1.7,0.2-3.6-0.1-5.4-0.5c-0.5-0.1-1-0.2-1.5-0.4
		c-0.1-0.1-0.4,0.1-0.5,0.1c0.1,0.1,0.1,0.4,0.2,0.5c0,0.1,0.1,0.1,0.2,0.1c1,0.2,1.9,0.4,2.9,0.6c0.4,0.1,0.6,0.2,1,0.4
		c0.1,0.1,0.1,0.1,0.1,0.2c-0.2,0-0.4,0.1-0.5,0.2c-2.7,2.2-5.4,4.5-8.1,6.6c-1.5,1.2-2.9,2.7-4,4.4c-1.5,2.1-3,4.1-5.4,5.5
		c-2.2,1.4-4.2,3.2-5.7,5.4c-1.9,2.7-4,5.4-6.5,7.5c-1.6,1.4-2.9,2.9-4.7,3.7c-0.5,0.2-0.7,0.6-1.1,1h2.9c2.4-2,4.7-3.9,6.9-6
		c1.5-1.5,2.5-3.2,3.9-4.9c1-1.2,2.2-2.4,3.4-3.6c0.1-0.2,0.5-0.2,0.7-0.4c0,0.2,0.1,0.5,0.1,0.7v5.6c0,2.7,0.1,5.6,0.2,8.5h1.9
		c0-2.5-0.2-5-0.2-7.5c0-3,0.1-6,0.1-9c0-0.6,0.2-1.1,0.6-1.5c0.7-0.9,1.6-1.7,2.4-2.6c0.9-1.1,1.7-2.5,2.7-3.6
		c1.2-1.2,2.6-2.4,4-3.5c2.1-1.9,4.4-3.6,6.6-5.4c0.7-0.5,1.2-1.4,2.4-1.2c0.5,0,0.7,0,1,0.7c0.6,1.7,1.5,3.5,2.7,5
		c1.6,1.7,3,3.7,5,5c2.6,1.7,5.5,2.9,8.7,2.7h1.1c2.1,0.2,4-0.2,5.9-1.1c1.6-0.9,3.2-1.7,5-2.1c1-0.2,2-0.7,2.5-1.6
		c0.6-1,1.4-2,2.2-2.9c1.9-2,3.2-4.4,4.4-6.9c1.4-3.1,2.6-6.1,3.4-9.5c1-4.4,1.4-8.7,1.5-13.2c0-0.6,0-1.1,0.1-1.6
		c0.6-2.6,0.7-5.1,0.5-7.7c-0.1-1-0.1-2-0.1-3.1c0.7,0.1,1.3,0.2,2,0.3c1.7,0.5,3.6,0.8,5.3,0.7c2,0,3.8-0.6,5.3-2
		c0.7-0.6,1.4-1.5,2-2.2c0.6-0.7,1-1.6,1-2.6c0-0.2,0-0.6,0.1-1.1c0.6,0.4,1.1,0.6,1.5,1c2.1,1.5,4.1,3.1,6.2,4.6
		c1.6,1.1,3.1,2.5,4.4,4.1c0.9,1.1,1.7,2.4,2.5,3.6c1.2,1.6,2,3.6,2.4,5.6c0.4,2,0.5,4,1,5.9c0.4,1.5-0.1,2.5-1.1,3.5
		c-0.2,0.4-0.6,0.6-0.9,1c-1.1,1.1-2.2,2.1-3.2,3.4c-1.9,2.1-3.5,4.4-5.4,6.5c-1.9,2.2-3.9,4.2-5.9,6.4c-0.5,0.5-0.6,0.5-1-0.1
		c-0.2-0.5-0.5-1-0.6-1.5c-0.5-1.7-1.1-3.5-1.6-5.2c-0.2-0.6-0.4-1.2-0.6-1.9c-0.1-0.2-0.4-0.4-0.5-0.5c-0.1,0.1-0.4,0.4-0.4,0.5
		c0,0.4,0.1,0.9,0.2,1.2c0.2,0.9,0.6,1.9,1,2.9c0.5,1.6,1.1,3.4,1.6,5.1c0.1,0.4,0.1,0.7,0,1.1c-0.5,0.9-1,1.7-1.5,2.7
		c-1,1.9-1.7,3.7-2.1,5.7c-0.2,1-0.5,1.9-0.9,2.9c-0.9,2.5-1.9,5-2,7.7c-0.1,3.7-0.1,7.6-0.2,11.4h4.1c0.7-0.2,1.4-0.5,2.1-0.6
		c1.4-0.4,2.5-1.1,3.6-1.9c1.1-0.7,2.2-1.5,3.4-2.2c0.5-0.4,0.9-0.6,1.4-1c0.4-0.2,0.7-0.2,1.1,0c0.7,0.5,1.4,1,2.1,1.4
		c0.9,0.4,1.7,0.7,2.6,1c0.2,0,0.4-0.1,0.6-0.2c-0.1-0.1-0.1-0.4-0.2-0.5c-0.2-0.1-0.4-0.1-0.6-0.2c-0.9-0.4-1.9-0.6-2.7-1.1
		c-0.6-0.4-1.1-0.9-1.6-1.2c-0.1,0-0.2-0.2-0.2-0.4c-0.1-1.5-0.4-3-0.6-4.5c-0.2-1.9-0.6-3.7-1.1-5.6c-0.7-2.7-1.6-5.6-2.6-8.4
		c-0.5-1.5-1.2-2.9-1.9-4.2c-0.2-0.4-0.2-0.7,0.1-1.1c4.4-3.9,7.7-8.5,11.5-12.9c1.4-1.6,2.7-3,4.2-4.5c0.4-0.5,0.7-0.4,1,0.1
		c0.9,2.2,1.7,4.4,2.6,6.6c1,2.6,2,5.2,2.6,8c0.1,0.4,0.2,0.9,0.5,1.2c0.2,0.2,0.5,0.4,0.7,0.6v-4.6
		C555.1,309.6,554.8,308.7,554.6,307.7z M473.2,226.6c-0.4,0.5-0.9,1.1-1.3,1.7C472.3,227.7,472.7,227.1,473.2,226.6z M468.4,274.9
		c-0.1,0-0.1-0.1-0.2-0.1c-1.1-1.1-2-2.3-2.7-3.7C466.3,272.5,467.3,273.7,468.4,274.9z M469.9,291.7c-2.2,0.9-4.1,2.5-5.9,4.2
		c-2.7,2.7-5.5,5.5-8.7,7.7c-1.2,0.9-2.6,1.5-4,2.4c-0.7,0.5-1.6,1-2.5,1.5c0.2-0.4,0.4-0.7,0.6-1.1c1.2-2.1,1.6-4.6,1.9-7
		c0.1-1.2,0-2.6,0-4c0-0.2,0-0.5-0.1-0.6c0-0.2-0.2-0.4-0.4-0.4c-0.1,0-0.4,0.2-0.4,0.4c-0.1,0.2-0.1,0.4-0.1,0.6v1.9
		c0.2,2.2-0.2,4.5-0.9,6.6c-0.5,1.5-1.5,2.9-2.2,4.2c-0.2,0.4-0.5,0.2-0.7-0.1c-0.5-0.9-1-1.9-1.5-2.7c-1.2-2.4-2.5-4.7-3.4-7.4
		c-1.2-3.9-3.1-7.2-6.1-10c-0.2-0.1-0.4-0.4-0.5-0.5c-0.6-0.5-0.6-1-0.5-1.7c0.5-2.4,1.1-4.7,2.2-6.9c1-2.1,2.5-3.9,4.2-5.5
		c0.2-0.4,0.6-0.7,1-1.1c1.7-2,3.6-3.7,6-5c1.1-0.5,2.4-0.9,3.6-1.2c2.9-1,5.7-2,8.6-3c0.5-0.1,1-0.5,1.6-0.9
		c0.1,0.6,0.2,1.2,0.5,1.7c0.1,2,1,3.6,1.7,5.4c0.6,1.4,1.1,2.7,1.9,4c0.6,1,1.5,2,2.4,2.6c0.9,0.5,1.9,0.7,2.9,1
		c0.4,0.1,0.5,0.2,0.4,0.6c-1.4,4.1-1.6,8.5-1.6,12.7V291.7z M480.7,290.6c-1.6,0-3.4,0-5-0.1c-1.6,0-3.4,0.1-5.1,0.7
		c0-5.2,0.1-10.2,2.1-15.2c0.1,0,0.1,0,0.2,0c0.1,0.4,0.4,0.6,0.5,1c0.9,1.9,1.7,3.9,2.6,5.7c0.6,1.2,1.5,2.2,2.9,2.7
		c1.2,0.5,2.2,1.2,2.7,2.5c0.1,0.4,0.4,0.6,0.6,0.9c0.2,0.4,0.5,0.7,0.9,1.4C482.2,290.4,481.4,290.6,480.7,290.6z M485.1,292.2
		c-0.4,0.5-1,0.6-1.7,0.5c-0.2-0.1-0.6-0.1-0.9-0.1c-0.9-0.1-0.9-0.1-1-1.1c1-0.2,2-0.5,3-0.6c0.4,0,0.9,0.2,1,0.5
		C485.6,291.5,485.4,292,485.1,292.2z M486.4,290.9c-0.5-0.9-1.1-1.4-2.2-1.2c-0.1,0-0.2,0-0.4-0.1c-0.6-0.9-1.2-1.7-1.7-2.6
		c-0.6-1.1-1.6-1.9-2.9-2.4s-2-1.4-2.5-2.5c-1.1-2.5-2.4-5-3.5-7.5c-0.1-0.2-0.2-0.6-0.4-1c-0.2-1-0.6-2-0.9-3
		c-0.2-0.6-0.4-1.2-0.5-2c-0.1-0.4-0.2-0.8-0.2-1.1c-0.2-1.4-0.4-2.7-0.7-4.1h0.2c-0.1-1.5,0.3-2.9,0.4-4.9c0.2-0.5,0.3-1,0.5-1.5
		c0.3-0.9,0.7-1.8,1-2.7c0.3-0.8,0.7-1.7,1.1-2.5c0.1-0.1,0.2-0.1,0.3-0.2c1.7-1.4,3.9-3,6.1-3.9c0.8-0.2,1.7-0.4,2.5-0.5
		c0.7-0.2,1.4-0.1,2.1,0.2c0.1,0.1,0.2,0.1,0.4,0.2c0.1,0,0.1,0,0.2,0.1c0.1,0.1,0.2,0.1,0.4,0.2c1.5,0.8,3.1,1.2,4.8,1.3
		c-0.2-2.1,0.4-4.2,1.2-6.2c0.9-2.1,2.2-4.2,2.1-6.5c0-1.2,1.9-1.2,1.9,0c0.1,4.5-3.9,8.1-3.4,12.7h3.5c1,0,1.9,0.4,2.6,1
		c1.9,1.5,3.1,3.2,3.7,5.5c0.6,2,1.2,3.9,2,5.7c0.4,1.1,0.8,2.1,1.2,3.1c0.5,2,1.1,4,2.1,5.9c0.3,1,0.6,2,0.9,3c0,0.2,0,0.5-0.1,0.6
		c-0.4,0.5-0.6,1.1-1,1.6c-1.1,1.6-2.2,3.1-3.4,4.7c-1.1,1.6-2.6,2.7-4.1,4l-2.2,2.2c-0.9,1-1.7,2.2-2.7,3.1c-0.6,0.6-1.7,1-2.6,1.2
		c-1.2,0.4-2.5,0.6-3.7,0.9C487.5,291.7,486.8,291.5,486.4,290.9z M504.4,294.7c-0.6,0.2-1.2,0.5-1.9,0.7c-0.4-1.1,0-2.6,1-3.1
		c0.2-0.1,0.4-0.2,0.5-0.4c0.5-0.5,1.2-0.4,1.5,0.2C506,293.4,505.5,294.4,504.4,294.7z M505.8,302.1c0.2-1,0.5-1.9,1.5-2.4
		c0.6-0.2,1.2-0.4,1.9-0.5c0.6,0.1,1.2,0.1,1.4,0.9c0,0.2-0.1,0.6-0.2,0.7c-0.9,0.7-1.9,1.5-2.9,2.1c-0.2,0.2-0.6,0.2-1,0.2
		C505.8,303.1,505.6,302.7,505.8,302.1z M506.9,296.5c0-1.2,0.5-2.2,1.6-2.4c0.7-0.1,1.5,0.1,2.1,0.4c0.5,0.1,0.1,0.6-0.1,0.9
		c-0.6,0.5-1.2,0.9-1.9,1.4c-0.1,0.1-0.2,0.2-0.5,0.4c-0.2,0.1-0.6,0.4-0.9,0.2C507,297.2,507,296.7,506.9,296.5z M504.4,305.7
		c0,0.4-0.1,0.6,0,0.9c0.1,0,0.2,0,0.2,0c0.9-0.7,1.6,0,2.2,0.5c0.1,0.1,0.2,0.6,0.2,0.9c0,0.1-0.5,0.2-0.7,0.4
		c-1.6,0.4-3.2,0.6-4.9,1.1c-1.7,0.5-3.4,0.4-5-0.1C499,308,501.6,307,504.4,305.7z M510.6,303c-0.5,2.6-1.6,5-2.7,7.5
		c-1.2,2.5-2.5,5-4.5,7.1c-0.4,0.4-0.7,0.7-1.1,1.1c-0.6,0.5-1.1,1.1-1.5,1.9c-0.2,0.5-1,1-1.6,1.1c-2.1,0.4-3.9,1.5-5.7,2.4
		c-1.2,0.5-2.6,0.9-4,0.9c-0.5,0-0.7-0.2-0.7-0.7v-6.4c0-0.1,0-0.1,0-0.2c-0.1-0.2-0.2-0.4-0.4-0.6c-0.1,0.2-0.4,0.4-0.4,0.6v1.2
		c-0.1,1.7-0.1,3.6-0.1,5.4c0,0.5-0.2,0.5-0.6,0.5c-1.1-0.1-2.2-0.1-3.2-0.4c-3.1-0.7-5.9-2.5-8-5c-1.7-1.9-3.2-3.9-4.1-6.2
		c0-0.1-0.1-0.4-0.1-0.5c-0.1-0.1,0-0.1,0-0.4c0.9,0.1,1.9,0,2.7,0.4c2.5,0.5,5,1.1,7.5,1.6c1,0.2,2,0.2,3,0.2c0.2,0,0.5,0,0.7-0.1
		c2.2-1.1,4.9-1.6,7-3.1c0.4-0.2,0.9-0.1,1.2-0.4c1.2-0.7,2.4-0.2,3.6-0.1c1.5,0.2,3,0.2,4.5-0.2s3.1-0.7,4.7-1
		c0.6-0.1,1.2-0.1,1.4-0.7c0.2-0.6,0.2-1.4-0.2-1.9c-0.2-0.4-0.7-0.6-1.1-0.9c-0.2-0.1-0.4-0.2-0.7-0.5c0.6-0.2,1.2-0.5,1.7-0.7
		c0.4-0.2,0.6-0.5,0.9-0.9c0.2-0.5,1.5-1.5,2.1-1.6C510.6,302.5,510.6,302.7,510.6,303z M511.2,299.1l-0.1,0.1
		c-1-1.1-2.2-0.6-3.5-0.9c1.4-1,2.7-2,4.1-3.1C511.6,296.5,511.4,297.9,511.2,299.1z M512.4,286.4c-0.2,1.5-0.1,3-0.2,4.5
		c0,1.1-0.1,2.1-0.2,3.2c-1.5-1.4-3.2-1.2-5.4-1c-0.1-0.4-0.1-0.7-0.2-1.1c-0.2-0.9-0.6-1.2-1.5-1.2c-1.2-0.1-2.4,0.1-3.4,0.7
		c-2.7,1.9-6,2.9-9.1,3.9c-2.4,0.7-4.9,1.6-7.2,2.5c-0.2,0.1-0.6,0.2-0.9,0.1c-1.1-0.2-2.2-0.6-3.4-1c0-0.1,0-0.1,0-0.2
		c0.6-0.1,1.1-0.2,1.7-0.5c1.1-0.4,2.2-0.7,3.2-1.1c0.7-0.4,1.2-1,1.4-1.9c0-0.4,0.2-0.5,0.6-0.5c2.4-0.2,4.7-0.6,6.9-1.7
		c1-0.5,1.9-1.5,2.5-2.4c1.5-2.1,3.5-3.7,5.5-5.4c1.2-1.1,2.1-2.6,3.1-4c0.6-1,1.4-1.9,2.1-2.9c0.4-0.6,0.7-1.2,1.1-1.9
		c0.2-0.5,0.6-0.6,1.1-0.4c0.3,0.1,0.8,0.3,1.2,0.5c0.3,0.2,0.6,0.3,0.9,0.5c0.2,0.3,0.4,0.6,0.4,1
		C512.9,279.5,513.1,283,512.4,286.4z M531.8,321.8c1,2.7,1.7,5.5,2.6,8.2c0.5,1.9,1,3.7,1.1,5.7c0,0.7,0.2,1.5,0.4,2.2
		c0.2,1.4,0,2-1.1,2.6c-1.2,0.7-2.5,1.5-3.7,2.4c-1.6,1.2-3.6,1.7-5.7,2c-0.9,0.1-1-0.1-1-0.9v-4.1c-0.4-4.5,0.6-8.4,2.1-12
		c0.2-0.6,0.4-1.1,0.5-1.7c0.4-2.7,1.5-5.2,2.7-7.7c0.1-0.2,0.2-0.4,0.4-0.4c0.1,0,0.2,0.2,0.4,0.4
		C531,319.6,531.5,320.7,531.8,321.8z"/>
	<path class="st0" d="M495.5,285c-1.5,0.9-3.1,1.6-4.6,2.5c-2,1.1-4,0.6-5.9-0.4c-0.5-0.2-0.9-0.7-1.4-1.1c-1-0.7-1.9-1.5-3-2.2
		c0.1-0.1,0.2-0.2,0.2-0.2c1.9,0.1,3.9-0.1,5.7,0.5c0.4,0.1,0.7,0.1,1.1,0c1.2-0.6,2.6-0.4,3.9-0.1c1.1,0.2,2.1,0.4,3.2,0.6
		c0.1,0,0.4,0.1,0.5,0.1C495.5,284.9,495.5,285,495.5,285z M494.6,285.1c0-0.1,0-0.1,0-0.2c-0.4,0-0.7-0.1-1.1,0
		c-1.9,0.4-3.6,0.9-5.5,0.9c-1.6,0-3.1-0.1-4.6-1c-0.4-0.2-0.9-0.4-1.4-0.6c0,0,0,0.1-0.1,0.1c0.9,0.7,1.7,1.4,2.6,2.1
		c1.6,1.5,4.1,1.9,6.1,0.9c0.6-0.2,1.2-0.6,1.7-0.9C493.1,285.9,493.9,285.5,494.6,285.1z M483.6,284c0,0.1,0,0.2,0,0.4
		c2.7,1.1,5.5,1,8.4,0.1c-1.2-0.4-2.5-0.6-3.9-0.1c-0.5,0.1-1.2,0.1-1.7,0C485.5,284.4,484.6,284.1,483.6,284z"/>
	<path class="st0" d="M478.9,268.4c-1.9,0.2-3.2-1-4.4-2.2c-0.1-0.1-0.1-0.2-0.1-0.5c0.1,0,0.4-0.1,0.5-0.1c1.4,0.7,2.7,0.5,4.1,0.1
		c1.2-0.2,2.4-0.4,3.6,0.1c0.1,0.1,0.4,0.1,0.5,0.2c0.1,0.1,0.2,0.4,0.4,0.6c-0.2,0.1-0.5,0.2-0.6,0.4c-0.2,0.1-0.6,0.2-0.9,0.4
		C481.2,268.1,480.2,268.5,478.9,268.4z M480.2,266c-0.1,0.6-0.1,1.1-0.2,1.7c0.9-0.5,1.6-0.9,2.4-1.2c0-0.1,0-0.2,0-0.4
		C481.7,266.3,480.9,266.1,480.2,266z M479.7,266.6c-0.6-0.1-1.1-0.1-1.5-0.1c-0.1,0-0.5,0.4-0.4,0.5c0,0.2,0.2,0.5,0.5,0.5
		C478.8,267.6,479.3,267.4,479.7,266.6z M477,267.5c0-0.9-0.2-1-1-0.7C476.4,267,476.7,267.3,477,267.5z"/>
	<path class="st0" d="M494.6,266.1c0.5,0,0.9,0,1.1,0.1c1.7,0.5,3.5,0.6,5.4,0.5c0.1,0,0.4,0.1,0.5,0.2c-0.1,0.1-0.1,0.4-0.2,0.5
		c-0.4,0.4-0.7,0.6-1,0.9c-0.9,0.7-2,0.9-3.1,0.7c-1.1-0.1-2.2-0.4-3.4-1c-0.5-0.2-1-0.6-1.1-1.2c0-0.4,0.1-0.5,0.4-0.6
		C493.8,266.4,494.4,266.3,494.6,266.1z M495.6,268.5c-0.1-0.6-0.1-1.1-0.2-1.7c-0.6,0-1.4,0.1-2.2,0.1
		C493.9,268,494.9,268,495.6,268.5z M498,267.4c-0.6-0.1-1.1-0.2-1.7-0.4c-0.2,0.7-0.1,1.1,0.4,1.2
		C497.4,268.5,497.9,268.1,498,267.4z M498.1,268.8c1,0,1.6-0.5,2.4-1.2c-0.5-0.1-0.9-0.1-1.4-0.1c-0.1,0-0.2,0.1-0.2,0.2
		C498.5,268,498.4,268.4,498.1,268.8z"/>
	<path class="st0" d="M503.9,263.3c-0.2,0.2-0.4,0.5-0.5,0.5c-0.4,0.1-0.6,0.2-1,0.2c-2.5,0-4.7,0.6-7.1,1.5
		c-0.4,0.1-0.7,0.2-1.2,0.2c-0.5,0.1-1,0.2-1.5,0.2c-0.2,0-0.4,0-0.6-0.1c0.1-0.2,0.1-0.5,0.2-0.6c0.4-0.2,0.7-0.4,1.1-0.4
		c0.7-0.2,1.5-0.2,2.1-0.5c1.9-0.7,3.9-1.4,6-1.4c0.5,0,1-0.1,1.5-0.1C503.3,263,503.5,263.1,503.9,263.3z"/>
	<path class="st0" d="M473.7,261.8c1.1,0.4,2.2,0.7,3.4,1.1c1,0.4,2.1,0.9,3.1,1.2c0.2,0.1,0.2,0.5,0.4,0.6c-0.4,0.1-0.7,0.4-1,0.4
		c-1-0.4-2-1-3-1.4c-0.9-0.2-1.7-0.5-2.6-0.6c-0.2,0-0.4,0-0.6-0.1c-0.2-0.1-0.5-0.5-0.7-0.6C473,262.3,473.3,262,473.7,261.8z"/>
	<path class="st0" d="M483.5,277.3c0,0.2,0.1,0.5,0.1,0.7c0,1.4,1.6,3.2,3,3.2c0.5,0,1-0.1,1.5-0.4c1-0.5,1.9-1.2,2.7-1.9
		c0.5-0.4,0.9-0.7,0.7-1.4c0-0.1,0.1-0.2,0.1-0.5c0.1,0.1,0.4,0.2,0.4,0.4c0.1,0.5,0.1,1-0.2,1.4c-0.4,0.4-0.9,0.6-1.4,0.9
		c-0.6,0.4-1.2,0.9-1.9,1.2c-1.7,1.5-3.6,0.6-4.6-0.6c-0.6-0.7-1.4-1.5-1.2-2.6c0-0.2,0.1-0.4,0.1-0.6
		C483.3,277.3,483.4,277.3,483.5,277.3z"/>
</g>
</svg>
