<?xml version="1.0" encoding="utf-8"?>
<!-- Generator: Adobe Illustrator 18.1.1, SVG Export Plug-In . SVG Version: 6.00 Build 0)  -->
<!DOCTYPE svg PUBLIC "-//W3C//DTD SVG 1.1//EN" "http://www.w3.org/Graphics/SVG/1.1/DTD/svg11.dtd">
<svg version="1.1" id="Layer_1" xmlns="http://www.w3.org/2000/svg" xmlns:xlink="http://www.w3.org/1999/xlink" x="0px" y="0px"
	 viewBox="0 0 100 111.3" style="enable-background:new 0 0 100 111.3;" xml:space="preserve">
<style type="text/css">
	.st0{fill:#FF9800;}
</style>
<g id="motion-recom">
	<path class="st0" d="M25.1,111.3c0.3-1.4-0.4-2.1-1.3-2.9c-1-0.9-1.9-1.9-2.9-2.8c-0.3-0.3-0.8-0.4-1.3-0.4
		c-1.4-0.2-2.8-0.4-3.7-1.6c-0.1-0.1-0.1-0.2-0.2-0.2c-1.3-0.2-2.1-1.2-3.2-1.9c-0.9-0.6-1.6-1.3-2.4-2c-1.2-0.9-2-2-2.9-3.1
		c-1.2-1.5-2.5-3-3.7-4.5c-1.3-1.7-2-3.7-2.2-5.8c0-0.4-0.2-0.9-0.2-1.3c-0.2-1.6-0.3-3.1-0.5-4.7C0.3,78.2,0,76.5,0,74.7
		c0-2.3,0.7-4.1,2.3-5.7c0.9-0.9,1.5-2.1,2.2-3.2c1.7-2.7,3-5.5,4.3-8.4c0.4-1,1.2-1.9,1.7-2.8c0.7-1.4,1.2-2.9,1.9-4.3
		c0.6-1.2,1.2-2.4,1.9-3.5c0.9-1.5,1.9-3,2.9-4.5c0.3-0.4,0.9-0.6,1.4-1c0.2-0.1,0.5-0.3,0.6-0.5c0.5-1.8,1.6-3.2,3.1-4.2
		c0.7-0.5,1.5-0.8,2.2-1.3c1-0.6,1.2-1.6,1.3-2.7c0-1.2,0-2.3-0.1-3.5c0-1.3,0.1-2.5,0.4-3.7c0.3-1.5,0.6-3.2,0.5-4.7
		c0-2.1,0.3-4.2,0.8-6.2c0.3-1.2,0.4-2.4,0.6-3.6c0.2-1.3,0.8-2.5,1.5-3.7c1-1.5,2.2-2.7,3.7-3.8c0.8-0.6,1.7-1,2.6-1.5
		c0.7-0.4,1.4-0.7,2.2-1.1c1.2-0.6,2.5-0.4,3.8-0.3c0.4,0,0.7,0.3,1.1,0.4c0.2,0,0.4,0,0.6-0.2c0.8-0.8,1.9-1,3.1-0.6
		c1.7,0.7,2.9,1.8,4,3.2C52,5.2,53.5,7.1,54.8,9c1,1.4,1.9,3,2.5,4.7c0.3,1,0.8,2,1.2,2.9c0.1,0.3,0.4,0.5,0.6,0.7
		c0.1-0.1,0.2-0.1,0.2-0.1c0.4-1.1,0.4-1.1,1.6-1.1c0.9,0,1.7,0.1,2.5,0.4c0.5,0.2,1.1,0.2,1.6,0.2c1.2,0,2.3-0.1,3.5-0.2
		c1,0,1.9,0.5,2.9,0.8c0.6,0.2,1.1,0.4,1.7,0.5c0.9,0.2,1.7,0.4,2.6,0.5c0.6,0.1,1.3,0.1,2,0.2c0.9,0.1,1.8,0.2,2.7,0.4
		c0.8,0.2,1.6,0.4,2.4,0.6c0.3,0.1,0.7,0.2,1,0.5c1.1,1.1,2.6,1.5,4,1.9c0.6,0.2,1.2,0.6,1.8,0.8c1.7,0.6,3.4,1.2,5.1,1.8
		c2,0.7,3.8,1.8,4.9,3.6c0.3,0.4,0.4,0.9,0.5,1.4c0.1,0.8,0,1.6,0,2.4c-0.1,1.3-0.9,2.3-1.7,3.3c-0.7,0.9-1.6,1.6-2.5,2.2
		c-0.5,0.3-1,0.7-1.3,1.2c-0.9,1.3-2.1,2-3.4,2.6c-0.7,0.3-1.4,0.8-2,1.2c-0.5,0.3-0.9,0.7-1.4,0.9c-1.9,0.8-3.8,1.5-5.7,2.3
		c-0.9,0.4-1.9,0.8-2.8,1.3c-0.5,0.3-0.7,0.8-0.7,1.3c-0.1,1.6,0.2,3.1,0.6,4.6c0.8,2.6,1.2,5.3,1.6,8c0.3,2.4,0.8,4.8,1.2,7.3
		c0.3,1.9,0.4,3.9,1,5.7c0.5,1.5,1.1,3,1.6,4.6c0.4,1.7,0.7,3.4,1,5.1c0,0.2,0.1,0.5,0.1,0.7c0.4,2,0.3,4,0.3,6c-0.1,2,0.1,4,0.4,6
		c0.2,0.9,0.1,2-0.1,2.9c-0.1,0.6-0.6,1.2-1,1.8c-1.3,2.1-3.1,3.7-5.3,4.7c-0.3,0.1-0.6,0.2-1,0.3c-0.2,0-1.2-1.2-1.1-1.4
		c0-0.2,0.1-0.4,0.3-0.5c0.5-0.3,0.5-0.8,0.3-1.3c-0.4-1-0.9-1.9-1.3-2.9c-0.6-1.7-2-2.8-3-4.2c-0.1-0.1-0.1-0.2-0.2-0.2
		c-1.1,0.4-2.2,0.7-3.3,1.1c-0.4,0.1-0.6,0.3-0.4,0.7c0.4,1,0.8,2.1,1.1,3.1c0.5,1.6,1.3,3,1.4,4.7c0,0.1,0,0.3,0.1,0.3
		c0.6,0.6,0.4,1.4,0.5,2.2c0.2,1.1,0.4,2.2,0.6,3.2c0,0.1,0,0.2,0,0.4c-0.6,0-1.2,0-1.8,0c-0.1-0.7-0.3-1.5-0.3-2.1
		c0.2-2.3-1-4.3-1.5-6.5c-0.2-0.8-0.4-1.6-0.6-2.4c-2.3,0.4-4,1.7-5.8,2.9c-1.9,1.3-3.9,2.5-5.8,3.8c-0.6,0.4-1.2,0.6-1.8,1
		c-0.2,0.1-0.3,0.3-0.5,0.4c-0.2,0.1-0.5,0.2-0.7,0.1c-0.3-0.2-0.3-0.6,0-0.8c0.3-0.2,0.7-0.4,1-0.6c1.6-1,3.2-2,4.8-3
		c2.3-1.4,4.4-3.2,6.9-4.1c0.5-0.2,1-0.3,1.5-0.5c-0.3-0.9-0.7-1.8-0.9-2.7c-0.3-1.2-0.6-2.4-0.9-3.6c-0.4-2.1-0.7-4.2-1.2-6.3
		c-0.5-2.4-1-4.7-1.6-7c-0.4-1.5-0.9-3.1-1.3-4.7c-1.2,0.7-2,1.6-2.7,2.7c-1.4,2.5-3.5,4.4-5.5,6.4c-0.4,0.4-0.9,0.7-1.4,1
		c-1.5,1-3.1,1.9-4.6,2.9c-0.5,0.3-1.1,0.6-1.6,0.8c-0.3,0.2-0.6,0.5-1,0.6c-0.5,0.1-1,0.1-1.5,0c-0.3-0.1-0.3-0.6,0.1-0.8
		c0.4-0.2,0.8-0.3,1.2-0.4c0.9-0.4,1.8-0.8,2.7-1.2c1.3-0.7,2.5-1.6,3.8-2.3c1.2-0.7,2.3-1.6,3.3-2.7c1.5-1.6,3-3.3,4.2-5.2
		c0.5-0.8,1.4-1.5,2.1-2.2c0.2-0.2,0.4-0.4,0.6-0.5c-0.9-1.7-1.8-3.4-2.6-5.1c-1.2-2.5-2.3-5.1-3.4-7.6c-0.2-0.4-0.2-0.8-0.5-1.1
		c-0.8-1.2-1-2.6-1.2-3.9c-0.2-1.2-0.5-2.3-0.7-3.4c-0.1-0.4-0.6-0.5-0.9-0.2c-1.1,1-2.1,2-3.2,3.1c-0.9,0.9-1.9,1.7-3.2,2
		c-0.3,0.1-0.5,0.2-0.8,0.4c-1.8,1.1-3.8,1.3-5.8,1.8c-0.3,0.1-0.7-0.1-1.1-0.1c-1,0.1-2,0.3-3,0.2c-1.2-0.1-2.4-0.3-3.6-0.5
		c-0.6-0.1-1.2-0.4-1.7-0.5c-0.3-0.1-0.6-0.1-0.9-0.2c-0.1,0.3-0.2,0.7-0.1,1c0.5,1.9,1.1,3.8,1.5,5.7c0.3,1.2,0.4,2.4,0.5,3.5
		c0.2,1.8,0.4,3.5,0.6,5.3c0.2,2,0.3,4,0.5,6c0.1,0.7,0.2,1.4,0.4,2c0.3,1.5,0.6,3,0.9,4.5c0.3,1.6,0.7,3.1,1,4.7
		c0.6,3.2,1.1,6.5,0.7,9.8c-0.1,1.1-0.6,2.1-0.9,3.1c-0.5,1.9-0.9,3.9-1.3,5.8c-0.1,0.3-0.2,0.6-0.6,0.6c-0.9,0-1.9,0.2-2.8-0.1
		c-0.9-0.3-1.6-0.2-2.4,0.1c-0.3,0.1-0.7,0-1,0.1c-0.3,0.1-0.6,0.3-1,0.3C26.1,111.2,25.7,111.2,25.1,111.3z M55.9,36.3
		c0,0.1,0,0.1,0.1,0.2c0.3,0.1,0.6,0.3,0.8,0.3c1.1,0.2,2.2,0.3,3.3,0.5c0.8,0.1,1,0.3,0.9,1.1c-0.2,1-0.6,1.9-0.7,2.9
		c-0.3,2.4-0.6,4.9-0.7,7.3c-0.1,2.2,0,4.3-0.1,6.5c-0.1,1.4,0.2,2.7,0.6,4c0.5,1.5,1,3,1.5,4.5c0.8,2.5,1.4,5,2.2,7.5
		c0.4,1.3,1,2.6,1.6,3.9c0.1,0.3,0.2,0.7,0.4,1c1,2.2,2.1,4.3,3.2,6.5c0.7,1.3,1.4,2.6,2.2,3.9c0.5,0.9,1.2,1.8,1.7,2.6
		c0.7,1.2,1.3,2.4,1.6,3.8c0.2,1.3,0.9,2.4,1.8,3.4c0.8,0.7,1.4,1.6,2.2,2.4c0.6,0.7,0.9,1.6,1,2.5c0.1,0.9,0.2,1.7,0.4,2.7
		c0.8-0.7,1.6-1.4,2.3-2.1c0.6-0.6,1.3-1.1,1.8-1.7c1.1-1.3,1.4-2.7,1.1-4.4c-0.2-1.4-0.2-2.8-0.3-4.2c-0.1-0.9,0-1.8-0.1-2.8
		c-0.1-1.4-0.2-2.8-0.3-4.3c0-1.3-0.2-2.6-0.7-3.9c-0.3-0.7-0.6-1.3-0.9-2c-0.8-1.9-1.4-3.9-1.6-6c-0.3-2.7-0.5-5.3-1.1-8
		c-0.3-1.2-0.4-2.4-0.5-3.6c-0.1-0.9,0-1.8-0.4-2.6c-0.4-0.9-0.6-1.9-0.8-2.8c-0.4-1.7-0.6-3.3-0.9-5c-0.1-1-0.3-2-0.2-3
		c0.1-0.7-0.3-0.8-0.7-0.9c-0.4-0.2-0.8-0.4-1.2-0.6c-0.6-0.4-1.3-0.7-1.9-1.2c-0.9-0.7-1.8-1.3-2.4-2.3c-0.4-0.7-1-1.2-1.6-1.8
		c-0.1-0.1-0.2-0.4-0.3-0.5c0.2-0.1,0.6-0.3,0.7-0.2c0.3,0.2,0.5,0.5,0.8,0.8c0.5,0.7,1,1.4,1.6,2c1.5,1.5,3.4,2.5,5.5,3.5
		c0-1,0-1.8,0-2.7c-0.1-1.1-0.2-2.1-0.3-3.2c-0.1-1.9-0.1-3.8-0.1-5.8c0-0.2,0-0.3-0.1-0.5c-1.4,0-2.5-0.6-3.5-1.3c-1-0.6-2-1-3.2-1
		c-1.1,0-2.2-0.3-3.2-0.4c-0.1,0-0.3,0-0.5,0.1c-0.7,0.4-1.4,0.8-2.1,1.1c-1.2,0.5-2.6,0.2-3.8,0.8C60,34.2,59,34.6,58.2,35
		c-0.4,0.2-0.8,0.4-1.1,0.6C56.6,35.8,56.3,36.1,55.9,36.3z M20.1,95.4c-0.8-1.3-1.7-2.5-2.2-3.9c-0.5-1.3-1.1-2.6-1.6-3.9
		c-0.4-1.2-0.7-2.4-1.2-3.6c-0.6-1.6-1-3.2-1.1-5c0-1.5-0.5-2.8-1.7-3.8c-0.2-0.1-0.3-0.3-0.5-0.5c-0.7-0.9-1.4-1.8-2.6-2
		c-0.4-0.1-0.6-0.5-0.3-0.8c0.3-0.3,1-0.3,1.3,0c0.1,0.1,0.2,0.2,0.3,0.3c1.6,1.1,3.1,2.4,4,4.4c0.4-0.7,0.7-1.3,1.1-1.9
		c0.7-1.3,1.5-2.5,2.2-3.8c0.4-0.6,1-1,1.3-1.5c0.7-1.5,1.4-3,1.9-4.5c0.2-0.6,0.2-1.2,0.3-1.8c0-0.2-0.1-0.5-0.1-0.7
		c-0.1-0.4-0.3-0.9-0.5-1.3c-0.5-1-0.9-2.1-1.5-3c-0.6-1-0.8-2-0.7-3.1c0-0.2,0.3-0.6,0.5-0.6c0.4-0.1,0.4,0.3,0.4,0.6
		c-0.1,0.9,0.1,1.8,0.6,2.6c0.4,0.6,0.7,1.2,1,1.8c0.6,1.3,1.2,2.6,1.4,4.1c0,0.6,0.1,1.3,0.2,1.9c0.3,1,0.7,2,1.2,2.9
		c0.7,1.4,0.9,2.9,1,4.5c0.1,1.2,0.2,2.6,0.6,3.7c0.7,1.8,0.8,3.7,0.8,5.6c0,0.6-0.1,1.2-0.3,1.7c-0.3,0.9-0.7,1.7-1,2.6
		c-0.5,1.6-0.7,3.2,0.2,4.8c0.4,0.6,0.8,1.2,1.2,1.9c0.2,0.4,0.5,0.6,1,0.6c1.1-0.1,2.1,0.1,3,0.5c0.1,0,0.2,0.1,0.3,0.1
		c1.2,0.1,2.1,0.8,3,1.6c0.4,0.4,0.4,1.4,0.2,1.9c-0.3,0.5-0.7,0.7-1.2,0.6c-0.8-0.2-1.6-0.4-2.3-0.7c-0.7-0.3-1.4-0.4-2-0.2
		c2,1.5,4.1,3,6.3,4.5c0.1-0.5,0.2-1,0.4-1.6c0.4-1.4,0.4-2.8,0.2-4.2c-0.2-1.2-0.3-2.5-0.4-3.7c-0.1-1.2-0.2-2.5-0.4-3.7
		c-0.4-2.1-1-4.2-1.4-6.3c-0.3-1.4-0.5-2.8-0.6-4.2c-0.1-1.7-0.4-3.4-0.6-5.1c-0.1-1.3-0.3-2.6-0.4-3.9c0-0.4,0.2-0.8,0.2-1.1
		c-0.5-1.8-1-3.7-1.5-5.5c-0.2-0.7-0.6-1.4-0.6-2.1c-0.1-1.7-0.9-3.2-1.7-4.6c-0.4-0.9-0.8-1.8-1.2-2.7c-0.4-0.9-0.8-1.8-1.2-2.8
		c-0.3,0.3-0.5,0.6-0.8,0.8c-0.5,0.5-0.9,0.5-1.4,0.2c-0.7-0.4-1.4-0.9-2.1-1.4c-0.2-0.1-0.4-0.2-0.5-0.4c-1.1-1.5-1.7-3.2-1.7-5.1
		c0-0.7,0.1-1.4,0.1-2.2c-0.1,0-0.1-0.1-0.2-0.1c-0.2,0.2-0.4,0.3-0.5,0.6c-0.2,0.2-0.3,0.5-0.4,0.7c-1.7,2.4-3.3,4.9-4.4,7.6
		c-0.5,1.3-1.1,2.6-1.7,3.9c-0.4,0.9-1.1,1.6-1.5,2.5c-1.6,3.4-3.2,6.7-5.2,9.8c-0.7,1.1-1.4,2.2-2.3,3.1c-0.9,0.9-1.2,1.9-1.4,3.1
		c-0.2,2.5,0.4,5,0.6,7.5c0.1,1.5,0.4,3.1,0.6,4.6c0.3,2.1,1,3.9,2.3,5.6c0.9,1.2,1.9,2.3,2.8,3.4c0.6,0.7,1.1,1.5,1.8,2.2
		c1.2,1.1,2.4,2.2,3.7,3.2c0.6,0.5,1.3,0.9,1.9,1.4C15.9,98.9,17.6,96.9,20.1,95.4z M78.4,45.7c0.3-0.1,0.4-0.1,0.4-0.2
		c2.1-1,4.1-1.9,6.2-2.9c0.8-0.4,1.5-0.8,2.3-1c0.6-0.2,1.2-0.3,1.7-0.7c0.5-0.4,1.1-0.7,1.7-1.1c0.5-0.3,1-0.5,1.4-0.9
		c0.9-0.8,1.7-1.7,2.6-2.5c0.9-0.8,1.9-1.6,2.5-2.7c0.2-0.3,0.4-0.6,0.7-0.9c0.8-1.1,1.1-2.4,0.6-3.6c-0.6-1.5-1.9-2.5-3.4-3.1
		c-2-0.8-4.1-1.5-6.1-2.3c-0.7-0.3-1.3-0.6-2-0.8c-1.3-0.4-2.6-0.8-3.7-1.7c-0.9-0.7-2-1-3.2-1c-1.5-0.1-3-0.3-4.5-0.6
		c-1.1-0.2-2.1-0.5-3.2-0.6c-0.9-0.1-1.8-0.2-2.5-0.8c-0.7-0.5-1.4-0.7-2.2-0.6c-0.1,0-0.3,0-0.4,0c-0.5-0.3-0.9-0.2-1.3,0
		c-1.1,0.5-2.2,0.2-3.3-0.1c-0.6-0.2-1.2-0.2-1.8-0.3c-0.1,0-0.2,0.1-0.3,0.2c-0.2,0.4-0.3,0.8-0.4,1.2c-0.3,1.2-0.6,2.5-0.9,3.7
		c-0.3,1.2-0.7,2.5-1,3.7c-0.2,0.7,0,0.9,0.6,1.1c0.9,0.2,1.8,0.3,2.7,0.6c0.7,0.2,1.4,0.4,2.1,0.6c0.3,0.1,0.6,0.2,0.8,0.3
		c0.7,0.5,1.3,1.1,2,1.7c1.2,0.9,2.7,1,4.1,1c1.3,0,2.3,0.3,3.4,0.9c0.8,0.5,1.8,0.8,2.7,1.1c0.8,0.3,1.7,0.4,2.6,0.5
		c0.7,0.1,1.4,0,2-0.2c1.3-0.5,2.5-1.1,3.8-1.6c0.9-0.4,1.9-0.8,2.8-1.2c0.8-0.3,1.7-0.6,2.5-0.9c0.2-0.1,0.4,0,0.7,0
		c0,0.3,0,0.6-0.2,0.7c-0.3,0.2-0.7,0.2-1,0.3c-1.3,0.5-2.5,0.9-3.7,1.4c-1.6,0.6-3,1.6-4.7,1.8c-1.1,0.1-2.1,0.7-3.4,0
		C78.2,38.1,78.3,41.8,78.4,45.7z M37.4,35.1c-0.3,1.1-0.6,2.2-0.9,3.2c-0.6,1.8-1.7,3.4-2.1,5.2c-0.4,1.7,0.4,3.4,2,4
		c0.5,0.2,1.1,0.2,1.6,0.4c0.2,0.1,0.5,0.4,0.5,0.6c0,0.2-0.3,0.6-0.6,0.6c-1.7,0.1-3.3,0.2-4.5-1.3c-0.1-0.2-0.3-0.3-0.4-0.4
		c-0.4-0.4-0.9-0.7-1.3-1.1c-0.1,0-0.1,0-0.2,0c-0.1,0.6-0.2,1.2-0.2,1.8c-0.2,2.7-0.3,5.3-0.5,8c0,0.6,0.1,0.9,0.6,1.1
		c0.1,0,0.2,0.1,0.3,0.1c1.5,0.7,3.1,0.7,4.7,0.8c1.5,0.1,3-0.1,4.5-0.2c2-0.1,4-0.5,5.8-1.3c1.1-0.5,2.3-1.1,3.2-1.9
		c1.1-1,2.1-2.3,3.1-3.5c0.7-0.9,1.4-1.8,1.1-3c-0.5-2.1-1.1-4.2-1.6-6.3c-0.4-1.6-1.3-3.1-2.1-4.5c-0.3-0.5-0.4-1.2-0.6-1.7
		c-0.1-0.2-0.2-0.4-0.2-0.7c-0.1,0-0.2,0-0.3,0.1c-0.1,0-0.2,0.1-0.3,0.2c-0.9,0.9-2.1,1.3-3.2,1.8c-0.4,0.2-0.8,0.2-1.2,0.2
		c-1.2,0.2-2.4-0.2-3.6-0.5c-1.1-0.2-2.1-0.5-2.9-1.5C37.8,35.2,37.6,35.2,37.4,35.1z M35.5,20.3c0,0.1,0.1,0.1,0.1,0.2
		c0.1,0,0.2,0,0.3-0.1c1.4-0.5,2.9-0.7,4.2,0.4c0.1,0.1,0.2,0.2,0.3,0.3c-0.1,0.1-0.2,0.2-0.3,0.3c-0.3,0.1-0.6,0.2-0.8,0.4
		c-0.7,0.5-1.4,0.7-2.3,0.5c-0.4-0.1-0.8,0-1.2,0c-0.4,0-0.6,0.2-0.6,0.5c0.1,0.5,0.1,1.1,0.3,1.6c0.4,1.1,0.9,2.1,1.3,3.1
		c0.6,1.7,1,3.4,0.9,5.2c-0.1,1.4,0.6,2.3,1.8,2.8c0.9,0.4,1.8,0.7,2.8,0.9c1.2,0.3,2.4,0.4,3.5-0.2c0.8-0.4,1.6-1,2.4-1.5
		c1-0.6,1.7-1.6,2.5-2.5c0.9-1.1,1.4-2.5,1.6-3.9c0.3-1.9,0.4-3.7,0.7-5.6c0.1-0.6-0.1-1.1-0.6-1.5c-0.4-0.3-0.8-0.5-1.1-0.8
		c-0.4-0.5-0.6-0.4-1-0.1c-1.3,1-2.8,1.2-4.4,0.7c-0.3-0.1-0.6-0.2-1.1-0.4c1.4-1.2,2.8-1.8,4.5-1.8c-0.4-0.5-0.8-0.6-1.3-0.4
		c-0.8,0.3-1.6,0.6-2.4,0.8c-0.1,0-0.3-0.1-0.5-0.1c0.1-0.2,0.1-0.4,0.2-0.5c0.1-0.1,0.4-0.2,0.5-0.3c0.4-0.2,0.8-0.3,1.4-0.5
		c-0.2-0.1-0.3-0.2-0.4-0.2C45.2,17.3,44,17,42.8,17c-1.4,0-2.2-0.7-2.8-1.8c-0.1-0.1-0.2-0.3-0.3-0.3c-0.7,0-1.3-0.4-1.7-1.1
		c-0.2,0.6-0.5,1.1-0.5,1.5c-0.1,1.1-0.4,2.2-1.1,3.1c0.9,0,1.8,0,2.6,0c0.3,0,0.8,0.1,0.8,0.3c0.1,0.5-0.4,0.5-0.7,0.6
		c-0.1,0-0.2,0-0.3,0c-1,0.1-2,0-3,0.5C35.7,20,35.6,20.1,35.5,20.3z M21.8,66.8c-0.1,0.1-0.2,0.1-0.2,0.2c-0.1,0.1-0.1,0.3-0.2,0.5
		c-0.5,1.4-1.1,2.7-2.1,3.8c-0.4,0.5-0.9,1-1.2,1.6c-1,1.7-2,3.4-3,5.1c-0.1,0.2-0.1,0.4-0.1,0.6c0.1,1.1,0.2,2.3,0.5,3.4
		c0.7,2.4,1.6,4.7,2.4,7c0.4,1.2,1,2.3,1.5,3.4c0.4,0.7,0.8,1.4,1.3,2.1c0.2,0.2,0.7,0.4,1,0.3c1.1-0.3,2.1-0.7,3.2-1.1
		c-0.2-0.2-0.4-0.5-0.6-0.9c-0.5-1-1.1-2-1.1-3.3c0-1.7,0.4-3.2,1.1-4.7c1-2.3,1-4.7,0.1-7c-0.2-0.5-0.3-1-0.4-1.5
		c-0.2-1.4-0.4-2.9-0.5-4.4C23.4,70,22.2,68.5,21.8,66.8z M57.7,24.9c0.6-1.9,1.1-3.6,1.6-5.3c0.2-0.6,0.4-1.3-0.2-1.8
		c-0.8-0.5-1.3-1.3-1.6-2.1c-0.7-1.6-1.7-2.8-2.8-4.1c-0.1-0.1-0.1-0.1-0.2-0.2c-1.3-0.9-2.6-1.8-3.7-2.9c-0.7-0.7-1.3-1.4-2.4-1.5
		c-0.6,0-1.3-0.1-1.9-0.3c-1-0.5-2.1-0.3-3.2-0.4c-0.6-0.1-1.5,0.7-1.5,1.2c0,0.3,0.7,0.8,1.4,0.8c1,0,2.1,0.1,3.1,0.1
		c0.4,0,0.9,0.1,1.3,0.2c1.2,0.2,2.1,0.9,3.1,1.7c0.2,0.1,0.2,0.4,0.3,0.6c-0.2-0.1-0.5-0.1-0.7-0.2c-1.4-1.1-2.8-1.9-4.6-1.7
		c-0.8,0.1-1.5,0.2-2.3,0.2c-1.5,0-3,0.3-4.5,0.6c-0.4,0.1-0.6,0.4-0.4,0.8c0.3,0.8,0.7,1,1.5,0.9c1.4-0.2,2.8-0.3,4.2-0.6
		c2.2-0.4,4.2,0.4,6.1,1.3c0.1,0.1,0.2,0.3,0.3,0.5c-0.2,0-0.4,0-0.6,0c-1.1-0.4-2.1-1.1-3.2-1.2c-1.4-0.2-2.8,0.1-4.2,0.2
		c-1.3,0.1-2.6,0.7-3.9,0.3c-0.1,0-0.3,0.1-0.4,0.2c-0.4,0.7,0.2,2,1,2c1,0,2,0,2.9-0.1c2.7-0.4,5.3-0.1,7.9,0.9
		c0.2,0.1,0.4,0.4,0.6,0.6c-0.2,0-0.5,0.1-0.7,0c-0.9-0.3-1.8-0.8-2.7-0.8c-1.8-0.1-3.6-0.4-5.4,0c-0.4,0.1-0.9,0.1-1.4,0.1
		c0.1,0.9,1,1.5,1.9,1.6c0.8,0,1.7,0,2.5,0.2c0.9,0.1,1.9,0.2,2.6,0.6c1.5,0.7,3,1.6,4.2,2.8c1.6,1.5,3.3,2.9,5,4.3
		C57.1,24.5,57.4,24.7,57.7,24.9z M26.8,94.5c-0.1,0-0.4,0.1-0.7,0.2c-0.4,0.1-0.8,0.2-1.2,0.2c-0.5,0.1-1,0.1-1.5,0.3
		c-0.7,0.3-1.4,0.8-2.2,1c-0.9,0.3-1.7,0.9-2.3,1.6c-0.9,0.9-1.6,1.9-2.4,2.9c-0.5,0.7-0.4,1.1,0.1,1.8c0.7,0.9,1.7,1.2,2.8,1.3
		c0.8,0.1,1.6,0.2,2.2,0.7c0.3,0.2,0.5,0.5,0.7,0.7c1.2,1.1,2.3,2.3,3.5,3.4c0.5,0.4,0.9,0.8,1.5,1.2c0.4,0.2,0.9,0.5,1.2,0
		c0.3-0.5-0.3-0.8-0.6-1.1c-0.6-0.5-1.3-0.9-1.8-1.5c-0.8-0.9-1.6-1.8-2.4-2.7c-0.2-0.2-0.4-0.5-0.6-0.7c-0.4-0.6-0.2-1.6,0.4-2
		c0.1-0.1,0.4-0.1,0.5,0c0.8,0.6,2,0.9,2.6,1.9c0.1,0.2,0.4,0.4,0.6,0.6c0.5,0.3,1,0.6,1.4,0.9c0.6,0.4,1.3,0.9,1.9,1.3
		c0.5,0.3,1.2,0.2,1.6-0.2c0.4-0.5-0.2-0.8-0.4-1.1c-0.1-0.2-0.4-0.3-0.6-0.4c-0.6-0.4-1.2-0.9-1.8-1.3c-0.7-0.5-1.3-1-1.9-1.5
		c-0.3-0.2-0.6-0.5-0.9-0.7c-0.6-0.5-1.2-1.1-2.1-1.2c-0.2,0-0.3-0.3-0.5-0.5c0.2-0.1,0.4-0.2,0.6-0.3c0.1,0,0.3,0,0.4,0
		c1.4,0.6,3,0.9,4.3,1.9c0.3,0.3,0.6,0.5,1,0.7c0.8,0.5,1.6,0.9,2.4,1.3c0.2,0.1,0.6,0,0.8-0.1c0.1-0.1,0.1-0.5,0-0.7
		c-0.2-0.3-0.5-0.5-0.8-0.7c-0.8-0.6-1.6-1.3-2.5-1.8c-0.9-0.6-1.7-1.4-2.9-1.6c-0.7-0.1-1.4-0.2-2-0.4c-0.2-0.1-0.4-0.3-0.5-0.5
		c0.2-0.2,0.3-0.4,0.6-0.5c0.1-0.1,0.3,0,0.5,0c0.5,0,1,0,1.5-0.1c1.2-0.3,2.3-0.3,3.4,0.3c0.5,0.3,1,0.4,1.6,0.5
		c0.2,0,0.7-0.1,0.7-0.2c0.1-0.3,0.1-0.7-0.1-1c-0.2-0.3-0.5-0.6-0.9-0.7C30.4,94.9,28.7,94.7,26.8,94.5z M60.9,66.9
		c0-0.2,0.1-0.3,0.1-0.3c-0.4-1.6-0.8-3.2-1.3-4.8c-0.7-2.1-1.4-4.2-1.4-6.4c0.1-3.9,0.2-7.8,0.4-11.6c0-0.5,0-1,0.2-1.5
		c0.3-1.1,0.6-2.1,1-3.2c0.1-0.4,0-0.6-0.4-0.6c-1.2-0.1-2.4-0.4-3.6-0.7c-0.9-0.2-1.7-0.7-2.5-1.1c-0.9-0.4-1.6-1.1-2.7-1.3
		c0,0.3,0,0.6,0.1,0.8c0.3,0.6,0.6,1.2,0.9,1.8c0.5,1.3,1.1,2.5,1.5,3.8c0.6,2,1,4,1.6,6c0.3,1.3,0.8,2.5,0.6,3.8
		c0,0.2,0,0.4,0.1,0.7c0.4,1.6,0.7,3.2,1.1,4.7c0.4,1.3,0.9,2.6,1.4,3.8c0.6,1.5,1.4,2.9,2.1,4.3C60.4,65.6,60.6,66.2,60.9,66.9z
		 M65.9,31.1c-0.7-0.6-1.4-1.1-2.1-1.7c-0.1-0.1-0.3-0.1-0.4-0.2c-0.7-0.2-1.4-0.4-2.1-0.6c-1.1-0.3-2.1-0.5-3.2-0.7
		c-0.3-0.1-0.6,0-0.6,0.4c0,0.3,0,0.6,0,0.8c0,0.4,0.1,0.8,0,1.2c-0.4,1.4-1.3,2.3-2.3,3.3c-0.2,0.2-0.6,0.3-0.8,0.4
		c-0.5,0.3-1,0.6-1.6,0.9c0.4,0.3,0.7,0.4,1,0.6c0.5,0.4,0.9,0.3,1.3,0c1.7-1.3,3.6-2.2,5.6-2.9c0.6-0.2,1.2-0.4,1.8-0.4
		C63.7,32.2,64.8,31.7,65.9,31.1z M29.1,56.4c0.1,0,0.1,0,0.2,0c0-0.4,0-0.9,0.1-1.3c0.2-1.8,0.5-3.6,0.7-5.4
		c0.1-1.2,0.2-2.5,0.2-3.7c0-0.4-0.4-0.7-0.8-0.6c-1.5,0.3-2.5,1.2-3.1,2.4c-0.3,0.5-0.5,1.2-0.2,1.9c0.5,1.1,1,2.2,1.3,3.3
		C27.7,54.3,28.5,55.3,29.1,56.4z M32.6,107c-0.1,0.1-0.2,0.2-0.4,0.3c-0.6,0.5-1.3,0.5-2,0.1c-1.2-0.8-2.3-1.6-3.5-2.4
		c-0.9-0.6-1.3-1.6-2.4-2c-0.2-0.1-0.4,0-0.6,0c0,0.2,0,0.5,0.1,0.6c1.2,1.4,2.5,2.7,3.8,4c0.4,0.4,0.9,0.6,1.3,1
		c0.8,0.8,1.8,1.3,3,1.2c0.2,0,0.4-0.2,0.5-0.4C32.5,108.7,32.5,107.9,32.6,107z M45.3,5.7c-0.1-0.5-0.2-0.9-0.4-1.3
		c-0.3-0.7-0.7-1.4-1.1-2.1c-0.1-0.1-0.3-0.2-0.5-0.2c-0.1,0.2-0.3,0.4-0.2,0.6c0.2,0.5,0.4,1,0.6,1.6c0.1,0.3,0.4,0.6,0.3,0.8
		c-0.1,0.6,0.3,0.7,0.7,0.6C44.9,5.7,45,5.7,45.3,5.7z M33,106c0,0,0.1,0,0.1,0c0.2-0.6,0.5-1.3,0.7-1.9c0,0-0.1-0.1-0.1-0.1
		c-0.8,0.5-1.5,0.2-2.2-0.3c-0.5-0.3-1.1-0.5-1.7-0.8c0.2,0.3,0.4,0.5,0.7,0.7C31.5,104.3,32.7,104.7,33,106z M39.4,20.8
		c-0.3-0.4-0.6-0.4-0.9,0c-0.8,1-1.1,1-1.9,0c0,0-0.1,0-0.2-0.1c-0.2,0.2-0.5,0.4-0.9,0.7C37,21.9,38.3,22,39.4,20.8z M48.5,20.6
		c0.3-0.2,0.6-0.3,0.9-0.5c0.1-0.1,0.2-0.2,0.1-0.3c0-0.1-0.2-0.2-0.3-0.2C48.7,19.4,48.4,19.8,48.5,20.6z M46.6,19.7
		c-0.4,0.2-0.7,0.4-1.2,0.6c0.6,0.1,1,0.2,1.5,0.4C46.8,20.3,46.7,20.1,46.6,19.7z"/>
	<path class="st0" d="M42.9,29.2c0.4,0,1-0.1,1.6-0.2c1.1-0.1,1.8,0.4,2.4,1.2c0.1,0.1,0.1,0.5,0,0.7c-0.8,1.3-3,2.7-4.8,2.1
		c-0.5-0.2-1-0.6-1.5-0.9c-0.1-0.1-0.2-0.3-0.3-0.4c-1.1-1-0.7-1.1,0.2-1.8C41.2,29.5,41.8,29,42.9,29.2z M40.7,31.1
		c0.6,1.1,1.5,1.7,2.7,1.6c1.2-0.1,2.3-0.7,3-1.8C44.5,31.8,42.7,32.1,40.7,31.1z M46.5,30.5c-0.5-1-1.4-1.2-2.3-1
		c-0.3,0.1-0.7,0.2-1,0.1c-1.2-0.3-1.8,0.6-2.6,1.2C42.6,30,44.5,29.6,46.5,30.5z M41.6,30.8c1,0.8,3.2,0.6,3.8-0.3
		C44.1,30,42.9,30.6,41.6,30.8z"/>
	<path class="st0" d="M44.5,25.7c0.5-0.1,0.7,0.2,0.7,0.5c0,0.3-0.2,0.7-0.5,0.9c-0.3,0.3-0.8,0.5-1.2,0.7c-0.5,0.3-0.9,0.2-1.3-0.1
		c-0.3-0.3-0.7-0.5-1.1-0.4c-0.2,0-0.5-0.2-0.6-0.3c0-0.2,0.1-0.5,0.2-0.8c0-0.1,0.2,0,0.4,0c0,0.2,0,0.4,0,0.6
		c0.5,0.3,1,0.6,1.5,0.8c0.2,0.1,0.5,0,0.7-0.1c0.4-0.2,0.8-0.5,1.3-0.7c0.3-0.2,0.5-0.3,0.2-0.7C44.6,26,44.6,25.9,44.5,25.7z"/>
</g>
</svg>
