<?xml version="1.0" encoding="utf-8"?>
<!-- Generator: Adobe Illustrator 19.2.0, SVG Export Plug-In . SVG Version: 6.00 Build 0)  -->
<svg version="1.1" id="Layer_1" xmlns="http://www.w3.org/2000/svg" xmlns:xlink="http://www.w3.org/1999/xlink" x="0px" y="0px"
	 viewBox="0 0 150 243" style="enable-background:new 0 0 150 243;" xml:space="preserve">
<style type="text/css">
	.st0{fill:#FF5722;}
</style>
<g id="sorethroat-lady">
	<path class="st0" d="M15.7,243c-0.3-4.1-0.6-8.2-0.9-12.2c-0.3-3-0.6-6-0.9-9.1c-0.3-2.9-0.6-5.9-0.7-8.8
		c-0.1-5.5-0.6-10.8-1.5-16.2c-0.6-3.8-1.1-7.7-1.3-11.6c-0.3-5.4-1.6-10.4-3.4-15.5c-2.4-6.6-4.6-13.3-6.7-20
		c-0.5-1.6-0.2-3.4-0.2-5.1c0-2.1,0.4-4.2,0.3-6.2c-0.4-7,2.5-12.3,7.5-16.8c2.7-2.4,5.8-4.3,7.8-7.5c2.1-3.3,4.7-6,5.5-10.2
		c1-5.1,2.9-9.9,4.3-14.9c0.7-2.3,0.8-4.8,1.5-7.1c0.8-2.8,2.1-5.4,2.9-8.1c0.9-3.2,1.6-6.4,2.3-9.6c0.5-2.4,0.8-4.8,1.3-7.1
		c1.6-7.4,3.2-14.8,5-22.1c1-3.9,2.1-7.9,3.4-11.7c1.4-3.9,3.9-7.2,6.5-10.3C54.8,5.6,63.3,2.6,72.3,0.6C75.3,0,78.4,0,81.5,0
		c1.5,0,3,0.7,4.4,1.2c3.5,1.1,7.2,1.8,10.3,4c3.8,2.7,7.1,5.8,8.7,10.4c1,3,2.4,5.9,3.4,8.9c0.6,2,0.8,4.2,1.2,6.3
		c0.1,0.7,0.4,1.6,0.9,2c2.6,2.6,3.3,5.8,2.8,9.2c-0.5,3.1,0.1,5.9,1.5,8.5c1.6,2.8,2.2,5.8,1.4,9c-0.4,1.7-1.3,3.4-1.9,5
		c-0.4,1.2-1.2,2.3-1.1,3.5c0.1,4-1.5,7.5-3,11.1c-2.1,5.1-3.4,10.5-3.4,16.1c0,4-0.1,7.9,0.1,11.9c0,0.9,0.5,1.9,1.1,2.6
		c0.9,1.1,1.9,2.1,3.1,2.8c3.3,1.8,4.5,5,5.1,8.3c0.5,3.2,0.3,6.5,0.3,9.8c0,3.8-0.1,7.6,0,11.4c0.1,3.2,0.4,6.4,0.7,9.5
		c0.4,4.8,0.8,9.7,1.2,14.5c0,0.4,0,0.8,0,1.3c0,3.8,0,7.6,0,11.7c2.6-2.9,5.8-3,8.8-2.4c1.4-1.5,2.6-3.1,4-4.4
		c1.5-1.3,4.8-1.2,6.5-0.1c1.8,1.2,3.1,4.2,2.8,6.2c-0.1,0.6,0.1,1.6,0.6,2c1.6,1.5,3.2,2.9,3.3,5.4c0,0.4,0.5,0.7,0.8,1.1
		c0.3,0.3,0.6,0.4,0.9,0.7c0.5,0.5,1.3,1.1,1.2,1.6c-0.1,2.5,2.5,3.8,2.7,6.1c0.1,1.9,0.4,4.1-0.4,5.7c-1.6,3-3.7,5.7-6,8.2
		c-2.2,2.4-4.7,4.3-7.2,6.4c-0.8,0.6-1.9,1-2.9,1.2c-4.4,1-8.8,2.1-13.3,2.9c-2.5,0.4-5.1,0.1-7.6,0.2c-1.7,0-2.7,1.2-2.4,2.8
		c0.7,4.8,1.5,9.5,2.1,14.3c0.3,2.1,0.3,4.3,0.4,6.4c-0.8,0-1.7,0-2.5,0c-0.1-2.3-0.1-4.7-0.3-7c-0.2-2.3-0.6-4.6-0.9-6.9
		c-0.3-2.9-0.8-5.8-0.9-8.6c-0.1-2.5,0.2-5,0.2-7.4c0-0.6-0.2-1.3-0.4-2.1c-1.4,0.7-2.7,1.2-3.8,1.9c-1.1,0.6-2.3,1.1-3.1,0.1
		c-0.9-1.2,0.5-1.9,1.3-2.6c4-3.7,6.7-8.1,6.3-14.1c-3.7,1.4-5.3,5.2-8.9,6.7c0-0.8,0.1-1.6,0.5-2.1c1.3-1.3,2.9-2.3,4.2-3.6
		c1.5-1.6,3.5-3.2,4-5.1c0.9-3.2,0-6.6-1-9.8c-1.5-4.7-2.3-9.5-2.9-14.4c-0.4-3-0.7-6-1.2-9c-0.4-2.3-1.2-4.6-1.5-6.9
		c-0.6-3.7-0.9-7.5-1.3-11.2c-0.2-1.2-1.2-1.6-2.1-0.8c-0.7,0.6-1.5,1.1-2.6,1.8c0.4,5.9,0.9,12,1.3,18.2c0.3,4.5,0.6,8.9,1,13.4
		c0.3,3.5,1,7,1.1,10.5c0.1,5.9-1.4,11.6-2.5,17.3c-1,5.5-1.9,10.9-1.7,16.5c0.1,1.9-0.1,3.8-0.3,5.7c-0.4,3.4-1.7,6.2-5.2,7.6
		c-0.3,0.1-0.6,0.5-0.9,0.6c-1.1,0.4-2.3,1.3-3.4,1.1c-2-0.2-4-0.8-5.9-1.5c-2.8-1-5.1-2.7-7.4-4.6c-4-3.2-8.2-6-12.5-8.8
		c-6.4-4.1-12.4-8.9-18-14c-2-1.8-4-3.8-5.6-6c-2.6-3.6-5-7.4-7.5-11c-1.7-2.4-3.6-4.6-5.2-7c-2.8-4.3-5.6-8.6-8.2-13
		c-1.9-3.2-3.8-6.5-5-10c-1.4-4.2-2.2-8.6-2.9-12.9c-0.5-3.7-0.4-7.4,0.7-11.1c0.9-2.9,1.4-5.9,2.1-9.1c-2.4,2.5-5,4.8-5.7,8.1
		c-0.6,3-0.7,6.1-1,9.1c-0.7,6.2,0.7,12.1,3.3,17.6c2.4,5.1,4.4,10.3,5.6,15.8c0.4,2,1.1,3.9,1.4,5.9c0.6,4.6,1.1,9.2,1.6,13.8
		c0.3,2.6,0.4,5.2,0.6,7.8c0.3,3.2,0.6,6.5,0.9,9.7c0.3,2.6,0.8,5.2,0.9,7.8c0.3,4.5,0.3,9,0.6,13.6c0.3,3.4,0.9,6.9,1.3,10.3
		C17.8,243,16.7,243,15.7,243z M69.8,98.9c0.1,0.4,0.2,0.6,0.3,0.9c2,5.9,4,11.8,3.8,18.1c0,0.7,0.1,1.5,0.3,2.1
		c1,2.3,1.9,4.6,3.1,6.8c1.6,3,2.4,6.1,3,9.5c0.9,5.1,0.7,10.2,0.8,15.4c0,0.5-0.1,0.9-0.2,1.4c-0.6,2.6-1.6,5.2-1.9,7.8
		c-0.6,6.2-1.8,12.3-3.4,18.3c-1.2,4.7-1.5,9.3-0.1,13.9c0.7,2.2,1.3,4.5,1.8,6.7c0.2,0.7,0.4,1.8-0.9,1.9c-1.1,0.1-1.4-0.6-1.6-1.5
		c-0.3-1.4-0.7-2.8-1-4.2c-0.6-2.4-1.5-4.7-1.7-7.1c-0.1-2.4-0.8-4.3-2-6.2c-1.1-1.8-2.4-3.7-3.1-5.7c-2.7-7.9-7.4-14.7-11.3-21.9
		c-1.3-2.5-3.4-4.6-4.7-7.1c-2-3.9-4.8-7.1-7.8-10.2c-1.6-1.7-3.5-2.7-5.7-3.3c-0.6-0.2-1.2-0.4-1.8-0.5c-0.8-0.2-1.5-0.7-1-1.5
		c0.2-0.4,1.2-0.6,1.7-0.5c1.3,0.1,2.5,0.5,4.2,0.9c-2.7-5.3-6.4-8.9-11.1-11.4c-1.7-0.9-3.6-1.9-5.4-2.1c-3.5-0.5-6.8,0.6-9.9,2.1
		c-0.4,0.2-0.7,0.6-1,0.9c-1.9,2.3-2.3,5-2.7,7.8c-0.7,4.2-1.9,8.3-1.5,12.7c0.8,9,3.6,17.2,8.6,24.7c3.8,5.8,7.7,11.4,11.6,17.1
		c2.3,3.5,4.5,7,6.9,10.5c3.8,5.5,9.2,9.6,14.4,13.7c4.8,3.9,10,7.2,15,10.8c3.3,2.4,6.6,4.8,10,7.1c1.1,0.8,2.5,1.1,3.8,1.6
		c2.2,0.9,4.4,0.1,6.6,0.3c3.8,0.4,5.3-1.8,5.9-5c0.4-2.6,0.3-5.4,0.5-8.1c0.3-3.8,0.5-7.7,1-11.5c0.7-5,2-9.9,2.6-15
		c0.5-4.1,1-8.2,0-12.4c-0.7-2.8-1.1-5.6-1.3-8.4c-0.4-5.9-0.7-11.9-0.9-17.8c-0.2-5.3-0.3-10.5-0.4-15.8c0-1.2,0-2.4-0.1-3.6
		c-0.4-5-0.9-9.9-1.1-14.9c-0.2-6,0.5-11.8,3-17.4c1.3-3,2-6.4,3-9.7c-1.6-0.4-3.1-0.7-4.3-0.9c-1,1.4-1.7,2.5-2.6,3.5
		c-0.9,1.2-1.9,2.4-2.9,3.7c-1.6,2.2-3.2,4.3-4.8,6.5c-2.4,3.4-3.9,5.8-0.7,8.6c0.6,0.5,1.2,1.2,0.4,1.9c-0.3,0.2-1.3-0.1-1.8-0.5
		c-2.8-2.4-3.8-5.9-4.4-9.3c-0.4-2.1-0.4-4.4-0.5-6.6C73.8,99.1,73.1,99.5,69.8,98.9z M105.3,44.8c0.7,0.9,1.3,1.7,1.9,2.5
		c0.6,0.8,1.2,1.7,1.7,2.6c1.5,2.5,1.3,4.4-0.7,6.5c-0.7,0.7-1.3,1.6-2.1,2c-0.8,0.4-2.1,0.8-2.6,0.4c-1.3-1-2.3-0.5-3.5,0.1
		c-1.2,0.6-2.5,0.8-3.7-0.1c-1.2-0.9-0.9-2.1-0.8-3.3c0.1-1.3,0.9-2,2.1-1.9c-0.3,0.6-0.7,1.1-0.7,1.7c-0.1,0.8-0.2,1.8,0.3,2.3
		c0.4,0.4,1.5,0.3,2.2,0.1c0.9-0.3,1.7-0.8,2.4-1.4c0.9-0.7,1.5-0.4,2.1,0.3c0.3,0.3,0.4,0.8,0.7,1.2c0.7-0.6,1.4-1,1.9-1.6
		c1-1.1,2.4-2,1.9-3.8c-0.2-0.8-0.5-1.6-0.9-2.3c-1.7-2.9-3.6-5.8-5.2-8.8c-1.3-2.4-0.6-5.6,1.5-7.3c1.2-1,2.6-1.6,4.2-2.6
		c-0.5-2.3-1-4.8-1.7-7.3c-0.5-1.8-1-3.7-2-5.3c-1.7-3-3.4-6.2-7.8-6.1c-3.1,0.1-6.4-0.1-8.9,1.8c-3.5,2.6-6.8,5.5-9.9,8.5
		c-1.5,1.4-2.6,3.3-3.6,5.2c-2.3,4.1-1.7,8.9-2.8,13.3c-0.7,2.6-0.4,5.5-0.8,8.2c-1.1,6.5-1.7,13.1-1.4,19.7c0.2,4.2,1.9,7.5,6,9.2
		c2.6,1.1,5.4,1.8,7.9,3.1c4.8,2.5,9.9,4,15.2,5c2.5,0.5,6.8-0.7,8.1-3.4c0.7-1.6,1.3-3.3,2-5c0.8-2.1,1.8-4.1,2.4-6.2
		c0.4-1.3,0-2.7,0.4-4c0.8-2.9,2.1-5.6,2.9-8.5c0.5-1.9,0.7-4.1,0.2-6c-0.8-3-2.4-5.9-3.6-8.6C108.9,45.1,107.3,45,105.3,44.8z
		 M15.2,118.3c1.5-0.5,2.5-1,3.7-1.2c2.6-0.5,5.2-0.9,7.8,0.2c1.1,0.5,2.2,1,3.2,1.5c3.6,1.6,6.7,4,9.1,7.1
		c4.1,5.3,8,10.7,11.8,16.2c1.5,2.1,2.5,4.5,3.8,6.7c3.3,5.5,6.7,10.9,9.9,16.5c1.7,3.1,2.9,6.6,4.4,9.9c0.9,2,2.1,4,3.1,6
		c0.2,0,0.4,0,0.6,0c0.9-3.7,1.8-7.4,2.5-11.1c0.6-2.8,0.9-5.6,1.2-8.4c0.1-0.4-0.4-1-0.8-1.4c-1.5-1.5-3.1-2.9-4.4-4.6
		c-2.6-3.4-5.1-7-7.6-10.6c-2.1-2.9-4.2-5.9-6.3-8.8c-0.7-0.9-1.4-1.8-2.1-2.7c-1.7-2.3-3.3-4.5-4.9-6.8c-1.5-2.2-2.6-4.8-4.4-6.7
		c-3.4-3.7-7.1-7.2-10.8-10.5c-1.9-1.8-3.1-1.5-5.4,0c-2.9,1.7-5.7,3.6-8.8,4.8C18.6,115,17,116.3,15.2,118.3z M91.5,87.8
		c-0.8-0.3-1.3-0.4-1.9-0.7c-3.1-1.3-6.1-2.7-9.2-4c-4-1.6-8.4-2.5-11.5-5.9c-0.6-0.7-1.5-0.2-1.7,0.9c-0.8,4.4-1.7,8.9-2.3,13.3
		c-0.6,4-1,8-1.4,12c-0.1,0.7-0.1,1.3-0.2,2c-0.9,4.1-1.7,8.2-1.4,12.4c0.1,1.1,0.1,2.2-0.1,3.3c-1.3,7,1.8,9.7,6.3,12.2
		c2.4,1.4,5.3,2,7.9,2.9c1.2,0.4,2.1-0.4,1.8-1.6c-0.3-1.3-0.7-2.6-1.3-3.8c-0.7-1.7-1.6-3.4-2.4-5.1c-1.7-3.8-3.3-7.7-2.9-12.1
		c0.1-1.2-0.2-2.5-0.5-3.7c-0.9-3.2-1.7-6.5-2.8-9.7c-0.8-2.5-1.3-4.9-0.8-7.6c0.2-1.2,0.7-2,1.7-2.6c3.6-2.2,9,0.2,9.6,4.5
		c0.3,1.9,0.2,3.8,0.3,5.8c0.1,1.1,0.3,2.1,0.6,3.4C83.6,98.4,87.5,93.2,91.5,87.8z M146.7,201.4c-1,0-1.8,0.2-2.5,0
		c-1.5-0.5-2.7-0.1-4,0.6c-1.7,1-3.4,2.3-5.3,2.9c-1.6,0.5-3.4,0.5-5.1,0.2c-0.8-0.2-1.5-0.5-2.4-0.1c-1.6,0.6-3.1,0.2-4.3-1
		c-1-1-0.6-2.2-0.1-3.3c0.2-0.4,0.2-1,0-1.4c-0.8-1.7-0.7-3.3,0.2-4.8c1-1.7,0.3-3.1-0.2-4.8c-0.7,0.5-1.2,0.9-1.8,1.3
		c-0.6,0.5-1.4,1.1-2,0.3c-0.6-0.8,0.1-1.4,0.8-1.9c0.9-0.7,1.9-1.4,2.3-2.4c0.6-1.5,1.3-2.5,2.9-2.9c0.3-0.1,0.5-0.3,0.8-0.6
		c-3-1.8-3-1.8-2.9-5c-0.8,0.4-1.7,0.6-2.2,1.1c-1.9,2-4.2,3.8-4.1,7c0,0.8-0.2,1.5-0.4,2.3c-1,3.7-0.7,7.3,1.1,10.7
		c0.8,1.5,1.9,2.9,2.7,4.5c0.3,0.5,0,1.4,0,2.1c-0.6-0.2-1.4-0.2-1.7-0.5c-0.9-1-1.5-2.2-2.2-3.3c-0.6-0.9-1.1-1.9-1.8-3.1
		c-0.4,0.8-0.8,1.4-1,2c-0.9,2.1-1.8,4.2-2.7,6.4c-0.2,0.5-0.5,1-0.5,1.4c0,2.3-0.1,4.6,0,6.9c0,0.4,0.6,1,1,1.2
		c0.7,0.2,1.4,0.2,2.2,0.2c4.6,0.1,9.2-0.7,13.7-1.6c3.5-0.8,7-1.5,9.8-4c1.1-1,2.1-2.2,3.3-3.1
		C142.9,206.6,144.8,204.2,146.7,201.4z M135.7,202.5c0.7-0.4,1.3-0.7,1.8-1c2.6-1.8,5.4-2.9,8.6-1.9c0.4,0.1,1.2-0.1,1.4-0.5
		c0.7-1.1-0.1-4.2-1-5.2c-0.6-0.7-1.2-1.5-1.3-2.3c0-1.5-1-2.3-1.9-3.2c-0.6-0.6-1.5-1.5-1.5-2.2c0.1-1.9-1.2-2.8-2.3-3.8
		c-0.5-0.5-1.2-1-2-1.6c-3.6,3.9-7.3,7.8-10.7,11.5c1,1.2,1.7,2.1,2.4,2.9c3.2-2.7,6.5-5.3,9.7-8c0.9-0.7,1.5-0.9,2.1,0.3
		c-4.1,3.7-8.3,7.5-12.3,11.1c0.4,1,0.7,1.7,1,2.5c0.7-0.5,1.3-1,2-1.5c2.7-2.2,5.4-4.5,8.2-6.6c0.8-0.6,2-0.9,3-1.1
		c0.3-0.1,0.8,0.5,1.2,0.7c-0.3,0.3-0.6,0.7-1,0.9c-0.6,0.3-1.4,0.4-2,0.8c-2.5,1.9-4.9,3.8-7.2,5.6
		C134.6,200.7,135.1,201.5,135.7,202.5z M65.7,135c0.3,0.9,0.6,2.2,1.1,3.4c2.1,5.3,5,10,8.8,14.3c0.6,0.7,1.5,1.2,2.2,1.7
		c0.4-0.9,1-1.9,1-2.8c0.1-3.4,0-6.9,0-10.3c0-1.1-0.6-1.7-1.7-2.1C73.4,137.9,69.5,136.4,65.7,135z M107.3,112.4
		c1.4,7.2,4.2,13.8,6.6,20.6c0.3-1.6,0.5-3.2,0.6-4.8C114.8,121.3,114.2,116.5,107.3,112.4z M132.9,182.6c1.5-1.2,3.1-2.5,4.6-3.7
		c0.2-0.2,0.4-0.4,0.5-0.7c0.4-1.2-0.5-3.4-1.6-4.1c-1.1-0.7-3.1-0.8-4.1,0.2c-0.9,0.8-2.2,2.1-2,2.9c0.4,1.7,0.6,3.1-0.4,4.3
		C131,181.8,132,182.2,132.9,182.6z M95.2,138.3c0.7-0.5,0.9-0.6,1.1-0.7c1.5-1.5,2.9-2.9,2.4-5.4c-0.6-2.9-0.8-5.9-1.3-8.8
		c-0.1-0.6-0.6-1.1-1-1.7c-0.4,0.6-1.1,1.1-1.2,1.7c-0.1,3.3,0,6.6,0,9.9C95.2,134.8,95.2,136.4,95.2,138.3z M75.4,92.5
		c-0.8-0.4-1.4-0.9-2.2-1.1c-1.2-0.2-2.5-0.6-3.5,0.6c-0.8,0.9-0.9,3.2-0.2,4.2c0.3,0.4,0.8,0.8,1.3,0.9c1.8,0.4,3.6-0.8,4-2.5
		C75,94,75.1,93.4,75.4,92.5z M111.3,39.5c0.1-0.1,0.2-0.2,0.2-0.3c-0.3-1-0.7-2-1-3c-0.3-1-1-1.1-1.9-0.9c-1.4,0.3-2.8,0.5-4.2,0.9
		c-0.4,0.1-1,0.5-1.1,0.9c-0.1,1-0.1,2.1-0.1,3.4C106,38.8,108.4,37.2,111.3,39.5z M124.4,197.3c0.3,0.3,1,1.3,1.1,1.2
		c0.9-0.5,2.3-1.1,2.3-1.8c0-0.8-1.1-2.4-1.7-2.4C124.9,194.3,124.8,195.8,124.4,197.3z M127.8,200.1c-1.3,0.1-2.7-0.1-3.2,1.6
		c-0.1,0.4,0.1,1.2,0.2,1.2c0.9,0.1,1.9,0.3,2.7,0C129,202.3,128.1,201.1,127.8,200.1z M130.3,182.9c-0.1,0.1-0.2,0.3-0.3,0.4
		c-1.3-0.3-2.2,0.2-2.2,1.4c-0.1,1.1,1,1.6,1.8,1.4c0.8-0.2,1.5-1.1,2.2-1.7C131.2,184,130.8,183.4,130.3,182.9z M129.1,179.1
		c-1-0.1-1.7-0.2-2.4-0.1c-0.6,0.1-1.3,0.4-1.8,0.8c-0.1,0.1,0.2,1.2,0.5,1.3c0.7,0.3,1.6,0.5,2.2,0.1
		C128.3,180.8,128.6,179.9,129.1,179.1z M130.5,203.4c1.2,0.6,2.4,0.6,3.3-0.3c0.2-0.2-0.3-1.3-0.8-1.6
		C132.4,201,131,202.1,130.5,203.4z M108.8,43.8c0.7-0.2,1.5-0.4,2.4-0.7c-0.7-1-1.3-1.8-2-2.7C109.1,41.7,109,42.6,108.8,43.8z
		 M106.3,40.8c-0.8,0.5-1.5,1-2.6,1.7c1.2,0.5,2,0.8,2.8,1.1C106.5,42.5,106.4,41.7,106.3,40.8z"/>
	<path class="st0" d="M90.3,69.1c1.1-0.6,1.7-1,2.4-1.3c2.8-1.1,5.6-2.3,8.5-3.3c0.5-0.2,1.2-0.2,1.7,0c1.2,0.4,2.1,0.5,3.3-0.2
		c1-0.7,3.3,1.2,3.3,2.7c0.1,1.5,0.1,2.9,0,4.4c0,0.5-0.4,1.2-0.9,1.5c-2.9,2.2-6.5,2.2-9.7,0.4c-2.2-1.2-4.7-2.1-7-3.1
		C91.5,69.8,91.1,69.5,90.3,69.1z M95.2,69.1c0,0.2,0,0.4,0,0.6c0.9,0.4,1.8,0.7,2.7,1.1c0.9,0.5,1.7,1.2,2.7,1.5
		c1.3,0.4,2.6,0.8,3.9,0.8c2.6-0.1,4-1.7,3.8-3.9C103.8,69.1,99.5,69.1,95.2,69.1z M96.8,67.6c4,0,7.7,0,11.4,0
		c0.1-0.1,0.1-0.3,0.2-0.4c-0.5-0.6-1.1-1.1-1.7-1.8c-1.3,1.2-2.5,1.2-3.9,0.4c-0.3-0.2-0.8-0.2-1.1-0.1
		C100.2,66.2,98.6,66.9,96.8,67.6z"/>
	<path class="st0" d="M88.8,45.2c-2.8-0.5-5.6-1-8.3-1.5c-0.2,0-0.6-0.4-0.6-0.6c0.1-0.3,0.3-0.8,0.6-0.9c1.7-1,3.4-2.1,5.2-2.7
		c1.6-0.5,3.4-0.7,5.2-0.6c0.7,0,1.5,0.9,2.1,1.5c0.4,0.5,0.6,1.2,0.9,1.8c1.2,1.9,1.1,2-1.2,2.2C91.3,44.5,90,44.9,88.8,45.2z
		 M86.7,40.7c-1,0.6-1.9,1.1-2.9,1.7c0,0.1,0,0.3,0.1,0.4c0.9,0.2,1.7,0.4,2.8,0.7C86.7,42.5,86.7,41.7,86.7,40.7z M90,43.6
		c0.8-0.4,1.4-0.7,2.7-1.3c-0.9-1-1.6-1.6-2.2-2.2c-0.1,0.1-0.2,0.3-0.3,0.4C90.2,41.4,90.1,42.3,90,43.6z"/>
	<path class="st0" d="M92.8,32.2c1,0.3,2.1,0.5,3,1c1.5,0.8,1.5,2.3-0.1,2.9c-1,0.4-2.2,0.3-3.3,0.2c-0.8-0.1-1.6-0.5-2.3-0.7
		c-1.6-0.4-3.2-0.5-4.8,0.3c-1.7,0.9-3.5,1.5-5.2,2.2c-0.3,0.1-0.7-0.1-1-0.2c0.1-0.3,0.2-0.9,0.4-1c1.3-0.6,2.8-1,4.1-1.8
		c2.2-1.3,4.5-2.4,7.1-2.6c0.7-0.1,1.4-0.2,2.2-0.3C92.7,32.3,92.7,32.3,92.8,32.2z"/>
</g>
</svg>
