<?xml version="1.0" encoding="utf-8"?>
<!-- Generator: Adobe Illustrator 18.1.1, SVG Export Plug-In . SVG Version: 6.00 Build 0)  -->
<!DOCTYPE svg PUBLIC "-//W3C//DTD SVG 1.1//EN" "http://www.w3.org/Graphics/SVG/1.1/DTD/svg11.dtd">
<svg version="1.1" id="Layer_1" xmlns="http://www.w3.org/2000/svg" xmlns:xlink="http://www.w3.org/1999/xlink" x="0px" y="0px"
	 viewBox="0 0 150 177.7" style="enable-background:new 0 0 150 177.7;" xml:space="preserve">
<style type="text/css">
	.st0{fill:#E91E63;}
</style>
<g id="swimear-recom">
	<path class="st0" d="M15.3,177.7c-0.2-0.9-0.3-1.8-0.6-2.6c-1.9-4.3-3.8-8.7-6-12.9c-1.5-2.9-2.5-5.9-3.6-8.9
		c-0.6-1.8-1.5-3.5-2.2-5.2c-0.8-2-1.8-4-2.4-6.1c-1.1-3.8-0.6-7.3,2.3-10.2c1.3-1.3,2.4-2.8,3.6-4.2c1.5-1.8,3.3-3.2,5.3-4.4
		c0.4-0.2,0.8-0.4,1-0.6c0.2-0.2,0.3-0.7,0.2-0.9c-1.3-1.5-1.3-3.4-1.7-5.2c-0.2-1-0.4-2.1-0.6-3.1c-0.2-1.9-0.6-3.8-0.6-5.8
		c0-2.4-0.4-4.6-1.9-6.7c-1.1-1.5-1.2-3.3-1.2-5c0-1.7-0.4-3.4-1-5c-0.9-2.5-1.7-5-2.5-7.6c-1.1-3.5-0.8-7.1-0.8-10.8
		c0-1.3,0.1-2.5,0.1-3.8c0-5.9,0.8-11.6,2-17.3c0.5-2.3,0.9-4.6,1.3-6.8c0.3-1.6,0.6-3.1,0.9-4.7c0.5-3.3,2-6.2,3.8-8.9
		c0.7-1.1,1.4-2.3,2-3.5c1.2-2.3,2.7-4.4,4.4-6.3c2.2-2.5,4.2-5.1,6.5-7.4c2.3-2.2,4.8-4.2,7.2-6.1c0.9-0.7,2.1-1,3.1-1.5
		c1.3-0.7,2.6-1.3,3.9-2c3-1.8,6.2-3.2,9.8-3.4c2.5-0.1,5.1-0.4,7.6-0.6c2.1-0.2,4.1-0.3,6.2,0.3c1.6,0.5,3.4,0.4,5.1,0.8
		c3,0.6,6.1,0.3,9.1,0.5c2.5,0.2,4.9,0.9,7.1,2.1c0.3,0.2,0.6,0.3,0.9,0.4c1.2,0.4,2.2,1.1,2.9,2.3c0.4,0.8,1.1,1.4,2.2,1.6
		c0.3,0,0.6,0.4,0.8,0.6c0.6,0.8,1.3,1.4,2.3,1.8c1.6,0.6,2.7,1.8,3.6,3.2c0.7,1.2,1.9,2.2,2.8,3.3c2.2,2.6,4.5,5.2,6.7,7.9
		c1.1,1.3,1.9,2.8,2.8,4.3c0.3,0.4,0.4,1,0.5,1.6c0.1,2.3,1.1,4.4,1.8,6.6c0.9,2.8,1.7,5.6,2.6,8.4c0.5,1.6,1.1,3.2,1.6,4.7
		c0,0.1-0.1,0.3-0.1,0.5c0,0.1-0.1,0.2-0.1,0.2c0.7,1,0.2,2.4,1.4,3.2c0.1,0.1,0.2,0.3,0.2,0.5c0.3,1.5,0.5,3,0.8,4.4
		c0.5,2.5,0.5,4.9,0,7.4c-0.6,2.8-0.3,5.6,0.4,8.3c0.8,2.9,1,5.8,0.9,8.9c1.1,0.2,2.2,0.5,3.4,0.5c2.1,0.1,4.2,0,6.3-0.1
		c2.1-0.1,3.9,0.8,5.7,1.8c1.5,0.9,3.1,1.8,4.5,2.8c1.2,0.9,2,2.1,2.6,3.5c0.1,0.2,0.1,0.4,0.2,0.5c1.3,2,1.7,4.2,2.4,6.4
		c0.4,1.2,0.4,2.6,0.5,4c0.3,2.9,1.4,5.6,2.4,8.3c0.8,2,1.4,4.1,2,6.1c0.2,0.5-0.2,0.8-0.6,1c-0.8,0.3-1.5,0.6-2.3,0.9
		c-0.2,0.1-0.5,0.3-0.5,0.5c-0.1,2.8-0.3,5.6-0.2,8.4c0,1.2,0.7,2.4,1.1,3.6c0.6,1.9,1,3.9,1,5.9c0,0.8,0.1,1.6,0.2,2.4
		c0.1,1.2,0.2,2.5,0.4,3.6c0.4,1.5,0.4,3,0.4,4.6c0,4,0,8,0.2,12.1c0.1,2.3,0.7,4.6,1,7c0.5,3.4,0.9,6.8,1.3,10.2
		c-0.5,0-1.1,0-1.6,0c-0.3-2.6-0.7-5.2-1-7.8c-0.3-2.6-0.5-5.3-0.9-7.9c-0.5-3.8-0.5-7.6-0.4-11.5c0.1-3.3,0-6.7-0.6-10
		c-0.1-0.7-0.2-1.4-0.2-2.1c-0.1-2.1-0.2-4.2-1-6.1c-1-2.5-1.3-5.1-1.1-7.8c0.1-1.4,0-2.8,0-4.3c-0.8,0.3-1.4,0.7-2,0.9
		c-1.5,0.6-3,1.2-4.5,1.8c-1.3,0.5-2.6,1-3.7,1.7c-1.3,0.8-2.5,1.8-3.8,2.7c-1,0.7-2,1.5-3,2.3c-0.7,0.5-1.4,1.1-2.4,1.8
		c0.1,0.8-0.1,2,0.3,3c0.8,1.6,0.9,3.2,1.2,4.8c0.2,1.3,0.2,2.6,0.4,3.9c0.3,2,0.8,3.9,1.2,5.9c0.4,1.9,0.8,3.8,0.7,5.7
		c0,0.5,0.1,0.9,0.2,1.4c0.6,1.8,0.6,3.7,1.5,5.3c0.1,0.1,0.1,0.3,0.1,0.5c0.4,1.7,0.8,3.4,1,5.1c0.3,2.2,0.4,4.4,0.5,6.6
		c0.1,1.2,0,2.4,0,3.7c0.1,0,0.2-0.1,0.3-0.1c0.3,0.2,0.7,0.4,1,0.6c-0.9,0-1.8,0-2.6,0c-0.1-3.8-0.1-7.6-0.9-11.4
		c-0.4-1.8-0.5-3.6-1.1-5.3c-0.8-2-1.6-4-1.4-6.2c0-0.2,0-0.3,0-0.5c-0.6-3.6-1.2-7.2-1.9-10.7c-0.1-0.4-0.1-0.8-0.2-1.2
		c-0.2-2-0.4-4.1-0.6-6.1c-0.1,0-0.2,0-0.3,0c-0.5,2-1.3,3.9-1.2,6c0,3.8,0.1,7.7,0.1,11.5c0,1.4-0.2,2.9-0.4,4.3
		c-0.6,3.5-1.3,6.9-1.3,10.5c0,2.7,0,5.5,0,8.2c0,0.3,0,0.6-0.1,0.9c-0.4,0-0.8,0-1.1,0c0-2.1,0-4.2,0-6.3c-0.1-4,0.2-7.9,1-11.8
		c0.9-4.1,0.8-8.2,0.6-12.3c-0.2-3.3-0.3-6.5,0.8-9.7c0.6-1.9,1.1-3.9,0.3-5.9c-0.1-0.3,0.2-0.8,0.4-1.2c0.1-0.2,0.3-0.4,0.2-0.6
		c-0.1-1.5-0.2-3-0.5-4.5c-0.4-2.9-0.9-5.8-1.5-8.7c-0.4-2-1-3.9-1.3-5.9c-0.2-1.3,0-2.6,0.1-4c0-0.5,0-1.3,0.9-1
		c0.7,0.2,0.3,0.9,0.3,1.4c0,1.1-0.3,2.3-0.1,3.3c0.5,2.8,1.3,5.6,1.9,8.2c0.3-0.7,0.7-1.6,1.2-2.4c1.3-2,2.6-4.1,4-6.1
		c0.2-0.3,0.5-0.5,0.8-0.7c0.1,0,0.3,0.1,0.5,0.2c-0.1,0.1-0.2,0.3-0.3,0.4c-0.3,0.3-0.6,0.5-0.8,0.8c-0.8,1.3-1.5,2.6-2.5,3.8
		c-1.6,2-2.6,4.2-2.3,6.8c0.2,1.6,0.4,3.2,0.6,4.9c0.1,1.1,0.2,2.2,0.3,3.4c0.5-0.3,0.9-0.4,1.2-0.6c1.8-1.3,3.6-2.7,5.4-4.1
		c2-1.5,4-2.8,6.5-3.3c0.6-0.1,1.3-0.3,1.9-0.6c1.8-0.8,3.5-1.6,5.3-2.4c0.8-0.3,1.6-0.6,2.4-0.9c0.2-0.1,0.4-0.5,0.4-0.6
		c-0.5-1.7-1.2-3.5-1.7-5.2c-0.8-2.5-1.8-5-2.4-7.6c-0.5-2.2-0.2-4.6-1.3-6.7c-0.1-0.2-0.1-0.4-0.2-0.6c-0.7-1.7-1.4-3.5-2.2-5.2
		c-0.6-1.3-1.9-2-3.1-2.9c-3.1-2.2-6.3-3.9-10.3-3.5c-1.6,0.2-3.3,0-5,0c-0.5,0-1-0.1-1.4-0.2c-1.5-0.4-1.7-0.4-2.3,1.1
		c-1.3,2.7-1.8,5.6-2.1,8.5c-0.2,2.1-0.6,4.2-1.2,6.3c-0.7,2.2-1.4,4.3-2.1,6.5c-0.4,1.4-0.5,3.1-1.3,4.3c-1.2,2.1-1.8,4.4-2.7,6.6
		c-1.5,3.4-3,6.8-6.1,9.1c-1.1,0.8-2,1.9-3.1,2.6c-0.9,0.6-2.1,0.9-3.1,1.4c-3.7,1.8-7.6,2.1-11.6,2.4c-1.1,0.1-2.3,0.4-3.4,0.6
		c-1.5,0.2-2.9,0.9-4.5,0.8c-0.5-0.1-1.1,0.2-1.6,0.3c-1,0.3-2.1,0.6-3.3,1c-0.7,1-1.2,2.3-1.1,3.9c0,0.5-0.2,1.1-0.4,1.5
		c-0.9,1.5-1.8,3.1-3,4.4c-1.4,1.6-2.1,3.6-2.9,5.5c-0.6,1.4-0.9,2.9-1.2,4.4c-0.7,3.4-1.4,6.8-2,10.2c-0.4,1.8-0.8,3.6-1.1,5.5
		c-0.3,1.9-0.5,3.9-0.7,5.9c-0.4,0-0.9,0-1.3,0c0.4-3.6,0.7-7.1,1.6-10.6c1-4.2,1.8-8.4,2.6-12.7c0.7-3.8,2.3-7.2,4.6-10.2
		c0.2-0.2,0.3-0.4,0.5-0.6c1.3-1.1,2.2-2.5,1.9-4.3c-0.1-0.4,0.2-0.9,0.4-1.3c0.5-1.1,1.2-2.1,1.5-3.2c0.4-1.6,0.5-3.3,0.9-5
		c0.7-2.9,1.3-5.9,2.2-8.7c0.5-1.5,1.2-3,2-4.4c0.8-1.3,2.1-2.2,2.9-3.5c1.2-1.8,2.8-2.5,4.8-2.5c1.4,0,1.9-0.5,2-1.9
		c0-0.4,0-0.7,0-1.1c-0.1-1.6-1.5-2.9-3-2.8c-1,0-1.9,0.4-2.9,0.4c-1.6,0-2.6,1-3.8,1.7c-0.7,0.5-1.3,1.1-2,1.7
		c-2.2,1.8-3.9,3.9-5.2,6.4c-0.1,0.2-0.3,0.3-0.4,0.5c-0.1,0-0.1-0.1-0.2-0.1c0.1-0.3,0.1-0.6,0.2-0.9c0.5-0.9,1-1.7,1.6-2.6
		c0.5-0.7,0.5-0.9-0.4-1.4c-0.5,0.8-1,1.6-1.5,2.5c-0.1,0-0.2-0.1-0.3-0.1c0-0.3,0-0.6,0.1-0.8c0.3-0.6,0.7-1.2,1-1.7
		c1-1.6,1.9-3.2,3.3-4.6c0.6-0.6,1-1.6,1.4-2.4c0.3-0.5,0.5-1.1,0.8-1.7c0.1-0.2,0.4-0.3,0.6-0.4c0.1,0.1,0.1,0.1,0.2,0.2
		c-0.2,0.4-0.4,0.8-0.6,1.2c0.8,0.1,1.6,0.3,2.3,0.4c0,0.1,0,0.2,0,0.3c-0.3,0.2-0.6,0.3-1,0.5c0.2,0.4,0.4,0.9,0.7,1.3
		c0.1,0.1,0.4,0.2,0.5,0.1c0.9-0.2,1.8-0.5,2.7-0.7c0.5-0.1,0.9-0.3,0.8-0.9c-0.1-1.3-0.2-2.7-0.5-4c-0.2-0.6-0.7-1.3-1.2-1.7
		c-2.4-1.5-5-2.2-7.8-2.5c-0.4,0-1,0.1-1.3,0.4c-1.7,1.8-3.5,3.5-4.4,5.9c-0.6,1.7-1.6,3.2-2.9,4.4c-0.4,0.4-0.8,0.8-1,1.3
		c-0.3,0.6-0.9,1.2-0.3,2.1c-0.4,0-0.7,0.1-0.9,0c-0.1-0.1-0.1-0.5,0-0.7c0.2-0.6,0.3-1.2,0.7-1.6c0.9-1.3,1.2-2.8,1.4-4.3
		c0.1-0.6,0.2-1.2,0.5-1.7c0.7-1,1.5-1.9,2.3-2.9c0.2-0.3,0.4-0.6,0.5-1c0.1-0.6,0.4-0.7,0.9-0.7c1,0.1,1.7-0.2,2.4-0.9
		c0.5-0.5,1.3-0.8,1.9-0.9c1-0.1,1.3-0.4,1.4-1.4c0-1-0.4-1.8-1.3-2.2c-1-0.5-1.9-1.1-3-1.3C66.2,89.9,65,89.7,64,90
		c-1.3,0.3-2.5,1-3.7,1.5c-0.2,0.1-0.5,0.2-0.7,0.4c-0.5,0.4-1,1-1.6,1.3c-0.9,0.6-1.4,1.4-1.6,2.4c-0.6,2.6-1.1,5.2-1.9,7.8
		c-0.7,2.3-1.1,4.8-1.4,7.2c-0.4,3.4-0.6,6.9-0.9,10.3c0,0.6,0.1,1.2,0.1,1.8c0,0.3-0.2,0.6-0.4,0.9c-0.3-0.7-0.4-1.4-0.4-2
		c0-3.6-0.2-7.2,0.4-10.7c0.6-3.3,1-6.6,2.3-9.8c0.2-0.6,0.2-1.2-0.3-1.8c-0.4-0.5-0.6-1.1-0.8-1.7c-0.6-1.7-1.1-3.5-1.6-5.2
		c-0.3-0.9-0.8-1.7-1-2.6c-0.4-1.8-0.5-3.6-0.8-5.4c-0.4-2.3-0.9-4.6-1.4-6.8c-0.2-0.9-1-1.4-1.8-0.9c-0.5,0.3-1.1,0.8-1.3,1.3
		c-0.5,1.5-1.1,3.1-1.3,4.7c-0.4,4.8-0.4,9.6,1,14.3c0.3,0.8,0.5,1.7,0.5,2.5c0.2,2.7,0.2,5.4,0.3,8.1c0.1,2.3,0.3,4.6,0.9,6.9
		c0.2,0.7,0.2,1.4,0.2,2.2c0.1,1,0,1.9,0.2,2.9c0.1,0.7,0.4,1.4,0.4,2.2c0.1,2.8,0.3,5.6,0.2,8.4c-0.2,4.3-0.7,8.6-1.5,12.8
		c-0.1,0.7,0,1.5-0.2,2.2c-0.5,1.7-1,3.4-1.6,5c-0.1,0.3-0.2,0.6-0.2,1c0,1.1,0,2.2,0,3.3c0,0.5-0.1,1-0.1,1.6
		c-0.1,3.6-0.2,7.1-0.4,10.7c-0.1,2-0.5,4-1,6c-0.4,1.8-1.1,3.6-1.6,5.3c-0.6,0-1.2,0-1.8,0c0.1-0.4,0-0.9,0.2-1.3
		c1.1-1.7,1.5-3.6,1.8-5.5c0.5-2.7,1.2-5.4,1.1-8.2c-0.1-1.4,0-2.8,0-4.3c0-0.9,0.3-2-0.7-2.6c-0.1,0-0.1-0.2-0.1-0.2
		c-1-1.9-2.1-3.9-3.1-5.8c-0.7-1.2-1.4-2.4-1.9-3.7c-0.1-0.3,0.1-0.9,0.3-1.1c0.4-0.3,0.7,0,1,0.4c1.1,1.8,2.2,3.5,3.3,5.3
		c0.6,1,1.2,2,1.8,3c0.2-0.4,0.2-0.7,0.2-1c-0.1-1.7,0.2-3.3,0.7-4.9c0.8-2.5,1.4-5,1.5-7.7c0-1.1,0.1-2.1,0.3-3.2
		c0.2-1.8,0.6-3.5,0.7-5.3c0.1-3.3-0.1-6.7-0.2-10c0-0.5,0-1.1,0-1.6c-0.1,0-0.2-0.1-0.3-0.1c-0.4,0.5-1,0.9-1.2,1.5
		c-0.5,1.4-1.8,1.9-2.9,2.4c-2.5,1.2-5.1,1.9-7.1,4c-0.1,0.1-0.3,0.2-0.4,0.3c-1.3,0.8-2.3,1.9-2.1,3.6c0,0.4,0,0.8,0,1.1
		c0.2,2.3-0.9,4.2-1.9,6.2c-0.4,0.7-1,1-1.7,1.1c-0.9,0.1-1.7,0.2-2.6,0.3c-0.3,1.2-0.5,2.3-0.8,3.5c-1.3-0.9-2.4-1.8-3.2-3
		c-2.2-3.2-4.1-6.4-5.7-9.9c-0.8-1.7-2.1-3.1-2.6-5c-0.2-0.8-0.4-1.5-0.6-2.3c-2,1-3.8,2.3-5.3,4c-1.4,1.6-2.7,3.3-4.1,4.9
		c-1.8,1.9-2.5,4-2.4,6.6c0.1,2.1,0.9,4,1.6,5.9c1,2.6,2.3,5,3.3,7.6c1.2,3.1,2.2,6.3,3.8,9.3c1.7,3.2,3,6.6,4.5,9.8
		c0.9,1.9,1.8,3.7,2.1,5.8C16.2,177.7,15.8,177.7,15.3,177.7z M98.4,46c-0.2-0.4-0.4-0.5-0.4-0.7c-0.1-0.4-0.3-0.8-0.3-1.1
		c0-0.9,0.1-1.8,0.1-2.7c0-0.2-0.1-0.4-0.2-0.6c-0.2,0.1-0.4,0.2-0.5,0.3c-0.9,1-1.8,1.9-2.6,3c-0.9,1.2-2.2,2.3-2.3,4
		c0,0.2-0.4,0.4-0.5,0.4c-0.2,0-0.5-0.2-0.6-0.5c-0.4-1.1-0.7-2.1,0.4-3c0.4-0.3,0.7-0.8,1-1.3c0.9-1.2,1.8-2.4,2.9-3.5
		c1.1-1.2,1.3-1.7,0.5-3.1c-1.1-1.8-2.3-3.5-3.4-5.3c-1.5-2.4-3.3-4.4-5.3-6.3c-0.9-0.9-2-1.5-3.3-1.4c-0.9,0.1-1.8,0-2.6,0
		c-3.1,0.1-6.2,0.6-9,2.1c-1.5,0.8-2.6,2-2.4,3.9c0.1,0.6,0.1,1.2,0.2,1.9c0.1,0.9-0.1,1.2-1,1.2c-1.5,0-3.1,0-4.6,0
		c-3-0.1-5.4,1.2-7.5,3.3c-0.5,0.5-1,1.1-1.5,1.5c-1.5,1.3-2.2,3-2.4,4.9c-0.2,2.1-0.9,4-1.8,6c-0.8,1.8-1.5,3.7-2.1,5.6
		c-0.2,0.7-0.3,1.4-0.4,2.2c-0.3,1.8-0.7,3.5-0.8,5.3c0,1.6,0.4,3.1,0.6,4.7c0.2,1.8,0.3,3.6,1.1,5.3c0.2,0.4,0.2,0.9,0.2,1.4
		c0,1.4,0,2.8,0,4.3c0,2.9,0.5,5.7,2.1,8.2c0.7,1.1,1.5,2.1,2.2,3.1c0.6,0.9,1.3,1.7,1.9,2.6c0.4,0.5,0.7,0.7,1.3,0.4
		c0.6-0.3,1.2-0.7,1.8-1c1.5-0.7,3.1-1.4,4.7-2.1c0.3-0.1,0.7-0.2,1-0.2c1,0.1,2.1,0.2,3.1,0.5c1.5,0.5,2.9,1.3,3.9,2.6
		c0.6,0.8,0.5,1.7,0.5,2.6c0,0.2,0.2,0.4,0.3,0.5c0.4,0.2,0.9,0.4,1.3,0.5c1.9,0.2,3.3,1.4,4.9,2.3c0.3,0.2,0.7,0.5,0.8,0.9
		c0.4,1.1,1.2,1.3,2.2,1.3c0.2,0,0.4,0.1,0.6,0.1c3.1,0.3,6.1,0.6,9.2,0.9c2.3,0.2,4.5-0.4,6.7-1c2-0.5,3.8-1.4,5.5-2.6
		c0.4-0.3,0.8-0.7,1.1-1.1c1.1-1.7,2.2-3.4,3-5.2c0.7-1.7,0.7-3.2,0.2-4.8c-0.3-1.2-0.9-2.3-1-3.5c-0.4-3.6-0.7-7.2-1-10.8
		c-0.3-2.7-0.5-5.5-1.1-8.2c-0.6-3.2-1.6-6.2-2.4-9.4c-0.2-0.6-0.2-1.3-0.5-1.9c-0.3-0.7-0.9-1.2-1.2-1.9c-0.6-1-1.1-2-1.7-3
		c-0.2-0.3-0.6-0.7-0.9-0.6c-1.1,0.2-1.6,1.2-1.5,2.3c0,0.1,0,0.2,0.1,0.3c0.1,1.3,0,2.5-1.1,3.4c-0.7,0.5-1.4,1-2.1,1.4
		c-0.8,0.5-1.7,0.8-2.5,1.2c-1.2,0.6-1.6,1.6-0.9,2.5c1.3,1.6,2.6,3.1,4,4.6c0.9,0.9,2.1,1.5,3,2.4c1.7,1.7,3.4,3.5,5,5.4
		c1.9,2.1,1,5.3-1.5,6.4c-1.6,0.7-3.2,0.6-4.9,0.6c-0.8,0-1.5,0.3-1.9,0.9c-0.5,0.9-1.3,1.2-2.3,1.4c-1.4,0.2-2.5-0.3-3-1.4
		c-0.3-0.6-0.6-1.2-0.7-1.8c-0.1-0.7,0-1.4,0.1-2.1c0-0.1,0.4-0.2,0.7-0.3c0.1,0.2,0.2,0.5,0.2,0.6c-0.5,1.3,0.1,2.5,0.8,3.5
		c0.6,0.9,2.8,0.8,3.4-0.1c0.8-1.2,1.8-1.7,3.2-1.5c0.5,0.1,1.1,0.1,1.6,0c1.2-0.3,2.4-0.6,3.6-1c0.3-0.1,0.7-0.5,0.8-0.8
		c0.1-1.4,0.4-2.8-0.7-3.9c-1.3-1.3-2.5-2.7-3.8-4c-0.8-0.8-1.8-1.6-2.7-2.4c-1-0.9-2-1.7-3-2.7c-0.6-0.6-1.1-1.4-1.7-2
		c-1.7-2-1.9-4.8-0.4-7c1.2-1.7,2.4-3.3,3.8-4.8C95.1,46.6,96.4,45.7,98.4,46z M71.8,131.6c0.7,0,1.1,0,1.6-0.1
		c2.1-0.3,4.2-0.6,6.3-0.8c1.3-0.1,2.5,0,3.8-0.4c1.1-0.3,2.2-0.4,3.4-0.6c1.7-0.3,3.4-0.5,5.1-0.8c1.2-0.3,2.3-0.7,3.5-1.1
		c0.9-0.3,1.8-0.7,2.4-1.4c0.7-0.8,1.6-1.4,2.2-2.3c1-1.2,2-2.4,2.8-3.7c0.5-0.7,1-1.6,1.3-2.4c0.7-2,1.4-4.1,2.1-6.1
		c0.6-1.6,1.2-3.1,1.7-4.7c0.5-1.6,0.8-3.3,1.2-5c0.3-1.4,0.8-2.7,1.1-4.1c0.5-2.4,0.9-4.8,1.3-7.1c0.3-2.1,0.9-2-1.5-2.1
		c-0.5,1.2-0.8,2.5-1.4,3.6c-0.8,1.6-1.8,3.1-2.8,4.6c-0.6,0.8-1.4,1.4-2.1,2.1c-0.2,0.2-0.6,0.3-1,0.4c-0.4,0.2-0.9,0.2-1.3,0.4
		c-2.9,1-5.9,1.8-9,1.8c-1.1,0-2.2-0.1-3.3-0.2c-1.9-0.2-3.8-0.4-5.8-0.6c-0.9-0.1-1.8-0.2-2.7-0.3c0.2,1.1,0.4,2,0.5,3
		c1.4-0.1,2.6,0.2,3.5,1.4c1,1.3,1.1,2.7,0.9,4.3c-0.2,0.9-0.5,1.7-1.4,2.1c-0.7,0.3-1.6,0.5-2.4,0.6c-1.1,0.1-1.9,0.4-2.6,1.4
		c-1,1.4-2.3,2.7-3.4,4.1c-0.7,1-1.6,1.9-1.9,3.2c-0.5,2.2-1.2,4.4-1.7,6.7C72.1,128.9,72,130.2,71.8,131.6z M116.1,86.1
		c-0.5,0.3-0.7,0.6-1.1,0.6c-0.8,0.2-1.3,0.7-1.5,1.4c-0.4,1.2-0.8,2.4-1,3.7c-0.5,2.4-0.8,4.8-1.3,7.1c-0.4,1.8-1.1,3.6-1.6,5.4
		c-0.4,1.6-0.6,3.4-1.1,5c-0.9,2.6-1.9,5.1-2.9,7.6c-0.6,1.6-1.2,3.3-2.1,4.7c-0.9,1.4-2.2,2.6-3.3,3.8c-1.3,1.4-2.4,3-4.5,3.5
		c-2.1,0.5-4.1,1.4-6.3,1.7c-2.2,0.3-4.5,0.8-6.7,1.1c-0.5,0.1-0.9,0.1-1.4,0.2c-1.8,0.1-3.7,0.2-5.5,0.3c-1.3,0.1-2.5,0.4-3.7,0.7
		c-0.1,0-0.3,0.2-0.3,0.4c-0.2,0.8-0.4,1.7-0.7,2.7c0.6-0.1,1.2-0.2,1.7-0.4c1.2-0.5,2.5-0.8,3.8-0.7c0.5,0,1-0.2,1.5-0.3
		c1.7-0.3,3.4-0.7,5.1-1c2.3-0.3,4.5-0.4,6.8-0.7c2.6-0.3,4.9-1.7,7.4-2.6c1.5-0.5,2.4-1.9,3.6-2.8c0.6-0.5,1.3-0.9,1.8-1.5
		c1.8-2,3-4.3,4.1-6.7c0.9-2,1.6-4.1,2.5-6.2c0.4-1.1,1-2.1,1.3-3.2c0.7-2.2,1-4.6,1.9-6.8c1.4-3.3,1.7-6.7,2.2-10.2
		c0.3-2,0.6-4,1.5-5.8C115.9,86.7,116,86.4,116.1,86.1z M74.3,103.5c-0.5,0-0.9,0.2-1,0.8c-0.1,0.5-0.5,1-0.8,1.4
		c-0.9,1.2-1.9,2.3-2.8,3.5c-0.6,0.9-0.6,0.9,0.3,1.6c1.8-1.6,3.6-3.2,5.3-4.7C74.9,105.1,74.6,104.4,74.3,103.5z M92.8,50.4
		c-1.1,1.5-2.3,2.7-2.4,4.6c0.8-0.4,1.6-0.7,2.3-1.1c0.7-0.4,1.4-0.8,2.3-1.3C93.8,52.4,93,51.8,92.8,50.4z M66.7,97.8
		c-0.1-0.1-0.1-0.2-0.2-0.3c-0.3,0.1-0.7,0.2-0.9,0.4c-1,1.2-1.8,2.5-2.8,3.7c-0.5,0.7-0.9,2.8-0.6,3.6
		C64.2,103,64.3,99.7,66.7,97.8z M52.8,91.8c1.7-1,1.9-1.5,0.8-2.9c-0.5-0.7-1-1.3-1.6-2c-0.1-0.2-0.5-0.1-0.7-0.2
		c0,0.2,0,0.4,0,0.6c0.3,1,0.6,2.1,1,3.1C52.4,90.9,52.6,91.4,52.8,91.8z"/>
	<path class="st0" d="M80.3,62c1.4,0.1,1.9,0.5,1.6,1.4c-0.2,0.6-0.3,1.2-0.7,1.6c-0.5,0.7-1.1,1.3-1.7,1.8
		c-1.4,0.9-2.9,1.8-4.4,2.6c-0.8,0.4-1.8,0.5-2.7,0.7c-0.7,0.2-1.6,0.1-2.2,0.4c-0.7,0.3-1.2,1-1.8,1.5c-0.2,0.2-0.5,0.3-0.7,0.5
		c-0.1-0.3-0.3-0.8-0.2-1c0.5-0.7,1.1-1.3,1.7-1.9c1.5-1.6,2.8-3.3,4.4-4.7c1.1-1.1,2.4-2.1,4-2.4C78.5,62.4,79.4,62.2,80.3,62z
		 M77.3,63.8c0.7,0.7,1.5,1.2,1.3,2.3c0.9-0.8,1.7-1.8,2.1-3C79.5,63,78.4,63.1,77.3,63.8z M73.4,66.5c-0.8,0.8-1.5,1.7-2.3,2.5
		c0,0.1,0.1,0.2,0.1,0.3c1.2-0.3,2.4-0.6,3.6-0.8C74.3,67.7,73.9,67.2,73.4,66.5z"/>
	<path class="st0" d="M90,88.9c1.2-1,2.1-1.8,3.1-2.6c0.7-0.5,1.4-1,2.1-1.5c0.6-0.5,1.2-1,1.7-1.5c0.8-1,1.9-1.6,3-2.2
		c0.5-0.3,1-0.7,1.4-1.2c0.8-1,1.4-2.1,2.2-3.1c0.2-0.3,0.5-0.4,0.7,0c0.6,1.3,1.2,2.6,1.6,3.9c0.6,1.7-0.4,4.2-2,5.2
		c-3.1,1.8-6.4,2.8-9.9,3c-0.5,0-1.1-0.2-1.6-0.1c-0.5,0-0.9,0.3-1.4,0.3C90.5,89.1,90.3,89,90,88.9z M92.7,88c0,0.1,0,0.2,0.1,0.2
		c0.4,0,0.7,0.1,1.1,0.1c2.7-0.2,5.4-0.9,7.8-2.1c1.5-0.7,2.9-1.5,3.4-3.3c0.3-1-0.1-3.3-0.9-4c-0.1,0.3-0.3,0.5-0.4,0.8
		c-0.3,1.3-1.1,2.2-2.1,2.9c-2.2,1.4-4.4,2.6-6.6,4C94.2,87.1,93.5,87.5,92.7,88z M96.2,85.1c0.1,0,0.3-0.1,0.4-0.1
		c1.4-0.8,2.8-1.7,4.2-2.5c1.6-1,2.3-2.6,2.9-4.2c0-0.1,0-0.2,0-0.5c-0.5,0.7-0.9,1.2-1.3,1.8c-0.6,0.8-1.1,1.8-2.2,2.1
		C98.4,82.2,97.4,83.7,96.2,85.1z"/>
	<path class="st0" d="M77,58.4c0.4,0.1,0.8,0.1,1.1,0.3c0.5,0.3,0.5,0.8,0,1.2c-0.5,0.4-1.1,0.7-1.7,1c-2.5,1.2-5,2.4-7.5,3.7
		c-0.9,0.5-1.7,1.3-2.6,1.9c-1,0.7-2.1,1.2-3.2,1.8c-0.2,0.1-0.7,0-0.8-0.2c-0.1-0.3-0.1-0.7,0-0.9c0.4-0.5,0.9-1.1,1.5-1.4
		c2.6-1.7,5.3-3.3,8-4.9c1.2-0.7,2.4-1.3,3.6-1.8C76,58.6,76.5,58.5,77,58.4z"/>
</g>
</svg>
