<?xml version="1.0" encoding="utf-8"?>
<!-- Generator: Adobe Illustrator 18.1.1, SVG Export Plug-In . SVG Version: 6.00 Build 0)  -->
<!DOCTYPE svg PUBLIC "-//W3C//DTD SVG 1.1//EN" "http://www.w3.org/Graphics/SVG/1.1/DTD/svg11.dtd">
<svg version="1.1" id="Layer_1" xmlns="http://www.w3.org/2000/svg" xmlns:xlink="http://www.w3.org/1999/xlink" x="0px" y="0px"
	 viewBox="405.2 173 150 213.3" style="enable-background:new 405.2 173 150 213.3;" xml:space="preserve">
<style type="text/css">
	.st0{fill:#9C27B0;}
</style>
<g id="vertigo-lady-main">
	<path class="st0" d="M486.7,201.5c1-1.2,2-2.5,3-3.7c0.2-0.1,0.6-0.4,0.9-0.4c2,0.4,4,0.9,6,1.5c2.2,0.7,4.6,1.9,7,2.4
		c4.5,0.9,8.1,3.1,11.5,5.9c2.4,1.9,4.5,4,6.6,6.1c1.5,1.4,2.7,2.9,4,4.4c0.9,1.1,1.6,2.4,2.4,3.5c1.4,2,2.7,3.9,3.9,5.9
		c1.5,2.9,2.9,5.9,4.4,8.9c2.6,5.2,5.4,10.4,7.7,15.7c1.5,3.5,2.5,7.4,3.6,11c1.2,3.7,2.4,7.4,3.6,11.1c0.7,2.4,1.7,4.7,2.7,7.1
		c0.2,0.6,0.6,1.1,1,1.7c0-1.1,0-2.4,0.1-3.6c-1.4-3.5-3-6.9-4.1-10.4c-2-5.6-3.1-11.5-5.5-17c-1.5-3.4-2.7-6.9-4.4-10.1
		c-1.1-2.5-2.6-4.7-4-7.1c-1-2-2.2-3.9-3.1-6c-1.1-2.7-2.6-5.1-4.4-7.5c-1.1-1.5-2.1-3.1-3.2-4.6c-1-1.2-2.1-2.6-3.4-3.7
		c-1.9-1.9-4-3.6-6-5.5c-3.5-3-7.2-5.5-11.7-6.7c-3-0.9-5.9-2-8.9-2.9c-3.1-0.9-6.1-1.7-9.2-2.6c-0.6-0.1-1.4,0-2.1,0
		c-1.1-0.1-2.4,0-3.4-0.4c-2.9-0.9-5.7-2.2-8.7-3c-4-1-6.7-3.7-9-7c-2.1-3-5-5-8.4-6.2c-3-1.1-6.1-2.1-9.1-3.2
		c-3.2-1.4-6.7-2.2-10.2-1.7c-3.2,0.4-6.5,1.2-9.6,2.1c-3.1,0.9-5.6,2.9-7.4,5.7c-0.9,1.4-2,2.6-3,4c-1.4,1.7-3,3.4-4.2,5.1
		c-1.7,2.5-3.4,5.1-5.2,7.6c-2.2,3.1-1.5,6.6-1.4,10c0,0.2,0.2,0.5,0.4,0.7c0.7,0.9,0.9,2,0.2,3c-1.1,2.1-1,4.4-0.4,6.5
		c2,6.7,5.2,12.6,10.7,17.2c4.9,4,7.9,9.2,9.7,15.2c3.1,10,6.4,20,10.1,29.4c0.6,1.5,1.7,2.9,2.5,4.4c1,1.6,1.9,3.4,2.6,5.1
		c0.1,0.2-0.2,1.1-0.5,1.2c-1.1,0.5-2.2,1-3.4,1.1c-4.1,0.5-8.4,0.7-12.5,1.6c-3,0.7-5.2,2.4-6.7,4.5c-2.5,3.4-3,7.6-2,11.6
		c1.5,6.1,3.5,12,5.4,18c2.2,6.7,4.9,13.4,6.4,20.4c0.5,2.1,1.1,4.2,1.9,6.4c1.6,4.5,3.2,8.9,4.9,13.4c0.1,0.1,0.1,0.1,0.1,0.2
		c1.1,6,2.2,12.1,3.4,18.2h1.1c0-0.7,0.1-1.5,0-2.2c-1.1-5.6-2-11.4-3.5-16.9c-1.2-4.6-3.2-8.9-4.9-13.4c-0.6-1.9-1.1-3.7-1.6-5.7
		c6.4,12.4,11.7,25,15.9,38.2h1.4c-1.4-4-2.6-8.1-4.1-12c-2.4-5.9-4.9-11.7-7.4-17.5c-1-2.5-2.5-4.7-3.6-7.2
		c-1.5-3.2-2.9-6.6-4.2-10c-1.5-3.7-2.9-7.7-4.2-11.6c-0.1-0.6,0.2-1.4,0-2c-1-3-2.1-6-3.2-9c-0.2-0.7-0.5-1.6-0.5-2.4
		c0-8.2,5.5-12.5,13-14.6c4.1-1.1,8.5-1.2,12.7-1.5c7.4-0.4,14.7,0.1,22-1c4-0.6,7.9-0.5,11.9-0.7c0.2,0,0.5-0.1,0.7-0.1
		c2.1-0.2,4.1-0.6,6.2-0.7c1.7-0.1,3.5,0.1,5.1-0.2c3.4-0.7,6.4,0.4,9.2,2c0.5,0.4,1.2,0.7,1.9,0.9c3.2,0.2,6.6,0.5,10,0.9
		c0.5,0.1,1.1,0.1,1.4,0.5c2.1,2.5,4.5,5,6,8.1c1.6,3.6,3.6,7.1,5.4,10.7c0.1,0.4,0.4,0.7,0.5,1.1c-2.6,0.6-5,1.1-7.2,2
		c-6.6,2.5-13.1,5.1-19.6,7.6c-1.7,0.7-3.4,1.5-5.1,2c-1.5,0.4-3.2,1-4.7,0.9c-4-0.4-7.9-1-11.7-1.6c-2.9-0.4-5.7-0.9-8.6-1.4
		c-3.9-0.7-7.9-1.1-11.5-2.4c-3-1-5.7-1.1-8.7-1.1c-1.9,0-3.7-0.5-5.6-0.7c-0.4,0-0.7,0.1-1.1,0.1c0.1,0.4,0.2,1,0.5,1.1
		c0.7,0.2,1.5,0.5,2.2,0.6c2.6,0.2,4.9,1.6,6,3.7c2.7,4.9,5.4,9.9,6.4,15.4c1.1,6.5,1.6,13.1,2.4,19.7c0.5,3.6,0.7,7.2,1.5,10.9
		c0.7,3.2,1.9,6.5,2.7,9.7h1.1c-0.6-2.4-0.9-4.9-1.7-7.1c-1.6-4.5-1.9-9.1-2.4-13.7c-0.7-6.7-1.4-13.6-2.6-20.2
		c-0.6-3.6-2.5-6.9-3.9-10.4c-0.5-1-0.9-2-1.5-2.9c-1-1.6-2.1-3.2-3.2-5c2.2-0.1,4.9-0.5,7.1,1c0.9,0.5,1.2,1.7,1.7,2.6
		c4.9,8.5,9.6,17.1,14.6,25.5c2.7,4.7,5.9,9.4,10.2,12.9c4.2,3.4,7.6,7.5,11.2,11.4c2,2.1,4,4.1,6,6.1h4c-0.7-0.9-1.4-1.9-2.2-2.6
		c-2.7-2.6-5.6-5.1-8.2-7.7c-2.9-2.9-5.4-6.1-8.1-9c-1.7-1.9-4.1-3.1-5.6-5.1c-2.7-3.5-5.4-7.1-7.6-10.9
		c-4.1-6.7-8.1-13.6-12.1-20.5c-0.2-0.5-0.4-1-0.6-1.6c10.1,1.6,19.9,3.1,30.1,4.7c-1.7,1.5-3.1,2.7-4.4,4c-0.6,0.5-1.2,1.2-1.6,2
		c-0.1,0.4,0.1,1.2,0.4,1.5c0.2,0.2,1.1,0.1,1.4-0.1c2.6-2.4,5.1-4.9,7.7-7.2c0.5-0.5,1.1-1.1,1.9-1.4c4.5-1.9,9-3.9,13.6-5.5
		c5.5-2,11.1-3.9,16.7-5.5c2.7-0.9,5.6-1,8.4-1.7c5.1-1.2,10.2-2.6,15.4-4.1c2-0.5,3.9-1.5,5.9-2.2v-1.4c-2.6,1.4-5.4,2.4-8.2,3
		c-3.6,0.9-7.1,1.9-10.6,2.9c-2.5,0.7-5,1.4-7.5,1.9c-0.5,0.1-1.4-0.4-1.6-0.9c-1.2-1.9-2.4-3.9-3.4-5.9c-2.1-4.7-4.2-9.5-8.1-13.1
		c-0.1-0.2-0.1-0.4-0.4-0.7c0.6-0.2,1.1-0.5,1.6-0.6c2.9-0.5,5.9-1.4,8.9-1.5c4.6-0.4,8.7-2,12.6-4.5c0.5-0.2,1-0.9,1-1.4
		c0.1-3.1,0.4-6.2-0.9-9.2c-0.9-1.9-1.5-3.7-2.2-5.6c-1.2-3.2-2.6-6.4-4-9.6c-0.2-0.9-0.6-1.7-0.9-2.6c-0.6-1.9-1.1-3.9-1.7-5.7
		c-1.4-4.2-2.5-8.6-5-12.6c-1.7-2.9-2.9-6-4.4-9c-0.9-1.9-2.2-3.7-0.6-5.9c0.2-0.4,0.2-0.7,0.4-1.1c0.7-3.9,1.4-7.7-1-11.4
		c-0.5-0.9-0.7-2-1.2-2.9c-3.1-5.7-7.5-9.7-14.4-10.6c-1.7-0.2-3.6-0.1-5.4-0.4c-3.4-0.4-6,1.4-8.2,3.1c-2.6,2-4.1,5.5-4.2,8.9
		c-0.2,5.2,0.2,10.6,2,15.6c1.2,3.6,2.6,7.2,5.9,9.7c0.4,0.2,0.5,0.6,0.6,1c0.6,1,1.1,2,1.7,3c2.4,3.4,4.9,6.6,7.1,10
		c3,4.7,6,9.5,8.9,14.2c0.4,0.5,0.6,1.2,0.9,1.9c1.2,3.1,2.4,6.1,3.6,9.1c0.4,1.1,0.2,1.5-0.9,1.7c-2.2,0.5-4.5,0.9-6.6,1.5
		c-2.5,0.7-5,1.7-7.5,2.5c-0.6,0.2-1.2,0.2-1.9,0.4c-0.4-1.5-0.2-2.5,1.4-3.5c3.4-2,3.7-6.2,1.2-9.1c-0.9-1.1-1.7-2.1-2.7-3.2
		c1.6-0.4,3.1-0.6,4.5-0.9c3.5-0.7,3.5-0.7,3.9-1.6c-0.6,0-1,0.1-1.5,0.1c-2.7,0.4-5.5,1-8.2,1c-2.9,0-5.9-0.6-8.7-1.1
		c-3.6-0.5-7.2-1.1-10.6-3c-3.4-1.9-4.7-5.1-6.1-8.7c0.9,0.5,1.4,0.7,2,1c2.2,1.2,4.7,1.1,7.1,0.7c3.2-0.5,5.2-4.4,5-6.9
		c-0.4-5.7-1-11.6-1.6-17.4c-0.6-6.2-1.7-12.4-2.2-18.5c-0.4-4.6,0-9.2,3.6-12.9C486.2,202.6,486.4,202,486.7,201.5z M423.5,211.6
		c1.1-0.9,2.3-1.1,3.6-1c0.9,0.1,1.8,0.3,2.7,0.4c0.2,0,0.4,0,0.6,0c1,0,2-0.3,2.8-1.1c0,0,0.1-0.1,0.1-0.1c1.4-0.8,2.6-1.7,3.9-2.6
		c0.2-0.2,0.4-0.3,0.6-0.5c1.3,0,2.7,0.1,4,0c0.7-0.1,1.7-0.5,2.1-1.1c0.2-0.5-0.2-1.5-0.6-2.1c-1.1-1.6-2.2-3.2-2.2-5.4
		c0-0.1,0-0.3,0-0.4c0.2-0.7,0.4-1.3,0.5-2c0.3-0.5,0.7-1,1.2-1.3c1.1-0.4,2.4-0.3,3.6-0.3c0.1,0,0.2,0,0.3,0c0.5,0.3,1,0.6,1.6,1.1
		c2,1.9,3.6,4,4.6,6.6c0.6,1.6,0.7,3.2-0.7,4.6c-0.5,0.6-0.5,1,0.1,1.7c2,2.1,4,4.4,5.9,6.7c1.7,2,2.5,4.5,2.2,7.1
		c-0.4,3.7-0.9,7.5-1.6,11.1c-0.5,2.5-3.2,3.9-5.6,3c-0.4-0.1-0.5-0.4-0.7-0.6c-0.2-0.2-0.5-0.6-0.7-0.7c-2-0.9-2.1-1.1-2.1-3.4
		v-0.5c-1.2,1-2.5,2.1-3.7,3.1c0.6-0.2,1.4-0.5,1.9-0.7c0.1,0.1,0.2,0.1,0.4,0.2c-0.5,0.6-0.9,1.4-1.4,2c-0.2,0.2-0.9,0.2-1.2,0.2
		c0-0.5,0.1-0.9,0.1-1.2c0.1-0.2,0.2-0.4,0.2-0.5c-1.2,0.2-2.6,0.4-4,0.6c0.2-0.7,0.4-1.4,0.6-1.9c0.1-0.2,0.6-0.4,0.7-0.7
		c0.2-0.5,0.5-1.2,0.4-1.7c-0.2-0.5-1-0.6-1.6-0.7c0.4,0.4,1.1,0.9,1.1,1.4c0,0.5-0.7,1-1.1,1.6c-0.1,0.4-0.2,0.7-0.5,1.1
		c-0.4,0.7-0.7,1.6-1.2,2.2c-1,1.1-1.5,1-2.4-0.2c-1.2-1.6-2.2-3.4-3.6-5c-0.6-0.7-1.7-1.1-2.6-1.6c-0.1,0.1-0.1,0.2-0.2,0.4
		c0.7,0.4,1.5,0.9,2.2,1.4c0,0.2-0.1,0.4-0.1,0.5c-1.6,0-3.2,0.2-4.9,0.1c-2.1-0.2-3.6-2.7-2.9-4.9c0.9-2.4,1.7-4.6,1.2-7.1
		c-0.1-0.7-0.5-1.6-1-2.1c-0.6-0.7-2-0.4-2.4,0.7c-0.6,1.5-0.9,3.1-1.4,4.7c-0.1,0.7-0.2,1.5-0.6,2.1c-0.2,0.4-1.1,0.9-1.5,0.7
		c-0.5-0.1-1-0.9-1-1.4c0.1-1.7,0.5-3.5,0.9-5.2c0.2-1,0.6-2,0.6-3C420.4,213.8,422.2,212.8,423.5,211.6z M450.5,235.7
		c0.6-0.6,1.2-0.2,1.4,0.7c0.1,2.7,0.5,5.5,0.5,8.2c0.1,2.5,0.1,5.1-0.4,7.6c-0.7,3.5-1.9,6.7-3,10.1c-0.2,1.1-0.9,2.1-1.2,3.2
		c-0.4,0.9-0.9,0.9-1.5,0.2c-0.6-0.6-1.1-1.2-1.5-2c-4-8.1-8-16.4-11.9-24.6c-0.9-1.6-1-3.5-1.6-5.2c-0.1-0.7-0.7-1.4-1.2-2.2
		c1.2,0,2.5-0.1,3.6,0c0.6,0,1.2,0.6,1.7,1.1c0.7,0.9,1.2,2,2,3c0.9,1.1,1.6,1.2,2.6,0.4c0.7-0.5,1.5-1.1,2.4-1.5
		c0.9-0.5,1.9-0.5,2.5,0.6c0.9,1.4,1.9,0.4,2.7-0.1C448.4,236.6,449.3,237.1,450.5,235.7z M448.4,234.4c0-0.7,0.2-1.5,0.4-2.6
		c0.5,1.1,1,1.7,1.2,2.5c0,0.4-0.1,1-0.4,1.5c-0.1,0.1-0.7,0.2-0.7,0.1C448.6,235.4,448.4,234.9,448.4,234.4z M438.4,280.3
		c-1.9-4.2-3.4-8.5-5-12.9c-1.7-4.6-3.2-9.2-4.9-13.9c-0.4-1-0.6-2.1-1-3.1c-1.7-6-4.9-11.1-9.2-15.5c-2.4-2.4-5.1-4.4-6.9-7.4
		c-2.2-3.9-5-7.9-4.7-12.6c0.1-2.9,1.4-5.5,2.2-8.2c0.1-0.5,1.1-0.6,1.6-1c0.2,0.6,0.6,1.5,0.5,2.1c-0.5,1.7-1.2,3.5-1.7,5.2
		c-0.4,1.4-0.6,2.7-0.9,4.1c0,0.2,0.4,0.6,0.6,0.9c0.2-1.6,0.4-3,0.7-4.2c0.6-2.1,1.4-4.1,2.1-6.2c0.1-0.4,0.6-0.9,1-0.9
		s1,0.6,1,0.9c0,1.7,0,3.6,0.1,5.1c-0.4,2.4-1.2,4.7-1.4,7.1c-0.1,1.4,0.5,2.9,0.9,4.2h0.6c0.1-0.4,0.4-0.7,0.5-1.2
		c0.7-3.4,1.5-6.9,2.4-10.2c0.1-0.5,0.2-1.1,0.6-1.4c0.5-0.5,1.1-0.7,1.7-0.7c0.1,0.1,0.2,0.1,0.3,0.2c0.1,0.2,0.2,0.5,0.3,0.8
		c0,0.2,0.1,0.3,0.1,0.5c0,0.2,0,0.3,0.1,0.4c0.2,3.2-0.8,6.2-1.4,9.3c-0.1,0.7-0.2,1.6-0.4,2.4c-0.1,1.2,0.7,1.9,1.7,2.2
		c1.1,0.2,1.9-0.4,2.2-1.2c0.5-1.2,0.7-2.6,1.1-4c0.2-0.7,0.4-1.7,0.7-2.5c0.2-0.4,0.7-0.6,1.1-1c0.2,0.4,0.9,0.9,0.9,1.2
		c-0.1,1.7-0.2,3.4-0.5,5.1c-0.1,1.5-0.7,2.9-0.9,4.2c-0.1,0.6,0.4,1.5,0.9,1.9c1,0.9,2.2,1.7,3.5,2.5c1.2,0.7,1.2,1.6,0.7,2.6
		c-0.5,1.1-1.1,2-1.9,3.2c1.6-0.4,1.7-2,2.6-2.7c2.2,5.2,4.4,10.4,6.7,15.4c2.1,4.5,4.5,9.1,7,13.5c0.7,1.5,2.4,2.5,3.6,3.6
		c2.5,2.1,4.1,4.7,4.9,8c0.1,0.5,0.4,0.9,0.5,1.4c0.1-0.1,0.4-0.1,0.5-0.2c-0.6-3.6-2.2-6.7-5-9.4c-0.9-0.6-0.9-1.2-0.5-2.1
		c1.5-3.9,3.1-7.7,4.1-11.7c0.7-2.9,0.6-6.1,0.7-9.1c0.1-2.6,0-5.2,0-8c0.4,0,1.1,0,1.7-0.1c2.7-0.2,4-1.4,4.5-4.1
		c0.4-2.5,0.7-5,1.1-7.5c0.1-0.6,0.2-1.2,0.4-1.9c0.1,0,0.4-0.1,0.5-0.1c0.2,0.4,0.6,0.9,0.6,1.2c-0.1,3.7,0.1,7.5,1.6,11.1
		c-0.6-0.4-1.2-0.9-1.9-1.2c0,0.1-0.1,0.2-0.2,0.4c0.1,0.4,0.4,0.7,0.6,0.9c2.7,1.6,4.6,4.1,5.9,7c0.7,1.9,1.1,4,1.5,6
		c0.2,1.1,0.1,2.2,0.4,3.2c0.5,1.9-0.5,3.2-1,4.9c-0.7,2.4-1.4,4.9-2.1,7.2c-0.6,1.7-1.4,3.5-2,5.2c-2.6,7-5.7,13.7-9.9,20
		c-1.9,2.7-4.6,4.2-8,3.9c-0.9,0-2-0.7-2.5-1.5C442.4,288,440.1,284.2,438.4,280.3z M463,225c0.1-0.6,0.2-1,1-1s1.6-0.1,2.9-0.2
		c0.6,6,1.4,11.9,2.1,17.9c-0.1,0-0.2,0.1-0.4,0.1c-0.5-0.9-1.1-1.9-1.7-2.7C464,234.8,462.6,230.1,463,225z M460.8,297.3
		c-6.9,0.2-13.9,0.1-20.7,0.6c-5.1,0.4-10.2,1.5-14.7,4.5c-3,2.1-5,4.9-5.9,8.5c-0.1,0.4-0.2,0.9-0.4,1.2h-0.4
		c-0.2-1-0.6-2.1-0.9-3.2c-0.1-2.7-0.2-5.5,0.9-8.1c1.4-3.4,3.9-5.2,7.5-6.1c4-1,8-1.1,12-1.7c1.6-0.2,3.1-1,4.9-1.6
		c0-0.1,0.1-0.1,0.1,0c1.9,3.7,6.2,3.1,9.4,1.2c1-0.5,2-1.4,3.1-2.2c2.6,2.1,5.2,4.1,8.2,6.5C462.8,297.1,461.8,297.3,460.8,297.3z
		 M499.1,287.8c0.9,0,1.6-0.2,2.4-0.5c2.9-1,5.7-2,8.6-2.9c1.9-0.5,3.9-0.9,5.9-1.1c0.4-0.1,0.9,0.4,1.1,0.7
		c0.5,0.6,0.9,1.2,1.2,1.9c0.2,0,0.4-0.1,0.5-0.1c-0.1-0.5-0.1-0.9-0.2-1.2c-1.7-4.4-3.6-8.7-5.5-13.1c-0.2-0.6-0.4-1.2-0.7-1.7
		c-2.5-4-4.9-8-7.5-11.9c-3.1-4.7-6.5-9.2-9.7-13.9c-0.4-0.5-0.4-1.4-0.6-2c-0.1-0.4-0.1-0.7-0.4-0.9c-3.4-2.2-4.6-6-6-9.6
		c-1.7-4.9-2.2-10-2-15.1c0-3.1,1.4-6.2,3.7-8.1c2-1.6,4.5-3.2,7.5-3c1.7,0.2,3.5,0.2,5.2,0.4c6.2,0.5,10.4,4.2,13.5,9.1
		c1.2,1.9,2,4,2.9,6.1c0.4,0.6,0.5,1.4,0.5,2c0,3.2,0,6.5-1.9,9.4c-0.1,0.2,0,1,0.2,1.4c2.5,5.2,5.1,10.2,7.5,15.5
		c1,2,1.6,4.2,2.2,6.4c1,3,1.7,6,2.7,9c0.4,1.1,0.9,2.2,1.4,3.4c1.4,3.4,2.6,6.9,4,10.2c0.5,1.1,0.9,2.5,1.5,3.6
		c1.4,2.9,1,5.9,1,8.9c0,0.4-0.5,0.7-0.9,1c-4,2.9-8.7,4-13.6,4.4c-2.9,0.2-5.6,1.2-8.5,1.7c-2.7,0.5-5.5,1.2-8.2,0.1
		c-0.1,0-0.1,0-0.2,0c-3.9,0.4-6.9-1.7-10.2-3c-0.7-0.2-1.7-0.2-2.6-0.2c-3.4,0.1-6.7,0.2-10.1,0.4c-0.4,0-0.7-0.1-1,0
		c-3.7,1.2-7.7,0.7-11.6,1.4c-1.6,0.4-3.2,0.4-4.9,0.1c-1.2-0.1-2.4-1-3.5-1.7c-1.9-1.4-3.5-2.7-5.2-4.1c-0.6-0.5-1.1-1-0.6-1.7
		c0.4-0.7,1.2-1.1,2-0.6c1.1,0.7,2.1,1.6,3.2,2.4l1.1,0.7c0.1-0.1,0.2-0.4,0.4-0.5c-1.6-1.7-3.4-3.5-6.2-4c0.2-0.4,0.4-0.7,0.6-1.1
		c1.4-1.9,1.9-1.9,3.4-0.2c0.5,0.6,1.1,1,1.6,1.5c0.2-0.1,0.4-0.4,0.5-0.5c-0.5-0.5-1-0.9-1.4-1.5c-0.4-0.5-0.4-1.1-0.5-1.7
		c0.5,0,1.2-0.1,1.7,0.1c2.1,1.2,2.1,1.2,3.1,1.1c-1-0.7-1.7-1.4-2.7-2.2c1-0.2,1.6-0.4,2.2-0.5c1.2-0.2,2.4-0.4,3.6-0.5
		c0.5,0,1.1,0,1.5,0.4c1,0.9,2,1.2,3.2,1c2.5-0.4,3.7,1.4,5,2.9c1.6,2,3.5,2.9,5.9,2.9C489.9,288.2,494.5,288.1,499.1,287.8z
		 M498.1,287.2h-5.4c-2.5,0-5,0.2-7.5,0.2c-2.2,0-4-1.1-4.7-3.2c2.7,0,5.2-0.1,7.9,0c2.6,0,5.1,0.1,7.7,0c1.4-0.1,2.1,0.1,1.9,1.7
		C498,286.2,498.1,286.6,498.1,287.2z M472.5,260.5c1,2.7,2.7,4.7,5.2,6.2c3.4,2,7.1,2.6,11,3.2c2.5,0.4,5.1,0.6,7.6,1
		c0.6,0.1,1.2,0.5,1.7,1c1.1,1.1,2.1,2.4,3.2,3.6c1.9,2.1,1,6.2-1.6,7.4c-0.9,0.2-1.9,0.2-2.7,0.2h-11.6c-1.2,0-2.5,0.1-3.7,0.2
		c-1.4,0.1-2.6,0-3.7-0.9c-0.6-0.5-1.7-0.6-2.7-0.6c-1.1-0.1-2.2-0.1-3.1-1c-0.4-0.4-1.1-0.6-1.6-0.5c-2.5,0.4-5,0.7-7.5,1.4
		c-0.7,0.1-1.2,0.7-1.9,1.1c-0.2,0.1-0.6,0.2-1,0.4c4.1-8.9,7.6-17.9,10.2-27h0.4C471.3,257.7,472,259.1,472.5,260.5z M481.2,211.6
		c-0.6,3.5,0.2,6.7,0.6,10.1c0.4,3.6,1,7.1,1.4,10.7c0.6,5.4,1.1,10.9,1.7,16.2c0.1,0.7,0,1.6,0.1,2.4c0.4,2.1-1.1,3.5-1.7,5.2
		c-0.1,0.4-0.9,0.5-1.4,0.7c-0.2-0.4-0.6-0.9-0.6-1.4c0-2.7,0.1-5.5,0.2-8.2c0-2.4,0-4.6-1.2-6.6c0.2,1.7,0.7,3.7,0.7,5.6
		c0,3.4-0.2,6.9-0.4,10.4c0,0.9-0.4,1-1,1c-2.1-0.2-4.6,0.1-6.4-1.5c-1-0.7-2-2.1-2.1-3.2c-0.9-7.6-1.6-15.4-2.4-23
		c-0.1-1.7-0.6-3.4-1-5.1c-0.2-1,0.1-1.4,1-1.6c3.1-0.9,5.4-0.4,6.4,3.4c0,0.1,0.1,0.2,0.5,0.7c-0.1-3.2-2.4-5.1-4.9-4.9
		c-2.2,0.2-4.5,0.4-6.7,0.5c-2.2,0-2.7-0.5-2.9-2.6c-0.4-3.1-1.9-5.7-3.9-8.1c-1.4-1.4-2.7-2.9-4.1-4.2c-0.6-0.6-0.6-1.1-0.1-1.7
		c1.2-1.4,1.2-3,0.6-4.6c-0.6-1.6-1.5-3.1-2.2-4.7c2.8,0.4,5.6,0.8,8.4,1.3c0.1,0,0.1,0,0.2,0c0,0,0.1,0,0.1,0c0.1,0,0.2,0,0.3,0.1
		c3.7,0.6,7.5,0.6,11.2-0.6c0.8-0.3,1.5-0.5,2.3-0.7c0.4-0.1,0.7-0.2,1.1-0.3c0,0,0,0,0,0c0.7,0,1.3-0.2,1.9-0.4
		c1.6-0.3,3.3-0.4,5-0.2c1.5,0.1,2.9-0.1,4.2-0.1c0.9,0,1.7,0.4,2.7,0.5c-1.9,2.5-3.5,4.7-5.1,7C482.1,206,481.7,208.8,481.2,211.6z
		"/>
	<path class="st0" d="M435.4,219.8c0.1,1.7,0.2,3.2,0.4,4.6c0.1,0.9-0.2,1.4-1.2,1.4c-0.5,0-1.1,0-1.6,0c-1.4-0.1-1.9-0.6-1.2-1.9
		C432.4,222.1,433.7,221,435.4,219.8z M433,222.9c0.9,0.2,1.4,0.5,2.2,0.7c-0.1-0.9-0.2-1.7-0.4-2.9
		C434.2,221.6,433.7,222.1,433,222.9z"/>
	<path class="st0" d="M444.1,201.1c-0.6-1.7-0.2-3.1,0.7-3.9c1.1-0.7,3-0.6,3.9,0.4c1.1,1.4,2.1,2.7,2,4.6c0,0.6-0.4,1.1-0.5,1.6
		c-0.1,0-0.2,0-0.4-0.1c0-0.1-0.2-0.4-0.1-0.5c0.7-1.7,0-3.1-0.9-4.5c-0.6-1-1.5-1.6-2.7-1.2c-1.2,0.4-1.5,1.1-1.6,2.1
		C444.4,200.3,444.3,200.5,444.1,201.1z"/>
	<path class="st0" d="M430.4,219.8c-0.7,1.5-1.5,2.6-1.9,3.9s-0.4,2.6-0.6,4.1C426.2,226.1,428,220.9,430.4,219.8z"/>
</g>
</svg>
