<?xml version="1.0" encoding="utf-8"?>
<!-- Generator: Adobe Illustrator 18.1.1, SVG Export Plug-In . SVG Version: 6.00 Build 0)  -->
<!DOCTYPE svg PUBLIC "-//W3C//DTD SVG 1.1//EN" "http://www.w3.org/Graphics/SVG/1.1/DTD/svg11.dtd">
<svg version="1.1" id="Layer_1" xmlns="http://www.w3.org/2000/svg" xmlns:xlink="http://www.w3.org/1999/xlink" x="0px" y="0px"
	 viewBox="0 0 126.9 211.2" style="enable-background:new 0 0 126.9 211.2;" xml:space="preserve">
<style type="text/css">
	.st0{fill:#00BCD4;}
</style>
<g id="constipation-boy">
	<path class="st0" d="M110.4,211.2c0.3-2,0.7-3.9,0.8-5.9c0.4-5.3-0.1-10.5-0.5-15.7c0-0.1-0.1-0.1-0.1-0.2
		c-0.9,0.8-1.7,1.7-2.6,2.4c-2.7,2.2-5.4,4.4-8.1,6.6c-0.7,0.6-1.4,1.3-2.1,1.9c-1.1,1-2.4,1.7-3.9,1.6c-0.2,0-0.4-0.2-0.6-0.3
		c0.2-0.2,0.4-0.6,0.6-0.5c1.9,0.1,3.1-1.2,4.4-2.3c2.2-1.9,4.7-3.6,6.9-5.6c1.7-1.5,3.3-3.1,5-4.8c0.2-0.2,0.2-0.8,0.1-1.1
		c-0.6-1.4-0.6-2.8-0.6-4.3c0.1-5.7,0.1-11.5,0.2-17.2c0.1-4.8-1.2-9.3-2.3-13.9c-0.3-1.5-0.3-3.1-0.5-4.6
		c-0.9-5.8,0.1-11.6-0.2-17.4c-0.1-1.9-0.4-3.8-0.5-5.7c-0.1-2-0.1-4-0.1-6c0-0.6-0.1-1.1-0.1-1.7c0-0.2,0.3-0.6,0.4-0.5
		c0.2,0,0.6,0.3,0.6,0.4c0.1,1.2,0.1,2.5,0.2,3.7c0,0.4,0,0.8,0,1.2c0.1,0.6,0.4,0.9,1.1,0.7c2.1-0.7,4.2-1.4,6.3-2.2
		c2.9-1.2,5.8-2.5,8.7-3.7c0.4-0.2,0.8-0.4,1.2-0.4c1,0,1.4-0.7,1.3-1.4c0-1.2-0.1-2.4-0.5-3.5c-1.1-3.7-2.2-7.4-3.4-11.1
		c-0.8-2.3-2.3-4.1-4.6-5.2c-3.5-1.6-6.9-3.5-10.4-5c-1.9-0.8-4-1.2-6-1.7c-2.5-0.6-4.4-2-6.1-3.9c-0.3-0.3-0.6-0.6-0.9-0.9
		c-0.1-0.1-0.1-0.1-0.3-0.2c-0.1,0.1-0.2,0.3-0.2,0.4c-0.1,2.7-1.4,5-2.5,7.4c-2.6,6-7.6,9.7-13.2,12.5c-2.2,1.1-4.7,1.4-7.1,2
		c-0.8,0.2-1.6,0.3-2.3,0.6c-1.9,0.7-3.9,0.6-5.8-0.1c-1.8-0.6-3.7-1.2-5.5-2c-3.9-1.7-7.2-4.1-9.7-7.8C45.6,93,44,90.2,43,87
		c-0.3-1-0.3-2-0.5-3.2c-1.3,0.7-2.4,1.4-3.6,2c-2.7,1.4-5.5,2.6-8.2,4c-1.5,0.8-2.9,1.8-4.3,2.7c-0.8,0.5-1.6,1.2-2.5,1.7
		c-1.4,0.8-2.4,1.9-3.2,3.4c-1.1,2.1-2.7,3.9-4.1,5.8c-0.9,1.3-1.9,2.6-2.8,4c-0.5,0.8-0.8,1.7-1.3,2.5c-0.4,0.6-1,1.1-1.4,1.7
		c-1.3,1.8-1.3,2,0.9,2.5c3.3,0.8,6.4,2,9.3,3.8c1.6,1,3.1,2.2,4.7,3.2c0.7,0.4,1.3,1.1,2.3,1c0.1-1,0.2-2,0.2-3c0-3.3,0-6.6,0-9.9
		c0-0.2-0.1-0.4,0-0.5c0.1-0.2,0.2-0.3,0.3-0.5c0.1,0.1,0.4,0.2,0.4,0.4c0.1,0.2,0.2,0.5,0.2,0.8c0,2.8-0.1,5.6-0.1,8.4
		c0,1.6,0,3.3,0,4.9c0.1,0,0.2,0,0.2,0.1c0.1-0.3,0.4-0.6,0.4-1c0-1.7,1.1-2.9,2-4.3c0.6-1,1.1-2.1,1.7-3.2c0.4-0.7,0.8-1.4,1.3-2.3
		c0.2,0.5,0.4,0.7,0.3,0.9c-0.4,0.9-0.8,1.7-1.3,2.5c-0.1,0.1-0.2,0.2-0.3,0.3c-0.9,1.7-2,3.3-2.8,5.1c-0.7,1.7-1.4,3.5-1.6,5.3
		c-0.1,1.1-0.8,1.9-1,3c-0.9,3.7-0.8,7.4-0.5,11.2c0.1,1.3-0.1,2.5-0.3,3.8c-0.1,1.4-0.3,2.8-0.5,4.2c-0.1,0.8-0.1,1.6,0,2.5
		c0.6-0.8,1.1-1.6,1.7-2.4c0.1-0.2,0.2-0.5,0.4-0.6c0.3-0.2,0.7-0.3,1.1-0.4c0,0.3,0.1,0.8-0.1,1c-0.9,1.3-1.8,2.6-2.8,4
		c0.4,0.4,0.8,1,1.4,1.5c1.5,1.3,3,2.6,4.5,4c2.1,1.9,4.5,3.2,7.1,4.1c3.1,1.1,6.2,2,9.3,3.2c1.4,0.5,2.8,0.7,4.3,0.9
		c0.4,0.1,0.8-0.1,1.2-0.2c1.8-0.6,3.6-1.4,5.5-1.9c0.8-0.3,1.8-0.1,2.7-0.2c-0.5-1.3-1.1-2.6-2.1-3.7c-1.5-1.6-3-3.1-4.5-4.6
		c-2-2.1-3.6-4.5-4.8-7.1c-0.9-1.7-0.6-3.6-0.6-5.4c0-0.2,0.3-0.3,0.4-0.5c0.1,0.2,0.3,0.4,0.3,0.6c0.1,0.6,0.1,1.1,0,1.7
		c-0.1,1.8,0.5,3.3,1.4,4.8c1.7,3,3.9,5.4,6.4,7.7c1.8,1.6,3.3,3.4,4.2,5.6c0.3,0.7,0.7,0.8,1.4,0.6c2.1-0.6,4.1-0.7,6.2,0.1
		c2.3,0.8,4.7,1.3,7.3,0.6c1-0.3,2.2-0.2,3.4-0.1c0.7,0,1,0.6,1.1,1.2c0.2,1,0.6,2-0.5,3.1c1,0.1,1.7,0.2,2.4,0.1
		c1.5-0.1,2.9-0.3,4.4-0.4c1-0.1,2-0.1,2.9-0.1c0.9,0,1.4,0.7,1.5,1.4c0.2,0.8,0.3,1.7-0.4,2.3c-1.6,1.2-3.2,2.2-5.2,2.7
		c-0.4,0.1-0.8,0.4-1.3,0.7c1.4,0,2.7,0,3.9,0c0.8,0,1.7,0,2.5,0c1.3,0.1,2.3,1.1,2.4,2.3c0.1,1.8-0.7,2.6-2.8,3
		c-0.4,0.1-0.8,0.2-1.3,0.3c0.2,0.5,0.4,0.9,0.5,1.3c0.8,1.9,0.2,3.2-1.8,3.7c-0.5,0.1-1.1,0.2-1.6,0.2c-2.4,0.2-4.8,0.4-7.2,0.6
		c-1.3,0.1-2.7,0-4,0c-0.2,0-0.5,0-0.7,0.2c0.3,0.1,0.5,0.2,0.8,0.3c1.5,0.4,3.1,0.7,4.6,1.1c1,0.3,1.9,0.7,2.1,1.9
		c0.1,0.7,0,1.2-0.6,1.5c-0.8,0.4-1.7,0.8-2.5,0.8c-1.8,0.1-3.7,0.1-5.6,0.1c-0.7,0-1.4-0.3-2-0.6c-2.2-0.9-4.4-1.9-6.7-2.8
		c-1.1-0.4-2.2-0.6-3.3-1c-1.1-0.4-2.3-0.7-3.3-1.3c-3.1-1.7-6.4-2.4-9.8-3c-3.6-0.7-7.1-1.4-10.6-2.3c-3.3-0.9-6.5-2.1-9.7-3.3
		c-1.4-0.5-2.7-1.2-4.1-1.7c-0.7-0.3-1.4-0.4-2.2-0.4c0.7,0.8,1.3,1.5,2,2.3c0.3,0.4,0.6,0.8,0.8,1.3c1.2,2.4,2.3,5,3.6,7.3
		c1.6,3,3.4,5.8,5.1,8.7c0.1,0.2,0.4,0.2,0.6,0.4c0.2,0.2,0.3,0.5,0.4,0.8c-0.3,0.1-0.7,0.4-0.8,0.3c-0.4-0.2-0.7-0.6-0.9-1
		c-2.6-4.8-5.8-9.3-7.9-14.3c-0.7-1.8-1.5-3.4-2.9-4.8c-0.1-0.1-0.2-0.2-0.3-0.3c-0.1,0.1-0.2,0.3-0.3,0.4c-1.1,2.5-1.8,5-1.8,7.7
		c0.1,2-0.1,4,0.1,5.9c0.1,1.6-0.2,3.1-0.1,4.7c0.1,1.6,0,3.3,0,4.9c0,1.6,0,3.3,0,4.9c0,1.1,0.1,2.2,0.1,3.3c0,0.9-0.2,1.8-0.3,2.7
		c-0.3,0-0.6,0-0.9,0c0-1.3,0.1-2.5,0.1-3.8c0-1.3,0-2.6,0-3.9c0-4.8,0-9.6,0-14.4c0-2.6,0-5.2,0.3-7.7c0.2-1.7,0.9-3.3,1.5-4.9
		c0.3-0.8,0.2-1.3-0.5-1.6c-2.6-1.1-4.8-2.8-7.2-4.3c-1-0.6-2-1.1-3.1-1.5c-3.1-1.1-5.7-2.8-7.8-5.4c-0.8-1-1.6-1.9-2.5-2.7
		c-1.2-1.1-1.4-2.3-1.4-3.9c0.2-3.5,1-6.9,2.1-10.2c0-0.1,0-0.1,0.1-0.2c1.7-1.7,1.6-4,2-6.1c1.1-5.3,3.2-10.1,6.1-14.6
		c0.9-1.4,1.6-2.9,2.3-4.3c0.4-0.8,0.2-1.3-0.7-1.6c-1.5-0.5-2.9-1-4.4-1.4c-0.7-0.2-0.7-0.7-0.4-1.2c0.7-1.5,1.4-3,2.2-4.5
		c0.9-1.7,1.9-3.4,3-5c1.1-1.7,2.2-3.4,3.5-4.9c1.7-1.9,2.8-4.1,3.9-6.3c0.8-1.6,2.1-2.8,3.7-3.7c0.8-0.4,1.5-1,2.3-1.6
		c1.9-1.5,4-2.6,6.3-3.6c4-1.6,7.7-3.9,11.3-6.1c0.5-0.3,0.9-0.9,1.3-1.3c0.3-0.3,0.7-0.6,1.1-0.9c1.3-0.9,2.7-1.8,4-2.8
		c0.3-0.2,0.4-0.8,0.4-1.3c-0.1-2.3-1-4.3-1.9-6.4c-0.6-1.4-1.2-2.7-1.8-4.1c-0.4-0.9-0.5-0.9-1.4-0.5c-2,1-4.4,0.5-4.8-2.1
		c-0.4-2.7-1.5-5.2-2.9-7.6c-1.2-2.1-0.9-4.3-0.8-6.5c0.1-0.9,0.7-1.6,1.6-2c0.5-0.2,1.3-0.5,1.3-0.8c0-0.8-0.2-1.6-0.5-2.3
		c-0.5-1-1.2-1.8-1.7-2.8c-1-2.2-1-4.5-0.1-6.8c0.7-1.7,1.2-3.4,1.1-5.2c-0.1-1.1,0.1-2.2,0-3.3c-0.3-4,1.5-7.3,3.7-10.3
		c1.3-1.7,2.9-3.1,4.2-4.7c0.9-1.1,1.7-2.3,2.6-3.4c0.7-0.8,1.5-1.5,2.3-2.2c1.4-1.3,3.3-2,4.9-2.8c2.5-1.2,5.2-2,8.1-1.9
		c1.7,0,3.5-0.1,5.1,0.7c0.2,0.1,0.4,0.1,0.5,0.2c1.8,1.6,4,1.4,6.1,1.1C76.5,2,77.1,2,77.7,2c0.7,0.1,1.3,0.2,1.4,1.1
		c0.1,0.3,0.5,0.7,0.8,0.9c2.4,1.8,4.9,3.5,7.4,5.2c1.9,1.3,3.3,3,4.5,4.9c0.2,0.3,0.4,0.8,0.5,1.2c0.5,2.3,1.4,4.4,2.7,6.3
		c1,1.5,1.4,3.2,1.8,4.9c0.6,2.1,1.3,4.2,1.8,6.4c0.2,0.9,0.3,1.8,0.4,2.7c0.1,1.3,0.1,2.6,0,3.9c-0.1,0.8-0.3,1.6-0.5,2.3
		c-0.2,0.6-0.2,1.1,0.3,1.4c1.7,1.3,2.1,3,2.1,5c0,1.7-0.4,3.1-1.6,4.5c-1.6,1.8-2.8,4-3.7,6.3c-0.4,1.1-1.1,2.2-1.7,3.3
		c-0.5,1-2.7,1.5-4,0.8c-0.7-0.4-1.6,0.1-1.7,1c-0.3,2-0.6,4-0.9,5.9c-0.2,1.3-0.5,2.7-0.7,4c-0.1,0.8,0.1,1.4,0.9,1.9
		c2.6,1.5,4.8,3.5,6.8,5.7c1,1.1,2,2.2,3.2,3.1c0.8,0.6,1.8,1.1,2.8,1.4c2,0.7,4.2,1,6.2,1.8c2.7,1,5.3,2.4,8,3.6
		c1.3,0.6,2.6,1.2,3.8,1.9c3.2,1.9,4.7,5.1,5.7,8.4c1,3,2,6.1,2.6,9.2c0.5,3.1,0.4,6.3,0.4,9.5c0,0.3-0.5,0.8-0.9,0.9
		c-1.7,0.7-3.5,1.3-5.3,1.9c-0.5,0.2-0.6,0.4-0.6,0.9c-0.1,5.1-0.3,10.2-0.2,15.3c0.1,4.4,0.6,8.7,0.8,13.1c0.2,3.1,0.8,6.1,1.4,9.2
		c0.7,3.8,0.7,7.6,0.1,11.4c-0.5,3.4-1.1,6.8-1.6,10.2c-0.2,1.4-0.2,2.8-0.2,4.2c0,4.5-0.5,9-1.1,13.5c-0.5,3.3-0.7,6.6-1,10
		c-0.4,0-0.7,0-1.1,0c0.1-2,0.3-4.1,0.4-6.1c0-0.3,0-0.7,0.2-0.8c0.7-0.4,0.6-1.1,0.6-1.7c0-1.3,0.1-2.5,0.2-3.8
		c0.1-2.3,0.2-4.5,0.3-6.8c0.1-1.5,0-2.9,0.2-4.4c0.4-2.7,0.9-5.4,1.3-8.1c0.3-2.5,0.5-5,0.8-7.6c0.4-3.7,0.1-7.4-0.7-11
		c-0.4-1.9-0.8-3.7-1-5.6c-0.2-1.7-0.2-3.5-0.2-5.3c-0.1-1.3-0.1-2.7-0.2-4c-0.2-2-0.5-4-0.5-6c0-2.9,0.2-5.8,0.3-8.7
		c0-2.3,0-4.6,0-7c-1.7,0.4-3.5,0.9-5,1.9c-1.4,0.9-2.8,1.8-4.6,1.5c-0.8-0.1-1.2,0.4-1.1,1.1c0.1,1,0.2,2,0.2,2.9
		c0,2.1,0.2,4.1,0,6.2c-0.2,2.7-0.4,5.4,0.2,8c0,0.2,0,0.5,0,0.7c0,0.9-0.1,1.7,0.1,2.5c0.5,2.5,1.2,4.9,1.7,7.4
		c0.3,1.7,0.7,3.4,0.7,5.1c0.1,4.5,0.1,9.1,0.1,13.6c0,1.7,0.1,3.5,0.1,5.2c0,0.9,0,1.9,0.1,2.8c0.3,2.3,0.8,4.5,1,6.8
		c0.3,2.2,0.4,4.4,0.5,6.6c0.1,1.5-0.1,3.1-0.1,4.6c0,2.1-0.1,4.2-0.1,6.2c0,1.2-0.1,2.4-0.1,3.6
		C111.8,211.2,111.1,211.2,110.4,211.2z M58,10.3c-0.9,0.8-1.9,1.6-2.8,2.4c-2.7,2.6-5.2,5.5-7.4,8.7c-1.6,2.3-2.3,4.7-2.4,7.4
		c-0.2,4.4-0.7,8.7-1.7,13c-0.6,2.6-1,5.2-0.1,7.8c0.1,0.3,0.1,0.7,0.1,1.1c0,0.7,0.1,1.4,0.1,2.1c0.2,1.6,0.7,3.2,1.3,4.7
		c0.7,1.7,1,3.6,1.5,5.4c0.4,1.2,0.7,2.6,1.3,3.7c2.5,4.4,3.3,9.1,3.5,14c0,0.3-0.3,0.6-0.4,0.8c-0.2-0.3-0.4-0.5-0.5-0.9
		c-0.1-0.7-0.2-1.4-0.3-2.2c-0.1,0-0.2,0-0.3-0.1c-0.2,0.4-0.6,0.8-0.7,1.2c-0.2,0.9-0.4,1.8-0.4,2.7c-0.2,3.7,1.7,6.6,3.8,9.4
		c1.8,2.3,4.1,3.6,6.7,4.8c3.5,1.6,7.2,1.5,10.9,1.5c0.1,0,0.3-0.1,0.4-0.1c2.7-1,5.3-2.3,7.6-4.1c2.1-1.6,4-3.5,5.4-5.8
		c1-1.7,2.1-3.4,2.1-5.5c0-0.6,0.2-1.3,0.4-1.9c0.7-1.7,0.3-2.8-1.2-3.8c-0.5-0.3-0.7-0.2-0.8,0.4c-0.1,0.9-0.2,1.8-0.2,2.8
		c0,0.7-0.4,1-1,1.3c-0.1-0.1-0.2-0.2-0.2-0.3c-0.2-2.3,0.1-4.6,1.2-6.6c0.8-1.5,1.7-2.9,1.7-4.7c0-1.3,0.2-2.7,0.3-4.1
		c-0.3,0.2-0.5,0.3-0.7,0.5c-2.7,2.6-6.1,4.1-9.3,5.8c-2.2,1.2-4.8,1.8-7.2,2.3c-2.7,0.6-5.5,0.3-8.1-0.7c-3-1.1-5.8-2.7-8.4-4.6
		c-1.2-0.8-2.1-1.9-3.1-2.9c0.7-0.6,1.2,0,1.6,0.3c0.7,0.6,1.3,1.5,2.1,2c2.1,1.3,4.3,2.3,6.4,3.5c2.2,1.2,4.5,1.6,6.9,1.5
		c3.6-0.1,6.9-1.1,10.1-2.8c0.6-0.3,1.2-0.7,1.9-1.1c2.6-1.4,5.3-2.6,7.4-4.8c1.1-1.1,2.2-2.3,2.6-3.9c0.7-2.6,1.4-5.2,2.1-7.8
		c0-0.2,0.1-0.4,0.1-0.5c0-1.5,0-3,0-4.5c0-2.2,0.2-4.4-0.6-6.6c-0.4-1.1-0.3-2.4-0.6-3.5c-0.3-1.3-0.8-2.5-1.3-3.7
		C87.5,32,87,30.3,87,28.4c-0.1-3.9-2.2-5.4-5.2-6.9c-0.2-0.1-0.5-0.1-0.8-0.1c-1-0.1-2.1,0-3.1-0.2c-3.2-0.7-6.2-1.8-8.3-4.5
		c-0.3-0.3-0.7-0.6-1-0.9c-0.6-0.4-1.1-0.3-1.3,0.4c-0.1,0.3-0.1,0.7-0.1,1.1c0.4,1.9,0.7,4,2.1,5.5c0.4,0.4,0.2,0.8-0.3,0.9
		c-1.1,0.3-2.2-0.3-2.7-1.4c-0.2-0.5-0.5-0.9-0.8-1.3c-0.4-0.9-0.8-1.9-1.3-2.8c-0.2-0.5-0.5-1-0.8-1.3c-0.9-0.7-1.9-1.3-2.7-2.1
		C59.5,13.5,58.3,12.2,58,10.3z M14,121.3c-1.2,2.1-2.2,4.1-3.4,6c-2.3,3.7-4.1,7.6-5,11.9c-0.4,2-1,3.9-1.6,5.8
		c-0.5,1.5-1.3,2.8-1.7,4.3c-0.7,2.7-1.3,5.5-1.3,8.4c0,1.1,0.4,1.9,1.2,2.7c1.3,1.2,2.5,2.5,3.7,3.9c1.4,1.6,3.1,2.7,5,3.3
		c2.7,0.8,5.1,2.2,7.3,4c0.6,0.5,1.3,0.9,2,1.3c2.2,1.2,4.7,1.8,7.1,2.7c3.9,1.4,7.7,3.2,11.8,4.2c2.4,0.6,4.8,1.3,7.2,1.8
		c1.7,0.4,3.4,0.6,5.1,1c1.5,0.3,2.9,0.8,4.4,1.2c0.5,0.1,1,0.3,1.4,0.5c2.4,0.8,4.8,1.6,7.2,2.5c2.7,1,5.3,2.2,7.9,3.3
		c1.4,0.6,2.6,1.5,4.2,1.4c1-0.1,2-0.1,3-0.2c0.3,0,0.7-0.3,0.8-0.5c0.4-0.6,0.8-1.3,1.2-2c-1-0.2-2-0.4-2.9-0.7
		c-1.3-0.4-2.6-0.9-3.9-1.4c-0.4-0.2-0.8-0.6-1.3-0.5c-1,0-2,0.2-3,0.3c-0.3,0-0.5,0.1-1.1,0.2c0.3-0.5,0.4-1,0.6-1.1
		c1.5-0.2,2.8-1,4.4-0.6c1.8,0.4,3.5,0.8,5.4,0.5c1.2-0.2,2.5-0.2,3.7-0.3c1.5-0.1,3.1-0.2,4.6-0.4c0.3,0,0.7-0.4,0.8-0.7
		c0.2-0.7,0.2-1.5,0.3-2.4c-0.3,0-0.6-0.1-0.9,0c-2.4,0.5-4.9,0.3-7.3,0c-1.6-0.2-3.1-0.2-4.6,0.6c-0.3,0.2-0.8,0.1-1.1,0.1
		c1-1.3,2.3-1.7,3.7-1.7c2.6-0.1,5.1,0.1,7.7-0.1c1.8-0.1,3.6-0.5,5.5-0.8c-0.5-1.8,0.2-2.9,1.8-3.7c-2.4,0-4.5,0-6.7,0
		c-1.5,0-3,0.2-4.5,0.2c-2,0-3.8,0.3-5.4,1.7c-0.4,0.4-0.9,0.6-1.4,0.9c-0.1,0.1-0.4,0-0.5-0.1c0,0-0.1-0.3,0-0.4
		c1-0.9,1.8-1.9,2.9-2.5c1-0.5,2.2-1,3.4-0.7c0.6,0.1,1.2,0,1.8-0.2c2.2-0.8,4.5-1.6,6.7-2.4c0.3-0.1,0.7-0.6,0.8-0.9
		c0.2-0.9,0.3-1.8,0.4-2.8c0,0-0.1,0-0.2,0c-2.5,0.1-5,0.2-7.4,0.4c-0.7,0.1-1.3,0.6-2,0.9c-0.6,0.3-1.2,0.8-1.8,0.9
		c-2.9,0.1-5.8,0-8.5-1.2c-0.9-0.4-1.8-0.8-2.7-1.1c-0.4-0.1-0.9-0.2-0.7-0.7c0.1-0.2,0.7-0.3,1-0.2c0.8,0.2,1.6,0.6,2.4,0.9
		c1.2,0.4,2.4,0.6,3.6,1.1c1.5,0.5,3,0.4,4.5,0c0.6-0.2,1.2-0.7,1.8-1.1c-1-0.3-2.1-0.3-2.7-0.8c-0.6-0.5-0.6-1.5-1-2.4
		c-2,0.3-4.2-0.1-6.3-0.9c-1.5-0.6-2.9-0.6-4.4-0.5c-2,0.1-3.9,0.5-5.9,0.8c-1.9,0.3-3.7,0.7-5.4,1.9c-0.3,0.2-0.8,0.3-1.3,0.4
		c-2,0.1-3.9-0.2-5.8-0.9c-2.9-1.1-5.8-2.1-8.7-3.2c-2.4-0.9-4.7-1.8-6.7-3.5c-2-1.8-4.1-3.5-6.2-5.2c-0.5-0.4-1.1-0.9-1.7-1.1
		c-1.3-0.5-2.7-1-4-1.4c-0.2-0.1-0.4-0.1-0.6,0c-2.7,0.5-5.3,1-8,1.6c-1.2,0.3-2.4,0.7-3.6,1.2c0-0.9,0.4-1.3,1.1-1.5
		c1.7-0.6,3.3-1.2,5-1.6c1.8-0.5,3.7-0.8,5.6-1.1c0.8-0.1,1.2-0.4,1.4-1.1c1.1-3.9,2.4-7.6,4.3-11.1c0.2-0.4,0.3-1,0.3-1.5
		c0.1-1.3,0-2.6,0-3.8c0.1-1.5,0.4-3,0.5-4.4c0-0.2-0.1-0.4-0.1-0.6c-0.2-0.8-1-0.9-1.7-1.1c-3.8-0.9-7.5-2.3-10.8-4.6
		C14.5,121.5,14.2,121.4,14,121.3z M48.3,79.7c-0.1-0.1-0.2-0.1-0.3-0.2c-1.4,1.2-2.9,2.3-4.3,3.5c-0.2,0.2-0.3,0.5-0.3,0.8
		c0.2,1.5,0.4,3,0.9,4.4c0.9,3.1,2.8,5.8,4.7,8.4c1.1,1.4,2.4,2.7,3.8,3.8c3.2,2.4,7,3.5,10.7,4.7c0.5,0.2,1.1,0.3,1.6,0.2
		c1.8-0.3,3.6-0.6,5.3-1c3.7-0.7,7.3-1.6,10.5-3.9c3.5-2.6,6.9-5.1,8.8-9.2c1.3-2.8,2.7-5.5,2.9-8.6c0-0.3-0.1-0.8-0.3-1
		c-1.1-1-2.2-2-3.3-3c-0.2-0.2-0.4-0.2-0.7-0.3c-0.4,1.1-0.7,2-1,3c-0.3,1.2-0.3,2.5-0.8,3.6c-1.2,2.7-2.7,5.2-4.8,7.3
		c-2.2,2.2-4.7,3.9-7.5,5.3c-2,1-3.9,1.8-6.2,1.6c-1.9-0.2-3.9-0.2-5.8-0.6c-1.6-0.3-3.1-1.1-4.6-1.7c-1.7-0.7-3.2-1.7-4.4-3.1
		c-1-1.2-1.9-2.4-2.9-3.7c-1.6-2.1-2.4-4.5-2.3-7.2C48,81.6,48.2,80.6,48.3,79.7z M8,117.7c0.4,0.1,0.6,0.2,0.9,0.3
		c2.2,0.9,4.5,1.5,6.4,2.8c3.9,2.5,8.2,3.6,12.6,5c0.2-0.7,0.4-1.3,0.5-1.9c-3.1-2-6-4.1-9.1-5.8c-3.1-1.6-6.5-2.7-9.8-4
		C9,115.4,8.5,116.5,8,117.7z M125.9,119.6c-0.1-0.8-0.1-1.3-0.1-1.9c-0.1-1.2-0.4-1.4-1.6-1c-0.2,0.1-0.4,0.1-0.6,0.2
		c-1.6,0.8-3.5,0.8-4.8,2.2c-1.2-0.2-2,0.9-3,1.3c-2.5,1-5.1,1.9-7.6,2.9c-0.3,0.1-0.8,0.5-0.8,0.7c0,0.8,0.1,1.6,0.2,2.4
		c0,0.1,0.3,0.3,0.4,0.3c1.3-0.1,2.6,0.1,3.8-0.7c1.8-1.2,3.8-2,5.9-2.6c0.9-0.3,1.8-0.7,2.8-0.8c1.4-0.2,2.7-1,4-1.3
		C125.7,120.9,126.2,120.3,125.9,119.6z M90.7,54.8c0.7,0,1.4-0.2,2-0.1c0.5,0.1,1,0.6,1.4,0.9c0.3-0.9,0.7-1.9,0.9-3
		c0.3-1.3,0.8-2.7-0.2-3.9c-0.1-0.1,0.1-0.4,0.1-0.6c0.3,0.1,0.7,0.1,0.8,0.2c0.3,0.6,0.6,1.3,0.6,1.9c0.2,2.1-0.9,4-1.4,6
		c-0.2,0.7-0.6,1.2-0.9,1.9c0.1,0,0.4,0.1,0.6,0.3c0.1-0.2,0.2-0.3,0.3-0.4c1-1.7,1.9-3.5,3-5.2c0.2-0.4,0.6-0.8,1-1.1
		c0.6-0.5,1-1.1,0.9-1.9c0-0.5-0.1-1,0-1.4c0.1-1.1-0.1-2-1.1-2.6c-0.6-0.4-1.2-1.2-2.1-0.6c-1.7,1-3,2.6-4.3,4
		c-0.1,0.1,0,0.3,0,0.5c-0.2,0.9-0.3,1.9-0.5,2.8C91.4,53.2,91,53.9,90.7,54.8z M90.3,55.6c-0.3,1.3-0.6,2.6-1,3.9
		c-0.4,1.3-0.1,2.1,1.2,2.7c0.9,0.5,2,0.1,2.7-1c0.2-0.3,0.4-0.7,0.7-1c0.5-0.6,0.3-1-0.3-1.2c-0.8-0.3-1.1-0.9-0.7-1.7
		c0.1-0.2,0.2-0.5,0.2-0.7c0.1-0.9-0.2-1.2-1.1-1.1C91.4,55.6,91,55.6,90.3,55.6z M26.9,139.6c-0.2,0-0.3-0.1-0.5-0.1
		c-0.5,1.1-1,2.3-1.4,3.4c-0.7,2.1-1.3,4.2-2.1,6.3c-0.6,1.7-0.4,2.1,1.4,2.1c0.2,0,0.4,0,0.6,0c0.5,0,0.7-0.2,0.7-0.7
		c0.3-2.4,0.6-4.8,0.8-7.3C26.8,142.1,26.9,140.8,26.9,139.6z M39.8,57.8c0.1,0,0.1,0,0.2,0c0-1.4,0-2.7,0-4.1
		c0-1.2,0.5-1.9,1.8-2.2c-0.3-0.4-0.6-0.8-0.9-1.2c-0.7-0.8-2.1-1.2-2.8-0.6c-0.4,0.4-0.5,1.2-0.6,1.9c-0.1,0.5,0,1,0.2,1.5
		C38.3,54.6,39.1,56.2,39.8,57.8z M44.4,58.3c0-0.1,0-0.2,0-0.3c-0.8-1.5-1.4-3-1.4-4.7c0-0.7-1-1.2-1.5-0.8
		c-0.3,0.2-0.5,0.7-0.6,1.1c-0.1,1.5,0,3,0,4.5c0,0.9,0.6,1.6,1.4,2.2C42.8,58.4,42.8,58.4,44.4,58.3z M44.7,58.8
		c-0.5,0.4-1.1,0.6-1.2,0.9c-0.3,1.4-0.5,2.9-1.6,4.1c0.2,0.1,0.3,0.2,0.5,0.2c1,0.2,1.8-0.2,2.7-0.7c0.6-0.4,0.7-0.7,0.6-1.3
		C45.3,61.1,45,60.1,44.7,58.8z M78.4,165c0.1,0.4,0.2,0.6,0.2,0.8c0.2,1.3,0.5,1.6,1.8,1.5c0.5,0,0.9-0.2,1.4-0.3
		c0.7-0.2,0.6-0.7,0.5-1.2c-0.1-0.5-0.1-1.2-0.9-1.2C80.5,164.7,79.5,164.9,78.4,165z M37.7,48.6c2.5-0.7,3.9,0.7,5,2.6
		c0.1-0.3,0.2-0.3,0.2-0.4c0.2-1.6-0.9-2.4-2-3.1C39.7,46.8,38.5,47.1,37.7,48.6z M97.1,42.6c-2.1-0.1-3.2,0.9-4.1,3.7
		c1.3-1.1,2.4-2.4,4.3-2.6C97.2,43.3,97.1,43,97.1,42.6z M91.3,181.7c-0.9,0-1.6,0.3-1.5,1.3c0,0.5,0.2,0.9,0.4,1.4
		c0.4-0.2,1-0.2,1.3-0.5C92.1,183.1,91.8,182.4,91.3,181.7z M93.6,179.1c0.8,0,1.5-0.7,1.5-1.4c0-0.6-0.4-0.9-1-0.8
		c-0.7,0-1.3,0.6-1.3,1.3C92.8,178.7,93,179.1,93.6,179.1z M81.4,190.6c0.1,0.1,0.4,0.5,0.7,0.6c0.6,0.1,1.5-0.6,1.3-1.1
		c-0.1-0.3-0.4-0.8-0.8-0.9C82.1,189,81.4,189.7,81.4,190.6z M91.6,170.7c0.1,0.1,0.4,0.5,0.6,0.5c0.7,0,1.1-0.5,1.1-1.1
		c0-0.3-0.3-0.8-0.6-0.9C92.2,169,91.6,169.8,91.6,170.7z M41.3,63c1.2-1.2,1-1.8-0.7-2.9C40.9,61.1,41.1,62,41.3,63z"/>
	<path class="st0" d="M57.2,55c1.5-1.7,3.2-3.1,5-4.3c1.2-0.8,2.3-1.3,3.6-0.6c0.2,0.1,0.5,0,0.7-0.1c1.3-0.8,2.6-0.9,4-0.1
		c1.1,0.6,2.4,1,3.5,1.6c0.6,0.4,1.1,1.1,1.6,1.7c0.1,0.2,0.1,0.7-0.1,0.8c-0.9,0.8-1.8,1.6-2.8,2.2c-1.3,0.8-2.7,1.4-4.1,2
		c-0.7,0.3-1.5,0.5-2.2,0.4c-2.7-0.2-5.2-0.8-7.4-2.6C58.5,55.6,57.8,55.4,57.2,55z M58.8,54.6c0.1,0.1,0.2,0.1,0.3,0.2
		c0.8-0.4,1.6-0.9,2.3-1.3c1.4-0.8,2.9-1.6,4.6-1.5c2.6,0,5.1,0.2,7.5,1.1c0.3,0.1,0.6,0.1,0.9,0.1c0-0.1,0-0.2,0.1-0.2
		c-0.2-0.2-0.4-0.4-0.7-0.6c-1.3-0.7-2.7-1.5-4.1-2.2c-0.9-0.5-1.8-0.4-2.6,0.3c-0.3,0.2-0.9,0.4-1.2,0.3c-1.1-0.4-2.1-0.6-3,0.4
		c-0.1,0.1-0.3,0.2-0.4,0.3c-1.1,0.8-2.1,1.5-3.1,2.3C59.1,53.9,59,54.3,58.8,54.6z M73.5,54.2c-1.8-2.3-12.2-1.4-13.4,1
		C64.6,55.5,69,55,73.5,54.2z M60.4,56.2c0,0,0.1,0.2,0.3,0.2c0.6,0.3,1.2,0.6,1.9,0.8c3.9,1.6,7.2,0.1,10.4-2.1
		C68.7,55.6,64.6,55.9,60.4,56.2z"/>
	<path class="st0" d="M80.8,39.4c-0.2,0-0.3,0.1-0.5,0.1c-2.2-0.2-4.4-0.2-6.5-1.1c-1.1-0.5-2.1-1.2-2.5-2.4c-0.3-0.7,0-1.3,0.7-1.6
		c3.2-1.5,6.3-1,9.3,0.5c0.2,0.1,0.5,0.2,0.7,0.3c0.2,0.1,0.4,0.4,0.4,0.7c-1.7-0.6-3.4-1.5-5.2-1.9c-1.8-0.4-3.7-0.1-5.2,1.1
		c0,0.1,0,0.2,0,0.3c0.5,0,0.9,0,1.4,0c2.7-0.2,5.3,0.5,7.9,1.1c0.4,0.1,0.6,0.4,1,0.7c-0.4,0.2-0.8,0.6-1.2,0.5
		c-1.5-0.1-2.9-0.4-4.4-0.6c-1.5-0.2-2.9-0.4-4.4-0.4c1,1.4,2.4,1.7,3.9,2c1.4,0.2,2.7,0.3,4.1,0.4c0.2,0,0.4,0.1,0.5,0.2
		C80.8,39.2,80.8,39.3,80.8,39.4z"/>
	<path class="st0" d="M50.6,40.5c3.3,0.5,6.1-0.4,8.2-3.1c-1.7,0.4-3.5,0.9-5.2,1.3c-1.3,0.3-2.5,0.6-3.8,0.9
		c-0.2,0-0.5-0.2-0.8-0.2c0.1-0.2,0.2-0.6,0.4-0.7c1-0.4,2.1-0.6,3.1-1c2.2-0.8,4.4-1.2,6.9-1.6c-0.4-0.3-0.9-0.7-1.3-0.7
		c-2.3,0-4.5-0.1-6.4,1.5c-0.6,0.5-1.4,0.7-2.1,0.9c1.9-1.3,3.7-2.7,6.1-2.8c0.7,0,1.5-0.3,2.2-0.1c0.7,0.1,1.4,0.6,2,1
		c0.1,0,0.1,0.2,0.1,0.2c-0.2,0.6-0.4,1.2-0.7,1.7c-1.1,1.6-2.9,2.4-4.7,3.2c-0.3,0.1-0.7,0.2-1,0.2c-1,0-1.9-0.1-2.9-0.2
		C50.6,40.8,50.6,40.6,50.6,40.5z"/>
	<path class="st0" d="M64.4,44.9c-0.7,0.4-1.5,0.8-2.2,1.2c-0.9,0.5-2.4-0.2-2.7-1.3c-0.3-1.1,0.2-2.9,1.3-3.6
		c-0.2,0.5-0.5,1-0.7,1.5c-0.5,1-0.3,2.2,0.6,2.7c0.2,0.1,0.5,0.1,0.7,0.1c0-0.2,0.1-0.5,0-0.7c-0.4-0.6,0-0.9,0.5-1.2
		c1.1-0.6,2.7,0,3.3,1c0.2,0.3,0.8,0.7,1.2,0.6c0.4-0.1,1-0.5,1.1-0.9c0.5-1.3,1.6-2,2.9-1.7c0.7,0.2,1,0.7,0.9,1.4
		c0.1,0,0.1,0.1,0.2,0.1c0.3-0.3,0.7-0.6,0.8-1c0.5-1.7-0.1-3-2-3.5c0.1-0.1,0.1-0.2,0.2-0.3c0.4,0.1,0.7,0.1,1.1,0.3
		c1.6,0.7,1.8,3.8,0.8,4.7c-0.7,0.6-1.3,0.7-2,0.3c-1.1-0.5-1.7-0.5-2.5,0.3C66.7,46.4,65.4,46.3,64.4,44.9z"/>
	<path class="st0" d="M81.2,30.8c-0.3-0.1-0.5-0.1-0.7-0.2c-2.7-1.1-5.3-0.8-7.9,0.1c-0.6,0.2-1,0.7-1.5,1c-0.2,0.1-0.5,0.1-0.8,0.2
		c0-0.3-0.2-0.7,0-0.9c0.3-0.4,0.7-0.9,1.2-1.1c3.3-1.5,6.6-1.6,9.9-0.2c0.2,0.1,0.4,0.4,0.5,0.7C81.6,30.6,81.4,30.7,81.2,30.8z"/>
	<path class="st0" d="M59.5,31.2c-2.6-0.3-4.9-0.1-7.1,1c-0.4,0.2-0.9,0.2-1.4,0.4c-0.6,0.2-1.1,0.5-1.7,0.8
		c-0.2,0.1-0.4,0.1-0.7,0.2c0-0.2-0.1-0.6,0.1-0.7c0.3-0.3,0.7-0.7,1.2-0.8c1.7-0.6,3.4-1.2,5.2-1.6c1.2-0.3,2.5-0.2,3.8-0.3
		c0.2,0,0.5,0.1,0.7,0.3c0.1,0.1,0.2,0.4,0.2,0.6C59.8,31.1,59.5,31.2,59.5,31.2z"/>
</g>
</svg>
