<?xml version="1.0" encoding="utf-8"?>
<!-- Generator: Adobe Illustrator 19.2.1, SVG Export Plug-In . SVG Version: 6.00 Build 0)  -->
<svg version="1.1" id="Layer_1" xmlns="http://www.w3.org/2000/svg" xmlns:xlink="http://www.w3.org/1999/xlink" x="0px" y="0px"
	 viewBox="0 0 200 323" style="enable-background:new 0 0 200 323;" xml:space="preserve">
<style type="text/css">
	.st0{fill:#00BCD4;}
</style>
<g id="constipation-boy2">
	<path class="st0" d="M188.3,279.6c2.5,2.7,4.2,5.7,4.8,9.2c0.4,2.7,0.7,5.4,0.8,8.2c0,0.9-0.6,1.9-1.1,2.7
		c-0.5,0.9-1.2,1.7-1.9,2.5c-2.4,2.5-2.7,5.4-2.1,8.7c0.7,3.6,1.1,7.3,1.6,11c0,0.3,0,0.6-0.1,1c-0.7,0-1.4,0-2,0
		c-0.8-5.1-1.6-10.2-2.5-15.2c-0.1-0.1-0.2-0.2-0.3-0.3c-0.1,0.3-0.1,0.5-0.3,0.8c-1.5,2.1-3.3,3.9-5.8,4.9c-4.3,1.9-8.4,4.4-13,5.7
		c-3.3,0.9-6.7,0.9-10.1,0.6c-1.8-0.1-3.6,0.1-5.4,0.3c-1,0.1-1.9,0-2.1-0.9c-0.3-1,0.7-1.4,1.5-1.4c2.1-0.2,4.3-0.5,6.4-0.3
		c5.6,0.4,10.8-0.4,15.7-3.1c2.3-1.2,4.7-2.2,7-3.4c1-0.5,1.9-1.2,2.7-2c2.6-2.8,5-5.8,7.6-8.6c1.8-1.9,2.2-3.9,1.7-6.4
		c-0.4-1.7-0.6-3.5-0.9-5.2c-0.7-3.7-3.2-6.5-5.6-9.1c-1-1.1-2.9-1.7-4.5-1.9c-2-0.3-4.1,0.1-6.2,0.2c-0.3,0-0.8,0.4-0.8,0.7
		c0,0.4,0.2,1,0.5,1.2c4.9,2.4,7.5,7.3,6.8,12.6c-0.2,1.3-1.2,2.5-2.1,3.5c-1.1,1.2-2.5,2.2-3.8,3.2c-2.1,1.7-4,3.8-6.4,5.1
		c-4.8,2.7-9.9,2.9-15.2,1.4c-1.2-0.3-2.7-0.1-4,0.3c-1.6,0.4-3.1,1.1-4.6,1.7c-4.9,1.9-9.7,1.1-14.5-0.2c-2-0.5-3.9-1.2-5.8-1.9
		c-1.9-0.7-3.7-1-5.7-0.7c-3.6,0.7-7.1,0.2-10.7-0.6c-3.7-0.8-7.5-1.3-11.3-1.9c-3.8-0.6-7.6-1.1-11.5-1.6c-2-0.3-4-0.4-5.9-0.9
		c-5.8-1.5-10.7-4.6-15-8.8c-2.4-2.3-2.6-5.6-0.4-8.1c0.8-0.9,0.6-1.6-0.1-2.3c-1.1-1.2-4.1-1.9-5.5-1.3c-0.3,0.1-0.6,0.5-0.8,0.9
		c-1.6,2.1-3.1,4.2-4.7,6.2c-1.6,2-2.8,4.2-3.3,6.8c-0.3,1.4-0.1,2.7,0.6,3.9c0.9,1.6,1.8,3.2,2.6,4.8c2.3,4.6,5.8,7.7,10.9,8.8
		c4.8,1,9.2,3.3,13.7,5.2c0.9,0.4,1.8,0.6,2.8,0.6c6,0.3,11.9-0.9,17.8-1.9c2.1-0.4,4.4-0.1,6.5,0.2c1.6,0.2,3.2,0.9,4.9,1.2
		c2.9,0.6,5.4,1.8,7.7,3.6c1.4,1,3.2,1.5,4.8,2.3c0.6,0.3,1,0.8,1.4,1.3c-2.7,0.7-5.1,0.1-7.2-1.5c-2.4-1.8-5.1-3-8-3.6
		c-2.5-0.5-5.1-1.3-7.6-1.3c-2.8,0-5.6,0.9-8.5,1.3c-3.1,0.4-6.2,0.8-9.3,1.1c-3.4,0.4-6.3-0.9-9.4-2.2c-3.6-1.6-7.3-2.8-11-4.2
		c-2.2-0.9-4.4-1.9-6.7-2.9c1.1,2.4,0.6,5.1,0.7,7.7c0,1.6-0.1,3.1-0.2,4.7c0,0.9-0.5,1.3-1.4,1.2c-0.9-0.1-1.2-0.6-1.2-1.5
		c0.2-3.2,0.7-6.4,0.3-9.5c-0.5-3.4-2-6.6-3.1-9.9c-0.5-1.3-1.1-2.5-1.9-3.6c-1.6-2.3-1.8-4.8-1.2-7.5c0-0.2,0.1-0.4,0.1-0.9
		c-5.1-0.8-10.1-1.9-15.2-2.3c-7.4-0.5-14.2-3.1-20.7-6.4c-0.4-0.2-0.8-0.4-1.4-0.6c-0.3,3.9,0.1,7.6,1.1,11.3
		c1.5,5.4,4,10.4,6,15.6c1.8,4.6,3.5,9.2,5.7,13.6c0.2,0.4,0.3,0.9,0.4,1.4c-2.5,0.3-2.6,0.4-3.5-1.8c-1.7-4-3.3-8.1-5-12.2
		c-1.4-3.5-3.1-6.9-4.3-10.5c-1.1-3.1-1.8-6.4-2.5-9.7c-0.3-1.1-0.2-2.3-0.2-3.4c0-1.5,0-3,0-4.5c-2.5,0.6-3.7,0.1-4.6-2.3
		c-1.2-3-2.5-6.1-3.2-9.3c-1.2-5.4,1.4-10.6,6.2-13.5c1.7-1.1,3.3-2.5,4.8-3.9c0.4-0.3,0.6-1,0.6-1.6c0.2-6.9,0.4-13.7,0.6-20.6
		c0.1-3.6-0.1-7.3,0.1-10.9c0.2-4.1,0.7-8.1,1.2-12.1c0.8-6,1.7-12.1,2.6-18.1c0.5-3,1.1-6,1.7-9c1-4.8,2.2-9.6,3.1-14.5
		c0.4-2.2,0.3-4.6,0.7-6.8c0.8-5,1.8-9.9,2.6-14.9c0.3-1.6,0.2-3.2,0.2-4.8c0.2-4.6,2.2-8.8,3.2-13.2c1.3-5.9,4.1-11,6.6-16.4
		c1.4-2.9,2-6.1,3.3-9c3-6.6,6.3-13,11.4-18.4c2.9-3,5.4-6.3,8.1-9.5c0.6-0.7,1.4-1.3,2.3-2.1c-0.2-0.9-0.4-2.1-0.7-3.3
		c-1-3.2-0.5-6.5-0.5-9.8c0-1.2,0.6-2.3,2.1-2.6c0.2,0,0.6-0.5,0.6-0.9c0.4-7.3,0.8-14.6,1-21.9c0.2-6.7,2.1-13.1,7.1-18.1
		c1.7-1.7,3.2-3.8,5.1-5.4c4-3.3,8.8-5.2,13.8-6.5c4.8-1.2,9.8-2.1,14.8-1.4c3.1,0.4,6.1,1.5,9.1,2.5c2,0.7,4.1,1.4,5.8,2.6
		c1.9,1.4,3.5,3.3,5.3,4.9c0.9,0.8,1.8,1.5,2.6,2.4c1.2,1.3,2.4,2.5,3.3,3.9c1,1.5,1.5,3.2,2.4,4.7c1.2,2.2,1,4.7,1.3,7.1
		c0.3,2.2,0.6,4.5,0.9,6.8c0.2,1.2,0.4,2.3,0.4,3.5c0.1,4.5,0.2,9.1,0.3,13.6c0,0.8-0.2,1.6-0.3,2.1c0.8,0.7,1.3,1.2,1.9,1.7
		c0.6,0.5,1.2,1.1,1.9,1.5c3.1,1.6,6.2,3.1,9.2,4.8c2.6,1.5,5,3.2,7.5,4.8c0.8,0.5,1.7,0.9,2.5,1.4c0.5,0.3,1.1,0.5,1.5,0.9
		c3.2,3.1,7,5.7,9.4,9.6c0.4,0.7,0.9,1.5,1.4,2.2c1.9,2.7,3.9,5.4,5.8,8.1c1.1,1.7,2,3.5,3,5.2c4.1,7.1,6.9,14.7,9.5,22.5
		c1.6,4.9,3.1,9.8,4,14.8c0.7,3.8,1.1,7.5,1.7,11.3c0.4,2.6,0.9,5.3,1.4,7.9c0.9,4.9,1,9.8,0.5,14.7c-0.4,3.7-0.9,7.4-1.3,11.2
		c-0.5,3.8-0.8,7.7-1.4,11.5c-1.2,7.5-4.3,14.3-7.3,21.2c-1.2,2.8-3.1,5.4-4.7,8c-1.1,1.7-2.3,3.4-3.4,5.1c-0.3,0.4-0.2,1.1-0.3,1.6
		c-1.1,5.1,0.8,9.6,3.1,14c1.1,2,1.8,4.3,2.7,6.4c0.3,0.6,0.8,1.2,1.3,1.5c1.3,0.7,2.6,1.4,4,1.9c6.2,2.4,9.9,6.9,11.2,13.3
		c0.3,1.6,0.5,3.1,0.7,4.7c0.1,1.3-0.6,2.1-1.9,2.5c-0.3,0.1-0.8,0.5-0.9,0.8c-0.6,3.6-2.9,5.9-5.8,7.8
		C190.5,278,189.5,278.8,188.3,279.6z M42.1,230c0.7-0.5,1.1-0.7,1.4-1c1.9-1.5,3.7-3,5.6-4.4c2.7-2,5.6-3.4,9.1-3.3
		c3,0.1,6-0.1,8.9-0.2c6.8-0.2,13.7-0.2,20.3-2.4c0.5-0.2,1.2-0.1,1.7,0.1c0.4,0.1,0.7,0.6,1,0.9c-0.3,0.3-0.6,0.8-1,0.9
		c-5.1,1.5-10.3,2.4-15.7,2.5c-5.3,0.1-10.6,0.1-15.9,0.4c-1.7,0.1-3.5,0.6-4.9,1.4c-3.6,2.3-7,4.8-10.5,7.3
		c-0.2,0.2-0.5,0.6-0.5,0.9c-0.1,1-0.1,2.1-0.1,3.2c-0.1,4.9,0,9.8-1.7,14.5c-0.6,1.5-0.5,3.3-0.7,5c-0.1,0.8,0.4,1.2,1.1,1.2
		c1.9,0.1,3.6-0.2,4.8-1.7c1.7-1.9,3.5-3.7,5-5.8c2.5-3.7,5.4-7,9-9.5c1.1-0.8,2.3-1.7,3.5-1.9c5.9-1,11.9-1.7,17.8-2.6
		c5.4-0.7,10.7-0.1,15.9,0.9c3.9,0.7,7.3,2.7,10.7,4.7c1.9,1.2,3.3,2.8,4,5c0.5,1.5,1.2,2.9,1.8,4.5c0.5-0.5,1-1,1.5-1.4
		c2.8-2.9,5.6-5.8,8.4-8.6c4.9-4.8,10.9-6.9,17.7-7c2.6,0,5.3-0.3,7.8,0.1c3.6,0.7,7.1,2,10.2,4.1c1.1,0.7,2,1.6,3.1,2.4
		c-2.8-9.4-5.6-18.6-8.4-28.1c-1.4,1.1-2.6,1.8-3.6,2.7c-2,1.9-4.2,3.4-6.7,4.5c-2.6,1.1-5,2.7-7.5,4c-1.3,0.7-2.7,1.2-4.2,1.6
		c-0.3,0.1-0.8-0.5-1.3-0.8c0.3-0.4,0.5-0.9,0.9-1.1c1.2-0.6,2.4-1.1,3.6-1.7c1.9-1,3.8-2.1,5.8-3.2c2-1.1,4.2-2.1,6.1-3.4
		c2.1-1.5,3.9-3.3,6-5c-1.2-3.7-1.9-7.6-1.7-11.5c0-0.4-0.1-0.9-0.2-1.3c-1.6-6-3.3-11.9-3.8-18.1c0-0.4-0.2-0.7-0.4-1.1
		c-0.8,2.7-1.3,5.4-1.9,8c-0.9,4-1.8,8.1-3,12c-2.1,6.7-6.7,12.1-10.1,18.1c-0.2,0.3-1,0.4-1.5,0.5c-0.1-0.5-0.4-1.2-0.2-1.5
		c0.9-1.8,1.8-3.6,3-5.2c3.6-4.8,6.2-10.1,7.8-15.8c1.2-4.5,2-9.2,2.9-13.7c0.8-3.9,2.1-7.6,2.1-11.7c0-2.8,0.9-5.6,2.1-8.3
		c1.1-2.7,1.8-5.5,2.5-8.4c0.6-2.7,0.7-5.4,1.2-8.1c1.2-6,2.5-12,3.7-18c0.4-2,1-4.1,1.6-6.3c1.2,1.1,0.9,2.1,0.7,3.1
		c-0.3,1.5-0.7,2.9-1,4.4c-0.6,3.7-1,7.4-1.7,11.1c-0.7,3.8-1.6,7.6-2.1,11.4c-0.5,4.1-1.4,8.1-2.9,12c-1.6,4.1-2.9,8.2-1.3,12.6
		c0.3,0.7,0.3,1.5,0.4,2.3c0.4,2.5,0.8,5,1.1,7.5c0.5-0.4,0.7-0.8,0.8-1.2c0.7-2.1,1.4-4.1,2.1-6.2c0.9-2.8,1.7-5.6,2.6-8.3
		c0.1-0.3,0.6-0.7,0.8-0.7c0.3,0,0.8,0.5,0.8,0.8c0,0.8,0,1.7-0.2,2.4c-1.7,5.4-3.4,10.7-5.1,16.1c-0.6,1.8-0.4,3.5,0.2,5.2
		c0.7,1.9,1.3,4,1.3,6c-0.1,5.1,1.4,9.8,2.8,14.6c1.7,5.7,3.4,11.4,5.1,17.1c0.5,1.6,1,3.3,1.5,4.9c1.2-0.2,2.3-0.3,3.3-0.6
		c2.7-0.9,5.3-1.9,7.9-2.9c0.3-0.1,0.7-0.7,0.7-1c0.2-1.6,0.4-3.2,0.4-4.8c0.1-3.5,0.5-7,0.3-10.4c-0.5-6.4-1.6-12.7-2.2-19
		c-0.5-5.8-0.6-11.6-1-17.4c-0.1-2.2-0.4-4.4-0.8-6.5c-1-5.4-2.2-10.9-3.2-16.3c-0.6-3-0.9-6.1-1.3-9.2c-0.3-2.4-0.3-4.9-0.6-7.3
		c-0.3-2.4-0.7-4.9-1-7.3c-0.7-4.6-1.2-9.3-2-13.9c-0.5-2.9-1.2-5.7-3.6-7.7c-0.3-0.2-0.4-0.6-0.6-0.9c-1.6-3.5-4.7-5.2-7.9-6.8
		c-3.8-2-7.9-3.1-12.1-3.8c-1.9-0.3-3.8-0.8-5.7-1.2c-0.7-0.1-1.2,0.1-1.4,0.9c-0.3,1.6-0.6,3.2-1.1,4.8c-2.4,7-7.4,11.9-13.5,15.6
		c-4.5,2.7-9.5,4.7-14.8,5c-3.2,0.2-6.6,0.3-9.7-0.4c-6.1-1.4-11.4-4.9-16.2-8.7c-5.1-4-7.2-10.2-9.7-15.9c-0.3-0.7-0.6-1.1-1.3-1
		c-2.4,0.2-4.7,0.4-7.1,0.7c-1.4,0.2-2.8,0.4-4.2,0.6c-4,0.6-7.6,2.6-11.4,4c-0.9,0.3-1.7,1-2.4,1.7c-2.3,2.4-4,5.3-5.4,8.3
		c-1.6,3.5-3.5,6.9-4.3,10.7c-0.5,2.3-1.3,4.5-1.9,6.8c-0.5,1.9-0.9,3.8-1.2,5.7c-0.5,3.3-0.9,6.6-1.4,9.8c-0.3,2.4-0.8,4.8-1.1,7.3
		c-0.5,3.9-0.8,7.9-1.5,11.8c-1,5.4-2.3,10.7-3.4,16c-0.6,2.7-1.1,5.4-1.5,8c-0.6,3.9-1,7.8-1.5,11.7c-0.8,5.6-1.9,11.3-2.3,16.9
		c-0.4,6.6-0.3,13.2-0.4,19.8c0,0.5,0,1,0,1.5c5.6-0.3,10.9,0.4,16.2,1.1c2.5,0.3,5,0.6,7.5,0.8c0.6,0.1,1.2,0.1,1.2-0.9
		c0.2-3.8,0.4-7.6,0.8-11.4c0.4-3.6,0.8-7.3,1.7-10.8c1.2-4.5,2.3-9,2.1-13.7c0-0.4,0.2-0.8,0.2-1.2c0-3.4,1.6-6.7-0.7-10.1
		c-3.2-4.6-3.7-10.4-5.4-15.6c-1.2-3.8-1.4-8-2.4-11.9c-1.2-4.7-0.9-9.4-0.7-14.2c0-0.3,0.5-0.6,0.7-1c0.2,0.3,0.6,0.7,0.6,1
		c0.1,1.8,0.3,3.6,0.3,5.4c0,5.1,1.1,10.1,2.2,15c1.2,5.3,2.9,10.4,4.4,15.6c0.3,1,0.8,2,1.3,3c0.6-3.4,1-6.7,1.4-10.1
		c0.5-4.2,0.8-8.4,1.4-12.5c0.4-2.8,1.1-5.5,1.4-8.3c0.2-1.8-0.4-3.6-0.4-5.4c0-4.9-0.3-9.8,0.3-14.5c0.3-2.5,0-4.3-1-6.5
		c-2.4-5.1-4.5-10.4-6.6-15.6c-0.2-0.5-0.2-1.2-0.1-1.8c0-0.2,0.4-0.5,0.6-0.5c0.2,0,0.5,0.4,0.6,0.6c0.2,0.5,0.2,1.1,0.4,1.6
		c1.9,4.3,3.8,8.5,5.7,12.8c0.6,1.2,1.2,2.4,1.9,3.9c0.4-1.7,0.6-3.1,1.2-4.3c1.6-3.8,1.6-8,2.7-11.9c0.1-0.4,0.5-0.7,0.7-1.1
		c0.2,0.4,0.7,0.8,0.6,1.1c-0.4,3.2-0.6,6.3-1.3,9.4c-0.7,3.4-1.9,6.7-2.8,10c-1.5,5.6-0.8,11.3-0.5,17c0.2,2.6,0.4,5.3,0.1,7.9
		c-0.4,3.6-1.4,7.2-2,10.8c-0.5,3.2-1.2,6.4,0.3,9.8c2,4.5,3.4,9.2,5.4,13.7c2.5,5.5,5.3,10.9,7.9,16.3c0.2,0.4-0.1,1-0.2,1.5
		c-0.5-0.2-1-0.2-1.5-0.5c-0.2-0.1-0.4-0.5-0.5-0.8c-0.4-0.9-0.9-1.9-1.3-2.8c-2.3-4.8-4.7-9.5-6.8-14.3c-1.6-3.7-2.9-7.6-4.4-11.4
		c-0.4,2.3-0.6,4.5-0.7,6.8c-0.1,2.6-0.1,5.1-0.3,7.7c-0.2,3.2-0.4,6.5-0.6,9.7c0,0.3,0,0.6-0.1,1c-1,4.8-2.1,9.7-3.1,14.5
		C42.6,225.8,42.4,227.7,42.1,230z M87.2,22.8c-0.6,0-1.1,0-1.7,0c-8.8-0.1-13.6,4.5-16.7,12.1c-1.7,4.3-2.6,8.9-3.8,13.3
		c-0.4,1.6-0.8,3.2-0.8,4.8c0.1,1.9,0.7,3.8,1.1,5.7c0.2,1.3,0.2,2.6,0.5,3.9c1.3,5.3,2.5,10.6,4.1,15.8c1.1,3.6,2.7,7,3.8,10.6
		c1.1,3.5,3.4,6,6.1,8.2c4.8,3.9,10.3,5.9,16.5,6.3c4,0.3,7.8,0,11.4-2c2.9-1.6,5.8-3.1,8.7-4.7c0.9-0.5,1.9-1.1,2.5-1.9
		c3.2-5,5.8-10.3,7.3-16.1c1.2-4.8,2-9.8,2.9-14.7c0.4-2,0.9-4.1,0.9-6.2c-0.2-5-0.7-9.9-1-14.9c-0.2-3.4-0.9-6.6-2.7-9.5
		c-0.2-0.3-0.3-0.6-0.4-0.9c-0.4-2.4-1.6-4.3-3.7-5.7c-2.6-1.8-5.2-3.6-8.6-3.2c-0.9,0.1-1.8,0.1-2.7,0c-1.4-0.1-1.9,0.7-2.1,1.8
		c-0.2,1.1-0.2,2.3-0.4,3.4c-0.2,2-1.2,2.6-3,1.7c-1.5-0.7-2.9-1.7-4.4-2.5c-2.2-1.2-4.5-2.2-6.5-3.8c-1.8-1.4-3.6-1.9-5.7-1.7
		C88.4,22.8,87.8,22.8,87.2,22.8z M122.3,95.6c2-0.2,4-0.3,5.9-0.4c3.2-0.2,6.3,0.1,9.5,1c3.3,1,6.8,1.4,10,2.6
		c3.9,1.4,7.6,3.2,10.5,6.2c1.1,1.1,1.6,2.8,2.7,3.9c3.1,3,3.6,7.1,4.4,11c0.8,3.8,1.1,7.7,1.6,11.6c0.4,3.1,0.9,6.1,1.2,9.2
		c0.3,2.8,0.5,5.5,0.8,8.3c0.4,3.5,0.9,7,1.5,10.4c0.7,3.8,1.9,7.6,2.5,11.4c0.8,5.4,1.2,10.9,1.7,16.4c0.5,5.6,0.6,11.3,1.2,17
		c0.4,4.7,1.2,9.4,1.9,14.2c1-1.6,2.1-3.2,3-4.8c4.2-7.5,7.6-15.3,9.3-23.7c0.6-2.7,1-5.5,1.4-8.3c0.5-3.8,0.9-7.6,1.3-11.4
		c0.3-2.8,0.7-5.5,0.8-8.3c0.3-5-0.7-9.8-1.4-14.7c-0.9-6.2-2-12.4-3.3-18.5c-0.6-3-1.4-5.9-2.5-8.7c-0.9-2.5-2.3-4.7-3.5-7.1
		c-0.7-1.3-1.4-2.5-2.1-3.8c-0.9-1.6-1.9-3.1-2.8-4.6c-1.9-3-3.7-6.2-5.8-9.1c-2.3-3.2-4.6-6.5-7.3-9.4c-3.4-3.6-7.3-6.7-10.8-10.2
		c-4.7-4.8-10.5-7.8-16.4-10.7c-0.2,1.5-0.3,3.1-0.7,4.6c-0.6,2.2-1.5,4.4-2.1,6.6c-1.2,4.1-3,5.7-7.2,6.3c-0.3,0-0.8,0.5-0.9,0.9
		c-1,2.1-1.8,4.3-2.8,6.5C123.1,91.7,122.2,93.5,122.3,95.6z M84.7,236.8c-5.5,0.6-11.1,0.9-16.6,1.8c-2.8,0.4-5.8,0.4-8,2.8
		c-1.7,1.9-3.9,3.4-5.5,5.3c-2.6,3-4.9,6.2-7.4,9.4c-0.7,0.8-1.3,1.7-1.8,2.7c-2.3,4.1-2.2,8.7-2,13.2c0,0.7,0.4,1.7,1,2
		c0.8,0.5,1.9,0.7,2.8,0.9c1.7,0.3,3.5,0.4,5.1,1c2.1,0.8,4.3,0.9,6.5,0.8c0.9,0,1.7,0,2.6,0c2,0.1,3.7,0.9,4.6,2.6
		c1.3,2.5,3.5,3.3,6,3.8c2.8,0.6,5.7,1,8.6,1.6c3.3,0.7,6.6,1.9,10,2.2c6.2,0.6,12.5,0.7,18.8,1.1c3.3,0.2,5.1-2.8,5.4-5.6
		c0.2-2.1,0-4.3,0.6-6.2c0.7-2.3,1.1-4.6,0.9-7c-0.3-3.2-0.4-6.5-1.9-9.6c-1.5-3.2-2.6-6.6-3.9-9.9c-0.8-2.1-1.2-4.5-3.2-5.9
		c-2.2-1.5-4.6-3-7.1-4.1C95.3,237.5,90.1,237,84.7,236.8z M143.5,235.4c-8.5-0.3-15.5,2-21,8c-2.6,2.8-5.2,5.4-7.8,8.1
		c-0.9,0.9-0.9,1.5-0.5,2.6c1.1,2.5,2.5,5,3.1,7.7c0.8,3.9,0.8,7.9,1.2,11.8c0.1,0.8,0.5,1.8,1.1,2.2c1.3,0.9,2.8,1.4,4.1,2.2
		c2.2,1.3,4.6,2.3,5.9,4.7c0.4,0.7,0.9,0.8,1.7,0.6c2.7-0.8,5.5-1.3,8.2-2.1c2.8-0.8,5.5-1.5,8.4-1.6c1.1,0,1.9,0.3,2.4,1.4
		c0.6,1.2,1.3,2.3,2.1,3.4c0.2,0.3,0.6,0.7,0.9,0.7c1.3,0.1,2.6,0.2,3.8,0c3.3-0.7,6.5-1.5,9.8-2.5c1.4-0.4,2.7-1.2,3.9-1.9
		c0.3-0.2,0.7-0.8,0.7-1.1c-0.4-4.3-0.8-8.6-1.3-12.9c-0.1-1.1-0.9-2.1-1-3.2c-0.6-4.3-1.1-8.6-1.8-12.9c-0.2-1.1-0.7-2.2-1.3-3.1
		c-2.3-3.5-5.7-6-9.1-8.2C152.8,236.5,148.2,234.8,143.5,235.4z M121.7,292.3c1.6,2.2,2.9,4.5,4.7,6.3c2.5,2.5,5.3,4.6,8,6.9
		c0.1,0.1,0.3,0.1,0.4,0.1c3.2,0.4,6.3,0.7,9.4-0.7c1.3-0.6,2.6-1.1,3.9-1.5c2.4-0.8,4.7-1.8,7.2-0.2c0.3,0.2,0.6,0.2,1.2,0.3
		c-3.1-3.5-6.1-6.8-9-10.2c-2.7-3.1-4.9-6.5-5.6-10.8c-3.1,0.8-6.2,1.8-9.4,2.4c-2.6,0.5-4.9,1.4-6.5,3.6c-0.1,0.2-0.4,0.3-0.5,0.4
		C124.3,289.9,123.1,291,121.7,292.3z M73.9,96.2c0.2,0.5,0.2,1.1,0.5,1.5c1.5,2.5,2.9,5,4.6,7.3c2.7,3.6,5.6,7.1,10.2,8.4
		c3.2,0.9,6.6,1.3,9.9,1.9c1.4,0.2,2.9,0.5,4.2,0.2c5.4-1.3,10.7-3,14.9-6.9c2.9-2.7,4.2-6.3,5-10.1c-1.2-0.3-2.2-0.7-3.3-1
		c-3.6,2-7.3,4.1-11.1,6.1c-1.6,0.8-3.3,1.6-5,1.9c-10.2,1.6-19.3-0.7-26.7-8.2C76.2,96.3,75.3,95.8,73.9,96.2z M8.5,267.6
		c-0.1,0.2-0.1,0.3-0.2,0.5c1.6,1.4,3.1,3.2,5,4.2c4.5,2.3,9,4.7,14.2,5.3c3.3,0.3,6.5,1.5,9.7,1.9c5.2,0.6,10.5,0.7,15.7,1.2
		c1.6,0.2,2-0.5,2.6-1.8c-2.3-0.6-4.5-1.1-6.6-1.6c-2.7-0.7-6-0.3-7.6-3.5c0-0.1-0.1-0.1-0.2-0.2c-1.4-0.6-1.7-1.9-1.9-3.2
		c-0.1-0.9-0.2-1.7-0.2-2.6c-0.1-1.2-0.7-1.8-1.9-1.8c-1,0-2-0.2-2.9-0.6c-1.1-0.5-2.1-0.8-3.3-0.8c-4.1,0-8.2-0.2-12.4-0.2
		c-0.7,0-1.4,0.3-2.1,0.5c-1,0.4-2,0.8-3,1.2C11.7,266.6,10.1,267.1,8.5,267.6z M108.8,290.2c-4.6-0.2-8.8-0.4-13.1-0.6
		c-3.1-0.1-6.2-0.4-9.2-1.3c-2.2-0.7-4.6-1.2-6.9-1.6c-4.7-0.9-9.6-1.2-13.8-3.8c-2.2,2.8-2,4.7,0.8,6.9c0.4,0.3,0.9,0.7,1.3,1
		c4.1,3.6,8.8,5.9,14.1,6.9c2.8,0.5,5.7,0.8,8.5,1.1c1.4,0.1,2.9,0.6,4.1,0.2C99.9,297.2,104.6,294.4,108.8,290.2z M20.4,261
		c0.9,0.2,1.5,0.4,2.1,0.5c3,0.8,5.9,1.2,8.8-0.4c0.7-0.4,1.6-0.8,2.4-1c0.3-0.1,1,0.1,1.1,0.4c0.2,0.3,0,0.9-0.2,1.2
		c-0.2,0.3-0.7,0.5-1.1,0.8c1.2,1.2,2.4,1.8,4.1,1.6c1.2-0.1,2.1,0.2,2.5,1.5c0.2,0.7,0.6,1.3,0.9,1.9c0.2-2.1,0.5-4.2,0.7-6
		c-1.5-1.4-3-2.7-4.5-4.2c-0.2-0.2-0.2-0.7-0.2-1c0-1,0-2,0-3.1c-0.7-0.2-1.4-0.4-2.1-0.5c-3-0.6-6-1.5-9.1-1.7
		c-4-0.3-7.8,1-11.6,2.1c-0.7,0.2-1.5,0.4-2.1,0.9c-1.8,1.3-3.6,2.7-5.4,4.2c-2.7,2.2-4.8,4.9-4.6,8.6c0.1,1.7,0.4,3.4,0.8,5
		c0.6,2.3,1.6,4.4,3.1,6.4c0.5-1.9,0.2-10.4-0.4-12c-0.4-1.1-0.1-2,0.8-2.8c2.4-2.2,5-4.3,6.8-6.9c2.8-3.9,6.5-4.5,10.7-4
		c0.4,0,0.8,0.7,1.2,1.1c-0.5,0.3-0.9,0.7-1.4,0.7c-1.1,0.1-2.2-0.1-3.3-0.2c-2.3-0.2-3.9,1.2-5.4,2.8c-2.3,2.5-4.7,5-7.1,7.5
		c-0.3,0.3-0.5,0.7-0.8,1.1c0.6,0.1,1.2,0.3,1.7,0.2c1-0.3,2-0.8,3.1-1.1c3-0.6,5.3-2.2,6.9-4.8c0.4-0.6,0.7-1.2,1.2-1.7
		c0.3-0.3,0.9-0.2,1.3-0.3c0.1,0.5,0.3,1.1,0.1,1.5C21.4,259.7,20.9,260.3,20.4,261z M67.9,97.4c1.7,3.3,3.3,6.7,5.1,9.9
		c1,1.7,2.2,3.4,3.6,4.8c1,1.1,2.4,1.9,3.7,2.7c2.7,1.7,5.4,3.4,8.2,4.8c1.5,0.8,3.2,1.4,4.9,1.6c4.2,0.6,8.3,0.6,12.4-0.7
		c4.7-1.5,9.5-2.5,13.4-6.1c3.2-2.9,6.4-5.8,8.1-9.8c1-2.3,1.4-4.8,2.1-7.2c-1.2,0-2.3,0-3.2,0c-1,2.7-1.6,5.3-2.9,7.6
		c-1.1,2.1-2.6,4.1-4.4,5.7c-2,1.8-4.4,3.2-6.9,4.3c-3.6,1.5-7.2,3.1-11.3,2.7c-2-0.2-4.1-0.3-6.1-0.6c-7.3-0.9-13-4.5-17.2-10.5
		c-2.4-3.4-4.4-7-6.6-10.6c-0.6,0.2-1.5,0.5-2.3,0.8C68.4,96.9,68.3,97,67.9,97.4z M173.8,281c-6,4.1-12.7,5.2-19.7,6.2
		c4.4,5.2,8.5,10.7,14.9,13.4c2.8-2.2,5.5-4.2,8.1-6.5c0.9-0.8,1.7-2.1,1.8-3.2C179.2,286.6,177.3,283.3,173.8,281z M46.7,98.6
		c0.4,0.1,0.5,0.1,0.6,0.1c4.2-1.5,8.5-2.5,13-2.5c2,0,4-0.2,5.9-0.7c2.4-0.6,4.7-1.9,7.3-1.5c-1.6-4.2-3-8.3-4.6-12.3
		c-0.1-0.3-0.7-0.6-1.1-0.6c-2.4-0.3-4.7-0.7-6-3.2C56.9,84.8,51.8,91.7,46.7,98.6z M195.6,256.9c-0.8-2-2.1-3.4-3.7-4.3
		c-2.7-1.5-5.5-2.7-8.2-4.2c-1.1-0.6-1.8-1.7-2.8-2.5c-0.4-0.3-0.9-0.7-1.3-0.7c-1.3,0-2.6,0.2-4,0.2c-2.8,0-5.6,0-8.4,0
		c0.4,0.6,1,1.3,1.2,2.1c0.5,1.8,0.9,3.6,1.2,5.4c0.4,2.6,1.1,5,2.8,6.9c0.6,0.7,1.4,1.5,2.2,1.7c1.1,0.2,2.6,0.3,3.4-0.3
		c1.2-1-0.3-2-0.7-3c-1-2.2-2-4.4-2.9-6.6c-0.1-0.3,0.3-0.8,0.5-1.2c0.4,0.2,0.8,0.3,1.1,0.6c0.2,0.2,0.3,0.6,0.4,1
		c0.9,3.1,1.7,3.5,4.9,2.8c1.1-0.2,2.4-0.3,3.3,0.1c2.4,1.1,4.7,2.6,7,4c0.7,0.4,1.2,1.1,2,1.4c0.5,0.2,1.1-0.1,1.7-0.1
		c-0.1-0.5-0.2-1-0.4-1.4c-0.2-0.3-0.5-0.5-0.8-0.7c-1.9-1.5-3.9-3-5.7-4.6c-0.3-0.2-0.3-0.8-0.4-1.1c0.3,0.1,0.8,0,1,0.2
		C191.2,253.8,193.3,255.3,195.6,256.9z M52.4,282.8c-2.7-0.3-5.3-0.7-7.9-0.8c-4.9-0.3-9.9-0.6-14.7-1.9c-3.6-1-7.5-0.9-10.9-2.8
		c-3.1-1.7-6.6-2.6-9.2-5.1c-0.4-0.4-0.8-0.7-1.2-1.1c0,2.1,0,4.1,0,6.1c0,0.3,0.3,0.8,0.6,0.9c2.7,1.2,5.5,2.4,8.2,3.6
		c4.8,2.3,9.8,3.3,15.1,3.9c5.5,0.6,10.9,1.6,16.4,2.4C49.9,286.4,51.1,284.7,52.4,282.8z M171.2,261.5c-0.1,0-0.3,0.1-0.4,0.1
		c1.8,4,2.4,8.2,2.4,12.5c6.7,0.6,17.7-6.5,19.5-12c-1.2-1-2.3-2.2-3.6-3c-2.4-1.4-4.8-3.1-7.9-2.6c-2,0.3-2.1,0.5-1.3,2.3
		c0.7,1.7,0,3.8-1.6,4.2c-1.9,0.5-3.8,0.7-5.5-0.6C172.3,262.2,171.7,261.9,171.2,261.5z M14.2,240.7c0,3.3,0,6.2,0,9.1
		c0,0.7,0.2,1,1,0.7c1.2-0.4,2.5-0.6,3.7-0.9c3.1-0.7,6.2-1.3,9.3-0.6c2.6,0.6,5.3,1,7.8,1.7c1.4,0.4,1.8-0.1,2-1.3
		c0.4-2.1,0.9-4.2,1.3-6.1c-4.2-0.6-8-1.1-11.9-1.5C23.2,241.3,18.9,241.1,14.2,240.7z M181.6,107c0.1-0.1,0.2-0.1,0.3-0.2
		c-0.1-0.3-0.1-0.6-0.3-0.9c-2-4-4-8-6-12.1c-0.5-0.9-0.8-1.9-1.4-2.8c-1.5-2-3.1-3.9-4.6-5.9c-1.8-2.5-3.3-5.1-5.1-7.6
		c-2.4-3.4-5.6-5.9-9.3-7.9c-0.7-0.4-1.3-0.9-2-1.4c-1.6-1.1-3.3-2.3-5-3.4c-1.5-1-3.1-1.8-4.8-2.7c-2-1.1-4.1-2.1-6.3-3.2
		c0.1,1.5,0.2,2.6,0.3,3.8c2.5,1.2,5,2.5,7.4,3.8c1.6,0.8,3.2,1.6,4.5,2.8c3.1,2.5,6,5,8.9,7.7c3.7,3.5,7.7,6.8,10.9,10.8
		c4,5,7.2,10.6,10.7,16C180.6,104.9,181,106,181.6,107z M105.2,300.8c0.4-0.4,0.6-0.8,1-1c1.2-0.9,2.4-1.8,3.8-2.5
		c5.2-2.7,10.3-5.7,14.3-10.2c0.8-0.9,1.9-1.6,2.7-2.5c0.3-0.4,0.5-1.4,0.2-1.6c-1-1-2.2-1.8-3.5-2.8c-0.7,3-2.7,4.2-4.7,5.5
		c-3.2,2-6.3,4.3-9.4,6.5c-2.7,1.9-5.4,3.9-8.1,5.7c-1,0.7-2.1,1.1-3.2,1.8C100.6,300.1,102.9,300.4,105.2,300.8z M167,302.2
		c-0.2-0.2-0.2-0.3-0.3-0.4c-3.1-2.1-6.2-4.2-8.8-7.1c-3.1-3.5-5.9-7.2-8.3-11.2c-1.3-2.2-1.7-2.5-4.2-2c-0.5,0.1-1.1,0.2-1.7,0.4
		c0.1,0.7,0.1,1.5,0.4,2c1.3,2.3,2.5,4.7,4.2,6.8c2.7,3.4,5.7,6.5,8.7,9.7c1.1,1.2,2.4,2.7,3.8,3C162.8,303.8,165,303.3,167,302.2z
		 M162.9,236.5c0.6,1.5,1.6,3,1.9,4.6c0.2,1.5,1,1.9,2.1,2c4.2,0.1,8.5,0,12.8,0c-1.7-3.6-3.4-7.1-5.1-10.6
		C170.9,233.8,167.1,235.1,162.9,236.5z M39.2,102.3c1.5-0.7,2.8-1.2,4-1.8c0.3-0.1,0.5-0.4,0.6-0.7c0.6-1,1-2.1,1.7-3.1
		c1.9-2.7,3.9-5.3,5.9-7.9c2.6-3.5,5-7.3,8-10.4c1.9-2,2.3-3.7,1-6c0-0.1-0.1-0.1-0.2-0.3c-0.6,0.6-1.1,1.2-1.7,1.8
		c-2.2,2.7-4.3,5.4-6.6,8.1c-3.2,3.8-6.4,7.5-8.5,12C42.1,96.7,40.7,99.4,39.2,102.3z M120.3,293.7c-3.7,3-8.6,4.3-12.3,7.7
		c3.4,0.9,6.7,1.4,10,0.7c0.8-0.1,1.6-0.1,2.4,0c1.5,0.3,3,0.6,4.5,1c1,0.2,2,0.5,3.3,0.8c-1.6-1.8-3.2-3.2-4.4-4.8
		C122.5,297.4,121.5,295.5,120.3,293.7z M187.2,277.6c1.4-0.9,3.1-1.9,4.6-3.1c3.5-2.8,5-6.6,2.6-10.8c-3.1,5.5-8.3,8.5-13.5,11.1
		C182.9,275.7,184.9,276.6,187.2,277.6z M133.7,61.9c-1,1.1-2.5,2.1-3.1,3.5c-0.8,1.9-0.9,4.2-1.2,5.9c0.9,0.8,1.5,1.5,2.1,2
		c0.4,0.3,0.9,0.7,1.3,0.6c0.4-0.1,0.9-0.8,0.8-1.2c-0.3-1.6-0.8-3.3-1.1-4.9c-0.1-0.5,0-1,0-1.5c0.5,0.2,1.1,0.3,1.4,0.7
		c0.5,0.7,0.7,1.5,1.1,2.4c0.2-0.7,0.4-1.3,0.4-1.9C135.2,65.6,136.6,63.3,133.7,61.9z M66.2,70.5c-0.4-1.9-0.6-4-1.4-5.9
		c-0.7-1.5-2.1-2.6-3.3-3.9c-0.2-0.2-0.7-0.1-1.5-0.2c0.4,2.8,0.9,5.2,1.3,7.7c0.6-0.7,0.9-1.4,1.3-2c0.2-0.3,0.6-0.5,0.9-0.5
		c0.2,0,0.6,0.4,0.6,0.6c-0.2,1.4,0,3-0.7,4.1c-0.9,1.3-0.1,1.7,0.2,2.5C64.5,72,65.3,71.2,66.2,70.5z M116.9,284.6
		c2-1.1,4.4-2,4.9-5.1c-1.5-0.9-3-1.7-4.9-2.8C116.9,279.5,116.9,282,116.9,284.6z M127.6,80.3c2.5,0.4,5.3-2.1,5.1-4
		c-1-1-1.7-1.7-2.5-2.4c-0.2-0.2-0.6-0.6-0.8-0.6c-0.3,0.1-0.6,0.5-0.7,0.8C128.3,76.3,128,78.3,127.6,80.3z M63.8,75.1
		c-0.1,0-0.3-0.1-0.4-0.1c0.2,0.5,0.4,1.1,0.6,1.6c0.5,1.6,2,2.6,3.6,2.4c0.3,0,0.7-0.6,0.7-0.8c-0.4-2-0.9-4-1.4-6.4
		C65.6,73.2,64.7,74.1,63.8,75.1z M135.4,60.5c-0.2-1-0.2-1.8-0.5-2.5c-0.5-1.5-1.3-1.7-2.5-0.7c-1.4,1.3-1.7,2.9-1.6,5
		C132.3,61.1,133.2,59.5,135.4,60.5z M63.9,60.1c0.1-2.9-0.9-4.1-3.3-3.6c-0.1,0.8-0.1,1.6-0.2,2.1C61.7,59.2,62.8,59.6,63.9,60.1z
		 M197.8,266.7c0.5-1.9,0-4.5-0.9-5.5C196,262.1,196.4,265,197.8,266.7z"/>
	<path class="st0" d="M95.1,86.5c-1.8-0.4-3.6-0.5-5.1-1.3c-1.7-0.9-3.1-2.3-4.6-3.6c-0.1-0.1,0-0.9,0.2-1.1
		c1.6-1.5,3.2-2.9,4.8-4.3c1.6-1.4,3.2-2.6,5.5-1.6c0.2,0.1,0.5,0.1,0.7,0c1.6-1,2.8-0.3,4.2,0.5c2.6,1.5,4.7,3.4,6.6,5.7
		c0.2,0.3,0.1,1.2-0.1,1.3c-2.4,1.1-4.4,3.2-7.2,3.6C98.4,86,96.8,86.3,95.1,86.5z M87.7,81.8c3.7,4.3,14.2,4.4,16.5,0.4
		C98.8,82.1,93.4,82,87.7,81.8z M89.8,80.7c4.5,0.2,8.7,0.3,13.1,0.5C101.4,78,93.2,77.3,89.8,80.7z M105.4,81.3
		c0.1-0.2,0.1-0.4,0.2-0.5c-1.4-1.3-2.7-2.6-4.1-3.8c-0.8-0.7-1.8-1.7-2.6-1.6c-1.9,0.2-4.1-0.2-5.7,0.4c-2,0.7-3.5,2.7-5.2,4.2
		c0.1,0.1,0.1,0.2,0.2,0.3C94.1,76.1,99.9,75.7,105.4,81.3z"/>
	<path class="st0" d="M112.8,58.4c-2.7,0.3-4.8-1.4-7.1-2c-0.2-0.1-0.5-0.7-0.4-1.1c0.3-1.7,1.2-3,2.9-3.6c4.1-1.4,7.6,0,10.9,2.4
		c0.6,0.4,1.2,0.9,1.6,1.4c0.7,0.8,0.4,1.7-0.6,1.9C117.7,57.7,115.2,58,112.8,58.4z M114.6,56.9c1-0.3,2-0.7,3.1-1.1
		c-0.1-1.7-1.9-1.3-2.6-2.4C114.9,54.7,114.7,55.7,114.6,56.9z M108.1,56c0.3-1.1,0.4-1.8,0.6-2.6c-0.1-0.1-0.2-0.2-0.4-0.3
		c-0.5,0.6-1,1.1-1.4,1.7C106.9,54.9,107.6,55.5,108.1,56z"/>
	<path class="st0" d="M81.4,57.4c-2.9-0.1-5.7-0.2-8.6-0.3c-0.3,0-0.7-0.2-0.9-0.5c-0.1-0.1,0.1-0.7,0.3-0.8c2-1.5,3.8-3.3,6-4.4
		c1.7-0.9,3.8-1,5.7-1.2c1.3-0.1,4.4,2.2,4.7,3.4c0.1,0.3-0.1,0.8-0.3,1.1C86.7,56.6,84.1,57.7,81.4,57.4z M84,56
		c1.2-0.2,2.8-1.5,2.6-2.1c-0.4-0.9-1.2-1.6-1.8-2.4C84.4,53.2,84.2,54.5,84,56z M78.2,52.7c-1.2,1-2.3,1.8-3.3,2.6
		c0.1,0.1,0.1,0.3,0.2,0.4c1.1,0,2.2,0,3.3,0C78.3,54.8,78.3,54,78.2,52.7z"/>
	<path class="st0" d="M91.3,62.2c-0.3,0.6-0.7,1.2-0.9,1.8c-0.4,0.8-0.9,1.7-1,2.6c-0.1,0.5,0.5,1.2,0.9,1.6
		c0.1,0.1,0.9-0.3,1.2-0.6c0.9-0.8,2.7-0.6,3.5,0.4c1.5,1.8,1.4,1.7,3.1,0c0.6-0.6,1.7-0.9,2.6-0.8c0.5,0,0.9,1,1.6,1.7
		c0.6,0.1,1.5,0,2.1-1c0.5-0.9,0-2.8-0.9-3.7c-0.4-0.4-1-0.7-1.3-1.2c-0.3-0.4-0.4-1-0.7-1.9c2.9,1.5,4.5,4.4,4.1,7
		c-0.3,1.7-3.2,2.9-5,1.9c-1.1-0.7-1.8-0.7-2.7,0.1c-1,0.9-2.4,0.5-3.4-0.7c-0.5-0.6-0.9-0.7-1.5-0.3c-1.4,0.7-2.8,1-4-0.3
		c-1.3-1.3-0.9-2.9-0.2-4.4c0.4-1,1.3-1.8,1.9-2.6C90.9,61.9,91.1,62.1,91.3,62.2z"/>
	<path class="st0" d="M112.3,47c-2.1,0.4-4.2,0.8-6.3,1.1c-0.4,0.1-0.8-0.2-1.2-0.3c0.2-0.4,0.4-1,0.7-1.1c1-0.4,2.1-0.6,3.2-0.8
		c3.5-0.6,7-0.3,10.4,0.6c0.7,0.2,1.4,0.6,2,1.1c0.2,0.2,0.2,0.7,0.3,1.1c-0.4,0.1-0.8,0.3-1.1,0.2C117.8,47.5,115.1,47.2,112.3,47z
		"/>
	<path class="st0" d="M86.1,45.1c0.4,0,1.1,0,1.6,0.2c0.4,0.1,0.7,0.6,1,0.9c-0.4,0.2-0.8,0.7-1.3,0.7c-1.9,0.1-3.7-0.2-5.6,0.1
		c-2.1,0.3-4.1,0.9-6.2,1.4c-0.4,0.1-0.8-0.1-1.3-0.2c0.3-0.3,0.5-0.9,0.8-1C77.7,46,82.3,45.1,86.1,45.1z"/>
</g>
</svg>
