<?xml version="1.0" encoding="utf-8"?>
<!-- Generator: Adobe Illustrator 19.2.1, SVG Export Plug-In . SVG Version: 6.00 Build 0)  -->
<svg version="1.1" id="Layer_1" xmlns="http://www.w3.org/2000/svg" xmlns:xlink="http://www.w3.org/1999/xlink" x="0px" y="0px"
	 viewBox="0 0 200 337.3" style="enable-background:new 0 0 200 337.3;" xml:space="preserve">
<style type="text/css">
	.st0{fill:#009688;}
</style>
<g id="diarrhea-boy2">
	<path class="st0" d="M21.4,337.3c-2.8-3.6-5-7.5-6.8-11.7c-0.8-2-1.7-3.9-2.3-6c-1.1-3.8-2.1-7.7-3-11.6c-1-4.1-0.9-8.3-0.9-12.6
		c0-0.7-1-2.1-1.7-2.2c-2.3-0.2-3.1-2-4.1-3.5c-1.5-2.1-2.2-4.6-2.6-7.1c-0.1-0.9,0.1-1.8,0.4-2.7c0.7-1.9,1.6-3.7,2.4-5.5
		c1.6-3.2,4.5-5.3,6.9-7.7c1.8-1.7,3.8-3.2,5.7-4.7c0.5-0.4,0.7-0.8,0.5-1.6c-0.2-0.9-0.1-2,0.2-2.9c1.7-5.2,2-10.5,3-15.8
		c0.2-1.2,0.5-2.4,0.8-3.6c1.4-4.7,1.7-9.6,2.3-14.4c0.6-5.1,1.7-10.2,2.6-15.3c0.6-3.1,1.3-6.2,1.7-9.4c0.1-1.3-0.6-2.7-0.8-4.1
		c-1.8-8.8-3.5-17.5-2.9-26.6c0.1-2.3,0.5-4.6,0.8-6.9c0.6-3.8,1.3-7.5,1.9-11.3c1-6.9,3.8-13.2,6.3-19.7c1.2-3.1,2.1-6.4,3.4-9.5
		c2.2-5.2,4.7-10.3,8.2-14.8c1.1-1.4,2-2.8,2.8-4.4c2.4-4.6,6.2-7.7,9.9-11.1c3.1-2.8,6.1-5.6,9.4-8.2c2.4-1.9,5.1-3.5,7.8-5.1
		c3-1.8,6-3.8,9.3-5.1c4.3-1.7,8.8-2.9,13.3-4.3c0.3-0.1,0.7-0.1,1-0.2c0.3-2.3,0.6-4.6,1-6.8c0.4-2.6,2.6-4.5,5.3-4.8
		c0.6-3,1.3-6,1.8-9c0.6-3.5,1.1-7,1.7-10.5c0.3-1.5,0.6-3,1-4.5c0.7-2.7,1.4-5.5,2-8.2c0.5-2.2,1.4-4.2,2.9-6c2.6-3,5-6.2,7.8-9.1
		c4.7-4.8,10.6-7.5,17.2-8.6c4.4-0.7,8.9-0.5,13.2,0.4c3.2,0.7,6.4,1.4,9.4,2.4c5.4,1.9,10.1,4.9,14.3,8.7c2,1.8,4.1,3.4,6,5.3
		c5.1,5,8.2,11,8.9,18.1c0.2,2.4,0.8,4.8,1.1,7.1c0.1,0.9-0.1,1.8,0.1,2.8c0.5,3.5-0.8,6.4-2.3,9.5c-1.1,2.3-1.4,5-1.9,7.6
		c-0.6,3.1-0.9,6.2-1.6,9.3c-0.8,3.9-1.9,7.8-2.8,11.6c-1.1,4.3-2,8.8-3.5,13c-1.8,4.9-4.2,9.6-6.4,14.5c0.8,0.4,1.8,0.8,2.6,1.3
		c2.9,1.7,5.9,3.5,8.8,5.2c0.4,0.2,0.8,0.6,1.2,0.6c2.5,0.6,4,2.3,5.2,4.4c2.1,3.4,3.6,7,4.2,11c0.3,2,0.3,4,0.3,6
		c0.1,2.9-0.1,5.8,0.1,8.6c0.1,2.1,0.6,4.2,0.8,6.2c0.3,3.2,0.7,6.3,0.7,9.5c0,3.5-0.4,6.9-0.5,10.4c-0.1,5-0.3,10-0.2,15
		c0,2.7,0.6,5.4,0.8,8.1c0.2,2.7-0.5,5.2-1.1,7.8c-0.6,2.9-1.3,5.8-1.5,8.7c-0.5,6.6-0.7,13.3-1.2,19.9c-0.1,1.7-0.8,3.3-1.1,4.9
		c-0.3,1.9-0.4,3.8-0.8,5.7c-0.7,3.4-1.5,6.7-2.4,10c-0.2,0.8-1.2,1.5-2,2.1c-1,0.7-1.3,1.3-0.5,2.5c1.5,2.2,2.7,4.7,4.2,6.9
		c0.9,1.3,2.1,2.6,3.5,3.4c2.1,1.1,3.2,2.7,4,4.8c0.8,2,1.7,4,2.4,5.9c0.7,1.7,0.5,3.4,0,5.1c-0.6,1.9-1,3.9-1.6,5.8
		c-0.8,2.8-1.7,3.4-4.6,3c-0.2,0-0.4,0-0.8,0.1c0,0.7-0.1,1.3-0.1,1.9c0.3,10.1-0.8,20.1-3,29.9c-0.9,4-1.9,7.9-2.9,11.9
		c-0.8,0-1.7,0-2.5,0c0.2-0.7,0.4-1.5,0.6-2.2c1.1-4.2,2.1-8.4,3.2-12.6c-0.1,0-0.3-0.1-0.4-0.1c-0.3,0.5-0.6,1.1-1,1.6
		c-1.2,1.7-2.2,3.6-3.6,5.2c-2.3,2.8-4.7,5.4-7.1,8.1c-1.1,0-2.2,0-3.3,0c5.1-5.2,10.3-10.4,13.6-17.1c1.2-2.4,2.1-4.9,1.8-7.6
		c-0.1-1.6-0.4-3.2-0.5-4.7c-0.4-4.4-1.5-8.4-5.1-11.6c-2.8-2.6-6-3-9.4-3.5c-0.6,2.1,0.2,3.8,1.3,5.3c1.6,2,1.5,4.1,0.8,6.3
		c-1.9,5.4-6,8.3-11.2,10.1c-4.2,1.4-8.5,2.7-12.8,4c-0.1,0.2-0.1,0.3-0.2,0.5c0.9,0.7,1.7,1.5,2.7,2.1c3.3,1.9,6.9,0.9,10.5,0.9
		c1,0,2,0.1,2.9-0.2c2-0.7,3.7-1.8,4.8-3.6c1.2-1.8,2.3-3.7,3.5-5.5c0.3-0.5,1-0.7,1.5-1c0.1,0.6,0.4,1.4,0.2,1.9
		c-0.5,1.3-1.2,2.5-2,3.7c-1.6,2.5-3.4,4.8-6.4,6c-1.5,0.6-3,1.4-4.3,2.4c-3.4,2.7-7.4,3.9-11.5,4.8c-0.4,0.1-0.9,0-1.4,0
		c-0.6,0.1-1.3,0.2-1.8,0.4c-2,1-3.9,2.4-6,3.2c-3.5,1.3-7.1,2.2-10.6,3.3c-2,0-4,0-6.1,0c-1.4-1.3-2.9-2.5-4.2-3.9
		c-1.8-2-4.2-2.5-6.6-3.3c-0.2-0.1-0.4-0.1-0.5,0c-2.2,1.3-4.6,1.1-6.9,1c-3.9-0.2-7.8-0.5-11.7-0.9c-3.8-0.4-7.7-1.1-11.5-1.7
		c-2.6-0.4-5.1-1-7.7-1.3c-5.6-0.6-10.7-2.1-14.3-6.8c-2.2-2.9-3.9-6.1-3.8-9.8c0-1.3,0.6-2.5,0.9-3.8c0.1-0.6,0.4-1.4,0.2-1.9
		c-0.8-1.5-1.8-2.8-3-4.5c-2.4,3.1-4.6,5.9-6.7,8.8c-3,4.1-3.2,8.9-2.5,13.7c0.2,1.4,0.6,3.2,1.5,4.1c2.9,2.6,6,4.9,9.1,7.2
		c1.4,1.1,2.9,2.1,4.4,3.2c-1.3,0-2.6,0-3.9,0c-1.8-1.2-3.8-2.4-5.5-3.7c-1.8-1.4-3.5-3-5.1-4.6c-1.3-1.2-2.5-2.5-2.5-4.5
		c0-0.5-0.2-1.1-0.2-1.6c-0.7-5.7-0.2-11.1,3.5-15.9c0.5-0.6,1-1.3,1.7-2.2c-1.2,0-1.9,0-2.7,0c-4.9-0.4-9.9-0.6-14.8-1.1
		c-2.8-0.3-5.5-1.1-8.2-1.3c-3.8-0.3-7.3-1.5-10.7-3.1c-1.6-0.8-3.1-1.8-4.8-2.9c0,0.6,0,0.9,0,1.3c0.3,3.2,0.6,6.4,1.1,9.5
		c1.2,7.5,3.8,14.6,7.2,21.4c1.5,3,3.6,5.8,5.4,8.7C23.3,337.3,22.3,337.3,21.4,337.3z M131.9,248.6c-2-0.7-3.6-1.7-5.7-1.7
		c-4.3,0-8.6,0-12.9-0.6c-3.4-0.4-6.8-0.7-10.1,0.2c-0.3,0.1-0.8-0.3-1.2-0.5c0.2-0.3,0.4-0.9,0.7-1c1.5-0.4,3.1-1,4.6-1
		c2.2-0.1,4.4,0.4,6.7,0.5c4,0.2,8,0.3,12,0.3c1.7,0,3.3,0.4,4.9,1c1.9,0.7,4,1.3,6.1,1.4c2.3,0.1,4.7-0.6,7.1-0.6
		c2.8,0,5.7-0.2,8.3,0.6c4.6,1.3,8.6,3.9,12.1,7.2c2.7,2.6,5.4,5.2,6.9,8.9c0.8-2.3,1.6-4.6,1.9-6.9c0.5-5.4-1.1-10.5-2-15.8
		c-0.4-2.3-0.9-4.6-1.2-6.9c-0.7-6.4-1.2-12.8-1.9-19.1c-0.3-2.4-0.8-4.8-1.2-7.1c-0.6-3.4-1-6.8-1.8-10.1c-0.5-1.9-0.5-3.8-0.3-5.7
		c0.1-1,0.2-2,0.4-3.5c-0.8,0.8-1.3,1.4-1.9,2c-1.5,1.5-2.9,3.1-4.5,4.4c-4.9,4.3-9.2,9.1-12.6,14.7c-2.4,4-4.1,8.4-7.4,11.8
		c-1.1,1.2-2.1,2.4-3.1,3.7c-4.3,5.2-10,8.3-16,11c-0.8,0.3-1.7,0.3-2-0.6c-0.3-0.9,0.5-1.2,1.2-1.5c3.4-1.8,7-3.3,10-5.7
		c5.1-3.9,9.1-8.8,12.3-14.5c2.1-3.7,4.4-7.4,6.9-10.9c3.1-4.2,6.8-7.9,10.9-11.2c2-1.6,3.6-3.6,5.5-5.4c0.5-0.5,1.5-0.9,1.7-1.6
		c0.7-2.9,2.5-5.2,4.2-7.6c1.9-2.8,3.6-5.7,5.5-8.5c0.2-0.4,1-0.4,1.4-0.7c0,0.5,0.2,1.2,0,1.6c-1.9,3.4-3.8,6.7-5.8,10
		c-0.5,0.9-1.2,1.7-1.7,2.6c-1.9,3.5-2.4,7.4-2.4,11.3c0,1.3,0.4,2.6,0.6,4c2.9-3.6,5.4-7.1,7.9-10.7c0.3-0.4,0.4-0.9,0.7-1.1
		c0.4-0.2,1.1-0.4,1.5-0.2c0.3,0.1,0.5,0.9,0.3,1.3c-0.3,0.9-0.7,1.8-1.3,2.6c-2.7,3.8-5.5,7.6-8.2,11.4c-0.4,0.5-0.8,1.1-0.7,1.7
		c0.2,1.7,0.6,3.3,0.9,5c0.9,5.6,1.8,11.3,2.6,16.9c0.8,5.4,0.5,10.9,1.9,16.2c0.7,2.8,0.6,5.7,1.2,8.5c1.4,5.5,1,10.8-1.5,15.8
		c-0.2,0.4-0.2,0.8-0.3,1.3c1.8,0,3.4,0.3,5-0.1c2.7-0.6,5.4-1.5,8.1-2.3c-0.5-0.8-1.1-1.8-1.7-2.8c-0.5-0.8-1.1-1.5-1.3-2.4
		c-0.5-1.8,0.8-2.7,2-3.7c0.6-0.5,1.3-1.1,1.4-1.8c0.9-4.3,1.6-8.7,2.4-13c0.4-2.3,1.2-4.6,1.4-7c0.4-4.4,0.3-8.8,0.6-13.2
		c0.3-3.8,0.8-7.6,1.3-11.3c0.4-2.5,1.2-5,1.6-7.5c0.3-1.8,0.3-3.6,0-5.4c-0.7-4.5-1-9-0.8-13.6c0.2-4.4,0.8-8.9,0.8-13.3
		c0-5.5-0.5-11-0.8-16.4c-0.2-4-0.5-8-0.5-12c0.1-5.9-1-11.5-4.2-16.6c-1.1-1.6-2.2-2.9-4.2-3.7c-2-0.7-3.7-2.1-5.6-3.2
		c-2.5-1.5-5.1-3-7.6-4.6c-0.4,0.5-0.7,0.9-1.1,1.3c-1.4,1.6-2.6,3.3-4.2,4.7c-1.6,1.4-3.5,2.5-5.2,3.8c-0.4,0.3-1,0.7-1.1,1.1
		c-1.1,3.6-3,6.8-5.8,9.4c-2.1,1.9-4.1,4.1-6.6,5.3c-5.8,2.7-11.8,4.8-18.5,4.5c-4.2-0.2-8.4,0.6-12.5-0.8c-2.9-1-5.7-2.5-8.6-3.5
		c-3-1.1-5.7-2.4-8.3-4.3c-3.2-2.4-5.5-5.5-7.3-8.9c-1.5-2.9-2.9-5.8-4.4-8.8c-0.4,0.2-0.9,0.3-1.4,0.5c-3.2,1.4-6.3,3-9.6,4.2
		c-4.4,1.8-8.9,3.2-13.3,5c-2.8,1.2-5.6,2.7-8.3,4.2c-1,0.5-1.9,1.4-2.6,2.2c-1.2,1.5-2.3,3.1-3.4,4.6c-2.9,3.7-4,8.1-5.8,12.3
		c-1,2.4-1.6,4.9-2.4,7.4c-0.7,2.1-1.7,4.1-2.3,6.2c-1.4,5.1-2.5,10.3-3.9,15.4c-1.2,4.5-2.7,9-4,13.6c-0.5,1.7-0.8,3.5-1.1,5.2
		c-0.7,3.5-1.4,7-2,10.4c-0.7,3.8-1.3,7.5-1.9,11.3c-0.4,2.3-0.6,4.7-0.9,7.1c-0.4,3.1-0.6,6.2-1.1,9.2c-0.4,2.1-1.2,4.2-1.6,6.3
		c-1.1,5.4-2,10.7-3.1,16.1c-0.4,1.9,0,2.9,2,3.3c2.3,0.5,4.6,1.3,7,1c0.4-0.1,0.9,0,1.4,0.1c4.4,0.9,8.9,1.7,13.5,2.6
		c-0.1-0.7-0.1-1.2-0.3-1.8c-1.2-3.9-1.1-8-0.2-11.8c0.7-3.2,0.9-6.4,1.2-9.6c0.4-6.1,2.7-11.6,5.8-16.8c1.8-3,3.9-5.9,5.7-8.9
		c0.4-0.7,0.6-1.8,0.4-2.5c-0.5-2.2-1.3-4.2-2-6.4c-1.9-5.7-3.6-11.4-2.9-17.5c0.1-1.1,0.5-2.1,0.9-3.1c0.1-0.2,0.9-0.1,1.4-0.2
		c0,0.4,0.1,0.8,0.1,1.2c0,0.4-0.2,0.8-0.3,1.2c-0.4,5,0.5,9.8,2,14.4c0.7,2,1.5,4,2.2,6c0.2,0,0.4,0,0.5,0c0.6-2.2,1.4-4.4,1.8-6.7
		c1.3-6.6,2.4-13.3,6.6-18.9c0.3-0.4,0.5-0.9,0.5-1.4c-0.1-3.6,0.2-7.3-1-10.9c-2.2-6.6-4.2-13.3-6.3-19.9c-0.7-2.3-1.3-4.7-1.8-7.1
		c-0.1-0.4,0.3-1,0.5-1.5c0.4,0.4,0.9,0.7,1.1,1.2c0.9,2.5,1.7,5.1,2.5,7.6c1.5,4.5,2.9,9,4.4,13.5c0.7,2.1,1.4,4.2,2.1,6.3
		c0.1,0,0.2,0.1,0.4,0.1c1.6-3,3.4-5.8,4.8-8.9c1-2.3,1.3-5,2-7.5c0.1-0.5,0.7-0.8,1.1-1.1c0.3,0.4,0.8,0.8,0.8,1.2
		c0.1,0.8,0,1.6-0.2,2.4c-1.2,5.5-3.7,10.4-7.2,14.7c-0.4,0.5-0.8,1.3-0.9,1.9c-0.1,1.4,0.2,2.8,0.1,4.3c-0.1,1.8,0,3.7-0.5,5.4
		c-0.4,1.5-1.6,2.8-2.4,4.3c-0.8,1.5-1.7,3.1-2.1,4.7c-1.5,5.8-2.5,11.8-4.1,17.6c-1.3,4.6-3.3,8.7-6.1,12.4
		c-4.6,6.2-7.5,12.9-7.8,20.6c-0.1,2.5-0.4,5.1-1,7.6c-1.1,4.6-0.6,10.1,0.7,13.7c1.1-1.8,2.1-3.7,3.5-5.4c1.4-1.7,3.2-3.2,4.9-4.7
		c1.8-1.6,3.7-3.2,6.2-3.5c3-0.4,6-0.8,8.9-1.1c4-0.4,7.8,0.2,11.4,2c0.8,0.4,1.7,0.5,2.6,0.8c1,0.3,2,0.4,2.8,0.9
		c4.5,2.7,9,5.4,13.4,8.1c0.8,0.5,1.4,1.5,2.3,1.9c2,0.9,3.9,1.8,5.3,3.6c0.6,0.8,1.4,1.6,2.2,2.4
		C115.4,261.2,122.5,253.8,131.9,248.6z M108,85.8c-0.1-1-0.2-1.9-0.3-2.8c-0.1-2.1-0.4-2.5-2.5-2.6c-1.9-0.1-3.2-1-3.7-2.7
		c-0.5-1.7-0.6-3.6,1.1-5c0.4-0.3,0.8-0.7,1.2-1c0.6-0.4,1.3-0.9,1.9-0.1c0.7,0.8,0,1.3-0.6,1.8c-0.2,0.1-0.4,0.2-0.6,0.4
		c-1.1,0.6-1.5,1.5-1.2,2.8c0.4,1.3,1.2,1.7,2.5,1.6c1.2,0,2.4,0,3,1.2c0.5,1.1,1.1,2.3,1.2,3.4c0.3,2,0.2,4.1,0.4,6.2
		c0.3,3.7,0.5,7.4,1.2,11c0.4,2.1,1.8,4,2.8,6c1.5,3,3.2,5.8,5.7,8.2c1.3,1.3,2.5,2.7,3.7,4.1c3.4,4.2,7.3,7.3,12.9,8.1
		c4.9,0.7,9.5,0.7,13.9-2.1c2.8-1.7,5.9-2.8,8.8-4.3c5.2-2.7,8.9-7.1,11.6-12.2c2.2-4.2,4.2-8.6,5.8-13.1c1.4-4,2.3-8.2,3.2-12.4
		c0.7-3.2,2.1-6.1,2.3-9.5c0.3-4.6,1.1-9.2,2.1-13.8c0.7-3,0.2-5.8-0.1-8.7c-0.3-2.4-2-4-3.8-5.5c-1.3-1.1-2.6-1.3-4.1-1.4
		c-1.9-0.2-2.8,0.8-3.4,2.4c-0.1,0.2-0.4,0.4-0.5,0.6c-0.7,1.2-1.6,2.4-2.1,3.7c-0.6,1.4-0.9,2.9-1.3,4.4c-0.5-0.9-0.7-1.6-1.2-2.2
		c-3.1-3.7-6-7.4-9.9-10.2c-2.3-1.7-4.7-3.5-7.6-3.8c-3-0.3-6.1-0.3-9.2-0.5c-1.7-0.1-3.3-0.4-5-0.8c-2.1-0.6-4.2-1.5-6.3-2
		c-2.4-0.6-5.1-0.4-6.9,1.2c-3.8,3.5-6.8,7.6-6.2,13.2c0.3,3.3-3.3,7-5.8,7.7c-2.5,0.7-3.2,2.1-2.6,4.7c0.3,1.4,0.5,2.9,0.6,4.3
		c0,0.4-0.4,0.8-0.7,1.2c-0.3-0.4-0.7-0.7-0.9-1.2c-0.1-0.3,0.1-0.7,0-1.1c-0.6-1.9-1-3.8-1.8-5.5c-0.7-1.5-2.3-1.8-3.6-0.7
		c-0.8,0.7-1.3,1.6-2.1,2.7c0.8,0.1,1.2,0.1,1.6,0.2c1.6,0.3,3.7,2.7,3.5,4.2c0,0.4-0.4,0.7-0.6,1.1c-0.3-0.2-0.7-0.4-1-0.7
		c-0.5-0.6-0.8-1.3-1.3-1.9c-0.3-0.3-1-0.6-1.4-0.5c-0.5,0.2-1,0.7-1.1,1.2c-0.2,0.8-0.3,1.6-0.3,2.4c0,2.5,0.2,5,0.2,7.6
		c0,2.7,0.7,5.2,2.1,7.5C103.1,85.3,104.6,86.1,108,85.8z M110.6,313.7c-0.1-0.9-0.2-1.6-0.3-2.4c-0.6-4.3-0.7-8.7,0.4-13
		c0.9-3.3,1.7-6.7,2.4-10.1c0.7-4-0.1-8-1.9-11.6c-1.4-2.9-3.9-5.2-5.8-7.7c-2.1-2.7-5.5-3.6-8.1-5.7c-3.1-2.5-6.7-4.4-10.1-6.4
		c-1.7-1-3.7-1.7-5.6-2.5c-1.1-0.4-2.2-0.8-3.3-1.2c-0.7-0.2-1.3-0.6-2-0.8c-4.1-1.3-8.2-0.9-12.4-0.5c-3,0.3-6,0.9-8.3,3
		c-1.8,1.7-3.8,3.3-5.4,5.1c-1.3,1.5-2.4,3.2-3,5c-2,5.7-3.1,11.7-2.6,17.8c0.1,1.6,0.7,3.3,1.5,4.8c1.2,2.4,3.6,3.6,5.8,4.8
		c2.1,1.2,4.5,2.1,5.9,4.2c2.2,3.1,4.2,6.4,6.3,9.6c0.6,1,1.2,2.1,2.1,2.8c1.6,1.2,3.4,1.9,5,3c3.5,2.4,7.5,3,11.6,3
		c3.2,0,6.4,0.2,9.6,0.3c1.9,0.1,3.8,0.4,5.6,0.2C102.2,315,106.3,314.3,110.6,313.7z M96.8,69.8c-2.7,0.9-5.5,1.9-8.2,2.8
		c-2.9,1-5.9,1.9-8.6,3.2c-2.3,1.1-4.4,2.5-6.5,4c-2.8,1.9-5.7,3.8-8.3,5.9c-2.4,1.8-4.6,3.9-6.8,5.9c-3.7,3.3-7.2,6.7-9.7,11.1
		c-1,1.8-2.1,3.5-3.3,5.2c-3.3,4.5-5.8,9.4-7.8,14.5c-1.2,3-2.1,6-3.2,9c-1.6,4.4-3.5,8.8-4.8,13.3c-1.2,4.2-1.7,8.6-2.5,13
		c-1.2,6.4-1.7,12.8-1.3,19.3c0.2,3,0.9,5.9,1.4,8.8c0.1,0.6,0.2,1.2,0.3,1.9c0.2,1.2,0.4,2.4,0.6,3.6c0.9-2.2,1.5-4.3,2.2-6.4
		c1.2-4.1,2.5-8.1,3.6-12.3c0.8-3.1,1.4-6.2,2.1-9.3c0.7-3.1,1.5-6,3.1-8.8c0.2-0.4,0.3-0.8,0.4-1.3c1.2-5.2,3.3-10.1,5.8-14.8
		c1.4-2.6,3.4-5,5.2-7.4c0.6-0.9,1.4-1.8,2.3-2.3c3.2-1.8,6.5-3.4,9.8-5.1c1.2-0.6,2.4-1.1,3.6-1.6c3.2-1.1,6.5-2,9.6-3.3
		c5.9-2.5,11.7-5.3,17.5-7.9c2-0.9,4.1-1.3,6.1-2.1c3.2-1.4,6.3-3.1,9.4-4.6c1-0.5,1.1-1.2,1-2.2c-0.3-2.2-0.6-4.4-0.8-6.6
		c-0.2-2.1-0.2-4.3-0.3-6.4c0-0.2-0.2-0.5-0.3-0.7c-2.7,0.3-5.1-0.1-6.9-2c-2.1-2-3.3-4.6-3.8-7.4C97.1,75.8,97,72.8,96.8,69.8z
		 M109.6,270.3c0.8,1.1,1.4,1.9,1.9,2.7c0.7,1,1.8,2,2.1,3.2c0.9,3.2,1.4,6.5,2.1,9.7c0.1,0.6,0.1,1.3,0.5,1.7
		c1.1,1.4,2.3,2.7,3.6,3.9c3.1,2.7,5.7,5.7,7.1,9.6c0.5,1.5,0.8,3,1.3,4.4c0.2,0.5,0.9,1,1.4,1.2c3.3,1.1,6.7,0.6,10.1,0.3
		c2.1-0.2,4-0.1,5.2,1.9c0.5,0.8,1.1,0.8,1.8,0.6c2.9-0.7,5.7-1.6,8.6-2.2c4.2-0.8,8.3-2.1,12.1-4.2c2.9-1.7,4.1-4.1,3.1-7.2
		c-1.1-3.7-1.4-7.4-0.7-11.1c0.8-4.4,1.4-8.9,1.1-13.4c-0.1-1.8-0.1-3.7-0.8-5.2c-1.1-2.6-2.2-5.2-4.1-7.4c-2.6-3.1-5.7-5.5-9.1-7.6
		c-6.1-3.8-12.7-3.2-19.4-2.1c-5.4,0.9-9.7,4-13.6,7.5C119,261,114.4,265.6,109.6,270.3z M111.5,104.8c-1.1,0.7-2.1,1.3-3.1,1.8
		c-3.7,1.9-7.4,3.8-11.1,5.6c-1.2,0.6-1.3,1.4-1.1,2.5c0.5,2.6,1.9,4.8,3.4,6.9c3.5,5.3,8.6,8.5,14.5,10.2c3.8,1.1,7.7,1.7,11.6,2.2
		c2.4,0.3,5,0.6,7.4,0.2c4.6-0.7,8.5-3.1,12.6-5.3c0.1-0.1,0.3-0.2,0.2-0.1c-1.5,0-3.2,0.1-4.8,0c-1.3-0.1-2.6-0.4-3.9-0.5
		c-5.4-0.4-9.8-2.8-13.3-6.7c-1.9-2.1-3.6-4.3-5.5-6.3c-2.4-2.4-4-5.3-5.5-8.3C112.4,106.3,111.9,105.5,111.5,104.8z M53.5,295.8
		c-0.5-0.4-0.7-0.5-0.9-0.6c-3-1.5-5.8-3.2-8-5.9c-0.2-0.2-0.5-0.3-0.8-0.3c-3.3-0.1-4.6-1.5-4.6-4.9c0-0.9,0.1-1.9,0-2.8
		c-0.5-3.3-1.2-5-5.3-3.9c-2.7,0.8-5.3,0.6-8,0c-1.7-0.4-3.5-0.4-4.7-1.9c-0.1-0.1-0.8,0.1-1.2,0.3c-1.2,0.9-2.4,1.8-3.7,2.7
		c-1.6,1.1-3.4,1.5-5.4,1.1c-1.1-0.2-2.7-0.7-3.2,0.7c-0.4,1.1-0.5,2.9,0.2,3.8c3,4,7.3,6.5,11.8,8.3c2.7,1.1,5.7,1.2,8.6,1.7
		c2.6,0.5,5.2,1,7.7,1.5c1.5,0.3,2.9,0.9,4.4,0.9c2.2,0.1,4.5-0.1,6.7-0.2C49.1,296.3,51.1,296.1,53.5,295.8z M149.1,328.5
		c-0.2-0.1-0.4-0.2-0.6-0.4c-3.1-2.6-5.8-5.6-7.1-9.5c-0.9-2.6-1.6-5.3-2.2-8c-0.2-1-0.7-1.2-1.6-1.2c-2.8-0.1-5.6-0.3-8.4-0.6
		c-1.4-0.1-2.8-0.4-4-0.6c0.1,2,0.2,3.9,0.1,5.8c-0.2,3.5-1.6,6.3-4.4,8.6c-1.6,1.4-2.7,3.4-4.2,5.3c0.8,0.3,1.2,0.6,1.6,0.6
		c2.3,0.2,4,1.4,5.6,2.9c1.6,1.5,3.3,2.9,5,4.3c0.3,0.3,0.9,0.4,1.3,0.3c3.1-0.9,6.2-1.9,9.4-2.8C143,332.2,146.3,331.1,149.1,328.5
		z M5.4,289.2c0-2.4,0-4.7,0-7.1c0-0.9,0-1.9,0.4-2.6c0.9-1.5,1.9-3.1,3.1-4.2c3.2-3,6.6-5.7,9.9-8.6c0.2-0.1,0.6-0.2,0.8,0
		c0.2,0.1,0.4,0.6,0.3,0.8c-0.1,0.4-0.4,0.9-0.7,1.1c-2,1.6-4,3.1-6,4.8c-1.5,1.3-2.9,2.7-4.3,4c0.1,0.1,0.2,0.2,0.3,0.4
		c0.5,0,1-0.1,1.5,0c2,0.7,3.5-0.2,5-1.3c1.1-0.9,2.3-1.8,3.5-2.7c0.7-0.6,1.4-0.6,2.1-0.1c0.8,0.5,1.7,1.2,2.6,1.4
		c3.2,0.9,6.4,1.2,9.8,0.3c4.1-1,5.9,0.2,6.7,4.2c0.3,1.7,0.2,3.5,0.3,5.2c0.1,1.3,1,2.1,1.9,1.9c-0.2-2.1-0.4-4.1-0.5-6.1
		c-0.3-4,0.4-7.8,1.4-11.6c0.3-1.1-0.3-1.7-1-2.1c-0.9-0.5-2-0.7-3.1-1c-2.1-0.4-4.2-0.8-6.3-1.2c-2-0.4-3.9-1-5.9-1
		c-2.9,0.1-5.6-0.7-8.4-1.2c-0.5-0.1-1.1,0.1-1.5,0.4c-2.2,1.8-4.5,3.6-6.6,5.5c-2.2,2.1-4.2,4.4-6.2,6.8c-0.8,1-1.1,2.5-1.7,3.7
		C1.7,282.1,2.5,286.7,5.4,289.2z M114.7,315.5c-0.9,0.1-1.8,0.2-2.8,0.3c-3.1,0.4-6.1,0.9-9.2,1.3c-2.4,0.3-4.8,0.4-7.2,0.5
		c-1.4,0-2.7-0.3-4.1-0.4c-3.8-0.1-7.5-0.2-11.3-0.3c-3.2,0-6.2-0.9-8.9-2.5c-3.2-1.9-7-3.1-8.9-6.8c-0.2,0.5-0.3,0.7-0.4,1
		c-1.1,3.7,0.9,6.6,2.6,9.4c0.9,1.4,2.2,2.8,3.6,3.7c2.3,1.6,5,2.6,7.8,3c4.4,0.7,8.9,1.4,13.3,2.2c0.9,0.2,1.6,0.2,2.4-0.3
		c3.3-2.4,7.2-3.3,11.1-4.1C107.6,321.5,111.1,318.5,114.7,315.5z M156.2,123.9c-1.4,0.6-2.6,1.2-3.8,1.7c-1,0.4-1.9,1-2.5,2
		c-1,1.8-2.6,3.2-4.5,4.1c-1.5,0.7-3,1.5-4.5,2.3c-3.6,1.7-7.3,3.1-11.3,2.7c-4.5-0.5-9-1.2-13.5-1.8c-4.2-0.6-7.9-2.8-11.4-4.9
		c-4.2-2.5-7-6.5-9-10.8c-0.9-2-1.1-4.3-1.6-6.6c-1.6,0.8-3.4,1.6-5.2,2.5c1.9,3.5,3.7,6.8,5.5,10.1c0.3,0.6,0.8,1.2,1.2,1.8
		c1.4,1.8,2.9,3.4,4.7,4.9c1.6,1.4,3.2,2.4,5.1,3.2c2.1,0.9,4.1,1.9,6.2,2.6c1.9,0.7,3.9,1.3,6,1.8c1.4,0.3,2.9,0.3,4.4,0.4
		c4.3,0.3,8.7,0.7,13-0.4c5.8-1.4,11.7-2.9,15.9-7.6C153,129.5,155.4,127.4,156.2,123.9z M7.6,287.5c-0.6,1.7-0.3,3.6,1.3,4.8
		c2.6,2,5.2,3.8,8,5.4c1.9,1,4.1,1.5,6.2,2c2.2,0.5,4.5,0.7,6.7,1c5,0.6,9.9,1.3,14.9,1.8c2.5,0.2,5,0.1,7.6,0.1
		c0.4,0,0.9-0.1,1.2-0.4c1.2-1.1,2.3-2.2,3.4-3.3c-1-1.7-1.1-1.8-2.7-1.3c-0.4,0.1-0.8,0.2-1.2,0.2c-2.6,0.3-5.2,0.7-7.8,0.8
		c-2.3,0.1-4.7,0-7-0.2c-2.3-0.2-4.6-0.8-6.8-1.1c-1.5-0.2-3.1-0.4-4.6-0.7c-2.2-0.4-4.3-1-6.5-1.5c-1-0.2-2-0.4-2.8-0.9
		C14.3,292,11,289.8,7.6,287.5z M119.4,308.6c0.2,0.7,0.5,1.1,0.5,1.6c0,1,0.1,2.2-0.3,3c-0.7,1.3-1.7,2.7-2.8,3.7
		c-4.4,3.9-9.1,7.2-15.1,8.1c-2.5,0.4-4.9,1.5-7.4,2.4c0,0.1,0.1,0.3,0.1,0.4c0.6,0.1,1.3,0.2,1.9,0.2c1.8,0.1,3.7,0.1,5.5,0.2
		c2.8,0.2,5.5,0.6,8.3,0.8c2.3,0.1,4.4-0.2,5.6-2.9c1-2.3,2.4-4.5,4.8-5.8c0.5-0.2,0.8-0.7,1.1-1.2c2.2-3.3,2.4-6.9,1.8-10.5
		C122,308.6,120.8,308.6,119.4,308.6z M149.8,317c4.3-1.4,8.3-2.9,12.5-4.1c4.7-1.3,8.3-3.8,10.4-8.2c0.8-1.6,0.8-4,0.1-4.7
		c-0.9,1.1-1.6,2.4-2.6,3.4c-2.7,2.5-6.1,3.7-9.6,4.7c-4.7,1.3-9.5,2.3-14.6,3.4C147.5,313.5,148.7,315.4,149.8,317z M125.4,304.7
		c-0.5-4.3-2.7-7.2-5-9.5c-1.8,0.2-3.2,0.4-4.5,0.6c-0.8,0.1-1.9-0.4-2.2,0.7c-0.6,2.3-1,4.7-1.4,7.1c-0.1,0.3,0.3,0.9,0.6,1
		c1.3,0.4,2.7,0.9,4.1,0.9C119.8,305.4,122.5,305,125.4,304.7z M178.5,278.6c1.9-0.2,4-0.3,6.1-0.6c0.5-0.1,1.2-0.6,1.3-1
		c1.1-3.3,2-6.6,1.7-10.2c-0.1-0.8-0.3-1.4-1.3-1.2c-2.4,0.5-4.7,0.9-7,1.4c-0.3,0.1-0.8,0.6-0.8,0.9
		C178.5,271.4,178.5,274.8,178.5,278.6z M171.8,289.4c-0.3,1.2,0.1,1.5,1.1,1.6c2.6,0.4,5.1,1.1,7.7,1.6c0.3,0.1,0.6,0.1,0.8,0
		c2.9-1.1,5.7-2.2,8.6-3.2c1.1-0.4,1.7-1,1.7-2.2c0-1.8,0-3.6,0-5.6C185.2,284.8,178.9,288.2,171.8,289.4z M140.8,309.3
		c0.2,0.8,0.4,1.6,0.6,2.3c1.2,5.2,3.1,10,7.4,13.7c2.2,1.9,3.9,3.4,7.1,2.2c2.4-0.9,4.7-1.6,6.6-3.5c-0.7-0.1-1.4,0-2.1,0.1
		c-3.9,0.6-7.5,0.1-10.1-3c-2-2.4-3.5-5.2-5.2-7.8c-0.6-0.9-1-2-1.6-3C142.7,309.3,141.9,309,140.8,309.3z M189.6,269.1
		c-0.5,2.7-1,5.2-1.4,7.3c1.4,0.5,2.9,0.6,3.6,1.4c0.9,1,1.3,2.5,1.5,3.8c0.3,2.1,0.3,4.3,0.5,6.3c2.4,0.4,3.6-0.6,3.6-3.1
		c0-0.3,0.1-0.5,0.3-0.8c0.8-1.4,0.6-2.9,0.1-4.2c-0.9-2.5-2-4.9-3.1-7.3C193.7,270.4,191.5,270.1,189.6,269.1z M191,279.4
		c-0.8-0.9-3-1.3-3.8-0.7c-2,1.4-4.2,1.6-6.5,1.5c-1.8,0-3.5-0.2-5.1,0.9c-0.6,0.4-1.5,0.3-2.2,0.5c-0.3,0.1-0.9,0.3-0.9,0.5
		c-0.3,1.6-0.5,3.3-0.8,5C178.8,285.9,184.8,282.5,191,279.4z M189.9,307.9c0.2-5.5,0.4-11,0.6-16.6c-2.5,0.9-5.1,1.8-7.6,2.7
		c-0.1,0.1-0.1,0.2-0.2,0.4C188,297.4,188.8,302.8,189.9,307.9z M173.2,279.9c1.3,0.1,2.9-0.6,3-1.8c0.3-3.4,0.5-6.8,0.8-10.3
		c-1.3-0.1-2.3-0.1-3.4-0.3c-1-0.1-1.2,0.4-1.2,1.3C172.8,272.5,173,276.1,173.2,279.9z M113.1,313.6c1.2-0.2,2.4-0.4,3.5-0.6
		c1.1-0.3,1.5-1.1,1.3-2.2c-0.3-1.9-3.6-4.1-5.7-3.8C112.5,309.1,112.8,311.2,113.1,313.6z M118.6,293.5c-1.3-1.2-2.3-2.1-3.4-3
		c-0.2,1.2-0.4,2.3-0.7,3.6C116,293.8,117.2,293.7,118.6,293.5z M196.4,289.3c-1.2,0.1-2.1,0.1-2.8,0.4c-0.4,0.2-0.5,0.9-0.8,1.4
		c0.4,0.1,0.8,0.2,1.3,0.2c0.5,0,1,0,1.7,0C195.9,290.8,196.1,290.2,196.4,289.3z"/>
	<path class="st0" d="M146.1,114.1c-5.4-0.4-9.3-2.9-11.9-7.6c-0.9-1.7-1.9-3.5-2.8-5.2c-0.5-1-0.3-1.5,0.9-1.7
		c3.4-0.4,6.8-1,10.1-1.3c0.7-0.1,1.6,0.2,2.3,0.5c1,0.5,1.9,0.8,3,0.3c1-0.5,1.8-0.2,2.7,0.4c2.6,1.7,4.4,4,5.9,6.7
		c0.2,0.3,0.3,0.9,0.1,1.1c-1.4,1.7-2.7,3.5-4.3,5C150.5,113.8,148.3,114.2,146.1,114.1z M135.2,101.3c0.2,0.5,0.2,0.8,0.3,0.9
		c1.5,1.5,2.9,3.2,4.6,4.5c1.5,1.2,2.9,2.6,5.2,2.4c2.8-0.2,5.5-0.8,7.9-2.3c1.2-0.8,1.3-1.6,0-2.3c-1.1-0.5-2.3-1-3.4-1.2
		c-3.3-0.6-6.5-1-9.8-1.4C138.4,101.7,136.9,101.5,135.2,101.3z M134.4,103.1c-0.1,0.3-0.2,0.4-0.2,0.5c1.8,6,7.4,10.1,13.6,9.3
		c2.7-0.3,5.5-2.6,6.1-4.9c-1.1,0.4-2.1,0.9-3.1,1.2c-4.4,1.6-8.5,1.4-11.9-2.3C137.6,105.5,135.9,104.4,134.4,103.1z M152.2,102.5
		c-0.9-0.7-1.7-1.3-2.3-2c-0.6-0.6-1.3-0.8-2.1-0.4c-1.2,0.6-2.4,0.3-3.5-0.4c-0.5-0.3-1.1-0.6-1.6-0.6c-2.4,0.2-4.8,0.5-7.2,0.8
		c0,0,0,0.1,0,0.1C141.1,100.9,146.5,101.7,152.2,102.5z"/>
	<path class="st0" d="M135.5,66.8c0.9,0.1,1.7,0.2,2.6,0.3c3,0.4,4.1,2.7,4.9,5.2c0.3,0.9-0.1,1.5-1.1,1.7c-3.9,1.1-7.6,0.7-11-1.4
		c-1.9-1.2-4-1.8-6.2-1.9c-0.4,0-0.8-0.4-1.2-0.6c0.4-0.3,0.8-0.8,1.2-0.8c1.8,0.2,3.2-0.8,4.8-1.3c1.9-0.6,3.9-1.1,5.8-1.6
		C135.4,66.6,135.5,66.7,135.5,66.8z M137.5,73.2c0.8-0.1,1.7-0.1,2.6-0.3c1.2-0.2,1.4-1,1.2-2c-0.2-1.1-2-2.3-3.1-2.3
		C138,70,137.8,71.4,137.5,73.2z M130.7,70.8c0.1-0.6,0.3-1.1,0.5-2c-1,0.3-1.7,0.5-2.4,0.7c0,0.2,0,0.3,0,0.5
		C129.5,70.3,130.1,70.6,130.7,70.8z"/>
	<path class="st0" d="M168,74c3-0.3,4.7,1.6,6.5,3.2c0.6,0.6,1.1,1.3,1.6,2c0.2,0.3,0.2,1,0.1,1.2c-0.2,0.3-0.9,0.4-1.2,0.3
		c-1.3-0.6-2.5-0.4-3.7,0c-2.9,0.9-5.6,0.4-8.1-1.3c-0.6-0.4-1.1-0.8-1.8-1c-0.9-0.4-0.9-1.1-0.2-1.6C163.3,75.5,165.2,73.5,168,74z
		 M170.3,75.6c-0.3,1.6-0.5,2.9-0.7,4.3c1.2-0.4,2.2-0.7,3.2-1c0.2-0.1,0.3-0.7,0.2-0.9C172.2,77.2,171.4,76.5,170.3,75.6z"/>
	<path class="st0" d="M156.6,86.8c3.1,1,4.1,5.3,1.5,7.3c-1.2,0.9-2.6,1-3.6-0.1c-0.8-0.9-1.4-0.7-2.3-0.4c-0.8,0.3-1.7,0.5-2.6,0.6
		c-1.2,0.2-2.1-0.3-2.5-1.4c-0.4-1-1.1-1.1-2-0.9c-0.3,0.1-0.5,0.1-0.8,0.2c-2.9,1-5.4-2.1-4.7-4.5c0.3-1.1,1.5-1.9,2.3-2.9
		c0.1-0.1,0.4,0,0.5,0.1c0.1,0.2,0.1,0.5,0,0.6c-0.3,0.4-0.7,0.8-1.1,1.1c-1,0.8-1.1,1.9-0.5,2.9c0.6,1,1.3,2.1,2.8,1.6
		c0.6-0.2,1.3-0.2,2-0.3c1.1-0.1,2,0.2,2.4,1.4c0.5,1.3,1.5,1.2,2.5,1c0.6-0.1,1.2-0.5,1.8-0.7c1.1-0.4,2.1-0.4,3,0.5
		c0.4,0.4,1.3,0.8,1.6,0.7c0.7-0.4,1.4-1.2,1.6-1.9c0.3-1,0.1-2.2-0.8-3.1C157.2,88,156.9,87.3,156.6,86.8z"/>
</g>
</svg>
