<?xml version="1.0" encoding="utf-8"?>
<!-- Generator: Adobe Illustrator 19.2.1, SVG Export Plug-In . SVG Version: 6.00 Build 0)  -->
<svg version="1.1" id="Layer_1" xmlns="http://www.w3.org/2000/svg" xmlns:xlink="http://www.w3.org/1999/xlink" x="0px" y="0px"
	 viewBox="0 0 200 426.6" style="enable-background:new 0 0 200 426.6;" xml:space="preserve">
<style type="text/css">
	.st0{fill:#00BCD4;}
</style>
<g id="heartburn-boy">
	<path class="st0" d="M29.2,426.6c-0.3-3.7-0.6-7.4-1-11.1c-0.4-3.9-1-7.8-1.4-11.7c-0.5-4.8-1-9.7-1.5-14.5
		c-0.3-3.6-0.6-7.2-0.9-10.8c-0.7-8.7-1.4-17.5-1.9-26.2c-0.6-9.5-1.5-18.9-1.5-28.4c0-4.8,1.5-9.7,2.4-14.5
		c1.2-6.7,2.3-13.3,3.5-20c1.8-9.8,1.7-19.9,5.2-29.4c1.2-3.2,2.9-6.3,2.4-10.1c-2.5,1.2-5,2.3-7.5,3.5c-1.9,0.8-3.8,1.7-5.7,2.4
		c-3.7,1.4-7.8,0.4-9.8-3c-3.6-6.1-7.5-12.1-7.7-19.6c-0.1-5.4-1.1-10.8-1.1-16.1c0.1-8.6,1.3-17.1,3.3-25.5
		c1.3-5.7,2.3-11.6,3.5-17.3c0.6-2.7,1.4-5.4,2-8c0.5-2.1-0.8-3.5-2.2-4.8c-2.7-2.6-5.3-5.3-7.9-8c-2.4-2.4-1.2-5,1-7.5
		c2.1-2.4,4.6-4.6,6.8-6.9c1.1-1.2,2.1-2.4,3-3.8c5.3-8.3,11.5-15.8,18.8-22.4c2.9-2.6,6.4-3.1,10.1-3.2c3.6-0.1,7.2-0.1,10.8-0.2
		c1.6-0.1,3.3-0.4,4.9-0.8c3-0.8,6-1.5,8.9-2.7c3.6-1.4,7-3.2,10.5-4.8c0.8-0.4,1.5-0.9,2.4-1.1c4.1-1.1,5.6-4.3,6.4-7.9
		c0.8-3.6,1.3-7.2,1.4-10.9c0.1-3.3-0.4-6.6-0.7-10c0-0.4-0.6-0.8-0.9-1.3c-1.2-1.8-2.6-3.4-3.6-5.3c-1.3-2.6-0.2-5.1,1.3-7.3
		c2.9-4.4,6-8.6,8.8-13c0.9-1.4,1.3-3.1,1.8-4.6c2.3-6.1,5.3-11.7,10.4-16.1c2.8-2.5,5-5.7,7.4-8.7c2.5-3.1,4.6-6.6,7.3-9.5
		c1.7-1.8,4.2-3,6.5-4.1c4.5-2.2,9-1.4,13.6-0.3c2.2,0.5,3.8,1.4,5.2,3c0.6,0.6,1.9,0.8,2.9,0.8c3.3,0,7-1,9.9,0.1
		c3.9,1.3,7.6,3.7,10.8,6.7c3,2.8,4.4,6.5,6.1,10c2.7,5.4,3.7,11.3,5,17.1c0.5,1.9,0.4,4,0.5,6c0.3,4.7,0.5,9.3,0.8,14
		c0.3,4.2-1.6,7.8-2.5,11.7c-0.4,1.7-1.3,3.2-1.9,4.8c-1.2,3.1-3,5.8-5.5,8c-0.5,0.5-0.9,1.7-0.7,2.4c2.4,9.8-3.2,16.9-12,19.5
		c-2,0.6-4.3-0.2-6.5-0.2c-0.7,0-1.4,0-2,0.3c-1.3,0.7-2.5,1.5-3.7,2.4c-0.5,0.4-1.1,0.8-1.3,1.4c-0.9,1.9-1.7,3.9-2.4,5.9
		c-0.2,0.4-0.1,1.2,0.2,1.6c1.8,1.9,3.6,3.9,5.6,5.6c3.3,2.7,6.8,5.5,10.4,7.8c4.9,3.2,9.3,6.9,12.8,11.4c4.1,5.3,9.1,10,11.6,16.5
		c1.5,3.8,3.1,7.6,4.9,11.3c1.5,3,3.3,5.8,5,8.7c1.1,2,2.3,4.1,3.1,6.2c0.3,0.7-0.1,2.2-0.7,2.7c-1.9,1.7-3.9,3.1-6,4.6
		c-1.3,0.9-2.7,1.7-3.9,2.8c-0.7,0.6-1.4,1.6-1.4,2.3c0.4,7.4,1,14.8,1.5,22.2c0.2,3,0.5,6,0.8,9c0.5,4.2,1,8.3,1.7,12.4
		c0.7,4.8,1.5,9.6,2.5,14.3c1,4.6,2.6,9,3.4,13.6c1.4,8.2,2.3,16.5,3.4,24.7c0.6,4.2,1.1,8.5,1.4,12.7c0.1,1.9-0.7,3.8-0.5,5.7
		c0.3,4.9,0.8,9.7,1.4,14.5c1.9,14.8,0.4,29.6,0.6,44.4c0.1,3.9,0.8,7.7,1,11.6c0.1,1.9,0.1,4-0.6,5.6c-2.4,5.9-5,11.7-9,16.8
		c-2.9,3.7-6.9,5.4-11.3,6.2c-2,0.4-4.6-2.2-4.8-4.2c-0.3-2.8,0.5-4.8,3-6.5c1.8-1.2,3.2-3,4.7-4.6c0.4-0.4,0.6-1.1,0.6-1.6
		c0-0.4-0.5-0.8-0.8-1.2c-0.3,0.3-0.8,0.5-1,0.8c-0.5,0.8-1,1.8-1.5,2.6c-1.7,2.9-5.5,2.7-7.8,1.5c-0.7-0.4-1.4-1.5-1.4-2.2
		c0-5.8-0.2-11.6,0.2-17.3c0.4-6.5,2.5-12.6,4.6-18.7c2.2-6.3,2.4-12.8,1.1-19.3c-1.2-6.7-2.4-13.3-3.8-20c-0.3-1.5-1.1-3-1.6-4.5
		c-0.8-2.4-1.6-4.9-2.2-7.4c-1.8-6.9-3.4-13.7-5.2-20.6c-2.3-8.9-4.8-17.6-6.8-26.6c-1.2-5.7-1.7-11.6-2.3-17.4
		c-0.9-8-1.6-15.9-2.3-23.9c-0.4-3.8-0.6-7.6-0.9-11.4c-0.2-1.8-0.5-3.5-0.8-5.3c-0.1-0.3-0.5-0.7-0.8-0.7c-0.2,0-0.5,0.4-0.7,0.7
		c-0.1,0.1,0,0.4,0,0.6c0,10-0.4,20,0.1,30c0.5,8.5,2.1,16.9,3,25.4c0.6,4.8,0.9,9.7,1.2,14.6c0.2,3.4,0.3,6.8,0.4,10.2
		c0,0.5,0.1,1.2-0.2,1.5c-1.4,1.3-0.7,2.6-0.2,4c2.7,6.9,3.6,14.1,4.1,21.5c0.2,3.8,1,7.5,1.2,11.3c0.4,7.2,0.9,14.3,0.8,21.5
		c-0.1,7.4-0.7,14.8-1.2,22.2c-0.6,8.6-1.3,17.2-2,25.8c-0.4,5.2-1,10.4-1.1,15.6c-0.1,4.4,0.3,8.8,0.5,13.2
		c0.1,2.1,0.2,4.3,0.3,6.4c-18.7,0-37.4,0-56,0c-0.1-0.6-0.3-1.2-0.4-1.7c-0.9-4-1.8-8-2.6-12c-0.7-3.2-1.4-6.3-1.8-9.5
		c-0.6-5.9-0.9-11.8-1.3-17.7c-0.5-7.6-1.1-15.1-1.6-22.7c0-0.7-0.1-1.3-0.1-2c-0.2,0-0.4,0-0.6,0c-0.2,1.2-0.4,2.4-0.5,3.7
		c-0.3,3.2-0.5,6.4-0.8,9.6c-0.4,4.3-1.1,8.6-1.2,12.9c-0.2,13.2-0.1,26.4-0.1,39.6C68.7,426.6,49,426.6,29.2,426.6z M138,150.4
		c0.4,1.2,0.7,2.1,0.8,3c0.4,3.2-1,5.5-3.8,6.9c-6.8,3.5-13.5,7.1-20.4,10.4c-6,2.8-12.2,5.3-18.3,7.9c-2.9,1.2-4.8,3.6-6.6,6
		c-3.7,4.8-7.3,9.7-10.9,14.6c-0.8,1.1-1.3,2.6-2.4,3.4c-5.2,3.8-8.2,9.5-12.2,14.2c-4.2,5.1-7.8,10.7-12.1,15.7
		c-3.9,4.5-8.4,8.6-12.8,12.8c-1.3,1.2-2.4,2.3-1.7,4.4c0.3,1-0.1,2.1,0,3.2c0,0.5,0.3,1.3,0.7,1.5c2.1,1.2,4.3,2.4,6.5,3.4
		c5.6,2.6,11.2,5.1,16.9,7.6c3.3,1.5,6.6,3.1,10,4.4c2.8,1,5.8,1.6,8.6,2.5c0.7,0.2,1.2,1.3,1.7,1.9c-0.8,0.3-1.7,0.8-2.5,0.8
		c-6.2-0.6-11.9-2.9-17.5-5.7c-5.1-2.6-10.3-5.1-15.5-7.7c-3.1-1.6-6.3-3.1-9.4-4.7c-1,2.3-2.1,4.6-2.8,6.9
		c-0.8,2.6-1.4,5.3-1.8,7.9c-0.6,4.3-1.1,8.6-1.5,12.9c-0.2,1.4-0.8,3.4-0.1,4.2c2.4,2.7,4.9,5.4,7.9,7.4c4.1,2.7,8.5,5.2,13.5,6.3
		c5.9,1.4,11.8,3.8,17.8,4.2c8.5,0.5,17.2,0.1,25.7-0.7c8.9-0.9,17.5-3.7,25.6-7.8c4.8-2.4,9.6-4.9,14.5-7.1
		c3.7-1.7,7.5-3.1,11.2-4.7c1.8-0.8,2.8-2.2,2.8-4.3c-0.1-5.2-0.2-10.5-0.4-15.7c-0.1-1.5-0.4-3-0.6-4.5c-1-6.4-2-12.7-2.9-19.1
		c-0.4-2.6-0.4-5.2-0.6-8.1c-4.5,2.9-9.3,4.3-14.3,5.2c-6.8,1.4-13.5,3.1-20.5,2.9c-0.8,0-1.7-0.9-2.5-1.4c0.8-0.6,1.6-1.7,2.3-1.7
		c5.1,0.2,10-0.8,14.9-1.7c6.3-1.2,12.7-2.3,18.5-5.3c1.3-0.7,2-1.5,2-3.1c0-8.8,0.2-17.7,0.3-26.5c0-0.8,0.1-1.6,0.4-2.4
		c0.2-0.8,0.6-1.6,1-2.3c1-1.9,1.9-3.9,3.1-5.7c1.2-1.9,2.8-3.6,4.1-5.4c1.9-2.4,2.1-5.1,1.6-8.1c-0.6-3.7-0.8-7.4-0.9-11.2
		c0-0.7,0.9-1.5,1.4-2.2c0.4,0.7,1.2,1.4,1.3,2.1c0.5,3.4,0.6,6.8,1.3,10.1c0.9,4.7,0.2,8.8-2.6,12.7c-1.6,2.2-2.9,4.6-4.2,7
		c-1,1.7,0.6,4.2,2.4,3.9c5.1-0.9,10.3-1.5,15.2-3.1c7-2.3,13-6.6,18.5-11.5c3.3-2.9,3.3-3.4,0.7-6.9c-4-5.4-6.6-11.4-9-17.6
		c-2.4-6.2-5.2-12.1-10.9-16.4c-2.3,3.6-4.3,7.4-5.1,11.7c-0.2,1.1-0.3,2.7-2,2.6c-1.8-0.2-1.2-1.8-1.2-2.9c0-0.3,0.1-0.7,0.2-1
		c1.3-4.7,3.4-9.1,6.6-12.8c-5.2-8.2-14-11.9-21.2-18c-2,5.7-6.2,9.1-11.5,11.5c2.5,1.8,4.1,3.7,3.4,6.6c0,0.2,0,0.4,0.1,0.6
		C140.1,146.9,139.2,148.8,138,150.4z M17,159c0.8,5.1-1.5,9.4-3.2,13.9c-0.8,2.1-1.4,4.3-2,6.4c-0.3,1.3-0.4,2.8-0.6,4.1
		c-1.4,7.2-3.2,14.3-4.1,21.5c-0.9,7.4-1.6,14.9-0.5,22.4c0.5,3.6,0.5,7.3,1.7,10.6c1.5,4.2,3.7,8.2,6,12.1c0.8,1.4,2.6,2.9,4.6,2.2
		c3.9-1.4,8-2.6,11.4-4.8c7.5-4.7,13.3-11.4,19.2-17.9c5.2-5.7,9.6-12,14.2-18.1c3.1-4.1,5.9-8.3,10-11.5c0.3-0.2,0.6-0.6,0.8-0.9
		c2.4-3.1,4.7-6.3,7-9.4c1.5-2,3.1-4,4.7-6c3.3-4.1,6.4-7.9,12-9.3c4.8-1.2,9.3-3.8,13.9-5.9c5.4-2.5,10.8-5.2,16.2-7.8
		c1.4-0.7,2.8-1.4,4-2c-0.3-1.4-0.6-2.6-1-4.4c-3.9,2.1-7.7,4.1-11.5,6.2c-0.8,0.4-1.6,1.5-2.6,0.3c-0.9-1.2,0.1-1.9,0.9-2.5
		c1.7-1.1,3.5-2.2,5.3-3.1c3.2-1.5,6.4-2.9,9.5-4.3c-0.6-1.4-1-2.6-1.4-3.8c-4.6,1.4-9.1,2.8-13.6,4.1c-0.5,0.2-1.2-0.3-1.9-0.4
		c0.3-0.7,0.5-1.4,1-1.9c0.4-0.4,1.1-0.4,1.7-0.6c4.2-1.3,8.3-2.6,12.3-3.8c-0.4-1.6-0.7-3.1-0.9-4.1c-5.1,1.2-10.3,2.4-15.5,3.5
		c-0.6,0.1-1.7-0.1-1.9-0.5c-0.5-1,0.1-1.8,1.2-2.1c1.1-0.3,2.2-0.4,3.3-0.6c4.5-1,9-1.6,13.6-4.6c-1.3-0.2-2.1-0.5-2.8-0.4
		c-1.4,0.1-2.8,0.4-4.2,0.5c-4.9,0.6-9.8,0.8-14.7,1.7c-6,1.1-12.2,2.1-17.7,5.2c-1,0.6-3,0.9-3.6,0.3c-0.9-0.8-1.2-2.5-1.3-3.9
		c-0.1-1.2,0.5-2.4,0.5-3.5c0.1-2.1,0-4.3,0-6.4c-1.7,0.9-3.1,1.6-4.7,2.5c-0.2,1.2-0.5,2.8-0.9,4.3c-0.6,2.3-1.7,4.5-1.9,6.9
		c-0.4,3.6-0.3,7.4-0.5,11c-0.2,3.5-1.5,6.8-3.6,9.5c-1.5,1.9-3.4,3.5-5.2,5.3c-2.3,2.3-4.3,4.8-6.8,6.8c-6.1,5-12.3,9.8-18.5,14.8
		c-5.7,4.6-11.3,9.4-17.9,12.8c-3.3,1.7-6.5,3.8-8.5,7.1c-1.4,2.3-2.7,4.6-4.1,6.8c-0.6,0.9-1.3,2.3-2.6,1.3c-0.4-0.3-0.2-2,0.2-2.8
		c1-2.1,2.2-4.3,3.6-6.2c1.6-2.1,3.3-4.3,5.4-5.9c5.2-3.8,10.8-7.2,16.2-10.8c1.6-1.1,2.8-2.3,3.3-4.3c0.6-2.9,1.6-5.7,2.1-8.6
		c0.3-1.7,0.4-4.1-0.5-5.3c-1.7-2.1-4.1-3.9-6.5-5.3C29.6,166.1,23.5,162.7,17,159z M180.1,197.2c-2.7,1.3-5.1,2.9-7.7,3.7
		c-5.4,1.5-10.8,2.6-16.3,3.7c-2.5,0.5-2.8,0.4-2.5,2.9c0.4,3.3,0.9,6.6,1.3,9.9c0.6,4.6,1.4,9.1,1.8,13.7
		c0.8,9.6,1.1,19.3,3.3,28.7c1.7,7.2,3.8,14.2,5.6,21.4c2.2,8.6,4.3,17.3,6.6,25.9c2.3,8.9,4.5,17.8,7,26.7
		c2.6,9.3,2.6,18.3-0.8,27.4c-3,8-4.8,16.2-4.2,24.8c0.1,2.3-0.2,4.5-0.1,6.8c0,0.8,0.3,2,0.8,2.3c1.2,0.6,2.4,0.1,2.9-1.2
		c0.8-2.1,1.6-4.3,2.1-6.5c0.8-3.4,1.2-6.9,1.9-10.3c0.1-0.6,1-1,1.5-1.5c0.3,0.6,1,1.1,1,1.7c0.2,5.4,0.2,10.7,0.4,16.1
		c0.1,4.4-0.6,6-5.8,8.6c-1.5,0.8-2.8,2.9-2.1,4.4c0.9,1.9,2.7,1.5,3.8,0.8c2.8-1.9,6-3.8,8-6.5c2.6-3.4,4-7.7,6.1-11.5
		c2-3.5,2.4-7.2,1.3-11c-0.1-0.4-0.1-0.9-0.1-1.4c0-9.1,0.2-18.3,0.1-27.4c-0.1-8.5-0.5-17-0.8-25.5c-0.3-6.4-0.5-12.8-1.1-19.2
		c-0.7-7-1.6-14.1-2.6-21.1c-1.1-8.5-2.6-17-4.8-25.3c-1.4-5.5-2-11.1-2.9-16.7c-0.7-4.5-1.4-9.1-1.9-13.7c-0.3-2.1-0.3-4.3-0.4-6.4
		c-0.4-7.4-0.8-14.7-1.2-22.1C180,198.7,180.1,198,180.1,197.2z M93.9,55.1c0.2,1.4,0.6,2.5,0.4,3.4c-0.9,4.3,0.1,8.5,1.1,12.6
		c0.7,3,2,5.9,3.7,8.5c2.5,3.7,6.7,5.6,10.6,7.7c1.8,1,4,1.4,5.6,2.6c3.9,2.8,8.2,4.5,12.7,5.7c5.8,1.6,11.6,1.9,16.7-2
		c1.8-1.4,3.3-3.3,5.2-4.6c6.5-4.6,9.8-11.1,11.8-18.5c1-3.5,1.5-7.2,2.7-10.6c1.7-4.7,1.5-9.3,0.6-14c-0.6-3-1.6-5.9-2-8.9
		c-0.7-6.4-4.3-11-9.3-14.3c-3.4-2.3-7.2-4.1-11.2-5.7c-7.1-2.9-13.5-1.6-20,1.4c-3.9,1.8-6.3,5.1-9.4,7.8c-1.2,1.1-2.3,2.3-3.1,3.6
		c-2.6,4-5.1,8.2-7.6,12.2c-1.5,2.4-3.1,4.8-4.6,7.2c-0.5,0.7-0.6,1.6-1.1,2.3c-0.4,0.5-1.1,1.3-1.6,1.2c-0.7-0.1-1.6-0.7-2-1.3
		c-0.6-0.9-0.8-2-1.3-3.5c-0.8,0.7-1.5,1.2-2,1.9c-1.8,2.7-3.5,5.5-5.3,8.2c-2.5,3.8-2.6,4.4,0,8.2c1.7,2.5,2.6,2.8,5.6,1.9
		c0.8-0.3,1.8-0.6,2.1-1.2c1.3-2.7,0.5-4.7-2.1-6.4c-1,0.7-2,1.4-3,2c-1.1,0.6-1.9,0.1-1.6-1.1c0.5-1.8,1.2-3.4,2-5.1
		c0.1-0.3,0.8-0.3,1.3-0.5c0,0.5,0,1-0.1,1.4c-0.4,1-0.8,2-1.3,3c1.7-1.3,3.2-2.2,4.9-0.3C93.7,58.4,91.7,56.3,93.9,55.1z M80,129.1
		c-7.1-5.2-10.1-12.5-12.4-20.5c-2.8,0.9-5.6,1.8-8.4,2.7c-1.6,0.5-3.3,1.2-5,1.3c-4.5,0.3-9.1,0.3-13.7,0.5c-1.5,0.1-3,0.3-4.7,0.5
		c0.4,0.7,0.6,1.1,0.8,1.4c1.7,2.5,3.8,4.6,4.4,7.7c0.2,1.3,1,3-0.7,3.4c-1.9,0.6-1.9-1.4-2.2-2.6c-0.8-3.2-2.8-5.7-5-8.7
		c-2.8,2.9-5.4,5.5-7.8,8.4c-3.2,3.8-6.4,7.6-9.1,11.7c-2,3-4,6-6.6,8.5c-1.8,1.6-3.5,3.2-5,4.7c13.2,7.1,25.3,15.2,38.4,22.4
		c-0.9-6.1-1.8-12-2.5-17.9c-0.4-3.4-0.8-6.7-1-10.1c0-0.6,0.9-1.3,1.3-1.9c0.5,0.6,1.3,1.2,1.4,1.9c0.4,2.8,0.5,5.6,0.9,8.3
		c0.5,3.5,1.3,7,2,10.5c1.9-4.1,5-7,8-10c1.1-1.1,2.3-0.9,2.4,0.3c0.1,0.7-0.4,1.7-0.9,2.2c-3.8,3.6-6.8,7.7-8.2,12.8
		c-0.3,0.9-0.3,1.9-0.1,2.9c0.7,4.9,1.6,9.8-0.4,14.7c-0.3,0.7-0.3,1.5-0.5,2.7c1.9-1.6,3.3-2.9,4.8-4.1c4.5-3.6,9.1-7,13.5-10.7
		c2.8-2.4,5.1-5.3,7.7-7.8c3.6-3.4,5.5-7.5,5.6-12.5c0.1-4,0.3-8.2,1.3-12.1C79.1,136,80.2,132.5,80,129.1z M92.7,69.7
		c-2,0.6-1.9,0.6-2,2.6c0,2-0.1,4-0.4,6c-0.8,5-1.7,9.9-2.8,14.9c-0.8,3.6-2.3,6.9-5.6,8.8c-3,1.8-3.8,3.8-2.6,7.1
		c1.2,3.5,4,5.8,6.2,8.5c3.2,4.1,6.9,7.2,12,8.9c7.2,2.3,14.5,3.6,22.1,3.1c4.6-0.3,9-1.8,11.9-5.3c2.8-3.2,4.8-7.1,6.9-10.9
		c2-3.6,3.8-7.3,5.6-11c0.7-1.5,1.5-3.1,1.7-4.7c0.2-1.4-0.6-2.2-2.1-1.2c-4,2.7-8.5,2.7-12.8,1.7c-11.6-2.9-22.3-7.9-31.9-15.2
		c-2.5-1.9-3.9-4.3-4.7-7.2C93.9,73.8,93.4,71.8,92.7,69.7z M139.8,118.2c-0.9,1.4-1.6,2.3-2.1,3.3c-3.3,6.7-9.3,9.7-16.1,10.8
		c-4.3,0.7-8.8,0.2-13.2-0.4c-7.2-0.9-14.1-2.8-20-6.8c0.4,1.9,0.8,3.9,1.3,5.9c0.1,0.3,0.3,0.8,0.5,0.9c2,1.1,4.1,2.2,6.2,3.2
		c0.8,0.4,2,0.5,2.5,1.1c1,1.1,1.9,0.9,3.2,0.6c6.6-1.4,13-3.3,19.9-3c1.5,0.1,3.1-0.2,4.6-0.5c2.5-0.6,4.8-0.7,6.2,2.1
		c0.6-0.3,1-0.6,1.5-0.8c4.5-1.7,7.7-4.7,9.4-9.1c0.3-0.8,0.6-1.9,0.2-2.4C142.7,121.5,141.3,120,139.8,118.2z M161.3,88.7
		c0.4-2,2-2.2,3.2-2.2c0.8,0,2.1,1.3,2.1,2c-0.1,6.7-1.3,8.9-7,11.2c-3.5,1.4-5.3,0.4-6.2-3.1c-0.1-0.4,0-1-0.2-1.2
		c-1.1-0.8-2.3-1.7-3.5-2.2c-0.3-0.1-1.5,0.9-1.7,1.6c-1,2.9,2.9,7.9,5.4,8c3.9,0.1,7.3-1.1,10.1-3.7c3.4-3.1,4.2-7.1,3.6-11.6
		c-0.4-3.1-1.4-3.6-4.5-3.4c-5.4,0.4-8.5,4.3-12.1,7.5c1.3,0.8,2.4,1.5,3.6,2.2c0.9,0.5,3.2-1,3.3-2c0-0.4,0.4-0.7,0.6-1
		c0.3,0.2,0.7,0.4,0.8,0.7c0.6,1.6-0.3,3.3-2,3.4c-1.6,0.1-2.3,0.6-2,2.2c0.3,1.5,1.3,2.1,2.8,1.9c4.1-0.7,7-3.9,7.3-8
		c0.2-3,0-3.1-2.8-2C162.1,88.9,161.8,88.8,161.3,88.7z M149.4,320.9c-1.3-0.3-2.8-0.6-4.2-1c-1.4-0.4-2.8-0.9-4.2-1.4
		c-3.1-1.2-4.1-2.7-4.2-5.9c0-1.5-0.1-3.1-0.1-4.6c-0.1-1.5-0.6-2.7-2.3-2.7c-1.7,0.1-2.1,1.3-2.1,2.7c0.1,2.6,0.4,5.2,0.4,7.8
		c0,1.8,0.5,3.1,1.7,4.3c4,4.2,9.4,5,15,6C149.4,324.1,149.4,322.6,149.4,320.9z M76,104.5c-1.1,0.6-2.1,1-3,1.5
		c-2.8,1.4-2.7,1.4-1.9,4.6c1.1,4.6,3.8,8.3,6.3,12.1c0.8,1.3,2,2.3,3.4,3.9c1.2-3.1,2.6-5.1,6-3.2c-2.5-3-5.2-5.6-7.4-8.5
		C77.2,111.9,75.7,108.6,76,104.5z M47.3,313.9c0-0.2,0-0.6,0-1c-0.1-1.5-0.2-3-2.1-3.1c-1.9-0.1-2.1,1.5-2.2,3
		c-0.1,1.1-0.1,2.4-0.6,3.3c-1.9,2.9-4,5.7-6,8.4c-0.7,1-1.7,1.7-2.3,2.7c-0.7,1.2-0.6,2.6,0.7,3.1c0.8,0.4,2.5,0.3,3-0.2
		c2.5-2.6,5-5.4,7.1-8.4C46.4,319.6,47.6,317,47.3,313.9z M97.1,324.1c-1.5-0.6-2.2-0.4-2.5,0.9c-0.3,1.4-1,2.6-1.2,4
		c-0.5,2.6-1,5.3-1.3,7.9c-0.3,2-0.3,4.1-0.5,6.2c2.5,0.5,2.7-1,3-2.5c0.6-3.2,1.3-6.4,1.9-9.6C96.8,328.7,96.9,326.3,97.1,324.1z
		 M13.2,161.2c0.2-0.2,0.4-0.3,0.6-0.5c0.2-4.2,0.2-4.2-3.3-6.4c-0.7-0.4-1.3-0.9-2.1-1.2c-1.2-0.6-2.4-1-3.6-1.5
		c-0.1,0.1-0.1,0.3-0.2,0.4C7.6,155.1,10.4,158.2,13.2,161.2z M96.5,138.1c-2.3-1.1-4.5-2.2-6.7-3.3c-0.2,2.2-0.4,4.3-0.6,6.7
		C91.8,140.3,94.1,139.2,96.5,138.1z M133.7,143.7c0.4,0,0.7,0,1.1,0.1c0.4-0.6,1.3-1.5,1.2-1.9c-0.4-0.9-1.3-1.5-2-2.2
		c-0.1-0.1-1,0.6-1,0.8C133,141.6,133.4,142.6,133.7,143.7z M82,129c2.5,0.3,2.8-1.7,4.1-2.3c-0.5-0.7-0.9-1.3-1.6-2.4
		C83.4,126.2,82.8,127.4,82,129z M134,156.9c0.4,0.1,0.8,0.1,1.2,0.2c0.4-1,0.9-1.9,1.2-2.9c0.1-0.3-0.5-1.2-0.6-1.1
		c-0.6,0.1-1.5,0.4-1.6,0.7C133.9,154.8,134,155.9,134,156.9z M134.5,149.3c0.3,0,0.6,0,0.9,0c0.8-0.8,2.1-1.4,1.2-2.8
		c-0.2-0.3-1.9-0.1-2,0.2C134.3,147.4,134.5,148.4,134.5,149.3z"/>
	<path class="st0" d="M125,53.8c1.1,0.4,2.2,0.8,3.3,1.2c1.1,0.4,2.2,0.6,3.2,1.1c3.7,1.8,5.5,5,6.2,8.8c0.4,2.1,0.7,4.2,0.7,6.4
		c0,1.1-0.5,2.3-1,3.4c-0.1,0.2-0.9,0.2-1.2,0c-0.8-0.6-1.5-1.3-2.2-2c-3.7-4.1-7.7-7.9-13.4-9c-1.9-0.4-4-0.1-6-0.3
		c-0.8-0.1-2.2-0.3-2.2-0.7c-0.1-1-0.1-2.5,0.5-3C116.5,57.1,120,54.2,125,53.8z M115.8,60.3c8.1,0.8,14.8,4.1,19.9,10.5
		c0.5-3.6-0.1-6.3-1.4-9.2c-1.5-3.3-4.8-4.1-7.6-5.1C122.4,54.9,119.2,58.1,115.8,60.3z"/>
	<path class="st0" d="M122.1,31.5c4.3,0.4,7.8,3.3,8.2,7.2c0,0.4-0.7,1.3-1,1.3c-1.3-0.1-2.6-0.3-3.8-0.8c-1.6-0.7-3.1-1.8-4.7-2.5
		c-1.1-0.4-2.4-0.3-3.6-0.5c-0.8-0.1-1.6-0.3-2.4-0.5c0.5-0.6,0.8-1.5,1.5-1.8C118.1,33,120.1,32.3,122.1,31.5z M117.4,34.4
		c1.2,1.6,2.3,0.5,3.4,0.1c0.2-0.1,0.1-0.7,0.2-1c-0.9,0-1.7,0-2.6,0.1C118,33.7,117.7,34.1,117.4,34.4z M128,39.1
		c0.2-0.2,0.3-0.4,0.5-0.6c-0.3-0.9-0.7-1.7-1.2-2.8c-0.7,0.8-1.2,1.3-1.9,2C126.4,38.2,127.2,38.6,128,39.1z"/>
	<path class="st0" d="M135.8,29.8c-0.6-0.2-1-0.4-1.4-0.6c-6.3-3.3-12.5-2.3-18.8-0.1c-0.6,0.2-1.4-0.1-2-0.1
		c0.4-0.6,0.7-1.6,1.2-1.7c3.6-0.9,7.2-1.7,10.8-2.5c3.3-0.6,6.5-0.2,9.5,1.3c0.7,0.3,1.4,0.8,1.8,1.5c0.3,0.4,0.3,1.2,0.1,1.6
		C136.9,29.5,136.2,29.6,135.8,29.8z"/>
	<path class="st0" d="M165.1,51.6c0,0.2,0,0.9-0.3,1.3c-0.3,0.5-0.9,0.8-1.4,1.2c-0.3-0.5-0.7-1-0.7-1.5c0.2-5.9-4.2-8.7-8.1-11.8
		c-0.3-0.2-0.8-0.2-1.1-0.4c-0.6-0.3-1.1-0.8-1.6-1.2c0.7-0.7,1.3-1.4,2-2c0.1-0.1,0.5,0,0.8,0.1C158.3,38.5,165,47.2,165.1,51.6z"
		/>
	<path class="st0" d="M145.5,47.9c1.2-1.5,5.8-2.2,7.9-1c3.7,2,6,7.1,4.8,10.4C154,54.2,149.8,51.1,145.5,47.9z M152,47.4
		c-1.4,0-2.4,0-3.5,0c-0.3,0-0.6,0.3-0.7,0.6c-0.1,0.2,0.2,0.6,0.4,0.8C149.4,49.8,150.7,49.5,152,47.4z M157,55.2
		c0.2-0.2,0.5-0.3,0.7-0.5c-0.4-1-0.8-1.9-1.2-3.1c-0.6,0.5-1,0.9-1.6,1.4C155.5,53.8,156.2,54.5,157,55.2z"/>
	<path class="st0" d="M129.2,49.5c-0.2-0.4-0.8-1-0.8-1.6c0-1.5,1.1-2.3,2.5-2.1c0.7,0.1,1.7,0.8,1.9,1.5
		C133.1,48.3,131.3,49.6,129.2,49.5z"/>
	<path class="st0" d="M140.6,51.5c-1.2,0.8-1.8,1.5-2.4,1.5c-1.9,0-1.9-1.6-2-2.8c-0.1-0.5,0.8-1,1.2-1.5
		C138.2,49.4,139.1,50.2,140.6,51.5z"/>
</g>
</svg>
