<?xml version="1.0" encoding="utf-8"?>
<!-- Generator: Adobe Illustrator 19.2.1, SVG Export Plug-In . SVG Version: 6.00 Build 0)  -->
<svg version="1.1" id="Layer_1" xmlns="http://www.w3.org/2000/svg" xmlns:xlink="http://www.w3.org/1999/xlink" x="0px" y="0px"
	 viewBox="0 0 200 202.7" style="enable-background:new 0 0 200 202.7;" xml:space="preserve">
<style type="text/css">
	.st0{fill:#00BCD4;}
</style>
<g id="hemorrhoids-girl">
	<path class="st0" d="M192.6,202.7c0.3-1.6,0.6-3.1,0.9-4.7c0.3-2.3,0.6-4.6,0.9-6.9c0.3-2.2,0.5-4.4,0.8-6.6c0.2-2,0.4-3.9,0.6-5.9
		c0.3-2.9,0.5-5.8,0.8-8.6c0-0.1,0-0.3,0-0.4c0.1-4.3,0-8.6,0.2-12.9c0.1-2.6,0.6-5.1,0.9-7.7c0.2-1.4,0.4-2.8,0.4-4.2
		c0.1-4,0.1-8,0-12c-0.1-3.4-0.1-6.8-0.4-10.2c-0.5-5.1-0.5-10.3-0.6-15.4c0-2.8-0.4-5.6-0.6-8.5c0-0.2-0.2-0.5-0.3-0.8
		c-0.3,0.2-0.6,0.3-0.8,0.5c-2,2-4,4-6,6c-0.7,0.7-1.4,1.6-2.1,2.2c-2.2,1.9-3.8,4.4-5.3,6.9c-1.5,2.4-3.1,4.7-5.1,6.7
		c-3.1,3-6,6.2-9.2,9.1c-3,2.8-6.1,5.5-9.2,8.2c-3.4,3.1-6.8,6.3-10.2,9.5c-0.6,0.5-1.1,1.2-1.6,1.8c-3.3,3.8-6.5,7.7-9.8,11.5
		c-2,2.3-3.9,4.6-6,6.7c-2.5,2.5-5.5,4.4-8.7,6.1c-1.5,0.8-2.9,1.7-4.4,2.6c-3.3,2.1-6.8,3.5-10.9,4.5c0.6,0.6,1,1.3,1.5,1.7
		c3,2.4,6.5,4,10,5.5c1.6,0.7,3.5,1,5.2,1.5c0.8,0.2,1.7,0.5,2.5,0.8c0.3,0.1,0.7,0.7,0.6,0.9c-0.1,0.3-0.6,0.6-0.9,0.8
		c-0.1,0.1-0.4,0-0.6-0.1c-2.2-0.7-4.5-1.2-6.7-2.1c-1.9-0.7-3.6-1.6-5.4-2.5c-1.5-0.7-2.9-1.5-4.5-2.3c-0.1,0.7-0.2,1.1-0.1,1.6
		c0.2,5.3-0.7,10.4-2.3,15.4c-0.1,0.4-0.2,0.7-0.3,1.1c-0.6,0-1.2,0-1.8,0c0.1-0.6,0.1-1.3,0.3-1.9c1.6-4.7,2.4-9.6,2.1-14.6
		c-0.1-1.5-0.3-3-0.7-4.4c-0.2-0.9-0.6-1.8-1.6-2.4c-3-1.6-5.9-3.2-8.9-4.8c-1.4-0.7-2.9-1-4.5-0.8c0.1,0.2,0.1,0.4,0.2,0.5
		c1.7,3.3,2.4,6.9,3.1,10.4c0.5,2.7,0.9,5.4,1.4,8.2c0.2,1.1,0.6,2.3,0.8,3.4c0.4,2.1,0.7,4.2,1,6.3c-0.7,0-1.3,0-2,0
		c-0.1-0.7-0.3-1.4-0.4-2.1c-0.7-3.6-1.3-7.2-2-10.8c-0.4-2.3-0.9-4.6-1.2-6.9c-0.4-3-1.4-5.9-2.8-8.6c-0.1-0.2-0.4-0.5-0.6-0.4
		c-2.3,0.2-4.6,0.3-6.8,0.8c-2.9,0.6-5.8,1.5-8.6,2.2c-0.3,0.1-0.7,0.2-1,0.4c-2.4,1.9-5.1,3.4-8,4.6c-2,0.8-4.1,1.6-6,2.5
		c-1.7,0.8-3.4,1.1-5.2,1.2c-0.3,0-0.9-0.5-1-0.8c-0.1-0.6,0.4-0.7,1-0.8c1.3-0.2,2.6-0.4,3.8-0.8c2.8-1.1,5.5-2.3,8.3-3.5
		c1.1-0.5,2.1-1.2,3.4-1.8c-3.4,0-6.6,0-9.7,0c-3.5,0-6.7-1-9.6-3.1c-3-2.2-6.1-4.4-9.1-6.7c-2.5-1.9-4.8-4-7.1-6.1
		c-2.5-2.4-4.8-5.1-7.2-7.5c-2.2-2.2-4-4.5-5.7-7.1c-2.2-3.4-4.2-6.9-5.9-10.6c-0.5-1.1-1-2.3-1.7-3.3c-1.5-2.2-3.1-4.4-4.5-6.6
		c-1.6-2.6-3-5.3-4.6-8c-0.1,0.3-0.2,0.6-0.2,0.9c-0.1,1.7-0.3,3.4-0.4,5.1c-0.3,3.5-0.6,7-0.8,10.5c-0.1,3.5,0,7,0,10.6
		c0,0.6,0.1,1.3,0.3,1.9c0.9,2.6,1,5.3,1.3,7.9c0.2,1.7,0.4,3.4,0.7,5.1c0.6,3.3,1.4,6.6,1.8,9.9c0.3,2.6,0.4,5.3,0.4,8
		c0,2-0.2,4.1-0.2,6.1c0,6,0,11.9,0,17.9c-0.6,0-1.2,0-1.8,0c0-8.9,0-17.7,0-26.6c0-2.5-0.2-5-0.8-7.5c-0.4-1.7-0.4-3.5-0.8-5.2
		c-0.7-3.2-1.1-6.5-1.4-9.8c-0.2-2.2-0.8-4.3-1.2-6.4c-0.1-0.4-0.1-0.7-0.1-1.1c0-3.9-0.1-7.8,0-11.7c0.1-3.5,0.5-7.1,0.8-10.6
		c0.2-1.9,0.2-3.9,0.6-5.8c0.8-3.8,1.8-7.6,2.6-11.4c0.3-1.3,0.4-2.6,0.5-3.9c0.1-2.5,0.6-4.8,1.8-7c0.6-1,1-2.4,0.9-3.5
		c-0.2-3.4,1.3-6.4,2.1-9.6c0.9-3.4,2.7-6.3,4.1-9.4c1.6-3.5,3-7.1,4.6-10.7c1.2-2.6,2.5-5.2,3.6-7.8c0.9-2.1,1.7-4.3,2.5-6.4
		c1.3-3.2,2.5-6.3,3.8-9.5c0.8-2.1,1.4-4.3,2.4-6.3c0.9-1.9,2.3-3.6,3.4-5.5c0.5-0.9,1.1-1.7,1.5-2.6c1.4-2.9,2.8-5.8,3.6-8.9
		c0.3-1.2,0.9-2.4,1.2-3.6c0.8-3.4,0.9-6.8,0.8-10.3c0-0.4,0-0.7,0.1-1.1C41.3,0.3,41.6,0,41.8,0c0.2,0,0.6,0.4,0.6,0.6
		c-0.1,2.7,0.3,5.3-0.1,8c-0.4,3-1.2,5.9-2.2,8.7c-1.4,3.9-3,7.8-5.5,11.3c-1.6,2.3-3.1,4.7-3.9,7.5c-1,3.3-2.5,6.4-3.7,9.6
		c-0.7,1.7-1.2,3.5-1.9,5.2c-0.9,2.1-1.8,4.2-2.7,6.3c-0.4,0.8-0.8,1.6-1.2,2.4c1.9-0.6,3.7-1.2,5.5-1.6c2.7-0.6,5.4-1,8.1-1.6
		c1-0.2,2-0.4,3-0.6c2.1-0.4,4.3-0.7,6.4-1c2.2-0.4,4.5-0.9,6.7-1.1c1.8-0.2,3.6,0,5.4-0.1c7.8-0.1,15.7-0.1,23.5-0.2
		c2.9,0,5.8,0,8.6-0.4c2.9-0.4,5.7-0.5,8.6-0.5c2.3,0,4.6,0,6.9-0.2c5.3-0.6,10.7-0.6,16-0.5c0.8,0,1.7,0.1,2.4,0.5
		c1,0.5,1.6,0.3,2.1-0.6c1.4-2.3,2.7-4.7,4.2-6.9c2.2-3.1,4.6-6.1,6.9-9.1c2.5-3.3,5-6.6,7.6-9.8c3.3-4.1,6.1-8.6,9.9-12.4
		c1-1,1.7-2.3,2.5-3.5c1.6-2.5,3.1-5,4.7-7.4c0.2-0.3,0.7-0.4,1-0.5c0,0.4,0.3,0.9,0.1,1.2c-1,1.7-2.1,3.3-3.1,4.9
		c-1.3,2-2.5,4.1-3.9,6c-1.4,1.9-3,3.6-4.5,5.5c-1.1,1.4-2.1,2.9-3.3,4.3c-2.8,3.6-5.3,7.4-8.6,10.7c-2,1.9-3.5,4.3-5,6.6
		c-2.6,4-5,8.1-7.6,12.1c-2.3,3.5-5.3,6.4-8.7,8.9c-1.9,1.4-3.7,3-5.5,4.6c-2.8,2.4-5.6,4.9-8.4,7.4c-1.9,1.7-3.6,3.7-5.4,5.5
		c-1.3,1.4-2.7,2.8-3.9,4.3c-1.5,1.9-3,3.8-4.3,5.8c-1.4,2.2-2.6,4.5-4,6.7c-1.5,2.3-2.2,4.9-3.2,7.4c-1.2,3-2.3,6-3.6,8.9
		c-1.5,3.4-3.3,6.8-4.8,10.2c-0.8,2-1.3,4.1-1.9,6.1c-0.1,0.2,0.3,0.7,0.5,0.8c0.6,0.2,1.2,0.3,1.8,0.5c0.9,0.2,0.9,0.2,2,2
		c1-2.2,1.9-4.4,2.8-6.5c1.2-2.9,2.8-5.5,4.9-7.9c1.3-1.5,2.6-3.1,3.6-4.8c0.6-1,0.9-2.3,1-3.5c0.2-3.6,0.1-7.2,0.3-10.7
		c0-0.4,0.5-1,0.9-1.2c0.5-0.2,0.9,0.3,0.9,0.9c0,2.6,0.2,5.3,0.1,7.9c0,1.8-0.2,3.5-0.6,5.2c-0.5,2.5-1.8,4.6-3.1,6.7
		c-1,1.6-1.6,3.5-2.4,5.3c-0.3,0.7-0.4,1.4-0.8,2.1c-1.7,2.9-2.8,6-3.9,9.1c-1.3,3.5-2.7,7.1-5.1,10.1c-0.9,1.1-1.3,2.5-1.9,3.9
		c-0.1,0.2,0,0.5,0,0.7c1.1-0.8,2.1-1.9,3.3-2.3c1.2-0.4,2.7-0.4,3.8,1c1.5-2.3,2.9-4.4,4.3-6.6c0.9-1.5,2-3,2.6-4.7
		c1.1-3.2,3.4-5.7,4.8-8.6c0.8-1.7,1.4-3.5,2.1-5.1c1-2.3,2.3-4.4,3.2-6.7c0.9-2.4,2.2-4.5,3.7-6.6c0.3-0.4,0.6-0.8,1-1
		c0.3-0.2,0.8,0,1.3,0c0,0.4,0.1,1-0.1,1.3c-1.2,2-2.6,3.8-3.6,5.8c-1.2,2.5-1.8,5.2-3,7.6c-1.6,3.3-3.5,6.4-5.2,9.7
		c-0.8,1.5-1.4,3.2-2.2,4.8c-1,2.2-1.8,4.4-3.4,6.4c-1.9,2.3-3.5,4.8-5.2,7.2c-0.8,1.2-1.6,2.3-2.3,3.6c-0.4,0.7-0.6,1.6-0.8,2.4
		c0.1,0,0.2,0.1,0.3,0.1c0.3-0.3,0.7-0.6,0.8-0.9c0.6-1.4,3-1.8,4.2-1.2c0.7,0.3,1.4,0.7,2.1,1.1c0.6,0.3,1.1,0.8,0.6,1.5
		c-0.5,0.6-1,0.2-1.6-0.1c-0.9-0.6-1.7-1.4-2.9-1.2c-0.4,0.1-0.8,0.3-1.2,0.6c-0.7,0.5-1.2,1.1-1.9,1.6c-0.6,0.5-0.2,0.9,0.1,1.2
		c1.3,1.3,4.2,1.2,5.6,0c3-2.6,5.3-5.9,7.8-9c2.8-3.5,5.3-7.2,7.1-11.2c1.3-2.8,3.2-5.1,4.7-7.7c0.6-1,1.6-1.8,2.5-2.7
		c2.6-2.6,4.9-5.4,6.6-8.7c0.3-0.5,0.7-1,1.2-1.4c0.2-0.2,1-0.1,1.1,0.1c0.2,0.4,0.3,1,0.1,1.3c-0.9,1.6-2,3.2-2.9,4.8
		c-0.1,0.1-0.2,0.3-0.2,0.5c-0.1,2-1.3,3.4-2.2,5c-0.7,1.2-1.2,2.6-1.7,3.9c-1.1,2.8-2.1,5.7-3.2,8.6c-0.6,1.5-1.3,2.9-2,4.3
		c-1.8,3.7-3.7,7.3-5.6,11c-0.3,0.6-0.7,1.2-1.1,2c2.8-0.5,4.3,1,5.6,3.1c0.8-1,1.5-1.9,2.2-2.8c1.1-1.4,2.2-2.8,3.1-4.3
		c1.4-2.4,2.7-4.9,4.1-7.2c1.3-2.1,2.7-4.2,4-6.3c1.8-2.9,3.3-5.9,4-9.3c0.1-0.5,0.3-1,0.6-1.5c1.1-2.3,2.2-4.6,3.3-6.9
		c0.4-0.8,0.9-1.5,1.6-2.1c1.8-1.9,3.7-3.8,5.6-5.6c1-1,2.3-1.7,3.4-2.6c1.7-1.4,3.6-2.6,4.3-4.8c0.2-0.7,0.2-1.6,0.3-2.3
		c0-0.1,0-0.3,0-0.4c0.2-0.7,0.1-1.6,1.1-1.5c0.8,0,1,0.7,0.8,1.8c-0.3,1.5-0.5,3-0.9,4.4c-0.2,0.7-0.9,1.3-1.5,1.8
		c-0.8,0.7-1.5,1.2-1.3,2.6c0.6,4.9,0.9,9.8,1,14.8c0,2.9,0.6,5.8,1.9,8.5c0.4,0.8,1.1,1.4,1.7,2.1c0.1,0,0.2-0.1,0.3-0.1
		c0.1-1.1,0.1-2.2,0.2-3.3c0.1-1.5,0.3-3.1,1.4-4.2c0.5-0.5,1.2-1,1.9-1.1c0.7-0.1,0.9-0.4,1.1-0.9c0.4-1.3,1-2.6,1.4-3.9
		c0.3-1,0.6-1.9,0.6-2.9c0.3-3.7,0.7-7.5,0.7-11.2c0-3,0.6-6.1-0.5-9.1c-0.5-1.3-1.2-2.6-1.6-4c-0.8-2.7-1.3-5.4-2-8.1
		c-0.4-1.5-0.8-2.9-1.2-4.4c-0.3-1.3-0.7-2.6-0.8-3.9c-0.1-2.3,0-4.5,0-6.8c0-2.6,1.1-4.6,2.7-6.5c2-2.5,4.1-4.9,6.2-7.4
		c2-2.3,3.9-4.6,5.9-6.9c3.5-4,6.9-8,9.9-12.4c1.1-1.7,2.6-3.1,3.9-4.6c1.7-2,3.5-4.1,5.2-6.2c0.8-0.9,1.6-1.9,2.5-2.7
		c1.7-1.5,2.7-3.4,3.8-5.2c2-3.4,3.8-6.9,6.1-10.1c2-2.8,3.7-5.7,5.6-8.5c0.8-1.2,1.2-2.7,1.7-4.1c0.2-0.5,0.4-1,1-0.8
		c0.7,0.2,0.4,0.7,0.3,1.2c-0.6,2.1-1.4,4-2.7,5.7c-1.1,1.4-1.7,3.2-2.8,4.6c-3.5,4.2-5.6,9.3-8.7,13.8c-0.1,0.2-0.3,0.4-0.2,0.3
		c0.3,0.8,0.8,1.5,0.8,2.1c0,1.6,0.4,3.1,1,4.6c0.6,1.6,0.9,3.4,1.3,5.1c0.5,2.4,1,4.9,1.6,7.3c0.8,3.3,1.6,6.5,2.4,9.7
		c0.7,2.7,1.3,5.5,2.2,8.2c0.5,1.6,1.3,3.1,2,4.7c1.3,2.8,2.1,5.7,2.7,8.7c0.6,2.9,1.1,5.9,1.6,8.9c0.2,1.6,0.3,3.2,0.5,4.8
		c0.2,2.3,0.5,4.6,0.8,6.8c0.1,0.9,0.2,1.8,0.2,2.7c0.1,4.9,0.2,9.9,0.4,14.8c0.1,3,0.5,5.9,0.6,8.9c0.1,6.1,0.3,12.3,0.2,18.4
		c0,2.7-0.6,5.5-0.9,8.2c-0.1,0.8-0.2,1.7-0.2,2.6c-0.1,3.5-0.1,7.1-0.2,10.6c-0.1,2.8-0.4,5.6-0.6,8.4c-0.1,1.8-0.2,3.6-0.4,5.4
		c-0.2,2-0.5,4-0.8,6c-0.2,1.5-0.3,2.9-0.4,4.4c-0.2,4.3-0.9,8.4-2,12.6C193.8,202.7,193.2,202.7,192.6,202.7z M114.4,61.4
		c-1.3-0.1-2.3-0.2-3.3-0.3c-5.5-0.1-10.9,0.1-16.4,0.7c-2.5,0.3-5,0.2-7.5,0.2c-1,0-2.1,0-3.1,0c-2.2,0.2-4.4,0.5-6.7,0.5
		c-3.6,0-7.2-0.2-10.8-0.2c-4.4,0-8.9,0.1-13.3,0.2c-1.2,0-2.4,0.1-3.5,0.2c-2.5,0.3-5,0.9-7.5,0.9c-4.3,0.1-8.4,0.7-12.5,1.9
		c-2.6,0.7-5.1,1.5-7.6,2.4c-1.3,0.5-2.6,1.3-4.1,1.1c-0.5-0.1-0.7,0.1-0.9,0.6c-0.6,1.5-1.3,2.9-2,4.4c-1.5,3.1-3.2,6.1-4.1,9.4
		c-0.8,3-2,5.8-1.9,9c0,1.3-0.4,2.8-1,3.9c-1.2,2-1.5,4.2-1.7,6.4c-0.1,1-0.1,2-0.3,2.9c-0.4,1.9-0.9,3.9-1.3,5.8
		c-0.2,1.1-0.5,2.1,0.3,3.4c1.1,1.8,1.8,3.9,3,5.7c2,2.9,3.9,5.9,5.8,8.9c1.1,1.8,2.1,3.6,3.2,5.4c0.4,0.7,0.8,1.4,1.2,2.1
		c0.6,1.1,1.2,2.1,1.9,3.2c0.6,0.9,1.2,1.8,1.8,2.7c1.7,2.3,3.5,4.5,5.2,6.8c2.1,3,4.3,6,7.2,8.3c1.9,1.5,3.7,2.9,5.6,4.5
		c2.8,2.4,5.7,4.7,8.4,7.3c3.2,3,7,4.1,11.2,4.3c3.3,0.2,6.6,0.2,9.9-0.4c3.8-0.6,7.6-1,11.2-2.5c1-0.4,2.2-0.5,3.3-0.7
		c1.3-0.2,2.6-0.4,3.8-0.6c0.7-0.1,1.4-0.3,2.1-0.5c1.3-0.2,2.3,0.3,3.5,0.8c1.9,0.8,3.9,1.4,5.8,2.2c1.5,0.6,2.9,1.4,4.2,2.4
		c1.3,1,2.6,1.1,4,0.5c0.9-0.4,1.8-0.8,2.7-1.2c2-0.9,4.1-1.7,6-2.7c4.1-2.1,7.9-4.7,11.1-8.1c1.4-1.6,2.8-3.3,4.3-4.8
		c2.9-3,6-5.9,9-8.8c2.4-2.4,4.6-4.9,7-7.3c2.6-2.5,5.4-4.8,8.1-7.2c2.9-2.6,5.8-5.1,8.6-7.7c2.2-2,4.3-4,6.4-6.1
		c1.3-1.3,2.5-2.8,3.7-4.2c1.5-1.7,3.1-3.3,4.4-5.2c2.3-3.4,4.7-6.7,7.6-9.6c1.6-1.6,3.3-3.1,5.1-4.6c1.3-1.1,2.6-2,4-2.9
		c0.5-0.3,0.8-0.6,0.7-1.2c-0.1-0.7-0.1-1.4-0.2-2.1c-0.2-1.4-0.3-2.8-0.6-4.2c-0.3-2.2-0.7-4.5-1.1-6.7c-0.2-1.3-0.3-2.7-1-3.7
		c-1-1.6-2.7-2.5-4.5-3c-2.3-0.6-4.6-1-6.7-2.2c-0.7-0.4-1.6-0.6-2.4-0.8c-5.3-1.2-10.7-2.5-16-3.5c-3.1-0.6-6.4-0.5-9.6-0.8
		c-0.7-0.1-1.4-0.3-2-0.5c-1.9,2.2-4,4.5-5.9,6.9c-1.4,1.7-2.6,3.4-2.4,5.8c0.1,2.1,0,4.3,0,6.5c0,0.8,0.1,1.6,0.3,2.4
		c0.8,3.2,1.6,6.3,2.4,9.5c0.5,2.2,0.9,4.5,2,6.5c1,1.8,1.4,3.8,1.3,5.9c-0.2,4.7-0.5,9.3-0.6,14c0,2.7-0.4,5.3-1.6,7.8
		c-0.6,1.2-0.9,2.7-1,4c-0.3,2.9-0.8,5.7-2.4,8.2c-0.2,0.3-0.3,0.6-0.3,0.9c0,0.9-0.7,1.1-1.3,1c-1.3-0.4-2.7-0.9-3.8-1.7
		c-1.6-1.1-2.4-2.9-2.9-4.7c-0.6-2.6-1.4-5.2-1.2-7.9c0.2-2.3-0.2-4.6-0.3-6.8c-0.1-1-0.5-1.9-0.6-2.9c-0.1-0.8-0.2-1.5-0.2-2.3
		c0-0.5,0-1,0-1.7c-0.3,0.2-0.6,0.3-0.7,0.4c-2.6,2.4-5.3,4.8-7.9,7.3c-0.9,0.9-1.5,2.1-2.1,3.2c-0.7,1.3-1.2,2.7-1.8,4.1
		c-0.3,0.7-0.7,1.5-0.9,2.3c-0.9,3.6-2.3,6.9-4.4,10c-0.9,1.4-1.9,2.7-2.8,4.1c-1.9,3.3-3.7,6.7-5.6,10c-1.1,1.8-2.3,3.4-3.7,5
		c-1,1.1-1.4,2.5-2.6,3.5c-1.5,1.2-2.9,2.4-5,1.9c-0.3-0.1-0.5,0-0.8,0c-1.4,0-2.6-0.4-3.7-1.2c-1.3-0.9-1.7-2.2-1.1-3.6
		c0.2-0.6,0.7-1.1,1.1-1.6c1.1-1.5,2.4-2.9,3.2-4.5c1.9-3.7,3.6-7.6,5.4-11.4c1.8-4,3.6-8.1,5.4-12.2c0.6-1.3,1.1-2.7,1.7-4.3
		c-0.4,0.2-0.5,0.3-0.6,0.4c-1.6,1.1-2.5,2.8-3.6,4.4c-2.7,4-4.5,8.6-7.6,12.3c-0.1,0.2-0.2,0.4-0.3,0.6c-1.3,2-2.5,4.2-4.1,6.1
		c-1.8,2.2-3.9,4.3-5.9,6.4c-1.3,1.3-2.6,2.8-4.7,2.3c-1-0.2-2.1-0.4-3-0.8c-1.4-0.6-2.2-1.7-2.1-3.3c0.1-1.2,0.1-2.5,0.2-3.9
		c-0.5,0-1.1,0-1.6,0c-1.9,0-3.1-1.2-3.2-3.1c0-0.5,0-0.9,0-1.4c-0.3-3.6,1.7-6.2,3.6-8.9c1.3-1.8,2-3.8,2.7-6
		c-0.6,0.2-1.1,0.2-1.4,0.5c-0.9,0.9-1.9,1.1-3.1,1.1c-2.6-0.1-3.8-1.2-3.6-3.7c0.1-1.8,0.5-3.6,1-5.4c1-3.4,2.1-6.8,3.5-10.1
		c1.1-2.6,2.7-5,3.8-7.6c1.2-2.7,2.2-5.5,3.3-8.3c0.7-1.8,1.4-3.7,2.2-5.5c0.5-1,1.2-1.9,1.8-2.8c1.6-2.7,3-5.5,4.9-8
		c2.6-3.4,5.5-6.7,8.4-9.8c1.9-2.1,4.1-3.9,6.2-5.8c2.3-2.1,4.6-4.1,6.9-6.1C111.9,63.4,113.1,62.4,114.4,61.4z M181,31.2
		c-1.1,1.2-2.2,2.4-3.3,3.6c-2.1,2.5-4.2,5-6.3,7.4c-1.3,1.6-2.6,3.1-3.9,4.7c-2.2,2.8-4.3,5.7-6.5,8.5c-0.6,0.7-1.2,1.4-1.9,2.3
		c0.7,0,1.1,0,1.6,0c1.5,0.2,3.2,0.1,4.6,0.6c2.3,0.9,4.6,1.8,7.1,2.2c3,0.5,6,1.5,9,2.2c2.4,0.6,4.6,1.5,6.5,3
		c0.3,0.2,0.7,0.4,1.1,0.6c-0.8-3.6-1.6-7-2.5-10.5c-0.7-3.1-1.6-6.1-2.3-9.2c-0.7-3-1.2-6-1.8-9C182,35.5,180.6,33.6,181,31.2z
		 M96.2,167.9c0-0.1,0-0.1,0.1-0.2c0.3,0,0.6,0,0.9,0c1,0.1,1.7-0.5,2.2-1.2c0.2-0.3-0.1-1-0.2-1.4c-0.4-1.1-1.8-2-3-2.2
		c-1.7-0.3-2.6,0.6-3.5,1.7c-0.8,1-0.7,1.9,0.4,2.4C94.1,167.5,95.2,167.6,96.2,167.9z M79.3,149.6c-0.4-0.3-0.6-0.4-0.7-0.4
		c-1.4-0.9-2-0.9-3.2,0.2c-0.8,0.7-1.6,1.6-2.4,2.3c-0.7,0.8-0.8,1.3,0.2,1.6c0.9,0.3,2.1,0.3,2.8-0.1
		C77.3,152.2,78.2,150.9,79.3,149.6z M75.2,133.6c-0.9-1.5-2.2-2.2-3.9-2.6c-0.2,1.2-0.4,2.4-0.5,3.6c0,0.2,0.1,0.5,0.2,0.7
		c0.6,0.5,2.4,0.4,2.9-0.2C74.4,134.6,74.8,134,75.2,133.6z M144.6,135.6c-1,0-1.2,0.1-1.6,0.8c-1.1,2.1-0.7,4.3-0.8,6.8
		C144,140.8,144.4,138.3,144.6,135.6z"/>
</g>
</svg>
