<?xml version="1.0" encoding="utf-8"?>
<!-- Generator: Adobe Illustrator 18.1.1, SVG Export Plug-In . SVG Version: 6.00 Build 0)  -->
<!DOCTYPE svg PUBLIC "-//W3C//DTD SVG 1.1//EN" "http://www.w3.org/Graphics/SVG/1.1/DTD/svg11.dtd">
<svg version="1.1" id="Layer_1" xmlns="http://www.w3.org/2000/svg" xmlns:xlink="http://www.w3.org/1999/xlink" x="0px" y="0px"
	 viewBox="0 0 150 170.3" style="enable-background:new 0 0 150 170.3;" xml:space="preserve">
<style type="text/css">
	.st0{fill:#FF9800;}
</style>
<g id="nausea-girl">
	<path class="st0" d="M91.8,92.5c-5.1,7.8-12.8,13.6-19.9,20.2c-0.5-0.4-0.6-0.7,0.2-1.4c1-1,2.2-1.7,3.2-2.7c2.7-2.5,5.4-5,8-7.6
		c1.9-1.9,3.6-4,5.3-6c1.1-1.3,2.3-2.7,3.3-4.1c0.3-0.4,0.4-1.1,0.2-1.5c-1.3-2.5-1.3-2.4,0.5-4.5c0.1-0.1,0.2-0.3,0.2-0.4
		c-0.1-0.1-0.1-0.2-0.2-0.3c-0.8,0.5-1.8,0.9-2.3,1.6c-2.1,3-4.7,5.5-7.5,7.8c-1.8,1.5-3.5,3.1-5.3,4.5c-3,2.4-5.7,5.2-9.5,6.6
		c-0.8,0.3-1.4,0.8-2.1,1.2c-0.4,0.2-0.9,0.1-1.3,0.2c0-0.3,0-0.5,0.1-0.6c1.3-0.6,2.7-1.2,4-1.9c1.3-0.7,2.6-1.5,3.8-2.4
		c4.6-3.9,9.1-7.8,13.6-11.8c0.2-0.2,0.3-0.4,0.2-0.6c-0.2-1-0.7-2-0.5-2.9c0.2-0.8,1.3-1.4,2-2c-0.1-0.1-0.1-0.2-0.2-0.3
		c-0.8,0.4-1.8,0.6-2.5,1.1c-2.4,1.6-4.6,3.5-7.1,4.9c-2.3,1.3-4.9,2.3-7.3,3.4c-0.3,0.2-0.8,0.3-1,0.5c-1.7,1.7-3.8,2.6-6.1,3.2
		c-1,0.3-1.9,1-2.9,1.4c-2.2,0.8-4.5,1.3-6.6,2.2c-1.8,0.7-3.5,1.6-5.2,2.5c-0.4,0.2-0.8,0.4-1.2,0.7c-0.1-0.2-0.2-0.3-0.3-0.5
		c0.6-0.5,1.1-1,1.7-1.3c0.7-0.4,1.4-0.8,2.1-1c1.7-0.5,2.4-1.8,2.3-3.3c-0.1-1.9,0.8-3.3,2-4.6c1.4-1.6,1.7-4.8,0.6-6.4
		c-0.3-0.4-0.8-0.8-1.2-1.1c0.1,1.1,0.4,2.2,0.2,3.2c-0.1,0.7-0.8,1.3-1.4,1.8c-0.8,0.6-2,0.1-3.3-1.3c-2.1,1.2-3.8,2.8-5,5
		c-1,1.9-1.9,3.7-2.9,5.6c-1.1,2.1-1.1,4.2-0.6,6.5c0.2,0.8,0.2,1.6,0.3,2.4c0.2,1.8,0.4,3.7,0.6,5.5c0.2,1.5-0.4,2.7-1.2,4
		c-1.4,1.9-1.8,4.2-2.2,6.5c-0.5,3.2-1.1,6.4-1.6,9.7c-0.4,2.6-0.7,5.3-1.2,7.9c-1,5.2-1.5,10.6-3.2,15.7c-1.4,4.1-2.5,8.3-3.8,12.6
		c-0.3,0-0.7,0-1.4,0c0.7-2.4,1.4-4.7,2.1-7c1.1-3.5,2.4-7,3.1-10.6c1-4.7,1.7-9.4,2.4-14.1c0.4-2.8,0.3-2.8-2.2-4.1
		c-1.8-1-3.5-2.2-5.3-2.8c-2.6-1-5.4-1.5-8-2.3c-2.9-0.9-5.7-2-8.5-3c-0.3-0.1-0.6-0.2-0.8,0c-0.2,0.1-0.2,0.5-0.2,0.8
		c0.2,1.1,0.4,2.3,0.9,3.4c1.7,4.4,2.5,9.1,3,13.7c0.3,2.3,0.3,4.7,0.2,7c-0.2,4.2-0.3,8.4,0.4,12.5c0.4,2.2,0.5,4.4,0.8,6.6
		c-0.6,0-1.2,0-1.8,0c-0.7-5.8-1.6-11.6-1.1-17.5c0.5-5.6-0.2-11-1.6-16.4c-0.7-2.8-1.6-5.5-2.3-8.3c-1.6-6.6-5.5-12.2-8.2-18.2
		c-0.6-1.3-0.9-2.7-1.1-4.1c-0.1-0.5,0.4-1.1,0.6-1.6c0.4-0.8,0.7-1.7,1.2-2.4c1.6-1.9,2.1-4.1,2.4-6.4c0.2-1.4,0.6-2.9,1.1-4.2
		c0.3-0.7,1.1-1.3,1.8-1.8c1.9-1.3,3.4-2.9,4.5-4.9c1.1-2,2.6-3.9,3.4-6.1c1.2-3.2,2-6.7,3-10c1.3-4.2,0.7-8.4-0.2-12.6
		c-0.8-3.7-0.9-7.4-0.1-11.1c0.2-0.9,0.5-1.9,1-2.6c2.1-2.7,3-5.9,3.8-9.1c0.3-1.2,0.8-2.4,1.3-3.5c1.2-2.6,2.3-5.4,3.8-7.8
		c1.6-2.6,3.4-5.2,5.6-7.4c4.4-4.3,9.4-7.9,15.2-10c2.2-0.8,4.3-1.6,6.5-2.6c1.6-0.7,3.4-1.1,5.1-1.3c3.8-0.4,7.6-0.6,11.5,0.3
		C73.2,1,75,1,76.7,1.3c1,0.2,2,0.4,3,0.8c4.3,1.6,7.2,5.2,10.9,7.6c1,0.6,1.8,1.5,2.8,2.1c2.4,1.4,3.9,3.7,5.8,5.7
		c0.5,0.6,1.1,1.1,1.5,1.7c2.8,3.5,5.7,7,7.7,11.1c0.5,1.1,1.2,2.2,2,3.2c2.8,3.3,4.5,7.2,6.2,11.2c1.2,2.9,2.4,5.8,3.5,8.8
		c0.9,2.4,1.8,4.8,2.7,7.2c0.5,1.3,1.3,2.4,1.8,3.7c1,2.4,2,4.8,2.9,7.2c1,2.6,1.3,5.3,1,8c-0.3,2.9,1.4,4.9,2.8,7
		c0.3,0.4,1.2,0.4,1.8,0.5c4.2,0.9,8,2.8,11.7,4.8c3.6,2,4.9,5.5,5.1,9.2c0.4,5.6-1.2,10.9-4.1,15.8c-0.8,1.4-1.1,3.1-1.5,4.6
		c-0.4,1.2-0.4,2.5-1.8,3.2c-0.5,0.2-0.8,1.3-0.8,1.9c0.4,5.7-1,11.1-1.6,16.7c-0.4,4-0.7,8.1-1.1,12.1c-0.1,1.1-0.3,2.3-0.8,3.4
		c-1.3,2.9-1.2,6-1.5,9c-0.1,0.8-0.1,1.6-0.2,2.5c-0.5,0-1,0-1.8,0c0.3-2.5,0.4-4.9,0.9-7.3c1.3-6.4,2.1-12.9,2.7-19.5
		c0.2-2.6,0.6-5.2,1.1-7.8c0.3-1.6,0.9-3.2,1.1-4.8c0.2-2,0.3-4,0.2-6.1c0-0.3-0.7-0.8-1-0.7c-4.3,0.8-8.7,1-12.1,4.4
		c-1.4,1.4-3.1,2.5-4.9,3.4c-3.5,1.8-6.1,4.3-7.4,8c-0.4,1-0.3,2.1-0.6,3.2c-0.6,2-1.4,4-1.8,6.1c-1.2,5.9-2.2,11.9-3.3,17.9
		c-0.2,1.1-0.3,2.1-0.4,3.3c-0.4,0-0.8,0.1-1.5,0.1c0.6-4.7,1.2-9.3,1.9-14.1c-1,0.5-1.9,0.8-2.7,1.3c-2.7,1.7-5.6,2.6-8.8,2.4
		c-2.6-0.1-5,0.7-7.2,2.3c-3.4,2.5-7.1,4.4-9.9,7.7c-0.3,0.4-1.2,0.3-1.9,0.3c1.7-2.4,3.6-4.4,5.9-5.9c2.1-1.4,4.2-2.7,6.3-4.1
		c1.8-1.3,3.9-1.8,6-1.6c4.1,0.3,7.5-1.4,11-3.2c1.9-1,3-2.1,3-4.4c0-1.6,0.9-3.3,1.3-4.9c0.4-1.6,0.8-3.2,1.2-4.9
		c0.1-0.6,0.2-1.3,0.5-1.9c0.8-1.6,1.7-3,2.5-4.6c0.3-0.5,0.2-1.3,0.1-1.9c-0.2-1.5-0.6-3-0.7-4.6c-0.2-2.7-1.5-4.7-3.2-6.7
		c-0.2-0.2-0.1-0.7-0.2-1c0.3,0.1,0.7,0.1,0.9,0.3c0.7,0.9,1.3,1.8,1.9,2.7c0.4,0.6,0.7,1.2,1,1.9c0.1,0,0.2,0,0.4,0
		c0.2-0.5,0.4-0.9,0.4-1.4c0.5-3.1,0.8-6.1,1.3-9.2c0.4-2.5,0.7-5,1.4-7.5c0.3-1.1,1.2-2.1,1.9-3.1c0.1-0.2,0.5-0.1,1-0.2
		c-0.2,0.4-0.2,0.6-0.3,0.7c-1.7,1.3-1.9,3.2-2.2,5.1c-0.7,4.6-1.6,9.2-2.2,13.9c-0.4,3.2-0.8,6.4-0.2,9.7c0.3,0,0.5,0,0.6-0.1
		c3.1-2.2,6.2-4.3,9.2-6.6c2.3-1.8,5-2.6,7.8-3.2c2-0.4,4.1-0.5,6.1-0.9c0.5-0.1,1-0.7,1.2-1.2c0.5-1.3,0.7-2.7,1.2-3.9
		c0.8-2.1,2-4,2.7-6.1c1.9-5.2,2.6-10.5-0.2-15.7c-0.5-0.9-1.3-1.7-2.2-2.2c-4.1-2.5-8.3-4.7-13.2-5.2c-0.4,0-0.8-0.1-1.1-0.4
		c-1.7-1.5-3.6-1.5-5.5-0.4c-1.9,1.1-3.7,2.4-5.6,3.4c-2.4,1.3-5,2.2-7.4,3.5c-1.7,0.9-3.4,1.7-3.7,4.3c-0.4,2.9-1.4,5.8-2.4,8.6
		c-1.7,4.5-3.4,9-5.4,13.3c-1.7,3.7-3.4,7.4-6.6,10.2c-1,0.8-2,1.6-3.1,2.3c-0.4,0.3-1,0.4-1.4,0.8c-2.6,2.6-5.9,4.2-9.4,4.9
		c-3.4,0.7-6.9,0.7-10.4,0.8c-1.6,0-3.2-0.4-4.7-0.8c-1.4-0.4-2.7-1.1-4.2-1.8c-0.4,2.3-0.7,4.7-1.1,7.2c-0.8,4.8-1.6,9.7-2.2,14.5
		c-0.3,2-0.1,4-0.1,6.1c0,1.8,0,3.6,0,5.5c-0.4,0-1,0-1.5,0c0-2.8-0.2-5.7,0.1-8.5c0.5-5,1.4-10,2.1-15c0.6-4.2,1.2-8.5,2-12.7
		c0.3-1.8,1.1-3.5,1.7-5.2c-1.6-0.3-2.5,1.7-4.1,2c-0.1-0.1-0.2-0.2-0.3-0.4c0.8-0.7,1.5-1.6,2.4-2c1.6-0.8,3.4-1.8,5.1-1.9
		c3.7-0.3,6.9-1.9,10.2-3.1c2.1-0.8,3.7-2.2,5.1-3.9c3.8-4.5,7.5-9.1,11.1-13.7c0.9-1.1,1.4-2.5,2-3.8c0.1-0.3-0.1-0.7-0.2-1.1
		c-0.4,0.1-0.9,0.1-1.2,0.4c-3.1,3.2-6.2,6.5-9.2,9.8c-1.6,1.7-3,3.6-4.6,5.4c-0.8,0.9-1.7,1.7-2.5,2.6c-0.1-0.1-0.3-0.2-0.4-0.3
		c0.1-0.3,0.2-0.8,0.4-1c2.2-2.5,4.5-4.9,6.7-7.3c2.5-2.7,5.2-5.3,7.6-8.2c1.8-2.2,3.1-4.8,4.6-7.3c0.1-0.2,0.1-0.7-0.1-0.9
		C93.4,93.6,92.7,93.1,91.8,92.5z M54.4,7.7c-0.2,0.3-0.4,0.7-0.6,1c-1.1,2.2-2.2,4.5-3.4,6.7c-3,5.2-5.6,10.6-5.6,16.8
		c0,0.9,0,2-0.4,2.8c-1.4,2.5-2.7,5.2-4.6,7.4c-3.7,4.4-5.9,9.2-6.3,14.9c-0.4,5.9,0.7,11.5,2.9,16.9c2,4.7,3.3,9.5,3.3,14.7
		c0,3.2,1.8,5.7,3.1,8.4c0.2-0.2,0.3-0.2,0.3-0.3c0.2-0.3,0.4-0.7,0.5-1c1.2-3.6,3.6-6.1,6.8-8.1c1-0.6,1.8-1.6,2.5-2.5
		c1-1.2,1.9-1.2,3-0.1c1.7,1.7,2.2,5.5,0.3,7.4c-1.9,1.9-2.2,4.2-2.1,6.7c1.9-0.1,12.6-4.5,13.4-5.7c-1.4-0.3-2.8-0.7-4.1-0.7
		c-1.7,0-2.9-0.5-3.9-1.8c-1.3-1.6-0.6-4.5,1.6-5.6c-0.4,0.8-0.8,1.3-1,1.8c-1.3,2.4,0,4.6,2.8,4.7c1.3,0,2.6,0.5,3.9,0.6
		c0.7,0.1,1.6,0.1,2.2-0.2c1.6-0.6,3.1-1.6,4.8-2.2c2.8-1.1,3.4-3.7,1.1-5.7c-0.3-0.3-0.6-0.7-0.8-1c0.1-0.1,0.1-0.2,0.2-0.3
		c0.3,0,0.7,0,0.9,0.1c1.7,1.3,2.1,3.2,2,5.4c0.5-0.3,0.7-0.5,1-0.6c2.3-1.5,4.6-3.2,7-4.6c2.8-1.7,3-1.6,5,0.9
		c0.2-0.1,0.5-0.2,0.7-0.4c1.1-1.1,3.2-1,4-0.5c1.5,1,1.9,2,1.6,3.9c-0.1,0.4,0.2,0.8,0.4,1.1c0.9,1.1,0.9,2.2,0.1,3.4
		c-0.7,1-1.3,1.9-1.8,2.9c-0.7,1.2-0.6,1.2,0.7,2c1.4-2,3.2-3.9,3-6.6c-0.2-2.2-0.5-4.3-0.9-6.5c-0.5-3-1.2-5.9-1.6-8.9
		c-0.6-4.4-1.2-8.7-2.4-12.9c-0.2-0.7-0.3-1.3-0.4-2c-0.4-1.7-0.4-3.5-1.8-5c-1.8-2-4.1-3.3-6.3-4.6c-3.2-1.9-6.6-3.4-9.9-5
		c-1.3-0.7-2.6-1.4-3.9-1.9c-3.1-1.3-6.3-2.7-9.5-3.9c-0.8-0.3-1.7-0.3-2.5-0.6c-1.8-0.5-3.7-1-5.3-1.8c-1.4-0.6-2.6-1.7-3.8-2.6
		c-1-0.7-1.6-1.6-1.6-2.9c0-1.3-0.2-2.7-0.1-4c0.1-1.5,0.4-3.1,0.9-4.5c0.5-1.3,1.4-2.5,2-3.8c0.6-1.1,1.1-2.3,1.5-3.4
		c0.8-2.1,1.6-4.2,2.4-6.2C56.2,8.6,55.5,8.1,54.4,7.7z M41.2,116.5c-0.4-0.5-0.8-0.9-1-1.3c-1.8-3.6-3.7-7.1-5.4-10.7
		c-1.5-3.1-2.9-6.2-4.3-9.3c-0.5-1.1-0.8-2.3-2.2-2.6c-0.4-0.1-0.8-0.5-1.1-0.9c-1.1-1.8-2.7-2.1-4.6-2c-1.3,0.1-2.6,0.1-3.9,0.1
		c-2-0.1-3.9,0-5.8,0.9c-1.3,0.6-2.7,1.1-4,1.8c-1.2,0.6-2.2,1.5-2.8,2.9c-1.1,2.5-2.1,5-3.3,7.4c-1.2,2.3-1.5,4.5-0.2,6.9
		c1,1.8,1.9,3.7,2.8,5.5c1.2,2.4,2.5,4.8,3.6,7.3c0.6,1.3,0.9,2.4,2.7,2.9c3,0.7,5.8,2.1,8.8,2.7c5.1,1.1,9.9,2.7,14.3,5.5
		c0.5,0.3,1.1,0.6,1.8,0.9c0.2-0.7,0.4-1.2,0.5-1.7c0.5-3.2,1-6.4,1.5-9.5c0.3-1.6,0.6-3.2-0.4-4.6c-1.3-1.8-2.7-3.6-4-5.4
		c-0.8-1.1-1.6-2.2-2.4-3.3c-0.1-0.2,0-0.4-0.1-0.6c0.1-0.1,0.2-0.1,0.3-0.2c2.6,3.1,5.2,6.2,7.8,9.4
		C40.2,117.9,40.7,117.2,41.2,116.5z M99.9,92.9c-1,1.7-2,3.4-3.1,5c-0.9,1.4-2.2,2.6-2.8,4.1c-1.2,2.8-2.9,5.3-4.8,7.6
		c-3.6,4.4-7.3,8.7-11,13c-0.3,0.4-0.9,0.7-1.4,0.9c-1.3,0.5-2.6,0.9-3.8,1.4c-2.6,1-5.2,2-7.8,2.9c-2.6,0.9-4.6,3.8-4.4,6.5
		c2.2,1.7,4.6,2.6,7.2,2.8c1,0.1,2,0.2,3,0.2c2.4,0,4.9,0.1,7.2-0.3c2.9-0.5,5.6-1.7,7.8-3.7c0.9-0.8,2-1.2,2.9-1.9
		c1-0.6,1.9-1.2,2.8-2c0.8-0.7,1.6-1.6,2.3-2.4c0.6-0.8,1.3-1.5,1.7-2.4c1-1.8,1.7-3.8,2.7-5.6c3.7-6.5,4.8-13.8,7.7-20.6
		c0.5-1.2,0-1.8-1.3-2.3C103.1,95.5,101.4,94.5,99.9,92.9z M41.4,113.5c0.1,0,0.2-0.1,0.4-0.1c-0.2-2.4-0.1-4.9-0.6-7.3
		c-0.5-2.4-0.3-4.6,0.7-6.9c0.1-0.3,0.1-0.8,0-1.1c-0.6-1.4-1.2-2.8-1.8-4.2c-0.3-0.7-0.7-0.8-1.4-0.7c-1.5,0.4-3.1,0.7-4.6,0.9
		c-1.5,0.2-1.7,0.3-1.6,1.8c0,0.5,0.2,0.9,0.4,1.3c1.3,2.5,2.5,5.1,3.8,7.6C38.2,107.7,39.8,110.6,41.4,113.5z M38.3,84.2
		c0.2-0.1,0.3-0.1,0.5-0.2c-0.6-1.9-1.1-3.9-1.8-5.8c-0.9-2.5-1.9-4.9-2.8-7.3c-0.6-1.5-1-3-1.6-4.4c-0.2-0.4-0.7-0.6-1.1-0.9
		c-0.3,0.4-0.6,0.8-0.8,1.2c-0.1,0.3-0.1,0.6,0,0.9c0.3,2.1,0.6,4.1,1,6.2C32.7,78,35,81.4,38.3,84.2z M97.8,74.8
		c0.1,0.4,0.2,1.3,0.6,1.9c0.3,0.4,1.3,0.9,1.6,0.7c1.2-0.6,2.6-1.9,2.2-3.4c-0.4-1.3-1.1-2.4-1.8-3.6c-0.1-0.1-0.8,0-1,0.2
		C98.4,71.7,97.9,73,97.8,74.8z M93.5,89.5c0.6-0.8,1.5-1.5,1.9-2.4c0.2-0.6-0.3-1.6-0.5-2.3c-0.6,0.2-1.5,0.1-1.9,0.5
		C91.3,87,91.4,87.7,93.5,89.5z M92.5,91.6c0.9,0.9,1.2,2,2.5,1.5c0.8-0.3,1.7-2,1.5-2.8c-0.2-0.7-0.6-1.3-1.4-0.8
		C94.2,90.1,93.4,90.9,92.5,91.6z M97,71.3c2.3-1.9,2.2-2.6,1.2-4.2c-0.5-0.8-0.9-1.6-2.2-1C96.4,67.8,96.7,69.5,97,71.3z
		 M86.8,88.1c0.2,0,0.5,0.1,0.7,0.1c0.6-1,1.2-2,1.7-3.1c0.1-0.2-0.5-0.6-0.7-0.9c-0.8,0.6-1.7,1.1-2.3,1.9
		C86.1,86.5,86.6,87.5,86.8,88.1z M53.6,86.2c-0.5,0.5-1.2,1-1.6,1.6c-0.2,0.3-0.4,1-0.2,1.1c0.4,0.3,1,0.7,1.4,0.6
		C54.6,89.1,54.8,87.2,53.6,86.2z M92.4,99.9c1.7,0.2,2.5-0.4,2.4-1.7c0-0.3-0.2-0.6-0.4-0.7c-0.2-0.1-0.6,0.1-0.7,0.3
		C93.2,98.4,92.9,99.1,92.4,99.9z"/>
	<path class="st0" d="M58.9,76.8c-0.9,0.5-1.8,0.9-2.4,1.5c-1.9,2-4.3,2.7-6.9,3c-1.2,0.1-2.4,0.2-3.6,0.3c-1,0-1.8-0.5-2.5-1.7
		c3.7,1.8,6.9,0.6,10.2-0.3c-2.1-0.2-4.1-0.3-6.2-0.6c-1.9-0.3-3.4-1.4-4.8-2.8c-0.7-0.7-0.5-1.3,0.4-1.6c0.9-0.3,1.8-0.5,2.7-0.7
		c2.3-0.4,4.5-1,6.8-1.1c2-0.1,3.8,0.8,5.2,2.4C58.1,75.8,58.6,76.4,58.9,76.8z M51.7,78.6c0.1,0.1,0.1,0.1,0.1,0.1
		c1.7-0.7,3.5-1.4,5.2-2.2c0.1,0,0.1-0.7-0.1-0.9c-1.2-1.3-2.9-1.6-4.5-2.1c0.4,1,1.1,2,1,2.8C53.3,77.1,52.3,77.8,51.7,78.6z
		 M43.3,75.4c1.4,2.2,3.4,2.6,5.5,3c-1.6-0.9-1.2-2.4-0.9-3.9C46.3,74.8,44.9,75.1,43.3,75.4z"/>
	<path class="st0" d="M88.7,68.3c-1.2,3.3-3.6,5.1-6.8,5.6c-2.2,0.4-4.5,0.3-6.7,0.4c-0.8,0-1.6,0.1-2.7,0.2
		c0.5-0.8,0.9-1.4,1.3-1.9c0.7-0.9,1.4-1.8,2.3-2.7c0.4-0.4,0.9-0.7,1.5-0.9c3.2-1.1,6.6-1.1,10-1.1C87.9,68,88.3,68.2,88.7,68.3z
		 M74.6,73.3c1.3,0,2.6,0,3.8,0c-0.1-1.2-0.1-2.2-0.2-3.4C76.5,70.3,75.8,72.1,74.6,73.3z M86.9,69.7c0-0.1,0-0.3,0-0.4
		c-1.3-0.1-2.7-0.2-3.9-0.3c0.2,1.2,0.4,2.1,0.6,3.2C85.3,72.3,85.7,70.5,86.9,69.7z"/>
	<path class="st0" d="M91.8,63.3c-0.3,0.3-0.5,0.7-0.9,0.8c-1.9,0.6-3.8,1.1-5.6,1.6c-2.3,0.6-4.7,1.1-7,1.7
		c-0.2,0.1-0.5-0.1-0.8-0.1c0.2-0.3,0.4-0.7,0.6-0.8c1.4-0.5,2.9-1,4.4-1.5c2.6-0.8,5.2-1.6,7.9-2.4c0.4-0.1,0.9,0.2,1.4,0.3
		C91.8,63,91.8,63.2,91.8,63.3z"/>
	<path class="st0" d="M51.3,71.2c-3-0.2-5.7-0.4-8.4-0.6c-0.9-0.1-1.7,0-2.6-0.1c-0.4-0.1-0.7-0.5-1-0.8c0.4-0.2,0.8-0.5,1.1-0.5
		c3.3,0.3,6.7,0.6,10,0.9c0.7,0.1,1.4-0.1,2.1,0c0.3,0,0.5,0.3,0.8,0.4c-0.2,0.2-0.4,0.6-0.6,0.7C52.1,71.3,51.5,71.2,51.3,71.2z"/>
</g>
</svg>
