<?xml version="1.0" encoding="utf-8"?>
<!-- Generator: Adobe Illustrator 19.2.1, SVG Export Plug-In . SVG Version: 6.00 Build 0)  -->
<svg version="1.1" id="Layer_1" xmlns="http://www.w3.org/2000/svg" xmlns:xlink="http://www.w3.org/1999/xlink" x="0px" y="0px"
	 viewBox="0 0 200 255" style="enable-background:new 0 0 200 255;" xml:space="preserve">
<style type="text/css">
	.st0{fill:#FF5722;}
</style>
<g id="nausea-girl2">
	<path class="st0" d="M0,241.1c1.8-2.8,3.6-5.5,5.2-8.3c2.2-3.7,4-7.7,6.5-11.2c4.6-6.4,7.9-13.5,11.5-20.5c2.5-4.9,5.1-9.7,8-14.4
		c3.2-5.1,6.8-10,10-15.1c1.8-2.9,2.9-6.1,4.7-9c1.9-3.2,3.4-6.6,4.9-10c1.4-3.1,3.8-5.8,5.9-8.7c2.2-3.1,4.9-5.6,8.1-7.7
		c0.3-0.2,0.4-0.8,0.4-1.2c-0.2-2-1.8-3.1-3.1-4.5c-0.8-0.8-1.7-1.5-2.3-2.4c-2.6-3.8-4.3-7.9-4.3-12.7c0-4.8-0.6-9.6-0.5-14.4
		c0.1-4.2,0.8-8.4,1.3-12.7c0.3-2.7,0.6-5.3,1-8c0.1-1,0.3-1.9,0.6-2.8c1.1-3.9,2.2-7.7,3.3-11.6c1-3.3,2.8-6.1,5.1-8.6
		c3.3-3.6,6.7-7.2,10.1-10.6c1.6-1.6,3.9-2.2,6.1-2.2c1.1-3.3,2-6.7,3.3-9.9c2.7-6.9,5.8-13.6,10.4-19.5c1.9-2.4,3.4-5,5.4-7.3
		c2.3-2.8,5.8-3.6,9.1-4.8c3.8-1.4,7.8-1.5,11.7-2.1c4.2-0.6,8.4-1,12.7-0.8c1.1,0,2.2,0.3,3.3,0.6c4.3,0.9,8.6,1.7,12.8,2.7
		c4.5,1,8.9,2.3,12.8,5c5.8,3.9,11.7,7.8,16.5,13c3.7,4,7.7,7.8,11,12c3,3.9,5.7,8.2,6.8,13.1c0.2,1.1,0.3,2.4-0.1,3.3
		c-1.7,4.3-1.9,8.8-2.2,13.3c-0.4,6.3-1.7,12.4-4.7,18.1c-0.6,1-1.4,1.9-1.8,3c-0.5,1.5-0.9,3.1-1,4.7c-0.1,1.6-1,2.1-2.4,2.2
		c-0.6,0.1-1.2,0.1-1.7,0.3c-1.3,0.4-2,1.1-2,2.7c0,4.8,1.2,9.4,1.9,14.1c0.2,1.5,0.5,3.1,0.8,4.6c0.5,2.7-1.7,4.4-3.9,4.7
		c-1.1,0.2-2.2,0.2-3.4,0.2c-1.3,0-1.8,0.4-1.9,1.9c0,1.8-0.4,3.6-0.9,5.4c-0.2,0.8-0.8,1.7-1.4,2.3c-1.1,1-1.3,2.1-1.2,3.4
		c0,0.6-0.3,1.2-0.4,1.6c1.2,0.3,2.4,0.6,3.6,0.8c0.4,0.1,0.9-0.3,1.2-0.6c1.3-1.6,2.9-2.1,4.9-2c1.3,0.1,2.6,0.1,3.8,0
		c0.4,0,0.9-0.4,1.2-0.7c1.1-1.2,3.8-1.7,5.4-1.1c4.8,1.9,5.9,9.8,2.4,12.6c-0.8,0.6-0.7,1.1,0,1.8c0.6,0.6,1.2,1.3,1.7,2
		c1.1,1.3,1.5,2.8,1.5,4.6c0,1.9,0.4,3.9,0.5,5.8c0,0.9-0.2,2.3-0.8,2.8c-2.8,2.4-4.2,5.7-5.5,9c-0.9,2.4-2.5,4.1-4.8,5.1
		c-2.6,1.1-3.9,3.4-3.1,6.7c1.2,5.1,2.2,10.2,3.4,15.3c1.2,4.9,2.7,9.7,4.1,14.5c1.1,3.9,2,7.8,3.3,11.6c1.6,5,2.8,10.1,3.5,15.4
		c0.5,3.6,1.3,7.1,1.3,10.7c0,2.8-0.9,5.6-1.3,8.4c-0.9,0-1.8,0-2.7,0c0.6-4,1.5-8,1.3-12.2c-0.3-5-1.2-9.9-2.4-14.7
		c-1.6-6.3-3.4-12.6-5.2-18.8c-1-3.7-2.1-7.4-3.2-11.1c-0.8-2.7-1.7-5.4-2.3-8.1c-0.8-4-1.4-8-2.1-12.1c-0.6-3.6,0.4-5.6,3.1-6.9
		c3.3-1.6,4.8-4.1,6.1-7.3c0.9-2.2,2.5-4.2,4-6.2c0.7-0.9,1-1.6,0.8-2.6c-0.2-1.8-0.5-3.7-0.5-5.5c0-1.4-0.6-2.5-1.4-3.6
		c-1.1-1.4-2-2.9-3.1-4.3c-0.2-0.3-1-0.5-1.3-0.3c-0.9,0.4-1.7,1.1-2.6,1.6c-0.3,0.2-0.8,0-1.2-0.1c0.1-0.4,0.1-0.9,0.3-1.1
		c0.3-0.3,0.8-0.5,1.2-0.8c0.6-0.4,1.2-0.8,1.9-1.2c-1.4-1.5-2.6-2.8-4.2-4.6c0.5,2.7-0.8,3.9-2.8,4.9c2.4,2.6,4.4,5.2,6.9,7.5
		c3,2.7,4.5,5.8,4.2,9.8c0,0.7,0,1.6-1,1.6c-1,0-0.8-0.9-0.9-1.6c-0.2-1.7-0.2-3.7-1.2-5c-2.3-3-5.1-5.7-7.8-8.6
		c-0.8,1-1.4,2-2.2,2.8c-0.4,0.4-1.1,0.4-1.6,0.6c0.1-0.5,0.1-1.2,0.3-1.6c0.7-1.1,1.6-2.2,2.4-3.4c-1.1-1.1-2.1-2.1-3.1-3.1
		c-1.9,4.6-1.9,4.6-5.1,4.3c0.1,0.2,0.2,0.5,0.3,0.6c3.2,4.1,6.4,8.3,9.6,12.4c1.6,2,3.3,4.1,2.7,7c-0.1,0.3,0,0.7,0.1,1
		c0.2,0.9,0.5,2-0.7,2.2c-1.3,0.2-1.1-1-1.2-1.8c-0.1-2.1-0.5-4.1-1.8-5.8c-1.4-1.8-2.9-3.5-4.4-5.3c-1,0.8-1.8,1.5-2.8,2.1
		c-0.3,0.2-0.9,0-1.4-0.1c0.2-0.5,0.2-1,0.5-1.3c0.4-0.5,1.1-0.7,1.5-1.2c0.3-0.4,0.8-1.1,0.6-1.4c-0.8-1.5-1.8-2.8-2.8-4.4
		c-1.4,1.8-2.6,3.4-4.8,3.3c1,2.2,1.9,4.4,3.1,6.4c2,3.4,3.8,6.9,4,11c0.1,2,0.5,4.1,0.6,6.1c0,0.5-0.6,1-0.9,1.4
		c-0.4-0.4-1-0.6-1.2-1.1c-0.2-0.4-0.1-1-0.2-1.6c-0.2-1.6-0.5-3.2-0.7-4.9c-1.1,0.6-1.8,1.1-2.7,1.4c-0.4,0.2-1-0.1-1.5-0.1
		c0.2-0.5,0.3-1.1,0.7-1.4c0.8-0.7,1.8-1.3,2.7-1.9c-1-2.3-2-4.4-2.9-6.3c-1.6,0-3.4,0-5.3,0c-0.1,0.5-0.1,1.4-0.4,2.3
		c-0.2,0.8-0.5,1.7-1,2.4c-1,1.3-2.1,2.5-3.1,3.6c-3.2,3.5-3.6,9.4-0.8,13.3c0.2,0.3,0.6,0.7,1,0.9c3,1.3,6.1,1.9,9.2,0.5
		c2.4-1.1,4.6-2.5,6.9-3.7c0.7-0.4,1.3-0.9,1.9,0c0.6,0.8,0,1.4-0.6,1.8c-3.9,2.8-7.9,5-12.9,4.7c-1.4-0.1-2.7-0.5-4.1-0.7
		c0.2,2.2,0.3,4.5,0.6,6.7c0.3,2.7,0.9,5.4,1.3,8.1c0.6,4.1,1.2,8.2,1.6,12.3c0.5,4.6,0.8,9.3,1,13.9c0.1,2.2,0,4.5,0,6.7
		c0,0.9,0.3,1.7,0.2,2.6c-0.1,1.7-0.5,3.4-0.7,5.1c-1.6,0.7-2.2,0.3-2.2-1.4c0-4.5,0-9,0-13.6c0-2.1,0-4.3,0-6.4
		c0-0.4-0.4-0.8-0.6-1.2c-0.4,0.3-0.8,0.6-1.1,1c-0.1,0.2-0.1,0.6-0.1,0.9c-0.4,4.9-0.8,9.7-1.2,14.6c-0.2,3.3-0.4,6.6-0.6,10
		c0,0.7,0.3,1.5,0.7,2.2c1.8,3,3.6,5.9,5.5,8.9c-0.7,0-1.4,0-2.1,0c-1.2-1.7-2.4-3.5-3.7-5.3c-0.2,1.9-0.3,3.6-0.4,5.3
		c-0.8,0-1.6,0-2.4,0c-0.1-0.3-0.2-0.6-0.2-0.8c0.3-7.6,0.8-15.2,1-22.8c0.2-5.6,0.9-11,2.4-16.4c0.2-0.8,0.7-1.5,1.1-2.2
		c0.2-0.4,0.6-0.9,0.6-1.3c-0.1-1.9-0.2-3.8-0.5-5.7c-0.4-2.5-0.9-5-1.4-7.8c-0.6,0.6-1,1-1.3,1.5c-1.2,2.3-3.3,3.8-5.4,5.3
		c-0.3,0.2-0.6,0.5-0.9,0.8c-3.3,3.1-7.2,5.2-11.3,6.9c-2.9,1.2-5.9,0.6-8.9,0.7c-2,0.1-4-0.3-5.7-1.4c-2.4-1.6-4.9-3.2-7.3-5
		c-1.6-1.2-2.9-2.7-4.4-4.1c-3.9-3.6-6.4-8.1-8.5-12.8c-0.4-1-1.1-1.8-1.5-2.5c-0.7,5.8-1.3,11.6-2.1,17.4c-0.5,4-1.9,7.8-4.6,10.7
		c-4.1,4.5-8.9,8.2-14.5,10.7c-2,0.9-3.9,2.2-5.7,3.4c-2.6,1.7-5.1,3.3-8.2,4.1c-1.5,0.4-3,0.9-4.4,1.4c-1.1,0.4-2.6,0.6-3.1,1.4
		c-0.5,0.8,0,2.3,0.1,3.4c0.4,3.3,0.9,6.6,1.4,9.8c0.2,1.7,0.4,3.5,0.7,5.2c-0.8,0-1.6,0-2.4,0c-0.4-2.4-0.9-4.8-1.2-7.2
		c-0.4-3.3-0.6-6.6-0.9-9.9c-0.2-1.5-0.6-2.9-0.9-4.5c-2.2,2.3-4.1,4.2-5.9,6.2c-1.7,1.8-3.3,3.7-5,5.6c-0.9,1-1,2.1-0.7,3.4
		c0.5,2.1,0.9,4.3,1.3,6.4c-0.8,0-1.6,0-2.4,0c-0.4-1.9-0.7-3.8-1.1-5.7c-0.2-0.1-0.4-0.1-0.6-0.2c-1.3,2-2.6,3.9-3.9,5.9
		c-0.9,0-1.8,0-2.7,0c0.2-0.4,0.2-1,0.5-1.3c3-4,6-8.1,9.2-12c3.5-4.3,7.3-8.3,10.9-12.5c2.5-2.9,4.9-6,7.3-9c2.3-2.8,4.8-5.4,7-8.3
		c1.8-2.3,3.2-4.8,4.9-7.1c0.3-0.5,1.3-1,1.7-0.8c0.9,0.4,0.4,1.2,0,1.9c-0.9,1.6-1.9,3.1-2.8,4.6c-1,1.6-2,3.1-3.1,4.8
		c2.6-0.5,5-0.8,6.9-2.4c1.9-1.6,3.7-3.3,3.8-6c0.1-1.2,0-2.5,0.3-3.6c0.1-0.5,0.8-1,1.2-1.5c0.4,0.5,1,0.9,1,1.4
		c0.2,3,0,5.9-1.9,8.5c-3.1,4.3-7.5,5.8-12.5,6.2c-0.6,0-1.4,0.3-1.8,0.7c-1.9,2.1-3.8,4.3-5.6,6.4c-0.3,0.4-0.6,0.8-1,1.5
		c3.4-1.3,6.4-2.5,9.5-3.8c1.5-0.6,3-1.2,4.4-2c2.5-1.5,4.7-3.3,7.3-4.7c5.8-3.1,9.4-7.7,10.4-14.2c0.2-1,0.3-2,0.5-3
		c0.2-1.8,0.7-3.7,0.5-5.5c-0.5-6-1-12.1-1.9-18c-0.9-6.1-3-12-6-17.4c-1-1.8-2.3-3.5-3.5-5.2c-0.4-0.6-0.9-1.3-1.6-1.6
		c-3.1-1.6-6.2-3.3-9.4-4.7c-2.1-0.9-4.4-1.9-6.5-1.8c-6.2,0.1-10.9,3-13.6,8.7c-2.3,4.8-4.4,9.6-6.8,14.3
		c-3.1,6.1-6.9,11.5-10.7,17c-3.7,5.4-7,11-10.1,16.7c-3.4,6.1-6.1,12.7-10,18.5c-3.4,5.2-6.5,10.5-9.4,16c-2,3.8-4.3,7.5-6.5,11.2
		C0,245,0,243.1,0,241.1z M74.1,135.2c2.8,1,5.3,1.7,7.7,2.7c4.2,1.8,7.4,4.8,10.5,8.3c3.7,4.2,6.4,8.9,8.4,14.1
		c2.1,5.4,4.5,10.7,6.9,15.9c1.6,3.5,3.5,6.9,5.3,10.2c1.3,2.4,2.8,4.8,4.4,7.1c0.9,1.3,2.4,2.4,3.4,3.6c3.4,4,7.7,6.3,12.9,6.8
		c3.8,0.4,6.9-1.6,9.6-3.6c5.1-3.8,9.6-8.3,12.7-14.1c0.2-0.4,0.5-0.8,0.8-1.1c1.1-0.9,0.8-1.8,0.4-3c-0.8-2-1.5-4.1-1.8-6.3
		c-0.4-2.9,1-5.6,2.1-8.3c0.2-0.5,0.5-1.2,0.3-1.6c-1.6-3.2-3.2-6.4-5.1-9.4c-2.4-3.7-5.1-7.1-7.6-10.7c-1.7-2.5-3.7-4.4-6.9-4.8
		c-0.8-0.1-1.6-0.4-2.4-0.6c-0.3-0.1-0.7-0.2-0.8-0.1c-1.9,1.3-4,2.6-4.4,4.9c-0.6,3.7-0.6,7.5,1.2,11.1c0.9,1.8,1.3,4,1.8,6
		c0.1,0.4-0.5,1-0.8,1.5c-0.4-0.3-0.9-0.6-1.3-1c-0.2-0.3-0.2-0.7-0.3-1.1c-0.6-1.7-1-3.5-1.8-5.1c-2-4.5-2-9-0.8-13.6
		c0.3-1.1,1.1-2.1,1.7-3.2c-0.3-0.2-0.6-0.3-0.9-0.5c-2.4-1.5-4.7-3-7-4.6c-0.9-0.6-1.5-1.6-2.3-2.5c-1.3-1.5-2.7-3-3.9-4.6
		c-0.9-1.1-1.5-2.5-2.3-3.7c-0.7-1.1-1.4-2.2-2.1-3.3c-0.6-0.9-1.1-1.9-1.5-2.9c-0.2-0.3-0.3-0.9-0.1-1.2c0.2-0.2,1-0.3,1.1-0.2
		c0.7,0.7,1.3,1.5,1.9,2.3c1.4,2.2,2.5,4.6,4,6.8c0.9,1.4,2.4,2.3,3.3,3.7c3.1,5,8.1,6.7,13.3,8.3c4.2,1.3,8.4,2.7,12.6,4.1
		c2.5,0.8,5,1.9,7.6,2.4c3.9,0.8,7.1-1.9,7.7-5.8c0.3-1.6,0.9-3.2,1.5-4.8c-1.1-1-2.4-2.3-3.8-3.6c-1.1-1-1.1-1.5,0.2-2.1
		c4.4-1.9,8.9-3.8,13.4-5.7c1.9-0.8,2.1-1.1,2-3.2c-0.1-0.6-0.2-1.3-0.2-1.7c-1.3,0-2.5,0.1-3.8,0c-2-0.1-4.1-2.3-3.9-4
		c0.1-1.1,0.2-2.2,0.7-3.1c0.4-0.8,1.4-1.3,2.2-1.9c0.1-0.1,0.7,0.2,0.9,0.5c0.1,0.2,0,0.8-0.2,0.9c-1.1,0.6-1.1,1.6-1.3,2.6
		c-0.4,2.3,0.7,3.3,3,2.9c1.2-0.2,2.6-0.5,3.5,0c1.8,1.1,3.7,0.7,5.6,0.7c1.5,0,2.4-0.9,2.4-2.4c0-1.7-0.2-3.3-0.5-4.9
		c-1.1-5.2-2.5-10.4-2.1-15.9c0-0.2,0-0.4,0-0.6c-0.1-2.6,0.7-4.9,2.7-6.7c2.1-1.8,4.2-3.7,6.3-5.5c0.4-0.3,0.7-0.7,0.9-1.1
		c0.7-1.9,1.3-3.8,1.9-5.8c1.5-5.4,1.6-10.9,2.1-16.4c0.1-1.1,0.2-2.2,0.3-2.9c-3.3-1.4-6.4-2.6-9.3-4.1c-2.8-1.5-5.4-3.1-8.7-3.1
		c-5.6-0.1-11,0.3-16.2,2.6c-3.9,1.7-6.7,4.3-9.3,7.6c-4.2,5.5-8.1,11.3-13.4,15.9c-4,3.5-8.4,6.4-13.2,8.6
		c-2.5,1.2-5.3,1.4-7.9,0.1c-1.2-0.6-2.2-1.6-3.2-2.6c-1.2-1.2-2.3-2.5-3.6-3.6c-2.4-1.9-5.1-3.1-8.2-3.4c-1.8-0.1-3.6,0-4.7,1.4
		c-1.3,1.7-2.5,3.7-3.1,5.7c-1,3.2-0.3,6.6,0.5,9.8c1,3.9,3.4,7,6,9.9c1.7,1.8,3.7,3.4,6.2,3.6c2.4,0.2,5,0.8,7.2-1
		c1.7-1.4,1.7-3.2-0.1-4.4c-1.1-0.8-2.4-1.3-3.7-1.7c-0.8-0.3-1.9-0.1-2,1c-0.2,1.5-0.9,2.4-2.2,2.7c-1.4,0.3-2.1-0.8-3.1-1.6
		c-2.6-2.1-3.8-5.2-5.8-7.6c-0.5-0.6-0.6-1.5-0.7-2.3c-0.6-4,0.5-7.6,2.4-11.1c0.5-1,1.2-1.7,2.4-1.4c0.2,0.1,0.5,1,0.4,1.1
		c-1.9,1.5-2.2,3.8-2.9,5.9c-0.4,1.1-0.3,2.2-0.4,3.4c0.1,0.1,0.2,0.1,0.3,0.2c2.5-3.7,6.5-3.6,10.2-4.3c0.4-0.1,1.1,0.4,1.2,0.8
		c0.1,0.3-0.4,1-0.7,1.2c-0.8,0.3-1.8,0.6-2.7,0.6c-1.9,0.1-3.7,0.6-5.2,1.8c-0.9,0.7-1.4,1.5-1.1,2.9c0.7,3,2.6,5.3,4.4,7.9
		c0.8-0.9,1.5-1.6,2.1-2.3c1.1-1.3,2.3-1.7,3.9-1.1c0.8,0.3,1.5,0.7,2.7,1.3c-0.5-1.5-0.7-2.6-1.2-3.6c-0.4-0.8-1.2-1.3-1.6-2
		c-0.2-0.4-0.1-1-0.2-1.5c0.5,0,1.3-0.2,1.6,0.1c0.9,0.8,1.8,1.6,2.3,2.6c1,2.4,1.7,5,2.5,7.5c1.2,3.6-0.9,6.9-4.7,7.4
		c-5.6,0.7-10.4-0.8-14-5.3c-1.4-1.7-2.5-3.5-3.9-5.5c-1.1,1.9-2.6,3.4-2.1,5.8c0.1,0.3,0,0.6-0.1,0.9c-0.7,4.9-2.1,9.6-3.8,14.2
		c-1.1,3.1-2.1,6.3-3.7,9c-1.9,3-4.5,5.6-6.8,8.2C76.7,132.9,75.4,134,74.1,135.2z M73.9,93.9c0.2,1.4,0.4,3.7,0.8,5.8
		c0.9,4.8,3.3,9,5.5,13.3c0.7,1.5,1.8,2.8,2.8,4c0.4,0.4,1.2,0.9,1.7,0.7c0.5-0.2,0.9-1,1-1.6c0.4-1.5,0.7-3.1,1.1-4.7
		c1.1-3.9,2.8-7.6,3.2-11.8c0.4-4.5-0.1-8.9-1.6-13.1c-1.9-5.4-4.6-10.6-5.5-16.3c-0.1-0.6-1.1-1.4-1.8-1.6
		c-0.5-0.1-1.3,0.6-1.8,1.1c-0.4,0.5-0.6,1.2-0.9,1.8C75,78.5,74.3,85.7,73.9,93.9z M158.7,187.3c-0.2-0.1-0.4-0.1-0.6-0.2
		c-1.8,3.7-4.5,6.7-7.3,9.6c-3.9,4.1-8.3,7.3-13.7,9.3c-0.4,0.1-0.7,0.3-1.1,0.3c-4,0.1-7.9-0.5-11.2-2.7c-2.9-2-5.6-4.6-8.1-7.2
		c-1.7-1.8-3.3-3.8-4.6-5.9c-2.2-3.8-3.9-7.8-5.9-11.7c-1.2-2.4-2.7-4.6-3.8-7.1c-1.5-3.4-2.6-7-4-10.5c-1.1-2.8-2.1-5.7-3.7-8.2
		c-1.9-3-4.4-5.7-6.8-8.4c-4-4.5-9.4-6.2-15-7.6c-0.6-0.1-1.3,0.4-2,0.6c0.5,0.5,1,0.6,1.5,0.8c2.4,1,4.9,1.8,7.2,3.1
		c3,1.7,6,3.6,8.8,5.7c1.4,1.1,2.6,2.8,3.5,4.4c1.9,3.8,3.6,7.7,5.3,11.5c1.4,3.2,2.8,6.4,4.1,9.6c0.4,1,0.8,2.1,0.8,3.1
		c-0.1,2.9,1.2,5.3,2.6,7.6c1.4,2.4,3.1,4.6,4.3,7.1c1.8,3.6,3.8,6.9,6.8,9.6c1,0.9,1.7,2.3,2.8,3.1c2.5,1.9,5,3.7,7.6,5.5
		c1.1,0.7,2.3,1.3,3.6,1.5c2.4,0.3,4.9,0.3,7.3,0.3c1,0,2-0.2,3-0.6c4-1.6,7.5-4,10.9-6.7c2.8-2.3,4.9-5,7.3-7.6
		c0.3-0.4,0.6-1,0.6-1.4C158.8,192,158.7,189.7,158.7,187.3z M59.8,143.7c0.1,0.1,0.2,0.3,0.3,0.4c0.7-0.2,1.4-0.5,2-0.7
		c2.6-0.9,5.4-1.3,8-0.4c2.6,0.8,5.1,1.9,7.6,2.9c3.7,1.6,7.3,3,9.6,6.8c2,3.3,4.5,6.3,5.6,10.1c0.9,3.2,2.2,6.3,3.1,9.5
		c1.1,3.6,1.5,7.4,1.8,11.2c0.2,2.6,0.7,5.2,0.9,7.8c0.3,3.9-0.4,7.8-1.2,11.6c-1,4.9-3.1,9.5-7.2,12.2c-5.9,3.9-11.5,8.6-18.5,10.7
		c-3.1,1-5.9,2.8-9,3.7c-3.7,1.1-3.4,1.9-1.9,4.7c1.9-0.7,3.8-1.6,5.8-2.2c2.2-0.7,4.4-1,6.4-2.3c2.4-1.7,4.8-3.4,7.4-4.6
		c3.7-1.7,7.2-3.8,10.4-6.3c4.3-3.3,7.6-7.3,8.7-12.7c0.5-2.3,0.4-4.8,0.9-7.1c0.9-4.2,1.3-8.4,1-12.7c-0.1-1.7-0.7-3.4-1.1-5.1
		c-0.2-0.9-0.6-1.8-0.6-2.7c-0.2-4.6-2.1-8.7-3.9-12.8c-1.9-4.4-4.1-8.7-6-13.1c-0.7-1.7-1.6-3.1-3.1-4.1c-3.4-2.2-6.7-4.6-10.2-6.5
		c-4-2.1-8.3-3.6-12.8-0.7C62.6,142.3,61.2,143,59.8,143.7z M154,146.6c3.1,4.3,7.7,7.6,8.1,13.4c1.9-5.5,1.6-10.7-1.7-15.6
		C158.7,146.2,156.6,146.9,154,146.6z M147,144.9c6,5.5,9.1,12.6,12.7,19.3c1.4-0.6,1.4-0.6,1-1.8c-0.6-1.6-0.9-3.3-1.6-4.8
		c-0.7-1.6-1.6-3.1-2.6-4.5c-1.1-1.6-2.6-2.9-3.7-4.5C151.4,146.6,149.7,145.4,147,144.9z M82.2,56.8c0,0,0.1,0,0.1,0
		c-0.1-1.4-0.2-2.8-0.4-4.2c-0.2-1.2-0.9-2-2.1-2c-1.3-0.1-2.3,0.9-2.3,2.1c0,2.5,0.1,5,0.3,7.4c0,0.4,0.6,1,1.1,1.2
		c1.5,0.5,3.3-1,3.3-2.6C82.2,58,82.2,57.4,82.2,56.8z M192.8,140.1c2.1-2,2.3-6.1,0.5-7.9c-1.7-1.7-4.8-1.3-6.8,1.1
		C188.6,135.5,190.7,137.8,192.8,140.1z M173.3,134.7c-0.2,0-0.5,0-0.7,0.1c-1.4,0.3-2.4,1.2-3,2.6c-0.6,1.3,0.6,1.7,1.1,2.4
		c0.2,0.3,0.4,0.5,0.6,0.8c0.7,0.9,3,1.8,3.8,1.2c0.7-0.6,1-1.8,1.4-2.7c0.1-0.2,0-0.5,0-0.7C176.8,136.3,175.4,134.7,173.3,134.7z
		 M165.5,145.6c0.3,0.5,0.8,1.2,1.2,1.9c1.1,1.5,2.7,2,3.8,1.1c1.9-1.4,2.1-2.4,0.8-4.3c-0.2-0.3-0.4-0.6-0.6-1
		c-0.6-0.9-1.2-2.4-2.4-2c-1,0.3-1.7,1.6-2.4,2.5C165.7,144.2,165.7,144.7,165.5,145.6z M163.5,145.4c0.5-2.5,1.3-4.6,3.6-5.8
		c0.2-0.1,0.3-0.3,0.3-0.4c0.4-1.6,0.7-3.2,1-4.7c-0.6,0.1-1.5,0.2-2.4,0.4c-1.1,0.3-2.2,0.6-2.3,2.2c-0.1,1.3-0.4,2.7-1,3.9
		C161.8,142.7,162.2,144,163.5,145.4z M182,132.7c-0.3,0-0.5,0-0.6,0c-1.5-0.2-2.5,0.6-3,1.8c-0.4,1.2,0.3,2.1,1.3,2.8
		c0.3,0.2,0.5,0.6,0.9,0.8c0.6,0.2,1.3,0.5,1.8,0.3c1.5-0.5,1.8-1.8,1.4-4.1C183.5,133.1,183.2,132.3,182,132.7z M170.7,129.3
		c-2.8,0.3-5.4,0.7-8.2,1c1.9,1.1,3.2,3.3,5.7,2.1C169.4,131.8,171.1,131.4,170.7,129.3z M173.3,124.3c-3.3,0.9-6.8,1.4-9.8,3.5
		C169.3,128.4,173,127.1,173.3,124.3z M164.8,156.6c0.4,0.6,0.8,1.6,1.3,1.8c0.8,0.2,1.9-0.1,2.8-0.3c0.3-0.1,0.6-1,0.5-1.2
		c-0.7-1.1-0.4-2.7-2-3.2c-0.1,0-0.3,0-0.4,0.1C165.9,154.3,164.8,154.9,164.8,156.6z M187.8,84.4c-0.2-0.1-0.5-0.2-0.7-0.3
		c-1.3,1.4-2.6,2.8-3.8,4.3c-0.2,0.2-0.2,0.7-0.1,0.9c0.2,0.2,0.6,0.3,0.9,0.3c2.2-0.3,2.8-0.8,3.4-3.1c0.1-0.2,0.2-0.4,0.3-0.7
		C187.8,85.3,187.8,84.9,187.8,84.4z M166.9,151.7c-0.6-0.7-1.1-1.3-1.6-1.9c-0.1,0-0.1,0.1-0.2,0.1c0.2,0.8,0.3,1.6,0.5,2.5
		C166,152.2,166.4,152,166.9,151.7z"/>
	<path class="st0" d="M168.6,97.4c0,0.1,0.3,0.4,0.6,0.7c-0.3,1-1,1.2-1.9,0.8c-3.3-1.4-6.3-3.1-8.7-5.7c-0.2-0.2-0.5-0.5-0.5-0.7
		c-0.1-0.6-0.2-1.4,0.1-1.6c0.4-0.3,1.2-0.3,1.7-0.3c2.1,0.2,4.2,0.6,6.3,0.7c1.1,0,2.1-0.4,3.2-0.7c0.5-0.1,1-0.6,1.5-0.6
		c0.5,0,1,0.3,1.5,0.4c-0.3,0.5-0.5,1.1-0.8,1.5c-0.2,0.3-0.7,0.3-1.1,0.4c-0.9,0.4-1.4,1-1.4,2.1C169.2,95.3,168.8,96.1,168.6,97.4
		z M161.4,93.6c1.4,0.8,2.5,1.4,3.8,2.1c0.3-0.8,0.5-1.3,0.8-2.1C164.4,93.6,163.1,93.6,161.4,93.6z"/>
	<path class="st0" d="M168.5,83.4c-2.3,0-4.5,0-6.8,0c-0.7,0-1.6,0.1-1.6-1c-0.1-1.1,0.7-1.5,1.6-1.6c2.9-0.3,5.7-0.6,8.6-0.7
		c2.3-0.1,4.7,0.1,7,0.4c0.6,0.1,1,0.9,1.5,1.4c-0.6,0.4-1.1,1.1-1.7,1.2c-2.8,0.3-5.7,0.3-8.5,0.5
		C168.5,83.5,168.5,83.4,168.5,83.4z"/>
</g>
</svg>
