<?xml version="1.0" encoding="utf-8"?>
<!-- Generator: Adobe Illustrator 19.2.1, SVG Export Plug-In . SVG Version: 6.00 Build 0)  -->
<svg version="1.1" id="Layer_1" xmlns="http://www.w3.org/2000/svg" xmlns:xlink="http://www.w3.org/1999/xlink" x="0px" y="0px"
	 viewBox="0 0 200 338.1" style="enable-background:new 0 0 200 338.1;" xml:space="preserve">
<style type="text/css">
	.st0{fill:#FF5722;}
</style>
<g id="stomachvirus-girl2">
	<path class="st0" d="M49.5,338.1c0.7-7.2,0.2-14.3-0.5-21.5c-0.5-4.6-2.8-6.6-6.6-7.4c-9.2-2.1-16.8-7.7-25.1-11.6
		c-8.9-4.2-13-11.9-14.1-21.5c-1.5-13.6-1.1-27.3-0.6-41c0.1-4.4,0.8-8.7,1.1-13.1c0.1-0.7-0.3-1.5-0.6-2.2
		c-0.4-1.1-1.2-2.1-1.4-3.3C1,212.8,0,209.1,0,205.4c0-7.6,0.2-15.2,0.9-22.7c0.5-4.9,3.5-8.6,7.6-11.5c8.1-5.7,16.1-11.7,24.2-17.5
		c6.8-4.9,13.9-9.5,20.7-14.3c2.5-1.7,4.7-3.8,7.1-5.7c1.9-1.5,2.3-3.5,2.4-5.9c0.3-4.5,0.8-9.1,1.3-13.6c0.3-2.7-0.8-4.6-2.7-6.5
		c-3.7-3.7-6.9-7.8-6.1-13.5c0.8-6.4,2-12.7,5.3-18.6c1.6-2.8,1.8-6.5,2.5-9.8c1.6-7.7,3.6-15.2,7.5-22.1c2-3.4,4.2-6.7,6.5-10
		c1.5-2.2,1.3-4-1.1-5.2c-2.8-1.5-3.8-3.9-4.1-7c-1-9,5.9-16.9,13.3-19.8c6.2-2.5,12.7-2.4,18.8-0.2c4.5,1.6,8.1,5,10.3,9.4
		c0.9,1.7,0.9,3.9,1.5,5.8c0.3,0.9,1.2,1.9,2,2.1c2.5,0.8,5.2,1.4,7.8,1.7c7.2,0.6,13.3,4.5,19.8,7.1c4.1,1.6,6.9,4.5,8.8,8.4
		c0.3,0.6,0.7,1.2,1.1,1.6c5.3,4.3,7.3,10.3,8.5,16.6c0.9,5,1.5,10.1,2.1,15.2c0.7,6.1-2,11.1-5.4,16c-1.9,2.8-3.1,6.1-4.3,9.4
		c-1.7,4.8-3.1,9.7-4.7,14.5c-0.7,2.1-1.6,4.3-2.8,6.2c-3,4.5-3.7,9.8-5.1,15.3c3.4-0.2,6.5-0.4,9.6-0.7c8.9-1,18,6.5,20.6,13.3
		c3.7,9.8,7.8,19.4,11.4,29.3c0.6,1.6,0,4.1-0.8,5.8c-1.3,2.6-1.2,4.8,0.2,7.3c4.8,8.7,6.2,18.4,8.4,27.9c0.5,2.2,1.4,4.3,2,6.5
		c1.4,5.5,2.6,11,3.9,16.6c0.4,1.7,0.8,3.3,1,5c0.3,4.1-0.1,8-1.8,11.9c-2,4.8-3.2,9.9-5.3,14.6c-2.7,6.1-5.3,12.3-8.9,17.9
		c-3.9,6-5.7,11.7-4.1,19c1.4,5.9,2.3,12,4.5,17.7c0.8,2,0.6,3.5-1.9,4.1c-3.9-7-5.2-14.7-6.2-22.9c-0.5,0.7-0.9,1.1-1.2,1.6
		c-2.3,4.7-6.1,7.6-10.7,10c-7.5,4-14.5,8.8-22.1,12.7c-3.6,1.9-7.8,2.6-11.8,3.6c-4.6,1.2-9.3,2.3-14,3.2c-2.8,0.5-5.7,0.8-8.5,0.7
		c-2-0.1-3.7-1.1-4.4-3.3c-0.2-0.6-1.1-1.2-1.9-1.5c-5.5-2-11-4.1-16.5-5.8c-3.4-1.1-6.9-1.9-10.5-2.2c-5.1-0.5-9.1-3.3-13.5-5.4
		c-2.5-1.2-5.1-2.1-7.5-3.1c0.1,8.1,0.2,15.8,0.3,23.4C52.5,338.1,51,338.1,49.5,338.1z M41.9,223.2c1.6-0.4,2.6-0.6,3.5-0.9
		c3.7-1.4,6.7-3.8,9-7c0.9-1.2,2.3-1.8,3.3-0.8c0.5,0.5,0.5,2.5-0.1,3.2c-3.8,5-8.5,8.8-15,9.8c-0.7,0.1-1.6,1-1.8,1.7
		c-0.7,2.7-0.1,5.3,1.3,7.8c1.2,2.2,2.4,4.4,3.3,6.8c4.9,12.6,7.2,25.8,9.7,38.9c0.2,1.3,1.4,2.7,2.6,3.4c2.2,1.3,4.8,2.1,7.1,3.3
		c7.2,3.6,14.5,3.8,22.1,1.2c3.3-1.2,6.6-2.5,10-3c6.4-1,13-1.4,19.4-2c0.7-0.1,1.5,0.5,2.3,0.6c3.1,0.4,6.7,1.9,9.2,0.8
		c7.6-3.4,15.2-2.5,22.8-1.2c5.6,0.9,7.8,0.2,9.6-5.2c3.2-9.8,4.1-20,3.2-30.3c-0.4-4.2-1.2-8.7-2.9-12.5c-2.8-6.4-4-13-5.2-19.7
		c-1-5.6-0.9-11.5-2.5-16.9c-2.2-7.6-5.4-14.9-8.4-22.3c-1.4-3.5-3.2-6.9-4.7-10.4c-0.3-0.6,0.2-1.6,0.4-2.4
		c0.7,0.4,1.7,0.6,2.1,1.3c1.2,2,2.1,4.2,3.3,6.2c1.6,2.8,3.2,5.6,4.8,8.4c0-4.7-0.1-9.3,0.1-13.8c0-1,0.7-2,1.1-3
		c0.7,0.8,1.5,1.6,2.1,2.5c0.2,0.3,0.2,0.8,0.2,1.2c0.2,4.3,0.4,8.5,0.5,12.8c0.1,2.9,0,5.9,0,8.8c0,3.5,1.2,4.4,4.5,3.3
		c1.4-0.4,2.8-0.9,4.1-1.4c5.1-2,9.3-5.3,13.4-8.9c5-4.3,6.1-7.7,3.8-13.8c-3.3-8.7-6.6-17.4-10.4-25.9c-2.5-5.5-7.2-8.7-13.2-9.7
		c-1.5-0.3-2.7-0.2-2.9,1.9c-0.2,2.6-0.8,5.3-1.4,7.8c-0.2,0.7-1,1.3-1.5,2c-0.6-0.6-1.3-1.1-1.6-1.8c-0.2-0.4-0.1-1.1,0-1.7
		c0.5-2.5,1-5,1.6-7.6c-2.3,0-4.5,0.1-6.7,0c-1.4-0.1-2.3,0.4-3.2,1.7c-4.5,6.2-8.5,12.9-15.3,17.2c-0.5,0.3-0.8,1.2-0.8,1.9
		c-0.9,7-1.3,14.1-2.6,21.1c-1,5.7-2.3,11.5-5.6,16.5c-2.1,3.1-4.4,6-6.7,9c-2.2,2.9-4.9,4.9-8.8,4c-4.3-1-8.7-1.9-12.8-3.6
		c-7.8-3.1-15-7.6-20.4-14c-7.1-8.3-13.4-17.2-19.9-25.9c-2.4-3.2-4.6-6.5-6.8-9.7c-7.7,5.4-15.2,10.7-22.5,15.9
		c1.3,3.2,2.4,6,3.6,8.7c0.6,1.3,0.6,2.4-0.9,2.7c-0.6,0.1-1.7-0.9-2.1-1.7c-1.2-2.4-2.1-4.9-3.2-7.5c-1.9,1.4-3.4,2.6-5,3.7
		c-3.4,2.2-5.6,5.3-6.3,9.2C3.4,190.7,3.1,198,4,205.2c0.2,1.9,1.5,3.9,1.2,5.7c-0.8,5,1.5,6.5,5.9,8.3c7.8,3.3,15.8,2.9,23.8,3.4
		c1.7,0.1,2.8-0.9,2.8-2.7c-0.1-2,0-4.1-0.4-6.1c-0.8-3.9-1.9-7.7-2.8-11.6c-0.3-1.4-0.2-2.8,1.3-3.1c0.5-0.1,1.6,1.4,1.9,2.3
		C39.7,208.4,42.6,215.2,41.9,223.2z M114.3,162.6c-4.9,0-9.2,0.5-13.3-0.2c-3-0.5-6.1-2-8.4-4c-2.9-2.6-5.1-6.1-7.5-9.3
		c-3.3-4.2-6.6-8.3-9.7-12.5c-3.7-4.9-5.5-10.5-5.2-16.6c0-0.5,0.8-1,1.2-1.5c0.4,0.4,1,0.8,1.1,1.3c0.3,1,0.4,2.1,0.5,3.1
		c0.6,4,1.3,8,4.2,11.2c1.4,1.6,3,3,4.3,4.7c2.7,3.5,5.2,7.2,7.9,10.6c2.7,3.5,5.3,7.3,9.7,9.1c4,1.6,8.3,2.1,12.1,0.6
		c3.5-1.4,6.4-4.1,9.8-6.4c-2.9,0-5.4,0.4-7.8-0.1c-4.7-0.9-8.1-3.9-10.8-7.8c-1.1-1.6-0.5-2.4,1.2-2.7c3.3-0.6,6.5-1.4,9.8-1.9
		c1.1-0.2,2.2,0.2,3.3,0.4c1.1,0.2,2.2,0.9,3.4,0.9c2.6,0.2,3.8,1.2,4,3.9c0.1,1.5,0,3,0,4.5c0.3,0.1,0.7,0.2,1,0.3
		c7.9-8.9,16.5-17.4,17.4-30.5c-3.7-1.3-7.5-2.7-11.6-4.1c-0.4,4.5-1.2,9.1-0.1,13.7c0.6,2.4,0,4.5-2.2,6c-2.3,1.6-4.7,2.9-7.7,2
		c-1.6-0.5-3.2-0.9-4.9-1.1c-2.2-0.2-4-1.5-4.2-3.3c-0.3-2.2,1.3-5.5,2.9-6c0.3-0.1,0.7,0.1,1.5,0.2c-0.8,1.1-1.6,1.8-1.9,2.7
		c-0.3,1.1-0.5,2.6,0,3.6c0.3,0.5,2.1,0.3,3.2,0.2c0.5,0,1.1-0.6,1.6-0.5c0.7,0.1,1.8,0.5,1.9,0.9c0.5,2.3,2.1,1.8,3.5,1.6
		c3.2-0.6,4.8-3,4.5-6.2c-0.2-3.1-0.5-6.2-0.5-9.3c0.1-3.2,0.5-6.4,2.8-8.9c0.5-0.6,1.5-1,2.2-1c1.1,0,2.2,0.8,3.3,0.8
		c2.7-0.1,4.6,1.3,6.5,2.9c0.5,0.4,1,0.7,1.7,1.2c0.6-1,1-1.8,1.6-3c-2.1-0.6-3.8-1.1-5.5-1.6c-2.8-0.9-3.3-1.4-3-3.5
		c0.9,0.3,1.7,0.6,2.5,0.8c1.5,0.5,3.1,1,4.6,1.3c1.6,0.3,2.4-0.3,3.1-2.1c2.2-6.3,4.7-12.4,7.3-18.5c0.6-1.5,0.2-2.4-1.1-3
		c-2.1-0.9-4.2-1.7-6.4-2.4c-6.3-2-7.1-3.4-7.5-9.7c-0.4-4.8-1.7-9.6-2.6-14.5c-1.5,0.1-2.3,0.1-3.4,0.2c1,6.1,1.9,12.1,2.8,18
		c-0.2,0.1-0.5,0.3-0.7,0.4c-2.8-2.2-5.4-4.7-8.3-6.6c-3-2-6.2-4.1-9.6-4.8c-5.3-1.1-9.4,1.8-11.6,6.5c-3.1,6.4-8.5,9.2-14.8,11
		c-4.7,1.4-8.7,3.5-10.7,8.4c-0.7,1.9-1.6,3.7-2.6,5.4c-0.6,1-1.6,1.7-2.4,2.6c-0.3-0.1-0.6-0.3-0.9-0.4c0-2-0.5-4.2,0.1-6.1
		c1.8-6.2-1.9-10-5.5-13.9c-0.9-1-2.3-1.7-3.6-2.4c-1.6-0.9-3-0.7-3.7,1.2c-1.1,2.8-2.2,5.5-3.2,8.3c-0.1,0.3,0,1.1,0.3,1.2
		c0.3,0.2,1,0.2,1.4-0.1c0.5-0.4,0.8-1,1.2-1.5c3.1-3.7,7.4-3.2,8.9,1.1c0.2,0.6,0,1.3-0.1,2c-0.7-0.2-1.4-0.1-1.9-0.5
		c-2.9-2.2-3.6-2.3-6,0.5c-1.1,1.3-1.8,2.8-2.5,4.4c-0.8,2.1,0,3,2.1,2.5c3.7-0.9,6.8,0.2,9.4,2.8c2,2,3.6,4.5,2.7,7.5
		c-0.8,2.8-3.2,4.5-6,5.1c-1.8,0.4-2.2,1.3-2,3c0.2,1.3,0.4,2.6,0.3,3.9c-0.3,3.7-1,7.4-1.3,11.1c-0.2,2.5-1,4.6-2.9,6.2
		c-3.8,3.1-7.5,6.3-11.4,9.2c-1.7,1.3-1.9,2.5-0.8,4.1c1.8,2.6,3.6,5.2,5.4,7.8c6,8.7,11.5,17.8,19,25.4
		c5.3,5.4,10.3,10.9,18.7,11.8c6.7,0.8,7.7,0.8,11.1-4.6c0.3-0.4,0.4-0.9,0.6-1.3c1.9-4.8,3.9-9.6,5.5-14.5
		C112.8,169.9,113.5,166,114.3,162.6z M111.7,333.1c0.8,0,1.4,0.1,2.1,0c7.5-1.7,15.1-3,22.4-5.3c4.1-1.3,7.8-4.1,11.6-6.3
		c6.2-3.7,12.2-7.6,18.4-11.2c3.2-1.9,4.9-4.6,6.3-7.9c2.3-5.4,4.7-10.8,7.3-16c3-6.1,6.6-12,9.4-18.3c2.5-5.6,4.2-11.7,6.4-17.5
		c1.3-3.4,1-6.7,0.7-10.1c-0.6-9-4.9-17-6.6-25.7c-0.8-4.5-2.2-8.9-3.5-13.3c-1.6-5.2-3.3-10.3-5.1-15.6c-2.7,1.8-4.9,3.1-6.8,4.8
		c-4.5,4.1-10,6-15.8,7.4c-1.9,0.4-2.3,1.3-1.8,2.6c1.1,2.8,2.1,5.7,3.8,8.1c5.2,7.8,7.9,16.5,10.3,25.3c0.5,2,1.3,2.5,3.2,2.1
		c3.5-0.6,7.1-1,10.7-1.3c0.6,0,1.3,0.9,1.9,1.4c-0.6,0.6-1,1.4-1.7,1.6c-1.1,0.4-2.3,0.2-3.4,0.5c-3.4,0.8-6.8,1.6-10.1,2.7
		c-0.9,0.3-1.8,1.5-2,2.5c-0.6,2.8-0.9,5.6-1.2,8.5c-0.8,6.8-1.4,13.6-2.3,20.4c-0.7,5.3-2.1,10.4-5.3,14.7
		c-0.7,0.9-2.3,1.8-3.4,1.7c-5-0.2-10-1-15-1.2c-3.5-0.1-7,0.4-10.4,1c-2.1,0.4-4,1.7-6.1,2.4c-1.2,0.5-2.3,0.8-2.1,2.5
		c0.1,0.4-0.6,1.2-0.9,1.1c-0.5-0.1-1.1-0.5-1.5-0.9c-0.2-0.3-0.1-0.9-0.2-1.6c-1.3,0.2-2.4,0.3-3.3,0.4c0.4,2.1,0.8,3.9,1.2,5.7
		c5.4,0.5,10.6-1,15.7-2.7c1.3-0.5,2.9-1.6,4.5,0.7c-7.7,5.1-16.3,5.2-24.9,4.9c0,1.6,0.1,2.9-0.1,4.3c-0.1,0.5-0.9,1-1.3,1.5
		c-0.4-0.5-1-1-1.1-1.6c-0.2-1.1-0.1-2.2-0.1-3.7c-4.8,0.4-9.6-0.7-13.8,1.4c1.3,1.8,2.4,3.4,3.8,5.4c0.4,0,1.4,0.1,2.4,0.1
		c6.8,0.2,13.6,0.3,20.4,0.5c1.7,0,3.3,0.2,3.1,2.6c-10.7,0-21.3,0-31.9,0c0.4,1.7,0.8,3.2,1.2,4.8c2,0.1,4,0.3,6.1,0.4
		c7.4,0.3,14.9,0.6,22.3,1c1,0.1,2,0.8,3,1.2c0,0.3-0.1,0.6-0.1,0.9c-0.9,0.3-1.7,0.7-2.6,0.8c-1.7,0.1-3.4,0-5.2-0.1
		c-6.4-0.2-12.7-0.5-19.2-0.7c0.2,1.5,0.3,2.7,0.4,3.9c4.8,2.7,9.6,2.7,14.8,1.6c4.4-0.9,8.9-1.2,13.3-1.7c0.9-0.1,1.8,0.4,2.7,0.7
		c0,0.3-0.1,0.6-0.1,0.8c-6.6,2.7-13.9,2.5-20.7,4.4C111.7,330.8,111.7,331.9,111.7,333.1z M119.1,289.9c0-0.2-0.1-0.3-0.1-0.5
		c-2.7,0-5.3,0-8,0c-6.3-0.1-12.4,1.1-18.4,3.2c-4.6,1.6-9.3,3.2-14.1,3.5c-10.4,0.6-19.5-3.9-27.7-9.4c-6-4.1-11.1-9.7-16.4-14.8
		c-1.3-1.2-2.5-1.4-4-1.1c-3.4,0.6-6.7,1.4-10.1,1.8c-1,0.1-2.1-0.7-3.1-1.1c0.8-0.8,1.4-2.1,2.3-2.4c2.6-0.8,5.2-1.4,7.9-1.7
		c2.4-0.3,3.6-1.2,3.9-3.7c1.2-9.8,2.6-19.6,3.9-29.4c0.3-2.4,0.4-4.8,0.7-7.3c-3.8,0-7.1,0.2-10.3-0.1c-4.6-0.4-9.4,0-13.6-2.5
		c-3.7-2.2-5.4-1.2-5.4,3c-0.1,10.9-0.3,21.8-0.2,32.7c0.1,7.2-0.1,14.5,2.2,21.4c1.8,5.6,5.4,9.7,10.5,12.8
		c10.5,6.3,22.2,10,33.1,15.3c4.8,2.3,9.9,4.3,14.6,6.9c3.2,1.7,6.2,2.8,9.9,3.1c4.9,0.3,9.8,0.8,13.6,4.6c1.2,1.2,3.2,1.6,4.8,2.3
		c-3.1-1.5-2.3-4.4-2.4-6.8c-5.5-1.9-6.9-5.8-3.6-9.7c0.4-0.5,0.9-1,1.1-1.6c1.8-5.5,6.6-9.1,12.4-9.1c2.1,0,4.2,0,6.6,0
		c-0.3-0.7-0.5-0.9-0.6-1.2c-1.6-4,0.3-6.8,4.6-7.1C115.2,290.8,117.1,290.3,119.1,289.9z M50.8,281.9c-3.2-15-5.2-29.7-12.3-43.7
		c-0.3,1.7-0.6,2.8-0.7,3.8c-0.9,7.7-1.6,15.4-2.6,23.1c-0.2,1.6,0,2.7,1.1,3.7C40.9,273,45.6,277.2,50.8,281.9z M167,241.6
		c0-1.8,0.3-3.8-0.1-5.5c-1.1-4.8-2.5-9.5-4-14.2c-0.9-2.7-2.3-5.1-3.6-7.7C159.8,223.9,162.4,233,167,241.6z M59.9,99
		c0.9,4.1,3.4,6.4,6.1,8.4c1.9,1.4,4.6,0.5,5.5-1.7c0.8-2.2-1.3-5.5-4.1-6C65,99.3,62.6,99.2,59.9,99z M105.9,144.3
		c1,3.7,3.8,5.1,6.7,5.8c2.3,0.5,4.9,0.7,7.2-0.4c0-0.3,0.1-0.6,0.1-1C115.3,147.3,110.6,145.8,105.9,144.3z M103.4,22.1
		c-1.2-0.7-1.9-1.5-2.3-1.4c-4.2,1.5-8.4,3.1-12.5,4.8c-0.4,0.2-0.4,1.2-0.5,1.8c0.6,0.1,1.3,0.4,1.9,0.2c1.5-0.4,2.8-1.1,4.2-1.6
		C97.1,24.8,99.8,23.6,103.4,22.1z M108.7,143.2c4.3,1.4,8.7,2.8,13.2,4.2c1.3-2.2,0.5-3.8-2.4-3.9c-0.6,0-1.4-0.1-1.8-0.4
		C114.6,140.8,111.7,142.4,108.7,143.2z M115.6,298.5c0.6-2.8-0.1-5.2-1.7-5c-1,0.1-2.6,1-2.9,1.9
		C110.4,297.4,111.8,298.2,115.6,298.5z M92.7,309c2.4-0.2,4-0.4,5.7-0.5c0.1-0.3,0.3-0.5,0.4-0.8c-1.2-0.8-2.4-1.6-3.7-2.4
		C94.3,306.3,93.6,307.4,92.7,309z M94.7,316.2c-0.7-1.3-1.2-2.4-1.9-3.3c-0.3-0.4-1.2-0.9-1.6-0.7c-0.4,0.2-0.8,1-0.9,1.6
		C90,315.8,91.1,316.5,94.7,316.2z M99.1,324c0.4-2.3-0.5-3.5-2.3-4c-0.3-0.1-1.4,0.9-1.4,1.4C95.3,323.8,97.4,323.4,99.1,324z
		 M140.2,117.7c1.2-0.3,2.2-0.5,3.2-0.7c-0.6-1-1.1-2.1-2-3.6C140.9,115.2,140.6,116.1,140.2,117.7z M136.3,111.9
		c-1.3,0.6-2.3,1.1-3.3,1.6c0.8,0.8,1.7,1.7,2.8,2.7C136,114.7,136.1,113.7,136.3,111.9z M108.7,333.6c0.3-0.3,0.6-0.6,1-1
		c-0.8-0.7-1.5-1.5-2.3-2.2c-0.3,0.4-0.9,1.2-0.8,1.3C107.1,332.4,107.9,333,108.7,333.6z"/>
	<path class="st0" d="M100.6,104c3.5,0.7,6.1,1.3,8.8,1.7c2.1,0.4,4.2,0.5,6.3,0.8c2.1,0.3,3.2,1.5,3.1,3.6c-0.1,2.2-2,4.2-4.1,3.8
		c-2.2-0.4-4.6-1.2-6.5-2.4C105.4,109.7,102.7,107.6,100.6,104z M106.3,107.2c-0.1,0.2-0.3,0.3-0.4,0.5c1.3,1.1,2.5,2.2,4.1,3.6
		c0.2-1.5,0.4-2.5,0.5-3.5C109,107.5,107.6,107.4,106.3,107.2z M115,113c1-0.9,2.1-1.5,2.2-2.1c0.1-0.8-0.6-1.7-1.2-3.1
		C115.6,109.8,115.4,111.1,115,113z"/>
	<path class="st0" d="M124.3,105.1c-1.3,0.2-2.7,0.8-3.8,0.4c-4.4-1.4-8.7-2.9-12.9-4.6c-0.7-0.3-1.1-1.5-1.6-2.3
		c1-0.2,2.2-0.8,3-0.5c2.5,0.8,4.9,2.1,7.4,3c1.9,0.8,4,1.4,5.9,2.1c0.7,0.3,1.4,0.6,2,1C124.3,104.5,124.3,104.8,124.3,105.1z"/>
</g>
</svg>
