<?xml version="1.0" encoding="utf-8"?>
<!-- Generator: Adobe Illustrator 19.1.0, SVG Export Plug-In . SVG Version: 6.00 Build 0)  -->
<svg version="1.1" id="Layer_1" xmlns="http://www.w3.org/2000/svg" xmlns:xlink="http://www.w3.org/1999/xlink" x="0px" y="0px"
	 viewBox="0 0 200 386.6" style="enable-background:new 0 0 200 386.6;" xml:space="preserve">
<style type="text/css">
	.st0{fill:#00B0FF;}
	.st1{fill:#D32F2F;}
</style>
<path class="st0" d="M45.6,386.5c3.5,0,7.4,0,10.8,0c0.4-10.8,0.8-21.7,1.5-32.9c0.4-6.6,1.5-12.8,3.1-19.3
	c1.5-7,7.7-11.6,14.7-11.6c5.4,0,10.8,0.8,16.2,1.2c9.3,0.8,18.2,2.7,27.5,2.7c10.4,0,20.5-1.2,30.9-2.7
	c10.1-1.5,14.3-6.2,15.1-16.6c0.4-7.4,0-15.1-0.8-22.8c-0.8-7.4-0.4-14.7,1.5-22.1c0.8-2.3,3.1-4.6,5-6.6c5.8-5.4,5.8-5.8,1.5-12.4
	c-1.5-1.9-3.1-4.3-4.3-6.2c2.3-2.7,4.6-5.8,7-8.5c1.9-1.9,2.3-4.3,1.2-6.6c-1.2-2.7-2.3-5.4-3.9-8.5c-4.6-10.1-2.7-14.7,7.7-18.2
	c3.5-1.2,7-2.3,10.4-3.1c4.3-1.2,7.4-2.7,8.9-7v-6.2c-1.5-6.2-5-11.2-8.5-16.2c-10.4-15.5-20.9-30.9-30.9-46
	c-2.3-3.5-2.3-7.4-0.4-11.2c0.8-1.2,1.2-2.7,1.9-3.5c4.6-6.2,5-12.8,2.7-19.7c-3.5-10.4-7.7-20.9-10.8-31.7c-5-17-10.8-34-17.8-50.7
	h-12c0.4,1.2,0.8,1.9,0.8,3.1C130.4,21.7,135,41,139.7,60c1.2,5.4,2.3,10.8,2.3,16.2c0,3.1-1.9,6.6-3.5,9.7c-1.2,2.3-2.7,4.6-3.1,7
	s-0.4,5.4,0.8,7.4c8.9,17,18.6,33.7,27.5,50.7c2.7,4.6,5,9.7,7.4,14.7c1.2,3.1,1.5,7-0.4,10.1c-0.8,1.5-2.3,2.7-3.9,3.5
	c-5,1.9-10.4,3.5-15.5,5c-8.5,2.7-10.1,7-7.7,15.5c1.5,4.6,3.5,9.3,5,13.9c0.4,1.2,0,2.7-0.4,3.5c-2.3,3.1-4.6,5.8-7.4,8.5
	c-1.5,1.5-1.2,2.3,0,3.5c2.3,2.7,3.9,5.4,5.8,8.5c1.2,1.9,0.8,3.9-0.8,5.8c-0.8,0.8-1.5,1.9-2.3,2.3c-5.8,3.9-7,10.1-7,16.6
	c0.4,8.5,1.5,16.6,1.5,25.1c0,7.4-0.4,15.5-8.1,19.7c-3.5,1.9-8.1,3.1-12,3.5c-9.3,1.2-18.6,1.9-27.9,1.9
	c-9.3-0.4-18.6-2.3-27.5-3.5c-7-0.8-14.3-2.3-21.3,0.8c-3.5,1.5-6.2,4.3-7,8.1c-1.2,6.6-2.3,12.8-2.7,19.3
	c-0.4,16.2-0.4,32.9-0.4,49.1C36,386.8,40.6,386.5,45.6,386.5z"/>
<path id="cross_3_" class="st1" d="M62.7,204c0-7.4,0-14.3,0-21.7c-0.4,0-0.4,0-0.8,0c-6.2,0-12.8,0-19,0c-0.4,0-0.4,0-0.8,0
	c0-7,0-13.5,0-20.1c-7.4,0-14.3,0-21.7,0v0.4c0,6.6,0,12.8,0,19.3c0,0.4,0,0.4,0,0.8c-7,0-13.5,0-20.5,0c0,7.4,0,14.3,0,21.7
	c7,0,13.5,0,20.5,0c0,7,0,13.5,0,20.1c7.4,0,14.3,0,21.7,0c0-7,0-13.5,0-20.1C49.1,204,55.7,204,62.7,204z"/>
</svg>
