<?xml version="1.0" encoding="utf-8"?>
<!-- Generator: Adobe Illustrator 19.1.0, SVG Export Plug-In . SVG Version: 6.00 Build 0)  -->
<svg version="1.1" id="Layer_1" xmlns="http://www.w3.org/2000/svg" xmlns:xlink="http://www.w3.org/1999/xlink" x="0px" y="0px"
	 viewBox="-378.9 231 199.9 100" style="enable-background:new -378.9 231 199.9 100;" xml:space="preserve">
<style type="text/css">
	.st0{fill:#00B0FF;}
	.st1{font-family:'HelveticaNeue-CondensedBold';}
	.st2{font-size:23.1688px;}
	.st3{fill:#FF1744;}
	.st4{fill:#00E676;}
	.st5{fill:#FFAB40;}
	.st6{fill:#FF1754;}
</style>
<text transform="matrix(1.0061 0 0 1 -318.8225 287.7196)" class="st0 st1 st2">SELFCARE-</text>
<text transform="matrix(1.0061 0 0 1 -215.6828 287.7196)" class="st3 st1 st2">O</text>
<text transform="matrix(1.0061 0 0 1 -202.7014 287.7196)" class="st4 st1 st2">T</text>
<text transform="matrix(1.0061 0 0 1 -191.5325 287.7196)" class="st5 st1 st2">C</text>
<path class="st0" d="M-367.1,330.9c0.9,0,1.9,0,2.8,0c0.1-2.8,0.2-5.6,0.4-8.5c0.1-1.7,0.4-3.3,0.8-5c0.4-1.8,2-3,3.8-3
	c1.4,0,2.8,0.2,4.2,0.3c2.4,0.2,4.7,0.7,7.1,0.7c2.7,0,5.3-0.3,8-0.7c2.6-0.4,3.7-1.6,3.9-4.3c0.1-1.9,0-3.9-0.2-5.9
	c-0.2-1.9-0.1-3.8,0.4-5.7c0.2-0.6,0.8-1.2,1.3-1.7c1.5-1.4,1.5-1.5,0.4-3.2c-0.4-0.5-0.8-1.1-1.1-1.6c0.6-0.7,1.2-1.5,1.8-2.2
	c0.5-0.5,0.6-1.1,0.3-1.7c-0.3-0.7-0.6-1.4-1-2.2c-1.2-2.6-0.7-3.8,2-4.7c0.9-0.3,1.8-0.6,2.7-0.8c1.1-0.3,1.9-0.7,2.3-1.8v-1.6
	c-0.4-1.6-1.3-2.9-2.2-4.2c-2.7-4-5.4-8-8-11.9c-0.6-0.9-0.6-1.9-0.1-2.9c0.2-0.3,0.3-0.7,0.5-0.9c1.2-1.6,1.3-3.3,0.7-5.1
	c-0.9-2.7-2-5.4-2.8-8.2c-1.3-4.4-2.8-8.8-4.6-13.1h-3.1c0.1,0.3,0.2,0.5,0.2,0.8c1.4,4.8,2.6,9.8,3.8,14.7c0.3,1.4,0.6,2.8,0.6,4.2
	c0,0.8-0.5,1.7-0.9,2.5c-0.3,0.6-0.7,1.2-0.8,1.8c-0.1,0.6-0.1,1.4,0.2,1.9c2.3,4.4,4.8,8.7,7.1,13.1c0.7,1.2,1.3,2.5,1.9,3.8
	c0.3,0.8,0.4,1.8-0.1,2.6c-0.2,0.4-0.6,0.7-1,0.9c-1.3,0.5-2.7,0.9-4,1.3c-2.2,0.7-2.6,1.8-2,4c0.4,1.2,0.9,2.4,1.3,3.6
	c0.1,0.3,0,0.7-0.1,0.9c-0.6,0.8-1.2,1.5-1.9,2.2c-0.4,0.4-0.3,0.6,0,0.9c0.6,0.7,1,1.4,1.5,2.2c0.3,0.5,0.2,1-0.2,1.5
	c-0.2,0.2-0.4,0.5-0.6,0.6c-1.5,1-1.8,2.6-1.8,4.3c0.1,2.2,0.4,4.3,0.4,6.5c0,1.9-0.1,4-2.1,5.1c-0.9,0.5-2.1,0.8-3.1,0.9
	c-2.4,0.3-4.8,0.5-7.2,0.5c-2.4-0.1-4.8-0.6-7.1-0.9c-1.8-0.2-3.7-0.6-5.5,0.2c-0.9,0.4-1.6,1.1-1.8,2.1c-0.3,1.7-0.6,3.3-0.7,5
	c-0.1,4.2-0.1,8.5-0.1,12.7C-369.6,331-368.4,330.9-367.1,330.9z"/>
<path id="cross_3_" class="st6" d="M-362.7,283.7c0-1.9,0-3.7,0-5.6c-0.1,0-0.1,0-0.2,0c-1.6,0-3.3,0-4.9,0c-0.1,0-0.1,0-0.2,0
	c0-1.8,0-3.5,0-5.2c-1.9,0-3.7,0-5.6,0v0.1c0,1.7,0,3.3,0,5c0,0.1,0,0.1,0,0.2c-1.8,0-3.5,0-5.3,0c0,1.9,0,3.7,0,5.6
	c1.8,0,3.5,0,5.3,0c0,1.8,0,3.5,0,5.2c1.9,0,3.7,0,5.6,0c0-1.8,0-3.5,0-5.2C-366.2,283.7-364.5,283.7-362.7,283.7z"/>
</svg>
