<?xml version="1.0" encoding="utf-8"?>
<!-- Generator: Adobe Illustrator 19.1.0, SVG Export Plug-In . SVG Version: 6.00 Build 0)  -->
<svg version="1.1" id="Layer_1" xmlns="http://www.w3.org/2000/svg" xmlns:xlink="http://www.w3.org/1999/xlink" x="0px" y="0px"
	 viewBox="0 0 150 134.8" style="enable-background:new 0 0 150 134.8;" xml:space="preserve">
<style type="text/css">
	.st0{fill:#03A9F4;}
</style>
<g id="bodyache-lady">
	<desc  xmlns:shape="http://adobe.com/products/shape">
		<shape:version>1.0</shape:version>
		<shape:captureDetail>1.000000</shape:captureDetail>
		<shape:sourceImage></shape:sourceImage>
		<shape:source>0</shape:source>
		<shape:platformVersion>shape-android-1.1.117</shape:platformVersion>
	</desc>
	<path class="st0" d="M37.3,48.4c1.6,3.7,2.1,7.8,1.4,11.7c-0.6,3.5-2.4,7.1-5.6,8.6c-2.8,1.3-6.2,0.8-8.9-0.7
		c-2.7-1.5-4.8-3.9-6.7-6.4c-3.4-4.4-6.2-9.5-6.7-15.1c-0.5-5.6,2-11.6,7-14.1c5-2.5,12.2,0.1,13.4,5.5c1.3-4.2,2.8-8.3,4.4-12.4
		C40.1,14.9,47,3.8,58.2,0.8c9-2.4,18.4,1,26.8,5.1c9.6,4.6,19.2,10.6,24.1,19.9c2,3.7,3.2,8.2,1.8,12.2c-1.2,3.4-4.1,6-6.8,8.3
		c-4.1,3.5-8.3,7.1-12.4,10.6c2.1-4.3,6.3-7.2,10.1-10.2c3.8-3,7.6-6.6,8.2-11.4c0.5-3.6-0.9-7.2-2.8-10.3
		c-6-9.8-16.8-15.7-27.5-20.1c-5.5-2.2-11.3-4.3-17.1-3.7c-7.4,0.7-14,5.6-18.5,11.5c-4.5,6-7.2,13.1-9.9,20
		c-0.5,1.4-0.9,3.5,0.6,4.1c2,0.9,2.7,3.3,3.2,5.4c1.7,7.6,3.4,15.2,5.1,22.8c0.5,2.2,1.1,4.6,2.6,6.2c3.2,3.2,8.8,2,12.2-0.9
		s5.6-7.1,8.8-10.2c5.2-5.1,9-11.4,11.1-18.4c-1,9.2-7.3,16.7-13.4,23.7c-2.4,2.7-4.8,5.5-7.9,7.3c-3.1,1.8-7.2,2.4-10.3,0.7
		c-0.7,7.3-1.5,15.1-6.1,20.8c-4.5,5.6-11.6,8.1-18.2,10.9c-4.5,1.8-8.8,3.9-13.1,6.1c-1.4,0.8-2.9,1.5-4.1,2.6
		c-2.7,2.3-4.1,6-3.8,9.5c-1.9-3-0.8-7.2,1.6-9.8c2.4-2.6,5.8-4.1,9.1-5.4c4.3-1.8,8.6-3.6,12.9-5.3c4.3-1.8,8.7-3.6,12-6.9
		C42,90.5,43.6,82.5,45,75c0.1-0.7,0.2-1.6-0.3-2.1C39,66.4,42.6,55.2,37.3,48.4 M30.3,38.9c-1.1,0.5-1.9,1.5-2.2,2.6
		c-0.6,0.2-1.1-0.6-0.9-1.1c0.1-0.6,0.6-1,1.1-1.3c0.5-0.3,1-0.7,1.3-1.2c0.5-1.2-0.7-2.4-1.9-3c-2.8-1.6-6.4-2.6-9.3-1.1
		c-1.3,0.7-2.3,1.7-3.2,2.9c-0.9,1.2-1.8,2.4-2.3,3.8c-1.2,2.9-1.1,6.2-0.2,9.2c0.8,3,2.3,5.8,4,8.4c1.6,2.5,3.3,5,5.5,6.9
		c2.2,1.9,5.1,3.3,8,3.3c0.9,0,1.9-0.2,2.7-0.6c0.7-0.4,1.3-1,1.8-1.6c4-5,3.8-12.5,0.8-18.2c-0.1,1.5-2.2,2.3-3.3,1.3
		c0.9-0.2,2-0.7,2.1-1.6C34.4,44.2,32.9,40.8,30.3,38.9 M35.7,47.3c0.5,0,0.9,0.2,1.3,0.4c0.5-0.6,0.4-1.5,0.2-2.3
		c-0.4-1.9-1-3.7-1.7-5.5c-0.6-1.4-2.2-2.4-2.2-3.8c-0.2,0.4-0.4,0.9-0.5,1.3c-0.2,0.6-0.4,1.3,0,1.7c0.8,0.8,1.4,1.8,1.7,2.8
		c0.2,0.5,0.3,0.9,0.4,1.4C35.1,44.7,35.4,46,35.7,47.3"/>
	<path class="st0" d="M82.6,84.9c-0.8-0.9-0.4-2.4,0.4-3.3c0.3-0.3,0.6-0.6,0.9-0.7c1.1-0.4,2.2,0.3,3.1,1c0.6,0.5,1.4,1.2,1.2,2
		c-0.3,0.3-0.8,0-1.2-0.3c-0.6-0.5-1.3-1-1.9-1.6c-0.3-0.3-0.8,0-1.1,0.3c-0.3,0.3-0.5,0.7-0.8,0.9C83.4,83.8,83.1,84.5,82.6,84.9"
		/>
	<path class="st0" d="M44.8,46.9c0.7-0.2,1.4-0.3,2.1-0.3c0.5,0,1.1,0.1,1.6,0.2c2.6,0.5,5.2,1.2,7.7,2.2c0.1,0,0.2,0.1,0.3,0.2
		c0.2,0.2,0.2,0.5-0.1,0.7c-0.8,0.3-1.7-0.1-2.4-0.4c-1.4-0.6-3-1-4.5-1.3c-1.3-0.3-2.7-0.5-4.1-0.4C45.2,47.5,45,47.2,44.8,46.9"/>
	<path class="st0" d="M85.9,87.1c0.1,0.2,0.1,0.4,0,0.6c-1.6,0.3-3.2-0.5-4.4-1.7c-0.9-0.8-1.6-1.9-2.2-3c-0.2-0.5-0.4-1-0.6-1.5
		c-0.6-1.8-1-3.7-1.1-5.5c0-0.3,0-0.7,0.2-0.9c0.2-0.3,0.7-0.2,0.8,0.1c0.3,2.3,0.9,4.6,1.8,6.8c0.4,0.9,0.8,1.9,1.5,2.7
		c0.9,1,2.1,1.7,3.4,2C85.4,87,85.7,87.2,85.9,87.1"/>
	<path class="st0" d="M108.1,44.2c0.1,0,0.3-0.1,0.4-0.1c0.3,0.6,0.4,1.3,0.4,1.9c0.1,1,0.1,2,0.1,3c-0.1,4-1.7,7.9-4.4,10.9
		c-0.3,0.1-0.7-0.3-0.7-0.6c0-0.3,0.2-0.7,0.4-0.9c1.9-2.7,3-5.9,3.2-9.2c0-0.4,0-0.9,0.2-1.3c0.1-0.2,0.2-0.3,0.1-0.5
		C107.6,46.4,107.6,45.2,108.1,44.2"/>
	<path class="st0" d="M56.1,36c-1.4,0.8-2.9,1.6-4.5,1.9c-2.5,0.5-4.9,1.7-6.8,3.4c-0.3,0.3-0.6,0.6-1.1,0.7c-0.4,0.1-1,0-1.1-0.5
		c2.2-2.3,5-3.9,8.1-4.6c1.5-0.3,3-1,4.3-1.8c0.6-0.4,1.3-0.8,2-0.5C57.2,35.2,56.6,35.7,56.1,36"/>
	<path class="st0" d="M51.6,25.6c-1.8,1.8-3.5,3.7-5.2,5.6c-1.1,1.1-2.2,2.3-3.2,3.4c-0.4,0.5-0.9,0.9-1.6,1
		c-0.3-0.5,0.2-1.1,0.6-1.6c2.6-2.9,5.2-5.7,7.8-8.6c0.7-0.7,1.6-1.6,2.5-1.3C52.5,24.7,52,25.2,51.6,25.6"/>
	<path class="st0" d="M111,90.6c-1.3,1-2.5,2.1-3.6,3.3c-0.1,0.1,0,0.2,0,0.3c0.1,0.8,0.3,1.7,0.9,2.1c0.5,0.3,1.1,0.4,1.7,0.4
		c0,0.2,0,0.4,0.1,0.5c-0.6,0.6-1.6,0.5-2.3,0.1c-1.4-0.8-1.9-2.9-1-4.3c0.3-0.4,0.6-0.8,1-1.1c0.5-0.5,0.9-0.9,1.4-1.4
		c1-0.9,2-1.9,3.3-2c1.2-0.2,2.4,0.4,3.3,1.1c1.1,0.8,1.5,2.6,0.8,3.8c-0.2,0-0.4,0-0.6,0c0-1-0.1-2.1-0.8-2.7
		c-0.2-0.2-0.5-0.3-0.7-0.4c-0.5-0.2-1-0.5-1.6-0.5C112.1,89.8,111.5,90.2,111,90.6"/>
	<path class="st0" d="M103.3,55.6c0.3-0.3,0.8-0.4,1.1-0.2c-1,2.8-1.4,5.8-1.3,8.8c0.3,5.8-0.9,11.6-3.5,16.8
		c-0.2,0.5-0.6,1-1.1,1.1c-0.2-1,0.3-1.9,0.6-2.8c1.9-4.6,2.8-9.5,2.9-14.5C102.2,61.6,101.9,58.4,103.3,55.6"/>
	<path class="st0" d="M97,99.8c-0.4,0.7,0,1.6,0.6,2.1c0.6,0.5,1.4,0.6,2.2,0.7c0,0.2,0,0.4,0,0.6c-1.1,0.2-2.4,0.1-3.3-0.7
		c-0.9-0.7-1.3-2.1-0.8-3.1c1.7-3.3,3.4-6.7,5.1-10c0.4-0.7,0.7-1.5,1.3-2.1c1-1.1,2.7-1.5,4.1-1.1c1.4,0.4,2.6,1.6,2.9,3.1
		c-0.3,0.2-0.7,0-0.9-0.2c-1.1-1-2.5-2.3-3.9-1.8c-0.9,0.3-1.4,1.3-1.9,2.1C100.6,92.9,98.8,96.3,97,99.8"/>
	<path class="st0" d="M95,32.5c0-2.3-2.5-3.8-3.3-5.9c1.9,0.6,3.6,2.2,4.2,4.1c0.6,1.9,0.3,4.2-1,5.8c-3.5,4.7-4.2,10.8-4.7,16.6
		c-0.4,0.3-0.8-0.4-0.8-0.9c-0.3-5.8,1.2-11.7,4.3-16.6C94.3,34.7,95,33.7,95,32.5"/>
	<path class="st0" d="M96.2,83.4c0.4,0.2,0.8,0.9,0.4,1.1c-2.3-0.9-5.3-1.1-7.1,0.7c-1.1,1-1.5,2.6-1.9,4c-0.8,2.9-1.6,5.8-2.4,8.6
		c-0.2,0.8-0.5,1.7-0.4,2.5c0.1,0.8,0.5,1.7,1.2,2.1c0.5,0.3,1.3,0.5,1.3,1.1c-1.6,0.2-3.3-0.9-3.7-2.5c-0.2-1,0-2.1,0.3-3.2
		c0.7-2.6,1.4-5.3,2.1-7.9c0.5-1.8,0.9-3.6,2.1-5C89.9,82.7,93.5,82,96.2,83.4"/>
	<path class="st0" d="M98.1,84.4c1.1-0.4,2.3-0.8,3.5-0.8c1.2,0,2.5,0.6,2.9,1.8c-0.5,0.4-1.2-0.1-1.8-0.4c-1.3-0.6-2.8-0.1-4.2,0.4
		c-0.9,0.3-1.8,0.7-2.4,1.3c-0.6,0.6-0.9,1.3-1.3,2c-1.9,4.1-3.8,8.2-5.7,12.3c-0.2,0.3-0.3,0.7-0.2,1.1c0.1,0.3,0.3,0.5,0.5,0.6
		c1,0.9,2.3,1.6,3.6,1.9c0.2,0.3-0.3,0.6-0.6,0.7c-1.6,0.2-3-0.9-4.1-2c-0.3-0.2-0.6-0.5-0.6-0.9c-0.1-0.4,0.1-0.7,0.2-1.1
		c1.9-4.5,3.8-8.9,5.9-13.3c0.3-0.7,0.6-1.4,1.1-1.9C95.8,85.2,97,84.8,98.1,84.4"/>
	<path class="st0" d="M80,53.3c0.2,1.1,0.4,2.1,1.1,3c0.6,0.9,1.7,1.5,2.8,1.3c0.8-0.2,1.7-0.8,2.5-0.5c-1.3,1.8-4.2,2-5.8,0.5
		c-1-0.9-1.4-2.3-1.7-3.7c-1-4.9-0.6-10.1,1.3-14.8c0.7-1.8,2-3.7,3.8-3.6c1.5,0.1,2.5,1.3,3.3,2.6c0.8,1.4,1.4,2.8,1.7,4.4
		c-0.1,0.2-0.5,0.2-0.8,0.1c-0.2-0.2-0.3-0.5-0.4-0.7c-0.6-1.4-1.4-2.8-2.3-4c-0.4-0.5-0.8-1-1.4-1.1c-1-0.2-1.8,0.9-2.2,1.9
		C79.8,43.1,79.2,48.3,80,53.3"/>
	<path class="st0" d="M114.8,94.5c4.3-0.6,8.8-0.8,13.1,0c4.3,0.8,8.5,2.5,11.8,5.5c4.8,4.3,7.2,10.6,8.6,16.8
		c1.3,5.9,1.9,12,1.6,18c-0.4,0.3-0.8-0.3-0.8-0.8c-0.7-6.4-1-12.9-2.7-19.2c-1.7-6.3-5-12.3-10.4-15.9c-5.4-3.5-12.1-4-18.5-3.8
		C116.6,95.2,115.5,95.2,114.8,94.5"/>
</g>
</svg>
