<?xml version="1.0" encoding="utf-8"?>
<!-- Generator: Adobe Illustrator 19.2.1, SVG Export Plug-In . SVG Version: 6.00 Build 0)  -->
<svg version="1.1" id="Layer_1" xmlns="http://www.w3.org/2000/svg" xmlns:xlink="http://www.w3.org/1999/xlink" x="0px" y="0px"
	 viewBox="0 0 233.2 229.3" style="enable-background:new 0 0 233.2 229.3;" xml:space="preserve">
<style type="text/css">
	.st0{fill:#FF5722;}
	.st1{font-family:'HelveticaNeue-Bold';}
	.st2{font-size:21px;}
</style>
<path id="handshake" class="st0" d="M168.3,98.1c-2.6,2.4-5,4.5-7.4,6.6c1.8,5.3-0.3,11.5-8.2,11.7c-0.2,0.8-0.4,1.6-0.7,2.4
	c-1.2,3-3.3,4.7-6.5,5c-1.1,0.1-1.6,0.5-1.9,1.7c-1,3.8-3.3,5.7-7.2,5.9c-1.3,0.1-2.2,0.5-3,1.5c-3.3,4.4-7.8,5.4-12.8,4.4
	c-2.9-0.6-5.7-1.4-8.5-2.2c-0.8-0.2-1.4-0.3-1.9,0.5c-2.9,5-10.5,4.2-13.3-1.4c-0.2-0.4-0.4-0.8-0.6-1.1c-5.6,0.5-7.9-1-10.4-6.2
	c-5.4,0.3-9.4-3.2-9.6-9c-3.1-0.6-5.6-2.2-6.9-5.2c-1.3-3-0.9-5.9,1.2-8.4c-1.8-2.3-3.6-4.5-5.4-6.7c-0.7,1.1-1.3,2.1-1.9,3.1
	c-1.5,2.5-4,3-6.5,1.5c-2.7-1.6-5.3-3.2-8-4.8c-3.2-1.9-3.8-4.1-2-7.4c6.4-11.4,12.8-22.8,19.2-34.2c0.9-1.6,1.8-3.2,2.7-4.8
	c1.5-2.7,4-3.4,6.6-1.8c2.8,1.6,5.5,3.3,8.2,5c2.8,1.7,3.4,3.9,1.9,6.9c-0.2,0.4-0.4,0.8-0.6,1.3c2.8,2.2,5.9,3.9,9.5,4.1
	c0.3,0,0.7,0.1,1,0.1c2.2,0.5,3.9,0.6,5.6-1.6c1.1-1.4,3.5-2.2,5.4-2.6c10.4-2.2,20.8-2.6,31.2,0c1.8,0.5,3.7,1,5.6,1.1
	c1.7,0.1,3.4-0.2,5.5-0.4c-0.6-1.1-1-1.9-1.4-2.6c-1.1-2.2-0.5-4.7,1.6-6c3-1.9,5.9-3.7,8.9-5.4c2.5-1.5,5-0.8,6.4,1.7
	c7.4,13,14.7,26.1,22,39.1c1.8,3.3,1.2,5.4-2,7.4c-2.7,1.6-5.4,3.3-8.1,4.9c-2.5,1.5-5.1,0.7-6.5-1.9
	C169.3,99.7,168.8,99,168.3,98.1z M129.8,130.2c-0.5-0.2-0.8-0.4-1.1-0.6c-3.9-1.9-7.8-3.7-11.6-5.6c-1.8-0.9-2.1-3.1-0.5-3.9
	c0.7-0.4,1.9-0.3,2.7,0.1c4.4,2,8.6,4.3,13,6.1c1.5,0.6,3.4,0.6,5,0.4c1.5-0.1,2-1.7,2-3c0-0.5-0.8-1.3-1.4-1.6
	c-5-2.9-10-5.8-15-8.7c-1.5-0.9-1.9-2-1.3-3c0.9-1.4,2.2-1.6,3.7-0.7c5.4,3.2,10.8,6.3,16.2,9.4c1.7,1,3.4,0.7,5-0.2
	c2-1.3,2-3.9,0-5.1c-5.8-3.5-11.6-6.9-17.3-10.4c-1.6-1-2.1-2.2-1.4-3.5c0.6-1.2,1.9-1.4,3.5-0.4c1.6,0.9,3.1,1.8,4.6,2.8
	c5.1,3,10.3,6.1,15.5,9.1c2.1,1.2,4,0.7,5-1c1.3-2,0.9-3.8-1.2-5.4c-3.3-2.6-6.6-5.2-9.9-7.7c-8.6-6.5-17.6-12.3-27.2-17.2
	c-1.9-1-3.6-1.6-5.5-0.5c-0.9,0.6-1.8,1.3-2.6,2c-0.7,0.7-1.3,1.5-2,2.2C104,88,99.2,90.7,93,90.2c-2.3-0.2-3.7-1.8-4-4
	c-0.3-3,0.7-5.5,2.4-7.9c1.5-2.2,3-4.5,4.6-7c-5.1-0.3-9.5-1.8-13.4-4.9c-0.3,0.5-0.6,0.9-0.8,1.3c-2.7,4.8-5.3,9.6-8,14.4
	c-1.9,3.5-4,6.9-5.9,10.4c-0.2,0.4-0.3,1.3,0,1.7c1.7,2.2,3.5,4.3,5.2,6.5c4.6-3.5,8.1-2.9,12.8,2.3c0.2-0.2,0.4-0.4,0.5-0.6
	c1.7-2.7,4.3-4,7.4-3.5c3,0.5,5.5,2.4,6.4,5.3c0.7,2.4,1.7,3.8,4.1,4.9c3.3,1.5,4.5,4.8,4.2,8.6c3.1,0.7,5.3,2.4,6.5,5.3
	c1.3,3,0.7,5.7-1.4,8.5c3.1,0.7,5.9,1.4,8.7,1.9C125.2,133.7,127.8,133,129.8,130.2z M150.8,66.9c-0.9,0.3-1.6,0.5-2.3,0.7
	c-4.2,1.3-8.2,0.2-12.2-0.9c-9.9-2.5-19.9-1.9-29.8,0.2c-1.4,0.3-2.5,1-3.4,2.3c-2.2,3.2-4.5,6.4-6.7,9.6c-1,1.4-1.9,2.9-2.7,4.5
	c-0.8,1.4-0.4,2.3,1.2,2.3c1.4,0,2.8-0.2,4.1-0.8c3.6-1.6,6.4-4.1,8.6-7.3c0.4-0.5,0.8-1.2,1.3-1.4c2-0.8,4.1-1.4,6.2-2
	c0.6-0.2,1.4,0.1,2,0.4c3.5,1.8,7.1,3.6,10.5,5.6c10.1,5.9,19.8,12.5,28.7,20.1c1,0.9,1.8,1,2.8,0.1c2.3-2.1,4.7-4.2,7-6.3
	C161,84.9,155.9,76,150.8,66.9z M72.9,52.9c-7.5,13.4-15,26.7-22.6,40.1c3.1,1.9,6,3.7,9.1,5.6c7.6-13.4,15.1-26.7,22.6-40.1
	C78.9,56.7,75.9,54.8,72.9,52.9z M182.9,93.1c-7.6-13.5-15.1-26.8-22.6-40.2c-3.1,1.9-6.1,3.7-9.1,5.5c7.6,13.5,15.1,26.8,22.6,40.2
	C176.9,96.8,179.8,95,182.9,93.1z M84.9,122.6c0.3-0.2,1-0.4,1.4-0.8c0.5-0.5,0.8-1.2,1.2-1.7c2.7-3.6,5.4-7.2,8.2-10.8
	c1.3-1.8,1-3.8-0.9-5.3c-1.7-1.3-3.3-1-4.7,0.9c-2.9,3.9-5.7,7.8-8.6,11.7c-0.9,1.3-1,2.5-0.3,3.8C81.9,121.7,83.1,122.4,84.9,122.6
	z M93.7,129.4c1-0.7,1.9-0.9,2.3-1.5c2.6-3.4,5.1-6.8,7.6-10.2c1.1-1.6,0.5-3.7-1.3-5c-1.7-1.2-3-1.1-4.3,0.7
	c-2.4,3.2-4.7,6.4-7.1,9.6c-0.9,1.2-1.1,2.5-0.2,3.6C91.4,127.7,92.6,128.4,93.7,129.4z M111.1,126.3c0-1.9-0.9-3.6-2.5-4.1
	c-0.9-0.3-2.4-0.2-2.9,0.4c-1.8,2.1-3.5,4.3-5,6.6c-1,1.5-0.2,3.6,1.5,4.8c1.7,1.1,3,0.8,4.3-0.9c1.3-1.7,2.6-3.5,3.9-5.3
	C110.8,127.3,111,126.6,111.1,126.3z M73,109.1c0.1,2,0.8,3.4,2.4,3.9c0.9,0.3,2.5,0.3,3.1-0.3c1.4-1.3,2.5-3,3.5-4.7
	c0.9-1.5,0-3.7-1.7-4.8c-1.5-0.9-3-0.6-4.2,1c-0.8,1-1.5,2-2.2,3C73.4,108,73.2,108.7,73,109.1z"/>
<text transform="matrix(1 0 0 1 15.4858 17.9971)" class="st0 st1 st2">Your Ad Goes Here</text>
</svg>
