<?xml version="1.0" encoding="utf-8"?>
<!-- Generator: Adobe Illustrator 19.1.0, SVG Export Plug-In . SVG Version: 6.00 Build 0)  -->
<svg version="1.1" id="Layer_1" xmlns="http://www.w3.org/2000/svg" xmlns:xlink="http://www.w3.org/1999/xlink" x="0px" y="0px"
	 viewBox="0 0 196.6 200" style="enable-background:new 0 0 196.6 200;" xml:space="preserve">
<style type="text/css">
	.st0{fill:#FF5722;}
</style>
<g id="ad-tag">
	<path class="st0" d="M65,61.5c4-4.1,8-8,11.8-12c2.3-2.4,4.5-4,8.4-3.8c7.2,0.5,14.4,0.1,21.6,0c0.3,0,0.7,0.1,1,0
		c4.6-1.8,7.3,1,10.1,4c5,5.3,10.3,10.3,15.5,15.5c7.5,7.5,15,15,22.5,22.5c7.9,7.9,16,15.6,23.9,23.5c5.2,5.1,10.2,10.4,15.2,15.7
		c1.7,1.8,2.1,4.1,0.6,6.1c-2,2.7-4.1,5.4-6.5,7.8c-8.5,8.5-17.1,16.9-25.7,25.4c-4.1,4-8.1,8-12.2,12.1
		c-5.3,5.4-10.5,10.8-15.8,16.2c-1.3,1.3-2.5,2.7-4,3.8c-3.6,2.7-6.7,2.4-9.8-0.8c-5.9-6-11.7-12-17.6-17.9c-4-4-8.3-7.9-12.3-11.9
		c-4.6-4.6-8.9-9.6-13.6-14.1c-9.7-9.6-19.6-19-29.4-28.6c-1.8-1.8-3.8-3.6-5.2-5.7c-1-1.5-1.7-3.4-1.7-5.2
		c-0.1-5.9,0.3-11.9,0.3-17.8c0-3.1-0.5-6.3,0-9.4c0.3-1.9,1.5-4,2.8-5.5c4.5-4.7,9.3-9.2,14.4-14c-3.7-2.8-6.9-5.4-10.3-7.7
		c-9.7-6.9-19.7-13.5-29.1-20.7C14,34,7.5,29.4,3.2,22.4C-0.6,16.3-1,10.2,1.9,3.8C3.5,0.1,8.5-1,12.9,1c4.9,2.3,8.3,6.3,11.6,10.3
		c8.9,10.9,17.5,22,26.3,33c3.7,4.6,7.7,8.9,11.5,13.4C63.1,58.8,63.9,60,65,61.5z M149.1,146.4c0-16.7,0-33.1,0-49.4
		c-16.6,0-32.8,0-49.3,0c0,16.6,0,32.9,0,49.4c1,0,1.7,0,2.4,0c3.4,0,6.8,0.3,10.2,0.1c2.9-0.2,2.8,1.1,2.7,3.3
		c-0.2,5.1-0.1,10.3-0.1,16c6.2-6.4,11.6-12.1,17.3-17.6c1-1,2.8-1.7,4.3-1.8C140.7,146.2,144.7,146.4,149.1,146.4z M61.5,64.3
		c1.9-1.4-0.2-2.3-0.9-3.1c-5.5-6.6-11.4-12.9-16.8-19.5C36,32.2,28.6,22.4,20.7,12.9c-2.6-3.1-5.9-5.8-9.2-8.3
		c-2.8-2.1-6.1-0.5-6.9,3C3,14.4,5.2,20.1,9.7,25.1C16.8,33,26,38.2,34.4,44.5C43.3,51.2,52.3,57.6,61.5,64.3z M65.9,76.9
		c-0.3,5,3.8,7.4,8.1,7.7c3.5,0.3,7.3-3.9,7.4-7.8c0.1-4.5-4.1-7.9-7.1-8.1C69.7,68.4,65.9,72.2,65.9,76.9z"/>
</g>
</svg>
