<?xml version="1.0" encoding="utf-8"?>
<!-- Generator: Adobe Illustrator 19.2.1, SVG Export Plug-In . SVG Version: 6.00 Build 0)  -->
<svg version="1.1" id="Layer_1" xmlns="http://www.w3.org/2000/svg" xmlns:xlink="http://www.w3.org/1999/xlink" x="0px" y="0px"
	 viewBox="0 0 100 136.8" style="enable-background:new 0 0 100 136.8;" xml:space="preserve">
<style type="text/css">
	.st0{fill:#673AB7;}
</style>
<g id="check-list-purple">
	<path class="st0" d="M26.5,15.6c0.1-1.1,0.1-1.9,0.2-2.6c0.4-2.2,1.8-3.5,4-3.6s4.5-0.1,6.8,0c0.9,0,1.3-0.2,1.5-1.2
		C40.3,3.5,45,0,50,0s9.7,3.5,11,8.2c0.3,1.1,0.7,1.3,1.7,1.2h5.9c3.2,0.1,4.7,1.4,4.8,4.8c0.1,0.5,0.1,1,0.2,1.4H100v121.2H0V15.6
		H26.5z M94.3,130.9V18.1H73.2v6.1H26.6v-6.1h-21v112.7H94.3z M50,6.2c-1.9-0.1-3.6,1.4-3.7,3.3c0,0.1,0,0.1,0,0.2
		c0,1.9,1.7,3.8,3.5,3.8c2,0,3.6-1.6,3.7-3.6c0.1-1.9-1.4-3.6-3.3-3.6C50.2,6.2,50.1,6.2,50,6.2z"/>
	<path class="st0" d="M67.7,104.4H51.5c-2.3,0-3.8-1.3-3.8-3.3s1.5-3.5,3.7-3.5h32.8c2.2,0,3.7,1.6,3.7,3.5s-1.6,3.3-3.8,3.3H67.7z"
		/>
	<path class="st0" d="M67.7,54.8c-5.4,0-10.8-0.1-16.2,0c-1.9,0.1-3.6-1.3-3.7-3.2c0,0,0-0.1,0-0.1c0-2,1.6-3.5,3.7-3.5h32.2
		c0.8,0,1.6,0.2,2.3,0.5c1.4,0.6,2.3,2.2,1.9,3.8c-0.4,1.5-1.7,2.6-3.3,2.7C84.5,54.9,67.7,54.9,67.7,54.8z"/>
	<path class="st0" d="M68.2,108.7h15.9c2.2,0,3.8,1.4,3.8,3.3c0,2-1.6,3.6-3.5,3.6c-0.1,0-0.1,0-0.2,0H51.4c-2,0.1-3.6-1.5-3.7-3.5
		c0,0,0,0,0-0.1c0-1.9,1.3-3.3,3.7-3.3C57,108.7,62.6,108.7,68.2,108.7z"/>
	<path class="st0" d="M67.8,83.4H51.6c-2.5,0-3.9-1.3-4-3.4s1.6-3.5,4-3.5h32.2c2.3,0,3.9,1.3,3.9,3.3s-1.6,3.5-4,3.5L67.8,83.4
		L67.8,83.4z"/>
	<path class="st0" d="M12.1,122.1V97.7h24.4v24.4L12.1,122.1L12.1,122.1z M33.6,119.2v-18.5H15.1v18.5H33.6z"/>
	<path class="st0" d="M67.6,43.7H51c-1.8,0.1-3.2-1.3-3.3-3.1c0-0.1,0-0.1,0-0.2c0-1.8,1.4-3.3,3.2-3.3c0,0,0.1,0,0.1,0h33.5
		c1.8-0.1,3.4,1.4,3.4,3.2c0,0,0,0.1,0,0.1c0,2-1.3,3.3-3.4,3.3L67.6,43.7L67.6,43.7z"/>
	<path class="st0" d="M67.8,72.3c-5.4,0-10.8-0.1-16.2,0.1c-2.2,0.1-3.8-1.6-3.8-3.3s1.5-3.4,3.8-3.4h32.8c2.3,0,3.7,1.3,3.7,3.4
		s-1.4,3.2-3.7,3.2L67.8,72.3L67.8,72.3z"/>
	<path class="st0" d="M36.5,91H12.1V66.8h24.3V91z M33.6,88.3V69.8H15.1v18.5H33.6z"/>
	<path class="st0" d="M36.5,35.8V60H12.1V35.8H36.5z M15.1,57.2h18.6V38.5H15.1V57.2z"/>
	<path class="st0" d="M21.6,82.6l7-9.2c0.1-0.3,0.3-0.5,0.5-0.7c0.5-0.2,1.1-0.3,1.6-0.3c0.1,0.6,0.5,1.4,0.2,1.8
		c-2.7,3.7-5.5,7.3-8.3,10.8c-0.2,0.3-1.5,0.2-1.9-0.1c-1.1-1-2.1-2.1-2.9-3.3c-0.2-0.3-0.2-1.3,0-1.4c0.5-0.3,1.1-0.3,1.5,0
		C20.2,80.9,20.9,81.7,21.6,82.6z"/>
	<path class="st0" d="M21.6,51.7c2.4-3.2,4.6-6.2,7-9.2c0.5-0.7,1.1-1.6,2.1-0.8s0.2,1.5-0.3,2.2l-7.1,9.3c-1.4,1.8-2,1.8-3.3,0.1
		c-0.8-1-1.6-1.8-2.3-2.8s0-1,0-1.5s1.2-0.1,1.5,0.2C20.1,50,20.9,50.8,21.6,51.7z"/>
</g>
</svg>
