<?xml version="1.0" encoding="utf-8"?>
<!-- Generator: Adobe Illustrator 19.2.1, SVG Export Plug-In . SVG Version: 6.00 Build 0)  -->
<svg version="1.1" id="Layer_1" xmlns="http://www.w3.org/2000/svg" xmlns:xlink="http://www.w3.org/1999/xlink" x="0px" y="0px"
	 viewBox="0 0 100 87.3" style="enable-background:new 0 0 100 87.3;" xml:space="preserve">
<style type="text/css">
	.st0{fill:#673AB7;}
</style>
<g id="compare-scale-purple">
	<path class="st0" d="M49.1,80.6c0-0.3,0-0.7,0-1c0-6.6,0-13.3,0-19.9c0-6.9,0-13.9,0.1-20.8c0-5.9,0.1-11.7,0.1-17.6
		c0-0.2-0.2-0.6-0.4-0.7c-1-0.4-1.5-1.2-1.8-2.2c-0.1-0.3-0.3-0.6-0.6-0.7c-4-1.4-7.9-2.7-11.9-4C29.8,12.2,25,10.6,20.3,9
		c-0.4-0.1-0.8-0.3-1.3-0.3c-0.2,0-0.5,0.1-0.7,0.2c-0.1,0.1-0.1,0.4,0,0.6c1.4,2.8,2.7,5.7,4.1,8.5c1.1,2.2,2.2,4.3,3.3,6.5
		c0.8,1.7,1.6,3.4,2.4,5c1.5,3,3,6,4.4,9c0.3,0.7,0.7,1.4,0.7,2.1c0,0.6-0.3,1.3-0.7,1.7c-1.8,2-4.2,3-6.8,3.6
		c-4.8,1.1-9.6,1.4-14.4,0.8c-3.3-0.3-6.4-1.4-9.1-3.3c-0.8-0.6-1.5-1.5-2-2.4c-0.5-0.7-0.2-1.4,0.2-2.1c1-1.8,2-3.5,2.9-5.3
		c1.4-2.9,2.6-5.9,3.9-8.9c0.9-2,1.9-4,2.8-6c0.7-1.7,1.4-3.3,2.2-4.9c0.7-1.4,1.4-2.8,2-4.2c0.1-0.3,0.2-0.7,0.1-1
		c-0.6-1.3-0.2-2.5,1.1-3.2c1-0.6,2.4-0.2,3,1c0.3,0.6,0.8,0.9,1.4,1.1c2.6,0.9,5.2,1.9,7.9,2.7c1.9,0.7,3.9,1.1,5.8,1.8
		c3.2,1,6.5,2.2,9.7,3.3c1.1,0.4,2.2,0.8,3.4,1.2c0.5,0.2,1,0.3,1.4-0.2c0-0.1,0.2-0.2,0.3-0.2c1-0.2,1-1,1-1.7c0-3,0-5.9,0-8.9
		c0-0.4,0-0.7-0.5-0.9c-1.3-0.6-1.7-1.8-1.2-3.1c0.5-1.1,1.9-1.8,3.1-1.4c0.8,0.3,1.7,0.5,1.8,1.5c0.1,1,0.2,2.1-1,2.8
		C51.2,4.6,51,4.9,51,5.1c0,1.4,0,2.8,0,4.2c0,1.9,0,3.9,0,5.8c0,0.3,0.2,0.7,0.4,1c0.3,0.6,0.7,1.2,0.9,1.8
		c0.1,0.4,0.3,0.7,0.8,0.8c4.7,1.6,9.4,3.1,14.1,4.7c3.4,1.1,6.9,2.2,10.3,3.3c1,0.3,2.1,0.8,3.1,1.1c0.3,0.1,0.7,0,1-0.1
		c0.9-0.6,1.8-0.7,2.5-0.1c0.8,0.6,1.1,1.7,0.7,2.7c-0.3,0.6-0.2,1,0.1,1.5c2.2,4.4,4.3,8.9,6.5,13.3c0.9,1.7,1.9,3.4,2.7,5.2
		c0.6,1.2,1.1,2.4,1.7,3.6c1.3,2.7,2.7,5.3,3.9,8c0.4,0.9,0,1.8-0.6,2.6c-2,3-5.2,3.8-8.5,4.1C87.8,69,84.9,69,81.9,69
		c-3.4,0-6.8-0.5-10.1-1.9c-1.2-0.5-2.3-1.2-3.4-1.9C68,65,67.6,64.5,67.3,64c-0.6-0.9-0.7-1.7-0.1-2.7c2.1-4.4,4.1-8.8,6.1-13.2
		c1-2,2-4.1,2.9-6.1c1-2.2,2-4.5,3-6.7c0.5-1.1,1.1-2.3,1.5-3.5c0.2-0.5,0-1.1,0-1.6c0.1-0.8-0.5-0.9-1-1c-2.9-1-5.8-2-8.8-3.1
		c-3.8-1.3-7.5-2.6-11.3-3.8c-2.4-0.8-4.7-1.5-7.1-2.3c-0.4-0.1-0.7,0-1.1,0.3c-0.9,0.6-0.9,1.4-0.9,2.4c0,11,0.1,22.1,0.1,33.1
		c0,8,0.1,16.1,0.1,24.1c0,0.3,0,0.5,0,0.8c1.3,0.1,2.5,0.1,3.7,0.2c3.6,0.3,7.2,0.4,10.7,0.8c1.2,0.1,2.3,0.7,3.5,1
		c0.2,0.1,0.4,0.2,0.6,0.3c0.6,0.5,0.6,1-0.1,1.3c-0.7,0.3-1.5,0.6-2.4,0.8c-3,0.7-5.9,1.1-8.9,1.4c-2.2,0.2-4.4,0.6-6.6,0.7
		c-2,0.1-4.1-0.1-6.1-0.1c-0.7,0-1.4-0.1-2.2-0.2c-3.9-0.4-7.8-0.7-11.6-1.7c-0.7-0.2-1.4-0.4-2.1-0.7c-0.3-0.1-0.7-0.5-0.7-0.8
		c0-0.2,0.4-0.6,0.7-0.7c1.2-0.3,2.4-0.7,3.7-0.9c3-0.4,5.9-0.7,8.9-1c2.2-0.2,4.4-0.3,6.6-0.4C48.7,80.7,48.8,80.7,49.1,80.6z
		 M83.5,31.9c-0.3,0-0.6,0-0.9,0c-0.2,0-0.5,0.2-0.6,0.4c-0.6,1.3-1.2,2.6-1.7,3.9c-1.7,3.8-3.4,7.7-5.1,11.5
		c-1.9,4.1-3.8,8.3-5.8,12.4c-0.1,0.2-0.1,0.4-0.1,0.5c9.5-1.5,19-1.6,28.6,0C93,51,88.3,41.5,83.5,31.9z M2.7,38.3
		c1-0.2,2-0.5,3-0.6c4.4-0.2,8.8-0.4,13.3-0.5c3.2,0,6.5-0.4,9.7,0.3c0.7,0.2,1.4,0.3,2.2,0.4c-0.2-0.4-0.3-0.8-0.4-1.2
		c-0.5-1-1-2.1-1.5-3.1c-1.7-3.4-3.4-6.7-5.1-10c-1.3-2.6-2.5-5.3-3.8-7.9c-0.8-1.6-1.7-3.2-2.3-4.8c-0.3-0.8-0.7-1.4-1.7-1.1
		c-0.3,0-0.5,0.2-0.7,0.4c-0.3,0.4-0.5,1-0.7,1.4c-0.7,1.6-1.2,3.2-1.9,4.7c-0.7,1.7-1.6,3.2-2.4,4.9c-2.4,5-4.6,9.9-6.8,14.9
		C3.3,36.8,3,37.5,2.7,38.3z"/>
</g>
</svg>
