<?xml version="1.0" encoding="utf-8"?>
<!-- Generator: Adobe Illustrator 19.1.0, SVG Export Plug-In . SVG Version: 6.00 Build 0)  -->
<svg version="1.1" id="Layer_1" xmlns="http://www.w3.org/2000/svg" xmlns:xlink="http://www.w3.org/1999/xlink" x="0px" y="0px"
	 viewBox="-349 235.9 299.9 316.5" style="enable-background:new -349 235.9 299.9 316.5;" xml:space="preserve">
<style type="text/css">
	.st0{fill:#FF9800;}
</style>
<g id="about-compare">
	<path class="st0" d="M-348.6,423c3.6-0.9,7.5-2.1,11.1-3c1.5-0.3,2.4-1.2,2.1-2.7c-0.3-7.5-0.6-14.7-0.9-22.2c-0.3-6,0-12.3,0-18.3
		c0-0.6,0.9-1.5,1.8-1.5c7.2-1.2,14.7-2.4,21.9-3.6c3-0.6,3.3-0.3,3.6,3c0.6,8.4,1.5,16.5,2.1,24.9c0.3,3.9,0.9,7.5,1.2,11.4
		c0,1.5,0.6,2.1,2.1,1.8c4.5-1.2,9-2.1,13.5-3.3c7.2-2.1,14.7-4.2,21.9-6.3c1.8-0.6,3.9-0.6,6-1.5c-1.5-0.6-2.7-1.5-4.2-2.1
		c-1.8-0.6-3.6-0.9-5.4-2.1c-1.2-0.9-2.4-2.4-3-3.6c-0.9-1.5-1.8-3-2.1-4.5c-0.6-3-1.2-6-1.8-8.7c0-0.3,0-0.3,0-0.6
		c0.6-2.7,0.6-4.8-2.4-6.3c-1.8-0.9-2.1-4.8-0.9-7.2c0.6-1.2,0.6-2.4,0.6-3.6c0-1.5,0.9-3.3,1.8-4.5c2.1-2.1,4.5-3.6,6.9-5.1
		c1.5-0.9,3-0.9,4.5,0.3c0.6,0.3,1.5,0.3,2.1,0.6c1.2,0.3,3,0.6,3.9,1.2c2.1,1.8,4.2,4.2,6.3,6c1.5,1.5,3.3,2.7,5.4,3.6
		c2.7,1.2,4.8,3,6.6,5.4c1.2,1.5,2.4,3,3.6,4.5c0.9,1.2,1.8,2.7,2.1,4.2c0.6,3.3,2.7,5.7,4.8,8.4c0-0.9,0.3-1.2,0.3-1.8
		c-0.3-7.2-1.8-14.4-3-21.3c-0.9-5.7-1.2-11.4-1.8-17.1c0-1.5,0.3-2.1,2.1-1.8c3.9,0,7.8-0.6,11.7-0.9c4.2-0.6,8.1-1.2,12.3-1.8
		c0-0.3,0-0.9,0-1.5c0.3-10.2,0.6-20.4,0.6-30.3c0-11.7-0.3-23.1-0.3-34.9c0-12.3,0-24.6,0-37c0.6-1.8,0.9-2.7,0.9-3.3
		c0.3,0,0.9,0,1.2,0c0,1.2,0.3,2.1,0.3,3.3c0,12.9,0,25.5,0.3,38.5c0,11.4,0.3,22.5,0.3,34c0,7.5-0.3,14.7-0.3,22.2
		c0,20.4,0,41.2,0,61.6c0,5.4,0.6,11.1,1.2,16.5c0,0.3,0.3,0.9,0.6,1.2c2.1,1.2,4.5,2.7,7.2,3.9c0.3-1.5,0.6-2.4,0.6-3
		c0-9.9,0.3-19.8,0.3-29.7c0-8.4,0-16.5,0-24.9c0-17.1,0-34.3,0-51.1c0-13.2,0.3-26.1,0-39.4c-0.3-11.1,1.2-22.2-0.9-33.1
		c0.9,0,2.1,0,3,0c0,3.6,0,6.9,0,10.5c0,13.8,0.3,27.9,0.3,41.8c0,5.1-0.3,9.9-0.3,15c0,13.5,0.3,26.7,0.3,40.3
		c0,7.2,0.3,14.7,0.3,21.9c0,8.1-0.6,16.2-0.6,24.3c0,5.7,0.3,11.1,0.3,16.8c0,3,0.3,6,0.3,9.3c0,0.9,0,2.1,0,3
		c-0.3,0-0.3,0-0.6,0.3c0.6,0.6,1.2,1.5,1.8,1.8c2.4,1.8,4.8,3.6,7.2,5.1c1.8,1.2,3,1.2,4.2-0.6c3.6-4.8,7.2-9.3,10.5-14.1
		c1.2-1.5,2.1-3.6,2.7-5.4c1.2-3,3.3-5.1,6-6.9c1.8-1.2,3.6-3,4.5-5.1c5.1-9.9,11.1-19.2,17.7-27.9c2.1-2.7,4.2-5.4,6.6-8.1
		c2.7-2.7,6.3-4.2,10.2-4.8c2.7-0.6,5.1-1.2,7.8-1.8c0.6-0.3,1.5-1.2,1.8-1.8c1.2-4.2-1.5-6.9-3.9-9.6c-0.3-0.3-1.5-0.3-2.1-0.3
		c-4.5,1.2-9,2.7-13.5,4.2c-2.7,0.9-4.5-0.3-5.4-3.3c-0.3-1.5-0.6-3-0.6-4.5c-0.3-1.5-0.9-2.7-2.7-3c-1.8-0.3-2.1-1.5-1.5-3
		s0.3-2.4-1.5-2.7c-1.2-0.3-1.8-1.2-1.8-2.4c0-5.7,0.3-4.8-4.5-4.5c-2.1,0-3-0.9-3-2.7c0-1.2,0.3-2.1,0.6-3.3
		c0.9-3.9,2.1-7.8,3.3-11.7c0.3-0.6,0-1.5,0-2.1c-2.1-5.7-3.3-11.4-2.7-17.7c0.3-2.7,1.2-5.4,1.8-8.1c0-0.9,0.3-1.8,0-2.4
		c-1.5-3.3-1.2-5.7,1.5-8.4c2.1-1.8,4.5-3.3,6.6-5.1c1.2-0.9,2.4-1.5,3.3-2.4c3.3-3,7.2-4.5,11.1-6c2.7-0.9,5.1-2.1,7.8-3
		c2.4-0.6,4.8-0.6,7.2-0.9c8.1-0.9,15,1.8,21,7.2c2.4,2.7,5.1,4.5,7.2,6.3c4.5,3.9,7.8,9,10.2,14.4c2.4,5.4,3.9,11.4,5.7,17.1
		c0.9,3,1.8,6,2.1,9c0.3,2.1,0.3,4.2,0.3,6.3c0.3,5.4,2.1,9.9,5.4,13.8c4.8,5.4,7.2,12.3,9.9,18.9c3.9,9.9,3.9,20.1,3.3,30.3
		c-0.3,5.4,1.2,10.8,1.2,15.9c0.3,7.5,0.6,15.3,0.3,22.8c-0.3,6.6-2.1,12.9-3.3,19.2c-0.3,2.4-0.9,4.5-1.5,6.6
		c-1.5,5.7-3.3,11.1-4.5,16.8c-1.2,4.8-1.8,9.6-3,14.4c-1.2,4.2-2.4,8.1-3.9,12.3c-1.8,5.1-3.3,10.2-5.4,15c-1.2,3-3.6,5.7-5.4,8.4
		c-1.5,2.1-3,3.9-4.8,5.7c-0.9,1.2-0.9,2.1-0.6,3.6c0.6,3.3,1.5,6.3,1.5,9.6c0,6.9,1.2,13.5,3,20.4c1.2,3.9,2.4,7.8,3.3,11.7
		c-0.9,0-1.8,0-2.4,0c-1.2-3.6-2.1-7.2-3.3-10.8c-2.4-7.5-3-15-3.3-22.8c0-4.8-0.3-10.2-6.6-12.3c-4.2-1.2-8.4-3.3-12.6-4.8
		c-3.3-1.2-6.9-1.2-9.6-3.3c-1.2-0.9-2.7-1.2-4.2-1.8c0,0.6-0.3,0.9-0.3,1.5c-0.3,7.5-0.6,15.3-0.9,22.8c0,6,0,11.7,0,17.7
		c0,4.5,0,9.3,0,13.8c-0.9,0-1.8,0-2.4,0c0-6,0-12,0-18c0-5.1,0-10.2,0.3-15c0.3-6.9,0.6-13.5,0.6-20.4c0-1.2-0.3-3-1.2-3.6
		c-2.1-1.8-4.5-3-6.9-4.2c-2.1-1.2-4.2-2.1-6.3-3.3c-3.9-2.4-7.2-5.4-11.4-7.5c-3.6-1.8-6.3-4.5-9.6-6.3c-3-1.8-6-3.6-9.3-5.4
		c-0.3,2.1-0.3,3.6-0.6,5.1c-1.8,8.7-3.9,17.7-6,26.4c-2.1,9.6-4.5,19.2-6,29.1c-1.2,7.8-2.7,15.6-4.5,23.1c-0.9,0-2.1,0-3,0
		c1.2-5.1,2.7-10.5,3.6-15.6c0.9-5.7,1.5-11.4,3-17.1c1.8-7.8,3.3-15.9,4.8-23.7c0.6-3,1.2-6,1.8-9c0.9-4.8,2.1-9.9,2.7-14.7
		c0.6-5.7,0.3-5.7-5.1-7.8c-1.8-0.6-3.6-0.6-5.1,0.3c-1.8,1.2-3.6,2.4-5.4,3c-1.8,0.9-3.9,1.5-6,1.5c-1.5,0-3-1.2-4.5-1.8
		c0,0.6-0.3,1.2-0.3,1.8c0,7.2,0,14.1,0,21.3c0,15.3,0,30.6,0.3,46c0,5.4,0,10.5,0.3,15.9c-0.9,0-1.8,0-2.4,0c0-7.8,0-15.6-0.3-23.4
		c0-12.6,0-25.2,0-37.9c0-1.5-0.3-3-0.3-4.5s0.6-3,0.6-4.5c0-4.2,0-8.4,0-12.6c0-3.3-1.5-5.7-3.6-8.1c-0.3-0.3-0.9-0.6-1.2-0.6
		c-2.1-0.3-4.5-0.6-6.9-1.2c0,0.6-0.3,1.2-0.3,1.8c-0.3,11.1,0.3,21.9,0.3,33.1c-0.3,17.4,0,34.6,0,52c0,1.8,0.3,3.9,0.3,5.7
		c-1.2,0-2.1,0-3.3,0c0-1.2,0.3-2.4,0.3-3.6c0-6.3,0-12.6,0-19.2c0-11.7,0-23.4,0-35.5c0-0.6-0.3-1.2-0.3-2.1
		c-1.2,0.3-1.8,0.6-2.7,0.9c-4.2,1.8-8.1,4.2-12,5.7c-7.2,2.7-14.1,6.3-21.9,7.8c-6.9,1.5-13.8,4.5-20.4,6.6c-2.7,0.9-5.4,1.8-8.4,3
		c-2.1,0.9-4.2,2.1-6.6,2.7c-9.3,3-18.3,5.7-27.6,8.7c-11.4,3.6-23.1,7.2-34.6,10.8c-1.5,0.3-2.7,1.2-3.9,1.8c0-1.5,0-2.7,0-4.2
		c2.1-0.6,4.2-0.9,6-1.5c6.9-2.1,14.1-4.5,21-6.6c8.4-2.7,16.8-5.4,25.5-8.1c5.1-1.8,9.6-4.5,15.3-4.8c0.9,0,1.8-0.9,3-1.2
		c1.2-0.6,2.1-1.2,3.3-1.5c5.7-2.1,11.4-4.2,17.1-6c6.9-2.1,13.5-4.2,20.4-6.3c2.7-0.9,5.4-1.8,8.1-3c5.7-2.7,11.4-5.4,17.4-7.8
		c1.2-0.6,1.5-1.2,1.5-2.1c0-3,0-6.3,0-9.3c0-0.6-0.3-1.2-0.3-2.1c-1.2,0.3-2.1,0.3-3,0.6c-6,2.1-11.7,4.2-17.7,6.3
		c-12.6,3.9-25.5,7.8-38.5,11.7c-1.2,0.3-2.1,1.2-3.3,1.8c-0.3,0.3-0.9,0.3-1.5,0.3s-1.2-0.3-1.8,0c-7.2,2.4-14.1,5.1-21.3,7.5
		c-6.3,2.4-12.6,5.1-18.9,7.2c-6.9,2.4-13.8,4.5-20.7,6.9c-3.9,1.2-7.8,2.4-11.7,3.6c0-0.9,0-2.1,0-3c4.8-1.5,9.3-3,14.1-4.5
		c1.5-0.3,1.8-1.2,1.8-2.7c0-3.3,0-6.6,0-9.9c0-9.6,0-19.2,0-28.8c-0.3-1.5,0-2.1,1.8-2.1c1.5,0,3.3-0.3,4.8-0.9
		c5.4-1.5,10.5-3.3,15.9-5.1c3.9-1.2,3.9-0.9,3.6-5.1c0-0.3,0-0.6,0-0.9c-0.3-3.3-0.6-6.6-0.6-9.9c0-0.6,0.9-1.8,1.2-1.8
		c3,0.9,5.7-0.3,8.4-0.9c6.9-1.8,13.8-3.6,20.7-5.4c2.1-0.6,2.7-0.3,2.4,1.8c-0.3,4.5-0.6,9.3-0.6,13.8c0,0.6,0,1.5,0.3,2.4
		c1.8-0.6,3-1.8,4.5-1.8c5.1-0.6,9.6-2.4,14.1-4.2c3-1.2,5.4,0.6,6,3.6c0.3,1.5,0.6,3,0.9,4.5c0.3,1.2,0.9,1.8,2.1,1.5
		c2.7-0.6,5.1-1.5,7.8-2.4c5.7-1.8,11.4-3.6,17.1-5.4c2.4-0.6,4.5-1.5,6.9-1.8c0.6,0,1.2,0.6,1.8,0.9c-0.3,0.3-0.6,0.9-1.2,1.2
		c-3.9,1.2-7.5,2.4-11.4,3.6c-0.6,0.3-0.9,0.9-1.2,1.5c-0.3,5.4,1.2,10.2,2.4,15.3c0,0.3,0.6,0.9,0.6,1.2c4.2-1.2,7.8-2.7,12-3.6
		c2.1-0.6,2.7-1.5,2.4-3.6c-0.3-3.3-0.6-6.6-0.6-9.9c0.3-2.4-0.9-3.9-2.1-5.4c-0.9-0.9-1.5-1.8-2.4-2.7c-3.9-4.2-8.1-7.5-13.8-8.4
		c-3-0.6-6-0.9-8.1-3.9c-1.5-1.8-1.5-3.3-1.2-5.1c0.3-0.6,0.3-1.5,0-1.8c-1.5-2.7-3.3-5.4-5.1-8.1c-0.6-0.6-1.5-1.5-2.1-1.5
		c-6.3,1.2-12.6,2.4-18.6,4.2c-6,1.8-11.7,4.8-18.3,5.4c-1.2,0-2.4,0.3-3.6,0.9c-9.6,2.7-19.2,5.4-28.5,8.1
		c-11.7,3.6-23.1,7.2-34.6,10.8c0-1.5,0-2.7,0-4.2c3-0.6,5.7-0.6,8.7-1.5c8.7-2.7,17.7-5.4,26.4-8.1c8.1-2.4,15.9-4.8,24-6.9
		c5.4-1.5,10.8-3,16.5-4.5c7.5-2.1,14.7-4.5,22.2-6.6c1.2-0.3,2.4-0.6,4.2-0.9c-1.5-2.1-2.7-3.6-4.2-5.4c-2.1-2.4-3.9-4.8-6-7.2
		c-0.3-0.6-1.5-0.9-2.1-0.9c-6,1.2-11.7,2.4-17.7,3.9c-3.6,0.9-6.9,2.1-10.5,3c-9.3,2.4-18.3,4.5-27.6,6.6
		c-11.4,2.4-22.5,4.8-34,7.5C-348.6,424.8-348.6,423.9-348.6,423z M-210.1,450.7c0,0.3-0.3,0.3-0.3,0.6c2.1,2.1,3.9,4.2,6,6
		c0.6,0.6,1.8,0.9,2.7,0.9c3.9,0,7.8,0,11.4-0.3c4.5-0.3,9-0.6,13.5-0.6c1.2,0,2.7,0.6,3.9,1.2c3.9,2.4,7.8,5.1,12,7.2
		c3.6,2.1,7.8,3.6,11.1,6.6c1.8,1.8,4.2,3,6.3,4.2c2.4,1.5,5.4,2.4,7.8,4.2c5.7,4.5,12.3,7.8,18.9,10.8c9.9,4.5,20.1,8.4,30.3,12.6
		c1.8,0.6,3.6,1.2,5.1-0.6c3.9-4.2,7.2-8.7,9.3-13.8c3.3-9.3,6.9-18.6,9.3-28.2c2.7-9.9,3.9-20.1,7.2-29.7c0.3-0.6,0.3-1.2,0.3-1.5
		c1.2-6.3,2.4-12.6,3.6-18.6c0.3-1.5,0.6-3,0.6-4.5c0-11.1,0-22.2-1.8-33.1c-0.9-6.9-2.7-13.2-9-17.7c-0.3-0.3-0.6-0.6-0.9-1.2
		c-2.1-3.3-5.4-4.5-9-3.9c-1.2,0.3-2.4,0.3-3.9,0.3c-6,0.6-11.1,3.9-15.3,8.1c-3,3-5.1,6.3-7.5,9.9c-3.9,5.7-7.5,11.4-11.4,17.4
		c-1.5,2.1-2.7,4.5-3.6,6.9c-2.4,7.2-0.6,14.1,2.7,20.7c1.2,2.1,3,3.9,5.4,5.1c0-0.9,0-1.8,0-2.4c0.3-5.1,0.3-10.2,0.9-15.6
		c0.3-3,1.2-6,1.8-9c0.3-0.9,0.9-1.5,1.2-2.4c0.3,0,0.3,0,0.6,0c0.3,0.6,0.9,1.2,0.9,1.8c0,2.7-0.3,5.4-0.6,8.1
		c-0.3,2.4-1.2,4.8-1.2,7.5c0.3,6.9,0.6,14.1,1.2,21c0.3,5.1,0.9,10.2,1.8,15.3c1.2,5.1,1.2,10.5,0.6,15.6c-0.3,2.1-0.6,4.2,0.6,6.3
		c0.6,1.2,0.3,2.4-1.2,2.7c-0.6-0.6-1.2-1.2-2.1-1.5c-4.2-0.9-8.4-1.8-12.9-2.7c-3.3-0.6-6.6-1.2-9.9-2.4
		c-7.5-2.4-14.7-5.4-21.9-8.1c-3.6-1.5-7.5-2.7-11.1-4.2c-1.5-0.6-2.7-1.5-3.9-1.8c-6-1.8-10.8-6-15.6-9.6
		c-4.2-3.3-7.2-8.1-12.6-9.9c-0.3,0-0.9-0.6-1.2-0.9c-1.5-1.5-3.6-2.1-5.7-2.1c-1.5,0-3.3,0-4.5-0.9c-3.3-2.1-6.3-4.5-9.3-6.9
		c-0.9-0.9-1.5-0.9-1.8,0.6c-0.9,2.7-0.3,4.8,1.8,6.3c2.1,1.8,4.5,3.3,6.6,5.1c0.9,0.6,1.8,1.8,2.1,2.7c0.9,1.8-0.3,3.6-2.1,3.9
		c-1.2,0.3-2.1,0.6-3.3,0.6c-2.7,0-5.7,0.9-7.8,0c-5.1-2.1-10.5-3.3-15.9-3.6c-1.5,0-3.3,0.6-5.1,0.9c1.8,3,3.3,4.8,6.6,4.8
		c3,0,5.7,0.9,8.4,2.7c4.5,3,9,6.3,14.7,6.9c0.3,0,0.9,0.9,1.2,1.5c-0.6,0.3-1.2,1.2-1.5,1.2C-207.4,451.3-208.9,451-210.1,450.7z
		 M-65.2,349.4c-2.7-2.1-3.9-6-9.3-5.1c-9.3,1.5-16.5,5.7-22.2,13.2c-2.7,3.6-6,6.6-9,9.9c-3,3.3-6,6.3-9,9.6
		c-3.3,3.9-6.3,8.4-9.9,12.3c-3,3-6.6,5.4-9.9,7.8c-3.6,2.7-7.5,5.1-11.4,7.8c-2.1,1.2-4.5,2.1-6.3,3.6c-1.5,1.2-3,0.9-4.8,0.6
		c1.8-5.4,3.9-10.2,7.2-14.4c3.6-4.8,7.5-9.3,11.7-13.8c6-6.6,12-13.2,18-19.8c0.6-0.9,0.9-1.8,1.5-2.7c-0.3-0.3-0.3-0.3-0.6-0.6
		c-0.6,0.3-1.5,0.9-2.1,1.2c-4.2,4.5-8.4,9-12.6,13.8c-6.6,7.2-13.2,14.4-19.8,21.6c-2.7,2.7-5.1,5.4-8.1,7.8
		c-2.7,2.1-4.8,4.2-5.4,7.5c-0.3,1.2-0.3,2.4-0.9,3.3c-1.8,3.6-1.8,7.2-0.9,10.8c2.1,6.9,4.8,13.8,9.3,19.8c0.6,0.9,1.5,1.8,2.4,2.1
		c4.8,1.8,9.6,3.6,14.4,5.4c6.3,2.4,12.3,4.8,18.6,7.2c3.3,1.2,6.6,2.7,9.9,3.6s6.9,0.9,10.5,1.5c2.1,0.3,3-0.3,3-2.4
		c0-4.8,0.3-9.3,0-14.1c-0.6-6.9-1.8-13.8-2.4-20.4c-0.3-1.8-0.9-2.7-2.1-3.9c-2.1-2.1-4.8-3.9-6-6.6c-2.1-4.2-3.3-9-4.2-13.5
		c-0.6-3.9,0.3-8.1,2.4-11.7s4.2-7.2,6.6-10.8c3.9-5.7,8.1-10.8,11.7-16.5c3-5.1,7.5-8.1,12.3-10.8
		C-77.5,349.1-71.5,348.5-65.2,349.4z M-102.2,295c-0.3,0-0.3,0-0.6-0.3c-0.9,2.1-1.8,4.5-2.4,6.6c-0.9,2.7-3.3,4.2-5.7,2.7
		c-2.1-1.2-3.6-5.4-2.7-7.8c0.6-1.5,1.2-3,1.8-4.8c0.6,0.6,1.2,0.9,1.8,1.5c0.6-0.3,0.9-0.9,1.5-1.2c3.9-2.4,4.5-5.7,3.3-9.6
		c-0.3-0.9-0.9-2.1-1.2-2.1c-0.9,0-1.8,0.6-2.4,1.2c-1.8,1.5-2.1,3.6-1.5,5.7c-0.9-0.9-1.2-1.5-1.5-2.4c-0.3-2.7,0.9-4.5,3-5.7
		c1.8-1.2,3.9-0.6,4.8,1.5c2.1,3.9,0.6,9.6-2.7,12.3c-0.6,0.6-1.2,1.2-1.8,1.8c-1.2,1.2-2.1,2.4-3.6,4.2c0.3,0.6,0.9,1.5,1.5,2.7
		c0.3,0.6,1.2,1.5,1.5,1.5c0.9-0.3,1.8-0.9,2.1-1.8c1.5-3.6,3-7.2,4.5-10.5c2.1-4.2,0.9-10.5-2.4-13.5c-2.4-2.1-7.2-0.6-7.8,2.1
		s-0.9,5.1-1.5,7.8c0,0.6-0.6,1.2-0.9,1.8c-0.3-0.6-0.6-1.2-0.9-1.8c0-0.3,0-0.6,0-0.9c-2.7,2.7-5.4,3.3-8.1,1.5
		c-3.6-2.4-7.2-5.1-10.5-7.8c-3.6-3-7.8-5.1-12.3-6c-0.6,0-1.8,0.3-2.1,0.6c-3,4.8-2.7,10.2-2.7,16.2c2.4-2.7,5.1-3,8.1-2.7
		c0.3,0,0.9,0.6,1.2,0.9c-0.3,0.3-0.9,0.6-1.2,0.9c-0.6,0-1.5,0-2.1,0c-2.1,0-3.6,1.5-3.9,3.3c-0.3,1.5-0.3,3,0.3,4.5
		c0.6,2.4,0.9,4.5,0.3,6.9c-1.2,3.3-1.8,6.3-3,9.6c-0.3,1.5-0.9,3,0.9,3.9c1.5-0.9,2.7-2.1,4.5-1.2c0.6,0.3,1.5,0.3,1.8,0
		c0.3-0.6,0.6-1.5,0.6-2.1c-0.3-0.9-0.9-1.8-1.2-2.7c0-0.3,0-0.9,0.3-1.2c0.3,0.3,0.9,0.3,1.2,0.6c2.7,3.3,2.4,5.1-0.9,7.8
		c-0.6,0.6-0.6,2.1-0.9,3.3c0.9,0.3,1.5,0.6,2.4,0.3c1.8-0.3,3.6-0.6,5.7-0.9c0.6,0,0.9,0.3,1.5,0.6c-0.3,0.3-0.3,0.9-0.6,1.2
		c-1.5,2.4-2.7,4.5-4.2,6.9c2.4,1.2,3,3.3,3.3,6c0.6,4.5,1.8,4.5,5.1,3.6c0.6,0,0.9-0.3,1.5-0.3c7.2-1.2,12.9-4.5,15-12
		c0.9-2.7,2.1-5.4,3.3-8.1c0.3-0.9,0.9-1.5,1.5-2.1c0.3,0.3,0.6,0.3,0.9,0.6c-1.2,3-2.1,6-3.3,8.7c-1.2,3-2.7,5.7-3.9,8.7
		c1.8,2.4,3.3,4.5,5.1,6.9c0.3,0.6,0.6,1.2,0.6,1.8c0.6,4.8,0.6,9.6-4.2,12.9c-0.3,0-0.3,0.3-0.6,0.6c-3.9,4.8-7.8,9.3-11.7,14.1
		c-3.9,4.8-7.5,9.9-11.7,14.1c-5.4,5.4-9.6,11.7-13.2,18.3c-0.3,0.6-0.3,0.9-0.6,1.5l0.3,0.3c4.2-2.7,8.7-5.1,12.9-7.8
		c3.6-2.4,7.2-5.1,10.8-8.1c2.4-2.1,5.1-4.2,6.9-6.9c3.6-4.2,6.6-9.3,10.5-13.2c5.4-5.7,11.1-10.8,15.9-17.1c2.7-3.6,6-6,10.2-7.8
		c3.6-1.2,7.2-2.7,11.1-4.2c-0.9-0.6-2.1-1.5-3-1.8c-4.2-0.9-7.2-3.3-9.3-6.6c-2.1-3.3-3.9-6.6-5.1-9.9c-2.1-5.4-4.2-11.1-6-16.5
		C-100.1,302.9-101,298.9-102.2,295z M-276.8,442.9c-5.7,1.2-11.4,2.7-17.4,4.2c-2.7,0.6-5.4,1.2-8.1,1.8c-2.4,0.3-2.7,0.6-2.4,3
		c0.3,3.9,0.9,7.8,0.9,11.7c0,3-0.9,6-1.2,9c-0.3,5.7,0,11.4,0,17.1c0,4.2,0.6,8.4,0.9,12.9c0.3,0,0.9,0,1.2-0.3
		c1.2-0.3,2.1-0.9,3.3-1.2c7.8-2.7,15.3-5.4,23.1-8.1c0.9-0.3,1.8-1.2,1.8-1.8c0-5.4-0.3-10.8-0.6-16.2c-0.3-5.4-1.2-11.1-1.5-16.5
		S-276.8,448-276.8,442.9z M-266.5,384.6c1.2,2.1,2.1,3.9,3.3,5.4c0.3,0.3,0.3,0.6,0.6,0.9c2.1,1.2,2.4,3,2.7,4.8
		c0.3,1.5,0.9,3,1.8,3.9c3.6,4.2,7.2,8.4,10.8,12.6c3,3.6,5.7,7.5,8.4,11.4c1.2,1.5,2.1,3.6,3.3,5.1c0.6,0.9,1.8,1.8,3,2.1
		c2.1,0.6,4.5,0.6,6.9,0.6c0.3,0,0.6-0.3,0.6-0.3c3.3-2.7,6.9-5.7,10.2-8.4c2.4-2.1,1.2-5.4,3-7.8c0,0,0,0,0-0.3
		c-1.5-1.8-2.7-3.6-4.2-5.4c-3.3,2.7-6.3,4.8-9.3,7.2c-1.5,1.2-2.4,0.6-3.3-0.6s-1.5-2.4-2.7-3.6c-4.2-3.9-6.9-9-9.9-13.8
		c-1.8-2.7-3.9-5.4-6-7.8c-1.8-2.1-2.1-2.1,0.3-3.9c2.7-2.1,5.1-4.2,7.8-6.3c-1.2-0.3-1.2-0.6-1.5-1.2c-0.3-0.3-0.6-0.9-0.9-1.2
		c-3.9-3.9-7.5-8.1-12.6-10.2c-2.7-1.2-4.2-1.5-6.6,0.3c-2.7,2.4-5.7,4.5-8.7,6.6C-265.6,378.9-264.1,379.5-266.5,384.6z
		 M-311.3,373.8c-0.6,0-0.9,0-1.2,0c-6.3,0.9-12.3,2.1-18.6,3c-2.4,0.3-3,1.5-3,3.6c0.3,6.3,0.6,12.6,0.9,18.9
		c0.3,5.7,0.3,11.1,0.3,16.8c0,2.7,0.3,2.7,3,2.4c6.3-1.5,12.6-3,18.6-4.5c3-0.9,3.3-0.9,3-4.2c-0.9-9.6-1.8-19.2-2.7-28.5
		C-311,378.9-311,376.5-311.3,373.8z M-211,344.3c-7.5,0.9-14.7,1.8-21.9,2.7c-1.8,0.3-2.4,0.6-2.1,2.4c0.9,6.3,1.8,12.9,2.7,19.2
		c0.3,2.4,1.2,4.5,1.5,6.9c0.3,3.6,0.6,6.9,0.9,10.5c0,1.2-0.3,2.1-0.3,3.3c0,0.6,1.2,1.8,1.5,1.8c2.1-0.3,3.9-0.9,5.7-1.5
		c3.3-0.6,6.6-1.5,9.9-1.8c1.8-0.3,2.4-0.9,2.4-2.7c0-8.7,0-17.4,0-26.1C-211,353.9-211,349.1-211,344.3z M-306.5,465.7
		c-2.1,0.6-3.6,0.9-5.1,1.5c-5.7,1.8-11.4,3.6-17.1,5.1c-1.2,0-1.8,0.3-1.8,1.5c0,12,0.3,23.7,0.3,35.8c0,1.5,0.6,2.4,2.4,1.8
		c6-2.4,12.3-4.5,18.3-6.9c2.4-0.9,3-2.4,3-4.8c-0.3-9-0.6-18-0.9-27.3C-307.4,470.5-306.8,468.4-306.5,465.7z M-248.8,481.6
		c-0.9-8.7-2.1-17.4-3.3-26.1c0-0.6-0.9-1.5-1.8-1.5c-0.9-0.3-1.8,0-2.7,0.3c-4.2,1.2-8.4,2.4-12.3,3.6c-1.8,0.6-3.3,1.2-5.1,2.1
		c-0.3,0.3-0.6,0.9-0.6,1.5c0.6,6.9,1.2,13.8,1.8,20.7c0.3,2.1,0,4.2,0.3,6.3c0,2.7,0.3,2.7,2.7,2.1c6.3-2.1,12.6-4.2,18.6-6
		C-249.4,484.3-248.8,483.4-248.8,481.6z M-246.7,483.4c0.9,0,1.2,0,1.8-0.3c5.7-1.8,11.1-3.6,16.8-5.4c1.5-0.3,1.5-1.5,1.2-2.4
		c-0.9-5.1-1.8-10.5-2.7-15.9c-6,1.5-12.3,3.3-18.6,5.1C-247.9,470.5-247.3,476.8-246.7,483.4z M-246.7,388.5
		c3,4.5,5.4,8.7,8.4,12.6c3.6,4.8,7.2,9.6,10.8,14.4c3.3-2.7,6.3-4.8,8.7-6.9c-1.8-2.7-3.6-5.1-5.4-7.5c-0.3-0.3-0.6-0.9-1.2-1.2
		c-4.8-4.8-9.3-10.2-12.9-15.9c-0.9-1.2-1.8-1.2-2.7-0.6C-242.8,385.2-244.9,387-246.7,388.5z M-260.5,365.7
		c-2.7-3.3-5.4-6.6-8.1-9.9c-0.9-1.2-1.8-1.2-3-0.3c-0.9,0.6-1.8,1.5-3,2.1c-4.8,3-4.8,4.5-0.3,7.8c1.8,1.5,2.4,3,2.4,5.1
		c0,1.2,0.6,2.1,0.9,3.3C-267.5,371.1-263.8,368.1-260.5,365.7z M-226.9,393.9c5.1,5.4,8.1,12,15.6,14.4c0-6,0-11.7,0-18
		C-216.4,391.5-221.5,392.7-226.9,393.9z M-122,355.4c-0.3,0-0.3,0-0.6,0c-6,0.9-10.5,3.9-13.8,9c-4.5,6-8.7,12.3-13.2,18.3
		c-1.2,1.8-2.1,3.9-3.3,6l0.3,0.3C-142.5,378-132.2,366.9-122,355.4z M-173.7,418.2c-2.4,3.3-4.8,6-6.9,8.7c-0.9,0.9-0.9,2.1,0,3
		c3.9,3.6,7.8,7.2,12,10.8c0.6,0.3,1.2,0.3,2.1,0.6c0-0.6-0.3-1.5-0.3-2.1s-0.3-0.9-0.6-1.2C-170.7,431.8-172.5,425.1-173.7,418.2z
		 M-262.9,397.2c0.6-2.1-0.3-3.3-3.3-5.1c0.6-3,0-3.6-1.8-4.8c-1.2-0.6-2.4-1.8-3.9-2.7c1.2-0.6,1.8-0.6,2.4-0.9
		c2.4-1.2,2.7-3.3,0.9-5.1c-0.9-0.9-2.1-1.5-3-2.1c-1.5-0.9-2.7-0.6-2.7,1.2c-0.3,1.5-0.6,3.3,0.9,4.8c0.6,0.6,0.6,1.8,0.3,2.7
		c-0.6,1.2,0,2.1,0.6,3c0.6,1.2,1.2,2.7,1.2,3.9c0,2.1,0.6,3,2.4,3.6C-267.2,395.7-265,396.6-262.9,397.2z M-212.2,425.8
		c-2.7,2.1-5.7,4.5-8.7,6.6c2.4,0.9,4.5,1.5,6.6,2.1c1.8,0.6,3.6,0.9,5.4,0.9c1.5,0,3-0.6,4.8-1.2c0.6,0,1.2-0.6,1.2-0.9
		c0-0.6-0.3-1.2-0.9-1.5C-206.5,430-209.2,427.9-212.2,425.8z M-179.4,461.2c-4.8,0-9.6,0-14.7,0
		C-187.8,469.6-185.4,467.2-179.4,461.2z M-195.9,423c0-0.3,0.3-0.3,0.3-0.6c-4.2-2.4-8.1-4.8-12.6-7.2
		C-206.8,418.5-198.6,423.6-195.9,423z M-278,365.7c-1.8,1.5-1.2,3.6-1.2,5.1c0,0.3,1.2,1.2,1.8,1.2c0.9-0.3,2.4-0.6,2.7-1.5
		c0.3-0.6,0-2.1-0.6-3C-276.2,366.9-277.1,366.3-278,365.7z M-256,364.5c0.3-0.3,0.6-0.6,0.9-0.9c-2.7-2.4-5.4-4.8-8.1-6.9
		c-0.3-0.3-1.2-0.3-1.8-0.6c0,0.6,0,1.2,0.3,1.8C-262.3,360.8-259.9,363.9-256,364.5z M-145.8,325.4c1.5,1.5,3.3,1.2,5.4-1.2
		C-142.2,324.8-143.7,325.1-145.8,325.4z"/>
	<path class="st0" d="M-144,303.5c-1.2-0.9-2.4-2.1-3.9-3.3c1.5-2.1,3.9-2.7,6.3-4.2c-2.1-0.9-3.6-0.6-5.4,0.3c-0.6,0.3-1.2,0-1.5,0
		c0.3-0.6,0.3-1.2,0.9-1.8c2.1-1.5,7.5-1.2,9.3,0.3c0,0.6,0,1.2,0,1.8c0,3.9-2.1,6.6-4.8,8.7c-0.3,0.3-0.9,0-1.5,0
		C-144.3,305-144.3,304.1-144,303.5z M-139.4,297.4c-0.3-0.3-0.3-0.3-0.6-0.6c-0.6,0.3-1.5,0.9-2.4,1.2c0.6,0.6,0.9,1.2,1.8,2.1
		C-140,299.2-139.7,298.3-139.4,297.4z"/>
</g>
</svg>
