<?xml version="1.0" encoding="utf-8"?>
<!-- Generator: Adobe Illustrator 19.1.0, SVG Export Plug-In . SVG Version: 6.00 Build 0)  -->
<svg version="1.1" id="Layer_1" xmlns="http://www.w3.org/2000/svg" xmlns:xlink="http://www.w3.org/1999/xlink" x="0px" y="0px"
	 viewBox="0 0 200 196.2" style="enable-background:new 0 0 200 196.2;" xml:space="preserve">
<style type="text/css">
	.st0{fill:#E040FB;}
	.st1{fill:#FF4081;}
</style>
<g id="efficiency-wheel">
	<path class="st0" d="M15.8,158.6c3.2,0,6.9,1,9.5-0.3c2.5-1.2,3.8-4.8,5.7-7.4c0.8-1.1,1.6-2.5,2.7-3.3c3.8-2.9,3.1-6.3,1.9-10.1
		c-1.2-4-2-8.1-3.3-12c-1-3,0.2-4.7,2.6-6.3c2.4-1.5,4.7-3.1,6.9-4.8c1.4-1.2,2.5-1.2,4-0.1c4.5,3.4,9.1,6.7,13.6,10.2
		c1.4,1.1,2.5,1.4,4.3,0.7c4.2-1.6,8.5-3.1,12.8-4.3c1.7-0.5,2.4-1.2,3-2.9c1.9-5.4,4.1-10.7,6.1-16.2c0.7-1.8,1.7-2.4,3.6-2.3
		c3.5,0.2,7,0.2,10.5,0.2c2.1-0.1,3.1,0.8,3.6,2.7c1.5,5.3,3.2,10.7,4.9,16c0.3,0.9,0.9,2,1.6,2.2c4.7,1.7,9.5,3,14.2,4.7
		c1.8,0.6,3.1,0.5,4.7-0.6c4.3-2.9,8.7-5.7,12.9-8.6c2.3-1.6,4.2-1.6,6.4,0.3c2.3,2,4.7,3.8,7.2,5.5c1.9,1.4,2.2,3,1.4,5.2
		c-1.8,4.8-3.4,9.6-5.2,14.4c-0.6,1.6-0.5,2.7,0.6,4.1c3,3.9,5.6,8.1,8.5,12c0.6,0.8,1.9,1.5,2.9,1.6c5.9,0.5,11.9,0.8,17.8,1.1
		c1.7,0.1,2.7,0.8,3.3,2.5c1,3.3,2,6.5,3.2,9.7c0.9,2.3,0.1,3.9-1.7,5.1c-4,2.8-8,5.7-12.2,8.2c-2.2,1.3-2.8,2.8-2.7,5.2
		c0.2,5,0.1,5-4.8,5c-3.4,0-6.8-0.1-10.2,0.1c-1.9,0.1-2.5-0.8-2.5-2.5c0.3-13.5-5.1-24.9-13.3-35c-7.4-9.1-16.7-16-28.2-19.2
		c-7.9-2.2-15.9-3.3-24.3-2.5c-11.7,1-22.2,5-31.2,12.1c-12.8,10.2-20.9,23.4-22.8,40c-1,8.5,0.9,6.7-7.2,7c-2.7,0.1-5.5-0.1-8.2,0
		c-1.6,0.1-2.5-0.4-2.2-2c1.4-5.9-1.8-9.1-6.4-12.1c-3.3-2.1-6.1-5.1-8.9-7.9c-0.8-0.8-1.3-2.6-1-3.7c1.1-3.7,2.5-7.3,4-10.9
		c0.3-0.7,1.7-1.4,2.7-1.4c3-0.2,6-0.1,9.1-0.1C15.8,158.3,15.8,158.5,15.8,158.6z"/>
	<path class="st1" d="M119.2,96.7c-2.6-2.6-5-5.1-7.6-7.4c-0.6-0.5-1.9-0.6-2.7-0.4c-4,1-8,2.2-12,3.3c-2.2,0.6-3.8,0.1-4.7-2.3
		c-0.8-2.3-2.9-4.6-2.6-6.6c0.3-1.9,3-3.4,4.7-5.1c0.9-0.9,1.8-1.7,2.7-2.5c2.5-2.2,4.5-4.6,2.5-8.2c-0.4-0.7-0.4-1.7-0.3-2.5
		c0.7-3.6-1.4-4.7-4.4-5.8c-3.5-1.3-6.7-3.3-10-5.1c-0.5-0.3-0.7-1-0.9-1.6c-0.1-0.5-0.1-1.1,0-1.7c0.1-7.6,1.2-8.5,8.7-8
		c3,0.2,6,0,8.9,0c2-3.3,4-6.5,5.8-9.8c0.3-0.6,0.1-1.8-0.2-2.5c-1.7-3.6-3.6-7.1-5.4-10.6c-0.9-1.7-0.8-3.2,0.9-4.5
		c0.6-0.5,1.1-1.1,1.6-1.6c3.9-4,4.3-4.1,8.8-0.4c1.5,1.2,3,2.3,4.3,3.7c1.3,1.3,2.3,2.7,3.3,3.9c4.1-1.5,7.6-2.7,11-4.1
		c0.8-0.3,1.7-1.3,1.9-2.2c0.9-4,1.7-8.1,2.4-12.2c0.4-2,1.3-2.9,3.6-2.5c2,0.4,4.1,0.3,6.2,0.2c1.6-0.1,2.4,0.5,2.7,2.1
		c0.6,4.2,1.3,8.4,2.2,12.5c0.2,0.8,1,1.8,1.7,2.1c2.9,1.2,5.8,2.3,8.8,3.2c0.8,0.2,2-0.2,2.7-0.8c3.1-2.4,6.2-4.9,9.2-7.5
		c1.6-1.4,3.1-1.5,4.7-0.1c1.5,1.3,3.2,2.3,4.8,3.6c1.3,1.1,1.5,2.3,0.6,4c-2,3.6-3.6,7.5-5.4,11.2c-0.1,0.3-0.2,0.5-0.3,0.8
		c-1,3.1,1.9,4.7,2.7,7.1c0.7,2.3,1.3,4.8,5,4.5c4-0.3,8.1,0.3,12.2,0.4c2.1,0.1,2.7,1,2.8,3c0.4,7.7,0.5,7.7-6.6,10.9
		c-1,0.5-2,1.2-3.1,1.4c-4.5,1-5.3,4.3-6.3,8.3c-1.2,4.6,0.6,6.9,3.7,9.4c2.3,1.8,4.3,3.9,6.2,6.1c0.6,0.8,0.8,2.5,0.4,3.4
		c-3.2,7-3.6,7.2-10.8,4.9c-3.1-1-6.3-3.4-9-2.9c-2.7,0.5-4.9,3.8-7.2,6c-0.9,0.9-1.7,2.3-1.6,3.5c0.1,4.4,0.5,8.8,0.6,13.3
		c0,0.8-0.8,2.1-1.6,2.5c-7.1,3.6-8.6,3.3-11.7-4c-2.3-5.3-5.2-8-11.4-7.3c-3.4,0.4-6.2,0.2-7.9,3.9c-1.3,2.9-3.5,5.4-5.2,8.1
		c-0.2,0.3-0.3,0.9-0.5,1c-3.4,1-6.3-0.8-9-2.3c-0.9-0.5-1.5-2.4-1.5-3.7c0-2.1,0.6-4.3,0.9-6.4C118.6,100.3,118.9,98.3,119.2,96.7z
		 M142.4,84.1c12.7-0.1,24.1-11.9,24.2-24.9c0.2-16.4-12-25.1-24.2-24.7c-16.5,0.4-24.7,9.3-24.6,25.6
		C118,73.8,126.6,83.1,142.4,84.1z"/>
</g>
</svg>
