<?xml version="1.0" encoding="utf-8"?>
<!-- Generator: Adobe Illustrator 19.1.0, SVG Export Plug-In . SVG Version: 6.00 Build 0)  -->
<svg version="1.1" id="Layer_1" xmlns="http://www.w3.org/2000/svg" xmlns:xlink="http://www.w3.org/1999/xlink" x="0px" y="0px"
	 viewBox="-469.6 180.8 181.1 200" style="enable-background:new -469.6 180.8 181.1 200;" xml:space="preserve">
<style type="text/css">
	.st0{fill:#00B0FF;}
	.st1{fill:#EC407A;}
	.st2{fill:#FFAB40;}
</style>
<g id="faces">
	<path class="st0" d="M-320.6,180.8c0.5,0.7,0.9,1.8,1.6,2c1.4,0.4,1.8,1.6,2.5,2.5c1.1,2,2.4,4.2,3.3,6.3c3.8,8.5,7.2,17,9.8,26.1
		c0.9,3.4,2.2,6.9,3.4,10.3c0.7,2.4,0.5,4.5-0.9,6.5c-0.4,0.4-0.5,0.9-0.7,1.3c-0.5,1.3-0.5,2.5,0.2,3.6c3.4,5.1,6.7,10,10.1,15
		c1.1,1.6,2.2,3.3,2.7,5.3c0,0.5,0,1.3,0,2c-0.5,1.4-1.6,2-2.9,2.4c-1.3,0.2-2.4,0.5-3.4,0.9c-3.4,1.3-4,2.7-2.5,6
		c0.5,0.9,0.9,1.8,1.3,2.7c0.4,0.7,0.2,1.4-0.4,2.2c-0.9,0.9-1.6,1.8-2.4,2.7c0.5,0.7,0.9,1.3,1.4,2c1.3,2,1.3,2.2-0.5,4
		c-0.7,0.7-1.4,1.4-1.6,2.2c-0.5,2.4-0.5,4.9-0.4,7.2c0.2,2.5,0.4,4.9,0.2,7.4c-0.2,3.4-1.6,4.9-4.9,5.4c-3.3,0.5-6.7,0.9-10,0.9
		c-2.9,0-6-0.5-8.9-0.9c-1.8-0.2-3.4-0.4-5.3-0.4c-2.4,0-4.3,1.6-4.9,3.8c-0.5,2.2-0.9,4.2-1.1,6.3c-0.4,4.9-0.5,9.8-0.7,14.7
		c0,0.4,0.4,0.9,0.7,1.3c1.8,1.6,4,3.1,5.6,4.9c4,4.3,8,8.9,11.8,13.4c6.7,8.2,12.7,16.7,18.5,25.4c0.7,0.9,1.3,2,2,3.1
		c-0.2,0.2-0.4,0.2-0.5,0.4c-0.2-0.4-0.4-0.7-0.5-0.9c-8-9.1-15.9-18.1-23.9-27c-2.7-2.9-5.4-6-8.3-8.5c-4.2-3.6-8.3-7.2-13-10.1
		c-0.2-0.2-0.5-0.7-0.5-1.1c0-6.7,0-13.6,0.2-20.5c0.2-2.2,0.5-4.2,0.9-6.3c0.4-1.3,1.1-2.2,2.4-2.7c2.2-1.1,4.5-0.7,6.9-0.4
		c3.1,0.4,6,1.1,9.1,1.1c3.1,0.2,6-0.2,9.1-0.5c1.4-0.2,2.7-0.5,4-1.3c2.5-1.3,2.7-3.8,2.7-6.3c0-2.7-0.5-5.4-0.5-8.2
		c0-2.2,0.4-4.2,2.2-5.4c0.2-0.2,0.5-0.4,0.7-0.7c0.4-0.5,0.5-1.1,0.2-1.8c-0.5-0.9-1.1-1.8-1.8-2.7c-0.4-0.5-0.4-0.7,0-1.3
		c0.9-0.9,1.6-2,2.4-2.9c0.2-0.4,0.4-0.9,0.2-1.3c-0.5-1.4-1.3-2.9-1.6-4.5c-0.7-2.7-0.2-4.2,2.5-5.1c1.6-0.5,3.4-1.1,5.1-1.6
		c0.5-0.2,1.1-0.5,1.3-1.1c0.5-1.1,0.5-2.2-0.2-3.4c-0.7-1.8-1.4-3.3-2.4-4.9c-2.9-5.4-6-10.9-8.9-16.5c-0.2-0.5-0.4-1.6-0.2-2.4
		s0.7-1.4,1.1-2.2c0.4-1.1,1.1-2.2,1.1-3.3c0-1.6-0.4-3.4-0.7-5.3c-1.4-6.2-2.9-12.3-4.7-18.5c-2-6.9-4.7-13.8-8-20.3
		c-0.2-0.4-0.2-0.7-0.2-1.1C-320.9,180.8-320.7,180.8-320.6,180.8z"/>
	<path class="st1" d="M-352.6,264.3c0.2,0.4,0.2,0.7,0.4,1.1c0.7,2.7,2.2,4.9,3.8,7.1c1.3,1.8,2.7,3.6,4,5.4
		c1.3,1.8,0.9,3.1-1.1,4.2c-1.1,0.5-2.2,1.3-3.1,2c-1.4,1.1-1.6,2.5-0.9,4.2c0.4,0.9,0.5,1.8,0.4,2.7c-0.2,2-1.4,3.3-3.8,3.1
		c0.2,0.4,0.2,0.5,0.4,0.7c1.6,2.4,0.7,4.5-2,5.4c-0.5,0.2-1.1,0.4-1.6,0.5c-1.4,0.5-2.5,1.6-2.9,3.3c-0.2,0.9-0.4,2-0.4,2.9
		c0,2,0,4,0,6c-0.2,4-2.5,6.2-6.5,6.2c-4.9,0-9.2-1.4-13.8-3.1c-3.3-1.1-6.5-2.5-10-3.8c-0.2,0.7-0.5,1.3-0.5,2
		c-0.4,3.6-0.5,7.2-0.7,10.9c-0.2,6.3,0.4,12.7,1.4,18.8c0,0.7,0.2,1.4,0.9,1.6c1.1,0.4,2.2,0.5,3.3,0.9c2.5,0.9,5.1,1.4,7.4,2.5
		c3.3,1.6,5.4,4.5,7.4,7.4c4.7,6.9,8.3,14.5,11.6,22.3c0.2,0.2,0.2,0.4,0.2,0.5s-0.2,0.2-0.2,0.2c-0.4-0.7-0.9-1.4-1.4-2.2
		c0.2,0.9,0.2,1.4,0.4,2.2c-0.4-0.2-0.5-0.2-0.5-0.2c-0.2-0.4-0.7-0.7-0.9-1.1c-0.7-1.8-1.8-3.4-3.1-5.1c-2.2-2.9-4-5.8-6.2-8.7
		c-1.4-1.8-3.1-3.8-4.7-5.6c-1.4-1.6-2.9-3.4-4.7-4.7c-2.5-1.8-5.3-2.9-8.2-3.4c-2.4-0.5-4.7-1.3-7.4-1.8c-0.2-1.1,0-2.2-0.2-3.4
		c-0.4-3.1-0.9-6.3-1.3-9.4c-0.4-3.8-0.5-7.4-0.7-11.2c-0.2-2.4,0-4.9,0-7.4c0-2.9,0-6,0.2-8.9c0-0.5,0.2-1.3,0.4-2
		c0-0.2,0.5-0.4,0.7-0.4c1.6,0.5,3.1,1.3,4.7,1.8c3.8,1.4,7.4,2.9,11.2,4.3c2.7,1.1,5.6,2,8.7,1.4c1.4-0.4,2.7-0.9,3.6-2
		c1.1-1.6,1.3-3.6,1.4-5.4c0-1.6-0.2-3.3-0.2-4.9c0-3.3,1.6-5.4,4.9-6.3c2.5-0.7,3.6-2.5,1.8-5.3c-0.2-0.2-0.2-0.5-0.2-0.7
		c0.2,0,0.5-0.2,0.7-0.2c1.3,0,2.2-0.5,2.7-1.8c0.5-1.4,0.5-2.5-0.2-3.8c-0.9-1.8-0.9-2.5,0.5-3.8c1.3-1.1,2.7-2,4-2.9
		c1.3-0.7,1.4-1.8,0.5-3.1c-1.8-2.5-3.8-4.9-5.4-7.4c-1.6-2.4-3.1-4.9-2.7-8c0.2-1.4,0-3.1,0.2-4.5c0.2-1.6,0.4-3.1,0.5-4.7
		c0.4-2.4,0.7-4.9,0.9-7.4c0.2-1.6,0.2-3.1,0-4.7c-0.2-1.8-0.2-3.6-0.7-5.4c-0.7-3.3-1.8-6.3-2.9-9.6c-1.8-5.1-4.2-9.8-7.1-14.3
		c-2.2-3.6-4.7-6.7-7.8-9.6c-0.2-0.4-0.4-0.5-0.5-0.9l0.2-0.2c0.4,0.2,0.7,0.4,0.9,0.5c0.4,0.4,0.7,0.7,1.1,1.1
		c1.6,1.1,3.4,2.2,4.9,3.4c4.7,4,8.2,8.9,11.1,14.1c2.4,4.2,4.2,8.5,5.8,13c2.9,8,3.8,16.1,2,24.5c-0.5,2.4-0.9,4.9-1.4,7.2
		c2.2,1.1,4.3,0.9,6.3,0C-348.5,262.7-350.4,264.1-352.6,264.3z"/>
	<path class="st2" d="M-444.1,379.7c-0.4-1.1-0.9-2-1.3-3.1s-0.5-2.4-0.9-3.6c-0.9-3.4-2.5-6.7-3.1-10.3c-0.4-2-0.4-3.8,0-5.8
		c0-0.5,0-1.4-0.4-1.8c-0.9-0.9-0.9-1.8-0.7-2.9c0.5-3.4,1.4-6.7,2.2-10.1c0.5-2.4,1.8-4.2,4.5-4.5c2.2-0.2,4.5-0.7,6.9-0.9
		c2.7-0.4,5.4-0.5,8.2-0.7c2.5-0.2,5.1-0.5,7.4-1.6c1.8-0.9,3.1-2,1.8-4.5c-0.2-0.2-0.2-0.5-0.4-0.7c-0.7-1.4-0.4-2.5,0.9-3.3
		c2.5-1.4,2.7-4.2,0.5-6c-0.2-0.2-0.2-0.7,0-0.9c0.4-0.5,0.9-0.9,1.4-1.4c1.3-1.1,1.3-2.2,0.4-3.6c-0.9-1.3-1.8-2.5-2.5-3.8
		c-0.2-0.4-0.2-1.1,0-1.4c0.5-0.5,1.1-1.1,1.6-1.4c1.6-1.1,1.8-2.5,0.5-3.6c-0.5-0.4-1.1-0.9-1.6-1.3c-2.4-1.8-4.3-4-5.4-6.7
		c-1.1-2.7-0.7-5.4-0.4-8.3c0.4-2.4,0.9-4.7,1.1-7.1c0.2-2.7,0-5.6-0.4-8.3c-0.4-3.6-2-6.9-4.5-9.4c-2.7-2.9-5.8-5.4-8.9-8.2
		c-0.7-0.7-1.3-1.3-1.3-2.4c0-0.5-0.2-1.4-0.5-1.8c-1.3-1.3-2.9-2.4-4.3-3.6c-1.6-1.3-3.6-1.6-5.6-2c-2.2-0.5-4.3-1.1-6.5-1.4
		c-2-0.4-4.2-0.5-6.3-0.7c-1.4,0-3.1-0.2-4.5-0.2c-1.1,0-2.2,0.2-3.3,0.2c-0.2-1.3-0.2-1.3,0.7-1.3c1.8-0.2,3.6-0.2,5.4-0.4
		c-0.2,0-0.5-0.2-0.7-0.2c0.2-0.2,0.5-0.2,0.7-0.2c5.1,0.5,10,0.7,14.9,1.6c5.8,1.1,11.6,2,15.6,7.1c1.1,1.1,1.6,2.2,1.8,3.6
		c0.2,0.5,0.4,0.9,0.7,1.3c1.6,1.4,3.4,2.7,5.1,4.2c7.4,6.5,10.5,14.9,9.2,24.6c-0.4,2.7-0.9,5.3-1.3,8c-0.5,4,0.2,7.6,4,10.1
		c1.3,0.9,2.5,2.2,3.6,3.3c1.3,1.3,1.3,2.5,0.2,4c-0.5,0.7-1.3,1.4-2,2c-0.5,0.5-0.9,0.9-0.4,1.6c0.7,1.1,1.4,2.2,2.2,3.3
		c1.1,1.6,1.1,3.1-0.4,4.5c-0.5,0.4-1.1,0.9-1.3,1.1c0.5,0.9,1.3,1.6,1.4,2.5c0.4,1.6-0.2,2.9-1.6,4c-1.8,1.3-1.8,1.4-1.3,3.4
		c1.3,5.4-0.4,8.3-6,9.6c0,0-0.2,0-0.4,0c-4.2,0.4-8.3,0.7-12.5,1.3c-2.5,0.4-5.1,0.9-7.6,1.4c-1.1,0.2-2,1.3-2.4,2.5
		c-0.5,2.9-1.3,5.8-1.8,8.7c0,0.4,0.2,0.9,0.5,1.1c0.9,0.5,0.9,1.3,0.7,2.2c-0.4,1.4-0.7,3.1-0.7,4.5c0.2,6.2,0.5,12.3,0.9,18.5
		c0,0.2,0,0.2-0.2,0.5c-0.5-1.8-1.1-3.3-1.6-4.9c-0.2,0-0.2,0-0.2,0c0,1.3,0.2,2.5,0.2,4C-444.3,379.7-444.5,379.7-444.1,379.7z"/>
</g>
</svg>
