<?xml version="1.0" encoding="utf-8"?>
<!-- Generator: Adobe Illustrator 19.1.0, SVG Export Plug-In . SVG Version: 6.00 Build 0)  -->
<svg version="1.1" id="Layer_1" xmlns="http://www.w3.org/2000/svg" xmlns:xlink="http://www.w3.org/1999/xlink" x="0px" y="0px"
	 viewBox="0 0 100 100" style="enable-background:new 0 0 100 100;" xml:space="preserve">
<style type="text/css">
	.st0{fill:#03A9F4;}
	.st1{fill:#F44336;}
</style>
<g id="goal-target">
	<path class="st0" d="M80.4,10.4c-1.2,1.1-2.3,2.2-3.4,3.3c-0.4,0.4-0.7,0.7-1.1,1.1c-1.1,1-1.9,2.1-1.4,3.9
		c-9.7-7.3-20.3-9.9-32.1-7.7c-10.6,2-19,7.6-25.2,16.4C5.8,43.8,8.5,66.5,23.9,80c14.9,13.1,37.5,13.1,52.4-0.2
		c7.8-6.9,12.3-15.6,13.3-26.1c1-10.4-1.8-19.7-8.1-28.2c0.3,0,0.5,0,0.7,0.1c1,0.1,1.8-0.2,2.6-0.9c1.6-1.7,3.3-3.3,5-5
		c5,6.6,8.3,13.9,9.5,22c2.2,14.1-0.8,27.1-9.5,38.5c-17.5,22.9-49.5,26.2-71.2,8.7C-3.4,71.1-6.2,39,11.9,17.7
		C30.1-3.8,60.6-5.1,80.4,10.4z"/>
	<path class="st0" d="M68.9,27.4c-1.3,1.3-2.4,2.4-3.6,3.6c-1.2,1.2-2.4,2.4-3.6,3.6c-5.3-3.7-11-5-17.2-3.1
		c-4.7,1.4-8.3,4.3-10.9,8.4c-5,8-3.3,18.4,3.9,24.7c7.2,6.2,18.2,6.1,25.3-0.2c7-6.2,9.1-17.3,2.7-26c2.4-2.4,4.8-4.8,7.2-7.2
		c8.6,9.9,9.9,27-1.4,39c-11.2,11.9-30.1,12.3-41.8,0.9C17.7,59.6,18.2,42,27.3,31.2c5.9-6.9,13.4-10.6,22.6-10.7
		C57.1,20.5,63.3,22.9,68.9,27.4z"/>
	<path class="st0" d="M54.2,42.1c-1.6,1.6-3.2,3.2-4.8,4.7c-0.5,0.5-1,0.9-1.3,1.5c-0.7,1.5,0.4,3.5,2.1,3.6c1,0.1,1.7-0.2,2.4-0.9
		c1.6-1.6,3.2-3.2,4.8-4.8c0.1-0.1,0.3-0.3,0.4-0.4c1.8,2.8,1.4,7.7-1.9,10.7c-3.4,3-8.5,3-11.9,0c-3.4-3-3.9-8.1-1.3-11.9
		C45.3,41.2,50.3,40,54.2,42.1z"/>
	<path class="st1" d="M49,49.3c0.2-0.3,0.3-0.6,0.5-0.9c5.6-5.7,11.3-11.4,16.9-17c5.9-5.9,11.7-11.7,17.6-17.6
		c0.6-0.6,1.2-1.2,1.8-1.7c0.7-0.6,1.3-0.5,2.1,0.3c0.5,0.5,0.4,1.4-0.2,2c-1.2,1.2-2.4,2.4-3.5,3.6c-4.5,4.5-9,9-13.5,13.5
		C64.9,37.4,59,43.2,53.2,49.1c-0.5,0.5-1,1-1.5,1.5c-0.5,0.5-1.1,0.6-1.7,0.3C49.4,50.6,49.1,50.1,49,49.3z"/>
	<path class="st1" d="M75.9,20.4c-0.1-1-0.3-1.9-0.3-2.8c0-0.5,0.2-1.1,0.6-1.5c1.5-1.6,3.1-3.2,4.7-4.8c1.4-1.4,2.8-2.8,4.3-4.3
		c0.2,1.2,0.4,2.3,0.5,3.4c0,0.2-0.2,0.4-0.3,0.5c-1.1,1.1-2.2,2.2-3.2,3.2c-1.9,1.9-3.8,3.8-5.8,5.8C76.2,20.2,76.1,20.3,75.9,20.4
		z"/>
	<path class="st1" d="M79.6,24.2c1.5-1.5,3-2.9,4.4-4.4c1.6-1.6,3.2-3.2,4.8-4.8c0.4-0.4,0.8-0.6,1.4-0.5c0.9,0.1,1.8,0.3,2.9,0.4
		c-0.2,0.2-0.3,0.3-0.4,0.5c-2.8,2.9-5.7,5.7-8.5,8.6c-0.5,0.6-1.2,0.7-1.9,0.6C81.3,24.4,80.5,24.3,79.6,24.2z"/>
</g>
</svg>
