<?xml version="1.0" encoding="utf-8"?>
<!-- Generator: Adobe Illustrator 19.2.1, SVG Export Plug-In . SVG Version: 6.00 Build 0)  -->
<svg version="1.1" id="Layer_1" xmlns="http://www.w3.org/2000/svg" xmlns:xlink="http://www.w3.org/1999/xlink" x="0px" y="0px"
	 viewBox="0 0 100 66.7" style="enable-background:new 0 0 100 66.7;" xml:space="preserve">
<style type="text/css">
	.st0{fill:#03A9F4;}
</style>
<g id="how-man">
	<path class="st0" d="M12,40.6c0,0.7-0.1,1.5-0.1,2.2c0,6.8,0.1,13.7-0.1,20.5c0,1-0.9,2.6-1.7,3c-0.9,0.4-2.5-0.1-3.4-0.7
		c-0.6-0.4-0.8-1.7-0.8-2.7c-0.1-13.2,0-26.3-0.1-39.5c0-0.7-0.1-1.5-0.1-2.2c-0.2,0-0.4,0-0.6,0c-0.1,0.6-0.2,1.3-0.2,1.9
		c0,4.5,0,8.9,0,13.4c0,2.1-0.8,3.3-2.4,3.3C1,39.8,0,38.6,0,36.4C0,31.2,0,26,0,20.8c0-4.9,3-7.8,7.9-7.8c2.7,0,5.5,0,8.2,0
		c3.5,0,5.6,1.5,6.8,4.8c0.6,1.5,1.3,2.9,1.7,4.5c0.5,2,1.7,2.7,3.5,3.2c2.6,0.7,5.2,1.7,7.8,2.4c0.6,0.2,1.4,0,1.9-0.3
		c3.9-2.4,7.8-4.8,11.7-7.2c0.5-0.3,1.1-0.6,1.9-0.5c-0.3,0.3-0.7,0.6-1.1,0.9c-3.9,2.6-7.9,5.1-11.8,7.8c-0.7,0.5-1.2,1.3-1.5,2.1
		c-0.6,1.7-1.7,2.6-3.4,2.2c-3.7-1-7.3-2-10.9-3.2c-0.9-0.3-1.6-1.3-2.2-2.2c-0.5-0.7-0.7-1.5-1.4-2.3c0,0.6,0,1.2,0,1.9
		c0,12,0,23.9,0,35.9c0,1.5-0.3,2.8-1.8,3.5c-2.1,1-4.3-0.6-4.3-3.1c0-7,0-14,0-20.9c0-0.6-0.1-1.3-0.2-1.9
		C12.6,40.5,12.3,40.5,12,40.6z"/>
	<path class="st0" d="M100,37.4c-9,0-17.8,0-26.8,0C73.1,38,73,38.5,73,39c0,5.1-0.1,10.2,0,15.4c0,0.9,0.4,2,1,2.6
		c3,3,6.1,5.9,9.4,8.9c-2.1,0.8-2.6,0.8-3.8-0.3c-2.1-2-4.2-4-6.6-6.3c0,2.6,0,4.8,0,6.9c-1.7,0.6-2.6,0.4-2.5-1.5
		c0.1-1.6,0-3.3,0-5.1c-3.8,1.8-5.1,6.8-9.8,7c3-3.2,5.9-6.2,8.7-9.4c0.5-0.5,1-1.3,1-2c0.1-5.8,0-11.7,0-17.8c-9,0-18,0-27.1,0
		c0-3.6-0.1-7,0.1-10.3c0-0.6,0.9-1.2,1.4-1.8c0.2,0.1,0.3,0.1,0.5,0.2c0,3.2,0,6.4,0,9.7c17.7,0,35,0,52.5,0c0-11.1,0-22.1,0-33.2
		C80.6,2,63.2,2,45.6,2c0,0.7-0.1,1.4-0.1,2.1c0,5.3-0.1,10.6,0,16c0,1.5-0.5,2.2-2,2.5c0-7.6,0-15.1,0-22.6C62.4,0,81.1,0,100,0
		C100,12.4,100,24.8,100,37.4z"/>
	<path class="st0" d="M17.5,6.6c0,2.8-2.4,5-5.1,4.9c-2.7-0.1-4.8-2.3-4.8-5c0-2.8,2.4-5,5.1-4.9C15.4,1.6,17.5,3.9,17.5,6.6z"/>
</g>
</svg>
