<?xml version="1.0" encoding="utf-8"?>
<!-- Generator: Adobe Illustrator 19.1.0, SVG Export Plug-In . SVG Version: 6.00 Build 0)  -->
<svg version="1.1" id="Layer_1" xmlns="http://www.w3.org/2000/svg" xmlns:xlink="http://www.w3.org/1999/xlink" x="0px" y="0px"
	 viewBox="0 0 100 106.4" style="enable-background:new 0 0 100 106.4;" xml:space="preserve">
<style type="text/css">
	.st0{fill:#03A9F4;}
	.st1{fill:#FF9800;}
</style>
<g id="idea-light">
	<path class="st0" d="M10.6,63.2c0.3,0.5,0.6,1,0.9,1.4c0.9,1.3,1.9,2.6,2.8,3.9c1.9,3.1,3.9,6,6.1,8.8c0.5,0.6,0.8,1.4,1.3,2.1
		c0.9,1.2,1.3,2.6,1.8,4c0.5,1.5,0.6,2.9,0.3,4.4c-0.1,0.6-0.2,1.2-0.3,1.8c-0.3,2.8-0.9,5.5-1.8,8.1c-0.8,2.4-1.5,4.9-1.7,7.5
		c-0.1,1-0.1,1-1.1,1c-0.3,0-0.6,0-1,0c0-0.3,0-0.6,0.1-0.8c0.5-2.5,0.9-5,1.5-7.4c0.4-1.5,1-3,1.4-4.5c0.4-1.3,0.7-2.7,0.8-4
		c0.2-2.3,0.1-4.7-0.6-6.9c-0.4-1.3-1.1-2.4-1.9-3.5c-1.2-1.8-2.6-3.5-3.9-5.3c-0.7-0.9-1.2-2-1.9-3c-1.7-2.3-3.4-4.6-5.1-6.9
		c-0.6-0.9-1.1-1.9-1.8-2.7c-1.4-1.8-2.1-4-3-6.1c-0.6-1.5-1.2-3-1.8-4.4c-0.8-1.9-1.1-4-1.2-6c-0.1-0.9-0.4-1.9-0.4-2.8
		c-0.1-2.3-0.2-4.6,0-6.9c0.2-2.3,0.6-4.7,1.2-7c0.4-1.9,1.2-3.7,1.9-5.6c0.3-0.7,0.8-1.3,1.2-2c0.3-0.5,0.6-1.1,0.9-1.7
		C5.8,18,6,17.2,6.5,16.4c0.4-0.5,0.6-1.2,1-1.7c0.5-0.6,1-1.1,1.6-1.6c1-1,2.2-1.8,3.1-2.9c1.4-1.6,3.1-2.7,4.9-3.8
		c1.5-0.8,3-1.6,4.5-2.2c1.1-0.5,2.3-0.6,3.4-1.1c2.3-1,4.9-1.2,7.3-1.7c1.7-0.3,3.4-0.6,5-1c1.4-0.3,2.8-0.4,4.2-0.4
		c2.6,0.1,5.3,0.2,7.9,0.4C51,0.5,52.5,1,54,1.1c2.5,0.2,4.9,0.7,7.3,1.4c1.9,0.5,3.8,1.3,5.5,2.2c2.8,1.4,5.6,3.1,8.3,4.7
		c1,0.6,1.9,1.5,3,2c1.9,1,3.2,2.6,4.6,4.1c0.5,0.6,1.2,1.1,1.7,1.8c1,1.4,2.3,2.5,2.7,4.2c0.3,0.9,0.8,1.8,1,2.7
		c0.4,1.5,0.7,2.9,1,4.4c0.2,1.2,0.4,2.3,0.4,3.5c0,1.7-0.1,3.5-0.3,5.2c-0.1,2.1-0.3,4.2-0.4,6.3c0,1,0.1,2.1,0.2,3.1
		c0.1,0.5,0.4,1,0.5,1.5c0.3,1.4,1.2,2.3,2.1,3.4c1.6,2,3.1,4,4.7,5.9c1.1,1.3,2.2,2.7,3.1,4.2c0.7,1.3,0.7,2.6,0.6,4
		c0,0.2-0.1,0.3-0.3,0.4c-0.9,0.8-1.8,1.7-2.8,2.5c-0.8,0.6-1.6,1.1-2.4,1.6c-0.5,0.3-0.7,0.7-0.6,1.2c0.1,1.3,0.2,2.7,0.4,4
		c0,0.2,0.1,0.4,0.1,0.6c0.1,0.9-0.1,1.3-0.9,1.6c-0.8,0.3-1.1,1.1-0.7,1.8c0.1,0.3,0.3,0.6,0.4,0.9c0.5,0.9,0.4,1.4-0.2,2.2
		c-0.3,0.3-0.5,0.6-0.8,0.9c-1.3,1.3-1.7,3-1.2,4.7c0.5,1.7,0.4,3.4,0.3,5.1c-0.1,1-0.5,1.8-1.3,2.3c-0.8,0.5-1.6,0.9-2.5,1.1
		c-1.6,0.3-3.2,0.4-4.8,0.3c-1.4-0.1-2.8-0.3-4.2-0.3c-1.9,0-3.8,0-5.6,0.7c-1.1,0.4-2.4,0.7-3.4,1.2c-1.8,0.9-3.3,2.1-3.9,4.1
		c-0.4,1.2-0.7,2.5-1.1,3.7c-0.1,0.2-0.3,0.3-0.5,0.4c-0.3,0.1-0.5,0-0.8,0c-1,0-1,0-0.8-1c0.6-2.7,1.9-4.9,3.8-6.9
		c2.3-2.4,5.3-3.2,8.4-3.8c2.8-0.5,5.6-0.3,8.4-0.1c1.5,0.1,2.9,0.2,4.3-0.2c1.1-0.3,2.1-0.8,2.3-2c0.1-0.3,0.1-0.7,0-1.1
		c-0.3-1.3-0.7-2.6-0.8-3.9c-0.2-1.9,0.3-3.7,1.7-5.1c0,0,0.1-0.1,0.1-0.1c1.1-1.1,1.1-1.2,0.1-2.3c-0.8-0.9-0.8-1.8,0.2-2.6
		c0.4-0.4,0.9-0.7,1.3-1.1c0.4-0.4,0.5-0.8,0.3-1.4c-0.2-0.5-0.3-1-0.5-1.5c-0.7-1.7-0.2-3.7,1.1-4.9c0.1-0.1,0.3-0.3,0.5-0.3
		c1.5-0.5,2.6-1.5,3.8-2.5c0.8-0.6,0.9-1.4,0.6-2.4c-0.3-0.9-0.9-1.6-1.6-2.2c-0.7-0.7-1.2-1.5-1.8-2.3c-1-1.4-1.7-2.9-3-4
		c-0.3-0.3-0.6-0.7-0.9-1.1c-0.6-0.8-1.3-1.6-1.9-2.4c-0.7-0.9-1.1-1.8-1.4-2.9c-0.2-1.1-0.5-2.1-0.6-3.2c-0.1-1,0-2,0.1-3
		c0.2-2.2,0.6-4.5,0.7-6.7c0.1-1.8,0.1-3.7-0.4-5.5c-0.7-2.2-1.2-4.5-1.8-6.7c-0.5-1.6-1.3-3-2.6-4.2c-1-1-2-2.1-3-3.1
		c-0.7-0.7-1.4-1.4-2.2-1.9c-1.8-1.3-3.6-2.7-5.4-3.9c-1.4-0.9-2.8-1.7-4.3-2.4c-1.7-0.8-3.4-1.4-5.1-2.1c-0.5-0.2-1-0.7-1.6-0.9
		c-2.4-0.8-4.9-1.4-7.5-1.5c-1.3-0.1-2.6-0.5-3.9-0.6c-1.3-0.1-2.6-0.1-4,0c-1.8,0.1-3.5,0.1-5.3-0.3c-0.7-0.2-1.5-0.1-2.3,0
		c-2.3,0.4-4.6,0.9-6.9,1.3c-2.4,0.4-4.7,1.2-7,2c-1.2,0.4-2.4,0.7-3.5,1.2c-0.8,0.3-1.5,0.9-2.3,1.4c-0.4,0.3-0.8,0.6-1.2,0.9
		c-0.5,0.4-1.1,0.8-1.6,1.3c-0.6,0.5-1.1,1.1-1.7,1.5c-0.7,0.4-1.2,1.1-1.8,1.7c-0.2,0.2-0.3,0.4-0.5,0.5c-1.9,1.3-3.1,3.2-4.1,5.2
		c-0.8,1.5-1.6,3-2.3,4.6c-0.4,0.8-0.5,1.6-0.8,2.4c-0.1,0.3-0.4,0.6-0.6,1c-0.1,0.1-0.1,0.3-0.2,0.5c0.2-0.1,0.3-0.1,0.5-0.1
		c-0.1,0.1-0.1,0.3-0.2,0.4c-0.1,0.6-0.2,1.2-0.3,1.8c-0.1,1.2-0.4,2.3-0.8,3.4c-0.8,2.5-0.9,5.1-0.6,7.8c0.3,2.4,0.7,4.8,1.5,7.1
		c0.5,1.8,1.1,3.5,1.7,5.3c0.2,0.6,0.6,1.2,0.8,1.8c0.1,0.2,0,0.5,0.1,0.7c0.1,0.4,0.3,0.7,0.4,1.1c0.2,0.6,0.4,1.3,0.7,1.8
		c0.5,1,1.1,2,1.7,3c0.3,0.6,0.7,1.1,1.1,1.7C10.3,63.1,10.5,63.2,10.6,63.2z"/>
	<path class="st0" d="M36.5,64.4c-0.3,0-0.6,0-0.9,0c-0.9,0.1-1.4-0.3-1.7-1.1c-0.5-1.1-1.2-2-2.2-2.7c-0.7-0.5-0.8-0.7-0.4-1.5
		c0-0.1,0.1-0.2,0.1-0.3c-0.1-0.6-0.2-1.3-0.4-1.9c0-0.1,0-0.3,0-0.4c0.3-0.4,0-0.9,0-1.3c0.1-1-0.6-1.8-0.5-2.8
		c0-0.2-0.1-0.5-0.2-0.6c-0.3-0.5-0.7-0.9-1.1-1.4c-0.1-0.2-0.2-0.5-0.2-0.8c0.2-2.8-0.3-5.4-1.9-7.8c-1.5-2.3-2.8-4.7-3.3-7.5
		c-0.1-0.6-0.2-1.2-0.1-1.7c0.2-1.4,0.2-2.9,0.6-4.2c0.5-1.8,1.7-3.2,3-4.5c0.9-0.9,1.8-1.7,2.8-2.5c1.3-1,2.9-1.4,4.5-1.7
		c0.6-0.1,1.2-0.2,1.8-0.3c2.2-0.1,4.1,0.5,6,1.5c1.6,0.8,2.5,2.2,3.8,3.3c0.1,0.1,0.2,0.2,0.2,0.3c0.6,1.1,1.2,2.1,1.7,3.3
		c0.4,0.8,0.6,1.7,0.8,2.6c0.5,2,0,3.8-0.6,5.7c-0.4,1-0.6,2.1-1.1,3.1c-0.9,1.7-1.9,3.3-2.9,5c-0.3,0.5-0.5,0.9-0.6,1.4
		c-0.2,1.4-0.5,2.8-0.5,4.2c0,0.7-0.5,1.1-0.7,1.6c-0.1,0.4-0.2,0.8-0.2,1.1c0,0.3,0.1,0.6,0.1,0.9c0,0.5-0.1,0.9-0.5,1.1
		c-0.4,0.2-0.4,0.5-0.3,0.8c0.1,0.4,0,0.9,0.2,1.3c0.2,0.5,0.1,0.9-0.2,1.4c-0.1,0.1,0.1,0.4,0.2,0.5c0.3,0.3,0.4,0.6,0,0.9
		c-0.1,0.1-0.2,0.1-0.2,0.2c0,0.7-0.5,1.1-0.9,1.6c-0.7,0.8-1.6,1.4-2.1,2.3C38.3,64.7,37.4,64.4,36.5,64.4z M33.9,32.4
		c1.2-0.3,2.3-0.5,3.4,0.2c0.1,0.1,0.5,0,0.7-0.1c1-0.7,2.7-0.6,3.6,0.2c0.1,0.1,0.3,0.2,0.5,0.2c0.6,0.1,0.7,0.2,0.4,0.8
		c-0.8,1.9-1.7,3.8-2.5,5.7c-0.5,1.2-0.9,2.5-1.2,3.8c-0.1,0.3-0.1,0.7-0.1,1.1c0,0.5,0.2,0.9,0.2,1.3c0,1.1-0.1,2.3,0,3.4
		c0.1,0.6,0.4,1.3,0.8,1.7c0.2,0.3,0.9,0.2,1.3,0.2c0.2,0,0.4,0,0.6,0c0.9-0.1,1-0.2,1.1-1.1c0.2-1.2,0.4-2.3,0.5-3.5
		c0.2-1.5,0.8-2.7,1.6-3.9c0.8-1.3,1.6-2.7,2.2-4.1c0.5-1,0.7-2.2,1-3.3c0.2-0.8,0.5-1.7,0.5-2.5c0-0.9-0.2-1.9-0.4-2.8
		c-0.6-2.3-1.4-4.4-3.3-6c-0.1-0.1-0.2-0.2-0.2-0.3c-0.5-0.7-1.1-1.3-1.9-1.5c-0.2-0.1-0.4-0.2-0.5-0.3c-1.6-1.2-3.5-1.7-5.5-1.5
		c-1.3,0.1-2.7,0.5-4,0.8c-1.1,0.3-2.1,0.9-2.9,1.6c-0.6,0.5-1.1,1.1-1.7,1.5c-1.3,1-2.2,2.4-2.7,3.9c-0.5,1.4-0.6,3-0.9,4.5
		c-0.3,1.8,0.5,3.4,1.1,5c0.4,1.1,1,2.1,1.6,3.1c0.1,0.3,0.3,0.5,0.5,0.8c0.5,0.8,1,1.6,1.4,2.5c0.8,1.7,1,3.6,0.9,5.5
		c0,0.8,0.2,1.3,0.7,1.8c0.2,0.2,0.5,0.3,0.8,0.3c0.8-0.1,1.6-0.2,2.4-0.3c0.1,0,0.4-0.2,0.4-0.4c0.1-0.9,0.2-1.8,0.2-2.7
		c0-0.5-0.1-1-0.4-1.4c-0.3-0.7-0.3-1.3,0-2c0.1-0.3,0.2-0.7,0.1-1c-0.4-1.6-1-3.1-1.4-4.7c-0.4-1.5-0.7-3-1.4-4.4
		c-0.2-0.4-0.3-0.9-0.2-1.3c0-0.3,0.2-0.8,0.5-0.9C32.4,31.4,33.3,31.6,33.9,32.4z M39.7,32.7c-0.3,0.1-0.7,0.1-1,0.2
		c-0.2,0-0.4,0.2-0.4,0.3c-0.3,1.2-0.6,2.5-0.9,3.7c0,0.1,0.1,0.3,0.2,0.4c0.4,0.2,0.5,0.6,0.3,1c-0.1,0.3-0.1,0.6-0.1,0.9
		c-0.1,1.4-0.1,2.8-0.2,4.2c0,0.1,0.1,0.3,0.2,0.5c0.1-0.1,0.2-0.2,0.3-0.4c0.4-1.2,0.6-2.5,1.1-3.7c0.8-1.9,1.7-3.7,2.5-5.6
		c0.1-0.2,0.1-0.5,0-0.6C41.1,33.2,40.6,32.4,39.7,32.7z M42,53c0-0.3-0.1-0.7-0.2-1c-0.1-0.2-0.3-0.4-0.4-0.4
		c-1.1-0.1-2.3-0.1-3.4-0.1c-1.8,0-3.6,0.1-5.5,0.2c-0.9,0-1.1,0.2-1.2,1.1c-0.1,0.4,0.1,0.6,0.5,0.6c0.6,0,1.2,0,1.9,0
		c1.6-0.1,3.2,0.2,4.8-0.1C39.6,53.1,40.8,53.1,42,53z M35.1,43.5c0.1-0.2,0.2-0.3,0.2-0.4c0.1-1.4,0.1-2.8,0.2-4.1
		c0-0.1,0-0.2-0.1-0.2c-0.7-2-1.4-4-2.1-6c-0.1-0.2-0.3-0.4-0.4-0.4c-1-0.1-1.3,0.3-1,1.2c0.1,0.3,0.2,0.6,0.3,0.9
		c0.2,0.6,0.5,1.2,0.7,1.8c0.7,2.3,1.4,4.7,2.1,7C34.9,43.2,35,43.3,35.1,43.5z M32.3,59.8c0,0.1,0,0.1,0,0.2c0.3,0.3,0.7,0.6,0.9,1
		c0.4,0.8,1.1,1,1.9,0.9c1.4-0.1,2.7-0.2,4.1-0.3c0.1,0,0.2,0,0.3-0.1c0.5-0.5,0.9-0.9,1.3-1.5c0.1-0.2,0.1-0.5,0.2-0.9
		C38.1,60.2,35.2,59.7,32.3,59.8z M41.1,57.4c-0.2,0-0.3,0-0.4,0c-1.3,0.5-2.7,0.3-4.1,0.3c-1.4,0-2.8,0-4.1,0
		c-0.2,0-0.4,0.1-0.5,0.3c-0.2,0.3,0.5,1.1,0.8,1.1c0.9,0,1.9,0.1,2.8,0c1.7-0.1,3.3-0.3,5-0.4c0.2,0,0.4-0.1,0.4-0.3
		C41.1,58.2,41,57.8,41.1,57.4z M34.1,33.1c0.2,0.5,0.3,1,0.4,1.5c0.3,0.8,0.6,1.6,0.9,2.3c0.1,0.2,0.5,0.4,0.8,0.5
		c0.1,0,0.3-0.2,0.3-0.4c0.3-1,0.5-2,0.7-3c0.1-0.3,0-0.5-0.3-0.7C36.1,32.6,35.1,32.8,34.1,33.1z M34.9,46.6
		c0.6-0.3,1.1-0.8,1.6-0.8c0.5,0,1,0.4,1.6,0.6c0.1-0.3,0.1-0.6,0.2-0.9c0.1-0.6,0-0.8-0.7-0.9c-0.6-0.1-1.2-0.2-1.7-0.3
		c-0.7-0.2-1.3,0.1-1.3,0.8C34.6,45.6,34.8,46.1,34.9,46.6z M31.8,56.5c0,0.6,0.4,0.6,0.7,0.6c1.7,0,3.5,0,5.2,0
		c1,0,2.1-0.2,3.1-0.4c0.2,0,0.5-0.3,0.7-0.4c0-0.1-0.1-0.1-0.1-0.2C38.2,56.3,35.1,57.1,31.8,56.5z M31.8,54.7
		c3.3,0.6,6.5-0.4,9.7-0.7c-0.1-0.1-0.2-0.2-0.3-0.2c-1,0.1-2,0.2-3.1,0.3c-0.5,0-1,0.1-1.6,0.1c-1.3,0-2.6-0.1-4-0.1
		C32.2,54.1,31.9,54.2,31.8,54.7z M36,41.2C36,41.2,36,41.2,36,41.2c0,0.6,0,1.2,0,1.9c0,0.3,0.1,0.6,0.5,0.6c0.4,0,0.4-0.3,0.4-0.5
		c0.1-1.3,0.1-2.6,0.1-3.9c0-0.3,0-0.6-0.4-0.6c-0.4,0-0.5,0.1-0.5,0.5C36.1,39.8,36,40.5,36,41.2z M38.8,55.5c0,0,0,0.1,0,0.1
		c0.5-0.1,1.1-0.1,1.6-0.2c0.3,0,0.7,0.1,0.7-0.4c0-0.1-0.5-0.2-0.8-0.1c-2,0.2-4,0.5-6,0.6c-0.5,0-1.1-0.1-1.6-0.2
		c-0.2,0-0.3,0.1-0.5,0.2c0.2,0.1,0.3,0.2,0.5,0.3C32.8,56,33,56,33.2,56c0.8,0,1.6,0.1,2.3,0C36.6,55.9,37.7,55.7,38.8,55.5z
		 M38.7,62.6c0-0.1,0-0.1-0.1-0.2c-1.3,0.1-2.7,0.3-4.1,0.4c0.2,0.7,0.5,1,1.2,0.9c0.2,0,0.5,0,0.7,0C37.6,64,38,63.1,38.7,62.6z
		 M36.7,48.5c0.7,0,0.9-0.2,0.9-0.8c0-0.6-0.6-1.2-1.2-1.2c-0.5,0-0.8,0.4-0.8,1.1C35.7,48.1,36.1,48.5,36.7,48.5z M35.9,49.3
		c0.1,0.4,0.2,0.8,0.4,1.2c0.1,0.1,0.3,0.3,0.5,0.2c0.1,0,0.3-0.2,0.4-0.3c0.1-0.3,0.2-0.7,0.3-1.1C36.9,49.3,36.4,49.3,35.9,49.3z
		 M38.8,50.7c-0.2-0.4-0.4-0.8-0.6-1.1c-0.1,0-0.1,0-0.2,0c-0.1,0.4-0.2,0.7-0.3,1.1C38.2,50.7,38.4,50.7,38.8,50.7z"/>
	<path class="st1" d="M19.3,28.7c-0.1,0.8-0.5,1.5-1.1,1.7c-0.4,0.1-0.9-0.1-1.3-0.3c-1.2-0.6-2.5-1.2-3.7-1.8
		c-0.4-0.2-0.9-0.5-1.3-0.7c-0.7-0.4-0.9-1.2-0.5-1.9c0.2-0.3,0.4-0.5,0.7-0.7c0.6-0.5,0.9-0.4,1.6-0.1c1.2,0.7,2.4,1.2,3.5,1.8
		c0.6,0.3,1.3,0.7,1.9,1.1C19.2,28.2,19.2,28.5,19.3,28.7z"/>
	<path class="st1" d="M20.9,39.1c-0.1,0.3-0.2,0.7-0.3,1c-0.2,0.6-0.5,0.7-1.2,0.6c-1.4-0.1-2.9-0.2-4.3-0.1
		c-1.4,0.1-1.8-0.4-1.8-1.7c0-0.5,0.2-1.1,0.5-1.5c0.1-0.2,0.4-0.4,0.7-0.3c1.6,0.1,3.2,0.3,4.8,0.4c0.1,0,0.2,0,0.2,0
		C20.6,37.6,20.9,38,20.9,39.1z"/>
	<path class="st1" d="M23.9,19.9c0,0.1,0,0.1,0,0.1c-0.1,0.4-1.4,1.5-1.7,1.4c-0.1,0-0.3-0.1-0.4-0.2c-0.5-0.7-1-1.5-1.6-2.2
		c-0.3-0.4-0.6-0.8-0.9-1.2c-0.5-0.6-1-1.1-1.5-1.7c-0.3-0.3-0.3-0.6,0-0.9c0.2-0.2,0.4-0.4,0.7-0.6c0.7-0.5,0.8-0.5,1.4,0.2
		c0.6,0.7,1.4,1.4,2,2.1c0.6,0.7,1,1.6,1.6,2.4C23.6,19.4,23.7,19.7,23.9,19.9z"/>
	<path class="st1" d="M54.1,35.5c1,0.4,2,0.7,3,1.1c0.8,0.4,1.6,0.9,2.4,1.4c0.3,0.2,0.4,0.5,0.3,0.9c-0.2,0.5-0.5,1.1-0.8,1.6
		c0,0.1-0.4,0.1-0.5,0.1c-1.6-1.1-3.5-1.7-5.2-2.5c-0.4-0.2-0.6-0.5-0.4-0.9c0.1-0.2,0.1-0.5,0.2-0.7C53.3,35.8,53.5,35.6,54.1,35.5
		z"/>
	<path class="st1" d="M42.3,14.6c-0.5-0.3-1-0.6-1.5-0.9c-0.1-0.1-0.1-0.3-0.1-0.5c0.3-0.5,0.5-1,0.8-1.4c0.8-1,1.6-2,2.5-3
		c0.3-0.4,0.7-0.7,1.2-1c0.6-0.4,0.9,0.3,1.3,0.5c0.3,0.2,0.5,0.6,0.2,1c-1.2,1.6-2.5,3.2-3.8,4.8C42.9,14.3,42.6,14.4,42.3,14.6z"
		/>
	<path class="st1" d="M31.8,14.5c0,0.7-0.2,0.9-0.9,1.1c-0.7,0.2-1,0.1-1.3-0.5c-0.2-0.3-0.3-0.7-0.4-1.1c-0.3-1.7-0.6-3.3-0.8-5
		c-0.1-0.5,0.3-1,1-1.1c0.5-0.1,0.9,0.1,1.1,0.5c0.2,0.6,0.4,1.3,0.5,2C31.3,11.8,31.5,13.1,31.8,14.5z"/>
	<path class="st1" d="M58.7,27.8c0.2,0.3,0.5,0.4,0.6,0.7c0.1,0.2,0.1,0.4,0.2,0.7c0.1,0.8-0.1,1.1-0.8,1.3c-1.5,0.4-3,0.7-4.5,1.1
		c-1,0.2-1.6-0.3-1.7-1.3c-0.1-0.8,0-1.1,0.8-1.2C55,28.5,56.8,28.2,58.7,27.8z"/>
	<path class="st1" d="M56,20.9c-0.2,0.2-0.4,0.4-0.6,0.4c-1.5,0.5-3,1-4.5,1.5c-0.5,0.2-0.8,0.1-1.1-0.3c-0.8-1.1-1-1.8,0.9-2.5
		c1.3-0.5,2.7-0.8,4.1-1.1c0.4-0.1,0.7,0,0.8,0.4C55.7,19.8,55.8,20.3,56,20.9z"/>
</g>
</svg>
