<?xml version="1.0" encoding="utf-8"?>
<!-- Generator: Adobe Illustrator 19.1.0, SVG Export Plug-In . SVG Version: 6.00 Build 0)  -->
<svg version="1.1" id="Layer_1" xmlns="http://www.w3.org/2000/svg" xmlns:xlink="http://www.w3.org/1999/xlink" x="0px" y="0px"
	 viewBox="0 0 120 238.4" style="enable-background:new 0 0 120 238.4;" xml:space="preserve">
<style type="text/css">
	.st0{fill:#03A9F4;}
</style>
<g id="lady-phone2">
	<path class="st0" d="M8.6,238.4c0-2.8-0.1-5.6-0.1-8.5c0-2.3,0.1-4.6,0.1-7c0-0.9-0.1-2,0.3-2.7c1.1-2,1.3-4.2,1.6-6.4
		c1.2-6.4,3-12.6,4.7-18.8c0.2-0.8-0.2-0.9-0.7-1.2c-1.4-0.6-2.8-1.2-4-2c-2.2-1.4-3.5-3.7-4.1-6.1c-0.8-3.6-1.5-7.2-1.5-10.9
		c0-3.6-0.3-7.1-0.9-10.5c-0.9-4.5-0.8-9.1-1.1-13.6c-0.4-4.8-0.7-9.6-0.9-14.4c-0.3-5.9-0.6-11.9-0.9-17.8c0-0.4,0-0.8-0.1-1.1
		c-1.9-6.7-0.7-13.1,2-19.1c1.6-3.6,4.4-6.7,6.7-10c0.1-0.2,0.3-0.4,0.5-0.5c3.1-1.3,3.8-4.2,4.8-6.9c2.7-7.1,4.9-14.3,6.4-21.8
		c1.1-5.8,2-11.6,3-17.4c0.5-3.1,1.3-6.1,1.7-9.2c0.7-5.1,1.8-10,3.6-14.9c2.6-6.9,7.1-12.2,13.7-15.5C46.7,0.5,50.3-0.1,54,0
		c1,0,2.1,0.5,3.1,0.9c1.6,0.6,3.3,0.6,5,1c4.3,1,8.4,2.8,11.4,6.3c2.4,2.9,4.9,5.7,7,8.8c2.7,4.3,3.7,9.2,4.4,14.2
		c0.5,4,1,8,1.2,12.1c0.1,2.5-0.3,5-0.4,7.5c-0.2,4-0.4,7.9-0.5,11.9c-0.1,3.5-0.1,7,0,10.5c0.1,2.5,0.6,5,1,7.4
		c0.1,0.5,0.9,1.1,1.4,1.3c1.3,0.6,2.7,0.9,4,1.3c4.9,1.4,9.2,3.9,13.4,6.6c2,1.3,3.2,3.1,4.2,5.3c2.3,4.7,3.9,9.6,4.2,14.8
		c0.1,1.6,0.3,2.3-1.8,2.3c-0.8,0-1.1,0.5-1,1.3c0.2,5,0.3,10,0.3,15c0,1.1,0.5,1.3,1.4,1.2c1.7-0.1,3.4-0.2,5.1-0.2
		c0.9,0,1.7,0,2.2,0.9c0.5,1,0.1,1.7-0.5,2.5c-1.8,2.4-3.6,4.8-5,7.5c-0.6,1.1-0.5,2.7-0.4,4c0.2,2.7,0.6,5.4,0.9,8.1
		c0.2,1.6,0.4,3.1,0.4,4.7c0,1.5,0.1,3.1-0.3,4.5c-1.1,4-1.6,7.9-1.2,12c0.4,4.4-0.9,6.5-5,8.4c-1.4,0.7-2.8,1.5-4.1,2.4
		c-3.5,2.5-4.2,2.7-8.6,1.9c0.2,1.4,0.4,2.8,0.6,4.2c0.3,2.5,0.3,5,0.7,7.5c0.6,3.7,1.5,7.3,2.1,11c0.6,3.4,1,6.8,1.4,10.2
		c0.3,2.3,0.7,4.5,0.8,6.8c0.2,4.1,0.2,8.2,0.2,12.2C70.8,238.4,39.7,238.4,8.6,238.4z M26.3,117.4c0-0.5,0-0.9,0-1.4
		c0-2.8-0.1-5.7-0.1-8.5c0-0.4,0.4-0.8,0.6-1.2c0.3,0.4,0.7,0.7,0.9,1.1c0.2,0.3,0.2,0.6,0.2,1c0.1,1.1,0.1,2.2,0.2,3.3
		c0.1,2.3,0.5,4.6,0.4,6.8c-0.1,4.1-0.2,8.1,0.6,12.1c0.1,0.5,0.1,1,0,1.5c-0.2,3.1-0.4,6.2-0.6,9.2c-0.2,2.5-0.4,5.1-0.6,7.6
		c-0.1,0.9-0.4,1.9-0.3,2.8c0.4,3.7,0.8,7.4,1.3,11.1c0.2,1.6,0.5,1.9,2.1,1.7c0.4,0,0.8-0.1,1.2-0.2c3.2-1,6.5-2,9.6-3.2
		c2.6-1,5-2.3,7.7-3.6c-1.2-0.5-2.2-0.8-3-1.3c-4.7-2.7-8.5-6.4-12.5-10c-0.3-0.2-0.2-0.9-0.2-1.3c0-0.1,0.7-0.3,1-0.2
		c0.7,0.3,1.4,0.6,2,1.1c3.4,2.6,6.6,5.5,10.1,7.8c1.8,1.2,4.2,1.5,6.3,2.2c0.2,0.1,0.5-0.1,0.7-0.2c1.3-0.4,2.7-0.6,4-1.1
		c1.5-0.6,2.9-1.2,4.2-2.1c2.8-1.9,4-5.1,5.6-7.9c1-1.8,1.6-3.9,2.3-5.9c0.9-2.8,2.2-5.2,5.1-6.3c3.4-1.3,6.8-2.6,10.2-3.9
		c0.8-0.3,1.4-0.2,2,0.5c0.6,0.8,1.3,1.6,1.9,2.5c1.5-1,2.8-2.5,4.7-1.4c1.2,0.7,1,1.9,0.8,3.1c1.2,0.3,2.3,0.7,3.4,0.9
		c1.6,0.3,1.8,0.2,1.6-1.4c0-0.4-0.1-0.8-0.1-1.3c0-6.6-0.7-13.1-2.2-19.5c-0.5-2-0.9-4-1.4-6c-0.1-0.6-0.4-1.4,0.5-1.5
		c0.4,0,1.1,0.7,1.3,1.2c0.5,1.8,0.9,3.7,1.3,5.6c0.4,1.6,0.9,3.3,1.3,5c0.4-0.3,0.7-0.4,0.9-0.6c3-2.3,6-4.4,9.8-5.4
		c0.3-0.1,0.7-0.7,0.7-1.1c-0.1-1.2-0.3-2.5-0.5-3.7c-0.6-3.8-2.3-7.2-3.9-10.6c-0.4-0.9-0.9-1.9-1.6-2.5c-3.9-3-8.4-5.2-13-7
		c-1.6-0.6-3.3-1-4.9-1.5c-2.5-0.7-2.7-0.7-2.5,1.9c0.5,5.3-4,10.3-8.8,11.6c-1,0.3-2,0.5-3,0.8c-3.3,1-6.6,0.6-9.9-0.3
		c-0.6-0.2-1.1-0.4-1.7-0.5c-4.8-0.5-9.6-1.2-14.2-2.7c-5-1.6-10-2.9-13.9-6.8c-0.3-0.3-1-0.3-1.5-0.2c-2.1,0.4-4.1,0.9-6.2,1.3
		c-0.9,0.2-1.2,0.5-0.8,1.4c0.8,2.1,1.5,4.2,2.2,6.3c0.1,0.3-0.2,1-0.5,1.1c-0.6,0.3-1.2,0.1-1.3-0.7c-0.1-0.7-0.2-1.4-0.3-2.1
		c-0.3-2.4-3.1-6.2-5.2-6.6c-3.9-0.7-8.2-1.2-11,3.3c-1.8,2.8-3.9,5.3-4.9,8.6c-0.9,3-1.7,6.1-2.5,9.2c-0.1,0.3,0,0.7,0.2,0.9
		c0.2,0.1,0.7,0,0.9-0.1c1.3-1.1,2.8-1.3,4.3-1.5c0.3,0,0.8-0.2,0.9-0.5c0.6-1.4,1.1-3,1.8-4.4c0.5-1.1,1.3-2,2.1-2.9
		c0.3-0.3,1-0.2,1.4-0.3c0,0.4,0,1-0.2,1.3c-0.9,1.7-1.9,3.3-2.9,5c-0.2,0.4-0.4,1.2-0.2,1.5c0.2,0.3,1,0.3,1.5,0.3
		c1.1,0.1,2.3,0,3.3,0.3c2.2,0.7,4,2.2,5.8,3.7C22.7,114.3,24.4,115.8,26.3,117.4z M76.6,133.5c-2.8,0.8-4.1,2.6-4.8,5.2
		c-0.9,3-1.6,6.2-3.7,8.7c-0.6,0.7-1.1,1.5-1.6,2.3c-2.1,3.4-4.9,5.8-8.8,6.9c-2.5,0.6-4.9,1.5-7.2,2.5c-4.1,1.7-8,3.7-12.2,5.3
		c-3.4,1.3-6.9,2.4-10.6,2.2c-0.8,0-1.6-0.2-2.3,0.1c-2.3,0.7-4.5,1.5-6.7,2.5c-1,0.5-1.8,1.6-2.6,2.6c-0.4,0.4-0.3,1.2-0.7,1.6
		c-0.4,0.4-1.1,0.9-1.6,0.8c-0.7-0.1-0.8-0.9-0.4-1.5c1.3-2.3,2.8-4.3,5.4-5.2c2-0.7,4-1.5,6-2.1c1.2-0.3,1.5-0.9,1.4-2.1
		c-0.3-3-0.6-6-0.6-9c0-2.9,0.4-5.9,0.5-8.8c0.1-4.2,0.2-8.3,0.2-12.5c0-0.5,0-1-0.1-1.5c-0.2-2.5-0.4-5-0.6-7.5
		c-0.1-0.7,0-1.5-0.3-2.2c-1-2.6-2.4-5-4.6-6.7c-1.4-1.1-2.6-2.6-4.2-3.4c-3.4-1.7-7.1-1.3-10.6,0c-1.7,0.6-2.7,1.9-2.8,3.7
		c-0.1,1.6-0.2,3.2-0.1,4.8c0.2,6,0.5,11.9,0.8,17.9c0.1,2.3,0.5,4.7,0.6,7c0.3,8,1.2,16,2.1,23.9c0.3,2.2,0.6,4.4,0.6,6.6
		c-0.1,4.6,0.6,9,2.6,13.2c1.1,2.3,5.1,4.6,7.9,3.8c3.8-1.2,7.6-2.5,11.4-4c3.3-1.4,6.5-3,9.7-4.6c3.1-1.6,6.2-3.3,9.1-5.2
		c3.1-2.1,6-4.4,8.9-6.7c1.3-1,2.6-2,3.7-3.2c2.2-2.3,4.6-4.3,7.5-5.7c0.3-0.2,0.6-0.5,1.1-0.8c-0.4-0.1-0.6-0.2-0.7-0.3
		c-1.4-0.5-2.9-1-4.3-1.6c-0.3-0.1-0.3-0.6-0.5-1c0.3,0,0.7-0.2,1-0.1c0.6,0.2,1.1,0.6,1.7,0.7c1.9,0.4,3.8,1.8,5.8,0.5
		c2.4-1.5,4.8-3,6.7-5c1.9-1.9,3.3-4.3,4.7-6.7c1.9-3.1,1.4-3.8-2.2-4.4c-1.2-0.2-2.1,0.1-2.5,1.3c-0.3,0.7-0.6,1.4-0.9,2
		c-0.1,0.2-0.5,0.4-0.7,0.6c-0.2-0.3-0.5-0.6-0.5-0.9c0-0.5,0.3-1,0.4-1.5c-0.3-0.2-0.7-0.4-1-0.5c0.2-0.3,0.4-0.7,0.7-0.9
		c1.4-1.4,3.1-1.7,4.9-1.2c1,0.3,2,0.6,2.9,1.1c1.1,0.5,1.7,0.3,2-0.7c-1.7-3-4.7-3.9-7.7-4.7c-0.6-0.2-1.5,0.3-2.1,0.7
		c-1,0.7-1.8,1.7-2.8,2.5c-0.2,0.2-0.7,0.1-1.1,0.2c0-0.4,0-0.9,0.2-1.1c1.9-1.9,3.7-4.4,6.9-3.3c0.3-0.7,0.6-1.2,0.9-1.7
		c0.1,0,0.2,0,0.3,0c0.1,0.3,0.2,0.7,0.4,1c0.3,0.5,0.6,1.1,1,1.4c1,0.8,2.1,1.4,3.1,2.1c0.5,0.3,0.8,0.8,1.2,1.3
		c0.1,0,0.2-0.1,0.3-0.1c0-1.1,0.1-2.1,0-3.2c-0.1-0.7-0.3-1.5-0.7-2c-1.1-1.3-2.4-2.5-3.6-3.7c-1.1-1-1.8-1-2.9-0.1
		c-1.4,1.2-2.9,2.4-4.3,3.6c-0.3,0.2-0.6,0.4-1.2,0.7C74.5,135.2,75.8,134.6,76.6,133.5z M69.2,14.2c-0.1,0-0.3,0-0.4,0.1
		c0,0.4-0.1,0.9,0,1.3c0.6,3-1.2,7-4.3,8.1c-3.7,1.3-7.3,2.8-11,4c-4.2,1.3-7.1,4.3-9.3,7.8c-2.3,3.7-2.5,8-1.6,12.3
		c0.6,2.9,1.3,5.9,2,8.8c0.9,3.8,1.1,7.6,0.2,11.4c-0.3,1.4-0.5,2.8-0.4,4.2c0.3,4.5-1.8,7.9-4.9,10.8c-1.4,1.3-2.8,2.4-4.6,3.9
		c0.6,0.4,1.1,0.6,1.5,1c2,1.9,4.3,3,6.9,3.7c3.9,1.1,7.8,2.4,11.8,3.4c3.8,0.9,7.8,1.6,11.7,2.1c1.9,0.3,3.8,0.1,5.7-0.1
		c1.2-0.1,2.4-0.5,3.6-0.9c3.7-1,6.3-3.3,7.6-6.9c0.5-1.5,0.4-3.1,0.1-4.8c-0.8,0.2-1.5,0.5-2.1,0.6c-2.5,0.5-4.3-0.7-6.2-2
		c-2.8-2-4.5-4.5-4.9-7.9c-0.1-1-0.2-2-0.4-3.1c-1.4,0.1-2.7,0.3-4,0.4c-2.4,0.2-4.8,0.3-7.2-0.3c-4.3-1.1-8-3.5-11.4-6.3
		c-0.4-0.3-0.4-1.2-0.7-1.8c2.8,1.9,5.3,3.7,7.9,5.3c1.2,0.8,2.6,1.6,4,1.8c2.7,0.3,5.5,0.3,8.2,0.3c3.3,0,5.6-1.3,6.7-4.6
		c0.5-1.5,1.5-2.9,2.3-4.3c2.5-4,3.9-8.5,4.9-13.1c0.9-4.6-0.3-9.1-1.3-13.6c-0.2-0.9-0.8-1.2-1.6-1c-1.9,0.6-3.9,1.2-5.8,2
		c-2.2,0.9-3.1,2.7-2.7,4.9c0.3,1.8,0.7,3.6,1.2,5.3c0.4,1.5,1,3,1.4,4.5c0.3,1.2,0.1,2.4-1,3.3c-1,0.8-2,1.8-3.4,1.1
		c-0.9-0.5-1.7-0.6-2.7-0.4C63.9,55.7,63,55,62.3,54c-0.6-0.9-0.3-1.8,0.3-2.6c0.4-0.6,0.8-1.1,1.2-1.6c0.1-0.1,0.4-0.1,0.7-0.2
		c-0.3,0.9-0.7,1.5-1.2,2.2c-0.9,1.5-0.3,2.6,1.5,2.8c0.2-0.4,0.3-0.9,0.5-1.1c0.7-0.5,2,0,2.5,0.8c0.3,0.4,0.7,0.8,1.1,0.9
		c1.4,0.2,3-1.9,2.6-3.3c-0.3-0.9-0.6-1.8-0.8-2.7c-0.6-2.5-1.3-5.1-1.7-7.6c-0.4-2.8,0.8-4.9,3.3-6.1c2.2-1,4.1-2.8,6.7-2.6
		c0-1.4,0-2.6,0-3.9c0-1.6-0.7-2.7-2.1-3.5c-2.5-1.3-4.1-3.3-4.8-6.1C71.6,17.4,70.5,15.7,69.2,14.2z M98.9,146.7
		c0.2,1.3,0.4,2.7,0.7,3.9c1,3.4,2.2,6.7,3.2,10.1c0.1,0.4-0.1,0.9-0.1,1.4c-0.2,0-0.4,0-0.7,0.1c-2-4.8-2.9-9.9-4.4-15
		c-1,1.6-2.3,2.1-4,1.8c0.2,0.8,0.2,1.6,0.5,2.3c1.3,3.6,2.6,7.2,3.9,10.8c0.1,0.4-0.1,1-0.1,1.4c-0.2,0-0.3,0-0.5,0
		c-0.3-0.4-0.7-0.7-0.8-1.2c-0.5-1.3-1.2-2.3-2.5-2.9c-0.6-0.3-1.1-0.8-1.5-1.3c-1.6-2.1-3.2-4.2-3.8-6.8c-0.2-1-1.3-1.8-2-1.5
		c-1,0.4-0.8,1.3-0.7,2.2c0,0.1,0.1,0.2,0.1,0.4c1.3,4.1,3.3,7.7,6.6,10.6c2.6,2.3,4.9,4.9,7.3,7.4c0.2,0.2,0.1,0.7,0.2,1.1
		c-0.3-0.1-0.8,0-1-0.2c-0.6-0.5-1.2-1.2-1.8-1.7c-0.3-0.3-1-0.6-1.2-0.5c-0.4,0.2-0.8,0.8-1,1.3c-0.2,0.5-0.2,1.1-0.4,1.5
		c-2.2,3.8-1.6,9.8,1.9,12.5c1.3,1,3.8,1.2,5.1,0.2c2-1.5,3.9-3.1,6.3-4c2.6-1,4.5-2.8,4-6c-0.1-0.6-0.1-1.3-0.1-1.9
		c-0.2-3-0.1-6,0.8-8.9c0.6-1.9,1.1-3.9,0.8-6c-0.3-1.6-0.3-3.2-0.5-4.9c-0.3-3.3-0.6-6.5-1-10c-1.9,1.2-3.3,0.7-4.5-0.8
		c0.4,2.1,1.1,4.1,1.3,6.1c0.3,3.1,0.3,6.2,0.4,9.3c0,0.8,0,1.6,0,2.4c0,0.3-0.1,0.6-0.2,0.9c-0.3-0.2-0.7-0.3-0.9-0.6
		c-0.9-2-1.8-4.1-2.5-6.2c-1-2.9-1.9-5.9-2.9-8.8c-0.3-0.8-0.9-1.4-1.5-2.3C101.1,145.7,100.9,146.1,98.9,146.7z M87.8,143.8
		c0-0.1-0.1-0.3-0.1-0.4c-0.2,0.3-0.5,0.7-0.7,1c-1.2,2-2.2,4.1-3.4,6.1c-3,5-7.2,8.6-12.2,11.3c-1.5,0.8-2.8,1.7-3.7,3.1
		c1.1,1.5,6.5,5.4,9,6.5c3.4,1.4,6.2,3.3,8.6,6.1c1.2,1.4,3.8,1.4,5.1-0.1c0.3-0.3,0.3-0.7,0.5-1.1c1-2.6,2-5.2,3.1-7.7
		c0.4-1,0.7-1.8-0.2-2.7c-2.8-3-5.7-5.9-7.3-9.8c-0.6-1.4-1.2-2.8-1.6-4.3c-0.3-0.9,0.8-2.9,1.5-3.1c1-0.4,1.7,0,2.5,0.7
		c0.2,0.2,1.1,0,1.4-0.3c1-1.1,1.8-2.3,2.7-3.4c1.6-2.1,3.3-4.3,5-6.5c-1.4-0.1-2.7-0.2-4-0.3c-1.4-0.2-1.7,0-1.9,1.4
		c-0.1,0.4-0.1,0.8,0,1.1c0.1,1.3-0.5,2.3-1.6,2.7C89.6,144.3,88.7,143.9,87.8,143.8z M71.7,180.9C71.7,180.8,71.7,180.8,71.7,180.9
		c0.8-0.1,1.7,0,2.5-0.1c2.4-0.3,4.8-0.6,7.2-1c0.5-0.1,1-0.5,1.2-0.9c0.1-0.2-0.3-0.9-0.7-1.1c-0.9-0.7-1.8-1.5-2.8-2.1
		c-3.3-2-6.5-3.8-9.8-5.8c-1-0.6-2-1.3-3-2.1c-0.7-0.5-1.2-0.5-1.9,0c-2.4,2.1-4.7,4.2-7.2,6.1c-2.1,1.6-4.5,2.9-6.7,4.4
		c-0.4,0.3-0.7,0.8-1,1.3c0.5,0.4,1,0.8,1.5,1.1c0.3,0.1,0.7,0,1,0c4.5,0,8.9-0.1,13.4-0.1C67.6,180.5,69.7,180.7,71.7,180.9z
		 M109.1,113.4c-0.4,0.1-0.7,0.2-0.9,0.3c-2.1,1.4-4.2,2.8-6.3,4.1c-0.9,0.6-1.1,1.3-1,2.4c0.3,4.3,0.6,8.7,0.8,13
		c0,0.2,0.1,0.3,0.1,0.6c2.8-2.7,2.8-2.6,6.5-3.4c0.4-0.1,0.9-0.6,1.1-1.1c0.2-0.5,0.2-1.1,0.1-1.6c-0.1-4.4-0.2-8.8-0.4-13.1
		C109.2,114.2,109.2,113.8,109.1,113.4z M82.7,131.2c1.5,1.6,3.1,3.1,4.4,4.8c0.5,0.6,0.8,1.6,0.9,2.5c0.2,1.1,0.1,2.2,0.3,3.2
		c0.1,0.5,0.9,0.9,1.3,1.3c0.3-0.5,0.7-1.1,0.9-1.6c0.3-0.9,0.2-1.9,0.6-2.8c0.4-0.9,0.2-1.6-0.3-2.4c-1.3-1.7-2.5-3.5-3.7-5.2
		c-0.6-0.9-1.4-1.1-2.4-0.7C84.2,130.5,83.5,130.9,82.7,131.2z M90.1,133.2c2.6,4.3,2.8,4.4,7.3,4.6c1.8,0.1,2.3-0.3,2.9-1.9
		C96.9,135,93.6,134.1,90.1,133.2z M94.8,148.2c1.1-0.3,2.1-1.3,2-2.3c-0.1-0.8-0.6-1.5-1.6-1.4c-1.1,0.1-2.3,1.2-2,2.3
		C93.4,147.3,94.3,147.7,94.8,148.2z M100.3,143.5c-0.3-0.5,0.5-1.8-1-1.8c-1.1,0-2.2,0.7-2.2,1.5c0,0.8,1.3,2.1,2,2
		C100.1,145.2,100.3,144.5,100.3,143.5z M107.6,150.3c-2,1.5-1.1,3.1-0.8,4.6c0.1,0.5,0.6,0.8,1,1.2c0.1-0.4,0.4-0.9,0.4-1.3
		c0-0.6,0-1.2-0.1-1.9C108,152.1,107.8,151.3,107.6,150.3z M112,141.1c0-0.2,0-0.4,0-0.5c-0.6-0.3-1.3-0.8-1.9-0.9
		c-0.6-0.1-1.4,0.2-1.3,1.1c0.1,0.9,1,1.9,1.7,1.6C111.1,142.2,111.5,141.6,112,141.1z M90.2,132c0.9,0.3,1.5,0.5,2,0.6
		c0.4,0.1,0.9,0.2,1.1,0c0.2-0.2,0.3-0.9,0.1-1.1c-0.3-0.3-0.8-0.6-1.2-0.6C91.7,131.1,91.1,131.5,90.2,132z"/>
	<path class="st0" d="M75,57.5c-1.6,1.9-2.8,3.8-4.4,5.3c-1.7,1.5-3.9,2-6,0.7c-2.3-1.4-4.6-2.8-6.9-4.1c0-0.2,0.1-0.3,0.1-0.5
		c0.5-0.1,1.1-0.2,1.6-0.2c1.9-0.2,3.7-0.5,5.6-0.7c0.8-0.1,1.5,0.2,2.3,0.3c0.4,0.1,0.8,0.1,1.2,0.1c1.2-0.2,2.5-0.5,3.7-0.7
		C73,57.6,73.9,57.6,75,57.5z M72.3,59.4c-3.5,1.8-3.3,2.3-9.4,1.4c-0.4-0.1-0.8,0-1.4,0C66.3,64.6,69.9,64.1,72.3,59.4z M61.1,59.6
		c3.6,0.3,7.4,1.8,10.6-1.2c-1,0-1.9,0.2-2.9,0.4c-0.6,0.1-1.4,0.5-1.9,0.3C64.9,58.1,63.1,59.3,61.1,59.6z"/>
	<path class="st0" d="M56.8,35.9c1.9,0.4,3.8,0.8,5.6,1.2c0.5,0.1,1,0.6,1.4,1c0.2,0.2,0.2,0.7,0.1,0.9c-0.1,0.2-0.7,0.3-0.9,0.2
		c-2.6-1.5-5.5-1.5-8.4-1.3c-0.8,0.1-1.5,0.5-2.2,0.7c-0.5,0.2-1.1,0.6-1.5-0.2c-0.4-0.8,0.2-1.4,0.8-1.5
		C53.4,36.5,55.1,36.2,56.8,35.9z"/>
	<path class="st0" d="M61,42.3c-1.6-1.4-3.6-0.8-5.4-0.9c1.7-1.4,5.9-0.6,7.2,1.3c-1.3,0.7-2.6,1.3-3.9,2c-1.8,0.9-3.5,0.6-5-0.6
		c-0.5-0.3-1-0.6-1.4-1c-0.2-0.2-0.3-0.5-0.4-0.8c0.3-0.1,0.7-0.4,0.9-0.3c0.5,0.1,1,0.4,1.5,0.6c2.1,1,4.3,0.9,6.4-0.1
		C60.8,42.5,60.9,42.4,61,42.3z"/>
	<path class="st0" d="M75.4,38.1c-1.4,0.9-2.8,1.7-4.3,2.7c1.6,1,4.4,0.7,5.6-0.2c0.3-0.2,0.7-0.3,1-0.4c0,0.5,0.1,1-0.1,1.3
		c-1.6,2.4-5,2.6-7,0.6c-0.8-0.8-0.7-1.5,0.3-2.1c1.2-0.7,2.4-1.4,3.7-2.1c0.2-0.1,0.6-0.1,0.9-0.1C75.5,37.9,75.5,38,75.4,38.1z"/>
</g>
</svg>
