<?xml version="1.0" encoding="utf-8"?>
<!-- Generator: Adobe Illustrator 19.1.0, SVG Export Plug-In . SVG Version: 6.00 Build 0)  -->
<svg version="1.1" id="Layer_1" xmlns="http://www.w3.org/2000/svg" xmlns:xlink="http://www.w3.org/1999/xlink" x="0px" y="0px"
	 viewBox="-528.9 207.7 300 387.1" style="enable-background:new -528.9 207.7 300 387.1;" xml:space="preserve">
<style type="text/css">
	.st0{fill:#E91E63;}
</style>
<g id="lady-phone">
	<path class="st0" d="M-528.9,575.8c1-0.2,2-0.5,2.7-0.7c4-2,8.2-2.7,12.2-3.7c3.5-0.7,6.7-2.2,10-3.2c6.5-2,13.2-4.2,20-6.5
		c0-1-0.2-2.7,0-4.2c1-5,4.2-8,8.7-9.7c1-0.5,2-0.7,3-1.2c2.5-1,2.7-1.7,2-4.5c-1-3-2-6-2.7-9c-1.7-6.2-3-12.5-2.5-19
		c0.2-2,0.5-4.2,1.2-6.2c1.5-4,1.2-8,1-12c-0.5-7.7-0.2-15.5-0.2-23.2c0-7.2,0.5-14.5,0-21.7c-0.7-10-2.2-20-3.5-30
		c-0.7-6-1.5-12-1.5-18.2c0-4.2,1-8.2,2-12.5c2.2-10,7.2-18,16.2-23.2c3-1.7,6.2-3,9.5-4.7c4-2.2,8-4.5,12-6.7
		c1.2-0.7,1.5-1.5,0.7-2.7c-1.2-2.2-2.2-4.7-3.2-7c-1.2-2.7-2.7-5.5-4-8.2c-0.5-1.2-1-2.5-1.5-3.7c-2.2-5-4.7-10.2-5.2-16.5
		c0-1.2-1-2.5-1.7-3.7c-1.7-3-1.5-6.2-1.5-9.5c0.2-4.5,0.7-9,1-13.2c0-2-0.5-4-0.2-6c0.7-6,1.7-12,2.7-18c0.7-4.2,1.7-8.5,3-12.5
		c0.7-2.5,1.5-4.7,2.5-7c3.5-7.5,8-14.5,14.2-20.2c2.7-2.5,5.2-5.5,8-7.5c3.7-2.7,8.2-5,12.7-6.2c5.5-1.5,11-3,16.7-4.7
		c4.7-1.2,9.5-1,14.2-0.7c1.2,0,2.7,1.2,4,1.7c4,1.5,8.2,2.5,11.7,5.2c0.5,0.2,0.7,0.5,1.2,0.7c3,2.7,6.2,5.5,9,8.2
		c2,2,3.7,4.2,5.2,6.5c4,5.7,8,11.5,11.7,17.5c3.7,6,7.7,11.7,10.5,18.2c2,4.2,2.5,9,3.2,13.7c1,5.2,1.5,10.7,2,16
		c0.2,2.7,0.5,5.5,0,8c-0.7,4.2,0,8.2,1.2,12.2c1.5,4,2,8.5,4.7,12.2c4.2,5.7,8.5,11.5,15.2,14.5c2.5,1.2,5.5,1.7,8.2,2.7
		c1,0.5,2,1,3.2,1.5c0.2,0.2,0.7,0.2,1.2,0.2c2.7,0,5.2,0,8,0c3,0.2,4.2,2.7,2.5,5.2c-1.2,1.7-2.7,3.2-4.2,4.5c-1,0.7-1,1.7-0.5,2.5
		s1.5,1.2,2.2,1.7c6,3.5,13,5.5,18.2,10.2c1,0.7,2,1.5,2.7,2.5c2.5,3.7,5,7.5,7,11.2c1.7,3.5,3.5,7,4.7,10.7c2.7,8.5,5,17,3.7,26
		c-0.5,2.7-0.5,5.5-0.7,8.2c-0.2,2.2-1.7,3-3.7,2c-0.5-0.2-1-0.2-1.7-0.5c-0.5,2-1,3.7-1.2,5.7c-0.7,4.5-1.5,9-2.5,13.5
		c-0.7,4-1.5,8-2.5,12.2c-2.5,11.2-5.2,22.2-7.5,33.4c-1,4.5-1.2,9.2-2.2,13.7c-0.5,2.2-1.2,4.5-1.7,6.7c-1.7,6-3.5,12-5.2,17.7
		c-1.5,5-0.5,9.5,0.7,14.2c1.2,4.5,3,8.7,4.2,13.2c0.2,1.2,1,2,2.2,2c6.5,0.7,13,1.5,19.5,2.5c3,0.5,6,1.2,8.7,2
		c2.7,0.5,5.5,1,8.2,1.5c0,0.7,0,1.5,0,2.2c-3.5-0.7-6.7-1.2-10.2-2c-2.2-0.5-4.2-1.2-6.5-1.5c-8.2-1.2-16.7-2.2-25-3.2
		c-5.2-0.5-10.5-1-15.5-1.5c-0.7,0-1.5,0.5-2,1c-2.5,2.2-4.7,4.7-7.5,6.7c-4,2.7-8.7,2.7-13.2,2.5c-2.2-0.2-4.2-1.5-5.2-3.5
		c-1.5-3.7-4.2-6.7-7.5-9.2c-0.7-0.7-2-1-3-1.2c-1.2-0.5-2.7-0.7-4-1c-1.7-0.2-3.5-1-5.2-1c-4.7,0-9.7,0-14.5,0
		c-9,0.2-18,0.5-27,0.7c-6.7,0.2-13.7,0-20.5,0.2c-4.5,0-9,0.5-13.5,0.2c-4.2,0-4.2-0.2-4.7,3.5c-0.5,2.7-0.2,2.7,2.5,3.5
		c3.7,1,7.2,2.2,10.7,3.5c1,0.5,2,1.2,2.7,2.2c2,2.2,2,4.5-0.2,6.5c-0.5,0.5-1,1-1.2,1.7c-1,1.7-1.7,3.7-3,5c-3,3.2-6.5,6-9.7,9
		c-1,0-2.2,0-3.2,0c0.7-0.7,1.5-1.7,2.2-2.5c3-2.5,6-5.2,9-7.7c0.7-0.7,1-1.5,1.7-2.2l-0.2-0.2c-2.5,1-5,2.5-7.5,3
		c-7.2,1.7-14.5,4-22.2,2.7c-2.5-0.5-5.2,0.2-7.7,0.2c-4,0-8.2,0-12.2,0c-2,0-4,0.2-5.7,0c-6.7-0.7-13.5-1.5-20-2.2
		c-2.7-0.2-5.5-1-8.5-1.5c4.2,3.5,8.7,7.2,13,10.7c-1.2,0-2.5,0-3.7,0c-2.2-1.7-4.2-4-6.5-5.5c-3.2-2.2-5.7-5-8-8
		c-2.5-3.2-1.2-7.7,2.5-9.2c3-1.2,6.2-2.5,9.2-3.7c0.5-0.2,1-0.5,1.2-0.7c-1.5-3.2-1.2-3.2-4.5-2.5c-0.5,0.2-1,0.2-1.5,0.5
		c-4.5,0.2-8.7,1.5-13,3.2c-4.5,1.7-9.2,3.2-14,4.5c-3.7,1-7.7,1.7-11.5,3.5c-1.2,0.5-2.5,0.7-3.7,1
		C-528.9,577.6-528.9,576.8-528.9,575.8z M-418.1,392.4c1,2.2,2.5,4.2,3.2,6.5c1,2.2,2.5,2.5,4.7,2.5c3.5,0,6.7,0.2,10.2,0.5
		c2.7,0.2,5.5,0.5,8.2,0.7c-2.7-3.7-7.2-7.2-11.7-10c-3.5-2.2-7-2-10.5-1C-415.3,391.9-416.6,392.9-418.1,392.4
		c0.5-1.2,0.7-2.5,1.2-3.7c2.7-6.5,5.5-13.2,7-20.2c0.5-1.7,0.2-2-1.7-1.7c-3.5,0.7-7.2,1.7-10.5,0.7c-5.2-1.5-10.2-4-13.5-8.7
		c-0.5-1-1.2-1-2-0.5c-4.2,3-9,5.2-14,7.2c-5.2,2.2-10.2,5-14.2,9.2c-6.2,7-8.7,15.7-9.5,25c-0.2,2-0.2,3.7-0.2,5.7
		c0.2,4,1,8,1.2,12c0.2,1.2,0.7,2,2,2c1.7,0,3.5,0,5.7,0c-0.2-1.7-0.5-3.7-1.2-5.5c-1-2.5-1-5-1-7.7c0-3,1.2-4.5,4-5.5
		c1.5-0.5,3-1.2,4.7-1.7c-0.7-1.7-1.5-3-2.2-4.5c-3-5,2-11.2,7-10.7c1,0,1.7,0,2.7,0c7.2-0.7,14.2-1.7,21.5-2.5
		c3-0.2,5.7-0.2,7.7,2.5c1,1.5,1.7,3,2.7,4.5C-419.8,389.6-419.1,390.9-418.1,392.4z M-449,424.8c1.5,0.5,3,1.2,4.2,1.2
		c3.2,0,6.7-0.7,10-0.7c5.2-0.2,10.5-0.2,15.7-0.5c3.7-0.2,7.2,1.2,10.7,2.5c1.2,0.5,2.7,0.5,4.2,0.5c0.5,0,1-0.2,1.5-0.5
		c1-0.2,2.7,1,2.5,1.7c-0.2,0.5-1.2,1-1.7,1.2c-2.5,0.2-5,0.5-7.5,0.7c-2.7,0.2-5.7,0.5-8.2,2.2c-1.5,1.2-3.5,1.5-4,2.5
		c-0.5,1.2,0,3,0,4.5c0.2,2.5,1,3.2,3.5,3.5c3.5,0,6.7,0,10.2,0c2.7,0,5.7,0,8.5,0c0.5,0,1.2,0.7,1.7,1.2c-0.7,0.2-1.2,0.7-2,0.7
		c-1.7,0-3.5-0.5-5.5-0.5c-3.7,0-7.7,0.2-11.5,0.5c-1,0-2.2,0.5-2.5,1.2s-0.2,2.2,0.5,3c2,3,4.7,5,8.7,5.2c7.5,0.5,14.5,3,21,6.5
		c2,1,4.5,1.7,6.7,1.7c4,0,8.2,0.5,12-1.5c0.2-0.2,1,0,1.2,0.2c0.2,0.2,0,1-0.2,1.2c-0.7,1.2-1.7,2.2-3.5,2.2
		c-0.5,0-0.7,0.2-1.5,0.5c0.7,1,1.2,1.7,1.7,2.5c1.5,2.2,3,4.5,4,6.7c1.5,3.7,2.5,8,4.2,11.7c3.5,7.7,7,15.2,10.7,23
		c0.7,1.7,1.7,3.2,2.5,5c1,2,1.7,4.2,2.5,6.5c1,2.2,2.2,4.5,3,7c1.5,4.7,4.2,8.5,7.2,12.2c2.2,2.5,4.5,4.7,6.7,7.2
		c3.5,4,7,8,10.5,11.7c3,3.2,6.5,6.2,8.5,10.5c0.5,1,2,2,3,2.2c5,0.5,10-0.2,13.5-4c2.2-2.2,4.2-4.7,6.2-7.2c2.5-3,5.2-5.7,7-9.2
		c2.5-4.7,4.2-9.7,5.7-14.7c1.7-5.5,3-11,4.7-16.7c1.2-4.2,2.7-8.2,3.5-12.5c1-4,1-8,1.7-12c2.2-11,5-21.7,7.5-32.7
		c1-4,1.7-7.7,2.5-11.7c1.2-6.2,2.2-12.2,3.2-18.5c0-0.5-0.2-1.7-0.7-1.7c-1.2-0.5-2.7-1-4-0.7c-4.7,0.5-9.5,0.7-13.7,2
		c-4.5,1.2-9,3.5-13.2,5.7c-4,2-7.7,4.7-12.2,5.5c-0.7,0-1.7,0.7-2,1.5c-1.2,3-3.7,5.5-4.2,9c-0.2,1.5-1,2.7-1.5,4.2
		c-1,3.5-2.2,7-2.7,10.7c-1.2,7-2,14.2-3,21.5c-0.2,2-0.2,4,1.5,5.5c4,3.5,7.7,7.2,11.5,11c5.7,5.5,11,11.7,13.2,19.5
		c0.7,3,1,6,1.5,9c0,0.5-0.5,1-1,1.5c-0.2-0.5-1-1-1-1.5c-0.2-0.5,0-1.2,0-1.7c-0.7-7.7-3.7-14.2-9-20c-3.7-4-7.7-8-11.5-12
		c-4-3.7-8.2-7.2-12-11.2c-4-4-8.2-8-11-13.2c-1-1.7-2-3.5-3.2-5.2c-3.2-5-6.7-10-10-15c-2.5-4-4.7-8-8.2-11.2
		c-2-1.7-3.7-3.7-5.5-5.5c-4.2-4.5-8.2-9-12.5-13.5c-1.7-1.7-4-3-5.7-4.7c-4.5-4.5-9.2-9-13.5-13.7c-1.7-2-4-2.7-6.2-3.2
		c-3.2-0.5-6.7-1-10-1c-9-0.2-18-0.2-27-0.2c-0.7,0-2.2,0.5-2.5,1c-0.5,3-2.2,5-4.2,7.2c4.2,0,8.5,0.2,12.7,0
		c4.7-0.2,9.5-0.7,14.5,0.7c4,1.2,8.5,1.7,12.5,2.5c0.5,0,1,0.7,1.5,1c0.7-0.2,0.2,0.2-0.2,0.2c-4-0.7-7.7-1.2-11.5-2.2
		c-3.2-0.7-6.5-1.7-10-1.5c-6.2,0.5-12.5,0.7-18.7,1.2c-2,0.2-4,0.7-6.2,1c1,2.2,2,4.5,0,6C-444.5,423.1-446.8,423.6-449,424.8z
		 M-298.5,442c2-0.5,3.5-0.7,4.7-1.2c2.5-1.2,5-2.7,7.5-4c4.7-2.7,9.7-5.2,15.5-6.5c4-0.7,8-1.5,12-2c1-0.2,2-0.2,3-0.2
		c2.5,0.5,5,1.2,7.5,2c1.2,0.5,1.5,0,1.5-1.2s0-2.5,0.2-3.7c0.7-5.5,1.5-11,0.2-16.5c-0.7-4.2-2-8.5-3.5-12.7c-1-3-2.5-5.5-3.7-8.5
		c-2-4.5-4-9.2-7.7-12.7c-3-2.5-6.2-4.7-9.5-6.7c-2.2-1.2-5-1.5-7.5-2.7c-3.2-1.5-6.2-3.5-9.5-5.2c-0.2-0.2-1,0-1.5,0.2
		c-0.7,0.5-1.2,1-2,1.5c-0.7,0.5-1.5,0.7-2.2,1c-3,1.2-5.7,2.7-9,3.2c-3.7,1.2-7.7,1.2-11.7,1.5c-1,11.7,0,23.7,1.5,36.2
		c-1.2-0.2-2-0.2-2.7-0.7c-2.2-1.2-4.5-2.5-7-3.7c-6.2-3-12.7-6-19.2-9.2c-1.7-0.7-3.5-1.2-5.2-0.7c-1.7,0.5-3.5,1-5.2,1.5
		c-2.5,0.7-2.7,1.2-3,3.7c-0.2,3.2-0.5,6.5-1.2,9.7c-1.2,5.2-3,10.5-4.2,15.7c-0.5,2.2-0.7,4.5-1,6.7c-0.2,1.7,0.5,3,1.7,4
		c1.7,1.5,3.2,3.2,5,5c0.5,0.7,1,1.5,1.7,2c3.5,4,7.5,7.5,10.7,11.7c3.5,4.7,6.2,9.7,9.5,14.7c2,3,4,6,6.2,9
		c3.7,5,7.7,9.7,11.7,14.7c1.2,1.5,2,1,2.5-0.7c1.2-4,1.5-8.2,1.7-12.5c0.5-9.5,3.7-18.5,7-27.5c1.5-4,3-7.7,4-11.7
		c1-3.7,1.2-7.7,0.5-11.2c-0.5-4-0.2-7.7,0.2-11.7c0.2-1.2,1.2-2.2,1.7-3.2c0.2,0,0.5,0.2,0.7,0.2c0,0.7,0.2,1.5,0,2
		c-1,4.2-0.5,8.5,0,12.7c0.7,4.2,0,8.5-1.2,12.5C-297.8,438.5-298,440-298.5,442z M-406.4,292.8c0,0.2,0,0.5,0,0.7
		c-0.5,0-1.2,0.2-1.7,0c-1-0.2-2-1-3-1.5c-0.7-0.2-1.5-0.5-2.2-0.5c-2.5,0-5,0-7.5,0.2c-2.5,0-5,0-7.5,0.2c-1,0-2,0.5-1.7,1.7
		c1.2,7.5,2.7,14.7,5.2,21.7c1.5,4.2,3.5,8.5,4.7,12.7c2.5,8.2,7.5,14.5,14.7,19c3,1.7,6,3.5,9,5.5c2.7,1.7,5.2,4,8,5.7
		c4.7,3,12.7,3.5,17.5-0.7c3.7-3.2,7.2-6.7,11-10.2c1.5-1.5,3.2-2.7,4.5-4.5c4.2-5,7.2-10.7,10.5-16.2c3.2-5.7,3.5-12,2.2-18.2
		c-1.2-6.2-3.2-12.5-4.5-19c-0.7-3.2-2-6.2-3.5-9.2c-1.2-2.5-1.7-5.2-2.7-7.7c-1.2-3-3-5.7-4.5-8.7c-0.2-0.5-0.5-1-1-1.2
		c-2.5-2-5-4-7.7-6c-5-3.5-9.7-6.7-15-10c-6.2-3.7-12.7-7.7-20.7-5.7c-2.7,0.5-5,1.7-5.7,4.5c-0.2,1.5-1.2,1.7-2.5,1
		c-1-0.5-2-0.7-3-0.7c-3.2,0.5-6.7,0.2-9.2,3c-1.7,1.5-3.7,2.5-5.5,4.2c-2.2,2-3.7,4.5-4,7.7c-0.2,4.7-3.5,8.7-2.2,13.7
		c1,4.5,1.7,9,2.7,13.5c0,0.5,0.7,1,1.2,0.7c2-0.2,4-0.5,6-0.7c4.7-0.5,9.7-1,14,2c0.2,0.2,0.7,0.2,1.2,0.5
		C-408.4,291.5-407.4,292-406.4,292.8z M-422.1,514.7c0,0.5,0,0.7,0,1.2c0.2,2.2,0.7,4.7,0.7,7c0,6.5,0.5,13.2-2,19.5
		c-0.7,2-0.5,2.2,1.5,2.7c4.2,1.2,6.7,4,6.7,8.5c0,0.7,0,1.5,0,2.2c0,1,0.5,1.5,1.5,1.5c1.7,0,3.5,0.2,5,0c3.2-0.2,6.5-0.5,9.7-0.7
		c5.5,0,11.2,0.2,16.7,0.2c8.5-0.2,17.2-0.5,25.7-0.7c5-0.2,10.2-0.2,15.2-0.2c2.2,0,4.5,0.2,6.7,0.2c1.7,0,3.7,0,6,0
		c-1-1.5-1.5-2.5-2.2-3.5c-3.2-3.7-6.7-7-9.7-10.7c-3.2-4.5-6.2-9.2-9-13.7c-1.2-2.2-1.5-2.7-3.7-1.5c-3,1.5-6,1.5-9.2,1.5
		c-0.5,0-1-0.5-1.5-0.7c0.2-0.5,0.5-1.2,1-1.5c1-0.5,2-0.5,3-0.7c1.2-0.2,2.5-0.5,3.5-1c1.2-0.5,2.5-1.2,3.5-2
		c0.5-0.2,1-1.2,0.7-1.7c-0.7-2.2-1.2-4.5-2.2-6.7c-3.2-6.7-6.7-13.5-10.2-20.2c-1-2-2-3.7-2.7-5.7c-1.7-4.2-3-8.5-4.7-12.5
		c-1.2-2.7-3-5-4.7-7.5c-0.5-0.7-1.7-1.2-2.5-1.2c-3.2,0-6.5,0-9.2-1.7c-1-0.5-1.7-1.2-2.7-1.7c-6.5-3.2-13.2-4.7-20.2-6
		c-3.2-0.5-6.5-1.2-8.2-4.5c-0.7-1.7-1.5-3.7-2.5-5.7c-2,1-4.5,1.5-6.2,2.7c-1.5,1.2-3.2,3-3,5.2c0.2,2.5,0.5,4.7,0.7,7.2
		c0.5,3.7,1,7.2,1.7,11c1,6.2,2.5,12.5,3.2,18.7c0.7,6,1.2,11.7,3.2,17.2c0.5,1.5,1.5,3,2.7,3.7c3.5,2.2,7.2,4.2,11,6.2
		c1.7,1,3.7,1.5,5.7,2.2c1.5,0.5,3.2,0.7,5,1.5c0.5,0.2,0.7,1.2,1.2,1.7c-0.5,0.2-1.2,0.7-1.7,0.7c-1.7-0.2-3.2-0.7-5-0.7
		c-2.2-0.2-4-1-6-2c-4-2.2-8.5-4.2-11.7-7.7C-421.3,514.9-421.6,514.9-422.1,514.7z M-434.1,457c-1,1-1.7,1.7-2.7,2.5
		c-0.2,0.2-1,0.5-1.2,0.2s-0.5-1-0.2-1.5c0.2-0.7,1-1.5,1.5-2c0.7-0.7,1.5-1.5,2.2-2.5c1.7-2.2,3.7-4.5,5.5-6.7
		c0.5-0.5,1.2-1,2.2-1.2c3.7-1,3.7-1,3.2-5c0,0,0,0,0-0.2c-0.2-2.7-1-3-3.5-2c-3.5,1.2-6.7,2.5-10.2,3.7c-2.7,1-5.5,1.5-8.5,2.2
		c-0.5,0.2-1.2,0-2,0c0.2-0.7,0.5-1.5,1-1.7c4.5-3,9-6,14.2-7.2c2-0.5,4-1,5.7-1.5c3-1,6.2-2.5,9.2-3.5c1.7-0.7,3.7-1,5.7-1.5
		c0-0.2,0-0.5,0-0.5c-1.7-0.5-3.5-1.5-5.2-1.5c-6.5,0-13,0.2-19.7,0.5c-2.7,0.2-5.5,0.2-8,1.2c-3.2,1.2-6.5,3-9.5,4.7
		c-1,0.5-1.7,1-2.7-0.2c2.2-3,5.5-4.2,9.5-5.5c-4.5-2-6.2-5.2-5-10c-4.7,1.2-8.2,3.5-11.7,6.5c-2,1.7-2.5,3.7-0.7,6.2
		c1.7,2.7,2.7,5.7,3,9.2c0,1,1,2.2,1.5,3.2c0.7,1.5,1.5,3,2.2,4.5c0.5,1,0.7,2.2,1.5,3c1.7,2.2,3.7,4.2,5.5,6.5
		c0.2,0.5,0.5,1.2,0.2,1.7c-0.7,1-2.5,0.2-3.2-0.7c-1.5-2.2-3-4.2-4.5-6.2c-0.2,0-0.5,0.2-0.5,0.2c-0.2,1.2-0.5,2.5-0.7,3.7
		c-0.5,4.2-0.5,8.5-1.2,12.7c-0.5,3-1.2,6.2-0.5,9.2c0,0.5,0,1-0.2,1.5c-1.7,6-3.5,11.7-5.2,17.7c-1,3.5-1.7,7-3.2,10.5
		c-2,4.5-3,9.2-2.2,14c1,7.2,3,14.5,5.5,21.5c0.5,1.7,1.5,2.2,3.2,1.7c2.2-0.7,4.7-1,7.2-1.2c5-0.2,10.2-0.5,15.2-0.5
		c4.5,0,9,0.5,13.5,0.5c0.5,0,1.5-0.5,1.5-1c0.7-3.2,1.5-6.5,2-9.7c0.5-2.5,0.7-5.2,0.5-7.7c-0.7-7-1.7-14-2.5-21
		c-1.2-8.5-2.5-17.2-3.7-25.7C-431.8,471-432.8,464.3-434.1,457z M-364.2,426.1c0.2-0.7,0.2-1.2,0.2-1.5c0.7-4,1-8,2.2-11.7
		c2-6.2,4.5-12.5,4.2-19.2c0-2,0.2-4.2,2.2-6c1-0.7,1.7-2,2.5-3c1.2-1.7,2.5-3.5,3.7-5.2c3.5-4.7,6.2-9.5,6.5-15.7
		c0-4.2,1.2-8.5,2-13c0-0.7,0.5-1.5,0.5-2c0.2-2.2,1.2-4.5,0.7-6.7c-0.7-4.2-2-8.5-3.2-12.7c0-0.2-0.5-1-0.7-0.7
		c-0.5,0-0.7,0.5-1,0.7c-0.5,1-0.7,2-1.2,2.7c-3.7,6-7.5,12.2-13,17c-4,3.5-7.7,7.5-12,11c-1.7,1.5-4.2,2.5-6.5,2.7
		c-5.7,1-10.7-0.5-15.2-4c-0.7-0.7-1.7-1.2-2.5-2c-0.2,0-0.2,0.2-0.5,0.2c0.2,1.7,0.5,3.2,0.7,5c1,5,2,9.7,1,14.7
		c-0.7,3.7,0,7.5,1.2,11c1.5,4,3,8,4.2,12.2c1.2,4.2,3.2,7.7,6.7,10.7c2.5,2,4.2,4.7,6.7,7c3,2.7,6,5.5,9,8
		C-365.2,425.6-364.7,425.8-364.2,426.1z M-417.1,553.1c-1.2,0.5-1.7,1-2.2,1c-4.7,1.2-9.2,3-14,3.7c-6,0.7-12,0.7-18.2,0.7
		c-8.5,0-17,0-25-4.7c0,1-0.2,1.7-0.2,2.2c0.2,3.7,0.5,7.7,1,11.5c0,1.2,0,3,0.5,4c2.2,4,4.7,7.7,7.2,11.5c0.2,0.5,0.7,1,1,1.5
		c0.5,0.5,1,1,1.5,1c4,0.2,8,0.5,12,0.5c7.2,0,14.5,0,21.7,0c1.5,0,2.5,0,3.5-1.5c1-1.5,2.5-2.7,3.7-4.2c1.7-2.2,3.5-4.2,4.7-6.7
		c2-4.2,2.7-9,3-13.5C-417.1,557.9-417.1,555.9-417.1,553.1z M-336.7,346.7c-0.5,1-0.7,1.5-0.7,2.2c-0.7,3.5-1.5,7-2,10.7
		c-1,5-1.7,10.2-2.5,15.2c-0.5,3.2-1,6.5-1,9.7c0,0.7,0.5,2,1,2.5c3,1.7,6,3.2,9.2,4.7c5.2,2.5,10.7,4.7,16,7.2
		c0.2,0.2,0.7,0,1.2,0.2c0-0.7,0-1.2,0-1.7c-0.2-3.2-0.5-6.7-0.7-10c-0.2-6.2-0.2-12.2-0.5-18.5c0-3-0.2-3-3.2-4
		c-0.2,0-0.7-0.2-1-0.5c-3.5-3.5-7-6.7-10.2-10.5C-333.2,351.9-334.7,349.4-336.7,346.7z M-476.2,550.4c0,0.2,0,0.5,0,0.7
		c0.7,0.5,1.2,1.5,2,1.7c2.2,1,4.5,2,6.7,2.5c10,1.7,19.7,1.2,29.7,1c5-0.2,9.5-1.5,14-2.7c1.5-0.5,2.7-1,4-1.7c1.7-1,1.7-2,0.2-3
		c-1.2-0.7-2.7-1.2-4.2-1.7c-1.2-0.5-2.7-0.7-4-1c-1.7-0.5-3.2-1.2-5-1.2c-5-0.2-9.7,0-14.7,0c-7,0-14,0.5-21,2.5
		C-471,548.1-473.5,549.4-476.2,550.4z M-470.2,497.7c0.2,0,0.2,0,0.5,0c0.2-0.5,0.5-1,0.5-1.5c1-4,2-7.7,3.2-11.7
		c0.5-1.5,1.2-3,1.5-4.7c0.7-4.5,1.2-9.2,1.7-13.7c0.7-5.5,1.5-11.2,2-16.7c0.2-1.5-0.2-3.2-1-4.5c-1.2-2.2-2-4.2-2.7-6.7
		c-0.5-2.5-1.5-5.2-2.5-7.5c-1-2.2-1-4.2,0-6.2c0.2-0.5,0.5-1.2,1-2.2c-2.5-0.2-4.5-0.5-6.7-0.7c-0.2,0-1,0.7-1,1.2
		c-0.2,0.5,0,1.2,0,1.7c1,8,2.5,15.7,3,23.7c0.5,8.5,0,16.7,0,25.2c0,6-0.2,12-0.2,18C-471,493.7-470.5,495.7-470.2,497.7z
		 M-390.6,399.1c0-0.2,0-0.7-0.2-1c-1.2-3.7-2.5-7.5-4.2-11c-1.2-3-1.5-6-1.2-9c0.2-4.2,0.7-8.5-0.5-12.7c-0.7-2.7-0.7-6-1-8.7
		c0-2.2-2-4.2-4.5-4.5c-2.5,0-1.7,2.2-2.5,3.5c0,0,0,0,0,0.2c-1.5,8.7-3.5,17.5-6.7,25.7c-1,2.5-2,5-3,7.7c1-0.2,1.7-0.2,2.2-0.5
		c2.2-1,4.2-0.2,6.2,0.5c1.5,0.5,3,1.5,4.5,2.2c2.2,1.5,4.5,3,6.7,4.5C-393.1,396.9-391.9,398.1-390.6,399.1z M-343.5,281.3
		c0.2,0,0.5,0,0.7,0c0.2,0.7,1,1.5,1,2.2c0,1.5-0.5,3-0.7,4.5c0,0.5,0.2,1,0.2,1.5c0.5-0.2,1.2-0.2,1.2-0.5c0.5-0.7,1.2-1.7,1.2-2.7
		c0.7-3.2,1.2-6.7,1.5-10c0.2-1-0.2-2.2-0.5-3.2c-0.2-1.2-1-1.5-2.2-1c-4.2,1.5-6.5,5.7-6,11.2c0.5,5,1.5,9.7,3,14.2
		c0.7,2,2.2,2.7,4,1.2c0.5-0.5,1-1,1.5-1.7c1-1.5,2.2-3,2.7-4.7c0.7-2,1.5-4,2-6.2c0.7-4.5,0.2-9.2-0.5-13.7
		c-0.5-2.7-0.7-5.5-1.7-8.2c-0.5-2-1.7-2-3-0.5c-1,1.2-1.7,2.5-2.5,3.7c-0.7,1.5-0.5,2.2,1.2,2.2c1.5,0,2.7,0.7,3,2
		c0.2,2,0,4.2-0.2,6.5c-0.2,1.5-0.2,3.2-0.7,4.7c-0.5,2.2-1.2,4.5-2.2,6.7c-0.5,1.2-1.7,1.7-3,1c-1-0.7-1.7-1.7-1-3.2
		c0.7-1.7,1-3.2,0.2-5C-343.7,282.1-343.5,281.6-343.5,281.3z M-443,400.1c-2.7,0.2-5.2,0.7-8,0.5c-4.2-0.2-8.2,1-12.2,2
		c-2.2,0.5-3.2,2-3.2,4.2c0,4.5,1.7,8.2,3,12.5c0,0,0.2,0,0.5,0.2c0.2,0,0.7-0.2,1-0.5c1.2-1.2,2.5-2.5,3.7-3.7
		c2.7-2.7,5.5-5,9.7-4.2c0.7,0,1.2,0,2-0.2c2.5-0.2,5-0.2,7.5-0.5c0.5,0,1.2-0.2,1.7-0.5c-2.7-1-6.2,0.5-7.5-3.2
		C-445.3,404.6-445.3,402.1-443,400.1z M-426.8,586.1c1,0,1.5,0,2,0c7.7-0.7,15-3.2,21.7-6.7c1.2-0.5,2.7-2.2,2.7-3.2
		c0-1-1.7-2.5-3-3c-3.5-1.2-7-2.2-10.5-3.2c-2.2-0.7-2.5-0.5-3.2,1.7c-1,2.7-2,5.5-4,7.7C-422.8,581.3-424.6,583.6-426.8,586.1z
		 M-469.5,585.1c0-0.5-0.2-0.5-0.2-0.7c-2.7-4.2-5.2-8.7-8-13c-0.2-0.5-1.5-1-2-1c-3.7,1.2-7.5,2.5-11,4.2c-2.2,1-2.7,3.7-0.5,5
		c2.2,1.5,4.7,2.7,7.2,3.2c4,1,8.2,1.2,12.2,2C-471.2,585.1-470.5,585.1-469.5,585.1z M-286.6,561.6c0.2,0.2,0.2,0.2,0.5,0.5
		c4.5,0.5,8.7,1,13.2,1.5c2.2,0.2,2.7-0.2,1.7-2.5c-1.2-3-2.2-6-3.5-9c-0.7-2-1.2-3.7-2-5.7c-0.2,0-0.2,0-0.5,0
		C-278.1,552.9-282.1,557.4-286.6,561.6z M-448,389.4v0.2c2.5-0.2,4.7-0.5,7.2-0.7c2.5-0.2,5-0.5,7.2-1.2c1.2-0.2,2.5-1.2,3-2.2
		c1-1.5,0.5-2.2-1.2-2.2c-1.7,0-3.2,0.2-5,0.5c-4.7,0.5-9.2,1.2-14,1.7c-2,0.2-3.7,0.2-5.7,0.2c-1.7,0-2.7,1-2.7,2.2
		c0,1.5,1.2,2.2,3,2.2C-453.5,389.9-450.8,389.6-448,389.4z M-439,407.9L-439,407.9c0.7,0,1.5,0,2.2,0c1.5,0,2-0.7,2-2
		c0.2-1.2-1.7-4.5-2.7-5c-2-0.7-5,0.2-5.7,2.2c-1,2.5-0.7,4.7,2.5,5C-440,407.9-439.5,407.9-439,407.9z M-416.1,400.6
		c-2.7-4.7-5.2-9.5-8-14.2c-1.2,2-1.5,3.7-0.5,5.5c1.5,2.2,2.5,4.7,3.7,7.2C-419.3,401.4-418.6,401.6-416.1,400.6z M-444.5,415.6
		c-2.5,0.2-4.5,0.7-6,2.7c-1,1.2-1,2.7-0.2,4c0.2,0.5,1.5,0.2,2.2,0.2c0.7,0,1.5-0.2,2.2-0.5c2.5-1,3-2,2.2-4.5
		C-444.3,416.8-444.3,416.3-444.5,415.6z M-478.7,552.9c-4,2.7-4.5,8.7,0,13.2C-478.7,561.8-478.7,557.4-478.7,552.9z M-347.2,380.6
		c-1.5,2.5-3.2,5-5,7.7C-346.7,386.6-346.7,387.6-347.2,380.6z M-435.6,438.5c0,0.2,0,0.2,0.2,0.5c2.5-0.7,5-1.7,7.7-2.5
		c0-0.2,0-0.2-0.2-0.5C-430.3,436.8-433.1,437.6-435.6,438.5z"/>
	<path class="st0" d="M-386.4,346.2c-4.5,0.5-7.5-2-10.5-5c-2.5-2.5-4.7-5-7.2-7.7c-1.2-1.5-1-2.2,0.7-2.7c2.2-0.7,4.2-1.5,6.5-2.2
		c1.7-0.7,3.2-1,5-0.2c0.7,0.2,1.7,0.2,2.5-0.2c5.2-3,11-4.7,17.2-5.5c1.7-0.2,3.2-0.7,5-1c1-0.2,1.5,0.2,1.2,1.2
		c-1.7,5.2-3.7,10.7-5.7,15.7c-1.5,3.5-4.2,5.5-7.7,6.5C-381.9,345.7-384.1,346.7-386.4,346.2z M-369.4,324.7
		c-9.2,5-18.5,8.5-28.7,8.7c1.7,1.7,3.2,3.7,5.2,4.2c6.7,2.2,12,2,17.5-3.5c1-1,1.5-2.5,2.7-3.2
		C-370.9,329.2-370.2,327.2-369.4,324.7z M-370.7,331.7c-1,1-2.5,2-3.5,3.2c-5.7,6.5-17.5,7.5-23.2,1.7c-1-1.2-2.7-1.7-4-2.7
		c0,0.2-0.2,0.2-0.2,0.5c1.7,1.7,3.5,3.5,5,5.2c3,3.7,6.7,6,11.7,5.5c4-0.5,8-1.5,10.7-5C-372.4,337.5-370.9,334.5-370.7,331.7z
		 M-399.9,331.2c10.2,1,19.7-2,28.5-7.2c-6,0-11.5,2-16.5,5c-1.7,1-3,1-4.7,0.5c-0.7-0.2-1.5-0.2-2,0
		C-396.6,329.7-398.1,330.5-399.9,331.2z"/>
	<path class="st0" d="M-417.1,304c-2.5-0.7-5-1.5-7.5-2.2c-1.5-0.5-1-2-0.7-3c0-0.5,0.5-1,0.7-1.2c4-2.7,8.5-4.2,13.2-3
		c2,0.5,4,1.5,5.7,2.5c1.7,1,1.5,2.2-0.2,3.2c-3.5,2-7,3.5-11.2,3.2C-417.1,303.8-417.1,304-417.1,304z M-416.3,301.5
		c-0.2-1.5-0.5-2.7-0.5-4c0-0.2-0.5-1-0.5-1c-2,1-4.2,1.2-6,3.5C-421.1,301.5-418.6,301.3-416.3,301.5z M-410.3,300.8
		c1.2-0.7,2.2-1.5,4-2.5c-1.5-0.7-2.7-1.5-4-2.2C-410.3,298-410.3,299-410.3,300.8z"/>
	<path class="st0" d="M-371.7,282.6c1,0.2,2.2,0.2,3.2,0.5c1.7,0.5,2.2,1.2,0.7,2.7c-3.7,3.7-8.2,6.2-13.5,7.2
		c-1.5,0.2-3.2,0.7-4.7,1c-0.5,0-1.5,0.2-1.7-0.2c-0.2-0.2-0.2-1.2,0-1.7C-384.9,286.6-377.9,282.3-371.7,282.6z M-386.4,291.8
		c0.2,0.2,0.2,0.2,0.5,0.5c2.2-0.5,4.5-1,6.7-1.5c-0.7-1.5-1.5-2.5-2.2-4.2C-383.1,288.5-384.9,290.3-386.4,291.8z M-368.4,284.6
		c0-0.2-0.2-0.5-0.2-0.7c-2.2-0.5-4.5,0.2-7.2,0.5c1.5,1.5,3.2,2,2.5,4.2c0.2,0,0.2,0.2,0.5,0.2
		C-371.7,287.6-369.9,286.1-368.4,284.6z"/>
	<path class="st0" d="M-373.2,274.1c0.7,0,1.7,0,2.2,0.2c0.5,0.2,1,1,1.2,1.5c-0.5,0.5-1,1-1.5,1.2c-1,0.2-2,0.2-3,0.2
		c-3.5-0.2-6.5,0.7-9.2,2.7c-2.2,1.7-4.7,3.2-7,5c-1,0.7-1.7,1-2.5,0.2c-0.5-0.5,0-1.5,0-2.5c0-0.2,0.2-0.2,0.2-0.5
		C-388.4,277.6-379.1,273.6-373.2,274.1z"/>
	<path class="st0" d="M-402.4,313.3c0,0.5,0.2,1,0.2,1.5c0,1.5,0,3,0,4.2c0,3,0,2.7,2.7,3.2c1.2,0.2,2.5,1,3.7,1.5
		c3,1,3.7,0.5,5.7-1.7c1.5-1.7,3.5-3.2,5.5-4.5c2-1.5,2.2-2.7,1-4.7c-0.5-0.7-1-1.5-1-2.5c2,1,3,2.7,3.2,4.7c0,1.7-1.2,2.5-2.5,3.2
		c-2.5,1.5-4.7,3.2-6.2,5.7c-0.2,0.7-1.2,1.2-2,1.2c-1.2,0.2-2.7,0-4-0.2c-2-0.5-3.7-1.2-5.7-1.7c-1.5-0.5-2.2-1.2-2-3
		c0.2-1.7,0-3.2,0-5c0-0.7,0.2-1.7,0.2-2.5C-402.9,313.3-402.6,313.3-402.4,313.3z"/>
</g>
</svg>
