<?xml version="1.0" encoding="utf-8"?>
<!-- Generator: Adobe Illustrator 19.1.0, SVG Export Plug-In . SVG Version: 6.00 Build 0)  -->
<svg version="1.1" id="Layer_1" xmlns="http://www.w3.org/2000/svg" xmlns:xlink="http://www.w3.org/1999/xlink" x="0px" y="0px"
	 viewBox="0 0 103.3 103.4" style="enable-background:new 0 0 103.3 103.4;" xml:space="preserve">
<style type="text/css">
	.st0{fill:#FF5722;}
</style>
<g id="lens-circle">
	<path class="st0" d="M53.4,95.7c0,2.6,0,5.1,0,7.6c-1.2,0-2.2,0-3.5,0c0-2.6,0-5.1,0-7.7c-23.4-2-40.2-18.5-42.3-42.2
		c-2.5,0-5,0-7.6,0c0-1.2,0-2.2,0-3.5c2.5,0,5,0,7.7,0c0.8-11.4,4.9-21.3,13-29.3c8-8,17.8-12.1,29.2-12.9c0-2.6,0-5.1,0-7.8
		c1.2,0,2.3,0,3.5,0c0,2.6,0,5.1,0,7.6C79.8,10,94.3,29.6,95.6,49.8c2.5,0,5.1,0,7.7,0c0,1.3,0,2.3,0,3.6c-2.1,0-4.3,0.1-6.5,0
		c-1.2,0-1.6,0.4-1.6,1.5c0,6.7-2.2,12.8-5.4,18.4c-6.4,11-16,18.1-28.4,21.1C58.8,95,56.2,95.3,53.4,95.7z M77.6,49.9
		c-0.2-13.8-13.7-24.7-24.2-24c0,3.1,0,6.3,0,9.4c-1.2,0-2.3,0-3.5,0c0-3.3,0-6.4,0-9.6C35.5,25.9,25.4,40,25.6,49.9
		c3.2,0,6.4,0,9.7,0c0,1.3,0,2.4,0,3.6c-3.4,0-6.6,0-9.8,0c0.9,12.3,11.5,24.1,24.4,24c0-2.6,0.1-5.1,0-7.7c-0.1-1.5,0.5-2,1.9-1.8
		c0.5,0,1,0,1.7,0c0,3.4,0,6.5,0,9.6c13.4-0.2,24.4-13.2,24-24.1c-3.1,0-6.3,0-9.5,0c0-1.3,0-2.3,0-3.5
		C71.2,49.9,74.3,49.9,77.6,49.9z M21.8,49.9c0.8-7.6,3.6-14.1,8.9-19.4c5.3-5.3,11.8-8,19.1-8.7c0-3.5,0-6.7,0-10
		C27.9,11.7,11,32.6,11.9,49.9C15.1,49.9,18.3,49.9,21.8,49.9z M49.8,81.7C33.5,79.3,24,69.9,21.6,53.5c-3.4,0-6.6,0-9.8,0
		c-0.4,21.3,20.3,39,38,37.9C49.8,88.2,49.8,85,49.8,81.7z M53.5,91.8c11.6-0.6,21-5.3,28.6-13.7c6.1-6.8,9-15,9.9-24.2
		c-3.6,0-7,0-10.4,0c-2.3,16.5-12.1,25.4-28.1,27.9C53.5,85,53.5,88.2,53.5,91.8z M91.5,49.5c-0.1-20.6-19.6-38.4-38-37.6
		c0,3.3,0,6.5,0,9.8c16.3,2.4,25.6,11.7,28.1,27.8C85,49.5,88.2,49.5,91.5,49.5z"/>
</g>
</svg>
