<?xml version="1.0" encoding="utf-8"?>
<!-- Generator: Adobe Illustrator 19.1.0, SVG Export Plug-In . SVG Version: 6.00 Build 0)  -->
<svg version="1.1" id="Layer_1" xmlns="http://www.w3.org/2000/svg" xmlns:xlink="http://www.w3.org/1999/xlink" x="0px" y="0px"
	 viewBox="0 0 199.6 200" style="enable-background:new 0 0 199.6 200;" xml:space="preserve">
<style type="text/css">
	.st0{fill:#448AFF;}
</style>
<g id="marker">
	<path class="st0" d="M99.8,152.2c-0.8-1.7-1.6-3.3-2.3-5c-1.2-3-2.3-6.1-3.6-9.1c-1.2-2.9-2.7-5.8-4-8.7c-2-4.6-4-9.2-6.1-13.8
		c-1.9-4.3-4-8.5-5.9-12.8c-3-6.6-6-13.3-9.1-20c-2.5-5.5-5.1-11.1-7.5-16.6c-1.6-3.5-3.4-6.9-4.5-10.6c-1.5-5-2.6-10.2-1.2-15.6
		c0.5-2,0.2-4.2,0.9-6.1c1.3-3.8,2.8-7.7,4.6-11.3c1.4-2.8,3.4-5.4,5.4-7.9c1-1.3,2.3-2.3,3.6-3.3c3.3-2.4,6.6-5,10.2-6.9
		c2.7-1.5,5.9-2.1,8.8-3.1c4.2-1.4,8.5-1.6,12.8-1.3c3.2,0.2,6.4,0.8,9.6,1.4c3.5,0.6,6.8,2,9.7,3.9c3.2,2.2,6.2,4.5,9.2,7
		c5.5,4.7,8.7,11.1,11.4,17.7c2.7,6.7,2.9,13.8,2,21c-0.8,6.9-3.9,12.9-6.8,19c-3.8,8-7.4,16.1-11.1,24.2
		c-4.9,10.8-9.9,21.6-14.8,32.4c-3.2,7-6.2,14.1-9.3,21.1c-0.6,1.4-1,2.9-1.5,4.4C100.3,152.2,100.1,152.2,99.8,152.2z M101.5,81.2
		c4.2,0.2,8.2-0.5,12-2.3c1.2-0.5,2.3-1.2,3.5-1.7c6.6-2.7,11.4-7.7,15.3-13.4c2.6-3.9,4.5-8.4,4.7-13.1c0.2-5.1,0.1-10.3-0.6-15.4
		c-0.7-4.9-2.8-9.5-6.1-13.3c-5.5-6.6-12.1-11.6-20.5-13.8c-1.3-0.3-2.5-0.7-3.8-0.7c-3.2-0.1-6.3-0.1-9.5,0
		c-2.2,0.1-4.6,0.1-6.6,0.9c-6.4,2.6-12.9,5.3-17.3,11c-0.9,1.1-2.1,2-3,3.1c-3.9,5.2-6,11.3-6.8,17.6c-0.7,5.3,0,10.6,1.6,15.7
		c1.9,5.9,5,11.1,9.8,15.1c0.6,0.5,1.1,1,1.5,1.5c3.8,4.6,9.1,6.5,14.6,7.9C94,81.1,97.8,80.9,101.5,81.2z"/>
</g>
<g>
	<path d="M78,132.2c-0.6,0.2-1.3,0.7-1.8,0.6c-3.8-0.8-6.2,1.4-8.8,3.8c-14.2,12.7-28.6,25.3-42.9,37.9c-0.7,0.6-1.5,1.2-2.3,1.8
		c0.1,0.2,0.2,0.5,0.3,0.7c51.5,0,102.9,0,155,0c-1.8-1.8-3.3-3.5-4.9-5c-13.6-12.1-27.4-24-40.8-36.3c-3.1-2.8-6-4.2-10.8-3
		c3-2.4,8.7-2,11.6,0.3c9.1,7.1,18.1,14.3,27.1,21.3c6,4.6,12.1,9,18,13.6c6.5,5,12.9,10.2,19.3,15.3c1.8,1.4,3.3,3.3,2.2,5.4
		c-0.9,1.6-2.8,2.9-4.5,3.5c-1.9,0.7-4.2,0.7-6.3,0.7c-52.9,0-105.9,0-158.8,0c-6.9,0-13.8,0.2-20.7-0.2c-2.5-0.1-5.1-1.4-7.4-2.5
		c-1.5-0.7-1.9-2.5-0.8-4c1-1.4,1.8-3.1,3.1-4.1c17.5-13.6,35-27.1,52.5-40.6c3.7-2.9,7.6-5.7,11.2-8.7c3.3-2.7,6.8-1.5,10.3-1.4
		C77.9,131.7,77.9,132,78,132.2z M99.5,187.7c6.7,0,13.4-0.1,20.1,0c2,0,3.8-0.6,3.9-2.5c0.1-1.9-1.7-2.8-3.7-2.8
		c-13.4,0-26.8,0-40.2,0c-2,0-3.7,0.6-3.7,2.7c0.1,2,1.7,2.7,3.8,2.6C86.3,187.7,92.9,187.7,99.5,187.7z"/>
	<path d="M0.2,193c3.4,0.8,6.8,2,10.3,2.2c4.9,0.3,9.8-0.3,14.8-0.4c2.6,0,5.2,0.3,7.8,0.3c32.8,0,65.6,0,98.4,0
		c17.2,0,34.4,0,51.6-0.1c3.3,0,6.6,0,9.9-0.3c2.1-0.2,4.1-1.2,6.2-1.8c0.5,3.6-2.4,6.7-7.3,7.1c-1.1,0.1-2.1,0-3.2,0
		c-51.6,0-103.1,0-154.7,0c-8.6,0-17.3,0.1-25.9-0.1C2.8,199.8-0.1,196.9,0.2,193z"/>
</g>
</svg>
