<?xml version="1.0" encoding="utf-8"?>
<!-- Generator: Adobe Illustrator 19.1.0, SVG Export Plug-In . SVG Version: 6.00 Build 0)  -->
<svg version="1.1" id="Layer_1" xmlns="http://www.w3.org/2000/svg" xmlns:xlink="http://www.w3.org/1999/xlink" x="0px" y="0px"
	 viewBox="-499.3 283.7 300 234" style="enable-background:new -499.3 283.7 300 234;" xml:space="preserve">
<style type="text/css">
	.st0{fill:#03A9F4;}
</style>
<g id="pharm-talking">
	<path class="st0" d="M-271.6,445.6c2.4,0.2,4.2,1.4,4.6,3.6c0.4,1.6-0.2,3.4-2,4.4c-2.4,1.4-4.2,0.2-6.2-2
		c-0.4,1.4-0.6,2.4-0.8,3.4c-0.2,2-0.4,3.8-0.6,5.8c0,1.2,0,2.4,0,3.6c-0.6,8.4-1.2,16.8-1.6,25.2c-0.4,8.8-0.8,17.6-1.2,26.5
		c0,0.4,0,0.6,0,1c-0.6,0-1,0-1.8,0c0.2-4.4,0.4-8.8,0.6-13c0.2-5.4,0.4-11,0.8-16.4c0.4-6.4,1-12.8,1.6-19.2c0.2-1.4,0-3,0-4.4
		c0-6.8,0.4-13.4,4.4-19.2c0.6-1,0.6-2.2,1-3.4c0.2-1.2,0.4-2.4,0.8-3.4c1.2-2.4,0.8-4.4-0.2-6.6c-1.6-3.4-3-7-4.8-10.2
		c-2-3.6-4.4-6.8-6.6-10.2c-0.8-1-1.4-2.2-2.4-3c-1.4-1.6-2.8-3.2-4.2-4.6c-0.4-0.4-1-0.8-1.4-1.4c-0.8-1-0.8-1.8,0.2-2.8
		c1.6-1.4,3-2.6,4.8-4.2c-0.8-0.2-1.4-0.4-2-0.4c-2.4,0-4.6,0-7,0c-1.6,0-2.2-0.6-1.6-2.2c1.6-4.4,3.4-8.6,5-12.8
		c0.8-2.2,1.6-4.2,2.6-6.6c-0.6,0-1,0-1.2,0.2c-4.6,1.8-9.4,3.6-14,5.8c-5.4,2.4-9.8,6.2-14,10.6c-3.8,4-5.2,9-6.8,14
		c-1.6,4.6-1.8,9.4-1.8,14.2c0,4.8-2.2,8.6-5,12.4c-3.8,5.4-7.6,10.6-10,16.8c-0.6,1.4-1.4,2.6-2.2,4c-0.2,0.6-0.8,1-1,1.6
		c-0.8,2.8-2.4,5.2-4,7.4c-2,3-2,6.2-2,9.4c0,1.8-0.4,3.4-1.6,4.6c-3.2,3.2-4.4,7.2-5.2,11.4c-0.8,4.2-2.2,8.2-5,11.4
		c-0.8,0.8-1.2,1.8-1.8,2.8c-0.6,1-0.2,1.4,0.8,1.6c1.6,0.2,3.4,0.4,4.8,0.8c5.4,1.6,9.2,5.2,12.4,9.6c1,1.4,2,2.8,3,4.2
		c0.4,0.4,0.4,1.2,0.8,1.8c-0.8,0-1.4,0-1.4,0c-1.4-1.8-2.6-3.6-4-5.2c-2.2-2.8-4.4-5.4-7.6-7.2c-3.2-1.8-6.2-2.6-10-2
		c-3.6,0.4-7,0-10.6,0.2c-0.6,0-1.4,0.4-2,0.6c-0.4,0.2-0.8,0.4-1.4,0.6c-0.4,0.2-1,0.4-1.4,0.8c-1.4,1.4-2.8,2.8-4.6,3.8
		c-1.4,1-2.6,2.6-3.6,4c-1,1.2-1.8,2.4-2.6,3.6c-0.6,0.8-1.4,1-2,0.6c-0.2-0.2-0.2-1.4,0.2-1.8c2.4-3.4,5.2-6.4,8.4-9
		c1.2-1,2.6-1.8,3.8-2.8c1.6-1.4,2.4-2.6,0.8-4.2c-3.4-3.6-7.2-6.6-12.8-5.8c-0.6,0-1.2,0.6-1.4,1c-1,1.8-2.4,2.8-4.4,3.2
		c-5.4,1.4-11,2.8-16.4,4.4c-0.6,0.2-1,0.8-1.6,1c-1,0.2-2.2,0.6-3,0.4s-0.8-1.6,0.4-2.2c1.6-1,3.2-2,5-2.4c3.8-1,7.6-1.8,11.2-2.4
		c0.8-0.2,1.4-0.4,1.4-1.4c0-1,0.2-2,0.2-2.8c0-4.6,0-9.4,0-14c0-1.6-0.4-3.4-0.4-5c-0.2-3.8-0.4-7.6-0.2-11.4c0.2-4-1.4-7-4-9.8
		c-2.6-2.8-5.6-5.4-8.4-8.2c-3.6-3.4-7-7-10.6-10.6c-2-2-4-4-6-6c-3-3-6.2-5.6-9.8-7.8c-0.4-0.2-0.8-0.4-1-0.6
		c-1.8-1.2-1.6-1.8-0.6-3.4c1.8-2.8,3.4-5.8,5-8.8c0.2-0.2,0.2-0.6,0.4-1c-0.4,0-0.8-0.2-1-0.2c-1.8,0-3.6,0-5.2-1.4
		c-0.4-0.4-1-0.4-1.4-0.4c-0.4-0.2-1-0.2-1.4-0.2c-2.6-0.8-3.4-1.8-2.8-4.4c1-3.8,1.6-7.8,3.4-11.4c0.2-2,0.2-3.2,0.2-4.4
		c-0.8,0.2-1.2,0.4-1.4,0.6c-2.6,1.4-5,3-7.8,4.2c-5.2,2.6-10.4,5-15.6,7.4c-0.4,0.2-1,0.4-1.6,0.6c-3.4,0.8-5.2,3-6.2,6
		c-1,3-1.8,6-2.4,9c-0.8,3.4-1.6,6.8-2.4,10.2c-1.6,5.4-3,11-4.6,16.4c-1.6,4.8-2.2,9.8-2.6,14.8c0,0.6-0.6,1.2-1,1.8
		c-0.4,0.6-0.8,1-0.8,1.4c-0.4,2.4-0.8,4.8-1.2,7c-0.6,3.2-1.2,6.6-1.6,9.8c-0.2,2.4,0,4.8,0.2,7.2c0.2,2.2,1,4.2,1.4,6.4
		c0.8,3.8,3.4,6.4,5.8,9.4c1.2,1.6,2.4,3.2,3.8,4.4c1.8,1.6,3.8,2.8,5.8,4c0.2,0.2,0.6,0,0.8-0.2c2.4-1.6,4.6-3.2,7-4.6
		c2.8-1.6,5.6-3.2,8.4-4.6c2.2-1,4.4-1.2,6.8-1.8c0.6-0.2,1.2,0,2.2,0.2c-0.4-0.6-0.6-1-1-1.4c-2.8-2.4-5.8-4.6-8.6-7
		c-1.2-1-2.4-2.6-3.6-3.6c-0.8-0.8-1.8-1.2-3-1.6c-1.8-0.6-3.6-0.8-5.4-1.4c-0.6-0.2-1.6-0.4-1.2-1.4c0.2-1,1.2-1,1.8-0.6
		c2,1.2,4,1.2,6.2,1.6c0.8,0.2,1.4,0.8,2.2,1.2c0.8,0.6,1.2,0.4,1.6-0.2c0.2-0.4,0.6-1,0.6-1.6c0-2.4-0.2-5-0.2-7.4
		c0-0.6-0.2-1.4-0.2-2c0-6-2-11.8-2.6-17.8c-0.2-2.8-0.2-5.6-0.4-8.2c0-0.6-0.2-1.4-0.2-2c0-0.2,0.2-0.8,0.2-0.8c0.2,0,0.8,0,1,0.2
		c0.4,0.4,0.6,1,0.6,1.6c0.2,3.4,0.4,6.6,0.8,10c0.2,2.6,0.8,5,1.2,7.4c0.6,5.8,1.2,11.8,1.6,17.8c0.2,1.6-0.2,3.2-1.2,4.4
		c-0.8,1-0.6,1.6,0.2,2.4c1.4,1,2.8,1.8,4,2.8c2.2,1.8,4.4,3.8,6.6,5.8c1.4,1.2,2.6,2.6,4.6,3c0.2,0,0.2,0.2,0.4,0.4
		c2,1.8,4,3.8,6,5.4c1.4,1,3.2,1.6,5,2.4c2.6,1.2,5,2.6,7.6,4c0.4,0.2,0.4,0.8,0.6,1.2c-0.4,0.2-0.8,0.4-1.2,0.2
		c-0.6-0.2-1.2-0.6-1.8-0.8c-2.4-1.2-4.8-2.4-7.2-3.6c-1.8-1-3.6-2-5.4-3c-1.2-0.8-2.2-2.2-3.6-2.6c-2.4-0.8-4.2-3-7-2.4
		c-2.4,0.4-5,0.4-7.2,1.4c-4,1.8-8,4-11.8,6.4c-1.4,1-2.6,2.4-3.8,3.8c-1.6,2-2.6,2.2-4.4,0.2c-3-3.4-6.4-6.4-9.2-9.8
		c-1.8-2.2-3.4-4.6-4.6-7.2c-2.2-5-3.4-10.4-3.2-16c0.2-3.2,0.8-6.4,1.4-9.8c0.8-4.4,1.8-9,3.6-13.2c0.4-1.2,0.4-2.4,0.8-3.6
		c1-4.2,2.2-8.2,3.2-12.4c1.8-6.8,3.8-13.8,5.6-20.6c1-3.6,1.2-7.2,2.4-10.8c1.2-4.2,3.2-8.2,8.2-9.4c1.4-0.4,2-1.2,2-2.6
		c0-1,0.8-2,1.4-2.8c3.6-4.2,6.4-8.8,9-13.6c0.6-1.2,0.8-2.6,1-4c0.8-5,1.6-10,2.2-15.2c0.6-5.2,0.8-10.6,1.2-16
		c0.2-5,1.2-9.8,3.6-14.4c0.6-1.2,1.6-2.2,2.2-3.4c1.4-2.6,2.6-5.4,4.2-7.8c1.4-1.8,3.2-3.4,5-5c4.2-3.8,9.6-5.4,14.6-7.8
		c2.8-1.2,5.4-1,8.2-0.8c4.4,0.2,9,0.4,13.4,0.8c1.6,0.2,3,0.6,4.4,1.4c2.8,1.4,5.4,2.8,8,4.6c4,3,6.4,6.8,5.2,12.2
		c-0.6,3,0.2,5.8,1.2,8.6c0.8,2.6,1.6,5.4,2.2,8.2c0.2,0.6,0,1.4-0.2,2.2c-0.6,1.4-1,3-1.8,4.2c-1,1.4-0.8,2.8-0.2,4
		c0.6,1.4,1.4,2.8,2.2,4.2c1,1.8,0.8,3.6-0.6,4.8c-0.2,0.2-0.4,0.4-0.6,0.4c-1.6,0.8-1.8,1.6-1,3.4c0.2,0.4,0.4,0.8,0.6,1.2
		c0,0.6,0,1.4-0.4,1.8c-0.6,0.8-0.6,1.2,0,2c0.8,1.2,0.8,2.6-0.4,3.6c-0.8,0.8-1.2,1.6-1.2,2.8c0,2.2-0.8,4.2-2.4,6
		c0.2,0.4,0.6,0.8,1,1.2c3,3,5.4,6.6,9.4,8.6c3,1.4,5.8,2.8,8.6,4.4c2.8,1.6,5.4,3,8,4.8c1,0.6,1.8,1.6,2.6,2.4c1.4,1.6,2.8,3,4,4.8
		c0.8,1.2,1.2,2.6,1.6,4c0.6,2.6,1,5.4,1.4,8c1,5.6,1.6,11.2,2.8,16.8c1,5.6,2.4,11.2,3.6,16.8c0,0.4,0.2,0.6,0.8,1.2
		c0.6-1,1.4-2,1.8-3.2c1.2-3.4,2.4-6.6,4.4-9.6c2.2-3,4.6-6,6.8-9.2c2.2-3.2,4.2-6.6,4.4-10.6c0-0.8,0.2-1.6,0-2.4c-1-3,0-6,0.4-8.8
		c0.2-2,1.4-4,2-6c0.4-1.2,0.8-2.2,1.2-3.4c1.4-5,4.8-8.6,8.2-12.2c3.8-4.2,9-6.2,13.8-9c3.8-2.2,8.2-3,12.2-4.8
		c1.6-0.8,3.2-1.6,5.2-2.4c-0.8-0.6-1.4-1.2-2-1.6c-2.4-2-3-3.6-1.8-6.6c0.6-1.4,0.6-2.6-0.4-3.8c-0.8-1-0.8-2.2-0.2-3.6
		c-0.2-0.2-0.4-0.4-0.8-0.4c-1.2-0.4-1.8-1.2-1.6-2.6c0-0.4,0-1,0-1.4c-0.2-1.4-0.4-2.6-1.6-3.6c-2.2-2-2.4-4-1-6.6
		c1.4-2.6,2.6-5.2,3.8-7.8c0.2-0.6,0.4-1.4,0.4-2.2c-0.8,0-1.4,0-2,0c-0.6-0.2-1-0.4-1.6-0.6c0.2-0.4,0.4-1,0.8-1.4
		c0-0.2,0.2-0.2,0.6-0.6c-0.8-1-1.6-2-2.6-2.8s-0.8-1.8-0.2-2.6c1.4-2.2,2.6-4.4,2.8-7c0.4-3.2,1.2-6.6,0.6-10
		c-0.6-2.8,0.4-5.4,3-7.2c3.8-2.6,7.6-5.4,11.4-7.6c2.4-1.4,5-2.2,7.6-3c7-2.2,14-2.6,21-1c5.4,1.2,10.2,3.8,13.4,8.6
		c3.2,4.6,5,9.6,5.2,15.2c0.4,8.4-1,16.4-2.8,24.6c-0.8,3.2-1.6,6.4-2.6,9.6c-0.8,2.4-2,4.8-4.2,6.4c-0.2,0.2-0.4,1.2-0.2,1.6
		c0.2,0.6,0.8,1.2,1.4,1.2c2.4,0.4,5,0.2,7.4,0.8c2,0.4,3.4,1.4,4.8,3.2c2,2.6,4.2,5,6.8,7c2.4,2,5.4,3.2,7.8,5.2
		c2.8,2.2,6,3.6,9.2,5c1.4,0.6,3,1,4.6,1.6c0,0.4,0,1,0,2c-2.6-1-5.2-1.8-7.6-2.8s-4.8-2.4-7.2-3.6c0,0.2-0.2,0.4-0.2,0.6
		c0.8,4-0.6,7.8-2,11.4c-1,2.6-1.8,5-3,7.6c-0.2,0.6-0.8,1-1.2,1.4c-2,1.2-3.8,2.2-5.8,3.2c-1.6,0.8-3.2,1.4-5.2,2.2
		c1.2,1.2,2.2,2.2,3.4,3c1,0.8,1,1.4,0.2,2.2c-2,2.2-4,4.4-6.2,6.6c-3.8,4-7.4,8.2-11.8,11.6c-1.8,1.4-3,3.4-4.6,5
		c-1.8,1.8-3.6,3.6-5.4,5.2c-3,2.6-6,5-9.2,7.6c-0.8,0.6-1.4,1.2-2.2,1.6C-268.4,441.2-270,443.2-271.6,445.6z M-381.8,407.5
		c0.2,0.4,0.4,0.6,0.6,0.8c2.4,2.2,4.6,4.4,7,6.6c1.4,1.4,1.6,1.8,0.6,3.6c-0.8,1.6-1.6,3.2-2.4,5c-1.4,3.2-2.8,6.2-5.2,9
		c-1.4,1.6-2.8,3.4-4,5c-4.2,5.8-9,11-14.6,15.8c-0.8,0.8-1.6,2-1.8,3c-0.6,6.2-0.2,12.6,0.2,18.8c0.4,6.2,0.2,12.6,0.2,18.8
		c0,1.4,0.2,1.6,1.4,1.2c1.6-0.4,2.2-1.8,2.6-3.2c0.4-1.4,1.4-2,2.6-2.6c3.6-1.6,7.2-3.4,10.8-5c3.2-1.4,5.4-3.8,7.6-6.2
		c0.6-0.6,1-1.2,1.8-1.4c1.6-0.8,2.2-2,2.6-3.6c1.2-5.4,1.8-11,3.8-16.4c0.8-2,1-4.2,1.4-6.6c-0.6,0-1,0-1.2,0
		c-2.2,0.2-4.2,0.4-6.4,0.4s-4.6,0-6.8-0.2c-1,0-1.8,0.2-2.8,0c-0.4,0-0.8-0.6-1-1c0.4-0.2,0.8-0.8,1.2-0.8c1.6,0,3,0,4.6,0
		c3.8,0.2,7.6,0.8,11.4-0.4c1.2-0.4,1.4-0.8,1.6-1.8c0.6-3.2,0.4-6.8,1.8-10c0.2-0.4,0.6-0.8,1-1.2c0.2,0.4,0.6,0.8,0.6,1.2
		c0,1-0.2,2-0.4,3s-0.2,2-0.4,3c0,0.4,0,1-0.2,1.4c-0.4,2.8-0.8,5.6-1.4,8.4c0.2,1.4,0.2,2.6-0.2,3.8c-0.8,2.2-1.8,4.2-2.4,6.4
		c-0.6,3-0.8,6-1.2,9c0,0.2,0,0.4,0,0.4c1.4-0.4,2.8-1,4-1.4c1-0.4,2.2-0.6,3.4-0.6c0.6,0,1.2,0.2,1.8,0.4c-0.4,0.4-0.6,1.2-1.2,1.4
		c-2.8,0.8-5.4,1.6-7.6,3.6c-0.6,0.6-1,1.2-1.6,1.8c-0.2,0.4-0.6,1-0.8,1c-2.2,0.2-3.6,1.4-5,2.8c-1.6,1.4-3,3-4.8,4.2
		c-2.6,1.6-5.6,3-8.4,4.4c-0.6,0.4-1.4,0.8-2.2,1.2c0.2,0.2,0.2,0.2,0.4,0.2c0.2,0,0.4,0.2,0.6,0.2c5,0.4,8.6,3.2,11.4,7
		c1,1.4,1.8,3.2,4.2,2.6c2-0.4,4-0.2,6-0.4c0.4,0,1-0.4,1.2-0.8c1.4-2,2.4-4,3.8-6c1.8-2.6,3-5.4,3.4-8.4c0.8-5,2.2-9.6,5.8-13.4
		c0.6-0.6,1-1.8,1-2.8c0.4-2.6,0.4-5,0.6-7.6c0.4-2.8,1-5.4,2.8-7.6c1-1.2,1.2-2.2,0.8-3.6c-0.4-2.4-1-4.6-1.4-7
		c-0.8-4-1.8-7.8-2.6-11.8c-1-5.2-1.6-10.4-2.4-15.6c-0.2-1.6-0.4-3-0.8-4.6c-0.4-2-0.8-4-1.6-5.8c-0.6-1.4-2-2.6-3-4
		c-2.2-3.2-5.4-5.2-8.6-7c-3-1.8-6.2-3.2-9.4-4.8c-1.2-0.6-2.6-1.2-3.8-1.8c0,0.6,0.2,0.8,0.2,1c1.4,2.2,3,4.4,4.4,6.6
		c1.6,2.4,2,5.4,4.4,7.2c0.2,0.2,0,1-0.2,1.4c-0.2,0.2-0.8,0.2-1.2,0.4C-377.2,405.7-379.4,406.5-381.8,407.5z M-392.8,351.6
		c-0.4,0.8-0.6,1-0.6,1.4c-0.8,1.8-0.2,2.8,1.8,2.8c1.2,0,2.4,0,3.8-0.2c2.4-0.2,3.4-1.8,2.2-4c-0.2-0.4-0.8-0.8-1-1.4
		c-1-2.2-2.2-4.4-2.8-6.6c-0.8-2.4,0-4.6,2.2-6.4c0.4-0.4,0.6-1.2,0.6-2c-0.2-1.6-0.8-3-0.8-4.4c-0.2-2.8-1.4-5.2-2.2-7.8
		c0-0.2-0.2-0.6-0.6-0.8c-2.4-2.2-5-4-8.6-3.6c-0.8,0.2-1.8,0.2-2.6,0c-4.4-0.8-7.6,2.4-9,5.8c-0.8,2.2-0.8,4.6-1.4,6.8
		c-0.2,0.6-0.4,1.2-1,1.6c-1.8,1.8-4,3.4-5.6,5.4s-3,4.2-4,6.6c-0.8,1.6-1.2,3.4-0.6,5.2c0.2,0.6,0,1.4,0,2.2
		c-1.6-0.4-2-1.4-2.4-2.4c-0.4-1-1.2-1.6-2.4-1.4c-1,0.2-2.4,1.4-2.2,2.4c0,0.4,0.6,0.8,1,1.2c0.4,0.2,1,0.2,1.4,0.6
		c0.8,1,1.4,0.8,2,0c1.4,1.2,1.4,2.2,0,3c-0.8,0.4-1.6,0-2.2-0.6c-0.4-0.2-1.2-0.6-1.2-0.4c-0.4,0.4-0.8,1-0.8,1.4
		c0,1,0.6,2,1.6,2.2c1,0.2,2,0,3.2-0.2c0.6,1.2,0,2-1.4,2c-3,0.2-3.2-0.2-3.8,3.2v0.2c-1,2.2-1,4.6-1.4,7c-0.4,3.4,0.4,6.6,1.2,10
		c0.4,1.8,1.2,3.6,2.4,5.2c2.6,4,5.4,7.8,8.2,11.8c2.4,3.6,4.8,7.2,7.2,10.8c4.8,7.6,7.8,16,9.6,24.8c0.2,0.8,0.4,1.6,0.6,2.2
		c0.2,0,0.2,0,0.4,0c0.4-2,1.4-4,0.8-6.2c-1.6-6-3.8-11.8-6.8-17.2c-0.4-0.6-0.6-1.4-0.6-2c0.4-2,0.6-4.4,1.6-6
		c2.4-4.2,5.2-8.2,8-12c2.2-3.2,3.4-6.6,4.4-10.4c0.4-1.4,0-1.6-1.6-1.8c-2-0.2-4.2-0.4-6.2-0.8c-3.4-0.8-6.6-2.4-9.4-4.4
		c-2.6-1.8-5.2-4-7.6-6c-0.8-0.8-0.8-1.4,0.2-2c1.6,1.4,3,3,4.6,4.2c1.6,1.2,3.4,2.2,5,3.4c4,2.8,8.6,4.6,13.6,4.4
		c1.4,0,2.8-0.8,4-1.4c2.8-1.6,3.2-4.4,3.2-7.2c0-0.4-0.4-0.8-0.8-1c-2.2-1.4-4.4-2.6-6.6-3.8c-0.4-0.2-0.8-0.6-1.2-0.8
		c0-0.2,0.2-0.4,0.2-0.6c1.6-0.4,3.2-0.8,4.8-1.2c1.6-0.4,3.2-1,4.8-1.4c-0.4-3.2-0.8-3.6-3.8-3c-0.4,0-0.8,0-1.2-0.2
		c-1.8-0.8-2.4-3.6-1-5.2C-394,351.8-393.4,351.8-392.8,351.6z M-249.8,339.4c0.6,0.6,1,1.6,1.6,2c1,0.4,2.4,0.8,3.4,0.6
		c1.6-0.4,3.2-1,4.4-2.2c1.2-1,1.8-2.4,2.6-3.8c0.6-1,0.6-2.4,1.2-3.4c1.4-2.6,1.2-5,0.2-7.6c-0.6-1.6-1.6-2.4-3.2-2
		c-3.8,0.6-7,2.2-9,5.8c-0.8,1.4-1.4,3-2,4.4c-0.4,1-1,1.8-2.2,1.8c-1.6-0.2-3.2,0-4.4-1.6c-0.2-0.2-0.2-0.6-0.2-1
		c0-1,0-2.2-0.2-3.2c-0.4-1.8-0.8-3.8-1.6-5.6c-0.6-1.4-1.8-2.6-2.8-4c-1.4-1.8-1.6-4-0.4-6c0.8-1.4,1.8-2.8,2.6-4.2
		c1.8-3.8-0.8-7.6-5-7.4c-3,0-5.8,0.6-8.6,2c-2.4,1.4-4.8,2.4-7.6,2.8c-2.8,0.4-5.6,1-8.4-0.6c-0.8-0.4-1.2,0-1.4,0.8
		c-0.2,1.4-0.6,2.8-0.6,4c-0.4,3.4-0.8,6.6-3.2,9.2c-0.4,0.4-0.4,1.4-0.2,1.6c1,1.4,2,2.8,3.2,4c1.8,1.8,2,3.8,1,5.8
		c-1.4,2.8-2.8,5.6-4.4,8.2c-1.2,2,0.4,5,2.6,5c0.2,0,0.4,0,0.6-0.2c1.2-1.2,2.4-0.8,3.8-0.4c0.6,0.2,1.4,0.4,2,0.2
		c0.6,0,1.2-0.4,1.6-0.8c-0.2-0.4-0.6-1-0.8-1.4c-0.2-0.2-0.4-0.4-0.4-0.6s-0.2-0.8,0-0.8c0.2-0.2,0.6-0.4,1-0.2
		c1.2,0.2,2.4,1.8,2.4,3c0,1.4-1.2,1.6-2.2,1.8c-0.6,0.2-1.4,0-2-0.2c-2-0.8-3.6,0.6-5.2,1.2c-0.2,0,0,1.8,0.2,2.6v0.2
		c-0.2,1.6,0.6,1.8,1.8,2c3.2,0.4,6.4,0.8,9.6,1.4c0.4,0,1,0.2,1.2,0.4c0.4,0.4,0.8,1,0.6,1.4c0,0.4-0.6,0.8-1,1s-0.8,0.2-1.2,0.4
		c-1.6,1-3.4,1.8-5.4,1.6c-1.6-0.2-2.8,0.2-2.6,2.2c0,0.2-0.2,0.6-0.2,0.8c-1,2.8,0.6,5.6,3.4,6.2c2.6,0.4,5.4,0.8,8,1.2
		c2.6,0.2,5,1,6.6,3c1.8,2,4.2,3.4,6.6,4.4c0.8,0.2,2,0.4,2.6,0c3.8-2,7.4-4.4,10.2-8c2.8-3.6,5-7.4,7.2-11.2c0.8-1.2,1-2.4,0.8-4
		c-0.2-2-0.2-4-0.4-6.2c0-0.8,0-1.6,0-2.6c-0.6,0-1,0.2-1.4,0.2c-2,0.2-3.8,0-5.4-1.4C-251.2,341.4-251.2,340-249.8,339.4z
		 M-228.1,357.4c-0.6,1.8-0.8,3.2-1.4,4.6c-2,4.6-4.2,9.2-6.2,13.6c-0.2,0.6-0.6,1.2-1,1.8c-3,4.8-6,9.6-8.8,14.6
		c-2.6,4.6-5,9.4-7.6,14.2c-1.2,2.2-2.6,4-3.8,6.2c-1.2,2.2-2.2,4.6-3.6,6.8c-3,4.2-5.4,8.8-7.2,13.8c0,0.2-0.2,0.4-0.4,0.8
		c-0.8,2-1.8,4-2.6,5.8c-0.2,0.4,0,0.8-0.2,1.6c1.4-1,2.4-2,3.4-2.8c4.8-3.8,9.6-7.6,14.2-11.6c1.8-1.6,3-3.8,4.8-5.4
		c2.4-2.2,5-4.2,7.2-6.6c4-4.2,8-8.6,12-12.8c0.6-0.8,0.6-1.4-0.2-1.8c-1.2-0.8-2.6-1.6-3.8-2.6c-0.4-0.2-1-0.8-1-1.2
		c0-0.4,0.6-0.8,1-1c0.6-0.4,1.4-0.4,2.2-0.6c3.8-1,7-3.4,10.4-5c0.4-0.2,0.6-0.6,0.8-1c1.6-4,3.4-8,4.4-12.4
		c1.2-5,0.4-7.2-3.6-10.2c-2.4-1.6-4.4-3.8-6.4-5.8C-226.3,359.6-227.1,358.6-228.1,357.4z M-389.2,381.3c-0.2,0.2-0.4,0.2-0.6,0.4
		c0,0.4,0.2,0.6,0.2,1c0.6,2,1.6,4,1.6,6c0.4,5.6,0.6,11.4,0.6,17c0,1,0,1.8-0.4,2.8c-0.2,0.4-0.6,1-1.2,1.2c-0.4,0-1.2-0.2-1.4-0.6
		c-0.4-0.6-0.8-1.4-1-2.2c-1.4-3.4-3.4-6.2-6-8.8c-0.4-0.4-1.2-0.2-1.8-0.4c0,0.6-0.4,1.2,0,1.8c0.4,0.8,1,1.4,1.6,2
		c2.4,2.6,4.4,5.2,3.4,9.2c-1.6,6.6-2.8,13.2-3.8,19.8c-0.8,5.4-2.8,10.8-4.4,16.2c-0.6,1.8,0,3.6,1,5.6c1.8-1.6,3.4-2.8,4.8-4.4
		c3.8-4.2,7.4-8.6,11-12.8c2.8-3.4,5.6-6.8,7.4-11c0.8-2.2,2-4.2,3-6.4c0.2-0.4,0-1.4-0.4-1.6c-2.6-2.6-5.4-5-8.2-7.6
		c-0.4-0.4-0.8-1-0.8-1.4c0.2-0.4,0.8-0.8,1.2-1c2.2-1,4.4-1.8,6.4-2.8c0.2-0.2,0.6-0.8,0.4-1.2c-0.6-1.6-1.4-3.2-2.2-4.6
		c-2.2-3.6-4.6-7.2-6.8-10.6c-0.6-1-1.2-2.2-1.8-3.2C-388,382.9-388.6,382.1-389.2,381.3z M-404.1,452.8c0.2,0,0.2-0.2,0.4-0.2
		c-0.2-0.6-0.4-1.4-0.8-2c-0.2-0.4-0.6-0.8-0.8-1.2c-0.6-2-1.4-4-1.8-6c-1.6-7.2-4.6-13.6-7.8-20.2c-1.4-3-2.8-6.2-4-9.4
		c-0.4-1.2-0.8-2.2-1.2-3.4c-1.2-3.2-3-5.8-6.6-6.8c-0.8-0.2-1.4-1-2.2-1.2c-0.4-0.2-1-0.2-1.6,0c-1.4,0.6-2.8,1.4-4.2,1.8
		c-1.2,0.4-2,1-2.4,2.2c-1.6,3-3.2,6-4.8,8.8c-0.8,1.4-0.8,1.4,0.6,2.4c2.8,2,5.8,3.8,8.2,6.2c2.8,2.4,5.2,5.2,7.8,7.6
		c2.6,2.4,5,5,7.6,7.4c1.4,1.4,2.8,2.8,4.2,4.2c2.2,2.2,4.6,4.4,6.8,6.6C-405.9,450.8-405.1,451.8-404.1,452.8z M-272,426.7
		c0,0,0.2,0,0.2-0.2c0-0.4,0-1-0.2-1.4c-0.4-2.6-1-5-1.4-7.6c-1-8.4-2-17-2.8-25.4c-0.2-1.2-0.2-2.6-0.4-3.8
		c-0.8-5.8-1.8-11.6-2.6-17.4c-0.2-0.8-0.4-1.4-1.4-1.4c-0.4,0-0.8-0.2-1.2-0.2c-1.2-0.2-5.2,1.2-5.8,2c-0.2,0.2-0.2,0.4-0.2,0.6
		c-0.8,2.4-1.6,5-2.6,7.4c-1.6,4-3,7.8-4.6,11.6c-0.4,1-0.2,1.4,1,1.4c3,0,6,0.2,9,0.4c0.6,0,1,0.4,1.6,0.8c-0.4,0.6-0.6,1.2-1,1.6
		c-1.4,1.2-2.8,2.2-4.2,3.4c-1.8,1.6-2.2,2,0,3.4c0.2,0.2,0.4,0.2,0.6,0.4c2.4,2.8,5,5.4,7,8.6c2.8,4,5.2,8.4,7.8,12.6
		C-273,424.7-272.6,425.7-272,426.7z M-254.8,392.3c0.2,0,0.2,0,0.4-0.2c0.6-1.2,1-2.4,1.8-3.6c0.8-1.2,1.8-2.2,2.4-3.4
		c1.2-2.8,2.8-5.4,4.8-7.6c1-1.2,2-2.4,2.6-3.6c2-3.6,3.6-7.2,5.4-10.8c0.2-0.4,0.4-1,0.4-1.4c-0.4-2.8-1.8-5.4-3.8-7.4
		c-1.6,3-3,6-4.6,8.6c-1.4,2.2-3.4,4-4.6,6.2c-1.8,2.8-4.2,5-7,6.6c-1,0.6-2.2,1.2-3.2,1.8c-0.8,0.4-1.2,1-0.4,1.8
		c2,2.4,3,5.4,3.8,8.4C-256.4,389.5-255.4,390.9-254.8,392.3z M-257.4,408.9c0.6-0.6,1-1,1.4-1.4c1.6-3,3.2-6,4.8-9
		c2.2-4,4.4-8,6.6-11.8c2.6-4.8,5.4-9.8,8-14.6c0.8-1.4,1.6-2.8,2.2-4.2c0.8-1.6,1.6-3.2,2.4-5c0.2-0.4,0.2-1-0.2-1.4
		c-0.6-0.6-2.4,0.2-2.8,1c-1,2.4-2,5-3.2,7.4c-1.4,2.8-3.2,5.8-5,8.4c-1.4,2.2-3.4,4.2-4.8,6.4c-1.4,2.2-2.6,4.6-4,6.8
		c-0.6,1.2-1.4,2.4-2.2,3.6c-1-0.6-1.8-1.2-2.6-1.8c-0.6-0.4-1.2-0.2-1.6,0.6c-2.2,4.8-1,9.6,0,14.4
		C-258,408.3-257.8,408.3-257.4,408.9z M-266.2,377.4c-2-1.6-4-3.2-5.6-4.8c-1.4-1.4-2.8-2-4.6-2.4c-1.2-0.2-1.4,0-1.2,1.4
		s0.6,2.6,0.8,3.8c1,7.6,1,7.6,4.4,12.4c0.2,0.2,0.4,0.6,1,1c0.4-2,1-3.8,1.2-5.6C-269.8,380.5-268.8,378.5-266.2,377.4z
		 M-441.1,379.7c-1.2,0.8-2.4,1.4-3.4,2.2c-0.4,0.4-0.8,1-0.8,1.6c-0.2,1.4,0,3-0.6,4.2c-1.6,3.4-2.2,7.2-3,10.8
		c-0.2,1,0.2,1.6,1.2,2c3.2,1.4,4.2,0.8,4.6-2.6c0.4-4,1-7.8,1.6-11.8C-441.5,384.3-441.3,382.1-441.1,379.7z M-274,389.3
		c-0.2,0-0.2,0.2-0.4,0.2c0,0.8,0,1.6,0,2.4c0.6,5.2,1.2,10.4,2,15.6v0.2c0.2,0.2,0.4,0.6,0.6,0.6c0.2,0,0.6-0.2,0.8-0.6
		c0.2-0.4,0.2-0.8,0.2-1.4c0.2-1.4,0-2.8,0.2-4.2c0.6-3.4,0.6-6.6-1.4-9.6C-272.6,391.5-273.2,390.3-274,389.3z M-238.3,353.6
		c0.8,1.2,1.6,2.2,2.2,3.2c1.4,2.6,1.4,2.8,4.4,2.4c0.4,0,1-0.4,1.2-0.6c1.4-2,0.6-4-2-4.2c-1.2-0.2-2.6-0.4-3.8-0.6
		C-236.9,353.8-237.3,353.8-238.3,353.6z M-271,452.6c1.4,0,2.6-1.4,2.6-3c0-1-1.6-2.4-3-2.6c-1,0-2.4,1.8-2.4,3.2
		C-273.8,451.4-272.4,452.6-271,452.6z M-281.4,354.8c0-0.2,0-0.4-0.2-0.4c-2.2-0.2-4.4-0.4-6.6-0.4c-0.4,0-1,0.2-1.2,0.6
		c-0.2,0.4,0.2,1,0.6,1.2c0.8,0.4,1.6,0.6,2.6,0.6C-284.4,356.4-282.8,355.8-281.4,354.8z M-268,395.7c-0.4,1.4,0,2,1.4,2
		c1.2,0,2.4,0,3.6,0.2c1.6,0,1.8-0.2,1.6-2C-263.6,395.7-265.8,395.7-268,395.7z M-393.8,365C-393.8,365-394,365-393.8,365
		c1.8,1,3.4,1.6,5.2,2.4c0.8,0.4,1.2-0.2,1.2-1c0.2-1-0.8-1.4-1.4-1.4C-390.6,364.8-392.2,365-393.8,365z M-387.4,362.2
		c0-0.2-0.2-0.4-0.2-0.6c-2.4,0.6-4.8,1.2-7.2,1.8c2,0.2,4,0.4,6,0.2C-388.2,363.6-387.8,362.8-387.4,362.2z M-387.4,343.2
		c0.2-0.8,0.4-1.8,0.6-2.8C-388,341.2-388.2,341.6-387.4,343.2z"/>
	<path class="st0" d="M-315.5,422.5c0.8,1.6,1.4,3.2,1.4,5c0,3.4,0,6.8,0,10.2c0,1.6,0.4,3.2,0.6,5c0,0.4,0.2,0.8,0.2,1
		c-0.8,7.2,0,14.4,0.8,21.6c0.6,6.2,2.2,12.2,1.6,18.4c-0.6,7.4-0.8,15-2.6,22.4c-0.4,1.6,0,3.4-0.2,5.2c-0.4,1.8-1,3.8-1.6,5.4
		c-0.2,0.4-1.2,0.4-2.2,0.6c1.6-3.4,1.6-6.6,2-10c0.2-1.8,0.8-3.6,1-5.4c0.4-2,0.6-4,0.8-6.2c0.2-2,0.2-4.2,0.4-6.2
		c-0.2,0-0.4,0-0.6,0c-2,1.4-3.8,2.6-5.6,4.2c-1.8,1.4-2.8,3.2-3.4,5.4c-1.8,5.2-4.8,9.6-8,13.8c-0.8,1-1.8,2.2-2.6,3.2
		c-0.8,1-2,1.2-3.2,0.8c1.4-1.8,2.8-3.4,4.2-5.2c3.4-4,6-8.4,7.8-13.2c1.4-3.6,3.4-6.2,6.8-8.2c2-1.2,4-2.6,5-5
		c0.2-0.4,0.4-0.8,0.4-1.2c-0.2-3.4-0.2-6.8-0.4-10.4c0-0.6-0.6-1.4-1.2-1.8c-2.6-2.4-5.6-4.6-9.2-5.6c-0.8-0.2-1.6-0.8-2.4-1.2
		c-0.2-0.2-0.4-0.8-0.6-1.2c0.4-0.2,0.8-0.4,1.2-0.4c2.4,1,5,2,7.4,3.2c1.2,0.6,2.4,1.4,3.8,2.2c0-1.2,0-2,0-3
		c-0.4-3.6-0.8-7.2-1-10.8c-0.2-3.8,0-7.8-0.2-11.8c0-5.4-0.2-10.8-0.2-16.2c0-0.8-0.4-1.6-0.4-2.2
		C-316.1,424.3-316.5,423.5-315.5,422.5z"/>
	<path class="st0" d="M-243.3,448.2c-1.6,0-3.4,0-5,0c-0.4,0-0.8-0.4-1.2-0.6c0.4-0.2,0.8-0.6,1.2-0.6c3.8,0,7.6-0.2,11.4,0
		c5.6,0.4,11.4,0.8,17,0.2c1.6-0.2,3.4-0.4,5-0.6c0.2,0,0.6-0.2,0.8-0.2c0.6,0,1.6-0.4,1.8,0.6c0,0.2-1,0.6-1.6,0.6
		c-5,0.8-10.2,1.4-15.2,1c-4.8-0.2-9.4-0.6-14.2-1C-243.3,448-243.3,448-243.3,448.2z"/>
	<path class="st0" d="M-273.4,494.3c-2,0-3.4-1.4-3.4-3.2c0-2.2,1.4-4.2,3.2-4.4c1.8,0,3.8,1.8,3.6,3.6
		C-270,492.7-271.4,494.3-273.4,494.3z M-273.4,492.9c1.2,0,2-1,2-2.4c0-1.2-1-2-2.6-2c-0.8,0-1.6,1.4-1.6,2.6
		C-275.4,492.1-274.4,492.9-273.4,492.9z"/>
	<path class="st0" d="M-409.3,341.6c0.2-0.6,0.4-1.2,0.8-1.6c1.4-1.8,3.6-2.6,5.6-3.2c3.4-1.2,6.6-1,9.8,0.2
		c0.8,0.2,1.2,0.6,0.8,1.4c-0.4,0.8-1,0.6-1.6,0.4c-4.2-1.6-8.2-0.4-11.8,1.6c-1,0.6-2,1.2-3,1.6
		C-409.1,341.8-409.3,341.8-409.3,341.6z"/>
	<path class="st0" d="M-406.5,343.6c0.4-0.6,0.8-1,1.2-1.2c2.6-1.2,5.2-2.4,8-2.4c1.6,0,2.4,0.8,2.2,2.2c-0.2,1.6-1,2.6-2.4,2.2
		c-2.8-0.8-5.6-1.2-8.4-0.6C-405.9,343.8-406.1,343.8-406.5,343.6z M-401.2,341.8c0,0.2,0,0.2,0,0.4c0.8,0.4,1.8,0.6,2.6,1
		c0-0.8,0-1.2,0-2C-399.4,341.4-400.4,341.6-401.2,341.8z"/>
	<path class="st0" d="M-245.5,337c1.2-1,2.4-1.8,3.4-3c0.6-0.6,0-1.2-0.8-1.4c-2-0.6-2.2-0.8-1.8-2.8c0.4-2.2,1.6-4,3.6-5.4
		c1.6-1.2,3.6-0.2,4.2,1.6c0.8,2.4-0.2,4.4-0.6,6.4c-0.4,2.2-1.4,3.6-3.8,3.8c-0.4,0-0.6,0.6-1.2,0.8c-1.4,0.6-2.6,1.4-4,1.8
		c-1.6,0.4-2.4-0.8-1.8-2.4c0.4-1.2,1.4-2.2,0.8-3.4c0-0.2,0.4-0.6,0.6-0.8c0.2,0,0.6,0,0.8,0.2c0.2,0.6,0.6,1.2,0.6,1.8
		c0,0.8-0.4,1.4-0.8,2.2C-245.9,336.6-245.7,336.8-245.5,337z M-239.5,332.4c0.2-1.6,0.6-3.4,0.8-5.2c0-0.4-0.6-1.2-1-1.4
		c-0.4-0.2-1.2,0.2-1.4,0.6c-0.6,0.8-1.2,1.8-1.6,2.6c-0.2,0.2,0,1,0.2,1.2C-241.7,331.2-240.7,331.6-239.5,332.4z"/>
	<path class="st0" d="M-281,327c3.4,0,7-0.8,10,1.6c0.2,0.2,0.4,0.2,0.4,0.2c0.4,0.2,0.6,0.6,1,1c-0.4,0.2-0.6,0.6-1,0.8
		c-0.8,0.4-1.6,0.6-2.2,1c-2.6,1.2-5,1.8-7.6,0.2c-0.4-0.2-0.8-1-0.8-1.4C-281.4,329.2-281.2,328.2-281,327z M-278,330.8
		c2.2,0.2,3.6-0.2,4.6-1.4c-0.2-0.2-0.4-0.4-0.6-0.4c-1-0.4-2.2-0.8-3.2-0.8c-0.2,0-0.4,1.4-0.8,2.2C-278,330.4-278,330.6-278,330.8
		z"/>
	<path class="st0" d="M-279,322.3c3.4-0.6,6.4,1.6,9.4,2.6c0.4,0.2,0.6,1,0.8,1.6c-0.4,0-1,0.2-1.4,0c-3.4-1.6-7-2.6-10.8-1.8
		c-1.4,0.4-2.8,0.8-4.2,1.2c-0.4,0.2-1-0.2-1.6-0.2c0.2-0.6,0.2-1.4,0.6-1.6C-284,322.5-281.6,322.1-279,322.3z"/>
</g>
</svg>
