<?xml version="1.0" encoding="utf-8"?>
<!-- Generator: Adobe Illustrator 19.1.0, SVG Export Plug-In . SVG Version: 6.00 Build 0)  -->
<svg version="1.1" id="Layer_1" xmlns="http://www.w3.org/2000/svg" xmlns:xlink="http://www.w3.org/1999/xlink" x="0px" y="0px"
	 viewBox="0 0 120 88.3" style="enable-background:new 0 0 120 88.3;" xml:space="preserve">
<style type="text/css">
	.st0{fill:#03A9F4;}
</style>
<g id="pharm-patient">
	<path class="st0" d="M56.2,88.3c-0.3-0.5-0.6-1.1-0.9-1.6c-0.7-1-1.3-1.9-2-2.9c-0.7-1-1.1-2.2-2.3-2.8c-0.5-0.3-0.7-1.3-0.3-2
		c0.6-0.9,0.3-1.7-0.3-2.4c-0.6-0.7-1.3-1.4-1.8-2.1c-0.6-0.8-1.1-1.6-1.1-2.7c0-0.4-0.3-0.9-0.5-1.3c-0.5-0.7-0.5-1.9-0.2-2.6
		c0.7-1.4,1.9-2.2,3.2-3c0.9-0.6,2.5-0.2,3.3,0.7c0.5,0.5,0.9,0.9,1.7,0.9c0.1,0,0.3,0.1,0.4,0.2c0.6,0.6,1.2,1.2,1.8,1.9
		c0.4,0.5,0.6,0.6,1.2,0.3c0.3-0.2,0.6-0.4,0.9-0.4c1-0.1,1.3-0.8,1.4-1.6c0.3-1.8,0.4-3.6,0.9-5.4c0.5-2.1,0.5-4.2,0.5-6.3
		c0-0.7-0.2-1.5-0.4-2.2c-0.1-0.4-0.1-0.6,0.3-0.7c0.4-0.2,0.5,0.1,0.6,0.4c0.5,1.8,0.4,3.7,0.3,5.6c-0.2,2.7-0.5,5.3-1.2,7.9
		c-0.1,0.4-0.1,0.8-0.1,1.2c0,0.3,0.2,0.7,0.4,0.9c0.7,0.5,1.4,0.9,2.2,1.3c0.4,0.2,0.7,0.1,0.7-0.4c0-0.2,0-0.5,0.1-0.7
		c0-1.6,0.1-3.1,0.1-4.7c0-2,0-4-0.2-6c-0.1-1.6-0.4-3.2-0.6-4.8c-0.1-0.6-0.3-1.1-0.5-1.6c-0.6-1.6-0.6-3.3-0.9-5
		c-0.3-2-1.1-3.6-2.4-5.1c-0.4-0.5-1-0.7-1.6-1.1c-0.8-0.5-1.7-0.9-2.6-1.3c-0.1-0.1-0.2-0.1-0.4-0.2c-1.2-0.3-2.2-0.9-3.2-1.6
		c-0.2-0.1-0.4-0.2-0.7-0.2C52.1,37,52,37.2,52,37.4c0,1.6,0,3.1,0,4.7c0,1.4-0.1,2.7-0.1,4.1c0,0.2,0,0.4-0.1,0.5
		C51.3,47.8,51,49,50.3,50c-1.1,1.6-2.3,3.1-3.5,4.6c-0.2,0.2-0.4,0.4-0.6,0.6c-0.3,0.3-0.7,0.3-1.1,0.1c-0.3-0.2-0.5-0.4-0.8-0.5
		c-1-0.7-2.1-1.4-3.1-2.2c-1.5-1-2.9-2.1-4.4-3.1c-1.7-1.2-3.4-2.3-5-3.5c-0.9-0.7-1.6-1.5-2.5-2.2c-1-0.9-2-1.9-3.1-2.7
		c-1.4-1.2-1.9-2.7-2.1-4.4c0-0.3-0.1-0.5-0.1-0.8c-0.2,0.1-0.2,0.1-0.3,0.1c-1.6,1-3.2,2-4.9,3c-1.4,0.8-2.8,1.6-4.2,2.4
		c-2.6,1.5-4.2,3.7-5.2,6.4c-0.5,1.3-1.1,2.6-1.6,4c-0.3,1-0.5,2-0.8,3c-0.6,2-1.2,4-1.6,6c-0.5,2.5-1.3,4.9-1.9,7.3
		c-0.3,1.4-0.6,2.7-0.9,4.1c-0.3,1.7-0.5,3.4-0.8,5.2c0,0.3-0.2,0.5-0.2,0.8c-0.1,0.3-0.2,0.6-0.3,1c-0.2,1.8-0.4,3.6-0.6,5.5
		c-0.1,0.5,0,1.1,0,1.6c0,0.7-0.1,1.5-0.2,2.2c-0.3,0-0.5,0-0.8,0c0.2-2.7,0.2-5.4,0.7-8c0.1-0.5,0-1.1,0.1-1.6
		c0.9-4.6,1.6-9.2,2.8-13.7c0.4-1.5,0.9-3,1.1-4.6c0.3-2.5,1.4-4.8,2-7.2c0.7-2.6,1.8-5,2.9-7.5c1.4-3.2,4-4.8,6.9-6.3
		c1.2-0.6,2.2-1.4,3.4-2.1c1-0.6,2.1-1.2,3.1-1.8c1-0.6,2-1.3,2.8-2.3c0.3-0.4,0.8-0.5,1.3-0.7c1.5-0.8,3.1-1.6,4.6-2.4
		c1-0.6,1.3-2.2,0.6-3.2c-0.2-0.3-0.5-0.6-0.8-0.8c-0.8-0.6-1.4-1.3-1.8-2.2c-0.6-1.8-1-3.6-0.9-5.4c0.1-1,0.2-1.3,0.9-2
		c-0.3-1.8-0.6-3.5-0.3-5.3c0.1-0.7,0.2-1.3,0.2-2c0-1.1,0.2-2.1,0.6-3.1c0.3-0.7,0.7-1.3,1.3-1.8c1-0.8,1.9-1.6,2.9-2.4
		c1.1-0.8,2.3-1.6,3.7-1.8C39,0,39.9,0,40.7,0c0.8,0,1.7,0,2.5,0.1c1.8,0.2,3.3,0.8,4.5,2.2c0.5,0.6,1.1,1.2,1.7,1.8
		c1.2,1.2,2,2.6,2.6,4.2c0.5,1.3,0.8,2.5,0.7,3.9c-0.1,1.5-0.1,3.1,0.4,4.6c0.2,0.5,0.3,1.1,0.3,1.6c0,2.2,0.1,4.4-0.1,6.6
		c-0.1,1.4-0.5,2.7-0.8,4c-0.2,1-0.4,2.1-0.7,3.1c-0.2,0.8-0.4,1.5-0.7,2.2c-0.1,0.4-0.2,0.6,0.2,0.8c1.2,0.7,2.4,1.5,3.7,2.2
		c1.3,0.7,2.7,1.3,4.1,1.8c1.4,0.5,2.3,1.5,3.1,2.7c1.2,1.9,1.7,4,1.9,6.2c0.1,1.1,0.5,2.2,0.8,3.3c0.4,1.8,0.8,3.7,1,5.5
		c0.2,1.8,0.2,3.6,0.2,5.4c0,2.5-0.1,5-0.2,7.6c0,0.4,0.1,0.6,0.4,0.8c0.3,0.2,0.6,0.6,0.9,0.9c0.2,0.2,0.3,0.5,0.5,0.7
		c0.1,0,0.1,0,0.2,0c0.1-0.3,0.2-0.5,0.2-0.8c0.2-0.7,0.3-1.4,0.6-2.1c0.4-1.1,0.6-2.2,0.8-3.3c0.5-3.5,1.5-6.8,3-10
		c0.3-0.6,0.6-1.2,0.9-1.8c0.6-1.2,1.8-1.7,3-2.3c1.8-0.9,3.6-1.9,5.4-2.9c0.7-0.4,1.2-1.1,1.8-1.7c0.3-0.3,0.5-0.7,0.9-0.9
		c0.5-0.3,0.5-0.8,0.4-1.3c-0.3-1.2-0.3-1.1-1.6-1.2c-0.8,0-1.6-0.2-2.4-0.4c-0.3-0.1-0.5-0.4-0.6-0.6c-0.3-0.9-0.5-1.8-0.8-2.6
		c-0.4-0.8-0.9-1.6-1.3-2.4c-0.1-0.2-0.3-0.5-0.4-0.7c-0.4-0.9-0.8-1.8-1.7-2.4c-0.5-0.3-0.6-0.8-0.4-1.3c0.2-0.7,0.4-1.5,0.5-2.2
		c0.1-0.6,0-1.2-0.2-1.9c-0.6-1.5-1.6-2.9-1.4-4.7c0.1-1.7-0.1-3.3,0.4-5c0-0.1-0.1-0.4-0.2-0.5c-1.7-1.3-1.7-3.8,0-5
		c1.6-1.1,3.3-1.7,5-2.4c1.4-0.6,2.8-1.2,4.1-1.9c2.3-1.3,4.7-1.9,7.4-1.2c0.4,0.1,0.8,0.4,1.3,0.7c1.3,0.7,2.7,1.4,4,2
		c0.8,0.4,1.4,0.9,2,1.5c0.4,0.4,0.8,0.5,1.3,0.4c0.3-0.1,0.6-0.1,1-0.1c0.8-0.1,1.5,0,2,0.7c0.1,0.1,0.3,0.3,0.5,0.3
		c1.2,0.3,1.9,1.2,2.9,1.9c1.2,0.8,1.7,2.1,2.4,3.3c0.7,1.2,1,2.6,1.1,4.1c0.1,1,0.3,2.1,0.4,3.1c0.1,2.2,0.1,4.4,0,6.5
		c-0.1,1.9-0.4,3.8-0.4,5.8c-0.1,1.7,0.1,3.4,0.1,5.1c0,0.6,0.1,1.3,0.1,1.9c0,0.6,0.2,1,0.7,1.4c1.3,0.8,2.5,1.6,3.8,2.4
		c1.2,0.7,2,1.5,2.5,2.8c0.4,1,1.1,1.8,1.5,2.8c0.4,1.1,0.8,2.2,1,3.3c0.4,3.2,0.7,6.4,0.9,9.6c0.1,1.4,0.1,2.9,0,4.3
		c-0.1,1.1-0.4,2.2-0.7,3.3c-0.3,1.4-0.6,2.7-1,4.1c-0.1,0.3-0.1,0.6-0.3,0.9c-1,2.3-1.2,4.7-1.3,7.1c-0.3,0-0.6,0-0.9,0
		c0-0.4,0-0.9,0.1-1.3c0.1-0.5,0.2-0.9,0.3-1.4c0.3-1.3,0.5-2.5,0.8-3.8c0.2-0.9,0.6-1.8,0.8-2.7c0.6-3,1.6-6,1.5-9.1c0,0,0,0,0-0.1
		c0-1.2,0.1-2.4,0-3.6c-0.2-1.9-0.5-3.8-0.6-5.6c-0.2-1.9-0.5-3.7-1.4-5.5c-0.4-0.8-1-1.5-1.3-2.3c-0.4-1.1-1.2-1.9-2.2-2.5
		c-1.4-0.8-2.8-1.8-4.2-2.6c-1.1-0.7-2.2-1.2-3.3-1.9c-0.4,0.9-0.7,1.7-1,2.4c-0.9,2.3-1.7,4.6-2.5,6.9c-0.1,0.4-0.4,0.4-0.7,0.4
		c-0.5,0-1-0.1-1.4-0.1c-1.5,0.1-2.9,0.2-4.4,0.4c-0.1,0-0.3,0.3-0.3,0.4c0,1.7-0.1,3.3,0.8,4.9c0.2,0.3,0.1,0.6-0.2,0.8
		c-0.7,0.5-1.4,1.1-2.1,1.6c-2.4,1.6-4.8,3.1-7.1,4.8c-1.2,0.8-2.3,1.7-3.1,3c-0.5,0.8-1.2,1.4-1.8,2.1c-0.3,0.4-0.7,0.7-0.9,1.1
		c-1,1.5-1.6,3.1-2,4.8c-0.2,0.7,0,1.2,0.7,1.3c0.7,0.2,1.4,0.2,2,0.3c0.7,0.1,1.4,0.1,2,0.4c1.2,0.6,2.4,0.8,3.7,0.8
		c1.1,0,2.2,0,3.3,0c0.7,0,1.3,0.2,1.8,0.6c0.7,0.6,1.6,0.9,2.5,0.8c1-0.1,2-0.4,2.9-0.7c1.1-0.3,1.1-0.3,0.9-1.5
		c-0.2-1.3-0.3-2.7,0.1-4c0.2-0.7,0.4-1.4,0.6-2.1c0.3-1.4,0.5-2.8,0.6-4.2c0.2-1.8,0.7-3.5,1.5-5.1c0.1-0.2,0.3-0.3,0.4-0.4
		c-0.3,1.3-0.8,2.5-1,3.8c-0.3,1.2-0.4,2.5-0.6,3.8c0.6-0.8,1.2-1.5,1.7-2.2c0.1-0.1,0.3-0.1,0.4-0.2c0,0.2,0,0.3,0,0.5
		c-0.1,0.2-0.2,0.4-0.3,0.6c-1,1.5-2,3.1-2.3,5c0,0.2-0.1,0.3-0.2,0.5c-0.6,1.7-0.5,3.3,0,5c0,0.1,0.1,0.2,0.2,0.3
		c0.3,0.1,1.6-0.3,1.8-0.5c0.4-0.7,1.1-1.2,1.8-1.6c0.2-0.1,0.5,0,0.8,0c-0.1,0.2-0.2,0.5-0.4,0.6c-0.6,0.6-1.1,1.1-1.8,1.6
		c-0.3,0.2-0.6,0.5-1,0.6c-1.5,0.3-3,0.5-4.5,0.9c-1.8,0.5-3.3,0.3-4.8-0.7c-0.3-0.2-0.8-0.4-1.2-0.4c-1.1,0-2.3,0-3.4,0
		c-1.3,0-2.7-0.2-3.9-0.9c-0.4-0.2-1-0.3-1.5-0.4c-1-0.2-2-0.3-3-0.5c-0.5-0.1-1-0.3-1.5-0.4c-2-0.2-3.9-0.8-5.6-1.9
		c-0.4-0.3-0.8-0.5-1.1-0.8c-0.4-0.3-0.6-0.3-0.8,0.3c-0.4,1.3-0.9,2.5-1.2,3.7c-0.6,2.2-1.7,4.1-2.7,6.1c-0.2,0-0.5,0-0.7,0
		c0.2-0.5,0.4-1,0.6-1.5c0.4-0.9,1-1.7,1.3-2.5c0.7-1.8,1.3-3.5,1.9-5.3c0.5-1.4,0.9-1.3-1-1.8c-1.4-0.3-2.8-0.8-3.9-1.7
		c-1.2-1.1-2.5-2.2-3.7-3.3c-0.1-0.1-0.2-0.1-0.2-0.2c-0.4,0.4-0.4,0.9-0.2,1.3c0.5,1.1,1.1,2.2,2.1,2.9c0.5,0.3,1,0.7,1.4,1.1
		c0.6,0.5,1.2,0.8,2,0.7c0.1,0,0.3,0.1,0.4,0.2c-0.1,0.1-0.2,0.3-0.3,0.4c-0.1,0.1-0.3,0.1-0.4,0.1c-1.1,0.2-2.2,0.4-3.2,0.7
		c-1.4,0.3-2.7,1-4.3,1c-1-0.1-1.9-0.1-2.9-0.4c-1-0.3-2.1-0.5-3-1c-0.4-0.2-0.7,0-0.9,0.3c-0.2,0.3-0.2,0.6,0.1,0.9
		c0.5,0.4,1,0.8,1.5,1c1.2,0.5,2.3,1,3.5,1.3c1.7,0.4,3.4,0.3,5.1,0.1c0.2,0,0.4,0.2,0.6,0.3c-0.2,0.1-0.3,0.4-0.5,0.4
		c-0.4,0.1-0.9,0.1-1.4,0.1c-1.9,0.1-3.7,0-5.5-0.8c-0.5-0.3-1.1-0.4-1.8-0.7c0.4,0.5,0.7,0.9,0.9,1.2c0.4,0.7,1,1.1,1.7,1.3
		c1.7,0.5,3.4,0.6,5.1,0.5c0.3,0,0.6,0,0.6,0.4c0,0.4-0.3,0.5-0.6,0.5c-0.3,0-0.7-0.1-1-0.1c-1.2-0.2-2.4-0.3-3.6-0.5
		c-0.4-0.1-0.7-0.2-1.3-0.3c0.2,0.3,0.4,0.5,0.5,0.8c0.3,0.6,0.8,0.9,1.5,0.9c1.3,0,2.7,0.1,4,0.2c0.1,0,0.3-0.1,0.4-0.1
		c0.1,0,0.3-0.1,0.5-0.1c0,0.2,0.1,0.4,0.1,0.5c-0.1,0.6-0.3,0.7-0.9,0.6c-0.2,0-0.5-0.1-0.7-0.1c-1.1-0.1-2.2-0.2-3.2-0.3
		c-0.1,0-0.2,0-0.3,0c0.2,0.4,0.4,0.7,0.6,1C57,88.3,56.6,88.3,56.2,88.3z M49.8,36.5c-0.7,0.4-1.3,0.8-1.9,1.2
		c-1.2,0.6-2.3,1.2-3.8,0.9c-2.1-0.4-3.9-1.2-5.6-2.4c-0.3-0.2-0.5-0.4-0.7-0.7c-0.8-1.5-1.6-3.1-2.4-4.6c0-0.1,0-0.2,0-0.2
		c0.1,0,0.2,0,0.3,0c0.1,0.1,0.2,0.2,0.2,0.3c0.4,0.8,0.7,1.6,1.2,2.3c0.5,1,0.9,2.1,1.9,2.7c1.2,0.7,2.5,1.3,3.8,1.8
		c2.1,0.8,4.1,0.2,5.8-1.1c1.1-0.8,1.5-2.1,2-3.2c0.5-1.2,0.6-2.6,0.9-3.8c0.8-2.9,1.2-5.8,1.1-8.8c-0.1-1.5,0.1-2.9-0.4-4.4
		c-0.2-0.7-0.3-1.5-0.3-2.2c0-0.4,0-0.8,0-1.2c-0.1-0.4-0.1-0.9-0.4-1.1c-0.6-0.4-1.3-0.7-1.9-1c-0.1,0-0.2,0-0.3,0.1
		c-0.3,0.2-0.6,0.3-0.9,0.5c-1,0.6-1.9,1.3-3.2,1.1c-0.7-0.1-1.3-0.3-2-0.6c-1-0.4-2-0.6-3.1-0.6c-0.7,0-1.5-0.2-2.2-0.3
		c-0.3,0-0.6,0-0.8,0.1c-1.1,0.8-1.4,2.1-1.7,3.3c-0.3,1.3-0.2,2.7-0.4,4c-0.1,0.9-0.4,1.9-1.3,2.4c-0.4,0.2-0.5,0.5-0.5,0.9
		c0.1,2-0.2,4,0.2,6c0.2,0.9-0.4,1.6-0.6,2.4c-0.2,0.8-0.8,1-1.4,1.3c-1.4,0.7-2.8,1.3-4.2,2c-0.1,0.1-0.2,0.2-0.2,0.3
		c0,1-0.2,2,0.3,2.9c0.8,1.5,1.7,2.9,3.1,3.9c2.1,1.6,4.3,3.1,6.5,4.6c0.9,0.7,1.8,1.4,2.7,2.1c1.1,0.9,2.2,2.1,3.5,2.7
		c0.5,0.2,1,0.4,1.5,0.6c0.8,0.4,0.9,0.3,1.4-0.5c0.7-1.2,1.4-2.4,2.1-3.6c0.3-0.5,0.7-0.9,0.9-1.4c0.6-1.7,0.5-3.5,0.5-5.3
		c0-0.3,0.1-0.7,0.1-1C49.7,38,49.8,37.2,49.8,36.5z M97.2,33c-0.4,0.2-0.6,0.3-0.8,0.3c-0.5,0.1-1.1,0.4-1.6,0.4
		c-0.7,0-1-0.4-0.9-1.1c0.1-0.6,0.4-1.2,0.6-1.8c0.1-0.4,0.3-0.9,0.3-1.3c0-0.2-0.1-0.4-0.3-0.5c-0.1-0.1-0.4,0-0.5,0.1
		c-0.3,0.3-0.5,0.7-0.7,1.1c-0.2,0.4-0.2,0.8-0.4,1.1c-0.2,0.2-0.5,0.5-0.7,0.5c-0.3-0.1-0.5-0.4-0.6-0.7c-0.2-0.5-0.1-1-0.3-1.5
		c-0.4-1.1-0.5-2.2-0.4-3.3c0-0.2,0-0.4-0.1-0.6c-1.5,0.3-2.8,0.1-4.2-0.2c-0.2-0.1-0.6,0.1-0.8,0.1c-0.1,0-0.3,0.1-0.4,0
		c-0.3,0-0.6-0.1-0.9-0.1c-1.3,0-2.7,0.1-3.9,0.6c-0.3,0.1-0.7,0.2-0.8-0.2c-0.1-0.4,0.2-0.6,0.5-0.7c0.7-0.2,1.4-0.3,2.1-0.4
		c0.6-0.1,1.3-0.1,1.9-0.1c0,0,0-0.1,0-0.1c-0.2-0.1-0.4-0.2-0.7-0.2c-0.5-0.2-1-0.3-1.4-0.6c-1.9-1.1-3.8-2.2-5.6-3.3
		c-0.6-0.4-0.8-0.3-1,0.4c-0.3,1.3-0.2,2.5-0.2,3.8c0,0.5,0.2,0.8,0.6,1c2,1,2.3,2.3,1.7,4.1c-0.4,1.2-0.8,2.3-1.1,3.5
		c-0.3,0.8,0,1.3,0.9,1.7c0.2,0.1,0.4,0.2,0.6,0.2c0.5-0.6,1.1-0.7,1.7-0.4c0.3,0.1,0.9,0,1-0.4c0.1-0.4,0.1-0.8-0.4-1
		c-0.1-0.1-0.2-0.3-0.3-0.4c0.2,0,0.3-0.1,0.5-0.1c0.5,0.2,0.7,0.6,0.7,1.1c0,0.5,0,0.9-0.5,1.1c-0.2,0.1-0.5,0.3-0.7,0.3
		c-0.6,0.2-1.3,0.3-1.9,0.4c0.1,0.3,0.2,0.6,0.3,0.9c0.5,1,0.5,0.9,1.6,0.8c1.2-0.1,2.5,0,3.7,0c0.1,0,0.3,0.2,0.4,0.3
		c-0.1,0.1-0.2,0.3-0.3,0.4c-1.1,0.8-2.1,1.6-3.5,1.8c0.2,0.6,0.3,1.2,0.5,1.8c0.3,1.2,0.8,1.6,2,1.5c0.9-0.1,1.8-0.2,2.6-0.4
		c0.8-0.2,1.7-0.3,2.4-0.6c1.8-0.8,3.4-2,4.2-4c0.1-0.3,0.2-0.7,0.4-1c0.1-0.2,0.3-0.5,0.5-0.6c0.1-0.1,0.2,0,0.4,0
		c0,0.1,0,0.3,0,0.4c-0.2,0.4-0.3,0.8-0.6,1.2c-0.4,0.8-0.7,1.6-1.3,2.2c-1.4,1.5-3.1,2.6-5.3,2.9c-0.9,0.1-1,0.4-0.7,1.2
		c0.3,1,0.5,2,0.7,3c0.2,1.5-0.4,2.8-1.2,4c-0.5,0.7-0.9,1.4-1,2.3c-0.1,0.9-0.2,1.8-0.2,2.7c0,1.1-0.3,2.1-0.9,3
		c-0.4,0.8-0.7,1.7-1,2.6c-0.1,0.2,0,0.4,0.1,0.5c0.6,0.6,2.2,0.5,2.7-0.1c0.9-1.1,1.8-2.2,2.8-3.2c0.5-0.5,0.7-0.9,0.4-1.6
		c-0.5-1.6-0.1-3,1.1-4.2c2.4-2.3,5-4.3,7.1-6.9c0.9-1.2,1.9-2.3,2.9-3.4c0.6-0.6,1.2-1.3,1.8-1.9c0.1-0.1,0.2-0.3,0.5-0.5
		c-0.4,0-0.6,0-0.9,0c-0.8,0.1-1.3-0.2-1.6-1c-0.8-1.9-1.3-3.9-1.3-6C97.2,33.7,97.2,33.4,97.2,33z M78.2,80.1c0.1,0,0.1,0,0.2,0
		c0.1-0.2,0.2-0.4,0.2-0.6c0.6-2.7,1.6-5.3,3.8-7.2c0.2-0.2,0.4-0.5,0.6-0.7c0.6-0.7,1.1-1.6,1.8-2.2c1-0.9,2.1-1.7,3.2-2.5
		c1.6-1.1,3.2-2.2,4.8-3.3c0.9-0.6,1.9-1.3,2.8-2c0.1-0.1,0.3-0.4,0.2-0.6c-0.6-1.6-0.7-3.2-0.6-4.8c0-0.1,0-0.3-0.1-0.4
		c-0.2-0.4,0-0.6,0.4-0.6c0.5,0,1,0,1.4,0c1.5-0.1,3-0.2,4.5-0.3c0.3,0,0.5-0.1,0.7-0.4c0.3-0.8,0.5-1.6,0.8-2.4
		c0.8-1.9,1.6-3.8,2.3-5.7c0.2-0.5,0.4-1.1,0.2-1.5c-0.6-1.4-1.5-2.6-2.6-3.6c-0.3-0.2-0.5-0.3-0.7,0c-0.3,0.5-0.7,1-1,1.5
		c-0.6,0.9-1.2,1.9-1.8,2.8c-0.9,1.3-1.7,2.7-2.6,4c-1.1,1.5-2.1,3.1-3.3,4.5c-1.5,1.6-3.2,3-4.8,4.5c-3.1,2.8-5.4,6.2-7.1,9.9
		c-0.6,1.3-1,2.7-1.5,4c-0.8,2.1-1.5,4.3-1.9,6.5C78.1,79.4,78.2,79.8,78.2,80.1z M75.9,54.6c0.8,0.2,1.5,0.3,2.1,0.5
		c0.2,0,0.4,0.2,0.4,0.3c0,0.1-0.1,0.4-0.2,0.5c-1.2,1.1-2.4,2.3-3.7,3.4c-0.3,0.3-0.5,0.6-0.5,1c0,0.7,0,1.4-0.1,2.1
		c-0.1,2.5-0.1,5,0.2,7.4c0.2,1.8,0.4,3.6,0.6,5.3c0.2,1.4,0.4,2.7,0.7,4.1c0.1,0.4,0.3,0.7,0.9,0.7c0-0.3,0.1-0.6,0.1-0.8
		c-0.3-2.3,0-4.7,0.3-7c0.4-2.3,0.9-4.6,1.4-6.9c0.2-1,0.7-2,1-3c0.5-1.8,0.9-3.6,1.6-5.4c0.6-1.5,1.4-2.8,2.2-4.2
		c0.6-1.2,1.3-2.4,1.9-3.6c0.3-0.6,0.3-1.3,0-2c-0.3,0.3-0.7,0.5-0.9,0.9c-0.7,1.2-1.9,1.8-3,2.5c-0.9,0.6-1.9,1.1-2.9,1.6
		C77.1,52.5,76.7,53.5,75.9,54.6z M76.3,52.9c-1.6,0.4-2.4,1.5-2.9,2.7c-0.7,1.7-1.4,3.4-1.9,5.2c-0.5,1.6-0.9,3.3-1.3,4.9
		c-0.2,0.9-0.2,1.7-0.5,2.6c-0.4,1.7-0.9,3.4-1.4,5c-0.1,0.4-0.4,0.7-0.5,1.1c-0.2,0.6-0.2,1.1-0.3,1.8c0.3,0.1,0.6,0.2,0.9,0.3
		c1.4,0.3,2.8,0.6,3.9,1.6c0.3,0.2,0.6,0.5,1,0.6c0.5,0.3,1,0.5,1.6,0.7c0-0.3,0-0.5,0-0.7c-0.2-1.5-0.4-3.1-0.6-4.6
		c-0.3-2-0.6-4.1-0.7-6.1c-0.1-2.7,0-5.4,0-8.1c0-0.3,0.2-0.6,0.4-0.9c0.6-0.6,1.3-1,1.9-1.6c0.6-0.5,1.1-1.1,1.7-1.8
		c-0.7-0.2-1.3-0.4-1.9-0.6c-0.6-0.2-0.6-0.4-0.3-0.9C75.7,53.8,76,53.4,76.3,52.9z M54.3,67.4c-0.4,1.3-0.9,2.5-2,3.3
		c-1.1,0.8-2.3,1.4-3.7,1.1c-0.2,1,0.1,1.3,1,1.3c0.4,0,0.8,0,1.2-0.1c0.3,0,0.6,0,0.6,0.4c0.1,0.4-0.3,0.4-0.5,0.4
		c-0.5,0-0.9,0.1-1.4,0.1c0.4,0.6,0.9,1.1,1.3,1.7c0.5,0.7,1,1.5,1.6,2.2c0.2,0.2,0.4,0.6,0.6,0.6c1.2,0.4,2.4,0.8,3.6,1.2
		c0.1,0,0.3,0,0.4,0c0.6,0.1,0.9-0.4,1.2-0.7c0.9-0.8,1.8-1.6,2.6-2.5c0.3-0.2,0.2-0.5,0-0.8c-0.3-0.6-0.6-1.2-0.9-1.8
		c-0.1-0.1-0.2-0.3-0.3-0.4c-0.3-0.3-0.6-0.6-0.8-0.9c-0.8-1.2-1.6-2.4-2.4-3.6c-0.1-0.2-0.3-0.3-0.4-0.5c0,0-0.1,0-0.1,0.1
		c0,0.2,0,0.4,0,0.7c-0.1,0.5-0.2,0.9-0.4,1.4c0,0.1-0.4,0.2-0.4,0.2c-0.1-0.1-0.3-0.4-0.2-0.5c0.3-0.6,0.3-1.2,0.3-1.8
		C55.3,67.7,55.2,67.6,54.3,67.4z M50.9,35.8c-0.1,0.3-0.3,0.5-0.3,0.8c-0.1,0.9-0.2,1.8-0.2,2.7c-0.1,1.5-0.1,3.1-0.2,4.6
		c0,0.6-0.2,1.1-0.5,1.6c-0.4,0.8-1,1.6-1.5,2.4c-0.7,1.2-1.2,2.4-1.9,3.6c-0.1,0.2-0.4,0.5-0.5,0.5c-0.9-0.2-1.8-0.2-2.6-0.7
		c-1.4-0.8-2.7-1.9-4-2.9c-0.6-0.5-1.1-1.1-1.8-1.5c-0.8-0.6-1.6-1.1-2.4-1.7c-1.1-0.8-2.2-1.7-3.3-2.5c-0.6-0.5-1.3-1-1.9-1.5
		c-1.1-0.9-1.9-2-2.6-3.2c-0.7-1-1.1-2-0.9-3.2c0-0.2,0-0.4-0.1-0.8c-0.4,0.5-0.7,0.8-1,1.1C25,35.2,25,35.4,25,35.5
		c0.1,0.6,0.1,1.2,0.2,1.7c0.2,1,0.5,2,1.2,2.7c0.8,0.7,1.6,1.4,2.4,2.1c0.8,0.7,1.5,1.3,2.3,1.9c0.9,0.7,1.6,1.6,2.6,2.2
		c1.8,1.2,3.4,2.9,5.5,3.8c0.2,0.1,0.3,0.2,0.4,0.3c0.7,0.5,1.5,1.1,2.2,1.6c0.8,0.6,1.6,1.1,2.4,1.6c0.4,0.2,0.7,0.5,1.1,0.6
		c0.2,0.1,0.5,0,0.7-0.1c0.6-0.7,1.2-1.4,1.8-2.2c0.5-0.6,1-1.2,1.4-1.8c0.4-0.6,0.6-1.4,0.9-2.1c0.7-1.2,0.8-2.5,0.9-3.8
		c0.2-2,0.2-4.1,0.3-6.1C51.4,37.2,51.4,36.5,50.9,35.8z M66.6,75.9c0.6-0.7,0.5-0.8,0.6-1.4c0.1-0.9,0.1-1.7-0.5-2.5
		c-0.3-0.5-0.5-0.8-1.1-1c-0.6-0.2-1.2-0.4-1.7-0.7c-0.6-0.3-1.2-0.8-1.8-1.2c-1-0.6-3-0.3-3.8,0.6c-0.2,0.3-0.3,0.5,0,0.7
		c0.3,0.4,0.6,0.8,0.8,1.2c0.2,0.3,0.4,0.5,0.6,0.9c0.1-0.2,0.1-0.3,0.1-0.3c0-0.5,0.2-0.7,0.6-0.9c0.4-0.2,0.7,0.1,1,0.4
		c0.2,0.1,0.3,0.3,0.6,0.5c0.1-0.6,0.2-1,0.3-1.5c0-0.2,0.2-0.3,0.3-0.4c0.1,0.2,0.3,0.3,0.3,0.5c0,0.4,0,0.9-0.1,1.3
		c-0.2,0.8-0.1,1,0.7,1.2c0-0.4,0.1-0.7,0.1-1.1c0-0.1,0.2-0.2,0.4-0.4c0.1,0.1,0.2,0.3,0.2,0.4c0,1,0.2,1.4,1.2,1.7
		c0.3,0.1,0.7,0.1,1.1,0.3c0.2,0.1,0.4,0.3,0.5,0.4c-0.2,0.1-0.4,0.2-0.6,0.2c-0.4,0-0.8-0.1-1.2-0.2c0,0,0,0.1-0.1,0.1
		C65.5,75.2,66,75.6,66.6,75.9z M97.1,30.1c0.7-0.8,1-1.8,0.7-2.9c-0.1-0.3-0.2-0.7-0.5-0.5c-0.5,0.2-1,0.6-1.3,1.1c0,0-0.1,0-0.1,0
		c-0.2-0.5-0.1-1,0.3-1.3c0.4-0.3,0.9-0.7,1.5-0.5c0.5,0.2,0.7,0.6,0.8,1.1c0.2,1.2-0.1,2.3-0.8,3.3c-0.6,0.8-1,0.8-1.6,0.1
		c-0.8,0.4-1.5,0.8-1.5,1.8c-0.1,0.7,0.2,0.9,0.9,0.7c2.7-0.9,3.9-3.8,3.8-5.9c0-0.7-0.3-1.4-1-1.7c-0.7-0.3-1.4-0.2-2.1,0.2
		c-0.2,0.2-0.3,0.5-0.4,0.8c-0.2,0.6-0.3,1.2-0.4,1.8c0,0.1-0.1,0.2,0,0.3c0.1,0.4,0.3,0.8,0.4,1.2C96.1,29.8,96.6,29.9,97.1,30.1z
		 M52.5,66.7c-0.1-0.3-0.1-0.5-0.2-0.6c-0.4-0.5-1.4-0.7-1.9-0.5c-1.5,0.6-2.4,1.7-3,3.1c-0.2,0.6-0.2,1.1,0.3,1.5
		c0.3,0.2,0.9,0.2,1.3,0.1c1.3-0.4,2.4-1.2,3.1-2.4C52.2,67.5,52.3,67.1,52.5,66.7z M102.5,16.5c0-0.6,0-1.2-0.6-1.6
		c-0.2-0.1-0.4-0.2-0.6-0.2c-0.1,0-0.2,0.3-0.3,0.5c-0.1,0.5-0.1,1.1-0.2,1.6c-0.4,2-0.7,4-1.7,5.8c-0.2,0.4,0,1,0.5,1.2
		c0.5,0.2,0.7-0.1,0.9-0.5C101.9,21.4,102.3,19,102.5,16.5z M32.7,22.8c0.1,0,0.2,0,0.3,0c-0.1-0.7-0.1-1.4-0.3-2
		c-0.1-0.5-0.4-1-0.7-1.4c-0.5-0.6-0.3-1.8-1.5-1.9c-0.5-0.1-0.8,0-0.8,0.6c0,0.5,0.1,1.1,0,1.6c-0.1,0.9,0.1,1.8,0.3,2.7
		c0.3,1.2,0.7,2.3,1.8,3.1c0.3,0.2,0.6,0.3,0.9,0.4c0.1-0.3,0.1-0.6,0.2-0.9c0.1-0.5-0.1-0.6-0.6-0.8c-0.6-0.2-1.3-0.5-1.4-1.2
		c-0.2-0.9-0.4-1.7-0.6-2.6c-0.1-0.4-0.3-1,0.3-1.2c0.4-0.2,0.8,0.3,1,1c0.1,0.2,0.2,0.5,0.3,0.7c0.5,0.4,0.6,0.9,0.6,1.5
		C32.5,22.4,32.6,22.6,32.7,22.8z M59,79.7c1.7-0.5,3.2-1,4.8-1.5c-0.7-0.5-1.3-1-2-1.5C60.9,77.6,60,78.6,59,79.7z M53.1,67
		c-0.8,2.2-2.4,3.4-4.6,4.1c0.2,0.1,0.5,0.2,0.7,0.3c1.6,0.1,3.9-1.7,4.2-3.2C53.5,67.7,53.6,67.2,53.1,67z M75.4,26.4
		c0,0.2,0,0.3,0.1,0.5c0.3,0.5,0.6,1,0.8,1.5c0.1,0.3,0.3,0.6,0.7,0.5c0.4-0.1,0.3-0.4,0.3-0.7C77.2,27,76.2,26.8,75.4,26.4z
		 M31,19.8c-0.1,0-0.1,0-0.2,0c0,0.2,0,0.5,0.1,0.7c0.1,0.6,0.4,1.3,0.5,1.9c0.1,0.6,0.5,0.9,1,1.1c-0.1-0.6-0.3-1.2-0.4-1.8
		c0-0.1-0.1-0.1-0.1-0.1c-0.6-0.1-0.5-0.7-0.7-1C31.1,20.3,31,20.1,31,19.8z M88.8,54.4c-0.1,0.1-0.1,0.2-0.2,0.3
		c0.4,0.5,0.9,1,1.3,1.5c0.1,0.1,0.3,0.1,0.4,0.1c0-0.2,0.1-0.4,0-0.5c-0.3-0.4-0.7-0.9-1.1-1.3C89.2,54.4,89,54.4,88.8,54.4z
		 M82,38.1c0-0.1,0-0.1,0-0.2c-0.9,0-1.8-0.2-2.6,0.3c0,0.1,0,0.1,0,0.2C80.3,38.3,81.1,38.2,82,38.1z M79.9,39
		c0.2,0.6,1.1,0.5,1.8-0.2C81,38.9,80.5,39,79.9,39z"/>
	<path class="st0" d="M112.5,88.3c-0.7-1.2-1.4-2.3-2.7-2.9c-0.1-0.1-0.3-0.1-0.3-0.2c-0.1-0.1-0.2-0.3-0.3-0.5
		c0.2,0,0.4-0.2,0.6-0.1c0.5,0.2,1,0.4,1.3,0.7c0.8,0.9,1.6,2,2.4,3C113.1,88.3,112.8,88.3,112.5,88.3z"/>
	<path class="st0" d="M21.8,73.7c0.1,2.2-0.2,4.3-0.6,6.3c-0.3,1.8-0.7,3.7-1,5.5c0,0.1,0,0.3-0.1,0.4c-0.1,0.1-0.3,0.2-0.5,0.2
		c-0.1,0-0.3-0.2-0.3-0.4c0-0.2,0-0.5,0-0.7c0.4-2.1,0.8-4.1,1.1-6.2c0.2-1.1,0.3-2.1,0.3-3.2c0.1-4.7-0.5-9.4-1.6-14
		c-0.5-2.2-1.3-4.3-2.2-6.3c-0.5-1.2-1.5-2.1-2.2-3.1c-0.1-0.1-0.1-0.5,0-0.6c0.2-0.2,0.5-0.5,0.8-0.1c0.3,0.3,0.7,0.7,0.9,1.1
		c0.9,1.2,1.6,2.5,2.1,3.9c0.4,1.3,1.1,2.5,1.5,3.9c0.5,1.8,0.8,3.6,1,5.4C21.3,68.5,21.5,71.1,21.8,73.7z"/>
	<path class="st0" d="M86.3,70.8c1.9,0.3,3.7,0.7,5.6,1c2.3,0.4,4.6,0.8,6.9,1.1c0.1,0,0.3,0,0.3,0.1c0.1,0.1,0.2,0.3,0.3,0.4
		c-0.1,0.1-0.3,0.2-0.4,0.2c-1.1-0.2-2.2-0.3-3.2-0.5c-2.5-0.5-5-1-7.5-1.4c-0.7-0.1-1.4-0.1-2.1-0.2c-0.2,0-0.4-0.2-0.5-0.3
		C85.8,71,86,70.9,86.3,70.8z"/>
	<path class="st0" d="M48.2,22c-0.1,1.3,0,2.3,0.5,3.4c0.4,0.8,0.9,1.6,0.8,2.6c-0.1,0.7-0.6,1.3-1.2,1.6c-0.6,0.3-1.2,0.4-1.7-0.2
		c-0.4-0.5-1-0.5-1.5-0.4c-0.5,0.1-0.8-0.1-1.1-0.6c-0.3-0.5-0.6-1.1-0.2-1.7c0.1-0.2,0.3-0.2,0.5-0.4c0,0,0.1,0.1,0.1,0.1
		c-0.1,0.1-0.1,0.3-0.2,0.4c-0.3,0.8,0.2,1.6,1,1.5c0.7,0,1.3,0.1,1.9,0.6c0.2,0.2,0.6,0.2,0.8,0.2c0.9-0.2,1.4-1.4,1-2.3
		c-0.3-0.9-0.7-1.7-1-2.6c-0.3-1.2-0.3-2.3,0.1-3.5c0.1-0.2,0.2-0.4,0.4-0.6c0.9-0.9,2-1.5,3.3-1.4c0.2,0,0.3,0.2,0.5,0.4
		c-0.1,0.2-0.2,0.4-0.4,0.4c-0.7,0.2-1.5,0.4-2.2,0.6c-0.3,0.1-0.6,0.2-0.9,0.3c-0.1,0.1-0.3,0.4-0.3,0.5c0.1,0.2,0.3,0.4,0.5,0.4
		c0.8,0,1.6,0.3,2.3-0.3c0.1-0.1,0.3,0,0.4,0c0,0.2,0,0.4-0.1,0.5c-0.6,0.8-1.4,0.8-2.3,0.7C48.9,22.2,48.6,22.1,48.2,22z"/>
	<path class="st0" d="M38.5,22.1c0.4-0.2,0.7-0.4,1-0.6c1.4-0.4,2.7-0.8,4.2-0.2c0.5,0.2,0.8,0.6,0.8,1c-0.5,0.2-0.9,0.4-1.3,0.6
		c-0.6,0.4-1.2,0.9-1.9,0.7c-0.5-0.1-1-0.3-1.5-0.6C39.4,22.8,39,22.5,38.5,22.1z M39.6,22.1c0.8,0.8,3.1,0.6,4.1-0.2
		C42.8,21.3,40.7,21.4,39.6,22.1z"/>
	<path class="st0" d="M50,31.3c-0.1,0.2-0.2,0.4-0.4,0.5c-0.7,0.4-1.4,0.7-2.2,1c-0.3,0.1-0.6,0.1-1,0.1c-0.9-0.1-1.7-0.3-2.6-0.4
		c-0.2,0-0.5,0.1-0.7,0.1c-0.1,0-0.3-0.1-0.4-0.2c0.1-0.1,0.2-0.4,0.3-0.4c0.5-0.1,1-0.1,1.5-0.1c0.1,0,0.2,0,0.3,0.1
		c1.5,0.5,2.9,0.2,4.2-0.6c0.2-0.1,0.5-0.2,0.8-0.2C49.9,31.2,50,31.3,50,31.3z"/>
	<path class="st0" d="M41.7,19.5c0.7,0.1,1.2,0.2,1.7,0.3c0.2,0.1,0.3,0.3,0.4,0.5c-0.2,0-0.4,0.1-0.6,0.1c-1.3-0.5-2.6-0.5-3.9,0.2
		c-0.2,0.1-0.4,0-0.6,0c0.1-0.2,0.2-0.5,0.4-0.5C40,19.9,40.9,19.7,41.7,19.5z"/>
	<path class="st0" d="M84.5,27.9c-1.1-0.3-2-0.3-3-0.2c-0.1,0-0.3,0.1-0.4,0.1c-0.1,0-0.3-0.1-0.4-0.2c0.1-0.1,0.2-0.3,0.3-0.4
		c1.2-0.3,2.3-0.3,3.5,0c0.3,0.1,0.6,0.2,0.9,0.3c0.4,0.1,0.4,0.5,0.1,0.6c-0.6,0.4-1.3,0.7-2,1c-0.7,0.3-1.5,0-2.1-0.3
		c-0.1-0.1-0.2-0.3-0.3-0.5c0.2-0.1,0.4-0.2,0.5-0.2C82.7,28.6,83.5,28.4,84.5,27.9z"/>
</g>
</svg>
