<?xml version="1.0" encoding="utf-8"?>
<!-- Generator: Adobe Illustrator 19.1.0, SVG Export Plug-In . SVG Version: 6.00 Build 0)  -->
<svg version="1.1" id="Layer_1" xmlns="http://www.w3.org/2000/svg" xmlns:xlink="http://www.w3.org/1999/xlink" x="0px" y="0px"
	 viewBox="0 0 120 154.5" style="enable-background:new 0 0 120 154.5;" xml:space="preserve">
<style type="text/css">
	.st0{fill:#8BC34A;}
</style>
<g id="pharm-tablet">
	<path class="st0" d="M0,145.1c3.2,0.6,6.5,0.6,9.8,0.3c0.3,0,0.6-0.1,1.1-0.2c-0.7-1.3-1.2-2.6-2.1-3.7c-1.6-2-2.6-4.3-3.2-6.8
		c-0.4-1.7-1-3.3-1.5-4.9c-0.8-3.1-0.7-6.2-0.3-9.3c0.5-3.5,1.1-7,1.6-10.5c0.1-0.7,0.3-1.3,0.5-2c1.7-6.8,2.4-13.8,3-20.8
		c0.2-2.4,0.3-4.8,0.7-7.2c0.2-1.3,1-2.6,1.5-3.9c1.8-4.3,4.4-8.1,7.6-11.4c1.7-1.7,3.8-2.8,5.9-4.1c1.4-0.9,2.9-1.5,4.4-2.2
		c2.7-1.3,5-3.1,7-5.4c1.7-2,3.6-3.9,5.5-5.7c0.7-0.7,1.1-1.3,0.9-2.3c-0.4-1.7-0.8-3.5-1.3-5.2c-0.7-2.1-1.6-4.2-2.3-6.4
		c-0.4-1.2-0.5-2.6-0.8-3.9c-0.4-1.7-0.9-3.3-1.5-4.9C35.6,21.8,35,19,35.4,16c0.4-2.6,1.3-5.1,2.9-7.2c0.8-1.1,1.6-2.1,2.5-3.1
		c2.5-2.8,5.6-4.8,9.3-5.4c2.3-0.4,4.7-0.5,6.6,1.4c0.4,0.4,1,0.5,1.6,0.7c0.9,0.3,1.9,0.6,2.8,0.7c5.2,0.8,7.4,4.6,8.8,9.1
		c0.6,2,0.6,4,0.1,6.1c-0.3,1.3-0.1,2.6-0.1,4c0.3-0.1,0.6-0.1,0.9-0.1c0.7,0,1.5,0.1,1.6,1c0.3,3.3,0.7,6.6-0.9,9.7
		c-0.2,0.4-0.5,0.9-0.9,1.2c-2.1,1.7-2.2,4.1-2.6,6.5c-0.4,2.4,0.3,4,2.1,5.5c2.5,2.2,5.3,3.9,8.4,5.1c3.2,1.2,6.5,2.4,9.8,3.5
		c2.1,0.7,4.2,1.4,6.2,2c2.6,0.8,5,1.9,6.3,4.5c2.1,4.1,4.3,8.2,6.3,12.4c0.5,1,0.3,2.2,0.5,3.3c0.5,2.7,1.1,5.4,1.6,8
		c0.9,5,1.9,10,2.8,15c1.1,6,2.4,12.1,3.3,18.1c0.4,2.5,0.4,5.2,0.4,7.7c0,0.8-0.4,1.8-1,2.5c-2.4,3.1-4.7,6.3-7.8,8.7
		c-1.6,1.3-3.4,2.4-5.2,3.5c-3,1.7-6.1,3.3-9.2,5c-0.2,0.1-0.4,0.2-0.6,0.3c-1,0.3-2.1,0.4-2.9,1c-0.8,0.6-1.3,1.6-2,2.4
		c-0.1,0-0.2-0.1-0.3-0.1c0.4,0.1,0.9,0.3,1.3,0.3c4,0,8,0,12.1,0c5.9,0,11.8,0,17.7-0.1c0.8,0,1.5,0,2.3,0c0,0.5,0,1,0,1.5
		c-3.1-0.1-6.3-0.1-9.4-0.2c-3.3-0.1-6.6-0.2-9.9-0.2c-6.3-0.1-12.5,0.1-18.8-0.2c-1.8-0.1-3.6-0.5-5.5-0.6c-1.1-0.1-2.2,0.1-3.3,0
		c-3.4-0.3-6.8-0.7-10.2-0.9c-2.9-0.2-5.9,0.1-8.8-0.1c-3.4-0.2-6.4,0.7-9.1,2.6c-1.3,0.9-2.7,2-4.1,2.7c-2.7,1.4-7.8,0.4-10.1-1.7
		c-0.4-0.4-1-0.9-1.4-0.8c-2.5,0.1-5.1,0.3-7.6,0.6c-2,0.2-3.9,0.5-5.8-0.5c-1.6-0.8-2-2.2-2.5-3.7c-0.3-0.9-1.1-1.3-2-1.3
		c-1.7,0.1-3.4,0.2-5.1,0.1c-2.1,0-4.2-0.2-6.3-0.3C0,145.9,0,145.5,0,145.1z M88.1,146c1.4-0.6,2.8-1.1,4.2-1.8
		c2.8-1.5,5.7-3,8.5-4.5c1.4-0.7,2.7-1.5,3.9-2.4c3-2.4,5.7-5.2,8-8.4c1.6-2.2,2.5-4.3,1.9-7c-0.1-0.6-0.1-1.2-0.2-1.8
		c-0.6-4.1-1.2-8.2-2-12.2c-0.4-2.1-1.1-4.2-1.3-6.4c-0.4-3.9-1.3-7.8-2-11.7c-0.6-3.2-1.3-6.3-1.7-9.5c-0.5-3.7-1.1-7.4-3.1-10.7
		c-1.9-3.2-3.1-6.8-6-9.4c-1.1-1-2.3-1.8-3.7-2.3c-3.7-1.3-7.5-2.6-11.3-3.9c-0.7-0.2-1.3-0.6-2-0.8c-1.6-0.6-3.2-1.2-4.8-1.8
		c-0.2-0.1-0.5,0.1-0.8,0.1c0.1,0.2,0,0.5,0.2,0.7c1.4,1.6,2.8,3.2,4.3,4.7c1.7,1.7,3.5,3.4,5.3,5.1c0.5,0.5,0.3,1-0.3,1.3
		c-0.9,0.4-1.7,0.8-2.6,1.3c-1,0.5-2.1,1-3.1,1.5c0,0.2-0.1,0.3-0.1,0.5c0.8,0.7,1.5,1.5,2.3,2.2c0.8,0.7,1.7,1.2,2.4,1.7
		c-1.1,0.9-2.2,1.7-3,2.7c-2.7,3.4-5.3,7-8.1,10.3C69.7,87.3,68,92,66,96.6c-0.2,0.4-0.3,0.8-0.3,1.2c-0.1,2.7-0.7,5.4-0.6,8.1
		c0.1,1.1-0.2,2.3-0.1,3.4c0.6,5.4,1.9,10.6,3.3,15.8c0.5,1.8,1.9,2,2.8,2.5c0.9-0.6,1.4-1.2,2.1-1.6c1.6-0.8,3.2-1.4,4.8-2.2
		c2.2-1.1,4.4-2.4,6.6-3.5c1.1-0.5,2.3-0.7,3.5-1.2c1-0.4,2.1-0.6,2.3-2c0.1-1.1,0.2-2.3,0.4-3.4c0.4-1.9,0.3-3.7-0.7-5.4
		c-0.6-1.2-1.3-2.5-1.5-3.8c-0.6-3.8-0.7-7.7,0.4-11.4c0.3-1-0.2-1.4-1.2-1.3c-2.9,0.4-5.7,0.9-8.6,1.2c-1.2,0.2-2.4,0.2-3.6,0.3
		c-0.3,0-0.7-0.2-1-0.4c0.3-0.3,0.5-0.7,0.8-0.8c0.7-0.2,1.5-0.2,2.3-0.2c3.9,0.2,7.6-0.9,11.4-1.6c0.3-0.1,0.8-0.5,0.9-0.7
		c0.3-2,0.5-4.1,0.7-6.1c0.1-1.2-0.2-2.4-0.2-3.6c0-1.4,0.2-2.9,0.4-4.3c0.1-0.4,0.3-0.8,0.5-1.2c0.1,0,0.2,0,0.4,0
		c0.1,0.3,0.3,0.7,0.3,1c0,2.9,0,5.7-0.2,8.6c-0.2,2.6-0.5,5.1-0.8,7.7c-0.1,0.7-0.4,1.3-0.6,2.2c2.9-1,3.6-3.8,5.4-5.6
		c0.2,0.5,0.4,1,0.2,1.3c-1.1,2.2-2.3,4.2-4.7,5.3c-1.1,0.5-1.6,1.4-1.6,2.6c0,3.7,0.3,7.3,1.8,10.7c0.9,2,1.2,4.2,0.7,6.4
		c-0.2,0.7-0.2,1.5-0.2,2.3c-0.1,0.8,0.3,1.2,1.1,0.8c1-0.6,2-1.2,2.9-2c3-2.5,7.3-2.7,10.3-0.3c0.1,0.1,0.1,0.2,0.3,0.6
		c-0.6,0.1-1,0.2-1.4,0.1c-0.7-0.1-1.4-0.3-2.1-0.6c-1.9-0.9-3.6-0.7-5.3,0.5c-2.1,1.5-4.2,3.2-6.8,3.7c0,0-0.1,0.1,0,0
		c1.4,1.1,2.9,2.2,4.3,3.3c1.7,1.4,3.4,2.8,5,4.2c0.2,0.2,0.1,0.6,0.2,0.9c-0.3-0.1-0.6-0.1-0.8-0.3c-0.8-0.7-1.4-1.5-2.2-2.2
		c-1.6-1.4-3.2-2.9-5-4.1c-1.3-0.9-2.9-1.6-4.6-1.1c-2.4,0.7-4.6,1.7-6.7,3c-1.5,1-3.2,1.7-4.8,2.4c-0.9,0.5-1.9,0.9-3,1.4
		c0.9,0.5,1.8,0.7,2.5,1.2c2.2,1.6,4.4,3.3,6.5,4.9c2.4,1.8,3.7,4.3,4.5,7.1C87.2,142.4,87.6,144.1,88.1,146z M23.5,87.6
		c0.2,0.8,0.3,1.5,0.5,2.2c2.1,5.1,3.9,10.2,4.4,15.7c0.4,3.6,1.4,7.1,1.9,10.7c0.4,2.9,0.7,5.8,1,8.7c0,0.3-0.1,0.6-0.2,0.9
		c-0.3,1.1,0,1.5,1.1,1.5c6.8-0.2,13.6-0.4,20.5-0.7c0.6,0,1.2-0.3,1.7-0.5c0.9-0.4,1.8-1,2.7-1.3c1.7-0.6,1.6-0.7,1-2.2
		c-2.1-4.8-4.4-9.5-6.7-14.2c-1.3-2.7-3-5.3-4.3-8.1c-1.2-2.8-3-5.3-4-8.3c-0.7-2.2-1.8-4.2-3-6.2c-1.8-2.9-3.8-5.6-5.9-8.3
		c-0.9-1.2-2.1-2.1-3.4-2.9c-1.3-0.8-1.4-0.9-0.4-2.2c1.9-2.3,3.8-4.7,5.8-7.2c-2-1-3.7-1.9-5.5-2.8c-1.3-0.6-1.4-0.8-0.5-2
		c0.4-0.5,0.7-1.1,1.1-1.6c-0.4-0.1-0.6-0.1-0.8,0c-3.3,1.8-6.6,3.5-9.7,5.5c-1.2,0.7-2.2,2-3.1,3.1c-1.1,1.3-2,2.7-3,4.1
		c-2.3,3.4-3.8,7.2-4.3,11.3c-0.4,3.7-0.5,7.4-1.1,11c-1,7.1-2.3,14.1-3.4,21.2c-0.6,3.9-1.9,7.6-1.4,11.6c0.2,1.3,0.2,2.6,1.1,3.6
		c0.3,0.3,0.3,0.9,0.4,1.4c0.4,3,1.3,5.8,3.1,8.3c0.8,1,1.3,2.1,2,3.2c0.3,0.5,0.6,1.1,1,1.3c1.6,0.8,2.2,2.2,2.7,3.7
		c0.3,0.9,0.5,1.8,1.7,2.1c0-0.4,0-0.7,0.1-1c0.2-1.8,1.1-3,2.9-3.4c1.4-0.3,2.9-0.3,4.4-0.3c1.6,0,2.5-0.9,3-2.4
		c0.7-2.3,1.5-4.5,3.3-6.1c0.8-0.7,0.6-1.4,0-2.2c-1.5-2-3-4.1-4.2-6.3c-0.6-1.1-1.2-1.7-2.3-1.9c-1.8-0.4-3.6-0.2-5,1.3
		c-0.2,0.2-0.8,0.1-1.2,0.2c0-0.4,0-0.8,0.2-1.2c0.1-0.2,0.4-0.3,0.5-0.5c2.1-1.7,4.4-1.6,6.7-0.9c0.3,0.1,0.9,0,1-0.2
		c0.7-1.1,1.2-2.2,1.9-3.3c0.4-0.7,0.4-1.3,0-1.9c-0.7-1.1-1.5-2.1-2.1-3.2c-2.4-4.1-4.9-8.3-7.2-12.5c-0.9-1.7-1.7-3.4-2.5-5.1
		c-0.2-0.4-0.2-0.9-0.2-1.3c0.2-0.1,0.3-0.1,0.5-0.2c2,3.8,3.9,7.7,6.1,11.5c2.1,3.7,4.2,7.5,7.1,10.8c0.1-1.2,0.2-2.3,0-3.3
		c-0.5-3-1.2-6.1-1.8-9.1c-0.4-2.2-0.4-4.4-0.9-6.5c-1.1-3.8-2.5-7.4-3.7-11.1C22.7,89.2,22.4,88.3,23.5,87.6z M67.6,35.9
		c-0.3-1.4-0.8-3.2-0.8-4.9c0-1.6-0.8-2.7-1.8-3.7c-1.2-1.2-2-2.7-1.9-4.5c0.1-1.5-0.3-3.1-1.4-4.2c-1.3-1.3-2.2-3-4.4-3.2
		c-1.4-0.1-2.6-0.1-3.5,0.8c-1.1,1.1-2,2.3-2.8,3.6c-1.1,1.6-3.5,3.2-4.9,2.8c-2-0.6-4-0.2-6-0.2c-1.1,0-1.5,0.7-1.4,1.6
		c0.5,3.5,0.7,7.1,1.9,10.6c1.2,3.4,2.2,6.9,3.3,10.4c0.2,0.6,0.4,1.1,0.7,1.7c0.6,1.4,1.2,2.8,2,4.1c0.9,1.6,1.9,3.1,3.1,4.5
		c1.9,2.1,4.3,2.3,6.9,1.6c2.4-0.6,3.9-2.3,5.3-4.2c2.8-3.7,4.9-7.7,5.4-12.3C67.3,38.8,67.4,37.5,67.6,35.9z M31,61.3
		c0.4,0.3,0.7,0.4,1,0.6c1.6,0.8,3.2,1.6,4.8,2.4c1,0.5,1.1,0.9,0.3,1.7c-0.7,0.8-1.4,1.6-2,2.4c-1.3,1.6-2.5,3.2-3.8,4.9
		c0.5,0.4,1,0.8,1.4,1.2c3.7,3.6,6.7,7.8,9.1,12.3c1.4,2.6,2.4,5.3,3.8,8c2.7,5.3,5.5,10.6,8.2,15.9c1.6,3.2,3.2,6.5,4.7,9.8
		c0.3,0.7,0.5,1.4,0.8,2.1c0.1,0,0.2,0,0.3-0.1c-0.4-2.2-0.6-4.5-1.1-6.7c-0.7-3.2-1.8-6.3-2.4-9.5c-1.3-7.2-3-14.3-4.9-21.3
		c-2.2-8.2-5-16.1-8.5-23.8c-1.4-3-2-6-1.6-9.3c0.1-0.9,0.1-1.8,0.2-2.7c-0.1-0.1-0.2-0.1-0.3-0.2C37.5,52.8,33.9,56.7,31,61.3z
		 M70.2,47.8c0,0.5,0.1,0.8,0.1,1.2c0,2,0.2,4.1,0,6.1c-0.3,3.4-0.8,6.9-1.3,10.2c-0.6,3.8-1.6,7.6-2.2,11.4
		c-0.9,5.4-1.6,10.8-2.4,16.2c-0.2,1.3,0,2.7,0,4.1c0.1,0,0.2,0.1,0.3,0.1c3.3-10.4,10-18.6,16.8-26.4c-1.2-1.4-2.5-2.7-3.7-4.1
		c-0.5-0.5-1-1-1.3-1.5c-0.1-0.2,0-0.6,0-0.9c0.3,0,0.8-0.1,1,0.1c0.9,1,1.9,0.6,2.8,0.1c0.9-0.4,1.9-0.9,2.8-1.3
		c0.3-0.2,0.6-0.5,1-0.8c-0.7-0.7-1.2-1.4-1.8-1.9c-2.7-2.4-5.8-4.3-7.4-7.8c-0.3-0.7-0.5-1.6-1.1-2.1
		C72.7,49.4,71.5,48.7,70.2,47.8z M66.9,124.8c-0.3-1.1-0.7-2.3-1.1-3.6c-1.6-6.3-2.3-12.7-2.7-19.2c-0.1-2.1,0.4-4.4-0.8-6.4
		c-0.1-0.1,0-0.3,0-0.4c-0.1-1.2-0.2-2.5-0.4-3.7c-0.6-2.8-1.4-5.6-1.9-8.4c-1.2-6.2-0.8-12.4,0.8-18.5c0.3-1.2,0.5-2.4,0.7-3.6
		c0.1-0.4,0.3-0.7,0.4-1c0.1,0,0.2,0,0.3,0c0.1,0.3,0.4,0.6,0.3,0.9c-0.1,1-0.2,2-0.6,3c-1.8,5.1-1.8,10.5-1.5,15.8
		c0.2,3,1.2,5.9,1.8,8.8c0.2,1.1,0.5,2.2,0.7,3.5c0.4-2.8,0.7-5.4,1.2-7.9c0.3-1.9,0.8-3.9,1.2-5.8c0.3-1.5,0.6-3,0.8-4.5
		c0.2-1.2,0.6-2.2,0.2-3.6c-0.6-1.9-0.5-4-0.6-6.1c-0.1-1.6-0.4-2.9-1.7-3.9c-1.3-1-1.6-1-2.9,0.1c-0.6,0.5-1.3,1-1.9,1.4
		c-0.4,0.3-0.8,0.6-1.3,0.9c2.4,2.1,2.5,2.9,0.7,5.5c-0.6,0.9-1.5,1.7-1.7,2.7c-0.4,2.4-0.9,4.9-0.4,7.3c0.8,3.9,0.9,7.9,1,11.8
		c0,0.2,0,0.4-0.1,0.6c-0.1,1.4-0.5,2.8-0.2,4.1c1.1,6.2,2.3,12.4,2.5,18.8c0,0.7,0.1,1.4,0.2,2.1c0.3,2.2,0.7,4.3,1,6.5
		c0.3,1.8,1.4,2.8,3.2,2.7C65.1,124.8,66,124.8,66.9,124.8z M30.8,138.2c-1.1,0.8-1.9,2.1-2,3.8c-0.1,1,0.1,2-0.1,3
		c-0.4,2.2,0.6,3.7,1.8,5.3c1.5,1.9,3.5,2.9,6,2.7c0.4,0,0.8-0.1,1.2,0c1.3,0.3,2.4-0.1,3.3-0.8c2.3-1.9,4.9-3.2,7.6-4.2
		c0.6-0.2,1.1-0.7,1.6-1c0-0.1-0.1-0.2-0.1-0.2c-0.3,0.1-0.5,0.2-0.8,0.3c-3.3,1.4-6.6,2.9-10,4.3c-0.9,0.4-1.9,0.4-2.9,0.5
		c-0.2,0-0.5-0.4-0.8-0.5c0.3-0.2,0.5-0.5,0.8-0.5c1.2-0.3,2.5-0.5,3.7-0.9c2.9-1.1,5.7-2.4,8.5-3.6c0.9-0.4,1.9-0.6,2.8-0.7
		c1,0,2.3-0.4,2.7-1.3c0.2-0.4,0-0.9-0.1-1.3c-0.3,0.1-0.7,0.2-1,0.3c-0.5,0.3-1,0.7-1.5,0.8c-5.6,1.8-11.2,3.3-17,4.2
		c-0.3,0.1-0.7-0.2-1-0.2c0-0.1,0-0.3,0-0.4c0.3-0.1,0.7-0.3,1-0.4c5.5-1.4,11-2.7,16.5-4c0.5-0.1,1-0.5,1.5-0.7
		c-1.3-2.3-2.7-1.9-4.4-0.9c-0.6,0.4-1.4,0.9-2.1,0.9c-3.4,0.3-6.8,1.2-10.3,0.9c-0.4,0-0.9,0.2-1.3,0.4c-0.8,0.6-1.4,0.4-2.2-0.4
		c0.5-0.3,0.9-0.6,1.4-0.7c1.1-0.2,2.2-0.3,3.3-0.4c3.1-0.3,6.1-0.5,9.2-0.8c0.5-0.1,0.9-0.7,1.3-1c-0.4-0.4-0.6-1-1.1-1.2
		c-0.9-0.3-1.8-0.5-2.7-0.5c-3.1-0.1-6.2,0-9.2-0.1C33.3,138.7,32.1,138.4,30.8,138.2z M72,138.6c1.2,0.7,3.9,0.3,5-0.7
		c0.8-0.7,1.5-0.8,2.5-0.5c0.6,0.2,1.3,0.5,2,0.5c0.4,0,1-0.2,1.3-0.5c0.2-0.2,0.1-0.9-0.1-1.2c-0.4-0.6-0.9-1.2-1.5-1.7
		c-2-1.6-4.1-3.2-6.1-4.8c-0.3-0.3-0.8-0.5-1.2-0.5c-2.4-0.1-4.4-1.4-6.3-2.5c-1.1-0.6-2.1-1.2-3.5-1c-0.9,0.1-1.7,0-2.4-0.8
		c-0.2-0.2-0.7-0.3-1.1-0.2c-0.9,0.2-1.7,0.4-2.6,0.7c-0.8,0.3-1.5,0.6-2.3,1c0,0.1,0,0.2,0,0.3c1.9-0.1,2.5,1.4,3.3,2.8
		c0.5-0.7,0.9-1.3,1.3-1.8c0.2-0.2,0.6-0.1,0.9-0.2c0,0.3,0.1,0.6,0,1c0,0.1-0.3,0.2-0.4,0.4c-0.4,0.8-1.3,1.7-1.2,2.4
		c0.2,1.3,0.9,2.6,1.4,4.1c0.5-0.7,0.8-1.1,1.2-1.6c0.8-1.1,1.6-2.2,2.5-3.3c0.2-0.2,0.6-0.3,0.9-0.5c0.1,0.2,0.4,0.5,0.4,0.7
		c-0.1,0.3-0.3,0.7-0.5,1c-0.3,0.3-0.7,0.5-1,0.9c-0.5,0.6-0.9,1.3-1.3,2c-1.3,1.9-0.8,3.3,0.3,4.8c0.5,0.7,1.3,0.9,2,0.5
		c0.4-0.2,0.6-0.9,0.8-1.4c0.2-0.5,0.1-1.1,0.3-1.5c0.8-1.3,1.7-2.7,2.6-3.9c0.2-0.2,0.6-0.2,1-0.4c0,0.4,0.1,0.8-0.1,1.1
		c-0.7,1-1.6,1.9-2.3,3c-0.3,0.6-0.5,1.3-0.5,2c0,1.3,1.2,1.8,2.3,1c0.2-0.2,0.5-0.4,0.6-0.6c1.2-1.4,2.3-2.8,3.5-4.2
		c0.2-0.2,0.6-0.2,0.9-0.3c0,0.3,0,0.7-0.2,0.9C73.8,136.5,72.9,137.5,72,138.6z M53.6,65.2c-0.1,0.2-0.2,0.3-0.3,0.4
		c-1.5,0.9-3,1.8-4.5,2.8c-0.7,0.5-1.1,1-0.7,2.1c1.7,5,3.2,10.1,4.8,15.2c2.1,6.5,3.7,13,4.6,19.8c0.2,1.1,0.6,2.1,0.9,3.2
		c0.1-0.6,0-1.2-0.1-1.8c-0.4-3.1-0.7-6.2-1.3-9.3c-0.7-3.5-0.7-6.9-0.3-10.5c0.2-2.1,0.1-4.4-0.4-6.5c-0.4-1.8-0.9-3.5-0.8-5.4
		c0.1-0.7,0.1-1.4,0.2-2.2c-0.9-0.3-1.8-0.5-2.7-0.8c-0.7-0.2-1.1-0.6-0.7-1.3c0.4-0.7,0.9-1.4,1.5-2.1
		C54.9,67.3,54.9,66.4,53.6,65.2z M67.3,45.2c-0.2,0.2-0.5,0.5-0.6,0.7c-0.8,1.5-1.5,3-2.3,4.5c-1.4,2.5-3.3,4.6-5.7,6.3
		c-1.8,1.3-6.5,1.6-8.3,0.1c-2.1-1.6-3.5-3.7-4.5-6c-0.2-0.5-0.5-1-0.7-1.5c-0.1,0-0.3,0-0.4,0.1c0.1,0.8,0.1,1.7,0.4,2.4
		c1.2,2.4,2.4,4.9,4,7c1.6,2.2,3.7,4.2,5.6,6.3c1.2,1.3,1.4,2.1,0.3,3.6c-0.6,0.8-1.2,1.5-1.9,2.4c1,0.3,1.9,0.5,2.6,0.7
		c0.2-0.6,0.3-0.9,0.5-1.3c0.7-1.1,1.4-2.3,2.1-3.4c1-1.5,0.9-2.1-0.6-3.3c-1.3-1.1-1.4-1.2,0.1-2.2c1.5-1,2.9-1.9,3.8-3.5
		C63.9,54,66.7,50.2,67.3,45.2z M77.6,139c-1,0.3-1.9,0.4-2.8,0.7c-0.5,0.1-1.3-0.1-1.1,1c0.8,4,3.5,8.2,9.1,7.9
		c2.3-0.1,3.7-1.4,3.6-3.7c-0.1-1-0.4-1.9-0.6-2.8c-0.1-0.6-0.3-0.8-1-0.7C82.1,141.7,79.6,140.8,77.6,139z M43.9,47
		c-0.1,0-0.2,0-0.3-0.1c-0.2,0.3-0.5,0.7-0.6,1.1c-0.9,4.1-1.7,8.1,0.7,12c0.1,0.2,0.2,0.5,0.3,0.7c1,2.5,2.1,5,3.2,7.5
		c1.8-1.2,3.6-2.5,5.4-3.7c-0.1-0.2-0.3-0.4-0.4-0.5c-2.8-2.5-4.7-5.5-6.4-8.7c-1.2-2.2-2.3-4.4-1.9-7C44.1,47.9,44,47.4,43.9,47z
		 M66.9,67.9c0.2,0,0.4,0,0.6,0c0.2-1,0.4-1.9,0.5-2.9c0.2-2.2,0.3-4.5,0.6-6.7c0.5-3.2,1-6.3,0.5-9.5c-0.1-0.5-0.1-1.1-0.3-1.6
		c-0.1-0.4-0.2-0.8-0.3-1.2c-0.1,0-0.3,0-0.4,0.1c-0.8,4.5-2.7,8.6-5.3,12.1c1.2,1,2.3,1.7,3.2,2.7c1,1.2,1,2.8,0.9,4.3
		C66.8,66.1,66.9,67,66.9,67.9z M63.5,141c0.3,1.3,0.7,2.7,1,4.1c0.1,0.4,0.4,0.9,0.3,1.3c-0.1,1.3,0,1.4,1.3,1.5
		c1.7,0.1,3.3,0.1,5,0.2c0.4,0,0.8-0.1,1.3-0.2c-0.6-2.7-1.2-5.2-1.8-7.8c-0.8,0.8-1.7,1.1-2.7,0.7c-0.9-0.3-1.7-0.3-2.5,0
		C64.8,141,64.1,140.9,63.5,141z M25.7,146.8c-1.5,0-3.2,0-4.8,0c-0.6,0-1.3,0.2-1.9,0.5c-0.9,0.4-1.6,2.1-1.1,3
		c0.2,0.3,0.6,0.7,1,0.7c2.1,0.2,4-0.6,5.8-1.6c0.1-0.1,0.3-0.2,0.3-0.3C25.3,148.3,25.6,147.5,25.7,146.8z M68.6,34.7
		c1.4-1.2,2.4-2.4,2.5-4c0.2-2.2,0.3-4.4,0.4-6.6c0-0.3-0.3-0.7-0.5-1.1c-0.4,0.3-0.9,0.5-1.1,0.9c-0.4,0.8-0.6,1.7-0.9,2.6
		c1.3,0.7,2.1,1.7,1.7,3.3c-0.3,1.3-0.6,2.8-2.4,3C68.4,33.4,68.5,34,68.6,34.7z M31.1,132.3c0.1,0,0.1-0.1,0.2-0.1
		c-0.4-1-0.9-1.9-1.2-2.9c-0.2-0.5-0.3-1.1-0.2-1.7c0.3-1.6-0.4-2.9-0.8-4.6c-0.5,0.9-0.8,1.5-1.1,2.1c-0.7,1.4-0.8,2.8,0.3,4
		C29.2,130.2,30.2,131.3,31.1,132.3z M72.3,140c-0.1,0-0.2,0.1-0.4,0.1c0,0.1-0.1,0.3,0,0.4c0.6,2.4,1.2,4.8,1.8,7.2
		c0.1,0.3,0.5,0.6,0.9,0.6c0.6,0.1,1.2,0,1.9,0c0-0.1,0.1-0.2,0.1-0.3C74.1,146,72.8,143.2,72.3,140z M69,32.1
		c1.4-2.3,1.6-4-0.1-4.5C69,29.1,67.7,30.5,69,32.1z M63.1,147.5c0-0.1,0-0.2,0-0.3c-3.6,0-7.3,0-10.9,0c0,0.1,0,0.2,0,0.3
		C55.9,147.5,59.5,147.5,63.1,147.5z M32.5,135c-0.1,0-0.2,0-0.4,0c-0.2,0.7-0.3,1.5-0.5,2.4c0.5,0.1,1,0.1,1.7,0.2
		C33,136.6,32.8,135.8,32.5,135z"/>
	<path class="st0" d="M56.3,34.6c2.2,1.3,4.1,1.5,5.8-0.4c0.1,0.1,0.2,0.2,0.3,0.3c-0.1,0.3-0.2,0.7-0.4,0.9c-1.1,1.1-2.4,1.4-3.9,1
		c-0.5-0.1-1.1-0.2-1.6-0.3c-0.4-0.1-1.2-0.4-1.2-0.5c0-0.6,0.2-1.4,0.6-1.7c0.7-0.5,1.7-0.8,2.6-1c0.9-0.3,1.9-0.4,2.8-0.6
		c0.3-0.1,0.7,0.1,1.1,0.1c-0.2,0.3-0.3,0.8-0.6,0.9c-0.8,0.3-1.6,0.5-2.5,0.7C58.3,34.2,57.4,34.4,56.3,34.6z"/>
	<path class="st0" d="M59.2,48.3c-0.3,0.3-0.6,0.6-0.9,0.7c-0.7,0.3-1.5,0.5-2.1,0.9c-1.7,1.2-3.4,1.1-5,0.1
		c-0.8-0.5-1.6-1.1-2.6-0.9c-0.1,0-0.3-0.2-0.5-0.3c0.5-0.7,1.2-0.7,1.9-0.6c1.1,0.2,2.2,0.6,3.3,0.7c0.7,0.1,1.4-0.2,2.1-0.4
		c1.2-0.3,2.4-0.6,3.6-0.9C59.1,47.9,59.2,48.1,59.2,48.3z"/>
	<path class="st0" d="M50.1,35.9c-1.8,0.2-2.9,2-5,1.6c-1.2-0.2-1.6-0.5-1.7-1.5c0.8,0.2,1.6,0.6,2.3,0.6c0.8,0,1.5-0.5,2.3-0.8
		c0-0.1,0-0.2,0-0.3c-1.6-0.2-3.3-0.4-4.9-0.6c-0.4-0.1-0.8-0.3-1.2-0.4c0.4-0.2,0.7-0.6,1.1-0.6c0.7-0.1,1.3,0,2,0
		c0.8,0,1.7,0,2.5,0.2c0.9,0.3,1.8,0.9,2.7,1.4C50.2,35.7,50.2,35.8,50.1,35.9z"/>
	<path class="st0" d="M50.3,42.4c0.1,0.1,0.2,0.2,0.2,0.2c-1,1.9,0.7,2.5,1.7,3.4c0.3,0.3,1.3,0.2,1.7-0.1c0.8-0.5,1.5-1.2,2.2-1.9
		c0.8-0.8,0-1.3-0.4-2.1c0.3,0,0.6-0.1,0.8,0c0.9,0.7,0.9,1.7,0.1,2.5c-0.7,0.7-1.5,1.4-2.3,2.1c-0.8,0.7-1.8,0.6-2.5-0.1
		c-0.5-0.4-1-0.9-1.4-1.3C49.3,44.3,49.3,43.3,50.3,42.4z"/>
	<path class="st0" d="M51.1,53.2c2-0.7,3.7-1.2,5.5-0.1c-0.1,0.2-0.2,0.4-0.2,0.4C54.7,53.4,53,53.3,51.1,53.2z"/>
	<path class="st0" d="M64.3,118.8c0,1.1-0.8,1.9-1.7,1.8c-0.8-0.1-1-0.6-1-1.3c0-0.9,0.6-1.6,1.5-1.5
		C63.8,117.8,64.3,118.1,64.3,118.8z"/>
	<path class="st0" d="M59,86.3c0.5,0.7,1.2,1.1,1.1,1.4c-0.1,0.5-0.6,1.3-1,1.4c-0.7,0.1-1.3-0.5-1.3-1.3C57.9,87.4,58.5,87,59,86.3
		z"/>
</g>
</svg>
