<svg id="Layer_1" data-name="Layer 1" xmlns="http://www.w3.org/2000/svg" viewBox="0 0 200 141.2"><defs><style>.cls-1{fill:#e65100;}.cls-2{fill:#6a1b9a;}</style></defs><title>problem | Self-care OTC</title><g id="problem-people"><path d="M63.3,122.3l-0.9,18.8H55.3l-1-19H47.6c-4.5-.1-5.8-1.1-6.1-5.6a57.5,57.5,0,0,1,.1-9.4A14.2,14.2,0,0,1,55.7,93.9h95.6c10.1,0,15.6,5.8,15.6,15.8,0,2.3,0,4.6-.2,6.9s-2,5.2-5.7,5.3h-7.2l-1,19.1h-7l-1.1-18.9H63.3Z"/><path class="cls-1" d="M30.5,94.4c3.5,12.8,7,25,10.2,37.2,0.8,3,.8,6.1,1.3,9.5H12a60.5,60.5,0,0,1,.1-6.7,3.2,3.2,0,0,1,1.9-1.9c2.7-1,5.5-1.8,8.5-2.7l-8.5-21L5.5,88.3C2.7,81.4,4.6,76.8,11,73.9l-9.2-30C1.2,42.1.7,40.3,0.2,38.5a7.1,7.1,0,0,1,13.6-4.3c1.8,4.8,3.4,9.6,5.1,14.4L19.6,50c3.2-4.4,5.9-8.8,9.3-12.8a59.1,59.1,0,0,1,9.9-9.8c5.2-3.8,14.2-.6,17.1,6,3.8,8.7,6.9,17.6,10.4,26.4,1.7,4.3,3.6,8.6,5.4,12.9s3.1,8.9,2.1,13.7S71.9,91,68.3,91s-7.9-.1-11.9,0c-2.1.1-4.4,0-6.1,0.9-5.1,3-10.6,2.4-16.1,2.4H30.5ZM23.1,72.7l18.1-1.3L34,59.3Z"/><path class="cls-1" d="M22.8,0A15.9,15.9,0,0,1,38.9,16c0,8.2-7.7,15.9-16.1,15.9a16.2,16.2,0,0,1-16-15.9A16,16,0,0,1,22.8,0Z"/><path class="cls-2" d="M181.8,55.2c1.9-5.3,3.4-10,5.2-14.6s7.8-6.3,11.3-2.4c1.9,2.1,2,4.5,1.2,7-2.7,9.1-5.3,18.1-8.1,27.2a35,35,0,0,1-2.5,5.1c1.2,1.9,3.2,4,3.7,6.4s-0.2,5.8-.7,8.6c-2.2,12.3-4.6,24.5-6.9,36.8-0.2.9-.2,1.8-0.4,3l3.1,1.3c5,1.9,5,1.9,4.5,7.5H169l2.8-44.4-2.6-.3a14.3,14.3,0,0,1-7.1-2.3,23.5,23.5,0,0,0-10-2.9,157.1,157.1,0,0,0-17.5-.1c-2.5.1-3.6-1-3.5-3.2s0.4-6.7,1.5-9.7q6.4-17.1,13.6-33.9a27,27,0,0,1,6-8.6c4.5-4.3,9.8-4.1,14.1.4s7.3,8.5,10.9,12.8C178.8,50.8,180.1,52.7,181.8,55.2ZM171.4,67.6c-2.2.8-4.2,1.3-5.8,2.3s-2.5,2.7-3.8,4.1l0.5,0.9L177.3,76l0.3-.8Z"/><path class="cls-2" d="M164.9,23.9a14.2,14.2,0,0,1,14.5-14A14.3,14.3,0,1,1,164.9,23.9Z"/><path class="cls-2" d="M162.6,20.5c-9.3-1.4-15.2,2.6-19.7,9.5-1.6-4.3.8-11.3,5-14.2s11.1-2.7,14.3.4C162.9,16.9,162.5,18.8,162.6,20.5Z"/></g></svg>