<?xml version="1.0" encoding="utf-8"?>
<!-- Generator: Adobe Illustrator 19.1.0, SVG Export Plug-In . SVG Version: 6.00 Build 0)  -->
<svg version="1.1" id="Layer_1" xmlns="http://www.w3.org/2000/svg" xmlns:xlink="http://www.w3.org/1999/xlink" x="0px" y="0px"
	 viewBox="0 0 150 96.3" style="enable-background:new 0 0 150 96.3;" xml:space="preserve">
<style type="text/css">
	.st0{fill:#673AB7;}
</style>
<g id="syringe-hand">
	<path class="st0" d="M37.5,32.5c2.3-0.4,4.6-0.9,6.8-1.3c0.1-0.4,0.1-0.8,0.2-1.2c0.1-0.9,0.1-1.9,0.1-2.8c0-0.6,0-1.2-0.1-1.7
		c0-0.2,0-0.5-0.1-0.7c-0.7-1.8-0.8-3.7-1.3-5.6c-0.3-1.1-0.7-2.2-1.1-3.3c-0.3-0.9-0.7-1.9-1-2.8c-0.1-0.2-0.2-0.4-0.3-0.7
		c-0.8-1.4-1.7-2.7-2.3-4.2c-0.6-1.5-1.6-2.9-1.9-4.5c-0.2-1.1-0.3-2.2-0.4-3.3c0-0.2,0.2-0.5,0.3-0.5c0.3-0.1,0.4,0.2,0.4,0.4
		c0.3,1.4,0.5,2.7,0.9,4.1c0.5,1.5,1.1,3,2,4.4c1.2,2,2.4,3.9,2.9,6.2c0,0.1,0.1,0.3,0.1,0.4c0.6,1,0.9,2.2,1.2,3.3
		c0.2,0.6,0.3,1.2,0.4,1.9c0.2,0.8,0.3,1.7,0.5,2.5c0,0.2,0,0.4,0.1,0.6c0.8,2.2,0.5,4.5,0.5,6.8c0,0.2-0.1,0.3-0.1,0.6
		c6.9-1.1,13.8-2.3,20.7-3.5c-0.9-1.7-0.7-3.4-0.3-5.1c0.1-0.6,0.5-1.2,0.8-1.7c0.2-0.4,0.4-0.7,0.6-1.1c0.1-0.1,0.2-0.3,0.3-0.3
		c1-0.7,2.1-1.4,3.1-2c1-0.6,2.1-0.6,3.2-0.5c2,0.3,3.6,1.4,5.2,2.4c1.1,0.7,2.1,1.4,3.1,2.1c0.1,0.1,0.3,0.1,0.4,0.2
		c-0.1-0.7-0.2-1.3-0.2-2c-0.2-2.2,0.3-4.2,2-5.8c0.7-0.7,1.6-1.2,2.6-1.2c0.5,0,0.9,0.2,1.4,0.3c0.6,0.1,0.8,0.5,1,0.9
		c1,1.7,2,3.5,3,5.2c0.1,0.3,0.4,0.5,0.7,0.7c0.5,0.4,1,0.8,1.5,1.2c0.5,0.4,1.1,0.7,1.7,1c1.5,0.8,3,1.5,4.5,2.2
		c0.6,0.3,1.2,0.4,1.8,0.6c1.3,0.5,2.5,1,3.8,1.5c1.5,0.6,2.9,1.2,4.4,1.8c1.4,0.6,2.9,1.1,4.3,1.7c0.7,0.3,1.4,0.5,2.2,0.6
		c1.9,0.5,3.4,1.6,4.6,3.1c1.3,1.8,2.6,3.6,3.9,5.4c1.8,2.4,3.5,4.8,5.3,7.2c1.2,1.7,2.5,3.4,3.7,5.1c1,1.4,2,2.7,3,4.1
		c0.7,0.9,1.6,1.6,2.5,2.2c1.1,0.7,2.2,1.5,3.2,2.2c1.5,1,3,2,4.5,2.9c0.6,0.4,1.3,0.8,2,1.2c0.1,0,0.1,0.2,0.2,0.2
		c0,0.3,0,0.7,0,1.1c-0.4-0.2-0.7-0.3-0.9-0.4c-2.4-1.5-4.7-3.1-7.1-4.7c-0.7-0.5-1.4-0.8-2.2-1.2c-1.4-0.6-2.3-1.6-3.2-2.7
		c-1.7-2.4-3.4-4.7-5.1-7.1c-1.6-2.3-3.3-4.5-4.9-6.8c-1.2-1.6-2.3-3.2-3.5-4.8c-0.9-1.3-1.9-2.6-2.9-3.8c-1.1-1.3-2.6-1.9-4.2-2.3
		c-1.1-0.3-2.3-0.5-3.4-0.9c-1.2-0.4-2.5-1-3.7-1.5c-1.2-0.5-2.4-1.1-3.6-1.6c-0.7-0.3-1.5-0.5-2.3-0.8c-1.2-0.5-2.3-1-3.5-1.5
		c-0.1-0.1-0.3-0.1-0.5-0.2c0.1,1.2-0.5,2.2-1.2,3.1c-0.1,0.1-0.3,0.2-0.5,0.2c0-0.2,0-0.4,0.1-0.5c0.6-0.8,0.9-1.6,0.9-2.6
		c0-0.3-0.1-0.5-0.4-0.6c-1-0.5-1.9-1.1-2.8-1.7c-0.1-0.1-0.3-0.1-0.5-0.2c-1.6-0.8-2.9-1.9-3.8-3.3c-0.7-1-1.2-2.3-1.8-3.4
		c-0.4-0.8-0.8-1.7-1.7-1.9c-0.4-0.1-0.9-0.2-1.2,0c-1.7,0.7-2.5,2.2-2.9,3.9c-0.3,1.3,0,2.5,0.3,3.7c0.5,1.9,1.1,3.7,2,5.4
		c0.6,1.2,1.1,2.4,2,3.4c0.8,0.8,1.6,1.5,2.4,2.3c0.6,0.6,1.4,1,2.2,1.3c0.1,0,0.1,0,0.2,0.1c0.6,0.5,0.6,0.5,1.4,0.4
		c0,0.6,0.5,0.9,0.9,1.2c1.3,0.9,2.6,1.7,3.9,2.4c1.2,0.6,2.5,1.1,3.7,1.4c1.1,0.3,2.2,0,3.2-0.6c0.6-0.3,1.1-0.7,1.7-1.1
		c0.3-0.2,0.6-0.1,0.6,0.2c0.1,0.4-0.1,0.7-0.4,0.8c-0.3,0.2-0.6,0.3-0.9,0.4c-0.7,0.4-1.4,0.7-2.1,1.1c0.4,0.7,1.1,1.3,1.9,1.6
		c1.4,0.5,2.8,0.6,4.3,0.5c1.9-0.2,3.7-0.6,5.6-0.5c0.5,0,0.9,0.1,1.5,0.2c-0.2,0.1-0.2,0.1-0.3,0.1c-0.3,0.1-0.5,0.3-0.8,0.4
		c-0.2,0.1-0.3,0.2-0.5,0.1c-1.2-0.2-2.4,0.1-3.6,0.2c-1.5,0.2-3,0.5-4.6,0.3c-0.5-0.1-1-0.3-1.5-0.5c-1-0.5-1.9-1-2.6-1.8
		c-0.2-0.3-0.6-0.4-0.9-0.4c-0.4,0-0.8-0.1-1.2-0.2c-0.3-0.1-0.4,0-0.5,0.2c-0.2,0.4-0.3,0.9-0.4,1.3c-0.5,2-0.5,4-0.2,6.1
		c0.3,1.6,0.9,3,1.8,4.3c0.9,1.2,1.8,2.3,2.6,3.6c0.6,1,1,2.2,1.6,3.2c0.7,1.2,1.3,2.5,2.1,3.6c0.6,0.8,1.5,1.4,2.3,2
		c1.5,1.2,2.9,2.3,4.4,3.4c0.4,0.3,0.7,0.5,1.1,0.8c0,0,0,0.1-0.1,0.1c-0.3-0.1-0.6-0.2-1-0.3c-1.2-0.4-2.5-0.8-3.7-1.2
		c-1.1-0.3-2.2-0.9-2.9-1.9c-0.6-0.8-1.2-1.7-1.6-2.7c-0.7-1.4-1.3-3-2-4.4c-0.4-0.8-0.8-1.5-1.3-2.2c-0.9-1.3-1.8-2.5-2.6-3.8
		c-0.5-0.8-0.8-1.7-1.1-2.6c-1-2.9-0.6-5.8-0.1-8.7c0.1-0.4,0.2-0.7,0.3-1.1c0-0.1,0-0.2-0.1-0.3c0-0.1-0.1-0.1-0.2-0.1
		c-1.8-0.6-3.3-1.8-4.8-2.8c-0.8-0.5-1.5-1-2.3-1.5c-0.4-0.2-0.8-0.3-1.2-0.4c-0.3,0.3-0.6,0.7-0.9,1.1c-0.3,0.3-0.6,0.2-1,0
		c-0.2-0.1-0.4-0.1-0.5,0c-1.1,0.6-1.8,1.5-2,2.8c-0.1,0.4,0.1,0.7,0.4,1c0.3,0.2,0.5,0.2,0.8-0.1c0.7-0.7,1.3-1.3,2-2
		c0.2-0.2,0.4-0.3,0.6-0.5c0,0,0.1,0.1,0.1,0.1c-0.2,0.2-0.4,0.4-0.5,0.6c-1.3,1.6-2.7,3.2-4,4.9c-0.2,0.3-0.3,0.6-0.5,1
		c-0.1,0.3-0.3,0.5-0.6,0.3c-0.8-0.3-1.6-0.6-2.4-1c-0.3-0.2-0.5-0.1-0.6,0.1c-0.2,0.2-0.4,0.5-0.6,0.8c0.8,0.1,1.5,0.2,2.2,0.3
		c0.9,0.1,1.8,0.2,2.6,0.5c1.7,0.5,2.7,1.8,2.9,3.6c0.2,2.4-0.4,4.5-2,6.2c-0.7,0.7-1.6,1-2.6,1c-0.3,0-0.6,0-0.9,0
		c0,0.1,0,0.1,0,0.2c0.2,0.1,0.5,0.2,0.7,0.3c1.2,0.4,1.8,1.3,1.9,2.5c0.1,1,0.1,2.1-0.3,3c-0.6,1.6-1.7,2.6-3.4,2.9
		c-0.3,0.1-0.5,0.1-0.4,0.5c0,0.2,0,0.5,0,0.7c-0.2,0.9-0.5,1.9-0.7,2.8c-0.2,1-0.4,2.1-0.7,3.1c-0.2,0.6-0.4,1.1-0.7,1.7
		c-0.2,0.4-0.1,0.6,0.3,0.8c1,0.7,2.1,1.4,3.1,2.2c0.1,0.1,0.3,0.2,0.4,0.2c0.8,0.2,1.5,0.8,2.1,1.3c0.8,0.6,1.6,1.1,2.5,1.8
		c0.7-4.3,2.1-8.2,3.8-12c0.5,0.4,0.5,0.4,0.3,0.9c-0.2,0.6-0.4,1.1-0.5,1.7c-0.4,1.3-0.9,2.7-1.2,4c-0.4,1.8-1.2,3.5-1.4,5.4
		c0,0.3,0,0.4,0.3,0.6c2,1.1,3.9,2.2,5.9,3.2c1.4,0.7,2.9,1.1,4.3,1.7c1.3,0.5,2.6,1,3.8,1.9c0.4,0.3,0.9,0.5,1.3,0.6
		c1.1,0.3,2.2,0.5,3.3,0.7c0.2,0.1,0.5,0.1,0.7,0.3c1,0.6,2.1,1,3.3,1.2c1.3,0.3,2.6,0.7,4,0.9c2.1,0.3,4.1,0.2,6.1-0.5
		c0.3-0.1,0.7-0.3,1-0.5c0.3-0.1,0.5-0.3,0.8-0.4c1.5-0.9,3.1-1.8,4.6-2.7c0.3-0.2,0.5-0.4,0.8-0.6c0.8-0.7,1.5-1.4,2.3-2.1
		c0.4-0.3,0.7-0.3,0.9,0c0.2,0.3,0.1,0.7-0.3,1c-0.1,0.1-0.2,0.1-0.2,0.2c-0.6,1.1-1.7,1.7-2.6,2.5c-0.4,0.4-0.9,0.7-1.3,1
		c-1,0.9-2.1,1.6-3.4,2c-0.3,0.1-0.5,0.3-0.7,0.5c0.3,0.1,0.5,0.2,0.8,0.3c0.3,0.1,0.6,0.1,1,0.2c2.7,0.6,5.4,1.2,8,2
		c1.1,0.3,2,0.9,3,1.4c0.5,0.2,0.9,0.5,1.3,0.8c0.2,0.1,0.2,0.4,0.3,0.6c-0.2,0.1-0.4,0.2-0.6,0.2c-0.2,0-0.4-0.1-0.6-0.2
		c-1.2-0.9-2.5-1.6-4-1.9c-2.5-0.6-5-1.2-7.5-1.8c-0.8-0.2-1.6-0.3-2.3-0.3c-0.6-0.1-1.2-0.1-1.8-0.1c-0.5,0-1,0.1-1.5,0.1
		c-1.6,0-3.1-0.1-4.7-0.1c-0.4,0-0.9-0.1-1.3-0.1c-1.6,0-3.1-0.7-4.6-1.2c-0.7-0.3-1.4-0.5-2.1-0.5c-1.2-0.1-2.2-0.5-3.3-0.9
		c-1.6-0.6-3.2-1.2-4.8-1.9c-1.1-0.5-2.3-1-3.4-1.6c-0.3-0.2-0.5-0.5-0.8-0.7c-1.1-0.7-2.2-1.3-3.3-1.9c-1.4-0.8-2.8-1.5-4.2-2.3
		c-1-0.6-2-1.3-2.9-1.9c-2-1.3-4-2.4-5.9-3.8c-1.6-1.1-3-2.5-4.4-3.8c-1.7-1.5-3.3-3-5-4.4c-0.8-0.6-1.7-1.1-2.5-1.6
		c-1-0.6-1.6-1.5-2-2.5c-0.3-1-0.5-2-0.2-3.1c0.1-0.5,0.3-1.1,0.4-1.6c0.1-0.3,0-0.4-0.2-0.6c-1.2-0.9-2.1-2.1-2.6-3.5
		c-0.4-1.2-0.5-2.5-0.1-3.8c0.2-0.6,0.4-1.1,0.7-1.7c0.1-0.2,0.1-0.4,0-0.7c-0.6-0.8-0.9-1.7-1-2.6c0-0.5,0.1-1,0.2-1.4
		c0.4-1,0.5-2.1,0.7-3.1c0.1-0.5-0.1-1-0.1-1.6c-0.6,0.1-1.1,0.1-1.6,0.2c-2.4,0.4-4.8,0.8-7.1,1.2c-1.3,0.2-2.6,0.5-3.9,0.7
		c-1.4,0.2-2.7,0.4-4.1,0.6c-0.6,0.1-1.2,0.2-1.8,0.3c-0.1,0-0.2,0.2-0.3,0.3c-0.1,0.3-0.2,0.6-0.3,0.9c-0.2,0.5-0.4,1-0.4,1.5
		c-0.1,1.1-0.4,2.2-0.7,3.2c-0.6,2.3-1.3,4.6-1.9,6.9c-1,3.7-2.1,7.3-3.6,10.8c-0.2,0.4-0.3,0.8-0.4,1.2c-0.4,1.9-1.3,3.7-2.4,5.3
		c-0.4,0.6-0.8,1.2-1.2,1.9c-0.1,0.1-0.1,0.2-0.2,0.4c0.1,0,0.2,0.1,0.3,0.1c0.8,0.2,1.6,0.3,2.3,0.4c1.9,0.4,3.7,0.8,5.6,1.1
		c2.1,0.3,4.2,0.8,6.3,1.2c2.1,0.5,3.6,1.8,4.9,3.5c0.7,0.9,1.3,1.8,2,2.7c0.4,0.5,0.9,1,1.3,1.5c0.8,0.8,1.6,1.6,2.4,2.5
		c0.2,0.2,0.3,0.5,0.5,0.7c-0.6,0.2-1,0.1-1.4-0.3c-0.9-0.9-1.8-1.8-2.6-2.7c-0.5-0.6-1-1.2-1.4-1.8c-0.6-0.9-1.3-1.7-1.9-2.6
		c-1.3-1.6-3.1-2.5-5.1-2.8c-2.5-0.4-5-0.8-7.5-1.3c-1.4-0.3-2.8-0.6-4.1-1c-0.6-0.1-1.3-0.1-1.9,0c-0.6,0.1-1,0.5-1.3,0.8
		c-1.5,1.5-3.2,2.7-5.1,3.8c-2.1,1.3-4.4,1.8-6.8,2.1c-1.3,0.1-2.7,0.1-4.1,0.2c-1.2,0.1-2.4-0.2-3.5-0.6c-0.7-0.2-1.5-0.3-2.2-0.5
		c-1-0.3-2-0.6-2.9-0.9c-0.5-0.2-1-0.4-1.5-0.6c-1.6-0.7-3.1-1.4-4.7-2.1c-0.1-0.1-0.3-0.1-0.3-0.2C0,77.5,0,77.3,0,77.2
		c0.1-0.1,0.2-0.2,0.4-0.3c0.1,0,0.3,0,0.5,0.1c1.7,0.9,3.5,1.7,5.3,2.3c0.5,0.2,1,0.5,1.6,0.6c0.8,0.2,1.7,0.4,2.5,0.6
		c0.9,0.2,1.8,0.5,2.6,0.7c0.4,0.1,0.8,0.2,1.1,0.2c2.3,0.1,4.6,0,6.9-0.5c1.3-0.3,2.6-0.6,3.8-1.2c1.5-0.7,2.9-1.6,4.1-2.7
		c3-2.4,5.3-5.5,6.8-9.1c0,0,0-0.1,0-0.1c0.4-2.1,1.4-4.1,2.1-6.1c0.6-1.9,1.3-3.8,1.8-5.8c0.7-2.5,1.4-5,2.1-7.6
		c0.2-0.7,0.4-1.5,0.7-2.2c0.1-0.2,0.1-0.4,0.2-0.6c0.2-1.2,0.4-2.4,0.6-3.6c-0.5,0.1-0.9,0.1-1.4,0.2c-1.9,0.3-3.9,0.7-5.8,1.1
		c-0.3,0.1-0.5,0.1-0.4,0.5c0,0.1,0,0.3,0,0.4c-0.6,1.3-0.6,2.7-0.7,4.1c-0.1,1.8,0,3.6-0.2,5.4c-0.2,1.9-0.1,3.9-0.7,5.7
		c-0.6,1.9-2.7,4.1-5.1,4.1c-1.7,0-3.4,0-5.1-0.5c-1.1-0.3-2.1-0.8-2.9-1.7c-0.6-0.7-1.4-1.4-2-2.2c-0.5-0.6-0.8-1.4-1.1-2.1
		c-0.3-0.6-0.5-1.2-0.7-1.7c-0.3-0.9-0.8-1.8-1-2.8c-0.4-1.4-1-2.7-1.6-4c-0.4-0.8-0.6-1.6-0.9-2.4c-0.5-1.2,0-2.2,0.7-3.2
		c0.5-0.8,1.1-1.6,1.6-2.4c0.9-1.5,1.9-2.8,2.9-4.1c1-1.3,1.9-2.6,3.2-3.6c0.8-0.6,1.6-1.1,2.4-1.7c1.4-1.2,3-2,4.7-2.6
		c2-0.7,4-0.9,6-0.2c0.3,0.1,0.6,0.3,0.8,0.6c0.3,0.5,0.6,1.1,0.8,1.7C37,31.3,37.2,31.8,37.5,32.5z M72,28.7c-0.9,0-1.7,0-2.4,0
		c-0.5,0-1,0-1.5-0.2c-0.4-0.1-0.8-0.2-1.3-0.1c-0.4,0.1-0.8,0.1-1.2,0.2c-2.1,0.4-4.2,0.8-6.3,1.1c-2.7,0.4-5.3,0.9-8,1.3
		c-1.4,0.2-2.7,0.4-4.1,0.6c-1.3,0.2-2.6,0.4-3.8,0.6c-0.5,0.1-0.9,0.2-1.3,0.3c-0.3,0.1-0.6,0.2-0.9,0.3c-0.1,0-0.2,0.2-0.3,0.3
		c-0.5,1.1-0.6,2.2-0.4,3.3c0.1,0,0.2,0.1,0.3,0c0.6-0.1,1.2-0.1,1.8-0.2c1.4-0.1,1.2,0,1.1-1.3c0-0.1,0.1-0.2,0.1-0.4
		c0.1,0.1,0.3,0.1,0.3,0.2C44,35,44,35.3,44,35.5c0,0.3,0.2,0.5,0.5,0.4c1.1-0.2,2.2-0.4,3.3-0.5c0.3,0,0.4-0.1,0.4-0.4
		c-0.1-0.4-0.2-0.7-0.2-1.1c0-0.2,0.1-0.3,0.1-0.5c0.1,0.1,0.3,0.2,0.4,0.3c0.1,0.3,0.2,0.6,0.2,0.9c0.1,0.6,0.1,0.6,0.7,0.6
		c0.1,0,0.1,0,0.2,0c1.3-0.2,2.6-0.4,3.8-0.6c0.3,0,0.4-0.1,0.4-0.4c-0.1-0.4-0.1-0.8-0.2-1.1c0-0.1,0.1-0.3,0.1-0.4
		c0.1,0.1,0.3,0.2,0.3,0.3c0.1,0.4,0.2,0.7,0.2,1.1c0,0.3,0.2,0.4,0.4,0.3c0.5-0.1,1-0.2,1.4-0.2c0.8-0.1,1.7-0.2,2.5-0.3
		c0.4,0,0.4-0.2,0.4-0.5c-0.1-0.4-0.1-0.7-0.2-1.1c0-0.1,0-0.3,0-0.4c0-0.1,0.3-0.1,0.3,0c0.1,0.1,0.2,0.3,0.2,0.4
		c0.1,0.4,0.1,0.8,0.1,1.1c0,0.3,0.2,0.4,0.5,0.3c1.4-0.3,2.8-0.5,4.2-0.8c0.7-0.1,1.5-0.3,2.2-0.4c0.1,0,0.3,0.2,0.4,0.2
		c-0.1,0.1-0.2,0.3-0.3,0.3c-1,0.2-2.1,0.3-3.1,0.6c-1.2,0.2-2.3,0.5-3.5,0.8c0.1,0.5,0.2,1,0.3,1.5c0,0.1,0,0.3,0,0.4
		c-0.1-0.1-0.3-0.1-0.4-0.2c-0.2-0.3-0.3-0.7-0.4-1c-0.1-0.4-0.2-0.5-0.6-0.5c-0.2,0-0.5,0-0.7,0c-0.9,0.1-1.8,0.3-2.7,0.4
		c-0.8,0.1-0.8,0.2-0.6,1c0,0.2,0.1,0.4,0.1,0.6c0,0.1-0.1,0.3-0.2,0.3c-0.1,0-0.2-0.1-0.3-0.2c-0.1-0.1-0.1-0.2-0.1-0.2
		c-0.1-0.3-0.1-0.7-0.3-1c-0.2-0.4-0.6-0.1-0.9-0.1c-1.1,0.2-2.3,0.3-3.4,0.5c-0.8,0.1-0.8,0-0.6,0.8c0,0.2,0.1,0.3,0.1,0.5
		c0,0.1-0.1,0.3-0.2,0.4c-0.1-0.1-0.3-0.1-0.4-0.2c0,0,0-0.2,0-0.3c0-0.9-0.2-1.1-1.1-1c-0.4,0.1-0.7,0.1-1.1,0.1
		c-0.7,0.1-1.4,0.3-2,0.4c0,0.5,0,1,0,1.4c0,0.1-0.2,0.2-0.3,0.3c-0.1-0.1-0.2-0.2-0.3-0.3c-0.1-0.2-0.1-0.5-0.1-0.7
		c-0.1-0.4-0.3-0.5-0.7-0.5c-0.5,0.1-1,0.1-1.5,0.2c-1,0.1-1.3,0.4-1.1,1.1c0.3,1.1,1,2.1,1.8,2.9c0.1,0.1,0.3,0.2,0.4,0.2
		c0.5,0,1.1-0.1,1.6-0.2c1.1-0.2,2.2-0.3,3.3-0.5c1.5-0.2,3-0.4,4.5-0.7c1.3-0.2,2.6-0.5,4-0.7c1.6-0.3,3.1-0.5,4.7-0.8
		c0.7-0.1,1.4-0.3,2.1-0.4c0.7-0.1,1.3-0.3,1.8-0.8c0.3-0.3,0.6-0.5,0.9-0.8c1-0.7,2.1-1.4,3.1-2c0.4-0.3,0.8-0.6,1.2-0.7
		c0.7-0.2,1.4-0.2,2.1-0.3c0.1,0,0.2,0,0.5,0C71.9,31.8,71.8,30.3,72,28.7z M74,44.8c-0.6,0.2-1.2,0.4-1.8,0.6
		c-1.2,0.4-2.4,0.9-3.7,1.3c-1.9,0.7-3.5,1.6-4.2,3.7c-0.5,1.6-0.4,3,0.6,4.3c0.6,0.8,1.4,1.4,2.1,2.1c0.1,0.1,0.5,0.1,0.7,0
		c1.4-0.8,2.8-1.7,4.2-2.5c0.5-0.3,1.1-0.5,1.7-0.5c0.9,0.1,1.9,0.1,2.8,0.3c1.1,0.1,2.1,0.4,3.2,0.5c1.2,0.1,2.5,0.1,3.8,0.1
		c0.7,0,1.3-0.1,2-0.3c2.3-0.6,4.2-3.1,3.7-5.4c0-0.2,0-0.3,0-0.5c-0.1-1.5-0.9-2.7-2.4-3c-1.3-0.3-2.6-0.5-3.9-0.6
		c-2.3-0.1-4.7-0.2-7-0.2c-0.4,0-0.6,0.1-0.8,0.5c-0.6,1.1-0.8,2.3-0.8,3.5c0,0.4,0,0.9,0,1.3c0,0.1-0.2,0.3-0.2,0.4
		c-0.1-0.1-0.3-0.2-0.3-0.4c-0.1-0.2-0.1-0.4-0.1-0.6c0-0.9,0.1-1.8,0.2-2.7C73.6,46,73.8,45.4,74,44.8z M75,64
		c0.3-0.1,0.4-0.1,0.5-0.1c1.1-0.1,2.3-0.1,3.4-0.1c1.5,0,2.9-0.1,4.3-0.5c1.1-0.3,1.9-0.9,2.4-2c0.5-1.1,0.4-2.3,0.1-3.4
		c-0.1-0.3-0.3-0.6-0.6-0.8c-0.6-0.3-1.2-0.7-1.9-0.8c-2-0.5-4-1.1-6-1.3c-0.9-0.1-1.9-0.3-2.8-0.4c-0.4-0.1-0.6,0-0.6,0.5
		c0,0.2-0.1,0.4-0.1,0.6c-0.2,1.2-0.3,2.4,0.3,3.5c0.1,0.2,0.2,0.4,0.1,0.5c0,0.2-0.2,0.4-0.3,0.4c-0.1,0-0.3-0.1-0.4-0.3
		c-0.7-1.4-0.8-2.8-0.5-4.3c0.1-0.3,0.1-0.6,0.1-0.8c-0.3,0.1-0.6,0.1-0.8,0.3c-1.3,0.8-2.7,1.7-4,2.5c-0.2,0.1-0.3,0.3-0.5,0.4
		c-0.6,0.5-0.6,1.3-0.7,2C66.7,61.5,67,63,68.5,64c1.4,1,2.8,2.1,4.2,3.1c1,0.7,1.9,1.5,2.9,2.2c0.5,0.4,1,0.8,1.5,1.3
		c0.6,0.7,1.2,1.4,1.9,2.1c0.5,0.5,0.7,0.5,0.9-0.2c0.2-0.7,0.3-1.4,0.6-2c0.7-1.7,0.8-3.5,1.2-5.3c0.1-0.3,0-0.4-0.4-0.4
		c-1.3,0-2.7,0-4-0.1c-0.2,0-0.3,0-0.5,0.1c-0.9,0.3-1.7,0.7-2.6,1c-0.5,0.2-1.1,0.2-1.5,0c0.1,0,0.1-0.1,0.2-0.1
		c0.7-0.3,1.4-0.6,2.1-0.9C75.3,64.6,75.6,64.4,75,64z M69.4,34.7c-0.2,0.1-0.4,0.1-0.5,0.2c-1.1,0.7-2.2,1.4-3.2,2.3
		c-0.8,0.7-1.4,1.6-1.3,2.8c0.2,1.3-0.1,2.6-0.4,3.9c-0.1,0.6-0.2,1.2,0,1.8c0.1,0.5,0.5,0.9,0.7,1.4c0.1,0.3,0.3,0.3,0.6,0.2
		c0.7-0.3,1.4-0.7,2.1-0.9c1.8-0.7,3.7-1.3,5.6-2c1-0.4,2-0.6,3.1-0.5c1,0.1,2.1,0.1,3.1,0.1c1.2,0,2.2-0.6,2.7-1.7
		c0.7-1.2,0.8-2.6,0.4-3.9c-0.4-1.6-1.7-2.9-3.3-3.2c-1.3-0.3-2.7-0.6-4-0.8c-1.1-0.2-2.2-0.2-3.4-0.3c-0.4,0-0.9,0.1-1.1,0.3
		c-0.7,0.9-1.1,1.8-1.1,3c0,0.5,0,0.9,0,1.4c0,0.1-0.1,0.2-0.2,0.3c-0.1-0.1-0.2-0.2-0.3-0.3c-0.1-0.1,0-0.3,0-0.4
		C68.7,37.1,68.8,35.8,69.4,34.7z M78.4,28.7c0,0,0.1,0.1,0.1,0.1c0.1,0,0.2,0,0.3,0c0.6-0.1,1.3-0.2,1.9-0.3c1.3-0.3,2.6-0.6,4-0.9
		c0.3-0.1,0.4-0.2,0.2-0.6c-0.3-0.6-0.6-1.3-0.9-2c-0.3-0.7-0.5-1.6-1.3-2c-0.4-0.2-0.7-0.4-1.1-0.7c-1.1-0.7-2.3-1.3-3.4-2
		c-0.9-0.6-1.7-1.4-2.7-2c-1.3-0.8-2.7-1.1-4.2-0.5c-0.6,0.3-1.3,0.5-1.9,0.9c-1.9,1.3-3.3,2.9-3.1,5.4c0.1,1.3,0.6,2.5,1.8,3.1
		c0.8,0.4,1.8,0.5,2.7,0.5c2.3-0.1,3.7-1.5,4.5-3.4c0.6-1.4,0.8-3,0.6-4.6c0-0.1,0-0.3,0-0.4c0.1,0.1,0.2,0.1,0.2,0.2
		c0.3,1.1,0.3,2.2,0.2,3.4c0,0.3,0,0.6,0.1,0.9c0.6,0.8,0.9,1.8,1.2,2.7c0.1,0.4,0.2,0.8,0.3,1.2c0.7-0.4,1.2-0.9,1.5-1.6
		c0.3-0.7,0.2-1.4,0.2-2.2c0-0.2,0-0.4,0.1-0.6c0.1,0,0.1,0,0.2,0c0.1,0.2,0.2,0.4,0.2,0.6C80.7,26.1,80,27.6,78.4,28.7z M15.2,47.4
		c0,0-0.1,0.1-0.1,0.1c0.1,0.2,0.2,0.4,0.3,0.6c0.2,0.4,0.4,0.8,0.6,1.2c0.4,1.1,0.8,2.3,1.2,3.5c0.5,1.2,1,2.3,1.4,3.5
		c0.4,1.1,0.7,2.2,1.7,3c0.1,0.1,0.2,0.2,0.2,0.3c1.1,1.3,2.2,2.3,3.9,2.7c1.4,0.3,2.8,0.4,4.2,0.4c1.6,0,2.7-0.7,3.7-1.8
		c1-1.2,1.3-2.7,1.4-4.3c0.1-1.4,0.1-2.7,0.1-4.1c0-1.2,0-2.5,0.1-3.7c0-1,0.2-2,0.2-3c0-1.7,0-1.7-1.4-2.2c0,0-0.1,0-0.1,0
		c-0.3-0.1-0.4,0-0.4,0.3c0,0.6,0,1.2,0,1.8c0,1.2-0.1,2.4-0.4,3.5c-0.2,0.6-0.2,1.2-0.3,1.7c-0.2,0.7-0.3,1.4-0.6,2.1
		c-0.3,0.7-0.6,1.4-0.6,2.1c-0.1,1.5-1.3,2.5-2.8,2.5c-0.5,0-0.9,0-1.4,0c-0.6-0.1-1.2-0.1-1.7-0.3C23,56.8,21.7,56.3,21,55
		c-0.1-0.1-0.2-0.2-0.3-0.3c-0.9-0.9-1.7-1.8-2.4-2.9c-0.8-1.3-1.8-2.3-2.5-3.7C15.7,47.9,15.4,47.7,15.2,47.4z M23.7,55.9
		c0,0,0,0.1,0,0.1c0.2,0.1,0.5,0.3,0.7,0.4c1.1,0.3,2.3,0.2,3.5,0.2c0.1,0,0.3-0.1,0.4-0.2c0.5-0.4,0.8-0.9,0.9-1.6
		c0-0.5,0.1-1.1,0.3-1.5c0.6-1.1,1-2.3,1.1-3.6c0-0.1,0.1-0.3,0.1-0.4c0.2-0.8,0.4-1.6,0.4-2.4c0.1-1.4,0.1-2.8,0.1-4.2
		c0-0.1,0-0.3-0.1-0.4c-0.3-0.7-0.6-1.3-0.9-2c-0.1-0.2-0.2-0.4-0.5-0.3c-0.8,0.3-1.7,0.2-2.6,0.2c-0.6,0-1-0.3-1.2-0.8
		c-0.1-0.2-0.2-0.4-0.2-0.6c-0.4-1.3-0.2-2.4,1.2-2.8c0.9-0.3,1.8-0.5,2.7-0.6c0.4-0.1,0.6-0.2,0.7-0.6c0.4-0.8,0.9-1.4,1.9-1.5
		c0.5,0,1-0.2,1.6-0.3c-1-1.2-1.8-1.5-3.4-1.1c-0.6,0.2-1.2,0.5-1.8,0.8c-1.2,0.6-2.5,1.1-3.7,1.7c-0.8,0.4-1.5,0.9-2,1.6
		c-0.5,0.6-1.1,1.3-1.7,1.9c-0.6,0.7-1.2,1.4-1.8,2.1c-0.1,0.1-0.1,0.3,0,0.4c0.1,0.1,0.3,0.2,0.4,0.1c0.2-0.1,0.4-0.2,0.4-0.4
		c0.3-0.9,1-1.5,1.9-1.6c0.9-0.1,1.8,0,2.8,0c0.1,0,0.3,0.1,0.3,0.1c0.3,0.5,0.1,1.2-0.4,1.4c-0.6,0.2-0.7,0.7-0.9,1.2
		c-0.1,0.3-0.3,0.7-0.5,0.9c-0.4,0.4-0.3,0.6,0.1,0.8c1.3,0.8,2.1,1.9,2.7,3.2c0.6,1.3,1.4,2.6,2.2,3.8c1.2,1.7,0.8,3.8-1.2,4.7
		c-1,0.5-2.1,0.8-3.2,1.2C23.9,55.8,23.8,55.8,23.7,55.9z M28.1,51.9c0-0.9,0-1.1-0.5-1.8c-0.7-1-1.4-2-1.9-3.2
		c-0.6-1.4-1.4-2.7-2.7-3.5c-0.3-0.2-0.6-0.5-0.8-0.8c-0.1-0.1-0.2-0.2-0.4-0.3c-0.5-0.3-1-0.6-1.5-0.9c-0.5-0.3-1.3-0.3-1.8,0.1
		c-0.4,0.3-0.4,0.4-0.1,0.8c0.2,0.2,0.4,0.5,0.7,0.6c1,0.7,1.6,1.6,1.9,2.7c0.2,0.8,0.5,1.6,1.3,2c0.1,0.1,0.2,0.2,0.3,0.3
		c0.1,0.2,0.2,0.5,0.1,0.6c-0.1,0.1-0.4,0.2-0.6,0.1c-0.2-0.1-0.4-0.4-0.6-0.5c-0.6-0.5-1-1.2-1.2-1.9c-0.4-1.4-1.1-2.5-2.6-3
		c-0.3-0.1-0.4-0.1-0.7,0.1c-0.7,0.6-1.3,1.2-2,1.8C15,45.3,15,45.5,15,45.6c0.2,0.4,0.4,0.8,0.7,1.1c0.3,0.3,0.6,0.6,0.8,1
		c0.7,1.3,1.6,2.3,2.4,3.5c0.7,1.1,1.6,2,2.5,2.9c0.7,0.7,1.5,1,2.4,0.7c1.1-0.3,2.2-0.7,3.2-1.2C27.7,53.3,28.3,52.7,28.1,51.9z
		 M36.3,32.6c0-1.2-0.4-2.2-1.1-3.2c-0.1-0.2-0.3-0.3-0.5-0.3c-1.6-0.6-3.3-0.4-4.8,0c-1.6,0.5-3.2,1.2-4.5,2.3
		c-0.3,0.3-0.7,0.4-1.1,0.7c-0.6,0.4-1.2,0.8-1.8,1.2c-1.2,1-2.1,2.3-3.1,3.5c-1.5,1.9-2.8,3.9-3.9,6c-0.2,0.4-0.3,0.8-0.5,1.2
		c0,0,0.1,0,0.1,0.1c0.1-0.1,0.3-0.2,0.4-0.3c1.2-1,1.9-2.5,2.8-3.8c0.4-0.6,0.8-1.3,1.3-1.8c0.9-1,1.8-2,2.8-3
		c0.7-0.8,1.5-1.4,2.5-1.8c1.2-0.5,2.3-1,3.4-1.5c1.3-0.6,2.5-1.2,4-0.9c0.4,0.1,0.7,0.2,1.1,0.4c0.4,0.3,0.7,0.6,1.1,1
		C35.1,33,35.5,33,36.3,32.6z M41.2,41.5c-0.1-0.2-0.1-0.3-0.2-0.4c-0.7-0.9-1.2-1.9-1.5-2.9c-0.2-0.5-1-0.8-1.4-0.5
		c-0.1,0-0.1,0.2-0.1,0.2c0,0.3,0,0.6,0,0.9c0,0.2-0.1,0.3-0.2,0.4c-0.1-0.1-0.2-0.2-0.3-0.4c-0.1-0.3-0.1-0.6-0.1-0.8
		c0-0.3-0.2-0.4-0.4-0.3c-0.7,0.1-1.4,0.1-2,0.2c-0.3,0-0.4,0.2-0.3,0.5c0,0.2,0,0.5,0,0.7c0,0.1-0.2,0.2-0.3,0.4
		c-0.1-0.1-0.3-0.2-0.3-0.4c0-0.3,0-0.5,0-0.8c0-0.2-0.1-0.3-0.3-0.3c-0.7,0-1.5,0-2.2,0.1c-0.1,0-0.3,0.2-0.4,0.3
		c-0.4,0.7-0.1,1.4,0.2,2c0.2,0.7,0.6,1.4,1.2,1.9c0.3,0.3,0.7,0.4,1.1,0.4c0.9-0.1,1.8-0.3,2.6-0.4c0.6-0.1,1.3-0.2,1.9-0.3
		C39.1,41.9,40.1,41.7,41.2,41.5z M89,35.3c-0.5-0.8-0.8-1.4-1.2-2.1c-0.3-0.6-1-1-1.9-0.8c-1.8,0.4-3.6,0.8-5.4,0.9
		c-0.2,0-0.4,0.1-0.6,0.1c-0.2,0.1-0.5,0-0.5,0.4c0,0.3-0.2,0.8,0.4,0.9c0.7,0.2,1.2,0.5,1.7,1c0.4,0.4,0.9,0.7,1.4,1
		c0.7,0.5,1.5,0.8,2.2,1.3c0.5,0.3,0.9,0.7,1.5,1.1c0.1-0.5,0.1-0.8,0.2-1.2c0.1-0.6,0.3-1.1,0.8-1.5C88,36,88.5,35.6,89,35.3z
		 M75.8,32.9c0.1,0,0.2-0.1,0.3-0.1c0.7-0.1,1.3-0.4,2-0.4c1.8,0.1,3.6-0.3,5.4-0.5c1-0.2,2.1-0.3,3.1-0.5c0.1,0,0.2,0,0.3-0.1
		c0.3,0,0.4-0.2,0.2-0.5c-0.2-0.3-0.4-0.6-0.6-0.9c-0.3-0.5-0.6-1-0.9-1.6c-0.1-0.3-0.3-0.3-0.6-0.2c-0.7,0.2-1.4,0.4-2.1,0.5
		c-1.3,0.2-2.6,0.5-4,0.7c-1.2,0.2-2.4,0.4-3.6-0.1C75,30.6,75.8,31.7,75.8,32.9z M39.9,33.1C39.9,33,39.8,33,39.9,33.1
		c-0.6,0-1,0.1-1.5,0.2c-0.8,0.2-1.7,0.4-2.5,0.5c-0.1,0-0.2,0-0.3,0.1c-0.4,0.3-0.8,0.3-1.2,0.3c-0.8-0.1-1.5,0-2.3,0.3
		c-0.5,0.2-0.8,0.6-0.9,1.2c-0.1,0.3-0.1,0.6-0.1,0.9c0,0.2-0.1,0.4-0.1,0.6c-0.1,0.4,0.1,0.5,0.5,0.5c0.6,0,1.3,0,1.9-0.1
		c0.7,0,0.8-0.2,0.7-0.9c0-0.3,0-0.6,0-0.9c0-0.1,0.2-0.2,0.3-0.2c0.1,0.1,0.2,0.2,0.2,0.3c0,0.3,0,0.7,0,1c0,0.4,0.1,0.6,0.5,0.5
		c0.4-0.1,0.7-0.1,1.1-0.1c0.3,0,0.8,0,1-0.2c0.2-0.2,0.1-0.7,0.1-1c0-0.1,0.1-0.3,0.2-0.4c0.1,0.1,0.2,0.2,0.2,0.4c0,0,0,0.1,0,0.2
		c0,0.7,0.3,1,1,0.8c0.2,0,0.4-0.1,0.6-0.2C39.2,35.5,39.2,34.2,39.9,33.1z M76.4,24.8c-0.6,0.8-1.2,1.5-1.8,2.2
		c-0.3,0.4-0.8,0.7-1.1,1c-0.1,0.1-0.3,0.3-0.3,0.5c0,0.6-0.1,1.2,0,1.8c0.1,0.9,0.2,1.8,0.3,2.6c0.1,0.4,0.4,0.5,0.9,0.5
		c0.3,0,0.5-0.3,0.4-0.6c0-0.3-0.1-0.7-0.1-1c-0.2-1.6-0.4-3.1,0.2-4.6c0.2-0.5,0.4-0.5,0.7-0.1c0.4,0.5,0.8,1,1.2,1.5
		c0.1,0.1,0.3,0.2,0.5,0.3c0-0.2,0.2-0.4,0.1-0.5c-0.2-0.9-0.5-1.8-0.7-2.8C76.7,25.4,76.5,25.1,76.4,24.8z M83.1,37.5
		c0,0-0.1,0.1-0.1,0.1c0,0.2,0.1,0.3,0.1,0.5c0.1,0.8,0.5,1.6,0.3,2.3c-0.3,1.2,0.1,1.8,1.1,2.1c0,0,0,0,0,0
		c0.6,0.3,1.2,0.2,1.6-0.3c0.3-0.4,0.7-0.9,1-1.3c0.1-0.1,0.1-0.4,0-0.5c-0.9-0.8-1.8-1.5-2.8-2.2C83.9,38,83.5,37.8,83.1,37.5z
		 M26.5,38c0,0.2,0,0.4,0,0.5c0.1,0.5,0.7,0.9,1.2,0.8c0.7-0.2,1.3-0.3,2-0.4c0.3-0.1,0.4-0.2,0.4-0.5c0-0.6,0-1.2,0.1-1.8
		c0-0.4-0.1-0.4-0.4-0.4c-0.7,0.2-1.5,0.3-2.2,0.5C26.8,36.9,26.6,37.2,26.5,38z M23.8,39.2c-0.6,0-1.1,0-1.6,0
		c-0.3,0-0.5,0.2-0.8,0.4c-0.4,0.4-0.3,1,0.2,1.4c0.5,0.3,1,0.3,1.2-0.1C23.2,40.4,23.5,39.9,23.8,39.2z M88.2,31.6
		c-0.1,0-0.1,0.1-0.2,0.1c0,0.1,0,0.2,0,0.2c0.4,0.8,0.9,1.7,1.3,2.5c0.1,0.1,0.3,0.2,0.4,0.3c0.3,0.2,0.6,0,0.9-0.3
		c0.3-0.3,0-0.4-0.2-0.6c-0.5-0.4-1.1-0.9-1.5-1.3C88.6,32.2,88.4,31.9,88.2,31.6z M76.3,33.8c0.6,0.2,1.2,0.3,1.8,0.4
		c0.4,0,0.2-0.4,0.3-0.6c0.1-0.2,0-0.4-0.3-0.4c-0.5,0.1-1.1,0.2-1.6,0.4C76.5,33.6,76.4,33.7,76.3,33.8z M75.6,28
		c-0.1,0-0.1,0-0.2,0c0,0.2-0.1,0.5,0,0.5c0.2,0.2,0.4,0.2,0.7,0.3c0-0.1,0.1-0.1,0.1-0.2C76,28.5,75.8,28.2,75.6,28z"/>
	<path class="st0" d="M94.2,53.5c0.2-0.4,0.3-0.7,0.4-1c0.5-1.2,0.9-2.4,1-3.7c0.2-1.8,0.5-3.7,0.8-5.5c0.1-0.3,0.2-0.7,0.4-1
		c0.4,0.2,0.5,0.5,0.4,0.8c-0.1,0.1,0,0.3,0,0.4c0.1,1.5-0.2,3-0.5,4.4c-0.2,1-0.4,2-0.7,3.1c-0.1,0.5-0.3,1-0.5,1.4
		c-0.6,1.1-0.8,2.4-0.8,3.6c0,0.4,0,0.8,0,1.2c0,0.1,0,0.3-0.1,0.4c-0.1,0.2-0.3,0.5-0.6,0.4c-0.3-0.1-0.3-0.3-0.3-0.6
		c0-0.5,0.1-1,0.1-1.4c0-1.6-0.6-3.1-1.4-4.5c-0.6-1-1-2.1-1.4-3.2c-0.5-1.5-1.3-2.8-2.4-3.9c-0.2-0.2-0.3-0.4-0.1-0.6
		c0.1-0.1,0.5,0,0.6,0.1c1.1,1,1.9,2.2,2.4,3.6c0.5,1.3,1.1,2.5,1.6,3.7c0.3,0.6,0.5,1.2,0.8,1.8C94.1,53.1,94.1,53.2,94.2,53.5z"/>
	<path class="st0" d="M36.8,14.5c0.1,1.4-0.4,2.6-1.4,3.5c-0.6,0.6-1.2,1.2-1.9,1.8c-0.1,0.1-0.4,0-0.6,0c0-0.2,0-0.5,0.1-0.6
		c0.2-0.3,0.6-0.6,0.9-0.9c0.5-0.5,0.9-1,1.4-1.5c0.8-1,0.7-2.2,0.7-3.4c-0.1-1.4-0.8-2.5-1.6-3.6c-0.6-0.7-1.2-1.4-2-1.9
		c-0.3-0.2-0.6-0.5-0.9-0.8c-1.1-1.1-2.2-2.1-3.2-3.2c-0.3-0.3-0.5-0.8-0.7-1.3c-0.1-0.1,0-0.4,0.1-0.4c0.1-0.1,0.3,0,0.4,0
		c0,0,0.1,0,0.1,0.1c0.5,0.6,1,1.1,1.5,1.7c1.1,1.3,2.2,2.6,3.6,3.6c1.4,1,2.5,2.2,3.2,3.8c0.4,0.9,0.4,2,0.6,3
		C36.8,14.5,36.8,14.5,36.8,14.5z"/>
	<path class="st0" d="M18.8,19.4c0.4,0,0.7-0.1,1.1-0.1c0.2,0,0.4,0.1,0.4,0.3c0,0.1-0.1,0.3-0.2,0.5c0,0.1-0.1,0.1-0.2,0.1
		c-1.4,0.6-3.1,0-4-1.2c-0.7-1-0.6-2.1-0.4-3.1c0.1-0.3,0.2-0.7,0.3-1c0.2-0.6,0.7-0.9,1.2-1.3c0.1-0.1,0.3,0,0.4,0.1
		c0.1,0.1,0.1,0.3,0,0.4c0,0.1-0.1,0.2-0.2,0.3c-1,0.9-1.1,2.1-1,3.3c0.1,1,1,1.8,2,1.8C18.4,19.4,18.6,19.4,18.8,19.4
		C18.8,19.4,18.8,19.4,18.8,19.4z"/>
	<path class="st0" d="M26.6,14.9c0.2,0.1,0.6,0.2,0.8,0.5c0.1,0.1,0.1,0.4,0,0.6c-0.1,0.1-0.3,0.2-0.5,0.2c-0.7-0.2-1.3,0-1.8,0.3
		c-0.5,0.3-1,0.6-1.4,0.9c-0.1,0.1-0.2,0.2-0.4,0.3c-0.4,0.2-0.8,0.1-1-0.2c-0.2-0.4,0-0.7,0.3-0.8c0.9-0.5,1.7-1,2.6-1.4
		C25.7,15,26.1,15,26.6,14.9z"/>
	<path class="st0" d="M31,17c0-0.9,0.9-1.9,1.8-1.9c0.7,0,1.1,0.5,0.8,1.2c-0.4,0.7-1,1.2-1.7,1.5C31.4,17.9,31,17.5,31,17z"/>
</g>
</svg>
