<?xml version="1.0" encoding="utf-8"?>
<!-- Generator: Adobe Illustrator 19.1.0, SVG Export Plug-In . SVG Version: 6.00 Build 0)  -->
<svg version="1.1" id="Layer_1" xmlns="http://www.w3.org/2000/svg" xmlns:xlink="http://www.w3.org/1999/xlink" x="0px" y="0px"
	 viewBox="0 0 100 89.9" style="enable-background:new 0 0 100 89.9;" xml:space="preserve">
<style type="text/css">
	.st0{fill:#03A9F4;}
	.st1{fill:#F44336;}
</style>
<g id="target-dart">
	<path class="st0" d="M81.3,18.6c-1,0.6-2,1.2-3,1.8c-1.7,1-3.3,2-5,3c-0.3,0.2-0.5,0.2-0.8-0.1c-3.9-4.9-8.7-8.6-14.5-10.9
		c-2.9-1.2-6-2-9.1-2.3c-2.5-0.3-5-0.3-7.5-0.1c-5.9,0.6-11.3,2.5-16.2,5.9c-7.6,5.2-12.5,12.3-14.6,21.3c-1,4.4-1.1,8.9-0.4,13.4
		c1,6.4,3.7,12.1,7.9,17.1c3.6,4.2,7.9,7.4,13,9.6c4.9,2.1,10,3.1,15.3,2.8c8.6-0.4,16.1-3.6,22.5-9.5c5.3-4.9,8.7-10.9,10.3-17.9
		c1.1-5,1.2-10,0.1-15c-0.6-2.8-1.5-5.5-2.8-8.2c2.7-1.8,5.4-3.6,8.2-5.3c8,13.9,8.6,39.1-11.3,55.5C53.6,96,24.7,92.3,9.3,72.3
		C-6.5,51.7-1.6,22.5,19.4,8C40.4-6.5,67.8-0.3,81.3,18.6z"/>
	<path class="st0" d="M66.3,27.9c-2.7,1.9-5.3,3.8-7.9,5.7c-3.6-4.1-8.1-6.2-13.6-6.2c-4.4,0-8.3,1.6-11.5,4.5
		c-6.5,5.8-7.8,15.6-3,22.8c5,7.4,14.3,9.9,22.2,6.2c8-3.8,12.5-13.4,8.7-22.7c2.8-1.5,5.7-3,8.5-4.6c4.3,8.1,4.2,22.8-7.2,32.3
		c-11.6,9.8-29.2,8.1-38.8-3.7c-9.7-12.1-7.7-29.4,4.4-38.8C40.4,13.8,57.3,16.6,66.3,27.9z"/>
	<path class="st0" d="M54,41.6c1.5,3.2,0.7,8.7-3.8,11.6c-4.5,2.9-10.5,1.7-13.5-2.8C33.9,46,35,40.1,39.3,37c4.3-3.1,10-2,13,1.6
		c-0.7,0.5-1.4,1.1-2.1,1.6c-1.9,1.4-3.8,2.8-5.6,4.3c-0.1,0.1-0.2,0.2-0.4,0.3c-0.4,0.3-0.5,0.7-0.2,1.1c0.3,0.4,0.7,0.5,1.1,0.3
		c1.6-0.8,3.1-1.6,4.7-2.3C51.2,43,52.6,42.3,54,41.6z"/>
	<path class="st1" d="M60,37.6c-0.2-0.2-0.4-0.3-0.5-0.4c-0.4-0.5-0.6-1.1-1-1.6c-0.2-0.3-0.2-0.5,0.1-0.8c0.6-0.6,1.2-1.1,1.8-1.6
		c7.4-5.4,15.2-10.4,23.2-15c2.7-1.5,5.4-3,8.2-4.4c0.5-0.3,1-0.4,1.6-0.6c0.3-0.1,0.6,0,0.8,0.4c0.3,0.5,0.6,1,0.9,1.4
		c0.2,0.3,0.2,0.7-0.1,0.9c-0.5,0.4-0.9,0.9-1.4,1.3c-5.8,4.2-11.8,8.3-18,11.9c-4.5,2.6-9.1,5.1-13.6,7.7
		C61.2,37.1,60.6,37.3,60,37.6z"/>
	<path class="st1" d="M84,17.4c0.5-1.3,1.1-2.5,1.5-3.8c0.3-1,1-1.6,1.9-2.2c1.9-1.1,3.7-2.3,5.5-3.4c0.2-0.1,0.4-0.3,0.8-0.3
		c-0.2,0.5-0.4,1-0.6,1.4c-0.5,1.3-1,2.5-1.5,3.8c-0.1,0.3-0.4,0.6-0.7,0.8c-2.2,1.2-4.5,2.4-6.7,3.7C84.2,17.4,84.1,17.4,84,17.4z"
		/>
	<path class="st1" d="M87.1,22.2c0.8-0.5,1.6-1.1,2.3-1.6c1.3-1,2.7-1.9,4-2.9c0.2-0.1,0.4-0.3,0.5-0.2c2,0.1,4,0.3,6,0.6
		c-0.6,0.4-1.2,0.8-1.8,1.2c-1.7,1.1-3.5,2.2-5.3,3.2c-0.3,0.2-0.6,0.2-0.9,0.2c-1.6-0.1-3.2-0.2-4.9-0.4
		C87.1,22.3,87.1,22.2,87.1,22.2z"/>
	<path class="st1" d="M45.6,44.7c0.5-0.4,0.9-0.8,1.4-1.2c3.1-2.3,6.2-4.7,9.3-7c0.3-0.2,0.5-0.6,0.7-1c0.3-0.5,0.6-0.5,0.9,0
		c0.5,0.7,1,1.5,1.4,2.3c0.2,0.3,0.2,0.8-0.3,0.8c-1.6,0.1-2.9,1-4.2,1.7c-2.6,1.3-5.2,2.6-7.8,3.9c-0.5,0.2-1,0.4-1.5,0.7
		C45.7,44.8,45.6,44.7,45.6,44.7z"/>
</g>
</svg>
