<?xml version="1.0" encoding="utf-8"?>
<!-- Generator: Adobe Illustrator 19.1.0, SVG Export Plug-In . SVG Version: 6.00 Build 0)  -->
<svg version="1.1" id="Layer_1" xmlns="http://www.w3.org/2000/svg" xmlns:xlink="http://www.w3.org/1999/xlink" x="0px" y="0px"
	 viewBox="0 0 150 62.4" style="enable-background:new 0 0 150 62.4;" xml:space="preserve">
<style type="text/css">
	.st0{fill:#03A9F4;}
</style>
<g id="team-concept">
	<path class="st0" d="M87.9,0c1.2,0.5,2.3,1,3.2,2c1.3,1.7,1.3,4.5,0.1,6c-1.4,1.9-3.9,2.7-6.1,1.8c-2.1-0.8-3.4-3-3.2-5.2
		c0.3-2.1,1.4-3.6,3.4-4.3c0.2-0.1,0.5-0.2,0.7-0.3C86.7,0,87.3,0,87.9,0z M87.1,1c-2.2,0-4.1,1.8-4.2,4c-0.1,2,1.8,4.3,4.1,4.1
		c2.5-0.1,4-1.6,4.1-4.3C91.1,2.8,89.2,1,87.1,1z"/>
	<path class="st0" d="M39.5,0c1.6,0.7,3,1.5,3.7,3.3c0.7,2,0.3,4-1.1,5.4c-1.6,1.5-3.8,1.9-5.7,1c-1.9-0.9-3-2.7-2.9-4.8
		c0.1-2.2,1.3-3.9,3.4-4.6C37,0.2,37.3,0.1,37.5,0C38.2,0,38.9,0,39.5,0z M42.6,5.2c0-2.4-1.8-4.1-4.1-4.2c-2.2,0-4.1,1.9-4.1,4.1
		c0,2.2,1.8,4.1,4,4.2C40.7,9.3,42.6,7.5,42.6,5.2z"/>
	<path class="st0" d="M111.7,36.3c-0.4,0-0.7,0-1,0c0,0.4,0,0.8,0,1.1c0,7.3,0,14.6,0,21.9c0,1.3-0.7,2.3-1.8,2.7
		c-1.3,0.5-2.7,0.2-3.3-0.9c-0.4-0.7-0.7-1.6-0.7-2.3c0-12.2,0-24.4,0-36.6c0-0.5,0-0.9,0-1.4c0,0-0.1,0-0.1,0
		c-0.1,0.2-0.2,0.5-0.3,0.7c-1,3.4-2,6.7-3,10.1c-0.2,0.6-0.4,1.1-0.7,1.6c-0.4,0.8-1.2,1.1-2,0.8c-0.6-0.2-1.4-0.8-1.5-1.3
		c-1.3-4.1-2.5-8.3-3.7-12.5c-0.2-0.6-0.1-1.8-1.5-1.3c2.3,7.8,4.5,15.5,6.8,23.4c-2.1,0-4.1,0-6.3,0c0,2.6,0,5.1,0,7.5
		c0,3.3,0,6.6,0,10c0,1.4-0.7,2.3-2.1,2.6c-0.9,0.2-2-0.3-2.5-1.3c-0.2-0.4-0.3-1-0.3-1.5c0-5.3,0-10.7,0-16c0-0.4,0-0.8,0-1.3
		c-0.5,0-0.8,0-1.3,0c0,0.1-0.1,0.3-0.1,0.5c0,5.3,0,10.7,0.1,16c0,0.4,0,0.8-0.1,1.2c-0.1,1.3-1.2,2.4-2.4,2.3
		c-1.3,0-2.3-1-2.4-2.4c0-0.9,0-1.8,0-2.7c0-4.6,0-9.2,0-13.8c0-0.4,0-0.7,0-1.2c-2.1,0-4.1,0-6.3,0c2.3-7.9,4.5-15.6,6.7-23.4
		c-0.8-0.4-1,0-1.2,0.6c-1.1,3.9-2.3,7.8-3.5,11.7c-0.2,0.7-0.4,1.3-0.8,1.9c-1,1.5-2.9,1.3-3.6-0.4c-0.4-1-0.7-2-1-3
		c-0.8-2.8-1.6-5.6-2.5-8.5c-0.1-0.2-0.2-0.3-0.4-0.5c0,2.5,0,5.1,0,7.6c0,10.2,0,20.4,0,30.6c0,2.4-1.9,3.8-4,3
		c-1.1-0.4-1.8-1.4-1.8-2.7c0-7.3,0-14.6,0-21.9c0-0.4,0-0.7,0-1.1c-0.4,0-0.6,0-1,0c0,0.6,0,1.2,0,1.7c0,7.1,0,14.1,0,21.2
		c0,2.3-2,3.6-4.1,2.8c-1.1-0.4-1.8-1.5-1.8-2.8c0-5.5,0-11,0-16.5c0-7.1,0-14.2,0-21.3c0-0.2,0-0.3-0.2-0.5
		c-0.8,2.7-1.6,5.5-2.4,8.2c-0.3,1.1-0.6,2.2-1,3.4c-0.4,1.1-1.1,1.7-2.1,1.6c-1,0-1.7-0.7-2-1.8c-1.2-4.3-2.5-8.6-3.7-12.9
		c-0.2-0.6-0.5-0.8-1.3-0.5c2.2,7.7,4.5,15.5,6.8,23.3c-2.1,0-4.1,0-6.3,0c0,0.5,0,0.8,0,1.2c0,5.4,0,10.8,0,16.2
		c0,1.5-0.5,2.3-1.8,2.7c-1.6,0.5-3-0.6-3-2.2c0-5.5,0-11,0-16.5c0-0.4,0-0.7,0-1.2c-0.5,0-0.9,0-1.4,0c0,0.5,0,0.9,0,1.4
		c0,5.2,0,10.5,0,15.7c0,1.1-0.1,2.2-1.3,2.7c-1.7,0.8-3.5-0.3-3.5-2.2c0-1.7,0-3.5,0-5.2c0-3.7,0-7.5,0-11.2c0-0.4,0-0.7,0-1.2
		c-2.1,0-4.1,0-6.3,0c2.3-7.9,4.5-15.6,6.7-23.3c-0.9-0.3-0.9-0.3-1.2,0.6c-1,3.2-1.9,6.5-2.8,9.7c-0.3,0.9-0.5,1.9-0.8,2.8
		c-0.3,0.6-0.7,1.3-1.2,1.8c-1.1,0.8-2.7,0.1-3.1-1.4c-1.1-3.7-2.2-7.4-3.3-11c0-0.1-0.1-0.2-0.3-0.5c0,3.2,0,6,0,8.9
		c0,9.6,0,19.3,0,28.9c0,0.7-0.1,1.6-0.5,2.2c-0.7,1.2-2,1.6-3.4,1.2c-1.3-0.4-2-1.4-2-2.9c0-7.2,0-14.4,0-21.7c0-0.2,0.1-0.5,0-0.7
		c-0.1-0.2-0.3-0.4-0.4-0.6c-0.1,0.2-0.4,0.4-0.4,0.6c0,1.6,0,3.3,0,4.9c0,5.7,0,11.5,0,17.2c0,2-1.1,3.2-3,3.2c-1.8,0-3-1.1-3-3
		c0-4.4,0-8.7,0-13.1c0-8.2,0-16.3,0-24.5c0-0.2,0-0.3,0-0.5c0,0-0.1,0-0.1,0c-0.4,1.2-0.7,2.3-1.1,3.5c-0.8,2.6-1.6,5.3-2.4,7.9
		c-0.3,1-1,1.5-2,1.6c-0.9,0.1-1.7-0.4-2-1.3C0,32.3-0.1,31.6,0.1,31c1.4-4.8,2.8-9.6,4.3-14.4c1-3,3.5-4.7,6.7-4.7
		c2.5,0,5-0.1,7.4,0.2c2.7,0.3,4.4,2.1,5.3,4.6c0.8,2.5,1.5,5,2.4,7.8c0.5-1.5,0.8-2.9,1.3-4.2c0.6-1.8,1.1-3.7,1.9-5.4
		c1.1-2.2,3-3.3,5.5-3.4c2.4,0,4.8,0,7.2,0c2.8,0,5.3,2,6.2,4.6c0.8,2.4,1.5,4.8,2.2,7.3c0,0.1,0.1,0.3,0.3,0.7
		c0.8-2.5,1.5-4.8,2.1-7.1c0.7-2.7,3.4-5.2,6.7-5.1c2,0.1,4.1,0.1,6.1,0c3.4-0.2,6,2.4,6.8,5c0.6,2.2,1.3,4.3,2,6.5
		c0.1,0.3,0.2,0.5,0.3,1c0.7-2.2,1.2-4.2,1.9-6.2c0.4-1.3,0.8-2.6,1.5-3.8c1.1-1.9,2.9-2.9,5.2-2.9c2.2,0,4.4,0.1,6.6,0
		c3.4-0.2,6.1,2.3,7,5.3c0.6,2.1,1.2,4.2,1.8,6.2c0.1,0.3,0.2,0.5,0.4,1c0.8-2.6,1.6-4.9,2.2-7.2c0.7-2.7,3.4-5.1,6.6-5
		c2.1,0.1,4.3,0.1,6.4,0c3-0.1,5.6,2.3,6.4,4.7c0.7,2.3,1.4,4.7,2.1,7c0.1,0.2,0.2,0.4,0.3,0.8c0.7-2.3,1.3-4.3,1.9-6.4
		c0.4-1.5,0.9-2.9,2-4.1c1.2-1.2,2.6-2,4.3-2c2.5,0,5-0.1,7.4,0c2.7,0.1,5.3,2.1,6,4.8c1.3,4.6,3,9.1,4.8,13.5
		c0.7,1.6-0.7,3.7-2.4,3.9c-0.9,0.1-1.8-0.6-2.1-1.8c-0.9-2.9-1.7-5.8-2.6-8.7c-0.3-0.9-0.6-1.9-1-2.8c0,0.4,0,0.8,0,1.2
		c0,12.3,0,24.6,0,37c0,2.4-1.7,3.7-3.9,3.1c-1.3-0.4-1.9-1.3-1.9-2.8c0-7.3,0-14.5,0-21.8c0-0.4,0-0.7,0-1.2
		c-0.3,0-0.6-0.1-0.9-0.1c0,0.1-0.1,0.2-0.1,0.3c0,6.3,0,12.6,0,18.9c0,1.4,0,2.8-0.1,4.1c-0.1,1.5-1.4,2.6-2.9,2.6
		c-1.6,0-2.8-1.1-2.9-2.9c0-1.6,0-3.2,0-4.8c0-11.1,0-22.3,0-33.4c0-0.1,0-0.2,0-0.4c-0.2,0.2-0.3,0.4-0.3,0.5
		c-1.1,3.6-2.2,7.3-3.2,10.9c-0.4,1.3-1,1.9-2.1,2c-1.1,0-1.8-0.4-2.2-1.8c-1.1-3.6-2.1-7.2-3.2-10.7c-0.1-0.2-0.2-0.5-0.4-0.7
		c0,2.6,0,5.1,0,7.7c0,10.2,0,20.3,0,30.5c0,2.4-1.7,3.7-3.9,3c-1.2-0.4-1.9-1.3-1.9-2.7c0-7.3,0-14.6,0-21.9
		C111.7,37.1,111.7,36.7,111.7,36.3z M97.5,41.3c-0.1-0.5-0.2-0.9-0.3-1.2c-0.6-2.2-1.2-4.3-1.9-6.5c-1.3-4.6-2.7-9.2-4.1-13.8
		c-0.3-1.1-0.1-1.7,0.6-1.9c1.1-0.4,2,0.1,2.3,1.1c0.3,0.8,0.5,1.6,0.7,2.4c1,3.5,2.1,7,3.1,10.5c0.2,0.6,0.4,1.3,1.1,1.2
		c0.4-0.1,1-0.6,1.1-1c0.7-1.9,1.2-3.8,1.8-5.7c0.6-2,1.2-4,1.8-6c0.2-0.6,0.6-0.9,1.2-0.8c0.7,0.1,0.9,0.6,0.8,1.2
		c0,0.2,0,0.4,0,0.6c0,12.4,0,24.8,0,37.3c0,0.3,0,0.7,0,1c0.1,1,0.9,1.7,1.9,1.6c1.2,0,1.9-0.8,1.9-2.1c0-7.4,0-14.8,0-22.2
		c0-1.4,0.5-1.8,1.8-1.7c0.9,0.1,1.2,0.6,1.2,1.9c0,7.4,0,14.7,0,22.1c0,0.9,0.3,1.6,1.2,1.9c1.5,0.6,2.7-0.3,2.7-1.9
		c0-8.9,0-17.7,0-26.6c0-4,0-8,0-12c0-0.4,0.4-0.8,0.7-1.2c0.4,0.3,1,0.4,1.3,0.8c0.3,0.3,0.3,0.9,0.5,1.3c1,3.5,2.1,7,3.2,10.5
		c0.2,0.5,0.7,1.1,1.2,1.2c0.7,0.2,1-0.5,1.2-1.2c0.6-2.2,1.3-4.3,1.9-6.4c0.5-1.8,1.1-3.6,1.7-5.4c0.1-0.3,0.6-0.7,0.9-0.7
		c0.3,0,0.7,0.4,0.8,0.7c0.2,0.4,0.2,0.9,0.2,1.4c0,2.8,0,5.6,0,8.5c0,8.3,0,16.5-0.1,24.8c0,1.5,0,3,0.1,4.5c0.1,1.3,0.8,2,1.9,2
		c1.2,0,1.9-0.7,1.9-2.1c0-3.2,0-6.5,0-9.7c0-4.3,0-8.5,0-12.8c0-0.9,0.4-1.4,1.4-1.4c1.2,0,1.6,0.4,1.6,1.7c0,7.4,0,14.8,0,22.1
		c0,1.4,0.7,2.2,1.9,2.1c1.3,0,1.9-0.7,1.9-2.2c0-2.6,0-5.2,0-7.7c0-10.2,0-20.3,0-30.5c0-0.2-0.1-0.4,0-0.5
		c0.3-0.3,0.6-0.9,0.8-0.9c0.4,0,1,0.4,1.1,0.7c0.4,1.2,0.7,2.4,1.1,3.6c0.8,2.7,1.6,5.5,2.4,8.2c0.2,0.6,0.4,1.3,1.2,1.2
		c1.2-0.1,1.9-1.4,1.4-2.5c-1.9-4.3-3.4-8.8-4.6-13.3c-0.7-2.5-3-4.3-5.7-4.3c-2.1,0-4.2,0-6.2,0c-2.9,0-5.1,1.7-5.9,4.6
		c-0.6,2.2-1.3,4.4-1.9,6.5c-0.2,0.6-0.4,1.3-1.2,1.3c-0.8,0-1-0.7-1.2-1.3c-0.7-2.3-1.4-4.7-2.1-7c-0.8-2.5-3-4.1-5.7-4.1
		c-2.1,0-4.2,0-6.2,0c-2.7,0-4.8,1.6-5.6,4.2c-0.7,2.3-1.4,4.7-2.1,7c-0.1,0.4-0.7,0.9-1.1,0.9c-0.3,0-0.9-0.5-1-0.9
		c-0.8-2.3-1.5-4.7-2.2-7.1c-0.7-2.4-2.9-4.7-6-4.5c-2,0.1-4.1,0-6.1,0c-2.8,0-4.9,1.6-5.7,4.2c-0.7,2.4-1.5,4.9-2.2,7.3
		c-0.2,0.6-0.4,1.4-1.2,1.2c-0.4-0.1-0.9-0.7-1.1-1.2c-0.7-2.2-1.4-4.3-2-6.5c-0.8-2.7-3.1-4.8-6.2-4.7c-1.8,0.1-3.7,0-5.5,0
		c-3.2,0-5.2,1.6-6.1,4.6c-0.6,2.2-1.3,4.4-2,6.6c-0.1,0.4-0.6,0.9-1.1,1c-0.6,0.1-0.8-0.4-1-1c-0.7-2.5-1.5-5.1-2.3-7.6
		c-0.8-2.2-2.3-3.7-4.6-3.9c-2.8-0.2-5.6-0.2-8.3,0c-2.2,0.1-3.8,1.6-4.5,3.6c-0.9,2.6-1.6,5.2-2.5,7.8c-0.2,0.5-0.6,1.1-1.1,1.2
		c-0.7,0.2-0.9-0.6-1.1-1.1c-0.7-2.4-1.4-4.7-2.1-7.1c-0.8-2.5-3.1-4.2-5.7-4.2c-2,0-4,0-5.9,0c-3.1,0-5.1,1.4-6.1,4.4
		C3.8,22,2.4,26.6,1,31.3c-0.3,0.8-0.1,1.5,0.8,1.8c0.9,0.3,1.3-0.4,1.5-1.1c0.7-2.5,1.5-4.9,2.2-7.4c0.4-1.4,0.8-2.8,1.3-4.1
		c0.2-0.4,0.8-0.6,1.2-0.9c0.2,0.4,0.5,0.8,0.7,1.3c0,0.1,0,0.2,0,0.3c0,10.9,0,21.8,0,32.6c0,1.8,0,3.7,0,5.5c0,1.4,0.8,2.1,2.2,2
		c1.1-0.1,1.8-0.9,1.8-2.2c0-2.5,0-4.9,0-7.4c0-4.9,0-9.9,0-14.8c0-1.2,0.8-1.7,1.7-1.6c1,0.1,1.2,0.8,1.2,1.7c0,7.3,0,14.5,0,21.8
		c0,0.3,0,0.5,0,0.8c0.1,1.1,0.8,1.7,1.8,1.8c1.1,0.1,1.8-0.4,2-1.5c0.1-0.5,0.1-0.9,0.1-1.4c0-8.4,0-16.8,0-25.3c0-4,0-8.1,0-12.1
		c0-0.6,0-1.3,0.8-1.4c0.8-0.1,1,0.5,1.2,1.1c0.4,1.1,0.7,2.3,1,3.5c0.8,2.7,1.5,5.3,2.4,8c0.2,0.5,0.8,1,1.2,1
		c0.4,0,0.9-0.6,1.1-1.1c0.4-1,0.7-2.2,1-3.2c1-3.3,1.9-6.6,2.9-9.9c0.3-0.9,1.2-1.3,2.2-0.9c0.9,0.3,0.8,1,0.6,1.7
		c-1.8,6-3.5,12.1-5.2,18.1c-0.3,1.1-0.6,2.3-0.9,3.4c0.2,0.1,0.3,0.1,0.4,0.1c1.2,0,2.5,0,3.7,0c1.6,0,1.9,0.2,1.9,1.9
		c0,5.5,0,11.1,0,16.6c0,1,0.5,1.5,1.4,1.6c0.8,0.1,1.3-0.4,1.4-1.4c0.1-0.5,0.1-0.9,0.1-1.4c0-3.2,0-6.4,0-9.6
		c0-1.9-0.2-3.7-0.3-5.6c-0.1-1.1,0.6-2,1.6-2c1.7-0.1,2,0.3,2,1.8c0,5.6,0,11.2,0,16.8c0,1,0.5,1.4,1.3,1.5
		c0.8,0.1,1.5-0.5,1.5-1.4c0.1-2.7,0.2-5.4,0.1-8c0-3.1-0.1-6.1-0.1-9.2c0-1.4,0.2-1.5,1.6-1.5c1.4,0,2.9,0,4.3,0
		c-0.1-0.3-0.1-0.5-0.1-0.7c-2-6.9-4-13.9-6.1-20.8c-0.2-0.8-0.4-1.5,0.6-1.8c1.1-0.4,2,0,2.3,1.1c0.4,1.1,0.7,2.3,1,3.5
		c0.9,3.1,1.9,6.1,2.7,9.2c0.2,0.7,0.3,1.4,1.1,1.4c0.9,0,1.2-0.7,1.4-1.4c1.1-3.9,2.2-7.7,3.4-11.6c0.1-0.3,0.4-0.7,0.7-0.7
		c0.3-0.1,0.8,0.1,0.9,0.4c0.2,0.3,0.3,0.8,0.3,1.2c0,9.8,0,19.7,0,29.5c0,2.9,0,5.8,0,8.6c0,0.9,0.2,1.6,1.1,1.9
		c1.5,0.6,2.7-0.3,2.7-2c0-3.9,0-7.9,0-11.8c0-3.5,0-7,0-10.5c0-1.2,0.5-1.7,1.7-1.6c1,0.1,1.3,0.6,1.3,1.9c0,7.4,0,14.7,0,22.1
		c0,1.2,0.5,1.8,1.5,2c1.4,0.3,2.4-0.6,2.4-2.3c0-5.8,0-11.6,0-17.3c0-6.7,0-13.4,0-20.1c0-0.8-0.1-1.8,0.9-2
		c1.2-0.2,1.1,0.9,1.3,1.6c1.1,3.4,2.1,6.9,3.1,10.3c0.2,0.8,0.4,1.7,1.3,1.8c1.1,0.1,1.3-1,1.5-1.8c0.7-2.3,1.4-4.7,2.1-7
		c0.5-1.9,1.1-3.7,1.6-5.6c0.3-0.8,1.2-1.2,2.2-0.9c0.8,0.3,0.9,0.8,0.7,1.5c-1.7,5.8-3.4,11.6-5.1,17.5c-0.4,1.4-0.8,2.9-1.2,4.4
		c1.4,0,2.7,0,4,0c1.7,0,2,0.2,2,2c0,5.5,0,10.9,0,16.4c0,1.1,0.4,1.6,1.3,1.6c0.9,0.1,1.4-0.4,1.5-1.5c0-0.3,0.1-0.5,0.1-0.8
		c0-2.8,0-5.6,0-8.3c0-2.7-0.1-5.4-0.1-8.1c0-1.1,0.4-1.4,1.7-1.4c1.2,0,1.6,0.3,1.6,1.4c0,3.6,0,7.2,0,10.8c0,2.1,0,4.3,0,6.4
		c0,0.9,0.7,1.5,1.4,1.5c0.8,0,1.4-0.7,1.4-1.5c0.1-1.8,0.1-3.6,0.1-5.3c0-4-0.1-7.9-0.1-11.9c0-1.1,0.3-1.4,1.4-1.4
		C94.3,41.3,95.8,41.3,97.5,41.3z"/>
	<path class="st0" d="M111.2,10.7c-2.8,0-5.2-2.3-5.1-5.1c0-2.8,2.3-5.1,5.2-5.1c2.8,0,5,2.3,5,5.1C116.3,8.4,114,10.7,111.2,10.7z
		 M111.1,9.7c2.3,0,4.2-1.8,4.2-4.1c0-2.2-1.9-4.1-4.1-4.1c-2.2,0-4.1,1.9-4.1,4.1C107.1,7.8,108.9,9.7,111.1,9.7z"/>
	<path class="st0" d="M135.3,0.6c2.6-0.3,5.1,2.2,5.1,4.8c0,3-2.2,5.2-5.2,5.2c-2.6,0-5-2.4-5-5.1C130.2,2.9,132.5,0.6,135.3,0.6z
		 M139.3,5.7c0.1-2.1-1.3-4-3.2-4.1c-2.6-0.2-4.7,1.4-4.8,3.7c-0.1,2,1.7,4.2,3.6,4.4C137,9.9,139.6,8,139.3,5.7z"/>
	<path class="st0" d="M14.1,0.6c2.5-0.3,5.1,2.1,5.1,5c0,2.7-2.3,5.1-5.1,5.1C11.4,10.7,9,8.4,9,5.8C9,2.8,11.2,0.6,14.1,0.6z
		 M14.1,1.6c-2-0.3-4.1,1.5-4.1,4.2c0,1.6,1.8,3.9,4,3.9c2.3-0.1,4.1-1.8,4.2-4C18.2,3.8,16.3,1.2,14.1,1.6z"/>
	<path class="st0" d="M62.6,10.7c-2.8,0-5.1-2.4-5.1-5.2c0-2.7,2.4-5,5.1-5c2.8,0,5,2.2,5,5C67.7,8.4,65.4,10.7,62.6,10.7z
		 M62.5,9.7c2.4,0,4.2-1.7,4.2-4.1c0-2.2-1.8-4-4.1-4.1c-2.2-0.1-4.2,1.9-4.2,4.1C58.5,7.8,60.3,9.7,62.5,9.7z"/>
</g>
</svg>
