<?xml version="1.0" encoding="utf-8"?>
<!-- Generator: Adobe Illustrator 19.2.1, SVG Export Plug-In . SVG Version: 6.00 Build 0)  -->
<svg version="1.1" id="Layer_1" xmlns="http://www.w3.org/2000/svg" xmlns:xlink="http://www.w3.org/1999/xlink" x="0px" y="0px"
	 viewBox="0 0 120 101.9" style="enable-background:new 0 0 120 101.9;" xml:space="preserve">
<style type="text/css">
	.st0{fill:#03A9F4;}
</style>
<g id="thumbsup-man">
	<path class="st0" d="M50.5,89.4c1.2-8.6,1.9-16.9,1.5-25.3c-0.2-3.9-1-7.9-1.6-11.8c-0.3-1.7-0.2-2.1,1.5-2.2
		c3.7-0.3,6.3-2.1,8-5.4c1.3-2.5,2.6-5,3.8-7.6c2.2-4.7,5-9.1,8.7-12.7c4.3-4,6.2-9,6.9-14.7c0.3-2.3,0.8-4.5,1.3-6.8
		c0.6-2.6,2.4-3.6,4.9-2.7c4.6,1.5,7.1,5.1,7.3,10.3c0.2,4.9-1.1,9.5-2.7,14c-0.6,1.8-1.4,3.5-2.1,5.2c-0.4,1-0.8,2.1-1,3.2
		c-0.7,2.8,0.3,3.9,3.2,3.9c7-0.1,14-0.2,21-0.2c3.8,0,6.4,1.5,7.5,4.4c1.2,3.2,0.3,6.9-2.3,9.3c-1.7,1.6-1.7,2.2,0.2,3.4
		c4.3,2.7,4.3,9.6-0.1,11.8c-1.5,0.7-1.5,1.8-0.2,3c2.1,2,2.8,5,1.8,7.7c-0.9,2.2-2.5,3.4-4.9,3.6c-2.4,0.1-3.5,1.8-2.1,3.8
		c2.3,3.3-0.5,8.9-5.1,9.1c-8,0.2-16,0.4-24,0.1c-6.3-0.2-12.5-1-18.8-1.8c-2.6-0.3-5.2-1.3-7.9-1.7C53.9,89.2,52.3,89.4,50.5,89.4z
		"/>
	<path class="st0" d="M49,67.4c0,8.8-1,16.4-2.4,24.1c-0.3,1.7-1.1,2.3-2.9,2.4c-3,0.1-6,0.2-9,0.2c-0.9,0-1.3,0.3-1.7,1.1
		c-0.8,1.7-1.7,3.3-2.5,5c-0.6,1.2-1.5,1.9-2.9,1.7c-6.7-0.5-13.4-1-20.1-1.5c-2.1-0.2-2.6-0.9-2.8-3c-1-11.2-2-22.3-3-33.5
		C1.1,58,0.5,52,0,46.1c-0.1-1.7,0.9-2.9,2.6-2.7c7.2,0.6,14.3,1.2,21.5,1.8c5.9,0.5,11.9,1,17.8,1.3c2.8,0.2,4.4,1.2,5,3.9
		C48,56.3,49.3,62.2,49,67.4z M35,51.6c1.4,12.5,1.6,24.9-0.4,37.2c2.6,0,5,0,7.4,0c1.3-7.9,2.6-15.6,2-23.5c-0.3-4-1-8.1-1.7-12.1
		c-0.1-0.6-0.8-1.6-1.3-1.6C39.1,51.5,37.2,51.6,35,51.6z"/>
</g>
</svg>
