<?xml version="1.0" encoding="utf-8"?>
<!-- Generator: Adobe Illustrator 19.2.1, SVG Export Plug-In . SVG Version: 6.00 Build 0)  -->
<svg version="1.1" id="Layer_1" xmlns="http://www.w3.org/2000/svg" xmlns:xlink="http://www.w3.org/1999/xlink" x="0px" y="0px"
	 viewBox="0 0 165.6 165.7" style="enable-background:new 0 0 165.6 165.7;" xml:space="preserve">
<style type="text/css">
	.st0{fill:#FF9800;}
</style>
<title>value-plus | Self-care OTC</title>
<g id="value-plus">
	<path class="st0" d="M132.5,0.1v47l-8.4,1V8.7H8.7V157H124v-28.3l8.5,1v36H2.6c-2,0-2.6-0.5-2.6-2.6c0.1-16.2,0-32.4,0-48.6
		C0,77.2,0,40,0,2.8C0,0.7,0.4,0,2.6,0h129.9V0.1z"/>
	<path class="st0" d="M99.4,88.4c-0.4-17.8,14.8-33.7,33.9-33.1c18,0.4,32.3,15.1,32.2,33.1c0,18.7-14.6,33.3-34,33.1
		C114.5,121.3,98.9,106.2,99.4,88.4z M132.5,63.7c-13.3-0.3-25.1,11.4-24.7,24.8c0,6.7,2.7,13.1,7.5,17.7c6.4,6.3,14.3,7.9,22.7,6.4
		c4.4-0.8,8.5-3.4,11.8-6.7c4.6-4.5,7.2-10.7,7.3-17.2C157.5,75.1,145.7,63.5,132.5,63.7L132.5,63.7z"/>
	<path class="st0" d="M71.8,99.2V49.9h10.9v49.3H71.8z"/>
	<path class="st0" d="M52.6,66.4h11v32.9h-11V66.4z"/>
	<path class="st0" d="M91.3,105.1v4.8h-66v-4.8H91.3z"/>
	<path class="st0" d="M33.3,83h11.1v16.3H33.3V83z"/>
	<path class="st0" d="M116.1,85.4h13.4V72h5.8v13.4H149v5.9h-13.6v13.6h-5.8V91.5h-13.5V85.4z"/>
</g>
</svg>
