<?xml version="1.0" encoding="utf-8"?>
<!-- Generator: Adobe Illustrator 19.1.0, SVG Export Plug-In . SVG Version: 6.00 Build 0)  -->
<svg version="1.1" id="Layer_1" xmlns="http://www.w3.org/2000/svg" xmlns:xlink="http://www.w3.org/1999/xlink" x="0px" y="0px"
	 viewBox="-429 211 100 140" style="enable-background:new -429 211 100 140;" xml:space="preserve">
<style type="text/css">
	.st0{fill:#03A9F4;}
</style>
<g id="what-if">
	<path class="st0" d="M-329.2,308.1c-0.4-1.3-0.8-2.7-1.2-4c-0.3-1.2-0.5-2.5-0.8-3.7c-0.5-2.3-0.9-4.6-0.9-6.9c0-1.3,0-2.6-0.1-3.9
		c0-0.9-0.1-1.7-0.1-2.5c0.1-1.7,0.1-3.4-0.4-5.1c-0.1-0.4-0.2-0.9-0.2-1.3c-0.2-1.6-0.3-3.3-0.4-4.9c-0.1-0.9-0.3-1.7-0.4-2.6
		c0-0.5,0.1-1,0.1-1.5c-0.2-1.7-0.3-3.5-0.5-5.3c-0.3-2.8-0.6-5.6-1.3-8.4c-0.4-1.5-0.5-3-0.7-4.5c-0.1-0.7-0.1-1.4-0.2-2.1
		c-0.5-2.4-1-4.7-1.4-7c-0.3-1.4-0.7-2.8-1.4-4.1c-0.2-0.3-0.3-0.7-0.4-1.1c-0.3-1.7-0.8-3.3-1.6-4.9c-1-1.9-1.9-3.9-2.9-5.8
		c-0.7-1.5-1.5-3-2.3-4.5c-0.3-0.5-0.7-1-1.1-1.4c-1-1-2.1-1.9-3.2-2.9c-1.9-1.8-4.2-2.9-6.7-3.6c-1.7-0.4-3.4-1.1-5.1-1.6
		c-1.7-0.5-3.3-1.3-5.1-1.2c-0.2,0-0.5-0.1-0.7-0.1c-1.5-0.3-2.9-0.7-4.4-1c-1-0.2-2.1-0.3-3-0.7c-1.5-0.6-3-0.7-4.5-0.5
		c-1.3,0.2-2.7,0.5-4.1,0.7c-0.4,0.1-0.9,0.2-1.3,0.2c-0.6,0-1.2,0-1.7,0.1c-0.4,0-0.8,0.1-1.1,0.2c-1.1,0.1-2.1,0.3-3.1,0.5
		c-0.8,0.2-1.6,0.5-2.3,0.8c-0.9,0.4-1.7,0.8-2.6,1.2c-0.5,0.2-0.9,0.4-1.3,0.6c-0.9,0.4-1.9,0.9-2.8,1.4c-0.8,0.5-1.6,1.3-2.7,1.2
		c-0.2,0.1-0.5,0.2-0.7,0.4c-0.6,0.5-1.2,0.9-1.8,1.4c-1.4,1.1-2.7,2.2-3.7,3.7c-0.7,1.1-0.9,2.2-0.6,3.4c0.2,0.4,0,0.8-0.3,1.1
		c-0.1,0.1-0.1,0.2-0.2,0.3c-0.6,1-1.2,2-1.6,3c-1.1,2.6-2.2,5.3-3.2,7.9c-0.4,0.9-0.3,1.3,0.5,1.9c0.7,0.5,1.1,1.2,1.4,1.9
		c0.2,0.4,0.1,0.7-0.2,1c-0.3,0.2-0.6,0.5-0.9,0.7c-0.3,0.3-0.6,0.5-0.9,0.8c0.1,0.1,0.1,0.1,0.1,0.2h0.7c0.2,0,0.4-0.1,0.6-0.2
		c0.7-0.2,0.9,0,0.8,0.8c-0.2,0.8-0.7,1.4-1.2,2c-0.7,0.8-1.4,1.7-2.1,2.5c-0.4,0.5-0.8,1.1-1.2,1.6c-0.3,0.4-0.6,0.9-0.9,1.3
		c-0.4,0.5-0.7,1-1.1,1.4c-0.4,0.5-0.9,0.9-1.4,1.4c-0.4,0.4-0.7,0.9-1.1,1.2c-0.6,0.5-1,1.1-1,1.9v1.1c0,0.6,0.1,1.1,0.5,1.5
		c0.6,0.7,1.2,1.3,1.8,1.9c0.6,0.5,1.2,1,1.9,1.5c0.4,0.4,0.7,0.8,0.5,1.4c-0.4,1.1-0.8,2.3-1.7,3.1c-0.6,0.5-0.7,1.4-0.2,2
		c0.2,0.3,0.5,0.6,0.7,0.9c0.3,0.4,0.6,0.8,0.4,1.3c-0.3,0.8-0.6,1.6-1,2.4c-0.4,0.9-0.4,1.3,0.5,1.9c0.1,0,0.2,0,0.2,0.1
		c0.1,0.3,0.3,0.6,0.4,0.9c-0.3,0.1-0.5,0.1-0.8,0.2c-0.8,0.1-1.1,0.4-1.1,1.1v2.1c0,0.5,0,1.1-0.1,1.6c-0.1,0.8-0.4,1.5-0.3,2.2
		c0.2,1.7,0.5,3.4,1,5c0.8,2.8,1.8,5.5,2.8,8.2c0.4,1.1,1,2.2,1.4,3.4c0.3,0.7,0.4,1.4,0.5,2.1c0,0.2-0.2,0.4-0.3,0.6
		c-0.4,0.5-0.9,1-1.3,1.5c-0.4,0.5-0.7,1.1-0.8,1.7c-0.2,0.7-0.1,1.5,0,2.2c0.2,1.1,0.2,2.3,0,3.4c-0.1,0.7-0.2,1.5,0.1,2.2
		c0.3,0.8,0.5,1.7,0.4,2.7c-0.1,1.2-0.2,2.4,0.1,3.6c0,0.3,0.1,0.6,0.1,0.9c0.1,0.9,0.1,1.9,0.2,2.9c0,0.7,0.1,1.3,0.1,1.9
		c0,0.7-0.2,1.3-0.1,1.9c0.2,1.8-0.3,3.5-1,5.1c-0.5,1.2-1.1,2.3-1.8,3.4c-1,1.6-1.9,3.3-3.2,4.7c-1.1,1.2-2,2.6-3.2,3.7
		c-0.9,0.8-1.6,1.9-2.4,2.8c0,0.1-0.1,0.2-0.2,0.4c0.6,0,1.2,0,1.5,0.1c0.1,0,0.2-0.1,0.3-0.2c1.4-1.6,2.8-3.3,4-5.1
		c1.1-1.7,2.4-3.2,3.5-4.9c0.7-1.1,1.3-2.2,1.9-3.3c0.2-0.4,0.4-0.4,0.8-0.3c0.7,0.2,1.5,0.4,2.2,0.5c0.3,0.1,0.6,0,0.9,0.1
		c1.3,0.4,2.6,0.4,3.9,0.3c0.8-0.1,1.6-0.4,2.4-0.7c0.1-0.1,0.1-0.3,0.2-0.4c-0.1,0-0.3-0.1-0.4-0.1c-0.2,0-0.4,0.2-0.6,0.2
		c-0.7,0.1-1.4,0.3-2,0.3c-1.7-0.2-3.5-0.4-5.2-0.6c-0.5-0.1-0.9-0.4-1.4-0.6c0.2-0.8,0.4-1.4,0.6-2.1c0.1-0.4,0.3-0.7,0.3-1.1v-4.3
		c0-1.2,0-2.5-0.4-3.7c-0.2-0.6-0.3-1.3-0.3-2v-4.4c0-0.2-0.1-0.4-0.1-0.6c-0.1-0.9-0.6-1.7-0.5-2.6c0-0.4,0.1-0.8,0.1-1.2
		c0-0.8,0.2-1.6,0-2.4c-0.4-1.6,0-3,0.8-4.3c0.2-0.3,0.5-0.5,0.7-0.7c0.1-0.1,0.3-0.2,0.4-0.4c0.3-0.4,0.6-0.9,1-1.2
		c0.7-0.6,1.3-1.1,2-1.6c0.9-0.7,1.8-1.5,2.7-2.2c0.5-0.5,1.2-0.7,1.8-1.1c0.8-0.5,1.6-1.1,2.4-1.6c1.2-0.7,2.5-0.8,3.7,0.1
		c0.5,0.4,1.1,0.7,1.6,1.1c1.6,1.2,3.4,2.2,4.9,3.5c1,0.9,2.1,1.9,2.2,3.5c0.1,0.7,0,1.3-0.5,1.7c-0.8,0.7-1,2.5,0,3.5
		c0.3,0.3,0.5,0.6,0.8,1c-0.7,0.4-1.4,0.2-1.8-0.4c-0.1-0.2-0.3-0.4-0.5-0.6c-0.5-0.6-1.1-1.1-1.5-1.7c-1-1.3-2-2.7-2.9-4.1
		c-0.6-0.8-1.4-1.2-2.4-1.1c-0.4,0-0.5-0.1-0.7-0.4c-0.2-0.3-0.5-0.7-0.8-1c-0.2-0.2-0.4-0.3-0.6,0c0.1,0.1,0.2,0.3,0.3,0.4
		c0.1,0.2,0.2,0.3,0.3,0.5c0.3,0.4,0.2,0.6-0.3,0.8c-0.5,0.2-1.1,0.4-1.7,0.6c-0.9,0.4-1.8,0.9-2.8,1.2c-1.5,0.4-2.9,1.1-4.2,1.8
		c-0.2,0.1-0.4,0.2-0.5,0.4c-0.1,0.1-0.1,0.3-0.1,0.5c0.2,0,0.4,0.1,0.6,0c0.4-0.2,0.8-0.6,1.2-0.8c1-0.5,1.9-1,2.9-1.4
		c1-0.4,2-0.8,3-1.2c0.8-0.4,1.7-0.7,2.6-0.9c0.6-0.1,0.7,0.1,0.5,0.7c0,0.2-0.2,0.3-0.2,0.5c-0.1,0.2,0,0.4,0,0.6
		c0.1,0,0.1,0,0.2,0c0.1-0.1,0.2-0.2,0.3-0.4c0.1-0.3,0.2-0.6,0.3-0.9c0.2-0.5,0.4-0.6,0.8-0.3c0.3,0.2,0.6,0.5,0.8,0.8
		c0.7,0.9,1.3,1.8,1.9,2.7c0.6,0.8,1.1,1.7,1.8,2.4c0.6,0.6,1.1,1.3,1.3,2.1c0.2,1,0.2,1.9-0.4,2.7c-0.4,0.5-0.7,1-1.1,1.4
		c-0.2,0.2-0.4,0.2-0.6,0.4c0-0.2-0.1-0.3-0.1-0.4c-0.1-1.1-0.7-1.9-1.6-2.5c-0.7-0.6-1.5-1.1-2.2-1.7c-0.6-0.6-0.6-0.6-0.3-1.4
		c0.1-0.3,0-0.5-0.3-0.6c-0.2,0.3-0.3,0.5-0.4,0.7c-0.1,0.2-0.2,0.3-0.5,0.2c-0.3-0.1-0.7-0.2-1.1-0.2c-1.2,0-2.3,0.3-3.5,0.6
		c-0.8,0.2-1.6,0.4-2.3,0.7c-0.6,0.3-1.2,0.4-1.8,0.5c-0.6,0-1.2,0.3-1.8,0.5c-0.2,0.1-0.3,0.3-0.4,0.5c0.1,0.1,0.3,0.1,0.5,0.1
		c0.6-0.2,1.3-0.3,1.9-0.5c0.4-0.1,0.9-0.1,1.4-0.3c0.9-0.3,1.7-0.7,2.7-0.8c0.9-0.1,1.7-0.3,2.6-0.5c0.4-0.1,0.4,0.1,0.4,0.5
		c-0.1,0.4-0.1,0.8-0.1,1.2c0,0.2,0.1,0.3,0.2,0.5c0.1-0.1,0.3-0.3,0.3-0.4c0.1-0.5,0.1-0.9,0.1-1.4c0-0.4,0.1-0.4,0.4-0.3
		c0.1,0.1,0.3,0.2,0.4,0.3c1.1,0.9,2.1,1.8,3.2,2.5c1.7,1.1,1.9,3.3,0.6,4.5c-0.1,0.1-0.1,0.2-0.2,0.3c-0.4,0.8-1,1.3-1.8,1.8
		c-0.6,0.4-1.2,0.3-1.8,0.1c-0.6-0.2-0.6-0.8-0.5-1.7c0.1-0.6,0.5-0.4,0.9-0.4c0.1,0,0.1,0,0.2,0c0.1,0,0.2-0.1,0.3-0.1
		c0-0.1-0.1-0.2-0.2-0.3c-0.4-0.2-0.8-0.4-1.2-0.5c-0.3-0.1-0.4-0.3-0.3-0.6c0.1-0.2,0.2-0.6-0.2-0.7c-0.1-0.1-0.4,0.2-0.6,0.4
		c-0.1,0.1-0.1,0.1-0.1,0.2c0,0.5-0.4,0.6-0.8,0.7c-1.6,0.3-3.2,0.7-4.8,0.8c-0.2,0-0.3,0.2-0.5,0.3c0.2,0.1,0.4,0.3,0.6,0.3
		c0.4,0,0.9-0.1,1.3-0.2c0.6,0,1.2-0.1,1.9-0.2c-0.4,0.4-0.7,0.8-1,1.1c-0.8,0.8-1.5,1.7-2.7,2c-0.2,0-0.3,0.3-0.4,0.4
		c0.1,0,0.4,0.2,0.5,0.1c0.5-0.2,0.9-0.4,1.3-0.7c0.3-0.2,0.6-0.5,1-0.8c0.1,0.5,0.3,0.9,0.3,1.3v1.3c0.1,0.1,0.2,0.2,0.3,0.3
		c0.1-0.1,0.2-0.2,0.2-0.3c0-0.6,0.1-1.3-0.1-1.8c-0.3-0.9-0.1-1.6,0.5-2.2c0.1,0,0.2-0.1,0.2-0.2c0.4-0.6,1-1,1.7-1.1
		c0.8-0.2,1.2,0.1,1.1,1c-0.1,0.6-0.1,1.3,0.4,1.8c0.6,0.7,1.9,0.8,2.8,0.3c1.3-0.7,2.1-2,2.9-3.2c0.5-0.7,1.2-1.1,1.9-1.8
		c0.1,0.5,0.2,0.8,0.2,1.2c0.1,0.8,0.2,1.7,0.3,2.6c0.2,2,0.4,3.9,0.6,5.9c0.1,1.1,0,2.1-0.5,3c-1.3,2.7-3,5.2-5.2,7.3
		c-0.1,0.1-0.2,0.2-0.3,0.3c-0.3,0.3-0.7,0.5-1,0.8c-1.2,1.4-2.4,2.7-3.3,4.4c-1,2-2.2,3.9-3.3,5.8c-0.3,0.5-0.6,0.9-0.9,1.4h0.9
		c0.3,0,0.5-0.1,0.6-0.4c0.5-1,1.1-2,1.6-3.1c1.1-2.6,3-4.7,4.8-6.9c0.6-0.8,1.2-1.5,1.9-2.2c1.7-1.6,3.3-3.4,4.3-5.6
		c0.1-0.2,0.3-0.4,0.4-0.6c0.5-0.9,1.1-1.9,1-3c-0.1-2.1-0.3-4.2-0.5-6.3c0-0.1,0-0.1,0-0.2c-0.3-1.6-0.6-3.2-0.9-4.8
		c0-0.3,0.1-0.6,0.2-0.8c0.4-0.6,0.8-1.2,0.7-1.9c0-0.2-0.1-0.5-0.1-0.7c0-0.4,0.1-0.6,0.5-0.6c0.9-0.1,0.9-0.1,1.3,0.7
		c0,0.1,0.1,0.3,0.2,0.4c1.2,1.8,1.5,4,2.2,6c0.5,1.6,0.5,3.4,0.6,5.2c0.1,3.1-0.3,6-1.6,8.8c-0.2,0.4-0.5,0.8-0.8,1.2
		c0.1,0.1,0.2,0.3,0.4,0.5c0.9-1,1.8-1.8,2.7-2.7c0.4-0.4,0.7-0.7,1-1.1c0.7-0.9,1.5-1.7,2.1-2.6c0.6-0.9,0.9-2,1.1-3.1
		c0.3-1.5,0.5-2.9,0.3-4.4c0-0.3-0.2-0.7-0.3-1c0,0-0.1,0-0.2,0c0,0.3-0.1,0.5-0.1,0.7c0,0.4,0.1,0.7,0.1,1.1
		c0.1,1.6-0.3,3.2-0.7,4.7c-0.3,1.1-0.8,2.1-1.6,3c-0.4,0.5-0.9,0.9-1.3,1.4c-0.4,0.5-0.7,1.1-1.1,1.6c-0.1,0.1-0.3,0.1-0.4,0.2
		v-0.5c0.3-0.9,0.7-1.8,0.9-2.7c0.2-0.8,0.4-1.5,0.4-2.3c0-1.6-0.1-3.2-0.1-4.8c0-1.2-0.2-2.5-0.6-3.7c-0.3-0.9-0.5-1.8-0.8-2.6
		c-0.5-1.3-1.1-2.6-1.6-3.8c-0.2-0.4-0.2-0.6,0.2-0.9c0.8-0.5,0.9-1,0.7-1.9c0-0.1-0.1-0.3-0.1-0.4c-0.5-1.8-1.1-3.5-1.4-5.3
		c-0.1-0.3-0.2-0.6-0.4-0.8c-0.9-1.1-1.8-2.3-3.1-3.1c-1-0.6-1.9-1.4-2.9-2.1c-0.7-0.5-1.5-1-2.3-1.4c-0.4-0.2-0.6-0.5-0.6-0.9
		c-0.2-1.4-1-2.6-1.8-3.7c-0.7-1.1-1.9-1.8-3-2.4c-0.3-0.2-0.6-0.4-0.9-0.6c0.8-0.2,1.6-0.2,2.4-0.4c2.8-0.7,5.5-1.4,8.2-2.1
		c1.3-0.4,2.7-0.7,4-1.1c1-0.3,2.1-0.4,3-1c0.7-0.5,1.3-0.9,2-1.3c1.3-0.8,2.6-1.7,3.5-3c0.5-0.7,1.1-1.5,1.6-2.3
		c0.2-0.3,0.5-0.6,0.7-1c0.2-0.4,0.1-0.6-0.3-0.7c-0.1,0.1-0.2,0.1-0.2,0.2c-0.9,1.3-1.9,2.6-2.8,3.9c-0.3,0.4-0.6,0.7-1,1
		c-0.9,0.7-1.8,1.4-2.8,2c-1,0.7-2,1.2-3.1,1.5c-0.9,0.2-1.8,0.5-2.7,0.7c-4,1.1-7.9,2.5-12,2.9c-1.1,0.1-2.3,0.3-3.4,0.1
		c-1-0.2-1.9-0.2-2.9-0.3h-1.4c-0.1,0-0.2,0-0.3-0.1c-0.7-0.7-1.2-1.5-1.4-2.5c-0.1-0.7-0.1-1.4-0.2-2.1c-0.1-0.9-0.1-1.7-0.2-2.6
		c-0.1-1.1-0.5-2-1.6-2.5c-0.1,0-0.2-0.1-0.2-0.2c-0.2-0.5-0.3-0.9-0.4-1.4c0.1-0.1,0.3-0.1,0.5-0.1c0.4,0,0.7,0,1.1-0.1
		c1.8-0.4,3.6-0.9,5.4-1.4c0.6-0.2,1.1-0.2,1.4,0.4c0.1,0.1,0.5,0.3,0.6,0.2c0.2-0.2,0.1-0.4-0.1-0.6c-0.7-0.7-1.4-1.5-2.2-2.2
		c-0.6-0.5-1.1-1-1.7-1.4c-0.9-0.7-1.8-1.2-2.7-1.9c-0.7-0.5-1.3-1.1-2-1.6c-0.2-0.2-0.1-0.3,0-0.5c0.4-1,1.1-1.9,0.9-3
		c0,0,0,0,0.1-0.1c0.2,0,0.3,0.1,0.5,0.2c0.5,0.3,1.1,0.6,1.7,0.5c0.5-0.1,1.1-0.4,1.6-0.6c2.2-1,2.6-3.9,1.2-5.7
		c0-0.1-0.2-0.1-0.3-0.1v0.4c0.1,0.3,0.3,0.6,0.4,0.9c0.3,0.9,0.4,1.9-0.1,2.8c-0.4,0.8-1.1,1.2-1.9,1.6c-0.6,0.3-1.3,0.3-1.9,0
		c-0.4-0.1-0.7-0.3-1-0.5c-1-0.7-1.9-1.3-2.9-2c-0.4-0.3-0.7-0.7-1.1-1c-0.8-0.7-1.4-1.5-0.5-3.4c0-0.2,0.2-0.4,0.3-0.6
		c0.1-0.2,0.3-0.3,0.4-0.5c0.1-0.2,0.1-0.4,0.2-0.6c0.7-0.7,1.4-1.5,2.1-2.2c1.1-1,1.8-2.4,2.7-3.6c0.8-1.2,1.7-2.3,2.6-3.4
		c0.6-0.8,1.4-1.6,1.7-2.5c0.6-1.8,0.2-3.6-1.1-5.1c-1.4-1.5-1.2-1-0.7-3.1c0.4-0.8,0.7-1.6,1.1-2.4c0.9-2,1.8-4.1,2.7-6.1
		c0.8-1.6,1.9-3,3.3-4.1c0.6-0.5,1.3-0.9,1.9-1.4c0.9-0.7,1.9-1.2,3-1.4c1-0.1,1.9-0.3,2.9-0.5c0.4-0.1,0.9-0.2,1.3-0.1
		c1,0.1,2,0.3,3,0.5c0.2,0,0.3,0,0.5-0.1c0.6,0.4,1.2,0.6,1.9,0.5c0,0,0,0,0,0c0.7,0.3,1.3,0.2,1.8,0.1c1.4-0.2,2.8-0.4,4.2-0.2
		c1.9,0.2,3.3,1.1,4.2,2.5c4.4-2,9.3-1.5,14.1-2c1.5-0.2,1.5,2.2,0,2.4c-4.5,0.5-9.2-0.2-13.3,1.9c0.2,0.7,0.3,1.5,0.4,2.3
		c0.2,1.7-0.1,3.4-1,5c-0.7,1.2-1.1,2.5-1.6,3.8c-0.4,1-0.3,1.8,0.3,2.7l0.6,0.9c1,1.4,1.9,2.7,2.5,4.3c0.6,1.5,1,2.9,1.2,4.4
		c0.3,2.1,0.4,4.2,0.7,6.3c0.3,1.9,0.7,3.8,1.1,5.7c0.4,1.8,0.5,3.5-0.2,5.2c-0.3,0.6-0.4,1.2-0.4,1.8c-0.1,1.2-0.4,2.3-0.9,3.3
		c-0.3,0.4-0.3,0.9-0.4,1.4c-0.1,0.9-0.1,1.8-0.3,2.6c-0.2,1.2-0.4,2.5-0.7,3.7c0,0.4-0.1,0.8-0.2,1.2c-0.1,1.1-0.2,2.3-0.4,3.4
		c-0.5,2.2-0.1,4.5,0.5,6.6c0.6,2.1,1.4,4.1,2.4,6c0.2,0.5,0.4,0.9,0.7,1.3c0.8,1,1.6,2,2.5,3c0.7,0.8,1.5,1.5,2.1,2.3
		c1.1,1.6,2.1,3.2,3.2,4.8c1.4,2.1,2.4,4.3,2.8,6.8c0.3,1.9,0.3,3.7-0.6,5.4c-0.3,0.4-0.5,1-0.6,1.5c-0.6,2.3-1.3,4.6-1.9,7
		c-0.5,2-1.3,3.7-2.3,5.4c-0.3,0.5-0.6,1.1-0.9,1.7c-1.1,2.7-2.1,5.4-2.6,8.3c-0.2,1.3-0.5,2.5-0.8,3.8c-0.1,0.5-0.2,0.9-0.3,1.4
		h5.2c0.4,0,0.6-0.2,0.7-0.5c0.3-0.8,0.6-1.6,0.8-2.5c0.3-1.3,1-2.4,1.7-3.5c0.4-0.7,0.9-1.3,1.4-2c0.2-0.3,0.4-0.7,0.7-1
		c0.9-0.9,1.6-2,2.1-3.1c0.6-1.2,1.4-2.3,2.2-3.4c1.7-2.3,3.6-4.5,5.6-6.6c0.8-0.8,1.5-1.8,2-2.9c0.4-1,0.8-2,1.3-3
		c0.7-1.6,1.4-3.1,1.7-4.8c0.1-0.6,0.2-0.6,0.8-0.4c1.2,0.5,2.3,1,3.5,1.5c1.4,0.6,2.9,1.2,4.2,1.9c1.4,0.8,2.9,1.7,4.1,2.9
		c1.2,1.2,2.4,2.3,3.4,3.7c0.6,0.9,1.2,1.8,2,2.5c1,0.9,2.1,1.8,3.2,2.7c0.1,0.1,0.3,0.2,0.5,0.4V309
		C-329,308.7-329.1,308.4-329.2,308.1z M-392.4,308.6c0.4,1.1,0.8,2.2,1.1,3.4c0.1,0.2-0.1,0.5-0.2,0.7c-0.2,0.3-0.5,0.4-0.7,0
		c-0.2-0.4-0.5-0.8-0.8-1.1c-0.8-0.8-0.4-1.8,0.1-2.5C-392.7,309-392.6,308.8-392.4,308.6z M-420.3,281.3c0-0.3,0.1-0.6,0.5-0.5
		c0.3,0.1,0.8-0.1,0.8,0.5c0,0.8,0.1,1.7,0,2.6c-0.1,0.8-0.7,1.2-1.4,1.6C-420.3,284.1-420.3,282.7-420.3,281.3z M-413.9,290.5
		c1.2,0.1,2.5,0.3,3.7,0.4c1.4,0.1,2.7,0.6,3.8,1.4c0.8,0.5,1.6,1.1,2.3,1.7c0.5,0.4,0.9,1,1.1,1.6c0.1,0.3,0.3,0.6,0.5,0.8
		c0.3,0.4,0.3,0.9,0.3,1.3c-0.7,0-1.2-0.1-1.8,0.1c-0.8,0.1-1.5,0.6-2.2,1c-0.8,0.5-1.5,1-2.3,1.5c-2-3.3-3.9-6.4-5.9-9.7
		C-414.1,290.5-414,290.5-413.9,290.5z M-418.5,284.5c0.4-0.6,0.2-1.4,0.2-2.1c-0.1-0.6-0.1-1.1-0.2-1.7c0.5,0.2,0.7,0.5,0.8,0.8
		c0.2,0.8,0.3,1.5,0.4,2.3c0.1,1.3,0.1,2.5,0.3,3.7c0.1,0.6,0.4,1.2,0.7,1.6c1.3,1.6,2.3,3.4,3.2,5.2c0.5,1,1.3,1.8,1.9,2.8
		c0.7,1,1.2,2,1.8,3c0.1,0.2,0.2,0.4-0.1,0.5c-1.6,0.8-2.8,2.2-4.2,3.3c-0.3,0.3-0.7,0.6-1.2,0.9c-0.1-0.3-0.1-0.4-0.3-0.7
		c-0.1-0.3-0.1-0.6-0.3-0.9c-1-1.7-1.5-3.6-2.1-5.5c-0.5-1.5-1.1-2.9-1.7-4.3c-0.2-0.6-0.4-1.2-0.5-1.8c-0.2-1.1-0.5-2.2-0.8-3.3
		c-0.1-0.5-0.1-1.2-0.1-1.8c0,0,0.1-0.2,0.2-0.2C-419.6,285.9-419,285.3-418.5,284.5z M-411.4,276.2c-1.3,0.4-2.5,0.8-3.8,1
		c-0.6,0.2-1.2,0.2-1.7,0.4c-0.9,0.3-1.7,0.2-2.6,0.1c-0.2,0-0.3-0.1-0.2-0.4c0.4-0.8,0.8-1.7,1.2-2.5c0-0.1,0.3-0.2,0.4-0.2
		c1.2,0.2,2.3,0.3,3.5,0.3c0.5,0,1.1,0.3,1.6,0.4C-412.4,275.4-411.9,275.7-411.4,276.2z M-417.9,270.8c1,1,2.2,1.8,3.4,2.6
		c0.6,0.3,1.1,0.8,1.6,1.2l-0.1,0.1h-0.4c-0.7-0.4-1.5-0.3-2.3-0.3c-0.8-0.1-1.5-0.2-2.2-0.3c-0.2,0-0.4-0.2-0.5-0.4
		c-0.4-0.5-0.6-1.1-1-1.6c-0.5-0.6-0.5-1.1-0.2-1.4C-419.1,270.3-418.4,270.3-417.9,270.8z"/>
	<path class="st0" d="M-404.3,250.6c-0.5-0.9-0.5-1.7,0.1-2.6c0,0,0,0-0.1,0c-0.4-0.1-0.9-0.2-0.9-0.6c0-0.3,0.3-0.8,0.5-1
		c0.5-0.4,1.2-0.6,1.9-0.3c0.4,0.1,0.9,0.2,1.3,0.3c0.6,0.2,1.2,0.4,1.7,0.7c0.7,0.3,1.3,0.7,2,1c0.1,0.1,0.2,0.2,0.3,0.3
		c0.1,0.1,0.1,0.3,0.1,0.4c-0.1,0-0.3,0.1-0.4,0c-0.9-0.5-1.8-1-2.8-1.4c-0.9-0.3-1.8-0.5-2.7-0.7c-0.1,0-0.3,0.2-0.5,0.3
		c0.1,0.1,0.2,0.3,0.4,0.3c0.9,0.4,1.7,0.7,2.6,1.1c1.4,0.6,2.4,1.6,3.5,2.5c0.2,0.2,0.4,0.5,0.6,0.7c0.2,0.2,0.2,0.4,0,0.5
		c-0.2,0.2-0.4,0.1-0.6-0.1c-0.2-0.2-0.5-0.5-0.7-0.8c-0.3-0.5-0.7-0.1-1.1-0.1c-0.1,0-0.3,0.1-0.4,0.1c-1.3,0.4-2.7,0.2-4,0.3
		c-0.2,0-0.4-0.1-0.5-0.1s-0.3,0.1-0.4,0.1c0.1,0.1,0.1,0.3,0.3,0.4c0.7,0.2,1.4,0.5,2.2,0.6c0.8,0.1,1.7-0.1,2.5-0.1
		c0.2,0,0.4,0.1,0.6,0.2c-0.2,0.2-0.3,0.4-0.5,0.4c-1,0.3-2.1,0.4-3.1,0c-0.8-0.3-1.7-0.5-2.5-0.8c-0.7-0.2-1.3-1.2-1.2-1.9
		c0-0.3,0.2-0.5,0.5-0.3C-405.2,250.2-404.8,250.4-404.3,250.6z M-400.8,249c-0.2,0.7-0.5,1.3-0.7,2c0.9,0.2,1.8-0.1,2.7-0.4
		c0-0.1,0-0.1,0-0.2C-399.4,249.9-400.1,249.5-400.8,249z"/>
	<path class="st0" d="M-408.3,243.3c0-0.9,0.7-1.8,1.4-1.9c0.8-0.2,1.5-0.3,2.3-0.2c0.3,0,0.6,0,0.9-0.1c0.7,0,1.3-0.1,2-0.1
		c1.5,0,3.1,0.3,4.4,1.1c0.8,0.5,1.5,1.4,2.2,2.1c0.2,0.2,0.1,0.5-0.1,0.7c-0.2,0.3-0.4,0.1-0.6,0c-0.4-0.3-0.7-0.5-1-0.9
		c-0.8-0.8-1.8-1.2-2.9-1.4c-0.6-0.1-1.2-0.3-1.8-0.4c-1.3-0.2-2.5-0.1-3.5,1c-0.1,0.1-0.2,0.3-0.2,0.4c-0.5,1.1-1.6,1.3-2.5,0.4
		C-408.1,243.8-408.2,243.5-408.3,243.3z"/>
	<path class="st0" d="M-409.1,342.8c0.2-0.1,0.3-0.2,0.5-0.2c0.7,0,1.4,0,2,0c1.1,0,1.8-0.7,2.5-1.4c0.7-0.7,1.1-1.7,1.3-2.7
		c0.1-0.5,0.3-1,0.4-1.6c0.3-0.9,0.3-1.9-0.2-2.8c-0.3-0.7-0.6-1.5-0.9-2.3c-0.1-0.2-0.1-0.4,0-0.6c0-0.1,0.3-0.2,0.4-0.2
		s0.2,0.2,0.2,0.4c0.1,0.2,0,0.5,0.1,0.7c0.3,0.7,0.6,1.3,0.9,2c0.3,0.8,0.4,1.6,0.2,2.4c-0.2,1.2-0.5,2.3-0.9,3.4
		c-0.4,1.3-1.4,2.3-2.6,2.8c-1.1,0.5-2.3,0.7-3.5,0.5c-0.2,0-0.5-0.3-0.7-0.4C-409.2,342.9-409.2,342.8-409.1,342.8z"/>
	<path class="st0" d="M-350.2,351c-0.3,0-0.6,0-0.8,0c-0.4-1.7-0.8-3.4-0.7-5.1c0.1-1.4,0.3-2.8,0.5-4.2c0.1-0.4,0.3-0.8,0.5-1.2
		c0-0.1,0-0.3,0.1-0.4c0.1-0.2,0.3-0.3,0.4-0.5c0.1,0.2,0.3,0.4,0.4,0.6c0,0.1-0.1,0.3-0.1,0.5c-0.8,2.1-1,4.2-0.9,6.4
		c0.1,1.1,0.3,2.3,0.5,3.4C-350.3,350.6-350.2,350.8-350.2,351z"/>
	<path class="st0" d="M-415.1,264.9c-0.3,0.3-0.5,0.3-0.8,0.2c-0.8-0.5-1.7-0.9-2.5-1.3c-0.3-0.2-0.7-0.2-1-0.4
		c-0.1-0.1-0.2-0.2-0.3-0.3c0.1-0.1,0.2-0.2,0.4-0.2c0.4,0,0.9,0,1.2,0.2c0.8,0.3,1.5,0.7,2.2,1.1
		C-415.6,264.3-415.4,264.6-415.1,264.9z"/>
</g>
</svg>
