<?xml version="1.0" encoding="utf-8"?>
<!-- Generator: Adobe Illustrator 19.2.1, SVG Export Plug-In . SVG Version: 6.00 Build 0)  -->
<svg version="1.1" id="Layer_1" xmlns="http://www.w3.org/2000/svg" xmlns:xlink="http://www.w3.org/1999/xlink" x="0px" y="0px"
	 viewBox="0 0 100 117.4" style="enable-background:new 0 0 100 117.4;" xml:space="preserve">
<style type="text/css">
	.st0{fill:#03A9F4;}
</style>
<g id="what-if-lady">
	<path class="st0" d="M99.6,114.5c0.4-2.3,0.4-4.5,0.2-6.8c-0.1-1.1-0.4-2.1-0.5-3.3c-0.2-1.6-0.2-3.2-0.5-4.8
		c-0.2-1.1-0.4-2.1-0.6-3.2c-0.1-0.7,0.1-1.3,0-1.9c-0.1-0.8-0.1-1.5-0.1-2.2c0-4.1-0.7-8.1-2-11.9c-1-2.8-2.2-5.4-3.6-8
		c-0.3-0.5-0.5-0.9-0.6-1.5c-0.2-0.7-0.5-1.3-0.8-1.9c-0.5-1.2-1.2-2.3-1.5-3.6c-0.1-0.6-0.5-1-0.9-1.4c-0.5-0.6-1.1-1.1-1.8-1.5
		c-0.3-0.1-0.5-0.3-0.7-0.5c-1-1.4-2.1-2.6-3.8-3.2c-0.5-0.2-0.8-0.7-1-1.2c-0.3-0.9-0.4-1.8-0.6-2.7c-0.8-3.3-1.1-6.6-1-9.9
		c0-2.7,0.1-5.4-0.1-8.1c-0.1-1.9-0.5-3.7-0.7-5.5c-0.4-4.5-1.1-9-1.9-13.5c-0.3-1.6-0.6-3.3-1.3-4.8c-0.5-1-0.9-2.1-1.4-3.1
		c-0.4-0.9-0.8-1.9-1.4-2.7c-0.4-0.6-0.8-1.1-1.2-1.7c-0.4-0.8-1-1.3-1.8-1.7c-0.4-0.2-0.7-0.4-1.1-0.6c-1.4-0.7-2.8-1.4-4.1-2.2
		c-0.9-0.5-2-0.8-3.2-0.9c-3-0.4-6.1-0.5-8.9,1c-2.4,1.2-4.9,2.3-6.9,4.2c-0.9,0.9-1.7,1.7-2.3,2.9c-0.6,1.3-1.1,2.7-1.5,4.1
		c-0.3,0.9-0.6,1.8-0.6,2.8c0,0.7-0.2,1.3-0.4,1.9c-0.5,1.2-0.8,2.4-0.8,3.6c0,1.6-0.3,3.1-0.7,4.5c-0.3,0.9-0.8,1.8-1,2.8
		c-0.4,2.2-0.6,4.5-0.2,6.7c0.2,1.3,0.4,2.5,0.7,3.8c0.3,1.1,0.5,2.2,0.8,3.3c0,0.2,0.2,0.5,0,0.7c-0.4,0.2-0.3,0.5-0.2,0.8
		c0,0.3,0.1,0.5,0.1,0.8v12c0,0.3,0,0.5,0,0.8c0,0.4-0.2,0.5-0.5,0.4c-1.1-0.4-1.9,0-2.5,0.8c-0.5,0.6-1,1.3-2,1.3
		c-0.1,0-0.2,0-0.2,0.1c-2,0.8-4,1.6-6,2.2c-1.8,0.5-3,1.8-4.1,3.2c-0.8,1-1.2,2.3-1.7,3.5c-0.4,1.1-0.7,2.1-0.7,3.3
		c0,1-0.3,1.9-0.7,2.8c-0.7,1.3-1.2,2.7-1.5,4.1c-0.3,1.4-0.4,2.8-0.2,4.2c0.4,2.3,0.2,4.5-0.6,6.8c-0.5,1.5-1.2,2.9-1.3,4.5
		c0,0.5-0.1,0.9-0.2,1.4c-0.2,0.9-0.6,1.8-0.7,2.8c0,0.5-0.4,0.7-0.8,0.7c-1,0-1.9-0.2-2.9-0.4c-1.4-0.2-2.8-0.8-4.2-1
		c-1.1-0.2-2.3-0.3-3.4-0.4c-1.5-0.2-3-0.5-4.5-0.9c-0.4-0.1-0.6,0-0.6,0.4c0,0.7-0.1,1.3-0.4,2c0,0.1,0,0.1,0,0.2
		c0.2,1.2,0.1,2.3-0.2,3.4c-0.1,0.4,0,0.6,0.4,0.6c0.6,0,1.2,0.1,1.7,0.4c4.1,1.6,7.4,4.2,10.9,6.7c0.5,0.3,0.8,0.8,0.8,1.4
		c0.1,0.6,0.1,1.2,0.1,1.9c0,1.4,0.1,2.9-0.2,4.3h1.1c0-2.1,0-4.2-0.3-6.3c0-0.4,0.1-0.5,0.4-0.3s0.6,0.2,1,0.1
		c0.5-0.1,0.9-0.1,1.4,0c0.8,0.2,1.6,0.4,2.5,0.5c0.4,0,0.8,0.2,1.2,0.4c1.4,0.7,2.7,1.4,3.9,2.5c0.8,0.7,1.9,1.2,2.8,1.8
		c0.6,0.4,1.3,0.7,1.9,1.2h0.8c-0.1-0.2-0.1-0.4,0.1-0.5c0.1-0.1,0.2-0.3,0.3-0.4c0.1-0.2,0.1-0.3,0-0.4c-0.2-0.1-0.3,0-0.4,0.1
		c-0.5,0.6-0.6,0.7-1.2,0.2c-1.7-1.1-3.6-2-5-3.4c-0.3-0.3-0.8-0.5-1.2-0.7c-0.2-0.1-0.3-0.2-0.1-0.4c0,0,0-0.1,0.1-0.1
		c0.4-0.8,0.4-0.8,1.1-0.2c1.2,1.1,2.7,1.9,4.3,2.3c0.1,0,0.3,0,0.4,0.1c1.7,1.4,3.8,1.1,5.7,1.4c0.5,0,1,0,1.5,0
		c0.6,0,1.2-0.1,1.8,0.1c0.3,0,0.5,0,0.6-0.3c0-0.2-0.2-0.4-0.4-0.4s-0.4-0.1-0.6-0.1c-0.5,0-1.1,0-1.6,0c-1.2,0.1-2.4-0.1-3.6-0.2
		c-0.4,0-0.5-0.1-0.2-0.4c0.2-0.2,0.3-0.4,0.3-0.6c0-0.1,0-0.2-0.1-0.3c-0.1,0-0.2,0-0.3,0.1c-0.1,0.1-0.2,0.3-0.3,0.4
		c-0.6,0.8-1.4,0.6-1.9,0.2c-0.5-0.4-1-0.7-1.6-0.8c-1-0.3-1.9-0.8-2.7-1.3c-0.1-0.1-0.3-0.2-0.1-0.4c0.7-0.7,0.4-1.4,0.3-2.2
		c0-0.1-0.2-0.3,0-0.4c0.1-0.1,0.3-0.1,0.4,0c0.7,0.4,1.4,0.6,2,1c1,0.5,2,0.4,3.1,0.5c0.4,0,0.7,0.1,1,0.3c0.2,0.1,0.4,0.2,0.7,0.1
		c1.6-0.2,3.3-0.2,4.9-0.3c1.9-0.1,3.6-1.1,5.2-1.9c0.1-0.1,0.3-0.2,0.2-0.4c-0.1-0.2-0.4-0.1-0.5,0c-0.6,0.4-1.2,0.6-1.8,0.9
		c-1.2,0.6-2.4,0.8-3.7,0.9c-1.3,0.1-2.7,0.1-4.1,0.3c-0.1,0-0.2,0-0.3-0.1c-0.1-0.1,0-0.2,0-0.3c0.4-0.5,0.7-1.1,0.4-1.7
		c-0.1-0.2,0.1-0.2,0.2-0.3c0.4-0.1,0.8-0.2,1.2-0.3c0.6-0.1,0.9,0.1,0.8,0.8c0,0.3-0.3,0.6,0.1,0.7c0.3,0,0.3-0.4,0.4-0.7
		c0-0.1,0-0.2,0-0.3c-0.3-0.5,0-0.7,0.5-0.8c1.2-0.5,2.5-0.9,3.6-1.7c0.8-0.5,1.6-0.5,2.4-0.4c2,0.4,4.1,0.7,6,1.2
		c0.8,0.2,1.7,0.5,2.5,1c1.3,0.8,2.8,1.5,4.4,1.6c0.4,0,0.8,0.2,1.1,0.4c0.8,0.6,1.8,1,2.7,1.5c0.9,0.5,1.9,1,2.7,1.5
		c0.2,0.9,1.1,1.2,1.7,1c0.7,0.4,1.4,0.7,2.2,0.9c1.1,0.3,2.1,0.8,3.1,1.2c0.5,0.2,0.8,0.6,0.8,1.2c0,0.3,0.1,0.6,0.1,0.9h0.6
		c-0.1-0.4-0.2-0.8-0.2-1.1c-0.1-0.5-0.2-0.9-0.6-1.2c-0.1,0-0.3-0.1-0.2-0.3c0-0.1,0.2-0.1,0.4-0.1c0.8,0,1.4,0.2,2.1,0.4
		c1.3,0.4,2.5,0.8,3.9,0.8c1.1,0,2.1-0.1,3.1-0.1c0.7,0,1.5-0.1,2,0.5c0.2,0.2,0.4,0.1,0.6-0.1c0.1-0.2,0.2-0.3,0.4-0.3
		c0.7,0,1.4,0,2,0.5c0.1,0.1,0.3,0.3,0.4,0c0.1-0.2,0-0.4-0.2-0.5c-0.1-0.1-0.2-0.1-0.3-0.2c-0.7-0.4-1.4-0.4-2.2-0.4
		c-0.5,0-0.5-0.4-0.5-0.7c0-0.4,0.1-0.5,0.4-0.6c0.4,0,0.7-0.1,1.1-0.2c1.2-0.1,2.2,0.5,3.2,1c0.6,0.3,1.2,0.7,1.9,0.7
		c0.4,0,0.8,0.1,1.2,0.2c0.8,0.2,1.6,0.4,2.2,0.9c0.1,0.1,0.3,0.1,0.4,0c0.1-0.1,0-0.3-0.1-0.4c-0.1-0.1-0.2-0.2-0.4-0.3
		c-0.9-0.6-1.9-0.8-2.9-0.9c-0.8-0.1-1.5-0.4-2.1-0.8c-1.4-0.8-2.9-1.4-4.6-0.8c-0.3,0.1-0.4,0-0.4-0.2c0-0.6-0.1-1.2,0.1-1.7
		c0.3-0.7,0.4-1.5,0.5-2.3c0-0.4,0.2-0.7,0.5-0.6c1.5,0.1,2.9-0.2,4.4,0c1.9,0.2,3.7-0.3,5.4-0.9c0.2-0.1,0.4-0.1,0.3-0.4
		c0-0.2-0.3-0.2-0.5-0.1c-0.6,0.2-1.2,0.3-1.7,0.5c-1.6,0.5-3.2,0.4-4.8,0.3c-0.5,0-0.9-0.3-1.4-0.1c-0.5,0.2-1,0.1-1.5,0.2
		c-0.5,0-0.8-0.1-0.7-0.7c0-0.2,0-0.4-0.1-0.7c-0.1-0.7-0.5-1.2-0.5-2v-3.7c0-0.5,0.1-1.1,0-1.6c-0.2-1.4,0-2.8,0.7-4
		c0.8-1.3,1.4-2.7,2-4.1c1-2.3,1.8-4.8,2.4-7.3c0-0.3,0.2-0.7-0.2-0.8c-0.4-0.1-0.4,0.4-0.4,0.6c-0.4,1.5-1,3-1.4,4.5
		c-0.4,1.6-1.2,3-1.8,4.5c-0.2,0.5-0.4,1-0.8,1.4c-0.2-0.3-0.1-0.5-0.1-0.8c-0.1-2.5,0.2-4.9,0.3-7.3c0-0.8,0-1.5,0.1-2.2
		c0.3-2,0.5-4,0.4-6c0-0.3,0-0.6-0.4-0.6c-0.3,0-0.3,0.4-0.3,0.6c0,0.8-0.1,1.6-0.2,2.5c-0.1,1.2-0.4,2.5-0.4,3.7
		c0,2.8-0.5,5.6-0.3,8.4c0,0.6,0,1.2-0.1,1.7c-0.4,2.6-0.5,5.3-0.4,8c0,1.3-0.1,2.7,0.5,3.9c0.2,0.4,0.1,0.8,0.1,1.1
		c0,0.4,0,0.9,0,1.3c0.1,0.6,0,1.2-0.2,1.8c-0.3,0.7-0.4,1.3-0.4,2c0,0.7,0.1,1.4,0.2,2.1c0,0.3,0,0.4-0.4,0.4
		c-1.2-0.3-2.4-0.1-3.5,0c-1.7,0.1-3.3-0.3-4.9-0.8c-0.3-0.1-0.4-0.2-0.4-0.5c0-0.2-0.1-0.4-0.1-0.6c-0.4-1.6-0.3-3.1-0.3-4.7
		c0-2.9,0.1-5.7-0.2-8.6c-0.3-2-0.4-4-0.4-6v-3.4c0-3-0.5-5.8-1.1-8.7c-0.3-1.2-0.2-2.5-0.6-3.7c-0.8-2.5-1-5.2-1.2-7.8
		c-0.1-3,0.2-6,0.7-9c0.3-1.4,0.6-2.9,1.2-4.2c0.5-1.2,0.4-2.4,0.6-3.6c0-0.1-0.1-0.3,0-0.4c0.2-0.1,0.4,0,0.5,0.1
		c1.4,1,3,1.7,4.3,2.9c0.3,0.2,0.6,0.4,1,0.5c1.3,0.5,2.8,0.7,4.1,1.4c0.8,0.4,1.4,1,2.3,1.3c1.3,0.4,2.3,1.2,3.1,2.3
		c0.6,0.8,1.3,1.3,2.1,1.9c0.9,0.7,1.7,1.6,1.8,2.9c0,0.2,0.1,0.4,0.2,0.7c1.3,2.7,2.6,5.4,3.8,8.2c0.7,1.4,1.4,2.8,1.9,4.2
		c0.8,2.4,1.3,4.8,1.9,7.2c0.4,2,0.4,4,0.4,6c0,1.9,0.1,3.7,0.4,5.7c0.7,3.6,1.1,7.2,1.4,10.8c0.1,1.3,0.1,2.7-0.2,4.1
		c-0.3,1.4-0.4,2.7-0.1,4.1c0.2,0,0.4,0,0.5,0.3C99.5,116.5,99.5,115.5,99.6,114.5z M35.9,59.3c0.5-0.4,1-0.8,1.4-1.3
		c0.8-0.8,1.4-0.9,2.5-0.4c0.7,0.3,1.3,0.8,1.7,1.3c0.1,0.2,0.3,0.4,0.4,0.4c1,0.5,1.3,1.6,1.7,2.5c0,0.2,0.2,0.4-0.2,0.5
		c-1.4,0.1-1.7,1.2-1.5,2.2c0,0.2,0.1,0.4,0.2,0.7c-0.7-0.5-0.9-1.2-1-1.8c-0.1-0.7-0.6-1-1-1.5c-0.6-0.6-1.5-0.9-2-1.6
		c0-0.1-0.2-0.1-0.2,0c-0.3,0.4-0.7,0.4-1.1,0.5c-0.4,0.1-0.9,0-1.5,0.3c0.3-0.6,0.6-1.1,0.6-1.6C35.7,59.5,35.8,59.4,35.9,59.3z
		 M43.3,60.1c0-0.1-0.1-0.2,0-0.3c0.1-0.2,1-0.8,1.2-0.8c0.4,0.1,0.6,0.4,0.6,0.8c0,0.1,0,0.2,0,0.3c-0.2,0.8-0.3,1.6-0.5,2.4
		c0,0.3,0,0.6-0.1,0.8c0,0.1,0,0.3-0.2,0.3c-0.1,0-0.2-0.1-0.2-0.3C44.3,62.2,43.7,61.2,43.3,60.1z M44,64.6c-0.1,0.4,0,1-0.6,1.2
		c-0.4,0.1-0.6,0.1-0.8-0.3c-0.2-0.5-0.4-0.9-0.4-1.5c0-0.5,0.3-0.8,0.7-1c0.5-0.3,0.9,0,0.9,0.5C43.9,63.8,44,64.2,44,64.6z
		 M44.6,58.3c0,0.1-0.1,0.2-0.3,0.2c-0.4,0.1-0.7,0.3-1,0.5c-0.2,0.1-0.4,0.4-0.5,0.2c-0.3-0.3-0.7-0.4-0.8-0.8c0-0.4,0-0.9,0-1.4
		c0-0.1,0-0.2,0.2-0.3c1.4-0.9,2.5-2.2,3.3-3.7c0,0,0.1,0,0.2-0.2c0,0.5,0.1,1,0,1.4C45.4,55.6,45.2,57,44.6,58.3z M43.6,54.7
		c-0.3,0.4-0.6,0.8-1,1c-0.2,0.1-0.3,0.3-0.5,0.1c-0.2-0.1-0.1-0.3-0.1-0.5v-8c0-0.3,0.1-0.4,0.4-0.2c0.1,0.1,0.2,0.1,0.3,0.2
		c0.6,0.6,1.4,0.9,2.3,1.1c0.1,0,0.3,0.1,0.4,0.1c0.6,0.1,0.7,0.4,0.8,1C46.1,51.6,44.8,53.1,43.6,54.7z M39.4,69.6
		c-0.1,0-0.4,0-0.5,0c-0.3,0.1-0.3,0-0.4-0.3c-0.6-1.8-1.2-3.5-1.9-5.3c-0.3-0.6-0.8-0.8-1.4-0.9c-1.2-0.1-2.2,0.3-3.3,0.6
		c-0.3,0.1-0.5,0.2-0.8,0.2c-0.2,0-0.4,0-0.4,0.3c0,0.3,0.3,0.1,0.4,0.1c0.9-0.1,1.7-0.5,2.6-0.7c0.6-0.1,1.2-0.1,1.7-0.1
		c0.4,0,0.6,0.3,0.8,0.6c0.1,0.3,0.3,0.6,0.4,0.9c0.4,1.4,0.9,2.7,1.4,4c0.4,1-0.4,2.3-1.4,2.5c-0.6,0.1-1,0.6-1.4,0.9
		c-0.2,0.1-0.3,0.6-0.6,0.3c-0.3-0.3,0.1-0.4,0.2-0.6c0.2-0.3,0.4-0.5,0.7-0.8c0.4-0.5,0.5-1.1,0.3-1.7c-0.4-1.1-1-2-1.6-3.1
		c-0.3-0.6-0.9-0.8-1.6-0.7c-1.1,0.1-2.1,0.2-3.1,0.4c-0.8,0.1-1.6,0-2.3,0.2c-0.3,0.1-0.2-0.1-0.2-0.3c0.2-0.6,0.6-1.1,1.2-1.2
		c0.6,0,0.9-0.4,1.2-0.8c0.4-0.7,0.9-1.1,1.7-1.2c0.8-0.1,1.5-0.4,2.2-0.7c1.2-0.7,2.5-0.9,3.9-1.1c0.7-0.1,1.5,0.4,1.7,1.1
		c0.5,1.3,1,2.7,1.6,4.1c0.1,0.3,0.2,0.5,0.1,0.8c0,0.8-0.1,1.5-0.5,2C40,69.5,39.9,69.7,39.4,69.6z M39.4,70.6
		c-0.3,0.6-0.6,1.1-1.2,1.2c-0.3,0-0.4,0-0.5-0.2c0-0.1,0.1-0.2,0.1-0.3c0.2-0.3,0.3-0.5,0.4-0.8c0.1-0.3,0.3-0.4,0.6-0.5
		c0.2,0,0.4,0,0.5,0.1C39.7,70.3,39.5,70.5,39.4,70.6z M36.8,72.2c-0.3,0.5-0.6,0.9-1,1.4c-0.1,0.1-0.2,0.1-0.4,0.1
		c-0.1-0.1-0.5,0-0.3-0.3c0.4-0.6,0.8-1.2,1.5-1.4c0.1,0,0.2-0.1,0.2,0C36.9,72.1,36.9,72.2,36.8,72.2z M39.5,62.3
		c0.8,0.4,1,0.8,0.5,1.6C39.9,63.4,39.6,62.9,39.5,62.3z M17.8,97.9c0-0.2,0.2-0.5,0.4-0.9c0.4-0.9,0.6-1.9,0.6-2.9
		c0-1.2,0.7-2.3,1.1-3.4c0.9-3,1.6-5.9,1-9.1c-0.4-1.7,0.2-3.4,0.7-5c0.3-1,0.8-2,1.2-2.9c0.3-0.6,0.5-1.2,0.4-1.9
		c-0.1-2.1,0.8-4,1.7-5.7c0.6-1.2,1.4-2.4,2.5-3.2c0.9-0.6,2-1,3-1.4c1.5-0.5,3-1,4.4-1.7c0.1,0,0.2-0.2,0.3,0c0.1,0.1,0,0.2,0,0.4
		c-0.2,0.6-0.6,1.1-1.2,1.4c-0.8,0.4-1.7,0.8-2.6,0.9c-1.1,0.1-1.9,0.8-2.5,1.7c-0.1,0.2-0.2,0.3-0.5,0.4c-0.9,0.1-1.5,0.7-1.8,1.6
		c-0.1,0.3-0.2,0.5-0.4,0.7c-0.8,0.7-1.1,1.6-1.2,2.7c-0.1,2.4,0.3,4.8,0.8,7.1c0.3,1.4,0.3,2.8,0.2,4.1c0,0.2,0,0.5-0.2,0.7
		c-0.9,1.3-1,2.9-1.1,4.4c0,1.6-0.4,3-0.6,4.5c-0.2,1.1-0.4,2.1-0.8,3.2c-0.4,0.9-1,1.7-1.7,2.4c-1,1-2.3,1.6-3.4,2.5
		c-0.1,0.1-0.1,0.2-0.3,0.1C17.8,98.2,17.8,98.1,17.8,97.9z M32.2,105.7c0,0.1,0,0.3-0.1,0.4c-0.1,0.2-0.1,0.5,0,0.7
		c-0.1,0.1-0.2,0.1-0.4,0.1c-0.6,0-1.1-0.2-1.7-0.1c-0.2,0-0.3-0.1-0.4-0.2c-1.3-1.5-3.1-2.5-4.7-3.5c-0.7-0.4-1.2-0.8-1.8-1.4
		c-1-1-2.1-1.9-3.7-2c-0.4,0-0.7-0.2-1-0.3c-0.3-0.1-0.4-0.3-0.2-0.5c0.7-0.8,1.6-1.3,2.5-1.8c0.1-0.1,0.2,0,0.2,0.1
		c0.2,1.1,1,1.8,1.5,2.7c0.6,1.2,1.7,1.9,2.7,2.8c0.1,0.1,0.3,0.2,0.5,0.2c1.5,0,3,0.3,4.5,0.4c0.6,0,1.2-0.1,1.6-0.6
		c0.1-0.1,0.2-0.4,0.4-0.3c0.1,0,0.1,0.1,0.1,0.2c0,0,0,0.1,0,0.1c0,0.1,0,0.2,0,0.3v1.6h0C32.2,105,32.2,105.4,32.2,105.7z
		 M23.2,103.9c0.2-0.2,0.2-0.5,0.2-0.8c0-0.4,0.2-0.4,0.4-0.2c0.1,0.1,0.3,0.2,0.4,0.3c0.4,0.2,0.6,0.5,0.5,0.9
		c0.1,0.7-0.4,1-0.7,1.5c-0.1,0.1-0.2,0.1-0.4,0c0,0-0.1-0.1-0.1-0.1C23.1,105.1,22.5,104.7,23.2,103.9z M22.7,103.9
		c-0.2,0.4-0.5,0.4-0.8,0.1c-0.6-0.6-0.6-0.6-0.1-1.2c0.3-0.4,0.2-0.9,0.3-1.3c0.1,0,0.1,0,0.1,0C23.1,102.2,23.2,102.9,22.7,103.9z
		 M1.4,96.8c0.1-0.2,0.3-0.1,0.5-0.1c1.4,0.3,2.9,0.6,4.2,0.9c2,0.4,4.1,0.9,6.2,1.1c1.4,0.1,2.8,0.4,4.2,0.5c0.1,0,0.2,0,0.3,0.1
		c1.2,0.6,2.5,0.9,3.7,1.2c0.3,0,0.8,1,0.7,1.2c-0.1,0.4-0.4,0.1-0.4,0.2c-1.7,0-3.3-0.4-4.8-0.8c-2.1-0.4-4.1-0.8-6.2-1.2
		c-1.9-0.3-3.7-0.9-5.7-1.1c-0.8,0-1.6-0.1-2.3-0.5C1.2,98,1,97.3,1.4,96.8z M1.2,101c-0.3-0.2,0-0.6,0-0.9c-0.1-0.4,0-0.8,0-1.1
		c0-0.3,0.1-0.4,0.4-0.3c1.1,0.7,2.5,0.5,3.7,0.8c0.8,0.2,1.6,0.3,2.5,0.5c1.2,0.4,2.5,0.5,3.7,0.8c1.2,0.3,2.5,0.5,3.7,0.8
		c1.9,0.3,3.7,1,5.7,0.9c0.3,0,0.3,0.1,0.2,0.4c-0.3,0.5-0.5,0.6-0.8,0.6c-1.7-0.3-3.4-0.1-5.2,0c-2.2,0.1-4.2-0.3-6.3-1
		c-1-0.3-2.1-0.5-3.2-0.6c-1.1,0-2.1-0.5-3.3-0.6C1.9,101.2,1.5,101.2,1.2,101z M19.4,110c0.2,0.6,0.1,0.6-0.4,0.5
		c-0.5-0.1-1-0.3-1.5-0.4c-0.4-0.1-0.8-0.2-1.2,0c-0.5,0.1-0.8,0-1.2-0.3c-2.4-1.7-4.7-3.4-7.1-5c-1.5-1-3-1.9-4.7-2.5
		c-0.2,0-0.4-0.1-0.4-0.3c0.1-0.1,0.3-0.1,0.4,0c1,0.4,2.1,0.4,3.2,0.5c1.1,0.1,2,0.5,3.1,0.8c2.4,0.8,4.9,0.8,7.4,0.6
		c1.4-0.1,2.8-0.1,4.1,0.3c0.1,0,0.3,0,0.3,0.1c0.6,0.6,1.5,1,2,1.7c0.5,0.7,1.2,1.1,1.7,1.6c0.1,0.1,0.3,0.2,0.3,0.4
		c-0.5-0.1-1.1-0.2-1.6-0.4c-0.6-0.2-1.1-0.1-1.6,0.3c-0.2,0.1-0.3,0.3-0.5,0.2c-0.9-0.2-1.4,0.4-2,0.8
		C19.3,109.2,19.3,109.6,19.4,110z M22.8,111.2c-0.1,0.3-0.4,0.5-0.7,0.4c-0.7-0.3-1.2-0.8-1.8-1.2c-0.3-0.2-0.5-0.5-0.4-0.9
		c0.1-0.3,0.9-0.8,1.2-0.8c0.2,0,0.3,0,0.4,0.2c0.3,0.6,0.8,1,1.3,1.3C23.4,110.6,22.9,110.9,22.8,111.2z M25,110.9
		c-0.1,0.2-0.2,0-0.4,0c-0.8-0.6-1.6-1.2-2.4-1.8c-0.4-0.3-0.4-0.5,0-0.8c1.1-0.7,2.9,0.2,3,1.4c0,0.2,0,0.3,0,0.4
		C25.5,110.5,25.2,110.7,25,110.9z M25.2,107c0,0-0.1,0-0.1-0.1c-0.8-0.6-0.8-0.6-0.1-1.4c0.3-0.4,0.4-0.7,0.4-1.2
		c0-0.3,0.1-0.4,0.4-0.2c0.8,0.4,0.9,0.6,0.9,0.9c0,0.8-0.2,1.3-0.6,1.8C25.8,107.2,25.5,107.3,25.2,107z M26.2,107.7
		c-0.1-0.1,0-0.3,0.1-0.4c0.4-0.5,0.7-1.1,0.8-1.8c0-0.4,0.1-0.5,0.4-0.2c0.2,0.1,0.4,0.3,0.6,0.4c0.3,0.2,0.5,0.4,0.4,0.7
		c0,0.6-0.2,1-0.6,1.4C27.4,108.4,26.5,108.3,26.2,107.7z M28.9,109.3c-0.2,0-0.4-0.1-0.5-0.1c-0.7-0.3-0.7-0.4-0.2-0.9
		c0.3-0.3,0.5-0.7,0.6-1.1c0.1-0.5,0.3-0.4,0.5-0.1c0.1,0.1,0.3,0.3,0.4,0.4c0.3,0.2,0.4,0.5,0.2,0.8
		C29.7,108.7,29.5,109.1,28.9,109.3z M31.6,109.5c-0.1,0.2-0.4,0-0.6,0.1c-0.2,0-0.4,0-0.7-0.1c-0.1,0-0.4,0.2-0.4,0
		c0-0.1,0.1-0.3,0.2-0.4c0.5-0.7,0.5-0.7,1.1-0.1c0,0,0.1,0,0.1,0.1C31.3,109.2,31.7,109.3,31.6,109.5z M32.5,109.2
		c-0.1,0.1-0.3,0.2-0.4,0c-0.4-0.5-0.9-1-1.4-1.6c-0.1-0.1-0.2-0.1-0.1-0.3c0.1-0.1,0.2,0,0.4-0.1c0.4,0,0.8,0.1,1.2,0.2
		C32.9,107.7,33.1,108.6,32.5,109.2z M35.4,83.9c-0.5,0.9-0.8,1.9-1.2,2.9c-0.3,0.7-0.6,1.3-0.8,2c-0.3,0.2-0.5,0.6-0.6,1.1
		c0,0.4-0.1,0.8-0.1,1.2c-0.5,2.3-0.6,4.7-0.6,7.1c0,0.9,0,1.8,0,2.7c0,0.8-0.5,1.3-0.9,1.9c-0.1,0.2-0.3,0.1-0.5,0.1
		c-1.1-0.1-2.1-0.1-3.2-0.2c-0.4,0-0.7,0-1,0c-0.3,0-0.5,0-0.8-0.2c-0.7-0.6-1.5-1.1-2-1.9c-0.6-0.8-1.1-1.6-1.6-2.5
		c-0.3-0.5-0.3-1,0.1-1.5c0.1-0.2,0.3-0.4,0.4-0.5c1.4-1.4,1.9-3.2,2.2-5c0.1-0.7,0.3-1.4,0.4-2.1c0.3-1.4,0.2-2.9,0.4-4.3
		c0.2-1,0.3-2,1-2.9c0.4-0.5,0.2-1.1,0.3-1.6c0.2-1.2-0.2-2.4-0.4-3.6c-0.4-2.3-0.8-4.5-0.8-6.8c0-0.4,0-0.8,0.2-1.1
		c0.4-1.2,1.2-1.6,2.5-1.6c1.2,0,2.5-0.2,3.7-0.4c0.3,0,0.6-0.1,0.9-0.1c0.6,0,1.1,0.2,1.4,0.8c0.3,0.8,0.8,1.4,1.2,2.2
		c0.4,0.8,0.4,1.4-0.2,2c-0.7,0.7-1.2,1.5-2,2c-0.5,0.4-0.7,0.3-1-0.2c-0.4-0.8-0.4-1.6,0.3-2.2c0.3-0.3,0.3-0.5,0-0.7
		c-0.4-0.3-0.5-0.7-0.5-1.2c0-0.2,0-0.3-0.1-0.4c-0.2,0-0.3,0.2-0.3,0.3c-0.1,0.3,0.1,0.6-0.4,0.8c-0.4,0.1-0.8,0-1.2-0.1
		c-0.3-0.1-0.5-0.2-0.7-0.3c-0.2,0-0.4,0-0.4,0.1C28.8,69.9,29,70,29.2,70c0.4,0.1,0.8,0.4,1.2,0.4c0.1,0,0.2,0,0.3,0.2
		c0,0.2-0.1,0.2-0.2,0.3c-0.8,0.4-1.6,0.9-2.6,0.8c-0.1,0-0.4,0-0.4,0.3c0,0.3,0.2,0.1,0.4,0.2c1.4,0.2,2.5-0.6,3.6-1.3
		c0.2-0.1,0.4-0.3,0.5-0.1c0.2,0.2,0,0.4-0.1,0.5C31.2,72,31.3,73,32,73.8c0.4,0.4,0.7,0.5,1.2,0.2c0.3-0.2,0.5-0.4,0.8-0.7
		c0.2-0.3,0.4-0.3,0.5,0.1c0.1,0.5,0.5,0.8,1,0.8c0.5,0,0.8-0.3,1-0.6c0.3-0.4,0.5-0.8,0.8-1.1c0.1-0.2,0.3-0.3,0.5-0.2
		c0.5,0.2,1,0,1.4-0.4c0.2-0.2,0.4-0.4,0.6-0.7c0.4-0.8,0.8-1.6,1.2-2.4c0.4-0.8,0.2-1.7,0-2.5c-0.1-0.5-0.3-1.1-0.6-1.6
		c-0.2-0.4,0.2-0.5,0.4-0.8c0,0.3,0.1,0.5,0.4,0.8c0.4,0.7,0.4,1.4,0.5,2.1c0,0.4,0,0.8,0.4,1.2c0.1,0.2,0.1,0.5,0.2,0.8
		c0,0.1,0,0.3,0.2,0.2c0.1,0,0.2,0,0.2-0.2c0-0.7,0.4-1.4,0.2-2.1c0-0.3,0.1-0.4,0.4-0.3h0.2c0.5,0,0.7,0,0.6,0.6
		c-0.4,1.5-0.4,3.1-0.8,4.6c-0.3,1.1-1,2-1.4,3.1c-0.1,0.2-0.2,0.4-0.2,0.5c-0.4,1.5-1.3,2.6-2.4,3.6c-0.9,0.9-1.8,1.8-2.5,2.9
		c-0.6,0.9-1.5,1.3-2.4,1.6c-1,0.3-2,0.5-3,0.4c-0.4,0-0.5,0.2-0.5,0.5c0,0.2,0,0.3,0.2,0.2c1-0.3,2.1,0,3.1-0.4
		c0.3-0.1,0.7-0.2,1-0.3c0.1,0,0.2-0.1,0.3,0C35.5,83.8,35.4,83.8,35.4,83.9z M37.7,85.7c-0.6-0.1-1.2-0.3-1.9-0.4
		c-0.4,0-0.4-0.2-0.3-0.5c1-1.7,1.8-3.6,3.4-4.9c1.7-1.6,2.9-3.6,3.7-5.7c0.7-1.9,1.3-3.9,1.5-5.9c0-0.5,0.2-1,0.4-1.5
		c0.4-1.1,0.5-2.2,0.7-3.3c0.1-0.4,0.1-0.9,0.3-1.3c0.3-0.8,0.2-1.5,0.2-2.3c0-0.1,0-0.2,0-0.2c-0.7-0.9-0.2-1.8,0.1-2.7
		c0.4-1.5,0.7-3,0.7-4.5c0-1.1,0.2-2.2,0.2-3.3c0-0.2,0.1-0.4,0.4-0.4c1.5,0.3,2.9,0,4.3-0.2c1-0.1,2-0.2,2.9-0.5
		c0.7-0.3,1.4-0.6,2.2-0.8c0.9-0.3,1.8-0.7,2.7-0.9c2.2-0.7,3.8-2,4.6-4.2c0.4-1,0.9-2,1.3-3c0.3-0.6,0.8-0.9,1.2-1.3
		c0.2-0.2,0.4-0.1,0.6,0c0.2,0.2,0.3,0.4,0.2,0.7c-0.1,0.4-0.3,0.7-0.5,0.9c-0.7,1-1.3,2-1.8,3.1c-0.7,1.7-0.7,3.4-0.3,5.2
		c0.4,1.6,0.3,3.3,0,5c-0.1,1-0.2,2-0.5,3c-0.1,0.4-0.3,0.8-0.4,1.2c-0.5,1.5-1,2.9-1.6,4.5c-0.2,0.7-0.7,1.2-1.4,1.4
		c-1.2,0.4-2.5,0.4-3.7,0.4c-0.8,0-1.6-0.1-2.5,0.1c-0.1,0-0.2,0-0.4,0.1c-0.2,0.1-0.4,0.2-0.3,0.5c0.1,0.3,0.3,0,0.4,0
		c0.4-0.2,0.8-0.2,1.3-0.2c1.5,0,2.9,0.2,4.4-0.2c0.4-0.1,0.7-0.2,1.1-0.3c0.3-0.1,0.4-0.1,0.4,0.3c-0.6,3.1-0.4,6.2-0.4,9.3
		c0,1.2,0.1,2.4,0.2,3.6c0,1.9-0.4,3.7-0.2,5.6c0,0.9-0.3,1.5-1,2c-0.1,0.1-0.2,0.2-0.3,0.2c-0.1,0-0.2,0.1-0.3,0.1
		c-2.7,1.9-5.7,2.6-8.8,2.9c-0.3,0-0.5,0-0.8,0c-1.6,0.2-3.3-0.4-5.1-0.5C42.4,86.4,40,86,37.7,85.7z M55.6,95.3
		c-0.3,0-0.5,0.1-0.8,0.1c0.1,0,0.1,0,0.2-0.1c0.3-0.1,0.6-0.1,0.9-0.1C55.8,95.2,55.7,95.2,55.6,95.3z M68.4,58.3
		c-0.8,2.4-1.2,4.9-1.3,7.5c-0.1,1.2-0.1,2.3-0.1,3.4c0,2.5,0.2,5.1,0.8,7.5c0.7,2.5,0.9,5,1.5,7.5c0.5,2.3,0.7,4.6,0.6,6.9
		c-0.1,3.6,0.1,7.2,0.5,10.7c0.3,2.4,0,4.9,0.1,7.3c0,1.4,0,2.8,0.3,4.1c0.1,0.4,0,0.6-0.5,0.6s-1-0.1-1.3,0.4c-0.1,0.2-0.3,0-0.4,0
		c-1.2-0.5-2.4-0.9-3.7-1.3c-0.4-0.1-0.4-0.3-0.4-0.7c0-0.1,0-0.2,0-0.2c0,0,0,0,0-0.1c0.2-3.4,0-6.9-0.6-10.3
		c-0.1-0.6-0.1-1.2,0-1.8c0.1-0.9-0.2-1.8-0.5-2.6c-0.4-1.4-0.3-2.9-0.7-4.3c-0.5-2-0.4-4.1-0.8-6.1c0.2-0.7,0.3-1.4,0.1-2
		c-0.1-0.2-0.2-0.4-0.4-0.6c0-0.7,0-1.4,0-2.2c-0.1-1.3,0.2-3,0.1-4.8c0-3.2-0.3-6.3-0.1-9.5c0-1.5,0.1-3,0.5-4.5
		c0.1-0.5,0.4-1,0.5-1.4c0.8-1.7,1.2-3.7,2-5.4c0.5-1.1,0.6-2.3,0.8-3.5c0.1-0.8,0.4-1.5,0.4-2.3c0-0.3,0.2-0.5,0.2-0.8
		c0-0.2,0.2-0.2,0.3,0c0.6,0.8,1.6,1.1,2.3,1.7c0.5,0.4,0.6,0.9,0.7,1.5C69.5,54.8,68.9,56.5,68.4,58.3z M72.4,32.9
		c0,1.1-0.1,2.1-0.3,3.1c0,0,0,0.2-0.1,0.2c-0.9,1-1.9,1.9-3.4,1.7c-0.3,0-0.5-0.2-0.8-0.4c-0.3-0.2-0.5-0.4-0.8-0.5
		c-0.2-0.1-0.3-0.3-0.2-0.5c0.3-0.6,0.5-1.2,0.8-1.8c0.1-0.1,0.3-0.3,0-0.4c-0.2-0.1-0.4,0-0.5,0.2c-0.2,0.3-0.4,0.6-0.5,0.9
		c-0.3,0.7-0.5,1.4-1,1.9c-0.9,0.8-1.5,1.8-1.9,2.9c-0.3,0.8-0.8,1.6-1.2,2.5c-0.6,1.3-1.6,2.1-2.9,2.6c-1.9,0.7-3.8,1.4-5.7,2.1
		c-0.5,0.2-1.1,0.3-1.6,0.4c-1.5,0.1-2.9,0.4-4.4,0.4c-0.5,0-1.1,0-1.6-0.4c-0.1,0-0.3-0.1-0.4-0.1c-1.1,0.2-2-0.4-3-0.8
		c-0.9-0.4-1.3-1.2-1.7-2c-0.4-0.7-0.4-1.5-0.5-2.3c0-1.2-0.4-2.3-0.7-3.4c-0.3-1.1-0.7-2.2-0.9-3.3c-0.3-1.4-0.5-2.9-0.4-4.3
		c0-0.8,0.1-1.6,0.2-2.5c0.2-1.2,0.6-2.2,1-3.3c0.6-1.5,1-2.9,1-4.5c0-0.3,0.1-0.5,0.1-0.8c0.1-0.8,0.5-1,1.2-0.5
		c0.8,0.5,1.6,1,2.5,1.3c0.8,0.2,1.5,0.8,1.9,1.7c0,0.1,0.1,0.3,0,0.4c-0.5-0.5-1-1-1.6-1.4c-0.7-0.5-1.5-0.5-2.3-0.4
		c-0.1,0-0.2,0.1-0.2,0.1c-0.2,0.2-0.4,0.4-0.5,0.7c-0.6,0.9-0.4,1.5,0.6,1.9c0.9,0.4,1.8,0.5,2.8,0.8c0.8,0.2,1.3,0.4,0.8,1.6
		c-0.6,1.5-1.3,2.9-2.5,4.1c-0.7,0.7-0.9,1.4-0.4,2.3c0.5,1,1.1,1.9,2.3,2.1c0.1,0,0.2,0.1,0.4,0C46.2,35,46,35,45.9,34.9
		c-1.1-0.4-1.7-1.2-2.1-2.4c-0.1-0.4-0.1-0.8,0.1-1.1c0.1-0.1,0.2-0.3,0.4-0.4c1.7-1.7,2.6-3.8,3.1-6.1c0.3-1.2-0.1-2.4-0.7-3.4
		c-0.3-0.5-1-0.8-1.5-1c-0.6-0.3-1.1-0.7-1.6-1c-0.4-0.2-0.8-0.4-1.3-0.4c-0.3,0-0.3-0.2-0.2-0.3c0.3-0.5,0.2-1,0.3-1.5
		c0.5-2.6,1.8-4.6,4.2-5.9c1.9-1,3.9-1.6,6-2c1.2-0.2,2.3-0.7,2.8-1.7c0.6-1.1,1.5-1.9,2.2-2.8c0.2-0.2,0.4-0.3,0.7-0.3
		c0.1,0,0.3,0.1,0.1,0.3c-0.4,0.5-0.7,1.2-1.2,1.6c-0.6,0.5-0.9,1.1-1.2,1.8c-0.2,0.6,0.2,1.6,0.8,2c1.5,1.1,3.2,2.1,4.2,3.7
		c0.4,0.5,0.7,1.1,1,1.7c0.5,1,1.1,2,1.7,2.9c0.5,0.8,0.4,1.6,0.8,2.5c0.4,1,0.8,1.9,1.4,2.7c0.3,0.4,0.5,0.7,0.8,1.1
		c0.4,0.5,0.7,1.1,0.6,1.8c0,0.4,0,0.8,0.1,1.1c0.3,1.6,1.4,2.2,2.9,1.9c0.5-0.1,1-0.3,1.3-0.6c0.1-0.1,0.2-0.3,0.4-0.2
		c0.2,0,0.2,0.2,0.2,0.4C72.4,30.5,72.5,31.7,72.4,32.9z M45.4,22.7c0.8,0.5,1.4,1,1.6,1.8c0,0.1,0.1,0.3,0,0.4
		c-0.1,0.1-0.3,0-0.4,0c-0.4-0.2-0.9-0.2-1.3-0.3c-0.3-0.1-0.5-0.2-0.2-0.4C45.4,23.8,45.4,23.3,45.4,22.7z M42.9,23.8
		c-0.2,0-0.4-0.2-0.4-0.4v-0.3c0-0.4,0.2-0.6,0.5-0.8c0.1-0.1,0.2-0.1,0.3,0s0.1,0.2,0,0.3c-0.2,0.3-0.3,0.5-0.3,0.8
		C43.1,23.5,43.1,23.8,42.9,23.8z"/>
	<path class="st0" d="M58.8,27.7c-0.4,0-0.8,0.1-1.2,0.1c-0.8,0-1.6-0.1-2.5-0.3c-0.8-0.2-1.6-0.4-2.4-0.4c-0.4,0-0.6-0.2-0.4-0.5
		c0.5-1.1,1.8-2.5,3.2-2.4c0.6,0,1.2,0.4,1.7,0.8c0.8,0.4,1.5,1.1,2.1,1.7c0.2,0.2,0.5,0.5,0.4,0.7C59.5,27.7,59.1,27.7,58.8,27.7z
		 M56.1,27.2c1,0.3,1.8,0,2.8,0c-0.7-0.5-1.3-0.9-2-1.4C56.8,26.3,56.6,26.8,56.1,27.2z M53,26.6c0.5,0,1,0.2,1.6,0.2
		c-0.1-0.4-0.2-0.7-0.1-1.1c0-0.1,0-0.2-0.1-0.3c-0.1,0-0.2,0-0.2,0C53.9,26,53.3,26.2,53,26.6z"/>
	<path class="st0" d="M46,42c-1.6-0.1-2.9-0.8-3.6-2.3c-0.4-0.8-0.6-1.5-1-2.3c-0.2-0.3,0-0.3,0.2-0.3c0.7,0.2,1.4,0.1,2,0.1
		c0.4,0,0.7,0.3,1.1,0.4c0.3,0.2,0.7,0.3,1,0.2c1.2-0.1,2.3,0.4,3.3,0.9c0.6,0.3,1.2,0.7,1.9,0.9c0.4,0.1,0.9,0.1,1.4,0.2
		c0.1,0,0.3,0,0.3,0.1c0,0.1-0.1,0.2-0.2,0.3c0,0-0.1,0.1-0.2,0.1c-1.3,0.3-2.5,1-3.9,1.2C47.5,41.8,46.8,41.9,46,42z M42.1,38.2
		c0.1,0.6,0.4,1.1,0.7,1.6c0.5,1.1,1.5,1.6,2.7,1.8c1,0.1,2,0,3-0.3c0.7-0.1,1.4-0.4,2.1-0.8c-0.3-0.2-0.6-0.1-0.9-0.1
		c-0.8,0-1.6-0.1-2.4-0.4c-0.5-0.2-1-0.3-1.5,0c-0.4,0.2-0.9,0.1-1.2-0.4c-0.3-0.4-0.6-0.7-1.1-0.7C43,38.8,42.6,38.6,42.1,38.2z
		 M50.2,40c-0.7-0.4-1.3-0.7-2-1.1c-0.8-0.4-1.7-0.7-2.6-0.6c-0.4,0-0.7,0-1-0.3c-0.8-0.6-1.6-0.4-2.6-0.4c0.3,0.5,0.8,0.7,1.2,0.8
		c1.4,0.4,2.8,0.7,4.1,1.2C48.3,39.9,49.2,40.1,50.2,40z"/>
	<path class="st0" d="M56.2,22.6c0.8,0,1.5,0,2.2,0.2c1.2,0.3,2,1,3,1.7c0.1,0.1,0.2,0.2,0.2,0.3c0.1,0.2,0.3,0.4,0.1,0.5
		c-0.2,0.2-0.4,0-0.5-0.1c-1.1-0.7-2.1-1.5-3.5-1.5c-1.2,0-2.5-0.2-3.6,0.2c-0.6,0.2-1.2,0.1-1.7-0.2c-0.1-0.1-0.4-0.1-0.4-0.4
		c0-0.2,0.2-0.3,0.4-0.4c0.3,0,0.5-0.1,0.8-0.1C54.3,22.8,55.3,22.4,56.2,22.6z"/>
	<path class="st0" d="M71.8,32.5c0.1,0.4-0.2,0.6-0.4,0.8c-0.5,0.6-1,1.2-1.6,1.6c-0.2,0.1-0.4,0.3-0.6,0.1c-0.3-0.3-0.1-0.4,0-0.7
		c0.2-0.4,0.6-0.6,0.8-0.8c0.3-0.3,0.4-0.6,0.2-1c-0.2-0.4-0.2-0.8-0.1-1.3c0-0.2,0.2-0.4,0.4-0.2c0.2,0.2,0.4,0.3,0.6,0.4
		C71.7,31.5,71.9,32,71.8,32.5z"/>
	<path class="st0" d="M50.9,33.9c0,0.3,0,0.6-0.1,0.9c-0.4,0.7-0.7,0.8-1.5,0.8c-0.9-0.1-1.9-0.3-2.7-0.8c-0.2-0.1-0.5-0.2-0.4-0.5
		c0-0.4,0.4-0.3,0.5-0.3c0.9,0,1.7,0.2,2.3,1c0.2,0.3,1,0.1,1.2-0.2c0.3-0.4,0.3-1,0.3-1.5c0-0.1,0-0.3,0-0.4c0-0.1,0-0.2,0.1-0.3
		c0.1,0,0.2,0.1,0.2,0.2C50.9,33.2,50.9,33.6,50.9,33.9z"/>
	<path class="st0" d="M48.9,61.4c0,0.8,0.1,1.6,0,2.4c-0.1,0.8-0.6,1.4-0.8,2.2c0,0.1-0.2,0.3-0.3,0.2c-0.1,0-0.2-0.2-0.2-0.4
		c0-0.3,0.1-0.6,0.3-0.8c0.5-0.8,0.6-1.7,0.6-2.7c0-0.8,0-1.7,0-2.5c0-0.2,0-0.3,0-0.5c0-0.1,0-0.3,0.3-0.3c0.1,0,0.2,0.2,0.2,0.3
		C48.9,60,48.9,60.6,48.9,61.4z"/>
</g>
</svg>
