<?xml version="1.0" encoding="utf-8"?>
<!-- Generator: Adobe Illustrator 19.2.1, SVG Export Plug-In . SVG Version: 6.00 Build 0)  -->
<svg version="1.1" id="Layer_1" xmlns="http://www.w3.org/2000/svg" xmlns:xlink="http://www.w3.org/1999/xlink" x="0px" y="0px"
	 viewBox="0 0 150 108.2" style="enable-background:new 0 0 150 108.2;" xml:space="preserve">
<style type="text/css">
	.st0{fill:#03A9F4;}
</style>
<path id="why-man" class="st0" d="M43.6,108.2c0.1-2.1,0-4.2,0.3-6.2c0.3-1.8,0.7-3.7,1.4-5.4c2.3-5.9,3.4-12,3.9-18.3
	c0-0.4,0-0.8,0-1.5c-0.8,0.6-1.4,0.9-2,1.5c-2.2,2.1-5.1,2.3-7.8,2.7c-1.4,0.2-3.1-0.6-4.4-1.5c-3.2-2.1-6.2-4.4-7.7-8.2
	c-0.3-0.7-1.3-1.1-1.9-1.8c-1.6-1.9-2.8-4.3-5.3-5.3c-0.5-2-1-4-1.4-6c-0.1-0.3,0.1-0.7,0.3-1.4c-2.3-0.2-4.4-0.4-6.5-0.7
	c-4.4-0.6-8-2.6-11-5.9c-0.5-0.5-1.1-1-1.4-1.6c-0.3-0.6-0.3-1.4-0.1-2.1c0.1-0.3,1-0.7,1.4-0.6c0.8,0.2,1.7,0.7,2.3,1.3
	c3.2,3.2,7.2,3,11.2,2.6c0.6-0.1,1.1-0.8,1.5-1.1c-2.1-1-4-1.9-6-2.9c-0.9-0.4-1.6-1.2-1-2.1c0.4-0.5,1.5-0.8,2.2-0.7
	c0.9,0.1,1.7,0.8,2.6,1c1.5,0.5,3,0.9,4.6,1.2c1.8,0.3,3.7,0,5.4,0.4c1.4,0.3,2.6,1.3,3.9,2c0.1,0.1,0.2,0.3,0.3,0.4
	c4.4,1.8,6.8,5.7,9.6,9.5c0.5-0.9,1-1.7,1.4-2.5c1-2,2.1-4,3.1-6.1c0.1-0.3,0.3-0.6,0.3-0.9c-0.1-4.5,2.1-8.5,3-12.8
	c0.3-1.3,1.3-1.3,2.4-1.5c5.2-0.9,10.3-2,15.5-3c1.1-0.2,2.2-0.4,3.5-0.6c-0.1-1.5-0.1-3.1-0.3-4.6c0-0.3-0.6-0.5-0.8-0.8
	c-0.4-0.6-0.9-1.3-1-2c-0.2-1.4,0.1-2.9-0.1-4.3c-0.1-1.5,0.2-2.6,1.5-3.3c0.3-0.2,0.6-0.6,0.6-0.9c0.4-2.3,0.5-4.7,1-7
	c0.2-1,0.7-2,1.4-2.7c2.2-2.4,4.6-4.3,8.2-4.4c2.6-0.1,5.3-0.6,7.5,0.9c2.2,1.5,4.7,2.7,6.3,5c1.7,2.4,1.8,5.1,1.2,7.9
	c-0.2,1.4-0.6,2.7-0.8,4.1c-0.1,0.8,0.1,1.7,0.3,2.4c0.5,1.2,0.4,2.3-0.3,3.5c-0.5,0.9-1,2-1.1,3c-0.2,1.4-0.7,2-2.2,1.8
	c-0.2,0.9-0.5,1.8-0.7,2.6c6.8,1.9,13.6,3.7,20.4,5.5c1.2,0.3,2.2,1,2.2,2.1c0,4.5,2.6,8.4,2.8,12.9c0,0.7,0.1,1.4,0.1,2.2
	c0.2,2.3,1,4.2,3,5.6c1-1.3,1.9-2.7,3-3.9c0.9-1,2.1-1.7,3.2-2.5c0.3-0.2,0.7-0.2,0.9-0.4c3.1-2.9,7.1-2.7,10.9-2.9
	c1.7-0.1,3.4-0.8,5.1-1.2c0.7-0.2,1.5-0.5,2.2-0.5c0.5,0,1.4,0.4,1.5,0.9c0.2,0.5-0.1,1.5-0.5,1.7c-1.5,0.8-3,1.5-4.6,2.1
	c-0.8,0.3-1.7,0.4-2.5,0.6c0,0.2-0.1,0.4-0.1,0.5c0.7,0.4,1.3,1.1,2.1,1.3c2.2,0.5,4.4,0.8,6.6,1.2c0.3,0,0.6-0.4,1-0.5
	c1.1-0.5,2.2-1,3.4-1.4c0.3-0.1,0.8,0.2,0.9,0.4c0.1,0.2-0.1,0.8-0.3,1c-2,1.8-4,3.5-6,5.2c-0.4,0.3-1,0.3-1.6,0.4
	c-1.7,0.1-3.4,0-5.1,0.2c-0.9,0.1-1.8,0.7-2.7,0.9c-0.6,0.2-1.3,0.1-2.1,0.1c-0.5,2.3-1.1,4.7-1.7,7.1c-0.2,0.6-0.4,1.3-0.7,1.9
	c-2.2,4.3-5.5,7.7-8.7,11.2c-1,1.1-2.7,2.3-4.1,2.3c-2.2,0-4.3-1-6.4-1.7c-0.6-0.2-1.1-0.8-1.7-1.1c-1.8-0.9-3-2.1-2.8-4.4
	c0.1-1-0.5-2-1.1-3c0.6,5.8,1.1,11.5,2,17.3c0.6,4,1.8,7.9,2.6,11.8c0.2,1.3,0,2.7-0.1,4C87.6,108.2,65.6,108.2,43.6,108.2z"/>
</svg>
