<?xml version="1.0" encoding="utf-8"?>
<!-- Generator: Adobe Illustrator 19.1.0, SVG Export Plug-In . SVG Version: 6.00 Build 0)  -->
<svg version="1.1" id="Layer_1" xmlns="http://www.w3.org/2000/svg" xmlns:xlink="http://www.w3.org/1999/xlink" x="0px" y="0px"
	 viewBox="0 0 176 394.6" style="enable-background:new 0 0 176 394.6;" xml:space="preserve">
<style type="text/css">
	.st0{fill:#00BCD4;}
</style>
<g id="anklesprain-man">
	<path class="st0" d="M95.4,328.8c0,2.5-0.2,4.3,1.4,5.9c0.5,0.5,0.3,2.1-0.1,2.8c-2.4,3.6-1.7,7.7-1.9,11.6c0,0.6,1.5,1.4,2.4,1.8
		c2.4,1,4.7,2,6.2,4.3c0.4,0.7,0.8,1.8,0.6,2.4c-0.3,0.6-1.4,1.3-2.2,1.3c-1.7-0.1-3.3-0.6-5-1c-0.7-0.2-1.4-0.6-2.5-1.1
		c-0.1,1.1-0.4,1.9-0.2,2.7c0.8,3.6,1.7,7.2,2.5,10.8c1,4.8,2.7,9.6,1.2,14.6c-0.2,0.8-0.2,1.7-0.1,2.6c0.2,4.7-3.9,7.9-8.9,6.9
		c-1.4-0.3-2.8-0.6-4.2-0.5c-5.2,0.3-10.1-0.8-15.1-2.1c-5.4-1.4-8.8-4.8-10.8-9.7c-0.7-1.7-0.6-3.8-0.4-5.7
		c0.7-5.2,1.7-10.5,2.5-15.7c0.1-0.8-0.2-1.7-0.5-2.5c-1.1-4-2.2-8-4.8-11.5c-1.8-2.4-3-5.3-4.4-8c-3-5.9-5.8-11.8-8.9-17.6
		c-3-5.7-6.2-11.3-9.2-17c-0.6-1.1-1.2-2.2-1.5-3.3c-2.1-6.3-5.8-11.8-8.6-17.8c-3.9-8.4-7.2-17-10.7-25.6
		c-2.4-5.7-4.8-11.5-6.8-17.3c-1.5-4.3-2.9-8.7-2.3-13.4c0.3-2.6,0.8-5.2,1-7.8c0.1-1.5,0-3,0-4.5c0.1-2.9,0.6-5.6,1.9-8.3
		c1.7-3.6,1.3-7.7,1.4-11.6c0.2-6.4,0.1-12.8,0.1-19.2c0-1.6-0.7-2.7-1.9-3.5c-1.1-0.8-2.4-1.4-3.7-2.1c-2.2-1.1-2.4-2-1.4-4.2
		c3-6,5.9-12,8.9-18c2.2-4.3,4.4-8.6,6.6-12.8c0.4-0.7,0.6-1.6,0.9-2.4c0.1-0.3,0.1-0.8,0.4-1c4.1-3.1,4.5-8,6.5-12.2
		c1.6-3.4,3.4-6.8,5.4-9.9c0.9-1.4,2.6-2.4,3.8-3.6c3.8-3.8,7.4-7.8,11.3-11.5c2.2-2.1,4.7-3.9,7.2-5.6c4.5-3,9.2-5.8,14.5-7.1
		c4.7-1.2,9.4-1.8,14.2-2.7c1-0.2,2-0.4,3.1-0.6c0-1.7,0.3-3-2.1-3.3c-2.1-0.2-3.5-2.1-4.6-3.9c-1-1.8-2-3.7-2.9-5.5
		c-0.3-0.6-0.6-1.4-0.6-2.1c-0.1-3-0.2-6,0-9c0.1-2.2,0.8-4.2,3.1-5.1c-0.6-8.3,0-16.6,1.9-24.7c0.2-0.8,0.5-1.6,0.9-2.4
		c1.5-3.6,3-7.2,4.4-10.8c0.8-2.1,2.2-3.4,4.1-4.4c1.8-0.9,3.4-2.1,5-3.2c1.6-1,3.1-2,5.2-1.8c1,0.1,2.3-0.1,3.2-0.6
		c3.6-2.1,7.3-1.7,11-0.6c3.6,1.1,7.1,2.4,10.5,4.1c2.7,1.3,5.4,3,7.6,5.1c2.1,2,3.7,4.5,5.2,7c3.1,4.9,5.2,10.2,6.7,15.8
		c1.1,4.1-0.5,8.1-0.9,12.1c-0.2,1.7-0.6,3.3-1,5.2c1.9-0.3,2.6,0.7,2.7,2.2c0.1,1.1,0,2.2-0.1,3.3c-0.2,1.9-0.4,3.7-0.8,5.6
		c-0.6,3-1.1,6.1-1.9,9c-0.3,1-1.5,1.8-2.2,2.7c-0.3,0.3-0.6,0.6-0.7,1c-0.4,1.8-0.7,3.7-0.9,5c3.1,1.8,5.9,3.6,8.9,5.2
		c4.2,2.2,7.7,5.3,10.7,9c1.7,2.1,4.1,3.7,5.9,5.7c3,3.2,5.8,6.4,8.6,9.7c2.4,2.9,3.5,6.4,4.1,10.1c0.4,2.6,1,5.3,1.4,7.9
		c0.8,4.9-0.3,9.5-2.4,14c-1.9,4.2-3.7,8.3-5.8,12.4c-1.7,3.3-2.1,7.3-3.1,11c-0.7,2.5-1.4,4.9-2.1,7.4c-0.6,2-1.8,3-4,3.1
		c-2.1,0.1-4.2,0.4-6.3,0.7c-1.3,0.2-2.2,0.9-2.5,2.5c-0.3,1.5-0.9,3-1.7,4.2c-3.2,4.8-6.5,9.5-9.8,14.1c-1,1.4-2.1,2.7-3.3,3.9
		c-3.2,3.2-4.2,7.2-5.3,11.4c-0.5,1.9,0.4,3,0.8,4.4c1.7,5.2,3.4,10.4,4.9,15.7c2.3,7.8,4.6,15.7,6.9,23.5c0.9,3.1,1.3,6.4,2.4,9.5
		c1.8,4.7,4,9.3,5.9,13.9c1.1,2.8,1.9,5.6,2.9,8.4c0.3,0.8,0.8,1.6,1.1,2.4c0.1,0.4,0.3,1,0.1,1.2c-1.6,1.5-0.9,3.5-0.9,5.2
		c0.1,4.8,0.6,9.6,0.8,14.4c0.4,7.8,0.2,15.5-2.3,23c-1.1,3.4-1.9,7-3.2,10.3c-2.3,5.6-9.2,9.4-15.3,8.9c-2-0.2-4.2,0.2-6-0.6
		c-3.1-1.3-6.1-3.1-8.7-5.1c-2.2-1.6-3.7-4-5.7-5.9c-1-0.9-2.3-1.6-3.5-2.2c-2.4-1.4-5-2.6-7.4-4.1c-1.8-1.1-3.5-2.4-5.2-3.7
		C96.7,330.1,96.2,329.6,95.4,328.8z M160.3,143.3c0.2,0.2,0.3,0.3,0.5,0.5c-0.1,0.4,0,0.8-0.2,1.2c-1.1,2.6-2.5,4.8-4.9,6.4
		c-2.4,1.6-4.6,3.4-7,5c-1.4,0.9-3.1,1.6-4.7,2.3c-0.7,0.3-1.5,0.5-2.3,0.6c-3.2,0.4-6.5,0.9-9.8,1c-2.1,0.1-2.6,0-3.1,2.1
		c-0.5,2.3-0.8,4.6-1.3,6.8c-0.3,1.2-0.1,2,1,2.4c2.3,0.8,4.6,1.6,6.9,2.3c4,1.2,8,1.5,12.1,0.6c1.2-0.2,2.2-1.1,3.4-1.4
		c2.2-0.4,4.5-0.5,6.7-0.9c1-0.2,2.1-0.7,2.7-1.4c1.7-2.2,2.3-4.9,2.7-7.7c0.4-2.5,0.4-5.2,1.4-7.5c2.1-5.3,4.5-10.4,6.9-15.5
		c2.1-4.3,3.3-8.8,2.6-13.6c-0.4-2.4-1-4.8-1.4-7.2c-0.5-3.6-1.4-7.1-3.8-9.9c-2.7-3.2-5.4-6.3-8.2-9.3c-2.6-2.8-5.3-5.5-8.1-8.2
		c-1.7-1.6-3.4-3.2-5.2-4.5c-2.1-1.5-4.4-2.8-6.7-4.2c-0.8-0.5-1.7-1.1-2.5-1.4c-2.4-1-3.4-0.4-3.5,2.2c0,0.5,0.8,1,1,1.5
		c1.4,4.1,3.2,8.1,2,12.6c-0.4,1.8-0.4,3.6-0.7,5.4c-0.2,1.5-0.3,3.1-0.9,4.5c-3,7.3-6.2,14.5-9.4,21.7c-1.9,4.3-3.9,8.3-9.3,9.4
		c-3.6,0.8-6.7,0.8-9.6-1.6c-2-1.7-4-3.5-6.1-5.1c-2.3-1.8-4.8-3.4-7.1-5.3c-4.4-3.7-7.6-8.4-10.6-13.3c-1.3-2.2-1.6-5-2.4-7.5
		c-1-3-2.1-5.9-2.9-9c-0.4-1.6-0.5-3.3-0.3-4.9c0.4-4,1.1-8,1.6-12.1c-4.4,0.8-9.1,1.6-13.7,2.7c-4.7,1.2-8.9,3.6-13,6.2
		c-2.9,1.8-5.6,4-8,6.4c-3.4,3.3-6.5,6.9-9.8,10.3c-1.1,1.1-2.5,1.9-3.7,3c-3.3,3-4.8,7.1-6.3,11c-2.2,5.5-4.1,11-7.5,15.9
		c-0.2,0.4-0.4,0.8-0.6,1.1c-0.8,1.6-1.6,3.2-2.5,4.8c-0.7,1.2-1.5,2.4-2.1,3.7C9.4,152.2,6.2,159,3,165.8c-0.6,1.2-0.5,1.8,0.7,2.5
		c3.2,2,6.4,4,9.5,6.2c6,4.2,12.3,7.6,19.4,9.7c2.4,0.7,4.9,1.1,7.4,0.6c1.1-0.2,1.5-0.6,1.5-1.8c-0.2-5.3-0.2-10.6,2.4-15.4
		c1.1-2.1,0.5-3.8-0.3-5.6c-1.8-4.2-3.8-8.2-5.4-12.4c-0.9-2.5-1.3-5.2-1.9-7.8c-0.1-0.4,0.4-1,0.6-1.5c0.4,0.4,0.9,0.7,1.2,1.1
		c0.3,0.6,0.4,1.3,0.5,1.9c0.7,5.9,3.3,11.2,5.9,16.5c0.3,0.7,1.1,1.6,1.7,1.6c0.6,0,1.3-0.9,1.8-1.5c2.6-3.8,2.4-8.3,2.7-12.7
		c0.1-1.1,0-2.4-0.4-3.4c-1-2.7-2.3-5.4-3.5-8.1c-0.6-1.3-0.9-2.6,0.5-3.9c0.3,0.4,0.5,0.7,0.7,1c1.6,3.6,3.2,7.2,4.8,10.9
		c0.3,0.8,0.4,1.7,0.5,2.5c0.4,5.1-1.2,9.8-2.6,14.8c0.5,0,1.2,0.3,1.6,0c5.8-3.2,9.3-8.7,13-14.1c0.2,0.9,0.3,1.8,0,2.5
		c-2.1,4.3-4.9,8.2-8.6,11.3c-1.3,1.1-3.1,1.7-4.7,2.1c-1.4,0.4-2.6,0.6-3.6,2c-4.2,5.9-5.7,12.3-4.3,19.4c0.1,0.5,0.9,1,1.5,1.1
		c1.8,0.1,3.7,0.2,5.5,0c1.7-0.1,3.4-0.5,5-0.9c2.4-0.6,4.8-1.5,7.2-1.8c3.7-0.5,7.5-0.7,11.3-0.8c6.4-0.2,12.8-0.7,18.5,3.3
		c5.2,3.7,10.8,6.9,11.8,14.1c0,0.1,0.2,0.1,0.5,0.4c0.6-1,1.1-2,1.6-3c1.3-2.7,3.2-5,5.7-6.6c2.5-1.6,4.2-3.8,5.7-6.4
		c3.3-5.8,5.4-12.1,7.5-18.4c3.7-11.6,7.5-23.1,11.3-34.6c0.2-0.7,0.5-1.4,0.9-2.5c0.2,0.6,0.3,0.7,0.3,0.9
		c-0.6,6.3-2,12.4-4.3,18.3c-1.3,3.4-2.2,6.8-2.6,10.4C143.9,159,153.1,153.1,160.3,143.3z M52.3,228.4c1.3-1,2.5-2.1,3.9-2.9
		c0.6-0.3,1.5-0.1,2.3-0.1c-0.3,0.6-0.4,1.4-0.9,1.8c-2.3,1.7-3.3,4-3.9,6.6c-1.2,5.1-1,10.2-0.6,15.3c0.3,3.8,1.5,7.5,2.4,11.2
		c0.8,3.1,1.7,6.2,2.5,9.3c0.5,1.9,0.8,3.8,1.4,5.7c2.6,8.2,4.5,16.5,4.5,25.1c0,2.9,0.2,5.7,0.2,8.6c0,2,0.7,3.1,2.7,3.4
		c3.6,0.5,7,1.7,9.8,4c2.8,2.3,5.7,4.6,8.5,6.9c1,0.8,2,1.7,2.7,2.3c0.6-7,1.1-14,2-20.8c0.5-3.8,1.9-7.4,2.8-11.2
		c0.4-1.6,0.6-3.3,0.9-5c0.8-4.6,1.4-9.2,2.4-13.7c0.8-3.5,2.1-6.9,3.3-10.3c2.2-6.3,3.3-13,3.5-19.5c0.3-8-0.9-16-1.1-24.1
		c-0.2-5.7,0-11.3,0.5-17c0.3-3.6,0.3-6.9-2-10c-3.8-5.2-9-8-15.1-9.6c-6.2-1.6-12.1-1.3-17.6,2.4c-2.1,1.4-4.2,3-6.5,4.1
		c-3.8,1.9-6.8,4.4-8.2,8.7c-0.2,0.5-0.5,1-0.8,1.4c-2.5,3.3-4.2,6.9-3.7,11.2c0.3,2.9,0.9,5.7,1.1,8.6
		C49.5,224,51.1,226.5,52.3,228.4z M9.6,174.7c-0.2,1.2-0.4,2-0.4,2.7c0.1,5.3,0.3,10.6,0.2,15.9c-0.1,5.1,0.1,10.3-2.2,15.1
		c-0.6,1.2-0.5,2.7-0.7,4.1c-0.5,4.4-1,8.9-1.5,13.3c-0.3,3-0.9,6.1,0.5,9c0.3,0.5,0.4,1.1,0.6,1.6c1.6,4.9,3,9.8,4.9,14.5
		c3,7.3,6.3,14.4,9.5,21.6c1.7,4,3.1,8.1,5.2,11.9c2.5,4.4,5.2,8.6,6.6,13.6c0.5,1.8,1.3,3.4,2.1,5c1.8,3.2,3.9,6.2,5.5,9.5
		c2.2,4.7,4,9.5,6.2,14.2c2.8,5.8,5.5,11.7,8.9,17.2c2.7,4.3,4.3,9,5.9,13.7c1.4,4.2,3,8.3,4.6,12.4c0.2,0.5,0.8,0.8,1.3,1.1
		c0.4-0.4,1-0.8,1.1-1.3c0.2-1.3,0.3-2.7,0.2-4c-0.2-3.8-0.5-7.5-0.6-11.3c-0.1-2.3-0.5-3-2.8-3.7c-0.6-0.2-1.1-0.7-2.2-1.3
		c1-0.3,1.5-0.6,1.8-0.5c2.1,1.1,4.3,2.1,6.1,3.6c3.7,3.1,7.1,6.5,10.8,9.6c1.4,1.2,3.2,2.1,5,3.3c0-2,0.9-3.1,2.7-3.3
		c-3.4-3.2-6.6-6.2-9.9-9.2c-1.2-1.1-2.3-2.4-3.7-3.2c-1.9-0.9-4-1.4-6-2c-1-0.3-1.9-0.7-2.8-1.1c0.5-0.4,0.9-0.4,1.2-0.3
		c6.5,1.5,13,3,18.7,6.5c3.7,2.3,7.9,2.6,11.5,4.4c0.9-1.4,1.6-2.6,2.3-3.8c-7.5-4.1-15.1-8.1-22.6-12.2c0.1-0.3,0.1-0.5,0.2-0.8
		c0.8,0,1.6-0.1,2.4,0c2,0.4,4,0.7,5.9,1.3c1.8,0.6,3.2-0.2,4.6-0.8c0.6-0.3,1.2-1.3,1.2-1.8c-0.1-0.5-1-1.3-1.6-1.4
		c-2.4-0.5-4.4-1.8-6-3.6c-3-3.2-6.1-6.5-9.1-9.7c-0.3-0.3-0.3-0.7-0.4-1.1c0.2-0.2,0.4-0.3,0.6-0.5c1.4,1.5,2.8,2.9,4.1,4.4
		c3.8,3.9,6.8,8.8,13,9.4c0.3,0,0.5,0.4,0.8,0.4c0.8,0,1.5-0.1,2.3-0.2c-0.1-0.8,0.1-1.9-0.4-2.4c-1.5-1.8-3.2-3.5-5-5.1
		c-2.3-2.2-4.6-4.3-7.1-6.3c-2.5-2-4.9-4.2-7.7-5.8c-3.1-1.8-6.2-3.5-10-3.9c-2-0.2-4.3-1.4-5.8-2.8c-3.3-3.3-7-4.6-11.6-4
		c-1,0.1-2.4,0.3-2.4-1.1c0-0.4,1.6-0.8,2.4-1.2c0.1,0,0.2,0,0.4,0c2.8,0.2,5.6,0.5,8.6,0.8c-0.4-1-0.9-2.2-1.4-3.3
		c-1.2-2.8-2.5-5.6-3.5-8.4c-2.3-6.9-4.3-14-6.8-20.8c-3.6-9.5-7.5-18.9-11.4-28.4c-1.1-2.7-2.2-5.3-3.4-8.1c-0.3,0.4-0.6,0.7-0.9,1
		c-1.4,1.5-2.7,3.1-4.2,4.6c-0.4,0.4-1.3,0.2-2,0.3c0.2-0.6,0.1-1.4,0.5-1.8c3.6-3.4,6.2-7.3,7.6-12.1c0.7-2.3,1.5-4.6,2.3-6.9
		c1.8-4.8,3.6-9.5,5.3-14.4c2.1-6,1.7-12.2,1.7-18.3c0-1-0.5-1.2-1.4-1.2c-1.2,0.1-2.5,0.4-3.6,0.2c-6.5-1.7-13-3.5-18.6-7.4
		C15,178.2,12.6,176.6,9.6,174.7z M151.5,297.1c0.1,0,0.1,0,0.2,0c0-1.8,0.2-3.6,0-5.3c-0.4-3.3-0.6-6.7-1.6-9.8
		c-1.2-3.5-3.4-6.7-4.9-10.2c-1.2-2.5-2.5-5.1-2.9-7.8c-0.7-5.2-2.8-10-4.4-14.9c-0.2-0.7-0.8-1.4-1.4-1.8c-1.5-1.1-3.1-2-4.7-2.9
		c-2.9-1.7-6-1.9-9.2-1.2c-0.7,0.2-1.6,0.8-2,1.4c-1,1.6-1.8,3.3-2.5,5.1c-5.4,13.1-10.7,26.2-16,39.3c-0.4,1.1-0.2,1.8,0.5,2.6
		c1,1.3,1.9,2.7,2.7,4.1c2.4,4,3.4,8.8,6.8,12.3c0.1,0.1,0.3,0.3,0.3,0.5c0,0.6-0.1,1.1-0.1,1.7c-0.5-0.2-1.3-0.1-1.5-0.5
		c-0.9-1.4-1.7-2.9-2.5-4.4c-2-3.7-4-7.4-6-11c-0.1-0.2-0.2-0.3-0.3-0.4c-0.9-0.9-1.7-0.9-2.1,0.4c-1,3.4-2.4,6.7-2.9,10.2
		c-0.8,6.1-0.8,12.3-1.5,18.4c-0.3,3.1,1,4.9,3.5,6.2c4,2.3,8.1,4.5,12,7c1.7,1.1,3.1,2.8,4.6,4.2c4.3,4.2,7.8,9.6,14.7,9.8
		c0.2,0,0.4,0,0.5,0.1c5.4,2.3,14.7-2,16.7-8.2c2.8-8.6,5.5-17.2,5.1-26.4C152.4,309.3,151.9,303.2,151.5,297.1z M79.5,60.9
		c0.1,0,0.2,0,0.3,0c0.4,1.8,0.8,3.7,1.3,5.5c0.9,3.5,1.9,6.9,2.7,10.4c0.6,2.4,0.7,5,1.4,7.3c2.3,6.9,7,12.1,12.7,16.3
		c1.9,1.4,3.7,3.1,5.7,4.6c1.5,1.1,3.2,2.4,4.9,2.9c2.1,0.6,4.5,0.5,6.7,0.5c0.8,0,1.9-0.3,2.5-0.9c3-2.9,6.2-5.6,8.6-8.9
		c2.1-2.9,3.7-6.3,5-9.7c1.5-3.8,2.2-8,3.6-11.9c1.6-4.4,2.4-8.9,2.3-13.5c0-3.6-0.2-7.4,0.7-10.9c1.3-5.3,0.2-11.2-3.8-14.8
		c-0.4-0.3-0.6-0.8-1-1c-1.5-0.9-3.1-1.8-4.7-2.6c-1.2-0.6-2.6-1.1-3.6-1.9c-1.5-1.4-3.2-1.9-5.2-1.8c-1.7,0.1-3.5-0.1-5.2-0.2
		c-0.8-0.1-1.6-0.4-2.3-0.4c-4.1,0.2-8.2,0.5-12.3,0.9c-0.6,0-1.2,0.3-1.7,0.7c-4.5,2.9-7.7,6.9-9.7,11.8c-1.4,3.3-2.4,6.8-3.5,10.3
		c-0.1,0.3-0.1,0.7-0.3,0.9c-0.6,0.6-1.3,1.4-2.1,1.6c-0.6,0.1-1.5-0.6-2-1.1c-0.9-0.9-1.6-2.2-2.6-3.1c-0.6-0.6-1.9-1.5-2.3-1.3
		C75,51,74.3,52.1,74.3,53C74,56.7,74,60.4,74,64.1c0,0.3,0.2,0.7,0.3,1c0.9,1.9,1.8,3.8,2.9,5.5c1.1,1.7,2.6,3.2,5.3,4
		c-0.7-3.2-1.4-5.9-2.1-9c-1.9,1.8-2.7,0.6-3.5-0.6c-1.9-3-1.6-6.5-1.7-9.8c0-0.6,0.7-1.2,1.1-1.9c0.6,0.6,1.1,1,1.9,1.8
		c-1.1-0.2-1.5-0.2-2.5-0.4c0.4,3.1,0.6,5.9,1.2,8.7c0.4,2,1.4,2.3,2.9,1.4C79.7,63.6,79.6,62.2,79.5,60.9z M147.8,177.3
		c-2.1-0.1-3.6,0.1-4.9-0.3c-4.9-1.6-10.3-0.8-15-3.2c-0.5-0.2-1.6-0.1-1.8,0.2c-0.8,1.8-2.9,3-2.6,5.3c0,0.4-0.1,0.9-0.4,1.2
		c-3.2,4.2-5.4,9.2-10.2,12c-0.8,0.5-1.5,1.1-2,1.9c-1.3,1.9-2.4,3.8-3.5,5.8c-0.5,0.9-0.5,2.5-1.3,2.9c-2.1,1-2.4,2.6-2.5,4.5
		c-0.1,1.5-0.2,2.9-0.2,4.4c0.4,8.8,0.7,17.7,1.3,26.5c0.5,6.2-0.6,12.2-1.5,18.2c-0.7,4.7-1.9,9.5-3.6,13.9
		c-2.1,5.4-3.6,10.7-4,16.5c-0.2,2.3-0.6,4.6-1.1,6.8c-0.5,2.3-1.3,4.6-1.7,6.9c-0.8,4.6-1.7,9.1-2.2,13.7
		c-0.4,3.4-0.1,6.9-0.1,10.4c0,0.9,0,1.7,0,2.6c-0.2,0-0.4,0.1-0.6,0.1c1.2,1.1,2.4,2.3,3.6,3.4c0.1-0.7,0.1-1.4-0.3-1.6
		c-1.3-0.7-0.9-1.8-0.8-2.9c0.5-4,1.2-8,1.2-12c0.1-7.9,1.1-15.6,4.5-22.8c1.3-2.6,2.6-5.2,3.7-7.9c1.6-3.8,3-7.7,4.6-11.6
		c4-9.7,8.2-19.3,12.1-29.1c1.5-3.7,2.4-7.6,3.4-11.4c0.6-2.2,1.1-4.4,1.4-6.6c0.5-4.5,1-9,3.1-13.1c0.2-0.4,0.2-0.9,0.3-1.6
		c-2.5,0.9-4.6,1.6-6.8,2.4c-1.2,0.4-2.4,0.5-2.9-1c-0.5-1.4,0.6-2.1,1.7-2.6c0.6-0.2,1.3-0.3,2-0.5c1.3-0.4,2.7-0.6,3.8-1.2
		c1.7-1,3.3-2.2,4.7-3.5c0.8-0.7,1.3-1.9,2-2.8c2.5-2.8,5-5.6,7.5-8.4c0.1-0.1,0.2-0.2,0.2-0.3c1.5-2.6,3.1-5.1,4.6-7.8
		C145.1,182.4,146.3,180.1,147.8,177.3z M82.5,81c-0.6,0.9-1.1,1.5-1.4,2.2c-1.9,4.2-2.1,8.7-1.1,12.9c1.4,5.7,2.1,11.8,5.4,17
		c2.6,4.1,4.9,8.5,8.8,11.6c2.7,2.2,5.4,4.3,8.1,6.5c2.6,2.1,5.2,4.2,7.9,6.1c2,1.4,7.7,0.7,9.5-1c2.5-2.2,4.5-4.7,5.8-7.8
		c1.5-3.7,3.2-7.3,4.7-10.9c1.6-3.9,3.4-7.8,4.6-11.9c0.9-3.1,1.1-6.5,1.4-9.8c0.3-3.1-0.8-5.9-2.3-8.6c-0.9,2-1.7,3.8-2.5,5.6
		c-2.7,6.8-7.3,12-13.1,16.3c-0.8,0.6-1.9,0.8-2.9,0.8c-1.7,0.1-3.4-0.2-5.1-0.2c-2.8,0-5-1.1-7-3c-2-1.9-4.2-3.7-6.4-5.4
		c-4.3-3.3-8.1-7.1-10.6-11.9C84.8,86.9,83.8,84.1,82.5,81z M89.8,356.7c0,2.1-0.5,4,1,5.9c1.6,1.9,2.7,4,1,6.5
		c-0.1,0.1-0.2,0.4-0.1,0.5c0.9,1.3-0.2,1.9-0.9,2.5c-4.1,3.6-14.6,4.9-19.4,2.3c-0.8-0.4-1.4-1.1-2.1-1.7c2.7,0.4,5,1.3,7.5,1.5
		c2.4,0.2,5-0.1,7.4-0.6c2.4-0.5,4.9-1.2,6.4-3.4c-1.2-0.7-2.2-1.4-3.2-2c-0.4-0.2-0.8-0.5-1.2-0.4c-2.9,0.6-5.3-0.8-7.9-1.8
		c-2-0.7-3.7-0.5-5.2,1c-0.9,0.9-2,1.7-3.6,1.1c2.1-3.5,6.1-4,8.8-6.3c-1.3-2.1-2.5-2.5-4.4-1.3c-1.1,0.7-2.2,1.3-3.2,2.1
		c-0.6,0.6-1.3,1.4-1.4,2.2c-0.2,1.5,0,3-0.2,4.6c-0.1,1.4-0.9,2.7-2.3,2.6c-0.9,0-1.7-1.2-2.4-2c-0.2-0.2-0.2-0.7-0.4-1
		c-0.8-1.9-1.6-3.7-2.3-5.6c-0.6,1-0.9,1.9-1,2.9c-0.4,3.1-1,6.3-1.2,9.4c-0.1,2.3-0.2,4.8,0.6,6.9c1.2,3.1,3.6,5.3,7,6.6
		c5,1.9,10,3.8,15.5,3.3c2-0.2,4.1,0.3,6.2,0.6c5.1,0.7,8.4-3.2,7-7.6c-0.4,0.1-0.8,0.3-1.2,0.4c-2.6,0.6-5.2,1.7-7.8,1.8
		c-3.3,0-6.6-0.9-9.9-1.3c-5.6-0.6-10.3-2.8-14.1-7c-1.5-1.6-1.9-3.4-0.9-5.5c0.3,0.5,0.4,1,0.6,1.6c0.3,0.9,0.4,2,1.1,2.7
		c2.5,2.5,5.1,5,8.7,5.7c4.9,1,9.9,1.7,14.9,2.5c0.3,0.1,0.7,0,1.1-0.1c1.8-0.5,3.5-1,5.3-1.6c2.7-1,3.5-2.2,3.1-5.4
		c-0.4-3.1-1.1-6.1-1.8-9.1c-0.8-3.5-1.7-6.9-2.3-10.3C92.5,358.4,92.2,357,89.8,356.7z M50.3,240.8c0.6-2.8,1.3-5.4,1.8-8.1
		c0.1-0.7-0.1-1.6-0.4-2.3c-2.8-4.7-3.8-10-4.9-15.2c-1.1-5.1-0.7-10.1,2.7-14.4c0.5-0.7,1-1.4,1.3-2.2c1.7-4.6,5.2-7.5,9.4-9.8
		c1.9-1.1,3.7-2.4,5.5-3.7c-0.1-0.1-0.1-0.3-0.2-0.4c-2.2,0.3-4.5,0.5-6.7,0.9c-4.6,0.8-9.1,2-13.7,2.5c-2.1,0.2-2.1,1.1-2.1,2.5
		c0,0.7,0.1,1.5,0.1,2.2c0.2,9.4-2.6,18.1-6.3,26.6c-0.7,1.5-1.1,3.3-1.1,5c0,3.8,1.9,7,4,9.9C42.2,237.9,45.8,240.2,50.3,240.8z
		 M61.2,308.9c0.2-0.1,0.5-0.2,0.7-0.3c-0.2-1.7-0.5-3.4-0.6-5.2c-0.3-4.2,0-8.4-0.7-12.5c-1.6-8.5-3.6-16.9-5.5-25.3
		c-0.1-0.4-0.4-1.1-0.7-1.1c-0.4,0-1.1,0.3-1.3,0.6c-1.2,2.2-2.5,4.4-3.4,6.8c-0.5,1.2-0.8,2.7-0.6,3.9c0.4,2.3,1.3,4.6,2,6.8
		c1.1,3.3,2.1,6.6,3.2,9.9c0.2,0.6,0.3,1.2,0.5,1.7c1.8,4.5,3.6,8.9,5.4,13.4C60.5,308.1,60.9,308.5,61.2,308.9z M34.9,226.9
		c-1.7,3.9-3.3,7.7-1.1,11.9c1.3,2.6,2.3,5.4,3.5,8.1c0.7,1.5,1.2,3.2,2.3,4.3c2.8,3,6.7,3.8,10.6,4c1.5,0.1,1.7-0.6,1.4-1.9
		c-0.5-2.5-1-5-1-7.6c0-2.1-0.7-3.1-2.7-3.8c-6-2.1-10.4-6-12.1-12.4C35.7,228.7,35.3,227.8,34.9,226.9z M127.4,215.8
		c-0.3,0.9-0.9,1.7-0.9,2.6c0,5.6-1,11-2.9,16.3c-0.5,1.3-0.7,2.7-0.9,4.1c-0.3,1.4,0.4,2.1,1.8,2c4-0.4,7.6,0.7,10.9,3
		c0.3,0.2,0.6,0.3,1.4,0.6C133.4,234.7,132.8,224.8,127.4,215.8z M46.4,268.2c0.3-0.2,0.5-0.3,0.6-0.5c1.2-2.8,2.8-5.2,5.3-7.1
		c1.2-0.9,0.3-2.9-1.3-3.1c-3.1-0.5-6.3-0.9-9.6-1.4C43,260.1,44.7,264.1,46.4,268.2z M142,54c-0.2-0.1-0.4-0.1-0.7-0.2
		c-0.5,2.5-1,5.1-1.5,7.8c0-0.5,0-0.7,0-0.9c-0.3-3-0.5-6,2.1-8.3c0.2-0.2,0.1-0.8-0.1-1.2c-0.1-0.3-0.7-0.6-0.8-0.5
		c-0.6,0.4-1.2,0.8-1.6,1.4c-1.4,2.4-1.5,5.1-1.4,7.8c0,3.2-0.1,6.4-0.2,9.6c0,0.8,0,1.6,0,2.9c0.6-0.7,0.9-1,1.1-1.4
		C141.9,65.7,141.1,59.7,142,54z M94.3,339c-0.1-0.1-0.3-0.3-0.4-0.4c-1.5,6.7-5.9,5.6-10.6,4.5c2.8,3.1,7,3.2,10.1,6.3
		C93.7,345.5,94,342.3,94.3,339z M74.6,358.6c-1.2-1.3-2.6-2.9-4-4.3c-0.7-0.8-1.5-0.4-1.5,0.5c0,2.2,0.2,4.5,0.4,7.1
		C71.6,360.6,73.1,359.5,74.6,358.6z M47.9,271.9c1.9-3.3,3.8-6.6,5.8-10C50.3,262.4,46.3,269.7,47.9,271.9z M90,362.8
		c-1,0.7-2.2,1.2-2.5,2c-0.5,1.4,0.4,2.6,1.7,3.2c0.6,0.2,1.7,0.3,2-0.1C92.3,366.1,91,364.8,90,362.8z M79.6,351.1
		c1.6,4.3,3.9,5.2,7.7,3.1C84.6,353.1,82.3,352.1,79.6,351.1z M84.5,366.7c0.1-0.2,0.2-0.5,0.3-0.7c-1-0.6-2.2-1.1-2.9-1.9
		c-1.5-1.6-2.7-1.1-4.2,0.5C80.1,365.4,82.3,366,84.5,366.7z M84.7,356.4c-0.1,0.2-0.1,0.5-0.2,0.7c1.2,1,2.4,1.9,4,3.2
		c0-1.6,0-2.9,0-4.4C87.1,356.1,85.9,356.3,84.7,356.4z M99.2,357.1c0.2,0.3,0.4,0.6,0.5,0.9c1.2-0.3,2.3-0.6,3.5-0.9
		c-0.4-0.9-0.8-1.8-1.4-3.2C100.7,355.3,99.9,356.2,99.2,357.1z"/>
	<path class="st0" d="M111.7,95.3c-4.1-0.1-7.5-2.8-8.8-6.8c-0.3-0.9-0.1-1.4,1-1.4c1.8,0,3.5,0.1,5.3,0.1c4.3,0,8.6-0.2,12.9-0.2
		c0.8,0,1.6,0.4,2.4,0.7c-0.4,0.9-0.6,1.9-1.1,2.5C120.9,93,115.3,95.4,111.7,95.3z M105.2,88.5c4.1,4.9,11.8,4.2,15.8,0
		C115.7,88.5,110.6,88.5,105.2,88.5z M105.1,90.3c1.2,3.4,5.6,5,9.5,4c4.7-1.3,7-2.8,6.7-4.5C116.2,93.7,110.9,95,105.1,90.3z"/>
	<path class="st0" d="M93.5,60.3c0.5-0.7,0.9-1.7,1.6-2c5.1-2.3,10.2-3.5,15.6-1c0.6,0.3,1.2,0.7,1.5,1.2c0.3,0.6,0.3,1.4,0.1,2
		c-0.1,0.3-1.2,0.4-1.7,0.2c-3.1-1.3-6.3-2-9.6-1.7c-1.8,0.2-3.6,0.8-5.4,1.2c-0.6,0.1-1.1,0.3-1.7,0.4
		C93.7,60.6,93.6,60.4,93.5,60.3z"/>
	<path class="st0" d="M112.6,65.8c-2.4-0.2-4.3-0.3-6.2-0.5c-3.6-0.4-7.1-0.8-10.7-1.3c-0.3,0-0.5-0.4-0.8-0.6
		c0.3-0.5,0.6-1.1,1-1.3c1.8-0.7,3.7-1.2,5.6-1.8c2.6-0.9,5-0.3,7.1,1.3C110,62.7,111.1,64.1,112.6,65.8z M101.5,61.4
		c-1.4,0.5-2.6,1-3.8,1.4C100.8,63.8,101.6,63.5,101.5,61.4z M106.9,61.4c-0.3,1.3-0.4,2-0.6,2.7c0.9,0,1.7,0,2.6,0
		c0.1-0.1,0.2-0.3,0.3-0.4C108.5,63,107.9,62.4,106.9,61.4z"/>
	<path class="st0" d="M119.6,65.4c-0.2-0.4-0.5-0.8-0.5-1.2c-0.3-2,2.1-5.3,4.1-5.8c2.1-0.4,4.1-1.2,6.2-1.5
		c1.2-0.2,2.6,0.3,3.9,0.7c0.4,0.1,0.5,1,0.8,1.6c-0.5,0.2-1.1,0.6-1.6,0.5c-3.2-1-6.1-0.2-9,1c-0.3,0.1-0.7,0.2-1.1,0.2
		c-2,0.3-2.7,1.1-2.5,3.2c0,0.4,0.1,0.8,0.1,1.2C119.8,65.4,119.7,65.4,119.6,65.4z"/>
	<path class="st0" d="M121,64.2c2.9-3.7,8.6-5.2,12.1-2.2c0.3,0.3,0.7,0.9,0.6,1.2c-0.1,0.3-0.7,0.6-1.1,0.7
		c-2.6,0.3-5.2,0.6-7.7,0.8C123.7,64.8,122.5,64.4,121,64.2z M125.8,63.7c0-0.7-0.1-1.3-0.1-2.2c-1.2,0.8-2,1.3-2.8,1.8
		c0.1,0.2,0.2,0.3,0.3,0.5C123.9,63.8,124.8,63.7,125.8,63.7z"/>
	<path class="st0" d="M109.9,73.8c-0.4,1.8-0.8,3-0.9,4.3c-0.1,1.6,0.8,2.4,2.4,2.5c1.1,0.1,2.3,0.5,3.3,1.1
		c1.5,0.9,2.9,0.9,4.3-0.2c0.2-0.2,0.5-0.4,0.7-0.6c0.7-0.4,1.7-0.7,2-1.3c0.4-0.6,0.1-1.6,0.1-2.6c1.7,1.6,1.3,3.5-0.6,4.3
		c-0.6,0.2-1.3,0.5-1.8,0.9c-1.6,1.3-3.2,1.2-5,0.4c-1.3-0.5-2.7-1-4.1-1.3c-1.3-0.2-2.2-0.8-2.3-2c-0.1-1.4-0.1-2.8,0.2-4.1
		C108.4,74.7,109.2,74.4,109.9,73.8z"/>
	<path class="st0" d="M108.7,98.7c2.7,0,5.4,0,8.2,0C114.9,100.6,110,100.5,108.7,98.7z"/>
	<path class="st0" d="M77.9,70.8c0.8-0.7,1.3-1.5,1.5-1.4c0.5,0.1,1.1,0.7,1.2,1.2c0,0.4-0.6,1.1-1,1.3C79.3,72,78.8,71.4,77.9,70.8
		z"/>
</g>
</svg>
