<?xml version="1.0" encoding="utf-8"?>
<!-- Generator: Adobe Illustrator 19.1.0, SVG Export Plug-In . SVG Version: 6.00 Build 0)  -->
<svg version="1.1" id="Layer_1" xmlns="http://www.w3.org/2000/svg" xmlns:xlink="http://www.w3.org/1999/xlink" x="0px" y="0px"
	 viewBox="0 0 150 209.9" style="enable-background:new 0 0 150 209.9;" xml:space="preserve">
<style type="text/css">
	.st0{fill:#FF5722;}
</style>
<g id="arthritis-man">
	<path class="st0" d="M150,85.5c-2.5-4.1-6.8-5.9-10.6-8.2c-0.6-0.4-1.1-0.7-1.7-1.1c-1.9-1.4-4.2-2-6.4-2.7
		c-0.8-0.3-1.6-0.5-2.4-0.8c-0.9-0.3-1.2-0.1-1.3,0.8c-0.5,3.7-0.7,7.5-1.5,11.2c-0.9,3.9-1.4,8-3.5,11.6c-0.2,0.3-0.4,0.7-0.5,1.1
		c-0.1,0.4-0.2,0.7-0.2,0.9c-2.1,0.6-4,1.2-6,1.7c-2.8,0.7-5.7,1.3-8.5,1.9c-1.3,0.3-2.6,0.4-3.9,0.5c-1,0.1-1.1,0.7-0.9,1.3
		c0.4,1.2-0.3,1.7-1.2,2.1c-2.6,1.5-5.5,2-8.3,3c-2.3,0.8-4.4,1.8-6.6,2.7c-1.1,0.4-2.3,0.9-3.4,1.1c-0.9,0.2-1.2,0.7-1,1.5
		c0.1,0.4,0.2,0.8,0.2,1.2c0.9,5.8,0.8,11.6,0.3,17.5c-0.2,2.1,0.4,4,1.5,5.7c1.7,2.5,3.4,5.1,5.2,7.5c2.6,3.5,5,7.1,7.9,10.2
		c2.5,2.6,4.3,5.7,6.8,8.1c0.9,0.9,1.9,1.5,2.9,2.3c0.9,0.7,1.8,1.3,2.7,1.9c0.3,0.2,0.6,0.4,0.9,0.6c1,0.7,2,1.5,3,2.2
		c0.5,0.3,0.9,0.8,1.3,1.1c1.4,0.9,1.7,0.6,1.9-1c0.3-3.8,0.7-7.5,1.1-11.3c0.3-3.1,0.4-6.2,0.7-9.3c0.2-1.9,0.5-3.8,0.6-5.7
		c0.1-1.1,0-2.1,0-3.2c0.1-2.2,0-4.3,0.3-6.4c0.5-4.5,1.2-9.1,1.9-13.6c0.7-4.7,1.7-9.3,3.4-13.8c1.9-5,4.6-9.6,8.3-13.6
		c0.1-0.1,0.2-0.2,0.3-0.3c0.7-1.3,1.8-1.4,3-0.9c-0.9,0.9-1.7,1.8-2.5,2.7c-3.5,3.7-5.9,8.1-7.6,12.9c-1.3,3.6-2.4,7.2-3.4,10.8
		c-0.5,1.6-0.6,3.4-0.8,5.1c-0.4,3.1-0.7,6.1-1,9.2c0,0.4,0.1,0.8,0.2,1.2c0.3-0.3,0.7-0.6,0.8-0.9c0.6-1.9,1-3.9,1.6-5.7
		c1.1-3.3,2.3-6.6,3.5-10c0.7-2.1,1.4-4.2,2.3-6.3c0.3-0.9,1-1.6,1.4-2.4c0.5-1,0.8-2,1.2-3c1.3-2.9,2.9-5.6,4.9-8
		c0.7-0.9,1.3-1.8,2.1-2.7c0.2,1.1,0.4,2.1-0.3,3c-1.3,1.9-2.5,3.8-3.7,5.7c-0.6,1-1.2,2-1.6,3.1c-1.9,4.3-4.3,8.4-5.6,13.1
		c-0.5,2-1.6,3.8-2.2,5.8c-1,2.8-1.8,5.6-2.7,8.3c-0.3,1-0.5,2.1-0.7,3.2c0,0.1,0,0.2,0,0.2c-1.8,2.8-1,6-1.4,9
		c-0.8,6.1-1.6,12.2-2.2,18.3c-0.2,2.6,0.1,5.3,0.2,8c0,0.3,0.4,0.7,0.8,0.9c2.8,1.4,5.5,3,8.5,4.1c1.7,0.6,3.7,0.5,5.5,0.6
		c1,0.1,2,0,3-0.1c0.5,0,1-0.2,1.4-0.5c0.8-0.4,1.3-0.2,1.8,0.4c0.3,0.4,0.8,0.9,1.3,0.9c3.1,0.3,6,1,8.9,2.1c0,0.8,0,1.6,0,2.4
		c-2.2-0.4-4.3-0.8-6.5-1.3c-1.6-0.3-3.1-0.8-4.7-1.1c-2.3-0.4-4.6-0.8-7-1.1c-0.3,0-0.7,0.1-1.2,0.2c2.2,2.9,4.3,5.5,5.7,8.7
		c-0.8,0.6-1.5,0.6-2.1-0.2c-0.6-0.9-1.2-1.8-1.9-2.7c-3-4.2-6.9-7.3-11.5-9.7c-2.6-1.3-5.1-2.9-7.6-4.4c-2.6-1.5-5.1-3-7.7-4.6
		c-0.3-0.2-0.5-0.4-0.7-0.6c-2.6-3-5.2-5.9-7.8-9c-1.4-1.6-2.5-3.4-3.8-5.2c-1.6-2.2-3.3-4.3-4.9-6.5c-2-2.8-4.1-5.5-5.7-8.4
		c-1.4-2.4-1.6-5.3-1.3-8.1c0.2-2.3,0.5-4.6,0.8-6.9c0-0.3-0.2-0.7-0.2-1c-0.2-1.4-0.4-2.9-0.4-4.3c0-2.1-0.4-4-1.5-5.9
		c-1.2-2.1-1.8-4.4-2.6-6.7c-0.5-1.4-0.7-2.9-1.1-4.4c-0.4-1.3-0.9-2.5-1.2-3.8c-0.3-1.5-0.3-3,0.7-4.3c0.6-0.9,0.5-1.7-0.1-2.4
		c-0.7-0.8-1.6-0.6-2.4-0.2c-2,1-3.1,2.8-3.9,4.8c-0.8,2-0.5,4.1-0.8,6.1c-0.4,2,0.2,3.9,1,5.6c0.2,0.3,0.5,0.7,0.8,0.8
		c1.4,0.4,2.3,1.5,2.9,2.6c0.3,0.5,0.1,1.4,0.1,2.1c0,0.3-0.1,0.6-0.2,1c1.8,0,3.4,0,5.1,0c0.4,0,0.9,0.2,1.2,0.5
		c0.5,0.5,0.9,1.1,1.1,1.8c0.6,1.9,0.4,2.4-1.3,3.6c-0.3,0.2-0.5,0.3-0.8,0.5c-0.1,0.1-0.2,0.4-0.2,0.5c0,0.1,0.2,0.2,0.4,0.3
		c1.5,0.3,2.4,1.1,2.5,2.6c0.1,2-0.5,3.3-2.6,4c-2.8,1-5.5,2.1-8,3.8c-1,0.6-2.2,0.9-3.3,1.3c-2,0.7-4.1,1.1-5.9,2
		c-1.3,0.7-2.3,2-3.4,3c-0.1,0.1-0.1,0.5-0.1,0.8c1.2-0.5,2.3-0.8,3.4-1.3c3.3-1.5,6.5-3.1,9.8-4.7c1.5-0.7,3-1.5,4.6-2.2
		c2-0.9,3.9,0.4,4,2.5c0.2,2.8-1.5,4.6-3.6,6.1c-1.8,1.2-3.8,2.1-5.5,3.3c-2,1.4-4.2,2.3-6.4,3.2c-1.2,0.5-2.4,1.3-3.5,2
		c-0.8,0.5-0.8,1-0.1,1.8c2.6,2.9,5.4,5.6,7.8,8.6c2.4,2.9,4.7,5.9,6.8,9.1c1.8,2.6,3.3,5.3,4.8,8.1c1.1,2.1,2,4.3,3.1,6.4
		c2.3,4.6,5.2,8.9,8.3,13c1.5,2,2.8,4.1,4.3,6.4c-1.1,0-2,0-2.9,0c-0.2,0-0.5-0.3-0.6-0.6c-1.2-3.1-3.1-5.7-4.9-8.4
		c-1.6-2.4-2.7-5-4.1-7.5c-2.3-4.1-4.6-8.1-6.9-12.2c-1.1-2-1.9-4-3-6c-1.7-3.1-4.2-5.5-6.7-7.9c-2.1-2.1-4.4-4.2-6.6-6.2
		c-0.8-0.8-1.8-0.7-2.5,0.2c-0.4,0.5-0.6,1.2-0.9,1.8c-1.1,2.4-2.3,4.7-4.2,6.7c-0.3,0.3-0.6,0.6-1,0.8c-2.7,1.8-5.4,3.5-8.1,5.4
		c-1.3,0.9-2.6,2-3.8,3.1c-0.2,0.2-0.3,0.7-0.3,1c-0.1,3.3,0,6.7-0.2,10c-0.2,2.4-0.8,4.7-1.1,7.1c-0.3,2.1-0.5,4.2-0.6,6.3
		c-0.1,1.8,0,3.7-0.2,5.5c-0.3,3.1-0.8,6.1-1.3,9.2c0,0.3-0.4,0.6-0.6,0.9c-0.2-0.3-0.6-0.6-0.6-0.9c-0.1-0.6-0.1-1.2,0.1-1.7
		c0.6-2.2,0.4-4.4,0.5-6.6c0.1-1.2,0.5-2.4,0.6-3.6c0.1-2.6-0.1-5.1,0.2-7.7c0.4-4.6,1.1-9.3,1.6-13.9c0.1-0.9,0-1.9,0-2.9
		c-1.5,0.5-1.7,1.8-2.1,3c-0.8,2.9-1.5,5.8-2.4,8.6c-0.6,2-1.5,3.9-2.3,5.8c-0.2,0.5-0.6,0.9-1,1.3c-3.7,3.7-8.2,6-13.3,7.1
		c-1.3,0.3-2.6,0.9-3.9,1c-1.7,0.2-3.2-0.4-4.5-1.5c-2.5-2.3-5-4.6-7.5-6.8c-0.1-0.1-0.2-0.2-0.4-0.2c0-0.9,0-1.7,0-2.6
		c0,0,0.1,0,0.1,0c2.5,3.1,5.5,5.7,8.6,8.1c1,0.7,2,1.1,3.2,0.8c1.2-0.3,2.4-0.8,3.6-0.8c3.1-0.1,5.7-1.4,8.4-2.7
		c1.3-0.7,2.4-1.7,3.1-3c0.7-1.2,1.5-2.3,2.1-3.5c0.8-1.5,1.5-3,2.1-4.5c0.3-0.7,0.5-1.4,0.7-2.1c0.7-2.1,1.3-4.2,2.1-6.3
		c0.6-1.4,1.2-2.9,2.2-4.1c1.9-2.3,4.5-3.9,7.1-5.4c1.6-0.9,3.2-1.8,4.7-2.8c1.2-0.8,2.4-1.8,3.5-2.8c1.9-1.9,2.9-4.4,4.1-6.8
		c1-2,2.2-3.9,3.6-5.6c0.8-0.9,2.2-1.5,3.4-2c2-0.9,4.2-1.6,6.2-2.6c2.4-1.3,4.7-3,7-4.5c0.3-0.2,0.5-0.5,1-1
		c-0.8-0.1-1.2-0.2-1.6-0.1c-1.8,0.2-2.6-0.5-2.7-2.2c0-0.1-0.1-0.3-0.1-0.5c-4.5,2.1-9,4.1-13.5,6.2c0.2,0.6,0.4,1.5,0.7,2.2
		c0.2,0.5,0.7,0.9-0.1,1.2c-0.2,0.1-0.8-0.4-1-0.8c-0.3-0.7-0.4-1.5-0.6-2.3c-3.6,0.9-6,3-7.4,6.3c-0.4-0.2-0.7-0.3-1.1-0.5
		c0.9-1.7,1.8-3.1,3.1-4.3c1.7-1.5,3.6-2.9,4.9-4.7c2-2.6,4.4-4.1,7.5-4.9c0.9-0.2,1.9-0.5,2.7-0.8c2.8-1.2,5.6-2.5,8.4-3.8
		c0.2-0.1,0.4-0.3,0.4-0.4c0-0.2-0.2-0.5-0.4-0.5c-1.4-0.7-1.9-1.8-1.5-3.3c0.1-0.2,0.1-0.5,0.2-1c-0.7,0.3-1.1,0.5-1.5,0.7
		c-3.5,1-7,1.9-10.4,3c-1.4,0.4-2.7,1.1-4,1.8c-0.6,0.3-0.8,0.7-0.2,1.3c0.5,0.5,0.8,1.1,1.1,1.7c0.1,0.2,0,0.6-0.1,0.9
		c-0.3-0.1-0.7-0.1-0.9-0.3c-0.4-0.5-0.6-1.1-1.1-1.6c-0.2-0.2-0.7-0.3-0.9-0.2c-1.1,0.8-2.1,1.7-3.3,2.5c-2,1.4-4,2.7-6.6,3.2
		c0.2-0.4,0.4-0.8,0.8-1c1-0.6,2.2-1.1,3.2-1.7c2.3-1.4,4.6-2.8,6.2-5.1c1-1.5,2.8-2.2,4.4-2.5c4.1-1,8.2-2.1,12.2-3.6
		c0.4-0.1,0.8-0.3,1.5-0.6c-2.4-1.4-2.1-3.5-1.7-5.6c-6.4,1.2-12.7,2.4-18.9,4.8c0.5,0.7,1,1.2,1.3,1.8c0.4,0.6,0.8,1.2,1.1,1.8
		c0.1,0.2-0.1,0.5-0.1,0.7c-0.3-0.1-0.6-0.1-0.8-0.2c-0.3-0.3-0.4-0.6-0.7-1c-0.4-0.6-0.8-1.2-1.3-1.8c-0.4-0.5-0.8-0.5-1.3-0.1
		c-0.8,0.6-1.7,1.2-2.4,1.9c-1.8,1.9-4.1,3-6.4,3.9c-0.9,0.4-2,0.4-3.1,0.7c0-0.6,0-1,0-1.4c0.4,0,0.9,0,1.3-0.1
		c0.8-0.1,1.7-0.2,2.5-0.5c2-0.7,3.4-2.2,4.9-3.5c1.6-1.3,3.4-2.5,5.2-3.4c1.7-0.8,3.5-1.2,5.4-1.7c2.2-0.6,4.5-1.1,6.7-1.6
		c0.2-0.1,0.4-0.2,0.8-0.5c-2.4-1.4-2.3-3.5-1.5-5.8c-0.6,0.1-0.9,0.1-1.2,0.2c-2.4,0.5-4.9,0.9-7.3,1.4c-1.5,0.3-3,0.3-4.5,0.7
		c-1.3,0.3-2.7,0.8-3.7,1.8c0.6,0.8,1.1,1.6,1.5,2.3c-0.1,0.1-0.1,0.2-0.2,0.3c-0.4-0.1-0.8-0.1-1.1-0.4c-1.4-1.5-1.3-1.5-3-0.3
		c-0.1,0.1-0.2,0.2-0.4,0.2c-2.5,1.8-5.2,3.3-7.5,5.5c-1.3,1.3-2.7,2.4-4.1,3.6c-1.6,1.3-3.2,2.6-2.8,5c0,0.1,0,0.2,0,0.3
		c0,3.4-0.1,6.7,0,10.1c0.1,2.3-0.1,4.6-1.7,6.3c-2.3,2.6-4.8,5.1-7.5,7.3c-2.3,1.9-4.8,3.6-7,5.6c-1.2,1.1-2.4,2.1-3.7,3.1
		c-0.3,0.2-0.7,0.1-1.1,0.2c0.1-0.3,0.2-0.8,0.4-1c0.7-0.7,1.5-1.3,2.4-2.1c-3.4-2-6.7-4-10.2-6.1c-0.8,1.9-1.5,3.5-2.2,5.1
		c-0.6,1.3-1.1,2.7-1.7,4c0-0.9,0-1.7,0-2.6c1.6-3.4,3.1-6.8,4.7-10.2c0.6-1.3,1.5-2.5,2.1-3.8c0.6-1.2,1.1-2.5,1.7-3.8
		c0.6-1.3,1.2-2.5,1.7-3.8c0.8-2,1.6-4,2.4-5.9c2.4-5.7,4.9-11.3,7.1-17c1.1-2.9,1.9-5.9,2.8-8.9c0.6-1.9,1.2-3.8,2-5.5
		c1.8-3.7,3.7-7.4,5.5-11.1c1.5-3,3.3-5.6,6.1-7.7c4.9-3.6,10.2-6.2,15.7-8.4c1.5-0.6,3.1-0.6,4.7-0.9c1.5-0.2,1.5-0.4,1.4-1.9
		c-0.3-3.5-1.7-6.7-2.7-10.1c-0.8-2.6-0.9-5.3-1.2-8c-0.2-1.4-0.2-2.9-0.2-4.4c0-2-0.1-4.1,0-6.1c0.1-1.4-0.1-2.8-0.8-4.1
		c-1.5-3-1.6-6.3-1.1-9.6c0.3-2,0.5-4,1.1-5.9c0.7-2.3,1.4-4.7,2.6-6.8c1.4-2.5,2.7-5.2,5-7c0.9-0.7,2-1.3,3-1.9
		c2.4-1.5,4.7-3.2,7.3-4.3c2.3-1,4.9-1.4,7.4-1.9c5.2-1.1,10.5-0.8,15.8-0.3c2.7,0.2,5.3,1.1,7.9,1.8c3,0.8,5.1,2.9,7.3,4.9
		c3.5,3.1,4.8,7.2,5.1,11.7c0.3,4.7,0.4,9.3,0.7,14c0,0.2,0.1,0.5,0.1,0.7c2.7,0.4,3.3,1,3.6,3.8c0.1,1.2,0.5,2.4,0.6,3.6
		c0.1,1.3,0,2.5,0,3.8c-0.1,0.9-0.4,1.9-0.4,2.8c0.2,4.2-0.9,8-3,11.5c-0.3,0.5-0.7,0.9-1.1,1.4c-0.5,0.7-0.6,1.3,0.2,1.9
		c2.1,1.6,4.1,3.4,6.2,5c0.9,0.7,2,1.1,3.1,1.6c1.2,0.6,2.5,1.1,3.7,1.7c0.3,0.1,0.7,0.2,1,0.3c1,0.4,2,0.7,3.1,1.1
		c1.2,0.4,2.4,0.8,3.6,1.1c0.5,0.1,1,0.2,1.4,0.4c1,0.4,2.1,0.6,2.5,1.9c0.1,0.3,0.7,0.5,1,0.7c3.1,2.1,6.3,4.2,9.4,6.3
		C150,83.5,150,84.5,150,85.5z M112.9,41.4c-0.2-0.1-0.3-0.3-0.5-0.4c0.4-0.8,0.8-1.7,1.3-2.4c0.4-0.5,1.1-1,1.6-0.9
		c0.5,0.1,1,0.9,1.1,1.4c0.3,1.2,0.4,2.4,0.7,3.7c0.1,0.4,0.3,0.8,0.5,1.2c0.2,0,0.3-0.1,0.5-0.1c0-0.7,0.1-1.4,0-2.1
		c-0.5-2-1-3.9-1.6-5.9c-0.3-1.1-0.5-1.3-1.5-0.6c-1.5,1-2.7,2.3-3.4,4c-0.2,0.6-0.5,1.2-0.9,1.7c-0.8,1.1-1.6,2.1-2.4,3.2
		c-0.3,0.1-0.7,0-0.9,0.2c-0.9,0.6-1.4,0-1.8-0.5c-0.3-0.4-0.3-0.9-0.5-1.4c-0.9-3-2.2-5.7-3.9-8.3c-1.6-2.3-2.3-4.9-2.3-7.7
		c0-2,0-3.9-0.1-5.9c-0.1-2-0.9-3.5-2.7-4.5c-1.4-0.7-2.9-0.9-4.4-0.7c-2.7,0.3-5.4,0.8-8.1,1c-3,0.2-6,0.4-9.1,0.4
		c-1,0-2.1-0.4-2.9-0.9c-1.5-1-2.9-1.4-4.6-1c-0.5,0.1-1,0.1-1.5,0.2c-1,0.1-2.2-0.1-3,0.4c-2,1.1-4.1,2.3-5.1,4.6
		c-0.3,0.6-0.9,1.1-1.2,1.7c-0.8,1.2-2,2.4-2.3,3.7c-0.5,2.2-0.7,4.6-0.6,6.9c0.1,2,0.2,4.2,1.8,5.9c0.2,0.2,0.2,0.7,0.2,1.1
		c-0.1,1.7-0.3,3.5-0.2,5.2c0.1,2.4,0.2,4.8,0.5,7.2c0.2,2.3,0.5,4.5,1,6.7c0.8,3.4,1.9,6.7,2.7,10.1c0.8,3.5,2.3,6.8,3.6,10.2
		c0.7,1.9,1.3,3.7,2.6,5.3c1.7,2.1,3.3,4.2,5,6.3c0.2,0.2,0.8,0.3,1.2,0.2c0.4-0.2,0.8-0.6,1.2-0.9c1.6-1.2,3.7-0.8,4.5,1.1
		c0.3,0.8,0.3,1.8,0.5,2.7c0.4-0.1,1-0.3,1.6-0.4c6-0.7,10.5-3.9,14.5-8.2c2.1-2.2,4-4.6,5.9-7.1c2.3-3,4.1-6.3,4.6-10.2
		c0.1-0.6,0.1-1.3,0.3-1.9c0.3-0.8,0.7-1.6,1.1-2.5c0.2,0.1,0.4,0.1,0.5,0.2c-0.2,1.2-0.3,2.5-0.6,3.7c-0.4,1.9-0.4,3.9-1.4,5.7
		c-2.8,5.4-6.8,9.9-10.9,14.3c-1.1,1.1-1.9,2.6-3.2,3.5c-3.1,2.2-6.5,4-10.6,3.9c-0.4,0-0.8-0.1-1.2,0c-0.3,0.1-0.7,0.3-0.8,0.5
		c-0.1,0.1,0.2,0.6,0.4,0.8c2.3,2.2,4.6,4.4,6.9,6.6c1.2,1.2,1.8,1.1,2.9-0.2c1.4-1.5,2.8-3.1,4.3-4.5c2.9-2.7,5.8-5.4,8.3-8.6
		c0.7-0.9,1.6-1.7,2.1-2.6c2.3-4.1,4.7-8.2,6.6-12.6c1.4-3.1,2.9-6.2,2.9-9.8c0-2.3,0.1-2.2-2-3.1c-1.7-0.7-2.2-2.5-1.7-4.2
		c0-0.1,0.2-0.3,0.4-0.3c0.1,0,0.4,0.1,0.4,0.3c0.1,0.3,0.1,0.6,0.2,0.8c0.3,1.7,1.4,2.5,3,2c0.7-0.2,1.5-0.8,2-1.4
		c1.9-2.8,2.7-6,3.1-9.2c0.1-0.7,0.1-1.5-0.1-2.2c-0.5-2.3-1.1-4.5-1.8-6.8c-0.1-0.3-0.3-0.6-0.5-0.8c-0.3,0.2-0.6,0.4-0.9,0.7
		C113.7,40.6,113.3,41,112.9,41.4z M34.5,93.8c0.3-0.6,0.4-1.3,0.8-1.7c0.5-0.7,1.2-1.2,1.8-1.8c0.9-0.7,2.8-0.8,3.5,0
		c1.1,1.3,2.1,2.6,3.1,3.9c1.9,2.7,3.7,5.4,5.7,8.1c1.1,1.4,2.4,2.7,3.7,4c0.9,0.8,1.4,0.6,1.6-0.6c0-0.3,0-0.7-0.1-0.9
		c-0.5-1.1-1-2.2-1.7-3.2c-0.9-1.5-2-2.9-3-4.3c-1.2-1.6-2.4-3.1-3.6-4.7c-0.5-0.7-0.9-1.6-1.5-2.2c-2.3-2.6-1.6-5.4,1.6-6.4
		c2.1-0.7,4.3,0,5.5,1.8c0.9,1.3,1.9,2.5,2.9,3.7c0.7,0.9,1.6,0.7,2.1-0.4c0.2-0.5,0.4-1,0.6-1.5c1.1-2,2.3-4,3.3-6
		c0.4-0.8,0.8-1.7,0.3-2.6c-0.6-1.4-1.2-2.9-1.8-4.3c-0.2-0.3-0.7-0.7-1-0.7c-1.6,0.2-3.3,0.3-4.8,0.8c-1.5,0.4-2.9,1.2-4.3,1.8
		c-1.7,0.7-3.3,1.5-4.9,2.3c-2.7,1.3-5.2,2.8-7.5,4.7c-1.2,1-2.4,2.1-3.4,3.4c-1.2,1.6-2.1,3.5-3.1,5.3c-0.9,1.6-1.6,3.3-2.4,5
		c-1.1,2.6-2.3,5.1-3.2,7.8c-1,2.7-1.6,5.5-2.5,8.2c-0.7,1.9-1.7,3.7-2.5,5.5c-1,2.4-1.8,4.8-2.8,7.2c-1.7,4.3-3.4,8.5-5.2,12.7
		c-0.9,2.2-2,4.2-3.1,6.3c-1.2,2.1-2.5,4.2-3.7,6.2c-0.4,0.6-0.4,1,0.4,1.3c1.5,0.6,2.9,1.3,4.4,2c1.6,0.8,3.3,1.4,4.8,2.3
		c0.9,0.6,1.7,0.6,2.4-0.1c1.8-1.8,4.1-3,6.1-4.6c2.4-1.8,4.4-4.1,6.5-6.3c1.1-1.1,1.6-2.6,1.6-4.2c0-2.1,0-4.3,0-6.4
		c0-2.1,0-4.1,0-6.2c0-1.9,0.7-3.5,2.2-4.7c1.1-0.8,2-1.8,3.1-2.6c0.8-0.6,0.9-1.3,0.8-2.3c-0.2-1.3-0.3-2.6-0.3-3.8
		c0.1-1.2-0.1-2.2-0.8-3.1c-0.8-1.2-1.3-2.4-1.4-3.9c0-0.8-0.3-1.7-0.4-2.5c-0.3-1.7-0.1-3.4,0.9-4.9c0.8-1.1,1.1-2.3,0.3-3.7
		C35.1,96.3,34.9,95,34.5,93.8z M102.3,97.2c0,0-0.1,0-0.1,0c0,0.4,0,0.9,0,1.3c0,2.1,0.2,2.5,2.2,2.3c2.9-0.3,5.8-0.9,8.6-1.5
		c1.9-0.4,3.7-1.1,5.6-1.8c1.2-0.4,1.9-1.2,2.4-2.3c0.5-1.3,1-2.6,1.4-3.9c0.8-2.3,1.8-4.5,2.3-6.9c0.8-3.8,1.1-7.8,1.7-11.6
		c0.2-1.1-0.3-1.6-1.3-2c-1.7-0.6-3.5-1-5-2c-1.7-1-3.2-2.6-4.8-3.8c-0.3-0.3-1-0.6-1.2-0.5c-0.3,0.2-0.5,0.8-0.6,1.2
		c-0.2,1.2-0.1,2.5-0.5,3.6c-1.2,3.2-2.5,6.4-3.8,9.5c-0.6,1.4-1.5,2.7-2.3,4c-1.2,2-2.4,4-3.8,5.9c-0.7,1-1.1,1.9-1.1,3.1
		C102.2,93.6,102.2,95.4,102.3,97.2z M44.8,88.3c0.3,0.6,0.5,1,0.7,1.3c1.2,1.6,2.5,3.1,3.7,4.7c2.6,3.4,5,6.9,6.7,10.9
		c0.5,1.3,0.3,2.1-1.2,3c-0.8,0.5-1.6,0-2.3-0.7c-1.9-2.1-3.9-4.1-5.7-6.4c-1.6-2.1-2.9-4.5-4.4-6.8c-0.5-0.8-1.1-1.5-1.9-2.5
		c-0.3,2.9-1.2,4.8-4.4,3.9c0.5,1,1.1,1.7,1.6,2.5c0.2,0.3,0.5,0.7,0.7,1.1c0.6,1.2,0.9,2.5,1.7,3.5c1.6,2.3,3.3,4.5,4.9,6.7
		c0.9,1.3,1.7,2.6,2.6,3.9c1.3-0.7,2.6-1.5,4-2.1c1-0.5,2.1-0.9,3.1-1.1c2.4-0.4,4.8-0.6,7.3-1c1.5-0.2,3-0.7,4.5-1
		c0.9-0.2,1-0.5,0.5-1.2c-2-2.7-4.1-5.3-6.1-8c-3.2-4.2-6.5-8.4-9.7-12.5c-0.4-0.5-1-0.8-1.6-1.3C49,88.8,47.9,89.3,44.8,88.3z
		 M100.7,93.7c-0.1,0-0.2,0-0.3-0.1c-0.9,0.8-1.9,1.5-2.8,2.3c-2.6,2.2-5.2,4.4-7.8,6.7c-1.7,1.5-3.2,3.1-4.8,4.7
		c-1,0.9-2,1.9-2.9,2.8c-0.2,0.3-0.3,0.7-0.4,1.1c0.4,0,0.9,0.1,1.3-0.1c1.2-0.5,2.4-1.1,3.6-1.5c2.8-1,5.6-2,8.4-3
		c1.5-0.5,3-1,4.5-1.6c0.4-0.1,0.8-0.7,0.8-1.1c0.2-1.9,0.2-3.8,0.3-5.7C100.7,96.8,100.7,95.3,100.7,93.7z M61.9,81.5
		c-0.1,0.1-0.2,0.3-0.3,0.5c-1.6,2.7-3.1,5.5-4.7,8.2c-0.3,0.6-0.5,1.1,0.2,1.7c1,0.8,1.6,1.9,3.3,1.9c2.7,0.1,5.4,0.7,8,1.1
		c0.5-1,0.9-1.8,1.4-2.6C67.2,88.8,64.6,85.2,61.9,81.5z M46.5,114.4c-0.2-0.3-0.3-0.5-0.5-0.7c-1.3-2.2-2.4-4.5-3.9-6.5
		c-1.6-2.2-3.5-4.2-4.4-6.9c-0.2-0.5-0.6-0.5-0.9-0.1c-0.7,1.1-1.3,2.2-1.1,3.6c0.2,1.1,0.2,2.3,0.2,3.4c0,0.7-0.1,1.4,0.2,2
		c0.9,1.9,1.8,3.7,2.8,5.4c0.7,1.1,1.5,2.2,2.3,3.2C43.2,116.6,44.8,115.5,46.5,114.4z M85.1,105c-0.4-0.3-0.9-0.7-1.4-1.1
		c-0.5-0.4-1-0.8-1.5-1.2c-0.4-0.4-0.8-0.9-1.3-1.3c-1.1-1.1-2.2-2.2-3.3-3.3c-0.2-0.2-0.5-0.3-0.8-0.4c-0.1,0.3-0.3,0.6-0.2,0.9
		c0.6,1.9,1.2,3.8,1.8,5.7c0.5,1.7,0.9,3.5,1.4,5.2c0.1,0.4,0.3,0.7,0.4,1.1C81.8,108.7,83.4,106.9,85.1,105z M67.8,98
		c0-1.8-0.2-2.1-1.3-2.2c-1.5-0.2-2.9-0.5-4.4-0.7c-0.4-0.1-0.8-0.2-1.1-0.3c-0.2,0-0.6,0.1-0.7,0.2c-0.1,0.2,0,0.5,0.1,0.7
		c0.7,1.1,1.5,2.3,2.2,3.4c1.4,1.9,2.8,3.8,4.2,5.7c0.2,0.2,0.5,0.3,0.8,0.4c0.1-0.3,0.3-0.6,0.3-0.9c-0.1-1.3-0.2-2.6-0.3-3.9
		C67.6,99.6,67.7,98.8,67.8,98z M69.3,108.9c-1.6,0-2.2,0.6-2.2,2.2c0,1.5,1.5,3.2,2.8,3.1c1.2-0.1,2.9-1.5,2.9-2.4
		C72.7,110.4,70.9,108.9,69.3,108.9z M74.5,116.8c-0.1,1.2,1.1,2.8,2.2,3c1,0.1,3-1.4,3.1-2.3c0.1-1.4-1-2.9-2.3-3
		C75.9,114.3,74.7,114.6,74.5,116.8z M80.1,124c0.1-1.4-0.8-2.1-2.4-2.2c-1.1-0.1-2.2,0.9-2.2,2c0,1.3,1.4,2.4,3,2.4
		C79.3,126.2,80,125.3,80.1,124z M75.7,135.2c1.4,0,2.4-0.5,2.6-1.2c0.2-1-0.6-2.4-1.5-2.6c-1.1-0.3-2.9,0.4-3.1,1.4
		C73.2,134.4,73.5,135.2,75.7,135.2z M39.5,92.2c-0.2-0.3-0.3-1.1-0.7-1.2c-0.4-0.2-1,0.2-1.5,0.5c-0.3,0.1-0.5,0.5-0.8,0.7
		c-0.6,0.4-0.9,0.8-0.6,1.5c0.3,0.8,0.9,1.4,1.8,1.3c0.6-0.1,1.2-0.6,1.6-1.1C39.4,93.5,39.4,92.9,39.5,92.2z M46.7,87.9
		c1.1,0,1.7-0.7,1.7-2.2c0-0.8-0.3-1.3-1.2-1.3c-1,0-2.4,1.1-2.4,1.9C44.8,87,45.9,87.9,46.7,87.9z M38.3,119.8
		c0.7-0.5,1.3-0.9,2-1.4c-0.6-1-1.2-2.1-1.8-3.1C37.7,116.9,37.9,118.3,38.3,119.8z"/>
	<path class="st0" d="M40.6,133.9c-0.8,0.6-1.4,1.1-2,1.5c-1.1,0.6-1.4,1.5-1.2,2.7c0.1,0.8,0.1,1.6,0.1,2.3c0,0.2-0.3,0.5-0.5,0.7
		c-0.1,0-0.2-0.1-0.3-0.1c0-1.6-0.1-3.2,0-4.8C36.8,135.3,39.2,133.8,40.6,133.9z"/>
	<path class="st0" d="M91.3,72.1c-0.2-0.3-0.5-0.5-0.7-0.8c-2.2-3.3-4.3-6.6-6.5-9.9c-0.3-0.4-0.8-0.7-1.4-1.2
		c0.1,2.1-0.8,3.3-2.5,3.8c-0.2,0.1-0.5,0.2-0.7,0.1c-1.4-0.5-2.6,0.2-3.8,0.6c-1,0.3-2.1,0.5-3.1,0.3c-1.7-0.3-3.6,0.2-5.2-1.2
		c-0.8,1.6-1.8,3.1-2.3,4.7c-0.5,1.5-0.6,3.2-1,4.9c-0.5-1.1-0.6-2.3-0.2-3.4c0.6-1.7,1.2-3.5,2-5.1c0.6-1.2,1.1-2.3,1.3-3.7
		c0.2-1.4,1-2.4,2-3.4c0.5-0.4,0.6-1.4,0.7-2.1c0.4-1.7,0.5-3.5,1.1-5.2c0.5-1.3,0.5-2.5,0.3-3.8c-0.1-0.5-0.8-0.9-0.2-1.4
		c-0.3-0.2-0.6-0.4-0.8-0.6c-0.2-0.2-0.3-0.4-0.4-0.6c0.3,0,0.6-0.2,0.8-0.1c0.4,0.4,1,0.8,1.1,1.3c0.6,1.9,0.6,3.7-0.3,5.6
		c-0.6,1.5-0.8,3.1-1,4.7c-0.2,1.3-0.3,2.5-1.5,3.5c-1.5,1.2-1.8,3.1-0.9,4.3c0.2,0.3,0.4,0.6,0.5,0.9c0.1-0.1,0.2-0.2,0.4-0.3
		c0-0.3,0-0.6,0-1c0.3,0,0.6,0,0.6,0.1c1.7,2.1,3.7,1.6,5.8,0.9c0.5-0.2,1-0.4,1.4-0.8c1-0.8,2.1-1.1,3.3-0.6c1,0.3,2-0.4,1.8-1.4
		c-0.2-1-0.5-1.9-0.9-2.8c-0.4-0.8-1-1.4-1.5-2.2c-0.1-0.2-0.1-0.5-0.1-0.7c0.2,0.1,0.5,0.1,0.7,0.3c2,2.3,4,4.6,5.8,7.1
		c1.8,2.4,3.3,5,5,7.5c0.3,0.5,0.4,1.1,0.7,1.6C91.5,71.9,91.4,72,91.3,72.1z"/>
	<path class="st0" d="M87,74.6c-2,1.7-4.1,3.1-6.4,4.3c-2.5,1.2-5.1,1-7.7,0.7c-0.7-0.1-1.4-0.5-1.9-0.9c-1.5-1.3-2.9-2.6-4.3-4
		c-0.2-0.2-0.3-0.6-0.4-0.9c0.3-0.1,0.7-0.3,1-0.4c1-0.3,2.1-0.6,3.2-0.7c0.8-0.1,1.8-0.3,2.5-0.1c1,0.3,1.7,0.3,2.7-0.2
		c0.9-0.4,2.1-0.5,3.1-0.3c2.8,0.6,5.5,1.4,8.2,2.1C87,74.3,87,74.4,87,74.6z M85.1,74.7c-5.7,2.1-11.4,2-17.1,0.2
		c1,1.2,2,2.2,3.2,3c0.8,0.5,1.8,0.9,2.7,0.9c2,0.1,4.1,0.1,6.1-0.7C81.9,77.3,83.4,76.1,85.1,74.7z M69.1,73.9
		c4.3,0.5,8.7,1.4,13.3,0c-0.5-0.3-0.7-0.5-1-0.6c-1.2-0.2-2.5-0.5-3.8-0.6c-0.6-0.1-1.3,0.1-1.8,0.4c-0.9,0.6-1.8,0.6-2.6,0.2
		C71.7,72.5,70.4,73.3,69.1,73.9z"/>
	<path class="st0" d="M96.5,43c-0.8,1.1-1.6,0.8-2.4,0.6c-3.3-0.6-6.5-0.6-9.7,0.6c-1.1,0.4-2.4,0.4-3.6,0.4c-0.4,0-0.9-0.3-1.3-0.5
		c0-0.1,0-0.2,0-0.3c1.4-0.6,2.8-1.2,4.2-1.7c1.3-0.5,2.6-1,3.9-1.4c0.9-0.2,2-0.5,2.8-0.2C92.5,41.1,94.4,42.1,96.5,43z"/>
	<path class="st0" d="M86.5,45.4c3.1,1.6,6.6,1.5,10.2,1.9c-0.3,0.4-0.5,0.7-0.8,1c-3.2,3.2-7.8,3.3-11.3,1c-0.6-0.4-1.2-0.7-1.9-1
		c-0.7-0.3-0.9-0.8-0.2-1.5c3,2.3,6.1,3.8,10,2.4c0.6-0.2,1.1-0.5,1.6-0.7c0-0.1,0-0.2,0-0.3c-0.8-0.1-1.6-0.3-2.4-0.4
		c-1.5-0.3-3-0.6-4.4-1c-0.4-0.1-0.6-0.6-0.9-0.9C86.3,45.6,86.4,45.5,86.5,45.4z"/>
	<path class="st0" d="M68.7,43.9c-0.1,0.4-0.2,0.7-0.3,1.2c-1.3-0.2-2.5-0.4-3.8-0.5c-1.5-0.1-3.1-0.3-4.6-0.1
		c-0.6,0.1-1.2,0.8-1.8,1.3c-0.4,0.2-0.8,0.4-1.2,0.6c-0.1-0.5-0.3-1-0.1-1.4c0.7-1.7,2.1-2.5,3.9-2.7c2.3-0.2,4.3,0.6,6.4,1.3
		C67.7,43.6,68.2,43.8,68.7,43.9z"/>
	<path class="st0" d="M111.4,49.1c0,0.5-0.1,1,0,1.4c0,0.3,0.3,0.6,0.5,0.7c0.2,0.1,0.5-0.1,0.7-0.3c1.2-1.3,1.7-4,0.9-5.5
		c-0.2-0.3-0.5-0.7-0.8-0.7c-0.2,0-0.5,0.4-0.8,0.6c-0.2,0.2-0.2,0.5-0.4,0.6c-0.2,0.1-0.6,0.1-0.8,0.2c0-0.3-0.2-0.6-0.1-0.8
		c0.5-0.7,1-1.4,1.5-2.1c0.5-0.6,1-0.4,1.5,0c1.2,0.9,1.8,3.1,1.5,4.6c-0.4,1.9-1.3,3.6-2.6,5.1c-0.3,0.3-0.7,0.7-1.1,0.9
		c-0.6,0.3-1.2,0.2-1.1-0.7c0.1-1.2,0.2-2.3,0.4-3.5c0-0.2,0.2-0.3,0.3-0.5C111.2,49.1,111.3,49.1,111.4,49.1z"/>
	<path class="st0" d="M69.7,47.1c0.7,0.7,0.4,1.3-0.3,1.7c-1.8,0.8-3.5,1.9-5.3,2c-2,0.2-4-0.5-6-0.9c-0.7-0.2-1-1-0.7-1.9
		c0.5,0.3,0.9,0.5,1.3,0.8c1.5,1.3,3.3,1.2,5,0.7c1-0.3,2-0.7,3-1.1C67.6,47.9,68.6,47.5,69.7,47.1z"/>
	<path class="st0" d="M81.7,84.1c-3.2-1.7-6.5-1.5-9.9-0.5c0-0.1-0.1-0.3-0.1-0.4c0.7-0.3,1.5-0.8,2.2-0.8c1.7-0.2,3.4-0.3,5.1-0.2
		C80.2,82.3,81.1,83,81.7,84.1z"/>
</g>
</svg>
