<?xml version="1.0" encoding="utf-8"?>
<!-- Generator: Adobe Illustrator 19.2.1, SVG Export Plug-In . SVG Version: 6.00 Build 0)  -->
<svg version="1.1" id="Layer_1" xmlns="http://www.w3.org/2000/svg" xmlns:xlink="http://www.w3.org/1999/xlink" x="0px" y="0px"
	 viewBox="0 0 200 235.5" style="enable-background:new 0 0 200 235.5;" xml:space="preserve">
<style type="text/css">
	.st0{fill:#FF5722;}
</style>
<g id="corns-lady">
	<g>
		<path class="st0" d="M145.5,201.3c-0.9,1.2-1.5,2.4-2.4,3.4c-0.6,0.6-1.6,0.9-2.2,1.4c-0.5,0.5-1,1.2-1.2,1.8
			c-1.1,5.4-2.9,10.4-8,13.3c-1.3,0.7-3,0.9-4.5,1.1c-1.3,0.2-1.9,0.7-2.3,2c-1.1,3.4-2.5,6.4-5.8,8.4c-2.6,1.6-5.3,2.8-8.3,2.7
			c-3.5-0.2-7-0.5-10.4-1.2c-2-0.4-3.7-1.8-4.7-3.6c-2.1-3.9-4-8-3.8-12.6c0-0.3,0-0.7,0.1-1c0.5-2.9,1.1-5.8,1.7-8.7
			c0.2-1-0.3-1.8-1.3-1.8c-4.3,0-8.7-0.2-12.9,0.9c-0.7,0.2-1.5,0.9-1.9,1.5c-1.1,1.6-1.4,3.7-3.4,4.7c-0.3,0.2-0.4,0.9-0.5,1.3
			c-0.2,2.3-0.1,4.8-0.7,7c-0.6,2-1.9,3.7-3,5.5c-1.9,2.8-5.1,3.2-8,3.8c-3.4,0.7-7,0.6-10.4-0.8c-4.3-1.8-7-5.1-8-9.6
			c-0.7-3.3-2.1-5.9-4.5-8.4c-2.3-2.3-3.3-5.6-3.4-9c-0.1-3.9,0.6-7.6,1.5-11.3c0.2-0.8,0.3-1.6,0.5-2.5c-3.1,1.6-6,3.2-8.9,4.6
			c-5.9,2.9-11.6,6.3-17.8,8.6c-3,1.1-6,2.3-9,3.3c-0.5,0.2-1.5-0.1-1.7-0.5c-0.4-0.7,0.1-1.3,0.9-1.6c2.4-0.9,4.7-1.7,7.1-2.7
			c4-1.7,8.1-3.4,12.1-5.4c4.4-2.1,8.7-4.4,13-6.7c2.2-1.2,4.4-2.5,6.7-3.9c-0.6-3.2-1.3-6.4-2-9.7c-1.3-6.7-2.1-13.5-1.7-20.3
			c0.2-3.5-0.1-6.9-1.7-10.2c-1.1-2.2,0.9-5.9,3.5-6.9c1.8-0.7,1.8-0.8,1.5-2.6c-0.8-6-2.9-11.6-4.4-17.4
			c-1.8-6.9-3.6-13.9-2.8-21.2c0.5-4.4,2.5-7.9,5.6-10.9c5.2-4.9,11.1-8.8,17.2-12.5c2.6-1.6,5-3.5,7.4-5.3c0.6-0.4,1-1.3,1.1-2.1
			c0.7-3.5,2.1-6.4,4.8-8.8c1.3-1.2,1.2-1.3-0.4-2.3c-0.8-0.5-1.5-1.1-2-1.8c-2.6-3.6-3.8-7.7-3.6-12.2c0.1-3,1.5-5.4,4.4-6
			c0-0.3,0-0.7-0.1-1c-1.1-3.3-1-6.7-0.2-10.1c0.5-2.1,0.7-4.3,1.1-6.4c0.6-2.6,1.8-4.9,3.2-7.2c3-5.1,7.7-7.6,13-9.5
			c2-0.7,4-1,6.1-1c3,0,6,0,9-0.2c3-0.2,5.3,1.3,7.9,2.4c1.6,0.7,3.1,1.5,4.6,2.3c0.8,0.5,1.7,1,2.3,1.8c2.6,3,4.8,6.2,5.2,10.2
			c0.5,4.8,0.8,9.6,1,14.5c0,1.1-0.7,2.2-1.1,3.4c2.7,0.1,3.8,1.7,4.4,5.3c0.5,2.9,0.6,5.8-0.7,8.7c-1,2.3-2.4,4-4.4,5.4
			c-1.1,0.7-2.3,1.4-3.7,2.2c-0.2,1.1-0.6,2.6-0.9,4.1c-0.2,1.2-0.1,2,1.4,2.3c4.6,1.1,8.9,3.1,13,5.4c4.2,2.3,8.1,5.1,12,7.8
			c2.9,2,5.4,4.6,8.5,6.3c3.3,1.8,5.1,4.9,7.6,7.3c1,1,1.4,2.7,1.7,4.1c0.8,4.6,0.1,9.1-0.8,13.6c-0.9,4.3-1.4,8.7-2.2,13
			c-0.6,3.1-1.3,6.2-1.9,9.3c-1.5,7.9-4.3,15.3-6.7,22.9c-0.8,2.7-1.4,5.5-2.2,8.2c-0.8,2.6-1.9,5-2.8,7.6c-0.1,0.4-0.2,1,0,1.2
			c3.2,3.3,4.4,7.4,5.1,11.7c0.7,3.9,0.8,8,0.9,12c0,1.7-0.4,3.4-0.8,5c-0.2,0.8-0.2,1.1,0.6,1.4c9.7,4.2,19.4,8.6,29.1,12.8
			c2.4,1,5,1.8,7.5,2.6c3.7,1.2,7.4,2.4,11.1,3.5c1.3,0.4,2.7,0.4,4,0.8c0.5,0.1,1.1,0.8,1.2,1.3c0.1,0.9-0.6,1.5-1.5,1.4
			c-1.2-0.2-2.5-0.5-3.7-0.9c-4.3-1.4-8.6-2.8-12.9-4.2c-2-0.7-4.1-1.1-6-1.9c-7-3.1-13.8-6.3-20.8-9.4
			C151.9,204,148.7,202.7,145.5,201.3z M129.3,163.7c0.1-0.1,0.2-0.1,0.3-0.2c-0.1-0.5-0.3-1-0.4-1.4c-0.1-0.4-0.4-0.8-0.4-1.2
			c0-2.4,0-4.8-1.5-6.8c-1.4-1.9-1.5-4.5-3.8-5.8c-1-0.6-1.5-2-2.6-2.5c-2.1-1.1-3.6-2.5-4.3-4.7c-0.4-1.3-1.1-1.7-2.7-1.8
			c-1.9-0.1-3.8-1.1-5.7-1.7c-0.2-0.1-0.4,0.2-0.7,0.6c-1.7,2.6-3.7,4.8-7,5.2c-2.8,0.4-5.7,0.5-8.5,0.8c-1.2,0.1-2.5,0-2.4,1.9
			c0,0.5-0.4,1-0.7,1.5c-0.4,0.9-0.9,1.7-1.2,2.6c-1.5,5.3,0,10.2,2.3,15c2.5-2.5,5.9-3.1,9.1-3.9c0.8-0.2,1.7-0.1,1.9,1
			c0.1,1.1-0.8,1.1-1.6,1.3c-2.2,0.7-4.4,1.3-6.5,2.2c-1,0.4-1.6,1.4-1.2,2.6c0.9,2.6,2.1,5.1,2.7,7.8c0.7,3.3,0.9,6.8,1.1,10.2
			c0.3,4.5,0.3,9.1,0.7,13.6c0.5,5.6,0.7,11.1-1.1,16.6c-0.3,0.8-0.4,1.7-0.4,2.6c-0.1,3.1,1,6,2.1,8.8c1,2.4,2.9,3.9,5.3,4.3
			c4.2,0.7,8.5,1.3,12.5-0.9c0.4-0.2,0.9-0.2,1.3-0.3c1.9-0.4,3.6-1.3,4.6-3.1c2.3-4.2,4.1-8.5,3.4-13.4c-0.1-0.7-0.2-1.4-0.2-2.1
			c-0.2-6.3,0.2-12.6,1.2-18.9c0.5-3.1,0.9-6.3,1.2-9.5c0.6-5.6,0.8-11.2,2.7-16.6c0.2-0.6,0.1-0.9-0.5-1.3c-2.4-1.5-5-1.7-7.8-1.4
			c-0.8,0.1-1.6,0.2-1.6-0.7c0-0.5,0.6-1.1,1.1-1.4c0.3-0.2,0.9-0.2,1.4-0.2C124.2,162,126.8,162.5,129.3,163.7z M76.5,162.1
			c-1.1-0.1-2-0.3-2.9-0.3c-1.6-0.1-3.3,0-4.9-0.1c-0.6,0-1.1-0.6-1.6-0.9c0.5-0.3,1-1,1.5-1c2.5,0,5.1,0,7.6,0.2
			c0.8,0.1,1.2-0.1,1.4-0.8c0.6-2,1.4-4,2-6.1c0.2-0.8,0.3-1.7,0.2-2.6c-0.2-1.5-0.6-3.1-1.1-4.6c-0.4-1.1-0.8-2.4-1.7-2.9
			c-1-0.7-2.5-0.8-3.8-0.8c-4.9-0.1-9.4-1.5-13.4-4.4c-0.6-0.4-1.5-0.6-2.3-0.7c-1-0.1-2.1,0.1-3.1,0.2c-0.5,0.1-1,0.1-1.4,0.3
			c-1.4,0.7-2.7,1.3-4,2.2c-1,0.7-1.8,1.6-2.7,2.5c-1.9,1.9-3.7,3.9-5.6,5.7c-0.3,0.2-0.9,0-1.4,0c0.1-0.5,0.1-1.1,0.3-1.4
			c0.8-0.9,1.7-1.7,2.5-2.6c0.3-0.3,0.6-0.8,0.5-1.2c-0.2-1.2-0.6-2.3-1-3.4c-1.2,0.5-2,0.8-2.8,1.2c-1.4,0.7-2.6,2.8-2,4
			c1.8,3.7,2,7.6,2,11.6c0,3,0,5.9,0,9c0.9-0.2,1.6-0.5,2.3-0.6c2-0.3,3.9-0.6,5.9-0.8c0.4,0,0.9,0.7,1.3,1.1
			c-0.4,0.4-0.8,0.8-1.3,1.1c-0.2,0.1-0.5,0-0.8,0.1c-2.4,0.3-4.7,0.6-7.2,1c0.1,0.7,0.2,1.1,0.3,1.6c0.7,4.1,1.3,8.1,1.9,12.2
			c0.8,5.1,1.7,10.3,2.2,15.4c0.6,5.1,1,10.3,1.1,15.5c0.1,3.4,0.6,6.7,1.8,9.9c1.3,3.6,3.8,6.1,7.7,6.7c3.6,0.6,7.1,0.5,10.6-0.9
			c2.7-1.2,4.2-3,5-5.7c0.9-3.2,0.4-6.3,0.1-9.5c-0.4-4.7-1.2-9.5-1.1-14.2c0.1-5.9,0.1-11.9,1.2-17.8c1-5.5,2.2-10.8,5.3-15.5
			C75.8,164.1,76,163.2,76.5,162.1z M129.7,173.3c0.1,0.2,0.3,0.3,0.4,0.5c1.8-1.1,3.8-2,5.5-3.3c1.4-1.1,2.8-2.6,3.7-4.2
			c1.1-2,1.7-4.2,2.3-6.4c0.6-2.2,0.8-4.5,1.6-6.7c3.4-9.3,6.2-18.7,8.2-28.4c1-5.2,1.9-10.5,2.8-15.8c0.7-4.4,1.7-8.7,1.5-13.1
			c-0.1-2.5-0.7-4.5-2.5-6.2c-2.1-1.9-3.7-4.2-6.2-5.8c-3.1-1.8-5.8-4.3-8.6-6.5c-4.2-3.3-8.7-6.2-13.5-8.5
			c-2.8-1.4-5.7-2.6-8.6-3.9c-0.1,0.1-0.2,0.3-0.3,0.4c3.2,3.6,3.4,8,3.6,12.5c0.1,3.8,0.3,7.6,0.7,11.4c0.5,6.1,1.2,12.3,1.7,18.4
			c0.3,3.3,0.9,6.4,3.6,8.7c0-0.2,0-0.4,0.1-0.6c0.5-4.1,3.1-6.4,6.7-7.9c0.4-0.2,1,0.2,1.5,0.3c-0.2,0.5-0.2,1.2-0.5,1.5
			c-0.6,0.6-1.3,1-2,1.4c-1.5,0.8-2.3,2-2.6,3.5c-0.3,1.2-0.2,2.5-0.5,3.7c-1.1,4.4-2.4,8.8-3.6,13.1c-0.4,1.4-0.4,2.9-2.2,3.6
			c0.7,0.3,1.3,0.4,2,0.5c0.7,0.1,1.4,0.2,2,0.5c1.7,0.8,2.6,2.1,2.3,4.1c-0.3,1.9-0.1,3.9-0.6,5.7c-0.6,1.7-0.7,3.3,0.1,4.8
			c1.5,2.6,2.6,5.2,3,8.2c0.4,2.8,0.6,5.5,0.1,8.2C130.7,169.2,130.1,171.3,129.7,173.3z M113.2,93.6c-1.3-7.9,0.8-15.8-1.3-23.7
			c-0.1,0.6-0.2,1-0.2,1.5c-0.2,3.3-0.4,6.5-0.6,9.8c0,0.8,0,1.6-1.1,1.6c-1.1,0-1-0.8-1-1.5c0.1-2.7,0.3-5.4,0.5-8
			c0.1-1.5,0.3-2.9,0.4-4.4c-0.1,0-0.2-0.1-0.4-0.1c-0.8,0.9-1.6,1.8-2.3,2.7c-3.7,5.3-8.8,8.2-15.1,8.9c-5.1,0.6-10,0-13.5-4.6
			c-0.8-1-1.7-1.9-2.6-2.8c-0.1,0.1-0.2,0.1-0.3,0.2c0.4,1.9,0.7,3.8,1.1,5.7c1.3,6.2,1.6,12.6,4.5,18.4c0.1,0.3,0.7,0.6,0.9,0.5
			c2.9-0.6,5.6,0.5,8.3,1.1c0.3,0.1,0.7,0.8,0.7,1.1c0,0.3-0.7,0.7-1.1,0.7c-0.9,0-1.7-0.2-2.6-0.4c-1.5-0.2-3.1-0.5-4.6-0.7
			c-0.8-0.1-1.1,0.2-1.2,1.1c-0.1,1.5-0.3,3.1-0.8,4.6c-0.9,3.4-3.2,6-5.8,8.2c-0.8,0.7-1.1,1.3-0.8,2.3c0.4,1.1,1.2,0.8,2,0.7
			c1.6-0.1,4.4,1.4,5,2.9c0.7,1.7,0,3.1-1.3,4.3c-0.4,0.3-0.7,1-0.7,1.4c0.6,3,3.1,4.7,6.1,4.5c1.2-0.1,1.5-0.5,0.8-1.4
			c-1.2-1.3-1.3-2.8-0.8-4.4c0.5-1.6,0.9-3.2,2.6-4c3-1.6,5.5-0.8,7.2,2.4c0.4,0.8,0.9,1.1,1.7,0.9c1.6-0.3,3.2-0.1,4.7,0.6
			c0.3,0.1,0.7,0.1,1,0c1.8-0.6,3.5-0.5,5.1,0.8c1.3,1,2.7,1,4.1,0.8c-0.1-0.7-0.3-1.3-0.1-1.8c1.5-4.4,2-9,1.5-13.6
			c-0.3-2.9,0-6,0-8.9c0-1.8,0.2-3.6,0.3-5.8c-2.2,0.5-4.1,0.8-5.9,1.3c-1.2,0.3-2.3,1-3.5,1.3c-0.4,0.1-1-0.3-1.5-0.4
			c0.2-0.4,0.4-1.1,0.8-1.3c2.7-0.9,5.1-2.6,8.1-2.5C112.1,93.8,112.6,93.7,113.2,93.6z M103.8,35.6c-5.1,2.2-10.5,2.4-15.9,2.7
			c-2.2,0.1-4.5-0.1-6.8-0.3c-3.1-0.2-6.2-0.4-9.3-0.5c-0.7,0-1.5,0-2,0c-0.7,1.9,0.8,4.2-1.8,5.4c-0.3-1.4-0.5-2.7-0.8-4
			c-0.1-0.5-0.3-0.9-0.4-1.3c-0.5,0.3-1,0.6-1.4,0.8c0.4,0.8,0.9,1.4,0.9,1.9c0,1.9,0.1,3.9-0.3,5.7c-0.5,2.4,0.5,5.9,2.6,7.3
			c0.3,0.2,0.7,0.3,1.1,0.5c0.3-2.2-0.1-3-1.7-3.8c-1.1-0.6-1.5-2.6-0.5-3.5c0,0.2,0.1,0.4,0.1,0.6c0,1.2,0.1,2.1,1.6,2.2
			c0.4,0,0.9,0.8,1.1,1.3c0.3,0.9,0.5,2,0.6,2.9c0.4,2.8,0.6,5.7,1.2,8.4c0.5,2.2,1.3,4.5,2.5,6.3c1.5,2.3,3.6,4.1,5.3,6.2
			c2,2.3,4.4,3.7,7.5,3.9c6.1,0.4,11.6-0.9,15.9-5.5c2.2-2.3,4.1-4.9,6.1-7.4c1-1.3,1.8-2.7,1.9-4.5c0.2-2.1,0.6-4.3,1.1-6.3
			c0.6-2.4,1.6-4.8,2.3-7.2c0.3-1,0.1-2.2,0-3.3c0-0.5-0.1-1-0.2-1.6c0.2,0,0.3,0,0.5-0.1c1,1.5,1.7,3,0.8,5
			c1.4-0.1,2.3-0.5,2.9-1.6c0.5-1,0.4-1.9-0.5-2.7c-0.3-0.2-0.3-0.7-0.4-1.1c0.2-0.1,0.3-0.2,0.5-0.3c0.6,0.8,1.6,1.6,1.8,2.5
			c0.4,1.8-1,3.7-2.8,4.1c-1.8,0.5-3.2,3-2.7,4.9c6.1-2.1,9.2-12.7,4.7-16.7c-0.7,0.6-1.5,1.1-2.1,1.8c-0.4,0.4-0.5,1.2-0.8,1.7
			c-0.2,0.3-0.6,0.5-0.9,0.8c-0.3-0.4-0.7-0.7-0.8-1.1c-0.1-0.4,0.2-0.9,0.1-1.4c-0.2-1.6-0.4-3.3-0.9-4.8c-0.2-0.7-1-1.3-1.6-2
			c-0.2,0.2-0.5,0.5-0.9,0.8c-1.4,1.3-2.8,2.6-4.3,3.7C105.8,37.1,104.8,36.9,103.8,35.6z M62.4,71.8c-1.8,1.2-3.3,2.4-4.9,3.3
			c-5.4,3.1-10.5,6.7-15.3,10.6c-3.4,2.7-6.5,5.7-7.2,10.1c-0.5,3.1-0.7,6.4-0.2,9.5c0.9,5.4,2.3,10.6,3.7,15.9
			c1,3.9,2.3,7.8,3.4,11.7c0.3-0.2,0.8-0.7,1.4-0.9c0.7-0.3,1.4-0.3,2.1-0.6c0.2-0.1,0.4-0.5,0.5-0.8c1.1-2.3,3.6-3.7,6.2-3.5
			c0.4,0,0.9-0.2,1.3-0.3c1.7-0.5,3.4-1.1,5.1-1.5c0.9-0.2,2-1.7,1.8-2.7c-0.4-2.3-0.9-4.5-1.1-6.8c-0.1-2.2-1.1-3.8-2.7-5.1
			c-1-0.7-2.1-1.3-3.3-1.8c-0.8-0.3-1.4-0.7-1.1-1.6c0.3-1,1.3-1,2-0.7c2.1,0.9,4.4,1.6,5.8,3.7c1,1.5,1.7,3.1,2.6,4.9
			c0.4-0.4,1.1-0.9,1.5-1.5c0.9-1.5,2.3-2.9,2.6-4.5c0.7-3.9,0-7.6-2.4-11c-1.7-2.4-2.9-5.1-4.1-7.8c-1.3-2.9-0.8-6.1-0.9-9.2
			c0-1.5,0.4-2.8,1.2-4C61.3,75.9,62.2,74.1,62.4,71.8z M125.1,119.9c-3-2.2-4.9-4.9-5.4-8.3c-0.5-3.3-0.5-6.6-0.6-9.9
			c-0.1-2.4,0.1-4.8-0.4-7.1c-1.1-5.3-1.1-10.7-1.3-16.1c-0.1-2-0.4-3.9-0.5-5.9c-0.3-3.1-2.3-5.4-4-7.8c0,0.5,0.2,1,0.3,1.4
			c0.6,2.7,1.4,5.4,1.7,8.2c0.3,2.9,0.1,5.9,0.2,8.9c0.1,3.3,0.3,6.5,0.4,9.8c0.1,2.4,0.2,4.8,0.3,7.2c0.1,3.7-0.2,7.4,0.1,11.1
			c0.4,4.4,0.2,8.5-1.5,12.6c-0.6,1.5-0.1,2.2,1.6,2.2c1.6,0,2.2,0.6,2.6,2.1c0.1,0.3,0.3,0.7,0.6,0.9c0.9,0.6,1.8,1,2.8,1.6
			C123,127.3,124.1,123.6,125.1,119.9z M128.6,187.5c-2.4,11-2.8,21.9-1.9,33c4.5-0.5,7-3.1,8.3-7.2c0.6-2.1,1.2-4.4,1.3-6.6
			c0.1-2,0.7-4.1-0.2-6.1c-1.4-3.1-2.7-6.2-4.2-9.3C131.1,189.8,130.2,188.2,128.6,187.5z M106.6,135.6c-3.8-2-7.7-1.9-11.6-2.1
			c0.7-0.7,1.4-1.6,2.1-1.7c2,0,4,0.3,6,0.5c0.5,0,1,0,1.6-0.1c-0.1-0.5-0.1-1-0.3-1.5c-0.7-1.4-1.4-2.7-2.2-4.3
			c-0.1,0-0.5-0.3-1-0.4c-1.1-0.3-2.3-0.9-3.3-0.7c-2.1,0.4-4.1,1.1-6.2,1.8c-2.6,0.9-3.3,4-3.2,6.1c0,0.4,0.1,0.9-0.1,1.3
			c-0.7,1.9-1.4,3.7-2.1,5.6c-0.4,1,0.2,1.7,0.8,2.3c0.6,0.6,1.2,0.5,2,0.2c1-0.4,2.2-0.6,3.3-0.7c2.4-0.3,4.8-0.3,7.2-0.6
			C103.2,141,105.2,138.6,106.6,135.6z M59.8,135.5c1.6,0.9,3.2,1.9,4.9,2.6c4.4,1.9,9.1,2.5,13.9,2.1c2.3-0.2,3.6-1.5,2.9-3.2
			c-0.5-1.2-1.6-2.7-2.7-3.1c-4.3-1.4-8.7-2.8-13.3-1.9C63.2,132.5,60.9,132.9,59.8,135.5z M80.3,143c0.4,1.1,0.8,2.1,1.2,3.1
			c0.9,3.1,1.7,6.1,0.4,9.3c-1.2,3-2.2,6-3.4,9c-0.3,0.9-0.2,1.4,0.6,1.8c2,0.9,3.9,2,5.9,2.6c1.1,0.4,2.5,0.1,3.5,0.1
			c-1.2-3.9-2.7-7.7-3.5-11.6c-0.9-4.1,0-8,2.3-11.6c-2.2-1.2-3.6-2.9-3.4-5.3C82.5,141.3,81.4,142.2,80.3,143z M62.2,130.5
			c2.8-0.2,5.6,0,8.2-0.8c2.2-0.6,4-1.1,5.9,0.4c0.4,0.3,1.7,0,2.3-0.4c0.9-0.6,0.2-1.4-0.2-2c-0.4-0.6-1-1.2-1.6-1.4
			c-2.6-1-5.3-2-8-2.7c-2.6-0.8-5-0.3-7.1,1.4c-0.5,0.4-1,1.2-0.9,1.7C61.1,128,61.8,129.3,62.2,130.5z M67.9,116.2
			c0-0.2,0-0.3,0-0.5c0.5-0.1,1-0.3,1.4-0.3c2.1-0.2,3.6-2.2,3.1-4.2c-0.5-2-1.1-3.9-1.8-5.9c-0.1-0.4-0.9-0.7-1.3-0.7
			c-0.3,0-0.9,0.9-0.8,1c0.9,1.4,0,2.8-0.1,4.1c-0.2,1.5-0.6,3.1-1.4,4.3c-0.9,1.3-2.3,2.3-3.6,3.1c-1.7,1-1.6,2.2-0.8,4
			c0.1,0.3,0.7,0.6,1,0.6c1.1,0,2.2-0.3,3.3-0.2c1.4,0,2.7,0,3.5-1.5c0.2-0.3,0.6-0.6,1-0.8c0.7-0.4,1.5-1,1-1.8
			c-0.2-0.4-1.1-0.5-1.8-0.7c-0.4-0.1-0.8,0.1-1.2,0C68.8,116.7,68.3,116.4,67.9,116.2z M71.9,189.1c-0.1,0.1-0.2,0.1-0.3,0.2
			c-0.1,2.7-0.2,5.4-0.4,8.1c-0.4,4.1,0.7,7.9,1.2,11.9c0,0.3,0.5,0.9,0.7,0.9c0.4,0,1.1-0.3,1.2-0.6c0.7-1.9,1.7-3.7,1.9-5.7
			c0.4-3.5-0.1-7.1-1.6-10.4C73.9,191.9,72.8,190.6,71.9,189.1z M113.9,137.2c0.2-0.8,0.2-1.5,0.4-2.1c0.6-1.4,1.3-2.8,2-4.2
			c0.8-1.6,0.2-2.6-1.5-2.7c-0.5,0-1.1-0.3-1.6-0.6c-0.6-0.3-3.4-0.5-3.9-0.1c-0.1,0.1-0.2,0.3-0.2,0.5c-0.1,1.8-0.2,3.6-0.1,5.4
			c0,0.8,0.5,1.7,1,2.3C111,136.7,112.4,137.2,113.9,137.2z M40.5,190.6c-0.1,0-0.3,0-0.4,0c-0.1,0.2-0.2,0.3-0.3,0.5
			c-1.2,4.8-2.4,9.7-1.4,14.7c0.5,2.5,1.6,4.6,3.6,6.5C42.4,204.8,41.3,197.7,40.5,190.6z M125.2,146.4c1.2-2.8,1.3-3.4,1.2-6.4
			c0-1.3-0.7-2-2.1-2c-0.9,0-1.7-0.1-2.8-0.2c-0.6,1.4-1.2,2.9-1.8,4.5C121.5,143.5,123.3,145,125.2,146.4z M55.5,135.3
			c0.8-0.2,1.6-0.2,2.3-0.6c0.6-0.4,0.9-1.1,1.5-1.6c0.8-0.7,1-1.4,0.7-2.3c-0.1-0.4-0.1-0.8-0.1-1.2c-0.1-1.4-1.6-2.4-2.8-2
			c-0.4,0.1-0.9,0.3-1.3,0.4c-1.1,0.4-1.5,1.1-1.2,2.3C55,131.8,55.2,133.4,55.5,135.3z M53.4,135c-0.3-1.5-0.5-3.1-0.9-4.5
			c-0.2-0.6-1.1-1.4-1.4-1.3c-1.3,0.6-2.5,1.3-3.5,2.2c-0.3,0.3-0.2,1.4,0.1,1.9c0.7,1.2,1.7,2.3,2.6,3.5
			C51.4,136.2,52.3,135.6,53.4,135z M139.8,202.3c0.2,0.1,0.3,0.1,0.5,0.2c0.4-0.6,1.2-1.1,1.2-1.7c0.1-2.3,0.4-4.6-1-6.7
			c-0.8-1.1-1.6-2.1-2.3-3.2c-0.8-1.5-1.6-0.8-2.5-0.1c0.7,1.1,1.2,2.1,1.9,3.1c1.3,1.8,1.8,3.7,1.8,5.9
			C139.4,200.6,139.7,201.4,139.8,202.3z M71.1,121.8c1.9,0.8,3.5,1.5,5.2,2.2c0.3,0.1,0.8,0.1,1.1,0c1.1-0.4,2.4-2.5,2.2-3.4
			c-0.3-1.1-2-2.1-3.4-1.9c-0.5,0.1-1,0.2-1.4,0.5C73.6,120,72.4,120.9,71.1,121.8z M93.8,123.9c-0.8-1.2-1.4-2.6-3.3-2.5
			c-1.5,0.1-2.6,0.9-3,2.2c-0.4,1.2-0.4,2.4,0.6,3.3C90,126,91.9,125,93.8,123.9z M118.5,139.5c1.4-2.1,2-4.3,1.4-6.8
			c-0.2-0.6-0.8-1-1.2-1.5c-0.3,0.3-0.8,0.6-1,1c-0.6,1.5-1.2,3.1-1.7,4.6c0.3,0.2,0.7,0.3,0.9,0.5
			C117.4,138.2,118,138.9,118.5,139.5z M48.5,137.6c-0.5-0.6-1-1-1.4-1.5c-0.4-0.5-0.6-1.1-1.1-1.6c-0.3-0.3-1-0.7-1.3-0.6
			c-1,0.3-1.9,4-1.3,4.9c0.4,0.6,0.8,1.2,1.2,1.8c0.6-0.5,1.1-1.1,1.7-1.6C47,138.6,47.7,138.1,48.5,137.6z M80.1,131.3
			c1,1.1,2.2,2.1,2.9,3.4c0.7,1.2,0.9,2.7,1.5,4.5c0.8-2.4,1.6-4.5,2.2-6.4C84.2,132.3,82,131.8,80.1,131.3z M104.7,125.7
			c-0.2,2.1,1,3.3,2,5c0.2-1.4,0.4-2.4,0.4-3.4c0-0.3-0.3-0.9-0.6-1C106,126,105.4,125.9,104.7,125.7z M65.1,45.5
			c1.1-2,1-4.9-0.1-5.7C64,41.3,64.1,44.2,65.1,45.5z"/>
		<path class="st0" d="M89.3,68.7c-1.6,0.3-2.9-0.4-4.2-1.3c-1.2-0.8-2.4-1.5-3.6-2.3c-0.3-0.2-0.5-0.6-0.8-0.8
			c0.3-0.2,0.6-0.5,0.9-0.6c1.5-0.5,3.1-1,4.6-1.4c0.3-0.1,0.6-0.2,0.8-0.2c1.8,0.6,3.6-0.3,5.4-0.1c1.9,0.2,3.7,0.7,5.5,1.2
			c0.4,0.1,0.8,0.5,1.1,0.8c-0.3,0.4-0.6,0.8-1,1c-1.4,0.9-2.9,1.6-4.3,2.5C92.5,68.3,91.1,68.9,89.3,68.7z M84.6,65.3
			c2.3,3.5,7.6,2.8,10.6-0.5C91.7,66.1,88.2,66,84.6,65.3z M84.3,64c3.8,0.8,7.2,0.9,10.8-0.5c-1.8-0.5-3.2-1.1-4.8-0.2
			c-0.4,0.2-1.1,0.2-1.6,0C87.2,62.6,85.9,63.3,84.3,64z"/>
		<path class="st0" d="M103.1,38.7c1.3,0.4,2.7,0.6,3.9,1.2c1.3,0.6,1.4,1.8,0.4,2.9c-2,2.3-4.8,3-7.7,2.1c-1.4-0.4-2.9-0.7-4.4-1.1
			c-0.3-0.1-0.8-0.2-0.9-0.5c-0.1-0.2,0.2-0.7,0.4-0.9C97.1,40.1,99.7,38.8,103.1,38.7z M106.1,41.3c-0.9-0.2-1.7-0.3-2.5-0.4
			c0,0.9,0,1.7,0,2.6C104.8,43.2,105.8,42.8,106.1,41.3z M99.3,43.3c0-0.6,0-1.2,0-2c-0.8,0.6-2.1,0.3-2.1,1.7
			C97.9,43.1,98.5,43.2,99.3,43.3z M101.3,42.9c0.2,0.1,0.5,0.3,0.7,0.4c0.1-0.4,0.4-0.8,0.3-1.2c-0.1-0.4-0.5-0.7-0.8-1
			c-0.3,0.2-0.7,0.5-0.8,0.7C100.8,42.2,101.1,42.6,101.3,42.9z"/>
		<path class="st0" d="M79.7,40.6c2.5-0.3,4.5,0.2,6,2.1c0.7,0.8,0.6,1.4-0.4,1.7c-1.5,0.5-2.9,1.2-4.3,1.7c-1.5,0.6-3,0.1-4.4-0.6
			c-1-0.5-2.1-0.9-3.2-1.4c-0.2-0.1-0.5-0.4-0.5-0.5c0.1-0.4,0.3-0.9,0.6-1.1C75.4,41.4,77.3,40,79.7,40.6z M81.2,44.7
			c1-0.5,1.8-1,2.6-1.4c0-0.2,0-0.3,0-0.5c-0.7-0.2-1.3-0.5-1.9-0.7C81.7,42.9,81.5,43.6,81.2,44.7z M77.3,44.4c0-0.8,0-1.3,0-2.2
			c-0.8,0.4-1.3,0.6-1.9,0.9C76,43.5,76.5,43.9,77.3,44.4z"/>
		<path class="st0" d="M93.3,51.9c1-0.2,2.4,0.6,2.7,1.5c0.5,1.4,0,2.9-1.3,3.2c-1.2,0.4-2.1,0.8-2.9,1.9c-0.8,1.2-3.1,1-4.1,0
			c-0.5-0.4-1.1-0.8-1.7-0.9c-1.6-0.2-2.5-1.2-2.1-2.7c0.3-1,0.9-1.9,1.4-2.8c0.1-0.2,0.5-0.3,0.8-0.5c0.1,0.1,0.2,0.2,0.3,0.3
			c-0.3,0.7-0.7,1.3-1,2c-0.9,1.9-0.5,2.4,1.4,2.6c0.5,0.1,1,0.5,1.5,0.9c1.1,1,2.1,0.9,3.1-0.2c0.6-0.7,1.5-1,2.3-1.6
			c0.4-0.2,1.1-0.5,1.1-0.7c0-0.6-0.2-1.3-0.5-1.7c-0.3-0.4-1-0.6-1.5-0.8C92.9,52.2,93.1,52.1,93.3,51.9z"/>
	</g>
</g>
</svg>
