<?xml version="1.0" encoding="utf-8"?>
<!-- Generator: Adobe Illustrator 19.1.0, SVG Export Plug-In . SVG Version: 6.00 Build 0)  -->
<svg version="1.1" id="Layer_1" xmlns="http://www.w3.org/2000/svg" xmlns:xlink="http://www.w3.org/1999/xlink" x="0px" y="0px"
	 viewBox="0 0 150 73" style="enable-background:new 0 0 150 73;" xml:space="preserve">
<style type="text/css">
	.st0{fill:#FF9800;}
</style>
<g id="nailfungus-foot">
	<path class="st0" d="M23,51.2c0.9,1.7,0.7,2-4.6,7.8c1.3,0.8,2.5,1.7,3.7,2.5c3.4,2,7,3.9,10.3,6c2.1,1.4,4.3,2,6.9,2.2
		c4.5,0.3,8.9,1.1,13.3,1.6c1.2,0.1,2.5,0,3.8,0c0.1-0.2,0.1-0.3,0.2-0.5c-2.1-0.7-4.2-1.3-6.3-2c0.1-0.2,0.1-0.4,0.2-0.5
		c2.3-0.5,4.4,0.1,6.4,1.1c1.3,0.6,2.5,1.3,3.7,1.9c1.4,0.6,2.4,0.1,3.7-0.7c3.9-2.6,4-6.3,3.3-10.3c-0.2-1-0.8-1.8-1.2-2.8
		c-0.7,0.6-1.6,1.1-2.1,1.9c-0.8,1.3-1.9,2.6-0.3,4.2c0.2,0.2,0.1,0.8,0.2,1.2c-0.5-0.1-1-0.1-1.3-0.3c-1-0.6-1.9-1.6-3-2
		c-5.2-1.9-8.9-5.8-12.5-9.7c-0.6-0.6-1.2-1.2-1.8-1.8c-0.1-0.1,0-0.3,0.1-1.1c1.1,0.7,2.1,1.2,2.9,1.9c0.9,0.8,5.1,1.8,6.1,1.3
		c0.1,0,0.3-0.1,0.3-0.2c0.7-2.4,2.9-3,5.4-3.9c-0.8-0.2-1.1-0.3-1.4-0.3c-3.7,0.4-6.1-1.9-9-3.7c-3.2-2.1-6.3-4.5-10.5-5
		c-6.6-0.7-13.2,0.1-19.8,0.4c-5.9,0.2-11.8,0.5-17.8,0.7c-0.4,0-0.8,0-1.2-0.2c-0.3-0.1-0.5-0.5-0.5-0.8c0-0.1,0.3-0.5,0.6-0.5
		c0.6-0.1,1.3-0.2,1.9-0.2c8.9-0.4,17.8-0.6,26.7-1.4c4.9-0.4,9.5-0.4,14.2,0.9c0.9,0.2,1.8,0.6,2.6,1.1c1.8,1.3,3.4,2.7,5.2,4.1
		c1.4,1.1,3,2,4.6,3.1c-0.5-1.5-0.9-2.7-1.1-3.9c-0.1-0.4,0.2-1.2,0.5-1.4c1.6-1,3.3-1.9,4.9-2.9c0.3-0.2,0.7-0.2,0.9-0.5
		c0.9-1.6,2.2-1.7,3.7-1.2c1.6,0.6,3,0.5,4.5-0.5c0.7-0.5,1.7-0.5,3.1-0.8c-0.6-1.5-1-3.4-1.9-4.8c-1.8-2.6-2.8-5.5-3.3-8.6
		c-0.1-0.9-0.7-1.7-1.1-2.5c-0.3-0.5-0.8-0.9-1-1.4c-1.4-3.5-4.2-6-6.7-8.7c-0.3-0.3-0.3-0.9-0.4-1.3c0.5,0,1.1-0.1,1.4,0.2
		c2.1,2.2,4.2,4.5,6.2,6.9c0.9,1.1,1.5,2.4,2.6,4.1c0.4-1.6,0.6-2.6,0.9-3.7c0.2,0,0.5,0,0.7,0c0.1,0.8,0.3,1.7,0.1,2.4
		c-1.2,4.1-0.4,7.8,2,11.3c1.2,1.8,1.8,4,2.7,6c0.7,1.7,1.9,2.6,3.8,2.5c0.6,0,1.1,0.2,1.8,0.3c0.2-1.3,0.4-2.5,0.6-3.7
		c0.2,0,0.4,0,0.7,0c0.1,0.8,0.3,1.7,0.2,2.5c-0.1,1.2,0.3,1.6,1.4,1.7c1,0.1,2,0.3,3.1,0.5c0.1-1.3,0.2-2.4,0.3-3.6
		c0.1,0,0.2,0,0.3,0c0.5,1.2,0.7,3,1.6,3.5c1.1,0.6,2.8,0.1,4.4,0.1c0.2-2,0.6-3.9-1.2-5.5c-1.6-1.4-2.7-3.2-1.8-5.5
		c0.2-0.5,0.4-1,0.9-1.5c0,0.4,0.2,0.9,0.1,1.2c-0.9,1.9,0.1,3.2,1.2,4.5c1.7,2,3.3,4.1,5,6c0.3,0.3,0.9,0.4,1.4,0.4
		c2.1-0.1,4.2-0.3,6.4-0.4c-0.2-0.3-0.4-0.7-0.6-0.8c-2.6-0.8-4-2.9-5.2-5c-1.2-2-2.4-4.1-3.1-6.3C93.4,19.7,89,13.8,83.3,8.7
		c-2.2-2-3.8-4.7-5.6-7.1c-0.2-0.3-0.1-0.8-0.3-1.5c0.7,0.3,1.3,0.3,1.5,0.6c3.1,5.5,8.9,8.7,12.4,13.8c2.2,3.2,3.8,6.9,5.6,10.4
		c1.6,3.1,3,6.5,4.9,9.4c0.9,1.4,2.8,2,4,3.2c1.5,1.6,3.2,1.8,5.2,1.7c4.1-0.2,8.2-0.4,12.3-0.2c4.5,0.2,8.7-0.9,13-2
		c3.7-0.9,7.3-1.9,11-2.9c0.5-0.1,0.9-0.3,1.4-0.2c0.5,0.1,0.9,0.4,1.3,0.6c-0.3,0.4-0.6,1-0.9,1.1c-7.7,1.8-15.4,3.6-23.1,5.2
		c-1.8,0.4-3.9-0.2-5.8-0.1c-9.4,0.2-18.9,0.3-28.3,0.8c-4.9,0.3-9.6-0.7-14.4-1.3c-2-0.3-3.8-0.9-5.5-2c-0.7-0.5-1.8-0.4-2.8-0.5
		c-0.1,0.2-0.1,0.4-0.2,0.6c1.1,0.6,2.3,1.2,3.4,1.8c0,0.2-0.1,0.4-0.1,0.6c-3.3-0.8-6.5-2.3-9.9-2.4c-0.1,0.3-0.2,0.5-0.3,0.8
		c1.3,0.6,2.6,1.2,3.9,1.6c0.8,0.3,1.7,0.2,2.6,0.4c0.3,0.1,0.6,0.4,0.8,0.6c-0.3,0.2-0.7,0.5-0.9,0.5c-1.6-0.3-3.2-0.6-4.7-1.2
		c-1.7-0.6-3.3-1-5.2-0.1c0.6,0.3,1.2,0.7,1.9,0.8c2.2,0.5,4.4,0.9,6.6,1.5c0.4,0.1,0.7,0.4,1,0.6c-0.1,0.2-0.1,0.4-0.2,0.6
		c-2.8-0.5-5.6-1.1-8.5-1.6c-0.1,1.8-1.1,2.9-3.4,2.4c0.4,1.2,0.9,1.8,2.2,1.9c2.1,0.2,4.3,0.6,6.4,1c1.1,0.2,2.5,0.6,2.2,2
		c-0.2,1.2-1.5,1.5-2.7,1.2c-0.8-0.2-1.7-0.2-2.9-0.4c0.2,0.7,0.5,1.1,0.5,1.6c0.1,1,0.1,2.1,0.1,3.1c-1.2-0.1-2.4,0.1-3.5-0.3
		c-0.7-0.3-1.2-1.3-1.8-2c-0.2,3.2,2.7,5.8,5.7,5.3c0.5-0.1,1.1-0.7,1.4-1.2c1.1-1.3,2.2-1.4,3.9-1.1c2.5,0.6,5.1,0.8,7.7,0.8
		c4.3-0.1,8.5-0.3,12.8-0.7c7.9-0.8,15.1,1.4,22,4.9c1.4,0.7,3,1.4,4.6,1.7c2.9,0.5,5-1,6.6-3.2c1.2-1.7,2.7-2.4,4.7-3.1
		c7.3-2.4,14.8-0.6,22.2-1c0.4,0,0.9,0.5,1.3,0.8c-0.5,0.3-0.9,0.9-1.4,0.9c-4.8,0-9.5-0.4-14.2-0.2c-3.1,0.1-6.2,1.1-9.3,1.8
		c-0.5,0.1-1.1,0.7-1.4,1.2c-1.3,2.2-3.4,3.3-5.7,4.2c-2.3,0.9-4.6,0.2-6.5-0.9c-5.7-3.5-11.9-5.7-18.5-5.9
		c-6.2-0.1-12.4,0.7-18.6,1.1c-1.7,0.1-3.3,0-5.2,0c0.1,1.5,0.2,3.3,0.4,5.1c0.2,1.9-0.3,3.5-1.5,4.9c-1.2,1.3-2.3,2.8-3.7,3.7
		c-0.9,0.6-2.4,0.3-3.7,0.3c-0.9,0-1.8-0.3-2.6-0.1c-4.2,0.6-8.3,0.1-12.4-0.6c-2.8-0.5-5.6-0.5-8.4-0.9c-1.2-0.2-2.6-0.4-3.6-1
		c-4.4-2.5-8.9-4.9-13-7.8c-3.6-2.6-7.1-2-10.8-1.1c-2.5,0.6-5,1.3-7.5,1.9c-0.5,0.1-1-0.2-1.5-0.3c0.3-0.4,0.5-1.2,0.9-1.3
		c3.8-1,7.5-2.3,11.4-2.8c2.8-0.3,4.8-1.4,6.6-3.4C20.6,54.1,21.8,52.7,23,51.2z M60.7,54.9c0.1-0.1,0.8-0.6,0.7-0.8
		c-0.5-1.1-1.1-2.1-1.8-3.2c-0.6,0.4-1.7,0.8-1.8,1.4C57.5,53.5,58.8,54.7,60.7,54.9z M55.7,56.8c-0.2,0.1-0.3,0.2-0.5,0.4
		c0.4,0.6,0.6,1.5,1.2,1.8c1.6,0.9,3.3,1.7,4.9,2.5c0.1-0.1,0.2-0.2,0.4-0.3c-0.3-0.4-0.5-1.1-0.9-1.1
		C58.7,59.7,57.1,58.6,55.7,56.8z M65.7,50c0-0.2,0.1-0.4,0.1-0.6c-1.4-0.3-2.7-0.6-4.2-0.9C61.9,50.2,62.9,50.5,65.7,50z M58,41.8
		c-0.8,0.5-1.5,1-2.3,1.5c0.5,0.3,0.9,0.8,1.4,0.9C58.5,44.4,58.4,43.3,58,41.8z"/>
	<path class="st0" d="M77,20c0.2,0.3,0.4,0.5,0.5,0.8c0.2,3.4,2.1,5.5,4.9,7c0.4,0.2,0.7,0.7,1,1.1c-0.5-0.1-1.1,0-1.5-0.2
		c-2.7-1.2-4.5-3.2-5.2-6.1c-0.2-0.8-0.2-1.6-0.3-2.4C76.6,20.1,76.8,20.1,77,20z"/>
	<path class="st0" d="M116.9,57.9c-0.1-0.1-0.5-0.4-0.9-0.7c0.3-0.3,0.5-0.7,0.9-1c0.8-0.6,1.6-1.3,2.4-1.8c0.3-0.2,0.8-0.3,1.2-0.4
		c0.1,0.4,0.4,0.9,0.3,1.2C120.6,56.4,118.5,57.9,116.9,57.9z"/>
</g>
</svg>
