<?xml version="1.0" encoding="utf-8"?>
<!-- Generator: Adobe Illustrator 19.1.0, SVG Export Plug-In . SVG Version: 6.00 Build 0)  -->
<svg version="1.1" id="Layer_1" xmlns="http://www.w3.org/2000/svg" xmlns:xlink="http://www.w3.org/1999/xlink" x="0px" y="0px"
	 viewBox="0 0 120 451.8" style="enable-background:new 0 0 120 451.8;" xml:space="preserve">
<style type="text/css">
	.st0{fill:#03A9F4;}
</style>
<g id="swollenfeet-lady">
	<path class="st0" d="M108.1,273.6c-0.2,1.8-0.1,3.7-0.8,5.1c-2.2,4.9-0.2,8.9,1.9,13.1c0.6,1.2,0.8,2.6,1.3,4
		c-3.3,1-2.9-2.3-5.1-3.2c0.3,4.2-0.2,8.5,1,12.2c3.8,11.6-1.1,19.5-9.8,26.2c-0.4,0.3-0.7,0.6-1.2,1c3.2,8,4.3,16.4,3.3,24.8
		c-0.8,7.3-2.5,14.5-4.1,21.7c-0.4,1.8-0.3,2.9,1.1,4.2c3.6,3.4,7.1,6.9,10.5,10.4c4.7,4.9,3.1,12-3.3,14.3c-4,1.4-8.1,2.6-12.2,3.8
		c-3.5,1-6.9,4.6-6.9,8.3c0,4.9,0.1,9.9,0.4,14.8c0.2,3.8-0.7,5.8-4.2,7.1c-3.3,1.2-6.7,2.1-10,3.1c-8.1,2.3-16.1,4.7-24.3,6.8
		c-3.9,1-7.9,0.6-11.7-0.9c-3.9-1.6-7.9-3-11.8-4.7c-2.8-1.3-3.1-3.7-0.8-5.9c0.5-0.5,1.2-1.2,1.8-1.3c5.2-0.9,8.9-4.6,13.4-6.6
		c8.1-3.5,15.2-8.5,21.1-15c1.5-1.7,2.1-4.1,3.1-6.3c0.5-1.1,0.5-2.5,1.2-3.5c3.5-5.5,4.4-11.6,4.9-17.9c0.1-1.2,0.3-2.4,0.5-3.7
		c0.4-2.4-0.6-4.1-2.5-5.6c-5.1-4.1-10-8.4-14.9-12.7c-3.2-2.8-6.2-5.9-9.4-8.7c-5-4.4-10-8.8-15.2-12.9c-4.2-3.3-8.7-6.5-13.3-9.1
		c-4.8-2.7-7.1-6.6-7.3-11.9c-0.3-6.7,0.2-13.4,1.5-20.1c1.7-9,2.5-18.2,3.6-27.3c0.2-1.9,0.3-3.8,0.8-5.6c0.7-2.3-0.2-3-2.3-3.9
		c-2.6-1.1-5.1-2.8-7.3-4.7c-1.4-1.1-1.8-2.6-0.3-4.6c1.5-1.9,1.9-4.7,2.7-7.1c6-18,11.6-36,17.9-53.9c3.8-10.7,8.6-21.1,13.1-31.6
		c2.5-5.8,1.4-11.3-1.4-16.6c-2.9-5.7-4.4-11.8-5.1-18.1c-0.6-5.2,1.6-9.8,3.9-14.3c3.2-6.2,6.6-12.4,10-18.5
		c0.9-1.6,1.2-2.5-0.7-3.7c-0.8-0.5-1.4-2.2-1.2-3.1c2.6-10.7-2-19.7-7.5-28c-4.6-7-7.7-14.2-9.2-22.4c-1.9-10.2,0.7-19.5,5-28.3
		c2.9-5.9,7.5-11.4,15.4-11.5c0.5,0,1.1-0.3,1.6-0.5c3.3-1.5,6.7-1.3,9.9,0.3c7.5,3.9,13.2,9.2,17.2,17c3.8,7.4,5,15.2,5.8,23.2
		c0.4,4,0.1,8.2,0.7,12.2c0.6,4.5,3.4,8,7,10.5c11.5,8,18.9,18.7,20.6,32.5c0.8,6.1-0.3,12.5-1.3,18.6c-1.5,9.5-3.9,18.9-5.5,28.4
		c-1.5,8.7-2.6,17.4-3.5,26.1c-0.3,2.5,0.5,5.2,1.2,7.7c2.1,7.8,4.3,15.6,6.5,23.4c0.7,2.6,1.6,5.2,2.2,7.9
		c2.7,11.4,5.3,22.8,8,34.2c1.3,5.5,3,10.9,4.4,16.4c0.6,2.5,0.9,5,1.3,7.5c0.4,2.5-0.7,4-3.1,4.5
		C114,272.3,111.1,272.9,108.1,273.6z M68.9,161.6c-1.4,0.1-2.3,0.1-3.1,0.2c-6.9,0.5-14,2.4-20.6,1.2c-5.9-1.1-7.1,1.2-8.5,5.4
		c-2.1,6.3-4.8,12.3-6.6,18.7c-1.4,5.1-1.7,10.6-2.5,15.9c-1,6.7-1.9,13.5-3.2,20.2c-3,15-7.4,29.8-7.3,45.3c0,1.9,0.3,2.9,2.2,3.2
		c4.5,0.7,9,1.9,13.5,2c7.7,0.2,15.5-0.3,23.2-0.5c2.9-0.1,3.9-1.7,3.9-4.4c0-3.2-0.1-6.5,0.3-9.7c1.5-12.1,2.3-24.4,4.9-36.3
		c2.4-11.2,3.8-22.5,4.5-33.9C70.1,180,69.2,171,68.9,161.6z M80.2,268.7c-0.2-2.9-0.6-5.7-0.7-8.5c0-0.9,0.6-1.7,0.9-2.6
		c0.5,0.7,1.2,1.3,1.6,2.1c2,3.7,2.5,8.4,7.1,10.4c0.8,0.3,1.8,0.2,2.6,0.3c-0.3-0.8-0.5-1.8-1-2.5c-1-1.1-2.5-1.8-3.2-3
		c-1.5-2.9-2.6-6-3.8-9.1c-0.2-0.5,0-1.2,0.1-1.8c0.3-0.1,0.5-0.1,0.8-0.2c2.9,4.9,3.2,11.8,10.7,14.3c-0.4-1.7-0.3-3.2-1-3.7
		c-4.4-3-3.6-8.3-5.6-12.3c-0.2-0.5,0.2-1.3,0.4-2.8c3.9,5.3,6.8,10.4,12.6,12.9c-1.4-5.8-7.3-8.9-8.8-14.8
		c-1.4-5.7-4.4-10.9-6.8-16.6c-0.4,0-1.4,0-2.2-0.3c-0.6-0.2-0.9-1-1.3-1.6c0.5-0.3,1-1,1.5-0.9c2.8,0.2,3.2-1.8,3.6-3.8
		c0.8-4.9,1.6-9.9,2.3-14.8c1-7.2,1.8-14.4,2.9-21.6c0.8-4.7,2.1-9.4,1.6-14.3c-0.2-2.3-0.6-4.5-0.5-6.8c0.1-3,0.7-6,1-9
		c0.8-6.6,1.3-13.2,2.4-19.7c1.6-9.1,3.7-18.1,5.5-27.2c0.5-2.5,0.4-5.1,0.2-7.6c-0.4-7-4.6-12.5-7.7-18.4
		c-2.3-4.4-6.8-5.9-11.2-3.4c-8,4.5-11.9,12.1-14.2,20.5c-1,3.6,1,6.5,4.1,7.4c-0.3-1.6-0.7-3.1-0.6-4.5c0-0.7,0.9-1.4,1.5-2.1
		c0.4,0.5,1.1,1,1.2,1.6c1,5.3,2.4,10.6,2.8,15.9c0.9,11.7,1.2,23.4,1.8,35.2c0.7,12.2-0.6,24.2-1.9,36.2c-1.2,11.2-2,22.4-2.6,33.7
		c-0.5,10-0.5,20.1-0.6,30.2c0,3.6,0.3,7.2,0.8,10.7C76.5,267.7,77.2,269.4,80.2,268.7z M41.5,324.3c-1.3,1.4-2.2,2.7-3.4,3.5
		c-0.9,0.7-2.3,0.7-3.4,1.1c-0.2-1.2-0.6-2.5-0.4-3.6c0.4-1.6,1.8-3.1,1.9-4.7c0.6-7.3,3.4-13.9,5.9-20.7c1.8-4.9,3.7-9.7,5.3-14.7
		c1.6-5.1-1-8.3-6.2-8.4c-6.5-0.1-13,0.9-19.4-1.5c-2.5-0.9-5.2-1.1-8.1-1.6c-0.6,5.1-1.2,10.2-1.8,15.3
		c-1.3,10.8-2.7,21.6-3.9,32.4c-0.5,5.2,1.2,9.4,6,12.2c3.2,1.9,6.2,4,9.1,6.3c6.8,5.4,13.6,10.9,20.3,16.5c2.8,2.3,5.3,4.9,7.9,7.3
		c3.4,3.2,6.6,6.5,10,9.6c1.6,1.5,3.7,2.4,5.9,3.8c0.3-1.7,0.7-2.8,0.6-3.9c-0.2-6.9-0.3-13.9-1-20.7c-0.3-2.5-1.8-5.2-3.5-7.1
		c-4.7-5-9.9-9.7-14.9-14.5C46.4,328.9,44.1,326.7,41.5,324.3z M46.9,85.2c0.2,2.1,0.6,3.9,0.5,5.5c-0.2,2.5-0.4,5.2-1.4,7.4
		c-2.3,4.9-4.7,9.8-7.7,14.2c-7.3,10.7-8.4,21.7-3.2,33.6c1.8,4.1,3,8.5,4.5,12.8c0.2,0.5,0.7,1.1,1.2,1.3c1.9,0.5,3.8,1.3,5.7,1.3
		c5,0,10-0.4,15.1-0.7c7.1-0.4,8.8-2.2,10-9.3c1.1-6.2,2.5-12.3,3.9-18.5c1.7-7.1,0.7-14-1.2-20.8c-3.5-0.2-5.9-1.8-6.6-4.9
		c-0.8-3.8-1-7.7,0.9-11.4c3-6.1,6.1-11.9,11.9-16c2.5-1.8,4.9-2.9,8-2.4c2.3,0.4,4.7,0.7,7.9,1.2c-3.2-3.4-5.9-6.2-8.4-8.8
		c-5.4,2.7-10.5,5.2-15.5,7.7c-0.9,0.5-1.9,1.1-2.4,1.9c-2.4,4.7-6.9,7.2-11.2,9.8c-1.4,0.9-3.8,0.7-5.6,0.4
		c-0.4-0.1-0.3-2.8-0.5-4.2c0-0.3-0.2-0.5-0.3-0.9C50.6,84.6,48.9,84.9,46.9,85.2z M79.9,330.8c-2.7,1.7-5.6,3.3-8.3,5.2
		c-0.7,0.5-1,1.8-1,2.7c0.2,9.8,0.7,19.7,0.9,29.5c0.1,4.1,0,8.2-0.4,12.2c-0.9,9.7-0.5,19.6-6,28.4c-0.5,0.8-0.4,1.9-0.8,2.7
		c-1.6,3-2.6,6.6-5,8.7c-6.1,5.2-12,10.8-19.7,13.7c-1.2,0.5-2.3,1.3-3.4,2c-2.5,1.4-5,2.8-7.6,4.1c-1.5,0.8-3.2,1.2-5,2
		c2.3,2.1,2.3,2.1,4.2,0.7c3.3-2.3,3.3-2.3,5.4-1.6c-1.7,1.3-3.2,2.4-4.7,3.6c0.1,0.3,0.2,0.6,0.4,0.9c3.6-0.7,6-4.9,9.9-4.5
		c0.1,0.3,0.3,0.6,0.4,0.8c-2.1,1.3-4.3,2.6-6.6,4c2.6,1.9,4.3,1.6,5.7-0.9c0.6-1.1,1.3-2.1,2.2-2.9c0.4-0.4,1.3-0.3,1.9-0.4
		c-0.1,0.6-0.2,1.2-0.4,1.7c-0.9,1.6-1.8,3.1-2.8,4.6c0.2,0.2,0.4,0.4,0.6,0.5c2.2-2.2,4.5-4.5,6.7-6.7c0.2,0.2,0.5,0.5,0.7,0.7
		c-1.2,1.7-2.5,3.3-3.7,5c0.2,0.3,0.4,0.7,0.5,1c2-0.6,4.1-1.3,6.1-1.8c8.9-2.5,17.8-5.1,26.8-7.5c2.8-0.8,3.9-2.2,3.6-5.1
		c-1-8.7-0.3-17.3,1.4-25.7c1.4-6.8,3.1-13.6,5-20.3c0.8-2.8,2.5-5.3,3.3-8.1c1.4-5.1,2.5-10.3,3.7-15.5c2.3-10.1,2.5-20.2-1-30.4
		c-1.7,0.5-3.1,1-4.5,1.2C83.5,335.9,79.9,336.4,79.9,330.8z M96.7,187.8c-0.2,0-0.4,0.1-0.7,0.1c-1.1,6.6-2.4,13.1-3.4,19.7
		c-0.8,5.6-1.3,11.3-2,16.9c-0.5,4.1-0.8,8.1,1.3,11.9c1.6,3,3.4,6,4.1,9.3c1.2,5.3,3.5,9.7,7.4,13.4c1.6,1.5,2.2,3.4,0.8,5.6
		c-0.6,0.9-0.7,2.7-0.2,3.5c0.7,0.9,2.3,1.6,3.4,1.6c2.1,0,4.1-0.8,6.1-1.1c2.2-0.3,2.9-1.4,2.3-3.5c-1.5-6-3.1-11.9-4.5-17.9
		c-2.1-9.2-3.9-18.5-6.1-27.8c-2.4-9.8-5.1-19.5-7.7-29.3C97.5,189.5,97,188.6,96.7,187.8z M31.6,47.2c0.6,1.4,1.1,2.8,1.8,4.1
		c2.6,5.8,5,11.8,9.7,16.4c2.8,2.8,5.1,3.5,8.6,2c0.9-0.4,1.7-1.2,2.6-1.6c5-2.6,6.9-6.3,5.4-11.9c-1.4-5.2-3-10.4-5.1-15.4
		c-3.4-8.1-7.3-10.6-14.4-10.2c-7.3,0.4-10.7,4.2-9.3,10.7c1.7,0,3.4,0,5.1,0c0,0.2,0,0.4,0,0.5c-1.7,0.9-3.4,1.8-5,2.6
		c0.1,0.2,0.3,0.5,0.4,0.7c1.6-0.3,3.2-0.6,4.8-0.8c0.1,0.3,0.2,0.6,0.3,0.9C34.9,45.8,33.5,46.4,31.6,47.2z M70.7,161.3
		c0.3,4.4,0.7,8.4,0.8,12.5c0.1,8.8,0.3,17.6-0.1,26.4c-0.2,5.1-1.3,10.2-2.1,15.3c-0.7,4-1.9,7.9-2.3,11.9
		c-0.8,6.9-1.1,13.9-1.8,20.9c-0.3,2.6-1.2,5.2-1.4,7.8c-0.6,5.2-0.9,10.4-1.3,15.9c4.1-1,7.4-1.9,11.1-2.8c-0.2-0.8-0.9-2.4-0.9-4
		c0.1-12.8,0.3-25.5,0.5-38.3c0-2.5-0.4-5.1,0.2-7.4c2.1-7.6,2.2-15.3,2.1-23.1c0-4.1,0.2-8.1,0.5-12.2c0.5-5.8,1.1-11.6,1.6-17.5
		c0.2-1.8,0-3.5,0-5.4C75.2,161.3,73.3,161.3,70.7,161.3z M66.8,342.9c0.3-0.1,0.6-0.2,0.9-0.3c-0.3-1.8-0.1-4.4-1.2-5.2
		c-3.3-2.3-5-5-4.8-9.1c0.1-2-0.1-4.2-0.8-6.1c-3.1-9.2-6.4-18.3-9.6-27.5c-0.5-1.6-1.1-3.1-1.6-4.7c-0.3,0-0.7-0.1-1-0.1
		c-2.7,8.7-5.4,17.4-8,26.1c-0.7,2.2-1,4.4,2.4,4.7c0.4,0,0.8,0.5,1.1,0.9c7,6.7,13.9,13.4,20.9,20
		C65.6,342.1,66.2,342.5,66.8,342.9z M62.8,316.6c0.3,0,0.6,0,0.9,0c0.9-2,2.2-4,2.6-6.2c1.9-11,3.6-22,5.3-33
		c0.4-2.9-0.2-3.4-3-2.9c-4.9,0.9-9.9,1.7-14.8,2.4c-3.3,0.5-3.7,1-2.7,4.3c3.2,10.7,6.4,21.4,9.7,32.1
		C61.1,314.5,62.1,315.5,62.8,316.6z M103.6,295c-0.3-3.6-0.5-7.5-0.9-11.3c-0.3-2.7-1-5.3-1.7-8c-0.2-0.7-1.2-1.7-1.8-1.6
		c-4.2,0.3-7,3.5-7.2,7.9c-0.2,6.6-0.2,13.2-0.7,19.8c-0.2,2.2-1.6,4.4-2.8,6.4c-0.9,1.6-2.5,2.8-3.6,4.3c-1.4,1.9-0.8,3.3,1.4,3.5
		c2.3,0.2,4.7,0.4,6.9,0c5.8-1,8.7-4.4,9.6-9.8C103.3,302.6,103.3,298.9,103.6,295z M14.3,265.7c0.4-4.2,0.5-8.1,1.2-11.9
		c2-11,4.2-21.9,6.4-32.9c1.2-6.2,2.5-12.4,3.7-18.6c0.4-1.9,0.6-3.7,1-5.6c-0.2,0-0.5-0.1-0.7-0.1c-0.3,0.9-0.7,1.7-1,2.6
		c-1.8,5.8-3.4,11.6-5.4,17.3c-4.7,13.6-9.5,27.2-14.2,40.8c-1.7,4.9-1.1,6,4,7.5C10.7,265.2,12.4,265.4,14.3,265.7z M83.6,274.2
		c-0.4-0.2-0.7-0.3-1.1-0.5c-0.8,1.1-2,2.2-2.4,3.5c-2.2,6.8-4.2,13.7-6.4,20.5c-1.7,5.5-1.3,11.6-5.3,16.4c-0.4,0.5,0.2,2.6,0.9,3
		c2,1.4,4.3,1.9,6.7,0.6c3.1-1.7,5-4.4,5.8-7.8c0.5-2.2,0.6-4.5,1-6.7C84.5,293.5,84.3,283.8,83.6,274.2z M86.2,409.2
		c5.4-1.7,10.7-3.1,15.8-4.8c2.2-0.7,4-2,3.8-4.9c-0.2-3-1.7-4.9-4.5-6c-0.7,1.6-1.3,3.2-2.2,5.4c-0.3-3.5,0.1-6.3-0.9-8.6
		c-1-2.2-3.3-3.7-5.1-5.7C88.8,390.2,85.3,402.5,86.2,409.2z M77.6,135.1c-0.1,0-0.3,0-0.4,0c-1.7,7.9-3.5,15.7-5.3,23.9
		c1.9-0.1,3.8-0.2,5.7-0.4C77.6,150.5,77.6,142.8,77.6,135.1z M60.3,65.4c-3.1,2.4-6,4.6-8.5,6.4c0.3,1.7,0.8,3.2,0.9,4.8
		c0.2,1.7,0,3.4,0,5.3C56.6,80.1,61.5,69.4,60.3,65.4z M85.5,67.6c-2.7-2.5-4.7-4.3-6.4-5.9c-1.3,3.7-2.7,7.4-4.3,11.7
		C78.4,71.6,81.6,69.8,85.5,67.6z M92.4,257c1.1,4.4,3.5,7,6,6.7C96.4,261.6,94.6,259.6,92.4,257z"/>
	<path class="st0" d="M52.7,59.3c-1.3,1.1-2.6,2.2-3.8,3.4c-2.8,2.7-6.8,1.9-8.2-1.7c-0.3-0.6,0.2-2.2,0.4-2.2
		c3.8-0.3,7.6-0.5,11.4-0.6C52.5,58.5,52.6,58.9,52.7,59.3z"/>
	<path class="st0" d="M39.7,43.5c1.4,2.6,1.1,5.2,0.2,7.8c-0.5,1.5-1.8,3.3,0.2,4.2c1.8,0.8,3.9,0.5,5.4-1.7c-0.4-0.4-0.8-0.6-1.1-1
		c-0.2-0.3-0.4-0.7-0.3-1c0.1-0.3,0.7-0.6,0.8-0.6c0.9,0.7,1.9,1.3,2.4,2.2c0.2,0.5-0.4,2-1,2.2c-1.9,0.8-3.9,1.5-5.9,1.7
		c-1.9,0.2-3.4-1.8-3-3.6C38.2,50.4,38.9,47,39.7,43.5z"/>
	<path class="st0" d="M51.8,42.3c-2.7,3.6-6.2,3.5-7.9,0.4C46.3,42.5,48.9,42.4,51.8,42.3z"/>
	<path class="st0" d="M50.8,39.7c-2.5-0.1-4.9-0.2-7.6-0.4C45,37.5,49,37.4,50.8,39.7z"/>
</g>
</svg>
