<?xml version="1.0" encoding="utf-8"?>
<!-- Generator: Adobe Illustrator 19.2.1, SVG Export Plug-In . SVG Version: 6.00 Build 0)  -->
<svg version="1.1" id="Layer_1" xmlns="http://www.w3.org/2000/svg" xmlns:xlink="http://www.w3.org/1999/xlink" x="0px" y="0px"
	 viewBox="0 0 200 205.6" style="enable-background:new 0 0 200 205.6;" xml:space="preserve">
<style type="text/css">
	.st0{fill:#E91E63;}
</style>
<g id="toenail-lady">
	<path class="st0" d="M170.5,136.8c3.7,2.7,5.1,7,7.2,10.7c2.3,4.3,5.5,7.8,9.1,11c2.4,2.1,4.2,4.6,4.5,8c0.5-0.1,1,0,1.5-0.2
		c1.9-0.7,3.9-0.7,5.9-0.6c0.5,0,1.2,0.5,1.3,0.8c0.1,0.7-0.6,0.9-1.3,0.9c-2.4,0.3-4.8,0.6-7.1,0.9c-0.4,0.1-0.8,0.3-1,0.5
		c-2.4,3-5.7,4.7-9.1,6.2c-5.1,2.2-10.5,3.3-15.9,4.5c-1.8,0.4-3.8,0.1-5.8,0.1c-0.4,0-0.8-0.3-1.2-0.6c-1.3-1.2-2.5-2.5-3.8-3.7
		c-0.5-0.5-1.2-0.5-2-0.2c-4.3,1.5-8.7,3-13.1,4.2c-3.5,1-7.2,0.9-10.8,0.8c-1.6,0-3.3,0.2-4.9,0.2c-1.4,0-2.3,0.6-3,1.8
		c-0.8,1.4-1.9,2.6-2.9,3.8c-1.6,1.8-3.7,2.6-5.9,3.2c-2.8,0.8-5.6,1.5-8.3,2.2c-0.4,0.1-0.8,0.1-1.2,0.3c-2,1.4-4.2,1.3-6.5,1.2
		c-3.1-0.1-5.9,1-8.8,1.8c-3.3,0.9-6.6,1.9-9.7,3.1c-1.4,0.6-2.5,2-3.7,3.1c-0.4,0.3-0.7,0.8-1,1.2c-1.6,2.1-3.9,2.4-6.2,2.7
		c-2.6,0.3-5.3,0.7-7.9,0.6c-3.5-0.1-7-0.8-10.4-1.2c-1.8-0.2-3.7-0.3-5.5-0.4c-1.7-0.1-3.3,0-5,0c-3.7-0.1-7.3-0.4-11-0.4
		c-2,0-3.9,0.3-5.9,0.4c-0.4,0-0.9-0.5-1.4-0.7c0.4-0.3,0.8-0.9,1.2-0.9c3.9-0.3,7.8-0.6,11.6-0.7c1.7-0.1,3.3,0.3,5,0.4
		c0.4,0,0.8,0,1.6,0c-0.8-0.7-1.4-1.2-1.9-1.6c-3.6-2.9-7.7-4.8-12.4-5.3c-5-0.5-9.8-1.8-13.8-5c-2.1-1.7-3.7-3.7-4.9-6.2
		c-1-2-2.3-3.7-3.6-5.5c-1.3-1.8-2.4-3.7-2.3-6c0-1.3,0.1-2.6,0-3.8c-0.1-1.9,0.8-3.4,2-4.7c1.7-1.7,5-1.1,6.2,1
		c0.4,0.6,1.2,1.2,1.8,1.4c2.3,0.6,4.8,0.8,7.1,1.5c2,0.6,3.9,1.8,6,2.5c2.9,1,5.3,2.8,7.8,4.5c0.4,0.3,1.2,0.4,1.8,0.3
		c5.9-0.1,11.8-0.2,17.7-0.2c1.6,0,3.2,0.3,4.9,0.4c-0.3-0.7-0.6-1.6-1.1-2.4c-1.3-2.3-1.4-4.3,1.2-6.1c-1.2-1.7-2.4-3.3-3.6-5
		c-0.3,0.2-0.6,0.4-0.8,0.5c-1.8,0.9-3.9,0.6-4.4-2c0-0.3-0.1-0.6-0.3-0.7c-2.9-2.4-3-2.8-1.6-5.7c-1.1,0.2-2.2,0.6-3.4,0.7
		c-1.2,0.1-1.9-0.7-2.2-2.3c-2.1-0.7-3.4-2.5-3.3-4.7c0.1-1.5,0.3-3,0.5-4.5c0.1-1.1-0.2-1.9-1-2.6c-1-0.9-1.2-2-0.7-3.2
		c1.1-2.9,2-5.8,3.1-8.7c3.3-8.2,6.8-16.3,9.8-24.6c2.2-6,5.7-11.1,9.8-15.9c0.9-1.1,1.4-2.5,2.2-3.7c1.9-2.6,3.7-5.3,5.9-7.7
		c2.1-2.4,4.7-4.4,6.9-6.6c2-2,3.9-4.2,5.7-6.4c3.6-4.3,6.8-8.9,11-12.7c2.5-2.2,5-4.6,7.7-6.6c1.2-0.9,3-1.3,4.6-1.4
		c2.6-0.2,5.2,0.1,7.7,0.2c0.7,0,1.6,0.8,2.1,0.5c0.5-0.3,0.6-1.3,0.8-2c1-3.6,1.8-7.3,3-10.9c2-5.8,4.7-11.1,9.4-15.2
		c3.9-3.4,7.7-7,11.8-10.2C139.4,2.9,143,1,147,0.2c2.1-0.4,4.2-0.2,6.4-0.1c1.2,0.1,2.5,0.4,3.7,0.6c1.8,0.4,3.2,1.4,4.3,2.9
		c0.4,0.6,0.5,1.5,0.7,2.4c0.1,0,0.4,0.1,0.7,0.1c1.2-0.2,2.3-0.4,3.6,0.2c2.3,1.2,4.3,2.6,5.3,5c1.3,3.3,2.5,6.6,3.4,10
		c1,3.5,0.8,7.1,0.8,10.7c0,1,0.2,1.9,0.2,2.9c0,1.8,0,3.7-0.1,5.5c-0.1,1-0.3,1.9-0.4,2.9c-0.3,3.7-0.6,7.5-0.7,11.2
		c0,2.2,0.5,4.4,0.7,6.6c0.1,1.7,0.2,3.4,0.2,5.1c0,1.6-0.2,3.1-0.2,4.7c0,2.6-0.4,5.1-1.8,7.5c-0.5,0.8-0.4,2.2-0.2,3.2
		c0.6,2.7,1.1,5.5,0.2,8.1c-0.7,2-1.9,3.9-3.1,5.8c-1.3,1.9-2.3,3.8-2.2,6.2c0.1,3.3-0.1,6.6,0.3,9.8c0.5,3.8-0.4,7.2-2,10.5
		c-1.4,3-1.9,6.1-1.8,9.4c0,0.5,0.4,1.3,0.9,1.5c2.4,1,4.9,2,7.4,2.7c2.6,0.7,5.2,1.1,7.9,1.5c2.7,0.4,5.3,0.7,8,0.9
		c1.1,0.1,2.2,0.1,3.3,0.1c0.5,0,1,0.1,1.4,0.3c0.3,0.2,0.6,0.7,0.6,1.1c0,0.2-0.6,0.6-1,0.6c-3.6-0.3-7.3-0.5-10.9-0.9
		c-2.8-0.3-5.6-0.8-8.4-1.3C173,137.6,171.8,137.2,170.5,136.8z M69.6,202c0.1-0.1,0.6-0.2,0.9-0.5c0.7-0.7,1.3-1.5,2-2.1
		c1.3-1.3,2.2-3,4.2-3.5c3.1-0.9,6.3-2,9.4-2.9c3.4-0.9,6.7-2.3,10.4-2.1c1.4,0.1,2.8-0.4,4.2-0.7c1.2-0.3,2.4-0.8,3.6-0.9
		c4-0.3,7.8-1.3,11.1-3.9c3.3-2.6,5.6-5.8,5.3-10.4c-0.1-1.4,0-2.7,0-4.1c0-0.7,0.1-1.5,1.1-1.5c0.9,0,0.9,0.8,0.9,1.4
		c-0.1,1.1-0.2,2.2-0.2,3.3c0,1,0.4,1.9,0.3,2.9c-0.1,1.3,0.6,1.6,1.6,1.5c1.3-0.1,2.6-0.1,3.9-0.2c4-0.3,8.1-0.4,12.1-1.1
		c3-0.5,5.8-1.8,8.7-2.7c0.8-0.3,1.7-0.4,3-0.7c-1-0.9-1.6-1.7-2.4-2.1c-2.6-1.3-4.9-2.8-7-4.8c-2.7-2.7-6.1-4.5-9.8-5.6
		c-4.3-1.3-8.2-3.4-11.5-6.4c-0.9-0.8-1.8-1.6-2.7-2.4c-0.9,0.6-1.6,1-2.4,1.6c-1.2,0.9-2.3,2-3.6,2.9c-1.8,1.2-3.7,2.2-5.5,3.4
		c-1.5,1-3.1,1.9-5,2.2c-0.8,0.1-1.5,0.5-2.2,0.9c-3.5,2.5-7.2,4.6-11.2,6.3c-1.9,0.8-3.7,1.6-5.6,2.3c-1.2,0.5-2.6,0.7-3.9,1
		c-0.9,0.2-2,0.1-2.9,0.4c-3.7,1.2-7.5,2.5-11.2,3.8c-1.7,0.6-3.4,0.5-5,0.8c-1.7,0.3-3.3,0.6-4.9-0.3c0,0-0.1,0.1-0.1,0
		c0.7,1.5,1.5,2.9,2.1,4.4c0.2,0.4,0,1.3-0.3,1.4c-0.8,0.4-1-0.4-1.2-0.9c-0.6-1.2-1.1-2.6-1.8-3.7c-0.9-1.4-2.2-2.3-4.2-2.3
		c-5.4,0.2-10.8,0.2-16.1,0.3c-0.2,0-0.3,0.1-0.6,0.1c0.5,0.6,1.1,1.2,1.5,1.8c0.2,0.4,0,0.9,0.1,1.4c-0.4-0.1-0.9-0.2-1.1-0.5
		c-1.4-1.9-3.1-3.4-5.1-4.6c-1.5-0.8-2.8-1.9-4.3-3.1c-1.1,1.7-2.1,3.2-3,4.7c-0.2,0.3,0,1,0.3,1.2c1.7,1.3,3.6,2.4,5.8,0.8
		c0.1-0.1,0.2-0.2,0.3-0.1c0.4,0.1,1,0.2,1.1,0.5c0.1,0.3-0.1,0.9-0.3,1.1c-1.4,1.3-4.1,1.7-5.6,0.6c-3-2.2-6.4-3.3-9.9-4.4
		c-0.5-0.2-1.4-0.1-1.8,0.2c-0.6,0.6-1,1.4-1.4,2.3c-0.3,0.7-0.8,1-1.4,0.8c-0.8-0.3-0.7-0.9-0.4-1.5c0.4-0.7,0.8-1.4,1.2-2.1
		c-5-4.3-5.5-6.5-3.7-11.5c-1.8-0.2-3.2,0.9-3.4,2.8c-0.2,2-0.1,4,0,6c0.1,0.8,0.5,1.6,1,2.2c0.2,0.2,1-0.2,1.6-0.2
		c0.3,0,0.7,0.3,1,0.4c-0.1,0.3-0.2,0.6-0.4,0.8c-0.3,0.2-0.6,0.3-0.8,0.4c1.4,2.5,2.7,5,4.2,7.3c2,3.2,4.9,5.3,8.3,6.6
		c2.8,1.1,5.7,1.4,8.7,1.8c3.6,0.5,7.1,1.4,10,3.8c1.8,1.5,3.7,2.9,5.6,4.3c0.3,0.2,0.6,0.4,1,0.5c1.4,0.4,2.6,0,4-0.3
		c3.2-0.7,6.1-1.7,8.1-4.5c0.2-0.2,0.8-0.2,1.2-0.3c0,0.4,0.2,0.9,0,1.1c-0.8,1-1.5,2-2.5,2.8c-0.9,0.8-2,1.2-3.1,1.9
		c5.7,1.4,11.4,1.1,17,0.3c0.3-2-0.3-3.6-1.1-5.1c-0.2-0.4,0.1-1,0.1-1.5c0.5,0.2,1.2,0.3,1.3,0.7C68.2,198.4,68.8,200.1,69.6,202z
		 M62.7,174.1c1.2-1.8,2.5-3.7,3.7-5.5c0.8-1.2,1.7-2.5,2.5-3.7c0.8-1.1,1.5-2.3,2.4-3.3c0.3-0.3,1.1-0.1,1.7-0.2
		c-0.1,0.5-0.2,1.1-0.5,1.6c-0.6,1-1.4,1.9-2.1,2.9c-0.8,1.1-1.5,2.3-2.3,3.5c-1.4,2.2-2.9,4.4-4.3,6.6c0.1,0.1,0.2,0.1,0.3,0.2
		c1.3-0.4,2.5-0.8,3.4-1.2c0.2-0.9,0.2-1.6,0.6-2.1c1.5-2.3,3-4.6,4.8-6.6c1.1-1.3,2.8-2,4.3-2.9c0.3-0.2,0.8,0.1,1.2,0.2
		c-0.2,0.3-0.3,0.8-0.6,1c-4.2,2.1-6.2,6-8.6,9.6c0.1,0.1,0.1,0.2,0.2,0.3c1.8-0.7,3.5-1.3,5.3-2c-0.1-0.1-0.2-0.2-0.3-0.3
		c0.4-0.6,0.7-1.1,1.1-1.7c0.4-0.4,0.8-0.8,1.2-1.2c2.4-2.6,5-4.9,8.4-6.3c0.5-0.2,1-0.1,1.5-0.1c0.1,0.2,0.1,0.4,0.2,0.5
		c-3.5,2.2-7,4.4-9.7,7.9c2,0.5,3.7,0.3,5.4-0.5c1.6-0.8,3.3-1.5,4.9-2.3c2.8-1.3,5.7-2.6,8.4-4.1c1.6-0.9,3.3-2,4.2-3.4
		c1.1-1.9,2.3-3.3,4-4.6c3.5-2.7,6.8-5.6,10.3-8.3c4.9-3.9,9.8-7.6,14.7-11.5c2.1-1.7,4-3.6,5.4-6c0.5-0.9,1.5-1.8,2.4-2.3
		c1.7-0.8,2.3-1.4,2.3-3.4c0-1.1-0.2-2.2-0.2-3.3c0-0.4,0.4-0.8,0.6-1.2c0.3,0.3,0.8,0.6,0.9,1c0.3,1.8,0.4,3.6,0.6,5.4
		c0.3-0.2,0.8-0.4,1.2-0.8c2-2,4.2-4,5.9-6.2c3.5-4.6,8.3-7.9,12.4-11.9c1.7-1.7,3.2-3.4,4.4-5.5c1.4-2.6,3-5.1,4.6-7.6
		c2-3.1,3.6-6.3,3.2-10.1c-0.1-0.4-0.2-0.9-0.4-1.6c-0.7,0.6-1.2,1-1.8,1.3c-0.8,0.5-1.5,1.2-2.3,1.4c-2.2,0.4-4.5,0.5-6.7,0.9
		c-1.3,0.3-2.6,0.8-3.9,1.4c-1.5,0.7-2.9,1.4-4.4,2.1c-0.3,0.2-0.7,0.3-1,0.5c-1.9,1.1-3.7,2.2-5.6,3.2c-1.3,0.7-2.6,1.3-3.3,2.8
		c-0.3,0.6-0.9,1.2-1.4,1.7c-2.2,2.4-4.5,4.8-6.7,7.2c-1.2,1.3-2.3,2.8-3.6,4.4c0.6-0.1,0.9-0.2,1.1-0.2c1.9-0.1,3.8-0.6,5.4,0.6
		c0.3,0.2,0.4,0.7,0.7,1c-0.4,0.1-1,0.5-1.3,0.3c-1.6-1-3.3-0.8-4.9-0.4c-2.2,0.5-4.3,1-5.9,2.8c-2,2.2-3.9,4.6-6.2,6.4
		c-3.9,3.1-7,6.9-10,10.8c-1.1,1.4-2,3-3.4,4c-3.4,2.5-6.9,4.8-10.4,7c-4.4,2.7-8.9,5.1-13.3,7.7c-2.3,1.4-4.5,2.9-6.8,4.3
		c-0.3,0.2-0.7,0.2-1,0.3c-0.3,0.1-0.6,0-0.9,0.2c-1.1,0.7-2.1,1.5-3.2,2.3c-4.1,3-7.1,6.9-9.3,11.4c-0.6,1.2-1.4,2.4-1.9,3.3
		C61,172.6,61.9,173.4,62.7,174.1z M102.2,75.6c0.2-0.7,0.4-1,0.4-1.3c0.4-3.7,1.8-7.1,3.2-10.5c1.5-3.6,3.2-7.1,4.3-10.7
		c0.7-2.3,0.6-4.9,0.9-7.6c-1.9-0.2-3.6-0.3-5.4-0.5c-0.7-0.1-1.4-0.1-2.1-0.1c-2.7-0.2-5.1,0.2-7.2,2c-1,0.9-2,2-3.1,2.8
		c-5.4,4.4-9.6,10-14,15.3c-2.7,3.3-5.7,6.4-8.8,9.3c-3.6,3.3-6.8,6.9-9.4,11c-1.7,2.6-3.6,5.1-5.3,7.6c-1.5,2.2-3.3,4.4-4.5,6.8
		c-1.8,3.8-3.2,7.8-4.8,11.7c-2.4,6-4.8,12.1-7.1,18.1c-1,2.7-2,5.4-2.9,8.1c-0.2,0.5-0.1,1.3,0.2,1.6c1.4,1.4,1.3,3.1,1.1,4.8
		c-0.1,1.2-0.3,2.4-0.4,3.6c0,1.4,0.6,2.4,2,3.1c0.4-0.6,1-1.1,1-1.7c0.1-1.4-0.1-2.8,0-4.2c0.1-1.6,0.4-3.2,1.5-4.6
		c0.4-0.5,0.8-0.9,1.1-1.4c0.4-0.6,0.7-1.5,1.5-1.1c0.5,0.2,0.9,1,1,1.6c0.6,2.7,0.5,5.3-1.1,7.6c-0.1,0.2-0.2,0.4-0.3,0.7
		c0.1-0.1,0.3-0.2,0.4-0.3c0.4,0.6,0.9,1.2,1.3,1.8c0.2-0.7,0.4-1.4,0.7-2.1c1.2-2.6,3.2-4.9,3.2-8.1c0-0.2,0.4-0.5,0.6-0.5
		c0.2,0,0.6,0.3,0.6,0.5c0.1,0.5,0.2,1.2,0.1,1.7c-0.7,1.8-1.5,3.5-2.1,5.3c-0.5,1.3-1,2.6-1.4,4c-0.6,1.8-0.4,3.7-1.7,5.3
		c-1,1.2-0.7,1.9,0.9,2.5c0.9-1.3,1.8-2.5,2.7-3.8c1.6-2.5,3-5,3.6-8c0.3-1.4,1.4-2.7,2.3-4c0.2-0.2,0.8-0.1,1.3-0.2
		c0,0.4,0.1,0.9,0,1.3c-0.1,0.3-0.4,0.5-0.6,0.8c-0.6,1.3-1.5,2.6-1.7,4c-0.3,1.9-1.2,3.5-2.2,5.1c-0.6,0.9-1.1,1.9-1.6,2.7
		c0.8,0.6,1.5,1.2,2.2,1.8c0.8-0.9,1.6-1.8,2.3-2.8c2.2-2.9,2.8-6.5,3.9-9.8c0.4-1.2,0.2-2.6,0.4-3.9c0.1-1.2-0.6-1.8-1.6-2.1
		c-1.3-0.4-2.2-1.2-2.4-2.6c-0.1-1-0.7-1.6-1.8-1.6c-1,0-1.4-0.6-1.4-1.6c0.1-1.8,0.5-3.6,1.5-5.2c1.8-3,3.7-5.9,5.2-9
		c2.5-5.2,5.6-9.9,9.6-14c1.4-1.5,2.8-3,3.9-4.7c1.6-2.3,2.2-1.9-0.8-4c-0.6-0.4-1.3-0.8-0.7-1.5c0.3-0.3,1.3-0.3,1.8-0.1
		c0.9,0.4,1.6,1.1,2.4,1.6c1.2-1.8,2.3-3.5,3.4-5.2c0.3-0.5,0.8-0.9,1.2-1.4c1.3-1.9,2.4-3.9,3.8-5.6c2-2.4,4.4-4.6,6.6-6.8
		c0.2-0.2,0.4-0.4,0.6-0.7c2.2-2.5,4.4-4.9,6.7-7.3c0.9-1,1.6-0.8,2.3,0.4c0.3,0.5,0.5,1,0.8,1.5C101,72.5,101.5,73.9,102.2,75.6z
		 M151.4,49.6c0.1,0.1,0.2,0.1,0.2,0.2c-0.2,0.6-0.5,1.2-0.7,1.8c-0.1,0.3-0.1,0.8,0.1,1.1c0.1,0.2,0.7,0.2,1,0.1
		c1.5-0.9,3.2-1.6,4.4-2.8c1.1-1.1,1.6-2.7,2.3-4.1c0.1-0.3-0.1-0.9-0.4-1.1c-0.2-0.1-0.7,0.1-1.1,0.3c-0.4,0.2-0.7,0.6-1.1,0.8
		c-0.2,0.1-0.4,0.1-0.6,0.2c0-0.2-0.1-0.6,0-0.7c0.8-0.9,1.6-1.7,2.3-2.7c0.9-1.2,1.9-2.4,2.3-3.7c0.8-3.4,0.6-6.7-1.4-9.8
		c-0.8-1.2-1.4-2.7-2.4-3.8c-1.1-1.4-0.9-2.5,0-3.9c1.6-2.5,3-5.1,3.5-8.1c0.1-0.6,0.3-1.3-0.5-1.4c-0.4,0-0.9,0.5-1.1,0.9
		c-0.9,1.9-1.7,3.8-2.6,5.7c-0.5,1.1-1.3,2.1-1.8,3.2c-0.4,0.9-0.9,1.1-1.8,0.8c-2.1-0.6-3.4-2.1-4.3-3.9c-0.8-1.4-1.5-3.1-3.1-3.3
		c-2.3-0.3-4.8-0.7-7,0.7c-2.1,1.4-4.2,3-6,4.8c-2.6,2.4-5.3,4.9-7.5,7.6c-3.1,3.9-4.5,8.6-5.2,13.5c-0.5,3.6-0.5,7.4-0.5,11
		c0,2.9,2.6,5.8,5.3,6.7c3,1,5.8,0.4,8.7-0.3c4.3-0.9,8.3-2.7,12-4.8c2.3-1.3,4.8-2.4,6.4-4.7C150.8,49.9,151.1,49.7,151.4,49.6z
		 M123.9,114c2.5-2.5,5.3-5.2,8-7.9c1.4-1.4,2.5-3.1,3.9-4.5c1.5-1.6,3.2-3.1,4.8-4.6c0.6-0.6,0.7-1.2,0.3-2.1
		c-0.2-0.5-0.4-1.3-0.1-1.8c0.4-0.8,1-1.5,1.7-2.1c2.9-2.9,3.8-5.1,2.1-8.5c-0.8-1.7-1.4-3.4-2.1-5.1c-0.3-0.7-0.7-0.9-1.2-0.3
		c-0.3,0.4-0.6,0.8-0.8,1.2c-0.6,1.4-1.2,2.8-1.7,4.2c-1.6,4.5-3.5,8.7-7.3,11.8c-2.4,2-4.9,3.7-8.1,3.4c-1.9-0.2-3.8-0.9-5.6-1.4
		c-3.8-1.1-7.9-6.3-7.3-9.6c0.2-1.2,0.1-2.4,0.3-3.7c0.3-2.3,0.7-4.6,1.1-6.9c0.2-1.1,0.4-2.3,0.3-3.4c-0.1-2.5-0.5-4.9-0.7-7.4
		c-0.2-2.5-0.5-5-0.7-7.5c-0.2,0.1-0.4,0.2-0.4,0.2c-1.8,5-4.3,9.7-5.4,15c-0.5,2.2-1.6,4.2-2.3,6.3c-1,3.1-1.8,6.3-2.7,9.4
		c-0.1,0.4-0.2,1,0,1.3c0.7,1,1.5,2,2.4,2.8c2.1,1.8,4.5,3.4,6.5,5.4c2.8,2.7,5.2,5.7,7.9,8.6C118.9,109.1,121.3,111.4,123.9,114z
		 M115.7,84.4c-0.1,0-0.3,0-0.4,0c-0.3-0.8-0.6-1.6-0.7-2.4c-0.2-1.1-0.3-2.2-0.6-3.4c-0.1-0.3-0.4-0.5-0.6-0.8
		c-0.2,0.2-0.5,0.4-0.6,0.7c-0.1,0.3-0.2,0.6-0.2,1c-0.1,1.6-0.1,3.1-0.2,4.7c-0.1,1.9-0.1,3.8,1,5.5c1.9,3,4.2,5.2,8,5.5
		c2.1,0.2,4,0.4,6-0.7c2.7-1.5,5-3.5,6.4-6.2c2.6-5,5.2-9.9,6.5-15.4c0.5-2,1.2-3.9,1.7-5.9c0.7-2.8,1.3-5.6,1.9-8.4
		c0.1-0.3,0-0.9-0.2-1c-0.3-0.1-0.8-0.1-1.1,0.1c-5.5,2.4-11,4.6-17.2,4.1c-0.1,0-0.1,0.1-0.2,0.2c0.1,0.3,0.3,0.6,0.5,0.8
		c1.9,2.3,1.6,5,1,7.6c-0.7,3.1-2.9,5.1-5.3,6.9c-2.1,1.6-3.7,3.5-4.7,6C116.3,83.8,115.9,84.1,115.7,84.4z M70.8,106.1
		c-0.2-0.1-0.4-0.3-0.6-0.4c-0.8,0.9-1.7,1.8-2.4,2.8c-1.9,2.7-3.7,5.4-5.5,8.2c-1.4,2.4-2.7,4.8-4,7.3c-1.5,2.9-3,5.8-4.7,9.1
		c2.9-0.4,3.2,1.5,3.8,3.3c0.6-1.5,1.1-2.7,1.7-3.9c3.5-7.4,7.1-14.8,10.5-22.3C70.2,109,70.4,107.5,70.8,106.1z M98,87.5
		c0.2-0.4,0.3-0.5,0.3-0.6c0.1-0.2,0.1-0.4,0.2-0.6c1.1-2.3,1.4-4.6,0-7c-1.1-1.9-2-3.8-3.1-5.9c-2.7,3-5.1,5.8-7.6,8.6
		C91.2,83.7,95.3,84.1,98,87.5z M174.1,145.5c-0.9,0.1-1.8,0.2-2.6,0.2c-1.8,0-3.6-0.1-5.4-0.2c-0.7,0-1.4-0.1-2.1-0.3
		c-2.3-0.7-4.7-1.3-6.9-2.1c-3.4-1.3-6.7-2.7-10.1-4c-0.4-0.2-1.1,0.2-1.7,0.4c0.1,0.5,0.1,1.1,0.4,1.4c0.5,0.5,1.1,1,1.8,1.2
		c2.3,1,4.7,1.9,7.1,2.8c5.8,2.1,11.7,3.5,17.9,3.2C174.4,147.9,174.9,147,174.1,145.5z M96.1,108c0.1,0.6,0.2,1.2,0.3,1.8
		c0.6,3,1.3,6.1,1.9,9.1c0.8,3.9,1.4,7.8,2.2,11.7c0.3,1.2,0.8,2.4,1.2,3.6c0.3,0.8,1,1.3,1.7,1c0.3-0.1,0.4-1.1,0.5-1.6
		c0-0.3-0.2-0.5-0.2-0.8c-0.7-2.6-1.6-5.1-2.1-7.7c-0.6-2.8-0.8-5.8-1.3-8.6c-0.6-3.2-1.4-6.4-2.2-9.5c-0.1-0.3-0.5-0.7-0.8-0.7
		c-0.3,0-0.7,0.3-0.9,0.6C96.1,107.2,96.1,107.6,96.1,108z M61.5,155.4c-0.4,3.3-0.8,6.6-1.2,9.9c0,0.3,0.2,0.6,0.3,1
		c2.2-2.9,4.2-5.6,6.3-8.4C65.1,157.1,63.2,156.2,61.5,155.4z M58.7,153c-1.6,2.2-3.1,4.1-4.5,6c1.4,1.9,2.8,3.8,4.1,5.7
		c0.5-3.4,0.7-6.7,0.9-10C59.3,154.1,58.9,153.5,58.7,153z M158.3,122.1c0.2-0.1,0.6-0.3,0.9-0.6c0.7-0.8,1.2-1.7,1.9-2.6
		c1.8-2.4,3.5-4.7,5.3-7.1c0.4-0.5,0.8-1.3-0.1-1.7c-0.3-0.1-1.1,0.3-1.4,0.7c-1.1,1.3-2.1,2.6-3.1,4c-1.4,1.9-2.9,3.8-4.3,5.7
		C156.9,121.2,157.2,122,158.3,122.1z M16.5,176.1c0.8,0.3,1.5,0.5,2.3,0.7c0.2,0,0.6-0.1,0.7-0.3c1-1.5,1.9-3,2.9-4.6
		c-0.9-1.7-3-0.9-4.4-1.8C16.2,171.9,16.8,174.1,16.5,176.1z M11.2,175c-1.8-1.9-1.3-3.9-0.6-6c0,0,0-0.1,0-0.1
		c-0.2-0.3-0.3-0.7-0.6-0.9c-0.8-0.5-1.6-0.9-2.4-1.2c-0.4-0.1-1.2,0.1-1.2,0.1c-0.1,1.3-0.3,2.6,0.1,3.8
		C7.1,172.9,9.1,174,11.2,175z M16.7,169.3c-1.6-0.2-2.9-0.4-4.3-0.5c-0.1,0-0.4,0.2-0.5,0.3c-0.2,1.4-1.1,2.9,0.1,4.3
		c0.3,0.3,0.6,0.7,0.8,1.1c0.4,0.8,1.1,1.1,1.8,1.1C15.3,173.4,14.9,171.1,16.7,169.3z M60.2,168.1c-1.9-1.1-2.9-0.8-4.5,1.1
		c-0.6,0.7-0.1,2.8,1.2,4.4C58,171.8,59.1,170,60.2,168.1z M44.3,140.4c-1.8,0.5-1.5,2.1-2,3.2c-0.7,1.5-0.6,1.5,0.1,3.8
		C43.7,145.3,44.9,143.2,44.3,140.4z M98,70.8c-1.1,0.7-1.5,1.3-0.8,2.4c0.5,0.8,0.8,1.7,1.2,2.5c0.2,0.4,0.7,0.6,1.1,0.9
		c0.1-0.5,0.3-1,0.1-1.5c-0.3-1.1-0.6-2.2-1-3.3C98.6,71.4,98.2,71.1,98,70.8z M52.1,158.7c-0.8-0.5-1.5-1.2-2.2-1.2
		c-0.5,0-1.1,1.1-1.4,1.8c-0.1,0.4,0.3,1.4,0.6,1.5C50.5,161.1,51.1,159.9,52.1,158.7z M61.3,175.8c-0.8-2-1.6-2.7-2.3-2.1
		c-0.5,0.4-0.7,1.4-0.7,2C58.4,176.5,59.7,176.5,61.3,175.8z M43.9,152.6c-0.7-1-1.1-1.6-1.6-2.3c-1.1,0.7-1.7,2.1-1.2,2.4
		C41.8,153,42.8,152.7,43.9,152.6z"/>
	<path class="st0" d="M123,44.9c0.5,0.5,0.8,0.8,1.1,1.1c0.6,0.6,1.2,1.3,1.8,1.9c0.8,0.8,1.6,1.5,2.5,2.2c0.2,0.2,0.5,0.3,0.7,0.5
		c0.8,0.7,1.7,1.3,2.5,2c0.6,0.5,1.1,1.1,1.6,1.6c0.2,0.2,0.5,0.5,0.5,0.7c0,0.3-0.4,0.5-0.6,0.7c-0.4,0.2-0.8,0.2-1.2,0.3
		c-2.3,0.2-4.7,0.1-6.8-1.1c-1.8-1.1-2.9-3-2.5-5.8C122.8,47.8,122.9,46.6,123,44.9z M131.9,55c0-0.1,0.1-0.2,0.1-0.3
		c-0.2-0.2-0.5-0.4-0.7-0.5c-0.9-0.2-1.8-0.2-2.7-0.6c-2.4-1-4.1-2.6-4.3-5.4c0-0.4-0.3-0.7-0.6-1.3c-0.2,1.1-0.3,1.9-0.4,2.7
		c-0.2,1.7,1.1,4.1,2.6,4.7C127.9,55,129.9,55.1,131.9,55z M125.3,48.7c0.3,2.3,2.9,4.4,5.8,4.4C129,51.5,127.2,50.1,125.3,48.7
		C125.4,48.6,125.3,48.7,125.3,48.7z"/>
	<path class="st0" d="M144.7,38.9c3.2-0.1,5.5,1.5,7.7,3c0.4,0.3,0.9,0.6,1.2,1c0.2,0.3,0.3,0.7,0.5,1c-0.4,0-0.9,0.2-1.2,0
		c-1.1-0.6-2.2-1.5-3.3-2c-1.6-0.8-3.4-1.3-5-2c-0.2-0.1-0.3-0.4-0.5-0.5C144.4,39.2,144.6,39,144.7,38.9z"/>
	<path class="st0" d="M131.3,41.7c-1.6,0.9-1.7,1.1-1.3,2.8c0.2,0.9,0.2,1.9,0.6,2.7c0.3,0.6,1,1.3,1.6,1.3c1.1,0.1,2.3-0.1,3.3-0.2
		c0.2-0.6,0.3-1.2,0.5-1.7c0.2,0,0.4,0,0.6,0.1c0,0.7,0.2,1.4-0.1,2c-0.2,0.4-0.9,0.6-1.4,0.7c-0.8,0.2-1.5,0.1-2.3,0.2
		c-1.6,0.2-2.9-0.9-3.1-2.5c-0.2-1.4-0.6-2.8-0.6-4.2c0-0.4,0.6-1,1-1.3C130.4,41.4,130.9,41.6,131.3,41.7z"/>
	<path class="st0" d="M141.3,41.2c1.2,1,2.5,1.8,3.5,2.9c1.2,1.2,2.4,1.5,4,1.2c0.4-0.1,0.9,0.1,1.3,0.2c-0.4,0.3-0.7,0.7-1.1,0.9
		c-1.9,0.7-3.5,0.3-4.8-1.4c-0.7-1-1.7-1.7-2.5-2.7C141.4,42,141.4,41.5,141.3,41.2z"/>
	<path class="st0" d="M130.5,25c0.6,0.2,0.7,0.2,0.8,0.3c2,2,4.2,3.9,5.4,6.6c0.1,0.3,0.1,0.6,0.1,1c-0.3-0.1-0.7-0.1-1-0.3
		c-0.3-0.2-0.4-0.5-0.6-0.7c-1.3-1.8-2.7-3.6-4-5.4C130.9,26.1,130.8,25.7,130.5,25z"/>
	<path class="st0" d="M129.5,29.1c0.2,0.7,0.3,1.4,0.5,2.1c0.3,1.7,1.3,2.7,2.9,3.3c0.7,0.3,1.4,0.7,2.1,1.1
		c0.1,0.1,0.2,0.5,0.1,0.6c-0.1,0.1-0.5,0.3-0.6,0.2c-1.6-1.1-3.7-1.3-4.9-3.1c-0.9-1.4-0.5-2.8-0.8-4.2
		C129.1,29.2,129.3,29.1,129.5,29.1z"/>
</g>
</svg>
