<?xml version="1.0" encoding="utf-8"?>
<!-- Generator: Adobe Illustrator 19.2.1, SVG Export Plug-In . SVG Version: 6.00 Build 0)  -->
<svg version="1.1" id="Layer_1" xmlns="http://www.w3.org/2000/svg" xmlns:xlink="http://www.w3.org/1999/xlink" x="0px" y="0px"
	 viewBox="0 0 150.8 200" style="enable-background:new 0 0 150.8 200;" xml:space="preserve">
<style type="text/css">
	.st0{fill:#388E3C;}
</style>
<g id="cold-child-main">
	<path class="st0" d="M27,200c-0.1-1.6-0.2-3.2-0.3-4.8c-0.1-0.8-0.1-1.6-0.2-2.5c-0.5,0.1-1.1,0.2-1.6,0.3
		c-0.4,0.1-0.8,0.2-1.2,0.2c-1.8,0.3-3.2-0.5-4.4-1.7c-2.1-1.9-3.7-4.2-4.9-6.7c-1.2-2.6-2.4-5.3-3.5-8c-0.4-1.1-0.5-2.3-0.7-3.5
		c-0.1-0.6,0-1.2,0-1.8c-1.2-0.2-2.3-0.4-3.4-0.6c-1.1-0.2-1.9-1-2.5-1.9c-1.4-2-1.5-4.1-0.6-6.5c1-2.5,1.9-5,2.6-7.5
		c1.1-3.8,2-7.7,3-11.5c0.4-1.5,0.7-3.1,1.1-4.6c0.2-0.9,0.5-1.7,0.8-2.5c0.8-2.3,1.6-4.5,2.3-6.8c0.6-1.9,1-3.8,1.6-5.6
		c0.6-1.8,1.4-3.6,2-5.4c0.5-1.5,0.9-3.1,1.5-4.6c0.4-0.9,1-1.8,1.6-2.6c2.1-2.6,5-4.2,8.2-5c2.3-0.6,4.7-1.1,7-1.3
		c1.6-0.1,3.2,0.5,4.8,0.8c1.4,0.3,1.4,0.3,1.9-1.1c0.2-0.5,0.4-1,0.7-1.4c1.4-1.7,2.7-3.4,4.2-4.9c1.8-1.9,3.9-3.6,5.8-5.5
		c-0.5-1.4-1.1-2.9-1.8-4.4c-1.8,0.3-3.4-0.2-5-1c-0.9-0.5-1.9-1.1-2.6-1.8c-1.6-1.8-3.1-3.7-4.5-5.7c-0.8-1.1-1.2-2.4-1.9-3.6
		c-1.1-1.7-2.4-3.4-3.4-5.1c-1.1-1.9-1.9-3.9-1.5-6.2c0.3-1.8,3.1-3.9,5.3-3c0.4,0.1,0.7,0.2,1.3,0.4c-0.9-2.3-1.7-4.5-2.6-6.7
		c-0.7-1.6-1.7-3.1-2.2-4.7c-0.9-2.8-1.2-5.8-1-8.8c0.2-2.7,0.3-5.5-0.9-8.1c-0.3-0.7-0.3-1.5-0.5-2.4c-0.2,0-0.4,0-0.6,0.1
		c-1.3,0.3-2.5,0-3.5-0.9c-0.3-0.3-0.8-0.5-1.2-0.5c-3.2-0.3-5.5,1.3-7.3,3.7c-1.6,2-2.7,4.3-3,6.8c-0.3,1.9-0.3,3.9,0,5.8
		c0.4,2.7,1.2,5.2,1.7,7.9c0.6,2.9-0.1,5.6-2.1,7.8c-1.5,1.6-2.9,3.4-4.4,5.1c-0.6,0.6-1.3,1.2-2,1.7c-0.8,0.5-1.6,1-2,1.9
		c-0.1,0.2-0.4,0.5-0.6,0.6c-1,0.6-1.6,0.4-1.8-0.6c-0.1-0.5-0.2-1.1-0.3-1.6c-0.1-0.9-0.3-1.8-0.4-2.7c-0.1-1-0.1-2.1-0.3-3.1
		C3.5,61.3,3,59,2.5,56.8C1.7,53.9,0.7,51,0.2,48c-0.4-2.2,0-4.4,0-6.7c0.1-2.2,1.4-3.9,2.6-5.6c1.3-2,2.6-4,4.3-5.7
		c2.5-2.6,5.5-4.5,9.1-5.2c1.2-0.2,2.4-0.5,3.6-0.7c1.8-0.2,3.6,0.2,5.3,0.7c0.5,0.1,0.9,0.2,1.4,0.3c0.2,0,0.5,0,0.6-0.1
		c0.6-1,1.8-1.1,2.8-1.2c1.1-0.2,2.2,0,3.3-0.1c0.3,0,0.7-0.2,0.8-0.4c1-1.7,2-3.4,3-5c1.4-2.2,2.7-4.4,4.3-6.4
		c1.2-1.5,2.8-2.7,4.2-4.1c0.9-0.9,1.9-1.8,2.9-2.6c1.5-1.1,3.1-1.9,5-2.1c2.1-0.3,4.1-0.8,6.2-1.2c2.6-0.4,5.1-0.8,7.7-1.2
		c2.5-0.3,5.1-0.7,7.6-0.8C76.6,0,78.3-0.1,80,0.5c2.4,0.8,4.9,1.2,7.4,1.8c2.8,0.6,5.1,2,7.1,3.9c2.4,2.3,5,4.4,7.2,6.8
		c1.5,1.6,2.7,3.6,3.9,5.5c1.3,2.2,2.3,4.5,3.4,6.8c0.2,0.4,0.5,0.7,1.1,0.4c1.1-0.7,2.3-0.4,3.5-0.4c0.3,0,0.6,0.3,0.8,0.5
		c0.6,0.6,1.4,1,2.3,1c4.7,0.1,8.3,2.4,11.2,6c2.2,2.7,3,5.9,4,9.1c0.7,2.3,1.2,4.6,1,7.1c-0.2,2.3-0.8,4.6-2.1,6.6
		c-0.5,0.7-1.3,1.4-0.8,2.5c0,0.1-0.4,0.6-0.6,0.5c-0.4-0.1-1-0.2-1.3-0.5c-1.6-1.4-2.7-3.1-3.4-5.2c-0.6-1.7-0.6-3.5-1-5.2
		c-0.6-2.9-1-5.9-3.4-8c-1.4-1.2-3.1-2.2-4.7-3.1c-0.6-0.3-1.5-0.2-2.4-0.3c2.1,4.5,1,8.8-0.6,13.1c0.7,0,1.3,0,1.9,0.1
		c1.3,0.4,1.9,1.5,2,3c0.3,4.1-0.5,8.1-1.7,12.1c-0.3,1.2-0.6,2.3-1.4,3.3c-0.6,0.8-0.3,2.1-1.4,2.7c-0.2,0.1,0,0.8,0,1.1
		c0.1,1.1,0.2,2.2,0.3,3.4c0.1,2.2,0.2,4.5,0.2,6.7c0,0.6-0.2,1.2-0.2,1.4c0.6,0.8,1.2,1.7,1.9,2.5c1.1,1.2,1.6,2.6,2.1,4.1
		c0.7,2,1.5,4,2,6.1c0.6,2.3,0.9,4.7,1.4,7.1c2.2,0.1,4.5,0.4,6.5,1.3c3.7,1.7,7.4,3.4,10.4,6.3c0.7,0.7,1.6,1.3,2.4,1.9
		c1.6,1.4,2.4,3.3,3.3,5.1c2,3.8,3,7.9,4.1,12c0.8,2.9,1.5,5.8,2.2,8.7c0.6,2.6,1.3,5.3,1.3,8.1c0,1.3,0.5,2.6,0.8,3.9
		c0,2.3,0,4.7,0,7c-0.1-0.1-0.1-0.2-0.2-0.3c-0.3-1.9-0.7-3.8-1-5.7c-0.3-1.5-0.7-2.9-0.8-4.4c-0.2-2.8-0.6-5.5-1.2-8.1
		c-0.7-2.9-1.4-5.8-2.2-8.7c-1.1-4.1-2.2-8.2-4.1-12c-0.7-1.3-1.3-2.7-2.3-3.8c-1.6-1.7-3.4-3.3-5.4-4.7c-3.1-2.2-6.6-3.9-10.2-5
		c-1-0.3-2.2-0.3-3.4-0.5c0.1,0.5,0.1,1,0.2,1.4c0.1,0.7,0.4,1.4,0.4,2.1c0.1,0.8-0.3,1-1.1,0.8c-0.8-0.2-1.6-0.4-2.4-0.4
		c-1.8-0.1-3.6-0.1-5.4,0c-1,0-2,0.2-3.2,0.3c0.5,0.6,0.9,1,1.2,1.4c1.7,2,2.5,4.4,3.2,6.9c1,3.5,2.2,6.9,4.2,10
		c1.5,2.4,3.1,4.8,4.7,7.2c0.5,0.7,0.9,1.4,1.4,2.2c0.4-1.1,0.6-2.2,1-3c0.6-1,1.4-1.9,2.1-2.9c0.8-1,1.6-2.1,2.4-3
		c0.2-0.2,0.7-0.1,1-0.2c0,0.3,0.2,0.7,0,0.9c-1,1.4-1.9,2.9-3.1,4.1c-1.5,1.5-1.9,3.4-2.1,5.3c0,0.3-0.1,0.6,0,0.8
		c0.6,1.1,1.2,2.4,2,3.3c2.2,2.4,4.2,4.8,6.6,7c3.3,3,6.2,6.3,9.3,9.4c0.4,0.4,0.6,0.4,1.1,0.3c0.7-0.2,1.5-0.3,2.1,0
		c1.7,0.6,3.4,1.4,5.1,2.1c0,0.5,0,0.9,0,1.4c-1.7-0.7-3.5-1.4-5.2-2.1c-0.5-0.2-1.1-0.6-1.7,0c0.5,0.6,0.9,1.1,1.3,1.6
		c1.2,1.5,2.3,2.9,3.5,4.4c0.6,0.7,1.2,1.4,1.7,2.1c0.2,0.3,0.2,1,0,1.2c-0.4,0.4-0.8,0.1-1.1-0.3c-1-1.2-2.1-2.4-3.1-3.7
		c-0.2-0.3-0.4-0.6-0.6-0.8c-1-1.3-1.9-2.7-3-4c-1.3-1.5-2.8-3-4.2-4.4c-2.4-2.5-4.8-4.9-7.3-7.3c-2.6-2.5-5-5.2-7-8.2
		c-0.4-0.6-0.7-1.2-1.1-1.7c-1.9-2.8-3.7-5.6-5.6-8.3c-2.7-4-4.6-8.3-5.8-12.9c-0.8-3.2-2.3-6-4.8-8.3c-0.1-0.1-0.3-0.3-0.5-0.3
		c-1.4,0.1-2.7,0.2-4.1,0.4c-0.8,0.1-1.2,0.1-1.4-0.7c-0.3-1.1-0.7-2.3-0.9-3.4c-0.2-1.2-0.8-1.9-1.8-2.5c-0.4-0.3-0.8-0.6-1.2-0.9
		c-1.8-1.7-3.4-3.5-5.3-5c-1.7-1.4-3.7-2.7-5.6-3.9c-2-1.2-3.8-2.7-5.4-4.4c-0.8-0.8-1.7-1.3-2.8-2.2c0.6,2.7-1.2,3.6-2.9,4.7
		c2.8,2.6,5.6,5.2,8.4,7.8c0.7-0.6,1.3-1.2,2-1.7c0.3-0.3,0.8-0.7,1.2-0.2c0.4,0.5-0.2,0.7-0.5,1c-0.6,0.5-1.3,1.1-2,1.7
		c0.8,0.8,1.5,1.4,2.2,2c0.7,0.6,1.4,1.1,2,1.8c1.2,1.3,2.5,2.6,4.2,3.2c0.2,0.1,0.3,0.5,0.4,0.7c-0.2,0.1-0.5,0.3-0.7,0.3
		c-0.2,0-0.5-0.1-0.7-0.3c-1-0.7-2.1-1.4-2.9-2.2c-1.5-1.5-3.3-2.4-5.2-3.2c-2.4-1-4.4-2.6-6-4.6c-0.9-1.1-1.8-2.1-2.8-3.1
		c-1.1,1.6-2.4,2.7-4.4,2.7c0.1,1.1,0.5,2.1,1.3,2.9c1.1,1.1,2.2,2.2,3.3,3.3c0.6,0.7,1.1,1.4,1.7,2.1c0.5-0.6,0.9-1.1,1.4-1.6
		c0.2-0.2,0.6-0.2,0.9-0.3c-0.1,0.3,0,0.7-0.2,1c-0.4,0.6-0.9,1.1-1.4,1.8c0.2,0.2,0.4,0.3,0.5,0.4c1.9,1.6,3.8,3.3,5.8,4.9
		c0.9,0.8,1.9,1.5,2.8,2.1c0.3,0.2,0.8,0.5,0.4,0.9c-0.2,0.2-0.8,0.2-1.1,0c-1.3-1-2.6-1.9-3.7-3c-1.3-1.2-2.8-2.2-4.4-3
		c-3.1-1.6-5.7-3.9-8-6.5c-0.7-0.8-1.3-1.7-1.9-2.5c0,1.2-0.5,2.1-1.4,2.6c-0.8,0.5-1.7,0.8-2.8,1.3c2.5,3.4,6,6,9.2,9
		c0.4-0.6,0.7-1.2,1.2-1.7c0.2-0.2,0.5-0.2,0.8-0.2c0,0.3,0.1,0.6-0.1,0.8c-0.4,0.7-0.8,1.3-1.2,2c1.7,1.4,3.4,2.8,5.3,3.9
		c1.4,0.8,2.6,1.9,3.8,2.9c0.1,0.1,0.1,0.5,0.1,0.8c-0.3,0-0.6,0.1-0.8,0c-0.1,0-0.2-0.2-0.4-0.3c-0.9-0.8-1.8-1.7-2.8-2.2
		c-2.1-1-4.3-1.9-6.5-2.7c-2.5-0.9-4.8-2.2-6.8-4.1c-0.3-0.3-0.7-0.6-1-0.8c0.3,1,0.5,1.9-0.3,2.6c-0.7,0.6-1.4,1.2-2.3,1.9
		c1.2,0.8,2.4,1.7,3.6,2.5c1.3,0.8,2.7,1.5,4,2.3c1.1,0.6,1.1,0.6,2-0.3c0.2-0.2,0.4-0.6,0.6-0.8c0.1-0.1,0.4-0.4,0.5-0.3
		c0.2,0.1,0.4,0.4,0.4,0.6c0,0.3-0.1,0.5-0.3,0.8c-0.3,0.4-0.7,0.8-1,1.2c1.4,0.8,2.7,1.7,4.1,2.5c2,1,4,2.1,6.1,2.9
		c3,1.1,5.1,3.5,7.6,5.3c2.1,1.5,4.1,3.1,6.1,4.7c0.2,0.2,0.6,0.3,0.8,0.2c0.6-0.2,1.1-0.5,1.7-0.8c0.7-0.4,1.3-0.9,2-1.3
		c0.4-0.3,0.9-0.4,1.1,0.1c0.1,0.2-0.1,0.8-0.4,0.9c-1.2,0.8-2.4,1.6-3.7,2.4c0-0.1,0,0,0,0c1.3,2.7,2,5.6,2.7,8.5
		c0.3,1.3,0.6,2.5,1.1,3.7c1.5,3.3,3.2,6.5,4.8,9.8c0.7,1.4,1.2,3,1.9,4.4c0.4,0.8,0.7,1.8,1.7,2.2c0.2,0.1,0.2,0.4,0.3,0.6
		c0.2,0.4,0.2,0.9,0.5,1.3c2.1,2.7,4.2,5.5,5.3,8.8c0.1,0.3,0.3,0.6,0.5,1c0.9,1.4,2,2.7,2.7,4.2c1.6,3.3,3.8,6.1,6.9,8.1
		c2.7,1.7,4.6,4.2,6.7,6.5c1.2,1.3,2.4,2.6,4.3,2.9c0.5,0.1,0.8,0.4,0.6,1c-0.8,0-1.6,0-2.4,0c-1.2-1-2.5-1.9-3.5-3
		c-2.4-2.8-5-5.5-8.1-7.5c-0.9-0.6-1.8-1.4-2.5-2.3c-1.2-1.6-2.2-3.3-3.2-4.9c-0.4-0.6-0.8-1.2-1.2-1.8c-0.8-1.4-1.8-2.7-2.4-4.2
		c-1.3-3.2-3.5-5.8-5.4-8.5c-4,2.1-7.9,4.2-11.9,6.3c-0.3,0.2-0.6,0.4-0.9,0.5c-2.4,1.4-4.7,2.8-7.1,4.2c-0.1,0.1-0.3,0.3-0.3,0.4
		c-0.3,0.8-0.6,0.8-1.3,0.3c-0.3-0.2-0.8-0.3-1.1-0.2c-1.7,0.5-3.3,1.1-5,1.7c-4.4,1.6-9,2.3-13.2,4.6c-0.8,0.4-1.5,0.2-1.9-0.5
		c-1.3-2.5-2.6-5.1-3.8-7.7c-0.7-1.5-1.1-3.3-2-4.7c-1-1.5-2.3-2.8-3.6-4.1c-1.1-1.1-2.4-2-3.5-3c-1.9,3.2-3.7,6.6-6,9.7
		c-2.3,3.1-5,5.9-7.5,8.8c1.5-0.1,2.5,1,3.7,1.8c1.9,1.4,3.7,3,5.6,4.3c2.1,1.5,4.4,2.8,6.6,4.1c0.4,0.3,0.7,0.6,0.4,1
		c-0.3,0.5-0.7,0.3-1.1,0.1c-1.1-0.7-2.2-1.3-3.2-2c-1.8-1.1-3.6-2.2-5.3-3.5c-1.8-1.3-3.5-2.7-5.2-4.1c-0.6-0.5-1.3-0.5-2-0.4
		c-0.4,0.1-0.8,0.1-1.2,0.1c0-0.1-0.1-0.1-0.1-0.2c-0.9,0.9-1.6,2.1-2.7,2.8c-2,1.3-4.1,2.4-6.2,3.6c-0.4,0.2-0.7,0.4-0.6,1
		c0.1,2.4,0.2,4.8,0.4,7.2C27.8,200,27.4,200,27,200z M111.1,83.1c0.1-1.3,0.3-2.4,0.3-3.6c-0.1-2.7-0.3-5.5-0.5-8.2
		c-0.2-2.9-0.3-5.8-0.6-8.7c-0.2-1.8-0.6-3.6-0.8-5.4c-0.2-1.8-0.7-3.5-0.4-5.3c0-0.2-0.1-0.4-0.1-0.6c-0.1-0.6-0.4-1.2-0.3-1.8
		c0.3-1.9,0.2-3.7-0.3-5.5c-0.7-2.5-1.6-4.9-2.5-7.3c-0.6-1.6-1.8-2.7-3.5-3.1c-0.3-0.1-0.6-0.2-0.9-0.3c-2.8-1-5.5-0.6-7.9,1
		c-1.3,0.9-2.6,1.8-3.8,2.9c-1.6,1.4-3.4,1.8-5.4,1.9c-3.2,0.1-6.2-0.9-9-2.4c-1.6-0.9-3.3-1.3-5.1-1.3c-1.9,0-3.7,0-5.6,0.2
		c-1.3,0.1-2.7,0.3-4,0.7c-1,0.3-2,1-3,1.5c-0.1,0.1-0.2,0.1-0.3,0.1c-1.8,0.5-3.6,0.9-5.3,1.6c-2.7,1-4.3,2.9-4.8,5.8
		c-0.1,0.8-0.3,1.6-0.4,2.4c-0.3,1.9-0.6,3.7-1.8,5.3c-0.3,0.4-0.5,1.1-0.5,1.7c-0.2,3.3-0.3,6.6-0.4,9.9c0,1.2-0.3,1.5-1.5,1.3
		c-0.3-0.1-0.6-0.2-0.8-0.4c-0.6-0.4-1.1-0.9-1.7-1.2c-0.9-0.4-1.9-0.5-2.9-0.8c-1.5-0.4-3.4,0.8-3.6,2.5c0.3,0.1,0.6,0.2,1,0.2
		c1.3-0.1,2.6,0.2,3.7,0.9c1.3,0.8,2.6,1.7,3.8,2.7c1,0.8,1.9,1.6,2.7,2.6c0.2,0.2,0.1,0.8,0.1,1.2c-0.4,0-0.7,0-1.1-0.2
		c-0.3-0.1-0.5-0.4-0.7-0.6C42.8,72,42.5,72,42,72.2c-1.3,0.5-1.7,1.6-2,2.8c-0.5,1.9,0.1,3.4,1.9,4.3c1.2,0.6,2.5,1.2,3.7,1.8
		c0.6,0.3,1.2,0.2,1.8-0.3c-0.3-0.6-0.7-1.2-0.9-1.8c-0.1-0.3-0.1-0.9,0.1-1.1c0.4-0.3,0.8,0,1.1,0.5c0.8,1.4,1.6,2.8,2.3,4.2
		c0.5,1,1.1,2,1.5,3c0.6,1.5,1.1,3,1.6,4.4c0.3,0.7,0.6,1.4,0.9,2.2c1-0.8,1.9-1.5,2.7-2.3c1.8-1.5,4-2.3,6.1-3.1
		c1.5-0.5,2.6-1.5,3.6-2.7c1.4-1.7,2.8-3.4,4.7-4.6c1.1-0.7,2-1.5,3-2.4c0.9-0.9,1.8-1.8,3.2-2c1.9-0.3,3.5-1.3,4.8-2.8
		c1.1-1.2,2.3-2.4,3.5-3.5c0.6-0.6,1.3-0.5,1.9,0c0.4,0.3,0.7,0.7,1,1c1,0.9,1.9,2,3,2.7c3.4,2.3,7,4.4,10.5,6.6
		c0.6,0.4,1.2,0.7,1.9,0.9c2.4,0.6,4.8,1.2,6.7,2.8C110.8,82.9,111,83,111.1,83.1z M21.1,150.8c0-0.1-0.1-0.2-0.1-0.3
		c-2,0.7-3.9,1.3-5.9,2c-0.2,0.1-0.5,0.4-0.6,0.6c-0.4,1.4-0.8,2.8-1.2,4.2c-0.3,1.1-0.9,2.2-1,3.3c-0.2,2.6-0.3,5.2-0.4,7.8
		c0,0.6-0.1,1.2-0.2,1.8c-0.5,2.1-0.3,4.2,0.5,6.1c1.1,2.5,2.2,5,3.3,7.5c1.2,2.5,2.7,4.8,4.8,6.6c0.9,0.8,1.9,1.7,3.4,1.4
		c3-0.6,5.8-1.9,8.4-3.4c1-0.6,1.9-1.2,2.7-2c2-1.9,3.9-4,5.8-6c1.5-1.6,3.2-3.2,4.4-5c2.1-3.2,4.1-6.5,6-9.8
		c2.1-3.6,4.2-7.3,6.2-10.9c0.7-1.3,1.2-2.7,1.7-4.1c0.4-1,0.6-2.1,1.1-3.2c1-2.3,2.3-4.5,3.1-6.9c1-3,2.6-5.7,4.4-8.3
		c0.6-0.8,1.1-1.8,1.7-2.8c-0.7-0.7-1.6-1.4-2.3-2.2c-0.2-0.2-0.2-0.7-0.2-1c0.3-0.1,0.7-0.2,0.9-0.1c0.4,0.1,0.7,0.4,1,0.7
		c0.4,0.4,0.7,0.8,1.1,1.3c0.1-0.2,0.2-0.3,0.3-0.4c1-1.7,2.4-3,4.2-3.8c0.5-0.2,0.5-0.5,0-0.8c-1.1-0.7-2.3-1.3-3.4-2
		c-1.9-1.1-3.8-2.3-5.8-3.3c-2.3-1.1-4-2.8-5.6-4.6c-1.2-1.4-0.8-3.4,0-4.5c1-1.4,1.8-1.5,3.9-0.7c1.1,0.4,2,1.2,2.9,2.1
		c1.6,1.5,3.5,2.5,5.5,3.3c0.5,0.2,1,0.3,1.5,0.4c0-0.3-0.1-0.4-0.2-0.5c-1.4-1.2-2.8-2.4-4.1-3.6c-1.7-1.6-3.3-3.2-4.9-4.8
		c-1.4-1.4-2.4-3.1-3-5.3c-0.4,0.8-0.8,1.5-1.2,2.3c-0.8,1.7-1.5,3.4-2.2,5.1c-0.5,1.2-1.1,2.5-1.5,3.7c-0.7,2.2-1.5,4.2-3.3,5.8
		c-0.7,0.6-1.2,1.4-1.5,2.2c-1.1,3-2.8,5.5-5.3,7.5c-1.4,1.1-2.1,2.7-3.1,4.1c-1.1,1.5-2.4,2.9-3.3,4.5c-0.8,1.4-1.8,2.8-2.9,3.9
		c-2,1.8-4,3.6-5.9,5.5c-2.2,2-4.4,4.1-6.7,6.1c-1.8,1.5-3.6,3-4.7,5.1c-1.1,2.1-2.2,4.1-3.2,6.2c-0.3,0.6-0.6,1.3-0.8,1.9
		c-0.1,0.5,0,0.9-0.7,0.9c-0.7,0-0.8-0.6-0.7-1c0.2-0.9,0.5-1.7,0.9-2.5C16.6,157.3,18.2,153.6,21.1,150.8z M7.3,155.8
		c0.3-0.2,0.9-0.6,1.3-0.9c1.8-1.4,3.5-2.7,5.6-3.5c2.8-1.1,5.5-2.1,8.5-2.7c0.5-0.1,1.1-0.2,1.4-0.6c2.2-1.9,4.4-3.9,6.6-5.9
		c2.1-1.9,4.2-3.8,6.2-5.7c-0.6-0.5-0.9-0.8-1.2-1.2c-0.9-1.2-1.7-2.5-2.6-3.7c-0.9-1.1-1.9-2.1-2.8-3.3c-1-1.3-1.9-2.6-2.8-3.9
		c-0.1-0.2-0.1-0.6,0-0.8c0.1-0.2,0.6-0.3,0.7-0.2c0.4,0.2,0.8,0.5,1.1,0.9c1.3,2.3,3.1,4.2,4.7,6.2c1.3,1.5,2.3,3.2,3.3,4.8
		c0.9-1.3,2-2.6,2.9-4c0.2-0.3,0.2-0.8,0.1-1.2c-0.4-1.3-0.9-2.6-1.3-3.9c-1-2.8-1.8-5.7-2.2-8.6c-0.2-1.5-0.8-3-1.1-4.5
		c-0.1-0.3,0.1-0.9,0.3-1.1c0.9-0.8,1.9-1.5,2.8-2.3c0.8-0.7,1.8-1.2,1.7-2.6c-1.5-0.3-3-0.9-4.4-0.9c-2.1,0-4.2,0.4-6.2,0.8
		c-3,0.7-6,1.7-8.1,4.1c-1.1,1.3-2.3,2.5-2.7,4.3c-0.2,1.2-0.6,2.3-1,3.5c-0.6,1.8-1.4,3.6-2,5.4c-0.8,2.3-1.4,4.6-2.2,7
		c-0.4,1.1-0.9,2.3-1.2,3.4c-0.7,2.7-1.4,5.5-2.1,8.2C9.6,147.3,8.4,151.7,7.3,155.8z M97.7,143.6c-1,0.5-1.9,0.9-2.7,1.3
		c-1.1,0.5-2.2,0.9-3.3,1.3c-1,0.4-2,0.7-2.9,1.2c-0.8,0.4-1.5,0.8-2.3,1.2c-1.3,0.6-2.6,1.3-4,1.9c-1,0.4-2.1,0.9-3.2,1
		c-0.9,0.1-1.7,0.4-2.5,0.9c-0.4,0.3-0.4,0.5-0.2,0.9c1.1,2.2,2,4.5,3.2,6.7c1.8,3.2,3.3,6.5,4.6,10c0.9,2.4,1.8,4.7,2.7,7.1
		c0.2,0.7,0.6,0.8,1.1,0.5c0.8-0.4,1.6-0.8,2.4-1.3c1.8-1.1,3.6-2.4,5.5-3.4c2.3-1.3,4.8-2.5,7.2-3.8c1.2-0.7,2.4-1.4,3.6-2.1
		c0.5-0.3,0.7-0.6,0.3-1.2c-0.4-0.5-0.7-1.1-0.9-1.7c-0.7-1.5-1.2-3-1.9-4.5c-1.6-3.3-3.3-6.5-4.9-9.8c-0.2-0.4-0.4-0.9-0.5-1.4
		C98.5,146.8,98.1,145.2,97.7,143.6z M85.9,178c-2.5-8.9-6.9-16.6-10.8-24.7c-0.9,0.6-1.6,1.2-2.4,1.8c-2.1,1.6-4.2,3.2-6.9,3.7
		c-0.7,0.1-1.5,0.3-2,0.7c-0.7,0.5-1.3,1.3-2,1.9c-2,1.6-3.4,3.9-6,4.8c0,0,0,0.1-0.1,0.2c0.2,0.2,0.4,0.4,0.7,0.6
		c2.7,2.3,5,5,6,8.5c0.9,3,2.6,5.7,4,8.5c0.3,0.6,0.6,0.6,1.1,0.3c2.8-1.5,5.9-2.4,9-3.2C79.7,180.1,82.8,179,85.9,178z M41.6,129.4
		c0.1,0,0.2,0,0.3,0c0.1-0.1,0.2-0.2,0.3-0.4c0.7-1.9,2.2-3.2,3.7-4.6c1.6-1.5,2.8-3.2,3.6-5.3c0.5-1.4,1.3-2.7,2.3-3.8
		c1.3-1.4,2.4-3,2.9-4.9c0.4-1.6,1.1-3,1.8-4.5c0.3-0.6,0.8-1.2,1-1.9c1.2-3.7,3-6.9,6-9.5c2.3-1.9,4.9-3.5,7.5-5
		c0.9-0.4,1.4-1.1,1.5-2.1c0.1-1.4,1.5-3.4,2.8-3.6c1.1-0.2,1.4-0.7,1.7-1.6c0.1-0.3,0.2-0.6,0.3-0.9c-0.9-1-1.8-2-2.7-3
		c-2.6,1.8-5.2,3.6-7.1,6.3c-1.2,1.7-2.8,2.7-4.7,3.4c-1.7,0.6-3.2,1.5-4.8,2.4c-0.8,0.5-1.5,1.2-2.3,1.9c-0.2,0.2-0.6,0.3-0.6,0.5
		c-0.2,1.1-1,1.4-2,1.5c-0.2,0-0.4,0.1-0.5,0.3c-0.6,0.6-1.2,1.2-1.9,1.8c-1.6,1.6-3.3,3.2-4.9,4.9c-0.9,0.9-1.8,1.9-2.5,3
		c-0.7,1.1-1.1,2.5-1.5,3.7c-0.3,0.8-0.7,1.4-1.4,1.9c-1,0.7-1.9,1.6-2.8,2.4c-0.2,0.2-0.4,0.5-0.3,0.8c0.4,2.3,0.8,4.5,1.3,6.8
		C39.6,123.2,40.6,126.3,41.6,129.4z M118.9,106.5c0,0,0-0.2-0.1-0.4c-0.2-1.1-0.4-2.1-0.6-3.2c-0.3-1.8-0.4-3.7-0.9-5.5
		c-0.6-2.3-1.4-4.6-2.2-6.9c-0.5-1.3-0.9-2.7-1.8-3.7c-2.3-2.5-5-4.4-8.5-5.2c-0.6-0.1-1.2-0.2-1.7-0.5c-1.8-1-3.7-2-5.4-3
		c-2.1-1.3-4.1-2.7-6.2-4c-1.5-0.9-2.9-1.9-3.9-3.3c-0.1-0.1-0.1-0.3-0.2-0.5c-0.1,0.1-0.2,0.2-0.4,0.3c0.6,0.8,1,1.6,1.7,2.3
		c2.7,2.7,4.3,6.1,6.1,9.4c0.2,0.3,0.2,0.7,0.3,1c0.5,1.7,1.1,3.4,1.6,5.1c0.4,1.1,0.4,2.4,0.9,3.5c0.5,1.3,0.6,2.7,1,4.1
		c0.9,2.8,2.1,5.4,2.4,8.4c0.1,1,0.5,2,0.8,2.8C107.7,106.9,113.3,106.7,118.9,106.5z M97.5,142.6c-0.1-0.3-0.2-0.7-0.3-1.1
		c-0.7-1.7-1-3.5-2.5-4.7c-1.2-0.9-2.4-1.8-3.5-2.7c-1.8-1.4-3.5-2.7-5.3-4.1c-1-0.8-2-1.6-3-2.3c-1.8-1-3.6-1.9-5.4-2.9
		c-1.1-0.6-1.9-0.4-2.9,0.2c-2.1,1.3-3.4,3.2-4.3,5.4c-0.1,0.2-0.1,0.4,0,0.6c0.2,0.6,0.5,1.2,0.7,1.9c0.1,0.3,0.2,0.6,0.2,1
		c0.1,0.7,0,1.4,0.2,2c0.2,0.7,0.7,1.4,1,2.1c1.1,2.1,1.8,4.2,1.9,6.6c0.1,2.3,0.7,4.6,1.7,6.8c1-0.8,2.1-1,3.3-1.2
		c1.2-0.2,2.4-0.8,3.5-1.3c2.3-1.1,4.6-2.3,6.9-3.5c0.2-0.1,0.5-0.2,0.7-0.3c1.9-0.2,3.6-1.1,5.3-2
		C96.1,142.9,96.7,142.8,97.5,142.6z M74.7,152.1c-0.2-0.5-0.3-0.8-0.4-1.1c-0.4-1.6-1.2-3.3-1.2-4.9c-0.1-2.8-0.7-5.3-2-7.7
		c-0.7-1.3-1.5-2.5-1.5-4.1c0-0.6-0.4-1.1-0.6-1.9c-1.1,1.7-2.2,3.2-3,4.9c-1.3,2.7-2.4,5.5-3.6,8.3c-0.7,1.6-1.4,3.2-2.1,4.8
		c-0.3,0.8-0.4,1.7-0.8,2.5c-1.7,3.4-3.5,6.7-5.2,10c-0.2,0.4-0.5,0.8-0.7,1.2c0.2,0.3,0.3,0.6,0.5,0.8c0.2,0.2,0.5,0.4,0.6,0.4
		c0.9-0.4,1.9-0.8,2.7-1.5c1.6-1.3,3.1-2.7,4.7-4.1c0.2-0.2,0.4-0.5,0.4-0.7c0-0.8,0.5-1,1.2-1.1c1.7-0.2,3.4-0.4,4.8-1.3
		C70.5,155.1,72.6,153.6,74.7,152.1z M85.8,70.8c-1.3,1.2-2.4,2.3-3.7,3.4c-1.5,1.2-3.1,2-5.1,2.2c-1.2,0.1-1.6,0.9-0.8,1.8
		c0.7,0.8,1.6,1.5,2.4,2.3c0.1,0.1,0.3,0.3,0.4,0.4c1,1.1,1.9,2.2,2.8,3.3c0.5-0.3,0.8-0.5,1.1-0.7c0.9-0.7,1.9-1.4,2.8-2.1
		c0.2-0.1,0.2-0.4,0.3-0.6c0.1-0.8,0.2-1.7,0.4-2.5c0.2-1.1,0.9-2,1.8-1.9c1.4,0.1,1.9,0.5,2.3,1.8c0.1,0.4,0.3,0.7,0.5,1.1
		c0.7-0.2,0.8-0.6,0.4-1.1c-0.7-1-1.4-2-2.2-3c-1-1.3-2-2.6-3-4C86.1,71.1,85.8,70.9,85.8,70.8z M12.8,153.3c-1.4,1.2-2.9,2.1-4,3.4
		c-1.1,1.2-1.9,2.6-2.8,4c-0.3,0.4-0.3,1-0.5,1.5c-1.2,2-1.5,4-0.2,6.1c0.5,0.8,1.1,1.4,2,1.5c1,0.2,2,0.2,3.1,0.3
		c0.2-2.8,0.2-5.6,0.5-8.3C11.3,159,12.1,156.3,12.8,153.3z M82,88.1c1.5,1.1,2.9,2.1,4.3,3.2c0.4,0.3,0.7,0.2,1-0.2
		c0.9-1.4,1.8-2.8,2.8-4.2c1.1-1.6,1.1-3.4,0.8-5.3c-0.1-0.3-0.2-0.7-0.4-0.8c-0.9-0.6-1.2-1.4-1.4-2.3c-0.1-0.2-0.5-0.5-0.7-0.5
		c-0.2,0-0.5,0.3-0.6,0.6c-0.1,0.3-0.1,0.7-0.2,1c-0.2,1.2-0.1,2.5-1.3,3.3C84.4,84,83.3,86,82,88.1z M93,95.8
		c0.6-2.4,1.3-4.7,1.8-7c0.1-0.6,0.2-1.3,0.1-1.9c-0.2-1.1-0.5-2.2-0.9-3.2c-0.4-1-0.9-2-1.4-3c-0.1-0.1-0.3-0.2-0.5-0.2
		c-0.1,0-0.3,0.3-0.3,0.4c0,0.6,0,1.2,0.2,1.8c0.5,1.9-0.4,3.4-1.4,4.9c-1,1.5-2,2.9-3,4.5C89.5,93.4,91.2,94.6,93,95.8z M41.5,70.9
		c-2.2-2.2-4.5-4-7.8-3.7c0.3,3.5,3.5,5.4,4.7,8.4C38.7,73.6,39.3,71.8,41.5,70.9z M48.2,82c-1.4,0.8-2.7,0.7-4,0
		c-1-0.6-2.2-1-3.2-1.5c1.2,1.8,2.5,3.5,4,5c1.2,1.1,2.8,1.6,4.5,1.7c0.7,0,1-0.3,0.7-1C49.6,84.8,48.9,83.4,48.2,82z M110.5,26.7
		c0.8,1.6,1.7,3.1,2.3,4.5c0.4,1,0.7,2.2,1,3.3c0.2,0.8,0.9,0.5,1.4,0.5c0.5,0,0.7-0.4,0.7-0.9c0-2-0.2-4-1.1-5.8
		c-0.4-0.8-1.2-1.6-2-1.9C112.2,26.2,111.3,26.6,110.5,26.7z M115.4,55.3c-1.5,0.4-2.7,2.1-2.9,3.3c-0.1,0.9,0,2-1,2.6
		c-0.1,0-0.1,0.2-0.1,0.3c0.2,2,0.5,3.9,0.7,5.9c0.5-0.8,1-1.7,1.3-2.6c0.5-1.7,0.9-3.4,1.2-5.1C115,58.3,115.1,56.9,115.4,55.3z
		 M29.8,30.6c1,0,1.6-0.1,1.8-0.9c0.4-1.4,0.8-2.7,1.2-4.1c0-0.1-0.3-0.5-0.4-0.5c-1,0-2.1,0.1-3.1,0.2c-0.7,0.1-1.2,0.5-1.3,1.2
		c-0.1,0.6-0.2,1.2-0.2,1.8C27.8,29.5,28.9,30.6,29.8,30.6z M96.7,99.7c0.2,0,0.3-0.1,0.5-0.1c0.1-1.1,0.5-2.1,0.4-3.2
		c-0.1-1.2-0.5-2.3-0.8-3.5c-0.3-0.9-0.7-1.8-1.1-2.7c-0.4,0.5-0.6,0.9-0.7,1.3c-0.3,1.2-0.6,2.4-0.8,3.7c-0.1,0.6-0.4,1.3-0.1,1.7
		C94.8,97.9,95.8,98.8,96.7,99.7z M73.1,89.8c-3.2,1.6-6.2,3.7-8.9,6c0.2,0.1,0.3,0.1,0.4,0.1c1.1-0.3,1.8,0.1,2.5,0.9
		c0.4,0.5,0.8,0.9,1.2,1.3c0.1,0.1,0.5,0.2,0.6,0.1c0.2-0.1,0.3-0.4,0.3-0.6c0-0.4-0.1-0.9-0.2-1.3c-0.5-2.3,0.3-4.1,2.4-5.1
		c0.8-0.4,1.6-0.5,2.4,0.3c0.6,0.6,1.3,1,1.9,1.5c0.1-0.2,0.3-0.4,0.3-0.4C75,91.8,74,90.8,73.1,89.8z M115.2,54.1
		c0-0.7,0-1.3,0-1.9c-0.1-1.1-0.8-1.7-1.7-1.4c-0.5,0.2-1,0.7-1.4,1.2c-0.5,0.6-0.9,1.3-1.4,1.9c-0.1,0.1-0.1,0.2-0.1,0.3
		c0.1,1.3,0.2,2.6,0.3,4C112.2,56.6,112.5,54.2,115.2,54.1z M66.3,98.8c-0.2-0.5-0.5-1-0.6-1.5c-0.1-0.5-0.5-0.5-0.8-0.4
		c-1.3,0.3-2.2,1.1-2.8,2.2c-0.1,0.3-0.1,0.7,0,1c0.4,1,1,1.2,2.1,1C65.2,100.9,66.2,99.8,66.3,98.8z M59.5,111.1
		c0,0.8,1,1.9,1.8,1.9c0.6,0,2-1.3,2-1.9c0-0.9-1.1-2.4-1.8-2.4C60.4,108.8,59.5,109.7,59.5,111.1z M77.1,86.6c0-1-0.6-1.5-1.5-1.2
		c-0.9,0.3-2,1.9-1.9,2.9c0,0.5,0.7,1.1,1.1,1C75.6,89,77,87.4,77.1,86.6z M77.2,94.8c0.3,0.5,0.6,1,0.9,1.4c1.4,1.8,3.3,3,5.2,4.1
		c0.1,0.1,0.3,0,0.4,0c0-0.2,0-0.4-0.1-0.5c-1.4-1.4-2.8-2.8-4.3-4.1c-0.5-0.5-1.1-0.9-1.7-1.4C77.5,94.4,77.4,94.6,77.2,94.8z
		 M69.6,99.3c0,0.1-0.1,0.2-0.1,0.3c0.1,0.2,0.2,0.5,0.4,0.6c1.2,1.2,2.4,2.4,3.6,3.5c0.4,0.4,0.9,0.8,1.4,1.2c0.1,0.1,0.4,0,0.6,0
		c0-0.2,0-0.4-0.1-0.5c-0.8-0.8-1.5-1.7-2.3-2.5c-0.8-0.9-1.6-1.7-2.5-2.5C70.3,99.4,69.9,99.4,69.6,99.3z M70.1,94.4
		c0,0.6,0.3,1,0.7,0.8c0.9-0.5,1.7-1.1,2.4-1.7c0.2-0.1,0.3-0.6,0.2-0.7c-0.2-0.3-0.6-0.6-1-0.6C71.3,92.1,70.2,93.2,70.1,94.4z
		 M78.5,82.5c-0.2,0.3-0.3,0.6-0.4,0.8c-0.6,0.7-0.2,1.2,0.4,1.6c0.7,0.5,1.4,1.1,2.2,1.6c0.2,0.1,0.7,0.1,0.7,0.1
		c0.1-0.3,0.3-0.7,0.1-0.9C80.6,84.7,79.6,83.7,78.5,82.5z M97.8,100.6c0.5,0.3,1,0.7,1.4,1c0,0,0.1-0.1,0.1-0.1
		c-0.3-0.8-0.6-1.6-0.9-2.6C98.2,99.6,98.1,100.1,97.8,100.6z"/>
	<path class="st0" d="M66,73.8c-2.2,0.1-4.1-0.7-6-1.6c-0.2-0.1-0.5-0.2-0.8-0.2c-0.3-0.1-0.7-0.1-0.8-0.3c-0.1-0.3,0-0.8,0.2-0.9
		c1.7-1.5,3.3-3.1,5.5-3.9c1.7-0.6,3.5-1,5.2-0.3c1.8,0.7,3.5,1.6,4.9,3c0.5,0.6,0.4,1.4-0.3,1.6c-2.2,0.8-4.4,1.7-6.7,2.5
		C67,73.7,66.5,73.7,66,73.8z M69.2,72.3c1.1-0.5,2.3-1,3.4-1.6c0.3-0.2,0.8-0.6,0.3-1c-1.1-0.7-2.3-1.3-3.4-2
		C70.3,69.4,70,70.8,69.2,72.3z M62.4,72.1c0-0.9,0-1.6,0-2.4c-0.5,0-2,1-1.9,1.1c0.4,0.4,0.9,0.7,1.3,1.1
		C61.9,71.9,62.1,72,62.4,72.1z M64.7,69.8c0.5,0.4,0.8,0.9,0.9,0.8c0.4-0.1,0.7-0.5,0.9-0.8c0.1-0.1-0.4-0.7-0.7-0.7
		C65.5,69,65.2,69.4,64.7,69.8z"/>
	<path class="st0" d="M93.2,68.4c-1.5-0.2-2.8-0.3-4-0.5c-0.9-0.2-1.1-0.8-0.6-1.5c0.6-0.7,1.2-1.5,1.9-2c2.2-1.6,4.5-2.8,7.2-3
		c0.6,0,1.3-0.1,1.8,0.1c1.5,0.5,2.9,1.1,4.3,1.7c0.6,0.3,0.7,0.8,0.1,1.1c-2.1,1.2-4,2.8-6.5,3.2C96,67.8,94.5,68.1,93.2,68.4z
		 M98.5,66.2c1.8-0.1,2.9-1.4,4.4-2.3c-1.4-0.8-2.6-1.1-4-1.4C99.2,63.9,99.4,65.1,98.5,66.2z M92.4,64.6c-0.1,0-0.1-0.1-0.2-0.1
		c-0.7,0.7-1.5,1.4-2.2,2.1c-0.3,0.4,0,0.7,0.3,0.7c1.1,0,2.2,0,3.3,0C92.4,66.7,92.3,65.7,92.4,64.6z M96,63.7c-0.1,0-0.2,0-0.4,0
		c-0.2,0.3-0.4,0.6-0.5,0.9c-0.1,0.4-0.1,0.8,0.5,0.8c0.5,0,0.9-0.2,0.8-0.7C96.4,64.3,96.1,64.1,96,63.7z"/>
	<path class="st0" d="M105,56.2c0.6,0,1.1-0.1,1.7,0c0.3,0,0.6,0.3,0.9,0.5c-0.3,0.2-0.6,0.5-0.9,0.5c-0.7,0.1-1.4,0-2.1,0
		c-4.8,0.2-9.4,1.1-13.5,3.9c-0.3,0.2-0.7,0.3-1,0.3c-0.1,0-0.4-0.2-0.5-0.4c0-0.2,0.1-0.5,0.2-0.6c1.8-1,3.6-2.1,5.5-2.7
		c2.1-0.7,4.4-1,6.7-1.4C103,56.2,104,56.2,105,56.2C105,56.1,105,56.1,105,56.2z"/>
	<path class="st0" d="M68.6,62.1c0.9,0,1.9,0,2.8,0c0.3,0,0.6,0,0.9,0.1c0.2,0.1,0.4,0.4,0.6,0.6c-0.2,0.1-0.5,0.4-0.7,0.4
		c-1.6,0-3.1,0-4.7-0.1c-2.2-0.1-4.2,0.3-6.2,1.1c-1.3,0.5-2.7,1.1-4.1,1.6c-0.3,0.1-0.6-0.1-0.9-0.1c0.1-0.3,0.2-0.8,0.4-0.9
		c1.1-0.5,2.3-1,3.5-1.4c1-0.4,2.1-0.8,3.2-1c1.7-0.3,3.5-0.4,5.2-0.5C68.6,62,68.6,62.1,68.6,62.1z"/>
</g>
</svg>
