<?xml version="1.0" encoding="utf-8"?>
<!-- Generator: Adobe Illustrator 19.2.1, SVG Export Plug-In . SVG Version: 6.00 Build 0)  -->
<svg version="1.1" id="Layer_1" xmlns="http://www.w3.org/2000/svg" xmlns:xlink="http://www.w3.org/1999/xlink" x="0px" y="0px"
	 viewBox="0 0 200 197.5" style="enable-background:new 0 0 200 197.5;" xml:space="preserve">
<style type="text/css">
	.st0{fill:#1976D2;}
</style>
<g id="head-child-main">
	<path class="st0" d="M0,197.5c1.3-4.3,2.5-8.6,3.8-12.8c0.7-2.4,1.5-4.7,2-7.1c0.8-4,2.3-7.9,3.5-11.8c1.3-4.6,3.2-9,5.5-13.3
		c1.1-2,2.7-3.2,4.9-3.8c3.6-1,7.1-2.1,10.6-3.5c2.2-0.9,4.6-1.3,7-1.2c0.6,0,0.9-0.1,1-0.8c0.5-2.9,1.1-5.8,1.7-8.8
		c0.1-0.7,0.3-1.5,0.5-2.2c0.5-1.7,0.6-3.3,0.6-5.1c0-3.4,0-6.8,0-10.2c0-2.7,0.7-5.1,2.5-7.2c2-2.5,3.7-5.1,4.8-8.1
		c0.9-2.3,2.1-4.6,3.1-6.8c0.4-0.9,0.6-1.9,1-2.8c1.1-2.1,2.3-4.3,3.5-6.4c0.3-0.5,0.4-0.9,0.2-1.5c-1.2-3.1-1.2-6.4-1.1-9.7
		c0.1-2.1,1-3.9,2.2-5.6c1-1.4,2.4-2,4.3-1.4c-0.2-0.7-0.4-1.3-0.6-1.9c-0.7-2.4-1.5-4.8-2-7.3c-0.7-3.5-0.5-7.1-0.2-10.7
		c0.2-2-0.2-4-0.3-6c0-0.6-0.1-1.1-0.1-1.7c0-1.7,0-3.4,0-5.1c0.1-1.2,0.3-2.5,0.5-3.7c0.1-1,0.2-2,0.2-3.1c0.3-3.8,1.6-7.1,4.5-9.8
		c1.7-1.6,3.3-3.2,5.1-4.8c0.9-0.8,2-1.4,3.1-2c1.5-0.8,2.6-1.9,3.3-3.4c0.6-1.3,1.6-2.2,2.8-2.9c2.4-1.4,4.9-2.2,7.6-2.9
		c2.3-0.6,4.7-1.1,7.1-1.5c1.1-0.2,2.2,0,3.4,0c0.8,0,1.6-0.2,2.5-0.3c0.6-0.1,1.2-0.3,1.8-0.3c1,0,2-0.1,3,0
		c2.6,0.3,5.3,0.7,7.9,1.1c0.4,0.1,0.9,0.3,1.3,0.6c1.9,1.6,4.2,2.1,6.7,2.2c3.5,0.2,6.9,0.5,10.4,1.1c1.6,0.3,3.2,1.1,4.5,2.4
		c0.7,0.7,1.6,1.4,2.4,2.1c2.7,2.3,4.7,5.2,6.8,8c1.8,2.4,3.8,4.8,4.8,7.7c0.7,2.2,1.4,4.4,1.9,6.7c0.6,2.6,0.9,5.2,1.3,7.9
		c0.2,1.3,0.7,2.5,0.7,3.8c0.1,2.3,0.1,4.7,0.1,7.1c-0.1,2.7-0.8,5.3-1.7,7.8c-0.6,1.6-1.4,3.1-1.8,4.7c-0.6,2.3-1.1,4.6-1.1,7
		c2.2,0.4,3.1,1.4,3.1,3.7c0,1.8,0.1,3.6,0.2,5.4c0,0.6,0.3,1.2,0.6,1.6c0.9,1.3,2,2.5,2.9,3.8c0.3,0.4,0.5,0.8,0.7,1.2
		c1.1,2.1,2.2,4.3,3.4,6.4c1.7,3.1,3.4,6.2,5.1,9.3c1.5,2.9,3,5.7,5.2,8.1c1.5,1.6,2,3.6,2.3,5.7c0.4,2.8,1.2,5.4,2.1,8.1
		c0.5,1.4,0.6,2.9,1,4.3c0.4,1.8,0.7,3.6,1.2,5.3c0.8,3.1,1.6,6.2,2.4,9.3c0.4,1.5,0.6,3.1,0.7,4.7c0.1,1.9,1.4,2.3,2.8,2.7
		c3.7,1,7.1,2.7,9.4,5.7c2,2.5,3.6,5.4,4.6,8.4c1.3,3.8,2.1,7.8,2.1,12c0,3,0.6,6,1,9c0.2,1.8,0.3,3.5,0.6,5.3
		c0.2,1.6,0.7,3.2,0.9,4.7c0.2,0.9,0.2,1.7,0.3,2.6c-0.4,0-0.8,0-1.3,0c-0.1-0.7-0.2-1.3-0.3-2c-0.4-2-0.8-3.9-1.1-5.9
		c-0.3-2.3-0.5-4.6-0.8-6.9c-0.3-2.6-0.7-5.1-0.8-7.7c-0.1-2.1-0.1-4.2-0.8-6.2c-0.6-1.8-0.7-3.7-1.5-5.4c-1.1-2.4-2.6-4.7-3.9-7
		c-0.6-1-1.1-1.1-2.2-0.7c-1.9,0.7-3.4,2.1-4.9,3.3c-0.2,0.2-0.3,0.7-0.3,1.1c0.8,2.7,1.3,5.5,1.1,8.4c-0.1,1.3,0,2.7,0.3,4
		c0.6,2.5,1.1,4.9,1.6,7.4c0.2,1,0.6,2,0.7,3c0.4,2.2,0.8,4.3,1.1,6.5c0.5,2.7,0.9,5.4,1.4,8.1c-0.5,0-1,0-1.5,0
		c-0.6-3.8-1.2-7.6-1.9-11.3c-0.7-3.8-1.5-7.6-2.5-11.3c-0.7-2.6-1-5.2-0.9-7.8c0.1-2-0.2-3.9-0.9-5.7c-1.1-3-2.3-5.9-2.9-9.1
		c-0.6-3-1.5-5.9-2-9c-0.4-3-1.4-6-2.2-8.9c-0.5-2-0.9-4-1.3-6c-0.2-1.1-0.2-2.3-0.6-3.3c-1.3-3.2-2.2-6.4-2.7-9.8
		c-0.2-1.6-0.7-3.3-1.9-4.5c-0.4-0.4-0.7-0.8-1-1.3c-1.6-2.7-3.2-5.5-4.8-8.2c-1-1.7-1.9-3.5-2.8-5.3c-0.1,0.1-0.2,0.2-0.2,0.3
		c-0.4,0-1,0.1-1.2-0.1c-0.6-0.8,0.5-0.8,0.7-1.3c-0.2-0.3-0.4-0.7-0.6-1.1c-1.1-1.8-2.3-3.5-3.1-5.5c-1-2.4-2.7-4.2-4.1-6.3
		c-0.5-0.7-0.8-1.6-1.2-2.5c-0.3-0.6-0.5-1.3-0.8-1.9c-0.8-1.7-1.9-3.2-2.2-5.1c-0.2-1.4-0.5-2.9-2.1-3.8c-0.2,0.9-0.5,1.8-0.7,2.8
		c0,0.2,0.1,0.6,0.3,0.8c2,1.3,2.9,3.4,3.7,5.5c0.9,2.5,1.5,5.1,3.3,7.2c1.2,1.4,2.2,2.9,3.4,4.4c1.5,1.9,1.8,4.4,2.8,6.5
		c0.8,1.8,1.8,3.4,2.7,5.1c1.1,2,2.1,4,3.2,6c0.7,1.4,1.4,2.8,2.2,4.1c0.8,1.2,1.8,2.3,2.6,3.4c0.2,0.2,0,0.6,0,1
		c-0.3-0.1-0.7,0-0.8-0.2c-1.2-1.6-2.5-3.2-3.5-5c-1.1-1.9-1.9-4-3-5.9c-0.6-1.2-1.4-2.4-2.1-3.5c-0.3,0.2-0.3,0.2-0.4,0.2
		c-0.3,0.5-0.8,0.7-1.2,0.3c-0.1-0.1,0.1-0.7,0.4-1c0.4-0.4,0.3-0.7,0.1-1.1c-0.6-1.2-1-2.4-1.5-3.6c-0.7-1.6-1.1-3.4-2-4.9
		c-1.1-1.9-2.7-3.6-3.9-5.5c-0.7-1-1.3-2-1.7-3c-0.5-1.2-0.9-2.5-1.3-3.7c-0.1-0.2-0.4-0.6-0.6-0.6c-1.6,0.1-2.8-0.4-3.7-1.9
		c-0.3,1.2-0.7,2.2-0.8,3.3c-0.1,0.9,0,1.9,0.3,2.7c0.4,1.3,1.1,2.6,1.5,3.9c0.3,0.9,0.3,1.9,0.5,2.9c0.1-0.2,0.2-0.4,0.2-0.5
		c0.8-1.8,2.1-2.5,3.7-2.3c1,0.1,2.2,1.7,2.3,3.2c0.1,1.8,0.7,3.3,1.7,4.8c0.6,0.9,1.2,1.8,1.6,2.8c0.8,2.1,1.5,4.2,3.1,5.9
		c0.2,0.2,0.3,0.6,0.5,0.9c1.5,2.7,2.6,5.6,4.6,8c1.6,1.9,2.6,4.3,3.9,6.5c0.6,1,1,2.1,1.4,3.2c0.1,0.2-0.1,0.5-0.1,0.7
		c-0.3-0.1-0.6-0.1-0.8-0.3c-0.2-0.2-0.3-0.5-0.4-0.8c-0.7-1.5-1.4-3-2.3-4.5c-0.7-1.2-1.5-2.3-2.3-3.5c-1.5-2.3-3.1-4.6-4.1-7.2
		c0-0.1-0.1-0.2-0.2-0.4c-0.6,0.4-1,0.8-1.6,1.1c-0.3,0.1-0.6,0.1-0.9,0.1c0.1-0.3,0-0.8,0.3-1c0.5-0.5,1.2-0.8,1.8-1.2
		c-0.4-0.6-0.8-1.2-1.2-1.8c-0.7-1.1-1.3-2.2-1.9-3.3c-1-1.9-1.9-3.8-2.9-5.7c-0.1-0.2-0.3-0.3-0.4-0.4c-0.9-0.8-1.9-1.4-2.6-2.3
		c-0.7-0.9-1.1-2-1.7-3.1c-1.1,1.8-1.6,3.8-1.3,5.7c0.5,3,1.5,5.9,3,8.6c0.5,0.9,1.3,1.8,1.7,2.8c1.3,3.6,2.5,7.3,3.5,11
		c0.5,1.7,1.3,3.5,0.5,5.4c0,0.1,0,0.1,0,0.2c-0.3,2.5,0.8,4.5,1.7,6.7c0.8,2.1,1.4,4.3,1.7,6.5c0.3,2.5,0.2,5.1,0.2,7.7
		c-0.1,4-0.2,8-0.3,11.9c0,0.6,0.1,1.4-0.8,1.4c-0.9,0-0.7-0.9-0.7-1.5c0-0.1,0-0.1,0-0.2c0.1-1.3,0.3-2.6,0.3-3.9
		c0-4.3,0-8.6-0.1-12.9c0-1.7-0.2-3.4-0.7-5.1c-0.6-2.3-1.6-4.6-2.4-6.9c-1.2,1.1-2.4,1.9-3.4,2.9c-0.6,0.6-0.9,1.5-1.3,2.2
		c-0.2,0.3-0.4,0.6-0.6,0.9c-0.3-0.2-0.6-0.4-0.9-0.7c-0.1-0.2-0.2-0.4-0.2-0.7c-0.5-2.8-1.9-5.1-4.1-6.9c-1.1-0.9-2.1-1.9-3.2-2.8
		c-0.5-0.4-1.1-0.8-1.8-1.3c-0.7,1.5-1.4,2.7-2,4c-0.5,1-1,2-1.5,2.9c-0.1,0.2-0.3,0.6-0.2,0.7c0.9,1.4,1.7,2.8,2.8,4
		c0.8,0.9,1.6,1.8,2,3c0.1,0.3,0.2,0.5,0.4,0.9c0.5-0.9,0.9-1.6,1.3-2.4c0.2-0.4,0.3-0.9,0.9-0.7c0.6,0.3,0.4,0.7,0.1,1.1
		c-0.4,0.7-0.9,1.4-1.2,2.2c-0.2,0.6-0.3,1.3-0.1,1.9c1.2,4.1,3.8,7.6,6.1,11.2c2.2,3.4,4.7,6.7,7.5,9.7c1.6,1.7,3.2,3.3,4.8,4.9
		c0.3,0.3,0.8,0.4,1.3,0.5c0.6,0.1,1.2,0.3,1.8,0.3c1.9,0.1,3.9,0.4,5.8-0.4c0.8-0.3,1.6-0.5,2.4-0.6c0.4-0.1,1-0.1,1.1,0.5
		c0.1,0.7-0.4,0.8-0.8,0.9c-0.6,0.1-1.2,0.2-1.7,0.4c-2.3,0.9-4.6,0.8-6.9,0.6c-0.7-0.1-1.4-0.1-2.1-0.2c0.5,1.2,1.1,2.2,1.3,3.4
		c0.5,3.2,0.8,6.4,1.2,9.6c0.4,3.8,0.2,7.5-0.2,11.3c-0.3,2.5-0.5,5-0.7,7.5c0,0.5-0.1,1-0.2,1.4c-0.4,0-0.8,0-1.3,0
		c0.1-2.3,0.1-4.7,0.3-7c0.2-1.9,0.6-3.9,0.7-5.8c0.3-5.1-0.1-10.1-1.1-15.1c-0.2-1-0.2-2-0.6-2.9c-1.4-2.8-3.3-5.4-5.5-7.7
		c-1.8-1.9-3.4-3.9-5-5.9c-1-1.2-1.8-2.5-2.7-3.9c-0.6,0.6-1.1,1.2-1.6,1.7c-2,2.1-2.9,4.8-4.1,7.3c-2.4,5.1-4.6,10.2-6.9,15.3
		c-0.2,0.5-0.4,1.1-0.6,1.6c-1,3.5-2,6.9-2.9,10.4c-1.1,4-2.1,8-3.1,11.9c-0.5,0-1,0-1.5,0c0-0.1,0-0.1,0-0.2c2-7.5,3.8-15,6-22.5
		c0.9-3,2.5-5.7,3.8-8.5c1.6-3.6,3.3-7.2,4.8-10.8c1-2.4,2.3-4.5,4-6.4c0.4-0.4,0.8-0.7,1.2-1.1c-1.2-1.7-2.4-3.6-3.8-5.6
		c-0.1,0.6-0.3,1.1-0.3,1.5c-0.2,2.3-0.9,4.7-2.4,6.4c-1.7,2-3.8,3.8-6,5.2c-3.4,2.2-7.2,3.8-11.3,4.6c-1.7,0.4-3.4,1-5.1,1.1
		c-3,0.2-6,0.1-9.1,0c-4.9-0.3-9.9-0.7-14.8-1.3c-2.2-0.2-4.4-0.6-6.4-1.4c-4-1.5-7.4-4-10.6-6.7c-1.9-1.6-3.9-3.1-5.2-5.2
		c-0.3-0.5-0.7-1-1-1.5c-0.3,0.6-0.5,1.2-0.8,1.6c-2.7,3.2-4.4,7.2-6.7,10.7c-1.3,1.9-1.7,4.3-3.7,5.8c-0.1,0-0.1,0.1-0.1,0.2
		c-0.7,1.6-1.4,3.3-1.3,5.1c0.1,4.5,0.1,8.9,0.3,13.4c0.1,3.2,0.5,6.5,0.7,9.7c0.1,2,0.2,3.9,0.4,5.9c-0.5,0-1.1,0-1.6,0
		c-0.2-2.9-0.5-5.7-0.7-8.6c-0.2-4.2-0.4-8.4-0.5-12.7c-0.1-2.6,0-5.3,0-7.9c0-0.4,0-0.9,0.1-1.3c0.4-1.5,0.8-2.9,1.2-4.4
		c-0.1,0-0.2-0.1-0.4-0.1c-1.8-0.1-3.3-0.8-4.5-2.2c-0.2-0.3-0.6-0.5-0.9-0.6c-0.5-0.1-0.9-0.4-0.7-0.9c0.2-0.6,0.8-0.7,1.3-0.5
		c0.5,0.3,1,0.8,1.5,1.1c0.7,0.5,1.3,1.1,2,1.3c2.7,0.8,3.5,0.3,4.7-2.2c0.7-1.5,1.4-3.1,2.5-4.4c0.9-1.1,0.7-2.1,0.4-3.3
		c-0.7-2.5-0.8-5-0.2-7.6c0.4-1.4,0.8-2.9,0.8-4.4c-0.1-4.5,0.6-9,0.8-13.4c0.1-3,1-5.8,1.3-8.7c0.2-2.1,0.8-4.1,1.2-6.1
		c0.3-1.5,0.5-3,0.7-4.5c0.3-1.8,0.5-3.7,1.6-5.3c0.3-0.5,0.5-1.1,0.6-1.7c0.2-1.9,1.2-3.6,0.9-5.6c0-0.1,0-0.1,0-0.2
		c0.9-1,0.5-2.3,0.5-3.4c0.1-1,0.2-2.1,0-3.1c-0.2-1.1-0.5-2.3-1.6-3.1c-1,2.2-1.1,4.9-4,5.6c0.1,2.3-0.8,4.4-1.7,6.4
		c-0.9,2-1.9,4-2.8,6.1c0.8,0.3,1.5,0.6,2.2,0.9c0.2,0.1,0.3,0.4,0.5,0.7c-0.3,0.1-0.6,0.4-0.8,0.3c-0.6-0.1-1.2-0.4-1.8-0.7
		c-0.5-0.3-0.9-0.2-1.1,0.4c-1,2.1-1.9,4.3-2.9,6.4c-0.6,1.3-1.3,2.6-2,3.9c-0.1,0.2-0.6,0.2-0.9,0.3c0-0.3-0.1-0.6,0-0.9
		c0.6-1.2,1.2-2.3,1.8-3.5c1.1-2.3,2.2-4.7,3.2-7.1c1.6-3.6,3.5-7.1,4.8-10.8c0.8-2.2,0.5-4.8,0.7-7.2c-0.1,0-0.2-0.1-0.3-0.1
		c-1.8,3.6-3.6,7.2-5.4,10.8c0.4,0.2,0.8,0.2,1.1,0.4c0.3,0.2,0.5,0.6,0.8,0.8c-0.4,0.1-0.7,0.1-1.1,0.2c-0.1,0-0.2-0.1-0.2-0.1
		c-0.6-0.3-1-0.3-1.4,0.5c-1.7,3.3-3.5,6.5-5.3,9.8c-1.3,2.4-2.7,4.9-4,7.3c-0.2,0.4-0.4,0.8-0.8,0.5c-0.2-0.1-0.3-0.7-0.2-0.9
		c0.4-0.9,0.8-1.7,1.3-2.5c1.7-3,3.5-6,5.2-9.1c1.2-2.2,2.3-4.6,3.5-6.9c1.5-2.9,3-5.9,4.4-8.8c1-2.1,2.1-4.1,3.1-6.2
		c1.2-2.6,2.4-5.2,3.7-7.8c-0.8,0.1-1.5,0.1-2.1,0.2c-0.2,0-0.4,0.3-0.5,0.4c-0.6,0.9-1.1,1.9-1.6,2.8c-1.5,2.5-3,4.9-4.5,7.4
		C58.2,83.9,58,84,58,84.1c0.2,1.1-0.6,1.7-1,2.5c-0.6,1.1-1.3,2.1-1.9,3.1c-0.2,0.4-0.4,0.8-0.6,1.2c0.6,0.3,1.1,0.4,1.5,0.7
		c0.2,0.2,0.2,0.6,0.3,1c-0.3,0-0.6,0-0.9,0c-0.5-0.2-0.9-0.4-1.3-0.6c-0.6,1.4-1.1,2.6-1.6,3.8c-1,2.2-2.1,4.4-3,6.7
		c-1.2,2.9-3,5.4-4.8,7.9c-0.7,1-1.7,2.2-1.8,3.3c-0.3,3-0.3,6.1-0.4,9.2c0,2.2,0.3,4.5,0,6.7c-0.3,2.7-1.1,5.4-1.7,8.2
		c-0.6,2.7-1.4,5.4-1.8,8.2c-0.4,2.8-1.3,5.3-2.5,7.8c-0.8,1.6-1.5,3.3-2,5c-0.9,3-1.6,6.1-2.4,9.1c-0.4,1.4-0.9,2.7-1.4,4
		c-0.3,0.7-0.7,1.4-0.9,2.2c-0.3,1.1-0.2,2.2-0.5,3.3c-0.7,2.7-1.6,5.4-2.2,8.2c-0.9,4.1-1.9,8.1-3.8,11.8c-0.5,0-1.1,0-1.6,0
		c1.8-3.3,3-6.9,3.7-10.6c0.8-4.4,2.8-8.6,3.1-13.2c0-0.4,0-0.8-0.2-1.1c-0.9-1.3-1.8-2.6-2.7-3.8c-1.2-1.5-2.6-2.8-2.9-4.8
		c-0.2-1.1-0.8-1.9-1.6-2.7c-0.3-0.2-0.3-0.7-0.4-1.1c0.4-0.1,0.8-0.2,1.2-0.2c0.3,0,0.6,0.4,0.7,0.6c0.5,1,1,2,1.5,3.1
		c0.3,0.6,0.5,1.4,1,1.9c1.4,1.8,2.8,3.5,4.3,5.2c0.2-0.4,0.7-0.8,0.6-1.2c-0.2-1.1-0.5-2.1-0.9-3.2c-0.5-1.3-1.2-2.6-1.6-3.9
		c-0.8-2.5-2.2-4.7-3.7-6.8c-1.2-1.6-2.5-3.3-3.7-4.9c-0.4-0.6-1-0.9-1.6-0.4c-0.8,0.8-1.7,1.5-2.3,2.5c-2.4,4.1-4.2,8.5-5.4,13.1
		c-1,3.7-2.2,7.4-3.3,11.1c-0.7,2.5-1.5,5.1-2.2,7.7c-0.7,2.6-1.4,5.3-2.2,7.9c-0.4,1.5-0.9,3-1.3,4.6C1.1,197.5,0.5,197.5,0,197.5z
		 M123.5,44.1c-0.9,0.5-1.6,1.2-2.5,1.4c-2.6,0.6-5.2,1.1-7.8,1.5c-2.3,0.3-4.7,0.1-7,0.5c-2.3,0.4-4,1.9-4.5,4.4
		c-0.4,1.7-0.8,3.3-1.3,5c-0.1,0.3-0.4,0.7-0.6,0.7c-0.3,0-0.7-0.2-1-0.4c-0.3-0.2-0.4-0.6-0.6-0.9c-0.9-1.6-1.8-3.1-2.5-4.7
		c-1.1-2.3-1.9-4.8-1.8-7.4c0-0.4,0.1-0.7,0.1-1.3c-0.2,0.3-0.3,0.4-0.4,0.5c-1.9,2.9-4.5,5-7.5,6.6c-1.6,0.8-3.1,1.7-4.7,2.6
		c-0.7,0.4-1.4,1-2.1,1.5c-0.4,0.3-0.9,0.5-1.3,0c-0.4-0.6,0.1-0.9,0.4-1.2c2.2-2.4,4.5-4.8,6.7-7.3c0.8-0.9,1.5-3.3,1.3-3.9
		c-2.4,1.4-4.9,2.8-7.4,4.3c-1.1,0.6-2.2,1.2-3.3,1.9c-1,0.7-1.6,1.7-1.8,2.8c-0.2,2-1.1,3.6-2.1,5.3c-0.6,1-1.3,2.1-1.5,3.2
		c-0.3,1.9-0.1,4-1.3,5.7c1.6,1.3,2.1,2.9,2.1,4.7c0,0.3,0.1,0.8,0.2,0.8c0.9,0.2,0.8,1,1.1,1.7c1.1,2.9,1.1,5.7,0.2,8.6
		c-1.4,4.3-2.7,8.6-2.7,13.2c0,1.3-0.4,2.5-0.7,3.8c-0.3,1.4-0.9,2.8-1,4.2c-0.1,1.8-0.1,3.8,0.5,5.5c0.8,2.3,1.2,4.7,2.5,6.8
		c1.6,2.5,2.8,5.3,4.1,8c1.2,2.5,3.1,4.5,5.5,6c0.4,0.3,0.8,0.6,1.2,1c2.4,2.1,4.8,4.4,7.3,6.3c2.4,1.9,5,3.4,8,4.2
		c2.3,0.6,4.6,0.9,6.9,1.2c4.9,0.6,9.4-0.9,13.5-3.3c1.6-0.9,2.7-2.4,4.2-3.6c2.2-1.8,4.6-3.6,6.8-5.4c0.7-0.5,1.4-1.1,1.9-1.8
		c1.1-1.6,2.3-3.1,2.9-5c0.7-1.9,2.1-3.5,2.7-5.4c1-2.9,1.9-5.9,2.5-8.8c0.7-3.2,1.6-6.3,2.5-9.4c0.5-1.5,0.7-3.1,0.9-4.6
		c0.1-1-0.1-2-0.1-3c0.2-2.5-0.2-4.8-1.4-7c-1-1.9-1.1-3.7-0.5-5.7c0.6-2.1,1.1-4.2,1.6-6.2c0.3-1,0.5-2,0.8-3
		c0.2-0.5,0.5-0.9,0.2-1.5c-0.3-0.7-0.6-1.4-0.7-2.2c-0.3-2.2-0.6-4.4-0.7-6.6c-0.1-2.3-1-4.1-2.4-5.8c-0.1-0.2-0.4-0.4-0.6-0.3
		c-1.4,0.3-2.6-0.2-3.8-0.8c-0.6-0.3-1.3-0.7-1.5-1.3c-0.5-1-1.2-1.7-2.1-2.3c-1.3-0.9-1.8-0.8-2.5,0.7c-0.1,0.2-0.1,0.4-0.2,0.6
		c-0.6,1.3-0.9,2.8-2.1,3.8c-1.3,1.2-2.5,2.6-3.8,3.9c-0.3,0.3-0.7,0.4-1.1,0.6c-0.2-0.4-0.3-0.7-0.4-1.1c-0.1-0.2,0-0.4,0-0.6
		c0.7-3.1,1.3-6.2,2-9.3C123.3,45.6,123.4,44.8,123.5,44.1z M80.5,129.1c-1.8,1.1-3.4,2.2-5.1,3.3c-1.6,1-2,2.6-1.4,4.1
		c0.8,2.2,1.8,4.2,3.5,5.9c1.6,1.6,3.3,3,5.4,4c3,1.6,6.3,2.2,9.5,3.2c0.8,0.3,1.7,0.5,2.6,0.5c4.2,0.4,8.4,0.9,12.7,1.2
		c4.4,0.3,8.7,0.2,13-1.3c3.7-1.3,6.7-3.4,9.5-6c0.2-0.2,0.4-0.5,0.6-0.8c1.2-2.4,1.2-4.8,0.1-7.2c-0.3-0.6-0.5-1.2-1-1.5
		c-0.7-0.4-0.7-0.8-0.7-1.5c0-1.1,0-2.1,0-3.4c-1.8,1.4-3.3,2.7-4.8,4c-0.7,0.6-1.3,1.1-2,1.7c-1.4,1.2-2.8,2.5-4.3,3.5
		c-2.3,1.5-4.9,2-7.5,2.8c-1.7,0.5-3.4,0.7-5.2,0.5c-1.3-0.2-2.6-0.6-3.9-0.6c-3.4,0-6.3-1.3-9.2-2.8c-3.2-1.7-5.9-4-8.5-6.5
		C82.7,131.2,81.6,130.2,80.5,129.1z M146.6,127.7c0.8-0.6,1.6-1.1,2.3-1.8c0.8-0.9,1.8-1.8,2.1-2.9c0.8-2.7,0.6-5.5-0.2-8.2
		c-0.6-1.9-1.1-3.9-1.7-5.8c-0.8-2.6-2-4.9-3.6-7.2c-0.5,0.7-0.9,1.4-1.4,2c-0.8,0.9-1.7,1.6-2.9,1.6c-0.6,0-0.7,0.3-0.8,0.7
		c-0.5,2.1-0.9,4.2-1.5,6.2c-0.5,1.8-1,3.5-1.5,5.1c0.9,0.8,1.7,1.5,2.6,2.3c0.5,0.5,1,1.1,1.6,1.5C144,122.8,145.5,125,146.6,127.7
		z M63.4,127.1c0,0.7,0,1.4,0,2.1c-0.2,2.4-0.5,4.7-0.5,7.1c0,2.9-0.4,5.7-1.1,8.5c-0.5,2-0.2,4,0.5,6c0.6-0.9,1-1.7,1.6-2.5
		c1.7-2,2.7-4.4,3.6-6.9c0.7-2.1,1.3-4.2,1.8-6.4c0.9-3.9,2.9-7.2,5.2-10.4c0.3-0.4,0.3-0.7,0-1.2c-0.7-1.3-1.4-2.7-2.1-4.1
		c-0.7-1.3-1.3-2.6-2-4c-0.2,0.1-0.4,0.2-0.4,0.4c-0.8,1.3-1.7,2.7-2.4,4.1c-1,2-1.8,4.1-2.6,6.1c0.4,0.5,0.9,1.1,1.4,1.8
		c0.4,0.5,0.9,1,1.3,1.6c0.2,0.3,0.3,0.6,0.4,0.9c0,0.1-0.3,0.4-0.4,0.4c-0.3-0.1-0.7-0.2-0.9-0.4c-0.6-0.7-1.1-1.5-1.7-2.3
		C64.8,127.1,64.3,126.8,63.4,127.1z M20.8,149.8c2,2.8,4.1,5.4,5.8,8.3c1.7,2.9,2.8,6.1,4.3,9.3c0.4-1.5,1-2.8,1.2-4.2
		c0.7-3.9,2-7.6,3.8-11.2c1-2.1,1.7-4.3,1.8-6.6c-1.1,0-2.1-0.1-3.2,0c-2.3,0.3-4.3,1.2-6.5,2C25.7,148.3,23.3,149,20.8,149.8z
		 M70,85.9c0.8-2.7,1.5-5.2,2.2-7.7c0.4-1.4,0.4-2.8-0.2-4.3c-1.6,1.8-2.9,3.8-5.7,3.1c-1,1.9-1.9,3.9-2.9,6
		C66.1,81.9,68.4,81.7,70,85.9z M63.5,124.4c0.1,0,0.2,0.1,0.4,0.1c0.6-1.2,1.3-2.4,1.8-3.7c0.8-2.4,1.8-4.7,3.6-6.5
		c0.2-0.2,0.2-0.5,0.2-0.7c-0.3-1.1-0.6-2.2-0.9-3.3c-0.5-1.7-1-3.3-1.5-4.9C65.9,111.6,64.7,118,63.5,124.4z M186.9,154.2
		c-2.1-2-4.8-2.7-7.8-3.5c0.7,2.6,1.3,5,1.9,7.4C183.1,156.7,185,155.5,186.9,154.2z M57.4,82.3c0.1-0.1,0.2-0.1,0.2-0.2
		c1-1.7,2-3.3,3-5c0.1-0.2,0.1-0.5,0-0.8c-0.1-1.5-1.2-2.6-2.1-3.7c-0.2-0.3-0.7-0.5-1-0.4c-0.3,0.1-0.6,0.5-0.6,0.8
		C56.5,76.2,56.3,79.3,57.4,82.3z M78.8,128.5c-0.8-0.9-1.6-1.8-2.4-2.7c-0.3-0.4-0.6-0.4-1,0c-0.2,0.3-0.5,0.6-0.7,0.9
		c-0.7,1.1-1.4,2.2-2,3.4c-0.6,1.2-1.1,2.4-1.6,3.6c0.1,0,0.1,0.1,0.2,0.1C73.7,132,76.2,130.2,78.8,128.5z M136.3,134.5
		c-0.2-1.2-0.6-2.2-1.5-2.8c-1.2-0.8-1.8-2-2.5-3.2c-0.2-0.3-0.8-0.8-0.8-0.8c-0.5,0.4-1.3,0.8-1.4,1.4c-0.2,0.9,0,1.9,0,2.8
		c0,0.7,0.3,0.9,1,1c1.2,0.2,2.4,0.6,3.6,0.9C135.2,134,135.7,134.3,136.3,134.5z M61.7,75.6c0.5-1,1-1.9,1.4-2.8
		c0.1-0.2,0-0.4-0.1-0.6c-0.4-1-0.8-1.9-1.2-2.9c-0.3-0.8-1.3-1.3-2-0.9c-1,0.5-1.7,1.3-2,2.4C59.8,71.9,60.7,73.7,61.7,75.6z
		 M64.9,72.1c0.3,0,0.7,0,1-0.1c1.3-0.5,2.2-1.5,3.3-2.4c0.9-0.8,1-1.5,0.5-2.6c-0.6-1.1-1-1.2-1.9-0.3C66.2,68.1,65.6,70,64.9,72.1
		z M140.8,104.2c0.6-0.2,1.1-0.3,1.4-0.6c0.7-0.8,1.4-1.7,2-2.6c0.3-0.4,0.5-0.9,0.4-1.3c-0.3-1.2-0.8-2.4-1.3-3.7
		C142.5,98.7,141.7,101.3,140.8,104.2z M66.5,75.8c1.2,0.5,1.2,0.5,2,0c1.3-0.8,2.2-2,3-3.2c0.2-0.4-0.2-1.1-0.7-1.1
		c-0.7-0.1-1.4-0.1-1.9,0.6C68.1,73.3,67.3,74.5,66.5,75.8z M63.7,88.4c1.5-0.6,2.8-3.5,2.4-5c-1.8,0.1-2.1,0.4-2.4,2
		C63.5,86.3,63.7,87.3,63.7,88.4z M148.9,76.6c0.1,0,0.2,0,0.3-0.1c0-1,0.1-1.9,0-2.9c-0.1-1.3-0.9-1.9-2-1.7
		C147.1,73.8,148.3,75,148.9,76.6z M146.5,87c0.6,1.7,1.1,3.3,2.7,4.4c-0.1-0.5-0.1-0.9-0.2-1.3c-0.1-0.4-0.1-0.8-0.2-1.2
		C148.5,87.6,147.9,86.6,146.5,87z M145.7,76.6c-0.5-1.6-1.3-2.8-2.7-3.6c-0.8,1,0,1.8,0.3,2.6C143.7,76.4,144.6,76.7,145.7,76.6z"
		/>
	<path class="st0" d="M92.3,121.3c2-0.7,3.8-1.4,5.6-2.1c1.5-0.5,3.1-1,4.6-1.5c1.1-0.4,2.2,0,3.1,0.6c0.7,0.5,1.3,0.7,2.1,0.2
		c2.3-1.4,4.5-0.9,6.6,0.6c1.2,0.8,2.5,1.3,3.8,2c1.2,0.6,1.3,0.9,0.3,1.8c-1.1,1-2.1,1.9-3.3,2.8c-0.9,0.8-2,1-3.2,1.1
		c-3,0-6,0.1-9,0.1c-2.2,0-4.3-0.7-6-2.1c-0.7-0.6-1.5-1.1-2.2-1.7c-0.1-0.1-0.2-0.2-0.3-0.2C93.4,122.8,93.1,121.9,92.3,121.3z
		 M95.5,122.5c0.7,0.5,1.4,1.1,2.2,1.5c1.3,0.6,2.5,1.5,3.9,1.6c3.3,0.3,6.6,0.1,9.9,0.2c2.5,0.1,4.2-1.4,5.9-3.2
		C109.9,122.4,102.8,121,95.5,122.5z M95,121.1c0,0.1,0,0.2,0.1,0.3c0.5,0,1.1,0,1.6-0.1c1.8-0.2,3.5-0.5,5.3-0.4
		c2.5,0,5,0.3,7.5,0.4c2.2,0.1,4.4,0,6.5,0c0-0.1,0-0.2,0-0.2c-0.9-0.5-1.8-1-2.7-1.6c-1.7-1.2-3.5-1.1-5.3-0.2
		c-0.9,0.5-1.7,0.6-2.6-0.1c-1.2-0.8-2.5-0.9-3.8-0.3c-1.3,0.5-2.7,0.9-4,1.4C96.7,120.5,95.9,120.8,95,121.1z"/>
	<path class="st0" d="M101.4,100.3c-0.1,0.3,0,0.7-0.2,0.9c-0.5,1-1.1,1.9-1.6,2.8c-0.8,1.6-0.2,2.5,1.6,2.6c0.7,0,1.4,0.1,2.2,0.1
		c1.2-0.1,1.9,0.7,2.7,1.4c0.7,0.5,1.4,1.1,2.2,1.4c1.2,0.4,2.2-0.1,3-0.9c0.8-0.8,1.8-1.4,3-1.5c2-0.3,2.5-1.8,1.2-3.4
		c-0.6-0.8-1.3-1.6-1.7-2.5c-0.4-0.8-0.4-1.8-0.5-2.8c0-0.2,0.4-0.5,0.6-0.7c0.1,0.3,0.3,0.5,0.3,0.8c-0.3,1.8,0.6,3.1,1.7,4.2
		c0.8,0.8,1,1.7,1.2,2.6c0.3,1.4-0.9,2.8-2.4,2.9c-1,0.1-1.9,0.4-2.7,1.1c-1.2,1.2-2.7,1.5-4.3,1.2c-0.9-0.1-1.6-0.7-2.1-1.5
		c-0.5-0.8-1.3-1.1-2.2-1.2c-1.1-0.1-2.3-0.3-3.4-0.6c-1.5-0.4-2.1-1.5-1.5-2.9c0.6-1.5,1.6-2.8,2.3-4.2
		C101,100.2,101.2,100.2,101.4,100.3z"/>
	<path class="st0" d="M89.3,87.6c-3.6,0-6.5-0.9-8.9-3c-0.2-0.2-0.3-0.6-0.2-0.8c0.3-0.5,0.8-0.4,1.2-0.1c0.7,0.5,1.4,1,2,1.5
		c1.1,0.9,2.4,0.8,3.7,1.1c2.5,0.5,5,0.1,7.3-0.9c1.2-0.5,2.4-0.9,3.6-1.2c0.2-0.1,0.6,0.2,0.9,0.3c-0.2,0.3-0.3,0.7-0.5,0.8
		C95.2,86.4,92.1,87.7,89.3,87.6z"/>
	<path class="st0" d="M126,88.1c-2.5-0.1-4.3-0.5-6-1.6c-0.4-0.2-1-0.3-1.4-0.2c-0.5,0.1-0.9,0.3-1.1-0.3c-0.1-0.5,0.5-1.2,1-1.1
		c0.7,0.1,1.5,0.2,2.1,0.6c1.3,0.8,2.6,1.3,4,1.3c1.6,0,3.3,0.1,4.9,0c1.1-0.1,2.2-0.4,3.2-0.6c0.3-0.1,0.5-0.4,0.7-0.5
		c0.4-0.1,0.8-0.2,1.2-0.2c0.1,0,0.4,0.4,0.4,0.5c-0.2,0.3-0.5,0.8-0.8,0.8c-1.7,0.4-3.4,0.8-5.1,1.1C128,88,126.8,88,126,88.1z"/>
	<path class="st0" d="M127.3,76.2c1.6,0.1,3.1,0.2,4.6,0.3c0.7,0,1.4-0.2,2.1-0.1c0.4,0,0.8,0.4,1.2,0.6c-0.3,0.2-0.7,0.6-1,0.6
		c-1.5,0-3.1-0.2-4.6-0.1c-2.4,0.2-4.8,0.5-7.2,0.8c-1.4,0.2-2.7,0.4-4.1,0.6c-0.2,0-0.6-0.2-0.6-0.4c0-0.2,0.1-0.7,0.3-0.7
		c0.4-0.2,1-0.3,1.5-0.4c1.6-0.3,3.2-0.5,4.8-0.7C125.2,76.4,126.3,76.3,127.3,76.2z"/>
	<path class="st0" d="M98.1,76.1c-0.5,0.2-0.8,0.5-1.1,0.4c-0.7-0.1-1.3-0.3-2-0.5c-3.5-0.9-7-0.5-10.5-0.3c-1,0.1-1.9,0.4-2.8,0.5
		c-0.4,0-1-0.2-1.1-0.4c-0.2-0.6,0.4-0.6,0.8-0.7c3.9-0.9,7.8-1.1,11.7-0.7c1.4,0.1,2.8,0.6,4.2,1C97.5,75.4,97.6,75.7,98.1,76.1z"
		/>
</g>
</svg>
