<?xml version="1.0" encoding="utf-8"?>
<!-- Generator: Adobe Illustrator 19.2.1, SVG Export Plug-In . SVG Version: 6.00 Build 0)  -->
<svg version="1.1" id="Layer_1" xmlns="http://www.w3.org/2000/svg" xmlns:xlink="http://www.w3.org/1999/xlink" x="0px" y="0px"
	 viewBox="0 0 200 202.7" style="enable-background:new 0 0 200 202.7;" xml:space="preserve">
<style type="text/css">
	.st0{fill:#1976D2;}
</style>
<path id="icon-child-dandruff" class="st0" d="M196.4,86.6c-7-9.2-14.9-17.9-22.9-26.2c-7.9-8.2-16.3-16-24.8-23.6
	c-3.8-3.4-8.1-6.5-12.6-8.9c-9.2-4.8-19-8.7-24.9-18.1c-1.3-2-3-2.4-5.4-1.5c-2.6,0.9-5.2,0.8-7.9-0.9c-7-4.5-14.4-7.6-23.2-6.9
	c-2.3,0.2-4.8,0-7.1-0.5c-1.5,0.4-3.1,0.6-4.6,0.8C58.2,1.3,54.6,3,51.1,6.4c-0.2,0.2-0.5,0.5-0.7,0.7c-1.8,3.2-4.2,5.9-7.1,8.2
	c-3.1,4.2-5.7,8.9-7,13.6c-0.6,2.2-1.1,4.4-1.5,6.6c0.9,5.7,1.8,11.3,2.6,17c0.5,3.5,1.3,7.1,1,10.5c-0.5,5.6,1.3,10.4,4.8,14.3
	c1.8,2,2.8,4.1,3.7,6.5c4.2,11.1-0.1,16.6-8.1,22.8c-2.1,1.6-5.1,1.9-7.5,0.2c-2.1,2.5-3.9,4.9-6,7c-2.1,2.1-4.4,4.1-6.7,6
	c-4.3,3.5-8.3,7.3-10.4,12.7c-1.8,4.7-3.6,9.5-6.2,13.8c-1.7,2.9-2.3,5.6-1.7,8.5c1,4.6,2.3,9.2,3.7,13.7c0,0.3,0,0.7,0.2,1.1
	c0.9,2.7,2,7.8,4,11.6c0,0.5,0.1,1,0.2,1.3c0.5,1.5,1.2,2.8,2.4,3.8c0.1,0.1,0.1,0.1,0.2,0.2c0.1,0.2,0.2,0.4,0.3,0.6
	c0.9,5.4,2.1,11.1,4.6,15.6h127.5c-0.1-0.5-0.3-1.1-0.4-1.5c-1.2-4.8-2.2-11.1-4.9-15.6c0.5-1.1,0.4-2.4-0.5-3.5
	c-0.2-0.3-0.5-0.6-0.7-0.8c0.1-0.4,0.1-0.9,0-1.3c-0.7-2.8-1.3-5.7-2-8.5c0.1-0.8,0.1-1.2,0.1-1.6c-0.4-7.4-2.5-14.7-0.7-22.3
	c1.4-5.8,3.9-9.3,9.4-10.5c6-1.3,12.2-1.8,18-3.6c7.9-2.4,10-2.8,10.5-11.8c0.1-0.9,1.1-2.1,2-2.7c6-3.7,12.2-7.1,18-11.1
	C200.7,101.9,202.5,94.6,196.4,86.6z M42.7,73.3c-0.3-0.1-0.6-0.3-0.8-0.7c-0.5-1.1-0.8-2.3-1.2-3.4c-0.1-0.2-0.2-0.5-0.3-0.7
	c-0.1-0.3-0.1-0.6-0.2-0.9c0-0.1,0-0.1,0-0.2c-0.7-0.4-1.2-1.3-0.8-2.2c0.4-0.8,1.3-1.3,2.2-1c0.5,0.2,0.9,0.5,1.1,1
	c0.3,0.2,0.5,0.5,0.7,0.8c0.8,1.9,1.4,3.8,1.4,5.9c0,0.1,0,0.3,0,0.4c0.4,1.4,0.6,2.8,0.8,4.3C44.4,75.4,43.5,74.4,42.7,73.3z
	 M17.4,173.9c-1.1-2-2.4-3.8-3.1-5c-0.3-0.5-0.7-0.9-1.2-1.1c-1.9-2.8-3.6-5.4-5.3-7.9c-3.4-4.9-5.2-10.2-3.6-12.6
	c0.9,1.5,1.7,2.9,2.5,4.3c2.5,4.4,5.5,8.6,7.5,13.3c0.8,2,1.9,3.4,3.1,4.5c0.3,1.5,0.7,3,1.2,4.5C18.1,173.8,17.7,173.9,17.4,173.9z
	 M92.3,35.9c0.8-0.8,2.4,0,2,1.1c0,0.1,0,0.1-0.1,0.2c0.3,0.7-0.2,1.8-1,1.7c-0.3,0.3-0.6,0.5-1.1,0.5c-0.4,0-0.8-0.2-1-0.5
	c-0.4,0-0.8-0.1-1.1-0.6c-0.3-0.5-0.2-1.3,0.4-1.6c0.5-0.2,0.9-0.3,1.4-0.3C92,36.2,92.2,36,92.3,35.9z M87.9,16.2L87.9,16.2
	c0.2-0.5,0.7-0.9,1.2-0.9c0.2-0.3,0.6-0.5,1-0.5c0.1,0,0.2,0,0.3,0c0.2,0,0.4,0,0.6,0c0.5,0.1,0.9,0.6,0.9,1.1c0,0.2,0,0.4-0.1,0.6
	c0,0,0,0.1,0,0.1c0.3,0.7,0.1,1.1-0.2,1.7c-0.2,0.4-0.6,0.3-1,0.3H90c-0.3,0-0.6,0.1-0.8-0.1c-0.3,0.3-0.7,0.5-1.1,0.4
	c-0.5-0.1-0.9-0.6-0.9-1.1C87.3,17.4,87.4,16.7,87.9,16.2z M73.9,27.1C73.9,27.1,73.9,27.1,73.9,27.1c0.1-0.2,0.2-0.4,0.3-0.5
	c0,0,0.1-0.1,0.1-0.1c0,0,0,0,0,0c0.1-0.1,0.2-0.1,0.3-0.2c0,0,0,0,0.1,0c0.1,0,0.2,0,0.3,0c0,0,0,0,0.1,0c0.4,0,1,0,1.3,0.4
	c0.1,0.1,0.2,0.3,0.2,0.4c0,0,0,0,0,0c0.4,0.4,0.4,1,0.2,1.4c0,0-0.1,0.1-0.1,0.1c-0.2,1-1.2,1.6-2.2,1.1
	C73.6,29.2,73.6,28,73.9,27.1z M66,13.5c0,0,0.3,0.1,0.7,0.3c0.1,0,0.2,0,0.4,0c0,0,0.1,0,0.1,0c0.2,0,0.3,0,0.4,0.1
	c0.7,0.1,1.3,0.4,1.6,1c0.3,0.6,0.3,1.1,0,1.7c-0.1,0.1-0.1,0.2-0.2,0.3c0,0.8-0.6,1.3-1.3,1.3c-0.1,0-0.2,0-0.3,0
	c-0.4,0.1-0.8,0-1.1-0.3c-0.1-0.1-0.1-0.1-0.2-0.2c-0.1,0.2-0.3,0.5-0.4,0.7c-0.6-0.3-1.2-0.6-1.8-1C64.6,16.1,65.2,14.8,66,13.5z
	 M43.4,118.5c-2.9,0.7-6.1,1.1-8.6-1.6c10.2,0.6,17.7-5.6,26-10C60.6,110,50.6,116.7,43.4,118.5z M91.9,98.7
	c-3.2,1.5-8.1,0.2-11-1.4c-0.6-0.3-1.2-0.7-1.7-1.1c-0.5-0.2-1-0.4-1.5-0.7c-2.9-1.7-5.5-1.7-8.2-1c-4.5,1.1-8.9,2.5-13.2,4.1
	c-3.1,1.1-6,2.8-9,4.2c5.6-6.2,2.8-12.9,1.8-19.4c-0.2-1.3-0.3-2.7-0.4-4.4c0,0,0.1,0.1,0.1,0.1c0.3,1.1,1.1,1.7,1.9,1.7
	c0.5,0.4,1,0.8,1.5,1.1c0.8,1.1,2,1.6,4.1,1.3c1.7-0.2,3.3-1,4.6-2.1c0.7-0.6,2-1.8,3-2.3c0.6,0,1.1,0.4,1.5,0.9
	c0,0.3,0,0.7-0.1,1.1c-0.2,1.2,0.3,2.7,1.7,3c2.1,0.4,5.9,0.5,6.5-2.4c0-0.2,0.1-0.3,0.1-0.5c0.4-0.3,0.8-0.6,1.2-0.8
	c0.1,0.1,0.1,0.2,0.2,0.4c0.6,1.2,1.8,2.7,3.2,3.1c3.2,0.8,4.5-0.9,5.1-3.5c0.3,0.2,0.5,0.3,0.8,0.4c0.7,0.6,1.4,1,2,0.8
	c0.9,0.4,1.9,0.4,2.8,0c1-0.4,1.8-1.2,1.8-2.3c0-0.3,0-0.7-0.1-1c0.1,0.3,0.3,0.6,0.4,0.9c0.1,1,1.1,1.7,2.2,1.7
	c0.4,0,0.8-0.2,1.2-0.4c0.1,0.1,0.3,0.2,0.5,0.1c1-0.5,1.7-1.5,1.8-2.6c0,0,0-0.1,0.1-0.1c0-0.1,0-0.2,0-0.3c0-0.1,0-0.2,0-0.3
	c0-0.2-0.3-0.4-0.4-0.3c-0.1-0.1-0.2-0.1-0.4,0L95,77c-0.1,0-0.2,0.2-0.2,0.3c-0.1,0.4-0.4,0.6-0.7,0.7c-0.4-0.3-0.6-0.8-0.8-1.3
	c0-0.2-0.1-0.3-0.1-0.5c-2.4-9.4-2.8-13.3,4.3-19.3c1-0.8,3.5-1.4,4.1-0.8c1.6,1.5,0.7,3.2-0.9,4.7c-0.4,0.4-0.7,0.7-1,1
	c0,0,0,0,0,0c0-0.1,0-0.3-0.1-0.4c-0.2-0.5-0.7-0.8-1.3-0.9c-0.8-0.1-1.7,0.2-2.1,0.9c-0.1,0.1-0.1,0.1-0.2,0.2c0,0,0,0,0,0
	c0,0,0,0,0,0.1c-0.1,0.1-0.1,0.2-0.2,0.3c0,0,0,0,0,0c0,0-0.1,0-0.1,0c-0.2,1.5-0.5,2.9-0.7,4.4c0.6,0.1,1.1,0.2,1.7,0.4
	c0.3-1.3,0.6-2.6,0.9-4c0.1,0.1,0.2,0.1,0.3,0.2c0.2,0.4,0.5,0.7,0.8,0.9c0,0,0,0,0,0.1c0.1,0.1,0.2,0.2,0.4,0.2
	c0.2,0.4,0.6,0.9,1,1.6c2-3.4,5.3-5.8,4.3-10.7c-0.7-3.2,2.7-4.5,5.2-5.6c0.1,0,0.1,0,0.2-0.1c0.4,0.1,0.8,0.1,1.2,0.2
	c0.4,0.4,0.9,0.7,1.4,1c0.2,0.1,0.6,0,0.5-0.3c0.1,0,0.2,0,0.2,0c0.3,0.2,0.5,0.6,0.6,1c0,0.2,0.1,0.2,0.2,0.2
	c0,0.1,0.1,0.3,0.1,0.4c0.1,0.2,0.4,0.3,0.6,0.2c0,2.6-0.6,5-2.2,6.7c-5.7,6.1-7.5,13.9-10.1,21.3c-0.4,1.1-0.8,2.2-1.1,3.4
	c-0.3,3.1-1.5,6.7-3.4,9.7c-0.1,0.1-0.1,0.3-0.3,0.4C96.1,95.7,94.2,97.7,91.9,98.7z M128.8,123.9c-0.4,0-0.7,0-1.1,0
	c-0.1-0.8-0.7-1.9-0.4-2.4c4.1-7.3,8.4-14.5,12.7-21.8c0.2-0.4,0.6-0.6,1-0.9c0.4,0.2,0.7,0.3,1.1,0.5
	C139.7,108.6,133.4,115.8,128.8,123.9z M162.3,91.9c-3.8-0.2-7.6-0.4-11.4-0.5c-1.2,0-2.5,0.2-3.7,0.6c-2.7,0.7-5.4,1.5-8.1,2.5
	c-1.1,0.4-2.3,1.1-3.1,2c-1.9,2.2-3.9,2.5-6.5,1.4c-1.4-0.6-3.2-1.2-4.6-1c-3.4,0.6-6.6,0.7-10.1,0.2c-2.8-0.4-5.8,2.2-8.9,3
	c-1.6,0.4-3.8,0.8-5.1,0.1c-1.4,0.4-2.9,0.8-4.4,1c-0.6,0.1-1-0.6-0.8-1.1c0.7-2.9,2.8-5,4.6-7.4c2.3-6.7,3.3-14.3,6.9-20.1
	c1.4-4.4,2.7-8.9,6.2-12.5c0.5-0.5,1-1.1,1.4-1.7c0.2-0.8,0.4-1.7,0.6-2.5c1.1-4.5,1.2-9.6-0.5-13.9c-0.3-0.9,0.9-1.4,1.4-0.8
	c0.2,0.1,0.3,0.3,0.5,0.4c0.9-0.5,2.7-0.5,5.5-0.4c9.3-1.5,14.9,5.6,20.6,12.2c9.2,10.5,16.2,22.3,21.7,35.1
	C165.8,90.8,164.9,92,162.3,91.9z M194.3,103.1c-3.6,3-7.2,6.1-11.2,8.5c-3,1.9-6.6,2.8-9.8,4.2c-2-7.9-3.8-15.1-5.7-22.4
	c3.1,0.2,6.5,0.5,9.9,0.7c0.1-0.5,0.1-1,0.2-1.4c-3.4-0.6-6.9-1.1-10.7-1.7c-2.7-11.1-9.1-20.7-15.7-29.9c-5-7-11.3-13-17.3-19.2
	c-1.3-1.3-3.7-1.7-5.7-2c-3.1-0.5-6.5-1.4-9.5-0.8c-7.7,1.4-13-5.4-20.1-5.6c-0.9,0-2-0.8-2.6-1.6c-1-1.2-1.6-2.7-2.4-4.1
	c1.6-0.4,3.3-1.4,4.8-1.1c2.6,0.4,5,1.7,7.6,2.3c1.3,0.3,2.8-0.3,4.3-0.5c-0.3-1.5-0.3-3.2-1-4.5c-2.4-4.3-5-8.4-7.5-12.6
	c0.2-0.1,0.5-0.4,0.8-0.5c6.7-1.6,6.1-1.1,10.7,4.2c3.4,4,8.1,7.5,12.9,9.5c10.9,4.8,19.7,11.8,27.8,20.5
	c6.2,6.8,13.8,12.3,20.6,18.5c3.2,3,6.2,6.2,9,9.6c4.2,4.9,8.1,10,12.1,15.2c2.6,3.4,2.3,7.4,1.4,11.3
	C196.6,100.9,195.4,102.1,194.3,103.1z"/>
</svg>
