<?xml version="1.0" encoding="utf-8"?>
<!-- Generator: Adobe Illustrator 19.2.1, SVG Export Plug-In . SVG Version: 6.00 Build 0)  -->
<svg version="1.1" id="Layer_1" xmlns="http://www.w3.org/2000/svg" xmlns:xlink="http://www.w3.org/1999/xlink" x="0px" y="0px"
	 viewBox="0 0 138.1 161.9" style="enable-background:new 0 0 138.1 161.9;" xml:space="preserve">
<style type="text/css">
	.st0{fill:#BF360C;}
</style>
<g id="icon-child-toothache">
	<path class="st0" d="M50.3,161.9C50.3,161.9,50.3,161.9,50.3,161.9c1-2.1,1.6-4.2,2.5-6.2c1.1-2.7,2.3-5.4,3.4-8
		c0.6-1.5,1.2-2.9,1.7-4.4c0.5-1.4-0.1-2.5-1-3.5c-0.3-0.3-0.7-0.5-1.1-0.8c-0.6-0.4-1.1-0.9-1.7-1.3c-0.9-0.6-1.9-1.3-2.8-1.9
		c-1.4-1-2.8-2.1-4.3-3c-1.3-0.8-2.7-1.4-4.1-2.2c-1.1-0.6-2.1-1.3-3.1-2c-1-0.7-1.4-1.9-1.5-3.1c-0.1-1.7-0.6-3.3-1.4-4.8
		c-0.7-1.3-1.2-2.7-1.8-4c-0.8-1.9-1.6-3.8-2.5-5.6c0-0.1-0.1-0.2-0.1-0.4c0.1,0,0.1-0.1,0.2-0.1c1.5,2.3,3,4.6,4.4,7
		c1.4,2.4,2.6,4.9,4,7.3c0.6,1,1.6,1.7,2.4,2.5c0.1,0.1,0.5,0.1,0.7,0.1c0-0.2,0-0.6-0.1-0.7c-0.3-0.3-0.7-0.6-1.1-0.9
		c-1.2-1-2-2.4-2.7-3.7c-1.1-2-2-4.1-3.2-6.1c-0.7-1.3-1.6-2.5-2.5-3.7c-0.2-0.3-0.4-0.6-0.6-1c0.4-0.3,0.8-0.7,1.2-1
		c0.4-0.4,0.4-0.5-0.1-1c-0.3,0.3-0.7,0.6-1,0.9c-0.4,0.3-0.7,0.4-1-0.2c-0.9-1.6-1.9-3-3.3-4.3c-0.5-0.4-0.7-1.1-1.2-1.5
		c-1.3-1.3-2.4-2.9-3.2-4.5c0.4-0.3,0.9-0.7,1.4-1.1c1.5,1.3,3.4,2,4.6,3.9c0.7,1.2,1.9,2.1,2.7,3.3c1.2,1.6,2.4,3.2,3,5.1
		c0.5,1.6,1.5,2.9,2.8,4c1.4,1.1,2.3,2.7,3.1,4.3c0.3,0.6,0.7,1.2,1.1,1.8c0.1,0.1,0.4,0.1,0.6,0.1c0-0.2,0.1-0.5,0-0.6
		c-0.3-0.6-0.8-1.1-1.1-1.8c-0.9-1.8-2-3.5-3.6-4.8c-1-0.8-1.6-1.9-2.1-3.1c-0.2-0.5-0.3-1-0.5-1.5c0.4-0.4,0.9-0.7,1.3-1.2
		c0.1-0.1,0.1-0.4,0.2-0.6c-0.2,0-0.5-0.1-0.7,0.1c-0.4,0.3-0.7,0.6-1.2,1c-0.3-0.5-0.6-1-1-1.4c-1.1-1.4-2.2-2.7-3.3-4.1
		c-0.4-0.5-0.8-1.1-1.2-1.6c-0.7-1-1.5-1.6-2.5-2.2c-0.6-0.4-0.6-0.6-0.1-1.1c0.4-0.4,0.9-0.8,0.9-1.5c0-0.5,0-1,0-1.4
		c0.8,0.7,1.8,1.5,2.7,2.2c0.7,0.5,1.4,0.9,2.1,1.3c0.6,0.3,0.6,0.8,0.4,1.4c-0.2,0.9,0.1,1.9,1,2.4c1.5,0.8,2.5,2.1,3.6,3.4
		c1.7,2.1,3.4,4.3,5,6.5c0.9,1.3,1.7,2.7,2.6,4c0.2,0.3,0.3,1,0.8,0.7c0.5-0.3,0.1-0.8-0.1-1.1c-1-1.6-2.1-3.2-3.1-4.8
		c-0.1-0.2,0-0.6,0.1-0.7c0.3-0.3,0.7-0.5,1.1-0.7c0.1-0.1,0.3-0.2,0.3-0.3c0.1-0.2,0.1-0.4,0.1-0.7c-0.2,0-0.5-0.1-0.6,0
		c-0.6,0.4-1.2,0.8-1.7,1.2c-1.8-2.3-3.6-4.5-5.4-6.8c1.6-1.2,1.4-2.5,0-3.9c2.3,0.4,4.1,1.6,5.8,3c1.6,1.3,3,2.8,4.5,4.2
		c0.8,0.8,1.5,1.9,2.4,2.7c1.8,1.6,3.6,3.1,5.5,4.6c0.3,0.2,0.7,0.4,1,0.6c0.5,0.4,1,0.8,1.5,1.2c1,0.7,1.9,1.5,2.9,2.2
		c1.9,1.3,3.8,2.5,5.6,3.9c1.1,0.8,2.2,1.6,3.1,2.6c1.3,1.4,2.6,2.7,3.4,4.4c0.3,0.7,0.8,1.3,1,2c0.3,1.1,0.5,2.3,0.6,3.5
		c0.2,1.7,0.4,3.4,1,5c0.1,0.4,0.1,0.8,0.2,1.2c0.1,0.9,0.2,1.8,0.1,2.7c-0.3,2.4-0.7,4.7-1.1,7.1c-0.2,1.1-0.2,2.2-0.4,3.4
		c-0.2,1.6-0.4,3.1-0.6,4.7c-0.1,1.1-0.3,2.1-0.4,3.2c0,0.1,0,0.1,0,0.2h63.1c-0.2-0.6-0.4-1.1-0.5-1.7c-0.7-2.5-1.3-5.1-2-7.6
		c-0.1-0.3-0.2-0.5-0.3-0.8c-0.5-1.1-1.2-2.1-1.5-3.2c-0.5-1.6-1.3-3-2.3-4.2c-1.5-1.8-3.1-3.4-4.7-5.1c-0.5-0.5-1-1-1.5-1.4
		c-2.2-1.3-4.3-2.8-6.6-3.9c-2.4-1.2-4.6-2.7-6.6-4.5c-2.5-2.1-5.2-4-8-5.7c-2-1.3-3.6-2.9-3.5-5.5c0-0.1,0-0.1,0-0.2
		c-0.4-1.5-0.8-3.1-1.2-4.6c-0.4-1.7-0.3-3.5-0.1-5.2c0.1-0.8,0.4-1.5,0.5-2.2c0.4-1.9,0.7-3.8,1.1-5.6c0.4-1.8,0.6-3.5-0.1-5.3
		c-0.1-0.2,0-0.5-0.1-0.7c-0.2-0.9-0.3-1.9-0.7-2.7c-0.3-0.8-1-1.4-1.4-2.1c-1.2-2.5-1.3-5.1-0.4-7.7c0.2-0.6,0.3-1.3,0.3-2
		c0-1.1,0-2.1-0.1-3.2c-0.1-1.3-0.7-2.4-1.3-3.6c-0.1-0.3-0.3-0.6-0.3-0.9c0-0.8,0.2-1.6,0.2-2.4c0-1.2,0-2.5,0-3.7
		c0.1-1.4-0.3-2.7-1.2-3.6c-0.8-0.9-0.6-1.7-0.5-2.6c0.3-1.8,0.3-3.6-0.2-5.4c-0.3-1.1-0.6-2.1-1-3.1c-0.5-1.5-1.1-3-1.7-4.4
		c-0.3-0.6-0.4-1.1-0.4-1.8c-0.1-1.9-0.1-3.8-0.3-5.7c-0.1-1.6-0.7-3-1.7-4.2c-0.4-0.5-0.4-1-0.4-1.6c0-1.5,0.1-3-0.1-4.5
		c-0.2-1.8-0.9-3.4-1.9-4.9c-0.7-1.1-1.3-2.4-2.6-3.1c-0.2-0.1-0.3-0.4-0.3-0.5c-0.1-1.5-0.2-3-0.3-4.5c0-0.5-0.1-0.9-0.2-1.4
		c-0.5-1.1-1-2.2-1.5-3.3c-1.1-2.3-3-3.6-5.3-4.5c-0.7-0.2-1.1-0.6-1.4-1.1c-0.3-0.7-0.7-1.3-1.1-2c-0.9-1.2-2.1-2-3.5-2.7
		c-1.6-0.8-3.2-1.3-4.9-1.2c-1.4,0.1-2.8,0.3-4.2,0.5c-1.9,0.3-3.7,0.9-5.3,2c-1.8,1.4-3.4,2.9-3.5,5.4c0,0.5-0.2,1.1-0.5,1.6
		c-0.3,0.4-0.7,0.7-1.2,1c-1.1,0.8-1.8,1.7-2,3.1c-0.2,1.1-0.5,2.2-0.7,3.3c0,0.1-0.1,0.4-0.2,0.4c-0.7,0.2-1.3,0.6-2,0.6
		c-2.4-0.1-4.7,0.4-7,1c-1.7,0.4-3.4,1.1-5.1,1.7c-1.4,0.5-2.9,1-4.2,1.8c-2.1,1.4-4.2,2.9-6.1,4.6c-2,1.9-3.8,4-5.5,6.1
		c-1.1,1.3-2,2.9-2.9,4.3c-0.8,1.2-1.6,2.4-2.1,3.7c-0.7,1.8-1.3,3.6-1.9,5.5c-0.7,2.1-1.2,4.3-1.1,6.6c0,2.4-0.1,4.7,0.4,7.1
		c0.3,1.2,0.3,2.5,0.5,3.7c0.2,1.2,0.4,2.5,0.8,3.7c0.6,1.8,1.1,3.6,2.5,5.1c0.7,0.8,1.3,1.8,1.9,2.6c0.5,0.6,0.9,1.3,1.4,1.9
		c0.7,1,1.5,1.9,1.8,3.1c0.2,0.8,0.5,1.6,0.8,2.3c0.8,1.6,1.9,3.1,2.4,4.9c0.5,1.5,1,2.9,2,4.1c0.3,0.3,0.4,0.8,0.4,1.1
		c-0.9,0.6-1.8,1-2.3,1.6c-1,1.1-0.9,2.4-0.3,3.6c1.1,2.1,2.3,4.1,3.6,6c1.1,1.8,2.5,3.4,3.6,5.3c1.2,2.1,2.1,4.2,3.2,6.4
		c0.2,0.5-0.1,1.3-0.5,1.3c-0.5,0-1,0.1-1.5,0c-1.4-0.3-2.7-0.7-4-0.9c-1-0.1-2.1-0.3-3,0.1c-1.8,0.8-3.5,1.9-5,3.3
		c-0.7,0.7-1.5,1.3-2.4,1.6c-1.3,0.4-2.5,0.8-3.7,1.3c-1.7,0.7-3.2,1.8-4.6,2.9c-1.1,0.8-2.1,1.7-2.7,2.9c-0.5,0.9-1,1.8-1.5,2.7
		c-0.4,0.7-0.8,1.4-1.1,2.1c-0.6,1.6-1.2,3.2-1.8,4.8c-0.3,0.9-0.6,1.8-0.7,2.7c-0.2,3.6-0.2,7.3-0.3,10.9c0,2.1,0,4.3,0,6.4
		c0,0.8,0,1.6-0.2,2.4c-0.2,0.7-0.3,1.4-0.5,2.1H50.3z M28.8,97.5c-0.3,0.3-0.6,0.6-1,1c-0.9-0.9-1.9-1.7-1.8-3.2
		c0.1-0.9,0.9-1.6,1.8-1.4c0.1,0,0.2,0.1,0.3,0.1c0.4,0.7,0.8,1.3,1.1,2C29.4,96.5,29.3,97,28.8,97.5z M38.2,103
		c-0.5-0.4-1.1-0.7-1.6-1c-0.6-0.4-0.8-1.9-0.3-2.3c0.3-0.2,1-0.2,1.5,0c0.3,0.1,0.6,0.5,0.8,0.8C39.4,101.6,39.3,101.9,38.2,103z
		 M46.8,103c1.1-1,2.4-2.2,3.8-3.3c0.5-0.4,1.4-0.4,2-0.7c0.7-0.3,1.5-0.4,2-0.9c1.3-1.5,3.1-2.1,5-2.4c1.4-0.2,2.7-0.4,4.1-0.6
		c-5.5,2.7-10.8,5.6-15.9,9.1C47.5,103.9,47.2,103.4,46.8,103z M58.6,100.9c-0.5,0.3-0.9,0.5-1.4,0.7c-0.9,0.4-1.7,0.8-2.6,1
		c-0.9,0.2-1.9,0.3-2.9,0.4c-0.2,0-0.3,0-0.6-0.1c0.9-0.6,1.7-1.1,2.5-1.7c1.5-1.2,3.2-2,4.9-2.7c0.8-0.4,1.6-0.8,2.3-1.3
		c0.4-0.3,0.7-0.1,0.9,0.2c0.2,0.3,0.3,0.6-0.1,0.9c-0.5,0.4-1,0.9-1.5,1.3c-0.2,0.1-0.6,0-0.8,0C59.6,100.4,59.1,100.7,58.6,100.9z
		 M61.8,96.9c0.8-0.4,1.6-0.8,2.3-1.2c0.1,0.1,0.2,0.1,0.2,0.2c-0.1,0.3-0.2,0.7-0.4,0.9C63.6,97.2,62.7,97.3,61.8,96.9z
		 M52.9,109.7c-1.5-0.9-2.2-2.7-3.4-3.9c-0.4-0.3-0.7-0.6-1.1-1c0-0.1,0.1-0.1,0.1-0.2c1.1,0.5,2.2,0.9,3.2,1.6
		c1.4,1.1,3,1.3,4.6,1.1c2.4-0.3,4.3-1.7,6.2-3c1.7-1.2,2.8-2.9,3.4-4.9c0.4-1.1,0.9-2.2,1.4-3.3c-0.1,0.9-0.2,1.7-0.3,2.6
		c-0.1,0.8-0.2,1.6-0.4,2.3c-0.3,0.9-0.7,1.8-1.1,2.7c-0.9,2-2.2,3.7-3.6,5.3c-1.1,1.3-2.5,2.1-4.3,2c-0.9,0-1.9,0.1-2.7-0.2
		C54.1,110.7,53.5,110.1,52.9,109.7z M89.6,121.8c-1.3,2.9-2.7,5.8-4,8.8c-0.8,1.9-1.5,3.9-2.4,5.8c-0.7,1.5-1.4,3.1-2.2,4.5
		c-0.2,0.5-0.8,0.8-1.2,1.1c-0.6,0.5-1-0.2-1.5-0.3c-0.2-1.4-0.3-2.7-0.5-3.9c-0.1-0.7-0.5-1.3-0.7-2c-0.1-0.5-0.3-1-0.2-1.5
		c0.2-2.3-0.8-4.2-1.9-6.1c-1-1.8-2.4-3.3-3.8-4.7c-0.4-0.4-0.1-0.6,0.2-0.8c1.1-0.8,2.2-1.7,3.2-2.6c1.3-1.2,2.1-2.8,3-4.3
		c1.4-2.4,2.6-4.9,3.5-7.6c0.9-2.9,1.8-5.8,2.8-8.7c0-0.1,0.1-0.1,0.3-0.2c0.1,2.6,0.2,5.2,0.3,7.7c0,0.5,0.1,0.9,0.2,1.4
		c0.2,1.2,0.5,2.4,0.5,3.5c0,2.1,0.9,3.8,2.2,5.4c0.9,1.1,1.6,2.3,2.3,3.4C89.8,121.1,89.8,121.6,89.6,121.8z M91.1,107
		c-1.4-0.6-2.8-1.2-4.1-1.9c-0.5-0.3-1-0.7-1.5-1.1c-0.1-0.1-0.1-0.2-0.1-0.4c-0.6-4.6-0.4-9.3-0.4-13.9c0-1.7,0.2-3.4,0.1-5
		c-0.1-2-0.3-4.1-0.5-6.1c0-0.4,0-0.7,0-1.2c0,0,0.2-0.1,0.3-0.1c1.4,0.2,2.7-0.2,3.9-0.8c0.4-0.2,0.6-0.2,0.7,0.3
		c0.1,1.2,0.4,2.4,0.5,3.7c0.1,1.3,0.3,2.6,0.3,3.8c0,0.9-0.2,1.8-0.3,2.6c-0.2,1-0.2,2,0,3.1c0.3,1.3,0.5,2.7,0.6,4.1
		c0.1,1.1,0.1,2.1,0.1,3.2c0,0.8-0.1,1.7-0.1,2.5c-0.1,1.9,0.4,3.6,0.6,5.5C91.2,106,91.1,106.6,91.1,107z M95.1,99.1
		c0.9-1.2,1.3-2.5,1.7-3.9c0.1-0.4,0.3-0.9,0.5-1.3c0.2-0.4,0.5-0.7,0.9-0.5c0.5,0.2,0.7,0.6,0.6,1c-0.7,1.8-1.5,3.6-2.3,5.3
		c-0.1,0.3-0.5,0.5-0.8,0.7c-0.3-0.2-0.6-0.4-0.7-0.6C95,99.7,95,99.3,95.1,99.1z M94.8,85.8c0.1,0.1,0.1,0.5,0.1,0.7
		c-0.1,0.2-0.4,0.4-0.4,0.4c-0.8,0-2.9-1.8-2.9-2.4c0-0.2,0.1-0.6,0.3-0.7c0.2-0.1,0.6-0.2,0.8,0C93.4,84.5,94.1,85.1,94.8,85.8z
		 M87.2,38.5c0.2-0.7,0.3-1.4,0.6-2.1c0.1-0.2,0.4-0.6,0.6-0.6c0.2,0,0.6,0.2,0.7,0.4c0.1,0.2,0.1,0.4,0.2,0.9
		c-0.3,0.9-0.7,1.8-1.1,2.8c-0.1,0.2-0.5,0.3-0.7,0.3c-0.3-0.1-0.5-0.4-0.6-0.7C86.9,39.1,87.1,38.8,87.2,38.5z M83.1,62
		c0.2-1.5,0.4-3.1,0.7-4.7c0-0.2,0-0.5,0.1-0.7c0.5-1.1,0.9-2.3,1.5-3.4c0.5-0.9,1.9-1.1,2.6-0.5c0.6,0.5,1,1.2,1.5,1.8
		c-0.1,0.1-0.1,0.1-0.2,0.2c-0.2-0.1-0.5-0.1-0.7-0.2c-1.4-0.5-2.3,0.1-2.7,1.4c-0.4,1.6-0.9,3.2-1.2,4.8c-0.2,0.9-0.6,1.9-0.4,2.9
		c0,0.2,0.2,0.3,0.4,0.5c0.1-0.2,0.3-0.3,0.4-0.5c0.1-0.4,0.2-0.9,0.2-1.5c0.6,0.1,1.1,0.2,1.6,0.4c0.9,0.3,0.9,1.2,1,2
		c0.1,0.4,0.1,0.6,0.6,0.7c1.1,0.4,1.7,0.6,1,1.9c-0.2,0.4-0.6,0.7-0.9,1.1c-0.5,0.6-0.9,1.2-1.4,1.8c-0.2,0.2-0.4,0.5-0.6,0.6
		c-0.8,0.2-1.1-0.1-1.1-0.9c0-0.7,0.2-1.4,0.2-2.2c0-0.2-0.2-0.4-0.3-0.7c-0.2,0.1-0.6,0.3-0.6,0.4c-0.1,1.1-0.3,2.3-0.2,3.4
		c0.1,0.8,1.9,1.1,2.6,0.5c0.1-0.1,0.3-0.3,0.4-0.5c0.4-1.1,1.4-1.9,2.2-2.7c0.7-0.7,0.9-1.6,0.7-2.6c-0.1-0.7-0.7-0.8-1.2-0.8
		c-0.5,0-0.6-0.3-0.6-0.6c-0.3-1.9-1.1-2.6-3-2.9c-0.1,0-0.1-0.1-0.1-0.1c0.4-1.7,0.8-3.4,1.2-5.1c0.2-0.7,0.6-1,1.4-0.8
		c1.1,0.3,1.9,0.9,2.3,2.1c0.7,2.3,1.6,4.5,2.3,6.7c0.8,2.4,0.8,4.7-0.3,7c-0.5,1-1,2.1-1.7,2.9c-0.5,0.6-1.3,1-2.1,1.4
		c-0.5,0.3-1.1,0.5-1.7,0.7c-0.7,0.2-1.4,0.3-2.2,0.2c-0.3,0-0.6-0.5-0.7-0.8c-0.2-0.7-0.2-1.5-0.3-2.2c-0.2-1.4-0.6-2.8-0.7-4.2
		c-0.2-1.8-0.4-3.5-0.4-5.3C82.7,63.2,83,62.6,83.1,62z M77.1,21.1c0.2-0.5,0.6-0.6,1.1-0.5c0.7,0.1,1.3,0.2,2,0.3
		c0.5,0,0.9,0.2,0.9,0.7c0,0.5-0.4,0.8-0.9,0.8c-0.3,0-0.5,0-0.8,0c0,0,0,0.1,0,0.1c-0.6-0.1-1.2-0.2-1.8-0.4
		C77.3,21.9,76.9,21.6,77.1,21.1z M74.4,12.7c0.5-1.1,0.5-2.2,0.5-3.4c0-0.1,0-0.2,0-0.3c0-0.5,0.3-0.9,0.8-0.9
		c0.3,0,0.6,0.4,0.8,0.8c0.1,0.3,0.1,0.7,0.1,1c0,0,0.1,0,0.1,0c-0.3,1.1-0.6,2.2-0.9,3.3c-0.1,0.5-0.5,0.8-1,0.5
		C74.4,13.5,74.1,13.1,74.4,12.7z M63,13.5c1.6-0.8,2.8,0.2,3.9,1.2c1,0.9,1.9,1.9,2.9,2.8c0.3,0.2,0.7,0.5,1,0.4
		c1.2-0.2,1.5,0.8,2,1.5c0.6,0.8,1,1.7,1.7,2.3c0.8,0.7,1.5,1.8,2.7,2.1c0.1,0,0.2,0.2,0.2,0.3c0.1,0.5,0.1,1.1,0.2,1.7
		c-0.2,0-0.3,0-0.4-0.1c-1.8-1-3.6-2.2-5.4-3.1c-1.3-0.7-2.8-1-4.1-1.6c-1.6-0.7-3.3-1.4-4.9-2.1C63.5,17.1,62.7,15.2,63,13.5z
		 M53.3,15c0.1-0.3,0.4-0.5,0.5-0.7c0.6-0.9,1.3-1.7,2.3-2.1c0.2-0.1,0.5-0.1,0.8-0.1c0.6,0.2,1.2,0.5,1.7,0.8
		c0.2,0.1,0.3,0.3,0.4,0.5c0.3,0.7,0.7,1.3,1,2C60,15.5,60,15.8,60,16c0,0.1-0.3,0.2-0.5,0.2c-0.7,0-1.3,0-2,0c0,0,0,0,0,0.1
		c-1-0.1-2-0.1-2.9-0.2C53.6,16,53.1,15.5,53.3,15z M25.4,89.9C25,89,24.7,88,24.3,87.1c-0.7-1.5-1.4-3-2.1-4.5
		c-0.3-0.8-0.6-1.6-0.9-2.3c0-0.1,0-0.3,0.1-0.4c1-1.6,2-3.2,3.5-4.4c1-0.7,1.7-1.8,2.7-2.5c1.6-1.3,3.6-1.6,5.6-2.1
		c0.2-0.1,0.4-0.4,0.6-0.6c-0.2-0.2-0.5-0.5-0.7-0.5c-1.9,0.5-3.9,0.7-5.5,1.9c-1,0.7-1.8,1.6-2.7,2.5c-0.4,0.4-0.9,0.7-1.3,1.2
		c-0.7,0.7-1.3,1.5-1.9,2.3c-0.2,0.2-0.3,0.4-0.5,0.7c-0.2-0.7-0.5-1.3-0.6-1.9c-0.4-1.9-1.2-3.5-2-5.2c-1-2.3-2.1-4.6-2.9-6.9
		c-0.4-1.2-0.5-2.5-0.6-3.7c-0.1-2,0-4.1,0-6.1c0-1.7,0.5-3.3,1.5-4.6c0.7-0.9,1.3-1.9,1.9-2.8c0.2-0.3,0.6-0.5,1-0.8
		c0.2-0.2,0.5-0.5,0.7-0.6c0.6-0.2,1.2-0.4,1.9-0.5c1-0.1,1.9-0.2,2.9-0.3c0.2,0,0.4,0.2,0.6,0.3c0.2,0.1,0.6,0.3,0.7,0.2
		c0.2-0.1,0.3-0.5,0.3-0.7c-0.1-1.8,0.5-3.3,2.1-4.3c1-0.6,2-1.1,3-1.5c1.8-0.7,3.7-1.3,5.6-1.8c0.5-0.1,1-0.2,1.4-0.2
		c2.3-0.1,4.6-0.3,6.9-0.4c0.4,0,0.7,0.1,1.1,0.2c1.5,0.7,3,1.3,4.4,2.1c0.7,0.4,1.3,1.1,1.9,1.7c1.6,1.6,3.1,3.2,4.5,5
		c0.5,0.6,1.1,1.2,1.7,1.7c2.3,1.6,4.6,3.2,7.5,3.5c1.2,0.1,2.3,0.7,3.4,1.2c2.6,1,4.7,2.9,6.9,4.6c1.6,1.2,2.4,3.1,3.9,4.4
		c0.5,0.5,0.7,1.4,0.9,2.2c0.2,0.6,0.1,1.3,0.2,2c0.3,2.2,0.6,4.4,0.9,6.6c0.2,1.1,0.3,2.3,0.5,3.4c0.2,1.1,0.3,2.2,0.5,3.3
		c0.1,0.9,0.3,1.8,0.3,2.8c0.1,2.7,0.1,5.4,0.1,8c0,2.4,0,4.8-0.2,7.3c-0.1,1.1-0.6,2.1-0.9,3.2c-0.9,3-1.9,6-2.9,8.9
		c-0.9,2.6-2,5-3.5,7.3c-0.8,1.3-1.5,2.6-2.5,3.6c-1.1,1.2-2.5,2-3.8,3c-0.1,0.1-0.4,0-0.6-0.1c-1.4-1.1-2.8-2.2-4.2-3.2
		c-0.8-0.6-1.7-1.1-2.5-1.6c-0.2-0.2-0.4-0.4-0.7-0.5c-1.1-0.9-2.2-1.8-3.4-2.7c-0.9-0.7-1.9-1.2-2.9-1.8c-0.3-0.2-0.5-0.4-0.7-0.6
		c0,0,0-0.1,0.1-0.1c0.7,0,1.4,0,2.1,0c2.1,0,3.7-0.9,5-2.5c1.2-1.5,2.3-3.2,3.3-4.8c0.5-0.8,0.9-1.8,1.2-2.7c0.3-1,0.4-2.1,0.6-3.1
		c0.2-1.3,0.4-2.7,0.6-4c0-0.1-0.2-0.5-0.4-0.5c-1,0-1.9,0-2.9,0.1c-1.5,0.2-2.9,0.4-4.4,0.6c-1.6,0.2-3.2,0.4-4.6,1.2
		c-0.7,0.4-1.2,1-1.8,1.4c-0.5,0.3-1,0.7-1.6,0.8c-1.6,0.2-2.9,1-4.1,2.1c-0.8,0.8-1.5,1.5-2.3,2.2c-1-0.8-2-1.5-3-2.2
		c-1.8-1.2-3.9-2-6.1-2c-0.9,0-1.6-0.2-2.3-0.7c-1.6-1.1-3.2-2.1-4.6-3.6c-0.8-0.8-1.7-1.4-3-1.4c-0.1,0-0.3-0.2-0.4-0.4
		C26.4,91.6,25.9,90.8,25.4,89.9z M24.7,98.5c-0.2-0.5-0.7-1-0.7-1.5c-0.2-1.6-0.2-2.1,1.7-2.9c-0.7,1.4-0.5,2.6,0.5,3.6
		c0.3,0.3,0.2,0.5-0.1,0.8c-0.1,0.1-0.2,0.2-0.4,0.3C25.3,99,24.9,99.1,24.7,98.5z M26.4,139.9c0.2,0.1,0.6,0.2,1,0.5
		c1.3,0.9,2.7,1.8,3.9,2.9c1,0.9,2,2,2.7,3.2c2,3,3.7,6.3,5.1,9.7c0.3,0.8,0.6,1.5,0.9,2.3c0.2,0.4,0.2,0.8-0.3,1
		c-0.5,0.2-0.8-0.1-1-0.5c-0.3-0.7-0.5-1.4-0.8-2.1c-1.4-3.6-3.3-7-5.4-10.2c-0.8-1.2-1.8-2.2-3-3c-0.8-0.5-1.6-1.2-2.4-1.7
		c-0.4-0.3-0.8-0.5-1.2-0.6c-0.4-0.1-0.8-0.3-0.7-0.8C25.3,139.9,25.7,139.9,26.4,139.9z"/>
	<path class="st0" d="M36.3,75.1c0.4,0.2,0.8,0.3,1.2,0.5c0.5,0.3,0.9,0.6,1.3,0.9c0.4,0.2,0.4,0.6,0.1,0.8
		c-1.4,1.1-2.9,2.3-4.4,3.3c-1.2,0.8-2.6,0.9-4,1c-0.7,0.1-1.3,0.1-2,0.1c-0.6,0.1-1.1,0.3-1.5,0.8c-0.1,0.2-0.4,0.3-0.7,0.3
		c-0.4,0-0.5-0.2-0.3-0.6c1.1-1.6,2.2-3.4,3.5-4.9c1.2-1.4,2.9-2.2,4.9-2.1c0.6,0,1.2,0,1.8,0C36.2,75.3,36.2,75.2,36.3,75.1z
		 M37.8,77.1c-0.5-0.9-1.8-1.3-2.5-0.8c0.3,0.7,0.5,1.5,0.8,2.3C36.6,78.1,37.2,77.6,37.8,77.1z M30,78.4c-0.1,0-0.2,0-0.3,0
		c-0.5,0.7-1,1.5-1.4,2.2c0,0.1,0.1,0.1,0.1,0.2c0.9-0.1,1.9-0.1,2.8-0.2c0-0.1,0-0.1,0.1-0.2C30.3,80.1,30.2,79.2,30,78.4z
		 M32.6,79c0.3-0.5,0.6-0.8,0.7-1.1c0-0.2-0.4-0.4-0.6-0.6c-0.3,0.3-0.6,0.6-0.7,0.9C31.8,78.3,32.2,78.6,32.6,79z"/>
	<path class="st0" d="M55,71.2c-1.3-0.1-2.4,0.3-3.5,0.9c-0.2,0.1-0.4,0.1-0.7,0.2c0-0.3-0.2-0.6-0.1-0.7c0.9-1.3,1.8-2.6,2.8-3.8
		c1.2-1.5,3.1-2,4.9-2.4c1.5-0.3,3.1-0.4,4.7-0.2c0.3,0.1,0.6,0,0.9,0c0.2,0,0.5,0.2,0.7,0.2c-0.1,0.2-0.2,0.5-0.4,0.6
		c-0.6,0.4-1.3,0.7-1.9,1.2c-0.5,0.3-0.9,0.8-1.2,1.2c-1.1,1.5-2.7,2.1-4.4,2.5C56.2,71,55.6,71.1,55,71.2z M54.8,67.5
		c-0.2,0.1-0.4,0.3-0.6,0.4c-0.5,0.6-0.9,1.2-1.3,1.9c-0.3,0.4,0,0.8,0.4,0.8c0.9-0.1,1.9-0.2,2.8-0.3c0.1,0,0.2-0.2,0.3-0.3
		C55.6,69.5,54.8,68.9,54.8,67.5z M60.4,68.1c0.7-0.6,1.3-1.1,1.8-1.6c0.3-0.3,0.2-0.6-0.2-0.7c-0.5-0.1-1.1,0-1.6,0
		C60.4,66.5,60.4,67.2,60.4,68.1z M57.1,68.3c0.6-0.1,0.9-0.2,0.8-0.7c0-0.2-0.4-0.5-0.6-0.6c-0.2,0-0.5,0.3-0.6,0.5
		C56.8,67.8,57,68,57.1,68.3z"/>
	<path class="st0" d="M43,89.1c-0.2-1.8-0.4-3.7-0.5-5.5c0-0.2,0.2-0.5,0.3-0.7c0.2,0.2,0.5,0.4,0.5,0.6c0.2,2.2,0.4,4.5,0.4,6.7
		c0,1.9,0.7,2,2.2,2.3c0.8,0.2,1.7,0.2,2.5,0.6c1.1,0.5,2.9-0.5,3.4-1.7c0.7-1.9,2-2.6,4-2.3c0.6,0.1,1.2-0.1,1.5-0.7
		c0.3-0.5,0.3-1.1-0.1-1.5c-0.4-0.5-0.9-0.9-1.3-1.3c-0.2-0.2-0.5-0.3-0.6-0.6c-0.1-0.1-0.1-0.3-0.1-0.5c0.2,0,0.5-0.1,0.6,0
		c0.7,0.6,1.4,1.1,2,1.8c1.2,1.5,0.6,3.1-1.2,3.6c-0.7,0.2-1.5,0.5-2.2,0.5c-1,0-1.3,0.5-1.6,1.2c-0.2,0.4-0.4,0.9-0.7,1.3
		c-0.9,1.2-2.7,1.6-4,1.1c-0.5-0.2-1-0.2-1.5-0.3c-0.8-0.2-1.7-0.4-2.5-0.8c-0.6-0.3-1-1-0.9-1.7c0-0.6,0-1.2,0-1.8
		C42.9,89.1,43,89.1,43,89.1z"/>
	<path class="st0" d="M61.5,58.1c0.3,0,0.6-0.1,0.8,0c0.2,0.1,0.4,0.3,0.6,0.4c-0.1,0.2-0.2,0.4-0.4,0.5c-0.1,0.1-0.4,0.1-0.6,0.1
		c-1.4-0.1-2.7,0.4-4,0.8c-1.6,0.6-3.3,1.2-4.8,1.9c-1.5,0.8-2.8,1.8-4.2,2.7c-0.5,0.3-1,0.8-1.4,1.2c-0.3,0.2-0.6,0.4-0.9,0
		c-0.3-0.4-0.1-0.6,0.2-0.9c1.2-1,2.4-2,3.7-2.9c1.7-1.3,3.8-2,5.9-2.6c1.4-0.4,2.7-0.8,4.1-1.2C60.7,58.1,61.1,58.1,61.5,58.1
		C61.5,58.1,61.5,58.1,61.5,58.1z"/>
</g>
</svg>
