<?xml version="1.0" encoding="utf-8"?>
<!-- Generator: Adobe Illustrator 19.2.1, SVG Export Plug-In . SVG Version: 6.00 Build 0)  -->
<svg version="1.1" id="Layer_1" xmlns="http://www.w3.org/2000/svg" xmlns:xlink="http://www.w3.org/1999/xlink" x="0px" y="0px"
	 viewBox="0 0 132.1 150" style="enable-background:new 0 0 132.1 150;" xml:space="preserve">
<style type="text/css">
	.st0{fill:#C2185B;}
</style>
<g id="icon-child-uti_1_">
	<path class="st0" d="M112,150c0.6-2.2,1.3-4.3,1.8-6.5c0.6-2.3,0.9-4.6,1.6-6.8c0.6-1.9,1.4-3.7,2.2-5.5c1.7-3.9,3.6-7.7,5.3-11.6
		c0.7-1.5,1-3.3,1.7-4.8c1.4-2.9,2-6.1,3-9.1c1.2-3.5,2-7,2.9-10.6c0.1-0.2,0-0.5,0-0.7c0-5,0.1-10,0.1-15c0-1.8,0-3.5,0-5.4
		c-0.6,0.4-1.1,0.8-1.7,1.1c-1.8,0.6-3.5,1.2-5.4,1.7c-2.4,0.6-4.8,1.1-7.2,1.6c-2.1,0.4-4.2,0.9-6.2,1.3c-1.4,0.3-2.9,0.4-4.4,0.7
		c-1.3,0.2-2.6,0.5-3.9,0.6c-1.3,0.2-2.5,0.3-3.8,0.5c-2.4,0.2-4.9,0.4-7.3,0.7c-2.4,0.4-4.7,0.8-7.1,1.6c-1.5,0.5-2.8,1.4-4.2,2.2
		c-0.3,0.2-0.6,0.5-0.8,0.9c-1,1.7-1.9,3.4-2.8,5.1c-1.1,1.9-2.1,3.9-3.2,5.8c-0.6,1.1-1.2,2.2-1.7,3.4c-0.3,0.8-0.5,1.7-0.6,2.6
		c-0.2,1.5-0.4,3-0.5,4.4c-0.2,1.6-0.4,3.3-0.6,4.9c-0.2,1.9-0.4,3.7-0.5,5.6c-0.1,0.9-0.1,1.7-0.2,2.6c-0.1,1.8-0.1,3.6-0.3,5.3
		c-0.1,1.5-0.3,2.9-0.5,4.4c-0.3,2-0.5,4.1-1,6c-0.6,2.2-0.9,4.5-1.2,6.7c-0.1,0.7,0,1.4,0,2c0,1.5-0.1,2.9-0.1,4.4
		c-0.5,0-0.9,0-1.4,0c0.1-1.4,0.2-2.8,0.2-4.2c0-3.1,0.4-6.1,1.1-9.2c0.6-2.3,0.9-4.6,1.1-6.9c0.3-2.6,0.5-5.2,0.7-7.7
		c0.1-1,0.1-2,0.2-3.1c0.2-1.8,0.4-3.5,0.5-5.3c0.2-1.7,0.4-3.4,0.6-5.2c0.2-1.6,0.4-3.2,0.5-4.8c0.1-1.5-0.7-2.4-1.8-3.2
		c-1.1-0.8-2.4-1.5-3.5-2.2c-1.1-0.7-2.1-1.5-2.8-2.6c-0.5-0.8-1.3-1.5-1.9-2.3c-0.8-1.1-1.6-2.2-2.4-3.3c-0.1-0.1-0.2-0.2-0.3-0.3
		c-0.4-0.3-0.8-0.7-1.3-1c-1.2-0.8-2.4-1.7-3.7-2.4c-1.4-0.8-2.8-1.5-4.3-2.1c-0.8-0.3-1.7-0.6-2.6-0.6c-1.3,0.1-2.5,0-3.6-0.7
		c-0.9-0.6-1.1-1.1-0.5-2.1c-0.3-0.1-0.5-0.2-0.8-0.3c-3.1-1.3-6.5-1.5-9.8-2.2c-1.1-0.2-2.3-0.3-3.4-0.4c-0.9-0.1-1.9-0.2-2.8-0.3
		c-0.2,0-0.5,0.2-0.5,0.4c-0.6,2.5-1.3,5-1.8,7.6c-0.5,2.3-0.8,4.6-1.1,6.9c-0.2,1.7-0.4,3.4-0.6,5.1c-0.2,2.3-0.4,4.5-0.5,6.8
		c-0.1,1.6,0,3.2,0,4.8c0,0.3,0,0.7,0,1c0.2,1.5,0.3,3,0.5,4.5c0.2,1.6,0.4,3.2,0.6,4.9c0.2,1.2,0.3,2.4,0.5,3.5
		c0.1,0.6,0.2,1.1,0.3,1.7c0,0.2-0.1,0.5-0.1,0.7c-0.1,0.3-0.3,0.6-0.3,1c0.1,1.8,0.2,3.5,0.3,5.3c0.1,0.9,0.1,1.9,0.2,2.8
		c0.2,2.1,0.3,4.1,0.5,6.2c0.1,1.3,0.3,2.5,0.4,3.8c0.2,1.8,0.4,3.7,0.7,5.5c-0.5,0-0.9,0-1.4,0c0.1-2.1-0.4-4.2-0.7-6.2
		c-0.4-2.8-0.6-5.6-0.9-8.4c-0.2-2.5-0.3-4.9-0.4-7.4c-0.1-2.8,0.2-5.7-0.4-8.5c-0.3-1.6-0.4-3.2-0.6-4.9c-0.2-1.7-0.5-3.4-0.5-5.1
		c-0.1-2.5,0-5,0.1-7.5c0-1.4,0.1-2.7,0.3-4.1c0.3-2.5,0.6-5,1-7.4c0.3-2.2,0.6-4.4,1-6.6c0.5-2.5,1.3-4.9,1.9-7.3
		c0.5-1.6,0.8-3.3,0.7-5c-0.2-2.4-0.4-4.8-0.6-7.3c0-0.6-0.1-1.3-0.1-1.9c-0.3-2.5-0.7-4.9-0.6-7.5c0-0.6-0.1-1.2-0.1-1.9
		c-0.2-1.5-0.4-3.1-0.5-4.6c-0.1-1.2-0.2-2.5-0.3-3.7c0-0.4-0.1-0.9-0.3-1.2c-1.8-3.1-4.3-5.7-6.5-8.6c-0.8-1-1.7-2-2.2-3.1
		c-1.2-2.6-2.4-5.3-3-8.2c-0.5-2.6-1.4-5.1-2.7-7.5c-1.1-2-2-4-2.8-6.1C2.3,8.1,1.6,6.3,1,4.5C0.6,3,0.3,1.5,0,0c0.4,0,0.8,0,1.3,0
		c0,0.2,0.1,0.4,0.1,0.6c0.5,1.9,1,3.8,1.6,5.7c0.6,1.7,1.4,3.2,2.1,4.9C5.7,12.5,6.2,14,7,15.3c1.4,2.4,2.3,4.9,2.8,7.6
		c0.5,2.8,1.6,5.5,2.9,8c1.1,2.1,2.8,3.9,4.3,5.8c1.3,1.7,2.6,3.4,3.9,5.1c1.3,1.7,2.1,3.7,3.9,5c0.2,0.1,0.3,0.4,0.5,0.6
		c0.6,0.7,1.1,1.4,1.7,1.9c2.3,1.7,4.5,3.4,6.5,5.4c0.9,1,2,1.9,3.2,2.6c1.8,1.1,3.7,2,5.7,3c0.2-0.5,0.3-0.8,0.4-1.1
		c0-0.1-0.1-0.1-0.1-0.1c-2-1.3-4.1-2.7-6.1-4.1c-0.8-0.5-1.5-1.2-2.2-1.9c-0.2-0.2,0-0.7,0-1c0.3,0,0.7,0,1,0.1
		c0.6,0.4,1,1,1.6,1.4c1.8,1.2,3.5,2.5,5.3,3.6c1.5,0.9,3.2,1.6,4.9,2.4c0.3,0.1,0.6,0.3,0.8,0.3c0.7-0.9,1.3-1.7,1.9-2.5
		c-0.4-0.2-0.8-0.4-1.2-0.7c-1.9-1.2-3.8-2.7-5.9-3.5c-2.2-0.9-4.3-1.9-6.4-3.1c-1.1-0.7-2.5-1-3.7-1.3c-0.6-0.1-0.8-0.4-0.8-0.9
		c0-0.5,0.5-0.7,1.1-0.5c1.7,0.6,3.4,1.3,5,2c1,0.5,2,1.2,3,1.7c1.2,0.6,2.5,1,3.7,1.5c1.1,0.5,1.9,1.3,3.2,1.6
		c1.2,0.2,2.4,0.8,3.6,1.2c1.3,0.4,2.6,0.8,4.1,1.2c0.2-1.7,1.3-2.4,2.6-3.1c-0.7-0.3-1.3-0.6-2-0.8c-1.3-0.4-2.6-0.8-3.9-1.3
		c-1.2-0.5-2.3-1.3-3.6-1.8c-2.3-1-4.7-1.8-7-2.7c-0.8-0.3-1.6-0.8-2.4-1.2c-1-0.4-1.9-1.3-3.1-1.2c-0.1,0-0.3-0.2-0.3-0.3
		c0-0.4-0.1-0.8,0.1-1.1c0.1-0.2,0.7-0.2,1-0.1c1.6,0.7,3,1.6,4.6,2.3c1.7,0.7,3.6,1.2,5.3,1.9c2.2,0.9,4.2,2.2,6.7,2.5
		c0.7,0.1,1.4,0.5,2.2,0.7c-0.1-1.3,0.7-2.2,1.6-3c-1-0.6-1.9-1.2-2.9-1.7c-1.9-1.1-3.9-2.1-5.8-3.1c-2.3-1.3-4.5-2.6-6.8-3.8
		c-2.2-1.1-4.2-2.4-5.8-4.3c-0.7-0.8-1.2-1.6-1-2.7c0.2-1.1,0.3-2.1,0.5-3.2c-0.3,0-0.7,0-1,0c-0.5,0-1.1-0.4-1.1-0.8
		C33,27.4,33.5,27,34,27c0.8,0,1.6,0.1,2.4,0.1c0.6,0.1,1.2,0.1,1.8,0.2c1.4,0.3,2.8,0.7,4.2,1c0.3-1.6-0.3-3.1,0.5-4.5
		c0,0-0.1-0.1-0.1-0.1c-1.9-1.1-3.7-2.2-5.8-2.7c-2.6-0.6-5.2-0.4-7.9,0.1c-1.4,0.3-2.9,0.5-4.3,0.2c-1-0.2-2.1-0.3-2.9-1.3
		c-1.2-1.5-1.4-3.2-1.2-5c0.1-1.4,0.4-2.9,0.4-4.3c0-3.6,0.3-7.1-0.3-10.7c0.5,0,0.9,0,1.4,0c0,0.5,0.1,1,0.1,1.4c0,2.5,0,4.9,0,7.4
		c-0.1,2.7-0.2,5.5-0.3,8.2c0,1.5,0.9,2.6,2.3,2.8c-0.1-0.2-0.2-0.5-0.1-0.7c0.3-1.8,0.6-3.5,0.9-5.3c0.2-1.1,0.3-2.1,0.4-3.2
		c0.1-1,0.2-2.1,0.3-3.1c0.3-2.3,0.2-4.6-1.1-6.7c-0.1-0.2-0.1-0.5-0.2-0.8c0.6,0,1.1,0,1.7,0c0.3,1.4,0.8,2.8,0.9,4.3
		c0.3,2.5-0.1,5-0.4,7.6c-0.2,1.5-0.4,3-0.7,4.4c-0.2,1.3-0.6,2.5-0.8,3.8c0.4,0,0.9,0.1,1.4,0.1c1.7-0.2,3.3-0.5,5-0.7
		c3-0.4,5.8,0,8.5,1.3c2.1,1,4.2,2.1,6.4,3.1c0.5,0.2,1.1,0.3,1.6,0.5c0.6-1.8,1.8-2.2,3.5-1.8c0.6,0.2,1.3,0.4,1.6,1.2
		c0.3,0.9-0.2,2-1.2,2.6c-1.1,0.7-2.2,0.7-3.4,0.1c-0.2,1.9-1.5,3.4-3.4,3.5c-1.1,0.1-2.2-0.1-3.3-0.3c-1.4-0.3-2.8-0.7-4.2-1
		c-0.6-0.1-1,0-1.1,0.6c-0.1,0.7-0.4,1.5-0.5,2.2c0,0.5,0,1.1,0.3,1.4c0.8,1,1.6,1.9,2.6,2.7c1.2,0.9,2.5,1.5,3.8,2.2
		c1.5,0.9,3,1.8,4.6,2.7c4.2,2.2,8.5,4.2,12.2,7.1c1.2,0.9,2.3,1.9,2.1,3.6c-0.1,0.8-0.3,1.2-1.1,1.5c-0.3,0.1-0.6,0.2-0.8,0.3
		c0.6,0.8,1.2,1.5,1.8,2.4c2.1-0.6,4.4-1.4,6.7-2.1c0.7-0.2,1.3-0.6,1.7-1.3c0.3-0.6,0.6-1.1,1-1.6c1-1.4,1.9-3,3-4.3
		c1.4-1.5,2.4-3.1,3.4-4.8c1.1-2,2.3-3.9,3.5-5.8c0.7-1.2,1.5-2.4,2.2-3.6c1.1-2,2.1-4.1,3.1-6.1c0.9-1.6,1.6-3.3,2.7-4.8
		c2.2-3.2,3.4-6.7,4.9-10.2C94.5,8.8,95.1,6.8,96,5c0.8-1.7,1.9-3.3,2.9-5c0.5,0,0.9,0,1.4,0c-0.3,0.6-0.5,1.3-0.9,1.9
		c-0.8,1.4-1.8,2.7-2.4,4.1c-1.1,2.5-2.1,5.2-3.1,7.7c-0.7,1.8-1.5,3.6-2.4,5.3c-1.7,3.1-3.5,6.1-5.3,9.1c-1.3,2.3-2.2,4.8-3.6,7
		c-1.5,2.3-2.8,4.7-4.2,7.1c-0.7,1.2-1.4,2.3-2.2,3.4c-1,1.3-2.1,2.4-3,3.7c-1.5,2.1-2.9,4.3-4.4,6.4c-1.8,2.4-3.8,4.8-5.6,7.2
		c-0.5,0.7-1.1,1.5-1.3,2.4c-0.4,1.3-0.5,2.7-0.8,4c0,0.2-0.4,0.5-0.6,0.6c-0.2,0-0.6-0.3-0.6-0.5c-0.1-0.6-0.1-1.3,0-1.9
		c0.2-1,0.4-1.9,0.6-2.9c-0.2,0.1-0.4,0.2-0.5,0.3c-1.3,0.8-2.5,1.7-3.8,2.5c-2.1,1.4-4.3,2.8-6.4,4.3c-1.3,0.9-2.4,2-3.5,3.1
		c-0.7,0.7-1.1,1.7-1.7,2.6c-0.1,0.2-0.1,0.4,0,0.6c0.5,1,0.8,2,0.7,3.1c0,0.2,0,0.4,0,0.7c0.3-0.1,0.6-0.1,0.8-0.2
		c1.2-0.6,2.5-1,3.6-1.7c1.9-1.1,3.8-2.1,5.2-3.9c0.1-0.1,0.5-0.2,0.7-0.2c0.2,0.2,0.5,0.4,0.5,0.7c0.1,0.4,0.1,0.9,0,1.3
		c-0.1,0.9,0.2,1.7,0.4,2.6c0.4,1.6,0.7,3.3,1,5c0.2,1.3,0,2.7,0.9,3.8c0.5,0.6,0.7,1.4,1.1,2c0.7,1,1.6,1.9,2.3,2.8
		c0.5,0.6,0.9,1.3,1.5,1.7c1,0.7,2,1.4,3,2c0.4,0.3,0.9,0.5,1.4,0.7c-0.5-1.3-1.1-2.4-1.8-3.5c-0.7-1.1-1.6-2-1.5-3.4
		c0.7-0.2,0.7-0.2,1,0.5c0.2,0.4,0.3,0.8,0.6,1.1c0.8,0.6,1.2,1.4,1.6,2.2c0.6,1.1,1.3,2.1,2,3.1c0.1,0,0.1,0,0.2,0
		c0-1,0.1-2.1,0-3.1c0-0.6,0-1.3-0.8-1.6C69,94,69,93.9,69,93.8c-0.1-0.8-0.1-1.7-0.2-2.6c0.3-0.1,0.7-0.1,1-0.2
		c0.3,0.7,0.5,1.4,0.7,2c0.4-0.4,0.8-0.7,1.1-1c0.4-0.4,0.9-0.8,1.3-1.3c0.7-1.1,1.8-1.7,2.9-2.3c0.2-0.1,0.7-0.1,0.8-0.3
		c0.7-1.1,1.4-2.1,1.9-3.3c0.4-0.9,0.5-2,0.4-3c0-1.3-0.4-2.6-0.4-3.9c-0.1-2-0.1-4.1-0.1-6.1c0-1.5,0.2-2.9,1.2-4
		c0.6-0.8,1.5-1.5,2.2-2.2c1.2-1.2,2.5-2.4,3.6-3.7c0.6-0.6,1-1.5,1.7-2c2.8-2.2,5.2-4.7,7-7.7c1.4-2.2,3.1-4.2,5-6.1
		c1.2-1.2,2.5-2.5,3.5-3.8c2.4-3.2,4.6-6.5,6.9-9.8c1.4-2,2.7-4.1,4-6.2c0.8-1.3,1.8-2.4,2.3-3.9c0.2-0.7,0.5-1.3,0.8-1.9
		c0.9-1.7,1.8-3.3,2.6-5c1.6-3.1,3.5-5.9,5.9-8.4c0.9-0.9,1.7-2,2.2-3.1c0.6-1.2,1-2.6,1.5-4c0.5,0,1,0,1.5,0
		c-0.1,0.2-0.1,0.4-0.2,0.6c-0.2,0.4-0.4,0.7-0.5,1.1c-0.6,2.1-1.4,4.1-3,5.7c-2.3,2.3-4.2,4.8-5.8,7.6c-0.6,1-1.1,2-1.6,3
		c0.9,0.6,1.3,1.4,1.6,2.3c0.4,1.1,0.6,2.3,0.8,3.5c0.4,2.1,0.5,4.3,0,6.4c-0.3,1.6,0.1,3.3,0.3,4.9c0,0.1,0.1,0.3,0.1,0.4
		c0.5,1.2,1,2.3,1.5,3.5c0.9,2.3,1.8,4.6,2.8,6.8c1.8,3.9,2.7,8.1,3.5,12.3c0.5,2.6,1,5.2,1.5,7.9c0.2,1.3,0.5,2.6,0.5,4
		c0,7,0,14.1,0,21.1c0,1.4-0.1,2.8-0.1,4.2c0,0.1,0,0.2,0,0.3c-0.9,3.5-1.7,7.1-2.9,10.6c-0.6,1.7-0.9,3.6-1.5,5.3
		c-0.8,2.4-1.8,4.8-2.7,7.2c-1.3,3.3-2.7,6.6-4.4,9.8c-0.9,1.6-1.6,3.3-2.3,4.9c-0.5,1.1-1,2.2-1.3,3.3c-0.7,2.6-1.2,5.2-1.9,7.8
		c-0.5,1.9-1,3.7-1.5,5.6C113,150,112.5,150,112,150z M118.6,19.2c-0.6,1.5-1.2,2.9-1.8,4.2c-0.2,0.5-0.4,1.1-0.7,1.6
		c-1.1,1.7-2.2,3.4-3.4,5.1c-1.2,1.9-2.5,3.7-3.7,5.6c-0.4,0.7-0.9,1.3-1.4,2.1c1.9-1,3.7-2.1,5.5-2.9c2.4-1,4.5-2.4,6.8-3.7
		c0.2-0.1,0.6-0.4,0.6-0.6c0.2-0.8,0.2-1.6,0.3-2.5c0.2-1.9-0.3-3.8-0.6-5.6C120.1,21.2,119.8,20,118.6,19.2z M33.5,57
		c0-0.1,0-0.1,0-0.2c-0.3-0.2-0.6-0.5-0.8-0.8c-1.3-1.7-3-3-4.7-4.3c-0.7-0.5-1.5-0.8-2.1-1.4c-0.7-0.6-1.1-1.5-1.7-2.2
		c-0.7-0.7-1.4-1.4-2.2-2.1c0.1,0.5,0.1,0.9,0.2,1.3c0.2,1.9,0.4,3.9,0.6,5.8c0,0.1,0.2,0.3,0.3,0.4c0.7,0.4,1.4,0.8,2.1,1.2
		c0.7,0.4,1.4,0.7,2.2,0.9c1.3,0.4,2.7,0.6,4.1,0.9C32,56.7,32.8,56.8,33.5,57z M43.7,26.4c0,0.3,0.1,0.5,0,0.8
		c-0.2,0.9,0.6,1.1,1.1,1.4c0.2,0.2,0.8-0.1,1.1-0.3c0.4-0.3,0.8-0.6,1-1c0.3-0.5,0.4-0.9-0.1-1.5c-0.6-0.7-1.4-0.8-2-1.2
		c-0.7-0.4-1.1-0.1-1.1,0.7C43.7,25.7,43.7,26.1,43.7,26.4z M71.4,97.7c1.4-2.5,2.7-4.9,4-7.3c-0.3,0-0.5,0-0.7,0.1
		c-0.1,0.1-0.3,0.1-0.4,0.2c-1.3,1.1-2.3,2.5-3.1,3.9c-0.1,0.2-0.1,0.5-0.1,0.8C71.2,96.2,71.3,96.9,71.4,97.7z M58.9,58.1
		c0.3-0.3,0.6-0.5,0.7-0.8c0.2-0.5,0.2-1.1,0.3-1.7c0-0.4-0.5-1-0.8-1c-0.9,0.1-1.7,0.5-2.2,1.3c-0.2,0.3-0.3,1-0.2,1.1
		C57.4,57.5,58.1,57.7,58.9,58.1z M56.9,50.9c0.7,0.3,1.3,0.6,1.9,0.7c0.4,0.1,1.1-0.1,1.4-0.3c0.2-0.2,0.1-0.9-0.2-1.2
		c-0.3-0.5-0.7-0.9-1.2-1.2c-0.4-0.3-0.9-0.3-1.4,0.1C56.8,49.4,56.8,50.1,56.9,50.9z M52.8,59.9c0-0.7-0.9-1.8-1.3-1.6
		c-0.9,0.3-1.6,0.9-2.1,1.8c-0.2,0.3-0.1,0.6,0.3,0.7c0.6,0.1,1.2,0.1,1.8,0.2C52.2,61.1,52.8,60.7,52.8,59.9z M41.5,81.6
		c0,0.1,0,0.2,0,0.3c0.7,0.2,1.4,0.4,2.1,0.5c0.1,0,0.3-0.2,0.3-0.3c0-1,0.2-2-0.5-3.1C42.8,80,42.2,80.8,41.5,81.6z M46.1,61.3
		c0-0.1,0.1-0.2,0.1-0.3c-0.6-0.7-1.6-0.8-2.4-1.3c0.1,0.4-0.8,0.9,0,1.2C44.6,61.1,45.4,61.2,46.1,61.3z"/>
</g>
</svg>
