<?xml version="1.0" encoding="utf-8"?>
<!-- Generator: Adobe Illustrator 19.2.1, SVG Export Plug-In . SVG Version: 6.00 Build 0)  -->
<svg version="1.1" id="Layer_1" xmlns="http://www.w3.org/2000/svg" xmlns:xlink="http://www.w3.org/1999/xlink" x="0px" y="0px"
	 viewBox="0 0 140.7 146.5" style="enable-background:new 0 0 140.7 146.5;" xml:space="preserve">
<style type="text/css">
	.st0{fill:#7B1FA2;}
</style>
<g id="icon-child-motionsickness">
	<path class="st0" d="M140.1,113.9c-0.5-2-1.4-3.9-2.2-5.8c-1.5-3.3-4.1-5.8-6.7-8.1c-3-2.7-5.2-5.9-7.7-9c-1.2-1.5-2.3-3.1-3.5-4.5
		c-1.4-1.7-3-3.2-4.4-4.9c-1.2-1.5-2.1-3.3-3.3-4.8c-1.6-2.1-1.5-4.4-0.8-6.5c1-3,2-5.9,2.5-9c0.4-2,0.2-3.9-0.8-5.8
		c-1.6-2.9-3-5.8-4.5-8.7c-0.3-0.6-0.4-1.1,0.2-1.6c0.2-0.1,0.3-0.5,0.3-0.7c0-1.4,0-2.8-0.3-4.2c-0.3-2.2-0.9-4.3-1.2-6.5
		c-0.2-1.7-0.7-3.2-1.6-4.6c-0.4-0.6-0.6-1.2-0.8-1.8c-1.7-3.9-3.5-7.7-5.2-11.6c-0.3-0.6-0.6-1.2-0.9-1.8c-0.8-1.6-1.7-3.1-2.9-4.5
		c-1.1-1.4-2.3-2.8-3.6-4c-0.3-0.3-0.5-0.6-0.8-0.7c-2.3-0.7-4.5-1.7-6.9-1.4c-2.3,0.3-4.5,0.6-6.9,1c0,0-0.1-0.2-0.3-0.3
		c-1.3-1.5-2.4-3.2-4.5-3.6c-1.5-0.3-3-0.4-4.5-0.3c-2,0.2-4,0.6-6,0.9c-2.8,0.5-5.7,1-8.5,1.7c-1.9,0.5-3.9,1-5.5,2.1
		c-2.5,1.7-4.8,3.8-7,6c-1.9,2-3.6,4.3-5.1,6.6c-1,1.5-1.7,3.2-2.3,4.9c-0.7,2-1.3,4-1.9,6.1c-0.6,2.1-1.1,4.2-1.4,6.4
		c-0.2,1.5-0.3,3.1-0.2,4.7c0.2,1.5,0.7,2.8-0.4,4.2c-0.7,0.9-1,2.1-1.5,3.1c-0.7,1.3-1.5,2.5-2.2,3.7c-0.5,0.9-0.7,2-1.3,2.8
		c-1.5,2.1-1.8,4.7-2.7,7c-0.1,0.3-0.1,0.7-0.2,1.1c-0.2,2.7,0.9,5.2,1.9,7.6c0.5,1.2,0.4,2.2-0.1,3.3c-0.9,2.1-2.4,3.7-3.7,5.5
		c-2.5,3.4-5.5,6.5-8.3,9.8c-3.6,4.3-7.3,8.6-10,13.6c-3.2,5.9-3.7,11.9-0.5,17.9c0.7,1.3,1,2.2,0.5,3.7c-0.7,1.9-0.9,4-1.2,6
		c-0.2,1.4-0.4,2.8,0.3,4.1c1.9,3.7,4.6,6.3,8.9,6.9c2.6,0.3,5.3,0.5,7.9-0.5c1.1-0.4,2.2-0.8,3.6-1.2c0.3,0.7,0.5,1.4,0.8,2
		c0.2,1.8,0.9,3.9,2,5.4c0.3,1.1,0.4,2.2,0.5,3.3h1.5c0-0.5-0.1-1.1-0.2-1.6c0.1,0,0.1,0.1,0.2,0.1c1.7,0.7,4.7,0.2,6.5,0.3
		c2.9,0.1,5.8,0.1,8.8,0.2c0.2,0,0.5,0,0.7,0c0,0.4,0.1,0.7,0.1,1.1h1.5c0-0.4-0.1-0.7-0.1-1.1c5.1,0,10.2,0,15.3-0.1
		c1.1,0,5.5-0.2,10.7-0.5c0.1,0,0.2,0.1,0.3,0.1c4.3,1,8.7,1.6,13.2,1.7c3.2,0,8,0.2,11.3-0.9c0.2,0.1,0.3,0.3,0.5,0.4
		c0,0,0.1,0,0.1,0.1c1.4,1,3.8,0.6,5.1-0.8c0,0.4,0,0.7,0,1.1c0,0,0,0,0,0.1h1.5c0-0.3,0-0.6,0-0.9c0,0,0.1,0,0.1,0
		c4.4-0.9,8.6-1,13-0.2c0.4,0.1,1,0,1.3-0.3c0.1,0.5,0.2,1,0.3,1.4h1.3c-0.3-1.3-0.5-2.7-0.8-4c-0.1-0.6-0.4-1.3-0.6-1.9
		c1.3,0.8,2.5,1.6,3.7,2.5c2.9,2.2,6.3,3,9.8,2.5c2.7-0.4,4.6-2.3,6.3-4.3c0.6-0.7,1.1-1.7,1.2-2.6c0.4-2.8,0.6-5.6,0.8-8.5
		c0.1-0.8,0-1.7-0.2-2.5c-0.5-1.7-0.1-2.9,1.1-4.1c0.4-0.4,0.7-1.1,0.8-1.6C140.8,120.7,140.9,117.2,140.1,113.9z M28.9,125.8
		c-1.6,1.3-3.6,2.2-5.3,3.3c-2.7,1.7-5.4,1.5-8.3,0.6c-0.7-0.2-1.5-0.7-2.1-1.2c-2.4-2.1-4.9-4-7.1-6.3c-2.4-2.4-3.9-5.5-4.6-8.8
		c-0.6-2.6-0.3-5.3,0.7-7.8c0.8-1.9,1.7-3.8,2.7-5.6c2.4-4.2,5.4-7.9,8.6-11.5c3.6-4.1,7.1-8.2,10.4-12.6c1.1-1.6,1.8-3.5,2.7-5.2
		c1.3-2.5,2.7-4.9,4-7.4c0.1-0.2,0.3-0.3,0.3-0.4c0-0.4,0-0.8,0-1.1c-0.4,0.1-0.9,0.1-1.1,0.3c-0.5,0.5-0.9,1.1-1.2,1.7
		c-0.9,1.5-1.7,3.1-2.7,4.8c-0.3-0.8-0.6-1.5-0.8-2.1c-0.7-1.8-1.3-3.8-1-5.8c0.2-1.1,0.6-2.2,1-3.2c0.4-1,0.9-2,1.3-3
		c0.3-0.7,0.7-1.4,1-2.1c0.5-1,1.1-2,1.6-3c0.9-1.7,1.8-3.5,2.7-5.3c0.1-0.1,0.1-0.3,0.3-0.5c0.6,1.5,1.4,2.8,1.8,4.2
		c0.8,3,2.5,5.4,4.4,7.7c2.1,2.4,3.2,5.2,3.8,8.3c0.7,4,0.9,8,0.7,12c0,1-0.7,1.7-1.7,1.8c-0.5,0.1-1.1,0.1-1.5,0.2
		c0.1-2.2,0.1-4.4,0.2-6.6c0-0.4,0.1-0.8,0-1.1c-0.1-0.4-0.5-0.6-0.8-1c-0.2,0.3-0.6,0.6-0.7,0.9c-0.1,0.8-0.1,1.6,0,2.3
		c0.1,2.1-0.2,4.1-0.6,6.1c-0.5,2.5-0.8,5-1.2,7.5c-0.2,1.7-0.3,3.5-0.5,5.2c-0.8,5.6-0.4,11.3-0.6,17c-0.1,2.1-0.7,4.2-1.2,6.2
		c-0.5,2-1.3,3.9-1.7,5.9C32,122.7,30.7,124.4,28.9,125.8z M40,126c-1.3,3.9-3.7,7.3-7.7,8.8c-2.1,0.8-3.1-2.6-0.9-3.4
		c2.7-1,4.3-3.7,5.2-6.3C37.3,122.9,40.7,123.8,40,126z M50.3,93.3c-1.4-0.3-2.8-0.5-4-1.1c-2-0.8-4.1-0.8-6.2-0.5
		c-0.7,0.1-1.4,0.6-2.1,0.8c-0.2,0.1-0.4,0.2-0.8,0.4c0.2-0.9,0.3-1.7,0.4-2.5c0.3-3.1,0.6-6.1,1.4-9.1c0.1-0.4,0.1-0.8,0.3-1.2
		c0.4-1.2,1.5-0.8,2.4-1.1c0.6-0.2,1.1-0.4,1.7-0.5c1.5,5.1,3.9,9.9,7.1,14.4C50.4,93,50.3,93.2,50.3,93.3z M78.8,108.9
		c-3.8,0.8-6.7,3.2-10.7,3.4c-1.5,0.1-3.2-0.1-4.5-0.7c-1.4-0.6-2.3-2-3.7-2.6c-1.5-0.6-0.9-3,0.7-2.5c0.9,0.3,1.5,0.7,2.2,1.3
		c1.7,1.4,3.1,1.9,5.4,1.8c3.8-0.1,6.5-2.6,10-3.3C79.7,106.1,80.4,108.6,78.8,108.9z M86.1,93c-1.5,1.8-3,3.7-4.5,5.5
		c-2,2.3-4.7,3.6-7.5,4.8c-0.2,0.1-0.4,0.1-0.6,0.2c-0.9,0.2-1.8,0.5-2.7,0.6c-1.6,0.2-3.3,0.1-4.9-0.1c-1.1-0.2-2.3-0.8-3.2-1.5
		c-2.7-1.8-5.2-3.8-7.6-6.1c-3.2-3.1-5.1-6.9-7.3-10.6c-0.8-1.3-1.2-2.7-1.8-4c-1-2.3-1.5-4.7-1.5-7.2c0.1-4.1-0.5-8.1-1.2-12.2
		c-0.4-2-1.5-3.7-2-5.8c0.4-0.1,0.7-0.2,1-0.2c2.6-0.1,5.2-0.1,7.6-1.2c0.8-0.3,1.5-0.9,2.2-1.3c1.9-1.1,3.6-2.2,6-1.9
		c0.8,0.1,1.7,0,2.6-0.2c1.5-0.4,3-1,4.4-1.5c0.3-0.1,0.8-0.1,0.8,0c0.2,0.3,0.2,0.7,0.2,1c-0.6,3.4-3.6,5.6-7,6
		c-0.7,0.1-1.4,0.1-2.1,0.2c-0.9,0.1-1.1,0.3-0.5,1c0.6,0.6,1.4,1.1,2.1,1.7c0.4,0.4,1.2,0.9,1.2,1.2c-0.1,0.8-1,0.5-1.6,0.5
		c-2.8-0.1-5.5-0.4-8.3-0.5c-1.2-0.1-1.3,0.1-1.2,1.6c1.5,0,2.9,0,4.4,0c1.7,0.1,3.3,0.2,5,0.3c1.1,0,2.3-0.1,3.4-0.1
		c0.8,0,1.7,0,2.4,0.2c2.1,0.8,4.1,0.6,6.2,0.5c3.7-0.2,6.1-2.6,8.4-5c1.9-2,3.8-4.1,5.3-6.5c0.6-1,1.6-1.8,1.8-3
		c0.1-0.8,0.9-0.7,1.5-0.6c0.7,0,1.1,0.3,1.3,1c0.5,1.7,1.1,3.4,1.7,5.1c0.3,0.7,0.8,1.4,1.3,2c0.5,0.7,1.2,1,2.1,0.9
		c0.7,0,1.4,0,2.1,0.1c1.2,0.1,1.7,0.9,1.2,2c-0.2,0.5-0.6,0.9-0.7,1.4c-0.4,1.1-0.7,2.2-1,3.3c-0.3,0.9-0.4,1.9-0.8,2.7
		c-1.1,2.7-1.2,5.6-1,8.4c0.1,1.2-0.1,2.3-0.4,3.5c-0.4,1.3-0.6,2.8-1.1,4.1C90.8,86.8,88.6,90,86.1,93z M90.5,90.9
		c-0.3,0.1-0.5,0.2-0.8,0.2c-0.1,0-0.1,0-0.4-0.1c2.7-3.6,4.6-7.5,5.2-12c0.8,0.3,1.4,0.6,1.9,0.8c1.1,0.4,1.8,1.2,1.9,2.4
		c0.5,3.2,1,6.4,1.5,9.5c0.1,0.7,0.3,1.3,0.5,2.2c-0.5-0.1-0.9-0.2-1.2-0.3c-1-0.5-2-1.1-2.8-1.7C94.5,90.4,92.6,90.1,90.5,90.9z
		 M101.5,133.7c-2.5-2.7-3.9-6.4-4.8-9.9c-0.6-2.2,2.8-3.1,3.4-0.9c0.7,2.9,1.8,6.2,3.8,8.4C105.6,132.9,103.1,135.4,101.5,133.7z
		 M138.4,125.3c-3.3,4.2-7.5,7.3-11.6,10.7c-1.3,1.1-3,1.2-4.6,1.6c-3,0.7-5.4-0.4-7.8-2c-0.9-0.6-1.9-1-2.8-1.6
		c-0.3-0.2-0.7-0.5-1-0.7c-0.3-0.4-0.6-0.8-1-1.2c-2.2-3.7-3.7-7.7-4.5-12c-0.2-0.8-0.1-1.7-0.2-2.6c-0.3-4.4-0.6-8.8-0.9-13.2
		c-0.1-1.4-0.1-2.7-0.4-4.1c-0.3-1.5-0.7-2.9-1.2-4.3c-1.2-3.1-1.7-6.3-2-9.6c-0.2-1.7-0.7-3.4-0.9-5.1c-0.2-1.1-0.3-2.1-0.3-3.2
		c0-1.1,0.1-2.2,0.1-3.3c0-0.5,0-1.1-0.7-1.1c-0.8,0-0.8,0.6-0.8,1.1c0,1,0,2-0.1,3.1c0,0.3-0.1,0.7-0.1,1c-1.8-0.3-2.5-0.9-2.7-3
		c-0.3-3.4,0.2-6.6,1.4-9.8c0.5-1.5,0.7-3.1,1.6-4.5c0.3-0.5,0.8-1.1,1.3-1.3c2.8-1.1,3.9-3.4,5-6c0.9-2.3,0.6-4.7,1.3-7
		c0.1-0.4,0.2-0.8,0.4-1.2c0.1-0.2,0.3-0.3,0.4-0.4c0.1,0.1,0.3,0.3,0.4,0.4c1.3,2.8,2.6,5.7,4,8.5c0.1,0.3,0.2,0.5,0.4,0.7
		c1.7,2,1.6,4.2,1.2,6.6c-0.5,2.7-1.4,5.2-2.2,7.8c-1,2.9-0.9,5.7,1.1,8.3c1.3,1.7,2.4,3.6,3.7,5.3c0.9,1.1,2,2,2.9,3.1
		c1.5,1.8,3,3.8,4.5,5.6c2.3,2.8,4.5,5.6,6.9,8.3c1.8,2,3.9,3.8,5.6,5.9c2.2,2.8,3.7,6,4,9.6c0.2,2.4,0.3,4.9,0.3,7.3
		C139.3,123.8,138.9,124.6,138.4,125.3z"/>
	<path class="st0" d="M55.3,70c-1.4-0.2-3.4-0.5-5.4-0.9c-0.3,0-0.7-0.4-0.7-0.6c0.1-0.4,0.3-0.8,0.5-1.1c2.5-2.3,5.6-1.9,8.6-1.9
		c0.2,0,0.4,0.1,0.5,0.2c1.1,0.7,2.2,1.5,3.3,2.3c0.3,0.2,0.6,0.7,0.5,0.9c-0.2,0.3-0.6,0.7-0.9,0.7C59.8,69.7,57.9,69.8,55.3,70z
		 M53.6,68.6c0-0.6,0-1.1,0-1.6c-0.6,0.1-1.2,0-1.7,0.2c-0.3,0.1-0.5,0.4-0.7,0.6c0.2,0.1,0.4,0.4,0.6,0.4
		C52.4,68.4,53,68.5,53.6,68.6z M60.3,68.4c-0.6-1.1-1.7-1.2-2.5-1.7c0,0.7,0,1.3,0,1.9C58.6,68.5,59.3,68.4,60.3,68.4z"/>
	<path class="st0" d="M82.6,65.5c0.7,0.3,1.7,0.6,2.8,1c0.8,0.3,1.7,0.5,2.5,0.9c0.3,0.2,0.7,0.6,0.8,0.9c0.2,0.5-0.1,0.9-0.7,1
		c-2.6,0.4-5.2,0.8-7.9,1c-1.3,0.1-2.7-0.3-4-0.5c-0.7-0.1-0.9-0.9-0.3-1.4c1-0.9,2.1-1.7,3.3-2.2C80,65.6,81.2,65.7,82.6,65.5z
		 M80.3,69.1c-0.1-0.7-0.1-1.2-0.2-1.9c-0.8,0.4-1.5,0.8-2.2,1.2c0,0.1,0,0.2,0.1,0.3C78.8,68.8,79.6,69,80.3,69.1z M83.8,68.6
		c0.6-0.1,1.3-0.2,2.2-0.4c-1.1-0.5-2-0.8-3-1.2C83.4,67.6,83.6,68,83.8,68.6z"/>
	<path class="st0" d="M68.3,96.1c-0.6,0-1.4,0-2.2,0c-1.4-0.1-2.4-1-3.1-2.1c-0.7-1-1.5-1.7-2.6-2.1c-0.2-0.1-0.4-0.5-0.6-0.7
		c0.3-0.2,0.5-0.5,0.8-0.5c1.6-0.1,3.1-0.5,4.6-1.3c0.9-0.5,2-0.6,3,0c0.4,0.2,1,0.1,1.4,0c0.7-0.1,1.5-0.5,2.2-0.6
		c0.3,0,0.8,0.2,1.1,0.4c1.1,0.9,2.3,1.5,3.7,1.6c0.5,0,0.8,0.4,0.5,0.8c-1,1.1-2,2.1-3.2,3.1C72.3,96,70.5,96.4,68.3,96.1z
		 M62.5,92.4c0.6,0.7,1,1.4,1.7,2c0.5,0.5,1.2,0.9,1.9,1c1.6,0.1,3.2,0.2,4.7,0c1.9-0.3,3.3-1.4,4.6-3.2
		C71,92.9,66.8,92.9,62.5,92.4z M74.6,91.7c0-0.1,0.1-0.2,0.1-0.4c-0.7-0.4-1.4-0.7-2-1.2c-0.9-0.7-1.8-0.6-2.7-0.1
		c-0.7,0.4-1.5,0.5-2.3,0c-0.7-0.4-1.4-0.3-2.1,0c-0.9,0.4-1.9,0.7-2.9,1.1c-0.2,0.1-0.3,0.2-0.4,0.3c0,0.1,0,0.2,0,0.3
		C66.5,92.3,70.5,92.1,74.6,91.7z"/>
	<path class="st0" d="M84.3,60.5c2,0.2,3.6,0.3,5.2,0.5c0.6,0.1,1.1,0.3,1,1c-0.1,0.7-0.6,0.7-1.1,0.7c-1-0.1-2.1-0.2-3.1-0.2
		c-1.9,0-3.9,0-5.8,0c-0.3,0-0.7-0.1-0.9-0.3c-0.2-0.1-0.4-0.5-0.3-0.7c0-0.1,0.4-0.3,0.6-0.3C81.4,60.9,83,60.7,84.3,60.5z"/>
	<path class="st0" d="M62.5,81.3c0.2-0.6,0.6-1.7,1-2.8c0.1-0.2,0.5-0.2,0.8-0.3c-0.1,0.2-0.1,0.5-0.2,0.7c-0.6,1.1-1.1,2.2-0.9,3.5
		c0,0.3,0.4,0.6,0.7,0.8c1.5,0.8,3,1.7,4.6,2.4c0.6,0.3,1.6,0.3,2.2,0c0.9-0.4,1.6-1.1,2.4-1.7c0.6-0.4,1.2-0.8,1.8-1
		c0.8-0.3,1.2-1.7,0.8-2.6c-0.2-0.4-0.2-0.9-0.3-1.3c0.3,0.3,0.7,0.6,0.9,1c0.6,1.1,0.3,2.1-0.3,3.1c-0.1,0.2-0.3,0.4-0.5,0.4
		c-1.6,0.2-2.4,1.5-3.6,2.3c-1.4,0.9-3.1,1.2-4.6,0.1c-1-0.8-2.3-1.3-3.5-1.8C62.8,83.5,62.5,83.2,62.5,81.3z"/>
</g>
</svg>
