<?xml version="1.0" encoding="utf-8"?>
<!-- Generator: Adobe Illustrator 19.2.1, SVG Export Plug-In . SVG Version: 6.00 Build 0)  -->
<svg version="1.1" id="Layer_1" xmlns="http://www.w3.org/2000/svg" xmlns:xlink="http://www.w3.org/1999/xlink" x="0px" y="0px"
	 viewBox="0 0 150.5 150" style="enable-background:new 0 0 150.5 150;" xml:space="preserve">
<style type="text/css">
	.st0{fill:#7B1FA2;}
</style>
<g id="icon-child-earinfection">
	<path class="st0" d="M28.1,150c0-1.3-0.1-2.6-0.1-3.9c0-0.6,0.2-1.2,0.3-1.9c-0.6,0.1-1,0.2-1.5,0.2c-2.2-0.1-4.3-0.2-6.5-0.3
		c-0.1,0-0.3,0-0.3-0.1c-1-1.2-2.6-0.8-3.9-1.3c-5-2-9.4-4.8-12.2-9.4c-0.6-1-0.9-2.2-1.4-3.3c-0.3-0.7-0.5-1.5-0.9-2.2
		c-1.3-2.3-1.7-4.8-1.5-7.4c0.1-1.9,0.5-3.9,1.4-5.6c0.5-0.9,0.6-2.1,1.1-3c0.7-1.3,1.6-2.5,2.4-3.8c1-1.6,2.1-3.3,3.1-5
		c1-1.7,1.8-3.6,2.8-5.3c1.5-2.7,3.3-5.3,5.4-7.7c2.2-2.6,4.2-5.3,6.3-7.9c1.9-2.3,3.7-4.6,6.1-6.4c2.5-1.9,4.8-4,6.1-6.9
		c0.6-1.3,0.8-2.9,1.1-4.3c0.1-0.6,0.2-1.2,0.5-1.7c0.6-1,0.6-2,0.6-3.1c0-1.2-0.1-2.5,0.3-3.6c0.4-1.5,1.2-2.8,2.5-3.8
		c0.5-0.4,0.8-0.9,1.2-1.3c1-1.2,2.1-2.4,3.1-3.6c1.5-1.9,1.8-3.9,0.8-6.1c-0.6-1.3-1.1-2.7-1.6-4.1c-0.7-1.8-0.9-3.6-0.2-5.6
		c0.7-2.3,1.4-4.5,2.7-6.5c0.2-0.3,0.4-0.5,0.6-0.7c2.5-2.4,4.6-5,6.6-7.8c2.3-3.2,5.1-5.9,8.6-7.7c2.4-1.3,4.9-2.6,7.2-3.9
		C71,3.7,73.1,2.5,75.4,2c2-0.5,4-0.7,6-1.2c3-0.9,6-0.8,9.1-0.8c3.3,0,6.7,0.1,9.9,0.9c2.4,0.6,4.9,1.1,7.2,2.2
		c3.3,1.6,6.4,3.3,9.3,5.5c1.2,0.9,2.4,1.7,3.5,2.7c0.9,0.8,1.5,1.9,2.3,2.9c0.9,1.1,1.8,2.1,2.7,3.2c2.1,2.6,3.9,5.3,4.2,8.8
		c0.2,2.4,0.4,4.8,0.8,7.1c0.6,3.5,0.7,7.1,0.6,10.6c-0.1,2.6-0.3,5.3-1.3,7.8c-0.5,1.4-0.3,2.8-0.3,4.2c0,1.7,0.3,3.4,0,5
		c-0.4,2.1-0.2,4.2-0.4,6.3c-0.3,2.2-0.5,4.4-0.6,6.6c-0.2,3.1-1.4,5.9-2,8.8c-0.4,2-1.4,3.7-2.5,5.3c-1.1,1.8-2.2,3.7-3.5,5.2
		c-1.9,2.2-4.1,4.3-6.3,6.3c-0.7,0.6-1.2,1.2-1.4,2.1c0,0.1,0,0.3,0.1,0.5c1.1,1.5,2.2,2.9,3.3,4.3c0.5,0.7,1.4,0.5,2,0.8
		c2.1,0.8,4.2,1.6,6.2,2.6c3.2,1.6,6.5,3.2,9.6,5c2,1.1,3.7,2.6,5.6,3.9c1.1,0.8,2.4,1.4,3.3,2.4c2.3,2.3,3.9,5.1,4.7,8.4
		c0.5,1.8,1.2,3.5,1.6,5.3c0.5,2,0.8,4,1,6c0.2,1.6,0.2,3.2,0.2,4.8c0,1.5-0.1,3-0.1,4.5C109.6,150,68.9,150,28.1,150z M63.1,66.7
		c0.1,0.5,0.3,0.8,0.4,1.2c0.3,0.9,0.4,2,1,2.7c0.6,0.8,1,1.7,1.5,2.5c0.3,0.6,0.7,1.5,1.3,1.7c1.6,0.8,2.6,2.7,2.1,4.8
		c0,0.2,0,0.4,0.1,0.6c0.6,1.5,1.2,3.1,1.9,4.6c1,2,2.2,4,3.7,5.6c0.3,0.3,0.6,0.6,0.1,1c-0.5,0.5-0.8,0-1.1-0.3
		c-2.1-2.8-3.9-5.9-5.4-9.1c-0.2-0.4-0.3-0.7-0.4-1.1c-0.8,0.4-1.4,0.8-2.1,1.2c0.2,0.3,0.3,0.6,0.5,0.9c0.9,1.5,2,2.9,2.7,4.4
		c0.6,1.3,0.9,2.8,1.4,4.3c0.1,0.3,0.2,0.8,0.5,1c1.2,0.9,2.5,1.7,3.8,2.4c1,0.6,2,1,3,1.5c1.6,0.8,3.2,1.5,4.8,2.3
		c0.3,0.2,0.7,0.3,0.9,0.5c2.8,2.2,5.9,3.6,9.4,4.3c0.5,0.1,0.9,0.1,1.4,0.2c0.7,0.1,1.5,0.2,2.2,0.3c1.8,0.1,3.7,0.4,5.4,0
		c2.9-0.6,5.7-1.7,8.5-2.7c0.2-0.1,0.4-0.3,0.6-0.5c0.7-0.7,1.2-1.6,2-2.2c2.5-2,4.7-4.3,6.6-6.8c2.4-3.1,4.6-6.3,5.5-10.1
		c0.3-1.4,1-2.8,1.2-4.2c0.5-2.6,0.9-5.2,1.1-7.8c0.3-3.2,0.4-6.4,0.5-9.6c0.1-1.7,0.1-3.5,0-5.2c-0.1-1.2-0.5-2.5-1.1-3.7
		c-0.8-1.7-1.8-3.4-1.7-5.4c0-0.3-0.1-0.7-0.3-0.8c-1.3-0.9-2.6-1.8-4-2.4c-2.1-1-4.4-0.7-6.6,0c-0.9,0.3-1.8,0.7-2.8,1
		c-0.7,0.2-1.1-0.2-0.9-0.7c0.8-0.3,1.5-0.5,2.2-0.8c3.6-1.4,7.1-1.7,10.4,0.6c0.6,0.4,1.3,0.8,1.9,1.3c0.2-0.7,0.4-1.3,0.5-1.8
		c0.5-1.5,0.8-3,0.7-4.6c-0.1-3.6-1.5-6.5-4.3-8.7c-0.6-0.5-1.2-0.9-1.8-1.4c-0.5-0.4-1-0.8-1.3-1.3c-0.7-1-1.3-2-1.9-3.1
		c-0.4,1.1-1.4,1.9-2.5,2.6c-0.5,0.4-1,0.7-1.5,1.1c-2.9,2.4-6.1,4.2-9.7,5.5c-0.2,0.1-0.4,0.1-0.5,0.1c-0.7-0.2-0.8-0.8-0.2-1.3
		c0.8-0.8,1.9-1.4,2.5-2.3c0.7-1,1.1-2.3,1.5-3.5c0.6-1.6,1.1-3.2,1.6-4.8c0.3-0.8,0.6-1.5,0.9-2.3c-0.1,0-0.1-0.1-0.2-0.1
		c-1,0.9-1.9,1.8-3,2.6c-2.2,1.6-4.8,2.7-7.3,3.6c-3.4,1.2-6.8,2.2-10.2,3.4c-3.9,1.3-7.7,2.8-11.9,2.9c-0.7,0-1.6,0.2-2.2,0.5
		c-0.9,0.5-1.6,1.3-2.4,2c-1.8,1.7-3.4,3.6-4.3,6C67.8,40,67.5,41,67.4,42c-0.3,1.5-0.2,3.1-0.6,4.6c-0.5,1.7-1.3,3.3-2,5
		c-0.6,1.3-1.1,2.6-1.1,4.1c0,0.7-0.1,1.4-0.3,2c-0.4,1.3-0.2,1.9,1.2,2c2.7,0.3,5.1,1.4,7.7,2.2c0.2,0.1,0.3,0.2,0.5,0.3
		c1,0.8,1.1,1.9,1.2,3.1c0,0.9-0.4,1.4-1.1,1.5c-1.6,0.3-3.2,0.5-4.9-0.1C66.2,66.2,64.6,66.1,63.1,66.7z M55.4,63
		c0.3-0.4,0.6-0.7,0.8-1c1.8-1.5,1.7-2.6,0.4-4.4c-0.8-1.1-1.7-2.2-2.6-3.3c-0.2-0.2-0.5-0.4-0.7-0.5c-1.2,0-2.5-0.1-3.7,0.1
		c-1.4,0.2-2.8,0.5-4.2,0.9c-0.8,0.2-1.7,0.3-2.3,0.8c-1.5,1.2-2.9,2.6-4.3,3.9c-0.2,0.1-0.2,0.4-0.3,0.6c-0.3,1-0.6,2-0.9,3
		c-0.2,0.8-0.5,1.6-0.7,2.4c-0.4,1.3-0.5,2.8-1.2,4c-1.5,2.7-3.6,5-6,6.8c-2.6,1.9-4.6,4.4-6.5,6.9c-0.9,1.2-1.8,2.5-2.8,3.6
		c-1.2,1.4-2.4,2.7-3.6,4.1c-2.6,3.2-4.7,6.6-6.6,10.3c-1.8,3.5-3.8,6.8-6.1,10.1c-0.7,1-1,2.3-1.5,3.5c-1,2.5-1.6,5-1.3,7.8
		c0.2,1.8,0.7,3.5,1.6,5.1c0.7,1.2,1.5,2.4,2.1,3.7c1.3,2.9,2.9,5.4,5.7,7.1c5.3,3.2,10.8,3.5,16.3,0.8c3.4-1.7,6.6-3.9,9-7
		c1.4-1.8,2.9-3.5,3.5-5.8c0.7-2.8-0.1-5-1.6-7.4c-0.3,0.8-0.6,1.4-0.8,2c-0.9,2.5-1.7,5.1-3.5,7.2c-0.2,0.2-0.4,0.5-0.7,0.5
		c-0.3,0-0.7-0.1-0.8-0.3c-0.1-0.2,0-0.7,0.1-0.9c1.3-1.2,2.1-2.7,2.7-4.3c0.7-1.8,1.3-3.6,2.2-5.2c0.9-1.6,1.3-3.3,1.4-5.2
		c0.1-1.6,0-3.3,0.2-4.9c0.1-1,0.7-2,1-3c1.1-3.5,2.3-7,3.3-10.6c1-3.3,2.1-6.5,4.6-9.1c1-1.1,1.4-2.4,1.7-3.8
		c0.1-0.7,0.1-1.4,0.4-2c0.6-1.4,1.4-2.7,1-4.3c-0.1-0.2,0.3-0.6,0.5-0.9c0.2,0.3,0.4,0.5,0.5,0.8c0.1,0.2,0,0.4,0,0.6
		c0.1,1.6-0.5,3-0.8,4.5c-0.5,2.1-0.6,4.4-2.4,6.1c0,0,0,0.1,0,0.1c1.1-0.1,2.3-0.1,3.4-0.3c1.5-0.3,3.2-0.3,4.4-1.6
		c0.8-0.9,2.1-1.4,2-3c0-0.3,0.2-0.5,0.3-0.8c0.2,0.3,0.6,0.5,0.6,0.8c0.2,0.9-0.1,1.7-0.8,2.5c0.2,0,0.3,0,0.3,0
		c1.8-1,4.2-0.9,5.8-2.6c0.5-0.5,1.3-0.8,2-1.2c1.3-0.7,1.7-1.3,1.5-2.7c-0.2-1.3-1-2.1-2.4-2.1c-1.7,0-3.1,0.6-4.4,1.5
		c-1.2,0.7-2.4,0.8-3.6,0.3c-1.9-0.8-3.7-1.9-5.1-3.6c-0.3-0.3-0.6-0.6-0.9-0.8c-0.4-0.3-0.7-0.6-0.4-0.9c0.1-0.2,0.8-0.1,1,0.1
		c0.5,0.3,0.8,0.8,1.2,1.3c2.4-2,4.2-4,4.6-5.1c-0.3-0.1-0.6-0.3-0.9-0.4c-0.1,0.2-0.2,0.3-0.4,0.4c-0.6,0.5-1.2,1.3-1.9,1.5
		c-1.3,0.5-3.7-0.6-4.4-2c-0.1-0.2,0.1-0.6,0.2-0.8c0.2,0.1,0.6,0.2,0.7,0.4c0.7,0.9,1.6,1.4,2.7,1.5c0-0.5,0-1,0-1.5
		c0-0.5,0.1-1,0.2-1.4c0.1-0.2,0.5-0.3,0.8-0.4c0.1,0.3,0.2,0.6,0.2,0.8c0,0.6-0.2,1.1-0.3,1.9c1.5-1.1,1.5-1.1,1-2.5
		c-0.1-0.3-0.1-0.6-0.2-0.9c0-0.5-0.1-1-0.1-1.8c-1.5,1.9-3.3,2.3-5.4,2.2c-0.8-0.1-1.3-0.5-1.5-1.2c-0.1-0.4-0.3-0.8-0.5-1.2
		c-0.3-0.5-0.7-1.1-1.1-1.6c-0.9-0.9-1.6-2.2-3.1-2.2c-0.1,0-0.3-0.4-0.4-0.6c0.2-0.1,0.5-0.4,0.7-0.4c1.3,0.2,2.3,0.8,3.1,1.9
		c0.5,0.7,1.1,1.3,1.6,2.1c0.3-0.8,0.5-1.5,0.7-2.2c0-0.2,0-0.4-0.1-0.6c-0.6-0.6-1.1-1.2-1.7-1.7c-0.3-0.3-0.9-0.5-0.5-1
		c0.4-0.5,0.8,0.1,1.1,0.3c0.3,0.2,0.5,0.5,0.8,0.8c0.2,0.2,0.4,0.3,0.7,0.7c0-0.5-0.1-0.9,0-1.1c0.1-0.6,0.2-1.2,0.5-1.7
		c0.1-0.2,0.6-0.1,0.9-0.2c0,0.3,0.2,0.9,0.1,0.9c-1,0.3-0.5,1.1-0.6,1.8c0.4-0.2,0.8-0.4,1.1-0.4c0.4,0,1,0,1.1,0.2
		c0.3,0.5-0.2,0.7-0.6,0.8c-1.7,0.6-2.3,1.9-2.4,3.6C52.3,61.5,53.9,60.8,55.4,63z M92.2,105.2c0,0.1,0,0.2,0,0.2
		c2.5,1.8,5.1,3.3,8.3,3.8c3.3,0.5,6.6,1.1,10,0.7c1.1-0.1,2.2-0.4,3.2-0.7c0.4-0.1,0.9-0.7,0.8-1c-0.2-0.9-0.4-1.8-0.9-2.6
		c-0.6-1.1-1.4-2.1-2.1-3.1c-2,0.7-4.1,1.3-6,2.1c-2.7,1.1-5.5,1.3-8.4,1C95.5,105.5,93.9,105.4,92.2,105.2z M56.8,86.6
		c-2.4,0.7-4.7,1.5-7.2,1.3c-0.5,0-1,0.1-1.5,0.2c-0.2,0.1-0.4,0.3-0.6,0.4c0.1,0.2,0.3,0.5,0.5,0.6c0.5,0.2,1,0.5,1.5,0.6
		c1.1,0.3,2.3,0.5,3.4,0.8c1.8,0.5,3.4,1.3,5.2,1.8c2.3,0.5,4.7,0.6,7.2-0.1c-0.9-0.5-1.6-1-2.5-1.3C60.4,90,58.3,88.7,56.8,86.6z
		 M62.4,65.7c0.1,0.1,0.1,0.1,0.1,0.1c0.1,0,0.2,0,0.3-0.1c1.5-0.5,3.1-0.6,4.6-0.1c1.5,0.5,3.1,0.6,4.6,0.3c0.2,0,0.6-0.1,0.7-0.3
		c0.4-0.6-0.3-2.5-0.9-2.7c-1.5-0.6-3-1.2-4.6-1.6c-1.3-0.4-2.6-0.5-3.9-0.7C63.2,62.3,63.5,64.1,62.4,65.7z M62.3,63.6
		c0-0.8-0.1-1.5,0-2.3c0.2-1.5-0.5-2.5-1.4-3.5c-1.3-1.4-2.9-2.2-4.5-3.1c-0.2-0.1-0.6-0.2-1-0.3c0.3,0.5,0.5,0.8,0.8,1.1
		c0.8,1.1,1.5,2.2,2.3,3.3c0.1,0.1,0.1,0.2,0.2,0.2c0.8,0.1,0.7,0.5,0.4,1c-0.9,1.5-1.9,3-1.6,5c0.2,1.2,0.7,2.2,1.6,2.4
		C58.3,64,59.2,63,62.3,63.6z M55.7,73.3c0.1,0,0.2,0,0.3,0.1c0.1,0.7,0.3,1.5,0.5,2.2c0,0.1,0.1,0.2,0.2,0.3c1.4,1.2,3,1.3,4.6,0.3
		c0.3-0.1,0.5-0.2,0.8-0.4c1.1-0.4,2.2-0.9,3.3-1.3c-0.2-0.5-0.5-1.1-0.8-1.8c-1,0.6-1.9,0.3-2.7-0.2c-0.5-0.3-1.1-0.6-1.6-0.2
		c-1.1,0.7-2.3,0.7-3.4,0C56.4,72.6,56.1,73,55.7,73.3z M63.6,71.7c-0.5-1.3-0.9-2.5-1.3-3.7c-0.1-0.2-0.7-0.4-0.9-0.3
		c-0.8,0.6-1.7,1.1-2.1,2.1c-0.1,0.3-0.5,0.5-0.7,0.7c-0.3,0.3-0.5,0.6-0.7,0.8c0.4,0.1,0.8,0.2,1.3,0.3c0.2,0,0.4-0.1,0.5-0.2
		c1.1-0.7,2.2-0.6,3.3,0C63,71.6,63.3,71.7,63.6,71.7z M54.4,63.6c-1.2-1.8-1.8-1.6-3.7,0.9C52.1,64.6,53.4,64.8,54.4,63.6z
		 M60.3,67.3c0.4-0.7,0.9-1.4,1.3-2.1c0.1-0.2,0.1-0.6,0-0.8c-0.5-0.5-1.3-0.3-1.7,0.2C59.4,65.4,59.6,66.7,60.3,67.3z"/>
	<path class="st0" d="M115,76.5c-0.2,1-0.3,1.9-0.5,2.9c-0.1,0.8-0.1,1.7-0.4,2.5c-0.4,1.3-0.7,2.7-0.9,4.1
		c-0.2,2.1-1.5,3.5-3.3,4.7c-3.1,2-6.4,2.7-9.9,1.7c-0.7-0.2-1.3-0.4-2-0.6c-1.7-0.3-2.6-1.4-3.4-2.8c-1-1.9-1.6-3.8-2-5.8
		c-0.3-1.1-0.5-2.3-0.6-3.5c0-0.4,0.2-0.9,0.4-1.1c2.3-2,3.8-4.6,5.9-6.8c1.9-2,4.1-2.9,6.9-2.4c0.7,0.1,1.5,0.1,2.3,0
		c2.1,0,3.9,0.7,5.6,1.8c1.3,0.8,1.7,2.3,1.8,3.7c0,0.5,0,1,0,1.5C114.9,76.5,115,76.5,115,76.5z M103.3,76.7
		c-0.8,0.1-1.5,0.2-2.3,0.2c-2.4,0.2-4.7,0.8-6.5,2.5c-0.3,0.3-0.5,0.8-0.5,1.2c0,1.2,1.1,1.9,1.6,2.8c0.4,0.8,1,1.2,1.9,1
		c0.3-0.1,0.6,0,0.9,0c2.8,0.5,5.6,0.2,8.3-0.9c0.6-0.3,1.4-0.9,1.6-1.5c0.4-1.4-0.3-3.7-1.6-4.6C105.6,76.8,104.5,76.7,103.3,76.7z
		 M113.5,81.5c-0.1-0.1-0.2-0.1-0.3-0.2c-0.7,1.1-1.6,2.2-2.2,3.3c-0.9,1.8-2.2,2.9-4.1,3.5c-2.3,0.7-4.5,0.6-6.8,0.2
		c-1.6-0.3-2.9-1.2-3.9-2.5c-1.2-1.6-2.6-3.1-3.3-5c0.7,2.6,1.1,5.2,2.5,7.6c0.5,0.9,0.9,1.9,2.1,2.2c2,0.6,4,1.5,6.2,1.2
		c1.8-0.2,3.5-0.6,5-1.5c1.9-1.2,3.5-2.6,3.8-5.1c0.1-0.8,0.2-1.7,0.4-2.5C113.1,82.3,113.3,81.9,113.5,81.5z M113.7,77.5
		c0.1,0,0.2,0,0.2,0c0.1-0.2,0.2-0.5,0.1-0.7c-0.1-0.9-0.2-1.8-0.3-2.7c-0.1-1.2-0.8-1.9-1.8-2.5c-1.5-0.8-3.1-1.3-4.9-1.2
		c-0.7,0.1-1.5,0-2.2-0.2c-2.1-0.5-4,0.3-5.4,1.7c-1.7,1.7-3.1,3.8-4.7,5.7c0.3,0,0.5-0.1,0.7-0.3c0.9-0.9,1.8-1.8,2.8-2.6
		c1.5-1.1,3.1-2.1,5.1-2c1.9,0.1,3.7,0.2,5.6,0.3c2.6,0.2,3.7,0.9,4.3,3.3C113.4,76.8,113.5,77.1,113.7,77.5z M105.8,73.7
		c0.5,1.7,1,2,2.4,1.9c0.5,0,1-0.1,1-0.7c0-0.6-0.3-1.1-1-1.1C107.4,73.7,106.6,73.7,105.8,73.7z M101.7,73.8
		c0.4,1.3,1.9,2.1,2.9,1.5c0.2-0.1,0.5-0.5,0.5-0.8c0-0.2-0.2-0.6-0.4-0.6C103.7,73.6,102.7,73.5,101.7,73.8z"/>
	<path class="st0" d="M93.4,52.7c-2.2-0.4-4.1-0.7-6-0.9c-1.2-0.1-2.5-0.4-3.7,0.5c-0.5,0.4-1.1,0.5-1.7,0.7
		c-0.2,0.1-0.5-0.2-0.8-0.3c0.2-0.2,0.3-0.5,0.5-0.6c0.9-0.8,1.8-1.6,2.6-2.4c1.2-1,2.3-2,3.5-3c0.4-0.3,1-0.5,1.6-0.6
		c1.7-0.4,3.4-0.5,5,0.1c1.5,0.5,2.3,1.7,3.2,2.9c0.4,0.5,1.1,1,0.9,1.9c-0.1,0.2-0.2,0.5-0.3,0.5C96.5,51.9,94.8,52.3,93.4,52.7z
		 M97.2,50.5c0-0.1,0.1-0.2,0.1-0.3c-1.1-0.9-2.1-1.8-3.1-2.6c0.1,1.3,0.2,2.5,0.3,3.8C95.3,51,96.3,50.8,97.2,50.5z M88.1,50.5
		C88.1,49.9,88,49.5,88,49c0-0.6-0.4-0.7-0.8-0.4c-0.6,0.4-1.2,1-1.8,1.5c-0.1,0.1,0,0.2-0.1,0.5C86.2,50.5,87.1,50.5,88.1,50.5z
		 M91.2,50c0.4-0.5,0.8-0.9,0.8-1c-0.1-0.4-0.5-0.6-0.8-0.9c-0.3,0.3-0.6,0.6-0.7,0.9C90.4,49.2,90.8,49.5,91.2,50z"/>
	<path class="st0" d="M124.2,51.4c0,0.7-0.3,0.8-0.8,0.7c-1.4-0.4-2.8-0.8-4.2-1.1c-0.7-0.1-1.6,0-2.3,0c-1.9,0.1-3.8,0.3-5.7,0.5
		c-0.3,0-0.8-0.1-1-0.3c-0.2-0.2-0.1-0.7,0-1c1.6-3,3.2-4.8,7.1-4.8c0.5,0,1.1,0,1.6,0c0.3,0,0.6,0,0.8,0.2c1.3,0.9,2.6,1.8,3.2,3.3
		c0.2,0.6,0.6,1.1,0.9,1.7C124,50.9,124.1,51.2,124.2,51.4z M120,47.4c-0.1,0.8-0.3,1.6-0.4,2.4c0.8,0.2,1.7,0.5,2.7,0.8
		C121.9,49,121.1,48,120,47.4z M114,47.6c-1.2,0.4-2.2,1.4-2.3,2.6c0.8-0.1,1.6-0.1,2.3-0.2C114,49.1,114,48.4,114,47.6z
		 M117.9,47.9c-0.4-0.4-0.8-0.9-0.9-0.8c-0.4,0.1-0.6,0.5-1,0.8c0.3,0.3,0.6,0.6,1,0.7C117.2,48.7,117.5,48.3,117.9,47.9z"/>
	<path class="st0" d="M106.5,65.6c-1.2-0.2-2.1-0.4-2.7-1.4c-0.5-0.8-1.4-0.3-2.1-0.3c-0.7,0-1.5,0.1-2.2,0.1
		c-0.8,0-1.4-0.6-1.5-1.4c-0.1-1.3,0.3-2.5,1.4-3.4c0.4-0.3,0.7-0.6,1.1-0.8c0.2-0.1,0.4,0,0.6,0c0,0.2,0,0.5-0.1,0.6
		c-0.5,0.5-1.1,1-1.6,1.5c-0.4,0.3-0.8,1.7-0.4,2.1c0.3,0.3,0.8,0.4,1.3,0.5c0.1,0,0.3-0.1,0.4-0.2c1.5-0.9,2.9-0.6,3.9,0.8
		c0.5,0.8,1.9,1.1,2.7,0.6c0.4-0.3,0.8-0.6,1.2-0.9c0.7-0.3,1.4-0.6,2.1-0.9c1-0.4,1.1-0.9,0.5-1.8c-0.5-0.8-0.9-1.7-1.3-2.6
		c-0.1-0.2,0.2-0.5,0.3-0.8c0.2,0.2,0.4,0.4,0.5,0.6c0.4,0.8,0.6,1.8,1.2,2.3c1,1,0.7,2.4-0.8,3.2c-0.9,0.4-1.7,0.9-2.6,1.3
		C107.8,65.1,107.1,65.3,106.5,65.6z"/>
	<path class="st0" d="M91.9,40.6c2.2-0.1,4.2,0.5,6.2,1.5c0.1,0,0.2,0.1,0.2,0.1c0.2,0.2,0.3,0.5,0.4,0.8c-0.3,0-0.6,0.2-0.9,0.1
		c-0.7-0.2-1.4-0.6-2.1-0.8c-2.9-0.9-5.8-0.8-8.6,0.4c-1.7,0.7-3.3,1.6-4.9,2.5c-0.4,0.2-0.8,0.7-1.2,1c-0.2,0.1-0.5,0.1-0.8,0.1
		c0-0.3-0.1-0.7,0.1-0.8c1.1-0.9,2.2-1.8,3.5-2.4c1.8-0.9,3.7-1.9,5.8-2.2C90.3,40.7,91.1,40.6,91.9,40.6z"/>
</g>
</svg>
