<?xml version="1.0" encoding="utf-8"?>
<!-- Generator: Adobe Illustrator 19.2.1, SVG Export Plug-In . SVG Version: 6.00 Build 0)  -->
<svg version="1.1" id="Layer_1" xmlns="http://www.w3.org/2000/svg" xmlns:xlink="http://www.w3.org/1999/xlink" x="0px" y="0px"
	 viewBox="0 0 181.4 173" style="enable-background:new 0 0 181.4 173;" xml:space="preserve">
<style type="text/css">
	.st0{fill:#D32F2F;}
</style>
<g id="icon-child-redeye">
	<path class="st0" d="M181.4,145.8c-1-0.8-1.9-1.7-2.9-2.5c-1-0.8-1.4-1.7-1.7-2.9c-0.7-3.2-2.1-6.2-3.7-9c-1.7-3-4.3-5.1-6.8-7.4
		c-2.1-1.9-4.2-3.7-6.8-4.7c-3.3-1.2-5.9-3.3-8.2-5.9c-1.9-2.2-4.1-4.2-5.8-6.5c-2.2-2.9-4.6-5.8-3.2-9.9c0.2-0.5,0.1-1,0.1-1.5
		c-0.1-3.6-0.2-7.2-0.4-10.8c-0.1-1.3-0.3-2.7-0.8-3.9c-0.9-2.1-2.6-3.6-4.5-5.1c-1.4-1.1-2.6-2.4-3.8-3.7c-0.4-0.4-0.4-1.3-0.4-1.9
		c0-0.5,0.1-0.9,0.1-1.4c-0.2-1.4,0.5-2.4,1.3-3.4c2.9-3.6,4.3-8,6.2-12.1c0-0.1,0-0.2,0-0.2c0.9-4.8,0.2-9.5-0.4-14.2
		c-0.4-3.5-1.5-6.9-2.3-10.4c-0.8-3.5-2.9-6.3-4.5-9.4c-1.1-2.1-2.4-4.2-3.7-6.2c-1.3-1.9-2.7-3.8-4.3-5.4c-2-2.1-4.7-3-7.3-4
		c-1.9-0.7-3.5-2.3-5.8-2.3c-2.7-0.1-5.3-0.8-8-0.9c-2.2-0.1-4.4,0.4-6.6,0.5c-2.3,0.1-4.6,0.6-7.1,0.2c-2.5-0.4-5.2-0.5-7.8,0.5
		c-1.3,0.6-2.8,0.8-4.2,1.2c-1.2,0.3-2.4,0.6-3.6,1.1c-4.3,1.7-7.5,5-10.8,8.1c-1.1,1.1-2.1,2.3-2.9,3.7c-1.5,2.7-2.9,5.6-4.3,8.4
		c-0.2,0.4-0.4,0.8-0.4,1.2c-0.5,2.5-1,5.1-1.4,7.6c-0.9,5.8-1.5,11.5-1.4,17.4c0,1.8,0,3.6,0,5.4c-0.3,0.1-0.6,0.2-0.9,0.3
		c-2.8,0.9-4.2,3.7-2.4,6.4c1.8,2.6,3.6,5.3,5.3,8c1,1.7,1.9,3.4,2.7,5.2c0.4,0.8,0.5,1.9,0.3,2.7c-0.2,1-1,1.8-1.4,2.8
		c-1.6,3.2-3.3,6.4-4.9,9.7c-2.7,5.3-4.6,10.9-6.3,16.6c-0.3,1.1-0.5,2.3-0.8,3.3c-4.7,1.3-9.3,2.5-13.9,3.8c-3.7,1-7,2.9-10,5.2
		c-2.7,2-5,4.4-6.6,7.3c-2.1,3.7-4,7.6-5.9,11.4c-0.7,1.3-1.3,2.6-1.8,4c-0.8,2.1-1.3,4.3-2.2,6.3c-2.5,5.8-3.8,11.8-3.9,18.1
		c0,2.1-0.3,4.1-0.5,6.2h1.8c0.2-2.4,0.3-4.8,0.6-7.2c0.4-3.4,0.4-6.9,1.5-10c2.2-6.4,4.1-13,7.4-19c0.7-1.3,1.4-2.7,2-4.1
		c1.8-4.2,4.4-7.8,7.9-10.7c0.8-0.7,1.7-1.2,2.6-1.7c1.5-1,3-2.2,4.7-2.9c4.2-1.7,8.6-3.1,13.2-3.8c3.6-0.6,7.1-1.3,10.7-1.9
		c1.7-0.3,3.4-0.5,5.1-0.8c0,1.7-0.1,3.2,0,4.8c0.1,2.5,0.1,5.1,0.5,7.5c1,5.1,3.6,9.2,7.9,12.2c4.1,2.8,8.7,3.8,13.5,4
		c1,0.1,2,0,2.9,0.3c3.9,1.2,7.8,0.4,11.6,0c2-0.2,4-0.7,6-0.8c3.7-0.2,7.4-0.6,11-1.7c6.6-2,12-5.4,15.5-11.7
		c1.4,1.2,2.3,2.9,3,4.6c1.1,2.6,2.4,5.2,3.6,7.9c1.7,3.7,3.4,7.5,4.9,11.2c1.8,4.2,3.3,8.6,5.2,12.8c1.5,3.3,3.4,6.4,5.1,9.6
		c0.9,1.6,0.8,1.6,2.8,1.3c-0.3-0.6-0.5-1.1-0.8-1.7c-2.8-5-5.6-10-7.7-15.4c-2.2-5.5-4.4-11-6.8-16.5c-1.3-3.1-3-6.1-4.3-9.3
		c-1-2.4-2.1-4.5-4-6.3c-1.2-1.2-2.2-2.5-3.2-3.9c-1.1-1.4-2.1-2.9-3.3-4.2c-2.8-3-5.3-6.2-6.9-10c-1-2.3-2.1-4.6-1.8-7.2
		c0.1-1.1,0.2-2.3,0.3-3.4c0.3-3.1,0.5-6.2,0.9-9.2c0.2-1.8,1.5-2.7,3.3-2.7c2.1,0.1,4-0.4,5.6-1.7c0.5-0.4,1-0.9,1.7-1.5
		c0.2,1.8,0.4,3.4,0.4,4.9c0,3.3-1.8,3.9-4.5,3.4c-0.5-0.1-1-0.4-1.5-0.6c-0.6-0.3-1.2-0.6-1.9-0.7c-0.3-0.1-0.6,0.2-0.9,0.3
		c0.1,0.4,0.2,0.9,0.4,1.1c2.1,0.9,4.2,2.2,6.7,1.7c0.5-0.1,1.2-0.3,1.5-0.7c0.6-1,1.4-2,1.5-3.1c0.2-1.6,0-3.2-0.2-4.8
		c-0.1-1.2,0-1.6,1.2-2c0.9-0.3,1.7-0.5,2.6-0.8c0.6-0.2,1.2-0.5,0.9-1.2c-0.1-0.3-1-0.4-1.4-0.3c-1.1,0.3-2.2,0.7-3.2,1
		c-0.9,0.3-1.5,0-2-0.9c1.1-0.7,2.2-1.3,3.2-2.1c0.4-0.3,0.4-1,0.6-1.5c-0.5,0-1-0.1-1.4,0.1c-1,0.5-1.8,1.3-2.7,1.8
		c-0.9,0.5-2,0.6-3.1,1c0-0.6,0.1-0.8,0-1c-0.1-0.5-0.2-1-0.3-1.4c-0.4,0.4-0.8,0.8-1.2,1.2c-0.1,0.1,0,0.3,0,0.3
		c-0.3,0.5-0.5,1.1-0.9,1.3c-1.9,1-4,1.1-6.1,0.8c-0.7-0.1-1.1-0.4-1.1-1.3c0-1.6,0.5-2.3,2.3-3c2.2-0.9,4.3-1.8,6.5-2.6
		c0.8-0.3,1.7-0.7,2.5-0.7c1.9,0,3.7,0.3,5.6,0.5c1.4,0.2,2.4,0.9,3.3,2.1c1.2,1.7,2.7,3.2,4.4,4.4c3,2.1,4.6,4.8,4.7,8.4
		c0.1,3.3,0.3,6.7,0.2,10c-0.1,2.3-0.7,4.6-1.1,6.7c-1.6,0-3.1,0-4.6,0c-1.9,0-3.5,0.9-5,2.1c-0.2,0.2-0.1,0.7-0.2,1.1
		c0.4,0,0.8,0.2,1.2,0c0.6-0.3,1-0.7,1.5-1.1c1.5-1,3.2-0.6,4.8-0.7c2.8-0.2,4.4,1.4,5.6,3.6c0.2,0.3,0.5,0.6,0.9,0.9
		c0.4,0.3,1,0.4,1.3,0.8c0.8,0.8,1.5,1.7,2.2,2.6c1.6,1.8,3.4,3.4,4.9,5.3c2,2.6,3.7,5.3,5.7,7.9c1.9,2.6,3.7,5.2,5.8,7.6
		c4.4,5,10,8.7,14.9,13.1c1.1,1,2.2,1.9,3.3,2.9V145.8z M57.8,70.1c-0.8-0.8-1.6-1.8-2.3-2.8c-1.2-1.7-2.3-3.5-3.5-5.3
		c-0.1-0.2-0.2-0.5-0.4-1c1.8,1.1,3.2,2.1,4,3.8c0.5,1.1,0.8,1.1,1.6,0.4c-0.7-1.2-1.5-2.4-2.2-3.5c-0.8-1.2-2.1-1.5-3.3-1.7
		c-0.8-0.2-0.9-0.5-0.5-1.1c0.8-1.6,2.2-1.8,3.1-0.4c2,3,4,6,6,9c0.5,0.7,1.2,1.3,1.8,2c0.2,0.2,0.4,0.4,0.4,0.7
		c0.1,1.2,0.2,2.5,0.2,3.8C61.9,71.5,59.2,71.6,57.8,70.1z M62.4,81.3c-1.1-0.5-1.6-1.4-1.8-2.3c-0.6-2.2-1-4.4-1.5-6.6
		C61.2,73.3,62.9,77.5,62.4,81.3z M125.1,124c-0.5,1.9-1.5,3.4-2.9,4.8c-2.7,2.5-5.6,4.6-9,5.8c-4.2,1.5-8.4,2.4-12.9,2.5
		c-3.2,0.1-6.4,0.7-9.6,1.1c-2.6,0.3-5.1,0.4-7.7-0.2c-1.7-0.4-3.4-0.3-5.1-0.5c-4.1-0.5-8.1-1.5-11.5-4c-4.1-3.1-6.7-7.2-7.2-12.4
		c-0.3-3.2-0.2-6.5-0.3-9.7c0-0.9,0.3-1.4,1.2-1.6c0.6-0.1,1.2-0.4,1.7-0.5c0,2,0,4,0,6c0,1,0.2,2.1,0.4,3.1
		c0.3,1.3,0.7,2.6,1.1,3.9c1.6,5.7,5.3,9.2,11,10.5c3.1,0.7,6.4,1.2,9.6,1.4c3.9,0.3,7.9,0.3,11.8,0.2c1.5,0,3-0.3,4.5-0.7
		c3.1-0.7,6.1-1.6,9.2-2.3c3.2-0.7,5.9-2.5,8.5-4.3c1.9-1.3,3.8-2.8,5.6-4.2C124.1,123.3,124.6,123.6,125.1,124z M114.7,111
		c2.7,3.3,5.4,6.5,8.2,9.9c-1.3,1-2.4,1.9-3.5,2.7c-1.8,1.3-3.6,2.6-5.5,3.9c-2.6,1.8-5.7,2.4-8.7,3.1c-2.4,0.6-4.8,1.5-7.3,1.7
		c-3.7,0.4-7.5,0.5-11.3,0.4c-3.2-0.1-6.3-0.5-9.5-1.1c-2.1-0.4-4.3-1-6.2-2c-3.2-1.7-5.3-4.5-6-8.1c-0.1-0.5-0.1-1-0.3-1.5
		c-1.2-3.4-1.3-6.9-0.9-10.5c0.1-0.4,0.3-1,0.6-1.2c2.8-1.5,3.6-4.2,4.6-6.9c0.1-0.3,0.1-0.5,0.2-0.8c0-0.1,0.1-0.1,0.3-0.4
		c1.7,2.2,3.5,4.4,5.1,6.6c3.8,5.5,7.9,10.7,13.8,14.2c3,1.8,6.4,2.6,9.8,2.3c1.9-0.2,3.9-1.1,5.5-2.2c3.8-2.4,7.1-5.5,9.8-9.1
		C113.9,111.7,114.3,111.3,114.7,111z M112.5,83.8c-0.1,0.1-0.3,0.2-0.5,0.2c-1.5,0.1-3,0.1-4.6,0.3c-2.2,0.3-3.6-0.4-4.3-2.3h11.1
		C113.6,82.6,113.1,83.2,112.5,83.8z M111.4,79.1c2.5,0.3,4.9,0.3,7.2-0.8c1.1-0.5,2.1-0.7,3.3-0.4c0.8,0.2,1,0.6,0.5,1.3
		c-0.7,1.1-1.7,1.2-2.9,1c-1-0.2-2.2,0-3.3,0c-4,0.1-8,0.2-12,0.3c-0.8,0-1.3-0.4-1.5-1.2c-0.2-0.6-0.5-1.2-0.7-1.8
		c-0.4-0.8-0.2-1.4,0.5-1.9c0.2,0.4,0.4,0.6,0.5,0.9c1.8,3.2,3.8,3.1,7.1,2.6C110.6,79,111,79,111.4,79.1z M112.8,72
		c-2.3,0.8-3.3,2.1-3.3,4.5c0,1.3-0.3,1.5-1.5,1.4c-1.7,0-2.9-0.6-3.7-2.2c-0.6-1.2-0.5-1.8,0.7-2.5c2.8-1.8,6-1.9,9.1-2.4
		c0.6-0.1,1.2-0.2,1.8-0.3c0,0.1,0,0.2,0.1,0.2C114.9,71.2,113.8,71.7,112.8,72z M130.3,69.7c-5.8-1.2-11.7-1.7-17.6-0.2
		c1.5-1.3,3.3-1.7,5.1-2.2c0.5-0.1,1-0.2,1.4-0.5c0.3-0.2,0.4-0.6,0.6-0.9c-0.3-0.1-0.7-0.4-1-0.3c-2.8,0.6-5.5,1.5-8,3
		c-1.9,1.1-3.9,2.1-6,3c-2,0.9-3.2,2.6-4.4,4.3c-0.3,0.5-0.2,1.3,0,2c0.3,1.6,0.8,3.1,1.1,4.6c0.3,1.5,1.9,3,3.5,3.1
		c1.8,0.1,3.6,0.1,5.4,0.1c0.4,0,0.8,0,1.1,0.1c-0.2,3.6-0.4,7.1-0.6,10.4c-0.7-0.9-1.4-2-2.2-3.1c-0.2,0.1-0.3,0.2-0.5,0.3
		c0.2,0.4,0.3,0.9,0.6,1.3c1.3,1.8,1.3,2.4-0.2,4.1c-0.7,0.8-1.4,1.6-2.1,2.4c-2.2,2.7-6.3,3.2-8.8,0.6c-0.6-0.7-1.5-1.2-2.3-1.6
		c-1.7-0.9-2.3-2.7-1.4-4.5c0.2-0.5,0.3-1,0.5-1.5c-0.2-0.1-0.3-0.2-0.5-0.2c-0.3,0.4-0.6,0.9-0.8,1.3c-0.7,1.4-0.7,2.9,0,4.3
		c0.2,0.5,0.7,0.8,1.1,1.1c1.1,0.8,2.4,1.5,3.5,2.4c2,1.7,6.1,1.7,8.3-0.2c0.8-0.7,1.5-1.6,2.3-2.4c0.7-0.8,1.4-1.6,2.1-2.3
		c0.1,0,0.2,0.1,0.2,0.1c-0.2,3.6,1.4,6.7,2.9,9.8c0.4,0.8,0.3,1.3-0.2,2c-2,2.9-4.6,5.1-7.1,7.5c-2.3,2.1-4.9,3.7-7.9,4.1
		c-3.3,0.5-6.5-0.4-9.4-2.1c-5.9-3.6-10-8.8-13.7-14.4c-1.2-1.8-2.9-3.3-4.2-5.1c-0.8-1-1.5-2-2-3.2c-1.7-3.7-2.9-7.7-3.9-11.6
		c-1.3-4.9-1.4-9.8-1.6-14.8c0-0.6,0.5-1.3,1-1.7c2-1.9,3.6-3.9,4.4-6.6c0.5-1.7,1-3.4,1.4-5.1c0.6-2.7,2.3-4.6,4.6-6
		c2.1-1.3,4.3-2.4,6.5-3.6c0.8-0.4,1.5-0.9,2.2-1.3c2.6-1.4,3.6-3.5,3.6-6.4c-0.1-4.1,0.4-8.1,0.9-12.2c0.4-3.1,0-6.4,0-9.6
		c0-1.1-0.1-2.2-0.1-3.3c0-0.8,0.4-1.4,1.2-1.4c0.9-0.1,1.3,0.6,1.4,1.4c0.1,3.8,0.3,7.6,0.2,11.3c-0.1,2.8-0.6,5.5-0.9,8.3
		c-0.1,1.8-0.1,3.5-0.1,5.3c0,0.9-0.3,1.9-0.1,2.7c0.7,2.7,2.4,4.4,5.2,5.1c2.6,0.7,5.3,1.5,7.7,2.7c2.5,1.1,4.2,3.2,5.7,5.4
		c1.7,2.3,3.5,4.5,5.5,6.6c1.4,1.6,3.5,2,5.4,2.2c2.4,0.2,4.8,0.2,7.2,0C130,64.2,131.4,66.8,130.3,69.7z M156.2,120.1
		c7.4,2,17.1,11.9,18.5,19.6C171.4,138.7,163.3,130.1,156.2,120.1z"/>
	<path class="st0" d="M39.2,151.3c1.9-3.7,3.6-7.1,5.4-10.4c0.3-0.6,0.8-1.2,1.2-1.7c0.5-0.6,1.2-0.8,1.6-0.2
		c0.3,0.4,0.4,1.4,0.1,1.8c-2.7,4.2-5.2,8.4-6.5,13.3c-0.3,1.2-0.3,2.4-0.6,3.6c-0.4,1.7-1,3.4-1.4,5.1c-0.2,0.8-0.4,1.7-0.4,2.6
		c0,2.2,0.2,4.5,0.1,6.7c0,1.6-1.3,0.4-2.1,1.1c0-3.2-0.1-6.1,0-9c0.1-3,0.4-5.9,0.7-8.9c0.4-4.9-0.2-9.6-2-14.2
		c-0.4-0.9-0.6-1.9-0.8-2.9c0-0.3,0.5-0.7,0.8-1.1c0.3,0.3,0.8,0.5,1,0.9c1.1,3.4,2.6,6.7,2.9,10.3
		C39.3,149.1,39.2,150.1,39.2,151.3z"/>
	<path class="st0" d="M134.7,82.3c-0.4,0.2-0.9,0.5-1.3,0.6c-1.6,0.2-3.1,0.7-4.2,1.8c-0.5,0.5-1,1.1-1.2,1.7
		c-1.1,3.8-2.7,7.3-4.6,10.7c-0.6,1.1-0.6,2.6-0.9,3.8c-0.1,0.3-0.1,0.6-0.2,0.8c-0.3,0.3-0.7,0.5-1,0.8c-0.1-0.4-0.4-0.8-0.3-1.2
		c0-0.7,0.2-1.5,0.4-2.2c0.4-1.2,0.8-2.4,1.3-3.6c1.5-3.5,3-6.9,4.4-10.3c0.6-1.4,1.7-2.1,2.8-2.7c1.2-0.6,2.6-0.8,3.9-1
		c0.3-0.1,0.6,0.3,0.9,0.4C134.7,82,134.7,82.1,134.7,82.3z"/>
	<path class="st0" d="M87.6,107.3c0.5,0,1,0,1.4,0.1c2.5,0.8,4.9,0.7,7.4,0.1c1.6-0.4,3.2-0.6,4.8,0.1c0.5,0.2,1.1,0,1.7-0.2
		c1.2-0.4,2.4-1,3.7-1.3c1.3-0.3,2.7-0.5,4-0.7c0.2,0,0.6,0.1,0.7,0.2c0.1,0.2,0,0.7-0.2,0.8c-1.9,1.2-2.7,3.3-3.7,5
		c-2.2,3.7-5.5,4.4-9.3,4c-0.6-0.1-1.2-0.2-1.9-0.2c-2.4-0.2-4-1.5-5.3-3.4c-1-1.5-2.2-2.8-3.4-4.2
		C87.5,107.5,87.6,107.4,87.6,107.3z M90.1,109.2c2.8,4.5,6.5,6.2,11.5,5.4c2.8-0.5,5.5-3.1,6-5.9c-0.4,0.2-0.8,0.4-1.2,0.6
		c-3.2,1.8-6.6,2.3-10.2,1.4C94.3,110.1,92.2,109.7,90.1,109.2z M94.3,108.9c5.4,1.9,10.9,1.1,13.7-1.9c-1.6-0.1-3.1,0.1-4.5,1.1
		c-0.9,0.6-1.9,0.8-2.9,0.3C98.4,107.2,96.4,108.8,94.3,108.9z"/>
	<path class="st0" d="M87.4,83.8c-2.4-0.5-4.6-1-6.8-1.5c-1.2-0.3-2.4-0.5-3.6-0.9c-0.3-0.1-0.4-0.5-0.6-0.8
		c0.3-0.2,0.5-0.5,0.8-0.6c2.1-0.5,4.3-0.9,6.3-1.6c2.4-0.8,4.8-1.1,7.3-0.8c1.6,0.2,2.6,1.1,3.6,2.3c0.5,0.6,0.4,1.4-0.4,1.7
		C91.8,82.4,89.5,83.1,87.4,83.8z M84.8,79.7c-0.8,0.1-1.6,0.2-2.3,0.4c-0.3,0.1-0.6,0.4-0.9,0.6c0.2,0.2,0.5,0.6,0.7,0.7
		c0.9,0.3,1.9,0.4,2.8,0.6C85,81.2,84.9,80.4,84.8,79.7z M90,81.5c0.8-0.2,1.5-0.4,2.3-0.7c0.3-0.1,0.7-0.4,0.6-0.6
		c-0.1-0.3-0.3-0.6-0.6-0.7c-0.7-0.3-1.4-0.5-2.1-0.7C90.1,79.8,90,80.6,90,81.5z"/>
	<path class="st0" d="M76,73.6c3.6,0.3,7.3,0.6,10.9,0.9c1.3,0.1,2.6-0.1,3.9-0.1c0.6,0,1.4-0.3,1.4,0.7c0.1,0.8-0.7,0.9-1.3,0.9
		c-2.2,0-4.4,0.1-6.6,0c-2.6-0.2-5.2-0.6-7.8-0.8c-0.6-0.1-1.3,0.2-1.9,0.1c-0.4-0.1-1-0.3-1.1-0.7c-0.2-0.6,0.3-0.9,0.9-0.9
		C75,73.7,75.5,73.7,76,73.6C76,73.7,76,73.6,76,73.6z"/>
</g>
</svg>
