<?xml version="1.0" encoding="utf-8"?>
<!-- Generator: Adobe Illustrator 19.2.1, SVG Export Plug-In . SVG Version: 6.00 Build 0)  -->
<svg version="1.1" id="Layer_1" xmlns="http://www.w3.org/2000/svg" xmlns:xlink="http://www.w3.org/1999/xlink" x="0px" y="0px"
	 viewBox="0 0 131.1 200" style="enable-background:new 0 0 131.1 200;" xml:space="preserve">
<style type="text/css">
	.st0{fill:#BF360C;}
</style>
<g id="icon-child-athletesfoot">
	<path class="st0" d="M25.3,51.9c-1-1.3-2.1-2.3-2.8-3.5c-1.5-2.6-2.9-5.2-4.3-7.9c-0.6-1.1-0.3-2.5,0.6-3.4c0.2-0.2,0.3-0.7,0.2-1
		c-0.7-3.1-1.6-6.1-2.1-9.2c-0.3-1.8,0.1-3.6,0.2-5.4c0-0.3,0.1-0.6,0.2-1.1c-1-0.1-1.9,0.1-2.5,0.7c-1.3,1.1-2.3,2.4-2.7,4.2
		c-0.8,3.1-0.8,6.1-0.4,9.2c0.5,3.9,1.7,7.5,3.3,11c0.6,1.5,0.6,1.7-0.8,2.6c-1.4,0.9-3,0.9-4.6,0.7C8.1,48.7,6.8,48,5.6,47
		c-0.2-0.1-0.3-0.3-0.4-0.5c-0.8-1.2-1.6-2.4-2.3-3.6c-0.3-0.5-0.6-1.2-0.6-1.7c0.1-3.2,0-6.5,0.6-9.6c0.5-2.7,1.5-5.3,3.3-7.5
		c1.7-2.2,3.1-4.6,4.8-6.7c1.1-1.4,2.6-2.5,4.7-2.5c0.5,0,1-0.1,1.7-0.2c0-0.6,0.1-1.2,0.1-1.8c0.1-1.7,0.7-3.1,2.2-4
		c1.1-0.6,2.2-1.3,3.2-1.9c0.4-0.2,0.7-0.5,1-0.8c0.3-0.2,0.5-0.5,0.8-0.8c1-0.8,2-1.7,3-2.5c1.4-1,3-1.7,4.9-1.3
		c0.2,0,0.4,0.1,0.5,0c3.9-1.9,8-1.7,12.1-1.4c2.8,1.3,6,1.1,8.5,3.2c0.3,0.3,0.8,0.3,1.2,0.5c0.6,0.3,1.3,0.5,1.7,1
		c1.4,1.4,2.6,2.8,3.9,4.2c0.1,0.1,0.2,0.2,0.2,0.3c0.8,1.6,2.1,2,3.7,1.4c2.2-0.8,5.3,1.4,6.5,3.2c1.5,2.3,2.5,4.8,3.2,7.4
		c0.7,2.8,0.5,5.7,0.3,8.6c-0.1,1.1-0.5,2.2-0.8,3.3c-0.2,1-0.5,2-0.7,3c-0.1,0.5-0.2,1-0.4,1.4c-1.5,2.5-2.6,5.3-4.8,7.4
		c-0.5,0.5-1.1,0.9-1.8,1.5c0.4,0.1,0.7,0.2,0.9,0.2c0.9-0.2,1.9-0.4,2.8-0.7c2.6-1,4.9-0.7,7.1,1c1.5,1.2,3,2.4,4.5,3.6
		c0.2,0.1,0.3,0.3,0.5,0.3c2.2,0.9,4,2.5,5.9,3.8c2.7,1.7,5.2,3.6,7.9,5.3c1.6,1,3.4,1.8,5.1,2.7c0.5,0.3,0.9,0.7,1.4,1.1
		c1.3,1.1,2.6,2.2,3.8,3.4c0.5,0.5,0.9,1.2,1.2,1.8c0.4,1,1.1,1.7,2,2.4c0.7,0.5,1.4,1.1,2,1.6c0.9,0.8,1.4,1.8,1.7,3
		c0.4,1.6,0.7,3.1,0.7,4.8c0,1.5-0.5,2.7-1.8,3.5c-2.1,1.4-4,3.1-6.3,4.2c-3.6,1.7-7.4,3.1-11.6,3.3c-2.9,0.1-5.8,0.9-8.9,1.4
		c0.4,1.3,0.8,2.4,1.2,3.5c0.4,1.1,1,2.1,1.4,3.2c0.3,0.8,0.7,1.2,1.6,0.9c2.3-0.6,4.5-1.1,6.8-1.6c2.3-0.4,4.5-0.7,6.8-1.1
		c3.2-0.6,6.4-1.1,9.6-1.8c2.7-0.5,5.5-0.6,8.2-0.4c0.9,0.1,1.8,0.3,2.5,1.1c0.3,0.3,0.9,0.4,1.2,0.7c1.1,0.9,2.1,1.8,3.1,2.8
		c1.8,1.8,2.4,4.2,2.7,6.6c0.3,2.1,0.7,4.2,0.8,6.4c0.3,3.6-1.1,6.8-2.8,9.9c-0.8,1.4-1.7,2.8-2.8,3.9c-1.2,1.2-2.7,2.2-4.1,3.2
		c-1.3,0.9-2.8,1.6-4.1,2.5c-1.1,0.7-2.1,1.6-3.2,2.3c-0.5,0.4-1.2,0.6-1.7,1c-0.6,0.4-1.1,0.8-1.7,1.3c-0.2,0.2-0.5,0.4-0.8,0.4
		c-2.5,0.4-4.7,1.4-6.6,3c-3.7,3-7.7,5.3-11.9,7.6c-2.1,1.1-4.1,2.4-6.1,3.5c-2,1-4.1,1.6-6.3,2c-0.2,0-0.4,0-0.6,0.1
		c-2.3,1-4.8,0.7-7.2,0.7c-1.1,0-2.2-0.5-3.3-0.5c-3.3-0.1-6.5-0.4-9.8-0.1c-1.8,0.1-3.7,0.9-5.3,1.7c-1.4,0.7-2.7,1.8-4,2.7
		c-0.2,0.1-0.2,0.7-0.1,0.9c1.7,3.3,3.5,6.7,5.3,10c0.7,1.4,1.4,2.9,2,4.4c0.4,0.9,0.9,1.6,1.7,2.1c1.9,1.2,3.4,2.8,4.3,4.8
		c1,2.3-0.2,5.8-2.2,7.3c-2.5,1.8-5.2,2.8-8.1,3.6c-3.7,1.1-7.3,2.5-10.8,4.3c-1.9,0.9-4,1.5-6.2,1.8c-1.7,0.2-3.3,0.9-5,1.4
		c-0.6,0.2-1.2,0.6-1.8,0.9c-1.8,0.8-3.5-0.5-3.2-2.4c0.1-0.6,0-1-0.4-1.4c-0.7-0.7-0.5-1.6-0.3-2.4c0.1-0.5,0.2-1-0.2-1.4
		c-0.1-0.1-0.1-0.2-0.1-0.3c-0.1-1.2-0.1-2.4-0.1-3.6c0-0.6-0.7-1.7-1.6-1.9c-2.1-0.6-4.2-1.2-6.3-1.6c-2.6-0.5-5-1.3-7.3-2.6
		c-1.1-0.6-2.4-0.8-3.6-1.2c-1.4-0.5-2.7-1.1-3.8-2.2c-0.8-0.8-0.9-1.5-0.7-2.5c0.7-2.7,1.5-5.4,2-8.1c0.4-2.4,0.5-4.9,0.7-7.4
		c0.1-1,0.4-2.1,0.4-3.1c0.1-2.4,0.3-4.9,0.1-7.3c-0.1-2.3-0.5-4.6-0.8-6.9c0-0.4-0.1-0.7-0.2-1.1c-1.2-3.3-1.4-6.8-0.8-10.2
		c0.3-1.9,1.3-3.6,2.2-5.4c1.5-3.1,3.6-5.7,6.6-7.5c0.1-0.1,0.2-0.2,0.3-0.2c-5.1-1.7-7.7-5.3-9.2-10.2c-0.8-2.5-0.2-4.8,0.1-7.2
		c0.3-2.1,1.2-4.1,2.1-6.1c1.5-3.6,2.7-7.3,2.9-11.3c0.2-3.3,0.6-6.5,0.9-9.7c0.2-2,1-3.7,1.9-5.4c1.5-2.9,3-5.8,4.6-8.6
		c1-1.7,2.2-3.5,3.9-4.7c0.2-0.1,0.4-0.2,0.5-0.4c0.3-1.3,1.5-1.2,2.4-1.5c1.2-0.4,2.4-0.7,3.6-1.1C24.6,52.5,25,52.1,25.3,51.9z
		 M35.4,26.5c-0.1-0.3-0.3-0.5-0.2-0.7c0.2-0.9,0.3-1.8,0.8-2.5c0.8-1.4,1.7-2.7,2.6-4c0.4-0.6,0.4-1.1,0-1.6
		c-0.2-0.3-0.7-0.5-1-0.4c-2,0.5-4,0.9-5.9,1.6c-1.1,0.4-2.1,1.1-3,1.9c-0.8,0.6-1.5,1.4-2.3,2.1c-0.7,0.7-1.3,1.4-1.2,2.5
		c0,0.6-0.1,1.3-0.4,1.8c-0.6,1.4-0.8,2.8-0.4,4.3c0.5,2.1,0.8,4.3-0.1,6.4c-0.1,0.2-0.1,0.5,0,0.8c0.9,2.4,1.9,4.8,2.9,7.2
		c0,0.1,0.1,0.2,0.2,0.3c0.4,0.7,0.8,1.5,1.2,2.2c0.4,0.6,0.9,1.2,1.3,1.7c0.1,0.1,0.2,0.2,0.2,0.4c0.9,1.9,1.7,3.9,2.7,5.8
		c1.7,3.2,4.5,5.1,7.8,6.4c1.4,0.5,2.8,1,4.2,1.4c0.7,0.2,1.5,0.4,2.2,0.6c1.3,0.2,2.6,0.4,3.9,0.7c2.3,0.4,4.4-0.3,6-1.8
		c1.7-1.5,3.3-3.2,4.9-4.9c2.1-2.3,3.5-4.9,3.4-8.1c0-1.2,0-2.4,0-3.6c0-0.9,0.1-1.8,0-2.7c-0.1-1.2-0.3-2.3-0.4-3.4
		c-0.3-2.1-0.5-4.1-0.8-6.2c-0.3-2.3-0.7-4.5-1-6.8c-0.1-0.6,0-1.2-0.2-1.8c-0.8-2.1-1.7-4.1-2.7-6.1c-0.3-0.6-0.8-0.9-1.5-1.1
		c-1.5-0.3-3-0.9-3.8-2.4c-0.7-1.1-1.2-1.2-2.5-0.6c-0.9,0.4-1.9,0.7-2.9,1.1c-2.3,0.8-4.8,0.9-7,2.2c-1.7,1-3,2.1-4.1,3.6
		C37.3,23.7,36.4,25.1,35.4,26.5z M79,73.5c-0.6-0.2-1.2-0.4-1.7-0.7c-0.7-0.4-1.6-0.7-2.1-1.3c-2.1-2.3-3.5-4.9-3.3-8
		c0.1-2.6,0.2-5.3,0.5-7.9c0.2-2,0.6-4,1-6c0.1-0.7,0.5-1.4,0.9-2c0.1-0.2,0.4-0.2,0.6-0.4c0,0.2,0.1,0.5,0,0.7
		c-0.3,0.9-0.7,1.9-0.9,2.8c-0.4,2-0.8,4.1-0.8,6.1c0,3-0.9,6.1,0,9.2c0.4,1.5,1,2.8,2,4c1.5,1.8,3.7,2.2,5.8,2.7
		c0.3,0.1,0.7-0.1,1-0.3c1.7-0.7,3.4-1.4,5-2.1c0.2-0.1,0.4-0.2,0.5-0.4c0.3-0.6,0.6-1.2,0.9-1.8c1.5-3,4.1-4.6,7.4-5.1
		c0.9-0.1,1.8-0.1,3-0.2c-1.7-0.9-3.2-1.7-4.7-2.5c-1.3-0.6-2.3-1.9-3.8-2c-0.1,0-0.1-0.1-0.2-0.2c-0.6-0.5-1.2-1.1-1.9-1.6
		c-1.9-1.4-3.9-2.8-5.9-4.1c-1.8-1.2-3.7-2.2-5.2-3.9c-1.8-1.9-3.9-2.8-6.6-1.8c-1.4,0.5-2.9,0.7-4.5,1.1c0,0.8,0,1.7,0,2.6
		c0,0.7,0.1,1.5-0.1,2.1c-0.7,2.3-1.5,4.6-3.5,6.3c-0.7,0.6-1.8,1.1-1.6,2.3c0,0.1-0.1,0.2-0.1,0.2c-1,2.1-2.2,4.2-3,6.4
		c-0.9,2.4-2.6,3.7-4.7,4.6c-2.5,1.1-5.1,1.6-7.8,1.8c-2.1,0.2-4.1-0.4-5.8-1.5c-1.7-1.1-2.9-2.9-3.7-4.7c-1.2-2.8-2.1-5.8-3.2-8.7
		c-0.1-0.2-0.2-0.4-0.1-0.5c0.4-1-0.4-1.7-0.7-2.5c-0.6-1.3-1.1-2.6-1.8-3.9c-0.2-0.4-0.6-0.8-0.9-0.9c-0.8-0.1-1.6,0-2.2,0
		c-0.1,0.3-0.1,0.7-0.2,0.8c-0.9,0.6-1.8,1.2-2.7,1.7c-1.2,0.6-2.5,0.9-3.8,1.4c-0.7,0.3-1.4,0.8-1.8,1.4c-0.2,0.2,0.4,1,0.6,1.6
		c1.6,3.4,3.2,6.7,4.8,10.1c0.5,1,0.8,2.1,1.2,3.1c0.6,2,1.2,4.1,1.8,6.1c0.4,1.5,0.7,3,1.1,4.4c0.6-0.4,1.1-0.8,1.6-1.1
		c1.2-0.7,2.6-0.4,3.9-0.3c0.4,0,0.9,0.4,1.2,0.7c0.7,0.7,1.4,1.4,2.1,2.1c0.1,0.1,0.4,0,0.6,0c-0.3-2,1-3.2,2.9-2.8
		c0.8,0.1,1.4,0.2,2.3-0.1c1.2-0.4,2-1.2,2.6-2.2c0.6-0.9,1.2-1.8,2-2.3c3-1.8,6.2-1.8,9.5-1.3c0.2,0,0.5,0.1,0.7,0.2
		c1.8,0.5,3.6,1.1,5.4,1.6c1.4,0.4,2.8,0.2,4.3-0.3c2.3-0.8,4.5-1.7,7.1-1.5C75.7,74.8,77.4,74.7,79,73.5z M36.7,106.5
		c0.2,0.5,0.4,1.2,0.5,1.8c0.5,2.5,1,5,1.3,7.5c0.2,2.5,1.5,4.5,2.5,6.7c0.5,1,1.3,1.7,2.4,1.8c2.3,0.2,4.7,0.3,7,0.4
		c1.7,0,3.4-0.1,5.1-0.1c2.6,0.1,5.4-1.6,6.6-4c0.2-0.5,0.7-0.9,1.1-1.3c0.1,0.1,0.2,0.1,0.2,0.2c0,2.4-1.9,3.4-3.6,4.9
		c0.5,0.1,0.9,0.2,1.1,0.2c1.3-0.3,2.7-0.6,4-1.1c2.5-1.1,5-1.7,7.8-1.6c2.1,0.1,4.1-0.1,6.2-0.3c0.6-0.1,1.3-0.4,1.7-0.8
		c0.7-0.6,1.3-1.4,1.9-2.1c0.6-0.7,0.7-1.4,0.4-2.3c-0.1-0.4-0.3-0.7-0.3-1.1c-0.1-2.1-1.2-3.9-2.3-5.6c-0.6-0.9-1.4-1.2-2.5-1.1
		c-1.4,0.2-2.9,0.6-4.3,0.6c-3.9,0-7.8,0.4-11.6-0.8c-2-0.6-3.6-1.8-5-3.2c-1.9-1.9-3.5-4.1-4-6.7c-1.9-0.1-3.7,0-5.5-0.4
		c-1.9-0.4-2.7-2.3-3.8-3.6c-1.4,1.2-2.8,2.3-4.2,3.4c1.2,0.8,1.7,1.6,1.7,3c-0.1,1.2-0.6,2.1-1.3,2.8
		C39,104.5,37.8,105.5,36.7,106.5z M66.8,77.1c1.1,1.2,2.1,2.4,3.1,3.5c0.6,0.7,1.3,1.3,1.8,2c1.3,1.6,1.9,3.5,2.6,5.4
		c0.8,1.9,2,3.6,1.7,5.8c-0.1,0.8,0.5,0.7,1.1,0.4c1-0.5,2-1,3-1.5c1.7-0.9,3.3-1.8,4.9-2.7c2.9-1.6,6-2.9,8.4-5.3
		c0.2-0.2,0.4-0.3,0.6-0.4c0.2-0.1,0.5,0,0.8,0c-2.3,2.3-5,3.8-7.7,5.4c-1.1,0.7-2.3,1.3-3.4,2c-0.1,0.1-0.2,0.3-0.3,0.5
		c0.2,0,0.4,0.1,0.5,0.1c0.4,0,0.8-0.2,1.2-0.2c2.5-0.4,5.1-0.9,7.6-1.3c1.4-0.2,2.9-0.1,4.3-0.5c5.2-1.4,10-3.6,14.2-7.2
		c0.8-0.7,1-1.5,1.1-2.4c0.1-1.5-0.3-3-0.6-4.5c-0.3-1.4-1-2.4-2.1-3.3c-0.5-0.4-0.9-0.8-1.4-1.1c-1.1-0.7-1.8-1.6-2.3-2.7
		c-0.2-0.5-0.5-1-0.9-1.4c-1-0.9-2.1-1.7-3-2.7c-0.9-1-1.8-1.5-3.3-1.5c-2.5,0-4.8,0.4-7,1.7c-1.7,1-2.5,2.6-3.5,4.4
		c0.6-0.1,0.9-0.1,1.2-0.2c2.6-0.8,5.2-1.2,7.8-1.3c0.3,0,0.7,0.3,1.1,0.5c-0.3,0.2-0.7,0.5-1,0.5c-1.7,0.2-3.3,0.2-5,0.5
		c-3.5,0.8-7,1.7-10.2,3.5c-2.2,1.3-4.6,2-7.2,2.1c-2.6,0.1-5.1,0.5-7.6,1.3C67.4,76.8,67.1,77,66.8,77.1z M54,174.1
		c-0.9-0.8-1.6-1.6-2.5-2.1c-1.6-1.1-3.3-2.1-5.1-2.9c-1.6-0.7-3.3-1.1-5-1.7c-2.2-0.8-4.4-1.7-6.6-2.4c-3.1-1-6.3-0.9-9.5-0.8
		c-0.2,0-0.5,0.1-0.9,0.2c2.5,4.4,6.3,7.7,9.3,11.6c0.8-1.2,1.5-2.3,2.1-3.4c0.2-0.4,0.6-0.7,0.9-1c0.1-0.1,0.4,0,0.6,0
		c-0.1,0.2-0.1,0.4-0.3,0.5c-0.3,0.5-0.9,0.9-1,1.4c-0.2,1.4-1.2,2.3-1.9,3.4c-0.3,0.4-0.4,0.9-0.6,1.4c-0.3,0.6-0.6,1.2-0.9,1.8
		c-0.2,0.3-0.5,0.6-0.9,1.1c0.6,0,1-0.1,1.4,0c0.3,0.1,0.5,0.3,0.8,0.4c-0.3,0.1-0.5,0.3-0.8,0.4c-0.7,0-1.4,0-2.1,0
		c-1.2,0-2.6-0.3-3.6,0.8c0,0-0.1,0-0.1,0c-2.4,0.8-3.5,2.5-3.7,5c-0.1,1.5,1.1,2.4,2.5,1.7c0.7-0.3,1.2-0.9,1.8-1.4
		c-0.1-0.1-0.2-0.1-0.3-0.2c0-0.4,0-0.8,0.1-1.1c0.3,0.2,0.7,0.3,1,0.5c0.5,0.3,1,0.8,1.6,1c0.4,0.2,0.9,0.2,1.4,0.1
		c1.8-0.4,3.4-1.2,4.6-2.8c0.1-0.2,0.3-0.3,0.5-0.4c0.3-0.1,0.6-0.1,0.9-0.1c-0.1,0.2-0.1,0.6-0.3,0.7c-1.4,1.5-2.9,2.9-5.1,3.3
		c-0.9,0.2-1.6,0.3-2.4-0.1c-0.2-0.1-0.4-0.1-0.7-0.3c0.3,1.4,0.6,2.7,0.9,4c0.2,1.2,0.5,2.3,0.7,3.5c0,0.3-0.3,0.6-0.4,0.9
		c-0.2-0.2-0.5-0.3-0.7-0.6c-0.1-0.2-0.2-0.5-0.2-0.7c-0.1,0-0.2,0-0.2,0c-1.2,0.4-2.3,0.8-3.5,1.3c-0.6,0.2-0.7,1.2-0.1,1.5
		c0.5,0.3,1.2,0.5,1.7,0.3c0.7-0.1,1.4-0.5,2-0.9c0.9-0.7,2-0.8,3-0.9c2.5-0.1,4.8-0.6,7.1-1.8c3.8-1.9,7.6-3.4,11.6-4.7
		c2.6-0.8,5.1-1.4,7.4-3c1.9-1.3,2.8-2.9,2.8-5.1c0-0.2-0.1-0.6-0.3-0.7c-1.2-0.7-2.4-1.4-3.9-1.2c-0.7,0.1-1.4-0.1-2.2,0
		c-1,0.1-2,0.4-2.9,0.6c-0.3,0-0.5,0-0.8,0c0-0.1,0-0.2,0-0.3c1.4-1,3.1-0.9,4.8-1c1.7,0,3.4-0.1,5,0.8c-1.9-3-4.4-5.3-8.1-6.2
		C53.5,174.3,53.7,174.2,54,174.1z M19.4,93.9c-1.5,0.6-3,1.4-4.6,1.7c-2.6,0.5-4.7,1.5-6.8,3.1c-0.4,0.3-1,0.6-1.5,0.8
		c-0.2,0.1-0.5,0-0.8-0.1c0.1-0.2,0.2-0.5,0.5-0.7c0.6-0.5,1.3-0.8,1.9-1.3c1.9-1.2,3.7-2.5,6.1-2.7c0.5,0,1-0.2,1.4-0.3
		c-0.4-0.3-0.7-0.5-1.1-0.6c-2.5-0.7-5-0.2-7.5,0.3c-0.8,0.2-1.8,0.7-2.3,1.4c-1.7,2.8-2.7,5.9-2.8,9.3c0,1.9,0.2,3.8,1.1,5.5
		c0.4,0.7,0.7,1.4,1.1,2c1.5,2.5,3.1,4.8,6.4,5.1c0.9,0.1,1.7,0.1,2.3-0.8c0.1-0.1,0.3-0.1,0.4-0.1c1.7-0.3,3.5-0.8,4.8-2
		c3.1-2.7,6.8-4.4,10.3-6.3c1.1-0.6,2.1-1.2,3.2-1.9c-0.5-0.7-1.1-1.2-1.4-1.9c-1.2-2.5-3-4.8-4.4-7.2c-1.1-1.8-1.9-3.7-1.9-5.9
		c0-0.2-0.1-0.4-0.2-0.6c-0.9,0.5-1.8,0.9-2.5,1.5c-0.6,0.5-1.1,1.1-1.4,1.9c-0.7,2.5-1,5.1-2.2,7.4c-0.5,0.8-0.9,1.7-1.3,2.6
		c-0.4,1-0.7,2-1.1,3c-0.1,0.3-0.1,0.5-0.3,0.8c0,0.1-0.4,0-0.4,0c-0.1-0.3-0.2-0.6-0.1-0.8c0.6-1.6,1.1-3.2,1.9-4.6
		c1.5-2.6,2.1-5.5,2.9-8.4C19.4,94.2,19.4,94,19.4,93.9z M17.5,57.5c-0.2,0-0.3,0-0.5-0.1c-1,1.6-2,3.2-3,4.8
		c-0.5,0.9-0.9,1.8-1.4,2.7c-1.1,2-2.3,4-3.2,6.1C8.2,73.8,8,76.8,8,79.7c0,3.4-0.6,6.7-1.3,9.9c-0.3,1.5-0.8,2.9-1.3,4.4
		c0.1,0,0.3,0,0.4-0.1c1.5-0.9,3.3-1,5-1.3c2-0.3,3.9,0.2,5.7,0.7c0.5,0.1,1.1,0.2,1.5,0c1.9-1,3.7-2.1,5.6-3.3
		c0.3-0.2,0.5-0.6,0.5-1c0-1.9,0.5-3.6,1.6-5.1c0.8-1.1,1-2.2,0.7-3.4c-0.4-1.5-0.7-3.1-1.1-4.6c-0.3-1.3-0.6-2.7-1-3.9
		c-0.8-2.2-1.8-4.3-2.7-6.4C20.2,63,18.8,60.3,17.5,57.5z M75.1,92.1c-0.5-1.1-1-2-1.4-3c-0.6-1.4-1.2-2.8-1.8-4.2
		c-1-2.5-3.1-4.1-4.8-6.1c-0.4-0.5-1.1-0.9-1.8-1.1c-2.6-0.7-5.2-1.2-7.8-2c-1.5-0.4-3-0.5-4.5-0.5c-1.9,0-3.7,0.4-5.4,1.2
		c-0.9,0.4-1.4,1-1.6,1.6c0.7,1,1.3,1.8,2.1,2.8c0.4-0.1,1-0.3,1.7-0.6c2.3-1,4.6-2.1,7-3.1c0.2-0.1,0.5,0,0.7,0.1
		c-0.1,0.2-0.2,0.5-0.4,0.5c-2.1,1-4.3,1.8-6.5,2.9c-2.1,1-4.3,1.1-6.5,0.4c-0.5-0.2-1.3-0.1-1.6,0.2c-0.3,0.2-0.3,1.1-0.1,1.5
		c0.3,1.1,0.8,2.2,2.2,2.5c0.8,0.2,1.6,0.4,2.4,0.6c2.2,0.5,4.3,0.9,6.2-0.7c0.2-0.2,0.4-0.3,0.6-0.3c0.2,0,0.5,0.1,1,0.1
		c-0.7,0.5-1.2,0.8-1.7,1.1c-0.8,0.5-1.6,0.8-2.6,0.9c-2.4,0.3-4.5-0.8-6.8-1.2c-1-0.2-1.5-0.1-1.6,0.9c-0.1,0.9,0.1,2,0.4,2.9
		c0.1,0.4,0.8,0.6,1.2,0.9c2.1,1.5,4.4,1.9,6.9,1.2c0.9-0.2,1.8-0.5,2.7-0.7c0.2,0,0.5,0.2,0.7,0.2c-0.2,0.2-0.3,0.4-0.5,0.5
		c-0.7,0.2-1.4,0.4-2.1,0.6c-2.2,0.5-4.4,0.8-6.5-0.3c-0.2-0.1-0.4-0.1-0.6-0.1c0.2,1.8,0.3,1.9,1.6,2.6c0.5,0.2,1,0.5,1.5,0.6
		c2.1,0.7,4.2,1.2,6.2,0c0.1-0.1,0.3-0.1,0.4-0.1c0.2,0,0.3,0.1,0.5,0.2c-0.1,0.1-0.1,0.4-0.2,0.4c-0.7,0.3-1.3,0.7-2,0.8
		c-2.1,0.1-4.1,0-6-1c-0.2-0.1-0.4-0.1-0.7-0.2c0.5,1.3,1.8,2.2,3.2,2.5c2.5,0.4,4.8-0.3,6.9-1.6c2.3-1.4,4.6-3,7.3-3.7
		c1-0.2,1.6-0.8,2.1-1.6c0.3-0.6,0.6-1.2,1-1.7c0.1-0.2,0.3-0.3,0.5-0.4c0.1,0.2,0.3,0.5,0.2,0.7c-0.2,0.6-0.6,1.2-0.8,1.8
		c-0.1,0.3-0.3,0.5-0.6,1.1C68.6,92.1,71.8,92.1,75.1,92.1z M22.1,164.8c-0.5,0.1-1.1,0.1-1.6,0.3c-1.9,0.5-3.7,1.2-5.6,1.6
		c-3.4,0.7-6.4,2.4-9.2,4.4c-0.7,0.5-1,1-1,1.9c0.2,3.4,3.2,5.6,6.4,6.2c1.8,0.4,3.7,0.4,5.4,1c2.7,0.9,5.1,2.4,8,2.4
		c0.9,0,1.4-0.1,2-0.7c0.5-0.4,1.1-0.7,1.8-1c0.9-0.4,2-0.5,2.7-1.1c2.1-1.8,2.4-2.9,0.7-4.8c-1.6-1.8-3.2-3.5-4.7-5.3
		c-1.1-1.3-2.2-2.7-3.2-4.1C23.4,165.1,22.9,164.6,22.1,164.8z M81,103c0.7-0.2,1.6-0.5,2.6-0.8c0.8-0.3,1.6-0.6,2.5-0.7
		c1-0.2,1.1-0.3,0.8-1.3c-0.1-0.3-0.2-0.5-0.3-0.8c-0.7-1.7-1.5-3.4-2.1-5.1c-0.3-0.9-0.8-1.2-1.6-1c-1.6,0.3-3.2,0.5-4.7,1.3
		c-1.4,0.8-3.1,1.1-4.7,1.3c-1.4,0.1-2.2-0.8-3.2-1.6c-0.8-0.6-1.4-1.5-2.5-1.6c-2.7-0.2-5.3,0-7.7,1.4c-1.5,0.9-2.9,1.7-4.4,2.5
		c-1.7,0.9-1.7,0.9-1.1,2.7c0.9,2.9,3,4.8,5.7,5.7c2.4,0.7,5,0.3,7.4-0.7c1.6-0.7,3.1-1.2,4.8-1.3C75.3,102.9,78,102.5,81,103z
		 M39.6,91.9c-2.6,1.7-5.7,3-8.8,4c-0.2,0.1-0.5-0.1-0.8-0.1c0.1-0.2,0.2-0.4,0.4-0.6c0.1-0.1,0.3-0.1,0.4-0.2
		c1.4-0.5,2.9-1,4.3-1.6c1.9-0.9,3.6-2,5.4-3c-0.7-1.2-1.3-2.2-1.8-3.2c-0.5,0.3-1.1,0.7-1.8,0.9c-2.9,1.1-5.9,2.2-9,3.3
		c0.1-0.3,0.2-0.6,0.3-0.8c0.4-0.3,0.8-0.6,1.3-0.7c1.7-0.6,3.4-1,5.1-1.6c1.1-0.4,2.2-0.9,3.2-1.3c-0.3-1-0.6-1.9-0.8-2.6
		c-1.4,0.2-2.8,0.5-4.2,0.5c-1.5,0-2.7,0.5-4,1c-0.2,0.1-0.4,0.2-0.6,0.3c-0.5-0.7-0.9-1.4-1.3-2.1c-0.1,0.1-0.2,0.2-0.3,0.3
		c-2,2.6-2,5.7-1.4,8.7c0.5,2.6,2.1,4.8,3.8,7c1.1,1.4,2,2.9,2.9,4.4c0.6,1.1,1.8,1.7,3,1.5c2.4-0.4,4.1-2,5.5-3.8
		c0.3-0.3,0.3-0.8,0.5-1.5c-2.1,1.4-2.4,1.4-3.9,0.1c-1.6,1.7-3.4,1.7-4.3,0.6c1.2-0.2,2.7,0.6,3.4-1c-1.3,0-2.5,0-3.8,0
		c0.4-0.8,1-0.8,1.5-0.7c1.3,0.1,2.4-0.2,3.4-0.9c1-0.8,2.1-1.6,3.1-2.3c0.7-0.5,1.3-1,1.9-1.4C41.2,93.9,40.5,92.9,39.6,91.9z
		 M35.2,60.6c0,0.1-0.1,0.3-0.1,0.5c0.7,2.4,1.2,4.9,2.8,6.9c0.9,1.1,2,2.1,3.1,3.1c0.4,0.4,1.1,0.6,1.7,0.6
		c3.4,0.4,6.6-0.1,9.7-1.6c2.3-1.1,3.5-3.1,4.4-5.6c-0.4,0.3-0.6,0.4-0.9,0.6c-1.3,0.7-2.6,1.3-4.1,1.1c-3.9-0.4-7.7-1.5-11.4-2.9
		C38.7,62.6,37,61.6,35.2,60.6z M63.8,25.5c0.2,0.1,0.5,0.4,0.9,0.4c1.3,0.1,2.2,0.9,2.2,2.3c0,1.6,0,3.2-0.2,4.8
		c-0.2,2.8-0.6,5.6-0.8,8.3c-0.1,1.1,0.1,2.3,0.1,3.5c0.1,0,0.2,0,0.3,0c1.3-2.2,3.4-4,3.1-6.9c0.8-1.6,0.5-3.3,0.5-5
		c0-2.2-0.3-4.3-0.6-6.5c-0.2-1.2-0.5-2.4-1.1-3.5c-0.6-1.2-1.5-2.3-2.4-3.4c-0.4-0.5-0.9-1-1.4-1.5c-0.1,0-0.2,0.1-0.3,0.1
		C64,20.6,63.9,23,63.8,25.5z M34.9,106.9c-3.1,1.5-6.1,2.9-9,4.4c-0.6,0.3-1.1,0.8-1.5,1.4c-0.3,0.4-0.4,1-0.7,1.4
		c-0.6,0.8-1.3,1.5-1.9,2.3c1.7,0.5,3.3,1,4.8,1.4c0.4,0.1,0.9-0.2,1.2-0.5c1.3-1,2.5-2.1,3.9-2.9c1.4-0.9,3-1.5,4.6-2.2
		c-0.2-0.6-0.4-1.4-0.7-2.2c-0.2-0.5-0.5-1-0.6-1.6C35,108,35,107.6,34.9,106.9z M80.8,129.9c0.2,0.1,0.3,0.1,0.5,0.2
		c2.5,0.3,5,0.7,7.5,1c3.5,0.4,6.9,0.9,10.4,1.3c1.1,0.1,2-0.3,2.8-1.2c-0.4-0.1-0.8-0.2-1.1-0.1c-2.5,0.1-4.9-0.5-7.2-1.1
		c-0.5-0.1-1-0.2-1.5-0.2c-2.9-0.3-5.8-0.6-8.7-1C82.2,128.4,81.7,128.6,80.8,129.9z M24.4,42c0-1.6-0.9-2.6-1.9-3.6
		c-0.4-0.4-1.2-0.3-1.8-0.4c-0.2,0-0.4-0.1-0.5-0.1c-0.6-0.1-1,0.2-1.1,0.8c0,0.7,0,1.5,0.3,2.2c0.8,1.7,1.7,3.3,2.6,4.9
		c0.6,1,1.1,2.1,1.8,3.1c1.2,1.6,3,1.8,4.8,2c0.1,0,0.2-0.1,0.3-0.1c-0.5-0.9-0.8-1.8-1.4-2.5c-0.2-0.3-0.7-0.4-1.1-0.5
		c-0.1,0-0.4,0.3-0.5,0.5c-0.3,0.8-0.5,0.9-1.2,0.3c-0.6-0.6-1.2-1.2-1.5-2c-0.9-1.7-2.1-3.2-2.2-5.2c0-1,0-1.1,0.9-0.6
		C22.7,41.1,23.5,41.6,24.4,42z M78.2,106.9c-1.7-1.1-3.4-1.8-5.3-1.6c-1.4,0.1-2.7,0.3-4.1,0.5c-2,0.2-4,0.4-6.1,0.6
		c-0.2,0-0.4,0.1-0.6,0.2C63.5,107.9,75.6,108.1,78.2,106.9z M42.3,141.4c-1.5,0.7-1.7,0.7-1.4,2.2c0.4,1.9,0.8,3.8,1.5,5.5
		c0.9,2,2.1,3.8,3.2,5.7c0.2,0.4,0.4,0.8,0.7,1.1c0.2,0.2,0.6,0.1,0.9,0c0.2-0.1,0.4-0.6,0.3-0.7c-0.6-1.3-1.2-2.6-2-3.8
		c-1.3-1.8-2-3.9-2.5-6C42.7,144,42.5,142.7,42.3,141.4z M34.9,1.8c-1.5,0.4-1.7,0.9-0.5,2.1c0.8,0.9,1.3,1.8,1.4,2.9
		c0.2,1.6,1.2,2.4,2.3,3.3c0.7,0.6,1.3,1.1,1.3,2.1c0,0.2,0.3,0.4,0.5,0.5c0.2-0.2,0.6-0.4,0.6-0.6c0-0.5-0.1-1-0.4-1.4
		c-0.6-1-1.4-2-2.1-3c-0.6-0.9-1.3-1.6-1.2-2.9c0.1-0.4-0.5-1-0.8-1.4C35.7,2.8,35.3,2.3,34.9,1.8z M35.6,83.8
		c-0.4-0.4-0.8-0.9-1.2-1.3c-1.3-1.4-3.4-1.8-5-0.7c-0.6,0.4-1.1,1.2-1.5,1.8c-0.1,0.2-0.1,0.7,0.1,1c0.2,0.4,0.5,0.9,1,0.5
		c0.7-0.5,1.4-0.9,2.1-1.5c1.3-1.1,1.9-1.2,3,0C34.7,84.2,35.2,84.3,35.6,83.8z M29.5,193.8c0-1.2-0.3-1.4-1.3-1.1
		c-0.6,0.2-1.3,0.3-2,0.4c-0.5,0.1-1.1,0.2-1.3,0.5c-0.2,0.5-0.3,1.3,0,1.6c0.3,0.4,1.2,0.7,1.6,0.5c1-0.3,1.8-0.9,2.7-1.5
		C29.4,194.3,29.4,193.9,29.5,193.8z M21.8,41.7c0.8,2.2,1.8,4.2,3.1,6c0.5-0.4,1-0.7,1.3-1C25.4,44.6,24.6,42.3,21.8,41.7z
		 M26,192.4c0.7-0.2,1.3-0.3,1.9-0.6c1.2-0.5,1.4-1,0.9-2.2c-0.1-0.2-0.6-0.3-0.7-0.2c-0.8,0.6-1.7,0.9-2.8,0.9
		c-0.3,0-0.7,0.3-0.8,0.5c-0.1,0.3,0,0.8,0.2,0.9C25,192.1,25.5,192.2,26,192.4z M66.3,29.6c-0.1,0-0.1,0-0.2-0.1
		c-0.5,0.8-1.2,1.5-1.1,2.6c0,0.3,0.1,0.6-0.1,0.8c-0.6,0.7-0.2,1.4-0.1,2.1c0.1,0.7,0.2,1.4,0.3,2.1c0.1,0.7,0.2,1.3,0.2,2
		c0.1,0,0.2,0,0.3,0C65.8,35.9,66.1,32.7,66.3,29.6z M65.1,15.8c-0.3-1.3-0.5-2.3-0.9-3.3c-0.1-0.2-0.7-0.4-1-0.4
		c-0.5,0-0.8,0.3-0.7,0.9c0.2,0.9,0.3,1.9,0.6,2.8c0.1,0.4,0.5,0.7,0.8,1C64.4,16.5,64.8,16.1,65.1,15.8z M64.1,31.3
		c0.6-0.9,1-1.8,1.8-2.5c0.5-0.4,0.5-0.8,0.2-1.1c-0.3-0.4-0.7-0.9-1.2-1c-0.3-0.1-0.9,0.3-1.1,0.7C63.4,28.7,63.8,30,64.1,31.3z
		 M42.6,94.3c1.2-1.3,1.3-1.6,0.3-2.9c-0.2-0.3-0.7-0.6-1.1-0.7c-0.3,0-0.9,0.3-1,0.6c0,0.5,0.1,1.2,0.4,1.6
		C41.5,93.4,42.1,93.8,42.6,94.3z M37.8,83.4c0.8-0.1,1.6-0.2,2.3-0.4c0.5-0.2,0.9-0.6,1.4-1c-0.5-0.3-0.9-0.5-1.4-0.8
		c0,0-0.1,0-0.1,0C38.6,80.9,37.6,81.8,37.8,83.4z M71.1,93.5c0.8,1.4,1.9,1.8,3.2,1.6c0.6-0.1,0.8-0.5,0.8-1.1
		c0-0.6-0.4-0.7-0.9-0.7c-0.6,0-1.1-0.1-1.7-0.1C72.1,93.3,71.7,93.4,71.1,93.5z M23.7,113.3c-0.1-0.1-0.2-0.2-0.3-0.3
		c-1.6,1-3.2,2-5.1,3.2c1.1,0,1.9,0.6,2.7-0.1c0.6-0.5,1.2-1,1.7-1.5C23.1,114.2,23.4,113.7,23.7,113.3z M17.9,17.4
		c-0.1-1.7-0.2-1.8-1.3-1.6C16.1,16,16,16.3,16,16.7c0.1,0.6,0,1.2,0.1,1.8c0,0.3,0.4,0.7,0.5,0.7c0.4-0.1,0.8-0.2,1-0.5
		C17.8,18.4,17.8,17.9,17.9,17.4z M40.6,100c-0.3-1.4-1.3-1.8-2.5-0.8c-0.3,0.2-0.7,0.9-0.6,1.2c0.3,0.6,0.9,0.8,1.6,0.5
		C39.6,100.6,40.1,100.3,40.6,100z M42.6,85.2c-0.4-0.9-0.7-1.4-1-2c-0.8,0.2-1.4,0.4-2,0.6c0.3,0.4,0.6,0.7,0.6,1.1
		c0.1,0.6,0.3,0.8,0.8,0.7C41.6,85.6,42,85.4,42.6,85.2z M41.5,89.7c0.1-1.2-0.1-2.2-0.5-3.1c-0.1-0.2-0.7-0.2-1-0.2
		c-0.2,0-0.4,0.4-0.4,0.6C39.6,88.3,40.3,89.1,41.5,89.7z M44.2,80.2c0,0.1,0.1,0.2,0.1,0.4c0.9,0.1,1.8,0.2,2.7,0.3
		c0.1-0.1,0.1-0.2,0.2-0.3c-0.5-0.5-0.9-1.3-1.4-1.5C45.4,79,44.8,79.8,44.2,80.2z M38.5,83.9c-0.1,0-0.2,0-0.4,0.1
		c-0.1,0.2-0.4,0.5-0.3,0.7c0.2,0.5,0.5,1,0.8,1.5c0.3-0.3,1-0.8,1-0.9C39.3,84.8,38.9,84.4,38.5,83.9z M31.5,84.3
		c0.7,0,1.4,0,2.2,0C32.9,83,32.1,83.2,31.5,84.3z"/>
	<path class="st0" d="M57.6,53.4c-0.7,1.1-1.2,2.2-2,3.1c-1.2,1.2-2.4,2.5-4.4,2.3c-0.6-0.1-1.3-0.1-1.9,0c-1.4,0.1-2.4-0.4-3.3-1.4
		c-0.3-0.3-0.9-0.4-1.4-0.5c-0.2-0.1-0.5-0.1-0.7-0.2c1.4-1.4,2.7-2.7,4.1-3.9c0.4-0.4,1.1-0.6,1.6-0.8c0.2-0.1,0.6-0.1,0.8-0.2
		c1.5-1.1,2.9-0.7,4.4,0.1C55.7,52.2,56.7,52.8,57.6,53.4z M45.9,56.3c1.8,2.6,4.3,2,6.5,1.6c1.8-0.3,3.3-1.7,3.9-3.8
		c-0.7,0.1-1.3,0.1-1.8,0.4c-1.5,0.8-3.1,0.9-4.7,1.2C48.6,55.8,47.3,56.1,45.9,56.3z M45.6,55.4c0.1,0.1,0.2,0.3,0.3,0.4
		c1.6-1,2.7-2.6,4.8-3.1c2-0.5,3.7,0.3,5.6,0.7c-1.1-0.8-2.1-1.5-3.3-1.8c-1.5-0.5-2.7,0.8-4.1,1c-0.1,0-0.2,0.1-0.3,0.2
		C47.6,53.6,46.6,54.5,45.6,55.4z"/>
	<path class="st0" d="M38.1,40.6c-1.3-0.2-2.6-0.4-4-0.6c-0.6-0.1-0.6-0.3-0.3-0.8c1.2-1.4,2.6-2.4,4.2-3.2c1.3-0.6,2.5-0.6,3.7,0.3
		c1.2,0.9,0.8,2.3,0,2.9C41,39.8,39.5,40.7,38.1,40.6z M41.5,37.2c-0.3,1.7-0.7,2.2-1.9,2.2c-1.4,0.1-1.8-1-2-2.3
		c-0.9,0.8-1.8,1.5-2.7,2.3c2.4,0.7,4.4,0.9,6.4-0.4C42,38.5,42.1,37.9,41.5,37.2z"/>
	<path class="st0" d="M53.1,36.5c-0.4-0.1-1.1-0.3-1.8-0.5c0.2-0.7,0.3-1.4,0.7-2c1.2-2,4.5-3,6.5-2c1.5,0.7,1.5,1.7,0.2,2.7
		C57.1,36,55.2,36.2,53.1,36.5z M54.2,32.9c-1.4,0.6-2,1.6-2.4,2.9c1.2,0.2,2.2,0.3,3.5-0.3C53.7,35,54,34,54.2,32.9z M57.6,32.9
		c-0.2,0.7-0.3,1.4-0.5,2.3c0.7-0.6,1.3-1.1,2-1.7c-0.1-0.1-0.1-0.2-0.2-0.3c-0.3,0.1-0.6,0.2-0.9,0.3
		C57.8,33.3,57.7,33.1,57.6,32.9z"/>
	<path class="st0" d="M43.8,34.7c0.4,0.6,0.8,1.1,1.1,1.7c0.8,1.8,1.8,3.6,1.5,5.6c-0.2,1.2-0.5,2.4-0.8,3.5c-0.1,0.5-0.4,1-0.4,1.5
		c-0.1,1.2,0.4,1.5,1.6,1.2c0.1-0.3,0.1-0.6,0.2-0.9c0.2-0.6,0.8-0.8,1.3-0.5c0.9,0.6,1.8,0.4,2.5-0.5c0.1-0.1,0.1-0.2,0.2-0.2
		c0.3-0.1,0.7-0.3,1-0.4c0.1,0.3,0.2,0.6,0.4,1.1c0.4-0.3,1.1-0.6,1.3-1c0.2-0.4,0-1.1-0.3-1.5c-0.2-0.4-0.7-0.8-1.2-1.1
		c-1-0.6-1.3-1.6-1.7-2.7c0.2,0,0.3,0,0.3,0c0.5,1.5,1.8,2.3,2.9,3.4c0.7,0.7,0.8,1.6,0.4,2.4c-0.5,0.8-1.4,1.1-2.4,0.8
		c-0.3-0.1-0.6,0-0.9,0.1c-0.4,0.1-0.7,0.3-1.1,0.4c-0.8,0.3-1.6,0.7-2.3,1c-0.7,0.3-1.5,0.6-2.2,0c-0.9-0.7-0.7-1.7-0.5-2.6
		c0.2-1,0.8-1.9,0.9-2.8c0.2-1.2,0.2-2.6-0.1-3.8c-0.4-1.5-1.3-2.9-1.9-4.3c-0.1-0.1,0-0.3,0-0.5C43.7,34.8,43.7,34.8,43.8,34.7z"/>
	<path class="st0" d="M60.2,28.9c-0.2,0.1-0.5,0.4-0.7,0.3c-2.5-0.2-4.4,1.1-6.4,2.3c-0.1,0.1-0.3,0.2-0.4,0.2
		c-0.4,0-0.8-0.1-1.2-0.1c0.1-0.4,0.2-0.8,0.5-1.1c1.9-1.8,4.2-2.7,6.9-2.5c0.5,0,1,0.3,1.4,0.5C60.2,28.6,60.2,28.8,60.2,28.9z"/>
	<path class="st0" d="M30.9,37.1c-0.8-0.4-0.6-0.8-0.2-1.1c0.9-0.7,1.8-1.5,2.9-1.9c1.4-0.5,3-0.6,4.6-0.7c0.3,0,0.7,0.4,1,0.6
		c-0.3,0.2-0.6,0.5-0.9,0.6c-1,0.1-2,0.1-3,0.3C33.5,35.1,32,35.7,30.9,37.1z"/>
</g>
</svg>
