<?xml version="1.0" encoding="utf-8"?>
<!-- Generator: Adobe Illustrator 19.2.1, SVG Export Plug-In . SVG Version: 6.00 Build 0)  -->
<svg version="1.1" id="Layer_1" xmlns="http://www.w3.org/2000/svg" xmlns:xlink="http://www.w3.org/1999/xlink" x="0px" y="0px"
	 viewBox="0 0 121.3 183.2" style="enable-background:new 0 0 121.3 183.2;" xml:space="preserve">
<style type="text/css">
	.st0{fill:#1976D2;}
</style>
<g id="icon-child-sunburn">
	<path class="st0" d="M2.7,133.3c0.5,2.7,1.2,5.4,1.7,8.2c1,5.2,1.8,10.4,3,15.6c0.7,2.9,2,5.6,3,8.4c1.1,3,2,6,1.1,9.3
		c-0.5,1.9-0.6,3.9-1,5.8c-0.2,0.9-0.3,1.8-0.5,2.6h18.2c0-2.3-0.1-4.5-0.8-6.8c0.4-0.1,0.7-0.1,1-0.1c2.7-0.4,5.4-0.8,8.1-1.2
		c2.3-0.3,4.5-0.6,6.8-0.8c1.2-0.1,2.4,0.1,3.6,0c1.3-0.1,2.6-0.3,3.9-0.5c1-0.1,2.1,0,3-0.2c3.2-0.6,6.3-0.6,9.5-0.1
		c3.3,0.5,6.6,0.8,9.9,1.3c1.9,0.3,3.8,0.9,5.7,1.3c0.5,0.1,1,0.4,1.6,0.6c2.3,0.7,4.7,0.7,7.1,0.7c0.9,0,1.9-0.2,2.8-0.1
		c3,0.2,6,0.6,9,0.9c0.2,0,0.4,0.1,0.6,0.1c0.7,0.1,1,0.5,1,1.3c-0.1,1.2-0.1,2.4-0.2,3.7h20.5c-0.6-3.2-2.1-6.1-3.8-8.8
		c-1.5-2.3-2.6-4.6-3.6-7.1c-1.1-2.8-2-5.7-3.4-8.4c-0.8-1.6-1-3-0.3-4.5c0.2-0.5,0.3-1,0.6-1.5c1.7-3.3,2-6.9,1.9-10.6
		c0-0.8,0-1.6-0.1-2.3c-0.2-1.5-0.6-3-0.7-4.6c-0.1-2.9-0.2-5.7,0.1-8.6c0.2-2.6,0.5-5.3,1.3-7.9c1.4-4.6,1.3-9.3,0.7-14
		c-0.6-4.5-2.9-8.1-5.9-11.4c-1.1-1.1-2.4-2-3.9-2.1c-3.3-0.2-6.6,0-9.7,1.3c-2,0.8-4.1,1.6-6.4,2.5c0.3-0.4,0.4-0.7,0.6-0.8
		c1.3-1.3,2.5-2.5,3.8-3.7c3.3-3,6-6.5,7-11c0.3-1.5,1.2-2.9,2.2-4.1c1.7-2,3.1-4,3.2-6.7c0-0.3,0.1-0.6,0.2-0.9
		c0.2-1.1,0.8-1.9,1.6-2.6c1.4-1,2.8-2.1,4.1-3.2c1.6-1.4,3-3,3-5.2c0-2.8-0.1-5.5-0.5-8.2c-0.5-3.6-1.1-7.3-1.9-10.9
		c-0.5-2.3-1-4.6-2-6.7c-1.9-4.1-3.9-8.2-5.5-12.5c-1-2.6-2.3-5-4.3-7c-0.9-0.9-1.7-2-2.6-2.9c-2.3-2.5-4.5-5-7.9-6.1
		c-0.8-0.2-1.5-0.5-2.2-0.8c-5.3-2.3-10.9-2.2-16.5-2c-3.2,0.1-6.3,0.9-9.4,1.4c-3,0.6-5.7,1.9-8,4.1c-1.1,1-2.2,2-3.5,2.7
		c-5.9,3-8.4,8.3-9.6,14.5c-0.7,3.9-0.4,7.9-1.5,11.8c-0.5,1.7-1,3.3-1.9,4.8c-2,3.4-4.1,6.7-6.1,10.1c-1.3,2.3-2.2,4.7-2.5,7.3
		c-0.5,4,0.8,7.1,4.5,9c0.9,0.5,1.6,1.2,2.5,1.6c1,0.5,2.1,1,3.2,1.3c1.4,0.4,2.8,0.6,4.1,0.9c0.8,0.2,1.1,0.6,1,1.4
		c-0.1,2-0.1,4-0.2,6c-0.1,2.8-0.7,5.4-2,7.9c-2.6,4.9-6,9.2-11.1,12c-1.6,0.9-3.1,1.8-4.7,2.6c-3,1.5-6.3,1.6-9.6,1.4
		c-1.3-0.1-2.6-0.2-3.8,0.1c-4.4,1.3-7.6,4.1-9.5,8.3c-1.4,3-1.6,6.2-2,9.4c-0.3,2.3-0.4,4.5,0.5,6.7C1.8,128,2.1,130.6,2.7,133.3z
		 M87.9,98.2c0.1-0.3,0.4-0.6,0.6-0.7c2.8-1.1,5.6-2.4,8.5-3.2c2.1-0.6,4.4-0.5,6.5-0.5c1.3,0,2.3,0.9,3.2,1.8
		c2.8,3,4.6,6.4,5.1,10.5c0.6,4.5,0.2,8.8-0.9,13.1c-1,4-1.5,8.1-1.4,12.3c0,3.2,0.1,6.4,0.7,9.6c0.7,3.7,0.2,7.3-1.3,10.8
		c-0.4,0.8-0.6,1.7-1,2.6c-0.1,0.3-0.3,0.6-0.5,1.1c-0.3-0.4-0.6-0.6-0.8-0.9c-1.2-1.8-2.3-3.7-3.4-5.5c-0.4-0.6-0.6-1.3-0.9-1.9
		c-0.1-0.2-0.1-0.5-0.3-0.6c-1.7-1.4-1.3-3.3-1.2-5.1c0.4-5.6,1.8-10.8,4.3-15.8c0.4-0.7,0.6-1.5,0.8-2.3c-0.1-0.1-0.2-0.2-0.4-0.2
		c-0.3,0.3-0.7,0.6-0.9,1c-1.5,2.1-2.4,4.4-3.2,6.9c-1.3,4.4-2,8.9-2.4,13.5c-0.2,1.9-0.4,3.9-0.4,5.8c0,2.4,0.1,4.7,0.3,7.1
		c0,0.9-0.2,1.3-1.1,1.6c-1.4,0.5-2.7,1.1-4,1.7c-2.2,1.1-4.5,1.5-6.9,1.3c-1.7-0.1-3.5,0.2-5-0.8c-1.1-0.7-2.1-1.7-3.3-2.3
		c-2.8-1.5-4-4.2-5.2-6.9c-1.2-2.6-2.3-5.5-2.7-8.3c-0.4-3.2-0.3-6.6,0-9.9c0.2-1.8,1.3-3.5,2-5.3c0.6-1.4,1.1-2.9,1.8-4.3
		c0.5-1.1,1.2-2.1,2-3c1-1.2,2.4-2.1,3.1-3.4c1.2-2,2.1-4.2,2.8-6.5c0.7-2.3,1.5-4.6,2.6-6.8C86.4,102.4,87.1,100.3,87.9,98.2z
		 M89.9,58.6c1.1-0.7,2.2-0.3,2.6,0.6c0.6,1.2,0,3.1-1,3.4c-0.2,0.1-0.4,0.1-0.5,0c-0.1-0.1-0.1-0.3-0.1-0.5c0-0.2,0.3-0.4,0.2-0.5
		c0-0.5,0-1.1-0.3-1.3c-0.3-0.2-1-0.2-1.3,0c-1,0.8-2,1.6-2.6,2.6c-1.5,2.2-2.7,4.6-3.1,7.3c-0.1,0.9,0,1.8,0.2,2.7
		c0.1,0.4,0.7,0.8,1.1,1.2c-0.7,1.4-1.6,1.9-3.2,1.5C81.1,75.3,81,74.7,81,74c0.1-2.6,0.8-5.1,1.6-7.6
		C83.8,62.6,86.7,60.5,89.9,58.6z M27.8,100.3c1.2-0.6,2.4-1.3,3.6-2c2.7-1.5,5.1-3.4,6.9-5.9c1.3-1.8,2.7-3.6,3.8-5.5
		c2.6-4.4,3.2-9.3,3-14.4c0-0.4,0-0.8,0-1.5c2.7,1.5,5,3.1,6.8,5.3c0.7,0.8,1.4,1.6,2.2,2.4c1.5,1.5,3.3,2.5,5.5,2.6
		c1.7,0.1,3.4,0.3,5.1,0.4c3.7,0.2,6.8-1.2,9.6-3.4c0,0,0,0,0.1-0.1c3.7-2,4-5.8,5-9.2c0.6-2,1.1-3.9,2.5-5.5
		c0.2-0.3,0.5-0.5,0.8-0.8c0.1,0,0.1,0.1,0.2,0.1c-0.1,0.2-0.1,0.5-0.2,0.7c-2,3.4-2.7,7.1-2.8,11c0,0.9,0.4,1.4,1.2,1.7
		c2,0.8,3.2,0.5,4.3-1.4c0.6-1,1.1-2,1.7-3c0.1-0.2,0-0.6,0-0.9c-0.3,0.2-0.6,0.3-0.8,0.5c-0.3,0.5-0.5,1.1-0.8,1.8
		c-1.1-1-1-2.3-0.7-3.3c0.8-2.6,1.7-5.3,3.5-7.4c0.1-0.2,0.3-0.4,0.5-0.5c0.3-0.1,0.6-0.2,0.9-0.2c0.1,0,0.2,0.5,0.2,0.7
		c-0.1,0.5-0.3,1.1-0.3,1.6c0,0.3,0.1,0.5,0.2,0.8c0.2-0.1,0.6-0.2,0.7-0.4c0.4-0.7,1-0.9,1.9-0.8c0,0.3,0,0.6,0,0.9
		c0,2.4,1.8,3.7,3.9,2.6c1.5-0.7,2.9-1.8,4.1-3c1.2-1.1,2.4-2,4.1-2c0.7,0,1.3,0.2,1.5,0.3c-0.5,0.8-1.2,1.5-1.6,2.3
		c-0.5,1.1-0.9,2.3-1.1,3.4c-0.2,2.5-1.4,4.4-3,6.1c-1.3,1.3-2.1,2.8-2.5,4.5c-0.8,4-2.9,7.1-5.8,9.8c-2.3,2.2-4.5,4.5-6.7,6.8
		c-0.6,0.6-1.3,0.9-2.1,0.8c-0.4-0.1-0.8-0.1-1.1-0.3c-2.6-1-5.2-1.9-7.4-3.6c-1.8-1.4-2.9-3.3-3.2-5.7c0-0.4-0.5-1-0.8-1.1
		c-0.7-0.1-1,0.5-0.9,1.1c0.1,2.3,0.9,4.4,2.6,6c0.7,0.7,1.6,1.4,2.5,2.1c-0.4,0.4-0.8,0.8-1.2,1.1c-2.2,1.5-3.2,3.8-4.2,6.2
		c-1,2.3-2.1,4.4-3.7,6.4c-0.7,0.8-1.1,1.9-1.6,2.8c-1.5,2.7-3,5.4-4.3,8.2c-1,2.1-1.6,4.5-2.5,6.6c-1,2.5-2.1,5-3.3,7.4
		c-0.4,0.7-1.2,1.4-2,1.7c-2.4,0.8-5.7,0.5-7.5-1.9c-1.2-1.5-2.6-2.8-4-4.2c-4.3-4.6-7.7-9.7-9.8-15.6c-0.9-2.5-2.1-5-2.9-7.5
		c-0.5-1.4-0.5-3-0.7-4.6C26.9,101,27.2,100.6,27.8,100.3z M18.2,107.9c0.2-1.6,0-3.2,0-4.7c2.5-0.5,4.7-0.9,7-1.3
		c0.1,0.8,0.3,1.7,0.3,2.6c0.2,2.6,1.4,4.8,2.3,7.2c0.4,1,0.8,2.1,1.2,3.1c2.4,6,5.7,11.4,10.3,16c1.5,1.5,2.9,3.1,4.4,4.6
		c2.3,2.3,5.1,3.4,8.2,2.6c1.1-0.3,2.3-1.4,3-2.4c1.2-1.8,2.1-3.7,2.9-5.7c1.6-3.9,2.9-8,4.7-11.8c1.6-3.4,3.8-6.5,5.6-9.8
		c1.2-2.2,2.3-4.4,3.4-6.7c0.9-1.9,2.3-3.3,3.8-4.7c0.3-0.3,0.7-0.6,1.1-1c1.4,0.7,2.7,1.8,4.3,2.3c1.5,0.5,3.2,0.4,5,0.7
		c-0.9,2.2-1.8,4.5-2.7,6.8c-0.5,1.3-1.1,2.7-1.4,4.1c-0.4,1.9-1.6,3.5-2.4,5.2c-0.9,1.9-2,3.6-3.5,5c-1.2,1.1-1.9,2.4-2.6,3.9
		c-1,2.2-2.2,4.2-3.1,6.4c-0.5,1.4-0.8,2.9-0.9,4.4c-0.2,2.9-0.1,5.7-0.2,8.6c0,2.3,1,4.3,1.6,6.5c0.1,0.2,0.2,0.4,0.2,0.5
		c0.5,2.5,2,4.5,3.5,6.5c2.2,3,5.2,5.3,8.7,6.6c0.5,0.2,1,0.2,1.6,0.2c4.8,0.6,9.2-0.6,13.4-2.7c0.2-0.1,0.4-0.2,0.7-0.3
		c0.1,0.8,0.2,1.5,0.4,2.3c0.5,2.8,1.1,5.6,1.5,8.4c0.2,1.4,0.3,2.8,0.3,4.2c0,0.2-0.4,0.6-0.6,0.6c-3.7-0.1-7.3-0.2-11-0.3
		c-0.9,0-1.8-0.2-2.7-0.1c-3.1,0.2-6.1-0.5-9.1-1.4c-2-0.6-4.2-0.7-6.3-1.1c-0.4-0.1-0.8,0-1.2-0.2c-2.4-1-4.9-1-7.4-1.1
		c-3.2-0.2-6.3,0-9.4,0.4c-2.3,0.3-4.7,0.3-7.1,0.3c-3.3,0-6.6,0.4-9.9,1.2c-1.7,0.4-3.5,0.5-5.3,0.7c-1.2,0.2-2.3,0.3-3.5,0.5
		c-0.6,0.1-0.9-0.1-1.1-0.7c-1.2-2.9-2.4-5.7-3.5-8.5c-0.1-0.3,0-0.8,0.3-1c1.8-1.5,3.8-2.9,5.6-4.5c1.2-1.1,2.1-2.4,3-3.8
		c1.8-2.7,1.8-5.6,1.2-8.7c-0.5-3-1.7-5.7-2.6-8.5c0-0.1-0.1-0.2-0.1-0.4c-0.5-3.6-2.4-6.6-4.4-9.4c-2.9-4-4.9-8.3-6.4-13.1
		C18.4,113.4,17.8,110.8,18.2,107.9z M2.2,118.6c0.4-3.4,0.8-6.7,2.6-9.7c1.6-2.7,3.9-4.5,6.7-5.8c1.3-0.6,2.8-0.5,5-0.1
		c0,0.2,0.1,0.5,0.1,0.7c-0.1,2.6-0.3,5.1-0.1,7.7c0.1,1.9,0.7,3.7,1.3,5.5c1,2.7,2.1,5.4,3.3,8c0.6,1.3,1.5,2.5,2.3,3.8
		c1.1,1.8,2.4,3.5,3.4,5.3c0.7,1.3,1.1,2.7,1.6,4.1c0.6,1.8,1.3,3.7,1.7,5.5c0.6,2.6,1.2,5.2,1.6,7.8c0.1,0.8-0.3,1.9-0.8,2.7
		c-0.8,1.3-1.8,2.4-2.7,3.6c-0.8,1.1-1.8,2.1-3,2.9c-1.2,0.7-2.2,1.6-3.3,2.5c-3.6-5.6-6.6-11.4-8.2-17.8c-0.7-2.8-1.6-5.5-2.4-8.2
		c-0.3-0.9-0.4-1.8-0.7-2.7c-0.1-0.3-0.5-0.5-0.7-0.7c-0.1,0.3-0.3,0.6-0.3,0.8c0,0.6,0.1,1.2,0.3,1.7c2,6.6,3.5,13.3,6.4,19.5
		c0.6,1.2,0.5,2.3,0,3.6c-0.8,2-1.4,4-2,6.1c-0.1,0.2-0.1,0.5-0.2,0.7c-0.1,0.2-0.4,0.4-0.6,0.6c-0.2-0.2-0.4-0.4-0.4-0.6
		c-0.6-1.6-1.2-3.3-1.9-4.9c-2.3-5.3-3.4-11-4.1-16.7c-0.2-1.9-0.3-3.8-0.6-5.7c-0.5-2.5-1.1-5-1.7-7.5c-0.5-1.9-1.1-3.8-1.8-5.7
		C2.1,123.3,2,121,2.2,118.6z"/>
</g>
</svg>
