<?xml version="1.0" encoding="utf-8"?>
<!-- Generator: Adobe Illustrator 19.2.1, SVG Export Plug-In . SVG Version: 6.00 Build 0)  -->
<svg version="1.1" id="Layer_1" xmlns="http://www.w3.org/2000/svg" xmlns:xlink="http://www.w3.org/1999/xlink" x="0px" y="0px"
	 viewBox="0 0 149.2 150" style="enable-background:new 0 0 149.2 150;" xml:space="preserve">
<style type="text/css">
	.st0{fill:#1976D2;}
</style>
<g id="icon-child-headache">
	<path class="st0" d="M32.9,150c0-0.6,0-1.3,0.1-1.9c0.1-0.6,0.4-1.2,0.5-1.8c0.1-0.3,0-0.7-0.1-1c-0.1-1,0.2-1.9,0.5-2.8
		c0.3-0.9,0.7-1.8,0.7-2.8c0-0.4,0.2-0.8,0.4-1.2c0.5-1,0.5-2,0-2.9c-0.3-0.5-0.9-0.9-1.4-1.3c-0.1-0.1-0.2-0.1-0.3-0.1
		c-0.7-1.1-1.9-0.7-2.9-1.1c-1.1-0.4-2.3-0.8-3.4-1.3c-1.7-0.7-3.4-1.4-4.9-2.3c-1.3-0.7-2.4-1.7-3.5-2.7c-1.5-1.2-2.8-2.6-4.5-3.5
		c-1.1-0.6-2.3-1-3.5-1.1c-1.3-0.1-2.5-0.6-3.3-1.5c-0.9-1-1.7-2.1-2.6-3.1c-0.9-1-1.5-2.2-2.8-2.8c-0.6-0.3-0.7-1-1-1.6
		c-0.7-1.5-0.6-3.2-0.7-4.7C0.1,106.6,0,105,0,103.4c0-1.8,0.5-3.5,1.1-5.1c0.4-1.1,0.8-2.3,1.2-3.5c0.2-0.7,0.4-1.4,0.7-2
		c0.7-1.7,1.4-3.4,2.1-5.1C5.4,87.1,5.7,86.6,6,86c0.8-1.5,1.5-2.9,2.3-4.4c0.8-1.5,1.7-3.1,2.6-4.5c1.1-1.6,2.3-3.1,3.6-4.6
		c0.5-0.6,1.2-1.1,1.9-1.4c1.1-0.5,2.3-0.1,3.3,0.4c0.5,0.3,0.8,0.1,1.1-0.3c0.7-1.3,1.3-2.5,2-3.8c0.4-0.8,0.9-1.6,1.3-2.4
		c0.5-1,0.9-2.1,1.3-3.1c0.1-0.2,0.1-0.5,0.3-0.6c1.3-1.8,2.5-3.6,3.3-5.7c0.1-0.2,0.3-0.4,0.4-0.7c0.7-1.5,1.4-3,2-4.5
		c0.8-1.7,1.6-3.4,2.4-5.1c0.4-0.9,0.9-1.7,1.3-2.5c0.1-0.2,0.2-0.4,0.2-0.7c0.1-2.2-0.2-4.3-0.7-6.4c-0.4-1.6-0.5-3.3-0.6-5
		c0-0.6,0.3-1.3,0.4-1.9c0.1-0.7,0.3-1.3,0.3-2c0.2-1.8,0.1-3.7,0.6-5.5c0.1-0.2,0.1-0.4,0.2-0.5c0.5-0.8,0.7-1.7,0.8-2.7
		c0.2-1.5,1.8-2.5,3.1-1.5c0.8,0.6,1.6,1.4,2.4,2.1c0,0,0.1-0.1,0.1-0.2c0.5-1.4,1-2.8,1.6-4.2c0.4-1.1,0.9-2.2,1.5-3.2
		c0.5-1,1-1.9,1.6-2.8c0.3-0.4,0.8-0.7,1.2-1.1c1.7-1.5,3.6-2.7,5.5-3.9c0.2-0.1,0.3-0.4,0.5-0.6c1.1-0.9,2.2-1.9,3.4-2.6
		c0.9-0.5,2-0.6,2.5,0.4c1.2-0.1,2.2-0.3,3.2-0.4c1.2,0,2.5,0.1,3.7,0.1c1,0,1.9-0.2,2.9-0.2c1.3,0,2.6,0,3.9,0.3
		c1.8,0.3,3.5,0.7,5.2,1.3c1,0.3,2,0.7,2.8,1.5c0.5,0.5,1.2,0.6,1.7,1c1.4,1,2.9,1.9,4.2,3.1c1.4,1.2,2.6,2.5,3.7,4
		c0.8,1.1,1.3,2.4,1.8,3.6c0.7,1.5,1.4,2.9,2.1,4.4c0.7,1.5,1.1,3,1.4,4.7c0.2,1.5,0.6,3,0.9,4.5c0.2,1,0.3,2.1,0.4,3.1
		c0.1,1.1,0,2.3,0,3.4c2.1-0.2,2.8,0.5,3.7,2.4c0.8,1.7,1.1,3.6,1.2,5.5c0.1,2.2,0.2,4.4,0.2,6.5c0,1.9-0.4,3.7-1.3,5.5
		c-1,1.8-3.2,2.4-4.9,1.2c-0.1-0.1-0.3-0.2-0.5-0.3c-0.2,2-0.4,3.9-0.6,5.7c-0.1,1.4-0.2,2.9-0.2,4.3c0.1,1.4,0.3,2.8,0.5,4.2
		c0.1,1.1,0.2,2.2,0.4,3.3c0.3,1.5,0.7,3.1,1.3,4.5c0.7,1.7,2.2,2.9,3.6,4.2c0.1,0.1,0.1,0.1,0.2,0.1c0.9,0,1.8,0.1,2.7,0
		c1-0.1,1.7,0.3,2.4,0.9c1.7,1.5,3.6,2.2,5.9,2.4c1.6,0.1,3.2,0.6,4.8,1.2c2.3,1,4.3,2.3,6.4,3.6c1,0.7,2,1.5,3.3,1.7
		c0.2,0,0.4,0.1,0.5,0.1c0.8-0.2,1.5,0.2,2.2,0.5c0.2,0.1,0.4,0.3,0.6,0.5c0.7,0.8,1.4,1.6,2.4,2.2c1.5,0.8,2.6,2,3.7,3.3
		c0.4,0.5,0.8,0.9,1.2,1.4c1.9,2.8,3.1,5.8,4.2,8.9c0.6,1.9,1.6,3.8,2.2,5.7c0.5,1.5,0.8,3,0.9,4.5c0.1,1.5,0.6,2.8,1,4.3
		c0.4,1.7,0.9,3.5,1.3,5.2c0.4,1.6,0.7,3.3,1,4.9c0.2,1.1,0.3,2.3,0.4,3.5c0.1,1.6,0,3.2,0.2,4.8c0.1,1.4,0.4,2.8,0.5,4.2
		c0.1,1.3,0.1,2.5,0.2,3.8c-14.3,0-28.7,0-43,0c0-0.1,0.1-0.3,0.1-0.4c0.4-1.4,1.4-2.6,1.5-4.2c0.1-1.4,0.7-2.7,0.6-4.2
		c0-0.9,0-1.8,0.1-2.6c0.2-1.1,0.5-2.2,0.8-3.3c0.1-0.6,0.4-1.1,0.5-1.7c0.2-1.2,0.2-2.4,0.4-3.6c0.3-1.7,0.7-3.3,1.1-4.9
		c0.4-1.9,0.7-3.7,1.1-5.6c0.2-1.3,0.4-2.6,0.6-3.9c0.1-0.9,0.2-1.8,0.3-2.7c0.2-1.5,0.5-3,0.6-4.5c0.2-2.6,0.3-5.3,0.4-7.9
		c0.1-0.9,0.2-1.9,0.4-2.8c0.5-1.6,0.3-3.3,0.3-5c0-0.9-0.2-1.9-0.7-2.6c-0.7-1.1-1.6-2.1-2.5-3.1c-0.1-0.1-0.3-0.1-0.4-0.1
		c-1.1-0.3-2.3-0.7-3.4-1c-0.3-0.1-0.5-0.3-0.8-0.5c-0.1,2.2-1.5,3.1-3.2,3.7c-0.7,0.3-1.5,0.5-2.2,0.8c-2.4,0.8-4.7,1.8-7.1,2.4
		c-3.5,0.8-7,1.5-10.6,2c-2.3,0.3-4.6,0.6-7-0.1c-2.2-0.6-4.5-0.8-6.8-1.2c-1.2-0.2-2.4-0.5-3.4-1.2c-0.3-0.2-0.5-0.3-0.9-0.5
		c0.1,0.3,0.1,0.6,0.1,0.8c0.1,0.8,0.2,1.5,0.3,2.3c0.1,1,0,2,0.1,3c0.2,1.4,0.6,2.8,0.8,4.2c0.2,2.2,0.3,4.4,0.4,6.6
		c0,0.6,0.1,1.2,0.2,1.8c0.1,0.9,0.4,1.8,0.4,2.7c0.2,3.1-0.1,6.1-0.8,9.1c-0.4,2-0.7,4.1-1.3,6c-1.3,4.1-1.8,8.3-1.7,12.5
		c0,0.8,0,1.6-0.1,2.4c-0.2,1.4-0.6,2.9-0.9,4.3c-0.2,1-0.5,2.1-0.8,3.1C52.9,150,42.9,150,32.9,150z M36,23.8
		c0.3-0.2,0.5-0.4,0.8-0.5c0.2-0.1,0.5,0,0.7,0.1c-0.1,0.2,0,0.5-0.2,0.7c-0.3,0.3-0.6,0.5-0.9,0.8c-0.4,0.4-0.7,0.7-0.7,1.4
		c0.1,0.6,0,1.2-0.1,1.8c-0.2,0.9-0.6,1.8-0.6,2.6c0,1.6,0.1,3.3,0.4,4.9c0.6,2.5,1,4.9,0.7,7.5c0,0.2-0.1,0.4-0.2,0.5
		c-0.3,0.6-0.6,1.1-0.9,1.7c-1.1,2.3-2.2,4.7-3.3,7c-0.5,1-0.9,2.1-1.3,3.1c-0.2,0.4-0.5,0.8-0.7,1.3c-0.6,1.2-1.2,2.5-1.9,3.7
		c-0.3,0.6-0.6,1.3-0.9,1.9c-0.6,1.1-1.1,2.3-1.9,3.3c-0.7,0.9-1.2,1.9-1.6,2.9c-0.4,0.9-0.8,1.8-1.3,2.7c-0.4,0.7-0.8,1.3-1.2,1.9
		c-0.1,0.2-0.2,0.5-0.2,0.8c0,1,0.4,1.9,1.1,2.7c0.9,0.9,1.9,1.8,2.5,3.1c0.6,1.3,1.5,2.5,2.2,3.8c0.6,1,2.4,1.5,3.3,0.9
		c1.6-0.9,3.2-1.9,4.8-2.9c1.4-0.9,2.8-1.9,4.2-2.9c1-0.7,2.1-1.2,3.1-1.9c0.1-0.1,0.3-0.3,0.3-0.5c0.2-2.5,0.5-5,1.3-7.4
		c0.8-2.2,1.6-4.5,2.5-6.6c1.3-3,2.8-5.9,4.3-8.9c-0.4-0.3-0.8-0.5-1.3-0.8c-0.9-0.6-1.7-1.2-2.6-1.9c-0.2-0.1-0.2-0.3-0.4-0.5
		c0.2-0.1,0.4-0.2,0.7-0.3c0.1,0,0.3,0.1,0.4,0.2c1.3,0.9,2.6,1.8,3.8,2.8c0.8-0.6,1.5-1.1,2.2-1.8c1.6-1.7,3.2-3.4,4.8-5.2
		c0.9-0.9,1.8-1.8,2.5-2.9c1.4-2.1,3.3-3.8,5.2-5.2c1-0.8,2.3-1.1,3.5-1.6c2.4-1,4.8-1.8,7.1-2.9c1.5-0.7,2.9-1.7,4.4-2.6
		c0.2-0.1,0.4-0.4,0.5-0.7c0,0-0.1-0.1-0.1-0.1c-0.3,0.1-0.6,0.3-0.9,0.4c-1.1,0.4-2.1,0.3-2.5-0.7c-0.3-0.8-0.6-1.5-0.9-2.3
		c-1.2,0.5-2.5,1.1-3.8,1.6c-1.1,0.4-2.3,0.8-3.5,1.2c-0.5,0.2-0.5,0.4-0.4,0.8c0.1,0.3,0.3,0.7,0.4,1c0,0.2-0.1,0.5-0.1,0.8
		c-0.2-0.2-0.4-0.3-0.5-0.5c-0.2-0.4-0.3-0.9-0.5-1.4c-0.4,0.1-0.8,0.2-1.1,0.3c-1.1,0.4-2.1,0.3-3.2-0.1c-0.3-0.1-0.6-0.5-0.7-0.8
		c-0.1-0.2,0.3-0.6,0.5-0.7c1.3-0.9,2.6-1.9,3.9-2.8c2.1-1.5,4.4-2.9,6.2-4.8c0.5-0.4,1-0.8,1.4-1.2c1.3-1.4,2.6-2.8,3.9-4.1
		c0.5-0.5,0.4-1,0.5-1.7c-0.8,0.4-1.5,0.8-2.2,1.2c-0.6,0.4-1.5,0.3-2.1-0.2c-0.4-0.5-0.8-1-1.3-1.5c-0.6,0.6-1.3,1.2-1.9,1.7
		c-0.9,0.7-1.9,1.5-2.9,2.2c-1.3,0.9-2.5,1.8-3.8,2.7c-0.1,0.1-0.2,0.3-0.2,0.4c0.2,0.7,0.6,1.4,0.8,2.1c0.1,0.2,0.1,0.7,0,0.7
		c-0.4,0.2-0.5-0.1-0.6-0.4c-0.3-0.7-0.6-1.4-0.9-2.2c-0.2,0.2-0.4,0.3-0.6,0.4c-1.1,0.8-2.3,1.5-3.1,2.7c-0.3,0.4-0.8,0.6-1.3,0.8
		c-0.4,0.2-0.8,0-0.7-0.5c0.1-0.6,0.4-1.2,0.6-1.9c0.1-0.4,0.3-0.7,0.5-1.1c0.3-0.4,0.6-0.7,0.9-1c1-1.4,2.1-2.8,3.1-4.2
		c0.7-0.9,1.3-1.8,2-2.7c1-1.4,1.9-2.7,2.9-4.1c0.5-0.7,1.2-1.4,1.8-2.1c0.3-0.3,0.5-0.6,0.7-1c0.4-0.7,1.1-1.3,0.9-2.4
		c-0.4,0.3-0.7,0.6-0.9,0.8c-0.6,0.6-1.3,1-2.2,1c-0.8,0-1.2-0.5-1.8-0.9C67.5,5.1,67,4.9,66.9,5c-0.5,0.4-0.9,0.9-1.2,1.4
		c-0.3,0.3-0.4,0.8-0.7,1.1c-1.2,1.3-2.4,2.5-3.7,3.7c-0.2,0.2-0.5,0.4-0.7,0.6c-0.6,0.7-1.2,1.4-1.9,2.1c-0.4,0.4-0.3,0.7,0.1,0.9
		c0.4,0.2,0.8,0.4,1.2,0.7c0.2,0.1,0.1,0.5,0.2,0.7c-0.2,0-0.4,0-0.6-0.1c-0.4-0.2-0.8-0.6-1.3-0.8c-0.4-0.2-0.7-0.2-1,0.3
		c-0.3,0.5-0.6,0.9-0.9,1.3c-1.4,1.7-2,3.8-3.6,5.4c-0.1,0.1,0,0.2-0.1,0.2c-0.2,0.2-0.4,0.4-0.6,0.5c-0.1,0-0.4-0.3-0.5-0.4
		c-0.1-0.2,0-0.6,0.1-0.7c0.9-0.9,1.2-2,1.5-3.1c0.6-1.8,0.7-3.7,1.7-5.4c0.3-0.4,0.3-1,0.6-1.4c0.6-1.4,1.3-2.8,2-4.1
		c0.6-1.1,1.3-2.1,1.8-3.2c0.2-0.5,0.5-1,0-1.6c-1,0.7-1.9,1.5-3.2,1.1c-0.5-0.1-1-0.5-1.4-0.4c-0.5,0.1-0.8,0.6-1.2,1
		c-0.2,0.2-0.5,0.4-0.7,0.7c-0.3,0.5-0.5,1-0.8,1.5c-0.5,1-1.1,1.9-1.6,2.9c-0.5,0.9-1,1.7-1.6,2.6c0.6,0.1,1.1,0.2,1.5,0.4
		c0.2,0.1,0.3,0.4,0.5,0.6c-0.2,0.1-0.5,0.4-0.7,0.4c-0.3,0-0.6-0.2-0.9-0.2c-0.4,0-1,0.2-1.1,0.4c-0.4,1.3-0.7,2.6-1,3.9
		c-0.4,1.3-0.8,2.5-1.3,3.8c-0.4,1-0.7,2.1-1.1,3c-0.5,1.1-1.1,2.2-1.9,3.1c-1,1.1-2.3,2-3.6,2.9c-0.2,0.1-0.6,0-0.8-0.1
		c-0.2-0.2-0.3-0.6,0.2-0.8c0.3-0.1,0.5-0.4,0.8-0.6c0.3-0.2,0.5-0.5,0.8-0.7c0.5-0.2,0.6-0.5,0.6-1c0-0.9,0-1.8,0.1-2.7
		c0.1-1,0.4-2,0.4-3.1c0.1-1.5-0.6-2.6-1.7-3.5c-1.5-1.2-2.2-0.4-2.3,1c-0.1,0.7-0.3,1.5-0.7,2.1C36.1,21.9,36.1,22.8,36,23.8z
		 M97,50.6c0.3-0.1,0.5-0.1,0.6-0.2c0.6-0.8,1.5-1.5,1.7-2.3c0.4-1.7,0.6-3.4,0.1-5.2c-0.1-0.2,0.2-0.5,0.3-0.7
		c0.2,0.1,0.5,0.2,0.6,0.4c0.2,0.5,0.3,1,0.3,1.6c0,1,0,2-0.1,3c-0.1,0.9-0.3,1.8-0.9,2.6c-0.8,0.9-1.4,2-2.8,2
		c-0.1,0-0.3,0.3-0.3,0.4c0,0.8,0,1.6,0,2.5c0,0.2,0.1,0.4,0.2,0.5c1.3,1.1,3.2,1.5,4.2-0.4c0.7-1.3,1.1-2.7,1.1-4.2
		c0-3.3,0.2-6.6-0.5-9.9c-0.2-1.1-0.5-2.3-1.2-3.2c-1.6,0.7-2.4,2.1-3,3.5c-0.1,0.4-0.3,0.8-0.5,1.1c-0.2,0.2-0.6,0.3-0.9,0.2
		c-0.3-0.1-0.4-0.5-0.1-0.8c0.2-0.3,0.4-0.6,0.6-1c0.6-1,1.2-2,1.9-2.9c0.3-0.4,0.9-0.7,1.4-1c-0.1-0.1-0.2-0.2-0.3-0.2
		c-1-0.4-2.5,0-3.1,1c-0.4,0.6-0.7,1.3-1,2c-1.2,2.3-2,4.8-1.9,7.5c0,0.1,0,0.2-0.1,0.3c-0.1,0.2-0.3,0.5-0.5,0.5
		c-0.2,0-0.5-0.2-0.6-0.4c-0.4-1-0.7-2-1.1-3c-0.5-1.5-1.2-2.8-2.1-4c-0.8-1.1-1.8-2-3.1-2.5c-0.7-0.2-1.3-0.5-1.9-0.8
		c-1.4-0.7-2.6-1.5-3.4-2.9c-0.2-0.4-0.5-0.9-0.7-1.3c-0.1,0-0.2,0.1-0.2,0.1c-2.5,1.7-5.4,2.6-8.1,3.8c-0.4,0.2-0.8,0.4-1.2,0.5
		c-1.4,0.5-2.9,1-4.1,1.9c-1.6,1.1-3.1,2.2-4.2,3.9c-0.7,1.2-1.6,2.2-2.5,3.2c-1.2,1.4-2.5,2.7-3.8,4c-0.5,0.6-0.4,1,0.3,1.2
		c0.4,0.1,0.9,0.2,1.3,0.4c0.8,0.4,1.7,0.8,2.1,1.7c-2.7,2.3-5.7,3.4-9.2,2.8c-0.2,0.3-0.4,0.5-0.5,0.8c-0.8,1.4-1.5,2.8-2.3,4.2
		c-0.5,1-0.5,1.9,0,2.9c0.3,0.6,0.6,1.3,0.9,1.9c0.2,0.5,0.4,1,0.7,1.5c0.8,1.4,1.6,2.7,2.4,4c1.1,2,2.2,4,4.2,5.3
		c0.6,0.4,1.2,1,1.8,1.5c0.8,0.8,1.7,1.5,2.5,2.3c1,0.8,2,1.6,3,2.5c0.1,0.1,0.2,0.1,0.2,0.2c1.4,1.3,2.8,2.6,4.3,3.8
		c0.7,0.6,1.7,1.1,2.6,1.2c1.4,0.1,2.9,0,4.3-0.2c2.2-0.4,4.1-1.3,5.6-3.1c1.4-1.7,3-3.3,4.5-5c1.7-2,3.4-4.1,4.7-6.4
		c0.9-1.4,1.9-2.7,2.9-4.1c0.4-0.5,0.7-1.1,0.9-1.6c0.4-1.2,0.8-2.3,1.2-3.5c0.3-1.1,0.8-2.2,0.9-3.3c0.3-2.2,0.5-4.5,0.5-6.7
		c0-1.9,0.4-3.8,0.9-5.6c0.1-0.5,0-0.7-0.3-1.1c-0.3-0.4-0.7-0.8-0.9-1.3c-0.1-0.2,0.1-0.6,0.3-0.8c0.3-0.2,0.6,0,0.7,0.4
		c0.2,0.5,0.5,0.9,0.9,1.3c0.3,0.4,0.4,0.8,0.4,1.2C97.3,49,97.2,49.7,97,50.6z M47.8,77.1c0,0-0.1,0.1-0.1,0.1
		c0.3,0.6,0.6,1.3,1,1.8c0.9,1,1.3,2.1,1.6,3.3c0.8,3.6,1.9,7.1,3.5,10.4c1.1,2.1,1.6,4.4,2,6.7c0.4,2,0.7,4,1.2,6
		c0.4,1.8,1,3.6,1.4,5.4c0.5,2.4,0.9,4.9,1.3,7.4c0.6,2.8,1.6,5.5,2,8.4c0.2,1.9,0.8,3.7,1.2,5.5c0.1,0.6,0.4,1.1,0.7,1.7
		c0.2-0.8,0.2-1.6,0.4-2.3c0.3-1.3,0.7-2.6,1-3.9c0.5-2.3,1-4.5,1.4-6.8c0.3-1.6,0.5-3.3,0.7-4.9c0.2-2.2-0.3-4.4-0.5-6.6
		c-0.2-2.1-0.3-4.3-0.5-6.4c-0.1-0.8-0.1-1.6-0.2-2.4c-0.2-1.3-0.6-2.6-0.8-4c-0.3-1.5-0.4-3.1-0.7-4.6c-0.3-1.3-0.6-2.5-0.5-3.8
		c0-0.6-0.1-1.2-0.1-1.8c0-0.2-0.1-0.4-0.2-0.5c-1.2-1.3-2.5-2.7-3.9-3.8c-1.7-1.3-3.3-2.7-5-4.1c-0.2-0.1-0.4-0.2-0.6-0.2
		c-1.8,0.3-3.6,0.1-5.4-0.3C48.5,77.3,48.2,77.2,47.8,77.1z M112.3,125.7C112.4,125.7,112.4,125.7,112.3,125.7
		c0.7-1.1,1.4-2.1,2-3.2c0.8-1.3,1.7-2.6,2.6-3.9c1.4-2.2,2.8-4.5,4.2-6.7c0.4-0.6,1.1-1.1,1.4-1.8c0.5-1,0.8-2.1,1.1-3.2
		c0.5-2.2,1.2-4.3,2.3-6.2c0.7-1.4,1.4-2.9,2.1-4.3c0.4-0.7-0.1-1.3-0.1-2c0-0.4-0.2-0.7-0.6-0.8c-0.9-0.3-1.8-0.5-2.6-1
		c-2-1.2-4-2.5-5.9-3.7c-1.6-1-3.3-1.5-5.1-1.9c0.6,0.8,1.3,1.5,1.6,2.3c0.8,2.1,1,4.3,0.8,6.5c-0.1,0.9-0.4,1.7-0.5,2.5
		c-0.2,2.2-0.4,4.3-0.5,6.5c-0.1,1.8-0.1,3.6-0.3,5.3c-0.2,2.2-0.6,4.5-0.9,6.7c-0.2,1.6-0.5,3.3-0.8,4.9
		C112.9,123.1,112.6,124.4,112.3,125.7z M102.7,85.2c-0.3-0.4-0.6-0.8-0.9-1.1c-1.1-1.1-2.2-2.1-3.2-3.2c-1-1-1.8-2.2-2.2-3.7
		c-0.2-0.6-0.3-1.2-0.5-1.8c-0.3-1.4-0.6-2.9-0.8-4.4c-0.2-1.6-0.4-3.3-0.6-5.1c-0.1,0.3-0.2,0.4-0.2,0.5c-0.4,1.1-0.6,2.2-1.3,3.1
		c-0.8,1-1.5,2.1-2.2,3.1c-0.7,1.1-1.4,2.3-2.2,3.4c-0.8,1.2-1.7,2.3-2.6,3.4c-1.1,1.4-2.2,2.7-3.4,4c-1.2,1.3-2.4,2.5-3.6,3.7
		c-0.9,0.8-1.8,1.5-3,1.7c-0.8,0.2-1.6,0.5-2.5,0.7c1.7,0.2,3.4,0.4,5.1,0.4c1.9,0,3.7-0.1,5.6-0.1c1.5,0,3-0.3,4.5-0.7
		c0.7-0.2,1.5-0.3,2.2-0.5c1.2-0.2,2.4-0.4,3.6-0.7c2.1-0.6,4.2-1.4,6.2-2.1C101.4,85.7,102.1,85.4,102.7,85.2z M65.7,87.8
		c0.1,0.7,0.2,1.4,0.3,2.1c0,0.1,0.1,0.3,0.2,0.4c1.3,1,2.7,1.7,4.4,1.9c1.7,0.2,3.4,0.5,5.2,0.8c1,0.2,2,0.6,3,0.6
		c1.6,0.1,3.2,0,4.8-0.2c1.6-0.2,3.2-0.7,4.9-0.9c3.1-0.4,6.1-1,9-2c1.8-0.7,3.7-1.3,5.5-2c0.7-0.3,1.5-0.6,2.2-1
		c1-0.5,1.3-1.5,1.2-2.5c-0.1-0.5-0.6-0.9-1-1.3c-0.1-0.1-0.4-0.2-0.6-0.2c-0.1,0-0.2,0.3-0.2,0.5c0,1.4-0.7,2.1-1.8,2.4
		c-1.7,0.5-3.4,1.1-5.1,1.7c-1.2,0.4-2.4,1-3.7,1.3c-1.6,0.4-3.4,0.5-5,1c-2.1,0.7-4.3,0.7-6.4,0.8c-2.1,0.1-4.3-0.1-6.4-0.2
		c-0.8,0-1.7,0.1-2.5-0.2c-2-0.6-4-1.2-6-1.9C66.9,88.7,66.3,88.2,65.7,87.8z M53.1,76.6c-0.5-0.8-1-1.5-1.4-2.3c-0.6-1-1-2-1.6-3
		c-0.9-1.5-2-2.9-2.6-4.6c-0.3-0.7-0.7-1.4-1.1-2.2c-0.2,0.4-0.3,0.7-0.4,1c-0.2,0.5-0.3,1-0.5,1.5c-0.3,0.8-0.8,1.5-1,2.4
		c-0.4,1.6-0.7,3.2-1,4.8c-0.1,0.7-0.1,1.5-0.2,2.2c0.6-0.2,1-0.4,1.5-0.5c1.4-0.3,2.9-0.1,4.3,0.3C50.3,76.5,51.7,76.6,53.1,76.6z
		 M27.4,98.7c0-0.1,0-0.2,0-0.2c0-0.1,0-0.3,0.1-0.4c0.2-0.6,0.1-1-0.5-1.1c-0.8-0.2-1.5-0.4-2.1-0.9c0,0-0.1-0.1-0.2-0.1
		c-0.5,0.2-0.8-0.2-1.1-0.4c-2.4-1.5-4.8-3-7.2-4.5c-0.6-0.4-1.2-0.7-1.6-1.3c-0.7-0.9-1.1-1.9-1.7-2.9c-0.1-0.2-0.3-0.5-0.4-0.5
		c-0.2,0-0.5,0.2-0.6,0.4c-0.1,0.3-0.2,0.7-0.2,1c0.2,0.7,0.5,1.4,0.9,2c0.8,1,1.8,2,2.8,2.9c0.7,0.6,1.7,1,2.5,1.5
		c0.8,0.5,1.5,1,2.3,1.5c0.7,0.5,1.4,1,2.1,1.4c1.1,0.6,2.3,1.1,3.5,1.6C26.5,98.7,27,98.7,27.4,98.7z M79.9,26.3
		c-0.4,0.1-0.8,0-1.1,0.2c-0.3,0.2-0.7,0.7-0.7,1c0,0.6,0.4,1.1,0.7,1.6c0.1,0.2,0.6,0.3,0.8,0.2c0.6-0.2,1.2-0.5,1.8-0.7
		c0.1-0.1,0.3-0.2,0.3-0.4C81.8,27.4,80.8,26.3,79.9,26.3z M67.8,4c0.4,0.3,0.7,0.7,1,0.9c0.4,0.3,0.9,0.6,1.4,0.2
		c0.5-0.4,0.9-0.8,1.4-1.2c0.7-0.6,0.8-1,0-1.5c-0.4-0.2-0.9-0.2-1.4-0.2C69.2,2.4,68.5,3.2,67.8,4z M77.8,12
		c-0.5,0.2-1,0.4-1.5,0.7c-0.9,0.5-1,0.9-0.4,1.8c0.3,0.5,1,0.7,1.5,0.5c0.7-0.4,1.3-0.8,2-1.2c0.1-0.1,0.2-0.3,0.2-0.4
		C79.4,12.8,78.5,12.1,77.8,12z M59.3,1.8C59.1,1,58.9,1,58.2,1.1c-1,0.2-1.6,1-2.5,1.5C56.7,3.3,57.3,3.4,59.3,1.8z M52.7,52.9
		c-0.8,0.5-1.6,0.9-1.9,1.8c0.8,0.7,1.7,0.3,2.7,0.5C52.4,54.1,52.5,54,52.7,52.9z M56,54.2c0.5-0.3,1-0.5,1.5-0.8
		c0.1-0.1,0.3-0.3,0.3-0.4c-0.1-0.2-0.2-0.4-0.4-0.4c-0.4-0.2-0.7-0.3-1.1-0.3c-0.3-0.1-0.6-0.1-1-0.1C55.9,52.8,56.2,53.4,56,54.2z
		"/>
	<path class="st0" d="M68.4,81c-1.2-0.1-2.1,0-2.9-0.2c-0.9-0.3-1.7-0.8-2.4-1.3c-1.4-1.1-2.8-2.4-4.1-3.6c-0.3-0.3-0.6-0.8-0.4-1.3
		c0.3-0.7,0.7-1.4,1.2-1.9c0.8-0.9,1.7-1.8,2.5-2.6c0.4-0.4,1-0.7,1.7-0.7c0.3,0,0.5,0,0.8,0c0.7,0,1.3-0.1,1.9-0.6
		c0.8-0.8,2-0.8,3-0.9c2.6-0.3,5,0.8,7.4,1.6c0.5,0.2,0.9,0.3,1.4,0.5c0.8,0.3,0.9,0.8,0.5,1.5c-0.3,0.4-0.3,1-0.5,1.4
		c-0.7,2.1-1.8,4-3.4,5.6c-1.2,1.3-2.8,2-4.6,2.2C69.7,80.8,68.9,81,68.4,81z M60.1,75.8c1.2,1.1,2.3,2.2,3.5,3.2
		c0.5,0.4,1.1,0.9,1.7,1c0.9,0.2,1.9,0.3,2.9,0.3c1,0,2.1-0.2,3.1-0.5c1.5-0.4,2.9-1.2,3.8-2.5c0.7-0.9,1.3-1.9,1.9-2.9
		c0.5-0.9,0.7-1.9,1.1-2.9c-0.5,0.3-0.8,0.5-1.1,0.8c-2.1,1.8-4.4,3.3-7,4.4c-1.8,0.8-3.6,0.7-5.4,0.2c-0.1,0-0.3-0.1-0.4-0.2
		C63,75.9,61.7,75.2,60.1,75.8z M76.9,71.4c0-0.1-0.1-0.1-0.1-0.2c-0.5-0.1-0.9-0.2-1.4-0.2c-1.1,0-2.3,0.1-3.4,0.3
		c-0.9,0.1-1.9,0.1-2.8,0.4c-1.8,0.6-3.5,1.4-5.3,2.1c-0.4,0.2-0.9,0.4-1.2,0.7c-0.4,0.3-0.3,0.6,0.2,0.7c0.2,0.1,0.4,0.1,0.6,0.3
		c1.6,1.2,3.4,1.3,5.2,0.9c2.1-0.4,3.8-1.7,5.5-2.8C75.2,72.9,76,72.1,76.9,71.4z M59.5,74.9c1.6-0.7,3.2-1.3,4.7-2
		c1.9-0.8,3.8-1.7,5.8-2c2.3-0.4,4.5-0.5,6.8-0.5c0.1,0,0.3,0,0.4,0c-0.5-0.3-1-0.5-1.5-0.7c-2.2-0.8-4.4-1.5-6.7-1
		c-0.7,0.1-1.4,0.3-1.9,0.7c-0.7,0.5-1.5,0.8-2.3,0.7c-0.2,0-0.4,0-0.5,0c-0.5,0.2-1.1,0.3-1.5,0.6c-0.7,0.6-1.3,1.3-1.8,2
		C60.4,73.3,59.6,73.7,59.5,74.9z"/>
	<path class="st0" d="M74.2,51.4c-1.1-0.2-2.3-0.4-3.5-0.6c-0.8-0.2-1-0.8-0.4-1.4c0.9-0.9,1.9-1.7,2.9-2.5c0.3-0.2,0.8-0.2,1.1-0.3
		c2-0.4,3.9-0.3,5.9-0.2c0.5,0,1.1,0,1.6,0.2c0.3,0.1,0.6,0.4,0.8,0.7c0.1,0.1-0.4,0.5-0.6,0.7c-0.9,0.5-1.9,1-2.8,1.5
		c-1,0.5-2,1-3,1.4C75.5,51.2,74.9,51.2,74.2,51.4z M74,47.8c-1.2,0.4-2,1.2-2.9,2.2c1.1,0.6,2.3,0.4,3.5,0.4
		C73.8,49.6,73.8,48.7,74,47.8z M78.9,48.8c0.7-0.4,1.3-0.7,1.9-1.1c-0.5-0.5-1.7-0.6-2.3-0.2C78.7,47.9,78.8,48.3,78.9,48.8z"/>
	<path class="st0" d="M65.6,67.1c-0.4-0.1-0.7-0.1-1.1-0.2c-1.4-0.5-2.8-0.3-4.2-0.2c-1.4,0-2.2-1.2-1.8-2.6c0.2-0.7,0.6-1.3,0.7-2
		c0.1-0.6,0.1-1.2,0.1-1.8c0-0.3-0.1-0.6,0.3-0.7c0.4,0,0.4,0.3,0.4,0.5c0.4,1.4-0.3,2.6-0.8,3.8c-0.2,0.6-0.5,1.2,0.1,1.6
		c0.3,0.2,0.8,0.5,1.1,0.4c1.5-0.4,2.9-0.1,4.4,0.3c0.8,0.2,1.3,0.1,1.6-0.7c0.6-1.1,1.4-1.6,2.7-1.6c0.7,0,1.4,0,2.1-0.2
		c0.4-0.1,0.9-0.4,1-0.8c0.1-0.6,0.3-1.2-0.3-1.7c-0.3-0.3-0.7-0.7-1-1c-0.1-0.1,0-0.3,0-0.5c0.2,0,0.4-0.1,0.5,0
		c0.5,0.4,1,0.9,1.3,1.4c0.8,1.2,0.1,3.2-1.7,3.4c-0.8,0.1-1.5,0.2-2.3,0.3c-0.7,0.1-1.3,0.4-1.7,1.1C66.7,66.9,66.5,67,65.6,67.1z"
		/>
	<path class="st0" d="M76.8,42c0.9,0.2,1.7,0.4,2.5,0.7c0.2,0.1,0.3,0.5,0.4,0.7c-0.3,0-0.7,0.2-0.8,0.1c-1.1-0.7-2.2-0.5-3.3-0.3
		c-1.7,0.3-3.4,0.9-5.1,1.3c-0.2,0.1-0.4,0.3-0.7,0.5c-0.3,0.2-0.6,0.4-0.9,0.5c-0.2,0-0.5-0.1-0.5-0.3c0-0.2,0-0.6,0.2-0.7
		c0.7-0.5,1.4-0.9,2.3-1.1c1.3-0.2,2.4-0.8,3.7-1.1c0.7-0.2,1.5-0.2,2.2-0.2C76.7,42.1,76.7,42.1,76.8,42z"/>
</g>
</svg>
