<?xml version="1.0" encoding="utf-8"?>
<!-- Generator: Adobe Illustrator 19.2.1, SVG Export Plug-In . SVG Version: 6.00 Build 0)  -->
<svg version="1.1" id="Layer_1" xmlns="http://www.w3.org/2000/svg" xmlns:xlink="http://www.w3.org/1999/xlink" x="0px" y="0px"
	 viewBox="0 0 142.8 150" style="enable-background:new 0 0 142.8 150;" xml:space="preserve">
<style type="text/css">
	.st0{fill:#C2185B;}
</style>
<g id="icon-child-pinworm">
	<path class="st0" d="M23.1,0c0.5,0,0.9,0,1.4,0c0.1,0.6,0.2,1.1,0.4,1.7c0.5,1.4,1.2,2.7,1.7,4.1c0.5,1.4,0.7,2.9,1.1,4.3
		c0.8,2.7,1.3,5.4,1.6,8.1c0.2,1.9,0.2,3.8,0.3,5.7c0.1,1,0.4,1.9,0.5,2.9c0.4-0.6,0.6-1.1,0.8-1.7c0.5-1,1-1.9,1.5-2.8
		c0.8-1.3,1.1-2.8,1.5-4.2c0.8-3,1.7-6,2.6-9c0.8-2.5,1.1-5,1-7.7c0-0.5,0.1-1,0.1-1.4c0.5,0,0.9,0,1.4,0c0,0.3,0.1,0.7,0,1
		c0,0.5-0.2,1-0.2,1.4c0.2,3.1-0.7,6-1.5,8.9c-0.7,2.4-1.5,4.8-2,7.3c-0.5,2-1.1,3.9-2.4,5.5c-0.2,0.2-0.3,0.5-0.4,0.8
		c1.2-0.1,2.2-0.3,3.2-0.3c1.3,0,2.7-0.1,4,0.1c1.3,0.2,2.5,0.8,3.7,1.2c2,0.6,4,0.8,6.1,0.8c1.3,0,2.6,0,3.9,0
		c0.3,0,0.6,0.4,0.9,0.5c-0.2,0.2-0.4,0.5-0.7,0.6c-0.2,0.1-0.4,0.1-0.7,0.1c-1.8,0-3.7,0-5.5-0.2c-1.5-0.1-3.1-0.3-4.5-0.8
		c-2.1-0.9-4.2-1.3-6.4-1.1C35.4,25.8,34.2,26,33,26c-0.7,0-1,0.3-1.1,1c0,0.1,0,0.3-0.1,0.4c-1,1.5-0.8,2.9-0.3,4.6
		c0.6,1.9,0.7,3.9,1.3,5.8c0.8,3,1.9,5.9,2.8,8.8c0.1,0.4,0.4,0.7,0.9,0.6c1.4-0.1,2.8-0.3,4.2-0.4c1.3-0.1,2.6-0.3,3.8-0.2
		c1.2,0,2.5,0.2,3.7,0.3c0.6,0,1.3,0,1.9,0c2.2,0,4.5,0.2,6.6,0c3.4-0.4,6.7-1,10.1-1.5c2.3-0.3,4.7-0.6,7-0.6
		c6.1-0.1,12.3,0,18.4,0c0.8,0,1.6,0.1,2.4,0.2c1.8,0.2,3.5,0.5,5.3,0.7c2.1,0.3,4.2,0.6,6.2,0.9c0.9,0.1,1.9,0.2,2.8,0.4
		c0.3-2.3,0.6-4.4,0.9-6.6c0.3-2,0.5-4,0.7-6c0.2-1.6,0.3-3.3,0.5-4.9c0.2-2.3,0.4-4.6,0.6-6.8c0.1-0.6-0.3-0.8-0.8-0.8
		c-1.6,0.1-3.3,0.2-4.9,0.5c-1.7,0.3-3.3,1-5,1.3c-1.9,0.4-3.9,0.5-5.9,0.8c-1.1,0.1-2.2,0.3-3.3,0.5c-0.5,0.1-1,0-1-0.6
		c0-0.3,0.5-0.7,0.8-0.7c1.3-0.2,2.7-0.4,4.1-0.5c1.9-0.2,3.7-0.3,5.6-0.9c2.1-0.7,4.2-1.4,6.4-1.5c1.2-0.1,2.4-0.1,3.5-0.1
		c0.3,0,0.7-0.3,0.7-0.4c0.2-1.2,0.4-2.5,0.5-3.7c0.2-1.7,0.2-3.5,0.5-5.2c0.5-2.8,1.2-5.5,1.7-8.3c0.2-1,0.5-1.9,0.7-2.9
		c0.5,0,1,0,1.5,0c-0.2,0.7-0.3,1.4-0.5,2.1c-0.3,1.6-0.6,3.2-1.1,4.7c-0.8,2.8-1.1,5.6-1.4,8.5c-0.2,1.5-0.3,3-0.5,4.5
		c-0.2,1.7-0.4,3.3-0.6,5c-0.2,2.5-0.4,4.9-0.6,7.4c-0.2,2-0.4,4-0.6,6.1c-0.1,1.1-0.3,2.3-0.4,3.4c-0.2,1.3-0.5,2.5-0.6,3.8
		c-0.3,2.2-0.4,4.3-0.7,6.5c-0.3,2.5-0.7,5-1.2,7.4c-0.5,2.2-1.1,4.3-1.7,6.4c-0.3,1.2-0.8,2.3-1,3.5c-0.7,3.3-2.2,6.1-4.5,8.5
		c-1.5,1.6-3.1,3.1-4.6,4.8c-1.9,2.2-3.3,4.6-4.7,7.1c-1.1,2.1-2.4,4-4.1,5.6c-0.4,0.4-0.8,0.7-1.2,1.1c-1.4,1.3-2.8,2.7-4.3,4
		c-0.4,0.4-0.7,2.2-0.4,2.6c0.7,0.9,1.4,1.1,2.5,0.5c0.3-0.1,0.6-0.3,0.9-0.4c2.4-0.9,4.6-2.2,6.7-3.6c0.5-0.3,0.8-0.8,1.3-1.1
		c0.2-0.1,0.8-0.1,1,0.1c0.4,0.3,0.1,0.7-0.2,0.9c-0.2,0.1-0.4,0.3-0.6,0.4c-1.7,1.5-3.7,2.7-5.9,3.6c-0.7,0.3-1.3,0.6-2.1,0.9
		c0.9,0.2,1.5,0.4,2.2,0.6c1.4,0.4,2.7,0.4,4-0.1c1.2-0.5,2.5-1,3.7-1.6c0.8-0.4,1.6-0.9,2.5-1.3c0.4-0.2,0.8-0.1,1,0.3
		c0.1,0.2-0.1,0.7-0.3,0.8c-0.9,0.5-1.8,1-2.7,1.4c-1.3,0.6-2.6,1.1-3.8,1.7c0,0.1,0,0.1,0,0.1c0.2,0.1,0.4,0.2,0.6,0.3
		c1.9,1.4,4.1,1.2,6.2,0.8c1.4-0.3,2.7-0.9,4-1.5c1.2-0.6,2.4-1.3,3.6-1.9c0.4-0.2,0.8-0.4,1,0.1c0.1,0.2-0.1,0.7-0.3,0.8
		c-0.7,0.5-1.4,1.1-2.2,1.4c-1.4,0.6-2.5,1.5-3.4,2.7c-0.5,0.7-0.4,1.5,0.3,1.7c1.1,0.2,2.2,0.1,3.2-0.5c2-1.4,4.1-2.6,5.5-4.6
		c0.7-1,1.4-2.1,2.1-3.3c0.8-1.5,1.7-2.9,3-4.1c0.8-0.7,1.5-1.3,2-2.2c0.4-0.7,1.1-1.2,1.6-1.8c0.3-0.3,0.6-0.6,0.7-0.9
		c0.2-0.4,0.4-0.8,0.9-0.5c0.5,0.2,0.5,0.7,0.3,1.1c-0.3,0.5-0.8,0.9-1.2,1.3c-0.2,0.2-0.4,0.4-0.7,0.6c0.5,0.2,0.9,0.3,1.3,0.5
		c1.2,0.6,2.6,0.9,3.6,1.9c0.8,0.8,1.7,1.6,2.6,2.3c1.4,1,2.6,2.2,4.5,2.2c0-0.1,0-0.2,0-0.3c-0.1-1.5,0-2.9,1.2-4.1
		c0.2-0.2,0.2-0.7,0.1-1c-1-1.5-2.1-3-3.2-4.4c-0.7-1-1.7-1.8-2.4-2.8c-0.8-1.2-1.5-2.4-2.3-3.6c-1.1-1.6-2.2-3.2-3.3-4.9
		c-0.6-1-1.2-2-1-3.2c0.2-0.9,0.5-1.8,0.8-2.7c0.1-0.4,0.3-0.8,0.4-1.1c0.3-1.7,0.6-3.3,0.9-5c0.5-2.3,1.3-4.6,2.5-6.7
		c0.4-0.7,1-1.4,1.3-2.2c0.8-1.9,1.4-3.9,2.1-5.8c0.7-2,1.3-3.9,1.8-5.9c0.4-1.5,0.7-3,1.4-4.4c1.6-3,2.6-6.1,3.2-9.4
		c0.6-3,1.3-6,1.9-9c0.3-1.5,0.4-3,0.7-4.5c0.1-1,0.3-1.9,0.4-2.9c0.2-1.4,0.6-2.8,0.6-4.3c-0.1-3,0.8-5.9,1.2-8.8
		c0.2-1.8,0.5-3.7,0.8-5.5c0.6,0,1.1,0,1.7,0c-0.1,0.3-0.2,0.7-0.3,1c-0.4,2.4-0.8,4.7-1.2,7.1c-0.4,2.2-0.9,4.4-0.8,6.6
		c0,0.2-0.1,0.5-0.1,0.8c-0.3,1.8-0.6,3.5-0.8,5.3c-0.3,2.2-0.6,4.5-1,6.7c-0.3,1.7-0.7,3.3-1.1,4.9c-0.5,2-0.9,4-1.4,6
		c-0.1,0.3-0.1,0.5-0.2,0.8c-0.1,0.9-0.1,1.8-0.1,2.8c0,0.8-0.2,1.5-0.1,2.3c0.3,1.4,0.4,2.9-0.1,4.2c-0.6,1.5-0.4,3-0.3,4.5
		c0.1,1.5,0.5,2.9,0.9,4.4c0.5,2.1,1,4.3,1.5,6.4c0.4,1.8,0.7,3.6,1,5.4c0.3,1.9,0.3,3.8,0.7,5.7c0.6,3.4,1.1,6.8,1.9,10.2
		c0.9,3.9,1.3,7.8,1.5,11.7c0.2,4.1,0.3,8.1,0.3,12.2c0,2.1,0,4.3,0,6.4c0,1.3,0,2.6-0.2,3.8c-0.3,3.1-0.6,6.1-0.9,9.2
		c-0.2,1.8-0.5,3.6-0.7,5.4c-0.3,2.2-0.7,4.4-1.1,6.6c-0.3,1.6-0.5,3.2-0.7,4.9c-0.2,1.3-0.6,2.6-0.6,3.9c0,0.8-0.3,0.9-1,0.9
		c-15,0-30,0-45,0c-0.3,0-0.6,0-1.1,0c-0.6-2.6-1.1-5.1-1.7-7.7c-0.7-3-1.5-6.1-2.3-9.1c-0.7-2.8-1.3-5.6-2-8.4
		c-0.4-1.5-0.9-2.9-1.2-4.4c-0.4-1.9-0.7-3.9-1.1-5.9c-0.5-2.6-1.2-5.1-1-7.7c0-0.7-0.2-1.4-0.3-2.1c-0.9-0.2-1.3,0.2-1.4,0.9
		c-0.2,1.4-0.4,2.9-0.6,4.3c-0.1,1.3-0.2,2.7-0.4,4c-0.1,0.8-0.5,1.6-0.6,2.4c-0.3,2-0.3,4-0.7,6c-0.4,2.3-0.9,4.5-1.5,6.7
		c-0.6,2.1-1.5,4.1-2.1,6.1c-0.6,2-1.1,4-1.7,6c-0.4,1.5-0.7,3-1,4.6c-0.3,1.4-0.4,2.9-0.6,4.3c-15.3,0-30.5,0-45.7,0
		c0,0,0-0.1,0-0.1c0.2,0,0.4-0.1,0.7-0.1c-0.1-0.8-0.2-1.6-0.2-2.4c-0.1-2.3-0.2-4.5-0.8-6.7c-0.7-3.2-1.3-6.4-1.9-9.5
		c-0.4-2-0.7-3.9-1-5.9c-0.3-1.6-0.5-3.1-0.7-4.7c-0.4-2.3-0.8-4.5-1.1-6.8c-0.3-2.5-0.4-5-0.4-7.6c0-4.8,0.1-9.6,0.1-14.5
		c0-0.1,0-0.3,0-0.4c0.1-1.2,0.3-2.3,0.4-3.5c0-0.2-0.1-0.3-0.1-0.5c-0.5-1.6-0.4-3.2-0.2-4.8c0.2-1.6,0.5-3.3,1.4-4.8
		c0.9-1.6,1.6-3.4,2.4-5.1c0.5-1.1,1.1-2.2,1.6-3.3c0.1-0.2,0.2-0.5,0.2-0.8c0.1-1.9-0.4-3.6-1.2-5.3c-1.2-2.7-2.2-5.5-3.3-8.2
		c-0.7-1.9-1.4-3.8-2.2-5.7c-1-2.1-2.1-4.2-3.2-6.3c-0.5-1-1-2.1-1.5-3.1c-1-2-2-4-3-6c-0.7-1.4-1.3-2.8-2.1-4.2
		c-1.5-2.5-2.2-5.3-2.8-8.1c-0.4-1.8-0.5-3.7-1-5.5c-0.4-1.6-1-3.1-1.5-4.7C3.1,8.7,2.2,5.8,1.3,3C0.9,2,0.4,1,0,0
		c0.6,0,1.2,0,1.8,0c0.4,1.2,0.7,2.3,1.1,3.5c1,3,1.9,6.1,3,9.1c0.9,2.5,1.6,5.1,1.9,7.7c0.3,2.5,0.9,5,2,7.3
		c0.8,1.7,1.8,3.4,2.7,5.1c1.4,2.8,2.7,5.7,4.1,8.5c1.3,2.6,2.7,5.1,3.9,7.7c0.8,1.6,1.5,3.3,2.1,4.9c0.8,2,1.5,4,2.1,6.1
		c0.7,2.2,2.3,4.1,2.5,6.5c0.1,1.5,0.3,2.9-0.6,4.3c-0.9,1.4-1.4,3-2.1,4.5c-0.8,2.1-2.3,4-2.6,6.3c-0.1,1-0.3,2.1-0.3,3.1
		c0,0.2,0.2,0.5,0.3,0.5c0.6,0,1.2-0.1,1.7-0.3c1.9-0.7,2.9-2.4,4-3.9c0.2-0.3,0.3-0.8,0.2-1.2c-0.1-0.7-0.3-1.4-0.6-2
		c-0.2-0.5-0.2-0.9,0.3-1.1c0.5-0.2,0.7,0.3,0.8,0.7c0.4,1.4,0.9,2.7,1.4,4.1c0.2,0.7,0.6,1.3,0.7,2c0.4,1.7,0.8,3.5,1.2,5.2
		c0.2,1,0.5,2.1,0.6,3.1c0.2,1.6,0.3,3.3,0.5,4.9c0.1,1,0.4,1.9,0.9,2.8c0.8,1.5,1.7,2.9,3,4c0.5,0.5,0.8,1.1,1.3,1.6
		c0.8,0.7,1.6,1.3,2.5,1.9c0.9,0.6,1.7,1.3,2.6,1.9c1.1-1.9,2.9-0.9,4.4-1.3c-0.2-0.2-0.3-0.3-0.5-0.4c-1.9-1.2-3.5-2.6-4.9-4.4
		c-2.1-2.6-3.4-5.5-4.8-8.4c-0.1-0.2,0.1-0.7,0.3-0.8c0.2-0.1,0.7,0.1,0.8,0.3c1,1.7,1.9,3.5,2.8,5.3c1,2,2.6,3.3,4.7,4
		c2.7,0.9,5.5,1.7,8.3,2.6c1.1-0.8,2.4-1.7,4.1-1.5c-0.3-0.2-0.6-0.5-1-0.6c-2-0.6-3.7-1.8-5.4-2.9c-1.9-1.2-3.5-2.7-5-4.3
		c-1.3-1.5-2.5-3-3.7-4.6c-0.2-0.2-0.1-0.6-0.2-0.9c0.3,0,0.6-0.1,0.9,0c0.2,0,0.4,0.2,0.5,0.4c1.1,1.4,2.2,2.8,3.4,4.3
		c0.6-0.5,1-1,1.6-1.4c0.2-0.2,0.6-0.1,1-0.1c-0.1,0.3,0,0.7-0.2,0.9c-0.3,0.4-0.7,0.7-1.1,1c-0.4,0.3-0.4,0.5-0.1,0.8
		c0.5,0.5,1.1,0.9,1.6,1.4c2.2,1.7,4.9,2.5,7.5,3.4c0.5,0.2,0.9,0.1,1.3-0.3c1.1-1.2,2.4-1.4,4-1.1c0.2,0,0.4,0,0.6,0
		c-0.9-1.3-1.8-2.2-3.4-2.5c-1.2-0.3-2.5-0.8-3.3-1.7c-1.4-1.4-2.7-2.9-4.3-4.1c-1.6-1.2-3.4-2.1-5-3.3c-1-0.7-1.9-1.5-2.8-2.4
		c-0.6-0.5-1.1-1.2-1.5-1.8c-0.2-0.2-0.2-0.7,0-0.9c0.3-0.4,0.6-0.1,0.9,0.2c0.1,0.1,0.2,0.2,0.3,0.3c0.7,0.8,1.4,1.5,2.1,2.3
		c0.5,0.5,1,1.1,1.6,1.3c1.2,0.2,2.1,1,3.2,1.5c2.1,1,1.4,1.4,3.1-0.3c0.1-0.1,0.2-0.2,0.3-0.3c0.3,0,0.6,0,1-0.1
		c-0.1,0.3,0,0.7-0.2,0.9c-0.4,0.4-0.8,0.7-1.4,1.2c2.1,1.2,3.9,2.1,5.9,2.6c0.1,0,0.4-0.2,0.5-0.4c0.5-0.7,1.1-1.3,2-1.3
		c0.8,0.1,1.6,0.3,2.4,0.5c0.1-0.6-0.2-1.1-1.1-1.6c-1.2-0.7-2.5-1.4-3.7-2.1c-1.1-0.7-2.1-1.6-3.2-2.3c-1.9-1.3-3.8-2.5-5.6-3.9
		c-1.3-1-2.4-2.2-3-3.7c-0.8-2-1.5-4-2.2-6c-0.6-1.7-1.3-3.3-2-5c-0.6-1.2-1.4-2.3-2.8-2.6c-2.1-0.4-4.1-1.4-6.3-1.5
		c-0.2,0-0.4-0.3-0.6-0.5c0.2-0.2,0.4-0.5,0.6-0.5c0.9,0.1,1.9,0.2,2.8,0.4c1,0.2,1.9,0.5,2.9,0.8c-0.1-0.2-0.1-0.3-0.1-0.3
		c-1.6-3.2-3.2-6.4-4.7-9.6c-0.7-1.5-1.2-3.1-1.7-4.6c-1-2.7-2-5.4-2.8-8.2c-0.7-2.3-1-4.7-1.6-7c-0.5-2.1-1.1-4.2-1.6-6.3
		c-0.5-2.4-0.9-4.8-0.9-7.2c0-1.4-0.1-2.9-0.4-4.2c-0.4-2.1-1-4.2-1.5-6.2c-0.5-2-0.9-4.1-1.8-6C23.7,2.4,22.8,1.4,23.1,0z
		 M71.9,63.4c0,0,0.1,0,0.1,0c0-2.3,0-4.6,0-6.9c0-0.2,0-0.5-0.1-0.6c-0.2-0.2-0.5-0.4-0.8-0.5c-0.2,0.3-0.4,0.5-0.4,0.8
		c-0.1,0.5,0,0.9,0,1.4c0,4.1-0.1,8.1-0.1,12.2c0,0.3,0,0.5,0.1,0.8c0.1,0.2,0.4,0.5,0.6,0.5c0.2,0,0.4-0.3,0.5-0.5
		c0.1-0.2,0.1-0.5,0.1-0.8C71.9,67.6,71.9,65.5,71.9,63.4z M134,98.8c-1.3,1.5-1.7,3.3-0.9,4.3C135,102.5,135.2,101,134,98.8z
		 M59.1,105.9c-1.4-0.8-2.6-0.6-3.6,0.5C57.4,107.5,57.8,107.4,59.1,105.9z M60.4,102.1c2.2,1.1,2.4,1,3.2-0.6
		C62.5,100.9,61.1,101.2,60.4,102.1z M44.4,108.8c1,1.3,2.2,0.7,3.2,0.8c0.1,0,0.3-0.4,0.5-0.8C46.8,108.8,45.7,108.8,44.4,108.8z
		 M65.2,93.3c-1.4-0.8-2.5-0.8-3,0C63.6,94.1,64.5,94.1,65.2,93.3z"/>
</g>
</svg>
