<?xml version="1.0" encoding="utf-8"?>
<!-- Generator: Adobe Illustrator 19.2.1, SVG Export Plug-In . SVG Version: 6.00 Build 0)  -->
<svg version="1.1" id="Layer_1" xmlns="http://www.w3.org/2000/svg" xmlns:xlink="http://www.w3.org/1999/xlink" x="0px" y="0px"
	 viewBox="0 0 200 194.3" style="enable-background:new 0 0 200 194.3;" xml:space="preserve">
<style type="text/css">
	.st0{fill:#C2185B;}
</style>
<g id="icon-child-flu">
	<path class="st0" d="M0,89.6c0.4-0.4,0.8-0.8,1.2-1.3c1.2-1.6,2.3-3.3,3.4-4.9c0.3-0.4,0.3-0.8,0-1.3c-1.3-2.4-2.2-4.9-1.7-7.7
		c0.2-1,0.4-2,0.9-2.9C4.8,69.5,6,67.5,8,66.1c2-1.4,4-2.9,6-4.4c3.1-2.3,6.2-4.6,9.4-6.7c2.1-1.4,4.4-2.5,6.6-3.5
		c2.2-1,4-2.6,6-3.8c3.6-2.3,7.3-4.5,11-6.7c0.6-0.3,0.9-0.7,0.9-1.4c0-3.3,0.2-6.5,1.3-9.6c0.4-1.2,1-2.3,1.6-3.4
		c0.8-1.5,1.8-3,2.7-4.4c1-1.4,2.4-2.4,3.8-3.2c1.5-0.9,3-1.7,4.5-2.5c2.3-1.2,3.8-3.1,5.2-5.3c1.2-2,2.6-3.9,3.7-6
		c1.1-2,2.8-3.1,4.5-4.4c1.6-1.1,3.3-1,4.9-0.7c3,0.5,6,1.3,8.9,2C90.1,2.4,91,3,92,3.3c1.1,0.2,1.7,1.1,2.6,1.4
		c0.5,0.2,1.2,0.3,1.7,0.1c1.3-0.4,2.5-1.2,3.9-1.4c1.8-0.3,3.6-0.3,5.4-0.1c0.9,0.1,1.7,0.8,2.6,1.3c1.3,0.8,2.7,1.6,3.9,2.6
		c0.8,0.6,1.3,1.6,1.9,2.4c0.6,0.9,1.3,1.6,2.3,2.1c2.6,1.2,4.9,2.9,6.9,4.9c1.7,1.6,3.6,3,5.4,4.5c2,1.8,3.8,3.7,5.7,5.5
		c0.3,0.3,0.6,0.7,0.9,1c0.5,0.5,0.8,1.1,1,1.8c0.3,1,0.9,2,1.4,3c1.5,2.7,2.1,5.7,2.8,8.7c0.5,1.9,1.1,3.9,1.6,5.8
		c0.3,1,0.7,2.1,1.1,3.1c0.2,0.5,0.5,1,0.9,1.5c0.6,0.8,1,1.6,1.2,2.7c0.3,2.1,1.4,3.9,2.5,5.7c1.6,2.5,3.2,4.9,4.8,7.4
		c1.4,2.1,3.2,3.9,5.5,5.2c1.7,1,3.7,1.4,5.8,1.5c2.4,0.1,4.8,0,7.2,0c0.5,0,1-0.2,1.5-0.2c0.5,0,1,0.1,1.7,0.2
		c-1.7,2.4-3.4,4.4-5.5,6.1c-1.6,1.3-3.1,2.7-4.7,3.8c-1.1,0.7-2.4,1.1-3.5,1.7c-1.6,0.8-3.3,1.6-4.9,2.3c0,0.1,0,0.2,0,0.3
		c1,0.1,2,0.2,3,0.2c0.6,0,1.1,0,1.7,0c2.5,0,5-0.3,7.5-0.8c0.4-0.1,0.8-0.1,1.2-0.1c2.6-0.2,4.9-1.3,7.3-2.4
		c4.7-2.1,8.9-4.9,13.1-7.7c0.2-0.1,0.5-0.3,0.8-0.5c-0.1,0.7-0.2,1.2-0.4,1.7c-0.6,2-1.2,3.9-1.8,5.9c-0.4,1.2-0.9,2.4-1.1,3.7
		c-0.5,2.3-2.1,3.8-3.6,5.4c-0.5,0.5-1.2,1-1.8,1.5c-1.2,1.1-1.4,1.6-1.3,4c-1.5,0.7-1.1,1.4-0.3,2.2c1.1,1.1,2.3,2.1,3.3,3.3
		c1.7,2.1,3.4,4.3,4.5,6.8c0.6,1.4,1.5,2.7,2.5,3.8c1.6,1.7,2.5,3.8,3.5,5.8c1,2,2,3.9,2.9,6c1.1,2.7,2.1,5.5,3.1,8.2
		c0.2,0.4,0.3,0.9,0.5,1.3c0,0.9,0,1.8,0,2.7c-0.4-0.8-1-1.5-1.2-2.4c-1.5-4.4-3-8.9-5.3-13c-0.6-1.1-1.2-2.1-1.8-3.2
		c-0.9-1.8-1.8-3.5-3.2-5.1c-1-1.1-1.6-2.6-2.3-4c-0.3-0.6-0.5-1.3-0.9-1.8c-1.7-2.6-3.4-5.2-5.9-7.1c-1.2-0.9-2.4-2-3.7-2.7
		c-3.3-1.8-7-1-10.5-0.9c0,0-0.1,0-0.1,0c-1.8,0.2-3.5,0.5-5.3,0.6c-1.7,0-2.8,0.9-4.1,1.8c-0.1,0.1-0.2,0.3-0.3,0.5
		c-0.9,1.8-1.4,3.7-1.5,5.6c-0.2,3.2-0.1,6.4-0.2,9.6c0,0.2,0,0.5,0.1,0.7c0.3,2.1,0.6,4.2,1,6.3c0.4,2.2,0.7,4.5,1.2,6.7
		c0.8,3.6,2,7,3.6,10.3c0.2,0.3,0.4,0.7,0.6,1c1.4,1.7,2.8,3.5,4.3,5.1c1.1,1.2,2.5,2.2,3.7,3.3c-0.2-0.6-0.5-1-0.8-1.5
		c-2-3.4-2.8-7.1-3.1-11c-0.2-2.5-0.5-5-1.5-7.4c-0.2-0.5-0.4-0.9-0.7-1.3c-0.3-0.4-0.7-0.7-0.1-1.2c0.5-0.4,0.9-0.2,1.2,0.4
		c1.2,2,1.9,4.2,2.1,6.5c0.3,2.3,0.4,4.6,0.7,6.8c0.4,2.7,1.4,5.3,3,7.4c2.4,3.1,5,6,7.4,9c0.1,0.1,0.3,0.3,0.4,0.2
		c0.9-0.4,0.8,0.4,1.1,0.9c1.7,0.3,3.5,0.6,5.3,0.9c1.1,0.2,2.3,0,3.5,0.3c3.1,0.7,6.1,1.6,9.1,2.4c1.4,0.4,2.8,0.9,4.2,1.4
		c0,0.4,0,0.9,0,1.3c-2.8-0.9-5.6-1.8-8.4-2.6c-2.1-0.6-4.3-1-6.4-1.4c-1.2-0.2-2.5-0.2-3.8-0.4c-2-0.3-4-0.8-6.1-1.2
		c-0.1,0-0.2,0-0.3,0c-0.7,0-1.4,0.1-2,0c-1.4-0.2-2.7-0.9-4.2-0.7c-0.5,0.1-1-0.1-1.6-0.2c-1.9-0.2-3.9-0.6-5.8-0.6
		c-3.6,0-7.2,0.1-10.8,0.3c-1.3,0.1-2.5,0.2-3.8,0.4c-1.9,0.3-3.8,0.6-5.7,0.9c-1.8,0.3-3.7,0.5-5.5,0.7c-3.1,0.5-6.3,1-9.4,1.6
		c-1.7,0.3-3.4,0.4-5,1.4c-0.8,0.5-1.7,0.8-2.7,0.9c-2.1,0.3-4.2,0.5-6.4,0.6c-5.3,0.1-10.7,0.1-16,0c-1.5,0-2.9-0.4-4.3-0.8
		c-1.9-0.6-3.8-1.5-5.8-1.9c-3.2-0.7-6.4-1.1-9.7-0.9c-0.6,0-1.2,0.1-1.8,0.4c-2.1,1-4.2,2-6.2,3.3c-1.6,1-3,2.4-4.6,3.6
		c-2.1,1.5-4.3,2.9-6.4,4.4c-2.9,2.1-5.8,4.2-8.5,6.5c-3.9,3.2-7.2,7.1-10.4,11.1c-0.9,1.1-1.7,2.5-2.5,3.7c-0.4,0-0.9,0-1.3,0
		c0.2-0.5,0.4-1,0.7-1.4c3.9-5.6,8.3-10.7,13.7-15c3-2.4,6.1-4.6,9.2-6.9c2.4-1.7,4.8-3.3,7.1-5.1c2.2-1.8,4.6-3.3,7.2-4.5
		c1.6-0.8,3.3-1.3,5.2-1.2c-0.2-0.5-0.4-0.9-0.5-1.3c-1.4-3.9-2.8-7.7-4.2-11.6c-0.7-1.9-1.4-3.8-2-5.7c-0.9-2.7-1.9-5.2-4.1-7.1
		c-0.4-0.3-0.8-0.6-1.1-1c-1.2-1.5-2.7-2.7-4.4-3.7c-2.8-1.6-5.6-3.1-8.4-4.7c-0.1-0.1-0.2-0.1-0.3-0.2c-0.8-1.4-2.1-2.1-3.3-3
		c-2.6-1.9-5.3-3.8-7.9-5.8c-1.4-1.1-2.8-1.6-4.5-1.5c-2.4,0.1-4.9,0.4-7.3,0.5c-3.6,0.1-7.3,0.1-10.9,0c-2-0.1-4-0.5-5.9-1.4
		c-2.4-1.1-4.9-2.1-7.7-2c-1.3,0.1-2.6,0-3.8,0c-0.5,0-1.1-0.2-1.6-0.3c0-0.4,0-0.9,0-1.3c1.2,0.1,2.4,0.3,3.6,0.3
		c1.3,0.1,2.7-0.1,4,0.1c2.4,0.4,4.6,1.3,6.8,2.3c1.2,0.5,2.5,0.9,3.7,0.9c6.7,0,13.4-0.2,20.1-0.3c0,0,0.1-0.1,0.2-0.1
		c-0.1-0.2-0.2-0.4-0.4-0.6c-1-1.1-2-2.2-3.1-3.3c-3.9-4.1-8.4-7.5-12.9-11c-3.3-2.6-6.9-4.8-10.4-7.1c-1.5-1-2.8-2.2-3.9-3.7
		c-0.8-1-1.5-2.1-2.3-3.3c-0.9,1.3-1.7,2.6-2.6,3.8c-0.9,1.2-1.9,2.4-2.8,3.6C0,91,0,90.3,0,89.6z M75.4,28.3c0.7,1,1.6,1.9,2,2.9
		c0.4,1,0.4,2.1,0.6,3.2c0.1,0.6,0.2,1.3,0.1,1.9c0,0.3-0.3,0.6-0.4,0.8c-0.2-0.2-0.7-0.4-0.7-0.6c-0.1-0.8-0.1-1.5-0.2-2.3
		c-0.1-1.8-0.5-3.6-2.2-4.6c-0.4-0.2-0.6-0.3-1-0.1c-2.2,1.1-4.4,2.2-6.7,3.3c-3.2,1.5-6.4,2.8-9.5,4.3c-3.7,1.8-7.4,3.7-11,5.7
		c-3.9,2.2-7.7,4.5-11.3,7.2c-1.6,1.2-3.5,2.1-5.3,3.1c-2.9,1.6-5.9,3-8.6,5c-4.1,3.1-8.4,6.2-12.6,9.3c-1.8,1.3-2.8,3-3.7,4.9
		c-1.1,2.1-1.2,4.3-0.3,6.5c0.8,2,1.7,3.9,2.7,5.8c1.1,2,2.5,3.8,4.3,5.1c1.5,1,3,1.9,4.5,3c3.1,2.2,6.2,4.5,9.3,6.8
		c4.4,3.3,8.6,6.9,12.4,10.9c1.3,1.4,2.5,2.9,3.9,4c2.8,2.2,5.8,4.3,8.7,6.4c0.4,0.3,0.8,0.6,1.2,0.9c2,1.4,3.8,3,5.9,4.2
		c3.1,1.8,6.4,3.4,9,5.9c1.1,1.1,2.4,1.8,3.9,2.3c2.3,0.9,3.6,2.9,5.1,4.8c1.5,1.9,2.3,4.1,3,6.4c0.2,0.5,0.4,1,0.6,1.4
		c0.2-0.4,0.3-0.8,0.4-1.2c0.4-3.4,1.5-6.5,2.8-9.6c0.7-1.7,1.7-3.3,2.1-5.1c0.9-3.4,1.6-6.9,2.4-10.4c0.4-1.9,1.2-3.7,2.6-5.2
		c1-1.1,1.9-2.3,3-3.5c1.1-1.2,2.4-1.9,4.1-1.7c0.5,0.1,1.1,0.2,1.2-0.4c0-0.4-0.4-0.9-0.7-1.1c-0.8-0.4-1.7-0.7-2.6-0.9
		c-1.8-0.5-3.6-1-5.4-1.5c-0.5-0.1-1-0.4-1.3-0.7c-1.5-1.5-3.4-2.1-5.2-2.9c-0.5-0.2-1.2-0.4-1.8-0.4c-1.6,0-3-0.1-4.5-0.9
		c-2.8-1.4-5.4-2.9-8.1-4.5c-2.7-1.6-5.6-3-8.4-4.5c-2.4-1.3-5-2.6-7.3-4.1c-1.5-1-2.8-2.4-4.2-3.6c-2.1-1.8-4.3-3.4-6.5-5.2
		c-0.8-0.6-1.2-0.6-2.1,0c-1.8,1.2-3.6,2.6-5.6,3.4c-2.1,0.9-4.4,1.3-6.6,1.9c-0.2,0.1-0.4,0.1-0.6,0.2c-0.6,0.3-1.1,0.2-1.3-0.4
		c-0.2-0.6,0.4-0.8,0.9-0.9c2.1-0.5,4.3-0.8,6.3-1.6c3.4-1.4,6.2-3.6,8.3-6.7c1.2-1.8,2.4-3.5,4.2-4.8c1-0.7,1.9-1.5,2.8-2.3
		c1.2-1.1,2.5-2.1,3.7-3.2c0.9-0.8,2-1.4,3-2c1.1-0.7,2.2-1.2,3.4-1.6c2.4-0.6,4.5-1.8,6.4-3.2c2.9-2,6-3.6,9.2-5
		c2.1-0.9,4.1-2.1,6.3-3.2c-0.6-0.5-1-0.8-1.2-1.2c-0.1-0.2-0.1-0.5-0.1-0.8c0.3,0,0.6,0,0.8,0.1c0.3,0.1,0.4,0.4,0.6,0.6
		c0.6,0.7,1.3,0.9,2.2,0.8c3.3-0.4,6.6,0,9.8,0.9c3.3,0.9,6.6,1.2,10,1.1c1.8,0,3.6-0.1,5.4-0.5c2.1-0.4,4.2-1.2,6.4-1.8
		c1.2-0.3,2-1,2.6-2c0.4-0.6,1-1,1.6-1.4c0.5-0.3,0.6-0.6,0.4-1.1c-0.3-0.6-0.6-1.3-1-1.9c-0.6-1.1-0.5-1.9,0.6-2.6
		c0.6-0.4,1.2-0.7,1.9-1.1c-0.2,0-0.3-0.1-0.4-0.1c-3,0.3-6,0.8-8.1,3.3c-0.3,0.3-0.8,0.6-1.2,0.6c-1.5-0.2-3-0.5-4.5-0.8
		c-0.9-0.2-1.8-0.3-2.7-0.5c-0.3-0.1-0.5-0.2-0.7-0.3c0.2-0.2,0.4-0.6,0.7-0.6c0.5-0.1,1.1,0,1.6,0c-0.3-0.4-0.6-0.8-0.9-1.1
		c-1.1-0.9-2.1-2-3.3-2.6c-2.3-1.2-4.8-1.6-7.4-1.7c-0.3,0-0.5-0.3-0.8-0.5c0.3-0.1,0.6-0.4,0.8-0.3c2,0.3,4.1,0.5,6.1,1.1
		c2.3,0.7,4.3,2,5.8,4c0.6,0.8,1.5,1.4,2.3,1.8c0.8,0.4,1.8,0.5,2.7,0.7c0.4,0.1,0.8-0.1,1.1-0.4c0.7-0.5,1.3-1.1,1.9-1.6
		c0.4-0.3,0.6-0.6,0.2-1.1c-1-1.2-1.3-2.6-1.1-4.1c0.1-0.7-0.2-0.9-0.7-1c-1-0.2-1.7-0.7-2.2-1.6c-0.3-0.7-0.6-1.4-1-2.2
		c-2.9,0.5-4.2-3.1-3.3-5.9c-1.9-1.2-1.1-2.7-0.5-4.4c-2,0.5-3.8,0.9-5.7,1.4c2.2,1.9,3.6,4.2,4,6.9c0.4,2.2,1.2,4.2,2.6,6
		c0.5,0.6,1,1,1.4,1.6c0.1,0.2,0,0.6,0,0.9c-0.3-0.1-0.6-0.1-0.7-0.2c-0.5-0.6-1-1.2-1.5-1.8c-1.3-1.7-2.2-3.6-2.5-5.7
		c-0.4-2.5-1.3-4.6-3.2-6.3c-0.7-0.7-1.5-1.3-2.7-1.1c-2.7,0.4-5.3,0.8-7.8,1.6c-2.4,0.7-4.8,1.4-7.2,2.2
		C78.4,25.6,76.8,26.9,75.4,28.3z M68,74c0.3,1,0.6,1.8,0.8,2.5c0.7,2.2,1.5,4.4,2.2,6.6c1.1,3.2,3,6,4.8,8.8c1.5,2.2,3.2,4.3,5.2,6
		c1.3,1.1,2.5,2.2,3.9,3.1c2.1,1.4,4.5,2.5,6.6,4c3.3,2.3,6.8,2.5,10.5,1.1c3.4-1.2,6-3.6,8.4-6.1c2.1-2.2,4.3-4.3,6.8-6
		c3-2,5.6-4.5,7.3-7.7c0.9-1.6,1.5-3.3,2.3-5c0.8-1.8,1.5-3.6,0.7-5.7c-0.8-2.1-1.2-4.3-1.8-6.5c-0.6-2.1,0.3-3.1,2.5-3.3
		c0.7-0.1,1.3,0,2,0c0.3,0,0.7-0.2,1-0.4c1.2-0.7,1.1-1.9,0.9-3c-0.1-0.6-0.1-1.2-0.2-1.7c-0.1-0.3-0.2-0.7-0.4-0.8
		c-0.3-0.2-0.8-0.3-1.2-0.3c-2.1-0.4-3.6,1.3-5.6,1.3c0.3,0.5,0.5,0.8,0.6,1.1c0.1,0.5,0.2,1.2-0.1,1.4c-0.5,0.4-0.9-0.1-1.2-0.5
		c-0.2-0.2-0.2-0.4-0.3-0.7c-0.2-0.8-0.4-1.6-0.7-2.3c-1.3-2.5-2.6-5-4-7.4c-0.4-0.7-0.8-1.5-1.2-2.1c-0.2-0.3-0.6-0.7-0.8-0.7
		c-0.9,0.1-1.8,0.4-2.7,0.6c-0.9,0.3-1.8,0.7-2.7,1c-4,1.4-8.2,1.9-12.4,1.5c-1-0.1-2.2-0.3-3,0.1c-1.9,1-3.9,1.9-5.3,3.7
		c-0.6,0.8-1.2,1.5-1.9,2.2c-0.2,0.2-0.7,0.1-1,0.2c0-0.3-0.2-0.7-0.1-0.9c1.5-2.1,3.1-4,5.4-5.1c0.2-0.1,0.4-0.3,0.8-0.5
		c-1.2-0.3-2.3-0.6-3.3-0.8c-2.1-0.5-4.1-1-6.3-0.9c-2.5,0.1-4.9,0.5-7,2.1c-0.9,0.7-2,1.2-3.1,1.6c-3.5,1.4-6.8,3.1-9.9,5.4
		c-1.1,0.9-1.3,1.2-0.8,2.6c0.4,1.1,0.8,2.2,1.2,3.3c0.1,0.3,0.3,0.7,0.5,1c0.2-0.1,0.4-0.1,0.5-0.2c2.4-1.9,5.2-1.9,8-1.8
		c0.2,0,0.4,0.3,0.6,0.4c-0.2,0.2-0.4,0.5-0.6,0.5c-0.9,0.2-1.7,0.3-2.6,0.3c-1.8,0-3.4,0.4-4.8,1.7c-0.6,0.5-0.6,1-0.3,1.6
		c0.3,0.7,0.5,1.4,0.8,2.2c0.2,0.5,0.3,1,0.6,1.8c0.4-0.6,0.7-0.9,0.9-1.3c0.8-1.5,1.9-2.7,3.5-3.1c1.7-0.4,3.4-0.5,5.1-0.5
		c1,0,2,0.6,3,1c0.2,0.1,0.4,0.4,0.4,0.6c0,0.3-0.2,0.7-0.5,0.8c-1.6,1-3.4,1.8-4.9,2.8c-1.3,0.8-2.5,1.1-4,0.8
		C70.1,74.2,69.2,74.1,68,74z M128.7,80.6c-0.2,0.5-0.5,1-0.7,1.6c-0.2,0.4-0.3,0.8-0.5,1.1c-1.6,4.2-4.2,7.7-7.8,10.5
		c-2.2,1.7-4.5,3.4-6.6,5.3c-1.8,1.5-3.3,3.3-5,4.8c-2.2,2-4.8,3.4-7.7,4.1c-0.6,0.1-1.3,0.1-2.1,0.2c1,1.4,1.9,2.6,2.8,3.9
		c1.2,1.8,2.4,3.6,3.4,5.5c0.7,1.3,1.1,2.8,1.5,4.2c0.1,0.3,0,0.7-0.2,0.9c-0.2,0.2-0.6,0.2-0.8,0.1c-0.1,0-0.1-0.5-0.2-0.7
		c-0.3-0.9-0.5-1.8-0.9-2.6c-0.3-0.7-0.9-1.2-1.4-1.8c-0.3-0.4-0.4-0.8-0.6-1.2c-0.1,0-0.2,0-0.2,0.1c0,0.3-0.1,0.6,0,0.9
		c0,0.7,0.1,1.4,0.1,2.2c-0.1,3.4-0.2,6.8-0.3,10.2c0,1.5,0.3,2,1.9,2.3c2.2,0.4,4.4,0.4,6.6-0.2c2.2-0.5,4.3-1.2,6.5-1.8
		c2.2-0.5,3.8-1.8,5.3-3.4c2.6-3,5.2-6,7.8-8.9c0.8-0.9,1.6-1.7,2.4-2.6c0.7-0.9,1.4-1.9,2-2.8c0.6-0.8,1.1-1.6,1.7-2.5
		c-1.4,0.1-2.7,0.4-3.9,0.7c-2.2,0.5-4.6,0.8-6.6,2c-0.3,0.2-0.8,0.2-1.1,0.2c-0.2,0-0.5-0.4-0.5-0.6c0-0.2,0.3-0.4,0.5-0.6
		c0.4-0.2,0.8-0.3,1.1-0.4c1-0.4,2-0.8,3.1-1.1c2.7-0.7,5.5-0.9,8.1-2.2c0.1,0,0.2-0.1,0.2,0c0.6,0.2,0.8-0.2,1.1-0.6
		c1.3-1.6,2.6-3.3,3.9-5c0.3-0.4,0.5-0.8,0.7-1.3c-0.3-0.1-0.5-0.2-0.6-0.3c-4.6-1.9-8-5.1-10-9.7c-0.4-1-0.7-2.1-1-3.1
		C129.8,85.5,128.7,83.2,128.7,80.6z M79.2,99.6c-0.1-0.1-0.2-0.3-0.4-0.5c-0.5-0.4-1-0.8-1.4-1.3c-1.8-2-3.6-3.8-6-5.1
		c-0.9-0.5-1.7-1.1-2.5-1.8c-2.8-2.5-4.7-5.5-5.9-9.1c-0.7-2.1-1.5-4.1-2.3-6.1c-0.2-0.6-0.5-1.2-0.8-1.7c-1.3-3-2.8-6-4.6-8.7
		c-0.2-0.3-0.7-0.6-0.9-0.5c-0.7,0.2-1.5,0.5-2,1c-2,1.6-3.9,3.3-5.8,5c-1.6,1.4-3.1,3-4.7,4.4c-0.2,0.2-0.5,0.5-0.5,0.8
		c-0.2,0.6-0.6,1.3,0.1,1.8c0.6,0.5,1.3,1,1.9,1.6c2.7,2.3,5.4,4.5,8.2,6.7c1.1,0.9,2.2,1.7,3.4,2.4c3.1,1.6,6.2,3.1,9.3,4.7
		c0.8,0.4,1.7,0.9,2.5,1.4c2,1.2,3.9,2.4,5.9,3.6c0.2,0.1,0.5,0.2,0.7,0.3c0.9,0.4,1.7,0.8,2.6,1.1c0.8,0.3,1.6,0.6,2.4,0.8
		C78.8,100.6,79.2,100.4,79.2,99.6z M78.1,157.1c0.1,0,0.1,0,0.2,0c0-0.1,0.1-0.3,0.1-0.4c0.1-2,0.1-4,0.4-6c0.2-1.2-0.3-2.1-0.7-3
		c-0.5-1.1-1-2.1-1.3-3.2c-0.5-1.7-1.3-3.2-2.3-4.6c-0.5-0.7-1.1-1.5-1.7-2.2c-0.9-1-1.8-1.9-3.1-2.4c0.7,1.4,1.4,2.8,2,4.2
		c1.6,4.5,3.1,9,4.7,13.5C76.9,154.3,77.5,155.7,78.1,157.1z M119.8,27.3c0.9-1.1-0.2-3.7-1.9-4.2c-1.9-0.6-3.8-1.2-5.8-0.7
		c-1.5,0.4-3,0.2-4.5,1c1.1,1.1,1.9,2.3,1.8,3.8c1.8-0.2,3.6-0.3,5.3-0.6C116.6,26.3,118.3,26.4,119.8,27.3z M116.7,47.9
		c0.1,0.1,0.1,0.1,0.2,0.2c1.8-0.7,3.7-1.4,5.5-2.3c1.1-0.5,2.2-1.4,2.7-2.6c0.6-1.7,0.5-3.5,0.2-5.3c-0.3-1.9-1.6-3.1-3-4.2
		c-0.9-0.7-1.9-0.3-2.9-0.4c-0.5,0-0.8,0.2-0.9,0.7c-0.1,0.7-0.2,1.3-0.2,2c0,1.2,0.4,1.7,1.6,1.9c0.6,0.1,1.3,0.2,1.8,0.5
		c1,0.5,2,1.2,2.1,2.5c0.2,1.6,0.1,3.1-1.6,4c-1.3,0.7-2.7,1.3-4,2C117.6,47.1,117.2,47.5,116.7,47.9z M111.8,27.7
		c0,0.1-0.1,0.1-0.1,0.2c1.8,1.4,1.7,3.1,1.1,5c1,0,1.9,0.1,2.8,0c2.5-0.3,5.1-1.3,7.6,0.1c0.3-1.3-0.3-2.2-1.3-2.9
		c-0.5-0.4-1.3-0.7-1.6-1.3c-0.6-1-1.7-1.4-2.6-1.4C115.7,27.4,113.7,27.6,111.8,27.7z M133.7,62c-0.1,0-0.2,0-0.4,0.1
		c0,0.6,0,1.1,0,1.7c0,1.7-1.4,3.2-3.1,3.2c-0.7,0-1.4,0-2.1,0c-1.2,0.1-1.6,0.5-1.3,1.4c0.4,1.1,1,2.2,1.5,3.3
		c0,0.1,0.1,0.1,0.2,0.1c1,0,2.1,0.2,3-0.5c1.5-1.3,2.9-2.8,2.6-5.1c0-0.3,0-0.6,0-0.8C134.1,64.2,133.9,63.1,133.7,62z M73.5,28.1
		c0-0.6-0.2-1-0.1-1.4c0.5-1.6,1-3.2,1.6-4.8c0.2-0.5,0.4-1.1,0.7-1.6c1.4-1.5,2-3.7,4-4.8c0.5-0.3,0.5-1.4,0.1-1.8
		c-0.6-0.6-1.1-0.1-1.5,0.2c-0.2,0.1-0.3,0.3-0.4,0.5c-0.5,0.6-1,1.3-1.6,1.8c-1.5,1.4-2.5,3.2-3.2,5.1c-0.4,1.1-0.7,2.3-1,3.4
		c-0.2,0.6-0.3,1.3-0.5,1.9c-0.4,1,0.5,1.2,1,1.5C72.7,28.4,73.2,28.2,73.5,28.1z M107.3,22.4c0.9-0.2,1.6-0.5,2.4-0.6
		c1.1-0.2,2.3-0.2,3.4-0.4c0.3,0,0.7-0.3,0.7-0.5c0.2-1.2-0.6-2.5-1.7-3c-2.2-0.9-4.2,0.1-6.4,0.8C106.9,19.7,107.6,20.8,107.3,22.4
		z M117.5,33.6c-1.3,0.1-2.5,0.2-3.7,0.3c-0.9,0-1.1,0.3-1.3,1.1c-0.2,1.5,0.5,2.7,1.4,3.8c0.1,0.1,0.3,0.2,0.4,0.1
		c1.1-0.3,2.3-0.7,3.2-0.9C117.5,36.4,117.5,35,117.5,33.6z M121.3,39.2c-0.3,0.2-0.5,0.3-0.8,0.5c-0.8,0.5-1.6,0.9-2.4,1.4
		c-0.4,0.3-0.7,0.7-0.4,1.2c0.5,0.9,1,1.9,1.6,3c1-0.6,2-1.2,2.9-1.9c0.3-0.3,0.5-0.9,0.6-1.4C123.1,40.7,122.6,39.7,121.3,39.2z
		 M105,25.8c-0.1,0-0.1,0.1-0.2,0.1c0.3,0.8,0.5,1.6,0.9,2.3c0.2,0.3,0.6,0.5,1,0.6c0.9,0.1,1.7-0.7,1.8-1.8c0.1-1.2-0.5-2-1.3-2.7
		c-0.7-0.7-1.9-0.3-2.2,0.6C105,25.1,105,25.5,105,25.8z M112.2,30.6c0-1.3-0.6-2.1-2.2-2.3c-0.3,0-0.8,0.3-1,0.6
		c-0.4,0.9-0.1,1.8,0.4,2.6c0.5,0.7,1.1,1.3,1.9,1C112.1,32.4,112.2,31.5,112.2,30.6z M104.9,19.5c-0.3,0.8-0.7,1.6-0.8,2.4
		c0,0.4,0.4,1,0.7,1.1c0.4,0.1,1-0.2,1.3-0.5C106.9,21.6,106.4,20.3,104.9,19.5z M79,70.1c-1.3-1.3-2.7-0.7-4.3-0.9
		c0.7,0.8,1.5,1.4,0.9,2.6C76.8,71.2,77.8,70.7,79,70.1z M69.4,72.8c1,0.2,1.9,0.4,2.8,0.6c0-0.1,0.1-0.1,0.1-0.2
		c-1-0.7-0.9-1.7-0.7-2.7c-0.1,0-0.1-0.1-0.2-0.1C70.8,71.3,70.1,72,69.4,72.8z"/>
	<path class="st0" d="M91.9,65.4c-0.6,0-1-0.6-0.8-1.3c0.6-1.6,1.5-3,3-3.9c1.4-0.9,2.8-1.4,4.4-1.5c0.8,0,1.6-0.3,2.5-0.2
		c0.6,0,1.1,0.2,1.6,0.5c0.4,0.2,0.5,0.6,0.1,1c-0.2,0.2-0.3,0.3-0.5,0.4c-1.6,1.1-3.2,2.2-4.8,3.2C95.8,64.7,93.9,65.4,91.9,65.4z
		 M100.2,60.2c0-0.1-0.1-0.2-0.1-0.4c-0.9,0.1-1.8,0.2-2.7,0.3c0.3,0.5,0.5,0.9,0.8,1.4C98.9,61.1,99.6,60.7,100.2,60.2z M94.6,62.1
		c-0.6,0.5-1.2,1.2-1.9,1.8c0,0,0,0.1,0,0.1c0.8-0.3,1.7-0.5,2.5-0.7C95,62.8,94.7,62.3,94.6,62.1z"/>
	<path class="st0" d="M90.6,96c-1.5-0.1-2.8-0.4-4.1-1.2c-0.4-0.3-0.9-0.5-1.4-0.7c-0.5-0.2-0.6-0.6-0.2-0.9
		c1.3-1.2,2.6-2.3,3.9-3.4c1.6,0.2,2.3-1.4,3.6-1.6c2.2-0.4,4.3-0.7,6.5-1c0.8-0.1,1.7-0.4,2.5-0.4c0.3,0,0.8,0.1,1,0.3
		c0.2,0.2,0.1,0.7-0.1,1c-1.2,2.1-3,3.7-4.9,5.2c-1.6,1.2-3.3,2-5.2,2.6C91.7,95.9,91.1,95.9,90.6,96z M101.4,88.4
		c-0.1-0.1-0.1-0.1-0.2-0.2c-2.5,0.9-4.9,1.8-7.3,2.7c-2.4,0.9-4.8,2-7.3,3c1.2,1,2.5,1.3,3.9,1.5c0.6,0.1,1.2,0,1.7-0.2
		c2.2-0.6,4-1.8,5.8-3.1C99.3,91.1,100.4,89.8,101.4,88.4z M100.9,87.5c0-0.1,0-0.1,0-0.2c-0.9,0.2-1.8,0.3-2.7,0.5
		c-1.9,0.3-3.8,0.6-5.8,0.9c-0.4,0.1-0.8,0.4-1.1,0.6c-0.5,0.5-0.8,1-1.7,0.7c-0.1-0.1-0.4,0-0.5,0.1c-1.2,1-2.4,2-3.6,2.9
		c0,0,0.1,0.1,0.1,0.1C90.8,91.4,95.9,89.5,100.9,87.5z"/>
	<path class="st0" d="M82.4,70.1c0.1,0.3,0.4,0.5,0.4,0.7c0.4,3.6,0.5,7.2-0.5,10.7c-0.2,0.7-0.1,1.1,0.6,1.2
		c1.1,0.3,2.3,0.7,3.4,0.9c1,0.2,1.9-0.3,2.5-1.2c0.8-1.3,1.8-1.8,3.2-1.5c0.7,0.1,1.3-0.3,1.7-1.2C94,79,94,78.4,93.3,78
		c-0.5-0.3-1.1-0.5-1.6-0.7c-0.2-0.1-0.4-0.4-0.5-0.6c0.2-0.2,0.4-0.4,0.6-0.4c0.8-0.1,2.6,0.9,2.9,1.6c0.4,1,0.2,1.9-0.4,2.8
		c-0.7,1-1.5,1.4-2.6,1.2c-0.9-0.1-1.5,0.2-2,1c-0.9,1.5-2.4,2-4.6,1.4c-1-0.2-1.9-0.6-2.9-1c-0.7-0.3-1.1-1-0.9-1.8
		c0.6-2.7,1.1-5.5,0.9-8.3c0-0.7-0.1-1.4-0.3-2.1C81.7,70.6,81.8,70.3,82.4,70.1z"/>
</g>
</svg>
