<?xml version="1.0" encoding="utf-8"?>
<!-- Generator: Adobe Illustrator 19.2.1, SVG Export Plug-In . SVG Version: 6.00 Build 0)  -->
<svg version="1.1" id="Layer_1" xmlns="http://www.w3.org/2000/svg" xmlns:xlink="http://www.w3.org/1999/xlink" x="0px" y="0px"
	 viewBox="0 0 150.8 150" style="enable-background:new 0 0 150.8 150;" xml:space="preserve">
<style type="text/css">
	.st0{fill:#BF360C;}
</style>
<g id="icon-child-coldsore">
	<path class="st0" d="M64,0c-0.1,0.5,0,1.1-0.2,1.5c-1.6,2.9-4.1,5-6.4,7.3c-1.5,1.5-3,3.1-4.2,4.8c-2.2,3-4.7,5.7-7.5,8.2
		c-1.8,1.6-2.6,3.9-3.5,6c-0.2,0.4-0.2,0.9-0.1,1.3c0.3,1.4,0.5,2.9,1.1,4.1c0.8,1.7,2.3,2.7,4.2,3.3c0.2,0.1,0.5,0.1,0.7,0.2
		c2.3,1.1,4.7,2.2,7,3.4c1.1,0.6,2.2,1.2,3.6,1.2c1.2-0.1,2.4-0.1,3.5-0.8c0.3-0.2,0.6-0.3,1-0.4c0.7-0.2,1.5,0,1.7,0.7
		c0.1,0.4-0.1,1.3-0.5,1.5c-1.3,0.9-2.6,1.6-4,2.3c-1.3,0.7-1.3,0.7-0.9,2.2c0.8,3.5,0.5,7-0.5,10.4c-0.1,0.2-0.2,0.5-0.2,0.7
		c0,0.1,0,0.1,0.1,0.4c1.7-0.3,2.6,1.1,3.7,2.1c1.3,1.1,2.8,2,4.6,2.2c1.2,0.1,2.2,0.6,3,1.7c0.5,0.6,1.3,1,2,1.5
		c1.5,1.1,2.9,2.4,4.5,3.4c4.1,2.5,8.2,4.9,12.3,7.4c1,0.6,1.2,1.3,0.4,2.2c-0.6,0.8-1.2,1.6-1.9,2.4c-1.8,2.2-4.1,3.6-6.6,4.8
		c-3.3,1.6-6.8,2.9-10.3,4.4c0-0.1,0-0.1,0,0c2,1.7,2.5,4,2.7,6.5c0.2,2.9-0.4,5.7-0.9,8.6c-1.1,5.5,0.6,10,4.4,14
		c2.2,2.3,5,3.2,8.2,3.4c3.8,0.3,7.3-0.9,10.7-2.2c3.8-1.4,7.2-3.7,11.2-4.6c2.4-0.6,4.9-1,7.2-1.9c4.7-1.7,9.4-2.8,14.4-2.5
		c1.6,0.1,3.3,0.5,4.6,1.3c1,0.6,1.6,2,2.3,3.1c1,1.5,1.7,3.2,2.8,4.6c2.6,3.3,4.5,7,6.2,10.8c0.6,1.5,0.8,3.2,0.7,4.8
		c0,0.8-0.8,1.8-1.5,2.4c-1.2,1-2.6,1.9-4,2.5c-3,1.4-6,2.6-9,3.9c-3.9,1.6-7.8,3.2-11.7,4.6c-0.9,0.3-2.1,0.2-3.1,0.2
		c-1.1,0-2.2,0-3.4-0.2c1.5-0.6,2.9-1.3,4.4-1.9c7.3-3.1,14.6-6.1,21.9-9.2c1.2-0.5,2.2-1.5,3.3-2.4c0.2-0.1,0.3-0.4,0.3-0.6
		c0-1.8-0.1-3.6-0.9-5.3c-1.6-3.3-3.5-6.4-5.8-9.4c-0.6-0.8-1.2-1.7-1.7-2.5c-1.4-2.3-3.5-3.8-6.1-4.3c-2.1-0.4-4.3-0.2-6.4,0.7
		c-0.9,0.4-1.9,0.6-2.9,0.8c-3,0.8-6,1.6-8.9,2.4c-0.9,0.3-1.8,0.7-2.7,1.1c-5,2.2-10.1,4.3-15.4,5.7c-3.8,1-7.6,0.8-11.4,0.3
		c-0.2,0-0.4,0-0.5-0.1c-2-1.2-4.2-1.9-5.8-3.7c-4.2-4.6-5.3-10-4.6-16c0.2-1.6,0.9-3.1,1.2-4.7c0.2-0.8,0.2-1.7,0.1-2.6
		c-0.2-2.1-0.5-4.1-2.4-5.4c-0.3-0.2-0.7-0.4-1-0.5c-1.3-0.3-2.6-0.4-3.9-0.7c-0.9-0.2-1.3,0.2-1.6,0.9c-0.4,0.9-0.9,1.7-1.4,2.5
		c0,0.1-0.1,0.1-0.1,0.2c-0.5,2.9-2.6,5.1-3.1,8.1c-0.5,2.9-1.9,5.6-3,8.4c-1.6,4.3-3.3,8.5-4.9,12.8c-1.5,4.2-2.9,8.4-4.4,12.6
		c-0.1,0.4-0.4,0.8-0.5,1.2c-0.3,1.3-0.8,2.5,0.4,3.8c1.3,1.3,2.3,2.8,3.4,4.3c0.8,1.1,1.6,2.3,2.3,3.5c-0.1,0.1-0.1,0.2-0.2,0.3
		c-1.2,0-2.4,0-3.5,0c-0.7,0-1.5,0-2.2,0c-1.9,0-1.9,0-2-1.9c-0.2-2.3-0.4-4.6-0.7-6.9c-0.3-2.7,0.3-5.2,1.2-7.6
		c0.4-1.4,1.1-2.7,1.6-4c2.4-6,4.7-11.9,7.1-17.9c0.6-1.7,1.2-3.4,1.6-5.1c0.9-3.7,2.8-7,4.2-10.5c0.8-2,1.7-3.9,2.3-6
		c0.3-1,0.2-2.2,0.3-3.7c-0.4,0.3-0.6,0.4-0.7,0.5c-1.4,1.9-3.4,3.1-5.4,4.2c-1.4,0.8-2.9,0.6-4.3,0.4c-0.7-0.1-1,0.1-1.3,0.7
		c-2.1,4.3-4.3,8.6-6.4,12.9c-0.2,0.4-0.1,0.9,0,1.4c0.4,1.5,1,2.9,1.4,4.4c0.6,2.5,0,4.9-0.7,7.3c-1.8,6.5-4.5,12.7-7.2,18.8
		c-0.2,0.5-0.5,1.1-0.9,1.4c-0.4,0.3-1.3,0.6-1.5,0.4c-0.4-0.3-0.6-1.1-0.5-1.6c0.3-1.1,0.7-2.1,1.2-3.1c2.5-4.6,4.4-9.4,5.6-14.5
		c0.3-1.2,0.7-2.3,1.1-3.5c0.5-1.5,0.3-2.9-0.1-4.6c-0.5,0.4-0.8,0.7-1.1,1c-2.5,2.5-5.5,3.6-9,3.1c-0.6-0.1-1,0-1.3,0.6
		c-1.5,3-3,5.9-4.6,8.9c-0.5,1-1,1.9-1.5,2.9c-0.8,1.6-1.7,3.2-2.5,4.8c-1.1,2.2-2.3,4.3-3.5,6.5c-1,1.8-2.1,3.6-3,5.4
		c-0.6,1.1-0.9,2.4-1.3,3.6c-0.6,1.9-0.8,2-3,1.5c0.8-1.6,0.8-3.4,1.7-5.1c1.3-2.3,2.7-4.6,3.2-7.4c0.3-1.6,1.1-3.2,1.6-4.8
		c0.5-1.5,0.8-3,0.2-4.6c-0.4-1.1-0.3-2.3-0.4-3.5c-0.1-1.4-0.1-2.8-0.5-4.2c-0.6-2.3-0.1-4.7-0.3-7c-0.4-4.7-1.1-9.3-1.6-14
		c-0.1-1.1,0-2.3-0.2-3.4c-0.1-1-0.5-1.9-0.8-2.9c-0.1,0-0.2,0-0.3,0c0,0.6-0.1,1.2,0,1.8c0.6,4-0.8,7.2-3.9,9.8
		c-0.3,0.3-0.6,0.7-0.9,1c-0.3,0.3-0.7,0.7-1,0.7c-1.1,0-1.3,0.6-1.3,1.5c-0.2,7-0.5,14-0.8,20.9c0,0.8,0.1,1.7,0.1,2.5
		c-0.1,2.7-0.3,5.4-0.4,8.1c0,0.3,0.1,0.7,0.2,1c0.9,2.7,1.9,5.4,2.8,8c0.2,0.5,0.3,0.9,0.4,1.5c-0.8,0-1.4,0-2.1,0
		c-0.2,0-0.4-0.1-0.5-0.3c-0.6-1.1-1.2-2.2-1.7-3.3c-0.9-1.8-1.8-3.6-2.5-5.5c-0.3-0.9-0.3-1.9-0.1-2.9c0.3-2,0.7-3.9,1.1-5.9
		c0.1-0.7,0.3-1.5,0.3-2.2c0-2.1-0.2-4.2-0.2-6.3c-0.1-2.7-0.3-5.4,0.4-8.1c0.4-1.5,0.3-3.1,0.3-4.7c0-1.7-0.2-3.4-0.1-5
		c0-1.1,0.5-2.2,0.6-3.4c0.2-1.7,0.3-3.3,0.3-5c-0.1-1.6,0.2-3,0.6-4.5c0.4-1.2,0.6-2.4,0.9-3.6c0.8-2.9,2.7-3.4,5.3-2.1
		c2.5,1.2,3.9,3.4,4.8,5.9c0.9,2.4,1.4,4.8,1.5,7.4c0.2,4,0.6,7.9,0.9,11.9c0.1,1.6,0,3.3,0.2,4.9c0.2,2.3,0.6,4.6,0.9,7
		c0,0.3,0.1,0.6,0.2,0.8c0.5,0.6,0.6,1.1,0.4,1.8c-0.1,0.3,0.2,0.7,0.3,1.1c0.3-0.2,0.7-0.4,0.9-0.7c1.6-3.2,3.1-6.4,4.8-9.6
		c1.9-3.6,3.8-7.3,5.9-10.8c0.7-1.2,1.9-2.2,2.9-3.2c0.3-0.3,0.6-0.4,0.9-0.7c0.5-0.5,0.8-0.7,1.6-0.4c1,0.4,2.1,0.3,3.2,0.3
		c0.2,0,0.5-0.3,0.6-0.6c1.5-3.1,2.9-6.3,4.5-9.4c1.2-2.4,2.7-4.6,4-6.9c0.8-1.3,1.4-2.7,2.2-4c0.8-1.4,1.9-2.6,3.4-3.4
		c0.2-0.1,0.4-0.2,0.5-0.1c1.8,0.5,4-0.2,5.4,2c1.6-3,4.4-3.8,7.2-4.6c-1.2-0.6-2.1-1.9-3.7-1.7c-0.5,0.1-1.1-0.3-1.7-0.5
		c-0.7-0.2-1.4-0.5-2-0.8c-0.4-0.2-0.8-0.7-1.2-0.9c-0.6-0.4-1.3-0.8-2-1c-1.5-0.5-2.2-1.8-2.8-3.1c-0.5-1.2-0.7-2.3-0.4-3.7
		c0.3-1.2,0.3-2.5,0.5-3.7c0.1-0.5,0.3-0.9,0.6-1.3c2.6-3.9,3-8.2,2.1-12.7c-0.3-1.5-1.4-2.3-2.6-2.9c-2.3-1.1-4.8-2.1-7-3.3
		c-2-1.1-4.1-2.4-5.7-4c-2.3-2.5-3.6-5.5-2.8-9.1c0.7-3.3,2.4-5.9,5-8c2.4-2,5-3.9,7.2-6.1c2.3-2.2,4.2-4.8,6.3-7.2
		c1.1-1.4,2.2-2.8,3.2-4.2C60,0.8,60.2,0.4,60.4,0C61.6,0,62.8,0,64,0z M81.5,76.7c0.1-0.1,0.2-0.3,0.3-0.4
		c-0.2-0.1-0.3-0.1-0.5-0.2c-2-1.6-4.1-3.3-6.1-4.9c-2-1.7-3.9-3.3-6.4-4.4c-1.8-0.8-3.7-1.6-5.3-2.7c-1.8-1.2-3.7-1.5-5.7-2
		c-0.7-0.2-1.1,0-1.2,0.7c-0.2,1.2-0.3,2.5-0.3,3.8c0,0.2,0.2,0.5,0.4,0.7c0.8,0.6,1.7,1.2,2.5,1.6c1,0.5,2,1,3,1.4
		c1.2,0.6,2.4,1.1,3.9,1.1c1.9,0,3.9,0.3,5.7,1.3c1.2,0.7,2.6,0.9,4,1.4c0.8,0.3,1.5,0.6,2.3,1C79.2,75.6,80.4,76.2,81.5,76.7z
		 M84.6,80c-0.5-0.1-1-0.1-1.4-0.1c-2.4-0.2-4.8-0.6-7.3-0.7c-2.4-0.1-4.9,0.1-7.4,0c-2.2-0.1-4.1,0.6-5.8,2.1
		c-0.2,0.2-0.4,0.7-0.4,1c0,1.3,0,2.6,0.1,3.9c0.1,1.1,1.8,2.3,2.9,2c1-0.3,2-0.5,2.9-0.7c0.6-0.1,1.2-0.3,1.9-0.4
		c0-0.1,0-0.3,0.1-0.4c-0.7-0.3-1.4-0.7-2.1-1c-0.8-0.4-1.5-1-1.6-1.9c-0.1-1,0.5-1.8,1.3-2.4c1.2-0.8,2.4-0.8,3.7-0.7
		c1.6,0.2,2.2,0.7,2.2,2.3c0,1.1-0.2,2.2-0.3,3.3C75.8,86.4,83.5,82.1,84.6,80z M29.7,113.2c3.5,0.9,7.1-1.2,8.9-4.2
		c0.4-0.7,0.4-1.4,0-2c-1.3-1.8-2.8-2.5-4.5-0.6c-1.1,1.2-1.9,2.8-2.8,4.2C30.8,111.5,30.3,112.3,29.7,113.2z M49.3,89.1
		c0.1,0.1,0.2,0.2,0.3,0.4c4.1,0.2,6.7-2.1,8.4-5.4c-0.9-0.7-1.6-1.3-2.4-1.9c-1.2-0.8-2.2-0.5-2.7,0.9c-0.7,1.7-1.4,3.4-2.8,4.8
		C49.7,88.1,49.5,88.7,49.3,89.1z M5.1,103.5c2-0.7,3.1-2.1,3.2-4.2c0.1-1,0.2-2,0.2-2.9c0.1-1.8,0.2-3.6,0.2-5.5
		c0-0.4-0.4-0.9-0.7-1c-1.1-0.3-1.7,0.1-1.9,1.2c-0.1,0.8-0.2,1.5-0.1,2.3C6.2,96.8,5.8,100.1,5.1,103.5z"/>
</g>
</svg>
