<?xml version="1.0" encoding="utf-8"?>
<!-- Generator: Adobe Illustrator 19.2.1, SVG Export Plug-In . SVG Version: 6.00 Build 0)  -->
<svg version="1.1" id="Layer_1" xmlns="http://www.w3.org/2000/svg" xmlns:xlink="http://www.w3.org/1999/xlink" x="0px" y="0px"
	 viewBox="0 0 133.5 176.9" style="enable-background:new 0 0 133.5 176.9;" xml:space="preserve">
<style type="text/css">
	.st0{fill:#7B1FA2;}
</style>
<g id="icon-child-diarrhea">
	<path class="st0" d="M4.3,98.6c0.9,10.6,2.1,21.5,9.8,30.1c0.6,0.7,0.8,2.1,0.7,3.1c-0.5,4-1.2,8-1.7,12c-0.3,2.6-1,5.3-0.5,7.8
		c1.8,8.9,4.2,17.5,8.4,25.3h2.5c-3.1-4.5-5.3-10.4-4.8-14.8c3.8,1.8,7.5,3.4,11.2,5.2c0.3-0.1,0.6-0.1,0.8,0.1c0,0,0,0.1,0.1,0.1
		c0.4-0.4,1.2-0.3,1.2,0.4c0,0,0,0.1,0,0.1c0.2,0.1,0.3,0.2,0.3,0.5c0.1,0,0.3,0.1,0.4,0.1c0.1,0,0.2,0,0.3,0c0.4,0,0.7,0.3,0.7,0.7
		c0,0.8-0.2,1.7-0.4,2.5c0,0,0,0.1,0,0.1c0,0.3,0,0.7,0,1c0,0.1,0,0.1,0,0.2c0,0,0,0,0,0c0,1.1-0.1,2.2-0.1,3.3
		c0.1,0.1,0.2,0.3,0.2,0.4v0.1h2.2c0.4-4.1,0.7-8.3,1-12.4c0.3-4.4-0.4-8.9-0.6-13.4c-0.5,0-1,0-1.6,0c-0.4,1.3-0.9,2.7-1.3,4
		c-15-9.3-19.9-24.4-11.9-39.6c5.3,3.9,10.7,7,15,11.2c6.1,6,12.6,11,21,13.1c3.7,1,6.8-0.2,9.7-3c4.8,3.7,2.5,9.1,2.8,13.7
		c0.1,2.3-1.4,5-2.7,7.2c-2.9,4.5-3.7,9.3-3.6,14.6c0,1.5,0,3,0,4.6H66c0-1.2,0.1-2.3,0.3-3.4c0.2-1,2.7-2.2,4.2-2.4
		c7.5-0.7,15.1-1,22.6-1.4c1.2-0.1,2.5,0,3.7-0.2c0.2,0,0.4-0.1,0.6-0.1c0.4-0.2,0.9-0.2,1.3-0.1c2.2-0.1,2.2,0.9,1.6,4.1l0,0
		c0.1,0.3,0.2,0.6,0.1,0.9c-0.1,0.9-0.2,1.7-0.3,2.6h2.4c0.4-1.6,1-3.2,1.8-4.8c1.9-3.9,1.5-7.2-2.8-9.8c-2.9-1.7-5.3-4.3-7.6-6.8
		c-4.6-5-11.4-4.9-17-7.3c-4.7-2-6-9.3-2.1-12.4c5.5-4.2,11.2-8,16.5-11.7c3.5,4.4,6.7,7.9,9.2,11.7c2.5,3.8,5.8,3.9,9.4,2.8
		c3.4-1.1,6.6-2.7,10.3-4.3c7.8,7.7,10.3,17.8,9.8,28.3c-0.2,4.8-0.7,9.6-1.2,14.3h4.4c0.4-6.3,0.4-12.6,0-19
		c-0.5-9.5-3.4-18-10.1-25.1c-1-1.1-1.1-3.5-1.1-5.2c0.1-2.5,1.1-5,1.3-7.6c0.3-3.7-0.2-7.5,0.3-11.2c1.2-8.2,4.6-15.9,4.8-24.4
		c0.3-11.6-1.5-21.6-13.7-27.1c1.7,9.1-1.2,16.4-7.6,22.6c-1.3,1.2-2.3,2.8-3.6,4c-2.6,2.2-2.4,4.4-1.2,7.3c3.9,8.9,7.5,18,11.3,27
		c0.3,0.7,1.3,1.2,1.9,1.8c0.5-0.7,1.3-1.5,1.3-2.2c-0.2-2.5-0.8-4.9-1.3-7.6h6.2c0,5.2,1,10.4-0.2,15.1c-2.1,7.8-9.1,9.8-16.2,10.4
		c-1.6,0.1-4.2-0.8-4.9-2.1c-2.5-4.2-4.9-8.6-6.2-13.2c-2.6-9.5-5.6-19-4.7-29.2c0.4-5,1.7-9.2,6.4-11.5c7.3-3.6,11-9.9,12.4-17.6
		c0.4-2.4,1.2-4.1,3.8-4.8c2.6-0.8,2.9-2.5,1.6-4.8c-0.4-0.8-0.5-1.9-0.3-2.8c0.7-3.4,1.9-6.8,2.2-10.3c1-9.8-0.6-19.1-5.9-27.6
		c-3.4-5.4-8.1-8.3-14.2-10.4c-5.7-2-11.2-1.7-16.3-0.6C69.1,2.9,61.9,11.5,62,22.3c0,2.2-1.1,4.5-1.9,6.7c-0.2,0.5-1.5,1.2-1.9,1
		c-5.5-2.4-10.7,0.2-16,0.4c-3.3,0.1-5.4,1.3-7.3,3.2c-4.8,4.7-10.6,5.4-16.9,5.8C12,39.8,6.3,41,0,41.9c1.1,5.2,2.6,9.7,2.8,14.2
		C3.5,70.2,3.1,84.5,4.3,98.6z M14.6,123c-4.4-4.8-6.1-11-6.7-17C6.5,92.1,6.1,78.2,5.3,64.3c0-0.6,0-1.3,0-2
		C5,62.2,4.8,62,4.8,61.7v-3.7c-0.1-0.4-0.2-0.9-0.3-1.3c0-0.2,0.1-0.4,0.3-0.5c0-0.4,0.3-0.6,0.7-0.7c0.1-0.1,0.2-0.2,0.3-0.2
		c0.1,0,0.1,0,0.2,0h0.3c0.3,0,0.4,0.1,0.5,0.3c0.1,0.1,0.3,0.1,0.4,0.2c1.1-0.4,2.8-0.3,5.6,0.1c0,0.6,0.2,1.4,0,1.9
		c-9.1,19.4-6,38.5,2.2,57.2C16.3,117.8,16.4,120.3,14.6,123z M31.7,159.9c0.7,0.4,1.3,1.5,1.5,2.4c0,0.1,0.1,0.2,0.1,0.3
		c0,0.1,0,0.1,0,0.2c0,0.1,0,0.1-0.1,0.2c0,0.1,0,0.1,0,0.2c0.1,0.2,0,0.4-0.1,0.6c-0.1,0.3-0.3,0.6-0.6,0.7c-0.4,0.2-0.7,0-1.1-0.1
		c0,0-0.1,0-0.1,0c-5.3,0.8-14.7-5.9-16.2-12.5c2.8,1.3,4.8,2.3,6.8,3.2C25.1,156.6,28.5,158.1,31.7,159.9z M18.7,144.4
		c2,1.9,3.8,4.1,5.6,6.1c-0.4,0.5-0.8,1-1.1,1.5c-2.7-1.5-5.4-3-7.9-4.7c-0.4-0.3-0.1-2.3,0.5-2.9C16.4,143.9,18.2,143.9,18.7,144.4
		z M99.8,164.3c-4.3,3-24.5,4.8-33.3,3.6c-0.7-3.2,0.3-4.7,3.8-4.9c7.8-0.4,15.6-1.3,23.4-1.6C95.6,161.4,97.5,163.1,99.8,164.3z
		 M89.5,158.5c-6.3,0.3-12.6,0.6-19.3,0.9C72.3,155.1,84.6,154.3,89.5,158.5z M71,44.3c1.3-0.4,2.4-1.7,3.6-2.5
		c1.9-1.3,3.9-2.4,6-3.8c5.6,0.4,10.8,1,15.9,1.1c1.4,0,3.1-1.5,4.2-2.7c2.7-2.8,5.9-2.5,8.5-0.7c2.3,1.5,3.2,3.9,2.8,7.4
		c-0.9,8.4-4.9,15.7-6.9,23.7c-1.8,7-7.6,9.9-13.5,12.1c-1.6,0.6-4.7-0.4-5.9-1.8c-7.4-8.2-13.2-17.5-17-28
		C67.9,46.6,68.4,45.1,71,44.3z M69.4,94.1c1-2.1,2-4.2,3-6.3c1.7-3.4,0.6-6.5-1.3-9.4c-1.2-1.8-2.5-3.8-4.2-5.1
		c-7.2-6-3.9-13.7-3.3-20.8c0.2-2.4,2.2-2.7,3.8-0.7c0.9,1.1,1.8,2.3,2.1,3.5c1.6,8.5,7.8,14.2,12.4,20.9c1.4,2,3,4.7,2.9,6.9
		c-0.3,5.3-1.1,10.7-2.6,15.8c-1.7,5.6-4,11.2-6.6,16.5c-2.3,4.8-5.3,9.3-8.2,13.8c-1.6,2.5-3.4,4.9-5.3,7.7
		c-2.5-0.3-5.1-0.4-7.7-0.9c-1.7-0.4-3.4-1.1-4.8-2c-4.8-3.4-9.5-7.1-14.3-10.5c-3.1-2.2-4.2-8-2-11.1c3.2-4.5,12.5-8.2,17.7-6.9
		c2.2,0.6,3.1,1.7,1.2,3.8c-2.2,2.5-4.3,5.1-6.3,7.9C54,109.7,64.3,104.5,69.4,94.1z M51.7,79.4l1.4-0.6c1,2.5,2.4,4.8,2.9,7.4
		c1,5.4,1.5,10.9,2.1,16.3c0.1,0.6-0.7,1.4-1.1,2c-0.6-0.8-1.6-1.5-1.7-2.4c-0.6-4.6-0.7-9.3-1.4-14C53.4,85.3,52.4,82.3,51.7,79.4z
		 M39.5,34.2c5.6-2.2,11.1-1.5,16.7-0.8c1,0.1,2.3,1.5,2.5,2.6c0.6,2.8,0.7,5.7,0.8,8.5c0,0.6-0.8,1.6-1.5,1.9c-3,1.3-6.1,2.3-9,3.7
		c-5.5,2.9-12.1,5-16.1,9.4c-3.7,4-5,10.4-6.5,16c-2.5,9-4.3,18.2-6.3,27.3c-0.4,1.7-0.2,3.6-0.5,5.4c-0.2,1.3-0.7,2.5-1,3.7
		c-0.6,0-1.2,0.1-1.8,0.1c-1.7-7-3.8-14-5-21.1c-0.8-5.4-0.4-11-0.5-16.6c-0.1-5.7,1.5-10.8,5-15.4c2-2.6,3-5.9,4.8-8.6
		C25.7,43.2,31.4,37.4,39.5,34.2z M3.6,43.6h1.5c0.8-0.3,1.4-0.2,2.3-0.3c0.4,0,0.8,0,1.2-0.1c0.1,0,0.2-0.1,0.4-0.1
		c0.1,0,0.1,0,0.2-0.1c0.1,0,0.1,0,0.2,0c0.1-0.2,0.2-0.3,0.3-0.4c0.5-0.2,0.9-0.1,1.4,0c1.7-0.3,3.4-0.4,5.1-0.4c0,0,0.1,0,0.1,0v0
		l0,0c0.8-0.1,1.6-0.2,2.4-0.2c0.6-0.1,1.1-0.2,1.7-0.3c0,0,0,0,0,0l0,0c0.1,0,0.1,0,0.2,0c0.3,0,0.5,0.1,0.6,0.3
		c0.2-0.2,0.4-0.4,0.7-0.6c0.7-0.7,1.7,0.3,1.1,1.1c-0.9,1.1-1.8,2.2-2.5,3.5c-0.1,0.1-0.2,0.3-0.2,0.4c-0.1,0.2-0.2,0.4-0.3,0.5
		c0,0.1-0.1,0.1-0.2,0.2c0,0,0,0,0,0c0,0,0,0.1,0,0.1c0.1,0.2,0,0.5-0.2,0.7c-0.1,0.1-0.2,0.2-0.3,0.3c-0.2,0.3-0.4,0.5-0.6,0.8
		c-0.2,0.3-0.4,0.6-0.6,0.9c0.2,0.2,0.2,0.5,0,0.8c-1,1.5-2.1,2.7-3.8,3c-0.2,0.3-0.5,0.4-0.8,0.3c-0.7-0.2-1.3-0.4-1.9-0.8H7.1
		c-0.2,0-0.3,0-0.4-0.1c-0.4,0-0.8,0.1-1.2,0.1c-0.4,0-0.6-0.2-0.6-0.5c0,0-0.1,0-0.1,0c-0.4,0-0.8-0.3-0.8-0.8V51
		c-0.1-0.6-0.2-1.2-0.3-1.9c0,0,0,0,0,0C3.3,48.6,3.1,48,3,47.5c0-0.1,0-0.2,0-0.3c-0.1-0.7-0.2-1.3-0.2-2.1c0-0.1,0-0.3,0.1-0.4
		C2.7,44.3,3,43.6,3.6,43.6z"/>
</g>
</svg>
