<?xml version="1.0" encoding="utf-8"?>
<!-- Generator: Adobe Illustrator 19.2.1, SVG Export Plug-In . SVG Version: 6.00 Build 0)  -->
<svg version="1.1" id="Layer_1" xmlns="http://www.w3.org/2000/svg" xmlns:xlink="http://www.w3.org/1999/xlink" x="0px" y="0px"
	 viewBox="0 0 132.1 164.9" style="enable-background:new 0 0 132.1 164.9;" xml:space="preserve">
<style type="text/css">
	.st0{fill:#1976D2;}
</style>
<g id="icon-child-bites">
	<path class="st0" d="M1.5,164.9c-0.2-0.7-0.3-1.4-0.2-2.1c0.1-0.6,0.1-1.2,0-1.8c-0.2-2.7,0.4-5.2,1.1-7.7c0.8-2.9,1.5-5.7,2.3-8.6
		c0.4-1.5,1.1-3,1.7-4.4c0.9-2.2,1.7-4.5,2.8-6.6c1-1.9,2.3-3.7,3.4-5.5c1.8-2.9,3.3-6,4.1-9.3c0.6-2.7,1.6-5.4,2.4-8.1
		c0.1-0.2,0.2-0.4,0.3-0.7c1.4,1,2.7,2,4,3c0.6,0.5,1.3,0.9,1.9,1.4c0.8,0.7,1.5,1.4,2.2,2.1c0.5,0.5,1.1,1.1,1.5,1.7
		c0.2,0.3,0.3,0.7,0.2,1c-0.8,3.5-1.6,6.9-2.6,10.4c-0.4,1.3-0.4,2.6-0.7,3.9c-0.2,1.4-0.5,2.8-0.7,4.2c-0.2,1.5-0.4,3-0.6,4.6
		c-0.2,1.6-0.4,3.2-0.6,4.8c-0.1,0.4-0.3,0.6-0.8,0.6c-1.2,0.1-2.4,0.3-3.7,0.4c-0.4,0-0.8,0.1-1.2,0.1c-1.3-0.1-2.6,0.2-3.8,0.7
		c-1.3,0.6-2.6,1.1-3.9,1.6c-0.5,0.2-0.7,0.5-0.5,1c0.2,0.5,0.7,0.4,1.1,0.2c1.5-0.6,2.9-1.3,4.4-1.8c0.5-0.2,1.1-0.2,1.7-0.3
		c1.9-0.2,3.8-0.4,5.7-0.6c0.2,0,0.5,0,0.7,0c1.5-0.1,2.9-0.2,4.4-0.3c0.3,0.1,0.6,0.2,1,0.2c2-0.1,4-0.3,6.1-0.6
		c1.5,0,3-0.1,4.4-0.2c1.7-0.2,3.4-0.6,5.1-1c2.5-0.5,5-1.1,7.6-1.5c1-0.2,2.1-0.1,3.1-0.2c1.2-0.1,1.1,0,1.7,1c0.7,1,0.3,1.7,0,2.7
		c-0.5,1.2-0.5,2.6,0.1,3.8c0.3,0.6,0.6,1.2,0.9,1.8c0.3,0.5,0.2,0.6-0.4,0.8c-1.3,0.4-2.6,0.9-3.8,1.3c-1,0.3-2,0.6-2.9,1.1
		c-0.3,0.1-0.6,0.3-0.8,0.4c-0.1,0.1-0.3,0.1-0.4,0.2c-2.5,1-4.9,2-7.3,3c-1.4,0.5-2.9,1-4.3,1.5c-1.4,0.5-2.8,1-4.2,1.5
		c12.2-0.3,24.5-0.6,36.7-1c9.5-0.3,19-0.7,28.4-1.2c0.4-1.4,0.8-2.9,1.2-4.3c0.5-1.7,0.8-3.5,1.3-5.2c0.4-1.4,0.9-2.9,1.5-4.3
		c0.6-1.2,1.4-2.4,2.1-3.6c0.9-1.5,1.6-3.1,2.5-4.6c0.8-1.4,1.4-3,2.5-4.2c0.1-0.1,0.1-0.3,0.2-0.4c0.1-0.2,0.3-0.5,0.5-0.6
		c1.6-0.6,3.1-1.2,4.5-2.1c1.1-0.8,2.4-1.4,3.4-2.4c1-1,1.7-2.2,2.5-3.4c0.5-0.7,0.7-1.3,0.8-2.2c0-1.1,0.2-2.2,0.4-3.3
		c0.1-0.5,0.2-1,0.3-1.6c0.3-1.5,0.4-3.1,0.8-4.5c0.5-1.7,0.6-3.3,0.5-5c-0.1-1.4-0.4-2.7-0.6-4.1c-0.5-2.5-1.6-4.6-3.9-5.9
		c-0.9-0.5-1.6-1.3-1.7-2.5c-0.1-0.9-0.3-1.7-0.4-2.6c-0.1-0.8-0.1-1.6-0.2-2.4c0.9,0.3,1.6,0.7,2.4,0.9c1.6,0.4,2.9,1.2,4.3,2
		c1,0.6,2,1.4,3,2c1,0.7,2.2,0.9,3.3,0.3c0.7-0.4,1.5-0.9,1.8-1.6c0.5-1.1-0.2-2.6-1.2-3.4c-1.6-1.2-3.2-2.5-4.8-3.7
		c-0.9-0.7-1-1.7-1.1-2.7c-0.3-1.9-1.1-3.6-2.5-4.9c-0.8-0.7-1.4-1.6-2-2.5c-1.3-1.7-2.8-3.1-4.9-3.6c-0.7-0.2-1.4-0.4-2.1-0.6
		c-1.6-0.5-3.2-0.9-4.8-1.4c-2.2-0.7-4.4-1.2-6.7-0.8c-2,0.4-4,0.6-6,1.1c-2.1,0.5-4,1.4-5.4,3.1c-0.3,0.4-0.6,0.7-1,1.1
		c-0.6-1.3-1.1-2.5-1.6-3.8c-0.5-1.3-0.7-2.6-0.6-3.9c0.1-1.2,0.2-2.5,0.2-3.7c0-1.3-0.1-2.7-0.1-4c0-0.8-0.2-1.5-0.3-2.3
		c-0.1-0.7-0.2-1.4-0.3-2.1c0.6-0.1,1.1-0.1,1.5-0.2c1.4-0.2,2.4-0.7,2.9-2.2c0.5-1.3,1.1-2.6,1.6-4c0.4-1.1,0.9-2.2,0.9-3.3
		c0.1-3.4,0.1-6.8,0-10.2c0-0.7-0.1-1.4-0.6-2c-1.1-1.2-2.4-1.4-3.8-1c-1,0.3-1.9,0.8-2.9,1.3c0-0.2,0-0.5,0-0.7
		c-0.2-1.3-0.2-2.6-0.7-3.9c-0.7-1.5-1.1-3.1-1.7-4.6C83,25.4,82,23,80,21.1c-0.9-0.8-1.6-1.9-2.3-2.9c-1.1-1.7-2.1-3.4-3.2-5.1
		c-0.8-1.3-1.5-2.6-2.7-3.5c-0.4-0.3-0.7-0.8-1.1-1.2c-0.4-0.4-0.7-0.8-1.2-1.1c-2.5-1.6-5.2-2.9-8.2-3.5c-1.5-0.3-3.2-0.1-4.8,0
		c-1,0.1-1.9,0.4-2.8,0.5c-0.4,0.1-0.6,0-0.6-0.5c0.1-1-0.5-1.8-1-2.5c-0.2-0.3-0.8-0.6-1.2-0.7c-0.6-0.2-1.3-0.2-2-0.3
		c-2.2-0.4-4.1,0.1-5.7,1.7c-1.3,1.3-2.1,2.9-2,4.8c0.1,1.4-0.2,2.6-1.4,3.4c-0.9,0.7-1.7,1.5-2.6,2.3c-1.3,1.1-2.6,2.2-3.9,3.4
		c-0.6,0.6-1.1,1.4-1.8,2c-1.3,1.2-2.1,2.6-2.9,4.1c-0.9,1.6-1.4,3.5-1.7,5.3c-0.3,1.5-0.6,3-0.7,4.5c-0.1,3.2-0.1,6.5-0.2,9.7
		c0,0.2,0,0.5,0,0.7c0.6,2.5,1.2,4.9,1.8,7.4c0.5,1.8,1.1,3.6,1.7,5.3c0.3,0.8,0.6,1.7,1,2.5c1.1,2.3,2.6,4.2,4.5,5.9
		c0.4,0.3,0.8,0.7,1.1,1.1c0.5,0.9,0.8,2,1.3,2.9c0.7,1.7,1.5,3.3,2.3,5c1,2.2,2.5,4,4,5.8c1.5,1.7,3.1,3.4,4.6,5.1
		c0.4,0.4,0.7,0.8,1.1,1.3c-0.7,0.2-1.4,0.4-2,0.6c-1.8,0.1-3.6,0.5-5.2,0.8c-0.1,0-0.2,0-0.3,0c-2.3-0.1-4.6-0.1-6.9-0.1
		c-0.5,0-1.1,0.1-1.6,0.2c-1.8,0.5-3.5,1.3-5,2.4c-1.9,1.4-3.5,2.9-4.4,5.1c-0.8,1.9-1.7,3.8-2.5,5.7c-0.7,1.6-1.2,3.3-1.7,4.9
		c-0.6,1.9-1,3.8-1.6,5.7c-0.8,2.9-1.9,5.7-2.5,8.6c-0.8,3.4-2.2,6.4-4,9.2c-1.6,2.5-3.3,5-4.5,7.7c-0.7,1.6-1.3,3.2-1.9,4.9
		c-0.5,1.4-1.1,2.8-1.6,4.2c-0.5,1.6-0.9,3.2-1.4,4.8c-0.5,1.7-0.9,3.4-1.3,5.1c-0.4,1.8-0.8,3.6-0.7,5.4c0.1,1.3-0.1,2.7-0.1,4.1
		c0,0.4,0,0.8,0.1,1.1C0.6,164.9,1,164.9,1.5,164.9z M67.8,156.5c-0.6,0.1-1.1,0.3-1.7,0.5c-0.7,0.2-1.4,0.4-2.1,0.5
		c-1.2,0.2-2.2-0.3-2.9-1.2c-1-1.2-2.1-2.4-2.5-4.1c-0.3-1.1-0.3-2.1-0.1-3.2c0-0.2,0.2-0.4,0.3-0.6c0.6,0.7,1.2,1.4,1.8,2.1
		c0.5,0.5,1.1,0.8,1.8,0.8c0.8,0,1.6,0.1,2.5,0.1c0.4,0,0.5,0.2,0.4,0.5c0,0.4,0,0.8,0,1.3c0,0.9,0.4,1.5,1.2,1.9
		c0.6,0.3,1.2,0.7,1.8,1.1C68.1,156.3,67.9,156.5,67.8,156.5z M69.7,155.3c-0.8-0.3-1.6-0.6-2.2-0.9c-0.8-0.4-1.2-1.4-0.9-2.3
		c0.2-0.6,1-1.2,1.8-1c0,0,0,0,0.1,0c0.5,0.1,1.2-0.3,1.5,0.3c0.3,0.6,0.5,1.3,0.4,2C70.3,154,69.9,154.6,69.7,155.3z M94,147.5
		c-1.2,1.4-1.7,3.3-3.2,4.6c-0.6,0.5-1.3,1-2,1.6c-0.7,0.7-1.3,1.5-2,2.2c-1,0.9-2,1.9-3,2.7c-0.4,0.3-0.9,0.4-1.5,0.3
		c-0.9-0.1-1.9,0.1-2.8,0.1c-1.1,0-2.2,0.2-3.3,0c-0.7-0.1-1.4-0.8-2.1-1.2c-0.6-0.4-1.2-0.8-1.8-1.2c-0.3-0.1-0.7-0.1-1-0.1
		c-0.2-0.1-0.5-0.2-0.7-0.3c-0.1-0.1,0.1-0.4,0.2-0.6c0.2-0.8,0.4-1.5,0.7-2.3c0.1-0.2,0.3-0.5,0.4-0.5c1.1-0.2,2-0.6,3-1.2
		c1.3-0.8,2.8-1.3,4.2-1.9c1.6-0.7,2.9-1.7,4-3.1c1.3-1.7,1.6-3.6,1.6-5.6c0-0.9-0.1-1.7,0.3-2.6c0,0,0,0,0-0.1
		c0.8,0.4,1.6,0.8,2.3,1.2c0.1,0.1,0.3,0.3,0.3,0.4c0.2,2.3,0.3,4.5,0.4,6.8c0,0.8-0.3,1.6-0.6,2.3c-0.1,0.3-0.5,0.6-0.8,0.8
		c-0.5,0.4-1,0.8-1.4,1.3c-0.1,0.2-0.1,0.5-0.1,0.8c0.2-0.1,0.5-0.1,0.7-0.2c0.7-0.6,1.4-1.1,2-1.8c0.7-0.7,0.9-1.6,0.9-2.5
		c0.1-2.1,0-4.2-0.3-6.3c-0.1-0.8,0-1.7,0-2.5c0-0.6-0.1-1.3-0.1-1.9c0.7,0,1.4,0.1,2.2,0.2c0.2,1.4,0.4,2.8,0.6,4.2
		c0.2,1.4,0.3,2.8,0.4,4.1c0.1,0.7,0.1,1.5,0,2.2c-0.1,0.4-0.4,0.8-0.7,1.1c-0.6,0.6-1.3,1.1-1.9,1.7c-0.1,0.1-0.2,0.4-0.3,0.6
		c0.3,0,0.6,0.1,0.8,0c0.9-0.8,1.7-1.7,2.6-2.6c0.1-0.1,0.2-0.3,0.2-0.5c0-1,0.1-2.1,0-3.1c-0.1-1.3-0.3-2.5-0.4-3.8
		c0-1.7-0.4-3.2-0.8-4.8c-0.1-0.2-0.1-0.4-0.2-0.6c0.6,0,1.1,0,1.6,0c0.5,0,0.6,0.2,0.7,0.6c0.3,2,0.8,3.9,1,5.9
		c0.2,1.7,0.1,3.5,0.2,5.2C94,147.4,94,147.5,94,147.5z M89.9,136c-1.1,0.2-2,0.1-2.5-1c0.2-0.4,0.5-0.9,0.9-1.4
		C89.2,134.1,89.5,135.1,89.9,136z M89.1,132.9c0.5-0.9,1.3-1,2.2-0.2c0.4,0.4,0.7,1,1.1,1.6c0.2,0.4,0.1,0.6-0.3,0.6
		c-0.9,0-1.8,0-2.2-1.1C89.7,133.5,89.3,133.2,89.1,132.9z M87.4,137c0.1,0.5,0,1,0,1.6c-0.4-0.1-0.9-0.2-1.3-0.4
		c-0.6-0.3-0.6-1-0.1-1.5c0.3-0.3,0.5-0.7,0.7-1C87.3,136,87.4,136.6,87.4,137z M95.1,145.1c-0.3-2.2-0.6-4.4-0.9-6.6
		c0.7,0.2,1.2,0.4,1.8,0.5c0.4,0.1,0.5,0.3,0.5,0.6C96.5,141.6,96.1,143.4,95.1,145.1z M95.2,136c1,0.4,0.5,1.5,1,2.2
		c-0.7,0.1-1.3-0.2-1.5-0.7C94.4,136.8,94.9,136.4,95.2,136z M118.8,123.8c0.3-0.5,0.4-1.2,0.5-1.8c0.1-0.7,0-1.5,0-2.3
		c0.8,0.9,1,1.9,1.2,3c0.1,0.6,0.2,1.2,0.3,1.8c0.1,0.7-0.2,1.3-0.6,1.9c-0.5,0.8-1,1.5-1.5,2.3c-0.6,1-1.6,1.6-2.6,2.2
		c-0.8,0.5-1.5,1-2.3,1.4c-2.3,1.2-4.8,2-7.3,2.5c0.6-0.4,1.3-0.8,1.8-1.2c1-0.8,1.9-1.7,2.9-2.5c1.1-0.9,2.2-1.7,3.3-2.6
		C116.1,127.3,117.6,125.7,118.8,123.8z M117.8,118.9c0.1,0.7,0.1,1.5,0.2,2.2c0.2,1.4-0.5,2.5-1.4,3.5c-0.6,0.7-1.2,1.4-1.8,2
		c-0.3,0.3-0.7,0.6-1,0.9c-2,1.7-4,3.4-6.1,5c-1.9,1.4-3.8,2.7-5.7,4.1c-1.3,1-2.6,2-4,3.1c-0.1,0.1-0.1,0.1-0.2,0.1
		c-0.2-1.3-0.4-2.5-0.6-3.7c-0.1-0.5-0.3-1.1-0.9-1.1c-0.7,0-1.5-0.1-1.9,0.7c-0.2,0.3-0.3,0.6-0.5,1c-0.1-0.7-0.2-1.3-0.4-1.9
		c-0.3-1.3-1-2.5-2.2-3.2c-0.5-0.3-1.4-0.2-2.1-0.3c0.2-0.5,0.3-1.1,0.5-1.7c1.1-3.1,2.1-6.2,2.9-9.4c0.4-1.5,0.8-3,1.2-4.5
		c0.1-0.3,0.4-0.7,0.7-0.8c2.1-0.7,4.2-1.4,6.3-2c0.2-0.1,0.4,0,0.5,0c1,0,2.1,0,3.1,0c3-0.1,5.8,0.4,8.7,1.5
		c1.5,0.5,2.6,1.5,3.8,2.4C117.7,117.3,117.7,118.2,117.8,118.9z M112.4,97.4c-0.1,0-0.1,0.1-0.2,0.1c0,0,0,0,0,0
		c-1.4,0.1-1.5,0-1.6-1.4c-0.1-1.3-0.4-2.5-0.5-3.8c-0.1-0.7-0.1-1.5-0.2-2.2c1.1,0.1,1,0.1,1.1,1.1c0.2,1.2,0.6,2.3,0.8,3.5
		C112,95.6,112.2,96.5,112.4,97.4z M112.1,91c1.3,0.6,2.5,1.2,3.6,1.7c0.1,0.1,0.2,0.3,0.2,0.5c0.2,2.3,0.5,4.5,0.7,6.8
		c0.1,0.9,0.1,1.8,0,2.7c0,0,0,0.1-0.1,0.2c-0.4,0.2-1.1,0.2-1.7,0.1c0,0-0.1-0.1-0.1-0.1c-0.4-0.5-0.7-1.2-0.8-1.8
		c-0.3-1.6-0.3-3.3-0.6-4.9c-0.1-0.9-0.5-1.8-0.7-2.6C112.5,92.6,112.3,91.9,112.1,91z M110.5,101.8c0.2,0.5,0.1,1.2,0,1.9
		c-0.1,0.7-0.7,0.8-1.2,0.4c-0.8-0.6-1.1-1.5-1.3-2.4c-0.6-2.7-1.3-5.4-1.9-8.2c-0.3-1.4-0.8-2.8-1.2-4.5c1.2,0.2,2.2,0.4,3.2,0.7
		c0.2,0,0.3,0.4,0.4,0.6c0.3,2,0.6,4,0.8,6.1C109.4,98.2,109.9,100,110.5,101.8z M105.3,95.2c-0.1,0-0.1,0-0.2,0.1
		c-0.3-1-0.7-1.9-1-2.9c-0.3-0.9-0.5-1.8-0.7-2.6c-0.1-0.2,0-0.5,0.1-0.7c0.1,0,0.1,0,0.2,0C104.2,91.1,104.7,93.1,105.3,95.2z
		 M103.8,95.4c0.5,1.1,0.8,2.2,0.8,3.4c0,0.6-0.1,1.1-0.3,1.7c-0.1,0.3-0.3,0.6-0.5,0.6c-0.4,0.1-0.9,0.1-1.1-0.4
		c-0.4-0.9-0.8-1.8-1.2-2.6c-0.4-0.9-0.7-1.9-1-2.8c-0.1-0.2-0.1-0.4,0-0.5c0.5-1.1,1-2.1,1.6-3.2c0.1-0.1,0.1-0.2,0.2-0.4
		C102.8,92.7,103.2,94.1,103.8,95.4z M90.4,79.7c0.3-0.9,0.7-1.6,1.4-2.2c1.2-1.1,2.7-1.8,4.3-2.2c1.9-0.4,3.9-0.7,5.9-1.1
		c1.7-0.3,3.3,0,4.9,0.5c2.7,0.8,5.4,1.6,8,2.4c1.6,0.5,2.8,1.4,3.8,2.6c1.1,1.4,2.2,2.7,3.4,4c0.9,0.9,1.1,1.9,1.4,3
		c0.3,1.2,0.2,2.5,1.2,3.4c0.8,0.7,1.6,1.4,2.4,2c1,0.8,2.1,1.6,3.1,2.4c0.8,0.7,1.1,1.9-0.3,2.6c-0.9,0.5-1.7,0.4-2.5-0.2
		c-1.1-0.7-2.1-1.5-3.1-2.2c-1.2-0.8-2.4-1.4-3.8-1.8c-1-0.3-2-0.7-2.9-1.1c-0.2-0.1-0.4-0.3-0.7-0.4c-0.1-0.1-0.3-0.3-0.4-0.2
		c-0.9,0.3-1.5-0.3-2.2-0.7c-2.4-1.4-5.1-2.2-7.8-2.7c-0.5-0.1-1-0.2-1.6-0.3c0.9-1.1,1.8-2.1,2.6-3.2c0.1-0.2,0.2-0.6,0.1-0.7
		c-0.2-0.2-0.7-0.4-0.8-0.2c-0.4,0.3-0.7,0.8-1.1,1.2c-0.9,1-1.9,2-2.6,3.1c-1,1.3-1.8,2.8-2.6,4.2c-0.6,1-1.1,2.1-1.6,3.1
		c-0.9,2.1-1.9,4.1-2.7,6.3c-0.8,2-1.4,4.1-2,6.2c-0.3,1-0.4,2.1-0.5,3.1c-0.5,3.4-1.4,6.6-2.3,9.9c-0.5,1.6-0.8,3.2-1.3,4.7
		c-0.9,2.7-1.9,5.4-3,8.1c-0.4,1-1.3,1.9-2.1,2.8c-0.7,0.8-1.2,1.8-1.5,2.8c-0.5,2-0.9,4-1.5,6c-0.2,0.7-0.8,1.4-1.4,1.9
		c-2.4,2.2-5.2,3.4-8.2,4.5c-0.5,0.2-0.8,0.1-1.1-0.4c-0.5-1-1.5-1.4-2.6-1.2c-1.2,0.2-2.5,0.3-3.7,0.4c-0.7,0-1.5-0.1-2.2-0.1
		c-1.1-0.1-1.8-1-2.5-1.7c-0.6-0.7-1-1.5-1.5-2.2c-1-1.6-0.8-3.4-0.6-5.1c0-0.5,0.1-1,0.1-1.5c0.5-1.7,1-3.3,1.5-5
		c1-2.5,2.1-4.9,3.1-7.4c0.6-1.6,1.1-3.3,1.8-4.9c0.9-2.1,1.9-4.2,3-6.2c0.6-1.3,1.3-2.5,2.1-3.7c1.2-1.8,2.5-3.6,3.9-5.2
		c1.5-1.8,2.8-3.8,4.1-5.7c0.8-1.2,1.8-2.3,2.7-3.5c0.8-1.1,1.6-2.2,2.4-3.4c1-1.6,2.1-3.1,3-4.7c1-1.8,2.1-3.5,2.7-5.5
		C88.9,82.6,89.8,81.3,90.4,79.7z M86.9,75.5c0.3,0.7,0.5,1.1,0.7,1.6c0.3,0.7,0.7,1.4,1,2.2c0.1,0.3,0.2,0.7,0.1,1
		c-0.7,1.8-1.3,3.6-2.1,5.3c-0.9,1.9-2.1,3.6-3.2,5.4c-0.9,1.4-1.7,2.8-2.6,4.2c-1.1,1.5-2,3.1-3.5,4.3c-0.2,0.1-0.4,0.3-0.6,0.3
		c-1.2,0.1-2.4,0.1-3.7,0.2c-0.2,0-0.4,0-0.6,0c-2,0-4.1,0.1-6.1,0c-2.5-0.1-5-0.5-7.3-1.5c-1.9-0.8-3-2.5-3.4-4.4
		c-0.2-1.1,0-2.2-0.1-3.3c0-0.3,0-0.5,0-0.8c0-0.2,0.2-0.5,0.3-0.7c0.2,0.1,0.4,0.2,0.6,0.3c1.9,1.4,3.8,2.9,6.2,3.6
		c1.7,0.5,3.4,1.1,5.1,1.7c1.6,0.5,3.2,0.2,4.9-0.1c3.5-0.8,5.8-3.1,7.8-5.8c2.5-3.3,4-7.1,5.6-10.9C86.4,77.1,86.6,76.3,86.9,75.5z
		 M92.4,49.1c-0.4,1.4-0.8,2.8-1.3,4.1c-0.4,1-0.8,2-1.2,3c-0.4,0.9-1.2,0.9-2,1.1c-0.9,0.2-1.6-0.4-1.8-1.3
		c-0.2-0.8-0.3-1.6-0.5-2.4c1.3,0.1,2.2-0.4,2.8-1.6c0.4-0.8,1.3-1.3,2-1.9c0.6-0.5,1.3-0.9,2-1.4C92.4,48.8,92.4,49,92.4,49.1z
		 M85.3,46.8c0.1-0.9,0.3-1.9,0.4-2.8c0.1-0.3,0.2-0.6,0.2-0.9c0.1-0.2,0.1-0.4,0.1-0.6c0.1-0.9,0.1-1.8,0.1-2.7
		c0-0.9,0.8-1.2,1.4-1.7c1-0.8,2.1-1.2,3.4-1c0.3,0,0.6,0.2,0.9,0.3c-2,0.3-3.4,1.1-4.4,2.8c-0.2,0.4-0.3,0.8,0.2,1
		c0.5,0.3,0.6-0.2,0.7-0.5c0.7-1.5,2.6-2.4,3.5-1.9c0.2,0.1,0.4,0.3,0.4,0.4c0.1,2.4,0.1,4.9,0.1,7.3c0,0,0,0.1,0,0
		c-0.7-0.9-1.4-1.8-2.2-2.6c-0.3-0.3-0.7-0.4-1.1-0.5c-0.1,0-0.5,0.2-0.5,0.3c0,0.2,0.1,0.5,0.3,0.6c1.3,0.7,2,1.9,2.6,3.2
		c0.2,0.5-0.4,1.2-1.1,1.6c-0.7,0.4-1.4,0.9-2.1,1.5c-0.3,0.3-0.6,0.7-0.8,1c-0.3,0.7-0.8,1.1-1.6,1.1c-0.2,0-0.3,0.1-0.6,0.2
		c-0.2-0.9-0.5-1.8-0.5-2.7C84.9,49,85.2,47.9,85.3,46.8z M48.9,82c-1.3-1.4-2.5-2.8-3.8-4.2c-1.6-1.8-3.2-3.5-4.3-5.7
		c-0.9-1.8-1.7-3.7-2.6-5.5c1.1-1,2.4-1.1,3.5-1.5c1.5-0.5,3.1-0.2,4.6-0.6c0.6-0.1,1.2-0.3,1.7-0.6c0.4-0.2,0.1-0.4-0.2-0.6
		c-0.6-0.3-1.2-0.5-1.9-0.3c-1.3,0.3-2.7,0.3-4,0.5c-1.5,0.2-2.9,0.8-4.3,1.8c-0.3-0.8-0.5-1.6-0.8-2.3c-0.5-1.1-1-2.1-1.5-3.1
		c-0.5-1-0.8-2.1-0.7-3.3c0.1-1.7,0.2-3.4,0.3-5.1c0-0.2,0-0.3,0.1-0.5c1.2-2.6,2.3-5.3,4.5-7.3c0.9-0.8,1.6-1.7,2.4-2.6
		c1.9-2,4.1-3.6,6.6-4.8c2-0.9,4-1.8,5.9-2.9c2.1-1.3,4.1-2.8,5.4-5c0.8-1.4,1.4-2.8,1.6-4.4c0.1-0.7,0.3-1.4,0.4-2.1
		c0.5-2.3,0.3-4.5,0-6.8c-0.1-0.6-0.1-1.1-0.2-1.7c-0.3-1.6-1.4-2.2-2.8-2.7c-1.2-0.4-2.4-0.7-3.6-1.1c-0.4-0.1-1-0.3-0.7-1
		c0.2-0.5,0.6-0.6,1.3-0.4c1.2,0.4,2.5,0.7,3.7,1.1c2.4,0.8,3.4,2.1,3.8,4.7c0.2,1.9,0.3,3.7,0.4,5.6c0.1,1.2,0,2.4-0.5,3.6
		c-0.2,0.4-0.2,0.9-0.2,1.3c-0.1,2.3,0.2,4.5,0.8,6.7c0.4,1.5,1,2.8,2.2,3.8c0.9,0.7,1.9,1.3,2.9,1.8c2.6,1.3,5.2,2.6,7.8,3.9
		c1.8,0.8,3,2.2,4,3.9c0.9,1.6,1.5,3.2,2.8,4.5c0.3,0.3,0.3,0.8,0.4,1.2c0.3,1.4,0.6,2.8,0.9,4.2c0.5,2.3,1,4.6,1.4,6.9
		c0.1,0.7,0.2,1.4,0.1,2.1c0,3.2,0,6.3-0.1,9.5c-0.1,1.8-0.7,3.6-1.4,5.2c-0.9,2.2-2,4.2-3,6.3c-0.8,1.7-2.1,3.2-3.3,4.7
		c-1.2,1.6-2.8,2.7-4.5,3.5c-2,1-4,1.1-6.1,0.1c-0.7-0.3-1.5-0.3-2.3-0.5c-2.8-0.8-5.4-2-7.7-3.7c-2.3-1.6-4.6-3.1-6.9-4.8
		C50.2,83.5,49.6,82.7,48.9,82z"/>
	<path class="st0" d="M67.5,89.5c-1.5-0.2-3.2-0.4-4.9-0.6c-0.3,0-0.6-0.1-0.9,0c-0.6,0.1-0.8-0.2-1-0.7c-0.2-0.5,0.2-0.6,0.4-0.9
		c0.4-0.6,0.8-1.2,1.2-1.7c0.6-0.9,1.3-1.4,2.4-1.3c0.5,0.1,0.8-0.1,1.1-0.6c0.5-0.7,1.1-1.1,1.9-1c1.9,0,3.9,0,5.8,0
		c0.7,0,1.4-0.1,2.1-0.1c0.2,0,0.5,0.2,0.7,0.4c-0.1,0.2-0.3,0.4-0.4,0.6c-0.5,0.6-1,1.3-1.5,1.9c-1.3,1.7-2.9,2.9-4.7,3.7
		C69.1,89.5,68.3,89.4,67.5,89.5z M74.2,84.3c0-0.1,0-0.2-0.1-0.3c-0.4,0-0.8,0-1.2,0.1c-1.7,0.3-3.1,1.2-4.5,2.1
		c-1.4,0.9-2.9,1.3-4.4,1.5c-0.2,0-0.3,0.2-0.5,0.3c0.2,0.1,0.3,0.3,0.5,0.3c0.9,0.1,1.7,0,2.6,0.1c1.5,0.3,2.7,0,4-0.8
		C72.1,86.8,73.3,85.6,74.2,84.3z M71.5,83.6c0,0,0-0.1,0-0.1c-1.2,0-2.3,0.1-3.5,0c-0.8-0.1-1.3,0.3-1.6,0.8
		c-0.5,0.8-1.1,0.9-1.9,1c-0.4,0.1-0.8,0.2-1.2,0.5c-0.3,0.2-0.4,0.7-0.6,1c0.4,0,0.8,0.1,1.2,0c1.1-0.2,2.2-0.4,3.2-0.8
		c1-0.4,1.9-1.1,2.9-1.6C70.5,84.1,71,83.9,71.5,83.6z"/>
	<path class="st0" d="M63.8,81.3c-0.9-0.1-1.6-0.2-2.4-0.2c-0.3,0-0.7,0.1-1,0.2c-0.6,0.3-1.2,0.4-1.8,0.3c-0.5-0.1-0.9-0.3-1-0.8
		c-0.3-1-0.5-2.1-0.7-3.1c0-0.2,0-0.5,0.1-0.6c0.1-0.1,0.3-0.2,0.5-0.2c0.1,0,0.3,0.2,0.3,0.4c0.2,0.9,0.3,1.9,0.6,2.8
		c0.1,0.6,0.6,0.8,1.2,0.5c1.1-0.6,2.3-0.6,3.5-0.3c1.2,0.3,2-0.2,2.3-1.5c0.2-0.9,0.6-1.5,1.5-1.7c0.3-0.1,0.6-0.2,0.8-0.4
		c1.1-0.7,1-1.7-0.1-2.4c-0.3-0.2-0.6-0.3-0.9-0.5c-0.1-0.1-0.3-0.4-0.2-0.5c0.1-0.2,0.4-0.4,0.5-0.3c0.6,0.4,1.3,0.7,1.8,1.3
		c1,1.2,0.3,2.4-0.8,3.1c-0.1,0-0.2,0.1-0.2,0.1c-0.9,0.3-1.5,0.8-1.7,1.8c-0.1,0.6-0.6,1.1-1,1.6C64.6,81.2,64,81.2,63.8,81.3z"/>
	<path class="st0" d="M61,59c-0.2-0.2-0.5-0.3-0.5-0.5c0-0.3,0-0.7,0.2-0.8c1.2-0.9,2.3-1.8,3.6-2.5c1.6-0.8,3.4-1.3,5-1.9
		c0.3-0.1,0.7-0.2,1.1-0.2c0.3,0,0.6,0.3,0.7,0.6c0,0.2-0.2,0.6-0.5,0.7c-0.9,0.4-1.9,0.6-2.9,1c-2,0.8-4,1.7-5.8,3.1
		C61.7,58.7,61.4,58.8,61,59z"/>
	<path class="st0" d="M45.3,71.7c-1.2,0.1-2.3-0.3-3.4-0.9c-0.2-0.1-0.3-0.6-0.3-0.9c0-0.1,0.6-0.4,0.8-0.3c1.5,1,3.1,0.6,4.7,0.5
		c1.6,0,2.7-1,4-1.8c0.3-0.2,0.6-0.4,0.9-0.3c0.3,0.1,0.7,0.4,0.7,0.7c0,0.3-0.2,0.8-0.5,1C50.1,70.9,47.8,71.5,45.3,71.7z"/>
	<path class="st0" d="M65.6,64.1c-0.3,0-0.8-0.1-1.2-0.2c-0.2,0-0.4-0.4-0.3-0.5c0.1-0.3,0.3-0.6,0.6-0.7c0.4-0.2,0.8-0.2,1.2-0.2
		c2.5-0.2,4.4-1.3,6.1-3c0.4-0.4,0.7-0.8,1.1-1.2c0.3-0.3,0.6-0.5,0.9-0.2c0.1,0.2,0.1,0.7,0,0.9c-0.6,0.7-1.2,1.5-1.9,2.1
		c-1.5,1.3-3.1,2.4-5.1,2.8c-0.2,0-0.3,0.1-0.5,0.1C66.2,64.1,66,64.1,65.6,64.1z"/>
	<path class="st0" d="M68,129.1c0-1,0.3-1.4,1.1-1.4c0.9,0,1.2,0.3,1.2,1.1c0,1-0.4,1.4-1.3,1.4C68.2,130.2,67.9,130,68,129.1z"/>
	<path class="st0" d="M68.8,125c-0.1,0.3-0.2,0.8-0.4,1c-0.3,0.2-0.8,0.4-1.1,0.3c-0.2,0-0.4-0.5-0.5-0.8c-0.1-0.2,0-0.5,0.1-0.7
		c0.1-0.6,0.3-1,1-1C68.4,123.8,68.7,124.2,68.8,125z"/>
	<path class="st0" d="M66.6,128.6c0,0.8-0.3,1.2-0.8,1.2c-0.6,0-1-0.4-1-1.2c0-0.6,0.5-1.2,1-1.2C66.2,127.5,66.6,128,66.6,128.6z"
		/>
</g>
</svg>
