<?xml version="1.0" encoding="utf-8"?>
<!-- Generator: Adobe Illustrator 19.2.1, SVG Export Plug-In . SVG Version: 6.00 Build 0)  -->
<svg version="1.1" id="Layer_1" xmlns="http://www.w3.org/2000/svg" xmlns:xlink="http://www.w3.org/1999/xlink" x="0px" y="0px"
	 viewBox="0 0 152.5 183.1" style="enable-background:new 0 0 152.5 183.1;" xml:space="preserve">
<style type="text/css">
	.st0{fill:#C2185B;}
</style>
<g id="icon-child-quick">
	<path class="st0" d="M4.3,79.7c1,4.2,1.4,8.5,1.2,12.8c-0.2,3.5,0.3,6.9,1.4,10.2c1,2.8,1.7,5.8,2.6,8.6c0.5,1.6,1.4,3.1,1.9,4.8
		c0.9,2.9,3.2,4.8,5,7c0.9,1.1,2.4,2.2,2.7,3.5c0.6,2.5,0.4,5.1-0.9,7.5c-1.4,2.5-2.3,5.1-2.1,8.1c0.1,2.1,0.5,4,1.9,5.5
		c1.5,1.6,2,3.5,1.9,5.6c-0.1,3.8-0.2,7.6-0.3,11.4c0,0.2-0.1,0.4-0.1,0.6c-0.1,3.7-0.3,7.4-0.1,11.1c0.1,2.3,0.3,4.5,0.6,6.7h49.7
		c-3.2-2.9-6.3-5.9-9.6-8.6c-2.8-2.4-5.3-5.1-7.6-7.9c-0.8-1-1.6-2-2.2-3.2c-1.7-3.2-3.8-6-6.4-8.5c-2.7-2.7-5.4-5.4-8.1-8.1
		c-0.6-0.6-1.4-1.1-2.1-1.6c-0.5-0.4-1.1-0.8-1.6-0.1c-0.5,0.8-0.1,1.5,0.6,2c1.2,0.9,2.3,1.2,3.6,3.2H31c-0.8-2-1.7-3.5-2.4-5.1
		c-0.9-2-1.7-4.1-2.3-6.2c-0.5-1.9,0.6-3.4,2.3-4.4c3.2-1.8,6.6-2.9,10-3.9c1.5-0.4,2.9-0.9,4.4-1.1c1.9-0.2,3.9,0,5.8-0.1
		c4.3-0.3,8.5,0,12.7,0.7c2.2,0.4,4.5,0.5,6.6,1.1c2.3,0.7,4.2,2.1,5.8,4c2.1,2.4,2.4,5.7,4.2,8.2c1.6,2.2,3.3,4.3,4.9,6.4
		c0.2,0.2,0.4,0.4,0.6,0.6c1.2,1.6,1.6,1.5,0.3,3.5c-3.3,5.5-3.1,11,0.1,16.4c0.2,0.3,0.6,0.7,1,0.8c0.3,0.1,0.7-0.1,1-0.4
		c0.1-0.1,0-0.6-0.1-0.8c-2.9-5-2.8-10.9-0.2-15.2c0.7-1.2,1.6-2.2,2.5-3.2c2.2-2.5,3.6-5.5,4.7-8.7c1.5-4.1,3.3-8.1,3.9-12.4
		c0.5-3.8,0.8-7.6,1.1-11.4c0.1-1.5,0.3-3,0.5-4.5c0.4-2.3,1.7-4,3.8-4.9c2.9-1.3,5.9-2.4,8.9-3.6c3.5-1.4,6.9-2.7,10.4-4
		c1.1-0.4,2.2-0.8,3.2-1.4c0.5-0.2,0.9-0.8,1-1.2c0.1-0.3-0.6-0.7-0.9-1.1c-0.2-0.3-0.6-0.6-0.6-0.9c-0.6-3.5-2.5-6.4-4.1-9.5
		c-1.1-2.1-1.9-4.3-2.6-6.5c-0.8-2.5-2.1-4.6-4-6.3c-0.7-0.6-1.3-1.2-2-1.8c3.4-5.1,6.4-10.2,7.8-15.7c1.7,0.7,3.3,1.4,5,2.1
		c0.1-0.1,0.1-0.2,0.2-0.3c0,0.6,0.1,1.2,0,1.8c-0.5,2.6-1,5.2-1.6,7.8c-0.2,1.2-0.4,2.3-1.4,3.2c-0.3,0.3-0.4,1.1-0.2,1.4
		c0.6,0.6,1-0.1,1.4-0.5c1.5-1.4,1.5-3.3,1.9-5.1c0.5-2.2,0.9-4.4,1.4-6.6c0.1-0.3,0.3-0.6,0.4-0.7c0.2,0,0.5,0.2,0.8,0.4
		c0.2,0.2,0.3,0.5,0.5,0.6c3.7,3.6,3.8,7.8,2.1,12.3c-0.4,1.1-0.7,2.2-1,3.4c-0.1,0.2,0.3,0.5,0.5,0.8c0.3-0.2,0.9-0.4,1-0.6
		c0.5-3,2.5-5.6,2-8.8c0-0.1,0.1-0.1,0.2-0.4c1.3,2.4,2.8,4.7,3.8,7.1c0.4,0.9-0.2,2.2-0.4,3.3c-0.3,1.3-0.1,2.5,0.5,3.8
		c0.4,0.9,0.4,2.1,0.3,3.2c-0.3,2.4-0.5,4.9-2.2,6.8c-1.2,1.4-2.5,2.8-3.7,4.1c-0.7,0.8-1.4,1.6-2,2.5c-1.2,2-2.3,3.9-4.4,5.1
		c-1.7,1-2.7,2.6-3.6,4.4c-1.2,2.5-1.4,5-1.4,7.7c0,2.7-0.3,5.5,0,8.2c0.5,3.2-1.1,6-0.9,9.1c0,0.4-0.1,0.9-0.1,1.3
		c-0.1,4.2-0.1,8.3-0.3,12.4c-0.1,2.1-0.7,4.3-0.9,6.4c-0.3,2.5-0.3,5-0.7,7.5c-0.5,2.8-1.3,5.6-2,8.4c-1.2,4.4-2.4,8.8-3.6,13.3
		h20.8c1.1-4.7,2.3-9.3,3.4-14c0.3-1.2,0.4-2.4,0.9-3.6c0.1,0.9,0.3,1.9,0.4,2.8c0.3,3.8,0.6,7.7,1,11.5c0.1,1.1,0.2,2.1,0.4,3.2h2
		c-0.3-3.1-0.6-6.2-1-9.3c-0.4-3.4-0.7-6.7-1.2-10.1c-0.3-2.3-0.4-2.3,1.7-3.5c0.1,0,0.1-0.1,0.2-0.1c4.3-1.6,7.8-4.5,11.6-7
		c1.1-0.7,1.3-1.6,1-2.7c-0.9-3-1.8-6.1-2.8-9.1c-0.9-2.6-1.8-5.3-2.9-7.8c-1-2.2-2.3-4.3-3.3-6.5c-1-2.4-2.7-3.9-5-4.7
		c-4.7-1.6-9.5-3.1-14.2-4.6c-0.3-0.1-0.6-0.2-0.8-0.4c-0.5-0.3-1.1-0.7-1.8-1.1c0-0.5,0-1.2,0-1.8c0.2-3.8,1.5-7,4.9-9.1
		c1-0.6,2-1.6,2.5-2.6c1.5-2.8,3.8-4.9,5.8-7.3c1.7-2,3.2-4,3.6-6.7c0.1-0.7,0.2-1.4,0.3-2.1c0.2-1.8,0.5-3.7-0.6-5.4
		c-0.1-0.2-0.2-0.4-0.2-0.5c0-3,1.4-5.3,3.6-7.1c1.4-1.1,1.7-2.4,0.5-3.7c-0.8-0.8-1.7-1.4-2.5-2.2c-1.3-1.1-2.2-2.4-2.1-4.3
		c0.1-1.3,0.2-2.5,0-3.8c-0.2-1.8-0.2-3.9-2-5.1c-1.1-0.7-2.4-1.2-3.7-1.8c-1.1-0.5-2.4-0.7-3.5-1.3c-1.1-0.6-2.4-1.3-2.6-2.6
		c-0.3-2.4-0.3-4.9-0.3-7.3c0-1.6-0.4-3-1.3-4.3c-1.3-2.1-2.7-4.1-2.7-6.7c0-0.9,0.1-1.9-0.2-2.7c-1-2.9-1.3-6-3.1-8.7
		c-1.1-1.7-1.6-3.7-2.5-5.6c-0.4-0.9-0.8-1.9-1.6-2.4c-2.8-2.3-5.6-4.6-9.1-5.9c-2-0.7-3.8-2-5.8-2.6c-2.4-0.7-4.9-1-7.3-1.5
		c-2.2-0.4-4.4-1-6.6-1.2c-5.9-0.4-11.8,0.2-17.6,1.6c-3.8,0.9-7.5,2.4-11.2,3.7c-1.2,0.4-2.5,0.9-3.6,1.7c-3.2,2.3-6.3,4.7-9.5,7
		c-5.3,3.8-9.1,8.6-10.4,15.1c-0.2,1.1-1.5,2-2.7,2c-2,0.1-3.5,1-4.3,2.9c-0.3,0.6-0.5,0.9-1.2,0.9c-2.9,0.2-5.7,0.8-8.2,2.2
		c-2.3,1.3-4.6,2.6-6.7,4.1c-3.1,2.2-5.6,5.1-7.3,8.5c-1.4,2.8-2.1,5.8-2.5,8.9c-0.5,4.5,0,8.9,1.4,13.3C2.5,74.6,3.6,77.1,4.3,79.7
		z M136,150.9c0.4-1.9,0.3-4.3,0.9-6.1c0.3-1.1,0.6-1.5,0.8-1.7c-0.1,2.1,0,4.2-0.1,6.3c-0.3,2.4-0.9,4.8-1.4,7.2
		c-0.4,1.8-0.5,3.7-0.9,5.6c-0.2,0.7-0.4,1.5-0.5,2.2c-0.3-0.5-0.9-0.8-1.6-0.9C132.8,163.4,135.8,151.9,136,150.9z M29,150
		c-1.9-0.1-3.6-0.2-5.3-0.4c-2.3-0.3-5.5-3.8-5.6-6.1c0-0.3,0-0.6,0.1-0.8c1.9-1.9,3.8-3.8,5.9-6C24.5,141.9,26.9,145.8,29,150z
		 M77.6,133.6c-0.2,0.1-0.4,0.3-0.6,0.4c0,0-0.1,0-0.1,0c-0.2,0-0.5,0.1-0.7,0.2c-0.3-0.8-0.7-1.5-1.1-2.2c-0.8-1.3-1.6-2.7-2.4-4
		c0.1-0.7,0-1.4-0.5-2.1c-3.1-4.3-6.6-8.2-10.5-11.8c0-0.2,0.1-0.4,0.1-0.6c0,0,0.1,0,0.1-0.1c0,0,0,0,0.1,0c0,0,0,0,0,0
		c0.1-0.1,0.2-0.1,0.3-0.2c2.2,1.4,4.2,2.9,6.2,5.1c3.2,3.5,5.9,7.4,8.1,11.6c0.7,1.2,1.1,2.3,1.4,3.4
		C77.7,133.2,77.7,133.4,77.6,133.6z M94.5,133.3c-0.6-0.5-1.1-0.8-1.4-1.2c-1.9-2-4.1-3.7-6.3-5.4c-2.5-2.3-5-4.4-7.7-6.5
		c-0.6-0.7-1.3-1.4-1.9-2c-1.7-1.7-3.6-3.3-5.4-4.9c-2.5-2.2-5.1-4.4-7.7-6.7c-1.8-1.5-3.6-3.1-5.4-4.6c-0.4-0.4-0.8-0.7-1.3-1.1
		c2-1.2,3.8-0.7,5.2,0.6c3.6,3.6,7.6,6.8,11.7,9.7c1.4,1,2.3,2.4,3.6,3.6c0.9,0.9,2,1.7,3,2.5c2.7,2.2,5.3,4.5,8,6.6
		c2.1,1.6,4.3,3,6.6,4.6C95.2,129.9,94.9,131.5,94.5,133.3z M96.2,120c-0.1,1.7-0.3,3.4-0.5,5.1c0,0.4-0.2,1-0.5,1.1
		c-0.4,0.1-1,0-1.3-0.2c-1.7-1.1-3.3-2.3-4.9-3.4c-0.5-0.3-0.9-0.7-1.5-1.2c1.6-1.2,3.1-2.3,4.6-3.4c1.5-1.2,2.9-2.4,4.6-3.8
		C96.5,116.2,96.4,118.1,96.2,120z M113.7,77.1c1.3,1.3,2.3,2.8,2.7,4.6c1,3.8,2.9,7.1,4.7,10.6c0.9,1.9,1.5,4,2.2,6
		c0.1,0.4,0.2,0.9,0.5,1.6c-4.9,1.8-10,3.7-15,5.6c-2.3,0.9-4.6,1.7-6.8,2.9c-1.7,0.9-3.1,2.2-4.6,3.3c-0.9,0.7-1.8,1.4-2.7,2
		c-1.9,1.4-3.8,2.7-5.7,4.1c-0.1,0-0.3,0-0.4-0.1c0.3-2.4,0.6-4.9,1.1-7.3c0.8-4.1,1.8-8.3,2.6-12.4c0.2-1.1,0.2-2.3,0.3-3.4
		c0.4-4,0.7-8.1,1.3-12.1c0.6-3.5,1.5-6.9,2.3-10.4c0.2-0.7,0.3-1.4,0.3-2.1c0-0.9,0.5-1.2,1.3-1.1c1.4,0.2,2.7,0.3,4,0.6
		c1.8,0.5,3.6,1,5.3,1.8c1.2,0.5,2.2,1.6,3.2,2.4C111.4,74.9,112.6,76,113.7,77.1z M108,60.6c3,1.3,4.6,6.8,2.3,11.4
		c-1.7-1.5-3.3-3-5.2-4.7C108.1,65.9,109.8,64,108,60.6z M104.8,65.8c-0.3-1.9-0.6-3.6-0.7-5.3c0-0.4,0.2-1,0.5-1.1
		c0.3-0.1,1.1,0,1.2,0.2c0.6,1.2,1.4,2.5,1.5,3.8C107.4,64.8,105.9,65.1,104.8,65.8z M104.4,68.8c-0.7-0.2-1.4-0.4-2.1-0.5
		c-1.2-0.2-2.5-0.4-3.7-0.5c-0.9,0-1.5,0-1.2-1.3c0.5-2.1,0.9-4.3,1.3-6.6C100.6,63,102.5,65.8,104.4,68.8z M121.1,56.8
		c0-0.1,0.1-0.2,0.1-0.3c3.1-0.4,3.2-0.3,3.5,1.9C123.4,57.7,122.2,57.3,121.1,56.8z M125.1,52.1c0.3,0,0.7,0.2,1,0.3
		c1.6,0.7,3.1,1.4,4.7,2.1c0.8,0.4,1.7,0.7,2.5,1c2,0.7,2.3,2.4,2.4,4.3c0,1.1,0.1,2.1,0,3.2c-0.2,3,1.2,5.2,3.5,6.9
		c0.7,0.5,1.3,1.2,1.9,1.7c-1,1.1-2,2.1-2.9,3.1c-1-1.7-2-3.5-3.2-5.3c-0.5-0.9-1.3-1.6-1.9-2.4c-0.4-0.5-0.6-1.1-1-1.7
		c-0.9-1.4-1.8-2.8-2.8-4.2c-0.6-0.8-1.1-1.9-2.5-1.7c-0.1,0-0.3-0.4-0.4-0.6c-0.1-0.3,0-0.6-0.1-0.8c-0.5-2-1.5-3.2-2.7-3.3
		c-3.5-0.1-4.8,0.3-5.5,3.2c-1,3.9-3.1,7.3-5.2,10.7c0-2.2-0.5-4.2-1.3-6.2c-1-2.6-4.9-5-8.1-4.5c-0.7,0.1-0.8,0.5-0.8,1.1
		c0.1,1.6,0.2,3.3,0,5c-0.8-1.5-1.6-3-2.4-4.6c-0.3-0.6-0.1-1,0.5-1.4c3.3-1.8,6.8-3,10.4-3.9c2.7-0.7,5.4-1.4,8.1-1.8
		C121.3,52.1,123.2,52.2,125.1,52.1z M124.1,50.9c-0.6,0-1,0-1.5,0c-2,0.2-4,0.3-5.9,0.8c-1.2,0.3-1.8,0-2.1-1.3
		c3.2,0.6,6.2,0.2,9.3-1.5C123.9,49.6,124,50.2,124.1,50.9z M115,46.9c0.3-0.3,0.5-0.9,0.9-1c0.3-0.1,0.7,0.4,1.3,0.8
		c-0.5,0.4-0.9,0.9-1.2,0.9C115.6,47.7,115.3,47.2,115,46.9z M118.2,45.1c1.5-0.6,4.4,0.9,4.6,2.2c0,0.3-0.1,0.8-0.4,1
		c-1,0.6-2,1.3-3.4,0.9C119.6,47.6,119.1,46.3,118.2,45.1z M121.3,38.1c1.5,0.2,2.2,1.2,2.2,2.7c0.1,1.7,0.2,3.4,0.3,5.1
		c-0.1,0.1-0.2,0.2-0.3,0.3c-1.8-1.1-3.2-3.2-5.8-2.5c-2.2,0.5-4.1,1.3-5.9,2.9c-0.6-2.1,0.1-4,1.3-5.4
		C115.2,38.6,118.1,37.7,121.3,38.1z M43.1,60.7c1.4-1.5,3-2,4.9-1.1c2.1,0.9,4.1,2,6.2,3c1.2,0.6,2.5,0.9,3.9,0.6
		c1.4-0.4,1.7-0.9,1.8-2.3c0.1-2.2,0.2-4.4,0.4-6.6c0.4-3.4,2-6.1,4.6-8.3c1.6-1.4,3.3-2.8,4.3-4.8c0.9-1.7,1.2-3.6,1.4-5.5
		c0.3-3.2,0.7-6.4,1.1-9.6c0.3-2.3,1.9-3.2,3.9-4c2.9-1.1,5.8-1.6,8.9-1.7c3.6-0.1,6.8-1,10-2.7c2.8-1.5,5.8-2.4,9-0.9
		c0.9,0.4,2,0.3,3,0.3c3.6-0.1,6.6,1.1,9,3.8c0.4,0.4,1,0.6,1.4,0.9c0.2,0.2,0.5,0.4,0.6,0.6c1,3.1,2.1,6.2,2.2,9.6
		c0,1.5,0.7,3,1.1,4.6c-1,0.1-2.1,0.2-3.2,0.3c-1.9,0.2-3.7,1-4.7,2.5c-1.1,1.6-2.2,3.5-2.2,5.7c0,1.8,0.6,3.4,1.9,4.7
		c0.6,0.7,1.1,1.5,1.8,2.3c-1.7,0.4-3.2,0.9-4.7,1.2c-3.9,0.9-7.5,2.3-10.8,4.5c-0.9,0.6-1.4,2-1.8,3.2c-0.6,1.9-0.9,3.8-1.3,5.7
		c-0.9,3.9-2,7.7-2.8,11.6c-0.7,3.1-1.2,6.2-1.6,9.3c-0.4,3.4-0.5,6.9-0.8,10.4c0,0.2-0.1,0.4-0.2,0.6c-0.9,0.1-1.8,0.3-2.6,0.2
		c-1.6-0.2-3.1-0.6-4.6-1c-3.6-0.7-6.7-2.6-10.1-3.9c-0.4-0.2-0.7-0.7-1.1-0.9c-0.4-0.3-1-0.5-1.5-0.6c-0.2,0-0.7,0.3-0.8,0.5
		c-0.1,0.3,0.1,0.8,0.3,1c2,1.7,4.4,2.6,6.8,3.8c2.8,1.4,5.7,1.9,8.6,2.8c0.9,0.3,1.9,0.2,2.9,0.3c0.4,0,0.9,0,1.4,0
		c-0.3,1.2-0.6,2.3-0.8,3.4c-0.6,3.8-1.2,7.7-1.8,11.5c-0.2,1-0.3,2.1-0.5,3.1c-0.1,0.4-0.6,0.7-0.8,1.1c-0.3-0.3-0.6-0.5-0.9-0.8
		c-1.5-1.2-3-2.4-4.4-3.7c-1.7-1.6-3.4-3.3-5.1-4.9c-0.9-0.8-1.9-1.3-2.8-2.1c-2.9-2.4-5.8-4.8-8.6-7.2c-0.7-0.6-1.6-1.1-2.2-1.8
		c-0.4-0.5-0.7-1.3-0.5-1.8c1.2-3.3,0.6-6.5-0.5-9.6c-0.3-0.7-0.6-1.5-0.9-2.2c-0.4-0.9,0-1.2,0.8-1.6c1.1-0.5,2.3-0.9,3.1-1.7
		c1.9-1.8,2.1-4.1-0.4-6.3c-1.5-1.3-3.4-2.1-5.1-3c-0.7-0.4-0.9-0.7-0.9-1.5c0.1-1-0.2-2-0.4-3c-0.1-0.2-0.7-0.4-1-0.5
		c-0.2,0.4-0.5,0.8-0.4,1.1c0.5,1.7,0.4,3.1-1.2,4.2c-0.6,0.4-0.8,1.3-1.3,1.8c-1,1.1-2.8,1.2-4,0.3c-2.3-1.7-3.4-4.2-4.3-6.8
		c-0.3-1-0.3-2.2-0.3-3.2c0.1-1.3,1.1-1.8,2.3-1.5c1.5,0.4,3.1,0.7,4.3,1.8c0.2,0.2,0.9,0.1,1-0.1c0.2-0.2,0.1-0.8,0-1
		c-1.5-2.2-5.8-3.3-7.8-1.8c-1.4,1.1-1.8,3-1.4,4.8c0.7,3,2.1,5.7,4.2,8c2.2,2.4,5.8,2.6,8-0.4c0.7-1,1.6-1.1,2.5-0.6
		c1,0.5,2.1,1,3,1.6c0.5,0.4,0.9,1.1,1.3,1.6c0.4,0.5,0.9,1.1,1.5,1.5c0.2,1.9-1.9,3.6-4,3.4c-4.6-0.4-8.7-2-12.4-4.8
		c-3.3-2.5-5-6-6.1-9.9C40.4,65.3,41.1,62.8,43.1,60.7z M27.7,35.1c0.3-1.6,1.4-2.2,3.5-2c-0.5,3.7-0.9,7.4,1.2,10.7
		c0.4,0.6,0.3,1-0.5,1.1c-2.1,0.3-2.2,0.2-3.3-1.8C27.1,40.6,27.2,37.9,27.7,35.1z M22.7,49.8c0.1-0.5,0.3-0.9,0.3-1.4
		c0.1-1.9,1.7-2.5,3-3.3c0.2-0.1,0.6,0,0.7,0.1c2.1,2,4.5,1.9,7.3,1c0,2.1,0.2,4.1,0,6.1c-0.4,3.9-1.2,7.7-1.4,11.5
		c-0.1,2.3,0.6,4.7,1.8,6.8c2.5,4.4,5.9,8.2,9.1,12.2c2.4,3,5.1,5.5,8.2,7.6c1.8,1.3,4,2,6.1,2.8c2.3,0.9,2.8,1.8,1.9,4
		c-0.3,0.7-1.2,1.3-1.9,1.5c-3.7,0.7-7.3,1.2-11,1.7c-3.5,0.5-7,1-10.6,1.5c1.2-1.9,2-4.1,2.4-6.6c0.4-3.1,0.3-6-0.9-8.9
		c-0.5-1.3-1.2-2.5-1.9-3.7c-1.7-3-3.5-6-5.3-9c-0.5-0.9-1.1-1.8-1.7-2.7c-2.6-3.9-4.8-8-6.3-12.4C21.4,55.7,22,52.8,22.7,49.8z"/>
	<path class="st0" d="M90.3,54.6c-1.1-0.2-2.4-0.5-3.7-0.7c-0.8-0.1-1.6-0.1-2.4-0.2c-0.3,0-0.6-0.1-0.8-0.3c-0.1-0.1,0-0.6,0.2-0.7
		c2.1-1.8,4-3.8,6.4-5.2c2.4-1.4,5-1.1,7.4,0.6c0.7,0.5,1.4,0.9,2.1,1.3c0.6,0.4,0.8,0.9,0.2,1.3c-2.1,1.3-3.9,3.3-6.6,3.6
		C92.2,54.4,91.4,54.5,90.3,54.6z M94.9,52.5c1-0.7,2.1-1.5,3.3-2.4c-1.2-0.8-2.1-1.5-2.9-2C95.2,49.6,95,50.9,94.9,52.5z
		 M89.8,53.2c-0.3-0.9-0.5-1.7-0.8-2.4c-0.1-0.3-0.7-0.6-0.8-0.5c-0.8,0.5-1.4,1.1-2.1,1.7c0.1,0.1,0.1,0.3,0.2,0.4
		C87.5,52.7,88.7,52.9,89.8,53.2z M93.5,49.8c-0.6-0.5-1-1-1.4-0.9c-0.4,0-0.7,0.6-1.1,0.9c0.3,0.4,0.6,0.9,1,1
		C92.4,50.8,92.9,50.3,93.5,49.8z"/>
	<path class="st0" d="M94.8,40.1C91,40.4,87,41,83.6,43.6c-1.1,0.8-2,1.7-3.1,2.6c-0.3,0.2-0.7,0.4-1,0.5c-0.2,0-0.7-0.2-0.7-0.5
		c-0.1-0.3,0-0.7,0.2-0.9c1.1-0.9,2.3-1.8,3.5-2.7c4.5-3.3,9.6-4.1,15-3.7c0.3,0,0.6,0.4,1,0.6c-0.4,0.3-0.7,0.7-1.1,0.8
		C96.5,40.3,95.8,40.1,94.8,40.1z"/>
</g>
</svg>
