<?xml version="1.0" encoding="utf-8"?>
<!-- Generator: Adobe Illustrator 19.2.1, SVG Export Plug-In . SVG Version: 6.00 Build 0)  -->
<svg version="1.1" id="Layer_1" xmlns="http://www.w3.org/2000/svg" xmlns:xlink="http://www.w3.org/1999/xlink" x="0px" y="0px"
	 viewBox="0 0 112.7 124.4" style="enable-background:new 0 0 112.7 124.4;" xml:space="preserve">
<style type="text/css">
	.st0{fill:#512DA8;}
</style>
<g id="icon-child-runnynose">
	<path class="st0" d="M19.5,119.8c-0.8-1.3-1.5-2.7-2.3-4c-1.3-2.1-2.6-4.1-3.9-6.2c-0.3-0.5-0.3-0.4-1-0.1c0.7,1,1.4,2,2,3
		c0.8,1.3,1.6,2.6,2.4,3.8c1.2,2,2.5,4,3.7,6c0.4,0.7,0.8,1.3,1.1,2h0.9C21.4,122.8,20.4,121.3,19.5,119.8z"/>
	<path class="st0" d="M86.8,114.2c-0.1,0.2-0.2,0.3-0.2,0.4c-0.7,2.4-1.2,4.9-2,7.2c-0.3,0.8-0.5,1.7-0.6,2.6h1
		c0.3-1.3,0.8-2.6,1.1-3.9c0.4-1.5,0.8-3.1,1.2-4.6C87.3,115.3,87.5,114.7,86.8,114.2z"/>
	<path class="st0" d="M1.1,124.4c0-1.2,0-2.4,0-3.6c0.1-1.8,0.3-3.5,0.5-5.3c0.3-2.3,0.8-4.6,1.2-6.9c0.5-3.3,2.5-5.7,4.6-8
		c2.3-2.6,5.3-4.4,8-6.4c0.3-0.2,0.6-0.4,0.9-0.7c0.1,0,0.1,0,0.1,0.1c0.2,1.8,0.4,3.6-0.5,5.3c-0.8,1.4-1.5,2.8-2.3,4.2
		c-0.3,0.6-0.8,1-1.2,1.5c-0.3,0.4-0.7,0.9-1,1.4c0.8,0.4,1.5,0.6,2.2,0.1c0.7-0.5,1.4-0.9,2.2-1.2c1.5-0.6,3.1-1.1,4.6-1.7
		c1.1-0.5,2.2-1.1,3.2-1.7c1.1-0.7,1.7-1.8,2.2-3c0.2-0.3,0.3-0.7,0.5-1.1c0.9,2.2,1.7,4.3,2.6,6.3c0.5,1.2,1.2,2.4,1.7,3.7
		c0.6,1.8,1.2,3.6,1.7,5.4c0.2,0.5,0,0.7-0.6,0.7c-1.3,0.1-2.5,0.2-3.8,0.5c-2.8,0.5-3.8,2.4-3.1,5c0.2,0.9,0.3,1.7-0.4,2.4
		c-0.8,0.9-0.8,1.9-0.8,3c0,0,0,0,0,0h0.8c0-0.3,0-0.5,0-0.8c0.1-1,0.4-1.8,1.3-2.4c0.3,0.4,0.6,0.8,0.9,1.1
		c0.7,0.7,1.4,1.4,2.1,2.1h2.4c0.5-1.3,1-2.6,1.4-3.9c0.3-1,0.6-2,0.8-3c0.3-1,0.4-2.1,0.8-3c1.4-3.4,2-7,2.5-10.6
		c0.5-3.8,1.3-7.6,2.3-11.3c0.6-2,1.4-3.8,2.4-5.5c0.9-1.4,1.6-3,2.4-4.5c0.7-1.3,0.4-3.1-0.6-4c0-0.1,0.1-0.2,0.1-0.3
		c1.3-1.6,1.3-3.4,1.1-5.3c-0.1-0.9-1.3-2.1-2.1-2.3c-1.1-0.2-1.9,0.1-2.5,1c-0.4,0.7-0.9,1.3-1.3,1.9c-0.1,0.2-0.3,0.3-0.6,0.5
		c0-0.3,0-0.6,0-0.9c0.4-2,1.4-3.3,3.5-3.8c1.2-0.3,2.4-0.4,3.7,0.2c0.4,0.2,1,0.2,1.5,0.3c0.4,0.1,0.9,0.1,1.4,0.1
		c-0.5,0.5-0.9,0.9-1.3,1.4c-0.8,0.9-0.9,2-0.5,3.1c0.5,1.2,1,2.3,1.5,3.5c-1.9,1-2.6,2.9-1.6,5c0.3,0.6,0.4,1.2,0.3,2
		c-0.2,1-0.1,2-0.1,3c0.1,3.1,0.3,2.2-1.9,4.2c-0.6,0.5-0.8,1.1-1,1.8c-0.7,3.3,0.6,6.1,2.6,8.6c1.1,1.3,1.6,2.7,1.7,4.4
		c0,0.6,0.1,1.1,0.2,1.7c0.1,0.2,0.4,0.3,0.6,0.5c0.1-0.2,0.3-0.5,0.2-0.7c-0.6-2.9-1-5.8-3.3-8.1c-1.7-1.7-1.7-3.9-1.4-6.1
		c0.1-0.4,0.4-0.8,0.7-1.1c0.2-0.3,0.5-0.5,0.7-0.7c1.5-1.2,1.9-2.7,1.6-4.5c-0.1-0.8,0-1.6,0.1-2.4c0.1,0.3,0.2,0.5,0.3,0.8
		c0.6,1.6,1.2,3.2,1.7,4.8c0.2,0.5,0.2,1,0.2,1.5c0,5.3,0.1,10.6,0.1,15.9c0,1.1-0.2,2.3-0.2,3.4c0.1,1.3,0.2,2.7,0.5,4
		c0.3,1.4,0.8,2.7,1.2,4.1c0.1,0.3,0,0.7-0.2,1c-0.8,1.2-1.6,2.4-2.5,3.5h1.1c0.2-0.2,0.3-0.5,0.5-0.7c0.4-0.6,0.8-1.1,1.3-1.6
		c0.5-0.5,0.8-0.4,1.1,0.2c0.3,0.6,0.6,1.2,0.9,1.8c0,0.1,0,0.2,0,0.3h2.1c0.1-0.1,0.2-0.2,0.4-0.3c1.3-1.3,2.7-2.5,4-3.9
		c2.6-2.8,5.2-5.6,7.8-8.4c0.1-0.1,0.2-0.3,0.4-0.7c0.9,1.2,1.5,2.2,2.3,3.2c0.3,0.4,0.2,0.7-0.2,1c-1.9,1.7-3.8,3.3-5.7,5
		c-0.4,0.3-0.7,0.8-1,1.2c-0.5,1-1.2,2-1.9,2.9h0.9c1.7-2.7,3.9-4.9,6.4-6.8c0.6-0.5,1.1-1,1.7-1.5c0.3-0.3,0.6-0.3,0.9,0.1
		c0.5,0.5,1,0.9,1.6,1.3c1.4,0.9,1.9,2.2,1.6,3.7c-0.2,1.6-0.2,2.4,0.7,3.2h2c-0.2-0.1-0.4-0.3-0.7-0.4c-1-0.6-1.5-1.4-1.3-2.6
		c0-0.2,0-0.5,0.1-0.7c0.2-1.7-0.3-3.2-1.9-4c-1.5-0.8-2.5-2-3.1-3.5c-0.3-0.6-0.8-1-1.1-1.6c-0.9-2-0.5-4.1,0.1-6
		c0.9-2.6,1.7-5.1,2.1-7.8c0.1-0.6,0.4-0.8,1-0.8c0.4,0,0.9-0.3,1.2-0.5c0.6-0.4,1.1-0.9,1.7-1.4c1-0.8,1.9-1.7,2.9-2.5
		c1.8-1.4,3.6-2.8,5.3-4.2c0.6-0.5,1.2-0.9,1.8-1.3c1.6-1.2,3.1-0.9,4.7,0c0.7,0.4,1.5,0.9,2.2,1.3c1.7,1.1,3.7,1,5.6,1.2
		c0.8,0.1,1.6,0.3,2.3,0.6c0.3,0.1,0.4,0.5,0.7,0.8c0.1,0.1,0.2,0.3,0.4,0.4c0.6,0.4,1.3,0.8,1.8,1.3c1.8,1.9,2.9,4.3,4,6.7
		c0.2,0.5,0.4,1,0.7,1.5c1.8,3,2.4,6.3,2.8,9.7c0.6,4.7,0.5,9.4,0.6,14h1.4c0-5.2-0.3-10.4-0.9-15.5c-0.3-2.9-0.8-5.6-2.4-8.1
		c-1.1-1.8-1.9-3.7-3-5.5c-1-1.6-2.1-3.1-3.3-4.6c-0.7-0.8-1.4-1.6-1.1-2.8c0.1-0.6,0.2-1.1,0.2-1.7c0-2,0-4-0.2-5.9
		c-0.1-1.1-0.4-2.3-0.9-3.3c-1.1-2.3-2.3-4.5-3.4-6.8c-1.9-4.1-3-8.6-4.2-12.9c-1.4-5-2.5-10.1-3-15.2c-0.3-2.8-0.9-5.5-2.1-8.1
		C87.6,32,86.9,30,86.1,28c-0.7-1.7-1.3-3.4-2.2-5.1c-1.1-2.2-2.5-4.3-3.6-6.5c-1.3-2.5-2.7-4.9-4.8-6.9c-0.4-0.4-0.8-0.9-1.1-1.4
		c-2.1-3.1-4.8-5.3-8.5-6.3c-0.3-0.1-0.6-0.1-0.8-0.2c-1.3-0.2-2.6-0.3-3.9-0.6c-1.2-0.2-2.3-0.6-3.5-0.7C54.3,0.2,50.9,0.1,47.4,0
		c-3.8-0.1-7.6,0.7-11.1,2.2c-1.6,0.7-3.2,1.4-4.7,2.2c-3.1,1.5-6.1,3.1-8.4,5.7c-0.5,0.6-1.2,0.9-1.6,1.5c-1.1,1.5-2.2,3.1-3.3,4.6
		c-1.3,1.9-2,4.1-2.7,6.3c-0.6,1.6-1.1,3.2-1.9,4.6c-0.9,1.6-1.6,3.3-1.6,5.2c0,3.5-0.5,6.9-1.8,10.1c-1.1,2.6-1.5,5.3-1.4,8
		C8.8,52.7,9,55,9.1,57.2c0.1,1.3,0,2.7,0.3,4c0.4,2.4,1,4.8,1.4,7.2c0.8,4.8,2.1,9.4,4,13.9c1.2,2.8,1.9,5.6,1.9,8.6
		c0,0.3,0,0.7-0.2,0.9c-0.3,0.4-0.8,0.6-1.2,0.9c-3.3,2.2-6.4,4.7-9.1,7.7c-2,2.2-3.8,4.5-4.3,7.5c0,0.3-0.1,0.5-0.2,0.7
		c-0.7,1.8-1.1,3.6-1.2,5.5c0,2.4-0.4,4.9-0.5,7.3c0,0.9,0,1.9,0,2.8H1.1z M32.5,115.9c-0.3,1.8-0.5,3.7-1.4,5.4
		c-0.3,0.6-0.3,1.4-0.6,2.1c-0.2,0.7-0.9,0.9-1.3,0.3c-1-1.4-2.4-2.6-2.9-4.3c0-0.1-0.1-0.2-0.2-0.3c-1.2-1.6-0.5-3.7,1.5-4.2
		c0.6-0.2,1.2-0.2,1.8-0.3c0.6-0.1,1.2-0.2,1.8-0.3C32.7,114.4,32.7,114.4,32.5,115.9z M43.2,81.1c-0.7,0.8-1.5,1.1-2.5,0.6
		c0.5-0.7,1.1-1.4,1.7-2c0.1-0.1,0.8,0.1,0.9,0.4C43.4,80.3,43.4,80.8,43.2,81.1z M41.3,71.8c0.3-0.1,0.7,0.1,1.2,0.1
		c-0.7,1.6-1.3,1.9-2.9,1.8C40.1,73,40.5,72.2,41.3,71.8z M49.1,70.7c0.7,0,1.5,0.7,1.2,1.4c-0.2,0.5-0.9,0.9-1.3,1.3
		c-0.7-0.2-1.7-1.1-1.7-1.5C47.2,71.4,48.3,70.7,49.1,70.7z M47.9,78.7c0.4,0,1.3,1.1,1.3,1.7c-0.1,0.6-0.6,0.8-1.1,0.8
		c-0.8,0-1.5-0.6-1.4-1.1C46.7,79.6,47.4,78.7,47.9,78.7z M71.5,93.6c-0.5,2.3-1.1,4.5-1.6,6.8c-0.2,1-0.5,1.9-0.8,2.9
		c-0.3,1.3-0.5,2.6-0.7,3.9c-0.2,1.8-0.9,3.2-2.2,4.5c-2.6,2.6-5.1,5.4-7.7,8.1c-1.2,1.2-2.5,2.3-3.7,3.5c-0.5,0.4-0.7,0.1-0.9-0.3
		c-1.3-2.1-2.1-4.5-3-6.9c-0.7-2-0.6-4.1-0.6-6.2c0.1-3.4-0.1-6.8-0.1-10.2c0-2.2-0.1-4.5,0-6.7c0.1-1.9-0.6-3.5-1.2-5.2
		c-0.7-1.8-1.5-3.5-2.3-5.3c-0.2-0.5-0.3-1-0.4-1.5c0.1,0,0.1-0.1,0.2-0.1c0.8,0.7,1.7,0.8,2.6,0.2c0.1-0.1,0.5,0.1,0.6,0.3
		c1.4,2,2.8,4,4.1,6c1.4,2.1,2,4.5,2.4,7c0,0.1,0,0.3,0,0.4c0.2,0.2,0.4,0.4,0.6,0.6c0.2-0.3,0.5-0.6,0.4-0.8
		c-0.4-1.6-0.8-3.3-1.4-4.9c-0.7-2-1.9-3.6-3.2-5.3c-0.5-0.7-1-1.4-1.4-2.1c-1.5-2.7-3-5.4-4.4-8.1c-0.3-0.6-0.4-1.3,0-2.2
		c1.1,1.4,2.3,2.1,3.7,0.3c0.5,0.7,0.9,1.3,1.4,1.9c1.2,1.5,2.3,3.1,3.5,4.5c1.7,2.1,2.9,4.5,4,7c0.5,1.2,1,2.5,1.5,3.7
		c0.2,0.4,0.6,0.7,0.9,1.1c0.1,0,0.2-0.1,0.3-0.1c-0.1-0.4,0-0.9-0.2-1.2c-0.9-2.1-1.9-4.1-2.9-6.2c-1.2-2.7-3.1-4.9-5-7
		c-0.7-0.8-1.3-1.8-2-2.7C52.1,73.2,52,73,52,72.9c0.8-0.3,1.6-0.6,2.3-0.9c0.2-0.1,0.5,0,0.7,0.1c1.6,1.1,3.4,2,4.8,3.3
		c2.2,2,4,4.2,5.1,7c0.9,2.2,1.7,4.4,2.5,6.6c0.2,0.6,0.4,1.2,0.6,1.8c0.1,0.1,0.3,0.2,0.5,0.3c0.1-0.2,0.2-0.4,0.2-0.5
		c-0.2-0.8-0.3-1.7-0.6-2.5c-0.6-1.7-1.2-3.4-1.8-5.2c-0.5-1.6-1.4-2.9-2.4-4.1c-0.7-0.9-1.4-1.8-2-2.8c1.5,0.5,3.1,0.8,4,2.3
		c1.6,2.7,3.3,5.3,4.1,8.4c0.5,1.7,1,3.4,1.5,5.1C71.7,92.4,71.6,93.1,71.5,93.6z M51.2,70.4c0.3-0.2,0.7-0.3,1.2-0.5
		c0.2,0.2,0.4,0.3,0.6,0.5c0.2,0.2,0.3,0.4,0.4,0.5c0.1,0.2,0.4,0.5,0.4,0.6c-0.2,0.2-0.5,0.5-0.8,0.6c-0.7,0.2-1.8-0.5-2-1.2
		C51,70.8,51.1,70.5,51.2,70.4z M80.5,43.2c1.1,1.1,1.6,2.3,1.8,3.9c0.3,2.4-0.4,4.6-1.1,6.9c-0.4,1.3-1,2.5-1.5,3.8
		c-0.2,0.5-0.2,1-0.4,1.5c-0.5,1.8-1.6,3.1-3,4.3C76,63.8,75.5,63.9,75,64c-0.8,0-1.2-0.4-1.3-1.2c0-0.8,0-1.5,0-2.3
		c-0.1,0-0.1,0-0.2,0c0.3-2,0.6-4,1-6c0.5-2.6,1.1-5.1,1.7-7.7c0.4-1.9,1.8-3.1,3.5-3.7C79.9,42.9,80.4,43.1,80.5,43.2z M23.3,43
		c0.1-0.5,0.3-1.2,0.7-1.6c1-0.9,2.2-1.6,3.3-2.4c0.4-0.3,0.9-0.5,1.3-0.9c1.8-1.6,4-2.1,6.3-2.4c1.5-0.2,3.1-0.5,4.6-0.6
		c0.7-0.1,1.4,0,2.2,0c0.5,0,1,0.1,1.5,0.1c1.7,0,2.2-0.5,2.1-2.2C45.2,32,45,31.1,45,30.2c-0.1-4.4-0.2-8.8-0.3-13.2
		c0-1.3-0.2-1.4-1.5-1.2c-2.1,0.3-4.2,0.5-6.3,0.7c-2.4,0.2-4.6,0.8-6.7,2.2c-0.5,0.4-1.2,0.5-1.8,0.8c-0.4,0.2-0.8,0.5-1.2,0.8
		c-1.1,0.8-2.3,1.5-3.4,2.3c-0.1-0.2-0.2-0.3-0.1-0.3c0.9-1.7,1.7-3.4,3-4.8c0.7-0.7,1.2-1.6,1.8-2.4c0.2-0.3,0.4-0.6,0.7-0.8
		c0.9-0.7,1.9-1.4,2.7-2.2c2-2,4.6-2.7,7.2-3.3c1.2-0.3,2.4-0.3,3.6-0.4c0.5,0,1.1,0,1.5-0.2c3-0.8,5.9-0.8,8.9,0.1
		c0.7,0.2,1.4,0.7,2.1,0.9c1,0.3,2.1,0.5,3.1,0.9c1.1,0.4,2.2,0.9,3.4,1.4c0.2,0.1,0.4,0.2,0.6,0.3c2.1,1.2,4.2,2.2,6.1,3.5
		c1.1,0.7,2.1,1.8,2.9,2.9c2.3,2.9,4.5,5.9,6.6,9c0.5,0.7,0.8,1.6,0.9,2.4c0.4,2.7,0.7,5.5,1,8.2c0.1,1.1,0.1,2.2,0.1,3.3
		c0,0.4-1.4,1.2-1.8,1c-0.1-0.1-0.2-0.2-0.2-0.4c-0.3-1.2-0.6-2.4-0.7-3.7c-0.2-1.8-0.8-3.3-1.7-4.9c-0.5-0.9-0.7-2-1.1-2.9
		c-0.8-1.9-1.9-3.5-3.5-4.9c-1.1-1-2.1-2.3-3.5-3c-1.2-0.5-2.3-1.1-3.5-1.7c-1.5-0.7-3-1.5-4.6-2.1C57.7,18,55.8,17.5,54,17
		c-1.5-0.4-2.9-0.8-4.4-1c-0.8-0.2-1.6-0.2-2.4-0.2c-0.4,0-0.7,0.1-0.6,0.6c0.2,3.5,0.3,7,0.5,10.5c0.1,2.1,0.3,4.3,0.6,6.4
		c0,0.4,0.4,0.8,0.8,1c2.1,1.7,4.4,2.8,7.3,2.3c0.8-0.1,1.6-0.2,2.5-0.3c1.8-0.1,3.2,1,4.6,2c0.8,0.6,1.6,1.2,2.5,1.7
		c1.1,0.5,1.7,1.3,1.9,2.5c0.1,0.5,0.2,1.1,0.2,1.6c0.1,1.8,0.9,3.4,2.2,4.6c0.8,0.8,1.2,1.7,1.4,2.8c0.2,1.2,0.8,2.4,1.2,3.6
		c0.1,0.4,0.4,0.8,0.4,1.2c0.1,1.7,0.2,3.4,0.2,5.1c0.1,2-0.3,4-0.8,5.9c-0.6,2.2-0.9,4.6-1.5,6.8c-0.5,1.7-1.3,3.4-1.9,5.1
		c-0.1,0.2-0.2,0.4-0.5,0.7c-0.3-0.5-0.6-0.9-0.8-1.3c-0.8-1.5-2-2.5-3.6-3c-1.3-0.5-2.7-0.8-3.9-1.4c-1.1-0.5-2.1-1.3-3.1-2.1
		c-1-0.7-1.9-1.6-2.9-2.3c-0.4-0.3-0.9-0.3-1.4-0.5c-2.1-0.9-4.4-0.3-6.6-0.8c-1.1-0.3-2.3-0.5-3.3-0.7c0-1.5,0.2-3.1,0.1-4.7
		c-0.2-1.5-0.6-2.9-1.2-4.3c-0.2-0.5-1-0.7-1.5-1c-0.6-0.4-1.2-0.7-1.7-1.1c-0.4-0.3-0.7-0.6-1.2-0.8c-2.4-0.6-4.8-1.6-7.4-1.3
		c-0.9,0.1-1.7,0.5-2.6,0.7c0,0.1,0,0.2,0,0.3c0.2,0.1,0.4,0.3,0.6,0.3c2.1,0.3,4.2,0.5,6.3,0.8c0.9,0.1,1.8,0.5,2.8,0.8
		c0.6,0.2,1.3,0.3,1.9,0.4c1.2,0.1,2,0.7,2.5,1.7c0.6,1.3,1.1,2.6,1,4c-0.1,1.2-0.1,2.5-0.2,3.7c0,0.5-0.3,0.8-0.8,0.9
		c-3,0.7-4.5,2.9-4.5,5.7c0,1.1-0.7,1.2-1.4,1.6c-0.1-0.6-0.2-1-0.4-1.5c-0.2-0.7-0.7-1.1-1.5-1.1c-1.9,0.1-3.5,1-5,2.1
		c-0.2,0.2-0.4,0.3-0.8,0.6c-0.3-1-0.5-1.8-0.7-2.6c-0.8-3.5-1.8-7-2.5-10.6c-0.4-1.9-0.5-3.8-0.7-5.7c-0.1-0.4-0.1-0.9-0.2-1.3
		c-0.2-3.1-0.3-6.2-0.4-9.2C23.2,45.1,23.2,44,23.3,43z M33.7,74.1c-0.6,0.6-1,1.1-1.6,1.5c-0.3,0.2-0.9,0.1-1.2-0.1
		c-0.5-0.2-0.5-0.7,0-1C31.7,74.1,32.6,73.8,33.7,74.1z M23,82.4c1.1-1.5,2.2-3.1,3.3-4.7c0.3-0.4,0.7-0.7,1.1-1
		c0.9-0.6,1.8-1.1,2.8-1.7c0.1,0.2,0.3,0.3,0.4,0.5c0.7,0.8,1.6,0.9,2.3,0.2c0.4-0.4,0.8-0.8,1.2-1.3c0.6,0.8,0.4,1.9-0.4,2.4
		c-2.1,1.3-4.1,2.5-6.3,3.6c-1.2,0.6-1.9,1.5-1.9,2.9c0.1,1.5,0.3,3.1,0.5,4.6c0,0.1,0.3,0.2,0.5,0.4c0.1-0.2,0.2-0.4,0.1-0.6
		c-0.5-1.6-0.8-3.2-0.6-4.8c0-0.7,0.4-1.1,1-1.4c2.8-1.5,5.5-3.1,8.3-4.8c0.6-0.4,1.2-0.9,1.7-1.3c0.2-0.1,0.4-0.3,0.6-0.4
		c0.1,0.1,0.1,0.1,0.2,0.2c-0.3,0.5-0.7,1-1,1.5c-0.6,1-1.2,2-1.8,3c-0.6,1.2-1.2,2.5-1.9,3.7C33,83.7,32.4,83.8,32,84
		c-0.4,0.1-0.9,0.2-1.4,0.3c0.5,0.6,1.2,0.1,1.9,0.3c-1,2.9-1.8,5.8-2.1,8.7c0.1,0,0.2,0.1,0.3,0.1c0.2-0.3,0.4-0.6,0.5-0.9
		c0.9-4.4,2.4-8.6,4.5-12.5c0.9-1.8,2.1-3.4,3.1-5.1c0.1-0.2,0.4-0.4,0.5-0.4c1.6,0.2,2.8-0.4,3.5-2c0.2,0.2,0.3,0.3,0.4,0.4
		c0.3,1.4,0.5,2.9-0.5,4.1c-0.7,0.9-1.4,1.8-2.2,2.6c-2.2,2.3-3.6,5.1-4.8,8c-1,2.3-1.6,4.6-1.8,7.1c0,0.4-0.2,0.8-0.3,1.2
		c0,0.2,0,0.4,0,0.6c0.1,0,0.2,0,0.3,0c0.2-0.5,0.4-1,0.5-1.6c0.2-1.2,0.3-2.4,0.6-3.5c0.6-2,1.2-4,2.1-5.8c0.7-1.4,1.9-2.6,2.9-3.9
		c0.1-0.1,0.3-0.2,0.5-0.3c0.3,0.7,1,0.5,1.5,0.5c0.2,0,0.5-0.1,0.9-0.3c-0.1,0.4-0.1,0.6-0.2,0.7c-1,1.9-2,3.9-3.2,5.7
		c-0.7,1.1-1,2.2-1.3,3.4c-0.6,2.6-1.4,5.1-2,7.7c-0.4,2-0.5,4.1-0.9,6.1c-0.5,2.2-1.1,4.4-1.7,6.6c0,0.2-0.2,0.3-0.3,0.6
		c-0.1-0.3-0.3-0.5-0.3-0.7c-0.4-2.4-1.5-4.5-2.4-6.8c-1.3-3.2-2.3-6.5-3.5-9.7c-0.6-1.6-1.3-3.1-2.1-4.6c-0.8-1.7-1.7-3.4-2.5-5.1
		C22.1,84.7,22.1,83.6,23,82.4z"/>
	<path class="st0" d="M60.9,57c0.7,0,1.4-0.1,2,0c1.1,0.1,1.5,1.1,0.9,2c-0.4,0.6-1,1.1-1.6,1.5c-1.2,0.7-2.3,1.5-3.8,1.5
		c-0.3,0-0.6,0-0.9,0c-1.5-0.1-3-0.3-4.5-0.4c-0.3,0-0.7,0-1-0.2c-0.7-0.3-0.8-0.7-0.4-1.4c0.9-1.4,2.2-2.1,3.7-2.4
		c1.8-0.3,3.7-0.5,5.5-0.8C60.9,56.9,60.9,56.9,60.9,57z M52.5,60.8c1.3,0,2.6,0,4,0c-0.8-0.7-1-1.3-0.6-2.3
		C54.5,58.9,53.1,59,52.5,60.8z M60.1,57.9c0.1,0.6,0.2,1.1,0.2,1.5c-0.1,0.4-0.3,0.8-0.6,1.4c1.4-0.8,2.7-1.3,3.6-2.8
		C62.1,58,61.1,58,60.1,57.9z"/>
	<path class="st0" d="M33.8,58.4c2-0.3,3.8,0.2,5.4,1.2c0.6,0.4,1,1,1.4,1.5c0.1,0.1-0.1,0.5-0.3,0.6c-1.7,1-3.5,1.8-5.6,1.6
		c-1.8-0.2-3.5-0.7-5-1.6c-0.6-0.4-0.9-1.2-1.3-1.9c0-0.1,0.2-0.5,0.4-0.5C30.5,59,32.1,57.9,33.8,58.4z M35.7,62.5
		c1.4,0.3,2.5-0.3,3.5-1c0.1-0.1,0.2-0.5,0.1-0.6c-0.7-1-1.8-1.3-3-1.6C37,60.5,36.6,61.5,35.7,62.5z M32.2,62
		c0.1-0.8,0.1-1.5,0.2-2.4c-1,0.2-1.9,0.4-2.9,0.6C30.1,61.3,31.3,61.4,32.2,62z"/>
	<path class="st0" d="M65.4,52.5c-0.2,0.1-0.5,0.3-0.7,0.4c-1.2,0.3-2.4,0.4-3.6,0.9c-3.2,1.2-6.3,2.6-9.5,3.9c-0.3,0.1-0.6,0-0.9,0
		c0.2-0.3,0.3-0.6,0.5-0.8c1.8-0.9,3.5-2,5.5-2.4c1.5-0.3,2.8-1.2,4.3-1.7c1.2-0.4,2.4-0.5,3.7-0.7c0.2,0,0.5,0.1,0.7,0.2
		C65.3,52.3,65.4,52.4,65.4,52.5z"/>
	<path class="st0" d="M76.3,52.1c0.1-0.4,0.3-0.9,0.3-1.3c0-1.9,1.3-3.3,1.9-5c0.3-0.8,1.1-0.7,1.8-0.7c0.7,0.1,0.8,0.7,0.9,1.2
		c0.6,1.7,0.2,3.4-0.4,5c-0.7,1.9-1.3,3.9-2.1,5.7c-0.3,0.8-0.9,1.6-1.9,1.8c-0.3,0-0.6-0.1-0.9-0.2c0.2-0.2,0.3-0.4,0.6-0.6
		c1.5-0.8,2.3-2.2,2.7-3.9c0.4-1.5,0.8-2.9,1.2-4.3c0.3-1.1,0.9-2.2,0.3-3.4c-0.2-0.5-0.5-0.8-1-0.7c-0.3,0.1-0.7,0.4-0.8,0.7
		c-0.6,1.6-1.1,3.2-1.6,4.9c-0.1,0.3-0.3,0.6-0.5,1C76.6,52.2,76.4,52.1,76.3,52.1z"/>
</g>
</svg>
