<?xml version="1.0" encoding="utf-8"?>
<!-- Generator: Adobe Illustrator 19.2.1, SVG Export Plug-In . SVG Version: 6.00 Build 0)  -->
<svg version="1.1" id="Layer_1" xmlns="http://www.w3.org/2000/svg" xmlns:xlink="http://www.w3.org/1999/xlink" x="0px" y="0px"
	 viewBox="0 0 199.6 200" style="enable-background:new 0 0 199.6 200;" xml:space="preserve">
<style type="text/css">
	.st0{fill:#512DA8;}
</style>
<g id="icon-child-sinuspain">
	<path class="st0" d="M98.4,199.8c1.3-1.6,2.5-3.3,4.1-4.7c3.8-3.5,7.9-6.5,12.2-9.2c5.3-3.3,10.4-6.9,15.7-10.2
		c3.6-2.3,7.1-4.6,11.1-5.9c2.3-0.7,4.4-2.2,6.7-3.1c4.3-1.8,8.7-2.5,13.4-2.1c0.1,0,0.2,0,0.5-0.1c-11.2-16.4-19.1-34.1-23.4-53.2
		c-1.3,0.1-2.6,0.3-3.9,0.4c-2.3,0.1-4.4-0.7-6.3-2c-3.1-2.1-6.4-4.1-9.1-6.9c-0.9-1-1.9-2.1-3-2.8c-2.8-1.8-4.6-4.4-6.6-7
		c-0.7,1.8-1.4,3.5-2,5.3c-0.7,2.3-1.6,4.4-3,6.3c-1.7,2.4-4.1,3.7-6.7,4.9c-0.6,0.3-1.3,0.2-2,0.2c-1,0-2-0.2-2.9,0
		c-1.7,0.2-2.7-0.6-3.6-1.8c-0.6-0.7-1.3-1.5-1.6-2.3c-0.2-0.8,0-1.7,0.2-2.5c0.3-1.5,0.9-2.8,2.4-3.6c0.1-0.1,0.3-0.2,0.3-0.3
		c0.4-1,0.8-2,1-3.1c0.1-0.5-0.1-1.1-0.3-1.7c-0.3-1-0.3-2,0.2-2.9c0.4-0.6,0.9-1,1.7-0.8c0.7,0.2,0.6,0.8,0.6,1.4
		c0,2.1-0.4,4-1.3,5.9c-0.1,0.3,0,0.8,0,1.1c0.5,0,1,0.1,1.4-0.1c0.3-0.1,0.5-0.5,0.7-0.9c0.6-1,1.5-1.7,2.6-2
		c3.1-0.9,3-2.1,2.4-4.3c-0.5-1.7-1.6-3-3.4-3.2c-1.7-0.2-2.9-1.1-4.1-2c-2.1-1.5-3-3.4-2.4-6c0.3-1.1,1-1.9,2.1-2.2
		c0.4-0.1,0.9,0,1.2,0.2c0.3,0.2,0.4,0.7,0.3,1.1c0,0.2-0.6,0.5-0.8,0.4c-0.8-0.2-1.1,0.3-1.2,0.9c-0.3,1.7-0.1,3.2,1.5,4.2
		c1.2,0.7,2.5,1.5,3.8,1.8c2.3,0.6,4.8,3.4,4.6,6c0,0.3,0,0.5,0,0.8c0.3,2-1.3,3.2-2.7,3.5c-1.3,0.3-2.3,0.8-3,2.1
		c-0.7,1.3-2.1,1.6-3.5,1.3c-1-0.2-1.8,0.2-2.2,1c-0.6,0.9-1,2-0.4,3.1c1.7,3.1,1.7,3,5.2,3.1c3.5,0.1,5.9-1.8,8-4.3
		c1.8-2.1,2.5-4.7,3.3-7.2c0.4-1.4,1.1-2.7,1.4-4.1c0.3-1.7,0.4-3.4,0.5-5.1c0-0.3-0.1-0.7-0.2-0.9c-0.9-2.1-1.7-4.2-3.2-6
		c-0.8-1-1.5-2-2.3-3c-1.4-1.7-3.2-2.3-5.3-2.3c-3.8,0-6.6,1.7-8.6,4.8c-0.7,1.1-1,2.6-1.4,3.9c-0.3,0.9-0.6,1.9-1.1,2.8
		c-0.6,1.2-2.3,1.4-3.6,0.5c-0.9-0.6-1.7-1.3-2.5-2.1c-2.4-2.5-5.4-3.9-8.8-4.7c-2-0.4-4-0.7-5.9-1.4c-3.8-1.4-7.1-3.7-10-6.6
		c-2.6-2.6-3.6-5.9-4.9-9.1c-1-2.7-2.9-4.8-5.5-6.3c-1.8-1-3.5-2.4-5.3-3.6c-0.9-0.6-1.8-1.1-2.7-1.7c-1.3-0.9-2.5-1.8-3.7-2.8
		c-0.7-0.5-1.8-0.3-2,0.5c-1,3.1-1.8,6.3-1.8,9.6c-0.1,3.3-0.1,6.5-0.3,9.8c-0.2,3.5,0.1,6.9,1.5,10.2c0.5,1.2,0.7,2.5,1.1,3.7
		c0.5,1.6,1.6,2.2,3.3,1.9c1.3-0.2,2.7-0.5,4-0.4c1.2,0.1,2.5,0.7,3.6,1.1c0.2,0.1,0.4,0.8,0.3,1.1c-0.2,0.5-0.7,0.5-1.1,0.2
		c-2-1.2-4-1.1-6.2-0.6c-0.7,0.2-1.4,0.3-2.3,0.4c0.3,0.8,0.7,1.5,1,2.3c0.1,0.1,0.1,0.3,0.2,0.4c0.4,0.7,0.6,1.7,1.2,2.1
		c0.5,0.3,1.5-0.2,2.2-0.3c1.9-0.3,3.7,0.2,5.3,1.3c0.7,0.4,1.4,0.8,2.1,1.1c1,0.4,1.2,1.5,0.3,1.9c-1.9,0.9-3.4,2.2-4.8,3.6
		c-0.2,0.2-0.9,0.2-1,0c-0.2-0.3-0.2-0.8,0-1.1c0.5-0.6,0.3-0.9-0.2-1.2c-0.7-0.4-1-1-1-1.8c0-1.6-0.4-1.9-2.1-1.8
		c-0.1,0.9-0.2,1.8-0.3,2.7c0,0.1,0.1,0.2,0.1,0.3c1,1.6,1.9,3.3,3,4.8c1.5,2,1.1,4.4,1.4,6.7c0.1,1.1,0.4,2.1,1,3
		c1.8,2.3,1.7,4.7,0,7c-0.1,0.2-0.2,0.3-0.4,0.4c1.3,1.6,2.3,1.8,4.1,1c0.2-0.1,0.4-0.2,0.6-0.2c0.3,0,0.9,0.1,1,0.3
		c0.1,0.2,0,0.9-0.2,1c-0.7,0.4-1.4,0.8-2.1,1c-1.3,0.3-1.3,0.4-0.5,1.5c0.9,1.2,1,2.6,0.4,4c-0.5,1.3-0.5,1.6,0.8,2
		c2.1,0.7,4.3,1.3,6.4,2c1.9,0.7,2.3,2.5,1,4.1c-0.4,0.5-0.8,0.9-1.2,1.4c-0.4,0.5-0.7,1-1.1,1.6c1.4,0.7,2.4,1.8,2.8,3.4
		c0.1,0.6,0.2,1.1,0.2,1.7c0,1.8,0,3.5,0,5.3c0,1.5,1.2,3.3,2.6,3.7c1.5,0.4,3.1,0.7,4.6,1c0.4,0.1,0.9-0.1,1.4-0.2
		c0.2,0,0.4-0.2,0.6-0.2c2.7,0.5,5.2-0.5,7.6-1.3c3.6-1.3,7-2.9,10.6-4.2c2.2-0.8,4.1-1.9,5.8-3.3c1-0.8,1.9-1.9,2.7-3
		c2.6-3.6,4-7.7,4.5-12.1c0.3-2.8,0.3-5.6,0.4-8.3c0-0.2-0.1-0.5,0-0.7c0.2-0.3,0.5-0.6,0.8-0.9c0.3,0.3,0.7,0.6,0.7,1
		c0.1,0.9,0.1,1.9,0,2.8c-0.1,1.8-0.1,3.6-0.4,5.3c-0.3,2-0.8,4-1.2,6c-0.8,3.6-2.8,6.6-4.9,9.6c-0.8,1.1-2.1,1.8-3.2,2.7
		c2.3,1.5,4.1,3.5,5.5,5.8c0.8,1.2,1.3,2.7,2,4c1.1,2,2.2,4.1,3.3,6.1c1.1,1.9,2.4,3.7,3.2,5.7c0.9,2.4,1.4,5,2.1,7.5
		c0.4,1.4,0.9,2.7,1.3,4.1c0.5,1.6,0.9,3.1,1.3,4.7c0.1,0.3,0.1,0.7,0,1c-0.1,0.3-0.4,0.7-0.7,0.7c-0.3,0-0.8-0.1-1-0.4
		c-0.3-0.3-0.4-0.8-0.5-1.3c-0.7-2.2-1.3-4.4-2.1-6.8c-1.9,1.9-3.8,3.5-5.4,5.4c-2.2,2.5-3.1,5.7-4,8.9c-0.8,2.6-1.2,5.3-1.8,7.9
		c-0.1,0.3-0.1,0.5-0.2,0.8c-11.6,0-23.1,0-34.8,0c1-1.7,1.9-3.3,2.9-4.8c2.6-3.8,5.6-7.2,8.7-10.7c2.8-3.2,5.1-6.8,7.8-10
		c1.9-2.2,4.1-4.2,6.1-6.2c2.1-2,4.3-4,6.4-6c1.6-1.5,3.1-3,4.6-4.6c0.6-0.7,0.7-1.5,0.4-2.4c-1-2.8-2.8-5-5.1-6.9
		c-0.3-0.3-0.8-0.5-1.1-0.5c-1.1,0.1-2.3,0.2-3.3,0.6c-3.7,1.5-7.1,3.5-11,4.5c-2,0.5-4.1,1.3-6.2,1.4c-3.1,0.2-6.2-0.1-9.2-1.1
		c-1.6-0.5-3.8-3.1-3.7-5c0.1-1.7,0.2-3.5,0.2-5.3c0-2.4-1.1-4-3.9-4.2c-0.4,0-0.9-0.4-1.1-0.8c-0.4-1.1-0.5-2.3,0.2-3.4
		c0.7-1,1.4-2,2.2-3c-2.3-0.8-4.9-1-7-2.7c-1,0.4-2.1,0.9-3.2,1.4c-0.2,0.1-0.5,0.5-0.5,0.7c0.3,2,0.7,4.1,0.9,6.1
		c0.2,1.6,0,3.2,0.1,4.9c0.2,2.2-0.3,4.3-1.2,6.4c-0.1,0.3-0.1,0.8,0.1,1c1.4,1.3,1.7,3.1,1.8,4.8c0.2,4,0.2,8.1,0.2,12.1
		c0,1.2-0.5,2.4-0.7,3.7c-0.7,3.7-1.3,7.5-2.2,11.2c-0.7,3.1-1.7,6.1-2.5,9.1c-0.3,1.1-0.3,2.4-0.4,3.6c-0.1,2,0,4.1,0,6.2
		c-11.6,0-23.2,0-35,0c0.5-2,0.8-3.9,1.4-5.7c1.3-4.4,2.8-8.7,4.1-13.1c1-3.3,1.9-6.5,2.7-9.8c0.8-3.1,1.6-6.2,2-9.3
		c0.4-2.4,0.2-4.9,0.3-7.4c0.1-6.1-1.1-12-3.2-17.8c-0.6-1.7-1-3.4-1.7-5c-1.2-2.9-2.4-5.8-3.7-8.7c-1-2.1-1.1-4.3-0.8-6.4
		c0.2-1.1,1-2.1,1.6-3c2.9-4.1,5.8-8.3,8.7-12.4c1.3-1.8,2.6-3.5,3.9-5.2c0.6-0.8,1.5-1.1,2.5-1.1c3.6,0.1,7.3,0.2,10.9,0.2
		c1.8,0,3.7,0,5.6,0c0.2-1.1,0.1-2.1-0.4-3.1c-1.2-2.6-2.6-5.2-3.7-8c-1.1-3-2.1-6.1-2.7-9.2c-0.4-2.2-0.3-4.5-0.3-6.8
		c0-3.1,0.3-6.2,0.3-9.3c0.1-2.7,0.6-5.3,1.3-7.8c0.6-2.1,1.6-4.1,2.2-6.2c0.7-2.4,1.1-4.8,1.8-7.2c0.5-1.7,1-3.5,1.8-5.1
		c0.5-1.1,1.3-2.1,2.2-3.1c2.3-2.5,4.6-4.9,7-7.3c3-2.9,5.9-5.9,9.1-8.5c3.2-2.6,6.9-4.5,10.8-6C65.7,7,67.5,5.9,69.3,5
		c2.8-1.4,5.4-3.3,8.7-3.7c2.1-0.3,4.3-0.5,6.4-0.7c2.1-0.2,4.1-0.5,6.2-0.6c3.4-0.2,6.6,0.7,9.8,1.8c3.5,1.2,6.6,2.9,9.7,4.9
		c1.3,0.8,2.7,1.4,4.2,2c2.4,1,4.8,1.8,7.1,3c1.5,0.7,2.8,1.8,4,2.8c2.6,2.1,5.1,4.4,7.7,6.6c1.7,1.4,3,3.1,4.1,5
		c1.1,1.7,1.5,1.7,3.2,0.8c2.5-1.3,5.1-2.6,7.8-3.6c2.6-0.9,4.8,0,5.7,2c0.4,0.9,0.8,1.9,1.1,2.8c0.1,0,0.2,0.1,0.2,0.1
		c2.6-0.4,4.7,0.6,6.8,1.9c2.9,1.7,5.8,3.4,8.7,5.1c2,1.2,3.4,3,4.6,4.9c1.7,2.5,3.3,5.1,4.8,7.7c1.9,3.3,3.9,6.6,4.9,10.3
		c0.7,2.8,1.7,5.5,2.3,8.3c0.5,2.1,0.7,4.2,0.8,6.3c0.1,6.8-0.1,13.7,0.1,20.5c0.2,5.3,0.2,10.6,1.6,15.8c0.7,2.4,1,4.9,1.6,7.3
		c0.2,0.9,0.9,1.8,1.2,2.7c0.6,1.7,1.3,3.4,1.7,5.2c0.6,3,1.2,5.9,2.7,8.7c1,1.8,1.5,3.8,2.1,5.8c0.3,0.9,0.3,2,0.3,3
		c0.1,5,0.1,10,0.2,15c0.1,4.2-0.8,8.2-2.5,12.1c-0.2,0.5-0.5,0.6-1,0.4c-2.2-0.8-4.1-2-6.1-3.2c-2.1-1.3-3.8-2.9-5.4-4.8
		c-1.1-1.3-2.5-2.4-3.5-3.9c-2.7-4.2-6.8-7.4-8.7-12.1c-0.6-1.5-1-3-1.5-4.4c-0.3-0.8-0.6-1.6-1.2-2.2c-3-3.7-6.4-7.1-8.8-11.2
		c-2-3.4-4-6.9-5.6-10.5c-1.1-2.5-1.5-5.3-2.2-8c-0.8-2.8-1.8-5.7-2.2-8.6c-0.4-2.8-0.2-5.7-0.3-8.5c0-0.4,0.1-0.9,0.1-1.4
		c-0.1,0-0.2,0-0.2,0.1c-1.2,3.3-3.6,5.8-6,8.4c-1.8,1.9-2.9,4.2-3,7c0,0.8-0.4,1.5-0.5,2.2c-0.5,2.5-0.2,4.9,0.6,7.3
		c1.5,4.5,2.8,9.1,4.3,13.6c0.8,2.4,2,4.6,2.8,7c2.4,6.7,6.4,12.7,9.7,19c1.5,2.9,3.6,5.5,5.3,8.3c1.1,1.8,2.1,3.8,3,5.7
		c1.6,3.4,4,6.4,6.2,9.5c1.6,2.2,3.1,4.5,4.7,6.6c2.1,2.8,4.4,5.6,6.5,8.5c1.5,2,2.8,4.2,4.3,6.4c-29.9,0-59.7,0-89.6,0
		C98.5,199.9,98.4,199.8,98.4,199.8z M36.6,99.5c-0.5-0.9-0.7-2.1-2-2.2c-1.2-0.1-2.4-0.1-3.6-0.1c-3.7-0.1-7.5-0.1-11.2-0.3
		c-1.7-0.1-3.1,0.1-4.1,1.6c-1,1.6-2.1,3.1-3.2,4.6c-2.7,3.8-5.3,7.5-8,11.3c-0.9,1.3-1.8,2.5-1.7,4.3c0.1,1.9,0.7,3.4,1.4,5.1
		c0.8,1.9,1.8,3.7,2.5,5.6c1.3,3.8,2.4,7.6,3.7,11.4c0.9,2.7,1.6,5.4,1.6,8.3c0,1,0.4,1.8,1.2,2.3c2.5,1.7,4.8,3.7,7.6,4.9
		c1.8,0.8,3.5,1.9,5.3,2.6c3.2,1.3,6.4,1,9.7-0.2c2.2-0.8,3.3-3,2.8-5.2c-0.7-2.8-2.2-5.3-4-7.5c-1.2-1.4-2.1-2.9-2-4.9
		c0.1-2,0.1-4,0.4-6c0.5-2.8,1.9-4.9,4.8-5.9c1.7-0.6,3.4-1.1,4.7-2.4c1-1,1.2-2,0.4-3.2c-0.7-1-1.5-1.9-2.3-2.9
		c-0.1-0.2-0.4-0.3-0.6-0.3c-2.8-0.5-5.6-0.1-8.4,0.7c-1.2,0.3-2.1,1.1-2.7,2.2c-0.5,1-1.2,1.9-1.6,2.8c-1.2,2.6-2.6,5-4.4,7.2
		c-0.3,0.4-0.8,0.7-1.2,0.9c-0.2,0.1-0.7-0.2-0.8-0.4c-0.1-0.2,0.1-0.6,0.3-0.9c1.1-1.5,2.3-2.8,3.2-4.3c1.4-2.3,2.5-4.7,4-7
		c0.8-1.3,1.8-2.6,3.8-2.6c2.5,0,4.9-0.4,7.3-0.5c0.3-0.7,0.7-1.4,1.1-2.1c1-1.5,0.8-3.1-0.4-4.4c-0.3-0.3-0.7-0.7-0.9-1.1
		c-0.9-1.9-2.6-2-4.4-1.8c-2.4,0.2-4.9,0.6-7.3,0.6c-1.8,0-2.9,0.7-4,1.9c-1.8,1.9-3.3,3.9-4.5,6.3c-1.3,2.5-2.8,4.9-4.3,7.3
		c-0.1,0.2-0.5,0.4-0.7,0.3c-0.3-0.1-0.6-0.4-0.6-0.6c0.1-0.5,0.2-1.1,0.5-1.5c0.5-0.9,1.2-1.8,1.7-2.8c2-3.6,3.8-7.3,6.8-10.2
		c1.4-1.4,2.8-2.4,5-2.3c1.9,0.1,3.7-0.2,5.6-0.4c2-0.2,3.9-1.1,5.9-0.1c0-1.3,0.1-2.5,0-3.7c0-0.5-0.5-1-0.9-1.3
		c-0.6-0.4-1.3-0.6-1.9-1c-1-0.7-2-0.7-3.1-0.5c-1.2,0.2-2.4,0.4-3.6,0.4c-2.3,0-4.6-0.3-6.9-0.1c-3.1,0.3-5.9,1.6-7.4,4.5
		c-1.3,2.6-2.5,5.3-3.7,7.9c-0.8,1.7-1.5,3.4-2.2,5c-0.1,0.2-0.4,0.5-0.6,0.6c-0.3,0.1-0.7,0.1-0.9,0c-0.2-0.2-0.3-0.7-0.2-0.9
		c0.2-0.6,0.5-1.1,0.8-1.7c1.2-2.6,2.4-5.2,3.6-7.8c1.3-2.8,2.2-5.8,5.2-7.4c1.6-0.9,3.2-1.7,5.2-1.7c2.8,0,5.6,0,8.4,0
		c0.4,0,0.8-0.1,1.2-0.2C33.5,99.2,35,99,36.6,99.5z M155.8,71.5c0.1-0.2,0.2-0.5,0.3-0.7c0.6-1.8,1.1-3.6,1.7-5.3
		c0.5-1.6,1.2-3.1,1.8-4.7c1.6-4.3,2.4-8.6,1.6-13.2c-0.3-2-0.7-4-2.3-5.5c-0.7-0.6-1.2-0.7-2-0.2c-1.1,0.7-2.3,1.5-3.5,2
		c-2.7,1.3-5.4,2.7-7.4,5c-0.2,0.2-0.3,0.7-0.2,0.9c0.6,1.1,1.4,2.1,2.1,3.1c0.5,0.8,0.9,1.6,1.3,2.5c0.7,1.4,1.2,2.8,2,4.1
		c1.2,2.2,2.9,4.1,3.5,6.6C155,67.9,155.4,69.7,155.8,71.5z M148.8,28.1c-0.1,0-0.3,0-0.5,0.1c-2.5,0.9-5,1.7-7.5,2.7
		c-0.8,0.3-2,0.6-2,1.8c0,1.8,0,3.7,0.4,5.4c0.4,1.8,1.3,3.5,2.1,5.1c0.3,0.5,1.3,1.1,1.9,1c2.2-0.3,4.3-1.1,6.2-2.3
		c1.4-0.9,2.7-2,4-3c0.2-0.1,0.3-0.5,0.3-0.7c-0.4-1-0.7-2-1.2-2.9c-0.9-1.7-1.9-3.3-2.8-5C149.3,29.6,149.1,28.8,148.8,28.1z
		 M37.3,131.2c-0.6,0.5-1.1,0.8-1.4,1.3c-1.8,2.7-1.7,5.8-1.7,8.8c-0.1,2.6,2.3,3.8,3.4,5.8C39,141.9,38.4,136.7,37.3,131.2z
		 M48.6,137c0.4-0.3,0.8-0.4,1.1-0.7c0.7-0.9,1.4-1.8,2-2.7c0.1-0.2,0.2-0.5,0.2-0.7c0-0.2-0.1-0.5-0.3-0.6
		c-0.2-0.1-0.5,0.1-0.6,0.2c-0.5,0.5-1,1.1-1.5,1.7C49,135,48.2,135.7,48.6,137z"/>
</g>
</svg>
