<?xml version="1.0" encoding="utf-8"?>
<!-- Generator: Adobe Illustrator 19.2.1, SVG Export Plug-In . SVG Version: 6.00 Build 0)  -->
<svg version="1.1" id="Layer_1" xmlns="http://www.w3.org/2000/svg" xmlns:xlink="http://www.w3.org/1999/xlink" x="0px" y="0px"
	 viewBox="0 0 163 200" style="enable-background:new 0 0 163 200;" xml:space="preserve">
<style type="text/css">
	.st0{fill:#C2185B;}
</style>
<g id="pelvic-child-main">
	<path class="st0" d="M162.5,35.3c-0.4-2.2-0.8-4.3-1-6.5c-0.3-3.1-0.3-6.2-0.5-9.3c-0.2-3.1-0.3-6.2-0.7-9.2C160,6.9,160,3.4,159,0
		h-1.6c0.3,1.1,0.6,2.3,0.8,3.4c0.2,1.8,0.3,3.6,0.5,5.3c0.3,2.7,0.7,5.4,0.9,8.1c0.2,3.7,0.2,7.4,0.4,11.2c0.1,1.6,0.2,3.3,0.6,4.9
		c0.7,3.2,1.1,6.4,1,9.7c0,0.6-0.2,1.3-0.3,1.9c-0.7,2.6-2,5-3.4,7.4c-3.2,5.3-6,10.8-9.8,15.7c-1.2,1.6-2,3.5-2.9,5.3
		c-1.2,2.2-2.5,4.4-3.8,6.6c-1.3,2.4-2.5,4.8-4.5,6.8c-0.6,0.7-1.1,1.5-1.7,2.3c-1.2,1.7-2.3,3.5-3.7,5c-2.6,2.8-4.9,5.8-6.8,9.2
		c-2,3.5-4,7.1-7.2,9.9c-0.7,0.6-1.5,1.1-2.1,1.7c-2.6,2.6-5.5,5-8.5,7.2c-2.1,1.5-3.9,3.3-6.3,4.4c-0.2,0.1-0.3,0.1-0.5,0.1
		c-2-0.1-3.9-0.2-5.9-0.2c-2.4,0-4.8,0.2-7.1-0.5c-1.8-0.5-3.5-1.3-5.3-2c-1-0.4-1.9-0.9-2.8-1.4c-1.2-0.8-2.3-1.7-3.4-2.6
		c-0.2-0.1-0.3-0.4-0.3-0.6c0-0.8-0.1-1.6,0-2.3c0-0.3,0.4-0.8,0.7-0.8c1.4-0.2,4.3,0.2,5.4,1.9c0.8,1.2,1.8,2.3,2.8,3.4
		c1.2,1.3,2.6,2,4.5,1.8c2.5-0.2,3.5-1.9,2.3-4.1c-0.6-1.1-1-2.2-1.4-3.3c-0.5-1.4-0.8-2.8-1.3-4.2c-0.5-1.5-1.5-2.4-3.1-2.8
		c-1.9-0.4-3.7-0.8-5.6-1.3c-0.7-0.2-1.4-0.5-2.1-0.8c0.3-0.3,0.6-0.3,0.8-0.4c1.2-0.4,2.3-1,3.6-1.3c3.6-0.9,7.2-1.8,10.8-2.5
		c2.7-0.5,5.2-1.6,7.6-2.9c1.9-1.1,3.8-2.3,5.6-3.5c0.7-0.5,1.4-1,2-1.6c1.2-1.4,1.9-3.1,2.5-4.8c0.7-1.9,1.6-3.8,2.6-5.5
		c1.6-2.9,3.3-5.7,5-8.5c1.5-2.5,3-5.1,4.6-7.5c1.2-1.9,2.7-3.7,3.9-5.5c0.7-1,1.2-2.2,1.7-3.3c0.4-0.9,0.6-1.9,1.1-2.7
		c0.8-1.6,1.8-3.1,2.6-4.7c1.5-2.7,3.2-5.3,5.2-7.7c0.6-0.7,0.9-1.5,0.9-2.4c0.1-3.5-0.6-7-1.3-10.4c-1.1-4.7-1.6-9.5-1.8-14.3
		c-0.1-2.7-0.1-5.4-0.4-8c-0.2-2-0.6-4-1.1-5.9c-0.2-1-0.3-1.8,0.1-2.7h-1.7c0,0,0,0.1,0,0.1c-0.3-2-1.8-3.6-4.1-2.7
		c-6.3,2.7-12.9,1.9-19.5,1.4c-7.1-0.5-14.2-0.3-21.3,0.3c-0.4,0-0.7,0.1-1,0.2C69-1.2,52.5-1.3,36-0.8c-0.6,0-1.2,0.2-1.6,0.4
		c-0.2,0-0.5,0-0.7,0c0,0,0,0,0-0.1c-0.2-0.3-0.3-0.5-0.5-0.7c0-0.1-0.1-0.1-0.1-0.2C31.1-4.7,27-2.9,26.6,0h-1.3
		c-0.4,1.9-0.9,3.9-1.1,5.8c-0.3,3.4-0.6,6.8-0.6,10.2c-0.1,5.3-0.2,10.7,0,16c0.1,2.6,0.6,5.1,1.1,7.6c0.2,1.1,0.6,2.1,0.9,3.2
		c0.5,1.7,1,3.4,1.6,5c1.1,3.2,2.3,6.4,3.3,9.6c0.8,2.4,1.6,4.7,3,6.9c1.7,2.7,3.2,5.4,4.7,8.2c1.6,3,3.1,6,4.4,9.1
		c1.3,2.8,2.3,5.6,3.5,8.5c0.5,1.2,1.1,2.4,1.7,3.6c0.4,0.8,0.9,1.6,1.3,2.3c0.3,0.6,0.6,1.2,1,1.7c1,1.1,2,2.1,3.3,2.9
		c2.3,1.5,4.9,2.4,7.6,2.7c1.8,0.2,3.6,0.4,5.3,0.8c2.3,0.5,4.6,1.1,6.8,1.6c1.1,0.3,2.3,0.5,3.3,0.9c2.3,1,4.5,1.8,7,2.1
		c0.7,0.1,1.4,0.3,2.3,0.5c-0.7,0.5-1.2,0.8-1.6,1.2c-0.2,0.2-0.3,0.5-0.4,0.8c0.3,0,0.7,0.2,0.9,0c0.7-0.4,1.3-0.8,2-1.3
		c0.2,0.2,0.3,0.4,0.4,0.7c0.3,0.9,0.6,1.9,0.9,2.8c0.2,0.6,0.1,1-0.5,1.3c-1.6,1-2.1,2.7-1.3,4.5c0.3,0.6,0.5,1.2,0.9,2
		c-0.4-0.2-0.7-0.3-0.9-0.4c-1.8-1.1-2.9-2.7-4.1-4.4c-0.8-1.1-1.8-1.8-3.1-2.1c-1.3-0.2-2.6-0.3-3.9-0.4c-0.6-0.1-1.1-0.3-1.7-0.4
		c-0.2-0.1-0.5-0.3-0.7-0.3c-0.1,0-0.4,0.4-0.4,0.5c0.1,0.3,0.2,0.6,0.5,0.8c0.4,0.3,0.9,0.4,1.2,0.6v2.6c-0.1,0-0.1,0.1-0.2,0.1
		c-0.5-0.6-1.1-1.1-1.6-1.7c-0.3-0.3-0.5-0.8-1-0.4c-0.5,0.3-0.2,0.8,0.1,1c1.1,1.1,2.2,2.1,3.4,3.1c1,0.9,2.2,1.6,3.3,2.5
		c0.9,0.8,1.9,1.4,3.1,1.7c1.1,0.3,2.2,0.6,3.1,1.1c2.4,1.3,5,1.5,7.6,1.5c2.2,0,4.4,0,6.6,0c0.3,0,0.6,0.2,0.9,0.3
		c-0.1,0.3-0.2,0.7-0.4,1c-0.6,0.9-1.2,1.7-1.8,2.6c-0.1,0.2-0.3,0.5-0.5,0.6c-1.1,0.5-2.2,0.9-3.4,1.3c-2.1,0.6-4.3,0.9-6.6,0.6
		c0.1-0.6,0.3-1.2,0.3-1.8c0-0.2-0.3-0.5-0.4-0.7c-0.2,0.2-0.5,0.3-0.6,0.6c-0.2,0.4-0.2,1-0.4,1.4c-0.1,0.2-0.4,0.4-0.6,0.4
		c-1-0.2-2.1-0.5-3.1-0.8c-1.9-0.6-3.8-1.3-5.7-1.9c-2-0.6-4.1-1.1-6-1.8c-1.8-0.7-3.4-1.8-4.2-3.8c-0.2-0.6-0.7-0.5-1.1-0.2
		c-0.2,0.1-0.3,0.7-0.1,0.9c1.1,1.1,2.1,2.3,3.4,3.2c1.8,1.4,4,1.8,6.1,2.4c2.3,0.7,4.5,1.3,6.8,2.1c3.8,1.4,7.5,1.7,11.4,0.8
		c1.2-0.3,2.4-0.6,3.7-0.9c-0.2,0.5-0.3,1-0.6,1.4c-1.2,1.8-3,3.2-4.9,4.1c-2.1,0.9-4.4,1.2-6.7,1.7c0.1-0.7,0.3-1.3,0.4-1.9
		c0-0.3-0.3-0.6-0.4-0.8c-0.2,0.2-0.5,0.4-0.6,0.7c-0.2,0.6-0.3,1.2-0.5,1.9c-2.2-0.5-4.4-0.9-6.5-1.4c-2-0.5-4-1.2-6.1-1.6
		c-2.2-0.4-4.4-1.1-5.9-2.8c-0.9-1-1.7-2.2-2.5-3.3c-0.2-0.2-0.6-0.5-0.8-0.4c-0.5,0.2-0.4,0.6-0.2,1c0.1,0.1,0.1,0.2,0.2,0.3
		c0.5,0.7,1,1.4,1.6,2.1c1.4,1.8,3.1,3.2,5.4,3.7c4.1,1,8.2,2,12.3,3c1.8,0.4,3.6,0.7,5.4,0.1c0.4-0.1,0.8-0.2,1.1-0.3
		c-1.5,1-3,1.8-4.5,2.8c-1,0.7-2.1,0.7-3.2,0.6c0.1-0.4,0.3-0.8,0.3-1.2c0-0.3-0.3-0.5-0.4-0.8c-0.2,0.2-0.6,0.4-0.7,0.6
		c-0.3,1.5-0.6,1.6-2,1.2c-0.2-0.1-0.3-0.1-0.5-0.2c-3.4-1.4-6.8-2.9-10.2-4.3c-0.5-0.2-0.9-0.5-1.3-0.8c-2.2-1.7-4.5-3.5-6.7-5.3
		c-1.1-0.9-2.1-2-3.3-2.9c-2.3-1.6-4.6-3.3-6.4-5.5c-1-1.2-1.9-2.4-2.8-3.6c-0.9-1.2-1.6-2.6-2.6-3.8c-0.5-0.6-1.3-1-1.8-1.6
		c-1.3-1.5-2.5-3.2-3.9-4.7c-1.5-1.7-2.6-3.6-3.7-5.5c-1.6-2.8-3.5-5.4-5.2-8.1c-2.1-3.2-4.1-6.5-6.2-9.7c-0.6-1-1.2-2-1.8-2.9
		c-0.8-1.2-1.9-2.3-2.5-3.6c-1.7-3.5-3.3-7.1-5-10.6c-1.3-2.8-2.6-5.6-3.8-8.4c-0.8-1.8-1.7-3.6-2.3-5.5c-1.1-3.5-2.5-7-3-10.7
		C2.9,45.1,2.7,44,2.6,43c-0.2-1.9-0.3-3.7-0.5-5.6c-0.2-2.2-0.4-4.3-0.6-6.5c-0.1-1.2,0.1-2.3,0.1-3.5c0.1-4.2,0.1-8.4,0.2-12.7
		C1.8,9.8,1.9,4.9,1.9,0H0.4c0,1-0.1,2.1-0.1,3.1c-0.1,5-0.2,10-0.2,14.9c0,6.6-0.3,13.1,0.5,19.7C0.8,40,1,42.3,1.3,44.6
		C1.6,46.8,2,49,2.6,51.2c0.4,1.7,1.1,3.3,1.7,5c0.4,1.1,0.6,2.2,1.1,3.3C6.1,61,7,62.6,7.7,64.2c1.1,2.3,2,4.7,3,7
		c1.5,3.3,2.9,6.5,4.5,9.8c0.9,1.8,1.9,3.5,3.3,5c0.6,0.6,1,1.4,0.9,2.3c-0.2,2.7-0.3,5.4-0.5,8.1c-0.1,1.9-0.3,3.8-0.5,5.7
		c-0.2,2.7-0.5,5.4-0.7,8.1c0,0.3-0.1,0.7-0.1,1c-0.2,1.9-0.3,3.8-0.5,5.7c-0.1,1.3-0.3,2.7-0.4,4c-0.1,0.7-0.1,1.4-0.2,2.1
		c-0.2,2.3-0.5,4.6-0.6,6.8c0,3.4,0.1,6.9,0.3,10.3c0.2,2.7,0.6,5.4,1.1,8.1c0.9,4.5,2,9,3,13.5c0.7,3.3,1.3,6.7,2,10.1
		c0.9,4.2,1.7,8.4,2.6,12.6c0.5,2.2,1.1,4.4,1.7,6.7c0.3,1.3,0.9,2.6,0.9,3.9c0.1,1.8,0.9,3.3,1.2,5h1.6c-0.2-0.8-0.5-1.5-0.7-2.3
		c-0.4-1.6-0.7-3.2-1.1-4.8c-0.8-3.4-1.7-6.9-2.4-10.3c-0.9-4.1-1.7-8.3-2.5-12.5c-0.7-3.7-1.5-7.4-2.3-11c-1-4.7-2.1-9.5-3.1-14.2
		c-0.7-3.5-0.8-7-1.1-10.5c-0.2-1.9,0.4-3.1,2.2-3.8c1.1-0.4,2.1-0.9,3.3-0.9c1.9,0,3.8-0.3,5.7-0.4c2.4-0.1,4.7-0.2,7,0.5
		c1.1,0.3,2.2,0.9,3.4,1.2c1.6,0.5,3.3,0.8,5,1.2c1.8,0.4,3.7,0.7,5.5,1c0.1,0,0.2,0.1,0.4,0.1c0.3,0.2,0.6,0.3,0.9,0.5
		c0.2,0.1,0.5,0.2,0.7,0.2c1,0.4,2,0.8,3.1,1.1c0.5,0.1,0.9,0,1.2-0.2c0.7,0.2,1.4,0.5,2,0.9c1.5,1,2.8,2.3,4.2,3.3
		c2.6,1.9,5.5,3.3,8.5,4.5c1.3,0.5,2.7,1.1,4,1.6c0.8,0.3,1.1,0.9,1,1.6c-0.2,1.7,0.3,3.3,0.6,5c0.7,3.3,1.5,6.6,1.3,10.1
		c-0.1,0.8-0.2,1.7-0.1,2.5c0.2,3,0.3,6,0.7,8.9c0.4,3.3,1,6.5,0.9,9.9c0,1.2,0.1,2.3,0.3,3.5c0.2,1.5,0.3,3,0.5,4.5
		c0.3,2.5,0.3,5,1.2,7.4c0.2,0.4,0,0.9,0,1.4h1.7c-0.2-1-0.4-1.9-0.6-2.8c-0.3-2.2-0.6-4.4-0.8-6.5c-0.3-3.3-0.4-6.6-0.6-9.9
		c0-0.3,0-0.6-0.1-0.9c-0.2-1.8-0.6-3.5-0.7-5.3c-0.2-4.5-0.2-9-0.5-13.4c-0.2-2.5-0.6-5.1-1.1-7.6c-0.4-2.2-1-4.3-1-6.6
		c0-0.7,0.3-1.2,1.1-1.3c0.8-0.1,1.6-0.1,2.3-0.1c0.6-0.1,1.2-0.1,1.7-0.4c1.7-1,3.4-2,5.1-3.1c2.3-1.4,4.7-2.7,6.9-4.3
		c1-0.7,1.8-1.7,2.4-2.7c0.4-0.7,0.9-1,1.5-1.3c0.3-0.1,0.6-0.1,0.8-0.2c2.6-0.5,5.1-1,7.7-1.5c2.8-0.6,5.7-1.1,8.5-1.9
		c3.9-1.1,7.8-1.9,11.8-2.3c1.4-0.1,2.9-0.3,4.3-0.4c1.6,0.1,3.2,0.3,4.8,0.7c0.1,0,0.2,0.1,0.3,0.1c0.3,0.1,0.7,0.1,1.1,0.2
		c-0.1,1.1-0.2,2.1-0.4,3.2c-0.6,3.1-1.2,6.1-1.9,9.2c-0.7,3.4-1.5,6.8-2.3,10.2c-0.5,2.1-1,4.2-1.5,6.3c-0.7,2.6-1.4,5.1-2.1,7.7
		c-0.5,2-0.9,3.9-1.4,5.9c-0.6,2.1-1.3,4.1-1.9,6.1c-0.7,2.7-1.3,5.5-2,8.3c-0.6,2.4-1.3,4.8-2.1,7.1c-0.8,2.5-1.7,5-2.6,7.6
		c0.5,0,0.8,0.1,1.2,0c0.2,0,0.5-0.2,0.6-0.4c0.8-2.2,1.6-4.3,2.2-6.5c1.1-4,2.1-8,3.2-11.9c0.7-2.5,1.4-5,2.1-7.6
		c0.6-2,1.2-4,1.8-6.1c0.8-3.1,1.6-6.3,2.4-9.5c0.8-3.1,1.5-6.2,2.2-9.3c0.7-3.1,1.3-6.2,2-9.3c0.3-1.2,0.6-2.4,0.8-3.6
		c0.4-1.8,0.5-3.6,1-5.3c0.6-2.1,0.6-4.2,0.4-6.3c-0.1-1.5-0.3-3-0.4-4.6c-0.2-2.1-0.3-4.2-0.5-6.4c-0.1-1.4-0.3-2.8-0.5-4.2
		c-0.3-2.3-0.6-4.7-1.1-7c-0.6-2.5-1.6-4.9-2.4-7.4c-0.2-0.6-0.5-1.5-0.2-2c0.9-1.6,1.9-3.1,3-4.6c0.9-1.2,2-2.2,2.7-3.4
		c2-3.2,3.8-6.5,5.7-9.8c0.9-1.6,1.6-3.3,2.6-4.9c0.8-1.3,1.8-2.4,2.6-3.7c3.2-5.4,6.4-10.8,9.7-16.2c1.1-1.8,2-3.7,2.3-5.7
		C163.2,41.3,163,38.3,162.5,35.3z M126.2,11.1c0,0.1-0.1,0.2-0.1,0.3c-0.4,0.9-0.9,1.7-1.2,2.5c0-0.1,0-0.1-0.1-0.2
		C125.2,12.9,125.7,12,126.2,11.1z M123.3,24.2c-0.1-0.3,0.1-0.6,0.1-0.9c0.1-0.9,0.1-1.9,0.4-2.8c0.4-1.2,1.1-2.3,1.6-3.4
		c0.5-1.2,1.1-2.5,1.5-3.7c0.9-2.3,1.8-4.6,3.1-6.7c0.6-1,1.2-2,2-2.9c0.2,1.2,0.5,2.4,0.6,3.6c0.2,2,0.4,3.9,0.5,5.9
		c0.2,3.4,0.2,6.9,0.5,10.3c0.3,2.9,1,5.7,1.6,8.6c0.6,3.1,1.2,6.2,1,9.4c0,1-0.7,1.5-1.2,2.1c-2.4,3-4.2,6.4-6.2,9.7
		c-0.5,0.9-1,1.7-1.4,2.6c-0.4,0.9-0.6,1.8-1,2.7c-0.5,1.1-1.1,2.2-1.7,3.3c-0.1,0-0.2,0-0.3,0c-0.8-2.7-1.5-5.4-2.4-8.1
		c-0.5-1.5-0.7-3.1-0.6-4.7c0-1.6-0.1-3.2,0-4.8c0.2-2.8,0.7-5.5,1.5-8.1c0.5-1.9,0.7-3.9,0.8-5.9C124,28.2,124.1,26.2,123.3,24.2z
		 M31.4,54.8h-0.1c-0.6-1.7-1.2-3.4-1.8-5.2c-1.1-3.3-2.3-6.6-3.2-10c-0.6-2.3-1-4.7-1.1-7c-0.2-5.1-0.2-10.2-0.2-15.3
		c0-2,0.4-4.1,0.6-6.1c0.1-1.4,0.1-2.8,0.2-4.1c0.1-1,0.2-2,0.3-3c0.1,0,0.1,0,0.2-0.1c0.1,0.3,0.3,0.6,0.4,1
		c0.5,2.4,0.9,4.8,1.3,7.1c0.5,2.8,1.1,5.6,1,8.5c-0.1,3.3,0.3,6.6,1,9.9c0.3,1.3,0.2,2.6,0.4,3.9c0.2,1.9,0.4,3.7,0.6,5.6
		c0.1,1.6,0.3,3.2,0.3,4.7c0.1,2.2,0.1,4.5,0.2,6.7C31.5,52.5,31.4,53.7,31.4,54.8z M71,103.8c-2.2-0.6-4.5-1-6.8-1.4
		c-2.9-0.5-6-0.6-8.6-2.1c-1.8-1-3.6-2.1-4.5-4.2c-0.3-0.7-0.8-1.3-1.3-1.9c-1.3-1.6-2-3.5-2.7-5.5c-0.9-2.5-1.9-4.9-3-7.3
		c-1.5-3.3-3.1-6.6-4.8-9.8c-1.4-2.7-3-5.3-4.5-7.9c-0.7-1.2-1.5-2.4-1.7-3.8c-0.1-1-0.1-2.1-0.1-3.2C33,53.4,33,50,32.9,46.6
		c-0.1-2.6-0.4-5.2-0.6-7.9c-0.2-2.5-0.4-5-0.7-7.5c-0.2-1.4-0.5-2.8-0.7-4.1c-0.2-1.5-0.4-3.1-0.6-4.6c1.7-0.2,3.3-0.4,4.9-0.4
		c0.6,0,1.1,0,1.7,0.1c0.7,0.1,1.4,0.1,2.2,0.3c1.7,0.3,3.4,0.3,5.1,0.4c3.1,0.1,6.2,0.2,9.3,0.3c0.3,0.1,0.5,0.1,0.8,0.1
		c1.9,0.1,3.9,0.1,5.8,0.1c0.6,0,1.3,0,1.9,0c0.1,0,0.3,0,0.4,0c5.3-0.1,10.6-0.5,15.9-1.1c2.5,0,4.9-0.1,7.4-0.1
		c0.1,0,0.3,0.1,0.4,0.1c8.5,0.5,17,1.1,25.5,1.6c1.4,0.1,3.1,0.4,4.8,0.5c0.4,0.1,0.7,0.1,1.1,0.2c1.1,0.1,2.2,0.2,3.3,0.2
		c0.5,0,0.8,0.2,0.9,0.7c0.5,2.2,0.6,4.5,0.2,6.7c-0.6,3.4-1.5,6.8-2,10.2c-0.5,3.4-0.5,6.8-0.1,10.1c0.2,1.5,0.9,3,1.3,4.5
		c0.5,2.2,1.2,4.3,2.1,6.3c0.1,0.2,0,0.6-0.2,0.8c-0.9,1.3-2,2.5-2.9,3.9c-1.2,1.8-2.3,3.7-3.4,5.6c-1.8,3.1-3.5,6.3-5.4,9.3
		c-1.2,2-2.2,4-2.8,6.2c-0.8,2.6-2.2,4.6-4.7,5.8c-1.3,0.6-2.6,1.2-3.6,2.1c-1.2,1.1-2.5,1.7-3.9,2.2c-2.2,0.8-4.4,1.4-6.7,1.9
		c-3.8,0.9-7.7,1.4-11.4,3.1C76,105.2,73.5,104.5,71,103.8z M88.3,115.8c0.6,1.2,1.2,2.4,1.7,3.6c0.2,0.4,0.6,1,0.1,1.3
		c-0.5,0.4-1.1,0.5-1.7,0.7c-0.1,0-0.3-0.2-0.4-0.4c-0.3-0.7-0.6-1.4-0.9-2C86.5,117.9,87,116.3,88.3,115.8z M20.3,99.3
		c0.2-3.1,0.4-6.1,0.6-9.3c2.1,3.2,4.1,6.3,6,9.3H20.3z"/>
	<path class="st0" d="M75.6,68.6c1.4,0,2.2,0.7,2.1,1.7c0,1.3-1,2.2-2.3,2.2c-1.2,0-2-0.7-2-1.8C73.4,69.1,73.9,68.6,75.6,68.6z"/>
</g>
</svg>
