<?xml version="1.0" encoding="utf-8"?>
<!-- Generator: Adobe Illustrator 19.2.1, SVG Export Plug-In . SVG Version: 6.00 Build 0)  -->
<svg version="1.1" id="Layer_1" xmlns="http://www.w3.org/2000/svg" xmlns:xlink="http://www.w3.org/1999/xlink" x="0px" y="0px"
	 viewBox="0 0 202.8 200" style="enable-background:new 0 0 202.8 200;" xml:space="preserve">
<style type="text/css">
	.st0{fill:#2E7D32;}
</style>
<g id="icon-child-cough">
	<path class="st0" d="M35.1,200c-0.1-2.5-0.1-5-0.2-7.5c0-0.9-0.2-1.8-0.2-2.6c0-1.7,0.2-3.4,0.2-5c-3.7,0.3-7.2,1.6-10.8,2.8
		c-1.2,0.4-2.6,0.6-3.9,0.7c-2.4,0.1-4.8,0-7.2,0c-0.9,0-1.8,0-2.6-0.2c-0.9-0.3-1.8-0.7-2.5-1.3c-1.2-1.1-2.4-2.2-3.2-3.5
		c-1.1-1.7-1.8-3.7-2.6-5.5c-0.5-1.2-1.1-2.5-1.5-3.7c-0.6-2-0.8-4-0.5-6c0-0.1,0-0.2,0-0.3c-0.2-3.1,0.7-6,1.4-8.9
		c0.6-2.4,1.4-4.7,2.2-6.9c0.3-0.9,1-1.7,1.6-2.4c3-3.3,6-6.5,9-9.7c0.5-0.5,1.1-1.1,1.5-1.7c0.3-0.5,0.5-1.1,0.7-1.7
		c0.5-1.4,0.9-2.8,1.3-4.2c0.8-2.4,1.6-4.8,2.4-7.2c0.5-1.5,1.8-2.5,2.8-3.7c1.7-1.9,3.3-3.9,5.1-5.7c1.7-1.8,3.7-3.5,6.3-3.5
		c1.6,0,2.6-0.4,3.4-1.9c1.2-2.3,2.1-2.6,4.6-2c0.7,0.2,1.4,0.2,2.3,0.3c-0.2-0.8-0.3-1.5-0.5-2.3c-0.7-2.5-1.4-4.9-2-7.4
		c-0.4-1.8-0.6-3.6-0.8-5.4c-0.3-2-1-3.7-2.6-5c-1.5-1.2-3-2.4-3.8-4.1c-0.2-0.5-0.4-1.1-0.4-1.7c-0.1-1.8,0-3.6-0.2-5.4
		c-0.3-2.6-1.3-5-2.6-7.3c-1.7-3-2.5-6.4-3.6-9.7c0-0.1,0-0.3,0-0.4c-0.3-2.2-0.5-4.4-0.8-6.5c-0.3-2.5-0.3-4.9,0.2-7.4
		c0.3-1.3,0.5-2.6,0.8-3.9c0.2-0.7,0.5-1.3,0.8-1.9c1.3-2.9,3.3-5.5,5.5-7.7c0.1-0.1,0.2-0.3,0.3-0.3c1.7-0.6,2-2.3,2.6-3.7
		c0.9-2,2.1-3.9,3.6-5.5c1.8-1.9,3.7-3.7,6.2-4.7c1.8-0.7,3-2,4.4-3.2c1.6-1.4,3.2-2.6,4.9-3.9c2.1-1.6,4.2-3.1,6.3-4.6
		c2.6-1.9,5.7-3,8.7-3.9c1.9-0.6,3.7-1.2,5.6-1.7c2.2-0.6,4.4-1.1,6.6-1c2.5,0,5,0,7.5,0c3,0,5.8,0.3,8.6,1.3
		c1.7,0.6,3.5,0.9,5.2,1.5c2.7,0.9,5.1,2.5,7.5,4c2.1,1.2,3.6,3,5.1,4.8c1.2,1.4,2.5,2.8,3.8,4.2c1.4,1.6,2.8,3.2,3.6,5.2
		c0.8,2,2,3.8,2.9,5.8c1.3,3,2.6,6,3.6,9.2c0.6,1.7,0.8,3.6,1,5.4c0.5,3.8,0.8,7.5,1.2,11.3c0.2,1.5,0.2,3.1,0.4,4.6
		c0.2,1.9,0.4,3.8,0.6,5.7c0,0.3,0,0.5,0,0.8c0.2,2.1,0.4,4.2,0.8,6.3c0.4,2.8,0.7,5.6,0.1,8.4c-0.1,0.2,0,0.5,0,0.8
		c-0.1,1.7-0.2,3.4-0.4,5.2c-0.1,0.8-0.1,1.5-0.2,2.3c-0.1,1.5-0.3,2.9-0.5,4.4c-0.1,1.2-0.2,2.3-0.2,3.5c-0.2,4.3-0.7,8.6-1.9,12.7
		c-0.2,0.6-0.6,1.2-1,1.8c0.1,0,0.3,0,0.4,0c2-0.8,4.2-0.7,6.3-0.6c0.8,0,1.6,0.6,2.2,1.1c1.7,1.3,3.5,2.4,5.6,3.1
		c2.2,0.7,4.4,1.5,6.5,2.6c2.5,1.4,4.7,3.3,6.5,5.6c0.1,0.1,0.2,0.3,0.3,0.4c0.2,1.3,1.2,1.3,2.1,1.3c1.7,0.1,3.4,0.1,5,0.2
		c0.4,0,0.9,0.1,1.3,0.3c1.5,0.8,3.2,1,4.9,0.9c1.7-0.1,3.4-0.1,4.9,0.7c1.5,0.8,3.1,1.6,4.6,2.5c0.6,0.4,1,1,1.4,1.6
		c1.2,1.4,2.4,2.8,3.4,4.3c1.1,1.6,2.2,3.3,3.2,5c2.2,3.9,4.5,7.8,6.5,11.7c0.9,1.8,1.4,3.8,1.9,5.7c0.6,2.1,1,4.3,1.5,6.5
		c0.6,2.7,1.2,5.4,1.6,8.1c0.2,1.2,0.3,1.7-1.2,2.3c-0.7,0.3-0.7,0.9-0.7,1.5c0.1,1.7,0.3,3.3,0.5,5c0.3,2,0.6,4.1,0.8,6.1
		c0.2,3.1,0.3,6.1,0.6,9.2c0.1,1.9,0.5,3.7,0.7,5.6c0,0.1,0.1,0.2,0.1,0.3c-0.6,0-1.1,0-1.7,0c0-0.5,0-1-0.1-1.4
		c-0.2-1.7-0.5-3.3-0.6-5c-0.2-2.2-0.2-4.5-0.4-6.7c0-0.7-0.1-1.4-0.2-2.1c-0.3-2-0.5-3.9-0.8-5.9c-0.3-1.8-0.6-3.5-0.9-5.4
		c-0.8,0.5-1.6,1-2.3,1.5c-1.6,1.2-3.1,2.4-4.6,3.6c-2.1,1.6-4.3,3-6.3,4.6c-1.2,0.9-2.3,2.1-3.6,3c-2.2,1.7-4.4,3.2-6.5,4.9
		c-0.8,0.6-1.9,1.1-1.5,2.5c0.1,0.6,0.2,1.3,0.2,1.9c0,1.5-0.1,3-0.2,4.5C127.2,200,81.1,200,35.1,200z M153.7,134.8
		c0.1,0,0.3,0,0.4,0.1c-0.5-2.1-1-4.1-1.6-6.2c-0.4-1.5-0.9-3.2-2.3-4.1c-2-1.4-4.1-2.8-6.3-4c-2.8-1.5-5.6-2.8-8.2-4.7
		c-0.6-0.4-1.4-0.5-2.1-0.8c-0.3-0.1-0.6-0.4-0.8-0.6c0.3-0.1,0.7-0.4,1-0.3c1.5,0.3,2.7,1.2,4,2c3.5,2,7.1,3.9,10.6,5.9
		c2,1.2,3.7,2.7,4.6,5c1.1,2.9,1.7,5.9,2.1,8.9c0.2,1.3,0.4,2.5,0.6,4c0.2-0.5,0.4-0.7,0.4-1c0-1.1,0-2.2,0-3.3
		c-0.1-2.3-0.2-4.7-0.3-7c-0.2-2.2-0.9-4.1-2.6-5.7c-2.8-2.6-5.9-4.7-9.2-6.7c-1.3-0.8-2.7-1.5-4-2.2c-0.2-0.1-0.3-0.4-0.4-0.6
		c0.2-0.1,0.5-0.2,0.7-0.3c0.1,0,0.3,0.1,0.5,0.2c1.1,0.6,2.1,1.1,3.2,1.7c4,2.4,7.9,4.9,11,8.4c0.5,0.6,1.1,1.3,1.2,2.1
		c0.4,2.3,0.7,4.6,0.9,6.9c0.1,1.3,0.1,2.7,0.2,4c0.1,1.5,0,2.9-0.8,4.4c-0.9,1.8-1.5,3.7-2.2,5.5c0.3,0,0.5-0.2,0.6-0.3
		c1-1.6,2-3.3,3-4.9c0.4-0.7,1-1.4,1.1-2.1c0.1-1.6,0-3.3-0.1-4.9c-0.2-2.3-0.5-4.5-0.8-6.8c-0.2-1.4-0.5-2.8-1.5-3.9
		c-1-1.1-2.1-2.1-2.9-3.3c-1.5-2.1-3.2-3.9-5.7-4.8c-0.2-0.1-0.4-0.3-0.6-0.4c-0.7-0.4-1.3-0.7-2-1.1c-1.3-0.7-2.6-1.3-3.8-2
		c-1-0.6-2-1.7-3.1-1.9c-1.5-0.3-3.2-0.2-4.7,0c-1.9,0.3-3.8,0.8-5.7,1.4c-6.7,2-13.3,4-20,6.1c-1.9,0.6-3.8,1.3-5.8,1.7
		c-2.7,0.6-5.5,1-8.2,1.7c-4.3,1.2-8.6,2.5-12.9,3.8c-3,0.9-5.9,1.8-8.9,2.6c-3.7,1-7,3.1-10.8,3.8c-2.6,0.5-5.1,1.2-7.7,1.8
		c-2.6,0.6-5.3,1.1-7.9,1.8c-1.2,0.3-2.4,1-3.6,1.3c-2.1,0.6-4.3,0.8-6.5,1.5c-3.5,1.3-7,2.3-10.3,3.9c-3.8,1.9-7.7,3.7-10.9,6.5
		c-0.4,0.4-1.3,0.2-1.5-0.3c-0.2-0.6,0-0.9,0.5-1.2c0.4-0.2,0.7-0.6,1.1-0.9c2.3-1.4,4.6-2.8,7-4c3.8-2.1,7.8-3.7,11.9-5
		c1.6-0.5,3.3-1,4.9-1.5c0.4-0.1,0.7-0.2,1.1-0.3c0-0.1,0-0.2,0.1-0.4c-2.5-1.1-5-2.3-7.6-3.3c-2.2-0.9-4.5-0.7-6.6,0.3
		c-1.4,0.7-2.8,1.7-4,2.8c-2,1.9-3.8,4-5.7,6c-3.2,3.5-6.5,7-9.7,10.5c-0.5,0.6-1,1.3-1.2,2c-0.8,2.5-1.6,5-2.2,7.5
		c-0.5,1.9-1.1,3.8-1.2,5.8c-0.1,3.2-0.6,6.5,1.1,9.6c0.7,1.2,0.9,2.6,1.4,3.9c0.8,2.2,2.2,3.9,3.8,5.5c1.4,1.4,2.8,1.9,4.6,1.8
		c1.7-0.1,3.4-0.1,5.1,0c3.3,0.2,6.4-0.5,9.4-1.8c1.3-0.6,2.7-0.9,4.1-1.1c3.1-0.5,6.2-1.3,9-2.7c4.1-2.1,8.3-3.9,12.1-6.4
		c1.6-1.1,3.4-1.9,5-3c1.3-0.8,2.6-1.7,3.8-2.8c1.5-1.3,2.9-2.8,4.4-4.1c0.9-0.8,1.9-1.5,2.9-2c1.1-0.5,1.2-2.1,2.7-1.9
		c0.1,0,0.1-0.1,0.2-0.2c2.7-3,6.2-5.1,9.5-7.4c2.9-2.1,5.8-4.3,8.8-6.4c3.3-2.3,6.5-4.6,10.1-6.2c1.6-0.7,3.1-1.8,5-2
		c0.2,0,0.4-0.4,0.5-0.7c0.1-0.8,0-1.6,0.1-2.4c0.2-1.8,0.4-3.6,0.6-5.4c0-0.4,0-0.8,0.5-0.8c0.6,0,0.5,0.4,0.5,0.8
		c-0.2,2-0.4,4-0.6,6c-0.1,0.7,0,1.4,0,2.3c2,0,3.7,0,5.5,0c1.4,0,2.6-0.3,3.7-1.1c1.2-0.8,2.4-1.6,3.6-2.3c0.3-0.2,0.6-0.4,0.9-0.4
		c1.1,0.1,2-0.5,2.8-1c2.2-1.3,4.4-2.6,6.5-3.9c0.7-0.4,1.3-1,1.8-1.4c-0.4-0.9-0.8-1.7-1.1-2.5c-0.1-0.2,0.1-0.6,0.2-0.9
		c0.3,0.1,0.7,0,0.8,0.2c0.5,0.7,0.9,1.5,1.4,2.3c0.1,0.2,0.4,0.5,0.6,0.6c1.3,0.1,2.6,0.2,3.8,0.2c0.3,0,0.6-0.2,0.7-0.3
		c-0.1-1.3-0.2-2.4-0.3-3.6c0-0.2,0.1-0.5,0.3-0.6c0.2-0.1,0.5,0,0.7,0.2c0.2,0.2,0.3,0.5,0.4,0.7c0.2,0.7,0.2,1.3,0.4,2
		c0.1,0.3,0.2,0.7,0.5,0.8c0.7,0.4,1.5,0.9,2.3,1.1c0.6,0.2,1.2,0.1,1.8,0c0.2,0,0.2-0.5,0.4-0.7c0.2-0.2,0.5-0.5,0.8-0.5
		c0.4,0.1,0.4,0.5,0.3,0.9c-0.2,0.6-0.6,1.4-0.3,1.8c0.9,1.4,2,2.6,3,3.8c0.2,0.3,0.4,0.7,0.5,1c0.5,1,0.2,2.3,1.3,3
		c0.1,0.1,0.2,0.4,0.2,0.5c0.2,1.1,0.7,1.6,1.8,1.7c0.1-1,0-2,0.3-2.9C152.5,136.4,153.2,135.6,153.7,134.8z M113.3,92.2
		c-0.4,1-0.7,1.8-1.1,2.7c-0.1,0.2-0.2,0.4-0.2,0.6c-0.6,2.3-0.3,2.9,2,3.5c0.9,0.2,1.9,0.4,2.8,0.5c2.1,0.2,4.2,0,6.2-1
		c0.2-0.1,0.3-0.2,0.4-0.4c0.4-0.4,0.7-0.9,1.1-1.3c0.8-0.9,1.6-1.8,2.2-2.8c0.9-1.3,1.7-2.8,2.5-4.2c0.4-0.8,0.7-1.8,0.9-2.7
		c0.4-1.6,0.6-3.4,1.3-4.9c1.1-2.4,0.8-4.7,0.4-7c-0.3-1.6-1.5-2.7-2.7-3.8c-2.1-1.8-4.5-2.3-7-1.1c-1.6,0.7-3.1,1.7-4.7,2.6
		c-0.7,0.4-1.4,0.9-1.7,1.6c-0.7,1.2-1.1,2.6-1.6,3.9c-0.4,1-0.3,2.2-1.3,2.9c-1.7,1.2-4,0.8-5.1-1.1c-1.1-1.9-2-4-3.9-5.3
		c-1.4-1-2.8-1.8-4.6-1.5c-0.9,0.2-1.8,0.4-2.8,0.3c-1.7-0.1-3.3-0.2-5-0.5c-2.8-0.5-5.1-1.9-7-4c-0.9-1-1.9-2.1-3.5-1.8
		c-1.3,0.2-2.5,0.3-3.8,0.3c-1.3,0-2.7-0.2-4-0.1c-1.7,0-3.2-0.4-4.6-1.2c-2.4-1.4-4.7-2.9-7.1-4.4c-2.2-1.4-4.4-2.5-7.2-2.3
		c-1.2,0.1-2.5-0.2-3.7-0.5c-2.4-0.5-4.7-1-6.3-3.2c-0.9-1.1-1.8-2-1.5-3.7c0.4-2,0.2-4.1,0.7-6.2c0.9-3.6,2.7-6.6,5.2-9.3
		c0.9-1,1.8-2,2.7-3.1c0.7-0.8,1.2-1.7,2-2.4c0.7-0.6,0.3-1.2,0-1.6c-0.1-0.2-0.8-0.2-1.2,0c-0.4,0.2-0.7,0.6-1,0.9
		c-0.9,1.1-1.6,2.2-2.5,3.3c-0.9,1.1-2,2-2.8,3.2c-1.3,1.8-2.5,3.6-3.5,5.5c-0.7,1.4-1.1,3-1.4,4.6c-0.3,1.5-0.2,3.1-0.4,4.7
		c-0.2,1.6-1,2.7-2.6,3.3c-0.9,0.3-1.8,0.7-2.6,1.2c-1.8,1.1-3.7,1.9-5.9,2.1c0,0.4-0.1,0.8,0,1.1c0.2,0.8,0.3,1.5,0.6,2.3
		c0.8,2.6,1.6,5.1,3,7.5c1.9,3.3,3,6.8,2.7,10.7c0,0.5,0,1,0,1.5c-0.1,1,0.2,2,0.9,2.8c0.2,0.2,0.5,0.4,0.9,0.5
		c1.2,0.3,2.3,0.5,3.5,0.9c0.7,0.2,1.3,0.6,2,0.8c2.5,0.6,4.7,1.7,6.7,3.3c0.9,0.7,1.7,1.4,2,2.6c0.7,2.9-0.1,5.7-0.4,8.5
		c-0.2,1.3-0.4,2.6-0.6,3.9c-0.1,0.5-0.1,1-0.1,1.4c-0.1,1.6-0.3,3.2-0.4,4.7c0,0.3,0.1,0.6,0.3,0.8c1.8,1.7,4,2.3,6.5,2.1
		c1-0.1,2.1-0.2,3.1,0.1c1.2,0.4,2.4,0.5,3.6,0.4c0.3,0,0.7-0.2,1-0.3c1.9-0.8,1.6-3.4,0.5-4.5c-0.7-0.8-1.4-1.9-2.8-1
		c-0.1,0.1-0.5-0.2-0.6-0.4c-0.1-0.1,0.2-0.5,0.4-0.6c0.9-0.5,2.5-0.1,3.2,0.7c0.2,0.3,0.5,0.6,0.8,0.9c1.3,1.2,1.3,4.4-0.2,5.5
		c-1.1,0.8-2.2,1.2-3.5,0.9c-2.4-0.4-4.8-0.7-7.3-0.6c-0.5,0-1.1-0.1-1.6-0.2c-1.3-0.3-2.4-1-3.4-1.8c-1-0.8-1.3-1.5-1-2.7
		c0.2-1.1,0.5-2.2,0.4-3.3c-0.2-3.1,0.8-6,1.2-9c0.2-1.4,0.5-2.9,0-4.3c-5.1,1.2-4.2,1-8-0.4c0.2,1.5,0.3,3,0.6,4.4
		c0.3,1.4,0.9,2.8,1.3,4.2c0.4,1.6,0.8,3.2,1.1,4.8c0.5,2.3,1.7,4.3,2.8,6.3c1.7,3.3,3.5,6.4,5.2,9.6c0.2,0.4,0.5,0.7,0.8,1.2
		c0.2-0.3,0.3-0.4,0.3-0.5c0.8-1.3,1.8-1.4,2.9-0.3c0.2,0.2,0.7,0.3,0.9,0.1c1.4-0.9,2.6-0.5,3.9,0.1c1.8,0.9,3.6,1.9,5.5,2.8
		c0.7,0.3,1.6,0.7,2.3,0.5c3.8-1,7.5-2.2,11.2-3.3c5.1-1.5,10.3-3.1,15.4-4.5c1.8-0.5,3.8-0.6,5.6-1.1c4-1.2,8-2.5,12.1-3.7
		c0.8-0.3,1.4-0.6,2-1.4c1.4-2,2.6-4.1,3.6-6.4c0.1-0.3,0.6-0.6,0.8-0.5c0.2,0,0.6,0.4,0.6,0.7c0,0.4-0.1,0.9-0.3,1.3
		c-0.8,1.6-1.7,3.1-2.6,4.7c0.1,0.1,0.1,0.1,0.2,0.2c2.5-0.7,5-1.4,7.6-2.1c-0.3-0.5-0.5-1-0.7-1.4c-0.7-1.5-1.5-3.1-2.2-4.7
		c-0.3-0.8-0.5-1.7-0.7-2.6c-0.1-0.5,0-0.9,0-1.5c-0.9,0.3-1.7,0.6-2.4,0.7c-1.7,0.1-3.4,0.1-5,0c-1.5-0.1-2.9-0.4-4.1-1.3
		c-0.6-0.4-1-0.9-0.9-1.7c0.2-1.3,0.3-2.6,0.7-3.8c0.5-1.6,1-3.3,2.3-4.6c1.1-1.2,1.2-2.8,1.1-4.3c0-0.4,0.2-0.8,0.4-1.2
		c0.1-0.1,0.7-0.2,0.8,0c0.3,0.3,0.6,0.8,0.6,1.1c-0.1,1.7-0.3,3.5-1.3,5c-0.2,0.3-0.2,0.8,0,1.1c0.4,0.5,0.8,0.1,1.2-0.1
		c0.2-0.1,0.3-0.3,0.5-0.5c1-1.1,2.1-2.2,3.1-3.3c0.7-0.7,1.4-1.2,2.5-1.1c0.7,0.1,1.3,0.1,2,0c0.6-0.1,1.5-0.2,1.7-0.6
		c0.9-1.8,2.1-3.5,1.8-5.7c-0.2-1.3-0.3-2.7-0.6-4c0-0.2-0.4-0.4-0.7-0.5c-1-0.3-1.8,0.3-2.6,0.7c-1.1,0.5-2.2,1.1-3.3,1.8
		c-1.2,0.7-2.3,1.6-3.4,2.4c-0.7-0.6-0.8-1-0.3-1.6c0.3-0.3,0.5-0.6,0.9-0.8c2.2-1.3,4.5-2.6,6.7-3.8c1.8-0.9,4.1,0.3,4.4,2.2
		c0.2,1.1,0.2,2.3,0.4,3.5c0.3,2.2-0.6,4.1-1.5,6c-0.4,1-1.2,1.5-2.2,1.8c-0.6,0.2-1.3,0.2-1.9,0.2c-1.3,0-2.3,0.3-3.2,1.3
		c-1.1,1.2-2.4,2.3-3.7,3.3C115.7,93.2,114.4,93.1,113.3,92.2z M38.1,30.9c1.9-0.6,3.5-1.1,5.1-1.6c0.2-0.1,0.4-0.1,0.6-0.2
		c2-0.5,4.1-0.4,6.2-0.6c4.8-0.3,9.5,0.1,14.1,1.4c2.1,0.6,4.2,0.9,6.3,1.5c2.7,0.9,5.4,1.9,8,2.9c2.1,0.8,4.2,1.8,6.2,2.7
		c0.9,0.4,1.6,1,2.5,1.4c1.9,0.9,3.9,1.7,5.8,2.6c2.2,1.1,3.9,2.7,5.5,4.5c1.1,1.2,2.1,2.5,3.4,3.5c2.5,1.8,4.6,4,6.5,6.4
		c1.2,1.6,2.2,3.3,3.2,5.1c0.7,1.2,1.1,2.6,1.7,3.9c0.8,1.7,1.6,3.3,2.4,5c0.4,0.8,1.1,1.2,1.9,0.9c1.5-0.6,2.9-1.4,4.3-2.2
		c0.2-0.1,0.4-0.6,0.3-0.8c-0.3-1-0.6-2.1-1.1-3c-0.8-1.5-1.7-2.9-2.5-4.3c-1.9-3.7-3.7-7.4-6.1-10.7c-1.6-2.2-3.1-4.5-5.1-6.4
		c-2.9-2.8-5.8-5.6-8.8-8.3c-1.4-1.3-2.9-2.4-4.4-3.5c-1.7-1.1-3.4-2.3-5.3-3.1c-3.5-1.5-7.2-2.7-10.8-4c-2.3-0.8-4.6-1.7-6.9-2.5
		c-2.2-0.8-4.4-1.5-6.8-1.5c-0.8,0-1.7,0-2.5-0.1c-1.9-0.2-3.8-0.4-5.7-0.5c-2-0.1-4-0.2-6.1-0.2c-0.8,0-1.8,0-2.5,0.4
		c-3.2,1.8-5.9,4.2-7.7,7.5C39.3,28.3,38.8,29.6,38.1,30.9z M86,151.2c1.1,0.9,2,1.8,3,2.4c1.6,0.9,3.2,1.7,4.9,2.5
		c0.3,0.2,0.7,0.3,1.1,0.5c2.4,0.7,4.8,1.4,7.2,2.2c2.6,0.8,5.2,0.9,7.9,0.8c1.2-0.1,2.4-0.3,3.6-0.5c3.1-0.6,5.8-2,8.4-3.7
		c1.6-1,3-2.2,4.5-3.4c2.5-1.9,4.8-4,6.7-6.5c0.7-1,1.3-2.1,2-3.2c-0.7-0.2-1.5-0.6-2.2-0.7c-0.9-0.1-1.8-0.1-2.7,0
		c-1.8,0.1-3.7,0.2-5.5,0.2c-1.6,0-3.3-0.2-4.9-0.4c-0.7-0.1-1.5-0.2-2.2-0.3c-1.7-0.2-3.4-0.2-5-0.6c-1.6-0.4-3.1-0.5-4.7-0.5
		c-1.7,0-3.5,0.1-5.1,0.9c-1.3,0.6-2.6,1.2-3.9,1.8c-3.8,1.9-7.1,4.4-10.5,6.7C87.8,149.9,87,150.5,86,151.2z M115.1,139
		c0,0.1,0.1,0.2,0.1,0.3c1.2,0.1,2.3,0.2,3.5,0.3c0.1,0,0.3,0.1,0.4,0.1c1.4,0.2,2.8,0.5,4.2,0.6c1.5,0.1,3-0.1,4.4-0.1
		c2.5,0,5.1-0.3,7.6,0.7c1.6,0.6,3.2,1.1,4.8,1.7c0.9,0.4,1.7,1,2.6,1.4c1.3,0.6,2.7,1.4,4.3,1c0-0.7,0-1.3,0-2c0-0.9,0-1.8,0.6-2.5
		c0.9-1.1,1.3-2.2,0.6-3.5c-0.1-0.3-0.2-0.7-0.4-0.9c-0.2-0.3-0.4-0.5-0.7-0.6c-0.9-0.4-1.8-0.6-2.8-1c-2.5-0.9-5-1.8-7.5-2.8
		c-1.4,2.6-3.7,3.6-6.1,4.9c-0.3-0.8,0-1.2,0.5-1.5c1.7-0.7,2.9-2,4.2-3.2c0.6-0.6,0.2-1.3,0-1.8c-0.1-0.2-0.7-0.3-1.1-0.4
		c-0.5-0.1-1-0.2-1.5-0.2c-0.4,0-0.8,0.1-1.1,0.3c-0.8,0.5-1.6,1.1-2.4,1.6c-1.5,0.9-3.1,1.6-4.6,2.5c-0.9,0.6-1.8,1.3-2.9,1.7
		c-0.7,0.2-1.5,0.2-2.1,0.6C118.2,136.9,116.7,137.9,115.1,139z M163.2,139.2c-0.5-0.8-1-1.5-1.5-2.2c-0.8-1.2-0.7-3.3,0.4-4.2
		c0.8-0.7,0.8-1.4,0.4-2.2c-0.1-0.2-0.2-0.5-0.3-0.7c-1-1.9-2.1-3.8-2.7-5.9c-0.4-1.3-1.1-2.6-2-3.5c-1.3-1.4-2.9-2.5-4.4-3.7
		c-0.3-0.2-0.6-0.3-0.9-0.5c1.6,2.1,3.3,4,5,6c0.8,1,1.6,2,1.7,3.3c0.2,1.8,0.5,3.6,0.7,5.4c0.3,2.4,0.5,4.8,0.7,7.3
		c0,0.3,0.2,0.6,0.4,0.8C161.4,139.7,162.3,139.4,163.2,139.2z M40,87.5c0,0.1-0.1,0.2-0.1,0.2c1.4,1.1,2.2,2.5,2.6,4.2
		c0,0.1,0.2,0.2,0.3,0.3c0.5,0.2,1,0.4,1.4,0.6c1,0.5,2.1,0.8,3.3,0.5c1-0.2,2-0.6,3.2-0.9c-0.6-0.6-1.1-1.2-1.6-1.6
		c-1.1-0.7-2-1.9-3.6-1.8c-0.6,0-1.2-0.4-1.8-0.6C42.5,88.1,41.3,87.8,40,87.5z M68,127.2c-2-1.1-4.1-2.2-6.2-3.3
		c-0.9-0.5-1.8-0.7-2.8,0c-0.8,0.6-1.6,0.1-2.1-0.5c-0.1-0.1-0.3-0.3-0.5-0.4c-0.6,0-1.5,1.4-1.2,2c0.5,0.8,1,1.5,1.5,2.2
		c0.1,0.2,0.6,0.3,0.7,0.2c1.8-1,3.8-0.9,5.7-0.8c1,0,2.1,0.1,2.8,0.6C67,127.8,67.5,127.6,68,127.2z M150.5,146.9
		c0.4-1,0.8-2,1.3-2.9c0.5-0.9,1.2-1.7,2.3-1.7c0.8,0,1-0.3,1-0.9c-2.3,0.7-4.2,0-5.8-1.7c-1.5,1.6-1.6,3.5-1,5.4
		c0.2,0.7,1.3,1.2,2,1.8C150.4,147,150.5,146.9,150.5,146.9z M65.3,128.4c0-0.1,0-0.2,0-0.3c-1.1-0.5-2.3-0.6-3.6-0.5
		c-0.8,0.1-1.7,0.2-2.5,0.3c-1.3,0.1-2.1,0.8-2.3,2c-0.2,0.8,0.1,1,0.9,0.8c1.6-0.4,3.3-0.8,4.9-1.3
		C63.6,129.2,64.4,128.8,65.3,128.4z M142.7,130.2c-0.1-0.1-0.2-0.3-0.4-0.4c-0.7-0.4-1.4-0.8-2.1-1c-0.4-0.2-1-0.1-1.4-0.1
		c-0.4,0.1-0.8,0.3-1.1,0.5c-0.2,0.1-0.6,0.5-0.5,0.6c0.1,0.3,0.3,0.6,0.6,0.7c1,0.4,2,0.8,3,1.2
		C141.8,132.2,142.7,131.6,142.7,130.2z M154.3,136c-1.6,1.4-1.2,3-1.3,4.6c0.7,0.1,1.6,0.1,1.7-0.7
		C154.7,138.7,154.4,137.4,154.3,136z M164.1,138.3c0.1,0,0.2-0.1,0.3-0.1c-0.3-1.7-0.7-3.3-1-5.1
		C161.7,134.5,161.9,136.4,164.1,138.3z M151.9,147.3c0.5-0.2,1.1-0.3,1.3-0.6c0.5-1,0.8-2.1,1.2-3.3
		C152.9,143.7,151.8,145.5,151.9,147.3z"/>
	<path class="st0" d="M73.6,88.3c-1.5,0.2-3,0.4-4.5,0.6c-1.6,0.2-3.2,0.2-4.8,0.3c-0.5,0-1-0.1-1-0.8c0-0.7,0.5-0.6,1-0.6
		c2.5-0.2,5-0.5,7.5-0.6c1.2-0.1,2.4,0.1,3.6,0c1.5-0.1,3-0.2,4.6-0.4c0.6-0.1,1.1-0.3,1.7-0.4c0.5-0.1,1.1,0.1,1.1,0.7
		c0.1,0.6-0.4,0.7-0.9,0.8c-1,0.2-2,0.4-3,0.5c-1.7,0.1-3.4,0-5.1,0C73.6,88.4,73.6,88.3,73.6,88.3z"/>
	<path class="st0" d="M63.6,92.7c0.6,0.3,1.2,0.6,1.7,1c1.2,1.1,2.6,2,4.1,2.5c2.2,0.7,4.3,0.2,6.4-0.6c1.8-0.7,3.5-1.5,5.3-2.1
		c0.4-0.1,0.8,0,1.2,0.2c0.1,0,0.1,0.5,0,0.8c-0.3,0.5-0.7,0.4-1.2,0.4c-0.8,0.1-1.5,0.4-2.3,0.7c-1.8,0.8-3.5,1.8-5.6,2
		c-2.9,0.3-5.4-0.4-7.7-2.2c-0.6-0.4-1.2-0.8-1.8-1.3c-0.2-0.2-0.4-0.6-0.5-0.9C63.4,92.9,63.5,92.8,63.6,92.7z"/>
</g>
</svg>
