<?xml version="1.0" encoding="utf-8"?>
<!-- Generator: Adobe Illustrator 19.2.1, SVG Export Plug-In . SVG Version: 6.00 Build 0)  -->
<svg version="1.1" id="Layer_1" xmlns="http://www.w3.org/2000/svg" xmlns:xlink="http://www.w3.org/1999/xlink" x="0px" y="0px"
	 viewBox="0 0 163.1 211.2" style="enable-background:new 0 0 163.1 211.2;" xml:space="preserve">
<style type="text/css">
	.st0{fill:#7B1FA2;}
</style>
<g id="icon-child-earache">
	<path class="st0" d="M5.8,160c2.4,4.1,3.7,8.5,3.8,13.2c0.1,2.9-0.3,5.9-0.5,8.8c-0.2,2.3-0.5,4.5-0.7,6.8c-0.1,1.3-0.6,2.8-0.3,4
		c0.9,3.2,3.2,5.4,6.3,6.4c1.4,0.4,3,0.3,4.4,0.4c0.1,0.7,0.2,1.4,0.4,2c0.3,1.1,0.6,2.1,1,3.1c0.4,1.2,0.9,2.3,1.4,3.5
		c0.4,1,0.9,2,1,3h1.8c-0.3-1.4-1-2.8-1.4-4.3c-0.6-1.9-1.3-3.7-1.8-5.6c-0.1-0.5,0.1-1.1,0.2-1.9c0.7,0,1.6,0,2.4,0
		c4.6,0.1,8.6-1.4,11.9-4.6c0.2-0.2,0.7-0.3,1-0.2c3.2,0.8,6.4,1.6,9.7,2.5c-0.3,0.7-0.6,1.6-0.9,2.4c-0.8,2.2-1.9,4.3-2.3,6.6
		c-0.3,1.7-0.6,3.4-0.9,5.1h1.9c0.3-1.9,0.5-3.8,1.1-5.7c0.8-2.7,2-5.3,3.1-8c0.1-0.2,0.5-0.5,0.8-0.5c2.1,0,4.2,0,6.6,0
		c0.1,2.6,0,5,0.2,7.4c0.2,2.3,0.4,4.5,0.7,6.8h1.8c-0.4-3.6-0.7-7.2-0.6-10.9c0-1.2-0.4-2.5,0.1-3.4c0.5-0.8,1.9-1.1,2.9-1.6
		c1.9-0.9,3.8-1.9,5.6-2.8c3.2-1.6,5.8-3.8,7-7.3c0.1-0.2,0.2-0.4,0.3-0.5c0-0.1,0.1-0.1,0.1-0.1c4.2,5.3,9.9,7.5,16.5,7.6
		c3.2,0.1,6.3,0,9.5-0.2c1.3-0.1,2.7-0.7,3.9-1.1c0,2,0,4.1,0,6.2c0,4,0,8,0,12c0,0.7,0,1.4,0,2.1h2.1c-0.1-5.4-0.1-10.7-0.2-16.1
		c0-1.6,0.1-3.2,0.2-4.7c4.2-1.5,8.4-3,12.7-4.6c3.5,4.1,8.5,5.7,13.4,7.8c4.1,1.8,8.3,1.4,12.6,1.4c2.5,0,5.3-3.7,4.8-6.2
		c-0.5-2.2,0.2-4.1,1-6c0.6-1.4,1.5-2.6,2.4-3.8c-0.1,2.6-0.2,5.1-0.4,7.7c-0.3,3.3-0.6,6.6-1.1,9.8c-0.5,3.5-1.3,6.9-1.9,10.4
		c-0.2,1.4-0.5,2.9-0.8,4.3h1.7c0.5-2.7,1.2-5.3,1.7-8c0.5-2.9,0.9-5.9,1.3-8.8c0.4-3.4,0.7-6.9,1.1-10.3c0.4-3.3,0.7-6.6,1.2-9.9
		c0.2-1.5,0.5-3,0.7-4.6c0.5-3.3,0.8-6.6,1.5-9.9c0.6-2.8,1.6-5.4,2.6-8.1c0.7-2.1,0.8-4.6,2.4-6.4c0.3-0.3,0.4-0.8,0.4-1.2
		c0-2.6,0-5.1-0.1-7.7c0-0.7-0.3-1.5-0.6-2.1c-2.4-4.2-4.7-8.5-7.4-12.5c-3.8-5.6-9.4-8.8-15.9-10.4c-1.3-0.3-2.9-0.2-4.2,0
		c-1.6,0.3-3.2,0.8-4.8,1.3c0.4-1,1.1-2,1-2.9c-0.3-4.4,1.3-8.5,1.9-12.8c0.4-3,1.2-6,1.8-9c0-0.2,0-0.4,0-0.6
		c0.3-3.1-0.6-6.1-0.9-9.1c-0.2-1.9-0.6-3.8-0.8-5.8c-0.3-3.1-0.7-6.1-2.4-8.7c-1.4-2.1-2.9-4.2-4.3-6.4c-0.8-1.2-1.4-2.5-1.4-4
		c0-2.5-0.2-5-0.6-7.5c-0.5-3.2-1.3-6.4-2-9.6c-0.4-1.9-1.2-3.7-2.5-5.2c-3.7-4.6-7.4-9.1-11.2-13.7c-2-2.4-4-4.6-6.1-6.9
		c-0.9-1-1.6-2.2-2.6-2.9c-2.7-1.7-5.6-3.1-8.5-4.5c-1-0.5-2.2-0.8-3.3-0.9c-3.3-0.4-6.4,0.3-9.1,2.2c-0.8,0.6-1.7,0.6-2.6,0
		c-0.7-0.5-1.4-1-1.9-1.6c-1.3-1.7-3.3-2.4-5.2-2.6c-2.4-0.3-5-0.3-7.4,0.2c-5.3,1.1-10.3,2.9-14.8,5.9c-4.3,2.8-8.3,6-12.3,9.2
		c-3,2.4-5.9,5.1-8.6,7.8c-3.4,3.5-6.2,7.5-8.4,11.9c-3.1,5.9-4,12.1-2.4,18.5c1,4.1,2.2,8,3.3,12.1c0.6,2.4,1.4,4.7,0.5,7.5
		c-1.5,4.3-1.5,9.1-1.5,13.7c-0.1,8.6,0.1,17.1,0.2,25.7c0,0.3,0.1,0.6,0.1,0.8c0.7,2.4,1.4,4.8,2.1,7.2c-0.8,0.2-1.7,0.2-2.4,0.7
		c-1.3,0.8-2.5,1.7-3.6,2.7c-3.7,3.8-7.3,7.7-10.9,11.6c-3,3.3-3.7,7.1-2.7,11.4C1.4,151.7,3.4,155.9,5.8,160z M27.9,197.2
		c-4.2,1-8.5,0.8-12.7,0.4c-2.2-0.2-5.9-3.7-5.3-6.3c0.3-1.2,0.6-2.4,1.2-3.5c1.7-3.3,3.5-6.4,5.2-9.7c0.6-1.2,1.2-2.4,1.9-3.7
		c0.6,0.8,1.2,1.7,1.7,2.5c1.7,2.8,3.5,5.5,5,8.3c1.6,2.9,3.9,4.8,6.7,6.4c0.9,0.5,1.8,1.1,2.9,1.7
		C32.6,195.4,30.4,196.6,27.9,197.2z M143.3,193.5c-7,0.7-13-2-18.8-5.3c-1.3-0.7-2.3-1.7-3.5-2.6c-0.7-0.5-0.6-1,0-1.4
		c0.5-0.4,1.1-0.7,1.6-1c2.6-1.4,4.7-3.4,6.8-5.4c1.4-1.4,3-2.5,4.6-3.8c0.4-0.3,0.8-0.7,1.1-1c1.2,1.2,2.3,2.3,3.4,3.6
		c1,1.2,2,2.5,2.9,3.7c1.5,2,3.1,4,4.5,6.1c0.6,0.8,1.2,1.8,1.3,2.7C147.7,191.2,145.5,193.3,143.3,193.5z M130.6,114.6
		c2.9-1.3,6-2.3,9.3-1.1c2.8,0.9,5.5,1.9,7.8,3.7c2.8,2,5.2,4.3,6.9,7.5c1.8,3.4,3.9,6.6,5.8,10c0.5,0.9,0.7,2.1,0.8,3.2
		c0.1,1.9,0.1,3.8,0,5.8c0,0.5-0.4,1-0.7,1.5c-0.2,0.3-0.4,0.4-0.6,0.7c-0.5,0.8-1,1.6-1.4,2.5c-0.2,0.3-0.4,0.9-0.2,1.1
		c0.7,0.7,0.4,1.3,0.2,2c-0.7,2-1.4,4-1.9,6.1c-0.8,3.2-1.5,6.4-1.9,9.7c-0.4,3.4-0.8,6.5-2.8,9.5c-1.8,2.6-3.6,5.3-4.3,8.4
		c-0.1,0.1-0.3,0.1-0.4,0.2c-1.4-1.9-2.7-3.8-4.1-5.7c-0.9-1.2-1.7-2.7-2.8-3.7c-2.7-2.3-4-5.4-5.1-8.6c-1.5-4.6-3.9-8.7-6.4-12.8
		c-0.6-1-1.9-1.7-2.9-2.4c-0.6-0.5-1.3-0.9-1.9-1.4c-0.1,0.1-0.3,0.2-0.4,0.2c-0.1-2.4-0.4-4.9-0.4-7.3c0-3,0.3-6,0.5-8.9
		c0.1-1.3,0.3-2.6,0.9-3.8c1.5-3.2,2-6.7,2.8-10C127.8,118.4,128.2,115.7,130.6,114.6z M116.4,79.9c1-2.4,1.7-5,2.7-7.4
		c0.5-1.1,1.2-2.1,1.9-3.2c2-3.1,3.6-6.3,3.9-10.1c0.2,0.1,0.3,0.1,0.4,0.1c1.3,2,2.9,3.8,4,5.9c0.9,1.8,1.4,3.8,1.8,5.7
		c0.5,2.2,0.6,4.4,0.9,6.6c0.4,3.5,1.2,6.9,0.8,10.4c-0.1,1.2-0.5,2.5-0.8,3.7c-0.9,4.3-1.7,8.7-2.5,13c0,0,0,0.1,0,0.1
		c0.6,4.5-1.9,8.2-3,12.3c-0.6,2.5-1.2,5-1.9,7.5c-0.2,0.9-0.4,1.9-0.8,2.7c-1.2,2.8-2,5.7-2.1,8.7c-0.1,3.6-0.4,7.2-0.4,10.9
		c0,2.8,0.2,5.5,0.5,8.3c0.3,3.8-0.8,7.1-2.7,10.3c-0.8,1.3-1.3,2.7-2,4.1c-0.4,0.7-0.9,1.2-1.3,1.9c-0.2,0.3-0.5,0.7-0.4,0.9
		c0.2,0.3,0.7,0.7,1,0.7c0.6-0.2,1.4-0.5,1.7-1c1.7-3.3,3.4-6.7,4.9-10.2c0.6-1.5,0.6-3.3,0.7-4.9c0.1-1.3,0-2.7,0-4.2
		c1.8,1.1,3.4,2.1,4.4,4c2.2,4,4.3,8.1,5.8,12.4c0.4,1.1,0.2,1.8-0.7,2.3c-0.1,0.1-0.3,0.1-0.3,0.2c-0.6,2.2-2.8,2.9-4.2,4.4
		c-5.7,6.3-13.1,9.6-21,11.9c-2,0.6-4,1.3-6,1.9c-1.3,0.4-2.6,0.7-4,0.7c-3.4,0-6.7,0.2-10.1-0.2c-4.2-0.5-8.2-2.1-11.1-5.5
		c-1.8-2.1-3.2-4.5-3.4-7.3c-0.2-1.6-0.5-3.2-0.7-4.8c-0.2-2.2,0.4-4.2,1.1-6.3c1-2.8,1.9-5.5,2.8-8.3c0.7-2.3,1.1-4.6,1.9-6.9
		c0.4-1.2,1.3-2.3,2-3.5c0.4-0.6,0.9-1.1,1.2-1.7c4.8-7.6,9.2-15.5,14.5-22.9c3.4-4.7,6.1-9.7,9-14.6c0.4-0.7,0.7-1.5,1-2.3
		c1.3-3.6,3.1-6.9,5.9-9.6c1.6-1.6,2.6-3.4,2.9-5.8C115,87,115.1,83.3,116.4,79.9z M71.7,165c-0.5-2.3-1-4.7-1.6-7
		c-1-3.6-3.4-6.4-5-9.7c-0.9-1.7-1.7-3.4-2.5-5c0.1-0.1,0.2-0.2,0.3-0.3c0.2,0.1,0.5,0.1,0.6,0.2c3.4,2.9,7.2,5.3,11.5,6.7
		c1,0.3,1.2,0.8,0.9,1.8c-1.1,3.6-2.1,7.2-3.2,10.7C72.3,163.3,72.1,164.2,71.7,165z M81.3,136.5c1.4-0.4,2.7-1.1,4.2-1.8
		c0,0.2,0.1,0.6,0,0.8c-0.7,1.1-1.2,2.3-2.2,3.1c-0.7,0.6-1.8,0.8-2.7,0.9c-2.2,0.3-4.4,0.9-6.6-0.1c-1.4-0.7-2.8-1.5-4.2-2.3
		c0.1-0.2,0.1-0.4,0.2-0.6c0.5,0,1.1-0.1,1.5,0.1C74.7,138.2,78,137.5,81.3,136.5z M71.7,134.9c1.4-0.1,2.6-0.2,3.8-0.3
		c1.1-0.1,2.2-0.2,3.2-0.4c1.4-0.1,2.8-0.3,4.3-0.4l0,0.5C80.2,136.5,73.2,137.1,71.7,134.9z M39.3,91.5c0.8,0.5,1.6,1,2.3,1.7
		c1.7,1.6,3.8,2.1,6,2.4c3.1,0.3,6.3,0.5,9.4,0.5c1.4,0,2.8-0.4,4.2-0.9c2.5-0.9,4.9-1.8,7.2-3.1c1.7-0.9,3.3-2.2,4.8-3.5
		c3.2-2.7,5.7-6,8.1-9.5c0.2-0.3,0.9-0.3,1.4-0.5c0.1,0.5,0.5,1.2,0.3,1.6c-0.8,1.5-1.7,3-2.8,4.3c-1.8,2.2-3.7,4.2-5.5,6.3
		c1.1,0,2.6,0.1,4,0c4.4-0.3,8.7-1,12.1-4.1c0.8-0.7,1.8-1.1,2.6-1.7c2-1.4,3.3-3.3,4.6-5.3c0.8-1.3,1.2-1.4,2.3-0.4
		c1.8,1.6,3.9,1.9,6.1,1.5c1.8-0.3,3.4,0.1,4.8,1.4c1.3,1.2,1.5,2.5,1.4,4c0,1.7-0.1,3.4-0.2,5.1c0,0.5-0.1,1.1-0.4,1.6
		c-0.7,1-1.4,2-2.2,2.8c-2.6,2.6-4.3,5.8-5.7,9.2c-1.1,2.8-2.7,5.3-4.1,8c-0.7,1.3-1.3,2.6-2.1,3.8c-1.4,2-3,3.8-4.3,5.8
		c-2.3,3.3-4.4,6.6-6.6,10c-0.4,0.6-0.7,0.9-1.5,0.8c-1.6-0.2-3.2-0.3-4.8-0.3c-0.9,0-1.7,0.2-2.6,0.4c-0.9,0.1-1.8,0.6-2.6,0.4
		c-1.3-0.3-2.5,0.1-3.7,0.4c-1.8,0.5-3.6,0.9-5.4,1.4c-0.2,0-0.4,0-0.6,0.1c-0.3,0.3-0.6,0.6-1,1c0.4,0.2,0.9,0.7,1.2,0.7
		c1.7-0.3,2.8,0.7,3.8,1.7c2.3,2.4,5.1,2.8,8.1,2.4c1-0.1,2.1-0.2,3.4-0.4c-0.2,0.7-0.3,1.2-0.5,1.5c-1.3,1.9-2.6,3.8-3.9,5.7
		c-0.2,0.3-0.9,0.4-1.2,0.3c-1.5-0.5-3-1.1-4.4-1.8c-4.6-2.5-8.9-5.5-12-10c-2-2.8-4.4-5.3-6.3-8.1c-3.7-5.4-7.2-10.9-10.7-16.4
		c-1.9-3.1-3.7-6.2-5.3-9.5c-1.4-3-2.4-6.2-3.5-9.3c-0.3-0.9-0.3-1.9-0.5-3C35.5,89.7,37.5,90.3,39.3,91.5z M19.4,107.8
		c0.2-3.5,0-7,0-10.4c0-2.5-0.3-5-0.2-7.5c0.2-4.9,0.2-9.9,1.2-14.7c0.1-0.3,0.2-0.6,0.2-0.7c1.4,3.2,2.9,6.4,4.4,9.7
		c1.1,2.5,2.7,4.7,4.7,6.7c0.8,0.8,1.4,1.7,1.9,2.7c1.6,3.7,2.9,7.5,4.6,11.2c0.9,2,2.1,3.9,3.2,5.8c1.8,3,3.6,6.1,5.5,9.1
		c1.1,1.7,2.5,3.2,3.5,5c2.2,3.8,5.1,7,7.6,10.6c1.9,2.7,3.3,5.7,4.8,8.6c1.7,3.2,3.1,6.6,5,9.7c2.7,4.2,3.5,8.8,4.1,13.6
		c0.5,4.2,0,8.6,1.5,12.6c1,2.6,0.6,4.9-0.8,7c-0.9,1.3-2.1,2.5-3.5,3.3c-3.2,1.8-6.5,3.3-9.8,4.9c-0.6,0.3-1.3,0.3-2,0.3
		c-3.2,0-6.4,0.2-9.6-0.3c-3.5-0.6-7.3-0.9-10.4-3.1c-1.6-1.2-3.3-2.2-5-3.2c-1.9-1.1-3-2.9-4.1-4.7c-1.7-3-3.4-6.1-5.3-9
		c-1.2-1.7-1.6-3.6-1.6-5.5c0-2.2,0.1-4.5,1.4-6.4c0.1-0.1,0.2-0.2,0.5-0.6c-0.4,6.7,3.2,11.6,6.2,16.7c1-0.3,1.2-0.9,0.7-1.9
		c-1.3-2.6-2.6-5.1-3.8-7.7c-0.8-1.8-1.2-3.7-1.3-5.6c-0.2-4.4,0.5-8.5,1.8-12.7c1.3-3.9,1.2-8,1.2-12c0-6.9-1.9-13.3-4.3-19.6
		C20.3,115.7,19.2,111.9,19.4,107.8z M4.5,136.7c3.4-3.5,6.7-7.2,10.1-10.7c1-1.1,2.3-2,3.5-2.9c0.3-0.2,0.8-0.2,1.3-0.3
		c0.5-0.1,1.1-0.1,1.9-0.2c0.5,1.7,0.8,3.5,1.4,5.3c1.9,5.6,1.8,11.5,1.6,17.2c-0.1,2.6-1.1,5.1-1.7,7.6c-0.4,1.8-0.7,3.6-1.1,5.4
		c-0.1,0.4-0.2,0.8-0.4,1.1c-2.3,2.5-3.2,5.5-3.5,8.8c-0.2,2.2-0.8,4.4-1.7,6.4c-1.3,3-3.1,5.8-5,8.6c0.1-1.2,0-2.5,0.3-3.7
		c1-4.6,0.2-9-0.9-13.5c-0.9-3.7-2.8-6.9-4.6-10.1c-1.7-3.1-3-6.5-3.6-10C1.5,142.6,1.9,139.4,4.5,136.7z"/>
	<path class="st0" d="M88.8,107.8c-1.7-0.6-3.3-1.1-5-1.7c-0.9-0.3-1.7-0.7-2.5-1c-1-0.4-1.1-0.8-0.4-1.6c2.9-2.9,6.6-4.1,10.6-4.7
		c2.5-0.4,5.1-0.9,7.6-1.5c1.4-0.3,1.9,0,1.6,1.3c-0.5,2.5-2,4.5-3.8,6.2c-2.2,2.1-5,2.6-8,2.6C88.9,107.6,88.9,107.7,88.8,107.8z
		 M94,104.9c2.1-0.9,3.5-2.6,4.4-4.7c0.3-0.7-0.1-1.2-0.8-1c-1.2,0.2-2.4,0.6-3.2,0.8C94.3,101.8,94.1,103.3,94,104.9z M83.5,104
		c0,0.2,0,0.3,0,0.5c1.7,0.5,3.2,1.6,5.2,1.3c-1.5-1.1-1.5-2.5-1-4.2C86.1,102.5,84.8,103.3,83.5,104z"/>
	<path class="st0" d="M66.1,106.7c-4.4,2.5-8.1,6-13.5,4.5c-3-0.8-5.6-2.4-7.3-5c-0.2-0.4-0.3-1.1-0.1-1.5c0.1-0.3,0.9-0.4,1.3-0.3
		c2.9,0.8,5.8,0.2,8.6-0.2c3.2-0.4,6.4-0.9,9.2,1.2C64.9,105.8,65.3,106.2,66.1,106.7z M58.8,109.3c1.2-0.7,2.3-1.4,3.5-2.2
		c0.2-0.1,0.2-0.9,0.1-1c-0.6-0.3-1.3-0.6-2-0.7c-0.2,0-0.7,0.4-0.8,0.7C59.3,107.1,59.1,108.2,58.8,109.3z M47.4,106.4
		c1.5,1.8,3.5,2.3,5.2,3c-0.3-0.8-0.5-1.6-0.8-2.4c-0.1-0.2-0.5-0.5-0.7-0.5C50,106.4,48.8,106.4,47.4,106.4z"/>
	<path class="st0" d="M65.8,123.1c0.3-1,0.6-2,0.9-2.9c0.1-0.3,0.5-0.4,0.7-0.6c0.2,0.3,0.5,0.7,0.4,0.9c-0.1,0.7-0.4,1.4-0.5,2.1
		c-0.5,3.2,1,3.5,3.1,3.6c1.5,0.1,2.7,0.5,3.8,1.5c1.1,1,2.4,1.1,3.6,0.2c1.2-0.9,2.4-1.9,3.5-2.8c0.5-0.4,1-0.8,1.5-1.1
		c1.5-1,1.7-2.4,0.6-3.8c-0.1-0.2-0.3-0.3-0.4-0.5c-0.1-0.4-0.1-0.9-0.2-1.3c0.4,0.2,0.9,0.2,1.2,0.5c0.8,0.9,1.3,1.8,1.3,3.1
		c0,1.2-0.5,2-1.5,2.8c-1.6,1.2-3.1,2.6-4.7,3.9c-2,1.7-3.7,1.8-5.7,0.1c-1.2-1.1-2.6-1.1-4-1.3C67,127,66,125.9,65.8,123.1z"/>
	<path class="st0" d="M102.7,91.5c0.3,0.9-0.1,1.5-0.8,1.7c-1.8,0.5-3.6,0.8-5.3,1.3c-3.2,0.9-6.3,1.8-9.5,2.7
		c-0.8,0.2-1.7,0.6-2.5,0.8c-0.3,0.1-0.7,0.2-1,0.1c-0.4-0.2-0.8-0.5-1.2-0.8c0.3-0.3,0.5-0.8,0.8-0.9c2.8-1,5.6-2,8.5-2.8
		c3.3-0.9,6.7-1.5,10-2.2C102,91.5,102.3,91.5,102.7,91.5z"/>
	<path class="st0" d="M45.4,99.1c4.6,0.2,9.2,0.5,13.8,0.8c0.4,0,0.7,0.3,1.1,0.5c-0.3,0.3-0.6,0.8-1,0.8c-1.3,0.2-2.5,0.4-3.8,0.3
		c-3.6-0.1-7.2-0.4-10.9-0.6c-0.6,0-1.3-0.1-1.9-0.4c-0.3-0.1-0.4-0.6-0.6-0.9c0.3-0.1,0.6-0.4,0.9-0.4
		C43.9,99.1,44.6,99.1,45.4,99.1C45.4,99.1,45.4,99.1,45.4,99.1z"/>
</g>
</svg>
