<?xml version="1.0" encoding="utf-8"?>
<!-- Generator: Adobe Illustrator 19.2.1, SVG Export Plug-In . SVG Version: 6.00 Build 0)  -->
<svg version="1.1" id="Layer_1" xmlns="http://www.w3.org/2000/svg" xmlns:xlink="http://www.w3.org/1999/xlink" x="0px" y="0px"
	 viewBox="0 0 167.3 170.3" style="enable-background:new 0 0 167.3 170.3;" xml:space="preserve">
<style type="text/css">
	.st0{fill:#D32F2F;}
</style>
<g id="icon-child-sty">
	<path class="st0" d="M74.7,7.1c0.4-0.5,0.8-1,1-1.3c1.7,1.3,3.2,2.5,5,3.9c0-0.5,0.1-0.8,0-1.1c-0.5-2-0.5-3.9,0.6-5.7
		c0.7-1,1.5-2.1,2.5-2.8c0.5-0.3,1.6-0.1,2.3,0.2c1.1,0.4,2,1,3,1.6c1.5,0.9,3.1,1.8,4.4,2.9C94.7,5.8,95.8,6,97,6.1
		c1.6,0.1,3.1,0.1,4.5,1c1.5,1.1,1.8,3.1,0.5,4.4c-0.5,0.6-1,1.1-1.7,1.7c1.3,0.5,1.2,1.7,1.1,2.6c2.3,1,4.5,1.9,6.7,2.8
		c1,0.4,2,0.8,3,1.2c0.8,0.3,1.7,0.5,1.4,1.7c0,0.2,0.2,0.5,0.4,0.7c0.8,1.1,1.7,2.2,2.3,3.4c1,2.1,2.7,3.6,4,5.4
		c0.9,1.2,1.7,2.5,2.4,3.8c1.6,2.7,3.2,5.5,4.6,8.3c0.6,1.2,0.9,2.5,1.3,3.8c0.7,2.2,1.4,4.3,2,6.5c0.4,1.6,0.8,3.3,1.1,4.9
		c0.3,2.2,0.5,4.3,0.6,6.5c0.2,3.2-0.1,6.3-1.2,9.3c-0.1,0.3-0.1,0.7-0.1,1c-0.3,1.8-0.5,3.7-0.8,5.5c-0.2,1.4-0.7,2.7-0.9,4.1
		c-0.2,1.5-0.9,2.8-1.7,4c-1,1.4-1.9,2.8-2.7,4.2c-0.5,0.9-1.2,1.3-2.2,1.2c-1-0.1-1.5,0.2-1.7,1.3c-0.5,2.2-1.3,4.3-1.8,6.5
		c-0.4,1.6-0.5,3.2-1,4.7c-0.4,1.4-1,2.8-1.7,4.1c-0.7,1.2-1.7,2.3-2.5,3.5c-0.6,0.8-1,1.7-1.5,2.6c-0.1,0.2,0,0.5,0.1,0.7
		c1.5,2.1,2.8,4.4,4.5,6.3c1.7,1.8,3.8,3.2,5.7,4.8c0.9,0.7,1.7,1.5,2.6,2.2c1,0.8,2.2,1.1,3.5,1.2c2.2,0.2,4.5,0.8,6.7,1.3
		c0.3,0.1,0.7,0.2,1,0.2c2.7,0.1,5.4,0,8.1,0.4c3.7,0.5,7.6,1.1,10.1,4.4c1.6,2.1,3,4.4,4.4,6.6c1.3,2.1,2.3,4.4,3.6,6.5
		c1.3,2.3,1.7,4.8,2.6,7.2c0.4,1,0.8,1.9,1.1,2.9c0.6,2.2,1.2,4.4,1.7,6.7c0.2,0.8-0.4,1.5-1.3,1.7c-0.4,0.1-0.8,0.1-1.2,0
		c-3.9-0.9-7.9-0.4-11.8-0.6c-0.8,0-1.7-0.1-2.4-0.2c-1.6-0.4-1.8-1-1.6-2.6c0.4-2.5,0.8-5.1,0.9-7.6c0.2-2.3,0.2-4.5,0-6.8
		c-0.2-2.1-0.6-4.2-1-6.2c-0.3-1.5-1.7-2.2-2.8-3.1c-0.5-0.4-1-0.7-1.4-1.2c-2.2-2-4.4-4-6.8-6.2c-0.3,0.5-0.6,1.1-1,1.5
		c-0.4,0.3-0.9,0.5-1.3,0.7c-0.1-0.1-0.2-0.2-0.3-0.4c0.4-0.8,0.8-1.5,1.3-2.4c-3-0.7-5.8-1.4-8.7-1.1c-1.7,0.2-3.4,0.6-5.1,0.8
		c-1,0.1-1.7,0.4-2.5,0.9c-0.3,0.2-0.8,0.1-1.2,0c-1-0.1-1.6,0.3-1.7,1.3c-0.3,1.8,0.8,3.1,2.6,3c1.4-0.1,2.8-0.4,4.3-0.4
		c1.5-0.1,3-0.1,4.5,0c3.2,0.2,6.1,1.3,9.1,2.4c0.7,0.3,1.4,0.5,2,0.9c0.2,0.1,0.4,0.5,0.4,0.8c0,0.2-0.2,0.6-0.4,0.6
		c-0.3,0.1-0.7,0-1-0.1c-1.9-0.8-3.7-1.6-5.6-2.4c-0.1-0.1-0.5,0.1-0.6,0.3c-0.4,0.5-0.7,1-1.1,1.5c-0.2,0.2-0.7,0.2-0.9,0.1
		c-0.2-0.1-0.3-0.7-0.2-0.9c0.2-0.5,0.6-0.9,1.1-1.6c-1.4-0.2-2.7-0.5-4-0.5c-2.3,0-4.6,0.3-6.9,0.5c-0.6,0.1-1.2,0.5-1.8,0.7
		c-1.4,0.4-2.9,0.8-4.2,1.3c-0.7,0.3-1.3,0.8-1.8,1.4c-0.3,0.5-0.6,1.4-0.4,1.7c0.3,0.5,1.1,1,1.7,1c2.7,0,5.3-0.2,8-0.2
		c2,0,4.1,0.3,6.1,0.3c3,0.1,5.6,1.6,8.2,2.8c0.6,0.3,1,0.9,0.6,1.5c-0.4,0.6-0.9,0.2-1.4-0.1c-1.6-0.8-3.2-1.6-4.8-2.4
		c-0.2-0.1-0.5-0.1-0.7-0.1c-0.2,0.7-0.4,1.4-0.7,2c-0.1,0.3-0.6,0.4-0.9,0.6c-0.1-0.3-0.3-0.6-0.3-0.9c0-0.4,0.2-0.8,0.3-1.1
		c0.3-0.7,0.2-1.1-0.6-1.1c-3.3,0-6.6-0.1-9.8,0c-1.4,0-2.9,0.2-4.3,0.3c-1.1,0.1-2.7,1.4-2.9,2.5c-0.2,1,0.3,1.5,1.3,1.5
		c1.3,0,2.6,0,3.9,0c3,0.1,5.9,0.9,8.7,2c1.9,0.8,3.9,1.3,5.9,2c1,0.4,2.1,0.7,3.1,1.2c0.5,0.3,0.9,0.8,1.3,1.2
		c-0.5,0.8-1,0.9-1.6,0.5c-1.1-0.6-2.3-1.2-3.4-1.8c-0.3-0.1-0.6-0.2-0.9-0.4c-0.4,0.8-0.8,1.6-1.3,2.3c-0.1,0.2-0.5,0.2-0.8,0.3
		c-0.1-0.3-0.3-0.7-0.2-0.9c0.2-0.5,0.6-0.9,0.8-1.4c0.1-0.2-0.1-0.7-0.3-0.8c-2.6-0.9-5.3-1.9-7.9-2.6c-1.4-0.3-2.9-0.1-4.4-0.1
		c-0.9,0-1.5,0.8-1.5,1.6c0,0.6,0.5,1.4,1,1.7c1.3,0.8,2.7,1.3,4,2c1.4,0.8,2.7,1.7,4,2.7c0.5,0.4,0.9,1.1,1.3,1.7
		c0.5,0.7,1.1,1.5,1.6,2.3c0.4,0.6,0.8,1.4,0.2,2c-0.4,0.4-1.1,0.6-1.7,0.6c-5.2,0-10.3,0-15.5,0c-1.2,0-2.4-0.1-3.6-0.1
		c-22.7,0-45.4,0-68.1,0c-1.2,0-2.3-0.2-3.5-0.3c-0.8-0.1-1.4-0.6-1.4-1.4c0.1-2,0.1-4.1,0.6-6c0.8-2.9,1.5-5.8,1.4-8.9
		c-0.2-3,0.2-6,0.8-9c0.5-2.5,0.6-5,1-7.5c0.4-2.1,0.9-4.2,1.5-6.3c0.6-2.2,1.2-4.4,1.8-6.6c0.1-0.3,0.2-0.5,0.3-0.8
		c0.5-1.4,0.7-2.6-0.5-3.9c-1.4-1.4-2.6-3-4.1-4.4c-0.5-0.5-1.3-0.6-1.9-0.9c-0.7-0.3-1.6-0.6-2.2-1c-0.3-0.2-0.3-0.7-0.4-1.1
		c0.4-0.1,0.8-0.4,1.2-0.3c1,0.3,1.9,0.7,2.9,1c2.1,0.6,3.5,2.1,4.7,3.8c0.5,0.7,0.9,1.4,1.5,2.3c0.5-1.5,0.5-2.7,0.2-4
		c-0.9-3.8-1.1-7.7-1.1-11.6c0-1.4,0.2-2.7,0.5-4.1c0.1-0.4,0.8-0.7,1.2-1.1c0.1,0,0.2,0.1,0.3,0.1c0,0.6,0.2,1.1,0.1,1.7
		c-0.5,2.3-0.5,4.7-0.2,7c0.5,3.5,0.8,7,1.2,10.6c0.8-0.6,1.4-1.1,2.1-1.6c1.8-1.3,3.6-2.8,5.5-3.9c1.3-0.8,2.9-1.1,4.4-1.6
		c0.9-0.3,1.7-0.5,2.1-1.5c0.1-0.3,0.4-0.6,0.6-0.8c1.2-1,1.8-2.4,2.3-3.9c0.2-0.5,0.4-1.1,0.7-1.6c1.5-2.4,2.6-5,2.7-7.8
		c0.1-2.3,0.3-4.7,0.5-7.2c-1.4,0.1-2.7,0.2-3.9,0.4c-0.5,0.1-1,0.4-1.3,0.8c-1.8,2.3-3.1,4.9-3,7.9c0,0.9,0.3,1.9,0.7,2.6
		c0.9,1.6,0.8,3.3,1.1,5c0,0.2-0.5,0.7-0.6,0.7c-0.3-0.1-0.9-0.5-0.9-0.7c0.3-2.2-1-4-1.6-6c-0.1-0.4-0.2-0.9-0.2-1.3
		c0-0.8-0.4-0.9-1-0.8c-1.5,0.4-2.9,1-4,2.2c-0.2,0.3-0.6,0.5-0.9,0.6c-0.3,0-0.7-0.1-0.8-0.4c-0.1-0.1,0.1-0.6,0.2-0.8
		c1.4-1.3,2.8-2.5,5-2.9c-0.5-0.4-0.7-0.6-1-0.8c-1.6-0.6-3.3-1.3-4.9-1.8c-1.8-0.5-3.7-0.6-5.5-0.9c-0.6-0.1-1.3-0.3-1.3-1.3
		c1.2,0,2.4-0.1,3.5,0c2,0.3,4.1,0.7,6.1,1.3c1,0.3,2.1,0.9,2.9,1.6c1.2,0.9,2.3,0.8,2.8-0.8c0.5-1.9,1.5-3.7,3.1-5
		c0.5-0.4,1.3-0.7,2-0.8c1-0.2,1.9-0.1,3-0.2c-1.1-0.8-2-1.5-3-2.2c-0.9-0.7-2.2-0.6-3.3,0.2c-1,0.6-1.9,1.3-3,1.8
		c-1.1,0.6-1.4,0.4-1.8-0.7c0.9-0.7,1.8-1.2,2.6-1.9c1.8-1.5,5.2-1.5,6.9,0.2c1,0.9,2.1,0.8,3.2,0.6c0.7-0.1,1.1-1.7,0.6-2.6
		c-1.3-2.4-3.2-4.1-6-4.4c-1.1-0.1-2.1-0.3-3.2-0.5c0,0.8,0,1.6,0,2.3c0,1.5-0.5,2.1-2,2.3c-1.4,0.2-2.8,0.1-4-0.7
		c-0.9-0.6-1.5-0.4-2.2,0.3c-0.8,0.8-1.5,1.6-2.3,2.6c0.6,0.6,1.1,1.2,1.7,1.8c0.4,0.4,0.9,0.9,0.3,1.4c-0.2,0.2-0.9-0.2-1.3-0.4
		c-0.9-0.6-1.7-1.3-2.5-1.9c-0.4-0.4-0.8-0.8-1.4-1.4c0.6-0.2,1-0.4,1.3-0.6c0.6-0.3,1.3-0.5,1.8-0.9c0.6-0.5,1.2-1.1,1.7-1.8
		c1.2-1.5,1.4-1.2,3-0.5c1,0.5,2,0.7,3,0.7c0.6,0,1-0.1,1.2-0.7c0.2-0.7,0.5-1.4-0.1-2c-1.3-1.1-2.7-2-4.5-1.9
		c-1.7,0.2-3.4,0.4-5.2,0.6c-1.2,0.2-2.1,0.8-2.8,1.8c-1.5,2.2-3.3,4.2-4.8,6.4c-1.4,2.2-2.6,4.5-4.2,6.6c-1.2,1.6-1.8,3.7-2.7,5.5
		c-1.1,2.4-2.2,4.8-3.4,7.1c-0.7,1.4-1.4,2.7-2.1,4c-0.3,0.5-0.6,0.9-0.9,1.3c-0.8,1.1-1.6,2.2-2.4,3.2c-2.2,2.7-2.8,6.1-4.2,9.2
		c-0.8,1.8-1.8,3.5-2.5,5.3c-0.5,1.3-1,2.7-1.2,4c-0.3,2.8-1.4,5.4-2.8,7.8c-2.3,4.1-4.1,8.3-5.3,12.8c-0.6,2-1.3,4-1.9,6
		c-0.2,0.8-0.2,1.8-0.4,2.6c-0.4,2.4-0.9,4.8-1.4,7.3c-0.1,0.6-0.1,1.2-0.3,1.7c-0.1,0.3-0.5,0.6-0.7,0.9c-0.3-0.3-0.8-0.6-0.9-0.9
		c-0.1-0.3,0.1-0.8,0.2-1.2c0.5-3.1,0.9-6.2,1.6-9.3c0.5-2.4,1.3-4.6,2-7c0.6-2.2,1.1-4.4,1.9-6.5c0.6-1.7,1.4-3.3,2.3-4.8
		c1.6-2.7,3.1-5.3,3.9-8.3c0.4-1.5,0.5-3,1-4.5c0.6-1.8,1.6-3.4,2.3-5.1c0.6-1.5,1.3-3,1.8-4.6c1.1-3.6,3-6.7,5.4-9.5
		c1.5-1.8,2.4-4.2,3.6-6.3c0.6-1,1.1-2.1,1.6-3.2c0.7-1.4,1.4-2.8,1.8-4.2c0.7-2.2,2-4.1,3.3-6c1.5-2.2,2.8-4.5,4.3-6.7
		c0.9-1.4,2.1-2.7,3-4.1c0.3-0.4,0.3-1,0.3-1.6c0-1.1-0.1-2.1-0.2-3.2c-0.1-1.1-0.4-2.2-0.5-3.3c-0.1-1.4-0.1-2.7-0.1-4.1
		c0.1-1.8,0.3-3.5,0.6-5.3c0.3-1.9,0.6-3.7,1-5.6c0.7-3,1.5-6,2.4-8.9c1.2-3.6,2.3-7.2,4.5-10.4c0.7-1,1.3-2.1,2.1-3
		c1.2-1.2,2.5-2.5,4-3.3c1.5-0.9,2.3-2.2,3.4-3.4c1.3-1.5,1.2-3.3,1.3-5.1c0-0.2-0.2-0.7-0.4-0.7c-1.8-0.6-1.7-2.1-1.6-3.5
		c0.2-2-0.2-3.7-1.1-5.5c-1.1-2.2,0.1-5.2,2.3-5.7c1.2-0.2,2.5,0.3,3.7,0.5c0.8,0.1,1.6,0.4,2.4,0.5c0.6,0.1,1.2,0.1,1.8,0.3
		c1.6,0.5,3,0.1,4.5-0.3c1.6-0.4,2.6,0,3.5,1.4C74.3,6.8,74.4,6.9,74.7,7.1z M120.3,86.5c1.9,0.3,2.1,0.3,2.6-1
		c0.9-1.9,1.4-3.8,0.9-5.9c-0.1-0.3-0.4-0.6-0.6-0.9c-0.2-0.2-0.5-0.5-0.5-0.7c0-0.2,0.3-0.5,0.5-0.7c0.9-0.5,2,0.2,2,1.3
		c0,1.7,0.1,3.5-0.4,5.2c-0.8,2.9-1,4.5-4.3,4.3c-0.1,0-0.1,0.1-0.3,0.2c0.1,1.4,0.1,3,0.2,4.5c1.5,0,2.5-0.4,3.1-1.7
		c0.5-1.1,0.9-2.3,1.6-3.3c1-1.5,2-3,1.6-5c-0.1-0.3,0-0.5,0.1-0.8c0.8-3.1,1.2-6.2-0.8-9c-0.3-0.4-0.6-0.8-1-0.9
		c-0.7-0.2-0.8,0.5-1,1c-0.7,1.3-1.4,2.6-2.2,3.8c-0.5,0.8-1.3,0.6-1.5-0.3c-0.2-1-0.4-2.1-0.3-3.1c0.1-2.8-0.1-5.5-0.9-8.2
		c-0.4-1.5-0.9-3-1.2-4.5c-0.8-3.5-2.1-6.7-4.9-9.2c-1.2-1-2.3-1.2-3.7-1c-0.5,0.1-1.1,0.3-1.6,0.5c-2.4,0.8-4.7,0.9-7.1,0.2
		c-2-0.6-3.6-1.7-5.2-2.9c-0.5-0.3-1.1-0.5-1.7-0.6c-1.5-0.2-2.9,0.3-4.3,0.9c-0.8,0.4-1.7,0.5-2.6,0.6c-0.9,0.1-1.8,0-2.7,0
		c-2.2,0-4.4,0.2-6.5-0.1c-2.1-0.4-4.1-1.4-6.1-2c-1.5-0.5-3-1-4.5-1.2c-3.6-0.5-6.9,0.7-10,2.3c-0.9,0.4-1.7,1-2,1.9
		c-0.3,0.8-0.4,1.7-0.6,2.6c-1.1,4.6-1.5,9.4-1.9,14.1c-0.1,1.7-0.6,3.5-0.9,5.2c-0.1,0.6,0,1.1,0.7,1.4c2.4,1.2,5,1.3,7.6,1.7
		c1,0.2,2.1,0.4,2.9,0.9c1.2,0.8,2.3,1,3.7,1c2.4,0,4.7,0.1,7.1,0.1c1.6,0,2.8,0.9,3.1,2.2c0.1,0.4,0.1,0.9,0.1,1.2
		c0.6,0.2,1.2,0.3,1.7,0.6c1.7,1.2,1.8,3.6,0,4.9c-2.1,1.6-4.2,3-6.3,4.5c-2.1,1.4-4.3,2.7-6.5,4.2c-0.4,0.3-0.8,0.8-1,1.3
		c-0.7,1.5-1.2,3.2-1.9,4.7c-1,2.1-2.1,4.1-3.1,6.3c-0.2,0.5-0.1,1.2,0,1.8c0.1,0.5,0.5,1,0.7,1.5c0.9,2.3,2.4,4.2,4.3,5.8
		c2.3,2,4.7,3.8,7.1,5.7c0.3,0.3,0.8,0.4,1.2,0.6c1.6,0.6,3.3,1.1,4.8,1.8c2.7,1.4,5.4,2.4,8.3,3.2c0.7,0.2,1.4,0.2,2.1,0.1
		c2.3-0.5,4.5-0.9,6.7-1.6c3-0.9,5.7-2.4,8.2-4.3c1.2-0.9,2.3-1.9,3.4-2.7c0.9-0.7,2-1.2,2.8-1.9c1-1,1.9-2.2,2.8-3.3
		c1.9-2.3,3.5-4.8,4-7.9c0.4-2.9,1.2-5.7,1.8-8.6c0.2-0.9,0-1.9,0.5-2.9c0.5-1,0.6-2.2,0.7-3.3c0.1-2.7,0.2-5.5,0.3-8.2
		c0-0.3,0.4-0.6,0.7-0.8c0.2,0.3,0.5,0.6,0.7,0.9c0.1,0.2,0,0.5-0.1,0.8C120.5,84.5,120.4,85.5,120.3,86.5z M117.3,141
		c-0.4-0.8-0.9-1.8-1.2-2.9c-0.4-1.4,0.7-2.4,1.4-3.5c0.3-0.5,0.4-1.2,0.3-1.8c-0.1-0.9-0.3-1.7-0.5-2.6c-0.3-1.1-0.4-2.4-1-3.4
		c-0.7-1.3-1.8-2.3-2.7-3.4c-0.5-0.7-1-1.4-1.5-2.1c-0.6-1-1.2-2.1-1.8-3.1c-0.3,0.2-0.5,0.3-0.7,0.3c-1.9,0.9-3.3,2.4-4.9,3.6
		c-2.2,1.5-4.6,2.9-6.9,4.2c-5.5,3.2-11.3,3.3-17.1,1c-3.4-1.3-6.6-3-9.9-4.6c-1-0.5-1.9-1.4-2.9-2.1c-0.8,1.1-1.7,2.3-2.5,3.5
		c-0.5,0.8-0.9,1.6-1.2,2.5c-0.2,0.6-0.3,1.3-0.2,1.9c0.3,1.5,0.7,3,1,4.5c0.6,2.8,1.7,5.5,3.1,7.9c1.3,2.2,2.8,4.4,4.3,6.4
		c2.9,3.8,5.9,7.4,10.9,8.9c3.8,1.1,7.4,2.7,11.4,2.6c0.7,0,1.5,0.2,2.1,0c1.7-0.7,3.5-1.4,5.1-2.3c3.2-1.7,6-3.9,8.4-6.6
		c0.8-0.9,1.6-1.8,1.1-3.4c-0.5-1.5,0.4-2.8,1.7-3.6C114.4,142.3,115.9,141.6,117.3,141z M66.6,119.6c-1.7-1.4-3.6-2.7-5-4.4
		c-1.4-1.6-2.3-3.7-3.3-5.4c-1.3,0.6-2.6,1.2-4,1.8c-1.6,0.7-3.2,1.4-4.8,2.3c-1.4,0.8-2.7,2-4,2.9c-1.7,1.2-3.2,2.7-4,4.6
		c-0.9,2.1-1.3,4.3-1.9,6.5c-0.2,0.7-0.2,1.4-0.4,2.1c0.8-0.2,1.5-0.5,2.2-0.5c2.7-0.1,5.3-0.2,7.9,0.8c2.2,0.8,4.4,1.5,6.5,2.3
		c0.8,0.3,1.2,0,1.7-0.7c0.8-1.2,1.7-2.4,2.7-3.5c1.4-1.5,2.8-2.8,3.6-4.8C64.6,122.3,65.7,121,66.6,119.6z M83,17.3
		c1,0.4,1.8,0.6,2.5,1c2.5,1.2,4.9,2.5,7.4,3.6c1.8,0.8,3.6,1.4,5.5,2.1c1.3,0.5,1.3,0.5,1.2-1c0-0.4,0.1-0.8,0.2-1.3
		c0-0.2,0.2-0.4,0.1-0.6c-0.6-1.7,0.1-3.3,0.3-5c0-0.5,0-1.3-0.3-1.5c-2.1-1.1-4.1-2.8-6.6-2.9c-3.1-0.2-5.9,0.5-8.3,2.4
		c-0.1,0.1-0.3,0.3-0.3,0.4C84.8,15.8,84.2,16.6,83,17.3z M74.9,20.1c-1.5-1-2.7-2-4-2.6c-0.8-0.4-1.8-0.6-2.6-0.4
		c-2.3,0.7-4.6,1.6-7,2.1c-0.6,0.1-1.3,0.9-1.4,1.5c-0.5,3.3,0.4,6.1,2.8,8.7C66.4,26,70.1,22.5,74.9,20.1z M75.8,7.5
		c-0.4,0.8-0.7,1.8-1.4,2.5c-1.4,1.5-1.9,3.5-2.7,5.2c-0.3,0.6-0.2,1,0.5,1.4c1.2,0.6,2.3,1.3,3.4,1.8c0.3,0.2,0.8,0.2,1.2,0
		c1.8-0.7,3.5-1.6,5.2-2.4c0.4-0.2,0.7-0.4,1-0.6C81.2,12.2,79.4,9.1,75.8,7.5z M64.8,93.3c1.2-0.7,2.2-1.1,3.1-1.7
		c1.8-1.2,3.5-2.4,5.2-3.6c1.6-1.1,3.2-2.3,4.7-3.5c0.3-0.2,0.6-0.8,0.4-1.1c-0.2-0.5-0.7-1-1.1-1.1c-0.8-0.1-1.7,0.1-2.5,0.3
		c-0.7,0.2-1.4,0.6-2.2,0.9c-2.1,0.8-4.2,1.5-6.3,2.3c-0.4,0.1-0.9,0.6-0.9,1C65,88.9,64.9,90.9,64.8,93.3z M61.5,16.9
		c-0.1-1.5-0.5-2.8-0.1-3.8c0.8-2.3,1.9-4.4,4.1-5.8c0.2-0.1,0.3-0.5,0.5-0.8c-0.3-0.2-0.6-0.4-1-0.5c-1.2-0.2-2.4-0.4-3.6-0.6
		c-0.9-0.1-1.7-0.3-2.6-0.4c-1-0.1-1.7,0.5-2,1.4c-0.6,1.3-0.4,2.6,0.3,3.9c0.6,1,0.9,2.1,0.8,3.3c-0.1,1-0.1,1.9,0,2.9
		c0,0.3,0.3,0.8,0.6,1C59.8,18.3,60.6,18,61.5,16.9z M67.2,7.3c-0.8,0.7-1.6,1.3-2.3,2c-1.3,1.3-2.7,2.5-2.5,4.5
		c0.1,1.2,0.4,2.4,0.6,3.6c0.4,0,0.7,0.1,0.9,0c1.7-0.6,3.5-1.2,5.2-1.8c0.2-0.1,0.4-0.3,0.4-0.5c0.1-1.1,0.3-2.2,0.3-3.3
		C69.7,9.9,68.9,8.4,67.2,7.3z M97.1,7.2c0-0.1,0-0.2,0-0.3c-2.3-0.1-4.6-0.3-6.9-0.3c-0.8,0-1.6,0.2-2.2,0.5
		c-1.6,1-3.2,2.1-4.8,3.3c-1.1,0.9-1,1.2-0.1,2.3c0.8,1,1.5,0.3,2.1-0.1c1.7-1.2,3.6-2,5.7-1.9c1.5,0,2.8-0.2,3.8-1.5
		C95.2,8.4,96.2,7.8,97.1,7.2z M92.5,5.5C92.3,5.2,92.2,5,92.1,5c-1.6-1-3.2-2-4.9-2.8c-0.9-0.4-1.5-1.8-2.6-1.1
		c-0.9,0.5-1.6,1.4-2.2,2.3c-0.5,0.8-0.8,1.9-0.9,2.8c-0.1,1,0.1,2.1,0.3,3.1c0,0.2,0.1,0.6,0.2,0.6c0.2,0,0.5-0.1,0.7-0.2
		c1-0.8,2-1.5,3-2.3c1.6-1.3,3.5-2,5.6-1.8C91.6,5.5,92,5.5,92.5,5.5z M66.6,84.1c2.4-0.9,4.7-1.7,7.1-2.7c0.5-0.2,1.2-0.9,1.2-1.3
		c0-0.7-0.6-1.5-1.5-1.5c-2.4,0-4.8,0-7.4,0C66.9,80.5,67.3,82.1,66.6,84.1z M94.6,10.6c1.1,0.5,1.9,1,2.8,1.3
		c1.7,0.6,3.2,0.2,4.1-1.4c0.3-0.5,0.3-1.5,0-2c-0.4-0.8-2.1-1.3-2.6-1.1c-0.1,0-0.2,0.1-0.2,0.2c-0.8,0.5-1.5,1-2.3,1.6
		C95.9,9.5,95.3,10,94.6,10.6z M71,12.9c0.9-1.3,1.5-2.4,2.3-3.4c0.6-0.8,0.6-1.4,0.1-2.2c-0.4-0.7-0.9-1.2-1.9-1
		c-0.6,0.1-1.3,0-1.9,0.1c-0.3,0-0.7,0.1-1,0.2c-0.1,0.1-0.1,0.2-0.2,0.2C70.5,8.2,71,10.4,71,12.9z"/>
	<path class="st0" d="M75.3,112.6c0.9-0.5,1.4-1,2-1.3c1.5-0.6,3.1-1.1,4.7-1.7c1.2-0.4,2.3-0.5,3.6,0.1c0.6,0.3,1.5,0.1,2.2-0.1
		c1.7-0.4,3.3-0.5,4.9,0c1.6,0.4,3.2,0.7,4.7,1.1c0.3,0.1,0.6,0.4,0.7,0.6c0.1,0.4,0,0.9-0.2,1.2c-0.8,0.9-1.7,1.6-2.6,2.5
		c-2.3,2.1-4.9,3.3-8.1,3.2c-0.8,0-1.5,0-2.3,0c-2.6-0.1-4.4-1.5-6.1-3.3c-0.5-0.5-1.3-0.8-1.9-1.2C76.4,113.4,76,113.1,75.3,112.6z
		 M95.6,112.5c-0.6,0-1-0.1-1.4,0c-1.9,0.4-3.8,0.7-5.7,1.2c-1.7,0.5-3.3,0.5-5,0.3c-1.3-0.2-2.6-0.4-4-0.6
		c-0.1,0.1-0.1,0.3-0.2,0.4c0.5,0.4,1,0.9,1.5,1.3c1.5,1.4,3.3,2.2,5.4,1.8c1.5-0.2,2.9-0.5,4.3-0.7
		C92.9,115.9,94.2,114.3,95.6,112.5z M93.1,111.1c-1.8-0.6-3.5-0.9-5.1-0.2c-1.2,0.5-2.3,0.6-3.4-0.2c-0.3-0.2-0.7-0.3-1-0.3
		c-1.1,0.3-2.2,0.8-3.3,1.2C84.7,113.6,88.8,112.6,93.1,111.1z"/>
	<path class="st0" d="M97.2,84.8c-1.8-0.4-3.7-0.7-5.5-1.2c-0.9-0.2-1.2-1.1-0.5-1.9c1.1-1.2,2.4-2.4,3.7-3.4
		c0.5-0.4,1.4-0.5,2.1-0.6c3.1-0.4,6.1-0.3,8.7,1.6c0.3,0.2,0.6,0.4,1,0.6c1,0.7,1,1.7-0.1,2.2c-2.8,1.4-5.8,2.4-9.3,2.3
		C97.3,84.6,97.2,84.7,97.2,84.8z M101.7,78.9c-0.1,0.1-0.1,0.2-0.2,0.2c0.5,1.4-0.3,3.3-1.6,3.5c-0.7,0.1-1.5,0.1-2.1-0.2
		c-1.2-0.6-1.1-1.9-1.1-3c-1.3-0.1-3.6,1.7-4.2,3c3.5,1.8,11.1,0.5,13.1-1.5C104.4,80.2,103,79.5,101.7,78.9z"/>
	<path class="st0" d="M89.7,77.4c-0.9-0.9-0.8-1.7,0.1-2.3c2.8-1.8,5.8-2.9,9.1-3.7c2.8-0.7,5.5-0.6,8.3-0.5c1.5,0,2.2,0.6,2.4,1.7
		c0.2,0.8-0.2,1-1,0.9c-1.3-0.1-2.7-0.2-4-0.1c-1.2,0.1-2.5,0.4-3.7,0.5C96.6,74.4,93.4,75.5,89.7,77.4z"/>
	<path class="st0" d="M94.3,98.7c0.1,2.4-2,4.2-4.7,3.4c-0.3-0.1-0.8,0.1-1,0.3c-1.8,1.8-3.5,2.3-5.6,0.6c-0.5-0.4-1.4-0.5-2-0.4
		c-2.1,0.3-3.6-2.1-2.9-4c0.3-0.9,0.6-1.9,1.1-2.7c0.2-0.3,0.6-0.4,1-0.7c0.1,0.4,0.4,0.8,0.4,1.1c-0.1,0.8-0.5,1.5-0.7,2.2
		c-0.1,0.5-0.3,1-0.3,1.5c0,0.7,0.4,1.2,1.2,1.2c0.7,0,1.3-0.1,1.9,0c0.5,0.1,1.1,0.3,1.5,0.6c1.2,1.1,2,1.2,3,0.1
		c1.1-1.3,2.2-1.7,3.8-1.3c0.4,0.1,1.3-0.4,1.4-0.7c0.1-0.8,0-1.7-0.2-2.6c-0.1-0.4-1-0.7-0.2-1.2c0.5-0.4,1.7-0.2,1.9,0.4
		C94,97.3,94.1,98,94.3,98.7z"/>
</g>
</svg>
