<?xml version="1.0" encoding="utf-8"?>
<!-- Generator: Adobe Illustrator 19.2.1, SVG Export Plug-In . SVG Version: 6.00 Build 0)  -->
<svg version="1.1" id="Layer_1" xmlns="http://www.w3.org/2000/svg" xmlns:xlink="http://www.w3.org/1999/xlink" x="0px" y="0px"
	 viewBox="0 0 140.6 156.2" style="enable-background:new 0 0 140.6 156.2;" xml:space="preserve">
<style type="text/css">
	.st0{fill:#1976D2;}
</style>
<g id="icon-child-poisonivy">
	<path class="st0" d="M1.8,147c1.3,3.9,4.2,5.4,8,6.2c5.2,1.1,10.3,0.7,15.4-0.1c2.9-0.5,3.1-0.1,2.7,2.9c0,0.1,0,0.2,0,0.3H116
		c0-0.2,0-0.3,0.1-0.5c0.2-1.3,0.3-2.7,0.8-4c3.9-9.8,9.9-18.5,16.8-26.3c7.5-8.6,8.3-17.8,5.2-28c-0.2-0.6-0.4-1.4-0.9-1.8
		c-3.7-3.4-7.3-7-12.9-6.9c-4.1,0.1-4.7-0.7-4.8-4.8c-0.1-2.8-1.3-4.9-3.3-6.8c-0.7-0.6-1.3-1.5-1.5-2.4c-0.5-1.8-1-3.7-1.2-5.6
		c-0.6-5.4-2.3-10.3-5.5-14.7c-2.1-2.9-2.1-6-1.2-9.2c0.6-2.1,1.4-4.2,1.9-6.4c0.3-1.4,0.6-2.9,0.2-4.3c-0.3-1.1-1.4-2.6-2.4-2.7
		c-2.2-0.3-2.9-1.6-3.1-3.3c-1-7.5-4.7-13.8-8.9-19.7c-2-2.8-5.2-4.6-7.9-6.8c-2.4-2-5.2-2.2-8.1-2.1c-3,0.2-6,0.3-8.9,0
		C65.8-0.5,62.4,1.7,59.1,4c-2.5,1.8-4.6,4.2-6.9,6.3c-1.7,1.7-3.7,3.2-5.1,5.1c-3.1,4.1-4,9.2-5.4,14.1c-2.3,8.1-0.1,15.6,3.1,22.9
		c0.2,0.6,0.6,1.1,1,1.5c5.3,4.3,8.1,10.4,11.6,16c1.8,2.9,3.8,5.8,6.1,9.2c-2.5-0.5-4.6-0.8-6.7-1.2c-2.9-0.6-5.8-1.4-8.7-1.6
		c-1.5-0.1-3.3,0.5-4.7,1.2c-6.3,3.3-11,8.2-14.6,14.4c-2.5,4.3-5.3,8.4-8.2,12.4c-2.1,2.9-4.7,5.4-7,8.2
		c-4.1,5.2-8.1,10.5-12.2,15.8c-0.5,0.6-1.1,1.2-1.6,1.8c0,4.3,0,8.6,0,12.9C0.6,144.3,1.3,145.6,1.8,147z M114,78.2
		c2.8,0.3,3.7,2.5,4.2,5c0.8,3.7,1.6,7.4,2.5,11c0.6,2.4-1.3,5.5-3.6,5.1c-0.6-0.1-1.2-0.7-1.7-1.2c-0.1-0.1,0.5-0.9,0.9-1.3
		c0.5-0.5,1-0.9,1.5-1.4c-0.1-0.2-0.2-0.4-0.3-0.6c-0.6,0.1-1.3,0-1.8,0.3c-1.9,1.1-3.5,1.5-4.1-1.7c-0.3,0.6-0.8,1.1-1,1.7
		c-2.5,10.6-4.2,21.3-3.9,32.2c0.1,3.1,0.3,6.3,0.2,9.4c0,1.2-0.6,2.6-1.4,3.4c-3.6,3.6-7.6,6.6-12.5,8.3c-3.7,1.3-7.4,0.4-11.1,0
		c-3.7-0.4-6.8-1.7-8.5-5.2c-0.4-0.8-0.7-2-0.4-2.8c0.7-2.4,2.7-4.3,2.4-7c0-0.3,1-0.6,1.4-1c0.9-1.3,1.9-2.6,2.6-4
		c0.5-1.1,0.7-2.4,1-3.6c0.6-2.8,1.2-5.6,1.8-8.5c0.6-2.6,1-5.2,1.8-7.7c0.9-2.7,2.2-5.2,3.2-7.8c1.7-4.6,3.1-9.2,4.9-13.7
		c2.2-5.6,6.6-8.7,12.5-9.3C107.7,77.3,110.9,77.9,114,78.2z M102.6,47.9c1.2-0.2,1.9-0.4,2.9-0.5c0.3,2.1,0.5,4.1-1.8,6.2
		C103.3,51.4,103,49.7,102.6,47.9z M105.3,33.9c0.9,0.2,2.1,0.2,2.5,0.8c1.1,1.6,0.9,3.4-0.3,4.8c-0.8-1.1-1.8-2-2.4-3.1
		C104.8,35.7,105.2,34.7,105.3,33.9z M104.4,38.5c2.6,3.2,2.1,5.6-1.8,7.3C103.1,43.5,103.7,41.2,104.4,38.5z M63.4,75.6
		c-3.7-4.9-6.4-10.5-9.5-15.9c-0.9-1.6-0.7-2.6,1.3-3.5c5-2.3,7.8-6.6,10-11.4c1.2-2.5,2.3-5.1,3.7-7.5c0.7-1.2,1.8-2.4,3-3
		c1.8-1,2-2.4,1.4-4c-1.3-3.6-2.7-7.2-4.1-10.8c-1-2.5-2.4-4.8-3.3-7.3c-0.9-2.5,0.5-4.8,3.1-5.2c0.1,0.2,0.3,0.4,0.2,0.6
		c-1.3,3.6,1,6.3,2.4,9.3c1.9,4.3,3.5,8.7,4.9,13.1c0.4,1.4,0.8,1.5,2.1,1.4c2.5-0.1,5,0,7.5,0.3c2.4,0.3,4.3,1.9,5.1,4.2
		c1.5,3.9,4.6,5.7,8.1,7.2c0.7,0.3,1.5,1.2,1.6,1.9c0.5,3.7,0.9,7.4,1.2,11.1c0.5,6,0.1,11.9-2,17.5c-0.5,1.3-1.5,2.6-2.5,3.6
		c-2.7,2.9-5.9,5.4-7.1,9.4c-0.5,1.7-1.9,1.6-3.1,1.6C76.9,89,69.3,83.5,63.4,75.6z M68.7,83.3c1.5,1.4,3.2,2.6,4.8,3.8
		c3,2.3,6.4,3.4,10.3,3.1c1.3-0.1,2.6-0.1,3.9-0.1c1.3,0,1.9,0.8,1.5,2c-1.2,3.3-2.4,6.6-3.8,9.8c-0.2,0.4-1.2,0.8-1.8,0.8
		c-6.2-0.5-11.5-3.4-16.6-6.7c-0.1-0.1-0.2-0.2-0.3-0.3c-3.3-4.2-4.4-9.2-6.2-14.7C63.9,81.4,66.5,81.4,68.7,83.3z M3.1,135.7
		c2.3-2.7,5.1-4.4,8.4-6c4.7-2.3,9.1-0.3,13.6-0.6c5.7-0.3,11.4-0.8,17.1-1.4c2.2-0.3,4.4-1.2,6.6-1.9c1.4-0.4,1.8,0.2,1.9,1.4
		c0,0.9,0.2,1.7,0.3,2.6c0.3-0.2,0.5-0.2,0.5-0.2c-0.7-4.5,1.8-7.6,4.2-10.9c1.5-2.1,2.8-4.4,4.1-6.6c1.2-2.1,3.1-2.6,5.2-2.6
		c3.1-0.1,6.3,0,9.4,0c3.4,0.1,6.9,4.2,6.5,7.6c-0.1,0.5-0.4,1-0.7,1.3c-0.2,0.1-1-0.1-1.1-0.4c-2.1-3.5-5.4-3.6-9-3.4
		c-1.4,0.1-2.9,0-4.5,0.6c0.4,0.3,0.7,0.9,1.1,1c0.9,0.1,1.8,0.1,2.7,0c3.5-0.6,6.4-0.1,8.8,2.9c2,2.5,2.3,3.2,0.1,6.1
		c-3.6-3.6-8-3.1-12.4-2.6c0,0.3-0.1,0.5-0.1,0.8c1.3,0.1,2.6,0,3.9,0.3c2.1,0.4,4.4,0.7,6.4,1.5c2,0.8,2.7,3.2,1.9,4.8
		c-0.7,1.4-2.8,1.8-4.9,1.4c-2.9-0.6-5.8-0.7-8.8-1c-0.2,0-0.5,0.2-0.7,1c1.5,0.1,3,0.2,4.5,0.4c1.4,0.1,2.9,0,4,0.6
		c0.9,0.5,1.9,1.9,1.7,2.8c-0.2,1.1-1.4,2-2.3,3c-0.1,0.1-0.3,0.1-0.4,0.1c-3.9-0.5-6.4,1.6-8.7,4.4c-1.5,1.8-3.6,1.9-5.7,1.2
		c-2-0.7-3.7-0.3-5.7,0.5c-5,1.9-10.1,3.6-15.2,5c-3.9,1.1-8,2.1-12,2.7c-2.7,0.4-5.5,0.3-8.2,0.2c-2-0.1-3.9-0.5-5.9-0.8
		c-2.9-0.6-5.1-1.9-6.1-4.9c-0.5-1.7-1.2-3.5-1.8-5.2C1,139,1.7,137.3,3.1,135.7z"/>
	<path class="st0" d="M75.8,82.7c1.1-0.2,2.2-0.3,3.2-0.6c3.7-1.1,7.4-2.3,11.1-3.4c0.6-0.2,1.3-0.1,1.9-0.1c-0.1,0.6,0,1.3-0.3,1.9
		c-2.3,4.4-9.3,6.8-13.7,4.7c-0.8-0.4-1.5-1.1-2.3-1.7C75.7,83.2,75.8,83,75.8,82.7z M89.7,80.2c-3.6,1.2-7.2,2.5-11,3.8
		C82,85.6,87.4,83.9,89.7,80.2z"/>
	<path class="st0" d="M82.8,69.6c1,0.7,2.5,1.1,2.9,2c0.3,0.7-0.5,2.3-1.2,3.1c-0.9,1-2.1,1.9-3.3,2.4c-1.3,0.5-3.3,1.1-4.2,0.5
		c-1.3-0.8-2.2-2.6-2.6-4.2c-0.6-2.5-0.5-5.1-1.2-7.6c-0.4-1.6-1.7-2.9-2.6-4.4c2.7,0.9,4.3,3.6,4.7,7.7c0.1,1.4-0.2,2.8,0.2,4.1
		c0.3,1.2,0.9,2.9,1.9,3.4c0.9,0.4,2.5-0.3,3.7-0.8c0.9-0.4,1.6-1.2,2.4-1.8c1.8-1.3,1.7-2-0.2-3c-0.3-0.2-0.6-0.4-0.9-0.5
		C82.5,70.2,82.6,69.9,82.8,69.6z"/>
	<path class="st0" d="M80.2,57.6c-0.2-0.2-0.8-0.4-0.8-0.5c0.1-0.5,0.2-1.3,0.5-1.6c1.2-0.8,2.5-1.4,3.8-2.1c2.5-1.3,4.9-2.7,7.5-4
		c0.5-0.2,1.3,0.2,2,0.3c-0.3,0.5-0.4,1.2-0.8,1.5c-3.8,2.1-7.7,4.1-11.5,6.1C80.7,57.4,80.5,57.5,80.2,57.6z"/>
	<path class="st0" d="M69.1,60.9c-1.6,2.5-10.5,2.8-12,0.7C61.1,60.3,64.9,60.9,69.1,60.9z"/>
	<path class="st0" d="M81.1,59.5c2.5,0,5.1,0.7,7-0.2c1.9-0.8,3-3.2,4.5-5c0.6,1.3-1.7,5.3-3.6,6.6C87.3,62.1,82.5,61.3,81.1,59.5z"
		/>
	<path class="st0" d="M59.9,66c0.8,0.1,1.7,0,2.4,0.3c2.5,1,4.6,0.4,6.3-1.6c0.5-0.6,1.4-1.1,2.3-1.7C70.8,67.4,65.3,69,59.9,66z"/>
	<path class="st0" d="M86.9,123.3c0.3-1.2,0.3-2.2,0.7-2.6c0.7-0.6,1.8-0.7,2.7-1c0.1,0.7,0.5,1.5,0.4,2.2c0,0.6-0.4,1.3-0.8,1.9
		c-0.4,0.5-1.1,0.9-1.6,1.3C87.8,124.4,87.3,123.8,86.9,123.3z"/>
	<path class="st0" d="M82.2,131.7c1.4-1.2,2.2-2.1,3.2-2.5c0.3-0.1,1.2,0.9,1.8,1.4c-0.8,0.9-1.6,2-2.5,2.8
		C84.5,133.5,83.5,132.6,82.2,131.7z"/>
</g>
</svg>
