<?xml version="1.0" encoding="utf-8"?>
<!-- Generator: Adobe Illustrator 19.2.1, SVG Export Plug-In . SVG Version: 6.00 Build 0)  -->
<svg version="1.1" id="Layer_1" xmlns="http://www.w3.org/2000/svg" xmlns:xlink="http://www.w3.org/1999/xlink" x="0px" y="0px"
	 viewBox="0 0 197.3 183.5" style="enable-background:new 0 0 197.3 183.5;" xml:space="preserve">
<style type="text/css">
	.st0{fill:#1976D2;}
</style>
<path id="icon-child-burn" class="st0" d="M195.1,32.2c-0.3-0.6-1-1-1.5-1.5c-2.8-2.7-6.5-4.6-8.6-8.2c-0.5-0.8-1.5-1.3-2.4-1.8
	c-4.5-2.5-9-4.9-13.6-7.3c-0.9-0.5-2.1-0.8-3.1-0.6c-2,0.4-4,1.2-6.3,1.9c-2.1-4.9-6.4-5-11.2-4.4c0.7-4-1.7-5.6-4.3-7
	c-1.6-0.9-3.3-1.7-4.9-2.6c-2.7-1.5-5.2-1.2-7.4,0.8c-2.8,2.6-5.6,5.3-8.5,7.9c-3.3,2.9-6.5,6-10.2,8.2c-6.2,3.8-12.8,7-19.2,10.5
	c-5.6,3.1-11.5,4.7-17.8,5.2c-3.6,0.3-7.1,1.2-10.6,2c-9.9,2.1-19.8,4.7-30,4.5c-9.4-0.2-18.9-0.4-28.2-0.6
	c-2.2-0.1-4.5-0.2-6.8-0.3C0.4,39,0.2,39,0,39v48.3c2.2-0.5,4.3-0.9,6.4-1.4c1.1-0.3,1.9-1.3,2-2.4c0.2-0.2,0.4-0.5,0.4-0.7
	c0.1-0.8,0.1-1.5,0.2-2.3c1.1-0.2,2.1-0.4,3.3-0.7c-0.8,2-1.1,3.6-1.9,4.8c-3.2,4.6-3.9,9.9-4.9,15.1c-1.4,7.5-2.9,15-4.4,22.5
	c-0.2,0.8-0.6,1.6-1,2.3v58.9h33.9c1.4-1.8,2.6-4.1,3.7-6.1c0.3-0.2,0.5-0.3,0.8-0.6c2.2-2,4.1-4.6,5.2-7.4c0,0,0.1-0.1,0.1-0.1
	c3.6-3.3,6.6-7,9-11.2c0.7-1.1,0.5-2.4-0.2-3.2c-0.4-2.1-2.9-3.8-5.2-4.8c0-0.1-0.1-0.3-0.2-0.4c0.5-0.7,1-1.3,1.5-2
	c0.8-1.1,1.4-2.3,1.9-3.6c0.2-0.2,0.5-0.4,0.6-0.6c2.8-4.1,5.3-8.4,8.1-12.5c0.7-1,1.7-1.8,2.5-2.7c4.3-4.7,8.5-9.4,12.8-14.1
	c2.2-2.4,4.6-4.7,7-7.1c1.9-1.9,2.1-4.4,1.4-6.7c-0.3-1-2-2.1-3-2.1c-1.8,0.1-3.8,0.8-5.4,1.7c-3.2,1.9-6.3,4.1-9.4,6.1
	c-0.6,0.4-1.5,0.5-2.3,0.7c-0.2-0.9-0.7-1.9-0.7-2.8c0-0.7,0.6-1.4,1.1-1.9c1.5-1.8,2.9-3.6,4.6-5.2c5.7-5.3,11-11.2,19.8-10.9
	c0.1,0,0.2,0,0.2,0c2.1-0.3,3.4-1.3,3.8-3.5c0.3-2-0.3-3.6-2.3-4.5c-3.4-1.5-6.8-2.4-10.5-1.7c-2.6,0.5-5.2,1.4-7.7,2.2
	c-1.1,0.3-2.2,0.7-3.3,1.1c-0.2-0.2-0.3-0.5-0.5-0.7c0.8-0.9,1.5-1.8,2.3-2.6c2.7-2.4,5.4-4.7,8.2-7c0.8-0.6,1.8-1.2,2.7-1.4
	c4.6-0.7,9,0.7,13.2,2.3c3,1.1,5.5,3,9.3,2.9c5.1-0.1,10.3,1.5,15.4,2.6c4.8,1,9.7,2,14.6,0.6c6.2-1.8,12.5-1.9,18.9-1.8
	c5.1,0.1,10.3,0.1,15.1-1.9c0.8-0.3,1.7-1.4,1.8-2.1c0.3-3.6-2.4-7.9-5.7-8.8c-4.1-1.1-8.2-2-12.6-1.3c-4.4,0.7-8.9,0.7-13.4,1
	c-1,0-2-0.4-3.4-0.7c3-2.6,5.3-5,8-6.8c5.1-3.5,10.4-6.7,15.6-10c2.1-1.3,4.6-2.2,6.6-3.7c2.8-2.2,6-2.8,9.3-2.6
	c5.5,0.3,11.1-0.3,16.4,1.9c2.3,0.9,6-0.6,7-2.8C198.1,34.7,195.9,33.7,195.1,32.2z M79.1,100.4c1.7-0.1,2.1,1.5,1.9,2.8
	c-0.1,0.8-1,1.6-1.5,2.3c-0.8-0.7-1.6-1.4-2.7-2.5C77.8,101.9,78.4,100.5,79.1,100.4z M84.3,82.1c0.2-1.1,1-2.8,1.9-3
	c1.8-0.5,4.3,1.3,4.3,2.5c0,2.2-0.6,2.7-3.4,2.7C85.5,84.5,83.9,84.2,84.3,82.1z M69.5,73.9c-1.7,1.2-2.8,3.2-4.2,4.8
	c-1.1,1.2-2.3,2.5-3.5,3.6c-1.1,1-2.5,1.8-3.7,2.8c-4.7,3.9-6.7,9.6-9.8,14.7c-0.1,0.1,0.2,0.4,0.6,1.1c1.3-1.6,2.5-2.9,3.5-4.4
	c1.6-2.3,2.6-5.2,4.6-7.1c4.8-4.7,10.6-8,16.8-10.3c3.2-1.2,6.7-1.6,9.8-0.8c-0.3,2.3-0.6,4.4-0.8,6.5c-0.6,0.2-1.4,0.2-2,0.6
	c-7.2,4.7-14.5,9.4-19.3,16.9c-0.5,0.8-0.7,1.9-1,2.8c-0.5,1.3-0.9,2.7-1.7,3.9c-1.6,2.3-3.4,4.4-5.1,6.6c0.2,0.2,0.4,0.3,0.6,0.5
	c0.5-0.6,1.1-1.1,1.5-1.7c1.6-2.2,3.5-3.7,6.2-4.5c2-0.6,3.8-1.5,5.6-2.6c2.9-1.8,5.7-3.8,9-6.1c-0.6,3-0.2,5.2,3,6.1
	c-0.7,0.9-1.2,1.5-1.7,2c-3,3-6.1,6-9.1,9c-3.8,4-7.2,8.2-11.2,12c-2.9,2.7-5.1,5.9-6.8,9.4c-0.3,0.1-0.6,0.3-0.7,0.6
	c-0.9,2.7-2,5.2-3.7,7.5c-0.2,0.2-0.3,0.5-0.5,0.7c-4.2-3.6-10.8-5.1-15.9-6.5c-5.8-1.7-11.8-3.1-17.1-6.1c-3-1.7-5.4-4.2-7.6-6.8
	c-0.8-0.9-1.7-2.2-2.7-3.1c0.3-1.3,0.7-2.6,1-3.9c1-4.3,2.3-8.6,3-12.9c0.6-3.9,0.6-8,1-11.9c0.4-3,0.8-6.1,2.5-8.8
	c1.2-1.9,2.3-3.9,2.8-6.1c1.5-7,4.6-12.9,9.9-17.7c0.5-0.5,0.8-1.3,1-2c0.6-2,1-4,1.7-6c0.3-0.8,1-1.5,1.6-2.4
	c2,3.8-1.1,6.3-1.5,9.3c3.3-2.1,3.9-5.2,4-8.7c0.9,0.8,1.8,1.5,2,2.5c1,4.4,1.6,8.9-1,13c-2.4,3.9-6.1,7.3-6.7,12
	c-0.5,4.2-3.4,5.9-6.2,8c-1,0.7-2.2,1.1-3.2,1.8c-0.6,0.4-1,1.1-1.5,1.6c0.2,0.2,0.3,0.4,0.5,0.6c2-1.2,4.3-2.1,6-3.6
	c5.4-4.8,10.9-9.5,15.8-14.9c7.7-8.5,16.3-15.9,25.9-22.2c3-2,6-3.9,9.1-5.9c0.7,1.2,1.1,2.2,1.7,2.9c0.6,0.7,1.5,1.2,2.3,1.8
	C63.7,62.6,53.1,73,42.5,83.4c0.1,0.2,0.3,0.4,0.4,0.5c0.3-0.1,0.8,0,1-0.2c3.6-3.2,7.4-6.3,10.7-9.9c4-4.4,7.8-8.9,12.7-12.4
	c1.8-1.3,3.3-3,4.8-4.6c2.6-2.8,5.3-5.2,9.1-6.7c0.8,2,2.1,3.5,4.3,3.1c1.8-0.3,3.5-1.2,5.8-2c-1.6,1.8-3,3.4-4.3,5.1
	C82,62.9,76.2,68.9,69.5,73.9z M33.3,74.3c0.2,0.3,0.4,0.6,0.6,0.9c-2.6,2.6-5.1,5.2-7.7,7.9c-0.2-0.1-0.4-0.2-0.6-0.3
	c0.5-1.9,0.5-4.2,1.7-5.5C28.8,75.8,31.3,75.2,33.3,74.3z M72.3,47.7c-0.1-1.7,2.4-3.1,5.3-3.2c2-0.1,2.3,1.1,2.3,2.4
	c0,2-1.9,3.7-4.2,3.7C73.8,50.6,72.4,49.4,72.3,47.7z M84.3,48.2c1.1-0.9,2.3-1.9,3.6-2.4c0.8-0.3,2.2-0.3,2.9,0.3
	c1,0.8,0.7,1.9-0.5,2.8c-1.5,1.2-2.3,3.4-5.1,3.6c-0.8-0.7-1.9-1.3-2.3-2.1C82.8,49.9,83.7,48.7,84.3,48.2z M166.8,67.6
	c1.7,2.9,1.4,3.7-1.7,4.5c-2.1,0.5-4.4,0.8-6.6,1.1c-1.3,0.2-1.8-0.3-1.8-1.6c0-2.4,1.4-4,4-4.1c1.1,0,2.1,0.2,3.2,0.2
	C164.9,67.8,165.8,67.7,166.8,67.6z M183.4,36.2c-2.1-0.2-4.3-0.5-6.4-0.5c-3.2,0-6.9-0.7-9.4,0.6c-8.6,4.5-16.9,9.8-25.2,14.9
	c-2.9,1.8-6,3.4-8.4,5.7c-2,1.9-3.6,1.7-5.5,0.8c-1-0.4-1.9-1-2.9-1.5c-0.6-0.3-1.3-0.4-1.9-0.5c-0.1,0.3-0.2,0.5-0.4,0.8
	c1,0.7,1.9,1.4,3,2c3,1.6,5.9,3.8,9.1,4.4c3.9,0.7,8.1-0.1,12.2-0.3c3.4-0.2,6.8-0.7,10.1-0.7c3.2,0,5.8,1.5,8.2,4
	c-6.3-1.1-11.7-1-11.3,6.9c-7.8,0.5-15.3,0.5-22.7,1.6c-4.5,0.7-8.7,0.2-13-0.9c-3.1-0.8-6.3-2.3-9.4-2.3c-6.1,0-11.8-0.8-17.1-3.6
	c-0.1-0.1-0.3-0.1-0.5-0.1c-3.1-0.8-6.2-1.6-9.9-2.6c1.7-1.9,3.2-3.8,4.8-5.6c0.1,0.1,0.1,0.1,0.3,0.1c0,0,0,0,0,0c0,0,0.1,0,0.1,0
	c0.9,0,1.7,0.3,2.5,0.7c0,0.1,0,0.1,0,0.2c0.1,0.3,0.9,0.7,1,0.5c1.8-1.5,2.9-0.1,4.3,0.7c2.7,1.6,5.7,0.1,6.2-3
	c0.2-1.3,0.7-1.9,2-1.9c4.4-0.3,6.1-2.9,5.1-7.2c-0.2-0.8,0-1.9,0.3-2.7c0.8-2,0.5-3.2-1.5-4.1c-0.5-0.3-1.1-0.5-1.6-0.8
	c0.9-5.7,0.1-6.4-5.5-5.2c-0.2,0-0.5,0.1-0.7,0.1c-2.1,0.5-4,0.1-5.9-1.1c-1.2-0.8-3.3-1.2-4.5-0.8c-1.9,0.7-3.4,2.3-5,3.6
	c-0.2,0.2-0.2,1.1-0.1,1.2c0.4,0.3,1.1,0.4,1.4,0.3c0.9-0.4,1.8-1,2.5-1.7c1.7-1.7,3.4-2,5.5-0.4c2.3,1.7,4.8,2.8,7.5,0.7
	c0.5-0.3,1.2-0.4,1.8-0.5c1.3-0.2,1.6,0.4,1.4,1.6c-0.7,3.7-0.7,3.7,2.5,5.2c0.2,0.1,0.3,0.3,0.4,0.5c-0.5,1.7-0.6,3.4-0.4,5.1
	c0.2,2.2-0.4,3.5-2.7,3.7c-2.8,0.2-4,1.6-4.5,4.2c-0.4,2-1.6,2.4-3.5,1.3c-0.7-0.4-1.3-1.1-2-1.1c-0.9-0.1-1.9,0-2.8,0.2
	c-0.4-0.2-0.7-0.3-1.1-0.4c-0.3-0.2-0.6-0.5-0.9-0.7c-0.1-0.1-0.3-0.2-0.4-0.2c0.5-0.6,1.1-1.2,1.6-1.8c1.9-2,3-4.2,3.1-7
	c0.2-4.7-2.6-6.6-6.8-4.5c-1.6,0.8-3.1,1.7-4.6,2.5c-2.2-4.4-2.7-4.7-7.2-3.2c-2.2,0.7-4.1,2-6.1,3.2C57.5,53.5,47,61.1,38.1,70.5
	c-2.2,2.3-4.2,2-6.8,1.7c0.3-0.6,0.4-0.9,0.6-1.2c2.8-4.3,2.2-9,1.4-13.7c-0.2-1.2-1.2-2.5-2.2-3.4c-2.6-2.5-5.3-2-6.7,1.4
	c-0.8,2-1.2,4.1-1.9,6.2c-0.3,0.8-0.8,1.6-1.3,2.3c-0.7,1-1.8,1.7-2.4,2.7c-2,3.4-3.8,6.9-5.9,10.2c-0.5,0.8-1.7,1.6-2.7,1.8
	c-0.4,0.1-0.7,0.1-1.1,0.2c0.9-11.7,1.7-23.3,2.6-35c0.1-0.1,0.3-0.3,0.3-0.5c0-0.1,0-0.2,0-0.2c0.7,0,1.5,0,2.2,0
	c8.4-0.1,16.9,0,25.3-0.2c2.8-0.1,5.7-0.5,8.5-1c10.2-1.8,20.4-3.9,30.6-5.6c5.7-0.9,11.2-2,16.2-5.1c4.8-3,10-5.4,14.8-8.4
	c4.9-3.1,9.6-6.3,14.1-9.9c3.2-2.5,5.8-5.7,8.7-8.6c1.6-1.6,3.6-2.4,5.7-1.4c2.6,1.2,5.2,2.5,7.3,4.3c0.9,0.7,0.9,2.7,1,4.1
	c0,0.4-1,1.4-1.4,1.3c-1.5-0.1-3.2,1.9-4.5-0.4c-0.6-1.2-1.3-2.4-1.8-3.4c-1.1,1.8-2,3.7-3.4,5.4c-0.6,0.8-1.9,1.4-2.9,1.6
	c-1.6,0.4-3.3,0.5-5,0.9c-0.4,0.1-0.7,0.8-1,1.2c0.6,0.1,1.2,0.3,1.7,0.2c1.3-0.3,2.6-0.8,4-1c2.9-0.6,5.7-1.1,8.6-1.8
	c4-0.9,8.1-1.9,12.1-2.7c2.2-0.5,3.6,0.7,4.5,2.4c-4,2-7.7,4.4-11.8,5.6c-4,1.2-8.3,1.2-12.5,1.7c0,0.2,0,0.5,0,0.7
	c2.2,0,4.3-0.1,6.5,0c3.3,0.1,6.3-0.8,9.2-2.5c3.8-2.2,7.7-4.3,12.4-3.9c1,0.1,2-0.7,3-0.9c1.4-0.3,3.1-0.9,4.2-0.4
	c4.9,2.4,9.6,5.2,14.3,7.9c0.9,0.5,1.5,1.6,2.2,2.4c-0.1,0.2-0.3,0.4-0.4,0.7c-5.9-0.7-11.9-1.4-18.1-2.2c0.6-0.6,0.9-0.9,1.2-1.3
	c0.3-0.3,0.4-0.7,0.7-1.1l-0.3-0.6c-8.5,8-19.2,9.8-30.2,10.6c0,0.3,0.1-0.1,0.1,0.9h8.4c-1.4,2-3,3.2-4.5,4.7
	c-0.5,0.5-0.7,1.1-1.1,1.7c0.6-0.2,1.3-0.3,1.8-0.7c2.4-1.9,4.5-4.3,7.2-5.8c3.3-1.8,7-3,10.6-4.4c1.2-0.5,2.4-1.1,3.6-1.5
	c1.2-0.4,2.5-1,3.7-0.9c5.5,0.4,11,1,16.5,1.7c1.3,0.2,2.5,1,3.5,1.5c-0.2,1.4-0.6,2.5-0.4,3.5c0.2,1,0.9,2.1,1.5,2.9
	c0.6,0.8,1.5,1.3,2.2,1.8C188.2,36.9,185.8,36.5,183.4,36.2z M193.9,36.2c-1.1,0.3-5.1-2.9-5.1-4c0-0.6,0.3-1.2,0.7-2.6
	c2,2.1,3.5,3.6,5,5.3C194.7,35.1,194.2,36.1,193.9,36.2z"/>
</svg>
