<?xml version="1.0" encoding="utf-8"?>
<!-- Generator: Adobe Illustrator 19.2.1, SVG Export Plug-In . SVG Version: 6.00 Build 0)  -->
<svg version="1.1" id="Layer_1" xmlns="http://www.w3.org/2000/svg" xmlns:xlink="http://www.w3.org/1999/xlink" x="0px" y="0px"
	 viewBox="0 0 141.4 150" style="enable-background:new 0 0 141.4 150;" xml:space="preserve">
<style type="text/css">
	.st0{fill:#7B1FA2;}
</style>
<g id="icon-child-nausea">
	<path class="st0" d="M130.4,150c-0.4,0-0.7,0-1,0c0.6-2.4,0.2-4.8,0.2-7.3c0-2.2-0.1-4.4-0.1-6.5c0-1.3,0.2-2.6,0.4-3.8
		c0.3-2,0.6-4,0.9-6c0.3-1.6,0.7-3.3,1-4.9c0.3-1.8,0.9-3.5,0.7-5.3c0-0.4,0.1-0.8,0-1.1c0-0.1-0.2-0.4-0.3-0.4
		c-1.7,0.3-3.5,0.5-5.2,1c-2.3,0.6-4.6,1.4-6.7,2.7c-1.9,1.1-3.7,2.4-5.5,3.6c-0.9,0.6-1.6,1.4-2.4,2.1c-0.4,0.4-0.9,0.7-1.3,1
		c-0.7,0.6-1.2,1.3-1.5,2.1c-0.4,1.1-0.7,2.2-1,3.4c-0.3,1-0.8,2-1.4,2.9c-0.7,1.1-1,2.4-1.1,3.7c-0.1,1.8-0.6,3.6-1.1,5.3
		c-0.2,0.7-0.4,1.5-0.4,2.3c0,1.5,0.1,3.1,0.1,4.6c0,0.2-0.1,0.5-0.1,0.8c-0.1,0-0.3,0-0.4,0c-0.8,0.1-0.9-0.2-0.7-0.9
		c0.1-0.3,0.1-0.7,0.1-1.1c-0.2-2.5,0-4.9,0.9-7.3c0.4-0.9,0.6-2,0.7-3c0-2,0.6-3.7,1.6-5.4c0.7-1.1,1-2.3,1.3-3.5
		c0.4-1.2,0.8-2.3,1.3-3.4c0.5-1.3,1.1-2.6,1.1-4c0.1-1.4,0.1-2.9,0.1-4.3c0-2.6,0.5-5.1,1.6-7.5c0.5-1.2,1.1-2.3,1.7-3.5
		c0.3-0.5,0.7-0.8,1.1-1.2c0.1-0.1,0.5,0,0.7,0c0,0.2,0,0.6-0.2,0.7c-1,0.6-1.4,1.6-1.8,2.6c-0.7,1.4-1.2,2.9-1.6,4.5
		c-0.3,1-0.3,2-0.4,3c-0.1,1-0.1,1.9-0.2,2.9c0.1,0,0.1,0,0.2,0.1c0.8-0.6,1.6-1.3,2.4-1.9c2.4-1.8,4.8-3.3,7.8-3.9
		c1.5-0.3,2.9-0.9,4.4-1.3c1.5-0.4,3-0.8,4.6-0.7c1.5,0.1,3,0.2,4.6,0.3c0.4-1,0.7-2.1,1.1-3.1c0.6-1.9,1.4-3.7,1.9-5.6
		c0.6-2.4,1.2-4.7,1.9-7c0.4-1.1,0-2.3-0.4-3.3c-0.7-1.5-1.5-2.9-2.3-4.3c-0.6-1-1.7-1.4-2.6-2c-2.1-1.2-4.1-2.4-6.2-3.5
		c-1.4-0.7-2.8-1.3-4.2-2c-1.9-1-3.9-1-5.9-0.9c-0.3,0-0.6,0.3-0.8,0.5c-0.4,0.4-0.7,0.9-1,1.3c-0.6,1-1.5,1.6-2.4,2.3
		c-0.8,0.6-1.5,1.3-2.4,1.9c-1,0.7-2.1,1.4-3.2,1.9c-2.7,1.4-5.3,2.8-8,4.2c-1.1,0.5-2.2,1-3.3,1.4c-0.7,0.3-1.4,0.6-2.2,1
		c0.2-0.8,0.4-1.6,0.7-2.4c0.6-1.9,1.8-3.5,2.6-5.3c0.4-0.8,0.4-1.7,0.5-2.6c0-0.2-0.4-0.5-0.6-0.6c-0.7-0.2-1.4-0.4-2.2-0.6
		c-0.6-0.2-0.9,0-0.9,0.7c0,1.2,0.1,2.5,0.1,3.7c0,0.8-0.2,1.5-0.3,2.3c-0.2,1.2-0.3,2.4-0.5,3.5c-0.1,0.7-0.3,1.3-0.6,1.9
		c-1,1.9-1.5,4-1.8,6.2c-0.3,2-0.6,4-1.3,5.9c-0.7,2-1.2,4.1-1.8,6.1c-0.6,2-0.8,4-0.7,6c0.1,1.1-0.4,1.3-1.4,1.1
		c-1-0.2-2-0.5-3-0.5c-1.5-0.1-2.9-0.6-4.3-1.1c-1.4-0.5-2.7-1-4.2-1.5c-0.6,1.2-1.3,2.5-1.3,4c0,1.8,0.3,3.7,0.6,5.5
		c0.2,1.7,0.1,3.3-0.6,5c-0.6,1.3-0.8,2.7-0.7,4.2c0,0.6,0.3,1.2,0.4,1.9c0.2,1,0.4,2,0.4,3c0.2,3,0.3,6,0.4,9c0,0.2,0,0.4,0,0.7
		c-0.3,0-0.5,0-0.8,0c0-0.2,0-0.3,0-0.5c0.1-2.4-0.1-4.8-0.4-7.2c-0.1-0.9,0-1.9-0.1-2.8c-0.2-1.8-0.5-3.6-1.6-5.2
		c-0.9-1.3-1.9-2.5-3.2-3.5c-1.1-0.8-1.8-2-2.3-3.3c-0.5-1.3-0.8-2.7-1.4-4c-0.5-1.2-1.3-2.2-2.1-3.3c-0.4-0.5-0.8-1-1.3-1.5
		c-0.3-0.3-0.6-0.4-0.9-0.2c0,0-0.1,0.1-0.1,0.1c-1.3,0.1-1.7,1.1-2.1,2.1c-0.1,0.1,0,0.4,0,0.5c0.8,1.3,1.6,2.5,2.3,3.8
		c0.3,0.6,0.7,1.2,0.9,1.8c0.6,1.6,1.5,3.1,2.5,4.5c0.5,0.7,1,1.4,1.3,2.2c0.6,1.4,1.1,2.8,1.5,4.3c0.3,1.1,0.5,2.2,0.6,3.3
		c0.1,1.4,0,2.9,0,4.3c0,1.4,0.1,2.8,0.1,4.2c0,0.2,0,0.4,0,0.6c-0.3,0-0.5,0-0.8,0c0-0.1-0.1-0.1-0.1-0.2c0-2.4-0.1-4.8-0.1-7.2
		c0-2.6-0.4-5-1.7-7.3c-0.3-0.5-0.2-1.1-0.5-1.6c-0.5-1-1.1-1.9-1.7-2.9c-0.8-1.5-1.6-3-2.5-4.6c-0.4-0.7-0.9-1.3-1.3-2
		c-0.4-0.7-0.8-1.4-1.3-2.2c-0.1,0.2-0.3,0.3-0.3,0.5c-0.6,2.4-1,4.7-1.2,7.2c-0.1,1.2-0.5,2.4-0.7,3.6c-0.2,1.2-0.4,2.5-0.6,3.7
		c-0.2,1-0.4,1.9-0.5,2.9c-0.2,1.4-0.4,2.8-0.5,4.2c-0.1,1.1-0.3,2.2-0.4,3.3c-0.1,0.6-0.1,1.2-0.1,1.7c0,0.9,0,0.9-1.1,0.8
		c0.1-1.4,0.3-2.9,0.4-4.3c0.2-1.6,0.4-3.2,0.6-4.8c0.2-1.7,0.5-3.4,0.8-5.1c0.4-2.2,0.7-4.4,1.1-6.6c0.4-2,0.7-4,1.1-6
		c0.2-1,0.7-2,1-3c0.1-0.2,0.1-0.4,0.2-0.7c-1.8,0.9-3.6,1.2-5.4,1.2c-0.1,0-0.3,0-0.4,0c-0.2-0.1-0.3-0.3-0.4-0.4
		c0.2-0.1,0.3-0.4,0.5-0.4c1.2-0.2,2.3-0.3,3.5-0.5c0.6-0.1,1.2-0.4,1.8-0.7c0.9-0.4,1.7-0.9,2.7-1c1-0.1,1.9-0.7,2.8-1
		c1.9-0.6,3.8-1.2,5.6-1.9c1.6-0.6,3.1-1.3,4.2-2.7c0.6-0.7,1.4-1.3,2-2c0.8-0.7,1.5-1.5,2.2-2.2c1.2-1.3,2.3-2.6,3.5-3.9
		c0.3-0.4,0.6-0.8,1-1.2c-0.3-0.5-0.7-1-1.1-1.5c0.1-0.1,0.2-0.2,0.5-0.5c0.4,0.4,0.7,0.8,1.1,1.3c1.9-2.9,3.8-5.8,5.7-8.7
		c-0.5-0.1-0.8-0.2-1-0.3c-1.4,1.7-2.8,3.3-4.1,5c-0.4,0.5-0.9,0.8-1.4,1.3c-0.9,1-1.9,2.1-2.7,3.2c-0.7,1-1.6,1.7-2.5,2.4
		c-1.6,1.2-3.2,2.4-4.2,4.2c-0.3,0.5-0.7,0.9-1,1.3c-0.2,0.2-0.5,0.4-0.8,0.1c-0.1-0.1,0.1-0.5,0.2-0.6c0.5-0.7,1-1.3,1.5-2
		c1.1-1.5,2.5-2.7,4-3.7c0.9-0.7,1.7-1.4,2.3-2.3c0.5-0.8,1.1-1.4,1.7-2.1c0.2-0.3,0.4-0.5,0.1-0.8c-0.2-0.2-0.3-0.5-0.4-0.8
		c-0.1-0.2,0-0.4,0-0.6c0.2,0,0.4,0,0.5,0.1c0.3,0.3,0.5,0.6,0.8,1.1c1-1.2,2.1-2.3,3.1-3.4c1.1-1.2,1.9-2.6,2.6-4
		c0.4-0.7,0.6-1.5,1-2.2c0.4-0.7,1-1.4,1.5-2.1c-1.1-0.3-1.8-1-2.1-2.2c-0.6,0.9-1.1,1.7-1.6,2.5c-0.4,0.6-0.9,1.2-1.4,1.8
		c-1.7,1.9-3.6,3.7-5.1,5.7c-1,1.2-2.2,2.1-3.3,3c-1.6,1.3-3.2,2.6-4.8,3.9c-0.7,0.6-1.4,1.1-2.2,1.7c-0.2,0.1-0.4,0.2-0.6,0.2
		c0,0-0.1-0.1-0.1-0.1c0.1-0.2,0.1-0.5,0.3-0.6c1.8-1.4,3.5-2.9,5.3-4.3c1-0.8,2.2-1.6,3.2-2.4c0.2-0.1,0.4-0.3,0.6-0.5
		c-0.3-0.6-0.6-1.2-0.9-1.8c-0.1-0.2-0.3-0.5-0.3-0.7c0-0.2,0.2-0.4,0.2-0.5c0.1,0.1,0.3,0.2,0.4,0.4c0.3,0.7,0.7,1.4,1,2.1
		c0.5-0.6,0.9-1.2,1.4-1.8c0.7-0.8,1.4-1.7,2.2-2.4c1.8-1.7,3.4-3.6,4.7-5.7c0.4-0.7,1-1.3,1.5-2c-0.8-0.8-1.4-1.8-1.6-2.9
		c-0.2-1.3,0.7-2.1,1.4-3c-1.1,0-1.7,0.7-2.4,1.3c0,0-0.1,0.1,0,0.1c0.1,0.9-0.7,1.2-1.2,1.7c-0.3,0.3-0.7,0.6-0.8,1
		c-0.5,1.1-1.4,1.9-2.3,2.7c-0.6,0.6-1.2,1.2-1.7,2c-0.8,1.3-1.9,2.3-3.1,3.4c-1.7,1.6-3.6,2.9-5.6,4c-1.1,0.6-2.4,1.1-3.5,1.6
		c-0.8,0.4-1.5,0.9-2.2,1.3c-0.7,0.4-1.3,0.9-2,1.3c-0.1,0.1-0.4,0-0.5-0.1c-0.1-0.1,0-0.4,0.1-0.4c1.4-0.9,2.9-1.9,4.3-2.7
		c1.2-0.7,2.6-1.2,3.9-1.9c0.5-0.2,0.9-0.6,1.3-0.9c-0.4-0.7-0.9-1.3-1.3-2c-0.1-0.1,0-0.4,0-0.5c0.2,0,0.4,0,0.5,0.1
		c0.5,0.6,0.9,1.3,1.3,2c0.6-0.4,1.3-0.8,1.8-1.3c1.6-1.4,3.2-2.7,4.3-4.6c0.5-0.9,1.4-1.5,2.2-2.2c0.2-0.2,0.5-0.4,0.7-0.7
		c-0.7-0.7-1.4-1.5-1.5-2.5c-0.1-1.1,0.3-1.9,1.1-2.6c-0.3,0.2-0.7,0.3-1,0.5c-1.4,0.9-2.7,1.9-4.1,2.8C74,81.8,72.2,83,70.2,84
		c-2.8,1.5-5.7,2.8-8.5,4.1c-1,0.5-2.2,0.8-3.2,1.2c-0.5,0.2-1,0.5-1.4,0.8c-1,0.7-2.1,0.9-3.2,1.3c-0.7,0.3-1.5,0.3-2.3,0.6
		c-2.1,0.6-3.9,1.8-5.6,3.1c-0.7,0.5-1.3,1.1-1.9,1.6c-0.1,0.1-0.3,0-0.5,0c0-0.2-0.1-0.5,0-0.6c1.8-1.5,3.5-3,5.6-4
		c1.1-0.5,1.4-1.6,1.8-2.5c0.2-0.3,0.2-0.7,0.3-1.1c-0.9,0.2-1.6,0.4-2.4,0.5c-0.2,0-0.4,0-0.5-0.1c-0.1-0.1-0.1-0.4-0.1-0.5
		c0.1-0.1,0.3-0.2,0.5-0.2c2,0,3.3-1.1,4.1-2.9c0.3-0.7,0.7-1.4,1-2.2c0.5-1.4,0.4-2.7-0.6-3.9c-0.4-0.5-0.7-0.9-1.4-0.8
		c-0.4,0.1-0.7,0.2-0.5,0.7c0.3,0.6,0.6,1.3,0.9,1.9c0.3,0.6,0.1,1.3-0.6,1.6c-0.8,0.3-1.6,0.3-2.3,0c-0.6-0.2-1.1-0.5-1.7-0.7
		c-0.2-0.1-0.5,0-0.8,0.1c-1.7,0.9-2.6,2.4-3.4,4.1c-0.4,0.8-0.9,1.6-1.4,2.4c-0.5,0.9-1.1,1.7-1.6,2.5c-0.6,1.1-0.8,2.3-0.9,3.5
		c-0.1,0.6,0.1,1.2,0.2,1.7c0.1,1.1,0.3,2.1,0.4,3.2c0.1,1.1,0.1,2.2,0.1,3.3c0.1,1.8-0.3,3.5-1,5.2c-1,2.6-1.9,5.3-2.8,8
		c-0.1,0.4-0.1,0.8-0.1,1.2c-0.3,2-0.8,3.9-1,5.9c-0.2,1.6-0.1,3.2-0.3,4.7c-0.1,1.5-0.3,3.1-0.6,4.6c-0.4,1.9-0.9,3.8-1.4,5.7
		c-0.5,2.1-0.8,4.2-1.4,6.3c-0.4,1.5-0.9,2.9-1.4,4.3C30.1,150,30,150,29,150c0.4-0.8,0.8-1.6,1.1-2.5c0.5-1.6,1-3.3,1.4-4.9
		c0.5-2.3,1-4.7,1.5-7c0.2-0.7,0.5-1.4,0.6-2.1c0.3-1.8,0.5-3.6,0.7-5.4c0.1-0.5-0.1-1.1,0-1.6c0.2-0.8-0.4-1.2-0.8-1.7
		c-0.1-0.1-0.2-0.2-0.3-0.3c-0.9-1.4-2.4-1.6-3.8-2c-1.4-0.3-2.7-0.8-4-1.2c-2-0.7-4-1.3-6.1-1.7c-2.1-0.4-4.2-1.2-6.3-1.8
		c-0.9-0.3-1.8-0.5-2.7-0.8c0.4,0.6,0.8,1.2,1.1,1.8c0.7,1.2,1.1,2.5,1.1,4c0,2,0.2,4,0.4,6c0,0.5,0.4,1,0.5,1.6
		c0.4,1.9,0.8,3.7,0.7,5.7c-0.1,4.4,0.1,8.8,0.1,13.2c0,0.2,0,0.4,0,0.7c-0.3,0-0.6,0-1,0c0-0.2,0-0.4,0-0.6c0-3.5,0-7,0-10.6
		c0-1.7,0-3.4-0.1-5.1c-0.1-0.9-0.2-1.8-0.5-2.7c-0.5-1.7-0.8-3.5-0.8-5.3c0-0.4-0.1-0.7-0.2-1.1c-0.2-0.5-0.6-0.8-1.1-1
		c-2-0.6-3.8-1.7-4.4-3.8c-0.3-0.9-0.1-2,0.1-3c0.2-1.1,0.9-2,1.8-2.8c0.6-0.5,0.6-1.3,0-1.9c-0.8-0.9-1.8-1.7-2.6-2.6
		c-0.4-0.4-0.8-0.8-1-1.3c-1-1.8-2-3.6-2.8-5.5c-0.8-1.7-1.5-3.4-1.3-5.3c0.1-1.1-0.1-2.3,0.3-3.4c0.5-1.4,1.4-2.5,2.2-3.7
		c0.4-0.6,0.6-1.3,0.9-2c0.1-0.1,0.1-0.3,0.2-0.4c0.2-0.2,0.5-0.4,0.1-0.7c0,0,0-0.3,0.1-0.4c0.7-1.3,1.4-2.5,2.5-3.4
		c1.2-1,2.3-2.1,3.4-3.1c0.2-0.1,0.4-0.2,0.5-0.2c0.2-0.4,0.4-0.8,0.6-1.1c1.3-1.3,2.2-2.8,2.9-4.4c1.2-2.6,1.7-5.3,2.2-8.1
		c0.1-0.8,0.5-1.5,0.7-2.2c0.4-1.5,0.8-3.1,1.2-4.6c0-0.1,0-0.2,0-0.3c0-1.6,0.1-3.2,0.1-4.8c0-2.1-0.1-4.2-0.5-6.3
		c-0.2-1.1,0-2.3-0.1-3.4c0-2.2,0.4-4.3,0.8-6.5c0.3-1.5,1.1-2.8,1.6-4.2c0.7-1.7,1.5-3.4,2.2-5.1c0.8-1.9,1.6-3.9,2.5-5.8
		c0.6-1.3,1.2-2.6,1.9-3.9c0.5-1,0.9-2,1.8-2.8c0.7-0.7,1.3-1.6,1.9-2.5c0.9-1.3,2.1-2.3,3.4-3.1c1.2-0.7,2.4-1.5,3.3-2.6
		c0.9-1,2.2-1.5,3.3-2.1c0.6-0.3,1.1-0.7,1.7-1.1c1.2-0.8,2.4-1.7,3.7-2.4c1-0.5,2.1-0.6,3.1-1.1c2-1,4.2-0.8,6.3-1
		c2.2-0.2,4.3-0.4,6.5-0.5c3.1-0.1,6.2-0.3,9.3,0.4c1.1,0.2,2.2,0.7,3.4,0.9c2.2,0.3,4.1,1.5,6.1,2.4c0.4,0.2,0.8,0.4,1.1,0.7
		c1.4,1.3,2.9,2.5,4,4.1c0.6,0.9,1.6,1.5,2.5,2.3c0.4,0.4,0.8,0.7,1.2,1.1c1.5,1.2,3.1,2.3,4.6,3.4c0.5,0.3,0.9,0.7,1,1.4
		c0,0.3,0.3,0.5,0.5,0.7c1.8,1.7,2.9,3.8,4.5,5.6c0.1,0.1,0.2,0.2,0.1,0.4c-0.1-0.1-0.3-0.2-0.4-0.4c0,0-0.1,0.1-0.1,0.1
		c0.1,0.2,0.3,0.5,0.4,0.6c2.1,1.9,3.9,4,5.2,6.5c0.8,1.4,1.2,2.9,2.1,4.3c1.6,2.7,3.4,5.3,5.1,8c1,1.6,1.9,3.3,2.7,5.1
		c1.2,2.6,2.2,5.2,3.3,7.9c0.4,1,0.5,2,0.8,3c0.3,1.2,0.8,2.5,1.1,3.7c0.4,1.4,0.7,2.8,0.9,4.3c0.3,1.4,0.5,2.9,0.7,4.3
		c0.1,0.9,0.2,1.8,0.3,2.7c0.2,1.3,0.2,2.6,0.5,3.8c0.2,0.7,0.6,1.3,1.4,1.6c2.6,1,5.1,2.2,7.5,3.7c1.7,1,3.4,2,5.1,2.8
		c1.2,0.6,2.1,1.4,2.7,2.6c0.8,1.5,1.5,3,2.1,4.5c0.6,1.7,0.2,3.3-0.3,5c-0.6,1.8-1,3.6-1.5,5.4c-0.3,1.2-0.7,2.3-1.1,3.4
		c-0.6,1.8-1.3,3.5-1.9,5.3c-0.3,1-0.5,2-0.5,3.1c0,0.9-0.5,1.4-0.9,2c-0.2,0.2-0.3,0.5-0.5,0.6c-1.1,0.8-1.2,2-1.5,3.2
		c-0.2,1-0.5,2.1-0.7,3.1c-0.2,1.3-0.5,2.7-0.7,4.1c-0.2,1.1-0.4,2.2-0.5,3.4c-0.1,0.6-0.1,1.1-0.2,1.7c-0.3,3-0.4,6-0.4,9
		c0,1.8,0.1,3.7,0.1,5.5C130.6,148.2,130.4,149.1,130.4,150z M92.1,82.4c0.1-1,0.3-1.8,0.4-2.6c0.1-0.5,0.1-0.9,0.1-1.4
		c-0.1-1.2-0.3-2.5-0.5-3.7c-0.2-1.4-0.5-2.8-0.8-4.2c-0.2-1.3-0.5-2.6-0.7-3.9c-0.1-0.8-0.1-1.6-0.3-2.4c-0.3-1.6-0.6-3.3-0.6-4.9
		c0-0.6,0.1-1.2,0-1.8c-0.3-1.5-0.6-3-1-4.5c-0.2-0.8-0.5-1.8-1.1-2.3c-1.2-1.1-2.6-2-3.9-2.9c-0.7-0.5-1.5-0.7-2.2-1.2
		c-1.4-1.1-3-1.9-4.6-2.7c-2.5-1.1-4.9-2.3-7.3-3.4c-0.6-0.3-1.2-0.6-1.9-0.9c-2.1-1-4.3-1.7-6.5-2.3c-1.1-0.3-2.2-0.6-3.1-1.1
		c-1.8-0.9-3.6-1.8-5.6-2.3c-3.3-0.8-6.3-2.2-8.2-5.3c-0.3-0.5-0.4-0.9-0.2-1.3c0.6-1.6,1.3-3.2,1.9-4.9c0.3-0.6,0.6-1.2,0.8-1.9
		c0.4-2,1.7-3.5,2.7-5.2c0.6-1,1.4-1.9,2.1-2.8c0.3-0.5,0.5-1,0.3-1.6c-0.1-0.2-0.4-0.5-0.7-0.5c-0.3,0-0.7,0-0.9,0.2
		c-0.4,0.5-0.8,1.1-1.1,1.6c-0.6,0.9-1.1,1.8-1.6,2.6c-0.6,0.9-1.2,1.7-1.7,2.7c-0.9,1.7-1.7,3.5-2.4,5.2c-0.6,1.4-1,2.8-1.5,4.2
		c-0.2,0.7-0.2,1.4,0.3,2c0.2,0.3,0.3,0.6,0.4,0.9c0,0.4,0,0.9-0.2,1.3c-0.7,1.2-1.4,2.3-2.1,3.5c-0.5,0.8-0.9,1.7-1.3,2.5
		c-0.8,1.7-1.6,3.5-2.5,5.2c-0.8,1.5-1.8,3-2.9,4.4c-1.8,2.2-2.4,4.8-2.2,7.5c0.1,1.7,0.4,3.3,0.3,5c0,1.4,0.4,2.7,0.9,3.9
		c0.5,1.2,1.2,2.4,1.6,3.7c0.9,3.1,1.7,6.3,2.6,9.5c0.2,0.9,0.6,1.9,0.6,2.8c0,1.4,0.3,2.8,0.6,4.2c0.2,0.7,0.3,1.5,0.2,2.2
		c-0.1,0.7,0.1,1.3,0.4,1.8c0.6,0.9,1.3,1.8,2.1,2.8c0.9-1.5,1.7-2.7,2.4-4.1c0.8-1.7,1.8-3.2,3.5-4.2c1.4-0.8,2.6-1.8,3.6-3
		c0.9-1.1,2.4-1.2,3.4-0.1c0.1,0.1,0.2,0.2,0.3,0.3c1,1.2,1.3,2.6,0.9,4c-0.5,1.9-1.3,3.6-2.7,4.9c-0.1,0.1-0.2,0.3-0.2,0.4
		c0.1,1-0.2,1.9-0.6,2.7c-0.1,0.1-0.1,0.2-0.1,0.5c0.6-0.1,1.1-0.1,1.5-0.3c1.4-0.4,2.8-0.6,4-1.5c1-0.7,2.1-1.1,3.2-1.6
		c1.2-0.4,2.3-0.9,3.5-1.4c-0.9-0.5-1.7-1.2-2.5-1.4c-0.8-0.3-1.8-0.1-2.7-0.3c-0.7-0.1-1.4-0.3-1.9-1c-0.5-0.7-0.7-1.3-0.6-2.1
		c0.1-0.9,0.3-1.7,0.5-2.6c0-0.1,0.3-0.2,0.4-0.3c0.1,0.2,0.1,0.3,0.2,0.5c0,0.1-0.1,0.2-0.1,0.3c-0.1,1-0.3,1.9-0.2,2.9
		c0,0.5,0.5,1.1,0.9,1.3c0.6,0.3,1.3,0.4,2,0.4c1.3-0.1,2.3,0.4,3.3,1.1c1,0.7,1.9,0.9,3.1,0.1c1.2-0.8,2.5-1.4,3.8-2
		c0.5-0.3,1-0.5,1.6-0.7c0.1-0.1,0.3-0.2,0.3-0.3c0.2-0.5,0.4-0.9,0.5-1.4c0.2-0.9,0.7-1.9-0.4-2.7c-0.1-0.1-0.1-0.5-0.1-0.7
		c0,0,0.2-0.2,0.3-0.1c0.4,0.1,1.1,1.1,1.1,1.5c0,0.9-0.1,1.8-0.2,2.8c0.5-0.3,1-0.5,1.5-0.9c2-1.3,3.9-2.6,5.9-4
		c0.9-0.6,1.9-0.8,3-0.7c0.7,0.1,1.1,0.6,1.5,1.1c0.1,0.1,0.1,0.1,0.3,0.2c0.2-0.1,0.4-0.3,0.6-0.4c1-0.8,2.1-1,3.3-0.7
		c1.2,0.2,1.7,1.3,2.3,2.2c0.2,0.3,0.1,0.7,0,1.1c-0.2,0.9,0,1.6,0.7,2.1C91.6,82.1,91.8,82.2,92.1,82.4z M35.1,119.9
		c0-0.1,0.1-0.4,0.1-0.6c0.1-0.9,0.1-1.8,0.3-2.6c0.3-1.1,0.7-2.2,1.1-3.3c0.1-0.4,0.4-0.9,0.3-1.2c-0.2-1.7-0.7-3.4-1.4-5
		c-0.5-1.1-1-2.3-1.9-3.2c-1.4-1.4-2.8-2.7-4.2-4c-0.6-0.6-1.3-1.1-1.8-1.7c-0.8-1.1-1.6-2.3-2.3-3.5c-0.1-0.2,0.1-0.6,0.1-0.9
		c0.2,0.1,0.5,0.2,0.7,0.3c0.1,0.1,0.1,0.2,0.2,0.4c0.7,1.4,1.5,2.8,2.8,3.8c0.2,0.2,0.4,0.3,0.6,0.5c1.3,1.2,2.4,2.6,3.8,3.7
		c1.5,1.2,2.3,2.8,3,4.5c0.4,1,0.7,2,1.1,3c0.1,0,0.1,0,0.2,0c0.2-0.6,0.4-1.2,0.6-1.7c0.8-1.8,1-3.7,0.9-5.6c0-0.7,0-1.5,0-2.2
		c0-0.7-0.1-1.3-0.2-2c-0.1-1-0.5-2-0.4-2.9c0.1-1.5,0.4-3,1.1-4.4c0.2-0.4,0.1-0.7-0.2-1c-0.4-0.4-0.9-0.8-1.2-1.4
		c-0.5-0.9-1-1.8-1.5-2.7c-0.2,0.1-0.5,0.2-0.8,0.3c-1.1,0.1-2.3,0.1-3.4,0.1c-2.2,0.1-4.3-0.5-6.3-1.3c-1.6-0.7-3.2-1.4-4.9-2
		c-0.9-0.3-1.9-0.6-2.9-0.7c-1.7-0.1-3.3,0.5-4.9,1c-2.4,0.9-4.7,2.1-7.2,2.7c-0.7,0.2-1.4,0.8-1.7,1.6c-0.2,0.6-0.5,1.3-0.8,1.9
		c-0.7,1.2-1.6,2.3-2.3,3.5c-0.4,0.7-0.8,1.5-0.8,2.3c-0.1,1.9-0.2,3.9,0.7,5.8c1,1.9,1.9,3.9,2.8,5.8c0.4,0.7,0.9,1.4,1.5,2
		c0.8,0.9,1.8,1.7,2.6,2.6c0.3,0.4,0.6,0.6,1.1,0.6c0.5,0,1,0.1,1.5,0.3c0.5,0.1,1,0.4,1.6,0.6c2,0.5,4,0.9,5.9,1.5
		c2.1,0.6,4.2,0.8,6.4,0.9c1,0,1.9,0.2,2.8,0.7c1.2,0.8,2.4,1.5,3.6,2.1C32.6,118.9,33.9,119.3,35.1,119.9z M87.9,119.1
		c-0.3-2.4,0.3-4.5,0.8-6.7c0.3-1.1,0.7-2.1,1.1-3.2c0.4-1.5,0.8-3,1.2-4.6c0.2-0.7,0.3-1.5,0.5-2.3c0.4-1.8,0.7-3.7,1.1-5.5
		c0.3-1.1,0.9-2.1,1.2-3.2c0.2-0.7,0.2-1.4,0.3-2.1c0.2-1.1,0.4-2.2,0.5-3.3c0.1-2,0.1-3.9,0.1-5.9c0-0.7-0.5-1.2-1-1.6
		c-0.3-0.3-0.7,0-0.7,0.4c0,0.4,0,0.8-0.1,1.2c-0.4,1.4-0.9,2.8-1.3,4.2c-0.4,1.3-1.4,2.4-1.1,3.9c0,0.1-0.1,0.1-0.1,0.2
		c-1.3,2.2-2.5,4.3-3.8,6.5c-1,1.6-2.3,3-3.1,4.8c-0.1,0.2-0.2,0.3-0.3,0.4c-0.8,1-1.7,2-2.5,3c-1.3,1.6-2.6,3.2-4,4.7
		c-1.2,1.3-2.6,2.5-3.9,3.7c-0.2,0.2-0.4,0.3-0.6,0.5c0.3,0.3,0.6,0.5,0.8,0.7c0.6,0.3,1.2,0.7,1.9,0.9c0.6,0.2,1.3,0.2,1.8,0.4
		c2.2,0.9,4.4,1.8,6.7,2.3c1,0.2,1.9,0.4,2.9,0.5C86.9,119.1,87.4,119.1,87.9,119.1z M8.4,115.1c0.2,0.1,0.4,0.2,0.6,0.3
		c1.5,0.5,3,1.1,4.5,1.6c1.2,0.4,2.4,0.9,3.7,1.2c2.3,0.5,4.7,1,6.9,1.8c1,0.4,2.1,0.8,3.1,1.1c1.2,0.4,2.4,0.6,3.6,0.9
		c1,0.3,1.9,0.6,2.6,1.5c0.2,0.3,0.5,0.5,0.9,0.8c0.2-1.2,0.4-2.2,0.7-3.3c-0.6-0.4-1.1-0.8-1.8-1c-2-0.7-3.8-1.7-5.6-2.9
		c-0.4-0.3-0.9-0.5-1.3-0.6c-1.4-0.2-2.7-0.2-4.1-0.4c-1.2-0.2-2.4-0.4-3.6-0.7c-0.7-0.1-1.3-0.3-1.9-0.5c-1.7-0.4-3.3-0.8-5-1.2
		c-0.9-0.2-1.6-0.7-2.4-0.6C8.9,113.8,8.7,114.4,8.4,115.1z M73,133.7c0.4-1.3,0.6-2.5,1.1-3.7c0.6-1.2,0.4-2.3,0.3-3.4
		c-0.1-1.3-0.4-2.5-0.6-3.8c-0.2-2,0.1-4,1.1-5.8c0.1-0.1,0.1-0.2,0.1-0.4c-1.4,0-2.2-1.1-3.2-1.6c-0.6,0.6-1.2,1.1-1.6,1.7
		c-0.4,0.6-1,1.4-1,2.1c-0.2,2.1-0.2,4.2-0.3,6.2c0,1.2,0.1,2.4,0,3.6c0,0.4,0.1,0.6,0.3,0.8c0.7,0.7,1.5,1.4,2.2,2.1
		C71.9,132.3,72.4,133,73,133.7z M135.1,112.3c-1.1-0.1-2.1-0.3-3.2-0.4c-0.8-0.1-1.7-0.3-2.5-0.1c-2.2,0.5-4.4,1.1-6.6,1.8
		c-1.4,0.4-3,0.6-4.3,1.4c-1.4,0.9-2.9,1.8-4.3,2.8c-0.8,0.6-1.7,1.1-2.3,2c-0.2,0.4-0.4,0.7-0.5,1.1c0,0.3-0.1,0.5-0.1,0.8
		c-0.1,0.7-0.2,1.4-0.4,2.3c0.2-0.2,0.4-0.4,0.5-0.5c0.9-0.8,1.7-1.6,2.6-2.3c1.5-1.1,3-2,4.5-3c2.6-1.8,5.5-2.9,8.4-3.7
		c1.5-0.4,3.1-0.6,4.7-0.9c1.1-0.2,2.1-0.4,3.2-0.2C135.1,113.1,135.1,112.7,135.1,112.3z M35.9,77.2c0-0.1,0.1-0.1,0-0.2
		c-0.4-1.4-0.7-2.9-1.1-4.3c-0.6-2.1-1.2-4.2-1.9-6.2c-0.6-1.7-1.3-3.3-2-4.9c-0.1-0.2-0.3-0.4-0.4-0.4c-0.2,0-0.4,0.1-0.5,0.3
		c-0.4,1-0.7,1.9-0.4,3c0.5,1.8,1.5,3.5,2,5.4c0.5,2.2,1.8,4,2.7,6C34.6,76.6,35.2,77,35.9,77.2z M62.8,117.8
		c0.5,0.7,0.9,1.2,1.4,1.8c1.4,1.7,2.3,3.6,2.8,5.8c0.2,0.8,0.5,1.6,0.8,2.4c0.1,0,0.1,0,0.2,0c0.1-0.2,0.2-0.4,0.2-0.6
		c0-0.5-0.1-1.1-0.1-1.6c0-2,0.1-4,0.1-6c0-1.2,0.4-2.3,1.3-3.1c0.4-0.3,0.7-0.8,1-1.2c0,0-0.1-0.1-0.1-0.1
		C67.8,116,65.3,116.9,62.8,117.8z M94,70.5c0.6-0.1,1.3-0.2,1.9-0.3c1-0.2,1.5-1.2,1-2.1c-0.7-1.4-1.6-2.7-2.4-4.1
		c-0.3-0.6-0.6-0.5-0.9,0.1c-0.4,1-0.9,2-1.2,3c-0.2,0.5-0.4,1-0.4,1.5C92.2,70.1,92.4,70.4,94,70.5z M7.5,115.8
		c-1.1,1.9-1.4,3.5,0.1,5.1c1,1.1,2.2,1.9,3.8,1.9c0.3-1.6-0.4-2.8-1.1-4C9.5,117.7,8.7,116.5,7.5,115.8z M88,82.4
		c0.4-0.4,0.7-0.8,1.1-1.1c1.5-1.2,1.2-2.1,0.4-3.1c-0.3-0.4-0.7-0.6-1.1-0.8c-0.2-0.1-0.5,0.3-0.7,0.6c-0.6,0.6-1.1,1.2-1.1,2.1
		C86.6,80.9,87.3,82.1,88,82.4z M91.6,65.9c0,0,0.1,0,0.1,0c0.1-0.2,0.2-0.4,0.2-0.6c0.1-1,0.6-1.9,1.3-2.7c0.1-0.1,0.2-0.5,0.1-0.6
		c-0.8-1.9-1.7-3.8-2.5-5.8c0-0.1-0.1-0.1-0.2-0.2c0,0-0.1,0-0.1,0C90.9,59.4,91.3,62.6,91.6,65.9z M89.9,81.3
		c-0.4,0.4-0.7,0.9-1.1,1.3c-0.3,0.4-0.6,0.7-0.8,1.1c-0.2,0.2-0.4,0.6-0.3,0.7c0.3,0.6,0.5,1.2,1,1.6c0.6,0.6,1.2,0.4,1.7-0.4
		c0.3-0.4,0.5-0.9,0.7-1.3c0.4-0.9,0.3-1.4-0.3-2.1C90.5,82,90.3,81.7,89.9,81.3z M81.9,81.7c0.2-1.2,1.1-1.8,1.9-2.4
		c0.1-0.1,0.2-0.2,0.3-0.3c0-0.1,0.1-0.2,0-0.3c-0.3-0.5-0.5-1-0.8-1.4c-0.2-0.3-0.5-0.4-0.9-0.1c-0.4,0.4-0.9,0.6-1.2,1
		c-0.3,0.3-0.5,0.8-0.5,1.3C80.5,80.5,81.2,81,81.9,81.7z M48.1,81.6c0.6,0.7,2.6,1.1,3.3,0.7c0.3-0.2,0.4-0.3,0.2-0.7
		c-0.4-0.7-0.7-1.4-1.1-2.1C49.7,80.1,48.9,80.8,48.1,81.6z M88.1,92.4c0.4,0.1,0.7-0.2,0.8-0.5c0.3-0.5,0.5-1,0.7-1.6
		c0.1-0.3,0.2-0.8,0.1-0.9c-0.2-0.2-0.6-0.2-1-0.1c-0.2,0-0.5,0.3-0.6,0.5c-0.3,0.6-0.6,1.3-0.8,1.9C87.2,92.2,87.4,92.4,88.1,92.4z
		 M133.6,116.7c0.1,0,0.1,0,0.2,0.1c0.4-0.5,0.7-1,1.1-1.5c-0.4-0.1-0.7-0.2-1.2-0.3C133.7,115.5,133.6,116.1,133.6,116.7z
		 M89.9,88.4c0.2-0.5,0.4-1,0.6-1.5C89.5,88.1,89.5,88.1,89.9,88.4z"/>
	<path class="st0" d="M39.1,69.1c-0.2-0.4,0.1-0.5,0.4-0.6c2-0.4,4-0.7,5.9-1.3c0.9-0.3,1.8-0.6,2.8-0.4c2.2,0.3,4.4,0.6,6,2.4
		c0.1,0.2,0.4,0.2,0.6,0.3c0.1,0.1,0.3,0.3,0.2,0.3c0,0.1-0.2,0.4-0.3,0.4c-1.9,0.1-3.5,0.9-5.3,1.5c-1.8,0.6-3.5,0.6-5.2-0.4
		c-1-0.6-2.1-1.2-3.2-1.7C40.6,69.3,39.9,69.3,39.1,69.1z M45.6,71.1c-0.7-0.8-1-1.6-0.6-2.6c0.2-0.4-0.1-0.5-0.4-0.4
		c-0.7,0.2-1.5,0.4-2.2,0.6c-0.2,0.1-0.4,0.2-0.5,0.3c0.2,0.2,0.3,0.4,0.5,0.5C43.3,70.1,44.4,70.5,45.6,71.1z M50.3,70.8
		c1.1-0.5,2.1-0.9,3.2-1.3c-0.9-1.1-2.2-1.3-3.5-1.9C50.3,68.7,51,69.7,50.3,70.8z M46.8,68.7c0.3,0.2,0.5,0.5,0.6,0.5
		c0.2,0,0.4-0.2,0.6-0.4c-0.2-0.2-0.3-0.4-0.5-0.7C47.3,68.3,47.1,68.4,46.8,68.7z"/>
	<path class="st0" d="M69.1,68.1c-0.5-0.2-0.5-0.5-0.3-0.8c0.7-0.9,1.3-1.8,2-2.6c0.6-0.7,1.3-1.5,2.3-1.7c1.7-0.2,3.3-0.8,5.1-0.7
		c0.8,0.1,1.6-0.1,2.4-0.1c0.3,0,0.6,0,0.9,0.1c0.5,0.1,0.9,0.5,1.4,0.2c0.1-0.1,0.4,0.1,0.7,0.3c-0.3,0.5-0.6,0.9-0.9,1.2
		c-0.3,0.3-0.6,0.7-0.8,1c-0.4,0.8-1.1,1.3-1.9,1.7c-2.3,1.1-4.7,1.5-7.3,1.2c-0.7-0.1-1.4-0.1-2.1-0.3
		C70.1,67.6,69.5,67.5,69.1,68.1z M78.3,66.6c0.1,0,0.2,0,0.3,0c0.1,0,0.1,0,0.2,0c1.2-0.5,2.3-1,2.8-2.3c0.1-0.2,0.3-0.4,0.4-0.5
		c0.1-0.1,0.2-0.3,0.1-0.4c-0.1-0.1-0.3-0.2-0.4-0.2c-1.4,0-2.7,0-4.1,0c0,0.1,0,0.1,0,0.2C78.6,63.8,78.9,64.7,78.3,66.6z M74,63.8
		c0-0.1,0-0.1,0-0.2c-0.4,0.1-0.9,0.1-1.1,0.4c-0.9,0.8-1.7,1.6-2.5,2.5c-0.3,0.3,0,0.4,0.3,0.5c0.2,0.1,0.5,0.1,0.8,0.1
		c1,0.2,2.1,0.4,3.2,0.2C73.1,66,73.2,64.7,74,63.8z M75.8,64.2c-0.1,0-0.2,0-0.2,0c-0.2,0.3-0.4,0.5-0.4,0.8c0,0.2,0.3,0.4,0.5,0.6
		c0.2-0.2,0.5-0.4,0.5-0.7C76.3,64.7,76,64.4,75.8,64.2z"/>
	<path class="st0" d="M85.8,56.8c-0.2,0.2-0.4,0.7-0.7,0.7c-2,0.5-3.7,1.6-5.5,2.4c-1.7,0.7-3.4,1.2-5.2,1.7c-0.6,0.2-1.3,0.1-2,0
		c-0.1,0-0.3-0.1-0.3-0.3c0-0.1,0-0.4,0.1-0.4c0.3-0.1,0.6-0.3,0.9-0.3c1.9,0.1,3.7-0.5,5.4-1.3c2-0.9,4.1-1.8,6.1-2.7
		c0.3-0.2,0.8-0.1,1.1-0.2C85.7,56.6,85.7,56.7,85.8,56.8z"/>
	<path class="st0" d="M39.6,64.5c-0.7,0-1.5-0.1-2.2-0.2c-0.1,0-0.3-0.2-0.4-0.3c0.2-0.2,0.3-0.5,0.6-0.6c0.3-0.1,0.7,0.1,1.1,0.1
		c1.1,0.1,2.2,0.2,3.2,0.2c0.9,0.1,1.7,0.2,2.6,0.2c0.7,0,1.4-0.1,2-0.2c1.5-0.1,3-0.6,4.6-0.1c0.2,0.1,0.4,0.3,0.6,0.5
		c-0.2,0.1-0.5,0.4-0.7,0.3c-1.8-0.5-3.4,0.1-5.2,0.2c-0.6,0-1.2,0-1.8,0C42.5,64.7,41,64.6,39.6,64.5
		C39.6,64.4,39.6,64.5,39.6,64.5z"/>
</g>
</svg>
