<?xml version="1.0" encoding="utf-8"?>
<!-- Generator: Adobe Illustrator 19.2.1, SVG Export Plug-In . SVG Version: 6.00 Build 0)  -->
<svg version="1.1" id="Layer_1" xmlns="http://www.w3.org/2000/svg" xmlns:xlink="http://www.w3.org/1999/xlink" x="0px" y="0px"
	 viewBox="0 0 200 193.8" style="enable-background:new 0 0 200 193.8;" xml:space="preserve">
<style type="text/css">
	.st0{fill:#1976D2;}
</style>
<g id="icon-child-headlice">
	<path class="st0" d="M198.9,191.4c-1.3-2.9-3.4-4.9-6.2-6.3c-1.9-1-3.9-2-5.7-3.2c-1.7-1.2-3.3-2.6-4.9-3.9c-1-0.8-1.8-1.6-2.8-2.4
		c-1.3-1.1-2.5-2.1-3.8-3.1c-0.4-0.3-0.8-0.8-0.9-1.2c-0.3-1.7-0.6-3.5-0.7-5.2c-0.1-2.1,0.1-4.2,0.2-6.3c0.1-1.3,0.2-2.7,0.3-4
		c0-0.6,0.1-1.2,0.2-1.7c0.2-1.2,0.7-2.5,0.7-3.7c-0.1-3.2,0.3-6.3,0.5-9.4c0.1-1.2,0.3-2.4,0.5-3.6c0.3-1.9,0.6-3.9,0.7-5.8
		c0.1-2.9,0-5.8,0.1-8.8c0.1-3.5,0.2-7.1,0.2-10.6c0-0.6-0.1-1.3-0.1-1.9c-0.2-1.6-0.4-3.2,0.3-4.8c0.1-0.1,0-0.3,0-0.4
		c-0.1-1.4-0.4-2.9-0.4-4.3c0-3.1,0.1-6.2,0.1-9.3c0-0.1,0-0.2,0-0.3c0.3-1.9,0.1-3.8-0.2-5.7c-0.3-1.6-0.6-3.2-1.1-4.7
		c-0.8-2.8-1.5-5.7-2.6-8.5c-1.1-2.7-2.6-5.3-3.9-7.9c-0.7-1.4-1.3-2.7-2.1-4c-1.4-2.2-2.9-4.5-4.5-6.5c-1.3-1.6-2.6-3.2-4.3-4.4
		c-2.3-1.7-4.8-3.2-7.3-4.7c-2.4-1.5-4.7-2.9-7.1-4.3c-2.6-1.6-5-3.3-7.7-4.7c-3.5-1.9-7.4-2.5-11.3-3.1c-2.6-0.4-5-1.2-7.1-2.8
		c-0.1-0.1-0.2-0.1-0.3-0.2c-2.2-3.3-2-7.4-4-10.8c-2-3.6-6.8-4.6-10.4-5.8C97.6,10.9,91.8,9,85.6,8.2C79.8,7.4,73.8,7.3,67.9,7
		c-0.1-0.1-0.3-0.1-0.5-0.1c-0.4,0-0.8,0-1.2,0c-0.2,0-0.3,0-0.5,0c-0.1,0-0.2,0-0.3,0c-11.1,0.4-22,0.3-33-1.9
		C27,4,21.8,2.8,16.5,1.8C11.8,0.9,7.1,1,2.5,0.4C1.6,0.1,0.7,0-0.2,0v1.5c0.1,0,0.1,0,0.2,0C0.1,1.8,0.3,2,0.6,2.1
		c5,0.9,10.2,0.7,15.3,1.7c5.8,1.1,11.6,2.4,17.4,3.5c2.4,0.5,4.8,0.8,7.1,1.1c1.1,0.2,2.3,0.4,3.4,0.7c0.1,0,0.1,0,0.2,0
		c2,0,4,0,6,0.1c2.9,0.1,5.7,0.1,8.6,0.1c3.1,0,6.1,0,9.2-0.1c0.2,0,0.5,0,0.7,0c10.5,0.5,20.5,1.3,30.7,4.5
		c1.2,0.4,2.4,0.7,3.6,1.1c0.8,0.3,1.6,0.5,2.4,0.8c3.2,1.1,6,2.7,7.6,6.1c0.5,1.2,0.8,2.6,0.9,3.9c0.1,0.7,0.3,1.5,0.4,2.2
		c-0.1,0-0.1,0.1-0.2,0.1c-0.6-0.6-1.1-1.3-1.7-1.8c-1.2-1.1-2.5-2.2-3.7-3.2c-0.7-0.6-1.4-0.8-2.3-0.8c-0.6,0-1.1-0.1-1.7-0.1
		c-0.3,0-0.5,0.3-0.8,0.5c0.2,0.2,0.4,0.5,0.6,0.6c0.4,0.1,0.8,0.1,1.2,0c1.1-0.1,2,0.2,2.8,0.9c1.2,1.1,2.5,2.1,3.6,3.2
		c1.2,1.3,2.3,2.9,3.5,4.2c1.2,1.4,2.5,2.7,3.9,3.9c1.2,1.1,2.6,2.1,3.9,3.2c0.6,0.5,1.1,1.2,1.7,1.8c0.7,0.7,1.2,1.6,1.8,2.4
		c0.6,0.9,1.3,1.7,1.8,2.7c0.6,1,1.1,2,1.4,3.1c0.2,0.8-0.2,1.6-0.4,2.4c-0.6-0.3-1.2-0.7-1.7-1c-4.5-3-11-5.4-13.6-10.3
		c-0.2-0.3-0.5-0.5-0.8-0.5c0,0,0,0,0,0c-0.1-0.2-0.4-0.3-0.6-0.5c-0.1,0.2-0.4,0.5-0.4,0.7c0,0.1,0,0.2,0.1,0.3
		c-0.2,0.3-0.3,0.6,0,1c0.5,0.9,1,1.7,1.6,2.3c0.3,0.4,0.6,0.8,1.1,1c1.6,1.4,3.5,2.4,5.6,3.7c2.1,1.2,4,2.6,6,4
		c0,0,0.1,0.1,0.2,0.1c0.3,0.3,0.7,0.5,1,0.8c0.8,0.6,1.6,1.1,2.2,2c1.1,1.7,1,3.3,0,4.9c-0.9,1.5-1.9,2.8-3.3,4
		c-0.3,0.2-0.5,0.6-0.7,1c-1.1,2-3,2.9-5.1,3.4c0,0,0,0,0,0c-0.4-1.2-0.9-2.3-1.4-3.3c0.3,0.2,0.7,0.4,1,0.6
		c0.2,0.1,0.5,0.2,0.7,0.2c0.2,0,0.4-0.2,0.5-0.4c0-0.2-0.1-0.5-0.2-0.6c-1.1-0.7-2.2-1.3-3.3-2c-2.1-3-4.8-5.2-9.2-7
		c-3.7-1.6-7.4-2.7-11.4-3.1c-5.3-0.5-10.5-0.3-15.5-2.2c0,0,0,0,0,0c-0.3-0.3-1-0.1-1.5-0.1c-0.1,0-0.3,0.4-0.3,0.6
		c0,0.1,0.2,0.2,0.3,0.3c0,0.4,0.2,0.9,0.7,1.1c5.5,2.1,11.2,1.7,16.9,2.4c0.9,0.2,1.7,0.5,2.6,0.7c2.4,0.6,4.8,1.2,7.1,1.9
		c1.7,0.7,3.4,1.5,4.9,2.4c1.5,0.9,2.6,2,3.5,3.3c0.1,0.2,0.3,0.4,0.4,0.6c0,0,0.1,0.1,0.1,0.1c0,0.1,0.1,0.1,0.1,0.2
		c0.6,1,1.1,2.2,1.6,3.3c0.2,1.5-0.2,3.1-1.3,4.2c-0.2-0.4-0.4-0.7-0.5-1c-0.6-1.4-1.4-2.6-2.3-3.9c-0.5-0.8-1.1-1.4-1.8-1.9
		c-1.2-0.8-2.5-1.1-3.9-0.8c-1.2,0.3-1.8,1.3-1.9,2.6c-1.1-0.5-2.1-1-3.3-1.5c-1-0.4-2-0.8-3-1.3c-0.2-0.5-0.2-1.1,0.1-1.9
		c0.3-0.8,0.4-1.7,1.2-2.3c0.1-0.1,0-0.5,0-0.8c-0.3,0-0.6-0.1-0.8,0.1c-1,0.8-1.3,1.9-1.6,3.1c-0.1,0.4-0.1,0.9-0.2,1.2
		c-0.3-0.1-0.6-0.2-0.8-0.3c-1.4-0.5-2.8-1-4.1-1.4c-0.5-0.1-1-0.2-1.5-0.3c-1-0.2-2-0.4-2.9-0.6c-1.4-0.2-2.8,0-4.2,0.1
		c-1.2,0-2.2-0.2-3.3-0.7c-1.3-0.6-2.7-1.3-4-1.8c-1-0.4-2-0.7-3-1c-0.8-0.3-1.5-0.6-2.2-0.9c-1.3-0.5-2.6-1.1-3.9-1.8
		c-0.9-0.7-1.9-1.4-2.9-2.2c-3.8-2.8-7.2-6.1-10.4-9.6c-2.7-3-6.4-4.4-10-6.1c-4.7-2.1-9.5-4.1-14.4-5.9c-1.2-0.5-1.7,1.5-0.5,1.9
		c2.7,1,5.5,2,8.4,3.1c-5.9,0.8-11.9,2.9-17.7,4.1C15,40.8,7.5,41.8,0.4,44c-0.3,0-0.7,0.1-0.7,0.1v0.1c-0.1,0-0.1,0-0.2,0.1
		c-1.2,0.4-0.7,2.3,0.5,1.9c1.5-0.5,3-0.9,4.5-1.3c0.6-0.1,1.1-0.1,1.6-0.3c1.9-0.4,3.8-0.5,5.7-0.8c1.7-0.3,3.3-0.7,4.9-1.3
		c0.3-0.1,0.6-0.2,1-0.3c1-0.2,2.1-0.4,3.1-0.6c7.1-1.4,14.5-4.2,21.7-4.7c0.2,0,0.4-0.1,0.6-0.2c0.3,0,0.5,0,0.8,0.1
		c4.5,2,8.8,4.4,11.9,7.8c2.2,2.5,5,4.9,7.6,7c2.1,1.8,4.5,3.2,6.5,5c-1.3,1.8-2.2,3.8-2.8,5.9c-0.3,0.9-0.7,1.6-1,2.5
		c-0.7,2.3-1.4,4.7-2,7.1c-0.8,2.8-1.7,5.6-2.4,8.5c-0.7,2.8-1.2,5.7-1.8,8.5c-0.7,3.4-1.7,6.6-3.1,9.8c-0.9,2-1.7,4-2.7,5.9
		c-0.7,1.5-1.7,2.9-2.3,4.5c-1.1,2.3-2,4.7-3,7.1c-0.8,1.9-1.9,3.7-3,5.4c-0.4,0.7-0.8,1.4-1.2,2.2c-1,1.7-2,3.3-2.9,5
		c-1.2,2.3-2.5,4.5-3.5,6.8c-1.7,4.3-3.8,8.4-6.3,12.2c-1.2,1.9-2.3,3.9-3.3,6c-1.2,2.4-2.7,4.6-4.2,6.8c-1.4,2-2.9,4-4.4,5.9
		c-1.5,1.9-3,3.7-4.5,5.5c-0.3,0.4-0.9,0.6-1.2,1c-0.7,0.8-1.4,1.7-2.1,2.5c0,0.1-0.1,0.1-0.1,0.1c-2,1.1-3.1,3.1-4.8,4.5
		c-2,1.7-4.1,3.3-6.1,5c-0.4,0.4-0.4,0.7-1.4,1.1v6.7c4-2,6.7-4,10.1-5.8c1.9-1.1,4-2,6-2.8c1.4-0.6,2.9-1,4.3-1.4
		c0.4-0.1,0.8-0.3,1.2-0.4c1.2-0.5,2.5-0.7,3.8-1c1.4-0.3,2.8-1,4.1-1.5c1.1-0.5,2.2-1.1,3.3-1.6c2.5-1,5.1-1.9,7.5-2.9
		c2-0.8,3.8-1.8,5.7-2.8c2.2-1.1,4.4-2.1,6.5-3.3c2-1.1,3.9-2.3,5.8-3.6c1-0.7,1.9-1.6,2.8-2.4c1.6-1.3,3.2-2.6,4.7-4
		c1.4-1.2,2.7-2.5,4.1-3.8c0.2-0.2,0.4-0.3,0.5-0.5c0.1,0,0.1,0.1,0.2,0.1c-0.3,0.9-0.6,1.8-1,2.6c-0.3,0.9-0.7,1.7-1.1,2.6
		c-0.5,1.4-0.9,2.7-1.5,4.1c-0.6,1.6-1.3,3.1-1.9,4.7c-0.4,1.1-0.6,2.2-1.1,3.3c-1.2,2.9-2.3,5.8-3.7,8.7c-0.9,1.8-2.1,3.4-3.1,5.1
		c-1.3,2.1-2.5,4-3.7,6c-0.3,0.5-0.6,1.2-1,1.2h1.7c1.4-2,2.8-4,4.2-6.1c0.6-0.9,1.1-1.9,1.6-2.9c1.4-2.7,2.8-5.3,4.1-8
		c0.9-1.8,1.6-3.7,2.3-5.6c0.1-0.2,0.2-0.5,0.4-1c1.2,1.9,2.4,3.5,3.5,5.3c1.7,2.7,3.4,5.4,5.1,8.1c0.2,0.3,0.5,0.7,0.9,0.4
		c0.4-0.2,0.5-0.6,0.2-1c-0.7-1.1-1.4-2.2-2.1-3.2c-1.5-2.2-2.9-4.5-4.4-6.7c-0.7-1.1-1.5-2-2.2-3.1c-0.4-0.6-0.5-1.1-0.3-1.8
		c1.1-3.3,2.2-6.6,3.4-10c0.5-1.4,0.9-2.9,1.4-4.3c0.1-0.4,0.4-0.7,0.6-1c1.3-1.6,2.7-3.2,4-4.9c1.1-1.4,2.1-2.8,3.2-4.3
		c0.2-0.2,0.4-0.5,0.5-0.8c0.5-1.3,1.7-1.9,2.5-2.9c0.4-0.4,0.8-0.2,0.9,0.5c0.4,2.1,0.6,4.3,1.2,6.3c0.5,1.7,1.3,3.4,2.3,4.9
		c1.1,1.9,2.4,3.6,3.8,5.4c0.5,0.7,1.4,1.1,2,1.7c0.7,0.6,1.4,1.1,2,1.7c1.8,1.8,3.8,3.5,5.9,5c0.7,0.5,1.1,1.2,1.8,1.8
		c0.8,0.7,1.7,1.4,2.6,2c1.6,1.1,3.2,2.2,4.9,3.2c1.9,1.1,3.8,2.1,5.7,3.2c0.4,0.3,0.8,0.7,1.2,0.9c1.4,0.9,2.8,1.8,4.2,2.5
		c1,0.5,2.2,0.7,3.3,0.8c2.2,0,4.4-0.1,6.6-0.2c0.2,0,0.5,0.1,0.6,0.2c0.1,0.1,0,0.5-0.1,0.6c-1.6,2.1-3.2,4.2-4.7,6.4
		c-1.6,2.2-3.1,4.3-4.6,6.6c-0.1,0.1-0.1,0.1-0.1,0.1h1.3c1.2-1,2.3-3.4,3.5-5.2c1.9-2.6,3.9-5,6-7.5c0.5-0.6,1.1-1.1,1.9-1.8
		c0.6,2.2,1.1,4.2,1.7,6.2c0.5,1.8,1,3.3,1.5,5.1c0.3,1.1,0.5,2.2,0.8,3.2h1.1c-0.8-3-1.6-6-2.4-9c-0.5-1.8-1-3.5-1.5-5.3
		c-0.1-0.2,0-0.6,0.2-0.7c1.5-1.3,2.6-3,3.9-4.5c1.5-1.9,3.3-3.5,5-5.2c1.1-1.1,2.1-2.2,3.2-3.3c0.8-0.7,1.6-1.3,2.6-1.8
		c-0.3,1.2-0.6,2.5-0.9,3.7c-0.3,1.4-0.8,2.7-1,4.1c-0.3,1.6-0.4,3.2-0.6,4.8c-0.3,3-0.6,6-1,9c-0.2,1.7-0.5,3.2-0.9,4.9
		c-0.3,1.1-0.8,2.2-0.7,3.2h29.2c0-2,0-3.9,0-5.9c-0.1-3.4-0.3-6.8-0.4-10.2c0-1.2,0-2.3,0-3.6c0.7,0.5,1.3,1,1.9,1.6
		c2.5,2.4,5.3,4.3,7.9,6.4c2.9,2.3,6.1,4,9.2,5.9c0.9,0.5,1.6,1.4,2.2,2.2c0.7,1,1.2,2,1.7,3.1c0.1,0.3,0.3,0.6,0.4,0.6h1.5
		C199.6,193.5,199.2,192.2,198.9,191.4z M93.3,63.5c0.6,0.5,1.3,0.9,2.1,1.5c-1.6,3.8-3.3,7.6-5,11.3c-0.3-0.3-0.6-0.4-0.8-0.6
		c-0.5-0.6-1.1-1.1-1.6-1.7c-0.1-0.1,0-0.3,0.1-0.4c1.1-2.3,2.1-4.6,3.2-6.8C91.9,65.6,92.6,64.6,93.3,63.5z M91.3,76.9
		c0.8-1.7,1.7-3.4,2.5-5.2c0.7-1.6,1.3-3.2,1.9-4.9c0.2-0.4,0.3-0.8,0.5-1.3c0.7,0.4,1.4,0.8,2.2,1.3c-0.9,1.9-1.7,3.8-2.6,5.6
		c-0.8,1.6-1.7,3.1-2.5,4.6c-0.3,0.6-0.3,1.4-0.5,2.2c-0.6-0.7-1.1-1.3-1.5-1.9C91.2,77.3,91.2,77,91.3,76.9z M94,78.9
		c1.1-2.4,2.3-4.9,3.4-7.3c0.6-1.3,1.2-2.7,1.8-4.1c0.2,0.2,0.4,0.3,0.6,0.4c1.2,0.9,1.3,0.9,0.7,2.3c-1,2.3-2,4.5-3,6.8
		c-0.5,1.2-1.1,2.4-1.6,3.6c-0.1,0.3-0.5,0.5-0.7,0.8c-0.2-0.2-0.4-0.4-0.6-0.6c-0.1-0.1-0.2-0.2-0.3-0.2
		C93.4,80.2,93.7,79.6,94,78.9z M96.9,80.9c1-2.2,2.2-4.4,3.2-6.6c0.7-1.6,1.3-3.2,2-4.9c0.6,0.4,1.2,0.9,1.8,1.3
		c0.4,0.3,0.4,0.6,0.2,1.1c-1.1,2.4-2.1,4.9-3.2,7.3c-0.6,1.3-1.2,2.6-1.9,3.8c-0.1,0.2-0.1,0.4-0.1,0.7c0,0.2-0.1,0.4-0.2,0.5
		c-0.2,0.1-0.4,0-0.6-0.1c-0.5-0.5-1-0.9-1.3-1.5C96.6,82,96.7,81.3,96.9,80.9z M100,83.5c0.6-1.3,1.3-2.5,1.8-3.8
		c0.9-1.9,1.7-3.9,2.5-5.9c0.3-0.7,0.6-1.3,0.9-2c0.1,0,0.1,0,0.1,0c1.6,1.1,1.8,1,0.9,3c-1,2.2-1.5,4.6-2.1,6.9
		c-0.3,1.5-1.2,2.8-1.9,4.2c-0.2,0.5-0.5,0.9-0.8,1.4c-0.6-0.5-1.2-1-1.7-1.5C99,85,99.6,84.2,100,83.5z M107.3,75.2
		c0.3-0.7,0.5-1.6,0.6-2.4c0-0.3-0.1-0.7-0.4-0.8c-2.1-1.6-4.1-3.3-6.2-4.8c-1.6-1.2-3.2-2.4-4.8-3.5c1.5,0.5,3,1.2,4.4,1.7
		c4.3,1.7,8.5,3.6,11.6,6.8c-1,0.9-1.7,2-2.2,3.2c-1,2.2-2,4.2-3.6,6c-0.3,0.3-0.5,0.3-1.2-0.1C105.9,79.3,106.5,77.2,107.3,75.2z
		 M108.3,66.1c0-0.9,0.4-1.8,1.5-1.8c1-0.1,2,0.2,2.8,0.8c1.2,0.9,1.9,2.2,2.7,3.4c0.6,1,1,2.1,1.5,3.1c-0.1,0.1-0.1,0.1-0.2,0.2
		c-0.8-0.5-1.7-0.9-2.5-1.4c-1.2-0.8-2.2-1.7-3.4-2.5c-0.3-0.2-0.6-0.4-0.9-0.5c-0.4-0.3-0.9-0.5-1.3-0.8
		C108.3,66.5,108.3,66.3,108.3,66.1z M86.6,63c0.6-0.1,1.2-0.2,1.8-0.2c-0.7,1.4-1.4,2.6-2,4C85.8,65.5,86.2,64.1,86.6,63z
		 M85.6,70.7c0.5-1,1.3-1.9,1.2-3.1c0-0.1,0.1-0.2,0.1-0.2c0.6-1.1,1.3-2.3,1.9-3.4c0.2-0.4,0.4-0.9,0.6-1.3
		c0.9-0.1,1.7-0.1,2.6-0.1c0.1,0.2,0,0.7-0.2,0.9c-0.9,1.7-1.8,3.3-2.7,5c-0.5,1-1,2-1.4,3c-0.1,0.2-0.1,0.3-0.1,0.5
		c-0.1,0.8-0.3,1-1,0.6c-0.5-0.3-0.9-0.8-1.2-1.3C85.4,71.3,85.5,70.9,85.6,70.7z M164.7,120.9c-0.2,0.2-0.3,0.6-0.4,0.9
		c-1.8-0.6-3.6-1.3-5.4-1.8c-1.1-0.3-2.2-0.2-3.4-0.3c-0.5,0-0.9,0-1.4,0c0-0.1-0.1-0.2-0.1-0.2c0.6-0.3,1.2-0.6,1.7-1
		c1.8-1.4,3.9-1.6,6-2.1c0.9-0.2,1.8-0.6,2.8-0.8c1.2-0.3,2.5-0.5,3.9-0.8C167.8,117.2,166.7,119.3,164.7,120.9z M157.3,120.8
		c0.8,0.1,1.4,0.1,2,0.2c1,0.3,2,0.6,2.9,0.9c0.5,0.2,0.5,0.4,0.2,0.8c-1,1.3-2.3,2-3.8,2.4c-1,0.3-2.1,0.4-3.2,0.4
		C157.5,124.6,158.2,123.1,157.3,120.8z M172.3,93c-0.1,0.7-0.1,1.4-0.2,2.1c-0.3,1.7-0.7,3.3-1.1,5c-0.5,2-1.1,3.9-1.6,5.9
		c-0.3,1-0.6,2-0.7,3c-0.2,1.1-0.2,2.2-0.1,3.4c0.1,1,0.1,1.1-0.9,1.3c-1.6,0.3-3.1,0.6-4.7,1c-1.8,0.5-3.6,1-5.4,1.5
		c-0.1,0-0.3,0.1-0.4,0.2c-0.9,0.7-1.8,1.3-2.6,2c-1.7,1.3-3.2,2.8-4,4.9c-0.8,2.1-1,4.2-0.8,6.3c0.2,1.5,0.6,3,1.1,4.4
		c0.7,2.4,1.5,4.7,2.2,7.1c0.3,1,0.6,2.1,0.1,3.3c-0.5,1.2-1.3,2-2.6,2.3c-0.5,0.2-1.1,0.3-1.5,0.6c-1,0.6-2.1,0.5-3.2,0.3
		c-0.2,0-0.5-0.2-0.6-0.4c-0.7-1.5-1.8-1.3-3.1-1.1c-1.5,0.2-3,0.4-4.5,0.5c-0.6,0.1-1-0.2-1.4-0.7c-0.6-0.9-1.1-1.7-0.9-2.8
		c0.2-1.3,0.4-2.6,1.4-3.7c0.5-0.5,1.1-1,1.6-1.6c0.1-0.1,0.1-0.3,0.2-0.5c-0.2,0-0.5-0.1-0.6,0c-1.4,1-2.5,2.4-2.9,4.2
		c-0.2,0.8-0.3,1.6-0.3,2.4c0,1.3,1.5,3.4,2.6,3.5c1.1,0,2.1-0.1,3.2-0.2c1-0.1,1.9-0.2,2.9-0.4c0.6-0.1,1,0.2,1.3,0.7
		c0.4,0.7,1,1.1,1.9,1c2.3-0.1,4.3-0.8,6.1-2.1c1.2-0.9,1.6-2.1,1.5-3.6c-0.2-1.9-0.8-3.7-1.4-5.5c-0.8-2.4-1.6-4.8-2.1-7.3
		c-0.3-1.7-0.4-3.6,0.4-5.4c1.8,1.4,3.8,1.9,5.9,1.7c1.9-0.2,3.7-0.9,5.2-1.9c0.5-0.4,1.2-0.6,1.9-1c-0.1,1-0.2,1.8-0.2,2.7
		c0,1.4,0,2.7,0,4.1c-0.1,1.7-0.3,3.4-0.5,5.1c-0.3,2.2-0.7,4.3-1.1,6.4c-0.5,2.9-1.4,5.8-2.6,8.5c-1.5,3.4-3.8,6.2-5.9,9.2
		c-1.2,1.8-2.7,3.1-4.5,4.3c-0.5,0.3-0.9,0.8-1.4,1.2c-1.5,1.5-3,2.9-4.4,4.4c-1.9,1.9-3.7,4-5.3,6.2c-1,1.4-2.3,2.2-4,2.4
		c-3,0.4-6,0.9-9.1,0.7c-1.3-0.1-2.6-0.3-3.6-1.2c-0.5-0.4-1.1-0.6-1.6-1c-0.6-0.4-1.2-0.9-1.9-1.3c-0.8-0.5-1.6-1-2.4-1.5
		c-1.5-0.9-3.1-1.6-4.6-2.5c-2-1.2-4-2.5-5.9-3.8c-0.2-0.1-0.4-0.3-0.6-0.5c-1.3-1.3-2.5-2.7-4.1-3.7c-1.1-0.7-2.1-1.7-3.1-2.6
		c-1.5-1.3-3-2.5-4.4-3.8c-0.9-0.9-1.6-1.9-2.4-2.9c-1.6-2-2.7-4.3-3.7-6.6c-0.4-1.1-0.6-2.4-0.7-3.6c-0.2-1.7-0.2-3.4-0.4-5.1
		c-0.1-0.8,0.1-1.4,0.6-2c1.1-1.5,2.3-2.9,3.3-4.4c0.4-0.5,0.6-1.1,0.9-1.7c1.1-2,2-4.1,3.2-6c1.1-1.7,2.4-3.3,3.6-4.9
		c1.2-1.6,2.4-3.3,3.7-4.9c1.2-1.4,2.5-2.7,3.7-4c0.6-0.6,1-1.3,1.5-2c2.2-2.9,4.4-5.7,6.6-8.6c1.3-1.8,2.6-3.6,4-5.3
		c0.9-1.1,2.1-2,3.3-2.8c1.9-1.4,3.9-2.8,6-3.8c2.9-1.3,5.7-2.9,8.8-4c2.8-1,5.4-2.5,8.1-3.7c1.1-0.5,2.3-0.8,3.5-1.1
		c2.4-0.6,4.7-1.6,6.6-3.2c0.8-0.7,1.4-1.6,1.4-2.9c0-2.5-0.4-4.9-1.2-7.3c-0.7-2.1-1.7-4-2.3-6.1c-0.7-2.3-1.9-4.3-3.5-6.1
		c-1.2-1.3-2.2-2.7-3.4-3.9c-0.8-0.9-1.7-1.6-2.5-2.4c-2.3-2.6-5.2-4.4-7.9-6.4c-0.7-0.5-0.9-1-0.5-1.5c0.1-0.1,0.4-0.3,0.5-0.3
		c0.5,0.2,1,0.5,1.5,0.8c0.8,0.5,1.5,1.2,2.4,1.6c1.4,0.6,2.4,1.7,3.5,2.6c1.3,1.1,2.5,2.4,3.6,3.8c0.9,1.1,2.1,1.9,3.2,2.9
		c0.5,0.5,1,1,1.4,1.6c1,1.4,1.9,2.9,2.8,4.4c0.3,0.5,0.6,1.1,0.8,1.7c0.5,1.3,1,2.5,1.4,3.8c0.8,2.9,1.6,5.8,2.3,8.7
		c0.3,1.4,0.5,2.8,0.7,4.3c0.1,0.4,0.2,0.7,0.4,1c0.9,1.4,2,2.6,3.4,3.5c1,0.7,1.9,1.6,2.9,2.3c1.2,0.9,2.5,1.9,3.8,2.7
		c1.2,0.7,2.4,1.2,3.7,1.7c0.9,0.4,1.7,1.3,1.6,2.3C172.6,90.2,172.5,91.6,172.3,93z"/>
	<path class="st0" d="M129.7,124.1c-1.5-0.1-3,0-4.3-0.3c-1.8-0.4-3.3-1.2-4.5-2.6c-0.5-0.6-1-1.1-1.5-1.6c-0.2-0.2-0.6-0.3-0.9-0.4
		c-0.3-0.1-0.6-0.1-0.9-0.2c-0.2-0.1-0.4-0.4-0.3-0.5c0.1-0.2,0.3-0.4,0.5-0.4c0.5-0.1,0.9,0,1.4-0.1c1.2-0.2,2.4-0.5,3.6-0.7
		c1.7-0.2,3.4-0.4,5.1-0.5c3.1-0.1,5.6,1.2,7.3,3.9c0.3,0.5,0.8,0.9,1.2,1.3c0.3,0.3,0.2,0.6-0.4,0.7c-0.7,0.2-1.5,0.4-2.2,0.5
		C132.4,123.5,131,123.8,129.7,124.1z M126.2,122.9c2.9,0.6,5.7,0,8.8-1c-0.8-0.9-1.4-1.7-2.1-2.4c-1.1-1.1-2.5-1.6-4-1.6
		c-0.6,0-0.7,0.2-0.7,0.9c0.1,0.6,0.2,1.3-0.1,1.8C127.6,121.4,126.9,122.1,126.2,122.9z"/>
	<path class="st0" d="M138.8,166.7c-2.2,0.2-3.9-0.8-5.6-2c-1.4-1-2.8-2-4.2-2.9c-0.8-0.5-1.6-1-2.4-1.6c-0.1-0.1-0.3-0.3-0.3-0.4
		c0-0.2,0.2-0.4,0.4-0.4c2.5-0.4,4.9-1.3,7.3-2.3c1.6-0.7,3.2-1.3,4.9-2c2-0.8,4-1,5.8,0.5c0.2,0.2,0.9,0.1,1.1,0
		c1.5-1,2.4-0.4,2.9,0.8c0.4,0.9,0.7,1.9,0.9,2.8c0.2,1-0.3,1.7-1.1,2.1c-1.2,0.5-1.7,1.5-2.4,2.5c-0.2,0.3-0.5,0.6-0.7,0.9
		c-1.1,1.5-2.8,1.8-4.4,1.9C140.2,166.6,139.5,166.7,138.8,166.7z M146.8,161.4c-0.8-0.3-1.3-0.5-1.9-0.7c-0.8-0.3-1.7-0.5-2.6-0.6
		c-1.1,0-2.2-0.2-3.3-0.4c-1.3-0.2-2.5-0.5-3.8-0.5c-1.5,0-2.9,0.2-4.4,0.4c-0.9,0.1-1.8,0.3-2.8,0.5c0.6,0.5,1.2,1,1.7,1.4
		c1.3,0.9,2.6,1.9,4,2.7c0.9,0.6,2,1.2,3.1,1.3c1.5,0.2,3.1,0.1,4.7,0c0.9-0.1,1.9-0.3,2.5-0.8C145.1,163.9,145.9,162.7,146.8,161.4
		z M132.4,158.6C132.4,158.6,132.4,158.6,132.4,158.6c0.6,0,1.3,0.1,1.9-0.1c1.5-0.3,3-0.2,4.4,0.3c1.6,0.5,3.1,0.5,4.7,0.6
		c0.4,0,0.8-0.2,1.2-0.1c1,0.3,1.9,0.6,2.8,1c0.6,0.3,0.8,0.1,1.2-0.2c0.5-0.4,0.5-1,0.3-1.5c-0.2-0.6-0.5-1.3-0.7-1.9
		c-0.5-1.2-1-1.3-2-0.5c-0.5,0.4-1.3,0.5-1.8,0c-1.4-1.4-3-1.4-4.6-0.8C137.2,156.4,134.8,157.5,132.4,158.6z"/>
	<path class="st0" d="M121,110.4c1.4,0,2.8-0.1,4.3,0c0.7,0,1.4,0.3,2.2,0.5c0.9,0.1,1.8,0.2,2.7,0.3c1.2,0.2,2.4,0.4,3.6,0.6
		c0.2,0,0.5,0,0.8,0c0.2,0,0.4,0,0.4,0.1c0.6,0.7,1.4,0.6,2.2,0.7c0.5,0.1,1.1,0,1.5,0.2c0.3,0.1,0.4,0.6,0.6,1
		c-0.3,0.1-0.6,0.5-0.8,0.4c-1.5-0.2-3-0.5-4.5-0.8c-1.8-0.3-3.6-0.7-5.3-1c-2.2-0.4-4.3-1-6.6-0.8c-2.1,0.2-4.3,0.4-6.4,0.5
		c-0.2,0-0.6-0.2-0.7-0.5c-0.2-0.3,0-0.6,0.5-0.7c0.1,0,0.2-0.1,0.3-0.1C117.4,110.8,119.2,110.6,121,110.4
		C121,110.5,121,110.4,121,110.4z"/>
</g>
</svg>
