<?xml version="1.0" encoding="utf-8"?>
<!-- Generator: Adobe Illustrator 19.2.1, SVG Export Plug-In . SVG Version: 6.00 Build 0)  -->
<svg version="1.1" id="Layer_1" xmlns="http://www.w3.org/2000/svg" xmlns:xlink="http://www.w3.org/1999/xlink" x="0px" y="0px"
	 viewBox="0 0 200 195" style="enable-background:new 0 0 200 195;" xml:space="preserve">
<style type="text/css">
	.st0{fill:#BF360C;}
</style>
<g id="icon-child-cankersore">
	<path class="st0" d="M0,108.1c6.7,6.8,15.6,10.2,23.7,14.9c11.6,6.7,23.3,13.1,34.9,19.7c4.1,2.3,8.2,4.1,13,4.6
		c4.1,0.4,8.1,1.4,12.1,2c8.6,1.3,16.6-0.8,24.4-4.3c3.7-1.7,7.6-3,11.5-4.6c-0.3-0.6-0.4-1-0.6-1.3c-5.2-3.9-8-9.5-10.9-15.1
		c-1-1.9-2.3-3.8-4-5c-1.3-1-3.4-1-5.1-1.5c-3.7-1-7.4-2.2-11.2-3.1c-4.5-1.1-8.7-2.9-12.4-5.6c-4.5-3.2-7.9-7.5-10.9-12
		c-3.6-5.3-6.7-11-10.3-16.2c-2.6-3.8-5.8-7.2-8.6-10.9C45,69,44.3,67.5,44.6,67c0.7-0.8,2-1.6,3-1.6c3.2-0.1,6.5,0.5,9.7,0.3
		c4.2-0.3,8.5-0.4,12.7-1.8c5.5-1.9,11.3-2.7,17.1-3.9c4.7-1,9.5-1.9,14.3-2.4c1.7-0.2,3.7,0.3,5.4,1c2.3,0.9,4.5,2.3,6.8,3.2
		c0.7,0.3,1.8,0,2.5-0.4c3.5-2.1,6.7-4.8,10.4-6.3c2.6-1.1,5.9-0.9,8.9-0.7c3.5,0.1,6.9,0.7,10.4,1.2c1.7,0.3,3.5,0.7,5.1,1.3
		c0.6,0.2,1,1.3,1.3,2.1c0.6,1.7,1,3.5,1.7,5.2c1.5,3.6,2.6,7.3,2.5,11.3c-0.1,3.6,0.1,7.2,0,10.8c-0.1,2.6-0.5,5.1-0.8,7.8
		c0.6,0.1,1.2,0,1.7,0.2c3.6,1.9,5.8-0.3,7.7-2.7c5.5-7,11.1-14,16.3-21.3c3-4.3,5.1-9.2,7.6-13.8c4.7-8.6,7.1-18,10.4-27
		c0.2-0.6,0.6-1.2,0.8-1.8c0,4.4,0,8.9,0,13.3c-0.3,0.6-0.6,1.2-0.8,1.8c-2,4.9-3.7,9.8-5.9,14.6c-2,4.5-4,8.9-6.6,13.1
		c-3.4,5.5-7.4,10.7-11.1,16c-0.6,0.8-1.1,1.7-1.8,2.4c-2.3,2.4-4.6,4.8-7.1,7.5c3.9,1.1,7.3,2,10.7,3.1c7.4,2.4,14.8,4.3,22.7,3.8
		c0,1.4,0,2.8,0,4.2c-5.3-0.6-10.7-0.7-15.9-1.8c-6.4-1.3-12.6-3.4-18.9-5c-7-1.8-14-3.3-21.1-4.9c0.8,1,1.8,1.6,2.8,2.2
		c2.7,1.6,4.3,3.8,4,7.1c-0.3,2.6-0.6,5.3-1,7.9c-0.5,3.1-1.9,6-4.4,7.6c-4.1,2.5-8.6,3.6-13.5,3.1c-2.3-0.3-4.6,0-6.9,0
		c0.3,0.9,1,1.4,1.6,1.9c5.1,3.7,10.5,6.8,16.7,8.3c2.9,0.7,5.8,1.5,8.6,2.6c11,4.1,22.4,4.5,33.9,3.6c3-0.2,6-0.6,8.9,0.4
		c1.7,0.6,3.5,0.9,5.3,1.3c0,1.4,0,2.8,0,4.2c-1.2-0.3-2.5-0.6-3.7-1c-5.5-1.8-10.9-1.7-15.7,2c-4.6,3.5-9.2,7.1-13.9,10.5
		c-4.1,3-5.8,7-6.2,11.9c-1.8,0-3.6,0-5.4,0c0-0.3,0-0.6-0.1-0.8c-2.2-5.6-6.9-8.7-12-11.2c-7.4-3.6-15.4-5.9-20.5-13
		c-1.5,0.6-2.8,1.1-4.1,1.7c-4.3,1.7-8.5,3.3-12.8,5c-1,0.4-1.6,0.9-1.7,2.2c-0.2,3.9-1.2,7.5-2.9,11c-0.8,1.6-1.1,3.3-1.6,5
		c-1.5,0-3,0-4.6,0c1.1-5.5,5.3-10.1,4.5-15.8c-3.3,0.3-6.5,0.8-9.7,0.8c-2.8,0-5.6-0.4-8.4-0.8c-4.7-0.7-9.4-1.6-14.1-2.4
		c-6.2-1-11.1-4.9-16.5-7.8c-7.3-4-14.5-8.2-21.7-12.3c-8.6-4.9-17.2-9.7-25.8-14.6c-1.1-0.6-2.1-1.4-3.2-2C0,112,0,110.1,0,108.1z
		 M48,68.2c2.6,3.5,5.6,7.2,8.2,11.1c4.7,6.9,8.3,14.5,13.9,20.8c4.1,4.7,8.5,9.2,14.7,10.8c5.9,1.6,11.5,4.4,17.8,4.4
		c3.3,0,6.6-0.1,10.2-0.1c-0.4-4.7,0.1-8.5,2.2-12.2c4.3-7.4,10.4-12,19.1-11.8c5.9,0.1,11.8,1,18.2,1.5c0.3-1.6,0.9-3.6,1.1-5.5
		c0.6-5.7,0.8-11.4-0.5-17c-0.7-3.2-1.9-6.2-3.1-9.2c-0.2-0.4-1.2-0.9-1.7-0.7c-1.5,0.4-3,0.9-4.4,1.7c-3.4,2-6.5,4.3-9.9,6.2
		c-3.8,2-7.7,3.9-11.8,5.3c-3,1-6.3,1-9.5,1.2c-5.3,0.4-10.2,2-14.7,4.7c-4.7,2.9-9.6,4.2-15.1,3.7c-2.7-0.3-5.4-0.7-7.3-2.8
		c-2.4-2.5-4.5-5.5-7-7.9c-1.7-1.6-3.9-3.5-6.1-3.8C57.7,67.9,52.7,68.2,48,68.2z M110.4,119.8c1.4,2.7,2.5,5.4,4.1,7.7
		c1.9,2.7,4.2,5.2,6.3,7.7c1.2,1.3,2.8,2.3,3.7,3.8c2.9,5.1,7.3,8.4,12.6,10.7c3.5,1.6,7.3,2.9,10.5,4.9c3.6,2.2,7.4,4.4,9.5,8.8
		c0.9-1.8,1.4-3.2,2.2-4.4c2.6-4,6.6-6.5,10.3-9.3c2.1-1.6,4.2-3.3,6.6-5.3c-3-0.2-5.3-0.3-7.7-0.5c-1.8-0.2-3.6-0.3-5.3-0.7
		c-6.9-1.8-13.7-3.8-20.6-5.7c-10.5-2.8-19.2-8.3-26-16.9C114.8,118.3,113.7,118.2,110.4,119.8z M130.8,119.9c0-0.2,0.1-0.3,0.1-0.5
		c1.9,0,3.9,0,5.8,0c4.2-0.1,8.1-2.5,8.9-6.2c0.7-3.2,0.9-6.6,1.1-9.9c0-0.6-0.7-1.4-1.3-1.8c-1.6-1.1-3.3-2.2-5.1-3
		c-2.9-1.2-5.9-2.2-8.9-3.2c-0.4-0.1-0.9,0.1-1.4,0.2c-5,1.6-8.8,4.9-11.4,9.3c-1.9,3.2-3,6.7-1.3,10.5c0.7,1.4,1.5,2.7,3.3,3
		C124,118.7,127.4,119.3,130.8,119.9z M67.7,67.1c0,0.3,0,0.5,0.1,0.8c0.8,0.3,1.6,0.7,2.4,0.7c1.8,0.1,3.7,0,5.5,0
		c5.1,0,10.3-0.2,15.4,0.1c5.1,0.3,10,1.2,14.6,3.6c0.5,0.2,1.1,0.3,1.6,0.2c2.9-0.3,5.9-0.6,8.8-1c2.3-0.3,4.7-0.6,6.8-1.5
		c4-1.8,7.9-3.9,11.7-6c3.5-1.9,6.8-3.9,10.7-6.1c-3.5-0.4-6.6-0.4-9.5-1.1c-7.2-1.6-12.6,1.5-17.6,6c-1.7,1.5-4,2-6,1
		c-2.9-1.5-6-2.9-9-4.2c-0.6-0.3-1.4-0.2-2-0.1c-3.2,0.5-6.4,1.1-9.6,1.8c-5.4,1.2-10.8,2.4-16.1,3.6C72.8,65.5,70.3,66.4,67.7,67.1
		z M72.1,71.4c-0.2,0.3-0.3,0.6-0.5,1c1,0.8,2.3,1.5,2.9,2.5c3,5,7.7,5.8,13,5.5c5.8-0.4,9.9-4.7,15.1-6.4
		C92.6,69.7,82.3,71.3,72.1,71.4z"/>
	<path class="st0" d="M72.8,11.7c2.2,5,5.4,8,11.3,8.5c4.5,0.4,9,2.1,13.2,3.9c3.8,1.7,7.4,4,10.7,6.6c6.3,4.8,13,5.6,20.2,2.6
		c5.1-2.1,9.5-5.4,13.1-9.4c3.4-3.8,6.4-8.1,9.6-12.1c1.8,0,3.6,0,5.4,0c-2.7,3.2-5.5,6.3-8.1,9.6c-2,2.4-3.3,5.4-5.6,7.5
		c-5,4.6-10.7,8.5-17.5,9.8c-7.5,1.4-14.7-0.1-20.5-5.6c-4-3.7-9-5.6-14.1-7.1c-3.6-1-7.2-1.8-10.9-2.5c-4-0.7-6.3-3.5-8.5-6.4
		c-1.2-1.6-2-3.5-3-5.3C69.7,11.7,71.2,11.7,72.8,11.7z"/>
	<path class="st0" d="M119.5,88.6c-1.5-0.5-3.2-0.8-4.5-1.7c-2.7-1.9-3-3.7-1.5-6.8c1.1-2.2,4.5-4,6.7-3.5c1.6,0.4,3.3,0.9,4.8,1.7
		c0.8,0.4,1.6,1.6,1.6,2.3C126.6,84,124.1,88.9,119.5,88.6z M123.9,80.6c-0.8-0.4-1.5-0.6-2.1-1c-1.7-0.8-3.4-0.9-4.7,0.4
		c-0.9,0.9-1.9,2.4-1.6,3.4c0.3,1,1.9,2.1,3.1,2.2C122.4,86.1,123.8,84.6,123.9,80.6z"/>
</g>
</svg>
