<?xml version="1.0" encoding="utf-8"?>
<!-- Generator: Adobe Illustrator 19.2.1, SVG Export Plug-In . SVG Version: 6.00 Build 0)  -->
<svg version="1.1" id="Layer_1" xmlns="http://www.w3.org/2000/svg" xmlns:xlink="http://www.w3.org/1999/xlink" x="0px" y="0px"
	 viewBox="0 0 187.8 200" style="enable-background:new 0 0 187.8 200;" xml:space="preserve">
<style type="text/css">
	.st0{fill:#1976D2;}
</style>
<g id="icon-child-eczema">
	<path class="st0" d="M9.5,200c0-2.6,0.1-5.1,0-7.7c-0.1-2.9,0-5.9-0.5-8.8c-0.5-3.4-1.4-6.7-2.2-10.1c-0.7-3.1-1.6-6.2-2.4-9.3
		c-0.8-2.9-1.9-5.8-2.7-8.7c-0.5-2-0.8-4.1-0.9-6.2c-0.1-3.2-0.1-6.3,0-9.5c0.1-2.3,0.5-4.6,0.8-6.9c0.2-1.4,0.2-2.7,0.4-4.1
		c0.2-1.2,0.4-2.4,0.6-3.6c0.3-2.1,0.6-4.1,1-6.2c0.5-2.3,1.7-4.1,3.2-5.9c1.6-2,3.1-4.2,4.5-6.3c1.9-3,3.6-6.1,5.6-9
		c1-1.5,2.5-2.8,3.7-4.2c0.7-0.7,1.3-1.5,2-2.2c0.7-0.8,0.9-1.6,0.9-2.7c-0.1-1.6-0.2-3.1-0.2-4.7c0-1.2-0.3-2.2-1.3-3
		c-1.9-1.7-3.9-3.4-5.8-5.2c-1.8-1.8-3.7-3.5-4.7-5.9c-1.7-3.7-3.4-7.4-4.9-11.2c-1.9-4.8-3.6-9.7-5.1-14.7
		c-0.8-2.5-1.2-5.2-1.5-7.8c-0.2-2.2,0.2-4.4,0.1-6.6c-0.1-2.5,0.2-5,1.1-7.4c0.6-1.7,1.6-3.3,2.6-4.8c1.5-2,3-4,4.8-5.8
		c1.3-1.3,2.8-2.4,4.3-3.4c2.2-1.5,4.4-2.9,6.8-4.2c1.8-0.9,3.7-1.6,5.6-2.1c3.1-0.8,6.4-1.2,9.6-1.8c0.2,0,0.3,0,0.5,0
		c3.8,0,7.7-0.2,11.5,0.1c2.8,0.2,5.5,0.6,8.2,1.4c3.2,0.9,6.2,2.1,9.1,3.6c2.5,1.3,5.1,2.3,7.4,4c2.8,2.1,5.8,4,8.3,6.6
		c0.8,0.9,1.7,1.7,2.7,2.5c3.2,2.6,4.7,6.3,5.8,10.1c0.7,2.7,1.5,5.3,2,8c0.8,4.6,1,9.2-0.9,13.6c-0.8,1.8-1.2,3.7-2,5.5
		c-0.7,1.6-1.7,3-2.6,4.5c-0.3,0.5-0.6,1.1-0.7,1.6c-0.3,2.2,0.2,4.3,1.6,6.2c0.7,1,1.2,2.4,1.3,3.6c0.3,4.5-0.7,8.9-2,13.2
		c-0.4,1.4-0.8,2.9-1.3,4.4c-0.7,2.3-1.8,4.4-3.1,6.4c-0.7,1.1-1.2,2.4-1.8,3.6c-0.3,0.5-0.1,1,0.4,1.1c2.4,0.4,3.8,2.1,5.1,3.9
		c1.3,1.7,2.5,3.5,3.6,5.3c1.2,2.1,2.3,4.4,3.3,6.6c0.6,1.4,1.3,2.9,1.7,4.3c1.6,5.7,4.2,10.8,7.3,15.8c0.9,1.4,1.7,2.9,2.6,4.2
		c1.4,2,3.5,2.9,5.8,3.1c2.7,0.2,5.5,0.4,8.2,0.4c2,0,4-0.4,5.9-0.6c1.4-0.2,2.8-0.3,4.2-0.5c1.8-0.3,3.6-0.7,5.4-1
		c4.1-0.8,8-2,11.8-3.5c3.1-1.3,6.1-2.9,9.2-4.4c1.5-0.7,3-1.4,4.5-2.2c2.1-1.3,3.8-3.1,4.8-5.4c0.7-1.5,1.3-3,1.8-4.6
		c0.4-1.4,2.6-3.5,4.2-3.8c0.4-0.1,1,0.3,1.5,0.4c0.5,0.1,1.2,0.4,1.6,0.2c1.6-0.7,3.1-0.3,4.6,0.3c1.1,0.5,2.1,1.2,3.2,1.8
		c0.6,0.3,1.4,0.5,2.1,0.4c1.5-0.2,2.5,0.4,3.1,1.6c1.1,2.1,2.5,4,2.8,6.5c0.4,3.4-0.3,5.8-2.9,7.7c-2.9,2.1-5.8,4.2-8.7,6.3
		c-1.5,1.1-2.7,2.5-4.3,3.4c-3.3,1.8-6.6,3.7-10.3,4.6c-1.7,0.4-3.4,1.4-5.1,2c-4.7,1.8-8.7,4.9-13.2,7.2c-2.4,1.2-4.9,2.4-7.3,3.6
		c-1.5,0.7-2.9,1.5-4.4,2.1c-2.5,1-5,1.8-7.4,2.7c-2.4,1-5,1.7-7.1,3.1c-1.9,1.3-3.3,3.4-5,5c-2,1.9-4.4,3.4-7.1,4.2
		c-3,0.9-6,1.7-8.7,2.4c0.2,2.5,0.3,4.8,0.5,7.1c0.1,1,0.4,2.1,0.6,3.1c0.5,2.1,0.9,4.2,1.4,6.3C69,200,39.3,200,9.5,200z
		 M176.6,141.4c-1.4,0.1-1.6-0.1-1.1-1.5c0.5-1.6,1.3-3.1,1.9-4.7c1.2-2.7,1.5-5.4-0.6-7.9c-1.1-1.4-2.3-2.9-3.4-4.3
		c-1-1.3-0.9-1.3-2.2-0.3c-0.1,0.1-0.3,0.2-0.5,0.3c0.5,1,1.2,1.9,1.4,2.9c0.5,2.6,1.2,5.2,1.1,7.9c-0.1,2.3-0.7,4.4-1.9,6.3
		c-0.3,0.5-0.7,0.8-1.1,0.4c-0.2-0.1-0.1-0.8,0.1-1.1c1.1-1.8,1.8-3.7,1.7-5.8c-0.1-1.8-0.4-3.6-0.7-5.3c-0.2-1.3-0.7-2.7-1-3.9
		c-1.5,0.3-2.7,0.6-3.7,0.8c0.1,2.2,0.2,4.4,0.1,6.6c0,1.1-0.2,2.2-0.6,3.2c-0.5,1-1,1.8-0.7,3c0,0.2-0.2,0.4-0.4,0.6
		c-0.2-0.1-0.5-0.3-0.6-0.5c-0.2-0.4-0.3-0.8-0.4-1.2c-0.3,0.1-0.6,0.3-0.9,0.3c-1.2,0.2-1.4,1.1-1.6,2.1c0,0.3,0,0.6-0.2,0.9
		c-0.1,0.2-0.4,0.4-0.6,0.5c-0.1-0.2-0.4-0.5-0.4-0.7c0-0.6,0.1-1.2,0.1-1.9c-2.9-0.4-5.8-0.6-8.5-2c-0.6,0.2-1.2,0.4-1.8,0.7
		c-1,0.5-2,1.1-2.9,1.7c-0.5,0.3-0.8,0.9-1.2,1.1c-1.1,0.5-2.2,0.9-3.4,1.2c-3.8,1-7.5,2-11.3,3c-1.3,0.3-2.7,0.6-4.1,0.8
		c-1.7,0.2-3.4,0.1-5.1,0.5c-2.3,0.5-4.6,0.6-6.9,0.6c-1.7,0-3.5-0.2-5.2-0.2c-1,0-2-0.1-2.9,0.1c-3.1,0.9-5.2,3.3-7.2,5.7
		c-0.7,0.8-1.2,1.8-1.9,2.7c-0.3,0.4-0.7,0.9-1.4,0.4c-0.6-0.4-0.7-0.9-0.2-1.5c1.4-1.7,2.6-3.5,4.1-5.2c1.1-1.2,2.4-2.1,3.5-3.1
		c-1-1.1-2.2-2.2-3-3.4c-2.9-4.4-5.5-9-7.6-13.9c-0.9-2.1-1.5-4.3-2.3-6.4c-0.4-1-0.8-2-1.2-3c-0.6-1.4-1.3-2.7-1.9-4
		c-1.3-3-2.9-5.7-4.9-8.3c0,0.3,0.1,0.5,0.2,0.7c2.1,3.5,3.1,7.4,3.1,11.4c0,5-0.4,10.1-0.5,15.1c-0.1,5.3-0.1,10.6-0.2,15.9
		c0,1.4-0.2,2.7-0.5,4c-0.9,3.8-0.9,7.5,0.3,11.2c0.7,2.1,0.8,2.3,2.7,1.2c4.7-2.5,9.6-3.7,15-3.6c0.6,0,1.2-0.1,1.8-0.3
		c2.5-0.7,5-1.5,7.5-2.2c1.6-0.4,3.3-0.9,4.8,0.5c0.5,0.4,0.9,0.9,1.4,1.4c0.8,0.9,0.8,3-0.1,3.8c-0.5,0.4-1,0.9-1.6,1.2
		c-1.5,0.9-2.9,1.8-4.6,2.8c0.7,0.1,1,0.2,1.4,0.2c2.1,0.1,4.2,0.3,6.3-0.6c0.9-0.4,1.8-0.8,2.8-1.2c2.8-1,5.6-1.9,8.3-3.1
		c3-1.3,5.9-3,8.9-4.3c4.4-2,8.7-4.2,12.6-7.2c-0.1-0.2-0.4-0.4-0.6-0.7c-1-1.5-2-3-2.9-4.5c-0.1-0.2,0.1-0.6,0.2-0.9
		c0.3,0.2,0.8,0.2,0.9,0.5c0.5,1.5,1.6,2.6,2.7,3.8c0.6,0.6,1.1,0.9,1.9,0.6c2.2-0.7,4.5-1.4,6.7-2.1c2.9-1,5.8-2,8.6-3.2
		c1.2-0.5,2.4-1.1,3.4-1.9C174.5,143.3,175.5,142.3,176.6,141.4c1.7-1.5,4.1-2.1,4.7-4.7c0.3-1.7,1.3-3.4,1.4-5.1
		c0.2-3.4-1-6.4-3-9.2c-0.6-0.9-1.4-1-2.4-0.6c-0.8,0.4-1.7,0.6-2.6,0.9c0.7,0.9,1.4,1.9,2.2,2.9c2.2,2.6,3.1,5.5,2.1,8.7
		c-0.6,1.7-1.4,3.3-2,4.9C176.8,139.9,176.7,140.7,176.6,141.4z M57.9,170.4c0,2.7,0,5.3,0,7.9c0,0.4,0,0.7,0.1,1.1
		c0.2,0.7,0.1,1.4-0.7,1.6c-0.6,0.2-1.2-0.5-1.2-1.3c-0.1-1.3-0.2-2.7-0.2-4c0.2-3.4-0.3-6.6-1.9-9.6c-0.5-1-0.9-2-1.2-3.1
		c-0.6-2.7-1-5.4-1.4-8.1c-0.6-3.3-1.1-6.5-1.7-9.8c-1-4.8-3-9.3-3.9-14.1c-0.6-3.2-2-6.2-2.9-9.3c-0.6-2.2-1.9-3.9-3.1-5.7
		c-1.9-2.7-4.8-4.2-7.6-5.6c-2.8-1.3-5.7-2.2-8.7-3.1c-4.2-1.2-8,0-11.3,2.8c-1.1,0.9-2,2.1-2.9,3.3c-1.6,2.1-3.1,4.2-3.7,6.9
		c-0.4,1.6-0.7,3.3-0.9,4.9c-0.6,4.1-1.2,8.2-1.5,12.4c-0.2,2.4-0.1,4.9,0,7.4c0,1.5,0.1,3.1,0.4,4.6c0.3,1.9,0.9,3.8,1.3,5.7
		c0,0.2,0.1,0.3,0.2,0.4c0.9,0.9,1.9,1.7,3.2,1.9c1.2,0.2,2.5,0.6,3.7,0.7c1.5,0.1,3.1,0.4,4.6-0.6c-0.1-0.2-0.1-0.3-0.2-0.4
		c-1.6-6.3-3-12.6-5.7-18.6c-0.5-1.1-0.7-2.2-1-3.4c-0.1-0.6,0.1-1.1,0.8-1.2c0.7-0.1,1,0.4,1.2,1c0.2,0.6,0.3,1.3,0.6,1.9
		c1.1,3,2.3,5.9,3.3,9c1.8,5.7,2.7,11.6,5.3,17.1c0.8,1.7,1.1,3.7,1.8,5.5c1.1,3.4,2.6,6.7,3.5,10.2c0.9,3.5,2.4,6.6,4.5,9.4
		c1.9,2.6,4.5,4.8,6.9,7c1.1,1,2.5,1.6,3.9,2.1c2.7,0.9,5.6,0.7,8.4,0.4c2.9-0.3,5.8-1,8.7-1.8c6.7-1.8,13.2-4.2,19.4-7.3
		c3.4-1.7,6.9-3.2,10.2-5.3c0.9-0.6,2.1-1,3.1-1.3c0.9-0.3,2.1-1.5,2-2.4c-0.2-1.4-0.5-2.8-0.8-4.3c-0.1-0.6-0.2-1.2,0.5-1.4
		c0.7-0.2,1.1,0.1,1.4,0.8c1,2.2,1.2,4.5,0.9,7.1c0.5,0,0.9,0.1,1.3,0c3.1-0.8,6.1-1.6,9.1-2.6c3.1-1,5.6-3.1,7.8-5.5
		c0.6-0.6,1.1-1.4,1.6-2.1c0-0.1-0.1-0.2-0.1-0.3c-2.4,0.2-4.7,0.4-7.1,0.6c-0.6,0-1.4,0.3-1.7-0.5c-0.3-0.8,0.2-1.2,0.9-1.6
		c2.4-1.2,4.8-2.5,7.2-3.8c-0.7-0.8-1.3-1.3-1.7-2c-0.3-0.7-0.2-1.5-0.3-2.3c-1,0.3-2,0.6-3,0.9c-2.9,1.1-5.9,1.4-9,1.5
		c-1.6,0-3.3,0.2-4.8,0.8c-2.7,1-5.3,2.3-8,3.5c-0.7,0.3-1.5,0.8-2.3,0.9c-2,0.4-4.1,0.7-6.2,1c-1.6,0.2-3.2,0.5-4.9,0.6
		c-3.1,0.2-6.1-0.7-9.1-1.1C62.3,169.1,59.9,168.8,57.9,170.4z M88.1,35.2c-1.5,0.4-2.9,1-4.3,1.2c-2.1,0.3-4.2,0.3-6.2-0.7
		c-1.3-0.6-2.5-1.3-3.9-1.7c-1.2-0.4-2.5-0.3-3.8-0.5c-2.3-0.3-4.2,0.6-5.8,2.1c-2.4,2.2-4.9,4.3-7.8,5.7c-1.6,0.8-2.8,2.1-4,3.4
		c-2.2,2.3-4.3,4.7-6.8,6.7c-2.1,1.7-4,3.5-5,6c-0.8,2-1.8,3.8-3,5.6c-0.9,1.4-2.4,1.8-3.4,1c-0.9-0.8-1.9-1.5-2.8-2.2
		c-1.7-1.3-3.6-2.1-5.8-1.8c-0.7,0.1-1.4,0-2.1,0c-1.9,0-5.2,1.7-5.7,4c-0.1,0.6-0.3,1.2-0.3,1.9c-0.1,1.2-0.4,2.5-0.1,3.7
		c0.5,1.8,1.2,3.7,2.2,5.3c1.5,2.3,3.3,4.4,5.7,6.1c2.8,1.9,5.5,2.6,8.5,0.9c0.9-0.5,1.3-1,1.1-2c-0.2-1.2-1.6-3.1-2.3-3.2
		c0,0-0.1,0-0.1,0c-0.8-0.2-1.6-0.4-2.3-0.8c-1.1-0.7-2.1-1-3.1,0c-0.2,0.2-0.5,0.3-0.8,0.4c-1.1,0.2-2.5,0.6-3.3-0.4
		c-1-1.3-1.9-2.8-2.6-4.3c-1.1-2.2-0.6-4.4-0.1-6.6c0.5-2,1.5-2.8,3.6-2.9c0.5,0,0.9,0.1,1.4,0c0.9,0,1.5,0.3,2,1
		c0.5,0.5,0.3,0.7-0.3,0.7c-1.1,0-2.3-0.1-3.4-0.1c-0.4,0-0.9,0.3-1.1,0.6c-1.3,2.1-1.5,4.4-0.6,6.7c0.4,0.9,1,1.7,1.5,2.6
		c0.9,1.8,1.7,2,3.3,0.7c1.1-0.8,2.5-0.9,3.6-0.2c0.5,0.3,1.1,0.6,1.6,0.9c0.6,0.3,1.1,0.3,1.4-0.3c0.3-0.6,0.2-1-0.4-1.4
		c-0.8-0.6-1.7-1.3-1.9-2.5c-0.1-0.6-0.2-1.2-0.3-1.9c0,0,0.1-0.1,0.2-0.2c0.4-0.2,0.8-0.3,1.2-0.5c0.2,0.4,0.5,0.9,0.5,1.3
		c-0.2,1.5,0.8,2.2,1.8,2.9c0.8,0.5,1,1.2,0.8,2.1c-0.1,0.7-0.6,1.3-0.1,2.1c0.5,0.9,1,1.9,1.3,2.9c0.3,0.9,0.5,2.1-0.4,2.8
		c-2.9,2.3-6.1,2.8-9.6,1.5c-0.3-0.1-0.6-0.3-1.2-0.6c0.1,1.8,0.1,3.3,0.2,4.8c0.1,1.6,0,3.1-1.1,4.3c-0.3,0.3-0.6,0.7-0.9,1.1
		c2.7,1.1,4.9,2.7,6.9,4.7c2.2,2.3,4.5,4.6,6.8,6.8c0.7,0.7,1.6,1.2,2.5,1.8c2.3,1.6,4.6,3.2,6.9,4.7c2,1.3,4,2.5,6.1,3.8
		c1.7,1.1,3.5,2.1,5.2,3.3c1.7,1.2,3.5,2.3,5.6,2.6c2,0.3,4,0.6,6,0.8c1.2,0.1,2.4,0,3.8,0c-0.6-1.6-1.1-2.9-1.7-4.3
		c-0.4-0.9-0.9-1.8-1.4-2.8c-1.6-3.1-2.6-6.5-5.4-8.9c-0.8-0.7-1.4-0.8-2,0.1c-1.2,1.7-2.4,3.5-3.5,5.3c-0.3,0.5-0.6,1.1-1.2,0.8
		c-0.7-0.4-0.5-1-0.1-1.6c1.1-1.8,2.1-3.6,3.2-5.5c-0.9-0.2-1.7-0.3-2.5-0.4c-1.7-0.3-3.5-0.3-5.1-0.9c-5.1-1.6-9.8-3.9-14.4-6.7
		c-2.6-1.6-5.2-3.2-6.9-5.8c-0.2-0.3-0.1-0.9-0.1-1.3c0.4,0.1,1.1,0.1,1.3,0.4c1.4,2,3.3,3.3,5.2,4.6c3.8,2.6,8.1,4.3,12.3,6.2
		c1.2,0.5,2.4,0.9,3.7,1.2c1.3,0.3,2.5,0.4,3.8,0.6c1.5,0.1,3.1,0.2,4.6,0.3c0.7,0,1.4-0.1,2.1,0.1c2.1,0.5,4.1,0.4,6.1-0.1
		c3-0.7,5.2-2.4,6.2-5.4c0.4-1.2,1.1-2.4,1.7-3.5c0.8-1.4,1.8-2.7,2.4-4.2c0.7-1.8,1.2-3.8,1.8-5.7c1.3-4,2.1-8,1.9-12.2
		c0-0.7-0.3-1.5-0.6-2.2c-1-2.1-2.7-3.7-2.9-6.2c-0.1-2.1,0.2-3.8,1.3-5.6c1-1.4,2-2.9,2.7-4.5c0.8-1.7,1.4-3.6,2.1-5.3
		c1.8-4.1,1.2-8.3,0.4-12.5C88.3,35.6,88.2,35.4,88.1,35.2z M165,125.3c-0.1,0-0.3,0-0.4,0c-2.1,5-6.1,8-10.8,10.2
		c1,0.4,2,0.8,3,0.9c1.4,0.2,2.8,0.4,4.2,0.2c0.9-0.1,1.9-0.5,2.8-1c0.6-0.3,1.3-1,1.4-1.6c0.3-2,0.4-4.1,0.4-6.2
		C165.5,127,165.2,126.2,165,125.3z M181.4,122.4c0.5,1.2,1.1,2.4,1.5,3.6c0.9,2.8,1.7,5.6,0.3,8.4c-0.3,0.7-0.5,1.6-0.8,2.5
		c1.7-1,3.3-1.9,3.8-3.8c0.4-1.6,0.6-3.3,0-4.9c-0.8-1.9-1.7-3.7-2.8-5.4C183.1,122.1,182.3,121.8,181.4,122.4z M167.5,123.9
		c0.6-0.1,1.5,0,1.7-0.9c0.2-0.6-1.5-2.7-2.1-2.7c-0.5,0-1.5,1.4-1.5,2.2C165.5,123.3,166.3,123.9,167.5,123.9z M116.1,164.2
		c0.2-0.3,0.5-0.5,0.6-0.9c0.2-0.3,0.3-0.7,0.3-1.1c-0.1-0.6-1.7-1.7-2.4-1.6c-0.2,0-0.4,0.2-0.4,0.3c-0.6,1.4-0.4,1.9,1,2.6
		C115.4,163.8,115.6,163.9,116.1,164.2z M172.5,119.7c0.8,1.7,2.9,2.1,4.3,0.8C175.3,119.3,173.5,119,172.5,119.7z M168.4,119.5
		c0.5,0.6,0.9,1.2,1.4,1.8c0.2,0.3,0.3,0.9,0.8,0.5c0.4-0.3,1.2-0.7,0.6-1.5C170.8,119.7,169.3,119.2,168.4,119.5z"/>
</g>
</svg>
