<?xml version="1.0" encoding="utf-8"?>
<!-- Generator: Adobe Illustrator 19.2.1, SVG Export Plug-In . SVG Version: 6.00 Build 0)  -->
<svg version="1.1" id="Layer_1" xmlns="http://www.w3.org/2000/svg" xmlns:xlink="http://www.w3.org/1999/xlink" x="0px" y="0px"
	 viewBox="0 0 153.9 200" style="enable-background:new 0 0 153.9 200;" xml:space="preserve">
<style type="text/css">
	.st0{fill:#7B1FA2;}
</style>
<g id="icon-child-stomachache">
	<path class="st0" d="M124.8,200c-32.6,0-65.2,0-98,0c0.2-0.8,0.3-1.5,0.6-2.2c0.9-2.4,1.9-4.8,2.8-7.3c1-2.7,1.6-5.6,1.9-8.4
		c0.1-1,0.4-2,0.6-3c0.3-1.7,0.4-3.3,0.7-5c0.1-0.8,0.2-1.5,0.4-2.3c0.4-1.3,0.3-2.6,0.2-3.9c0-0.5,0.1-1.1,0.1-1.6
		c0-0.2-0.1-0.5-0.3-0.5c-1.3-0.4-2.3-1.1-3.4-1.8c-1.6-1-3.3-1.8-5-2.7c-1.5-0.8-3-1.6-4.6-2.4c-1.2-0.6-2.3-1.2-3.5-1.7
		c-1.9-0.8-3.8-1.6-5.4-3.1c-0.8-0.7-1.8-1.1-2.5-1.9c-2-2-4.3-3.7-5.8-6.1c-1.1-1.7-2.4-3.3-3.1-5.3c-0.5-1.3-0.6-2.7-0.3-4
		c0.5-2.8,1.5-5.5,3.1-7.9c0.9-1.3,1.4-2.9,2.2-4.3c0.2-0.5,0.6-0.9,0.9-1.3c0.1-0.1,0.1-0.2,0.1-0.2c0.2-1.7,1.4-2.9,2.1-4.4
		c0.8-1.9,1.9-3.6,3-5.3c1.6-2.5,3.3-4.9,5-7.3c0.8-1.1,1.7-2.1,2.4-3.2c0.8-1.4,1.2-2.9,2.1-4.3c1.5-2.4,2.1-5,2.9-7.6
		c0.4-1.4,0.7-2.8,1-4.2c0.5-2.4,1.4-4.5,2.7-6.6c0.8-1.1,1.4-2.4,2-3.6c1.5-2.8,3.6-4.9,6.7-5.8c3.7-1.2,7.4-2.2,11.2-2.8
		c1.3-0.2,2.7-0.3,4-0.4c1.2-0.2,2.5-0.4,3.7-0.6c1-0.2,2.1-0.3,3.1-0.4c1.5-0.2,3-0.5,4.6-0.8c1.8-0.3,3.7-0.6,5.5-0.9
		c1.4-0.2,2.7,0.2,3.8,1.2c0.2,0.2,0.7,0.3,1,0.2c1.3-0.5,2.6-1,3.9-1.5c0.5-0.2,1-0.6,1.5-0.9c0.1-0.1,0.1-0.3,0.1-0.4
		c-0.5-1.8-0.2-3.7,0-5.5c0.1-1.2,0.2-2.3,0.3-3.5c0.3-2.4,0.6-4.8,0.9-7.2c-0.4,0-0.9,0-1.4,0c-0.6,0-1.2-0.2-1.5-0.8
		c-0.2-0.4-0.6-0.7-0.8-1.2c-0.3-0.6-0.6-1.2-0.6-1.9c0-3.1,0.4-6.1,1.3-9.1c0.3-0.9,0.3-2,0.5-2.9c0.3-1.1,1.7-2.1,2.8-2.2
		c0.4,0,0.7-0.1,0.7-0.7c0-1.7,0-3.3,0.2-5c0.3-2.7,0.8-5.4,2-7.8c0.7-1.4,1.4-2.7,2.2-4c0.6-0.9,1.3-1.6,2-2.5
		c0.4-0.6,0.8-1.2,1.1-1.9c0.9-1.7,2.5-2.7,4.1-3.6c1.5-0.8,3-1.3,4.7-1.6c1.7-0.3,3.3-0.9,4.9-1.4C104.5,0,107,0,109.5,0
		c1,0,1.9,0.2,2.9,0.1c1.9-0.1,3.7,0.2,5.4,1c1.9,0.8,3.8,1.4,5.7,2.2c2.7,1,5,2.5,6.5,5c0.8,1.3,1.5,2.6,2.2,4
		c0.4,0.7,0.8,1.3,1.1,2c0.5,1.4,1,2.7,1.5,4.1c0.6,2,1.3,4,1.8,6.1c1,4.1,0.8,8.2-0.9,12.1c-1.2,2.9-3,5.5-4.6,8.2
		c-0.9,1.4-2.1,2.7-3,4c-0.7,1-1.3,2.1-1.7,3.2c-0.7,1.7-1.3,3.5-2.4,5c-0.3,0.4-0.7,0.6-1,0.9c-0.4,0.4-0.9,0.7-1.2,1.1
		c-1.1,1.9-2.2,3.8-3.3,5.7c-0.8,1.4-1.5,2.8-2.3,4.2c-0.4,0.8-0.8,1.7-1.2,2.6c0.5,0.3,1.1,0.6,1.7,1c3.6,2.1,7.3,3.8,11.2,5.2
		c1.7,0.6,3.5,1.1,5.1,1.8c2.2,1,4.3,2.2,6.4,3.4c0.8,0.5,1.5,1.3,2.3,1.8c1.5,1,3.1,1.9,4.6,2.9c1.8,1.2,3.1,2.8,3.6,5
		c0.4,1.7,0.8,3.5,1.1,5.2c0.1,0.8,0,1.6-0.1,2.4c0,0.9-0.1,1.8-0.2,2.7c-0.1,1.6-0.3,3.2-0.4,4.9c0,1.2,0.2,2.4,0.4,3.6
		c0.2,1.2,0.3,2.3,0.5,3.5c0.2,1.3,0.5,2.6,0.7,3.9c0.2,0.9,0.3,1.7,0.4,2.6c0.2,3,0.4,5.9,0.6,8.9c0.1,1.4,0.1,2.8,0.2,4.3
		c0.2,2.7,0.4,5.3,0.5,8c0.1,0.9,0.1,1.7,0.1,2.6c0,0.2-0.1,0.5-0.2,0.5c-0.6,0.2-0.5,0.7-0.5,1.2c0,2.3-0.1,4.6-0.1,6.9
		c0,2,0.2,3.9,0.4,5.9c0.2,2.9,0.2,5.7-1.1,8.3c-0.5,1-1.3,1.6-2.2,2.2c-1.5,1.1-3.1,2.1-4.6,3.1c-1.7,1.1-3.6,1.5-5.5,1.8
		c-1.7,0.2-3.4,0.5-5.1,0.7c-0.9,0.1-1.9,0.3-2.8,0.4c-2.1,0.3-4.2,0.6-6.2,1.5c-0.7,0.3-0.5,1-0.4,1.5c0.4,2.3,0.4,4.6-0.1,6.8
		c-0.1,0.6-0.1,1.2-0.1,1.7c-0.1,3.7-0.2,7.4-0.3,11.1C124.8,199.2,124.8,199.6,124.8,200z M78.7,181.1c-0.6-0.3-0.9-0.5-1.3-0.7
		c-2.4-0.7-4.4-2.1-6.3-3.6c-0.5-0.4-1-0.9-1.6-1.2c-1.3-0.8-2.6-1.4-3.9-2.2c-1.3-0.8-2.6-1.6-3.8-2.3c-0.9-0.6-1.9-1-2.8-1.6
		c-0.3-0.2-0.6-0.6-0.2-1c0.4-0.3,0.7-0.2,1,0.1c0.3,0.3,0.7,0.6,1.1,0.8c2,0.8,3.9,1.8,5.6,3.2c1,0.8,2.3,1.4,3.6,1.8
		c1.6,0.5,3.3,0.8,4.9,1.2c0.4-2,1.8-2.9,3.9-3c-0.8-1.1-1.6-1.6-3.3-2.2c-2.7-0.9-5.4-1.8-7.7-3.5c-1.6-1.1-3.1-2.3-4.5-3.8
		c-1.2-1.4-2.7-2.6-4-4c-0.6-0.6-1.5-1.1-1.5-2.2c0-1.1-0.1-2.2,0-3.2c0.2-1.5,0.6-2.3,2-2.5c2-0.3,4.1-0.5,6.2-0.7
		c1.9-0.1,3.4-1,4.3-2.7c-1.3,0.7-2.7,0.6-4.1,0.3c-0.8-0.2-1.3-1-1.1-1.9c0.1-0.5,0.1-1,0.1-1.5c-0.3,0-0.5,0-0.8,0
		c-3,0.2-6,0.5-9,0.7c-1.7,0.1-3.2,0.6-4.6,1.7c-0.1,0.1-0.2,0.1-0.4,0.2c-1.9,0.5-3.8,1.2-5.7,1.5c-1.4,0.3-2.9,0.2-4.3-0.4
		c-0.9-0.4-1.8-0.9-2.7-1.3c-0.2-0.1-0.5-0.2-0.8-0.2c-2.5-0.3-4.7-1.3-6.4-3.1c-0.8-0.8-1.5-1.7-2.3-2.6c-1-1.2-2.2-2.5-3-3.8
		c-0.5-0.7-1-1-1.7-0.9c-1.3,0.1-2.5-0.4-3.6-1c-2.8-1.5-5.1-3.7-6.7-6.5c-0.2-0.3-0.4-0.7-0.6-0.9c-1.6-1.7-3.4-3-5.6-4.1
		c-1,1.7-2.1,3.4-2.9,5.2c-0.8,1.6-1.4,3.3-2,4.9c-0.8,2.5-1.4,5,0.1,7.4c0.9,1.4,1.3,3.2,2.7,4.4c0.3,0.2,0.5,0.4,0.7,0.7
		c0.8,1.3,1.8,2.3,2.9,3.3c0.9,0.7,1.7,1.4,2.6,2.1c0.4,0.3,0.8,0.4,1.2,0.6c1.1,0.8,2.3,1.7,3.4,2.5c0.3,0.2,0.7,0.4,1.1,0.6
		c1.6,0.8,3.2,1.6,4.8,2.4c0.8,0.4,1.5,0.7,2.3,1.1c1.1,0.5,2.4,0.8,3.4,1.4c1.6,0.9,3,2,4.6,3c0.7,0.4,1.4,1,2.2,1.2
		c2,0.5,4,0.8,5.4,2.3c0.9,0.9,1.9,1.8,2.5,2.9c1.5,2.4,3.2,4.7,5.1,6.8c1.3,1.5,2.4,3,3.7,4.5c1,1.2,1.9,2.4,3.1,3.3
		c1.8,1.5,3.7,2.8,5.5,4.2c0.3,0.2,0.5,0.4,0.8,0.7c0.6-1.1,1.3-2,2.4-2.4c-1.2-0.9-2.5-1.7-3.6-2.6c-1.2-1.1-2.4-2-3.7-2.8
		c-1.1-0.7-2.1-1.6-3.2-2.4c-0.4-0.3-0.5-0.7-0.2-1.1c0.3-0.3,0.6-0.1,1,0.2c1.3,1,2.7,2,4.1,2.9c0.6,0.5,1.3,0.9,1.9,1.4
		c1,0.8,1.9,1.8,3,2.5c2.2,1.3,4.6,2.5,7,3.7c0.8-2.1,2.7-2.2,4.8-2.3c-1.8-1.4-3.5-2.5-5.4-3.1c-0.5-0.1-0.8-0.5-1.3-0.7
		c-0.1-0.1-0.3-0.2-0.4-0.2c-1.1-0.6-2.3-1.1-3.4-1.8c-1.3-0.9-2.6-1.9-3.8-3c-0.7-0.6-1.4-1.2-2.1-1.8c-0.2-0.2-0.1-0.5-0.2-0.8
		c0.3,0,0.5-0.1,0.8-0.1c0.1,0,0.3,0.1,0.4,0.3c1.1,0.9,2.1,1.9,3.2,2.8c1.7,1.3,3.5,2.6,5.6,3.3c2.3,0.8,4.6,1.5,6.8,2.2
		c0.4,0.1,0.5,0,0.7-0.3c0.8-1.1,1.6-2.1,3.1-1.9C78.2,181.4,78.4,181.2,78.7,181.1z M92.9,84c0.5-0.1,1.1-0.1,1.6-0.3
		c1.8-0.7,3.5-1.5,5.1-2.7c2.2-1.7,4.4-3.1,6.7-4.7c2.1-1.4,4.2-2.8,6.3-4.2c1.1-0.8,1.9-1.8,2.5-3.1c0.5-1.3,1.2-2.6,1.9-3.9
		c0.6-1.1,1.2-2.2,1.8-3.2c0.1-0.3,0.3-0.5,0.5-0.8c0.9-1.4,2-2.8,2.7-4.4c1.6-3.3,3-6.8,4.4-10.1c0.4-0.9,0-1.6-0.9-1.6
		c-0.2,0-0.3,0-0.5-0.1c-1.9-0.2-3.7-0.4-5.6-0.7c-1.6-0.2-3.2-0.3-4.8-0.7c-1.2-0.3-2.4-0.8-3.6-1.2c-1.5-0.5-3-0.9-4.5-1.4
		c-1.1-0.4-2.2-0.9-3.3-1.3c-2.1-0.9-4.3-1.7-6.1-3.2c-0.2-0.2-0.6-0.3-0.9-0.5c-1-0.7-2.1-1.4-3-2.2c-0.8-0.7-1.9-1.3-2.8-0.9
		c-1.1,0.5-2.1,1.1-2.4,2.5c-0.3,1.5-1,2.8-2.4,3.6c-0.5,0.3-0.8,0.8-1.1,1.3c-0.8,1.7-1.6,3.4-2.4,5.1c-0.3,0.6-0.5,1.2-0.6,1.9
		c-0.4,1.8-0.8,3.7-1,5.5c-0.3,2.5-0.5,4.9-0.8,7.4c-0.1,0.8-0.2,1.7,0,2.4c0.5,2.1,1,4.3,1.7,6.4c0.5,1.5,1,3,1.6,4.5
		c1.2,3,2.4,6,4.9,8.3C89.3,83,90.9,83.9,92.9,84z M84.4,186c0.2-0.1,0.5-0.3,0.7-0.4c1.9-0.8,3.8-1.6,5.7-2.3
		c1.5-0.6,3-1.1,4.4-1.8c2.2-1.2,4.3-2.6,6.4-3.9c0.4-0.3,1-0.7,1.3,0c0.3,0.6-0.4,0.8-0.8,1c-1.8,1.1-3.5,2.1-5.3,3.2
		c-1.1,0.7-2.3,1.4-3.5,1.9c-1.5,0.6-3.1,1-4.6,1.6c-1.5,0.6-2.9,1.4-4.3,2.1c0,0.1,0,0.1,0,0.2c1.3,0.4,2,1.4,2.3,2.7
		c0.3-0.1,0.5-0.2,0.7-0.3c1.1-0.6,2.2-1.3,3.3-1.7c2.3-1,4.6-1.9,7-2.8c2.7-0.9,5-2.3,7-4.3c0.1-0.1,0.2-0.3,0.4-0.3
		c0.2,0,0.7,0,0.7,0.1c0.1,0.2,0.1,0.6,0,0.8c-0.4,0.5-0.9,0.9-1.4,1.4c-3,2.6-6.6,3.7-10.2,5.2c-0.6,0.3-1.2,0.5-2,0.8
		c1.2,0.6,1.8,1.5,1.7,2.9c0.7-0.3,1.3-0.6,1.8-0.9c1.7-1.1,3.3-2.2,5.2-3.1c1.2-0.5,2.3-1.1,3.5-1.7c1.4-0.8,2.8-1.8,4.2-2.7
		c2-1.2,3.9-2.5,5.9-3.6c1.6-0.9,3.3-1.6,5-2.2c1.2-0.4,2.5-0.3,3.7-0.6c1.4-0.3,2.8-0.8,4.1-1.1c1.6-0.4,3.2-0.7,4.8-1
		c1.2-0.3,2.4-0.6,3.6-0.7c1.6-0.1,3.1-0.1,4.7-0.5c3.3-0.8,6.2-2.3,8.8-4.6c1.8-1.6,2.9-3.6,3-6c0.1-2.2-0.1-4.5-0.3-6.7
		c-0.2-2.4-0.4-4.7,0.2-7c0.1-0.3-0.1-0.7-0.1-1.3c-0.4,0.2-0.6,0.4-0.9,0.5c-0.9,0.6-1.7,1.3-2.6,1.8c-1.9,1-3.9,2-6.1,2.3
		c-2.3,0.3-4.6,0.5-7,0.7c-0.5,0.1-0.9,0.2-1,0.9c-0.1,0.8-0.1,1.6-0.4,2.4c-0.4,0.8-0.8,1.7-1.5,2.3c-1.9,1.5-4.3,1.9-6.7,1.5
		c-0.8-0.1-1.6-0.3-2.2-0.6c-1.2-0.7-2.4-1.5-3.6-2.2c-1.7-1-3.4-2.1-5.1-3.1c-1-0.6-2.1-1.2-3.2-1.6c-2-0.7-4.1-1.2-6.2-1.7
		c-1.1-0.3-2.2-0.6-3.2-0.3c0,0.7,0,1.2,0,1.8c0,1.1-0.8,2.1-1.7,2.2c-0.8,0.1-1.6,0-2.4,0c-0.6,0-1.1-0.1-1.8-0.1
		c0.9,1.1,1.8,1.7,3.1,1.9c1.8,0.3,3.5,0.8,5.3,1.1c1.1,0.2,2.3,0.1,3.4,0.2c0.3,0,0.6,0.2,0.7,0.4c0.2,0.4-0.1,0.7-0.5,0.9
		c-0.2,0.1-0.4,0.1-0.6,0.2c-1.7,1.1-3.3,2.3-5,3.5c-0.7,0.5-1.5,1-2.3,1.4c-2.6,1.1-5.3,2.1-8,3.2c-1.4,0.6-2.8,1.2-4.2,1.8
		c-1.9,0.8-3.8,1.5-5.6,2.3c-0.1,0.1-0.3,0.2-0.4,0.3c0,0.1,0,0.1,0,0.2c2.1-0.6,3.3,0.4,4,2.1c0.9-0.2,1.7-0.5,2.6-0.6
		c2.1-0.4,4.1-0.7,6.2-1.2c3.5-0.8,6.6-2.5,9.8-3.9c0.5-0.2,0.9-0.3,1.1,0.2c0.3,0.5-0.2,0.8-0.5,1c-0.9,0.4-1.8,0.9-2.8,1.2
		c-2.6,1-4.9,2.5-7.3,4c-2.1,1.4-4.4,2.6-6.4,4.2c-1.8,1.4-3.9,2.6-5.9,3.8c-0.6,0.4-1.3,0.8-1.9,1.2c0,0.1,0,0.2,0,0.3
		C82.4,184.2,83.7,184.5,84.4,186z M127.1,159.4c0.8-0.1,1.5,0,2.3-0.2c1-0.3,2.1-0.7,2.7-1.6c0.8-1,1.1-2.2,0.8-3.4
		c-0.3-1.5-0.4-3-1.1-4.4c-0.5-1-0.8-2.1-1.1-3.2c-0.2-0.8-0.2-1.7-0.6-2.4c-0.7-1.3-1.6-2.4-2.5-3.6c-0.3-0.4-0.6-0.4-1-0.1
		c-0.1,0.1-0.3,0.2-0.4,0.3c-1.3,0.9-2.3,2.1-2.4,3.8c-0.1,2.5-0.2,5.1-0.3,7.6c-0.1,1.9-0.3,3.8-0.4,5.8c0,0.2,0.2,0.5,0.3,0.7
		C124.5,159.3,125.8,159.4,127.1,159.4z M26.3,136.8c0,0.1,0,0.2,0,0.3c0.4,0.5,0.7,1,1.1,1.4c0.9,1.1,1.9,2.1,2.8,3.2
		c1.3,1.7,2.8,3.1,4.9,3.8c1.3,0.4,2.7,0.8,4.1,1.2c0,0,0.1,0,0,0c0-1.9,0-3.7,0-5.5c0-0.8-0.3-1.6-0.4-2.5c0-0.3,0-0.7,0-1.1
		c0.1-1.1,0.2-2.3,0.2-3.4c0-0.5,0-1.1-0.2-1.4c-0.4-0.6-0.5-1.2-0.6-1.9c0-0.4-0.1-0.8-0.2-1.3c-0.5,0.4-0.9,0.8-1.3,1.1
		c-2,1.5-4.1,2.9-6.1,4.5C29.4,136.2,28.1,137,26.3,136.8C26.4,136.7,26.4,136.7,26.3,136.8z M86.3,82.2c0-0.1,0.1-0.1,0.1-0.2
		c-0.2-0.3-0.3-0.6-0.6-0.9c-0.9-0.9-1.5-1.9-2.2-2.9c-1.5-2.6-2.2-5.4-3.3-8.2c-0.5-1.3-0.8-2.6-1.2-4c-0.3-0.9-0.4-0.9-1.3-0.6
		c-1.8,0.7-3.5,1.4-5.3,2c-0.8,0.3-1.7,0.4-2.7,0.6c0.7,1.2,1.3,2.4,2,3.5c0.4,0.6,0.8,1.3,1.3,1.8c1.7,1.9,4,3,6,4.5
		c1.9,1.5,4,2.6,6,3.8C85.6,82,85.9,82.1,86.3,82.2z M96.5,84.1c0,0.1,0,0.1,0,0.2c0.4-0.1,0.9-0.1,1.3-0.2c1.9-0.1,3.9-0.6,5.6-1.3
		c2.9-1.2,5.7-2.6,8.1-4.6c1.4-1.2,2.5-2.5,2.9-4.2c0.1-0.3-0.1-0.8-0.3-1.1c-0.1-0.1-0.6,0-0.8,0.2c-2.5,1.6-5,3.2-7.4,4.9
		c-1.7,1.1-3.3,2.3-4.9,3.4c-1,0.7-1.9,1.4-2.9,2C97.6,83.7,97.1,83.9,96.5,84.1z M80.7,38.6c0.1,0,0.1-0.1,0.2-0.1
		c0.1-0.9,0.1-1.9,0.2-2.8c0-0.9-0.5-1.7-1.1-1.8c-1-0.2-2.1,0.6-2.3,1.7c-0.1,0.6-0.1,1.3-0.2,1.9c-0.2,1.3,0.2,2.5,0.6,3.7
		c0.1,0.2,0.5,0.4,0.7,0.3c1.3-0.4,1.7-1.5,0.7-2.5c-0.1-0.1-0.3-0.2-0.3-0.4c0-0.3-0.1-0.8,0-1c0.3-0.4,0.6,0,0.8,0.3
		C80.3,38.1,80.5,38.3,80.7,38.6z M99.1,153.8c0,0,0,0.1,0,0.1c0.5-0.2,1.2-0.2,1.5-0.5c0.4-0.5,0.5-1.2,0.3-1.9
		c-0.1-0.4-0.3-0.6-0.8-0.5c-1.3,0.2-2.5,0.4-3.7,0.8c-0.4,0.1-0.6,0.9-0.8,1.4c0,0.1,0.5,0.5,0.8,0.5
		C97.3,153.8,98.2,153.8,99.1,153.8z M64.1,187.9c-0.9,0-1.7,0.4-2.3,1.3c-0.4,0.6-0.2,1.4,0.3,1.6c0.3,0.2,0.7,0.3,1,0.5
		c0.9,0.3,1.9,0,2.6-0.9c0.5-0.7,0.3-1.2-0.3-1.7c0,0-0.1-0.1-0.1-0.1C65.3,187.8,64.7,188,64.1,187.9z M76.9,41.3
		c-0.3,1.7-0.2,2.4,0.8,3.8c0.1,0.1,0.1,0.2,0.2,0.3c0.3,0.7,0.9,0.6,1.4,0.5c0.4-0.1,0.8-0.2,0.9-0.8c0.1-0.8,0.2-1.6,0.2-2.5
		c0-0.2-0.1-0.4-0.1-0.6c-0.7,0.2-1.3,0.5-1.9,0.5C77.6,42.6,77.1,42.1,76.9,41.3z M73,187.7c-1.3,0-2.3,0.5-2.7,1.4
		c-0.1,0.1,0,0.5,0.1,0.6c1,0.4,1.9,0.9,3.1,0.6c0.8-0.2,1.1-0.5,1.1-1.2c0-1.1,0-1.1-1-1.3C73.4,187.7,73.2,187.7,73,187.7z
		 M71.4,145.4c-1.4,0-2.8,0-4.2,0c-0.3,0-0.7-0.1-0.7,0.4c0,0.5-0.4,1.1,0.4,1.3c0.7,0.2,1.4,0.2,2.1,0.1c0.8-0.1,1.6-0.5,2.4-0.8
		C71.4,146.1,71.4,145.8,71.4,145.4z M83.8,191.2c0.2,0,0.4,0,0.6,0c1,0,1.4-0.5,1-1.4c-0.2-0.4-0.6-0.8-1.1-1.1
		c-0.3-0.2-0.9-0.5-1.1-0.4c-0.6,0.3-1.1,0.9-1.2,1.6c0,0.7,0.4,1.2,1.1,1.2C83.4,191.2,83.6,191.2,83.8,191.2z M92.8,191.5
		c0-0.9-0.8-1.8-1.6-2c-0.6-0.1-1.2,0.1-1.6,0.6c-0.3,0.5-0.2,1,0.1,1.4c0.5,0.9,1.1,1.1,2.4,0.8C92.5,192.2,92.9,192,92.8,191.5z
		 M79.9,185.2c0,0.6,0,1.3,0,2c0,0.2,0.3,0.4,0.5,0.5c1.3,0.5,2.2-0.1,3.1-1.2c-0.5-0.4-0.9-0.9-1.5-1.1
		C81.5,185.2,80.8,185.3,79.9,185.2z M84.9,174.5c-0.3-1.1-0.9-1.6-2-1.6c-0.4,0-0.8,0-1.3,0c-0.2,0-0.4,0.2-0.4,0.2
		c0,0.5-0.1,1.2,0.1,1.4c0.4,0.4,1.1,0.7,1.6,0.6C83.7,175.2,84.3,174.8,84.9,174.5z M76.3,176.1c1.1-0.1,2.1-0.1,3.1-0.2
		c0.2,0,0.5-0.4,0.5-0.6c0-0.5-0.1-0.9-0.1-1.4c0,0-0.1-0.1-0.2-0.1C78.1,173.6,76.6,174,76.3,176.1z M79.9,182.1
		c-0.7,0.1-1.3,0.3-1.9,0.3c-1,0.1-1.7,0.6-2,1.6c0.8,0.1,1.5,0.2,2.3,0.2c0.9,0,1.3-0.2,1.5-1C79.9,183,79.8,182.6,79.9,182.1z
		 M78.3,32.5c0.6,0.7,1.1,0.1,1.6,0.2c0.5,0,0.9-0.2,0.8-0.7c-0.1-0.5-0.4-0.9-0.7-1.3c-0.1-0.1-0.8,0.2-1,0.4
		C78.6,31.6,78.5,32.1,78.3,32.5z"/>
	<path class="st0" d="M96.5,78.9c-1.9-0.4-3.7-0.6-5.3-1.8c-0.4-0.3-0.7-0.7-1-1.1c-0.7-1-1.3-2.1-1.9-3.1c-0.1-0.2-0.1-0.6,0-0.9
		c0.1-0.2,0.5-0.3,0.7-0.2c1.6,0.3,3.3,0.6,4.9,0.9c0.4,0.1,0.7,0.4,1,0.6c0.3,0.2,0.7,0.5,1,0.5c0.9,0,1.5,0.4,2.2,0.9
		c1,0.7,2.1,1.4,3.3,1.7c0.7,0.2,0.7,0.4,0.3,0.8c-0.9,1-2.1,1-3.2,1.4C97.8,78.7,97.2,78.8,96.5,78.9z M89.9,73.5
		c0,0.1-0.1,0.1-0.1,0.2c1.4,4.3,7.2,5.2,10,3.5c-1.3-0.2-2.5-0.2-3.7-0.5c-0.9-0.2-1.8-0.5-2.6-0.9C92.2,75.1,91,74.3,89.9,73.5z
		 M98.8,76.3c0-0.1,0-0.1,0.1-0.2c-0.6-0.4-1.1-0.8-1.7-1.2c-0.3-0.2-0.6-0.2-0.9-0.3c-0.5-0.2-1.3-0.2-1.6-0.5
		c-1.1-1.2-2.4-0.8-3.7-1c0.8,0.6,1.7,1.2,2.6,1.8c0.5,0.3,0.9,0.7,1.4,0.8C96.2,75.9,97.5,76.1,98.8,76.3z"/>
	<path class="st0" d="M97,54.4c0,0.9-0.6,1.4-1.3,1.1c-1.1-0.4-2.2-0.9-3-1.7C91.9,53,91,52.5,90,52.2c-1.1-0.4-2.1-0.8-2.9-1.6
		c-0.3-0.3-0.7-0.5-1.1-0.8c-0.4-0.3-0.4-0.7-0.1-1.1c0.3-0.4,0.7-0.4,1.1-0.1c0,0,0,0,0.1,0c1,1.3,2.6,1.8,4,2.5c1,0.5,2,1.2,3,1.8
		c0.8,0.4,1.6,0.7,2.4,1C96.6,54.1,96.9,54.3,97,54.4z"/>
	<path class="st0" d="M119.1,58.7c-0.5,0.2-1.1,0.6-1.6,0.6c-2.1,0.2-4.3,0.2-6.4,0.3c-1.2,0-2.4-0.1-3.6-0.2
		c-0.2,0-0.6-0.3-0.6-0.5c0-0.2,0.2-0.6,0.4-0.7c0.6-0.1,1.2-0.2,1.8-0.1c1.7,0,3.3,0,5,0.1c1.4,0,2.7,0.1,4-0.6
		c0.1-0.1,0.5,0.2,0.6,0.4C118.9,58.1,118.9,58.3,119.1,58.7z"/>
	<path class="st0" d="M94.6,65.6c-0.5,0.5-0.9,0.7-1.1,1.1c-0.5,0.7-0.5,1.4,0.1,2c0.6,0.6,1.3,1,1.9,1.4c0.5,0.4,1.1,0.7,1.6,1.1
		c0.8,0.7,1.2,0.7,2.1,0.4c0.9-0.3,1.8-0.7,2.7-0.8c1.3-0.2,1.9-1,1.6-2.3c-0.1-0.3-0.3-0.8,0.3-0.8c0.2,0,0.6,0.4,0.6,0.7
		c0.3,1.7-0.5,2.8-2.2,3.2c-0.8,0.2-1.5,0.5-2.2,0.9c-1.4,0.7-2.4,0.6-3.8-0.8c-0.3-0.3-0.8-0.5-1.1-0.8c-1-0.8-2.2-1.4-2.7-2.8
		c-0.4-1.1,0.4-2.3,1.4-2.8C94,65.4,94.3,65.5,94.6,65.6z"/>
	<path class="st0" d="M85.9,53.5c0.1-0.2,0.3-0.5,0.4-0.5c0.4-0.1,0.6,0,0.7,0.5c0.6,2.3,2.9,4.1,5.1,4.1c0.7,0,1.4-0.2,2.1-0.2
		c1,0,2.1,0,3.1,0.1c0.4,0,0.7,0.3,0.5,0.7c-0.1,0.2-0.5,0.2-0.7,0.2c-0.9,0.1-1.9-0.1-2.8,0.2c-1.8,0.5-3.4,0.2-5-0.5
		c-0.9-0.4-1.5-1.3-2.2-2c-0.4-0.5-0.7-1.1-1.1-1.6C86.1,54.2,86,53.9,85.9,53.5z"/>
	<path class="st0" d="M111.2,64.3c-2.1,0.2-3.4-0.9-4.4-2.5c-0.2-0.3-0.5-0.6-0.6-1c-0.1-0.2,0-0.5,0.1-0.6c0.1-0.1,0.5-0.1,0.6,0
		c0.3,0.2,0.5,0.4,0.7,0.7c0.3,0.4,0.6,0.8,0.9,1.2c0.6,0.7,1.3,1.1,2.2,1c1.2-0.1,2.5-0.2,3.7-0.3c0.4,0,0.8-0.3,1-0.6
		c0.3-0.3,0.5-0.5,0.8-0.2c0.2,0.2,0.2,0.8,0.1,0.9c-0.4,0.4-0.9,0.7-1.5,0.9C113.7,64,112.4,64.2,111.2,64.3z"/>
</g>
</svg>
