<?xml version="1.0" encoding="utf-8"?>
<!-- Generator: Adobe Illustrator 19.2.1, SVG Export Plug-In . SVG Version: 6.00 Build 0)  -->
<svg version="1.1" id="Layer_1" xmlns="http://www.w3.org/2000/svg" xmlns:xlink="http://www.w3.org/1999/xlink" x="0px" y="0px"
	 viewBox="0 0 119.8 187.5" style="enable-background:new 0 0 119.8 187.5;" xml:space="preserve">
<style type="text/css">
	.st0{fill:#7B1FA2;}
</style>
<g id="stomach-child-main">
	<path class="st0" d="M1,123.1c1.5,0.9,3,1.7,4.5,2.6c0.2,0.1,0.4,0.5,0.4,0.7c-0.6,2-1.2,3.9-1.9,5.9c-1.1,3-1.5,6.1-2.1,9.2
		c-0.3,1.7-0.5,3.4-0.7,5.1c-0.2,1.9-0.4,3.8,0.3,5.8c0.7,2.2,2,3.8,4,4.9c1,0.6,1.9,1.1,2.8,1.8c2.2,1.6,4.2,3.3,6.8,4.2
		c1.8,0.6,3.5,1.6,5.3,2.3c0.7,0.3,0.9,0.6,0.6,1.2c-0.2,0.4-0.3,0.9-0.4,1.3c-0.2,0.5-0.3,0.9-0.2,1.4c-0.1,1.2-0.2,2.5-0.3,3.7
		c-0.1,0.6-0.1,1.2-0.2,1.8c-0.4,1.4-0.9,2.7-1.1,3.7c-0.1,0.6-0.1,1.2,0.1,1.8c-0.1,1.2-0.2,2.4-0.2,3.7c0,1.1,0,2.2,0,3.3h86
		c0-0.1,0-0.3,0-0.4c0.1-2.1-0.3-4.1-0.8-6.2c-0.6-2.9-1.2-5.9-1.6-8.9c-0.4-2.9-0.7-5.8-0.8-8.7c-0.2-3.4-0.2-6.9-0.2-10.3
		c0.1-3.7,0.5-7.5,0.6-11.2c0.1-2.6,0-5.3-0.2-7.9c-0.1-1.1,0.3-1.9,1-2.6c2.3-2.2,5.1-3.3,8-4.3c0,0,0.1,0,0.1,0c0,1.7,0,3.4,0,5
		c0,2.3,0,4.7,0.2,7c0.2,2.1,0.6,4.1,0.8,6.2c0.1,0.8,0.2,1.6,0.3,2.4c0.3,3.1,0.6,6.3,0.8,9.4c0.1,2.2,0,4.4-0.2,6.6
		c-0.3,3.1-0.9,6.1-1.2,9.2c-0.3,2.6-0.3,5.1-0.6,7.7c-0.2,2.1-0.4,4.2-0.6,6.3c0,0.2,0,0.5-0.1,0.7h1.3c0.1-0.7,0.2-1.5,0.3-2.2
		c0.1-0.9,0.1-1.7,0.2-2.6c0.3-2.7,0.5-5.4,0.8-8c0.2-2.1,0.5-4.2,0.7-6.4c0.2-1.9,0.5-3.8,0.6-5.7c0.1-2.4,0-4.9,0-7.3
		c0-0.2,0-0.5,0-0.7c-0.2-2.1-0.4-4.1-0.7-6.2c-0.2-1.7-0.2-3.5-0.6-5.1c-0.6-2.9-0.9-5.9-0.9-8.9c0-2.2,0.3-4.4,0.3-6.5
		c0-1.3,0.5-1.7,1.6-1.9c1.8-0.4,3.4-1.2,4.9-2.1c0.7-0.4,0.9-0.9,0.7-1.7c-0.4-1.2-0.7-2.4-1.1-3.5c-0.8-2.1-1.8-4.2-2.6-6.4
		c-1.5-4.4-2.9-8.8-4.2-13.3c-0.6-2-0.6-4.1-1.5-6.1c-1.3-2.8-3.1-5-5.9-6.3c-1.6-0.8-3.5-1.1-5.1-1.8c-2.1-0.9-4.1-1.8-6.1-2.9
		c-1.4-0.7-2.7-1.7-3.9-2.6c-1-0.7-1.9-1.6-2.9-2.4c-0.8-0.7-1.7-1.3-2.5-1.9c-0.9-0.7-1.7-1.4-2.7-1.9c-0.9-0.5-1.2-0.8-1-1.8
		c0.2-1,0.4-2.1,0.6-3.1c0.6-2.5,1.3-4.9,2-7.4c0.3-0.9,0.8-1,1.6-0.6c1.1,0.5,2.4,0.4,3.2-0.5c0.9-1.2,1.7-2.5,2.5-3.8
		c0.5-0.9,0.8-2.1,1.4-3c1.4-2.1,2.3-4.3,2-6.9c-0.1-0.6,0-1.3,0-1.9c0.1-1.4-0.6-2.4-1.6-3.3c-0.2-0.2-0.3-0.5-0.3-0.8
		c0-0.2,0.1-0.5,0.1-0.7c0-2.4,0-4.7-0.2-7.1c-0.1-1.4-0.2-2.7-0.9-4c-0.5-0.9-1-1.9-1.2-3c-0.7-3.4-1.7-6.6-3.4-9.6
		c-0.8-1.4-1.3-3-2.2-4.4c-1.9-2.7-4.8-4-7.7-5.1c-0.5-0.2-1-0.4-1.5-0.7c-0.7-0.4-1.4-0.9-2.2-1.2c-3-1.1-6.1-2.2-9.1-3.3
		c-2.8-1-5.7-1.7-8.5-0.2c-1.7,0.9-3.4,2-5,3.1c-1.1,0.9-2,2-3,3.1c-1.1,1.2-2,2.6-3.2,3.8c-1.7,1.7-3.6,3.1-5.2,4.8
		c-1,1.1-2,2.5-2.5,4c-0.8,2.4-1.2,4.9-1.2,7.5c0,1.3-0.2,2.6-0.3,3.8c-0.2,1.5-0.4,2.9-0.5,4.4c-0.2,2.3,0.4,4.4,1.3,6.5
		c0.4,1,0.7,2,1,2.9c-0.6,0.4-1.3,0.6-1.6,1.1c-0.8,1.3-1.2,2.8-0.8,4.3c0.4,1.5,0.9,2.9,1.4,4.3c0.7,2.1,1.4,4.1,2.2,6.1
		c0.2,0.5,0.6,1.1,1,1.4c1,0.7,2.2,0.9,3.4,0.4c0.3-0.1,0.7-0.4,1,0.1c0.6,1.1,1.3,2,1.8,3.2c0.8,2,1.4,4.1,2,6.2
		c0.2,0.8,0.3,1.6,0.4,2.4c-0.4,0.2-0.8,0.3-1.2,0.5c-2,1.1-3.9,2.3-5.9,3.4c-2,1.2-4,2.6-6.1,3.6c-3.7,1.9-7.5,3.6-11.3,5.3
		c-0.7,0.3-1.5,0.6-2.2,0.9c-0.5,0.2-1.2,0.3-1.6,0.7c-1.3,1.2-2.5,2.5-3.6,3.9c-3.5,4.3-5.7,9.3-8.1,14.2c-1.4,2.8-2.3,5.9-4,8.6
		c-1.1,1.8-2,3.7-2.9,5.5C-0.2,122-0.2,122.4,1,123.1z M76.1,180.9c0.1-0.3,0.2-0.5,0.4-0.8c0.2,0.4,0.4,0.9,0.5,1.5
		C76.6,181.6,76,181.5,76.1,180.9z M85.8,173.9c-0.4,0.4-1,0.6-1.6,0.7c-0.2,0-0.5-0.5-0.6-0.8c-0.1-0.4-0.1-0.8,0-1.2
		c0-0.2,0.3-0.4,0.4-0.5c0.4-0.2,0.7-0.4,1.2-0.6C85.6,172,86.2,173.4,85.8,173.9z M88.4,167.6c0.2,0.1,0.5,0.4,0.4,0.6
		c-0.1,0.5-0.2,1-0.5,1.3c-0.3,0.3-0.8,0.3-1.2,0.4c-0.1-0.4-0.2-0.7-0.3-1C86.8,168.3,87.8,167.3,88.4,167.6z M86.6,160
		c1.1,1,0.9,1.5-1.1,2.5C84.7,161.1,84.8,160.8,86.6,160z M85.7,59.3c-0.7,0.2-0.9-0.2-1.1-0.7c-0.1-0.4-0.3-0.7-0.5-1
		c-0.1-0.2-0.2-0.4-0.1-0.5c0.3-1.2,0.6-2.3,1-3.5c0.1-0.3,0.6-0.5,0.9-0.5c0.2,0,0.5,0.2,0.6,0.4c0.2,0.4,0.4,0.9,0.6,1.3
		c0.3,0.5,0.8,0.9,1.3,1.6C87.8,57.4,87.3,58.8,85.7,59.3z M38.1,58.4c-0.5-1.5-1-3-1.5-4.5c-0.4-1.1-0.9-2.2-1.2-3.3
		c-0.2-0.5-0.2-1.2-0.1-1.7c0-0.5,1-0.8,1.7-0.4c0.5,0.3,1,0.7,1.4,1.1c0.7,0.7,1.3,1.4,1.9,2.1c0.1,0.2,0.2,0.4,0.3,0.6
		c0.1,0.6,0.1,1.2,0.2,1.8c0.1,0.6,0.4,1.2,0.6,1.7c-0.8,0.5-1.2,0.2-1.4-0.6c-0.1-0.8-0.1-1.5-0.3-2.3c0-0.3-0.3-0.5-0.5-0.7
		c-0.2,0.2-0.5,0.5-0.5,0.7c0.2,1.1,0.3,2.3,0.7,3.4c0.3,1,0,1.8-0.4,2.6C38.6,59.3,38.2,58.8,38.1,58.4z M41.5,61.2
		c-1.3,0.3-2.3,0.1-2.7-1.1c1.1-0.4,1.2-1.4,1.5-2.3c0.1-0.4,0.1-1,0.7-1c0.7,0,0.7,0.5,0.8,1c0.1,0.8,0.4,1.5,0.5,2.3
		C42.4,60.7,42.1,61.1,41.5,61.2z M47.4,75.7c0.1,1.2,0.2,2.5,0.3,3.7c0,0.6,0.3,1,0.9,0.8c0.2-0.1,0.5-0.5,0.5-0.8
		c0-1.1-0.2-2.2-0.3-3.3c-0.2-1.7-0.4-3.3-0.9-5c-0.5-2-1.2-4-1.8-5.9c-0.2-0.7-0.7-1.3-1-1.9c-0.6-1.3-1.3-2.5-1.8-3.9
		c-0.7-1.9-1.2-3.9-1.7-5.9c0,0,0-0.1,0-0.1c0.3-3-2.1-4.1-3.8-5.8c-0.4-0.4-1.3-0.4-2.2-0.6c0.2-0.3,0.4-0.6,0.7-0.8
		c0.7-0.3,1.4-0.4,2,0.2c0.4,0.4,0.6,0.9,0.9,1.3c0.2,0.2,0.6,0.4,0.9,0.5c0.1-0.3,0.4-0.6,0.4-0.9c0-1.1-0.2-2.2-0.1-3.3
		c0.1-1.8,0.5-3.5,0.7-5.3c0.1-1.3,0.2-2.6,0.3-3.8c0.2-2.5,0.2-5.1,0.8-7.5c0.3-1.6,1.4-3.1,2.2-4.6c1.4-2.4,3.1-4.6,5.1-6.6
		c0.9-0.9,2-1.7,2.9-2.6c0.6-0.5,1.1-1,1.7-1.5c1.1,1.4,2.4,2.4,3.9,3.2c0.6,0.3,1,0.8,1.1,1.5c0.4,2.2,1,4.5,2.8,6.1
		c0.8,0.7,1.8,1.2,2.8,1.7c0.2,0.1,0.9-0.1,1-0.3c0.1-0.3,0-0.8-0.2-1.1c-0.6-0.8-1.3-1.4-1.8-2.2c-0.7-0.9-0.8-1.9-0.6-3.1
		c1.3-0.1,2.4,0.5,3.5,1c2.2,0.8,4.4,1.6,6.5,2.4c2.6,1,5.3,1.7,7.6,3.3c0.8,0.6,1.3,1.2,1.3,2.3c0,1.8,0,3.7,0.2,5.5
		c0.1,0.9,0.4,1.8,0.7,2.6c0.8,1.7,1,3.5,1.3,5.4c0.2,1.8,0.4,3.6,0.7,5.4c0,0.3,0.4,0.7,0.7,0.7c0.3,0.1,0.8-0.1,0.9-0.4
		c0.9-1.3,1.7-2.6,2.5-3.9c0.7-1.1,0.9-1.1,2-0.4c0.9,0.6,1.4,1.3,1.1,2.5c-0.9-1-1.9-1.3-3.1-0.6c-0.3,0.2-0.6,0.5-0.8,0.8
		c-0.3,0.4-0.2,1,0.3,1.1c0.2,0.1,0.7-0.3,0.9-0.6c0.3-0.5,1.3-0.8,1.5-0.2c0.5,1.1,1.5,2,1.2,3.3c-0.2,0.8-0.4,1.7-0.8,2.4
		c-0.3,0.7-0.8,1.4-1.5,2c0.1-1.1,0.2-2.3,0.2-3.4c0-0.3-0.1-0.9-0.3-0.9c-0.4-0.1-0.7,0.2-0.7,0.7c0,1.2-0.1,2.3-0.1,3.5
		c0,0.8,0,1.6-0.2,2.6c-0.2-0.2-0.5-0.4-0.6-0.6c-0.1-0.1-0.1-0.4-0.2-0.5c-0.4-1-0.8-2.1-2.1-1.8c0.2-1,0.4-2,0.6-3
		c0-0.3,0-0.7-0.2-1c-0.1-0.2-0.4-0.4-0.5-0.4c-0.2,0-0.5,0.3-0.4,0.4c0.6,1.8-0.8,3.2-1.1,4.8c-0.4,1.6-0.7,3.3-1.3,4.9
		c-0.4,1.1-1.2,2.2-1.9,3.1c-3.1,3.6-7.2,5.9-11.6,7.4c-1.8,0.6-3.7,1.2-5.6,1.5c-2.2,0.3-4.4,0.2-6.5-0.8c-2.2-1-4.3-2.2-6.3-3.4
		c-0.5-0.3-1-0.8-1.4-1.3c-0.4-0.5-0.8-0.5-1.1,0.1c1.2,1.6,2.7,2.7,4.4,3.5c2,0.9,3.9,1.9,6,2.5c2.6,0.8,5.2,0.5,7.8-0.2
		c3.4-0.9,6.8-2.2,9.7-4.2c1.6-1.1,3.2-2.3,4.8-3.5c-0.3,1.4-0.6,2.8-0.9,4.2c-0.8,2.9-1.7,5.9-2.5,8.8c-0.2,0.9-0.3,1.8-0.3,2.7
		c0,0.2,0.3,0.6,0.6,0.7c0.2,0.1,0.5-0.2,0.7-0.4c0.1-0.1,0.2-0.4,0.2-0.6c0.2-1.5,0.4-3,0.6-4.7c0.7,0.5,1.3,0.7,1.7,1.1
		c0.7,0.7,1.8,1.1,1.9,2.2c0.1,1.1,0,2.2-0.3,3.3c-0.5,2.3-1.8,4.3-3.3,6.1c-1,1.2-2,2.5-3.3,3.4c-1.9,1.4-4.1,2.3-6.3,3
		c-3.3,1.1-6.7,1.2-10.2,1c-2.2-0.1-4-1.3-5.8-2.5c-1-0.6-2-1.2-3-2c-1.7-1.3-2.3-3.2-3-5.1c-1-2.4-1.4-4.9-1.4-7.6
		C46.3,76,46.5,75.7,47.4,75.7z M77.1,157.6c0,1.4-0.2,1.6-1.5,1.6c-1.5,0-1.7-0.2-1.7-1.6c0-1.3,0.4-1.6,2.1-1.6
		C76.6,156.1,77.1,156.8,77.1,157.6z M23.1,137c0.1-0.4,0.1-1.3,1-0.8c-0.1,2.6-0.2,5.1-0.3,7.8c-1-0.4-1.9-0.7-2.8-1.1
		C21.7,140.9,22.3,138.9,23.1,137z M8.8,128.4c2.6,1.8,5.4,3.4,8.4,4.4c1.7,0.6,3.3,1.4,5,2.2c-0.8,2.1-1.5,4-2.1,5.9
		c-0.2,0.7-0.6,1-1.3,1.2c-2.9,0.7-5.8,1.4-8.6,2.2c-0.9,0.3-1.8,1-2.6,1.7c-0.2,0.2-0.3,0.9-0.1,1.1c0.3,0.5,0.7,0.1,1-0.2
		c1.3-1.3,3-1.7,4.7-2.1c1.7-0.4,3.4-0.8,5.1-1c0.9-0.1,1.8,0.3,2.7,0.5c1.8,0.5,3.2,1.5,4.6,2.8c1.7,1.5,3.4,3,5.1,4.5
		c1.9,1.6,4.2,2.6,6.6,3.3c2.1,1.2,4.4,2.2,6.6,2.8c3.3,1.5,6.6,1.5,9.9-0.3c2.1-1.1,4.3-1.8,6.8-1.8c1.1,0,2.1-0.1,3.2,0
		c2,0.1,3.9,0.4,5.7,0.6c0.1,0.8,0.1,1.5,0.2,2.1c0,0.2,0.3,0.4,0.5,0.6c0.1-0.3,0.3-0.5,0.3-0.8c0-0.6,0-1.1,0-1.7
		c0.8,0.1,1.6,0.1,2.6,0.2c0,0.9-0.1,1.8,0,2.6c0.2,0.9,1.1,1.1,2.1,1.3c-1.7,0.8-3.2,1-4.9,0.5c-2-0.7-3.9-1.4-5.9-2.1
		c-0.3-0.1-0.7,0-1,0.1c0.1,0.3,0.2,0.6,0.4,0.7c2.7,1.3,5.5,2.5,8.5,2.6c1.5,0.1,2.8-0.4,4.1-1.1c0.3-0.2,0.7-0.3,1.1-0.4
		c2-0.3,4-0.6,6-0.8c0.4,0,0.7,0,1.4,0c-1.2,1-0.8,2.2-0.6,3.4c-3,0.9-5.9,1.8-8.9,2.7c-1.1,0.3-2.2,0.8-3.3,1.2
		c-0.2,0.1-0.4,0.4-0.3,0.5c0.1,0.2,0.3,0.5,0.5,0.5c0.5,0,1.1,0,1.5-0.2c1.3-0.8,2.8-0.6,4.3-0.7c2.5-0.1,4.9,0,7.4,0.1
		c0.3,0,0.6,0,0.9,0c-0.2,0.9-0.3,1.7-0.5,2.6c-2.4,0.7-4.8,1.3-7.4,1.2c-1.7-0.1-3.4-0.5-5.1-0.4c-1.1,0-2.2,0.6-3.3,1
		c-0.1,0-0.3,0.5-0.2,0.6c0.2,0.2,0.5,0.4,0.7,0.3c0.9-0.2,1.7-0.7,2.6-0.7c1.1-0.1,2.3,0.1,3.5,0.2c1.8,0,3.6,0,5.4,0
		c0.1,0,0.2,0,0.5,0v2.9c-1.2,0.2-2.6,0.5-4,0.5c-3.4,0-6.7-0.3-10.1-0.3c-1,0-2,0.5-3,0.9c-0.2,0.1-0.2,0.5-0.3,0.8
		c0.3,0.1,0.6,0.2,0.9,0.1c0.4-0.1,0.7-0.3,1.1-0.5c1.1-0.4,1.9-0.5,3,0.4c0.8,0.7,2.1,0.9,3.3,1.2c0.5,0.1,1.1,0.2,1.7,0.3
		c0.4,0.2,0.7,0.5,1,0.8c-0.1,0.2-0.3,0.3-0.4,0.5c-0.2,0.4-0.3,0.8-0.5,1.2c-0.1,0.1-0.2,0.3-0.3,0.4c-2.3-0.7-4.8-1-7.3-1.3
		c-0.1,0-0.3-0.1-0.4-0.1c-1.9-0.6-3.7-1.7-5.6-2.1c-3.5-0.7-6.6-2.3-9.6-4c-1.5-0.9-3.2-1.2-4.9-1.4c-0.9-0.1-1.9-0.1-2.8-0.4
		c-1.2-0.4-2.4-0.9-3.6-1.4c-3.8-1.6-7.7-2.8-11.8-3.7c-3.3-0.7-6.6-1.8-9.7-3.3c-1-0.5-2-1-3.1-1.3c-2.2-0.6-3.9-1.8-5.6-3.1
		c-1.3-0.9-2.5-1.9-3.8-2.6c-2.2-1.2-3.6-3.1-4.1-5.5c-0.2-1-0.3-2.1-0.2-3.1c0.4-3.3,0.9-6.6,1.5-9.9c0.3-1.6,0.7-3.1,1.2-4.6
		c0.7-2.1,1.4-4.2,2.1-6.4C7.7,127.4,8.2,128,8.8,128.4z"/>
	<path class="st0" d="M62.8,56.7c-0.8-0.2-1.6-0.2-2.3-0.4c-1.9-0.7-3.8-1.4-5.6-2.3c-1.3-0.7-1.3-1.4-0.1-2.2
		c1.6-1.1,3.3-2.1,5-3.1c0.5-0.3,1.2-0.3,1.9-0.4c0.6-0.1,1.3,0,1.8-0.2c1.8-0.5,3.3,0.2,4.8,1c0.8,0.5,1.5,1.2,2.3,1.8
		c0.6,0.5,0.5,1,0,1.5c-1.6,1.8-3.4,3.1-5.8,3.8C64.1,56.4,63.4,56.5,62.8,56.7z M56.1,53.4c0.7,0,1.5,0,2.2,0c0.1,0,0.2,0,0.3,0
		c2.9,0.1,5.8-0.3,8.7-0.7c0.7-0.1,1.3-0.3,2-0.5C66.7,50.2,58,50.8,56.1,53.4z M69.4,51c0.1,0,0.1-0.1,0.2-0.1
		c-0.4-0.3-0.7-0.5-1.1-0.8c-1.6-1.1-3.3-2-5.3-1.1c-0.3,0.1-0.7,0.1-1,0c-0.9-0.2-1.6,0-2.4,0.4c-0.8,0.4-1.6,0.7-2.3,1.2
		c-0.8,0.5-1.6,1-2.3,1.6c0,0.1,0.1,0.1,0.1,0.2c1-0.3,1.9-0.5,2.9-0.8c2.3-0.7,4.6-1.4,7.1-1.2C66.6,50.3,68,50.7,69.4,51z
		 M56.7,54.1c3.8,2.7,10.1,2.1,12.6-1.3C65.1,53.8,60.9,54.1,56.7,54.1z"/>
	<path class="st0" d="M65.5,38.9c0.5-0.7,1-0.7,1.5-0.2c1,0.9,1.5,2.1,1.1,3c-0.2,0.5-0.5,0.8-1.1,0.7c-1.1-0.1-2.1,0.3-2.8,1.2
		c-0.8,1-2.5,1-3.6,0.4c-0.8-0.5-1.6-0.8-2.6-0.6c-0.7,0.1-1.7,0.3-2.2-0.6c-0.5-0.8,0-1.6,0.3-2.4c0.1-0.2,0.2-0.4,0.3-0.5
		c0.2-0.2,0.4-0.3,0.6-0.4c0,0.3,0.1,0.6,0,0.9c-0.1,0.4-0.4,0.7-0.5,1.1c-0.2,0.7-0.1,1,0.7,1c0.5,0,1,0,1.5,0
		c0.8,0,1.6,0.1,2.3,0.6c0.9,0.7,1.9,0.2,2.7-0.4c0.9-0.7,1.7-1.2,2.8-1.1c0.6,0.1,1-0.6,0.7-1.2c-0.2-0.4-0.7-0.8-1.1-1.1
		C66,39.2,65.7,39.1,65.5,38.9z"/>
	<path class="st0" d="M79.5,31.3c-0.3,0.1-0.6,0.3-0.8,0.2c-1.9-0.6-3.8-1.3-5.7-1.8c-2.1-0.5-4.1,0.1-6,1c-0.3,0.1-0.9,0.2-1,0
		c-0.3-0.5,0-0.8,0.4-1c2.5-1.1,5.1-1.6,7.9-0.7c1.5,0.5,3.1,1,4.6,1.6c0.3,0.1,0.5,0.3,0.7,0.4C79.6,31,79.5,31.1,79.5,31.3z"/>
	<path class="st0" d="M57.2,31.6c-0.3,0.1-0.6,0.2-0.8,0.2c-1.2-0.2-2.4-0.6-3.5-0.5c-2.8,0.1-5.5,0.7-8,2.1c-0.2,0.1-0.6,0-0.9,0
		c0.1-0.3,0.2-0.7,0.4-0.8c1.5-0.7,3-1.4,4.5-1.8c1.6-0.4,3.2-0.5,4.9-0.5c0.9,0,1.8,0.3,2.8,0.5c0.2,0.1,0.4,0.3,0.7,0.5
		C57.2,31.4,57.2,31.5,57.2,31.6z"/>
	<path class="st0" d="M77.2,36.8c-1.3-0.2-2.5-0.4-3.6-0.5c-1.8-0.2-3.6-0.5-5.4-0.7c-0.2,0-0.5-0.1-0.6-0.2
		c-0.2-0.1-0.4-0.4-0.6-0.6c0.3-0.2,0.6-0.6,0.9-0.6c2.5,0.3,5,0.6,7.5,1c0.6,0.1,1.2,0.2,1.8,0.4c0.2,0.1,0.6,0.5,0.5,0.6
		C77.6,36.5,77.3,36.7,77.2,36.8z"/>
	<path class="st0" d="M46.4,38.5c-0.1-0.1-0.6-0.3-0.5-0.5c0-0.3,0.3-0.6,0.5-0.7c2.9-0.7,5.7-1.3,8.6-1.9c0.3-0.1,0.7,0.3,1.1,0.4
		c-0.3,0.3-0.5,0.6-0.8,0.7c-2.2,0.5-4.4,1-6.6,1.5C48,38.3,47.3,38.4,46.4,38.5z"/>
</g>
</svg>
