<?xml version="1.0" encoding="utf-8"?>
<!-- Generator: Adobe Illustrator 19.2.1, SVG Export Plug-In . SVG Version: 6.00 Build 0)  -->
<svg version="1.1" id="Layer_1" xmlns="http://www.w3.org/2000/svg" xmlns:xlink="http://www.w3.org/1999/xlink" x="0px" y="0px"
	 viewBox="0 0 486 486" style="enable-background:new 0 0 486 486;" xml:space="preserve">
<style type="text/css">
	.st0{fill:#1976D2;}
</style>
<g id="icon-child-wart">
	<path class="st0" d="M189.6,476.7c0.7,2.3,1.3,4.6,1.9,6.9h10.9c-4.8-28.3-20.7-51.8-38.6-74.2c-22-27.6-39.8-56.5-42.7-93
		c-1.1-13.1-6.5-25.9-9.5-38.9c-0.6-2.8-0.2-7.4,1.6-9c13.1-11,16.2-24.9,13.6-41.4c18,32.2,26.5,66.6,28.4,103.7
		c1.5-0.7,3.2-1.3,4.8-2.2c1.4-0.7,2.7-1.7,4.6-2.9c4.8,4.4,9.4,8.7,14,13c1.2-0.7,2.4-1.4,3.6-2.1c-3.3-5.4-6.9-10.7-9.9-16.3
		c-1.6-3.1-3.8-6.9-3.2-10c4.7-26.9,12.7-53.5,14.4-80.5c1.8-29.6-2.6-59.5-3.2-89.3c-0.7-30.6-0.2-61.3-0.2-91.5h34.2
		c0.3,3.4,0.8,7.6,1,11.8c1.6,40.1,2.9,80.2,4.8,120.2c0.4,8.1,1.5,16.8,5,23.8c2.4,4.9,9.5,9.6,14.8,10c3.1,0.2,7.8-7.7,10-12.8
		c2-4.7,1.6-10.4,2.1-15.7c0.9-10,8-13.6,16.3-15.8c8.4-2.2,14.2,2.3,16.2,9.5c3,11.3,4.3,23.1,6.3,34.6c0.8,5.1,1.4,10.3,2.1,15.5
		c1.8-0.1,3.6-0.1,5.4-0.2c0.7-3.8,0.9-7.7,2.1-11.2c2.9-8.5,5.1-17.6,9.8-25.1c5.2-8.4,21.3-5.8,24.1,4.1
		c3.3,11.6,4.8,23.8,6.1,35.8c1,9.3-0.5,18.9,1,28.1c0.8,4.9,5.5,9.1,8.5,13.6c1.4-0.8,2.8-1.5,4.2-2.3c-1.1-3.5-1.8-7.1-3.4-10.4
		c-3.6-7.8-2.4-14.7,4.6-19.5c7.8-5.3,13.9-0.1,17.4,5.9c3.7,6.5,6,14.2,7.4,21.7c5.5,30.7-3,60-9.7,89.5
		c-9.3,41.2-18.6,82.4-27.7,123.7h8.8c0.5-2.5,0.9-5,1.4-7.5c2.8-14.7,8.9-28.8,12.4-43.4c7-29.8,12.5-59.9,19.9-89.5
		c7.2-28.5,7.1-56.7,0.2-84.9c-4.9-20.1-19.3-27.3-38.6-20.7c0-8.2,0.2-16.4,0-24.5c-0.3-12.1-9-26.4-17.3-29.1
		c-12.1-3.9-21.7,0-32.2,13.4c-0.8-3.1-1.7-5.8-2.2-8.6c-2.7-17.7-11.1-25.8-26.8-25.4c-13.2,0.3-20.9,9.6-22.8,26.6
		c-0.8,6.6-2.6,13.1-4.1,20.4c-11.1-4-12.1-11.8-12.5-19.6c-2.7-49-5-98-8.1-146.9c-0.6-8.7-3.2-17.7-6.9-25.5
		c-5.2-10.9-18.8-13.9-26.4-4.9c-5.8,6.7-9.4,17-10.2,26c-1.6,19.4-1.1,39-0.9,58.5c0.3,29,0.8,57.9,1.6,86.9
		c1.1,36.5-0.1,72.7-15.1,108.9c-1.5-4.3-2.4-6.9-3.3-9.5c-5.7-15.7-10.3-31.9-17.4-46.9c-4-8.4-11.5-15.8-19-21.8
		c-9.1-7.4-23.7-1.6-24.4,9.7c-0.9,14.2-1.2,28.8,1.3,42.6c4.4,23.9,10.6,47.5,17.4,70.9c4.6,15.8,10,31.7,18,45.9
		c13.6,24,29.8,46.6,44.4,70.1C183.9,461.5,187.3,469,189.6,476.7z M198.1,13.8c7.3,0.2,15,10.9,15.1,21.1
		c0.1,7.2-4.7,10.3-15.9,10.4C188.9,46,182.5,43,181.9,34C181.2,24.8,190.8,13.6,198.1,13.8z M107.5,265.4
		c-7.7-9.3-5.6-33.7,4.7-47.4C124.6,239,123.3,250.7,107.5,265.4z"/>
	<path class="st0" d="M211,83c-4.6,3.9-8.8,10.5-13.7,11.1c-8.7,1.1-15.8-5-13.2-14.4c1.7-6.4,7.3-15.9,12.1-16.4
		C205.7,62.3,209.2,71,211,83z"/>
</g>
</svg>
