<?xml version="1.0" encoding="utf-8"?>
<!-- Generator: Adobe Illustrator 19.2.1, SVG Export Plug-In . SVG Version: 6.00 Build 0)  -->
<svg version="1.1" id="Layer_1" xmlns="http://www.w3.org/2000/svg" xmlns:xlink="http://www.w3.org/1999/xlink" x="0px" y="0px"
	 viewBox="0 0 179.5 200" style="enable-background:new 0 0 179.5 200;" xml:space="preserve">
<style type="text/css">
	.st0{fill:#BF360C;}
</style>
<g id="leg-child-main">
	<path class="st0" d="M179.5,163.5c-0.3-3.3-0.7-6.5-2-9.6c-1.3-3.2-3.1-6.1-6.9-6.9c-0.5-0.1-0.5-0.6-0.5-1c0.1-1,0.1-2,0.1-3.1
		c-0.1-2-0.2-4-0.4-5.9c-0.2-2.7-0.4-5.4-0.7-8.1c-0.2-2.3-0.5-4.5-0.7-6.8c-0.2-2-0.5-3.9-0.7-5.9s-0.4-3.9-0.7-5.9
		s-0.5-3.9-0.8-5.9c-0.3-1.9-0.6-3.8-1.1-5.6c-0.5-1.9-1.1-3.8-1.7-5.7c-0.2-0.6-0.5-1.3-0.3-1.8c0.4-1,0-1.6-0.3-2.4
		c-0.1-0.3-0.1-0.6-0.2-0.9c-0.3-1-0.5-2-1-2.9c-0.5-1-1.3-1.9-1.7-2.9c-0.8-2-1.4-4.1-2-6.2c-0.5-1.8-1.3-3.4-2.8-4.7
		c-0.7-0.6-1.3-1.3-1.9-2c-1.6-1.8-3.1-3.7-4.7-5.4c-0.9-0.9-2.1-1.6-3.1-2.5c-1.6-1.4-3.6-2-5.6-2.5c-2.7-0.7-5.3-1.7-7.9-2.8
		c-2.3-0.9-4.5-2-6.7-3c-1-0.5-2.1-0.9-2.7-1.7c-1.2-1.5-2.2-3.1-3.1-4.8c-0.8-1.6-0.4-3.4-0.3-5.1c0-0.7,0.4-1.2,1-1.5
		c0.3-0.1,0.5-0.4,0.7-0.7c1.6-1.6,1.8-3.8,2.5-5.8c0.6-1.7,0.8-3.5,0.5-5.3c-0.1-0.9,0.2-1.3,0.8-1.8c1.1-0.7,2.2-1.5,3.2-2.4
		c1-0.9,2-2,2.2-3.4c0.4-2.4,0-4.8-1-7.1s-2.4-4.2-4.5-5.6c-1.5-1-2.9-1.6-4.6-1.3c-0.3,0.1-0.6,0.2-1,0.2c-1.1-0.1-2.3-0.1-3.3-0.6
		c-1.6-0.8-3.1-2-4.5-3.1c-2.4-1.9-5.1-2.9-8-3.1c-3.1-0.2-6.2,0.1-9.2,0.3c-1.4,0.1-2.8,0.3-4.2,0.4c-2.3,0.2-4.6,0.2-6.6,1.5
		c-0.6,0.4-1.1,0.8-1.7,1c-2.8,1.2-4.9,3.2-7,5.3c-2.1,2.2-3.4,4.9-4.5,7.7c-1.2,3.2-2.2,6.6-3.2,9.9c-0.2,0.6-0.4,1.3-0.4,2
		c0,0.9,0.1,1.8,0.3,2.7c0.3,1.3,0.6,2.6,1,3.9c0.4,1.3,1.1,2.6,1.4,3.9c0.4,1.3,1,2.4,1.9,3.3c0.6,0.5,1.1,1.1,1.7,1.6
		c0.7,0.6,0.9,1.2,1,2.1c0.1,1.5,0.3,2.9,0.4,4.4c0.3,2.4,1.4,4.4,3.1,6.1c1.7,1.7,3.6,3.3,5.8,4.3c0.3,0.2,0.6,0.5,0.8,0.9
		c0.5,0.9,1,1.8,1.4,2.8c0.4,0.7,0.7,1.4,1.1,2.2c0.3,0.6,0.5,1.2,0.9,1.7c0.5,0.7,1.1,1.3,1.5,1.8c-0.7,0.9-1.3,1.8-2.1,2.5
		c-3.1,2.8-4.9,6.3-5.6,10.4c-0.3,1.9-0.6,3.9-0.9,5.8c-0.1,0.6-0.3,1-1,1.2c-1.9,0.7-3.9,1.5-5.3,3.1c-0.9,1-2,1.9-2.7,3
		c-1.4,2.2-2.6,4.4-3.8,6.7c-1.1,2.2-2,4.5-3.3,6.5c-2.8,4.5-5.7,9-8.1,13.7c-1.4,2.7-3.1,5.2-4.2,8c-0.6,1.5-1.5,2.9-2.3,4.3
		c-0.4,0.7-1,1.3-1.2,2.1c-0.7,1.9-1.3,3.9-1.9,5.8c-0.3,1-0.4,1.1-1.4,1c-1.3-0.2-2.3,0.2-3,1.3c-0.4,0.8-0.8,1.6-1,2.4
		c-0.3,1.7-1.1,3.1-2.3,4.3c-1.2,1.1-2.4,2.4-3.6,3.6c-1.9,1.9-1.9,4.2-0.1,6.2c0.4,0.4,0.7,1.2,0.6,1.6c-0.3,1-0.8,2-1.4,2.7
		c-1.5,1.7-3.1,3.2-4.7,4.8c-2,1.9-3.9,3.9-6,5.8c-1.6,1.5-3.3,2.9-5,4.2c-1.8,1.4-3.7,2.8-5.7,3.9c-2.9,1.5-5.9,2.6-8.8,3.9
		c-0.2,0.1-0.5,0.2-0.8,0.2c-0.8-0.1-1.1,0.5-1.5,1c-0.2,0.3-0.3,0.7-0.5,0.9c-1.1,1.4-1.3,3-1.2,4.7c0,0.5,0.1,1.1,0.4,1.5
		c0.9,1.4,2.1,2.7,3.9,2.9c2.1,0.2,4.3,0.4,6.4,0.2c3.1-0.3,6.1-0.8,9.2-1.3c2.4-0.4,4.7-1,6.7-2.4c0.7-0.5,1.2-0.4,1.8,0.1
		c0.9,0.9,2.1,1.3,3.3,1.6c0.6,0.2,1.3,0.4,1.9,0.6c0.8,0.2,1.5,0.6,2.3,0.7c1.7,0.2,3.4,0.2,5.1,0.3c2.2,0.1,4.4,0.2,6.6,0.2
		c2.4,0,4.7-0.3,7.1-0.2c4.7,0.1,9.3-0.1,13.8-1.2c0.5-0.1,1-0.1,1.5-0.2c2.7-0.2,5.4,0.1,8-0.8c0.8-0.3,1.6-0.5,2.4-0.9
		s1.6-1,2.5-1.2c2.2-0.6,4.3-0.9,6.5-1.4c1.2-0.2,2.5-0.2,3.6-0.7c2.7-1.2,5.6-1.3,8.5-1.6c2.3-0.2,4.6-0.5,7-0.7
		c1.6-0.2,3.2-0.3,4.8-0.6c2-0.3,3.9-0.8,5.9-1.2c0.9-0.2,1.8-0.5,2.7-0.7c1.4-0.3,2.8-0.4,4.1-0.9c1.8-0.7,3.6-1.1,5.4-1.4
		c1.4-0.2,2.8-0.7,4.2-0.8c2.7-0.3,5.4-0.5,8.1-0.9c1.6-0.2,3.2-0.6,4.6-1.6c0.6-0.5,1.3-0.7,2.1-0.3c0.4,0.2,0.9,0.1,1.4,0.1
		c0.9,0,1.8-0.2,2.7-0.1c2.6,0.2,4.9-0.8,7.1-1.7c2.4-1,4.2-2.8,5.9-4.7c0.8-0.9,1.7-1.5,2.7-2c2.8-1.3,5.4-3,7.4-5.5
		C178.8,167,179.7,165.5,179.5,163.5z M150.5,69.9c1.7,1.2,3.4,2.6,4.8,4.1c0.8,0.9,1,2.3,1.4,3.5c0.7,2.1,1.4,4.3,2.2,6.4
		c0.2,0.7,0.8,1.2,1.2,1.8c0.6,0.9,0.6,1.4-0.1,2.3c-0.9,1.2-2.1,1.8-3.5,2c-2,0.4-4,0.7-5.9,1.1c-0.2,0-0.4,0.1-0.6,0.1
		c-1.2,0.1-1.4-0.1-1-1.2c0.7-2,1.5-4,2.3-5.9c0.2-0.5,0.1-1-0.3-1.2c-0.2-0.1-0.8,0.2-0.9,0.4c-1.4,2.1-2.3,4.3-3,6.7
		c-0.9,3.6-1.5,7.2-1.9,10.9c-0.1,1-0.5,2-0.7,3c0,0.2-0.1,0.3-0.1,0.5c0.1,2.3-1.1,4.3-1.4,6.5c-0.2,1.5-0.4,3-0.7,4.4
		c-0.4,1.9-0.8,3.7-1.2,5.6c-0.5,2-1.1,4.1-1.8,6.1c-0.6,1.7-1.4,3.4-2.1,5.1c-0.3,0.7-0.4,1.5-0.6,2.3c-0.4,1.8-0.9,3.6-1.3,5.5
		c-0.5,2.2-2.2,3.6-3.7,5.1c-0.6,0.6-1.4,0.9-2.2,1.3c-1.1,0.5-2.2,1.1-3.3,1.5c-0.8,0.3-1.7,0.5-2.5,0.7c-0.3,0.1-0.7,0.2-0.9,0.4
		c-1.6,1.3-3.5,1.5-5.4,1.8c-3.1,0.5-6.2,0.9-9.3,1.1c-3.6,0.2-7.2-0.1-10.8,0.1c-3.5,0.1-6.9,0.4-10.2,1.5c-2.5,0.8-4.9,2-7,3.6
		c-0.9,0.7-1.6,1.6-2.3,2.6c-1.8,2.4-4,4.4-6.4,6c-1,0.7-2.2,1.1-3.3,1.6c-0.8,0.3-1.3-0.2-1.8-0.7c-0.1-0.1,0-0.5,0.2-0.6
		c1.1-0.6,2.2-1.1,3.3-1.6c0.1,0,0.2,0,0.2-0.1c0.2-0.3,0.5-0.7,0.7-1c-0.4,0-0.9-0.2-1.2-0.1c-1.1,0.5-2.2,1.1-3.3,1.7
		c-0.1,0.1-0.3,0.2-0.4,0.2c-1-0.6-1.8,0.3-2.7,0.4c-0.3,0-0.5-0.1-0.8-0.1c0.1-0.3,0.2-0.6,0.4-0.8c1.5-0.8,3-1.6,4.5-2.4
		c0.4-0.2,0.8-0.4,1.1-0.7c0.1-0.1,0.1-0.6,0-0.8c-0.1-0.1-0.5-0.2-0.7-0.1c-1.8,1-3.5,2-5.2,3c-0.7,0.4-1.5,1-2.4,0.7
		c-0.3-0.1-0.7-0.4-0.8-0.7c0-0.2,0.3-0.7,0.6-0.8c2.2-1.1,4-2.6,5.2-4.8c0.1-0.3,0.3-0.5,0.6-0.7c0.4-0.3,0.5-0.7,0.1-1
		c-0.5-0.4-0.8-0.1-1,0.3c-0.4,0.6-0.9,1.2-1.3,1.8c-1.2,1.7-2.9,2.9-4.7,3.8c-1.6,0.9-4.3,0.2-5-1.3c-0.4-0.8-0.2-2-0.1-2.9
		c0-0.5,0.5-0.6,1-0.3c1.5,0.8,2.1,0.6,3.2-0.6c2.5-2.6,5-5.2,7.6-7.7c0.4-0.4,1.1-0.7,1.6-1.1c0.2-0.2,0.3-0.6,0.4-0.8
		c-0.3,0-0.7-0.1-0.9,0.1c-1.7,1.3-3.3,2.7-4.9,4.1c-0.2,0.2-0.6,0.3-0.7,0.2c-0.8-0.4-1.5-0.3-2.3,0.1c-0.1,0.1-0.2,0.1-0.3,0.1
		c-1.2,1.2-2.5,0.7-3.8,0.2c-0.5-0.2-1.1-0.4-1.6-0.6c-0.6-0.3-0.8-0.7-0.3-1.2c0.3-0.3,0.7-0.5,1.1-0.7c2.4-0.7,4.9-1.3,7.3-2.1
		c2.6-0.9,5.2-1.9,7.8-2.9c1.1-0.4,2.1-1.1,3.2-1.5c0.7-0.3,1.5-0.8,2.4-0.3c0.3,0.2,1-0.2,1.5-0.3c2.1-0.5,4.2-1.2,6.3-1.5
		c2.4-0.4,4.9-0.4,7.4-0.6c0.3,0,0.6,0,0.8,0.1c1.5,0.8,3.1,0.6,4.7,0.5c3.5-0.3,7.1-0.6,10.6-1.1c1.5-0.2,3-0.9,4.5-1.4
		c3.4-1,6.8-1.9,9.8-3.7c0.7-0.4,1.5-0.8,2.2-1.3c1.5-0.9,2-2.5,2.3-4.1c0.3-1.7,0.6-3.3,0.9-5c0.2-1.2,0.4-2.5,0.6-3.7
		c-0.1,0-0.1,0-0.2,0c0.2-1.3,0.5-2.6,0.6-4c0.4-3.9,0.8-7.7,1.2-11.6c0.2-2.2,0.6-4.3,0.9-6.5c0.1-1.1,0.2-2.1,0.4-3.2
		c0.3-2-0.7-3.5-1.9-4.9c-0.6-0.7-0.8-1.2-0.6-2.1c0.3-1.8,0.3-3.6,0.5-5.3c0.2-1.6,0.4-3.2,0.7-4.8c0.5-2.8,2.1-5.1,3.6-7.4
		c1.4-2.2,3.5-3.6,6-4.4c0.4-0.1,0.9-0.1,1.4-0.1c1.1-0.1,2.2-0.2,3.3-0.3c1.5-0.2,2.8,0.3,4.1,1.1C147.3,68,149,68.8,150.5,69.9z
		 M119.2,165.7c0.4,1-0.3,1-1,1.2c-1.5,0.6-2.7,0.1-4-0.8c-2.9-1.8-5.4-4.2-7.8-6.6c-0.5-0.6-1.1-1.1-1.7-1.6
		c-1-1.1-1.9-2.2-2.8-3.3c-0.1-0.1-0.2-0.3-0.2-0.5c-0.2-0.7-0.1-0.9,0.7-0.9c2,0,4,0.1,6-0.1c3.1-0.2,6.2-0.6,9.4-1
		c1.3-0.2,2.6-0.6,4.2-0.9c-0.3,1.8-0.5,3.5-0.8,5.1c-0.4,2.2-0.8,4.4-1.2,6.6c-0.2,0.8-0.4,1.6-0.6,2.4
		C119.3,165.5,119.2,165.6,119.2,165.7z M47.8,172.4c-0.1-1.9-0.4-3.8-1-5.7c-0.6-2.1-1.6-4.1-2.4-6.2c-0.3-0.6-0.1-0.9,0.4-1.2
		c0.5-0.2,1-0.3,1.5-0.4c0.9-0.2,1.9-0.3,2.8-0.5c0.8-0.1,1.6-0.2,2.4-0.3c0.2,0,0.5,0.3,0.6,0.6s0,0.6,0,0.9c0,1.9,1.4,3.5,3.2,3.7
		c0.4,0.1,0.8,0,1.1,0.1c0.2,0,0.5,0.1,0.7,0.3c0.1,0.1,0,0.5-0.2,0.6c-1.7,2.9-3.6,5.8-5.1,8.8c-0.7,1.3-0.7,2.9-1,4.4
		c-0.2,0.9-0.2,0.9-1,0.6c-0.6-0.3-1.2-0.4-1.8-0.5c-0.5-0.1-0.7-0.4-0.5-0.8C48.1,175.4,47.9,173.9,47.8,172.4z M58.4,153
		c0.9-0.6,0.9-0.6,1.5,0C59.3,153.7,58.9,153.7,58.4,153z M76.3,140.6c1-2,1.9-3.8,2.9-5.6c1.2-2.3,2.4-4.5,3.5-6.8
		c0.3-0.6,0.3-1.2,0.5-1.8c0.1-0.2,0.2-0.3,0.3-0.5c0.1,0.1,0.3,0.2,0.4,0.4c1.6,3.4,3.2,6.8,4.7,10.1c0.3,0.7,0.5,1.5,0.8,2.4
		c-0.5,0.1-1,0.1-1.4,0.2c-1.8,0.2-3.6,0.4-5.3,0.6c-1.3,0.2-2.5,0.3-3.8,0.5c-0.5,0.1-1,0.4-1.5,0.5
		C77.1,140.6,76.7,140.6,76.3,140.6z M117.8,9.1c0.2-0.2,0.6-0.4,0.8-0.3c0.5,0.3,1.1,0.7,1.4,1.1c1.3,2,1.9,4.3,2.6,6.6
		c0.4,1.2,0.6,2.4,0.9,3.6c0.1,0.2,0.1,0.4,0.2,0.7c0,1.1,0,2.3,0,3.5c0,0.7-0.3,1.2-1,1.3c-0.7,0.1-1-0.5-1.1-1
		c-0.1-0.7-0.1-1.4-0.1-2.1c-0.1-0.8-0.3-1.6-0.4-2.4c-0.3-2.9-1.1-5.7-2.5-8.3c-0.3-0.6-0.6-1.2-0.9-1.8
		C117.6,9.6,117.7,9.2,117.8,9.1z M76.8,52.9c-0.1,0-0.3,0-0.4,0.1c-0.3-0.7-0.6-1.4-0.8-2.1c-0.2-1-0.4-2-0.6-3
		c-0.2-1.1,0.7-0.8,1.2-1c0.7-0.1,0.5,0.5,0.5,0.8C76.8,49.5,76.8,51.2,76.8,52.9z M75,44.5c0.8,0.1,1.7,0.8,1.5,1.1
		c-0.3,0.3-0.8,0.3-1.4,0.5C75,45.5,75,45,75,44.5z M82.9,59.5c0-0.1-0.1-0.2-0.1-0.3c1.6-1.2,3.5-1,5.3-1.4c0,0.1,0,0.1,0.1,0.2
		C86.5,58.5,84.7,59,82.9,59.5z M84.1,60c0.9-0.3,1.7-0.7,2.5-1l0.1,0.1c-0.7,0.4-1.3,0.8-2.1,1.3C84.5,60.3,84.3,60.2,84.1,60z
		 M85.7,62.1c-0.2-0.3-0.5-0.6-0.6-0.9c1.5-1,2.9-1.9,4.3-2.9c0.1,0,0.1,0.1,0.2,0.1C88.7,60.2,87.1,61,85.7,62.1z M88.6,68
		c-1-1-1.2-2.3-1.8-3.5v-0.1c-0.6-1.5-0.5-1.4,0.7-2.4c1.5-1.3,3-2.6,3.7-4.6c0.2-0.4,0.4-0.9,0.7-1.5c-0.3,0.1-0.6,0-0.7,0.1
		c-1.3,0.8-2.8,1.1-4.3,1.2c-1.5,0.2-3.1,0.4-4.5,1.2c-0.1,0.1-0.5,0-0.6-0.1c-0.5-0.4-1-0.9-1.5-1.3c0.4-1.1,1.3-1.4,2.3-1.6
		c1.3-0.3,1.7-1,1.4-2c-0.1-0.3-0.4-0.6-0.7-0.7c-0.2-0.1-0.6,0.2-0.8,0.3c0.1,0.2,0.2,0.5,0.4,0.7c0.1,0.1,0.1,0.1,0.4,0.3
		c-0.4,0.2-0.7,0.3-0.9,0.5c-0.8,0.3-1.5,0.7-2.3,0.9c-0.4,0.1-1,0.3-1.3,0.1c-0.7-0.4-1.1-1.1-1-2c0.1-2.1,0.2-4.2,0.3-6.3
		c0-2.4-1.1-4.2-3.4-4.6c-1.5-0.3-2.2-1.2-3.1-2.2c-0.2-0.2-0.4-0.6-0.3-0.8c0.4-1.1-0.2-1.9-0.6-2.8c-0.8-1.9-1.8-3.8-2.1-5.9
		c-0.3-2,0.8-3.9,2.6-4.6c0.8-0.3,1.5-0.8,2.3-0.9c1.5-0.1,2.9-0.2,4.4,0c0.6,0.1,1.2,0.7,1.8,1c0.6,0.4,1.2,0.9,1.7,1.3
		c0.3,0.3,0.5,0.6,0.8,0.9c1,0.9,2,1.8,3.1,2.7c0.7,0.5,1.5,0.9,2.3,1.2c1.2,0.5,2.3,0.9,3.5,1.3c0.7,0.2,1.3,0.4,2,0.6
		c2.7,1.1,5.4,1.3,8.1,0.5c2.2-0.7,4.3-1.5,6.4-2.4c0.8-0.3,1.4-1,2.1-1.6c1.2-1,2.4-2,4-1.9c0.7,0,1.5,0.4,2,0.8
		c1,0.8,1.7,1.9,1.7,3.2c0.1,1,0.4,1.9,0.4,2.9c0.3,4.2-1.6,6.8-5.2,8.6c-1.1,0.6-2.4,0.6-3.6,0c-0.2-0.1-0.4-0.3-0.6-0.5
		c-0.1-0.8,0.9-1.9,1.4-2.5c0,0,0.1,0,0.1-0.1c0.3-0.2,0.6-0.4,0.9-0.7c0.6-0.6,1.2-1.1,2.1-1.2c1.5-0.1,3.1-3,1.9-4.1
		c-0.7-0.7-1.7-1.1-2.6-1.6c-0.4-0.2-0.8-0.2-0.9-0.7c-0.1-0.6,0-1,0.5-1.4c1.3-0.8,2.3-0.5,3.1,0.8c0.6,1,0.5,2.1,0.7,3.2
		c0.2,1.2,0,2.3-0.8,3.3c-0.5,0.6-0.9,1.2-1.2,1.8c-0.1,0.2,0.1,0.5,0.1,0.8c0.2-0.1,0.6-0.1,0.7-0.3c0.5-0.7,1-1.5,1.5-2.3
		s0.8-1.6,0.7-2.5c-0.1-0.7,0-1.3-0.1-2c-0.1-1.9-0.9-3.7-2.5-4c-0.3-0.1-0.7-0.3-1-0.2c-0.7,0.3-1.3,0.6-1.9,1
		c-0.8,0.5-1.3,2-0.9,2.9c0.1,0.2,0.4,0.3,0.6,0.4c0.8,0.2,1.6,0.3,2.3,0.6c0.7,0.3,1.2,0.8,1.1,1.6c-0.2,1.1-0.8,1.7-1.8,1.8
		c-0.8,0.1-1.5,0.3-2,1.1c-0.1,0.2-0.3,0.3-0.5,0.4c-0.1,0-0.2-0.1-0.3-0.1v-2.9c-0.7,0-1,0.4-1.1,0.8c-0.1,1-0.1,1.9,0,2.9
		c-0.6,1-1.7,2.1-1.5,3.3c-0.1,0.5,0.2,0.9,0.8,1.3c1.5,0.8,3,1.1,4.6,0.4c1.5-0.7,3-1.4,4.1-2.6c0.1-0.1,0.2-0.2,0.4-0.3
		c0,0,0.1,0,0.2,0c0,0.1,0.1,0.2,0.1,0.3c-0.3,2.3,0.4,4.3,1.8,6.2c0.4,0.5,0.7,1.1,1,1.7c0.9,1.8,2.4,2.5,4.2,3.2
		c2.5,1,4.9,2.1,7.3,3.1c0.8,0.3,1.6,0.6,2.4,0.8c0.8,0.3,1.6,0.4,2.3,0.8c1.2,0.6,2.5,1,3.8,1.2c1.4,0.2,2.7,0.8,3.9,1.7
		c1,0.8,2.1,1.4,3.1,2.2c0.4,0.3,0.8,0.8,1.3,1.3c-0.4,0-0.5,0-0.6,0c-1.8-1.1-3.7-1.8-5.7-2.1c-0.9-0.1-1.9-0.2-2.8,0
		c-2.7,0.4-5.3,1.3-7.6,2.7c-0.6,0.4-1.2,0.9-1.6,1.6c-0.6,0.9-1.5,1.3-2.4,1.6c-1.7,0.7-3.5,1.4-5.3,2c-1.4,0.5-2.8,0.9-4.3,0.6
		c-0.7-0.1-1.5,0.2-2.2,0.3c-0.5,0.1-0.9,0.2-1.4,0.2c-0.8,0-1.4,0.3-1.4,1c0,0.2,0.1,0.6,0.2,0.7c0.2,0.1,0.5,0,0.7-0.1
		c1.5-0.8,3-1.2,4.7-1.1c1.4,0.1,2.9-0.3,4.2-0.7c1.4-0.4,2.6-1,4-1.6c0.3-0.1,0.6-0.2,1.1-0.1c-0.3,0.5-0.6,1-0.8,1.5
		c-0.7,1.7-1.4,3.3-2,5c-0.7,1.9-0.7,3.9-0.5,5.9c0.2,1.8-0.3,3.6-0.4,5.3c-0.1,2-1.1,3.6-2.2,5c-1.3,1.8-3.1,3-5.4,3.6
		c-2.4,0.6-4.7,0.2-7-0.1c-1.9-0.3-3.7-1.1-5.4-2c-2-1.1-3.8-2.5-5.6-3.8c-1.5-1.1-2.3-2.7-2.9-4.3C95,84.7,94.3,82.9,94,81
		c-0.5-2.9-1.2-5.8-1.1-8.7c0-1.2-0.1-2.3-0.1-3.5c0-0.3,0.1-0.6,0.3-0.8c1-0.7,2.1-1.4,3.2-2.2c0.2-0.2,0.5-0.3,0.8-0.4
		c1-0.7,1.1-0.7,1.8,0.3c1.1,1.4,2,2.9,3.1,4.3c0.3,0.4,0.6,0.9,1,1.3c0.2,0.2,0.4,0.2,0.7,0.3c0-0.2,0-0.5-0.1-0.7
		c-1.4-2-2.8-4-4.3-5.9c-0.4-0.5-0.4-0.8,0.2-1.1c4.1-2.3,6.8-5.9,9.2-9.8c1.1-1.8,1-3.6,0.9-5.5c0-0.3-0.2-0.5-0.4-0.8
		c-0.1,0-0.2,0-0.3,0c-0.1,0.3-0.3,0.7-0.3,1c0.2,2.2-0.3,4.2-1.7,5.9c-1,1.3-1.8,2.8-3,4c-2.3,2.5-5,4.5-7.8,6.3
		c-1.7,1.1-3.5,2.1-5.3,3.1C90.2,68.9,89.3,68.7,88.6,68z M116.3,121.4c-0.1,0-0.3,0.1-0.4,0.1c-0.2-0.2-0.3-0.3-0.5-0.5
		c-2-2.7-4-5.3-6-7.9c-0.9-1.1-2-2-2.9-3c-0.6-0.6-1-1.4-1.5-2.1c-0.3-0.4-0.5-0.8-0.8-1.1c-1.5-1.7-3.1-3.4-4.6-5.1
		c-0.7-0.8-1.5-1.6-1.9-2.6c-0.3-0.9-0.2-2-0.2-3c0-0.4,0.3-0.8,0.5-1.1c0.3-0.4,0.7-0.3,1.1,0c1.9,1.4,3.5,3.1,4.8,5.2
		c1.1,1.8,2.5,3.3,3.8,4.9c1.4,1.9,2.9,3.8,4.3,5.7c0.4,0.5,0.8,1,1.2,1.5c1.4,1.8,2,4,2.7,6.2C116.1,119.5,116.1,120.5,116.3,121.4
		z M81.8,88.3c0.4-3.8,0.9-7.7,2.8-11.2c0.7-1.3,1.7-2.4,2.7-3.5c0.7-0.8,1.5-1.6,2.3-2.4c0.1-0.2,0.4-0.2,0.6-0.3
		c0.1,0.2,0.2,0.4,0.2,0.6c0,2.1-0.1,4.3,0,6.4c0.2,2.9,0.5,5.7,1.7,8.4c0.4,1,0.6,2,0.9,3.1c0.6,1.8,1.8,3.2,3.2,4.4
		c0.4,0.4,0.6,0.6-0.1,0.9c-0.2,0.1-0.2,0.5-0.4,0.9c-0.1,0-0.3-0.1-0.3-0.1c-0.4-0.9-1.3-0.9-2.1-1.2c-1.6-0.7-3.2-1.4-4.7-2.3
		c-1.7-0.9-3.5-1.1-5.3-1.6c-0.5-0.1-1.1-0.2-1.5-0.5C81.2,89.4,81.8,88.8,81.8,88.3z M45.9,147.6c0.6-1,1.2-2,1.7-3
		c0.2-0.3,0.4-0.7,0.5-1.1c0.1-2,1-3.8,1.7-5.7c0.4-1,1.1-1.8,1.7-2.7c0.5-0.9,1.2-1.8,1.6-2.8c1.1-2.8,2.5-5.4,4.1-8
		c2-3.5,3.9-7,5.9-10.5c1.1-1.9,2.4-3.8,3.6-5.7c0.5-0.8,0.9-1.6,1.3-2.5c1.1-2.2,2.2-4.4,3.2-6.6c0.6-1.4,1.4-2.6,2.6-3.7
		c1-0.9,1.8-2,2.9-2.8c0.8-0.6,1.9-0.7,2.8-1.1c1.8-0.8,3.3,0.1,5,0.4c2.3,0.4,4.3,1.7,6.3,2.7c0.7,0.4,1.4,0.9,2.2,1.2
		c1.7,0.8,2.6,2.4,3.6,3.8s1.9,2.8,2.9,4.2c0.1,0.2,0.2,0.3,0.4,0.4c1,0.6,1.8,1.5,2.5,2.5c0.7,1.1,1.5,2.2,2.3,3.2
		c0.5,0.7,1.1,1.3,1.7,1.8c2.1,1.8,3.6,4,5.2,6.2c0.8,1,1.6,2.1,2.3,3.2c1,1.5,1.9,3.1,2.8,4.6c0.8,1.4,1.6,2.8,2.4,4.2
		c0.4,0.8,0.6,1.6,1,2.5c-0.6,0.3-1,0.7-1.5,1c-3.1,1.9-6.7,2.6-10.1,3.8c-4.1,1.5-8.4,1.9-12.7,2.2c-0.7,0-1.3,0.1-2,0
		c-1.5-0.2-2-1.3-2.6-2.5c-1.1-2.5-2.3-5-3.5-7.5c-1-2.1-2-4.3-3-6.4c-0.2-0.4-0.5-0.7-0.8-1c-0.3,0.3-0.8,0.6-0.9,1
		c-0.3,0.8-0.5,1.6-0.8,2.4c-0.5,1.2-0.9,2.4-1.5,3.5c-1.9,3.6-3.8,7.2-5.7,10.8c-0.5,1-1.3,1.6-2.3,1.6c-1.3,0.1-2.4,0.8-3.5,1.4
		c-1.8,0.8-3.5,1.7-5.3,2.4c-1.7,0.7-3.6,1.1-5.4,1.6c-1.9,0.6-3.9,1.2-5.8,1.8c-0.9,0.3-1.5,0.9-1.4,1.9c0.1,0.5-0.2,0.7-0.7,0.4
		c-1.3-0.7-2.7-1.4-4.1-2.1C45.7,148.6,45.5,148.2,45.9,147.6z M48.5,154.3c0.1,0,0.2,0.2,0.4,0.4c-0.1,0.1-0.3,0.3-0.4,0.3
		c-1.4,0.4-2.8,0.7-4.2,1.1c-0.6,0.1-1.3,0.2-1.9,0.3c-0.1,0-0.4-0.4-0.3-0.5c0.5-1.1,1-2.1,1.5-3C45.3,153.3,46.9,153.8,48.5,154.3
		z M42.4,147.8c0.3-1,0.5-2,1.6-2.5c0.3-0.1,0.7,0,1.1,0c0,0.3,0,0.7-0.1,1c-0.4,1-0.8,2-1.2,3.1c-0.1,0.3-0.3,0.5-0.5,0.9
		C42.3,149.5,42.1,148.9,42.4,147.8z M35.2,159c0.1-1.4,0.8-2.3,1.6-3.1c0.3-0.3,0.6-0.5,0.9-0.7c0.5-0.5,1-0.8,1.7-0.1
		c0.1,0.1,0.5,0,0.8,0c0-0.3,0-0.6-0.1-0.8c-0.7-1-0.7-1,0.2-1.9c0.4-0.4,0.9-0.9,1.3-1.3c0.3-0.3,0.5-0.4,0.9-0.1
		c0.3,0.3,0.4,0.5,0.2,0.9c-0.9,1.5-1.7,3-2.5,4.6c-0.7,1.4-1.5,2.8-2.3,4.2c-0.6,0.9-0.8,0.9-1.5,0.1
		C35.8,160.2,35.1,159.7,35.2,159z M17.6,183c2.2-1.2,4-2.9,5.8-4.5c1.2-1.1,2.3-2.2,3.6-3.3c1.9-1.6,3.5-3.5,5.1-5.3
		c0.8-0.9,1.8-1.7,2.8-2.6c1.4-1.3,2.5-2.7,3-4.6c0.2-0.6,0.7-1.2,1.1-1.8c0.1-0.1,0.6,0,0.8,0.1c1.3,1.1,2.1,2.6,2.6,4.2
		c0.5,1.6,1.1,3.1,1.6,4.7c0.2,0.7,0.4,1.5,0.5,2.3c0.1,1.5,0.1,2.9,0.2,4.4c0,0.7-0.4,0.8-1,0.9c-2.7,0.5-5.5,0.9-8.1,1.8
		c-1.9,0.6-3.6,1.7-5.1,3.1c-0.5,0.4-1.3,0.5-2,0.6c-1.7,0.2-3.4,0.4-5,0.6v-0.1c-1.4,0.1-2.8,0.2-4.3,0.2c-0.5,0-1,0-1.5-0.2
		C17.3,183.6,17.3,183.3,17.6,183z M26.5,191.5c0.4,1.7-0.1,2.5-1.4,3.2c-3.1,1.9-6.6,2.4-10.1,2.8c-1.8,0.2-3.5,0.6-5.2,0.8
		c-0.8,0.1-1.7,0-2.5,0c-1.4,0-2.7,0.2-4-0.6c-2.2-1.4-2.7-4.7-0.8-6.5c1.3-1.2,2.9-2,4.6-2.7c2-0.7,3.9-1.6,5.8-2.5
		c0.9-0.4,1.7-1.1,2.6-1.5c0.3-0.1,0.7-0.1,1-0.1c0.8,0.1,1.6,0.5,2.3,0.5c2.7-0.1,5.5-0.2,8.2-0.4c0.3,0,0.6-0.2,0.9-0.2
		c0.2,0,0.5,0,0.6,0.1s0.1,0.4,0,0.6c-0.4,0.7-0.7,1.5-1.3,2.1C26,188.6,26.2,190,26.5,191.5z M47.4,198c-2.7-0.1-5.4-0.2-8.1-0.2
		c-0.1,0-0.2,0-0.3,0c-1.9,0.5-3.7-0.4-5.4-0.9c-0.6-0.2-1.2-0.4-1.9-0.5c-1.7-0.3-2.7-1.5-3.6-2.8c-0.1-0.1-0.2-0.3-0.2-0.4
		c-0.1-1-0.4-2-0.4-3.1c0-0.6,0.1-1.2,0.5-1.7c1.1-1.6,2.2-3.4,3.5-4.8c1.7-1.8,3.9-2.9,6.3-3.4c1.9-0.4,3.9-1,5.8-1.1
		c2.3-0.1,4.6-0.2,6.8,1c1.7,0.9,3.7,0.8,5.6,0.7c0.3,0,0.7-0.1,1-0.2c0,0.1,0.1,0.2,0.1,0.3c-0.5,0.3-1.1,0.5-1.6,0.8
		c-2.4,1.3-5,2.6-7.3,4.1c-1.9,1.2-2.9,3.2-3,5.5c0,0.8-0.1,1.5,0,2.3c0.1,1.7,1,2.9,2.4,3.9c0.2,0.2,0.4,0.3,0.6,0.7
		C47.9,197.9,47.6,198,47.4,198z M79.3,191c-1.3,1.2-2.6,2.5-3.8,3.7c-0.1,0.1-0.2,0.1-0.2,0.2c-0.1,1.1-0.9,0.9-1.6,0.8
		c-2.6-0.3-5.1,0.3-7.6,0.8c-0.8,0.2-1.7,0.1-2.5,0.2c-1.5,0.2-3.1,0.6-4.6,0.7c-1.7,0.2-3.5,0.2-5.2,0.3c-0.2,0-0.4,0-0.5-0.1
		c-0.8-0.8-1.9-0.8-2.9-0.8c-1.4-0.1-2.4-0.8-3.4-1.7c-0.3-0.3-0.6-0.7-0.6-1.1c0-1.4,0-2.8,0.2-4.2s1.2-2.4,2.3-3.1
		c2.6-1.6,5.3-3,8.1-4.4c1.5-0.8,3.2-1,5-1.1c2.4-0.1,4.8-0.3,7.2-0.6c1-0.1,1.6,0.1,2.3,0.9c1,1.1,2.2,2,3.3,3
		c1.9,1.7,3.8,3.5,5.7,5.2c0,0.2,0.1,0.3,0.1,0.5C80.2,190.4,79.7,190.6,79.3,191z M62,179.9c0.2-0.2,0.4-0.5,0.6-0.5
		c3-0.9,6-1.4,9.1-1.4c0.3,0,0.5,0.2,0.8,0.3c0,0.1,0,0.2,0,0.4c-0.6,0.1-1.3,0.4-1.9,0.4c-1.8,0.2-3.5,0.2-5.3,0.4
		c-0.8,0.1-1.7,0.4-2.5,0.6C62.6,180,62.3,179.9,62,179.9z M84.3,181.4c-0.4,1.3-0.9,2.5-1.4,3.8c-0.3,0.8-0.7,0.9-1.3,0.3
		c-1.5-1.4-3.1-2.9-4.6-4.3c-0.2-0.1-0.3-0.3-0.4-0.5c-0.1-0.3-0.4-0.8-0.3-1c0.3-0.4,0.7-0.6,1.3-0.5c1.4,0.3,2.8,0.6,4.2,0.8
		c0.8,0.1,1.7-0.3,2.8-0.5C84.6,180.1,84.5,180.8,84.3,181.4z M84.3,178.3c-0.8,0-1.6-0.2-2.3,0.3c-0.2,0.2-0.6,0.2-0.9,0.1
		c-1.3-0.3-2.7-0.7-4-1.1c-0.8-0.2-1.6-0.2-2.4-0.4c-3.7-0.8-7.4-0.4-11,0.6c-0.9,0.2-1.8,0.3-2.7,0.4c-0.6,0.1-1.1,0.2-1.7,0.3
		c-1.4,0.3-2.9,0.7-4.3,1c0-0.1,0-0.1,0-0.2c-0.1,0-0.2,0-0.2,0c-2.2,0-2.2,0-2-2.3s1.2-4.3,2.3-6.3c1-1.9,2.1-3.7,3.1-5.5
		c0.3-0.5,0.5-0.6,1.1-0.4c1.2,0.2,2.3,0.6,3.3,1.4c0.3,0.2,1,0,1.5-0.2c0.7-0.4,1,0.1,1.4,0.5s0.8,0.9,1.2,1.2
		c0.7,0.5,1.5,0.4,2.3,0.1c1.4-0.6,2.8-1.2,4.2-1.9c0.5-0.2,0.8-0.8,1.2-1.1c2.2-1.4,3.7-3.5,5.3-5.5c1-1.2,2.2-2.2,3.6-2.9
		c1.8-0.9,3.7-1.7,5.6-2.4c0.7-0.3,1.5-0.4,2.2-0.4c1.7-0.2,3.3-0.3,5-0.4c0.2,0,0.3,0,0.5,0c1.1-0.3,2.1-0.3,2.7,1
		c0.1,0.1,0.2,0.2,0.3,0.3c1.3,0.3,1.8,1.6,2.5,2.4c0.8,0.9,1.7,1.7,2.5,2.6c2.3,2.2,4.6,4.5,7,6.6c0.6,0.6,1.5,1,2.2,1.5
		c0.2,0.1,0.4,0.4,0.4,0.5c0,0.2-0.3,0.4-0.5,0.4c-3.1,1.1-6.2,2.2-9.3,3.4c-1.2,0.4-2.3,1.1-3.5,1.5c-1.7,0.6-3.5,1.1-5.2,1.7
		c-1.6,0.5-3.2,1-4.8,1.6c-1.4,0.5-2.8,1.1-4.2,1.5C85.8,178.4,85,178.4,84.3,178.3z M93.7,191.2c-1.4,0.4-2.9,0.7-4.3,1
		c-0.1,0-0.3-0.1-0.5-0.2c-0.9-0.9-1.7-1.8-2.6-2.7c-0.5-0.4-0.4-0.8-0.2-1.3c1.1-2.3,2.1-4.5,3.1-6.8c0.1-0.2,0.3-0.5,0.4-0.7
		c0.1,0,0.2,0,0.3,0c0.4,0.9,0.7,1.8,1.1,2.6c0.7,1.8,1.4,3.5,2.1,5.3c0.3,0.7,0.6,1.4,0.8,2.1C94,190.7,93.8,191.1,93.7,191.2z
		 M177,166.8c-1,1.1-2,2.3-3.2,3.2c-1.4,1-2.9,1.9-4.5,2.6c-2.1,1-4.3,2-6.7,2.4c-0.3,0-0.6,0.1-0.9,0.1c-3.7,0.2-7,1.5-10.1,3.4
		c-1.5,0.9-3,1.6-4.5,2.5c-1.6,1-3.3,1.4-5.1,1.4c-0.9,0-1.9,0.3-2.8,0.4c-3.6,0.6-7.1,1.1-10.7,1.7c-0.4,0.1-0.7,0.2-1.1,0.3
		c-1.9,0.9-4,1.3-6,1.7c-1.8,0.4-3.6,1-5.4,1.4c-1.6,0.3-3.3,0.5-4.9,0.7c-0.6,0.1-1.3,0.1-1.9,0.2c-3,0.4-6.1,0.8-9.1,1.1
		c-0.9,0.1-1.1-0.7-1.1-1.3c-0.1-1.1-0.6-2-1.2-3c-0.8-1.4-1.4-2.8-2.2-4.2c-0.8-1.4-1.7-2.7-2.5-4c-0.3-0.5,0-0.7,0.4-0.8
		c0.7-0.2,1.5-0.4,2.2-0.6c3.6-1,7-2.4,10.4-3.9c2.7-1.2,5.6-2.1,8.5-3c1.9-0.6,3.8-1,5.7-1.5c2.4-0.6,4.6-1.7,6.7-3
		c1.7-1.1,3.6-1.7,5.7-1.8c0.9,0,1.9-0.4,2.8-0.7c1.3-0.4,2.7-0.8,4-1.2c2.5-0.6,4.8-1.7,6.8-3.2c1.8-1.4,3.8-2.3,5.9-3.1
		c1.1-0.4,2.1-1,3.1-1.6c1.1-0.6,2.3-1.1,3.4-1.7c0.3-0.2,0.6-0.4,0.8-0.7c0-0.1-0.2-0.5-0.4-0.5c-0.2-0.1-0.6-0.1-0.8,0.1
		c-1.7,0.8-3.3,1.8-5,2.6c-0.9,0.5-1.9,0.9-2.9,1.2c-2,0.6-3.7,1.8-5.4,3c-2.2,1.7-4.7,2.4-7.3,3c-0.7,0.2-1.4,0.4-2.1,0.7
		c-1.1,0.5-2.3,0.5-3.5,0.2c1.4-4,3.9-7,7.3-9.1c4.3-2.7,9.1-4.5,13.9-6c2-0.6,3.9-0.3,5.9,0.1c1.7,0.3,3.3,0.6,4.9,1
		c1.2,0.3,2.4,0.6,3.6,0.9c0.6,0.1,1.2,0.2,1.9,0.2c1.1-0.1,2,0.2,2.9,0.9c2.3,1.7,3.6,4,4.2,6.7c0.6,2.5,1,5.1,1.4,7.7
		C178.2,164.7,177.8,165.8,177,166.8z"/>
	<path class="st0" d="M89.8,42.3c-1.1,1.4-2.4,2.6-4,3.4c-0.7,0.4-2.1-0.1-2.7-0.8c-0.4-0.4-0.9-0.8-1.3-1.2
		c-0.1-0.1-0.4-0.3-0.4-0.5c0-0.3,0.1-0.5,0.3-0.8c0-0.1,0.4,0.1,0.6,0.2c0.4,0.3,0.7,0.7,1,1c0.8,0.8,1.4,0.9,2.4,0.3
		c1-0.6,2-1.2,3-1.8c0.3-0.1,0.7-0.1,1-0.1C89.7,42.1,89.8,42.2,89.8,42.3z"/>
	<path class="st0" d="M84.8,39.1C83,39,81.5,39.4,80,40.3c-0.1,0.1-0.2,0.2-0.3,0.2c-0.4,0-0.7-0.1-1.1-0.1c0.2-0.3,0.2-0.7,0.5-0.9
		c1.3-1.2,3-1.5,4.7-1.6c0.9,0,1.9-0.1,2.8-0.1c0.3,0,0.6,0.4,0.9,0.6c-0.3,0.3-0.5,0.7-0.8,0.7C86.1,39.2,85.4,39.1,84.8,39.1z"/>
</g>
</svg>
