<?xml version="1.0" encoding="utf-8"?>
<!-- Generator: Adobe Illustrator 19.2.1, SVG Export Plug-In . SVG Version: 6.00 Build 0)  -->
<svg version="1.1" id="Layer_1" xmlns="http://www.w3.org/2000/svg" xmlns:xlink="http://www.w3.org/1999/xlink" x="0px" y="0px"
	 viewBox="0 0 195.4 200" style="enable-background:new 0 0 195.4 200;" xml:space="preserve">
<style type="text/css">
	.st0{fill:#BF360C;}
</style>
<g id="mouth-child-main">
	<path class="st0" d="M54.9,138.1c1.1-0.5,2.1-1.1,3.2-1.4c1.4-0.4,2.8-0.6,4.3-0.9c1.1-0.2,2.1-0.5,3.1-0.9
		c1.1-0.5,2.2-1.2,3.2-1.8c0.5-0.3,1,0,0.9,0.6c0,0.3-0.1,0.6-0.3,0.7c-2.4,1.1-4.6,2.6-7.5,2.8c-2.5,0.1-5,0.9-6.9,2.8
		c-0.8,0.8-1.3,1.8-1.3,3c0.1,1.8,0,3.6,0.6,5.5c0.5,1.6,1.4,2.6,2.8,3.4c0.6-1.6,1-3.3,2.5-4.3c1-0.7,2.1-1.1,3-1.8
		c0.8-0.5,1.5-1.2,2.2-1.9c0.3-0.3,0.6-0.7,1.1-0.3c0.5,0.3,0.4,0.9,0.1,1.2c-0.8,0.8-1.6,1.5-2.5,2.1c-0.8,0.6-1.8,0.9-2.6,1.5
		c-1.3,0.9-1.9,2.3-2.3,3.7c-0.3,1,0.8,1.9,1.7,1.4c1.9-0.9,3.9-1.4,6.1-1.3c0.5,0,1.1,0.1,1.6,0.2c0.4,0.1,0.7,0.3,1,0.5
		c0.1,0.1,0,0.7-0.1,0.7c-0.3,0.1-0.7,0.2-1.1,0.2c-0.8-0.1-1.5-0.2-2.3-0.3c-1.6-0.1-3.1,0.5-4.5,1.2c-0.3,0.1-0.7,0.4-0.9,0.3
		c-1-0.2-1.1,0.6-1.4,1.2c-0.5,1.3-0.5,2.7,0,4.1c0.3,0.9,0.8,1.4,1.8,1.7c1.1,0.3,2,0.1,3.1-0.4c1.7-0.7,3.6-0.6,5.3,0.3
		c2.2,1.1,4.5,1.8,6.9,2.5c1.1,0.3,2.2,0.8,3.3,1.2c2.2,0.7,4.5,1.3,6.7,2.1c1.9,0.7,3.7,1.5,5.5,2.2c0.2,0.1,0.4,0.2,0.8,0.4
		c-0.2-1.7,0.5-3,1.2-4.3c0.1-0.2,0.5-0.4,0.7-0.5c0.2,0.3,0.5,0.5,0.5,0.8c-0.1,0.5-0.2,1.1-0.5,1.5c-0.7,1.1-0.3,2.3-0.6,3.5
		c0,0.2,0.2,0.4,0.3,0.7c1.5,2.5,3.1,4.8,4.4,7.4c1.6,3.2,3,6.5,4.5,9.8c0.6,1.4,1.5,2.6,2.1,3.9c0.9,2,1.8,4,2.6,6
		c0.2,0.4,0.3,0.7,0.4,1.1c-1.4,0.1-1.4,0.1-1.8-1.1c-0.9-3-2.6-5.6-4.1-8.3c-1.2-2.1-2-4.5-3-6.7c-0.5-1.2-1.1-2.4-1.7-3.7
		c-0.1,0-0.2,0-0.3,0c-0.5,1.1-1.1,2.1-1.6,3.2c-1.1,2.7-2.1,5.5-3.1,8.3c-0.9,2.4-1.6,4.8-2.4,7.2c-0.4,1.2-0.3,1.2-1.7,1
		c0.3-1,0.4-2.1,0.8-3.1c0.9-2.6,2-5.1,2.9-7.6c1-2.6,1.8-5.2,2.8-7.7c0.3-0.9,0.9-1.7,1.4-2.5c0.1-0.2,0.1-0.6,0-0.8
		c-0.8-1.4-1.6-2.8-2.4-4.2c-1-1.8-2.5-3.1-4.4-3.7c-2.8-1-5.6-1.8-8.4-2.7c-1.2-0.4-2.3-0.8-3.4-1.2c0.2,0.7,0.2,1.4,0.5,2.2
		c0.6,1.6,0.2,3.1-0.4,4.6c-1.5,3.6-3.7,6.7-5.9,9.9c-1.6,2.3-2.9,4.8-4.2,7.2c-1.7,3-3.3,6.1-5,9.1c-0.2,0.3-0.5,0.7-0.8,0.7
		c-4.6,0-9.2,0-13.9,0c-0.9-2.9-1.7-5.9-2.6-8.8c-0.8-2.3-1.6-4.6-2.5-6.9c-1.3-3.6-2.5-7.3-3.8-10.9c-1-3-1.8-6-1.7-9.3
		c0-2.3-0.2-4.7-0.5-7c-0.3-1.9-0.9-3.6-1.4-5.5c-0.1-0.3-0.1-0.6-0.1-0.9c0-1.7,0-3.4,0-5.2c-1,0.4-1.9,0.8-2.9,1.1
		c-2.4,0.8-4.8,1.4-7.1,2.3c-2.5,1-5.2,1.7-7.3,3.4c-1.5,1.2-2.9,2.4-4.3,3.7c-3.1,3-5,6.7-7.2,10.3c-0.8,1.3-1.6,2.5-2.3,3.8
		c-0.4,0.9-0.7,1.9-0.9,2.9c-0.3,2-0.5,4-0.7,6c-0.1,1-0.2,2-0.2,3c0,3.1-0.2,6.2-0.5,9.4c-0.2,2.5-0.2,5-0.2,7.4
		c0,1.2-0.1,1.2-1.4,1.1c0.1-1,0.2-2,0.2-2.9c0.1-2.8,0.2-5.6,0.4-8.4c0.1-2.4,0.2-4.8,0.4-7.2c0.2-2.1,0.4-4.3,0.6-6.4
		c0.1-1.1,0-2.3,0.3-3.4c0.6-1.7,1.5-3.2,2.4-4.8c1.8-3,3.7-5.8,5.5-8.8c1-1.7,2.5-2.8,3.8-4.2c1.7-1.8,3.8-3.4,6.1-4.3
		c3.1-1.3,6.4-2.3,9.6-3.5c1.4-0.5,2.8-1,4.2-1.5c1.6-0.5,1.6-0.6,1.7-2.3c0.2-2.4,0.6-4.7,0.8-7.1c0.2-1.4,0.2-2.8,0.4-4.1
		c0.3-3.1,0.2-6.2,1.3-9.2c0.8-2.2,1-4.6,1.4-7c0.4-2.7,0.4-5.3,0.5-8c0.1-2.5,0.5-5.1,0.8-7.6c0.3-2.5,0.8-4.9,1.2-7.4
		c0.1-0.4,0.2-0.8,0.4-1.2c1.4-3.1,2.1-6.4,1.8-9.8c-0.1-1.2-0.8-2.4-1.2-3.5c-0.8-2-1.5-4-1.5-6.2c0-0.4,0.1-0.7,0.2-1.1
		c0.5-3.3,1-6.6,0.6-9.8c-0.3-2.4-0.7-4.7-0.6-7.2c0.1-2,0.1-4,0-6c0-1.6,0.2-3.1,0.5-4.6c0.2-0.9,0.5-1.9,0.5-2.8
		c-0.1-2.3,0.6-4.4,1.4-6.5c1.1-2.9,2.1-5.9,3.3-8.7c0.6-1.5,1.7-2.7,2.5-4.1c1.1-2,2.4-3.9,4.1-5.4c2.2-1.9,4.5-3.8,6.7-5.7
		c1.5-1.2,3-2.3,4.5-3.5c1.5-1.1,3.1-1.9,4.9-2.5c2.4-0.7,4.7-1.8,7.2-2.4c1.7-0.4,3.6-0.4,5.4-0.4c1.5,0,3,0.2,4.5,0.4
		c2.2,0.2,4.2-0.7,6.4-0.9C94.5,0,95.8,0,97.1,0.1c3,0.2,5.3,1.8,7.7,3.4c0.5,0.3,0.9,0.6,1.3,1c2.1,2,4.2,4,6.2,6
		c1,1,1.7,2.2,2.6,3.2c1.8,2.3,3.7,4.6,5.4,7.1c2.1,3.1,3.4,6.5,4.4,10.2c0.8,2.9,1.9,5.7,2.8,8.6c0.8,2.7,1.4,5.5,2,8.3
		c0.4,1.9,0.4,3.8,0.6,5.7c0.1,1.1,0.3,2.3,0.5,3.4c0,0.1,0.1,0.3,0.2,0.4c2.7,2.6,3.2,5.7,2.2,9.1c-0.7,2.3-1.7,4.4-2.8,6.5
		c-1.7,3.2-2.8,6.7-3.5,10.2c-0.1,0.6-0.5,1.3-0.8,1.8c-0.6,0.8,0,1.5,0.1,2.2c0.3,1.7,0.9,3.3,1.3,5c0.2,0.9,0.5,1.8,0.6,2.7
		c0.2,1.8,1.1,3.3,2.2,4.7c1.9,2.2,3.4,4.7,4.2,7.6c0.5,1.9,0.9,3.8,0.6,5.8c-0.2,1.4-0.7,2.7-1.1,4.1c-0.5,2-1.1,4-1.4,6
		c-0.3,2.1-0.4,4.3,0.9,6.2c1-0.4,2.1-0.3,2.9,0.5c2,2,4.4,3.2,7,4.2c2.9,1.1,5.9,1.7,8.9,2.2c0.6,0.1,1.3,0,1.9,0
		c2.5,0.2,4.9,0.4,7.3,0.7c1.8,0.2,3.5,0.3,5.3,0.5c3.2,0.4,6.4,0.9,9.2,2.4c2.5,1.4,4.6,3.3,6.4,5.6c1.4,1.8,2.5,3.7,3.5,5.7
		c1.3,2.6,2.8,5.1,3.4,8c0.5,2.5,1.2,4.9,1.5,7.4c0.5,5,1.3,9.8,2.9,14.5c0.6,1.8,0.8,3.8,1.1,5.7c0.3,2.2,0.7,4.5,0.8,6.7
		c0.1,2.2,0,4.3,0,6.6c-0.2,0-0.5,0-1,0c-0.1-0.6-0.2-1.2-0.2-1.8c-0.2-3-0.2-6-0.6-8.9c-0.5-4.3-1.5-8.5-2.8-12.6
		c-0.8-2.7-1.1-5.6-1.3-8.4c-0.2-2.3-0.7-4.6-1.2-6.9c-0.4-1.9-1-3.7-1.7-5.5c-0.4-1-1-2-1.6-2.9c-0.1-0.2-0.5-0.3-0.7-0.3
		c-3.5-0.4-6.7,0.6-9.8,1.8c-2.2,0.9-4.4,1.6-6.6,2.7c-2.1,1-4,2.5-5.8,4.1c-0.7,0.6-1.4,1.1-2.1,1.7c-0.2,0.2-0.4,0.4-0.4,0.6
		c-0.2,2-1,3.8-1.5,5.7c-0.7,2.6-1.5,5.2-1.8,8c-0.2,1.5-0.9,2.9-1.3,4.4c-0.7,2.5-1.4,5-2.1,7.5c-1,3.6-2.5,6.7-5.8,8.8
		c-0.5,0.3-1,0.7-1.2,1.2c-0.5,1.1-1.4,0.9-2.4,0.8c0.4-1,0.8-1.9,1.2-2.9c0.9-2.5,1.8-4.9,2.5-7.4c0.8-3.1,0.9-6.3,0.5-9.5
		c0-0.1,0-0.2,0-0.3c-0.1-2.8-0.2-5.6-0.1-8.5c0-1.4,0.5-2.8,0.8-4.2c0.4-1.6,1-3.2,1.4-4.8c0.1-0.4,0.3-0.9,0.9-0.7
		c0.7,0.2,0.5,0.7,0.4,1.1c-0.4,1.5-1,3-1.4,4.6c-0.4,1.5-0.7,3-0.7,4.6c-0.1,2.1-0.1,4.2,0,6.3c0,2,0.1,4,0.2,6
		c0.1,4.1-0.9,8-2.5,11.8c-0.1,0.3-0.2,0.6-0.3,1c2.2-1.4,3.8-3.1,4.5-5.3c0.9-2.7,1.6-5.5,2.4-8.3c0.5-1.5,1.1-3,1.5-4.5
		c0.4-1.7,0.6-3.5,1-5.3c0.6-2.4,1.4-4.7,2-7.1c0.4-1.7,0.6-3.5,1-5.3c0.5-1.9,1.1-3.8,1.7-5.7c0.8-2.5,1.8-5,2.6-7.5
		c0.1-0.4,0.1-0.8,0.2-1.2c0.1-0.2,0.4-0.6,0.5-0.5c0.2,0.1,0.6,0.3,0.6,0.6c0,0.5,0,1-0.1,1.5c-1.1,3.2-2.2,6.3-3.2,9.4
		c-0.3,1-0.6,1.9-0.9,2.9c-0.1,0.2-0.1,0.4,0,0.8c6.9-6.3,15.1-9.2,24.4-10.3c-0.8-1.2-1.5-2.6-2.5-3.9c-1-1.3-2-2.6-3.3-3.7
		c-2.3-2.1-5.1-3.5-8.3-4.1c-2.1-0.4-4.3-0.7-6.4-1c-1.5-0.2-3-0.2-4.6-0.4c-5-0.5-10.1-0.3-14.9-2.1c-0.9-0.3-1.9-0.8-2.8-1.1
		c-0.2-0.1-0.6,0.1-0.7,0.2c-1,1-1.8,2.1-2.9,2.9c-2.9,2.1-5.9,4-9.3,5.1c-2.6,0.8-5.2,1.6-7.8,2.3c-1.9,0.5-3.9,1-5.8,1.3
		c-1.1,0.2-2.1,0.2-3.4,0.3c0.7,0.9,1.2,1.8,1.8,2.5c2.5,2.7,4.2,6,6.1,9.1c1.9,3.1,3.7,6.3,5.4,9.5c0.9,1.7,1.6,3.6,2.4,5.4
		c1.4,3.1,2.8,6.1,4.2,9.2c1.7,3.7,3.4,7.4,5.1,11.1c0.7,1.5,1.6,2.9,2.4,4.3c0.4,0.7,0.7,1.3,1.1,2c-1,0.3-1.5-0.1-2.1-0.9
		c-2.2-3.3-3.6-7-5.2-10.6c-0.7-1.5-1.5-2.9-2.2-4.4c-1.4-3.1-3.1-6.1-4.2-9.2c-1.6-4.5-4.1-8.5-6.5-12.6c-0.8-1.3-1.3-2.7-2.1-4
		c-1.3-2.1-2.7-4.2-4.2-6.2c-1.2-1.7-2.4-3.3-3.7-4.9c-0.5-0.6-1.1-1-1.7-1.5c-2.5-2.2-5.4-3.9-8.6-5.2c-4.5-1.9-8.7-4.3-12.7-7.1
		c-2.4-1.7-4.9-3.1-7.4-4.5c-1-0.6-2.3-0.7-3.5-0.9c-1.6-0.2-3.3-0.3-4.9-0.4c-2.1-0.1-4.2-0.4-6.2-0.3c-2,0.1-4,0.5-5.9,1.3
		c-1.3,0.6-2.2,1.5-2.8,2.7c-0.3,0.6-0.8,1.2-1.2,1.9C54.4,134.7,54.1,136.4,54.9,138.1z M70.5,106.9c0.6-0.4,1-1,1.5-1.1
		c2.3-0.6,3.9,0.2,4.9,2.4c1.3,2.6,2.2,5.4,1.9,8.4c-0.1,1-0.1,2,1.1,2.6c0.1,0.1,0.3,0.2,0.4,0.4c2.3,2.8,5.5,4.5,8.6,6.1
		c1.9,1,4.1,1.5,6.2,1.9c2.2,0.4,4.5,0.1,6.5-1.3c1-0.8,2-1.6,2.9-2.4c2.2-2.1,4.4-4.1,6.6-6.2c0.8-0.8,1.4-1.7,2.3-2.4
		c1.2-1,2.2-2.1,2.9-3.5c0.5-0.9,1-1.9,1.7-2.7c1.4-1.9,2.3-3.9,2.8-6.2c0.4-1.7,0.7-3.4,0.9-5.1c0.2-1.3,0.2-2.6,0.5-3.9
		c0.6-2.3,0.2-4.6,0.3-6.9c0-1.2-0.1-2.4,0-3.6c0.1-1.1,0.4-2.1,0.5-3.2c0.1-2,0.1-4.1,0.2-6.1c0.1-1.2,0.2-2.4,0.4-3.6
		c0.2-1.9,0.7-3.9,0.6-5.8c-0.1-2.5-0.6-4.9-1-7.4c-0.5-2.6-1.7-4.8-3.6-6.6c-2.4-2.3-5-4.5-7.5-6.6c-1.3-1.1-2.7-2-4.4-2.3
		c-1.1-0.2-2.3-0.2-3.4-0.5c-3.3-0.9-6-2.8-8.9-4.5c-2.2-1.3-3.6-3.2-4.2-5.6c-0.2-1-0.4-1.9-0.6-2.9c-0.3-1.7-0.5-3.5-0.8-5.2
		c-0.4-1.9-0.9-3.8-1.5-5.7c-0.5-1.7-1-3.3-1.5-5c-0.3-0.9-0.8-1-1.4-0.5c-0.3,0.2-0.4,0.9-0.3,1.3c0.5,1.9,1.2,3.7,1.8,5.6
		c1,3.2,1.5,6.5,1.6,9.9c0,1.3,0.3,2.6,0.4,3.9c0.1,1.3,0.3,2.1-1.1,2.7c-2.5,1.2-4.9,2.5-7.4,3.6c-2.4,1.1-4.6,2.4-6.9,3.6
		c-2.7,1.5-5.5,2.6-8.2,4c-1.1,0.6-2.2,1.4-3,2.4c-2.1,2.4-3.7,5.2-4.5,8.4c-0.4,1.7-0.9,3.4-0.8,5.3c0.1,0.8,0,1.5,0,2.3
		c-0.1,1.7-0.3,3.5-0.5,5.2c-0.1,0.7-0.2,1.5-0.3,2.2c-0.4,2.2-1.1,4.3-0.4,6.5c0.9,2.8,1.3,5.7,2.5,8.4c0.6,1.5,0.8,3.1,1.2,4.7
		c0.4,1.7,0.7,3.4,1.1,5c1.9-0.5,2.5-0.2,3.3,1.4c0.2,0.3,0.5,0.6,0.8,0.8c0.4,0.3,1,0.5,1.2,1c0.7,1,1.3,2,1.8,3.1
		C68.2,104.6,69.3,105.8,70.5,106.9z M131.4,130.6c-2-1.1-3.8-2.2-5.8-3.2c-2.8-1.4-4.9-3.7-7.1-5.9c-1-1-1.7-2.3-1.7-3.9
		c-0.1-1.3-0.3-2.6-0.4-4c-1.1,1.1-2.2,2.1-3.3,3.2c-0.8,0.8-1.4,1.7-2.2,2.5c-2.1,2-4.1,4-6.3,5.9c-1,0.9-2.2,1.8-3.5,2.4
		c-2.1,1.1-4.4,1.2-6.7,0.7c-2.8-0.6-5.6-1.4-8.1-3c-2.6-1.6-5-3.2-7.1-5.4c0,0-0.2,0-0.2-0.1c0,0.1,0,0.2,0,0.3
		c0.2,1.9,0.1,3.7-0.3,5.6c-0.1,0.6,0.3,0.9,0.8,1.2c3.3,1.4,6.1,3.5,9.1,5.5c1.4,0.9,2.7,2,4.1,2.8c2.4,1.3,4.8,2.5,7.3,3.6
		c0.8,0.4,1.7,0.6,2.5,0.6c2.1,0,4.3-0.1,6.4-0.3c2.1-0.2,4.2-0.3,6.2-0.8c3.3-0.9,6.5-2.1,9.8-3.3
		C127.3,134.1,129.3,132.3,131.4,130.6z M139.2,133.8c-1.4-1.1-2.9-2.3-4.4-3.5c-0.2-0.1-0.6-0.2-0.7,0c-0.8,0.5-1.5,1.1-2.3,1.7
		c-1.1,0.8-2.1,1.6-3.2,2.4c-2.5,1.8-5.5,2.5-8.3,3.6c-2.4,0.9-5,1.6-7.6,1.9c-1.6,0.2-3.3,0.4-4.9,0.5c-1.1,0.1-2.2,0-3.3,0
		c-0.2,0-0.5,0.1-0.7,0.1c2.1,1.5,4.1,2.8,6,4.3c0.8,0.6,1.6,0.8,2.5,0.7c1.8-0.1,3.6-0.4,5.4-0.8c1.8-0.4,3.6-0.9,5.3-1.4
		c3.7-1.1,7.5-2,10.8-4.2c1.9-1.3,4-2.3,5.2-4.1C139.1,134.6,139.1,134.2,139.2,133.8z M50.6,71.5c-0.7-0.6-1.3-1.1-2-1.7
		c-1.1-1-2.3-1.4-3.8-1.1c-1.1,0.2-2.3,0.9-2.3,1.7c-0.1,0.9-0.1,1.8,0.1,2.7c0.5,2.6,1.7,4.9,2.7,7.2c1.1,2.5,2.9,4.5,4.5,6.6
		c1.2,1.5,2.3,3.2,4.1,4.1c1,0.5,2.1,1.2,3.3,1.1c0.2,0,0.6-0.2,0.6-0.4c0.1-0.4,0.1-0.9,0-1.4c-0.6-1.8-1.2-3.6-1.9-5.3
		c-0.3-0.8-0.7-0.9-1.5-0.4C54,85,53.5,85.5,53,85.6c-1.2,0.3-3.3-0.8-3.8-2c-0.1-0.2-0.2-0.5-0.1-0.7c0.1-0.2,0.3-0.6,0.5-0.6
		c0.2,0,0.5,0.2,0.7,0.4c0.4,0.4,0.7,0.9,1.1,1.4c0.5,0.5,1.1,0.5,1.7,0.1c0.7-0.5,1.4-0.8,2.2-1.3c0,0.1,0,0,0,0
		c-0.6-2.3-1.1-4.6-1.7-6.9c0-0.1-0.1-0.2-0.2-0.3c-0.3-0.4-0.6-0.7-0.9-1.1c-0.4-0.6-0.6-1.5-1.7-1.3c-1.2,0.2-2.3-0.1-3.4-0.7
		c-0.8-0.4-1.3-0.1-1.3,0.8c0.1,1.3,0.3,2.6,0.5,3.9c0,0.3,0.2,0.6,0.1,0.8c-0.1,0.5-0.5,0.6-0.9,0.4c-0.2-0.2-0.4-0.5-0.5-0.8
		c-0.6-1.5-0.8-3.1-0.7-4.7c0.1-1,0.7-1.8,1.6-2.1c0.6-0.2,1.4-0.4,1.8,0.3C48.6,71.9,49.5,71.8,50.6,71.5z M65.9,106.2
		c0.1,0.4,0.1,0.8,0.2,1.2c0.5,1.7,0.5,3.4,0.2,5c-0.7,3.1-1.7,6.1-2.4,9.2c-0.3,1.4-0.3,2.8-0.4,4.2c1.9,0,3.7,0,5.2,0
		c0.4-1,0.8-1.9,1-2.8c0.5-2.3,2.4-4,2.3-6.5c0-1.3,0.1-2.6-0.1-3.9c-0.3-1.5-0.8-3-1.3-4.5c0-0.1-0.2-0.3-0.3-0.4
		c-0.6-0.5-1.2-1.1-1.8-1.6c-0.3-0.3-0.6-0.9-1-1c-0.3-0.1-0.8,0.4-1.2,0.7C66.2,106,66.1,106.1,65.9,106.2z M61.2,104.6
		c0,0.6-0.1,1.3,0,1.9c0.3,1.4,0.2,2.8-0.2,4.1c-0.9,2.8-0.7,6-2.2,8.7c-0.7,1.4-0.9,2.9-0.5,4.4c0.3,1.2,0.2,2.5,0.3,3.6
		c1.1-0.3,2.2-0.5,3.4-0.8c0.4-0.1,0.6-0.3,0.6-0.8c0-1.1-0.1-2.1,0.1-3.1c0.7-3.1,1.6-6.1,2.4-9.2c0.5-1.7,0.5-3.4,0.2-5.2
		c-0.3-1.5-0.5-3.1-0.9-4.6c-0.3-1.1-0.7-2.2-1.1-3.5C63,101.9,63.2,103.7,61.2,104.6z M77.2,126.6c0-0.3,0-0.6,0.1-0.8
		c0.5-1.8,0.6-3.7,0.6-5.5c-0.1-1.6-0.2-3.3-0.1-4.9c0.1-2-0.4-3.9-1.1-5.7c-0.4-0.9-1-1.7-1.6-2.6c-0.1-0.2-0.5-0.2-0.7-0.4
		c-0.1,0.4,0.1,0.6,0.1,0.9c0.4,1.5,0.4,2.9-1.2,3.4c-0.5,0.1-0.5,0.4-0.4,0.8c0.1,0.3,0.2,0.6,0.2,1c0.3,2,0.5,4-0.3,5.9
		c-0.6,1.3-1.2,2.5-1.7,3.8c-0.4,1.1-0.9,2.3-0.8,3.5C72.5,126.3,74.9,126.4,77.2,126.6z M132,64.3c-0.6-0.5-1.2-0.8-1.6-1.2
		c-0.6-0.6-1.3-0.7-1.9-0.3c-0.6,0.5-1.1,1.2-1.6,1.8c-0.2,0.2-0.3,0.6-0.5,0.6c-0.9,0.2-1,1-1,1.6c-0.1,0.8-0.2,1.6,0.8,2.1
		c1.4,0.7,2.1,2.3,1.7,3.9c-0.1,0.4-0.1,0.8-0.2,1.2C129.7,71,131.4,67.8,132,64.3z M125.2,70.2c0,0.1-0.1,0.1-0.1,0.2
		c-0.2,2.3-0.6,4.6-0.7,6.9c-0.1,1.9,0.1,3.9-0.5,5.8c-0.1,0.4,0.1,1,0.1,1.4c0.1,0,0.3,0,0.4,0.1c0.3-0.5,0.7-1,0.8-1.6
		c0.4-1.1,0.6-2.3,0.9-3.5c0.1-0.5,0.3-1,0.3-1.5c0.1-1.8,0-3.7,0.2-5.5C126.7,71.4,126.3,70.5,125.2,70.2z M61.1,103.5
		c1.3-0.9,1.5-4.4,1-5.6c-0.1-0.1-0.3-0.3-0.5-0.3c-1.4-0.2-2.6,1.1-2.1,2.5c0.3,0.9,0.7,1.8,1.1,2.6
		C60.8,103.1,61,103.3,61.1,103.5z M131.9,62.4c0-1.6-0.7-2.7-1.6-3.8c-0.1-0.2-0.6-0.3-0.8-0.1c-1.3,0.7-2.5,2.5-2.6,3.7
		c0.7-0.3,1.6-0.6,2.4-0.9C130.4,61,131,62,131.9,62.4z M72.9,106.6c-0.9,0.2-1.5,0.7-1.4,1.5c0,0.4,0.1,0.8,0.2,1.2
		c0.3,0.9,0.6,1.1,1.5,0.6c0.7-0.4,0.6-1,0.4-1.6C73.4,107.7,73.1,107.2,72.9,106.6z M65.7,105c0.1,0.1,0.2,0.1,0.3,0.2
		c0.3-0.4,0.9-0.9,0.8-1.2c-0.3-1.5-1.3-2.7-2.3-3.8C64.9,101.8,65.3,103.4,65.7,105z"/>
	<path class="st0" d="M92.5,101.5c0.7,0.2,1.3,0.3,2,0.5c0.9,0.2,1.6,0.2,2.4-0.3c1.6-1,3.3-1.5,5.2-1.5c0.7,0,1.3,0,2,0
		c2.3-0.1,3.9,1.1,5.1,2.9c0.1,0.2,0.2,0.6,0.1,0.8c-0.9,2.8-2.1,5.6-4.4,7.6c-1.2,1-2.3,2.1-3.6,2.9c-1,0.6-2.2,0.7-3.3,1.1
		c-3.9,1.4-7.3,0.4-10.6-1.7c-1.4-0.9-2.7-1.9-3.6-3.3c-0.3-0.5-1-0.9-1-1.3c0-0.5,0.6-0.9,0.9-1.4c0.6-0.9,1.1-2,1.9-2.8
		c1.7-1.7,3.7-2.9,6.1-3.4C91.9,101.6,92.2,101.6,92.5,101.5C92.5,101.6,92.5,101.5,92.5,101.5z M93.7,105.2
		c-2.7-0.2-5.1,0.5-7.2,2.3c-1.4,1.3-1.5,1.6,0.3,2.4c1.5,0.7,3.1,0.9,4.7,1.1c3.5,0.4,6.8-0.3,10-1.8c2.3-1,3.4-3.2,4.9-5
		c0.1-0.1,0.1-0.2,0.1-0.3c0.1-0.5-0.1-0.8-0.5-0.7c-0.9,0.1-1.8,0.1-2.6,0.3c-1,0.3-1.9,0.9-2.9,1.2c-0.9,0.3-1.8,0.6-2.7,0.6
		C96.5,105.4,95.1,105.3,93.7,105.2z M108,103.7c-2.4,4.3-5.9,6.9-10.6,7.9c-4.6,1-9,0.6-13.1-2.1c0.9,2.4,5.6,5.4,8.7,5.6
		c5.8,0.4,10.4-1.9,13.5-6.8C107.2,107,108.3,105.5,108,103.7z M107.1,102c-0.7-0.3-1.1-0.7-1.5-0.7c-1.4-0.1-2.8-0.3-4.2-0.1
		c-1.3,0.1-2.6,0.5-3.7,1.1c-1.3,0.7-2.5,0.9-3.9,0.5c-0.7-0.2-1.4-0.2-2.2-0.2c-1.9,0.1-3.3,1.3-4.7,2.3c-0.6,0.4-1,1-1.6,1.5
		c0.1,0.1,0.2,0.2,0.3,0.3c0.4-0.3,0.7-0.7,1.1-1c1.6-0.8,3.2-1.4,5.1-1.4c2.1,0.1,4.2,0.1,6.3,0c0.6,0,1.3-0.3,1.9-0.5
		c1.4-0.5,2.7-1.1,4.2-1.6C105.2,102,106,102.1,107.1,102z"/>
	<path class="st0" d="M115.7,73.5c-0.6,0.4-1.3,0.8-1.9,1.2c-1.6,1.2-3.3,2.3-5.3,2.5c-1.4,0.1-2.9-0.1-4.4-0.3
		c-1.2-0.2-2.3-0.7-3.6-0.2c-0.1,0.1-0.5-0.1-0.6-0.3c-0.1-0.1,0.1-0.5,0.2-0.6c1.1-0.9,2.4-1,3.7-1.1c1.8-0.1,3.6-0.1,5.5-0.2
		c0.6,0,1.1-0.2,1.6-0.4c1.2-0.4,2.5-0.8,3.7-1.2c0.3-0.1,0.6,0,0.9,0C115.6,73.3,115.7,73.4,115.7,73.5z"/>
	<path class="st0" d="M103.7,92c0,1.5-0.8,2.5-1.9,3.3c-1.3,0.9-2.6,2-4,2.9C96.6,99,95.4,99,94,98.5c-1.9-0.7-3.9-1.3-5.8-2
		c-2.1-0.8-3.7-4-2.2-6.3c0.2-0.3,0.3-0.6,0.5-0.8c0.1-0.1,0.4-0.2,0.6-0.2c0,0.2,0.1,0.5,0.1,0.7c-0.1,0.3-0.3,0.5-0.4,0.8
		c-0.8,1.2-0.5,2.7,0.3,3.8c1,1.3,2.5,1.5,3.9,2c0.9,0.3,2,0.4,2.8,0.9c2,1,3.5,0.3,5.1-0.9c0.8-0.6,1.6-1.3,2.4-1.9
		c1.3-1,1.6-2,1.3-3.5c-0.3-1.3-0.6-2.6-1.9-3.3c-0.1-0.1,0-0.4-0.1-0.6c0.3,0,0.6-0.1,0.8,0c0.6,0.6,1.3,1.2,1.6,1.9
		C103.4,89.9,103.5,90.9,103.7,92z"/>
	<path class="st0" d="M67.1,72.9c1.4,0.2,2.8,0.4,4.2,0.7c2.2,0.5,4.3,0.6,6.5,0.3c2.1-0.3,4.2-0.5,6.3-0.8c0.5-0.1,0.8,0.1,0.7,0.7
		c0,0.2-0.3,0.5-0.6,0.5c-1.3,0.2-2.6,0.2-3.9,0.4c-3.5,0.7-7,0.6-10.5-0.3c-1.3-0.3-2.6-0.3-4-0.1c-0.3,0.1-0.6,0.2-0.8,0.1
		c-0.3-0.2-0.5-0.5-0.7-0.8c0.2-0.2,0.5-0.5,0.8-0.5c0.6-0.1,1.3-0.1,1.9-0.2C67.1,72.9,67.1,72.9,67.1,72.9z"/>
	<path class="st0" d="M117.1,65.5c-1.9,1.1-3.6,2.2-5.4,3c-2.4,1.1-5,1.9-7.5,2.7c-1.4,0.4-2.8,0.6-4.2,0.8c-0.2,0-0.5-0.1-0.8-0.2
		c0.1-0.3,0.2-0.8,0.4-0.9c0.5-0.3,1-0.4,1.5-0.5c2.9-0.5,5.7-1.1,8.4-2.4c2.1-1,4.2-2.1,6.3-3.1C116.3,64.7,116.6,64.9,117.1,65.5z
		"/>
	<path class="st0" d="M73.6,81.6c-0.8-0.1-1.5-0.2-2.1-0.4c-1.3-0.3-2.5-0.7-3.7-1.1c-0.2-0.1-0.3-0.4-0.5-0.6
		c0.2-0.1,0.4-0.4,0.6-0.4c0.4,0,0.8,0,1.2,0.2c2.2,1.1,4.4,0.7,6.6-0.1c2-0.7,4-1.3,6.2-1.1c0.2,0,0.5,0,0.7,0.1
		c0.2,0.1,0.4,0.4,0.5,0.6c-0.2,0.1-0.4,0.4-0.6,0.4c-2.2,0.6-4.4,1.3-6.7,1.9C75.1,81.2,74.4,81.4,73.6,81.6z"/>
</g>
</svg>
