<?xml version="1.0" encoding="utf-8"?>
<!-- Generator: Adobe Illustrator 19.2.1, SVG Export Plug-In . SVG Version: 6.00 Build 0)  -->
<svg version="1.1" id="Layer_1" xmlns="http://www.w3.org/2000/svg" xmlns:xlink="http://www.w3.org/1999/xlink" x="0px" y="0px"
	 viewBox="0 0 120 167.5" style="enable-background:new 0 0 120 167.5;" xml:space="preserve">
<style type="text/css">
	.st0{fill:#512DA8;}
</style>
<g id="nose-child-main">
	<path class="st0" d="M118.4,41.2c-2.6-7.6-10.1-14.1-18-12.7c-0.1-1.8-2.4-3.2-4.1-2.5c-4-9.8-12.3-17.6-22-21.8
		C64.7,0,53.7-0.9,43.4,0.8c-8.1,1.4-16.4,4.7-21,11.5c-3.2,4.8-4.1,10.5-4,16.4c0,0.5,0,0.9,0,1.4c0,0.2,0,0.3,0.1,0.5
		c0.1,3,0.4,6,0.8,8.9c0.3,2.6-2.3,4.5-4.6,5.5c-2.3,1-5,2.1-5.8,4.5c-0.8,2.4,0.7,5-0.3,7.3c-0.6,1.2-1.8,2.1-2.5,3.2
		c-0.8,1.1-0.9,2.9,0.3,3.5c2.2,1.1,2.9,3.8,2.8,6.2C9,72,8.4,74.4,8.9,76.9c0.7,3.4,3.5,5.9,6.2,8c2.7,2.1,5.7,4.1,7.3,7.1
		c1.5,3,0.9,7.5-2.2,8.9c-9.5,4.2-17,13-19.6,23.2c-0.4,1.7-0.7,3.5-0.2,5.1c0.5,1.6,2,3.1,3.7,3c3-0.1,5.6,2.7,6.3,5.7
		c0.7,2.9,0.1,6.1-0.4,9.1c-1.1,6.8-1.2,13.8-0.3,20.7c0.7-10.5,1.4-20.9,2.6-31.4c-1.7-2.6-4.3-4.6-7.3-4.7c-1.8,0-3.3-1.6-3.7-3.4
		c-0.4-1.8,0-3.6,0.6-5.3c3.3-10.2,11.3-18.6,21.2-22.6c1.3,20.7,2.8,42.1,11.7,60.9c2.1,4.2,7.5,6.1,12.1,5.3
		c4.6-0.8,8.7-3.6,12.4-6.5c11.4-8.8,21.3-19.5,29.4-31.4c-1.1,10.1-0.2,20.4,2.5,30.2c-0.6-7.8-1.1-15.5-1.7-23.3
		c-0.2-3.9-0.2-8.6,3.1-10.8c3.8-2.5,9.1,0.1,13.1-1.8c0,13.5,0.1,27,0.2,40.5c0.4-11.7,0.9-23.4,1.4-35.1c0.1-2.7,0.2-5.4,1.3-7.9
		c1.5-3.3-0.1-7-1.3-10.3c-1.2-3.3-1.7-7.6,1-9.9c4.8-3.9,6.6-10.2,7.7-16.4c0.2-0.6,0.5-1.2,0.6-1.8c0.3-1.1,0.7-2.9,0.3-4.2
		c0.6-4.3,1.2-8.6,1.8-12.8C119.9,57,121,48.8,118.4,41.2z M96,29c0-0.5,0-1.1,0.3-1.5c0.5-0.7,1.6-0.7,2.3,0c0.3,0.4,0.4,1,0.4,1.5
		c0.1,2.5,0,5-0.4,7.5c-0.1,0.4-0.1,0.8-0.4,1.1c-0.3,0.3-0.8,0.4-1.1,0.1c-1.2-1-1.2-2.8-1.2-4.3S95.9,30.5,96,29z M94.8,36.4
		c0.3,1.3,0.9,2.8,2.2,3c0.9,0.1,1.7-0.5,2.3-1.4c0.4-0.8,0.5-1.7,0.6-2.6c0.2,0.2,0.5,0.3,0.7,0.5c0.4,0.6,0.9,1.1,1.4,1.8
		c0.6,1,1,2.2,1.1,3.4c0.2,2.2-0.3,4.5-1,6.6c-2.3,7.1-6.7,13.3-9.3,20.2c-1.2,3.1-1.9,7,0.1,9.7c0.3,0.3,0.1,0.8-0.1,1.2
		c-0.6,1.3-1.2,2.7-1.9,4c-0.1,0.2-0.2,0.5-0.4,0.6c-0.3,0.2-0.7,0.2-1.1,0.1c-5.2-0.7-11,0.9-15.6-1.7c0.1-0.9-0.2-1.8-0.2-2.7
		c0-0.9,0.4-1.9,1.2-2.2c6.8-2.5,11.9-8.2,16-14.2c1.5-2.2,3-4.5,3.4-7.2c0.2-1.2,0.1-2.4,0.1-3.6C94.2,48,94.1,44,94,40.1
		C94,38.8,94,37.4,94.8,36.4z M101.5,83.8c-2.3-0.4-4.9-2-6.3-3.8c-0.7-0.9,0.5-2.1,1.3-1.3c1.3,1.6,3.5,3,5.5,3.3
		C103.1,82.3,102.6,84,101.5,83.8z M35.6,54.1c0.5,0.2,0.7,0.8,0.5,1.3c-0.1,0.5-0.5,0.8-0.9,1.2c-1.5,1.4-2.9,3-3.9,4.8
		c-0.6-0.5-0.5-1.4-0.4-2.1c0.3-1.7,0.6-3.3,0.9-4.9c0.1-0.4,0.1-0.8,0.3-1.2c0.5-1.2,1.7-1.9,2.9-2.5c0.2,0.6,0.1,1.2-0.1,1.9
		C34.9,53.2,35.1,53.9,35.6,54.1z M43.1,56.6c-0.9-0.1-1.8,0-2.7,0.2c-2,0.5-3.9,1.5-5.5,2.8c-0.8,0.7-1.7,1.6-2.8,1.6
		c0.4-0.9,1.2-1.5,2-2.1c1.2-1,2.3-2.3,3.1-3.7c1-1.6,2.1-3.2,3.4-4.7c0.3-0.1,0.6,0.1,0.7,0.4c0,0.3,0,0.6-0.1,0.9
		C40.9,53.7,42.1,55.4,43.1,56.6z M36.1,51c0.7,0.5,0.6,1.8-0.2,2.1C35.3,52.5,35.4,51.5,36.1,51z M33.8,61.4c1.5-1,3.2-1.9,4.8-2.8
		c0.8-0.4,1.5-0.8,2.4-0.8s1.8,0.5,2,1.3c2.6,9.4,4.3,19.1,6,28.7c0.7,3.7,1.3,7.5,2,11.2c-3-5-8.8-7.4-14.3-9.4
		c-5-1.9-10.1-3.8-15.3-5.5c-0.9-0.2-0.7-1.5-0.4-2.3c2-4.8,4.1-9.6,6.4-14.2C28.7,64.9,31.3,63,33.8,61.4z M43.6,93.1
		c1,1,2.1,1.9,3.2,2.9c0.5,0.5,1.1,1,1.6,1.6c0.9,0.9,1.5,2.1,2.2,3.2c0,0.1,0.1,0.3,0.1,0.4c0,0.1-0.1,0.2-0.2,0.3
		c-1,1.1-2,2.1-3.3,2.8c-0.6,0.3-1.3,0.6-1.3,1.2c-0.1,0-0.2-0.1-0.4-0.1c-0.5-2.5-1-5-1.4-7.5c-0.1-0.6-0.2-1.1-0.3-1.6
		C43.6,95.3,43.4,94.2,43.6,93.1z M70.5,84.9c1.1-1.2,2.7-2.4,4.1-1.6c-1.9,1.5-3.5,3.3-5.1,5.1c-7,7.6-15.2,14.2-23.3,20.7
		c-0.1-0.8-0.2-1.7-0.3-2.5C54.6,100,62.8,92.7,70.5,84.9z M19.3,42.5c3.1,0,6.2,0.2,9.3,0.8c2.1-2.5,2.2-6.5,0.1-9
		c-0.7,0.1-0.4,1.2,0,1.9c1,1.7,0.9,4.2-0.3,5.8c-0.4,0-0.8,0-1.2-0.3c0.4-0.6,0.7-1.2,0.8-1.9c-2.2-2.5-7-1.8-8.4,1.3
		c-0.3-2,1.7-3.7,3.7-3.9c1.9-0.2,3.9,0.6,5.7,1.5c-2-2.7-6.4-3.2-8.9-0.9c-0.5-1.5-0.6-3.3-0.1-4.8c2.4,0.9,5,1.3,7.7,1.2
		c-1.2-2.2-3.6-3.6-6-3.6c-0.2-2.9,1-5.7,2.1-8.4c1.1-2.8,2.6-5.9,5.5-6.8c2.3-0.7,4.8,0.2,7.1-0.4c2-0.5,3.9-2.1,5.9-1.6
		c1.5,0.4,2.5,1.7,3.7,2.7c4,3.2,10.8,2.4,13.4,6.7c0.4,0.9,0.7,1.9,1,2.9c0,0.1,0,0.1,0,0.2c-0.1,0.3-0.1,0.5,0,0.8
		c0,0.1,0.1,0.2,0.1,0.3c0.1,2.7-0.5,5.7,0.7,8.2c1,2.1,3,3.5,4.8,5c0.5,0.5,1.1,1,1.7,1.5c0.3,0.3,0.6,0.7,0.9,1.1
		c2.1,2.8,2.1,6.5,2.5,10c0,0.2,0,0.4,0,0.6c0,0.3,0.1,0.6,0.3,0.9c0.2,0.7,0.7,1.3,1.4,1.2c0.3-0.1,0.6-0.2,0.9-0.4
		c1.8-1.3,3.5-2.9,5.4-4.2c0.3-0.2,0.7-0.4,1-0.6c1.8-0.9,4-1.3,5.8-0.2c1.7,1,2.6,3.1,2.5,5.1c-0.1,2-1,3.9-2.2,5.5
		c-2.3,3.1-5.4,5.5-8.9,6.8c-2.4,1-5.9,1-6.9-1.4c-0.3-0.5-0.9-1.2-1.2-0.7c-0.7,1.2,0.7,2.5,2,3.1c1.3,0.6,2.8,1.8,2.2,3.1
		c-1.1,2.3-1.5,4.9-1.1,7.4c0.1,0.7,0.2,1.4,0,2c-0.2,0.4-0.5,0.8-0.8,1.1c-6,6.5-12.5,12.6-19.6,18.1l-1.5-10.5
		c0-0.5,0-1.2,0.5-1.4c3.9-1.3,7.5-3.3,10.6-6c-4,1.5-7.9,3.4-11.5,5.7c-1.8-11.8-4.3-23.4-7.4-34.8C42.3,52,42,50.9,41.3,50
		s-1.7-1.5-2.7-2c-5.9-3.2-12.8-4.7-19.5-4.3C19.1,43.3,19.2,42.9,19.3,42.5z M24,41.7c-1.3,0.4-2.7,0.3-3.9-0.2
		c0.8-0.4,1.3-1.1,1.8-1.7c0.5-0.7,1.3-1.2,2.1-1c-0.3,0.5-0.5,0.9-0.8,1.4C22.9,40.8,23.3,41.7,24,41.7z M8.7,63.4
		c-0.9,0.2-1.8-0.8-1.8-1.7c0-1,0.6-1.8,1.2-2.5c0.6-0.7,1.3-1.3,1.7-2.2c0.7-1.9-0.5-4.1-0.2-6.1c0.3-2.6,2.9-4.4,5.6-5.4
		c4.1-1.3,8.6-1.2,12.9-0.3c4.3,1,8.3,2.7,12.2,4.6c-1.1,1.4-2.2,2.8-3.3,4.2c0.3-0.8,0.5-1.6,0.4-2.5c-0.1-0.9-0.8-1.7-1.6-1.8
		c-1.5-0.1-3,1-3.8,2.3c-0.8,1.4-1.1,3-1.3,4.5c-0.2,0.9-0.3,1.9-0.5,2.9c-2.6-2.6-4.8-5.7-6.2-9.1c-0.4-1-0.8-2-1.5-2.7
		c-0.7-0.7-2-1.1-2.8-0.5c-1.4,1-1.2,3.8-2.9,3.9c-1.6,0.1-2.6,1.7-3.1,3.1c-0.6,1.4-0.9,3-2.1,4C9.9,59.4,8.9,61.3,8.7,63.4z
		 M22,48.2c-0.9,0.5-1.9,1-2.8,1.4c-0.1-0.3,0-0.6,0.2-0.9c0.2-0.5,0.7-0.9,1.2-1C21.1,47.5,21.7,47.7,22,48.2z M92.7,123.2
		c1.7-1.5,3.3-3,4.9-4.5c-3.4,0.5-5.7,3.6-7.7,6.4c-8.4,11.8-18.2,22.6-29.2,32.2c-3.7,3.3-7.8,6.5-12.6,7.5
		c-4.8,1-10.6-0.9-12.6-5.4c-8.9-20.3-10.3-42.8-11.3-64.9c-0.2-4.7-4.5-7.9-8.2-10.7c-3.6-2.9-7.4-7.2-6-11.6
		c0.7-2.4-0.1-5-0.3-7.5s0.5-5.5,2.9-6.3c0.1,2.8,1.3,5.6,3.4,7.5c-1.2-2.6-2.3-5.3-2.3-8.1s1.6-5.8,4.4-6.5
		C18.3,55.7,19,61,23,62.9c-1.9-2.5-3.2-5.6-3.8-8.8c-0.2-1.2-0.3-2.5,0.4-3.5c0.7-1,2.5-1.2,3-0.1c2,4.2,4.7,8,7.8,11.4
		c-4.7,6-8.2,12.8-10.3,20.1c-0.3,1.2-0.3,2.8,0.8,3.1c6.2,1.9,12.3,4,18.3,6.5c1.5,0.6,3.2,1.5,3.3,3.1
		c0.8,11.8,4.5,23.4,10.7,33.4c2.5,4,2.7,9.4,0.4,13.5c2.2-1.4,3.1-4.1,3-6.7c-0.1-2.5-1.1-4.9-2.1-7.3c-0.5-0.9,0.1-2,0.6-2.9
		c1.4-2.5,2.8-4.9,4.2-7.4c1.8-3.1,3.6-6.2,6.5-8.1c2-1.3,4.3-1.9,6.7-2.4c9.5-1.8,19.6-0.4,28.3,3.9c0.5,0.2,1.1,0.5,1.4,1
		s0.4,1.2,0.3,1.8C102.1,118.5,97.7,122.8,92.7,123.2z M108.4,118.2c-0.1,0.8-0.6,1.6-1.2,2.2c-0.8,0.7-1.8,1-2.8,1.3
		c-1.8,0.5-3.6,0.8-5.4,0.4c2-1.8,3.5-4,4.4-6.5c0.3-0.7,0.5-1.4,0.5-2.1c0-0.6-0.1-1.4,0.4-1.7c1,0.9,2.1,1.7,2.9,2.6
		C108,115.5,108.6,116.9,108.4,118.2z M106.6,112.5c-1.5-0.7-2.9-1.4-4.3-2.1c-2.7-1.3-5.4-2.6-8.2-3.5c-6.7-2.2-13.9-2.2-20.9-1.1
		c-3.5,0.5-7.2,1.4-9.7,3.9c0.1-1.5,0.3-3,0.4-4.4c0-0.2,0-0.4-0.1-0.5c-0.2-0.4-0.8-0.3-1,0.1c-0.2,0.4-0.1,0.8-0.1,1.2
		c0.2,1.9-0.6,3.9-1.4,5.7c-2.2,4.9-5.1,9.4-8.4,13.6c-2.8-4.6-4.9-9.5-6.3-14.6c-0.1-0.4-0.1-0.9,0.2-1.1
		c10.2-7.1,19.4-15.5,27.5-25c1.1-1.3,3.2-0.6,4.9-0.3c2.1,0.4,4.1,0,6.2,0c4.6-0.1,9.2,1.6,12.7,4.5c3.5,2.9,5.9,7.2,6.6,11.7
		C105.3,104.6,106,108.5,106.6,112.5z M114,88.8c-1.6,1.3-3,3-4.9,3.9c-1,0.5-1.9-1-0.9-1.5c1.8-0.9,3-2.4,4.5-3.6
		C113.6,86.9,114.9,88.1,114,88.8z M117.5,65.3c-2.2,1.9-4.6,3.6-7,5.2c-1,0.6-1.9-0.9-0.9-1.5c2.3-1.5,4.6-3,6.7-4.9
		C117.1,63.3,118.4,64.6,117.5,65.3z M117.8,43.3c-1,2.3-2.2,4.7-4.3,6c-1,0.6-1.9-0.9-0.9-1.5c1.9-1.2,2.8-3.4,3.7-5.4
		C116.7,41.3,118.2,42.2,117.8,43.3z"/>
	<path class="st0" d="M22,167c-3.2-5.5-5.4-11.5-6.4-17.8c-0.6-3.7-0.8-7.6-2.3-11c-0.3-0.6-0.6-1.2-1-1.8
		c1.1,9.7,3.4,19.3,6.8,28.5C19.6,166.2,20.9,167.8,22,167z"/>
	<path class="st0" d="M12.3,136.2c0,0,0,0.1,0,0.1c0,0,0,0,0,0.1C12.3,136.3,12.3,136.3,12.3,136.2z"/>
	<path class="st0" d="M41.7,38.5c1-0.3,1.9-0.5,2.9-0.6c0.5-0.1,1-0.2,1.6-0.1c1.2,0.1,2.4,0.7,3.4,1.3c0.8,0.5,1.5,1,2.3,1.6
		c0.7,0.6,1.4,1.5,0.9,2.3c-2-2-4.2-4.1-6.9-4.2c-0.5,0-1,0-1.6,0.1c-1.4,0.2-2.7,0.6-3.9,1.3c-0.2-0.3-0.1-0.8,0.2-1.1
		C40.9,38.7,41.3,38.6,41.7,38.5"/>
	<path class="st0" d="M42.6,35.3c-0.6,0.2-1.3-0.2-1.6-0.7c-0.4-0.5-0.5-1.1-0.6-1.8c1.3-1.3,3.3-1.6,5.1-1.4s3.5,1,5.2,1.7
		c1.8,0.8,3.6,1.7,5.1,2.9s2.8,2.9,3.3,4.8c-1.1-0.2-2-0.9-2.8-1.5c-2.4-1.7-5.1-3-7.9-3.8C46.4,35,44.4,34.7,42.6,35.3"/>
	<path class="st0" d="M47.3,45.5c-1.4-0.3-2.7-0.6-4-1c-1.3-0.5-2.7-1.1-3.2-2.4c1.3-1.4,3.2-2.2,5.1-2.1c1.9,0,3.8,0.9,5.1,2.3
		c0.7,0.8,1.2,1.7,2.1,2.2c0.1,0,0.1,0.1,0.1,0.2c0,0.1-0.1,0.1-0.1,0.2C51.1,45.9,49.1,45.8,47.3,45.5 M43.7,42.9
		c0.3-0.7,0.5-1.4,0.8-2c-1.2-0.3-2.2,1.2-3.4,1c0.8,1.1,2.1,1.7,3.5,1.9C44.5,43.3,44.2,42.9,43.7,42.9 M49.8,42.8
		c-0.2-0.2-0.5-0.4-0.7-0.6c-0.2,0.5-0.4,1.1-0.6,1.6c-0.4,0.1-0.8,0.3-1.2,0.5c1.1,0.7,2.7,0.7,3.8-0.1
		C50.5,43.9,50,43.4,49.8,42.8"/>
	<path class="st0" d="M79.1,62.5c0.1-0.9,0.7-1.7,1.1-2.5s0.7-1.9,0.2-2.7c-0.4-0.7-1.3-1.1-1.6-1.9c-0.2-0.3-0.7-0.4-1-0.2
		s-0.5,0.6-0.7,0.9c-0.4,0.7-0.8,1.5-1.2,2.2c-0.5-0.2-0.5-1-0.3-1.6c0.6-1.8,2-3.2,3.6-4.2c1.1-0.7,2.3-1.4,3.6-1.5
		c1.3-0.1,2.7,0.3,3.5,1.4c1.1,1.6,0.4,3.7-0.4,5.5c-0.7,1.5-1.4,2.9-2.4,4.1c-1,1.2-2.5,2.2-4.1,2.4c-1,0.1-2-0.1-2.6-0.9
		c-0.4-0.5-0.5-1-0.8-1.5c-0.6-0.2-1.3,0.1-1.9,0.2c-0.7,0.1-1.4-0.5-1.1-1.1c1.2,0.4,2.5-0.9,3.6-0.2c0.4,0.2,0.6,0.7,0.7,1.1
		c0.2,0.4,0.4,0.8,0.8,1C78.4,63.1,79,63,79.1,62.5 M83.7,52.2c-1-0.1-1.9,0.2-2.8,0.6c-0.7,0.4-1.3,1-2.1,1.3
		c0.8,0.6,1.6,1.3,2.2,2.1s1,1.9,0.8,2.9c-0.1,0.4-0.3,0.9-0.5,1.3c-0.5,0.9-1.1,1.9-1.7,2.8c1,0.3,2-0.7,2.6-1.5
		c0.5-0.6,0.9-1.1,1.3-1.7c1-1.5,1.7-3.1,2-4.9c0.2-0.7,0.2-1.6-0.3-2.2C84.9,52.4,84.3,52.2,83.7,52.2"/>
</g>
</svg>
