<?xml version="1.0" encoding="utf-8"?>
<!-- Generator: Adobe Illustrator 19.2.1, SVG Export Plug-In . SVG Version: 6.00 Build 0)  -->
<svg version="1.1" id="Layer_1" xmlns="http://www.w3.org/2000/svg" xmlns:xlink="http://www.w3.org/1999/xlink" x="0px" y="0px"
	 viewBox="0 0 119.8 200" style="enable-background:new 0 0 119.8 200;" xml:space="preserve">
<style type="text/css">
	.st0{fill:#7B1FA2;}
</style>
<g id="stomach-child-main">
	<path class="st0" d="M102.9,200c0.2-2.2,0.4-4.4,0.6-6.6c0.1-0.6,0-1.2,0-1.9c0-2.4,0-4.7-0.2-7.1c-0.2-2.1-0.9-4.2-1.3-6.3
		c-0.4-2-0.8-4-1-6c-0.4-3.2-0.7-6.4-0.8-9.6c-0.2-2.7-0.2-5.3-0.2-8c0-1.5,0-3.1,0.2-4.6c0.6-5.3,0.3-10.5,0.3-15.8
		c0-2.8-0.6-5.5-0.9-8.3c-0.1-1,0-2-0.1-3c0-1.3-0.1-2.7-0.2-4c-0.1-2.2-0.2-4.5-0.3-6.7c0-0.4,0-0.7-0.1-1.1
		c-0.1-0.5-0.1-1.1,0.5-1.1c0.2,0,0.7,0.5,0.8,0.9c0.1,1.6,0.1,3.3,0.2,4.9c0.1,2.3,0.4,4.5,0.5,6.8c0,0.6-0.2,1.2-0.1,1.8
		c0.1,0.7,0.3,1.3,0.6,2c0,0.1,0.5,0.1,0.8-0.1c2.4-1.3,4.8-2.6,7.2-3.8c2.4-1.2,4.9-2.2,7.5-3.4c-0.2-0.5-0.5-1.1-0.7-1.7
		c-1.5-4.4-3.1-8.7-4.5-13.1c-1-3-1.8-6-2.1-9.1c-0.2-2.5-1.8-4.3-3.7-5.9c-0.3,0.5-0.6,0.9-0.8,1.4c-0.7,2.3-1.4,4.5-2.1,6.8
		c-0.1,0.3-0.5,0.4-0.7,0.7c-0.1-0.3-0.3-0.6-0.2-0.9c0.6-2.3,1.3-4.6,2-6.8c0.2-0.6,0.6-1.2,1-2.1c-1.4-0.5-2.7-0.9-4.1-1.5
		c-1.9-0.7-3.9-1.5-5.8-2.3c-2.2-1-4.3-2.2-6.5-3.3c-0.1,0.6-0.2,1.4-0.5,2.1c-0.7,2-1.4,3.9-2.1,5.8c-0.1,0.2-0.2,0.4-0.4,0.6
		c-1.7,1.8-3.4,3.7-5.2,5.4c-1.1,1-2.6,1.7-4,2.4c-1.6,0.8-3.3,1.4-4.9,2c-3.5,1.4-7.2,2.4-11.1,2.2c-3.8-0.1-6.9-1.7-9.9-3.9
		c-1.4-1-2.9-2.1-4.2-3.3c-1.9-1.9-3.8-3.9-5.1-6.3c-1.1-2-1.8-4.1-1.8-6.4c0-0.6,0.1-1.2,0.2-1.9c-6,3.9-12.7,6-18.7,9.7
		c0.9,3.2,1.8,6.4,2.7,9.5c0.1,0.2-0.1,0.5-0.2,0.8c-0.2-0.2-0.6-0.3-0.7-0.5c-0.7-2.4-1.4-4.9-2-7.3c-0.2-0.7-0.4-1.4-0.6-2.1
		c-0.1,0-0.2,0-0.2,0c-0.3,0.5-0.5,0.9-0.8,1.4c0-0.1,0-0.1,0-0.2c-0.3,0.1-0.7,0.2-0.9,0.4c-2.4,2.2-4.1,5-5.6,7.8
		c-1.6,3-3.1,6.1-4.5,9.1c-0.8,1.6-1.3,3.4-2,5.1c-0.2,0.4-0.4,0.8-0.6,1.1c-0.6,0.9-1.2,1.8-1.8,2.8c1,0.7,1.9,1.3,2.9,1.8
		c0.1,0.1,0.2,0.1,0.3,0.2c3.2,3.1,7.3,4.8,11,7.1c1.9,1.2,3.8,2.6,5.8,3.8c0.9,0.6,1.2,0.5,1.3-0.7c0.1-0.9,0.1-1.9,0.3-2.8
		c0.2-1.2,0.7-2.3,0.9-3.4c0.2-0.9,0.5-1.9,0.6-2.9c0.1-1.2-0.2-2.3-0.2-3.5c0-1.4,0.1-2.9,0-4.4c0-0.7-0.1-1.3-0.3-2
		c-0.1-0.4-0.4-0.9,0.2-1.1c0.5-0.2,1.1,0.1,1.2,0.8c0.1,0.9,0.2,1.7,0.2,2.6c0,0.5,0,1,0.2,1.6c0.5-1.2,1-2.4,1.5-3.6
		c0.5-1.2,1-2.5,1.6-3.6c0.1-0.2,0.8-0.3,0.8-0.2c0.2,0.3,0.5,0.8,0.4,1c-0.2,0.7-0.7,1.3-1,2c-0.8,2-1.7,3.9-2.3,5.9
		c-0.5,1.6-0.7,3.4-1,5c-0.3,1.5-0.7,2.9-1.1,4.4c-0.2,0.9-0.3,1.8-0.5,2.7c-0.2,1.5-0.5,3.1-0.7,4.6c-0.1,0.8-0.3,1.5-0.3,2.3
		c-0.1,2.9-0.1,5.8-0.2,8.7c0,0.7,0.2,1.1,0.7,1.5c0.5,0.3,0.9,0.7,1.3,1.2c1,1.3,2.1,2.6,3.6,3.5c2.1,1.2,3.9,2.8,6.2,3.5
		c1.7,0.6,3.4,1.1,5.1,1.7c0.4,0.1,0.8,0.4,1.2,0.6c2,1.4,4.3,1.7,6.6,1.5c1-0.1,1.9-0.6,2.8-1.1c1.9-1,4-1.8,6.2-1.9
		c2.2-0.1,4.3-0.2,6.5-0.2c0.8,0,1.6,0.2,2.5,0.3c1.9,0.2,3.7,0.4,5.6,0.5c0.5,0,1-0.1,1.6-0.2c1.8-0.1,3.5,1.4,2.9,3.7
		c-0.1,0.3-0.1,0.6-0.2,1c1.8-0.2,3.6-0.5,5.3-0.7c0.7-0.1,1.5-0.2,2.2-0.3c1.3-0.1,2.1,0.6,2.7,1.6c0.4,0.7,0.3,1.4-0.3,1.8
		c-0.7,0.7-1.5,1.4-2.4,1.7c-1.8,0.7-3.5,1.6-5.5,1.6c-0.4,0-0.8,0.5-1.4,0.8c1.4,0,2.6,0,3.8,0c2.1,0.1,4.1,0.2,6.2,0.3
		c0.9,0,1.2,0.8,1.3,1.5c0.2,0.9,0.2,1.8-0.7,2.3c-0.8,0.4-1.7,0.7-2.6,1c0.1,0.6,0.2,1.5,0.3,2.3c0.1,0.8-0.3,1.4-1,1.6
		c-1.3,0.4-2.6,0.8-3.9,1c-2.2,0.2-4.4,0.3-6.6,0.4c-0.8,0-1.6-0.1-2.3-0.1c-0.2,0-0.4,0.1-0.5,0.3c1.2,0.2,2.4,0.3,3.6,0.6
		c1.5,0.4,3.2,1.8,3,3.6c-0.1,1-1.1,1.9-2.1,2c-4.8,0.2-9.2-1.3-13.5-3.1c-1.5-0.6-3.1-0.9-4.6-1.3c-2.4-0.6-4.6-1.9-6.8-3.1
		c-1.7-0.9-3.4-1.5-5.2-1.8c-2.3-0.3-4.6-0.8-6.7-1.8c-0.7-0.3-1.4-0.5-2.2-0.8c0.1,0.2,0.2,0.3,0.3,0.4c1.8,1.8,3.6,3.6,5.5,5.4
		c2.8,2.5,5.8,4.6,9.4,5.5c1.1,0.3,2.1,0.6,3.2,1c0.2,0.1,0.5,0.1,0.6,0.3c0.2,0.2,0.4,0.5,0.6,0.8c-0.4,0.1-0.8,0.3-1.1,0.2
		c-1.3-0.4-2.6-0.9-3.9-1.4c-1.3-0.5-2.7-1-3.9-1.6c-2.7-1.4-5-3.3-7.1-5.5c-1.6-1.6-3.3-3-4.9-4.6c-0.3-0.3-0.5-0.8-0.7-1.2
		c-0.1-0.2-0.4-0.4-0.6-0.5c-1.9-0.5-3.7-1-5.6-1.5c-2.3-0.6-4.6-1.2-7.2-1.9c-0.2,1-0.6,2.1-0.8,3.2c-0.2,1.7-0.2,3.4-0.4,5.1
		c-0.2,1.5-0.6,3-0.9,4.5c-0.1,0.7-0.3,1.4-0.3,2.1c-0.1,6.2-0.1,12.4-0.2,18.6c-0.4,0-0.8,0-1.2,0c0-5.3,0-10.5,0-15.8
		c0-2.6,0.3-5.1,0.9-7.7c0.3-1.1,0.3-2.3,0.4-3.4c0.3-2.2,0.1-4.4,0.9-6.5c0.2-0.6,0.1-0.9-0.6-1.2c-1.8-0.7-3.5-1.7-5.3-2.3
		c-2.6-0.8-4.6-2.6-6.8-4.2c-0.9-0.6-1.8-1.2-2.8-1.8c-2-1.1-3.3-2.8-4-4.9c-0.7-1.9-0.5-3.8-0.3-5.8c0.2-1.7,0.4-3.4,0.7-5.1
		c0.5-3.1,1-6.2,2.1-9.2c0.7-1.9,1.3-3.9,1.9-5.9c0.1-0.2-0.2-0.6-0.4-0.7c-1.5-0.9-3-1.7-4.5-2.6c-1.2-0.7-1.3-1.1-0.6-2.3
		c1-1.8,1.8-3.8,2.9-5.5c1.7-2.7,2.6-5.8,4-8.6c2.4-4.9,4.6-9.9,8.1-14.2c1.1-1.4,2.4-2.6,3.6-3.9c0.4-0.4,1-0.5,1.6-0.7
		c0.7-0.3,1.5-0.5,2.2-0.9c3.8-1.7,7.6-3.4,11.3-5.3c2.1-1.1,4-2.4,6.1-3.6c2-1.2,3.9-2.3,5.9-3.4c0.3-0.2,0.8-0.3,1.2-0.5
		c-0.1-0.8-0.2-1.6-0.4-2.4c-0.6-2.1-1.2-4.2-2-6.2c-0.4-1.1-1.2-2.1-1.8-3.2c-0.3-0.5-0.7-0.2-1-0.1c-1.2,0.5-2.4,0.3-3.4-0.4
		c-0.5-0.3-0.8-0.9-1-1.4c-0.8-2-1.5-4.1-2.2-6.1c-0.5-1.4-1.1-2.8-1.4-4.3c-0.4-1.5,0-3,0.8-4.3c0.3-0.5,1-0.7,1.6-1.1
		c-0.3-0.9-0.6-2-1-2.9c-0.9-2.1-1.5-4.2-1.3-6.5c0.1-1.5,0.4-2.9,0.5-4.4c0.1-1.3,0.3-2.6,0.3-3.8c0-2.6,0.4-5.1,1.2-7.5
		c0.5-1.5,1.4-2.9,2.5-4c1.6-1.7,3.5-3.1,5.2-4.8c1.2-1.2,2.1-2.5,3.2-3.8c0.9-1.1,1.9-2.2,3-3.1c1.6-1.2,3.2-2.2,5-3.1
		c2.8-1.5,5.7-0.8,8.5,0.2c3,1.1,6.1,2.2,9.1,3.3c0.8,0.3,1.5,0.8,2.2,1.2c0.5,0.2,1,0.5,1.5,0.7c3,1.1,5.9,2.3,7.7,5.1
		c0.9,1.3,1.4,2.9,2.2,4.4c1.7,3,2.7,6.2,3.4,9.6c0.2,1,0.7,2.1,1.2,3c0.7,1.3,0.8,2.6,0.9,4c0.1,2.3,0.1,4.7,0.2,7.1
		c0,0.2-0.1,0.5-0.1,0.7c0,0.3,0.1,0.6,0.3,0.8c1.1,0.9,1.7,1.9,1.6,3.3c0,0.6-0.1,1.3,0,1.9c0.3,2.6-0.6,4.8-2,6.9
		c-0.6,0.9-0.9,2-1.4,3c-0.7,1.3-1.5,2.7-2.5,3.8c-0.8,1-2.1,1.1-3.2,0.5c-0.8-0.4-1.3-0.3-1.6,0.6c-0.7,2.5-1.4,4.9-2,7.4
		c-0.3,1-0.4,2.1-0.6,3.1c-0.2,1,0.1,1.3,1,1.8c1,0.5,1.8,1.2,2.7,1.9c0.8,0.6,1.7,1.3,2.5,1.9c1,0.8,1.9,1.7,2.9,2.4
		c1.3,0.9,2.6,1.9,3.9,2.6c2,1.1,4,2,6.1,2.9c1.7,0.7,3.5,1,5.1,1.8c2.8,1.3,4.6,3.5,5.9,6.3c0.9,2,0.9,4.1,1.5,6.1
		c1.4,4.4,2.7,8.9,4.2,13.3c0.7,2.2,1.8,4.3,2.6,6.4c0.4,1.1,0.8,2.3,1.1,3.5c0.3,0.8,0,1.2-0.7,1.7c-1.6,0.9-3.2,1.7-4.9,2.1
		c-1,0.2-1.6,0.6-1.6,1.9c0.1,2.2-0.3,4.4-0.3,6.5c0,3,0.4,5.9,0.9,8.9c0.3,1.7,0.4,3.4,0.6,5.1c0.2,2.1,0.4,4.1,0.7,6.2
		c0,0.2,0,0.4,0,0.7c0,2.4,0.1,4.9,0,7.3c-0.1,1.9-0.4,3.8-0.6,5.7c-0.2,2.1-0.5,4.2-0.7,6.4c-0.3,2.7-0.6,5.4-0.8,8
		c-0.1,0.9-0.1,1.7-0.2,2.6c-0.1,1.4-0.3,2.8-0.5,4.1c-0.2,1.5-0.3,2.9-0.5,4.4c-0.3,2.1-0.8,4.1-1.2,6.2c-0.4,0-0.8,0-1.2,0
		c0.1-0.6,0.2-1.2,0.3-1.7c0.3-1.7,0.7-3.5,0.9-5.2c0.3-2.1,0.5-4.1,0.7-6.2c0.2-2.1,0.5-4.2,0.6-6.3c0.2-2.6,0.3-5.1,0.6-7.7
		c0.3-3.1,0.9-6.1,1.2-9.2c0.2-2.2,0.3-4.4,0.2-6.6c-0.1-3.2-0.5-6.3-0.8-9.4c-0.1-0.8-0.2-1.6-0.3-2.4c-0.3-2.1-0.7-4.1-0.8-6.2
		c-0.2-2.3-0.2-4.7-0.2-7c0-1.7,0-3.4,0-5c0,0,0,0-0.1,0c-2.9,1-5.8,2.1-8,4.3c-0.7,0.7-1.1,1.5-1,2.6c0.2,2.6,0.3,5.3,0.2,7.9
		c-0.1,3.7-0.5,7.5-0.6,11.2c-0.1,3.4,0,6.9,0.2,10.3c0.1,2.9,0.4,5.8,0.8,8.7c0.4,3,1,5.9,1.6,8.9c0.4,2,0.9,4.1,0.8,6.2
		c-0.1,1.2,0,2.4,0,3.7c0,1.1,0.2,2.1,0.1,3.2c-0.1,2-0.4,4.1-0.6,6.1C103.8,200,103.4,200,102.9,200z M48.2,64.5
		c0.4-0.6,0.7-0.6,1.1-0.1c0.4,0.5,0.9,1,1.4,1.3c2.1,1.2,4.2,2.4,6.3,3.4c2,1,4.3,1,6.5,0.8c1.9-0.2,3.8-0.9,5.6-1.5
		c4.5-1.5,8.5-3.7,11.6-7.4c0.8-0.9,1.5-2,1.9-3.1c0.6-1.6,0.9-3.2,1.3-4.9c0.4-1.6,1.8-3,1.1-4.8c0-0.1,0.3-0.4,0.4-0.4
		c0.2,0,0.5,0.2,0.5,0.4c0.1,0.3,0.2,0.7,0.2,1c-0.1,1-0.4,1.9-0.6,3c1.3-0.3,1.7,0.8,2.1,1.8c0.1,0.2,0.1,0.4,0.2,0.5
		c0.2,0.2,0.4,0.4,0.6,0.6c0.2-1,0.2-1.8,0.2-2.6c0-1.2,0.1-2.3,0.1-3.5c0-0.5,0.2-0.8,0.7-0.7c0.2,0.1,0.3,0.6,0.3,0.9
		c0,1.1-0.1,2.3-0.2,3.4c0.6-0.6,1.2-1.3,1.5-2c0.3-0.8,0.6-1.6,0.8-2.4c0.3-1.4-0.8-2.3-1.2-3.3c-0.2-0.6-1.2-0.3-1.5,0.2
		c-0.2,0.3-0.7,0.7-0.9,0.6c-0.5-0.1-0.6-0.7-0.3-1.1c0.2-0.3,0.5-0.6,0.8-0.8c1.2-0.7,2.2-0.4,3.1,0.6c0.3-1.2-0.2-1.9-1.1-2.5
		c-1.1-0.7-1.3-0.7-2,0.4c-0.8,1.3-1.6,2.6-2.5,3.9c-0.2,0.2-0.7,0.4-0.9,0.4c-0.3-0.1-0.7-0.4-0.7-0.7c-0.3-1.8-0.5-3.6-0.7-5.4
		c-0.2-1.8-0.5-3.7-1.3-5.4c-0.4-0.8-0.7-1.7-0.7-2.6c-0.2-1.8-0.2-3.7-0.2-5.5c0-1.1-0.4-1.7-1.3-2.3c-2.3-1.6-5-2.3-7.6-3.3
		c-2.2-0.8-4.4-1.6-6.5-2.4c-1.1-0.4-2.2-1.1-3.5-1c-0.2,1.2-0.1,2.2,0.6,3.1c0.6,0.8,1.3,1.4,1.8,2.2c0.2,0.3,0.3,0.8,0.2,1.1
		c-0.1,0.2-0.7,0.4-1,0.3c-1-0.5-2-0.9-2.8-1.7c-1.8-1.6-2.4-3.8-2.8-6.1c-0.1-0.7-0.5-1.2-1.1-1.5c-1.5-0.8-2.8-1.8-3.9-3.2
		c-0.6,0.5-1.1,1-1.7,1.5c-1,0.9-2,1.7-2.9,2.6c-2,1.9-3.7,4.2-5.1,6.6c-0.8,1.5-1.9,3-2.2,4.6c-0.5,2.5-0.5,5-0.8,7.5
		c-0.1,1.3-0.2,2.6-0.3,3.8c-0.2,1.8-0.5,3.5-0.7,5.3c-0.1,1.1,0.1,2.2,0.1,3.3c0,0.3-0.3,0.6-0.4,0.9c-0.3-0.2-0.7-0.3-0.9-0.5
		c-0.4-0.4-0.6-0.9-0.9-1.3c-0.6-0.6-1.3-0.5-2-0.2c-0.3,0.1-0.5,0.5-0.7,0.8c0.9,0.2,1.7,0.2,2.2,0.6c1.7,1.6,4.1,2.8,3.8,5.8
		c0,0,0,0.1,0,0.1c0.6,2,1.1,3.9,1.7,5.9c0.5,1.3,1.2,2.6,1.8,3.9c0.3,0.6,0.8,1.2,1,1.9c0.7,2,1.3,3.9,1.8,5.9
		c0.4,1.6,0.6,3.3,0.9,5c0.2,1.1,0.3,2.2,0.3,3.3c0,0.3-0.2,0.7-0.5,0.8c-0.6,0.2-0.8-0.1-0.9-0.8c0-1.3-0.2-2.5-0.3-3.7
		c-0.9,0-1.1,0.3-1.1,1c0,2.6,0.4,5.1,1.4,7.6c0.7,1.9,1.4,3.8,3,5.1c0.9,0.7,2,1.3,3,2c1.8,1.2,3.7,2.3,5.8,2.5
		c3.4,0.2,6.9,0.1,10.2-1c2.2-0.8,4.4-1.7,6.3-3c1.3-0.9,2.2-2.2,3.3-3.4c1.5-1.8,2.8-3.8,3.3-6.1c0.3-1.1,0.3-2.2,0.3-3.3
		c-0.1-1.1-1.3-1.5-1.9-2.2c-0.4-0.4-1-0.6-1.7-1.1c-0.2,1.7-0.4,3.2-0.6,4.7c0,0.2-0.1,0.5-0.2,0.6c-0.2,0.2-0.5,0.5-0.7,0.4
		c-0.3-0.1-0.6-0.5-0.6-0.7c0-0.9,0-1.8,0.3-2.7c0.8-3,1.7-5.9,2.5-8.8c0.4-1.4,0.6-2.9,0.9-4.2c-1.6,1.2-3.2,2.4-4.8,3.5
		c-3,2-6.3,3.3-9.7,4.2c-2.6,0.7-5.2,0.9-7.8,0.2c-2.1-0.6-4.1-1.6-6-2.5C50.9,67.2,49.4,66.1,48.2,64.5z M86.2,167.2
		c-0.2,0-0.6,0-0.9,0c-2.5,0-4.9-0.1-7.4-0.1c-1.4,0-2.9-0.1-4.3,0.7c-0.4,0.2-1,0.2-1.5,0.2c-0.2,0-0.4-0.3-0.5-0.5
		c0-0.1,0.2-0.4,0.3-0.5c1.1-0.4,2.2-0.8,3.3-1.2c2.9-0.9,5.9-1.8,8.9-2.7c-0.1-1.2-0.6-2.4,0.6-3.4c-0.6,0-1,0-1.4,0
		c-2,0.3-4,0.5-6,0.8c-0.4,0.1-0.8,0.2-1.1,0.4c-1.3,0.8-2.7,1.2-4.1,1.1c-3-0.1-5.8-1.2-8.5-2.6c-0.2-0.1-0.2-0.5-0.4-0.7
		c0.3,0,0.7-0.2,1-0.1c2,0.7,3.9,1.4,5.9,2.1c1.6,0.5,3.2,0.3,4.9-0.5c-1-0.2-1.9-0.4-2.1-1.3c-0.2-0.8,0-1.7,0-2.6
		c-0.9-0.1-1.7-0.1-2.6-0.2c0,0.6,0,1.2,0,1.7c0,0.3-0.2,0.5-0.3,0.8c-0.2-0.2-0.5-0.3-0.5-0.6c-0.1-0.6-0.2-1.2-0.2-2.1
		c-1.8-0.2-3.7-0.4-5.7-0.6c-1.1-0.1-2.1,0-3.2,0c-2.4,0-4.7,0.7-6.8,1.8c-3.6,2-7.1,1.8-10.7-0.1c-1.4-0.7-2.9-1.5-4.4-2
		c-2.8-0.9-5.6-1.9-8-3.8c-1.7-1.4-3.5-2.9-5.1-4.5c-1.3-1.2-2.8-2.3-4.6-2.8c-0.9-0.2-1.8-0.6-2.7-0.5c-1.7,0.2-3.4,0.6-5.1,1
		c-1.7,0.4-3.4,0.7-4.7,2.1c-0.3,0.3-0.7,0.7-1,0.2c-0.2-0.2-0.1-1,0.1-1.1c0.8-0.6,1.6-1.4,2.6-1.7c2.8-0.9,5.7-1.5,8.6-2.2
		c0.8-0.2,1.1-0.5,1.3-1.2c0.7-1.9,1.4-3.8,2.1-5.9c-1.7-0.7-3.3-1.6-5-2.2c-3-1-5.8-2.6-8.4-4.4c-0.6-0.4-1.2-1-1.7-1.5
		c-0.7,2.2-1.5,4.3-2.1,6.4c-0.5,1.5-0.9,3.1-1.2,4.6c-0.6,3.3-1.1,6.6-1.5,9.9c-0.1,1-0.1,2.1,0.2,3.1c0.6,2.4,1.9,4.2,4.1,5.5
		c1.3,0.8,2.6,1.7,3.8,2.6c1.8,1.3,3.5,2.5,5.6,3.1c1.1,0.3,2.1,0.8,3.1,1.3c3.1,1.5,6.4,2.6,9.7,3.3c4.1,0.9,8,2.1,11.8,3.7
		c1.2,0.5,2.4,1,3.6,1.4c0.9,0.3,1.9,0.3,2.8,0.4c1.7,0.2,3.4,0.5,4.9,1.4c3,1.8,6.1,3.3,9.6,4c1.9,0.4,3.7,1.4,5.6,2.1
		c2.4,0.8,4.8,1.5,7.4,1.6c0.2,0,0.4-0.3,0.5-0.5c0.2-0.4,0.3-0.9,0.5-1.2c0.2-0.4,0.6-0.6,1-1.1c-1.2-0.2-2.3-0.3-3.3-0.5
		c-1.1-0.3-2.5-0.5-3.3-1.2c-1-0.9-1.9-0.8-3-0.4c-0.4,0.1-0.7,0.4-1.1,0.5c-0.3,0.1-0.6-0.1-0.9-0.1c0.1-0.3,0.2-0.7,0.3-0.8
		c1-0.4,2-0.9,3-0.9c3.4,0,6.7,0.2,10.1,0.3c1.4,0,2.8-0.3,4-0.5c0-1,0-2,0-2.9c-0.2,0-0.4,0-0.5,0c-1.8,0-3.6,0-5.4,0
		c-1.2,0-2.3-0.2-3.5-0.2c-0.9,0.1-1.7,0.5-2.6,0.7c-0.2,0.1-0.5-0.2-0.7-0.3c0,0,0.1-0.5,0.2-0.6c1.1-0.4,2.2-0.9,3.3-1
		c1.7-0.1,3.4,0.3,5.1,0.4c2.5,0.1,5-0.6,7.4-1.2C85.9,169,86,168.1,86.2,167.2z M84.2,77c-0.1,1.1,0,2-0.2,3
		c-0.5,2.5-1.8,4.7-3.4,6.7c-0.6,0.8-1.2,1.6-1.8,2.3c-1.7,1.8-3.7,2.9-6,3.9c-3,1.3-6.1,2.1-9.4,2.2c-1.3,0-2.6,0-3.9-0.2
		c-0.9-0.1-2-0.2-2.8-0.7c-2-1-4.1-2-5.9-3.3c-1.3-1-2.6-2.2-3.3-3.7c-1.4-3.1-2.7-6.4-2.5-10c0-0.6-0.2-0.8-0.7-0.5
		c-1.1,0.7-2.2,1.4-3.3,2.1c-0.2,0.1-0.3,0.4-0.4,0.6c-0.4,2-0.2,4,0.4,5.9c1.3,3.6,4,6.3,6.6,8.9c1.4,1.4,3.2,2.4,4.8,3.5
		c2.6,1.9,5.5,2.9,8.7,2.7c0.9,0,1.8-0.1,2.7-0.2c2.4-0.1,4.6-1,6.8-1.7c1.7-0.6,3.4-1.4,5.1-2.1c1.7-0.7,3.3-1.6,4.6-2.9
		c1.5-1.5,3-3.1,4.5-4.7c0.3-0.4,0.6-0.8,0.8-1.3c0.7-1.9,1.3-3.9,1.8-5.8c0.2-0.9,0.9-2.1-0.4-2.9C86.2,78.5,85.2,77.8,84.2,77z
		 M1.4,121.8c0.8,0.4,1.5,0.6,2.1,1c0.9,0.5,1.7,0.9,2.5,1.5c0.8,0.5,1.6,1.2,2.4,1.7c0.4,0.3,0.9,0.4,1.2,0.7
		c1.5,1.6,3.3,2.7,5.2,3.6c2.7,1.3,5.5,2.3,8.3,3.5c0.2-0.4,0.5-0.9,0.9-1.4c-0.2-0.1-0.2-0.2-0.3-0.3c-4.6-3.3-9.4-6.1-14.3-8.9
		c-0.3-0.2-0.7-0.3-1-0.6c-0.7-0.6-1.4-1.3-2.1-1.8c-1-0.8-2.1-1.4-3.2-2.2C2.5,119.8,2,120.7,1.4,121.8z M101.6,130.5
		c0.8-0.6,1.3-1.1,1.9-1.5c2.7-2,5.9-3.1,9.1-4.1c1.8-0.6,3.7-0.9,5.2-2.1c0.2-0.2,0.5-0.5,0.4-0.7c-0.2-1.2-0.6-1.5-1.8-1.2
		c-0.3,0.1-0.5,0.1-0.8,0.3c-1.6,0.7-3.3,1.2-4.8,2c-3.2,1.6-6.3,3.3-9.2,4.9C101.6,129.1,101.6,129.6,101.6,130.5z M41.2,55.7
		c-0.2-0.6-0.5-1.1-0.6-1.7c-0.1-0.6-0.1-1.2-0.2-1.8c0-0.2-0.1-0.4-0.3-0.6c-0.6-0.7-1.2-1.4-1.9-2.1c-0.4-0.4-0.9-0.8-1.4-1.1
		c-0.7-0.4-1.7-0.1-1.7,0.4c0,0.6,0,1.2,0.1,1.7c0.3,1.1,0.8,2.2,1.2,3.3c0.5,1.5,1,3,1.5,4.5c0.1,0.4,0.5,0.9,0.8,0.4
		c0.4-0.8,0.8-1.6,0.4-2.6c-0.4-1.1-0.5-2.3-0.7-3.4c0-0.2,0.3-0.5,0.5-0.7c0.2,0.2,0.4,0.5,0.5,0.7c0.1,0.8,0.2,1.5,0.3,2.3
		C40,55.9,40.4,56.1,41.2,55.7z M88.5,56.4c-0.6-0.7-1-1.1-1.3-1.6c-0.3-0.4-0.4-0.9-0.6-1.3c-0.1-0.2-0.4-0.4-0.6-0.4
		c-0.3,0.1-0.8,0.3-0.9,0.5c-0.4,1.1-0.7,2.3-1,3.5c0,0.1,0.1,0.3,0.1,0.5c0.2,0.3,0.4,0.7,0.5,1c0.2,0.6,0.3,1,1.1,0.7
		C87.3,58.8,87.8,57.4,88.5,56.4z M24.1,136.2c-0.9-0.5-0.9,0.4-1,0.8c-0.7,1.9-1.4,3.9-2.1,5.9c0.9,0.4,1.9,0.7,2.8,1.1
		C23.9,141.3,24,138.8,24.1,136.2z M38.7,60.1c0.4,1.2,1.4,1.4,2.7,1.1c0.7-0.1,1-0.5,0.8-1.2c-0.2-0.8-0.4-1.5-0.5-2.3
		c-0.1-0.5-0.1-1-0.8-1c-0.7,0-0.6,0.6-0.7,1C40,58.7,39.8,59.7,38.7,60.1z M75.6,159.3c1.2,0,1.5-0.2,1.5-1.6
		c0-0.8-0.5-1.5-1.1-1.5c-1.7,0-2.1,0.4-2.1,1.6C73.9,159.1,74.1,159.3,75.6,159.3z M85.1,171.5c-0.4,0.2-0.8,0.4-1.2,0.6
		c-0.2,0.1-0.4,0.3-0.4,0.5c-0.1,0.4-0.1,0.8,0,1.2c0.1,0.3,0.5,0.9,0.6,0.8c0.6-0.1,1.3-0.3,1.6-0.7
		C86.2,173.4,85.6,172,85.1,171.5z M87.2,170c0.4-0.1,1-0.2,1.2-0.4c0.3-0.3,0.4-0.9,0.5-1.3c0-0.2-0.2-0.5-0.4-0.6
		c-0.6-0.3-1.7,0.7-1.6,1.4C87,169.3,87,169.6,87.2,170z M86.6,160c-1.7,0.9-1.8,1.2-1.1,2.5C87.4,161.5,87.7,161,86.6,160z
		 M78.1,180.5c0.2-0.7-0.4-1.1-0.9-0.9c-0.5,0.2-1,0.8-1.1,1.3c-0.1,0.6,0.5,0.7,1,0.7C77.9,181.6,78.2,181.2,78.1,180.5z"/>
	<path class="st0" d="M73.8,4.1c-0.7-0.2-1.4-0.3-2.1-0.5c0-0.1,0-0.2,0-0.2c0.7,0.1,1.4,0.2,2.1,0.2C73.9,3.7,73.8,3.9,73.8,4.1z"
		/>
	<path class="st0" d="M62.8,56.7c-0.8-0.2-1.6-0.2-2.3-0.4c-1.9-0.7-3.8-1.4-5.6-2.3c-1.3-0.7-1.3-1.4-0.1-2.2
		c1.6-1.1,3.3-2.1,5-3.1c0.5-0.3,1.2-0.3,1.9-0.4c0.6-0.1,1.3,0,1.8-0.2c1.8-0.5,3.3,0.2,4.8,1c0.8,0.5,1.5,1.2,2.3,1.8
		c0.6,0.5,0.5,1,0,1.5c-1.6,1.8-3.4,3.1-5.8,3.8C64.1,56.4,63.4,56.5,62.8,56.7z M56.1,53.4c0.7,0,1.5,0,2.2,0c0.1,0,0.2,0,0.3,0
		c2.9,0.1,5.8-0.3,8.7-0.7c0.7-0.1,1.3-0.3,2-0.5C66.7,50.2,58,50.8,56.1,53.4z M69.4,51c0.1,0,0.1-0.1,0.2-0.1
		c-0.4-0.3-0.7-0.5-1.1-0.8c-1.6-1.1-3.3-2-5.3-1.1c-0.3,0.1-0.7,0.1-1,0c-0.9-0.2-1.6,0-2.4,0.4c-0.8,0.4-1.6,0.7-2.3,1.2
		c-0.8,0.5-1.6,1-2.3,1.6c0,0.1,0.1,0.1,0.1,0.2c1-0.3,1.9-0.5,2.9-0.8c2.3-0.7,4.6-1.4,7.1-1.2C66.6,50.3,68,50.7,69.4,51z
		 M56.7,54.1c3.8,2.7,10.1,2.1,12.6-1.3C65.1,53.8,60.9,54.1,56.7,54.1z"/>
	<path class="st0" d="M65.5,38.9c0.5-0.7,1-0.7,1.5-0.2c1,0.9,1.5,2.1,1.1,3c-0.2,0.5-0.5,0.8-1.1,0.7c-1.1-0.1-2.1,0.3-2.8,1.2
		c-0.8,1-2.5,1-3.6,0.4c-0.8-0.5-1.6-0.8-2.6-0.6c-0.7,0.1-1.7,0.3-2.2-0.6c-0.5-0.8,0-1.6,0.3-2.4c0.1-0.2,0.2-0.4,0.3-0.5
		c0.2-0.2,0.4-0.3,0.6-0.4c0,0.3,0.1,0.6,0,0.9c-0.1,0.4-0.4,0.7-0.5,1.1c-0.2,0.7-0.1,1,0.7,1c0.5,0,1,0,1.5,0
		c0.8,0,1.6,0.1,2.3,0.6c0.9,0.7,1.9,0.2,2.7-0.4c0.9-0.7,1.7-1.2,2.8-1.1c0.6,0.1,1-0.6,0.7-1.2c-0.2-0.4-0.7-0.8-1.1-1.1
		C66,39.2,65.7,39.1,65.5,38.9z"/>
	<path class="st0" d="M79.5,31.3c-0.3,0.1-0.6,0.3-0.8,0.2c-1.9-0.6-3.8-1.3-5.7-1.8c-2.1-0.5-4.1,0.1-6,1c-0.3,0.1-0.9,0.2-1,0
		c-0.3-0.5,0-0.8,0.4-1c2.5-1.1,5.1-1.6,7.9-0.7c1.5,0.5,3.1,1,4.6,1.6c0.3,0.1,0.5,0.3,0.7,0.4C79.6,31,79.5,31.1,79.5,31.3z"/>
	<path class="st0" d="M57.2,31.6c-0.3,0.1-0.6,0.2-0.8,0.2c-1.2-0.2-2.4-0.6-3.5-0.5c-2.8,0.1-5.5,0.7-8,2.1c-0.2,0.1-0.6,0-0.9,0
		c0.1-0.3,0.2-0.7,0.4-0.8c1.5-0.7,3-1.4,4.5-1.8c1.6-0.4,3.2-0.5,4.9-0.5c0.9,0,1.8,0.3,2.8,0.5c0.2,0.1,0.4,0.3,0.7,0.5
		C57.2,31.4,57.2,31.5,57.2,31.6z"/>
	<path class="st0" d="M77.2,36.8c-1.3-0.2-2.5-0.4-3.6-0.5c-1.8-0.2-3.6-0.5-5.4-0.7c-0.2,0-0.5-0.1-0.6-0.2
		c-0.2-0.1-0.4-0.4-0.6-0.6c0.3-0.2,0.6-0.6,0.9-0.6c2.5,0.3,5,0.6,7.5,1c0.6,0.1,1.2,0.2,1.8,0.4c0.2,0.1,0.6,0.5,0.5,0.6
		C77.6,36.5,77.3,36.7,77.2,36.8z"/>
	<path class="st0" d="M46.4,38.5c-0.1-0.1-0.6-0.3-0.5-0.5c0-0.3,0.3-0.6,0.5-0.7c2.9-0.7,5.7-1.3,8.6-1.9c0.3-0.1,0.7,0.3,1.1,0.4
		c-0.3,0.3-0.5,0.6-0.8,0.7c-2.2,0.5-4.4,1-6.6,1.5C48,38.3,47.3,38.4,46.4,38.5z"/>
</g>
</svg>
