<?xml version="1.0" encoding="utf-8"?>
<!-- Generator: Adobe Illustrator 19.2.1, SVG Export Plug-In . SVG Version: 6.00 Build 0)  -->
<svg version="1.1" id="Layer_1" xmlns="http://www.w3.org/2000/svg" xmlns:xlink="http://www.w3.org/1999/xlink" x="0px" y="0px"
	 viewBox="0 0 122.6 200" style="enable-background:new 0 0 122.6 200;" xml:space="preserve">
<style type="text/css">
	.st0{fill:#2E7D32;}
</style>
<g id="throat-child-main">
	<path class="st0" d="M0,200c0.9-1.8,1.8-3.6,2.8-5.3c1.3-2.5,2.6-5,4.1-7.4c1.1-1.7,2.5-3.1,3.6-4.8c0.9-1.3,1.7-2.8,2.2-4.3
		c1-2.9,2.5-5.6,4-8.2c1.7-2.8,2.9-5.9,4.3-8.8c1.7-3.5,3.4-7,5.2-10.4c1.7-3.1,3.7-6,4.7-9.4c0.6-2.2,1.7-4.3,2.4-6.5
		c0.9-2.8,1.6-5.7,2-8.7c0.2-1.5-0.5-2.6-1.2-3.7c-2.8-4.2-4.5-9-6.7-13.6c-1-2-1.6-4.1-2.5-6.1c-0.7-1.6-1.6-3.1-2.4-4.6
		c-0.6-1.1-0.4-2.4,0.9-2.8c1.4-0.5,2.7-1.2,4.1-1.8c0.1-0.1,0.2-0.2,0.4-0.3c-1-1.1-2-2.1-2.9-3.2c-0.9-1.1-2-2.2-2.8-3.3
		C21.2,84.9,20,83,19,81.1c-1.5-3-1.7-6.1-0.5-9.2c0.2-0.5,0.6-0.9,0.9-1.4c0.5-1.1,1.1-2.3,1.5-3.5c0.4-1.3,1.2-2,2.4-2.7
		c0.9-0.5,1.5-1.5,2.3-2.3c0.7-0.8,1.3-1.6,2-2.3c0.5-0.5,0.1-0.9-0.1-1.3c-0.9-1.8-2-3.6-2.7-5.5c-0.7-1.9-1.1-4-0.7-6.1
		c0.3-1.8,0.4-3.7,0.4-5.6c0-4.5,0.9-8.8,2.1-13.1c0.6-2.2,1-4.6,1.8-6.8c1.1-3.2,3.2-5.7,5.7-7.9c2.2-1.8,4.4-3.6,6.6-5.3
		c0.6-0.5,1.4-0.9,2.1-1.3C44,6,45.2,5.2,46.3,4.4c1.3-0.9,2.8-1.5,4.3-1.9c2.2-0.6,4.4-1.4,6.6-2c1-0.3,2.1-0.2,3.2-0.3
		c4.1-0.6,7.9,0.3,11.8,1.5c2.5,0.8,4.8,1.8,6.6,3.8c1.8,2,3.5,4.3,5.1,6.5c2,2.8,3.1,6,4,9.2c1.3,4.7,3.3,9.1,5.9,13.2
		c1.7,2.7,2.3,5.9,3,9c0.4,1.8,0.8,3.6,1.2,5.4c0.4,2.4,0.7,4.7,1.1,7.1c0.1,0.8,0.2,1.7,0.4,2.5c0.2,0.9,1.1,0.7,1.7,0.9
		c2.8,0.5,5.6,1,8.3,1.5c0.7,0.1,1.5,0.4,2.2,0.5c1.4,0.2,2.3,1.1,3.1,2.1c0.9,1.1,2,2,2.9,3.1c1.2,1.4,2.2,2.9,3.3,4.4
		c1.7,2.3,2,4.8,1.4,7.5c-0.4,1.6-0.7,3.3-1.3,4.8c-0.3,0.7-0.9,1.4-1.4,2c-1.3,1.4-2.6,2.8-3.9,4.2c-0.2,0.2-0.2,0.6-0.2,0.8
		c0.2,1.8,0.6,3.6,0.6,5.4c0.1,4.1,0.1,8.2,0.2,12.3c0.1,2.9-0.6,5.8-1.4,8.6c-0.7,2.4-1.8,4.7-2.5,7.1c-0.9,3.1-2.2,6.2-2.7,9.4
		c-0.3,2.3-1.1,4.5-1.7,6.7c-0.6,2.7-1.3,5.3-1.8,8c-0.3,1.7-0.3,3.4-0.3,5.1c-0.1,1.9-0.1,3.7-0.1,5.6c0,0.8,0.1,1.5,0.2,2.3
		c0.3,3.7,2.1,7,2.7,10.6c0.4,2.2,0.8,4.4,1.1,6.6c0.4,2.7,0.8,5.4,1.1,8.2c0.2,1.7,0.3,3.4,0.4,5c0.1,1.6,0,3.2,0,4.7
		c0,1.4,0.1,2.9,0.2,4.3c-0.5,0-1,0-1.5,0c0-4.6,0.1-9.1-0.5-13.7c-0.3-2.3-0.5-4.6-0.8-6.8c-0.3-2.2-0.6-4.5-1.1-6.7
		c-0.5-2.3-1.2-4.6-1.8-6.9c-0.4-1.5-1-3-1.5-4.5c-1.8,0.4-3.8,0.8-5.7,1.2c-2.2,0.4-4.4,0.8-6.6,1.2c-1.5,0.2-2.9,0.4-4.4,0.4
		c-3.3,0-6.5,0-9.8,0c-0.9,0-1.9-0.2-2.8-0.3c-0.9-0.1-1.8-0.1-2.7-0.2c-2.4-0.4-4.9-0.9-7.3-1.3c-0.9-0.2-1.9-0.3-2.8,0.2
		c-0.3,0.2-0.8,0.3-1.1,0.3c-2.9,0-5.9,0.3-8.2-2.1c-0.1-0.1-0.2-0.1-0.3-0.1c-1.9-0.5-3.7-1.1-5.6-1.5c-3.7-0.8-6.9-2.5-9.7-5
		c-2.5-2.2-5-4.4-7.6-6.6c-0.8,1.2-1.5,2.3-2.1,3.4c-1.8,3.6-3.7,7.1-5.4,10.8c-1.6,3.5-3.1,7.1-5.3,10.4c-1.2,1.8-2.1,4-2.8,6.1
		c-0.7,1.9-1.5,3.7-2.7,5.3c-1.2,1.6-2.7,3.1-3.7,4.8c-2.3,3.9-4.3,7.8-6.5,11.7C1,200,0.5,200,0,200z M75.2,54.2
		c0.2-3.6-0.4-6.8-1.7-10c-1.8-4.2-5-7.3-8.5-10C62,32,58.8,30.1,55.7,28c-2.9-2-5-4.7-7-7.6c-0.5-0.8-0.8-1.9-0.6-2.8
		c0.3-2,1.4-3.7,2.9-5.1c1.4-1.4,3-2.6,4.5-4c0.8-0.8,1.5-1.7,2.2-2.6c0.4-0.6,0.1-1.1-0.5-1.3c-0.3-0.1-0.8,0.2-1,0.5
		c-1.3,1.3-2.4,3-3.8,4c-2.2,1.6-3.9,3.5-5.1,5.9c-0.7,1.3-1.6,2.6-2.8,3.6c-2,1.7-4.4,2.3-6.9,3c-2.3,0.6-4.3,1.6-5.7,3.6
		c-1.3,1.9-1.7,4.1-1.9,6.4c-0.1,2.1-0.1,4.2,0,6.3c0.1,1.6,0.6,3.2,1,5c0.4-0.2,0.5-0.3,0.7-0.4c1.3-0.8,2.7-1,4.2-0.8
		c0.2,0,0.4,0.3,0.6,0.5c-0.2,0.2-0.4,0.5-0.6,0.5c-0.3,0.1-0.7,0.1-1,0c-1-0.1-1.8,0.2-2.7,0.7c-0.7,0.4-0.8,0.9-0.6,1.6
		c0.2,1.1,0.5,2.3,0.7,3.4c0.1,0.7,0.4,1,1,0.7c1.2-0.5,2.4-1,3.6-1.5c0.3-0.1,0.7-0.1,1.1-0.2c0,0.1,0.1,0.3,0.1,0.4
		c-1,1.1-2.3,2-3.9,2.3c-0.5,0.1-1.2-0.1-1.5,0.2c-0.2,0.2-0.1,0.9-0.1,1.4c0,0.2,0,0.3,0,0.5c0,1.6,0,3.3,0,4.9
		c0,0.4,0.1,0.9,0.2,1.3c1.6-0.3,3.2-0.5,4.7-0.8c0.2,0,0.4-0.4,0.5-0.6c0.3-1.8,0.5-3.6,0.8-5.4c0.3-1.7,0.5-3.4,0.2-5.2
		c0-0.2,0.1-0.5,0.2-0.8c0.1,0,0.2,0,0.3,0c0.2,0.4,0.5,0.9,0.5,1.3c0.1,2.7-0.1,5.4-0.7,8.1c-0.1,0.7-0.2,1.4-0.2,2.1
		c0.3,0,0.6,0,0.8,0c2.5-0.5,5-1,7.5-1.4c2.7-0.5,5.4-1.2,8.2-1.3c4.2-0.3,8.5-0.2,12.7-0.2C70.5,54.2,72.8,54.2,75.2,54.2z
		 M87.9,76.2c-2.4,0.4-2.6,0.4-4.1-0.3c-1.1-0.5-2.3-0.7-3.5-0.5c-2.7,0.4-5.5,0.8-8.2,1.4c-2.3,0.5-4.6,1.4-6.9,2
		c-3,0.9-6,1.7-9,2.5c-2,0.6-3.6,1.7-4.8,3.5c-0.8,1.2-1.1,2.1-0.7,3.6c1,3.3,1.6,6.8,2.4,10.2c0.8,3.6,1.6,7.2,2.6,10.8
		c1.1,4.1,2.5,8,4.8,11.6c0.8,1.2,1.5,2.4,2.3,3.7c0.3-0.5,0.5-0.9,0.7-1.3c0.9-1.5,2-2.8,2.7-4.4c1.5-3.4,2.8-7,4.7-10.3
		c0.1-0.2,0.2-0.5,0.1-0.7c-0.2-1.8-0.6-3.6-0.7-5.4c-0.4-5,0.1-9.8,2.1-14.4c1-2.5,2.5-4.7,4.5-6.6c0.3-0.3,0.7-0.6,1.1-0.6
		c0.3,0,0.8,0.2,1,0.5c0.1,0.1-0.2,0.7-0.4,0.9c-0.4,0.4-0.9,0.6-1.3,1C75,86,73.5,89,72.6,92.3c-0.5,1.7-0.6,3.6-0.8,5.4
		c-0.4,2.7-0.2,5.4,0.3,7.9c1.1-1.8,2.2-3.7,3.3-5.6c0.2-0.4,0.4-0.9,0.6-1.3c0.2-0.4,0.3-0.8,0.6-1.1c1.2-1.8,2.7-3.3,4.5-4.4
		c4.2-2.5,8.4-4.9,12.7-7.2c1.7-0.9,3.7-1.5,5.6-2.1c1.9-0.6,2.1-0.5,1.8-2.4c-0.2-1.6-0.5-3.4-1.8-4.6c-0.9-0.8-1.8-1.6-2.8-2.2
		c-1-0.7-2.1-1.3-3.3-1.8c-1.4-0.7-2.9-1.3-4.5-1.9C88.5,72.8,88.2,74.5,87.9,76.2z M100.6,76c1.5,2,2,4.3,2.2,6.6
		c0,0.5,0.2,0.9,0.8,1.1c1,0.4,2,0.8,2.9,1.3c2.3,1.5,4.3,3.3,5,6.2c0.8,3.2,1.2,6.4,1.3,9.6c0,2-0.3,4-0.3,6
		c-0.1,4-1.2,7.6-3.7,10.8c-1.8,2.4-3.7,4.7-5.5,7.1c-1.4,1.9-2.7,3.9-4.7,5.4c-0.6,0.4-1.2,0.9-1.6,1.4c-1.6,1.8-3.1,3.7-4.8,5.5
		c-0.9,1-1.7,1.9-2.8,2.7c-1.1,0.7-2,1.9-2.9,2.9c-2.6,2.7-5.3,5.3-8.4,7.5c-0.9,0.7-1.8,1.4-2.6,2.2c-2.3,2.6-4.5,5.4-7.6,7.2
		c-0.5,0.3-1.1,0.7-1.7,1.1c3.4,0.5,6.6,1.1,9.8,1.5c2.2,0.3,4.4,0.5,6.6,0.6c2.2,0.1,4.3-0.1,6.5-0.2c1.3-0.1,2.6-0.2,3.9-0.4
		c3.5-0.7,7-1.5,10.5-2.1c1-0.2,1.3-0.5,1.3-1.6c-0.1-4.5-0.2-8.9,0.7-13.3c1-4.6,2.1-9.2,3.3-13.8c0.5-2.1,1.2-4.2,1.7-6.2
		c0.2-0.6,0.3-1.3,0.5-1.9c0.8-2,1.7-3.9,2.3-5.9c0.9-2.9,1.6-5.9,1.6-9c0-2,0-3.9,0-5.9c-0.1-3.4-0.2-6.8-0.4-10.3
		c-0.1-1-0.1-2.1-1.3-2.8c-0.5-0.3-0.8-1.2-1-1.8c-0.3-0.8-0.2-1.8-0.5-2.6c-0.7-2.1-2-3.9-3.5-5.4c-1.2-1.2-2.6-2.5-4.6-2.5
		c-0.2,0-0.4-0.1-0.5-0.2C102.5,76.1,101.6,76,100.6,76z M32.6,68.9c0.6,2.4,1.3,5,2,7.6c0.1,0.3-0.1,0.6-0.2,0.9
		c-0.3-0.2-0.7-0.3-0.8-0.6c-0.4-0.7-0.6-1.5-0.9-2.3c-0.5-1.2-0.8-2.5-1.4-3.6c-0.6-1.2-0.8-2.4-0.5-3.7c0.2-0.8,0.2-1.7,0.2-2.5
		c-2-0.9-3.7,0-5.6,0.6c-0.1,0.7-0.2,1.5-0.3,2.4c-0.1,0.6,0.1,0.8,0.8,0.8c0.4,0,0.8,0.2,1.1,0.4c0,0.1,0,0.3,0,0.4
		c-0.5,0.2-1.1,0.3-1.6,0.5c0,0.1,0,0.3,0.1,0.5c0.8,2.1,1.7,4.2,2.5,6.3c0.2,0.4,0.7,1,0,1.4c-0.1,0.1-0.7-0.6-0.9-1
		c-0.6-1.5-1.1-3-1.7-4.5c-0.9-1.8-1.3-3.6-1.1-5.6c0-0.4,0.1-0.8,0.2-1.2c-0.1-0.1-0.1-0.1-0.2-0.2c-0.5,0.5-1.4,0.9-1.6,1.5
		c-0.7,2.2-1.2,4.4-1.7,6.6c-0.1,0.4,0,0.9,0,1.3c0.1-0.1,0.2-0.2,0.2-0.2c0.5,0.2,1.3,0.3,1.4,0.5c0.1,1.1-0.9,0.5-1.5,0.9
		c0.3,0.5,0.5,1.1,0.8,1.6c0.7,1.3,1.4,2.5,2.1,3.8c0.1,0.2-0.1,0.5-0.1,0.8c-0.2-0.1-0.6-0.2-0.7-0.3c-0.8-1.3-1.5-2.6-2.3-3.9
		c-0.7-1.2-1.2-2.4-1-3.8c0-0.5,0.1-0.9,0.2-1.4c-0.1,0-0.2,0-0.3,0c-0.2,1.1-0.4,2.1-0.5,3.2c-0.2,2.8,1.2,5.2,2.6,7.5
		c1.4,2.4,2.9,4.7,5,6.6c0.8,0.7,1.4,1.4,2.2,2.1c0.3,0.2,0.8,0.4,1.1,0.3c1.7-0.5,3.4-1,5-1.6c2.3-0.8,4.5-1.8,6.7-2.5
		c2-0.6,4-1.1,6.1-1.6c0.3-0.1,0.6-0.2,0.8-0.5c1.1-1.5,2.2-3,3.3-4.6c0.3-0.5,0.5-1.2,0.4-1.7c-0.3-1.5-0.8-3-1.3-4.4
		c-0.3-0.8-0.9-1.5-1.4-2.1c-0.7,0.6-1.3,1.1-1.8,1.6C47.3,75,47,74.8,47,74.3c0-0.3,0.3-0.7,0.6-0.9c0.3-0.3,0.7-0.5,1.1-0.8
		c0-0.1,0-0.2,0-0.3c-2.6-0.8-5.2-1.6-7.8-2.5c0.1,0.4,0.2,0.6,0.2,0.9c0.6,1.8,1.2,3.5,2.7,4.8c1.1,0.9,2.2,1.8,3.1,2.8
		c0.8,0.9,1.3,1.9,1.9,2.9c0.1,0.2-0.1,0.7-0.2,1c-0.3-0.2-0.7-0.3-0.8-0.5c-0.8-1.8-2.2-3-3.7-4.1c-1.9-1.3-2.9-3.3-3.7-5.3
		c-0.2-0.6-0.4-1.3-0.6-1.9c-0.7-1.8-1.5-3.5-1.4-5.5c0-0.2-0.1-0.5-0.1-0.5c-1.9,0-3.7,0-5.5,0c-0.1,1.2-0.2,2.2-0.3,3
		c0.7,0.3,1.2,0.5,1.7,0.8C33.5,68.5,33.1,68.7,32.6,68.9z M93,71c1.2-1.2,2.2-2.6,2.1-4.5c0-0.2,0.4-0.4,0.6-0.6
		c0.2,0.2,0.4,0.3,0.5,0.6c0.4,1.1-0.3,3.3-1.2,4.2c-0.3,0.3-0.5,0.7-0.7,1.1c0.4,0.2,0.7,0.6,1.1,0.6c1.3,0.1,2.6,0.1,3.9,0.3
		c1.7,0.2,3.4,0.4,5.1,0.7c0.6,0.1,1.2,0.2,1.8,0.3c0.5,0.1,0.6-0.1,0.6-0.7c-0.1-0.6-0.1-1.3,0-1.9c0-0.2,0.4-0.4,0.6-0.6
		c0.1,0.2,0.4,0.5,0.4,0.7c0.1,0.8,0.1,1.6,0.2,2.5c1,0,1.9,0,2.8,0c0.7,0,1.5-0.2,2,0.1c2,0.9,4.1,1.9,4.7,4.3
		c0.2,0.8,0.3,1.7,0.4,2.5c0.1,1.1,0.6,1.8,1.8,2c0.4-1.6,1.1-3.1,0.8-4.8c-0.3-2.2-1.2-4.2-2.6-5.8c-0.7-0.8-1.7-1.4-2.7-2
		c-1-0.6-2.1-1-3.1-1.6c-0.3-0.2-0.3-0.7-0.5-1c0.4,0,0.8,0,1.1,0.1c0.8,0.4,1.6,1,2.4,1.3c2.1,0.8,3.6,2.1,4.6,4
		c0.4,0.7,0.8,1.4,1.2,2.1c0.1,0,0.2-0.1,0.2-0.1c-0.4-0.9-0.6-1.8-1.1-2.6c-0.9-1.3-1.8-2.6-2.9-3.8c-1.5-1.7-3-3.4-4.5-5.1
		c-0.2-0.2-0.5-0.4-0.9-0.5c-1.9-0.5-3.9-1-5.8-1.4c-3.1-0.6-6.2-1.2-9.3-1.2c-1,0-2-0.1-2.9-0.3c-2.1-0.5-4.1-1-6.2-1.5
		c1.5,3.6,0.6,7.5,1.1,11.1C90.3,70,91.6,70.5,93,71z M51.6,158.9c-0.7-1.1-1.5-2.3-2.2-3.4c-3-4.6-5.1-9.6-7.2-14.7
		c-1-2.5-1.8-5.1-2.8-7.7c-0.7-1.9-1.6-3.8-2.4-5.6c-0.1,0-0.2,0-0.3,0c-0.8,6.6-4,12.5-6,18.8c0.4,0.4,0.7,0.8,1.2,1.2
		c2.3,2,4.6,3.9,6.9,5.9c1.9,1.7,4,3.1,6.5,3.8C47.4,157.7,49.4,158.3,51.6,158.9z M112.8,83c0.8-0.7,1.3-1.7,0.9-2.9
		c-0.3-0.8-0.6-1.6-0.9-2.5c-0.4-1.1-1.1-2.1-2.4-2.2c-1.1-0.1-2.3-0.2-3.4-0.2c-0.2,0-0.5,0.3-0.5,0.5c0,0.2,0.2,0.4,0.4,0.6
		c0.6,0.5,1.3,0.9,1.8,1.5C110.1,79.4,111.4,81.2,112.8,83z M114.9,76.2c-0.1,0.1-0.2,0.1-0.3,0.2c0.2,0.8,0.4,1.6,0.6,2.4
		c0.4,1.6,0.4,3.2-0.7,4.6c-0.9,1.2-1.2,2.5-0.9,4c0.1,0.3,0.3,0.8,0.5,0.8c0.3,0.1,0.8-0.1,1-0.3c0.8-0.8,1.4-1.7,2.2-2.5
		c0.6-0.8,0.8-1.7,0.2-2.2c-0.8-0.7-1.2-1.6-1.2-2.7c0-0.5,0-1.1-0.2-1.5C115.9,78,115.4,77.1,114.9,76.2z M33.1,63.2
		c0.1,0.1,0.2,0.2,0.2,0.3c1.1,0,2.2,0,3.2,0c0.3,0,0.6-0.2,0.7-0.5c0.1-0.2-0.1-0.6-0.2-0.7c-0.7-0.7-1.7-0.9-2.6-0.6
		C33.9,62,33.5,62.7,33.1,63.2z M30.8,63.2c-0.4-1.2-1.3-1.8-2.1-1.5c-1.3,0.3-2.1,1.3-2,2C28,63.5,29.4,63.4,30.8,63.2z"/>
	<path class="st0" d="M51,46.8c-1.4,0-2.8,0-3.8-1.1c-0.2-0.2-0.2-0.5-0.2-0.8c0.3,0,0.6-0.2,0.8-0.1c2.5,1.2,4.9,0.8,7.2-0.5
		c0.2-0.1,0.3-0.3,0.5-0.3c0.3,0,0.6,0.1,0.8,0.3c0.1,0.2,0,0.7-0.2,0.7C54.3,45.9,52.8,47,51,46.8z"/>
	<path class="st0" d="M46.6,40.3c0.4-0.2,0.8-0.5,1.3-0.8c2.4-1.2,4.9-1.5,7.6-0.7c0.4,0.1,1,0.1,0.9,0.8c-0.2,0.7-0.7,0.4-1.1,0.3
		c-0.8-0.2-1.5-0.4-2.3-0.4c-1.8-0.2-3.4,0.5-4.9,1.3C47.4,41.1,46.9,41.2,46.6,40.3z"/>
</g>
</svg>
