<?xml version="1.0" encoding="utf-8"?>
<!-- Generator: Adobe Illustrator 19.1.0, SVG Export Plug-In . SVG Version: 6.00 Build 0)  -->
<svg version="1.1" id="Layer_1" xmlns="http://www.w3.org/2000/svg" xmlns:xlink="http://www.w3.org/1999/xlink" x="0px" y="0px"
	 viewBox="0 0 120 150.8" style="enable-background:new 0 0 120 150.8;" xml:space="preserve">
<style type="text/css">
	.st0{fill:#00BCD4;}
</style>
<g id="acne-recom">
	<path class="st0" d="M69.6,100.2c-2.8,2.5-2.9,5.5-1.8,8.7c1.2,3.5,2.5,6.9,2.4,10.6c0,1.1-0.3,2.2-0.8,3.2c-1.2,2.1-2.3,4.2-3.9,6
		c-0.4,0.5-0.5,1.3-0.7,1.9c-0.2,0.8-0.1,1.7-0.3,2.5c-0.2,0.9-0.1,1.7,0.4,2.5c1.2,1.8,1.7,3.8,1.9,6c0.2,1.7,0.4,3.4,0.7,5
		c0.2,1.3,0.4,2.7,0.6,4.1c-0.4,0.2-0.7,0.1-0.8-0.4c-0.3-1.2-0.5-2.3-0.7-3.5c-0.4-2.1-0.8-4.3-1-6.4c-0.2-1.8-1.1-3.2-1.7-4.7
		c-0.9-2.1-0.6-4.3,0.1-6.4c0-0.1,0.1-0.3,0.3-0.6c-2.5,0.6-4.9,1.1-7.3,1.3c0-0.1-0.1-0.2-0.1-0.3c0.3-0.1,0.7-0.3,1-0.3
		c2-0.4,4.1-0.8,6.1-1.3c0.6-0.1,1.3-0.6,1.6-1.1c1.2-1.8,2.5-3.6,3.2-5.6c0.5-1.3,0.3-2.9,0.2-4.4c-0.1-1.6-0.6-3.1-1.1-4.7
		c-0.7-2-1.6-4-1.7-6.3c-0.1-2,0.4-3.7,1.4-5.5c0.8-1.4,1.4-3,2.1-4.5c0.1-0.3,0.2-0.7,0.2-1c-0.1-2.9-0.3-5.7-1.2-8.5
		c-0.1-0.3-0.2-0.7-0.4-1c-1.2-2.4-1.6-4.9-1.8-7.6c0-0.5-0.1-1.1-0.2-1.9c-0.6,0.8-1.1,1.4-1.6,2c-1.1,1.3-2.1,2.6-3.2,3.9
		c-0.2,0.2-0.4,0.6-0.3,0.8c1.2,3.4,1.5,6.9,1.9,10.4c0.2,1.7,0.3,3.4,0.4,5.1c0.2,2.2-0.4,4.3-1.3,6.2c-0.6,1.4-1.3,2.7-2.2,3.9
		c-0.7,0.9-1.8,1.5-2.7,2.2c-0.2,0.2-0.4,0.4-0.4,0.7c-0.1,0.7-0.2,1.5-0.2,2.2c0,1.3,0.1,2.5,0,3.8c0,1-0.2,2.1-0.4,3.1
		c-0.1,0.6-0.2,1.3-0.3,1.9c-0.2,0.9-0.4,1.8-0.6,2.8c-0.5,2.4-0.9,4.8-1.4,7.3c-0.1,0.5-0.2,1.1-0.3,1.6c-0.4,1.6-0.8,3.3-1.3,4.9
		c-0.4,1-0.9,2.1-1.6,2.9c-1.4,1.5-2.8,2.9-4.5,4c-2.2,1.5-4.6,2.8-6.9,4.2c-1.1,0.7-2.2,0.9-3.4,0.9c-1,0-1.8-0.3-2.7-0.7
		c-1.4-0.8-3-1.6-4.3-2.5c-1.1-0.7-2.1-1.6-3.1-2.5c-2.2-2-4.5-3.9-6.5-6c-1.9-2-3.5-4.2-4.7-6.8c-1.3-2.8-2.8-5.4-4.2-8.2
		c-0.8-1.6-1.5-3.2-2.3-4.8c-0.2-0.4-0.4-0.7-0.8-1c3.7,10.5,6.4,21.2,6.7,32.5c-0.3,0-0.5,0-0.9,0c-0.1-1.7-0.2-3.4-0.4-5
		c-0.4-3-0.9-5.9-1.4-8.8c-0.4-2.3-1-4.5-1.6-6.8c-0.6-2.5-1.2-5-2-7.4c-0.8-2.5-1.7-5-2.7-7.5c-0.7-1.8-1.7-3.4-2.5-5.2
		c-0.5-1.1-0.9-2.3-1.3-3.5c-0.5-1.5-0.8-3-1.4-4.5C-1.2,99.5-1,96.8-1,94.2c0-1.3,0.1-2.6,0.1-4c0.1-1.3,0.2-2.7,0.8-3.9
		c0.5-1.1,0.8-2.3,1.3-3.5c0.3-0.8,0.7-1.6,1-2.4c0.3-0.6,0.6-1.2,0.4-2c-0.1-0.2,0.1-0.6,0.2-0.8c1.6-2.5,2.4-5.3,2.8-8.2
		c0.1-0.7,0.2-1.4,0.3-2.1c1.4-5.8,1.9-11.8,2.3-17.7c0.1-1.2,0.3-2.5,0.4-3.7c0.3-2.5,0.4-5,0.8-7.4c0.2-1.4,0.7-2.8,1.1-4.2
		c0.3-0.9,0.6-1.7,0.8-2.6c0.4-2.7,1.4-5.2,2.6-7.7c0.6-1.1,1-2.3,1.4-3.5c0.7-2.2,1.9-4.1,3.4-5.6c3.2-3.3,6.5-6.4,9.9-9.5
		c1.7-1.6,4-2.4,6.1-3.4c2.6-1.2,5.4-1.5,8.1-1.8c1.6-0.2,3.3-0.3,4.9-0.3c2.1,0,4.1,0.2,6,1.3c1,0.6,2,1,3.1,1.3
		c1.5,0.6,2.8,1.5,4,2.6c0.7,0.7,1.6,1.3,2.2,2.1c0.6,0.9,1.1,1.9,2,2.7c0.5,0.4,0.6,1.2,0.9,1.8c0.2,0.4,0.5,0.8,0.8,1.1
		c2.2,1.5,3.7,3.7,5.1,5.9c1.4,2.2,2.2,4.7,3.1,7.1c0.5,1.4,0.7,2.7-0.4,4c-0.7,0.8-0.7,1.9-0.1,2.9c1.1,2.1,2.6,3.9,4.1,5.7
		c0.4,0.5,0.9,1.2,1,1.9c0.3,1.9-1.3,3.6-3.3,3.4c-0.8-0.1-1.2,0.2-1.3,1c-0.1,0.9-0.1,1.8,0,2.7c0.1,0.7-0.1,1.1-0.8,1.5
		c-0.4,0.2-0.8,0.6-0.9,1c-0.2,0.8-0.6,1.2-1.4,1.3c-0.1,0-0.2,0.1-0.5,0.2c0.6,0.5,1.1,0.9,1.7,1.2c1.2,0.7,1.7,2.1,0.6,3
		c-1.8,1.6-1.7,3.7-2.1,5.7c-0.2,1.1-0.3,2.2-0.9,2.9c0.4,1,0.7,1.9,1,2.7c0,0.1,0.1,0.3,0.2,0.3c2.3,1.1,3.2,3.4,4.6,5.3
		c0.8,1,1.5,2.1,2.2,3.2c0.9,1.4,1.9,2.7,2.7,4.2c0.5,1,0.8,2.2,1.1,3.3c0.1,0.4,0.2,0.7,0.4,1c1,1.5,1.4,3.1,1.8,4.8
		c1.2,4.7,3,9.2,5.2,13.6c0.9,1.9,1.8,3.8,2.7,5.7c0.2,0.5,0.7,0.9,1.1,1.4c0.5-2.5,1.2-4.8,1.5-7.1c0.3-1.9,0.5-4,0.2-5.9
		c-0.4-3-0.6-6-1.9-8.8c-0.8-1.8-0.9-3.8-0.9-5.8c0-2.7,1.2-5,1.9-7.5c0.3-1,1.1-1.7,2-2.1c1.9-0.8,2.8-2.2,3.1-4.1
		c0.1-0.3-0.3-0.8-0.5-1.1c-0.9-1-2-1.9-2.9-3c-2.1-2.5-3.2-5.5-3.3-8.8c-0.3-5.4,0.5-10.7,2.2-15.8c0.6-2.1,1.7-3.9,2.9-5.7
		c1.5-2.1,3.1-4,5.3-5.5c2.5-1.6,5.1-2.2,8-1c1.4,0.6,2.8,1.3,3.8,2.4c0.8,0.9,1.5,2.1,2,3.2c1.1,2.6,1.6,5.4,1.7,8.2
		c0.2,4,0,8-1.5,11.9c-0.5,1.5-0.8,3-1.4,4.5c-1,2.4-2.4,4.6-4.5,6.2c-0.4,0.3-0.9,0.7-1.3,1c0.7,0.6,1.4,1.1,2,1.7
		c0.6,0.6,0.8,1.3,0.3,2c-0.9,1.3-1.3,2.8-1.6,4.3c-0.2,1.2,0,1.7,1.1,2.3c0.5,0.2,1,0.4,1.4,0.7c1.1,0.7,1.2,1.9,0.3,2.9
		c-1,0.9-0.9,1.2,0,2.2c0.4,0.5,0.7,1.2,0.8,1.9c0.1,1.4,0.1,2.8,0.1,4.2c0,0.8-0.2,1.4-0.8,2c-1.4,1.4-2.5,2.9-3.5,4.6
		c-0.5,0.9-1.4,1.5-2.1,2.2c-0.6,0.5-0.9,1-0.9,1.8c-0.1,3.6-0.4,7.2-0.4,10.9c0,1.6,0.5,3.2,0.6,4.8c0.3,2.3,0.4,4.6,0.6,6.9
		c0,0.4,0,0.8-0.1,1.1c-0.8,4.1-1.6,8.2-2.5,12.3c-0.4,2-1,4-2.1,5.8c-0.5,0.9-1.2,1.5-2,2c-0.9,0.5-1.9,1.1-2.8,1.5
		c-2.7,1.3-5.3,0.8-7.1-1.5c-1.4-1.8-3-3.5-4.3-5.3c-1.1-1.5-1.9-3.2-2.9-4.8c-1.3-2-2.6-3.9-3.9-5.9c-0.3-0.5-0.7-0.9-0.9-1.4
		c-2.1-4.5-4.6-8.9-6.3-13.7c-1.1-3-2.1-6-3-9C70,101,69.8,100.6,69.6,100.2z M19.8,67.9c-0.4,0.3-0.8,0.4-1.1,0.7
		c-1.3,1-2.6,2.1-4,3c-3,1.7-5.6,3.9-8,6.3c-0.3,0.3-0.6,0.5-0.9,0.6C4.4,79,3.5,79.8,3,81.1c-0.9,2.5-2.1,5.1-2.6,7.7
		C-0.1,91.5,0,94.2,0,96.9c0,3.1,1.2,6,2.2,8.9c0.5,1.5,1.3,3,2,4.5c0.2,0.6,0.5,1.1,0.8,1.7c1.6,2.7,3.2,5.3,4.7,8
		c1.2,2.1,2.1,4.3,3.3,6.5c1.8,3.3,3.5,6.6,5.6,9.7c1.2,1.9,2.8,3.5,4.5,5c3.2,2.8,6.3,5.8,10.2,7.6c2.4,1.1,4.6,1.2,6.8,0
		c2.2-1.2,4.3-2.5,6.4-4c2-1.4,3.4-3.3,4.5-5.6c2.1-4.5,2.9-9.2,3.6-14c0.3-1.6,0.6-3.2,0.9-4.8c0.1-0.7,0.2-1.5,0.2-2.2
		c0.1-2.5,0.2-5,0.4-7.5c0.3-3.9,0.7-7.8,1-11.6c0.2-2.9,0.3-5.7,0.6-8.6c0.2-2.2,0.2-4.5,1.2-6.6c0.3-0.6,0.7-1.1,1.2-1.6
		c0.7-0.7,1.6-1.3,2.3-2.1c1.2-1.4,2.6-2.8,3.4-4.5c0.8-1.6,1.9-2.9,3.4-3.9c0.5-0.3,0.9-0.7,1.3-1.1c0.3-0.4,0.7-1,0.8-1.5
		c0.1-0.8,0.1-1.7,0-2.6c-0.1-1.3-1.5-2.1-2.7-1.7c-0.1,0-0.1,0.1-0.2,0.2c-0.4,0.7-0.9,1.3-1.3,2c0.1,0.1,0.2,0.1,0.3,0.2
		c1,0.5,1,0.6,0.2,1.3c-0.3,0.3-0.5,0.6-0.7,1c-0.5,0.8-1.3,1.1-2,1.6c-0.1-0.1-0.1-0.2-0.2-0.3c0.5-0.4,1-0.8,1.6-1.2
		c-0.1-0.2-0.2-0.3-0.3-0.4c-0.8-0.6-0.5-1.1,0-1.8c0.9-1.1,1.7-2.2,2.4-3.4c0.7-1.3,0.1-2.8-1.2-3.4c-0.4-0.2-0.9-0.4-1.3-0.6
		c-1.8,3.7-3.4,6-4.4,6c0.1-0.2,0.2-0.4,0.3-0.5c0.5-0.6,1-1.3,1.5-1.9c1.3-1.7,2.4-3.5,2.1-5.7c0-0.2,0.1-0.5,0.1-0.7
		c0.4-1.2,0.4-2.3-0.8-3.1c-0.5-0.4-1.8-0.7-2.3-0.2c-0.5,0.5-0.9,1.4-0.8,1.9c0.4,1.9-0.1,3.3-1.4,4.6c-1.1,1.2-2.7,1.8-3.5,3.2
		c0,0-0.1,0-0.2-0.1c2.7-5,5.4-10,8.1-15.1c-1.7,0.1-2.4-0.8-2.1-2.6c-1.4,1.1-2.6,2.2-3.4,3.6c-1.3,2.4-2.6,4.8-4,7.1
		c-0.8,1.4-1.8,2.8-2.8,4.1c-0.9,1.2-2,2.3-3.1,3.4c-0.6,0.7-1.3,1.4-1.4,2.4c0,0.1-0.1,0.2-0.2,0.3c-0.1,0-0.1,0-0.2-0.1
		c0.1-0.3,0-0.7,0.2-1c0.7-1,1.4-2,2.2-2.9c0.5-0.6,0.8-1.1,0.8-1.9c0-0.9,0.2-1.8,0.3-2.8c0.1-0.6,0.4-1.2,0.3-1.8
		c-0.2-1.1-0.6-2.3-1-3.4c-0.1-0.2-0.4-0.4-0.8-0.7c-0.1,0.6-0.1,0.9-0.1,1.2c-0.2,0.7-0.3,1.4-0.6,2.1c-0.1,0.3-0.7,0.5-1,0.5
		c-0.6-0.1-0.8,0.1-1,0.5c-0.1,0.4-0.2,0.8-0.3,1.2c-0.2,2.6-0.3,5.2-0.5,7.9c-0.2,2.4-0.3,4.8,0.2,7.2c0.5,2.9,0.6,5.7-0.2,8.5
		c-0.2,0.6-0.4,1.2-0.5,1.8c-0.2,1.9-0.4,3.8-0.6,5.8c-0.1,1.8-0.1,3.7-0.3,5.5c-0.4,2.7-0.5,5.4-1.2,8.1c-0.7,2.5-0.9,5.2-1.4,7.7
		c-0.1,0.6-0.2,1.1-0.4,1.6c-0.9,2.6-1.9,5.2-2.9,7.7c-0.6,1.4-1.2,2.8-2.2,3.9c-0.9,1.1-1.5,2.3-1.9,3.6c-1,3.4-2.1,6.8-0.7,10.4
		c0.1,0.2-0.1,0.5-0.2,0.8c-0.2-0.3-0.3-0.3-0.4-0.4c-0.2-1.4-0.7-2.9-0.7-4.4c0.2-3.4,1.1-6.6,2.4-9.7c0.1-0.3,0.2-0.8,0.1-1.1
		c-0.9-2.3-1.8-4.7-2.9-6.9c-1.2-2.6-2.8-5-3.9-7.7c-0.9-2.2-2.2-4.1-3.4-6.1c-0.8-1.3-1.6-2.6-2.3-4c-0.8-1.6-1.2-3.3-2.6-4.5
		c-0.2-0.2-0.3-0.5-0.4-0.8c-0.1-0.5-0.5-1.1,0.1-1.4c0.7-0.3,0.7,0.5,0.9,0.8c0.4,0.5,0.7,1,1,1.5c0.1,0,0.2-0.1,0.3-0.1
		c-0.1-0.6-0.1-1.2-0.4-1.7c-0.8-1.6-1.7-3.1-2.5-4.7c-0.1-0.2-0.1-0.5-0.2-0.8c0.1,0,0.1-0.1,0.2-0.1c0.3,0.5,0.7,0.9,1,1.4
		c0.6,1.1,1.3,2.2,1.9,3.4c0.2,0.4,0.4,0.7,0.5,1.1c0.3,1.2,0.5,2.4,0.8,3.5c0.2,0.9,0.2,1.9,0.6,2.7c0.8,1.6,1.8,3,2.6,4.5
		c0.5,0.9,1.1,1.7,1.5,2.6c0.4,0.8,0.7,1.7,1.1,2.6c2.2,4.4,4.7,8.6,6.4,13.2c0.1,0.3,0.3,0.5,0.7,0.9c0.7-1.6,1.4-3,2-4.4
		c0.5-1.1,0.9-2.2,1.3-3.3c0.5-1.2,0.9-2.5,1.3-3.7c0.1-0.2-0.1-0.7-0.3-0.9c-1.3-1-2.7-2-4-3c-0.5-0.4-0.9-0.9-1.3-1.4
		c-0.7-0.9-1.5-1.9-2.2-2.9c-0.5-0.8-1-1.6-1.4-2.5c-1-2.1-2-4.3-2.9-6.4c-1.3-2.7-2.6-5.4-3.8-8.1c-0.7-1.6-1.3-3.2-2.3-4.6
		c-0.3-0.5-0.6-1-0.9-1.5c-0.8-1.3-1.6-2.6-2.4-3.9c-0.1-0.2-0.2-0.4-0.2-0.6c1.2,0.8,2,1.9,2.6,3.2c0.5,1.1,1.2,2.1,1.8,3.2
		c0.5,1,1.1,2,1.6,3.1c0.7,1.5,1.2,3.1,1.9,4.5c1.3,2.8,2.7,5.7,4.1,8.5c0.7,1.4,1.2,3,2.1,4.2c1.7,2.5,3.6,4.9,6.2,6.6
		c0.6,0.4,1.2,0.7,1.9,1c0.3-1.2,0.6-2.3,0.8-3.3c0-0.3-0.1-0.6-0.3-0.9c-0.5-0.6-1.2-1.1-1.7-1.7c-0.9-1.2-1.7-2.5-2.5-3.7
		c-1.1-1.8-2.1-3.6-3.1-5.4c-0.2-0.3-0.4-0.7-0.6-1c-0.4-0.7-0.8-1.3-1.1-2c-0.6-1.4-1-2.9-1.8-4.2C29,85,27.1,82.8,26,80.2
		c-0.7-1.6-1.5-3.1-2.2-4.6c-0.1-0.2-0.2-0.4-0.4-0.6c-1.4-1.9-2.6-3.8-3.2-6.1C20.1,68.5,20,68.3,19.8,67.9z M37.3,44.5
		c-0.1,1.2,0,2.3-0.3,3.3c-0.7,2.2-1.7,4.2-2.5,6.4c-0.1,0.3-0.4,0.6-0.5,0.9c-0.2,0.4-0.4,0.9-0.6,1.3c-0.5,0.8-1,1.5-1.5,2.2
		c-0.4,0.5-0.9,1-1.3,1.5c-0.2,0.3-0.4,0.7-0.6,1c-1.7,2.3-4,4-6.6,5.3c-0.6,0.3-1.3,0.6-1.9,0.9c-0.5,0.2-0.6,0.5-0.4,1
		c0.4,0.8,0.7,1.6,1.1,2.3c1.5,2.8,3,5.6,4.4,8.5c0.9,1.9,2,3.7,3.2,5.4c1.1,1.6,2.3,3.2,2.8,5.1c0.3,1.1,0.9,2.2,1.5,3.2
		c1.3,2.1,2.6,4.2,3.9,6.3c0.2,0.2,0.2,0.6,0.4,0.8c0.9,1.3,1.8,2.7,2.7,4c0.1,0.2,0.4,0.2,0.6,0.4c0.1-0.2,0.3-0.4,0.3-0.7
		c0.3-1.7,0.6-3.4,0.8-5.2c0.3-3,0.6-6,0.8-9c0.2-2.9,0.3-5.8,1.4-8.6c0.1-0.3,0.2-0.7,0.2-1c0-2,0-3.9-0.1-5.9
		c-0.1-1.2-0.4-2.4-0.3-3.5c0.1-2.7,0.2-5.5,0.4-8.2c0.1-1.6,0.3-3.1,0.4-4.7c0-0.2,0.1-0.5,0.2-0.6c0.6-0.7,0.7-1.6,0.7-2.5
		c0.1-0.9,0.3-1.8,0.6-2.7c0.3-0.8,1.1-0.8,1.6-0.1c0.2,0.3,0.6,0.6,0.9,0.9c0.2,0.2,0.6,0.4,0.7,0.7c0.4,1,0.8,2.1,1.1,3.1
		c0.2,0.8,0.2,1.7-0.3,2.5c-0.5,0.8-0.2,1.6-0.1,2.5c0.2-0.1,0.4-0.2,0.5-0.3c0.5-0.6,1.1-1.3,1.5-2c1.2-1.8,2.3-3.7,3.4-5.6
		c0.7-1.2,1.3-2.4,1.9-3.5c0.7-1.1,1.2-2.3,2.4-3c1.1-0.7,2.1-1.7,3.2-2.4c1.1-0.7,2.2,0,2,1.3c-0.1,0.9-0.3,1.9-0.8,2.7
		c-0.9,1.7-2,3.2-3.1,5c0.5-0.1,0.7-0.2,1-0.1c0.5,0.1,1,0.1,1.4,0.3c1.5,1.1,1.8,1.8,1.3,3.6c0,0.2-0.1,0.4-0.2,0.5
		c-0.1,1.3-0.1,2,1,2.3c1.8,0.6,2.6,2.4,2.2,4.2c0.9,0.4,1.6-0.2,1.8-1.3c0.4-1.9,0.8-3.9,1.2-5.8c0-0.2-0.1-0.6-0.2-0.7
		c-1.4-1.3-2.9-2.5-4.3-3.7c-0.6-0.5-1.1-1.2-0.7-1.9c0.3-0.6,1-1,1.6-1.3c1.4-0.6,2.8-1,4.2-1.7c0.7-0.3,1.5-0.8,1.7-1.4
		c0.3-0.8,0.2-1.9,0.2-2.8c-2.3,0.7-3.2,0.7-3.5-0.2c-0.2-0.7,0.1-1.8,0.7-2c-0.1,0.4-0.3,0.7-0.3,1.1c-0.1,1.1,0.3,1.5,1.3,1.3
		c0.5-0.1,1-0.3,1.4-0.5c0.9-0.3,1.7-1,2.7-0.3c0.1,0,0.2,0,0.2,0c1.6-0.2,2.4-2,1.5-3.4c-0.1-0.2-0.3-0.4-0.4-0.6
		c-1.3-1.7-2.6-3.5-3.9-5.2c-0.9-1.2-0.9-3.1-0.1-4.3c0.7-1,0.8-2,0.4-3.1c-1.4-3.8-2.8-7.6-5.5-10.8c-1.5-1.8-3.2-2.9-5.6-2.8
		C60,13,57.4,14.2,55.6,17c-0.7,1.1-0.7,1.6,0.5,2.3c1.8,1.1,2.1,2.8,0.8,4.4c-0.6,0.8-1.1,1.7-1.4,2.6c-0.4,1.3-1.2,2.3-2.4,3
		c-1,0.6-1.9,1.3-2.3,2.5c-0.5,1.5-0.8,2.9-1.2,4.4c-0.1,0.2-0.1,0.5-0.3,0.6c-1.1,1.3-3.6,1.2-4.7-0.1c-0.7-0.8-1.4-1.6-2.2-2.3
		c-1.5-1.4-3.3-1.7-5.2-1.1c-0.6,0.2-1.3,0.7-1.6,1.3c-1.3,1.8-1.2,4.3,0.1,6.1c0.2,0.2,0.2,0.5,0.4,0.7c0.7,1.1,1.1,2.5,2.5,3.1
		c1.2,0.6,2.4,1.3,3.7,1.8c1.5,0.5,2.6,0.3,2.6-1.5c0-0.4,0.3-0.9,0.6-1.2c0.9-0.9,0.4-2.9-0.8-3.2c-0.2-0.1-0.5,0-0.6,0.1
		c-0.1,0.1-0.1,0.5-0.1,0.7c0,0.2,0.3,0.3,0.3,0.5c0,0.4,0,0.8-0.2,1.1C44,43,43.5,43,43.2,42.9c-0.3,0-0.6-0.2-0.8-0.4
		c-0.6-0.3-1-0.3-1.6,0.1c-1.4,1-2.4,0.3-3.2-1.1c-0.3-0.6-0.5-1.2-0.9-1.7c-0.5-0.7-0.7-1.3-0.5-2.1c0.1-0.3,0.1-0.6,0.1-0.9
		c0-1.4,1.2-2.7,2.7-2.7c0.5,0,1.2,0.2,1.5,0.5c0.6,0.7,1.1,1.6,1.6,2.5c0.2,0.5,0,0.9-0.6,1.1c-0.8,0.3-1.8,0.5-1.9,1.6
		c0,0-0.2,0.1-0.3,0.1c-0.2-1.3,0-1.5,1.1-1.9c0.3-0.1,0.6-0.3,0.8-0.5c0.1-0.1,0.3-0.4,0.2-0.5c-0.5-0.8-1.1-1.6-1.7-2.4
		c0-0.1-0.1-0.1-0.2-0.1c-1.5-0.3-2.8,0.8-2.8,2.3c0,0.3-0.1,0.5-0.1,0.8c0.1,0.6,0.2,1.1,0.4,1.6c0.3,0.7,0.6,1.3,1,1.9
		c0.6,1.1,1.4,1.6,2.5,0.8c0.7-0.5,1.3-0.5,2.1-0.1c0.3,0.2,0.7,0.2,1,0.3c0-0.1,0.1-0.2,0.1-0.3c-0.2-0.3-0.5-0.5-0.6-0.8
		c-0.1-0.3-0.2-0.7-0.1-0.9c0.1-0.2,0.5-0.4,0.8-0.5c1.2-0.3,2,0.5,2.6,1.8c0.5,1,0.3,1.7-0.5,2.4c-0.3,0.2-0.4,0.7-0.5,1.1
		c-0.1,0.7-0.3,1.4-1,1.7c-0.9,0.3-1.7,0.3-2.6-0.1C40.3,46,38.8,45.3,37.3,44.5z M109.4,79.5c0,0.1,0,0.2,0,0.2
		c-0.3,0-0.7,0.2-0.9,0c-1.5-0.8-3.1-0.6-4.6-0.3c-2.2,0.4-4.5,0.8-6.1,2.6c-0.4,0.4-0.9,1.1-0.7,1.5c0.3,0.8,0.8,1.7,1.8,1.7
		c1.3,0.1,2.5,0.1,3.8-0.1c2.2-0.2,4.3-0.5,6.5-0.7c0.4,0,0.9-0.1,1,0.7c-4.3,0.3-8.5,0.6-12.7,0.9c0.9,0.1,0.9,0.9,1,1.5
		c0.3,1.4-1.1,1.2-1.8,1.8c0.2,0.1,0.3,0.1,0.4,0.1c2.6,0.5,5.2,0.8,7.8,0.5c0.9-0.1,1.6,0.1,2.2,0.8c0.4,0.4,0.9,0.8,1.3,1.2
		c0.2,0.2,0.2,0.4,0.3,0.6c-0.2-0.1-0.5-0.1-0.7-0.2c-0.5-0.3-0.9-0.7-1.4-1c-0.3,0.7-0.4,1.4-0.8,2c-0.5,0.8-1.1,1.4-1.7,2.1
		c-0.9,1-2.4,0.9-3-0.3c-0.4-0.8-0.6-1.7-0.8-2.6c-0.1-0.5-0.1-1.1-0.2-1.6c-0.1-0.2-0.3-0.6-0.6-0.6c-1.3-0.3-2.6-0.5-4-0.8
		c0.1,0.3,0.1,0.7,0.2,1.1c0.4,2.3,0.9,4.5,1.1,6.8c0.3,2.8-0.3,5.6-1,8.3c-0.2,0.7-0.2,1.4-0.4,2.1c-0.4,1.7-0.4,3.6-1.5,5.1
		c-0.2,0.2-0.2,0.5-0.3,0.8c-0.8,2.3-1.7,4.6-2.4,7c-0.5,1.6-0.9,3.2-1.4,4.8c-0.1,0.4-0.1,1-0.9,0.9c0-0.7-0.2-1.3-0.1-2
		c0.1-0.8,0.5-1.5,0.7-2.2c0.3-0.7,0.5-1.5,0.8-2.2c0.6-1.5,1.1-2.9,1.7-4.4c0.4-1.2,0.8-2.4,1.3-3.5c0.3-0.7,0.3-1.1-0.2-1.7
		c-0.3-0.3-0.6-0.8-0.8-1.2c-1.7-3.1-3.3-6.2-4.5-9.5c-1.2-3.5-2.5-7-3.7-10.5c-0.3-0.8-0.3-1.6-0.6-2.4c-0.4-1.2-1-2.3-1.5-3.4
		c-1-2.1-1.9-4.2-3.1-6.2c-0.6-1.1-1.5-2-2.2-3c-0.9-1.3-1.8-2.8-2.7-4.1c-0.5-0.7-1.2-1.4-1.9-2.2c-0.1,0.4-0.1,0.6-0.1,0.8
		c0.1,1-0.3,1.8-1.1,2.4c-0.6,0.4-1.1,0.9-1.7,1.4c-0.6,0.6-1.3,1.1-1.9,1.8c-0.2,0.2-0.2,0.5-0.2,0.7c0.1,1.3,0.3,2.5,0.5,3.8
		c0.2,1.2,0.5,2.3,0.8,3.4c0.8,2.7,2,5.4,2.1,8.3c0,0.8,0.3,1.5,0.4,2.3c1-0.8,1.9-1.5,2.7-2.2c0.1,0.1,0.2,0.2,0.3,0.3
		c-0.2,0.2-0.4,0.5-0.6,0.7c-1.4,1.1-2.3,2.4-2.5,4.2c-0.2,1.2-0.8,2.4-0.3,3.7c0.6,1.7,1,3.4,1.6,5c1.6,4.2,3.2,8.4,5,12.6
		c0.6,1.5,1.4,2.8,2.2,4.2c1.2,2.1,2.4,4.2,3.8,6.1c1.6,2.2,3.1,4.4,4.4,6.8c0.5,1,1.3,1.8,2,2.7c0.8,1.1,1.8,2,2.4,3.2
		c1.4,2.4,4.2,3.2,6.5,1.9c0.5-0.3,1-0.7,1.6-0.9c2.3-1.1,3.5-3.1,4.1-5.4c0.7-2.9,1.2-5.9,1.8-8.9c0.4-1.8,0.9-3.5,1.1-5.3
		c0.3-2.5,0.2-4.9-0.2-7.4c-0.4-2.3-1-4.6-0.8-7c0.3-3.1,0.4-6.2,0.6-9.2c0-0.3,0-0.6,0-0.9c-1.3,0.4-2.5,1.1-4,0.7
		c0.3-0.2,0.4-0.4,0.6-0.5c0.9-0.3,1.8-0.4,2.6-0.7c0.3-0.1,0.7-0.3,1-0.5c0.8-0.9,1.6-1.7,2.4-2.6c1.4-1.7,2.8-3.3,4.1-5
		c0.3-0.4,0.2-1.1,0.2-1.6c0-0.8-0.3-1.7-0.1-2.5c0.3-1.2,0.2-2.1-0.8-3c-0.8-0.7-0.7-2.5,0.2-3c0.7-0.5,0.8-0.8,0.1-1.3
		c-0.5-0.4-1.1-0.7-1.7-1c-0.9-0.5-1.5-1.2-1.3-2.3c0.2-1.1,0.4-2.1,0.7-3.1c0.2-0.6,0.5-1.3,0.9-1.8c0.3-0.5,0.5-1,0.2-1.4
		c-0.9-1-1.9-1.9-3.2-1.5c-1.4,0.3-2.8,1-4.1,1.5c-0.7,0.3-1.3,0.7-2.1,1.1c0.3,0.1,0.4,0.1,0.5,0.1c0.9,0,1.2,0.5,1.5,1.2
		c0.3,0.6,0,1.1-0.4,1.5c-0.6,0.5-1.2,1-1.8,1.5c0,0,0,0.1,0,0.1c2.6-0.7,5.2-1.4,7.9-2.2c0,0.1,0.1,0.2,0.1,0.4
		c-0.8,0.4-1.6,0.7-2.5,1.1c0.6,0.6,1.3,1.1,1.9,1.6c-0.1,0.1-0.1,0.2-0.2,0.3c-0.4-0.3-0.7-0.6-1.1-0.8c-0.5-0.3-1.1-0.7-1.7-0.7
		c-2.4,0.2-4.6,0.8-6.6,2.2c-1,0.7-1.6,1.7-2,2.8c-0.5,1.4,0,2.1,1.5,2c1.2-0.1,2.4-0.3,3.5-0.7C105,78.1,107.2,78.7,109.4,79.5z
		 M116.4,44.9c-0.1-1.4-0.2-2.8-0.4-4.3c-0.3-2.2-0.9-4.4-2.1-6.4c-1-1.6-2.3-2.9-4.4-3c-1.8-0.1-3.2,0.7-4.5,1.8
		c-3.3,2.8-5.6,6.1-6.6,10.4c-1,4.5-1.5,9-0.7,13.6c0.4,2.1,1.2,3.9,2.8,5.4c1.9,1.8,4.7,2.2,6.7,1c2.3-1.3,4.1-3,5.5-5.2
		C115.3,54.2,115.9,49.6,116.4,44.9z M107.3,65.1c0.1,0.1,0.2,0.2,0.3,0.3c0.8-0.4,1.6-0.7,2.3-1.3c2.4-2,4.4-4.2,5.6-7.2
		c1.5-3.8,2.7-7.7,2.7-11.9c0-3.3,0-6.5-1-9.6c-0.6-1.8-1.2-3.6-2.6-5c-1.4-1.3-3.1-2.1-4.9-2.5c-0.8-0.2-1.7-0.2-2.5-0.1
		c-3,0.6-5.2,2.5-7,4.8c-2.9,3.7-4.6,7.9-5.5,12.5c-0.8,3.8-1.2,7.6-0.6,11.5c0.2,1.6,0.6,3.1,1.3,4.5c1.4,3,3.5,5.2,6.5,6.6
		c0.3,0.1,0.8-0.1,1.2-0.3c0.1-0.1,0.2-0.6,0-0.8c-0.3-0.5-0.7-1-1.2-1.4c-1-1-2.3-1.8-3.1-3c-1.5-2.2-2.3-4.7-2.3-7.4
		c-0.1-3.6,0.2-7.1,1-10.6c1.1-4.9,3.5-9,7.6-12.1c1.5-1.1,3.3-1.7,5.2-1.5c1.7,0.2,2.8,1.1,3.8,2.4c1.3,1.8,2.1,3.8,2.7,6
		c0.3,1.2,0.4,2.6,0.4,3.8c0,2,0.2,4.1-0.2,6c-0.5,2.5-1.2,4.9-2.1,7.2c-1.3,2.9-3,5.6-5.7,7.5C108.4,63.9,107.9,64.5,107.3,65.1z
		 M60.6,82.5c-0.2,0.2-0.3,0.2-0.4,0.3c-1,0.7-1.2,1.8-1.3,2.9c-0.2,1.6-0.3,3.2-0.1,4.7c0.2,1.4,0.8,2.8,1.3,4.2
		c0.6,1.9,0.2,3.6-0.9,5.2c-0.8,1.1-1.5,2.2-1.6,3.6c-0.1,2-0.4,4.1-0.6,6.1c0,0.2,0,0.4,0,0.6c0.1,0,0.1,0.1,0.2,0.1
		c0.8-0.7,1.7-1.2,2.3-2.1c0.9-1.3,1.6-2.8,2.3-4.2c1.1-2.4,1.5-4.9,1.1-7.5c-0.3-2.4-0.5-4.9-0.9-7.3c-0.3-1.8-0.6-3.6-1-5.4
		C61,83.4,60.8,83,60.6,82.5z M99,72c-0.4,0.3-0.8,0.8-1.4,1.1c-1.4,0.6-2,1.7-2.4,3.1c-0.2,0.6-0.3,1.2-0.6,1.8
		c-0.9,2-0.9,4-0.8,6.1c0,1,0.4,1.9,0.6,2.7c1.2-0.5,2.3-0.9,3.3-1.4c-0.2-0.2-0.4-0.4-0.5-0.7c-1-1.3-0.9-2,0.3-3
		c0.3-0.2,0.5-0.5,0.8-0.7c0.3-0.2,0.6-0.5,1-0.8c-1.9-0.3-2.5-1-2.1-2.5c0.4-1.2,0.9-2.4,2-3.1c0.7-0.4,1.4-0.9,2-1.3
		C100.5,72.9,99.8,72.5,99,72z M102.6,68.8c-1.4,0.1-2.7,1.2-3,2.3c-0.2,0.7,0.6,1.5,1.2,1.3c1-0.3,2-0.6,2.6-1.5
		c0.3-0.4,0.6-0.8,0.2-1.2C103.4,69.3,103,69.1,102.6,68.8z M67.5,52.3c1.3,1.2,2.4,2.2,3.5,3.2c1.4,1.2,1,0.9,2.2-0.2
		c0,0,0,0,0.1-0.1c0-0.5,0.2-1,0.1-1.4c-0.1-0.2-0.7-0.3-1.1-0.4c-0.6-0.1-1.2-0.1-1.8-0.2C69.5,52.9,68.6,52.6,67.5,52.3z M65.7,46
		c0-1.5-0.6-1.9-1.7-1.2c-0.3,0.2-0.6,0.6-0.9,0.9c-0.5,0.6-0.5,1.3-0.2,1.9c0.4,0.7,1.1,0.6,1.6,0.5c0.4-0.1,0.7-0.7,0.9-1.1
		C65.6,46.6,65.6,46.2,65.7,46z M57.9,99.9c1.7-2.1,1.9-6,0.3-7.7C58.1,94.7,58,97.2,57.9,99.9z M46.9,54.4c0,0,0.1,0,0.1,0
		c0,0.2,0,0.4,0,0.6c0.1,0.3,0.2,0.7,0.3,0.7c0.3,0,0.7-0.1,0.9-0.3c0.6-1.1,0.7-2.3,0.3-3.5c-0.1-0.2-0.4-0.4-0.6-0.6
		c-0.2,0.2-0.4,0.3-0.5,0.6C47.2,52.8,47.1,53.6,46.9,54.4z M72.1,53.2c0-0.1,0-0.1,0-0.2c-0.4-0.5-0.9-1-1.3-1.4
		c-0.2-0.2-0.4-0.4-0.7-0.5c-0.8-0.2-1.7-0.3-2.5-0.5c-0.2,0-0.4-0.1-0.6-0.1c0,0.2-0.2,0.5-0.1,0.6c0.3,0.4,0.6,0.7,1,1
		c0.3,0.2,0.7,0.2,1,0.3C70,52.6,71.1,52.9,72.1,53.2z M96.2,88.8c0.1,0,0.4-0.1,0.7-0.2c0.5-0.2,1.1-0.3,1-1.1
		c-0.1-0.8-0.5-0.9-1.2-0.9c-0.2,0-0.4,0-0.6,0c-0.7-0.2-1,0.2-1.1,0.8C94.9,88.2,95.4,88.8,96.2,88.8z M74.1,47
		c-1.8,1.8-4.3,1.9-6.4,3.1c0.5,0,1-0.2,1.5-0.3c1.4-0.4,2.8-0.9,4.3-1.3C74.3,48.3,74.3,47.7,74.1,47z M58.3,61.2
		c1.8-0.6,3.3-3.4,2.6-4.7C60,58.1,59.2,59.6,58.3,61.2z M68.4,50.3c0,0.1,0,0.2,0,0.4c1.1,0,2.2,0,3.2,0c0.6,0,1.1-0.4,1-1.3
		C71.2,49.7,69.8,50,68.4,50.3z M67.4,68c-0.5-0.2-1.1-0.6-1.4,0.1c-0.1,0.3,0.1,0.7,0.2,1.2c0.5-0.5,0.7-0.8,1-1
		C67.2,68.2,67.3,68.1,67.4,68z"/>
	<path class="st0" d="M62.9,33.7c2-1.1,3.8-2.3,6.2-2.1c-1.7,0.6-3.4,1.2-5.1,1.8c0,0.1,0.1,0.2,0.1,0.3c2,0.2,4-0.4,6.1-0.5
		c-0.3,0.2-0.5,0.4-0.7,0.6c0,0.5-0.1,0.9,0,1.4c0.1,0.4,0.3,0.8,0.5,1.2C67.1,37,65.2,34.9,62.9,33.7z M67.4,34
		c-0.7,0.1-1.4,0.2-2.1,0.3c0,0.1,0,0.2,0,0.3c0.7,0.4,1.3,0.7,2,1.1C67.3,35.1,67.4,34.6,67.4,34z"/>
	<path class="st0" d="M61.2,28c0.2-0.2,0.3-0.3,0.5-0.3c2.1-0.6,4.3-1.1,6.6-1c0.8,0,1.6,0.5,2.4,0.9c0.2,0.1,0.3,0.7,0.2,0.8
		c-0.3,0.2-0.7,0.3-1,0.4c0,0-0.1,0-0.1-0.1c-1.9-1.6-4-1.2-6.1-0.7C62.9,28.1,62.2,28.5,61.2,28z"/>
</g>
</svg>
