<?xml version="1.0" encoding="utf-8"?>
<!-- Generator: Adobe Illustrator 19.1.0, SVG Export Plug-In . SVG Version: 6.00 Build 0)  -->
<svg version="1.1" id="Layer_1" xmlns="http://www.w3.org/2000/svg" xmlns:xlink="http://www.w3.org/1999/xlink" x="0px" y="0px"
	 viewBox="0 0 150 176" style="enable-background:new 0 0 150 176;" xml:space="preserve">
<style type="text/css">
	.st0{fill:#03A9F4;}
</style>
<g id="acne-man">
	<path class="st0" d="M93,147.2c-1.6,2.9-3.3,5.9-5,9c-0.9,1.5-1.6,3.1-2.8,4.5c-3.9,4.6-7.8,9.2-12.5,13.1
		c-0.3,0.2-0.8,0.1-1.2,0.2c0.1-0.4,0.2-0.9,0.4-1.2c1.8-1.6,3.7-3.1,5.4-4.7c1.4-1.4,2.6-3,3.9-4.6c1.3-1.6,2.8-3.1,3.9-4.8
		c1.4-2.2,2.4-4.7,3.7-7c2.3-4.1,4.7-8.1,7.1-12.1c1.4-2.3,3.4-4,6.1-4.9c5.1-1.7,9.8-4.3,13.9-7.9c0.7-0.6,1.1-1.7,1.8-2.4
		c1.4-1.5,3.1-2.8,4.5-4.4c1.8-1.9,3.7-3.7,4.3-6.5c0.3-1.6,1.4-3.1,2-4.7c0.2-0.6,0.1-1.4,0.2-2c-0.2,0-0.3-0.1-0.5-0.1
		c-0.2,0.4-0.4,0.9-0.6,1.3c-1.4,2.8-2.6,5.6-4.2,8.2c-0.6,1.1-1.9,1.8-2.9,2.7c-1.7,1.4-3.4,2.9-5.1,4.2c-0.3,0.3-0.9,0.3-1.3,0.4
		c0.1-0.4,0.2-1,0.5-1.3c1.9-1.7,3.9-3.2,5.7-4.9c1.1-1,2.4-2,3-3.2c1.7-3.3,3.1-6.7,4.5-10.1c0.2-0.5,0.1-1.2,0-1.8
		c-0.1-0.4-0.4-1-0.7-1c-0.5,0-1.2,0.2-1.4,0.5c-2.1,3-4.1,6.2-6.3,9.2c-1.3,1.8-3,3.4-4.4,5.1c-0.5,0.5-0.9,1.1-1.5,1.6
		c-0.3,0.3-0.8,0.5-1.2,0.7c-0.1-0.2-0.3-0.3-0.4-0.5c0.6-0.8,1.1-1.6,1.8-2.3c2.1-2.6,4.3-5.2,6.4-7.8c2.1-2.8,4.1-5.7,6.1-8.6
		c0.9-1.2,0.9-1.8-0.1-2.7c-0.9-0.9-1.8-0.5-2.7,0.2c-1.3,1-2.8,1.9-3.9,3.2c-2.7,3-5.2,6.3-7.8,9.4c-1.4,1.7-3.1,3.1-4.7,4.6
		c-0.4,0.3-1.1,0.2-1.7,0.3c-0.1-0.1-0.2-0.2-0.3-0.3c0.6-1.1,1-2.2,1.7-3.3c1.2-1.7,2.4-3.3,3.7-5c3.2-4,6.4-7.9,9.6-11.8
		c0.4-0.5,0.9-0.9,1.1-1.4c0.2-0.6,0.5-1.4,0.2-1.8c-0.3-0.4-1.2-0.8-1.7-0.7c-1.8,0.4-3.5,1-4.9,2.4c-2.1,2.1-4.4,3.9-6.4,6
		c-1.6,1.7-3,3.6-4.3,5.5c-2.1,3.1-4.8,5.8-8.5,7.3c-1.4,0.6-2.5,2-3.7,3.2c-1.9,2-3,4.5-3.7,7.1c-0.3,1.2,0,2.5,0.1,3.8
		c0,0.6,0.1,1.1,0.1,1.7c-0.2,0-0.4,0.1-0.6,0.1c-0.4-1-0.8-1.9-1.2-3.1c-1.2,1.4-2.5,2.5-3.4,4c-2.5,3.9-4.7,7.9-7.3,11.7
		c-2.2,3.3-4.6,6.5-7.2,9.5c-1.8,2.1-3.9,4.1-6.1,5.9c-1.9,1.6-4.1,3-6.2,4.4c-0.4,0.3-0.9,0.4-1.4,0.6c-2.2-5.9-4.3-11.7-6.4-17.7
		c-1,0.6-1.9,1.1-2.7,1.7c-5.1,3.5-10.3,6.7-15.8,9.5c-1.9,0.9-4,1.6-6,2.2c-0.5,0.2-1.2,0-2.1,0c1.6,2.9,3.1,5.6,4.6,8.3
		c0.6,1.1,1.2,2.1,1.7,3.2c0.1,0.2-0.2,0.7-0.2,1c-0.3-0.2-0.8-0.3-0.9-0.5c-1.3-2.3-2.5-4.6-3.7-6.9c-0.8-1.5-1.7-2.9-2.6-4.3
		c-0.2-0.3-0.7-0.4-1.2-0.6c0.8-2.3-1.3-3.7-1.8-5.7c-0.1,0-0.2,0-0.4,0c0,0.5-0.1,1-0.1,1.5c0,4.1,0.1,8.3,0,12.4
		c-0.1,3.3-0.3,6.7-0.6,10c0,0.4-0.2,0.8-0.4,1.1c-0.1,0.1-0.5,0.2-0.7,0.1c-0.1,0-0.2-0.3-0.2-0.5c0.1-4.2,0.2-8.3,0.3-12.5
		c0.1-4.7,0.3-9.4,0.4-14.1c0-2.5-0.5-4.9-1.9-7.1c-0.9-1.3-1.5-2.9-2.1-4.3c-1.9-4.4-3.8-8.8-5.8-13.2c-0.8-1.8-1.6-3.7-2.5-5.5
		c-0.7-1.4-1.4-2.9-2-4.3c-1.4-3.6-1-7.5-1.4-11.2c-0.3-3-0.2-6.1-0.2-9.1c0-3.2,1-5.8,3.8-7.6c0.4-0.2,0.7-0.6,1-0.8
		c2.2-1.8,4.2-3.8,6.5-5.4c3-2,5.9-3.9,8.6-6.4c2-1.8,4.7-3.1,7.1-4.3c4.5-2.2,8.8-4.6,11.7-8.8c0.3-0.4,0.6-0.8,0.8-1.2
		c1.1-2.3,2.5-4.6,3.3-7c0.4-1.4,0-3.2-0.3-4.7c-0.8-3.7-1.9-7.3-2.6-11c-0.6-3.2-0.8-6.5-1.1-9.7c-0.1-1.1-0.4-2.1-0.5-3.2
		c-0.2-3.8,1.6-6.9,3.8-9.8c2-2.6,4.2-4.9,6.3-7.4c2.3-2.7,5.4-3.9,8.8-4.7c3.2-0.7,6.3-1.8,9.6-1.5c2.9,0.3,5.7,0.8,8.5,1.4
		c2.7,0.6,5.4,1.4,8,2.2C85,4.3,86.7,5.2,88.3,6c1.9,0.9,3.9,1.8,5.6,2.9c1.6,1.1,3.4,2.2,4.5,3.7c0.9,1.2,1,3,1.2,4.5
		c0.2,1.6,0,3.2,0,4.7c0,1.7,0.2,3.3,0.3,5c0.2,2.1,0.3,4.2,0.5,6.3c0.1,1.2-0.3,2.1-1,3.1c-0.4,0.5-0.6,1.3-0.5,1.9
		c1,3.5,2,7.1,3.1,10.6c0.7,2.1-0.1,3.7-2.2,4.3c-0.3,0.1-0.7,0.1-1.1,0c-1.2-0.3-1.6,0.2-1.4,1.4c0.1,0.6,0.3,1.3,0,1.7
		c-0.4,0.7-1.1,1.3-1.7,2c0.7,0.7,0.3,1.3-0.8,1.9c-1.1,0.6-1.8,1.2-1.5,2.7c0.4,2.4-1.3,4-3.1,5.4c0.6,0.9,1.2,1.7,1.8,2.6
		c2.2,3.3,2.8,7.1,3.7,10.8c0.3,1.2,0.4,2.5,0.8,3.7c1.1,3.4,1.9,6.9,2.1,10.4c0.1,1.5,0.9,3,1.3,4.5c0.1,0.4,0,1,0.2,1.4
		c0.2,0.5,0.5,1.4,0.8,1.4c0.8,0,1.8-0.2,2.3-0.7c2.2-2.4,4.2-5.1,6.5-7.4c2.1-2,4.5-3.7,6.8-5.5c0.2-0.2,0.4-0.3,0.5-0.5
		c1.7-4,4.6-7.2,7.2-10.5c0.8-1,2-1.8,3-2.6c2.6-2.1,5.2-4,8.5-5c2.4-0.7,4.7-1.1,7.2-0.7c2.2,0.4,3.3,2.2,4.7,3.7
		c0.6,0.6,1.1,1.3,1.4,2.1c0.3,0.7,0.5,1.6,0.4,2.4c-0.1,1.6-0.4,3.1,0.2,4.7c0.3,0.7,0.1,1.7-0.2,2.4c-1.4,3-1.6,6.2-2.3,9.3
		c-0.4,2-0.8,4-1.1,6.1c-0.1,0.6,0,1.3-0.1,1.9c-0.4,1.9-1.6,3.3-3.3,4c-2.8,1.3-5.7,2.6-8.6,3.7c-1.8,0.7-3.7,1.2-5.6,1.9
		c-0.4,0.2-0.8,0.7-0.9,1.1c-0.9,3.3-3,5.6-5.5,7.8c-1.6,1.4-3.3,2.9-4.1,5.1c-0.1,0.3-0.4,0.6-0.7,0.8c-1.7,1.4-3.4,2.9-5.3,4
		c-1.9,1.1-2.5,2.5-2.6,4.5c-0.2,2.1-0.1,4.4-0.8,6.3c-0.9,2.3-2.3,4.5-3.8,6.5c-0.6,0.9-1.9,1.5-3,1.8c-1.5,0.5-2.2,1.6-2.6,2.9
		c-0.9,3.1-0.7,6.3-0.4,9.5c0.5,4,1.1,8,1.5,12c0,0.4-0.3,0.8-0.5,1.2c-0.2-0.3-0.6-0.7-0.7-1c-0.6-3.9-1.1-7.7-1.6-11.6
		c-0.5-3.6-0.7-7.3,0.5-10.9c0.5-1.3,0.1-1.9-1.2-2.6C95.7,149.1,94.5,148.2,93,147.2z M66.7,30.1c-0.2-0.9-0.5-1.8-1.6-1.8
		c-1.6,0-3.2-0.2-4.4,1.3c-1.8,2.3-2.4,4.8-2.1,7.8c0.3,3.3,1.7,6,4.2,8.1c0.6,0.5,1.7,0.6,2.5,0.4c0.8-0.2,1.2-1,1.2-2.1
		c0-1.6-0.8-2.3-2.1-2.8c-1.7-0.7-3-1.9-3.1-3.9c0-0.6,0.3-1.3,0.4-1.9c0.2,0,0.3,0,0.5,0C62,36.8,62,38.2,63,39.1
		c1.2-0.4,2.1-0.8,3.3-1.2c0.2,0.5,0.4,0.9,0.4,1.3c0.2,1.1,0.4,2.3,0.5,3.4c0.1,0.8,0.3,1.6,0.1,2.3c-0.5,1.8-3.4,2.7-4.8,1.4
		c-1.1-1-2-2.2-2.9-3.3c-1.4-1.7-1.7-3.7-2-5.9c-0.4,0.6-0.6,1.2-0.8,1.8c-0.5,1.3-0.9,2.7-1.7,3.9c-1,1.5-2.3,2.8-3.3,4.3
		c-1.4,2.1-3.3,3.3-5.8,3.5c-0.4,0-1.1,0.3-1.2,0.6c-1.1,2.1-2.2,4.3-3.1,6.5c-2.2,5.5-6.6,8.9-11.4,11.9c0-0.1,0,0,0.1,0.1
		c0.1,0.1,0.3,0.2,0.4,0.3c2,0.5,3.3,2,4.7,3.3c3,2.8,6.1,5.4,9.2,8c1.4,1.2,2.8,2.6,4.3,3.7c1.4,1,3.1,1.7,4.4,2.8
		c2.6,2.1,5.1,4.3,7.6,6.4c1.1,0.9,1.4,0.8,2-0.4c1.1-2.2,2.2-4.5,3.2-6.7c0.8-1.7,0.7-2-0.6-3.3c-1.2-1.3-2.2-2.7-3.4-4.2
		c-0.5,1.4-1.1,2.8-1.7,4.2c-0.1,0.3-0.5,0.4-0.8,0.6c-0.1-0.3-0.3-0.7-0.2-1c0.5-1.4,1.2-2.8,1.7-4.3c0.2-0.5,0.3-1,0.2-1.5
		c-0.3-1.1-0.8-2.2-1.2-3.2c-0.5-1.3-0.2-2.7,0.9-3.6c0.7-0.5,1.4-0.8,2,0.1c0.8,1,1.5,2.1,2.2,3c0.6-1,1.3-2.1,2-3.2
		c0.1-0.2,0.2-0.5,0.2-0.7c-0.1-1.2-0.2-2.3-0.2-3.5c0-2.6,1.8-3.7,4.1-2.6c0.1,0,0.2,0,0.1,0c0.4-1.2,0.8-2.3,1.2-3.4
		c-1.6-1-3.3-2.1-4.9-3.2c-2.8-2.1-4.1-4.9-3.1-8.4c0.1-0.2,0.4-0.3,0.8-0.8c-0.3,2.9-0.3,5.5,1.8,7.3c1.9,1.5,4,2.8,6.2,4.3
		c-0.2-1.8,0.1-2.9,1.7-3.3c1.7-0.4,2.4-0.3,3.5,1.3c1.2,1.7,2.4,3.4,3.6,5c1.3,1.8,2.7,3.6,4.1,5.3c0.4-0.2,0.8-0.4,1.1-0.4
		c3-0.1,5.2-2.7,4.6-5.6c-0.1-0.4,0-1,0.2-1.4c0.6-1.3,0.4-1.9-0.9-2.6c-0.5-0.3-1-0.6-1.6-1c0-0.2,0-0.3,0-0.5
		c2.1-0.6,4.2-1.2,6.3-1.8c0-0.6,0.1-1.2,0-1.9c-0.1-0.3-0.4-0.8-0.8-0.9c-1-0.3-1.9-0.9-2-1.9c-0.2-1.4-0.1-2.8,1.1-3.8
		c0.2-0.1,0.5-0.1,0.8-0.1c-1.1,1.3-1.5,2.6-0.9,4.1c0.4,1,1.1,1.1,2,0.5c0.5-0.3,1.3-0.4,1.8-0.2c0.4,0.1,0.5,0.8,0.9,1.4
		c1.4,0,2.5-1.2,2.1-2.6c-1-3.5-2-7-3.2-10.4c-0.4-1.4-0.4-2.5,0.6-3.6c-1.2-0.6-2.4-1.2-3.5-1.9c-0.1-0.1-0.2-0.3-0.3-0.4
		c-0.7-0.9-1.7-1.2-2.8-1.1c-0.5,0-1.1,0-1.6-0.1c-0.2,0-0.4-0.4-0.4-0.6c0.1-0.2,0.3-0.6,0.5-0.6c1.6-0.4,3.2-0.5,4.8,0.2
		c1.7,0.8,3,2,3.8,3.8c0.1-0.9,0.1-1.8,0-2.7c-0.1-0.5-0.5-0.9-0.5-1.3c-0.2-2.8-0.4-5.5-0.6-8.3c0-0.7-0.2-1.3-0.2-1.7
		c-1.3,0.1-2.5,0.2-3.6,0.2c-2.9,0-5.8-0.5-8.8,0.3c-1.4,0.4-2.9,0.5-3.7,2c-0.4,0.7-1,1.3-1.6,1.9c-1.6,1.5-3.4,2.9-5,4.5
		c-0.5,0.5-0.7,1.4-1,2.1C74,32.8,73.8,34,73.2,35c-0.6,1.1-1.9,0.8-2.8,0.7c-0.5-0.1-1.2-0.6-1.5-1.1c-0.6-1.1-1.1-2.4-1.6-3.6
		C67.1,30.6,66.9,30.4,66.7,30.1z M19.3,151c0.5,0.9,1.2,1.7,1.6,2.7c0.4,1,1.2,1.2,2,0.9c2.2-0.7,4.5-1.3,6.7-2.2
		c6.4-2.9,12.2-6.9,17.9-10.8c0.3-0.2,0.6-0.5,0.6-0.7c-0.2-1.2-0.6-2.4-1-3.8c-0.9,0.8-1.5,1.4-2.2,1.8c-4,2.4-7.7,5.2-12.2,6.8
		c-3.8,1.4-7.6,3-11.3,4.4C20.7,150.5,20,150.8,19.3,151c0.3-0.4,0.5-1.1,1-1.3c1.5-0.8,3.1-1.4,4.7-2c3.9-1.6,7.9-3,11.7-4.9
		c3-1.5,5.8-3.6,8.6-5.4c0.7-0.4,1.4-1.2,0.9-1.9c-1.2-1.8-1.4-4.2-3.3-5.5c-0.3-0.2-0.4-0.6-0.5-1c-0.4-0.9-0.7-1.9-1.3-2.7
		c-1.1-1.4-2.4-2.8-3.7-4c-1.1-1-2.4-1.8-3.7-2.6c-0.6-0.4-1.3-0.5-1.9-0.8c-0.4-0.2-0.6-0.6-0.9-1c0.5-0.1,1-0.3,1.5-0.2
		c1.3,0.4,2.5,0.9,3.7,1.4c0.1-0.1,0.2-0.2,0.3-0.3c-2-2.9-3.9-5.8-5.9-8.8c0.1-0.1,0.2-0.2,0.3-0.3c0.5,0.4,1.2,0.6,1.6,1.1
		c1.6,2.2,3.4,4.3,4.5,6.7c1.4,3.1,3.7,5.4,5.5,8c0.7,1,1.6,2,2.2,3c0.9,1.7,1.7,3.5,2.4,5.3c1.7,4.7,3.3,9.4,5,14.1
		c0.4,1,0.7,2,1,2.8c2.5-1.7,4.8-3.4,7.3-4.7c2.8-1.4,5-3.3,6.7-5.8c2.2-3.2,3.1-6.8,3-10.6c0-4.1,1.5-7.6,3.3-11.2
		c0.2-0.4,0.5-0.8,0.9-0.9c0.4-0.1,0.8,0.1,1.3,0.2c-0.2,0.3-0.4,0.6-0.6,0.8c-0.2,0.3-0.5,0.5-0.7,0.7c-2,3.7-3,7.7-3.1,12
		c-0.2,5.7-2.7,10.3-6.9,13.9c-0.9,0.7-1.9,1.4-3,1.7c-2.7,0.9-4.7,2.8-6.7,4.7c-0.5,0.5-0.8,1.1-0.3,1.9c0.7,1.3,1.2,2.6,1.9,4.1
		c1.1-0.9,2.2-1.9,3.4-2.5c3-1.7,5.6-3.8,7.9-6.4c0.9-1.1,1.8-2.2,2.7-3.3c2.1-2.5,4-5.1,5.6-7.9c2.3-4,5-7.7,7.5-11.5
		c0.5-0.8,0.8-1.5,0.6-2.5c-0.2-1.4-0.3-2.8-0.5-4.2c-0.4-2.8-0.6-5.7-1.3-8.4c-1.1-4.3-2.6-8.6-3.9-12.9c-1.1-3.6-3.1-6.4-6.4-8.3
		c-0.7,1.5-1.3,3-2,4.4c-1.3,2.4-2.5,4.9-3.9,7.2c-1.5,2.6-3.6,2.4-5.7,0.6c-0.6-0.6-1.3-1.1-2-1.7c-1.9-1.5-3.9-2.9-5.7-4.6
		c-2.7-2.5-5.7-4.6-8.8-6.7c-2.7-1.9-5.1-4.2-7.3-6.7c-1.8-2.1-3.4-4.5-5.9-6c-1.7-1-3.2-2.5-4.7-3.9c-0.7-0.6-1.3-0.4-2-0.2
		c-2.1,0.6-3,2.7-4.9,3.7c-2,1-3.7,2.7-5.6,4c-2.7,1.8-5.4,3.4-7.4,5.9c-0.4,0.4-0.8,0.8-1.3,1.1c-2.4,1.5-3.4,3.8-3.4,6.5
		c0,3.1,0.1,6.3,0.2,9.4c0.1,2.7,0.2,5.4,0.8,8c0.7,2.9,2,5.6,3.1,8.4c0.9,2.1,1.9,4.1,2.8,6.2c2.5,5.6,4.6,11.3,7.8,16.5
		c0.3,0.5,0.4,1,0.6,1.6C17.4,146,18.4,148.5,19.3,151z M85,123.3c0.2,0,0.4,0.1,0.6,0.1c0.5-1,1.2-1.9,1.5-2.9
		c1-2.7,2.2-5.3,4.2-7.4c2-2.1,3.7-4.5,5.5-6.8c0.3-0.3,0.4-1,0.2-1.4c-0.5-1.5-1.3-3-1.8-4.5c-0.9-2.9-1.7-5.8-2.5-8.8
		c-1.1-4-2.4-7.9-2.5-12.1c0-1.5-0.3-3-0.7-4.5c-0.7-2.5-2.2-4.6-3.8-6.6c-2.7-3.5-5.3-7.2-7.9-10.8c-0.6-0.8-2-1-2.7-0.3
		c-1,0.8-0.8,2.6,0.5,3.4c1.8,1,2.4,2.7,3.2,4.4c0.7,1.5,1.6,2.8,2.5,4.2c0.6,1.1,1.5,2.1,1.9,3.2c0.8,2,1.5,4,2.1,6
		c0.3,0.8,0.4,1.6,0.6,2.5c-0.2,0.1-0.4,0.1-0.6,0.2c-0.2-0.4-0.4-0.8-0.5-1.2c-0.2-0.5-0.2-1.1-0.3-1.6c-0.7-1.9-1.3-3.8-2.1-5.6
		c-0.3-0.8-0.8-1.5-1.3-2.2c-1-1.8-2.1-3.5-3.2-5.3c-0.7-1.1-1.2-2.4-2.1-3.3c-0.5-0.5-1.8-0.9-2.4-0.6c-0.8,0.4-1.3,1.5-0.7,2.6
		c0.8,1.8,1.6,3.7,2.4,5.5c0.6,1.4,1.1,2.8,1.7,4.2c0.9,2.2,1.9,4.4,2.9,6.5c0.1,0.2,0,0.5,0,1.1c-0.7-0.8-1-1.5-1.5-1.8
		c-1.8-1.1-2.6-3-3.5-4.7c-1-1.8-1.6-3.9-2.3-5.8c-0.4-1.2-0.7-2.4-1.2-3.6c-0.2-0.5-0.8-1.1-1.4-1.2c-0.4-0.1-1.3,0.5-1.3,0.9
		c-0.2,1.5-0.2,3.1,0,4.6c0.1,1.1,0.6,2.2,1,3.3c0.9,2.2,1.3,4.7,3.1,6.5c0.9,0.9,1.4,2.2,2.2,3.4c-1.9,0.6-5.4-0.7-6.6-2.5
		c-1.6-2.5-3-5.2-4.5-7.8c-0.4-0.8-0.9-1.6-1.9-1.1c-0.9,0.4-1.1,1.3-0.8,2.3c0.4,1,0.6,2.2,1.1,3.1c1.3,2.2,2,4.8,4.3,6.4
		c1.8,1.2,3.3,2.8,4.8,4.3c0.9,0.8,1.5,1.8,2.4,2.7c1.5,1.5,3.3,2.5,5.6,2.2c0.2,0,0.4,0.1,0.6,0.2c0.3,0.2,0.5,0.4,0.7,0.6
		c-0.3,0.2-0.5,0.6-0.8,0.7c-0.6,0.1-1.2,0-1.8,0c0,0.2,0,0.3,0,0.4c1.6,5,3.4,10,4.8,15c0.9,3.2,1.2,6.5,1.7,9.8
		C84.7,120.5,84.8,121.9,85,123.3z M25.9,71.4c2,1.6,3.9,3,5.8,4.5c0.6,0.4,1.2,0.8,1.7,1.4c2.4,2.6,4.6,5.4,7.1,7.8
		c2,1.9,4.3,3.6,6.5,5.3c0.8,0.6,1.8,1,2.6,1.6c3.9,3.2,7.7,6.4,11.5,9.6c0.7,0.6,1.6,1.2,2.6,0.4c0.6-0.5,1.1-1,1.4-1.6
		c1.6-2.9,3.3-5.8,4.6-8.9c1.4-3.3,1.3-3.3-1.6-5.6c0,0-0.1,0-0.2,0c-0.1,0.1-0.1,0.2-0.2,0.3c-1.3,2.8-2.6,5.6-3.9,8.4
		c-0.7,1.4-1.9,1.9-2.9,1.1c-1.4-1.1-2.6-2.3-3.9-3.4c-2.1-1.7-4.3-3.3-6.5-4.9c-1.9-1.4-3.9-2.7-5.7-4.2c-2.5-2.1-4.5-4.7-7.2-6.6
		c-2.6-1.8-4.4-4.7-7.6-5.9C28.4,70.1,27.8,69.8,25.9,71.4z M147.6,87.9c-1.8,2.2-3.6,4.4-5.4,6.6c-1.2,1.3-2.5,2.5-3.7,3.8
		c-2.4,2.7-5.3,4.6-8.7,5.6c-0.9,0.3-1.2,1.1-0.6,1.8c0.9,1.1,1.2,2.3,0.6,3.6c-0.3,0.6-0.5,1.2-0.7,1.9c0.1,0.1,0.1,0.2,0.2,0.3
		c1.6-0.6,3.3-1.2,4.9-1.9c2.9-1.3,5.9-2.6,8.8-3.9c1.1-0.5,1.9-1.4,1.9-2.8c0-1.4,0.3-2.9,0.6-4.3C146,95,146.9,91.5,147.6,87.9z
		 M120.7,88.7c0.8-1.1,1.4-2,2.1-2.9c1.2-1.5,2.2-3.3,3.7-4.5c2.7-2.3,5.5-4.7,8.9-6.1c1.9-0.8,3.8-1.3,5.9-1.1
		c1.5,0.2,3.1,0.3,4.1,1.9c2.2,3.4,1.5,6.7-0.1,9.9c-1.7,3.3-3.8,6.2-6.6,8.7c-2.9,2.6-5.9,5.1-9.5,6.6c-0.1,1.8,0.3,2.1,1.8,1.3
		c1.6-0.9,3.2-1.7,4.6-2.8c2.2-1.9,4.2-4.1,6.3-6.2c2.4-2.5,4.4-5.3,5.5-8.6c1.2-3.3,1.9-6.7-0.2-9.9c-1-1.6-2.1-3.2-4.3-3.6
		c-2.3-0.4-4.5,0.1-6.7,0.7c-4.4,1.3-7.9,4.2-11,7.4c-2.2,2.3-3.9,5.2-5.7,7.9c-0.2,0.3-0.4,0.7-0.6,1.2
		C119.6,88.7,120.3,88.7,120.7,88.7z M94.1,145.6c0.4,0.5,0.8,1,1.2,1.6c0.7,1.1,3.9,2.6,5,2.2c1.5-0.6,3.3-1.2,4.3-2.4
		c1.4-1.8,2.1-4.1,3-6.2c0.2-0.4,0-1,0.1-1.4c0.1-1.1,0.3-2.2,0.5-3.3c0.1-0.7,0.2-1.3,0.3-1.9C101.5,135.5,96.5,138.9,94.1,145.6z
		 M98.1,104.7c0.2,0,0.3,0,0.5,0c0.2-0.3,0.5-0.7,0.5-1c0-0.9-0.2-1.7-0.4-2.5c-0.4-1.7-1-3.3-1.4-4.9c-0.5-2.6-0.8-5.2-1.3-7.7
		c-0.5-2.7-1.1-5.4-2-8c-1-3-1.3-6.3-3.2-9c-0.6-0.8-1.1-1.7-1.7-2.7c-0.5,0.1-1.1,0.3-1.8,0.4c1.1,1.7,2.4,3.2,3,4.9
		c0.7,1.8,0.6,3.9,1,5.8c0.5,2.8,1,5.6,1.6,8.4c0.4,1.6,1,3.2,1.5,4.8C95.7,97,96.9,100.8,98.1,104.7z M69.1,80.5
		c0.9-1.6,1.4-2.8,0.5-4.3c-0.7-1.1-1.1-2.4-1.6-3.7c-1.5,0.4-1.2,2.1-1.9,3.1c-0.1,0.2,0.5,1,0.8,1.5c0.2,0.4,0.4,0.8,0.7,1.2
		C68,78.9,68.5,79.6,69.1,80.5z M120,97.5c1.2-0.7,2.3-1.3,3.3-2c0.3-0.2,0.4-0.7,0.4-1c-0.1-0.2-0.5-0.5-0.8-0.5
		C121.1,93.8,119.7,95.4,120,97.5z M96.4,109.2c0.1,0.1,0.2,0.2,0.3,0.3c1.8-1.6,3.6-3.2,5.4-4.8c-0.1-0.1-0.2-0.3-0.4-0.4
		C99,104.9,97.8,107.1,96.4,109.2z M74.8,71.4c-0.2,0.1-0.4,0.2-0.6,0.3c1.1,2.1,2.1,4.2,3.2,6.3c0.2-0.1,0.4-0.2,0.5-0.3
		C76.9,75.6,75.8,73.5,74.8,71.4z M71.3,79.2c-0.1,0-0.3,0-0.4,0.1c-0.1,0.7-0.6,1.7-0.4,1.9c0.6,0.5,1.6,0.7,2.4,1
		c0.1-0.1,0.1-0.2,0.2-0.3C72.5,81,71.9,80.1,71.3,79.2z M108.2,110.7c0.1,0.1,0.2,0.2,0.4,0.4c1.2-1.2,2.3-2.5,3.5-3.7
		c-0.1-0.1-0.3-0.3-0.4-0.4C109.8,107.5,109.5,109.5,108.2,110.7z M72.5,66c-0.5,1.9,1,3.1,1.5,4.6C74.4,68.8,73.3,67.4,72.5,66z
		 M112.5,105.5c0.1,0.1,0.2,0.1,0.3,0.2c1-1.1,2-2.1,3.2-3.4c-0.6,0-1.1-0.1-1.3,0.1C113.9,103.4,113.2,104.5,112.5,105.5z
		 M117.6,100.2c1.3-1.2,1.3-1.2,0.7-2.7C117,98.7,116.8,99.3,117.6,100.2z M96.4,55.6c-1.2,0.4-2.1,0.7-3.3,1.1
		C94.6,57.3,96,56.9,96.4,55.6z M95,58.8c-0.9-0.5-1.6-0.9-2.4-1.3C93.9,59.6,93.9,59.6,95,58.8z"/>
	<path class="st0" d="M67.3,30.9c0,0.3-0.1,0.5,0,0.8c0.5,1.6,0.4,2.9-1.2,3.9c-0.5,0.3-0.8,0.9-1.2,1.3c-0.1,0-0.3-0.1-0.4-0.1
		c0-0.3-0.1-0.7,0.1-0.9c0.3-0.4,0.7-0.9,1.1-1.1c1.2-0.6,1.3-1.5,1-2.7c-0.3-1.1-0.5-1.9-1.7-2.1c-1.6-0.2-2.5,0.2-3.2,1.4
		c-1.5,2.4-1.9,4.9-0.9,7.5c0.5,1.2,1.2,2.3,1.7,3.4c0.1,0.2,0.2,0.5,0.1,0.9c-1.5-1.4-2.3-3.1-2.9-5c-0.6-1.8-0.4-3.7,0.3-5.3
		c0.7-1.5,1.4-3.2,3.4-3.8c1.3-0.4,2.3,0.1,3.4,0.9C66.9,30.4,67.1,30.6,67.3,30.9z"/>
	<path class="st0" d="M87.5,36.4c1.7,0.5,3,1,4.3,1.3c0.2,0.1,0.7-0.3,0.8-0.5c0.4-0.7,0.7-1.5,1-2.3c0.1,0,0.3,0,0.4,0.1
		c0,0.4,0,0.8-0.1,1.2c-0.2,0.8-1.2,1.4-0.7,2.4c-0.6,0.1-1.1,0.1-1.9,0.3c-0.1,0.2-0.2,0.9-0.6,1.2c-0.4,0.3-1.1,0.3-1.6,0.2
		c-1.2-0.4-2.4-2.7-2.2-3.9c0-0.2,0.3-0.5,0.5-0.6c1.4-0.4,2.8-0.8,4.2-1.2c0.1,0,0.3,0.2,0.6,0.4C90.6,35.5,89.2,35.9,87.5,36.4z"
		/>
	<path class="st0" d="M77,55.5c-0.8,0-1.5-0.3-1.3-1.2c0.1-0.5,0.8-1.1,1.2-1.1c0.4,0,1.2,0.6,1.3,1C78.4,54.9,77.9,55.5,77,55.5z"
		/>
</g>
</svg>
