<?xml version="1.0" encoding="utf-8"?>
<!-- Generator: Adobe Illustrator 19.1.0, SVG Export Plug-In . SVG Version: 6.00 Build 0)  -->
<svg version="1.1" id="Layer_1" xmlns="http://www.w3.org/2000/svg" xmlns:xlink="http://www.w3.org/1999/xlink" x="0px" y="0px"
	 viewBox="0 0 150 98.7" style="enable-background:new 0 0 150 98.7;" xml:space="preserve">
<style type="text/css">
	.st0{fill:#E91E63;}
</style>
<g id="burn-hand">
	<path class="st0" d="M0,89.9c0.5-0.4,1-0.9,1.5-1.3c1.6-1.6,3.7-2.3,5.7-3.3c3.8-2,7.5-4.2,11.4-6.2c2.2-1.1,4.1-2.6,6.2-3.8
		c4.1-2.4,8.4-4.4,13.5-5.1c-0.6-1.9-1.3-3.6-2.3-5.3c-0.2-0.4-0.2-0.8-0.3-1.2c0.4,0.2,1.1,0.2,1.3,0.6c1,1.8,1.8,3.7,2.8,5.5
		c0.3,0.5,0.7,1.2,1.2,1.4c1.5,0.7,3.1,1.2,4.7,1.9c1.1,0.5,2.1,1.2,3.2,1.6c1.4,0.4,2.8,0.6,4.2,0.9c4.7,1,9.3-0.5,13.9-0.4
		c1.7,0,3.4-0.1,5.1,0c0.8,0,1.7,0.3,2.3,0.8c3.3,2.2,6.5,4.4,9.7,6.7c4.8,3.5,9.1,7.8,14.4,10.6c1.8,0.9,3.2,2.3,4.9,3.4
		c0.3,0.2,0.6,0.3,1,0.5c0.1-0.1,0.1-0.2,0.2-0.3c-1-1-2-2-2.9-3.1c-0.6-0.7-1.3-1.5-1.6-2.4c-0.5-1.6,0.5-2.6,2.1-3.3
		c-4-4.3-8-8.5-12-12.8c-0.6,0.5-1.5,1.1-2.3,1.7c-0.1-1.5,1.5-1.6,2-3c-1.1-0.9-2.4-1.9-3.5-3c-2-2.1-4.8-3.1-6.4-5.6
		c-0.6-0.9-1.3-1.8-2-2.7c-0.1-0.1-0.1-0.3-0.1-0.8c0.6,0.4,0.9,0.6,1.2,0.9c2.5,2.1,4.9,4.2,7.4,6.3c0.2,0.2,0.6,0.3,0.9,0.2
		c1.3-0.2,2.4,0.2,3.4,0.9c2.7,2,5.6,3.6,8.7,5c1.2,0.6,2.2,1.6,3.4,2.4c1.4,1,2.8,2.1,4.1,3.1c0.7,0.5,1.3,1,1.9,1.6
		c2.9,3.1,5.8,6.1,8.7,9.2c1.3,1.4,2.7,2.8,4,4.3c1.1,1.3,2.3,1.9,4.2,1.4c-0.4-0.6-0.8-1.1-1.2-1.7c-1.1-1.4-2.2-2.6-3.2-4.1
		c-1.4-2-1.1-3.2,0.9-4.7c0.1-0.1,0.3-0.2,0.5-0.5c-1-1.2-1.9-2.5-3-3.6c-3-3.2-5.5-6.7-7.7-10.5c-1-1.8-2.6-3.3-3.9-4.9
		c-0.7-0.8-1.3-0.7-1.9,0.1c-0.4,0.5-1,0.8-1.5,1.2c-0.1-0.1-0.2-0.2-0.3-0.4c0.6-0.7,1.2-1.3,1.9-2.1c-0.4-0.3-0.8-0.5-1.2-0.7
		c-1.3-0.8-2.6-1.6-3.9-2.4c-1.7-0.9-3.4-1.8-5.1-2.7c-0.9-0.5-1.8-1.1-2.7-1.6c-1.8-1.1-3.6-2.3-5.5-3.5c1.6,0,2.9,0.6,4.1,1.5
		c1.9,1.4,3.8,2.4,5.9,3.3c2.3,0.9,4.4,2.5,6.5,3.8c1.8,1.1,3.7,2.1,5.3,3.4c1.2,1,2,2.4,3,3.6c0.4,0.5,1,0.7,1.5,1.1
		c0.6,0.4,1.2,0.7,1.8,1.2c4.4,3.7,8.7,7.4,13.2,11c1.1,0.9,2.3,1.6,3.4,2.3c0.8,0.5,1.5,1.1,2.3,1.7c1,0.8,2,1.6,3.1,2.3
		c0.6,0.3,1.4,0.2,2.4,0.3c-1.3-1.8-2.4-3.3-3.5-4.8c-1.6-2.2-1.5-3,0.4-4.8c0.1-0.1,0.1-0.2,0.1-0.2c-1.2-1.5-2.4-2.9-3.5-4.4
		c-0.7-0.9-1.4-2-2.2-2.8c-3.9-4.1-8.2-7.9-12.9-11.2c-0.7-0.4-1.1-0.5-1.6,0.1c-0.5,0.5-1.2,0.9-1.8,1.4c-0.1-0.1-0.2-0.2-0.3-0.4
		c0.6-0.7,1.3-1.4,2-2.2c-3.2-1.9-6.2-3.8-9.3-5.4c-1.8-1-3.9-1.5-5.8-2.4c-2.5-1.2-5-2.5-7.4-3.9c-1.5-0.9-2.9-1.6-4.7-1.4
		c-0.4,0-0.8-0.1-1.1-0.4c2.2-0.7,4.2-0.3,6.1,1c1.5,1,3.2,1.9,4.8,2.8c4.1,2.2,8.7,3.2,12.7,5.8c4.3,2.8,8.9,5.1,12.8,8.6
		c1.6,1.5,3.2,3.1,5,4.4c1.5,1.1,3.3,1.9,4.9,2.8c1.2,0.7,2.5,1.4,3.7,2.2c2.3,1.6,5.7,1.7,7.7,0.1c-1-0.5-1.9-1-2.9-1.6
		c-0.7-0.4-1.5-0.9-2.2-1.4c-1.3-1-1.8-2.2-1.1-3.8c0.4-1,0.1-1.3-0.7-1.8c-3.7-2.4-7.3-5-11-7.4c-1.5-1-3.1-1.8-4.6-2.5
		c-0.3-0.2-0.9,0.1-1.3,0.3c-0.6,0.3-1,0.8-1.6,1.2c-0.1-0.1-0.2-0.2-0.4-0.3c0.5-0.6,1-1.2,1.6-1.9c-0.8-0.3-1.6-0.5-2.4-0.7
		c-1.9-0.6-3.8-1.3-5.6-1.9c-1.4-0.5-2.9-0.9-4.2-1.6c-2.4-1.1-4.9-2.3-7.2-3.7c-2.8-1.8-5.7-3.2-9.1-2.8c-1.2,0.1-2.3,0.6-3.5,0.6
		c-2.7,0.1-5.3,0-8,0.1c-0.3,0-0.6,0-0.9,0c0.6,0.9,1.3,1.7,1.8,2.6c0.2,0.4,0.4,1,0.3,1.5c-0.3,1.4-0.7,2.7-2,3.5
		c-0.3,0.2-0.6,0.6-0.8,1c-0.9,1.8-2.3,2.4-4.2,2.6c-0.9,0.1-1.8,0.5-2.8,0.7c-0.7,0.2-1.5,0.5-2.2,0.3c-1.3-0.3-2.2,0.2-3.1,0.9
		c-2,1.8-4.2,2.3-6.7,1.4c-0.4-0.2-1.1-0.3-1.4-0.1c-2.4,1.4-4.8,0.6-7.2,0c-1.4-0.4-2.7-1.1-4-1.7c-0.3-0.2-0.6-0.7-0.6-1
		c-0.2-1.3-1-2.3-2.3-2.6c-1.4-0.2-2.1-1.2-2.4-2.4c-0.3-1.2,0.3-2.3,1.3-3c1.2-0.8,2.2-1.6,2.7-3c0.5-1.3,1.7-1.4,2.9-1.6
		c0.7-0.1,1.4-0.4,2.1-0.6c0-0.1,0-0.3-0.1-0.4c-0.7,0-1.3,0-2,0c-2.1-0.2-4.2-0.5-6.3-0.5c-1.7,0-3.5,0.4-5.2,0.7
		c-1.5,0.3-3.1,0.7-4.6,0.9c-3.6,0.7-7.3,1.1-10.9,1.9c-3.5,0.8-6.9,1.9-10.3,2.9C10.1,51.2,7,52,3.9,52.9c-1.4,0.4-2.6,1.2-3.9,1.8
		c0-0.7,0-1.4,0-2c10.1-2.9,20-6.4,30.4-8.2c-1.3-0.7-2.6-1.2-3.9-1.6c-1.3-0.4-2.6-0.5-3.9-1c-2.5-0.8-4.8-2-6-4.5
		c-0.2-0.4-0.5-0.6-0.8-0.9c-3.5-3.2-5.4-7.1-5.3-11.9c0-0.5,0.2-1,0.2-1.6c0-0.3-0.1-0.7-0.3-0.9C7.1,19.6,3.8,17.2,0,15.6
		c0-0.5,0-1.1,0-1.6c3.1,1.9,6.2,3.8,9.3,5.7c0.1,0.1,0.2,0.2,0.4,0.3c1.5,1,1.6,1,2.7-0.4c2.8-3.2,5.9-6,10-7.7
		c3.1-1.3,5.1-3.8,7-6.4c1.4-2.1,3.2-3.1,5.7-3c2,0.1,3.7-0.4,5.4-1.5c1.7-1.1,3.6-1.2,5.5-0.9C46.4,0.2,47,0.6,47.5,1
		c0.7,0.7,1.4,1,2.3,0.7c1.9-0.6,3.5-0.3,5,1c0.7,0.5,1.6,0.8,2.5,1c1.4,0.4,2.9,0.7,4.1,1.6C62.1,5.8,63,6,63.8,6.4
		c2.3,1,4.5,2.1,6.8,3.2c0.4,0.2,0.7,0.7,0.8,1.2c1,4.2,3.4,7.7,5.7,11.2c1.6,2.3,3,4.8,3.7,7.6c0.3,1.5,0.9,2.9,1.3,4.3
		c0.3,0.9,0,1.6-0.9,1.7c-1.4,0.2-1.6,1.1-1.6,2.2c-0.1,2.7-1.8,4.1-4.5,3.8c-0.1,0-0.2,0-0.2,0c-1.1-1-2.3-0.4-3.5-0.4
		c-2,0-3.5-1-4.9-2.3c-2-1.9-3.9-4-4.9-6.7c-0.1-0.3-0.7-0.5-1.1-0.5c-1.7-0.3-3.5-0.5-5.2-0.8c-0.5-0.1-1-0.3-1.3-0.7
		c-1-1.2-2-1.2-3.2-0.4c-3.2,1.9-6.5,3.7-9.7,5.6c-0.2,0.1-0.4,0.7-0.3,1.1c0.3,2,0.8,4,1.2,6.3c4.1,0.1,8.5,0.2,12.9,0.4
		c5.1,0.2,10.2,0.2,15.2,1.2c2,0.4,4.1,0.3,6.1,0.4c2.4,0.2,4.7,0.4,7.1,0.4c3.1,0.1,6.1,0,9.2-0.5c3-0.6,6.1-0.3,8.8,1.7
		c3.7,2.7,7.9,4.4,12.2,5.9c2.7,0.9,5.4,1.6,7.9,2.8c2.8,1.2,5.6,2.7,8.2,4.3c3.7,2.3,7.3,4.9,11,7.1c1.6,1,3.4,1.5,5.1,2.3
		c1.2,0.6,2.4,1.4,3.6,2.1c0.2,0.1,0.3,0.3,0.4,0.4c0.6,1.3-0.1,4.1-1.3,4.9c-3,2-6.1,2.6-9.5,0.9c-1.2-0.6-2.3-1.3-3.4-1.9
		c-0.5-0.3-1-0.5-1.5-0.6c1.3,2.5,2.9,4.6,5.3,6.1c1.9,1.3,3.6,2.7,5.4,4c1.9,1.4,2.3,4.4-0.3,5.9c-1.8,1-3.6,1.5-5.7,1.6
		c-1.5,0-2.5-0.9-3.6-1.7c-3.9-2.9-7.8-5.8-11.6-8.9c-2.9-2.3-5.6-4.8-8.5-7.3c-0.2-0.2-0.5-0.4-0.8-0.6c-0.1,0.1-0.2,0.2-0.3,0.2
		c1.1,1.5,2.2,3.2,3.4,4.6c3.2,3.9,6.5,7.7,9.7,11.6c0.8,0.9,1.4,1.9,2,3c1.8,3.1-0.5,5.7-3.2,5.7c-1.4,0-2.7-0.3-4.1-0.5
		c-0.3,0-0.5-0.3-0.7-0.5c-2.6-2.8-5.2-5.6-7.9-8.4c-1.9-2.1-3.8-4.2-5.8-6.1c-0.9-0.9-2-1.6-3.1-2.4c-0.1,0-0.1-0.1-0.2-0.1
		c-2.8-2.7-6.1-4.7-9.6-6.4c-1.7-0.8-3.1-2.1-4.7-3.1c-0.5-0.3-1.1-0.6-1.7-0.9c-0.1,0.1-0.1,0.2-0.2,0.3c0.1,0.2,0.2,0.4,0.4,0.6
		c1.6,2,3.2,4,4.9,5.8c2.2,2.4,4.5,4.7,6.8,7c1.8,1.8,3.5,3.6,5.3,5.4c1,1,2.1,1.8,3.1,2.8c0.5,0.5,0.8,1.1,1.1,1.7
		c0.7,1.4,0.1,2.8-1.3,3.4c-0.2,0.1-0.5,0.1-0.6,0.2c-2.2,1.7-4.2,0.7-6.2-0.6c-3.5-2.4-7-4.6-10.5-7c-1.3-0.9-2.4-2.1-3.7-3.1
		c-3-2.4-5.9-4.8-8.9-7c-1.5-1.1-3.2-2.1-4.8-3.1c-0.4-0.2-0.9-0.3-1.4-0.3c-2.3,0-4.7,0-7,0.1c-3.3,0.1-6.6,0.6-9.9,0.4
		c-2.8-0.1-5.6-0.5-8.2-1.9c-2.5-1.4-5.2-2.5-8-3.3c-1.3-0.4-3,0-4.4,0.5c-4.4,1.5-8.6,3.4-12.4,6.2c-1.4,1-3.1,1.7-4.6,2.5
		c-3.5,1.9-6.9,4.1-10.6,5.7c-2.7,1.2-5.1,2.7-7.2,4.8C0,90.9,0,90.4,0,89.9z M51.8,4.2c0-0.1,0.1-0.2,0.1-0.3
		C52.3,4,52.7,4,53.1,4.2c3.3,1.6,6.4,3.6,9.1,6.1c1.7,1.5,3.3,3.3,4.3,5.3c1.9,3.8,3.4,7.8,5.1,11.8c0.6,1.3,1.1,2.7,1.6,4.1
		c1.5-1.5,2.8-1,4.2,0.1c-0.3-1.4-0.4-2.5-0.7-3.7c-0.6-2.7-0.9-5.6-2.5-8c-1.7-2.6-3-5.3-3.8-8.3c-0.2-0.9-0.9-1-1.7-0.9
		c-0.4,0.1-0.8,0.3-1.2,0.3c-0.5,0-1-0.2-1.4-0.3c0-0.1,0-0.3,0-0.4c0.7-0.2,1.4-0.3,2.1-0.5c0-0.1,0-0.2,0-0.4
		c-0.6-0.3-1.3-0.6-1.9-0.9c-2.2-1-4.4-2.1-6.6-3.1c-0.6-0.3-1.3-0.4-1.9-0.6c-1.3-0.4-2.7-0.7-3.7-1.4c-1.3-0.9-2.5-1.2-4-0.8
		c-1.3,0.3-2.6,0.3-3.5-1c-0.2-0.3-0.7-0.6-1.1-0.6C44,1.4,42.2,1.3,40.9,2c-2,1.1-3.9,1.9-6.3,1.7c-1.9-0.1-3.3,0.9-4.4,2.5
		c-2,2.8-4.2,5.6-7.6,6.9c-4.1,1.6-7.1,4.4-9.6,7.8c-0.8,1.1-1.6,2.3-1.7,3.9c-0.1,2,0.7,3.7,1.3,5.5c0.7,2.1,1.9,3.9,3.7,5.3
		c0.5,0.4,0.8,0.9,1.2,1.3c0.7,0.9,1.4,1.7,2.4,2.4c2.3,1.7,4.8,2.4,7.5,2.5c0.4,0,0.8,0.3,1.2,0.5c0.9,0.4,1.8,1,2.7,1
		c1.6,0.1,3.3-0.2,4.9-0.4c1.1-0.1,2.2-0.4,3.2-0.7c0.4-0.1,0.9-0.7,1-1.1c0.6-2.4-1-4.3-1.4-6.5c0-0.3-0.4-0.5-0.7-0.7
		c-2.1-0.8-4.1-1.6-6.2-2.3c-1.9-0.6-3.9-1.1-4.9-3.1c-0.8-1.4-1.3-3-1.9-4.5c-0.1-0.1,0.1-0.5,0.2-0.5c0.2,0,0.6,0,0.7,0.1
		c0.3,0.5,0.5,1.1,0.8,1.6c0.7,1.2,1.3,2.5,2.1,3.7c0.3,0.5,1,0.7,1.6,1c0-0.7-0.1-1.1-0.3-1.5c-0.1-0.4-0.3-0.9-0.4-1.3
		c0-0.3,0.3-0.5,0.4-0.8c0.2,0.2,0.5,0.3,0.7,0.6c0.3,0.7,0.5,1.5,0.8,2.2c0.6,1.5,1.4,1.9,3.2,1.7c0.4-2,0-4.2,1.2-6
		c0.2,0,0.3,0,0.5,0.1c-0.2,2.2-0.5,4.4-0.7,6.3c1.6,1,3.1,1.9,4.8,2.9c1.4-0.8,3.1-1.8,4.9-2.8c-0.9-1.1-2.1-1.8-2.3-3.3
		c0.8,0.4,1.3,1,2,1.5c0.5,0.4,1.3,1,1.7,0.8c1.7-0.7,3.3-1.6,5-2.5c-1.9-3.1-4.4-5.6-6.9-8c-0.3-0.3-1-0.4-1.2-0.3
		c-2.2,1.3-4.6,1.5-7,1.7c-1.4,0.1-2.8-0.2-4.1-0.5c-0.3-0.1-0.5-0.7-0.8-1c0.4,0,0.7-0.2,1.1-0.1c3,0.6,5.9,0.5,8.8-0.3
		c0.4-0.1,0.8-0.5,1.2-0.8c-2.8-0.1-5.4-0.5-7.8-1.8c-0.9-0.5-1.6-1.2-2.4-1.8c-0.2-0.2-0.1-0.7-0.1-1c0.3,0.1,0.6,0.2,0.9,0.3
		c1.7,0.9,3.4,1.9,5.2,2.6c0.9,0.4,1.9,0.3,3.1,0.4c-0.9-0.9-1.7-1.6-1.5-3.1c0.4,0.3,0.7,0.5,0.9,0.7c1,0.9,1.8,2.1,2.9,2.8
		c4.2,2.9,7.1,7,10.1,11c0.7,1,1.7,1,2.9,1.4c-0.6-1.2-1.1-2.1-1.4-3c-0.4-1-0.8-2-1-3.1c-0.3-1,0.1-1.9,1.1-2.3
		c0.8-0.4,1.7-0.6,2.7-1c-0.5-0.8-1.2-1.7-1.6-2.7c-1.6-3.7-4.2-6.7-6.8-9.6c-1-1.1-1.8-1.3-3.1-0.8c-0.7,0.3-1.3,0.8-2,1
		c-0.3,0.1-0.7,0-1.1,0.1C44,8.5,44.1,8.2,44.4,8c0.5-0.4,1.2-0.7,1.7-1.1c0-0.1,0-0.2-0.1-0.3c-1.2-0.3-2.4-0.6-3.6-0.9
		c-0.6-0.2-1.4-0.3-1-1.3c0.5,0.2,1,0.3,1.5,0.5c1.9,0.6,3.8,1.1,5.7,1.7c0.6,0.2,1.2,0.5,1.6,1c2.1,2.6,4.4,5.1,6.2,7.8
		c1.9,2.9,3.4,6.2,5.2,9.2c1.3,2.3,1.6,4.7,1.4,7.3c0,0.5,0.1,1.1,0.3,1.6c1.1,2.4,3.3,3.9,5.2,5.5c0.3,0.2,0.7,0.3,1.2,0.6
		c-0.2-0.6-0.3-0.9-0.4-1.2c-0.5-0.9-0.9-1.9-1.5-2.8c-1.4-2.3-0.3-4.9,2.1-5.2c0.5-0.1,0.9-0.1,1.5-0.1c-0.1-0.3-0.2-0.6-0.3-0.8
		c-1.3-3.3-2.7-6.6-4-10c-0.9-2.5-2.2-4.7-3.9-6.6c-0.9-1.1-1.8-2.1-3.5-1.4c-0.5,0.2-1.1,0.1-1.7,0c-0.2,0-0.4-0.2-0.7-0.3
		c0-0.1,0-0.2,0.1-0.2c0.9-0.2,1.8-0.3,2.7-0.5c0-0.2,0.1-0.3,0.1-0.5C57.5,7.9,54.6,6,51.8,4.2z M54.2,45.3c0-0.1,0-0.1,0-0.2
		c-1.7,0.5-3.4,0.9-5.1,1.4c-0.3,0.1-0.6,0.5-0.7,0.8c-0.5,1.5-1.6,2.4-2.9,3.2c-0.9,0.5-1.4,1.3-1.1,2.2c0.3,1,0.8,1.7,2,1.9
		c1.4,0.2,2.5,1.6,2.7,2.9c0.1,0.3,0.4,0.8,0.7,0.9c1.5,0.6,3,1.3,4.6,1.8c1.8,0.5,3.6,0.8,5.5-0.1c0.5-0.3,1.4-0.2,2.1,0
		c2.3,0.7,4.3,0.4,6.1-1.3c1-0.9,2-1.3,3.4-1.1c0.6,0.1,1.3,0.1,1.7-0.1c1.1-0.8,2.3-0.6,3.4-0.8c1.1-0.2,2.2-0.8,3.1-1.5
		c0.8-0.7,1.4-1.7,2.1-2.6c0.8-0.9,0.9-2.7,0.4-3.8c-0.4-0.9-1.2-1.3-1.8-1.9c-1-1.1-2.1-1-3.3-1c-1.2,0-2.4,0.1-3.5,0
		c-3.9-0.4-7.7-1.5-11.6-1.4c-2,0.1-4-0.5-6,0.3C55.3,45.2,54.7,45.2,54.2,45.3z M145.4,87.7c-0.5-0.8-0.7-1.5-1.2-2
		c-1.6-1.3-3.3-2.6-5-3.8c-0.3-0.2-0.9-0.3-1.2-0.2c-1.6,0.7-1.9,1.8-0.8,3.2c0.9,1.2,1.8,2.5,2.7,3.7c1.5,2.1,1.7,2.1,3.9,0.8
		c0.2-0.1,0.4-0.2,0.6-0.3C144.7,88.7,145,88.2,145.4,87.7z M59.4,30.4c2.2,0,2.8-0.6,2.3-2.7c0-0.2,0-0.4-0.1-0.5
		c-0.8-1.6-1.6-3.3-2.5-4.9c-0.1-0.1-0.2-0.3-0.4-0.4c-1.1-0.1-2.2-0.1-2.9,0.8c-0.4,0.5-0.4,1.5-0.2,2.1c0.6,1.5,1.4,2.9,2.1,4.5
		C58.1,30.2,58.6,30.6,59.4,30.4z M71.9,31c-0.4,0-0.7,0-1.1,0c-2.5,0.1-3,1.7-2.1,3.9c0.6,1.6,1.5,3.1,2.2,4.6
		c0.1,0.2,0.4,0.4,0.5,0.4c1-0.3,2-0.7,3-1.2c0.2-0.1,0.3-0.9,0.2-1.2C73.7,35.4,72.8,33.2,71.9,31z M126.9,97.3
		c1.9-1.1,2.3-2,1.2-3.7c-1.4-2-3-3.9-4.5-5.8c-0.1-0.2-0.6-0.2-0.9-0.1c-1.4,0.6-1.8,1.9-0.9,3.2C123.5,93.1,125.2,95.1,126.9,97.3
		z M106.1,97c0.5-0.2,0.9-0.4,1.2-0.6c1.8-0.9,1.9-1.5,0.6-3.1c-0.1-0.1-0.2-0.2-0.3-0.3c-1.5-1.3-3-2.6-4.6-3.9
		c-0.2-0.2-0.6-0.1-0.9,0c-1.4,0.5-1.8,1.9-0.7,3.1C102.9,93.8,104.6,95.3,106.1,97z M141.7,68c-1.2,1.7-1.1,3,0.6,4.1
		c1.6,1,3.3,2,5,2.9c0.2,0.1,0.8-0.2,0.9-0.4c1-1.4,0.6-2.9-1.1-3.8C145.4,69.7,143.5,68.9,141.7,68z M74.7,40.1
		c1.6,0.5,3.1,0,3.5-1c0.8-2.1,0-5.7-1.7-7.2c-0.6-0.5-1.3-1-2-0.4c-0.6,0.5-0.8,1.3-0.4,2.2c0.5,0.9,0.7,2,1.2,2.9
		C75.9,37.9,76.1,39,74.7,40.1z M78.2,28.6c-0.2,0.1-0.3,0.2-0.5,0.3c0.5,1.8,1,3.7,1.6,5.5c0.1,0.2,0.7,0.2,1.1,0.2
		c0.2,0,0.4-0.5,0.3-0.8c-0.3-1.2-0.6-2.5-1.1-3.6C79.3,29.5,78.7,29.1,78.2,28.6z M79,27.9c-0.7-1.3-1.3-2.4-2-3.7
		C76.9,26.5,77.6,27.8,79,27.9z"/>
	<path class="st0" d="M35,42.6c-0.6,0-1.2,0-1.8-0.1c-1.9-0.5-2.8-1.6-2.7-3.5c0-0.9,0.2-1.8,0.5-2.6c0.7-1.8,2.8-2.6,4.8-2
		c0.4,0.1,0.7,0.3,1,0.4c0.9,0.3,1.1,1,0.7,1.8c-0.3,0.8-0.8,1.6-1,2.4c-0.1,0.8,0,1.6,0.2,2.4c0.4,1.1,0.3,1.3-0.8,1.3
		C35.7,42.5,35.3,42.5,35,42.6C35,42.6,35,42.6,35,42.6z M35.6,41.3c-0.5-1.7,0.1-3.1,0.7-4.6c0.1-0.3,0.1-0.9,0-1
		c-1.1-1.1-3.4-0.7-4.1,0.7c-0.6,1.2-1,2.6-0.3,3.9c0.6,1.2,2,1.2,3.2,1.1C35.2,41.4,35.3,41.3,35.6,41.3z"/>
</g>
</svg>
