<?xml version="1.0" encoding="utf-8"?>
<!-- Generator: Adobe Illustrator 19.1.0, SVG Export Plug-In . SVG Version: 6.00 Build 0)  -->
<svg version="1.1" id="Layer_1" xmlns="http://www.w3.org/2000/svg" xmlns:xlink="http://www.w3.org/1999/xlink" x="0px" y="0px"
	 viewBox="0 0 119.3 130.7" style="enable-background:new 0 0 119.3 130.7;" xml:space="preserve">
<style type="text/css">
	.st0{fill:none;stroke:#E91E63;stroke-width:0.4426;stroke-miterlimit:10;}
</style>
<g id="burn-water">
	<path class="st0" d="M118.9,11.5c-2.6,0.7-4.9,2.2-6.9,4c-2,1.8-3.7,3.8-5.2,6c-4,5.8-6.8,12.2-9,18.9c-0.2,0.7-0.7,1.1-1.3,1.3
		c-1.2,0.4-2.3,0.4-3.5,0.2c-2-0.3-3.7-1-5.1-2.5c-0.9-1-1.3-2.2-0.7-3.5c0.3-0.9,0.6-1.8,0.9-2.7c0.8-2.1,1.6-4.1,2.4-6.1
		c-0.2,0-0.3,0.1-0.4,0.2c-0.1,0.2-0.2,0.4-0.3,0.7c-2,4.7-3.7,9.4-5,14.3c-0.4,1.3-0.4,2.6,0.4,3.8c0.3,0.5,0.6,1,0.8,1.6
		c0.4,1.9,0.8,3.9,1.2,5.8c0.1,0.4,0.1,0.8,0.1,1.3c-0.3-0.2-0.5-0.4-0.7-0.5c-1.4-0.8-2.8-1.6-4.1-2.5c-1.7-1-3.4-2.1-5.1-3.2
		c-1.3-0.8-2.7-1.6-4.3-0.8c0,0-0.1,0-0.1,0c-1,0.2-2.1,0.3-3,0.5c-3.6,1-7.2,2.1-10.8,2.8c-1.3,0.2-2.7,0.4-4,0.1
		c-0.8-0.2-1.5-0.4-2.3-0.4c-1.3-0.1-2.6-0.5-3.7-1.2c-2.4-1.5-4.8-3-7.2-4.5c-0.4-0.2-0.8-0.4-1.1-0.6c0,0.1-0.1,0.1-0.1,0.2
		c0.1,0.1,0.2,0.2,0.4,0.3c2,1.2,3.9,2.5,5.9,3.7c1.2,0.7,2.5,1.5,3.8,2c0.9,0.4,2,0.4,3,0.6c1.3,0.3,2.7,0.6,4,0.4
		c2-0.3,3.9-0.7,5.8-1.2c2.1-0.5,4.1-1.2,6.2-1.8c1.4-0.4,2.8-0.5,4.3-0.8c0.3,0,0.6-0.1,0.8,0c0.8,0.3,1.6,0.6,2.3,1
		c1.7,1,3.4,2.1,5,3.1c1.5,0.9,3,1.8,4.5,2.7c0.5,0.3,0.7,0.7,0.7,1.3c0,1,0.1,2,0.2,3c0,1.3,0,2.6,0,3.9c-0.2,0-0.4,0-0.5,0
		c-1.2-0.3-2.4-0.5-3.6-0.8c-1.1-0.3-1.9-1-2.2-2.1c0.3-0.2,0.7-0.4,1-0.7c0.3-0.3,0.7-0.6,1-0.9c0.3-0.3,0.5-0.6,0.8-0.9
		c-0.1,0-0.2,0-0.2,0c-0.1,0-0.1,0.1-0.1,0.1c-0.6,0.9-1.5,1.6-2.4,2.1C80.8,60,80.3,60,79.9,60c-0.5,0-0.9-0.2-1.4-0.3
		c-0.2-0.1-0.5-0.2-0.8-0.3c1.2-0.4,2.7-2.9,2.6-4c-0.3,0.7-0.6,1.4-0.9,2.1c-0.6,1.1-1,1.6-1.6,1.7c0.2-0.7,0.4-1.4,0.6-2
		c0.2-0.5,0.1-1.1-0.3-1.6c0.4,1,0.3,1.8-0.2,2.6c-0.1,0.1-0.1,0.2-0.1,0.3c0.1,0.7-0.3,1.2-0.7,1.8c-0.2,0.3-0.5,0.6-0.7,0.9
		l0.1,0.1c0.4-0.5,0.8-0.9,1.2-1.4c1.2,0.8,0.6,1.8,0.2,2.7c0.1-0.2,0.3-0.4,0.4-0.5c0,0,0.1,0,0.1,0c0,0.5,0.2,1,0,1.4
		c-0.5,1-1.1,2.1-1.9,2.9c-0.8,0.9-1.9,1.5-2.8,2.4c-0.7,0.7-1.3,1.5-1.9,2.3c0,0,0.1,0.1,0.1,0.1c0.1-0.2,0.3-0.3,0.4-0.5
		c0.6-1,1.4-1.8,2.3-2.5c1.4-0.9,2.4-2.1,3.3-3.5c0.5-0.9,0.9-1.7,0.5-2.8c-0.1-0.1,0-0.3,0-0.5c0-0.4,0-0.8,0-1.2
		c0.1,0,0.3,0.1,0.5,0.1c0.5,0.1,1.1,0.3,1.6,0.3c0.3,0,0.5,0.1,0.6,0.4c0.4,0.9,1.1,1.4,2,1.7c0.4,0.1,0.8,0.2,1,0.3
		c0.1,1,0,2,0.2,3c0.3,1.6,0,3-1.4,4c-0.9,0.6-1,1.4-0.8,2.4c0.1-0.3,0.1-0.7,0.1-1c0-0.6,0.4-0.9,0.8-1.2c0.2-0.1,0.5,0,0.7,0
		c0.1,0,0.3,0.1,0.4,0.1c1,0.2,2.1,0.5,3.1,0.8c0.2,0,0.4,0.3,0.4,0.5c0,2.1,0,4.2,0,6.4c-0.6-0.4-1.4-0.5-1.8-1.2
		c-0.1-0.1-0.1-0.2-0.2-0.3c0,0.1-0.1,0.2-0.2,0.3c0.1,0,0.1,0.1,0.2,0.2c-0.4,0.1-0.7,0.2-1,0.2c-0.2,0-0.4-0.2-0.5-0.3
		c-0.1-0.1,0-0.3,0.1-0.4c0,0,0.1,0,0.1,0c0-0.1-0.1-0.2-0.1-0.2c-0.1,0-0.3,0.1-0.4,0.2c0,0-0.1,0.1-0.1,0.1
		c-0.7-0.1-1.4-0.2-2.1-0.3c-0.1-0.8-0.2-1.6-0.4-2.4c-0.1,0.2-0.1,0.4-0.1,0.5c0.1,0.4,0.1,0.8,0.2,1.1c0.2,0.7,0,1.1-0.6,1.2
		c-0.6,0.1-1.1,0.1-1.7,0.1c-0.6,0-1.2-0.1-1.9,0.1c-0.6,0.3-1.2,0.6-1.8,0.7c-0.7,0.1-1.5,0.3-2.2-0.1c-1.5-0.9-3.1-1.7-4.7-2.4
		c-3.8-1.8-7.5-3.9-11.9-4.3c-1.1-0.1-2.3-0.1-3.4,0c-1.3,0.1-2.6,0.3-3.9,0.4c-1,0.1-2,0.2-2.9,0.6c-0.8,0.3-1.7,0.8-2.5,1
		c-1.7,0.5-3.4,0.8-5,1.2c-0.6,0.1-1.1,0.3-1.7,0.2c-2.7-0.8-5-2.3-7.4-3.7c-3.2-1.7-6.3-3.6-9.5-5.3c-4.3-2.3-8.8-4.3-13.4-6.1
		c-2-0.8-4-1.6-6.1-2.3c-0.1-0.1-0.3,0-0.5,0c0,0.1,0,0.1,0,0.2c0.3,0.1,0.6,0.2,0.9,0.4c8.9,3.2,17.6,7.1,25.8,11.9
		c2.3,1.3,4.5,2.6,6.9,3.9c1,0.5,2.1,0.9,3.2,1.4c0,0-0.1,0.1-0.1,0.1c-3.2,0.9-6,2.7-8.9,4.3c-2.9,1.7-5.8,3.5-8.6,5.1
		C16,85.7,12.6,87.6,9,89c-0.1,0-0.1,0.2-0.2,0.3c3.1-1.1,5.9-2.6,8.7-4.2c4.4-2.5,8.7-5.1,13.1-7.8c3.2-1.9,6.7-3.1,10.3-3.9
		c1.7-0.3,3.5-0.7,5-1.5c1-0.5,2-0.7,3.1-0.8c1.4-0.1,2.7-0.2,4.1-0.3c2.1-0.2,4.2-0.2,6.3,0.5c5.3,1.7,10.2,4.2,15,6.9
		c0.5,0.3,1,0.6,1.6,0.9c0,0,0.1-0.1,0.1-0.1c-0.3-0.6-1.1-0.7-1.5-1.1c0.2,0,0.4-0.1,0.6-0.1c0.7-0.2,1.4-0.4,2.1-0.6
		c0.4-0.1,0.8-0.3,1.2-0.3c0.7,0,1.4,0.2,2,0c1-0.3,1.9,0,2.9,0.2c1.2,0.3,2.4,0.6,3.7,0.9c0.4,0.1,0.8,0.2,0.8,0.6
		c0,0.2-0.2,0.5-0.3,0.7c-0.3,0.4-0.6,0.4-0.9-0.1c-0.3-0.3-0.5-0.7-0.8-0.9c-0.3-0.3-0.7-0.4-1.1-0.1c-0.4,0.3-0.5,0.7-0.3,1.1
		c0.2,0.3,0.5,0.6,0.7,0.9c0.2,0.2,0.6,0.4,0.5,0.9c-0.4,0-1-0.3-1.1,0.3c-0.1,0.3,0.1,0.6,0.2,0.9c0.1,0,0.2,0,0.2-0.1
		c0-0.1,0-0.2-0.1-0.4c0-0.2,0-0.3-0.1-0.5c0.1,0,0.3,0,0.4,0c0.2,0,0.5,0,0.5-0.1c0.1-0.2,0.1-0.5,0-0.7c0-0.2-0.2-0.3-0.4-0.4
		c-0.3-0.3-0.6-0.5-0.8-0.7c-0.2-0.3-0.2-0.6,0.1-0.8c0.3-0.3,0.6-0.1,0.8,0.1c0.3,0.3,0.5,0.6,0.8,0.9c0.4,0.5,0.9,0.6,1.2,0.3
		c0.3-0.3,0.6-0.7,0.8-1c-0.1-0.1-0.3-0.2-0.3-0.3c0-0.3,0-0.6,0-0.9c0-2.8-0.1-5.6-0.1-8.5c0-1.5,0-3,0-4.6c0-1.5-0.2-2.9-0.2-4.4
		c0.1-1.7-0.1-3.4-0.3-5c-0.1-1.4-0.3-2.8-0.5-4.2c-0.2-1.2-0.5-2.3-0.7-3.4c2,1.5,4.4,1.9,6.8,1.6c-0.3,0.6-0.7,1.1-1,1.7
		c-0.7,1.5-1.1,3.2-1.2,4.8c-0.1,1.8-0.2,3.6-0.3,5.4c0,0.6,0,1.1,0,1.7c0,0.7-0.1,1.4-0.2,2.1c-0.1,1.9-0.2,3.7-0.2,5.6
		c-0.1,2.7-0.1,5.3-0.2,8c0,0.4,0.1,0.7,0.5,1c0.4,0.3,0.4,0.3,0.6-0.1c-0.8-0.3-0.8-0.3-0.8-1.2c0-0.9,0.1-1.8,0.1-2.7
		c0-0.5,0.1-0.9,0.4-1.2c0,0,0-0.1,0-0.2c-0.1,0.1-0.2,0.2-0.4,0.3c0.1-0.7,0.1-1.3,0.2-1.9c0.1,0,0.2,0,0.3,0.1
		c2.3,0.9,4.7,1.7,7,2.6c2,0.7,4,1.5,6.1,2.2c1.5,0.5,3.1,0.8,4.2,2.1c0,0,0.1,0,0.2,0c-0.4-0.9-1.2-1.2-1.9-1.7
		c0.3-0.2,0.7-0.3,0.9-0.6c0.4-0.6,0.8-1.3,1.1-2c0.2-0.4,0.2-0.8,0.1-1.2c-0.1-1-0.8-1.6-1.6-2.1c-1.2-0.8-2.4-1.5-3.6-2.1
		c-1.7-0.9-3.5-1.6-5.1-2.5c-2.1-1.2-4.2-2.3-6.6-3.1c-0.3-0.1-0.6-0.2-1-0.4c0.7-0.3,1.5-0.4,1.9-1.1c-0.6,0.2-1.1,0.5-1.8,0.7
		c0.1-1.7,0.2-3.2,0.3-4.9c0.7,0.5,1.3,0.8,1.8,1.3c0.6,0.5,1.1,1,0.6,1.8c0,0,0,0.2,0.1,0.3c0.1,0,0.2-0.1,0.3-0.1
		c0.4-0.5,0.3-1.2-0.2-1.7c-0.7-0.6-1.4-1.1-2.1-1.7c-0.2-0.1-0.3-0.3-0.3-0.5c0-0.6,0.1-1.2,0.1-1.8c0.1-1.4,0.3-2.8,0.9-4.2
		c0.5-1.2,1-2.4,2.3-3c1.1-0.5,1.7-1.4,2.1-2.5c0.7-2.2,1.3-4.5,2-6.7c2.6-7.3,5.7-14.3,10.8-20.4c1.5-1.8,3.1-3.3,5-4.6
		c1.4-1,2.9-1.7,4.5-2.2c0.1,0,0.2-0.2,0.3-0.3C119,11.6,118.9,11.6,118.9,11.5z M83.8,76.9c-0.8-0.2-1.6-0.4-2.4-0.5
		c0-0.1,0-0.1,0-0.2c0.8,0.1,1.6,0.1,2.4,0.2V76.9z M86.9,77.7c-0.5-0.1-1-0.2-1.6-0.4c0.7-0.4,1.1,0.2,1.6,0.2
		C86.9,77.6,86.9,77.6,86.9,77.7z M87.6,63.9c0,1.6,0,3.1,0,4.7c0,0.7,0,1.4,0,2.2c-1.4-0.3-2.8-0.7-4.4-1c1.5-1.3,1.4-2.8,1.2-4.4
		c-0.1-0.9-0.2-1.8,0-2.5c1,0.2,1.9,0.3,2.9,0.5C87.4,63.4,87.6,63.7,87.6,63.9z M90.7,64.6c0-0.3,0.1-0.6,0.1-0.9
		c2,0.8,4.1,1.4,6,2.5c2.3,1.4,4.8,2.4,7.2,3.7c1.1,0.6,2.2,1.2,3.2,2c1.2,1,1.5,1.7,0.8,3.2c-0.7,1.6-1.3,2-2.6,1.9
		c-0.5,0-1.1-0.1-1.5-0.3c-2-0.7-3.9-1.4-5.9-2.1c-2.3-0.8-4.6-1.7-7-2.5c-0.4-0.1-0.5-0.3-0.5-0.6C90.6,69.2,90.6,66.9,90.7,64.6z
		 M96.6,44.1c-0.2,0.5-0.3,1.1-0.4,1.6c-0.4,1.7-1.6,2.6-3.2,2.9c-2.3,0.4-4.4,0-6.3-1.4c-1.4-1-2.1-2.4-1.7-4.2
		c0.4-1.8,1-3.5,1.4-5.3c1.2,4,7.4,5.7,10.9,4C97,42.6,96.8,43.3,96.6,44.1z"/>
	<path class="st0" d="M99.1,87.7c0.6,0.6,1.2,1.2,1.7,1.8c1,1.3,0.8,3.5-0.2,4.8c-0.1,0.1-0.3,0.3-0.4,0.4c-1.1,0.5-2.1,1.5-3.4,1.7
		c-0.9,0.1-1.8,0.2-2.6,0.3c0-0.1,0-0.1-0.1-0.2c0.1-0.1,0.3-0.2,0.4-0.2c0.8-0.1,1.6-0.2,2.4-0.3c0.6-0.2,1.2-0.5,1.8-0.7
		c0,0,0-0.1-0.1-0.1c-1-0.2-2-0.3-3-0.5c-0.9-0.2-0.9-0.2-0.7-1.1c0.3-1.5,0.4-2.9,0.3-4.4c0-0.4,0.1-0.5,0.5-0.6
		c1.1-0.4,2.3-0.3,3.5,0c-1-0.8-2-1.5-3.1-1.8c-1.9-0.5-3.8-1-5.8-1.3c-1.2-0.2-2.4-0.1-3.7,0c-0.8,0-1.5-0.2-2.1-0.7
		c-2.1-1.4-4.3-2.7-6.4-4.1c-0.4-0.3-0.9-0.5-1.3-0.8c-0.1-0.1-0.2-0.1-0.3-0.2c0,0,0-0.1,0.1-0.1c0.2,0.1,0.4,0.1,0.6,0.2
		c1.9,1.2,3.9,2.4,5.8,3.6c0.7,0.5,1.4,1,2.2,1.4c0.4,0.2,0.9,0.3,1.3,0.3c1.2,0,2.3,0,3.5,0c0.3,0,0.5,0,0.8,0.1
		c0.6,0.2,1.2,0.2,1.8-0.2c0.2-0.2,0.5-0.2,0.8-0.3c0.6-0.2,1.2-0.5,1.6-1.1c0.7-0.9,1.6-1.7,2.4-2.6c-0.8-0.3-1.7-0.1-2.5-0.7
		c1,0.2,1.9,0.3,2.9,0.5c0.1,0,0.3,0,0.5-0.1c1-0.6,2.1-0.9,3.2-0.8c1.2,0.1,2.3,0.4,3,1.6c1.3-0.5,2.6-0.4,3.8,0.3
		c0.2-0.8,0.2-1.5,0-2.3c0.1,0.1,0.2,0.2,0.2,0.2c0.1,0.6,0.2,1.3,0.1,1.9c-0.1,0.6,0.2,0.7,0.6,0.9c0.7,0.3,1.4,0.6,2,1.2
		c1,1.1,1.1,2.1,0,3.2c-1.4,1.4-2.8,2.8-4.1,4.3c-1.3,1.4-2.6,2.9-3.2,4.8c-0.3,1-0.4,2-0.5,3.1c-0.1,1.3-0.1,2.6-0.1,3.9
		c0,0.4-0.3,0.8-0.5,1.2c-0.1,0.1-0.6,0.1-0.8-0.1c-0.4-0.3-0.6-0.1-0.7,0.3c-0.1,0.5-0.2,1.1-0.2,1.7c0,1.2,0,2.4,0,3.6
		c0,0.5-0.2,1-0.3,1.5c-0.2,0.6-0.7,0.7-1.2,0.3c-0.1-0.1-0.2-0.2-0.5-0.3c-0.1,0.4-0.1,0.8-0.1,1.1c0,0.3,0,0.6,0,0.8
		c0,0.6-0.4,1.1-0.9,1.1c-0.5,0-1-0.4-1-1.1c0-0.6,0.1-1.3,0.1-1.9c0-0.5-0.1-1-0.3-1.5c-0.1-0.3-0.4-0.5-0.8-0.3
		c-0.8,0.3-1,0.3-1.4-0.6c-0.7-1.5-1.8-2.7-3.4-3.4c-1.7-0.8-3.4-0.3-4.4,1.2c-0.1,0.1-0.2,0.3-0.3,0.4c-0.5,0.6-0.8,0.7-1.5,0.4
		c-0.7-0.3-1.5-0.4-2.3-0.1c-0.4,0.1-0.7,0.4-1,0.7c-1.5,1.1-2.8,2.3-3.6,4c-0.3,0.6-0.7,1.3-1,2c-0.2,0.4-0.4,0.7-0.8,1
		c0.8-1.9,1.6-3.8,3.1-5.5c-0.4,0-0.7,0.1-1.1,0.1c-0.6,0-1.2-0.1-1.7-0.2c-0.2,0-0.4-0.1-0.6,0c-1.4,0.9-2.9,0.8-4.4,0.4
		c-1.6-0.5-2.9-1.5-4.4-2.3c-2.3-1.3-4.5-2.6-6.8-3.8c0,0,0,0,0,0c0.7,0.9,1.3,1.9,2,2.8c0.3,0.4,0.4,0.8,0.7,1.2
		c0.1,0.2,0.5,0.4,0.7,0.3c1.4-0.2,2.2,0.4,2.5,1.8c0.2,1.2,0.3,2.4,0.4,3.6c0.1,1.9,0.2,3.8,0.3,5.6c0.1,0.8,0.3,1.5,0.5,2.3
		c0.2,0.7,0.5,0.8,1.2,0.6c0.5-0.1,0.8,0.2,0.9,0.6c0.3,0.8,0.5,1.6,0.7,2.4c0.1,0.4,0.3,0.8,0.5,1.3c0.7-0.7,0.8-1.4,0.9-2.1
		c0.3-1.9,0.4-3.9,0.7-5.8c0.1-0.7,0.3-1.4,0.4-2.1c0.1,0,0.1,0,0.2,0c0,0.2,0.1,0.3,0,0.5c-0.2,1.3-0.3,2.7-0.5,4
		c-0.2,1.5-0.4,3-0.6,4.5c0,0.3-0.1,0.6-0.3,0.8c-0.2,0.2-0.5,0.5-0.6,0.5c-0.2,0-0.5-0.3-0.6-0.6c-0.2-0.7-0.4-1.4-0.6-2.2
		c-0.1-0.3-0.1-0.5-0.2-0.7c-0.3-0.7-0.4-0.7-1.1-0.6c-0.3,0-0.8-0.2-0.9-0.4c-0.3-0.7-0.6-1.5-0.7-2.2c-0.2-2.1-0.3-4.3-0.5-6.4
		c-0.1-1.1-0.2-2.3-0.4-3.4c-0.1-0.4-0.3-0.8-0.5-1.1c-0.4-0.5-0.9-0.7-1.5-0.5c-0.6,0.2-1-0.1-1.3-0.8c-0.4-0.8-0.8-1.5-1.3-2.2
		c-0.8-1.2-1.9-2.2-3.2-2.8c-2.6-1.3-5.2-2.5-7.8-3.7c-1.4-0.6-2.9-0.9-4.5-1c-0.5,0-1.1-0.2-1.6-0.3c-0.5-0.1-1.1-0.2-1.6-0.2
		c-0.1,0-0.3,0.2-0.4,0.3c-0.2,0.2-0.5,0.5-0.7,0.7c-0.1,0.1-0.2,0-0.3,0c0.6-0.8,1.3-1.6,1.9-2.4c1-1.5,1.2-3.2,1-4.9
		c0-0.3,0-0.6,0-0.8c0-0.1,0.1-0.2,0.2-0.3c0.4,2.6,0.3,5-1.5,7.1c0.9,0.6,1.9,0,2.5-0.8c0.6-0.9,0.9-1.9,1-2.9
		c0.1-0.7,0.1-1.4,0.1-2.2c-0.1-1.3-0.3-2.7-0.5-4c0-0.3-0.1-0.7-0.2-1c0,0,0.1,0,0.1,0c0.1,0.5,0.2,0.9,0.2,1.4
		c0.2,1.4,0.4,2.7,0.5,4.1c0,1-0.2,2.1-0.4,3.1c-0.2,1.1-0.7,2-1.9,2.7c0.6,0.1,1.1,0.2,1.5,0.2c2.6,0.1,5,1,7.3,2.2
		c3.8,2,7.7,3.9,11.5,5.9c1.8,0.9,3.4,2.1,5.1,3.1c1.2,0.7,2.5,1.2,3.9,1.2c0.8,0,1.7-0.2,2.5-0.8c-3.3-1.6-6.5-3.1-9.7-4.6
		c0,0,0-0.1,0-0.1c0.4,0.2,0.8,0.3,1.2,0.5c2.8,1.3,5.5,2.6,8.3,4c1.3,0.6,2.6,0.8,3.9,0.2c0.5-0.2,1.1-0.6,1.5-1
		c2.2-2.3,5.2-3.2,8.1-4.1c1-0.3,2.1-0.6,3.1-1c1-0.5,1.9-1.1,2.8-1.7c0.5-0.3,0.9-0.7,1.4-1c1.5-0.7,2.7-1.7,3.6-3.1
		c0.1-0.2,0.3-0.3,0.4-0.4c0.6-0.5,1.2-1,1.8-1.6c1.2-1.1,2.4-2.2,3.6-3.4c1-1,2.1-2.1,3.1-3.1c0.6-0.6,1.2-1.3,1.8-1.9
		c1.1-1.2,0.5-2.2-0.5-2.9c-1.2-0.9-2.6-1-4.1-0.7c-1.7,0.4-3,1.4-4.3,2.4C101.2,85.9,100.1,86.9,99.1,87.7z M83.3,106.2
		c0,0.1,0.1,0.1,0.1,0.2c0.4,0,0.8,0,1.1,0c0.4,0.1,0.7,0.3,1.1,0.3c0.2,0,0.5,0,0.6-0.1c0.2-0.2,0.4-0.4,0.6-0.7
		c0.9-1.6,3.1-2,4.7-1.3c1.7,0.7,2.8,2,3.6,3.6c0.3,0.7,0.4,0.7,1.1,0.4c0.5-0.2,0.9,0,1.1,0.4c0.3,0.6,0.5,1.2,0.3,1.9
		c-0.1,0.5-0.1,1.1-0.1,1.7c0,0.4,0.4,0.8,0.7,0.8c0.4-0.1,0.6-0.4,0.6-0.8c0-0.5,0-1,0-1.5c0-0.2,0.2-0.5,0.4-0.6
		c0.2-0.1,0.5,0.1,0.6,0.2c0.4,0.3,0.6,0.3,0.8-0.2c0.2-0.4,0.3-0.9,0.3-1.3c0-1.2,0-2.4,0-3.7c0-0.6,0.1-1.1,0.2-1.7
		c0.2-0.7,0.5-0.8,1.1-0.5c0.3,0.2,0.6,0.1,0.7-0.3c0.1-0.2,0.1-0.4,0.1-0.7c0.1-1.6,0.1-3.3,0.2-4.9c0.1-0.9,0.4-1.9,0.7-2.8
		c0.2-0.6,0.6-1.2,1-1.7c-0.1-0.1-0.1-0.1-0.2-0.2c-0.5,0.6-1,1.2-1.6,1.7c-0.6,0.6-1.2,1.1-1.9,1.7c-0.3,0.3-0.6,0.5-0.8,0.8
		c-0.8,1.1-1.8,2-3,2.6c-0.6,0.3-1.2,0.6-1.7,1.1c-1,0.9-2,1.6-3.3,2c-2.1,0.7-4.2,1.4-6.3,2.1C85.2,105.3,84.2,105.8,83.3,106.2z
		 M98.3,95c1-0.1,1.4-0.2,1.9-0.7c1-1,1.1-2.2,0.8-3.5c-0.2-0.9-0.6-1.7-1.5-2c-1.2-0.4-2.4-0.6-3.7-0.1c-0.3,0.1-0.5,0.3-0.5,0.6
		c0.1,1.5,0.1,3-0.3,4.4c-0.1,0.5,0,0.7,0.5,0.8C96.5,94.6,97.4,94.8,98.3,95z M92.5,85.4c1.1,0.3,2,0.5,2.9,0.7
		c0.4,0.1,0.7,0.2,1-0.2c0.3-0.3,0.6-0.5,1-0.7c0.9-0.5,1.8-1,2.7-1.4c1.2-0.7,2.4-1.3,3.6-2c0.2-0.1,0.4-0.2,0.8-0.3
		c-0.4-0.4-0.7-0.8-1.1-1c-1-0.5-2-0.6-3.1-0.3c-1.8,0.5-3.3,1.5-4.4,3c-0.7,0.9-1.4,1.6-2.5,1.8C93,85.1,92.8,85.2,92.5,85.4z
		 M108.7,82.3c-1-0.7-1.9-1.1-3.1-0.9c-1.6,0.3-2.9,1-4.3,1.8c-0.9,0.5-1.9,1-2.8,1.6c-0.8,0.5-1.5,1-2.3,1.5
		c0.9,0.5,1.6,0.9,2.4,1.3c0.1,0,0.2,0,0.3,0c0.3-0.2,0.6-0.4,0.9-0.6c1.1-0.9,2.2-1.9,3.4-2.8C104.8,82.9,106.6,82.2,108.7,82.3z"
		/>
	<path class="st0" d="M76.5,94.4c-0.3,0.5-0.6,0.9-0.9,1.4c0,0-0.1-0.1-0.1-0.1c0.2-0.3,0.4-0.6,0.6-0.9c0-0.1,0-0.1-0.1-0.2
		c-1.5,0.3-3,0.9-4.5,0.2c0.3,0.1,0.7,0.1,1,0.2c0.9,0.2,1.7,0,2.5-0.3c0.3-0.1,0.6-0.1,0.9-0.1c0.1,0,0.2-0.1,0.3-0.2
		c0,0,0-0.2-0.1-0.2c-1-0.6-1.9-1-3.2-0.8c-0.8,0.1-1.5,0.4-2.3,0.6c-0.9,0.3-1.8,0-2.7-0.2c-0.3-0.1-0.6-0.2-0.9-0.4
		c0.3,0.1,0.7,0.1,1,0.2c1.2,0.4,2.3,0.5,3.4-0.2c0.4-0.2,0.9-0.2,1.5-0.3c-0.3-0.1-0.5-0.2-0.7-0.3c-0.1,0-0.1-0.1-0.1-0.2
		c0.1,0,0.2-0.1,0.2-0.1c2.3,0.5,4.7,0.9,7,1.4c2,0.4,3.8,1.4,5.5,2.3c0.7,0.4,1.5,0.7,2.4,0.7c0.1,0,0.2,0.1,0.3,0.1
		c0,0.1,0,0.1,0,0.2c-0.2,0-0.5,0-0.7,0c-0.7-0.1-1.2,0.1-1.5,0.7c-0.3,0.6-0.4,1.2-0.6,1.9c-0.1,0.3-0.2,0.7-0.4,1
		c-0.3,0.5-0.8,0.5-1.1,0c-0.1-0.1-0.2-0.2-0.3-0.3c-0.1,0.1-0.3,0.3-0.4,0.4c-0.2,0.5-0.3,1-0.4,1.5c0,0.2-0.1,0.4-0.2,0.5
		c-0.2,0.3-0.5,0.7-0.7,0.6c-0.3,0-0.6-0.4-0.7-0.7c-0.2-0.6-0.3-1.3-0.4-1.9c-0.2-1-0.2-2-0.4-2.9c-0.1-0.6-0.3-0.6-0.7-0.2
		c-0.4,0.4-1,0.3-1.2-0.3c-0.2-0.5-0.2-1.1-0.3-1.6C77.2,95.2,77,94.7,76.5,94.4z M85.7,97.1c-3-1.9-6.3-3.1-9.9-3.6
		c0.2,0.1,0.3,0.2,0.5,0.3c0.7,0.5,1.3,1.1,1.4,2c0.1,0.4,0.1,0.8,0.2,1.2c0.1,0.6,0.5,0.7,0.9,0.3c0.4-0.3,0.8-0.3,1,0.2
		c0.2,0.4,0.3,0.8,0.3,1.3c0.2,1.1,0.3,2.3,0.5,3.4c0.1,0.3,0.4,0.7,0.6,1c0.2-0.3,0.4-0.6,0.6-0.9c0.2-0.6,0.3-1.2,0.5-1.7
		c0.2-0.5,0.7-0.5,1.1-0.1c0.1,0.2,0.2,0.3,0.4,0.5c0.1,0,0.1,0,0.2,0c0.2-0.4,0.4-0.8,0.5-1.2C84.7,98.7,84.8,97.7,85.7,97.1z"/>
	<path class="st0" d="M39,43.9c-0.2,0-0.3-0.1-0.5-0.1c-3.7-2.1-7.4-4.1-10.9-6.4c-5-3.2-9.8-6.5-14.6-9.9C10.9,26,9,24.3,7,22.7
		c-0.6-0.5-1.2-0.9-1.7-1.4C5.1,21.1,5,20.9,5,20.7C15.5,29.6,27,37.1,39.1,43.7C39.1,43.7,39,43.8,39,43.9z M90.7,26.7
		c0.2-0.5,0.4-1,0.7-1.4c1.5-2.7,2.9-5.5,4.5-8.1c1.8-3,3.9-5.7,6.4-8.2c1.1-1.1,2.3-2.2,3.5-3.2c1.9-1.6,4-2.9,6.3-3.9
		c1.2-0.5,2.4-0.9,3.6-1.4c0.1,0,0.2-0.1,0.3-0.2c-0.1,0-0.2-0.1-0.4-0.1c0,0-0.1,0-0.1,0.1c-4.4,1.3-8.2,3.6-11.5,6.7
		c-2.4,2.2-4.5,4.6-6.4,7.2c-2.8,3.9-5.1,8.2-7.2,12.7C90.4,26.8,90.6,26.8,90.7,26.7z M23,115c0.2-0.2,0.4-0.4,0.6-0.6
		c2.9-2.8,5.9-5.6,8.8-8.4c2.8-2.7,5.6-5.5,8.8-7.9c-0.2,0-0.3,0-0.4,0c-2.2,1.6-4.3,3.4-6.2,5.3c-1.3,1.3-2.7,2.6-4,3.9
		c-2.5,2.3-4.9,4.7-7.4,7c-0.1,0.1-0.2,0.3-0.3,0.5C22.9,114.9,22.9,114.9,23,115z M21.8,115.9c-0.2,0.1-0.4,0.2-0.6,0.4
		c-1.6,1.6-3.2,3.3-4.8,4.9c-1.4,1.4-2.9,2.7-4.3,4.1c0.2,0.4,0.4,0.2,0.6,0c2.2-2.2,4.5-4.4,6.7-6.6c0.9-0.9,1.8-1.6,2.7-2.5
		C22,116.1,21.9,116,21.8,115.9z M71.4,127.8c0-0.1-0.4-0.1-0.4-0.1c-0.3,0.4-0.6,0.9-0.7,1.4c-0.1,0.4-0.2,1,0.3,1.2
		c0.2,0.1,0.7,0.2,0.9,0.1c0.3-0.2,0.4-0.5,0.6-0.8C71.9,128.9,71.7,128.3,71.4,127.8z M71.6,129.6c0,0.3-0.1,0.5-0.5,0.5
		c-0.4,0-0.5-0.2-0.6-0.5c-0.1-0.6,0.3-1.1,0.6-1.5c0.1,0,0.1,0,0.2,0C71.4,128.6,71.6,129.1,71.6,129.6z M97.3,117.1
		c0.1,0.5,0.4,0.7,0.9,0.7c0.5,0,0.8-0.4,0.8-0.8c0-0.2-0.1-0.5-0.1-0.7c-0.2-0.4-0.4-0.9-0.7-1.3C97.5,115.3,97.1,116.4,97.3,117.1
		z M98.5,116.6c0.1,0.2-0.1,0.5-0.2,0.8c0,0.1-0.4,0.1-0.4,0c-0.2-0.2-0.4-0.5-0.4-0.8c0-0.4,0.2-0.7,0.3-1.1c0,0,0.1,0,0.1,0
		C98.2,115.9,98.5,116.2,98.5,116.6z M91.2,81c0,0.3,0.1,0.7,0.5,0.7c0.3,0,0.5-0.1,0.8-0.2c0.6-0.3,0.8-0.3,1.2,0.3
		c-0.4,0.4-1.3,0.4-1.5,1.2c0.2-0.1,0.3-0.1,0.4-0.2c0.2-0.2,0.5-0.4,0.7-0.5c0.4-0.1,0.7-0.3,0.6-0.8c-0.1-0.5-0.5-0.6-0.9-0.6
		c-0.3,0-0.6,0.2-1,0.3c-0.1,0-0.4,0.1-0.4,0c-0.1-0.1-0.1-0.3-0.1-0.5c0-0.1,0-0.2,0.1-0.3C91.2,80.4,91.2,80.7,91.2,81z
		 M78.5,69.8c-0.9,0.2-1.8,0.3-2.7,0.6c-0.4,0.1-0.9,0.4-1.2,0.8c-0.8,0.7-1.5,1.6-2.2,2.3c-0.3,0.4-0.6,0.7-0.9,1.1
		c0.5-0.4,0.9-0.8,1.3-1.3c0.5-0.6,1.1-1.1,1.6-1.7c0.7-1,1.7-1.2,2.8-1.4c0.5-0.1,0.9-0.2,1.4-0.4C78.5,69.8,78.5,69.8,78.5,69.8z
		 M65.9,69.3c0.4,0.1,0.7,0.1,1.1,0.2c1,0.1,1.9-0.1,2.8-0.6c0.9-0.4,1.8-0.8,2.7-1.1c0,0,0-0.1-0.1-0.1c-0.7,0.3-1.4,0.6-2.1,0.8
		c-1,0.4-1.9,1-3,0.9c-0.5,0-1-0.1-1.5-0.2C66,69.2,65.9,69.3,65.9,69.3z M89.1,80.4c0.1,0.2,0.1,0.5,0.3,0.6
		c0.2,0.3,0.9,0.1,1.3-0.4c0.2-0.2,0.5-0.3,0.1-0.6c-0.2,0.2-0.3,0.4-0.5,0.6c-0.1-0.2-0.2-0.3-0.3-0.4c0,0-0.1,0.1-0.1,0.1
		c0,0.2-0.1,0.3-0.1,0.7c-0.2-0.3-0.4-0.4-0.5-0.6C89.2,80.4,89.1,80.4,89.1,80.4z M87.6,92.5c0.1-0.8,0.3-1.6,0.4-2.4
		c-0.7,1.1-0.9,3.7-0.3,4.9C87.7,94.1,87.6,93.3,87.6,92.5z M92.8,79.3c0-0.2,0-0.5-0.1-0.6c-0.1-0.2-0.5-0.4-0.6-0.3
		c-0.3,0.2-0.6,0.4-0.9,0.7c0.1,0.1,0.1,0.1,0.2,0.2c0.2-0.1,0.3-0.3,0.5-0.4c0.2-0.3,0.4-0.2,0.6,0.1c0.1,0.1,0.1,0.3,0.1,0.4
		C92.7,79.3,92.7,79.3,92.8,79.3z M93.9,96.4c-0.8,0.1-1.5,0.2-2.4,0.4C92.3,97.1,93.7,96.8,93.9,96.4z M75.3,65.6
		c1-0.8,1.7-1.9,2.2-3C76.8,63.6,76.1,64.6,75.3,65.6z M84.3,58.5c-0.8,0.9-1.7,1.5-2.8,1.8C82.3,60.4,84,59.4,84.3,58.5z
		 M73.7,114.6c0.5,0,1,0.1,1.4,0.1C74.5,114.2,74.2,114.2,73.7,114.6z M97.7,79.4c0.3-0.8,0.6-1.6,0.9-2.5c0,0-0.1,0-0.1,0
		c-0.3,0.8-0.6,1.6-0.9,2.5C97.6,79.4,97.6,79.4,97.7,79.4z M92.6,79.7c0.3,0.6,1,0.2,1.3,0.6C93.9,80,93.9,80,92.6,79.7z
		 M40.3,44.7c0-0.5-0.6-0.9-1.2-0.7C39.5,44.3,39.9,44.5,40.3,44.7z M21.9,115.7c0.4-0.1,0.8-0.2,0.8-0.9
		C22.4,115.2,22.1,115.5,21.9,115.7z M99.3,69.3c-0.8,1.3-1.4,2.6-1.6,4C98.2,72,98.7,70.6,99.3,69.3z M91,68.1
		c0.2-0.6,0.7-1.2,1-1.8c-1.3,1-1.3,2.5-1.2,3.9C90.9,69.5,90.8,68.7,91,68.1z M95.8,89.7c0.5,1.5,0,2.9-0.4,4.2
		C95.9,92.6,96.3,91.2,95.8,89.7z"/>
</g>
</svg>
