<?xml version="1.0" encoding="utf-8"?>
<!-- Generator: Adobe Illustrator 19.2.1, SVG Export Plug-In . SVG Version: 6.00 Build 0)  -->
<svg version="1.1" id="Layer_1" xmlns="http://www.w3.org/2000/svg" xmlns:xlink="http://www.w3.org/1999/xlink" x="0px" y="0px"
	 viewBox="0 0 200 230" style="enable-background:new 0 0 200 230;" xml:space="preserve">
<style type="text/css">
	.st0{fill:#E91E63;}
</style>
<g id="burn-woman">
	<path class="st0" d="M42.2,230c0.6-4.1,1.1-8.3,1.8-12.4c0.8-4.8,1.8-9.6,2.4-14.4c0.4-3.8,0.5-7.6,0.3-11.4
		c-0.5-7.6-1-15.1-0.4-22.7c0.2-2.2,0.5-4.4,0.6-6.7c0-0.6-0.3-1.3-0.7-1.9c-2.7-4-5.4-8.1-8.1-12.1c-1.5-2.2-3-4.3-4.4-6.5
		c-1.6-2.4-3.3-4.7-4.8-7.1c-1.1-1.9-2.4-3.6-4.2-4.9c-2.2-1.6-3.8-3.7-4.8-6.1c-1.1-2.6-1.9-5.2-2.6-7.9c-0.3-1.5-0.1-3.2,0.1-4.7
		c0.2-2,0.4-4.1,0.6-6.1c0.5-3.4,0.9-6.9,1.5-10.3c0.4-1.9,0.9-3.9,1.8-5.6c1.7-3.2,4.1-5.9,6.9-8.3c0.3-0.2,0.8-0.2,1.3-0.2
		c-0.1,0.4-0.1,1-0.3,1.3c-1.9,2.2-3.8,4.2-5.4,6.7c-1.2,1.8-1.9,3.7-2.3,5.7c-0.3,1.8-0.7,3.5-0.9,5.3c-0.3,2.1-0.5,4.3-0.7,6.4
		c-0.2,2.7-0.7,5.5-0.5,8.2c0.3,5.6,2.4,10.4,6.8,14c2.2,1.8,3.9,3.9,5.3,6.5c2.4,4.5,5.8,8.4,8.6,12.6c3.5,5.1,7.1,10.2,10.1,15.6
		c2.3,4.1,5.2,7.6,7.7,11.5c2.8,4.4,6.7,7.8,10.1,11.6c1.2,1.3,2.3,2.6,3.7,3.7c1,0.8,2.3,1.3,3.6,1.7c2.1,0.7,4.3,1.3,6.5,1.7
		c1.1,0.2,2.3,0,3.4-0.2c1.9-0.3,3.7-0.7,5.6-1c0.8-0.1,1.6,0.3,2.4,0.1c4.6-0.9,8.8-2.8,12.9-4.9c3.4-1.7,6.9-3.5,10.6-4.6
		c2.8-0.8,5.2-2.6,7.1-5c2.5-3.1,2.3-6.7,2.1-10.3c-0.1-1.5,0-3.1-0.4-4.6c-0.3-1.3-1-2.6-1.9-3.6c-0.5-0.6-1.6-1-2.4-0.9
		c-1.7,0.2-3.3,0.7-4.9,1.1c-3.5,0.9-6.9,1.9-10.4,2.7c-0.9,0.2-2-0.2-3-0.4c-2.1-0.5-4.2-1-6.1-1.4c-1.9,4.3-3.8,8.4-7.6,11.2
		c-0.3,0.2-0.8,0.1-1.3,0.1c0-0.4-0.2-1,0-1.3c0.5-0.6,1.2-1.1,1.7-1.6c0.6-0.6,1.3-1.3,1.8-2c1-1.5,1.9-3.1,2.8-4.7
		c0.8-1.4,0.8-2.5-0.1-4.1c-1.7-2.7-2.9-5.7-4.3-8.6c-0.5-1.1-1.2-2.1-1.8-3.1c-1.4-2.2-3-4.2-4.2-6.5c-1.8-3.4-3.6-6.9-5-10.5
		c-1.3-3.2-2-6.6-3.2-9.9c-1.1-3.1-2.4-6.2-3.7-9.2c-0.6-1.4-1.8-2.6-2.4-4.1c-0.8-1.9-1.9-3.5-3.1-5.1c-0.6-0.7-1.1-1.2-2-1.3
		c-0.4-0.1-0.7-0.5-1-0.7c0.4-0.3,0.7-0.6,1.1-0.7c1.1-0.3,2,0.1,2.6,0.9c1.3,1.8,2.6,3.7,3.8,5.6c0.3,0.4,0.5,0.9,0.8,1.4
		c3.2,4.5,4.7,9.8,6.6,14.8c1.5,3.8,2.5,7.9,4.1,11.6c1.4,3.2,3.3,6.2,5.1,9.3c0.9,1.5,2,2.7,3,4.1c0.5,0.8,0.9,1.7,1.3,2.6
		c1.1,2.5,2.3,5,3.6,7.4c1.9-4.4,3.8-8.8,3.2-13.7c-0.2-1.4-0.6-2.7-1.1-4c-1.1-2.8-2.1-5.5-3.4-8.2c-1-2-2.3-3.7-3.4-5.6
		c-0.1-0.2-0.3-0.3-0.4-0.6c-1.7-3.7-4.7-6.3-7.4-9.2c-1.7-1.9-3.2-4-4.8-5.9c-1.4-1.7-2.8-3.4-4.1-5.1c-0.6-0.7-1-1.5-1.5-2.3
		c-2.7-3.8-5.4-7.7-8.1-11.5c-1.4-2-2.9-4.1-4.4-6c-0.6-0.7-1.4-1.3-2.1-1.9C55.8,80.5,54,79,52,77.6c-2.2-1.5-4.8-2.2-7.5-2.2
		c-2-0.1-4.1-0.2-6.1-0.2c-0.8,0-1.6,0.2-2.4,0.2c-0.7,0-1.5-0.4-2.2-0.4c-0.9-0.1-1.9-0.3-2.6,0c-4.6,2.2-8.4,5.3-11.7,9.2
		c-2.9,3.4-4.5,7.5-5.9,11.7c-1.2,3.5-2.7,6.9-4,10.4c-0.7,1.7-1.2,3.5-1.8,5.2c-1.2,3.6-2.5,7.2-3.6,10.8c-0.5,1.5-0.6,3-0.8,4.5
		c-0.2,1.4-0.6,2.7-0.7,4.1c-0.2,3.1-0.4,6.2-0.5,9.3c-0.1,2.9,0.5,5.8,0.8,8.7c0.5,4.7,1.6,9.2,2.9,13.7c0.7,2.4,1.7,4.8,2.3,7.2
		c0.9,3.5,1.7,7.1,2.5,10.7c0.4,1.9,0.7,3.9,0.9,5.8c0.6,4.8,0,9.5-1.1,14.3c-1.5,6.1-3.8,11.7-6,17.5c-1,2.7-1.8,5.5-2.7,8.2
		c-0.4,1.2-0.9,2.4-1.3,3.6c-0.2-0.2-0.4-0.3-0.4-0.5c0-1.8,0-3.6,0-5.5c0.9-2.6,1.8-5.3,2.8-7.9c0.4-1.1,0.9-2.1,1.5-3.1
		c0.4-0.7,1.1-1.2,1.2-1.9c1-4,2-8,2.9-12c0.4-1.8,0.9-3.7,1.1-5.5c0.4-4.7-0.5-9.4-1.2-14c-0.7-4.6-2.2-9.1-3.7-13.5
		c-1.2-3.8-2.6-7.5-3.2-11.4c-0.3-2.4-1-4.7-1.5-7c0-12.2,0-24.3,0-36.5c0.4-1.9,0.7-3.8,1.1-5.7c0.6-3,1.4-6.1,2-9.1
		c0.5-2.6,1-5.2,1.4-7.8C5,86,5.4,83.4,5.8,80.7c0.5-3.2,0.9-6.4,1.6-9.5c0.5-2.1,1.3-4.2,2.1-6.2c1.2-3,2.4-6,3.8-8.9
		c0.6-1.3,1.4-2.5,2.2-3.7c1.8-3.2,2.6-6.7,3.4-10.2c0.5-2.5,1.5-4.9,2.2-7.4c1.5-5.4,3.9-10.3,6.8-15c0.6-0.9,1.3-1.7,2-2.5
		c1.3-1.7,2.6-3.3,3.7-5.1c0.8-1.2,1.8-2,2.9-2.8c2.5-1.7,4.8-3.8,7.4-5.4c3.2-2.1,6.7-3.4,10.5-3.8C59-0.4,63.5,0.4,68,1.6
		c2.3,0.6,4.4,1.5,6.5,2.7c2.7,1.5,5.6,2.8,8.3,4.2c1.8,0.9,3.3,2.1,4.7,3.6c1.3,1.4,2.9,2.4,4.3,3.7c2.7,2.5,4.6,5.4,5.3,9
		c0.2,0.8,0.6,1.5,0.6,2.3c0.1,1,0.1,2-0.2,2.9c-1,2.8-0.7,5.7-0.5,8.5c0.1,2.2,0.5,4.3-1.1,6.2c-1.3,1.6-0.6,3.4,0,5
		c0.8,2.4,1.7,4.8,2.5,7.2c0.3,0.8,0.5,1.7,0.5,2.6c0.1,1.7-1.1,2.8-2.8,2.8c-1,0-2.1,0-3.1,0c-1.5,0-2.4,0.4-2.5,1.8
		c-0.2,2.2-1.7,2.5-3.4,2.7c-1.3,0.2-2.6,0.1-3.8,0.1c-1.3-0.1-2.4,0.2-3.3,1.3c-2.4,2.9-2,4.6,0.1,7.7c0.3,0.4,0.6,0.7,0.9,1.1
		c0.8,1.2,0.6,2.3-0.4,3.2c-0.1,0.1-0.3,0.3-0.5,0.3c-1.7,0.7-2.6,1.9-3,3.8c-0.4,2.2-2.3,3.1-4.2,3.8c-1.9,0.7-3.8,0.9-5.7,0
		c-0.4-0.2-1,0.1-1.5,0.2c0.2,0.5,0.3,1.1,0.6,1.5c0.7,0.8,1.6,1.5,2.2,2.4c2.1,2.8,4.2,5.6,6.2,8.4c1.9,2.7,3.6,5.5,5.6,8.1
		c1.5,2,3.4,3.7,5.2,5.6c3.4,3.7,5.7,8,8.3,12.2c2.2,3.5,3.8,7.3,5.2,11.2c0.5,1.5,0.6,3.2,0.9,4.9c0.3,1.8,1.2,3.3,3,3.8
		c1.9,0.6,3.9,1,5.9,1.2c3.7,0.3,7.4,0.5,11.1,0.6c3.6,0.1,7.2-0.5,10.8-1.1c3.3-0.6,6.5-1.1,9.8-1.5c2.2-0.3,4-1.1,5.7-2.5
		c1.5-1.2,2.6-1,3.8,0.5c0.5,0.7,0.8,1.7,1.3,2.5c0.4,0.7,1,1.3,1.5,2c1.9-0.6,3.3-2.1,4.8-3.3c0.7-0.6,1.4-1.1,2.1-1.8
		c1.6-1.5,3.1-3,4.7-4.4c2-1.7,4.1-3.4,6.1-5.1c0.7-0.6,1.2-1.2,1.8-1.9c1.3-1.7,3-2.5,5.2-2.7c1.1-0.1,2.3-0.4,3.4-0.9
		c1.6-0.7,2.6-0.1,2.6,1.6c0,0.3,0,0.5,0,0.7c2.5-1.2,4.9-2.4,7.4-3.5c1.3-0.6,2.7-1,4.1-1.3c1.1-0.3,1.9,0.4,2.6,1.6
		c0.6,1,0,1.6-0.6,2.3c-1.4,1.6-3.4,2.3-5.2,3.1c-2,0.9-3.4,2.5-4.6,4.3c1.5-0.5,3-1,4.4-1.3c1.8-0.3,3.7-0.5,5.5-0.6
		c0.6,0,1.3,0.3,1.9,0.6c1.3,0.9,1.3,2.5-0.1,3.4c-0.4,0.3-0.8,0.5-1.3,0.8c-0.4,0.2-0.9,0.4-1.3,0.6c0.5,2.3,0.1,3.6-2,4.7
		c-1.7,1-3.6,1.7-5.4,2.6c-1.8,0.9-3.5,2-5.2,3.1c-0.5,0.3-0.9,0.7-1.3,1c0.1,0.1,0.2,0.3,0.3,0.4c1.3-0.2,2.6-0.4,3.9-0.5
		c1.1-0.2,2.2-0.3,3.3-0.5c1-0.1,1.8,0.2,2.1,1.2c0.3,1,0.3,2.1-0.8,2.6c-3.1,1.5-6.2,3-9.3,4.4c-2.3,1-4.7,1.6-7,2.6
		c-4.1,1.9-8.3,3.2-12.7,3.8c-0.2,0-0.4,0.1-0.6,0.1c-0.1,0-0.1,0.1-0.2,0.2c1,1.1,0.4,2.4-0.1,3.4c-0.3,0.6-1.3,1.1-2,1.2
		c-1.5,0.1-3.1,0-4.7-0.1c-0.6,0-0.9,0.1-1,0.8c-0.4,1.8-3.2,3.7-5,3.5c-0.4,0-0.9,0.1-1.1,0.3c-1,1.4-2.3,2.1-4,2.3
		c-0.6,0-1.1,0.6-1.7,0.9c-0.7,0.4-1.4,0.9-2.2,1c-1.9,0.2-3.7-0.1-5.4-1c-1.1-0.7-2.3-1.5-3.6-1.6c-1.1-0.1-2.6,0.2-3.4,0.9
		c-2.1,1.7-3.8,4-6.2,5.5c-1.2,0.7-2.3,1.4-3.6,2.2c0.9,0.3,1.7,0.7,2.6,0.8c3.9,0.7,7.8,1.5,11.7,1.8c3.2,0.2,6.1,1.4,9.2,1.9
		c5.8,1.1,11.6,1.9,17.5,1.7c1.1,0,2.3,0.3,3.5,0.5c3,0.5,6,0.9,9,1.3c3.1,0.4,6.1,0.8,9.2,1.2c3,0.4,6,0.7,9,1.1
		c3.1,0.5,6.1,1,9.2,1.6c0.9,0.2,1.9,1.7,1.6,2.5c-0.1,0.4-0.6,0.7-1,0.9c-0.5,0.1-1.1,0-1.6-0.1c-5-0.8-10.1-1.5-15.1-2.3
		c-3.7-0.6-7.3-1.4-10.9-2.1c-3.7-0.7-7.4-1.3-11.2-1.1c-3.8,0.2-7.4-0.6-11-1.4c-4.1-0.8-8.3-1.2-12.4-1.8
		c-1.4-0.2-2.8-0.6-4.2-0.9c-3.7-0.8-7.3-1.6-11-2.4c-2.8-0.6-5.6-1.2-8.3-1.7c-0.5-0.1-1.2,0.1-1.7,0.4c-3.2,1.5-6.4,3.1-9.6,4.6
		c-0.4,0.2-0.9,0.3-1.3,0.3c-2.2,0.2-4.1,1.3-6,2.4c-0.4,0.2-0.7,0.8-0.8,1.3c-0.4,3.9-1,7.8-0.1,11.7c0.9,4,1.9,7.9,2.7,11.9
		c0.7,3.6,1.3,7.2,1.9,10.8c-0.8,0-1.7,0-2.5,0c-0.4-2.6-0.6-5.3-1.1-7.9c-0.9-4-2-7.8-2.9-11.8c-0.7-3.1-1.1-6.3-0.9-9.6
		c0.2-2,0.3-4,0.4-6.1c-0.7,0-1.5-0.1-2.3,0c-2.9,0.4-5.8,1.3-8.8,0.5c-3.7-0.9-7.6-1.5-10.6-4c-1.3-1.1-2.2-2.4-3.4-3.7
		c-1.9-2-4-4-5.7-6.1c-3.1-3.8-6.4-7.5-8.8-11.8c-0.4-0.7-1-1.2-1.5-1.8c-0.5-0.8-0.9-1.6-1.5-2.6c-0.2,0.8-0.4,1.3-0.4,1.9
		c-0.1,4-0.4,8-0.3,11.9c0.1,5.3,0.5,10.6,0.9,15.9c0.3,4.4-0.1,8.8-1,13.1c-0.5,2.5-1.2,5-1.6,7.5c-0.5,3.2-0.7,6.4-1.1,9.6
		c-0.2,1.6-0.5,3.3-0.8,4.9C43.7,230,42.9,230,42.2,230z M91.6,56.2c-1.4,0.5-1.9,1.4-1.9,2.7c-0.1,1.1,0.7,1.6,1.7,1.1
		c1.1-0.4,2.2-0.7,3.3,0.1c0.7,0.5,1.3,0.7,2.1,0.2c0.7-0.5,0.6-1.2,0.4-1.9c-0.9-2.6-1.8-5.1-2.6-7.7c-0.4-1.5-0.7-3-0.9-4.5
		c-0.1-0.7,0.2-1.4,0.3-2.2c-1.7-0.1-3.3-0.2-4.9-0.2c-0.6,0-1.3-0.1-1.3-0.8c0-0.3,0.8-0.8,1.2-0.8c1.7-0.1,3.5-0.1,5.2,0
		c1,0.1,1.3-0.2,1.3-1.1c-0.1-1.9-0.2-3.8-0.2-5.7c0-1.7,0-3.3,0-5.2c-1,0.2-2.3,0.2-3.3,0.7c-3.4,1.6-7,3-10,5.5
		c-0.6,0.5-1.3,1-1.9,1.1c-2.8,0.3-4.3,2.2-5.1,4.5c-0.9,2.5-2.6,4.2-4.3,6c-0.8,0.8-2.8,0.9-3.6,0.2c-0.8-0.8-1.9-1.4-2.1-2.8
		c-0.1-0.6-0.8-1.4-1.4-1.6c-1.1-0.3-2.4-0.5-3.5-0.4c-2,0.1-2.9,1.8-4.1,3c-1.7,1.8-2.5,4.9-0.2,7.2c0.7,0.7,1.7,0.9,2.7,1.2
		c0.4,0.1,1.6-1.7,1.6-2.2c0-0.7-0.2-1-0.9-1.2c-1.5-0.4-1.8-1.2-1-2.5c0.3-0.5,0.4-1.1,0.6-1.7c0.2-0.4,0.5-0.7,0.7-1.1
		c0.3,0.4,0.9,0.7,0.8,1.1c-0.1,0.9-0.4,1.7-0.6,2.6c2,0.9,2.4,2,1.4,4.1c-0.1,0.2-0.2,0.4-0.3,0.6c-0.8,2.2-2.8,2.5-4.4,1.6
		c-1.2-0.7-1.7-0.3-2.3,0.6c-0.2,0.3-0.3,0.5-0.5,0.8c-1.6,2.4-3,5-5,7.2c-2.7,2.9-5.5,5.9-9.2,7.7c-0.1,0-0.1,0.2-0.2,0.3
		c0.7,0.3,1.3,0.9,2,1c1.5,0.1,3.1,0,4.6,0.1c3.6,0.2,7,1.1,9.8,3.7c1,0.9,2,1.8,3.1,2.7c0.7,0.6,1.5,1.1,2.4,1.7
		c-0.2-1.6-0.5-2.8-0.6-4.1c0-0.4,0.2-0.8,0.4-1.2c0.4,0.3,1,0.5,1.1,0.9c0.6,2.2,1,4.3,1.5,6.5c0.2,1,0.7,1.9,1.8,2.1
		c2,0.5,4,1,6,0.8c3.4-0.4,4.7-1.5,5.4-4.7c0.1-0.5,0.5-1,0.9-1.3c0.7-0.5,1.6-0.9,2.3-1.4c0.7-0.4,0.9-0.9,0.3-1.7
		c-0.6-0.8-1.1-1.7-1.7-2.6c-0.4-0.5-0.7-1.1-1.3-1.9c-0.4,0.7-0.6,1.1-0.8,1.6c-0.3,0.7-0.5,1.5-0.8,2.2c-0.1,0.3-0.7,0.3-1.1,0.5
		c-0.1-0.4-0.4-0.8-0.3-1c1.2-3.4,3-6.5,5.6-9.1c1.5-1.4,3-2.8,4.6-4.1c0.5-0.5,1-0.5,1.4,0.1c-0.6,0.8-1.1,1.5-1.7,2.2
		c1.4,0,2.7,0.1,4,0c0.3,0,0.8-0.5,0.9-0.8c0.4-1,0.7-2,1.1-3c-0.4-0.5-1-0.9-1.3-1.4c-0.5-1.3,0.2-3.5,1.3-4.4
		C90.4,55.3,91,55.3,91.6,56.2z M182.2,129.1c-0.6,0.2-0.9,0.3-1.3,0.4c-0.9,0.3-1.8,0.8-2.8,0.8c-2.3,0-3.8,1.2-5,3
		c-0.3,0.4-0.7,0.8-1.1,1.2c-2.3,2-4.6,3.9-6.9,5.9c-1.5,1.3-2.8,2.7-4.3,4c-1,0.9-2,1.6-3,2.4c-1.4,1.1-2.9,2.2-4.6,3.5
		c0.2,1.7,0.9,3.4,2.4,4.8c2.5,2.4,3.2,5.5,3.8,8.7c0.1,0.8,0.5,0.9,1,0.8c3-0.6,6-1.1,8.9-2.1c3.5-1.2,6.7-2.9,10.2-4.1
		c3.5-1.2,6.8-2.7,10.1-4.5c0.4-0.2,0.6-0.7,0.9-1c-0.4-0.1-0.8-0.2-1.2-0.2c-2.4,0.3-4.8,0.7-7.2,1.1c-1.3,0.2-1.8-0.5-1.3-1.6
		c0.5-1,1.1-2.1,2-2.7c1.8-1.3,3.8-2.4,5.8-3.5c1.8-1,3.6-1.7,5.4-2.7c0.5-0.3,0.8-0.9,1.1-1.4c0.1-0.2,0-0.7-0.1-0.8
		c-0.1-0.1-0.6-0.1-0.8,0c-2.5,1.2-5,2.5-7.5,3.7c-0.5,0.3-1,0.6-1.6,0.9c-0.5,0.3-1,0.6-1.5,0.7c-0.2,0-0.7-0.7-0.6-0.9
		c0.2-0.5,0.5-1.1,1-1.3c0.8-0.5,1.8-0.8,2.6-1.3c3.1-2,6.4-3.3,9.8-4.5c0.7-0.2,1.4-0.7,2.1-1.1c0-0.1,0-0.2,0-0.4
		c-0.4-0.2-0.8-0.6-1.2-0.6c-4.5,0.1-8.7,0.9-12.2,3.9c-0.5,0.4-0.9,0.9-1.4,1.3c-0.2,0.2-0.8,0.2-1,0.1c-0.2-0.3-0.2-0.7-0.2-1.1
		c0-0.2,0.3-0.4,0.5-0.6c0.8-1.1,1.8-2.1,2.5-3.2c1.8-3.2,4.4-5.4,7.8-6.7c0.9-0.4,1.8-1,2.6-1.6c0.3-0.2,0.3-0.7,0.4-1
		c-0.4-0.1-0.8-0.4-1.2-0.3c-1.6,0.5-3.1,1-4.7,1.6c-5.2,2.2-9.7,5.4-13.5,9.7c-1.5,1.7-2.2,3.9-4.1,5.4c-1.5,1.1-2.7,1.6-4.5,1.1
		c-0.3-0.1-0.6-0.1-0.9-0.2c-0.7-0.1-1.8-0.1-1.6-1.1c0.2-1,1.1-0.5,1.8-0.3c1.7,0.5,3.3,0.6,4.4-1.2c0.9-1.4,2-2.8,3-4.2
		c0.6-0.9,0.7-1.7-0.1-2.6c-0.3-0.3-0.1-0.9-0.2-1.4c0.5,0,1.2-0.1,1.5,0.2c0.6,0.6,1,0.6,1.6,0.1c0.4-0.3,1-0.4,1.4-0.8
		C180.4,132.2,181.8,131.2,182.2,129.1z M141.3,147.9c-2.7,1.9-5.4,3.7-8,5.5c1.2,0.9,2.4,1.6,3.4,2.6c2.8,3.1,2.7,6.8,1.6,10.4
		c-1,3.4-3,6.2-5.6,8.7c1.4,0.7,2.6,1.5,4,1.9c1.6,0.5,3.2,0.7,4.7-0.6c0.6-0.5,1.4-0.7,2.1-1c0.8-0.4,1.8-0.6,2.3-1.2
		c0.9-1.2,1.9-1.5,3.2-1.3c1.1,0.2,3-1.5,3-2.5c0-1.5,0.4-1.8,1.8-1.8c1.6,0.1,3.2,0.1,4.8,0.2c0.9,0.1,1.3-0.4,1.4-1.1
		c0.1-0.7-0.1-1.2-0.9-1.6c-1.6-0.8-3.2-1.6-4.6-2.7c-2.4-1.9-4.6-4.1-6.8-6.2c-1.5-1.4-2.2-3.3-1.6-5.3c0.5-1.8,1.7-3.3,3.1-4.7
		c0.3-0.3,0.6-0.9,0.5-1.3c-0.1-0.6-0.5-1.2-0.8-1.7c-0.4-0.7-1-0.7-1.7-0.2c-1.1,0.8-2.4,1.6-3.6,2.3c-0.3,0.2-0.7,0.4-0.9,0.6
		c0,0.8,1.5,1.2,0.5,2C142.3,149.8,142.1,148.5,141.3,147.9z M138.8,147.8c0-0.1-0.1-0.1-0.1-0.2c-3.1,0.5-6.2,1-9.3,1.5
		c-2.1,0.3-4.2,0.9-6.2,0.9c-4.8,0-9.5-0.1-14.3-0.5c-2.8-0.2-5.6-0.7-8.1-2.5c-0.1,0.4-0.2,0.7-0.3,1.1c-0.8,2.6-1.6,5.2-2.5,7.7
		c-0.3,0.8-0.8,1.5-1.3,2.4c0.4,0.1,1.1,0.3,1.7,0.5c1.3,0.3,2.8,0.2,4,0.8c2.8,1.2,5.4,0.4,8.1-0.5c2.5-0.8,5-1.8,7.5-2.3
		c2.1-0.4,4-1,5.8-2.1c0.9-0.5,1.9-0.9,2.9-1.2c1.4-0.4,3-0.2,4.3-0.9C133.6,151.2,136.1,149.4,138.8,147.8z M127.7,174.5
		c0.1,0.1,0.2,0.2,0.3,0.3c1.4-0.8,2.9-1.4,4.1-2.3c2-1.6,3.3-3.9,4-6.3c0.5-1.7,0.8-3.5,0.7-5.2c-0.1-2.3-2.2-5.1-5.3-5.5
		c-2.8-0.4-5.2-0.3-7.5,1.3c2,1.5,3.3,3.4,3.6,5.7c0.4,3.2,0.4,6.4,0.5,9.5C128.1,172.8,127.8,173.6,127.7,174.5z M151.2,148.2
		c-1.5,0.6-2.3,1.8-3,3.1c-1,1.8-0.5,3.8,1.1,5.1c1.6,1.3,3.1,2.6,4.6,4c1,0.9,1.9,1.8,2.9,2.7c0.1-0.1,0.2-0.1,0.2-0.2
		c-0.6-2.4-1.1-5-3.2-6.8c-0.4-0.3-0.7-0.8-1-1.2C151.7,152.8,151.1,150.6,151.2,148.2z"/>
	<path class="st0" d="M92.3,48.2c0,0.1,0,0.5,0,1c-2.4-0.1-4.8,0-6.9-1.6c-0.2-0.1-0.2-0.4-0.3-0.7c0.3-0.1,0.5-0.3,0.8-0.2
		C88,47.2,90.1,47.7,92.3,48.2z"/>
</g>
</svg>
