<?xml version="1.0" encoding="utf-8"?>
<!-- Generator: Adobe Illustrator 19.2.1, SVG Export Plug-In . SVG Version: 6.00 Build 0)  -->
<svg version="1.1" id="Layer_1" xmlns="http://www.w3.org/2000/svg" xmlns:xlink="http://www.w3.org/1999/xlink" x="0px" y="0px"
	 viewBox="0 0 200 276.5" style="enable-background:new 0 0 200 276.5;" xml:space="preserve">
<style type="text/css">
	.st0{fill:#00BCD4;}
</style>
<g id="eczema-lady2">
	<path class="st0" d="M30.9,276.5c-0.2-8.9-0.3-17.8-0.5-26.6c0-0.7-0.3-0.9-0.9-1c-2.7-0.8-5.1-2.1-7.2-4c-4.9-4.3-8.5-9.6-12-15.1
		c-1.9-3-3.9-5.9-5.7-8.9c-1.4-2.4-2.4-4.9-2.3-7.9c0.1-3.9,0.5-7.6,1.6-11.3c0.7-2.5,0.4-5.2,0.5-7.9c0.1-4.3-1.9-8-3.3-11.9
		c-0.5-1.4-0.8-2.9-0.8-4.3c-0.1-2.8-0.1-5.5,0-8.3c0.2-4,0.7-7.9,2.6-11.5c1-1.9,1.7-4,2.5-6c2.3-5.3,6.3-8.4,12.1-9.3
		c2.7-0.4,5.4-1.1,8.2-1.6c1-0.2,2.1-0.1,3.3-0.2c0.2-2.4-0.2-4.8-0.6-7.2c-0.5-2.9-1-5.7-1.1-8.6c-0.1-3.5,0-7,0.2-10.5
		c0.1-2.5,0.7-5.1,0.7-7.6c-0.1-4.8-0.6-9.6-0.9-14.4c-0.2-4.3-0.3-8.5-0.5-12.8c-0.1-2.5-0.5-4.9-0.7-7.4c-0.2-2.8-0.4-5.7-0.5-8.5
		c-0.1-4.7-0.2-9.4-0.2-14c0-3.2,0.7-6.3,1.9-9.3c2-4.8,4.8-9.1,7.4-13.5c1.3-2.3,2.5-4.7,3.8-7c2.8-4.8,6.8-8.3,11.7-10.9
		c2.5-1.4,4.9-3.2,7.5-4.4c4.5-2,9.1-3.5,14.1-4c2.4-0.2,4.8-0.5,7.2-0.4c6.3,0.2,11.8,2.6,16.6,6.6c4,3.3,7.2,7.3,10.3,11.4
		c1.5,2,2.5,4.4,3.7,6.7c0.1,0.2,0.2,0.4,0.3,0.5c0.8,1.1,1.4,2.1,1.6,3.5c0.2,1.6,1.2,3,1.8,4.6c1.7,4.2,3.4,8.4,5.2,12.5
		c1.3,3.1,2.8,6.2,4.2,9.3c1.7,3.8,3.7,7.5,5.1,11.5c1.4,3.9,2.6,7.9,3.4,11.9c0.8,4.3,2.1,8.5,2.1,13c0,2.3,0.8,4.7,1.4,7
		c1.3,5.3,2.5,10.8,4.2,16c1.4,4.1,3.4,8.1,5.4,12c1.1,2.2,3,3.6,5.6,3.9c1.7,0.2,3.3,0.7,5,0.9c2.3,0.3,4.7,0.7,7,0.5
		c4.9-0.4,9.4,1.1,13.7,3c2.9,1.3,6.1,3,7.1,6.6c0.6,2.2,1.3,4.3,2,6.4c0.8,2.6,1.7,5.2,2.3,7.8c1,4.1,1.8,8.3,2.7,12.4
		c1.1,5,1.3,10.2,1.8,15.3c0.4,3.9,1.1,7.8,1.8,11.7c0.8,4.5,1.8,8.9,2.5,13.4c0.3,2.1,0.2,4.2,0.3,6.3c0.2,5,0.4,10,0.8,15
		c0.2,2.9,0.4,5.9,0.9,8.8c0.4,2.2,0.7,4.3,0.8,6.5c0.1,3.6,0.2,7.1,0.5,10.7c0.4,4.4,1,8.7,1.4,13.1c0.2,2.3-1,4.1-2.1,5.9
		c-0.4,0.7-0.7,1.3-1.1,2c-0.9,0-1.8,0-2.7,0c0.6-1,1.7-1.7,1.2-3.2c-0.1-0.2,0.3-0.7,0.5-0.9c1.4-0.8,2-2.1,1.9-3.6
		c0-1.7-0.1-3.3-0.3-5c-0.2-2.3-0.5-4.7-0.7-7c-0.2-2.1-0.6-4.2-0.7-6.2c-0.1-2.4,0-4.8,0-7.2c0-0.3,0.1-0.7-0.1-1
		c-1.5-3-1.2-6.4-1.6-9.6c-0.5-3.9-0.6-7.8-0.8-11.6c-0.2-4.1-0.3-8.1-0.5-12.2c0-0.2,0-0.5-0.1-0.7c-0.6-3.2-1.3-6.3-1.9-9.5
		c-0.6-3.7-1.2-7.5-1.7-11.2c-0.4-2.7-0.7-5.5-1-8.2c-0.4-3.5-0.7-7-1.2-10.5c-0.5-3.4-1-6.8-1.8-10.1c-1.5-5.7-3.3-11.4-5.1-17.1
		c-0.6-2-2-3.4-4-4.2c-0.8-0.3-1.7-0.4-2.6-0.9c-3.9-2.1-8-3.3-12.6-3c-1.9,0.1-3.9,0-5.8-0.2c-1.9-0.2-3.8-0.7-5.7-1.1
		c-0.5-0.1-0.9-0.1-1.5-0.1c0.1,2.6-0.5,4.7-3.2,5.4c1.3,4.9,3.1,9.6,5.5,13.9c0.6,1,1.1,2.1,1.4,3.2c0.8,3.3,1.5,6.6,2.2,9.9
		c0.5,2,0.9,4.1,1.5,6.1c0.9,3.3,0.8,6.8,2.5,9.9c0.1,0.2,0.2,0.5,0.2,0.7c0.1,4.7,0.5,9.4-0.4,14.1c-0.4,2-0.2,4,0.7,6
		c1.4,3.2,2.5,6.5,2.2,10.1c0,0.6,0.2,1.3,0.4,1.9c0.7,2.7,1.5,5.3,2,8c0.5,2.8,0.5,5.7,0.9,8.5c0.6,3.9,1.4,7.8,1.3,11.7
		c0,2.6,0,5.1,0,7.6c2.8,0.7,5.6,1.1,8.3,2c3,1,5.8,2.4,8.7,3.5c2,0.8,3.1,2.4,4.1,4.1c0.2,0.3-0.1,1.1-0.4,1.3
		c-0.3,0.2-0.9-0.1-1.3-0.3c-0.2-0.1-0.4-0.5-0.5-0.8c-0.7-1.5-1.9-2.3-3.5-2.8c-0.9-0.3-1.8-0.6-2.7-1.1c-4.8-2.5-10-3.2-15.3-3.8
		c-2.7-0.3-5.4-0.4-8-1c-3.9-0.9-7.8-2-11.5-3.4c-6.9-2.6-13.7-5.4-20.5-8.3c-6-2.5-12.2-4.6-17.8-8.1c-0.7-0.4-1.2-0.8-1.1-1.6
		c0.4-3.5,0.7-6.9,1.4-10.4c0.7-3.3,1.9-6.5,2.6-9.9c0.3-1.2,0.3-2.8-0.3-3.6c-1-1.4-1-2.6-0.5-4.1c0.3-1.1,0.7-2.5-0.4-3.2
		c-2.4-1.5-4.5-3.7-7.5-4.1c-0.3,0-0.6-0.1-0.8-0.3c-1.7-1.2-3.5-2.4-5.2-3.6c-2-1.4-3.9-2.8-6-4.2c-0.3,0.8-0.4,1.3-0.7,1.7
		c-0.2,0.3-0.5,0.4-0.8,0.6c-0.1-0.3-0.4-0.6-0.4-0.9c0.1-0.7,0.4-1.3,0.6-2c-0.3-0.1-0.6-0.2-0.9-0.3c-2.8-0.5-5.1-2.3-7.4-3.8
		c-2.1-1.3-4.3-2-6.7-2.9c0,1.4,0.8,2.8-0.9,4c2.9,1.4,5.5,2.6,8.1,3.8c0.8,0.4,1.7,0.8,2.3,1.4c2.5,2.4,5.1,4.8,8.4,6.1
		c1.4,0.5,2.6,1.3,4,1.8c3.7,1.5,6.3,4.6,9.7,6.7c0.3,0.2,0.3,0.7,0.4,1.1c-0.4,0.1-1,0.4-1.3,0.2c-1.2-0.8-2.5-1.5-3.6-2.5
		c-3.6-3.5-8.2-4.9-12.5-7c-0.3,0.7-0.4,1.3-0.7,1.7c-0.2,0.3-0.7,0.4-1,0.6c-0.1-0.3-0.3-0.7-0.3-1c0-0.3,0.2-0.6,0.3-0.9
		c0.5-0.9,0.2-1.5-0.6-2.1c-1.4-1.1-2.6-2.3-3.9-3.5c-0.3-0.3-0.6-0.7-1-0.9c-3.2-1.3-6.3-2.7-9.1-4.6c-0.3-0.2-0.6-0.3-1-0.5
		c0.1,1.4,0,2.6-1.8,3.2c2.2,1.6,4.1,3,6,4.4c0.8,0.6,1.6,1.3,2.5,1.9c1.1,0.8,2.2,1.7,3.4,2.5c0.5,0.3,1,0.5,1.5,0.9
		c3.2,2.3,6,5.1,9.8,6.4c2,0.7,3.9,1.6,5.9,2.4c0.7,0.3,1.2,0.9,0.9,1.6c-0.3,0.8-1,0.6-1.6,0.3c-0.2-0.1-0.3-0.2-0.5-0.3
		c-3.5-1.7-6.9-3.3-10.1-4.9c-0.6,0.4-1,0.8-1.5,1.2c-0.1-0.8-0.1-1.5-0.2-2.3c0.1,0,0.2-0.1,0.4-0.1c-4.9-3.6-9.8-7.3-14.8-10.9
		c-1.4,1.6-3.7,1.1-8.3-2.2c0.3,0.8,0.3,1.4,0.6,1.8c1,1.3,2.1,2.5,3.2,3.7c0.2,0.2,0.4,0.4,0.6,0.4c2.3-0.5,3.4,1.2,4.7,2.5
		c0.6,0.5,1,1.2,1.7,1.5c2.7,1.2,4.9,2.9,7.1,4.8c2.6,2.3,5.3,4.6,8.1,6.7c2.6,2,4.6,4.9,7.8,6.1c0.3,0.1,0.3,0.7,0.5,1.1
		c-0.4,0.1-0.9,0.5-1.1,0.4c-1.1-0.4-2.2-0.9-3.1-1.6c-2-1.6-3.8-3.3-5.7-5.1c-0.2,0.4-0.3,0.6-0.4,0.9c-0.4,0.5-0.4,1.7-1.3,1.2
		c-0.8-0.4-0.2-1.2,0.1-1.8c0.5-0.8,0.4-1.4-0.4-2c-1.3-1-2.5-2.2-3.8-3.2c-2.2-1.8-4.5-3.6-6.8-5.4c-0.6-0.5-1-0.4-1.5,0.2
		c-0.4,0.5-1.2,0.8-1.8,1c-1.4,0.3-2.7-0.2-3.7-1.3c1.1,1.6,2.3,3.2,3.7,4.6c1.6,1.6,3.5,2.8,4.9,4.5c2.2,2.6,4.7,4.7,7.5,6.5
		c2.7,1.7,4.4,4.3,5.1,7.4c0.6,2.9,0.1,5.7-0.9,8.5c-0.2,0.5-0.9,1.2-1.2,1.2c-0.9-0.2-0.8-1-0.5-1.7c0.9-2.1,0.8-4.3,0.9-6.4
		c0.1-2.3-0.9-4-2.7-5.7c-0.1,2.1-0.3,4-0.3,5.8c-0.1,4.7-0.4,9.4,1.2,14c1.2,3.3,2.9,6,6.2,7.6c3,1.4,6.1,2.9,9,4.5
		c3.6,2.1,7,4.5,10.7,6.5c3.3,1.8,6.1,4.1,8.7,6.8c4,4,8.3,7.5,13.5,10c2.6,1.2,5,2.7,7.5,4c-1.5,0-3.1,0-4.6,0
		c-0.5-0.3-1.1-0.6-1.6-0.9c-2.3-1.2-4.8-2.3-7-3.7c-3.8-2.4-7-5.5-10.2-8.7c-1.7-1.6-3.5-3.2-5.5-4.5c-2.8-1.9-5.8-3.6-8.7-5.3
		c-4.2-2.4-8.5-4.6-12.8-7c-1.5-0.9-3.2-1.8-4.2-3.2c-2.5-3.2-3.8-7.1-4-11.1c-0.2-3.8-0.1-7.6,0-11.4c0-1.8,0.4-3.5,0.6-5.5
		c-4.2-1.9-6.7-5.9-10.1-9.4c-0.2,1-0.3,1.9-0.7,2.6c-1.6,3.8-3,7.6-4.9,11.2c-1.8,3.6-3.9,7-5.9,10.5c-2.9,4.9-7.1,8.7-11.2,12.5
		c-2.1,1.9-4.2,3.7-6.5,5.3c-2.1,1.5-4.3,3.2-7.3,2.1c0,1.5,0.1,2.9,0,4.2c-0.1,1.5,0.3,2.8,1.4,3.8c1.8,1.6,3.8,3.2,5.8,4.5
		c3.3,2.1,7.2,2.5,10.8,3.7c0.7,0.2,1.5,0.5,1.3,1.5c-0.3,0.9-1,0.8-1.8,0.6c-1.4-0.5-2.8-1-4.3-1.3c-3.4-0.8-6.6-2.2-9.4-4.2
		c-1.3-0.9-2.4-2-3.5-3c0.1,5.7,0.2,11.2,0.3,16.8C32.4,276.5,31.6,276.5,30.9,276.5z M111.6,123.8c-0.2-0.6-0.5-1.2-0.7-1.9
		c-0.1-0.2,0-0.4,0-0.6c0.2,0.1,0.5,0,0.7,0.2c0.2,0.2,0.4,0.5,0.5,0.8c1.2,2,1.4,2,3.7,1.7c1.4-0.2,2.9-0.1,4.2,0.3
		c2.1,0.6,4.1,1.6,6.1,2.6c0.9,0.4,1.8,1,2.4,1.7c2.1,2.3,4.4,4.2,7.8,4.1c0.9,0,1.2-0.3,1-1.2c-0.1-0.3-0.2-0.7-0.4-1
		c-0.9-1.5-1.8-3-2.7-4.4c-0.2-0.3-0.5-0.6-0.7-0.8c-2.8-2.3-6-4-9.2-5.8c-2.3-1.3-4.6-1.5-7-1.7c-2.6-0.3-5.1-0.3-7.6-1.1
		c-1.4-0.5-2.8-1.1-4.2-1.2c-1.5-0.1-3.1,0.2-4.4,1.4c-1,0.9-1.9,1.9-2.9,2.8c-0.5,0.4-1,0.9-1.5,1.2c-1,0.5-2,1-3,1.4
		c-0.7,0.3-1.3,0.8-2.1,1c-4,1.6-8.2,3.1-11.4,6.1c-3.1,3-7.2,4-11,5.8c-2.4,1.1-3.1,3.1-4.1,5.1c-0.5,1-0.7,2.1-1.3,3.1
		c-1.1,1.6-2.4,3.1-3.5,4.7c-2.1,3.2-4,6.6-6.1,9.8c-2.4,3.7-4.9,7.3-7.4,10.8c-1.9,2.7-3.8,5.6-6.2,7.8c-3.5,3.3-7.5,6.3-11.3,9.3
		c-2.9,2.2-5.4,4.7-7.2,7.8c-1.3,2.2-2.7,4.2-4.2,6.2c-2.5,3.3-5,6.6-7.5,9.9c-0.5,0.6-1.1,1.1-1.7,1.5c-0.3,0.2-0.8-0.1-1.2-0.2
		c0.1-0.3,0.1-0.7,0.3-0.9c0.6-0.9,1.3-1.8,1.9-2.6c1.1-1.5,2.2-2.9,3.3-4.4c2.8-3.5,5.8-6.8,7.9-10.8c1.4-2.7,3.5-5,5.9-6.9
		c3.4-2.6,6.7-5.2,9.9-7.9c3.1-2.6,3.1-2.7,2.9-6.8c-0.2-2.8-0.9-5.4-3.1-7.3c-0.4-0.3-0.7-0.7-0.9-1.2c-0.1-0.4,0-1.1,0.3-1.2
		c0.3-0.2,1-0.1,1.3,0.2c1.6,2,3.3,3.9,3.9,6.5c0.1,0.4,0.2,0.8,0.3,1.1c0.1,0,0.3,0,0.4,0c0.4-2.2,1.1-4.3,1.3-6.5
		c0.3-4.6-0.2-9.3,0.5-13.9c0.4-3,0.4-6.2,0.5-9.2c0-0.4,0.2-0.9,0.1-1.3c0-0.4,0-1.1-0.2-1.1c-0.4-0.1-1.1-0.2-1.4,0.1
		c-1.9,1.7-4.1,2.8-6.6,3.5c-2.5,0.8-5,1.7-7.6,2.4c-0.9,0.3-1.9,0.1-2.8,0.3c-2.8,0.5-5.5,1.1-8.3,1.6c-5,0.8-8.4,3.6-10.2,8.3
		c-0.8,1.9-1.5,4-2.4,5.8c-1.4,2.7-2,5.6-2.1,8.5c-0.1,3.1,0,6.1-0.1,9.2c-0.1,2.2,0.4,4.1,1.3,6.1c3.4,7.4,4,14.8,1.6,22.7
		c-1.7,5.6-1.4,11.1,2.3,16.1c2.5,3.5,4.8,7.1,7.2,10.8c2.8,4.4,6.1,8.5,10.1,11.8c1.4,1.1,2.9,2.5,5.1,2.1c0.2,0,0.5,0.2,0.7,0.3
		c1,0.5,2,1.2,3.1,1.5c0.7,0.2,1.8,0.1,2.5-0.3c3.2-1.8,6.1-3.9,8.6-6.5c3.2-3.3,6.9-6,9.4-9.9c2.2-3.4,4.1-7,6.2-10.4
		c2.8-4.6,5.2-9.4,6.4-14.8c0.1-0.4,0.2-1.1,0-1.4c-0.8-1.1-1.7-2.1-2.6-3.1c-0.2-0.2-0.4-0.4-0.7-0.4c-2.2-0.1-3.7-1.6-5.3-2.7
		c-1.5-1-2.5-2.5-3.1-4.3c-0.2-0.6-0.8-1.1-1.2-1.6c-0.5-0.6-1.3-1.1-1.4-1.7c-0.2-3-0.8-6,0.6-8.9c0.4-0.9,0.4-2,0.7-2.9
		c0.2-0.8,0.5-1.7,1-2.3c1.2-1.4,2.5-2.7,3.8-4c0.9-0.9,1.9-2,3.1-2.3c2.6-0.5,5.2,0,7.4,1.6c0.6,0.5,1.2,1.2,1.5,2
		c0.3,0.8,0.2,1.7,0.3,2.6c1.1,0.4,2.1,0.7,3.1,1.1c0.1-1,0.2-1.9,0.3-2.8c0.6-4.9,3.2-9.3,3.4-14.3c0.1-3.5,1.2-6.9,1-10.5
		c0-0.4,0.4-1.1,0.7-1.2c0.8-0.2,0.8,0.6,0.9,1.1c0.1,1.2,0.1,2.4,0.2,3.6c2.4-1.5,3.6-3.5,3.1-5.7c-0.3-1.4-0.9-2.7-1.3-4
		c-0.2-0.5-0.3-1-0.3-1.5c0-0.3,0.4-0.7,0.7-0.8c0.1-0.1,0.6,0.3,0.7,0.6c0.4,0.8,0.7,1.6,1,2.4c0.9,2.5,1.6,4.9,0.3,7.6
		c0.2,0.1,0.4,0.2,0.7,0.3c2,0.2,4,0.6,6,0.6c3.5,0,7,0.1,10.4-1.1c1.4-0.5,2.9-1,4.5-1.2c5-0.7,10-1.2,14.8-2.7
		c2.8-0.9,5.7-1.7,8.5-2.6c0.4-0.1,0.9-0.6,1-1c0.3-1.6-1-3.8-2.6-4.2c-0.7-0.2-1.5,0-2.2,0.1c-2.1,0.2-4.2,0.4-6.2,0.8
		c-1.9,0.4-1.8,0.5-1.4,2.4c0,0.2,0.1,0.4,0.1,0.6c-0.1,0.4-0.3,0.7-0.5,1.1c-0.3-0.2-0.8-0.4-0.9-0.8c-0.3-0.7-0.4-1.4-0.6-2.3
		c-2.2,1.4-4.6,1.5-7,1.3c-1.2-0.1-1.5,0.4-1.6,1.4c-0.1,0.5-0.2,1.1-0.5,1.5c-0.3,0.3-0.9,0.4-1.3,0.5c0-0.4,0-0.9,0-1.3
		c0.3-1.3,1.3-2.7-0.4-3.8c-0.2-0.2-0.4-0.5-0.5-0.8c-0.8-1.1-1.5-2.3-2.4-3.3c-1.2-1.4-1.3-2.1,0.1-3.4c0.7-0.7,0.7-0.7-0.2-2.1
		c-0.3,0.5-0.5,1-0.8,1.4c-2.6,3.8-5.3,7.6-7.9,11.4c-1.3,1.9-2.9,2.5-4.9,1.8c-0.7-0.3-1.4-0.7-2.1-1.2c-0.2-0.1-0.3-0.5-0.2-0.7
		c0.1-0.2,0.4-0.5,0.6-0.5c0.5,0,1,0.1,1.5,0.4c1.8,1,3.1,0.7,4.1-1.2c0.3-0.6,0.6-1.2,1-1.8c3.6-4.9,7.3-9.7,11-14.6
		c-0.5-0.7-1.2-1.7-1.8-2.7c-0.2-0.3,0-0.7,0-1c0.3,0.1,0.7,0.2,0.9,0.5c0.6,0.9,1.2,1.9,1.6,2.5
		C107.4,125.3,109.5,124.6,111.6,123.8z M40.2,77.8c-0.1,0.9-0.2,1.4-0.1,2c0.1,2.2,0.3,4.5,0.4,6.7c0.2,4.8,1.2,9.4,3.7,13.6
		c1.7,2.7,3.7,5.2,5.5,7.7c1.6,2.3,3,4.8,4.9,6.9c4,4.6,8.4,8.8,14,11.5c1.2,0.6,2.4,1.3,3.6,1.6c3.6,0.7,7,0.3,10.1-1.9
		c0.3-0.2,0.5-0.4,0.8-0.5c3.1-1.5,6.2-2.9,9.2-4.4c2.7-1.3,5.3-3,6.8-5.8c2.4-4.2,4.6-8.5,6.9-12.7c1.9-3.4,2.7-7.2,3-11
		c0.1-1.6,0-3.3-1.4-4.6c-1-1-1.3-2.4-0.9-3.9c0.1-0.4,0-0.9-0.2-1.3c-0.9-2.5-2-5-2.8-7.6c-0.7-2.4-0.7-5.1-2.2-7.3
		c-0.9-1.2-1.6-2.8-2.8-3.4c-2.3-1.2-5-1.6-7.7-1.8c-4.8-0.3-9.5-0.9-13.8-3.3c-3.6-2-5.3-5-5.4-8.9c-0.1-2,0.4-4,0.8-6
		c0.3-1.7,1-3.4,1.1-5.2c0.1-1.3,0.2-2.5,0.7-3.7c0.2-0.4,0.3-0.9,0.3-1.3c0.1-2.7,0.1-5.4,0.3-8c0.2-2.4-1.2-4.2-2-6.2
		c-0.2-0.4-0.6-0.7-1-0.9c-1.1-0.5-1.8-0.2-2,0.9c0.4,0.3,1.1,0.6,1.2,1c0.5,1.3,1.1,2.6,1.2,4c0.4,3.7-0.1,7.4-0.7,11.1
		c-0.6,3.6-1.1,7.2-1.7,10.8c-0.4,2.2-1.3,3.9-3.9,4c-0.2,0-0.5,0.1-0.7,0.2c-2.7,1.2-5.3,2.4-7.9,3.7c-2.7,1.4-5.5,2.3-8.4,2.8
		c-3.2,0.5-5.8,2.1-7.3,5.1c-1.1,2.3-2,4.7-2,7.3c-0.1,2.4,0.1,4.8,0.2,7.3c1.4,0,2.6-0.1,3.8,0c1.2,0.1,2.4,0.6,3.7,0.8
		c3.1,0.6,6.2,0.7,9.2,1.9c4.1,1.7,5.5,2.5,5.5,7.7c0,3.9-0.8,7.7-2,11.4c-0.3,1-0.4,2-0.4,3c0,1.2,0.8,2.2,1.8,2.2
		c1.3-0.1,2.3,0.4,3.3,1c1.9,1.3,3.5,1,4.7-1c0.7-1.2,1.7-1.8,3.1-1.8c0.9,0,1.8-0.2,2.6-0.6c1.2-0.5,1.7-1.7,1.4-3.1
		c-0.2-1-1.1-1.1-2-1.2c-0.3,0-0.5-0.3-0.8-0.4c1.5-0.9,3.7,0.2,3.8,1.7c0.1,2.7-1.5,4.4-4.2,4.4c-1.1,0-2.3,0-2.8,1.2
		c-1.1,2.5-4.4,2.8-6.4,1.5c-0.7-0.4-1.6-0.6-2.4-0.7c-1.8-0.2-3-1.2-2.8-3c0.3-2.5,0.9-5.1,1.3-7.6c0.4-2.5,0.9-4.9,1-7.4
		c0.1-2-0.3-4.2-2.5-5.2c-2.2-1-4.5-1.8-7.1-1.9c-2.2,0-4.3-0.5-6.5-0.8C43.7,78.2,42.1,78,40.2,77.8z M152.1,247.9
		c0.5-0.6,0.8-1,1.1-1.2c3.1-2.3,5.5-5.2,6.7-8.9c1-3.1,2.2-6.2,1.4-9.6c-0.2-0.8-0.2-1.7-0.3-2.5c-0.1-3.9-0.6-7.8-2.2-11.5
		c-0.3-0.6-0.5-1.4-0.5-2.1c0.2-3.5-0.6-6.8-2.1-10c-1-2.1-1-4.3-0.7-6.5c0.3-2.2,0.4-4.4,0.6-6.7c0.1-2,0.2-3.9,0.1-5.9
		c-0.1-1.1-0.5-2.2-0.8-3.2c-0.3-0.9-0.8-1.7-1-2.6c-0.5-2.2-0.9-4.4-1.4-6.6c-0.5-2.2-1-4.5-1.5-6.7c-0.8-3.5-1.4-7.2-2.7-10.5
		c-1.6-4-3.8-7.8-5-12.2c-0.3,0.3-0.6,0.5-0.8,0.7c-1.8,1.6-2.9,1.6-4.8,0.1c-0.6-0.5-1.2-0.8-2.1-1.3c0,0.8,0,1.3,0,1.7
		c0.1,4,0.2,8,0.2,12c0,1.7-0.2,3.5-0.7,5.2c-1,3.5-2.2,7.1-3.6,10.5c-1,2.5-2.3,4.8-3.6,7.2c-1.9,3.5-5,5.8-8.2,8
		c-4.3,3-8.9,5.4-14.2,5.9c-1.7,0.2-3.3,0.7-5,1c2,1.5,4,2.7,5.9,4c0.7,0.5,1.5,1.4,1.7,2.2c0.2,1.2,0,2.5-0.3,3.7
		c-0.1,0.7-0.1,1.1,0.3,1.8c0.5,0.8,0.8,1.7,0.9,2.6c0.4,3.1-0.8,6-1.6,8.9c-1.2,4.1-2,8.1-2.4,12.3c0,0.5,0.1,1.2,0.5,1.5
		c0.9,0.7,2,1.3,3.1,1.8c3.6,1.6,7.2,3.1,10.9,4.6c5.3,2.1,10.5,4.3,15.8,6.3C141.3,244,146.7,245.9,152.1,247.9z M87.1,183.8
		c0.1-0.7,0.2-1.4,0.3-2.2c0.2-0.8,0.5-1.5,0.6-2.3c0.2-1.5,1-2.6,2.1-3.6c2.2-1.9,4.5-1.4,5.8,1.1c0.5,1,0.9,2.1,1.2,3.1
		c0.5,1.8,0.9,3.6,1.1,5.4c0.2,1.1,0.8,1.1,1.5,1c1-0.2,2-0.7,3-0.9c6.2-1.4,12-3.6,16.8-7.8c1.6-1.4,3.4-2.7,4.4-4.8
		c2.2-4.3,3.9-8.9,4.6-13.7c0.5-3.4,1.1-6.7,1.5-10.1c0.2-1.7-0.5-2.1-2-1.5c-5.8,2.2-11.7,3.9-18,4.6c-3.6,0.4-7.2,0.7-10.5,2.1
		c-0.9,0.4-2,0.5-3,0.6c-4.4,0.3-8.7-0.2-13.1-0.9c-1.1-0.2-2.5,0.4-2.8,1.4c-0.6,2.2-1.1,4.4-1.6,6.6c-0.3,1.3-0.4,2.7-0.7,4.1
		c-0.9,3.6-1.9,7.1-2.9,10.6c-0.1,0.5-0.4,0.9-0.7,1.3C79,180,82.4,183.3,87.1,183.8z M76.4,130.1c0-0.1-0.1-0.3-0.1-0.4
		c-0.8,0-1.7-0.1-2.5,0c-2.4,0.2-4.4-0.7-6.4-2c-1.9-1.3-3.8-2.7-5.7-4c-0.9-0.7-1.6-0.5-2.3,0.4c-0.5,0.7-0.8,1.5-1.4,2
		c-1,0.9-1.5,1.7-1.7,3.1c-0.6,4.1-0.9,8.2-0.3,12.3c0.3,2.1,1.2,4.2,1.8,6.5c1.4-1.7,2.6-3.1,3.6-4.6c0.7-1.1,1.5-2.3,1.8-3.5
		c0.7-3.1,2.3-5.4,5.3-6.6c1.3-0.5,2.6-0.9,3.8-1.4C73.8,131.3,75.1,130.7,76.4,130.1z M99.1,191c0.8-0.2,1.4-0.5,2-0.6
		c2.8-0.6,5.6-0.9,8.4-1.6c4.4-1.1,8.1-3.7,11.8-6.3c3.2-2.4,5.7-5.3,7.2-8.9c1.3-3,2.7-5.9,3.9-8.9c1.4-3.5,2.3-7,2.3-10.8
		c0-4.2-0.1-8.5,0-12.7c0.1-2.3-1.7-3.3-3.2-4.9c0,0.9,0,1.5,0,2.1c0,0.4-0.2,0.8-0.2,1.3c0,0.3-0.1,0.7,0,1c0.3,1,0.9,2.1,0.9,3.1
		c0.1,5.4-0.3,10.8-1.7,16c-0.8,3-1.4,6.1-2.5,9c-0.9,2.4-2,4.8-3.5,6.8c-2.3,3.1-5.6,5.2-8.9,7.2c-3.4,2-7.1,3.2-10.9,4.1
		c-1.6,0.4-3.2,0.9-4.8,1.2c-0.9,0.1-1.2,0.5-1.1,1.3C98.8,189.9,98.9,190.4,99.1,191z M50.4,131.2c-1.5-0.5-2,1-3,1.4
		c-0.9,0.4-1.1,1-1.1,1.8c0,0.9,0,1.7,0,2.6c-0.4,5.2-0.9,10.5-1.2,15.7c-0.2,2.7-0.1,5.4,0,8.1c0.1,2-0.2,3.9-0.9,5.8
		c-0.4,1.3-0.8,2.6-1.2,3.9c0.4-0.2,0.6-0.5,0.8-0.8c1-1.6,1.9-3.2,3-4.7c2.2-3.2,4.5-6.2,6.7-9.4c0.2-0.3,0.5-0.8,0.4-1.1
		c-0.9-2.8-1.9-5.5-2.9-8.3c-0.2-0.7-0.6-1.4-0.6-2.1c-0.1-3-0.2-5.9-0.3-8.9C50.2,134,50.4,132.6,50.4,131.2z M128.7,138.1
		c-0.1-0.8-0.2-1.4-0.2-1.9c0.1-0.8-0.4-1.3-0.9-1.7c-0.6-0.4-1.2-0.9-1.9-1.3c-0.2-0.2-0.6-0.2-0.9-0.2c-2.6,0.1-5.1,0.4-7.7,0.2
		c-4.3-0.3-8.4,0.3-12.5,1.6c-1.1,0.4-1.2,0.7-0.6,1.7c0.8,1.2,1.5,2.4,2.3,3.6c0.4,0.5,0.9,1.2,1.4,1.2c1.9,0.1,4.1,0.5,5.8-0.2
		c3.6-1.5,7.2-2.3,11.1-2.4C126,138.7,127.4,138.4,128.7,138.1z M69.1,175.5c0.2-1.2-0.4-2.1-1.7-2.6c-0.4-0.2-0.9-0.5-1.3-0.6
		c-2-0.5-4.1-0.9-5.8,0.9c-1.1,1.2-2.2,2.3-3.4,3.4c-1.1,1-2,2.1-1.7,3.8c0,0.3,0,0.6-0.2,0.8c-1.7,2.7-1.4,5.6-1.1,8.5
		c0,0.5,0.6,1,1,1.5c0.5,0.6,1.3,1.2,1.6,1.9c0.9,2.9,2.9,4.5,5.7,5.7c-0.9-1.7-1-3.2-0.4-4.8c0.1-0.2,0-0.5-0.1-0.6
		c-0.7-1-1.4-2.1-2.3-2.9c-2.4-2.1-1.5-6.8,0.2-8.6c0.3-0.3,0.6-0.9,0.6-1.3c0.1-1.9,0.7-2.6,2.6-3.1c0.2-0.1,0.5-0.3,0.6-0.6
		c0.5-1.2,1.5-1.8,2.7-1.7C67.1,175.1,68.1,175.3,69.1,175.5z M107.6,81.8c1.4-0.2,2.1-0.7,2.3-2.3c0.2-1.6,2.8-3.3,4.3-2.9
		c0.5,0.1,0.8,0.7,1.2,1c-0.4,0.2-0.8,0.6-1.2,0.6c-1.5,0.1-2.5,1-2.7,2.4c-0.2,1.3-0.7,2.3-2,2.5c-0.8,0.1-1.2,0.7-0.8,1.3
		c0.6,1,1.3,2,2.2,2.8c0.2,0.2,1.3-0.6,2-1c0.3-0.2,0.5-0.4,0.8-0.6c1.2-1.2,2.2-2.6,2.4-4.4c0.1-1.2,0.4-2.4,0.5-3.6
		c0.1-1.4,0.5-3,0.2-4.3c-0.9-3.7-2.1-7.4-3.3-11.1c-0.3-0.8-1-1.5-1.6-2.2c-0.2-0.2-0.7-0.3-0.8-0.2c-0.3,0.2-0.5,0.7-0.5,1
		c0.1,1.3,0.5,2.6,0.6,3.9c0.1,1.9,0.1,3.9,0.1,5.8c0,0.8-0.2,1.6-0.4,2.3c-0.1,0.7-0.1,1.5-0.4,2.1
		C108.8,77.1,107.8,79.3,107.6,81.8z M97,190.5c0.1-0.1,0.2-0.1,0.3-0.2c-0.3-2-0.5-4-0.9-5.9c-0.5-2.4-0.6-5-2-7.2
		c-0.7-1.1-1.8-1.5-2.9-0.7c-0.7,0.6-1.5,1.4-1.8,2.2c-0.6,1.7-0.8,3.5-1.1,5.3c-0.1,0.7,0.2,1.1,0.8,1.5c1.7,1.1,3.3,2.2,4.9,3.3
		C95.2,189.5,96.1,190,97,190.5z M113.8,115.8c-0.2-0.8-0.1-1.5-0.4-2c-1.8-3.3-3.2-6.7-4.1-10.2c-0.1-0.4-0.5-0.6-0.8-1
		c-0.3,0.3-0.6,0.5-0.7,0.8c-1.4,3.5-3.3,6.6-5.7,9.4c-0.3,0.3-0.2,0.9-0.3,1.3c0.4,0.1,0.9,0.3,1.3,0.3c1.4,0,2.9-0.2,4.3,0
		C109.4,114.8,111.5,115.3,113.8,115.8z M142.4,139.1c0.3-1.3-0.4-2-1.5-2.5c-0.9-0.4-1.7-1.1-2.6-1.6c-0.8-0.4-1.7-0.7-2.5-0.9
		c-0.7-0.2-1.6,0.1-2.3-0.2c-1.7-0.9-3.3-1.9-4.8-3c-1.2-0.9-2-2.5-3.7-2.8c-0.7-0.1-1-0.1-1.3,0.5c-0.3,0.6-0.2,1,0.4,1.4
		c0.9,0.6,1.8,1.3,2.7,1.9c1,0.7,2.1,1.4,3.2,1.9c1.5,0.7,2.8,1.6,4,2.8c1.6,1.6,3.3,2.9,5,4.3c0.7,0.6,1.4,0.7,2.2,0.3
		C142.2,140.7,142.7,140.1,142.4,139.1z M54.8,128.3c-0.8,0.3-1.4,0.5-2,0.8c-0.2,0.1-0.5,0.4-0.6,0.6c-0.1,0.8-0.2,1.7-0.3,2.5
		c-0.1,2.2-0.2,4.5-0.1,6.7c0.1,2,0.1,4.2,0.6,6.1c0.7,2.5,1.9,4.9,2.9,7.3c1.2-0.9,1.4-1.7,1-3.2c-0.1-0.5-0.3-1-0.5-1.5
		c-1.3-3.7-2.1-7.4-1.8-11.3C54.3,133.7,54.6,131.1,54.8,128.3z M111.2,129.1c-0.9,0.2-1.6,0.4-2.3,0.5c-0.3,0-0.8-0.1-1-0.3
		c-0.1-0.2,0-0.8,0.2-1c0.2-0.3,0.7-0.5,1-0.5c2-0.1,4.1-0.4,6.1-0.2c2.1,0.2,4.2,1,6.4,1.4c0.3,0.1,1-0.3,1.1-0.6
		c0.1-0.3-0.2-0.9-0.5-1.1c-0.9-0.6-1.8-1.1-2.8-1.5c-0.6-0.3-1.3-0.4-2-0.4c-2.1,0.1-4.3,0.2-6.4,0.5c-1.3,0.2-2.7,0.5-3.9,1.1
		c-0.9,0.4-1.5,1.5-2.2,2.2c-1.6,1.5-1.7,1.7-0.8,3.9C108.2,132.6,110.7,131.2,111.2,129.1z M162.8,237.5c-0.2-0.1-0.3-0.1-0.5-0.2
		c-1,4.5-4,7.8-7.4,11c2.8,0.3,5.4,0.6,7.9,0.9C162.8,245.2,162.8,241.4,162.8,237.5z M137.1,127c-0.1,0.1-0.2,0.2-0.3,0.3
		c0.4,0.6,0.9,1.1,1.2,1.8c0.4,0.9,0.9,1.8,0.9,2.7c0.2,2.2,2.8,4.6,5,4.2c1.2-0.2,1.8-1.1,2-2.1c0.2-0.9-0.4-1.4-1.1-1.8
		c-0.6-0.4-1.1-0.8-1.7-1.2C141.3,129.6,139.2,128.3,137.1,127z M66.8,181.7c-1.1-0.8-2-1.6-3.1-2.3c-0.5-0.4-1.2-0.7-1.6,0.1
		c-0.8,1.4-0.2,3.4,1.2,4.2c0.3,0.2,0.7,0.4,1,0.6c1.1,0.6,2.2-0.1,2.3-1.4C66.7,182.6,66.7,182.2,66.8,181.7z M122,131.7
		c0-0.2,0.1-0.4,0.1-0.6c-0.6-0.3-1.2-0.7-1.8-0.9c-1.2-0.3-2.3-0.5-3.5-0.7c-1.5-0.2-2.9-0.4-4.4-0.5c-0.2,0.9-0.4,1.5-0.5,2.2
		C115.3,131.3,118.7,131.5,122,131.7z M68.5,181.2c0.7-0.6,0.6-0.6,0.8-3c0.1-1.1-0.5-1.3-1.3-1.5c-0.7-0.1-1.4-0.1-2,0
		c-0.4,0.1-0.9,0.5-1.1,0.9c-0.1,0.4,0,1.2,0.3,1.5C66.3,179.8,67.5,180.5,68.5,181.2z M64.3,193.3c-0.2,0.2-0.4,0.3-0.5,0.5
		c0.3,0.9,0.4,1.9,0.9,2.7c0.7,1,1.5,2.1,3,1.8c0.4-0.1,0.8-0.5,1.1-0.8c0.1-0.1-0.2-0.6-0.4-0.9c-0.6-0.7-1.2-1.4-1.9-2
		C65.8,194.1,65,193.8,64.3,193.3z M67.1,187.9c-0.9-0.7-1.6-1.2-2.3-1.7c-1-0.6-2-1.1-3-1.8c-1.4-1-1.7-0.9-1.9,0.8
		C62,186.5,63.8,188.9,67.1,187.9z"/>
	<path class="st0" d="M73,117c-3.5,0.1-6.6-0.8-9.4-3.2c-2.2-1.8-4-3.8-5.7-6.1c-0.2-0.3-0.2-0.8-0.2-1.3c0.4,0,0.9-0.1,1.2,0.1
		c1.4,1.1,3,1.1,4.7,1.1c2,0,4,0.1,6,0.2c0.4,0,0.7,0,1.1-0.1c3.8-1.2,7.6-2.4,11.4-3.5c1.3-0.4,2.7-0.8,4.1-1.1
		c0.5-0.1,1.2,0.1,1.7,0.3c0.7,0.2,0.7,0.8,0.3,1.3c-2,2.7-3.8,5.6-6.1,8c-2,2.2-4.7,3.3-7.6,3.9C74,116.8,73.5,116.9,73,117z
		 M59.8,108.6c1.6,2.9,4.2,4.6,6.8,6.3c3,1.9,6.3,1.5,9.5,0.6c2.8-0.8,5.2-2.3,6.9-4.8c1.1-1.6,2.3-3.2,3.5-4.8
		c0.1-0.2,0.1-0.4,0.3-1c-1.1,0.6-2,1-2.7,1.6c-4.2,4.2-9.2,6.1-15.2,5.5c-2.6-0.3-5-0.8-7.1-2.4C61.2,109.1,60.5,108.9,59.8,108.6z
		 M62.3,108.6c2.3,1.8,7.7,2.3,11.3,1.2c4-1.2,8.1-2.6,11.6-5.1c-0.5-0.1-0.9-0.1-1.3,0c-2.4,0.7-4.8,1.4-7.1,2.1
		c-1.5,0.5-3.1,0.7-4.4,1.5c-1.8,1.1-3.7,0.6-5.6,0.6C65.3,108.8,63.8,108.7,62.3,108.6z"/>
	<path class="st0" d="M91.2,71.4c0.1,0.2,0.6,0.6,0.6,0.8c-0.1,0.4-0.5,1-0.8,1.1c-0.9,0.2-1.8,0.3-2.8,0.4c-2.4,0.2-4.8,0.7-7,1.8
		c-1,0.5-2.2,0.8-3.4,1c-2.6,0.4-5.1,1.4-7.3,2.8c-0.4,0.3-1.4,0.4-1.6,0.2c-0.5-0.7,0-1.4,0.6-1.7c2.1-0.9,4.2-1.8,6.4-2.6
		c1.3-0.5,2.7-0.7,3.9-1.3c3-1.3,6.2-2,9.4-2.2C89.8,71.6,90.4,71.5,91.2,71.4z"/>
	<path class="st0" d="M82.3,84c-1.3-0.3-2.7-0.6-4.1-1c-1.1-0.3-2.2-0.5-3.3,0c-0.3,0.1-0.7,0-1.1,0c0.1-0.3,0.2-0.7,0.4-1
		c1-1,2.2-1.3,3.5-0.7c2,0.8,4,1.7,6.1,0.9c1.6-0.6,3-1.6,4.4-2.5c0.8-0.5,1.4-1.1,2.2-1.6c0.2-0.1,0.9,0,1,0.3c0.1,0.2,0,0.9-0.2,1
		c-2.6,1.7-4.8,3.9-8,4.4C83,83.9,82.8,83.9,82.3,84z"/>
	<path class="st0" d="M43.7,81c1.6,0.1,2.1,1.3,2.8,2.2c1.5,2.1,2.9,2.8,5,2.2c1-0.3,1.9-0.7,2.8-1.2c0.7-0.3,1.3-0.7,2-0.9
		c1.5-0.5,1.8-0.3,2.5,1.2c-0.2,0.1-0.4,0.3-0.5,0.3c-1.5-0.5-2.6,0.6-3.8,1.1c-1.8,0.7-3.5,1.1-5.5,1c-1.3-0.1-2.2-0.8-2.9-1.8
		c-0.7-0.9-1.4-1.9-2-2.9C43.9,82,43.8,81.5,43.7,81z"/>
</g>
</svg>
