<?xml version="1.0" encoding="utf-8"?>
<!-- Generator: Adobe Illustrator 19.2.1, SVG Export Plug-In . SVG Version: 6.00 Build 0)  -->
<svg version="1.1" id="Layer_1" xmlns="http://www.w3.org/2000/svg" xmlns:xlink="http://www.w3.org/1999/xlink" x="0px" y="0px"
	 viewBox="0 0 200 301" style="enable-background:new 0 0 200 301;" xml:space="preserve">
<style type="text/css">
	.st0{fill:#FF5722;}
</style>
<g id="hives-lady2">
	<path class="st0" d="M132.4,301c-0.6-2.1-1-4.3-1.7-6.4c-1.3-3.6-2.6-7.1-4.1-10.6c-1.2-2.8-2.7-5.6-4.1-8.3
		c-0.3-0.7-0.9-1.2-1.3-1.8c-0.8-1.4-1.8-2.8-2.3-4.3c-0.3-0.9,0.2-2.2,0.6-3.2c0.3-0.8,0.2-1.4-0.2-2.1c-1.1-2.4-2.1-4.7-3.1-7.1
		c-1.7-4.3-3.9-8.4-6.4-12.3c-0.3-0.5-1.1-0.8-1.6-0.8c-2.7-0.1-5.3,0-8,0c-1,0-2.1-0.1-3-0.5c-3.4-1.5-6.8-2.7-10-4.7
		c-3.9-2.4-8-4.5-12.1-6.5c-2.5-1.2-4.8-2.7-7-4.4c-2-1.5-3-3.8-3.8-6c-0.5-1.2-0.9-2.4-1.4-3.6c-1.1-2.3-0.8-4.6-0.4-7
		c0.3-2.1,1.1-4,2.4-5.7c1.6-2.1,3.6-3.2,6.2-3.6c0.4-0.1,0.9-0.4,1.1-0.8c0.9-1.7,1.7-3.5,2.6-5.4c-0.3-0.2-0.6-0.5-1-0.7
		c-3.1-1.7-5.3-4.2-7.6-6.8c-1.5-1.7-2.4-3.6-3.2-5.4c-1.1-2.5-2-5.2-2-8.1c0-3.6,0.4-7.1,0.9-10.6c0.5-3.8,1.4-7.6,1.4-11.6
		c-0.1-2.7-0.2-5.4-0.7-8.1c-0.2-0.8,0-1.6-0.1-2.5c-0.3-2.7-0.5-5.4-1-8.1c-0.7-3.8-1.6-7.7-2.6-11.4c-0.8-2.8-1.9-5.6-2.8-8.4
		c-0.5-1.5-0.7-3.1-1.2-4.6c-0.4-1.6-0.8-3.2-1.5-4.6c-1.3-2.8-1.1-5.2,0.9-7.8c-1.1-0.3-2.2-0.6-3.3-1c-3.6-1.2-7.3-2.3-10.9-3.7
		c-2.3-0.9-4.4-2.3-6.1-4.2c-2.1-2.3-4.4-4.6-6.5-6.9c-0.2-0.2-0.3-0.4-0.4-0.6c-0.9-2.4-3.1-3-5.1-3.7c-0.9-0.3-1.8-0.6-2.6-1
		c-0.4-0.2-0.6-0.7-0.9-1.1c-1-1.4-1.7-3.2-2.9-4.3c-2.3-2.1-4.3-4.4-6-7c-1.5-2.4-3-4.8-4.5-7.2c-0.3-0.5-0.5-0.8-1.2-0.6
		c-0.2,0.1-0.8-0.2-0.9-0.5c-0.9-2.2-1.8-4.4-2.4-6.6c-0.4-1.2-0.4-2.5-0.1-3.9c0.5-2.3,0.7-4.6,0.8-6.9c0.1-3,0.8-5.8,1.6-8.7
		c0.8-2.5,1.1-5.2,1.7-7.8c0-0.2,0-0.5,0.1-0.7c1.9-3.1,2.7-6.8,5.1-9.7c3.2-3.9,6.9-7.2,11.7-9c3.3-1.3,6.8-2.6,10.5-2.3
		c3.5,0.3,7.1,0.6,10.6,0.9c1,0.1,1.9,0.1,2.9,0.3c1.6,0.2,3.3,0.4,4.9,0.8c1.2,0.3,2.3,1.1,3.5,1.6c0.5,0.3,1.1,0.5,1.6,0.7
		c3.8,1.3,6.5,4,8.8,7.2c1.1,1.5,2.5,2.9,3.7,4.4c0.5,0.6,0.9,1.3,1.3,2c3.7-0.1,6.9,1.2,9.1,4.2c1.3,1.7,2,4,2.6,6.1
		c0.7,2.1,0.8,4.3,1.5,6.4c0.3,1,1.4,1.9,2.2,2.6c3.1,2.6,6.3,5.1,9.4,7.7c2.2,1.9,4.7,3.2,7.5,3.8c1.7,0.3,3.6-0.1,5.4-0.2
		c2.7-0.1,4.9-1.2,7-3.1c3.2-2.9,7.1-3.2,11.2-2.4c0.8,0.2,1.8,0,2.6-0.3c2.1-0.8,4.1-1.9,6.2-2.5c2.2-0.7,4.6-1,6.9-1.3
		c2.3-0.2,4.7-0.1,7.1,0c2.4,0.1,4.7,0.5,7,1.5c2.1,1,4.4,1.6,6.6,2.2c2.2,0.6,4.4,1,6.5,1.7c2.7,1,5.4,2.2,8.1,3.5
		c1.7,0.8,3.3,1.7,4.8,2.6c4.1,2.5,8.2,5,12.3,7.5c2.1,1.2,4.2,2.4,6.2,3.7c0.2,0.1,0.4,0.1,0.5,0.2c0,0.9,0,1.7,0,2.6
		c-2.7-1.6-5.3-3.2-8-4.7c-0.3-0.2-0.7-0.4-1-0.6c-3.2-1.9-6.3-3.8-9.5-5.8c-0.3-0.2-0.6-0.5-1-0.6c-2.7-1.5-5.5-3.1-8.3-4.5
		c-0.9-0.4-2.1-0.2-3-0.8c-1.1-0.7-2.2-1-3.4-1.3c-3.3-1-6.6-1.9-9.7-3.3c-4-1.7-8.1-2.4-12.4-2.2c-1.5,0.1-3.1-0.2-4.6,0.1
		c-3.8,0.7-7.4,2.1-10.8,3.8c-0.4,0.2-0.8,0.6-0.9,1c-0.7,1.8-1.4,3.5-1.9,5.4c-0.9,3.7-1.2,7.5-0.1,11.2c1.5,5.6,3.8,10.9,7.8,15.3
		c1.6,1.8,3.3,3.5,5,5.3c0.9,0.9,1.8,1.8,2.8,2.6c0.5,0.4,0.9,0.9,1.5,1.3c2.5,1.6,5.2,2.8,8.1,3.5c1.6,0.4,3.1,0.7,4.6-0.2
		c-0.7-0.5-1.5-0.9-2.2-1.5c-1.9-1.7-3.7-3.4-5.6-5.2c-0.2-0.2-0.4-0.9-0.3-1.1c0.2-0.3,0.8-0.5,1.1-0.4c0.6,0.2,1.1,0.6,1.5,1
		c3.1,2.9,6.4,5.5,10.2,7.4c2.2,1.1,4.1,2.4,5.4,4.5c0.3,0.6,1,1.1,1.6,1.3c1.7,0.6,3.5,1,5.2,1.4c1.7,0.4,3.4,0.6,5.1,0.9
		c2.1,0.5,4.2,1,6.3,1.6c5.4,1.5,10.8,3,16.1,4.5c0,0.7,0,1.4,0,2.1c-3-0.8-6-1.7-9-2.5c-3.9-1.1-7.7-2.2-11.6-3.2
		c-2,6-3.4,11.7-0.9,23.7c1.4-0.7,2.8-1.3,4-2.1c2.9-1.8,5.7-3.8,8.6-5.6c2.9-1.7,5.9-3.2,8.9-4.8c0,0.8,0,1.6,0,2.4
		c-2.7,1.4-5.5,2.6-8,4.3c-4.4,2.9-8.6,5.9-13.4,8c-4.4,1.9-8.8,3.9-13.3,5.7c-2.4,1-4.8,1.8-7.2,2.6c-1.7,0.6-3.5,1.1-5.3,1.3
		c-2.4,0.2-4.9,0-7.3,0c-1.6,0-3.1-0.1-4.7,0c-3,0.3-6,0.6-8.9,1c-3.1,0.5-6.1,1-8.6,3.3c-1.6,1.5-3.3,3.1-5.3,4
		c-4.8,2.1-9.9,3.8-14.8,5.7c-1.4,0.6-2.9,1.1-4.2,2c-0.4,0.3-0.6,1.3-0.5,2c0.1,1.2-0.1,2.5,1.4,3.2c3,1.3,6.1,1,9.2,0.3
		c1.3-0.3,2.6-0.6,3.9-0.8c0.3,0,0.9,0.4,1,0.7c0.1,0.2-0.3,0.8-0.6,1c-0.9,0.6-1.9,1.1-2.9,1.6c-1.2,0.6-2.3,1.2-3.6,1.8
		c0.2,0.3,0.3,0.5,0.5,0.7c0.4,0.6,1.3,1.2,0.5,1.9c-0.8,0.6-1.2-0.4-1.7-0.9c-0.3-0.3-1-0.7-1.1-0.6c-2,1.4-4,2.8-5.3,4.8
		c0.8,1.1,1.6,2.2,2.2,3c2.6-0.9,5.2-1.8,7.8-2.8c2.6-0.9,5.1-1.8,7.7-2.7c0.6-0.2,1.3-0.4,1.4,0.4c0.1,0.4-0.5,0.9-0.8,1.3
		c-0.3,0.3-0.8,0.3-1.2,0.5c-1.6,0.6-3.2,1.1-5,1.7c0.5,0.6,0.9,1,1.2,1.5c0.1,0.3-0.1,0.8-0.1,1.1c-0.4-0.1-0.9,0-1.1-0.2
		c-0.3-0.3-0.6-0.7-0.8-1.2c-0.3-0.6-0.6-0.8-1.3-0.5c-0.9,0.4-1.8,0.5-2.7,0.8c-1.5,0.6-2.9,1.3-4,1.8c0.4,1.9,0.7,3.5,1,5.2
		c0,0,0.2,0.1,0.5,0c3.5-1.1,7.1-1.9,10.6-3.3c3.3-1.3,6.6-2,10-2.4c0.3,0,0.7,0.3,1.1,0.4c-0.2,0.3-0.3,0.7-0.5,1
		c-0.2,0.2-0.5,0.3-0.7,0.3c-1.4,0.2-2.9,0.2-4.3,0.6c-2,0.5-3.9,1.4-5.8,2c-0.8,0.3-1.7,0.5-2.4,0.7c0.3,1.3,0.5,2.4,0.8,3.7
		c2.7,0.7,5.6,1.3,8.4-0.5c-0.2-0.4-0.5-0.7-0.6-1.1c-0.2-0.5-0.4-1.4-0.2-1.5c0.7-0.5,1,0.2,1.3,0.7c0,0,0,0.1,0.1,0.1
		c1.1,1.4,1.2,1.4,2.9,0.8c2.4-0.8,4.6-2,7.1-2.4c1.7-0.2,3.3-1.2,4.9-1.7c3.7-1.1,7-3.1,10.3-5.1c3.3-1.9,6.1-4.5,8.7-7.3
		c3.1-3.4,6.9-5.8,11.4-7c1.7-0.5,3.3-1.1,5-1.6c4.2-1.2,8.3-2.5,12.5-3.7c2.1-0.6,4.3-1.2,6.4-1.8c2.8-0.7,5.7-1.4,8.5-2.1
		c0,0.8,0,1.6,0,2.4c-0.9,0.2-1.9,0.5-2.8,0.7c-2.4,0.5-4.8,0.7-7.2,1.3c-3,0.8-5.9,1.8-8.9,2.7c-0.9,0.3-1.8,0.6-2.5,0.8
		c-0.1,2.3-0.3,4.4-0.3,6.5c0,4.9,0.1,9.9,0.2,14.8c0,0.3,0.1,0.5,0.1,0.8c0.7,2.8,1.3,5.6,2.2,8.3c1.2,3.6,2.4,7.1,4,10.5
		c1.2,2.7,3,5.2,4.5,7.9c0.9,1.7,1.7,3.5,2.5,5.3c0.4,0.8,0.6,1.7,1.2,2.2c2.1,2.1,4.7,3.8,6.1,6.5c0.2,0.3,0.5,0.5,0.8,0.7
		c0,27.7,0,55.4,0,83.1C177.5,301,154.9,301,132.4,301z M100.9,179.3c-0.1,2.2-0.6,4.2-1.6,6c-1.1,2-2.2,4.1-3.4,6.1
		c-1.9,2.9-4.1,5.7-6.2,8.5c-0.2,0.3-0.8,0.3-1.3,0.4c0.1-0.4,0-0.9,0.2-1.2c1-1.3,2.2-2.5,3-3.9c2.2-3.5,4.4-7.1,6.4-10.7
		c0.8-1.5,1.1-3.3,1.6-4.9c0.1-0.2-0.1-0.6-0.2-0.7c-1.3-1.2-2.4-2.4-2.1-4.4c0-0.2-0.2-0.6-0.4-0.6c-0.2,0-0.6,0.2-0.7,0.4
		c-0.4,0.7-0.8,1.4-1,2.1c-1.3,3.7-3.7,6.7-6.4,9.4c-1.5,1.5-2.9,3-4.4,4.4c-0.3,0.3-0.9,0.6-1.2,0.5c-0.6-0.3-0.6-1-0.2-1.5
		c1.4-1.5,2.9-3,4.4-4.4c2.3-2.1,4.4-4.5,5.6-7.4c1-2.4,2.7-4.5,2.8-7.2c0-0.3,0.1-0.6,0.3-0.8c1.4-1.7,2.7-3.6,4.2-5.2
		c1.4-1.4,3-2.5,4.6-3.7c-0.2-0.1-0.3-0.2-0.5-0.2c-2.3-0.8-2.4-0.8-3.8,1.2c-0.4,0.6-0.8,1.1-1.2,1.6c-1.2,1.7-2.5,3.3-3.7,5
		c-2,2.7-3.8,5.6-6.1,8.2c-3.4,3.8-7,7.3-10.5,10.9c-0.3,0.3-0.8,0.3-1.2,0.4c0-0.5-0.1-1.1,0.2-1.3c1.6-1.8,3.3-3.4,4.9-5.2
		c2.4-2.5,4.8-5,7-7.6c2.8-3.5,5.4-7.3,8.1-10.9c0.7-1,1.4-2.1,2.2-3.3c-2.2-0.3-3.1-1.6-3.5-3.4c-0.7-3.5-0.3-4.6,2.5-5.8
		c3.5-1.5,6.9-2.9,10.4-4.3c2.1-0.8,4.4-1.3,6.4-2.3c1.8-0.9,3.5-2.3,5-3.6c2-1.8,4.1-3.3,6.8-3.7c1.8-0.3,3.5-0.5,5.3-0.9
		c4.8-0.9,9.6-1.1,14.5-0.9c2,0.1,4-0.1,6-0.1c0.7,0,1-0.4,1-1.1c0.1-8.2,0.2-16.5,0.3-24.7c0-1.8,0.6-3.6,0.8-5.4
		c0.2-1,0.3-2,0.4-3.1c-1.6,0-2.9-0.2-4.2,0c-4.3,0.9-8.7,1.9-13,2.8c-4.3,1-8.6,1.9-12.8,2.8c-2,0.4-4,0.8-6.1,1
		c-3.9,0.5-7.8,1.1-11.4,3.1c-0.5,0.3-1.1,0.3-1.7,0.3c-0.2,0-0.4-0.3-0.6-0.4c0.2-0.2,0.4-0.5,0.6-0.6c0.4-0.2,1-0.3,1.4-0.5
		c3.3-1.8,6.8-2.5,10.5-3.1c3.3-0.5,6.7-0.9,10-1.5c4-0.8,8-1.9,12-2.9c4.8-1.2,9.6-2.6,14.6-2.7c0,0,0.1-0.1,0.1-0.2
		c-0.9-0.3-1.7-0.6-2.6-0.7c-3-0.3-5.7-1.5-8.2-2.8c-1.3-0.7-2.5-1-3.9-0.9c-1,0.1-2,0.1-3,0.3c-4.5,0.7-8.9,1.3-13.4,2
		c-5.5,0.9-10.9,1.8-16.1,4c-3.7,1.6-7.3,3.2-10.2,6c-0.4,0.4-0.7,1.3-1.4,0.7c-0.1-0.1,0.3-1.1,0.7-1.5c3.4-3.7,8.1-5.4,12.6-7.2
		c3-1.2,6.3-1.8,9.5-2.5c4.2-0.8,8.5-1.4,12.8-2.1c2.7-0.4,5.3-0.8,8-1.2c-2-1.6-4-3.2-5.9-4.9c-2.8-2.5-5.6-5.1-8.3-7.7
		c-0.6-0.6-1.1-1.3-1.5-2.1c-2.4-3.8-3.6-8-4.5-12.3c-0.7-3.2-0.9-6.4-0.6-9.7c0.3-3.2,1.2-6.2,3.2-8.7c0.5-0.6,0.9-1.3,1.4-2.2
		c-1.1,0-2,0-2.9,0c-0.7,0-1.2,0.1-1.7,0.7c-1.5,2.2-3.1,4.2-4.5,6.4c-1.3,2-2.4,4.1-3.7,6.1c-4.2,6.3-8.7,12.5-12.4,19.2
		c-0.8,1.4-1.6,2.8-2.8,3.9c-2.7,2.8-5.6,5.3-8.5,8c-0.4,0.4-1,0.5-1.3,0.9c-0.6,1-1.1,2.1-1.6,3.1c-1.6,3.9-4.2,7-8.2,8.7
		c-2.7,1.2-5.5,1.1-8.2,0c-2-0.7-4-1.2-6.2-1.9c0,2.3-0.3,4.4,0.1,6.3c1,6-0.1,11.9-0.4,17.9c0,0,0,0.1,0,0.1
		c-0.7,1.3-0.3,2.7,0.1,4c1.3,4.2,1.8,8.5,2.3,12.8c0.1,1.2-0.1,2.4,0.1,3.6c0.6,3,0.8,5.9,0.7,8.9c0,3.9-0.9,7.6-1.4,11.4
		c-0.4,3.3-0.9,6.6-0.9,10c0,2.6,0.8,4.9,1.7,7.2c1.1,2.7,2.6,5.3,4.7,7.5c2.3,2.3,4.9,4.2,7.7,5.6c2.3,1.2,4.8,2.2,6.3,4.3
		c1.4,2,3,2.2,5,1.9c3.3-0.4,6.2,0.4,8.9,2.2c1,0.6,2.2,0.9,3.2,1.2c0.5-4.5,0.7-8.8,1.4-13c0.7-4.1,1.9-8.2,2.9-12.3
		C103.3,179.3,102.2,179.3,100.9,179.3z M110.3,242.8c3.2,4.3,5.7,8.9,7.7,13.7c1.1,2.7,2.5,5.3,3.7,8c0.9,2,1.9,4.1,2.9,6.1
		c0.2,0.3,0.5,0.8,0.8,0.8c0.8,0,1.6-0.1,2.4-0.3c0.8-0.3,1.6-0.9,2.4-1.3c2.6-1.2,4.2-3.4,5.7-5.7c1.3-2.1,2.7-4.1,4.3-6
		c2.7-3.2,5.6-6.2,8.3-9.4c1.3-1.4,2.5-2.9,3.5-4.5c2.7-4.3,6.1-8.1,9.5-11.8c0.7-0.8,1.6-1.4,2.2-2.3c2.4-3.5,5.7-6,9.3-8
		c5-2.9,10-5.7,15.1-8.6c1.5-0.9,1.6-1.1,0.8-2.6c-0.6-1-1.4-1.9-2.1-3c-0.7-1.2-1.8-2-3.1-2.6c-1.4-0.6-2.8-1.4-4.2-2.1
		c-0.4-0.2-0.8-0.4-1.2-0.5c-3.4-0.9-6.7-1.9-9.7-3.8c-4.9-3.1-9.8-6.3-14.7-9.5c-2.8-1.8-5.7-3.4-8.4-5.2c-2.2-1.5-4.6-2.4-7.1-3
		c-3-0.7-6-1.1-9-1.7c-0.2,0-0.4,0-0.6,0.1c-2.8,1-5.6,2-8.3,3c-2.2,0.8-4.4,0.5-6.6-0.1c-0.9-0.2-1.3-0.1-1.8,0.6
		c-0.3,0.5-0.6,0.9-0.8,1.4c-0.5,1.9-0.9,3.8-1.3,5.7c-0.4,2.1-0.8,4.2-1.1,6.3c-0.3,2.6-0.4,5.3-0.6,8c0.7,0,1.4,0,2.1,0
		c1.1,0.1,2.1,1.1,2,2.2c-0.4,3.5-2.4,6.2-6,7c-0.3,0.1-0.7,0.1-1,0.3c-0.2,0.1-0.3,0.4-0.5,0.7c0.2,0.2,0.5,0.4,0.7,0.4
		c0.5,0,0.9-0.2,1.4-0.2c3.4-0.1,6.9-0.3,10.3-0.2c2.2,0.1,4.2,0.9,5.3,3.1c1.1,2.1,0.4,3.7-1.9,4.3c-1.1,0.3-2.2,0.4-3.3,0.6
		c-3.1,0.6-6.2,1.2-9.3,1.7c-2.6,0.4-2.7,0-2.5,2.8c0,0.1,0.1,0.1,0.1,0.1c0.8,0.1,1.5,0.3,2.2,0.3c0.6,0,1.4,0,1.9-0.3
		c1.1-0.6,2.1-1.3,3.2-2c2.1-1.5,4.5-2.1,7.1-1.9c0.6,0,1.6,0.5,1.7,1c0.3,0.8,0.3,1.9,0,2.6c-0.5,0.9-1.5,1.6-2.3,2.3
		c-0.3,0.3-0.5,0.7-0.9,1.2c0.9,0,1.4,0,1.9,0c1.6-0.1,2.3,0.9,2.9,2.1c0.6,1.2,0.3,2.2-0.6,3.1c-0.7,0.7-1.4,1.3-2.1,1.9
		c-2.2,1.9-4.6,3.5-7.4,4.3C112.5,242.5,111.5,242.6,110.3,242.8z M30.6,82.7c-0.1,0.1-0.3,0.2-0.4,0.3c1.7,1.5,3.4,3.1,5.1,4.6
		c1,0.8,2,1.6,3.1,2.3c1.2,0.7,2.5,1.2,3.8,1.7c2.2,0.9,4.5,1.8,6.7,2.6c2,0.7,4,1.2,6,1.8c2.2,0.7,4.3,1.6,6.5,2.2
		c1.9,0.6,4,0.7,5.9,1.3c2.6,0.8,5,1.2,7.8,0.7c2.7-0.5,4.6-2.2,6-4.1c1.7-2.4,3-5.2,3.9-8c1.1-3.3,1.9-6.8,2.3-10.3
		c0.4-3.3,0.2-6.6-0.1-9.9c-0.2-2.2-1.1-4.4-1.6-6.6c-0.7-3.1-2.1-5.8-4-8.3c-0.8-1-1.5-2.1-2.4-3c-0.7-0.8-1.5-1.5-2.3-2.2
		c-0.3-0.3-0.7-0.6-0.7-0.8c0.4-1-0.4-1.3-0.9-1.8c-1.4-1.3-3-2.5-2.2-4.8c0-0.1-0.1-0.2-0.1-0.3c-0.1-1.9-0.7-3.5-2.6-4.3
		c0,0-0.1-0.1-0.1-0.4c0.3-0.1,0.7-0.4,0.9-0.3c1.9,0.7,3.1,2,3.1,4.3c0.4-0.4,0.5-0.6,0.5-0.9c0-0.5-0.1-1.1-0.2-1.6
		c-0.2-2.3,0.6-3,2.9-2.7c0.2,0,0.3,0.1,0.7,0.2c-0.1-0.6-0.1-1.1-0.2-1.5c-0.6-1.8-1.2-3.6-1.8-5.4c-0.6-1.9-2-3.1-3.5-4.3
		c-0.9-0.7-2.3-0.6-2.3,0.3c-0.1,2.2-0.1,4.4-0.1,6.6c0,0.4,0.1,0.8,0,1.2c0,0.2-0.3,0.3-0.5,0.4c-0.1,0-0.3-0.2-0.3-0.4
		c-0.5-2.8-0.8-5.6,0-8.3c0.2-0.8,0.8-1.2,1.8-1.3c1.6,0,4.7,2,5.3,3.7c0.9,2.4,2,4.8,2.6,7.3c0.4,1.8,0,3.7-0.1,5.6
		c0,0.2-0.4,0.5-0.6,0.7c-0.2-0.3-0.4-0.6-0.5-0.9c-0.1-0.4,0-0.9,0.1-1.3c0.2-0.8,0-1.3-0.9-1.4c-1-0.1-1.2,0.4-1.2,1.2
		c0,0.5-0.1,1.1,0.1,1.5c0.7,1.3,0.1,1.8-1,2.4c-1.2,0.6-1.4,1.5-0.5,2.5c0.9,1,2,1.9,3.1,2.8c1.9-1.8,3.7-3.9,2.7-7
		c0-0.1,0-0.3,0-0.5c0.4-3.8-0.7-7.3-1.7-10.9c-0.4-1.6-1.3-3.1-2.2-4.5c-1.1-1.8-3.2-2.4-5-3c-0.7-0.2-1.9-0.2-2.2,0.2
		c-1.3,1.7-2.5,3.4-2.5,5.7c0.1,1.9,0.3,3.7,0.9,5.5c0.8,2.6,0,4.1-2.8,4c-1.3,0-2.3-0.6-3.4-1.3c-3.2-1.9-6.5-3.5-9.8-5
		c-0.7-0.3-1.6-0.2-2.4-0.1c-2.3,0.4-4.6,0.9-6.8,1.5c-2.5,0.6-5,1.2-7.4,1.9c-2.2,0.6-4.4,1.4-6.7,2.1c-3.2,1.1-6.1,2.5-8.2,5.3
		c-0.7,0.9-1.5,1.9-2.4,2.6c-1.5,1.1-2.3,2.6-2.5,4.3c-0.2,1.3-0.9,1.3-1.8,1.1c-0.3-0.1-0.6-0.2-0.9-0.3c-2-0.3-3.9-0.1-4.6,2.1
		c-0.5,1.5-1.3,3-1.8,4.5c-0.2,0.6-0.1,1.5,0.2,2.1c2.3,4.7,5.3,8.8,8.9,12.5c0.7,0.8,1.6,1.4,2.2,2.2c0.9,1.2,1.7,2.4,2.5,3.6
		c1-0.4,1.9-1.1,2.9-1.2c3.9-0.5,7.8-0.8,11.7-1.2c1.7-0.2,2.8,0.7,3.9,1.8c0.4,0.4,0.7,0.8,1.1,1.2c3,3.1,5.4,6.7,7.4,10.5
		c0.8,1.6,1.4,3.3,3.7,3.3c1.5,0,3.9-1.5,3.9-3c0-1.7,0.8-2.7,2.3-3.3c0.4-0.2,0.9-0.4,1.2-0.7c0.3-0.3,0.7-0.8,0.7-1.2
		c0.2-1.6-0.5-2.4-2.1-2.5c-0.3,0-0.7-0.3-1-0.5c0.3-0.2,0.6-0.6,0.9-0.6c1.7-0.2,3,0.6,3.4,2c0.5,1.6,0,3-1.5,3.9
		c-0.5,0.3-0.9,0.6-1.4,0.8c-0.9,0.4-1.4,0.9-1.3,2c0.1,1.2-0.5,2-1.4,2.7c-0.3,0.2-0.6,0.4-0.9,0.7c-2.2,1.8-5.5,1.1-6.8-1.4
		c-1.4-2.5-2.8-5-4.3-7.3c-1-1.5-2.2-2.9-3.4-4.4c-0.1,0-0.2,0.1-0.3,0.1c0.3,2.3-0.3,4.1-2.4,5.3C34.5,82.3,32.9,83.9,30.6,82.7z
		 M115.7,226.1c-1.3,0.9-2.6,1.6-3.8,2.4c-1.2,0.8-2.3,2-3.9,0.9c-0.1-0.1-0.4,0-0.6,0c-1.8,0.2-3.6,0.4-5.5,0.6
		c-1.3,0.2-2.5,0.2-3.3-0.9c-1-1.3-2.2-1.8-3.7-1.9c-1.1-0.1-2.3-0.5-2.6-1.5c-0.8-2.2-2.6-2.3-4.4-2.4c-0.4,0-0.8,0-1.1-0.2
		c-0.4-0.2-0.7-0.5-1.1-0.8c0.5-0.3,0.9-0.8,1.4-0.8c2.6,0.2,5.1,0.6,7.6,1c1.6,0.2,3.3,0.5,4.8,0.8c0-1.1,0-1.9,0-2.8
		c0-0.3,0.4-0.5,0.6-0.7c0.2,0.2,0.7,0.4,0.7,0.6c0,1-0.1,1.9-0.1,3.1c5.3,0,10.6-1.7,15.9-1.9c-0.2-1.1-0.4-1.9-0.4-2.6
		c0-0.8,0.4-1.6,0.6-2.5c-4,0-8.1,0.1-12.1,0c-3.2-0.1-6.4-0.2-9.2-2.2c-0.5-0.3-1.1-0.5-1.6-0.6c-2-0.4-3.6-1.5-5.2-2.7
		c-2.2-1.6-3.8-4.2-6.8-4.6c-0.3,0-0.5-0.6-0.8-0.9c0.3-0.3,0.6-0.7,1-0.7c1.4-0.2,2.6,0.4,3.7,1.2c2.2,1.6,4.3,3.4,6.7,4.8
		c1.7,1,3.6,1.4,5.4,2.2c1.6,0.7,3.1,0.6,4.7,0.3c0.8-0.2,1.5-0.5,2.3-0.6c3.2-0.6,5.4-2.9,5.6-6.2c-3.7,0-7.3,0-11.1,0
		c0,0.5,0.1,1,0,1.4c-0.1,0.3-0.4,0.6-0.7,0.9c-0.2-0.3-0.7-0.7-0.7-0.9c0.3-1.6-0.4-2.5-1.9-2.9c-0.2-0.1-0.4-0.2-0.6-0.4
		c-1.9-1-3.9-2-6.2-1.7c-1.4,0.2-2.7-0.1-4.1,0c-1.9,0.1-3.9-0.2-5.6,0.4c-2.8,1-5.6,1-8.4,0.9c-2.3-0.1-3.9,1-5.2,2.8
		c-1.1,1.5-1.8,3.2-2,5c-0.3,2.1-0.6,4.2,0.6,6.3c0.5,0.9,0.8,1.9,1.2,2.9c0.9,2.6,2.2,5,4.6,6.5c2.7,1.6,5.5,3,8.3,4.5
		c3.4,1.8,6.7,3.7,10.2,5.4c2.9,1.5,5.8,2.8,8.7,4.2c0.4-0.7,0.6-1.2,0.9-1.7c0.1,0,0.2,0,0.4,0c0.2,0.4,0.5,0.7,0.5,1.1
		c0,1,0.5,1.1,1.2,1.1c2.3-0.1,4.5-0.1,6.8-0.2c0.2,0,0.3-0.1,0.4-0.1c1.3-0.3,2.6-0.7,3.8-1c1.5-0.5,3.1-1,4.6-1.6
		c0.2-0.1,0.5-0.7,0.4-1c-0.3-1.1-0.8-2.2-1.2-3.3c-3.1,1-6.2,2.2-9.4,3c-2.9,0.7-5.8,1.2-8.8,0.2c-4.1-1.4-8.1-2.8-11.5-5.5
		c-0.3-0.3-0.4-0.8-0.7-1.2c0.5,0,1.1-0.3,1.4-0.1c1.6,0.8,3,1.9,4.6,2.5c2.4,1.1,4.9,1.9,7.6,2.9c-0.2-1-0.4-1.7-0.5-2.5
		c0-0.3,0.3-0.6,0.5-0.9c0.3,0.2,0.8,0.3,0.8,0.6c0.3,0.8,0.4,1.7,0.7,2.9c1.8-0.2,3.6-0.3,5.4-0.8c2-0.5,3.9-1.3,5.9-1.8
		c2-0.5,3.6-1.4,4.4-3.5C114.8,229.4,115.2,227.8,115.7,226.1z M149.1,171.5c-5.2,2.4-10.2,4.6-15.1,6.9c1,0.2,2.1,0.3,3.1,0.5
		c2.1,0.5,4.4,0.8,6.4,1.7c3.1,1.5,6.1,3.4,9.1,5.3c4.8,3,9.4,6.2,14.2,9.1c2.5,1.5,5,3.3,7.8,4c4.1,1.1,7.7,3.2,11.5,5
		c1,0.5,1.8,1.7,2.7,2.5c0-0.1-0.1-0.3-0.1-0.4c-0.8-1.4-1.7-2.7-2.4-4.1c-1.6-3.1-3.2-6.3-4.8-9.4c-0.1-0.2-0.3-0.5-0.5-0.7
		c-1.7-2-3.5-4-5.1-6.2c-4.2-5.8-9.5-10.6-14.3-15.8c-1.3-1.4-2.6-2.8-3.9-4.2c-0.3-0.3-0.7-0.6-1-0.8c-2.1,1.8-4.1,3.6-6.2,5.4
		c0.2,0.3,0.5,0.7,0.8,1c2.1,2.7,5,4.5,7.8,6.3c3.6,2.2,7,4.7,10.1,7.6c1,0.9,2.2,1.6,3.3,2.4c1.2,0.9,2.4,1.8,3.6,2.7
		c0.5,0.4,1.1,1,0.5,1.7c-0.6,0.7-1.2-0.1-1.7-0.4c-0.1-0.1-0.2-0.3-0.3-0.3c-0.9-0.6-1.7-1.3-2.6-1.9c-0.7-0.5-1.5-0.8-2.2-1.4
		c-3.7-2.8-7.2-5.7-11-8.4C155.2,177.2,151.6,174.9,149.1,171.5z M156.2,133.4c0.4-0.1,0.8-0.2,1.1-0.3c2.6-0.9,5.2-1.8,7.7-2.9
		c3.6-1.4,7.1-3,10.6-4.5c0.3-0.1,0.7-0.5,0.7-0.8c0-0.6-0.1-1.3-0.2-2c-0.3-2.6-0.8-5.2-1-7.9c-0.2-3.3,0.2-6.7,1-10
		c0.4-1.6,0.9-3.2,1.3-4.9c-2.7-0.5-5.5-1-8.2-1.7c-1.6-0.4-3.1-1.1-4.5-1.8c-0.6-0.3-1-0.4-1.7-0.2c-1.8,0.6-3.5,1.2-5.2,1.7
		c-0.3,1.9-0.7,3.9-0.9,6c-0.3,3.3-0.6,6.5-0.7,9.8c-0.1,6,0,11.9,0,17.9C156.2,132.4,156.2,132.8,156.2,133.4z M78.8,47.3
		c7,6.6,9.7,15.1,10.5,24.6c1.2-2.3,1.6-8.8,0.8-10.8c1-0.1,1.3,0.2,1.3,1.7c0,2,0.1,4.1,0,6.1c0,0.7-0.2,1.4-0.4,2
		c-0.4,1-0.9,1.9-1.2,2.9c-0.4,1.7-0.7,3.5-1,5.2c0.5-0.1,0.7-0.3,0.9-0.5c4.1-3.7,7.1-8.3,10-12.9c0.9-1.4,1.6-3.1,2.5-4.5
		c2.3-3.2,4.7-6.3,7-9.5c0.4-0.6,0.7-1.2,1.1-1.9c-1.3,0.1-2.5,0.3-3.7,0.4c-1.8,0.1-3.5,0.2-5.3,0.4c-3.1,0.5-6.1-0.1-8.9-1.1
		c-3.9-1.4-7.6-3.3-10.4-6.6C81,44.4,79.9,45.8,78.8,47.3z M157.5,163.8c7.5,7.6,15.2,14.7,21.5,23.2c0-0.4,0-0.8-0.1-1.2
		c-0.8-3.2-1.6-6.3-2.3-9.5c-0.2-1-0.1-2.1-0.3-3c-0.3-1.3-1-2.4-1.4-3.6c-1.5-4.5-4.4-8.1-7.7-11.4c-0.2-0.2-0.5-0.2-0.8-0.1
		C162.6,158.8,160.3,161.6,157.5,163.8z M162.6,94.8c0-0.1,0-0.2,0-0.3c-0.8-0.4-1.5-1-2.4-1.2c-0.8-0.2-1.8-0.1-2.7-0.2
		c-3.5-0.5-7-0.6-10.3-2c-2.5-1.1-5-2.4-7-4.1c-1.5-1.2-2.7-2.7-4.3-3.9c-0.4-0.3-0.7-0.6-1-1c-1-1.1-2-2.2-2.9-3.4
		c-1.9-2.4-4-4.6-5-7.6c-0.3-0.7-0.5-1.4-0.8-2.1c-2.4-4.4-3.4-9-3-14c0.2-2.7,0.5-5.4,1.8-7.9c0.3-0.7,0.5-1.4,0.8-2.1
		c-0.1-0.1-0.3-0.1-0.4-0.2c-1.1,1.9-2.3,3.7-3.3,5.7c-1.2,2.3-1.1,4.9-1.2,7.3c-0.3,4.3,1.1,8.4,2.3,12.4c1.2,4.2,3.9,7.6,7,10.7
		c1.1,1,2.3,1.9,3.3,2.9c0.8,0.7,1.4,1.6,2.1,2.3c1,0.9,2.2,1.6,3.3,2.4c3.6,2.8,7.5,5,11.9,6.3c2,0.6,4.2,0.7,6.2,1.1
		C159.2,96.5,160.8,95.3,162.6,94.8z M102.1,204.6c1,0,1.6,0,2.3,0c1.7,0,2.3-0.5,2.3-2.2c0-3.1,0.3-6.2,1-9.3c0.8-3.7,0.6-7.6,3-11
		c-1.6-0.9-3.2-1.5-3.8-3.6c-0.4,0.3-0.8,0.7-0.9,1.1c-0.3,1.1-0.3,2.3-0.6,3.4c-1,3.9-2.3,7.8-2.5,11.9
		C102.8,198.1,102.4,201.3,102.1,204.6z M87.8,85.9c1-0.9,2-1.8,3-2.7c2.8-2.4,5.5-4.9,7.2-8.4c0.9-1.8,2-3.6,3.1-5.3
		c3-4.5,6.1-9,9.1-13.5c2-3,3.9-6.1,5.9-9.2c0.3-0.4,0.6-0.8,0.9-1.2c-1.8,1.1-3.5,2-4.5,3.9c-1.1,2.1-2.3,4.1-3.7,6.1
		c-2.6,3.7-5.3,7.2-7.4,11.2c-1.4,2.5-2.9,5-4.7,7.3c-1.8,2.3-3.9,4.3-5.8,6.4C89.4,82,87.4,83.3,87.8,85.9z M59.9,119.2
		c0.1,0,0.2,0,0.3-0.1c0.1-1.2,0.3-2.4,0.3-3.6c0-3-0.2-6.1-0.2-9.1c0-2,0-3.9,0-5.9c0-0.4-0.2-1-0.4-1.1c-1.1-0.5-2.2-0.8-3.3-1.2
		c-0.2-0.1-0.5,0.1-0.7,0.2c-1.3,1-1.9,2.9-1.3,4.5c1,2.5,1.9,5,2.4,7.7c0.5,2.6,1.6,5.1,2.4,7.6C59.6,118.6,59.8,118.9,59.9,119.2z
		 M21.1,75.3c0,0.1,0,0.2,0,0.3c0.2,0.1,0.4,0.3,0.7,0.4c1,0.3,2,0.6,3,1c1.5,0.5,2.6,1.9,4.4,2.1c1.1,0.2,2.1,0.5,3-0.4
		c1.6-1.6,3.1-3.2,4.7-4.9c-1.9-1.5-4.2-1.1-6.1-0.6c-1.7,0.5-3.4,0.7-5.2,1C24.1,74.5,22.6,74.9,21.1,75.3z M176.9,154.7
		c-3,0.8-5.7,1.6-8.8,2.4c3.4,3.5,6.3,6.7,8.1,10.9C176.5,163.7,176.7,159.4,176.9,154.7z M82,200.7c-1.5-1.7-3.2-2.9-5.1-3.7
		c-0.3-0.1-0.8-0.1-0.9,0.1c-0.9,1.7-1.7,3.4-2.6,5.1c0.1,0.1,0.2,0.3,0.3,0.4C76.4,202,79.1,201.4,82,200.7z M116.9,235.1
		c0.2,0.7,0.4,1.5,0.8,2.2c0.1,0.2,0.7,0.3,0.9,0.2c1.1-0.8,2.2-1.7,3.1-2.6c0.7-0.6,0.3-1.8-0.5-2.3
		C119.8,231.8,116.8,232.6,116.9,235.1z M103.8,225.2c-1.8-0.1-3.6-0.2-5.4-0.3c-0.4,1.6,0.5,2.6,1.6,2.9c1.2,0.3,2.6,0,3.9,0
		C103.9,227,103.9,226.1,103.8,225.2C103.9,225.2,103.8,225.2,103.8,225.2z M117.6,225.2c-0.2,1.6-1.2,2.9-0.3,4.6
		c1.1-1.1,2.2-2.1,3.2-3.2c0.6-0.7,0.3-1.4-0.6-1.4C119,225.1,118.3,225.2,117.6,225.2z M102.4,177.5c0.2-1.4,0.3-2.8-1-3.9
		c-0.6,0.3-1.1,0.7-1.7,1c-0.8,0.4-1,1-0.5,1.7C100,177.4,101,177.8,102.4,177.5z M119,220.8c0.9-0.4,2.5-0.2,2.5-1.5
		c0-0.7-0.9-1.6-1.6-2.2c-0.6-0.5-1.2,0.1-1.6,0.6C117.3,219,118,220,119,220.8z M100.6,171.8c-0.3-0.9-0.4-2.1-1.6-2.4
		c-0.9-0.2-1.1,0.8-1.4,1.4c-0.3,0.7-0.2,1.1,0.4,1.6C99.1,173.3,99.8,172.5,100.6,171.8z M111,177.4c-0.1-0.1-0.3-0.1-0.4-0.2
		c-0.6,0.4-1.6,0.9-1.6,1.3c0.1,1.3,1.4,1.4,2.7,1.7C111.4,179.2,111.2,178.3,111,177.4z M37,78.8c0.7-1.4,0.6-2.4-0.2-3.1
		c-0.5,0.6-1,1.2-1.4,1.7C36,77.9,36.4,78.3,37,78.8z M33.1,81.8c0-0.1,0.1-0.2,0.1-0.3c-0.4-0.5-0.7-1-1.2-1.7
		c-0.5,0.3-1.1,0.7-1.7,1.1c0,0.1,0.1,0.2,0.1,0.4C31.3,81.5,32.2,81.6,33.1,81.8z M96.3,225.5c-0.5-1.4-1.1-1.7-2.9-1.4
		C93.9,225,93.9,225,96.3,225.5z"/>
	<path class="st0" d="M123.2,250.5c0,0.6,0.1,1.1,0,1.5c-0.2,0.4-0.6,0.8-0.9,1c-0.2,0.1-0.6-0.5-1-0.7c0,0-0.1-0.1,0-0.1
		c0.1-1.7-1-3-1.5-4.5c-0.1-0.3-0.2-0.6-0.1-0.9c0.1-0.4,0.2-0.8,0.4-1.3c0.4,0.1,1,0.2,1.3,0.5
		C122.8,247.1,123.4,248.7,123.2,250.5z"/>
	<path class="st0" d="M57.9,94.6c-0.1-1.1-0.2-2.1-0.3-3.1c-0.1-0.9,0.5-1.4,1.4-1.7c0.9-0.3,1.3-0.8,1.5-1.7c0.1-0.5,0.4-1,0.8-1.3
		c1.1-0.8,2.2-1.6,3.4-2.2c2-1.2,4-2.3,6-3.4c0.5-0.3,1.1-0.4,1.8-0.6c0.1,0.5,0.2,0.9,0.2,1.3c-0.3,2.6-0.6,5.3-1.2,7.9
		c-0.3,1.3-1,2.6-2,3.6c-1.3,1.5-3,2.8-5.1,2.9c-1.1,0.1-2.5-0.4-3.5-1C59.9,94.6,59.1,94.2,57.9,94.6z M60.3,92.9
		c0,0.2,0,0.4,0,0.6c1,0.5,2,1,3,1.5c0.4,0.2,0.9,0.2,1.2,0.1c2.9-1.2,5.4-2.8,5.9-6.3c0.2-1.5,0.4-3.1,0.6-4.6
		c-0.2-0.1-0.4-0.3-0.6-0.4c-0.3,0.4-0.6,0.8-0.9,1.3c-0.7,1.3-1.1,2.7-1.9,3.9c-1.3,1.9-3.2,3.1-5.6,3.4
		C61.5,92.5,60.9,92.7,60.3,92.9z M58.9,93.4c3.1-4.5,7.1-7.8,11.6-10.6c-0.2-0.1-0.4-0.1-0.6,0c-2.1,1.2-4.3,2.3-6.3,3.6
		c-1.1,0.7-2.4,1.3-2.4,3c0,0.3-0.6,0.8-1,1C58.5,91.2,58.5,91.3,58.9,93.4z M67.8,85.8c-3.3,2.4-5.3,4.4-5.6,5.5
		C65.2,90.5,67.8,87.9,67.8,85.8z"/>
	<path class="st0" d="M54.6,58c0.4-0.5,0.6-0.7,0.7-0.9c0.2-0.4,0.2-0.9,0.5-1.2c0.2-0.3,0.7-0.4,1-0.6c0.1,0.3,0.3,0.7,0.2,1
		c-0.1,1-0.4,2-0.4,3c0.1,2.7-1.3,4.5-3.4,6.1c-1.7,1.3-3.5,1.3-5.5,0.7c-0.6-0.2-1.2-0.1-1.8-0.2c-0.5-0.1-0.9-0.5-1.3-0.7
		c1.5-0.5,2.8-0.7,3.9-1.2c2.9-1.3,4.2-3.8,4.5-6.9c0.1-1.8,0.5-3.5,1.6-4.9c0.3-0.4,0.7-0.6,1.2-0.8c0.1,0,0.6,0.3,0.5,0.5
		c-0.1,0.5-0.2,1-0.5,1.3C54.8,54.5,54.3,55.9,54.6,58z M52.9,63.9c-1.5-0.8-1.8-0.7-3.4,1.3C51,65.6,51.9,64.7,52.9,63.9z"/>
	<path class="st0" d="M38,62c0.2-2.8,0.9-4.9,2.4-6.7c2-2.2,4-4.5,6-6.7c0.5-0.6,1.2-1.1,1.9-1.5c0.4-0.2,1-0.1,1.5-0.1
		c-0.2,0.4-0.2,1-0.5,1.2c-3,2.5-5.3,5.6-7.6,8.7c-1.1,1.4-1.4,3-1.6,4.7c-0.1,0.7-0.3,1.4-1.1,1.2C38.6,62.8,38.2,62.2,38,62z"/>
</g>
</svg>
