<?xml version="1.0" encoding="utf-8"?>
<!-- Generator: Adobe Illustrator 19.2.1, SVG Export Plug-In . SVG Version: 6.00 Build 0)  -->
<svg version="1.1" id="Layer_1" xmlns="http://www.w3.org/2000/svg" xmlns:xlink="http://www.w3.org/1999/xlink" x="0px" y="0px"
	 viewBox="0 0 200 369.8" style="enable-background:new 0 0 200 369.8;" xml:space="preserve">
<style type="text/css">
	.st0{fill:#00BCD4;}
</style>
<g id="insect-bites-lady2">
	<path class="st0" d="M33.4,369.8c0.2-1.8,0.2-3.6,0.6-5.4c1-4.4,1.2-8.9,1.5-13.4c0.2-3.5,0.9-7,1.3-10.4c0.3-2.4,0.5-4.7,0.6-7.1
		c0.1-0.9-0.7-1.1-1.5-1.1c-2.1,0-4.3,0.2-6.4-0.1c-1.8-0.2-3.6-0.7-5.2-1.6c-5.9-3.3-11.6-6.8-17.3-10.4c-2.5-1.6-5.1-3.3-6-6.3
		c-0.6-2-1-4.2-0.9-6.3c0.1-6.2,0.2-12.4,0.7-18.6c0.3-3.9,1.1-7.8,1.8-11.7c0.8-4.1,1.6-8.3,2.6-12.4c0.7-2.9,1.7-5.7,2.4-8.6
		c1.7-7.3,3.2-14.6,4.9-21.9c1-4.5,2.3-9,3.3-13.5c0.9-4.1,1.5-8.3,2.3-12.5c0.7-3.4,1.6-6.8,2.3-10.2c1-5.3,1.8-10.6,3-15.8
		c2.1-9.5,6-18.2,12-25.9c1.7-2.2,4-3.9,6.2-6c-0.2-3.3-2.2-6.2-4.3-9c-3.2-4.4-4.9-9.5-6.7-14.5c-1.2-3.3-2.1-6.8-3.2-10.1
		c-1-3-2.4-5.9-3.2-8.9c-1.5-5.7-3.3-11.3-3.4-17.2c-0.1-3.5-0.5-7-0.5-10.4c0.1-4,0.4-8,0.9-12c0.6-4.8,1.2-9.7,2.3-14.5
		c0.9-4,2.7-7.6,5.5-10.8c1.7-2,2.8-4.5,4.2-6.8c2.4-4,4.6-8.2,7.5-11.8c2.1-2.6,5.3-4.3,7.8-6.7c3.4-3.1,6.5-6.4,9.8-9.6
		c0.9-0.9,1.9-1.8,3-2.4c4.6-2.9,9.6-4.3,15.1-4.4c4.1-0.1,7.8,1.1,11.6,2c3.1,0.8,6,0.3,8.7-1.1c3.8-2.1,7.8-3,12-2.5
		c2.8,0.4,5.1,1.9,7.4,3.4c3.2,2.1,5.5,5,7.5,8.3c1.4,2.4,3.3,4.5,5,6.8c2.2,3.1,4.4,6.2,6.5,9.4c1.7,2.6,3.1,5.5,4.6,8.2
		c0.9,1.6,1.9,3.1,2.8,4.6c3.6,5.8,5.8,12.2,7.7,18.7c1.2,4.2,2.7,8.4,4.1,12.5c0.9,2.8,1.9,5.5,2.8,8.3c0.3,1,0.4,2.1,0.5,3.2
		c0.3,2.7,0.6,5.4,0.8,8.1c0.3,3.1,0.2,6.2-1.3,9.1c-2.3,4.4-3.1,9.2-4.1,14c-0.8,3.6-1.6,7.2-2.6,10.7c-0.5,1.6-1.5,2.9-2.2,4.5
		c-2,4.9-3.9,9.9-5.8,14.8c-0.7,1.7-1.6,3.3-2.2,5c-0.8,2-0.9,2.6,1,3.8c5,3.3,9.9,6.6,15.1,9.5c4.1,2.4,8.5,4.3,12.7,6.3
		c2.2,1.1,4.2,2.3,5.9,4.2c3.7,4,7.6,7.8,11.5,11.6c1.8,1.9,3.7,3.7,5.5,5.6c3.1,3.4,4.5,7.6,4.6,12.2c0,1.1,0.4,2.1,0.7,3.2
		c0.3,1.4,0.9,2.7,1,4.1c0.4,4.8,0.5,9.6,0.9,14.4c0.2,2.2,0.9,4.3,1.1,6.4c0.2,2.6,0,5.3,0,8c0,6.7-0.1,13.5,0,20.2
		c0.1,3-0.5,5.9-1.2,8.7c-1,4.6-1.7,9.2-2.9,13.7c-1.9,7-4.3,13.8-6.2,20.8c-1.3,4.8-2.2,9.7-3.2,14.5c-0.5,2.6-0.8,5.2-1.1,7.8
		c-0.1,1.3,0.3,2.6,0.1,3.8c-0.3,3.4-0.8,6.8-1.2,10.1c-0.1,0.6-0.1,1.2-0.1,1.9c0,9.7,0,19.4,0,29.1c-16.6,0-33.1,0-49.7,0
		c1.6-2.6,3.1-5.1,4.7-7.7c2.9-4.7,5.9-9.4,8.5-14.2c3.2-5.8,6-11.8,9-17.7c3.4-6.6,6.8-13.1,10.1-19.7c2.9-5.7,5.6-11.5,8.5-17.2
		c1.1-2.2,2.6-4.2,3.5-6.4c4-9.9,7.8-19.8,11.7-29.7c0.3-0.7,0.5-1.4,0.9-1.9c0.3-0.4,1-0.4,1.5-0.7c0.2,0.5,0.6,1.1,0.5,1.6
		c-0.5,1.7-1.1,3.4-1.7,5.1c-1.3,3.6-2.5,7.1-3.9,10.9c0.7-0.3,1.3-0.5,1.8-0.7c4.9-1.9,7.4-5.5,7.4-10.8c0-8.3,0-16.7,0-25
		c0-2-0.1-4-0.3-6c-0.3-2.9-0.9-5.8-1.2-8.8c-0.5-6-0.7-12-2-18c-1.1-5.6-3.4-10.3-7.5-14.2c-4.1-3.9-8.1-7.8-12.2-11.7
		c-0.6-0.6-1.3-1.3-2.1-1.6c-1.6-0.6-3.2-1.1-4.9-1.3c-1-0.2-2.1-0.1-3,0.3c-3.1,1.1-5.3,3.5-7.2,6c-2.4,3.1-5,5.8-8.2,7.9
		c-2.9,1.8-5.1,4.1-6.6,7.1c-2.2,4.3-4.5,8.5-6.2,12.9c-2.1,5.7-2.3,11.8-3,17.8c-0.1,1.3,0,2.7,0,4.3c1.2-2.5,2.3-4.7,3.5-6.8
		c0.4-0.8,1-1.5,1.8-2c0.4-0.3,1.2,0,1.8,0c-0.1,0.6,0,1.3-0.3,1.8c-1.4,3.2-3,6.3-4.4,9.5c-0.8,1.8-1.2,3.7-2.1,5.4
		c-1.2,2.4-2.1,4.8-2.3,7.5c-0.4,7.1-1.9,14-3.7,20.8c-1.5,5.4-3.5,10.7-5.2,16.1c-1.7,5.2-3.3,10.5-6.1,15.3
		c-0.8,1.3-1.4,2.7-2,4.1c-0.1,0.3-0.1,0.9,0.1,1.1c2.5,3.3,2.5,6.7,0.1,10.2c-0.2,0.2-0.3,0.6-0.2,0.9c1.2,3.1-0.4,5.4-2.2,7.7
		c-1.3,1.6-2.8,2.2-4.8,1.9c-0.4-0.1-1.1,0.3-1.2,0.6c-1.1,2.3-2.3,4.6-3.2,7c-2.2,5.7-4.1,11.5-6.7,17c-3.5,7.4-7.4,14.7-12.6,21.2
		C66.5,369.8,49.9,369.8,33.4,369.8z M105.3,41.2c-0.7,0.1-1.5,0-2.1,0.2c-3.2,1.1-6.5,2.2-9.2,4.3c-2.6,2-5.1,4.1-7,7
		c-1.6,2.5-3.8,4.6-6,6.6c-1.3,1.2-3.2,1.7-4.7,2.6c-5,2.8-9.7,6.1-15.2,8.1c-3.6,1.3-7.2,2.7-10.7,4C50,74,49.7,74,49.5,74
		c-1.9,0.2-3.9,0.4-5.8,0.5c-1.2,0.1-1.7,0.8-1.6,1.9c0.1,1,0.3,2.1,0.6,3c1.2,4.1,0.8,8.3,0.9,12.5c0,1.8-0.2,3.6,0.1,5.3
		c0.8,3.7,1.7,7.4,2.9,11c2.4,6.9,5.1,13.6,7.7,20.4c1.6,4.2,3.8,8.1,6.8,11.5c2.3,2.6,4.3,5.5,6.6,8c1.8,2,3.7,4.2,6.6,4.8
		c1.5,0.3,3,0.4,4.5,0.4c2.4,0.1,4.9,0.2,7.3-0.1c3.7-0.4,7.1-1.7,10.4-3.3c4.2-2.1,8.3-4.4,11.7-7.7c3.5-3.5,6.8-7.1,10.4-10.4
		c3.1-2.9,4.8-6.5,5.6-10.5c1-5.1,2.4-10.2,2.1-15.5c-0.1-1.6,1.1-2.5,2.7-2.3c0.5,0.1,0.9,0.4,1.4,0.4c0.6,0,1.3-0.1,1.9-0.1
		c-0.1-0.5-0.2-1-0.3-1.5c-0.2-0.7-0.7-1.4-0.8-2.1c-0.1-0.3,0.3-1,0.7-1.1c0.3-0.1,1,0.2,1.2,0.5c0.7,1,1.2,2.1,1.7,3.3
		c0.6,1.5,0.2,2.6-1.3,3.1c-1.4,0.5-2.9,0.4-4.5,0.6c-0.1,1.6,0.7,3,2.2,3.5c2.9,1.1,5.3-0.6,5.2-3.8c-0.1-2.8-0.4-5.7-0.9-8.5
		c-0.4-2.3-1.7-4.3-3.6-5.6c-1.6-1.1-3-0.5-3.3,1.4c-0.1,0.5-0.1,1.1-0.3,1.5c-0.2,0.5-0.7,0.8-1,1.2c-0.3-0.4-0.8-0.7-1-1.2
		c-0.2-0.5-0.1-1-0.2-1.5c-0.2-2.9-0.4-5.9-0.6-8.8c-0.1-1-0.1-2-0.2-3c-0.2-1.5-0.2-2.9-0.5-4.4c-0.5-2.6-2.8-3.8-4.5-5.3
		c-2.8-2.4-3.7-5.3-2.6-8.7c1.1-3.3,1.2-6.7-0.2-10c-1.7-4-3.9-7.8-6.8-11.2c-1.4-1.6-1.3-3.5-1.1-5.5c0.2-2.2,0.4-4.6-0.4-6.5
		c-1-2.6-2.9-5-5.4-6.7c-3.5-2.4-6.9-4.9-10.3-7.3c-1.5-1.1-2.7-2.4-2.3-4.4c0.5-2.7,0.5-2.7-2-3.1c-0.1,0-0.2,0.1-0.2,0.1
		c-0.3,0.8-0.5,1.6-0.7,2.3c-0.6,1.5-0.4,3,0.7,4.1c1.7,1.7,3.4,3.4,5.4,4.8c3.8,2.8,7.6,5.6,10.3,9.6c0.6,0.9,1.1,1.8,1.4,2.8
		C106.7,35.3,106.2,38.2,105.3,41.2z M73,165.3c-0.2,0-0.4,0.1-0.6,0.1c-0.4,1.3-0.9,2.6-1.2,3.9c-1,3.8-1.9,7.6-2.9,11.4
		c-0.9,3.9-2.1,7.7-2.2,11.9c-0.1,6.7,1,13.1,2,19.7c0.4,2.8,1,5.5,1.2,8.3c0.6,5.4,1,10.8,1.4,16.2c0.4,4.7,2.2,9,3.9,13.3
		c1.4,3.6,3.2,7,4.6,10.5c0.9,2.1,1.1,2.2,3,0.9c2.8-2,5.6-4,8.5-5.8c3.4-2.1,5.9-4.8,7.1-8.6c0.3-1.1,0.6-2.2,1.2-3.2
		c2.8-5.2,4.6-10.9,6.2-16.6c1.4-5,3.6-9.4,6.6-13.6c4.2-5.8,8.1-11.7,12.1-17.5c1.9-2.8,3.6-5.9,5.9-8.4c3-3.4,5.5-7.1,7.6-11.1
		c1.8-3.4,3.8-6.7,5.8-10c1.2-2,2.5-4,4-6.3c-3.8-2.5-7.5-4.9-11.3-7.3c-0.9-0.6-1.9-1.2-2.8-1.9c-1.9-1.7-3.8-3.4-5.7-5.1
		c-0.8-0.7-2-1.3-2.3-2.2c-1.3-3.3-2.3-6.8-3.4-10.2c-0.1-0.4-0.2-0.8-0.4-1.4c-0.6,0.4-1,0.7-1.3,1c-3.2,3.2-6.5,6.5-9.7,9.7
		c-0.9,0.9-1.7,1.8-2.7,2.6c-4,3.2-8.4,5.7-13.2,7.6c-3.6,1.5-7.3,2.6-11.3,2.5c-3.7-0.1-7.5-0.3-11.2-0.4c0.4,1.4,0.6,3.1,1.3,4.6
		c2,4.7,4.3,9.2,6.1,13.9c2.6,6.6,5.2,13.2,6,20.3c0.1,1.2,0.6,2.5-0.8,3.9c-0.5-1.3-1.1-2.2-1.4-3.3c-0.3-1.3-0.1-2.7-0.4-4
		c-0.9-3.4-1.9-6.8-3.2-10.1C77.7,175.3,75.3,170.3,73,165.3z M92.8,290.7c-5.7-4.3-11.9-7.4-18.4-10.3c-2.5-1.1-5.6-0.4-7.4,1.7
		c-1.6,1.9-3.2,3.7-5,5.3c-1.3,1.2-2.9,2.3-4.6,2.7c-3.3,0.8-6.8,1.2-10.2,1.7c-2.9,0.4-5.9,0.7-8.4-1.6c-1.1-1-2.2-2-3.2-3.1
		c-1.1-1.1-2.3-1.7-3.8-1.6c-2.6,0.1-5.2,0.2-7.9,0.2c-3.3,0-6.6,0-9.9-0.2c-4.1-0.2-7.3,1.8-10.3,4.2c-0.3,0.3-0.5,0.9-0.5,1.4
		c-0.1,5.9,0.1,11.9-0.1,17.8c-0.1,3.9,1.6,6.6,4.6,8.5c5.7,3.6,11.6,7,17.5,10.4c4.3,2.4,9.1,2.3,13.7,1.2c3-0.7,5.8-2.1,8.7-3.2
		c1.2-0.5,1.1-1,0.3-2c-2.4-3.1-4-6.6-4.2-10.5c0-0.4,0.4-0.9,0.7-1.3c0.3,0.4,0.8,0.7,1,1.2c0.6,1.8,1.1,3.6,1.7,5.4
		c0.7,2,2.1,3.6,3.5,5.2c1.9,2.2,3.3,2.7,6,1.6c0.8-0.3,1.8-0.5,2.5-0.2c2.8,1,5.4,2.5,8.2,3.4c3.4,1.1,7,1.8,10.7,1
		c2.1-0.5,4-1.5,5.4-3.2c0.4-0.4,0.1-1.4,0.1-2.1c-0.5,0.2-1,0.3-1.4,0.5c-2.3,1.5-4.6,2.3-7.3,0.6c-1.1-0.7-2.3-1-3.5-1.5
		c-3.4-1.5-6.4-3.4-8.5-6.5c-0.3-0.5-0.3-1.2-0.4-1.8c0.5,0.2,1.2,0.3,1.6,0.7c1,0.9,1.8,2.1,2.9,3c2.5,2.2,5.7,3.1,8.6,4.6
		c2,1.1,3.7,0.7,5.3-0.5c0.8-0.6,1.5-1.5,2.1-2.3c1.3-1.6,1.2-2.5-0.3-4c-3.5-3.5-7-7-10.5-10.5c-1.4-1.4-2.9-2.5-4.8-2.9
		c-0.7-0.2-1.4-0.4-2-0.8c-0.4-0.2-0.6-0.7-0.9-1c0.4-0.1,0.9-0.5,1.2-0.4c1.9,0.6,3.9,1.1,5.5,2.2c1.7,1.2,3.3,2.2,5.2,3.1
		c2.9,1.3,5.7,2.9,8.6,4.2c3.1,1.4,6.3,2.5,9.3,4c4.1,2,8.5,3.5,12.1,6.6c-0.8-1.1-1.5-2.3-2.4-3.2c-1-1-0.9-2.1-0.5-3.1
		c0.5-1.1,1.4-1.9,2.7-1.7c0.9,0.1,1.9,0.3,2.8,0.5c0.9,0.2,1.7,0.6,2.6,0.9c0.1-0.1,0.1-0.2,0.2-0.3c-8.1-5-15.5-11.1-24-15.7
		c-0.7,1-1.2,1.8-1.8,2.6c-0.3,0.4-0.8,0.6-1.3,1c0-0.6-0.2-1.2,0-1.7c0.4-0.8,1-1.6,1.5-2.4c-0.2-0.2-0.4-0.3-0.5-0.4
		c-3.4-1.4-6.7-2.9-10.4-3.3c-0.4,0-0.8-0.3-1.1-0.6c-0.6-0.4-1.1-1-1.8-1.4c-1.5-0.8-3.1-1.5-4.6-2.3c-0.3-0.1-0.3-0.7-0.4-1.1
		c0.4,0,0.9-0.2,1.3-0.1c0.9,0.4,1.8,0.9,2.7,1.3c3.6,1.4,7.3,2.8,11,4.2c4.4,1.7,8.7,3.6,12.5,6.3c3.2,2.3,6.5,4.4,9.7,6.7
		c1.6-3.3,4.6-3.8,7.2-1.2c0.6,0.6,1.2,1.2,1.9,1.8c0.5-2.9-1.6-4.2-3.3-5.4c-5.3-3.8-10.8-7.5-16.4-11.3c-0.4,0.6-0.9,1.3-1.4,1.8
		c-0.3,0.3-0.8,0.5-1.2,0.7c0-0.5-0.3-1-0.1-1.4C91.7,292.1,92.3,291.5,92.8,290.7z M67.3,150.3c-0.7-0.2-1.2-0.6-1.6-0.5
		c-2.9,0.4-5.7,0.9-8.6,1.2c-3.8,0.4-7.7,0.4-11.4,1.8c-3.2,1.2-6.4,2.5-8.4,5.6c-1.5,2.2-3,4.4-4.5,6.6c-4.1,6.2-5.8,13.4-7.5,20.5
		c-1.3,5.4-1.9,11.1-3,16.5c-1.5,7.5-3.1,15.1-4.8,22.6c-1.2,5.2-2.6,10.4-3.8,15.6c-1.4,6.1-2.5,12.3-3.9,18.4
		c-1.5,6.4-3.3,12.8-4.8,19.2c-0.7,2.9-1.7,5.7-1.3,8.9c4-3.2,8.6-3.5,13.3-3.5c4.3,0,8.5-0.2,12.8-0.3c0.4,0,1-0.3,1.1-0.6
		c0.2-0.3,0-1-0.2-1.3c-1.5-1.7-2-3.8-2-6c0-4.4,0.3-8.8,1.3-13.2c1.4-5.8,2.8-11.5,5.4-16.9c0.8-1.7,1.1-3.7,1.2-5.6
		c0.1-3.4-0.1-6.8-0.2-10.2c0-0.2,0-0.5-0.1-0.7c-1.1-5.6-1.4-11.2,0.3-16.8c1.1-3.6,2.3-7,4.3-10.2c1.5-2.3,3-4.5,4.2-7
		c1.7-3.4,3.1-7,4.7-10.5c1.2-2.7,2.5-5.3,3.9-7.9c1.7-3.4,3.5-6.7,5.1-10.1C61.4,160.7,63.3,155.1,67.3,150.3z M112.4,317
		c-0.7-0.3-1.2-0.7-1.8-0.8c-1.5-0.4-3-1-4.5-1.1c-1.1-0.1-1.9,1.2-1.3,2.1c1.3,1.7,2.7,3.3,4.2,5
		C110.7,320.5,111.9,318.9,112.4,317z M113.6,310.3c-1.1-1.1-2-2.2-3.1-3c-0.6-0.5-1.6-0.9-2.3-0.9c-0.6,0-1.5,0.7-1.8,1.3
		c-0.4,0.8,0,1.5,0.9,2c1.1,0.6,2,1.4,3,2.1c1.9,1.2,2.3,1.1,3.2-1.2C113.6,310.4,113.6,310.2,113.6,310.3z"/>
	<path class="st0" d="M118.4,318.9c0,0.9-0.1,1.8-1.5,1.8c-1.6,0-2.3-0.5-2.3-1.9c0-1.5,0.5-2,1.8-2.1
		C117.9,316.8,118.4,317.3,118.4,318.9z"/>
	<path class="st0" d="M124.1,315.8c0,0.9-0.1,1.8-1.3,1.8c-1.1,0-2-1.1-2-2.4c0-0.9,0.2-1.7,1.3-1.6
		C123.5,313.6,124.1,314.3,124.1,315.8z"/>
	<path class="st0" d="M117.8,310.6c1.2,0.1,1.7,0.7,1.7,1.8c0,1.1-0.4,1.9-1.6,1.8c-1,0-1.6-0.5-1.5-1.5
		C116.5,311.7,116.5,310.6,117.8,310.6z"/>
	<path class="st0" d="M72.2,98c-0.1,4.2-0.3,8.5-2.3,12.5c-0.1,0.2-0.1,0.4-0.2,0.5c-1.1,3-1,3,1.6,4.7c0.9,0.6,1.7,1.3,2.5,2.1
		c1.3,1.2,4.5,1.4,5.7-0.1c1.9-2.3,4.2-3.9,6.8-5.3c1.3-0.8,0.7-1.9,0.1-2.7c-0.5-0.8-1.4-1.5-2-2.2c-0.2-0.3-0.3-0.7-0.4-1
		c0.4,0,0.9-0.2,1.1-0.1c1.7,1.2,3.2,2.6,3.3,4.9c0,0.7-0.4,1.6-0.9,2c-2.6,1.9-5.2,3.9-7.7,6.1c-2,1.9-5.6,1.1-7.6-0.9
		c-0.9-0.9-2.1-1.6-3.3-2.3c-1.5-0.9-1.8-1.6-1.4-3.3c0.2-0.7,0.3-1.5,0.6-2.2c2.3-4.1,2.2-8.6,2.2-13c0-1.4-0.1-2.9,0-4.3
		c0.2-2-0.6-3.6-1.5-5.3c-1.1-2.2-3.3-2.6-5.3-3.1c-5.3-1.4-10.5-0.7-15.7,0.5c-0.8,0.2-1.9,0.2-2.1-0.8c-0.1-0.6,0.3-1.5,0.8-2
		c1.2-1.2,2.9-1.6,4.6-1.7c4.8-0.3,9.5,0.4,14.1,2.2c3.8,1.6,6.6,5.4,6.7,9.5C71.9,94.4,72.1,96.2,72.2,98z"/>
	<path class="st0" d="M78.3,135.4c-3.6,0.4-6.9-0.6-9.6-3.4c-0.9-1-2.1-1.7-3.1-2.5c-1.4-1.2-1.3-2.2,0.2-2.8
		c2.4-0.9,4.9-1.6,7.5-2.1c0.9-0.2,2,0.4,3,0.5c0.8,0.1,1.7,0.1,2.5,0c1.7-0.3,3.3-1.1,4.9-1.1c3.9,0.1,7.9,0.5,11.8,0.8
		c0.5,0,1.1,0.5,1.6,0.8c-0.3,0.4-0.7,0.9-1.1,1.3c-2.3,2.8-5.4,4.5-8.6,5.9C84.6,134.2,81.8,135.9,78.3,135.4z M93.3,127.4
		c-0.7,0.1-1,0-1.3,0.1c-2.4,0.6-4.7,1.2-7.1,1.7c-2.6,0.6-5.1,1.7-7.9,1.3c-2.2-0.3-4.3-0.4-6.5-0.7c-0.8-0.1-1.6-0.4-2.4-0.6
		c0.2,0.4,0.4,0.5,0.7,0.7c2.3,1.6,4,4.1,7.2,3.9c2.1-0.1,4.3,0.3,6.2-0.4c3.3-1.2,6.5-3.1,9.6-4.7C92.2,128.5,92.6,128,93.3,127.4z
		 M67.9,127.6c8.3,3,15.9,0.7,23.6-2c-2.8-0.2-5.5-0.3-8.3-0.2c-1.2,0.1-2.5,0.4-3.6,0.9c-1.3,0.6-2.5,0.5-3.9,0.1
		c-1-0.3-2.2-0.4-3.2-0.2C71,126.5,69.6,127.1,67.9,127.6z"/>
	<path class="st0" d="M81.6,83.5c1-0.2,2-0.3,3-0.5c5.1-1.2,10.3-2.6,15.4-3.7c3.9-0.8,7.8,0,11.3,2c0.4,0.2,0.7,1,0.7,1.5
		c0,0.3-0.9,0.7-1.3,0.7c-1,0-2-0.3-3-0.3c-6.6-0.5-13.2,0.3-19.7,1.5c-1.6,0.3-3.2,0.6-4.8,0.6c-0.6,0-1.1-0.7-1.7-1
		C81.5,84,81.6,83.8,81.6,83.5z"/>
	<path class="st0" d="M85.2,91.1c3.2-2.1,5.5-5.6,9.5-6.3c3.8-0.7,7.6-0.4,11,1.6c0.7,0.4,1.2,1.3,1.7,1.9c-0.8,0.3-1.6,0.7-2.4,0.8
		c-2,0.4-4,0.6-5.9,1.2c-2.7,0.8-5.3,0.4-8,0.4c-1.2,0-2.4,0.3-3.6,0.6C86.8,91.5,86,92.3,85.2,91.1z M105.3,88.2c0-0.2,0-0.3,0-0.5
		c-1.3-1-2.8-0.8-4.4-0.8c0,0.5,0,0.9,0,1.5C102.5,88.3,103.9,88.2,105.3,88.2z M90,89.1c0,0.1,0.1,0.2,0.1,0.3c1.1,0,2.2,0,3.3,0
		c-0.1-0.8-0.3-1.5-0.4-2.4C92,87.7,91,88.4,90,89.1z"/>
	<path class="st0" d="M66.5,92.6c-2.4,0.1-4.5,0.2-6.6,0.3c-2.4,0.2-4.6-0.6-6.8-1.2c-1.1-0.3-2.3-0.3-3.5-0.5
		c-0.4-0.1-0.9-0.2-1.3-0.3c0.2-0.5,0.3-1.3,0.6-1.5c0.9-0.6,1.8-1,2.8-1.2c2.1-0.6,4.2-1.2,6.4-1.4c1.6-0.1,3.4,0.3,5,0.7
		c1.4,0.4,2.6,1,3.9,1.6c0.4,0.2,0.9,0.5,1.1,0.8c0.4,0.7,0.5,1.5,0.8,2.3c-0.7,0.1-1.3,0.3-2,0.4C66.7,92.7,66.4,92.6,66.5,92.6z
		 M55.4,88.4c-1.3,1-3,0.3-4.2,1.8c1.5,0.4,2.6,0.7,3.8,1.1C55.2,90.3,55.3,89.5,55.4,88.4z M63.2,91.5c1.2,0,2.2,0,3.3,0
		c0.2,0,0.3-0.3,0.4-0.4c-0.5-0.4-0.9-1-1.4-1.2c-0.7-0.2-1.5-0.2-2.2-0.2c0,0-0.1,0.3-0.1,0.5C63.2,90.5,63.2,90.9,63.2,91.5z
		 M59.2,87.7c-0.3,0.6-0.6,1-0.6,1.4c0,0.3,0.6,0.7,0.7,0.7c0.4-0.1,0.9-0.5,0.9-0.8C60.2,88.6,59.8,88.3,59.2,87.7z"/>
</g>
</svg>
