<?xml version="1.0" encoding="utf-8"?>
<!-- Generator: Adobe Illustrator 19.1.0, SVG Export Plug-In . SVG Version: 6.00 Build 0)  -->
<svg version="1.1" id="Layer_1" xmlns="http://www.w3.org/2000/svg" xmlns:xlink="http://www.w3.org/1999/xlink" x="0px" y="0px"
	 viewBox="0 0 110.8 180.4" style="enable-background:new 0 0 110.8 180.4;" xml:space="preserve">
<style type="text/css">
	.st0{fill:#00BCD4;}
</style>
<g id="insect-bites-lady">
	<path class="st0" d="M95.1,180.4c-0.2-4.1-0.4-8.2-0.6-12.2c-0.1-1-0.1-2-0.2-3.1c-0.3-2.4-0.4-4.9-0.9-7.2
		c-1.4-5.9-3-11.7-4.5-17.6c-0.1-0.2-0.1-0.4-0.1-0.6c-0.2-1.7-0.9-2.9-2.7-3.3c-1.5-0.4-2.9-1.1-4.3-1.7c-1,2-2.8,3.2-4.8,4.2
		c-2,1.1-3.9,2.4-5.9,3.5c-3.1,1.7-6,3.7-9.5,4.5c-0.4,0.1-0.8-0.2-1.2-0.4c0.3-0.3,0.5-0.7,0.8-0.8c0.6-0.3,1.3-0.5,1.9-0.7
		c2.7-0.8,4.8-2.5,7.1-3.9c0.9-0.5,1.8-0.9,2.7-1.4c1.6-0.8,3.2-1.6,4.7-2.6c1-0.7,1.8-1.8,2.6-2.7c-2.3-1.3-4.4-2.6-6.6-3.8
		c-2.9-1.7-5.8-3.1-9-4.1c-2.8-0.9-5.5-2.2-8.2-3.6c-1.8-1-3.8-1.1-5.7-1.3c-0.1,0-0.4,0.1-0.4,0.2c-0.9,1.1-1.9,2.1-2.7,3.3
		c-2.5,3.6-4.6,7.5-8,10.5c-0.6,0.6-1.3,1-2,1.5c-0.6,0.5-1.2,0.9-1.8,1.4c0,0.1,0.1,0.2,0.1,0.3c0.4,0,0.7-0.1,1.1-0.1
		c-0.2,0.7-1.3,1.4-2,1.1c-0.6-0.2-0.6-0.7-0.3-1.1c0.5-0.7,1.1-1.5,1.8-1.9c3.2-1.9,5.4-4.8,7.4-7.8c1.1-1.6,2.2-3.2,3.2-4.8
		c0.6-0.9,1-2,1.6-3.1c-1.4-0.5-2.7-1.1-4-1.5c-3.5-1.1-6.3-3.3-9-5.6c0,0,0,0-0.1-0.1c-1.5-1.3-1.7-1.2-2.1,0.7
		c-0.8,3.9-1.7,7.7-3.7,11.2c-2.9,5.1-4.5,10.6-6.2,16.2c-0.4,1.4-1.1,2.7-1.8,3.9c-1,1.9-1.4,3.9-1.7,6c-0.1,0.5-0.2,0.9-0.4,1.4
		c-0.3,0.7-0.2,1.3,0.1,2.1c0.3,0.9,0.3,1.9,0.2,2.9c-0.2,1.8-0.5,3.7-0.7,5.5c-0.1,0.6,0,1.3-0.2,1.9c-0.3,0.9,0,1.5,0.5,2
		c1,1.3,1.4,2.8,1.4,4.4c-0.1,1.8-0.7,3.5-2.4,4.6c-0.6,0.4-0.8,0.8-0.9,1.5c-0.2,0.8-0.6,1.6-1,2.4c-0.3,0-0.7,0-1,0
		c0.3-0.6,0.6-1.3,0.7-2c0.1-0.2-0.2-0.6-0.4-0.7c-1.5-0.4-2.9-0.8-4.4-1c-0.7-0.1-1.6,0.1-2.2,0.5c-1.9,1.2-5.6,0.3-6.5-2
		c-0.6-1.6-1.6-3-2.1-4.6c-0.7-2.3-0.1-4.7,0.7-6.8C2.5,160,4,156.2,6,152.6c0.6-1.1,0.8-2.6,1.1-3.9c0.3-1.5,0.6-3,0.9-4.5
		c0.2-1.1,0.2-2.2,0.4-3.2c0.3-1.9,0.7-3.8,1-5.8c0.2-1.4,0.1-2.8,0.3-4.2c0.4-3.7,0.8-7.4,1.2-11.1c0.2-1.5,0.6-2.9,1.1-4.4
		c0.6-1.9,1.3-3.7,1.8-5.5c0.5-1.8,0.5-3.7,0.2-5.7c-0.2-1.4-0.4-2.9-0.4-4.3c0-2.9-0.5-5.6-1.1-8.4c-0.4-1.6-0.9-3-1.9-4.3
		c-0.5-0.6-0.5-1.8-0.3-2.7c0.8-4.5,1.5-9.1,2.7-13.5c1.2-4.3,4.1-7.4,8.1-9.6c3.3-1.7,6.9-2.6,10.4-3.7c2.8-0.8,5.7-1.4,8.5-2.1
		c0.9-0.2,1.8-0.6,2.8-1c-1.6-2-3.2-3.7-4.5-5.7c-2.2-3.3-3.4-6.9-4.2-10.8c-0.6-2.8-1-5.7-2.2-8.3c-1-2.2-1.8-4.5-2.4-6.8
		c-0.3-1.2-0.1-2.7,0.2-3.9c0.9-4,2.9-7.6,5.3-10.9c2.3-3.3,5.4-5.5,8.9-7.4c0.7-0.4,1.5-0.6,2.2-0.6c3.3-0.1,6.7-0.3,10-0.2
		c2.9,0.1,5.5,1.1,7.7,3.1c1.4,1.3,2.8,2.7,4,4.2c0.9,1.1,1.4,2.5,2.1,3.7c1.2,2.1,2.6,4.1,3,6.6c0.3,1.8,0.5,3.7,0.7,5.5
		c0.2,1.5,0.3,3,0.4,4.5c0.1,0.8,0,1.6,0,2.4c0,2.2,0.1,4.5-1.8,6.1c-0.1,0.1-0.1,0.3-0.1,0.2c2.7,3.6,5.3,7.1,7.7,10.7
		c1.4,2.1,2.4,4.5,3.5,6.8c0.3,0.7,0.4,1.5,0.6,2.3c0.2,1,0.5,1.7,1.5,2.1c2.3,0.8,4.7,1.5,6.9,2.5c2.7,1.1,5.6,1.6,8,3.3
		c1.4,1,2.3,2.5,3.1,4c1,1.9,1.9,3.7,2.9,5.6c1.4,2.7,2.9,5.4,4.3,8.2c0.1,0.2,0.2,0.4,0.2,0.6c0.1,2.9,0.2,5.7-1.6,8.2
		c-0.6,0.9-0.9,1.9-0.9,3.1c0.1,2.2,0,4.4,0,6.6c0.1,3.3,0.4,6.7,0.4,10c0,1.9-0.4,3.8-0.6,5.7c-0.2,1.9-0.6,3.9-0.8,5.8
		c-0.2,3.1-1.1,6.1-2,9.1c-0.6,2.1-1.3,4.1-2,6.1c-0.3,0.7-0.7,1.5-1.2,1.9c-0.6,0.5-1.5,0.7-2.3,0.8c-2.3,0.3-4.4-0.6-6.6-1.3
		c-1.2-0.4-2.5-0.7-3.9-1.1c0.3,1.2,0.5,2.3,0.8,3.3c1.3,4.7,2.8,9.4,3.9,14.2c0.9,3.8,1.8,7.7,1.6,11.7c-0.1,2.6,0,5.1,0.2,7.7
		c0.2,2.1,0.7,4.1,1,6.2C96.2,180.4,95.6,180.4,95.1,180.4z M76,112.4c2-0.1,3.9-0.1,5.8-0.3c1.4-0.2,2.7-0.7,4.1-1.1
		c1.7-0.4,2-0.8,1.9-2.6c-0.1-2.2-0.3-4.3-0.2-6.5c0-2.8,0.2-5.5,0.4-8.3c0.1-1.8,0.3-3.6,0.5-5.4c0.1-1.1,0.5-2.2,0.3-3.3
		c-0.4-2.5-1.1-5-1.6-7.5c-0.3-1.6-0.5-3.3-0.7-5c0-0.3,0.2-0.6,0.4-1.1C87.9,76.4,89,81.2,90,86c0.1,0,0.2,0,0.3,0
		c0.7-4.9,1.4-9.7,2.1-14.6c0.6,1.4,0.8,2.8,0.5,4.3c-0.4,1.9-1,3.8-1.4,5.8c-0.1,0.5-0.1,1.1-0.1,1.7c1.8-4.2,4.3-7.9,7.1-11.4
		c0.1,0.3,0.1,0.5,0,0.7c-0.7,1.2-1.2,2.4-2,3.4c-2.5,3.1-4,6.6-5.2,10.3c-0.1,0.3-0.1,0.6-0.3,1.2c6.2-3.5,12.9-3.1,19.4-3.8
		c-1.4-2.6-2.7-5.2-4-7.8c-1.4-2.7-2.8-5.3-4.2-8c-0.8-1.6-1.9-3-3.6-3.8c-2.1-0.9-4.2-1.8-6.3-2.4c-3.1-0.9-6.2-1.7-9-3.4
		c-0.2-0.1-0.4-0.1-0.5-0.1c-0.3,0.7-0.6,1.4-0.8,2c-0.9,1.9-1.8,3.7-2.6,5.6c-1.4,3.7-3.1,7.3-6.3,9.8c-1.9,1.5-3.7,3.1-5.6,4.6
		c-1.7,1.4-3.5,2.7-5.2,4c-0.7,0.5-1.4,0.9-2.2,0.4c-0.7-0.5-1.5-0.9-2.2-1.4c-1.5-1.2-3.2-2.4-4.5-3.7c-1.8-1.8-3.4-3.7-5.1-5.6
		c-1.2-1.4-2.5-2.7-3.5-4.1c-1.3-1.8-2.4-3.8-3.5-5.7c-1.1-1.9-2.2-3.9-3.3-5.8c-0.2-0.3-0.5-0.7-0.8-0.7c-0.8,0-1.6,0.1-2.3,0.3
		c-3.6,1-7.1,2-10.6,3.3c-4.8,1.8-8.6,4.7-10.2,9.8c-1.1,3.4-2,7-2.2,10.7c0.3-0.2,0.5-0.2,0.7-0.4c1.5-1.5,3.2-2.7,5.4-2.9
		c1.2-0.1,2.6-0.4,3.6,0c2.7,1,5.8,0.8,8.1,3c-1.9-3.9-0.5-8.1-1-12.2c0.3,0.4,0.6,0.8,0.6,1.3c0.1,1,0.1,2.1,0,3.1
		c-0.2,3,0.5,5.8,1.6,8.5c0.1,0.3,0.2,0.7,0.3,1c0.1,0.3,0.3,0.5,0.5,0.8c0.1,0,0.2,0,0.3-0.1c-1.6-3.8-1.3-7.8-1.1-11.8
		c0.2,0.5,0.4,1,0.4,1.6c0.2,2.3,0.1,4.6,0.6,6.8c0.5,2.4,1,4.6,0.3,7.1c-0.4,1.3-0.4,2.8,0.8,4c1.7,1.7,3.5,3.4,5.2,5
		c0.6,0.6,1.3,1,2,1.6c1.6,1.5,3.5,2.8,4.8,4.5c1.1,1.4,2.1,2.8,3.6,3.6c2.5,1.4,4.6,3.5,7.4,4.2c2.2,0.6,4.4,1.2,6.7,1.8
		c0.3,0.1,0.7,0,1-0.2c1-0.8,2.1-1.7,3.1-2.5c0.8-0.7,1.5-1.4,2.3-2.1c0.2-0.2,0.7,0,1,0c-0.1,0.3-0.1,0.7-0.3,0.9
		c-1.6,1.5-3.2,2.9-4.8,4.3c-0.2,0.1-0.2,0.4-0.3,0.7c1.6,0.5,3.1,1,4.7,1.5c0.7,0.2,1.4,0.4,2.1,0.6c1.8,0.4,3.5,1,5.3,1.3
		c1.5,0.2,3.1,0.2,4.7,0.2c1.8,0,3.5,0,5.3-0.1c0.3,0,0.9-0.4,0.9-0.8c0.2-0.8,0.2-1.6,0.1-2.3c-0.1-1.3-0.6-1.6-1.9-1.2
		c-2.8,0.8-5.7,1.3-8.7,1.1C76.5,113.3,75.8,113.3,76,112.4z M29.9,107.2c-1.8,0-3.4,0-5.1,0c-0.2,0-0.6,0.2-0.7,0.3
		c-0.1,0.3-0.1,0.8,0.1,0.9c0.3,0.3,0.8,0.7,1.3,0.8c1.1,0.2,2.2,0.3,3.3,0.4c2.6,0.3,4.8,1.3,6.9,3c1.8,1.5,3.4,3.3,5.7,4.1
		c0.5,0.2,1.1,0.3,1.5,0.6c2.6,1.5,5.4,2.1,8.3,2.6c1.3,0.2,2.7,0.6,3.9,1.1c1.7,0.6,3.3,1.4,5,2.1c1.5,0.7,2.9,1.6,4.4,2.2
		c2.6,1.1,5.3,2.1,7.9,3.1c0.6,0.3,1.2,0.7,1.7,1.1c1.6,0.9,3.1,2,4.7,2.7c1.6,0.7,3.3,1.1,4.9,1.8c1.6,0.6,3,1.5,4.7,1.9
		c2.9,0.8,5.9,1.5,8.9,2.2c0.7,0.2,1.5,0.3,2.2,0.2c1.3-0.2,2.1-1.2,2.6-2.3c0.7-1.6,1.2-3.2,1.7-4.9c1-3.1,1.9-6.3,2.2-9.6
		c0.2-1.8,0.6-3.6,0.7-5.4c0.2-2.4,0.9-4.7,0.7-7.2c-0.3-4.4-0.2-8.7-0.3-13.1c0-1,0-2.1,0-3.1c0-0.7-0.1-1.5,0-2.2
		c0.2-1.8-0.2-3.5-1.1-5c-0.2-0.3-0.6-0.5-0.9-0.5c-1.8,0-3.6-0.1-5.4,0.2c-2.7,0.4-5.2,1.1-7.7,2.3c-1.4,0.6-2.2,1.3-2.7,2.9
		c-1.2,3.6-0.8,7.3-0.9,10.9c0,2.1,0.4,4.1,0.4,6.2c0,3-0.3,5.9-0.4,8.9c0,0.5,0.1,0.8,0.7,0.8c2.9-0.1,5.7,0.6,8.5,1.4
		c0.2,0.1,0.4,0.4,0.6,0.6c0,0.1-0.1,0.2-0.1,0.2c-0.3,0-0.5-0.1-0.8-0.1c-2-0.4-3.9-1.1-5.9-1.3c-5.1-0.4-10.2-0.4-15.2-0.9
		c-3-0.3-6-1.2-8.9-2.1c-3.5-1.1-7-2.2-10.5-3.6c-2.2-0.9-4.3-2.2-6.4-3.1c-2.4-1.1-4.1-2.8-5.6-4.9c-1.2-1.7-2.7-3.2-4.4-4.5
		c-1.6-1.2-3.1-2.5-4.6-3.8c-1-0.8-1.8-1.7-2.8-2.6c-0.5,0.6-1,1.1-1.5,1.6c-0.1,0.1-0.4,0-0.6,0c0.1-0.2,0.1-0.4,0.2-0.6
		c0.3-0.4,0.7-0.8,1-1.2c-0.6-0.2-0.9,0-1.3-0.1c-1.8-0.3-2.9,0.6-3.8,2c-0.3,0.5-0.5,0.9,0.3,0.9c3.1,0.4,5.7,2,8.3,3.5
		c0.2,0.1,0.4,0.4,0.5,0.7c-0.1,0.1-0.2,0.1-0.2,0.2c-1.5-0.8-3-1.5-4.4-2.3c-2.3-1.3-4.5-2-6.9-0.2c-0.8,0.6-1.5,1.1-1.7,2
		c-0.1,0.4,0.1,0.9,0.3,1.1c0.2,0.3,0.6,0.5,1.2,0.2c0.8-0.4,1.7-0.4,2.6-0.7c0.4-0.1,0.7-0.4,1-0.7c0.4-0.4,0.7-1,1.1-1.4
		c0.1,0.1,0.2,0.2,0.4,0.3c-0.3,0.5-0.6,1.1-0.8,1.5c0.7,0.2,1.3,0.3,1.9,0.6c1.8,0.9,3.6,1.8,5.4,2.7c0.2,0.1,0.4,0.5,0.5,0.8
		c-0.1,0.1-0.2,0.2-0.3,0.3c-2.1-1.1-4.2-2.3-6.3-3.4c-0.4,0.8-0.7,1.5-1.1,2.3c-0.1,0-0.2-0.1-0.3-0.1c0.2-0.8,0.3-1.5,0.6-2.6
		c-1.7,0.4-3.1,0.6-4.5,1.2c-0.5,0.2-0.9,1.1-1.2,1.7c-0.2,0.4-0.1,0.9,0,1.3c0.1,0.2,0.7,0.3,1,0.2c0.7-0.1,1.4-0.4,2.1-0.6
		c1.9-0.6,3.5-0.2,5,1.1c1.2,1,2.1,2.4,3.7,2.8c0.1,0,0.3,0.1,0.3,0.2c0.1,0.3,0.1,0.6,0.2,1c-1.5-1.8-3.5-0.9-5.1-1.5
		c-0.5,2-0.5,2-1,2C29.8,108.5,29.9,107.9,29.9,107.2z M72,28.8c0-0.1,0.2-0.2,0.3-0.5c0.6-1.3-0.2-2.5-1.6-2.5
		c-1,0-1.6,0.7-1.8,1.7c-0.2,0.9-0.3,1.8-0.6,2.7c-0.1,0.3-0.6,0.4-0.7,0.6c-0.3,0.7-0.4,1.4-0.7,2c-0.2,0.4-0.7,0.7-1.1,0.9
		c-0.2,0.1-0.6-0.4-0.8-0.7c-0.6-1.2-1.3-2.3-2.6-2.8c-0.8-0.3-1.8-0.5-2.6-0.8c-1.6-0.6-3.2-1.1-4.3-2.8c-0.9-1.4-1.9-3-3.5-3.9
		c-1.1-0.6-1.9-1.6-2.8-2.5c-1-0.9-1-2.2-0.2-3.3c0.2-0.3,0.4-0.7,0.5-1.1c0.2-1.1,0.3-2.2,0.7-3.2c0.5-1.5,1.1-2.9,1.8-4.4
		c0.4-1,1.1-1.9,1.6-2.8c0.1-0.3-0.1-0.8-0.1-1.2c-0.3,0.2-0.8,0.2-1,0.5c-1,1.5-2,2.9-2.7,4.5c-0.7,1.5-1.2,3.1-1.7,4.7
		c-0.3,0.9-0.6,1.8-0.8,2.8c-0.2,1-0.3,2-0.5,2.9c0,0.2-0.3,0.5-0.5,0.6c-1.1,0.5-2.2,1.1-3.3,1.4c-2.2,0.6-4.4,1.2-6.6,1.7
		c-2.3,0.5-4.2,1.8-3.4,4.6c0.4,1.6,0.8,3.2,1.2,4.8c0.2,0.8,0.6,0.9,1.3,1c1.4,0.2,2.7,0.5,4,0.8c0.2,0.1,0.4,0.5,0.6,0.8
		c-0.4,0.1-0.7,0.2-1.1,0.2c-1.2-0.2-2.4-0.4-3.5-0.6c-0.5-0.1-0.7,0.1-0.6,0.7c0.3,1.2,0.4,2.4,0.7,3.6c0.8,3.6,2,7,4.3,9.8
		c2.4,3,5.1,5.7,7.7,8.5c2.5,2.6,6.9,3,9.7,1.1c2-1.4,3.9-2.8,5.1-5c1.6-3.1,4-5.7,4.2-9.5c0.1-1,0.6-2,0.9-3c0.1,0,0.3,0,0.4,0.1
		c0,0.5,0,1.1-0.1,1.6c-0.2,0.9-0.4,1.8-0.7,2.7c-0.3,0.9-0.4,1.9-0.8,2.8c-0.6,1.3-1.4,2.5-2,3.7c-1.1,2.4-2.7,4.5-4.6,6.2
		c-2.6,2.3-5.8,2.9-9.1,2.1c-2.5-0.6-4.1-2.5-5.9-4.3c-0.2-0.2-0.6-0.5-0.9-0.4c-0.5,0.1-0.9,0.3-1.4,0.5c2,7.7,12.9,20.2,18.6,23.4
		c1.4-1.1,2.8-2.2,4.1-3.3c1.8-1.6,3.7-3.1,5.4-4.8c1.9-1.8,3.5-3.8,4.7-6.2c1.3-2.8,2.6-5.7,4-8.6c-3.9-1.4-7.2-3.4-8.6-7.2
		c-1.3-3.6-1.5-7.3-0.8-11.2c-1.8-0.4-1.8-1.8-1.2-3.5c0.3-0.8,0.5-1.5,0-2.2c0.6-0.3,1.2-0.4,1.6-0.7c0.4-0.3,0.3-3,0-3.5
		c1.5,0.5,1.7,0.7,1.8,2.2c0,0.3,0.1,0.7,0.1,0.9c-0.2,0.5-0.4,1-0.7,1.5c-0.3,0.5-0.7,1-1,1.5c-0.2,0.4-0.4,0.9-0.4,1.3
		c-0.1,0.3,0,0.7,0.1,1.1c0.4-0.2,0.8-0.2,1.1-0.5c0.3-0.3,0.5-0.9,0.8-1.3c1.3-1.2,1.2-2.7,1-4.3C72.5,30.2,72.3,29.6,72,28.8z
		 M13.1,164.5c1.2-1.1,2.5-1.2,3.3,0.6c0.5-0.1,1-0.1,1.3-0.2c0.3-2.1,0.4-4.2,0.8-6.3c0.2-1.1,0.4-2.2,0-3.2
		c-0.1-0.3-0.2-0.7-0.2-1.1c0.1-0.9,0.4-1.7,0.4-2.6c0-2.1,0.8-4.1,1.7-5.9c1.5-3,2.6-6.1,3.5-9.3c0.7-2.8,1.6-5.5,3.1-8
		c1.3-2.2,2.3-4.6,3.2-7c0.5-1.1,0.6-2.4,0.9-3.7c0.3-1.5,0.8-3,1-4.6c0.2-2-0.1-2.4-2.2-2.7c-1.7-0.2-3.4-0.4-5.1-0.6
		c-1.2-0.2-1.9-1.2-1.8-2.4c0.1-1,0.8-1.5,2.2-1.4c1.9,0.1,3.7,0.3,5.6,0.4c0.3,0,0.6-0.2,0.9-0.3c-0.1-0.3-0.2-0.6-0.3-0.8
		c-1.1-1.4-4.3-1.6-6.1-0.5c-0.9,0.6-1.8,0.5-2.5-0.1c-0.6-0.6-0.7-1.8-0.2-2.6c0.3-0.5,0.7-1-0.1-1.5c-0.3-0.2-0.5-0.9-0.5-1.3
		c0.1-1.5,0.8-2.6,2.2-3.3c0.9-0.5,2-0.8,2-2.1c0-0.2,0.2-0.3,0.3-0.5c1.1-1.6,2.4-2.7,4.6-2.3c-0.1-1.8,0-3.5-0.4-5.2
		c-0.3-1.4-0.5-2.8-1.8-3.9c-1.2-1-2.4-1.7-3.9-1.9c-2-0.3-3.8-1.5-5.9-1.2c-2.3,0.2-4.4,0.8-5.9,2.7c-0.2,0.3-0.5,0.7-0.5,1.1
		c0,2.9-0.2,5.8,0.6,8.6c0.7,2.6,1.1,5.2,1.1,7.8c0,1.4,0.3,2.8,0.4,4.3c0.2,2.3,0.4,4.7-0.2,7c-0.7,2.5-1.5,5-2.3,7.5
		c-1.3,3.7-1.1,7.6-1.6,11.4c-0.4,3.5-0.4,7-1.2,10.5c-0.4,1.8-0.4,3.7-0.7,5.5c-0.2,1.3-0.5,2.6-0.8,3.9c-0.3,1.4-0.6,2.8-1.1,4
		c-1.2,2.7-2.5,5.2-3.7,7.7c0.4,0.3,0.8,0.4,0.9,0.7c0.5,0.9,0.7,1.9,0.5,3c-0.3,1.6-0.3,3.2-0.5,4.6c1,0,2.1-0.2,2.6,0.2
		c0.6,0.5,0.6,1.6,0.9,2.5c0.2-0.1,0.3-0.2,0.3-0.2c1.3-1.7,0.7-3.6,0.8-5.4c0-0.5,0.1-1.1,0.3-1.6c0.3-0.8,0.7-1.5,0.9-2.3
		c0.3-1.2,0-2.4-0.5-3.5c-0.1-0.2-0.3-0.4-0.3-0.6c0-0.1,0.4-0.3,0.4-0.3c0.2,0.1,0.5,0.3,0.5,0.5c0.8,2.1,1,4.2,0,6.3
		c-0.2,0.4-0.4,0.9-0.6,1.4c0.1,0.1,0.2,0.2,0.3,0.3C10.5,164.8,11.2,163.4,13.1,164.5z M41,56.5c-0.7,0.2-1.8,0.5-2.8,0.8
		c0.2,0.5,0.4,0.8,0.6,1.2c1.9,3.4,3.7,7,5.9,10.3c1.5,2.3,3.5,4.3,5.4,6.4c2.1,2.3,4.3,4.6,6.6,6.8c1,0.9,2.3,1.5,3.5,2.3
		c0-0.5,0.1-0.8,0.1-1.2c0.2-1.3,0.6-2.6-1.2-3.1c-0.1,0-0.2-0.1-0.2-0.2c-2.7-2.6-5.6-5.1-8-7.8c-2.4-2.7-4.6-5.7-6.6-8.7
		C42.9,61.2,42.1,58.9,41,56.5z M79.9,56.7c-0.2,0.6-0.5,1.2-0.6,1.7c-1.5,5-3.9,9.5-7.6,13.2c-0.4,0.4-0.9,0.8-1.4,1.2
		c-3,2.6-6,5.1-9,7.7C61.1,80.7,61,81,61,81.3c-0.1,0.8-0.1,1.6-0.2,2.4c0,0.2,0.1,0.4,0.2,0.6c1.3-0.9,2.6-1.8,3.8-2.7
		c2.4-1.9,4.7-4,7.2-5.8c2.2-1.7,4-3.7,5.1-6.2c1.8-3.9,3.5-7.9,5.2-11.8C81.4,57.4,80.7,57.1,79.9,56.7z M6.4,175.3
		c-0.2-0.5-0.2-0.8-0.3-1c-0.1-0.3-0.3-0.6-0.6-0.7c-1-0.4-1.7-1.2-1.7-2.2c-0.1-1.9,0-3.8,0.1-5.7c0.1-1.5,0.5-3-0.6-4.5
		c-1,2.3-2,4.5-2,7c0,1.2-0.1,2.4,0.6,3.4c0.7,1,1.2,2.1,1.8,3.2c0.6,1.1,1.5,1.7,2.7,1.6c1.3-0.1,2.5-0.6,3.7-0.9
		c0.1,0,0.2-0.2,0.3-0.4c0.9-1.5,1.7-3.1,2.6-4.6c0.4-0.7,0.1-2-0.6-2.3c-0.8-0.4-1.4,0.1-1.9,0.8C9.2,171.1,7.9,173.1,6.4,175.3z
		 M11.2,165.5c0.4,0.7,0.7,1.2,1.1,1.7c0.2,0.2,0.4,0.5,0.6,0.7c0.9,0.8,1.3,1.9,0.8,2.9c-0.4,1.1-0.9,2.1-1.4,3.2
		c-0.2,0.5-0.6,1.2,0.1,1.4c0.6,0.2,1.3,0.3,1.6-0.7c0.3-1.2,0.9-2.4,1.2-3.6c0.2-0.8,0.4-1.6,0.3-2.3c-0.3-2.1-2.2-2.8-3.6-4.1
		C11.6,165.1,11.3,165.4,11.2,165.5z M17.9,172.4c-0.1-1.2-0.1-2.1-0.4-2.8c-0.6-1.6-1.3-3.2-2-4.7c-0.1-0.3-0.5-0.5-0.8-0.5
		c-0.2,0-0.6,0.3-0.6,0.5c0,0.2,0.3,0.5,0.5,0.7c1,1,1.7,2.1,1.8,3.6c0,1.9-0.8,3.5-1.3,5.2c-0.2,0.6-0.5,1.2,0.4,1.5
		c0.7,0.2,1.4,0,1.7-0.7C17.5,174.2,17.7,173.1,17.9,172.4z M18.5,174.6c1.5-2.4,1.5-3.8,0-6.5c-0.3-0.6-0.4-1.2-0.7-1.8
		c-0.1-0.2-0.4-0.4-0.6-0.6c-0.1,0.1-0.2,0.2-0.3,0.2C18.3,168.7,18.8,171.5,18.5,174.6z M6.8,171.2c0-1.1-0.3-1.6-1-1.5
		c-0.7,0.1-1.4,0.2-1.4,1.2c0,0.9,0.6,1.9,1.2,1.9C6,172.8,6.9,171.7,6.8,171.2z"/>
	<path class="st0" d="M43.5,52.6c0.4-0.2,0.7-0.5,1.1-0.5c1.7-0.1,3.3-0.1,5-0.2c1.2-0.1,2.5-0.3,3.7-0.4c0.5,0,1.4-0.2,1.6,0.1
		c0.5,0.7-0.4,1-0.7,1.3c-0.9,0.8-1.8,1.6-2.8,2.2c-1.7,1-3.4,0.9-5-0.4C45.5,54,44.6,53.4,43.5,52.6z M51.6,54c-1.8,0-3.5,0-5.3,0
		C48.1,55.5,50.4,55.5,51.6,54z M53.4,52.6c-2.8,0-5.5,0-8.1,0c0,0.1,0,0.3,0,0.4C47.9,53,50.5,53.6,53.4,52.6z"/>
	<path class="st0" d="M48.1,44.4c0.8-0.2,1.6-0.5,2.3,0.3c0.6,0.7,1.6,1.5,1.1,2.3c-0.5,0.8-1.6,1.2-2.6,1.6
		c-0.7,0.3-1.4,0.3-2.1,0.5c-1.4,0.3-2.5-0.2-3.5-1c-0.7-0.6-0.6-1.5-0.4-2.4c0.3-2,0.5-4.1,0.6-6.1c0.1-1.5-0.9-2.5-1.9-3.6
		c0.2,0.1,0.5,0.2,0.7,0.3c1.8,1.6,1.8,3.7,1.6,5.8c-0.2,1.4-0.5,2.8-0.7,4.3c-0.1,0.7,0.1,1.4,0.8,1.7c0.9,0.4,1.8,0.9,2.8,0.5
		c0.9-0.4,1.7-1.2,2.9-0.9c0.2,0.1,0.8-0.6,0.9-1.1c0.1-0.6-0.7-1.5-1.3-1.5c-0.3,0-0.7,0-1-0.1C48.1,44.6,48.1,44.5,48.1,44.4z"/>
	<path class="st0" d="M46.5,34.4c0.3-0.2,0.5-0.5,0.8-0.6c1.4-0.9,3-1.2,4.6-1.2c0.8,0,1.6-0.1,2.4,0c0.3,0,0.5,0.4,0.7,0.7
		c-0.3,0.2-0.6,0.5-0.9,0.5c-1.9-0.3-3.6,0.4-5.3,0.9c-0.7,0.2-1.4,0.2-2.1,0.3C46.6,34.7,46.5,34.5,46.5,34.4z"/>
	<path class="st0" d="M48.8,37.8c0-0.4,0.1-0.8,0.1-1.3c0.6,0.4,1,0.7,1.5,0.9c1.4,0.6,2.7-0.1,3.9-0.7c0.8-0.4,1.6-0.6,2.5-0.8
		c-0.9,1.3-2,2.1-3.5,2.5C51.7,38.8,50.3,38.1,48.8,37.8z"/>
	<path class="st0" d="M41.7,38.2c-0.5,0.3-1,0.6-1.5,0.8c-1.3,0.4-2.5,0.5-3.7-0.4c-0.1-0.1-0.2-0.3-0.2-0.5c0.2,0,0.4-0.1,0.5,0
		c0.8,0.6,1.6,0.4,2.4,0.1c0.7-0.3,1.5-0.4,2.2-0.5C41.6,37.9,41.6,38.1,41.7,38.2z"/>
	<path class="st0" d="M13.2,162.6c0.1-1.2,0.7-2.3,1.5-3.1c1.5-1.4,1.2-3,0.7-4.6c-0.1-0.5-0.3-1-0.3-1.5c1.7,1.8,1.7,4.7,0.3,6.5
		c-0.6,0.7-0.9,1.6-1.4,2.3c-0.1,0.2-0.4,0.4-0.6,0.6C13.4,162.7,13.3,162.7,13.2,162.6z"/>
	<path class="st0" d="M21.4,125.4c0.7,0,1.3,0.5,1.3,1.3c0,0.7-0.3,1.3-1.1,1.3c-0.8,0-1.2-0.4-1.2-1.2
		C20.2,126,20.7,125.4,21.4,125.4z"/>
	<path class="st0" d="M15.6,127.1c0-0.9,0.3-1.4,1.1-1.4c0.7,0,1.2,0.4,1.2,1.1c0,0.7-0.4,1.2-1.1,1.2
		C15.9,128.1,15.6,127.6,15.6,127.1z"/>
	<path class="st0" d="M20.2,111.8c0.6,0,0.9-0.2,1.1-0.1c1.4,0.9,2.9,1.8,4.2,2.6C24.7,114.9,23.8,114.5,20.2,111.8z"/>
	<path class="st0" d="M18.1,121.9c0.6-0.5,0.9-1,1.3-1c0.7-0.1,1.2,0.4,1.1,1.1c-0.1,0.5-0.6,0.8-1,1.2
		C19.1,122.8,18.7,122.4,18.1,121.9z"/>
</g>
</svg>
