<?xml version="1.0" encoding="utf-8"?>
<!-- Generator: Adobe Illustrator 19.1.0, SVG Export Plug-In . SVG Version: 6.00 Build 0)  -->
<svg version="1.1" id="Layer_1" xmlns="http://www.w3.org/2000/svg" xmlns:xlink="http://www.w3.org/1999/xlink" x="0px" y="0px"
	 viewBox="0 0 120 187.4" style="enable-background:new 0 0 120 187.4;" xml:space="preserve">
<style type="text/css">
	.st0{fill:#8BC34A;}
</style>
<g id="poisonivy-leg-1">
	<path class="st0" d="M63.7,0c-0.7,1.7-0.2,3.2,0.7,4.7c1.4,2.2,2.3,4.7,3.7,6.7c1.8,2.6,4.2,4.9,6,7.5c2.5,3.5,4.5,7.2,5.3,11.6
		c0.3,1.7,1.1,3.3,1.8,4.8c1,2.3,1.9,4.6,1.6,7.1c-0.1,1.3,0.6,1.9,1.7,2.4c1.9,0.9,3.7,2,5.6,3C90.1,48,90,48.3,90,48.5
		c-0.5,0-1,0.1-1.4,0c-0.8-0.4-1.5-0.9-2.3-1.4c-3.3-1.7-5.2-1.4-7.2,1.7c-4.1,6.3-8,12.7-12,19.2c-3.1,5-3.3,10.6-3.1,16.3
		c0.1,1.7,0.1,3.5-0.1,5.2c-0.1,1.2,0.3,1.6,1.6,1.7c3.2,0.2,6.3-0.4,9.3-1.5c0.3-0.1,0.6-0.1,0.9-0.1c-1.2,2.1-7.9,3.5-11.9,2.6
		c-0.6,2.1-1.3,4.2-1.9,6.4c-1.4,5.2-3.1,10.4-4.1,15.7c-0.7,3.7-1.1,7.4-2.7,10.8c-2,4.1-4.4,8.1-6.6,12.1c-1.5,2.7-3.1,5.3-4.7,8
		c-1.7,2.9-1.3,4.8,1,7c3.3,3,7,5.4,11.2,7.2c4.5,1.9,8.8,4.2,13,6.6c2.5,1.4,4.7,3.4,6.8,5.3c2.7,2.5,6,3.1,9.5,3.6
		c3.3,0.5,6.5,0.7,9.6-1c1.7-1,3.4-2.2,5.6-1.8c0.1,0,0.8-1.3,0.7-2c-0.3-1.6-2.3-2.8-4.7-2.8c-1.7,0-3.4,0.3-5.2,0.2
		c-0.7,0-1.5-0.7-1.9-1.3c-2.2-3.3-4.3-6.7-6.4-10.1c-2.1-3.3-4.3-6.5-6.3-9.9c-0.6-1.1-1.2-2.4-1.3-3.6c-0.1-4.5-0.2-9,0-13.6
		c0.3-5.2,1.9-9.9,4.6-14.4c4.1-6.9,7.8-14,11.6-20.9c2.3-4.1,4.7-8,6.7-12.2c1.1-2.3,1.5-4.9,2.3-7.4c1.7-5.1,5-9.4,7.7-14
		c2.1-3.6,3.7-7.4,5.6-11.1c0.5-0.9,0.8-2,1.5-2.8c2.4-2.8,3.3-5.9,2.5-9.6c-1.6-7.8-3.1-15.6-4.7-23.3c-0.6-2.9-1.7-5.6-2.4-8.5
		c-0.3-1.5-0.1-3.1-0.2-4.7c0.5,0,1,0,1.4,0c0.1,0.2,0.3,0.3,0.3,0.5c-0.7,4.2,1.6,7.8,2.4,11.7c0.7,3.9,1.6,7.9,2.5,11.8
		c0.4,1.6,1,3.2,1.3,4.8c0.6,3.6,1.3,7.1,1.5,10.7c0.1,1.8-0.6,3.7-1.4,5.4c-1.3,2.8-3.2,5.3-4.3,8.1c-1.7,4.3-4.3,8-6.7,11.9
		c-2,3.3-3.9,6.8-5.2,10.4c-1,2.7-1.5,5.6-2.9,8.1c-6.4,11.4-12.6,22.8-18.9,34.2c-2.5,4.5-3.4,9.4-3.4,14.5c0,3.3-0.1,6.6,0,9.9
		c0,1,0.4,2.3,1,3.1c3,3.8,5.2,7.9,7.4,12.2c1.4,2.7,3.4,5.2,5.2,7.7c0.3,0.4,1.3,0.4,2,0.4c2.8,0,5.6-0.1,8.2,1.4
		c1.6,1,2.8,5,1.7,6.4c-0.6,0.7-1.7,0.9-2.7,1.2c-1.7,0.5-3.4,0.9-5.1,1.5c-2.8,1-5.6,1.4-8.6,0.8c-2-0.4-4.1-0.3-6-0.7
		c-3.8-0.9-6.7-3.5-9.6-6c-4.6-4.1-9.9-6.8-15.6-9c-2.7-1.1-5.3-2.7-7.7-4.3c-1.9-1.2-3.4-2.9-5.1-4.3c-2-1.7-2.1-5.4-0.7-7.6
		c2.3-3.8,4.9-7.4,7-11.3c2.6-4.8,5.6-9.5,6.7-15c1-4.8,2-9.7,3.1-14.6c0.4-1.8,0.9-3.5,1.5-5.3c1.7-5,2.2-10.3,2.1-15.5
		c-0.1-5.1,0.5-10,2.6-14.6c2.3-5.1,5.4-9.6,8.9-13.9c1.4-1.7,2.4-3.8,3.6-5.7c0.6-0.9,1.1-2.1,2-2.7c2.2-1.5,1.9-3.5,1.5-5.5
		c-0.5-2.3-1.5-4.4-2.3-6.7c-1-2.8-1.7-5.8-3-8.5c-1.8-3.7-4-7.3-7-10.3c-1.5-1.5-2.4-3.7-3.4-5.6c-0.9-1.6-1.7-3.3-2.5-4.9
		c-0.2,0.1-0.3,0.1-0.5,0.2c-0.6,2.1-1.3,4.3-2,6.4c-1.1,3.4-2,6.8-3.4,10c-2.2,5.6-3.5,11.4-5.2,17c-1.3,4.2-1.7,8.4-2.7,12.6
		c-0.5,2-0.6,4-1.2,5.9c-1.2,3.3-2.8,6.5-4,9.9c-1.2,3.3-2.6,6.6-3,10c-0.7,5.1-0.4,10.3-0.9,15.4C39,95.6,38,99.3,37.3,103
		c-0.9,4.5-2,9-2.9,13.5c-0.4,2-0.6,4-0.7,6c-0.2,4.3-0.3,8.5-0.3,12.8c0,1.6,0.4,3.3,0.7,4.9c0.7,3.3,1.4,6.6,2.2,9.9
		c0.8,3.4,2.7,6.3,5.4,8.4c3.7,2.9,7.4,5.8,11.3,8.3c2.3,1.5,5.1,2.3,7.8,3.1c5.1,1.6,9.9,3.5,13.9,7.2c0.5,0.5,1,1.1,1.6,1.4
		c1.4,0.7,1.4,1.9,1.1,3.1c-0.3,1.3-1.3,1.9-2.6,2.1c-3.5,0.4-7.1,0.7-10.6,1.1c-0.1,0-0.3,0-0.4,0c-2.2,2.5-5.5,1.1-8.2,2.2
		c-1.8,0.8-4.5,0-6.6-0.6c-3.3-1-6.6-1.4-10-1.3c-3.1,0.1-6-0.6-8.9-1.5c-2.3-0.7-4.8-0.8-7.2-0.9c-3.2-0.2-6.5-0.3-9.7-0.4
		c-2-0.1-3.4-1-4.4-2.8c-2.3-4.2-1.1-8.3-0.3-12.5c0.6-3.1,1-6.3,1.4-9.5c0.1-0.9,0.2-1.9,0.4-2.8c0.8-3.7-0.2-7.2-0.7-10.8
		c-0.6-3.8-1-7.5-1.8-11.3c-0.9-4.5-2.3-8.9-3.3-13.4c-1.1-5.2-2.1-10.5-2.9-15.7c-0.7-4.6-1.1-9.3-1.4-14C-0.3,85.1,1,81,2.8,77
		c2.1-4.7,4.5-9.3,6.4-14c1.3-3.3,2.1-6.9,3.1-10.4c0.1-0.5,0.1-1.1,0.1-1.6c0-6.9-0.2-13.7,0.1-20.6c0.1-4-0.8-7.8-1.7-11.6
		c-0.8-3-1.3-5.9-1.3-9c0-2.5-0.6-4.9-0.9-7.4C8.4,1.6,8.6,0.8,8.7,0c0.5,0,1,0,1.4,0c0.4,4.2,0.6,8.5,1.2,12.6
		c0.5,3.5,1.6,7,2.3,10.5c0.4,1.9,0.4,3.9,0.5,5.8c0.1,4.3,0.2,8.6,0.3,13c0.1,3,0.3,6.1,0.2,9.1c-0.1,1.6-0.7,3.1-1.1,4.7
		c-1.8,8-5.9,15.2-9,22.6c-1.9,4.4-2.4,8.8-1.7,13.5c0.5,3.4,0.4,7,0.9,10.4c0.5,3.6,1.1,7.2,1.9,10.8c1.4,6.7,3.2,13.3,4.5,20
		c1.1,5.7,1.8,11.4,2.6,17.2c0.2,1.4-0.5,2.8-0.6,4.2c-0.2,2.1-0.1,4.3-0.4,6.4c-0.6,4.2-1.2,8.4-2,12.5c-0.5,2.3,0.2,4.3,1.5,5.8
		c0.8,0.9,2.7,1.1,4.1,1.3c3.7,0.3,7.4,0.2,11.2,0.4c1.4,0.1,2.7,0.4,4,0.7c2.8,0.6,5.6,1.7,8.4,1.7c4.7,0,9.1,1,13.6,2.1
		c1.2,0.3,2.5,0,4.2,0c-1.3-2.1-1.1-4.5-3.5-5.3c-0.2-0.1-0.3-0.6-0.4-1c0.3,0,0.6-0.1,0.9-0.1c1.7,0.4,3.2,1.8,3.2,3.6
		c0,1.6,0.8,1.8,2,1.8c1,0,2.1,0,3.6,0c-1.5-2.9-2.7-5.2-3.9-7.5c0.1-0.1,0.3-0.2,0.4-0.3c0.6,0.8,1.4,1.4,1.9,2.3
		c0.6,1,0.9,2.3,1.7,3.1c0.5,0.6,1.6,0.8,2.5,1c0.7,0.2,1.5,0,2.7,0c-1.3-2.7-2.5-5.1-3.8-7.7c0.4,0.2,0.8,0.3,1,0.6
		c0.9,1.4,1.8,2.8,2.5,4.2c1.3,2.7,1.2,2.7,4.4,2.4c-0.5-2.3-3.3-3.6-2.8-6.3c0.7,1.3,1.5,2.6,2.2,3.8c0.2,0.4,0.5,0.7,0.9,0.9
		c0.9,0.7,2.1,1.6,3,0.7c1.1-1.1-0.3-1.9-1-2.6c-2.3-2.2-4.8-4.1-7.9-5.1c-3.9-1.3-7.8-2.6-11.7-4c-1-0.3-1.9-0.9-2.8-1.5
		c-3.5-2.5-7.1-4.9-10.3-7.7c-2.1-1.8-3.9-4.2-5.4-6.6c-2-3.3-2.3-7.3-3-11c0-0.2,0-0.5-0.1-0.7c-2.3-6-1.5-12.2-1-18.3
		c0.5-5.6,1.3-11.1,2.2-16.6c0.6-3.3,2.2-6.4,2.7-9.7c0.6-3.6,0.7-7.3,0.7-10.9c-0.1-6.3,0.8-12.3,2.6-18.3c0.1-0.2,0-0.5,0-0.9
		c-3.1-0.8-5.3-2.9-6.3-6c-0.3-1-0.1-2.3,0.3-3.5c0.5,4.2,2.2,7.4,6.7,8.6c5-7.8,6.3-16.9,7.1-26.3c-2.4,0.8-5,1.6-7.6,2.4
		c-0.1-0.3-0.2-0.5-0.2-0.8c1.4-0.5,2.7-1.2,4.1-1.6c1.4-0.5,2.9-0.7,4.3-1.2c0.5-0.2,1-0.9,1.1-1.4c0.9-4.6,1.8-9.2,3.6-13.5
		c1.1-2.5,2.4-5.1,3.2-7.7c1.4-4.1,2.4-8.3,3.6-12.4c0.4-1.5,1-2.9,1.5-4.3C62.2,0,62.9,0,63.7,0z"/>
	<path class="st0" d="M13.4,125.7c-0.1-1.1-0.6-2.5-0.2-2.8c1.3-1.2,2.9-2.1,4.5-3c0,0,0.8,0.8,0.7,1c-0.4,0.8-0.8,1.6-1.4,2.1
		C15.9,123.9,14.8,124.6,13.4,125.7z"/>
	<path class="st0" d="M13.1,117.3c0.4,0,0.7-0.2,1.1-0.1c0.3,0.1,0.7,0.3,0.8,0.6c0.1,0.2-0.1,0.8-0.3,0.9c-1.1,0.4-2.2,0.8-3.3,0.9
		c-0.4,0.1-0.9-0.6-1.3-0.9c0.4-0.4,0.6-1,1.1-1.2c0.6-0.3,1.4-0.3,2-0.4C13,117.2,13,117.3,13.1,117.3z"/>
	<path class="st0" d="M21.8,117.1c-0.5-0.6-0.8-1-1.1-1.4c0.2,0.1,0.4,0.3,0.5,0.4c0.7-1,1.3-2,2.1-2.8c0.4-0.4,1.2-0.3,1.8-0.4
		c-0.1,0.5-0.1,1.2-0.5,1.6C23.8,115.3,22.8,116.1,21.8,117.1z"/>
	<path class="st0" d="M32.7,104.4c-0.4,2.6-2,3.9-3.8,5.2C28.4,107.8,29.8,105.6,32.7,104.4z"/>
	<path class="st0" d="M86.6,172.7c-1.2-0.8-1.7-1.3-2.4-1.5c-4.6-1.2-7.7-4.4-10.6-7.8c-2.3-2.7-4.6-5.4-7.3-7.6
		c-2.2-1.7-5.2-1.2-7.8-0.3c-0.4,0.1-0.9,0.1-1.3,0c3.7-3,9.9-2.2,13.4,2.6c2.4,3.3,5.3,6.4,8.3,9.2c1.4,1.3,3.5,1.9,5.2,2.8
		c0.7,0.4,1.5,0.7,2.2,1.2C86.6,171.4,86.5,172,86.6,172.7z"/>
	<path class="st0" d="M62.3,112.2c0.5-0.6,1.1-1.7,1.5-1.7c1.4,0.3,2.8,0.9,4.2,1.4c-0.1,0.3-0.1,0.5-0.2,0.8c-1.7,0-3.3,0-5,0
		C62.6,112.6,62.4,112.4,62.3,112.2z"/>
	<path class="st0" d="M84.1,102.3c-0.7,1.2-1.4,2.5-2.2,3.6c-0.2,0.3-1,0.1-1.6,0.2c0.1-0.5-0.1-1.2,0.2-1.5c1-0.9,2.2-1.7,3.3-2.5
		C83.9,102.1,84,102.2,84.1,102.3z"/>
	<path class="st0" d="M77.8,108.5c-1.1,0.9-2.2,1.9-3.4,2.7c-0.2,0.2-1.2-0.3-1.2-0.5c0-0.5,0.2-1.4,0.5-1.5
		c1.2-0.5,2.6-0.8,3.9-1.1C77.7,108.2,77.7,108.4,77.8,108.5z"/>
</g>
</svg>
