<?xml version="1.0" encoding="utf-8"?>
<!-- Generator: Adobe Illustrator 19.2.1, SVG Export Plug-In . SVG Version: 6.00 Build 0)  -->
<svg version="1.1" id="Layer_1" xmlns="http://www.w3.org/2000/svg" xmlns:xlink="http://www.w3.org/1999/xlink" x="0px" y="0px"
	 viewBox="0 0 150 298.2" style="enable-background:new 0 0 150 298.2;" xml:space="preserve">
<style type="text/css">
	.st0{fill:#8BC34A;}
</style>
<g id="poisonivy-lady">
	<path class="st0" d="M10.1,298.2c0.5-2.9,1.1-5.8,1.6-8.7c0.8-4,1.4-7.9,2.3-11.9c0.7-3,1.5-6,2.3-9c0.1-0.2,0.1-0.4,0.1-0.6
		c-0.5-2.4-1.1-4.8-1.4-7.3c-0.3-2.1-0.3-4.2-0.3-6.2c0-2.8-0.5-5.4-1.3-8c-0.9-3-1.4-6.1-2.2-9.1c-1.1-4.7-2.3-9.3-3.3-14.1
		c-0.7-3.5-1.5-7-1.4-10.6c0.2-5.2,0-10.4,0.1-15.5c0.1-4,0.1-8,0.4-12c0.3-4.1,0.8-8.1,1.6-12.1c0.5-2.1,1.7-4.1,2.9-6.1
		c0.6-1,0.8-1.9,0.7-2.9c-0.8-4.5,0.2-8.6,2.4-12.5c2.9-5.3,4.1-11,5-16.9c0.3-2.2,1-4.4,1.7-6.6c0.7-2.1,1.6-4,2.5-6
		c0.8-1.9,1.7-3.7,2.6-5.7c-2.3-0.4-4.3-0.7-6.3-1.1c-1.4-0.3-2.7-1.2-4.3-0.9c-1.2,0.2-2.5,0.4-3.7,0.8c-1.8,0.6-3.3,0.3-4.6-1
		c-1.4-1.4-2.9-2.7-4.1-4.2c-3.6-4.2-4.3-9-2.8-14.2c0.4-1.5,0.7-3.1,1.2-4.6c0.4-1.4,1.1-2.6,1.6-4c0.2-0.7,0.4-1.5,0.2-2.1
		c-0.5-2.4,0-4.6,2.2-5.7c2.2-1.2,2.6-3.1,2.8-5.2C9.2,69,10,63.9,11.6,58.9c0.6-1.9,1.6-3.6,2.2-5.5c1.8-5.6,3.9-11.1,4.9-17
		c0.7-4.3,1.8-8.5,3.4-12.6c1.8-4.6,2.7-9.3,3.2-14.2c0.3-3.3,1-6.5,1.6-9.7c0.5,0,1.1,0,1.6,0c-0.1,0.5-0.1,1-0.2,1.5
		c-0.2,1.6-0.6,3.2-0.7,4.8c-0.3,4.5-0.7,9-1.9,13.4c-0.8,2.9-2.1,5.6-2.9,8.5c-1,3.9-1.6,7.8-2.7,11.7C18.6,45,17,50.1,15.3,55.2
		c-0.5,1.6-1.4,3-1.9,4.6c-1.5,4.7-2.3,9.6-2.7,14.6c-0.2,2.8-0.8,5.4-3.7,6.8c-1.4,0.7-1.6,1.8-1.1,3.5c0.4,0,0.8-0.1,1.2-0.1
		c1-0.1,2-0.3,2.9-0.3c0.3,0,0.6,0.5,1,0.8c-0.3,0.2-0.6,0.7-1,0.7C9,85.9,7.9,85.9,6.8,86c-0.2,0-0.6,0.2-0.7,0.3
		c-0.7,1.4-1.5,2.8-1.9,4.2c-0.8,2.8-1.5,5.6-2,8.5c-0.3,1.9-0.6,4,0.6,5.9c1.6,2.6,3.1,5.2,5.6,7.2c1.5,1.1,2.6,1.5,4.3,0.7
		c1.7-0.8,3.6-0.8,5.5-0.5c2.4,0.4,4.7,1.1,7,1.7c1.2,0.3,2.4,0.3,3.7,0.5c-0.8-2-1.4-3.8-2.2-5.5c-1.2-2.8-0.4-5.7-0.3-8.6
		c0-2.3,0.9-4.5,1.6-6.7c0.6-2,1-4,1.5-6.1c-1.6,0-3.1,0-4.6,0c-0.9,0-1.8-0.2-2.4-1.1c-1.6-2.3-3.9-3.4-6.6-3.8
		c-0.8-0.1-1.6,0-2.4-0.2c-0.5-0.1-0.8-0.6-1.3-0.9c0.4-0.3,0.8-0.6,1.2-0.9c0.1-0.1,0.2,0,0.3,0c3.9-0.1,7.3,1.2,9.9,4.1
		c0.8,0.9,1.8,0.9,3,0.9c-0.4-0.5-0.7-0.8-0.9-1.1c-2.4-2.8-4.8-5.6-7.2-8.4c-0.4-0.5-1.1-1.1-0.2-1.7c0.2-0.1,1.1,0.5,1.4,0.9
		c2.3,2.4,4.5,4.9,6.8,7.4c0.6,0.6,1.3,1.1,2.1,1.8c0.5-1.1,0.9-2,1.3-3c1.1-2.4,2.1-4.9,3.2-7.3c0.3-0.6,0.5-0.9,0.2-1.6
		c-1.6-3.9-3.1-7.8-4.5-11.7c-0.6-1.6-1.4-3.3-1.5-5c-0.3-3.2-0.3-6.4-0.2-9.6c0-1.4,0.2-2.7,0.5-4.1c1.8-6.7,4.5-13.1,7.9-19.2
		c0.1-0.3,0.4-0.5,0.4-0.8c0-2.2,0.2-4.4-0.1-6.5c-0.7-4.5-1.7-8.9-2.6-13.4C33.1,1.7,33.1,0.9,33,0c0.5,0,0.9,0,1.4,0
		c0.2,0.5,0.6,1,0.7,1.5c0.7,3.4,1.3,6.8,2,10.2c0.8,3.5,1.3,6.9,1,10.5c0,0.5-0.2,1-0.4,1.5c-1.4,3-2.9,6-4.3,9
		c-2.9,5.9-4.5,12.2-4.3,18.8c0,1.2,0,2.5,0.3,3.6c1.7,5.1,3.4,10.2,5.4,15.2c1.7,4.2,3.1,8.4,3.1,13.2c0.9-0.4,1.8-0.6,2.4-1.1
		c1.6-1.2,3.1-2.6,4.6-3.9c1.2-1,2.4-2.1,3.7-3c3.7-2.5,7.5-5,11.3-7.5c0.1-0.1,0.3-0.2,0.4-0.2c0.4,0,0.8-0.1,1,0.1
		c0.2,0.3,0.3,0.8,0.2,1.1c-0.1,0.4-0.5,0.7-0.8,0.9c-2.6,1.7-5.2,3.4-7.9,5.1c-1.6,1.1-3.4,2-4.8,3.2c-2.6,2.3-4.8,5.1-8.1,6.8
		c0.6,0,1.2,0,1.7-0.1c1.2-0.1,2.5-0.3,3.7-0.1c2.4,0.4,4.8,1.3,7.2,1.5c2.9,0.3,5.8,0.1,8.7,0c3.8-0.1,7.6-0.3,11.4-0.4
		c0.5,0,1,0,1.4-0.3c1.7-0.9,3.1-2.2,4.4-3.5c1.7-1.6,3.7-2.9,5.6-4.3c0.3-0.2,0.9,0.2,1.3,0.3c-0.1,0.4-0.2,1.1-0.5,1.3
		c-0.9,0.6-2,1-2.9,1.7c-1.4,1.1-2.6,2.3-3.8,3.4c0.1,0.1,0.1,0.2,0.2,0.3c6.6-0.8,12.2,1.9,17.7,5.4c0.6-1.1,1.2-2,1.7-3
		c2-4.1,2.8-8.6,3.8-13c0.2-0.8-0.1-1.6-0.2-2.4c-0.1-0.5-0.4-1.1-0.3-1.5c0.6-2.5,1.2-4.9,1.8-7.5c-0.3,0.2-0.5,0.3-0.7,0.5
		c-2.5,2.2-4.9,4.4-7.4,6.6c-0.5,0.5-1.2,1.2-1.9,0.5c-0.7-0.7,0.1-1.3,0.6-1.7c2.7-2.4,5.3-4.8,8-7.2c1.6-1.4,2.6-3,1.6-5.3
		c-0.5-1.3-0.3-2.7,0.3-4c0.5-1,1.1-1.9,0.2-3c-0.1-0.2,0-0.5-0.1-0.8c-0.2-2.2,0.8-4.1,1.2-6.1c0.9-4.4,1.5-8.8,2.3-13.1
		c0.6-3.3,1.4-6.5,1.6-9.8C109,13.8,109,8,109.1,2.2c0-0.1-0.1-0.2-0.2-0.3c-1.7,1.5-2.7,3.3-3.6,5.2c-1,2.2-2.1,4.4-3.3,6.6
		c-0.5,1-1.4,1.2-1.7,0.4c-0.2-0.4-0.1-1,0.1-1.4c1.2-2.6,2.6-5.1,3.8-7.7c1-2.1,2.4-3.7,4.2-5.2c0.8,0,1.5,0,2.3,0
		c0.1,0.5,0.3,1,0.3,1.6c0,5.5,0,11-0.1,16.6c0,1.4-0.4,2.8-0.6,4.2c-0.1,0.7-0.2,1.4-0.3,2.2c0.7-0.3,1.3-0.5,1.9-0.7
		c3.6-0.9,7.1-0.2,10.4,1.2c2.3,1,4.5,1.9,6.7,3c1.5,0.7,2.9,1.6,4.3,2.5c0.3,0.2,0.3,0.9,0.4,1.3c-0.5,0-1,0.2-1.4,0.1
		c-0.3,0-0.5-0.4-0.8-0.6c-1.4-0.8-2.9-1.5-4.3-2.3c-1-0.5-2.1-1-3.2-1.5c-3.4-1.8-7-2.9-10.9-2.4c-2.8,0.4-3.4,1-3.9,3.6
		c0,0.1-0.1,0.1-0.1,0.2c-0.2,1.5-0.5,3-0.8,4.8c1.8-0.4,3.3-1,4.9-1.2c2.6-0.2,5.2,0,7.8,0c3.6,1.9,7.1,3.9,10.7,5.8
		c0.6,0.3,1.1,0.9,0.6,1.5c-0.2,0.3-1.1,0.2-1.6,0c-2.5-1.4-5-2.9-7.4-4.4c-2.9-1.9-6.1-1.9-9.3-1.4c-1.8,0.3-3.6,0.6-5.5,1
		c-0.2,0-0.5,0.2-0.6,0.4c-0.1,0.6-0.2,1.2-0.2,1.9c3.3-0.8,6.4-0.6,9.4,0.4c2.8,0.9,5.5,2,8.2,3c0.6,0.2,1,0.8,0.6,1.3
		c-0.2,0.3-0.9,0.3-1.3,0.3c-0.2,0-0.4-0.2-0.6-0.3c-2.5-1.2-5.1-2.3-7.8-3c-2.5-0.6-4.9-1-7.4-0.5c-1.2,0.2-1.3,0.3-1.1,1.2
		c2.3,0.8,4.6,1.4,6.6,2.4c3.7,1.7,6.9,4.2,9.8,7c0.5,0.5,1,0.9,0.4,1.6c-0.6,0.6-1.2,0.3-1.7-0.2c-2.4-2.4-5-4.4-7.9-6.2
		c-2.1-1.3-4.4-2.1-6.8-2.7c-0.5-0.1-0.9,0-1.1,0.6c-0.3,1.4-0.8,2.7-1.1,4.1c-0.2,0.9-0.1,1.8,0,2.6c0.2,1.2,1.3,1.1,2.1,1.4
		c1.9,0.8,3.7,1.8,5.5,2.7c0.9,0.5,1.9,0.8,2.6,1.5c1.8,1.8,3.4,3.7,5.1,5.5c0.5,0.5,1,1.1,1.3,1.7c0.2,0.3,0,0.9,0.1,1.3
		c-0.4,0-0.9,0-1.3-0.1c-0.3-0.1-0.4-0.4-0.6-0.6c-1.1-1.3-2.2-2.6-3.4-3.9c-1-1.1-2-2.2-3.2-3.1c-1-0.8-2.3-1.3-3.4-1.8
		c-1.2-0.6-2.4-1.2-3.7-1.8c-0.6-0.3-1.1-0.1-1.5,0.6c-0.7,1.3-0.7,2.6-0.4,4c0.3,1.5,0.3,3,0.2,4.5c-0.1,1.3-0.5,2.5-0.7,3.8
		c8.6,2.2,15.6,7.3,22.9,12.1c0.3-1.2,0.6-2.2,0.7-3.3c0.2-1.9,1-3.4,2.4-4.7c0.5-0.5,0.7-1.4,1-2.2c0.3-0.7,0.3-1.4,0.7-2
		c0.4-0.7,0.6-1.3,0.2-2.1c-0.5-1.1-1-2.3-1.3-3.5c-0.1-0.3,0.2-0.6,0.3-1c0.3,0.2,0.7,0.3,0.8,0.6c0.6,1.1,1.1,2.2,1.6,3.4
		c0.2-0.1,0.3-0.1,0.4-0.2c1.6-0.7,1.6-0.7,0.9-2.2c-0.3-0.6-0.6-1.2-0.8-1.7c-0.2-0.5-0.5-1-0.6-1.6c0-0.3,0.4-0.7,0.6-1
		c0.3,0.2,0.6,0.4,0.8,0.7c0.5,0.9,0.9,1.9,1.3,2.5c0.8-1.4,1.6-2.8,2.3-4.2c0.1-0.3,0.2-0.7,0-1c-0.8-1.4-1.6-2.8-2.4-4.2
		c-0.3-0.6-1-1.2-0.3-1.8c0.8-0.5,1.1,0.4,1.5,0.9c0.9,1.2,1.7,2.5,2.6,3.7c0.1,0,0.2,0,0.3-0.1c0-1,0.1-1.9,0-2.9
		c-0.2-2.6,0.3-5,1.6-7.2c0.4-0.7,0.7-1.6,0.6-2.5c-0.1-2.8,0.5-5.3,1.8-7.8c1.3-2.5,1.9-5.2,1.7-8c-0.2-2.5,0.2-5,0.8-7.5
		c0.5-2.1,0.8-4.2,0.9-6.4c0.1-2.5-0.1-5-0.2-7.5c0-0.7,0.2-1.5,0.2-2.2c0.4,0,0.8,0,1.1,0c0.1,0.5,0.4,0.9,0.4,1.4
		c0.1,3.5,0.3,6.9,0.2,10.4c0,1.6-0.5,3.3-0.9,4.9c-0.7,2.2-0.9,4.5-0.7,6.7c0.2,3.4-0.6,6.5-2.2,9.5c-1.1,2.1-1.6,4.3-1.4,6.7
		c0.1,1.3-0.2,2.4-0.9,3.4c-1,1.6-1.6,3.4-1.4,5.4c0.1,1.1,0,2.3,0,3.4c0.1,1.5-0.4,2.8-1.6,3.7c-1.4,0.9-1.7,2.2-2,3.6
		c-0.4,1.9-1.3,3.3-3,4.3c-1.4,0.8-2,2.1-2.2,3.6c-0.2,1.2-0.6,2.3-1.4,3.1c-1,1.1-1.6,2.2-1.9,3.7c-0.8,4-1.5,8.1-3.6,11.7
		c-1.2,2.1-1.6,4.3-2.1,6.6c-0.3,1.6-0.4,3.3-0.3,4.9c0.2,3.3-0.5,6.2-2.6,8.8c-0.7,0.8-1.2,1.8-1.8,2.7c-0.7,1-1.1,2-1,3.3
		c0.2,3.2-0.1,6.5,0.1,9.7c0.2,4.5,0.6,9,0.9,13.5c0.1,1.7,0.2,3.5,0.3,5.2c0.3,4.8,0.4,9.6,1,14.3c0.9,7.1,0.7,14.1,0.3,21.2
		c-0.1,1.9-0.9,3.8-1.3,5.7c-0.1,0.5-0.1,1,0.1,1.5c1.5,4.9,1.6,9.9,1.2,15c-0.3,3-1.1,6-1.8,9c-1,4.9-1.9,9.9-4.1,14.5
		c-2.2,4.4-4.6,8.8-7,13c-2,3.4-4.1,6.6-6.3,9.8c-3.2,4.4-6.7,8.5-9.8,12.9c-2.5,3.6-4.6,7.5-6.7,11.3c-2.1,3.9-4.1,7.9-6.1,11.9
		c-0.3,0.5-0.5,1-0.8,1.5c-1.6,2.2-1.4,4.4-0.2,6.6c1.5,2.7,2.2,5.6,2.9,8.5c0.1,0.4-0.2,0.8-0.4,1.2c-3.1,0-6.2,0-9.4,0
		c1.4-3.1,2.9-6.1,4.3-9.2c0.2-0.4,0.1-1,0.2-1.5c-0.1,0-0.2-0.1-0.4-0.1c-0.5,0.2-1.2,0.4-1.4,0.8c-1.8,3.3-3.5,6.7-5.2,10
		C49.4,298.2,29.8,298.2,10.1,298.2z M62.3,237.4c-0.8,0.5-1.4,0.8-2,1.1c-0.3,0.1-0.6-0.2-1-0.3c0.1-0.3,0.2-0.6,0.4-0.8
		c0.2-0.2,0.5-0.4,0.7-0.5c0.8-0.4,1.1-1,1.1-2c0.1-3.1,0.2-6.2,0.7-9.3c0.4-2.9,1.5-5.8,2-8.7c0.8-5.1,1.8-10.1,2-15.2
		c0.1-2.8,0.2-5.6,1.1-8.3c0.7-2.4,1.7-4.7,3.1-6.9c2-3.1,3.9-6.3,5.8-9.5c2.2-3.8,4.3-7.8,6.7-11.5c1.9-3,4.1-5.8,6.3-8.6
		c3.7-4.8,6.9-10,9.6-15.4c2.4-4.9,4.7-10,7.7-14.6c1.5-2.3,2.9-4.7,4.4-7.1c2.7-4.3,5.4-8.7,8.2-12.9c2.1-3.1,3.9-6.2,3.6-10.2
		c-0.3-3.9,0.6-7.7,2.1-11.4c-1.5-1.6-20-12.3-21.5-12.5c-0.6,6.5-2.2,12.8-5.6,18.5c1.6,0.8,1.8,2.3,1.5,3.8
		c-0.2,1.2-1.5,1.6-2.5,1.9c-0.6,0.2-1.4,0.2-2,0.1c-1-0.1-1.5,0.1-1.4,1.2c0,0.3-0.2,0.7-0.4,1.1c-0.6,1.3-1.2,2.6-1.7,3.9
		c0.8,0.4,1.5,0.8,2.2,1.2c2,1.3,2,3.5-0.1,4.7c-1.1,0.6-2.4,1.1-3.6,1.6c0.5,2.9,0.4,3.3-2.4,4.6c-0.1,0.1-0.3,0.1-0.4,0.2
		c-1.1,0.4-2.4,0.5-2.3,2.2c0,0,0,0.1,0,0.1c-1.6,1.1-2.1,2.8-2.1,4.6c0,0.2-0.2,0.5-0.3,0.7c-0.4,0.8-0.8,1.5-1.2,2.3
		c-1.4,3.2-2.6,6.5-4.1,9.7c-2.2,4.8-4.5,9.5-6.8,14.2c-2.8,6-5.5,12-9.1,17.6c-2.8,4.4-5.2,9.2-7.5,13.9c-1.7,3.6-3.1,7.3-4.5,11.1
		c-0.8,2.4-1.1,4.9-1.9,7.3c-0.9,2.9-1.9,5.9-3.2,8.7c-1.3,2.7-3.3,5.1-4.9,7.6c-2.4,3.8-3.9,7.9-4,12.4c-0.1,2.6-0.4,5.3-0.6,7.9
		c-0.1,1.2-0.2,2.5-0.2,3.7c1-0.1,2-1.2,2.8,0.5c-0.8,0.4-1.6,0.8-2.4,1.2c0.6,1.4,1.2,2.8,1.9,4.1c1,2,2.2,3.9,3.3,5.9
		c0.6,1.1,1.6,1.7,2.8,1.5c0.9-0.2,1.5-1,1.2-1.9c-1-2.9-2-5.7-3-8.5c-0.2-0.6-0.4-1.2-0.4-1.9c0-3.2,0-6.5,0-9.7
		c0-0.4,0-0.8,0.2-1.1c0.1-0.3,0.5-0.5,0.7-0.7c0.2,0.3,0.6,0.6,0.7,0.9c0.2,2.6,0.3,5.2,0.5,7.8c0.1,2.1,0.5,4,1.8,5.8
		c0.4-0.3,0.8-0.7,1.2-0.9c0.3-0.1,0.7-0.1,1-0.1c0,0.4,0,0.8-0.2,1.1c-0.1,0.3-0.5,0.5-0.7,0.7c1.8,1.5,6.4,2.8,8.2,2.3
		c-1.1-0.8-2.1-1.7-3.3-2.3c-1.8-0.9-2.5-2.1-2.5-4.2c0.1-3.2-0.2-6.4-0.3-9.7c0-0.3,0.4-0.5,0.7-0.8c0.2,0.3,0.6,0.5,0.6,0.8
		c0.3,3.5,0.5,7,0.7,10.4c0,0.6,0.2,1,0.7,1.4c1.4,0.8,2.8,1.7,4.1,2.7c1.3,1.1,2.8,1.1,4.5,0.8c-1.3-2.1-2.4-4-3.6-5.9
		c-0.7,0.4-1.2,0.8-1.8,1c-0.2,0.1-0.6-0.2-0.9-0.3c0.1-0.3,0.1-0.6,0.3-0.8c0.3-0.3,0.7-0.4,1-0.7c0.2-0.2,0.2-0.5,0.2-0.8
		c0-2.6,0-5.2,0.1-7.8c0-0.3,0.5-0.6,0.8-0.9c0.2,0.3,0.5,0.7,0.5,1c0,1.7-0.1,3.4,0,5c0.1,1,0.4,2.1,0.8,3c0.7,1.3,1.8,2.5,2.5,3.8
		c0.6,1.1,1,2.3,1.6,3.6c2.1,0.2,4-1.4,3.4-3.4C63.7,240.7,62.9,239.1,62.3,237.4z M28.2,116.5c-0.9,2.2-1.5,4.2-2.5,6.1
		c-2.3,4.3-3.2,9.1-4.2,13.8c-0.9,4.1-1.8,8.3-3,12.3c-0.6,2-1.9,3.8-2.8,5.7c-0.8,1.7-1.5,3.4-1.5,5.3c0,1.4,0.3,2.2,1.6,3.1
		c2.3,1.5,4.6,2.8,7.1,3.7c4.3,1.6,8.5,3.5,13,4.7c3.4,0.9,7.1,0.8,10.6,1.3c2.8,0.4,5.5,1.1,7.9,2.6c1.8-3.1,3.5-6.2,5.3-9.2
		c1.3-2.1,2.8-4.2,3.9-6.4c2-4,3.8-8.2,5.7-12.2c1.4-2.9,2.9-5.7,4.2-8.6c1.1-2.3,1.9-4.8,3-7.1c1.4-3.1,2.9-6.1,4.4-9.2
		c0.2-0.4,0.3-0.8,0.4-1.2c0.2-1-0.2-1.5-1.3-1.6c-0.9-0.1-1.7-0.3-2.6-0.4c-3.4-0.6-6.7-1.2-10.1-1.7c-2.6-0.3-5.3-0.3-8-0.5
		c-3.3-0.2-6.6-0.7-9.6-2.5c-1.5-0.9-3.1-1.7-4.6-2.5c-0.6,1.1-1,2.1-1.7,3c-0.5,0.6-1.2,1.3-1.9,1.5c-1.9,0.6-3.9,0.9-5.9,0.7
		C33,116.9,30.5,116.7,28.2,116.5z M117.1,113.1c-0.3,0.4-0.5,0.6-0.6,0.8c-2.6,4.2-5.2,8.5-7.8,12.7c-1.4,2.3-2.9,4.5-4.1,7
		c-3.8,7.8-7.2,15.6-12.6,22.5c-1.8,2.3-3.5,4.6-5.2,6.9c-0.7,0.9-1.4,1.7-1.9,2.7c-2.1,3.6-4.2,7.3-6.3,11
		c-0.8,1.3-0.5,1.8,1.1,1.9c2.2,0.2,4.4,0.3,6.6,0.8c6,1.4,12.1,2.5,18.2,2.7c4.4,0.2,8.8-0.4,13.2-0.6c0.3,0,0.6-0.4,0.7-0.7
		c0.9-2.8,1.3-5.6,1.2-8.5c0-4.9,0.1-9.8-0.2-14.7c-0.2-4.5-0.9-9.1-1.3-13.6c-0.3-4.3-0.5-8.6-0.7-12.9c-0.2-5.5-0.2-11-0.2-16.6
		C117.1,114.2,117.1,113.8,117.1,113.1z M68.8,115.6c0-0.1,0.1-0.2,0.1-0.4c-1.7-0.9-3.4-1.8-5.1-2.8c-0.9-0.5-1.8-1-2.6-1.6
		c-0.2-0.1-0.2-0.6-0.2-0.9c0.3,0,0.5-0.1,0.8-0.1c0.2,0,0.5,0.2,0.7,0.3c2,1,3.9,2.1,5.9,3.1c2.3,1.2,4.7,1.9,7.3,1.8
		c2.2,0,4.4-0.3,6.6-0.5c0.2,0,0.5-0.4,0.6-0.7c0.2-1,0.4-2.1,0.5-2.9c-3.4-0.3-6.9-0.5-10.4-0.9c-1.9-0.2-3.8-0.6-5.2-2
		c-0.8-0.8-1.5-1.6-2.3-2.4c-0.8-0.7-1.6-1.4-2.4-2.1c-0.2-0.2-0.4-0.7-0.3-1c0.1-0.2,0.6-0.4,0.9-0.4c1.1,0.2,2.2,0.4,3.3,0.7
		c2.2,0.8,4.2,1.7,6.4,2.4c1.8,0.6,3.7,0.8,5.5,1.3c2.7,0.7,5.4,1.4,8.2,2.1c0.6,0.1,1.2,0.1,1.6,0.1c0.3-1.5,0.5-2.8,0.8-4.2
		c-0.4-0.1-0.9-0.1-1.4-0.2c-2.8-0.6-5.7-1-8.2-2.7c-0.9-0.7-2.2-1.2-3.3-1.3c-3.5-0.5-6.3-2.8-9.4-4.1c-0.2-0.1-0.3-0.7-0.4-1
		c0.3-0.1,0.7-0.3,1-0.3c0.5,0.1,1,0.2,1.4,0.5c0.7,0.4,1.1,0.1,1.6-0.4c1.3-1.5,2.9-2.7,4.8-2.9c1.9-0.2,3.9-0.4,5.9-0.2
		c2.2,0.2,4.5,0.6,6.7,1.1c1.9,0.5,3.7,1.2,5.4,1.9c0.2-1.2,0.4-2.4,0.6-3.7c-2.7-1.8-5.8-3.2-9.1-4.1c-2.5-0.7-5-0.8-7.5-0.2
		c-2.6,0.6-5.2,1-7.9,1c-2.9,0-5.9,0-8.8,0.3c-4.9,0.6-9.8,0-14.5-1.2c-4.1-1-6.9,0.2-8.8,3.3c-2.5,4.1-4.1,8.7-3.7,13.7
		c0.1,0.7,0.3,1,1,1c1.3,0.1,2.7,0.4,4,0.6c2.4,0.5,4,2.2,5.9,3.5c3.1,2.1,6.3,4.2,10,5.2c1.8,0.5,3.7,0.6,5.6,0.7
		C63,115.3,65.9,115.4,68.8,115.6z M31.2,87.4c-0.4,1.7-0.8,3.3-1.2,4.9c-0.7,3.1-2,6.1-2,9.4c0,2.2-0.5,4.4,0.3,6.5
		c0.7,1.9,1.6,3.8,2.3,5.7c0.3,0.7,0.7,0.9,1.4,0.9c1.2,0,2.3,0.2,3.5,0.2c1,0,2.1,0,3.1,0c-0.3-0.6-0.6-1-0.9-1.2
		c-2.5-1.8-4-4.4-5.2-7.1c-0.3-0.7-0.6-1.4-0.6-2.1c-0.3-4.4,0.6-8.5,2.6-12.4c0.9-1.7,2-3.4,3-5.1C35.5,87.2,33.4,87.3,31.2,87.4z
		 M104.1,66.1c-0.3,1.3-0.4,2.3-0.8,3.3c-0.3,0.8,0,1.2,0.7,1.5c2,1,4.1,2,6,3.1c2.8,1.6,5.6,3.3,8.4,4.9c2.4,1.4,4.8,2.6,7.4,4
		c0.3-1.1,0.7-2.3,1.1-3.6c0.1-0.2-0.1-0.6-0.3-0.8c-1.5-1.1-3.1-2.1-4.6-3.1c-2-1.3-4.1-2.4-6-3.8
		C112.5,69.1,108.3,67.9,104.1,66.1z M30.7,222.9c-2.2,5.2-4.5,10.3-6.3,15.6c-1.5,4.4-2.5,9-3.7,13.5c-0.6,2.4-0.6,4.8-0.2,7.4
		c1.5-1.4,2.1-3.1,2.4-5c0.5-3.1,1.5-6.1,2.1-9.2c0.5-2.7,1.1-5.3,2.3-7.6c2.1-4.1,3.7-8.4,5-12.8c0.1-0.3,0.2-0.7,0.2-1
		C31.7,223.5,31.2,223.2,30.7,222.9z M31.7,171.8c-1.1-1-1.3-1.1-2.3,0.2c-0.4,0.5-0.5,1.2-0.7,1.9c-1.3,4.1-1.4,8.4-1.5,12.6
		c0,1,0.1,2-0.1,3c-0.3,1.9,0.1,3.6,1.3,5.1c1.7,2.2,3,4.5,2.9,7.4c0,0.3,0.1,0.7,0.3,0.9c0.2,0.2,0.6,0.3,1,0.4
		c0.1,0,0.4-0.3,0.4-0.4c0-1,0-2-0.2-2.9c-0.3-1.4-0.7-2.8-1.1-4.2c-0.1-0.2-0.2-0.4-0.3-0.6c-1.5-1.8-2.6-3.7-2-6.1
		c0-0.1,0-0.2,0-0.2c0-2.5-0.2-5.1,0.1-7.5C30.1,178.1,31,175,31.7,171.8z M89.2,102.9c0.9-2.3,1.7-4.4,2.6-6.6
		c-3.1-1.4-6.2-2.3-9.7-2.5c3.3,2.5,1.1,4.8-0.1,7.4C84.5,101.8,86.8,102.4,89.2,102.9z M34.7,75.9c-0.1,0-0.3,0-0.4,0
		c-1.3,3.2-2.6,6.4-3.8,9.5c1.9,0,3.8,0,5.6,0c-0.1-1.8-0.1-3.4-0.3-5C35.5,78.9,35,77.4,34.7,75.9z M80.6,100.1
		c0.2-0.5,0.5-0.9,0.7-1.4c0.3-0.8,1-1.8,0.7-2.3c-0.7-1.1-1.8-2.5-2.9-2.8c-1.9-0.5-3.9-0.1-5.5,1.4c0.6,0.7,1.2,1.4,1.8,2.2
		c0.7-0.3,1.3-0.7,2.1-0.9c0.3-0.1,0.7,0.2,1,0.4c-0.1,0.3-0.2,0.7-0.4,0.9c-0.4,0.4-1,0.6-1.6,0.9C77.9,99.1,79.2,99.6,80.6,100.1z
		 M67.1,105.2c2,2.8,8.4,4.8,13.1,3.8C75.7,107.7,71.4,106.5,67.1,105.2z M84.3,114.7c1.1-0.4,2.2-0.8,3.2-1.3
		c0.4-0.2,1-0.8,0.9-1.1c-0.1-0.6-0.5-1.3-0.9-1.5c-0.6-0.2-1.6-0.2-2,0.2C84.5,111.8,83.8,112.9,84.3,114.7z M90.2,108.8
		c0.9-0.4,1.7-0.7,2.4-1.2c0.3-0.2,0.7-0.8,0.6-0.9c-0.4-0.5-0.9-1-1.5-1.4c-0.2-0.1-0.6,0-0.8,0.2
		C89.8,106.3,90.2,107.5,90.2,108.8z M94.9,95.4c0.6-0.1,1-0.1,1.5-0.2c1.2-0.3,1.7-1,1.2-1.8c-0.4-0.6-1.4-0.9-2.2-1.2
		c0,0-0.4,0.4-0.4,0.7C94.9,93.6,94.9,94.4,94.9,95.4z M77.2,117c1.5,0.3,3,0.7,4.6,0.9c0.5,0,1.2-0.6,1.6-1
		c0.4-0.4,0.1-0.7-0.5-0.7C80.9,116.5,79.1,116.8,77.2,117z M71.4,96.6c0.7,0.4,1.3,0.7,1.8,1c0-0.1,0.1-0.1,0.1-0.2
		c-0.4-0.5-0.8-1-1.2-1.5C71.9,96.1,71.7,96.3,71.4,96.6z"/>
	<path class="st0" d="M78.2,154c-1.6-1.3-1.7-1.9-0.5-3.5c0.3-0.4,0.6-0.9,1-1.2c0.3-0.2,0.9-0.4,1.2-0.3c0.2,0.1,0.5,0.7,0.4,1
		C80.1,151.6,79,152.7,78.2,154z"/>
	<path class="st0" d="M81.9,155.5c-0.8,0-1.2-0.6-0.9-1.3c0.7-1.3,1.5-2.5,2.4-3.7c0.2-0.2,0.9-0.3,1.2-0.2c0.2,0.1,0.5,0.8,0.3,1
		c-0.8,1.3-1.7,2.6-2.6,3.8C82.3,155.4,82,155.4,81.9,155.5z"/>
	<path class="st0" d="M73.3,160.4c-0.1,0.3-0.2,0.6-0.3,0.8c-0.6,0.8-1.1,1.7-1.8,2.5c-0.2,0.3-0.8,0.5-1.1,0.4
		c-0.2-0.1-0.6-0.7-0.5-1c0.4-1.3,0.7-2.8,2.1-3.5c0.3-0.2,0.8-0.2,1.1-0.1C73,159.6,73.1,160.1,73.3,160.4z"/>
	<path class="st0" d="M84.4,143.3c-0.2,0.4-0.3,0.7-0.4,0.9c-0.6,0.8-1.2,1.7-1.9,2.4c-0.2,0.3-0.8,0.3-1.2,0.4
		c-0.1-0.4-0.5-1-0.3-1.3c0.7-1.1,1.5-2.1,2.3-3.1c0.2-0.2,0.7-0.2,0.9-0.1C84.1,142.7,84.2,143,84.4,143.3z"/>
	<path class="st0" d="M76.8,159.7c0.7-1.1,1.2-2.2,1.9-3.1c0.2-0.2,0.8-0.3,1.1-0.1c0.2,0.1,0.4,0.8,0.2,1c-0.5,1-1,2-1.6,2.9
		c-0.2,0.2-0.7,0.4-1.1,0.3C77.1,160.6,77,160.1,76.8,159.7z"/>
	<path class="st0" d="M74.8,157.3c-0.7,0-1.3-0.3-1.4-1.2c0-0.7,1-1.8,1.8-1.7c0.4,0.1,1.1,0.5,1.1,0.9
		C76.5,156.4,75.8,157.3,74.8,157.3z"/>
</g>
</svg>
