<?xml version="1.0" encoding="utf-8"?>
<!-- Generator: Adobe Illustrator 19.1.0, SVG Export Plug-In . SVG Version: 6.00 Build 0)  -->
<svg version="1.1" id="Layer_1" xmlns="http://www.w3.org/2000/svg" xmlns:xlink="http://www.w3.org/1999/xlink" x="0px" y="0px"
	 viewBox="0 0 150 108.2" style="enable-background:new 0 0 150 108.2;" xml:space="preserve">
<style type="text/css">
	.st0{fill:#E91E63;}
</style>
<g id="ringworm-leg">
	<path class="st0" d="M73.3,0c0.7,0,1.4,0,2,0c-0.8,1.3-1.7,2.6-2.3,4c-3.8,7.9-9.1,14.7-15.3,20.9c-1.4,1.4-1.1,2.4,0.6,3.3
		c1.2,0.7,2.3,1.6,3.4,2.5c2.2,1.9,4.3,4.2,7.7,3.6c2.3-0.4,4.6-0.6,7-0.8c1.9-0.2,3.8-0.4,5.7-0.5c1.3,0,2.6,0.3,3.8,0.2
		c0.4,0,1.1-0.7,1.2-1.1c0.4-1.2,0.5-2.5,0.7-3.7c0.3-1.8,0.8-3.7,1-5.5c0.5-4.3,1-8.7,1.3-13c0.1-1.8-0.3-3.6-0.6-5.4
		c-0.2-1.5-0.6-2.9-1-4.3c14.7,0,29.4,0,44.1,0c0.2,1.2,0.4,2.5,0.5,3.8c2.2-1.5,2.2-1.5,2.5-3.8c0.5,0,0.9,0,1.4,0
		c0.1,1.4,0.1,2.9-1.1,3.9c-2.7,2.1-5.5,4-8.1,6.2c-2.4,2-4.6,4.1-6.8,6.2c-3.7,3.6-7.2,7.4-11.1,10.8c-3.4,2.9-7.1,5.4-10.7,8.1
		c1.6,2.2,1.6,2.2,0.8,3.1c-1.8-1.7-3.7-3.2-6.5-2.8c-0.8,0.1-1.8-0.6-2.7-0.8c-0.7-0.2-1.5-0.6-2.1-0.3c-2.5,0.9-4.9,0.6-7.4,0.3
		c-1.5-0.2-3-0.2-4.5,1.2c0.5,0.3,0.8,0.6,1.1,0.7c2.2,0.7,4.5,1.5,6.8,2.1c2.2,0.5,3.7,2.2,2.7,3.8c-1.5,2.5-3,5-5,7.1
		c-3.1,3.2-4.8,6.9-5.9,11c1.2,1.1,2,1.1,2.8-0.4c0.9-1.6,2-3.1,3.1-4.5c0.7-0.9,1.6-1.5,2.5-2.3c0.2,0.2,0.4,0.3,0.6,0.5
		c-0.5,1-1,2-1.6,2.9c-1.1,2-2.5,3.9-3.4,5.9c-0.4,0.8-0.4,2.5,0.1,2.9c1.2,0.9,1.9-0.5,2.5-1.3c1.9-2.5,3.7-5.2,5.5-7.8
		c0.3-0.4,0.8-0.5,1.2-0.7c0,0.5,0.3,1.2,0,1.6c-1.2,2.2-2.6,4.3-3.9,6.4c-0.1,0.2-0.4,0.4-0.5,0.7C85.2,65,85.1,65.5,85,66
		c0.7,0,1.5,0.4,2,0.1c0.9-0.6,1.7-1.5,2.3-2.4c1.3-2,2.5-4.1,3.8-6.1c0.3-0.4,1-0.5,1.5-0.8c0,0.6,0.1,1.2-0.1,1.7
		c-0.5,1-1.1,1.9-1.7,2.9c-0.5,0.9-1,1.8-1.5,2.8c2.2,0.2,3.1-1.2,3.9-2.4c1.8-2.5,3.4-5.2,5.1-7.8c0.8-1.2,2.2-2.2,2.8-3.5
		c1.5-3.1,3.3-5.9,5.8-8.2c4.4-4.1,9.2-7.7,14.3-10.8c5.7-3.4,11-7.2,15.4-12.1c2.6-2.9,5.3-5.7,7.8-8.6c0.5-0.6,0.9-1.6,0.8-2.3
		c-0.7-3.2,1-5.8,1.8-8.6c0.3,0,0.7,0,1,0c0,1.1,0.1,2.2-0.1,3.2c-0.2,1.3-0.9,2.6-0.9,3.9c0,2.4-0.3,4.4-2.1,6.3
		c-3.4,3.5-6.6,7.2-10,10.7c-1.4,1.4-3.2,2.5-3.1,4.7c0.1,2-0.1,4.3,0.9,5.8c1.4,2.2,1.8,4.5,2,6.9c0.5,6-0.5,11.9-2,17.7
		c-2.3,9.6-8.4,15.5-17.5,18.6c-1.5,0.5-1.9,1.1-1.9,2.6c0,4.9,0.6,9.8-0.9,14.5c-0.3,0.9-0.3,2-0.4,3c-0.1,3.4-0.2,6.8-0.3,10.3
		c-0.5,0-0.9,0-1.4,0c0-2.1-0.1-4.3,0-6.4c0-2.5-0.2-5.1,0.3-7.5c1.3-5.2,1.2-10.3,0.6-15.2c-10.4-1.8-20.8-3.5-31.2-5.3
		c0.1,0.9,0.2,2,0.4,3.1c0.8,5.4,1.3,10.9,3,16.1c1.6,4.9,2.4,10,2.7,15.1c-0.6,0-1.1,0-1.7,0c-0.2-1.4-0.5-2.7-0.7-4.1
		c-0.1-0.8,0.1-1.6-0.2-2.3c-2.6-9-4.6-18.1-5.5-27.4c-0.1-1.1-0.7-1.4-1.5-1.7c-2.3-0.7-4.7-1.3-7-2.2c-6.8-2.6-13.8-4.1-21.1-4.3
		c-2.2-0.1-4.5-0.2-6.7-0.3c-2.7-0.2-2.9-0.1-3.1,2.2c-0.3,5.1-1.6,9.9-3.5,14.5c-1.3,3.1-3.3,5.8-4.9,8.7c-1.8,3.2-3.5,6.6-5.3,9.8
		c-1.4,2.4-2.8,4.8-4.3,7.2c-0.5,0-0.9,0-1.4,0c0.2-0.7,0.2-1.4,0.5-2c0.8-1.5,1.7-2.9,2.5-4.3c1.8-3.3,3.4-6.6,5.3-9.8
		c2.2-4,5.5-7.4,6.5-12c0.9-3.7,2.1-7.3,2.7-11c0.6-3.5-0.1-7-1.9-10.2c-0.2-0.4-0.3-1.1-0.1-1.5c0.2-0.3,0.9-0.3,1.4-0.4
		c0.3,0,0.6-0.1,0.8,0c2,0.4,3.9,0.7,5.9,1.2c0.4,0.1,0.6,0.9,0.9,1.3c-0.1,0.1-0.2,0.3-0.4,0.4c-2-0.4-4-0.9-6.2-1.3
		c0.3,3.3,1.6,4.9,4.3,5.3c1.5,0.2,3.1,0.2,4.7,0.3c4.8,0.5,9.5,1.1,14.3,1.7c6.6,0.8,12.3,5.1,19.2,5.2c2.8,0,5.6,0.8,8.4,1.3
		c5,0.9,10.1,1.9,15.1,2.9c2.4,0.5,4.9,0.9,7.3,1.3c-4.9-6.6-8.4-13.7-11.4-21.5c-1.7,2.7-3.2,5.1-4.8,7.5c-1.3,2-2.7,3.8-5.6,3.6
		c-0.6,0-1.5,0-1.8,0.4c-1.7,1.8-3.3,2.2-5.9,0.3c-3,1.5-4.6,0.4-4.9-3.6c-0.4-0.1-0.8-0.3-1.2-0.5c-2.4-0.8-2.9-1.7-2.1-4
		c1.1-3.1,2.4-6,4.5-8.6c2.3-2.8,4.5-5.8,6.9-8.9c-0.7-0.4-1.2-0.7-1.7-0.9c-1.7-0.5-3.4-0.9-5.1-1.4c-1.7-0.5-3.4-1-4.1-3
		c-0.1-0.3-0.8-0.7-1.2-0.7c-1.2,0.2-2.5,0.5-3.7,0.8c0.8,0.8,1.6,1.3,2.5,1.4c1.3,0.2,1.5,0.9,1.5,2c-0.1,1.5-1.3,2.1-2.5,2.3
		c-3.1,0.5-6,0.1-8.5-2.2c-0.4-0.4-1-0.7-1.5-1.1c-1.2-0.8-2-0.1-2.4,0.8c-0.3,0.7-0.5,1.6-0.4,2.3c0.9,3.8,1.8,7.7,3,11.4
		c1.1,3.2-0.8,6.7-4.2,6.7c-1.7,0-3.5-0.9-5.3-0.1c-0.2,0.1-0.7-0.1-0.9-0.3c-1.2-0.8-2.3-1.7-3.5-2.5c-0.2-0.2-0.6-0.4-0.9-0.3
		c-2.1,0.7-3.1-0.7-3.8-2.2c-2.4-4.8-3.8-9.9-2.3-15.3c0.2-0.9,0-1.9,0-2.9c-0.6,0-1.2-0.1-1.6,0c-2.9,0.7-5.8,1.4-8.8,2
		c-1.7,0.4-3.5,0.9-4.4,2.5c-0.9,1.6-1.8,3.4-2.5,5.1c-1.4,3.6-2.6,7.2-4,10.8c-2.2,5.5-4.8,10.9-6.8,16.5
		c-3.6,10.4-6.4,21.2-11.2,31.2c-0.6,1.3-1.4,2.5-2.1,3.7c-0.1,0-0.2,0-0.3,0c0-0.7-0.2-1.5,0-2.1c1.4-3.7,3.1-7.4,4.4-11.2
		c2.4-7,4.3-14.1,6.9-21c3.8-10.2,7.9-20.4,12-30.5c1.5-3.7,3.8-6.4,8.2-6.9c2.8-0.3,5.6-1.2,8.4-1.9c0.6-0.2,1.4-0.8,1.6-1.4
		c0.6-1.4,0.9-2.8,1.2-4.3c0.3-1.3,0.2-2.9,0.9-4.1c1.9-3.3,2.5-7.1,3.9-10.6c2-5,4.9-9.6,7.4-14.3c0.8,0,1.6,0,2.4,0
		c-1.3,2.2-2.5,4.4-3.8,6.7c-1.4,2.5-2.9,5-4.1,7.6c-0.7,1.6-1.1,3.4-1.4,5.1c-0.6,3.4-2.7,6.1-3.5,9.5c-0.9,4.2-0.7,8.4-1.7,12.6
		c-1,4.2,1.1,7.9,2.2,11.8c0.2,0.5,0.5,1,0.9,1.4c0.2,0.2,0.6,0.3,0.8,0.3c0.2,0,0.4-0.4,0.4-0.6c-0.3-1.6-0.2-3.5-1.2-4.6
		c-1.2-1.4-0.7-2.6-0.8-4c1.7,0.3,1.9,1.6,2.3,2.7c0.6,1.9,1.2,3.9,1.7,5.9c0.6,2.5,2.5,3.1,4.6,4.1c0-0.5,0.2-0.8,0-1
		c-0.9-1.6-2.1-3.1-2.8-4.8c-0.7-1.7-1-3.5-1.4-5.3c-0.1-0.3,0.4-0.8,0.6-1.2c0.2,0.3,0.6,0.6,0.7,1c0.9,3.4,2.1,6.6,4.4,9.4
		c1,1.2,2.3,1.9,3.5,1.5c-1.2-2.3-3-4.4-3.6-6.8c-0.6-2.4-2-4.9-1-7.6c2.2,4.3,2.5,9.6,6.4,13.1c1.1-0.6,1-1.5,0.6-2.6
		c-1.8-4.3-2.9-8.7-3.1-13.3c-0.1-1.7,0.9-3,2.2-3.6c0.7-0.4,2,0.3,3,0.6c0.5,0.2,1,0.8,1.5,1.1c1.2,0.7,2.4,1.5,3.7,1.8
		c1.6,0.4,3.3,0.5,4.7-1.2c-0.5-0.2-0.8-0.4-1.2-0.5c-4.7-1.7-9-4.1-12.4-7.9c-0.4-0.5-1.1-0.8-1.7-1c-1.5-0.4-2.4-1.5-2.9-2.9
		c-0.6-1.6-2.4-2.4-4-1.9c-0.5,0.2-1.1-0.2-1.7-0.3c0.4-0.4,0.6-1,1.1-1.3c1.9-1,3.5,0,5.3,1.2c3.4-4,6.8-7.8,10-11.5
		c-1.5-2.1-2.9-3.9-4.1-5.7c-0.2-0.4-0.1-1-0.1-1.5c0.5,0.1,1.2,0,1.4,0.3c0.9,1.1,1.7,2.4,2.4,3.6c0.8,1.2,1.5,1.4,2.1,0.4
		C69.4,6.8,71.3,3.4,73.3,0z"/>
	<path class="st0" d="M67.1,50.4c0-2.7,1.1-3.8,3.6-3.7c2.1,0,4.3,1.5,4.3,2.8c0,1.9-2.6,4.5-4.5,4.5C68.7,54,67.1,52.3,67.1,50.4z
		 M68,50.4c0,1.3,1.4,2.8,2.6,2.7c1,0,3.4-2.4,3.4-3.3c0-1.2-1.7-2-4-2.1C68.7,47.7,68,48.6,68,50.4z"/>
</g>
</svg>
