<?xml version="1.0" encoding="utf-8"?>
<!-- Generator: Adobe Illustrator 19.2.1, SVG Export Plug-In . SVG Version: 6.00 Build 0)  -->
<svg version="1.1" id="Layer_1" xmlns="http://www.w3.org/2000/svg" xmlns:xlink="http://www.w3.org/1999/xlink" x="0px" y="0px"
	 viewBox="0 0 200 366.4" style="enable-background:new 0 0 200 366.4;" xml:space="preserve">
<style type="text/css">
	.st0{fill:#E91E63;}
</style>
<g id="ringworm-lady2">
	<path class="st0" d="M26.6,366.4c0-1.8,0.2-3.7,0.1-5.5c-0.1-2.5-0.4-4.9-0.6-7.4c-0.1-1.4-1-1.8-2-2c-1.7-0.3-3.4-0.6-5.1-0.6
		c-3.5,0-7,0.2-10.5,0.2c-2,0-4.1-0.2-6.1-0.4c-0.5-0.1-0.8-0.8-1.2-1.2c0.4-0.4,0.8-1.1,1.3-1.1c1.4-0.2,2.8-0.1,4.2-0.1
		c6.4,0.1,12.8,0.2,19.1,0.3c0.9,0,1.7,0.2,2.6,0.3c3.5,0.3,6.9-0.4,10.3-1.2c3.5-0.8,7-1.6,10.5-2.3c2.5-0.5,5.1-0.5,7.7-0.9
		c4.2-0.6,8.4-1.3,12.5-2.1c4.9-1,9.9-2,14.8-3.2c6-1.5,12-3.2,17.9-4.9c5.6-1.5,10.4-4.6,14.9-8c3.7-2.9,7.3-5.9,10.6-9.1
		c1.9-1.8,3.4-4.1,4.9-6.4c3.6-5.4,7.4-10.5,11.7-15.2c2.9-3.1,5.1-6.9,7.6-10.4c3-4.2,6-8.5,8.9-12.8c1.1-1.6,1.8-3.4,2.7-5.1
		c1.6-2.9,3.2-5.8,4.7-8.8c2.3-4.4,4.6-8.8,6.8-13.3c1.8-3.7,3.3-7.5,4.9-11.3c0.7-1.7,1-3.6,1.8-5.3c2.1-4.6,4.3-9.1,6.6-13.7
		c0.2-0.4,0.7-0.6,1.1-0.8c0.2,0.4,0.8,0.9,0.7,1.3c-0.2,1-0.6,2-1.1,3c-1.4,3.1-2.8,6.3-4.3,9.4c-0.5,1.1-0.1,1.8,1,2
		c1.6,0.3,3.3,0.4,4.9,0.5c1,0,2.5-2.1,2.5-3.2c0-3.5-0.1-6.9,0-10.4c0.1-4.6,0.2-9.2,0.6-13.7c0.4-3.3,1.3-6.5,2.1-9.8
		c1.4-5.4,1.7-11,1.2-16.5c-0.3-3.8-1.7-7.2-4.1-10.3c-3.1-4.1-7.4-6.5-11.8-8.8c-1.8-0.9-3.8-1.6-5.6-2.4c-1.8-0.8-3.7-0.8-5.5-0.1
		c-3.1,1.2-6.3,2.2-9.2,3.8c-3.9,2.2-6.9,5.5-9.6,9.1c-2,2.7-4.3,5.2-6.4,7.8c-1.3,1.6-2.7,3.1-4,4.6c-0.8,1,0,1.4,0.7,1.7
		c1.9,0.9,3.8,1.7,5.6,2.6c1.5,0.7,2.2,1.9,2,3.5c-0.1,1.1,0.3,1.6,1.3,1.8c0.8,0.2,1.6,0.4,2.4,0.7c2.8,0.8,4.4,3,4.6,6
		c0.2,2.3-0.6,4-2,5.7c-0.4,0.5-0.5,1.5-0.5,2.2c0.1,1.5-0.1,2.8-1.2,4.2c-1.6,2-2.8,4.4-4.1,6.7c-0.7,1.4-1.3,2.5-0.8,4.5
		c1,4-0.8,7.5-4.1,10.1c-0.9,0.8-1.9,0.4-2.6-0.3c-1.5-1.4-4.1-2.2-5.9-1.3c-1.4,0.7-2.9,1.5-4,2.6c-6.1,5.9-12.1,11.9-18.1,17.9
		c-0.9,0.9-1.6,1.8-2.3,2.8c-2.4,3.5-4.9,7-7.2,10.6c-1.5,2.2-2.6,4.7-4,6.9c-4.6,7.4-10.6,12.9-19,15.9c-3.2,1.1-6,3.2-8.9,4.9
		c-1.6,0.9-3.3,1.4-5.2,1.8c-2.6,0.6-5.2,1.5-7.6,2.7c-6.9,3.6-13.6,7.4-20.4,11.1c-4.7,2.6-9.4,5.3-14.2,7.8
		c-3.7,2-7.4,3.8-11.1,5.7c-1,0.5-2.2,0.8-3.3,1.2c-1.1,0.4-2.2,0.9-3.3,1.1c-1,0.3-2.1,0.4-3.1,0.4c-0.4,0-0.8-0.8-1.2-1.2
		c0.4-0.4,0.8-1,1.3-1.1c1.3-0.4,2.7-0.6,4.4-0.9c-1.9-1-3.4-1.8-4.9-2.7c-2.2-1.3-3.2-3.6-3.6-5.9c-0.5-2.9-0.8-6-0.3-8.8
		c0.9-5.9,0.6-11.8,0.9-17.7c0.2-3.5-0.2-7,0-10.6c0.4-6.6,1-13.2,1.4-19.9c0.2-3.5-0.1-7,0.1-10.6c0.3-5.6,1.1-11.1,1.3-16.6
		c0.2-7.7,2.4-15,4.1-22.4c0.9-3.8,2.2-7.5,3.2-11.3c1.5-5.7,2.9-11.4,4.4-17.1c0-0.2,0.1-0.3,0.4-0.5c0,0.4-0.1,0.9-0.1,1.3
		c0.1,0,0.2,0.1,0.3,0.1c0.4-1.3,1-2.5,1.2-3.9c0.5-3,1.9-5.5,3.1-8.2c0.7-1.5,1.4-2.9,2.2-4.3c1.6-2.8,4.3-4.4,7.2-5.3
		c3.6-1.1,7.3-1.8,11-2.7c2.5-0.6,2.5-0.9,2.6-3.4c0.1-5.3,0.2-10.5,0.3-15.8c0.2-7.7,0.3-15.4,0.6-23.1c0.2-3.7,0.7-7.4,1.1-11.1
		c0.3-3.8,0.7-7.6,0.9-11.5c0.2-4.3,0.1-8.6,0.4-12.9c0.2-2.4,0.9-4.7,1.6-7.1c0.9-3.3,2.1-6.6,3-9.9c1.1-4,1.8-8,2.9-11.9
		c1.3-4.8,3.1-9.5,5.5-13.9c0.8-1.4,1.5-2.7,2.1-4.1c2.3-5,5.7-8.9,10.5-11.5c1.7-1,3.3-2.3,4.8-3.6c4.7-3.9,10.2-6.3,16-7.9
		c3.8-1,7.7-1.9,11.6-2.6c2.5-0.5,5.1-0.6,7.6,0.2c0.4,0.1,1.1-0.1,1.6-0.4c3-1.3,5.9-1.2,8.9-0.1c0.6,0.2,1.3,0.5,1.9,0.6
		c4.7,0.8,8.4,3.5,12.1,6.3c3.3,2.6,5.7,6.1,8.3,9.3c5.2,6.4,9,13.7,11.8,21.4c1,2.8,1.3,5.9,2.1,8.8c1.3,4.8,2.8,9.4,4,14.2
		c1,3.9,1.7,8,2.3,12c0.7,4.2,1.2,8.4,1.7,12.5c0.9,6.7,1.8,13.5,2.6,20.2c0.5,4.3,0.9,8.7,0.8,13c-0.1,3-0.9,6.1-1.7,9.1
		c-0.8,3.2-1.7,6.4-3,9.4c-0.9,2-2.5,3.8-4,5.5c-1.3,1.6-1.3,1.7,0.4,2.9c3.7,2.6,8,3.9,12.1,5.6c4.6,1.9,9.5,3.4,13.6,6.5
		c1.6,1.3,3,2.8,4.6,4.3c0.8,0.8,1.8,1.4,2.4,2.3c3.2,4.3,4.4,9.2,4.8,14.5c0.4,6.4-0.7,12.5-2.4,18.6c-0.5,1.6-0.5,3.4-0.5,5.1
		c-0.1,3.2,0.1,6.4-0.1,9.5c-0.2,3.2-0.6,6.5-0.9,9.7c-0.2,1.5-0.3,3.1-0.5,4.6c-0.5,4.8-1.7,9.5-3.2,14.1
		c-1.1,3.3-1.7,6.8-2.4,10.3c-0.5,2.5-1,5.1-1.4,7.7c-0.5,2.9-1,5.7-1.2,8.6c-0.4,7-0.6,13.9-0.9,20.9c-0.2,5.9-0.5,11.9-0.6,17.8
		c-0.2,9.9-0.1,19.8-0.3,29.7c-0.1,5.5,1,10.8,2.5,16c0.5,1.8,1.3,3.6,1.6,5.4c0.4,3,0.5,6,0.7,9C135.7,366.4,81.1,366.4,26.6,366.4
		z M97.3,265.3c-0.1-0.1-0.1-0.3-0.2-0.4c-1.2,0.1-2.4,0-3.6,0.3c-3.8,0.8-7.6,1.7-11.4,2.4c-0.5,0.1-1.1-0.3-1.6-0.5
		c0.4-0.4,0.7-0.9,1.1-1.1c1.6-1,3.6-0.7,5.3-1.1c3.9-0.7,7.6-1.7,11.5-2.6c2-0.5,3.9-1.2,5-3.2c4.9-8.5,11.6-15.4,18.8-21.9
		c3-2.7,6.1-5.5,9.1-8.3c2-1.9,4.1-3,7-3c1.8,0,3.7-0.6,5.5-0.9c0.4-0.1,0.7-0.1,1.1-0.2c0.2,1.2-0.2,1.8-1.2,2.2
		c-0.3,0.1-0.6,0.5-0.8,0.8c0,0.1,0.3,0.5,0.4,0.5c0.4-0.1,1.1-0.1,1.3-0.4c0.9-1.6,1.8-3.1,2.3-4.8c0.3-1.1,0.2-2.3-0.1-3.5
		c-0.2-0.9-4.4-3-5.4-2.9c-3.4,0.3-6.9,0.6-10.5,0.9c0.4,0.9,0.8,1.8,1.2,2.7c0.3,0.6,0.9,1.2,0,1.5c-0.4,0.1-1.3-0.3-1.6-0.7
		c-0.5-0.9-0.8-1.9-1.1-2.9c-1.6,1.1-3.2,2.3-4.8,3.2c-0.4,0.2-1.2,0-1.8-0.1c0.3-0.5,0.5-1.1,0.9-1.4c1.7-1.5,3.5-2.9,5.3-4.4
		c2.8-2.4,5.5-4.8,8.3-7.1c0.9-0.7,1.7-0.8,2.5,0.3c0.8,1.1,2,1.8,3.4,1.6c1.2-0.2,2.4-0.6,3.7-0.7c0.5-0.1,1,0.2,1.6,0.4
		c-0.3,0.5-0.6,1.2-1,1.4c-1.4,0.6-2.9,1-4.6,1.5c0.1,0.5,0,1.4,0.4,1.7c0.7,0.6,1.7,1.1,2.7,1.4c0.4,0.1,1.1-0.3,1.3-0.7
		c1.7-2.8,3.3-5.7,5-8.5c0.9-1.4,0.6-2.9-0.9-3.6c-1.3-0.6-2.7-1.1-4.1-1.6c-4.8-1.8-9.8-1.1-14.8-1.1c-0.4,0-0.9,0.3-1.4,0.5
		c0.8,1.2,1.4,2.2,2.2,3.1c0.6,0.7,1.1,1.3,0.2,1.9c-0.3,0.2-1.3-0.3-1.7-0.7c-0.7-0.8-1.3-1.9-2-2.9c-0.9,1-1.6,1.8-2.4,2.7
		c-2.4,2.8-4.8,5.7-7.3,8.5c-0.3,0.3-0.9,0.3-1.3,0.5c0-0.5-0.2-1.2,0.1-1.5c0.6-0.8,1.4-1.5,2-2.2c2.9-3.4,5.7-6.8,8.6-10.1
		c0.7-0.8,2-1.5,3-1.6c4-0.1,8.1-0.2,12.1,0.3c2.5,0.3,5,1.5,7.4,2.3c0.3,0.1,0.8,0.1,1,0c1.8-1.3,2.5-3.9,1.9-6.1
		c-0.4-1.4-1.1-2.3-2.5-2.8c-4.6-1.7-9.4-2.2-14.2-2.9c-0.9-0.1-1.9,0-3.1,0c0.4,1.1,0.9,2,1.2,3c0.1,0.5-0.1,1.1-0.2,1.7
		c-0.4-0.3-1-0.5-1.3-0.9c-0.5-0.9-0.8-1.9-1.4-3.3c-3.2,3.3-6.1,6.5-9.2,9.5c-2.4,2.4-4.5,5.1-7.5,6.8c-1.7,1-3.1,2.6-4.7,3.9
		c-0.4,0.3-1,0.5-1.5,0.7c0-0.6-0.3-1.4,0-1.8c0.7-1,1.6-1.9,2.6-2.5c3.3-2.3,6.4-4.7,9.2-7.6c3-3.2,6.1-6.3,9.2-9.4
		c1.9-1.9,4.1-2.5,6.8-1.9c2.7,0.6,5.5,0.8,8.8,1.3c-0.4-1.1-0.5-2.2-1.1-2.5c-3.3-1.9-6.4-4-10.1-5c-1.3-0.4-2.6-0.7-3.9-1.1
		c-0.1,0.2-0.2,0.4-0.4,0.6c0.5,0.5,1.1,0.9,1.5,1.5c0.3,0.4,0.3,1,0.4,1.5c-0.4,0-0.9,0.1-1.1-0.1c-1-1.1-1.9-2.4-3-3.6
		c-0.2,0.1-0.7,0.2-1,0.5c-1.9,1.7-3.8,3.4-5.5,5.2c-2,2.1-3.9,4.3-5.9,6.5c-1.8,2-3.4,4.2-5.4,5.9c-2.4,2.1-4.2,4.4-5.3,7.3
		c-0.9,2.5-2.3,4.8-3.5,7.1c-1.1,2.1-2.5,4-3.5,6.2c-0.8,1.7-0.9,3.7-1.5,5.4c-0.8,2.1-1.6,4.3-2.9,6.1c-2.5,3.6-5.2,7.2-8.7,10
		c-3.8,3.1-7.5,6.5-11.4,9.6c-6.9,5.4-14.1,10.3-21.8,14.5c-3.8,2.1-7.3,4.6-11,7c-3.2,2.1-6.3,4.2-9.5,6.2
		c-4.1,2.5-8.4,4.6-12.4,7.4c-3.6,2.6-7,5.7-11.9,6c-1,0-1.9,0.3-2.1-0.9c-0.2-1.1,0.7-1.5,1.6-1.6c1-0.2,2.1-0.1,3-0.6
		c2.9-1.6,5.6-3.4,8.4-5.2c1.7-1.1,3.3-2.3,5.1-3.4c0.8-0.5,1-1,1-1.9c0.1-3.8,0.3-7.6,0.3-11.4c-0.1-6.6-0.1-13.2-0.6-19.7
		c-0.4-5.7-0.7-11.3,0.3-16.9c1-5.7,2.3-11.3,2.4-17.1c0-3.2,0.4-6.5-0.3-9.6c-0.7-3.2-1.2-6.4-1-9.6c0.2-2.5,0.9-5,1.5-7.5
		c0.1-0.3,0.8-0.8,1-0.8c0.4,0.1,0.9,0.7,0.9,1.1c0,0.8-0.1,1.7-0.4,2.6c-0.8,3.2-0.6,6.5-0.4,9.8c0.9-3.1,1.5-6.3,2.3-9.4
		c1.1-4,2.3-8,3.9-11.8c1.8-4.3,4-8.4,6.2-12.5c1.7-3.2,1.4-6.5,1.3-9.8c0-0.3-0.7-0.9-1-0.9c-2.4,0.5-4.8,1.2-7.2,1.6
		c-6.7,1.1-10.8,5.2-13.2,11.3c-1,2.7-1.7,5.5-2.6,8.3c-1.8,6-3.5,11.9-5.2,17.9c-1.8,6.3-3.6,12.6-5.2,19c-0.8,3-1.3,6.2-1.7,9.3
		c-0.5,3.8-0.6,7.6-0.9,11.4c-0.3,3.6-0.7,7.3-0.9,10.9c-0.2,3.5,0.1,6.9-0.1,10.4c-0.4,6.1-1.1,12.3-1.3,18.4
		c-0.3,7.4-0.2,14.8-0.4,22.2c0,0.6,0,1.2-0.1,1.8c-0.5,4-1,7.9-0.4,11.9c0.3,2,1,3.6,2.4,5c2.4,2.4,4.2,2.7,7.4,1.3
		c1.5-0.7,2.9-1.4,4.4-2c6-2.6,12.2-5,18.1-7.9c6.5-3.2,12.9-6.8,19.3-10.3c3.8-2.1,7.4-4.6,11.8-5.1c2.7-0.3,4.7-1.6,6.9-2.8
		c0.2-0.1,0.4-0.2,0.5-0.3c3-2.4,6.4-4.5,8.8-7.4c2.3-2.8,4.8-5.1,7.6-7.4C92.7,269.2,95,267.2,97.3,265.3z M76.6,109.8
		c0.7,2.8,1.4,5.6,2.2,8.5c1.1,3.8,3.1,7.1,5,10.5c1.6,2.7,3.6,4.9,6.2,6.6c1.9,1.3,3.7,2.9,5.6,4.3c2.7,1.9,5.4,3.8,8.1,5.7
		c2,1.4,4.1,2.6,6.1,4c4,2.7,8.3,4.4,13.3,3.4c4-0.8,6.8-3.3,9.4-6c2.3-2.5,4.4-5.3,6.4-8.1c3.8-5.2,7.3-10.6,8.9-16.9
		c0.7-2.9,1.2-6,1.9-8.9c0.5-2.2,1.4-4.2,1.9-6.4c0.9-4.4,2.1-8.9,2.4-13.4c0.4-5.3,0.1-10.6-0.2-15.9c-0.4-5.6-1.1-11.3-2.1-16.9
		c-0.4-2.7-1.4-5.3-2.5-7.8c-1.6-3.6-4.9-5.6-8-7.8c-1.3-0.9-2.8-1.8-3.3-3.5c-1-3.6-2.2-7.1-3.1-10.7c-1.9-7.7-6.3-13.9-10.8-20.1
		c-0.5-0.8-2.5-1.1-2.8-0.4c-0.3,0.6-0.4,1.7,0,2.3c0.8,1.2,1.9,2.2,2.8,3.2c3.6,4.2,5.9,9,7.3,14.4c1.1,4.1,2.4,8.2,3.5,12.4
		c0.6,2.3,0.1,4.2-1.6,5.1c-1.3,0.7-2.8,1.2-4.2,1.4c-3.3,0.3-6.7,0.5-10.1,0.3c-5.5-0.2-10.6,1-15.6,2.9c-1.3,0.5-2.7,0.8-3.7,1.7
		c-3,2.7-6.1,5.4-8.6,8.5c-3.1,3.8-5.8,7.9-8.6,11.9c-0.7,1-1.4,2-2.3,2.8c-3.3,3-5.2,6.5-4.9,11c0,0.6-0.3,1.2-0.4,1.8
		c-0.3,1.2-1.1,1.5-2.2,1.3c-2.1-0.4-3.6,0.5-3.8,2.6c-0.2,1.8,0,3.6,0,5.4c-0.2,4.2,2.3,6.5,5.5,8.5c1.3,0.8,2.9,0,3-1.6
		c0-1.2-0.3-2.4-0.7-3.5c-0.3-1-1-1.5-2.1-0.7c-0.9,0.6-2.1,0.7-3-0.2c-0.9-0.8-1.5-1.8-1.1-3c0.1-0.4,0.7-0.9,1.1-0.9
		c0.3,0,0.9,0.6,0.9,1c0.1,1.3,0.6,1.6,1.8,1.1c1.8-0.8,2.9-0.4,4,1.2C80.5,103.8,80,107.3,76.6,109.8z M55,213.1
		c1.3,1.7,5.6,4.1,7.6,4.3c1.8,0.2,3.6,0.4,5.3,0.6c6.4,0.7,12.8,0.8,19.2-0.3c5.4-0.9,10.2-3,13.5-7.6c1.7-2.3,4-4.1,4.9-7.1
		c0.6-1.9,1.8-3.6,3.6-4.8c1.1-0.8,2.2-1.8,3-3c1.8-2.5,3.4-5.2,5.1-7.7c1.5-2.2,3-4.5,4.6-6.6c2.5-3.3,5.2-6.5,7.6-9.8
		c2.8-3.7,5.3-7.6,8.8-10.7c0.2-0.2,0.4-0.4,0.7-0.8c-0.8,0-1.3,0-1.8,0c-3.5,0.2-7.1,0.6-10.6,0.6c-1.5,0-3.1-0.3-4.5-0.9
		c-4-1.6-8.1-1-12,0.1c-2.5,0.7-4.8,2.1-7.2,3c-0.5,0.2-1.2-0.1-1.8-0.2c0.3-0.6,0.3-1.5,0.8-1.8c2.6-1.3,5.1-2.9,7.8-3.4
		c4.2-0.8,8.5-0.9,12.7,0.1c1.5,0.3,3,0.6,4.5,0.5c4.6-0.2,9.2-0.5,13.9-0.8c0.5,0,1-0.3,1.4-0.7c1.4-1.4,2.7-3,4.1-4.4
		c1.4-1.3,2.9-2.5,4.4-3.8c1.5-1.4,3.1-2.7,4.6-4.1c-4-2.9-8-5.6-12-8.4c0,0-0.2,0.3-0.3,0.5c-2.5,3.4-4.9,7.1-7.6,10.3
		c-3.6,4.3-7.7,8.2-13.9,8.5c-3.3,0.1-6.7,0-9.4-1.9c-5.3-3.7-11.3-6.3-16.1-10.7c-1.8-1.6-3.8-3.1-5.6-4.7
		c-0.5-0.5-0.9-1.3-1.5-0.8c-0.3,0.2-0.2,1.2-0.1,1.8c0.5,2.5,1.2,5,1.4,7.5c0.3,3.1,0.2,6.1,0.4,9.2c0.3,4.1-0.6,8.1-1.6,12.1
		c-0.1,0.5-0.9,0.9-1.3,1.3c-0.3-0.6-1-1.2-1-1.7c0.2-1.8,0.5-3.6,0.9-5.4c0.3-1.4,0.6-2.8,0.8-4.3c-0.2-0.1-0.4-0.2-0.5-0.3
		c-0.8,0.6-1.8,1.1-2.5,1.8c-1.7,1.9-3.9,3.4-4.4,6.2c-0.2,1.3-0.4,2.6-0.9,3.8c-1.2,3.7-3.4,6.8-5.9,9.6c-2.4,2.6-3.8,5.6-4.2,9.2
		c-0.4,3.4-0.7,6.9-3.1,9.7c-1.3,1.5-1.6,3.4-1.4,5.4c0.3,3.1,2.5,4.4,5,2.9c0.7-0.4,1.4-0.9,1.9-0.1c0.3,0.5,0.2,1.6-0.1,2.1
		c-0.7,0.9-1.6,1.6-2.5,2.2c-1.8,1.1-3.7,2.1-5.5,3.2c-1.5,0.9-3,1.2-4.7,0.8C58.1,213.4,56.6,213.3,55,213.1z M132.7,214.8
		c0.1,0.2,0.2,0.3,0.3,0.5c0.2,0,0.4,0.1,0.5,0.1c2.1-0.2,4.1-0.3,6.2-0.6c0.4-0.1,1.2-0.4,1.2-0.6c0.1-0.7,0.8-1.6-0.3-2.2
		c-0.7-0.4-1.3-0.9-1.9-1.3c-0.2-0.1-0.6-0.2-0.8-0.1C136.2,212,134.5,213.4,132.7,214.8z"/>
	<path class="st0" d="M168.9,211.3c0.5,3.1-0.7,5.7-2.6,8.1c-0.9,1.2-1.4,2.5-3.2,2.8c-1,0.2-1.7,1.5-2.7,2.1c-1.4,1-5,0.4-6.1-0.9
		c-0.2-0.2-0.4-0.6-0.4-0.9c0.1-2.4,0.3-4.8,0.5-7.2c0-0.1,0.1-0.2,0.1-0.3c-0.6-5,3.2-6.2,6.6-7.7c0.3-0.1,0.7-0.2,0.9-0.4
		c1.9-1.9,4-1,6-0.2c0.5,0.2,0.8,1.3,1,2.1C169,209.5,168.9,210.4,168.9,211.3z M167.5,211.4c0-0.9,0-1.8,0-2.6c0-0.4-0.1-0.8-0.4-1
		c-1.1-0.9-3.2-0.5-4.5,0.3c-1.2,0.8-2.7,1.2-4,1.7c-0.4,0.2-0.9,0.2-1.1,0.4c-1.2,1.2-2.5,2.4-1.8,4.4c0.1,0.3-0.1,0.7-0.1,1
		c-0.1,2.1-0.3,4.1-0.4,6.2c0,0.3,0.3,0.6,0.5,0.8c1.9,1.3,3.8,0.9,5.4-0.7c0.6-0.6,1.5-1,2.3-1.4c0.2-0.1,0.6-0.1,0.7-0.3
		C165.7,217.4,168.4,215.1,167.5,211.4z"/>
	<path class="st0" d="M120.6,140.6c-3.1-0.1-5.6-0.9-7.5-3.5c-1.1-1.5-2.8-2.7-4.3-3.9c-0.8-0.7-0.4-1.2,0.2-1.4
		c3.1-1.3,6.1-2.6,9.3-3.7c0.8-0.3,2,0,2.9,0.4c2,0.9,2.6,1,4.2-0.4c1-0.8,2-0.9,3.1-0.6c1.7,0.5,3.3,1.1,4.9,1.6
		c0.9,0.3,0.9,0.7,0.5,1.4c-0.4,0.7-0.7,1.6-1,2.4c-2,5.6-4.4,6.6-9.4,7.4C122.5,140.5,121.5,140.6,120.6,140.6z M112.1,134.1
		c1,1.1,1.8,2.4,3,3.3c1.1,0.8,2.4,1.6,3.7,1.7c2.3,0.1,4.7-0.1,7.1-0.6c3.5-0.7,5.9-3.7,6.2-7.7C125.9,135.6,119.2,136,112.1,134.1
		z M113.4,132.7c4,2.1,13.3,1.6,16.5-2.1c-1.4,0.2-2.8,0.5-4.1,1c-1.7,0.7-3.3,0.8-4.9,0.3C118.3,131,116,132,113.4,132.7z
		 M129.9,129.2c-1.2-0.4-2.5-1.6-4-0.1c-1.6,1.6-3,1.6-5,0.5c-0.5-0.3-1.3-0.7-1.8-0.5c-1.3,0.4-2.4,1-3.3,1.4
		c1.8,0.1,3.8,0.1,5.7,0.4c1.4,0.3,2.6,0.3,3.9-0.3C126.9,130,128.4,129.6,129.9,129.2z"/>
	<path class="st0" d="M132.5,90c-0.4-0.1-0.9-0.1-1.3-0.2c-0.4-0.2-1-0.6-1.1-0.9c0-0.4,0.4-1,0.8-1.2c5.3-2.9,11-4.6,16.8-5.9
		c0.3-0.1,0.8,0.4,1.1,0.6c-0.3,0.4-0.5,1.1-0.9,1.3c-1.3,0.7-2.6,1.2-3.9,1.8c-3.3,1.4-6.6,2.9-9.9,4.2
		C133.7,89.9,133.1,89.9,132.5,90z"/>
	<path class="st0" d="M108,92.4c-3-0.8-5.5-1.6-8.2-2c-2.5-0.4-5-0.3-7.5-0.3c-1.7,0-3.4,0.3-5.1,0.3c-0.4,0-0.8-0.5-1.1-0.7
		c0.3-0.4,0.6-1,1-1.2c0.6-0.3,1.3-0.3,2-0.4c5.5-0.4,11-0.6,16.4,1.4c0.7,0.3,1.7,0.1,2.4,0.4c0.5,0.2,1.2,0.8,1.2,1.2
		C109.1,91.6,108.4,92.1,108,92.4z"/>
	<path class="st0" d="M139.7,98c-3.5-0.6-7-1.1-10.5-1.7c-0.7-0.1-1.3-0.5-0.9-1.3c0.2-0.4,1-0.7,1.5-0.7c2.9,0.4,5.8,1,8.8,1.4
		c2.4,0.3,4.2-1,5-3.2c0-0.1,0-0.2,0.1-0.3c0.6-0.5,1.2-1,1.7-1.5c0.1,0.7,0.4,1.4,0.2,2.1C144.8,95.9,142.4,97.8,139.7,98z"/>
	<path class="st0" d="M128.1,109.8c1,2.7,2,4.9,2.7,7.1c0.6,2.1-1.4,5.4-3.9,6.7c-1.7,0.9-4.4,0.4-5.9-1.2c-1.2-1.3-2.4-2.1-4.3-2
		c-1.8,0.1-3.7-2-3.3-3.7c0.3-1.4,0.6-2.8,1.1-4.1c0.1-0.3,0.8-0.5,1.3-0.8c-0.5,1.6-0.9,2.8-1.2,4.1c-0.4,1.9,0.7,3.4,2.6,3.3
		c2.1-0.1,3.4,0.9,4.6,2.4c1.5,1.8,3.9,2,5.6,0.3c2.1-2.1,3.4-3.7,1.1-7.5c-0.5-0.9-0.8-2.1-1-3.1
		C127.6,110.9,127.9,110.5,128.1,109.8z"/>
	<path class="st0" d="M101.6,101.6c-2.6-0.1-4.7-0.4-6.5-1.9c-1-0.8-2.2-1.4-3.2-2.3c-0.3-0.2-0.3-0.8-0.4-1.2
		c0.4-0.1,1-0.3,1.3-0.2c1.2,0.6,2.3,1.3,3.3,2.1c2.9,2.1,5.8,1.8,8.8,0.4c1.5-0.7,3-1.6,4.6-2.2c0.4-0.2,1.2-0.1,1.6,0.1
		c0.7,0.4,0.7,1-0.2,1.4c-2.4,1-4.7,2.1-7.1,3.1C103.1,101.3,102.1,101.4,101.6,101.6z"/>
</g>
</svg>
