<?xml version="1.0" encoding="utf-8"?>
<!-- Generator: Adobe Illustrator 19.1.0, SVG Export Plug-In . SVG Version: 6.00 Build 0)  -->
<svg version="1.1" id="Layer_1" xmlns="http://www.w3.org/2000/svg" xmlns:xlink="http://www.w3.org/1999/xlink" x="0px" y="0px"
	 viewBox="0 0 120 276.9" style="enable-background:new 0 0 120 276.9;" xml:space="preserve">
<style type="text/css">
	.st0{fill:#E91E63;}
</style>
<g id="shinglesman-front">
	<path class="st0" d="M119.4,139c-1.8-2.3-4-4.3-6.1-6.5c-1.4-1.4-3.5-2-4-4.2c-0.2-1.1-0.5-2.2-0.7-3.3c-1-5.7-2-11.3-2.9-17
		c-0.4-2.3-0.1-4.7-0.5-7c-0.5-2.7-1.6-5.3-2.2-8c-1.4-6.2-2.8-12.4-4.1-18.6c-0.2-1.1-0.4-2.3-0.3-3.4c0.1-4.7-0.1-9.3-1.3-13.9
		c-1.7-6.6-4.7-9.8-11.5-11.3c-4.2-1-8.5-1.8-12.2-4.1c-2.1-1.2-4-2.7-4.1-5.3c-0.1-2.3,0.1-4.7,0.2-7c0-0.6,0.4-1.4,0.8-1.6
		c2.8-1,3.6-3.3,4.1-5.8c0.4-1.8-0.1-3.3-1.3-4.7c-0.4-0.5-0.7-1.1-0.8-1.6c-0.1-0.8,0-1.7,0-2.6c-0.2-6.8-5.8-13.7-14-12.9
		c-5.5,0.5-9.7,3.3-11.2,8.3c-0.8,2.5-0.9,5.2-1.4,8.1c-1.3,0.6-1.8,1.2-1.9,2.8c-0.1,3.2,0.9,5.9,3.5,8c0.5,0.4,1.2,1,1.2,1.5
		c0.3,2.5,0.5,5,0.5,7.5c0,2.2-1.5,3.6-3.4,4.6c-4.7,2.3-9.6,4.3-14.7,5.5c-5.6,1.3-11.5,8.1-11.6,15.2c-0.1,4.4,0.8,9-1.3,13.3
		c-0.1,0.1,0,0.3,0,0.5c-0.7,5-1.1,10-2.3,14.9c-2.4,9.5-3.2,19.1-3.2,28.9c0,2.3-0.4,4.7-0.7,7c-0.4,3.4-1.5,6.6-4.3,8.8
		c-3.2,2.5-5.1,5.8-7,9.2c-0.4,0.7-0.6,2-0.2,2.4c0.5,0.5,1.6,0.5,2.5,0.3c0.7-0.1,1.2-0.8,1.8-1.2c0.4-0.3,0.8-0.7,1.4-1.2
		c0.1,2.2,0.2,3.9,0.4,5.7c0.3,2.7,0.6,5.3,1,8c0.1,0.6,0.5,1.1,0.9,1.6c0.5,0.7,1.2,1.2,1.6,1.9c0.6,1.1,1.5,1.6,2.5,1.2
		c1.5-0.6,3.1-1.4,4.4-2.4c0.8-0.6,1.1-1.9,1.7-2.9c1.9-0.1,2.5-0.7,2.6-2.8c0.1-1.8,0.2-3.5,0.2-5.3c0.2-4,0.3-8,0.4-12
		c0.1-1.9-0.2-3.9,0-5.8c0.6-5.3,3-10,4.7-14.9c1.4-4,2.7-8.1,3.4-12.3c0.7-4.4,0.5-8.9,0.9-13.3c0.3-2.7,1-5.3,1.6-7.9
		c0.2,0,0.4,0,0.6,0c0.4,0.6,0.9,1.2,1,1.9c1.1,4.1,2.2,8.1,3.1,12.2c0.7,2.9,0.1,5.9-0.3,8.8c-0.4,2.7,0.1,5.5,0.1,8.3
		c0,1.1-0.1,2.1-0.3,3.2c-0.8,4.9-1.9,9.7-2.6,14.6c-0.9,7.2-1.5,14.4-2.2,21.6c-0.7,7.8-0.9,15.5,1.3,23.1c1,3.6,1.8,7.3,2.8,10.9
		c0.4,1.6,1.1,3.2,1.6,4.7c0.3,0.9,0.7,1.7,0.9,2.6c1.4,5.8,0.7,11.7,0.5,17.6c-0.3,8.9-0.5,17.7,1.8,26.5c2.1,8.2,3.4,16.6,3.4,25
		c0,1.2-0.6,2.5-1.3,3.6c-0.9,1.5-2.3,2.7-3.3,4.1c-0.5,0.8-1.1,2.3-0.8,2.9c0.4,0.8,1.8,1.1,2.8,1.3c2.1,0.4,4.3,0.6,6.4,0.8
		c1.5,0.1,3,0.2,4.5,0c2.9-0.3,4.1-1.9,4.2-4.9c0-2.5,0.2-4.9,0.2-7.4c0-0.8,0.1-1.7-0.2-2.4c-1.6-3.9-1.8-7.9-1.4-12.1
		c0.4-3.8,0.5-7.5,0.9-11.3c0.4-4.3,0.9-8.6,1.3-12.9c0.7-7.7-2.4-15.2-1.5-22.9c0.3-2.1,0.1-4.3,0.2-6.4c0.5-5.6,1-11.2,1.5-16.9
		c0.3-3,0.5-5.9,0.7-8.9c0.6,1.8,0.7,3.6,0.9,5.4c0.4,3.6,0.8,7.2,1.2,10.9c0.5,5.6,1,11.1,1.4,16.7c0.1,1.8,0.2,3.6-0.1,5.4
		c-0.4,3-1.5,6-1.6,9.1c-0.1,5.2-0.4,10.5,0.6,15.7c0.6,3.1,0.8,6.3,1,9.5c0.3,5.5,1.4,10.9-0.1,16.6c-1.1,4.1-0.4,8.7-0.3,13.1
		c0,1.8,1.3,2.9,3.1,3c1.1,0.1,2.3,0.1,3.4,0.1c2.3-0.1,4.5-0.3,6.8-0.3c1.7,0,3.5-0.8,3.9-2c0.4-1.6-0.7-2.4-1.7-3.3
		c-0.3-0.3-0.9-0.5-1.1-0.9c-0.8-1.4-2-2.9-2.1-4.4c-0.5-8.7,1.1-17.2,2.5-25.7c1-5.9,1.9-11.8,2.5-17.8c0.3-3.1-0.1-6.2,0-9.3
		c0.1-4.2,0.2-8.3,0.5-12.5c0.2-2.8,0.2-5.6,0.9-8.3c1.2-4.7,3-9.3,4.1-14.1c1-4.5,1.7-9.1,2.1-13.7c0.5-6.8-0.3-13.5-1.3-20.2
		c-1.1-7.6-2-15.1-3-22.7c-0.3-2.1-0.6-4.1-0.7-6.2c-0.1-2.6,0.4-5.3-0.1-7.8c-0.8-4.2-1.6-8.4-0.7-12.7c0.7-3.3,2.3-6.1,4-9
		c0.8,1.4,1.7,2.7,1.9,4.2c0.4,2.2,0.6,4.4,0.6,6.7c0,7.2,2.2,13.9,5.2,20.4c2.4,5.1,6,9.8,7,15.5c0.2,1.2,0.2,2.4,0.2,3.6
		c0,2.2-0.4,4.5,0,6.6c0.6,4.2,1.6,8.2,2.4,12.4c0.4,2.3,1,2.8,2.8,2.6c1.1,1.1,1.8,2.1,2.8,2.7c1.1,0.6,2.4,0.8,3.6,0.9
		c0.4,0,1-0.6,1.4-1.1c0.3-0.3,0.3-0.8,0.4-1.3c2,0,3-0.6,3.1-2c0.1-2.8,0.1-5.7,0-8.6c-0.1-1.9-0.3-3.9-0.5-6
		c1.7,0.8,3.3,1.6,4.3,0.2C120.2,141.7,120,139.8,119.4,139z M72.8,20.5c-1.6-0.1-3.4-0.3-5.1-0.4c0-0.2-0.1-0.3-0.1-0.5
		c0.9-0.7,1.7-1.4,2.7-2.2C70.9,18.7,73.3,17.8,72.8,20.5z M67.2,18.6c-0.2-1.6-1.5-1.6-3-1.9c1.3-1.5,2.3-3,4.7-2.1
		c-0.3-0.4-0.6-0.8-1-1.3c0.7-0.6,1.4-1.3,2.1-1.9C71.4,14.8,70.8,16.1,67.2,18.6z M65.8,18.5L65.8,18.5c-0.2,0-0.2,0-0.3-0.1
		c-0.5-0.1-0.5-0.9,0.1-0.9c0.1,0,0.2,0,0.2,0.1C66.4,17.7,66.4,18.5,65.8,18.5z M61.4,1.5c1.5,0.8,2.8,1.4,4,2
		c-1.4,1.4-2.7,2.7-4,4.1V1.5z M63.3,7c0.3-0.2,0.5-0.5,0.7-0.7c2.4-2.4,3.3-2.2,4.6,1.1c-2.3,1.9-4.7,3.7-7.2,5.7
		C61.1,10.6,61.1,8.5,63.3,7z M66.2,9.9c0.9-0.7,1.9-1.2,2.9-1.8c1.2,1.6,0.8,2.6-0.4,3.6c-1.3,1-2.4,2-4.2,2.1
		c-0.6,0-1.2,0.4-1.8,0.6c0,0.2,0.1,0.3,0.1,0.5c0.7-0.1,1.3-0.1,1.7-0.2c-1,1.1-2.2,2.4-3.4,3.7C60.4,13.9,63.6,12.1,66.2,9.9z
		 M63.2,18.9c-0.1,0.1-0.2,0.2-0.4,0.2h0c-0.5,0-0.6-0.7-0.2-0.9c0.1-0.1,0.2-0.2,0.3-0.2C63.5,18.1,63.5,18.7,63.2,18.9z
		 M67.1,18.7c-0.6,1-1.5,1.4-2.6,1.3c-1.1-0.1-2.3,0-3.5-0.4C63.1,19.9,65.2,19.8,67.1,18.7z M47.9,25.7c-0.7,0-1.5-1.6-2.2-2.4
		c0.1-0.1,0.3-0.2,0.4-0.3c0.6,0.2,1.1,0.4,1.7,0.5c-1.1-1.1-2.5-1.9-1.3-3.8c-0.4,0.4-0.7,0.8-1.2,1.3c-0.3-1.6-0.3-2.9,1.5-3.6
		c0.6-0.2,0.9-1.3,1-2.1c0.3-1.6,0.2-3.3,0.5-4.9c1.1-5.8,6-8.5,10.8-8.6c1.1,0,1.5,0.4,1.5,1.5c-0.2,5.2-0.3,10.4-0.4,15.6
		c-0.1,2.2,0,2,2.1,2c3.2,0,6.5,0.3,9.7,0.6c0.3,0,0.8,0.5,0.9,0.8c0.3,1.1-1.7,3.9-2.8,3.8c-1.1-0.1-1.4,0.4-1.6,1.3
		c-0.4,1.4-0.5,3-1.4,4.1c-2.6,3.3-6.2,4.1-10.3,3.6c-2.4-0.3-4.3-1.6-5.7-3.4c-0.8-1-0.8-2.5-1.2-3.8
		C49.6,26.8,49.7,25.6,47.9,25.7z M55.5,36.1c-0.1,1-0.1,1.9-0.2,2.8C51,38.1,50.1,37,50.9,33c0.8,0.6,1.4,1.1,2.2,1.6
		C53.8,35.1,54.6,35.6,55.5,36.1z M49.2,39.8c0.5-0.5,0.8-1.1,1.3-1.9c1.3,0.6,2.7,1.1,3.9,1.7c0.8,0.4,1.6,3.5,1.1,4.3
		c-0.1,0.2-0.6,0.5-0.8,0.4c-1.8-0.6-3.5-1.3-5.2-2.1C48.5,41.7,48.2,40.8,49.2,39.8z M47.3,41.8c0.3-0.1,0.7,0,0.9,0.2
		c1.8,1,3.5,1.9,5.3,2.9c-1.6,2.4-6,1.3-10.3-1.3C44.7,42.9,46,42.3,47.3,41.8z M42.1,44.1c0.2-0.1,0.6-0.1,0.8,0
		c2,0.8,4,1.7,6.6,2.8c-3.5,0.3-6.5-0.7-10-1c1.6,2.3,4,1.3,5.8,2.2c-3.9,2.6-4,3-9.9-1.5C37.6,45.9,39.9,45,42.1,44.1z M40.5,51
		c-2.2,1.4-4.2,2.3-6.6,1c-1.7-1-3.6-1.8-5.3-2.6C31.2,46.5,36.3,47.1,40.5,51z M24.5,52.7c2.1-3.2,3.3-3.5,6.7-1.5
		c1.5,0.9,3.1,1.4,4.7,2.1c-2.5,2.5-5.1,2.6-8,1c-1.1-0.6-2.3-0.9-3.4-1.3C24.5,52.9,24.4,52.8,24.5,52.7z M23.7,53.5
		c2.6,0.9,5.1,1.8,7.6,2.7c0,0.1,0.1,0.3,0.1,0.4c-0.8,0.3-1.6,0.9-2.3,0.8c-2.2-0.3-4.4-1-6.9-1.6C22.8,54.9,23.2,54.3,23.7,53.5z
		 M24.5,57.1c1.5,0.3,2.9,0.6,4.4,1.2c-2.3,1.6-4.7,2.1-7.4,1.9c-0.1-0.3-0.1-0.4-0.1-0.6C21.5,56.7,21.7,56.5,24.5,57.1z
		 M35.9,84.4c1.4,0.1,2.3,0.4,2.4,2.1c0.2,2.4,0.8,4.7,1.2,7c-0.1,0.1-0.2,0.3-0.4,0.4c-0.4-0.4-1-0.7-1.2-1.2
		C37.3,90,36.6,87.3,35.9,84.4z M39.2,85.3c0.7,0.2,1.4,0.3,2,0.5c0.3,3,0.6,5.8,0.9,8.8C40.4,94,38.6,87.9,39.2,85.3z M40.6,107.2
		c0.2,2.9,0.3,5.8,0.5,8.8c-1.4-0.1-2.1-0.5-2.2-1.7c-0.1-1.8-0.4-3.6-0.6-5.4C38,107.2,38.7,106.6,40.6,107.2z M59.9,151.3
		c-0.3,3.9-0.7,7.8-1.1,11.7c-0.1,0-0.1,0-0.2,0.1c-0.2-3.2-0.3-6.4-0.5-9.6c-0.1-1.9-0.3-3.7-0.3-5.6c0-0.6,0.6-1.1,1-1.7
		c0.4,0.5,1,0.9,1.1,1.4C60.1,148.8,60,150.1,59.9,151.3z M118.4,141.9c-0.7-0.4-1.4-0.7-2-1.1c-0.3-0.2-0.4-0.7-0.6-0.8
		c-0.6-0.3-1.2-0.4-1.8-0.6c0,0.6-0.2,1.1-0.1,1.7c0.6,5.3,1.6,10.6,0.6,16c-1.4,0.1-1.7-0.8-1.7-1.9c0.1-3,0.1-5.9-1-8.8
		c-0.2-0.5-0.6-1-0.8-1.5c-0.2,0.1-0.3,0.1-0.5,0.2c0,0.4,0,0.9,0.1,1.3c1.4,3.9,1.1,8,0.9,12c0,0.4-0.5,0.9-0.7,1.3
		c-0.2-0.4-0.6-0.8-0.7-1.2c-0.2-0.7-0.2-1.4-0.3-2.2c-0.3-2.7-0.5-5.3-0.9-8c-0.1-0.5-0.3-0.9-0.8-1.4c-0.4,4,1.3,7.9-0.1,11.8
		c-0.2,0.1-0.4,0.1-0.5,0.2c-0.3-0.6-0.8-1.2-0.9-1.9c-0.6-3.2-1.1-6.4-1.6-9.6c-0.1-0.4-0.3-0.9-0.8-1.2c-1.3,3.2,0.8,6.3,0,9.7
		c-0.3-0.3-0.7-0.4-0.7-0.7c-1-5.9-3.1-11.6-2.9-17.7c0-0.3-0.1-0.7,0-1c1.7-4.8-0.7-8.8-2.7-12.8c-4.5-8.7-9.2-17.4-9.1-27.7
		c0-1.7-0.2-3.4-0.3-5.1c-0.1-2.4-1.1-4.4-2.4-6.3c-0.4-0.5-0.5-1.3-0.6-2c-0.1-1.7-0.2-3.5-0.2-5.3c0-2.1-0.2-4.2,0-6.3
		c0.2-2.7,0.7-5.4,0.8-8.2c0-1-0.6-2-0.9-3c-0.2,0-0.4,0.1-0.6,0.1c-0.1,0.3-0.3,0.6-0.3,0.8c1,3.3-0.2,6.6-0.4,9.8
		c-0.1,2.4,0,4.9,0,7.3c-0.1,1.8,0,3.7-0.6,5.3c-1.1,3.3-2.9,6.4-4,9.8c-1.5,4.6-0.9,9.2,0.2,13.9c0.5,2,0.4,4.2,0.3,6.3
		c0,0.8-0.8,1.7-1.5,2.2c-1.3,1.1-2.8,1.9-4.2,2.9c-0.3,0.2-0.5,0.6-0.7,0.8c0.1,0.2,0.2,0.3,0.3,0.5c1-0.5,1.9-0.9,2.8-1.4
		c0.9-0.5,1.8-1.2,3.1-2.1c0.8,5,1.7,9.7,2.4,14.3c1,7.7,2,15.3,2.6,23c0.5,6,0.3,12.1-0.6,18.1c-1,6.3-2.9,12.4-4.8,18.5
		c-0.7,2.1-0.9,4.5-1.1,6.7c-0.1,1.4-0.7,1.7-2,1.7c-1.5-0.1-3-0.1-4.5,0c-0.4,0-0.9,0.5-1.3,0.7c0.5,0.2,0.9,0.6,1.4,0.6
		c1.9,0.1,3.8,0,5.7,0c0.1,0.2,0.2,0.4,0.2,0.6c0,5.4,0.2,10.9-0.1,16.3c-0.3,5.6-0.8,11.2-1.6,16.7c-1.1,7.9-2.5,15.8-3.6,23.7
		c-0.4,2.8-0.2,5.6-0.1,8.4c0.1,2.8,1.7,4.8,3.8,6.4c0.4,0.3,0.6,0.9,0.9,1.4c-0.4,0.1-0.9,0.1-1.3,0.2c-2.4,0.3-4.8,0.5-7.2,0.8
		c-0.3,0-0.6,0.1-0.9,0.1c-4,0.2-4.5-0.3-4.5-4.3c0-2.7,0-5.4,0-8.1c0-1,0.1-2.1,0.5-3c1.3-2.9,0.9-5.9,0.6-8.9
		c-0.3-3.5-0.7-7.1-1-10.6c-0.6-6.8-1.7-13.5-1.3-20.3c0.1-1.8,0.4-3.6,0.8-5.4c0.8-4.3,2-8.6,0.6-13.1c-0.7-2.2-0.6-4.6-0.8-7
		c-0.5-6.3-1.2-12.5-1.6-18.8c-0.5-8-0.7-16,0.5-24c0.2-1.5,0.1-3.1-0.2-4.6c-0.2-1.3-1.2-2.1-2.6-1.9c-1.3,0.2-2.2,0.9-2.1,2.4
		c0.3,5.9,0.7,11.8,0.7,17.7c0,4.6-0.6,9.1-0.9,13.7c-0.1,0.9,0.2,1.8,0.1,2.7c-0.4,4.1-0.9,8.3-1.3,12.4
		c-0.6,5.3-1.4,10.5-0.6,15.9c0.8,5.6,1.3,11.3,1.4,16.9c0.1,4-0.9,7.9-1.2,11.9c-0.4,4.3-0.4,8.7-1,13c-0.5,3.8,0.2,7.4,1.4,10.9
		c0.2,0.7,0.2,1.5,0.2,2.2c0,2.5-0.2,5-0.2,7.6c-0.1,1.9-0.7,2.7-2.5,3.1c-0.1,0-0.2,0-0.3,0c-3.8-0.3-7.7-0.7-12.1-1.1
		c1.3-1.7,2.3-3.3,3.6-4.5c1.8-1.7,2.5-3.7,2.4-6.1c-0.2-9-1.9-17.8-3.9-26.6c-1.8-7.9-1.6-15.9-1.4-23.9c0.1-4.2,0-8.3,0-12.6
		c2.2-0.3,4.1-0.5,6-0.8c0-0.2,0-0.4,0-0.6c-1.7-1-3.7-0.3-5.7-0.6c-1.2-4.1-2.4-8.2-3.5-12.3c-1-3.7-1.8-7.4-2.9-11.1
		c-1.7-5.8-1.7-11.6-1.3-17.5c0.5-6.9,1.3-13.9,2-20.8c0.2-2.1,0-4.5,0.8-6.4c1.3-3.1,0.4-6.3,1.2-9.4c0.1-0.4,0.1-0.8,0.3-1.2
		c0.9-2.9,0.9-2.9,3.7-1.7c3.5,1.5,7.2,2.3,10.9,3.1c1.4,0.3,2.7,0.8,4.3,1.3c0.1-0.1,0.3-0.5,0.4-0.9c0.5-2.6,0.9-5.1,1.6-7.7
		c0.3-1.3,0.1-1.9-1.2-2.3c-4.7-1.4-9.5-2.8-14.2-4.2c-1.5-0.4-3-0.9-4.4-1.3V94.7c2,0.4,4.2,0.9,6.4,1.4c3.8,1,7.6,2,11.5,3
		c0.7,0.2,1.5,0.3,2.3,0.4c-0.1-0.8-0.3-1.5-0.4-2.3c-0.2-2.4-0.4-4.9-0.5-7.4c0-1.1-0.5-1.6-1.5-1.7C50,87.5,43.5,85.6,37,83.8
		c-1.3-0.4-2.4-0.5-2.9-1.9c-0.1-0.3-0.2-0.5-0.2-0.8c-0.2-4.8-0.4-9.7-0.5-14.5c0-2,0.2-4.1,0.3-6.1c0-0.3-0.2-0.6-0.3-0.8
		c-0.3,0.2-0.7,0.3-0.8,0.5c-0.2,0.6-0.5,1.3-0.5,2c0.1,3.9,0.2,7.9,0.5,11.8c0.2,3.3-0.1,6.3-1.6,9.3c-1.7,3.6-1.9,7.6-2,11.6
		c-0.2,8.5-1.9,16.7-5.3,24.6c-1.6,3.8-2.5,7.9-3.6,11.9c-0.1,0.5-0.2,1-0.4,1.5c-0.9,0-1.8,0.1-2.6,0.1l-0.2,0.4
		c0.5,0.3,0.9,0.7,1.4,0.7c1.3,0,1.5,0.8,1.8,1.8c1.2,4.4,0.2,8.8,0,13.1c-0.1,1.8-0.1,3.7-0.3,5.5c0,0.5-0.4,0.9-0.7,1.4
		c-0.3-0.4-0.7-0.9-0.7-1.3c-0.1-2.1-0.1-4.1-0.2-6.2c0-0.3-0.2-0.6-0.7-1.1c-0.2,0.6-0.4,1.2-0.4,1.9c-0.2,2.7-0.3,5.3-0.5,8
		c0,0.6-0.2,1.2-0.5,1.6c-0.2,0.3-0.8,0.5-1.3,0.5c-0.2,0-0.6-0.7-0.5-1c0.1-2.7,0.2-5.4,0.3-8.1c0-0.8-0.2-1.6-0.4-2.6
		c-0.9,0.9-0.9,0.9-0.9,4.5c0,1.5-0.1,3-0.2,4.5c-0.1,1.5-0.3,3-0.4,4.5c-0.2,0.1-0.4,0.1-0.7,0.2c-0.2-0.5-0.6-1-0.6-1.5
		c0.1-3,0.3-6,0.5-9c0.1-1.2,0-2.4,0-3.5c-0.3,0-0.6,0-0.9-0.1c-0.4,3.6-0.9,7.2-1.3,10.8c-0.2,0-0.4,0-0.6,0
		c-0.3-1.6-0.8-3.3-0.9-4.9c-0.2-3.6-0.2-7.2-0.4-10.8c0-0.4-0.4-0.9-0.6-1.3c-0.5,0.2-1,0.4-1.4,0.7c-0.8,0.8-1.5,1.7-2.2,2.6
		c-0.3,0.4-0.8,0.6-1.3,0.9c-0.2-0.2-0.3-0.3-0.5-0.5c1.7-2.3,3.2-4.7,5-7c1.6-2,3.5-3.9,5.3-5.9c0.3-0.3,0.5-0.8,0.5-1.2
		c1-4.8,1.6-9.5,1.7-14.4c0.2-8.4,0.8-16.7,3-24.9c1.3-5.1,1.7-10.5,2.5-15.7c0.2-1.5,0.8-3,1.1-4.5c0.2-1.4,0.3-2.8,0.4-4.2
		c0.1-1.9,0-3.8,0-5.8c1.5-0.2,3-0.5,4.4-0.5c2.2-0.1,3.6-1.5,5.3-2.8c2.5-1.8,5.1-3.5,7.7-5.1c1.6-1,3.4-1.5,5-2.5
		c4.4-2.8,8.4-1.4,12.3,1c0.6,0.4,1.4,0.6,2.2,0.6c-1.9-2.4-4.5-3.6-7.8-4.4c1.6-0.8,2.8-1.4,4.1-2c2.2-0.9,2.3-1.3,2-3.6
		c-0.3-1.8-0.2-3.7-0.4-5.9c4.4,0.9,8.1-0.4,11.7-3.2c0,0.9,0.1,1.5,0,2c-0.6,2.9,0.5,5.2,2.8,6.8c2.4,1.6,5,2.9,7.7,3.9
		c3.4,1.3,7,1.9,10.5,3.1c3.5,1.2,5.4,3.7,6.4,7.3c1.4,5,1.7,10.1,1.8,15.2c0.1,3.9,1.2,7.9,2.1,11.7c1.3,5.6,3,11.2,4.4,16.8
		c0.4,1.7,0.1,3.5,0.4,5.3c1.1,7.2,2.3,14.4,3.4,21.6c0.2,1.3,0.9,2.7-0.9,3.6c-0.1,0.1-0.2,0.7-0.1,0.7c0.3,0.1,0.7,0.3,0.9,0.2
		c1.1-0.7,1.9-0.2,2.7,0.6c2.7,2.6,5.5,5.1,8.2,7.8c0.5,0.5,0.7,1.4,1,2.1C118.7,141.5,118.6,141.7,118.4,141.9z M44.7,117.5
		c-2.1-0.2-2.9-1.1-2.9-3c0-2.2-0.3-4.5-0.5-6.8c0.4,0,0.6,0,0.7,0c2.7,0.7,2.7,0.7,2.7,3.6C44.7,113.4,44.7,115.4,44.7,117.5z
		 M45.5,108.8c0.8,0.2,1.7,0.3,2.4,0.6c0.3,0.1,0.6,0.5,0.6,0.8c0,2.9,0,5.8,0,8.7c-2.4-0.1-2.9-0.5-3-2.5
		C45.4,114,45.5,111.5,45.5,108.8z M49.5,109.9c1.2,0.4,2.3,0.8,3.3,1.2c0.2,0.1,0.5,0.5,0.5,0.7c0,2.7,0,5.4,0,8.2
		c-0.9,0-1.5,0-1.9,0c-1.3-0.2-2.1-0.7-2-2.3C49.6,115.2,49.5,112.7,49.5,109.9z M54,111.7c0.2-0.1,0.3-0.2,0.3-0.2
		c3.7,0.8,3.7,0.8,2.8,4.4c-0.4,1.6-0.6,3.3-1,5c-1.5,0.1-2.3-0.4-2.2-2.1C54.1,116.5,54,114.1,54,111.7z M42.2,86.3
		c1.3,0.3,2.2,0.5,3.2,0.7c0.2,2.9,0.3,5.5,0.4,8.1c-2.1,0.3-2.9-0.7-3.1-2.5C42.5,90.6,42.4,88.6,42.2,86.3z M46.2,87.4
		c0.3-0.1,0.4-0.2,0.5-0.2c4.3,0.9,3.3-0.1,3.5,4.1c0.1,1.7,0,3.4,0,5.3c-1-0.3-1.9-0.4-2.5-0.8c-0.5-0.3-1.1-0.9-1.1-1.4
		C46.4,92.2,46.3,89.8,46.2,87.4z M54.4,97.3c-2.8,0-3.3-0.6-3.4-3.1c-0.1-1.9,0-3.8,0-5.8c2.2-0.4,2.8,0.5,2.8,2.5
		C53.9,93,54.2,95.2,54.4,97.3z M54.4,89c2.9-0.5,3.1-0.3,3.1,2.2c0.1,2.3,0.3,4.6,0.4,7.1c-2.2,0.2-2.8-0.8-2.9-2.6
		C55,93.5,54.6,91.2,54.4,89z"/>
	<path class="st0" d="M80.8,73.7c-0.1,0.4-0.1,1-0.4,1.3c-0.6,0.6-1.3,1.3-2,1.4c-3.5,0.5-7,1.2-10.5,1.1c-2.3-0.1-4.5-1.3-6.8-2.1
		c-0.6-0.2-1-0.9-1.5-1.4c-2,2.4-4.9,2.2-7.7,2.3c-2.5,0-5,0.2-7.5,0.2c-2.2,0-5.7-2.2-6.4-4.4c0.9,0.5,1.5,0.7,2.1,1.1
		c1.5,1.1,3,2.2,5.1,2.1c3.2-0.1,6.4-0.1,9.6-0.2c2.3-0.1,4.1-1,4.3-3.8c0.5,0.3,0.8,0.3,0.9,0.5c2.6,4.6,7,4.8,11.4,4.6
		c1.7-0.1,3.4-0.2,5.1-0.6C77.8,75.3,79.1,74.4,80.8,73.7z"/>
	<path class="st0" d="M60.2,50.9c1-1.7,2.2-2.5,3.7-2.7C64.9,48,66,48,67.1,48c2.6,0,5.1,0.1,7.5-1.4c0.2-0.1,0.4-0.1,0.7-0.1
		c0.2,0,0.4,0,1.1,0.1c-0.7,0.6-1,1-1.5,1.3c-2.1,1.3-4.4,1.5-6.7,1.4c-2.4-0.1-4.8-0.4-6.8,1.6C61.2,51,60.8,50.9,60.2,50.9z"/>
	<path class="st0" d="M8.6,141.9c-0.1-0.9-0.1-0.8,2.6-2.4c1.1-0.6,1.8-1.7,2.8-2.7C14.5,139.4,11.9,140.7,8.6,141.9z"/>
	<path class="st0" d="M104.8,135.3c0.8,2.1,2.5,2.7,4.3,3.2c0.2,0.1,0.4,0.5,0.6,0.7c-0.2,0.2-0.4,0.4-0.6,0.5
		C107.1,140,104.6,137.6,104.8,135.3z"/>
	<path class="st0" d="M54.7,28.3c2.5,2.4,6.1,2.3,8.6-0.1C59.9,25.5,58.8,25.5,54.7,28.3z M57.7,27.2c0.9,0,2.4-0.4,3.2,0.2
		c0.5,0.4-0.2,1-0.6,0.6c0.1,0.1-0.1,0-0.1,0c-0.1,0-0.2,0-0.3,0c-0.2,0-0.5,0-0.7,0c-0.4,0-0.9,0.1-1.3,0.1
		C57.1,28.1,57.1,27.2,57.7,27.2z M56.9,29.1l0-0.3h4.3c0,0.1,0,0.2,0,0.3H56.9z"/>
	<path class="st0" d="M50.4,18c1.2,2.3,4,2.4,6.1,0.3C54.7,16.1,53,16,50.4,18z M52,18.6c-0.1,0-0.1,0-0.2,0c-0.6,0-0.6-0.9-0.1-0.9
		c0.1,0,0.1,0,0.2,0C52.5,17.7,52.5,18.6,52,18.6z M55.2,18.6C55.2,18.6,55.2,18.6,55.2,18.6c-0.2,0.2-0.3,0.2-0.4,0.2c0,0,0,0,0,0
		h0c-0.6,0-0.6-0.9,0-0.9h0c0.1,0,0.1,0,0.2,0c0,0,0,0,0,0C55.4,17.9,55.4,18.3,55.2,18.6z"/>
	<path class="st0" d="M62.1,23c-0.1-0.4-0.8-0.7-1.3-1c-0.1,0.1-0.1,0.2-0.2,0.3c0.1,0.1,0.1,0.2,0.2,0.3c0,0,0.1,0,0.1,0.1
		c0.4,0.3,0.5,0.6,0.4,1c0,0.1,0.1,0.1,0.1,0.2c-0.1,0-0.1,0.1-0.2,0.1c-0.1,0.2-0.3,0.3-0.5,0.4c-0.3,0.1-0.6,0.1-0.8-0.1
		c-0.1,0-0.2,0-0.4,0c-0.1,0-0.2,0.1-0.3,0.1c-0.5,0.1-1.3,0.1-1.7-0.4c0,0-0.1,0-0.1,0c0,0,0-0.1,0-0.1c-0.3-0.5,0-1.3,0.3-1.8
		c0.1-0.1,0.1-0.3,0.2-0.5c0.1-0.2,0.2-0.4,0.2-0.6c0.5-1.8,0.5-2.8-0.1-3.5c-0.5,2-1.1,4-1.5,6.1c-0.1,0.3,0.1,0.8,0.4,1
		c0.9,0.8,4,0.8,4.8,0C62,24.2,62.3,23.5,62.1,23z"/>
	<path class="st0" d="M49.9,15.1c1.5-1.8,4.8-2.1,6.6-0.7C54.3,14.6,52.1,14.9,49.9,15.1z"/>
</g>
</svg>
