<?xml version="1.0" encoding="utf-8"?>
<!-- Generator: Adobe Illustrator 19.1.0, SVG Export Plug-In . SVG Version: 6.00 Build 0)  -->
<svg version="1.1" id="Layer_1" xmlns="http://www.w3.org/2000/svg" xmlns:xlink="http://www.w3.org/1999/xlink" x="0px" y="0px"
	 viewBox="0 0 200 215.1" style="enable-background:new 0 0 200 215.1;" xml:space="preserve">
<style type="text/css">
	.st0{fill:#E91E63;}
</style>
<g id="shingles-model">
	<g id="shinglesman-front">
		<path class="st0" d="M92.7,108c-1.4-1.8-3.1-3.4-4.8-5c-1.1-1.1-2.8-1.5-3.1-3.3c-0.2-0.9-0.4-1.7-0.6-2.6
			c-0.8-4.4-1.6-8.8-2.3-13.2c-0.3-1.8,0-3.7-0.4-5.4c-0.4-2.1-1.2-4.1-1.7-6.2c-1.1-4.8-2.2-9.6-3.2-14.4c-0.2-0.9-0.3-1.8-0.2-2.6
			c0.1-3.6-0.1-7.2-1-10.8c-1.3-5.2-3.7-7.6-8.9-8.8c-3.2-0.8-6.6-1.4-9.5-3.2c-1.6-1-3.1-2.1-3.2-4.1c-0.1-1.8,0-3.6,0.2-5.5
			c0-0.4,0.3-1.1,0.6-1.2c2.2-0.8,2.8-2.6,3.2-4.5c0.3-1.4-0.1-2.6-1-3.7c-0.3-0.4-0.5-0.8-0.6-1.3c-0.1-0.7,0-1.3,0-2
			C56,4.8,51.7-0.6,45.3,0.1c-4.3,0.4-7.5,2.6-8.7,6.4c-0.6,2-0.7,4.1-1.1,6.3c-1,0.5-1.4,0.9-1.4,2.2c-0.1,2.5,0.7,4.6,2.7,6.2
			c0.4,0.3,0.9,0.7,1,1.2c0.2,1.9,0.4,3.9,0.4,5.8c0,1.7-1.2,2.8-2.7,3.5C31.7,33.5,28,35,24,35.9c-4.3,1-8.9,6.3-9,11.8
			c-0.1,3.5,0.6,7-1,10.3c-0.1,0.1,0,0.3,0,0.4c-0.6,3.9-0.8,7.8-1.8,11.6c-1.9,7.4-2.5,14.9-2.5,22.4c0,1.8-0.3,3.6-0.5,5.4
			c-0.3,2.7-1.1,5.1-3.3,6.8c-2.5,1.9-4,4.5-5.5,7.1c-0.3,0.5-0.5,1.6-0.2,1.9c0.4,0.4,1.3,0.4,1.9,0.3c0.5-0.1,1-0.6,1.4-0.9
			c0.3-0.2,0.6-0.5,1.1-0.9c0.1,1.7,0.2,3.1,0.3,4.4c0.2,2.1,0.5,4.1,0.8,6.2c0.1,0.4,0.4,0.8,0.7,1.2c0.4,0.5,1,0.9,1.3,1.5
			c0.5,0.8,1.2,1.2,2,0.9c1.2-0.5,2.4-1.1,3.4-1.9c0.6-0.5,0.9-1.5,1.3-2.3c1.5-0.1,2-0.6,2-2.2c0-1.4,0.1-2.7,0.2-4.1
			c0.1-3.1,0.3-6.2,0.3-9.3c0-1.5-0.2-3,0-4.5c0.5-4.1,2.3-7.8,3.7-11.6c1.1-3.1,2.1-6.3,2.7-9.6c0.6-3.4,0.4-6.9,0.7-10.4
			c0.2-2.1,0.8-4.1,1.2-6.1c0.2,0,0.3,0,0.5,0c0.3,0.5,0.7,0.9,0.8,1.5c0.9,3.1,1.7,6.3,2.4,9.5c0.5,2.3,0.1,4.6-0.2,6.9
			c-0.3,2.1,0.1,4.3,0.1,6.4c0,0.8-0.1,1.7-0.2,2.5c-0.7,3.8-1.5,7.5-2,11.3c-0.7,5.6-1.2,11.2-1.7,16.8c-0.6,6-0.7,12,1,18
			c0.8,2.8,1.4,5.7,2.2,8.5c0.3,1.3,0.8,2.5,1.3,3.7c0.2,0.7,0.5,1.3,0.7,2c1.1,4.5,0.6,9.1,0.4,13.7c-0.2,6.9-0.4,13.8,1.4,20.6
			c1.6,6.3,2.6,12.9,2.7,19.4c0,0.9-0.5,2-1,2.8c-0.7,1.1-1.8,2.1-2.6,3.2c-0.4,0.6-0.9,1.7-0.6,2.2c0.3,0.6,1.4,0.9,2.2,1
			c1.6,0.3,3.3,0.5,5,0.6c1.1,0.1,2.3,0.1,3.5,0c2.2-0.3,3.2-1.5,3.2-3.8c0-1.9,0.1-3.8,0.2-5.7c0-0.6,0.1-1.3-0.2-1.8
			c-1.2-3-1.4-6.2-1.1-9.4c0.3-2.9,0.4-5.8,0.7-8.8c0.3-3.4,0.7-6.7,1-10.1c0.5-6-1.9-11.8-1.1-17.8c0.2-1.6,0.1-3.3,0.2-5
			c0.4-4.4,0.8-8.7,1.2-13.1c0.2-2.3,0.4-4.6,0.5-6.9c0.4,1.4,0.5,2.8,0.7,4.2c0.3,2.8,0.6,5.6,0.9,8.4c0.4,4.3,0.8,8.7,1.1,13
			c0.1,1.4,0.1,2.8,0,4.2c-0.3,2.4-1.1,4.7-1.2,7c-0.1,4.1-0.3,8.2,0.4,12.2c0.5,2.4,0.6,4.9,0.8,7.4c0.3,4.3,1.1,8.5-0.1,12.9
			c-0.8,3.2-0.3,6.8-0.2,10.2c0,1.4,1,2.2,2.4,2.4c0.9,0.1,1.8,0.1,2.7,0c1.8-0.1,3.5-0.2,5.3-0.2c1.3,0,2.7-0.6,3-1.6
			c0.3-1.2-0.6-1.9-1.3-2.5c-0.3-0.2-0.7-0.4-0.8-0.7c-0.6-1.1-1.5-2.2-1.6-3.4c-0.4-6.7,0.8-13.3,2-20c0.8-4.6,1.5-9.2,1.9-13.8
			c0.3-2.4-0.1-4.8,0-7.3c0.1-3.2,0.2-6.5,0.4-9.7c0.1-2.2,0.2-4.4,0.7-6.5c0.9-3.7,2.3-7.2,3.2-10.9c0.8-3.5,1.3-7.1,1.6-10.6
			c0.4-5.2-0.3-10.5-1-15.7c-0.8-5.9-1.6-11.7-2.4-17.6c-0.2-1.6-0.5-3.2-0.6-4.8c-0.1-2,0.3-4.1,0-6.1c-0.6-3.3-1.3-6.5-0.5-9.9
			c0.5-2.5,1.8-4.7,3.1-7c0.6,1.1,1.3,2.1,1.5,3.2c0.3,1.7,0.4,3.4,0.4,5.2c0,5.6,1.7,10.8,4,15.8c1.8,4,4.6,7.6,5.4,12
			c0.2,0.9,0.2,1.9,0.2,2.8c0,1.7-0.3,3.5,0,5.1c0.5,3.2,1.3,6.4,1.9,9.6c0.3,1.8,0.8,2.1,2.2,2c0.8,0.8,1.4,1.6,2.1,2.1
			c0.8,0.4,1.8,0.6,2.8,0.7c0.3,0,0.8-0.5,1.1-0.8c0.2-0.2,0.2-0.7,0.3-1c1.5,0,2.3-0.5,2.4-1.6c0.1-2.2,0.1-4.4,0-6.6
			c0-1.5-0.2-3-0.4-4.7c1.3,0.6,2.6,1.2,3.3,0.1C93.4,110.1,93.2,108.6,92.7,108z M56.6,15.9c-1.3-0.1-2.6-0.2-4-0.3
			c0-0.1-0.1-0.2-0.1-0.4c0.7-0.5,1.3-1.1,2.1-1.7C55.1,14.5,57,13.9,56.6,15.9z M52.2,14.5C52,13.2,51,13.2,49.9,13
			c1-1.2,1.8-2.3,3.6-1.6c-0.3-0.3-0.5-0.6-0.8-1c0.5-0.5,1.1-1,1.6-1.5C55.4,11.5,55,12.5,52.2,14.5z M51.1,14.4L51.1,14.4
			c-0.1,0-0.2,0-0.2-0.1c-0.4-0.1-0.4-0.7,0.1-0.7c0.1,0,0.1,0,0.2,0.1C51.6,13.7,51.6,14.4,51.1,14.4z M47.7,1.2
			c1.2,0.6,2.2,1.1,3.1,1.5c-1.1,1.1-2.1,2.1-3.1,3.2V1.2z M49.2,5.4c0.2-0.1,0.4-0.4,0.6-0.6c1.9-1.9,2.6-1.7,3.6,0.8
			c-1.8,1.4-3.6,2.9-5.6,4.4C47.4,8.2,47.5,6.6,49.2,5.4z M51.4,7.7c0.7-0.5,1.5-0.9,2.2-1.4c0.9,1.2,0.7,2-0.3,2.8
			c-1,0.8-1.9,1.6-3.3,1.6c-0.5,0-0.9,0.3-1.4,0.5c0,0.1,0.1,0.2,0.1,0.4c0.5-0.1,1-0.1,1.3-0.1c-0.8,0.9-1.7,1.8-2.6,2.9
			C46.9,10.8,49.4,9.4,51.4,7.7z M49.1,14.7c-0.1,0.1-0.1,0.2-0.3,0.2h0c-0.4,0-0.5-0.6-0.1-0.7c0.1-0.1,0.1-0.1,0.3-0.1
			C49.3,14,49.4,14.5,49.1,14.7z M52.1,14.5c-0.5,0.8-1.1,1.1-2.1,1c-0.9-0.1-1.8,0-2.7-0.3C49,15.4,50.6,15.4,52.1,14.5z
			 M37.2,19.9c-0.5,0-1.1-1.2-1.7-1.9c0.1-0.1,0.2-0.2,0.3-0.2c0.4,0.1,0.9,0.3,1.3,0.4c-0.8-0.9-1.9-1.5-1-3
			c-0.3,0.3-0.6,0.6-0.9,1c-0.2-1.3-0.2-2.2,1.1-2.8c0.4-0.2,0.7-1,0.8-1.6c0.2-1.3,0.2-2.6,0.4-3.8c0.8-4.5,4.6-6.6,8.4-6.6
			c0.9,0,1.2,0.3,1.1,1.2c-0.1,4-0.2,8.1-0.3,12.1c0,1.7,0,1.6,1.6,1.6c2.5,0,5,0.3,7.5,0.5c0.3,0,0.6,0.4,0.7,0.7
			c0.2,0.8-1.4,3-2.2,2.9c-0.9-0.1-1.1,0.3-1.2,1c-0.3,1.1-0.4,2.3-1.1,3.1c-2,2.5-4.8,3.2-8,2.8c-1.9-0.3-3.3-1.3-4.4-2.7
			c-0.6-0.8-0.6-2-1-3C38.5,20.8,38.6,19.9,37.2,19.9z M43.1,28c-0.1,0.8-0.1,1.4-0.2,2.1c-3.3-0.6-4-1.5-3.4-4.5
			c0.6,0.4,1.1,0.9,1.7,1.3C41.8,27.3,42.4,27.6,43.1,28z M38.2,30.9c0.4-0.4,0.6-0.9,1-1.5c1,0.5,2.1,0.9,3.1,1.3
			c0.6,0.3,1.2,2.7,0.8,3.3c-0.1,0.2-0.4,0.4-0.6,0.3c-1.4-0.5-2.7-1-4-1.6C37.7,32.4,37.4,31.7,38.2,30.9z M36.7,32.4
			c0.2-0.1,0.5,0,0.7,0.1c1.4,0.7,2.7,1.5,4.1,2.3c-1.3,1.8-4.7,1-8-1C34.7,33.3,35.7,32.8,36.7,32.4z M32.7,34.3
			c0.2-0.1,0.4,0,0.6,0c1.6,0.7,3.1,1.3,5.1,2.2c-2.8,0.2-5.1-0.5-7.8-0.8c1.2,1.8,3.1,1,4.5,1.7c-3,2.1-3.1,2.4-7.7-1.2
			C29.2,35.6,31,34.9,32.7,34.3z M31.4,39.6c-1.7,1.1-3.2,1.8-5.1,0.8c-1.4-0.7-2.8-1.4-4.1-2.1C24.2,36.1,28.2,36.6,31.4,39.6z
			 M19,41c1.6-2.5,2.6-2.7,5.2-1.2c1.1,0.7,2.4,1.1,3.7,1.6c-1.9,1.9-4,2-6.2,0.8c-0.8-0.5-1.8-0.7-2.7-1C19,41.1,19,41,19,41z
			 M18.4,41.6c2,0.7,3.9,1.4,5.9,2.1c0,0.1,0.1,0.2,0.1,0.3c-0.6,0.2-1.2,0.7-1.8,0.6c-1.7-0.3-3.4-0.8-5.4-1.2
			C17.7,42.7,18,42.2,18.4,41.6z M19,44.3c1.1,0.2,2.3,0.5,3.4,0.9c-1.7,1.3-3.7,1.6-5.8,1.5c0-0.2-0.1-0.3-0.1-0.5
			C16.7,44.1,16.9,43.9,19,44.3z M27.9,65.6c1.1,0.1,1.8,0.3,1.9,1.6c0.1,1.8,0.6,3.6,0.9,5.5c-0.1,0.1-0.2,0.2-0.3,0.3
			c-0.3-0.3-0.8-0.6-0.9-1C28.9,69.9,28.4,67.8,27.9,65.6z M30.5,66.2c0.5,0.1,1.1,0.3,1.5,0.4c0.2,2.3,0.5,4.5,0.7,6.8
			C31.3,73,30,68.3,30.5,66.2z M31.5,83.3c0.1,2.3,0.3,4.5,0.4,6.8c-1.1-0.1-1.7-0.4-1.7-1.3c-0.1-1.4-0.3-2.8-0.5-4.2
			C29.6,83.3,30.1,82.8,31.5,83.3z M46.5,117.6c-0.3,3-0.5,6.1-0.8,9.1c0,0-0.1,0-0.1,0c-0.1-2.5-0.3-4.9-0.4-7.4
			c-0.1-1.5-0.2-2.9-0.2-4.4c0-0.4,0.5-0.9,0.8-1.3c0.3,0.4,0.8,0.7,0.8,1.1C46.7,115.6,46.6,116.6,46.5,117.6z M92,110.2
			c-0.5-0.3-1.1-0.5-1.6-0.8c-0.2-0.1-0.3-0.5-0.5-0.6c-0.4-0.2-0.9-0.3-1.4-0.4c0,0.4-0.1,0.9-0.1,1.3c0.5,4.1,1.2,8.2,0.5,12.5
			c-1.1,0-1.3-0.6-1.3-1.4c0.1-2.3,0.1-4.6-0.8-6.8c-0.2-0.4-0.4-0.8-0.7-1.1c-0.1,0-0.3,0.1-0.4,0.1c0,0.3,0,0.7,0.1,1
			c1.1,3.1,0.9,6.2,0.7,9.3c0,0.3-0.4,0.7-0.6,1c-0.2-0.3-0.5-0.6-0.6-0.9c-0.1-0.5-0.2-1.1-0.2-1.7c-0.2-2.1-0.4-4.1-0.7-6.2
			c0-0.4-0.3-0.7-0.7-1.1c-0.3,3.1,1,6.1-0.1,9.2c-0.1,0.1-0.3,0.1-0.4,0.2c-0.3-0.5-0.6-0.9-0.7-1.4c-0.5-2.5-0.8-5-1.3-7.4
			c-0.1-0.3-0.3-0.7-0.6-1c-1,2.5,0.7,4.9,0,7.5c-0.2-0.2-0.5-0.3-0.6-0.5c-0.8-4.6-2.4-9-2.2-13.7c0-0.3,0-0.6,0-0.8
			c1.3-3.7-0.5-6.8-2.1-9.9c-3.5-6.8-7.2-13.5-7-21.5c0-1.3-0.1-2.7-0.2-4c-0.1-1.8-0.8-3.4-1.9-4.9c-0.3-0.4-0.4-1-0.4-1.6
			c-0.1-1.4-0.1-2.7-0.1-4.1c0-1.6-0.1-3.3,0-4.9c0.1-2.1,0.5-4.2,0.6-6.3c0-0.8-0.4-1.6-0.7-2.4c-0.1,0-0.3,0.1-0.4,0.1
			c-0.1,0.2-0.3,0.5-0.2,0.7c0.8,2.6-0.2,5.1-0.3,7.6c-0.1,1.9,0,3.8,0,5.7c0,1.4,0,2.8-0.4,4.1c-0.9,2.6-2.3,5-3.1,7.6
			c-1.1,3.6-0.7,7.2,0.1,10.8c0.4,1.6,0.3,3.3,0.2,4.9c0,0.6-0.7,1.3-1.2,1.7c-1,0.8-2.2,1.5-3.3,2.2c-0.2,0.2-0.4,0.4-0.6,0.7
			c0.1,0.1,0.2,0.3,0.2,0.4c0.7-0.4,1.5-0.7,2.2-1.1c0.7-0.4,1.4-0.9,2.4-1.6c0.7,3.9,1.4,7.5,1.8,11.1c0.8,5.9,1.5,11.9,2,17.9
			c0.4,4.7,0.2,9.4-0.5,14.1c-0.8,4.9-2.2,9.6-3.7,14.3c-0.5,1.7-0.7,3.5-0.8,5.2c-0.1,1.1-0.6,1.3-1.5,1.3c-1.2,0-2.3,0-3.5,0
			c-0.3,0-0.7,0.4-1,0.6c0.4,0.2,0.7,0.5,1.1,0.5c1.5,0.1,2.9,0,4.4,0c0.1,0.2,0.2,0.3,0.2,0.5c0,4.2,0.1,8.4-0.1,12.6
			c-0.2,4.3-0.6,8.7-1.2,13c-0.8,6.1-2,12.2-2.8,18.4c-0.3,2.1-0.2,4.4-0.1,6.5c0.1,2.2,1.3,3.7,3,5c0.3,0.3,0.5,0.7,0.7,1.1
			c-0.3,0-0.7,0.1-1,0.1c-1.9,0.2-3.7,0.4-5.6,0.6c-0.2,0-0.4,0.1-0.7,0.1c-3.1,0.2-3.5-0.2-3.5-3.3c0-2.1,0-4.2,0-6.3
			c0-0.8,0.1-1.6,0.4-2.3c1-2.3,0.7-4.6,0.5-6.9c-0.2-2.7-0.5-5.5-0.8-8.2c-0.5-5.3-1.3-10.5-1-15.8c0.1-1.4,0.3-2.8,0.6-4.2
			c0.6-3.4,1.6-6.7,0.5-10.2c-0.5-1.7-0.5-3.6-0.6-5.4c-0.4-4.9-0.9-9.7-1.2-14.6c-0.4-6.2-0.5-12.4,0.4-18.6
			c0.2-1.2,0.1-2.4-0.1-3.6c-0.2-1-0.9-1.6-2-1.5c-1,0.1-1.7,0.7-1.7,1.9c0.2,4.6,0.6,9.1,0.5,13.7c0,3.5-0.5,7.1-0.7,10.6
			c0,0.7,0.2,1.4,0.1,2.1c-0.3,3.2-0.7,6.4-1,9.7c-0.4,4.1-1.1,8.1-0.5,12.3c0.6,4.3,1,8.7,1.1,13.1c0,3.1-0.7,6.2-0.9,9.3
			c-0.3,3.4-0.3,6.8-0.7,10.1c-0.4,3,0.2,5.7,1.1,8.5c0.2,0.5,0.2,1.1,0.2,1.7c0,2-0.1,3.9-0.2,5.9c0,1.5-0.5,2.1-2,2.4
			c-0.1,0-0.2,0-0.3,0c-3-0.3-6-0.5-9.4-0.9c1-1.4,1.8-2.6,2.8-3.5c1.4-1.3,1.9-2.8,1.9-4.8c-0.2-7-1.5-13.9-3-20.6
			c-1.4-6.2-1.3-12.3-1.1-18.6c0.1-3.2,0-6.5,0-9.8c1.7-0.2,3.2-0.4,4.7-0.6c0-0.1,0-0.3,0-0.4c-1.3-0.8-2.9-0.2-4.5-0.5
			c-0.9-3.1-1.9-6.3-2.7-9.6c-0.8-2.9-1.4-5.8-2.2-8.6c-1.4-4.5-1.3-9-1-13.6c0.4-5.4,1-10.8,1.6-16.2c0.2-1.7,0-3.5,0.6-5
			c1-2.4,0.3-4.9,1-7.3c0.1-0.3,0.1-0.6,0.2-0.9c0.7-2.3,0.7-2.2,2.9-1.3c2.7,1.2,5.6,1.8,8.5,2.4c1.1,0.2,2.1,0.6,3.3,1
			c0.1-0.1,0.3-0.4,0.3-0.7c0.4-2,0.7-4,1.2-6c0.3-1,0-1.5-0.9-1.8c-3.7-1.1-7.3-2.2-11-3.3c-1.2-0.3-2.3-0.7-3.4-1v-8.8
			c1.6,0.3,3.3,0.7,4.9,1.1c3,0.7,5.9,1.6,8.9,2.3c0.6,0.1,1.2,0.2,1.8,0.3c-0.1-0.6-0.3-1.2-0.3-1.8c-0.1-1.9-0.3-3.8-0.4-5.7
			c0-0.9-0.4-1.3-1.1-1.3c-5.3-0.4-10.3-1.9-15.4-3.3c-1-0.3-1.9-0.4-2.2-1.5c-0.1-0.2-0.2-0.4-0.2-0.6c-0.1-3.8-0.3-7.5-0.4-11.3
			c0-1.6,0.2-3.2,0.2-4.8c0-0.2-0.2-0.4-0.3-0.6c-0.2,0.1-0.5,0.2-0.6,0.4c-0.2,0.5-0.4,1-0.4,1.5c0.1,3.1,0.2,6.1,0.4,9.2
			c0.2,2.5-0.1,4.9-1.2,7.2c-1.4,2.8-1.5,5.9-1.6,9c-0.1,6.6-1.5,13-4.1,19.1c-1.3,2.9-1.9,6.2-2.8,9.2c-0.1,0.4-0.2,0.8-0.3,1.2
			c-0.7,0-1.4,0.1-2,0.1l-0.1,0.3c0.4,0.2,0.7,0.6,1.1,0.6c1,0,1.2,0.7,1.4,1.4c0.9,3.4,0.1,6.8,0,10.2c-0.1,1.4-0.1,2.8-0.2,4.3
			c0,0.4-0.3,0.7-0.5,1.1c-0.2-0.3-0.5-0.7-0.6-1c-0.1-1.6-0.1-3.2-0.1-4.8c0-0.3-0.2-0.5-0.6-0.8c-0.1,0.5-0.3,1-0.3,1.5
			c-0.1,2.1-0.2,4.2-0.3,6.2c0,0.4-0.1,0.9-0.4,1.2c-0.2,0.3-0.7,0.4-1,0.4c-0.2,0-0.4-0.5-0.4-0.8c0-2.1,0.2-4.2,0.2-6.3
			c0-0.6-0.2-1.2-0.3-2c-0.7,0.7-0.7,0.7-0.7,3.5c0,1.2-0.1,2.3-0.2,3.5c-0.1,1.2-0.2,2.3-0.3,3.5c-0.2,0-0.3,0.1-0.5,0.1
			c-0.2-0.4-0.5-0.8-0.5-1.2c0.1-2.3,0.3-4.7,0.4-7c0-0.9,0-1.8,0-2.7c-0.2,0-0.5,0-0.7,0c-0.3,2.8-0.7,5.6-1,8.4
			c-0.1,0-0.3,0-0.4,0c-0.2-1.3-0.6-2.5-0.7-3.8c-0.2-2.8-0.2-5.6-0.3-8.4c0-0.3-0.3-0.7-0.5-1c-0.4,0.2-0.8,0.3-1.1,0.6
			c-0.6,0.6-1.1,1.4-1.7,2c-0.3,0.3-0.6,0.5-1,0.7c-0.1-0.1-0.3-0.2-0.4-0.4c1.3-1.8,2.5-3.7,3.9-5.4c1.3-1.6,2.7-3,4.1-4.6
			c0.2-0.2,0.4-0.6,0.4-1c0.8-3.7,1.3-7.4,1.3-11.2c0.1-6.5,0.6-13,2.3-19.3c1-4,1.3-8.1,2-12.2c0.2-1.2,0.6-2.3,0.8-3.5
			c0.2-1.1,0.3-2.1,0.3-3.2c0-1.5,0-3,0-4.5c1.2-0.1,2.3-0.4,3.4-0.4c1.7-0.1,2.8-1.2,4.1-2.1c1.9-1.4,3.9-2.7,6-4
			c1.2-0.8,2.7-1.2,3.9-2c3.4-2.1,6.5-1.1,9.5,0.8c0.5,0.3,1.1,0.5,1.7,0.5c-1.5-1.9-3.5-2.8-6.1-3.4c1.3-0.6,2.2-1.1,3.2-1.5
			c1.7-0.7,1.8-1,1.6-2.8c-0.2-1.4-0.2-2.9-0.3-4.6c3.5,0.7,6.3-0.3,9.1-2.5c0,0.7,0.1,1.1,0,1.5c-0.4,2.2,0.4,4.1,2.1,5.3
			c1.8,1.3,3.9,2.2,6,3c2.7,1,5.5,1.5,8.1,2.4c2.7,0.9,4.2,2.9,5,5.6c1.1,3.9,1.3,7.8,1.4,11.8c0.1,3.1,0.9,6.1,1.6,9.1
			c1,4.4,2.4,8.7,3.4,13.1c0.3,1.3,0.1,2.8,0.3,4.1c0.8,5.6,1.8,11.2,2.6,16.8c0.2,1,0.7,2.1-0.7,2.8c-0.1,0-0.1,0.5-0.1,0.5
			c0.2,0.1,0.5,0.2,0.7,0.1c0.9-0.5,1.5-0.1,2.1,0.5c2.1,2,4.3,4,6.3,6c0.4,0.4,0.5,1.1,0.8,1.6C92.2,110,92.1,110.1,92,110.2z
			 M34.8,91.3c-1.6-0.1-2.2-0.9-2.2-2.3c0-1.7-0.3-3.5-0.4-5.3c0.3,0,0.4,0,0.6,0c2.1,0.6,2.1,0.6,2.1,2.8
			C34.8,88.1,34.8,89.7,34.8,91.3z M35.3,84.5c0.7,0.2,1.3,0.3,1.9,0.5c0.2,0.1,0.5,0.4,0.5,0.6c0,2.3,0,4.5,0,6.8
			c-1.9-0.1-2.3-0.4-2.4-1.9C35.3,88.6,35.3,86.6,35.3,84.5z M38.4,85.3c0.9,0.3,1.8,0.6,2.6,0.9c0.2,0.1,0.4,0.4,0.4,0.6
			c0,2.1,0,4.2,0,6.4c-0.7,0-1.1,0-1.5,0c-1-0.1-1.6-0.5-1.5-1.8C38.5,89.5,38.4,87.6,38.4,85.3z M42,86.8c0.1-0.1,0.2-0.2,0.3-0.1
			c2.9,0.6,2.8,0.6,2.2,3.4c-0.3,1.3-0.5,2.6-0.8,3.9c-1.2,0-1.8-0.3-1.7-1.7C42.1,90.5,42,88.6,42,86.8z M32.8,67
			c1,0.2,1.7,0.4,2.5,0.6c0.1,2.3,0.2,4.3,0.3,6.3c-1.6,0.3-2.3-0.6-2.4-1.9C33,70.4,32.9,68.8,32.8,67z M35.9,67.9
			c0.2-0.1,0.3-0.2,0.4-0.1c3.3,0.7,2.5-0.1,2.8,3.2c0.1,1.3,0,2.7,0,4.1c-0.8-0.2-1.5-0.3-2-0.6c-0.4-0.2-0.8-0.7-0.9-1.1
			C36,71.6,36,69.7,35.9,67.9z M42.3,75.6c-2.1,0-2.5-0.5-2.7-2.4c-0.1-1.5,0-3,0-4.5c1.7-0.3,2.2,0.4,2.2,1.9
			C41.8,72.3,42.1,73.9,42.3,75.6z M42.2,69.1c2.3-0.4,2.4-0.2,2.4,1.7c0.1,1.8,0.2,3.6,0.3,5.5c-1.7,0.1-2.2-0.6-2.2-2
			C42.7,72.6,42.4,70.8,42.2,69.1z"/>
		<path class="st0" d="M62.7,57.2c-0.1,0.3-0.1,0.8-0.3,1c-0.5,0.4-1,1-1.6,1.1c-2.7,0.4-5.4,0.9-8.2,0.9c-1.8,0-3.5-1-5.3-1.6
			c-0.4-0.2-0.8-0.7-1.2-1.1c-1.6,1.9-3.8,1.7-6,1.8c-2,0-3.9,0.1-5.9,0.1c-1.7,0-4.4-1.7-5-3.4c0.7,0.4,1.2,0.6,1.6,0.9
			c1.2,0.8,2.4,1.7,3.9,1.6c2.5-0.1,5-0.1,7.5-0.2c1.8-0.1,3.2-0.7,3.3-3c0.4,0.2,0.6,0.3,0.7,0.4c2,3.6,5.4,3.7,8.9,3.6
			c1.3-0.1,2.7-0.1,3.9-0.5C60.4,58.5,61.5,57.8,62.7,57.2z"/>
		<path class="st0" d="M46.7,39.6c0.8-1.3,1.7-1.9,2.9-2.1c0.8-0.1,1.7-0.2,2.5-0.2c2,0,4,0.1,5.8-1.1c0.1-0.1,0.3-0.1,0.5-0.1
			c0.2,0,0.3,0,0.9,0.1c-0.5,0.5-0.8,0.8-1.2,1c-1.6,1-3.4,1.2-5.2,1.1c-1.8-0.1-3.8-0.3-5.3,1.2C47.5,39.6,47.3,39.5,46.7,39.6z"/>
		<path class="st0" d="M6.7,110.2c-0.1-0.7,0-0.6,2-1.8c0.8-0.5,1.4-1.4,2.1-2.1C11.3,108.3,9.3,109.3,6.7,110.2z"/>
		<path class="st0" d="M81.4,105.1c0.6,1.6,1.9,2.1,3.4,2.5c0.2,0,0.3,0.4,0.4,0.5c-0.2,0.1-0.3,0.3-0.5,0.4
			C83.2,108.7,81.2,106.9,81.4,105.1z"/>
		<path class="st0" d="M42.5,22c1.9,1.9,4.7,1.8,6.7-0.1C46.5,19.8,45.6,19.8,42.5,22z M44.8,21.1c0.7,0,1.8-0.3,2.5,0.2
			c0.4,0.3-0.1,0.8-0.5,0.5c0.1,0.1-0.1,0-0.1,0c-0.1,0-0.2,0-0.3,0c-0.2,0-0.4,0-0.6,0c-0.3,0-0.7,0.1-1,0
			C44.3,21.8,44.3,21.1,44.8,21.1z M44.2,22.6l0-0.3h3.4c0,0.1,0,0.2,0,0.3H44.2z"/>
		<path class="st0" d="M39.1,14c0.9,1.8,3.1,1.9,4.7,0.2C42.5,12.5,41.2,12.4,39.1,14z M40.4,14.5c0,0-0.1,0-0.2,0
			c-0.4,0-0.5-0.7,0-0.7c0,0,0.1,0,0.2,0C40.8,13.8,40.8,14.4,40.4,14.5z M42.9,14.4C42.9,14.4,42.9,14.4,42.9,14.4
			c-0.1,0.1-0.2,0.2-0.3,0.1c0,0,0,0,0,0h0c-0.5,0-0.5-0.7,0-0.7h0c0.1,0,0.1,0,0.2,0c0,0,0,0,0,0C43,13.9,43.1,14.2,42.9,14.4z"/>
		<path class="st0" d="M48.3,17.9c-0.1-0.3-0.7-0.5-1-0.8c-0.1,0.1-0.1,0.2-0.2,0.3c0,0.1,0.1,0.2,0.1,0.3c0,0,0.1,0,0.1,0
			c0.3,0.2,0.4,0.5,0.3,0.7c0,0,0,0.1,0.1,0.1c-0.1,0-0.1,0-0.2,0.1c-0.1,0.1-0.2,0.2-0.4,0.3c-0.2,0.1-0.5,0-0.7,0
			c-0.1,0-0.2,0-0.3,0c-0.1,0-0.1,0.1-0.2,0.1c-0.4,0-1,0-1.3-0.3c0,0-0.1,0-0.1,0c0,0,0-0.1,0-0.1c-0.2-0.4,0-1,0.2-1.4
			c0.1-0.1,0.1-0.2,0.2-0.4c0.1-0.1,0.1-0.3,0.2-0.5c0.4-1.4,0.4-2.1-0.1-2.7c-0.4,1.5-0.8,3.1-1.2,4.7c-0.1,0.2,0.1,0.6,0.3,0.8
			c0.7,0.6,3.1,0.7,3.7,0C48.2,18.8,48.4,18.2,48.3,17.9z"/>
		<path class="st0" d="M38.8,11.7c1.1-1.4,3.7-1.7,5.1-0.5C42.1,11.4,40.5,11.5,38.8,11.7z"/>
	</g>
	<g id="shinglesman-back_1_">
		<g>
			<path class="st0" d="M114.8,124.7c-0.1,0.1-0.2,0.3-0.4,0.4c-0.6,0.5-1.5,0.3-1.7-0.5c-0.1-0.4-0.1-0.8-0.2-1.2
				c0-0.3-0.1-0.5-0.1-0.8c-1.6,0.4-2.3-0.1-2.2-1.7c0.1-2.3,0.3-4.6,0.4-6.8c0.1-1.3,0-2.6,0-4c-0.3,0.2-0.5,0.2-0.7,0.4
				c-0.5,0.2-0.9,0.5-1.4,0.7c-0.5,0.2-1.2,0.3-1.5-0.2c-0.2-0.4-0.3-1-0.1-1.4c0.5-0.9,1.1-1.8,1.8-2.5c1.8-1.6,3.6-3.2,5.5-4.7
				c0.9-0.7,1.3-1.8,1.5-2.8c0.5-2.4,0.9-4.8,1.3-7.2c0.3-2,0.5-3.9,0.6-5.9c0.2-3.4,0.8-6.7,1.7-10c0.8-2.9,1.5-5.8,2.2-8.7
				c0.9-4.1,1.4-8.3,2.6-12.3c0.4-1.3,0.2-2.4,0-3.6c-0.8-4.3-0.4-8.5,2.7-12c1.6-1.8,3.4-3.2,5.9-3.7c1.3-0.3,2.6-0.8,4-1
				c2.8-0.5,5.3-1.6,7.7-3.1c1.1-0.7,2.1-1.9,2-3.4c-0.2-2-0.5-4-0.8-6c-0.1-0.4-0.1-0.9-0.2-1.4c-1.3,0.4-1.7-0.5-1.9-1.4
				c-0.3-1.3-0.6-2.6-0.7-4c-0.1-1.2,0.2-1.4,1.2-1.9c0-1-0.1-2.1,0-3.1c0.4-4,2.1-7.1,5.8-9.1c2-1.1,4-0.6,6-0.5
				c1.9,0.1,3.6,1.2,4.8,2.4c1.6,1.6,2.7,3.5,2.8,5.8c0.1,1.3,0.2,2.5,0.3,3.8c0,0.2,0.2,0.5,0.3,0.5c0.8,0.1,0.9,0.7,1,1.3
				c0.4,1.9-0.2,3.6-1,5.2c-0.3,0.6-0.7,1-1.5,1c-0.1,0.8-0.3,1.5-0.4,2.3c-0.3,1.8-0.8,3.5-0.7,5.3c0.1,1.4,1.1,3,2.4,3.5
				c1.4,0.6,2.7,1.2,4.1,1.8c0.7,0.3,1.5,0.6,2.3,0.9c1.9,0.5,3.8,1,5.8,1.5c1.3,0.3,2.3,1,3.4,1.8c0.2,0.1,0.3,0.4,0.4,0.6
				c0.4,0.4,0.8,0.7,1.1,1.1c0.4,0.5,0.9,1,1.2,1.6c1.5,2.6,2,5.4,1.8,8.4c0,0.8-0.3,1.6-0.3,2.4c0,0.6-0.1,1.3,0.2,1.8
				c0.9,1.6,1.3,3.4,1.6,5.2c0.2,1.3,0.6,2.5,0.8,3.8c0.3,2.3,0.5,4.6,0.9,6.9c0.2,1.2,0.7,2.3,1.2,3.4c0.8,1.8,1.3,3.7,1.2,5.7
				c-0.1,2.7,0.2,5.3,0.5,7.9c0.1,0.9,0,1.7,0.1,2.6c0.2,2.8,0.4,5.6,0.7,8.4c0.1,1.2,0.5,2.3,0.8,3.4c0.1,0.3,0.3,0.5,0.5,0.8
				c1,1,2.1,2,3.1,3.1c1.1,1.2,2.1,2.6,3.2,3.9c0.4,0.5,0.8,1.1,1.2,1.7c0.2,0.3,0.4,0.6,0.4,0.9c0.1,0.5,0.5,1.2-0.1,1.6
				c-0.7,0.5-2,0.5-2.6-0.1c-0.6-0.7-1.2-1.4-1.8-2.1c-0.1-0.2-0.3-0.3-0.5-0.6c0,0.3,0,0.4-0.1,0.5c-0.1,3.1-0.3,6.2-0.4,9.2
				c0,0.4,0,0.9,0,1.3c0,1-0.5,1.7-1.5,1.9c-0.4,0.1-0.5,0.3-0.7,0.6c-0.1,0.4-0.4,0.7-0.6,1c-0.7,0.7-1.3,0.7-2,0
				c-0.1-0.1-0.4-0.4-0.5-0.3c-0.7,0.1-1.3,0.1-1.8-0.4c-0.6-0.6-0.9-1.4-0.9-2.2c0-0.5-0.1-1-0.2-1.5c-0.1,0-0.1,0-0.2,0
				c-0.1,0.2-0.2,0.4-0.3,0.6c-0.2,0.2-0.4,0.6-0.6,0.6c-0.4,0-0.9-0.2-1-0.5c-0.3-0.5-0.4-1.2-0.4-1.8c-0.2-2.2-0.5-4.4-0.6-6.6
				c-0.1-1.6,0-3.2,0.1-4.8c0.1-1.4,0.5-2.7,0.5-4.1c0-1.9-0.3-3.7-1-5.5c-1.1-2.8-2-5.6-3.3-8.3c-0.7-1.5-1.3-3.1-1.7-4.7
				c-0.8-3.5-1.1-7.1-1.4-10.7c-0.2-2.2-0.6-4.3-1-6.4c-0.2-1.3-0.6-2.5-1-3.7c0-0.1-0.1-0.1-0.1-0.3c-1.3,1.7-2.1,3.5-2.6,5.5
				c-0.2,0.9-0.6,1.8-0.6,2.8c-0.2,2.3-0.4,4.7-0.4,7c0,1.4,0.6,2.7,1,4.1c0,0.1,0.1,0.2,0.1,0.2c-0.2,1.1-0.5,2.3-0.6,3.4
				c-0.1,0.7-0.2,1.5,0,2.2c0.7,2,0.9,4.1,1.1,6.3c0.3,2.7,0.7,5.4,1.2,8c0.8,3.9,1.4,7.8,1.2,11.9c-0.1,2.5,0.2,5.1,0.2,7.6
				c0,1.9-0.1,3.7,0.2,5.6c0.4,2.6-0.5,5.1-1.1,7.7c-0.4,2-1,4-1.6,6.1c-0.1,0.5-0.4,1-0.6,1.5c-0.8,1.8-1.7,3.5-2.3,5.4
				c-0.4,1.2-0.4,2.5-0.5,3.8c-0.1,1.3-0.2,2.6-0.2,3.9c0,0.1,0,0.3,0,0.4c0.5,2.5,0.3,4.9,0.4,7.4c0.1,1.3,0.1,2.6,0.1,3.9
				c-0.1,2.8-0.1,5.6-0.4,8.4c-0.1,1-0.6,2-0.9,3c-0.9,2.4-1.6,4.8-1.6,7.4c0,1.2-0.3,2.4-0.4,3.6c-0.3,2.3-0.6,4.6-0.8,6.9
				c-0.2,2.1-0.3,4.2-0.5,6.4c-0.1,1.3,0.4,2.3,1.6,3c0.8,0.5,1.5,1.1,2.2,1.8c1.3,1.2,0.9,3.1-0.8,3.6c-0.7,0.2-1.6,0.3-2.4,0.2
				c-1.7-0.2-3.4-0.3-5.2,0c-0.8,0.1-1.7-0.1-2.5-0.3c-0.8-0.2-1.3-0.9-1.4-1.6c-0.2-1.4-0.4-2.7-0.4-4.1c0-2.1,0-4.1,0.1-6.2
				c0.1-1.2,0.6-2.3,0.7-3.4c0.1-2.5,0.2-5.1,0.1-7.6c-0.1-2.4-0.5-4.8-0.6-7.2c-0.1-1.4-0.5-2.7-0.8-4c-0.4-1.7-0.7-3.5-0.7-5.3
				c0-1.9,0.4-3.7,0.7-5.6c0.4-2.6,0.7-5.3,1.2-7.9c0.3-1.4-0.1-2.6-0.3-3.9c-0.1-0.4-0.1-0.8-0.1-1.2c0-2-0.4-3.9-0.6-5.8
				c-0.2-1.2-0.1-2.5-0.1-3.8c-0.1-1.6-0.1-3.2-0.2-4.8c-0.1-1.3-0.2-2.6-0.3-3.9c0-0.3-0.1-0.6-0.2-0.9c-0.4-1.6-0.4-3.2-0.4-4.9
				c0-0.9-0.1-1.9-0.1-2.8c-0.1-2.5-0.2-4.9-0.1-7.4c0-1.4,0.3-2.7,0.4-4.1c0.1-0.7,0.2-1.4,0.1-2.1c-0.1-0.6-0.5-1.1-0.9-1.8
				c-0.8,1.1-0.8,2.1-0.7,3.2c0.2,4.4,0.8,8.8,0.6,13.3c0,1.1-0.2,2.2-0.3,3.2c-0.6,3.3-0.8,6.6-0.9,9.9c-0.1,3.3-0.1,6.6-0.2,9.9
				c0,0.7-0.2,1.4-0.4,2.1c-0.2,0.8-0.3,1.7-0.5,2.5c-0.1,0.7-0.2,1.4-0.5,2c-0.3,0.6-0.3,1.3,0,1.9c1.2,3,1.4,6.1,1.5,9.3
				c0.1,1.8,0.2,3.5,0.1,5.3c-0.1,2.2-0.4,4.4-0.7,6.5c-0.4,3.3-0.6,6.5-0.7,9.8c0,1.2-0.2,2.3-0.4,3.5c-0.3,1.4,0,2.7,0.7,4
				c0.4,0.7,0.7,1.6,0.8,2.4c0.2,2,0.6,4,0.3,6c-0.2,1.5-0.3,2.9-1.2,4.2c-0.9,1.3-2.3,2.1-3.8,1.5c-1.4-0.5-2.7-0.4-4.1,0
				c-1.6,0.5-2.9-0.2-4-1.2c-0.2-0.2-0.3-0.6-0.3-0.9c0.2-1.2,0.7-2.3,1.8-2.9c0.6-0.4,1.2-0.9,1.7-1.4c0.8-0.7,0.9-1.5,0.4-2.3
				c-0.5-0.8-0.4-1.6-0.2-2.4c0.1-0.8,0.2-1.5,0.2-2.3c-0.1-4.2-0.7-8.2-1.8-12.3c-0.4-1.5-0.5-3.1-0.9-4.7
				c-0.3-1.4-0.9-2.7-1.2-4.1c-0.4-1.7-0.9-3.4-0.9-5.1c0-4.3,0.3-8.6,0.5-12.9c0.1-2.7,0-5.3-0.7-7.9c-0.3-1.1-0.1-2.3-0.4-3.4
				c-0.4-2.1-1-4.2-1.5-6.3c-0.3-1.3-0.8-2.6-1.2-3.9c-0.2-0.5-0.5-1-0.7-1.6c-0.1-0.4-0.2-0.8-0.2-1.3c-0.1-0.6-0.1-1.2-0.3-1.8
				c-0.7-3.2-1-6.4-0.7-9.6c0.1-1.6,0-3.3,0.1-4.9c0-1.8,0-3.7,0-5.5c-0.1-1.6,0.1-3.1,0.3-4.6c0.4-2.6,0.8-5.3,1.2-7.9
				c0.3-1.9,0.3-3.8,0.6-5.7c0.4-2.1,1-4.1,1.5-6.1c0.2-0.8,0.2-1.5-0.1-2.3c-0.5-1.4-0.4-2.8-0.1-4.3c0.3-1.4,0.9-2.8,1.1-4.2
				c0.3-2.3,0.1-4.5-0.8-6.7c-0.9-2-1.5-4.1-2.2-6.1c-0.2-0.4-0.4-0.9-0.6-1.3c-0.1,0-0.1,0-0.2,0c-0.1,0.4-0.3,0.8-0.4,1.2
				c-0.8,3-1.5,6.1-1.9,9.2c-0.1,1.2-0.1,2.3-0.2,3.5c-0.1,0.9-0.2,1.9-0.4,2.8c-0.1,0.5-0.2,1-0.4,1.4c-0.3,0.9-0.6,1.9-1,2.8
				c-0.4,0.8-0.9,1.6-1.3,2.4c-1.1,2.3-2.2,4.7-3.4,7c-0.7,1.4-1.4,2.8-2.1,4.2c-0.3,0.7-0.5,1.4-0.6,2.2c-0.1,0.7-0.1,1.4,0.1,2.1
				c0.7,2,0.7,4.1,0.2,6.1c-0.3,1.2-0.6,2.5-0.9,3.7c-0.2,0.9-0.6,1.7-0.8,2.6c-0.3,1.3-0.5,2.7-0.7,4c0,0.2-0.1,0.4-0.1,0.6
				c-0.2,0.5-0.5,0.7-1,0.6c-0.5-0.1-0.7-0.4-0.7-0.9c0.1-1.7,0.2-3.4,0.3-5.2c0-0.4,0.1-0.8,0.1-1.2c-0.1,0-0.1,0-0.2,0
				c-0.1,0.5-0.3,1-0.4,1.6c-0.4,2.1-0.8,4.2-1.2,6.3c-0.1,0.3-0.2,0.6-0.3,0.9C116.6,125,116.2,125.1,114.8,124.7z M155.4,116.7
				c-0.2,1.6-0.5,3.4-0.5,5.1c0,3,0.3,5.9,0.2,8.9c-0.1,2.6,0.5,5.1,0.7,7.6c0.2,2.6,0.3,5.1,0.5,7.7c0.1,1.3,0.1,2.7,0.2,4
				c0.1,1.3,0.3,2.5,0.4,3.8c0.1,1.2,0.2,2.3,0.4,3.5c0.1,0.8,0.4,1.6,0.3,2.4c-0.2,1.8-0.5,3.5-0.8,5.2c-0.2,1.6-0.5,3.3-0.7,4.9
				c-0.2,1.5-0.5,3.1-0.5,4.6c0,1.8,0.3,3.7,0.9,5.4c0.3,0.9,0.4,1.9,0.5,2.8c0.2,2.3,0.4,4.6,0.6,7c0.3,2.7,0.2,5.5,0,8.2
				c-0.1,1.1-0.6,2.2-0.6,3.3c-0.2,2.4-0.2,4.7-0.2,7.1c0,1.2,0.2,2.3,0.4,3.5c0.1,0.6,0.4,1.1,1,1.3c0.8,0.1,1.6,0.3,2.4,0.2
				c1.7-0.3,3.4-0.1,5.2,0.1c0.6,0.1,1.3,0,1.9-0.2c1.2-0.4,1.5-1.6,0.6-2.5c-0.7-0.6-1.4-1.2-2.1-1.7c-1.3-0.9-2.1-2-2-3.6
				c0.1-2,0.3-4,0.5-6c0.3-2.6,0.6-5.2,0.9-7.8c0.1-1.3,0.3-2.6,0.4-3.9c0.1-1.6,0.3-3.3,0.9-4.8c0.5-1.4,0.8-2.8,1.2-4.3
				c0.9-3.4,0.9-6.8,0.7-10.3c-0.1-3.1-0.4-6.3-0.5-9.4c-0.1-2-0.1-4,0-6.1c0.1-1.1,0.3-2.3,0.7-3.4c0.7-1.8,1.6-3.6,2.2-5.4
				c0.7-2,1.3-4,1.7-6c0.4-1.5,0.5-3.1,0.8-4.6c0.3-1.7,0.6-3.4,0.4-5.1c-0.1-1.1-0.3-2.2-0.3-3.2c0-2,0.1-4,0.1-6.1
				c0-2,0.2-4,0.1-6c-0.3-4-1.2-8-2-11.9c-0.2-0.9-0.3-1.8-0.4-2.8c-0.1-1.3-0.3-2.6-0.3-3.9c-0.1-1.8-0.8-3.3-1.6-4.9
				c-0.1,0-0.3,0-0.4,0c-0.8,0-1.7,0-2.5,0c-0.2,0-0.4-0.2-0.6-0.3c0.2-0.1,0.4-0.2,0.6-0.3c0.1,0,0.1,0,0.2,0c0.9,0,1.8,0,2.7,0
				c0.2,0,0.4-0.1,0.4-0.3c0.2-1,0.4-2,0.6-3c0.1-0.5-0.2-0.8-0.8-0.8c-1.5,0-3,0-4.5,0c-3.4-0.2-6.9,0.1-10.3-0.9
				c-0.5-0.2-0.8,0.1-0.8,0.6c0,0.6,0.1,1.2,0,1.9c0,0.2-0.2,0.4-0.4,0.6c-0.1-0.2-0.4-0.4-0.4-0.6c-0.1-1.6-0.2-3.1-0.3-4.7
				c-0.1-1.8,0-3.6-0.1-5.5c0-2.2-0.2-4.5-0.2-6.7c0.1-2.4,0.4-4.9,0.5-7.3c0-1.8-0.2-3.5-0.2-5.3c0-3.1,0-6.2,0-9.3
				c0-0.8,0.2-1.5,0.3-2.3c0.7,0.3,0.8,0.7,0.6,1.3c-0.1,0.2,0,0.4,0,0.5c0,1.6,0,3.2,0,4.7c0,1.5,0.2,1.7,1.7,1.7
				c0.3,0,0.7-0.1,1,0c1.9,0.8,3.9,1.1,5.9,1.3c2.3,0.3,4.5,0.4,6.8,0.6c1.3,0.1,2.5,0.3,3.8,0.5c0.4,0.1,0.6,0,0.7-0.5
				c0-0.2,0-0.4,0.1-0.6c0.3-1.9,0.7-3.7,1-5.6c0-0.1,0.2-0.2,0.3-0.3c0.1,0.1,0.3,0.3,0.3,0.4c0,0.4,0,0.8-0.1,1.2
				c-0.2,1.1-0.5,2.2-0.7,3.3c-0.2,1.7-0.4,3.3-0.5,5c-0.1,2.1-0.5,4.3,0.8,6.3c0.2,0.3,0.2,0.6,0.3,0.9c1,3,1.3,6.1,1.7,9.1
				c0.4,3,0.7,6.1,1.1,9.1c0.2,1.6,0.6,3.3,1.2,4.8c0.8,2.3,2,4.5,2.8,6.8c0.8,2.1,1.8,4.2,2,6.5c0.1,1.5,0.3,2.9-0.1,4.4
				c-0.3,1.3-0.5,2.7-0.4,4.1c0.1,3.3,0.4,6.6,0.7,10c0,0.3,0.3,0.6,0.4,1c0.1,0,0.2,0,0.3,0c0.1-0.5,0.3-1,0.4-1.5
				c0-1.2,0-2.4,0-3.6c0-0.7-0.1-1.4,0.1-2.1c0.1-0.3,0.5-0.8,0.7-0.8c0.5,0,0.3,0.5,0.3,0.9c0,1.1,0,2.1,0.1,3.2
				c0.1,1.7,0.3,3.4,0.5,5.1c0.1,0.4,0.3,0.9,0.6,1.3c0.2,0.3,0.7,0.3,1,0.5c0.1-0.3,0.4-0.7,0.4-1c-0.1-2.1-0.2-4.2-0.3-6.3
				c0-0.7-0.1-1.4-0.2-2c0-0.2,0.2-0.4,0.3-0.5c0.6,1.4,0.6,2.8,0.6,4.2c0.1,1.8,0.2,3.7,0.4,5.5c0,0.2,0.1,0.4,0.1,0.5
				c0.3,0.6,0.9,0.7,1.3,0.2c0.3-0.5,0.5-1,0.5-1.6c0-0.9-0.1-1.8-0.2-2.7c-0.1-2.3-0.1-4.6-0.1-6.9c0-0.1,0.2-0.3,0.2-0.4
				c0.1,0.1,0.3,0.1,0.4,0.2c0.1,0.3,0.2,0.6,0.2,0.8c0,1.8,0,3.7,0,5.5c0,1.1,0.2,2.2,0.3,3.2c0.8,0,1.2-0.3,1.2-1
				c0.1-0.9,0.1-1.9,0.1-2.8c0.2-3.5,0.7-6.9,0.2-10.4c0-0.2,0.1-0.3,0.1-0.5c0.1,0,0.1,0,0.2,0c0.2,0.4,0.3,0.8,0.6,1.1
				c0.8,1,1.8,2.1,2.6,3.1c0.4,0.4,1.1,0.7,1.5,0.4c0.4-0.4,0.1-0.9-0.1-1.2c-0.8-1.2-1.5-2.4-2.5-3.5c-1.7-1.9-3.5-3.7-5.3-5.5
				c-0.1-0.1-0.2-0.3-0.3-0.5c-0.2-0.7-0.4-1.4-0.6-2.1c-0.7-3.2-1-6.5-1.1-9.8c0-1.5,0-3-0.1-4.5c-0.1-2.1-0.3-4.1-0.5-6.2
				c-0.1-1.9-0.3-3.8-1-5.6c-1.2-2.8-1.8-5.7-2.1-8.8c-0.2-1.5-0.2-3-0.5-4.5c-0.5-2.1-1.2-4.2-2-6.3c-0.3-0.9-0.3-1.7-0.2-2.5
				c0.1-0.8,0.3-1.6,0.2-2.4c-0.1-1.7-0.4-3.3-0.6-4.9c-0.1-1-0.4-2-1.2-2.8c-0.6-0.6-1.1-1.1-1.6-1.8c-1-1.5-2.4-2.5-4.1-2.9
				c-2.3-0.6-4.6-1.3-7-1.9c-1.4-0.3-2.6-0.9-3.8-1.7c-0.4-0.2-0.8-0.4-1.2-0.6c-1.6-0.9-3.1-2.1-2.8-4.1c0.3-2.6,0.7-5.3,1.1-7.9
				c0-0.2,0.1-0.4,0.2-0.5c0.1-0.1,0.5-0.3,0.6-0.2c0.5,0.5,0.8,0.1,1-0.3c0.4-0.9,0.9-1.9,1-2.8c0.2-0.8,0-1.7-0.1-2.5
				c0-0.2-0.2-0.3-0.4-0.4c-0.1,0.1-0.3,0.2-0.3,0.3c-0.2,0.4-0.5,0.6-1,0.4c-0.2-0.1-0.4-0.1-0.7-0.1c-2.2,0-4.4,0.1-6.7,0.1
				c-0.5,0-0.9,0-1.4-0.2c-0.2,0-0.4-0.3-0.4-0.5c-0.1-3.3-0.2-6.7-0.2-10c0-0.9,0-1.7,0-2.7c-1,0.1-2.1-0.1-3.1,0.4
				c-3.7,1.9-5.4,5-5.6,9.1c-0.1,0.9,0.1,1.9,0.1,2.9c0,0.3,0.1,0.8-0.4,0.7c-1-0.1-1.2,0-1.1,0.9c0.1,1.4,0.4,2.7,0.7,4.1
				c0.2,0.9,0.4,1,1.3,0.6c0.4-0.2,0.6-0.1,0.6,0.3c0.2,1.4,0.4,2.8,0.7,4.2c0.3,1.6,0.2,1.4,1.6,1.4c1.6,0,3.1-0.1,4.7-0.1
				c0.3,0,0.6,0,0.6,0.5c0,0.9,0.1,1.8,0.1,2.7c0,4.3-0.1,8.6,0.5,12.9c0.1,0.4-0.1,0.6-0.6,0.4c-0.3-0.1-0.6-0.2-1-0.2
				c-1.9,0-3.8,0.1-5.7,0.1c-0.9,0-1.8,0.2-2.7,0.1c-0.9-0.1-1.7,0.3-2.6,0c-0.4-0.1-1,0-1.5,0c-1.8,0-3.7-0.1-5.5-0.1
				c-1.7,0-3.4,0.2-5.2,0.4c-1.2,0.1-2.3,0.2-3.5,0.4c-0.3,0.1-0.7,0.4-0.8,0.7c-0.9,2.6-0.8,5.3-0.2,7.9c0.3,1.3,0.4,2.6,0.1,3.9
				c-0.7,2.8-1.4,5.6-2.1,8.4c-0.1,0.4-0.2,0.8-0.3,1.2c-0.4,1.9-0.6,3.8-1.1,5.6c-1,3.6-2,7.2-2.6,10.9c-0.5,3.3-0.6,6.7-1,10.1
				c-0.1,0.9-0.2,1.8-0.4,2.7c-0.3,1.6-0.7,3.2-1.1,4.8c-0.2,1-0.4,2-1.3,2.7c-2,1.6-3.9,3.5-5.9,5.2c-0.8,0.7-1.4,1.5-1.8,2.5
				c-0.2,0.5,0.1,0.9,0.6,0.7c1.1-0.4,2.2-0.9,2.8-2c0.1-0.2,0.5-0.3,0.7-0.5c0,0.3,0.2,0.7,0.1,0.9c-0.4,0.7-0.4,1.5-0.4,2.3
				c0,1.2,0,2.4,0,3.7c0,1.1-0.1,2.1-0.2,3.2c-0.1,1-0.1,2-0.2,3c0,0.4,0,0.8,0.5,0.9c0.5,0.1,0.7-0.3,0.8-0.7
				c0.1-0.3,0.1-0.7,0.1-1c0.1-1.5,0.2-3,0.3-4.5c0.1-0.9,0.2-1.9,0.3-2.8c0-0.1,0.1-0.3,0.2-0.4c0.1-0.1,0.3-0.2,0.4-0.2
				c0.1,0.1,0.2,0.3,0.2,0.4c0,0.7-0.1,1.4-0.1,2.1c-0.2,2.2-0.4,4.3-0.5,6.5c0,0.8,0.1,1.6,0.2,2.4c0,0.3,0.3,0.5,0.5,0.7
				c0.2-0.2,0.5-0.4,0.6-0.6c0.1-0.3,0.2-0.6,0.2-0.9c0.4-2.9,0.8-5.7,1.2-8.6c0-0.2,0.2-0.4,0.4-0.6c0.1,0.2,0.3,0.4,0.3,0.6
				c-0.1,0.8-0.3,1.6-0.4,2.4c-0.2,1.5-0.3,3.1-0.5,4.6c-0.1,0.7-0.2,1.5-0.2,2.2c0,0.2,0.2,0.5,0.3,0.5c0.1,0.1,0.5-0.1,0.5-0.2
				c0.2-0.4,0.4-0.9,0.6-1.4c0.2-0.7,0.3-1.3,0.4-2c0.3-1.3,0.5-2.7,0.8-4c0.2-1,0.6-1.9,1-2.8c0.1-0.2,0.4-0.3,0.6-0.3
				c0.2,0,0.3,0.3,0.4,0.5c0.1,0.3,0,0.6,0,0.9c-0.2,2-0.4,4-0.5,6c0,0.2,0.1,0.4,0.1,0.6c0.1,0,0.1,0,0.2,0
				c0.1-0.2,0.2-0.5,0.2-0.7c0.3-1.7,0.5-3.3,0.8-5c0.4-1.7,1-3.3,1.4-4.9c0.5-2.4,0.6-4.8-0.4-7c-0.1-0.2-0.1-0.4-0.1-0.5
				c0.4-1.5,0.7-3,1.3-4.3c0.7-1.8,1.7-3.4,2.6-5.1c0.5-1,0.9-2,1.3-3c0.9-1.9,1.8-3.9,2.8-5.8c1.1-2.2,1.3-4.6,1.4-6.9
				c0.1-3.4,0.7-6.6,1.6-9.8c0.5-2,1.4-4,1-6.2c-0.2-1.2-0.2-2.5-0.3-3.7c-0.2-1.8-0.4-3.6-0.6-5.4c-0.2-1.3-0.4-2.5-0.6-3.8
				c0-0.3,0.1-0.5,0.1-0.8c0.1,0,0.2,0,0.2,0c0.1,0.2,0.2,0.3,0.2,0.5c0.2,1,0.3,1.9,0.5,2.9c0.3,1.9,0.6,3.8,0.8,5.8
				c0.2,2.1,0.3,4.2,0.5,6.3c0.1,0.7,0.2,1.4,0.7,2c0.2,0.2,0.3,0.6,0.4,0.9c0.7,2,1.4,3.9,2.1,5.9c0.3,0.8,0.7,1.6,0.9,2.5
				c0.2,1.1,0.2,2.3,0.2,3.5c0,0.8-0.2,1.7-0.4,2.5c-0.2,0.9-0.6,1.8-0.7,2.7c-0.2,1.2-0.3,2.5-0.2,3.7c0.2,1.5,0.5,1.6,2,1.6
				c1.2-0.1,2.3,0,3.5,0c0.2,0,0.4,0.2,0.6,0.3c-0.2,0.1-0.4,0.2-0.6,0.2c-0.8,0-1.6-0.1-2.4-0.1c-0.6,0-1.2,0.1-1.9,0.1
				c-0.6,0-0.9,0.2-1,0.8c-0.5,2-1.1,4-1.4,6.1c-0.3,1.9-0.4,3.9-0.6,5.9c-0.4,2.7-0.8,5.4-1.2,8.1c-0.2,1.3-0.5,2.7-0.4,4
				c0.4,3.8,0,7.5,0,11.3c0,1.9,0,3.9,0.2,5.8c0.2,2.1,0.6,4.3,1.1,6.4c0.4,1.8,1.2,3.5,1.7,5.3c0.6,2.1,1.1,4.1,1.5,6.3
				c0.3,1.7,0.4,3.4,0.7,5.1c0.1,1.1,0.4,2.2,0.4,3.3c0,3-0.2,6-0.3,9c0,1.2-0.1,2.3-0.1,3.5c0,1.5-0.2,3,0,4.4
				c0.3,2,0.9,3.9,1.3,5.8c0.5,2.5,1,4.9,1.6,7.4c0.9,3.7,1.6,7.4,1.7,11.2c0,1.3-0.1,2.6-0.2,3.9c-0.1,0.6-0.1,1.1,0.2,1.7
				c0.6,1.2,0.5,2.3-0.5,3.2c-0.6,0.5-1.3,1.1-1.9,1.5c-0.8,0.5-1.1,1.2-1.3,2.1c-0.1,0.4,0.1,0.7,0.4,1c1.1,0.9,2.4,1.1,3.7,0.6
				c1-0.4,2-0.3,3,0c0.6,0.2,1.4,0.3,2,0.2c1.3-0.2,2-1.4,2.2-3.1c0.2-1.7,0.2-3.4,0.3-5.1c0-2,0-4-1.2-5.6
				c-0.5-0.8-0.7-1.6-0.6-2.4c0.1-1.6,0.3-3.3,0.4-4.9c0.2-2.7,0.4-5.5,0.6-8.2c0.1-1.6,0.3-3.2,0.4-4.8c0.2-1.6,0.5-3.2,0.5-4.8
				c0-2.4-0.2-4.7-0.5-7.1c-0.2-2.1-0.3-4.3-1.3-6.2c-0.1-0.3-0.1-0.7,0-1c0.3-2.3,1.1-4.5,1.2-6.9c0.1-2.4,0.5-4.8,0.5-7.2
				c0-4.1,0.2-8.2,0.9-12.3c0.3-2.3,0.6-4.5,0.5-6.8c-0.1-2.4-0.3-4.8-0.4-7.2c0-0.8-0.1-1.5-0.2-2.3c-0.2,0-0.4,0.1-0.6,0.1
				c-1.1-0.1-2.2-0.1-3.3-0.2c-0.1,0-0.3-0.3-0.4-0.4c0.2,0,0.4-0.1,0.6-0.1c1.1,0.4,2.1,0.2,3.2,0.1c0.4-0.1,0.6-0.3,0.6-0.8
				c0-0.7,0.1-1.5,0.4-2.2c0.5-1.2,0.6-2.4,0.6-3.7c-0.1-3.1,0-6.3,0-9.5c0-0.2,0.1-0.5,0.2-0.7c0.1,0,0.2,0,0.3,0
				c0,0.3,0.1,0.6,0.1,0.9c0,0.8-0.1,1.6-0.1,2.5c0.1,2.7,0.2,5.4,0.3,8.1c0,1,0.2,2,0.9,2.8c0.3,0.3,0.4,0.8,0.4,1.2
				c0,0.7,0.3,1,0.9,1c0.7,0.1,1.4,0.1,2.1,0.1c0.2,0,0.4,0.2,0.6,0.3c-0.2,0.1-0.4,0.3-0.6,0.3
				C157.6,116.9,156.5,116.8,155.4,116.7z M154.2,60.4c0.2,2,0.3,4.1-0.3,6.1c0,0.1,0,0.3,0,0.5c0,3.3,0.1,6.6,0.1,9.9
				c0,0.9,0,0.9,1,0.9c1.8-0.1,3.5-0.1,5.3,0.2c1.7,0.4,3.5,0.5,5.3,0.7c1.3,0.1,2.7,0.2,4.1,0.4c0-0.2,0-0.4,0-0.6
				c0-1.1,0-2.2,0.2-3.3c0.3-1.6,0.6-3.3,1-4.9c0.3-1.1,0.7-2.2,1.2-3.3c0.3-0.7,0.9-1.4,1.1-2.1c0.2-0.7,0.1-1.5,0.1-2.2
				c-0.6,0-1.3-0.1-1.9-0.1c-0.3,0-0.5,0.1-0.8,0.2c-0.1,0-0.2,0-0.3,0c-1.2-0.1-2.4-0.1-3.7-0.2c-0.8,0-1.6,0.1-2.4,0
				c-0.9-0.1-1.7-0.5-2.6-0.7c-0.8-0.2-1.7-0.6-2.5-0.1C158.5,60.9,155,59.9,154.2,60.4z M148,42c1.7,0.3,2.1,0.1,2.5-1.2
				c0.7-2.4,1.4-4.8,2-7.2c0.2-0.9,0.6-1.7,0.6-2.6c0.1-1.3,0-2.6,0-3.9c0-0.4-0.1-0.6-0.6-0.6c-0.6,0.1-1.2,0.1-1.6,0.1
				C150,31.9,149,36.9,148,42z M160.3,4.7c-0.3,0.2-0.6,0.5-0.8,0.8c-1.6,1.9-3.1,3.9-4.8,5.8c-0.6,0.7-0.9,1.4-0.7,2.3
				c0.1,0.4,0.2,1,0.4,1c0.7,0.1,1.5,0.1,2.2,0.1c0,0,0-0.1,0.1-0.1c0.4-0.4,0.7-0.8,1.1-1.2c1.4-1.3,2.8-2.7,4.2-4
				c0.8-0.8,0.7-1.5-0.1-2.5c-0.7,0.6-1.3,1.3-2,1.9c-0.6,0.6-1.3,1.2-1.9,1.9c-0.6,0.7-1.3,1.3-1.9,2c-0.6,0.7-1.1,1.4-1.9,1.8
				c0-0.2,0.1-0.4,0.2-0.6c0.5-0.6,1-1.2,1.5-1.7c1.5-1.5,3-3,4.4-4.5c1.5-1.5,1.5-0.9,0.1-2.7C160.5,4.8,160.5,4.8,160.3,4.7z
				 M150.4,26.8c-0.6,0-1.2,0-1.8,0c-0.4,0-0.5,0.1-0.6,0.5c-0.1,0.6-0.3,1.3-0.4,1.9c-0.2,1.4-0.4,2.8-0.6,4.2
				c-0.3,1.8-0.5,3.6-0.8,5.4c-0.2,1.1-0.4,2.2-0.7,3.3c1.6,0.3,2,0,2.1-1.5c0-0.2,0.1-0.3,0.1-0.5c0.5-1.9,1-3.9,1.4-5.8
				C149.6,31.9,150,29.4,150.4,26.8z M164.8,62c1,0,1.9,0,2.8,0c0.1,0,0.3-0.2,0.4-0.4c0.3-0.8,0.5-1.5,0.8-2.3
				c0.3-0.9,0.5-1.9,0.8-2.8c0-0.1,0.1-0.2,0.2-0.4c0.2,2.3-1.3,4-1.4,6.1c0.5,0,1,0,1.5,0c0.4,0,0.6-0.1,0.7-0.5
				c0.4-1.4,1-2.7,1.4-4.1c0.1-0.4,0.3-0.8,0.4-1.4c-1.7-0.2-3.2-0.3-4.8-0.5c-0.2,0-0.4,0.3-0.5,0.4c-0.3,0.6-0.5,1.3-0.8,2
				C165.8,59.3,165.3,60.6,164.8,62z M142.1,42.2c0.6-3.1,1.2-6,1.8-9c-1.2,0.5-2.2,1-3.3,1.5c-0.1,0.1-0.2,0.2-0.3,0.4
				c-0.5,2.2-1.1,4.4-1.6,6.6c0,0.1,0,0.2,0,0.4C139.9,42.1,141.1,42.2,142.1,42.2z M146.9,30.2c-0.6,0.7-0.9,1.4-1.5,1.8
				c-0.7,0.6-1.2,1.3-1.3,2.2c-0.4,2.5-0.9,5-1.4,7.4c-0.1,0.5,0.1,0.6,0.5,0.6c0.5,0,1,0,1.5,0c0.2,0,0.4-0.2,0.4-0.3
				c0.3-1.5,0.7-2.9,1-4.4c0.3-2,0.5-4,0.7-6.1C146.8,31.1,146.8,30.7,146.9,30.2z M139.8,35.2c-1,0.2-2,0.4-2.9,0.6
				c-0.1,0-0.2,0.2-0.3,0.3c-0.4,1.3-0.7,2.7-1.1,4c-0.2,0.6-0.3,1.3-0.5,1.9c0.9,0,1.8,0,2.6,0c0.1,0,0.3-0.2,0.4-0.3
				c0.2-0.5,0.5-1.1,0.6-1.7c0.3-1.1,0.5-2.3,0.8-3.4C139.6,36.2,139.7,35.7,139.8,35.2z M160.1,4.1c-0.3-0.2-0.6-0.5-1-0.7
				c-0.9-0.5-0.9-0.5-1.6,0.3c-0.9,1.1-1.8,2.2-2.7,3.2c-0.8,0.9-1.2,1.8-1,3c0.1,0.5,0,1,0,1.6C156,9,158,6.6,160.1,4.1z
				 M162.5,78.7c-1.1-0.2-2-0.3-2.9-0.5c-0.2,0-0.4,0.2-0.5,0.3c-0.5,1.2-1,2.4-1.5,3.6c-0.2,0.5-0.3,1-0.4,1.5
				c0.9,0.1,1.6,0.2,2.3,0.3c0.5,0.1,0.7-0.1,0.9-0.6c0.4-1,0.9-2,1.4-3C162,79.9,162.2,79.4,162.5,78.7z M166.9,55.6
				c-0.9-0.1-1.7-0.2-2.5-0.3c-0.4,0-0.6,0.1-0.6,0.5c-0.2,1.4-0.5,2.8-1,4.1c-0.6,1.5-0.4,1.6,1.1,2c0.4,0.1,0.7,0,0.9-0.5
				c0.3-0.8,0.5-1.5,0.8-2.2C165.8,58,166.3,56.9,166.9,55.6z M162.9,78.7c-0.8,1.8-1.6,3.6-2.4,5.4c1.1,0,1.9,0,2.8,0
				c0.5,0,0.6-0.2,0.7-0.6c0.2-0.7,0.6-1.4,0.8-2.1c0.3-0.7,0.5-1.5,0.8-2.3C164.7,79,163.8,78.8,162.9,78.7z M160.9,55
				c-0.3,1.2-0.6,2.3-0.9,3.5c-0.2,0.7-0.3,1.4-0.4,2.1c-0.1,0.4,0.1,0.5,0.5,0.5c0.5,0,1,0.2,1.4,0.2c0.2,0,0.4-0.2,0.5-0.3
				c0.3-0.7,0.5-1.5,0.7-2.2c0.3-1.1,0.5-2.2,0.8-3.3C162.5,55.2,161.6,55.1,160.9,55z M154.6,83.2c0.6,0.1,1.1,0.2,1.6,0.4
				c0.5,0.2,0.6,0,0.8-0.4c0.3-0.9,0.7-1.7,1-2.6c0.3-0.8,0.6-1.6,1-2.6c-1,0-1.9,0-2.8,0c-0.1,0-0.2,0.2-0.2,0.3
				C155.4,80,155,81.6,154.6,83.2z M136.2,35.9c-0.8,0.2-1.5,0.4-2.1,0.6c-0.2,0.1-0.3,0.2-0.4,0.4c-0.5,1.7-1,3.5-1.5,5.2
				c0.5,0,1.1,0,1.7,0c0.5,0,0.7-0.2,0.9-0.7c0.4-1.5,0.9-3,1.3-4.5C136.1,36.7,136.1,36.4,136.2,35.9z M133.3,37
				c-0.1-0.1-0.1-0.1-0.2-0.2c-0.8,0.3-1.6,0.5-2.4,0.8c-0.1,0-0.2,0.3-0.3,0.4c-0.3,0.8-0.5,1.6-0.8,2.4c-0.2,0.7-0.4,1.4-0.7,2.1
				c0.9-0.1,1.8-0.1,2.7-0.2C132.2,40.5,132.8,38.7,133.3,37z M158.8,60.9c0.1-0.2,0.3-0.4,0.3-0.6c0.1-0.6,0.2-1.1,0.3-1.7
				c0.3-1,0.6-1.9,0.9-2.9c0.2-0.6,0.1-1-0.6-1c-0.3,0-0.5-0.1-0.8-0.2c-0.4-0.1-0.6,0-0.7,0.4c-0.4,1.6-0.8,3.2-1.2,4.9
				c0,0.2,0.1,0.5,0.2,0.5C157.7,60.5,158.2,60.7,158.8,60.9z M164.3,84.1c0.8,0,1.5,0,2.1,0c0.1,0,0.4-0.1,0.4-0.2
				c0.6-1.4,1.2-2.7,1.8-4.1c0.1-0.3,0-0.5-0.4-0.5c-0.6,0-1.1,0-1.7-0.1c-0.4-0.1-0.6,0.1-0.8,0.5c-0.3,0.9-0.7,1.7-1,2.6
				C164.7,82.8,164.6,83.4,164.3,84.1z M153.3,33.3C153.2,33.3,153.2,33.3,153.3,33.3c-0.9,2.9-1.7,5.7-2.6,8.6c0.8,0,1.5-0.1,2.2,0
				c0.8,0.2,0.8-0.2,0.8-0.7c-0.1-1.4-0.3-2.9-0.4-4.3C153.2,35.7,153.3,34.5,153.3,33.3z M153.8,7.5c1.4-1.7,2.7-3.2,4-4.8
				c-1.1-0.7-2.3-0.9-3.5-0.9c-0.2,0-0.4,0.2-0.4,0.4c0,0.7,0,1.3,0,2.1c0.7-0.8,1.2-1.6,1.8-2.3c0.1,0.1,0.2,0.1,0.2,0.2
				c-0.3,0.5-0.7,1-1,1.5c-0.3,0.5-0.9,0.9-1,1.5C153.7,5.9,153.8,6.7,153.8,7.5z M156.9,14.6c0.9,0,1.7,0,2.5,0
				c0.1,0,0.1-0.1,0.2-0.1c0.9-1,1.8-2,2.7-2.9c0.7-0.7,0.5-1.5,0.3-2.3C160.7,11,158.8,12.8,156.9,14.6z M156.6,54
				c-0.1,0.2-0.3,0.3-0.4,0.6c-0.4,1.4-0.8,2.9-1.2,4.4c-0.1,0.4-0.2,0.7,0.2,0.8c0.7,0.3,1.3,0.1,1.4-0.3c0.4-1.6,0.8-3.1,1.2-4.7
				c0-0.1,0-0.4-0.1-0.4C157.5,54.2,157.1,54.1,156.6,54z M172.7,56.3c-0.6,1.9-1.3,3.8-1.9,5.6c0.8,0,1.5,0,2.1,0
				c0.1,0,0.4-0.3,0.4-0.5c0.1-1.5,0.2-2.9,0.3-4.4C173.6,56.2,173.6,56.2,172.7,56.3z M130.1,38.1c-0.1,0-0.1-0.1-0.2-0.1
				c-1.7,1.2-3.2,2.7-4.2,4.8c0.9-0.1,1.6-0.2,2.4-0.3c0.2,0,0.4-0.1,0.5-0.3C129.1,40.9,129.6,39.5,130.1,38.1z M167.4,84.2
				c0.9,0,1.9,0,2.8,0c-0.2-1.4-0.4-2.8-0.5-4.2c0-0.2-0.1-0.3-0.2-0.5C168.7,81.1,168,82.6,167.4,84.2z M154.1,59.2
				c0.1,0,0.2,0,0.3,0.1c0.5-1.7,1-3.4,1.5-5.3c-0.6-0.1-1.3-0.2-1.8-0.3C154.1,55.5,154.1,57.4,154.1,59.2z M154.1,82.7
				c0.1,0,0.1,0,0.2,0c0.4-1.5,0.8-3.1,1.2-4.6c-0.5,0-0.9,0-1.4,0C154.1,79.7,154.1,81.2,154.1,82.7z M160.3,14.5c0.6,0,1.3,0,2,0
				c0.2,0,0.6-0.3,0.6-0.5c0.1-0.7,0-1.4,0-2.1C162,12.8,161.1,13.7,160.3,14.5z M147,26.8c0,0.8,0,1.6,0,2.4c0,0,0.1,0,0.1,0
				c0.2-0.8,0.4-1.6,0.6-2.4C147.5,26.8,147.3,26.8,147,26.8z"/>
		</g>
	</g>
</g>
</svg>
