<?xml version="1.0" encoding="utf-8"?>
<!-- Generator: Adobe Illustrator 19.1.0, SVG Export Plug-In . SVG Version: 6.00 Build 0)  -->
<svg version="1.1" id="Layer_1" xmlns="http://www.w3.org/2000/svg" xmlns:xlink="http://www.w3.org/1999/xlink" x="0px" y="0px"
	 viewBox="0 0 150 218.7" style="enable-background:new 0 0 150 218.7;" xml:space="preserve">
<style type="text/css">
	.st0{fill:#03A9F4;}
</style>
<g id="skinrash-lady">
	<path class="st0" d="M17.7,218.7c1.1-3.5,2.2-7,3.5-11.1c-2.3,0.5-4.3,0.9-6.2,1.3c-5.9,1.3-9.7-0.9-11.2-6.6
		c-0.7-2.4-1.3-4.9-2.1-7.3c-2.3-6.3-1.8-12.7-0.8-19.2c1.2-8.8,2.5-17.7,3.7-26.5c1-7,1.7-14.1,2.9-21.1c1.3-7.6,2.7-15.2,4.3-22.8
		c0.7-3.5,1.5-7.3,3.2-10.4c1.6-3,4.1-6.1,7-7.9c5.4-3.3,7-7.7,7.1-13.9c0.2-12.7,2-25.3,4.4-37.8c1.5-7.8,3.4-15.3,6.4-22.6
		C43.3,4.2,51.1-0.8,60.3,0.1c4.6,0.4,9.1,0.7,13.6,1.3c6.8,0.9,11.7,4.8,15.1,10.4c3.3,5.3,6.3,10.7,9,16.2
		c4,8.3,5.9,17.2,6.2,26.4c0.1,4.1,0.4,8.1,0.5,12.6c0.7,0,1.6,0.2,2.5,0.1c5.5-1.1,8.5,2.1,11.3,6.1c0.8,1.1,2,1.9,3,2.9
		c1.1,1.2,2.4,2.3,3,3.7c1.1,2.9,2.9,4.8,5.6,6c2.7,1.2,5.2,2.6,7.8,4c6.1,3.1,8.9,8.5,9.7,14.8c1.2,9.8,1.9,19.7,2.3,29.5
		c0.2,4.6-0.2,9.4-1.2,13.9c-0.8,3.5-2.9,6.7-4.5,9.9c-1.2,2.4-2.4,4.7-3.7,7c-3.3,5.8-9,7.5-15,4.6c-1.1-0.5-2.1-1-3.7-1.8
		c-0.5,2.6-1.5,4.9-1.4,7.1c0.4,6,1,12,1.9,17.9c1.4,8.3,6.5,14.5,12.2,20.3c1.6,1.7,3,3.6,4.5,5.4c-1.3,0-2.6,0-3.9,0
		c-4.8-6-9.4-12.3-14.6-18.1c-5.9-6.7-12.4-13-18.5-19.6c-4.8-5.3-10.7-8.5-17.7-9.5c-8.1-1.2-14.5,2.1-18,9.4
		c-0.5,1.1-1.1,2.1-1.7,3.1c-6.2,10.7-9.6,22.3-10.5,34.7c-1.3,0-2.6,0-3.9,0c0.6-4.4,1.2-8.8,1.9-13.5c-1.9,0.2-3.8,0.1-5.6,0.7
		c-6.5,2.2-13.1,3.3-19.9,2.9c-0.8,0-2.1,0.8-2.3,1.5c-0.9,2.7-1.5,5.6-2.2,8.4C20.7,218.7,19.2,218.7,17.7,218.7z M95.9,131.7
		c0.2-0.7,0.8-1.5,0.6-2c-0.5-1.2-1.3-2.2-2.1-3.2c-0.3-0.3-1.6-0.2-1.6-0.1c-0.4,1.1-0.8,2.3-0.8,3.4c-0.1,0.9,0.3,1.9,0.6,3.1
		c1.3-0.5,2.4-1,3.5-1.4c-1.6,1.9-3.3,3.6-4.7,5.6c-1,1.5-2.3,3.3-2.3,5c0,3.5-0.9,6.5-2.1,9.8c-1.5,4.2-5.3,8-2.3,13.4
		c-1.6-0.2-3.2,0.1-3.6-0.5c-2.3-3.1-4.6-1.3-6.7-0.1c-8.8,5.1-18.5,7.2-28.2,9.2c-8.5,1.8-17.3,2.7-25.9,3.8
		c-1.9,0.3-3.9-0.1-5.8-0.2c0-0.4,0-0.7,0-1.1c3.3-0.4,6.6-0.9,9.9-1.1c2.3-0.1,3.4-1.2,4-3.4c1.3-4.8,2.8-9.6,4.4-14.4
		c0.7-2.1-0.1-2.6-2-2.7c-6.3-0.3-12.6-0.7-19-1.1c-4.2-0.2-4.4-0.1-5,4c-1.1,6.7-1.8,13.4-3.3,19.9c-1.9,8.7-0.2,16.6,3.6,24.3
		c2.3,4.6,5.1,5.8,9.9,4c3.5-1.3,6.8-3,10.3-4.3c8.6-3.1,17.2-5.9,25.8-9.1c1.6-0.6,3.2-2.1,4.2-3.6c2.8-4.4,5.2-9,7.9-13.5
		c1-1.6,2.3-3.4,3.9-4.1c7.3-3.2,14.6-5.3,22.5-1.4c4.2,2.1,8.3,0.4,10.1-4c1.5-3.7,2.6-7.5,3.9-11.3c0.9-2.7,2.2-5,5.2-6.2
		c2-0.8,3.6-2.3,5.4-3.5c-0.2-0.3-0.4-0.7-0.6-1c-5.3-1.8-8.5,2.3-12.1,4.8c-2.1-1.3-1.1-2.7-0.3-4c3-5.1,4.5-5.6,11.8-3.8
		c-0.3-4.4-0.4-4.5-4.3-5.6c-0.6-0.2-1.2-0.3-1.9-0.4c-2.6-0.2-5-0.3-6.9,2.1c-1.3,1.7-2.9,3.3-4.4,4.9c1.7-5.5,5.7-11.1,16.2-7.4
		c0.6-2.3-0.3-3.3-2.6-3.2c-1.4,0.1-3,0.4-4.3-0.1c-2.4-0.9-4.1,0-5.7,1.4c-1.7,1.5-3.3,3.2-4.9,4.8c-0.7,0.7-1.5,1.4-2.2,2
		c-0.2-0.3-0.4-0.6-0.6-0.8c4.2-4.3,6.7-11.3,15.3-9.2c-1.4-0.7-2.8-1.1-4.1-1.4C100.9,127.4,98.5,129.8,95.9,131.7z M23,112.6
		c3-0.9,4.1,0.8,5.1,2.4c4.2,6.4,5.6,13.8,7.8,20.9c1.7,5.7,1.6,11.5,0.3,17.2c-1.2,5.1-3.2,10.1-4.8,15.1c-1.3,4.2-0.1,5.9,4.3,5.3
		c4.9-0.7,9.8-1.4,14.5-3c10.2-3.4,20.2-7.2,30.3-10.9c0.7-0.3,1.5-0.9,1.8-1.6c1.6-4.2,3.5-8.3,4.3-12.6c0.6-3.1,0.5-6.3,3-8.8
		c0.4-0.4,0.3-1.2,0.5-1.9c-0.7,0.3-1.5,0.3-1.9,0.8c-2.3,2.7-5.1,3.8-8.5,3.2c-7.8-1.3-13.4-5.8-17.1-12.7
		c-1.7-3.3-3.3-6.6-5.1-10.3c-0.9,1.1-1.8,1.8-2,2.7c-0.5,3.6,0,7,2.5,10c1.6,1.8,2.8,3.9,4.6,6.3c-3.2-0.2-5.4-0.1-7.5-0.6
		c-2.1-0.5-4-1.5-5.9-2.4c-9-3.7-13.5-11-16-19.9c-2.1-7.6-3.4-15.3-3.8-23.1c0-0.8-0.7-1.5-1-2.3c-0.7,0.5-1.5,0.9-2,1.5
		c-1,1-1.8,2.2-2.8,3.3c-1.1,1.1-2.7,1.8-3.3,3.1c-2.1,4.9-4.2,9.9-5.6,15.1c-1.5,5.7-2.4,11.6-3.4,17.5c-1,6-1.9,12.1-2.8,18.1
		c-0.5,3.3,0,4.2,3.4,4.7c5,0.8,10.2,2,15.2,1.6c7.3-0.6,7.4-0.1,6.3-7.3c-0.1-0.5-0.1-1.1-0.2-1.6c-1.3-9.8-3.8-19.2-9.4-27.5
		C23.3,114.3,23.3,113.4,23,112.6z M109.5,78.4c-0.4,0.1-0.8,0.2-1.2,0.3c-0.2-0.7-0.5-1.4-0.7-2.1c-0.4-1.5-0.6-3.1-1.2-4.4
		c-0.3-0.7-1.4-1.4-2.2-1.3c-1.9,0.1-2.6,1.1-1.8,3.2c0.9,2.5,1.3,5.1,1.9,7.7c-0.4,0.1-0.7,0.2-1.1,0.3c-0.6-2.2-1.3-4.4-2-6.8
		c-2.1,1.2-2.1,2.7-1.7,4.6c0.6,2.3,0.9,4.7,1.3,7.1c-0.5,0.1-0.9,0.2-1.4,0.2c-0.4-2.3-0.9-4.6-1.3-6.9c-0.3,0-0.5-0.1-0.8-0.1
		c-0.4,0.8-1.3,1.7-1.3,2.5c0.1,4,0.5,8,0.8,12.2c3-0.2,5.9-0.2,7.6,2.8c-0.7,0-1.2-0.3-1.7-0.6c-1.3-0.6-2.9-1.4-3.8,0.3
		c-0.5,0.9-0.3,2.3-0.1,3.4c0.7,2.9,1.5,5.8,2.3,8.6c1.1,4.3,2.3,8.5,3.4,12.8c0.6,2.2,1.8,3.8,4.1,4.6c2,0.7,4,1.8,5.9,2.9
		c2.1,1.1,3,2.8,1.8,5.1c-0.2,0.4-0.1,1,0,1.4c0.7,2.4,1.8,4.7,2.2,7.1c0.2,1.3-0.3,3.1-1.1,4.1c-1.2,1.5-3,2.5-4.5,3.8
		c1.7,2.3,3.3,4.8,5.1,7c1.9,2.3,4,4.5,6.1,6.6c4,4.2,10.6,4.2,13.1-0.7c3.5-6.9,9-13.1,9-21.5c0-1.5,0.3-3.1,0.7-4.6
		c2.6-9.4-7.1-15.1-14.6-13.2c2.9,3.6,5.7,7,8.6,10.4c1,1.2,1.5,2.2-0.2,3.7c-4.3-5.4-8.9-10.4-12.6-16.1c-5.2-8-8.9-16.7-11.5-26
		c-0.6-2.3-0.4-4.5,1.4-6c1,0.4,2,1.1,2.4,0.8c1.8-1.1,3.7-2.5,3.2-4.9c-0.6-2.6-1.5-5-2.5-7.5c-0.2-0.4-1.1-0.6-1.8-1
		c-0.2,2.4-0.4,4.4-0.6,6.4c-0.4,0-0.9-0.1-1.3-0.1c0-1.8,0-3.5,0-5.3c0-3.3-3.7-8.4-6.7-9.3c-0.8-0.2-1.7,0-2.6,0
		c0,0.8-0.1,1.7,0.1,2.5C108.6,74.6,109.1,76.5,109.5,78.4z M70.5,21.1c-0.6-2-1-4-1.7-5.8C66.6,9.9,62.3,7,56.9,5.6
		c-0.6-0.2-1.5,0.6-2.2,0.9c0.4,0.6,0.8,1.2,1.3,1.8c0.3,0.3,0.8,0.5,1.2,0.6c5.3,2,9.3,5.2,9.9,11.2c0.1,0.8-0.4,1.9-1.1,2.5
		c-3.8,3.6-8.7,6.1-10.9,11.2c-2.6,6-2.3,12.5-1.1,18.4c1.2,5.8,4.7,11.4,7.8,16.6c3.3,5.4,9,8.4,14.2,11.7
		c4.6,2.9,9.6,2.3,14.6,1.6c1.3-0.2,2.8-0.8,3.6-1.8c3-3.7,5.8-7.6,6.1-12.5c0.4-5.3,0.6-10.6,0.6-15.9c-0.1-9.7-3.2-18.6-8.5-26.7
		c-0.8-1.2-2.4-2.2-3.9-2.7C82.7,20.3,76.6,20.4,70.5,21.1z M94.4,83.4c-2.4,0.5-4.4,1-6.4,1.3c-6.1,1-11.5-1.1-16.5-4.4
		c-1.7-1.2-2.1-0.2-2.1,1.3c0,0.9,0.1,1.8,0.2,2.7c0.9,7.8-1,14.8-6.5,20.7c-2.8,3-5.7,6.4-2.4,11c0.4,0.5,0.4,1.2,0.5,1.8
		c1.2,7.3,5.9,12.1,11.8,16c2.6,1.7,5.5,2.4,8.6,2.1c4.8-0.3,7.9-3.4,8.3-8.2c0.2-1.9,0.7-3.8,3.2-4.1c0.8-0.1,2-1,2.2-1.7
		c2.3-7.3,4.6-14.5,1.3-22.2c-1.3-3-1.8-6.4-2.3-9.7C94.1,87.9,94.4,85.6,94.4,83.4z M146.8,125.9c0-0.4,0.1-1.1,0-1.8
		c-0.8-6.7-1.4-13.5-2.5-20.2c-0.7-3.9-2.4-7.7-5.9-9.9c-3.7-2.3-7.7-4-10.9-5.6c-2.3,2.3-4.4,4.4-6.4,6.5c-0.6,0.7-1.4,1.8-1.3,2.5
		c0.9,3.3,2,6.7,3.3,9.9c0.2,0.6,1.6,0.9,2.5,1.1c0.7,0.1,1.4-0.6,2.1-0.6c1.2,0,2.5,0.2,3.8,0.3c-0.9,0.9-1.7,2-2.7,2.6
		c-2.9,1.6-3,2.1-1.6,5.1c1.8,3.9,4,6.3,8.9,6.5C139.6,122.3,143.1,124.5,146.8,125.9z M97.4,173c1.3,0.9,2.5,1.5,3.3,2.4
		c5,5.2,9.9,10.5,15,15.7c0.6,0.7,1.8,0.8,2.7,1.2c0.1-1,0.5-2.1,0.2-2.9c-2.6-6-1.8-11.9-0.4-18c0.6-2.5,1.2-5.5,0.2-7.6
		c-1.7-3.5-4.5-6.5-6.9-9.7c-1-1.4-2.3-1.3-3,0.3c-1,2.2-1.7,4.4-2.6,6.7C104.1,165.6,102.6,170.4,97.4,173z M27.4,205.7
		c0,0.2,0,0.5,0.1,0.7c3-0.2,6,0,8.8-0.5c5.2-1,10.3-2.3,15.4-3.5c0.5-0.1,1.1-0.4,1.2-0.8c0.7-1.6,1.2-3.3,2-5.9
		C45.1,198.5,36.4,202.7,27.4,205.7z M100.7,115c-0.5,0-1,0.1-1.5,0.1c-0.1,0.9-0.3,1.8-0.4,2.7c-0.3,1.9-0.6,3.7-1,5.6
		c-0.2,1.2-1.2,2.9,0.6,3c1.3,0.1,3.9-1.4,3.9-2.1C102.2,121.2,101.3,118.1,100.7,115z M105.1,145.5c2.5-1.3,5-2.7,7.9-4.2
		C107.9,140.5,105.2,142.1,105.1,145.5z"/>
	<path class="st0" d="M125.2,218.7c-0.8-3-2.2-5.5-5.3-6.8c-3.8-1.6-7.6-3.5-11.9-3.1c-2.1,0.2-3.6,0.8-3.9,3.3
		c-0.3,2.2-1,4.4-1.5,6.6c-1.3,0-2.6,0-3.9,0c1.5-4.5,3-8.9,2.8-13.8c-0.2-3.9-0.9-7.4-3.4-10.4c-0.5-0.6-0.2-2-0.3-3
		c1,0.4,2.1,0.6,3,1.3c0.6,0.4,0.9,1.4,1.1,2.1c1.2,3.6,2.4,7.2,3.7,10.9c5-0.6,9.4,1,13.9,2.8c4.7,2,7.2,5.6,8.9,10.1
		C127.4,218.7,126.3,218.7,125.2,218.7z"/>
	<path class="st0" d="M96.3,67.3c-1.2,4.3-3.4,7.9-8.1,8.8c-4.6,0.9-7.8-0.5-10-3.8c5.9-2,11.8-3.9,17.6-5.8
		C96,66.8,96.2,67.1,96.3,67.3z M82.6,74.5c6.1,0.9,9.3-0.5,11-4.3C90.1,71.6,86.6,72.9,82.6,74.5z M93,69.4
		c-0.1-0.3-0.2-0.6-0.3-0.9c-3.6,1.3-7.2,2.7-10.9,4c0.1,0.3,0.3,0.7,0.4,1C85.8,72.2,89.4,70.8,93,69.4z"/>
	<path class="st0" d="M93.3,36.4c-2.2,1.8-4.3,3.7-6.7,5.4c-5.3,3.7-4.5,8-0.8,12.2c1.7,1.9,3.2,4,4.7,6c1.2,1.6,0.5,3.2-1.1,3.9
		c-2.5,1-5.1,1.7-7.7,2.1c-2.4,0.3-3.2-1.4-3.2-3.8c1.7,2.9,3.9,2.5,6.4,1.3c0.8-0.4,1.8-0.1,2.7-0.3c0.7-0.2,1.7-0.5,2-1
		c0.3-0.5-0.1-1.6-0.5-2.1c-1.3-1.8-2.5-3.6-4.1-5.1c-2.7-2.8-3.6-6.2-2.8-9.8c0.3-1.6,1.6-3.2,2.8-4.3c1.6-1.6,3.5-2.9,5.4-4.2
		c0.7-0.5,1.6-0.6,2.5-0.9C93.1,35.9,93.2,36.1,93.3,36.4z"/>
	<path class="st0" d="M70.3,50c-2.1,1.9-6.1,1.1-7,4.7c1.5,0.5,2.7,1.3,3.8,1.2c1.5-0.2,2.9-0.9,4.2-1.7c0.7-0.4,0.8-1.6,1.4-2.3
		c0.5-0.6,1.3-0.8,2-1.2c0.3,0.8,1,1.7,0.8,2.3c-1.1,3.2-3.6,5.4-6.7,5.6c-1.9,0.1-4.1-1.8-6-3.1c-1.3-0.9-1.4-2.2,0.2-3
		c2.3-1.2,4.7-2.1,7-3.2C70.1,49.5,70.2,49.8,70.3,50z"/>
	<path class="st0" d="M74.8,47.8c-5.6,0.6-11.3,1-16,5c-0.3-0.9-0.6-1.6-0.9-2.3C62.3,46.9,71,45.3,74.8,47.8z"/>
	<path class="st0" d="M84.9,46.8c1.8-0.2,3.4-0.8,4.8-0.6c3,0.5,4.4-0.9,5.1-3.5c0.1-0.5,0.5-0.9,0.8-1.4c1.3,2,0,5.3-2.3,6.5
		C89.7,49.7,86.1,49.5,84.9,46.8z"/>
</g>
</svg>
