<?xml version="1.0" encoding="utf-8"?>
<!-- Generator: Adobe Illustrator 19.1.0, SVG Export Plug-In . SVG Version: 6.00 Build 0)  -->
<svg version="1.1" id="Layer_1" xmlns="http://www.w3.org/2000/svg" xmlns:xlink="http://www.w3.org/1999/xlink" x="0px" y="0px"
	 viewBox="0 0 130.1 188.9" style="enable-background:new 0 0 130.1 188.9;" xml:space="preserve">
<style type="text/css">
	.st0{fill:#03A9F4;}
</style>
<g id="skinrash-lady-3">
	<path class="st0" d="M11.8,188.9c-5.6-3.9-6.9-10.2-7.7-16.1c-1.3-9.3-1.4-18.7-2.1-28c-0.3-3.7-0.5-7.4-1.1-11.1
		c-1.9-12.8-1-25.4,3.5-37.5c1.2-3.1,4-5.7,6.7-8c1.7-1.5,2.3-2.5,1.9-4.7c-1.4-7-2.8-14-1.8-21.1c0.3-2.6,0.8-5.2,1.2-7.8
		c1.4-8.8,2.3-17.7,4.5-26.3c2-7.9,4.9-15.8,11.8-21.1c2.6-2,5.4-4.5,8.5-5.2C42.9,0.7,49-1.2,54.7,1c4.5,1.7,8.7,4.7,12.3,8
		c10,8.9,13.9,20.9,15.5,33.8c0.9,7.4,2,14.8,2.9,22.3c0.1,1.2-0.3,2.4-0.2,3.6c0.1,0.9,0.4,2.2,1.1,2.6c0.6,0.4,1.9,0,2.7-0.4
		c4.7-2.2,9.2-4.6,13.9-6.6c2.7-1.2,4.7,0.2,6.5,2.4c3.9,4.7,5.2,10.3,6.3,15.9c0.3,1.7,0.9,2.6,2.6,3.3c2.3,0.9,4.6,2.1,6.8,3.4
		c3.4,2.2,5.3,5.4,5,9.5c-0.3,5.4-0.2,11.1-1.6,16.3c-1.4,5-4.1,9.8-7.1,14c-4.8,6.8-6.9,14.3-8.5,22.3c-1.7,8.7-4.5,17.2-6.6,25.9
		c-0.9,3.8-1.2,7.7-1.8,11.6c-1.2,0-2.4,0-3.7,0c1.4-15.2,6.9-29.4,10.1-44.4c-3.6,3.6-6.6,7-10.2,9.8c-3.1,2.4-6.8,3.9-10.1,6.2
		c-3.6,2.5-7.3,3.9-12.2,2.2c0.5,1.2,0.9,1.8,0.9,2.4c0,1.5,0.4,3.6-0.3,4.4c-4.1,4.1-8.9,7.8-15,6.6c-9.7-2-18.4,1.8-27,4.6
		c-5.5,1.8-10.4,5.5-15.6,8.3C18.3,188.9,15,188.9,11.8,188.9z M108.2,71.3c-1.9-4.3-3.1-5-7.2-3.2c-2.9,1.3-5.6,2.8-8.4,4.3
		c-3,1.6-4.7,4-5.5,7.3c-0.6,2.3-1.4,4.6-2.1,6.9c-3.7,12.3-7.5,24.5-10.9,36.8c-1.4,5.1-1.9,10.5-2.5,15.8c-0.1,1.3,0.8,3.2,1.9,4
		c2.1,1.5,3.4,3,2.7,4.6c1.2,2.2,2.5,3.7,2.6,5.2c0,1.1-1.6,2.3-2.5,3.5c0.7,0.9,1.8,2.3,3.2,4.2c2.3-0.5,5-0.8,7.6-1.7
		c2.2-0.7,4.1-2.2,6.2-3.3c6.8-3.5,12.2-8.3,15.7-15.2c0.8-1.6,2-3,3-4.6c4-6.2,8.1-12.3,12-18.6c1.4-2.3,0.8-4-1.9-5.2
		c-7.9-3.6-15.6-1.5-23.7-0.3c0.1,1.4,0,2.5,0.3,3.6c0.8,4.3,1.8,8.5,2.6,12.8c0.9,4.4,1.9,8.8,0,13.2c-0.3,0.8-1.5,1.2-2.2,1.8
		c-0.2-0.9-0.6-1.9-0.5-2.8c0.1-2.3,1-4.6,0.7-6.8c-0.8-5.5-2.3-10.9-3.2-16.3c-0.8-5.1-1.7-10.2-1.6-15.3c0.1-8,4.7-12.5,12.6-13.1
		c4.7-0.4,5.9-2.2,4.8-7c-1.7,0.5-3.3,1-5.7,1.7c1.3-3.2,5.5-2.4,5.1-5.9c-1.8,0.6-3.4,1.1-5,1.6c-0.1-0.4-0.3-0.7-0.4-1.1
		c1.1-0.6,2.3-0.9,3.2-1.7c0.7-0.6,0.9-1.7,1.3-2.6c-0.3-0.1-0.5-0.3-0.8-0.4c-1.3,0.4-2.5,0.9-3.8,1.3c-0.2-0.3-0.4-0.6-0.6-0.8
		C106,73,107.1,72.2,108.2,71.3z M59.7,155.6c-0.2-0.4-0.4-0.8-0.6-1.2c2.2-1.9,4.1-4.2,6.5-5.6c2.5-1.3,5.5-1.7,8.5-2.6
		c-6-5.6-11.1,0.3-16.4,1.3c-0.1-0.4-0.2-0.7-0.3-1.1c3.5-1.7,7-3.5,10.5-5.2c-1.3-0.2-2.7-0.3-4,0.1c-7.8,2.6-12.4,8.4-15.7,15.5
		c-0.4,0.9-1.1,1.9-2,2.5c-2.5,1.7-5.2,3.2-7.8,4.7c-5,2.7-10,4.6-16,3.6c-3.5-0.6-7.4-1-10.2,2.4c-0.2,0.3-1.2,0.3-1.3,0.2
		c-0.2-0.6-0.5-1.7-0.3-1.8c1.7-1.2,3.5-2.8,5.5-3.3c2.8-0.6,5.9-0.4,8.8-0.6c2.9-0.2,3.5-1.3,2.3-4c-0.6-1.5-1.6-3-1.7-4.5
		c-0.6-5.6-0.9-11.3-1.3-16.9c-0.1-1.9,0.5-4.1-0.2-5.7c-0.4-1-2.8-1.1-4.3-1.6c-0.5-0.2-0.9-0.5-1.3-0.8c-5-2.8-9.9-5.6-15.1-8.5
		c0,0.8-0.1,1.8,0,2.8c0.5,3.8,1.2,7.6,1.5,11.5c0.6,8.3,1,16.6,1.5,24.9c0.2,3.1,1,6.3,0.8,9.4c-0.2,4.7,1.1,9,3.3,13
		c1.3,2.4,3.5,4,6.5,3c2.9-1,5.8-2.1,8.8-3c5.1-1.5,8.4-6.8,14.2-6.7c1.2,0,2.5-0.2,3.5-0.7c6.6-3.6,13.6-3.6,20.7-2.9
		c5.2,0.5,9.1-2.3,12.8-5.3c0.5-0.4,0.4-1.6,0.5-2.4c-0.8,0-1.7-0.1-2.4,0.2c-2.9,1.1-5.8,2.3-8.7,3.3c-0.9,0.3-2,0-3,0
		c-0.1-0.3-0.1-0.7-0.2-1c0.8-0.4,1.7-0.8,2.5-1.1c2.8-1,5.7-1.9,8.4-3.1c3.2-1.5,3.2-2,1.2-5.2c-5.1,1.1-9.2,6.4-16,3.8
		c2.6-1.8,4.6-3.4,6.7-4.7c2.6-1.5,5.4-2.8,8-4.2c0.9-0.5,1.7-1.2,2.5-1.9c-1-0.5-2.2-1.5-3-1.3c-3.2,0.8-6.2,2.1-9.4,3.1
		C63,154.6,61.4,155.1,59.7,155.6z M61.6,42.5c-1.4-2.2-2.7-4.4-4.2-6.4c-2.6-3.6-4.3-8.1-9.4-9.2c-0.6-0.1-1.2-1.8-1.4-2.8
		c-0.8-5.5-1.5-11-2.3-16.5c-0.1-0.6-0.7-1.2-1.1-1.8c-0.5,0.6-1.5,1.1-1.6,1.7c-0.1,1.6,0.2,3.2,0.4,4.8c0.5,4.4,1.1,8.8,1.4,13.2
		c0.1,1.1-0.9,2.4-1.8,3.4c-2.3,2.6-5.4,4.8-6.9,7.7c-1.7,3.3-2,7.3-2.7,11c-0.3,1.7-0.1,3.6-0.1,4.9c4.6-0.6,8.8-1.2,13.7-1.9
		c-0.7,1.4-0.9,2.4-1.3,2.5c-4.1,0.8-8.1,1.5-12.5,2.3c0.3,4.7,2.3,9.2,5.3,12.7c3.8,4.5,8.2,8.8,13.1,12.2
		c8.7,6.1,13.6,5.6,19.2-3.3c6.3-9.9,3.1-20-0.6-29.9C68,45.1,65.9,44,63.5,45c-2.9,1.3-5.8,2.6-8.8,3.9c-0.7,0.3-1.6,0.2-2.4,0.3
		c0.4-0.8,0.6-1.9,1.2-2.3C56.1,45.3,58.8,44,61.6,42.5z M53.6,129.4c2.6-0.6,7-1,10.9-2.5c2.7-1,6.3-3,7.1-5.4
		c3.6-10.5,6.3-21.2,9.5-31.9c1.2-4.1,2.8-8,4-12c0.3-0.8-0.2-1.9-0.3-2.9c-0.8,0.5-1.6,0.9-2.3,1.5c-1.4,1.3-2.7,3.6-4.2,3.7
		c-2.8,0.2-2.5-2.9-3.1-4.8c-0.2-0.6-0.8-1-1.2-1.5c-0.5,0.5-1,0.8-1.4,1.4c-0.4,0.6-0.5,1.3-0.8,1.9c-3.5,5.9-8.2,11.7-17.1,7.8
		c-1.8-0.8-2.7-0.5-2.7,1.9c0,4.3,0,8.7-0.9,12.9c-0.9,4.3-2.9,8.3-4.5,12.4c-1.9,4.9-5.1,8.9-9,12.4c-0.6,0.5-1,1.3-1.5,2
		c0.8,0.5,1.6,1.3,2.4,1.4C43,128.4,47.4,128.8,53.6,129.4z M70,126.8c-10.5,6.9-21.6,5.1-32.6,4.1c-1-0.1-2-0.5-2.9-0.9
		c-2.7-1.4-5.8,0-6.3,3c-1.6,10.5-2.1,21,4.6,30.9c4.3-2.5,9-5.1,13.6-7.8c0.5-0.3,0.9-0.9,1.1-1.4c4.2-8.8,10.6-14.8,20.8-15.8
		C69,135.1,69.5,131.3,70,126.8z M3.4,114.5c0.3,1.6,0.1,3.2,0.8,3.9c5.5,5.4,12,9.5,19.6,11.3c2.3,0.5,7.9-3.6,7.7-5.9
		c-0.6-4.8-0.9-10.1-3.2-14.2c-3.6-6.6-10.2-11.3-13-18.5c-0.1-0.4-2.3-0.6-2.7-0.1c-2,2.4-4.6,4.8-5.5,7.7
		C5.4,103.8,4.6,109.4,3.4,114.5z M103.5,100.6c0.3,0.3,0.5,0.7,0.8,1c-1.5,1.3-3,2.5-4.4,3.8c-0.5,0.6-0.7,1.5-1,2.3
		c0.9,0.3,1.8,1,2.6,0.9c8-1.2,15.9-1.9,23.6,1.7c0.1,0.1,0.4-0.1,1.2-0.5c0.2-3.1,0.6-6.5,0.6-9.8c0-5.8-6.4-11.9-12.2-11.7
		c-0.3,0-0.7,0.1-0.8,0.2c-2.6,3.2-6.6,2.8-10,3.8c-5.1,1.5-7.9,6.8-6,11.7C99.7,102.9,101.6,101.7,103.5,100.6z"/>
	<path class="st0" d="M48.7,77.2c4.3-4.8,9.6-5.6,15.3-5.6C63.8,77.2,54.8,80.7,48.7,77.2z M62,73.1c-3.6,1.1-6.8,2.1-10.2,3.2
		C56.2,78.4,58.5,77.6,62,73.1z"/>
	<path class="st0" d="M48.7,56.8c0.7,2.7,1.4,5.4,2.1,8.1c0.3,1.1,0.5,3,1.2,3.2c1.2,0.3,2.7-0.3,4-0.6c2.6-0.7,3.7-2,1.2-4.7
		c2.6,0.8,3.2,2.5,2.1,4.3c-1.3,2-6,3.6-8.1,2.5c-0.9-0.5-1.9-1.6-2.2-2.6c-0.8-2.9-1.2-5.8-1.7-8.7c-0.1-0.4,0.2-0.8,0.3-1.2
		C48.1,56.9,48.4,56.9,48.7,56.8z"/>
	<path class="st0" d="M54.5,51.1c2.6,0.4,4.7,1.3,6.3,0.7c1.6-0.5,2.7-2.5,4.2-4c1.4,1.5,0.3,3.2-0.9,4.5
		C61.8,54.9,58.2,54.5,54.5,51.1z"/>
	<path class="st0" d="M44.4,55.2c0.4,2.9-1.4,4-3.3,4.8c-2.3,1-4.5,0.6-6.2-2.1C38.7,59.2,41.8,58.1,44.4,55.2z"/>
</g>
</svg>
