<?xml version="1.0" encoding="utf-8"?>
<!-- Generator: Adobe Illustrator 19.1.0, SVG Export Plug-In . SVG Version: 6.00 Build 0)  -->
<svg version="1.1" id="Layer_1" xmlns="http://www.w3.org/2000/svg" xmlns:xlink="http://www.w3.org/1999/xlink" x="0px" y="0px"
	 viewBox="0 0 84.3 140.5" style="enable-background:new 0 0 84.3 140.5;" xml:space="preserve">
<style type="text/css">
	.st0{fill:#03A9F4;}
</style>
<g id="skinrash-lady-4">
	<path class="st0" d="M69.9,140.5c0.2-1.4,0.5-2.9,0.7-4.2c-4-0.5-7.8-1.2-11.5-1.4c-2.9-0.2-5.8-0.2-8.4,1.4
		c-0.5,0.3-1.2,0.5-1.9,0.5c-5.1-0.1-10.2-0.3-15.2-0.5c-0.5,0-1-0.6-1.5-0.9c0.6-0.1,1.2-0.2,1.8-0.2c5.2,0,10.4,0.1,15.5,0
		c1.3,0,2.5-0.9,3.8-1.1c4.3-0.6,8.6-0.5,12.9,0.4c1,0.2,2.2,0.1,3.3,0c1.4-0.2,1.1-1.4,0.9-2.2c-0.8-3.5-1.6-7-2.5-10.4
		c-1.1-4.1-2.3-8.1-3.5-12.4c-4.3,1.9-9.1,2.2-13.7,3.3c-0.1-0.3-0.2-0.5-0.3-0.8c0.7-0.3,1.3-0.7,2-0.9c3-0.8,6-1.4,9-2.2
		c0.2,0,0.4-0.1,0.6-0.2c2.4-0.8,2.6-1.1,2.6-3.6c0-2.4,0-4.8,0-7.2c0-0.4-0.1-0.9-0.2-1.6c-1.8,0.6-3.6,1.2-5.3,1.6
		c-1.7,0.4-3.4,0.6-5.1,0.7c-0.4,0-0.9-0.6-1.4-0.9c0.5-0.2,1-0.8,1.4-0.7c3.5,0.7,6.5-0.9,9.6-2.3c0.9-0.4,1.2-1,1.1-2
		c-0.6-4.8-1-9.7-1.8-14.5c-0.4-2.3-1.3-4.5-2.1-6.8c-0.3-1-1.1-1.1-1.8-0.3c-0.9,1-1.7,2.1-2.4,3.1c-0.5,0.8-1,1.7-1.7,3
		c-1.2-1.7-2.2-3-3.1-4.4c-1.2-2-1.5-1.9-3.4-0.6c-2.5,1.6-5.1,3-7.8,4.1c-2.6,1-5.5,1.5-8.2,2.3c-0.5,0.1-0.9,0.7-1.1,1.2
		c-1.1,3-2.1,6-3.2,9c-0.4,1.1-1,1.8-2.3,1c-1.4-0.8-1.8-0.5-2.4,1c-0.8,2.2-1.6,4.5-2.4,6.8c-0.3,0.9-0.1,1.6,0.9,1.6
		c2.4,0,4.8-0.1,7.3-0.2c0.5,0,0.9,0,1.4,0.2c-2.9,2.3-6.1,1.9-9.7,1.4c0.2,1.1,0.3,2.1,0.5,3.1c0.3,1.8,0.7,3.5,1,5.3
		c0.1,0.8,0.4,1.2,1.2,1.4c2.5,0.6,4.9,1.6,7.5,2c3.1,0.5,6.3,0.6,9.5,0.9c0.5,0,1,0.3,1.5,0.5c-0.4,0.3-0.8,0.9-1.3,1
		c-3.6,0.3-7.2-0.1-10.6-1.2c-2.5-0.8-5-1.5-7.7-2.3c-0.6,2-1,3.6-1.5,5.2c-1.3,3.9-2.8,7.8-4,11.7c-0.7,2.2-1.2,4.5-1.5,6.8
		c-0.3,1.9-0.3,3.8-0.4,5.7c-0.6,0-1.2,0-1.8,0c0.1-2.2,0-4.5,0.4-6.6c0.4-2.3,1.2-4.5,1.9-6.7c1.7-5.3,3.5-10.6,4.9-16
		c0.8-3.2,0.2-6.5-1.2-10c-0.5,0.9-0.7,1.5-1,2c-0.7,1.2-1.3,2.6-2.2,3.7c-2.5,3-5.8,3-8.6,0.3c-2.4-2.3-3.8-5.3-5.3-8.3
		c-1.6-3.1-1.7-6.4-1.2-9.8c0.9-5.9,0.2-11.7-0.4-17.6c-0.3-3.3-0.2-6.8,0.3-10.1c0.4-2.7,1.9-5,4.7-6.1c2.1-0.9,4.1-2,6.5-2
		c1.1,0,1.6-0.7,1.8-1.6c0.6-3.1,1.2-6.2,1.8-9.3c0.1-0.5,0.1-1,0.3-1.4c2.6-5.7,3-12,4.4-18C22.2,14,27.1,7,34.9,2.2
		c2.8-1.7,6.2-2.7,9.3-2c4.1,1,8.1,2.7,10.5,6.8c1.8,3.1,3.3,6.3,3.8,9.8c0.7,4.8,1.2,9.5,1.8,14.3c0.5,4,0.9,8,1.3,12
		c0.1,1.3,0.8,2,2,2.5c1,0.5,2,1,3,1.6c3.7,2.2,4.4,6.3,5.7,9.9c1.4,3.7,2.6,7.5,3.8,11.3c0.7,2.4,1.3,4.9,1.6,7.4
		c0.7,6.2,1.2,12.4,1.9,18.6c0.4,3.4,1.3,6.7,1.8,10.1c0.7,5.9,1.1,11.9,1.8,17.8c0.8,6,1.3,12,1.1,18.1c-0.6,0-1.2,0-1.8,0
		c-0.2-3.6-0.2-7.2-0.5-10.8c-0.4-5.4-1-10.8-1.5-16.3c-0.5-4.3-1-8.5-1.6-12.8c-0.3-1.8-0.9-3.5-1.1-5.3c-0.6-5.3-1-10.7-1.5-16
		c-0.3-3.6-0.7-7.2-2-10.7c-1.5-4.1-2.7-8.3-3.9-12.5c-1.1-4-3.4-7-7.2-8.8c-0.4-0.2-0.8-0.1-1.2-0.1c0,0.4,0,0.8,0.1,1.1
		c0.6,2,1.4,3.9,1.7,6c0.7,4.6,0.2,9.1-2.3,13.2c-0.3,0.4-0.4,1.2-0.1,1.6c2.6,3.8,2.9,8.2,3.6,12.5c0.6,3.5,1,7,1.5,10.5
		c0.4,2.8,0.8,5.6,1.3,8.4c0.7,3.5,1.6,6.9,2.4,10.3c0.5,2,0.6,4.2,1.3,6.1c2.7,7.6,3.6,15.5,3.9,23.5c-0.5,0-1,0-1.5,0
		c0.1-0.6,0.3-1.3,0.2-1.9c-0.5-4.1-0.9-8.3-1.7-12.4c-0.8-4-1.9-8-2.9-12c-0.8-3.2-1.7-6.3-2.4-9.5c-0.5-2-0.7-4-1.1-6
		c-0.7,6.2,0.2,12.1,2,17.9c1.1,3.3,2.5,6.6,3,10c0.6,4.5,0.5,9.2,0.7,13.8C71.1,140.5,70.5,140.5,69.9,140.5z M23,36.9
		c-2.1-0.3-5.2,2.6-5.3,4.3c-0.1,1.6-0.1,3.2,0,4.9c0.1,2.5,0.5,4.8,2.1,6.8c0.8,1,1.4,2.2,2.2,3.2c1.3,1.8,1.5,3.7,0.4,5.7
		c-3.2,5.8-6.2,11.7-9.6,17.3c-1.5,2.6-3.8,4.7-5.6,7.1c-0.9,1.1-1.5,2.4-2.3,3.6c-0.3,0.5-0.6,1-0.9,1.5c-0.2-0.1-0.3-0.1-0.5-0.2
		c0.1-0.5,0.1-0.9,0.2-1.4c0.5-2,1.7-3.6,3.2-5.1c1.2-1.2,2.1-2.5,3.1-3.8c0.6-0.7,0.4-1.3,0.1-2.2c-0.8-2.4-1.8-5-1.7-7.5
		c0.1-3.2,1.1-6.4,1.9-9.6c0.6-2.3,1.5-4.5,2.3-6.9c-0.7,0-1.1,0-1.4,0.1c-1.6,0.6-3.3,1.2-4.9,1.7c-2.8,0.9-4.2,3.1-4.4,5.8
		C1.7,66.1,1.6,69.7,2,73.3c0.6,5.4,1,10.9,0.2,16.3c-1,6.8,2,12,6.3,16.7c1.7,1.9,4.2,1.7,5.8-0.3c1-1.3,1.7-2.9,2.4-4.4
		c1.4-3,2.9-6,3.9-9.2c2.1-6.2,3.9-12.6,5.7-18.9c0.6-2.1,0.9-4.3,1.5-6.4c0.7-2.4,1.8-4.7,2.6-7.2c0.9-2.6,0.5-5.1-0.5-7.6
		C29,50.4,28,48.3,27.3,46c-0.8-2.6-0.3-4.8,2-5.8c0.4-0.2,0.8-0.2,1.2-0.3c-0.2-0.2-0.4-0.4-0.6-0.6c-2.4-0.4-5.1,1.9-5.3,4.5
		c0,0.6-0.2,1.3-0.3,1.9c-1.5-1.7-1.7-3.6-1.3-5.3c0.2-0.9,1.7-1.4,2.6-2.1c0.2-0.2,0.6-0.2,0.8-0.4c0.3-0.3,0.4-0.7,0.6-1.1
		c-0.4-0.1-0.8-0.4-1.1-0.3c-1.2,0.6-2.3,1.3-3.4,1.9c-2.1,1.1-2.6,2.6-1.6,4.8c0.4,0.9,0.3,2,0.4,2.9c-0.2,0-0.4,0.1-0.6,0.1
		c-0.3-1.2-0.4-2.4-0.8-3.5c-0.8-2.6-0.8-2.6,1.3-4.2C21.7,38,22.3,37.4,23,36.9z M49.1,22c0.1-0.1,0.2-0.2,0.4-0.2
		c0-0.7,0.1-1.5-0.1-2.2c-0.6-1.7-1.3-3.4-1.9-5.1c-1.2-3.5-3.9-5.3-7.4-6.2c-3.6-0.9-6.4,1.2-8.2,3.3c-2.8,3.1-5.1,7-5.9,11.3
		c-0.6,3.4-1.9,6.9,0.4,10.1c0.9,1.3,2.1,2.5,3.2,3.7c1.4,1.6,3.2,2.3,5.3,2.1c0.9-0.1,1.8,0.1,2.7,0.2c1.9,0.2,3.8,0,5.3-1.3
		c3.2-2.6,5.3-6.1,6.3-10c1-4-0.8-6.4-4.9-7.2c-0.8-0.2-1.5-0.5-2.3-0.8c0.1-0.2,0.2-0.4,0.2-0.6C44.7,19.5,47.2,19.8,49.1,22z
		 M42.1,39.6c-0.4,0.5-0.6,0.7-0.7,1c-0.9,2.2-1.7,4.4-2.6,6.6c-0.1,0.3-0.4,0.5-0.7,0.8c-0.2-0.3-0.5-0.7-0.5-1
		c0-0.4,0.1-0.8,0.3-1.2c0.8-2,1.6-4,2.3-5.8c-2.9-0.2-6-0.4-8.6-0.6c-0.8,0.6-1.3,1.1-1.9,1.4c-1.3,0.7-2.2,1.6-1.7,3.2
		c0.5,1.7,1.2,3.4,1.8,5.2c1,3,2.9,5.9,2.3,9.1c-0.6,3.3-1.9,6.5-3,9.9c1.3,1.5,2.9,3.2,2.7,5.9c-0.1,2.6,0.4,2.9,2.9,2.3
		c0.2-0.1,0.5-0.2,0.7-0.2c1.2-0.1,1.6-0.6,1.5-1.8c-0.1-1.4,0-2.9,0-4.7c1.4,1.9,0.6,3.9,1.1,5.7c0.8-0.3,1.5-0.5,2.2-0.8
		c2.5-1.1,5-2,6.9-4c1.1-1.2,1-1.6-0.3-2.4c-1.3-0.9-2.8-1.8-4-2.9c-2.3-2.2-3.1-2.6-2.1-6.2c0.4-1.5,0.9-2.9,1.4-4.5
		c-5.3,2.7-5.3,2.7-6,2.2c1.9-1.1,3.8-2.2,5.7-3.3c0.3-0.2,0.7-0.4,0.8-0.8c0.5-1.3,1-2.6,1.4-3.9c0.1-0.3-0.2-1.1-0.5-1.1
		c-1.5-0.4-1.7-1.5-1.7-2.8C42.1,43.4,42.1,41.6,42.1,39.6z M23.9,42.9c0.5-3.3,3.5-3.6,5.7-5c-0.5-0.3-0.9-0.6-1.4-0.9
		c-1.1,0.9-2,1.9-3.2,2.6C23.6,40.4,23.5,41.5,23.9,42.9z"/>
	<path class="st0" d="M29.7,29.2c1.6-0.3,3.2-0.7,4.7-1c1.7-0.3,3.7,1.2,4.2,2.9c0.7,2.5,0.2,3.1-2.5,3.3
		C32.3,34.7,30.9,32.4,29.7,29.2z M32.5,30.5c0,0.2-0.1,0.3-0.1,0.5c1.5,0.6,3.1,1.2,4.9,1.9C36.4,30.5,34.7,29.8,32.5,30.5z
		 M31.1,30.6c1,2.8,2.9,3.6,5.8,2.8c-1.1-0.3-2.1-0.5-3-0.9C33,32.1,32.2,31.4,31.1,30.6z M37.9,31.5c-0.9-2.7-3.2-3.3-6.6-1.7
		C33.7,29.6,36.1,29.2,37.9,31.5z"/>
	<path class="st0" d="M36.9,19c-0.7-1.5-3.3-2.5-4.9-1.9c-0.4,0.2-0.8,0.5-1.1,0.8c0.4,0.4,0.6,0.9,1.1,1.1c1.5,0.6,3,1,5,1.6
		C36.9,19.9,37.1,19.4,36.9,19z M33.1,18.8L33.1,18.8c-0.7,0-0.7-1-0.1-1h0.1C33.8,17.8,33.8,18.8,33.1,18.8z M35.3,19.9
		c-0.2-0.2-0.2-0.3-0.2-0.5c-0.1-0.6,0.7-0.6,0.9-0.2C36.4,19.6,35.7,20.4,35.3,19.9z"/>
	<path class="st0" d="M42.6,20.9c-0.5,0-0.9,0.3-1.4,0.5c0.3,0.5,0.4,1.1,0.8,1.3c0.7,0.4,1.5,0.5,2.2,0.7c0.4,0.1,0.8,0.3,1.3,0.4
		c0.6,0.1,1.2,0.2,2.1,0.4C46.4,21.7,44.6,21,42.6,20.9z M42.8,22.5L42.8,22.5c-0.7,0-0.7-1-0.1-1h0.1
		C43.5,21.5,43.5,22.5,42.8,22.5z M45.4,23.6C45.3,23.6,45.3,23.6,45.4,23.6c-0.2,0-0.3,0-0.4-0.1c0,0,0,0,0,0
		c-0.1,0-0.2-0.1-0.2-0.2c-0.5-0.2-0.1-1.1,0.4-0.9c0,0,0.1,0,0.1,0.1c0,0,0,0,0,0c0,0,0,0,0,0c0.1,0,0.1,0.1,0.2,0.1
		c0.1,0,0.3,0.1,0.3,0.2c0,0,0,0,0,0C46.4,23.1,45.9,24,45.4,23.6z"/>
	<path class="st0" d="M40.1,25c-0.1,0-0.2,0-0.4,0c-0.2,0.7-0.4,1.4-0.5,1.7c-0.8-0.2-1.2-0.3-1.7-0.4c-0.8-0.2-1.9-0.1-2.1-1.2
		c-0.1-0.6,0.3-1.3,0.8-1.8c1.1-1.2,2.3-2.4,2.1-3.8c-0.5,0.6-0.9,1.1-1.4,1.8c0,0.5-0.6,1-1,1.3c-0.1,0.1-0.1,0.1-0.2,0.2
		c-0.2,0.3-0.4,0.5-0.6,0.8c-0.8,0.9-0.4,2.7,0.7,3.2c0.6,0.3,1.1,0.6,1.7,0.8c0.9,0.3,2,0.5,2.5-0.6C40.4,26.5,40.1,25.7,40.1,25z"
		/>
	<path class="st0" d="M31,15.7c2.8-1.2,6.2-0.1,6.8,2.2C35.8,16.3,33.5,15.7,31,15.7z"/>
</g>
</svg>
