<?xml version="1.0" encoding="utf-8"?>
<!-- Generator: Adobe Illustrator 19.1.0, SVG Export Plug-In . SVG Version: 6.00 Build 0)  -->
<svg version="1.1" id="Layer_1" xmlns="http://www.w3.org/2000/svg" xmlns:xlink="http://www.w3.org/1999/xlink" x="0px" y="0px"
	 viewBox="0 0 150 232.2" style="enable-background:new 0 0 150 232.2;" xml:space="preserve">
<style type="text/css">
	.st0{fill:#03A9F4;}
</style>
<g id="skinrash-lady-1">
	<path class="st0" d="M125.9,232.2c-0.4-2.2-0.7-4.5-1.2-6.7c-1.4-5.5-3-10.9-4.3-16.3c-0.8-3.4-1.4-6.8-2.2-10.2
		c-0.1-0.5-0.5-1-0.8-1.6c-6.6,6.1-14.7,9.2-22.4,12.8c-0.2,0.1-0.6-0.1-0.8-0.2c0-0.1-0.1-0.3-0.1-0.4c1-0.6,1.9-1.3,3-1.7
		c6.4-2.5,12.2-6.1,17.7-10.2c0.5-0.3,0.8-0.8,1.2-1.3c-3.5-2.9-5.7-6.6-8.1-10.1c-0.8-1.1-1.5-1.3-2.8-0.7c-2.3,1-4.7,1.8-7.1,2.6
		c-1.4,0.5-2.9,0.9-4.4,1.2c-0.3,0.1-0.6-0.3-0.9-0.5c0.3-0.2,0.5-0.5,0.8-0.6c1.5-0.5,3-0.8,4.5-1.4c2.7-1,5.4-2.2,8.4-3.5
		c-1.4-2.2-2.7-4.1-3.9-6.1c-1.7-2.8-3.3-5.6-4.8-8.4c-0.7-1.4-1.4-2.8-2-4.2c-2.1-4.8-4.1-9.7-6.1-14.5c-1.1-2.6-2.4-5.2-3.5-7.9
		c-0.7-1.6-1-3.4-1.6-5.1c-0.7-2-1.6-3.9-2.4-5.8c-0.1-0.2-0.6-0.3-1-0.4c-0.1,0-0.3,0.1-0.5,0.2c-3.5,2.2-7.4,2.7-11.4,3.4
		c-1.3,0.2-2.7,0.2-4.3,0.3c-0.6,2.5-1.3,5.1-1.9,7.8c-0.8,3.7-1.6,7.4-2.4,11.1c-0.2,0.8-0.5,1.6-0.7,2.4
		c-2.2,6.6-4.3,13.1-6.5,19.7c-1,3-2.2,5.9-3.3,8.9c-0.2,0.4-0.2,0.9-0.4,1.6c2.5-0.4,4.8-0.8,7.1-1.1c1.9-0.3,3.7-0.5,5.6-0.6
		c0.5,0,0.9,0.5,1.4,0.7c-0.5,0.3-0.9,0.7-1.4,0.8c-3.7,0.7-7.4,1.2-11.1,1.8c-0.3,0-0.6,0.2-0.8,0.1c-1.6-0.5-2,0.6-2.6,1.7
		c-2,3.7-4,7.3-6,10.9c-1.6,2.8-3.4,5.7-5.2,8.4c-1.8,2.6-3.7,5.3-7.2,6.1c-0.3,0.1-0.7,0.4-0.8,0.8c-1.6,5.4-3.1,10.8-4.7,16.2
		c0,0.1,0,0.3,0,0.4c-0.6,0-1.1,0-1.7,0c1.6-5.4,3.2-10.8,4.8-16.1c0.2-0.7,0.1-1.1-0.7-1.3c-5.8-1.3-9.7-5.2-12.6-10.1
		c-2.7-4.7-5.2-9.5-7.3-14.4c-1.2-2.7-1.5-5.8-2.1-8.8c-0.3-1.6-0.5-3.3-0.6-5c-0.2-9.6-0.2-19.3-0.4-28.9c-0.1-3-0.8-6.1-1.1-9.1
		c-0.2-1.4-0.2-2.7-0.4-4.1c-0.3-1.8-0.6-3.6-0.9-5.4c-1.2-7.3-1.3-14.5,2.9-20.8c3.5-5.2,8.4-8.8,14.8-9.8c3.6-0.6,7.2-1,10.8-1.8
		c1.5-0.3,2.9-1.1,4.2-1.9c2.3-1.4,4.5-2.8,6.6-4.3c0.9-0.7,1.4-1.7,1.2-2.9c-0.1-0.8,0-1.7,0-2.5c0.1-2.5,1.3-4.5,3.5-5.7
		c1.9-1,3.9-1.6,5.9-2.5c0.3-0.2,0.8-0.6,0.8-0.9c0.6-3.7,1.4-7.4,1-11.2c-0.1-0.7-0.6-1.5-1.1-2.1c-0.7-0.8-1.5-1.4-2.3-2
		c-3.4-2.5-4.3-6.1-4.4-9.9c0-2.5,0.3-5,0.8-7.5c0.5-2.8,1.2-5.6,1.9-8.4c0.4-1.4,1.2-2.7,1.9-4.1c0.4-0.8,0.9-1.5,1.2-2.3
		c1-2.8,1.8-5.7,2.9-8.5c0.8-1.9,1.8-3.8,2.9-5.6c2-3,4.1-5.9,6.5-8.7c3-3.6,6.6-5.9,11.6-5.5c3.2,0.2,6.2,0.7,9.3,1.4
		c3.5,0.9,7,1.8,10.1,3.6c4,2.3,7.5,5.2,9.8,9.4c1.8,3.3,3.9,6.4,5.2,9.9c2,5.2,1.7,10.8,1.5,16.3c0,0.1,0,0.3,0,0.4
		c-1.6,2.7-1,5.5-0.8,8.4c0.1,1.1-0.4,2.2-0.7,3.3c-0.1,0.5-0.5,1-0.6,1.5c-0.7,2.8-1.7,5.5-3.9,7.5c-0.9,0.9-0.9,2-0.6,3.2
		c1,4.1,1.4,8.3,0.6,12.4c-0.5,2.5-1.7,4.9-2.6,7.4c-0.1,0.3,0.1,1,0.4,1.2c2.6,1.5,5.2,2.8,7.8,4.4c3.6,2.2,7.6,2.5,11.6,3.1
		c4.6,0.7,9.2,0.2,13.7,1.7c2.9,1,5.5,2.5,7,5.2c1.2,2.2,1.9,4.6,2.7,7c0.3,0.9,0.4,2,0.6,3c0.1,0.3,0,0.6,0.2,0.8
		c1.3,1.2,0.8,2.7,0.9,4.1c0.1,5.7,0.2,11.4,0.3,17.1c0,3.1-0.2,6.2,0,9.2c0.4,7.1,0.9,14.3,1.4,21.4c0.2,2.8,0.3,5.7,1.6,8.3
		c0.3,0.6,0.1,1.5,0,2.3c-0.1,1.8-0.3,3.7-0.2,5.5c0.2,2.6-0.8,4.9-1.7,7.3c-1,2.5-2.2,4.9-3.3,7.4c-0.3,0.7-0.7,1.5-0.9,2.3
		c-0.7,3-2.3,5.5-4.5,7.5c-1.9,1.7-3.9,3.2-5.9,4.8c-2.1,1.6-4.5,1.7-6.6,0.1c-1.2-0.9-2.3-2.1-3.3-3.2c-1-1-1.9-2.1-2.8-3.1
		c-0.2,0.1-0.3,0.2-0.5,0.3c0.7,3.1,1.3,6.3,2.1,9.4c1.6,5.9,3.3,11.7,4.8,17.6c0.3,1,0.2,2.2,0.3,3.3
		C127,232.2,126.5,232.2,125.9,232.2z M30.9,97.7c-4,0.7-8,1.3-12.1,2c-6.2,1.1-11,4.5-14.3,9.7c-3.7,6-3.6,12.8-2.3,19.6
		c0.4,2.4,1.8,4.6,0.8,7.2c-0.2,0.4,0.1,0.9,0.1,1.3c0.5,3.3,1.3,6.6,1.4,9.9c0.3,8.4,0.4,16.8,0.3,25.2c-0.1,4.9,0.7,9.6,1.9,14.2
		c0.8,3,2.3,5.8,3.6,8.7c2.1,4.7,4.3,9.2,7.9,13c2.3,2.4,4.9,4.3,8.3,4.9c1.8,0.3,3.7,0.4,5-1c1.4-1.4,2.8-2.9,3.9-4.6
		c2.1-3.2,3.9-6.6,5.8-9.9c1.5-2.6,3.1-5.1,4.3-7.8c1.8-4,3.1-8.2,4.9-12.2c3.3-7.5,5.8-15.2,8-23c2.2-7.6,3.6-15.4,5.3-23.1
		c-6.2-2.1-12.3-4.1-18.4-6.2c-1.1,3.5-2.2,7-3.4,10.5c-1.5,4.6-3.1,9-5.9,13c-1.9,2.8-4,5.5-5.5,8.5c-2.4,4.8-6.3,8.4-9.7,12.2
		c-3.7,4-4.5,8.8-5.3,13.7c0,0.1,0,0.3,0,0.4c0.7,1.7,1.4,3.4,2,5.2c0.1,0.4,0.2,0.8,0.3,1.5c-2.7-1.4-2.4-3.9-3.2-5.9
		c-1.5,0.3-2.1,1.2-2.4,2.4c-0.1,0.4-0.5,0.7-0.7,1.1c-0.2-0.5-0.6-1.1-0.4-1.3c0.7-1.2,1.5-2.4,2.4-3.3c0.6-0.6,1.2-1.1,0.9-2.4
		c-1.4,1.2-2.7,2.3-4,3.2c-0.3,0.2-0.8,0.1-1.2,0.2c0.1-0.4,0.1-0.8,0.3-1c0.9-0.9,1.8-2,2.9-2.5c1.6-0.7,2.3-1.7,2.5-3.3
		c0.9-5.2,4.7-8.7,7.9-12.5c1.6-2,3.7-3.4,4.9-5.8c1.1-2.3,2.5-4.4,3.8-6.6c0.2-0.3,0.2-0.7,0.2-1.1c-0.3-3.4-0.5-6.8-1.1-10.2
		c-0.7-4-1.8-7.9-2.8-11.9c-0.6-2.1-0.8-4.5-2.6-6.1c-1.8-1.6-3.6-3.1-5.4-4.7c-0.4-0.3-0.7-0.8-1-1.2c0.1-0.1,0.3-0.3,0.4-0.4
		c4,1.9,7,4.8,9.1,8.8c0.1-0.8,0.3-1.6,0.1-2.4c-0.8-4-1-8.1-3-11.7c-0.2-0.3-0.1-0.7-0.1-1.1c0.3,0.2,0.8,0.4,1,0.7
		c0.7,1.5,1.6,2.9,2.1,4.5c1.3,4.4,1.7,8.9,1.5,13.5c0,1,0,2,0.2,3c1.1,4.6,2.2,9.2,3.3,13.8c0.2,1,0.2,2.1,0.3,3.5
		c0.7-0.8,1.3-1.3,1.7-1.9c2.1-3.1,3.6-6.4,4.8-10c1.1-3.3,2.1-6.6,3.3-9.9c0.8-2.3,1.5-4.5-0.6-6.5c-0.4-0.4-0.6-1-0.9-1.5
		c-1.7-3.2-3.4-6.5-5.1-9.7c-2-3.8-4.6-7.4-5.5-11.8C31.3,98.3,31.1,98.1,30.9,97.7z M84,74.9c3.2-2.1,5.1-0.2,7,2.1
		c0.3-1.3,0.5-2.3,0.8-3.4c1.1-4.1,2.2-8.1,3.3-12.1c0.1-0.3-0.1-0.7-0.2-1c-0.5-1-1.1-2.1-1.7-3.3c-0.4,0.3-1.1,0.7-1.8,1.1
		c-1.5,0.9-3,2-4.5,2.8c-3.2,1.7-6.6,3.2-10.4,2.9c-3-0.3-5.9-0.9-8.9-1.4c-0.1,0-0.2-0.3-0.3-0.6c0.3,0,0.5,0,0.7,0
		c2.5,0.4,5,0.9,7.5,1.2c3.3,0.4,6.4-0.3,9.3-1.8c2.6-1.4,5.1-3.1,7.7-4.6c1.3-0.8,2.2-1.7,2.5-3.2c0.1-0.5,0.3-1,0.5-1.5
		c1.3-3.6,2.8-7.2,3.9-10.9c1.6-5.3,0.5-10.6-1-15.8c-0.4-1.4-0.8-2.7-1.3-4c-0.6-1.4-1.3-2.7-2-4c-0.3-0.5-0.7-0.9-1-1.3
		c-1.9-2.6-3.8-5.4-6.7-7c-2.9-1.7-5.9-3.6-9.6-3.3C76.2,6,74.6,6.2,73,6.2c-3.3,0.1-6.5,1.1-9.6,2.2c-0.4,0.1-0.8,0.4-1.1,0.8
		c-1.8,2.2-3.6,4.4-5.3,6.7c-0.9,1.3-1.6,2.8-2.2,4.3c-1.1,2.9-1.9,5.9-3,8.8c-0.7,1.8-2.1,3.4-2.6,5.3c-1.2,4.4-2.4,8.9-2.9,13.5
		c-0.8,6.4,0.8,9.9,5.6,13.4c1.2,0.8,1.9,1.7,2,3.1c0.1,2.1,0,4.2-0.1,6.3c-0.1,1.9-0.4,3.8-0.6,5.8c2.9,0.2,5.3,0.5,6.4,3.3
		c1.7,0,3.3,0.5,4.5,1.8c0.6,0.6,1.1,1.8,1,2.6c-0.1,0.6-1.3,1-2.1,1.3c-0.4,0.2-1,0.1-1.5,0.1c-0.9,0.1-2.6,1.7-2.8,2.6
		c-0.4,2-0.8,4-1.2,6c-0.1,0.4-0.1,0.9-0.1,1.3c0.2,0,0.4,0.1,0.6,0.1c0.5-1.4,1.1-2.8,1.5-4.2c0.9-3.2,4.7-6.2,8-6.1
		c0.8,0,1.7,0.1,2.3,0.6c0.6,0.4,0.8,1.3,1.2,2c1.8-1.2,3-1,4.4,1c0.5,0.7,1.1,1.4,1.6,2.1c0-0.4-0.1-0.6-0.2-0.9
		c-1.1-2.1-2.3-4.2-3.4-6.3c-0.7-1.3-0.3-2.8,0.7-3.5c1.6-1.1,2.9-1.1,4.1,0c0.8,0.7,1.7,1.5,2.2,2c-0.1-0.2-0.5-0.8-0.9-1.3
		c-0.4-0.6-0.9-1.1-1.3-1.6c-1.3-1.9-1.1-3.6,0.7-4.6C80.6,73.6,82.4,73.6,84,74.9z M127.2,115c1.2,0.8,1.2,0.8,0.3,1.9
		c-0.5,0.6-1.1,1.3-1.3,2.1c-1.1,4.1-2.7,7.9-5.4,11.3c-0.9,1.2-1.5,2.9-1.7,4.4c-0.4,3.6-0.6,7.2-0.7,10.8c0,1,0.3,2.1,0.8,2.9
		c0.8,1.5,2,2.8,2.9,4.2c2,3.1,4.3,5.8,7.5,7.8c2.9,1.9,5.9,3.9,7.9,6.9c0.2,0.2,0.4,0.5,0.7,0.6c1,0.2,2.1,0.4,3.1,0.6
		c1.7,0.4,3.5,0.7,4.7,2.1c0,0.1-0.1,0.3-0.1,0.4c-2.3-0.6-4.6-1.1-6.9-1.7c-0.4,2.5,2,2.3,3,3.5c-0.9-0.2-1.5-0.4-2.1-0.6
		c-0.1,0.1-0.1,0.2-0.2,0.3c0.3,0.4,0.6,0.9,1,1.1c1.9,0.8,3.3,2.1,4.4,3.8c0.9,1.5,1.8,3,2.7,4.6c0.1-0.4,0.3-0.8,0.3-1.2
		c0.1-1.7,0.4-3.4,0.3-5.1c-0.2-2.2-0.6-4.4-1-6.6c-0.2-1.1-0.5-2.1-0.6-3.2c-0.2-4.2-0.3-8.4-0.5-12.6c-0.3-4.8-1-9.6-1.1-14.4
		c-0.2-7.8,0-15.6,0-23.4c0-0.5,0.1-1.1-0.1-1.5c-1.5-3.6-1.8-7.5-3.4-11.1c-1.4-3.3-3.5-5.5-6.8-6.4c-2.4-0.7-4.9-0.8-7.3-1.1
		c-3.3-0.4-6.6-1-9.9-1.3c-3.2-0.3-6.2-1.3-8.9-2.9c-0.6-0.3-1.2-0.6-2-0.9c-0.5,2-0.9,3.7-1.3,5.5c-0.6,2.7-1.1,5.5-1.9,8.1
		c-1,3.2-2.2,6.3-3.4,9.4c-0.8,2.2,0,4.3,1.2,5.8c1.5,1.9,2.5,3.9,3.4,6c2.4,5.3,4.3,10.7,7.6,15.5c0.9,1.3,1.8,2.5,2.8,3.7
		c0.3,0.4,0.8,0.6,1.2,0.9c0.2-0.5,0.7-1,0.7-1.4c0.1-2.2,0-4.4,0.2-6.6c0.4-4.2,0.9-8.4,1.3-12.6c0-0.4,0.4-0.8,0.6-1.2
		c0.2,0,0.4,0.1,0.6,0.1c-0.1,1.8-0.2,3.7-0.2,5.5c2.2-2.3,3.5-5.1,4.5-7.9C124.9,119,125.3,116.7,127.2,115z M141.4,175.8
		c0.5,2,0.9,3.9,1.4,5.8c-0.1,0-0.1,0-0.2,0c-0.2-0.2-0.3-0.5-0.6-0.8c-0.3,2.7-0.7,5-2.2,7.5c-0.4-0.7-0.8-1.1-0.7-1.5
		c0.2-1.4,0.7-2.7,1-4.1c0.2-0.8,0.5-1.7,0.5-2.5c-0.1-1.3,0.2-2.8-1-3.8c-0.1-0.1-0.1-0.4-0.1-0.7c-0.9-3.3-1.8-6.6-4.2-9.1
		c-2.1-2.1-4.6-3.9-6.9-5.8c-1.9-1.6-4-3.2-5.6-5c-3-3.5-5.7-7.1-8.5-10.8c-1.6-2-3.3-4-4.4-6.3c-2.8-5.5-5.3-11.1-7.8-16.8
		c-0.5-1.1-1-1.4-2-0.8c-2.6,1.5-5.2,3-7.9,4.4c-1.7,0.9-3.5,1.5-5.3,2.2c-1.4,0.5-2.9,1-4.4,1.4c1,2.5,2,4.6,2.9,6.8
		c0.6,1.7,0.9,3.5,1.6,5.2c1.8,4.4,3.8,8.7,5.7,13.1c3.3,7.9,6.8,15.8,11.5,23c2.6,4,5,8.2,7.7,12.2c1.2,1.8,2.7,3.4,4.3,5
		c1.7,1.6,3.7,2.9,4.7,5.2c0.2,0.4,0.6,0.8,1,1.2c1,1.1,2,2.2,3.1,3.3c0.8,0.9,1.6,1.8,2.6,2.5c2.1,1.5,3.6,1.4,5.7-0.3
		c1.6-1.3,3.3-2.7,4.9-4c2.1-1.8,3.6-3.9,4.4-6.7c0.3-1.3,1.1-2.5,1.6-3.7c1.1-2.8,2.2-5.6,3.2-8.4c0.1-0.4-0.1-1-0.4-1.4
		c-0.3-0.5-0.9-0.7-1.2-1.2C144.4,179.1,143.8,176.8,141.4,175.8z M86.7,95.8c-0.2,0.1-0.4,0.1-0.7,0.2c-1-2.3-2-4.6-2.9-7
		c-1.2-3.3-3-6.1-5.7-8.4c-1.1-1-2.2-0.4-3.1,0.3c-1,0.7-0.7,1.8-0.2,2.7c0.6,1,1.3,1.9,1.8,2.9c0.7,1.8,1.9,3.4,2.3,5.5
		c0.4,2,1.6,3.8,2.5,5.7c0.2,0.4,0.1,0.8,0.2,1.2c-0.1,0-0.2,0.1-0.4,0.1c-0.2-0.2-0.5-0.4-0.6-0.7c-0.8-1.6-1.3-3.3-2.3-4.8
		c-1.2-1.9-2.7-3.6-4.2-5.2c-0.9-0.9-2-0.3-2.8,0.4c-0.7,0.7-0.7,1.3-0.1,2.2c0.8,1.1,1.4,2.4,1.9,3.6c2.2,5.3,3.2,10.9,4.4,16.4
		c1,4.3,2.5,8.3,4.1,12.3c0.6,1.5,1,3.1,1.4,4.6c1-0.4,1.9-0.7,2.9-1.1c2.5-1,5.1-2,7.5-3.1c2-0.9,3.8-2.2,5.8-3.2
		c1.1-0.5,1.3-1,0.8-2.1c-1.7-4-2-8.1-1.5-12.4c0.6-5.6,0.4-11.2-1.6-16.5c-1.2-3.1-2.4-6.1-3.6-9.1c-0.1-0.4-0.5-0.7-0.7-0.9
		c-0.4-0.4-1-0.7-1.3-1.1c-0.6-0.7-1-1.4-1.5-2.1c-1-1.4-2.4-1.7-4.2-1.2c0.1,2.5,2.4,3.8,3.2,5.9c0.8,2.1,1.7,4.1,2.7,6.1
		c1,1.9,2.1,3.7,3.2,5.5c-0.1,0.1-0.2,0.1-0.3,0.2c-1.6-1.3-2.8-2.9-3.6-4.8c-1-2.2-1.6-4.6-2.8-6.8c-1.1-2-2.5-3.9-4-5.7
		c-0.9-1.1-3.1-1.1-4.3-0.2c-1.1,0.8-1.2,1.7-0.1,3.4c1.3,2,2.6,3.9,3.4,6.3c1.1,3.4,2.8,6.6,4.2,9.9C86.7,95.2,86.7,95.5,86.7,95.8
		z M50.8,93.5c-1.2-1.1-0.7-2.1-0.6-2.9c0.4-4,1.5-7.7,5.6-9.6c0.5-0.2,1.1-0.4,1.6-0.7c0.5-0.3,0.9-0.6,1.3-0.9
		c0-0.2,0-0.3,0.1-0.5c-1.1-0.5-2.1-1-3.2-1.5c-1.7-0.8-3.1,0.2-4.4,0.8c-2.2,0.9-4,2.5-4.7,4.7c-0.6,1.9-0.7,4-0.9,6
		c-0.1,1.2-0.2,2.5-0.2,3.7c-0.1,0-0.3,0-0.4,0c-0.1-0.4-0.2-0.8-0.1-1.2c0.1-3.9,0-7.9,2.5-11.5c-0.3,0.1-0.5,0.1-0.6,0.2
		c-2.5,1.1-3.7,3-3.9,5.8c-0.1,1.7-0.2,3.5-0.7,5.1c-0.7,2.3-1,4.6-0.6,6.9c0.9,5,1.9,10,3.3,14.8c0.8,3,1.1,6,0.8,9.1
		c-0.2,2.1-0.2,2.1,1.8,2.9c0.2,0.1,0.4,0.2,0.6,0.3c4.4,2,9,3.6,13.8,4.4c0.4,0.1,1.3-0.3,1.4-0.6c0.7-3.3,1.7-6.6,1.7-9.9
		c0.1-3.7-0.6-7.4-1-11.1c-0.5-4.5-0.5-9,0.4-13.4c0.1-0.7,0.5-1.5,1-2c1.2-1.4,2.5-2.7,3.6-4.1c0.3-0.4,0.2-1.2,0.2-1.8
		c-1.3,0-2.8-0.5-3.9,0c-1.3,0.5-2.4,1.8-3.5,2.9c-0.6,0.6-1,1.6-1.4,2.4c-1.1,2.3-2.1,4.5-3.1,6.8c-0.5-0.3-0.7-0.6-0.7-0.8
		c0.2-1.7,0.3-3.4,0.6-5.2c0.2-1.3,0.6-2.6,0.6-3.9c0.1-1.5,1.7-3.9,3.1-4.2c0.7-0.2,1.5-0.1,2.3-0.1c0.7,0,1.2-0.3,0.9-1.1
		c-0.5-1.7-3.5-3.2-5.2-2.6c-4.2,1.5-7.3,3.8-7.7,8.7C51.1,90.5,51,91.9,50.8,93.5z M68.8,89.6c-1,1.2-1.9,2.2-2.7,3.3
		c-0.4,0.5-0.7,1-0.8,1.5c-0.3,1.7-0.8,3.3-0.7,5c0.2,4.6,0.6,9.1,0.9,13.7c0.2,3.2,0.3,6.5,0.2,9.7c-0.1,2-0.6,4-1,6.1
		c1.9-0.1,3.7-0.2,5.6-0.3c3-0.2,5.9-0.9,8.5-2.8c1-0.7,1.4-1.3,0.9-2.6c-1-2.3-2-4.7-2.8-7.1c-1.2-3.6-1.2-7.6-3-11.1
		c-0.1-0.2-0.1-0.4-0.1-0.7c-0.5-2.4-0.9-4.8-1.6-7.1c-0.7-2.4-1.7-4.7-2.6-7.1C69.3,90,69.1,89.9,68.8,89.6z M100.4,60.6
		c4,0.4,5-1.5,6-4.7c0.4-1.2,0.6-2.5,1.1-3.6c0.6-1.3,0.6-2.6,0.1-3.9c-0.4-1.3-0.9-2.9-2.5-2.9c-1.4,0-3,0.3-4,1.1
		c-2.6,1.9-4.8,4.3-5.6,7.6c-0.3,1-0.5,2.1-0.6,3.1c0,0.6,0.2,1.4,0.6,1.9C96.9,60.6,98.7,60.7,100.4,60.6z M40.2,92.5
		c-1.6,1-3.1,1.9-4.6,2.7c-0.8,0.5-1,1-0.6,1.9c0.9,1.9,1.7,3.8,2.5,5.8c1.8,4.3,3.5,8.7,6.6,12.7c-0.6-2.9-1.2-5.6-1.8-8.2
		c-0.7-3.4-1.5-6.8-2.1-10.3C40,95.6,40.2,94.1,40.2,92.5z M96.5,85.8c1.7,5.5,3.8,10.7,3.3,16.4c1.2-4.5,2.1-9,2.9-13.6
		c0-0.3-0.2-0.7-0.4-0.9C100.6,86.7,98.7,86.1,96.5,85.8z M66,130.5c-0.1,0.7-0.3,1.5-0.5,2.4c1.2,0,2.5,0.1,3.8,0
		c3.5-0.3,6.8-1.4,9.9-3c1.6-0.8,2-1.5,1.1-3c-2.4,0.9-4.7,2-7.1,2.6C71,130.1,68.4,130.2,66,130.5z M33.5,96.5
		c-1,0.3-1.4,0.8-1.1,1.6c0.7,1.8,1.3,3.7,2.2,5.5c2.8,5.4,5.7,10.7,8.6,16.1c0.3,0.5,0.6,1,1.1,1.7c0.4-1.5,0.3-2.4-0.5-3.6
		c-2.1-3.2-3.9-6.6-5.5-10.1C36.6,104.1,35.1,100.3,33.5,96.5z M99.2,111.5c0.1,0,0.2,0,0.4,0c0.2-0.8,0.4-1.6,0.7-2.3
		c1.1-3.2,2.3-6.5,3.2-9.7c0.8-2.7,1.1-5.5,1.9-8.3c0.4-1.3,0-1.9-1.4-2.3c-0.1,0.9,0,1.7-0.2,2.5c-1,3.8-2.1,7.7-3.2,11.5
		c-0.3,1-1.2,1.8-1.3,2.8C99.1,107.6,99.2,109.5,99.2,111.5z"/>
	<path class="st0" d="M52.7,45.5c1-0.8,1.9-1.7,2.9-2.4c2-1.2,4.2-2.1,6.6-2.1c1.4,0,2.8,0.2,4.1,0.8c2.9,1.3,5.4,3,7,5.8
		c0.1,0.2,0.2,0.7,0,0.8c-0.1,0.2-0.6,0.3-0.8,0.2c-2.4-0.5-4.8-1.1-7.2-1.5c-1.6-0.3-3.2-0.2-4.8-0.3c-2.6-0.2-5.1-0.4-7.7-0.7
		C52.8,45.9,52.8,45.7,52.7,45.5z M54.3,45.3c6.1-3.1,11.8-2.4,17.4,1.3c-1.8-2.7-4.4-4.2-7.4-4.8C60.5,41.2,57.1,42.6,54.3,45.3z
		 M69.5,46.7c-3.4-2.7-9.3-3.2-12.9-1.1C60.9,46,65.2,46.3,69.5,46.7z"/>
	<path class="st0" d="M62.6,38c-1.1,0.7-1.9,0.4-2.6-0.3c-0.8-0.7-1.1-1.7-0.6-2.6c0.9-1.5,2.1-2.8,3.2-4.2c0.4-0.5,1-0.9,1.8-1.6
		c-1.8-0.5-3.3-1-4.9-1.3c-1.6-0.3-3.2-0.3-5.2-0.5c0.4-0.5,0.7-0.9,1-1.2c2.1-2.1,5.9-2.8,8.2-1.2c1.9,1.3,2.8,3.5,0.7,5.4
		c-0.4,0.4-1,0.7-1.3,1.2c-0.9,1-1.9,2-2.6,3.2c-0.9,1.5-0.2,2.5,1.4,2.9C62.1,37.7,62.4,37.9,62.6,38z M61.1,25.6
		c-1.7-0.7-2.8,0.5-4,1.1c0.6,0.2,1.1,0.1,1.6,0.3C60,27.5,60.8,27.2,61.1,25.6z"/>
	<path class="st0" d="M74.3,29.7c2.6-3.6,7-4.5,10-2.1c1,0.8,1.8,1.9,2.5,3c0.3,0.4,0.3,1.3,0.1,1.5c-0.3,0.3-1.1,0.4-1.6,0.3
		c-1.3-0.3-2.6-0.8-3.9-1.2c-1.6-0.4-3.3-0.6-4.9-1C75.7,30.1,75,29.9,74.3,29.7z M76.2,29.2c1.5,0.2,3,0.5,4.5,0.7
		c0.4-0.6,0.8-1.1,1.2-1.7C79.6,27.3,77.6,27.5,76.2,29.2z"/>
	<path class="st0" d="M78.2,20.1c3.6,0.5,7.2,1.2,9.6,4.4c0.2,0.3,0.2,0.8,0.3,1.2c-0.4-0.1-1-0.2-1.3-0.4c-2-2.3-4.6-2.8-7.4-2.6
		c-0.9,0.1-1.8,0.1-2.6,0c-0.5-0.1-1.2-0.6-1.2-0.9c0.1-0.5,0.5-1.1,0.9-1.4C76.9,20.1,77.5,20.2,78.2,20.1z"/>
	<path class="st0" d="M55.2,20.7c2.4-1.6,5-2.5,7.9-2.3c0.8,0.1,1.4,0.7,1.1,1.5c-0.1,0.3-0.9,0.4-1.4,0.5c-2,0.3-4,0.4-6,0.7
		c-0.5,0.1-1,0.2-1.5,0.2C55.2,21.1,55.2,20.9,55.2,20.7z"/>
	<path class="st0" d="M68.8,39c3.7-0.5,4.6-1.7,2.1-5.5c0.9-0.2,1.3,0.1,1.9,1.4c0.6,1.3,0.4,3.1-0.5,3.8C71,39.7,69.7,39.8,68.8,39
		z"/>
	<path class="st0" d="M65.9,51.8c-2.6-2.1-5.3-3-8.5-1.4c0.4-1.1,1.7-1.6,4-1.4C63.7,49.2,65.6,50.3,65.9,51.8z"/>
	<path class="st0" d="M67.6,35c0.7,0.7,1.2,1.3,1.6,1.8c-0.4,0.3-0.9,0.9-1.1,0.9c-0.7-0.3-1.2-0.9-1.8-1.4
		C66.7,35.9,67,35.6,67.6,35z"/>
	<path class="st0" d="M61.8,37c-0.2-0.4-0.7-0.8-0.6-1.1c0.1-0.4,0.5-0.9,0.9-1c0.3-0.1,1,0.5,0.9,0.7c-0.1,0.5-0.5,0.9-0.7,1.3
		C62.1,37,61.9,37,61.8,37z"/>
	<path class="st0" d="M144.8,186.1c-0.2-1.6-0.4-3.1-0.6-4.7c0.1,0,0.2,0,0.3,0c0.2,1.6,0.4,3.1,0.7,4.7
		C145.1,186.1,144.9,186.1,144.8,186.1z"/>
	<path class="st0" d="M100.7,50.6c1.7,2.3,1.9,4.1,0.8,6.5c0.5-0.2,1.3-0.4,1.4-0.7c0.7-2.2,1.3-4.5,1.8-6.8
		c0.1-0.4-0.2-0.9-0.4-1.5c-0.7,0.5-1.2,1-1.8,1.3c-0.2,0.1-0.5,0.1-0.7,0.1c0-0.3,0.1-0.6,0.1-0.8c0-0.1,0.1-0.2,0.2-0.2
		c0.9-0.5,1.9-1.6,2.7-1.5c1.3,0.3,1.5,1.9,1.2,3c-0.6,2.5-1.3,5-2.2,7.4c-0.4,1.2-3.6,1.5-4.4,0.5c-0.2-0.3-0.2-1.2,0.1-1.5
		c1.5-1.7,1.6-1.7,0.6-3.8C99.8,51.7,99.5,51,100.7,50.6z"/>
</g>
</svg>
