<?xml version="1.0" encoding="utf-8"?>
<!-- Generator: Adobe Illustrator 19.2.1, SVG Export Plug-In . SVG Version: 6.00 Build 0)  -->
<svg version="1.1" id="Layer_1" xmlns="http://www.w3.org/2000/svg" xmlns:xlink="http://www.w3.org/1999/xlink" x="0px" y="0px"
	 viewBox="0 0 150 188.3" style="enable-background:new 0 0 150 188.3;" xml:space="preserve">
<style type="text/css">
	.st0{fill:#FF5722;}
</style>
<path class="st0" d="M149.1,107.6c-3.1-6.6-7.4-9.1-14.4-7.2c-1.7,0.4-3.3,1.9-4.8,3c-1.7,1.2-3.5,2.5-4.9,4.1
	c-2.6,2.9-5.1,5.9-7.5,8.9c-1.2,1.5-2.1,3.1-3.3,4.6c-0.8,1.1-1.8,2-2.8,3.2c-0.4-0.5-0.6-0.7-0.6-0.9c0.2-3,0.2-6,0.6-8.9
	c0.6-4,2.4-7.7,2.6-11.8c0.1-1.3,0.4-2.7,0.8-4c1.7-5.4,3.4-10.8,5.3-16.1c1.4-4.2,2.8-8.4,5.7-11.9c1.6-1.9,2.7-3.9,2.8-6.3
	c0.2-5.6,0.4-11.3,0.3-16.9c-0.1-2-0.7-3.9-1-5.9c-0.5-3.3-2.6-5.8-4.2-8.5c-1-1.7-2.6-3.3-4-4.8c-1-1.1-2.2-1.9-3.4-2.9
	c-2.7-2.3-5.5-4.7-8.3-7c-3.1-2.7-6.2-5.2-9.3-7.9c-2-1.8-4-3.6-5.9-5.4c-2.5-2.3-5.7-3.2-8.7-4.7c-1.4-0.7-2.2-0.3-3.2,1.2
	c-0.2,0.2-0.7,0.4-1,0.4c-3.5-0.1-7,0.4-10.5,1.2c-4.9,1.1-9.2,3.4-12.6,7.1c-0.9,0.9-1.4,2-1,3.2c0.5,1.4,0.7,2.7-0.3,4
	c-0.3,0.4-0.2,1-0.3,1.5c-0.2,2-0.2,3.9-0.6,5.8c-0.4,1.7-0.2,3,0.9,4.3c0.7,0.9,0.7,1.9,0.2,2.9c-0.9,1.9-1.8,3.9-2.6,5.9
	c-0.7,1.6,0.1,2.7,1.8,2.8h1.9c-0.3,1.6-0.6,3,1.5,3.2c-0.2,0.7-0.3,1.3-0.5,1.8c2,1.3,2,1.3,2,3.6c0,2,1.3,3.2,3.2,3.2h5
	c0.4,0,0.9,0.1,1.4,0.2c0.1,0.1,0.1,0.3-0.5,0.6c-0.2,0-0.3,0.2-0.5,0.2c-1.7,0.4-3.4,0.8-5,1.3c-4.2,1.4-8.6,1.8-13,2.2
	c-1.6,0.1-3.3,0.5-4.8,1.2c-1.2,0.5-2,1.8-3,2.8c-3.7,3.7-5.3,8.5-7.4,13.1c-1.3,2.9-2.2,6.1-3.8,8.9c-3,5.6-8,9.3-12.6,13.4
	c-2.1,1.8-4,3.8-5.7,6c-1.3,1.6-2.1,3.6-3.3,5.4c-1.1,1.7-2.3,3.4-3.6,4.9c-2.6,2.9-3.9,6.3-4.9,10c-1.3,4.9-2.4,9.6-1.4,14.7
	c0.6,2.8,1.2,5.4,3.8,7c0.8,0.5,1.7,0.7,2.5,1.2c1.8,1,3.3,2.6,5.5,2.8c0.2,0,0.4,0.2,0.5,0.3c2.7,2.6,5.5,5.1,8.1,7.8
	c2.8,2.9,5.4,6.2,8,9.3c1.5,1.8,3.1,3.6,4.4,5.6c2,2.9,4.3,5.4,7.1,7.5c4.3,3.2,9.4,5.2,14.5,6.7c3.1,0.9,6.5,0.9,9.7,1.2
	c3.5,0.4,7.1,0.7,10.6,1c1.5,0.1,2.9,0.3,4.3,0.1c1.3-0.3,2.4,0.7,3.8,0.4c4-0.8,8.2-1.1,12.3-1.6c1.4-0.1,2.8-0.4,4.2-0.6
	c1.5-0.2,2.9-0.4,4.4-0.5c1.3-0.1,2.6,0.2,3.9,0c1.8-0.3,3.7-0.3,5.4-0.8c3.4-1,6.8-2.3,10.2-3.2c3.4-0.9,4.5-3.7,5.9-6.3
	c1.3-2.4,2.4-4.9,3.5-7.5c0.9-2.3,1.7-4.6,2.4-6.9c0.7-2,1-4.2,1.8-6.1c2.1-4.7,4.6-9.2,6.5-14c1.6-3.8,2.6-7.9,3.8-11.9
	c1.6-5.5,2.5-11.2,2.6-16.9C149.6,110.5,149.7,108.8,149.1,107.6z M113.6,124.7c0.4-0.3,0.8-0.7,1.2-1c0.3-0.3,0.6-0.7,0.9-1
	c0.1,0.1,0.2,0.1,0.3,0.2c-0.7,1.9-1.5,3.7-2.4,5.6C111.7,126.4,111.7,126.1,113.6,124.7z M82,12.6c2.5-0.5,5.1-1,7.7-1.4
	c0.6-0.1,1.2,0.1,1.8,0.2c-0.6-1.8-1.9-2.2-3.4-2.3c-2.2-0.1-4.3-0.7-6.4-1.2c-0.4-0.1-0.7-0.6-1-1c0.4-0.2,0.8-0.5,1.2-0.5
	c1.9-0.1,3.7-0.1,5.6-0.2c0.1-0.2,0.1-0.4,0.2-0.6C86.2,4.4,84.6,3.2,83,2c0-0.1,0.1-0.2,0.1-0.3c0.3,0,0.7,0,1,0.1
	C86.7,3.3,89.7,4,92,6.1c1.7,1.7,3.5,3.3,5.3,4.9c2.7,2.5,5.5,4.9,8.3,7.3c3.3,2.8,6.7,5.6,9.9,8.4c2.1,1.7,4.2,3.5,5.9,5.6
	c1.6,2,2.7,4.3,4,6.5c0.4,0.6,0.5,1.4,0.8,2.5c-1.7,0.4-3.6,0.9-5.4,1.4c-1.4,0.4-2.7,0.7-4.1,0.9c-1.3,0.1-2.7,0.2-4,0.1
	c-0.8,0-1.8-1.9-2-3c-0.5-3.6-1.3-6.9-4.3-9.5c-1.6-1.5-2.8-3.6-4-5.5c-0.6-0.8-1.1-1.3-2.1-1l-3,0.9c-0.9,0.3-1.7,0.6-2.5,0.7
	c-0.6,0.1-1.2-0.3-1.8-0.5c0.3-0.6,0.5-1.3,1-1.7c0.8-0.7,1.8-1.2,2.7-1.7c0.4-0.2,0.8-0.5,1.5-0.9c-0.5-0.2-0.8-0.3-1-0.3
	c-3.5,0.6-6.9,1.3-10.4,1.8c-0.9,0.2-2.1-0.1-2.9-0.6c-1-0.6-0.5-1.3,0.3-1.7c0.7-0.3,1.5-0.4,2.3-0.6c2.4-0.7,4.8-1.3,7.1-2.1
	c0.4-0.1,0.6-0.8,1-1.3c-1.2-0.9-2.4-1.6-4-1.5c-2.8,0.1-5.5,0.2-8.3,0.3c-1.1,0-1.9-0.4-2-1.4C80.1,13,81.2,12.8,82,12.6z
	 M109.9,50c0.1,0.5-0.2,1.1-0.3,1.6h-0.4c-1.3-2.1-2.5-4.1-2.9-6.6c-0.6-3.1-1.5-6.1-2.3-9.2c-0.3-1-0.4-1.9-0.5-2.9
	c-0.1-0.3,0.2-0.8,0.4-0.8c0.3-0.1,0.8,0,1,0.2c2,1.9,3.3,4.2,3.6,7c0.2,1.9,0.7,3.5,1.9,4.9c1,1.1,1.2,2.1,0.1,3.3
	C109.9,48.2,109.8,49.1,109.9,50z M63.1,51.2c-1.5-0.2-2.2-1-2.1-2.4c0.1-1.7-0.2-3.2-2.2-4c0.5-0.7,1-1.1,1.2-1.7
	c0.2-0.4,0.1-1,0.1-1.5c-0.4,0.1-0.8,0.2-1.2,0.4c-0.3,0.2-0.6,0.5-1.2,0.6c0.2-0.8,0.3-1.6,0.6-2.3c0.7-1.5,0.6-2.3-0.9-3.7
	c-0.1,0.7-0.1,1.1-0.2,1.5c-0.1,0.5-0.2,1.2-0.4,1.3c-0.7,0.2-1.4,0.2-2,0c-0.3-0.1-0.5-1-0.4-1.4c0.9-2.4,1.8-4.6,3.9-6.3
	c0.9-0.7,1.9-1.6,1.7-3.5c-0.8,0.9-1.5,1.5-2.2,2.2c-0.7-1.3-1.3-2.4-1.8-3.5c1.7-1.1,3.4,1.1,5-0.4c-1.4-1.7-3.3-1.5-5.2-1.4
	c0.5-2.9,0-5.9,1.8-8.4c0.2-0.2,0.5-0.5,0.7-0.5c0.2,0,0.4,0.4,0.6,0.6c0.6,0.8,0.7,1.7,0.5,2.7c-0.1,0.4,0.4,1.1,0.7,1.5
	c0.8,1,1.5,2,2.5,2.7c2.8,2,4.3,5.1,6.1,7.9c2.6,3.9,5,8,8.6,11.1c0.4,0.3,0.8,0.6,1.3,0.9c1,0.5,1.9,1.1,1.7,2.5
	c-0.1,0.2,0.2,0.5,0.4,0.8c-2.8,1.5-5.6,3.1-8.4,4.6c-0.2,0.1-0.5,0.2-0.7,0.2C68.8,51.6,65.9,51.4,63.1,51.2z M14.8,103.7
	c2.8-3.4,5.9-6.6,9.4-9.4c5.2-4.1,9.3-9,11.7-15.3c1.6-4.2,3.5-8.2,5.4-12.3c1.4-3.1,3.9-5.4,6.4-7.7c0.5-0.5,1.6-0.5,2.4-0.6
	c4.5-0.5,9.1-0.7,13.4-2.2c0.8-0.2,1.7-0.4,2.5-0.4c2.3,0,4-1.4,5.9-2.4c1.9-1.1,3.9-2.1,5.9-3.1c1.5-0.9,3.1-1.7,4.7-2.5
	c2.1,3.5,3.9,6.7,5.9,10c0.8,0,1.3-0.6,0.9-1.5c-0.7-1.5-1.6-3-2.3-4.6c-0.4-0.8-0.7-1.6-1-2.5c4.6,1.6,8.9,3.4,13.6,4.3
	c2.9,0.7,6,0.4,9,0.7c2.1,0.2,4.2,0.6,6.4,0.8c0.4,0,0.9-0.3,1.4-0.4c-0.2-0.4-0.4-1-0.7-1.2c-0.8-0.3-1.6-0.5-2.5-0.6
	c-1.4-0.1-1.8-0.6-1.9-2c-0.2-2,1.4-3.2,2.1-4.8c0.1-0.2,0.4-0.2,0.6-0.3c3-0.8,5.9-1.7,9-1.7c1.1,0,2.2-0.6,3.3-0.9
	c1.4,3,1.3,6.2,1.2,9.4c-0.1,3.5-0.4,7-0.5,10.5c-0.1,2-0.4,3.8-1.8,5.2c-2.4,2.5-3.6,5.7-4.8,8.8c-1.1,2.8-2.4,5.6-3.4,8.5
	c-0.5,1.6-0.7,3.2-1.2,4.8c-0.9,2.8-1.8,5.5-2.7,8.3c-0.4,1.1-0.7,2.2-0.7,3.3c0,1.3-0.4,1.9-1.6,2c-3.4,0.4-6.9,0.9-10.3,1.2
	c-2.5,0.2-5.1,0.2-7.6,0.3c-0.3,0-0.8,0.1-0.9-0.1c-1.1-1.5-2.7-1.5-4.4-1.6c0.1-7.9,2.2-15.8,1-23.7h-0.5c-0.1,1.7-0.1,3.3-0.3,5
	c-0.5,4.8-1,9.7-1.5,14.5c0,0.6-0.1,1.1,0,1.7c0.4,2.3-0.9,3.1-2.7,4.2c-1.9,1.1-3.4,0.3-5,0.2c-5.2-0.2-10.3-0.8-15.4-1.2
	c-2.3-0.2-4.6-0.5-6.9-0.7c-1.1-0.1-1.3-0.7-1.4-1.7c-0.4-5.3-1.6-10.4-3.6-15.4c-0.5-1.3-1.4-2.4-2.3-3.4c-0.8-0.9-2-1.3-3.3-0.2
	c2.2,1.1,1.1,2.6,0.3,4c-2.2,3.9-4.4,7.8-6.8,11.6c-0.8,1.3-2.1,2.3-3.1,3.5c-1.7,1.9-3.1,4-4.9,5.8c-2.5,2.4-5.2,4.6-7.8,6.9
	c-0.3,0.3-1,0.4-1.3,0.3c-2.3-1-4.6-2.1-6.9-3c-1.5-0.5-3.1-0.7-4.7-1C11.9,108.7,13,105.9,14.8,103.7z M84.8,111
	c-0.1,1-0.2,2-0.3,3C83.2,113.3,83.3,112.6,84.8,111z M54.5,137.2c-0.3,1.5-0.9,2.9-1.5,4.7c-0.5-0.7-1-1.3-1.6-2
	c-1.8-1.6-3.7-3.1-5.4-4.8c-3.9-3.9-7.4-8.2-11.4-12c-1.9-1.8-4.4-3-6.6-4.5c-1.5-1-3-1.9-4.8-3.1c0.7-0.5,1-0.7,1.4-0.9
	c3.4-1.5,6.3-3.7,8.8-6.3c1.2-1.2,2-2.7,3-4.1c0.7-1,1.3-2.1,2.2-2.8c2.9-2.4,4.4-5.8,6.2-8.9c1.2-2,2.3-4.2,3.5-6.5
	c1.5,1.9,2,4.1,2.5,6.1c2,7.9,2.9,16,3.2,24.1c0.1,2.7,0.7,5.4,1,8.1C55.6,128.7,55.5,133,54.5,137.2z M2.2,136.8
	c-1-3.3-0.9-3.6,1.3-3.6c0.5,1.1,1,2.3,1.5,3.6H2.2z M3,139.3c-0.2-0.2-0.2-1-0.1-1c0.7-0.2,1.4-0.4,2.1-0.4c0.3,0,0.7,0.4,0.9,0.8
	c0.2,0.6,0.3,1.2,0.5,1.9C4.9,140.9,3.9,140.2,3,139.3z M5.1,142.3c2.5-0.5,3-0.1,4.8,2.6C8.7,145.7,7,144.8,5.1,142.3z M57.5,183.7
	c-2.4,0.5-4.3-0.8-6.5-1.5c-3.7-1.2-6.9-3-9.9-5.3c-2.6-1.9-5.3-3.9-6.9-6.9c-0.6-1.2-1.6-2.1-2.5-3.1c-4.5-5.3-8.9-10.7-13.5-15.9
	c-1.4-1.6-3.1-2.9-4.2-4.8c-0.4-0.7-1.4-1-2-1.6c-0.7-0.6-1.3-1.3-1.8-2.1c-2.5-4.1-4.7-8.4-5.7-13.2c-0.1-0.3-0.1-0.6-0.3-0.9
	c-0.3-0.3-0.6-0.5-0.9-0.7c-0.1,0.4-0.4,0.7-0.5,1c-0.2,1.1-0.3,2.1-0.4,3.1c-0.2-0.1-0.4-0.1-0.6-0.1c0.1-0.9,0.2-1.9,0.4-2.9
	c0.7-3.3,1.2-6.6,2.4-9.7c1.4-3.4,4.3-5.4,7.9-5.8c1.2-0.1,3.1,0.9,3.7,1.9c1,1.6,2.7,1.9,3.8,1.9c2.6,0,4.3,1.5,6.3,2.6
	c3.2,1.8,6.1,4.1,8.7,6.7c4.5,4.5,9.1,9,13.9,13.3c3.1,2.8,4.3,6.4,2.8,10.3c-0.8,2-1.3,4.1-2.3,6c-1.6,3.1-1.5,6.5-0.4,9.5
	c1.8,4.9,4.2,9.5,6.6,14.1c0.7,1.3,2.2,2.2,3.4,3.3c0.4,0.3,0.8,0.6,1.1,1.2C59.2,184,58.3,183.5,57.5,183.7z M89.7,184.1
	c-0.1,0.4-0.6,1.1-1,1.2c-0.6,0.2-1.3,0.3-1.9,0.4c0.4-0.3,0.7-0.7,0.9-1.3c0.8-2.1,0.1-5.6,0-7.7c0-1.4,0.3-3.7-0.7-4.9
	c-0.1-0.2-0.3-0.3-0.5-0.4c0.8,0.1,1.6,0.2,2.6,0.3c0.2,2.4,0.5,4.8,0.5,7.2C89.8,180.7,89.8,182.4,89.7,184.1z M107.7,163.7
	c-0.3,0.1-1.1-0.2-1.2-0.5c-1.7-3.9-3.3-7.7-4.9-11.6c-0.3-0.7-0.7-1.3-1.1-2c-0.2,0.1-0.5,0.2-0.7,0.3c1.1,5.2,3.8,9.7,5.9,14.3
	c-3,1.6-6,3.3-9.4,4.1c-5.8,1.4-11.5,0.9-17.3-0.3c-0.7-0.1-0.9-0.3-0.7-1.1c0.6-1.9,1.3-3.9,1.7-5.9c0.4-2.1,0.5-4.3,0.7-6.5
	c0-0.4-0.3-0.7-0.5-1.1h-0.5c-0.3,2.4-0.5,4.8-1,7.2c-0.5,2.4-1.3,4.7-2,7.1c-2-0.5-3.9-1.1-5.8-1.3c-5.6-0.7-10-3.6-14-7.3
	c-2.5-2.3-3.8-5.1-3-8.7c1.1-4.5,1.7-9.2,2.8-13.8c1.3-5.4,0.6-10.7-0.1-16c-0.4-3.4-0.5-6.9-0.8-10.3c-0.1-1.5-0.2-2.9-0.4-4.6
	c4.8,0.8,9.3,1.9,13.8,2.2c4.6,0.3,9.1-0.2,14-0.3c-0.2,0.9-0.2,1.5-0.4,1.9c-1.2,2.2-2,4.4-0.4,6.8c0.1,0.2,0.1,0.5,0.2,0.9
	c1-0.3,2.1,1.4,3.1-0.8c0.2,2,0.3,3.6,0.5,5.2c0.3,2.5,0.9,4.9,1.2,7.4c0.4,3,0.7,6,1.1,8.9c0.5,3.6,1.1,7.3,1.7,10.9
	c0,0.2,0.3,0.4,0.5,0.6c0.1-0.2,0.5-0.5,0.5-0.8c-0.2-2-0.4-3.9-0.7-5.9c-0.4-2.9-0.8-5.8-1-8.8c2.4,2.9,5.8,4.1,8.7,5.9
	c1.3-1.3,1.4-1.7,0.2-2.9c-1.1-1-2.4-1.9-3.5-2.9c-1.6-1.5-3.7-2.6-4.2-5c1.8,2.7,4.8,3.6,7.6,4.8c0.6,0.3,1.3,0.5,2,0.6
	c0.5,0.1,1,0.1,1.4-0.1c0.2,0,0.3-0.7,0.2-0.9c-0.4-0.4-0.8-0.9-1.3-0.9c-2.4-0.2-4.5-1.2-6.3-2.6c-1-0.7-1.9-1.8-2.4-3
	c-1.4-3.3-2.7-6.7-3.8-10.1c-0.4-1.4-0.4-3-0.6-4.5c1.7-0.5,2-0.9,2.3-3.5c1.4,1.8,2.6,3.4,3.8,5.1c1.4,1.9,1.3,4.3,1.8,6.5
	c0.3,1.4-0.1,2.5-0.9,3.5c-0.9,1-0.5,1.5,0.6,1.9c1.3-0.8,2.2-1.9,2.4-3.5c0.4-3.1,0.1-6-1.5-8.7c-1-1.8-1.9-3.6-2.9-5.4
	c6.1-0.7,12.4-1.4,18.8-2.1c-0.3,1.6-0.6,3.1-1.1,4.5c-1.2,3.3-1.5,6.7-1.5,10.2c0,3.1,0.5,6,2.3,8.6c0.9,1.3,1.4,2.8,1.9,4.3
	c1.4,3.8,2.6,7.6,4,11.4c0.9,2.6,0.5,5.2,0.1,7.9C116.7,158.9,112.4,161.5,107.7,163.7z M148.3,115.8c-0.5,4.3-1.4,8.5-2.5,12.6
	c-1,3.9-2.3,7.8-3.7,11.6c-1,2.5-2.2,4.9-3.5,7.3c-3.1,5.9-4.4,12.5-6.9,18.7c-1.4,3.5-3.5,6.7-4.8,10.2c-1.1,3-3.3,3.9-6.1,4.4
	c-1.8,0.3-3.5,1-5.3,1.6c1.5-1.6,3-3,4.5-4.6c3.2-3.8,5.3-8.2,5.1-13.4c-0.2-5-1.4-9.6-3.8-14c-1.2-2.2-1.5-4.9-2.3-7.4
	c-0.3-0.8-0.6-1.7-0.9-2.5c-1-2.9-2-5.7-2.9-8.6c-0.1-0.5,0-1,0.2-1.5c1.4-3.7,3.2-7.2,4.2-11c0.6-2.6,2.4-4.1,3.8-6
	c1.3-1.9,2.9-3.7,4.5-5.4c1.2-1.3,2.8-2.2,4.1-3.5c2.2-2.2,4.8-2.7,7.7-2.7c3,0,4.9,1.7,6.7,3.7
	C149.1,108.4,148.7,112.2,148.3,115.8z M119.4,171.4c0.7-1.3,1.3-2.7,1.8-4.1c0,0.2-0.1,0.4-0.1,0.5
	C120.6,169.2,120,170.3,119.4,171.4z"/>
</svg>
