<?xml version="1.0" encoding="utf-8"?>
<!-- Generator: Adobe Illustrator 19.1.0, SVG Export Plug-In . SVG Version: 6.00 Build 0)  -->
<svg version="1.1" id="Layer_1" xmlns="http://www.w3.org/2000/svg" xmlns:xlink="http://www.w3.org/1999/xlink" x="0px" y="0px"
	 viewBox="0 0 144 205" style="enable-background:new 0 0 144 205;" xml:space="preserve">
<style type="text/css">
	.st0{fill:#FF5722;}
</style>
<g id="sunburn-lady">
	<path class="st0" d="M0,6.5c3.2-0.4,6.4-1,9.6-1.2c3.2-0.2,6.5,0.3,9.7,0.2c3.9-0.1,7.8-0.6,11.7-0.8c3.5-0.2,7.1-0.2,10.7-0.3
		c2.9-0.2,5.7-0.4,8.6-0.8c3-0.3,5.9-0.9,8.9-1.2c2-0.2,4,0.2,6,0c2.1-0.2,4.3-0.5,6.4-1c4.6-0.9,9.2-1.7,13.9-1.2
		c2.1,0.2,4.1,1.2,6.1,2c1.4,0.6,2.2,1.7,2.7,3.2c0.4,0.9,1,1.8,1.7,2.6c1.1,1.3,2.3,2.6,3.4,3.8c0.6,0.6,1,1.4,1.7,1.8
		c2.1,1.5,3.1,3.7,4.4,5.7c0.3,0.5,0.6,1,1,1.5c0.7,1,1,1.9,0.5,3.1c-0.5,1.1-0.8,2.3-1.1,3.5c-0.1,0.2,0.1,0.5,0.2,0.8
		c1.3,3.4,2.5,6.8,2.9,10.4c0.2,2.2,0.3,4.5,0.4,6.7c0.1,4.4,0.3,8.8,0.2,13.2c-0.1,1.6-0.8,3.3-1.5,4.9c-1.1,2.6-2.4,5.1-3.7,7.5
		c-1.7,3.1-1.9,6.4-2,9.7c0,1.2,1.1,2.2,2.3,2.2c0.9,0,1.7,0.1,2.6,0.2c1.9,0.3,3.4-0.8,5.1-1.2c1.5-0.3,2.8-1,4.3-1.3
		c1-0.2,2-0.1,3-0.3c2.9-0.6,5.3,0.6,7.6,2.1c3.7,2.4,7.2,5.1,10.2,8.5c1.6,1.8,3.6,3.1,5.5,4.6c1,0.7,1.4,1.6,1,3.1
		c-3.3-3-6.6-5.8-9.6-8.9c-3.2-3.2-7-5.6-10.9-7.8c-0.9-0.5-2.3-0.2-3.5-0.2c-3.9,0-7.3,2-10.9,2.9c-3.2,0.9-6,2.4-9,3.7
		c-0.7,0.3-1.6,0.4-2.6,0.7c0.6,0.7,1.2,1.3,1.8,2c1.9,2.5,3.9,5,5.7,7.6c2.7,3.8,5.8,7.2,9.5,10c0.4,0.3,0.9,0.7,1.2,1.1
		c3.1,3.6,6.5,7,7.8,11.7c0.6,2,1.4,4,2.2,6.3c0.5-1.1,0.9-2.1,1.4-3c0.5-1,1-1.9-0.4-2.6c-0.2-0.1-0.3-0.3-0.4-0.5
		c-0.8-1.9-1.5-3.7-2.3-5.6c-0.4-1-0.3-1.9,0.8-2.6c0.8,1.9,1.8,3.7,2.5,5.6c0.5,1.5,1.2,2.7,2.5,3.7c4.1,3,7.9,6.3,11.3,10.1
		c0.4,0.5,0.9,1,1.4,1.3c1.4,0.9,1.8,2,1.3,4c-1.2-1.3-2.3-2.4-3.4-3.5c-2-2.2-4-4.5-6.2-6.5c-0.9-0.9-2.2-1.3-3.3-1.9
		c-0.4-0.2-0.7-0.7-1-1c-0.8-0.6-1.4-0.4-1.7,0.5c-0.3,0.8-0.7,1.6-1,2.4c-0.4,1.2-0.8,2.5-1.2,3.7c-0.3,1.2-0.4,2.4-0.9,3.5
		c-1.4,3.3-2,7-4.1,10.1c-1.4,2.1-1.3,4.3-0.9,6.8c0.7,3.7,1,7.6,1.3,11.4c0.7,9,2,17.8,5.6,26.2c1.9,4.5,4.2,9,6.3,13.4
		c0.3,0.6,0.5,1.2,0.8,1.8c-1,0.4-1.4,0-1.8-0.8c-1.8-4-3.8-7.8-5.6-11.8c-2.5-5.8-4.7-11.7-5.4-18.1c-0.7-6-1.2-12.1-1.7-18.1
		c-0.1-1.1-0.3-2.1-0.4-3.2c-0.3-1.9-0.5-3.7-0.8-5.6c-0.1-0.4-0.2-1-0.5-1.2c-1.5-0.9-3-1.9-4.6-2.5c-3.8-1.3-7.6-2.6-11.5-3.6
		c-2.8-0.7-5.7-0.9-8.6-1.2c-7.6-0.8-15.2-1.3-22.8-1.3c-1.2,0-2.4,0.5-3.5,0.6c-8.5,1.2-16.8,3.3-24.8,6.6
		c-0.9,0.4-1.7,0.9-2.4,1.5c-2.1,1.8-4.2,3.5-5.6,6c-0.2,0.4-0.4,1-0.2,1.3c2.8,5.2,3.8,11.1,5.5,16.7c1.1,3.7,1.7,7.4,2.6,11.2
		c0.1,0.5,0.2,1,0.3,1.5c0.2,1.3,0.5,2.5-0.3,3.7c-0.3,0.4-0.3,1-0.4,1.5c-0.5,5.2-2.9,9.7-5.2,14.1c-0.3,0.6-0.7,1.2-1,1.8
		c-0.4,0.9-0.9,1.3-2,0.9c0.6-1.1,1.2-2.3,1.8-3.4c1.8-3.3,3.6-6.7,4.6-10.4c1-4,1.2-8,0.5-12.1c-1-5.3-2.9-10.4-4.1-15.6
		c-1.3-5.4-3.6-10.3-6.5-14.9c-3.5-5.7-6.4-11.8-7.8-18.4c-0.4-1.8-0.6-3.7-1-5.5c-0.7-2.9-1.6-5.7-2.4-8.5c-0.3-1-0.4-2.1-0.7-3.1
		c-0.4-1.2-0.8-2.4-1.3-3.6c-0.9-2-1.6-4.2-2.7-6c-1.7-2.6-3.1-5.4-4.7-8.1C6.2,91,4.3,86.6,2.5,82.1c-0.7-1.8-1.7-3.5-2.5-5.3
		c0-0.7,0-1.4,0-2.2c0.5,0.8,1.1,1.5,1.4,2.3C2.7,79.6,3.7,82.4,5,85c3,6,5.8,12,9.6,17.5c0.2,0.2,0.3,0.5,0.4,0.7
		c1.1,2.5,2.3,4.9,3.2,7.5c0.9,2.5,1.3,5.2,2,7.8c0.4,1.7,1,3.4,1.4,5.1c0.9,3.8,1.7,7.5,2.7,11.3c0.4,1.6,1.2,3,1.8,4.5
		c0.2-1.1,0.2-2.2,0-3.2c-1.2-6.5,0.1-12.5,3.7-18c1.6-2.4,3.4-4.7,4.8-7.2c1.9-3.5,3.5-7.1,5.3-10.7c1.7-3.3,3.6-6.4,6.4-8.8
		c-1.1-1.7-2-3.5-3.2-5.1c-2.5-3.3-5.8-5.7-9.2-8c-1.4-0.9-2.7-2.2-3.5-3.7c-1.3-2.2-2.1-4.7-3.3-7c-2.4-4.3-5-8.4-7.3-12.8
		c-1.7-3.3-3.1-6.8-4.6-10.3c-0.9-2.1-1.7-4.3-2.5-6.5c-1-2.8-2-5.6-2.8-8.5c-0.6-2.1-0.8-4.2-2-6.1c-0.2-0.2,0.1-0.8,0.1-1.1
		c0.3,0.2,0.7,0.3,0.9,0.5c0.4,0.6,0.7,1.2,1,1.9c0.4,1,0.6,2,0.9,3c0.6,2.1,1.3,2.5,3.4,2c1-0.2,1.9-0.6,2.8-0.9
		c5-1.6,10-3.1,14.9-5c5-1.9,9.8-4.1,14.7-6.2c2.5-1.1,4.6-2.6,6.6-4.4c1.4-1.4,3.3-2.4,5.1-3.2c2.6-1.2,5.4-1.4,8.3-1.4
		c4.4,0.1,8.8-0.5,13.2,0.5c1.4,0.3,1.8-0.3,1.4-1.7c-0.3-1-0.6-2.1-0.8-3.1c-0.1-0.3,0.1-0.6,0.2-1.2C80.8,3.7,81,3.8,81,4
		c0.4,1.1,0.8,2.3,1.1,3.4c0.3,1,0.9,1.7,1.9,2c1.4,0.5,2.8,1.1,4.3,1.5c0.3,0.1,1-0.4,1.1-0.7c0.3-1-0.4-2-1.5-2.4
		c-0.7-0.3-1.4-0.5-1.9-1c-0.8-0.7-1.6-1.5-1.3-3c0.9,0.9,1.1,2.4,2.6,2.2c0.2-0.4,0.4-0.8,0.7-1.4c0.3,1,0.2,1.9,0.7,2.3
		c1.1,0.9,1.4,2,1.5,3.3c0.2,2.1,1.6,2.8,3.4,3.4c0.6-1.7-1.4-3.2-0.3-5.1c0.5,1.7,1,3.1,1.2,4.5c0.3,1.9,0.5,3.7,2.4,4.7
		c0.4,0.2,0.6,0.8,0.9,1.2c0.3,0.4,0.7,0.7,1,1c0.1-0.1,0.2-0.1,0.3-0.2c-0.7-2.2-1.3-4.5-2-6.7c0.1,0,0.2-0.1,0.4-0.1
		c0.1,0.1,0.3,0.2,0.3,0.3c0.8,2.4,1.6,4.8,2.2,7.3c0.3,1.3,1.2,1.7,2.2,2.2c0.1-0.1,0.3-0.1,0.4-0.2c-0.6-1.9-1.3-3.7-1.9-5.6
		c0.1,0,0.2-0.1,0.4-0.1c0.2,0.3,0.3,0.5,0.5,0.8c0.7,1.5,1.3,3,1.9,4.5c0.5,1.1,0.9,1.2,2.2,0.6c-0.4-0.8-0.8-1.7-1.3-2.5
		c-1-1.5-2-3.1-3.2-4.5c-1-1.3-2.3-2.3-3.4-3.5c-0.8-0.8-1.6-1.7-2.3-2.6c-0.9-1.1-1.7-2.2-2.5-3.3c-0.5-0.6-0.6-1.6-1.2-2
		c-2-1.6-4.4-2.4-6.9-2.7c-1.6-0.2-3.2-0.1-4.8,0c-2.4,0.2-5,0.2-7.3,0.8c-2.4,0.6-4.8,1.2-7.2,1.3c-0.7,0-1.5,0.4-2,0.2
		c-1.7-0.8-3.3-0.3-4.9-0.1c-4.3,0.6-8.7,1.4-13,1.8c-4,0.3-8,0.2-12,0.3c-0.6,0-1.1,0-1.7,0.1c-3.4,0.3-6.8,0.8-10.2,0.9
		c-3.1,0.2-6.2,0.1-9.2,0C8.2,6.6,4.1,6.6,0,7.9C0,7.4,0,6.9,0,6.5z M85.7,136.6c-0.2-1-0.4-2-0.5-2.9c-0.1-2.7-0.1-5.4,0-8.1
		c0.2-5.8,1.9-11.1,5.9-15.5c1.1-1.2,2.2-2.4,3.1-3.7c2.2-3.1,3-6.4,1.6-10.2c-0.7-1.9-2.3-2.9-3.6-4.3c-0.2-0.2-0.8,0-1.2,0.1
		c-1.5,0.6-2.8,1.6-4.3,2c-3.9,0.9-7,3.3-10.2,5.5c-0.3,0.2-0.8,0.2-1.2,0.4c0.2-0.4,0.2-1,0.5-1.2c2.6-2,5.2-4,8.4-5.1
		c1.1-0.4,2.3-0.8,3.4-1.2c0.8-0.3,1-0.9,0.6-1.8c-0.3-0.7-0.7-1.4-0.7-2.1c-0.2-2.8-0.6-5.5-0.4-8.3c0.2-3.7,0.9-7.4,1.3-11.2
		c0-0.4,0-0.8,0-1.7c-10.4,8.9-20.9,9.2-31.3,1.2c0,1.9,0,4,0,6c0.1,3.9,0.5,7.8-0.4,11.6c-0.4,1.6-1.1,3.1-1.9,4.6
		c-0.8,1.5-0.7,1.9,1,2.5c0.4,0.1,0.8,0.3,1.2,0.5c2.6,1.1,5.1,2.2,7.7,3.4c1.5,0.7,3,1.7,4.4,2.6c0.3,0.2,0.3,0.8,0.5,1.2
		c-0.4-0.1-0.8-0.1-1.1-0.3c-1.9-0.9-3.7-2-5.6-2.9c-1.3-0.6-2.6-1.1-4-1.7c-1.4-0.6-2.9-1.1-4.4-1.6c-0.9-0.3-1.6-0.1-2,0.9
		c-0.4,1.2-1,2.4-1.3,3.6c-0.2,0.8-0.2,1.8,0.1,2.6c1.2,3.6,3.7,6.2,6.7,8.2c2.2,1.5,3.9,3.4,5.2,5.5c3.9,6,6.1,12.5,6.1,19.7
		c0,1.1,0.4,1.4,1.5,1.4c3.7,0.1,7.4,0.2,11,0.3C83,136.6,84.3,136.6,85.7,136.6z M94,50.5c-0.1-0.5-0.2-1-0.2-1.3
		c0.1-1.3,0.4-2.6,0.3-3.9c-0.1-2.9,0-5.9-0.7-8.8c-1-4.3-3.3-8.1-5.8-11.7c-2.9-4.2-7.3-6.2-12-7.6c-1.6-0.5-3.3-0.6-4.8-1.1
		c-2.6-1-4.9-0.5-6.9,1.1c-1.9,1.5-3.8,3.2-5.4,5c-2.3,2.6-4.2,5.6-4.7,9.1c-0.4,2.6-0.5,5.2-0.7,7.7c-0.2,2.4-0.5,4.8-0.7,7.2
		c-0.1,0.9-0.1,1.8-0.2,2.8c-2-0.3-3.2,0.6-3.2,2.4c0,0.9,0.3,1.9,0.5,2.8c0.3,1.2,0.7,2.5,0.9,3.7c0.2,1.2,0.8,1.8,1.8,1.6
		c0.8-0.2,1.2-1,1.1-2.1c-0.1-0.4,0-0.8,0-1.2c0.2,0,0.3,0,0.5,0c0.2,0.9,0.2,1.8,0.5,2.7c0.6,2.1,1.4,4.2,1.9,6.3
		c0.3,1.3,1.2,2.3,2.2,3c3.3,2.6,6.9,4.5,11.2,4.6c0.5,0,0.9,0.2,1.4,0.2c1.3,0,2.5,0.1,3.8,0c3.2-0.3,5.9-2.1,8.7-3.5
		c3.2-1.6,5.6-3.8,6.7-7.4c0.5-1.7,1.3-3.3,2-4.9c0.1-0.2,0.5-0.4,0.8-0.5c0.1,0.4,0.3,0.8,0.2,1.1c-0.7,1.2-0.2,2.3,0.4,3.3
		c0.2,0.4,0.8,0.8,1.1,0.7c0.5-0.2,1.1-0.7,1.2-1.1c0.2-1,0.1-2.1,0.1-3.2c-1.4-0.2-1.7-0.6-1.4-2c0.2-0.8,1.1-1.5,0.2-2.3
		c0,0,0.2-0.4,0.3-0.6c0.3-0.3,0.6-0.5,0.9-0.8c0.6-0.6,1.1-1.4,0.4-2.1c-0.7-0.7-1.3,0.1-1.8,0.6C94.4,50.3,94.3,50.3,94,50.5z
		 M33.2,151c0.5-0.8,0.9-1.5,1.4-1.9c1.1-0.9,0.7-1.8,0-2.6c-0.3-0.3-0.6-0.5-0.8-0.9c-1-1.4-2.1-2.9-3.1-4.4c0,0,0.1-0.2,0.2-0.4
		c1.8,2.1,3.6,4.2,5.5,6.5c4.9-5.4,11.8-6.6,18.4-8.4c-1.1-1.1-2.1-2.2-3-3.3c0.1-0.1,0.2-0.3,0.3-0.4c0.4,0.2,0.9,0.3,1.1,0.6
		c0.7,0.7,1.3,1.6,1.9,2.3c0.2,0.2,0.6,0.6,0.8,0.6c1.1-0.1,2.1-0.3,3.2-0.5c0.7-0.2,1.1-0.6,0.9-1.4c-0.3-1.5-0.5-3-0.8-4.4
		c-0.6-2.7-1.5-5.4-3.5-7.5c-0.9-0.9-1.7-1.8-2.5-2.7c0.5,0.1,1,0.3,1.3,0.6c4.1,3.4,5.7,8,6.4,13.1c0.2,1.7,0.1,1.6,1.8,1.5
		c0.9-0.1,1.4-0.4,1.3-1.4c-0.2-2.1-0.4-4.2-0.5-6.3c0-0.5-0.1-0.9-0.1-1.4c0.1,0,0.3,0,0.4,0c1.2,2.7,1.4,5.7,1.3,8.7
		c0.8-0.1,1.4-0.3,2.1-0.3c0.8,0,1.1-0.3,1-1.1c-0.1-1.2,0-2.5-0.1-3.7c-0.7-5.1-2.2-9.9-4.8-14.4c-1.6-2.8-3.7-5-6.2-6.9
		c-2.8-2.2-5.4-4.5-6.8-7.9c-0.6-1.4-0.8-2.8-0.4-4.3c0.5-1.8,0.9-3.6,1.4-5.4c0-0.2,0.2-0.4,0.3-0.5c1.5-0.8,1.9-2.4,2.8-4.1
		c-1,0.5-1.6,0.8-2.3,1.2c-2.3,1.1-4.5,2.3-6.3,4.2c-3.2,3.3-5.1,7.4-7.2,11.4c-2.2,4.1-4.1,8.4-7,12.2c-3.3,4.5-5.3,9.6-4.8,15.3
		c0.3,3.6,0.8,7.2,1.9,10.8C29.7,146.3,31.4,148.5,33.2,151z M49.2,20c-1.6,0.3-3.1,0.3-4.4,0.8c-3.4,1.2-6.8,2.4-10.2,3.8
		c-6.9,2.8-13.9,5.6-21.3,6.9c-1,0.2-1.3,0.6-0.9,1.5c0.9,2.4,1.6,4.8,2.6,7.2c1.8,4.3,3.3,8.7,5.5,12.7c3.8,6.9,7.9,13.6,11.1,20.8
		c0.5,1.1,1.5,2.1,2.5,2.9c1.9,1.4,4,2.6,6,3.8c1.3,0.8,2.6,0.6,3.2-0.8c0.6-1.3,1.3-2.7,1.4-4c0.3-4.4-0.3-8.8-1.3-13.1
		c-0.8-3.7-1.1-7.6-1.6-11.4c-0.4-3.7,0.5-7.2,1.1-10.8c0.3-1.8,1.1-3.5,1.2-5.2c0.2-3,1.1-5.7,2.2-8.4C47.2,24.6,48.1,22.4,49.2,20
		z M90.3,87.6c0.3,0.5,0.4,1,0.7,1.4c1,1,2,2,3,3c2.1,2.1,3.8,4.5,3.7,7.8c-0.1,3.3-1.4,5.9-3.5,8.4c-2.1,2.5-4.8,4.5-5.4,8
		c0,0.2-0.2,0.3-0.3,0.5c-0.4,0.7-0.9,1.4-1.1,2.2c-0.4,2.1-0.9,4.1-1,6.2c-0.3,3.6-0.4,7.3,0.5,10.8c0.1,0.4,0.3,0.9,0.5,1
		c1.4,0.2,2.8,0.3,4.3,0.4c-0.1-5.7-0.2-11.1,2.4-16.1c0.1,0.4,0.2,0.8,0.1,1.2c-0.4,1.5-1,3-1.1,4.5c-0.3,3.2-0.4,6.4-0.5,9.5
		c0,0.8,0.4,1,1.2,1.1c0.8,0,0.9-0.4,1-1c0.5-4.3,1.3-8.6,2.9-12.6c0.1-0.3,0.4-0.5,0.6-0.7c0.1,0.3,0.3,0.7,0.2,1
		c-0.4,1.6-1,3.2-1.3,4.8c-0.6,2.5-1,5-1.5,7.5c-0.1,0.6-0.1,1.2,0.8,1.3c0.8,0.1,1.1-0.1,1.3-0.9c0.7-2.4,1.6-4.7,2.4-7
		c0.1-0.2,0.3-0.3,0.5-0.4c0.1,0,0.2,0.1,0.3,0.1c-0.5,2.8-2.4,5.3-2.3,7.9c3.2,0.9,6.3,1.6,9.2,2.5c3,0.9,6,2.1,9.2,3.3
		c1.6-1.6,2.8-4,4-6.3c0,3-1.8,5.1-3.5,7.3c0.8,0.5,1.6,1.2,2.2,0.1c0.7-1.1,1.3-2.4,1.8-3.6c0.6-1.4,1-2.9,1.5-4.4
		c0.5-1.6,1-3.2,1.3-4.8c0.5-3.6-0.9-6.9-2-10.2c-0.6-1.7-1.4-3.6-2.7-4.9c-2.3-2.4-3.9-5.5-6.8-7.5c-1.8-1.2-3.2-3-4.7-4.6
		c-1.4-1.5-2.8-3.2-4.1-4.8c-2.3-2.9-4.4-5.9-6.7-8.8C95.6,88.5,93.1,88,90.3,87.6z"/>
	<path class="st0" d="M89.3,188.2c0,1.8-0.8,2.8-2.3,2.8c-1.4,0-2.3-1-2.3-2.5c0-1.3,1.2-2.7,2.2-2.7
		C88.4,185.7,89.3,186.6,89.3,188.2z"/>
	<path class="st0" d="M62,57.8c1.9-1,3.6-2.4,5.4-2.8c1.9-0.3,4.2-1,6.1,0.4c1.5,1.1,3.1,2.1,4.5,3.2c0.1,0.1,0.1,0.8-0.1,1
		C76,61,73.8,62,71.2,61.8C67.1,61.6,65.3,60.8,62,57.8z M63.4,57.8c4.6,0.3,9.1-0.7,13.6,1.1C73.8,54.6,68.3,53.8,63.4,57.8z
		 M76.7,59.6c-2.4-1-9.1-1.5-12.5-0.9C66.1,61.6,73.4,62.1,76.7,59.6z"/>
	<path class="st0" d="M87.5,42.2c-3.9,0.7-7.6-0.2-11.3-0.7c3.4-2.6,6.9-2.9,10.4,0.1c-1.2-3.3-4.8-3.6-10.4-1.2
		c0.4-1.3,2.8-2.4,5.2-2.5C84.5,37.7,86.3,39.1,87.5,42.2z M80.9,41.5c-0.2-0.5-0.3-0.9-0.4-1.4c-0.9,0.2-1.7,0.4-2.5,0.6
		c0,0.2,0.1,0.4,0.1,0.6C78.9,41.4,79.8,41.5,80.9,41.5z M83.1,41.7c0.3,0,0.6,0.1,0.9,0.1c0.4,0,0.8,0,1.3-0.1
		c-0.4-0.3-0.7-0.7-1.1-1c-0.1-0.1-0.4-0.1-0.6-0.2c-0.1,0.2-0.3,0.3-0.3,0.5C83.1,41.2,83.1,41.4,83.1,41.7z"/>
	<path class="st0" d="M66.9,41.5c0-0.2,0-0.3,0-0.4c-3.1,0-6.2,0-9.7,0c2.8-2.6,5.7-3,9-2.1c-3.2-1.9-6.2-1.2-8.9,1.1
		c-0.1-0.1-0.1-0.2-0.2-0.4c0.6-0.5,1-1.2,1.7-1.4c2.4-1,4.9-1.8,7.3-0.1c0.7,0.5,1.2,1.3,1.6,2c0.2,0.3-0.2,0.9-0.3,1.3
		C67.2,41.5,67,41.5,66.9,41.5z M62.1,40.6c-0.3-1.2-1.2-1.2-2.3,0.1C60.5,40.6,61.3,40.6,62.1,40.6z"/>
	<path class="st0" d="M89.6,35.8c-1-0.4-2-0.8-3-1c-0.9-0.2-1.9-0.3-2.8-0.1c-1.3,0.2-2.5,0.8-3.8,1c-0.9,0.2-1.9,0.1-2.8,0
		c-0.2,0-0.5-0.3-0.5-0.5c0-0.2,0.2-0.5,0.5-0.6c4-1.6,8.1-2,12.1,0.1c0.3,0.1,0.4,0.5,0.6,0.8C89.7,35.6,89.6,35.7,89.6,35.8z"/>
	<path class="st0" d="M54.7,34.7c0.7-0.3,1.3-0.7,2-1c2.4-0.8,4.9-0.7,7.5-0.6c0.2,0,0.3,0,0.4,0.1c0.4,0.3,1.1,0.6,1.1,0.9
		c-0.2,0.9-0.8,0.2-1.2,0.2c-2.9-0.1-5.9-0.7-8.7,0.6c-0.3,0.1-0.6,0.1-1,0.1C54.8,34.9,54.7,34.8,54.7,34.7z"/>
	<path class="st0" d="M51.9,54.9c-1.4,0.1-1.4-0.8-1.6-1.4c-0.3-1.2-0.5-2.4,1.1-3.4C51.6,51.8,51.8,53.4,51.9,54.9z"/>
	<path class="st0" d="M71.9,51.1c0.3,0.2,0.6,0.5,0.9,0.5c0.7,0,1.7,0.2,2-0.2c0.4-0.4,0.5-1.4,0.3-2.1c-0.2-1.1-0.8-2.2-1.2-3.3
		c-0.1-0.2,0-0.3,0.1-0.9c0.3,0.5,0.5,0.8,0.6,1c0.4,1,0.7,2,1.1,3c0.4,1,0.1,2.4-0.7,3.1c-0.7,0.6-2.1,0.5-2.9-0.2
		c-0.2-0.2-0.3-0.4-0.5-0.7C71.8,51.2,71.8,51.1,71.9,51.1z"/>
	<path class="st0" d="M68,45.3c-0.3,0.9-0.6,1.8-1.1,2.6c-0.9,1.6-0.8,3.1,1.8,3.5c0.1,0,0.2,0.1,0.3,0.2c-1.1,0.6-3-0.3-3-1.6
		c0-0.6,0.1-1.2,0.3-1.8c0.2-0.5,0.6-1,0.8-1.6c0.2-0.5,0.4-1,0.5-1.5C67.8,45.2,67.9,45.3,68,45.3z"/>
	<path class="st0" d="M74.1,50.1c-0.6,0.5-0.8,0.7-1.1,1c-0.3-0.4-0.7-0.8-0.9-1.2c0-0.1,0.6-0.7,0.7-0.6
		C73.1,49.3,73.5,49.7,74.1,50.1z"/>
	<path class="st0" d="M69.8,50.1c-0.4,0.2-0.8,0.5-1.2,0.4c-0.2,0-0.7-0.5-0.7-0.7c0.1-0.3,0.4-0.7,0.8-0.9c0.1-0.1,0.5,0.3,0.7,0.5
		C69.6,49.7,69.7,49.9,69.8,50.1z"/>
</g>
</svg>
