<?xml version="1.0" encoding="utf-8"?>
<!-- Generator: Adobe Illustrator 19.1.0, SVG Export Plug-In . SVG Version: 6.00 Build 0)  -->
<svg version="1.1" id="Layer_1" xmlns="http://www.w3.org/2000/svg" xmlns:xlink="http://www.w3.org/1999/xlink" x="0px" y="0px"
	 viewBox="0 0 150 315.5" style="enable-background:new 0 0 150 315.5;" xml:space="preserve">
<style type="text/css">
	.st0{fill:#FF5722;}
</style>
<g id="sunburn-lady-1">
	<path class="st0" d="M29.2,315.5c-0.7-3.3-1.6-6.5-2-9.8c-0.8-6.1-1.2-12.2-1.8-18.4c-0.2-1.6-0.3-3.3-0.5-5.4
		c-0.9,0.7-1.7,1.1-2.1,1.7c-1.2,1.7-2.3,1.3-3.2-0.1c-1.1-1.6-2.1-3.4-2.8-5.2c-1-2.6-1.6-5.4-2.6-8c-0.8-2.1-0.6-4,0.4-5.9
		c1.1-2.2,2.2-4.3,3.2-6.5c1.7-3.8,3.5-7.5,4.9-11.4c0.5-1.4,0.6-3.2,0.2-4.7c-1.5-5.5-3.1-11.1-4.9-16.5c-2.9-8.8-6-17.5-9.1-26.1
		c-1.5-4.2-4-8.2-4.6-12.5c-1.4-8.7-5-17-4.1-26c0.4-4,0.8-7.9,2.4-11.7c1.5-3.7,1.6-7.8-0.4-11.7c-1.1-2.2-1.9-4.7-1.9-7.1
		c-0.1-4,0.3-8.1,0.8-12.1c0.7-4.9,4.5-7.7,8.1-10.3c5.5-3.8,11.8-5.7,18-8c4.3-1.6,8.2-4.3,12.3-6.4c0.5-0.3,1.2-0.4,1.8-0.5
		c2.9-0.7,2.9-0.7,3.9-3.2c1.2-0.2,2.3-0.4,3.4-0.6c0.1-0.2,0.2-0.5,0.3-0.7c-1.1-0.8-2.3-1.6-3.3-2.5c-1.1-1.1-1.9-2.4-2.8-3.6
		c-1.2-1.6-2.9-3.1-3.6-4.9c-2.8-7.6-3.7-15.2-0.4-23.1c1.7-4.1,2-8.9,3.6-13.1c3.2-8.1,6.8-16,10.5-23.9c1.3-2.8,3.1-5.6,5.3-7.9
		C60.4,7,63.3,4.7,66.3,3c1.5-0.8,3.8-0.1,5.7-0.2c0.9,0,2-0.1,2.6-0.6c2.2-2.1,5-1.8,7.5-2.1c3.7-0.4,7,1.4,9.6,3.5
		c4.6,3.8,9.2,7.8,13,12.4c2.7,3.4,4.1,7.8,5.9,11.9c1.8,4.4,3.5,8.8,4.9,13.4c1.4,4.3,2.5,8.7,3.4,13.2c0.3,1.7-0.5,3.5-0.6,5.3
		c-0.2,6.8-0.6,13.5-0.5,20.3c0.1,5.1,2,9.9,4.9,13.9c1.9,2.7,5.2,4.5,8,6.6c1.6,1.2,3.3,2.4,5.1,3.4c1.3,0.7,2.7,1.1,4.1,1.7
		c0.4,0.2,0.9,0.2,1.2,0.5c4.9,4.5,7.8,9.9,8,16.7c0.1,4.8-0.3,9.3-2.1,13.8c-1.5,3.9-0.4,7.7,1.2,11.4c1.9,4.5,2.3,8.9,1,13.7
		c-1.8,6.4-2.8,13.1-4.3,19.6c-1.7,7.6-3.3,15.2-5.2,22.7c-0.6,2.3-1.5,4.6-2.7,6.7c-3.3,5.7-4.3,12.1-6.1,18.4
		c-1.8,6.3,0.6,10.8,4.4,15.3c1.8,2.1,3.6,4.2,3.1,7.5c-0.2,1.2,1.6,2.6,1.8,4c0.5,5.5,0.9,11,0.9,16.5c0,2.1-1.7,3.6-3.7,4.2
		c-1.9,0.6-2.3,1.8-2.2,3.6c0.1,7.1,0.2,14.3,0,21.4c-0.1,4.6-0.9,9.3-1.3,13.9c-0.9,0-1.8,0-2.8,0c0.5-4.5,1.2-9.1,1.3-13.6
		c0.2-8.4,0.1-16.8,0-25.1c0-2.1-0.7-4.2-1.2-6.6c-1,0.7-1.5,1.2-2.1,1.6c-8.5,5.6-17,11.2-25.5,16.7c-5.6,3.6-11.2,7.1-17,10.5
		c-2.7,1.6-3.6,3.8-3.5,6.7c0.1,3.3,0.2,6.6,0.4,9.9c-0.6,0-1.2,0-1.8,0c0-5.4,0-10.7,0-16.1c-0.3-0.1-0.7-0.1-1-0.2
		c-0.3,0.8-0.8,1.6-0.8,2.4c-0.1,4.6,0,9.2,0,13.9c-0.6,0-1.2,0-1.8,0c0-2.8,0.1-5.7,0-8.5c-0.1-4.3-1.4-8.1-5.4-10.2
		c-5.5-2.8-11-5.7-16.7-8c-5.2-2.1-10.7-3.3-15.9-5.2c-3.7-1.4-7.2-3.3-11.4-5.3c-0.1,4.6-0.3,9.1-0.2,13.5c0,1.7,0.5,3.3,0.9,5
		c1.5,6.2,3,12.5,4.5,18.7C32.3,315.5,30.7,315.5,29.2,315.5z M32,189.5c0.1,0.4,0.3,0.8,0.4,1.3c0.4,3.1,0.8,6.2,1.2,9.3
		c0.8,6.2,2.3,12.5,2.3,18.7c0,6.6-1.5,13.3-2.3,19.9c-0.7,5.3-1.3,10.6-2,15.9c-0.5,3.6-0.8,7.1-1.5,10.6c-0.8,3.9-0.1,6.3,3.4,7.2
		c5,1.3,10.2,2.2,15.3,2.9c4.7,0.6,9.5,0.4,14.2,1.1c11.2,1.7,22.1,0.6,32.9-2.6c4.2-1.2,8.5-2.3,12.7-3.5c6-1.8,12.1-3.7,18.1-5.6
		c2.5-0.8,2.9-2.8,2.5-5c-1.2-5.9-2.5-11.8-4-17.6c-0.6-2.4-1.9-4.7-2.4-7.2c-0.9-4-1.2-8.1-2.1-12.1c-1.1-5.1-3-10.1-3.8-15.3
		c-0.5-3.7,0.2-7.6,0.5-11.4c0.1-1.8,0.6-3.7,0.8-5.1c-2.5,1.5-4.8,2.8-7.1,4.1c-3.4,1.9-7.1,2.7-10.9,2.8c-9.3,0.3-18.7,0.6-28,1
		c-2.7,0.1-5.3,0.7-8,0.8c-4.1,0.1-8.4,0.5-12.4-0.2C44.4,198.1,37.4,195.3,32,189.5z M94.7,122.1c4.6-1.4,8.7-2.7,12.9-4
		c1.8-0.5,2.1-1.8,1.7-3.4c-0.9-3.6-1.7-7.3-2.8-10.9c-1-3.1-0.5-7.2-5-8.3c-0.3-0.1-0.5-0.6-0.7-0.9c-0.5-0.5-1-1.1-1.7-1.9
		c-0.2,2.1-0.4,3.8-0.6,5.4c-0.3,0-0.5,0-0.8-0.1C97.5,92.2,97,86.4,97,80.6c0-5.8,0.4-11.5,0.7-17.2c0.2,0,0,0-0.1,0
		c-0.3,0.2-0.6,0.4-0.9,0.7c-2.6,2.9-5.8,3.7-9.6,3.1c-0.6-0.1-1.2-0.2-1.8-0.2c-5.3,0.2-10.7,0.7-16,0.6c-3.5-0.1-7.1-0.4-10.4-3.3
		c-0.3,10.9-0.7,21.5-1,32.1c-0.3,0-0.7,0-1,0c0-2.6,0-5.2,0-7.9c-1.5,0.8-2.7,1.6-4,2.2c-2.4,1.2-4.1,2.9-4.4,5.8
		c-0.2,2.2-0.9,4.4-1.2,6.7c-0.6,4.2-1,8.4-1.4,12.7c-0.1,0.6,0.4,1.6,1,1.9c3.2,1.5,6.4,3.1,9.7,4.3c1.8,0.6,3.8,0.5,5.8,0.8
		c0,0.2,0,0.4,0,0.6c-2.6,1.1-5.4,0.1-7.9-0.6c-2.8-0.8-5.3-2.3-7.9-3.5c-0.2,1.4-0.6,2.7-0.6,4c-0.1,7.3,0,14.6,0,21.8
		c0,0.7,0.2,1.3,0.4,2c0.7,2.4,1.5,4.9,2.1,7.3c1.8,8.3,5.3,15.7,11.6,21.5c4.2,3.9,9.4,5.9,14.9,6.1c2.4-3.2,0.7-7.7,4.1-10.7
		c0.9,2.8,1.6,5.2,2.5,7.5c1.1,2.8,2.2,3.2,5.2,2.3c8.9-2.7,14.6-9,18.1-17.3c1.3-3.2,1.6-6.9,2.1-10.4c0.7-4.8,1.3-9.6,1.6-14.5
		c0.4-6.8,0.5-13.5,0.8-20.4C104.3,120.1,100,122.6,94.7,122.1z M21.4,261.1c0.2-0.1,0.5-0.1,0.7-0.2c0.6,0.9,1.1,1.9,1.8,2.8
		c0.8,1,1.6,2,2.4,3c0.5-1.3,1.4-2.5,1.6-3.8c1.2-7.9,2.2-15.8,3.2-23.7c0.4-3.2,0.4-6.5,1.2-9.6c0.8-3.1,0.3-5.8-0.6-8.6
		c-1.7-4.8-3.8-9.5-3.4-14.8c0.2-2.3,0.1-4.7-0.1-7c-0.2-2.6-0.5-5.3-0.8-7.9c-0.2-2-0.2-4-0.6-5.9c-1.7-7.1-3.4-14.2-5.2-21.3
		c-1.4-5.5,0.1-10.4,3-14.9c0.9-1.5,1.1-2.6-0.1-3.9c-1.2-1.2-2.3-2.5-3.5-3.8c1.4-1,2.1-0.8,2.8,0.4c0.6,1,1.3,2.2,2.2,2.9
		c3.3,2.6,4.1,6.1,3.9,10c-0.1,1.7,0,3.4,0,5.1c1.5-1,2.5-2.1,3.5-3.2c2.4-2.6,4.9-5,7.2-7.7c1.6-2,2.8-4.1,2.7-7
		c-0.2-8.2-0.1-16.4-0.1-24.6c-1.3-1.4-3.9-1.5-4.5-4c1.4,0.7,2.9,1.5,4.2,2.2c1.1-7.2,2.2-14.4,3.3-21.9c-4.2,2-8.4,4.1-12.7,6.1
		c-1.6,0.8-3.2,1.6-4.9,2.3c-5.5,2.4-11.2,4.5-16.6,7.2c-3.9,2-7.5,4.8-8.1,9.5c-0.6,4.4-0.7,9-0.7,13.4c0,1.1,0.8,2.7,1.7,3.3
		c1.5,0.9,1.4,1.9,1.1,3.2c-0.1,0.7-0.3,1.4-0.2,2c0.8,4,0.9,7.9-1.4,11.5c-0.3,0.4-0.4,1-0.5,1.5c-1.1,8.5-0.5,16.8,1.8,25.1
		c0.5,1.9,0.6,3.9,1,5.8c0.3,1.6,0.7,3.2,1.3,4.7c1,2.7,2.3,5.2,3.3,7.9c2.4,6.5,4.6,13,6.9,19.6c2.8,8,5.7,16,8.3,24.1
		c1,3.1,0.2,6.2-1.8,8.9c-0.8,1.2-1.5,2.5-2.1,3.8c-1.8,4.1-3.6,8.2-5.3,12.4c-0.3,0.7-0.7,1.6-0.5,2.2c1.2,3.7,2.4,7.4,3.8,11
		c0.2,0.6,1.1,1.4,1.8,1.4c2,0.1,3.7-3.4,3.1-4.5c-0.9,0.7-2,1.5-3.4,2.6c-0.7-2.1-1.3-3.8-1.7-5.2c0.8-0.8,1.3-1.3,1.9-1.9
		c-0.4-0.3-0.8-0.7-1.3-0.8c-2.5-0.5-2.8-1-1.7-3.6c0.3,0.1,0.5,0.4,0.8,0.4c0.7,0.1,1.4,0.2,2.1,0.2c-0.4-0.6-0.8-1.2-1.2-1.9
		c-0.3-0.5-0.7-1-0.6-1.4C20.7,263.5,21.1,262.3,21.4,261.1z M108,98.2c1.3,5.5,2.7,10.9,4,16.4c1.2-0.5,2.4-1,3.6-1.5
		c0.1,0.2,0.2,0.4,0.4,0.7c-0.6,0.4-1.2,0.8-1.8,1.1c-1.6,0.7-2.5,1.7-2.5,3.7c0.2,8.1,0.3,16.1,0.5,24.2c0,1.5,0.4,3.3,1.2,4.5
		c2.3,3.1,5,6,7.6,8.9c0,0,0.1,0,0.2,0c-1.4-6.1,2.6-15.2,7.2-16.3c0.3,1.7,0,2.9-2,4.9c-1,1-1.1,1.6-0.1,2.6
		c2.7,2.7,3.4,6.2,2.9,9.7c-0.7,4.5-1.9,9-2.8,13.5c-0.5,2.3-0.3,4.9-1.1,7c-1.4,3.5-3.5,6.7-5.1,10c-0.4,0.8-0.5,1.8-0.6,2.8
		c-0.1,1.8,0.3,3.8-0.2,5.5c-1.3,4.6-1,9.2,0.1,13.7c1.1,4.9,2.6,9.8,3.7,14.7c1.1,4.5,1.9,9,2.8,13.5c0.4,1.9,0.8,3.9,1.5,5.7
		c0.7,1.7,1.4,3.6,2.7,4.7c3.4,2.9,3.8,3.4,2.4,7.8c-0.4,1.4-0.7,2.7-1.2,4.4c3.1-1.1,4.9-3.5,4.8-5.7c-0.3-3.7-1.1-7.2-3.7-10.2
		c-2.7-3.2-5.4-6.7-4.6-11.5c0.3-1.6,0.7-3.1,0.9-4.7c0.9-6.1,2.1-12.1,5.5-17.5c1.5-2.4,2.5-5.2,3.2-8c1.4-5.3,2.3-10.6,3.5-16
		c1.7-7.6,3.4-15.2,5.3-22.7c1.6-6.1,1.4-12-1.2-17.8c-1.6-3.6-1.5-7.5-0.2-11c2.1-5.4,2-10.7,1.1-16.1c-0.9-5.7-6.2-11.5-11.5-11.7
		c-3.3-0.1-6-1.3-8.6-3.2c-0.1,0.4-0.2,0.7-0.3,1.2c-0.7-0.8-1.2-1.4-1.7-2c-2.4-2.8-5.7-3.9-9.2-3.8C112.2,99.8,110,100,108,98.2z
		 M102,50.9c-0.1,0-0.2,0-0.4-0.1c0-0.5,0-1,0-1.5c0.4-4.1,1.5-8.1,1-12.4c-0.8-7.6-2.7-14.5-7.5-20.6c-2.7-3.4-5.6-6.2-10-6.9
		c-2.5-0.4-5.1-0.7-7.7-0.7c-2.4,0-4.8,0.3-7,1c-1.7,0.6-3.2,2-4.7,3c-3.7,2.5-6.8,5.4-7.7,10.2c-0.8,4.3-1.9,8.6-2.8,12.9
		c-0.4,1.9-0.7,3.9-1.1,6.1c-2.9-2-3.5-1.9-4.4,0.7c-1.8,5.2-0.6,10.1,2.2,14.7c0.7,1.2,1.9,2.3,3.8,1.3c-0.5-1.8-1-3.6-1.6-5.5
		c2.3,1,2.5,3,2.8,4.8c0.6,3.4,3.1,6.8,6,7.3c2.9,0.5,5.9,1,8.8,1c5.9,0,11.8-0.3,17.7-0.4c4.6-0.1,8.2-2.6,9.7-7.1
		c0.2-0.6,0.7-1.2,0.9-1.5c0.9,1,1.6,2.4,2.2,2.4c2,0,3.1-1.5,3.5-3.9c-1.3,0-2.6,0-3.9,0c-0.1-2,0.1-2.4,1.6-2.8
		c2.3-0.6,3.7-3.3,2.6-5.5c-0.2-0.4-0.8-0.9-1.2-0.9c-0.4,0-0.9,0.5-1.1,0.9C103,48.7,102.5,49.8,102,50.9z M26.7,176.8
		c0.1,0,0.2-0.1,0.2-0.1c0-8.8,0-17.7,0-26.5c-0.2,0-0.4,0-0.6,0c-2.2,4.5-4.3,9-2.5,14.4c0.9,2.6,1.5,5.2,2.1,7.9
		C26.3,173.8,26.4,175.3,26.7,176.8z M124.1,147.4c-3.3,6.2,1.5,10.9,2,16.3C128.6,157.9,128.6,152.5,124.1,147.4z M32.8,217.8
		c0.4-0.1,0.8-0.1,1.1-0.2c-1.3-8.9-2.6-17.9-3.9-26.8c-0.6,0.6-0.8,1.2-0.7,1.8c0.4,5,0.7,9.9,1.3,14.9
		C31.1,210.9,32.1,214.3,32.8,217.8z M138.1,272.5c0.2-0.3,0.5-0.6,0.7-0.8c-1-1.4-1.9-3-3.1-4.2c-0.3-0.3-1.8-0.1-2.2,0.3
		c-0.4,0.5-0.6,2.1-0.2,2.3C134.8,271.1,136.5,271.8,138.1,272.5z M138,266.5c0.2,0,0.4-0.1,0.5-0.1c-0.1-2.9-0.3-5.7-0.4-9.1
		c-1.1,1.8-2.3,3.1-2.6,4.5c-0.2,0.9,1.8,1.6,1.2,3.3C136.7,265.3,137.6,266,138,266.5z"/>
	<path class="st0" d="M82,244.9c-1.8,0-3.5-1.3-3.5-2.6c0-1.3,2.4-3.8,3.5-3.3c1.1,0.5,2.5,1.6,2.8,2.7
		C85.3,243.7,83.9,244.9,82,244.9z"/>
	<path class="st0" d="M86.3,49.4c-6.2,0-11.7,0-17.3,0c-0.1-0.3-0.2-0.5-0.3-0.8c1.7-2.2,3.9-4,6.7-4.4
		C79.6,43.8,83.1,45.6,86.3,49.4z"/>
	<path class="st0" d="M98.3,27.9c-0.6-0.3-1.2-0.3-1.5-0.7c-2.3-3-5.6-3.2-9-3.2c-0.5,0-1.2,0.1-1.6-0.1c-0.6-0.4-1.1-1.1-1.6-1.6
		c0.7-0.3,1.3-0.9,2-1c4.6-0.2,8.8,0.6,11.5,4.9c0.2,0.2,0.3,0.5,0.3,0.8C98.4,27.1,98.3,27.3,98.3,27.9z"/>
	<path class="st0" d="M61.4,24.3C63.3,21.9,69.6,20,72,21c0.5,0.2,1.1,0.8,1.3,1.3c0.1,0.2-0.6,1.1-1,1.2
		C68.8,23.8,65.2,24,61.4,24.3z"/>
	<path class="st0" d="M61.4,31.2C66,30.1,70.5,29,75,27.8c-0.4,2.5-10.6,5.7-13.5,4.2C61.5,31.7,61.4,31.5,61.4,31.2z"/>
	<path class="st0" d="M95,33.1c-3.1-0.4-6.2-0.7-9.3-1.4c-0.7-0.1-1.7-1.5-1.5-2.1c0.3-1.6,1.5-0.5,2.4-0.3c2.4,0.5,4.7,1,7.1,1.6
		c0.7,0.2,1.2,0.7,1.8,1C95.3,32.3,95.1,32.7,95,33.1z"/>
	<path class="st0" d="M73.9,33.7c-0.9,4.6-0.9,4.7-0.1,4.9c0.3-1.1,0.7-2.1,1-3.4c2.8,1.5,0.7,2.9,0.4,4c-0.1,0.3-2.2,0.6-2.9,0.2
		C70.6,38.3,71.2,36.2,73.9,33.7z"/>
	<path class="st0" d="M52.1,42.8c1.2,3.1-0.4,5.1-1.1,7.8C49.4,47.5,50.1,45.3,52.1,42.8z"/>
	<path class="st0" d="M81.8,36c-0.2-0.9-0.3-1.7-0.5-2.6c0.1,0,0.3-0.1,0.4-0.1c0.8,1.2,1.7,2.2,2.2,3.5c0.3,0.8,0.1,2.2-0.5,2.7
		c-0.6,0.6-1.9,0.6-2.9,0.4c0.9-0.7,1.8-1.2,2.5-2C83.2,37.6,82.2,36.5,81.8,36L81.8,36z"/>
	<path class="st0" d="M51.9,55c-0.2-1.4-0.4-2.5-0.6-3.5c0.4,0.1,1.1,0,1.3,0.2C53.2,52.6,54.2,53.7,51.9,55z"/>
	<path class="st0" d="M81.7,35.9c-0.1,0.9-0.2,1.9-0.3,2.8c-0.3,0.1-0.6,0.1-0.9,0.2c-0.3-0.8-0.6-1.5-0.9-2.3
		C80.3,36.4,81.1,36.2,81.7,35.9C81.8,36,81.7,35.9,81.7,35.9z"/>
</g>
</svg>
