<?xml version="1.0" encoding="utf-8"?>
<!-- Generator: Adobe Illustrator 19.2.1, SVG Export Plug-In . SVG Version: 6.00 Build 0)  -->
<svg version="1.1" id="Layer_1" xmlns="http://www.w3.org/2000/svg" xmlns:xlink="http://www.w3.org/1999/xlink" x="0px" y="0px"
	 viewBox="0 0 200 366.1" style="enable-background:new 0 0 200 366.1;" xml:space="preserve">
<style type="text/css">
	.st0{fill:#FF5722;}
</style>
<g id="sunburn-lady3">
	<path class="st0" d="M182.2,366.1c-0.4-1.4-0.6-2.9-1.2-4.3c-3.5-8.2-5.9-16.7-7.4-25.5c-0.7-4.2-2.4-8.2-3.6-12.3
		c-1.5-5.4-2.8-10.9-4.3-16.3c-0.6-2.3-1.5-4.6-1.4-7.1c0.1-1.5-0.4-3-0.6-4.7c-0.4,0.6-0.7,1.2-1.1,1.8c-2.9,4.5-6.3,8.6-10.4,12.1
		c-3.7,3.1-7.6,6-11.4,8.9c-0.5,0.4-1.7,0.5-2,0.1c-0.8-0.8-0.3-1.7,0.5-2.2c2.6-1.8,5.3-3.6,7.9-5.4c5.2-3.6,9-8.5,12.4-13.8
		c1.4-2.1,3-4.2,4.5-6.2c0.1-0.2,0.3-0.3,0.3-0.5c0.6-2.7,1.1-5.3,1.7-8.3c-3.8,3.3-7.4,6.2-10.8,9.3c-4.5,4.1-9.5,7.2-14.8,10
		c-3.7,1.9-7.4,4-11,6c-0.9,0.5-1.7,1.2-2.5,1.8c-0.7,0.5-1.5,1-2.2,0.2c-0.8-0.8-0.3-1.7,0.4-2.3c0.8-0.7,1.8-1.3,2.7-1.8
		c4.5-2.5,9-5.1,13.6-7.5c5.2-2.7,9.7-6.4,14.1-10.2c3.3-2.9,6.5-5.8,9.7-8.9c0.8-0.8,1.4-2.1,1.5-3.3c0.8-6.3,2.7-12.3,4.9-18.3
		c2.9-7.8,5.8-15.6,8.9-23.4c1.6-4,3.4-8,5.1-11.9c0.8-1.8,1-3.7,0.1-5.3c-1.6-3-3.4-5.9-5.5-8.6c-2.4-3-5.2-5.7-7.6-8.7
		c-1.5-1.8-2.7-3.9-3.8-6c-1.5-2.7-2.9-5.5-3.9-8.4c-1.4-3.9-2.2-8.1-3.4-12.1c-1.1-3.8-2.3-7.6-3.6-11.9c-2,2.1-3.6,3.9-5.2,5.7
		c-4.9,5.7-9.4,11.9-15.2,16.9c-3.7,3.2-6.9,6.8-10.6,10c-3.5,3-7.3,5.7-11,8.5c-5,3.8-10,7.6-15,11.4c-3.5,2.6-7,5.3-10.7,7.7
		c-5.8,3.7-11.6,7.3-17.6,10.7c-3,1.7-6.3,2.6-9.4,4c-4.4,2.1-8.6,4.4-13,6.6c-0.7,0.4-1.4,0.7-2.1,0.9c-3.4,1.2-6.8,2.5-10.2,3.7
		c-0.8,0.3-1.6,0.6-2.4,0.6c-1.1,0-1.7,0.5-2.4,1.2c-0.9,0.9-1.3,1.8-0.6,3.2c1.2-0.4,2.5-0.7,3.9-1.2c4.8-1.8,9.7-3.2,14.8-4.1
		c3.7-0.7,7.3-2.5,10.9-3.9c1.8-0.7,3.5-1.8,5.3-2.6c1.2-0.5,2.6-0.6,4-0.9c1.5-0.3,2.5,0.5,3.3,1.7c1.4,2,2.5,4.1,2,7
		c0.7-0.4,1.2-0.6,1.5-0.9c6.7-5.5,13.4-10.9,20-16.5c2.3-1.9,4.3-4.2,6.6-6.2c3-2.5,6.1-4.9,9.1-7.3c0.6-0.5,1.2-1.2,1.8-1.7
		c0.6-0.5,1.1-0.7,1.8,0c0.6,0.6,0.8,1.3,0.1,1.9c-1.3,1.3-2.7,2.6-4.1,3.8c-4,3.4-8,6.7-12,10.1c-4,3.4-8,6.8-11.9,10.2
		c-2.6,2.2-5.1,4.7-7.9,6.7c-3.5,2.5-7.3,5-11.9,4.2c-2.5-0.5-4.8-1.9-7.2-2.8c-0.1-0.1-0.2-0.2-0.4-0.3c-2.2-1.5-4.5-2.4-7-0.6
		c-0.7,0.5-1.8,0.6-2.5,0.8c-0.8,2.9-1.7,5.7-2.4,8.5c-0.3,1.2-0.3,2.4-0.5,3.6c-0.3,2-0.4,4-0.9,6c-1.5,5.7-1.6,11.4-0.9,17.2
		c0.6,5,1,10,0.4,15c-0.1,0.7,0,1.1,0.8,1.2c0.3,0,0.7,0.3,1,0.3c4.2-0.4,8.3,0.5,12.5,0.9c2.2,0.2,4.3,0.6,6.5,0.6
		c4-0.1,8-0.4,11.9-0.6c0.1,0,0.2,0,0.3,0c4.4-1,8.8-2.2,13.3-3c7.9-1.5,14.9-5.2,22-8.7c7-3.5,13.1-8.2,19.1-13.1
		c1.4-1.1,2.9-2,4.4-3c0.9-0.6,1.8-1.3,2.7-1.8c0.4-0.2,1.2-0.5,1.4-0.3c0.3,0.4,0.7,1.2,0.5,1.6c-0.2,0.6-0.7,1.2-1.3,1.5
		c-6,3.3-10.8,8.2-16.4,12.1c-1.8,1.3-3.8,2.3-5.7,3.4c-3.8,2-7.7,4-11.5,6c-4.9,2.5-10.1,3.7-15.5,4.8c-3.9,0.8-7.8,1.9-11.8,2.7
		c-1.9,0.4-3.9,0.3-5.9,0.5c-4.5,0.6-8.9,0.4-13.4-0.2c-3.9-0.5-7.9-0.7-11.9-1c-1.2-0.1-2.3-0.3-3.6-0.5c-1.6,3.9-3.2,7.7-4.7,11.6
		c-3.1,8-6.1,16.1-9.2,24.1c-2.5,6.4-5.3,12.8-7.8,19.2c-1,2.5-1.6,5.1-2.3,7.6c-0.9,0-1.8,0-2.7,0c0.1-0.9,0.1-1.8,0.4-2.6
		c1.4-4.3,2.8-8.6,4.4-12.8c3.3-8.4,6.8-16.7,10.1-25c2.4-6.1,4.4-12.3,7-18.3c2.9-6.6,3.1-13.3,2.1-20.3c-0.8-5.1-0.8-10.1,0-15.2
		c0.4-2.7,1.3-5.4,1.7-8.1c0.6-3.9,1-7.9,2.6-11.6c0.2-0.5,0.2-1.1,0.4-1.8c-0.6,0-1-0.1-1.4,0c-3.3,0.9-6.6,1.8-9.9,2.7
		c-3.5,1-6.9,2-10.4,2.9c-2.2,0.6-4.4,0.8-5.8,3.2c-1.3,2.2-3.5,3.2-6.3,2.7c0,1.5,0,2.8,0,4.1c0,0.8,0,1.7-0.2,2.5
		c-0.8,2.9-1.8,5.7-2.5,8.6c-1.1,4.3-2.3,8.6-3.1,12.9c-0.9,4.8-1.5,9.6-2.2,14.4c-0.7,5.1-1.6,10.1-1.9,15.2
		c-0.4,5.4-0.3,10.8-0.4,16.3c0,0.7-0.1,1.5-0.2,2.2c-0.4,3.8-0.9,7.6-1.3,11.4c-0.3,3.6-0.4,7.3-0.7,10.9c-0.1,1.8-0.5,3.7-0.8,5.5
		c-0.9,0-1.8,0-2.7,0c0.3-1.9,0.7-3.8,0.9-5.8c0.4-4.4,0.4-8.8,1-13.1c1.2-8.9,1.1-17.8,1.5-26.7c0.1-3.4,0.7-6.7,1.1-10.1
		c0.6-4.2,1.1-8.4,1.8-12.6c0.7-4.4,1.5-8.9,2.5-13.2c1.3-5,3-9.9,4.3-14.9c0.6-2.2,0.6-4.6,0.8-7c0-0.3-0.6-0.9-1-1
		c-4.4-0.4-7-4.1-5.9-8c-1.1-1.5-2.5-2.8-3-4.3c-0.6-1.9,1-3.2,2.4-4.6c-2.4-2.2-1.5-4.6-0.3-7.1c0.2-0.3,0.1-0.9-0.1-1.2
		c-2.2-4.5-0.5-7.2,2.1-9.5c1.3-1.2,2.9-2,4.3-3c0.3-0.2,0.6-0.6,0.6-1c0.1-0.7,0-1.4,0-2.1c0.2-7,0.2-14.1,0.7-21.1
		c0.3-4.6,1.2-9.2,1.8-13.8c0.4-3.3,0.5-6.7,1.1-9.9c1-5.4,0.2-11,2.5-16.2c1.9-4.3,4.9-7.9,8.7-10.7c2.5-1.8,5-3.8,7.5-5.6
		c2.8-2,5.8-3.5,9.4-3.7c7.1-0.3,14.1-1,20.9-3.5c4.2-1.6,8.4-3.6,12.7-4.8c5-1.4,9-4.4,13.1-7.2c0.3-0.2,0.7-0.6,0.6-0.9
		c-0.6-2-1.1-4.1-2-6.1c-0.6-1.3-1.9-0.9-3-0.8c-4.3,0.6-8.3,2.1-12.2,4c-6.4,3-12.1-3.1-12-8.1c0-1.9,0.2-3.7-1.6-5.3
		c-1.2-1-0.7-2.8,0.9-3.8c2-1.4,3.8-2.9,4.7-5.4c-1.8-0.5-3.5,0-5.1,0.5c-0.6,0.1-1.1,0.3-1.7,0.3c-2.2,0.1-3.1-0.6-2.9-3.1
		c0.1-1.2-0.5-2.5-1-3.7c-0.2-0.4-1.1-0.7-1.7-0.7c-1.8-0.1-3.6,0.1-5.3,0c-3-0.2-3.9-2.2-3.5-5.6c0.5-3.9,3-6.7,4.3-10.2
		c1.1-2.8,2.1-5.7,2.9-8.5c0.2-0.5-0.2-1.5-0.6-1.9c-1.6-1.7-2.4-3.8-2.4-6.1c0-4.1-0.1-8.3,0.2-12.4c0.2-2.6-0.2-5.3,1-7.8
		c0.2-0.5-0.2-1.4-0.5-2c-0.7-1-1.6-1.9-2.4-2.8c-1.3-1.6-1.5-2.6-0.5-4.4c2.6-4.3,5.9-8.1,10-11.1c1.6-1.2,3.2-2.4,4.5-3.8
		c2.9-3,6.5-4.7,10.2-6.4c4.6-2.1,9.2-4,13.9-5.8c3.8-1.4,7.8-2.1,11.9-2.3c0.9,0,1.9,0.1,2.8,0c4.7-0.5,9,0.7,13.3,2.3
		c1,0.4,2.2,0.4,3.2,0.9c2.7,1.3,5.3,2.6,7.9,4c1.1,0.6,2.1,1.5,3.3,2c2,0.8,3.5,2.2,5,3.8c1.6,1.8,3.4,3.4,4.9,5.3
		c1.1,1.3,1.8,2.8,2.8,4.1c1.1,1.6,2.2,3.2,3.4,4.6c1.9,2.2,2.8,4.8,3.5,7.5c1.1,4.3,2.3,8.5,3.4,12.8c0.4,1.8,0.7,3.6,0.8,5.5
		c0.1,0.8,0.3,1.2,1.1,1.4c0.7,0.1,1.3,0.5,1.9,0.8c1.7,0.7,3.3,1.6,5,2c4.1,0.8,7.2,3,9.8,6.1c1.8,2.2,3.6,4.4,5.4,6.6
		c2.6,3.2,3.3,7.1,3.8,11.1c0.2,2,0.6,4,0.9,5.9c0.5,3.3,1,6.7,1.5,10c0.6,4.1,1.2,8.1,1.7,12.2c0.2,1.8,0.2,3.5,0.4,5.3
		c0.3,3.6,0.7,7.1,1.1,10.7c0.2,2.4,0.6,4.9,0.7,7.3c0.2,6.7,2,13,4.2,19.2c1.8,5.1,3.4,10.2,4.7,15.4c1.1,4.7,1.6,9.6,2.4,14.4
		c0.4,2.2,0.9,4.4,1.5,6.5c0.9,3.2,1.1,6.4,1.1,9.8c0,4.2,0.2,8.5,0.3,12.7c0.1,6.2-2.4,11.5-6.2,16.3c-0.9,1.1-1.5,2.3-3.3,2.4
		c-0.7,0-1.2,1.3-1.9,1.9c-0.4,0.3-1.1,0.7-1.5,0.6c-0.3-0.1-0.5-0.9-0.7-1.4c-0.2-0.6-0.4-1.2-0.9-1.8c-0.9,2.2-1.8,4.4-2.7,6.7
		c-2.1,5.7-4.1,11.5-6.2,17.2c-2.2,6.1-4.9,12-6.1,18.4c-0.5,2.5-0.7,5-1,7.6c-0.5,3.5-1.1,6.9-1.5,10.4c-0.4,2.8-0.6,5.7-0.9,8.5
		c-0.1,1-0.2,2-0.3,2.9c-0.3,2.4,0.8,4.5,1.5,6.7c1.5,5.2,2.6,10.6,4.6,15.7c2.9,7.7,4.1,15.8,6.1,23.7c1.7,6.7,3.6,13.3,5.3,19.9
		C183.6,366.1,182.9,366.1,182.2,366.1z M105.9,74c1.4,0.7,2.5,0.9,3.7,0c1.6-1.2,3.2-2.4,4.7-3.7c0.4-0.4,0.7-1.5,0.5-1.7
		c-1.5-1.8-2.7-3.9-5.6-3.6c-1.4,0.2-2.2-0.8-2.4-2.2c-0.2-1.5,0.2-2.6,1.2-3.7c1.8-1.8,3.7-3.1,6.2-2.5c1.1,0.3,2,1.1,2.9,1.7
		c0.2,0.1,0.1,0.9-0.1,1.3c-0.1,0.2-0.8,0.2-1.1,0c-2.9-1.9-5.2-1.5-7,1.4c-0.2,0.4-0.3,1.1-0.1,1.5c0.1,0.3,0.8,0.5,1.2,0.4
		c1.6,0,2.9,0.5,3.9,1.7c0.6,0.7,1.2,1.3,1.9,1.9c1.8,1.4,1.3,3.6,0.1,4.9c-1.1,1.1-2.2,2.3-3.5,3.2c-1.9,1.4-4,2.5-6.6,1.6
		c-0.4-0.1-1,0.1-1.4,0.4c-1.5,1.4-1.3,3.2-1.3,5c0,1.3,0.8,1.8,1.9,1.6c3.8-0.4,7.1-2.1,9.2-5.2c2.2-3.2,4-6.6,5.8-10.1
		c0.7-1.3,1.3-2.8,1.4-4.3c0.1-2.7-1.2-5.1-2.5-7.4c-0.5-0.8-1.2-1.5-1.9-2c-2.1-1.5-4.4-1.1-6.2,0.2c-2.4,1.7-4.4,4-6.8,5.9
		c-2.2,1.8-4.6,3.5-6.9,5.2c-0.6,0.5-1.3,0.9-1.8,1.5c-1.5,1.6-3.9,1.7-5.3-0.1c-1.2-1.5-2.2-3.1-3-4.8c-1.2-2.6-2.5-5.1-5.2-6.3
		c-2.9-1.2-6-1.9-8.8-3.2c-3.6-1.6-7.1-3.3-10.4-5.3c-3.5-2.1-7.2-3.8-9.9-7c-0.1,0-0.2,0.1-0.4,0.1c-0.2,5.6-0.4,11.1-0.6,16.9
		c0.6-0.1,0.8-0.2,1.1-0.2c2.5-0.1,5-0.2,7.4-0.2c0.5,0,0.9,0.8,1.3,1.2c-0.5,0.2-1.1,0.7-1.6,0.6c-2.4-0.1-4.5,0.3-6.4,2.1
		c-1.1,1-1.2,1.6-0.1,2.6c1.1,1,1.8,2.2,1.5,3.8c-0.2,1-0.3,2-0.7,3c-1.4,3.4-2.8,6.8-4.5,10c-1.3,2.4-2.1,4.9-2.3,7.5
		c0,0.5,0.3,1.3,0.7,1.6c0.3,0.2,1.1,0,1.5-0.2c2.3-1.4,3-1.3,4.8,0.5c0.9-0.8,1-2,0.2-2.8c-0.3-0.3-0.3-0.8-0.5-1.2
		c0.4,0,1-0.1,1.3,0.1c1.1,0.5,1.4,2,1.1,3.6c-0.1,0.4,0.1,1.1,0.4,1.4c1.3,1.5,2.1,3.2,1.8,5.2c-0.2,1.3,0.3,1.7,1.6,1.4
		c1.9-0.5,3.7-1,5.6-1.5c-0.2-0.2-0.5-0.5-0.6-0.8c-0.2-0.4-0.3-0.9-0.4-1.4c0.5,0.1,1.2,0.1,1.5,0.5c1.3,1.8,2.5,3.7,3.6,5.7
		c0.1,0.2-0.1,0.7-0.1,1.1c-0.4-0.1-0.7,0-1.1-0.2c-0.3-0.1-0.4-0.4-0.5-0.5c-2,2-3.9,3.9-5.9,6c2.6,1.4,2.1,4,2.1,6.4
		c0,0.1,0,0.3,0,0.4c0.8,4.1,4.4,8,9.4,6.1c3.9-1.5,7.6-3.8,12-4c1.7,0,3.3,0,5.2,0c0.4-1.4,0.9-3.1,1.6-4.8
		c0.2-0.4,0.8-0.6,1.2-0.9c0.1,0.5,0.4,1.1,0.2,1.6c-0.5,2-0.9,4-1.6,6c-0.4,1.2,0,2,0.8,2.9c0.2-0.3,0.3-0.5,0.4-0.7
		c1.9-4.9,4.7-9.4,8-13.5c1.2-1.5,2.3-3,3.5-4.4c0.3-0.3,1-0.4,1.5-0.5c0,0.5,0.1,1.1,0,1.6c-0.1,0.4-0.5,0.7-0.7,1.1
		c-2,2.5-4.2,4.9-5.9,7.5c-2.3,3.6-4.2,7.4-6.2,11.1c-0.1,0.2,0,0.5,0,1c1.4-0.9,2.8-1.6,3.9-2.5c3.7-3.1,7.2-6.4,11-9.5
		c2.1-1.7,4.5-3,6.7-4.5c0.3-0.2,0.9,0.1,1.4,0.2c-0.2,0.4-0.3,0.8-0.6,1.2c-0.2,0.2-0.5,0.4-0.7,0.5c-3.6,2-6.8,4.6-9.8,7.5
		c-3.5,3.3-7.1,6.6-11.5,8.7c-0.3,0.1-0.5,0.5-0.7,0.7c-3.1,2.2-6,4.9-9.3,6.6c-4.6,2.3-9.6,3.7-14.5,5.6
		c-7.3,2.9-14.8,4.5-22.6,4.7c-2.5,0.1-5,0.1-7.1,1.8c-0.1,0.1-0.4,0.1-0.6,0.2c-1,0.4-2,0.7-2.8,1.3c-2.4,1.7-4.7,3.5-7,5.3
		c-4.1,3.1-7.8,6.8-8.9,12c-0.7,3.1-0.8,6.3-1.2,9.5c-0.5,4.7-0.7,9.5-1.6,14.1c-1.4,7.2-1.8,14.4-2.2,21.7
		c-0.3,5.1-0.2,10.1-0.3,15.2c0,0.7,0,1.5,0,2.2c0,0.3,0,0.8-0.1,1c-1,1.3-0.1,1.8,0.9,2.3c2.3,1.1,4.7,2.2,7,3.4
		c2.9,1.4,5.2,3.3,4.8,6.5c1.5,0.6,2.8,1,4,1.7c1.1,0.7,2,1.1,3.3,0.6c2.4-0.8,4.7-1.5,7.1-2.4c2.3-0.8,4.6-1.7,6.9-2.5
		c-0.6-2.6-1.2-5.1-1.9-7.6c-2.2-7.4-4.4-14.9-6.5-22.3c-0.1-0.4,0.2-0.9,0.3-1.3c0.5,0.1,1.1,0.1,1.4,0.4c0.5,0.6,1,1.4,1.2,2.1
		c1.1,3.7,2.1,7.5,3.2,11.3c1.2,4,2.5,8,3.7,12c0.4,1.3,0.7,2.7,1,4c2-1,3.7-1.9,5.5-2.9c2.2-1.1,4.5-2.2,6.7-3.4
		c1.9-1,3.8-2.2,5.7-3.3c3.9-2.4,7.9-4.7,11.6-7.2c3.4-2.3,6.5-5.1,9.9-7.5c5.2-3.7,10.2-7.7,14.6-12.4c4.6-5,9.5-9.6,15.1-13.5
		c3.1-2.2,6.5-4.2,9.3-6.7c5.6-5.2,10.8-10.7,16.2-16.1c0.4-0.4,0.7-0.8,1-1.3c2.2-3,4.3-6.1,6.4-9.2c0.2-0.3,0.1-0.8-0.1-1.2
		c-0.9-2.2-1.9-4.4-2.7-6.7c-1.5-4.5-2.6-9.2-4.3-13.7c-1.7-4.4-3.9-8.6-5.9-13c-0.5-1.1-1-2.3-1.4-3.5c-0.5-1.5-0.9-3-1.3-4.5
		c-0.8-3.5-1.7-6.9-2.4-10.4c-0.2-1.2-0.6-2-1.5-2.8c-1.6-1.4-3.3-2.7-4.6-4.3c-4.7-6-8.1-12.6-8.4-20.5c0,0-0.1-0.1-0.3-0.1
		c-0.6,0.8-1.3,1.7-1.8,2.6c-0.3,0.6-0.2,1.4-0.5,1.9c-2.5,4.8-6.1,8.2-11.4,9.8c-2.5,0.8-5.2,0.1-5.6-1.7c-0.4-2.3-0.7-4.8,0.6-7
		c0.9-1.6,1.6-3.3,2.4-4.9c0.3-0.7,0.5-1.4,1-2c0.3-0.4,1-0.5,1.6-0.7c0,0.6,0.2,1.2,0.1,1.7C106.9,71.5,106.3,72.7,105.9,74z
		 M154.9,154.3c-0.3,0.2-0.4,0.3-0.5,0.4c-0.2,0.3-0.4,0.6-0.6,0.8c-2.6,3.9-5,7.8-8.7,10.8c-1.2,1-2.2,2.1-3.2,3.3
		c-4.1,4.8-8.5,9.6-13.8,13c-7.9,5.2-15.1,11.2-21.5,18.1c-2.1,2.2-4.2,4.5-6.6,6.4c-4.3,3.3-8.8,6.4-13.1,9.6
		c-2.9,2.2-5.7,4.6-8.7,6.6c-3.6,2.3-7.4,4.2-11.2,6.3c-5.4,3-10.8,6-16.2,9c-0.4,0.2-0.9,0.4-1.4,0.5c-4.8,1.6-9.5,3.3-14.3,4.9
		c0,0.6,0,1.3,0,2.1c0.8-0.2,1.4-0.4,2.1-0.6c2.8-1,5.6-2,8.4-3.2c2.6-1.1,5.1-2.3,7.6-3.5c4.2-2,8.4-4.1,12.7-6.1
		c2.9-1.3,5.9-2.3,8.7-3.9c9.3-5.5,18.5-11.4,26.9-18.3c4.5-3.7,9.3-7,14.1-10.4c6.8-4.8,12.8-10.4,18.8-16.2
		c0.8-0.8,1.7-1.7,2.5-2.5c1.5-1.5,3.1-2.9,4.5-4.4c2.2-2.4,4.2-5,6.3-7.4c2.9-3.3,5.8-6.5,8.7-9.8c0.3-0.3,0.6-0.9,0.4-1.3
		C156.1,157.1,155.5,155.8,154.9,154.3z M16.6,259.9c-0.2-1.4-0.3-2.7-0.5-4.2c-1.4-0.1-2.9-0.1-4.4-0.2c-0.4,0-0.8-0.5-1.2-0.8
		c0.4-0.3,0.7-0.9,1.1-0.9c1-0.1,2.1,0.1,3.1,0.1c2.7,0,5.3,0,7.7,0c0.1-1.7,0.2-3.7,0.4-5.9c-2.1,0-4.4,0-6.7,0
		c-1.4,0-2.9,0.1-4.3,0c-0.4,0-0.7-0.5-1.1-0.8c0.3-0.2,0.6-0.6,1-0.7c0.8-0.2,1.6-0.3,2.3-0.3c3.8,0,7.7,0,11.6,0
		c0.1-1.5,0.2-3.2,0.3-5c-0.2,0-0.4-0.1-0.5-0.1c-4.9,0.5-9.3-1.6-14-2.1c-0.3,0-0.6-0.5-1-0.8c0.4-0.2,0.8-0.6,1.1-0.6
		c1.1,0.1,2.2,0.3,3.3,0.5c1.7,0.3,3.3,0.6,4.7,0.9c0-1.1-0.2-2.1,0-3.1c0.2-1,0.8-1.9,1.3-3c-1-0.5-2.1-1.1-3.3-1.6
		c-2.6-0.9-4.7-2.2-4.9-5.3c0,0-0.1-0.1-0.3-0.2c-0.7,0.5-1.4,1-2.1,1.5c-3.9,3.2-4.1,4.2-2.2,9c0.2,0.5,0.1,1.2-0.1,1.7
		c-1.7,3.1-1.8,3.3,0.5,6c0.9,1,0.7,1.7-0.6,2.1c-2.2,0.7-2.7,2.8-1.1,4.3c0.3,0.3,0.6,0.5,0.9,0.7c1.3,0.8,1.8,1.7,1.1,3.2
		c-0.7,1.6-0.2,2.7,1.1,3.8C12,260.2,14.4,260.1,16.6,259.9z M145.5,119.4c0-0.4,0-0.9,0-1.3c0.1-3.2-0.1-6.5,0.5-9.6
		c1.1-5.9,2.6-11.7,4.1-17.5c1.6-6.2,2.2-12.5,1.2-18.8c-0.3-1.7-1.4-3.4-2.3-5c-0.2-0.4-1.3-0.6-1.9-0.5c-0.3,0.1-0.7,0.9-0.7,1.5
		c-0.1,4.4-0.1,8.9-0.3,13.3c-0.1,1.6-0.2,3.2-0.6,4.7c-0.9,3.1-2.4,6.1-4.9,8.2c-2,1.7-2.7,3.7-1.9,6.2c1,3.5,2,7,2.9,10.6
		C142.2,114.3,143.7,116.9,145.5,119.4z M62.5,246.2c0,0.2-0.1,0.3-0.1,0.5c2.4,1,4.8,2.2,7.2,3.1c3.1,1.2,4.7-0.1,4.6-3.4
		c-0.2-3.2-2.5-4.7-5.3-3.4C66.6,244.1,64.6,245.2,62.5,246.2z M151.6,57.5c-1.7,0-2.9,1.5-2.9,3.7c0,1.9,0.6,2.4,3.2,2.5
		c0.8,0,2.7-2.4,2.7-3.6C154.7,58.6,153.6,57.5,151.6,57.5z M32.3,244.5c-0.1-0.3-0.1-0.9-0.3-1.6c-0.5-1.5-2.8-2.3-3.7-1.1
		c-0.6,0.8-0.8,2.1-0.9,3.1c-0.1,2.1,0.7,2.7,3.2,2.6C31.5,247.6,32.3,246.4,32.3,244.5z M24.3,251.4c0,0.5-0.2,1.1,0,1.6
		c0.3,0.6,0.7,1.4,1.2,1.6c1.4,0.3,3.5-1,3.6-2.4c0.1-1-0.2-2.5-0.9-3C26.6,247.8,24.3,249.1,24.3,251.4z M21.3,236.9
		c0,2.1,0.6,2.9,2.2,2.9c2.1,0,2.5-0.3,2.5-1.9c0-1.1-1.9-3.3-2.7-3.3C22,234.5,21.3,235.4,21.3,236.9z M18.8,259.6
		c0.2,0,0.5,0.1,0.7,0.1c0.4-0.6,1-1.1,1.3-1.7c0.3-0.6,0.3-1.2,0.4-1.9c-0.9-0.1-1.7-0.3-2.6-0.2c-0.3,0-0.9,0.8-0.8,1.1
		C18,257.9,18.5,258.7,18.8,259.6z"/>
	<path class="st0" d="M58.9,71.6c-0.3-0.3-0.9-0.7-1-1.2c-0.1-0.4,0.6-0.9,0.9-1.3c0.1-0.1,0.3-0.1,0.4-0.1c2.8,0.4,4.5-1.5,6.3-3.2
		c0.3-0.2,0.5-0.6,0.7-0.7c0.5-0.1,1.1-0.1,1.7-0.1c-0.1,0.5,0.1,1.3-0.2,1.5c-1.8,1.6-3.5,3.1-5.5,4.4
		C61.4,71.5,60.2,71.3,58.9,71.6z"/>
</g>
</svg>
