<?xml version="1.0" encoding="utf-8"?>
<!-- Generator: Adobe Illustrator 19.1.0, SVG Export Plug-In . SVG Version: 6.00 Build 0)  -->
<svg version="1.1" id="Layer_1" xmlns="http://www.w3.org/2000/svg" xmlns:xlink="http://www.w3.org/1999/xlink" x="0px" y="0px"
	 viewBox="0 0 120 114.2" style="enable-background:new 0 0 120 114.2;" xml:space="preserve">
<style type="text/css">
	.st0{fill:#03A9F4;}
</style>
<g id="warts-hand">
	<path class="st0" d="M120,106.8c-3.8-3-7.6-5.9-11.3-9.1c-3.1-2.6-5.9-5.5-8.8-8.3c-3-2.9-6.1-5.7-9.1-8.6c-1.7-1.6-3.4-3.4-5.1-5
		c-2.8-2.7-5.7-5.3-8.4-8.1c-1.6-1.6-2.9-3.6-4.2-5.4c-1.1-1.5-2-3-3.3-4.8c-0.5,0.9-0.8,1.6-1.2,2.2c-0.2,0.3-0.7,0.5-1,0.8
		c0-0.4-0.3-1-0.1-1.3c0.6-1.1,1.2-2.3,0.9-3.6c-0.3-1-0.7-2-1.1-3.1c-0.8-2.3-1.6-4.6-2.4-6.9c-0.6-1.9-1.2-3.9-1.9-5.8
		c-2.9-8-5.6-16-7.2-24.4c-0.1-0.7-0.9-1.6-1.7-1.9c-4.1-1.9-8.3-3.8-12.4-5.6c-1.9-0.8-3.8-1.4-5.7-2.3c-2.9-1.3-5.7-2.8-8.6-4
		c-0.7-0.3-1.8-0.2-2.6,0.1c-5,1.3-9.5,3.7-14.1,5.9C9.9,8,9.2,8.8,8.5,9.5c-1.9,1.9-3.7,3.8-5.6,5.7c-1.8,1.8-2,3.6-0.4,4.8
		c1.3,1,2.7,0.4,4.2,0.2c-0.2-0.5-0.3-0.9-0.4-1.3c-0.9-2.3-0.8-4.5,1-6.3c2.4-2.3,5.6-3.6,8.5-1.3c0.9,0.7,1.7,1.4,2.5,2.2
		c0.5,0.5,0.9,0.5,1.5,0.2c1.3-0.7,2.8-1.2,3.9-2.1c1-0.8,1.6-2,2.3-3.1c0.2-0.4,0.4-0.8,0.6-1.4c0.9,1.4,0.4,2.5-0.2,3.4
		c-0.7,1.1-0.3,1.7,0.7,2.2c1.9,1,3.8,1.9,5.8,2.8c0.1,0.1,0.3,0.1,0.3,0.2c1,1.7,2.1,1,3.3,0.2c0.7-0.5,1.6-0.7,2.4-1
		c0.2-0.1,0.6,0.2,0.9,0.3c-0.2,0.2-0.4,0.6-0.6,0.7c-0.4,0.2-0.8,0.3-1.2,0.5c-1.9,1.1-1.9,1.1-0.8,2.9c0.1,0.2,0.3,0.5,0.3,0.7
		c0,0.3-0.1,0.6-0.2,1c-0.3-0.1-0.7-0.2-0.9-0.4c-0.6-0.6-1-1.5-1.7-2c-1.3-1-2.8-1.6-4.6-1.1c-1.7,0.5-3.5,0.8-5.3,1.2
		c0.8,1.7,6.7,6.3,8.9,6.9c0.7-0.9-0.4-2.7,1.4-3.1c0,0.6,0,1.2,0,1.7c0,2,0.6,3,2.5,3.6c0.3,0.1,0.8-0.1,0.9-0.4
		c1.1-2.2,3.1-3.6,4.9-5.2c0.9-0.8,1.9-1.4,2.9-2.1c0.3-0.2,0.9-0.2,1.3-0.3c-0.2,0.4-0.4,0.8-0.7,1.1c-1.5,1.1-3.1,2.1-4.4,3.3
		c-1.3,1.3-2.4,2.8-3.6,4.3c0.6,1.2,1.2,1.4,2.3,0.7c0.4-0.3,0.9-0.5,1.4-0.6c0.2-0.1,0.5,0.2,0.8,0.3c-0.2,0.2-0.3,0.5-0.5,0.7
		c-0.6,0.3-1.2,0.6-2.2,1.4c0.5,0.3,1,0.6,1.4,1c0.2,0.2,0.1,0.7,0.2,1c-0.4-0.1-0.7-0.1-1-0.2c-0.2-0.1-0.3-0.3-0.5-0.4
		c-2-2.2-4.5-3.6-7.1-5.1c-3-1.7-5.8-3.8-8.9-5.8c-1.3,2-2.8,4.1-5.1,5.5c-0.1-0.1-0.3-0.2-0.4-0.3c0.2-0.3,0.4-0.7,0.7-1
		c1.1-1.3,2.3-2.7,3.4-4c0.7-0.9,0.6-1.6-0.4-2.3c-0.8-0.6-1.7-1.2-2.4-1.9c-1.3-1.1-2.5-2.3-3.8-3.5c-0.6-0.6-1.3-1.1-2.1-1.5
		c0.8,1,1.5,2,2.3,2.9c0.7,0.8,0.7,1.7,0,2.5c-0.9,1-1.8,2.1-3,2.8c-0.6,0.4-2,0.4-2.6-0.1c-1.4-1.1-2.6-2.4-3.9-3.7
		c-0.3-0.3-0.4-0.6-0.7-1c-0.4,1.1,0.2,2.8,1,3.9c1.8,2.5,4.5,3.9,6.5,6.1c3.1,3.5,7,5.8,10.7,8.6c2.5,1.9,4.4,4.5,6.4,7
		c0.9,1.1,1.8,1.5,3.1,1.6c0.4,0,0.7-0.1,1.1,0.1c0.2,0.1,0.4,0.4,0.6,0.6c-0.2,0.2-0.5,0.4-0.7,0.4c-0.9,0.1-1.8,0-2.6,0
		c0,0.1-0.1,0.2-0.1,0.3c0.4,0.9,0.5,2.1,1.2,2.5c0.8,0.5,2,0.2,3,0.4c0.9,0.1,1.7,0.3,2.5,0.5c0,0.2-0.1,0.5-0.1,0.7
		c-1.7-0.2-3.4-0.3-5.5-0.5c0.6,1.6,1.1,3,1.7,4.3c1.9,4.1,5,7.3,8.1,10.6c1.7,1.8,3.9,1.4,6,1.3c0.7-0.1,1.5-0.3,2.2-0.4
		c0.2,0,0.5,0.2,0.7,0.4c-0.1,0.2-0.3,0.5-0.4,0.6c-1.2,0.3-2.5,0.5-3.7,0.8c-0.3,0.1-0.7,0.2-0.9,0.4c-0.1,0.1,0,0.6,0.2,0.8
		c0.7,0.9,1.5,1.9,2.2,2.8c-0.8,1-1.5,0.9-2.3,0.1c-1.8-1.9-3.6-3.8-5.4-5.7c-0.4-0.4-0.6-1-1-1.4c-0.2,0.1-0.3,0.2-0.5,0.4
		c0.1,0.5,0.2,1,0.3,1.5c0.4,1.8,0.9,3.7,1.4,5.5c0.8,3.3,3,5.6,5.9,7.1c0.2,0.1,0.4,0.2,0.6,0.3c2.3,1.3,2.3,1.2,4.3-0.4
		c0.3-0.2,0.8-0.2,1.3-0.2c-0.1,0.4-0.1,0.8-0.3,1.2c-0.4,0.6-0.9,1.1-1.5,1.8c3.8,1.5,6.3,4.2,8.5,7.2c3.5,4.8,6.8,9.7,10.3,14.4
		c3,4,6.3,7.7,9.5,11.6c0.4,0.4,0.6,0.9,1,1.4c-0.7,0-1.4,0-2.1,0c-1.9-2.4-3.9-4.8-5.8-7.2c-2.1-2.7-4.1-5.5-6.1-8.3
		c-2.4-3.3-4.7-6.7-7.3-9.9c-2.6-3.2-5.6-6-9.5-7.9c-2.8-1.4-5.3-3.6-7.7-5.7c-2.3-2.1-2.6-5.3-3.2-8.2c-0.5-2.4-1.1-4.8-1.9-7.1
		c-0.5-1.3-1.5-2.4-2.3-3.8c-1.9,2.2-3.8,1.4-5.5,0.3c-1.3-0.8-2.4-1.9-3.7-2.8c-0.4-0.3-1.1-0.5-1.6-0.4c-2.3,0.5-2.8,0.3-4.2-1.5
		c-0.9-1.3-2-2.5-3.2-3.6c-1.9-1.8-3.5-4-4.3-6.5c-0.5-1.5-0.4-3.2-0.2-4.8c0.3-2.6,0.9-5.1,1.1-7.7c0.1-0.6-0.4-1.5-0.9-1.9
		c-2-1.8-4-3.5-6.1-5.1c-0.4-0.3-1.1-0.2-1.6-0.2c-0.7,0-1.5,0.1-2.2,0.2c-1.7,0.1-2.8-0.9-3.5-2.3c-0.7-1.4-0.8-2.8,0.2-4
		c1.2-1.4,2.6-2.7,3.8-4c0.7-0.7,1.5-1.4,2.1-2.2c1.4-2.2,3.6-3.3,5.9-4.3c1.8-0.8,3.5-1.8,5.3-2.7c0.8-0.4,1.7-0.5,2.5-0.8
		c1.7-0.5,3.4-1.2,5.2-1.6c0.8-0.2,1.8-0.1,2.6,0.3c3.5,1.6,6.9,3.3,10.4,4.9c2.2,1,4.5,1.6,6.7,2.5c2.5,1,5,2.2,7.5,3.3
		c2.7,1.2,4.5,2.9,5.1,6.1c1.5,8.1,4.2,15.9,7.3,23.5c1,2.7,1.5,5.5,2.5,8.2c1,2.8,2.2,5.5,3.6,8.1c1.3,2.5,3,4.8,4.7,7
		c1.3,1.7,2.8,3.2,4.4,4.6c6.4,6.1,12.8,12.1,19.2,18.2c3.4,3.2,6.6,6.7,10.2,9.7c3.3,2.8,6.9,5.3,10.4,8
		C120,105.2,120,106,120,106.8z M24.7,51.9c1.2-0.4,2-1.1,2-2.2c0-1.5,0-3-0.5-4.4c-0.6-1.8-1.7-3.4-2.4-5.1
		c-0.6-1.4-1.5-1.9-2.9-2.2c-0.4-0.1-0.7-0.2-1.3-0.4c1.5-1.2,2.8-0.4,4.4-0.1c-0.2-0.9-0.1-1.9-0.5-2.3c-2.2-1.8-4.6-3.4-7-5.2
		c-0.2,0.6-0.3,1.1-0.4,1.7c-0.2,1.4-0.2,2.9-0.6,4.2c-1.2,3.8,0.4,6.7,2.5,9.6c0.2,0.3,0.9,0.5,1.2,0.4c2.7-0.9,4.1-0.3,4.9,2.4
		C24.3,49.3,24.4,50.5,24.7,51.9z M13.4,20.2c1-0.9,1.9-1.7,2.8-2.5c0.7-0.6,0.8-1.3,0.1-2.1c-1.3-1.4-2.5-2.8-3.8-4.2
		c-0.1-0.2-0.5-0.3-0.7-0.2c-1.5,0.5-3,1-3.9,2.5c-0.2,0.3-0.3,0.8-0.1,1c1.1,1.4,2.3,2.8,3.5,4.1C11.7,19.4,12.5,19.6,13.4,20.2z
		 M33.8,50.5c-0.2-0.6-0.5-1.1-0.6-1.7c-0.4-1.3-1-2.4-2.4-2.9c-1.4-0.5-2.4-1.5-3-2.9c-0.3-0.7-0.3-1.1,0.5-1.1
		c1.4-0.1,1.6-0.4,0.7-1.5c-1-1.2-2.1-2.3-3.2-3.4c-0.2-0.2-0.5-0.4-0.8-0.6c-0.1,0.3-0.5,0.7-0.4,1c0.3,1.4,0.6,2.8,1.2,4.1
		c1,2.3,2.3,4.5,2.2,7.1c0,0.9-0.1,1.9-0.2,3.3C29.8,49.8,31.5,48.4,33.8,50.5z M19.9,14.8c0,0.2,0,0.3-0.1,0.5
		c1.4,0.8,2.7,2.3,4.1,2.3c2.2,0,4.5-0.9,6.7-1.4c-1.8-1.4-3.6-2.4-5.4-3.4c-0.4-0.2-1-0.2-1.4,0C22.5,13.4,21.2,14.1,19.9,14.8z
		 M35.2,54.6c-1-1.2-1.9-2.4-2.9-3.4c-0.9-0.9-1.6-0.6-2.7,0.6c-0.7,0.8-0.5,1.4,0.2,2c0.7,0.5,1.6,0.9,2.3,1.5
		C33.3,56,34.3,55.9,35.2,54.6z M23.1,51.2c0.4-2-0.3-4.3-1.4-4.6c-0.6-0.2-1.4,0.1-2.1,0.1c0,0.1,0,0.3,0,0.4
		C20.7,48.5,21.9,49.8,23.1,51.2z M31.8,45c0.1-0.1,0.2-0.2,0.3-0.3c-0.3-0.7-0.6-1.4-1-2.2c-0.6,0.5-1.1,0.8-1.7,1.3
		C30.3,44.2,31,44.6,31.8,45z"/>
	<path class="st0" d="M22.2,20.4c0,1.1-1,2.3-2.1,2.3c-0.7,0-2.4-1.2-2.1-1.7c0.4-0.9,1-2.2,1.7-2.3C21.4,18.4,22.1,19.1,22.2,20.4z
		"/>
	<path class="st0" d="M18.2,7.9c-0.9,0-1.6-0.1-1.6-1.2c0-1.1,1-1.5,1.8-1.6C20,5,20.8,5.5,20.8,6.5C20.8,7.3,19.6,7.9,18.2,7.9z"/>
</g>
</svg>
