<?xml version="1.0" encoding="utf-8"?>
<!-- Generator: Adobe Illustrator 18.1.1, SVG Export Plug-In . SVG Version: 6.00 Build 0)  -->
<!DOCTYPE svg PUBLIC "-//W3C//DTD SVG 1.1//EN" "http://www.w3.org/Graphics/SVG/1.1/DTD/svg11.dtd">
<svg version="1.1" id="Layer_1" xmlns="http://www.w3.org/2000/svg" xmlns:xlink="http://www.w3.org/1999/xlink" x="0px" y="0px"
	 viewBox="405 99.6 150 360.7" style="enable-background:new 405 99.6 150 360.7;" xml:space="preserve">
<style type="text/css">
	.st0{fill:#03A9F4;}
</style>
<g id="constipation-lady">
	<path class="st0" d="M554.7,441.3c0.2-6.7-1.5-13.1-3.9-19.2c-2.1-5.3-2.9-10.5-1.9-16.1c0.5-2.9,0.6-5.9,0.2-8.8
		c-0.7-4.7-1.9-9.3-2.9-13.9c-2.4-11-4.6-22-7.2-32.9c-1.2-5.1-3-10-4.4-15.1c-0.6-2.3-2-4.7-0.4-7.1c4-6.1,4.5-12.9,3.8-19.8
		c-0.1-1.5,0.2-2.5,1.2-3.6c2.4-2.7,4.6-5.6,4.9-9.4c0.8-10.1-2.2-18.9-9.8-25.8c-1.2-1.1-1.4-2.2-0.8-3.8c4.3-11.2,6.7-23,7.5-34.9
		c0.6-9.9,0.1-19.8,0.3-29.7c0.1-6.2,0.9-12.4,1.1-18.6c0.1-5.4-1.8-9.9-6.7-12.9c-8.6-5.3-17.8-9-27.7-10.7
		c-1.1-0.2-2.2-0.3-3.8-0.6c4.2-6,4.6-12.2,3.1-18.4c-1.2-5.1-3.4-10-5.6-14.9c-1.3-2.8-3-5.5-5-7.8c-2.6-3.1-5.5-6-8.6-8.6
		c-3.3-2.8-6.8-5.6-10.7-7.5c-7.1-3.6-14.4-0.8-21.2,1.3c-9.7,3.3-14.4,11.8-17.5,20.8c-3,8.8-3.4,18.1-3.7,27.3
		c0,0.6-0.1,1.3,0.1,1.9c1,3.4-0.3,6.1-2.5,8.7c-2.5,3-3.7,6.5-3.8,10.5c-0.2,8.4-0.7,16.7-1.2,25.1c-0.3,4.9,0.2,9.6,2.3,14.2
		c1.7,3.6,2.7,7.5,3.8,11.3c1.5,5.2,2.3,10.6,4.2,15.7c2,5.4,4.8,10.6,7.3,15.8c0.7,1.5,0.8,2.5-0.7,3.8c-3.7,3.2-7.1,6.8-10.6,10.2
		c-6.8,6.6-8.8,14.9-8.6,24c0.1,2.2,0.5,3.9,2.9,4.7c0.7,0.2,1.1,1.2,1.6,1.9c1.4,2.2,3.3,3.3,6,2.9c1-0.1,2,0,3.3,0
		c-1,1.9-2.1,3.4-2.7,5.2c-2.4,7.7-4.9,15.5-6.9,23.3c-1.1,4.6-1.1,9.4-1.9,14.1c-1.3,7.5-3.2,15-4.2,22.5
		c-1.2,8.8-3.1,17.3-5.5,25.8c-1.6,5.5-2.8,11-2.1,16.9c0.3,2.7-0.5,5.7-1.3,8.4c-2.6,8.7-5.6,17.4-8.3,26.1c-0.7,2.6-1,5.3-1.2,8
		c-0.2,1.9,0.7,3.4,2.4,4.6c3,2.2,6.3,2.4,9.8,2.5c2.2,0.1,4.4,0.3,6.5,0.9c5.4,1.6,8.6,0.3,9.9-5.2c1.3-5.8,2.1-11.7,2.8-17.6
		c0.7-6.6,0.1-13.3,2.7-19.6c2.5-6.1,2.6-12.5,1.5-19c-0.2-0.9,0.1-1.9,0.5-2.7c1.9-3.1,3.8-6.3,5.8-9.3c0.6-0.9,1.7-1.8,2.7-2
		c2.9-0.6,6-0.5,8.9-1.3c4.3-1.1,6.8,2.4,6.8,5.6c0,2.3-0.5,4.7-1.1,7c-1.6,5.6-0.8,10,3,12.2c2.5,1.5,5.5,2.8,8.4,3.2
		c5.1,0.7,10.3,0.9,15.5,0.8c8.5-0.1,16.9-0.9,24.2-5.9c3.9-2.7,6.9-5.9,6.8-11c0-0.5,0.2-1,0.3-1.7c1.7,1.4,1.9,2.9,1.5,4.7
		c-0.8,3.9-1.8,8.1,0,11.8c3.3,6.8,3.1,13.7,1.8,20.8c-0.5,3.2-1.6,6.3-1.6,9.4c0,3.5,0.9,6.9,1.2,10.4c0.2,3.1,1.1,5.5,3.5,7.7
		c1.8,1.5,3.5,2,5.6,2c2,0,4.6,0.6,5.8-0.4c1.7-1.4,3.1-1.2,4.7-1c4.9,0.7,9.9-3.3,10.1-8.4C555.1,447.2,554.6,444.2,554.7,441.3z
		 M533.4,323.2c-0.3,0.4-0.6,0.7-1.1,1.4c-1.5-4.8-3-9.2-4.3-13.7c-0.6-1.9,1.1-2.4,2.4-2.9c3.8-1.5,4.8-0.9,4.9,3.1
		C535.4,315.3,535.9,319.5,533.4,323.2z M541.1,289.8c0.1,0.8,0.1,1.6,0.1,2.4c0.1,7.9-2.1,10.8-9.8,12.4c-0.6,0.1-1.2,0.3-1.8,0.5
		c-3.5,1.2-3.6,1.2-5.8-1.9c-2.1-3-4-6.1-6.1-9.1c-0.6-0.9-1.3-1.6-2-2.3c-0.3,0-0.5,0.1-0.7,0.1c-0.1,0.8-0.5,1.8-0.2,2.5
		c0.5,1.4,1.1,2.9,2,4c7.5,9,11.1,19.7,13.2,31.1c0.6,2.8,0.9,5.7,1.2,8.5c0.2,1.6,0.3,3.1,2.1,3.7c0.2,0.1,0.5,0.4,0.6,0.7
		c1,4.2,2.1,8.3,3.1,12.5c0.1,0.4-0.5,1.2-1,1.4c-1.5,0.7-3,1.7-4.6,1.9c-7.2,1-14.4,1.8-21.6,2.5c-0.8,0.1-1.9-0.5-2.5-1.1
		c-5.9-6.4-10.9-13.3-13-21.9c-1.8-7.5-4-15.1-5.1-22.7c-0.8-4.9-1.9-9.4-4.6-13.4c-3.1-4.7-3.6-9.6-2.7-15
		c0.7-3.9,0.7-7.9,0.8-11.9c0-2.4,0.9-4.1,3.2-4.6c4.4-0.8,8.8-1.4,13.2-2c4.9-0.7,9.4,0.7,13.4,3.3c2.6,1.7,4.7,4.2,7.1,6.3
		c1,0.9,2,3.2,3.5,1.8c1.6-1.4-0.7-2.5-1.5-3.6c-0.5-0.7-1.2-1.4-1.6-1.9c3.4-1.2,6.5-2.4,9.9-3.3c0.6-0.2,1.6,0.3,2.1,0.8
		C537.3,276.5,540.8,282.4,541.1,289.8z M484.3,311.7c0.3,0,0.7,0.7,1,1.1c-0.4,0.3-0.7,0.8-1,0.8c-2.8,0-5.7,0-8.5-0.1
		c-0.5,0-1-0.4-1.5-0.6c0.2-0.4,0.4-0.8,0.6-1.2C478.1,311.7,481.2,311.6,484.3,311.7z M475.6,306.8c0.5-2.4,1.2-4.9,2-7.3
		c0.2-0.6,1-1,1.6-1.2c0.3-0.1,0.8,0.8,1.1,1.3c1.1,1.9,2.2,3.8,3.2,5.8c0.4,0.8,0.7,1.7,1.3,3c-2.9,0-5.5,0.1-8,0
		C476.4,308.4,475.5,307.3,475.6,306.8z M474.4,318.5c0.1-0.7,1.1-1.6,1.7-1.6c2.7-0.1,5.4-0.1,8.1,0.2c0.8,0.1,1.9,1,2.1,1.7
		c1.6,6.4,2.6,13,4.6,19.3c1.6,4.8,4.3,9.2,6.5,13.8c0.4,0.9,0.9,1.7,1.6,2.9c-6.4,0.7-12.5,1-18.4,2.1c-6.1,1.1-12.2,1-19,0.8
		c1.6-3.8,2.6-7.2,4.4-10.1c4-6.9,5.9-14.5,7.2-22.3C473.6,323,473.9,320.7,474.4,318.5z M462.3,361.1c1.3-0.2,2.7-0.2,4-0.3
		c7.8-0.7,15.7-1.4,23.5-2c3.3-0.3,6.5-0.4,9.8-0.4c2,0,3.5,0.8,4.5,3.2c-3.5,0.4-6.6,0.9-9.6,1.2c-10.7,1-21.3,1.9-31.9,2.7
		c-1,0-2.6-0.2-3-0.9C458.9,363.5,460.7,361.3,462.3,361.1z M527.1,168.7c1.8,1.1,3.7,1.9,5.5,2.9c4.3,2.6,7.1,6.1,6.8,11.3
		c-0.4,6.7-1.2,13.3-1.5,20c-0.3,6.9-0.2,13.9-0.1,20.8c0.1,9.8-1.4,19.4-3.9,28.8c-0.7,2.9-1.8,5.7-2.4,8.7
		c-2,10.2-11,10.8-17.1,7.9c-6.3-3-12.6-4.5-19.4-3.8c-3.4,0.4-6.8,1.3-10.1,2.3c-1.5,0.5-2.4,0.6-3.8-0.5c-1.8-1.5-4.1-2.2-6.1-3.4
		c-0.7-0.4-1.4-1.1-1.5-1.8c-0.2-2.3-0.1-4.6-0.1-6.9c1.9-0.1,3.8-0.3,5.7-0.4c10-0.4,19.9-1,29.3-4.7c2.6-1,5.6-0.9,8.4-1.5
		c1-0.2,1.8-0.8,2.7-1.3c-0.9-0.4-1.7-1.1-2.6-1.2c-1.4-0.1-2-0.6-1.6-1.9c2.2-7.2,1.5-14.7,1.9-22.1c0.6-9.3,0.8-18.7,1.6-28.1
		c0.8-8.2,1.9-16.3,5.1-24C524.7,167.9,525.5,167.8,527.1,168.7z M519.3,165.1c1.8,0.9,2.4,1.5,1.8,3.9c-2,7.5-3.7,15.1-4.9,22.8
		c-0.7,4.8-0.1,9.7-0.4,14.5c-0.4,6.5-1,13-1.5,19.5c-0.2,2.5-0.3,4.9-0.4,7.4c-0.1,4.3-1,5.3-5.1,6.1c-3.4,0.7-6.8,1.7-10.2,2.1
		c-3.2,0.4-6.5,0-9.7,0.1c-0.8,0.1-1.5,0.5-2.3,0.8c0.5,0.5,1,1.3,1.7,1.6c4.4,1.7,8.7,0.6,13.1-0.4c3.5-0.8,7-1.4,10.6-2.1
		c0.6,3.7-1.3,4.4-3.8,5.3c-10.6,4.5-21.9,4.4-33,5.3c-1.5,0.2-2.2-0.4-2.6-2c-2.3-9-4.7-17.9-7.3-26.8c-1.6-5.4-2.9-10.7-2.6-16.4
		c0.5-9.1-2.8-17.2-8-24.5c-0.8-1.1,0.4-5.7,1.7-5.8c0.5-0.1,1.4,0.3,1.8,0.8c1.6,2.3,3.6,4.4,4.5,6.9c2.6,7.2,4.8,14.5,6.9,21.9
		c2.1,7.5,6.4,13.2,13.5,16.6c1.3,0.7,3,0.9,4.6,0.9c4.4,0.1,8.7,0.1,12.9-2.2c5.8-3.2,8.6-8,9.6-14.2c0.4-2.4,0.2-5.1,0.1-7.6
		c-0.4-9.3,1.2-18.4,2.3-27.6c0.3-2,1.3-4,2.2-5.8C515.8,164.2,517.4,164.2,519.3,165.1z M454,203.8c0.9,1.5,2.2,2.8,2.8,4.4
		c2.3,5.8,4.5,11.6,6.5,17.4c2.2,6.4,4.2,12.9,6.3,19.3c0.3,0.9,0.4,1.9,0.6,2.8c-0.1,0-0.3,0.1-0.4,0.1c-1.2-2.8-2.4-5.5-3.6-8.3
		c-2.1-5.1-4.1-10.2-6.3-15.2c-3.4-7.7-7.2-15.4-10.6-23.2c-0.7-1.7-0.6-3.9-0.2-5.7c0.8-3.5,2.2-6.9,3.4-10.3
		c4.1,1.8,9.2,17.6,7.3,23c-0.7-0.9-1.4-1.6-1.9-2.4c-0.7-1.1-1.2-2.3-2.1-3.2c-0.6-0.6-1.6-0.8-2.4-1.2
		C453.6,202.2,453.6,203.1,454,203.8z M462.5,136.3c0.2-2.3,0.6-4.6,0.8-6.9c0.1-1.2,1.2-3.7,0.8-4.8c-0.4-1,1.3-1.5,1.7-0.5
		c0.3,0.8,0,1.7-0.2,2.6c-0.2,0.9-0.4,1.8-0.5,2.6c0.1,0.1,0.1,0.2,0.1,0.4c-0.1,4.3-1,8.7,0,12.9c0.2,0.3,0.3,0.6,0.5,0.9
		c1.6,1.3,3.1,2.7,4.7,4c5.4,4.7,11.6,5.2,18.4,3.1c1.7-0.4,3.5-1,5.3-1.1c3.4-0.3,4.2,1.4,2.8,4.6c-0.8,1.8-1.2,3.8-1.3,5.7
		c-0.2,2.2,1.2,3,3,1.8c1.9-1.3,3.5-1.1,5.6-0.5c3,0.9,6,1.2,9.4,1.8c-0.8,1.6-1.3,2.7-1.9,3.8c-2.2,4.3-2,9.1-2.8,13.7
		c-1.5,7.9-1.1,15.9-1,23.8c0,5.2-2.3,9.3-5.6,12.8c-1.6,1.6-4.3,2.2-6.6,3.1c-0.3,0.1-1.2-0.5-1.3-0.9c-0.2-0.9-0.1-2-0.2-3
		l-0.3-2.7h-1.1c-0.2,1.2-0.6,2.5-0.6,3.7c-0.2,3.1-0.4,3.3-3.5,3.4c-2.8,0.1-2.5-1.7-2.5-3.5c0-1.3-0.1-2.6-0.2-3.9
		c-0.3-0.1-0.7-0.1-1-0.2c-0.5,1.8-0.9,3.6-1.4,5.7c-4.8-1.2-8.1-4.3-9.8-8.6c-2.5-6.4-4.3-13.1-6.4-19.7c-0.5-1.7-1.3-3.3-1.9-5
		c0.1-0.1,0.3-0.3,0.5-0.4c0.7,0.6,1.4,1.2,2.1,1.9c3.8,3.9,9.4,4.5,14,1.7c3.1-1.8,5.5-4.2,7.1-7.5c2.1-4.5,4.4-9,6.5-13.5
		c0.4-0.9,0.6-2,0.6-3c0.1-0.5-0.4-1.1-0.7-1.6c-0.4,0.5-1,0.8-1.1,1.3c-1.4,6.9-4.4,12.9-8.5,18.5c-2,2.7-4.8,4.5-7.9,5.5
		c-3.2,1.1-6.2-0.1-8.6-2.3c-3.9-3.7-7.6-7.5-11.3-11.4c-0.4-0.4-0.5-1.6-0.2-2.1c1.1-2.1,2.7-3.7,5.4-3.5c0.9,0.1,1.7,0,2.7,0
		c-0.6-2.8-2.9-1.6-4.4-2.6c1.1-1.9,2.5-3.6,3.4-5.6c0.5-1.3,0.5-2.8,0.7-4.2c0.2-1.1,0.2-2.3,0.6-3.4c1.3-3.4,1.2-3.8-1.8-6
		c-1.3-1-1.5-2.2-1-3.5c0-0.2-0.1-0.3-0.1-0.5C462.5,141.2,462.3,138.8,462.5,136.3z M463.9,149.7c0.1-0.1,0.8,0.5,1.7,1.1
		c-1,1.1-1.7,1.9-2.6,2.7c-0.4-0.6-1.3-1.4-1.2-1.6C462.3,151.1,463.1,150.3,463.9,149.7z M461.1,146.5c0.1,0.3,0.3,0.7,0.4,1.1
		c-0.9,0.4-1.9,0.8-2.8,1.3c-0.1-0.5-0.3-0.9-0.5-1.4C459.2,147.2,460.1,146.8,461.1,146.5z M438.3,229.1c-1.5-6.5-3-12.9-6-18.8
		c-2.1-4.1-2.1-8.4-1.9-12.8c0.4-7.6,0.9-15.1,1.1-22.7c0.1-5.3,1.3-9.8,5.4-13.5c3.6-3.2,6.7-7.1,10.2-10.6c1-1,2.5-1.6,3.7-2.4
		c0.1,0.2,0.3,0.5,0.5,0.7c-0.6,0.6-1.1,1.2-1.8,1.7c-5.2,3.7-8.8,8.8-12.6,13.7c-0.4,0.5-0.1,1.5-0.2,2.3c0.7-0.4,1.6-0.5,2.1-1.1
		c2.4-2.7,4.6-5.7,7.1-8.3c2.8-3,5.8-5.7,8.8-8.5c1.1,0.8,2,1.7,3.2,2.7c-1.1,1.3-2.1,2.7-3.3,3.9c-3,3-6.1,6-9.2,9
		c-0.4,0.3-0.9,0.7-1.1,1.2c-0.2,0.5,0,1.1,0,1.7c0.6-0.1,1.4,0,1.8-0.4c4-4,8-8.1,11.9-12.1c0.4-0.4,0.8-0.8,1.3-1.2
		c0.9,0.8,1.7,1.6,2.7,2.5c-0.5,0.5-0.9,0.9-1.3,1.4c-3.7,4.3-7.3,8.5-10.9,12.7c-0.2,0.2-0.5,0.5-0.5,0.8c0,0.7,0.1,1.3,0.1,1.9
		c0.6-0.2,1.3-0.4,1.7-0.8c2.3-2.7,4.4-5.5,6.6-8.2c0.3-0.3,0.6-0.8,1-1c0.7-0.3,1.5-0.4,2.3-0.5c0,0.7,0.2,1.6-0.1,2.1
		c-2,3.6-4.4,7-6.2,10.7c-2.3,4.8-4.1,9.9-6.2,14.9c-1.5,3.6-3.3,7.2-4.8,10.8c-0.4,0.8-0.2,1.8-0.2,2.7c0.7-0.5,1.4-1,2.1-1.6
		c0.4-0.3,0.8-0.7,1.3-1.2c0.4,0.6,0.7,1.1,0.7,1.6c2.1,4.9,4.1,9.7,6.3,14.5c2.9,6.6,6.1,13,8.9,19.6c2.5,6.1,4.6,12.2,6.8,18.4
		c0.5,1.5,0.6,3.1,0.6,4.7c0.1,1.6,0.4,4-0.4,4.5c-1.9,1.2-4.3,1.7-6.5,2c-1.7,0.2-3.5-0.3-5.2-0.7c-0.8-0.2-1.7-0.7-2.2-1.3
		C447,254,441.4,242.1,438.3,229.1z M435.5,282.3c-0.5,4.9-0.3,9.8,1.2,14.6c0.2,0.7,0,1.6-0.1,2.4h-0.8c-2.1-6.6-3.2-13.3-1.6-20.4
		c-2.1,6.7-1.7,13.5-0.2,20.6c-2.4-0.6-2.7-2.1-2.7-3.6c0.1-5.2,0.3-10.5,0.4-15.7c0.1-0.3,0-0.5-0.6-0.9c-0.5,1.8-1.4,3.6-1.5,5.5
		c-0.2,2.5,0.2,4.9,0.2,7.4c0,0.9-0.5,1.7-0.8,2.5c-0.5-0.6-1.4-1.3-1.5-2c-1.1-7.7,1-14.4,6.1-20.3c1-1.1,1.9-2.4,3-3.4
		c3.6-3.4,7.4-6.7,11.2-10.2c2.1,2.5,4.7,4.2,4.9,7.6c0,0.6,0.1,1.3-0.2,1.8c-2.2,3.9-4.5,7.8-6.7,11.7c-4.8-1-7.8,2.3-7,7.5
		c0.3,1.8,0.8,3.6,1,5.4c0.1,1.4-0.1,2.8-0.6,4.3c-2.2-2.6-2.4-5.8-2.7-8.8s-0.1-6.1-0.1-9.6C436,280.1,435.6,281.2,435.5,282.3z
		 M427.8,360.5c1.1-6.7,2.6-13.4,3.1-20.1c0.7-9.7,3.7-18.7,6.5-27.8c1.5-4.9,4.5-9.4,7-14c1.7-3.1,3.7-6,5.5-9
		c0.2-0.4,0.5-0.9,0.5-1.3c0-0.6-0.3-1.2-0.5-1.8c-0.5,0.3-1.2,0.5-1.5,0.9c-1.7,2.7-3.4,5.4-5.1,8.1c-0.3,0.5-0.7,0.8-1.4,1.7
		c-0.4-4.2-0.9-7.8-1.2-11.4c-0.2-2.2,0.9-3.6,3.2-3.9c0.5,2,0.9,4,1.3,5.9c0.3,0.1,0.7,0.1,1,0.1c0.3-1,1.1-2.1,0.9-2.9
		c-0.6-2.8,0.7-4.9,2-7.1c1.8-2.9,3.5-5.7,5.4-8.5c0.4-0.5,1.4-1.1,2.1-1c5.5,0.7,10.7,0.3,16-1.4c4.2-1.3,7.7,1.5,7.5,5.8
		c-0.3,5.1-0.4,10.2-1.1,15.2c-0.4,2.5-1.6,5.2-3,7.4c-2.1,3.4-3.5,7.1-3.6,11c-0.2,10.1-2.4,19.9-4.9,29.6c-1.2,4.5-3.6,8.7-5.4,13
		c-2,4.8-4.1,9.7-6.1,14.5c-0.6,1.6-1.5,2.1-3.2,2.1c-6.5-0.1-13-0.4-19.4-2c-1.3-0.3-2.5-0.5-3.8-0.5
		C427.7,363,427.6,362,427.8,360.5z M425.9,456.4c-1.3,0.2-2.8-0.3-4.3-0.5c0.6-2.5,1.8-3.7,3.7-3.6c0.7,0,1.8,1,1.8,1.4
		C427.1,454.7,426.5,456.3,425.9,456.4z M438.8,394.3c-0.7,1.4-1.2,3.1-1.1,4.7c0.4,6.9,0.8,13.7-2.2,20.4
		c-1.4,3.1-1.3,6.9-1.6,10.5c-0.6,5.9-0.8,11.7-1.4,17.6c-0.2,2.2-1,4.4-1.6,6.7c-1.7-1.9-3.2-3.5-4.9-5.4c0.3-0.4,1.2-1.1,1.7-2
		c0.4-0.7,0.4-1.6,0.5-2.4c-0.7,0.1-1.5,0.1-2.1,0.4c-1.2,0.6-2.2,1.4-3.2-0.3c-0.2-0.4-0.9-0.4-1.4-0.6c-0.2,0.5-0.6,1-0.5,1.5
		c0.4,2.8-0.5,5.3-1.8,7.7c-1.3,2.5-2.3,3-5.5,2c1.2-1.8,2.4-3.7,3.6-5.5c-0.3-0.2-0.5-0.4-0.7-0.6c-2.9,0.2-4,2.9-6,5.1
		c0.7-3.9,5-5.7,4.8-9.5c-0.3-0.2-0.7-0.4-1-0.6c-2,2.5-4,4.9-6.3,7.8c-0.5-2.2,0.6-3.5,1.8-4.8c1.2-1.4,2.4-2.9,3.4-4.5
		c0.4-0.6,0.1-1.6,0.2-2.4c-0.7,0.3-1.5,0.6-2.2,0.9c-0.3,0.1-0.5,0.4-1.3,1c0.3-1.4,0.4-2.3,0.7-3.1c2.3-6.5,4.8-13,6.8-19.6
		c1.3-4.4,1.7-9,1.3-13.7c-0.2-3,0.3-6.2,1-9.2c1-4.2,2.4-8.4,3.6-12.6c0.3-1.2,0.7-1.8,2.3-1.5c3.2,0.6,6.5,0.8,9.7,1.2
		c2.8,0.3,5.6,0.7,8.9,1.2C442.3,388.2,440.4,391.2,438.8,394.3z M449.2,380.9c-2.5,0.2-5.2,0-7.8-0.2c-2.5-0.2-5.1-0.5-7.6-0.7
		c-1.1-0.1-2.2,0-3.3-0.2c-4.9-0.7-5.4-1.2-5-6.1c0.1-1.9,0.4-3.9,0.6-5.9c0.2-1.5,1-2.2,2.6-1.9c4.2,0.7,8.3,1.3,12.5,2
		c8.6,1.4,17.2,0.6,25.8-0.1c9.1-0.7,18.2-1.5,27.2-2.3c9.4-0.8,18.9-1.5,28.3-2.6c4.5-0.5,8.8-2,13.2-3.1c0.7-0.2,1.4-0.5,2.7-1
		c0.6,3.9,1.3,7.4,1.8,11c0.1,0.4-0.8,1.4-1.4,1.5c-8.5,1.8-16.9,4.2-25.5,5c-14.3,1.3-28.7,1.4-43,2.3
		C463.2,379,456.2,380.2,449.2,380.9z M519.4,394.2c-0.4,3.8-1.9,6.7-5.1,8.7c-5.6,3.6-11.4,5.9-18.2,5.5c-6-0.3-12.1,0-18.1-0.1
		c-1.3,0-2.7-0.4-4-0.7c-6.7-1.6-8.7-5-6.8-11.7c1.4-4.6,2.1-9-0.7-13.8c1.7-0.3,2.8-0.6,3.9-0.7c10.6-0.6,21.1-1.3,31.7-1.9
		c3.5-0.2,7.1-0.2,10.7-0.1c0.6,0,1.6,0.3,1.8,0.8C517,384.6,520.1,388.7,519.4,394.2z M537.8,454.9c-1,0.7-2.1,2.1-2.9,1.9
		c-1-0.3-2.1-1.7-2.3-2.8c-0.1-0.6,1.5-2.1,2.4-2.1c0.9,0,1.9,1.2,2.8,1.9V454.9z M551.1,450.7c-1.6-2.2-3.2-4.3-4.8-6.5
		c-0.3,0.2-0.5,0.3-0.8,0.5c-0.3,3.6,3.2,6,3.9,9.3c-0.4,0.2-0.7,0.4-1,0.6c-1.8-2.5-3.6-5-5.7-7.8c-1.9,3.4,2,5.1,1.4,7.8
		c-1.6,0.6-2.5-0.2-3.3-1.6c-1.8-3.2-3.5-6.4-5.4-9.5c-0.3-0.5-1.1-0.6-1.7-0.9c-0.4,0.7-1,1.5-0.9,2c0.4,1.3,1.2,2.5,1.7,3.7
		c-1.5,1.2-3,2.3-4.6,3.5c-1.7-3-2.9-6-2.5-9.5c0.6-5.6,1.2-11.3,2-17c0.8-5.4,0.1-10.6-2-15.6c-1.3-2.9-1.3-5.8-0.5-9
		c0.3,0.8,0.7,1.7,1,2.5c0.2,0.8,0.3,1.6,0.7,2.3c0.7,1.2,1.4,3.2,3.2,2.3c1.7-0.9,0.1-2.3-0.3-3.5c-2.6-8.2-7.9-15-12.1-22.4
		c-0.3-0.6-0.6-1.2-0.9-1.9c-0.1-0.2,0-0.5,0-0.9c4.3-0.9,8.7-1.8,13-2.7c2.4-0.5,4.9-1,7.2-1.8c2-0.7,2.8-0.1,3.2,1.8
		c1.7,9.7,3.9,19.3,3.4,29.3c-0.4,7.2,0.9,14,3.8,20.7c2.2,5.3,2.4,11.1,2.7,16.8c-0.2,0.1-0.4,0.1-0.6,0.2
		c-0.7-0.6-1.2-1.3-1.9-1.9c-0.5-0.3-1.1,0-1.7,0c0.1,0.6-0.1,1.3,0.2,1.7c1.1,1.6,2.4,3,3.4,4.6c0.4,0.6,0.5,1.6,0.7,2.4
		C551.7,450.4,551.4,450.5,551.1,450.7z"/>
	<path class="st0" d="M472.4,183.8c2.6,1.6,4.1,0.4,5.6-1.2c0.5-0.5,1.4-0.7,2.1-1c-0.3,0.8-0.3,1.8-0.8,2.3
		c-2.8,3.1-6.6,2.6-9.6-0.3c-1.6-1.6-3.1-3.1-3.7-5.3c-0.1-0.4,0-0.8,0.2-1.4c1.8,1.7,1.9,5.7,5,5c2.1-0.5,3.8-2.9,5.7-4.6
		C477.6,180.6,474.7,181.9,472.4,183.8z"/>
	<path class="st0" d="M471,167.6c1.1-0.7,2.1-1.5,3.2-2.1c3.8-1.8,7.7-3.6,11.6-5.4c0.4-0.2,0.9,0,1.4,0c-0.3,0.5-0.4,1.2-0.8,1.4
		c-2.6,1.4-5.2,2.7-7.8,4c-1.6,0.8-3.1,1.5-4.8,2.2c-0.8,0.3-1.7,0.4-2.5,0.6C471.2,168.1,471.1,167.8,471,167.6z"/>
	<path class="st0" d="M475,169.4c4,1.8,6.1-1.6,9-3.2C483.7,170,478.4,172,475,169.4z"/>
</g>
</svg>
