<?xml version="1.0" encoding="utf-8"?>
<!-- Generator: Adobe Illustrator 19.1.0, SVG Export Plug-In . SVG Version: 6.00 Build 0)  -->
<svg version="1.1" id="Layer_1" xmlns="http://www.w3.org/2000/svg" xmlns:xlink="http://www.w3.org/1999/xlink" x="0px" y="0px"
	 viewBox="0 0 100 228.1" style="enable-background:new 0 0 100 228.1;" xml:space="preserve">
<style type="text/css">
	.st0{fill:#00BCD4;}
</style>
<g id="constipation-recom">
	<path class="st0" d="M4,228.1c0.1-0.9,0.1-1.7,0.3-2.6c0.4-1.8-0.1-3.3-1.3-4.6c-1.5-1.6-1.6-3.4-1-5.3c0.4-1.3,1.1-2.6,1.5-3.9
		c0.2-0.5,0.2-1.1,0.2-1.7c0-1.6-0.2-3.1-0.1-4.7c0.2-3.5,1.3-6.7,2.7-9.9c0.1-0.3,0.1-0.7,0.1-1c0-2.3,0-4.5,0-6.8
		c0-0.4-0.3-0.7-0.4-1.1c-0.3-0.7-0.5-1.5-0.8-2.3c-0.4-1.1,0.3-1.4,1.1-1.9c1.9-1,2.4-2.1,2-4.3c0-0.2-0.1-0.5,0-0.7
		c0.3-1.5-0.2-2.6-1.9-3c-0.3-0.1-0.6-0.4-0.7-0.6c-0.6-1.6-1.1-3.2-1.6-4.8c-0.2-0.6-0.2-1.2-0.1-1.8c0.2-1.1,0-1.9-0.5-2.9
		c-0.3-0.6-0.1-1.6,0.2-2.2c0.5-1.3,1.1-2.5,1.7-3.7c0.6-1.2,1.3-2.4,2.1-3.8c-4.3-4-7.5-8.7-6.7-15.3c0.7-6.1,2.4-11.6,7.5-15.7
		c-0.3-0.2-0.5-0.4-0.7-0.5c-1.5-0.9-2.9-1.8-4.4-2.7c-1.4-0.8-2-2-1.9-3.6c0-0.4-0.2-0.9-0.5-1.1c-1-0.8-1.1-1.4-0.5-2.5
		c0.5-1.1,0.8-2.2,1.1-3.4c0.1-0.2-0.3-0.6-0.6-0.9c-1-1-1.1-1.7-0.6-3c0.7-1.7,2-2.6,3.9-2.5c1.5,0.1,3.1,0,4.6,0.1
		c1.1,0.1,2.2,0.5,3.5,0.8c-0.7-2.8-1.4-5.6-2.2-8.3c-0.5-1.6-1.3-3-1.7-4.6c-0.3-0.9-0.1-1.9-0.1-2.9c0-0.3,0-0.7-0.1-1
		c-2-5.9-3.4-12-4.8-18.1c-0.7-2.9-0.7-5.7-0.3-8.6c0.4-3.1,1.8-5.9,4-8.1c3.4-3.5,7.4-6.1,11.6-8.4c1.6-0.9,3.6-1.2,5.3-2
		c1.6-0.7,3.2-1.7,4.8-2.5c0.6-0.3,0.6-0.7,0.3-1.3c-1.3-3.2-1.7-6.5-1.4-9.9c0.2-2.4,0.2-4.9,0.6-7.2c0.5-2.8,1.2-5.6,2.2-8.2
		C32.6,8,36.3,4,41.4,1.4c1.3-0.7,2.9-1,4.5-1.2c4.4-0.5,8.7-0.1,12.9,1.2c7,2.2,11,8.5,11.2,15.2c0.1,2.7,0.2,5.4,0.3,8
		c0,0.8,0.2,1.4,1.2,1.6c0.4,0.1,0.7,0.6,0.9,1c0.2,0.5,0.2,1.1,0.1,1.6c-0.8,3-1.5,5.9-2.4,8.8c-0.4,1.2-1.4,2.2-2.1,3.3
		c-0.5,0.7-0.6,1.1,0.5,1.3c5.8,1,10.9,3.5,15.5,6.9c2.4,1.7,4.5,3.7,6.7,5.7c4.6,4.3,6.7,9.5,6.5,15.9c-0.1,3.5-1.3,6.8-1.7,10.2
		c-0.2,1.6-0.4,3.2-0.6,4.7c-0.1,0.7,0.2,1.1,0.9,1.3c1.5,0.4,2.8,1.2,3.7,2.6c1,1.6,0.7,3.1-0.8,4.1c-1.4,0.9-1.8,3.3-0.6,5.1
		c1.2,1.9,1.4,3.7,0.6,5.7c-0.4,0.9-0.9,1.6-1.9,1.7c-3.1,0.3-5.1,2.4-7.3,4.2c-0.2,0.2-0.4,0.6-0.5,0.9c-1.4,3.2-2.6,6.5-4.8,9.2
		c-0.6,0.8-1.1,1.8-1.6,2.9c1,0.7,2,1.3,3,2c3.9,2.6,6.7,5.9,6.8,10.9c0,1.7,0.1,3.5,0.2,5.2c0.1,2.8-1.3,5.1-2.4,7.5
		c-1.3,3.1-3.4,5.3-6.1,7.1c-0.9,0.6-1.2,1.3-0.7,2.4c1.8,3.7,3.4,7.4,5.1,11.1c0.5,1.1,0.9,2.2,0.2,3.2c-0.9,1.2-2.2,1.6-3.6,1.4
		c-0.6,0-1.1-0.3-1.7-0.3c-0.2,0-0.6,0.2-0.7,0.4c-0.1,0.1,0.1,0.5,0.3,0.7c1.8,1.3,1.7,3,1,4.7c-0.7,1.7-0.9,3.3-0.6,5.2
		c0.4,3.1,0.3,6.2,0.6,9.4c0.1,0.9,0.6,1.8,1,2.6c0.9,1.8,1.9,3.5,2.7,5.3c0.3,0.7,0.3,1.6,0.1,2.3c-0.3,1.8-0.1,3.5,0.2,5.3
		c0.2,1.3-0.2,2.7-0.5,4c-0.4,1.7-0.5,3.3-0.2,4.9c0.1,0.7,0,1.5-0.1,2.2c-0.4,2.5-0.2,5,1,7.3c-8.5,0-17,0-25.5,0
		c-0.2-0.9-0.3-1.7-0.5-2.5c-0.5-2.3-0.2-4.7-1.7-6.9c-1.2-1.7-0.9-3.8-0.3-5.8c0.3-0.9,0.3-2,0.1-2.9c-0.4-1.5-1-2.9-1.6-4.4
		c-1.7-4.2-2.2-8.5-0.4-12.8c0.2-0.5,0.2-1.1,0.1-1.5c-0.6-1.8-1.3-3.6-2-5.4c-0.2-0.4-0.5-0.8-0.8-1c-1.9-1.4-3.9-2.7-5.8-4.1
		c-0.2-0.2-0.5-0.4-0.7-0.6c-1.1-1.3-2.2-2.7-3.3-4c-3.1,2.2-6.6,2.8-10.1,3.9c-0.3,1.3-0.6,2.9-1.1,4.4c-0.4,1.1-0.4,2.1-0.2,3.1
		c0.2,1,0.6,2.2,0.3,3.1c-0.7,2.4-1.6,4.7-2.7,7c-0.5,1-1.3,1.9-2,2.8c-0.3,0.5-0.7,1.1-0.8,1.7c-0.2,2.1-0.3,4.2-0.6,6.3
		c-0.1,0.9-0.1,1.6,0.8,2.2c1,0.6,1.3,1.7,1.3,2.7c0,2.6-0.7,4.9-2.6,6.8c-0.9,0.9-1.3,2.1-1,3.5c0.3,1.5,0.4,3,0.5,4.5
		C19.6,228.1,11.8,228.1,4,228.1z M90.9,140.1c-0.1-1.4-0.2-2.8-0.3-4.2c-0.4-4.3-2.4-7.7-6.4-9.7c-1.7-0.9-3.5-1.8-5.3-2.6
		c-5.6-2.6-11.1-5.1-16.7-7.6c-1.5-0.7-3.2-1.3-4.9-1.5c-4.3-0.5-8.3,0.5-12,3c-1.1,0.8-1.6,1.8-1.6,3.2c0,2.6-0.1,5.3-0.3,7.9
		c-0.2,2.3-0.1,4.5,0.5,6.7c0.8,3,1.7,6,2.4,9.1c0.4,1.7,0.7,3.2,2.4,4.1c0.4,0.2,0.7,0.7,1.1,1c1.4,1.5,1.5,1.5,3.4,0.8
		c4.4-1.7,8.8-3.5,13.2-5.1c1.4-0.5,2.9-0.9,4.3-1.3c1.4-0.3,1.4-0.3,1-1.6c-1-3.2-2.1-6.4-3.1-9.6c-0.2-0.6-0.2-1.2-0.2-1.8
		c0-0.4,0.3-0.8,0.5-1.1c0.3,0.3,0.8,0.6,0.9,1c0.4,1.2,0.7,2.5,1.1,3.7c0.7,2.4,1.4,4.8,2.1,7.2c0.4,1.2,1.2,1.8,2.5,1.6
		c0.7-0.1,1.4-0.1,2-0.1c2.8,0.2,3,0.8,3,3.6c0,0.4-0.2,0.7-0.2,1.1c-0.1,0.8-0.2,1.6,0,2.3c0.3,1,0.8,2,1.2,3
		c0.5,1.7,0.7,1.8,2.1,0.7C88.3,150.5,91,146,90.9,140.1z M65.6,115.8c0.7,0.4,1.3,0.8,1.9,1c3,1.2,6,2.4,8.9,3.7
		c1.2,0.5,2.3,1.2,3.6,1.8c0.3,0.1,0.9,0.1,1.1-0.1c1.3-2.1,2.9-4,3.9-6.3c2.4-5.6,5.3-10.9,6.7-16.8c0.8-3.3,1.7-6.7,1.5-10.2
		c-0.2-3.4,0.1-6.7,1-10c0.7-2.6,1.2-5.3,1.3-8c0.3-5.8-1.4-10.7-5.6-14.7c-2.1-2-4.4-3.9-6.7-5.8c-0.4-0.3-0.8-0.6-1.2-0.8
		c-0.1,0.1-0.3,0.2-0.3,0.3c-0.1,0.2-0.2,0.3-0.2,0.5C79.5,56.7,77,63,76,69.7c-0.7,4.6-1.1,9,0,13.6c0.5,2.1,0.4,4.3-0.6,6.4
		c-0.7,1.6-1.1,3.4-1.6,5.2c-0.6,2.3-1,4.6-1.7,6.9c-0.7,2.4-1.6,4.7-2.3,7.1c-0.7,2.5-1.4,5-4,6.4
		C65.8,115.4,65.7,115.5,65.6,115.8z M65.9,29.9C65.9,29.9,65.9,29.9,65.9,29.9c0-0.8,0.1-1.6-0.1-2.4c-0.4-1.3-0.7-2.9-1.6-3.8
		c-1.5-1.5-3.4-2.5-5.8-2.5c-2,0-3.6,0.7-5.1,1.9C52.3,24,51,23.8,50,22.7c-1.2-1.4-2.7-2.1-4.6-1.8c-2.1,0.4-4.2,0.7-6.2,1.1
		c-2.3,0.4-4.8,3.1-5,5.4c-0.3,3.7-0.4,7.4-0.6,11.1c0,0.9-0.1,1.7,0.8,2.3c0.3,0.2,0.4,0.8,0.5,1.2c0.3,1.3,0.5,2.7,0.8,4.1
		c0.6,2.7,1.2,5.4,2.9,7.7c1,1.4,2.4,2.6,3.5,4c1.9,2.6,4.9,3.6,7.6,4.9c0.2,0.1,0.5,0.1,0.8,0.1c2.7-0.2,4.9-1.5,6.5-3.7
		c0.9-1.1,1.6-2.4,2.6-3.3c2.3-2.2,3.4-4.9,4.1-7.9c0.3-1.1,0.5-2.3,0.9-3.4c0.4-1.4,1.1-2.7,1.4-4c0.3-1.8,0.5-3.8,0.5-5.6
		C66.3,33.3,66,31.6,65.9,29.9z M55,84.9c0,0.1,0,0.3,0,0.4c2.3-0.2,4.5-0.3,6.8-0.6c2.2-0.3,4.3-0.8,6.5-1.2c1.2-0.2,1.6-1,1.7-2
		c0.1-2.1,0.2-4.2,0.2-6.2c-0.1-6.1,0.9-12.1,2.5-17.9c0.8-3.1,1.8-6.1,2.7-9.2c0.5-1.8,0.3-2.2-1.4-3c-2.3-1-4.8-1.8-7.3-1.6
		c-0.4,0-1,0.6-1.2,1.1c-0.5,1.4-0.7,2.9-1.1,4.3c-0.8,2.6-1.4,5.2-3.6,7c-0.7,0.6-1.3,1.3-1.8,2c-1.6,2.4-3.6,4.4-6.4,5.4
		c-1.5,0.6-2.8,0.6-4.2-0.1c-3-1.4-5.7-3.1-7.8-5.7c-0.2-0.3-0.7-0.3-1-0.5c-0.1,0.4-0.2,0.8-0.1,1.2c0.2,1.2,0.7,2.4,0.8,3.6
		c0.5,3.5,1,7,1.2,10.6c0.2,3,0,6,0,8.9c0,0.7,0.3,1.8,0.9,2.1c1.1,0.6,2.4,1.1,3.6,1.1C48.9,85,51.9,84.9,55,84.9z M16.1,110.5
		c0.2,0,0.3-0.1,0.5-0.1c0.2-0.3,0.5-0.6,0.6-0.9c0.6-1.8,1.3-3.5,1.8-5.4c0.6-2.6,0.8-5.3,1.4-7.9c0.9-3.4,1.1-6.8,1-10.2
		c0-1.1,0-2.3,0.2-3.4c0.7-3.3,1.5-6.5,2.2-9.8c0.7-3.4,1.5-6.7,0.8-10.2c-0.3-1.4-0.8-2.8-1.1-4.2c-0.7-4.1-2.9-7.5-4.5-11.2
		c-0.4-1-1-1-1.9-0.4c-1.7,1.3-3.5,2.5-5.3,3.7c-7.1,5-8.3,10.4-7.3,17.1C5.4,72.8,6.9,77.9,8.2,83c1.7,6.6,3.5,13.2,5.3,19.7
		c0.4,1.4,0.7,2.9,1.1,4.3C15,108.2,15.6,109.3,16.1,110.5z M58.6,100c0,0.1,0,0.3-0.1,0.4c-0.2,0.1-0.4,0.2-0.6,0.2
		c-2,0.1-4,0.3-6,0.3c-4,0-7.9-0.2-11.9-0.3c-1.1,0-1.5,0.4-1.4,1.4c0.1,1.1,0.2,2.3,0.3,3.4c0.1,1,0.7,1.4,1.7,1.2
		c0.6-0.1,1.3-0.3,1.9-0.4c4.4-0.7,8.8-1.5,13.2-2.2c1.6-0.3,3.2-0.8,4.7-1.1c2.9-0.7,5.8-1.3,8.7-1.9c1.1-0.2,1.8-0.9,2-2
		c0.2-1,0.5-2,0.7-3c0.6-2.6,1.2-5.2,2.3-7.7c0.5-1.2,0.4-2.7,0.3-4.1c-0.1-1-0.7-1.9-0.8-2.9c-0.1-1.1,0-2.2,0.1-3.2
		c0.2-2.6,0.3-5.1,0.6-7.7c0.6-5.3,2.1-10.4,4-15.4c0.6-1.7,1.1-3.4,1.5-5.1c0.1-0.6,0.1-1.5-0.3-1.8c-0.7-0.6-1.7-0.8-2.5-1.2
		c-0.1,0.3-0.3,0.5-0.3,0.7c-0.5,1.9-1,3.7-1.5,5.6c-0.7,2.3-1.4,4.6-2,7c-1.7,6.7-2,13.5-1.9,20.4c0,0.8-0.1,1.6,0.1,2.4
		c0.3,1.5,0.2,1.7-1.4,1.9c-0.3,0-0.6,0.1-0.9,0.1c-6.8,1.6-13.7,2.2-20.7,1.4c-1.8-0.2-3.7-0.3-5.5-0.6c-1.6-0.3-1.9-0.3-2.3,1.3
		c-0.7,3.3-1.4,6.7-2,10c-0.1,0.3,0,0.6,0,0.9c0.1,0.8,0.6,1.2,1.4,1.2c1.3,0,2.6,0.2,3.8,0.2c4.3,0.1,8.6,0.2,12.9,0.3
		C57.4,99.6,58,99.8,58.6,100z M42.4,122.9c-0.1-2-0.1-3.5-0.3-5c-0.1-1.2-0.5-2.3-1.6-2.9c-3-1.8-6.4-2.4-9.7-2
		c-2.3,0.3-4.5,1.6-6.6,2.8c-4.4,2.5-7.2,6.1-6.7,11.5c0,0.5,0.2,1.2,0.6,1.3c1.1,0.5,0.9,1.2,0.5,2c-0.7,1.2-1.3,2.5-1.8,3.8
		c-0.8,2.1-0.5,2.6,1.8,3.1c0.1,0,0.1,0,0.2,0c2.1,0.1,3.9,0.9,5.9,1.6c4.4,1.7,9,3.2,13.4,4.8c1,0.4,1.4-0.2,1.6-1
		c0.7-2.6,1.6-5.2,1.9-7.8C42,130.9,42.1,126.6,42.4,122.9z M48.1,152.7c0.3-0.2,1.1-0.4,1.2-0.7c0.1-0.5-0.3-1.1-0.7-1.5
		c-2.5-2.4-5.5-3.8-9-4.2c-0.4,0-0.8-0.3-1.2-0.4c-2.2-0.8-4.3-1.7-6.5-2.5c-1-0.4-2-0.5-3-0.9c-3.3-1.3-6.3-3.2-10-3.5
		c-0.7-0.1-1.4-0.1-2-0.4c-1.6-0.9-2.9-0.1-4.3,0.6c-2.7,1.4-4.1,4-5.8,6.3c-0.4,0.6-0.2,1.2,0.7,1.3c0.8,0.1,1.7,0.2,2.5,0.2
		c3.4-0.1,6.7,0.6,9.9,1.6c1.9,0.6,3.6,1.7,5.8,1.3c0.8-0.1,1.7-0.2,2.4,0.7c0.1,0.2,0.6,0.2,0.8,0.2c5.2-0.4,10.3,0.6,15.3,1.5
		C45.4,152.4,46.6,152.5,48.1,152.7z M69.9,102.8c-0.8,0-1.5-0.1-2.3,0c-3,0.6-6,1.4-9.1,2c-5.5,1.1-11,2.2-16.5,3.2
		c-1.5,0.3-2.9,0.4-3.5,2.2c-0.5,1.6-0.6,1.8,1,2.4c1.4,0.5,2.8,1,3.2,2.7c0.4,1.7,0.8,1.9,2.3,1c0.2-0.1,0.4-0.3,0.6-0.5
		c1.4-0.7,2.8-1.7,4.4-2.1c4.1-1.1,8.2-1,12.2,0.7c0.5,0.2,1.3,0.3,1.8,0.1c0.8-0.4,1.6-1,2.3-1.6c0.5-0.4,1.1-0.9,1.2-1.4
		C68.5,108.7,69.1,105.8,69.9,102.8z M6.8,109.1c-0.9,0.1-1.5,0.3-2.1,0.3c-0.9,0-1.4,0.5-1.9,1.2c-0.4,0.7-0.1,1,0.5,1.1
		c0.6,0.1,1.1,0.1,1.7,0.3c0.3,0.1,0.5,0.5,0.8,0.8c-0.3,0.2-0.7,0.4-1,0.4c-0.6,0-1.1-0.4-1.6-0.3c-0.5,0.1-1,0.5-1.4,0.8
		c-0.1,0.1,0,0.7,0.2,0.8c0.9,0.7,1.8,1.5,3.1,1.2c0.3-0.1,0.7,0,1,0.1c0.2,0.1,0.4,0.4,0.6,0.6c-0.2,0.2-0.4,0.5-0.7,0.5
		c-0.7,0.1-1.4-0.1-2,0c-0.4,0.1-1,0.3-1.1,0.6c-0.1,0.3,0.2,0.9,0.5,1.1c1.8,1.1,3.6,2.2,5.4,3.3c0.8,0.5,1.2,0.2,1.4-0.7
		c0.7-3.2,2.3-6,4.6-8.3c0.2-0.2,0.4-0.7,0.3-1c-0.7-2.1-1.4-4.3-3.4-5.7c-0.6-0.4-1.1-1-1.7-1.1c-2.2-0.2-4.4-0.3-6.5-0.4
		c-1,0-2.2,1.5-2,2.4c0.1,0.8,1.3,1.2,2.6,1C4.9,108.1,5.8,107.9,6.8,109.1z M4.4,148.1c0.3-0.8,0.5-1.4,0.7-2
		c0.2-0.5,0.2-1.1,0.5-1.6c1.6-2.5,3.2-5.1,5.8-6.7c1.3-0.8,1.2-1,0.5-2.3c-1.7-2.7-2.5-5.6-2.5-8.7c0-0.5,0-1.1,0-1.6
		c-0.1-0.1-0.3-0.2-0.4-0.3c-0.7,0.6-1.5,1-2.1,1.7c-3.8,4.4-5,9.8-4.8,15.4C2.4,144.1,2.8,146.2,4.4,148.1z M25.4,57.5
		c0-2.1,1.2-4.1,0.1-6.4c-0.7-1.4-0.8-3.1-1.3-4.6c-0.8-2.6-1-2.6-3.5-1.5c-0.1,0-0.1,0.1-0.2,0.1c-0.6,0.3-0.7,0.6-0.4,1.2
		C21.9,50,23.6,53.7,25.4,57.5z M32.4,36.9c0.2,0,0.3-0.1,0.5-0.1c-0.3-1.6-0.6-3.2-0.9-4.8c-0.1-0.5-0.2-1-0.2-1.4
		c-0.1-1.5-0.8-2.4-2.5-2.7c-0.1,1-0.3,2-0.4,3.1c-0.2,2.7,1,5,1.8,7.5c0.2,0.7,0.5,1.7,2,1.7c-0.1-0.8,0-1.9-0.4-2.2
		c-1.4-1-1.7-2.3-1.7-3.8c0-0.3,0.3-0.5,0.4-0.8c0.1,0.3,0.4,0.5,0.4,0.8C31.5,35.2,31.5,36.2,32.4,36.9z M91.6,106
		c0.4-0.1,0.7-0.2,0.9-0.2c1-0.3,2-0.7,3-1c1.3-0.3,2.2-1.3,2.1-2.6c0-0.2-0.6-0.6-0.9-0.6c-0.5,0.1-1,0.5-1.6,0.6
		c-0.4,0.1-0.8-0.1-1.2-0.1c0.2-0.4,0.2-0.9,0.5-1.2c0.4-0.4,0.9-0.5,1.4-0.8c0.3-0.2,0.4-0.6,0.7-0.9c-0.4-0.2-0.9-0.6-1.2-0.5
		c-0.8,0.5-1.8,1-2.1,1.8C92.5,102.1,92.2,104,91.6,106z M26.4,48.9c0.8-2.3,2.6-4.3,2.2-7.1c-1.4,0.6-2.5,1.2-3.7,1.8
		c-0.2,0.1-0.3,0.5-0.3,0.7C25.3,45.8,25.9,47.4,26.4,48.9z M94.8,94.9c0.6-0.5,1.1-0.8,1.5-1.2c0.4-0.4,0.7-0.9,1.1-1.3
		c1.4-1.2,1.2-2.7-0.5-3.5c-1.4-0.7-2-0.3-2,1.2C94.8,91.6,94.8,93.1,94.8,94.9z M66.9,39.6c0.2,0,0.2,0.1,0.3,0
		c0.1-0.1,0.3-0.1,0.4-0.2c1.4-1.4,1.9-3.3,2.3-5.1c0.1-0.5-0.5-1.1-0.7-1.6c-0.4,0.3-0.9,0.6-1.3,0.9c-0.1,0.1-0.2,0.3-0.2,0.4
		c-0.3,1.7-0.6,3.4-0.9,5.1C66.7,39.2,66.9,39.4,66.9,39.6z M70.6,31.9c0.2-1.2,0.4-2.4,0.4-3.5c0-0.2-0.3-0.7-0.5-0.7
		c-0.2-0.1-0.6,0.2-0.8,0.4c-0.5,0.8-0.9,1.7-1.3,2.6c-0.3,0.6-0.3,1.1,0.7,0.9C69.4,31.5,69.8,31.7,70.6,31.9z M96.2,96.8
		c-0.5-0.3-0.8-0.6-0.9-0.6c-0.4,0.3-0.8,0.6-1.2,0.9c0.2,0.2,0.4,0.5,0.5,0.5C95,97.4,95.5,97.2,96.2,96.8z"/>
	<path class="st0" d="M51.4,53.1c1.3,0.3,2.7,0.5,4,0.8c0.7,0.2,0.8,0.7,0.2,1.3c-0.2,0.3-0.4,0.6-0.5,1c-1,2.4-3,3.3-5.6,3
		c-2.8-0.3-4.3-2.1-5.8-4.1c-0.4-0.5-0.2-0.9,0.3-1c0.9-0.2,1.8-0.4,2.8-0.5c1.5-0.1,3-0.2,4.5-0.3C51.4,53.2,51.4,53.1,51.4,53.1z
		 M44.8,55.3c1.4,2.9,3.8,3.6,6.6,3.2c1.9-0.2,3-1.5,3.4-3.3c-1.7,0.4-3.3,1.2-5,1.2C48.2,56.4,46.5,55.7,44.8,55.3z M45.1,54.2
		c0.9,1.2,7.3,1.1,9.3,0C51.3,54.2,48.3,54.2,45.1,54.2z"/>
	<path class="st0" d="M44.1,39c-1.6-0.5-3.2-1.1-4.8-1.6c-0.3-0.1-0.6-0.4-1-0.5c0.3-0.2,0.7-0.6,1-0.6c0.7,0.1,1.4,0.2,2,0.5
		c1.8,0.9,3.6,1.4,5.7,1.2c0.2,0,0.4,0,0.5,0.1c0.5,0.3,0.9,0.5,1.4,0.8c-0.5,0.2-1,0.4-1.4,0.6c-0.3,0.1-0.6,0.2-0.9,0.4
		c-2.3,1.6-4.7,1.5-7.1,0.2c-0.3-0.2-0.4-0.7-0.6-1c0.4,0,0.9-0.1,1.1,0.1c1.3,0.8,2.6,0.6,3.9,0.2C44,39.3,44,39.1,44.1,39z"/>
	<path class="st0" d="M55.3,39.1c-0.7,0.1-1.5,0.1-2.6,0.2c-0.1,0.4-0.2,1.1-0.3,1.8c0,0.7,0.1,1.4,0,2.1c-1.3-1.5-0.9-4.3,0.5-5
		c0.4-0.2,1-0.2,1.5-0.2c2.6,0.2,5-0.7,7.5-1.4c0.5-0.1,1-0.2,1.5-0.1c0.2,0,0.4,0.3,0.6,0.5c-0.2,0.2-0.4,0.5-0.5,0.5
		c-2.4-0.1-4.4,1.7-6.8,1.3C56.3,38.7,55.8,39,55.3,39.1C55.3,39.1,55.3,39.1,55.3,39.1z"/>
	<path class="st0" d="M46.8,46.6c-0.2,0.4-0.3,0.8-0.5,1.1c-0.7,1.3-0.4,2,0.9,2.5c0.7,0.3,1.4,0.7,2.1,1c0.7,0.4,1.3,0.4,2-0.2
		c0.7-0.6,1.5-1,2.2-1.4c0.7-0.4,0.9-1.2,0.4-1.8c-0.2-0.3-0.4-0.5-0.6-1c0.3,0.1,0.7,0.1,0.8,0.3c0.3,0.6,0.8,1.3,0.6,1.9
		c-0.1,0.5-0.8,1-1.3,1.4c-0.5,0.4-1.1,0.7-1.6,1.2c-0.8,0.9-1.6,1.1-2.7,0.5c-0.9-0.5-1.8-0.9-2.7-1.3c-1.2-0.5-1.6-1.2-1.2-2.5
		c0.2-0.6,0.7-1.2,1-1.7C46.6,46.5,46.7,46.6,46.8,46.6z"/>
	<path class="st0" d="M55.3,39.1c0.4,0.3,0.9,0.6,1.4,0.8c2,0.4,3.9,0.4,5.8-0.6c0.3-0.2,0.7-0.1,1.3-0.2c-1.6,2.6-6.8,2.4-9,0.7
		C54.9,39.6,55.1,39.3,55.3,39.1C55.3,39.1,55.3,39.1,55.3,39.1z"/>
</g>
</svg>
