<?xml version="1.0" encoding="utf-8"?>
<!-- Generator: Adobe Illustrator 18.1.1, SVG Export Plug-In . SVG Version: 6.00 Build 0)  -->
<!DOCTYPE svg PUBLIC "-//W3C//DTD SVG 1.1//EN" "http://www.w3.org/Graphics/SVG/1.1/DTD/svg11.dtd">
<svg version="1.1" id="Layer_1" xmlns="http://www.w3.org/2000/svg" xmlns:xlink="http://www.w3.org/1999/xlink" x="0px" y="0px"
	 viewBox="405 140.4 150 279.2" style="enable-background:new 405 140.4 150 279.2;" xml:space="preserve">
<style type="text/css">
	.st0{fill:#009688;}
</style>
<g id="diarrhea-lady">
	<path class="st0" d="M553,242.8h-5.8c-0.8,0.1-1-0.3-1.3-1c-0.9-3-1.9-6.1-3-9c-2.3-5.8-5.7-10.8-11.4-13.7c-2-1-4.3-1.9-6.5-2.4
		c-1.4-0.3-3,0.1-4.3,0.3c-0.6-2.8-1.1-5.3-1.8-7.9c-0.6-2.7-1.3-5.7-4.2-7c-4.7-2.2-9.4-4.2-14.2-6.1c-2.7-1-3.7-2.7-4.1-5.1
		c-0.4-3-1-6.1-1.6-9.1c-0.3-1.3-1-2.4-1.3-3.7c-0.5-3.3-1.4-6.5-3.4-9.1c-0.3-0.4-0.5-0.9-0.6-1.4c-1.4-3.5-2.7-7.1-4.8-10.3
		c-3-4.2-5.8-8.5-8.9-12.5c-1.4-1.8-2.8-4.1-5.8-3.4c-0.4,0.1-0.9-0.3-1.4-0.4c-4.1-1.4-7.9-0.1-11.3,1.9c-1.3,0.8-2.4,1.8-3.8,2.3
		c-3.5,1.4-6.7,2.9-8.9,6.5c-2,3.3-3.3,6.8-4,10.3c-0.4,1.5-0.7,3.1-0.5,4.3c0,0.2,0,0.4,0,0.6c-0.1,4.1,0,8,0.8,12
		c0.6,3.5,0.3,7.5,0.4,11.2c0,1,0,2.2,0.3,3c0.8,2.8,1.6,5.5,2.4,8.2c1.3,4.8,2.4,9.6,4.8,13.9c0.1,0.4,0.4,0.8,0.3,1
		c-0.9,3.2-0.1,6.2,0.9,8.9c1.6,4.6,1.8,9.4,2.4,14.1c0.6,5.2,0.4,10.5,0.4,15.8c0.1,1.8-0.8,2.4-2.4,2.4c-4.8,0-9.8,0.3-14.7,0
		c-2.7-0.1-4.4,1.1-6.1,2.9c-0.3,0.4-0.5,0.8-0.9,1.1c-3.3,3.9-5.3,8.5-5.2,13.7c0.1,5.6,3.9,10.1,9.9,10h3.4c0,0.5,0.1,0.9,0,1.1
		c-1.1,2.9-2.4,5.7-3.7,8.6c-1.3,3-2.8,6-3.8,9c-1.6,4.7-3.3,9.4-4.1,14.5c-0.6,4.6-2.2,8.7-2.8,13.3c-0.6,4.7-2.3,9.3-2.4,14.1
		c0,1.9-0.5,4.1-1.5,5.6c-1.4,2-1.5,4.1-1.8,6.2c-0.3,2.2-0.1,4.3-0.4,6.5c-0.4,3.3-0.9,6.7-1.5,10c-0.3,1.4-0.6,3-1.4,4.2
		c-1.5,2.3-3.4,4.3-5.3,6.3c-1.4,1.5-2.4,3.3-2.9,5.3c-0.4,1.3,0,2.4,1,3.2c0.6,0.5,1.1,1.1,1.9,1.6c0.6,0.4,1.4,0.9,2.2,1
		c2.2,0.4,4.2-0.1,6.1-1.3c0.9-0.5,1.9-0.8,2.8-1c2.2-0.6,4.2-1.5,5.1-3.8c1.1-2.8,1.6-5.6,1.6-8.6c0-0.6,0.1-1.5,0.4-2.2
		c1.6-4.8,4.6-8.7,8.7-11.7c0.3-0.3,0.5-0.3,0.8-0.3c-0.1,1.3-0.8,2.8-0.3,3.7c0.6,0.9,2.2,1.3,3.3,1.9c0.4,0.1,0.6,0.3,1,0.4
		c2.9,0.9,5.6,2.3,7.9,4.4c0.5,0.5,0.9,0.6,1.4-0.1c0.5-0.9,1.1-1.9,1.9-2.7c2.8-3,4.2-6.6,4.1-10.8c-0.1-1.3,0.6-1.8,1.5-1.8
		c2.5,0,4.1-1.8,5.3-3.5c1.6-2.4,2.8-4.9,4.3-7.4c0.6-0.9,1.1-1.9,1.9-2.7c0.8-0.9,2.7-0.6,3,0.3c1,2.2,1.8,4.4,2.8,6.6
		c1.6,3.7,2.8,7.4,3.7,11.3c1.4,5.8,2.2,11.7,2.2,17.6c0,1.6,0.1,3.3-0.3,4.8c-0.6,2.7-1.5,5.3-2.3,8c-0.6,2.2-1.4,4.2-2,6.3
		c-0.8,2.7-1.1,5.6-2.3,8.2c-0.9,2.3-1,4.1,0.5,6c0.9,1.1,1.9,1.5,3.3,0.9c0.8-0.4,1.5-0.8,2.3-1.1c0.4,0.6,0.6,1.4,1.1,1.6
		c0.5,0.4,1.4,0.8,2,0.5c1.1-0.4,2.2-1,3.3-0.1c0.3,0.1,0.9-0.1,1.3-0.3c1-0.3,2-0.6,3.2-0.9c0.4-0.1,0.8,0,1-0.3
		c1.5-1.5,3.7-2.7,4.1-5.1c0.1-0.8,0.5-1.4,0.6-2c0.4-2.7,0.8-5.3,1-8c0.1-1.5-0.4-3.2-0.1-4.7c1-4.9,1-10,1.4-15.1c0-1-0.3-2-0.3-3
		V375c0.9,0,1.5,0.1,2.2,0c2.4-0.3,4.8-0.4,7.2-0.8c10.1-1.8,17.9-7.5,25-14.3c0.6-0.6,1-1.9,1.1-2.9c0.1-2.7-0.6-5.2-1.4-7.9
		c-1.8-5.8-3.2-11.8-4.7-17.7c-0.4-1.9-1-3.8,0.3-5.6c3.2-4.7,4.3-10.4,6.8-15.3c1-1.9,1.5-4.2,1.8-6.3c0.3-2.8,0.1-5.7-0.1-8.5
		c0-0.9,0.3-1.3,1.1-1.5c3.3-0.9,6.5-1.8,9.6-2.9c1-0.3,2-1.3,2.5-2.3c0.6-1.1,0.8-2.7,1-3.9c1.4-6.6,3-13.2,3.9-19.9
		c0.9-6.7,0.8-13.6,1-20.3C555.1,243.2,554.6,242.8,553,242.8z M520,242.8c0.1,0.1,0.3,0.4,0.3,0.5c0.4,2.9,0.9,6,0.9,8.9
		c0,3.8,2,6.8,2.9,10.4c0.9,3.9,1.8,7.7,2.7,11.7c0.1,0.6,0.4,1.3,0.6,1.9c2,5.6,3.7,11.3,3.5,17.4c0,0.5-0.1,1-0.3,1.9
		c-2.8-4.4-6.3-7.1-10.4-9.1c-1.9-1-3.5-2.5-5.5-3.7c-2.5-1.5-5.1-3-7.6-4.6c-0.4-0.3-0.8-0.4-1.1-1.1c1.4-0.5,2.8-1.3,4.3-1.5
		c2.2-0.3,4.2-0.1,6.3-0.1c1.3,0,2.5,0,3.8-0.1c0.3,0,0.6-0.3,0.9-0.5c-3.3-1.1-6.7,0.3-10.1-0.3c0.1-0.3,0.3-0.5,0.4-0.6
		c2.5-1.6,3.5-4.2,4.2-7c1-4.6,2.2-9,3-13.6c0.5-2.7,0.5-5.6,0.8-8.4C519.7,244.2,519.7,243.6,520,242.8z M479.3,297.2
		c1.4,2.5,2.9,4.9,4.2,7.5c1,2.2,1.9,4.7,2.8,7c1.5,4.1,2.4,8.2,2.4,12.7c0,2.8,0.6,5.5,0.8,8.2c0,0.6-0.6,1.5-1.1,1.8
		c-2.9,1.5-6,3-9.4,3.2c-3.2,0.1-6.5,0.8-9.6,1.1h-1.4c-0.5-0.9-0.9-1.6-1.3-2.3c-1.9-2.9-2.7-6.2-3.4-9.5c-0.9-4.1-2-8.1-2.9-12.3
		c-0.6-3.2-0.9-6.3-1.4-9.5c-0.3-1.4-0.9-2.7-1.1-4.1c-0.4-2-0.6-3.9-0.6-6c0-2.3,0.1-4.6,0.6-6.8c0.4-1.3,1.3-2.4,2.2-3.4
		c1.1-1.5,2.5-2.8,3.8-4.2c0.4-0.5,0.8-1.1,1.3-1.5c1.1-0.6,2.4-1.5,3.7-1.5c4.3,0.1,8.7,0.5,13.1,0.8c4.1,0.3,8.2,0.5,12.4,0.6
		c2.2,0.1,4.4-0.3,6.6-0.5c0,0,0.1,0,0.3,0c2.5-1.8,4.6-0.4,6.6,1c3.2,2.2,6.5,4.3,9.8,6.5c1.4,0.9,3,1.5,4.4,2.5
		c2,1.3,4.1,2.7,5.7,4.3c0.9,1,1.4,2.7,1.9,4.1c0.3,0.4-0.1,1.1-0.5,1.4c-2.2,1.4-4.1,3-6.8,3.7c-3.9,0.9-7.7,2.3-11.7,3.3
		c-1.4,0.4-2.9,0.4-4.3,0.5c-3.3,0.4-6.5,0.9-9.6,1c-3.2,0.1-6.5,0.1-9.6,0c-0.6,0-1.5-0.8-1.9-1.4c-1.9-3-3.7-6.3-5.5-9.5h-0.5
		C479,296.3,478.9,296.8,479.3,297.2z M456.2,331.8h6c0.5,0,1.1,0.4,1.4,0.8c1,1.9,2,3.8,3.3,6.1c-1.4-0.1-2.5-0.3-3.5-0.4
		c-1.6-0.3-3.4-0.6-5.2-1c-1.4-0.4-2-1.3-1.9-2.8C456.4,333.8,456.2,333.1,456.2,331.8z M456.7,316.4c0.6-3.4,0.5-7.1,0.8-10.6v-2.3
		c1.9,9.3,3.7,18.3,5.6,27.3c-2.2,0.3-3.9,0.4-5.7,0.4c-0.4,0-1-0.8-1-1.1C456.5,325.4,455.9,321,456.7,316.4z M504.7,198.8
		c0.8,0.5,0.3,0.9-0.3,1.3c-1.1,0.8-2.3,1.6-3,2.7c-1.6,2.3-2.3,5.1-2.4,7.7c-0.3,4.6-0.4,9.3-0.3,13.8c0,1.8,0.6,3.7,1.1,5.6
		c0.1,0.6,1,1,1.5,1.6c0.3,0.4,0.5,0.8,0.5,1.1c-0.1,5.2-0.1,10.3-0.4,15.3c0,1.4-0.4,3.2-1.3,4.3c-0.5,0.9-2.2,1.3-3.3,1.4
		c-4.4,0.3-8.9,0.4-13.3,0.6c-1.3,0.1-2.7,0.3-3.9,0.4v0.6c6.8-0.3,13.7,0.1,20.8-1.1c0.4,2.4-1,5.1,0.9,7.2
		c-4.4,3.2-19.6,4.3-24.3,4.4c-1.3-2.8-2.2-5.6-3.7-8.1c-1-1.9-2.7-3.5-4.3-4.9c-2.8-2.3-4.7-5.1-5.1-8.6c-0.5-3.8-0.6-7.6-1-11.4
		c-0.1-1.3-0.9-2.5-1.1-3.9c-0.4-1.8-0.4-3.5-0.6-5.3c-0.4-3.2-1.1-6.2-1.3-9.4c-0.1-3.2,0.1-6.3,0.1-9.9c1.3,1.1,2.3,1.8,3,2.7
		c0.4,0.4,0.5,1,0.6,1.5c0.5,2.8,0.9,5.5,1.4,8.2c0.8,3.5,1.5,7.1,2.4,10.6c1.1,4.1,2.7,8.1,5.8,11.2c1.6,1.5,3.5,2.7,6,2.7h5.6
		c1.9-0.1,3.3-0.6,4.7-2.4c3-3.9,3.9-8.5,4.4-13.1c0.8-6.6,1-13.3,2.5-19.8c0.6-2.9,2.4-5.2,4.8-7.1
		C502.4,197.9,503.5,198,504.7,198.8z M475.9,265.4h-9.1v-13.1C472.3,255.2,473.3,260.8,475.9,265.4z M446.3,180.8
		c-0.5-2.3-1.5-4.7-1.3-6.8c0.2-1.7,0.7-3.1,1.5-4.2c1-0.9,2-1.8,3.1-2.6c0.6-0.3,1.3-0.5,2-0.6c0-0.6-0.1-1.3,0-1.9
		c0-0.1,0-0.1,0-0.2c0.1-1.8,0.4-3.7,0.7-5.3c0.4-1.8,0.8-3.6,1.3-5.3c0.5-1.4,1.5-2.7,1.9-4c0.1-0.4,0.4-0.5,0.7-0.5
		c0-0.1,0.1-0.1,0.1-0.2c0.1,0.1,0.1,0.2,0.2,0.2c0.1,0.1,0.2,0.2,0.3,0.3c0,0.1-0.1,0.1-0.1,0.2c0,0.1,0,0.2,0,0.4
		c-0.4,1.3-1.3,2.4-1.8,3.7c-0.4,1.3-0.8,2.6-1.1,3.9c0,0.1,0,0.1,0,0.2c-0.3,2.1-0.5,4.2-0.8,6.3c-0.1,0.5,0,1,0.3,1.4
		c0,0-0.1,0-0.1,0c0.2,0.3,0.3,0.5,0.5,0.8c1.7,0.1,3.4,0.6,5.1,1.6c3.4,2,7,3.8,10.6,5.2c2.5,1,5.5,1.3,8.1,1.8
		c0.9,0.1,1.3,0.4,1.5,1.1c0.4,0.8,0.6,1.4,1.3,2c-0.9-2.9,0.1-5.2,1.6-7.5c0.8-1,2-1.1,2.9-0.4c2.5,2.2,3,9.4-1.1,11.2
		c-1,0.4-1.5,0.3-2.2-0.8c0.6-0.4,1.1-1.1,1.8-1.4c1.4-0.6,2-2.5,1.9-3.8c-0.3-1.5-0.9-1.9-2.4-1.1c0.4,0.4,0.6,0.6,1,0.9
		c0.9,0.8,0.9,2-0.1,2.7c-0.5,0.4-1,0.9-1.6,1.1c-1.3,0.6-1.5,1.8-1,2.7c1.3,1.9,0.6,3.9,0.9,5.8c0.3,1.3,0.5,2.7,1,3.8
		c0.3,0.6,1.3,1.3,2,1.3c1.6,0,3.2,0.3,4.7,0.7c0.7,0.3,1.5,0.6,2.3,0.7c0.9,0.3,1.7,0.6,2.6,0.8c1.9,0.5,3.7,1.4,6,2.3
		c-0.6,0.8-1,1.5-1.8,2c-2.5,1.6-3,4.4-3.8,7c-0.6,2.5-1,5.1-1.4,7.7c-0.3,1.9-0.4,3.9-0.4,6c0,4.8-1.1,9.4-2.5,13.9
		c-1,3.2-4.1,5.3-7.1,5.2c0-1.1,0.1-2.4,0-3.7c-0.1-0.5-0.5-1.1-0.8-1.6c-0.3,0.5-0.6,1-0.6,1.5v4.1c-2.9,0.9-5.5,0.4-7.9-1.5
		c-4.3-3.3-5.3-8.1-6.6-12.9c-0.5-2.4-1.1-4.9-1.6-7.4c-0.4-1.4-0.4-2.9-0.8-4.4c-0.1-0.8-0.9-1.5-1-2.4c-0.1-1,0.1-2.2,0.4-3.2
		c0-0.3,0.4-0.5,0.6-0.5c4.4-0.9,7.7-3.4,10.4-6.8c1.3-1.4,2.4-2.9,3.5-4.4c0.5-0.6,0.9-1.5,1.3-2.4c0-0.3-0.3-0.5-0.4-0.8
		c-0.1,0.1-0.5,0.1-0.6,0.4c-1.9,4.3-4.7,7.7-8.4,10.4c-2,1.4-4.4,2-6.7,2.9c-0.4,0.1-0.9,0-1.1-0.3c-2.5-2.4-4.9-4.8-7.5-7.2
		c-0.1,0-0.1-0.1-0.1-0.1c2-0.6,3.8-1.3,5.2-2.5c1-0.4,1.4-1.4,1-2.4c-0.1-0.5-0.9-0.9-1.4-1.3c-0.1,0.1-0.1,0.3-0.3,0.4
		c0.4,0.1,0.9,0.3,0.9,0.5c0,0.6,0.3,1.5-0.1,1.9c-0.6,0.8-1.6,1.3-2.5,1.6c-0.8,0.3-2,0.5-2.7,0.1c-0.5-0.3-0.6-1.5-0.6-2.4
		c-0.1-2.5,0.1-5.1-0.1-7.5c-0.3-1.8-1.6-3.2-3.3-3.8c-1.1-0.5-2.3-0.8-3.5-0.9C447.4,182.2,446.6,181.9,446.3,180.8z M448.1,183.8
		c2.2-0.4,4.9,0.6,5.7,1.8c-0.5,0.3-1,0.6-1.5,0.9c-0.6,0.4-1.4,0.6-2.2,1C449.5,186.4,448.9,185.2,448.1,183.8z M452.2,187.7
		c0.8-0.3,1.3-0.8,2.2-1.3c1.6,3.5,0.4,7.1,0.1,10.8c-1.1-1.9-2.4-3.9-3.5-5.8c-0.1-0.1-0.1-0.4-0.3-0.6
		C449.8,188.4,449.9,188.3,452.2,187.7z M452.7,229.6c-0.8-3.2-1.6-6.3-2.4-9.6c-0.1-0.8-0.1-1.6-0.1-2.2c1.5,0.4,2.8,0.9,4.1,1.1
		c0,0,0,0,0.1,0c0.3,0,0.7,0.1,1,0.1c2.2,0,2.2-2.4,3.3-3.8c0.8,3.5,1.6,7,1.9,10.5c-0.1,0-0.4,0.1-0.5,0.1
		c-0.8-0.9-1.4-1.9-2.2-2.8c-0.3,0.1-0.4,0.1-0.5,0.3c0.3,0.8,0.4,1.4,0.8,2c0.9,1.8,2,3.5,2.9,5.3c0.4,0.8,0.5,1.8,0.6,2.7
		c0.9,4.7,0.1,9.5,1.9,13.9c0.3,0.6,0.4,1.3,0.8,1.8c1.6,1.9,1.4,4.1,1.4,6.2c0.1,2,0.3,3.9,0.3,5.8c0,1.3-0.3,2.5-0.5,3.8
		c-0.3,0.1-0.4,0.3-0.6,0.4c-0.8-0.6-1.8-1.1-2.3-2.3c-2.2-3-5.1-4.8-8.5-5.3c0.1-2.5,0.3-4.9,0.3-7.4c0-3.4,0-6.8-0.3-10.3
		c-0.1-2-0.8-4.1-1-6.1C452.9,232.5,452.9,231,452.7,229.6z M461.2,263.6c0.8,0.9,1.4,1.8,2.3,2.4c0.6,0.4,1.6,0.4,2.4,0.5
		c1.9,0.1,3.7,0.3,5.6,0.3c3.2,0,6.3,0,9.5-0.1c2.3-0.1,4.6-0.6,6.8-0.9c3.8-0.5,7.6-1,11.3-2.3c1-0.4,2-1,3.2-1
		c1.1-0.1,2.4,0.3,3.5,0.6c0.8,0.1,1.3,0.5,2,0.6c-1.8-1.6-3.5-3.2-6.1-2.3c-0.1-1.3-0.5-2.5-0.5-3.7c0-3.4,0.5-6.7,1.4-10
		c0-0.4,0.1-0.8,0.1-1.1c0-6.1,0.1-12.3,0-18.5c-0.1-1.1-0.5-2.2-0.8-3.2c-0.3,0-0.4,0.1-0.6,0.1c0,1.8,0.1,3.4,0.3,5.2
		c-0.3,0-0.4,0.1-0.5,0.1c-0.4-0.8-1-1.4-1.1-2.2c-0.6-3-0.9-6.1-0.4-9.3c0.4-1.8-0.1-3.8,0.1-5.7c0.4-2.9,0.8-6,1.6-8.7
		c0.4-1.4,1.9-2.5,3-3.7c1.1-1.3,2.4-1.3,3.9-0.4c1.9,1.1,4.1,1.8,6,2.8c2.8,1.4,2.7,4.2,3.5,6.6c1.6,4.2,1.1,8.4,1.1,12.7
		c0.1,5.5,0.1,10.9,0,16.4c0,2.4-0.5,4.8-0.8,7.2c-0.1,1.4-0.1,2.9-0.4,4.3c-0.6,3.3-1.3,6.6-1.9,9.9c-0.4,2.2-0.8,4.3-1.1,6.5
		c-0.4,2.5-1.5,4.6-3.7,6.2c-4.2,3.3-9,4.3-14.2,4.6c-1.4,0.1-2.8-0.3-4.3,0.3c-1.3,0.4-2.7-0.1-4.1-0.3c-2.4-0.1-4.8-0.1-7.2-0.4
		c-2.5-0.3-5.1-0.8-7.6-0.9c-1.9-0.1-3.8,0-5.7,0c0-0.9,0-1.5-0.1-1.9h-0.4c-0.1,0.3-0.4,0.4-0.5,0.6c-1.8,3.2-4.9,4.6-8,6.1
		c-0.4,0.1-1.1,0.4-1.5,0.1c-2.3-1-4.7-0.8-7-1c-1.3-0.1-1.5-1-1.4-2c0.1-1.1,1.1-1,1.8-0.8c2.7,1.1,5.6,0.8,8.4,0.8
		c0.1,0,0.4-0.1,0.8-0.5c-0.6-0.3-1.1-0.8-1.4-0.6c-2.9,1.1-5.7-0.3-8.5-0.6c-1.8-0.3-2.2-1.3-2.5-2.5h10c-0.6-0.9-0.9-0.9-4.8-0.9
		c-1.6-0.1-3.4-0.3-5.1-0.4c-0.1-2,0.1-2,1.8-2.2c2.8-0.1,5.5-0.4,8.2-0.6c0.4,0,0.6-0.3,1-0.4v-0.5c-1,0.1-2.2,0.3-3.2,0.3
		c-2,0.1-4.1,0.3-6.1,0.1c-1.1-0.1-1.3-0.8-0.5-1.6c1.6-2.2,4.1-2,6.3-2.4c0.6-0.1,1.4-0.1,2-0.4c0.1,0,0.4-0.4,0.4-0.6
		c0-0.3-0.4-0.6-0.5-0.6c-1.3,0.3-1.4-0.8-1.9-1.4c-0.9-1-1.9-1.9-2.8-2.9C456.2,259.3,459,260.9,461.2,263.6z M454.3,261.6
		c0.5,0.6,0.9,1.4,1.5,2.4c-1.8,0.3-3.4,0.3-5.1,0.6c-1.1,0.5-2.4,1.5-3,2.7c-1.6,3-2,6.1,0,9.1c0.3,0.4,0.3,1,0.3,1.5
		c-0.3,1.5,0.6,2.7,2.2,2.8c1,0,2.2,0.1,3.2,0.3c1.6,0.1,2,1,1.1,2.3c-2.7,3.9-7.5,3.3-9.3-0.3c-1.6-3.3-3-7-3-10.8
		c0-4.3,1.5-8.2,4.3-11.3C449,258.1,451.5,258.1,454.3,261.6z M436.3,284c-1.8-0.1-3.5-0.5-5.3-0.5c-2.9-0.1-4.3-2-5.5-4.2
		c-1.5-2.8-1.1-5.6-0.5-8.6c0.9-3.9,3.3-7,5.6-10c1.6-2.2,3.7-2.7,6.3-2.3c2.7,0.3,5.3,0.1,8,0.1h3.2c0.1,0.1,0.1,0.3,0.3,0.4
		c-2.3,0-2.7,1.9-3.5,3.3c-2.4,3.4-3.7,7.2-3.3,11.3c0.4,3.9,1.5,7.6,3.5,10.9c0.3,0.4,0.4,0.8,0.8,1.4c-2.8,0-5.3,0.5-7.6-1.3
		C437.7,284.1,437,284.1,436.3,284z M425.4,322.9c0.5-2.8,0.9-5.6,1.6-8.2c1.1-3.9,2.5-7.7,3.8-11.5c0.4-1.3,0.9-2.5,1.4-3.8
		c1.8-4.1,3.5-8.2,5.3-12.4c0.5-1.4,1.5-1.1,2.5-0.6v7.5c0,2,0.3,4.1,0.3,6.1v9.1c0,2.2,0.3,4.2,0.3,6.3s-0.3,4.2-0.3,6.2
		c0,2.4,0.3,4.9,0.3,7.5c0,1.3-0.3,2.5-0.6,3.7c-0.1,0.4-0.8,0.9-1.1,0.9c-2-0.3-4.1-0.8-6.1-1.1c-2-0.3-4.2-0.5-6.2-0.9
		c-0.9-0.1-1.8-0.4-3-0.8C424.2,328.1,424.8,325.6,425.4,322.9z M422.3,337.2c0.4-1.5,0.6-3,1-4.6c0.3-0.8,0.6-0.8,1.4-0.6
		c4.9,1,9.9,1.9,15.3,2.9c-0.1,2.9-0.3,6.2-0.6,9.6c-1.4-0.6-2.7-1.3-4.1-1.8c-1.3-0.4-2.5-0.6-3.8-1.1c-1.8-0.5-3.4-1.3-5.2-1.9
		c-1-0.4-2-0.8-3-1C422.5,338.5,421.9,338.4,422.3,337.2z M434.8,365.3c-0.9,1.3-2.2,2.3-3.4,3.2c-2.4,1.6-3.7,4.3-5.1,6.8
		c-1.9,3.3-1.4,6.8-2.2,10.3c-0.4,1.5-1,3-1.5,4.4c-1.4-1.4-2.5-2.4-3.7-3.4c-0.3-0.3-0.9,0-1.4,0.4c0.8,0.4,1.5,0.8,2.2,1.3
		c0.5,0.5,1,1.3,1.3,2c0.1,0.3-0.1,0.9-0.4,1c-2.7,1-5.5,2-8.1,2.9c-0.6,0.3-1.6,0.1-2.4-0.1c-0.5-0.1-1.3-0.6-1.4-1.1
		c0-0.5,0.5-1.1,1-1.5c1.4-1,2.8-1.9,4.2-2.9c0.4-0.3,0.6-0.8,1-1.3c-0.1-0.1-0.3-0.3-0.4-0.4c-1.9,1.4-3.8,2.9-5.8,4.2
		c-0.5,0.4-1.3,0.4-1.9,0.5c0.3-0.9,0.3-2.2,0.8-2.7c1.3-1.1,2.8-1.9,4.3-2.9c0.8-0.5,1.4-1,2.2-1.5c-0.1-0.3-0.3-0.4-0.4-0.6
		c-1.5,0.9-3,1.6-4.6,2.5c-0.1-0.1-0.1-0.1-0.3-0.3c0.1-0.3,0.1-0.5,0.4-0.8c0.8-0.9,1.6-1.5,2.3-2.4c2.2-2.9,4.2-5.7,4.8-9.6
		c0.8-4.7,1.3-9.1,1.4-13.8c0-2.8,1-5.3,2-8c1-2.5,1.3-5.5,1.8-8.2c0.3-1.3,0.3-2.4,0.4-4.2c1.4,0.5,2.5,0.6,3.8,1.3
		c2.4,1.3,4.8,2.4,7.7,2.8c1.9,0.1,3.8,1.5,5.7,2.4c0.3,0.1,0.3,1,0.1,1.4c-1.1,2.2-2.3,4.3-3.4,6.3c-0.8,1.4-0.9,2.7,0,3.9
		c0.8,1.3,1.9,2.5,1.4,4.1C436.7,362.6,435.8,364,434.8,365.3z M437.6,357.5c-1.8-2.4-1.8-2.4-0.4-4.7c0.6-0.9,1.1-1.8,1.6-2.7
		C439.8,352.1,439,356.5,437.6,357.5z M454.7,349.7c-0.1,1.9-0.4,3.7-0.5,5.6c-0.3,3.3-0.1,6.6-0.4,9.9c-0.1,2.7-1.4,5.1-2.9,7.2
		c-0.6,0.8-1.4,1.4-1.9,2.3c-0.5,0.9-1.1,0.8-1.9,0.4c-3.2-1.5-6.2-3-9.3-4.6c-1.1-0.6-1.9-1.1-1.3-2.7c0.8-1.6,1.4-3.5,1.8-5.3
		c0.6-3.2,1.4-6.5,1.9-9.8c0.4-1.9,0.6-3.8,0.6-5.7c0.1-1.4-0.4-2.9-0.4-4.3c0.1-2.5,0.4-4.9,0.6-7.5c0.4-3.7,1-7.2,0.3-10.9
		c-0.3-1.4,0-2.9,0-4.3c0-3.4,0.3-6.8,0.3-10.3c0-4.6-0.1-9.3-0.3-13.8c-0.1-3-0.4-6.2-0.5-9.8c3,0.4,6.1,0.8,8.6,0.9
		c0.3,0,0.6,0.1,0.8,0c2.2-1.3,4.4-2.2,5.3-4.8c0.1-0.3,0.6-0.5,1-0.5h3.7c-0.5,0.8-1.1,1.8-2,2.5c-1.6,1.6-2.2,3.8-2.2,6
		c0.1,6.5,0.4,12.8,0.3,19.3c0,2.9-0.6,5.7-1,8.6c-0.1,0.5-0.1,1-0.1,1.5c0,4.6,0.1,9,0,13.4c0,2-0.4,4.1-0.5,6.1
		c0,1.1,0.3,2.4,0.3,3.5C455,345.1,454.8,347.4,454.7,349.7z M461.4,348.3c0.4-0.1,0.6-0.1,1-0.1c0,0.3,0.1,0.6,0,0.9
		c-1.6,3.2-3.9,6.1-7.1,8.7c0-1.1-0.1-2,0-2.7C456.5,352.1,458.3,349.5,461.4,348.3z M467.9,346.2c-2.3,3.8-4.4,7.5-6.7,11.2
		c-1.4,2.3-3.7,3.5-6.2,3.3c0.6-1,1-1.9,1.6-2.7c1.9-2.5,3.9-4.9,5.8-7.5c0.3-0.3,0.5-0.5,0.5-0.8c0.1-0.8,0.1-1.6,0.1-2.4
		c-0.6,0.1-1.5-0.1-2,0.3c-1.4,0.9-2.8,2-4.1,3.2c-0.5,0.4-0.8,0.9-1.1,1.4c-0.1,0-0.3-0.1-0.4-0.1c0.3-1.9,0.5-3.9,0.9-6.1
		c0-0.3,0.6-0.5,0.9-0.5c3.5,0.1,7,0.4,10.5,0.6C467.9,346.1,468,346.4,467.9,346.2z M465.6,345.2c-2.5-0.3-5.2-0.4-7.7-0.4
		c-1.3,0-2.2-0.3-2-1.9c0.1-1.4-0.1-2.9,0-4.3c0-0.9,0.6-1,1.4-0.8c4.1,1.4,8.1,1.9,12.4,1.4c4.1-0.6,8.2-0.8,12.3-1.4
		c2-0.4,4.1-1.5,6-2.4s2-0.9,2.4,1.1c0.3,1.1,0.6,2.5,0.3,3.7c-0.3,1-1.3,1.9-2.2,2.7c-3.7,2.9-8,3.5-12.5,3.7
		C472.5,346.1,469.2,345.5,465.6,345.2z M496.4,388.3c-0.1,2.9-0.8,5.8-1,8.7c-0.1,2.7-0.3,5.5-0.1,8.1c0.1,3.4-0.8,6.6-2.4,9.5
		c-0.9-1.9,0.4-4.4-1.3-6.1c-0.3,0-0.4,0.1-0.6,0.1c0.1,0.6,0.4,1.3,0.4,2.2c-0.1,2-0.4,3.9-0.6,5.8c-0.1,0.3-0.5,0.6-0.8,0.6
		c-0.5,0-1.1-0.1-1.4-0.4c-1-1-0.9-2.3-0.6-3.5c0.1-1,0.1-2,0.3-3c-0.1,0-0.4-0.1-0.5-0.1c-0.3,0.3-0.6,0.5-0.6,0.9
		c-0.1,1.9-0.3,3.9-0.4,5.8c0,0.6-0.4,1.1-0.6,1.9c-2.9-2.2-2.3-5.1-2.8-7.9c-0.1,0.4-0.4,0.9-0.4,1.3c-0.1,1.5,0,3.2-0.1,4.7
		c0,0.5-0.5,1.1-0.9,1.6c-0.4-0.4-0.9-0.8-1.3-1.3c-0.3-0.3-0.4-0.9-0.6-1c-0.9-0.5-0.6-1-0.4-1.6c0.8-2.2,1.4-4.4,0.6-6.7
		c-0.3-0.9-0.8-1.6-1.9-1.4c1.9,2.9,0.9,5.7-0.3,8.5c0,0.3-0.4,0.4-0.4,0.6c-0.4,1.4-1.4,2-2.5,1.8c-1.4-0.4-2.4-2.5-1.8-3.8
		c2.8-6,3.5-12.4,5.6-18.6c0.8-2.4,1.4-4.8,1.8-7.2c0.3-2.4,0.4-4.8,0.3-7.2c-0.1-2.3-0.5-4.6-0.9-6.8c-0.5-2.5-1.4-4.9-1.6-7.5
		c-0.5-6-3.8-10.9-5.7-16.4c-0.3-0.6-0.4-1.3-0.8-2.3c6.8,0.3,13.2-0.1,18.8-5.2c0.3,1.5,0.5,2.8,0.8,4.1c0.8,4.3,1.4,8.6,2.2,12.9
		c0,0,0,0.1,0,0.3c-0.6,4.4,1.8,8.2,2.3,12.4c0.3,1.5,0.5,3,0.5,4.6C496.5,380.5,496.5,384.4,496.4,388.3z M533.2,307.3
		c-1.8,4.4-3.5,8.9-5.5,13.3c-0.5,1.1-1,2.3-1.8,3.3c-1.9,2.5-1.6,5.3-0.9,8.2c1.9,7.7,3.8,15.5,5.7,23.2c0.4,1.5,0.1,2.9-1.3,4.2
		c-6.3,5.5-12.8,10.8-21.2,12.5c-3.7,0.8-7.2,1.5-10.9,1.1c-0.9-3.2-1.8-6.1-2.7-9.1c-0.1-0.5-0.1-0.9-0.1-1.4
		c-0.4-3.2-0.6-6.5-1.1-9.8c-0.3-2.5-1-5.1-1.1-7.6c-0.1-3.9-0.8-7.6-1.5-11.4c-0.5-2.5-0.8-5.3-0.9-8c-0.3-5.3-0.9-10.5-3-15.5
		c-0.1-0.5-0.1-0.9-0.3-1.4c0.3-0.1,0.4-0.3,0.3-0.1c7-0.3,13.9-0.1,20.8-0.8c7-0.6,13.9-1,20.7-3.2c1.8-0.6,3.4-1.5,5.3-2.3
		C534.2,304.4,533.7,305.9,533.2,307.3z M530.5,302.2c-4.1,1.9-8.4,2.5-12.7,3c0-0.3-0.1-0.4-0.1-0.5c1.6-0.6,3.4-1.1,5.1-1.9
		c1.8-0.8,3.5-1.4,5.2-2.3c2.8-1.5,4.1-4.2,4.1-7.4c0.1-4.6-0.9-9-2.3-13.3c-1.5-4.8-3.2-9.6-4.2-14.6c-0.8-3.3-2.2-6.5-3-9.6
		c-0.5-1.8-0.8-3.7-0.9-5.6c-0.3-3-0.4-6.2-0.6-9.3c-0.3-3.9-0.8-7.9-0.9-11.8c-0.1-3.5,0-7.1,0-10.4c4.4-0.5,8.2,1,11.9,3
		c2.5,1.4,4.4,3.4,5.8,5.8c2.9,4.8,4.9,10.1,6.3,15.6c1.1,4.6,1.6,9.1,1.4,13.7c-0.1,1.4-0.3,2.8-0.6,4.2c-1.1,4.1-2.3,8.1-3.8,12
		c-1.3,3.4-2.9,6.7-4.4,10.1c-1,2.2-1.9,4.4-2.8,6.6c-0.3,0.8-0.6,1.5-0.8,2.3c-0.1,0.9,0,1.8,0.1,2.7c0,0.5,0.4,0.9,0.5,1.4
		C534.6,299.8,534.2,300.6,530.5,302.2z M553,250c-0.1,2.4-0.1,4.8-0.4,7.2c-0.5,5.3-1.3,10.5-2,15.8c-0.3,1.8-0.6,3.7-1,5.5
		c-0.8,3.3-1.6,6.6-2.7,9.8c-0.1,0.6-1,1.3-1.8,1.5c-3.2,1-6.3,1.9-9.5,2.9c-0.3-0.1-0.4-0.4-0.5-0.5c1-2.7,1.8-5.3,3-7.6
		c2.3-4.3,4.4-8.6,5.6-13.4c0.6-2.7,1.5-5.3,2.5-7.9c1.6-4.1,1.4-8.1,1.3-12.3c0-1.8-0.4-3.5-0.6-5.6c1.8-0.1,3.7-0.4,5.5-0.4
		c0.3,0,0.6,0.8,0.6,1.1C553.1,247.5,553,248.8,553,250z"/>
	<path class="st0" d="M507.1,337.1c0.4-0.3,0.8-0.5,1.1-0.6c4.9-0.9,9.1-3,12.7-6.5c1.3-1.1,2-0.9,2.3,0.8c0.5,4.9,1,9.9,1.5,14.8
		c0.1,1.1,0.1,2.3,0.3,3.4c0.4,3.8-0.6,7.6-1.3,11.3c-0.1,0.4-0.5,0.8-0.8,1.1c-4.9-3.5-7.7-8-7.7-13.9c0-1.9-0.1-3.8,0-5.6
		c0.1-2.3,0.3-4.6,0.5-6.8c-2.5,1.1-5.5,2.5-8.6,2.4C507.2,337.4,507.2,337.2,507.1,337.1z M522.4,330c-4.1,2.9-6.6,6-6.2,10.8
		c0.1,1.8,0.1,3.5,0,5.3c-0.3,3.4,0.6,6.5,2.4,9.4c1,1.6,2,3.4,4.2,4.2C525.6,349.8,523,340.2,522.4,330z"/>
	<path class="st0" d="M467.1,198.3c-0.1,1.6-2.3,3.7-3.9,3.9c-1.4,0.3-3.3-0.9-3.8-2.3c-0.1-0.3,0.4-1,0.6-1
		C462.3,198.7,464.7,198.6,467.1,198.3z M460.4,199.8c0,0.3,0.1,0.4,0.1,0.6c1.6-0.3,3.4-0.6,5.1-0.9c0-0.1,0-0.3-0.1-0.4
		C463.7,199.3,462.1,199.6,460.4,199.8z M465.9,199.8c-1.5,0.4-3.2,0.8-4.7,1.1C462.7,201.8,464.2,201.5,465.9,199.8z"/>
	<path class="st0" d="M467.5,209.7c1.4,1.6,2.5,3.5,4.2,4.9c1.5,1.4,3.4,2.5,5.2,3.8c-1,0.5-2,0.3-4.4-1.6
		C470.2,214.8,467.8,212.9,467.5,209.7z"/>
	<path class="st0" d="M467,180.2c-3,1.4-5.8,2.7-8.9,4.1c-0.9-0.6-0.3-1.4,0.5-1.6c2-0.9,4.1-1.8,6.1-2.4
		C465.4,179.8,466.1,178.9,467,180.2z"/>
	<path class="st0" d="M482.7,214.1c1.8-1.4,3.7-2.5,5.2-4.1c1.5-1.6,2.5-3.7,3.8-5.6C492.4,207.3,487.7,212.8,482.7,214.1z"/>
	<path class="st0" d="M460.4,185.2c4.3,0.8,5.2,0.5,6.2-1.8c-0.6,0-1.3-0.1-1.9,0c-0.6,0.1-1.1,0.3-1.8,0.5c0-0.3-0.1-0.4-0.1-0.6
		c1.4-0.3,2.8-0.5,4.6-0.8c-0.1,1,0.1,2-0.3,2.5c-1,1.1-2.3,2.3-4.1,1.9C462.1,186.8,460.9,186.8,460.4,185.2z"/>
</g>
</svg>
