<?xml version="1.0" encoding="utf-8"?>
<!-- Generator: Adobe Illustrator 19.2.1, SVG Export Plug-In . SVG Version: 6.00 Build 0)  -->
<svg version="1.1" id="Layer_1" xmlns="http://www.w3.org/2000/svg" xmlns:xlink="http://www.w3.org/1999/xlink" x="0px" y="0px"
	 viewBox="0 0 200.1 238.8" style="enable-background:new 0 0 200.1 238.8;" xml:space="preserve">
<style type="text/css">
	.st0{fill:#009688;}
</style>
<g id="darrhea-lady2">
	<path class="st0" d="M190.8,37.9c3.1,1.5,6.3,3.1,9.3,4.7v-2c-5-2.3-8.8-4.6-13.3-6.8c-2.2-1.1-2-0.4-2-2.9c0-0.7,0-1.4,0-2.2
		c0-1.7-0.1-3.4-0.1-5.2c-0.7,0.1-1.3,0.2-2,0.3c0,2.5,0.1,5.1,0.1,7.6c0,1.1-0.3,1.5-1.4,1.4c-4.9-0.1-9.9,0-14.8,0
		c-0.9,0-1.3-0.1-1.3-1.2c0-2.9-0.1-5.7-0.1-8.6c-0.5,0-1-0.3-1.3-0.6c-0.2,0-0.5,0.1-0.7,0.1v9.8c0,0-0.8,0-1.2,0
		c-6,0-12.1,0.2-18.1,0.2c-0.6,0-1.1,0.4-1.7,0.4c-0.4,0-0.9-0.1-1.3-0.2c-0.6-0.3-1.2-0.7-1.9-0.9c-1.4-0.4-1.8-1.3-1.8-2.7
		c0-1.5,0-3,0-4.6c0,0,0,0,0,0c-0.9,0.1-1.5-0.3-1.8-0.9c0,1.9,0,3.7,0.1,5.6c0,0.2,0,0.5-0.1,0.9c-0.5-0.2-0.8-0.3-1.2-0.5
		c-2.4-1.7-4.7-3.5-7.2-5.1c-2.4-1.6-5.1-2.6-8-2.9c-3.3-0.4-6.6-0.8-9.8-1.3c-0.2,0-0.4-0.2-0.4-0.2c0,0,0,0,0-0.1h-2.8
		c-0.2,0-0.4,0.1-0.6,0c-2.9-0.3-5.8-0.7-8.7-0.9c-1.5-0.1-3-0.1-4.6-0.1c-4.2-0.1-8.4,0.3-12.4,1.5c-3.6,1-7.2,2.1-10.8,3.2
		c-1.6,0.5-3,0.2-3.7-1c-0.6-1-1.1-2.1-1.5-3.2c-1-2.8-2.6-4.8-5.6-5.8c-1.6-0.5-3.1-1.5-4.6-2.4c-0.4-0.2-0.7-0.7-1.2-1.3
		c0.2,0,0.4-0.1,0.5-0.1c-0.1-0.1-0.1-0.1-0.2-0.2c-0.4-0.2-0.7-0.5-1.1-0.8C51.2,9,51.1,8.8,51,8.7c-0.2,0-0.4-0.1-0.5-0.2
		c-1.6-1.3-3.1-2.7-4.7-4c-0.7-0.5-1.4-1-2.2-1.3c-1.5-0.6-3.1-1.2-4.7-1.8C35,0.1,30.8,0.1,26.8,0c-2.6-0.1-5.2,1-7.5,2.5
		c-2.1,1.4-4,3.1-6.1,4.7c-3.1,2.4-5.4,5.4-7.4,8.8c-1.8,3-2.3,6.4-2.3,9.7c-0.1,3.6-1,6.9-1.8,10.3c-0.6,2.4-1.3,4.7-1.6,7.1
		c-0.4,2.7,0.3,5.3,1.1,7.9c0.8,2.4,2,4.4,4.1,5.7c1.8,1.1,3.7,2.1,5.7,2.8c2.1,0.7,4.4,0.7,6.4-0.7c0.9-0.6,0.8-1.3,0.3-2
		c-0.8-1.2-1.7-2.4-2.4-3.6C15,52.7,15,52,14.8,51.4c0.5,0,0.7,0.2,0.9,0.3c1.6,1.4,3.3,2.7,5.5,2.6c1.4,0,2.3,0.6,2.9,1.6
		c1.1,1.7,2.3,3.5,3.3,5.3c1.2,2.1,2.3,2.3,4.2,0.8c0.4-0.3,1.3-0.6,1.8-0.4c1.4,0.6,2.7,1.3,3.9,2.1c0.5,0.3,1.1,0.6,1.4,1
		c0.7,1.1,1.3,2.4,2,3.6c1.6,2.9,3.4,5.7,4.9,8.6c2.3,4.4,4.4,8.9,6.6,13.4c0.9,1.9,1.9,3.7,2.9,5.5c1.3,2.3,2.8,4.5,4.1,6.7
		c0.3,0.6,0.3,0.9-0.4,1.4c-2.9,2.1-5.8,4.3-8.6,6.6c-2.8,2.3-4.6,5.1-4.1,8.9c0.4,3.5,0.7,7,1,10.5c0.2,2.4,0.5,4.7,0.8,7.1
		c0.3,2.6,0.6,5.1,1,7.7c0.3,2.3,0.6,4.6,1,6.9c0.5,2.8,1.2,5.5,1.8,8.3c-0.4,0.1-0.7,0.3-1.1,0.3c-4.1,0.4-8.3,0.7-12.4,1
		c-1.2,0.1-2.4,0.2-3.7,0.3c-3.3,0.3-6.5,0.8-9.8,0.9c-4.3,0.2-8.6,0-12.9,0c-0.9,0-1.5,0.3-1.6,1.2c0,0.9,0.7,1,1.4,1
		c5.6-0.1,11.2-0.1,16.9-0.3c2.7-0.1,5.4-0.5,8.1-0.8c2.5-0.2,5-0.2,7.5-0.5c2.4-0.2,4.7-0.7,7.1-1c0.4,0,1.1,0.2,1.2,0.5
		c0.6,1.7,1.1,3.3,1.4,5.1c0.3,1.7,0.4,3.4,0.7,5.1c0.5,3.2,1.3,6.4,1.7,9.7c0.5,3.5,0.8,7-0.6,10.4c-0.3,0.8-0.8,1.6-1.3,2.6
		c-0.6-5.2-1.2-10.1-1.7-15c-0.2-1.8-0.3-3.7-0.3-5.5c0-1.3-0.5-2.5-1.7-2.9c-2.8-1-5.7-2.1-8.6-2.5c-4.2-0.7-8.3,0.7-12.4,1.7
		c-2.2,0.6-3.8,2.1-4.5,4.3c-0.9,3.1-2.6,5.4-5.1,7.3c-1.5,1.2-3.2,2.2-4.8,3.3c-3,2.1-6.3,3.5-10.1,3.1c-0.8-0.1-1.6-0.1-2.3,0.1
		c-0.5,0.1-1.1,0.6-1.4,1c-0.4,0.7,0.2,1.4,1,1.4c1.5-0.1,3-0.2,4.5-0.2c2.7,0.1,4.9-1.1,7-2.3c1.3-0.7,2.5-1.5,3.9-2.2
		c3.4-1.6,6.1-4.2,8.1-7.4c0.4-0.6,0.7-0.8,1.4-0.6c1.4,0.5,2.7,0.9,4.1,1.3c6.3,2,12.4,1.8,18-2.1c0.1-0.1,0.3,0,0.6-0.1
		c0.5,5,1,10.1,1.6,15.2c-1.9,0.9-3.8,1.8-5.7,2.7c-3.3,1.5-6.8,2.3-10.4,1.9c-1.4-0.2-2.7-0.5-4-0.9c-0.3-0.1-0.6-0.6-0.7-1
		c-0.6-2.9-1.1-5.8-1.7-8.7c-0.1-0.3-0.5-0.7-0.7-0.7c-0.3,0-0.7,0.3-1,0.6c-0.2,0.2-0.2,0.6-0.1,0.9c0.3,1.5,0.6,3,0.9,4.5
		c0.2,1,0.4,2.1,0.1,3.1c-0.1,0.4-1.4,0.5-2.1,0.7c-2,0.6-4,0.9-6.1,0.8c-5.5-0.3-11.1-0.5-16.7-0.7c-0.7,0-1.5,0.2-2.1,0.6
		c-0.3,0.1-0.6,0.8-0.5,1.1c0.1,0.3,0.7,0.5,1.1,0.5c1,0,1.9-0.1,2.9-0.1c2.5,0.1,5,0.4,7.5,0.4c4.9-0.1,9.9,0.6,14.7-0.7
		c1.9-0.5,3.3,0.8,4.8,1.4c3.2,1.1,6.4,0.9,9.6,0.5c1.2-0.2,2.3-0.5,3.6-0.8c-0.9,1.7-0.9,1.7-3.7,2.5c-2.5,0.7-3.8,2.4-3.8,5
		c0,0.3,0,0.6-0.1,0.8c-2.8,0.8-5.5,1.7-8.3,2.2c-2.4,0.4-4,1.5-4.9,3.8c-0.9,2.3-0.6,4,1.7,4.9c2.5,1,5,1.9,7.9,1.7
		c2.6-0.2,5.3-0.3,8-0.5c1-0.1,1.8,0.6,2,1.5c0.2,0.7,0.2,2-0.2,2.2c-1.7,1-3.4,2-5.3,2.5c-1.7,0.5-3,1.1-3.6,2.7
		c-0.6,1.6,0.1,2.9,1.2,4.1c0.4,0.4,0.8,0.9,0.9,1.4c0.5,2.5,1.3,3,3.8,2.3c0.4-0.1,0.9-0.2,1.3-0.1c1.4,0.2,2.8,0.6,4.2,0.7
		c2,0.1,3.9,0,5.9,0.1c4.1,0,7.9-1.1,11.8-2.2c1.4-0.4,2.6-0.6,4-0.2c2.7,0.8,5.4,1.7,8.1,2.4c2.4,0.6,4.8,1.6,7.5,1.1
		c3.1-0.6,6-1.2,8.3-3.6c0.5-0.5,1.6-0.7,2.4-0.8c1.5-0.2,3,0,4.4-0.2c3.7-0.4,6.8-2.4,9.9-4.3c1-0.6,2.1-1.8,2.5-2.9
		c0.7-2.1,0.8-4.3,1.2-6.4c0.2-1.1,0.6-2.1,0.7-3.2c0.1-2.1,0.1-4.2,0-6.3c0-0.5-0.5-1.1-0.9-1.3c-2.3-1.5-4.6-2.9-7-4.3
		c-1.9-1.1-3.9-1.9-5.8-3c-1.8-1.1-3.6-2.3-5.4-3.5c-1.7-1.2-3.1-2.5-2.6-5.1c0.5-3.1,0.7-6.4,0.9-9.6c0.2-3.7,0-7.4,0.2-11
		c0.3-4.1,0.6-8.1-0.8-12c-0.6-1.6,0.1-2.2,1.8-2.3c2.5,0,5-0.1,7.5-0.3c4.1-0.2,8.2-0.8,12.1-2.1c1.1-0.4,2.5-0.4,3.5,0
		c1.3,0.5,2,0.5,2.6-0.7c1.2,0.5,2.3,1,3.4,1.5c1.9,0.9,3.8,1.8,5.6,2.8c1.7,0.9,3.4,1.9,5.1,2.9c0.3,0.2,0.7,0.5,0.8,0.8
		c0.3,2.8,0.6,5.6,0.8,8.4c0.2,3.6,0.2,7.3,0.3,10.9c0.1,4.3,0.4,8.7,0.1,13c-0.4,4.8-0.4,9.6-0.1,14.4c0.1,1.1,0.5,2,1.4,2.7
		c1.5,1.2,3.1,2.2,4.5,3.5c1.7,1.6,3.7,2.5,6,2.6c3.7,0.2,7.4,0.4,11,0.3c2.8,0,5.6-0.4,8.4-0.7c1.9-0.2,3.9-0.9,5.7-0.8
		c5.5,0.4,10.6-1.7,15.9-2.4c4.1-0.6,8.1-1.8,12.1-2.8v-1.5c-6,1-11.8,1.9-17.6,3.1c-3.6,0.7-7.1,1.2-10.8,1.3
		c-1.9,0.1-3.8,0.3-5.6,0.8c-3.4,0.9-6.9,0.9-10.4,0.8c-2.8,0-5.7-0.2-8.5-0.4c-1.3-0.1-2.6-0.4-3.7-1.1c-2.1-1.4-4-3-6-4.6
		c-0.8-0.6-1.2-1.4-0.8-2.4c0.1-0.2,0-0.4,0-0.6c0-9.9,0-19.8,0.2-29.7c0.1-4.5-0.2-9-0.8-13.5c-0.1-1,0.3-1.3,1.3-1
		c3.9,1.2,7.9,2.1,12,2.4c4.9,0.3,9.8,0.9,14.8,0.2c7.2-1,14.4-1.8,21.6-2c3.3-0.1,6.6-1.1,9.8-1.8c1.5-0.3,2.5-0.6,4.5-0.9v-2.3
		c-4,0.8-8,1.9-12,2.5c-3.9,0.5-7.9,0.5-11.9,0.8c-3,0.3-6,0.9-9,1.2c-4.5,0.4-9,1-13.5,0.4c-2.5-0.3-5.1-0.3-7.6-0.6
		c-2.1-0.3-4.1-0.9-6.1-1.3c0-0.1,0-0.3,0-0.4c0.6-0.2,1.1-0.4,1.7-0.5c3.8-0.5,7.7-0.9,11.5-1.3c2.3-0.2,4.5-0.4,6.8-0.5
		c3.3-0.2,6.6-0.3,10-0.5c5-0.3,9.9-0.4,14.9-0.8c4.9-0.5,9.8-1.3,14.6-2c0.2,0,0.6,0,0.6,0v-2c-3,0.4-5.4,0.8-8,1.1
		c-2.8,0.3-5.7,0.7-8.6,0.9c-7.3,0.4-14.7,0.6-22,1.1c-5.1,0.4-10.1,1.2-15.2,1.7c-3.2,0.3-6.5,0.5-9.5,1.9c-0.3,0.1-0.7,0.1-1,0
		c-1.9-0.9-3.9-1.8-5.8-2.7c-2.3-1.1-4.6-2.5-7-3.5c-2.8-1.1-4.9-2.9-6.7-5.2c-2.9-3.8-6-7.4-8.3-11.6c-0.4-0.7-1-1.4-1.7-2.3
		c1.7,0,3.1,0,4.4,0c1.6,0,3.2,0.1,4.7-0.2c2-0.4,3.5,0.8,5.1,1.5c4,1.9,8.2,2.1,12.6,1.6c2.9-0.3,5.8-0.6,8.7-0.8
		c4.7-0.3,9.4-0.5,14.1-0.8c6.9-0.5,13.7-1.3,20.4-2.7c2-0.4,4.1-0.3,6.1-0.6c2.7-0.4,5.5-0.9,8.2-1.3c3.1-0.5,6.4-1,9.4-1.5v-2.3
		c-4,0.6-6.9,1.2-10.4,1.8c-2.9,0.5-5.7,1.1-8.6,1.5c-3.4,0.5-6.8,0.9-10.2,1.3c-3.4,0.5-6.8,1-10.2,1.5c-1.6,0.2-3.2,0.2-4.8,0.3
		c-4.2,0.2-8.5,0.3-12.7,0.6c-3.5,0.3-6.9,0.9-10.3,1.1c-4.1,0.2-8.3,0.5-12.3-2.2c1.1-0.3,2-0.7,3-0.8c3.6-0.5,7.3-0.9,10.9-1.3
		c3.6-0.4,7.3-0.8,10.9-1.2c2.7-0.3,5.4-0.5,8-0.9c3.6-0.5,7.2-1,10.7-1.6c4.3-0.7,8.6-1.4,12.9-2.2c2.8-0.5,5.5-1.3,8.3-1.8
		c2.3-0.4,4.7-0.7,7.1-1c2.4-0.3,4.8-0.7,7.1-1c0.2,0,0.7,0,0.7,0v-2c-3,0.5-5.2,0.9-8,1.4c0.5-3-0.2-5.2-3.1-5.8
		c0.5-4.2,1.1-8.3,1.7-12.6c3.5,1.5,6.5,4.1,9.5,6.3v-2.8c-3-1.7-5.5-3.5-8.2-5.2c-0.4-0.2-0.8-0.4-1.3-0.6
		c0.3-5.1-1.3-9.9-2.2-14.8c-0.5-2.6-0.8-5.3-1.9-7.6c-1.3-2.9-1.2-5.9-1.2-8.9c0-2-0.2-3.9-0.3-6c0.3,0.1,0.6,0.1,0.7,0.2
		c4.4,2.5,8.9,5,13.3,7.5c0.3,0.2,1.1,0.2,1.1,0.4v-2c-3-1.6-5.6-3.3-8.5-4.7c-2-1-4.1-1.9-5.6-3.5c-0.4-0.4-0.9-1.1-0.9-1.7
		c-0.1-8.3-0.2-16.6-0.3-24.9c0-0.1,0-0.2,0.2-0.7C186.9,36,188.9,36.9,190.8,37.9z M49.2,176.4c-3.4,2.6-7.2,3.6-11.4,3.4
		c0,0.1,0,0.2-0.1,0.3c-2.9-0.7-5.7-1.3-8.6-2.2c-0.7-0.2-1.5-1-1.6-1.6c-0.1-0.6,0.7-1.6,1.3-1.9c1.6-0.7,3.3-1.3,5.1-1.6
		c2.4-0.4,4.9-1,7.2-0.7c2.7,0.3,5.4,1.4,8,2.2C50.1,174.6,50,175.7,49.2,176.4z M183.1,35.4v25.4c-2,0-3.5-0.1-5.3,0
		c-1.5,0.1-3.1-0.5-4.5,0.5c-0.2,0.1-1-0.2-1.3-0.6c-1.7-1.7-3.3-3.4-4.9-5.1c-0.2-0.2-0.4-0.6-0.4-0.9c0.4-2.6-0.5-5-0.6-7.5
		c0-1.2-0.2-2.1-0.3-3.3c-0.2-2.9-0.4-5.5-0.6-8.5H183.1z M183.1,62.4v11.5c-3-3.8-5.9-7.5-8.7-11c0.1-0.1,0.2-0.5,0.2-0.5H183.1z
		 M163.1,35.4c0.5,5,1.1,11.4,1.6,17.2c-0.1,0-0.2,0-0.3,0c-3.1-2.8-6.3-5.6-9.2-8.6c-2.9-3-6.1-5.5-9.7-7.7
		c-0.4-0.2-0.8-0.9-1.4-0.9H163.1z M119.6,54.3c1.8,1.5,3.9,2.1,6.1,2.4c6.1,0.9,12.1,1.9,17.9,4.1c2.2,0.8,4.3,2.1,6.3,3.5
		c3.4,2.5,6.6,5.2,9.9,7.8c0.7,0.5,1.6,0.8,2.4,1.2c-0.8,1.9-1.3,2-2.6,0.6c-1.4-1.5-2.8-2.9-4.7-3.7c-1-0.4-1.7-1.3-2.7-1.9
		c-2.4-1.5-4.7-3-7.1-4.5c-0.6-0.4-1.3-0.5-1.8-0.9c-2.5-1.8-5.5-2.3-8.4-2.9c-2.4-0.5-4.9-1.2-7.3-1.6c-2-0.4-4-0.5-6-0.7
		c-1.1-0.1-2.1-0.3-3.5-0.6C118.6,56.1,119.1,55.2,119.6,54.3z M116.2,90.2c-1.1,0.1-1.1-1.6,0-1.8c5.6-0.7,9.9-6.2,13.9-9.8
		c0.8-0.8,2.1,0.5,1.3,1.3C127,83.9,122.5,89.4,116.2,90.2z M118.2,93.8c-0.1,0.1-0.1,0.2-0.2,0.2c-2.9,1.1-5.7,2.3-8.7,3.1
		c-4.7,1.4-9.5,2.5-14.2,3.7c-1.3,0.3-2.6,0.4-4,0.6c-0.1-0.1-0.2-0.2-0.4-0.3c1.1-2.3,2.2-4.5,3.3-6.8c0.7-1.4,1.5-2.8,2.4-4.1
		c0.5-0.6,1.4-1.1,2.2-1.3c1.1-0.3,2.2-0.6,3.3-0.8c0.5,0.4,1.2,0.6,2.2,0.8c3.4,0.8,6.8,1.6,10.2,2.5c1.3,0.7,2.5,1.5,3.8,2.2
		C118.1,93.7,118.2,93.7,118.2,93.8z M93,27.8c2.3,0,4.5,0.3,6.8,0.5c0.4,0,0.7,0.2,1,0.3c-6.1,1.5-12,3.1-17.4,6.1
		c-0.1-0.1-0.1-0.1-0.1-0.2C84.6,31.4,89.6,27.8,93,27.8z M43.3,28.6c0.6,0.1,1.2,0.2,1.6,0.5c2.4,1.7,4.3,3.7,4.3,6.9
		c0,0.6-0.6,1.3-1.1,1.8c-0.1,0.1-1-0.1-1.2-0.4c-0.2-0.3-0.1-1,0.2-1.3c1-1.1,1.2-2.1,0.5-3.4c-1.3-2.3-4.8-3.1-6.4-1.4
		c-1,1-0.6,2.4,0.8,2.8c0-0.2,0-0.4,0.1-0.6c0.3-0.7,0.5-1.7,1.5-1.4c0.8,0.2,1.4,0.9,2.1,1.5c0.1,0.1-0.1,0.8-0.3,1.1
		c-0.9,1.7-0.9,2.7,0.3,4.1c0.8,0.9,1.8,1.1,2.9,0.7c1.4-0.5,2.5-1.9,2.4-3.4c-0.1-2.2-0.8-4.2-2.3-5.8c-0.8-0.8-1.6-1.6-2.4-2.4
		c-0.3-0.3-0.4-0.7-0.6-1c0.5-0.2,0.9-0.5,1.3-0.4c0.7,0.1,1.4,0.4,2.2,0.5c2.4,0.5,4.7,0.9,7.1,0c2.7-1,5.5-1.1,8.4-0.6
		c1.2,0.2,2.6,0.1,3.7-0.3c4.3-1.6,8.5-3.2,13-3.9c1.8-0.3,3.5-0.5,5.3-0.7c0.5-0.1,1,0.1,1.7,0.2c-1.7,1.8-3.1,3.4-4.6,5
		c-2.5,2.7-5.1,5.3-7.6,8c-0.5,0.5-0.9,1.3-1.1,2c-0.3,1.3-0.9,1.2-2,0.9c-3.1-0.9-6.3-0.9-9.5-0.1c-0.6,0.2-1.1,0.4-0.8,1.1
		c0.1,0.3,0.8,0.5,1.2,0.5c2.3,0,4.5-0.1,6.8-0.1c0.3,0,0.6,0.1,0.9,0.1c2.3,0.5,2.4,0.7,2.2,3c-0.2,2.7-0.4,5.4-0.8,8.1
		c-0.3,2.2-1.3,2.8-3.4,2.2c-1.1-0.3-2.2-0.4-3.4-0.5c-2.3-0.3-4.7-0.5-7-0.8c-1.7-0.2-3.3-0.4-5.1-0.7c-1.5-4.4-4.8-7.7-9-10.3
		c-1.2-0.7-2.6-0.6-3.8,0.4c-0.7-1.3-1.4-2.5-2.2-3.7c-0.3-0.6-0.8-1-1.2-1.5c-0.2-0.3-0.4-0.7-0.4-1C37.9,31,40.1,28.2,43.3,28.6z
		 M70.1,61.2c0,0.3-0.2,0.7-0.4,0.8c-0.1,0.1-0.6-0.1-0.7-0.2c-2-2.5-3.9-5-5.8-7.5l0.3-0.6c2.2,0.3,4.5,0.6,6.7,0.9
		c1,0.1,1.2,0.8,0.9,1.6C70.3,57.8,69.9,59.4,70.1,61.2z M63.4,66.1c2.3,1,4.5,1.9,6.8,2.9c0.3,0.1,0.6,0.5,0.6,0.7
		c0.3,2.1,0.6,4.3,0.8,6.4c0.2,2.7-1,5-1.9,7.4c-1.6-0.4-2.6-1.3-3.4-2.5c-2.4-3.5-5-6.8-7.2-10.4c-1.8-3-3.1-6.3-4.5-9.5
		c-0.2-0.5-0.4-1-0.5-1.5c-0.1-0.4,0-0.8,0.1-1.1c0.3,0.1,0.8,0.2,1,0.5c0.8,1,1.5,2,2.3,3C58.9,64,61.2,65.1,63.4,66.1z M43.1,41.1
		c1.3-0.2,2.2,0,2.6,1c0.2,0.6-1,1.8-1.6,1.7C42.5,43.3,43.5,42.1,43.1,41.1z M19.2,47.3c-0.3,0.5-0.3,1.4-0.2,2.1
		c0.3,0.9,0.8,1.8,1.2,2.6C20.1,52,20,52.1,20,52.1c-2.5-1.6-5.7-2.6-6.4-6.1c-0.2-1.3-0.4-2.6-0.4-3.9c0-1.8-0.7-3.3-1.5-4.7
		c-0.8-1.3-1.5-2.5-2.3-3.8c-1.1-1.8-1.2-3.4-0.3-5c0.2,0.3,0.5,0.4,0.5,0.6c0,2.6,1.8,4.4,2.9,6.6c0.7,1.5,1.4,2.9,2.1,4.4
		c0.4,1,1.1,1.7,2.2,1.9c2.1,0.3,4.2,0.6,6.2,0.9c0.5,0.1,1.1,0.4,1.3,0.7c0.8,1.8,1.4,3.7,2.2,6c-1.4-0.9-2.4-1.6-3.5-2.3
		c-0.4-0.3-0.9-0.5-1.3-0.7C20.7,46.4,19.7,46.5,19.2,47.3z M56.9,94.3c-1.4-2.6-2.4-5.3-3.7-7.8c-2.5-4.7-5.1-9.3-7.7-14
		c-1.1-1.9-2.7-3.7-3.4-5.7c-1-2.9-2.7-4.7-5.6-5.5c-0.4-0.1-0.8-0.4-1.2-0.7c-0.9-0.7-1.8-0.9-3-1.2c-1.2-0.2-2.4-1.1-3.4-1.9
		c-2-1.5-3.9-3.2-5.8-4.8c-1.1-0.9-1.1-1.4,0-3c0.4,0.2,0.8,0.4,1,0.6c1.7,1.6,3.4,3.2,5.1,4.7c0.4,0.4,1.2,0.4,1.7,0.7
		c0-0.7,0.1-1.4-0.1-2c-1.4-3.1-3-6.2-4.4-9.3c-0.5-1.1-0.1-1.9,1.1-2.3c1.2-0.4,1.5,0.3,1.9,1.3c0.4,1.1,1,2.1,1.5,3.2
		c0.3,0.7,0.3,1.3-0.3,1.8c-0.5,0.4-1.1,0.9-0.5,1.5c0.6,0.6,1.2,0.1,1.7-0.5c0-0.1,0.1-0.1,0.4-0.2c1,0.8,1.4,2,1.6,3.2
		c0,0.2-0.1,0.5,0,0.6c0.3,0.4,0.7,0.7,1,1.1c0.3-0.4,0.8-0.8,0.9-1.2c0.1-1.7-0.6-3.2-1.5-4.6c-1.1-1.9-2.2-3.8-3.2-5.8
		c-0.6-1.2-0.3-2.1,0.7-2.7c1.6-0.8,2.4-0.7,3.1,0.6c0.7,1.2,1.3,2.6,1.9,3.8c0.4,0.7,0,1.1-0.6,1.4c-0.3,0.2-0.5,0.6-0.8,0.9
		c0.4,0.1,0.8,0.5,1.1,0.4c1.5-0.7,1.7,0.2,1.9,1.3c0.1,0.7,0.3,1.4,0.5,2.1c0.2,0.7,0.5,1.6,1.4,1.2c0.3-0.1,0.6-1.1,0.5-1.5
		c-0.7-2.2-1.4-4.3-2.3-6.4c-0.6-1.4-1.6-2.6-2.3-4c-0.3-0.6-0.2-1.5,0-2.2c0.1-0.4,0.8-0.8,1.3-0.9c0.1,0,0.6,0.6,0.8,1
		c0.8,1.6,1.6,3.3,2.3,5c0.2,0.4,0,0.9-0.1,1.3c0,0.3-0.2,0.7,0,0.9c0.1,0.2,0.6,0.1,0.9,0.2c0.4,0.1,1,0.2,1.3,0.5
		c2,2.4,3.9,4.8,5.9,7.2c0.4,0.5,0.9,1.1,1.4,1.4c0.3,0.2,0.9,0,1.3,0c-0.1-0.4,0.1-1-0.2-1.3c-1.8-2.3-3.7-4.5-5.5-6.8
		c-0.2-0.3-0.4-0.6-0.5-0.8c0.6-0.7,1.2-1.4,1.9-2.2c2.8,2.7,5.8,5.2,5.6,9.6c0,1.1-0.2,2.2-0.1,3.3c0.1,2.2-1,3.7-2.6,5
		c-0.8,0.6-1.8,1.2-1.6,2.9c1.6-0.9,2.9-1.6,4.4-2.4c0.8,1.9,1.5,3.9,2.3,5.8c1.8,4.3,4.2,8.2,7.2,11.8c1,1.2,1.8,2.6,2.7,3.8
		c0.6,0.8,1.4,1.6,2.2,2c1,0.5,1.4,1.1,1.3,2.2c-0.2,2,0.1,4,0.9,5.9c1.1,2.6,1.1,5.4,1.1,8.2c0,0.4-0.1,0.9,0,1.3
		c0.2,0.4,0.7,0.7,1,1.1c0.3-0.4,0.9-0.7,0.9-1.1c0.1-3.7,0.2-7.5-1.5-11c-0.8-1.6-0.9-3.3-0.6-4.9c0.2-1.2,1-2.3,1.5-3.5
		c1.9-4.1,2-8.3,0.8-12.7c-1.1-4.3-1.5-8.7-0.3-13c1.1-3.9,2.9-7.5,5.6-10.7c0.2-0.3,0.5-0.6,0.7-0.9c1.8-4.3,5.4-6.8,9.3-8.9
		c2.9-1.5,6-2.4,9-3.6c0.2-0.1,0.3-0.1,0.5-0.1c3.6-0.2,7.2-0.5,10.9-0.5c2.1,0,3.8,1.5,5,3.2c2.8,4,3.9,8.7,5,13.4
		c0.8,3.6-1,6.2-3.1,8.5c-2.5,2.8-5.4,5.3-8.2,7.8c-0.4,0.3-0.9,0.5-1.4,0.7c-0.1-0.1-0.2-0.2-0.3-0.2c0.6-1.2,1.2-2.4,1.8-3.6
		c0.6-1.3,1.3-2.5,1.8-3.9c0.2-0.4,0-1-0.1-1.5c-0.4,0.2-1.1,0.3-1.3,0.6c-1.2,1.9-2.3,4-3.6,5.9c-2.3,3.5-3,7.6-4,11.5
		c-1.2,4.9-2.6,9.7-5.6,14c-2.3,3.3-4.1,6.9-5.3,10.8c-1,3.2-2.9,5.8-6,7.4c-2.2,1.1-4.4,2.3-6.5,3.4c-2,1-4.3,1.1-6.3,0.4
		c-1.4-0.5-2.6-1.9-3.7-3.1c-1.2-1.2-2.3-2.6-3.5-4c-0.6-0.7-1.1-1.4-1.5-2.1C59.9,99.5,58.3,97,56.9,94.3z M54.8,163
		c-1-5-2.2-10-3.2-15c-0.6-3.1-0.7-6.3-1.1-9.4c-0.4-2.9-0.8-5.8-1.2-8.7c-0.3-2.7-0.6-5.5-0.8-8.3c-0.1-0.8-0.1-1.6-0.3-2.4
		c-0.5-3.4,1.3-5.8,3.8-7.7c2.6-2,5.3-3.9,7.9-5.9c1-0.8,1.7-0.6,2.4,0.3c1,1.4,2,2.8,3,4.2c0.5,0.7,0.4,1.2-0.2,1.8
		c-2.2,2.3-4.4,4.6-6.4,7c-2.1,2.4-3.1,5.2-3.3,8.4c-0.2,3.7,1,7.2,1.9,10.7c0.4,1.3,0.3,2.7,0.6,4c0.3,2,0.7,3.9,1.1,5.9
		c1.1,5,2.1,10.1,3.3,15.1c0.6,2.7,1.4,5.4,2,8.1c0.8,3.5,1.5,6.9,2.3,10.4c0.9,3.6,1.9,7.1,2.7,10.7c0.3,1.4,0.3,2.8,0.5,4.5
		c-1-0.2-1.8-0.3-2.4-0.6c-2.8-1.2-5.5-2.7-7.8-4.8c-0.3-0.3-0.5-0.8-0.5-1.2c0-5.4-1.1-10.7-2.3-16C55.9,170.3,55.6,166.6,54.8,163
		z M42.3,217.9c-1.5,0.2-3,0.4-4.5,0.4c-2.3,0-4.7,0.1-6.9-0.3c-1.8-0.3-3.5-1.1-5.3-1.8c-0.2-0.1-0.4-1-0.2-1.3
		c0.2-0.3,0.8-0.6,1.2-0.6c0.8,0.1,1.5,0.5,2.3,0.6c0.6,0.1,1.3,0.1,1.8-0.1c0.3-0.1,0.6-0.6,0.8-0.8c-0.3-0.2-0.6-0.4-1-0.5
		c-0.9-0.1-1.9-0.2-2.8-0.3c0-0.2,0-0.4-0.1-0.5c0.9-0.2,1.9-0.5,2.8-0.4c0.9,0,1.9,0.4,2.8,0.5c0.4,0.1,0.9-0.1,1.3-0.2
		c-0.2-0.4-0.4-0.8-0.7-1.2c-0.1-0.1-0.2-0.2-0.3-0.4c1.6-0.4,3.1-0.8,4.5-1.2c1.6,2.6,3,5.1,4.4,7.5
		C42.4,217.6,42.4,217.7,42.3,217.9z M42.3,212.9c-0.4-0.6-0.9-1.2-1.4-1.8c-1.9-2.4-1.9-6.2,2.3-6.8c1.3-0.2,2.2-0.9,3-1.8
		c2.1-2.3,2.2-2.3,4.7-0.5c2,1.5,3.9,3.1,5.9,4.7c0.3,0.2,0.7,0.5,1.1,0.5c0.4,0,0.9-0.2,1.1-0.4c0.1-0.3,0-0.9-0.3-1.1
		c-1.9-1.6-3.9-3.1-5.9-4.7c-0.6-0.4-1.2-0.8-2.1-1.4c1.3-0.4,2.2-0.7,3-1c2.3,2.3,4.4,4.8,7.5,5.8c1.9,0.6,4,0.6,6.1,0.7
		c0.4,0,0.8-0.6,1.2-0.9c-0.4-0.4-0.8-1-1.3-1.1c-1.8-0.3-3.6-0.2-5.3-0.8c-1.5-0.5-2.9-1.6-4.3-2.7c-2-1.5-1.9-1.6-0.8-3.9
		c0.4-0.7,0.7-1.5,1-2.3c0.2-0.6,0.5-0.9,1.1-0.4c3,2.6,6.4,4.5,10.4,5.5c-0.3,2.6-0.6,5.3-1,7.9c-0.1,0.5-0.4,1.1-0.7,1.6
		c-1.4,1.9-2.2,2.1-4.3,0.9c-0.7-0.4-1.6-1.2-2.1-0.1c-0.6,1.2,0.6,1.4,1.4,1.7c0.6,0.2,1.2,0.4,1.8,0.7c0,0.1,0,0.4-0.1,0.5
		c-1.8,1.8-3.7,3.6-5.6,5.3c-0.4,0.3-1,0.4-1.5,0.6c-1.7,0.6-3.5,1.2-5.3,1.8c0.6-1.4,1.8-2.2,3-3.2c1.3-1,2.6-2.1,3.8-3.3
		c0.5-0.5,1-1.3,0.2-1.8c-0.7-0.5-1.2,0.1-1.7,0.7c-1.4,1.4-2.9,2.6-4.7,4.1c-0.3-1.3-0.4-2.1-0.6-3c-0.3-1.6-0.5-3.2-0.7-4.8
		c-0.1-0.4-0.4-0.7-0.6-1.1c-0.3,0.4-0.9,0.7-0.8,1.1c0.1,1.7,0.3,3.5,0.5,5.2c0.1,0.9,0.5,1.7,0.6,2.5c0.1,1,0.2,2-0.7,2.9
		c-0.9,0.9-1.5,2.2-2.4,3.2c-0.2,0.3-0.7,0.4-1.1,0.5c-0.1,0-0.3-0.4-0.4-0.6C46.1,218.6,44.2,215.7,42.3,212.9z M59.1,234.7
		c-1.5,0.1-2.9,0.7-4.4,1.1c-0.5,0.1-1.1,0.1-1.8,0.2c0.4-1.7,1.7-2.4,2.7-3.4c0.4-0.4,1.5-0.6,0.8-1.5c-0.6-0.8-1.4,0-1.8,0.4
		c-0.9,0.9-1.6,1.9-2.6,2.7c-0.8,0.6-1.7,1-2.7,1.4c-0.2,0.1-0.6-0.3-0.7-0.5c-0.1-0.2,0.2-0.5,0.3-0.7c0.3-0.5,0.9-1.5,0.8-1.6
		c-0.7-0.6-1.3,0-1.8,0.5c-0.7,0.6-1.3,1.2-2,1.7c-0.8,0.7-2.2,0.4-3.2-0.7c0.7-0.4,1.4-0.7,2-1.2c0.3-0.2,0.5-0.7,0.8-1.1
		c-0.4,0-1-0.3-1.3-0.1c-1.3,0.8-2.6,1.7-3.9,2.5c-0.3,0.2-0.6,0.4-1,0.6c-0.5-1.4-0.2-2.2,1.2-2.6c1-0.3,1.9-1,2.8-1.6
		c0.3-0.2,0.3-0.8,0.4-1.1c-0.4,0-0.9-0.2-1.2,0c-1.1,0.5-2.1,1.2-3.2,1.7c-1.9,0.8-2.8,0.1-2.7-1.8c2.6-1.1,5-2,7.4-3.1
		c3.1-1.5,6.1-3,9.2-4.6c1.7-0.8,1.8-0.8,2.9,0.8c0.8,1.2,1.7,2.4,2.5,3.6c1,1.6,2.5,2.6,4.1,3.4c1,0.5,1.7,1.4,2.7,2.3
		C63.3,233.6,61.4,234.5,59.1,234.7z M105.5,213.9c1.4-1.4,1.8-3,0.8-5c0.5,0.1,0.7,0.1,0.9,0.3c0.3,0.1,0.5,0.3,0.7,0.5
		c1,0.8,2.7,1.5,2.9,2.5c0.5,2.3,0.4,4.8-1.2,7c-1.6,2.1-3,4.2-3.6,6.9c-0.7,2.9-3.9,6-7.7,5.8c-2.1-0.1-4.4,0.3-6.5,0.7
		c-0.8,0.2-1.5,1-2.2,1.7c-1,1-2.1,1.7-3.6,1.7c-2.3,0-4.6,0.1-6.9-0.2c-5-0.5-9.7-1.6-13-6c-0.6-0.8-1.5-1.5-2.5-1.9
		c-2.8-1.1-3.9-3.7-5.5-6.2c0.5,0.1,0.7,0.1,0.8,0.2c2.6,1.5,5.5,2.3,7.8,4.4c3.5,3.2,7.8,4.6,12.6,4.5c0.9,0,1.9,0.4,2.9,0.7
		c2.3,0.7,4.6,1.5,6.9,0.2c0.4-0.2,0.5-1,0.7-1.5c-0.6-0.1-1.2-0.5-1.7-0.3c-1.7,0.7-3.3,0.5-4.8-0.3c-2.4-1.4-5.1-1.5-7.6-1.8
		c-2-0.2-3.8-0.7-5.4-1.8c-2.6-1.9-5.3-3.7-8.3-5.1c-0.9-0.4-1.8-0.7-2.9-1.2c0.6-0.5,1.1-0.9,1.6-1.4c2.4-2.4,4.8-4.8,7.2-7.2
		c0.2-0.2,0.8-0.3,1.1-0.2c0.6,0.2,1.3,0.4,1.6,0.9c1,1.3,2.5,1.5,3.8,1.6c1.2,0.1,2.1,0.6,3,1.3c0.8,0.7,1.7,1.3,2.9,2.2
		c-2.5,0.9-4.7,1.6-6.9,2.4c-0.6,0.2-1.1,0.7-1.6,1.1c-0.1,0.1,0.1,0.9,0.2,1c0.6,0.2,1.4,0.3,1.9,0.1c2.9-1.2,5.6-2.6,8.5-3.6
		c1.1-0.4,2.4,0,3.6,0.1c1,0.1,2,0.3,3,0.5c0.5,0.1,0.9,0.3,1.4,0.5c0.2,0.1,0.7,0.2,0.8,0.1c0.8-1,1.6-0.5,2.5-0.1
		c0.6,0.3,1.5-0.1,2.2-0.2c0.4-0.1,0.9-0.3,1.2-0.2c0.5,0.2,0.9,0.7,1.2,1.1c0.1,0.1-0.4,0.7-0.7,0.9c-1.8,1.1-3.7,1.5-5.9,1.5
		c-2.5-0.1-5,0.2-7.3-1.3c-0.3-0.2-1,0.1-1.5,0.2c0.1,0.5,0.1,1.4,0.4,1.5c1.4,0.7,2.8,1.4,4.2,1.7c1.4,0.3,2.9,0.1,4.4,0.1
		c2.6,0,5.1-0.6,7.2-2.1c0.9-0.7,1.6-1.7,2.3-2.6c0.8-1.2,1.4-2.4,2.2-3.6C104.4,215.2,104.9,214.5,105.5,213.9z M70,208.3
		c0.1-1,0.4-2,0.6-3c0.1-0.7,0.5-0.9,1.2-0.8c4.4,1.1,8.7,2.4,13,3.9c1.6,0.6,3.4,0.6,5.1,0.9c2.6,0.5,5.1,1.2,7.8,1.8
		c-0.3,1.6-0.6,3.2-1,4.8c-0.1,0.3-0.8,0.6-1.2,0.6c-3.3-0.2-6.6-0.4-9.9-0.6c-2.7-0.2-5-1.3-7.2-2.8c-0.6-0.4-1.3-0.7-2-1
		c-2-0.9-4-1.7-5.9-2.6C70.2,209.4,69.9,208.7,70,208.3z M91.3,199.6c1.8,1.1,3.6,2.2,5.4,3.3c2.1,1.3,4.2,2.7,6.3,4
		c0.8,0.5,1.3,0.9,1.4,1.9c0,0.4,0.3,0.7,0.3,1.1c0,0.7,0.1,1.6-0.2,2.1c-1.1,1.7-2.4,3.3-3.7,4.9c-0.4,0.5-0.9,1-1.3,1.5
		c-0.1-0.9-0.1-1.6-0.1-2.3c0-1.4,0.2-2.8,0.2-4.3c0-1.8-0.4-2.3-2.2-2.8c-1.9-0.5-3.7-1-5.5-1.5c-0.3-0.1-0.7-0.4-0.7-0.7
		c-0.1-1.1-0.2-2.3-0.2-3.4C90.9,202.1,91.1,200.9,91.3,199.6z M109.7,144.9c2,2.8,4.2,5.4,6.3,8.2c0.2,0.2,0.3,0.5,0.4,0.6
		c-3.8,0.9-7.5,1.9-11.3,2.5c-3,0.5-6.1,0.5-9.2,0.7c-1.7,0.1-3.5,0-5.3,0c-0.8-3.1-1.5-6.4-2.5-9.6c-0.8-2.9-2-5.6-4-7.9
		c-0.6-0.6-0.4-0.9,0.4-1.3c2.9-1.2,5.8-2,9-2c2.7,0,5.4-0.3,8.2-0.5c1.6-0.1,2.7,0.4,3.5,2C106.6,140.1,108.1,142.6,109.7,144.9z
		 M185.8,83.3c0.3,1.7,0.5,3.2,0.8,4.8c0.6,3.3,1.4,6.6,1.9,10c0.2,2-0.1,4-0.2,6c0,0.3-0.1,0.7-0.1,1c0.1,4.6-0.8,9-2.3,13.2
		c-0.8,2.3-2.3,4.1-4.9,5.1c-4,1.5-8.3,1.7-12.5,2.5c-5.5,1-11.1,1.8-16.7,2.5c-5,0.6-10,1.1-15,1.5c-7.2,0.6-14.2,1.7-21.2,3.3
		c-2.6,0.6-5.4,0.4-8.2,0.4c-5.3,0-10.7-0.5-15.9,0.8c-2.9,0.7-5.7,1.6-8.6,2.4c-0.3,0.1-0.6,0.1-0.8,0c-1.1-0.4-2.2-0.8-3.3-1.1
		c-0.3-0.1-0.8,0.2-1.2,0.3c0.2,0.4,0.2,1.1,0.5,1.3c4.9,2.7,7.3,7.1,8.5,12.4c1.1,5,2.3,10.1,3.4,15.1c0.6,2.8,0.6,5.6,0.3,8.4
		c-0.3,2.6-0.3,5.1-0.4,7.7c-0.2,3.8-0.5,7.7-0.5,11.5c-0.1,4.2,0,8.4,0,12.7c0,1.5-0.4,2.1-1.9,2c-0.7,0-1.4-0.1-2-0.3
		c-1.7-0.6-3.4-1.5-5.2-2c-2.7-0.8-5.5-1.4-8.3-2c-0.9-0.2-1.1-0.4-0.9-1.3c0.3-1.4,0.6-2.7,0.8-4.1c0.4-3.2-0.5-6.1-1.2-9.2
		c-1.3-5.3-2.5-10.7-3.8-16c-0.6-2.3-1.5-4.5-2.1-6.8c-0.4-1.5-0.3-3.2-0.7-4.7c-1.3-5.7-2.7-11.5-3.9-17.2c-0.3-1.4,0-3-0.3-4.4
		c-0.6-3-1.6-5.9-2.1-8.9c-0.7-3.8,0.4-7.2,2.9-10.1c1.6-1.9,3.3-3.7,5-5.5c1.2-1.4,1.7-1.5,3.4-0.9c2.6,0.9,5.1,0.7,7.7-0.2
		c4.4-1.5,7.7-4.5,11-7.4c1.8-1.6,4-2.5,6.5-2.7c2.9-0.3,5.8-1,8.6-1.7c2.2-0.5,4.4-1,6.6-1.6c1.1-0.3,2.1-1,3.3-1.3
		c3.1-0.9,6.3-1.6,9.5-2.5c3-0.9,6.1-1.1,9.2-1c5,0.2,10.1,0.5,15.1,0.8c1.6,0.1,3.2,0.6,4.7,0.4c5.3-0.6,10.6-0.3,15.8-1.8
		c1.9-0.6,4.1-0.4,6.1-0.8c3.7-0.9,6.7-3,9.1-5.9C183.4,86.4,184.5,84.9,185.8,83.3z"/>
	<path class="st0" d="M39.8,174c0.7,0,1.4-0.1,2,0c0.4,0.1,0.9,0.4,1,0.8c0.1,0.4-0.2,1-0.5,1.3c-0.4,0.4-1,0.8-1.5,0.8
		c-1.9,0.3-3.9,0.5-5.8,0.6c-0.6,0-1.1-0.8-1.7-1.3c0.5-0.5,0.8-1.2,1.4-1.4c1.7-0.5,3.4-0.7,5.1-1C39.8,173.8,39.8,173.9,39.8,174z
		"/>
</g>
</svg>
