<?xml version="1.0" encoding="utf-8"?>
<!-- Generator: Adobe Illustrator 19.2.1, SVG Export Plug-In . SVG Version: 6.00 Build 0)  -->
<svg version="1.1" id="Layer_1" xmlns="http://www.w3.org/2000/svg" xmlns:xlink="http://www.w3.org/1999/xlink" x="0px" y="0px"
	 viewBox="0 0 200 232" style="enable-background:new 0 0 200 232;" xml:space="preserve">
<style type="text/css">
	.st0{fill:#FF5722;}
</style>
<g id="foodpoison-lady">
	<path class="st0" d="M27.5,232c-0.2-4.8,0.3-9.6,1.4-14.3c0.5-2.1,1.2-4,1.7-6.1c0.3-1.1,0.2-2.3,0.4-3.5c0.3-1.5-0.4-2.2-1.7-2.5
		c-3.2-0.9-6.4-1.9-9.6-2.6c-4.4-0.9-8.6-2.3-12.6-4.2c-0.7-0.3-1.4-0.6-2.2-0.7c-2.3-0.5-3.3-2.2-3.7-4.3
		c-1.6-10.1-1.3-20.3-0.8-30.5c0.2-4.4,1.2-8.8,2-13.2c0.9-5.2,2.2-10.3,3.1-15.5c0.4-2.2,0.1-4.5,0.3-6.7c0.2-2.5,0.6-4.9,0.9-7.4
		c0.3-2.3,0.4-4.5,0.8-6.8c0.6-3.6,1.5-7.2,2.2-10.8c0.7-3.6,1.3-7.2,2.2-10.7C13.6,86,16.7,81,23.1,78.7c1.2-0.4,2.5-0.6,3.7-0.7
		c2.6-0.4,5.3-0.7,7.9-1.2c3-0.6,6-1.3,8.9-2.1c1.5-0.4,3-1.2,4.7-1.9c-0.4-1.7-0.8-3.7-1.4-5.5c-0.5-1.9-1.4-3.8-1.7-5.8
		c-0.7-4.5-0.3-9.1,0.6-13.5c0.7-3.5,1.2-7.1,2.2-10.6c2.2-8.4,5.4-16.3,9.8-23.8C60.5,8.8,64.4,5.5,69,3c2-1,4-2.2,6.1-2.8
		c1.7-0.5,3.7-0.1,5.6,0c2.2,0.1,4.4,0.3,6.7,0.3c1.3,0,2.6,0,3.8-0.3c1.6-0.4,3,0.2,4.5,0.6c2.7,0.7,5.5,1.3,7.6,3.3
		C104.1,5,105,6,105.7,7c2.2,3,4.4,5.9,6.4,9.1c2.4,3.9,3.6,8.3,3.8,13c0.1,1.7,0.6,3.5,0.8,5.2c0.1,0.6,0.2,1.2,0.2,1.7
		c0.3,3.8,0.4,7.7,1,11.5c0.8,6,1.2,12,1,18.1c0,1.1-0.1,2.3-0.3,3.4c-0.2,1.2,0.4,1.8,1.4,2.1c2.3,0.6,4.6,1,6.8,1.7
		c5,1.7,9.5,4,12.3,9c1.5,2.8,3.7,5.3,5.7,7.8c4.7,5.8,9.3,11.6,13.3,17.9c2.4,3.8,5.8,6.8,8.8,10.2c1.1,1.3,2.3,2.6,3.5,3.8
		c1.1,1.1,2.3,2,3.4,3c0.7,0.6,1.2,1.4,1.8,2.1c3,3.2,6.3,6,8.8,9.5c3.1,4.2,6.8,7.8,9.8,12c3.7,5,6.1,10.5,5.8,17
		c-0.1,1.1-0.6,1.8-1.4,2.4c-1.5,1.1-3.1,2-5,2.4c-2.4,0.5-4.6,1.8-6.8,2.8c-4.2,1.8-8.3,3.8-12.5,5.5c-4.9,1.8-9.9,3.3-14.8,4.9
		c-5.1,1.6-10.2,3.3-15.3,4.7c-1.6,0.5-3.3,0.3-5,0.5c-2.4,0.3-4.9,0.5-7.3,0.9c-0.9,0.1-1.6,0.5-1.9,1.6c-0.7,2.1-2.5,3.4-4.4,4.3
		c-0.4,0.2-0.8,0.3-1.4,0.6c1.2,0.5,2.1,0.9,3.1,1.2c2.6,0.7,3.5,2.7,3.9,5c0.4,2.3,0.5,4.6,0.6,6.9c0,0.9-0.4,1.7-0.7,2.6
		c-0.1,0-0.3,0-0.4,0c0.4,0.5,0.9,1.1,1.3,1.6c1.2,1.3,1.2,2.5-0.2,3.6c-0.8,0.6-1.6,1.1-2.2,1.5c0.9,0.5,2.3,0.9,2.9,1.8
		c0.7,1.1,0,2.4-1,3.4c1.4,2.8,1.6,5.8,1.9,8.8C98.1,232,62.8,232,27.5,232z M48.4,74.9c-0.4,0.1-0.6,0.1-0.8,0.2
		c-2.7,1.9-5.8,2.8-9.1,3.4c-3.5,0.7-6.9,1.2-10.4,1.9c-1.7,0.3-3.6,0.3-5.2,0.9c-5.1,2.1-7.5,6.4-8.9,11.5c-0.8,3-1.3,6-1.9,9
		c-0.9,4.4-1.8,8.8-2.5,13.3c-0.4,2.7-0.6,5.4-0.8,8.1c-0.3,2.3-0.6,4.7-0.8,7c-0.4,3.9-0.6,7.8-1.2,11.6c-1,5.6-3,11-3.4,16.7
		c-0.1,1.6-0.7,3.2-0.8,4.8c-0.2,3-0.2,5.9-0.3,8.9c-0.1,7.1,0,14.3,1.3,21.3c0.2,1.2,0.7,1.9,1.9,2.3c1.6,0.5,3,1.2,4.6,1.8
		c1.9,0.7,3.8,1.6,5.8,2.2c5.3,1.5,10.8,2.2,15.9,4.4c1.4,0.6,3,0.9,4.6,1.1c4.2,0.5,8.4,0.7,12.6,1.2c4.6,0.5,9.3,1.3,13.9,1.7
		c2.4,0.2,4.8,0,7.2,0.1c1.6,0,3.1,0,4.7,0.3c2.2,0.3,4.4,1.1,6.7,1.1c5.1,0.1,9.8,1.6,13.9,4.4c4,2.7,8.3,3.9,13,4.5
		c4,0.5,7.9,1.5,11.7,2.8c3,1.1,5.8,1.3,8.8,0.9c0.9-0.1,1.8-0.4,1.7-1.8c-0.7-0.1-1.3-0.3-2-0.4c-1.7-0.3-3.4-0.6-5-1.6
		c-1.4-0.9-2.9-1.5-4.5-2c-1.7-0.5-3.4-0.8-5.1-1.3c-0.4-0.1-0.9-0.9-0.8-1.3c0.1-0.6,0.7-1,1.5-0.6c0.6,0.3,1.4,0.5,2.1,0.6
		c2.4,0.6,4.7,1.1,7.1,1.6c1.5,0.3,3,0.7,4.5,0.6c0.8,0,1.5-1.1,2.2-1.6c-0.8-0.8-1.4-2.2-2.3-2.4c-3.3-0.6-6.4-1.6-9.4-2.9
		c-0.4-0.2-0.5-0.9-0.8-1.3c0.5-0.1,1.2-0.5,1.6-0.4c2.3,0.7,4.6,1.6,6.9,2.4c1.9,0.7,2.9,0,2.8-2c0-0.7-0.1-1.4-0.2-2
		c-0.1-0.4-0.4-1-0.7-1.2c-1-0.4-2-0.7-3.1-0.9c-1.7-0.3-3.5-0.5-5.2-0.9c-0.5-0.1-1.3-0.8-1.3-1.2c0.1-0.9,0.8-0.9,1.7-0.7
		c2.8,0.6,5.6,1.2,8.5,1.7c-0.2-2-0.7-3.9-3.2-4.4c-1.7-0.4-3.4-0.8-5-1.5c-1.3-0.6-2.5-0.9-3.9-0.9c-1.3,0-2.6-0.4-4.4-0.7
		c-2.6,1.3-3,1.5-4.7,1.2c-4.4-0.8-8.6,0-12.9,0.7c-2.2,0.3-4.4,0.3-6.2-1.1c-0.8-0.6-1.4-0.8-2.4-0.4c-2.3,0.9-4,0.4-5.5-1.5
		c-0.6-0.8-1.4-0.9-2.3-0.9c-2.3,0-4.5,0-6.8-0.3c-2.6-0.3-5.1-0.9-7.7-1.5c-2.2-0.6-4.4-1.5-6.5-2.1c-2.4-0.7-4.8-1.6-7.3-2
		c-3.7-0.6-7.1-1.9-10.3-3.6c-3.3-1.8-6.5-3.9-9.8-5.9c-1.9-1.1-3.8-1.8-6-1.8c-0.8,0-1.7-0.3-2.5-0.6c-0.2-0.1-0.5-0.6-0.5-0.9
		c0.1-0.3,0.5-0.6,0.9-0.7c0.3-0.1,0.8-0.1,1.1,0c1.1,0.5,1.5-0.1,1.6-1.1c0.5-3.4,1.1-6.7,1.6-10.1c0.5-4.1,1-8.2,1.4-12.3
		c0.5-4,0.8-8,1.4-12c0.5-4.2,1.1-8.4,1.9-12.6c0.9-4.9,2-9.8,1.7-14.8c-0.1-1.2,0.1-2.5,0.3-3.7c0.1-0.4,0.5-0.7,0.8-1.1
		c0.3,0.3,0.8,0.7,0.8,1c0,4.5,0,9.1-0.2,13.6c0,1.1,0.1,1.8,1.2,2.5c0.2-0.9,0.4-1.7,0.6-2.5c0.6-2.6,1.1-5.2,1.9-7.8
		c1-3.7,2.6-7.3,3.3-11c1-5.3,2.6-10.5,4.2-15.7c0.8-2.8,1.7-5.7,2.4-8.6C48.4,76.9,48.3,75.9,48.4,74.9z M122.1,137.8
		c0.2-0.8,0.4-1.4,0.6-2.1c0.5-2.1,0.8-4.4,1.6-6.4c1.6-4.1,3.6-8.1,5.4-12.1c0.1-0.2,0.1-0.6,0-0.9c-0.8-1.7-1.8-3.4-2.6-5.2
		c-0.2-0.5,0-1.1,0-1.7c0.4,0.3,1.1,0.4,1.3,0.8c0.7,1.1,1.2,2.4,2,3.4c2.7,3.3,5.5,6.6,8.2,9.8c3.5,4.1,7,8.1,10.4,12.3
		c2.7,3.3,5,6.9,8.7,9.3c1,0.6,1.6,1.8,2.5,2.5c0.8,0.6,1.6,1.2,2.6,1.5c1.4,0.4,3,0.3,4.5,0.6c0.6,0.1,1.3,0.5,1.7,1
		c0.2,0.2,0.3,1,0,1.3c-0.2,0.3-0.8,0.4-1.3,0.4c-1.4-0.1-2.8-0.3-4.2-0.4c-0.3,0-0.6,0.2-0.8,0.4c-1.8,1.6-3.3,3.4-5.3,4.7
		c-5.7,3.6-11.5,7-17.6,9.9c-5,2.3-10,4.3-15.5,5.3c-4,0.8-8,1.3-11.7,3.2c-0.2,0.1-0.5,0.1-0.8,0.1c-3,0.1-6.1,0.1-9.1,0.2
		c-3.3,0.2-6.6,0.7-9.9,0.6c-4.4-0.1-8.5,0.8-12.6,2.4c-2.9,1.2-5.6,2.6-6.1,6.2c0,0.3-0.3,0.7-0.4,1c-0.2,0.7-0.3,1.3-0.4,2
		c0,0.3,0.4,0.9,0.6,0.9c0.4,0,1-0.4,1-0.6c0.1-2.3,1.9-2.9,3.5-3.7c2.8-1.5,5.5-3,8.3-4.6c0.2-0.1,0.3-0.3,0.5-0.3
		c0.4,0,0.9-0.1,1.1,0.1c0.2,0.3,0.2,0.8,0.1,1.2c-0.1,0.2-0.4,0.4-0.7,0.6c-2.7,1.5-5.3,3.1-8.1,4.4c-1.9,0.9-3.3,2.1-3.6,4.4
		c1.2,0.8,2.2,0.8,3.4,0c1.2-0.9,2.7-1.5,4-2.2c2-1,4-1.8,6-2.8c0.6-0.3,1.1-1.1,1.7-0.3c0.5,0.7,0,1.5-0.6,1.8
		c-1.4,0.8-2.8,1.5-4.2,2.1c-1.7,0.8-3.5,1.4-5.5,2.2c0.8,0.8,1.5,1.1,1.8,1.7c0.6,1,1.5,1.2,2.5,1c0.8-0.2,1.6-0.5,2.2-0.9
		c2.3-1.4,4.5-2.8,6.8-4.2c0.6-0.4,1.3-0.5,2-0.6c0.3,0,0.8,0.3,0.9,0.6c0.1,0.2-0.1,0.7-0.4,0.9c-0.4,0.3-0.9,0.5-1.3,0.7
		c-2.1,0.8-4,1.9-5.5,3.8c1.5,1.3,3.3,1.3,4.9,0.8c4.7-1.2,9.4-1,14.1-0.7c0.9,0,1.9-0.3,2.7-0.7c1.8-0.9,3.4-2,5.2-2.9
		c4.6-2.2,9.7-2.5,14.5-3.5c2.7-0.6,5.5-0.8,8.2-0.8c4.5-0.2,8.6-1.5,12.8-2.9c3.1-1.1,6.2-2.2,9.3-3.3c4-1.3,8-2.4,11.9-4
		c4.5-1.8,8.8-4,13.2-6c2.3-1,4.7-1.6,6.9-2.6c1.4-0.6,2.8-1.3,3.9-2.3c0.5-0.4,0.1-1.7,0.1-2.6c0.1-5.3-2.5-9.5-5.4-13.6
		c-2.7-3.7-5.7-7.1-8.6-10.7c-0.5-0.6-0.9-1.4-1.5-2c-2.8-3-5.7-6.1-8.6-9c-2-2.1-4.2-3.9-6.3-5.9c-0.7-0.7-1.3-1.4-2-2.1
		c-3.8-3.7-7.2-7.7-10.1-12.1c-2.4-3.5-4.7-7-7.2-10.4c-1.5-2.1-3.4-3.9-4.9-6c-2.6-3.5-5-7.1-7.6-10.6c-0.8-1-1.7-2.1-2.8-2.7
		c-3-1.6-5.9-3.3-9.4-3.8c-1.2-0.2-2.4-0.3-3.6-0.6c-1-0.2-1.3,0.2-1.3,1c-0.2,3.4-0.4,6.9-0.6,10.3c-0.2,2.8-0.2,5.7-0.6,8.5
		c-0.3,2.3-0.8,4.5-1.6,6.7c-0.7,2-1.2,4.4-3.9,4.8c-0.1,1-0.2,2-0.3,3c-0.4,3.1-1,6.2-1.1,9.2c-0.1,2.4,0.1,4.9,0.5,7.3
		c0.6,3.1,1.5,6.2,4.2,8.3C117.2,134.2,119.6,135.9,122.1,137.8z M50,80.6c-0.1,0.5-0.2,1-0.3,1.4c-1,3.3-2.2,6.6-3,9.9
		c-1.2,4.7-2.1,9.4-3.3,14c-1,3.6-2.4,7.2-3.4,10.8c-0.5,1.7-0.4,3.6-0.9,5.3c-0.9,3.2-2,6.3-3,9.4c-0.8,2.4-1.2,4.9-3.2,6.8
		c-0.2,0.2-0.2,0.8-0.1,1.2c0.2,2.2,0.5,4.5,0.8,6.7c0.2,1.8,0.1,3.6,0.5,5.3c0.7,2.9,1.8,5.8,2.4,8.7c0.3,1.4,1.3,2.3,1.7,3.6
		c1.2,3.7,3.9,5.4,7.4,6.2c1.9,0.4,3.8,0.7,5.6,1c0.8,0.2,1.3,0.7,1.1,1.5c-0.2,0.9-0.8,0.8-1.5,0.7c-0.8-0.1-1.6-0.1-2.4-0.2
		c-3-0.4-6-0.4-8.3-2.9c-0.4-0.4-1-0.6-1.8-1.2c0.4,1.3,0.9,2.2,1,3.1c0.1,1,0.6,1.4,1.5,1.6c6,2,12.3,3,18.5,3.7
		c3.3,0.4,6.5,0.5,9.8,0.8c1.7,0.1,3.3,0.5,5,0.5c0.9,0,1.9-0.4,2.8-0.8c1.5-0.6,2.8-1.7,4.3-2c2.9-0.7,5.8-1.1,8.8-1.4
		c3.5-0.3,7.1-0.4,10.6-0.7c0.4,0,0.8-0.2,1.2-0.5c1.4-0.8,2.6-2,4-2.4c3.4-0.9,5.6-3.1,7.6-5.9c1.8-2.6,4-4.9,5-8
		c0.2-0.7,1-1.3,1.1-2c0.6-4.1,1.1-8.1,1.7-12.2c0.1-0.8,0.2-1.7,0.3-2.3c-2.4-1.8-4.5-3.5-6.8-5c-5.4-3.6-6.8-9.1-7.3-15
		c-0.2-2.7,0.8-5.4,1.2-8.1c0.1-0.7,0.2-1.4,0.3-2.1c0.2-1.8,0.3-3.5,0.6-5.3c0.1-0.8-0.1-1.2-0.7-1.7c-2.3-1.8-4.8-3.4-6.4-6
		c-0.8-1.2-1.5-2.4-2.4-3.8c-0.2,1.2-0.4,2-0.5,2.8c-0.4,2.4-0.9,4.8-1.2,7.2c-0.3,2.5-0.2,5-0.6,7.4c-0.8,4.9-1.8,9.8-2.8,14.7
		c-1,4.5-3,8.7-5.6,12.5c-1.3,1.9-2.4,3.9-4.1,5.4c-2.7,2.5-5.8,4.4-9.5,5.3c-2.6,0.7-5.2,1.3-8,0.7c-1.8-0.4-3.7-0.7-5.6-0.8
		c-4.2-0.3-7.6-1.7-9.8-5.6c-2-3.5-3.6-7-3.3-11.2c0.3-3.3-0.1-6.6,0.7-9.9c0.6-2.5,0.4-5.2,0.7-7.8c0.5-3.9,1.2-7.9,1.9-11.7
		c0.8-3.9,1.8-7.7,2.5-11.6c0.3-1.3,0.9-2.7-0.2-4.1C52.9,84.7,51.5,82.6,50,80.6z M70.8,146.7c0.1,0,0.3,0.1,0.4,0.1
		c0.2-0.6,0.4-1.3,0.6-1.9c0.9-2.8,1.7-5.6,2.6-8.3c0.2-0.5,0.9-0.7,1.3-1.1c0.2,0.5,0.6,1.1,0.4,1.6c-0.4,1.7-1,3.4-1.5,5.1
		c-0.4,1.4-0.7,2.7-1.1,4.3c3.6-0.6,6.3-2.1,9-4.1c1.2-0.9,2.4-1.7,2.5-3.4c0-0.2,0.3-0.4,0.5-0.6c0.8-1.1,1.7-2.1,2.2-3.4
		c1.6-3.6,3.1-7.1,4.4-10.8c1.8-4.8,3.2-9.8,2.9-15c-0.2-3.4,0.6-6.7,1.3-10c0.4-1.8,1-3.5,1.2-5.4c0.2-2.1-0.2-4.1-1.2-6
		C96,87,95.9,86,95.9,85c-0.1-3.1,0-6.1-0.1-9.2c0-0.5-0.3-1.2-0.6-1.3c-0.3-0.1-0.9,0.3-1.3,0.5c-0.4,0.3-0.7,0.8-1.1,1
		c-2,1.5-4,3.1-6.1,4.5c-4,2.7-8.1,5.3-13.3,4.8c-0.8-0.1-1.5-0.2-2.3-0.3c-2-0.3-4-0.4-5.6-2c-0.8-0.8-1.5-1.6-2.3-2.4
		c-0.2-0.2-0.6-0.4-0.9-0.5c-0.1,0-0.4,0.4-0.4,0.6c0,1.8,0.1,3.6,0.1,5.3c0,1.4,0.1,2.9,0.1,4.3c0,0.5-0.2,1.1-0.2,1.6
		c0.1,1.2-0.5,2-1.4,2.2c-0.5,0.1-1.3-0.7-1.9-1.2c-0.6-0.7-1.1-1.5-1.6-2.3c-0.1,0-0.3,0-0.4,0c-0.2,0.7-0.4,1.4-0.5,2.1
		c-0.5,3-1,6-1.5,9c-0.8,4.8-1.6,9.6-2.3,14.5c-0.4,3.1-0.9,6.2-1,9.3c-0.1,3.1-0.3,6.4,0.3,9.4c0.5,2.6,2.1,4.9,3.3,7.4
		c0.7,1.4,1.9,2.4,3.4,2.8c2,0.5,4.1,0.8,6.1,1.1c1.3,0.2,2.7,0.4,4.1,0.6c0.1-0.5,0.2-0.9,0.2-1.3c0.1-2.3,0.2-4.5,0.3-6.8
		c0-0.8,0.1-1.6,1.1-1.5c0.3,0,0.5,1,0.7,1.6c0.1,0.3-0.1,0.6-0.1,0.9C70.8,142.2,70.8,144.4,70.8,146.7z M94.6,43.6
		c-0.2-1.7-0.5-3.4-0.7-5c-0.4-3.4-1.3-6.7-3.4-9.3c-2.6-3.2-5.7-6.1-8.5-9.2c-0.5-0.6-1.1-1.3-1.1-2.1c-0.2-2.6,0-5.3,1.3-7.6
		c0.9-1.6,1.9-3.1,2.8-4.6c0.2-0.3,0-0.7,0.1-1.1c-0.3,0.1-0.8,0-1,0.2c-1.4,1.9-3,3.8-4,5.9c-1,2.1-1.3,4.6-2,6.9
		c-0.2,0.7-0.6,1.6-1.2,2c-1.7,1-3.6,1.8-5.4,2.7c-1.9,0.9-4.1,1.5-5.7,2.7c-4.6,3.4-5.8,8.5-6.3,13.9c0,0.3,0.4,1,0.7,1.1
		c2.5,0.7,5.1,1.1,7.6,1.9c1.5,0.4,3.1,1,4.2,2c2.2,2.1,2.6,4.8,1.5,7.6C72.6,54,71.7,56.4,71,59c-0.2,0.8,0.1,1.9,0.4,2.7
		c0.2,0.6,1.1,0.9,1.5,1.4c1.1,1.5,2.3,1.6,3.8,0.5c0.6-0.5,1.4-0.6,2.2-0.8c0.4-0.1,1.3,0.2,1.3,0.1c0.3-0.6,0.5-1.3,0.5-1.9
		c-0.1-0.8-0.6-1.5-0.9-2.4c1.4,0.3,2,1.3,1.9,3.2c0,1.9-1.2,2.9-3,2.5c-0.3-0.1-0.8-0.2-1,0c-1.2,1.3-2.7,1.6-4.1,0.9
		c-1.3-0.5-2.3-1.6-3.5-2.5c-0.2-0.1-0.2-0.5-0.3-0.7c-0.5-1.5-0.1-2.9,0.5-4.4c1-2.6,1.9-5.2,2.7-7.8c0.5-1.7-0.6-4.2-1.8-4.6
		c-3-1-6-2-9.1-2.7c-2.4-0.5-3.6-0.3-3.7,2.9c0,0.6,0,1.3-0.1,1.9c-0.3,5-0.8,9.9-0.9,14.9c-0.1,4.6,1.5,8.9,4.1,12.7
		c1.5,2.2,3.6,4,5.1,6.1c1.2,1.6,2.8,2.2,4.6,2.4c4.9,0.7,9-1.1,12.8-3.8c3.3-2.3,6.5-4.7,9.6-7.2c1.9-1.5,3.1-3.4,3-5.9
		c-0.1-2.3,0.1-4.5,0-6.8c-0.2-3.9-0.5-7.8-0.8-11.7c-0.2-1.9-0.7-2.4-2.5-2.3c-0.9,0-1.8,0.2-2.7,0.3c-2,0.4-4.1,0.8-6.1,1.2
		c-1,0.2-1.5-0.3-1.9-1.5C86.6,45.1,90.5,44.4,94.6,43.6z M160.7,151.5c-1.6-1.6-3-3.5-4.8-4.7c-2.7-1.9-4.7-4.4-6.7-6.9
		c-2.9-3.6-5.7-7.3-8.7-10.8c-2-2.4-4.2-4.8-6.3-7.2c-1-1.1-1.9-2.3-2.8-3.3c-1.2,2.7-2.4,5.2-3.6,7.8c-0.7,1.6-1.6,3.2-2,4.9
		c-0.9,3.3-1.7,6.7-2.3,10.1c-0.6,3.3-0.6,6.7-1.2,9.9c-0.8,4.5-1.9,8.9-2.7,13.3c-0.4,2-0.5,4.2-0.7,6.3
		C133.4,169.8,155.6,156.8,160.7,151.5z M101.2,219.6c-2.6-1.5-5.3-3-8-4.5c-0.9-0.5-2-0.9-3-1.4c-3.4-1.4-7.1-1.8-10.7-2.2
		c-1.4-0.1-2.7-0.7-4.1-0.8c-5.1-0.3-10.2-0.4-15.3-0.6c-0.6,0-1.3-0.1-1.9-0.2c-3.9-0.6-7.8-1.2-11.7-1.7c-4-0.6-8.1-1-12.1-1.6
		c-0.9-0.1-1.4,0-1.4,1.1c0.2,3.1-0.3,6.1-1.4,9c-0.1,0.3,0.2,1.2,0.5,1.4c2.8,1.7,5.7,3,8.9,3.5c5.7,0.9,11.5,1.6,17.3,2.2
		c3.4,0.3,6.9,0.5,10.3,0.3c5.5-0.3,11-0.8,16.4-1.5C90.6,221.8,96,220.6,101.2,219.6z M38.7,175.2c0,1.2,0.1,2.2,0,3.1
		c-0.2,1.2,0.4,2.1,1.3,2.5c2.8,1.3,5.6,2.6,8.6,3.6c4.7,1.5,9.5,2.6,14.2,4c3,0.9,5.8,2.1,9,1.9c0-0.1,0.1-0.2,0.1-0.3
		c0.4-2.5-0.5-5.2,0.8-7.6c0.1-0.2-0.2-1.1-0.4-1.1c-1.7-0.5-3.5-1-5.2-1.2c-3-0.3-6.1-0.4-9.1-0.6c-5.6-0.3-11-1.5-16.3-3.3
		C40.6,175.9,39.8,175.6,38.7,175.2z M36.2,178.5c0.1-1.5,0.2-2.7,0.3-4c0.2-4.3-1.3-8.3-2.1-12.5c-0.7-3.8-2-7.4-2.9-11.2
		c-0.3-1.5-0.2-3.2-0.3-4.8c-0.3,0.3-0.4,0.5-0.5,0.8c-0.7,5.6-1.2,11.2-1.9,16.8c-0.4,3.3-1,6.5-1.5,9.7c0,0.3,0.4,0.7,0.7,0.8
		c0.9,0.4,1.8,0.7,2.7,1.2C32.5,176.4,34.3,177.4,36.2,178.5z M107,173.2c0.1,0.2,0.1,0.4,0.2,0.5c3-0.6,6-1.3,9-2
		c0.2-0.1,0.6-0.5,0.6-0.7c0.2-2.3,0.3-4.7,0.4-7.1C114.3,167.7,111.9,171.9,107,173.2z M128.2,190.2c-3.2-0.2-10.5,1.8-12.4,3.4
		C121.8,194.6,125.7,194.2,128.2,190.2z M31.9,134.3c0.2,0,0.3,0.1,0.5,0.1c0.7-2.5,1.5-5,2.1-7.6c0.1-0.3-0.2-0.7-0.4-1
		c-0.2,0-0.3,0-0.5,0.1C33.1,128.7,32.5,131.5,31.9,134.3z"/>
	<path class="st0" d="M74.3,77.2c-3.6-0.1-6.4-1.4-8-4.8c-0.3-0.6-0.8-1.2-1.3-1.7c-0.9-1.1-0.7-1.8,0.7-2c1.6-0.3,3.2-0.7,4.8-0.9
		c0.7-0.1,1.5,0.3,2,0.8c0.7,0.6,1.3,0.6,2.1,0.2c0.8-0.3,1.8-0.5,2.5-0.3c1.8,0.6,3.6,1.4,5.3,2.2c0.4,0.2,0.8,0.6,1.2,1
		c-0.3,0.3-0.6,0.6-0.9,0.9c-1.6,1.3-3.2,2.7-5,3.8C76.8,76.8,75.5,76.8,74.3,77.2z M67.7,72.2c1.9,4.8,9.3,4.9,13,0.3
		C76.4,73.8,72.1,73.9,67.7,72.2z M80.1,71.3c0-0.2,0.1-0.4,0.1-0.6c-0.9-0.4-1.8-0.6-2.7-1.1c-0.9-0.5-1.7-0.6-2.6,0
		c-1,0.6-2.1,0.6-3-0.4c-0.3-0.3-0.9-0.5-1.3-0.5c-1.1,0.1-2.3,0.3-3.4,0.5c0,0.2,0,0.4,0,0.5C71.5,70.3,75.8,70.8,80.1,71.3z"/>
	<path class="st0" d="M82.5,48.3c0.6,0.4,1.5,0.6,1.9,1.1c1.8,2.6,3.9,3.3,7.4,2c1.1-0.4,2.1-1,3.2-1.5c0.6,1.7,0.5,2-1.4,2.6
		c-0.3,0.1-0.5,0.1-0.8,0.2c-3.5,1.8-6.5,0.6-9.2-1.9c-0.6-0.6-1.1-1.2-1.7-1.9C82.2,48.8,82.3,48.6,82.5,48.3z"/>
	<path class="st0" d="M60.3,45.8c1.1,0.5,2.3,1,3.4,1.4c2.1,0.8,4.1,0.7,6.3,0.1c0.4-0.1,0.9,0.2,1.3,0.4c-0.3,0.4-0.5,1-0.8,1.1
		c-3.3,1.1-6.5,0.8-9.6-0.7c-0.6-0.3-0.7-1.4-1.1-2.2C59.9,45.9,60.1,45.8,60.3,45.8z"/>
</g>
</svg>
