<?xml version="1.0" encoding="utf-8"?>
<!-- Generator: Adobe Illustrator 18.1.1, SVG Export Plug-In . SVG Version: 6.00 Build 0)  -->
<!DOCTYPE svg PUBLIC "-//W3C//DTD SVG 1.1//EN" "http://www.w3.org/Graphics/SVG/1.1/DTD/svg11.dtd">
<svg version="1.1" id="Layer_1" xmlns="http://www.w3.org/2000/svg" xmlns:xlink="http://www.w3.org/1999/xlink" x="0px" y="0px"
	 viewBox="405 169.6 150 221.3" style="enable-background:new 405 169.6 150 221.3;" xml:space="preserve">
<style type="text/css">
	.st0{fill:#F44336;}
</style>
<g id="foodpoison-lady">
	<path class="st0" d="M442.3,390.9c0.4-1.2,0.6-2.4,1.1-3.6c1.2-3,2.6-5.9,3-9.1c0-0.4,0.1-0.9,0.4-1.2c1.4-2.9,1.6-5.9,1.1-8.9
		c0-0.4-0.1-0.7,0-1c0.5-2.2,1-4.4,1.5-6.5c0.4-1.5,0.5-3.1,0.9-4.6c0.5-2.5,2-4.4,3.4-6.5c1.5-2.2,2.6-4.7,3.9-7.1
		c0.1-0.2,0.1-0.6,0-1c-0.5-1.7,0.2-3,1.7-3.9c0.1-0.1,0.4-0.2,0.6-0.4c-1.9-2.6,0.1-4.4,1.4-6.2c1.4-1.9,2.2-3.7,1.7-6.2
		c-0.4-2-0.2-4.1,1-6c0.4-0.6,0.5-1.1-0.4-1.6c-1.4-0.7-2.5-1.7-3.9-2.5c-2.2-1.2-4-3-5.2-5.1c-1.9-3.1-3.7-6.2-3.1-10.1
		c0.5-3.2,1.2-6.6,1.9-9.9c0.5-2.6,0.9-5.2,1.4-8.1c-0.5,0.1-0.9,0.2-1,0.4c-3.1,2.4-6.4,4.7-9.4,7.2c-2.4,2-4.6,3.7-7.5,5
		c-2.4,1-4.5,2.4-6.7,3.6c-2.5,1.4-4.9,2.9-7.4,4c-3.9,1.7-7.7,3.2-11.9,4.6c-1.7,0.5-3.7,0.1-5.7,0.1c0-0.4,0-0.9,0-1.2
		c2,0.1,3.9,0.6,5.7-0.2c3.9-1.5,7.7-2.9,11.6-4.5c1.9-0.7,3.7-1.9,5.5-2.9c2.9-1.6,5.6-3.2,8.5-4.9c1.9-1,3.7-1.9,5.4-3.4
		c3.7-3.2,7.5-6.7,11.9-9.2c0.7-0.4,0.9-0.9,0.7-1.7c-0.5-2-0.7-4-1.1-6c-0.1-0.6-0.5-1.2-1-1.6c-1.5-1.5-3.5-2.6-4.1-4.9
		c-0.1-0.2,0-0.6,0-0.9c0.2,0.1,0.6,0.1,0.9,0.4c0.2,0.2,0.2,0.6,0.5,0.9c0.7,1.2,1.7,2.4,3.2,2.9c0.4-8.4,2.9-15.7,8.9-21.9
		c-2.6,0.5-5.2,0.9-7.6,1.9c-4.1,1.9-8.4,4-11.7,7.1c-2.5,2.2-5.1,4.4-6.7,7.5c-1,1.9-2.2,3.9-3.7,5.2c-3.6,3.4-7.5,6.4-12.1,8.4
		c-1.1,0.5-2,1.2-1.7,2.7c0.2,2,0.4,4.1,0.5,6.1c0,0.4,0.2,0.7,0.2,1.1c0,0.4-0.4,0.6-0.5,0.9c-0.2-0.2-0.6-0.4-0.7-0.7
		c-1.1-3.2-1-6.5-0.7-9.7c0.5-5.1,1.4-10.2,2-15.4c0.5-4.5,1.4-8.7,2.7-13c1.5-4.4,3-8.7,4.5-13.2c-0.2,0-0.6,0-1-0.1
		c-0.2-0.1-0.5-0.4-0.9-0.6c0.4-0.1,0.6-0.4,1-0.4c0.2,0,0.5,0.1,0.7,0.1c0.7-0.1,1.9-0.1,2.4-0.6c1.2-1.1,2.4-2.5,3.4-3.9
		c1.6-2.2,3.1-4.5,4.7-6.7c0.9-1.2,1.9-2.4,3.5-2.9c1.2-0.4,2.5-0.9,3.7-1.4c1.4-0.5,2.7-1.1,4.1-1.2c1-0.1,1.9-0.5,2.5-1.2
		c0.6-0.6,1.1-1.4,0.5-2.1c-0.2-0.4-1.4-0.4-1.9-0.1c-2.9,0.9-5.7,1.9-8.7,2.6c-1,0.2-2,0.2-3,0.5c0.1-0.5,0.4-0.7,0.7-0.9
		c0.7-0.2,1-0.7,0.6-1.4c-0.4-0.9,0-1.1,0.7-1.6c3.6-2.5,7.9-3.9,12-5.4c1.2-0.5,2.5-0.9,3.6-1.4c0.7-0.4,1.5-1.1,1-2
		c-0.2-0.4-1.2-0.5-1.9-0.4c-2.7,0.5-5.4,1.2-8.1,1.9c-1,0.2-2.1,0.1-2.9,0.6c-2.6,1.7-5.1,3.9-7.6,5.7c-0.6,0.5-1.1,0.9-1.7,1.4
		c-0.1-0.1-0.2-0.2-0.2-0.4c0.6-0.6,1.1-1.1,1.7-1.7c2.7-2.7,5.7-5.2,9.6-6.4c1.5-0.4,3.1-0.9,4.6-1.1c2.6-0.5,5.1-0.9,7.7-1.2
		c0.7-0.1,1.1-0.5,0.9-1c-0.1-0.4-0.7-1-1.1-1c-0.9-0.1-1.7,0.1-2.6,0.2c-2.9,0.2-5.7,0.2-8.5,0.9c-4.6,1.1-9,3.1-12.5,6.5
		c-0.4,0.2-0.7,0.5-1.1,0.7c-0.1-0.1-0.1-0.2-0.2-0.4c0.7-0.7,1.5-1.7,2.4-2.4c1.2-0.9,2.5-1.6,3.9-2.2c2.4-1.4,4.9-2.5,7.6-2.9
		c2.1-0.2,4.1-0.4,6.1-0.7c0.6-0.1,1.4-0.6,1.7-1.1c0.2-0.4,0.1-1.4-0.1-1.6c-0.5-0.2-1.2-0.2-1.9-0.1c-2,0.4-4.1,0.7-6.1,1.4
		c-2.4,0.7-4.7,1.5-6.9,2.5c-2,0.9-3.9,2.1-5.6,3.4c-1.1,0.7-2.5,1.5-3.1,2.5c-1.5,2.4-2.9,4.9-4,7.4c-1.4,3.4-3.6,6.2-5.6,9.2
		c-1.4,2.1-3.1,4-4.2,6.1c-1.2,2.4-2,5.1-2.9,7.7c-1.6,4.7-3,9.5-4.6,14.1c-0.9,2.2-2.2,4.4-3.4,6.6c0-0.9,0-1.7,0-2.6
		c1.2-2.7,2.6-5.5,3.6-8.4c1.6-4.7,3-9.6,4.6-14.4c1-3,2.5-5.7,4.6-8.2c3-3.5,5.6-7.4,7.4-11.6c1-2.2,2.2-4.4,3.5-6.5
		c0.9-1.5,2.4-2.2,3.9-3c1.5-0.9,3.1-1.7,4.6-2.6c0.9-0.5,1.2-1.1,1.1-2.1c-0.5-3.6,0.5-7,2.4-10c0.9-1.5,1.9-2.9,3-4.1
		c1.6-2,3.1-4,5-5.6c3.5-3,7-6.2,11.2-8c3.1-1.2,6.5-1.6,9.9-2.2c4.5-0.9,8,1.4,11.2,4c2.1,1.7,4.4,3.6,6.1,5.9
		c2.9,3.6,5.9,7.1,6.7,12c0.1,1,1.5,1.9,2.5,2.6c1.4,1.1,2.9,2.1,4.4,3.1c0.2,0.1,0.5,0.2,0.6,0.5c2,3.4,5.7,5.1,7.9,8.4
		c1.7,2.7,4.1,5.1,5.5,7.9c1.2,2.4,2,5.2,2.4,8c0.5,3.6,0.5,7.4,0.9,11.1c0,0.7,0.4,1.5,0.7,2.1c1.4,2.4,2.6,4.9,4.4,7
		s4,3.9,6.2,5.4c2.5,1.6,4.5,3.5,5.6,6.2c1.4,3.2,2.7,6.4,3.7,9.7c1.2,4.2,2.1,8.5,3.2,12.7c1.2,4.4,2.7,8.6,3.9,13
		c0.9,3.1,1.1,6.4,1.9,9.5c1.2,5.1,3,10.1,4.2,15.2c0.9,3.9,1.6,7.9,2,11.9c0.5,4.4,0.5,8.7,0.9,13c0.2,3.1-0.9,5.9-1.9,8.6
		c-0.6,1.6-2.2,2.2-3.7,2.7c-2,0.6-4,1-6,1.4c-0.5,0.1-1,0.2-1.5,0.2c-3.2,0.1-6.5,0.1-9.7,0.6c-2.6,0.4-5.2,1.4-7.9,2
		c-0.9,0.2-1.7,0.2-2.7,0.4c-0.1,1-0.4,2.2-0.4,3.4c0,4-0.1,8.1,0,12.1c0,1.9,0.5,3.6,0.9,5.5c0.1,0.7,0.1,1.6,0.4,2.4
		c1.1,4,1.6,8.1,1.6,12.4c-0.4,0-0.9,0-1.2,0c-0.4-2.7-0.2-5.5-1-8.2c-1-3.6-1.6-7.4-1.9-11c-0.2-5.1,0-10.2,0.1-15.5
		c0-0.9,0-1.2-1-1c-2.1,0.4-4.4,0.6-6.6,0.9c-1.5,0.1-2.9,0.4-4.4,0.5c-0.2,0-0.5,0.4-0.6,0.5c-0.4,1.1-0.6,2.2-0.9,3.5
		c-0.6,3.6-1.4,7.2-2,10.9c-0.4,2.4-0.9,4.6-1.1,7c-0.2,3.2-0.2,6.4-0.2,9.6c0,0.7-0.2,1.6-0.4,2.4c-0.1,0-0.2,0-0.4,0
		c-0.1-0.2-0.2-0.5-0.2-0.7c0.2-4.4,0.4-8.6,0.7-13c0.2-3.1,0.9-6.1,1.4-9.1c0.6-3.1,1.5-6.4,2.1-9.5c0.1-0.5,0-1,0-1.5
		c-2.5-0.2-4.9-0.6-7.2-0.6c-4.6-0.1-9.2,0-13.9,0.1c-2,0-3.9,0.6-5.5,1.9c-3.5,2.7-7.1,5.4-11.2,7.2c-2.6,1.2-4.7,3-6.9,4.9
		c-1.7,1.4-3.4,2.9-5.4,3.9c-0.9,0.5-2.1,0.4-3.1,0.1c-1.6-0.4-1.9-2.2-0.7-3.4c0.9-0.7,1.7-1.5,2.6-2.2c1.1-1,2.2-1.9,3.4-2.9
		c-0.1-0.1-0.2-0.2-0.4-0.4c-1.1,0.6-2.1,1.4-3.2,2c-1.9,1.1-3.7,2-5.9,0.1c0,0.5,0,0.7,0,1c0.5,2.4,0.1,4.7-0.5,7
		c-0.4,1.4-1,2.6-1.4,4c-0.5,1.5-0.7,3.1-1.2,4.6c-0.7,2.4-1.7,4.6-2.6,6.9C443.2,390.9,442.7,390.9,442.3,390.9z M477.7,354.6
		c0-0.2,0.1-0.5,0.1-0.6c1.2,0.1,2.4,0.4,3.6,0.5c0.5,0.1,0.9,0.2,1.4,0.2c4.4-0.2,8.6-0.5,13-0.6c1.7,0,3.4,0.4,5.1,0.4
		c2.9,0.1,5.7,0.4,8.6,0.2c2.4-0.1,4.7-0.9,7.1-0.9c4-0.1,8-0.7,12-1.7c2.4-0.6,4.9-1.2,7.5-1.2c4,0,8,0.2,11.9-1.4
		c1-0.5,2.5-0.5,3.1-1.2c1.9-2.2,3.1-4.9,3-8c-0.1-2.9-0.5-5.7-0.5-8.6c0-3.7-0.2-7.4-1.1-11c-1.1-4.7-2.1-9.5-3.2-14.2
		c-0.6-2.7-1.9-5.4-2.4-8.1c-1-5.5-2.1-11-3.9-16.2c-1.5-4.5-3-9-4.1-13.6c-0.9-3.9-2-7.6-3.5-11.4c-0.4-1.1-1.1-2.1-1.6-3.1
		c-1.2-2.4-3.2-4-5.4-5.5c-0.5-0.4-1.4-0.2-2-0.6c-1.7-1-6.6-0.7-8.2,0.5c-2.6,2-4.7,4.5-6,7.5c-0.9,2-1.5,4.1-2.1,6.2
		c-0.9,2.5-1.7,5-2.5,7.6c-1,3.5-2.5,7-2.1,10.7c0.1,2.1,0.5,4.4,1.1,6.4c0.5,1.7,1.2,3.6,3,4.6c3.4,2.1,7.1,3,11.1,3.5
		c0.7,0.1,1.1-0.4,0.9-1c-0.5-1.9-1-3.7-1.4-5.6c-0.5-1.7-1-3.2-2.7-4.5c-2.5-1.9-3.7-4.7-4.2-7.9c0-0.2,0.1-0.6,0.1-0.9
		c0.2,0.2,0.5,0.5,0.6,0.7c0.7,1.6,1.5,3.4,2.4,5c0.4,0.6,1,1.1,1.5,1.6c0.6,0.6,1.5,1.1,1.9,1.7c1,2.5,1.9,5.1,2.6,7.7
		c0.6,2.4,1,4.9,1.6,7.2c0.6,2.9,1.5,5.6,2,8.5c0.7,4.5,1.4,9.1,3.4,13.4c0.9,1.9,1.4,3.9,1.9,6c0.4,1.4,0.9,2.4,2.4,2.9
		c1.1,0.4,2.1,1.1,2.5,2.4c-0.6-0.1-1.1-0.4-1.7-0.5c-1.1-0.5-2.2-1.5-3.4-1.4c-2.1,0.1-4.1,0.9-6.1,1.5c-2.1,0.6-4.1,1.5-6.1,2.2
		c-2,0.9-4,1.7-6,2.6c-3.2,1.6-6.9,1.5-10.4,2.2c-3.5,0.7-7.2,1-10.9,1.4c-4.2,0.4-8.6,0.6-12.9,1.1c-1.5,0.1-3.2,0.4-4.5,1.5
		c-0.1,0.1-0.5,0.1-0.7,0.1c0-0.1-0.1-0.2-0.1-0.5c0.9-0.5,1.9-1.1,2.7-1.6c-1.4-0.9-2.7-2-4.2-2.7c-0.9-0.5-2.1-0.7-3.1-0.6
		c-1.6,0-3.2,0.4-4.9,0.7c-0.5,0.1-1,0.4-1.2,0.7c-0.5,0.7-0.7,1.6-1.2,2.6c1.7,0.2,3.5,0.5,5.4-0.5c-0.1,0.5-0.1,0.9-0.4,1.1
		c-0.5,0.5-1,0.9-1.5,1.4c-2,1.7-3.7,3.9-6.2,4.7s-4,2.6-5.2,4.7c-0.7,1.4-1.1,2.9-0.9,4.7c1.9-2.5,3.7-4.6,6.9-5.6
		c-0.2,0.5-0.4,0.9-0.5,1c-0.7,0.5-1.7,0.7-2.4,1.4c-2.1,2.1-4.5,3.9-5.2,7c-0.1,0.9,0,1.7,0,2.7c3-1.9,4.5-4.9,7.9-5.9
		c-0.1,0.5,0,0.7-0.1,0.7c-1.7,1.4-3.5,2.7-5.2,4.1c-0.5,0.4-1,0.9-1.1,1.5c-0.1,0.9,0.2,1.7,0.4,2.7c0.5-0.1,1-0.2,1.4-0.5
		c1.4-0.9,2.7-1.9,4.1-2.7c1-0.7,2.1-1.5,3.2-2.1c0.2-0.1,0.9,0,1.2,0.1c0,0.4,0,0.9-0.1,1c-1.7,1.7-3.6,3.6-5.4,5.4
		c-0.5,0.5-1.1,0.9-1.5,1.1c0.2,1.2,0.5,2.1,0.7,3.2c1-0.6,2-1,2.7-1.7c1.7-1.4,3.1-3,5-4.2c2.5-1.7,5.2-3,7.9-4.6
		c3.4-2.1,6.5-4.5,9.7-6.9c0-0.1,0-0.2,0-0.4C479.9,355,478.8,354.9,477.7,354.6z M468.2,248.5c-1,1.1-1.5,2.2-1.4,3.6
		c0,0.5-0.2,1-0.5,1.4c-0.9,1.4-1.9,2.6-2.7,4.1c-0.7,1.2-1.2,2.6-1.7,4c-0.4,0.9-0.6,1.9-0.6,2.9c-0.1,4.2-0.1,8.5,0,12.7
		c0,1.2,0.6,2.6,1.1,3.7c1.1,2.4,3.4,3.1,5.6,3.9c3.4,1.2,7,0.9,10.4,0.1c6-1.4,11.4-4.5,15.4-9.2c2.5-3,4.5-6.5,6.5-9.9
		c2.4-4,4.4-8.2,6.6-12.4c0.6-1.1,1.4-2.1,2.2-3.5c-6.9,1.1-13.5,2.2-20.1,3.4c0.1-1.2,1-1.4,1.9-1.5c1.9-0.2,3.7-0.5,5.6-0.7
		c2.6-0.4,5.2-0.9,7.9-1.2c1.4-0.2,2.6-0.7,4-0.7c1.2,0,1.9-0.5,2.6-1.2c2-1.9,4.2-3.4,6.9-4.4c-0.2-0.2-0.5-0.4-0.7-0.5
		c-2.5-1.2-5.1-2.2-7.4-3.7c-2.5-1.6-4.7-3.6-7-5.5c-1.1-1-2.4-2.2-3-3.6c-1.6-3.2-3-6.5-4.5-9.7c-0.2-0.6-0.7-1.1-1.2-1.6
		c-2.2-1.7-4-4-5.1-6.6c-0.6-1.4-1.1-2.9-1.7-4.4c-0.4,0.5-0.7,0.9-1,1.4c-0.4,0.6-0.7,1.4-1,2c-0.9,1.6-2.5,2.5-4.2,2.1
		c-0.4-0.1-0.6-0.4-1.2-0.9c0.6-0.1,0.7-0.1,1-0.1c2.2,0.4,3.2-0.2,4.1-2.4c0.1-0.4,0.2-0.7,0.5-1c2-2.7,2.2-5.5,0.7-8.5
		c-0.9-1.7-2.7-3-4.1-2.7c-2.1,0.4-4.1,2.1-4.6,4c-0.7,2.7-1.5,5.5-2.4,8.5c-0.2-0.2-0.6-0.4-0.7-0.6c-1.9-3-4.7-4.5-8-5.4
		c-2.9-0.7-5.9-1.4-8.1-3.6c-0.6-0.6-1.6-0.7-2.5-1.1c-0.1,0.7-0.2,1.4-0.4,1.9c2.9-0.2,3.9,0.1,4.1,1.2c0.1,0.5,0.1,1.1-0.1,1.4
		c-0.6,0.5-1.4,0.7-2.1,1.1c0.5,1.9-0.6,2.9-2.4,3.5c-3.1,1.2-6.2,2.4-9.5,3.6c-0.2,0.1-0.6,0.2-0.9,0.4c1.4,3.1,1.5,3.2,3.5,1.9
		c-0.9-0.9-0.1-1.2,0.4-1.9c2.2-2.2,5.1-3.2,8.1-4.2c0.5-0.1,1,0,1.5,0c0,0.1,0,0.4,0,0.5c-3.2,1.2-6.9,2.1-9.4,5.5
		c0.7-0.1,1.1-0.2,1.6-0.2c0.9-0.1,1.7,0,1.9,0.9c0.1,0.7,0,1.6-0.4,2.4c-0.2,0.6-1.1,1-1.5,1.5c-0.4,0.4-0.6,0.9-0.6,1.4
		c-0.1,2.5-0.1,5,0,7.5c0,0.6,0.6,1.5,1.2,1.9c0.6,0.5,1.6,0.6,2.5-0.2c-1.2-0.5-0.5-1.2-0.1-1.6c0.6-0.5,1.4-1.1,2.2-0.4
		c-0.2,0.5-0.5,0.9-0.7,1.4c0.1,0.1,0.1,0.1,0.2,0.2c0.6-0.7,1.5-1.4,1.7-2.1c0.1-0.9-0.4-1.7-0.6-2.6c1.4,0.6,1.9,2.4,0.9,3.6
		c-0.5,0.6-1.1,1-1.7,1.5c-0.4,0.2-0.6,2.6-0.4,2.9c0.1,0.1,0.5,0.2,0.7,0.1c2.2-0.4,4.6-0.7,6.9-1.1c0.4-0.1,0.9,0.1,1.2,0.1
		c0,0.4,0,0.9-0.2,1.1c-1.1,1.7-2.2,3.5-3.2,4.9c0.4,1.1,0.9,2,1.1,2.9c0.5,2,1.6,2.5,3.5,1.9c0.5-0.1,0.9-0.4,1.4-0.6
		c2.1-0.9,4.1-1.6,6.2-2.5c1.1-0.5,1.6,0.1,2,0.9c0.1,0.4,0.2,0.7,0.5,1c1,2.4,2,4.6,1.6,7.2c-0.1,1.2-1.2,3.4-1.9,3.2
		c-1.6-0.5-3.6-0.1-5-1.7C468.8,249,468.5,248.8,468.2,248.5z M523.1,245.9c-1.2-1.4-4.5-2-6.5-1c-2.6,1.5-5.2,2.9-6.7,5.6
		c-2.7,4.7-5.4,9.4-8.1,14.1c-2.1,3.5-4.2,7-6.4,10.5c-0.4,0.7-0.9,1.4-1.5,2c-3.5,3.6-7.7,6.1-12.4,8.1c-4,1.6-8.1,1.5-12.2,1.5
		c-0.9,0-1.9-0.2-2.6-0.6c-1-0.5-2-1.2-3-1.7c-1.9-1.1-2.9-2.7-3.4-4.7c-1.1-4.2-1.1-8.7-0.7-13.1c0.1-0.9,0.1-1.9,0.4-2.6
		c1.5-3.9,2.9-7.6,4.6-11.4c1.1-2.5,2.6-4.9,4.1-7.2c-1.6,0.5-3.4,1-5,1.5c-0.2,0.1-0.5,0.5-0.7,0.7c-0.7,1-1.5,2-2.2,2.9
		c-1.1,1.5-2.5,2.9-3.2,4.5c-1,2.1-1.7,4.4-2.5,6.6c-0.5,1.5-0.6,3.1-0.7,4.6c-0.4,3,0.6,5.9,1.1,8.6c0.6,2.9,0.7,5.7,0.2,8.6
		c-0.9,4.7-1.9,9.4-2.6,14.1c-0.2,1.9-0.4,4,0.1,5.9c1,2.7,2.4,5.5,4.4,7.7c1.4,1.6,3,2.4,5,2.2c2.5,0,5-0.2,7.5-0.2
		c4.2,0,8.5,0.2,12.7,0.1c1.7,0,3.1,0.2,4.6,1c0.2,0.1,0.4,0.1,0.6,0.1c4.2,0.7,8.4,1.5,12.6,2.2c0.6,0.1,1.2,0.2,1.9,0.1
		c2.4-0.1,4.6-0.2,7-0.4c0.9,0,1.7,0,2.6-0.1c2.5-0.5,4.9-1.1,7.4-1.7c0.4-0.1,0.7-0.5,0.9-0.9c0.7-1.7,1.4-3.6,2-5.4
		c0.6-1.7,1.1-3.6,0.4-5.5c-0.5-1.5-0.9-3-1.1-4.5c-0.2-1.4-1-2.1-2.2-2.2c-3.4-0.1-6.4-1.4-9.4-2.6c-1.1-0.5-2.5-1.2-3.1-2.4
		c-1.9-2.9-2.7-6.1-3-9.5c-0.4-3.6,0.6-7,1.6-10.5c0.7-2.5,1.2-5.1,2.1-7.6c0.9-2.5,2-4.9,3-7.4c1-2.6,2.4-5,4.5-6.9
		c1.1-0.9,2.2-1.9,3.5-2.4C519.9,246.4,521.5,246.3,523.1,245.9z M509.3,336.5c0-0.1,0-0.4,0.1-0.5c-1-0.2-2-0.6-2.9-0.6
		c-1.1,0-2.2,0.2-3.4,0.4c-4.1,0.4-8.2,0.4-12.4-0.1c-3.1-0.4-6.4-0.7-9.5-1.1c-0.2,0-0.5-0.2-0.9-0.4c1-1.4,2.4-1.2,3.7-1.1
		c3,0.4,6,1,8.9,1.2c2.7,0.2,5.5,0.1,8.2,0.1c1.4,0,2.9-0.1,4.2-0.4s2.6-0.2,3.9,0.4c3.2,1.4,3.2,1.2,4.7-1.9
		c2.5-5.1,4.9-10.4,5.5-16.2c-0.5,0.1-1.1,0-1.6,0.2c-4.6,1.4-9.5,1.1-14.2,1.6c-1.9,0.1-3.9-0.5-5.7-0.6c-4.2-0.4-8.4-0.9-12.4-2.4
		c-0.4-0.1-0.7-0.1-1.1-0.1c-5.2-0.1-10.4-0.2-15.6-0.2c-1.9,0-3.6,0-5.5,0c0.2,0.4,0.6,0.6,0.9,0.7c1.2,0.7,1.9,2.2,1.1,3.5
		c-1.4,2.4-1,4.9-0.7,7.5c0,0.2,0.5,0.6,0.7,0.6c3.1,1.2,6.4,0.9,9.6,0.9c0.5,0,1,0.1,1.4,0.2c0,0.1,0,0.4,0,0.5
		c-0.6,0.2-1.1,0.7-1.7,0.7c-3.1,0-6.2,0.2-9.2-1c-0.9-0.4-1.1,0-1.5,0.6c-0.6,1.1-1.4,2.1-2.1,3.1c-1.2,1.5-1.5,3.4-0.5,4.9
		c0.1,0.1,0.4,0.4,0.5,0.4c1.4-0.1,2.7-0.1,4-0.5c2.4-0.5,4.4-0.5,6.4,1c2.5,1.7,5.1,3.1,8.4,2.6c0.6-0.1,1.2,0,1.9-0.1
		c1.1-0.1,2.2-0.5,3.4-0.6c1.2-0.1,2.5-0.1,3.9-0.2c2-0.2,3.9-0.5,5.9-0.7c1.5-0.2,3-0.2,4.6-0.5c2.1-0.4,4.4-0.6,6.5-1.1
		C507.6,336.9,508.4,336.8,509.3,336.5z M447.4,219.5c-2.4,0.9-4.5,1.6-6.6,2.4c-0.7,0.2-1.5,0.5-2,1c-1.1,1.2-2.2,2.5-3.1,3.9
		c-2,3.4-4.2,6.6-7.2,9.2c-1,0.9-1.7,1.7-2.1,2.9c-1.4,4.1-2.7,8.4-4.1,12.5c-1.2,3.9-1.9,8-2.1,12.1c-0.1,2.2-0.6,4.5-0.9,6.9
		c-0.2,1.9-0.5,3.7-0.7,5.6c0.1,0.1,0.2,0.1,0.4,0.2c1-0.5,2.1-0.9,3-1.5c2.5-1.7,5-3.6,7.5-5.4c2-1.4,3.5-3.2,4.6-5.4
		c2.2-4.6,6-7.6,9.7-10.6c2.2-1.7,4.7-3,7.2-4.4c1.1-0.6,2.5-1.2,3.7-1.6c3.2-0.9,6.5-1.4,9.7-2.2c2.9-0.7,5.6-1.6,8.4-2.5
		c0.2-0.1,0.7-0.6,0.6-0.9c-0.2-0.7-0.6-1.5-0.9-2.2c-0.7,0.2-1.4,0.5-1.9,0.7c-2.2,0.9-4.4,2-6.6,2.7c-2.4,0.9-3.4,0.4-4.2-1.6
		c-0.1-0.4-0.4-0.9-0.4-1.4c0-1-0.5-1.4-1.4-1.6c-1.4-0.5-2.9-1-2.9-3c0-0.2-0.5-0.6-0.9-0.6c-1.1-0.2-1.5-1-1.5-2.1
		c0.1-1.1-0.2-1.7-1.5-1.6c-1.9,0.1-3.9-1.7-3.7-3.7c0.2-1.9,0.1-3.9,0-5.7C447.7,220.8,447.5,220.3,447.4,219.5z M524.9,314.4
		c-1,0.4-1.7,0.6-2.6,0.9s-1.4,0.6-1.6,1.6c-0.4,2-0.7,4-1.5,6c-1.2,3.1-2.6,6.1-4,9.2c-0.2,0.5-0.4,1-0.6,1.7
		c1.4-0.4,2.5-0.7,3.5-1.1c1.5-0.5,2.9-1,4.2-1.6c0.5-0.2,0.9-0.7,1-1.1c0.2-0.9,0.2-1.9,0.2-2.7c0.2-2,0.4-4,1.5-5.7
		c0.7-1.1,1-2.1,0.5-3.5C525.3,316.9,525.1,315.6,524.9,314.4z M474.2,243.6c-2.5-0.1-3.5,1.6-4.6,3.2c-0.2,0.2-0.1,1,0.1,1.2
		c1,1.1,2.2,1.4,3.7,1.2c0.4,0,1-0.4,1.1-0.7C475.2,246.9,474.9,245.3,474.2,243.6z M527.3,321.3c-0.4,0.6-0.6,0.9-0.7,1.1
		c-1.2,2.2-1.4,4.9-1.6,7.4c0,0.1,0.6,0.5,0.9,0.5c1-0.2,1.9-0.6,2.7-0.9c0.7-0.2,1-0.6,0.6-1.4c-0.4-0.7-0.4-1.6-0.6-2.5
		C528.1,324.1,527.8,322.9,527.3,321.3z M495.1,204.5c0,0.9,0,1.5,0,2.2c0,2.9-0.1,5.7-0.1,8.6c0,1.7,0.7,3.2,1.9,5
		c0.1-0.6,0.2-1,0.2-1.4c-0.2-4.2-0.4-8.4-0.6-12.6C496.5,205.7,496.1,204.8,495.1,204.5z M456.2,348c0.1,0.1,0.2,0.1,0.2,0.2
		c2.7-0.9,4.6-3.1,6.7-5.1c-1.5-0.4-2.9-0.7-4.2-1.1C458.2,343.9,457.2,345.9,456.2,348z M439.9,200.4c3.5-1,6.9-2,10.4-2.9
		C446.9,195.3,441.4,196.8,439.9,200.4z M443.4,215.8c-0.2-0.9-0.6-1.7-0.9-2.7c-3,1.2-3.4,1.7-2.9,4
		C440.9,216.5,442.2,216.2,443.4,215.8z M494.1,204.4c0-0.6,0.1-1,0-1.2c-1.5-2.5-1.1-5-0.6-7.6c0.1-0.4,0-0.7,0-1.1
		C491.5,197.9,491.8,202.5,494.1,204.4z M521.8,313.9c0.7-0.4,1.2-0.6,1.7-0.9c0.4-0.2,1-0.6,0.9-0.9c0-1.2-0.2-2.6-0.4-3.9
		c-0.1,0-0.4,0-0.5,0C522.9,310,522.4,311.8,521.8,313.9z M461.7,232.5c-0.5,0.2-1,0.4-1.4,0.6c-1,0.5-2,1.1-3,1.7
		c-0.4,0.2-0.5,0.7-0.7,1c0.6,0.2,1.1,0.6,1.7,0.7c0.2,0,0.7-0.4,1-0.7C460,234.9,460.8,233.8,461.7,232.5z M460.7,231.9
		c0-0.1,0-0.2-0.1-0.4c-2,0.5-4.1,1-6.2,1.5C457.2,235.2,458.8,232.5,460.7,231.9z M497.4,203.8c0.1,0,0.2,0.1,0.4,0.1
		c1.9-1.5,2.6-4.2,1.4-5C498.5,200.7,497.9,202.2,497.4,203.8z M458.4,340c0.9,0.6,1.7,0.7,2.2-0.1c0.2-0.2,0-1.2-0.2-1.4
		C459.3,338.1,459,339.3,458.4,340z M454.7,373.2c-0.1-0.7-0.2-1.4-0.2-2.1c-0.4,0.1-1,0.1-1.1,0.2
		C452.9,372.2,453.3,372.9,454.7,373.2z M450.3,365.1c-0.7,1.6-0.5,2.1,0.7,2.1C451.2,365.6,451.2,365.6,450.3,365.1z"/>
	<path class="st0" d="M479.3,204.8c0.1,1.1,0.2,2.2,0.4,3.4c0.1,0,0.2,0,0.4,0.1c0.2-0.2,0.4-0.6,0.6-0.9c0.4-0.4,0.7-0.9,1.1-0.9
		c1.2,0.1,1.4-0.7,1.6-1.6c0.1-0.5,0.6-0.9,1-1.4c0.2-0.4,0.5-0.6,0.5-1c0-1.5-2.1-3.4-3.6-3.4c-1,0-2.1,1-2.6,2.2
		c-0.1,0.4-0.2,0.9-0.7,1.6c-0.1-0.2-0.2-0.5-0.2-0.6c0.1-2,2.2-4.1,4.2-3.9c0.6,0,1.4,0.5,2,1c0.5,0.5,0.9,1.2,1.2,1.9
		c0.9,1.5,0.6,2.1-0.6,3.2c-0.1,0.1-0.4,0.2-0.5,0.5c-0.4,1.2-0.7,2.2-2.4,2.2c-0.2,0-0.5,0.7-0.9,1s-0.7,0.6-1.2,0.6
		c-0.2,0-0.6-0.6-0.6-1c-0.1-1.1-0.2-2.1-0.2-3.2C478.9,204.9,479,204.8,479.3,204.8z"/>
	<path class="st0" d="M483.2,246.8c2.1,1.1,1.7,5.2-0.9,8.4c-0.1-0.5-0.4-0.9-0.4-1.1c0-0.4,0.2-0.9,0.5-1.1
		c1.5-1.5,1.1-3.1,0.7-4.9C483.2,247.5,483.2,247.1,483.2,246.8z"/>
	<path class="st0" d="M452.8,216.8c0.5-0.4,0.6-0.7,1-0.9c1.5-0.4,2.9-0.9,3.7-2.4c0.1-0.2,0.7-0.2,1-0.4c0,0.4,0.1,0.7,0,1
		C457.5,216.2,456.3,217,452.8,216.8z"/>
</g>
</svg>
