<?xml version="1.0" encoding="utf-8"?>
<!-- Generator: Adobe Illustrator 19.1.0, SVG Export Plug-In . SVG Version: 6.00 Build 0)  -->
<svg version="1.1" id="Layer_1" xmlns="http://www.w3.org/2000/svg" xmlns:xlink="http://www.w3.org/1999/xlink" x="0px" y="0px"
	 viewBox="-389 199.8 120 155.3" style="enable-background:new -389 199.8 120 155.3;" xml:space="preserve">
<style type="text/css">
	.st0{fill:#00BCD4;}
</style>
<g id="heartburn-recom">
	<path class="st0" d="M-388.6,353c0.6,0,1.3-0.1,1.9-0.1c0-1.1,0.1-2.2,0.1-3.3c0.1-1.9-0.2-3.9-0.3-5.9c-0.2-2.4-0.2-4.7-0.2-7.1
		c-0.1-4.9-0.3-9.7-0.2-14.6c0.1-3.4,0.4-6.9,1-10.2c0.6-3.8,3.2-6.3,6.2-8.2c1.9-1.2,4.2-1.9,6.2-2.8c0.2-0.2,0.8,0.1,1,0.3
		c1.4,2.6,2.9,5.2,4.3,7.8c1.1,2,2.3,4,3.4,6c0.5,0.9,1,1.8,1.6,2.7c0,0,0,0,0,0c-1.8,2.8-3.6,5.7-5,8.7c-0.3-0.6-0.5-1.2-0.9-1.6
		c-0.6-0.8-1.3-1.5-2.1-2.1c-0.2-0.2-0.9,0.2-1.4,0.2c0.3,0.2,0.6,0.5,0.9,0.7c0.5,0.6,1.1,1,1.4,1.7c1.4,2.5,1.4,5,0.4,7.7
		c-0.3,0.7-0.6,1.5-0.8,2.2c0,0,0,0,0,0c0,0,0,0,0,0c-0.1,0.5-0.3,1-0.4,1.4c-0.1,0.6-0.2,1.3-0.2,2c-0.2,1.4-0.4,2.8-0.5,4.2
		c-0.3,2-0.5,3.9-0.9,5.9c-0.2,0.6-0.7,1.3-1,1.9c-0.3,0.7-0.5,1.4-0.8,2.1c0.4,0,0.7,0,1.1,0c0.2-0.4,0.4-0.9,0.5-1.4
		c0.6-1.7,1.1-3.4,1.4-5.1c0.3-1.8,0.4-3.6,0.5-5.7c0-0.1,0-0.1,0-0.2c5.9,2.2,11,6.2,17.3,7c-0.1,2-0.2,4-0.3,5.9
		c0.2,0,0.4,0,0.6,0c0.2-2.8,0.5-5.6,0.8-8.4c0.2-2.2,0.3-4.4,0.9-6.5c0.5-2,1.6-3.9,2.5-6c1,1.3,1.6,2.5,2.6,3.3
		c1.4,1,2.9,2,4.5,2.6c4.2,1.8,8.6,2.3,13,1.8c1.8-0.2,3.4-1,5-1.8c2.3-1.2,3.8-3.4,5.5-5.3c2.4-2.5,4.7-5.2,6.9-7.9
		c3-3.9,5.1-8.3,7.5-12.6c2.2-4,3.5-8.4,6.5-11.9c0.6-0.8,1.4-1.5,2.3-2.2c1.4-1,2.6-2.2,3.4-3.7c0.8-1.4,1.6-3,2.6-4.3
		c0.4-0.6,1-1,1.6-1.4c0.1-0.2,0.4-0.1,0.5-0.2c1.4-2,3.8-1.9,5.8-2.5c1.2-0.3,2.6-0.3,3.8-0.2c1,0.2,2.2,0.6,3,1.4
		c2.5,2.5,4.3,5.4,4.2,9.1c0,2.5,0,5,0.1,7.4c0.1,4.4,0.2,8.8,0.3,13.2c0.2,6-1,11.8-2.2,17.6c-0.8,3.9-1.4,7.9-1.8,11.9
		c-0.2,2.4-0.5,4.8-1,7.2c0.3,0,0.7-0.1,1-0.1c0.3-2.3,0.6-4.6,1-6.9c0.5-3.6,0.9-7.3,1.6-10.9c1.2-5.8,2.5-11.4,2.3-17.3
		c-0.1-0.8,0.2-1.7,0.2-2.5c-0.1-1.2-0.4-2.3-0.4-3.4c-0.1-5.4-0.2-11-0.2-16.4c0-4-1.8-7-4.5-9.8c-1.1-1.2-2.6-1.8-4.2-1.8
		c-3.7-0.1-7.1,0.9-10.3,2.6c-0.8,0.4-1.7,0.7-2.6,1c-1,0.2-2,0.1-2.6-1c-0.4-0.6-1-1.2-1.4-1.8c-2.2-2.6-4.4-5.2-6.5-7.9
		c-1-1.3-1.4-3-2.3-4.3c-2.2-3.6-2.9-7.4-2.6-11.6c0.3-3.1,0.6-6.2,0.6-9.4c0-2.2-0.3-4.5-0.9-6.6c-0.9-3.1-2.3-6.2-3.2-9.3
		c-2.2-7.8-5.4-15-9.9-21.7c-0.4-0.6-0.7-1.3-1.2-1.8c-1.9-2.1-3.8-4.3-5.8-6.2c-2.4-2.2-5-4.4-8.3-5.3c-0.6-0.2-1.3-0.2-1.8-0.6
		c-2.1-1-4.3-1.2-6.6-1.4c-4.6-0.2-8.4,1.7-12.2,4c-0.8,0.5-1.7,1-2.6,1.4c-1.3,0.6-2.7,1.1-3.8,1.9c-2.2,1.6-4.4,3.2-6.3,5.1
		c-1.8,1.7-3.4,3.5-4.6,5.7c-2.4,4.6-4.4,9.4-5.3,14.7c-1,6.3-1.9,12.6-2.6,19c-0.6,6-0.2,12,0.6,17.9c0.8,5.8,2.1,11.5,3.2,17.3
		c0.4,1.9,0.9,3.8,1.4,5.7c0.4,1.6,1,3.1,1.4,4.6c0.2,0.6-0.2,1.3-0.6,1.7c-0.4,0.3-1.1,0.5-1.7,0.6c-3,1-5.2,2.9-7.4,5
		c-2.1,2-3.8,4.2-4.2,7.2c-0.3,2.2-0.7,4.5-0.7,6.7c-0.1,5.5-0.1,11-0.1,16.5c0,3.2,0.3,6.4,0.4,9.6
		C-388.5,347.4-388.5,350.2-388.6,353z M-349.5,331.7c-1.7,2.1-3,4.5-3.4,7.2c-0.4,2.4-0.7,4.9-1,7.4c-3.5-1-7-1.9-10.5-4
		c-2-1.2-4.2-2.1-6.4-3.1c0.2-1.3,0.4-2.6,0.7-3.9c0-0.1,0-0.3-0.1-0.3c0.8-2.9,1.7-5.8,2.6-8.6c1.3-3,3.1-5.7,4.8-8.4
		c0.1-0.2,0.1-0.3,0-0.4c0.6-0.9,1.1-1.8,1.6-2.7c2.1-3.4,4.2-6.8,6.2-10.2c1-1.5,1.8-3.2,2.6-4.8c1.4-2.8,3.6-4.7,6.3-6.3
		c2-1.1,3.7-2.9,5.5-4.4c1.9-1.6,5.8-1.1,7,1c0.3,0.5,0.2,1.4,0,1.9c-0.3,0.8-1,0.6-1.7,0.4c-0.5-0.2-1.2-0.2-1.6,0.1
		c-2.4,1.7-4.6,3.5-5.8,6.6c0.4-0.2,0.7-0.3,1-0.5c2.6-1.7,5.4-3.4,8.1-5.1c1-0.6,1.6-0.4,2.3,0.5c0.6,0.8,1.4,1.6,2.2,2.4
		c1,1.1,1,1.5,0.1,2.6c-0.2-0.1-0.5-0.2-0.7-0.4c-0.7-0.6-1.4-0.5-2.1,0c-2.2,1.6-4.3,3.2-6.5,4.8c-0.2,0.2-0.2,0.6-0.3,0.8
		c0.3-0.1,0.6-0.1,0.9-0.2c2.2-1.5,4.2-3.1,6.4-4.6c0.2-0.2,0.9-0.2,1.2,0c0.8,0.3,1.6,0.9,2.4,1.3c0.6,0.3,0.8,0.7,0.6,1.4
		c-0.4,1.6-1,1.8-2.6,2.2c-1.2,0.2-2.3,1.1-3.4,1.8c-0.9,0.6-1.6,1.4-2.3,2.3c-0.2,0.2-0.1,0.7-0.2,1.1c0.4-0.1,0.9-0.2,1-0.4
		c1.3-1.6,2.6-3,4.6-3.6c0.5-0.2,1-0.1,1.6-0.1c0.1,0.6,0.2,1,0.1,1.5c-0.5,1.8-1.3,3.3-2.7,4.5c-0.8,0.7-1.5,1.7-2,2.6
		c-1.5,3-3.7,5.5-6.2,7.7c-2.5,2.2-4.9,4.6-7.4,6.9C-347.5,329.6-348.6,330.6-349.5,331.7z M-359.5,311.3c-1.3-2.2-2.6-4-3.4-5.9
		c-0.8-1.7-1.3-3.5-1.8-5.3c-0.3-1,0-1.3,1-1.1c0.2,0.1,0.4,0.2,0.6,0.2c1.9,1,3.8,2,5.8,3c0.8,0.4,1.7,0.6,2.8,1
		C-356.2,305.9-357.7,308.4-359.5,311.3z M-335.2,293.7c-1.6,1-3.2,2.2-4.8,3.3c-0.1-0.1-0.2-0.2-0.2-0.2c1.5-1.2,2.6-3,4.7-3.5
		C-335.4,293.4-335.2,293.5-335.2,293.7z M-293.6,291.3c0.2-0.2,0.4-0.3,0.6-0.3c0.8-0.2,1.5-0.2,2.5-0.4c-1.8,2.4-2.7,5.2-5.3,7.1
		c-1.5,1-2.9,2.6-3.9,4.1c-1.3,2-2.2,4.2-3.3,6.4c-1.4,2.7-2.9,5.5-4.4,8.2c-2.2,3.9-4.6,7.8-7.6,11.1c-2.5,2.8-4.9,5.7-7.5,8.3
		c-2.6,2.6-5.8,3.8-9.6,3.4c-1-0.2-2-0.1-3,0c-1.8,0.2-3.3-0.6-4.8-1.2c-0.8-0.3-1.8-0.3-2.6-0.8c-1.8-1.1-3.8-1.9-5-3.8
		c-1-1.8-1.1-2,0.6-3c2.2,1.5,4.4,3.1,6.6,4.5c1,0.6,2.5,0.7,3.7,1.1c1.8,0.6,3.6,0.5,5.4,0.5c3.1,0,5.6-1.5,7.8-3.5
		c1.4-1.3,2.9-2.7,4.2-4.2c1.9-2.3,3.8-4.7,5.6-7.1c1.1-1.4,2.3-2.7,3.3-4.2c0.9-1.4,1.5-3,2.2-4.4c0.9-1.9,1.8-3.8,2.7-5.8
		c1-1.9,1.8-3.8,3-5.6c1.4-2.2,3.2-4.2,4.9-6.3C-296.1,293.9-294.8,292.6-293.6,291.3z M-323.8,270.7c-0.8,6.3,0.6,12.2,3.1,17.9
		c1.4,3.3,4.2,5.2,7.8,6c4.2,1,7.6-0.2,10.8-2.6c0.6-0.4,1-0.8,1.4-1.2c1.8-1.5,3.7-1.5,5.8,0.1c-0.6,0.5-1,1-1.6,1.4
		c-4.3,3.2-9.1,5.4-14.3,7c-1.7,0.5-3.6,0.3-5.4,0.2c-2.4-0.1-4.7,0.2-6.8,1.5c-0.6,0.4-0.8,0.7-0.2,1.4c2.5-2,5.3-2.2,8.3-1.7
		c2.6,0.4,4.9-0.5,7.1-1.4c2.9-1.1,5.7-2.5,8.5-3.7c-0.1,0.2-0.2,0.4-0.4,0.6c-2.3,2.4-3.9,5.2-5.3,8.2c-1.1,2.6-2.6,5.2-3.8,7.8
		c-1.1,2.8-2.6,5.3-4.6,7.5c-1.1,1.1-1.8,2.6-2.8,3.8c-2.2,2.6-4.6,5-6.8,7.6c-0.7,0.8-1.2,1.8-2.1,2.3c-2.2,1.5-4.6,2.3-7.3,1.8
		c-2.3-0.4-4.7-0.9-7-1.5c-2.3-0.6-4.1-2.2-5.8-3.8c-0.6-0.6-0.4-1,0.1-1.5c3.4-3.1,6.7-6.2,10.1-9.4c0.3-0.2,0.6-0.6,0.8-1
		c1.4-2.7,3.1-5.1,5.2-7.4c1.4-1.5,2.6-3.4,2-5.8c-0.1-0.3,0.2-0.8,0.5-1.1c1.4-1.8,1.4-2.7-0.3-4.2c-0.2-0.2-0.3-0.6-0.2-0.7
		c0.6-1.4-0.1-2.3-1-3.3c-0.9-1-1.5-2.1-2.5-2.7c-1.1-0.8-1.4-1.7-1.6-2.8c-0.4-1.7-3.1-3-5-3c-1.7,0.1-3,0.6-4.2,1.8
		c-1.8,1.5-3.5,3.1-5.5,4.2c-3,1.8-4.9,4.3-6.4,7.3c-0.7,1.4-0.8,1.5-2.3,0.9c-1.5-0.6-2.9-1.6-4.3-2.4c-0.4-0.2-0.9-0.4-1.3-0.7
		c-0.2-0.2-0.4-0.4-0.4-0.6c0-0.2,0.3-0.3,0.6-0.4c2.5-0.9,5-1.7,7.4-2.6c0.6-0.2,1.2-0.6,1.7-1c1.8-1.3,3.4-2.7,5.2-3.9
		c1.4-1,1.7-2.3,1.6-3.8c-0.1-0.9-0.2-1.8-0.2-2.6c10.1-0.2,17-5.2,21.4-14.3C-323.8,269.8-323.7,270.2-323.8,270.7z M-342.1,245.6
		c0.1,0.2,0.2,0.7,0.5,1.3c-1.9,0.6-3.7,0.9-5.5-0.3C-345.5,246.2-343.9,245.9-342.1,245.6z M-347.8,245.4c0-0.1-0.1-0.2-0.1-0.4
		c0.8-0.4,1.6-0.8,2.5-1.2c0.2,0.6,0.3,1,0.5,1.6H-347.8z M-370.1,233.8c0.6-3.5,2.4-6.2,5.5-7.8c0.2-0.1,0.4-0.3,0.5-0.5
		c0.1,0,0.2,0,0.4-0.1c0.4-0.2,0.7-0.5,1.1-0.7c0.3,0.2,0.6,0.3,0.9,0.5c0.3,0.2,0.6,0.2,0.9,0.3c0.6,0.1,1,0.1,1.6,0.2
		c0.3,0.1,0.7,0,1,0.1c3.1,1.3,6,2.8,8,5.7c0.6,0.9,1.3,1.7,2.1,2.3c1.2,1,2.1,2,2.6,3.4c0.3,0.9,0.3,1.3-0.7,1.6
		c-1.4,0.5-2.6,1.1-3.8,1.8c-0.2,0.2-0.2,0.7-0.4,1.1c0.4,0.2,0.9,0.4,1.3,0.3c1.4-0.4,2.7-1,4.2-1.4c1.1-0.3,0.8,1,1.4,1.5
		c-1.4,0.6-2.6,1.4-3.8,1.7c-0.8,0.2-0.9,0.8-1.1,1.3c-0.1,0.2,0.5,0.7,0.7,1.1c1.4,2.1,3.4,2,5.5,1.6c0.9-0.1,1.4,0.1,1.8,1
		c0.6,1.2,1.3,2.3,2.2,3.4c3.7,4.4,8.2,7.8,13,11c0.8,0.6,1.2,1.3,1,2.2c-0.2,1.4-0.4,2.7-0.9,4c-2,5-5.7,8.4-10.2,10.9
		c-2.9,1.6-6,2.6-9.4,1.9c-1.3-0.2-2.5-1-3.4-1.9c-3-2.6-5.8-5.5-8.8-8.2c-5.6-5-9.4-11-10.6-18.6c-0.1-0.6-0.3-1.3-0.6-2.2
		c3.7,2,6.9,1.4,9.9-0.9c0.1,0.9-0.8,2.3-2.2,3c-1.2,0.5-2.6,0.4-3.8,0.6c1.2,0.5,2.5,0.8,3.8,0.1c1.4-0.8,2.6-1.9,3-3.7
		c0.3-1.4-0.7-3-2.2-3c-2.2-0.2-4.3,0.1-6.2,1.2c-0.9,0.5-1.5,1.5-2.3,2.3c-0.2-1-0.5-2.2-0.7-3.5c0.3-0.1,0.6-0.2,0.9-0.2
		c2.9,0.1,5-2.1,7.8-2.6c0.2,0,0.4-0.4,0.4-0.6c0-0.2-0.2-0.5-0.5-0.6c-1.1-0.6-2.2-0.6-3.4,0.1c-1.2,0.7-1.9,2-3.4,2.2
		c-0.6,0-1.3,0.4-1.9,0.2c-0.4-0.1-0.8-0.8-0.8-1.3C-370,240.9-370.8,237.4-370.1,233.8z M-366.1,251c-0.2-1.4,1.1-1.1,1.5-1.9
		c0.2,0.7,0.5,1.2,0.8,1.9H-366.1z M-360.4,250.7v-2.2c0.7,0.2,1.4,0.3,2,0.5v0.3C-359.1,249.7-359.7,250.2-360.4,250.7z
		 M-371.1,299.5c0.5-0.1,0.9-0.1,1.4-0.2c2.9-0.4,3-0.5,4.1,2.3c1.4,3.6,2.9,7,5.1,10.1c0.2,0.2,0.2,0.6,0.1,0.8
		c-0.8,1.4-1.6,2.9-2.6,4.7c-3.2-5.8-6.3-11.4-9.5-17.3C-372,299.8-371.6,299.5-371.1,299.5z"/>
	<path class="st0" d="M-297.1,330.4c0.4,4.5,0.6,9,0.8,13.4c0.1,3.8,0.2,7.5,0.2,11.3c0.3,0,0.6,0,0.8,0c0-0.5,0-0.9,0-1.4
		c-0.2-5.6-0.2-11.3-0.6-16.9c-0.2-2.7,0-5.4,0.2-8c0.2-3.8,0.7-7.5,3-10.8c0.2-0.2,0.2-0.6,0.3-0.9c-0.1-0.1-0.2-0.2-0.2-0.2
		c-0.3,0.2-0.7,0.3-1,0.6c-1.8,2.2-2.4,4.9-2.7,7.7c-0.1,0.5-0.2,1-0.2,1.5c-0.1,0-0.2-0.1-0.4-0.1c-1.5-4.6-0.4-8.7,2.7-12.5
		c-0.6-0.1-1-0.1-1.3,0.2c-3.1,3.4-3.7,7.4-2.6,11.8C-297.8,327.6-297.2,329-297.1,330.4z"/>
	<path class="st0" d="M-335.1,264.2c-0.2,0.3-0.2,0.6-0.3,0.8c-2.8,3.6-6.2,6.5-10.7,7.6c-1.2,0.3-2.6,0.2-3.8,0.1
		c-1,0-1.7-0.6-2-1.4c-0.4-0.9-0.8-1.7-1-2.6c-0.4-1.3,1.4-2.9,3-2.6c0.7,0.2,1-0.1,1.5-0.5c0.6-0.5,1.3-1,1.9-1
		c3.4-0.2,6.8-0.3,10.2-0.5C-336,264-335.6,264.1-335.1,264.2z M-336.4,265.5c-0.1-0.1-0.1-0.2-0.2-0.3c-3.2,1.2-6.3,2.4-9.5,3.5
		c-0.6,0.2-1.4,0.3-2.1,0.5c-1.2,0.2-2.4,0.4-3.5,0.6c0.2,2,1.1,2.6,3.3,2.5C-343.3,271.9-339.6,269.1-336.4,265.5z M-338.4,264.9
		c-2.4,0-4.8,0-7.1,0c-1.1,0-2,0.3-2.7,1.2c-0.3,0.3-1,0.7-1.4,0.6c-1.1-0.5-1.7,0.3-2.4,0.8c-0.2,0.2-0.3,0.6-0.2,0.9
		c0.1,0.2,0.6,0.5,0.8,0.4c2-0.3,4-0.6,5.9-1.1c1.6-0.4,3.1-1.1,4.6-1.7C-340.1,265.6-339.3,265.3-338.4,264.9z"/>
	<path class="st0" d="M-343.7,257.4c0-0.3-0.1-0.5-0.2-0.7c-0.1-0.2-0.2-0.3-0.4-0.4c-0.4-0.5-0.9-0.6-1.4-0.6c0,0-0.1,0-0.1,0
		c0,0-0.1,0-0.1,0c0.1,0.1,0.3,0.2,0.4,0.3c0.1,0,0.1,0,0.2,0.1c0.5,0.2,0.9,0.6,1,1.2c0.3,0.9-0.1,1.8-0.8,2.2c0,0-0.1,0.1-0.1,0.1
		c0,0,0,0,0,0c-0.7-0.4-1.5-0.5-2.3-0.1c0,0,0,0,0,0c-0.5,0.1-0.9,0.4-1.3,0.8c-0.2,0.2-0.7,0.7-0.9,1.1c0,0-0.1,0.1-0.1,0.1
		c-0.2,0.1-0.2,0.2-0.2,0.4c0,0,0,0,0,0c-0.3,0.2-0.5,0.4-0.9,0.5c-0.3,0.1-0.6,0.1-0.9,0c-0.2,0-0.4,0-0.7-0.1
		c-0.7-0.3-1.1-1-1.2-1.8c-0.4-0.8-0.7-1.6-0.8-2.4c-0.4-3-0.5-6-0.8-9c-0.2-1.8-0.9-3.5-2.9-4.2c-0.3-0.2-0.6-0.1-1-0.1
		c0.2,0.3,0.4,0.7,0.6,0.8c1.4,0.6,2.2,1.7,2.3,3.1c0.4,3,0.6,6,1,9c0.2,1.4,0.6,2.8,1.3,4c0.4,0.8,1.3,1.1,2.4,1.1
		c0.3,0,0.6,0,0.8-0.1c0,0,0,0,0.1,0c0.8-0.3,1.5-0.7,2.3-1c0.4-0.5,1-1,1.7-1.1c0.4-0.1,0.7,0,1,0.1c0.2-0.1,0.3-0.1,0.5-0.2
		C-343.9,260-343.6,258.7-343.7,257.4z"/>
</g>
</svg>
