<?xml version="1.0" encoding="utf-8"?>
<!-- Generator: Adobe Illustrator 19.1.0, SVG Export Plug-In . SVG Version: 6.00 Build 0)  -->
<svg version="1.1" id="Layer_1" xmlns="http://www.w3.org/2000/svg" xmlns:xlink="http://www.w3.org/1999/xlink" x="0px" y="0px"
	 viewBox="-529 -26.4 400 614.7" style="enable-background:new -529 -26.4 400 614.7;" xml:space="preserve">
<style type="text/css">
	.st0{fill:#00BCD4;}
</style>
<g id="heartburn-man">
	<path class="st0" d="M-198.9,587.4c-3.2-12-5.9-24.6-9.6-36.8c-4.5-14.4-6.7-28.8-2.1-43.5c3.2-10.4,3.2-21.3,4.8-32.6
		c1.1-6.1,2.4-12.5,3.5-18.7c-0.3-0.3-0.8-0.3-1.1-0.8c-1.3,1.1-2.7,1.6-4.3,2.7c-13.9,11.2-27.8,22.1-43.5,29.9
		c-6.9,3.5-13.1,8.3-19.7,12c-10.7,5.9-21.9,11.2-32.6,16.5c-6.1,3.2-12,6.9-18.4,9.6c-10.1,4.5-17.3,12-24.3,20.5
		c-3.5,4.3-8,7.7-12,11.5c-0.3-3.5,1.3-6.1,3.7-8.3c3.5-3.5,8-6.7,10.7-10.4c5.9-7.7,13.9-12,22.1-16.5
		c11.5-5.9,23.2-11.5,34.7-17.3c6.7-3.5,12.8-7.7,18.9-11.5c5.1-3.2,10.4-5.6,15.2-8.5c10.1-6.7,20.5-12.8,30.4-19.7
		c6.9-4.5,13.9-9.3,20-14.9c2.4-2.1,3.7-5.9,4.5-9.3c2.7-12.8,5.1-25.6,7.2-38.4c1.6-9.3,2.4-18.7,4.5-28c1.3-6.1,3.7-12.5,6.9-17.9
		c5.9-11.2,9.1-22.9,11.2-35.2c1.1-6.1,3.5-12,3.5-17.9c0.3-13.9-0.3-28-0.3-41.9c0-2.4,0.3-4.5,1.1-6.9c6.9,40,0.8,78.2-17.9,114.5
		c0.3,0.3,0.8,1.1,1.1,1.3c3.5-1.1,7.7-1.3,10.7-3.2c13.9-7.2,24.8-18.4,36-29.9c1.6-1.6,1.6-5.1,1.6-7.7
		c-0.8-12.8-2.7-25.6-6.1-37.6c-3.2-10.4-4.5-21.1-7.2-31.5c-3.2-12.8-6.7-25.6-10.7-37.6c-3.2-8.5-7.7-16.5-11.7-24.8
		c-1.1-2.1-2.7-3.7-4.5-5.1c-15.5-9.6-31.2-18.7-49.6-22.9c-4.5-1.1-6.7,0-8.5,3.2c-2.7,3.5-5.9,6.7-8.5,10.4
		c-1.3,1.6-2.1,4.3-2.1,6.1c-0.3,6.9-1.6,13.1-5.9,19.5c-6.1,9.1-10.7,18.9-16.3,28.3c-5.1,9.1-10.1,17.9-15.2,27
		c-1.1,2.1-2.1,4.3-3.5,6.7c0.3,0.3,0.8,0.8,1.1,1.1c4.8-5.1,9.6-10.1,14.1-15.5c5.1-6.1,9.3-13.1,14.9-18.9
		c3.2-3.5,7.2-5.6,11.2-8.3c2.4-1.6,9.1,0.8,10.7,4.3c1.1,2.1,0.3,6.1-1.1,8c-4.8,6.7-10.4,12.8-15.2,19.5c-2.4,2.7-4.5,5.9-6.7,9.1
		c0.3,0.3,0.8,0.8,1.1,1.1c2.7-2.1,5.1-4.3,8-6.7c5.6-4.8,10.7-9.6,16.3-14.4c3.2-2.7,6.7-4.8,11.2-4.3c2.1,0.3,5.1,1.1,5.9,2.7
		c0.8,1.6,0,4.8-1.1,6.7c-4.3,4.8-9.1,9.3-13.6,13.9c-1.1,1.1-2.1,2.4-2.4,3.7c3.5-2.7,6.9-5.6,10.7-7.7c4.5-2.7,8-2.4,10.4,0.8
		c2.7,3.7,2.1,8-1.6,11.5c-9.6,9.3-18.9,18.7-28.8,28c-1.1,1.1-2.1,2.4-2.7,3.7c0.3,0.3,0.3,0.8,0.8,1.1c2.4-1.1,4.8-2.4,7.2-3.5
		c6.1-3.5,12.5-7.2,20-7.2c3.5,0,5.9,1.1,6.9,4.3c1.1,3.5-0.3,5.9-3.2,8c-22.1,16.3-47,28-68.3,45.6c-1.6,1.3-3.7,2.1-5.9,2.7
		c-10.4,4.3-20.5,8.3-28.3,16.3c-11.7,11.5-23.5,22.4-35.8,33.4c-10.4,9.1-21.3,17.6-32.3,25.9c-12.5,9.3-25.4,18.7-38.4,27.2
		c-8,5.1-16.5,8.5-24.8,13.1c-3.5,2.1-6.9,4.5-10.4,6.9c-8.5,5.9-17.6,11.2-27.8,13.6c-3.7,0.8-5.1,3.2-5.1,6.9
		c-0.8,13.6-1.3,27-2.4,40.6c-1.1,13.1-2.4,26.4-3.5,39.5c0,1.3-0.3,2.7-0.3,4.3c-1.3,0-2.7,0-4.5,0c1.3-14.9,3.2-29.9,4.3-44.6
		c1.1-13.1,1.6-26.4,2.4-39.2c0-0.8,0-1.6,0-3.2c-1.6,0-3.5,0.3-4.8,0.3c-7.7,0.8-11.7-1.3-14.4-8.5c-5.6-12.8-9.6-25.9-11.5-39.8
		c-2.7-18.4-5.1-36.3-7.2-54.4c-0.8-6.7-0.3-13.6-1.3-20c-0.8-4.8-1.1-9.3-0.3-14.1c1.1-9.3,1.3-18.7,2.4-28
		c0.8-12.5,2.7-24.3,3.7-36.3c2.7-23.2,9.1-45.4,18.9-66.2c6.7-13.6,15.5-26.7,25.9-37.4c11.5-11.7,25.4-21.1,42.7-24
		c7.2-1.3,14.1-5.6,21.1-8.5c7.7-3.2,15.2-6.7,22.4-10.1c2.7-1.3,5.6-3.5,6.9-5.9c2.7-4.3,5.1-8.5,6.9-13.6
		c2.7-7.2,8-11.5,14.9-13.6c8.5-2.4,17.3-4.3,25.9-6.7c1.1-0.3,2.4-1.3,3.2-2.7c2.4-5.9,2.1-11.2-2.7-16c-3.5-3.5-4.8-8.3-4.8-13.6
		c0.3-8,0.8-16,1.6-23.5c0.3-3.2,2.7-6.1,3.7-9.3c1.3-4.8,2.7-10.1,3.5-14.9c2.1-16,8.3-29.4,19.7-40.8c0.3-0.3,0.3-0.3,0.8-0.8
		c8.3-11.5,20.8-16,33.9-17.6c10.4-1.3,20.8-1.6,30.7-1.3c6.1,0.3,12.5,2.1,18.4,3.7c14.1,4.5,24,16,31.5,27.8
		c10.1,16,13.1,35,8.3,52.6c-5.1,18.9-6.1,38.7-13.1,57.1c-5.6,14.4-12.5,28.3-18.7,43c-0.8,1.3-1.3,2.4-1.6,3.7
		c-1.1,2.7-0.3,4.3,2.7,5.1c13.6,3.5,26.4,8.3,37.6,16.3c0.8,0.3,1.1,1.1,1.6,1.1c12,4.5,17.9,14.9,23.5,25.4
		c1.6,3.2,2.1,6.9,3.2,10.4c6.9,27,14.4,53.6,20.8,80.6c2.4,10.4,3.2,21.3,3.7,32.3c0.3,2.7-1.3,6.1-3.5,8.3
		c-4.3,4.8-9.1,9.3-13.9,13.6c-2.4,2.1-3.7,4.5-3.2,7.7c2.1,9.3,3.7,18.7,6.1,27.8c2.1,8,4.5,15.5,6.7,23.2c0.8,2.1,1.3,4.5,1.3,6.9
		c1.1,13.9,2.4,27.2,2.4,41.1c0.3,34.7,0.3,69.7,0.3,104.1c0,7.2-0.3,14.4-0.8,22.1c-1.3,0-2.7,0-4.5,0c0.3-6.9,0.8-13.9,1.1-20.8
		c0-5.1,0-10.4,0-15.5c0.3-18.4,0.8-36.8,0.3-55c-0.3-21.1-1.3-42.2-2.7-63.2c-0.3-6.7-1.1-13.6-2.4-20c-2.7-11.2-6.1-21.9-9.3-32.8
		c-1.6-5.9-2.7-11.7-4.3-17.6c-0.8,0.3-1.3,0.8-1.6,1.1c-7.2,5.1-14.9,10.1-24.3,11.2c-1.3,0.3-3.5,2.4-3.7,4.3
		c-1.1,5.6-1.6,11.2-2.7,16.5c-0.8,5.6-1.3,10.7-2.4,16.3c-1.6,8.5-3.5,17.3-5.1,25.9c-0.8,4.3-2.4,9.3-1.1,12.8
		c7.7,17.1,8,35,11.7,52.6c2.7,12.5,5.1,24.8,8,37.6c1.1,5.1,2.1,10.4,3.2,15.5c0.8,4.3,1.6,8.5,2.4,12.8c1.3,6.1,2.4,12.5,3.7,18.9
		c-1.3,0-2.7,0-4.5,0c-1.3-6.7-2.4-13.6-4.3-20c-0.8-3.5-2.4-6.7-2.7-10.1c-2.1-10.4-3.7-20.8-5.9-31.2
		c-3.5-18.7-6.9-37.1-10.4-55.8c-1.1-4.8-2.7-9.3-4.3-13.9c-2.4,7.2-4.3,14.4-5.6,21.3c-1.6,9.6-1.6,19.7-4.5,29.1
		c-4.5,15.2-2.1,29.4,2.4,44c3.7,11.7,5.9,24.3,9.1,36.3C-196.8,587.4-197.9,587.4-198.9,587.4z M-393.8,158.1
		c-9.6,4.5-19.7,9.1-29.9,13.6c-4.3,1.6-8.3,3.2-12.5,4.5c-3.2,1.1-6.1,1.1-9.1,2.4c-14.1,6.1-27.2,14.4-36.8,27.8
		c-6.7,9.3-13.6,18.7-18.7,29.1c-4.8,9.6-7.2,20.5-10.7,30.7c-2.1,5.9-4.3,12-5.1,18.4c-2.1,12.8-2.4,25.9-4.5,38.7
		c-1.6,10.4-3.2,20.5-2.7,30.7c0.3,6.7,0,6.9,6.7,8.3c8,1.6,16,2.7,23.5,5.1c18.4,6.7,37.4,9.1,56.8,9.3c2.4,0,5.6,0.8,7.7-0.8
		c1.6-1.1,2.1-4.3,2.4-6.7c1.1-5.6,2.1-10.7,2.4-16.3c0.3-14.9-2.1-30.2,0.8-45.1c0.3-2.4,0.3-5.1-0.3-7.7
		c-1.3-3.7-3.5-7.7-5.1-11.5c-3.2-6.7-6.1-13.1-9.3-20c-0.8-1.3,0-3.2,0-4.5c0.3,0,0.8,0,1.1,0.3c4.8,10.4,10.1,20.5,14.9,30.7
		c0.8,0,1.1-0.3,1.6-0.3c5.1-30.4,1.3-59.5-11.2-88.3c2.4,2.4,4.8,4.8,5.9,8c5.1,14.1,9.6,28.3,10.4,43.5
		c0.8,15.5,1.1,30.7-3.2,46.2c-3.2,11.7-2.4,24-2.4,36c0,9.3,0.3,18.7-0.3,28c-0.3,4.5-1.6,9.1-3.2,14.4c1.6-0.3,3.2-0.3,4.3-1.1
		c4.8-2.1,9.3-4.3,14.1-6.7c20-10.4,39.2-21.9,56.3-36.8c2.1-1.6,4.3-2.7,6.7-4.3c6.7-3.5,12.5-8.5,13.6-16.3
		c2.1-15.5,3.7-31.2,8.5-46.4c3.2-9.6,5.1-20,7.7-30.2c1.1-4.3,2.7-7.7,7.2-9.1c2.4-0.8,2.4-2.4,1.1-3.7c-1.3-1.6-1.6-4.8-4.8-3.5
		c-7.2,3.7-14.4,7.7-21.3,11.7c-3.2,1.6-5.1,1.6-7.7-0.8c-8.3-9.1-16.5-17.6-24.8-26.7c-2.7-2.7-4.5-6.7-7.2-9.1
		c-7.7-6.7-12-15.2-16-24.3C-391.1,170.6-392.2,164.2-393.8,158.1z M-523.7,384.9c0,2.1,0,3.5,0,4.8c1.3,14.1,2.1,28.3,4.3,42.7
		c2.1,12.8,2.4,25.9,6.7,38.4c2.4,6.9,4.3,13.9,6.7,20.5c2.1,5.1,5.9,7.2,10.7,5.9c7.2-2.1,14.4-3.7,21.3-6.9
		c8.3-4.3,15.5-9.3,23.5-14.1c2.4-1.3,5.1-2.7,7.7-3.7c3.5-1.6,6.9-3.5,10.4-5.1c1.3-0.8,2.7-1.6,4.5-2.7
		c8.3-4.8,17.1-9.3,24.6-14.9c11.5-8,22.9-16.5,33.6-25.6c10.1-8,19.7-16.5,29.4-25.4c10.4-9.3,20-20,31.2-28.3
		c7.7-5.9,17.3-9.1,25.9-13.6c2.1-1.1,4.3-1.6,5.6-3.2c13.6-10.4,27-20,41.9-28.3c8.3-4.8,16-11.5,24-17.1c1.3-1.1,2.1-2.4,3.2-3.7
		c-1.6-0.8-3.7-2.4-5.6-1.6c-5.6,1.6-11.2,3.7-16.3,6.1c-5.6,2.7-11.2,6.1-16.5,9.1c-1.1,0.3-2.4,0-3.5,0c0.3-1.1,0.3-2.4,1.1-3.5
		c6.7-7.2,13.6-14.1,20-21.3c6.7-6.7,13.1-12.8,19.5-19.5c1.1-1.3,1.1-4.5,0.3-6.1c-0.3-0.8-3.7-1.1-5.6-0.3
		c-1.9,0.8-3.5,2.1-4.8,3.5c-6.9,6.1-14.1,12.5-20.8,18.9c-3.5,3.5-5.9,7.7-8.5,11.5c-1.1,1.3-1.1,3.5-2.1,5.1
		c-0.3,0.8-1.6,1.1-2.7,1.6c-0.3-1.1-0.8-2.1-0.3-2.7c2.7-6.7,4.8-13.6,11.2-17.9c2.4-1.6,3.7-4.5,5.9-6.9
		c5.6-6.9,11.5-14.1,17.1-21.1c2.1-2.4,4.5-4.3,6.7-6.1c0.8-0.8,1.1-2.4,0.8-3.2c-0.3-0.8-2.1-1.3-2.7-1.3c-3.2,0.8-6.1,1.6-8.5,3.5
		c-2.7,1.6-5.1,4.5-8,6.9c-12.8,10.7-25.4,22.1-30.4,38.7c-0.3,1.3-1.3,3.2-2.4,4.3c-0.8,0.8-2.1,0.8-3.2,1.3c0-1.1-0.3-2.4,0.3-3.5
		c1.3-2.7,3.2-5.6,4.5-8.3c3.2-7.2,5.6-14.9,8.5-22.1c1.1-2.4,2.4-4.8,3.7-6.7c5.9-7.2,12-13.9,17.6-21.1c1.1-1.3,2.1-4.3,1.3-5.6
		c-1.1-2.4-3.5-2.7-6.1-2.1c-6.9,1.6-11.5,6.7-15.2,12c-7.7,10.1-14.4,20.5-24,28.8c-4.5,4.3-9.1,8.3-15.2,9.6
		c-1.1,0.3-2.1,1.6-3.2,3.2c-1.6,2.1-3.2,4.5-4.5,6.7c-0.8-0.3-1.1-0.8-1.6-1.1c0.3-1.3,1.1-2.7,1.3-3.7c0.8-1.6,1.6-4.3,1.3-5.6
		c-2.4-9.1-0.3-17.6,2.7-26.4c2.1-5.6,2.4-11.5,0-17.1c-1.1-2.1-2.7-5.1-3.7-5.1c-3.2,0.8-5.9,2.1-8.5,4.3c-1.1,0.8-1.3,2.7-1.6,4.5
		c-2.4,11.2-4.3,22.4-7.7,33.4c-3.7,11.7-6.1,23.5-7.2,35.8c-0.3,2.4,0,4.8,0,7.7c3.2-0.3,5.6-0.8,7.7-0.3c0.8,0,1.6,1.1,2.4,1.6
		c-0.8,0.8-1.1,2.1-2.1,2.4c-1.3,0.8-2.7,0.3-4.3,1.1c-2.4,1.1-4.8,2.1-6.9,3.7c-3.5,2.4-6.1,5.6-9.6,8
		c-7.2,5.6-15.2,10.4-22.1,16.3c-14.4,11.2-30.4,19.7-46.7,28c-8.3,4.3-17.1,7.7-25.6,11.5c-2.1,1.1-3.7,1.6-5.9,2.7
		c-4.8,2.4-10.4,4.5-14.1,8c-8.3,8-18.7,13.6-24,24.6c-0.3,0.8-2.4,1.1-3.7,1.3c0-1.1-0.8-2.4-0.3-3.2c3.5-4.8,6.7-10.1,10.7-14.4
		c4.8-5.1,10.7-9.6,16.3-14.4c0-0.3,0-1.1-0.3-1.3C-477.3,391.6-500.2,388.4-523.7,384.9z M-256.1,15c-2.7-0.3-4.8-1.1-6.9-1.1
		c-15.2-0.3-28.3,11.2-30.7,26.7c-0.8,5.1-2.1,10.4-5.6,14.1c-6.9,8-9.6,17.3-12.5,27c-1.1,3.2-1.6,6.7-2.4,9.6c-0.8,0-1.3,0-2.1,0
		c-1.1-2.7-2.4-5.6-2.7-8.3c-1.1-10.1-4.3-19.5-9.6-28c-0.8-1.1-2.4-2.4-3.5-2.4s-2.4,2.1-2.7,3.5c-1.1,8-2.4,16.3-2.1,24.3
		c0.3,4.8,3.5,9.6,5.9,14.1c1.1,2.1,3.5,1.3,4.5-0.3c0.8-1.3,1.1-4.5,0.3-4.8c-6.9-3.7-5.9-10.1-4.8-16c0.3-1.1,2.4-3.2,3.2-2.7
		c2.1,0.3,2.1,2.1,1.1,4.3c-2.1,4.5-0.8,7.2,3.5,9.3c0.3,0.3,1.1,0.8,1.3,1.1c3.2,4.3,0,15.2-3.2,16.5c-4.5,1.6-4.3,5.6-4.8,9.1
		c-0.3,2.1,0,4.3-0.3,5.9c-1.1,6.1-3.2,12.5-3.5,18.9c-0.8,8.3-0.3,16.5-0.3,24.8c0,5.6,0,11.5,0,17.1c0,1.3,0.3,3.2,1.1,4.5
		c4.5,7.7,12.5,11.7,18.9,17.3c5.6,4.8,11.5,8,18.9,8.5c5.9,0.3,10.7,3.7,12.5,10.4c1.6,6.7,4.3,13.1,6.1,19.7
		c0.8,2.1,1.6,3.7,3.2,6.9c2.4-3.5,4.5-5.6,5.9-8c5.6-11.2,10.7-22.4,16-33.9c1.1-2.1,1.6-3.7,2.1-5.9c0.8-3.7-0.8-4.5-4.5-4.3
		c-4.8,0.3-10.4,1.3-14.1-0.3c-7.7-3.7-14.9-8.5-21.1-14.4c-9.1-8.3-17.3-17.3-24.8-26.7c-6.9-8.3-10.1-18.7-9.6-29.9
		c0-1.3,0.8-2.7,1.3-4.3c0.3,0,1.1,0,1.3,0.3c0.3,1.3,0.8,2.7,0.8,4.5c0.3,8.5,2.4,17.1,7.7,24c4.3,5.6,8.5,10.7,13.6,15.5
		c8.3,8,16.5,16,25.6,22.9c6.1,4.8,13.9,7.2,21.3,2.4c12.8-8.3,21.1-20,28.8-32.8c3.7-6.7,7.7-13.6,10.7-20.8
		c6.1-13.6,12.5-27.2,12-42.7c0-2.4-0.8-3.7-2.7-4.8c-4.3-2.1-8-4.5-11.7-6.9c-1.1-0.8-1.3-2.7-2.1-3.7c1.3,0,3.5-0.3,4.5,0
		c4.5,2.1,9.1,4.8,14.1,7.7c1.3-8.5,3.2-17.1,3.7-24.8c0.3-6.7,0-13.1-0.8-19.7c-1.1-6.9-2.7-12-12.5-12.8
		c-5.6-0.3-10.7-0.8-16.3-1.1c-0.8,0-1.3,0-2.1-0.3c-10.1-4.5-19.7-6.7-30.2-0.8c-1.3,0.8-2.7,1.3-4.5,1.6c-1.1,0-2.1-1.1-3.2-1.3
		c0.3-1.1,0.8-2.1,1.3-2.7C-260.9,18.5-258.7,17.2-256.1,15z M-369.7,129.2c-0.8,0-1.3,0-1.6,0.3c-1.3,2.7-2.7,5.9-4.5,8.5
		c-3.2,6.7-5.9,13.6-12,17.9c-1.1,0.8-1.6,3.2-1.3,4.5c1.6,6.7,3.5,13.6,6.1,20c4.3,9.6,12,16.5,18.7,24.6
		c8,9.6,17.1,18.4,25.6,27.8c0.8,0.8,2.7,1.6,3.5,1.1c7.2-3.5,14.9-7.2,21.9-11.5c4.5-2.7,8.5-6.9,13.1-10.7
		c-3.7-1.6-6.7-2.7-8.5-4.5c-10.4-8.5-22.1-16-30.4-27c-9.6-12.5-18.9-25.4-24.6-40C-365.7,136.7-367.9,132.7-369.7,129.2z
		 M-428.2,380.1c-2.1-0.3-2.7-0.3-3.2-0.3c-14.4,0.3-28.8-0.8-43-3.7c-4.8-1.1-9.6-2.4-14.4-3.5c-10.7-2.7-21.1-5.1-31.8-8
		c-2.4-0.8-3.2,0.3-3.2,2.7c0,2.7-0.3,5.6-0.8,8c-0.3,3.5,0.8,5.6,4.3,6.1c5.1,0.8,10.4,1.3,16,2.1c8.3,1.3,17.1,3.5,25.4,4.8
		s16.5,2.1,24.6,3.5c8,1.3,15.2-0.8,21.3-5.6C-431.4,384.9-430.3,382.8-428.2,380.1z M-288.9,277.6c3.7-7.7,8-14.4,11.2-21.3
		c1.3-3.2,1.3-7.2,0.8-10.4c-2.4-9.1-5.9-17.9-9.1-27c-2.7-6.9-9.3-8-14.1-2.4c-1.6,2.1-3.5,4.3-5.9,6.9c3.2,3.5,5.9,6.7,9.1,10.1
		c0.8,0.8,1.3,1.6,1.6,2.4c2.4,6.7,4.3,13.1,2.1,19.7C-296.6,263.5-292.9,270.1-288.9,277.6z M-334,117.2c-8,1.6-14.9,3.5-21.9,4.8
		c-2.7,0.8-5.1,1.3-8,2.4c-2.7,1.1-3.7,2.4-2.1,5.6c2.7,5.1,4.8,11.2,7.2,16.5c1.1,2.4,2.4,3.2,4.8,1.1c3.7-3.5,7.7-6.7,11.5-10.1
		C-336.6,132.2-334.8,125.5-334,117.2z M-338.2,141.5c-4.8,3.7-8.3,6.9-12.5,9.3c-3.7,2.1-3.7,4.5-1.6,7.2
		c4.3,5.9,8.5,11.5,12.8,17.3c0.3,0.3,0.8,0.3,1.3,0.3C-338.2,164.7-338.2,153.5-338.2,141.5z M-292.1,279.5
		c-1.6-3.7-3.2-7.2-4.5-10.4c-0.3,0-1.1,0.3-1.3,0.3c0.3,3.7,0.8,7.2,1.1,11.7C-295.3,280.5-293.7,280.3-292.1,279.5z"/>
	<path class="st0" d="M-276.6,131.9c9.1-0.8,17.9-2.4,25.9,1.1c3.5,1.3,6.1,2.4,9.6,1.6c3.5-0.8,9.3,3.2,10.4,5.9
		c1.3,4.3-0.3,8.3-4.3,11.5c-10.1,8-20.5,6.9-30.2-1.6C-270.2,145-274.2,139.4-276.6,131.9z M-271.3,138.6
		c6.1,7.7,12.5,15.2,23.5,16c5.6,0.3,10.7-2.4,12-5.6C-249.1,150.1-260.6,146.3-271.3,138.6z M-268.6,137.2
		c4.8,5.6,26.4,10.7,32.8,8C-245.9,141.5-256.9,139.4-268.6,137.2z M-233.1,143.1c0-3.7-3.7-6.7-8-5.9c-2.4,0.3-5.9,0.8-7.7-0.3
		c-4.8-2.7-15.5-4.5-22.1-2.1C-258.2,136.7-245.4,138.3-233.1,143.1z"/>
	<path class="st0" d="M-204,92.4c-3.2-3.5-6.7-7.2-10.7-9.1c-2.1-1.1-5.9,2.1-8.5,3.2c-0.3,0-0.8,0-1.6,0.3c1.1-2.1,1.6-4.3,2.7-5.9
		c-0.3-0.3-1.1-0.8-1.3-0.8c-1.1,1.3-2.7,2.4-3.2,3.7c-1.1,3.7-2.4,8-2.4,12c0,8,0.8,15.5,1.1,23.5c0,3.7-3.2,7.2-7.2,8.5
		c-3.5,1.1-3.5-2.4-5.6-3.7c-1.6-1.1-3.7-2.7-5.6-2.4c-3.7,0.3-6.7-1.1-8.3-4.3c-1.6-3.7,1.1-4.5,3.5-5.6c-2.4-2.4-5.6-1.1-6.1,2.1
		c-0.8,3.7,2.4,8.3,6.1,9.3c3.2,1.1,6.7,2.1,8.5,4.3c3.2,3.5,5.9,3.2,9.6,2.1c4.3-1.3,7.2-3.5,6.9-8c0-5.1-1.1-10.7-1.3-16
		c-0.3-4.8-1.6-9.6,1.1-14.4c7.2,5.1,13.6,5.1,19.7,5.1C-203.7,96.4-202.4,94-204,92.4z M-217.9,89.5L-217.9,89.5
		c0,0.3-0.3,1.1-0.8,1.3c-0.8,0.8-1.3,0.8-2.1,0.3c-0.3,0-0.8-0.3-0.8-0.3c-0.3-0.3-0.8-0.8-0.8-0.8c-0.8-0.8-0.8-2.4,0.8-2.7
		c0.8-0.3,1.3-0.3,2.1-0.3C-217.9,86.5-216.8,88.1-217.9,89.5z M-208,94c-0.3,0.3-1.1,0.3-1.3,0c-0.8,0-1.1-0.3-1.1-0.8
		c-0.3-0.3-0.8-0.3-0.8-0.8c-1.3-1.6,1.1-4.3,2.4-2.4l0,0c0.3,0,0.8,0,1.1,0.3c0.3,0.3,0.3,0.3,0.8,0.8C-206.7,92.4-207,93.7-208,94
		z"/>
	<path class="st0" d="M-283.8,77.7c3.5-1.1,5.9-2.1,8.3-2.1c5.9-0.3,12-0.8,17.9,0.3c3.7,0.8,7.7,3.2,11.2,4.8
		c1.1,0.8,1.3,2.4,2.1,3.7c-1.3,0.8-3.2,2.1-4.5,2.1c-4.8,0-9.6,0.3-14.1-1.1C-269.1,83.9-276.9,84.4-283.8,77.7z M-275.8,78
		c0,0.3,0,1.1-0.3,1.3c2.7,1.1,5.6,1.6,8.3,2.4c0.8,0,1.6-1.1,2.4-1.3c-0.8-0.8-1.1-1.6-1.6-1.6C-269.9,78.5-272.6,78.5-275.8,78z
		 M-257.4,83.9c3.2,0,6.1,0,9.6,0C-252.6,79.6-255,79.6-257.4,83.9z"/>
	<path class="st0" d="M-243,74.5c-1.6,0-3.7,0.3-5.1,0c-10.4-3.2-21.1-2.4-31.5-2.7c-1.3,0-2.4-1.1-3.7-1.3c1.3-0.8,2.4-2.4,3.7-2.4
		c7.2,0,14.4,0,21.9,0.3c2.4,0,4.5,0,6.9,0.8c3.2,1.1,5.9,2.4,8.5,3.5C-242.4,73.2-243,74-243,74.5z"/>
	<path class="st0" d="M-245.4,170.6c-4.5-8.5-11.2-5.1-17.1-4.3c0.8-3.2,6.1-5.1,10.7-4.5C-246.7,162.6-244.6,165-245.4,170.6z"/>
</g>
</svg>
