<?xml version="1.0" encoding="utf-8"?>
<!-- Generator: Adobe Illustrator 19.1.0, SVG Export Plug-In . SVG Version: 6.00 Build 0)  -->
<svg version="1.1" id="Layer_1" xmlns="http://www.w3.org/2000/svg" xmlns:xlink="http://www.w3.org/1999/xlink" x="0px" y="0px"
	 viewBox="0 0 120 214.7" style="enable-background:new 0 0 120 214.7;" xml:space="preserve">
<style type="text/css">
	.st0{fill:#00BCD4;}
</style>
<g id="heartburn-lady-2">
	<path class="st0" d="M7.2,214.7c0.5-3,0.8-6.1,1.5-9.1c1.3-5.4,2.2-10.9,2.8-16.4c0.1-0.6,0.3-1.2,0.5-1.7c1.2-3.2,2.5-6.4,3.6-9.6
		c0.2-0.6-0.3-2-0.9-2.3c-2.9-1.5-4.2-4.3-5.1-7.1c-1.7-4.8-3-9.9-4.4-14.8c-0.5-1.6-1.1-3.3-1.4-5c-1-7-2.1-14-2.9-21.1
		c-0.5-4.6-0.5-9.3-0.7-13.9c-0.3-7.2,1.1-14.1,3-20.9c1.5-5.6,5.6-9.1,11.2-10.8c2.4-0.7,4.9-1.4,7.2-2.5c2.4-1.2,4.7-2.7,6.9-4.3
		c0.7-0.5,1.1-1.5,1.4-2.4c1.3-4,2.4-8,3.9-12c1.7-4.5,1.7-8.9,0.7-13.5c-0.5-2.4-0.6-4.8-0.6-7.2c0.1-4.5,0.3-9.1,0.7-13.6
		c0.6-7.9,2.8-15.2,8.8-20.8c3.7-3.4,7.9-5.6,13.2-5.4c1.3,0,2.8-0.6,4-0.3c3,0.7,6.1,1.3,8.7,2.7C76.9,6.9,81.3,13.6,83.4,22
		c0.7,2.8,2,5.5,2.1,8.2c0.4,7.7,1.8,15.2,3.9,22.6c0.9,3.3,1.2,6.8,1.9,10.1c1,4.6,2.2,9,5.8,12.3c1.4,1.4,2.9,2.8,4.5,3.9
		c4.1,2.9,6.6,6.8,8.2,11.5c2.3,6.7,2.7,13.7,4.3,20.5c0.9,3.9,2.3,7.7,3.1,11.7c0.8,3.9,1.1,7.9,1.5,11.8c0.5,4.6,1,9.2,1.2,13.9
		c0.1,3.6-0.2,7.2-0.4,10.8c-0.1,1.9-0.6,3.8-0.7,5.7c-0.3,4.7-3.4,7.3-7.2,9.2c-2.2,1.1-4.6,1.8-7,2.6c-1.5,0.5-3,0.8-4.5,1.1
		c-1.1,0.3-1.6,0.6-1.3,2c0.4,1.8,0.8,3.8,0.6,5.6c-0.5,6.3,0.7,12.3,1.9,18.4c0.7,3.5,0.9,7.2,1.3,10.8c-0.7,0-1.4,0-2.1,0
		c-0.1-2.2,0.1-4.4-0.4-6.6c-1.7-8.1-3.1-16.2-2.5-24.6c0.1-0.8-0.2-1.7-0.4-2.4c-5.9,2.1-10.7,5.7-15.6,9.2
		c-2.6,1.9-5.4,3.6-8.3,5.1c-1.5,0.8-3.3,0.4-5-0.2c0.5-0.4,1.1-0.6,1.6-0.5c2.6,0.2,4.7-0.8,6.8-2.2c5.9-4.1,11.3-8.8,18.1-11.4
		c0.8-0.3,1.4-1.3,2-2c-0.1-0.2-0.3-0.4-0.4-0.6c-0.6,0.1-1.2,0.2-1.8,0.4c-4.2,0.9-8.3,2-12.5,2.7c-4.5,0.8-9.1,1.1-13.6,1.7
		c-5.8,0.8-11.6,1.7-17.5,2.6c-0.9,0.1-1.9,0.3-2.7,0.8c-2.8,1.8-5.6,3.8-8.3,5.7c-1.4,1-2.9,1.9-4.1,3.1c-2,1.8-3.8,3.8-5.6,5.7
		c-2.1,2.1-4.5,1.6-5.3-1.2c1-1.9,2-3.8,3.1-5.9c-2.1,1.7-3.2,3.5-3,5.9c-0.2,0.1-0.6,0.2-0.6,0.4c-0.5,2.1-2.2,1.6-3.4,1.3
		c-1.4-0.3-1-1.7-0.9-2.7c0.2-2,0.5-4,0.8-6c-0.7,1.2-1,2.5-1.7,3.6c-0.4,0.7-1.2,1.7-1.9,1.7c-0.8,0-1.9-0.8-2.2-1.5
		c-0.5-1.3-0.4-2.8-0.5-4.4c-0.3-0.1-0.9-0.2-1.4-0.3c-0.5,2.5-0.9,4.7-1.3,7c-0.9,5.2-1.8,10.4-2.6,15.6
		C8.6,214.7,7.9,214.7,7.2,214.7z M95.8,151.3c0.3-0.1,0.7-0.3,1.1-0.4c2.3-0.5,4.6-1.1,6.9-1.4c0.5-0.1,1.2,0.7,1.8,1
		c-0.6,0.3-1.2,0.6-1.8,0.7c-1.9,0.4-3.8,0.7-5.6,1c0,0.2,0,0.4-0.1,0.7c0.5,0.4,0.9,0.8,1.4,1.2c1.1,0.9,2.3,1.7,3.3,2.7
		c0.4,0.4,0.4,1.2,0.6,1.8c-0.6-0.2-1.2-0.3-1.7-0.7c-1.5-1.1-2.9-2.4-4.4-3.3c-0.7-0.4-1.9-0.4-2.7-0.1c-1.4,0.5-2.6,1.6-3.9,2.1
		c-4.1,1.4-8.2,2.8-12.4,3.9c-4.7,1.2-9.5,2-14.3,2.9c-4.9,0.9-9.9,1.8-14.9,2.6c-1.2,0.2-1.3,0.6-1.1,1.7c0.3,1.4,0.4,2.8,0.7,4.2
		c0.8,4.2,1.7,8.5,2.5,12.7c0.5,0,0.8,0,1.1,0c8-1.4,15.9-2.8,23.9-4.2c3.6-0.6,7.2-0.8,10.8-1.4c4.8-0.9,9.5-1.9,14.2-3.2
		c3.6-1,7.2-2.2,10.5-3.8c2.7-1.3,4.9-3.4,5.1-6.8c0.2-2.1,0.7-4.2,0.9-6.4c0.3-2.8,0.6-5.7,0.5-8.5c-0.2-5.1-0.8-10.2-1.2-15.3
		c-0.2-2.7-0.4-5.4-1-8c-1.2-5.5-2.8-10.8-4-16.3c-1.4-6.7-1.7-13.6-4.3-20c-0.8-1.9-1.6-3.8-2.7-5.6c-2.5-3.9-6.4-6.1-10.5-7.9
		c-0.8-0.4-1.9-0.1-2.9,0c-1,0.1-2,0.5-3,0.4c-1-0.1-1.5,0-2.1,0.9c-5.4,7.8-12.8,12.8-21.8,15.4c-2.4,0.7-4.3,1.9-5.7,4
		c-2.2,3.4-5,6.2-8.2,8.5c-1.7,1.3-3.4,2.6-5.1,3.9c-1.8,1.4-1.9,3.1-0.3,4.6c0.9,0.8,1.1,1.6,0.8,2.8c-0.8,2.5-1.4,5.1-2,7.7
		c-0.6,2.3-1.1,4.6-1.5,6.9c-0.7,4.5-1.1,9-2,13.4c-0.6,3-1.6,6-2.5,8.9c-0.5,1.7,0.1,2.6,1.7,3.1c4.1,1.2,8.2,1.1,12.2-0.3
		c1.7-0.6,3.3-1.2,5.1-1.6c0.5-0.1,1.1,0.1,1.7,0.2c0,0.2,0,0.4,0,0.5c-2.7,0.9-5.4,2.1-8.2,2.5c-3.1,0.5-6.4,0.6-9.5,0.2
		c-3.1-0.4-4.3-0.2-5.7,2.7c-1.1,2.2-2,4.4-3,6.6c-0.3,0.8-0.5,1.6-0.7,2.4c0.1,0.1,0.2,0.2,0.3,0.3c1.7-1.7,3.7-1.4,5.8-1.4
		c2.2,0,4.4-0.7,6.6-1.3c0.7-0.2,1.4-1.3,1.5-2c0.1-2,0.7-2.7,2.7-2.6c1,0,2,0.1,3-0.1c3.4-0.7,6.8-1.5,10.1-2.3
		c3.2-0.7,6.5-1.5,9.7-2.2c4.5-1,9-2,13.5-3.2c2.3-0.6,4.5-1.6,6.6-2.7c0.9-0.5,1.9-1.8,2-2.9c0.3-2.4,0.1-4.9,0.1-7.3
		c-2.4,1.6-4.7,3.2-7.1,4.6c-2.6,1.5-5.4,0.9-8.1,0.4c0.4-0.4,0.8-0.7,1.2-0.6c4.2,0.5,7.7-1.3,10.8-3.9c1.5-1.2,3-2.9,3.6-4.7
		c0.7-2.2,0.3-4.7,0.4-7.1c0.1-4.6,0.3-9.2,0.4-13.8c0.1-3.9,0.1-7.9,0.1-11.8c0-5.2,0-10.3,0.1-15.5c0-0.4,0.6-0.9,0.9-1.3
		c0.3,0.1,0.6,0.2,0.9,0.2C96.3,110.6,96.1,130.9,95.8,151.3z M25.9,110.5c0.8-0.9,1.5-1.6,2.2-2.5c0.3-0.3,0.5-0.7,0.6-1.1
		c0.7-2.9,1.6-5.7,2.1-8.6c0.5-2.7,0.6-5.5,2.5-7.8c0.5-0.6,0.7-2,0.5-2.8c-0.7-2.4-0.6-5.1-3.2-6.7c-0.3-0.2-0.5-0.7-0.7-1
		c-1.4-2.2-1.7-2.1-4.1-1c-3.6,1.6-7.3,3.2-11,4.5c-3.6,1.3-6.9,3-8.7,6.6c-2.5,5.2-3.5,10.8-3.9,16.3c-0.9,11.6,0.1,23.1,1.9,34.5
		c1.2,7.6,3.3,14.9,5.6,22.2c1.4,4.4,2.8,8.5,7.2,11.4c4.1,2.7,9.4,2.3,11.7-2.1c0.7-1.3,1.1-2.6,1.9-3.8c5.1-7.8,6.8-16.8,8.8-25.7
		c1.1-5,1.6-10.1,2.5-15.1c0.7-3.7,1.7-7.3,2.6-11.1c-6.1,0-11.8-1.4-16.4-6.2c-0.7,2.1-1.2,3.8-1.8,5.6c-0.9,2.6-1.7,5.3-2.6,7.9
		c-1.3,3.9-2.5,7.9-4.1,11.7c-2.2,5.4-4.7,10.7-7.2,16.1c-0.2,0.4-0.8,0.7-1.3,1c-0.1-0.6-0.4-1.2-0.2-1.7c1.5-3.5,3.1-7,4.6-10.5
		c0.9-2.1,1.9-4.1,2.7-6.2c1.8-4.6,3.6-9.3,5.1-14c0.7-2.2,1.4-4.5,1.2-6.7c-0.4-4-3-7.1-5.4-10.2c-0.3-0.4-0.3-1.1-0.4-1.7
		c0.2-0.1,0.5-0.2,0.7-0.3C22.5,104.1,24.2,107.5,25.9,110.5z M77.7,38.6c0.4,0.5,0.8,0.8,0.9,1.1c0.3,1.4,0.6,2.8,0.5,4.1
		c-0.1,0.5-1.6,0.7-2.4,1.1c-1.4,0.6-3,1-2.9,3c0,0.7-0.1,1.7,0.2,1.9c0.6,0.3,1.5,0.2,2.2,0c0.5-0.1,0.9-0.5,1.3-0.9
		c4.1-3.4,4.8-8,4.3-12.9c-0.2-1.7-1.5-2.3-2.9-1.3c-0.3,0.2-0.6,0.5-1,0.8c-2.1,1.6-2.7,1.3-3.3-1.2c-1-4.3-2.2-8.5-5.1-12
		c-2-2.5-3.9-4.9-5.8-7.5c-2.2-3-5.2-4.4-8.9-3.7c-3,0.6-5.9,1.4-8.8,2.3c-5.2,1.7-5.7,6.7-7.5,11c2.4-0.1,4.5-2.1,7.1-0.1
		c-0.9,0.4-1.4,0.7-1.9,0.8c-1.5,0.3-3,0.5-4.5,0.9c-0.5,0.1-1.2,0.7-1.4,1.1c-0.7,2.6-2.1,5-1.6,7.8c0.1,0.6,0.1,1.2,0,1.8
		c-1.2,7.3,0.2,14.1,3.2,20.7c3,6.6,12,10.5,18.9,6.7c4.4-2.4,8.8-4.6,11.8-8.8c2-2.9,2.4-6.2,3.4-9.4c0.3-1.1,0.5-2.1,0.8-3.2
		c0.1,0,0.3,0.1,0.4,0.1c0,0.7-0.1,1.3-0.1,1.8c1.1-0.3,2.2-0.5,3.4-0.8c0.3-1.3,0.2-2.7-0.8-3.8c-0.2-0.2-0.8-0.1-1.5-0.1
		c0.8-1.1,1.5-2.2,2.4-3.1c0.6-0.6,1.4-0.8,2.2-1.2c0.3,0.7,0.6,1.3,0.7,2c0.1,0.7,0,1.3-0.1,2c-0.2,0-0.4,0.1-0.6,0.1
		c-0.3-1-0.6-1.9-1-3.1C78.7,37.3,78.2,37.9,77.7,38.6z M65,88.5c-0.2-0.2-0.5-0.4-0.7-0.6c-4.5,1.8-7.8,5.2-10.9,9.3
		c-0.5-1.8,0-3.4,0.7-4.7c2.5-4.5,5.2-8.8,7.7-13.2c0.6-1,0.9-2.3,1.1-3.5c0.1-0.4-0.7-1.1-1.2-1.3c-0.3-0.1-1,0.5-1.3,0.9
		c-3,4.8-6,9.6-9,14.3c0,0.1-0.2,0-0.6,0c0.1-0.6,0.1-1.1,0.2-1.6c2.1-6.2,4.6-12.1,8.3-17.5c0.5-0.8,1.3-1.8,0.2-2.4
		c-1-0.6-2.2-0.4-2.8,0.9c-0.4,0.7-0.9,1.3-1.3,1.9c-1.7,2.4-3.7,4.8-5.1,7.4c-1.3,2.3-2,4.9-3,7.3c-0.2,0.4-0.6,0.7-0.9,0.9
		c-0.1,0.1-0.7-0.2-0.7-0.3c0-0.4,0.1-0.8,0.2-1.1c0.5-1.2,1-2.5,1.6-3.7c1.8-4.1,3.7-8.2,5.6-12.2c0.2-0.4,0.4-1.2,0.2-1.4
		c-0.4-0.3-1.1-0.6-1.6-0.5c-0.6,0.2-1.3,0.7-1.6,1.3c-1.3,2.3-2.4,4.7-3.7,7.1c-1.9,3.4-3.7,6.8-5.7,10.2c-0.6,1-1.4,1.9-2.1,2.8
		c-0.3,0.4-0.8,0.6-1.1,0.9c0.1-0.5-0.1-1.2,0.2-1.5c1-1.3,0.4-1.9-0.8-2.4c-0.8-0.3-1.6-0.5-2.5-0.7c0,0.4-0.1,0.6-0.1,0.8
		c1.4,2.8,0.6,5.1-1.3,7.3c-0.5,0.6-0.7,1.4-0.8,2.1c-1,4.3-1.8,8.6-2.9,12.9c-0.2,1-0.1,1.6,0.7,2.1c2.6,1.4,5.2,3,8,4.1
		c1.5,0.6,3.3,0.4,5.1,0.6c-0.4-2.5,0.1-4.2,1.6-5.6c1-0.9,2-1.6,3-2.5c2.8-2.3,5.7-4.5,8.2-7.1c2.8-2.8,5.2-5.8,7.7-8.8
		C64.3,90.3,64.6,89.3,65,88.5z M21.1,200.5c1.9,0.8,2.3-0.5,2.7-1.7c0.9-3.6,3.1-6.1,6.4-7.5c0.5-0.2,1-0.2,1.5-0.2
		c-0.2,0.5-0.3,1.1-0.6,1.6c-1.5,2.1-3.5,3.9-4.1,6.6c-0.2,0.7-0.2,1.4-0.2,2.1c0.8-0.2,1.6-0.4,2.4-0.7c0.3-0.1,0.5-0.5,0.7-0.8
		c3.2-3.2,6.2-6.6,10.3-9c3-1.7,5.4-4.4,8-6.7c0.5-0.5,0.7-1.6,0.6-2.4c-0.6-3.9-1.3-7.7-1.9-11.6c-0.1-0.3-0.2-0.6-0.2-0.5
		c-3.1,0.6-5.9,1.3-8.8,1.8c-3.4,0.6-6.8,1.1-9,4.2c-0.7,0.9-1.8,1.8-2.9,2c-2.8,0.5-4.7,2.4-6.8,4c-3.1,2.3-4.9,5.5-5.6,9.5
		c0.9,0,1.9,0,2.4-0.5c2.2-2.2,4.2-4.6,6.3-6.9c0.3-0.3,0.8-0.4,1.2-0.5c0.1,0.2,0.3,0.4,0.4,0.6c-0.9,0.9-1.7,2-2.8,2.7
		c-2.6,1.8-3.9,4.5-5.2,7.2c-0.3,0.6-0.3,1.5-0.1,2.1c0.2,0.6,0.8,1.1,1.2,1.6c0.4-0.5,1-0.9,1.2-1.5c1.1-3.7,3.7-6,6.9-7.8
		c0.5-0.3,1-0.3,1.6-0.4c0.1,0.2,0.2,0.3,0.4,0.5c-0.8,1-1.5,2.3-2.5,3C21,193.5,21.4,197.1,21.1,200.5z M53.7,84.1
		c0.1,0.1,0.2,0.1,0.3,0.2c0.5-0.6,1-1.2,1.4-1.9c1.4-2.5,2.8-5,4-7.6c0.7-1.4,1.8-1.8,2.9-1.3c0.8,0.3,1.7,1.4,1.7,2.2
		c0.1,1.2-0.3,2.6-0.8,3.7c-0.7,1.5-1.9,2.9-2.7,4.4c-0.2,0.4-0.3,1-0.1,1.5c0.1,0.2,0.8,0.3,1.2,0.2c5.4-0.5,10.1-2.7,14.2-6
		c1.5-1.2,2.6-2.8,4-4.4c-4.6-2.7-8.2-5.7-8.5-11.2c-0.2,0.1-0.4,0.1-0.7,0.2c0,2.3,0,4.5,0,6.8c-0.5,0-0.8,0-0.8-0.1
		c0-4.6,0-9.2,0-13.6c-4.2,4.4-9.6,7.3-15.4,9.4c1,3.4-2.4,5.1-2.9,8.2c0.6-0.7,0.9-1,1.1-1.4c1.1-1.7,2.2-3.4,3.2-5.1
		c1.1-1.8,2.7-2.2,4.4-1.1c1.2,0.8,1.3,2.2,0.3,3.9c-1.3,2.2-2.6,4.5-3.8,6.8C55.6,79.9,54.7,82,53.7,84.1z M86,77.3
		c-1.3-0.6-2.5-1.3-3.7-1.6c-0.5-0.1-1.5,0.3-1.8,0.8c-1.7,2.5-4,4.3-6.4,5.9c-3.5,2.3-7.4,3.6-11.6,4c-2.1,0.2-4.3,0.4-5.2,3
		c-0.4,1.2-1.5,2.3-2.2,3.4c0.1,0.1,0.3,0.2,0.4,0.3c0.3-0.3,0.6-0.7,1-0.9c2.2-1.6,4.3-3.3,6.6-4.8c0.6-0.4,2-0.4,2.4,0
		c0.5,0.6,0.5,1.8,0.3,2.6c-0.2,0.7-0.9,1.3-1.4,1.9c-0.3,0.3-0.7,0.6-1,0.9C72.8,90.5,80.5,85.6,86,77.3z M35.4,76.5
		c2.1,1.7,4,3.4,6,5c0.1,0.1,0.9-0.4,1.1-0.7c1.3-2.4,2.6-4.9,3.8-7.4c1.2-2.4,2.5-4.7,3.7-7c-2-0.7-3.8-1.3-5.6-1.9
		C43.5,71.5,43.4,71.5,35.4,76.5z M29.4,77.9c1.5,1.8,3.1,3.3,4.2,5c1.4,2.1,4.2,1,5.5,3.2c0.9-1.2,1.7-2.1,2.3-2.8
		c-2.3-2.1-4.3-4-6.5-6c-0.3-0.3-0.9-0.8-1.2-0.7C32.4,76.9,31.1,77.4,29.4,77.9z M21.3,178.6c-1.2-0.3-2-0.6-2.7-0.7
		c-0.3-0.1-0.9,0-0.9,0.1c-0.7,1.5-1.3,3.1-2,4.6c0.2,0.1,0.3,0.1,0.5,0.2C17.8,181.5,19.4,180.1,21.3,178.6z"/>
	<path class="st0" d="M57.3,50.2c-4,3.4-9.6,4.8-13.3,2.4c-2.5-1.6-2.7-1.5-0.7-3.6c1-1.1,2.2-2.1,4-1.5c0.2,0.1,0.5,0.1,0.7,0
		C51.7,46.3,53.9,49.4,57.3,50.2z M43.6,50.9c2.8,3.1,7.5,2.6,10.9,0C50.8,50.9,47.2,50.9,43.6,50.9z M52.9,49.5
		c-3-2.2-7.7-1.8-9,0.6C46.9,49.8,49.8,49.7,52.9,49.5z"/>
	<path class="st0" d="M52.2,43.7c0.7-0.2,1.6-0.2,1.9-0.6c0.3-0.4,0.1-1.3-0.2-1.9c-0.3-0.7-0.9-1.3-1.4-2.1c1.6,0.3,3.2,2.4,3,3.6
		c-0.2,1.2-1.5,1.8-3.1,1.7c-1.9-0.2-3.9-0.2-5.8-0.3c-0.8-0.1-2.2-0.3-2.3-0.8c-0.3-0.9-0.2-2.3,0.3-3c2.9-3.3,2.7-7.6,3.7-11.5
		c0.3-1.1-0.1-2.3-0.2-3.8c1.4,1.7,1,3.4,0.8,5c-0.4,2.4-1,4.9-1.7,7.2c-0.3,1.1-1.1,2-1.8,3c-0.6,0.9-1.3,1.8-0.3,2.9
		c0.3-0.6,0.4-1.2,0.8-1.5c0.2-0.1,0.9,0.3,1.4,0.6c-0.3,0.4-0.5,0.7-0.7,1c0.8,0.4,2.8-0.4,3.3-1c0.4-0.4,1.2-0.6,1.8-0.5
		c0.3,0,0.4,1,0.6,1.5C52.2,43.3,52.2,43.5,52.2,43.7z"/>
	<path class="st0" d="M65.9,32c-2.8,0-5.6,0-8.3,0c-0.6,0-1.4-0.3-1.6-0.7c-0.2-0.4,0.1-1.3,0.5-1.7c1.2-1.8,3.2-1.8,5-1.5
		c1.9,0.3,3.7,1.2,4.6,3.2C66.1,31.4,66,31.7,65.9,32z M60.3,31.2c1.1-0.1,2.1-0.3,3.1-0.4c0-0.2,0.1-0.4,0.1-0.5
		c-0.9-0.5-1.8-0.9-2.7-1.4C60.7,29.8,60.5,30.4,60.3,31.2z"/>
	<path class="st0" d="M38.1,31.8c-0.4-2.7,1-4.2,3.9-4.1c2.1,0,3.6,1,4.9,2.5c0.2,0.3,0.4,0.8,0.3,1.1c-0.1,0.3-0.6,0.5-1,0.5
		C43.5,31.8,40.9,31.8,38.1,31.8z M42.4,30.8c0.9,0,1.9-0.1,2.8-0.1c0-0.1,0.1-0.3,0.1-0.4c-0.8-0.5-1.6-1-2.5-1.5
		C42.6,29.6,42.5,30.1,42.4,30.8z"/>
	<path class="st0" d="M67.3,26.7c-0.4,0-0.8,0.2-1,0.1c-3.3-2.2-7.2-0.8-11.1-1.6C58.2,22.9,65.4,24,67.3,26.7z"/>
</g>
</svg>
