<?xml version="1.0" encoding="utf-8"?>
<!-- Generator: Adobe Illustrator 19.1.0, SVG Export Plug-In . SVG Version: 6.00 Build 0)  -->
<svg version="1.1" id="Layer_1" xmlns="http://www.w3.org/2000/svg" xmlns:xlink="http://www.w3.org/1999/xlink" x="0px" y="0px"
	 viewBox="0 0 120 186.4" style="enable-background:new 0 0 120 186.4;" xml:space="preserve">
<style type="text/css">
	.st0{fill:#FF5722;}
</style>
<g id="nausea-recom">
	<path class="st0" d="M31.2,186.4c-0.1-1.2-0.2-2.3-0.4-3.5c-0.1-0.8-0.5-1.7-0.6-2.5c-0.1-0.9-0.1-1.8-0.1-2.7c0-2.7,0-5.5,0.1-8.2
		c0.2-3.1,0.6-6.1,0.9-9.1c0.1-0.9,0-1.8,0.1-2.7c0.1-0.9,0.3-1.7,0.3-2.6c0.1-2.5,0.8-4.9,1.6-7.3c0.2-0.8,0.2-1.6,0.3-2.4
		c0.2-1.1,0.3-2.2,0.5-3.3c0.3-1.5,0.4-2.9,0-4.3c-0.1-0.5-0.1-1.1-0.1-1.6c-0.1-1.9-0.2-3.8-0.2-5.7c0-2.2,0.1-4.3,0.2-6.5
		c0-0.3,0.1-0.6,0.3-0.9c1.4-2.6,0.8-5.3,0.1-7.9c-0.1-0.4-0.5-0.8-0.9-1c-0.5-0.4-1-0.7-1.5-0.9c-2.3-1-3.9-2.7-5.2-4.8
		c0-0.1-0.1-0.1-0.3-0.2c-0.2,1.2-0.3,2.4-0.5,3.5c-0.3,1.6-0.5,3.1-0.9,4.7c-0.1,0.4-0.4,0.7-0.6,1c-0.2,0.4-0.5,0.8-0.7,1.2
		c-0.6,1-1.2,2.1-1.9,3c-0.9,1.2-1.8,2.4-2.8,3.5c-0.5,0.6-1.2,1.2-1.8,1.7c-0.9,0.8-1.9,1.5-2.8,2.2c-1.7,1.4-3.4,1.5-5.3,0.4
		c-2.4-1.4-4-3.4-4.9-6.1c-0.6-1.8-1.5-3.4-2.8-4.8c-0.8-0.8-1.3-1.9-1.3-3.2c0.1-3.4,0.7-6.8,1.6-10c0.7-2.3,1.6-4.5,2.3-6.8
		c1-3.1,1.9-6.2,2.6-9.5c0.8-4,1.4-8.1,1.7-12.1c0.1-1.4,0.7-2.7,0.9-4c0.5-2.5,0.8-5.1,1.2-7.6c0.6-3.6,1.1-7.3,3.2-10.4
		c0.9-1.3,2.2-2.4,3.4-3.6c0.4-0.4,0.5-0.6,0.5-1.2c-0.1-0.8,0-1.6,0-2.4c0-0.4,0-0.8-0.2-1c-2.1-2.3-2.6-5.2-2.8-8.1
		c-0.1-1.1-0.4-1.9-1.3-2.6c-2.7-2-3.7-4.9-4.1-8.1c-0.2-1.8-0.2-3.6-0.3-5.3c-0.1-2.3,0.9-4.4,1.9-6.4c0.4-0.9,1.1-1.8,1.3-2.8
		c0.5-2.2,2-3.7,3.1-5.4c1.2-1.9,3.2-3.1,5.1-4.1c0.8-0.4,1.6-0.9,2.3-1.3c2.3-1.3,4.7-2.2,7.4-2.2c0.9,0,1.8-0.3,2.6-0.4
		c4.1-0.4,8.1-0.2,11.8,1.7c1.9,1,3.4,2.4,4.9,3.8c2.8,2.7,4.9,5.9,6.5,9.4c0.5,1,0.4,2.3,0.6,3.5c0.1,0.7,0.3,1.4,0.5,2
		c0.3,1,0.4,2,0.9,2.9c0.8,1.7,1.7,3.3,2.6,5c1.1,2.1,2.4,4.2,2.2,6.7c-0.1,1.5,0.5,2.8,1.6,3.9c1.1,1.2,1.9,2.5,1.7,4.2
		c-0.1,1.1,0,2.3-0.1,3.4c-0.1,1.2,0.7,1.8,1.5,2.2c1.6,0.9,3.2,1.6,4.8,2.3c1.2,0.5,2.2,1.3,3,2.3c1,1.3,2.2,2.3,3.6,3
		c2.4,1.3,4.4,3,6.2,5c1.8,2,3.7,3.9,5.6,5.8c0.4,0.4,1.1,0.6,1.6,1.1c0.9,0.7,1.9,1.4,2.5,2.3c1.8,2.8,3.6,5.4,6.3,7.5
		c1.7,1.3,3.2,3,4.8,4.4c1.7,1.5,3.2,3.1,4.1,5.2c0.2,0.4,0.5,0.8,0.7,1.2c3.2,4.4,6,9.1,8.1,14.2c0.5,1.3,1,2.5,1.3,3.9
		c0.2,1,0,2.1-0.3,3.1c-0.8,2.8-3,4.6-4.9,6.6c-1.9,2-4.1,3.8-6.5,5.2c-1,0.6-1.9,1.4-2.8,2.1c-1.5,1.1-3.1,2.2-4.6,3.4
		c-0.8,0.6-1.6,1.4-2.4,2.1c-0.4,0.4-0.5,0.8-0.4,1.4c1.3,5.9,2,11.9,1.9,18c0,2.3,0.6,4.3,1.1,6.4c0.6,3,1.6,6,1.4,9.1
		c-0.2,3.2,0,6.4-0.8,9.5c-0.8,2.9-1.1,6-1.6,9c-0.2,1.1-0.4,2.2-0.6,3.4C76.7,186.4,54,186.4,31.2,186.4z M29.1,78.5
		c-0.1,0-0.2,0-0.3,0c-0.1,0.3-0.3,0.5-0.3,0.8c-0.3,3.5-0.6,7.1-0.8,10.6c-0.1,1.3-0.1,2.7-0.2,4c-0.2,3-0.4,6.1-0.8,9.1
		c-0.3,2.3,0.6,4.3,1.7,6.1c1.3,2,3.3,3,5.2,4.1c1.3,0.8,2.6,1.1,4.1,1c0.7,0,1.5,0.1,2.3,0.2c2.1,0.3,4.1,0.8,6.2,1.1
		c2,0.3,4.1,0.4,6.1,0.7c1.8,0.2,3.6,0.6,5.4,0.8c2,0.3,3.9,0.2,5.8-0.4c3.4-1.1,6.6-2.7,9.6-4.7c2.3-1.5,4.4-3.1,6.6-4.7
		c0.2-0.2,0.7,0,1-0.1c-0.2,0.3-0.2,0.7-0.5,0.8c-0.7,0.5-1.5,0.9-2.2,1.4c-1.8,1.3-3.5,2.9-5.4,4c-2.4,1.4-5,2.5-7.5,3.7
		c-2.1,1-4.4,1-6.5,0.9c-2.3-0.1-4.7-0.7-7-1c-1.1-0.2-2.3-0.3-3.4-0.5c-2.1-0.3-4.2-0.5-6.4-0.8c-1.7-0.2-3.3-0.5-5-0.7
		c-1.1-0.1-1.4,0.2-1.3,1.3c0.1,1.3,0.2,2.5,0.3,3.8c0.1,1.1,0,2.1-0.7,3c-0.2,0.2-0.3,0.6-0.3,0.9c-0.1,2.4-0.1,4.8-0.1,7.2
		c0.1,2.8,0.5,5.5,0.3,8.3c-0.2,3.1-0.8,6.1-1.3,9.2c0,0.1,0,0.2-0.1,0.2c-1,1.9-1.1,4.1-1.3,6.2c-0.2,1.7-0.1,1.9,1.6,2.4
		c0.1,0,0.1,0,0.2,0.1c3.8,0.8,7.6,1.6,11.4,2.4c2.5,0.5,5.1,0.9,7.7,1.3c2.2,0.4,4.4,0.7,6.7,0.9c1.3,0.1,2.7-0.2,4-0.2
		c3,0,6.1,0.2,9.1,0.2c2.5,0,5,0,7.6,0c4,0,7.9,0,11.9,0.1c1.5,0.1,2.9-0.1,4.4-0.6c0.7-0.3,1.1-0.6,0.9-1.4c0-0.1,0-0.3-0.1-0.4
		c-0.5-2.3-1.1-4.6-1.6-7c-0.5-2.3-1-4.5-1.4-6.8c-0.4-2.6-0.7-5.1-1.1-7.7c-0.1-0.6,0-1.2-0.1-1.8c-0.2-1.7-0.4-3.4-0.7-5.2
		c-1.2,0.6-2.2,1.2-3.2,1.7c-2.2,1-4.4,2-6.3,3.6c-0.2,0.2-0.4,0.3-0.7,0.5c-1.7,1.1-3.5,2.2-5.2,3.3c-1,0.6-2,1.3-3.1,1.5
		c-1.9,0.4-3.6,1.4-5.3,2.2c-2,1-4.1,1.9-6.2,2.6c-2.8,0.9-5.8,0.6-8.6,0.5c-1.4,0-2.8-0.4-4-1.3c-2.3-1.8-4.8-3.4-7.2-5.1
		c-1.2-0.8-1.4-1.5-0.6-2.9c-0.7,0-1.3,0-1.9-0.2c-0.5-0.1-1-0.5-1.2-0.9c-0.1-0.4,0.1-1,0.3-1.5c0.1-0.3,0.5-0.4,0.6-0.6
		c-0.1-0.4-0.3-0.7-0.3-1.1c-0.1-1.2,0.9-2,2.3-1.9c2.2,0.2,4.4,0.7,6.6,0.9c1.5,0.1,3,0,4.4-0.1c0.5,0,0.9-0.4,1.3-0.7
		c0-0.1-0.1-0.2-0.1-0.2c-0.4-0.1-0.8-0.2-1.2-0.2c-1.9-0.2-3.7-0.7-5.4-1.6c-1.3-0.6-2.2-1.4-2-3c0.1-0.7,0.5-1.3,1.2-1.3
		c0.6,0,1.3,0.1,1.9,0.1c2.7,0.2,5.4,0.4,8,0.6c3,0.2,5.8,0.8,8.4,2.1c2.4,1.2,5.6,1,7.6-0.7c1.1-0.9,2.2-1.7,3.4-2.5
		c3-1.8,5.9-3.7,8.1-6.5c0.2-0.3,0.4-0.7,0.3-1.1c-0.1-1.3-0.4-2.6-0.6-3.8c-0.5-3.8-1.3-7.6-1.5-11.4c-0.1-2.6-0.7-5.3-1.2-7.9
		c0-0.3-0.3-0.6-0.5-0.7c-1.4-1.1-2.9-2.2-4.2-3.4c-0.5-0.4-0.8-1.1-1.2-1.6c-0.3-0.3-0.6-0.7-1-0.8c-0.9-0.5-1.9-0.7-2.7-1.3
		c-3.4-2.4-5.8-5.7-7.1-9.6c-0.9-2.7-1.3-5.5-1.8-8.3c-0.3-1.6-0.4-3.3-0.3-5c0.1-1.6,0.5-3.2,0.9-4.7c0.3-1.2,0.7-2.3,1.7-3.2
		c0.1,0.3,0.1,0.6,0,0.9c-0.3,0.7-0.7,1.4-0.9,2.2c-0.7,3.2-1.4,6.3-0.6,9.6c0.6,2.8,0.9,5.6,1.9,8.3c0.3,0.9,0.7,1.7,1.2,2.5
		c1.2,1.7,2.5,3.3,3.8,5c0.3,0.4,0.8,0.7,1.3,1c-0.3-1.1-0.9-2.1-1-3.1c-0.1-1.3,0.2-2.6,0.3-3.9c0.1-0.4,0.3-0.9,0.8-0.8
		c0.6,0.1,0.4,0.6,0.4,1.1c-0.1,1-0.3,2-0.3,3.1c0,1.7,0.8,2.7,2.3,3.1c0.2-0.4,0.3-0.8,0.6-1.1c1.5-2.1,2.8-4.2,3.5-6.7
		c0.1-0.2,0.1-0.5,0.3-0.6c0.2-0.1,0.4-0.2,0.7-0.2c0,0.2,0.2,0.4,0.1,0.6c-0.6,2.5-1.8,4.7-3.2,6.8c-0.2,0.3-0.3,0.6-0.5,0.9
		c0.1,0,0.1,0.1,0.2,0.1c0.6-0.4,1.1-0.7,1.7-1.2c1.9-1.6,3.7-3.2,5.6-4.8c1.4-1.1,2.4-2.5,3.3-4c0.3-0.5,0.5-0.9,0.8-1.4
		c1-1.6,1.9-3.2,2.9-4.8c-2.6-2.6-5-5.2-7.5-7.7c-1-1-2.1-2-3.3-2.8c-2.2-1.4-4.5-2.7-6.1-4.8c-0.4-0.5-1-1-1.6-1.2
		c-2.3-1.1-4.7-2.2-7.3-3.3c-0.6,0.9-1.2,1.8-1.9,2.9c-1.3,2.2-2.3,4.5-2.8,7c-0.7,3.6-1.3,7.2-2.7,10.5c-0.2,0.5-0.3,1.2-0.3,1.7
		c0,1.6,0.1,3.3,0.1,4.9c0.1,3.2-1,6.2-1.9,9.2c-0.3,1-0.9,1.8-1.8,2.4c-0.8,0.6-1.6,1.2-2.3,1.9c-2.1,2-4.5,3.4-7.1,4.7
		c-1.4,0.7-2.9,1-4.3,0.2c-1.4-0.8-2.8-1.8-4.1-2.9c-4-3.2-6.2-7.4-6.5-12.6C29.4,79.1,29.2,78.8,29.1,78.5z M73.3,141.5
		c0.7-0.3,1.6-0.4,2.2-0.8c1.5-0.9,2.9-1.9,4.3-2.8c2.5-1.6,5-3.2,7.6-4.7c3.6-2,7.5-3.6,10.9-5.9c2.3-1.5,4.6-3,6.8-4.5
		c2.3-1.6,4.7-3.2,6.9-5.1c1.9-1.7,3.7-3.6,5.4-5.5c1.4-1.7,1.9-3.7,1.3-5.9c-1.2-4-3.1-7.8-5.3-11.3c-1.7-2.6-3.3-5.3-5-7.9
		c-0.3-0.5-0.7-1.1-1.1-1.5c-1.4-1.4-2.9-2.9-4.4-4.2c-1-1-2.2-1.9-3.2-2.8c-0.7-0.7-1.5-1.3-2.1-2.1c-1.1-1.3-2.2-2.8-3.3-4.3
		c-0.3,0.5-0.6,1-0.8,1.4c-0.9,1.7-1.5,3.7-2.7,5.1c-1.5,1.8-3.3,3.4-5.1,4.8c-2.2,1.8-4.6,3.4-7,5c-0.9,0.6-0.9,0.9-0.1,1.6
		c1.8,1.4,3.5,2.7,5.3,4c1.3,1,2.5,2,3.7,3c2.6,2.4,5.2,4.9,7.7,7.3c0.8,0.7,1.6,1.4,2.3,2.2c0.7,0.8,1.5,1.2,2.5,1.1
		c1.5-0.1,2.9-0.2,4.4-0.3c0.3,0,0.6,0.1,0.9,0.2c0,0.1,0,0.2,0,0.3c-0.2,0.1-0.4,0.3-0.7,0.3c-1.6,0.2-3.1,0.3-4.7,0.4
		c-1.3,0.1-2.6,0.1-3.5,1.3c-0.2,0.3-0.6,0.4-0.9,0.6c-1.9,1.2-3.7,2.6-4.9,4.5c-0.6,1-1.6,1.8-2.5,2.7c-0.9,0.9-1.9,1.6-2.8,2.5
		c-2.2,2.2-4.3,4.4-7.2,5.6c-0.4,0.2-0.8,0.5-1.1,0.8c-2.2,1.7-4.4,3.3-6.9,4.5c-0.2,0.1-0.4,0.2-0.6,0.1c-1.2-0.4-2.3-0.8-3.4-1.2
		c-1.7-0.6-3.3-1.6-5.1-1.9c-3-0.5-6-0.6-9-0.9c-0.2,0-0.5,0.1-0.6,0.3c-0.9,0.7-1.7,1.6-2.9,1.8c1.2,0.5,2.3,1,3.5,1.3
		c1,0.3,2.1,0.3,3.1,0.6c0.3,0.1,0.7,0.4,0.8,0.7c0.1,0.2-0.3,0.6-0.5,0.9c-0.2,0.2-0.5,0.4-0.7,0.5c-1.8,0.8-3.6,0.8-5.5,0.5
		c-1.8-0.3-3.5-0.6-5.3-0.9c0.1,0.9,0.2,1.6,0.3,2.4c0,0,0.1,0.1,0.3,0.1c1.5,0.6,3.1,1,4.5,1.8c1.1,0.6,2.1,1.5,3.2,2.3
		c-0.6,0.5-0.6,0.5-1.1,0.2c-0.6-0.5-1.1-1.3-1.8-1.6c-2.1-0.9-4.2-1.7-6.3-2.5c0.1,0.6,0.2,1.1,0.3,1.6c0,0.1,0.1,0.3,0.2,0.4
		c1.3,0.8,2.5,1.6,3.9,2.2c1.4,0.7,2.9,1.3,4.3,1.9c0.2,0.1,0.4,0.5,0.6,0.7c-0.3,0-0.7,0.1-0.9,0c-1.8-0.9-3.6-1.8-5.4-2.7
		c-0.2,0.5-0.4,1-0.6,1.4c0.4,0.3,0.8,0.6,1.2,1c1.1,0.9,2.2,1.5,3.7,1.6c0.9,0.1,1.9,0.5,2.8,0.8c0.2,0.1,0.3,0.3,0.4,0.4
		c-0.2,0.1-0.4,0.2-0.6,0.2c-0.4-0.1-0.8-0.3-1.1-0.4c-0.5-0.2-1-0.3-1.5-0.4c0,0.1,0,0.2-0.1,0.3c1,1,2.2,1.8,3.6,1.8
		c2,0.1,4,0.2,5.9,0.1c2.3-0.1,4.6-0.5,6.7-1.8c1.5-0.9,3.1-1.8,4.7-2.6c1.1-0.5,1.6-1.3,1.9-2.5c0.1-0.4,0.4-0.8,0.6-1.2
		c0.1,0,0.2,0.1,0.3,0.1C73.9,139.7,73.4,140.5,73.3,141.5z M32.8,52.2c-1.3,1.7-2.5,3.7-4.1,5.4c-1.6,1.7-2.3,4-4.3,5.4
		c-0.1-0.1-0.2-0.1-0.2-0.2c2.9-3.9,5.8-7.9,8.8-12c-1.3,0.2-2.2-0.1-2.9-1.4c-1.7,1.9-3.3,3.7-4.8,5.6c-1.4,1.9-2.6,3.9-4.6,5.2
		c-0.2,0.1-0.4,0.1-0.6,0.1c0.1-0.2,0.1-0.5,0.3-0.6c1.4-0.9,2.4-2,3.3-3.3c0.9-1.3,1.9-2.5,2.8-3.8c0.5-0.7,1-1.3,1.5-1.8
		c-0.7-0.6-1.4-1.1-1.9-1.5c-0.8,0.7-1.8,1.4-2.6,2.3c-1.7,1.7-3.3,3.6-5,5.4c-1,1-2.2,1.9-2.2,3.6c0,0.7-0.1,1.5,0,2.2
		c0.1,2.5,0.2,5,0.5,7.5c0.2,1.5,0.3,2.9-0.3,4.3c-0.5,1.4-1,2.9-1.4,4.3c-0.5,1.9-0.9,3.9-1.4,5.8c-0.8,2.9-1.5,5.8-2.6,8.6
		c-1.1,2.9-2.8,5.6-5.1,7.7c-0.9,0.8-1.7,1.6-2.6,2.4c-0.1,0.1-0.2,0.3-0.3,0.5c-1.3,3.8-2.1,7.8-2.2,11.8c0,0.6,0.1,1.4,0.5,1.8
		c1.6,2,2.9,4.1,3.7,6.5c0.8,2.2,2.4,3.9,4.4,5c1.1,0.6,2.3,0.7,3.4-0.1c1.6-1.3,3.2-2.6,4.7-4c1-1,1.8-2.2,2.7-3.2
		c1.6-1.7,2.4-3.8,3.3-5.9c0.1-0.3,0.2-0.7,0.2-1c0.3-2.2,0.6-4.3,0.8-6.5c0.4-3.5,0.6-7,1-10.5c0.2-1.7,0.5-3.3,0.5-5
		c-0.1-4.1,0.5-8.1,1.1-12.1c0.1-0.8,0-1.5,0-2.3c-0.9,0.3-1.6,0.6-2.4,0.9c-0.1,0-0.4-0.1-0.5-0.1c0.1-0.1,0.2-0.4,0.3-0.4
		c1.2-0.2,2.1-0.9,2.9-1.7c1.3-1.2,2.5-2.6,2.9-4.5c0.4-1.9,0.7-3.7,0.7-5.6c0-2.2,1.2-3.8,2.1-5.5c0.6-1.4,1.4-2.7,2.2-4.2
		c-0.4,0-0.7,0-0.9,0c-0.8-0.2-1.1,0.2-1.5,0.9c-1,1.7-2.3,3.3-3.3,5c-0.5,0.8-0.9,1.6-1.3,2.4c-0.1,0.2-0.2,0.4-0.4,0.6
		c-0.1,0-0.1,0-0.2-0.1c0-0.3-0.1-0.6,0-0.8c0.4-0.8,0.7-1.7,1.3-2.4c2.4-2.8,3.8-6.1,5.4-9.1C34,53,33.4,52.6,32.8,52.2z
		 M14.8,33.6c0.2,1.3,0.3,2.6,0.5,3.8c0.2,1.5,0.3,3,0.6,4.4c0.6,2.5,1.4,4.8,4.1,5.9c0.1,0,0.2,0.1,0.2,0.2c0.4,0.6,0.7,1.3,1,1.9
		c0.3,0.5,0.5,1.1,0.8,1.8c0.3-0.3,0.5-0.5,0.7-0.7c1.2-1,2.3-2.2,3.6-3.1c1.5-1.2,2.6-1,3.8,0.5c0.1-0.1,0.2-0.3,0.3-0.4
		c0.7-1,1.7-1.5,2.9-1.2c0.9,0.2,1.5,0.9,1.6,1.9c0,0.2,0.2,0.4,0.4,0.5c1.6,1.1,1.7,2.1,0.7,3.7c-0.1,0.2-0.2,0.6-0.1,0.8
		c0.7,1,0.7,2.1,0.4,3.2c-0.4,1-0.9,2-1.4,3c-0.1,0.2-0.1,0.5-0.1,0.7c0.2,0,0.5,0.1,0.7,0.1c1-0.2,2-0.4,3-0.7
		c3.3-1.1,5.9-3,7.5-6.2c0.3-0.6,0.5-1.2,0.8-1.8c0.5-1.4,1.1-2.8,1.5-4.2c0.3-0.9,0.2-1.9,0.4-2.8c0.3-1.1,0.3-2.1-0.5-3.1
		c-0.2-0.2-0.1-0.6-0.1-1.1c1.5,1,2.8,0.7,3.4-0.7c0.8-1.8,1.6-3.7,2.3-5.5c0.2-0.6,0.3-1.4,0.2-2c0-0.7-1-1.5-1.6-1.3
		c-1.1,0.4-1.9,1.1-2.6,2.3c0.5,0,0.9,0,1.3,0c0.6,0,1,0.4,1.1,1c0.2,1.6,0.1,3.1-1.1,4.3c-0.7,0.7-1,0.8-1.7,0.2
		c-0.3,0.1-0.5,0.2-0.9,0.3c0.6-1.1,1-1.2,1.8-0.5c1.2-1,1.8-2.7,1.3-4.1c-0.2-0.6-0.9-0.9-1.4-0.5c-0.4,0.3-0.8,0.7-1,1.2
		c-0.3,0.7-0.5,1.5-0.8,2.2c-0.1,0.2-0.5,0.4-0.7,0.6c-0.2-0.3-0.3-0.5-0.5-0.8c-0.1-0.2,0-0.4,0-0.6c-0.2-1.3-1.6-2.6-2.6-2.4
		c-3.1,0.6-5.8-0.4-8.2-2.3c-0.1-0.1-0.3-0.1-0.5-0.1c-2.5,0.3-5.1,0.6-7.4,1.6c-0.4,0.2-0.9,0.2-1-0.3c0-0.3,0.3-0.8,0.6-0.8
		c1.3-0.4,2.7-0.7,4.1-1c0.9-0.2,1.9-0.3,3-0.5c-0.9-0.8-1.6-1.5-2.3-2.2c-0.5-0.4-1-0.8-1.7-1c-1.4-0.5-2.8-1.1-4.1-1.9
		c-1.5-0.9-2.8-2.1-4.2-3.1c-0.7-0.5-1.5-1-2.3-1.5C19.9,20.3,19,19.6,18,19c-1.3-0.8-3.1-0.1-3.4,1.4c-0.3,1.6-0.6,3.2-0.6,4.8
		c0,1.7,0.4,3.5,0.6,5.2c0.1,0.7,0,1.4,0,1.9c1.8,0.1,3.4,0.1,5,0.4c0.8,0.1,1.7,0.6,2.4,1c0.6,0.4,1.1,1,1.2,1.8
		c0.4,2.7,0.2,5.4-0.4,8.1c-0.1,0.4-0.2,0.8-0.1,1.1c0.1,0.3,0.3,0.7,0.6,0.9c0.6,0.3,1.3,0.4,2,0.5c0.2,0,0.6-0.1,0.7-0.2
		c0.6-0.8,1.3-0.7,2.1-0.6c0.5,0.1,1.3-0.2,1.6-0.6c0.4-0.5,0-1-0.4-1.4c-0.2-0.2-0.3-0.4-0.5-0.6c0.7-0.1,1.4,0.4,1.7,1.2
		c0.3,0.8,0,1.5-0.8,1.8c-2,0.6-3.9,1.6-6.1,0.7c-1-0.4-1.5-0.8-1.3-2c0.2-1.4,0.5-2.7,0.6-4.1c0.1-1.4,0-2.8,0-4.5
		c-0.7,0.4-1.2,0.7-1.7,1c-1,0.7-2,0.8-3.1,0.5c-0.8-0.2-1.2-0.9-1-1.6c0.1,0.1,0.3,0.1,0.3,0.2c1,1,2.5,1,3.5,0.1
		c0.5-0.5,1-1.1,2-0.6c-0.4-1.1-1.1-1.4-1.9-1.3c-1.2,0.1-2.3,0.4-3.5,0.5c-0.2,0-0.5,0-0.7,0c0-0.1,0-0.2,0-0.2
		c0.6-0.2,1.2-0.4,1.9-0.6c0-0.1,0-0.2,0-0.3C17.3,33.6,16.1,33.6,14.8,33.6z M50.3,86.3c-2.6-0.8-3.3-3-3.9-5
		c-0.7-2.5-1.3-5.1-1.6-7.7c-0.2-1.5-0.2-3.3,0.4-4.6c0.9-2.3,2.3-4.3,3.5-6.5c0.8-1.4,1.3-2.9,1.1-4.5c-0.2-1.9-0.5-3.7-0.8-5.6
		c0-0.3-0.3-0.6-0.5-0.8c-0.2,0.3-0.4,0.5-0.6,0.8c-0.3,0.8-0.5,1.8-1,2.5c-2.5,3.3-5.6,5.8-9.9,6.4c-1.4,0.2-3.1,0.2-3.6,2.1
		c0,0,0,0-0.1,0.1c-0.9,0.6-1.1,1.4-1.1,2.4c0.1,3.1-0.9,6.2,0,9.3c0.7,2.2,0.9,4.5,1.5,6.8c0.9,3.8,3.5,6.5,6.5,8.9
		c0.7,0.6,1.6,0.8,2.5,0.2c0.4-0.3,0.9-0.4,1.4-0.5C46.6,89.8,48.3,88.1,50.3,86.3z M16.1,71.9c0-0.4,0-0.8-0.1-1.1
		c-0.1-0.7-0.4-1.4-0.4-2.2c-0.1-2.6-0.1-5.2-0.1-7.8c0-1.2,0.3-2.4,1.1-3.3c0.6-0.7,1.2-1.5,1.7-2.2c0.2-0.2,0.3-0.6,0.2-0.9
		c-0.2-0.6-0.5-1.2-0.9-1.9c-0.5,0.3-1,0.6-1.4,0.9c-2.3,2-3.4,4.7-4,7.6c-0.9,4.3-1.5,8.6-2.3,12.9c-0.1,0.7,0,1.2,0.6,1.5
		c0.8,0.4,1.6,0.9,2.4,1.2c2.1,0.8,1.7,0.8,2.4-1.3c0.5-1.6,0.4-2.6-1.1-3.7c-0.8-0.6-1.1-1.9-1.6-2.9c-0.1-0.1,0.1-0.4,0.2-0.6
		c0.2,0.1,0.4,0.3,0.5,0.4c0.1,0.1,0.1,0.3,0.2,0.5C14,70.3,14.7,71.3,16.1,71.9z M9.3,76.2c-0.5,8.4-2.1,16.7-5,24.8
		c0.2,0,0.3-0.1,0.4-0.2c2.4-2.2,4.3-4.8,5.4-7.8c1.4-3.9,2.4-7.9,3.5-11.8c0.2-0.8,0.5-1.6,0.6-2.4c0-0.2-0.2-0.7-0.4-0.8
		C12.4,77.4,10.9,76.8,9.3,76.2z M96.8,129.7c-1,0.5-1.8,0.9-2.6,1.3c-0.2,0.1-0.3,0.5-0.3,0.7c0.2,1.7,0.5,3.4,0.7,5.1
		c0.4,2.7,0.7,5.5,1,8.2c0.1,0.7,0.1,1.4,0.2,2c0.8,3.6,1.6,7.2,2.4,10.9c0.2,1,0.5,2,0.8,3c1.2-0.6,1.9-1.7,1.5-2.9
		c-0.3-0.9-0.4-1.8-0.7-2.8c-0.6-2.4-1.1-4.7-1-7.2c0.1-2.2,0-4.3-0.2-6.5c-0.3-2.9-0.7-5.7-1.2-8.5C97.4,132,97,130.9,96.8,129.7z
		 M89.3,114.8c0.1,0,0.2,0,0.3,0c0.2-0.2,0.4-0.4,0.5-0.7c0.9-1.5,2.2-2.6,3.7-3.6c0.8-0.5,1.6-1,2.2-1.6c1.2-1.1,1.2-1.1,0-2.2
		c-2.4-2.2-4.9-4.4-7.4-6.7c-0.1-0.1-0.3-0.2-0.4-0.3c-0.1,0-0.2,0-0.3,0.1C88.3,104.8,89.1,109.8,89.3,114.8z M83,95.3
		c1.2,7.5,1.5,15.1,3.2,22.4c0.5-0.4,1-0.9,1.5-1.3c0.1-0.1,0.3-0.3,0.3-0.4c0.1-0.6,0.2-1.3,0.1-1.9c-0.2-2.5-0.4-5.1-0.6-7.6
		c-0.2-2.4-0.4-4.7-0.6-7.1c0-0.4,0-0.8-0.2-1.1C85.8,97,84.4,96.1,83,95.3z M31.2,74.6c-1,1.2-1.6,2.3-0.9,3.8
		c0.2,0.5,0.2,1.2,0.4,1.7c0.3,1.4,0.4,2.8,1,4.1c1.2,2.7,2.6,5.3,5,7.2c1,0.8,2.1,1.5,3.1,2.2c1.3,1,2.7,1,4.1,0.3
		c3.3-1.6,6.3-3.7,8.9-6.3c0.3-0.3,0.5-0.8,0.8-1.2c-1.9,0.1-1.9,0.2-3,1.2c-1.5,1.3-2.9,2.8-4.8,3.5c-1,0.4-1.9,0.7-2.9,1.2
		c-0.9,0.4-1.7,0.4-2.4-0.2c-1.7-1.4-3.6-2.7-5-4.4c-1.2-1.4-2.3-3-2.7-4.9c-0.4-1.9-0.7-3.8-1.1-5.7C31.4,76.3,31.3,75.6,31.2,74.6
		z M91.3,69.7c0,0-0.1,0.1-0.2,0.2c-0.8,1.4-1.6,2.8-2.3,4.3c-1.3,2.5-2.9,4.7-5.2,6.4c-2,1.5-3.7,3.2-5.7,4.7
		c-1.4,1.1-1.5,1.1-0.4,2.5c0,0,0,0,0.1,0.1c0.2-0.1,0.4-0.2,0.5-0.3c1.9-1.3,3.8-2.6,5.5-4c1.7-1.4,3.2-3,4.7-4.6
		c0.7-0.6,1.4-1.2,1.9-2c1.1-1.8,2.1-3.7,3-5.6c0.3-0.5,0-1-0.5-1.2C92.4,70.1,91.9,69.9,91.3,69.7z M55.2,82.2
		c1.1-1.4,1.7-8.1,0.9-9.4C53.8,74.1,53.2,81,55.2,82.2z M33.1,47.1c-1.3,0.1-1.9,0.5-2.3,1.3c-0.2,0.4-0.4,1,0.1,1.3
		c0.4,0.3,1,0.6,1.3,0.5c0.6-0.2,1.2-0.6,1.7-1.1c0.2-0.2,0.3-0.8,0.1-1.1C33.8,47.6,33.3,47.3,33.1,47.1z M19.9,53.7
		c0.4-0.4,0.8-0.7,1-1.1c0.1-0.1,0.2-0.4,0.2-0.6c-0.4-1.1-0.9-2.2-1.4-3.2c-0.1-0.2-0.6-0.3-0.9-0.2c-0.2,0.1-0.5,0.5-0.5,0.7
		c0.3,1.2,0.7,2.4,1.1,3.5C19.6,53.2,19.7,53.4,19.9,53.7z M34.5,52.5c0.9,0,1.6-0.6,1.6-1.5c0-0.6-0.7-1.4-1.3-1.3
		c-0.6,0-1.3,1.1-1.3,1.9C33.5,52.4,33.9,52.6,34.5,52.5z M28.2,47.6c-1,0-1.5,0.5-1.5,1.4c0,0.5,0.9,1.2,1.4,1
		c0.6-0.2,1.2-0.7,1.5-1.2C29.8,48.3,28.9,47.6,28.2,47.6z M50.3,127.1c-0.9,0-1.9,0-2.8,0c-0.2,0-0.4,0.5-0.5,0.8
		c0,0.1,0.3,0.4,0.6,0.5C48.7,128.6,49.6,128.3,50.3,127.1z M42.8,134.8c0.1-0.2,0.4-0.3,0.4-0.5c0.1-0.6-0.5-1.2-1.4-1.1
		c-0.3,0-0.8,0.5-0.7,0.7C41.2,135,42.2,134.4,42.8,134.8z M34,56.2c1.4,0.3,2.1-0.2,1.8-1.3c-0.1-0.2-0.3-0.5-0.5-0.6
		c-0.1,0-0.4,0.2-0.5,0.4C34.5,55.1,34.3,55.6,34,56.2z M41.4,137.7c0.4-0.3,0.8-0.5,0.8-0.8c0.1-0.7-0.3-0.9-1-0.9
		c-0.6,0-1,0.2-0.9,0.7C40.4,137.1,40.9,137.3,41.4,137.7z M44.9,140c-0.5-0.5-0.8-0.9-1.2-1.1c-0.1-0.1-0.6,0.4-0.8,0.6
		c0.4,0.4,0.7,0.8,1.1,1.1C44.1,140.7,44.5,140.3,44.9,140z"/>
	<path class="st0" d="M36.2,34.8c-1.4-0.7-2.8-0.8-4.3-0.7c0.9-0.7,1.9-0.5,2.8-0.4c0.9,0.1,1.7,0.6,2.6,0.9
		c-0.5,1.4-1.7,1.2-2.5,1.8c0,0,0,0.1,0,0.1c-0.8,0-1.7,0.1-2.5,0c-0.9-0.2-1.7-0.6-2.6-0.9c0,0-0.1-0.2,0-0.3
		c0.1-0.1,0.2-0.2,0.3-0.2c0.2,0,0.4,0.1,0.5,0.2C32.6,36.3,34.3,35.8,36.2,34.8z"/>
</g>
</svg>
