<?xml version="1.0" encoding="utf-8"?>
<!-- Generator: Adobe Illustrator 19.2.1, SVG Export Plug-In . SVG Version: 6.00 Build 0)  -->
<svg version="1.1" id="Background_copy_2_xA0_Image_1_"
	 xmlns="http://www.w3.org/2000/svg" xmlns:xlink="http://www.w3.org/1999/xlink" x="0px" y="0px" viewBox="0 0 150 180"
	 style="enable-background:new 0 0 150 180;" xml:space="preserve">
<style type="text/css">
	.st0{fill:#388E3C;}
</style>
<g id="icon-nausea">
	<path class="st0" d="M105,73.8c0.3,1.2,0.6,2.3,0.8,3.5c0.4,2.2,0.9,4.3,0.9,6.5c0.1,3.6-1.5,6.5-4.3,8.7c-0.9,0.7-1.8,1.4-2.8,2.1
		c-0.6,0.5-1.3,0.9-2.1,1.5c0.5-1.3,0.8-2.4,1.2-3.5c0.5-1.3,1-2.5,1.4-3.8c0.1-0.3-0.1-0.9-0.3-0.9c-0.3-0.1-0.8,0-1,0.2
		c-1.4,1.7-3.5,2.2-5.3,2.9c-1.9,0.7-4,0.9-6,1.3c-0.2,0-0.4,0-0.5,0.1c-1.3,0.3-2.6,0.3-3.9-0.2c-0.3-0.1-0.8-0.1-0.9,0
		c-0.2,0.2-0.2,0.6-0.1,0.9c0.2,1.1,0.5,2.2,0.7,3.3c0.2,1-0.2,1.4-1.1,1c-1.3-0.4-2.8-0.8-3.8-1.7C75.6,94,73.6,92,71.5,90
		c-0.6-0.6-1-1.6-1.4-2.5c-1.6-3.4-3.2-6.9-4.9-10.3c-0.9-1.9-1.3-3.8-1.7-5.8c-0.1-0.5-0.2-0.9-0.3-1.4c-0.3-1.4-0.7-2.8-0.9-4.1
		c-0.2-1.1-0.4-1.4-1.5-1.1c-1.3,0.3-2.5,0.7-3.8,0.8c-1.9,0.2-3.9,0.3-5.8,0.3c-2.1,0-4.1-0.5-6.2,0.1c-3.5,1-7,1.9-9.7,4.5
		c-1.1,1-2,2.3-3.1,3.3c-1.4,1.5-2.3,3.3-3.3,4.9c-1.1,1.8-2.5,3.4-3.8,5c-0.7,0.8-0.5,1.7,0.3,2.3c1.8,1.5,3.8,2.6,5.4,4.5
		c2,2.4,4.4,4.6,6.7,6.9c1.1,1.1,2,2.3,3.1,3.5c0.3,0.3,0.8,0.5,1.2,0.7c0.5,0.2,0.8-0.1,1-0.6c0.5-1.7,0.9-3.5,1.5-5.2
		c0.7-2.1,0.9-4.2,1-6.3c0.2-3.6,0.5-7.2,0.4-10.8c-0.1-2.4-0.8-4.9-1.3-7.3c-0.1-0.5-0.2-1-0.3-1.6c0-0.2,0.2-0.6,0.4-0.7
		c0.2,0,0.7,0.1,0.8,0.3c0.2,0.5,0.3,1,0.4,1.5c0.5,2.3,1.1,4.6,1.4,6.9c0.2,1.9,0.2,3.8,0.1,5.8c-0.1,2.9-0.2,5.8-0.7,8.6
		c-0.4,2.6-1.2,5.1-2,7.5c-0.5,1.8-1.1,3.6-1.9,5.3c-0.5,1.2-1.4,2.3-2.1,3.4c-0.5-0.2-0.9-0.3-1.3-0.5c-0.4,1.9-1,3.7-0.3,5.7
		c0.3,1,0.4,2.2,0.5,3.3c0.1,1.9,0.2,3.8,0.4,5.7c0.1,0.6,0.5,1.2,0.8,1.7c1.6,2.1,3.4,3.9,5.4,5.6c0.7,0.6,1.6,1,2.3,1.5
		c0.3,0.2,0.7,0.8,0.6,1.1c-0.2,0.5-0.7,0.4-1.1,0.2c-1.5-0.8-2.8-1.6-3.9-2.9c-0.7-0.9-1.6-1.6-2.4-2.4c-0.5-0.5-0.8-1.1-1.2-1.6
		c0,1.5,0,3,0,4.5c0.1,3.2,0.3,6.4-0.3,9.5c-0.3,1.5-0.2,1.6,1.4,1.9c2.7,0.6,5.4,1.2,8.2,1.7c2.2,0.4,4.4,0.5,6.6,0.8
		c1.2,0.1,2.5,0.3,3.7,0.5c2.4,0.4,4.6-0.2,6.6-1.5c1.4-0.9,2.8-1.7,4.3-2.4c0.8-0.4,1.8-0.6,2.7-0.7c1.1-0.2,2.2-0.3,3.3-0.3
		c1,0,2,0.3,3,0.1c1.3-0.3,2.1,0.8,3.1,1c2,0.5,4.1,0.8,6.1,1.2c1.5,0.3,3,0.5,4.4,0.9c1.4,0.4,1.8,2.4,0.8,3.5
		c-0.4,0.5-1.1,0.8-1.6,1.2c-0.2,0.2-0.4,0.4-0.6,0.5c0.2,0.1,0.5,0.1,0.7,0.2c1.1,0.3,2.2,0.6,3.2,0.9c0.6,0.2,1.3,0.3,1.9,0.6
		c2.3,1,4.7,2,7,3.1c1.5,0.7,1.9,2.4,1,3.7c-0.1,0.2-0.1,0.7,0.1,0.9c1.2,1.4,0.8,3.5-0.9,4.2c-0.5,0.2-1,0.4-1.6,0.5
		c-0.5,0.1-0.7,0.3-0.7,0.8c0,0.3,0,0.7-0.1,1c-0.2,1.2-0.9,1.9-2,2c-2.6,0.3-5.2,0.7-7.8,0.3c-0.2,0-0.5,0.2-0.8,0.3
		c0.2,0.2,0.4,0.4,0.6,0.6c0.6,0.5,1.3,0.9,1.8,1.5c0.9,1.1,0.4,2.4-0.8,3c-1.7,0.8-3.4,0.5-5.1,0.1c-2.2-0.5-4.3-1.3-6.5-1.9
		c-2.1-0.6-4.2-1.1-6.3-1.8c-0.6-0.2-1.1-0.6-1.7-0.8c-1.4-0.7-2.8-1.3-4.2-2.1c-0.9-0.5-1.8-1.2-2.7-1.7c-1.2-0.6-2.4-1.2-3.6-1.6
		c-4.3-1.5-8.8-2.5-13.3-3.2c-3-0.5-6-0.8-9-1.2c-0.8-0.1-1.6-0.2-2.4-0.3c-0.3,1.8-0.5,3.6-0.8,5.3c-0.7,3.9-1.3,7.8-2,11.7
		c-0.2,1.4-0.5,2.8-0.8,4.2c-0.2,1.3-0.2,1.3-1.6,1.2c1.6-7.4,3.2-14.8,3.9-22.3c-2.6-1.2-5.3-1.1-7.9-1.6c-2.8-0.5-5.6-0.9-8.4-1.5
		c-1-0.2-2.1-0.6-3.1-0.8c-1.6-0.3-3.2-0.4-4.7-0.7c-1.8-0.4-3.6-0.9-5.4-1.4c-0.5-0.1-1.1-0.2-1.6-0.4c-1.6-0.3-3.1-1-4-2.4
		c-1.3-1.7-1.9-3.7-1.9-5.9c0-2.8,0.8-5.3,1.3-8c0.7-3.7,2.5-7,4.2-10.3c1.7-3.4,3.5-6.7,5.1-10.2c1.5-3.2,3.7-6,5.5-8.9
		c1.6-2.6,3.2-5.3,4.6-8c1.1-2.1,2.2-4.2,3.3-6.3c0.3-0.6-0.1-0.8-0.4-1.1c-0.9-0.6-1.8-1.2-2.6-1.9c-0.7-0.6-0.7-1.4-0.1-2.1
		c1.8-2.1,3.7-4.1,5.4-6.3c1.3-1.8,2.3-3.8,3.6-5.6c2.2-2.8,4.4-5.6,7.8-7.2c1.2-0.6,2.3-1.1,3.5-1.4c1.7-0.4,3.5-0.9,5.2-1.4
		c0.3-0.1,0.6-0.1,0.9-0.1c2.6,0,5.1,0,7.7,0c1.6,0,3.2-0.2,4.8-0.7c0.6-0.2,1.3-0.3,2-0.5c-0.3-1.8-0.6-3.6-0.9-5.4
		c-0.2-1-0.2-1.9-0.4-2.9c-0.7-3.1-0.4-6.2,0.2-9.3c0.2-1.1,0.5-2.3,0.4-3.4c-0.1-2.6,0.4-5.2,0.9-7.7c0.5-2.8,1-5.6,1.6-8.3
		c0.2-0.8,0.5-1.6,0.8-2.3c1.6-3.1,3.1-6.2,4.9-9.2c1.6-2.7,3.2-5.5,5.7-7.5c3.1-2.4,6.2-4.8,10.1-5.7c2.2-0.5,4.4-1,6.7-1.3
		C94,0,96.2-0.1,98.5,0.1c1,0.1,2,0.6,3,0.9c0.4,0.1,0.8,0.3,1.2,0.5c1.3,0.5,2.5,1.2,3.4,2.3c0.8,1,1.8,1.7,2.7,2.5
		c4.1,3.3,6.5,7.7,7.5,12.8c0.3,1.6,0.2,3.3,0.3,4.9c0.1,2.3-0.2,4.4-1.2,6.5c-0.2,0.4-0.1,1-0.1,1.6c-0.1,2.1-0.1,4.1-0.3,6.2
		c-0.1,1.9-0.3,3.9-0.4,5.8c0,0.4,0.1,0.9,0.3,1.2c1,1.2,0.7,2.6,0.6,4c-0.3,2.6-0.6,5.2-0.9,7.9c-0.1,0.6,0.1,1.3,0.3,1.9
		c0.6,1.7,1.2,3.4,2,4.9c0.6,1.1,1.6,1.9,2.3,3c1,1.4,2.5,2.5,3.6,3.8c0.7,0.8,1.2,1.8,1.7,2.7c1.4,2.8,3.1,5.4,4.9,7.9
		c0.3,0.5,0.6,1,0.9,1.5c1.7,3.2,3.6,6.1,6,8.8c1,1.1,1.8,2.4,2.6,3.6c1.5,2.2,3,4.4,4.5,6.6c1.2,1.9,2.1,3.9,2.6,6.1
		c0.5,1.9,1.3,3.6,1.8,5.5c0.7,2.2,1.4,4.5,1.8,6.8c0.2,1.1-0.1,2.3-0.2,3.5c-0.7,4.1-3.2,6.6-7,7.9c-0.9,0.3-2,0.1-2.9,0
		c-1.9-0.1-3.8-0.6-5.2-1.9c-1.2-1.1-2.3-2.3-3.3-3.6c-2.1-2.9-4.1-5.8-6.1-8.8c-0.9-1.4-1.5-2.9-2.4-4.3c-1.2-1.9-2.5-3.8-3.7-5.6
		c-1-1.5-1.9-3-2.9-4.6c-0.5,1.8-1,3.5-1.4,5.4c-0.5,2.4-1,4.8-1.5,7.3c-0.3,1.4-0.5,2.8-0.6,4.3c-0.2,2.3-0.4,4.5-0.5,6.8
		c0,1.7-0.2,3.4-0.5,5.1c-0.3,1.6-0.4,3.2-0.6,4.7c-0.2,2-0.5,4-0.6,5.9c-0.2,2.1-0.4,4.3-0.4,6.4c-0.1,3.2,0.1,6.4,0,9.6
		c-0.1,3.5-0.5,6.9-0.6,10.4c0,2.4,0.2,4.8,0.4,7.2c0.1,1.3,0.2,2.7,0.4,4c-0.4,0-0.8,0-1.3,0c-0.1-1-0.2-2-0.3-3
		c-0.2-2.2-0.4-4.5-0.4-6.7c0.1-3.2,0.4-6.4,0.6-9.6c0.1-2,0-4,0-6c0.1-3.8,0.1-7.6,0.2-11.5c0-1.1,0.4-2.1,0.5-3.2
		c0.2-1.4,0.3-2.9,0.5-4.3c0.1-1,0.2-1.9,0.3-2.9c-0.8,0.6-1.5,1.3-2.2,1.7c-2.9,1.7-5.8,3.3-8.8,4.9c-0.4,0.2-1,0.6-1.4-0.1
		c-0.4-0.6-0.1-1.2,0.6-1.5c3.1-1.6,6.2-3.2,9.3-4.8c0.7-0.4,1.2-1.1,1.7-1.7c1.2-1.3,1.6-2.9,1.4-4.7c-0.1-1.3-0.2-2.7-0.1-4
		c0.1-1.2,0.4-2.4,0.6-3.6c0.5-3,1-5.9,1.5-8.9c0.6-3.7,1.2-7.4,1.8-11c0.2-1.3,0.7-2.3,1.5-3.3c0.1-0.2,0.2-0.5,0.1-0.7
		c-0.9-2-1.9-4-2.9-6.1c-0.9-1.9-1.8-3.8-2.7-5.7c-0.9-1.9-1.8-3.9-3.2-5.5c-0.3-0.3-0.3-0.8-0.5-1.1c-0.6-1-1.3-1.9-1.9-2.9
		C105.2,73.7,105.1,73.8,105,73.8z M25.2,92c-0.2,0.3-0.3,0.5-0.4,0.7c-1,2-2,4-3.1,5.9c-1.2,2.3-2.5,4.6-3.9,6.8
		c-2,3.3-4.6,6.3-6.2,9.9c-0.8,1.7-1.8,3.4-2.7,5.1c-1,2-1.8,4.1-2.9,6c-1.5,2.8-2.9,5.6-3.5,8.8c-0.2,1.3-0.9,2.6-1.1,3.9
		c-0.2,2.1-0.2,4.2-0.2,6.3c0,0.2,0.1,0.4,0.2,0.5c0.8,1.6,1.5,3.3,3.4,3.9c0.6,0.2,1.3,0.3,2,0.5c0.3,0.1,0.6,0.1,0.8,0.2
		c1.4,0.4,2.8,0.9,4.2,1.2c2.4,0.5,4.9,0.7,7.3,1.1c0.7,0.1,1.4,0.4,2.1,0.5c2,0.4,4.1,0.7,6.2,1c2.8,0.4,5.7,0.8,8.5,1.2
		c0.6,0.1,1.3,0.1,1.9,0.2c0.4,0.1,0.7,0.4,1.1,0.5c0.7,0.1,1.4,0.1,2.1,0.2c2.7,0.3,5.4,0.6,8.1,1c1.7,0.2,3.5,0.5,5.2,0.9
		c3,0.8,6.1,1.7,9.1,2.6c1.3,0.4,2.5,0.9,3.7,1.6c1.6,0.9,3,2,4.6,2.8c1.8,0.9,3.6,1.7,5.5,2.3c2.4,0.8,4.9,1.4,7.4,2.1
		c1.6,0.4,3.1,0.8,4.6,1.2c0.4-1.1,0.8-2,1.2-3c-0.5-0.2-1-0.5-1.6-0.8c-1.4-0.5-2.7-1-4.1-1.5c-0.8-0.3-1.6-0.5-2.4-0.8
		c-0.4-0.2-0.8-0.4-1.2-0.5c0.6-1,1.3-0.9,2-0.7c1.3,0.4,2.6,1,4,1.3c3,0.7,6.1,0.4,9.1,0.4c0.5,0,0.9-0.1,1.3-0.1
		c-0.1-1-0.1-1.9-0.2-2.9c-1.3-0.2-2.7-0.4-4.1-0.6c-1.6-0.2-3.3-0.4-4.9-0.6c-1.2-0.2-2.3-0.4-3.4-0.6c-0.2,0-0.4-0.3-0.4-0.4
		c0.1-0.3,0.2-0.7,0.4-0.8c0.4-0.2,0.8-0.1,1.2-0.1c0.4,0,0.7,0.3,1.1,0.3c3.2,0.5,6.4,0.9,9.7,1.3c1.4,0.2,2.8,0,4.1,0
		c0-0.9,0.1-1.9,0.1-3c-2.5-0.5-5-0.9-7.6-1.4c-1.6-0.3-3.2-0.4-4.8-0.7c-1.4-0.2-2.7-0.4-4.1-0.6c-0.2,0-0.4-0.4-0.6-0.6
		c0.3-0.2,0.5-0.6,0.8-0.6c0.6,0,1.3,0,1.9,0.1c3.6,0.6,7.2,1.2,10.7,1.8c1.1,0.2,2.1,0.3,3.1,0.4c0.2-1,0.4-2,0.6-2.9
		c-1.5-0.6-2.9-1.3-4.5-1.8c-3.2-1-6.5-1.9-9.7-2.9c-1.5-0.5-3.1-0.8-4.6-1.5c-1.1-0.5-2.2-0.9-3.3-1.1c-0.3-0.1-0.5-0.5-0.8-0.7
		c0.3-0.2,0.6-0.5,0.9-0.5c1.2,0.1,2.4,0.3,3.4,1c2.2,1.4,4.7,1.2,7.1,1.1c0.2,0,0.4-0.1,0.7-0.2c-2.3-1.3-2.1-1.8-2.9-3.4
		c-0.7-0.1-1.5-0.1-2.2-0.3c-1.8-0.5-3.6-1.2-5.3-1.8c-0.5-0.2-1-0.3-1.5-0.3c-1.5,0.1-3.1,0.5-4.6,0.5c-3.2,0.2-5.9,1.5-8.3,3.5
		c-0.3,0.3-0.7,0.5-1.1,0.6c-2.4,0.5-4.8,0.5-7.3,0.1c-2.1-0.3-4.2-0.9-6.4-0.9c-3.4-0.1-6.7-0.9-9.9-1.9
		c-5.4-1.6-10.7-3.7-16.1-5.4c-2-0.6-3.8-1.8-6-1.9c-1.8-0.1-3.6,0-5.4,0c-0.5,0-1.1,0.2-1.2-0.5c-0.1-0.7,0.5-0.8,1-0.8
		c2,0,4.1,0,6.1,0.2c1.4,0.1,1.7,0,2.4-1.2c1.1-1.9,2.3-3.8,3.5-5.7c0.8-1.2,1.9-2.3,2.4-3.6c1.2-3.2,3-5.9,4.8-8.7
		c1.1-1.6,2.2-3.2,3-5.1c0.6-1.4,1.5-2.7,2.2-4.1c0.1-0.2,0.1-0.8-0.1-0.9c-1.3-1.4-2.7-2.6-4.1-4c-1.9-1.9-3.8-3.7-5.7-5.6
		C27,94.7,26.2,93.4,25.2,92z M93.5,47.5c-2.3-1.5-4.5-2.9-6.5-4.2c-0.8,0.8-1.4,1.5-2.1,2.3c0.3,0.3,0.7,0.6,1.1,0.9
		c1.2,0.7,2.5,1.3,3.7,2c0.8,0.5,1.5,1.3,2.2,2c0.7,0.6,1.3,1.3,2.1,1.8c1.1,0.7,2.4,1.3,3.5,1.9c0.8,0.5,1.5,1,2.2,1.6
		c0.1,0.1,0.1,0.5,0.1,0.8c-0.2,0-0.5,0-0.7-0.1c-0.3-0.2-0.6-0.5-0.9-0.7c-1.5-0.8-3-1.6-4.5-2.5c-0.3-0.2-0.5-0.4-0.9,0
		c-0.1,0.1-0.4,0.1-0.6,0c-0.1,0,0-0.4,0-0.5c0-0.1,0.1-0.3,0.2-0.4c-1-1.1-1.8-2.2-2.7-2.8c-0.6,0.7-1,1.3-1.6,1.9
		c1.2,1.3,2.9,3.1,4.6,4.9c1.1,1.1,2.3,2.2,3.5,3.3c0.7,0.7,1.4,1.4,2,2.3c0.7,1,1.2,2.1,1.8,3.1c0.6,0.9,1.2,1.7,1.9,2.5
		c0.4,0.5,1,0.9,1.4,1.4c1.4,1.8,2.7,3.7,4.1,5.5c1.1,1.5,1.8,3.4,3.2,4.8c0.6,0.5,0.9,1.3,1.2,2.1c0.9,2.6,2.1,5,3.5,7.5
		c0.8,1.5,1.4,3.2,2.1,4.8c0.2,0.5,0.4,1.1,0.6,1.7c0.8,2,1.6,4,2.5,6c0.7,1.8,1.2,3.6,2.4,5.2c0.3,0.4,0.5,1,0.7,1.6
		c0.2,0.6,0.3,1.3,0.6,1.9c0.6,1.7,1.5,3.4,1.9,5.1c0.3,1.3,0.8,2.5,1.6,3.5c0.1,0.1,0.2,0.3,0.3,0.5c1.9,2.6,3.7,5.2,5.6,7.8
		c2,2.6,4.8,3.6,7.9,3.7c2.6,0.1,5.5-2.5,6.6-5c0.4-1,0.7-2.2,0.8-3.3c0.1-1.1-0.1-2.2-0.3-3.2c-0.5-2.1-1.2-4.3-1.8-6.4
		c-0.5-1.6-0.9-3.2-1.5-4.7c-0.7-1.8-1.4-3.7-2.4-5.4c-1.1-1.9-2.5-3.6-3.8-5.4c-1.1-1.6-2.2-3.4-3.4-4.9c-1.8-2.2-3.7-4.4-5.1-7
		c-0.6-1.2-1.2-2.3-2-3.4c-1.8-2.6-3.5-5.2-4.9-8c-0.6-1.1-1.3-2.2-2.3-3.1c-1.3-1.2-2.4-2.6-3.6-4c-0.2-0.2-0.3-0.4-0.5-0.6
		c-1.5-2.1-2-4.6-3.1-6.9c-0.3-0.7-0.4-1.5-0.4-2.3c0.2-2.5,0.6-4.9,0.8-7.4c0.1-1,0.3-2.1,0-3c-0.3-1.1-0.8-2.2-1.5-3.2
		c-1-1.6-2.2-3.1-3.3-4.6c-0.8,0.3-1.4,0.6-2,0.9c0.1,0.4,0.2,0.8,0.4,1.2c0.1,0.3,0.3,0.6,0.5,0.7c1.5,0.6,2.4,1.9,3.5,2.9
		c0.2,0.2,0.1,0.6,0.1,0.9c-0.3-0.1-0.6-0.1-0.8-0.3c-1.2-1-2.1-2.3-3.7-2.9c-0.8-0.3-1.5-0.7-2.3-1c-1.1-0.4-2.2-0.9-3.4-1.2
		c-0.8-0.2-1.6-0.3-2.1,0.7c0,0.1-0.1,0.2-0.1,0.2c-0.2,0.1-0.4,0.1-0.6,0.1c0-0.2-0.1-0.4,0-0.6c0.1-0.2,0.2-0.4,0.4-0.8
		c-2.5-0.7-5-1.3-7.3-2c-0.3,0.8-0.6,1.7-1,2.6c0.1,0,0.3,0.1,0.5,0.2c1.7,0.7,3.4,1.4,5.1,2.1c0.6,0.3,1.1,0.7,1.8,0.9
		c1.5,0.6,3.1,1.1,4.6,1.7c1.1,0.4,2.1,0.9,3.1,1.4c0.3,0.1,0.5,0.4,0.7,0.6c-0.3,0.1-0.7,0.3-0.9,0.2c-0.7-0.2-1.3-0.7-2.1-0.9
		c-2.3-0.8-4.5-1.6-6.6-2.4c-0.5,0.3-0.8,0.5-1.2,0.7c0-0.4-0.1-0.9-0.1-1.4c-2.4-1-4.9-2.1-7.3-3.1c-0.4,0.6-0.9,1.4-1.4,2.2
		c1.2,0.8,2.4,1.6,3.6,2.3c0.9,0.6,1.9,1.3,2.9,1.6c2.8,0.8,5.3,2.2,7.7,3.9c0.2,0.2,0.5,0.3,0.6,0.5c0.1,0.2,0.1,0.5,0.1,0.7
		c-0.3,0-0.6,0.1-0.8,0c-0.4-0.2-0.8-0.5-1.2-0.8c-1.2-0.7-2.4-1.4-3.6-2.1c-0.5-0.3-1-0.5-1.5-0.7c-0.4-0.2-0.8-0.3-1.2,0.2
		c-0.1,0.1-0.3,0.1-0.5,0.2c-0.1-0.2-0.2-0.4-0.2-0.6C93.5,47.5,93.6,47.4,93.5,47.5z M88.1,26.3c0,0.1,0,0.2,0,0.3
		c0.3,0,0.6,0,0.9,0c2.3-0.1,4.6-0.5,6.8,0.3c1.1,0.4,2.1,0.8,3.2,1.3c0.2,0.1,0.3,0.5,0.4,0.8c-0.3,0.1-0.6,0.1-0.9,0.2
		c-0.1,0-0.2-0.1-0.3-0.2c-1.8-1-3.7-1.7-5.9-1.7c-1.3,0-2.7,0.1-4,0.1c-0.6,0-1.2,0-1.5-0.7c-1.4,0.6-2.8,1.2-4.2,1.8
		c-1.5,0.6-3,1.3-4.2,2.5c-0.5,0.5-0.8,1.1-1.2,1.6c-0.6,0.7-1.3,0.7-1.9,0c-0.1-0.2-0.3-0.3-0.4-0.5c-0.4-0.7-1-1-1.9-0.7
		c0.6,0.7,1.1,1.5,1.8,2c0.6,0.5,0.7,0.9,0.4,1.5c-0.2,0.4-0.5,0.9-0.6,1.4c-0.2,1.1-0.4,2.3,0.8,3c0.2,0.1,0.4,0.4,0.5,0.6
		c0.3,0.7,0.4,1.4,0.7,2.1c0.9,2.5,1.8,5,2.9,7.5c0.4,1,1.1,2,1.8,2.7c1.3,1.2,2.7,2.1,4.1,3.1c1.2,0.9,2.5,1.6,3.6,2.5
		c1.2,0.9,2.5,1.5,3.9,1.9c0.6,0.2,1.2,0.1,1.9,0.1c-0.8-0.9-1.5-1.6-2.1-2.4c-2-2.1-4-4.2-5.9-6.5c-1-1.2-2.1-2.4-1.8-4.2
		c0-0.1-0.2-0.4-0.3-0.5c-0.8-0.8-1.6-1.7-2.4-2.5c-1-1.1-0.8-2.6,0.5-3.4c0.2-0.1,0.4-0.3,0.4-0.5c0.3-1.4,1.6-2.4,3-2.3
		c0.4,0,0.8,0.2,1.2,0.3c0-0.2,0-0.5,0.1-0.7c0.1-0.7,0.6-1.3,1.3-1.2c1.5,0,3,0.2,4.5,0.7c2.2,0.7,4.5,1.2,6.8,1.9
		c1.8,0.5,3.6,0.9,5.4,1.5c0.6,0.2,1.1,0.5,1.7,0.8c0.1-0.1,0.1-0.1,0.2-0.2c-0.4-0.8-0.9-1.5-1.3-2.3c-0.3-0.7-0.6-1.5-0.8-2.3
		c-0.1-0.4-0.2-0.9-0.2-1.3c0-0.4-0.1-0.8-0.1-1.2c0-1.5,1-2.5,1.8-3.6c0.5-0.7,1.1-1.2,2-1.2c1.1-0.1,2.1-0.2,3.2-0.3
		c0.4,0,0.9,0,1.4,0c-0.1-0.7-0.1-1.2-0.2-1.8c-0.2-2.1-0.4-4.2-1.2-6.1c-0.6-1.4-1.1-2.9-2.4-3.9c-1.6-1.3-2.4-3.1-2.8-5
		c-0.3-1.2-0.7-2.3-1.1-3.4c-0.2-0.6-0.6-0.9-1.2-0.7c-0.6,0.1-0.8,0.5-0.8,1.1c0,0.2,0,0.5,0.1,0.7c0.3,0.8,0.6,1.7,0.8,2.5
		c0.7,2.5,0.6,3.6-1.3,5.1c-1.4,1.2-3,2.3-4.4,3.5c-1.8,1.5-3.8,2.9-6,3.9C91.3,25.1,89.7,25.7,88.1,26.3z M76,43.7
		c-0.1,0-0.2,0-0.3,0.1c0,0.6,0.1,1.2,0.1,1.8c0.1,2,0.1,4.1,0.2,6.1c0,0.3,0.1,0.6,0.1,0.9c0.3,1.6,0.7,3.2,1,4.8
		c0.4,2.6,0.8,5.2,0.9,7.8c0.2,3.2-0.1,6.4,0.1,9.6c0.1,3.8,0.7,7.5,1.5,11.2c0.1,0.3,0.4,0.6,0.6,0.8c1.5,0.9,3.3,1.3,5,1.5
		c1.8,0.2,3.5-0.2,5.2-1c2.6-1.1,4.8-2.7,7-4.3c0.1-0.1,0.2-0.4,0.2-0.6c0-0.3-0.2-0.6-0.3-1c-0.4-1.5-1.1-2.9-1.3-4.4
		c-0.3-1.6-0.1-3.3-0.2-5c-0.1-2.3,0.5-4.4,1.6-6.3c0.4-0.7,0.6-1.4,0.1-2.2c-0.3-0.6-0.7-1.1-1-1.7C96.4,61,96,60.9,95.4,61
		c-2.2,0.2-4.3-0.3-6.2-1.5c-2-1.4-4.1-2.8-6.1-4.3c-1.4-1.1-3-2-3.8-3.7c-0.6-1.2-1.1-2.4-1.6-3.6C77.1,46.5,76.5,45.1,76,43.7z
		 M22.4,135.6c5.3,1.8,10.6,3.7,15.9,5.6c0.2-1.2,0.5-2.3,0.5-3.4c0-3.8-0.1-7.5-0.1-11.3c0-0.1,0-0.3,0-0.4
		c-0.2-1.7-0.4-3.5-0.6-5.2c-0.2-2.2-0.3-4.4-0.5-6.7c-0.1-1-0.4-1.9-0.6-2.8c-1,1.5-1.9,3-2.9,4.5c-1.6,2.4-3.2,4.7-4.3,7.3
		c-0.6,1.4-1.1,2.8-2.1,3.9C25.4,129.7,23.8,132.5,22.4,135.6z M23.3,85.6c-0.4,0.5-0.8,1-1.3,1.4c-0.5,0.5-0.3,0.7,0.2,1
		c0.8,0.5,1.7,1,2.4,1.6c0.6,0.4,1.2,0.9,1.5,1.5c1.3,2,2.8,4,4.5,5.7c1.7,1.6,3.4,3.2,5.1,4.8c0.8,0.8,1.7,1.5,2.5,2.3
		c0.4,0.4,0.8,0.8,1.3,0.4c0.6-0.4,0.4-0.9,0.1-1.4c-1-1.4-2.1-2.7-3.2-4c-1.6-1.8-3.2-3.5-4.8-5.3c-1.2-1.3-2.4-2.6-3.7-3.7
		C26.4,88.5,24.5,87.5,23.3,85.6z M80.7,88.3c-0.2,1,0.2,1.9,0.8,2.1c2,0.6,4.1,0.7,6.2,0.5c1.6-0.2,3.1-0.7,4.6-1.1
		c2.7-0.7,5.3-1.5,7.1-3.9c-0.1-0.3-0.3-0.7-0.5-1.1c-0.4-0.9-0.8-1-1.6-0.4c-1.9,1.4-3.8,2.7-5.9,3.7c-2.8,1.3-5.6,1.6-8.6,0.8
		C82.2,88.7,81.4,88.5,80.7,88.3z M105.9,33.3c1,0.3,1.7,0.5,2.4,0.8c1,0.3,2,0.7,2.9,1.1c0.8,0.3,1.8-0.2,1.9-1
		c0.2-1.2,0.2-2.5,0.4-3.8c0.1-0.5-0.2-0.8-0.7-0.8c-1,0.1-2,0.2-3,0.2c-1.3,0.1-2.4,0.6-3,1.8C106.6,32.2,106.2,32.8,105.9,33.3z
		 M72.3,32.7c-0.2,0.4-0.3,0.6-0.4,0.9c-0.3,1.2-0.7,2.4-0.9,3.7c-0.2,1.1-0.3,2.2-0.3,3.3c0,1,0.7,1.5,1.5,1.8
		c0.7,0.2,1.5,0.3,2.2,0.4c0.3,0,0.8-0.3,0.9-0.6c0.2-0.7-0.6-2.1-1.3-2.3c-0.6-0.2-1.3-0.4-1.9-0.7c-0.3-0.1-0.5-0.5-0.6-0.8
		c0-0.2,0.3-0.6,0.4-0.6c0.3,0.1,0.6,0.3,0.8,0.4c0.2,0.1,0.3,0.1,0.5,0.2c0-0.2,0.1-0.3,0.1-0.5c0.1-1,0.1-2,0.2-2.9
		c0-0.2,0.1-0.4,0-0.5C73.3,33.9,72.9,33.4,72.3,32.7z M122.5,110.2c0.1-0.1,0.2-0.1,0.3-0.2c-0.6-1.3-1.2-2.6-1.8-3.9
		c-0.3-0.5-0.6-1.1-0.8-1.6c-1-2.3-1.9-4.6-2.9-6.9c-0.1,0-0.1,0-0.2,0c-0.1,0.9-0.3,1.9-0.4,2.8c0,0.5,0.4,0.9,0.6,1.4
		c1.1,3,3.2,5.4,4.9,8C122.3,110,122.4,110.1,122.5,110.2z M113,36.2c-1.6,0.4-3-0.1-4.5-0.5c1.4,1.8,2.9,3.7,4.3,5.5
		c0.1,0,0.1,0,0.2-0.1C113,39.5,113,37.8,113,36.2z M85.8,38.6c-0.5,0.3-1.1,0.7-1.5,1.1C84,40,84,40.5,84.5,40.8
		c0.6,0.3,1.2,0.6,1.7,0.9c0.1,0.1,0.3,0.1,0.4,0c0.6-0.1,1.5-1.4,1.3-2c0-0.1-0.1-0.3-0.2-0.4C87.1,39.1,86.6,38.9,85.8,38.6z
		 M86.1,42.8c-0.8-0.4-1.5-0.9-2.2-1.2c-0.5-0.2-0.9-0.1-1.2,0.4c-0.4,0.8,0.6,2.6,1.5,2.5C85.2,44.5,85.6,43.6,86.1,42.8z
		 M106.2,35.3c-0.4,1.5,0,2.7,1.3,3.2c0.3,0.1,0.8,0,1.1-0.1c0.1,0,0.3-0.4,0.2-0.6C108.2,36.7,107.4,35.8,106.2,35.3z M91.3,37.9
		c0.1-0.5-0.2-0.7-0.7-0.7c-0.4,0-0.8-0.1-1.3-0.1c-0.5,0-1,0.2-1,0.8c0,0.6,1.3,1.7,2,1.7C90.8,39.6,91.2,38.9,91.3,37.9z
		 M102.6,159.9c0.1,0.3-0.2,1.1,0.6,1.2c0.8,0.1,1.5-0.5,1.6-1.1c0-0.6-0.9-1.6-1.5-1.5C102.5,158.6,102.5,159.1,102.6,159.9z
		 M89.5,143.7c0.5,1.5,1.7,2.3,3,2c0.2,0,0.4-0.4,0.5-0.6c0-0.2-0.2-0.5-0.3-0.6C91.7,144.3,90.7,144,89.5,143.7z M99,162.5
		c0,0.7,0,1.3,0.1,1.9c0.1,0.6,0.5,0.8,1.1,0.5c0.7-0.3,1.1-0.9,0.8-1.4C100.5,162.9,100,162.4,99,162.5z M88.5,48.9
		c-0.8-0.5-1.4-0.9-2.1-1.3c-0.1-0.1-0.5-0.1-0.5,0c-0.1,0.2-0.1,0.4-0.1,0.6c0.1,0.3,0.3,0.5,0.5,0.8c0.2,0.4,0.4,1,1,0.8
		C87.7,49.7,88.1,49.3,88.5,48.9z M102.3,156.5c0.6-0.1,1.2-0.2,1.7-0.4c0.4-0.1,0.5-0.5,0.2-0.8c-0.4-0.4-0.9-0.7-1.4-1.1
		c-0.2,0.5-0.4,1-0.6,1.5C102.2,155.9,102.3,156.2,102.3,156.5z M91.7,168.9c-0.3,0.6-0.6,1.3-0.9,1.9c0.1,0.1,0.1,0.2,0.2,0.2
		c0.5-0.1,1.1-0.1,1.6-0.2c0.5-0.1,0.6-0.7,0.2-1.1C92.5,169.5,92.1,169.2,91.7,168.9z"/>
	<path class="st0" d="M94.9,34.2c-1.6-0.4-3.1-0.7-4.7-1.2c-0.3-0.1-0.6-0.4-0.8-0.6c-0.1-0.1-0.1-0.5,0-0.6
		c0.1-0.1,0.5-0.1,0.6-0.1c2.3,1.3,4.7,0.9,7.2,0.6c0.1,0,0.3-0.1,0.4-0.1c0.3,0.1,0.5,0.2,0.7,0.3c-0.1,0.2-0.2,0.5-0.4,0.6
		c-1,0.5-1.9,1.1-3,0.8C95,34.1,95,34.1,94.9,34.2z"/>
</g>
</svg>
