<?xml version="1.0" encoding="utf-8"?>
<!-- Generator: Adobe Illustrator 19.1.0, SVG Export Plug-In . SVG Version: 6.00 Build 0)  -->
<svg version="1.1" id="Layer_1" xmlns="http://www.w3.org/2000/svg" xmlns:xlink="http://www.w3.org/1999/xlink" x="0px" y="0px"
	 viewBox="-389.2 175.9 120 182.8" style="enable-background:new -389.2 175.9 120 182.8;" xml:space="preserve">
<style type="text/css">
	.st0{fill:#E91E63;}
</style>
<g id="stomachache-lady">
	<path class="st0" d="M-388.6,320.4c0.6,2,1.4,3.9,2.2,5.8c0.4,0.8,1.3,1.7,2.1,1.8c3.3,0.6,6.5,1.3,9.8,1.4c3.4,0.2,6.8,0,10.2,0.9
		c0.7,0.2,1,0.5,1,1.1c-0.1,0.6-0.1,1.3-0.4,1.8c-1.1,1.8-1,3.7-1.2,5.6c-0.3,3.8-0.6,7.5-1,11.3c-0.3,2.8-0.8,5.6-1.1,8.5h1.8
		c0-0.7,0.1-1.4,0.1-2.1c0.1-1,0.2-1.9,0.3-2.9c0.5-3.4,1-6.7,1.4-10c0.1-0.8,0.5-1,1.1-1.1c2.1-0.2,4.2-0.6,6.3-0.3
		c4.5,0.6,8.6-1,12.7-2.2c0.2-0.1,0.5-0.4,0.7-0.6c-0.3-0.2-0.6-0.5-1-0.4c-1.3,0.2-2.6,0.6-3.8,1c-1.8,0.4-3.5,0.9-5.3,1
		c-2.2,0.2-4.4,0-6.7,0.1c-1.2,0.1-2.4,0.3-3.9,0.5c0.4-1.8,0.8-3.6,1.1-5.3c0.2-1.2,0.4-2.5,0.6-3.7c0.1-0.9,0.1-0.9,1-0.7
		c0.4,0.1,0.8-0.2,1.2-0.2c1.6,0,3.2-0.1,4.8,0c2.9,0.2,5.8,0,8.6-1c1-0.3,2-0.3,3-0.6c3.8-0.9,7.6-1.8,11.5-2.7
		c1.8-0.4,3.8-0.7,5.6-1.1c1.4-0.2,2.7,0.7,4.1,1c1.2,0.2,2.4,0.8,3.6,1.2c0.1,0.1,0.1,0.2,0.2,0.3c-1.4,0.6-2.6,1.2-4.2,1.4
		c-0.1,0.1-0.2,0.1-0.4,0.2c-1.5,0.6-1.5,0.6-0.9,2.5c-0.3,0.2-0.7,0.3-1.1,0.5c-1,0.3-1.9,0.7-2.9,1c-1,0.2-1.9,0.1-2.9,0.3
		c-0.9,0.2-1.7,0.6-2.4,1.2c-1,0.8-0.8,1.8,0.2,2.6c1.5,1.1,3.4,0.7,5,0.6c1.8-0.1,3.6-0.3,5.5-0.6c0,0.1,0.1,0.2,0.1,0.3
		c-0.6,0.2-1.4,0.5-2.1,0.6c-2.6,0.6-5.2,1.3-7.8,1.9c-1.4,0.4-1.7,1-1.5,2.8c0.1,1.2,1,1.4,1.8,1.5c0.5,0.1,1,0.1,1.4,0.1
		c0.6,3,0.6,3,3.7,2.9c0.6,0,1.1-0.1,1.6-0.1c1,0,2.1-0.5,2.6,0.9c0.2,0.4,0.9,0.6,1.4,0.6c4.4,0.2,8.8,0.2,13.2,0.2
		c1.8,0,3.4-0.7,4.9-2c2.9-2.5,5.8-4.9,8.7-7.4c0.2-0.2,0.5-0.3,0.8-0.6c0.4,1,0.8,1.8,1,2.7c0.2,0.7,0.6,1,1.2,0.6
		c0.6-0.4,1.2-0.8,1.6-1.3c1-1.3,2.1-2.6,3.1-4c1.5,4.4,2.2,8.9,2.4,13.5c0.1,2.3,0.9,4.6,1.5,6.9h1.5c-0.2-0.9-0.4-1.8-0.5-2.7
		c-0.7-4.7-1.2-9.5-1.8-14.3c-0.2-1.8-0.6-3.8-0.8-5.7c-0.1-0.2,0-0.5,0.2-0.6c0.9-1.1,1.9-2.2,2.8-3.4c1.4-1.8,2.8-3.6,4.2-5.5
		c0.7-1,1.5-2,2.2-3c1.4-2.1,2.9-4.2,3.8-6.4c1.9-4.6,1.9-9.5,1.7-14.3c-0.1-2.3-0.3-4.6-0.4-7c-0.1-2.2-0.1-4.5-0.2-6.7
		c-0.3-4.2-0.7-8.5-1-12.7c-0.2-4.2-0.3-8.3-0.5-12.5c-0.1-3.1-0.2-6.3-0.5-9.5c-0.4-3.5-1.3-7.1-3.4-10c-0.7-1-1.6-1.8-2.3-2.7
		c-1.5-2.1-3.1-3.9-5.5-5.1c-1.2-0.6-2.3-1.4-3.6-1.7c-1.4-0.2-2.8,0-4.2,0.2c-2.5,0.4-4.8,0.1-7.3-0.4c0.1-1.7,0.2-3.1,0.4-4.6
		c0.5-3.3,1.4-6.5,0.7-9.9c-0.7-3.7-1-7.5-1.5-11.2c-0.2-2.2-0.4-4.5-1-6.6c-1.7-5.3-2.8-10.8-6-15.6c-2.2-3.2-4.7-5.9-8.3-7.7
		c-3.1-1.5-6.5-2.6-9.9-3c-2.2-0.2-4.5-0.4-6.1,1.8c-0.2,0.2-0.5,0.4-0.7,0.3c-4.2-1-6.7,1.7-8.6,4.6c-1.8,3-3.1,6.6-4.4,9.9
		c-0.8,2.1-1.2,4.3-1.8,6.5c-1.1,4-2.4,7.9-3.4,11.9c-0.8,3.2-1.4,6.4-2.2,9.6c-0.6,2.8-1,5.8-1.8,8.5c-0.6,2.2-1.9,4.2-2.7,6.4
		c-1.4,3.7-4.6,4.5-7.8,4.6c-2.7,0.2-5.2,0.9-7.3,2.5c-1.8,1.5-3.5,3.3-5,5.1c-1.3,1.5-2.4,3.2-3.2,5c-1,1.9-1.6,4.1-2.2,6.2
		c-0.4,1.4-0.8,2.7-0.9,4.2c-0.2,4.5-1.3,8.8-2.2,13.1c-0.6,3.1-1.4,6.2-2,9.3c-0.3,1.2-0.5,2.5-0.7,3.7c-0.3,1.4-0.8,2.7-1,4.1
		c-0.2,2.5-0.2,5-0.4,7.5c-0.6,5.5-1.1,11-0.9,16.5C-389.1,318.4-388.9,319.5-388.6,320.4z M-323.4,325.2c-0.9-0.1-1.7-0.5-2.7-0.8
		c1.4-2.9,1.4-5.9,1.3-8.9c-0.1-1.4-0.3-2.8-0.4-4.2c0-0.6,0.2-1.3,0.6-1.5c1.8-1.2,3.6-2.2,5.3-3.5c1.8-1.5,3.8-2,6.2-1.7
		c0.6,0.1,1.3,0,1.9-0.2c2.2-0.6,3.9,0.6,5.7,1.6c0.2,0.1,0.5,0.2,0.7,0.4c0.3,0.2,0.6,0.6,0.9,0.8c-0.3,0.3-0.6,0.7-1,0.8
		c-1.4,0.2-2.7,0.5-4.1,0.4c-1.4-0.1-2.9-0.5-4.4-0.6c-0.4,0-0.9,0.2-1.5,0.3c0.3,0.3,0.5,0.5,0.6,0.6c2.3,0.5,4.6,1.2,7.1,1.5
		c2.1,0.2,4.2,0.6,6.1,1.4c1.4,0.6,2.8,1.2,4.2,1.8c0.9,0.4,1.2,1,1.2,2.2c-1.1-0.1-2.2-0.2-3.4-0.3c-1-0.2-1.9-0.4-2.9-0.5
		c-1.4-0.1-2.8-0.1-4.2,0c-0.3,0-0.6,0.3-0.9,0.5c0,0.2,0.1,0.2,0.1,0.4c1.8,0,3.8-0.2,5.6,0.1c1.8,0.2,3.5,0.7,5.3,1.3
		c0.4,0.1,0.6,0.8,0.9,1.3c-0.3,0.2-0.7,0.6-1.1,0.6c-2.9,0.1-5.7,0.2-8.6,0.2c-0.5,0-0.9,0.2-1.3,0.3c0,0.2,0.1,0.2,0.1,0.4
		c0.3,0.1,0.6,0.2,0.8,0.2c2.6,0.1,5.4,0.2,8,0.2c0.4,0,0.8,0.1,1.1,0.2s0.7,0.5,0.7,0.8c0,0.2-0.4,0.6-0.7,0.8c-1.7,1-3.5,1-5.4,1
		c-2.3-0.1-4.6-0.1-7,0c-0.3,0-0.6,0.3-1,0.5c0,0.2,0.1,0.2,0.1,0.4c1.7-0.1,3.4-0.2,5-0.2c1.8,0,3.6,0.2,5.4,0.3
		c0,0.1,0.1,0.2,0.1,0.2c-1,0.2-1.9,0.5-3,0.9c-4.3,1-8.8,0.6-13,2.1c-0.5,0.1-1,0-1.5-0.2C-318.5,326.2-320.9,325.3-323.4,325.2z
		 M-294.6,316.8c-0.1-0.3-0.3-0.6-0.2-0.9c0.6-1.8,0-3-1.8-3.7c-2.5-0.9-4.9-1.8-7.4-2.6c-0.2-0.1-0.3-0.2-0.5-0.3
		c0.8-0.6,1.5-1.3,2.3-1.8c0.3-0.2,0.9-0.1,1.4-0.1c0.6,0,1.3,0.2,1.9,0.2c0.6,0.1,0.6-0.6,1-0.9c0.8-0.6,1.8-1,2.6-1.4
		c0.6,4.7,1.2,9.3,1.7,13.9c0,0.6-0.3,1.2-0.6,1.8c-0.6-0.6-1-1-0.3-1.8C-293.9,318.4-294.3,317.6-294.6,316.8z M-319.8,330.5
		c0.1,0.2,0.2,0.4,0.3,0.6c-0.3,0.3-0.7,0.6-1.1,0.8c-0.2,0.2-0.6,0.2-0.7,0.3c-0.8,0.9-1.2,0.4-1.8-0.5
		C-321.9,331.3-320.9,330.9-319.8,330.5z M-330.5,338.2c-0.8-0.1-1.9-0.2-1.8-1.1c0.1-0.6,1.2-1,2.2-1.8c0.4,0.7,0.9,1.1,1,1.4
		C-329.3,337.4-329.4,338.2-330.5,338.2z M-329.8,344.5c-1,0.1-1.9,0.7-2.6-0.2c-0.3-0.3-0.1-1,0.1-1.6
		C-331.4,343.4-329.3,341.9-329.8,344.5z M-326.4,347.8c-0.2,0.2-0.7,0.4-1,0.3c-0.7-0.2-2.2,0-1.5-1.5c0.5-0.1,1-0.3,1.4-0.2
		c0.4,0,0.9,0.2,1.1,0.4C-326.2,347-326.2,347.5-326.4,347.8z M-293.8,339.6c-3.2,2.8-6.4,5.7-9.7,8.3c-1.7,1.4-3.8,2-6.1,1.5
		c-1-0.2-2,0.2-3,0.2c-2.6,0.1-5.3,0.1-7.9,0c-0.4,0-0.7-0.4-1-0.7c4.2-0.8,8.5-0.6,12.4-2.2c0-0.2-0.1-0.4-0.1-0.6
		c-0.4,0-0.7-0.1-1.1,0c-3.1,0.7-6.3,1.4-9.6,1.4c-1.4,0-3,0.3-4.4,0.4c-0.3,0-0.7-0.2-0.9-0.4c-0.5-0.6-0.8-1.3-1.3-2.1
		c2.7-0.3,5.5-0.6,8.3-0.8c2.8-0.2,5.6-0.4,8.6-0.8c-0.3-0.2-0.6-0.5-1-0.5c-2.2,0.1-4.6,0.2-6.8,0.4c-1.5,0.1-3,0.1-4.6,0.2
		c-1.9,0.2-3.8,0.5-5.7,0.7h-0.6c-0.6-0.9-1-1.7-1.6-2.6c5.9-1.3,11.5-3.5,17.6-3c0.1-0.2,0.1-0.2,0.2-0.3c-0.2-0.2-0.5-0.6-0.7-0.6
		c-1-0.1-1.9-0.2-2.9-0.2c-3.1,0-6.3,0-9.5,0.1c-1,0-2,0.2-3,0.4c-0.2-1-0.2-1.8-0.3-2.6c1.5-0.6,3-1.2,4.6-1.5
		c1-0.3,2.2-0.2,3.4-0.2c2.2,0.2,4.1-0.6,6.2-0.7c3-0.2,5.1-2.2,7.6-3.4v-0.5c-0.3,0.1-0.7,0.1-1,0.4c-2.2,0.9-4.2,1.9-6.5,2.6
		c-1.7,0.6-3.4,0.8-5.2,1.1c-0.3,0.1-0.7-0.1-1.4-0.2c0.6-0.4,1-0.6,1.4-0.8c0.3-0.2,0.8-0.7,0.7-1c-0.5-1.8,1-1.9,1.9-2.2
		c3.8-0.9,7.6-1.6,11.5-2.3c1.7-0.3,3.4-0.6,5-0.7c0.3-0.1,0.9,0.2,1.1,0.6c0.7,0.7,1.3,1.6,2,2.4c2.5,2.6,3.4,6,3.9,9.5
		C-293.5,339.1-293.6,339.4-293.8,339.6z M-297.4,235.6c2.1,0,4.2,0.1,6.3,0.2c0.2,0,0.3,0.1,0.6,0.1c-1.1,2.3-2.4,4.4-4.3,6
		c-0.5,0.2-1,0.3-1.5,0.5c-0.7,0-1.4-0.4-1.6-1c-0.4-1.6-0.4-3.3-0.5-5C-298.3,236.2-297.7,235.6-297.4,235.6z M-309.7,183
		c-0.1,0-0.1,0-0.2,0c-0.7-0.7-1.5-1.4-2.3-2C-311.3,181.6-310.5,182.2-309.7,183z M-348.3,238.4c1.3-0.4,1.8,0.6,2.2,1.2
		c1,1.6,2.4,1.6,3.8,1.3c1.7-0.3,3.4-1,4.2-2.6c0.3-0.6,0.5-1.3,0.5-2c0-2.2-0.2-4.5-0.2-6.7c0-1.8,0.2-3.5,0.2-5.3
		c-0.2-2.2-0.5-4.3-0.7-6.5c-0.1-0.7-0.3-1.2-1.2-1.2c-1.5,0-1.9-0.6-1.9-2c0-0.7,0.1-1.4,0.2-2.1c0.1,0,0.2-0.1,0.3-0.1
		c0.2,0.3,0.5,0.6,0.7,0.9s0.6,0.4,0.8,0.6c0.2-0.1,0.2-0.2,0.4-0.3c-0.2-0.6-0.4-1.3-0.8-1.7c-1.5-1.8-0.7-3.4-0.1-5.1
		c1-2.3,2.2-4.4,3.1-6.7c0.5-1.4,0.6-2.8,1-4.2c0.8-3.5,2.6-6.3,6.2-7.5c1.4-0.5,2.3-1.3,1.7-2.7c1.7,0.6,3.4,1.3,5.1,1.9
		c3.9,1.8,8.1,3,11,5.8c0.6,0.7,1.1,1.6,1.4,2.7c0.6,2.2,1.5,4.2,2.2,6.3c0.2,0.3,0.2,0.7,0.2,1c-2,0.2-3.8,0.4-5.7,0.7
		c-1.2,0.2-2.1,0.8-2.3,2.2c-0.5,2.4-0.3,4.7,0.9,6.9c0.6,0.9,1,1.9,0.2,3c-0.2-0.3-0.2-0.5-0.4-0.7c-0.8,0.4-1.5,0.9-2.4,1.4
		c-0.2-0.2-0.5-0.3-0.6-0.6c-0.4-1.4-1.4-1-2.2-0.8c-1.4,0.4-2.1,0-2.1-1.4c0-0.5,0-1-0.1-1.5c-0.6,0.9-0.6,1.9-0.2,2.8
		c0.3,0.8,1,1,1.8,1c1,0,2.1-0.2,3,0.8c0.6,0.6,3.8-0.3,4.1-1.1c0.2-0.7,0.2-1.5,0-2.3c-0.1-0.6-0.4-1.2-0.7-1.8
		c-1.1-1.8-0.7-3.7-0.4-5.6c0-0.3,0.3-0.6,0.6-0.7c2.2-0.6,4.4-1.5,6.8-0.7v1c0,0.6-0.1,0.9-1,0.7c-2-0.3-4.1-1-6,0.3
		c0.2,1.1,1.1,1.4,2.1,1.4h5.1c0.5,2.3,1.1,4.7,1.5,7.1c0.6,4.1,0.4,8.1-2.9,11.2c-1.7,1.6-3.2,3.4-5,4.7c-3.6,2.6-7.5,3-11.5,1.1
		c-3.2-1.4-5.6-3.8-8-6.2c-0.3-0.4-0.8-0.7-1.2-1c-0.2-0.1-0.5,0-0.8,0.1c2.5,3,5,5.6,8.3,7.3c4.8,2.5,9.6,2.7,14.4-0.9
		c0.7-0.5,1.4-1,2.1-1.7c-0.1,1.4-0.2,2.6-0.2,4.2c0,2.2,0.3,2.7,2.5,3c0.6,0.1,0.6,0.2,0.5,0.7c-1,2.9-0.9,5.9-1,8.9
		c-0.2,2.6,0.2,5.3,0.9,7.9c0.6,2.1,0.7,4.2,1,6.4c0.1,0.5-0.5,1-0.6,1.6c-0.6,1.4-0.9,3-1.5,4.5c-1.8,3.8-4.1,7-7.6,9.3
		c-1.3,0.8-2.6,1.4-3.8,2.2c-1.4,0.8-2.7,0.2-3.8-0.6c-1.2-0.8-2.3-1.8-3.4-2.7c-1.9-1.6-3.7-3.4-5.6-5c-2.3-2.1-3.7-4.9-5.5-7.4
		c-2-2.8-4.2-5.5-5.5-8.7c-0.9-2.3-1.5-4.7-2.2-7.1c-0.5-1.7-1-3.4-1.3-5C-348.4,240.9-348.3,239.7-348.3,238.4z M-340.5,217.2
		c0.5,0.2,1.1,0.2,1.3,0.6c0.8,1.8,0.9,3.8,0.8,5.7c-0.1,0.1-0.2,0.1-0.3,0.2c-0.2-0.2-0.4-0.4-0.5-0.7c-0.5-1.4-1-3-1.5-4.5
		C-340.8,218.1-340.6,217.6-340.5,217.2z M-308.7,207.4c-1.9-0.2-3.6-0.2-5.4-0.3C-312.7,206.1-310.4,206.1-308.7,207.4z
		 M-307.2,226.2c-0.2,3-0.2,6.1-0.4,9.1c-0.1,0.6-0.2,1-1,0.7c-1-0.3-1.5-0.9-1.5-1.8c0-1.6-0.2-3.3,0.3-4.8
		c0.4-1.3,1.4-2.3,2.2-3.4C-307.5,226-307.3,226.1-307.2,226.2z M-349.8,237.4c0.2,0,0.7,0.6,0.7,0.8c-0.1,3,0.6,5.9,1.4,8.7
		c1,4,2.3,7.9,4.3,11.5c0.7,1.3,1.8,2.3,2.6,3.5c1.1,1.6,2.2,3.1,3.2,4.8c1.4,2.3,3.3,3.9,5.2,5.6c2,1.8,4,3.7,6.2,5.4
		c1.3,1,2.8,1.7,4.2,2.5c0.2,0.2,0.5,0,0.6-0.1c1.8-1.2,3.8-2.2,5.4-3.5c1.7-1.4,3-3.1,4.5-4.7c1.8-2.1,3-4.6,4-7.1
		c0.2-0.6,0.2-1.4,0.4-2h0.3c0.5,1.2,1,2.4,1.5,3.6c0,0.1,0,0.2-0.1,0.3c-1.3,3-3,5.9-5.2,8.3c-1.9,2.2-3.5,4.7-6,6.4
		c-1,0.6-1.8,1.4-2.8,2c-0.6,0.3-1.4,0.6-2,0.3c-2.6-1.1-5.3-2.4-7.9-3.8c-1.4-0.8-2.7-1.8-3.8-2.9c-2-2-3.6-4.3-5.7-6.3
		c-3.1-3-5.3-6.7-7.4-10.3c-2.4-4.1-4.1-8.5-4.6-13.3c-0.2-2.4-1-4.8-1.5-7.2c-0.2-0.8-0.2-1.6-0.4-2.7
		C-351.6,237.4-350.7,237.3-349.8,237.4z M-387.5,306.7c0.4-2.2,0.3-4.4,0.6-6.6c0.3-2.8,0.9-5.5,1.3-8.3c0.4-2.5,0.8-5,1.2-7.5
		c0.2-1.3,0.4-2.5,0.8-3.7c1.5-4.3,2-8.9,2.5-13.4c0.5-4.8,1.4-9.5,3-14.1c0.5-1.3,1.4-2.6,2.4-3.7c1.8-2.2,3.7-4.3,5.9-6.2
		c1.6-1.4,3.6-2.3,5.9-2c2.2,0.2,4.1-0.9,6.1-1.5c1.4-0.4,2.6-1.2,4-1.8c0.6,2.6,1.2,5.4,1.6,8.1c0.8,5.1,2.4,10,4.6,14.8
		c0.9,1.8,1.9,3.8,3.2,5.4c1.8,2.3,4.1,4.3,5.9,6.7c1.8,2.3,3.7,4.4,5.9,6.2c1.4,1,2.8,1.9,4.2,2.7c1.9,1.1,3.9,2,5.9,3.1
		c1.4,0.8,2.6,0.7,3.8-0.1c2.8-1.8,5.3-4.1,7.5-6.7c1-1.2,2.2-2.2,3-3.4c1.4-1.8,2.6-3.9,3.9-5.9c0.2,0.2,0.6,0.4,1.3,0.7
		c0-1-0.1-1.7,0-2.4c0-0.5,0.1-0.9,0.1-1.4c0.2-0.2,0.2-0.6,0.1-0.9c0,0,0,0,0-0.1c0.3-3.9,0.3-7.9,1.4-11.8
		c0.4-1.4,0.1-3.1,0.1-4.8c0.6,0.2,1,0.4,1.4,0.6c2.3,0.7,4.6,0,6.2-1.9c2-2.3,3.8-4.7,5.6-7.2c0.6-0.9,1-1.8,1.7-2.7
		c0.4-0.6,0.8-0.7,1.7-0.4c4.3,1.7,6.7,5.4,9.3,8.7c2,2.5,2.6,5.4,2.9,8.5c0.1,1.4,0.4,2.6,0.5,3.9c0.1,1.6,0,3.2,0,4.8
		c0,0.6,0.2,1.2,0.2,1.8c0.2,2.9,0.4,5.8,0.5,8.7c0,1.6-0.1,3.3,0,5c0.2,2.2,0.5,4.5,0.6,6.7c0.2,2.6,0.2,5.1,0.2,7.7
		c0.1,1.9,0.2,3.8,0.2,5.6c0.1,2.6,0.1,5.3,0.2,7.9c0,1,0.2,1.8,0.3,2.9c-1.2-1.1-2.2-2.1-3.3-3c-0.2-0.2-0.6-0.2-0.8-0.2
		c0.2,0.3,0.2,0.6,0.4,0.9c0.7,0.7,1.5,1.4,2.2,2.2c1.5,1.8,1,3.8,0.6,5.7c-0.7,3.5-3,6.2-5.2,8.8c-1.3,1.6-2.3,3.4-3.6,5.1
		c-1.3,1.7-2.5,3.4-4,4.8c-1.6,1.4-2.8,3.3-4.1,5c-0.9,1.3-1.8,2.6-2.7,3.8c-0.2-0.1-0.2-0.1-0.4-0.1c-0.4-1.7-1.2-3.4-1.3-5
		c-0.2-3.6-2.2-6.2-4.2-8.9c-0.6-0.7-1.1-1.4-1.8-2.2c1.9-1.5,3.8-2.9,5.5-4.5c0.9-1,1.7-2.3,2.1-3.6c0.9-2.7,1.5-5.5,2.2-8.3
		c0.2-0.9,0.4-1.8,0.6-2.6c0.4-1.8,1.8-2.9,3.6-3c2.2-0.2,4.5-0.2,6.5-1.4c0.3-0.2,0.7-0.2,1.1-0.2c0.1-0.1,0.1-0.2,0.2-0.3
		c-0.4-0.2-0.8-0.5-1.1-0.4c-2.7,0.4-5.5,1-8.2,1.4c-0.3,0-0.6,0.2-1,0.5c-0.4-2.1-0.6-4.2-1.1-6.1c-0.8-2.6-0.3-5.1-0.3-7.6
		c0-3-0.2-6.2-1-9.2c-0.9-3.2,0.4-6.1,2.1-8.7c1.7-2.6,2.6-5.4,2.5-8.5c-0.1-1.9,0.2-3.9,0.3-5.9c0-0.2-0.1-0.4-0.2-0.6
		c-1,0-1.3,0.6-1.3,1.4v4.8c0,2.7-0.7,5.3-2.3,7.5c-2.4,3.4-3,7.2-2,11.4c0.6,2.9,0.7,6,0.6,9.1c-0.1,1.4-1,2.9-1.6,4.3
		c-0.3,0.9-0.6,1.8-1,2.6c-0.9,1.8-1.8,3.6-2.7,5.4c-0.1,0.2-0.2,0.2-0.4,0.4c-2.3,2.2-6,2.7-8.9,1.3c-0.9-0.5-1.7-1-2.6-1.5
		c-0.3-0.2-0.7-0.3-1.1-0.3c-3.5,0.1-7,0.5-10.4,0.4c-4.1-0.1-7.9,1.1-11.8,1.8c-1.8,0.2-3.4,0.6-5.1,1c-0.2,0.1-0.4,0.4-0.6,0.6
		c0.2,0.2,0.5,0.5,0.6,0.5c1.2-0.1,2.3-0.2,3.5-0.5c2.6-0.4,5-0.9,7.6-1.4c1.2-0.2,2.4-0.4,3.6-0.6c0,0.2,0.1,0.2,0.1,0.3
		c-1.6,1.1-3.1,2.2-4.7,3.2c-0.3,0.2-1-0.1-1.4,0c-1.1,0.2-2.2,0.4-3.3,0.6c-0.4,0.1-1,0.2-1.2,0c-0.6-0.8-1.3-0.2-1.9-0.2
		c-1,0-2.2,0.2-3.2,0.3c-2.7,0.2-5.5,0.6-8.3,0.3c-1.7-0.2-3.4-1.3-5-2.2c-1.5-0.9-2.9-2-4.3-3c-0.3-0.2-0.7-0.2-1.1-0.2
		c-0.2,0-0.5,0.3-0.7,0.6c0.2,0.2,0.4,0.4,0.6,0.5c0.2,0.2,0.6,0.1,0.8,0.2c1.7,1.3,3.4,2.6,5,3.9c-1.5-0.1-3.2-0.2-4.9-0.2
		c-0.1,0-0.2-0.1-0.2-0.1c-3.4,0.1-3.3-1-4.2-4.2c-0.2-0.9-0.6-1.8-0.7-2.7c-0.5-2.2-0.7-4.5-1.3-6.7c-0.3-1.3-1.2-2.5-1.5-3.8
		c-0.2-1-0.2-2.1,0-3c0.3-1.6,0.9-3,1.3-4.6c1.1,1.3,2.2,2.6,3.3,3.8c0.1-0.1,0.2-0.2,0.4-0.2c-0.3-0.6-0.5-1-0.8-1.5
		c-0.5-0.8-1-1.4-1.6-2.2c-0.3-0.4-0.5-0.8-0.7-1.2c-0.1-0.2-0.3-0.5-0.2-0.7c0.6-2.1,1.1-4.2,1.7-6.3c-1.3-0.2-1.4,0-1.9,2.2
		c-0.4-0.9-0.9-1.8-1.1-2.7c-0.7-3-2.2-5.4-4.6-7.2c-0.3-0.2-0.7-0.3-1.1-0.5c-0.1,0.1-0.2,0.2-0.2,0.2c0.2,0.3,0.4,0.7,0.7,1
		c2.7,2.2,3.8,5.1,4.6,8.3c0.2,0.4,0.2,0.8,0.4,1.1c0.6,1.4,0.7,2.9,0.2,4.5c-0.7,2-0.9,4.2-1.5,6.3c-1.4,4.8-1.7,10-3.8,14.7
		c-0.2,0.5-0.3,1-0.4,1.5c-0.1,0.6,0,1,0,1.5c-0.2,0.1-0.2,0.2-0.3,0.2c-3-0.2-5.6,0.6-8.1,2.2c-0.6,0.3-1.2,0.3-2,0.6
		c0.9,0.9,1.6,0.6,2.3,0.3c0.9-0.4,1.8-1,2.6-1.4c1.7-1,3.7-1.1,5.4-0.6c1.7,0.6,3.4,1,5.1,1.3c1.8,0.2,3.7,0.6,5.5,0.8
		c2.9,0.3,5.9,0.6,8.7,0.9c2.6,0.2,5.1,0.4,7.7,0.4c3,0,6-0.2,9.1-0.3c1-0.1,2-0.4,3-0.7c0.6-0.2,1.2-0.2,1.3,0.6
		c0.3,3,0.8,6.1,0.9,9.1c0,1.4-0.7,2.9-1.3,4.2c-0.2,0.3-0.7,0.7-1.2,0.8c-2.9,0.8-5.9,1.5-8.7,2.2c-2.1,0.6-4.1,1.3-6.2,1.7
		c-1.4,0.2-2.8,0.2-4.2,0.2c-0.2,0-0.5,0.3-0.7,0.3c-0.4,0.1-0.8-0.1-1.2-0.1c-0.4,0-0.9,0-1.3,0.1c-1.5,0.2-3,0.7-4.4,0.8
		c-1.9,0.2-3.8,0.1-5.8,0c-0.4,0-1-0.3-1.3-0.7c-0.4-0.6-1-0.8-1.7-0.9c-3.1-0.2-6.2-0.6-9.2-0.8c-0.7-0.1-1.4,0.2-2.2,0.1
		c-2.6-0.2-5.1-0.4-7.7-0.7c-0.3,0-0.6-0.4-0.9-0.7c-0.7-1.1-1.4-2.3-2.2-3.5c-0.4-0.7-0.8-1.4-0.3-1.8c-0.4-1.5-0.8-2.7-1-3.9
		C-388,313.6-388.1,310.2-387.5,306.7z M-293.4,304.5c0.1-0.9,0.3-1.8,0.7-2.7c0.7-1.8,1.6-3.5,2.5-5.3c0.1-0.2,0.2-0.4,0.4-0.7
		c1.2,2.6,1.5,5.2,1,7.6c-0.7,4.2-1.8,8.4-2.8,12.7c-0.1,0.4-0.3,0.7-0.5,1.1h-0.4c-0.2-1.5-0.6-3.1-0.7-4.7
		C-293.3,309.8-293.4,307.1-293.4,304.5z M-358.6,308.3c-1.7,0.2-3.1-0.4-4.6-0.8c-0.9-0.2-2-0.1-2.2-1.4c-0.1-0.6-0.3-1.3-0.2-1.9
		c0.8-3.4,1.6-7,2.4-10.4c0.2-0.5,0.3-0.9,0.5-1.5c1.3,1.8,1.6,3.8,1.9,5.8c0.6,3.3,1.4,6.5,2.1,9.7
		C-358.7,307.9-358.6,308-358.6,308.3z"/>
	<path class="st0" d="M-319.8,219.8c2.1,0.2,3.8-0.1,5.4,1.1c2.6,2.2,1.9,3.7-0.3,4.8c-3.8,2-8.7,1-11.3-3.1c-0.2-0.2,0-0.7,0.2-0.9
		C-324,220-321.9,219.5-319.8,219.8z M-324.1,224c3,2.6,9.1,2.4,9.9,0C-317.3,224-320.5,224-324.1,224z M-324.7,221.7
		c3.7,0.2,7.5-1,11,1.3C-315.1,220.1-322.8,219.5-324.7,221.7z"/>
	<path class="st0" d="M-331,206.1c2.8-1.9,6.9-1.7,8.7,0.9c-1.6,0.1-3,0.2-4.4,0.2C-328.2,207.3-329.8,207.6-331,206.1z
		 M-324.2,206.1c-1.7-1-3.4-0.7-5,0C-327.6,206.1-325.9,206.1-324.2,206.1z"/>
	<path class="st0" d="M-332.7,203c0.9-0.2,1.8-0.6,2.7-0.7c2.2-0.2,4.6-0.1,6.7,0.7c0.4,0.2,0.9,0.6,1,1c0.1,0.2-0.5,0.6-0.6,0.9
		c-0.7-0.5-1.1-1-1.6-1.1c-2.1-0.5-4.1-1.3-6.3-0.4c-0.5,0.2-1.2,0-1.8,0C-332.6,203.3-332.7,203.2-332.7,203z"/>
</g>
</svg>
