<?xml version="1.0" encoding="utf-8"?>
<!-- Generator: Adobe Illustrator 19.1.0, SVG Export Plug-In . SVG Version: 6.00 Build 0)  -->
<svg version="1.1" id="Layer_1" xmlns="http://www.w3.org/2000/svg" xmlns:xlink="http://www.w3.org/1999/xlink" x="0px" y="0px"
	 viewBox="-408.9 185.1 120 189.7" style="enable-background:new -408.9 185.1 120 189.7;" xml:space="preserve">
<style type="text/css">
	.st0{fill:#FF9800;}
</style>
<g id="stomachvirus-lady">
	<path class="st0" d="M-407.9,292.3c-0.4,1.8,0.2,3.2,1.3,4.5c2.9,3.3,6.8,4.3,10.8,5.3c2.5,0.6,5.1,0.4,7.5,1.5
		c2,0.9,4.2,1.1,6.4,1.1c2.9,0.1,5.4,1.3,7,3.8c1.8,2.8,3.4,5.7,5.2,8.6c1,1.7,2,3.3,2.1,5.4c0.2,2.9,0.6,5.8,0.3,8.7
		c-0.3,2.2,0.2,4.5,0.2,6.7c0.1,1.8,0.3,3.8-0.2,5.5c-1.1,3.9-2.8,7.6-4.1,11.5c-0.3,1-0.6,1.9-0.9,2.9c-0.5,0.6-0.8,1.3-0.9,2.1
		c0,0.4-0.1,0.8-0.1,1.2c-0.4,1.3-0.8,2.6-1.2,3.9c-1,3.1-1.8,6.2-2.5,9.3c0,0.1-0.1,0.2-0.1,0.3h77.9c0.2-2.9,0.4-5.7,0.6-8.6
		c0.3-2.5,0.7-5,0.8-7.5c0.2-2.9,0-5.8,0-8.7c-0.1-4.4-1.8-8.7-2.1-13.1c-0.3-4.1-1.4-7.8-2.5-11.7c-0.2-0.6-0.1-1.2,0.5-1.6
		c1.1-0.9,2.2-1.7,3.4-2.6c3.6-2.5,7.1-5.2,9.8-8.7v-1.8c-0.4,0.3-0.7,0.6-1,0.9c-1.6,2.3-3.6,4.1-5.8,5.8c-2.8,1.9-5.7,3.8-8.1,6.1
		c-3,2.9-6.7,5-10.3,7.1c-2.2,1.4-4.5,2.4-6.8,3.6c-0.9,0.5-1.9,0.8-2.8,1.4c-1.7,1.1-3.1,2.4-4.5,3.4c-1.1-0.8-2.3-1.4-3.1-2.2
		c-2-2-3.4-4.4-4.1-7.3c-0.4-1.6-0.1-2,1.4-2.9c1.2-0.6,2.5-1.2,3.6-1.9c2.8-1.9,5.4-4.1,8.2-6.1c1.7-1.4,3.7-2.6,5.3-4.1
		c1.2-1.1,2-2.5,3-3.8c1-1.5,2.5-2.7,3-4.5c0-0.1,0.2-0.2,0.4-0.2c1.9-0.5,3.9-0.9,5.8-1.4c0.6-0.2,1.4-0.3,2-0.4v-0.5
		c-0.5-0.1-1.1-0.3-1.6-0.2c-1.9,0.4-3.9,0.7-5.8,1.3c-1.5,0.4-1.7,0.3-2.3-1.1c-0.6-1-1-2.1-1.8-2.9c-2.1-1.8-3.8-4-5.3-6.2
		c-3.6-5-7.3-9.9-12.2-13.6c-2.8-2.1-5.2-4.8-7.6-7.4c-1.1-1.2-2.1-2.9-2.7-4.4c-0.7-2.1-1.5-4.4-1.1-6.7c0.1-0.5,0-1,0-1.6
		c-0.1-0.1-0.3-0.1-0.4-0.2c-0.2,0.3-0.5,0.6-0.6,0.9c-0.6,2.8-0.1,5.4,1.1,7.9c1.4,2.9,2.9,5.7,5.4,7.8c-1.8,0.6-3.6,1.3-5.2,2
		c-1.8,0.8-3.8,1.6-5.1,3.2c-0.4,0.5-0.7,0.9,0,1.4c0.2-0.1,0.4-0.2,0.5-0.3c2.5-2.4,5.7-3.6,8.9-4.7c1.6-0.6,2.9-0.2,4,1.1
		c0.7,0.8,1.5,1.7,2.4,2.3c1.5,0.9,2.4,2,2.5,4c0.1,1.7,0.9,3.5,1.3,5.2c0.4,1.9,1,3.7,2,5.3c1,1.7,1.8,3.5,2.7,5.3
		c1.2,2.7,2.2,5.4,3.4,8.1c0.6,1.2,1.4,2.3,2.1,3.5c-1.3,0.8-2.5,1.5-3.6,2.3c-1.9,1.4-3.8,2.8-5.6,4.1c-0.6,0.4-1.2,0.8-1.7,0.7
		c-1.6-0.3-3-0.6-4.6-1.1c-2.8-0.7-5.5-1.6-8.3-2.4c-0.2-0.1-0.6-0.2-0.7-0.1c-0.3,0.2-0.6,0.5-0.8,0.6c0.3,0.2,0.5,0.5,0.7,0.6
		c1.6,0.5,3.2,1.1,4.9,1.4c2.3,0.5,4.3,1.7,6.7,1.6c0.4,0,0.7,0.3,1.3,0.5c-1.5,1.4-3.1,2.1-4.8,2.9c-0.7,0.4-1.3,1-1.9,1.5
		c-0.3,0.2-0.6,0.5-0.9,0.4c-1.5-0.4-2.9-0.9-4.5-1.2c-1.7-0.3-3.4-0.6-5.2-0.6c-1.7,0-3.4,0.3-5.1,0.5c-1.3,0.2-2.5,0.4-3.7,0.7
		c-1.1,0.4-2.1,0.5-3.1,0.1c-0.7-0.3-1.5-0.4-2.2-0.6c-0.7-0.2-1.4-0.6-2-0.9c-0.6-0.3-1.1-0.7-1.7-0.8c-1-0.1-1.2-0.6-1.3-1.4
		c-0.1-1-0.2-2-0.6-2.9c-2-3.9-4.2-7.7-6.4-11.5c-1.3-2.2-3-4-5.3-4.9c-1.5-0.6-2.8-1.6-3.5-2.9c-1.2-2.1-2.1-4.2-3.1-6.4
		c-0.7-1.6-1-3.1-0.6-4.9c0.5-1.7,0.3-3.4,0.7-5c1.3-4.6,2.1-9.1,1.2-13.8c-1-5.2-2-10.4-3.6-15.6c-0.4-1.1-0.9-2.1-1-3.1
		c-0.4-3.9,1.1-7.1,4-9.7c1.3-1.2,2.9-2,4.2-3.1c1.7-1.4,3.7-1.1,5.9-1.4c-0.5,0.7-0.6,1.4-1.1,1.7c-2.2,2.1-3.5,4.7-4.6,7.4
		c-1.5,3.6-1.7,7.5-1.8,11.3c-0.1,2.4,0,4.8,0.3,7.2c0.3,2.2,0.9,4.4,1.7,6.5c0.6,1.5,1.3,3.1,2.5,4.1c1.9,1.6,4.3,2.7,6.9,2.5
		c1.6-0.2,3-0.6,4.5-1c0.6-0.2,1.4-0.3,1.7-0.6c2.3-2.3,4.9-4.5,6.7-7.2c1.9-2.9,3.3-6.1,4.8-9.2c1.4-2.9,2.5-5.8,3.7-8.7
		c0.5-1.1,0.9-2.3,1.5-3.4c0.6-1.2,1.2-2.4,1.8-3.6c0.3-0.6,0.6-1.2,1-1.7c1.5-1.7,2.9-3.3,4.6-4.8c0.6-0.6,1.1-1.5,2.2-0.9
		c3.9,2,7,5,9.5,8.5c1.5,2,2.9,4.1,4.4,6.3c0.5,0.6,0.8,1.4,1.3,2c0.4,0.6,0.7,1.1,1.2,1.7c0.5,0.6,1.1,1,1.6,1.7
		c0.6,1.1,1.2,2.3,1.9,3.3c1.7,2.4,3.7,4.7,5.3,7.1c2,2.9,3.9,5.8,5.8,8.7c1.4,2,2.8,4,4.2,5.8c1.5,1.8,3.2,3.6,4.6,5.5
		c1.5,2.1,2.7,4.4,4,6.7c1.7,3.1,3.9,6,4.7,9.6c0,0.1,0.4,0.2,0.6,0.3c0-0.9,0-1.8,0.1-2.2c-1.6-2.8-3-5.5-4.6-8.2
		c-1.5-2.6-2.9-5.2-4.6-7.5c-2.9-4-6.2-7.7-9.1-11.7c-1.4-1.9-2.4-4.1-3.8-6.1c-1.5-2-3.1-3.8-4.6-5.8c-0.6-1-1-2.2-1.7-3.2
		c-1.2-1.7-2.6-3.3-3.8-5c-2.2-3.1-4.2-6.4-6.7-9.4c-1.8-2.1-2.9-4.5-3.5-7.1c-0.6-2.4-1.2-4.7-1.8-7.1c-0.4-1.3-0.6-2.7-1.3-3.9
		c-1.1-2-3-3-5.2-3.5c-1.4-0.4-1.9-1.5-1.3-2.8c0.4-0.7,0.8-1.4,1.1-2.1c0.8-2.3,1.6-4.7,2.4-7c1.2-3,0.9-6.3,0.3-9.2
		c-0.6-3-2.1-6-3.6-8.8c-1.5-2.9-4.4-4.5-6.9-6.2c-2.6-1.7-5.8-2.4-9-2.3c-2.3,0-4.7,0.2-7,0.2c-1.2,0-2.3,0.3-3.3,0.9
		c-0.5,0.3-1,0.6-1.6,0.7c-3.7,1.4-6.2,4-7.4,7.6c-1,3.1-1.7,6.4-2.6,9.7c-0.6,2.1-1.1,4.3-1.6,6.5c-0.3,1.7-0.7,3.4-0.6,5.1
		c0.1,1.8,0.6,3.7,1,5.4c0.8,2.9,1.7,5.9,2.6,8.7c0.3,0.8,0.7,1.6,1.3,2.2c0.9,1,2,1.8,3,2.8c0.2,0.2,0.3,0.5,0.3,0.6
		c0,0.2-0.3,0.6-0.5,0.6c-1.4,0.2-2.8,0.2-4.1,0.4c-0.6,0.1-1.4,0.3-1.9,0.6c-1.7,1.1-3.5,2.3-5.2,3.5c-0.8,0.6-1.7,1.3-2.2,2.1
		c-1,1.4-1.7,3-2.6,4.6c-0.8,1.7-0.7,3.5-0.3,5.2c0.8,3.1,1.8,6.2,2.8,9.3c0.1,0.6,0.2,1,0.3,1.5c0.6,3.3,1.2,6.5,1.6,9.8
		c0.2,1.8,0.1,3.7-0.2,5.4c-0.5,2.8-1.1,5.4-1.7,8.1c-0.2,0.9-0.3,1.8-0.5,2.8c-0.4-0.1-0.4-0.1-0.5-0.2c-0.2-0.2-0.3-0.4-0.5-0.6
		c-1.7-2.2-3.4-4.3-5.8-5.8c-2.1-1.3-4.2-2.7-6.4-4c-0.7-0.5-1.4-1.1-2.1-1.4c-2.7-1.1-5.2,0.8-4.8,3.8c0,0.3,0,0.6-0.2,0.7
		c-1.8,1.7-1.3,4.2-1.7,6.4c-0.2,0.6,0.4,1.4,0.6,2.1C-408.2,291.1-407.8,291.8-407.9,292.3z M-322.8,301.4
		c-0.6-1.8-1.7-3.5-2.5-5.3c-0.7-1.7-1.4-3.3-1.9-5.1c-0.5-1.5-0.7-2.9-1.1-4.4c-0.2-0.4-0.2-0.8-0.2-1.3c0,0,0.1-0.1,0.2-0.1
		c0.6,0.6,1.3,1.4,1.9,2.1c3.1,3,5.4,6.8,8.2,10.3c0.7,0.9,1.7,1.7,2.5,2.7c1.3,1.7,2.5,3.4,3.6,5.2c0.2,0.3-0.2,1-0.5,1.5
		c-0.6,0.9-1.4,1.7-2,2.5c-0.9,1.1-1.8,2.3-2.8,3.4C-319.9,309.4-321.6,305.5-322.8,301.4z M-366.1,366.2c0-0.3,0-0.5,0-0.8
		c0.2,0.1,0.4,0.1,0.7,0.2C-365.7,365.8-366,366-366.1,366.2z M-307.6,327.2c1.2-0.7,2.2-1.6,3.4-2.5c0.3,0.6,0.6,1.3,0.6,1.8
		c0.5,1.6,0.9,3.2,1.2,4.9c0.6,2.6,0.9,5.2,1.4,7.8c0.5,2.5,1.1,5,1.4,7.5c0.3,2.5,0.1,5.1,0,7.5c0,0.4-0.6,0.7-1,1.1
		c-0.3-0.4-0.8-0.6-0.9-1c-0.3-1.2-0.4-2.4-0.6-3.6c-0.1-0.6-0.1-1.2-0.3-1.7c-0.6-2.3-1.4-4.4-1.8-6.7c-0.6-2.7-0.7-5.4-1.4-8.1
		c-0.5-1.8-1.4-3.6-2.3-5.3C-308.3,328.1-308.4,327.8-307.6,327.2z M-348.4,328.3c-0.3,0-0.6,0-0.9,0.2c-1.7,0.8-3.3,0.6-5,0.2
		c-0.5-0.1-0.8-0.7-0.9-1.2c-0.1-0.7,0.6-0.7,1.2-0.8c2.2-0.3,4.4-0.6,6.6-0.6c2.2,0.1,4.4,0.6,6.5,0.9c1.2,0.2,2.3,0.7,3.5,0.8
		c0.8,0.1,0.9,0.6,1,1.1c0.6,3,2.1,5.4,4.1,7.7c0.4,0.5,0.9,0.8,1.5,1.2c-0.9,1.8-2.9,2.3-4.6,3c-3,1.3-6.1,2.5-9.6,2.2
		c-1.7-0.2-3.4,0.4-5.1,0.4c-2.2,0-4.3-0.2-6.5-0.3c-0.4,0-0.6-0.5-1-0.6c0.5-0.2,0.8-0.6,1.3-0.6c1.8-0.1,3.6,0,5.4,0
		c0.4,0,0.6-0.5,0.9-0.7c0-0.1-0.1-0.5-0.2-0.6c-0.4,0.1-0.6,0.2-1,0.3c-0.7,0.2-1.5,0.4-2.2,0.4c-1.8,0-3.6-0.1-5.4-0.2
		c-0.4,0-0.6-0.2-1-0.2c-0.7-0.1-1.6,0-1.5-1.1c0.1-0.7,1.4-1.5,2.2-1.3c1.4,0.4,2.8,0.7,4.1,1c0.8,0.2,1.7,0.3,2.7,0.4
		c0.1-0.2,0.2-0.3,0.3-0.5c-0.3-0.3-0.6-0.7-0.9-0.7c-1,0.1-2,0.1-2.9-0.6c-0.1,0-0.2-0.1-0.3-0.1c-1.7-0.3-3.4-0.6-5.2-0.9
		c-0.4-0.1-0.8-0.1-1-0.4c-0.3-0.3-0.4-0.7-0.4-1.1c0-0.2,0.4-0.6,0.6-0.6c1.7-0.3,3.2-0.5,4.9-0.7c1.5-0.3,2.6,0.9,4,1.1
		c0.2,0.1,0.5,0.2,0.6,0.2c0.2,0,0.5-0.1,0.6-0.2c-0.1-0.2-0.2-0.5-0.4-0.6c-1.3-0.6-2.5-1.3-3.8-1.7c-1-0.4-2.1-0.5-3.2-0.6
		c-0.8-0.1-1.6-0.1-1.6-1.1c0-0.9,0.6-1.5,1.6-1.5c2.9,0,5.6,0.2,8.4,0.1c0.9,0,1.7-0.6,2.7-1.1
		C-348.2,328.9-348.3,328.3-348.4,328.3z M-365.9,343.7c0.5-1.7,0.7-3.8,0.5-5.5c-0.6-3-0.5-6-0.2-8.9c0.1-1.2-0.1-2.5-0.2-3.7v-1.3
		c1.6,0.8,2.9,1.8,4.4,2.4c1.5,0.6,3.2,0.6,5.2,1c-0.3,0.3-0.6,0.6-0.8,0.6c-0.8,0.2-1.7,0.2-2.5,0.3c-1.2,0.2-2.1,1.2-2.1,2.3
		c0,1.5,0.4,1.9,1.9,2.3c0.1,0,0.3,0.1,0.5,0.2v0.3c-0.6,0.1-1.4,0.2-2,0.2c-1-0.1-1.9-0.1-2.2,1.2c-0.3,1.4,0.2,2,1.7,2.6
		c0.2,0.1,0.5,0.1,0.6,0.2c-2,3-0.6,3.8,2.7,4.1c-0.2,1.9,1.4,1.8,2.6,1.9c1.7,0.2,3.5,0.3,5.2,0.3c1.2,0,2.4-0.4,3.6-0.4
		c1.1,0,2.1-0.3,3,0.7c0.8,0.9,2.2,1.5,3.3,2.1c2.9,1.7,5.8,3.4,8.7,5.1c1.8,1,3.8,1.3,5.8,1.5c0.6,0.1,1.4,0.2,2,0.2
		c0.4,0,0.8-0.2,1.2-0.4c0-0.2-0.1-0.3-0.1-0.5c-1.7-0.2-3.6-0.1-5.2-0.6c-2.3-0.7-4.5-1.8-6.6-3c-2.7-1.5-5.2-3.2-7.8-4.9
		c0.1-0.1,0.2-0.2,0.2-0.2c3.6,0,6.7-1.7,10-2.9c0.3-0.1,0.5-0.4,0.7-0.6c0.6-0.6,1.2-0.9,2.1-0.6c0.8,0.3,1.6,0.1,2.3-0.6
		c1.7-1.5,3.6-2.8,5.4-4.1c0.6-0.4,1.5-0.5,2.1-0.8l4.1-2.2c0.5-0.2,0.8-0.6,1.3-0.8c1.6-0.9,3.2-1.8,4.9-2.8c0.3-0.1,1-0.1,1.1,0.1
		c1.4,2.2,2.9,4.5,2.5,8.1c-1,0.2-2,0.4-3,0.6c-1.4,0.3-2.7,0.6-4.1,0.9c-2.5,0.6-5,1-7.5,1.5c-1.9,0.4-4,0.7-5.9,1.1
		c-1,0.2-1,0.8-0.8,1.7c1.6-0.4,3.1-0.7,4.6-1.1c1.7-0.4,3.3-0.6,5-1c3.1-0.6,6.3-1.3,9.4-1.9c0.7-0.2,1.5-0.4,2.2-0.4
		c0.3,0,0.6,0.5,0.7,0.8c0.3,1.4,0.3,2.9,0.6,4.2c0.4,1.7,1,3.3,1.5,5.1c0.3,1.3,0.6,2.6,0.8,3.9c0.2,1.3,0.4,2.5,0.6,3.9
		c-1.7,0.6-3.7,1.5-5.6,1.8c-2.3,0.7-4.6,1.5-6.9,2.1c-1.1,0.2-2.2,0.4-3.2,0.5c-0.4,0-0.9,0-1.3,0c-1.1,0.1-2.3-0.2-3.4-0.2
		c-3.9-0.1-7.7-0.3-11.6-0.3c-4.1,0-8,0.4-12.1,0.4c-4.6,0.1-9.2-1-13.7-1.9c-2.8-0.6-5.4-1.6-8-2.7c-1.7-0.6-1.7-0.8-1.2-2.5
		C-368,350.1-366.8,346.9-365.9,343.7z M-372.7,232.8c2.9-0.2,5.4,1.4,7.7-0.6v-0.5c-0.5,0.1-0.8,0.1-1.2,0.1
		c-0.9,0.1-1.8,0.3-2.8,0.3c-1.4,0-2.9-0.1-4.2-0.1c-0.8,0.1-2.3-0.6-2.7-1.7c-0.7-1.9-1.4-3.9-1.9-5.9c-0.7-2.8-1.4-5.5-1.8-8.3
		c-0.4-2.6,0.4-5,1.4-7.3c1.9,0.6,4.4,0.1,6-1.7c-0.6,0-1-0.2-1.4-0.1c-1,0.2-2,0.6-3.1,0.7c-0.4,0-0.8-0.2-1.2-0.3
		c0-0.5-0.1-0.8,0-1.2c0.5-2.4,1.3-2.8,3.7-2c0.6,0.2,1.2,0,1.9,0c-0.7-1.3-0.7-1.3-4.7-1.7c0.4-1.6,0.6-3.1,1.1-4.6
		c0.4-1.2,0.8-2.4,1.4-3.6c0.2-0.4,0.6-0.8,1-0.9c1.4-0.5,2.8-0.8,4.2-1.1c1.5-0.3,3-0.5,4.5-0.7c1.8-0.4,3.4,0.5,5,1.1
		c1.8,0.7,3.6,1.5,5.4,2.3c1.3,0.6,1.7,1.5,1.2,2.8c-0.9,2.2-0.3,4.1,1.1,5.8c0.6,0.6,1,1.3,1.5,1.9c0.7,1.2,1.1,2.3,0.8,3.8
		c-0.2,1.2,0.1,2.5,0.3,3.7c0.1,0.6,0.6,1.1,1.1,0.4c0.7-1.1,1.3-1,1.9-0.1c0.1,0.2,0.2,0.2,0.4,0.3c0.6-1,1.2-2,1.9-2.9
		c1.1-1.3,2.3-1.1,3,0.5c0.7,1.7,0.9,3.2,0.2,5c-0.2-1.1-0.2-2.3-0.5-3.4c-0.5-1.7-1.7-2.1-2.9-0.8c-0.6,0.6-1,1.6-1.4,2.4
		c-0.1,0.3,0.1,0.7,0.3,1c0.1,0.2,0.4,0.4,0.5,0.6c0.6,1.7,0.6,1.7-1.2,2.1c-0.3,0.1-0.6,0.5-0.8,0.6c0,0.2,0.1,0.3,0.1,0.5
		c1-0.1,2-0.1,2.9-0.5c0.5-0.2,0.6-1.3,0.6-1.9c-0.1-1.1-0.5-2.2-0.7-3.6c0.3-0.3,0.7-0.6,1.5-1.3c0.4,2.2,0.8,4.1,1.3,6.6
		c-0.4,1.1-1.1,2.7-2.9,3.4c-0.8,0.4-1.7,0.6-2.5,0.9c-0.7,0.3-1.2-0.6-1-1.7c0.2-0.9,0.2-0.9-0.5-1c-0.9,3.2-1.8,6.4-2.8,9.6
		c0.1,0,0.3,0.1,0.4,0.1c1.2-1.8,1.7-4,2.2-6.2c0.6,0.1,1,0.1,1.6,0.2c-0.1,0.6,0,1-0.2,1.5c-0.5,1.4-0.5,2.7,0,4.1
		c0.6,1.9-0.1,3.8-0.9,5.5c-0.8,1.8-1.6,3.8-2.3,5.6c-0.1,0.3,0,0.6,0.3,0.8c1.2-2.9,2.4-5.7,3.5-8.4c1.2,0.5,2.3,0.8,3.4,1.2
		c0.9,0.3,1.1,0.7,0.5,1.5c-0.6,0.7-1.5,1.5-2,2.3c-1.7,2.5-3.5,5.1-5.2,7.5c-0.3,0.4-0.8,0.7-1.3,0.9c-2.2,0.9-4.4,1.7-6.8,2.8
		c0.9-2.4,1.7-4.5,2.6-6.6c-0.1-0.1-0.3-0.1-0.4-0.2c-1.1,2.6-2.3,5.2-3.5,7.9c2.7-1.1,5.3-2.2,8.3-3.4c-1.3,2.9-2.5,5.5-3.6,8.2
		c-1,2.4-1.7,4.9-2.8,7.3c-0.5,1.2-1.2,2.2-1.9,3.3c-0.6,0.9-1.4,1.7-2,2.7c-1.7,2.3-3.9,4.2-6.7,5c-2.5,0.7-4.8,0.2-6.8-1.7
		c-2.4-2.2-3.4-5-3.9-7.9c-0.7-5.1-0.5-10.1,1.4-15c0.6-1.8,1.1-3.9,2.4-5.4l0.4-0.4h0.5c0.4,1.4,0.6,2.8,1,4.1
		c0.6,1.3,1.3,2.5,1.9,3.7c0.1-0.1,0.3-0.1,0.4-0.2c-0.6-1.3-1.3-2.6-1.8-4c-0.6-1.4-0.9-2.8-1.5-4.4c0.5-0.4,1-0.8,1.7-1.4
		c0.4,0.6,0.6,1,0.8,1.4c0.1-0.1,0.2-0.1,0.3-0.2v-7.6c1.7,1.3,3.4,2.6,5,3.8C-367.5,235.3-370,234.1-372.7,232.8z M-373.2,237.3
		c0.2-0.1,0.4-0.3,0.6-0.5c0.8,1.2,0.3,2-0.4,2.7c-2.4,2.2-4,5-5.2,7.8c-0.7,1.7-1.1,3.6-1.4,5.5c-0.7,5.5-1.1,11,1.3,16.2
		c2.5,4.8,6.2,6.4,10.8,5.2c2.7-0.7,4.8-2.7,6.4-4.9c1.1-1.5,2.5-2.9,3.3-4.5c1.2-2.3,2-4.7,2.9-7.1c2-5.4,4.2-10.8,8-15.3
		c1.7-1.9,3-4.1,4.6-6.1c0.2-0.4,0.6-0.6,0.9-1c0.6,0.4,1.1,0.7,1.7,1.1c-1.7,1.7-3.3,3.4-5,5c-1.2,1.1-1.9,2.4-2.5,3.9
		c-0.1,0.5-0.3,1-0.6,1.4c-1.2,1.5-1.7,3.3-2.3,5c-1.2,2.9-2.3,5.7-3.6,8.5c-1.4,2.9-2.6,5.9-4.4,8.5c-1.8,2.7-4.3,4.9-6.5,7.3
		c-0.3,0.3-0.9,0.5-1.4,0.6c-1.7,0.4-3.3,0.9-5.1,1c-3.5,0.2-5.9-1.7-7.7-4.5c-1.7-2.8-2.4-5.8-2.5-9c-0.1-2.2-0.4-4.3-0.2-6.4
		c0.3-3.6,0.4-7.4,1.8-10.8c1.4-3.2,2.9-6.4,5.7-8.7C-373.6,237.8-373.4,237.5-373.2,237.3z M-405.3,296.1c-0.7-1-1.7-1.8-1.5-3.2
		c0.2-1,0.1-2.1,0.6-2.9c0.7-1.3,2.1-1.3,3.5-1.1c0.3,0.9,0.1,1.7-0.7,2.1c-0.3,0.2-0.3,0.6-0.5,0.9c-0.4,0.8-0.8,1.7-1.3,2.7
		c1.9-0.1,1.6-2.3,2.8-3c0.5,1.6-0.7,4.1-2.2,4.7C-404.9,296.3-405.2,296.2-405.3,296.1z M-402.8,285.4c-0.1,0-0.3-0.1-0.4-0.2
		c-0.1,0-0.1-0.1-0.1-0.1c0.2-0.5,0.4-1,0.6-1.4c0.1-0.1,0.7-0.1,0.8,0c0.9,1.6,2.3,2.8,3.7,4c0.6,0.5,0.6,1.5,0.7,2.2
		c0.3,0.9,0.5,1.7,0.7,3c-0.6,0.1-1.3,0.1-2.2,0.1c-1,0.1-1.1-0.6-1.5-1.3c-0.2-0.5-1.1-0.7-1.7-1c-0.1,0.1-0.3,0.1-0.4,0.2
		c0.2-1.2,0.3-2.4,0.6-3.5C-401.4,286.4-401.7,285.6-402.8,285.4z M-393.8,283.7c-1.2,0.6-2,0.3-2.9-0.4c-0.8-0.6-1.6-1.4-2.3-2
		c-0.1-0.1-0.2-0.3-0.4-0.6C-397.4,281.7-395.7,282.6-393.8,283.7z M-399.8,281.1c1.2,1.1,2.4,2.3,3.8,3.3c0.4,0.3,1.2,0.4,1.7,0.1
		c1.3-0.6,2-0.1,2.8,0.8c1.2,1.6,2.5,3.2,3.7,4.9c0.2,0.2,0.2,0.6,0.3,0.8c0.7,3.6,2.3,6.7,4,9.9c0.3,0.6,0.9,0.8,1.7,1.5
		c-3,0.7-3.7,0.6-9.5-1.5c0.6-1,1.4-2,2-3c0-0.1-0.2-0.3-0.2-0.1c-1.1,0.9-2.1,1.8-3.2,2.8c-0.3,0.2-0.6,0.5-0.9,0.4
		c-1.3-0.2-2.6-0.5-3.9-0.8c-1.6-0.5-3-1.1-4.5-1.7c-0.6-0.2-1.3-0.6-2-1c0.7-0.8,1.5-1.6,2-2.4c0.6-0.8,0.8-1.8,1.4-3
		c0.2,0.6,0.3,0.7,0.3,0.9c0,1.2,0.6,1.8,1.7,1.3c1.8-0.9,3.4,0.1,4.8,0.8c1.1,0.6,2,1.1,3.3,1.3c0.7,0.1,1.5,0.4,2.2,0.6
		c0.2-0.6,0.2-1.1-0.6-1.2c-0.4-0.1-0.8-0.3-1.3-0.3c-2.4-0.2-3.9-2.1-5.7-3.1c-0.6-0.4-0.9-1.4-1-2.2c-0.1-0.6,0.3-1.1,1.2-1.1
		c1.3,0,2.5-0.2,3.5-1.2h-0.7c-1.7,0.3-3.6,0.5-5-0.7c-1.2-1.1-2.3-2.5-3.1-3.9c-0.3-0.6,0-1.6,0.3-2.3
		C-400.6,280.4-400.3,280.7-399.8,281.1z M-405.9,279.6c0.2-0.9,0.8-1.7,1.8-1.7c1.5-0.1,2.5,0.4,3.5,1.7c-0.6,0.8-1.2,1.7-1.8,2.6
		c-0.6-0.2-1.5-0.6-2.3-0.8C-405.6,281-406.1,280.5-405.9,279.6z M-406.5,282.8c0.6-0.9,3-0.8,3.6,0.1c0.3,0.5-0.1,1.5-0.8,1.7
		c-0.6,0.2-1.2,0.2-1.9,0.4c-0.5-0.2-1-0.4-1.5-0.5C-407,283.9-406.8,283.3-406.5,282.8z M-407.2,286.1c0.3-0.4,1-0.5,1.6-0.5
		c0.7,0,1.5,0,2.2,0.2c0.5,0.1,0.8,0.6,1.2,0.9c-0.4,0.4-0.6,1-1,1.1c-1.2,0.4-2.6,0.2-3.4,1.5c-0.1,0.1-0.6,0.1-0.7-0.1
		c-0.2-0.5-0.3-0.9-0.5-1.4C-407.6,287.2-407.5,286.4-407.2,286.1z"/>
	<path class="st0" d="M-363.9,222.3c-2.2,1.1-4.1,2.3-6.1,2.9c-1.5,0.5-3.2,0-4.9-0.2c-0.3,0-0.6-0.5-0.7-0.7
		c-0.3-0.6-0.5-1.2-0.7-1.7c-0.3-0.7-0.5-1.4,0.2-2c0.7-0.6,2.2-0.7,2.9-0.3c0.2,0.1,0.5,0.2,0.7,0.2c0.8,0,1.7-0.2,2.4,0
		c1.7,0.3,3.3,0.7,4.9,1.2C-364.8,221.6-364.5,221.9-363.9,222.3z M-366.7,222.5c0-0.2,0-0.3,0-0.5c-0.2-0.2-0.5-0.4-0.6-0.4
		c-1.3-0.3-2.5-0.6-3.8-0.8c-0.3-0.1-0.6-0.1-0.8,0c-0.7,0.6-1.3,0.3-1.9-0.3c-0.3-0.3-1.2,0.1-1.7,0.3c-0.3,0.1-0.4,0.6-0.6,0.9
		c0.5,0.2,0.8,0.5,1.3,0.5c1.9,0.1,4,0.2,5.9,0.3C-368.1,222.5-367.4,222.5-366.7,222.5z M-368,223.5c-2.5-0.2-5-0.4-7.5-0.6
		c0.4,1,0.8,1.7,1.8,1.8C-371.7,224.8-369.7,224.9-368,223.5z"/>
	<path class="st0" d="M-370.8,203.1c0,0.7,0.2,1.5,0.1,2.2c-0.5,2.5-1.7,4.5-3.1,6.5c-1.2,1.8-1.3,1.9,0.1,3.6
		c0.2,0.2,0.3,0.6,0.5,0.7c0.3,0.3,0.6,0.5,1,0.7c0.1-0.1,0.2-0.2,0.2-0.3c-0.1-0.2-0.2-0.3-0.2-0.5c0-0.5,0-0.8,0-1.3
		c0.5,0.1,1,0.1,1.5,0.4c0.3,0.1,0.3,0.6,0.6,0.8c0.4,0.3,0.8,0.5,1.2,0.5c0.2,0,0.4-0.6,0.5-1.1c0.1-0.4,0-0.7,0.1-1.1
		c0.3,0.4,0.6,0.7,0.7,1.2c0.2,1.4-0.5,2-1.9,1.8c-0.7-0.1-1.5,0-2.2,0.1c-0.8,0.2-1.4,0.1-1.8-0.6c-0.4-0.6-0.8-1.2-1.2-1.7
		c-0.6-1-0.6-1.9,0.1-2.9c1.5-2,2.7-4.1,3.3-6.5c0.2-0.8,0.2-1.7,0.2-2.5C-371.1,203.2-371,203.1-370.8,203.1z"/>
	<path class="st0" d="M-358.4,205.7c-0.3-0.1-0.6-0.3-0.7-0.4c-1.5-1.3-3.1-1.8-5.2-1.2c-0.7,0.2-1.6,0.6-2.2-0.2
		c-0.3-0.3-0.5-0.9-0.4-1c0.5-0.3,1.2-0.7,1.4-0.6c1,0.7,2,0.5,3,0.6c1.4,0.1,2.7,0.6,3.7,1.6c0.3,0.3,0.4,0.7,0.6,1.1
		C-358.2,205.6-358.3,205.6-358.4,205.7z"/>
	<path class="st0" d="M-359.7,208.7c-0.6,0.9-1.3,1.2-2.2,0.8c-0.6-0.3-1.3-0.3-1.9-0.6c-0.7-0.3-1.5-0.6-2.2-0.9c0-0.1,0-0.2,0-0.3
		c0.4-0.1,0.8-0.3,1.2-0.3c1.3,0.2,2.5,0.4,3.8,0.6C-360.6,208.3-360.2,208.6-359.7,208.7z"/>
	<path class="st0" d="M-368.6,203.3c-0.8-0.4-0.8-1.7,0.2-3C-368.5,201.3-368.6,202.3-368.6,203.3z"/>
</g>
</svg>
