<?xml version="1.0" encoding="utf-8"?>
<!-- Generator: Adobe Illustrator 19.2.1, SVG Export Plug-In . SVG Version: 6.00 Build 0)  -->
<svg version="1.1" id="Layer_1" xmlns="http://www.w3.org/2000/svg" xmlns:xlink="http://www.w3.org/1999/xlink" x="0px" y="0px"
	 viewBox="0 0 253.8 300" style="enable-background:new 0 0 253.8 300;" xml:space="preserve">
<style type="text/css">
	.st0{fill:#673AB7;}
	.st1{fill:#FF1744;}
</style>
<g id="bleeding-girl">
	<path class="st0" d="M0,204.6c5.1-4.8,10.3-9.4,14.5-15c2.4-3.2,5.7-5.9,8.8-8.5c3.3-2.8,6.8-5.3,10.3-7.8c1.3-1,2.8-1.9,4.1-2.9
		c0.3-0.2,0.5-0.7,0.7-1.1c0.1-0.3,0.1-0.7,0.3-0.9c1.2-1.6,1.4-3.5,1.8-5.4c0.8-3.7,2-7.4,2.8-11.1c1-4.9,1.8-9.9,2.8-14.9
		c0.3-1.5,0.6-3,1.1-4.4c1.2-3.4,1.8-7,2.3-10.5c0.6-4.1,1.6-8.2,2.3-12.2c0.2-1.3,0.6-2.6,0.6-3.9c0-3.2,1.1-6.2,2-9.2
		c1.4-4.7,2.7-9.5,4.3-14.1c1.5-4.4,3.4-8.7,5-13.1c0.7-1.8,1.2-3.8,1.8-5.6c1.2-3.4,2.6-6.7,3.8-10.1c0.8-2.5,1.1-5.1,1.9-7.6
		c1.8-4.9,3.9-9.8,7.1-13.9c5.5-7.1,12.3-12.8,19.8-17.7c2.8-1.8,5.7-3.2,8.8-4.5c3.3-1.4,6.4-3.4,9.6-5c3-1.4,6.3-2,9.6-2.3
		c2.3-0.2,4.6-0.5,6.9-0.8c0.4-0.1,0.9-0.2,1.3-0.2c5.4,0,10.8-0.1,16.3,0c2.1,0,4.3,0.5,6.4,0.7c1.8,0.2,3.7,0.3,5.5,0.7
		c4.1,1,8.2,1.9,11.7,4.4c1.8,1.2,3.3,2.8,5,4.2c0.4,0.3,0.7,0.7,1.1,0.9c0.9,0.4,1.9,0.7,3,1.1c-0.2-0.6-0.4-1.1-0.6-1.6
		c-1-2.3-0.9-4.7-0.5-7c0.2-1.1,0.3-2.4,0.7-3.4c1-2,4.8-2.6,6.2-0.9c1.9,2.2,3.5,4.7,5.3,7c1.7,2.2,3.5,4.3,5.1,6.6
		c3.9,5.7,6.9,11.8,9,18.4c0.4,1.2,0.6,2.5,0.7,3.8c0.2,3.5,1.2,6.8,3.4,9.4c2.2,2.7,4.8,5.1,7.4,7.4c2.7,2.3,5.8,4.3,8.7,6.4
		c0.2,0.1,0.3,0.3,0.5,0.3c2.3-0.2,3.1,2,4.7,2.9c3.9,2.3,7.7,4.8,12.1,6.1c2.3,0.7,4.7,0.9,7.1,1.4c0.2,0,0.5,0.2,0.7,0.2
		c0,0.8,0,1.6,0,2.5c-2.2-0.5-4.3-1.1-6.8-1.7c2.6,5.1,2.2,10.3,1.7,15.3c-0.4,4.4-1.9,8.7-3.4,12.9c-1.7,4.8-4.1,9.3-8.8,11.9
		c0.7,0.9,1.5,1.6,2.1,2.5c1.6,2.6,3.1,5.3,4.6,8c2.4,4.4,5.7,7.9,10.7,9.5c0,0.7,0,1.5,0,2.2c-1.3,0.2-2.7,0.3-3.9,0.6
		c-2.6,0.7-5.2,1.6-7.7,2.3c-4.1,1.2-8.3,2.1-12.3,3.5c-3.9,1.4-7.9,1.9-12.1,1.9c-3-0.1-6.1-0.3-9-1.4c-2.5-0.9-5-0.6-7.5-0.3
		c-1.9,0.2-3.8,0.6-5.7,1c-0.5,0.1-1.1,0.7-1.3,1.1c-1,3.2-2.1,6.5-2.6,9.8c-0.4,3.4-0.2,6.9-0.1,10.4c0.1,2.5,0.3,5,0.5,7.4
		c0.1,2,0.1,4,0.3,6c0.2,3.5-0.3,6.8-1.3,10.1c-0.8,2.8-1.3,5.7-1.2,8.6c0.1,1.5-0.1,3-0.2,4.5c-0.1,0.8-0.5,1.5-1.4,1.4
		c-0.9-0.1-1.2-0.9-1-1.8c0.1-0.6,0.2-1.1,0.2-1.7c-0.3-5.2,1-10.2,2.2-15.2c0.5-2,0.2-4.1,0.3-6.1c0-0.4,0-0.9-0.1-1.3
		c-0.2-3.9-0.6-7.8-0.7-11.7c-0.1-5.3-0.4-10.7,1.2-15.9c0.4-1.3,0.8-2.6,1.3-4.1c-1.8,0.2-2.9,1.3-4.1,2.2c-0.7,0.5-1.3,1.1-2,1.7
		c-1.7,1.6-3.7,1.1-5.6,0.8c-1.3-0.2-2.5-1-3.8-1.3c-1.2-0.2-2.6,0-3.8-0.1c-1.6-0.1-2.3,0.9-3,2.1c-1.2,1.8-2.6,3.4-3.6,5.3
		c-0.8,1.4-1.1,3.1-1.6,4.6c-0.7,1.9-1.2,3.8-2.1,5.7c-1.4,3-3,6-4.5,9c-0.9,1.7-1.6,3.4-2.6,5.1c-2.7,4.5-5.4,8.9-8.1,13.3
		c-0.5,0.8-0.9,1.6-1.2,2.5c-2.4,6-6.8,10.3-11.9,14c-2.7,2-5.3,4-8.1,5.8c-1.8,1.1-3.8,2-5.8,2.7c-2.7,0.9-5.6,1.5-8.4,2.3
		c-2.9,0.9-5.8,0.5-8.6,0.4c-2.5-0.1-5-0.7-7.5-1.1c-4-0.7-7.7-2.4-11.3-4.2c-4.9-2.5-9.7-5-14.4-7.7c-2.3-1.3-4.2-3.1-6.3-4.7
		c-0.2-0.1-0.3-0.3-0.5-0.4c-2.5-1-3.8-3.3-5.3-5.4c-2-2.7-3.2-5.8-4.6-8.9c-0.8-1.7-1.9-3.3-3-4.9c-2-3-4.1-6.1-6.1-9.1
		c-1.1-1.6-1.2-1.6-3-0.8c-2.5,1-4.9,2.2-7,4c-3.7,3-7.6,5.6-11.2,8.7c-2.6,2.2-5.1,4.7-7.2,7.4c-3.3,4.3-7.1,8.1-11.1,11.7
		c-1.5,1.4-3,2.8-4.5,4.2C0,206.8,0,205.7,0,204.6z M129.9,26.9c-1.4,1-2.5,1.9-3.7,2.7c-1.2,0.9-2.5,1.6-3.5,2.6
		c-1.3,1.4-2.5,2.9-3.6,4.4c-2.1,3-4.6,5.6-7.7,7.6c-1.5,0.9-2.6,2.1-3.3,3.7c-0.3,0.7-0.9,1.4-1.4,2c-2.1,2.2-4.2,4.4-6.4,6.6
		c-2.5,2.6-3.5,5.8-3.7,9.2c-0.2,2.4-0.8,4.6-2,6.8c-1.6,3-5.8,3.3-8,2.3c-1.1-0.5-2.3-0.9-3.4-1.1c-1.9-0.4-4.1,0.5-5.1,2.3
		c-2,3.8-3.5,7.7-3.4,12.1c0,2.1,0.2,4.2,0.2,6.4c0.1,2.2,0.6,4.3,1.9,5.9c2.1,2.7,4.4,5.3,7,7.5c2,1.6,4.6,2.3,7.2,1.7
		c-0.7-4-1.4-8-2.1-12.1c-0.6,0.4-1,0.7-1.4,0.9c-3.2,2.2-5.1,1.4-7.3-0.9c-1.3-1.4-2.4-2.9-3.4-4.4c-0.2-0.3-0.2-1.2,0.1-1.4
		c0.3-0.3,1.1-0.3,1.4-0.1c0.5,0.3,0.9,0.9,1.3,1.4c1,1.2,2,2.5,3.1,3.6c1,1.1,2.4,1.1,3.5-0.1c0.8-0.8-0.2-1.4-0.5-2.1
		c-0.7-1.6-1.9-3-2.3-4.6c-0.8-2.9-1.4-5.7-3.7-7.8c-0.6-0.5-0.9-1.3-0.1-1.9c0.7-0.6,1.4-0.4,2,0.3c1.7,1.8,3,3.8,3.5,6.3
		c0.5,3,1.8,5.5,3.8,8.1c-0.2-1.5-0.5-2.8-0.5-4c-0.1-1.8,0-3.7,0-5.5c0-1,0.7-1.9,1.4-1.6c0.9,0.3,1.1,1,0.9,1.8
		c-0.1,0.3-0.1,0.7,0,1.1c0.2,3,0.4,6.1,0.8,9.1c0.4,3.7,0.8,7.4,1.7,11c1.1,4.6,2.5,9.1,3.8,13.6c0.5,1.8,0.9,3.7,1.8,5.2
		c3,4.7,6.8,8.6,11.3,11.9c4.4,3.2,9.4,5.1,14.2,7.4c4,1.9,8.1,3.5,12.2,5.2c3,1.3,6,2.6,9.1,3.6c2.4,0.8,4.9,1,7.4,0.3
		c2.3-0.7,4-2.3,5.8-3.7c2.4-1.8,4.6-3.7,7.3-5c3.4-1.6,6-4.2,7.8-7.6c1.4-2.6,2.5-5.3,3.9-7.8c2.4-4.1,4.3-8.5,6.8-12.6
		c0.9-1.5,1.1-3.6,1.6-5.4c0.7-2.6,1.3-5.1,2.2-7.6c1.6-4.6,1.8-9.4,2.3-14.2c0.3-2.8,0.6-5.6,1-8.4c0.3-2.3,0-3.3-2-4.2
		c-3.4-1.6-6-4.1-8.5-6.9c-3-3.4-6-6.9-9.1-10.2c-1.4-1.5-3.1-2.9-4.8-4.2c-5.3-3.9-11.5-5.8-17.7-7.6c-3.2-0.9-6.6-1.4-9.5-3.4
		c-1.7-1.1-2.8-2.8-3.4-4.5c-0.5-1.4,0.1-3.2,0.2-5c-1.7-0.6-3.7-1.2-5.2-2.9C130.1,31.2,129.6,29.3,129.9,26.9z M140.3,42.7
		c0,0.1-0.1,0.2-0.1,0.3c0.2,0.1,0.3,0.3,0.5,0.4c2.3,1.7,5,2.2,7.6,3c4.4,1.4,8.8,2.8,13.1,4.4c4.9,1.8,8.9,5.2,12.5,8.9
		c2.9,2.9,5.5,6,8.1,9.2c1.8,2.2,3.7,4.2,6.1,5.7c1.3,0.8,2.7,1.3,4.1,1.9c1.1,0.4,2.3,0.5,3.2,1.1c2.2,1.4,4.5,2,6.9,0.8
		c1.6-0.7,2.9-1.9,4.3-2.9c1-0.7,1.8-1.5,2.8-2.1c0.8-0.5,1.6-0.2,1.9,0.7c0.1,0.4-0.2,1.2-0.5,1.5c-0.7,0.6-1.7,0.9-2.4,1.5
		c-1.5,1.1-3,2.2-4.6,3.4c0.6,0.4,1.2,0.7,1.7,1c2.8,1.8,5.6,3.8,8.5,5.5c4.4,2.7,9,5.1,12.7,8.8c0.6,0.6,1.4,1.4,2.2,1.6
		c1.1,0.2,1.8,0.5,2.1,1.6c0.1,0.3,0.4,0.6,0.7,0.8c1,0.8,1.9,1.6,3,2.2c1.7,1,3.6,1.9,5.4,2.9c0.4-0.6,0.7-1.1,0.9-1.6
		c2.4-4.5,3.7-9.2,4.7-14.1c1-4.7,0.9-9.5-0.1-14.2c-0.4-1.8-1.1-3.7-3.1-4.6c-2.7-1.2-5.4-2.6-7.9-4c-1.5-0.8-2.8-2.2-4.3-2.9
		c-3.2-1.4-6-3.5-8.8-5.6c-3.3-2.5-6.3-5.6-9.3-8.5c-3.4-3.2-4.8-7.4-5.4-11.9c-0.2-1.3-0.2-2.7-0.6-3.9c-1.9-5.8-4.5-11.3-7.8-16.5
		c-2.1-3.1-4.5-6-6.8-9c-1.2-1.6-2.3-3.4-3.5-4.9c-0.4-0.5-1.3-0.8-2-0.8c-0.7-0.1-1.1,0.6-1.2,1.3c-0.1,0.7-0.4,1.5-0.5,2.2
		c-0.9,3.8,1,6.8,2.6,9.9c0.1,0.2,0.3,0.2,0.5,0.3c1.1,0.7,2.2,1.4,3.3,2c2.4,1.3,4.4,2.9,5.7,5.4c0.6,1.1,1.2,2.3,2.7,2.7
		c0.7,0.2,0.9,1.6,0.3,2.3c-0.6,0.8-1.3,0.7-2,0.1c-1.1-1.2-2.1-2.4-3-3.6c-0.6-0.8-1.1-1.8-1.8-2.4c-1.5-1.2-3.1-2.3-4.8-3.3
		c-3-1.9-6-3.6-9.5-4.6c-0.3-0.1-0.7-0.2-1-0.3c-2.5-1-4.8-2.2-7.4-2.9c-2.4-0.7-5-1-7.5-1.3c-2.6-0.4-5.2-0.6-7.8-1
		c-1.3-0.2-2.7-0.3-4-0.5c-1.2-0.2-2.3-0.5-3.6-0.8c0.2,2.4,0.7,4.6-0.2,6.9c1.3,0,2.4,0,3.6,0c3.2,0.1,6.4,0.1,9.5,0.5
		c4.2,0.5,8,2.1,11.7,4.1c3.1,1.7,6.3,3.3,9.4,5c0.4,0.2,0.8,0.9,0.7,1.3c-0.2,0.6-0.8,0.9-1.5,0.5c-1.7-0.9-3.5-1.7-5.2-2.7
		c-4.4-2.6-8.9-5-13.9-6c-3.5-0.7-7.1-0.7-10.7-0.9c-2.6-0.2-5.3-0.2-8-0.3c-0.9,0-1.8-0.2-2.9-0.3c0.6,4.9-2.3,6.7-6.6,7.2
		c0.4,0.3,0.6,0.5,0.9,0.5c3.2,0,6.5,0.1,9.7,0c1.5-0.1,3-0.3,4.4,0.3c1.4,0.5,2.8,0.9,4.3,1.3c4.6,1.2,9.2,2.3,13.7,3.7
		c4.4,1.3,8.7,3,13,4.5c0.7,0.2,1.2,0.7,0.7,1.4c-0.3,0.3-1.1,0.5-1.6,0.3c-2.6-0.9-5.1-2.2-7.8-2.9c-6-1.8-12.1-3.1-18-5
		c-4-1.3-8-1.9-12.2-1.6c-0.4,0-0.9,0.1-1.1,0.4c-0.5,0.8-0.9,1.6-1.3,2.5c-0.8,2-2,3.4-4.5,3.7c1.7,1.5,3.5,1.9,5.3,2.3
		c2,0.4,4.2,0.6,6.2,1c5.4,1.2,10.9,2.4,16.2,4c3.8,1.1,7.3,2.9,11,4.5c2.1,0.9,4.2,1.8,6.4,2.7c0.6,0.2,1.3,0.5,0.9,1.4
		c-0.4,0.8-1.1,0.9-1.8,0.6c-1.5-0.7-3-1.5-4.6-2.2c-4-1.8-8-3.7-12.2-5.1c-3.5-1.2-7.2-1.8-10.8-2.6c-2.5-0.6-2.5-0.6-3.7,1.7
		c-0.8,1.6-2,2.8-4,2.5C141.7,42.7,141,42.7,140.3,42.7z M58.4,169.3c0.5,0.3,1,0.6,1.4,0.8c2.6,1.3,5.3,2.6,8,3.9
		c0.4,0.2,0.8,0.2,1.1,0.4c3.4,1,6.9,2,10.3,3c0.7,0.2,1.3,0.7,1,1.6c-0.3,0.8-1,0.9-1.8,0.5c-1-0.4-2.1-0.7-3.1-1
		c-4.3-1.4-8.9-2.1-12.8-4.6c-1.3-0.8-2.8-1.2-4.4-1.9c0.7,1.2,1.3,2.2,1.8,3.2c1.7,3.8,3.5,7.6,6.1,10.9c3.1,4.1,6.6,7.8,10.8,10.7
		c3.4,2.3,7.1,4.2,10.8,6c2.7,1.3,5.7,2.3,8.6,3.1c2.4,0.7,4.9,0.9,7.4,1.1c2.2,0.2,4.5,0.3,6.7-0.1c3.1-0.6,6.3-1.3,9.2-2.6
		c5.4-2.4,9.5-6.4,12.7-11.3c2.5-3.8,5.4-7.3,8-11.1c1.6-2.3,2.9-4.9,4.5-7.6c-1.1,0.4-1.8,0.7-2.6,0.9c-1.9,0.4-3.8,0.7-5.7,1.1
		c-1.2,0.2-2.5,0.4-3.7,0.4c-0.4,0-0.8-0.7-1.2-1c0.4-0.4,0.7-1,1.1-1.1c2.8-0.6,5.6-0.9,8.3-1.5c1.7-0.4,3.2-1.2,4.9-1.7
		c0.9-0.2,1.4-0.7,1.8-1.5c1.4-2.9,2.7-5.7,4.1-8.6c0.8-1.7,1.6-3.4,2.4-5.2c-1.2,0.2-2.4,0.7-3.5,0.6c-2.4-0.2-4.9-0.5-7.1-1.2
		c-3.1-1-6.1-2.5-9.1-3.8c-6-2.6-12.2-5-18-7.8c-5.9-2.9-11.4-6.5-15.7-11.6c-2.8-3.4-5.5-6.7-6.3-11.2c-0.4-2.6-1.3-5.1-2.1-7.7
		c-0.1-0.4-0.5-1.1-0.7-1.1c-1.7-0.1-3.4-0.1-4.9-0.1c0.1,1.5,0.1,2.8,0.3,4c0.3,2.4,0.8,4.7,1.2,7.1c0.6,3.7,1.3,7.3,1.9,11
		c0.5,3.2,1,6.3,1.5,9.5c0.3,2.2,0.5,4.4,1,6.6c0.6,2.7,0.6,5.5,1.9,8.1c0.7,1.5,0.1,2.5-1.6,3.4c-0.9-3.7-1.9-7.5-2.8-11.1
		c-1.2,1.4-2.1,2.9-3.4,4.2c-1.3,1.2-2.7,2.3-4.2,3.3c-1.6,1-3.3,1.6-4.9,2.5c-2.5,1.4-5,2.9-7.5,4.2c-1.8,0.9-3.7,1.4-5.5,2.1
		c-1.9,0.7-3.8,1.4-5.7,2.1C58.8,169.1,58.6,169.2,58.4,169.3z M171.9,143.9c1.8,0.1,3.8,0.2,5.8,0.5c1.1,0.2,2.1,0.9,3.3,1.2
		c1.1,0.3,2.3,0.5,3.4-0.6c2.4-2.3,5.4-3.7,8.2-5.3c0.2-0.1,0.5-0.1,0.7-0.1c3.1-0.5,6.1-1,9.2-1.4c1.7-0.2,3.5-0.4,5,0
		c4.4,1.2,8.8,1.9,13.3,1.6c2.1-0.1,4.1-0.3,6.1-0.8c2.9-0.7,5.7-1.8,8.5-2.6c4.5-1.4,9-2.7,13.9-4.2c-0.5-0.3-0.7-0.4-0.8-0.5
		c-2-2-4.3-3.7-5.9-6c-2.2-3.1-3.7-6.6-5.7-9.8c-1.1-1.9-2.5-3.6-4.9-4c-1.2-0.2-2.2-1-2.5-2.1c-0.6-2-1-4-1.3-6
		c-0.4-2.3-0.4-4.4-2.5-6.2c-3.1-2.6-6.5-4.9-10-7.1c-3.1-2-6.3-3.9-9.4-5.8c-1.8-1.2-3.6-2.3-5.8-2.8c-2.1-0.5-4.1-1.5-6.1-2.3
		c-0.1-0.1-0.3-0.1-0.3-0.1c-0.4,2.4-0.9,4.7-1.1,7c-0.3,2.8-0.3,5.5-0.5,8.3c-0.1,1.2-0.1,2.4-0.3,3.5c-0.6,2.7-1.3,5.3-2,7.9
		c-0.6,2.2-1.4,4.4-2,6.5c-0.6,1.9-1,3.8-1.6,5.6c-0.3,1-1.1,1.8-1.6,2.7c-0.9,1.7-1.7,3.5-2.6,5.3c-1.5,2.9-3,5.7-4.5,8.5
		c-1,1.9-2,3.8-3.2,5.7C173.7,141.9,172.6,143,171.9,143.9z M45.7,170.8c1.9,3,3.8,5.8,5.6,8.6c1.3,2.1,2.7,4.2,3.8,6.4
		c2.5,4.9,4.4,10.1,9.2,13.5c3.1,2.2,6.1,4.7,9.5,6.4c1.5,0.7,3,1.4,4.4,2.2c4.7,3,9.7,5.3,14.9,7c3.8,1.3,7.8,1.7,11.8,1.9
		c3.2,0.2,6.2-0.3,9.2-1.2c4.3-1.3,8.6-2.4,12.3-5.2c2.8-2.1,5.6-4.2,8.4-6.5c3.7-3,6.8-6.5,8.6-11c0.5-1.2,1.1-2.4,1.8-3.6
		c2.4-3.9,5-7.6,7.1-11.6c2.7-4.9,4.9-10.1,7.6-15.1c1.3-2.4,1.8-5,2.6-7.5c0.6-1.9,1.1-3.9,2.7-5.3c0.8-0.7,1.4-1.7,2.2-2.6
		c-0.1-0.1-0.2-0.2-0.3-0.3c-1.2,0.8-2.4,1.5-3.5,2.3c-2,1.4-3.9,2.9-5.8,4.4c-0.3,0.2-0.6,0.6-0.7,0.9c-2.4,5.1-4.5,10.3-7.1,15.3
		c-2,4-4.4,7.8-6.9,11.5c-2.4,3.7-5.3,7.1-7.8,10.7c-2.3,3.4-4.6,6.7-7.8,9.4c-2.5,2.1-5.1,3.9-8.2,5.1c-3.6,1.4-7.3,2.5-11.1,2.6
		c-2.8,0.1-5.6-0.5-8.5-0.7c-3.2-0.3-6.4-0.8-9.4-2.2c-2.2-1-4.4-2-6.5-3.2c-3-1.6-6.1-3-8.8-4.9c-4.7-3.4-8.9-7.6-12.1-12.5
		c-2.9-4.5-5.1-9.3-7.6-14c-0.5-0.9-0.8-1.7-2-1.8c-1,0-2.1-0.1-3.1,0C48.9,170.5,47.4,170.7,45.7,170.8z M230.5,101.9
		c-0.3,2.1,0.1,4.2,0.9,6.3c0.2,0.6,0.7,1.2,1.2,1.5c1.9,0.8,5.1-0.8,5.9-2.8C235.8,105.2,233.1,103.5,230.5,101.9z M146,11.9
		c-0.1-1-0.2-1.9-0.4-2.7c-0.2-0.9-1-1.4-1.8-1c-1.9,1-4,1.9-4.8,4.3c-0.3,0.8-0.2,1.3,0.6,1.4c1.1,0.2,2.3,0.3,3.4,0.6
		c1.3,0.4,2.1,0,2.6-1.2C145.8,12.8,145.9,12.3,146,11.9z M138.1,15.6c-1.6,0-3.1-0.1-4.6,0c-0.4,0-1.2,0.4-1.2,0.8
		c-0.4,1.4-0.6,3-0.9,4.4C136.6,21.6,139.1,19.6,138.1,15.6z M145.7,37.4c-1.4-0.4-2.8-0.7-4.1-1c-1.6-0.4-2.7-0.1-3,0.9
		c-0.5,1.4,0,2.6,1.4,3.2c0.3,0.1,0.6,0.2,0.9,0.3c1.9,0.6,3,0.2,3.9-1.6C145.1,38.7,145.3,38.1,145.7,37.4z M136.4,25.9
		c-1.2-0.1-2.3-0.3-3.5-0.4c-0.3,0-0.8,0.3-0.9,0.4c-0.1,1.2-0.2,2.5-0.2,3.7c0,0.2,0.5,0.4,0.8,0.5C135,30.6,136.8,28.3,136.4,25.9
		z"/>
	<path class="st0" d="M253.8,209.8c-4.5,2.8-8,6.6-11.8,10.2c-1.9,1.7-2.7,3.7-2.7,6.2c-0.1,3.6,0.7,6.9,1.4,10.4
		c1.1,5.6,2.3,11.2,3.3,16.9c0.6,3.3,0.8,6.6,1,9.9c0.3,3.5,0.3,6.9,0.5,10.4c0.5,6.8,1.4,13.4,3.7,19.9c0.7,2,1,4.2,1.5,6.3
		c-0.8,0-1.6,0-2.5,0c-0.7-3-1.4-6-2.3-8.9c-1.2-3.7-1.9-7.5-2.2-11.4c-0.4-5.2-0.5-10.5-1-15.7c-0.5-5.1-1.3-10.2-2.2-15.3
		c-1-5.9-2.3-11.7-3.5-17.5c-0.8-3.9-1.6-7.9-2.5-11.8c-0.2-1-0.6-1.9-1-2.8c-1.2-2.6-1.1-5.3-1-8.1c0.1-1.7,0.3-3.5,0.6-5.2
		c0.1-0.5,0.7-1,1.2-1.2c0.3-0.1,0.9,0.1,1.2,0.4c0.2,0.2,0.3,0.8,0.2,1.1c-1.4,4.3-1.4,8.6,0.5,12.8c0.7,1.5,0.9,3.2,1.4,4.7
		c3.4-3.3,6.7-6.6,10.1-9.8c1.2-1.1,2.7-1.9,4.1-2.8c0.7-0.5,1.4-1.1,2-1.7C253.8,207.7,253.8,208.7,253.8,209.8z"/>
	<path class="st0" d="M47.8,300c-0.2-2.4-0.4-4.7-0.7-7.1c-0.6-6.1-1.2-12.2-1.9-18.3c-0.5-4.1-1.2-8.3-1.8-12.4
		c-0.1-0.4-0.2-0.7-0.4-1.4c-0.4,0.5-0.6,0.8-0.8,1.1c-0.8,1.3-1.6,2.7-2.4,4c-5.3,8.4-11.7,15.9-17.8,23.7
		c-0.9,1.1-1.6,2.5-2.3,3.7c-0.4,0.7-1,1.2-1.8,0.9c-0.8-0.3-0.9-1.1-0.7-1.9c0.1-0.3,0.3-0.6,0.5-0.9c2.8-3.5,5.7-6.9,8.4-10.5
		c3.8-5.1,7.6-10.2,11.3-15.4c1.7-2.5,3.2-5.1,4.8-7.7c0.1-0.2,0.3-0.6,0.2-0.8c-0.4-1.6-0.8-3.3-1.3-4.8c-0.8-2.2-1.6-4.4-2.5-6.5
		c-0.2-0.6-0.5-1.1-0.7-1.7c-0.2-0.7-0.5-1.5-0.4-2.2c0-0.5,0.6-1.2,1-1.2c0.4,0,1.1,0.5,1.3,1c0.5,1.2,0.7,2.5,1.1,3.7
		c0.7,1.9,1.5,3.8,2.2,5.7c0.3,0.8,0.8,1.6,1,2.5c1.2,6.1,2.8,12.3,3.5,18.5c1.2,9.4,1.8,18.8,2.7,28.2C49.3,300,48.5,300,47.8,300z
		"/>
	<path class="st0" d="M135.7,77.1c-3.9-0.3-7.2-1.1-10.2-3.3c-1.5-1.1-3-2.3-5-2.6c-0.3,0-0.6-0.6-0.9-0.9c0.3-0.3,0.6-0.6,0.9-0.7
		c1.6-0.6,3.2-1.3,4.9-1.7c1.5-0.4,3-0.7,4.5-0.9c1.7-0.2,3.4-0.4,5.1-0.5c2.8-0.1,4.9,1.6,6.8,3.4c0.9,0.9,1.6,2,2.5,3
		c0.2,0.2,0.3,0.5,0.6,0.6c0.7,0.2,0.9,0.6,0.7,1.2c-0.2,0.4-0.6,0.9-1,1c-1.7,0.4-3.4,0.7-5.1,1C137.9,76.7,136.7,76.9,135.7,77.1z
		 M136.3,68.4c1,2.9,0.2,5.1-2.1,7c0.1,0.1,0.1,0.2,0.2,0.4c2.9-0.5,5.8-0.9,8.8-1.4C142,71.7,139.3,69.4,136.3,68.4z M126.4,69.3
		c-1.1,0.3-2.2,0.6-3.5,1c1.4,0.9,2.6,1.7,3.7,2.5C126.6,71.7,126.5,70.6,126.4,69.3z M131.6,72c0.5-0.8,1.1-1.3,1.1-1.8
		c0-0.4-0.8-1.1-1.1-1.1c-0.5,0.1-1.1,0.7-1.2,1.2C130.4,70.8,131,71.3,131.6,72z"/>
	<path class="st0" d="M182.3,78.3c0.3,0.5,0.4,1,0.7,1.3c1.6,1.3,2.1,3.4,3.4,4.9c0.6,0.6,0,1.5-1,1.4c-2.4-0.2-4.9-0.3-7.3-0.5
		c-3.8-0.4-7.4-1.2-10.7-3.3c-0.6-0.4-1.3-0.6-2-0.9c-1.1-0.4-1.3-1.1-0.5-2c0.7-0.8,1.4-1.6,2.2-2.3c1-0.9,2.2-1.3,3.5-1.4
		c2.9-0.1,5.7,0.1,8.4,1c0.9,0.3,1.6,1,2.4,1.5C181.8,78.2,182.1,78.3,182.3,78.3z M178,78c0.5,2.2-0.1,4-1.7,5.7
		c2.7,0.2,5.1,0.3,7.7,0.5C182.7,81.3,180.9,79.4,178,78z M173.1,77.2c-0.6,0.8-1.1,1.2-1.2,1.7c-0.1,0.2,0.8,1,1,0.9
		c0.5-0.2,1-0.7,1.3-1.2C174.2,78.5,173.6,78,173.1,77.2z M168.1,78.4c-0.4,0.4-0.9,0.9-1.5,1.4c0.4,0.2,0.9,0.4,1.3,0.6
		C168.1,79.5,168.1,78.9,168.1,78.4z"/>
	<path class="st0" d="M152.8,129.3c-4.7-0.8-9.3-1.7-12.8-5.3c-1.3-1.3-2.6-2.8-4.5-3.4c-0.8-0.2-1.7-0.3-2.5-0.5
		c-0.3-0.1-0.5-0.3-0.7-0.5c0.2-0.2,0.4-0.6,0.7-0.7c0.8-0.2,1.7-0.5,2.5-0.5c3,0.1,5.7-1.1,8.5-1.7c1.5-0.4,3-0.7,4.5-1
		c1.1-0.2,2.2-0.1,3,0.8c0.3,0.4,1.2,0.7,1.6,0.5c2.5-0.9,4.2,0.5,5.9,2c0.7,0.6,1.2,1.4,1.8,2c0.9,0.8,1.5,1.9,2.9,2.1
		c0.6,0.1,1,0.8,0.2,1.2c-3,1.6-6.1,3.1-9.2,4.6C154.2,129.2,153.5,129.2,152.8,129.3z M138.4,120.2c0,0.1,0,0.2,0,0.3
		c0.7,0.7,1.4,1.4,2.1,2.2c3.2,3.6,7.5,4.5,11.9,5.3c2.2,0.4,4.1-0.9,5.9-1.9c0.9-0.5,1.8-1.1,2.8-1.6c-0.3-0.2-0.4-0.3-0.5-0.3
		c-3.1-0.5-6.2-1.3-9.3-1.5c-3-0.2-5.9-0.8-8.7-1.5C141.1,120.8,139.7,120.5,138.4,120.2z M160.2,122.4c-1-1-2-2.1-3.1-3.1
		c-1-0.9-2-1.4-3.5-0.9c-1,0.3-2.2,0.3-3-0.7c-0.6-0.8-1.4-0.8-2.2-0.6c-2.6,0.6-5.3,1.3-7.9,1.9
		C146.8,121.4,153.5,121.5,160.2,122.4z"/>
	<path class="st0" d="M143.7,55.7c-1-0.4-1.8-0.8-2.6-1.1c-0.9-0.3-1.8-0.5-2.7-0.6c-1-0.1-2,0-2.9,0c-4.4-0.3-8.5,0.9-12.4,2.7
		c-0.7,0.3-1.5,0.5-2.1,0.8c-0.9,0.5-1.7,1.2-2.6,1.7c-0.5,0.3-1,0.6-1.6,0.6c-0.4,0-1-0.3-1.1-0.7c-0.1-0.4,0.1-1,0.3-1.3
		c1.2-1.3,2.6-2.3,4.4-2.8c1.7-0.5,3.3-1.3,4.9-2c2.9-1.3,6-1.8,9.1-1.6c1.3,0.1,2.5,0.1,3.8,0c2.2-0.1,4,0.8,5.8,1.8
		c0.3,0.2,0.6,0.9,0.5,1.4C144.6,55.1,144,55.4,143.7,55.7z"/>
	<path class="st1" d="M152.3,63.8c0-1.1,0-2.3,0-3.4c0-2.1-0.4-4-1.8-5.6c-0.6-0.7-1-1.6-1.3-2.5c-0.1-0.4-0.1-1.1,0.2-1.3
		c0.3-0.3,1-0.4,1.4-0.3c0.4,0.1,0.8,0.6,1,0.9c0.7,1.2,1.4,2.5,2,3.8c0.3,0.7,0.6,1.4,0.7,2.1c0.1,3,0.1,6,0.2,9
		c0,1.2,0.3,2.4,0.4,3.6c0.3,2.1,0.7,4.2,0.9,6.3c0,0.4-0.6,1.2-1,1.2c-0.4,0.1-0.9-0.5-1.4-0.8c-0.1-0.1-0.1-0.2-0.1-0.3
		C153.8,72.1,151.1,68.1,152.3,63.8z"/>
	<path class="st1" d="M147,64.9c0.9-3.4-0.1-6.8-0.9-10.3c-0.2-0.7-0.5-1.4-0.8-2c-0.4-1-0.5-1.9,0.3-2.7c0.3-0.3,0.9-0.4,1.2-0.3
		c0.3,0.1,0.7,0.6,0.8,0.9c0.3,0.7,0.5,1.5,0.6,2.3c0.6,2.9,1.4,5.8,1.6,8.7c0.2,2.5-0.2,5.1,0.3,7.7c0.1,0.4,0.1,0.9,0,1.2
		c-0.3,0.5-0.8,1-1.2,1.1c-0.3,0-1-0.6-1.1-1C147.4,68.6,147.2,66.9,147,64.9z"/>
	<path class="st0" d="M162.3,73.6c-0.2,2.3-0.4,4.3-0.6,6.3c-0.3,2.6,1,5,1.3,7.5c0.5,3.1,2.2,5.6,3.2,8.5c0.6,1.6,0.8,3.4,0.8,5.1
		c0.1,1.4-0.8,2.5-1.9,3.3c-0.6,0.4-1.2,0.8-1.9,1.1c-0.3,0.1-0.6,0.1-0.9,0.1c0-0.4,0.1-0.7,0.2-1.1c0-0.1,0.2-0.2,0.4-0.3
		c3.2-2,3.6-2.9,2.6-6.4c-0.4-1.4-1.2-2.7-1.7-4.1c-0.9-2.7-1.7-5.4-2.6-8c-1.3-3.8-0.6-7.6-0.2-11.5c0-0.4,0.6-0.6,0.9-1
		C162,73.3,162.3,73.6,162.3,73.6z"/>
	<path class="st0" d="M148.7,90.8c-0.3,0.4-0.5,1-0.9,1.3c-1.6,1.2-2.3,2.9-3.1,4.6c-0.6,1.3,0.2,2.7,1.6,3.3
		c0.2,0.1,0.5,0.4,0.5,0.6c-0.1,0.2-0.4,0.5-0.6,0.6c-1.4,0.4-2.8-1.7-2.8-3.1c-0.1-2.6,1.3-4.5,2.8-6.2c0.5-0.6,1.3-1,2-1.5
		C148.4,90.5,148.6,90.6,148.7,90.8z"/>
	<path class="st0" d="M150.5,96.7c1.6-0.1,2.6,1.1,2.8,2.1c0.1,0.7-1.1,1.4-2.4,1.4c-1.4,0-2.6-1-2.5-2.1
		C148.5,96.8,149.5,96.7,150.5,96.7z"/>
	<path class="st0" d="M160.3,102.4c-0.7,0-1.2-0.3-1.2-1.2c0-0.9,1.4-1.8,2.8-1.8c0.8,0,1.2,0.3,1.3,1.1
		C163.3,101.5,161.9,102.1,160.3,102.4z"/>
</g>
</svg>
