<?xml version="1.0" encoding="utf-8"?>
<!-- Generator: Adobe Illustrator 19.2.1, SVG Export Plug-In . SVG Version: 6.00 Build 0)  -->
<svg version="1.1" id="Layer_1" xmlns="http://www.w3.org/2000/svg" xmlns:xlink="http://www.w3.org/1999/xlink" x="0px" y="0px"
	 viewBox="0 0 300 228.4" style="enable-background:new 0 0 300 228.4;" xml:space="preserve">
<style type="text/css">
	.st0{fill:#E91E63;}
</style>
<g id="fever-boy">
	<path class="st0" d="M116.2,0c-3.4,2.8-6.6,5.8-9.2,9.4c-2.2,3-4.8,5.8-7,8.8c-1.5,2-3.6,3.1-5.2,4.9c-3.2,3.7-6.5,7.3-9.8,10.9
		c-2.3,2.5-4.6,5.1-7,7.6c-2,2.1-4.2,4.1-6.3,6.2c-1.5,1.5-2.8,3.1-4.3,4.5c-1.5,1.5-3.2,2.9-4.8,4.3c-2,1.8-4.2,3.4-6,5.3
		c-2.1,2.3-3.8,5-5.8,7.4c-3.4,4.1-6.1,8.6-9.8,12.4c-2.8,2.9-5.9,5.2-8.9,7.8c-2.6,2.1-5,4.5-7.3,6.9c-3.3,3.5-5.5,7.8-7.7,12
		c-1.1,2.1-1.5,4.4-2.1,6.6c-0.6,2.4-1.4,4.7-1.8,7c-0.4,2.2-0.6,4.5-0.9,6.8c-0.4,3.3,0.5,6.2,2.1,9c0.6,1,0.5,2.4,0.8,3.5
		c0.1,0.6,0.3,1.1,0.4,1.7c0.3,1.1,0.8,1.4,2.1,1.2c-0.1-0.4-0.3-0.8-0.4-1.2c-0.8-2.3-1.7-4.5-2.3-6.8c-0.4-1.3-0.4-2.7-0.6-4
		c-0.1-1.1-0.4-2.3-0.4-3.4c0-1.5,0.1-2.9,0.3-4.4c0.1-1.1,0.5-2.2,0.7-3.4c0.1-0.6,0.5-0.8,0.9-0.6c0.3,0.1,0.6,0.7,0.5,0.9
		c-0.7,2-0.6,4-0.6,6c0,1.3,0,2.5,0,3.8c0,0.2,0.3,0.5,0.5,0.6c0.5,0.2,1.1,0.3,1.6,0.5c0.3,0.2,0.5,0.6,0.7,1
		c-0.3,0.2-0.6,0.4-0.9,0.4c-0.6,0-1.1-0.2-1.9-0.3c0.3,1.3,0.6,2.5,1,3.7c1.1,3.1,2.2,6.2,3.6,9.3c0.6,1.3,1.7,2.3,2.5,3.5
		c0.2,0.3,0.5,0.5,0.7,0.7c0.6,1.1,1.3,1.5,2.7,1.2c0.7-0.2,1.6,0.4,2.6,0.7c-0.7-1.2-1.4-2.4-2.1-3.5c-2.1-3.7-4.2-7.5-6.2-11.3
		c-0.9-1.7-0.7-3.7-0.6-5.5c0.1-2,0.3-3.9,0.6-5.9c0.3-2.3,0.6-4.6,0.9-6.9c0.1-0.5,0-0.9,0.2-1.4c0.1-0.4,0.4-0.7,0.7-1
		c0.3,0.3,0.7,0.5,0.9,0.8c0.1,0.3,0.1,0.7,0,1c-0.4,2.1-0.8,4.3-1.2,6.4c0,0.1,0,0.3-0.1,0.4c-0.1,3-0.3,6-0.4,9c0,0.3,0,0.7,0,1.1
		c1.5,0,2.9,0,4.3,0c0.6,0,1.1,0.1,1.1,0.8c0,0.8-0.5,0.6-1,0.7c-1.2,0.1-2.4,0.2-3.8,0.3c0.9,1.7,1.8,3.4,2.7,5
		c1.9,3.3,3.8,6.5,5.8,9.8c1.1,1.7,2.1,3.4,3.5,4.8c1.1,1.1,2.7,2,4.2,2.6c0.9,0.3,2,0.1,3-0.2c2-0.5,3.5,0.3,4.9,1.6
		c0.4,0.4,0.8,0.8,1.3,1.2c0.2,0.2,0.6,0.4,0.8,0.3c0.2-0.1,0.5-0.5,0.5-0.8c0.2-1.1-0.7-2.8-1.7-3.2c-1.9-0.8-3.7-1.9-4.9-3.6
		c-1.6-2.1-3.1-4.3-4.7-6.5c-1.3-1.9-2.7-3.8-3.7-5.8c-1.3-2.5-2.2-5.2-2.3-8c-0.1-3.9-0.6-7.8-1.6-11.6c-0.3-1.2-0.2-2.5-0.2-3.8
		c0-0.3,0.4-0.7,0.6-0.8c0.2-0.1,0.6,0.3,0.8,0.5c0.1,0.1,0.2,0.4,0.1,0.6c-0.2,2.5,0.6,4.9,1,7.3c0.3,1.6,0.4,3.2,0.6,4.8
		c0.2,1.7,0.2,3.5,0.4,5.2c0.1,1.2,0.9,1.5,2.4,1.3c0.8-0.1,1.7-0.2,2.5-0.1c0.2,0,0.6,0.5,0.6,0.7c0,0.2-0.4,0.6-0.6,0.7
		c-1.3,0.2-2.5,0.3-4.2,0.5c1.2,1.9,2.3,3.7,3.4,5.4c1.8,2.8,3.7,5.5,5.6,8.2c1.2,1.7,3.1,2.7,5.1,3.5c0.2,0.1,0.5-0.2,0.8-0.3
		c0.6-0.3,1.2-0.8,1.8-0.8c1.8-0.1,3.5-0.1,5.2,0.7c0.6,0.3,1.3,0.5,1.9,0.7c0.3-1.5-0.1-2.7-1.1-3.6c-1.5-1.5-3.2-3-4.8-4.4
		c-0.2-0.1-0.4-0.2-0.6-0.3c-3.4-0.4-5.3-3.3-4.8-6.7c0.2-1.8,0-3.6-0.2-5.4c-0.3-2.6-0.8-5.2-0.9-7.9c-0.1-2.6,0.1-5.2,0.2-7.8
		c0.1-1.2,0.3-2.4,0.4-3.5c0.1-0.8-0.2-1.4-0.8-2c-0.5-0.5-1.1-1.1-1.5-1.7c-0.2-0.3-0.1-0.7-0.1-1.1c0.4,0,0.8-0.1,1.1,0.1
		c0.4,0.2,0.8,0.5,1,0.8c1.3,1.7,3.1,1.8,5,1.4c1.1-0.2,2.3,0,3.4-0.7c0.1-0.1,0.4-0.1,0.4-0.2c0.3-0.8,0.7-1.6,1-2.4
		c0.7-1.9,1.4-3.9,2.1-5.8c0.1-0.3,0.3-0.6,0.6-0.7c0.4-0.1,0.8-0.1,1.2-0.1c0,0.4,0,0.8-0.1,1.2c-0.6,1.7-1.5,3.3-1.8,5
		c-0.5,2.4-0.2,5-0.9,7.4c-0.7,2.6-2,5.1-3.2,7.5c-1,2.1-2.4,4.1-3.4,6.2c-1.2,2.5-1.9,5.1-1.7,7.9c0.1,0.8-0.1,1.7-0.2,2.5
		c-0.2,2.4,1.7,4.5,4.8,4.1c-0.5-0.4-1-0.8-1.4-1.2c-1.3-1.2-1.6-4.4-0.5-5.9c0.4-0.6,0.9-1.2,1.2-1.9c1-2,3.2-2.2,5.3-1.5
		c2.5,0.8,2.5,0.9,3.7-1.4c0.7-1.5,1.3-3,2.1-4.5c0.3-0.6,0.1-0.9-0.5-1.1c-0.8-0.3-1.6-0.5-2.4-0.9c-0.4-0.2-0.9-0.8-0.8-1.1
		c0.1-0.6,0.7-0.6,1.3-0.3c1,0.4,2,0.7,3.1,1c0.1-0.3,0.3-0.5,0.4-0.8c0.8-3.7,2.6-7,4.1-10.4c2.1-4.7,4.2-9.5,6.2-14.2
		c0.8-1.9,0.7-3.9,0.4-5.9c-0.7-4.1-1-8.2-0.8-12.3c0-0.7,0.3-1.4,0.5-2.2c0.1-0.3,0.3-0.5,0.3-0.8c-0.3-2.3,1.6-3.4,3-4.6
		c3-2.6,6.1-4.9,9.1-7.4c2.2-1.8,4.4-3.6,6.7-5.4c1-0.7,2.1-1.3,3.1-2c3.3-2.1,6.5-4.2,9.8-6.4c3.7-2.5,7.6-4.6,11.5-6.7
		c4.7-2.6,9.3-5.4,13.9-8.2c4.3-2.7,8.5-5.7,12.8-8.5c2.4-1.6,5-3.2,7.3-4.9c3.3-2.4,6.4-5,9.7-7.4c2.4-1.7,4.9-3.3,7.3-5
		c0.3-0.2,0.6-0.4,0.8-0.6c3.6-3.8,7.8-6.8,11.9-9.9c2.1-1.6,4.1-3.2,6.2-4.7c1.4,0,2.8,0,4.1,0c-1.1,0.6-2.2,1.2-3.2,1.9
		c-3.3,2.4-6.6,4.8-9.8,7.3c-2.8,2.3-5.4,4.8-8.2,7.1c-1.3,1.1-2.9,2-4.3,3.1c-4.3,3.2-8.6,6.5-12.9,9.6c-2.1,1.5-4.4,2.9-6.6,4.4
		c-3.3,2.3-6.5,4.7-9.8,6.9c-4.5,2.9-9.1,5.6-13.7,8.3c-3.5,2.1-7.2,3.8-10.7,6c-3.3,2-6.4,4.4-9.7,6.5c-1.7,1.1-3.5,2-5.1,3.1
		c-2.3,1.6-4.6,3.3-6.8,5c-3.3,2.5-6.6,5-9.9,7.7c-1.2,1-2.4,2.1-3.4,3.4c-1.2,1.6-1.7,3.6-1.8,5.6c0,2.4,0.1,4.9,0.4,7.3
		c0.1,0.6,1.1,1.2,1.8,1.5c1.3,0.6,2.7,1,4.1,1.4c5.4,1.4,10.8,2.8,16.3,4.1c1.6,0.4,3.4,0.4,5,0.9c4.5,1.4,9.1,2.6,13.4,4.6
		c1.4,0.7,2.9,0.9,4.2,1.7c2.1,1.1,4.2,2.4,6.2,3.8c1.5,1,2.8,2.4,4.2,3.5c2.4,2,4.1,4.5,5.6,7.2c0.5,0.9,2.9,2.2,3.7,1.9
		c0.4-0.2,0.8-0.4,1-0.7c2-2.3,3.2-5.1,4.5-7.9c1.5-3.2,2.8-6.5,5.7-8.8c1.5-1.2,3-2.4,4.5-3.6c1.1-0.9,2.1-1.8,3.3-2.6
		c1.5-1.2,3.4-1.3,5.2-1.5c1.4-0.1,2.8-0.5,4.2-0.4c2.4,0.3,4.9,0.8,7.3,1.3c1.8,0.4,1.8,0.5,2.8-1c1.1-1.6,2.2-3.2,3.4-4.7
		c0.4-0.5,1-0.9,1.5-1.3c1.6-1.2,3.3-2.3,5-3.5c0.6-0.4,1.2-0.8,1.7,0c0.4,0.6,0.2,1.2-0.6,1.7c-1.2,0.8-2.2,1.8-3.4,2.5
		c-3,1.6-4.4,4.6-6.3,7.2c-1.8,2.6-3.5,5.2-6.1,7.1c-0.5,0.4-0.9,0.9-1.2,1.4c-1.6,2.3-2.8,4.7-3.3,7.5c0,0.2-0.1,0.4-0.2,0.6
		c-1.6,1.7-1.8,4-2.3,6.1c-0.8,2.8-1.6,5.5-1.9,8.4c-0.4,3.5-1.4,6.8-2.5,10.1c-1.4,4.3-3.3,8.3-6.3,11.7c-1.2,1.4-2.3,2.8-3.3,4.3
		c-0.4,0.6-0.7,1.4-0.7,2.1c-0.2,2.2-0.4,4.4-0.4,6.6c0,4.3-0.6,8.4-2,12.5c-1.8,5.1-3.1,10.2-4.6,15.4c-0.9,3.1-2.6,5.9-4.2,8.7
		c-2.6,4.5-4.3,9.3-5.5,14.3c-0.7,2.8-1.4,5.5-2.1,8.3c-0.2,0.6-0.3,1.3-0.4,1.9c-0.1,0.8-0.3,1.5-1.3,1.3c-0.7-0.1-1-0.8-0.7-1.7
		c0.4-1.7,0.8-3.3,1.3-5c1.4-4.9,2.3-10,4.5-14.7c0.9-1.9,1.9-3.8,2.9-5.7c0.5-0.9,1-1.8,1.5-2.7c-2.2-1.6-4.4-3.2-6.6-4.8
		c-3.2-2.4-4.7-5.9-5.5-9.7c-0.7-3-1.7-5.9-3.3-8.5c-0.7-1.1-1.7-1.8-2.9-2.2c-1.1-0.4-2.2-1.2-3.5-0.9c-2,0.3-3.9,0.9-5.7,2
		c-1.4,0.8-3.1,1.2-4.7,1.3c-4.1,0.2-8.3,0.5-12.4,1.2c-1.4,0.3-2.8,0.2-4.2,0.3c-3.5,0.2-7,0.2-10.5,0.5c-1.6,0.1-3.1,0.5-4.6,0.9
		c-2.1,0.5-4.1,1.2-6.3,0.8c-0.5-0.1-1-0.3-1.4-0.5c-1.1-0.3-2.1-0.7-3.2-0.7c-1.9-0.1-3.8,0.1-5.7,0.2c-0.6,0-1.2,0.4-1.7,0.7
		c-3.2,1.9-6.4,4-9.7,5.9c-2.8,1.6-5.8,2.4-8.9,3.1c-4.4,1-8.9,1.9-13.1,3.7c-1.8,0.8-3.6,1.4-5.4,2c-1.6,0.5-3,1.1-4,2.5
		c-0.2,0.2-1,0.2-1.4,0c-0.6-0.4-0.6-1.5,0.1-1.9c1.4-0.9,2.7-1.9,4.4-2.4c2.3-0.6,4.6-1.5,6.7-2.4c2.8-1.2,5.7-1.7,8.6-2.4
		c2.7-0.7,5.5-1.3,8.2-2.1c3.2-1,5.9-2.9,8.8-4.9c-1.2-0.3-2.3-0.4-3.2-0.7c-2.3-0.7-4.5-1.5-6.8-2.3c-4.9-1.7-9.9-3.5-14.8-5.2
		c-3.2-1.1-6-2.8-8.7-4.8c-0.9-0.7-1.6-1.7-2.5-2.4c-0.5-0.4-1.1-0.8-1.7-0.9c-4.9-0.2-9.8-0.3-14.7-0.4c-0.6,0-1-0.2-1-0.9
		c-0.1-0.8,0.5-1,1-1c0.8-0.1,1.6,0,2.4,0c3.3,0.1,6.6,0.1,9.9,0.2c0.5,0,1.1,0,1.7,0c-2.9-4.9-3.9-10.3-5.3-15.7
		c-0.1-0.3,0-0.5,0-0.8c0-4,0-8.1,0-12.1c0-1.5-0.1-3.1,0.3-4.5c1-3.8,1.3-7.7,2.6-11.5c0.6-1.8,0.8-3.8,1.3-5.6
		c0.3-1.2,0.8-2.4,1.3-3.5c1.8-4,4.1-7.8,6.8-11.4c1.6-2.2,3.7-4.1,5.7-5.9c3.4-3,7.1-5.7,10.4-8.8c2.5-2.4,4.8-5.2,6.9-7.9
		c2.5-3.2,4.8-6.6,7.3-9.9c2-2.6,4.3-4.9,6.8-7c1.7-1.4,3.2-3.1,4.8-4.7c0.2-0.2,0.3-0.4,0.5-0.5c1.9-1,3.1-2.8,4.6-4.2
		c3.4-3.3,6.8-6.6,10.1-10c2.1-2.2,4-4.6,6-6.8c1.2-1.3,2.4-2.5,3.6-3.8c2.3-2.4,4.6-4.8,6.7-7.4c0.7-0.9,1.6-1.2,2.2-1.9
		c1.3-1.6,2.7-3.2,4-4.8c2-2.4,3.8-4.9,5.9-7.3c1.5-1.7,3.2-3.3,4.8-4.9c0.3-0.3,0.5-0.6,0.7-0.8C114.2,0,115.2,0,116.2,0z
		 M54.1,148.3c0.3,0.3,0.4,0.5,0.6,0.7c1.1,1.1,2.3,2.2,3.3,3.4c2.1,2.5,1.9,5.4,1.3,8.3c-0.1,0.5-0.5,1.1,0.2,1.5
		c0.8,0.5,1.6,1.2,2.4,1.7c3.4,2,7.2,3.1,11,4.3c2.5,0.8,5,1.4,7.1,3.1c1.6,1.3,3.3,2.6,5.5,2.9c0.1,0,0.3,0.2,0.4,0.3
		c0.4,0.2,0.9,0.5,1.3,0.5c1.6,0,3.1-0.1,4.7-0.2c1.6,0,3.1,0.1,4.7,0c3.7-0.3,7.4-0.8,11.1-1.2c3.6-0.3,6.8-1.6,9.8-3.4
		c2-1.3,3.8-3.1,5.4-4.9c2.2-2.4,4.2-5,6.2-7.6c1.5-1.8,2.8-3.7,4.3-5.4c1.5-1.5,2.6-3.3,3.3-5.2c1.1-2.7,2.3-5.4,2.5-8.3
		c0.1-1.9,0.3-3.9,0.1-5.8c-0.2-2.8-1.3-5.3-2.6-7.7c-1.9-3.4-3.6-7-6.7-9.5c-1.6-1.3-3.3-2.6-4.9-4c-4-3.2-9-4.4-13.6-6.3
		c-4.1-1.7-8.3-2.9-12.7-3.6c-1.6-0.2-3.2-0.7-4.7-1c-3.3-0.8-6.7-1.6-10-2.5c-2.4-0.6-4.8-1.4-7.2-2.1c0,1.2-0.1,2.4,0,3.6
		c0.1,2.1-0.4,4-1.3,5.8c-0.8,1.6-1.6,3.3-2.3,5c-1.7,3.8-3.3,7.5-5,11.3c-0.7,1.5-1.1,3.2-1.7,4.7c-1.1,3-2.2,6-3.5,8.9
		c-1,2.1-2.3,4.2-3.5,6.2C58.3,144.3,57.3,147.2,54.1,148.3z M128.7,176.6c0.1-0.1,0.2-0.1,0.3-0.2c0.1-0.3,0.2-0.7,0.3-1
		c1-3.2,2.3-6.3,5.2-8.4c1-0.7,1.9-1.4,2.9-2.1c1.3-0.8,2.6-1.8,3.9-2.4c2.6-1.3,5.4-2.4,8.3-3c0.5-0.1,1-0.9,1.2-1.5
		c0.7-2,0.9-4.2,3.3-5.1c0.1,0,0.3-0.2,0.4-0.4c1-1.3,2.1-2.4,2.9-3.8c1.3-2.3,2.4-4.7,3.4-7.2c1-2.7,1.8-5.5,2.5-8.3
		c0.7-3.1,1-6.3,1.8-9.3c1-3.7,2.3-7.4,3.6-11c1.1-2.8,2.6-5.3,4.8-7.4c1.2-1.2,2.4-2.4,3.6-3.6c0-0.2-0.1-0.3-0.1-0.5
		c-2.1-0.4-4.2-1.1-6.3-1.3c-2.2-0.2-4.4,0.1-6.5,0.4c-1,0.1-2.1,0.3-2.8,0.9c-1.8,1.3-3.5,2.7-5.3,4.2c-1.2,0.9-2.3,1.9-3.5,2.9
		c-1.8,1.5-2.6,3.6-3.6,5.5c-1.3,2.5-2.4,5-3.8,7.5c-0.6,1.1-1.4,2.1-2.2,3.2c0.8,0.1,1.5,0.1,2.3,0.2c1.5,0.2,3,0.4,4.4,0.6
		c0.7,0.1,0.9,0.7,0.7,1.2c-0.1,0.3-0.7,0.8-1,0.8c-2.1-0.2-4.2-0.6-6.3-0.9c-1.2-0.2-2.4-0.5-3.5-0.7c0.6,2.1,1.3,4,1.6,6
		c0.3,2.2,0.5,4.4,0.2,6.5c-0.3,2.4-1,4.7-1.8,6.9c-1.1,3.2-2.6,6.1-5,8.7c-2,2.1-3.7,4.6-5.4,6.9c-1.8,2.5-4,4.8-6.3,6.8
		c-0.8,0.7-1.6,1.5-2.5,2.4C124.2,171.4,127.7,172.4,128.7,176.6z M150.6,161.3c-1.3,0.3-2.5,0.5-3.7,0.9c-3,1.2-5.9,2.4-8.4,4.6
		c-0.8,0.7-1.9,1-2.8,1.6c-2.3,1.8-3.6,4.3-4.4,7c-0.8,2.7-0.9,5.5-0.2,8.2c0.7,2.5,1.6,4.8,3.2,6.8c2.2,2.7,5.3,4.1,8.2,6.5
		c0.7-2.6,1.3-5,2.1-7.3c1.4-4.7,2.9-9.4,4.5-14C150.6,171.1,150.2,166.2,150.6,161.3z M59.2,139.1c-1-0.4-1.7-0.8-2.5-1.1
		c-0.9-0.3-2.4,0-2.9,0.7c-1,1.4-2,2.9-1.8,4.8c0.1,0.8,1.5,2.4,2.3,2.4c0.2,0,0.4-0.2,0.6-0.4C56.3,143.5,57.7,141.4,59.2,139.1z
		 M49.8,158.1c0.7,0.4,1.2,0.7,1.6,0.9c1.1,0.6,2.3,1.1,3.2,1.9c0.6,0.6,1,1,1.7,0.8c0.2-0.3,0.6-0.5,0.9-0.7c1-0.7,1-1.8-0.1-2.4
		c-2-1-4-1.6-6.3-1.3C50.5,157.4,50.2,157.7,49.8,158.1z M26,153.2c0.1,0.3,0.1,0.5,0.2,0.6c0.6,1.1,1.4,2.1,1.9,3.2
		c0.6,1.2,1.6,1.7,2.8,2c0.7,0.2,2.2-0.6,2-1c-0.4-0.9-1-1.7-1.6-2.4c-0.5-0.5-1.2-0.7-1.8-1.1C28.3,154,27.4,153.1,26,153.2z
		 M46.8,163.7c-1.6-1.9-3.2-3.5-6.1-2.7c0.3,0.3,0.4,0.6,0.7,0.8c0.6,0.5,1.3,1,1.7,1.5c1.1,1.3,1.7,1.5,3.2,0.6
		C46.5,163.9,46.7,163.8,46.8,163.7z"/>
	<path class="st0" d="M300,81.1c-1.3,0.8-2.5,1.5-3.8,2.3c-3.9,2.3-7.8,4.6-11.7,6.9c-2.1,1.3-4.1,2.8-6.3,4
		c-4,2.3-8.2,4.4-12.3,6.6c-2.1,1.1-4,2.5-6.2,3.5c-2.9,1.3-5.9,2.5-8.9,3.5c-1.2,0.4-2.5,0.5-3.8,0.6c-3.1,0.2-6.1,0.3-9.2,0.7
		c-2.5,0.4-4.9,1.1-7.4,1.8c-5,1.4-10,2.7-14.8,4.4c-4.5,1.5-9,2.8-13.6,3.7c-3.4,0.6-6.7,1.7-9.9,3.2c-0.5,0.2-0.9,0.4-1.3,0.7
		c-0.2,0.1-0.3,0.5-0.2,0.7c1.1,3.1-0.4,5.3-2.8,6.5c-1.3,0.7-2.8,1-4.2,1.5c0.3,0.9,1.2,1.6,2.5,1.7c1.9,0.2,3.6-0.4,5.3-0.8
		c3.3-0.9,6.7-1.5,10-2.5c4.5-1.4,9.1-2,13.8-1.8c1.3,0.1,2.6,0.2,3.8,0.4c0.3,0,0.5,0.5,0.7,0.7c-0.2,0.2-0.5,0.7-0.8,0.7
		c-0.9,0.1-1.9,0.1-2.8-0.1c-1.1-0.2-1.3,0.3-1.6,1.1c-0.9,2.6-0.6,5.1,0.3,7.5c0.2,0.4,0.3,0.9,0.3,1.4c0,0.3-0.3,0.8-0.6,0.9
		c-0.6,0.2-0.9-0.2-1.1-0.8c-0.1-0.7-0.3-1.4-0.5-2.3c-2,1-3.8,1.9-5.7,2.8c-0.7,0.4-0.8,0.8-0.4,1.5c0.3,0.5,0.4,1-0.3,1.4
		c-0.7,0.4-1-0.1-1.3-0.6c-0.9-1.5-1.6-1.7-3.3-1.4c-1.4,0.2-2.9,0.3-4.4,0.3c-1.1,0-1.6-0.9-2.2-1.6c-0.4-0.6-0.9-1.1-1.3-1.6
		c-2.1,2.5-4.1,5-6.1,7.4c1.1,0.8,2.4,1.8,3.7,2.7c0.7,0.5,1.4,1.1,2.1,1.6c1.3,1.2,3,1,4.4,1.5c3.5,1.3,7.2,1,10.8,1.9
		c2.9,0.7,5.8,1.7,8.6,2.5c1.1,0.3,2.1,0.8,3.2,1c0.5,0.1,1.2-0.2,1.7-0.4c3.6-1.2,6.1-3.7,8.4-6.6c2.5-3.1,5.5-5.8,9.7-6.3
		c2.3-0.2,4.6,0.1,6.9,0.4c1.1,0.2,1.8-0.1,2.5-0.7c2.4-2,4.7-3.9,7.1-5.9c4.4-3.7,9.4-6.5,14.4-9.2c1.7-0.9,3.6-1.3,5.5-1.7
		c1.2-0.3,2.4-0.8,3.5-1.4c4.4-2.3,8.7-4.7,13.1-7c2-1.1,4-2.1,6-3.1c0,0.8,0,1.5,0,2.3c-1.9,0.9-3.7,1.9-5.6,2.8
		c-1.9,0.9-3.8,1.8-5.6,2.8c-2,1-3.9,2.1-5.8,3.3c-2,1.2-4,2.1-6.3,2.5c-2.1,0.4-4.1,1.4-6,2.4c-2.5,1.3-4.9,2.8-7.3,4.4
		c-2.2,1.5-4.2,3.3-6.2,5c-1.6,1.4-3.2,2.8-5,4.3c2.5,0.6,4.9,1.2,7.3,1.8c2.1,0.5,4.3,0.8,6.5,0.6c0.4,0,0.8-0.2,1.2-0.2
		c0.3,0,0.9,0,1,0.1c0.2,0.4,0.3,0.9,0.2,1.4c0,0.2-0.5,0.5-0.7,0.6c-2.6,0-5.2,0.2-7.8-0.4c-3.2-0.8-6.5-1.6-9.7-2.3
		c-2.3-0.5-4.7-0.9-7-0.9c-3.1-0.1-5.9,1-8,3.3c-1.7,1.9-3.4,3.8-5.1,5.7c-1.8,2-4.2,2.9-6.5,3.9c-1.6,0.7-3.3,1.1-4.8,1.9
		c-1.5,0.7-3,1.8-4.5,2.6c-1,0.5-2.1,1.1-3.1,1.1c-2.4,0-4.5,0.7-6.7,1.4c-0.9,0.3-1.7,0.7-2.7,0.9c-0.4,0.1-0.9-0.1-1.4-0.1
		c0.2-0.4,0.2-1.1,0.6-1.2c1.1-0.5,2.2-0.8,3.3-1.1c2.9-0.8,5.9-1.6,8.8-2.5c0.9-0.3,1.7-0.7,2.6-1.1c0.1,0,0.2-0.1,0.2-0.1
		c0.3-1.3,1.6-1.4,2.8-2.2c-3.6-1-7-2-10.4-2.8c-2.7-0.6-5.5-0.8-8.2-1.3c-1.4-0.2-2.8-0.6-4.2-1c-0.7-0.2-1.4-0.4-2-0.9
		c-1.7-1.2-3.4-2.6-5.1-3.8c-0.6-0.4-1.2-0.9-1.9-1.2c-0.2-0.1-0.7,0.2-0.9,0.5c-1.4,2-2.6,4-4,6c-1.3,1.8-2.7,3.4-4,5.1
		c-0.2,0.3-0.4,0.5-0.6,0.8c-0.5,0.9-1.6,1.3-2.3,0.8c-0.8-0.6-0.6-1.4-0.2-2.1c1.7-3.1,3.4-6.1,5.1-9.1c1.1-2,2.1-4,2.8-6.1
		c0.3-0.8-0.1-2-0.4-3c-0.6-1.8-1.4-3.6-2-5.4c-0.9-2.5-1.9-4.9-1.8-7.7c0.1-3,2.9-5.1,5.5-4.1c0.6,0.2,1.1,0.7,1.7,1.1
		c1.9-1.1,3.8-2.2,5.8-3.4c0.4-0.2,0.6-0.8,0.9-1.2c1.4-1.9,2.9-3.7,4.2-5.7c2.2-3.4,4.3-6.7,6.3-10.2c1.5-2.6,3.5-4.7,5.3-7.1
		c0.7-1,1.8-1.1,2.7-0.7c1.9,0.8,3.8,1.7,5.6,2.7c1.4,0.9,1.5,2.5,1.1,3.9c-0.3,1.2-0.8,2.3-1.2,3.3c0.6,0,1.4,0,2.2,0
		c1.1,0.1,1.7,0.9,2,1.8c0.5,1.3,0.8,2.6,1.2,3.9c2.4-0.6,4.8-1.3,7.2-1.9c3.1-0.8,6.3-1.6,9.4-2.3c1.5-0.3,3.1-0.3,4.7-0.5
		c1.9-0.2,3.7-0.4,5.5-0.7c5.8-1,10.9-3.8,15.9-6.8c1.8-1.1,3.7-2,5.6-2.9c4.7-2.3,9.1-5.2,13.5-8c4.2-2.6,8.5-5,12.8-7.6
		c1.2-0.7,2.4-1.6,3.6-2.4C300,79.5,300,80.3,300,81.1z M204.3,117.2c1.8-0.4,3.4-0.8,5.1-1.2c0.2,0,0.3-0.3,0.4-0.5
		c1-2.4,2-4.8,3-7c-2.7-1.5-5.5-2.9-8.2-4.4c-3.3,5.3-6.6,10.5-9.8,15.6c0.5-0.1,1.3-0.4,2.1-0.7c0.4-0.1,0.8-0.4,1-0.7
		c1.1-1.6,2.2-3.2,3.3-4.8c0.4-0.6,0.7-0.9,1.3-0.7c0.8,0.3,1.6,0.6,2.4,1c0.5,0.2,0.7,0.7,0.4,1.2
		C204.9,115.7,204.6,116.4,204.3,117.2z M196.2,133.1c-2.5,0.7-5,1.4-7.5,2c-0.6,0.1-1,0.2-1.3,0.9c-1.3,3-2.1,6.2-3.9,9
		c-1.1,1.8-1.8,3.8-2.7,5.9c0.2,0.1,0.4,0.3,0.7,0.5c1.1-1.5,2.1-3,3.2-4.4c0.4-0.6,0.8-1.3,1.3-1.6c2-1,3.3-2.7,4.6-4.3
		C192.7,138.6,194.4,135.8,196.2,133.1z M195.2,137.1c0.7,1,1.3,1.7,1.9,2.4c0.3,0.3,0.7,0.8,1.1,0.8c1.1,0.1,2.2-0.1,3.4-0.1
		c1.1,0,2.2-0.2,3.3,0c0.7,0.1,0.9,0,1.2-0.5c-1-1.2-1.2-1.3-2.7-0.8c-0.6,0.2-1.1,0.2-1.4-0.4c-0.3-0.6,0-1,0.6-1.3
		c0.4-0.2,0.8-0.4,1-0.5c0.2-1.7,0.4-3.2,0.7-4.8c0.1-0.6-0.1-0.9-0.6-0.7c-1.7,0.8-3.9,0.5-5.2,2.1
		C197.4,134.7,196.3,136,195.2,137.1z M206.2,130.8c-0.2,1.7-0.5,3.4-0.7,5c-0.1,0.9,1.3,2.8,2.1,2.9c0.2,0,0.4-0.1,0.6-0.1
		c1.1-0.4,2.2-0.9,3.3-1.3c0.8-0.3,1.2-0.8,1.2-1.7c0-1.8,0.1-3.6,0.1-5.5c-0.9,0.1-2,0.1-3.1,0.2
		C208.5,130.4,207.4,130.6,206.2,130.8z M211.7,115.1c2.1-0.7,4-1.3,5.9-1.9c2.4-0.8,2.5-0.8,2.1-3.2c-0.2-0.9-0.4-2.1-1.5-2.3
		c-1.1-0.2-2.3,0.1-3.1,1C213.4,110.4,212.6,112.6,211.7,115.1z M183.9,125.3c0-0.1,0-0.3,0-0.4c-0.6-0.1-1.4-0.6-1.9-0.3
		c-0.8,0.4-1.8,1.1-1.9,1.9c-0.3,1.3-0.2,2.7,0.1,4c0.6,2.2,1.4,4.3,2.2,6.4c0.5,1.3,1,2.5,1.5,4c0.7-1.9,1.4-3.6,2.1-5.4
		c-0.5-0.2-1-0.3-1.4-0.5c-2-0.8-2.8-2.6-3.5-4.4c-0.8-2,0-3.9,2-4.7C183.4,125.6,183.7,125.5,183.9,125.3z M182.6,129.7
		c0.7,0.1,1.5,0.5,2.2,0.3c1.3-0.4,2.7-0.9,3.7-2.1c1.3-1.4,1.3-2,0.1-3.4c-1.6,0.9-3.2,2-4.9,2.8
		C182.6,127.8,182.3,128.4,182.6,129.7z"/>
	<path class="st0" d="M75.8,143.4c-0.2-4,2.2-6.3,5.3-8.1c0.7-0.4,1.3-0.8,2-1.2c0.6-0.3,1-0.4,1.2,0.5c0.2,1.2,0.4,2.4,0.6,3.6
		c0.2,1.8,0.3,3.6-0.1,5.5c-0.4,1.8-1.4,3.1-2.5,4.5c-1,1.3-2.4,2.4-2.8,4.1c0,0.2-0.5,0.5-0.7,0.4c-0.3-0.1-0.6-0.4-0.7-0.7
		c-0.7-2-1.3-4.1-1.9-6.1C76,145,76,144.2,75.8,143.4z M83.2,135.6c-1.9,1-3.7,1.9-5,3.8c2.5-0.1,4.4,0.8,5.4,3.1
		C84,140.2,83.6,137.9,83.2,135.6z M81.6,146.9c-1.3,0-2.4,0-3.6,0c0.3,1,0.6,2,0.9,3C79.8,148.8,80.7,147.9,81.6,146.9z
		 M79.3,141.6c-0.6,0.6-1.1,1-1.2,1.4c0,0.3,0.6,1,1,1c0.6,0.1,1.2-0.3,1.2-1.1C80.2,142.6,79.8,142.2,79.3,141.6z"/>
	<path class="st0" d="M90.3,107.1c-0.3,1.6-0.5,3.1-0.9,4.7c-0.5,2.2-1.2,4.3-1.8,6.4c-0.2,0.8-1.2,1-1.9,0.3
		c-2.2-2.1-4.7-5.7-3.6-9.8c0.7-2.5,1.9-4.6,3.5-6.5c0.5-0.6,2.4-0.7,3.1-0.1c0.8,0.8,1.4,1.7,1.4,3c0,0.7,0,1.3,0,2
		C90.1,107.1,90.2,107.1,90.3,107.1z M88.4,110c0.1-0.2,0.3-0.3,0.3-0.4c0-1.8,0.1-3.6-0.1-5.3c-0.2-1.3-1.6-1.7-2.5-0.7
		c-1.1,1.3-2.2,2.7-2.4,4.6C85.7,107.7,87.4,107.9,88.4,110z M87.4,114.7c-0.9,0.3-1.7,0.6-2.7,0.9c0.6,0.7,1,1.2,1.6,1.9
		C86.7,116.4,87,115.5,87.4,114.7z M85.8,111.7c0-0.2,0-0.3,0-0.5c-0.3-0.2-0.6-0.5-1-0.6c-0.7-0.2-1,0.4-1,0.9
		c0,0.4,0.5,0.9,0.9,0.9C85.1,112.5,85.5,112,85.8,111.7z"/>
	<path class="st0" d="M118.3,141.1c-0.3-0.9-0.7-1.4-0.8-2.1c-0.5-2.1-0.8-4.2-1.4-6.2c-0.5-1.9-0.4-3.5,0.8-5.1
		c0.5-0.6,0.5-1.3,0.2-2c-0.5-1.3-0.3-2.4,0.7-3.4c1.3-1.3,2.4-2.7,3.6-4.1c0.2-0.2,0.5-0.4,0.6-0.3c0.2,0.1,0.4,0.4,0.4,0.6
		c-0.2,1.2,0.5,1.9,1.1,2.9c0.6,0.9,0.8,2.1,1.1,3.2c0.8,3.4,0.2,6.7-1.2,9.8c-0.4,0.8-1.1,1.6-1.6,2.3c-0.8,1.1-1.7,2.2-2.5,3.3
		C119.1,140.4,118.8,140.6,118.3,141.1z M122.1,121.3c-0.2,0-0.3,0-0.5,0c-0.2,2.3-0.4,4.5-0.6,6.8c0,0.4-0.1,0.9-0.2,1.3
		c-0.5,2.6-1,5.2-1.5,7.7c3.3-2,4.3-5.2,4.5-8.6C124,125.9,123.7,123.4,122.1,121.3z M120.6,121.3c-0.1,0-0.2-0.1-0.2-0.1
		c-0.7,0.7-1.4,1.3-1.9,2.1c-0.3,0.5-0.6,1.3-0.4,1.7c0.8,1.5,0.3,2.7-0.5,3.9c-0.7,1-0.8,2-0.4,3.2c0.4,1.4,0.8,2.7,1.1,4.1
		c0.1,0,0.2,0,0.3-0.1c0-0.3,0-0.5,0.1-0.8c0.2-1.5,0.2-3.1,0.7-4.5c0.5-1.5,0.8-2.9,0.8-4.5c0-1.4,0.3-2.8,0.5-4.2
		C120.6,121.9,120.6,121.6,120.6,121.3z"/>
	<path class="st0" d="M106.6,131c0.7,2.4-2.4,6.2-5.7,5.5c-2.7-0.6-4.3-2.3-5.7-4.4c-0.1-0.2,0-0.6,0-0.9c0.3,0.1,0.7,0.1,0.9,0.3
		c0.8,0.8,1.4,1.8,2.2,2.5c1.2,1.2,2.9,1.7,4.5,1.2c1.6-0.5,2.5-1.8,2.8-3.5C105.8,131,106,130.7,106.6,131z"/>
	<path class="st0" d="M104.9,116.3c1.9,0,4.1,1.8,3.5,4.4c0,0.2-0.3,0.4-0.5,0.6c-0.2-0.2-0.5-0.5-0.5-0.7c0-1,0-1.8-1-2.5
		c-0.9-0.6-1.8-0.7-2.7-0.3c-1.2,0.4-2.3,1-3.5,1.5c-0.2,0.1-0.5,0.3-0.7,0.3c-0.4,0-0.8-0.2-1.2-0.3c0.3-0.2,0.5-0.5,0.8-0.6
		c1.1-0.5,2.3-1,3.4-1.5C103.3,116.7,104.1,116.5,104.9,116.3z"/>
	<path class="st0" d="M103.7,126.8c0.2,0.4,0.5,0.7,0.5,0.9c-0.1,1.3-0.2,2.6-0.5,3.8c-0.2,0.7-0.9,1.4-1.6,1
		c-0.4-0.2-0.7-1.1-0.7-1.6C101.5,129.3,102.5,128.1,103.7,126.8z"/>
	<path class="st0" d="M105.2,122.8c-1-0.3-0.8-1.3-1.1-2c-0.1-0.2-0.1-0.5-0.1-0.7c0.1-0.4,0.3-0.8,0.4-1.2c0.5,0.2,1.1,0.3,1.4,0.6
		C106.3,120.2,105.9,122.2,105.2,122.8z"/>
</g>
</svg>
