<?xml version="1.0" encoding="utf-8"?>
<!-- Generator: Adobe Illustrator 19.2.1, SVG Export Plug-In . SVG Version: 6.00 Build 0)  -->
<svg version="1.1" id="Layer_1" xmlns="http://www.w3.org/2000/svg" xmlns:xlink="http://www.w3.org/1999/xlink" x="0px" y="0px"
	 viewBox="0 0 300 239.2" style="enable-background:new 0 0 300 239.2;" xml:space="preserve">
<style type="text/css">
	.st0{fill:#E91E63;}
</style>
<g id="mother-sick-girl">
	<path class="st0" d="M0,165.8c1.8-1.6,3.5-3.4,5.4-4.7c3.2-2.3,6.4-4.4,10.3-5.6c1.1-0.3,2.7-0.4,3.2-2.1c0.1-0.3,0.7-0.5,1-0.8
		c0.9-1.1,1.8-2.2,2.7-3.3c1.1-1.4,2.3-2.8,3.3-4.2c1.7-2.2,2.4-4.7,2.9-7.4c1-5,1.6-10,1.4-15.2c-0.1-3.2-0.3-6.4-0.2-9.5
		c0.1-3.4,0.5-6.8,0.7-10.2c0.1-2.1-0.1-4.2-0.3-6.3c-0.2-2.4-0.8-4.8-0.8-7.2c-0.2-5.5-0.3-11.1-0.3-16.6c0-4.4,0.1-8.9,0.5-13.3
		c0.4-3.6,1.3-7.2,2-10.8c0.5-2.6,1-5.2,1.6-7.8c0.5-1.9,1.3-3.8,2.1-5.6c0.8-1.9,1.6-3.9,2.6-5.7c0.8-1.5,2-2.8,3-4.3
		c0.8-1.3,1.5-2.7,2.3-3.9c0.7-1,1.4-2,2.3-2.8C50,15,54,11.5,58.4,8.5C62.1,6,66.1,3.7,70.3,2c3.4-1.4,7.2-2.1,11-1.9
		c4.2,0.2,8.5,0,12.7-0.1c3.4-0.1,6.5,0.6,9.5,2.4c2.1,1.3,4.4,2.2,6.7,3.2c4.6,2.1,8.8,5.1,12.3,8.6c2.8,2.8,5.7,5.6,7.7,9.2
		c0.5,0.9,0.7,2,1.2,2.9c0.8,1.6,1.7,3.2,2.4,4.9c1.2,2.9,2.5,5.7,2.6,9c0,1.4,1,2.7,1.4,4c0.8,2.6,0.6,5.1-0.3,7.6
		c-1.4,3.7-1.6,7.3,1,10.7c1.3,1.6,2.3,3.4,3.5,5.2c0,0.1,0.1,0.1,0.1,0.2c1.7,1.8,3.4,3.6,5.1,5.3c0.1,0,0.2,0,0.2-0.1
		c0.9-3.2,3-5.6,4.9-8.1c1.3-1.7,3.2-3,4.7-4.6c2.2-2.2,4.4-4.3,6.3-6.6c1.2-1.4,2.5-2.3,4.2-2.8c2.6-0.8,5.2-1.7,7.9-2.1
		c4.1-0.5,8-2.1,12-2.8c4-0.7,7.9-1.8,11.9-3c2.5-0.7,5.1-1.1,7.7-1.5c2.3-0.3,4.6-0.4,6.9-0.5c3.9-0.1,7.2,1.3,9.9,4.1
		c2,2,3.7,4.3,6,6.1c2.6,2,5.1,4.4,8.7,4.7c0.2,0,0.4,0.1,0.5,0.2c3.9,2.1,7.9,4.1,11.7,6.4c2,1.2,3.8,2.8,5.6,4.2
		c1.1,0.9,2.1,1.9,3.2,2.7c0.6,0.4,1.5,0.6,2.1,1c0.4,0.3,0.7,0.8,0.9,1.2c0.2,0.3,0.2,0.6,0.4,0.8c1.2,1.3,2.4,2.6,3.6,3.9
		c2.9,3.2,5.7,6.5,8.6,9.7c0.6,0.7,1.5,1.2,2.2,1.9c2.1,2.5,4.2,5.1,6.3,7.6c1.2,1.5,2.4,3,3.8,4.3c2.3,2.2,2.2,4.7,1.4,7.3
		c-1.1,3.5-3.3,6.4-5.9,9.1c-2.8,2.8-6.1,5.1-9.6,6.9c-3.6,1.8-7.4,3.3-11.1,4.9c-0.3,0.1-0.5,0.2-0.9,0.5c0.6,1.3,1.1,2.6,1.8,3.7
		c2.6,4.3,5.2,8.7,7.8,12.9c0.9,1.4,1.7,2.9,2.9,4c1.5,1.3,3.3,2.2,5.1,3c2,0.8,4.1,1.4,6.2,1.9c1.6,0.4,3.2,0.5,4.8,0.8
		c1,0.2,2.1,0.4,3.1,0.8c2.3,1,4.6,2.2,6.9,3.3c0,0.8,0,1.6,0,2.4c-1.3-0.6-2.6-1.3-3.9-1.9c-2.9-1.3-5.8-2.8-9.2-2.7
		c-0.9,0-1.8-0.3-2.7-0.6c-2.8-0.9-5.6-1.8-8.5-2.7c1.6,2.4,3,4.8,4.6,7c0.6,0.8,0.7,1.6,0,2.2c-1.7,1.6-3.4,3.3-5.4,4.6
		c-3.1,2.1-5.4,4.8-7.6,7.7c-2.7,3.6-5.5,7.1-8.3,10.7c-2.1,2.6-3.8,5.4-4.7,8.7c-1,3.7-2,7.3-3.2,10.9c-1.2,3.6-2,7.3-4.2,10.5
		c-2.3,3.4-4.3,7-6.6,10.3c-1.6,2.4-3.5,4.5-5.3,6.8c-1.5,2-3,4-4.5,6.1c-2.3,0-4.7,0-7,0c0.3-0.4,0.6-0.9,1-1.3
		c1.1-1.1,1.8-2.4,1.7-4c-0.2-2-0.1-3.9-0.3-5.9c-0.4-4-0.9-8-1.5-12c-0.3-2.2-1.1-4.3-2.8-5.9c-0.8-0.8-1.6-0.9-2.7-0.3
		c-1.1,0.6-1,1.5-1.1,2.4c-0.4,2.1-0.8,4.1-1.1,6.2c-0.2,1-0.3,2.1-0.4,3.1c-0.2,1.8-0.3,3.5-0.4,5.1c1,0.4,1.8,0.8,2.7,1.2
		c0.6,0.3,1.1,0.7,0.7,1.4c-0.2,0.3-1,0.3-1.5,0.3c-0.2,0-0.3-0.2-0.5-0.3c-1.3-0.6-2.6-0.7-3.8,0.4c-0.7,0.6-1.5,1-2.3,1.5
		c-2,1.4-4.4,2.2-6,4.2c-0.8,1-2,1.5-3.3,0.7c-0.4-0.2-1-0.2-1.4,0c-1.1,0.4-2.1,1-3.2,1.5c-2.7,1.3-5.4,1.8-7.9-0.5
		c-0.6-0.5-1.7-0.7-2.5-0.8c-1.1-0.1-2.2,0.2-3.2,0.2c-0.5,0-1.1-0.5-1.6-0.7c0.3-0.5,0.5-1.1,0.9-1.3c1.5-0.9,3.1-1.7,4.8-2.4
		c1.7-0.7,3.3-1.7,5.1-2c3.4-0.5,6.9-0.5,10.4-0.8c0.9-0.1,1.8-0.2,2.7-0.4c2.6-0.7,4.6-2.4,6.8-3.9c0.1-0.1,0.1-0.3,0.2-0.5
		c-0.3,0-0.6,0-0.8,0.1c-2.8,0.7-5.7-0.7-6.6-3.5c-0.4-1.5-1.4-2.8-2.2-4.2c-0.1-0.2-0.4-0.3-0.6-0.3c-2.8-0.3-5.6-0.2-8.7,0.7
		c0.8,1.2,1.5,2.3,2.2,3.3c0.4,0.6,0.7,1.2,0,1.7c-0.7,0.4-1.1,0-1.5-0.6c-0.9-1.4-1.8-2.7-2.6-4c-5.4,1.2-10.9,2.3-16.3,3.5
		c-3.5,0.8-7,1.8-10.5,2.6c-3.7,0.9-6.8,2.8-9.1,5.6c-2.7,3.3-4.6,7.1-7.7,10.1c-1,0-1.9,0-2.9,0c-0.1-0.8,0.4-1,1-1.2
		c1.5-0.6,2.5-2.3,2.4-3.7c-0.3-2.3-0.6-4.6-0.7-6.9c-0.1-2.6,0-5.2,0-8c-1.2,0.6-2,1.1-2.9,1.6c-2.6,1.4-5.3,2.6-7.7,4.3
		c-3.2,2.2-6.9,3.4-10.4,5c-0.4,0.2-0.8,0.3-1.2,0.4c-1.9,0.4-3.8,0.8-5.7,1.1c-2.3,0.3-4.7,0.7-7,0.8c-3.2,0.1-6.3-0.1-9.4-0.9
		c-4.5-1.2-9.2-1.8-13.7-3c-3.2-0.8-6.3-2.1-9.4-3.2c-3.9-1.3-6.7-3.8-8.5-7.5c-1.2-2.6-2.2-5.3-3.4-7.9c-1.5-3.3-3.1-6.6-4.8-9.9
		c-1.3-2.6-3-5-3.8-7.7c-0.9-3.1-2.4-6-3.7-8.9c-1.9-4.1-4.3-8-6-12.1c-2.4-5.5-6.1-9.9-10.1-14.2c-1.1-1.2-2.3-2.4-3.5-3.5
		c-1.3-1.2-2.6-2.3-3.9-3.5c-0.6-0.5-1.1-0.4-1.7,0c-5,3.3-10.6,5.6-16.3,7.6c-0.5,0.2-0.9,0.4-1.7,0.8c1.2,0.6,2.1,1.1,3,1.6
		c1.3,0.6,2.8,0.9,3.8,1.8c3.1,2.6,6.2,5.3,8.8,8.4c2.2,2.6,3.8,5.5,4.9,8.7c1.1,3.2,2,6.5,3,9.8c0.3,1,0.8,1.9,1.2,2.9
		c1.3,3.5,2.5,6.9,3.9,10.4c1.3,3.3,2.2,6.7,2.7,10.2c0.3,2.4,0.9,4.7,2.4,6.6c1.4,1.8,2.9,3.4,4,5.4c2.6,4.6,4.8,9.4,5.9,14.6
		c-0.8,0-1.6,0-2.4,0c-0.5-1.6-0.9-3.3-1.5-4.9c-1.6-4.4-3.6-8.6-6.7-12.1c-2.6-2.9-3.7-6.3-4.2-10c-0.3-2.7-1-5.3-2-7.8
		c-1.3-3.4-2.8-6.7-4-10.1c-1.4-4-2.4-8.1-3.8-12c-1-2.7-2.1-5.5-3.6-8c-2.1-3.4-5.3-6-8.2-8.7c-0.9-0.9-2.1-1.7-3.2-2.3
		c-1.9-1-4-1.9-6-2.8c-0.2-0.1-0.6-0.2-0.8-0.1c-2.2,1.5-4.5,3-6.6,4.7c-1.5,1.2-2.7,2.8-4.1,4.2C0,168.1,0,167,0,165.8z
		 M142.1,82.5c1.2-1,2.3-1.8,3.3-2.7c1-1,1.2-2.5,0.5-3.6c-0.7-1.2-1.5-2.5-2.4-3.5c-2.1-2.1-4.1-4.2-5.6-6.9
		c-1.2-2.1-2.7-4-3.5-6.2c-1-2.9-0.1-5.9,1-8.7c0.6-1.6,0.9-3.3,0.4-4.9c-0.4-1.6-1.2-3.1-1.8-4.7c-1.4-3.9-2.8-7.8-4.1-11.7
		c-0.6-1.6-1.1-2-2.8-1.7c-3.1,0.5-6.2,0.9-9.3,1.5c-1.9,0.3-3.9,0.7-5.8,1.2c-1.4,0.4-2.5,1.4-3.9,1.8c-5.2,1.8-9,5.3-12.2,9.6
		c-2.1,2.8-4.2,5.6-6.2,8.5c-1.3,1.8-2.7,3.5-3.3,5.8c-1,3.8-2.2,7.6-4.2,11c-0.8,1.4-2,2.8-3.3,3.5c-1.9,1.1-4.1,1.5-6.3,0.7
		c-2.4-0.9-4.7-1.8-7.1-2.7c-0.8-0.3-1.7-0.7-2.4-1.3c-1.9-1.5-5.1-1.2-6.6,0.6c-0.9,1.1-1.8,2.1-2.7,3.2c-2,2.2-2.3,5.3-0.5,7.7
		c1.5,2,3.2,3.9,4.6,6c1.1,1.6,2.7,2.5,4.4,3.1c2.7,0.8,5.4,1.5,8.1,2.1c1.8,0.4,3.7,0.6,5.4-0.5c0.7-0.4,0.9-1,0.5-1.5
		c-1-1.4-1.2-3.3-3.6-3.7c-1.8-0.3-3.6-1-5.5-1c-4.2,0.1-7.8-3.7-6.6-8.3c0.2-0.7,0.6-1.4,1.4-1.1c0.8,0.3,0.4,1,0.3,1.5
		c-0.6,2.1,0.2,4.1,1.9,5.3c2.1,1.6,4.6,0.4,6.8,1.2c0.5-2.6,0-4.6-2.4-5.7c-0.1-0.1-0.3-0.2-0.3-0.3c-0.1-0.4-0.2-0.7-0.3-1.1
		c0.4,0,0.9-0.2,1.2-0.1c2.5,1.1,3.9,2.9,3.7,5.8c-0.1,1.1,0.3,1.8,1.3,2.4c0.7,0.4,1.4,0.8,1.9,1.3c0.7,0.9,1.2,1.9,1.7,2.8
		c0.9,1.6,0.5,2.8-1,3.9c-2,1.3-4.1,1.3-6.3,0.9c-2-0.4-3.9-0.7-6-1.1c0.1,0.1,0.1,0.3,0.1,0.4c0.1,0.2,0.3,0.4,0.4,0.6
		c1.7,1.9,3,4,3.2,6.6c0.3,4,0.4,8,0.5,11.9c0,0.9-0.1,1.8-0.3,2.7c-0.7,3.4-2,6.5-3.2,9.7c-2,5.5-5.7,9.5-10.4,12.8
		c-4.3,3-9.1,5.1-13.1,8.5c-1.4,1.2-3.2,2-4.8,3c-0.8,0.5-1.5,1-2.3,1.5c0.2-0.1,0.4-0.2,0.6-0.3c1.4,1.6,2.6,3.4,4.1,4.9
		c2.2,2.1,4.4,4,6.1,6.6c0.8,1.2,2,1.7,3.2,1.5c3.9-0.8,7.9-0.9,11.9-0.9c2.6,0,5.1,0.4,7.5,1.1c1.3,0.4,2.7,0.4,4,0.6
		c1.7,0.3,3.5,0.7,5.2,1.2c0.3,0.1,0.5,0.8,0.7,1.3c-0.5,0.3-1,0.7-1.6,0.7c-0.6,0-1.3-0.5-1.9-0.6c-2.8-0.5-5.6-1.1-8.5-1.4
		c-2-0.3-4.1-0.2-6.1-0.6c-3-0.6-5.9,0.3-8.9,0.4c-0.7,0-1.5,0.3-2.1,0.5c1.1,2,2.1,3.9,3.1,5.8c1.6,3.2,3.2,6.3,4.8,9.5
		c1.4,2.9,2.8,5.7,4.2,8.6c1.2,2.6,2.2,5.3,3.4,8c0.3,0.8,0.9,1.4,1.2,2.2c1.4,2.8,2.7,5.7,4,8.5c1.3,2.9,2.6,5.7,3.8,8.6
		c1.2,2.9,2.8,5.4,5.4,7.1c1.4,0.9,2.9,1.5,4.5,1.9c3.4,0.9,6.5,2.7,10.1,3.2c3.3,0.4,6.6,1.5,9.8,2.3c1.5,0.4,2.9,0.9,4.4,1
		c3,0.2,6.1,0.2,9.2,0c1.6-0.1,3.2-0.6,4.7-1c-0.4-1.6-0.7-3-1.1-4.5c-0.8-3.2-1.7-6.5-2.5-9.7c-0.2-0.8-0.2-1.6,0-2.4
		c0.1-0.5,0.8-1.2,1.3-1.2c0.7,0,1.1,0.6,0.9,1.5c-0.1,0.4,0,0.8,0.1,1.2c0.8,3.1,1.5,6.2,2.3,9.3c0.5,1.8,1,3.7,1.5,5.5
		c0.8-0.2,1.3-0.3,1.9-0.5c4-1.5,7.9-3.2,11.6-5.4c2.8-1.7,5.7-3.3,8.6-4.9c0.8-0.4,1.3-0.9,1.2-1.9c0-0.3,0.1-0.7,0.3-0.8
		c0.9-0.4,0.8-1.2,0.9-2c0.1-2.3,0.3-4.5,0.5-6.7c0.2-3,0.3-6,0.5-8.9c0-0.8-0.2-1.6-1-2c-2-1-2.1-1.8-0.8-3.7
		c1.1-1.7,2.4-3.5,3-5.4c1-2.8,2-5.6,4-7.8c-0.3-0.6-0.5-1.3-0.8-1.9c-0.9-2.6-1.4-5.3-2.7-7.6c-3.6-6.5-7.3-12.9-11.2-19.2
		c-2.5-4-5.4-7.8-8.2-11.6c-1.9-2.7-3.9-5.3-5.9-7.9c-0.6-0.8-1.5-1.5-2.4-2.3c-0.3,1.3-0.5,2.2-0.7,3.1c-0.7,3.2-1.2,6.4-2.1,9.5
		c-1,3.2-2.4,6.2-3.6,9.3c-0.4,1.1-1.2,2-0.7,3.4c0.1,0.3-0.6,1.2-1.1,1.4c-1.3,0.4-2.1-0.8-1.6-2.4c0.6-2,1.4-3.9,2.1-5.8
		c0.8-2.1,1.6-4.2,2.3-6.3c0.7-2.1,1.3-4.2,1.9-6.3c0.4-1.6,0.6-3.3,1.1-4.9c0.2-0.9,0.3-1.8-0.4-2.5c-1.4-1.4-2.8-2.6-4.2-4
		c-0.5-0.5-1-1-1.6-1.7c-0.3,0-0.8,0-1.2-0.1c-5.3-1.2-10.6-2.3-15.8-3.7c-3.4-0.9-6.6-2.3-9.9-3.5c-1.7-0.6-3.4-1.5-4.4-3
		c-2.8-4.3-5.4-8.8-8.1-13.1c1.1-1.2,1.6-1.2,2.2,0c1.2,2.2,2.4,4.4,3.6,6.6c1.1,1.8,2.2,3.6,3.4,5.3c1.8,2.4,4.7,3.3,7.4,4.2
		c3.8,1.3,7.8,2.1,11.7,3.2c2.7,0.7,5.3,1.5,8.2,1.3c1-0.1,2.1,0.6,3.1,0.6c3.7,0.2,7.3,0.4,11,0.5c0.9,0,1.8-0.2,2.7-0.5
		c2.1-0.6,4.2-1.4,6.4-2.1c0.3-1.6,0.6-3.2,0.9-4.8c0.5-2.3,1.1-4.6,1.7-7c0.2-0.8,0.1-1.3-0.8-1.7c-3.1-1.1-6.1-2.2-9.1-3.4
		c-0.5-0.2-0.8-0.6-1.2-1c0.3-0.4,0.6-0.9,1-1.1c3.1-1.5,6.3-2.9,9.4-4.3c0.9-0.4,2-0.5,3-0.8c0.5-0.1,1.1-0.3,1.3-0.6
		c0.4-0.6,0.5-1.3-0.1-2.1c-0.7-1-1.3-2.1-1.9-3.2c-0.9-2-0.8-3.1,1.1-4.2c0,0,0-0.1,0-0.6c-1.5,0.7-2.9,1.3-4.3,2
		c-2.4,1.4-5.5,1.2-6.5-2c-0.4-1.3-0.3-2.8,0-4.2c0.1-0.7,0.7-1.7,2.1-1.5c-0.1,0.3-0.1,0.7-0.2,0.9c-0.3,0.7-0.8,1.4-1,2.1
		c-0.6,2.4,1,4.4,3.5,4.2c0.5,0,1-0.3,1.4-0.5c1.2-0.6,2.4-1.2,3.7-1.7C140.4,81.1,141.3,81.1,142.1,82.5z M163,151.9
		c1.7-1,3.5-2,5.3-3.1c0.9-0.5,1.3,0.1,1.6,0.7c0.1,0.2-0.2,0.8-0.5,1c-1.2,0.9-2.5,1.6-3.8,2.4c-0.4,0.3-0.6,0.8-0.9,1.2
		c0.4,0.3,0.8,0.6,1.2,0.8c0.4,0.2,0.8,0.3,1.2,0.5c0.8,0.4,1.7,0.6,2.4,1.2c1.4,1.3,2.7,2.8,4.1,4.1c1.8,1.7,3.7,3.3,5.7,4.7
		c2.4,1.8,4.7,3.9,7.3,5.1c5.7,2.6,11.6,4.9,17.6,7.1c5.8,2.1,11.3,4.8,17.4,6.1c2.7,0.6,5.5,0.7,7.9-1.3c0.6-0.5,1.2-1.1,1.8-1.6
		c2.9-2.1,4.7-5.1,5.7-8.5c1-3.5,1.7-7,2.4-10.6c0.5-2.7,1-5.5,1.2-8.3c0.2-2.8,0.2-5.6,0.3-8.3c0-0.4,0.5-0.7,0.7-1
		c0.2,0.3,0.7,0.7,0.7,1c0,1.4-0.1,2.7-0.2,4.1c-0.2,2.6-0.2,5.2-0.5,7.8c-0.4,3.6-1,7.3-1.7,10.9c-1.1,5.7-3.5,10.7-8,14.7
		c-3,2.6-6.2,3.2-9.8,2.9c-2.7-0.3-5.2-1.2-7.7-2.2c-5.9-2.3-11.9-4.4-17.9-6.6c-4.9-1.8-9.8-3.5-14.1-6.7c-0.8-0.6-1.6-0.3-2,0.6
		c-1.1,3-2.2,5.9-3.3,9c1.1-0.3,2.4-0.6,3.5-1c2.7-0.9,5.4-1.3,8.1-0.5c2.8,0.8,5.6,1.9,8.4,2.7c3.3,0.9,6.6,1.8,10,2.4
		c1.8,0.3,3,1.2,4.2,2.2c0.8,0.6,1.7,1.4,2.6,1.5c1.6,0.2,3.2,0.1,4.8-0.2c3.3-0.5,6,0.7,7.6,3.4c0.8,1.3,1.6,1.2,2.7,1.1
		c0.7-0.1,1.4-0.2,2.1-0.4c2-0.6,4-1.2,5.9-1.8c3.1-1,6.3-1.6,9-3.6c2-1.4,4-2.7,6-4.1c0.8-0.5,1.8-0.7,2.1-2
		c0.8-3.6,1.8-7.1,2.7-10.6c0.5-1.6,1.2-3.2,1.6-4.9c0.8-3.1,1.4-6.2,2.3-9.3c0.3-1,0-1.5-0.7-2c-2-1.6-4.1-3.3-6.1-4.9
		c-3.5-2.9-6.9-5.8-9.8-9.3c-0.7-0.8-1.7-1.4-2.5-2.1c-1.2-1.1-2.3-2.2-3.4-3.4c-2.2-2.3-3.7-5.2-6.3-7.1c-1.5-1.1-2.2-2.9-1.8-4.8
		c0.6-2.8,0.3-5.6,0.2-8.4c0-0.7-0.3-1.5-1.4-1.4c-0.5,0-1.1-0.5-1.6-0.8c1.3-1.6,3.4-0.9,4.7,1.3c0.3-0.4,0.6-0.8,0.9-1.2
		c1.4-2.2,2.9-4.4,1.4-7.3c-0.8-1.5-1.4-3-3.1-3.7c-0.4-0.2-1-0.8-0.9-1.1c0.3-0.7,0.9-0.8,1.6-0.4c1.5,0.8,2.7,1.8,3.4,3.4
		c1,2.1,1.9,4.2,0.9,6.5c-0.6,1.2-1.3,2.3-1.9,3.4c-0.6,1-1.4,2-1.6,3.1c-0.4,1.9-0.2,3.8-0.6,5.7c-0.4,2,0.1,3.5,1.5,4.8
		c0.7,0.6,1.1,0.5,1.8,0.1c0.9-0.6,1.8-1,2.6-1.7c0.7-0.7,1.5-1.4,1.9-2.3c1.1-2.6,0.8-5.5,0.7-8.2c-0.1-3.7-0.2-7.3-2-10.7
		c-1.4-2.6-2.4-5.5-3.9-8.1c-1-1.8-2.5-3.3-4.8-2.8c-1.3,0.3-2.4,1.1-3.6,1.7c-0.5,0.3-1.1,0.6-1.2,1.1c-0.8,2.5-1.4,5.2-0.7,7.7
		c0.9,3.2,0.4,6.2,0.1,9.3c-0.1,1.5-0.8,2.2-2.3,2c-2.2-0.3-4.4-0.7-6.6-1.1c-2.6-0.5-5.2-1-7.8-1.5c-1.2-0.2-2.4-0.3-3.6-0.4
		c-3.8-0.5-7.3,0.2-10.5,2.4c-5.9,4.1-12.4,7-19.5,8.1c-4,0.6-8,1.4-11.9,2.7c-4.1,1.4-7.2,3.8-9.6,7.4c-0.4,0.6-0.8,1.4-0.9,2.1
		c-0.3,4.2,0.5,7.9,3.8,11C158.3,146.4,160.6,149.2,163,151.9z M216.9,70.3c3.1,0.2,5.4,1.7,7.4,3.7c1.6,1.6,2.9,3.4,4.3,5.2
		c2.4,3,4.8,5.9,7,9c1.7,2.3,3.1,4.7,4.7,7c0.4,0.6,0.9,1,1.3,1.6c2.8,3.5,5.7,7.1,8.6,10.6c2.6,3.2,5.1,6.4,6.7,10.3
		c1,2.5,2.2,5,3.1,7.6c0.4,1.1,1,1.2,1.9,0.7c2.6-1.2,5.1-2.4,7.7-3.6c3.6-1.8,7.2-3.3,10.2-6.1c3-2.7,5.6-5.7,7-9.5
		c0.8-2,0.7-3.9-1.1-5.5c-0.3-0.2-0.4-0.6-0.7-0.8c-1.9-2.3-3.8-4.8-5.8-7c-2.4-2.7-5-5.1-7.5-7.8c-3-3.2-5.8-6.6-8.7-9.9
		c-0.6-0.6-1.2-1.1-1.9-1.7c-1.1-0.9-2.2-1.8-3.2-2.7c-2.6-2.2-5-4.6-7.8-6.4c-3.9-2.5-8.1-4.4-12.1-6.6c-0.1-0.1-0.3,0-0.5-0.1
		c-1.8-0.8-3.8-1.3-5.4-2.4c-2.1-1.3-4.2-2.8-5.7-4.9c-0.5-0.7-1.4-1.2-2-1.9c-2.8-3.6-6.3-5.9-11-5.7c-2.6,0.1-5.1,0.4-7.6,0.8
		c-1.9,0.3-3.8,0.5-5.6,1.1c-3.9,1.3-7.9,2.3-12,3c-4.1,0.7-8,2.4-12.2,2.8c-2.1,0.2-4.2,1.3-6.3,1.7c-2.5,0.5-4.1,1.9-5.6,3.8
		c-1.7,2-3.6,3.8-5.5,5.6c-2.1,2-4.7,3.5-5.7,6.4c3-1.8,6.1-3.6,9.1-5.5c1.8-1.1,3.4-2.3,5.2-3.4c0.2-0.1,0.6,0,0.9,0
		c-0.1,0.3-0.1,0.6-0.2,0.9c-0.1,0.1-0.3,0.2-0.5,0.3c-3.3,2.1-6.7,4.2-10,6.3c-2,1.3-3.9,2.6-5.9,3.9c0.5,0.8,0.9,1.4,1.1,2
		c0.1,0.3,0,0.7-0.1,0.9c-0.1,0.1-0.6,0.1-0.8,0c-0.5-0.4-0.9-0.9-1.4-1.5c-0.8,1.8-1.6,3.5-2.4,5.2c-0.6,1.2-1.1,2.6-1.8,3.6
		c-1.9,2.6-2.3,5.6-3.2,8.6c1.6-1.5,3.3-2.9,4.6-4.6c1.9-2.3,3.4-4.8,5.2-7.1c1.2-1.6,2.6-3,4-4.4c1.6-1.6,3.1-3.3,5-4.5
		c3.4-2.1,7.1-3.9,10.7-5.8c0.3-0.2,0.8,0.1,1.2,0.1c0,0.1,0,0.3,0,0.4c-0.3,0.2-0.6,0.5-0.9,0.7c-2.5,1.3-5,2.5-7.4,3.8
		c-1.2,0.6-2.3,1.3-3.5,1.9c-0.9,0.4-0.8,0.9-0.1,1.5c0.7,0.6,1.3,1.3,1.9,1.9c0.2,0.2,0.3,0.6,0.2,0.7c-0.1,0.2-0.5,0.4-0.7,0.3
		c-0.4-0.2-0.7-0.4-1-0.7c-0.7-0.7-1.3-1.5-2.1-2.4c-1,1.1-1.9,2.2-2.8,3.2c-3.4,3.3-6.1,7.2-8.7,11.1c-0.5,0.8-0.8,1.3,0,2
		c0.3,0.3,0.5,0.8,0.6,1.2c0.2,1.7,0,3.3-1.3,4.6c-0.3,0.3-0.6,0.7-0.8,1.1c0.1,0.1,0.2,0.1,0.3,0.2c1.9-1.6,3.8-3.2,5.7-4.7
		c3.1-2.5,6.1-5.2,9.4-7.4c3.8-2.4,7-5.5,10.4-8.3c1.8-1.5,3.8-2.9,5.8-4.2c1.9-1.2,3.9-2.3,6-3.5c0,0,0.4,0.3,0.4,0.5
		c0,0.3-0.3,0.8-0.6,0.9c-1.9,1.1-3.8,2.1-5.7,3.2c-0.4,0.2-0.7,0.4-1,0.6c1,0.9,1.9,1.6,2.7,2.4c0.2,0.2,0,0.7,0,1
		c-0.3-0.1-0.7-0.1-1-0.2c-0.8-0.5-1.5-1-2.2-1.6c-0.8-0.7-1.3-0.4-2,0.2c-1.6,1.5-3.2,2.9-4.8,4.4c-1.6,1.4-3.2,2.7-4.9,4
		c2.7,0.9,3.3,3.4,1.4,5.2c-0.7,0.7-1.3,1.4-2,2c0.6-0.1,1-0.4,1.5-0.6c2.9-1.4,5.7-2.7,8.6-4.1c3.2-1.6,6.5-3,9.5-5
		c3.1-2.1,6.2-3.9,9.9-4.3c1.7-0.2,3.5-0.3,5.2-0.6c1.2-0.2,2.4-0.8,3.5-0.9c2.2-0.1,4.2-0.5,6-1.7c3-1.9,6.3-3.4,8.8-5.9
		c0.7-0.7,1.6-1.3,2.4-1.7c0.4-0.2,1.2,0,1.5,0.3c0.5,0.6,0,1-0.5,1.4C219.8,67.8,218.4,69,216.9,70.3z M223.1,208.6
		c0.1-0.4,0.3-0.7,0.4-1.1c1.1-4.6,1.8-9.3,1.7-14.1c-0.1-2.9-2-4.9-5-4.9c-2.2,0-4.4,0.1-6.6,0.2c-1.2,0.1-2-0.5-2.7-1.3
		c-1.1-1.3-2.3-2.3-4.1-2.6c-1.8-0.3-3.5-0.6-5.2-1.1c-3.1-0.9-6.1-1.9-9.2-2.8c-1.8-0.5-3.6-1.2-5.4-1.4c-3.8-0.4-7.3,1-10.6,2.6
		c-0.3,0.2-0.9,0.2-1.2,0c-0.3-0.2-0.4-0.8-0.4-1.1c0.1-0.7,0.3-1.4,0.6-2.1c1-2.6,2-5.2,3-7.8c0.4-1.1,0.8-2.1,1.3-3.3
		c-0.5-0.4-1.2-1.1-1.9-1.6c-1.1-0.7-2.3-1.7-3.5-1.8c-1.7-0.1-3.5,0.6-5.2,1c-0.3,0.1-0.4,0.4-0.6,0.7c-1,1.2-1.9,2.4-2.9,3.7
		c-0.8,1-1.6,1.9-2.2,3c-1.7,2.5-3.3,5-5.8,6.8c-1.5,1-2.3,2.5-3.1,4.1c-1.5,3.2-2.3,6.8-4.9,9.5c2.9,1.4,5,3.7,6.8,6.1
		c2.6,3.6,5.8,6.6,9.2,9.2c3.2,2.5,6.8,4.5,9.6,7.5c0.7,0.7,1.8,1.1,2.7,1.6c0.1-0.1,0.2-0.2,0.3-0.3c-0.5-1.5-0.8-3-1.5-4.3
		c-1.6-2.9-1.8-6.1-2.1-9.2c-0.1-1.4-0.3-2.9-0.4-4.3c-0.2-2.1-0.6-4.2-0.7-6.3c-0.2-2.1-0.2-4.3-0.2-6.4c0-0.4,0.4-0.7,0.7-1.1
		c0.4,0.2,0.8,0.4,1,0.7c0.2,0.3,0.2,0.8,0.2,1.1c0,2-0.1,4,0.1,5.9c0.3,3.1,0.7,6.2,1.1,9.3c0.2,1.9,0.2,3.8,0.7,5.6
		c0.8,3,2,5.9,3,8.9c0.1,0.3,0.4,0.6,0.6,0.8c4.8-1.1,9.5-2.1,14.2-3.2c3.2-0.7,6.4-0.8,9.5-0.3c3.6,0.6,7.1,1.2,10.8,1.9
		c0.4-1.9,0.9-3.9,1.2-5.8c0.4-2.3,2.4-3.7,4.6-2.9C221.6,207.9,222.3,208.2,223.1,208.6z M151.3,232.8c1.2-1.6,2.1-2.9,3-4.2
		c2.2-3,5.2-5.2,8.7-6.3c3.5-1.2,7.2-2,10.8-2.9c0.4-0.1,0.8-0.2,1.3-0.3c-0.9-0.8-1.7-1.6-2.6-2.3c-1.1-1-2.2-1.9-3.3-2.8
		c-2.6-1.9-5.3-3.8-7.9-5.8c-1.1-0.8-2-1.9-3-3c-1.2-1.3-2.4-2.7-3.6-4c-0.8-0.9-1.6-1.8-2.5-2.8
		C150.7,209.8,149.9,221.1,151.3,232.8z M265.3,146.7c0,0.4,0,0.7,0,1c0.4,1.9-0.1,3.6-0.9,5.3c-0.9,2.2-1.9,4.3-2.7,6.6
		c-0.5,1.5-0.3,3.3-0.9,4.8c-1.1,2.9-1.4,6-2.6,8.8c-1.1,2.7-1.6,5.7-2.3,8.6c-0.4,1.7-0.7,3.5-1,5.3c0.5-0.4,0.8-0.8,1.2-1.3
		c2.8-3.6,5.6-7.2,8.5-10.9c1.2-1.6,2.2-3.4,3.6-4.7c2.9-2.8,6.1-5.3,9.2-7.9c0.6-0.5,0.6-0.8,0.2-1.4c-1.8-2.6-3.6-5.2-5.3-7.8
		C270.6,150.3,268.4,148.1,265.3,146.7z M156.5,177.3c0.4-0.4,0.6-0.5,0.8-0.8c2-2.6,4-5.3,5.9-7.9c1.1-1.5,0.7-2.5-1-3.3
		c-3.8-1.6-7.5-3.4-11.2-5.1c-0.9-0.4-1.6-0.9-2.5-1.4C151.9,164.7,155,170.5,156.5,177.3z M232.6,87.7
		C232.6,87.7,232.7,87.7,232.6,87.7c-0.3-0.6-0.6-1.1-0.9-1.5c-1.9-2.3-3.8-4.6-5.7-6.9c-1.4-1.7-2.9-3.3-4.4-4.9
		c-2-2.2-5-1.6-7.5-2.4c0,0-0.1,0-0.1,0c-1.1,0.7-2.3,1.4-3.7,2.2c4.3,1.8,8.7,2.4,12.1,5.1C225.9,82.1,229.2,84.9,232.6,87.7z
		 M125.2,126.5c3.9,5,8.2,10.4,12.5,16c-0.5-2.3-1-4.5-1.4-6.7c-0.4-2.3-0.8-4.6-1.2-6.9c-0.1-0.8-0.5-0.9-1.2-1
		C130.9,127.5,127.8,127,125.2,126.5z M213.7,226.7c-0.1-0.1-0.2-0.2-0.3-0.3c-0.6,0.4-1.2,0.8-1.8,1.2c-1.8,1.3-3.7,2.5-5.9,2.9
		c-0.5,0.1-1,0.7-1.5,1.1c-5.8-1.3-11.4-0.7-16.7,2.3c1.2,0.7,2.5,1.2,3.6,2c1.2,0.8,2.4,1.1,3.7,0.5c1.1-0.5,2.1-1.2,3.2-1.7
		c0.9-0.4,1.9-0.6,2.8-0.8c0.3-0.1,3.7-1.1,3.9-1.2c2-1.2,4-2.3,6-3.5C211.8,228.5,212.7,227.5,213.7,226.7z M134.4,118.6
		c-5.3,2.7-10.6,2.9-16.3,2.2c0.7,1.8,2,2.4,3.5,2.7c2.4,0.6,4.8,1.2,7.3,1.6c1.8,0.3,3.7,0.5,5.5,0.7
		C134.4,123.4,134.4,121.2,134.4,118.6z M255.7,142c-0.4,0-0.9-0.1-1.3,0c-1.2,0.2-1.6,1.4-0.8,2.1c1.1,1.1,2.2,2.1,3.4,3.1
		c1.3,1.1,2.7,2.2,4.1,3.2c0.3,0.2,0.8,0.4,1.1,0.4c0.2,0,0.3-0.6,0.4-1c0.1-0.2,0.1-0.5,0.2-0.7c0.6-1.4,0.3-2.7-0.4-3.8
		C260.8,143.1,258.5,142.1,255.7,142z M205.6,216.5c0.7,1.5,1.3,2.9,1.8,4.2c0.5,1.2,1.5,1.8,2.7,1.7c1.4-0.1,2.8-0.3,4.2-0.4
		c0.1-0.7,0.3-1.3,0.4-1.8c0.2-1.3-0.4-2.1-1.8-2.4c-1.1-0.2-2.2-0.5-3.4-0.7C208.3,216.9,207.1,216.8,205.6,216.5z M166.6,86.1
		c0-1.8-1-2.5-2.4-2c-0.4,0.2-0.9,0.3-1.4,0.4c-2.2,0.4-3.3,3.1-1.8,4.8c1.4,1.6,1.3,1.4,2.5,0.2c0.2-0.3,0.6-0.4,0.8-0.7
		C165.3,87.8,166.5,87.1,166.6,86.1z M148,90.9c-0.1,0-0.2-0.1-0.3-0.1c0-0.5,0-1-0.1-1.4c-0.2-1-1.1-1.2-1.8-0.5
		c-1.1,1.1-2.2,2.3-3.1,3.6c-0.8,1.1-0.5,2.2,0.6,3c1,0.7,1.4-0.3,1.9-0.8c0.3-0.2,0.6-0.5,0.9-0.9C146.9,92.8,147.5,91.8,148,90.9z
		 M131.2,99.8c2.6,1,4.9,1.9,7.3,2.8c0.5-1.3,1-2.5,1.4-3.7C136.9,97.6,134.3,98.9,131.2,99.8z M129.9,98.3c0,0.1,0,0.2,0.1,0.4
		c3.4-0.8,6.7-1.5,9.9-2.2c0.1,0.3,0.2,0.6,0.3,0.9c0.1,0,0.2,0,0.3,0c0.2-1,0.5-2,0.8-3.2C136.7,94.1,133.7,97.2,129.9,98.3z
		 M143.6,82.8c-1.1,0.5-2.1,0.9-2.9,1.5c-0.3,0.2-0.6,0.8-0.5,1.2c0.3,1.1,0.8,2.1,1.3,3.4C142.3,86.6,142.9,84.8,143.6,82.8z"/>
	<path class="st0" d="M113.1,63.5c-0.4-0.2-0.8-0.5-1.2-0.7c0.3-0.4,0.4-1,0.8-1.2c3-1.6,6-3.2,9.1-4.7c0.4-0.2,1.6,0.3,1.9,0.8
		c0.9,1.3,1.6,2.8,1,4.5c-0.5,1.5-2.4,2.6-4,2.5c-2.3-0.1-4.5-0.6-6.7-1.3c-0.3-0.1-0.6,0-0.8-0.1C113.1,63.4,113.1,63.5,113.1,63.5
		z M118.7,63.3c-0.2-1.3-0.4-2.2-0.6-3.2c-1.1,0.6-2.2,1.1-3.6,1.8C116.1,62.4,117.4,62.8,118.7,63.3z M122.3,62.8
		c1.3-0.2,1.8-1,1.7-1.9c-0.1-0.9-0.3-1.9-1.4-2.3c-0.2-0.1-0.5,0-0.8,0c0,0.2-0.1,0.5,0,0.7C122.7,60.4,122.9,61.5,122.3,62.8z"/>
	<path class="st0" d="M124.1,49.6c0.9,0.3,2.4,0.6,3.8,1.1c0.8,0.3,1.6,0.9,1.1,2c-0.5,1.1-1.3,0.9-2.2,0.6c-1.6-0.6-3-1.6-4.8-1.2
		c-1.9,0.4-3.9,0.8-5.8,1.3c-1.5,0.4-3,1.2-4.5,1.6c-0.4,0.1-1.2-0.1-1.5-0.5c-0.2-0.2,0-1.1,0.3-1.4c0.6-0.5,1.3-0.9,2.1-1.1
		c2-0.7,4-1.5,6-2C120.2,49.8,121.9,49.8,124.1,49.6z"/>
	<path class="st0" d="M182.7,149.5c-0.7-0.1-1.6-0.3-2.3-0.5c-0.4-0.1-0.7-0.5-1.1-0.8c0.4-0.2,0.7-0.7,1.1-0.7
		c2.4-0.2,4.2,1.1,5.9,2.5c2.4,2.1,3.6,5,5,7.9c1.1,2.3,2.3,4.7,3.4,7c0.6,1.3,1.7,1.4,2.8,1.2c1.8-0.3,3.6-0.8,5.3-1.4
		c0.4-0.2,0.8-1,0.9-1.5c0.4-2,1.6-3.3,3.6-3.9c0.9-0.3,1.8-1.8,1.5-2.6c-0.3-1-2.1-1.8-3.1-1.2c-0.5,0.3-1,0.6-1.2-0.1
		c-0.3-0.7,0.1-1.2,0.8-1.4c1.6-0.6,4.2,0.5,4.9,2c0.7,1.4-0.3,3.7-1.9,4.6c-0.1,0-0.1,0.1-0.2,0.1c-1.9,0.4-2.7,1.7-3,3.5
		c-0.2,1.3-1,1.8-2.1,2.2c-2,0.7-3.9,1.4-6.1,1.3c-2-0.1-2.9-0.8-3.8-2.6c-2-4.1-4-8.1-6.1-12.1c-0.3-0.6-0.8-1.1-1.4-1.5
		c-1-0.9-1.3-0.8-2,0.4c-0.9,1.6-1.7,3.3-2.8,4.7c-1.3,1.7-3.2,2.6-5.4,2.5c-0.3,0-0.6-0.5-0.9-0.8c0.3-0.3,0.5-0.8,0.8-0.8
		c3-0.2,4.5-2.2,5.8-4.5C181.5,151.9,182.1,150.8,182.7,149.5z"/>
	<path class="st0" d="M205.3,173.8c1.1,0.3,1.9-0.4,2.5-1.2c0.8-1.1,1.6-2,3.1-2.1c0.1,0,0.3-0.1,0.4-0.2c2.2-2.5,5.2-3.9,7.8-5.9
		c0.8-0.6,1.6-1.1,2.4-1.6c0.2-0.1,0.1-0.6,0.3-0.8c0.4-0.5,0.9-1.1,1.5-1.5c0.2-0.1,0.6,0.1,0.9,0.1c-0.1,0.3-0.1,0.8-0.2,0.9
		c-1.2,0.5-1,1.6-1.2,2.6c-0.5,3.1-0.6,6.4-2.5,9.1c-1,1.5-2.2,2.8-3.9,3.4c-0.3,0.1-0.7,0.2-1,0.4c-3.1,1.8-5.7,0.5-8.4-1.1
		c-0.7-0.4-1.5-0.6-2.3-0.9c-0.4-0.2-0.7-0.4-1.1-0.7c0.4-0.2,0.8-0.4,1.2-0.6C204.9,173.7,205.1,173.8,205.3,173.8z M208.5,175.3
		c2.9,2,6.5,1.6,9-0.8c1.8-1.7,2.8-3.7,3.2-6.1c0.2-1,0.3-2,0.5-2.9c-1.3,1.3-2.4,2.7-3.4,4.2c-1.4,2-3.1,3.7-5.5,4.6
		C211.2,174.7,210,174.9,208.5,175.3z M208.3,174c5.1-1,9.7-4.4,10.3-8c-2.3,1.8-4.3,3.5-6.3,5.2c-0.2,0.2-0.5,0.5-0.8,0.5
		C209.8,171.7,209.1,172.8,208.3,174z"/>
	<path class="st0" d="M195.3,140.5c-0.6-0.3-0.8-0.9-0.3-1.5c0.8-0.9,1.6-1.9,2.6-2.5c1.4-0.8,3.1-1.2,4.5-2
		c1.9-1.1,2.6-3.1,2.8-5.2c0.1-0.7,0.3-1.2,1.1-1.1c0.3,0.1,0.7,0.6,0.6,0.9c-0.5,2.6-1.1,5.3-3.5,6.8c-1.3,0.8-3,1.2-4.3,2
		C197.6,138.6,196.6,139.6,195.3,140.5z"/>
</g>
</svg>
