<?xml version="1.0" encoding="utf-8"?>
<!-- Generator: Adobe Illustrator 19.2.1, SVG Export Plug-In . SVG Version: 6.00 Build 0)  -->
<svg version="1.1" id="Layer_1" xmlns="http://www.w3.org/2000/svg" xmlns:xlink="http://www.w3.org/1999/xlink" x="0px" y="0px"
	 viewBox="0 0 300 295.4" style="enable-background:new 0 0 300 295.4;" xml:space="preserve">
<style type="text/css">
	.st0{fill:#E91E63;}
</style>
<g id="mother-girl-crying">
	<path class="st0" d="M0,295.4c3-4.1,6.1-8.2,8.9-12.4c1.3-1.9,2-4.1,2.9-6.2c1.2-2.6,2.6-5.1,3.7-7.7c0.5-1.2,0.6-2.6,0.9-3.9
		c0.2-0.7,0.4-1.5,0.5-2.2c0.2-1,0.4-2,0.4-3c0-5.9,0-11.9,0-17.8c0-2.1,0.4-4.1,0.7-6.2c0.1-0.9,0.2-1.7,0.2-2.6
		c0-4.1,0.1-8.1,0-12.2c-0.1-3-0.5-6.1-0.7-9.1c-0.1-0.9,0-1.9,0-2.8c-0.2-1.9-0.4-3.8-0.6-5.7c-0.1-1.1-0.1-2.1-0.4-3.2
		c-0.6-2.7-1.3-5.4-2.5-8c-0.3-0.6-0.4-1.3-0.7-2c-0.6-1.5-1.4-3-2-4.5c-0.8-2.1-1.6-4.2-2.4-6.3c-0.3-0.8-0.5-1.6-0.9-2.3
		c-1.6-2.9-2.4-6-3.1-9.1c-1.1-4.6-1-9,1.2-13.3c1.6-3.4,3.2-6.8,4.8-10.2c1.1-2.4,1.9-4.9,3.1-7.2c1.7-3.4,3.6-6.6,5.5-9.9
		c1.7-2.9,3.8-5.4,6.7-7.3c1.5-1,2.8-2.2,4.2-3.3c0.5-0.4,1.2-0.6,1.8-0.9c1.7-1,3.4-2,5.2-2.9c1.7-0.8,3.5-1.4,5.2-2.1
		c6.3-2.5,12.7-4.9,18.8-8c1.8-0.9,3.8-1.6,5.7-2.5c3.9-1.8,7.5-4.2,10.6-7.2c1.5-1.4,3-2.8,4.4-4.2c0.2-0.2,0.2-0.6,0.2-0.9
		c-0.2-1.6-0.3-3.2-0.6-4.8c-0.3-1.9-0.6-3.8-1-5.7c-0.8-3.5-1.9-6.9-3.4-10.1c-0.2-0.5-0.3-1.1-0.5-1.7c-0.6-2-1.2-4.1-1.8-6.1
		c-0.7-2.6-1.5-5.3-2.1-7.9c-0.2-0.7-0.2-1.5-0.2-2.2c-0.3-2.5-0.6-5-0.7-7.5c-0.1-1.7-0.3-3.5-0.1-5.2c0.3-2.7,0.7-5.4,1.3-8.1
		c0.3-1.4,1-2.7,1.5-4.1c0.6-1.5,1.4-3,2.4-4.3c1.6-2,3-4.2,4.5-6.3c1.5-2.1,3.2-3.9,5.1-5.5c1-0.8,1.8-1.8,2.8-2.7
		c0.3-0.3,0.6-0.8,1-1c2.8-1.2,5.2-3.4,8.4-3.6c1.6-0.1,3.2-0.5,4.7-0.9c2.3-0.7,4.7-0.6,7-0.7c3.4-0.1,6.7,0.3,9.9,1.4
		c1.1,0.4,2.4,0.4,3.6,0.8c4.2,1.4,8.3,2.8,12.4,4.5c1.5,0.6,2.8,1.9,4,3c1.5,1.3,2.7,2.8,4.2,4.1c1.1,1.1,2.4,2,3.6,3
		c3,2.6,5.8,5.3,8.3,8.5c2,2.6,3.6,5.4,4.8,8.4c1,2.4,1.4,5,2,7.5c0.8,3.3,0.9,6.5,0.7,9.8c-0.2,2.4-0.6,4.8-0.7,7.2
		c-0.1,2.1,0,4.2,0.1,6.3c0.2,2.2,0.5,4.3,0.7,6.5c0.3,3,0.5,6,0.8,9c0.2,2.2,0.7,4.4,0.9,6.6c0.2,2.2,0.3,4.5,0.2,6.7
		c-0.1,1.3-0.8,2.5-1.4,3.7c-1.3,2.5-2.7,4.9-4,7.3c-1,1.9-2,3.9-3,5.9c-0.1,0.1-0.1,0.2-0.1,0.2c2.5,1.3,5.1,2.6,7.5,4
		c2.2,1.3,3.9,3.3,5.1,5.5c1.8,3.4,3.5,6.8,5.3,10.2c1.9,3.6,4.1,7,6.6,10.2c1.1,1.3,1.8,3,2.7,4.4c0.4,0.7,0.9,1.3,1.4,2.1
		c0.6-2.1,1.1-3.9,1.6-5.8c0.1-0.4,0.4-0.8,0.5-1.2c0.2-0.8,0.3-1.6,0.4-2.4c0.5-3.3,0.7-6.6,1.5-9.8c0.6-2.7,1.9-5.2,2.7-7.8
		c1.2-3.5,3-6.6,4.2-10c1.3-3.7,3.4-7,5-10.5c2.2-4.7,5.3-8.8,8.2-13c0.9-1.4,1.8-2.7,2.8-4.1c0.8-1.1,1.7-2.1,2.6-3.1
		c1.1-1.2,2.2-2.5,3.5-3.5c2.7-1.9,5.8-2.9,9-3.8c3.8-1.1,7.7-0.7,11.4-0.4c4.8,0.4,9.2,2.2,13,5.3c0.8,0.6,1.4,1.4,2.1,2.1
		c2,1.9,4,3.9,6,5.8c1.5,1.5,3.1,2.9,4.4,4.6c1.7,2.1,2.7,4.7,3.6,7.3c1.4,4.1,2.7,8.2,3.8,12.3c0.8,3,1.4,6,1.8,9.1
		c0.4,3.3,0.6,6.6,0.6,9.9c0,3.6-0.1,7.3-0.9,10.9c-0.4,1.7-0.4,3.6-1,5.2c-0.8,2.4-0.3,4.8-0.5,7.2c-0.1,0.9,0,1.9,0,2.7
		c2.9,0.7,5.8,1.3,8.8,2c0.3-1.2,0.6-2.4,1-3.6c0.8-2.1,2.4-3.2,4.6-3.5c1.7-0.2,3.2,1.2,3.6,2.8c0.3,1.4,1,2.7,0.8,4.2
		c-0.1,0.8,0,1.6-0.1,2.3c-0.2,1.1-0.5,2.2-0.8,3.4c0,0.2,0.1,0.4,0.2,0.6c0.2,0.3,0.5,0.5,0.8,0.7c1.7,1.4,3.5,2.8,5.2,4.2
		c0.9,0.8,1.7,1.8,2.5,2.7c0.9,1,0.9,1.7,0.1,2.8c-1.1,1.6-1.7,3.1-1,5.1c0.6,1.8,0.6,3.8-1.1,5.3c-1,0.9-1,2-0.7,3.1
		c0.4,1.6-0.2,2.9-1.2,4c-0.4,0.5-1,0.9-1.4,1.5c-0.4,0.6-0.7,1.3-0.9,2c-0.3,0.7-0.3,1.6-0.7,2.2c-1.2,1.9-2.8,3.5-4.8,4.7
		c-0.2,0.1-0.4,0.2-0.5,0.4c-1.5,1.8-3.5,2.8-5.5,3.9c-1.3,0.7-2.4,1.6-3.6,2.5c-0.2,0.1-0.4,0.3-0.5,0.6c-0.5,1.5-1.2,2.9-1.3,4.5
		c-0.3,2.9-0.7,5.7-1.1,8.6c-0.3,2-0.7,4-1.1,6c-0.1,0.9-0.1,1.8-0.2,2.8c-0.2,2.1-0.5,4.2-0.8,6.3c-0.3,1.7-0.5,3.4-1,5
		c-0.5,1.9-1.4,3.6-1.7,5.5c-0.8,4.1-3.2,7.5-5,11.1c-0.3,0.5-0.4,1.1-0.5,1.7c-0.1,1.7,0,3.4,0,5.1c0,3,0.7,5.8,1.9,8.4
		c1.2,2.7,2.5,5.3,3.7,8c1,2.2,1.8,4.3,1.9,6.8c0.1,2.3,0.7,4.5,1.1,6.8c0.1,0.4,0.2,0.9,0.3,1.3c-35.2,0-70.4,0-105.7,0
		c0.1-0.6,0.1-1.3,0.2-1.9c0.5-2.8,1.1-5.7,1.6-8.5c0.4-2.4,0.7-4.8,1-7.3c0.2-1.3,0.2-2.7,0.2-4c0-1.8,0-3.6,0-5.5
		c0-0.7-0.1-1.4-0.2-2.1c-0.3-2.3-0.8-4.6-1-7c-0.3-3.2-0.4-6.3-0.6-9.5c-0.1-1.3-0.1-2.5-0.3-3.8c-0.2-2.4-0.5-4.7-0.7-7.1
		c-0.1-1.5-0.3-3.1-0.4-4.6c-0.3-2.8-0.6-5.6-0.9-8.4c-0.1-0.6-0.1-1.2-0.1-1.8c-0.1,0-0.3,0-0.4,0c-0.2,3.1-0.2,6.2-0.5,9.3
		c-0.2,1.9-0.5,3.8-1,5.7c-0.7,2.6-1.4,5.2-1.3,7.9c0,1.6-0.1,3.2-0.2,4.7c-0.2,2.9-0.5,5.9-0.7,8.8c-0.1,1.2-0.3,2.5-0.5,3.7
		c-0.2,1.5-0.6,2.9-0.8,4.4c-0.2,1.3-0.3,2.6-0.4,3.8c-0.2,2.2-0.4,4.4-0.5,6.6c-0.1,2,0,4-0.3,6c-0.3,2-0.9,4-1.3,6
		c-0.3,1.4-0.6,2.9-0.8,4.3c-0.7,0-1.4,0-2,0c0.1-0.4,0.2-0.8,0.3-1.1c0.8-4.3,2.3-8.5,2.5-12.9c0.1-3.5,0.1-7.1,0.6-10.6
		c0.2-1.4,0.3-2.8,0.6-4.2c0.3-1.6,0.7-3.2,0.9-4.8c0.3-2.5,0.4-5,0.6-7.5c0.2-3.2,0.3-6.4,0.6-9.6c0.2-1.9,0.6-3.7,1.1-5.5
		c0.6-2.1,1-4.2,1.1-6.3c0-1.6-0.2-3.2,0.1-4.7c0.6-2.6,0.5-5.3,0.8-7.9c0.2-1.5,0.1-3,0.4-4.5c0.5-1.8,0.4-3.6,0.4-5.4
		c0-0.3-0.2-0.6-0.2-0.9c-3,1.6-5.9,3.2-8.2,5.7c-2.4,2.7-4.8,5.3-7.1,8c-2.1,2.4-4.1,4.8-6.1,7.2c-1,1.2-2,2.5-3.1,3.6
		c-2.4,2.6-4.9,5.1-7.3,7.6c-1.5,1.5-3.1,3-4.6,4.5c-0.6,0.5-1.6,0.8-1,1.9c0,0.1-0.1,0.2-0.1,0.4c-0.2,1-0.4,2-0.4,3.1
		c-0.1,1.9-0.1,3.8,0,5.7c0.1,1.9,0.4,3.8,0.7,5.6c0.2,1.3,0.2,2.5-0.6,3.6c-0.7,1-1.4,2-2.2,2.9c-2,2.3-4,4.5-6,6.7
		c-2.4,2.8-4.4,6-5.2,9.7c-0.7,3.3-1.3,6.6-1.9,9.9c-0.6,0-1.1,0-1.7,0c0-0.2,0-0.5,0-0.7c0.6-3,1.2-6,1.7-9.1
		c0.5-2.9,1.5-5.7,3.3-7.9c3-3.8,6.2-7.5,9.4-11.1c1.1-1.2,1.3-2.6,1.1-4c-0.2-1.9-0.6-3.9-0.7-5.8c-0.1-2.8,0.1-5.6,0.1-8.3
		c-1.5,1-3.1,2.1-4.4,3c-0.1,0.9-0.2,1.6-0.2,2.3c0,2.4,0.1,4.7-0.1,7.1c-0.1,1.2-0.4,2.3-0.7,3.5c-0.2,0.8-0.6,1.5-0.9,2.2
		c-0.4,0.8-0.7,1.6-1.1,2.3c-0.5,0.7-1.2,1.4-1.8,2c-0.7,0.8-1.5,1.6-2.2,2.5c-1.2,1.3-2.5,2.4-3.1,4.1c-1.3,3.8-2.7,7.6-3.9,11.5
		c-0.7,2.2-0.9,4.5-1.3,6.7c-0.6,0-1.1,0-1.7,0c0.1-0.7,0.3-1.3,0.4-2c0.5-4.4,1.8-8.5,3.2-12.7c0.6-1.9,1.5-3.8,2.3-5.7
		c-3.5,2.1-7,4-11,5c-2.1,0.5-4.1,1.1-6.2,1.4c-2.9,0.4-5.8,0.7-8.7,1c-1.8,0.1-3.6,0-5.4,0c-1,0-2.1-0.2-3.1,0
		c-0.8,0.2-1.7,0.7-2.3,1.3c-1.9,1.9-4.3,1.7-6.6,2c-0.2,0-0.4-0.1-0.5-0.2c-1.4-0.8-2.9-1.4-4.2-2.3c-3.5-2.5-6.9-5.1-9.7-8.4
		c-1.1-1.3-2.1-2.5-3.1-3.9c-0.4-0.6-0.8-1-1.6-1.3c-3.7-1-7.3-2.2-11-3.2c-3.8-1-7.6-1.8-11.4-2.7c-0.3-0.1-0.7-0.5-0.7-0.8
		c0-0.3,0.3-0.8,0.6-0.8c0.7-0.1,1.5-0.1,2.1,0.1c2.8,0.7,5.7,1.4,8.5,2.1c3.4,0.9,6.8,1.9,10.2,2.8c0.4,0.1,0.9,0.3,1.5,0.5
		c-0.8-1.9-1.3-3.7-2.1-5.3c-2.9-5.7-5.4-11.7-7.5-17.7c-0.8-2.3-1.6-4.7-2.4-7.1c-0.7-1.9-1.4-3.7-2-5.6c-0.6-2-1-4-1.5-6
		c-0.7-2.7-1.6-5.4-2.2-8.1c-0.4-1.7-0.6-3.5-1.1-5.3c-1.1-3.8-2.5-7.6-3.6-11.4c-0.9-3.2-1.3-6.5-2-9.7c-0.9-4.3-1.9-8.6-2.9-12.9
		c-0.4-1.9-1-3.7-0.9-5.7c0-0.4-0.2-0.8-0.4-1.2c-0.5-0.9-1.1-1.7-1.7-2.5c-2-2.6-4-5.2-6.1-7.7c-0.7-0.8-1.4-1.7-2.3-2.3
		c-0.6-0.4-1.5-0.5-2.2-0.3c-0.3,0-0.5,1-0.5,1.6c-0.1,2.6-0.2,5.2,0.5,7.7c0.7,2.3,1.3,4.6,2.1,6.8c0.8,2.1,1.9,4.2,2.6,6.3
		c0.7,2.2,1.7,4.2,2.7,6.3c0.4,0.7,0.7,1.5,0.9,2.3c0.2,0.6,0.4,1.2,0.6,1.8c0.5,1.5,1.2,3,1.7,4.5c0.7,2.3,1.2,4.7,1.3,7.1
		c0.1,1.9,0.4,3.7,0.5,5.6c0.1,0.8,0,1.6,0,2.3c0.2,3,0.6,6.1,0.7,9.1c0.1,2.9,0.1,5.9,0.1,8.8c0,1.9,0.1,3.7-0.1,5.6
		c-0.1,1.8-0.6,3.6-0.7,5.4c-0.2,3.2-0.2,6.4-0.2,9.7c-0.1,4.6-0.1,9.2-0.2,13.8c0,0.8-0.2,1.5-0.3,2.3c-0.5,3.1-2.1,5.7-3.5,8.5
		c-0.7,1.4-1.4,2.8-2,4.2c-0.8,1.7-1.4,3.5-2.4,5c-1.9,2.9-3.9,5.7-5.9,8.6c-0.7,1.1-1.5,2.2-2.2,3.2C1.6,295.4,0.8,295.4,0,295.4z
		 M77.9,241c0.9-0.4,1.6-0.8,2.3-1.1c4.1-1.4,8-3.2,12-5.1c3.4-1.6,6.7-3.3,9.8-5.4c2.1-1.4,4.2-2.8,6.5-4c3-1.7,6.1-3.2,9.2-4.8
		c0.2-0.1,0.5-0.4,0.5-0.6c-0.1-1.9,0.7-3.6,0.9-5.4c0.3-2.4,1-4.8,0.8-7.3c-0.1-1.9-0.2-3.7-0.4-5.6c-0.1-1.7-0.2-3.5-0.4-5.2
		c-0.2-2.8-0.5-5.6-0.7-8.4c-0.1-0.9-0.1-1.8-0.2-2.8c-0.2-2.7-0.6-5.3-0.7-8c-0.1-2.3-0.4-4.5-0.9-6.6c-0.5-2.2-1-4.4-1.6-6.6
		c-0.5-1.9-1.3-3.7-2.8-5.1c-2.5-2.3-4.8-4.7-7.7-6.6c-2.4-1.6-4.6-3.6-6.9-5.4c-2.1-1.6-4.4-2.9-6.4-4.5c-2.6-2.2-5.1-4.6-7.6-7
		c-2.6-2.5-5.1-5.2-7.5-7.8c-2.9-3.2-5.5-6.5-8.4-9.7c-3-3.2-5.8-6.5-8.5-10c-0.5-0.6-1.2-1.2-2.1-0.9c-4.7,1.9-9.4,3.8-14.1,5.8
		c-1.7,0.7-3.5,1.3-5.1,2.1c-1.6,0.8-3.2,1.8-4.8,2.6c-0.6,0.3-1.3,0.5-1.8,0.9c-1.7,1.3-3.4,2.6-5.1,4c-1.3,1.1-2.6,2.1-3.5,3.5
		c-1.7,2.4-3.2,4.9-4.6,7.5c-1.6,3-3.1,6.1-4.5,9.2c-1.5,3.1-2.9,6.3-4.3,9.4c-0.7,1.6-1.4,3.1-2.2,4.7c0.3,0.1,0.5,0.2,0.6,0.2
		c1.5-0.1,2.5,0.8,3.4,1.9c1.1,1.3,2.1,2.6,3.2,3.9c1.6,2,3.1,4,4.6,5.9c0.7,0.9,1.4,1.8,2.1,2.6c1,1.2,1.8,2.6,3,3.5
		c2.7,2.1,5.6,3.8,8.6,5.3c4.4,2.1,8.7,4.5,13,6.8c4.8,2.6,9.8,5,14,8.5c1.8,1.5,3.5,3.2,5.1,5c1,1.1,1.6,2.5,2.3,3.8
		c0-0.1,0.1-0.2,0.1-0.1c3.2,5.1,4.8,11.1,7.1,16.8c0-2.4,0-4.8,0-7.1c0-0.2-0.1-0.3-0.1-0.5c-0.2-1.5-0.6-3-0.6-4.5
		c-0.1-2.4-0.8-4.7-2-6.7c-1.2-2.1-2.8-3.9-4.2-5.9c-0.4-0.5-0.6-1.1-0.9-1.7c-0.8-1.2-1.7-2.3-2.5-3.5c-0.4-0.6-0.7-1.3-1-2
		c-0.2-0.3-0.1-0.8-0.2-1.1c-0.5-1-1.2-1.9-1.8-2.9c-0.8-1.3-1.9-2.6-2.5-4.1c-1.6-3.7-4-6.8-6.6-9.8c-1.4-1.7-2.6-3.5-3.9-5.2
		c-0.1-0.2-0.1-0.8,0.1-1c0.2-0.2,0.7-0.3,1-0.1c0.4,0.2,0.7,0.6,1,1c1.5,1.9,2.9,3.8,4.4,5.8c1.3,1.8,2.9,3.4,3.9,5.3
		c1.5,2.9,3.1,5.8,4.9,8.5c0.2,0.3,0.4,0.5,0.6,0.8c0.1,0,0.2-0.1,0.4-0.1c-0.1-1.6-0.1-3.3-0.3-4.9c-0.4-2.7-1-5.4-1.4-8.1
		c0-0.3,0.2-0.7,0.4-0.9c0.2-0.1,0.7-0.1,1,0.1c0.2,0.1,0.4,0.5,0.4,0.7c0.2,1.4,0.3,2.8,0.6,4.2c0.9,3.7,1.1,7.4,1.1,11.2
		c0,1.5,0.4,2.8,1.2,4c2,2.8,4.1,5.6,6.1,8.4c0.7,1,1.6,2.1,1.8,3.2c0.5,2.9,0.8,5.8,1,8.8c0.2,3.3,0.3,6.5,0.4,9.8
		c0,0.9,0.2,1.9,0.3,2.8c0.1,0.9,0.2,1.9,0.2,2.8c0,0.4-0.2,0.9-0.2,1.3c0.5,3.5,1.2,7,1,10.6C77.9,240.4,77.9,240.6,77.9,241z
		 M21.3,174.9c0.5,2.3,0.9,4.8,1.4,7.2c0.6,2.8,1.3,5.6,1.9,8.4c0.5,2.5,0.8,5.1,1.5,7.5c0.9,3.5,2.1,6.9,3.1,10.4
		c0.5,1.7,1.1,3.3,1.6,5c0.4,1.7,0.5,3.4,1,5c0.8,2.9,1.7,5.8,2.6,8.7c0.6,2.2,1,4.5,1.8,6.6c1.4,4.1,3,8.2,4.4,12.3
		c1.5,4.1,3.1,8.2,5,12.2c1,2.1,2.1,4.2,2.9,6.4c0.9,2.4,2,4.6,3.5,6.6c1.4,1.9,3.1,3.5,4.7,5.2c0.5,0.5,1,1,1.5,1.5
		c1.8,1.5,3.7,3,5.6,4.5c0.7,0.5,1.5,0.7,2.4,0.9c0.9,0.2,1.9,0,2.8,0.3c0.9,0.4,1.6,0.2,2.3-0.3c1.5-1,2.9-2.1,4.5-2.9
		c5.5-2.6,10.5-6,15.6-9.2c5.4-3.4,10.7-7,16-10.4c3.6-2.3,6.5-5.6,9.8-8.2c2.1-1.6,4.2-3.2,6.3-4.8c2.4-1.8,4.9-3.5,7.1-5.5
		c3-2.8,5.7-5.9,8.5-8.9c0.4-0.4,0.9-0.8,1.3-1.2c2.1-2.3,4.2-4.7,6.3-7.1c1.6-1.9,3.2-3.9,4.9-5.8c1.3-1.5,2.6-3,3.9-4.5
		c2.1-2.4,4.4-4.5,7.3-6c3.5-1.8,5.9-4.6,7.4-8.2c1-2.3,1.8-4.6,2.7-7c0.1-0.2,0.1-0.5,0.2-0.7c0.7-2.7,1.4-5.4,2.1-8.1
		c0.5-2.3,1.4-4.6,2.6-6.6c0.5-0.9,1.1-1.7,1.7-2.5c1.1-1.6,3.3-2.2,4.1-4.1c0-0.1,0.2-0.1,0.2-0.2c0.2-0.3,0.6-0.6,0.7-0.9
		c0.2-1.1,0.2-2.2,0.4-3.4c-1.4,0-2.6,0.6-3.7,1.2c-2.7,1.6-5.3,3.1-8,4.6c-0.6,0.3-1.4,0.8-1.9,0c-0.5-0.7,0.2-1.3,0.6-1.8
		c2.1-2.2,4.2-4.4,6.5-6.4c1.2-1.1,2.3-2.3,4.1-2.6c1.1-0.2,2.3-0.6,3.3-0.9c0.7-0.2,1.5-0.5,1.9-1c0.8-0.9,1.3-1.9,1.9-2.9
		c0.5-0.9,0.3-1.3-0.7-1.5c-0.2,0-0.4,0-0.6,0c-2.3,0.2-4.6,0.3-6.9,0.6c-1.8,0.2-3.6,0.7-5,2c-3,2.8-5.9,5.6-8.9,8.3
		c-0.4,0.4-0.7,0.7-1.2,0.2c-0.5-0.5-0.2-0.9,0.2-1.2c2.2-2.2,4.5-4.3,6.7-6.5c0.8-0.7,1.5-1.6,2.4-2.2c2.6-2,5.7-2.3,8.9-2.5
		c1.2-0.1,2.5-0.1,3.7-0.2c0.2,0,0.6-0.2,0.6-0.3c0.1-0.7,0.3-1.4,0.2-2.1c-0.2-0.8-0.9-1.2-1.7-1.4c-1-0.1-2-0.3-3-0.4
		c-2.7-0.3-5.3-0.4-8,0.2c-1.5,0.3-3,0.7-4.5,1c-2.1,0.4-3.6,1.5-4.8,3.2c-1.1,1.7-2.2,3.4-3.3,5.1c-0.8,1.1-1.5,2.3-2.4,3.4
		c-0.2,0.2-0.8,0.3-1.1,0.2c-0.5-0.2-0.3-0.7,0-1.1c1.6-2.5,3.3-5,4.9-7.5c1.2-1.9,2.5-3.7,4.9-4.3c1.3-0.3,2.6-0.7,4-1
		c1.8-0.4,3.6-0.6,5.7-0.9c-0.4-0.4-0.7-0.8-1-0.9c-1.1-0.3-2.3-0.7-3.5-0.8c-1.7-0.1-3.5,0.1-5.2,0.1c-1.3,0.1-2.5,0-3.8,0.2
		c-0.8,0.1-1.7,0.4-2.3,0.9c-1.5,1.2-2.8,2.6-4.1,3.9c-0.7,0.7-1.4,1.4-1.9,2.2c-0.9,1.4-1.6,2.9-2.5,4.4c-1,1.5-2,3-3.1,4.4
		c-0.8,1-1.2,2-1.2,3.3c-0.1,1.4-0.2,2.8-0.4,4.1c-0.3,3.1-0.6,6.1-0.9,9.2c-0.2,2.1-0.3,4.1-0.5,6.2c-0.4,2.7-0.9,5.4-1.3,8.1
		c-0.2,1.1-0.3,2.3-0.8,3.3c-1.3,2.3-2.9,4.3-4.9,6c-3,2.5-5.9,5.2-8.8,7.8c-0.9,0.8-1.8,1.8-2.7,2.7c-1.8,1.5-3.6,3-5.5,4.4
		c-2,1.4-3.9,2.9-6.1,4.1c-3.9,2.2-8,4.1-11.9,6.4c-4.7,2.9-9.2,6-14.3,8.2c-2.2,0.9-4.3,2.1-6.6,3c-1.7,0.7-3.6,1.1-5.2,1.9
		c-3.5,1.6-6.9,3.5-10.3,5.1c-1.6,0.8-3.1,1.5-4.1,3c-0.1,0.2-0.4,0.4-0.6,0.5c-0.5,0-1,0-1.4-0.2c-0.1-0.1-0.2-0.8,0-1
		c0.6-0.7,1.2-1.3,1.9-1.8c1.1-0.7,2.2-1.4,3.3-1.9c2.1-1,3.9-2.6,6.1-3.5c0.1-0.1,0.3-0.3,0.3-0.4c0.1-0.5,0.2-1,0.2-1.5
		c0-1.7-0.1-3.5-0.2-5.2c-0.1-1.5-0.3-3-0.6-4.5c-1.1-5.6-3.3-10.8-5.3-16.1c-1.2-3.2-2.9-6.1-4.4-9.1c-1.1-2.1-2.2-4.1-4-5.8
		c-2.2-2.1-4.5-4-7.1-5.5c-3.3-1.9-6.6-3.8-10-5.6c-3.3-1.8-6.7-3.6-10.1-5.4c-2.4-1.3-5-2.4-7.3-3.8
		C24.9,177.8,23.2,176.3,21.3,174.9z M176.7,184.8c-0.4,1.1-0.7,2.2-1,3.2c-0.3,1.2-0.4,2.5-0.8,3.7c-0.4,1.3-1,2.6-1.4,3.9
		c-0.6,1.5-1,3.1-1.6,4.7c-0.9,2.2-1.9,4.3-3.4,6.1c-0.2,0.2-0.3,0.4-0.3,0.6c-0.1,1.4-0.2,2.8-0.1,4.2c0.1,1.2,0.4,2.3,0.6,3.5
		c0.1,0.9,0.2,1.8,0.4,2.6c0.6,2,1.2,4,1.8,6c0.7,2.3,1.3,4.6,2.1,6.8c1,2.9,1.7,5.9,3.3,8.5c0.1,0.2,0.1,0.5,0.2,0.7
		c0.6,1.9,1.2,3.8,2,5.6c1.2,2.5,2.8,4.8,4.5,7c2.2,2.8,4,5.9,6,8.7c0.9,1.3,2,2.5,3.3,3.3c1.8,1.1,3.7,2.3,5.9,2.4
		c1.7,0.1,3.3,0.3,5,0.4c0.3,0,0.7-0.1,0.8-0.3c0.5-0.6,1.2-1.1,1.5-1.8c0.8-1.7,1.5-3.5,2-5.3c0.6-1.9,0.9-3.8,1.4-5.7
		c0.1-0.6,0.3-1.2,0.4-1.9c0.3-2,0.5-3.9,0.9-5.9c0.6-2.9,1.4-5.8,1.9-8.7c0.9-5.5,1.7-10.9,2.4-16.4c0.4-3,0.6-6.1,0.9-9.1
		c0.2-2,0.4-4,0.6-6c0.3-3,0.5-5.9,0.8-8.9c0.2-2.1,0.5-4.1,0.8-6.2c0.2-1.4,0.7-2.7,1-4.1c0.3-1.6,0.4-3.2,0.8-4.8
		c0.6-2.3,1.3-4.5,2-6.8c0.9-3.4,2.9-6,6-7.6c2.6-1.3,4.5-3.3,5.8-5.8c1.7-3,3.5-5.9,6.2-8.2c1.2-1.1,2.3-2.3,3.5-3.3
		c0.8-0.6,1.2-1.3,1.6-2.2c0.9-2.4,1.8-4.8,2.8-7.3c-0.4-0.3-0.9-0.6-1.4-1c-1.2,2.1-2.3,4.1-3.4,6.1c-1.5,2.7-3.6,4.9-6,6.8
		c-1.8,1.4-3.4,2.9-4.7,4.7c-0.2,0.2-0.5,0.3-0.8,0.5c0-0.4-0.2-0.9,0-1.1c1.3-1.9,2.9-3.4,4.7-4.8c2.4-1.9,4.5-4,5.9-6.8
		c0.3-0.6,0.6-1.1,0.9-1.7c1.2-2.1,2.3-4.3,3.6-6.6c-2.1,0.3-3.2-0.6-3.8-2.5c-0.3,0.4-0.4,0.7-0.6,1c-0.6,1-1.2,2-2,3
		c-1.5,1.9-3,3.7-4.5,5.6c-2.1,2.8-4.3,5.6-6.9,8c-0.2,0.2-0.7,0.2-1,0.3c0.1-0.3,0.1-0.8,0.3-1c0.9-1.1,1.9-2.2,2.9-3.3
		c0,0,0.1-0.1,0.1-0.1c2.6-3.2,5.3-6.5,7.9-9.7c1.4-1.7,2.4-3.7,3-5.8c0.4-1.2,0.3-1.3-0.9-1.6c-1.7-0.4-2.8-1.3-3.3-3.2
		c-0.7,1.5-1.3,2.7-1.9,4c-1.2,2.8-2.5,5.5-4.9,7.6c-1,0.9-1.9,1.9-2.8,3c-1.7,1.8-3.2,3.8-5.4,5.1c-0.7,0.5-1.8,0.7-2,1.9
		c0,0.1-0.6,0.2-0.8,0.1c-0.2-0.1-0.4-0.6-0.3-0.7c0.2-0.4,0.5-0.8,0.9-1.1c1.4-1.1,2.9-2,4.2-3.3c2.2-2.2,4.3-4.5,6.5-6.8
		c1.7-1.8,2.7-4.1,3.6-6.4c-1.7-0.3-3-1-3.3-2.8c-0.5,0.5-0.9,1-1.3,1.5c-1.5,1.5-3.2,2.9-4.6,4.5c-2.7,3.2-6.3,5.3-9.4,8
		c-2.8,2.4-6.3,3.9-8.6,6.8c-0.1,0.1-0.5,0.1-0.7,0.2c0-0.3-0.2-0.7-0.1-0.8c0.6-0.7,1.2-1.5,2-2c1.3-1,2.8-1.9,4.1-3
		c1.9-1.4,3.8-2.9,5.6-4.4c0.6-0.5,1-1.4,1.5-2.1c-0.1-0.1-0.2-0.2-0.2-0.3c-2.3,1.6-4.6,2.4-6.6-0.3c-1,0.5-2,1-3,1.5
		c-2.2,1-4.1,2.2-4.6,4.8c-0.1,0.5-0.4,0.9-0.6,1.3c-0.9,2-1.7,4.1-1.8,6.3c-0.2,3.8-0.3,7.7-0.4,11.5c0,0.7-0.2,1.5-0.4,2.2
		c-0.5,1.9-1.1,3.8-1.5,5.8c-0.4,1.8-0.6,3.7-0.9,5.6c-0.1,1-0.2,2-0.2,3c0,1.4,0.2,2.7,0.1,4.1c-0.3,2.8-0.7,5.6-1.1,8.4
		c-0.4,2.5-0.5,5.1-1.2,7.5c-1,3.4-1.5,6.8-2.1,10.3c-0.9,4.8-2.1,9.5-4.5,13.8c-1.2,2.2-2.1,4.5-3.1,6.8c-1.2,2.9-2,5.9-2.5,9.1
		c-0.3,1.8-0.4,3.5-0.6,5.3c-0.1,0.4-0.4,0.8-0.7,1c-0.3,0.1-0.9,0-1.1-0.2c-0.3-0.3-0.5-1.1-0.4-1.2c0.9-0.8,0.5-1.9,0.6-2.8
		c0.5-3.9,1.3-7.8,2.8-11.4c1.2-2.9,2.5-5.8,4-8.6c1.5-3,2.2-6.2,3.1-9.4c0.3-0.9,0.5-1.9-0.2-2.8c-0.1-0.2-0.1-0.4-0.2-0.6
		c-0.3-1.6-0.4-3.3-0.8-4.9c-0.6-2.8-1.5-5.4-3.1-7.7c-1.1-1.5-2.2-2.8-2.9-4.6c-0.1-0.4-0.5-0.7-0.9-0.9c-1.1-0.8-2.1-1.5-3.2-2.3
		C180.3,185.4,178.6,185.1,176.7,184.8z M248.1,130.5c0,0.2,0,0.3,0,0.5c0.4,2.4,0.7,4.7,1.1,7c0,0.2,0.4,0.4,0.6,0.4
		c1.4,0.2,2.8,1.1,3,2.5c0.2,1.6,0.3,3.2,0.2,4.8c-0.2,2.4-0.6,4.8-0.9,7.2c-0.1,1.2-0.1,2.3-0.2,3.5c0,0.4-0.4,0.9-0.7,0.9
		c-0.6,0.1-0.8-0.5-0.7-1c0.1-1.5,0.2-3,0.4-4.5c0.2-1.9,0.5-3.7,0.7-5.6c0.1-1,0.1-2,0.2-3c-1.5,0.3-2.7,0.4-3.7-0.7
		c-0.3,0.6-0.6,1.1-0.8,1.7c-0.4,0.8-0.8,1.7-1,2.5c-0.4,1.6-0.7,3.3-1.1,4.9c-0.5,1.8-1.4,3.5-1.9,5.2c-0.4,1.3-0.5,2.8-0.5,4.2
		c0.1,2.2,0.6,4.4,0.6,6.6c0.1,4.6,0,9.3,0,13.9c0,0.2,0,0.5,0,0.7c-0.2,1.9-0.4,3.9-0.5,5.8c-0.1,0.8-0.1,1.6-0.2,2.4
		c-0.1,1-0.2,2.1-0.4,3.1c-0.1,1.3-0.3,2.6-0.4,3.9c-0.3,2.5-0.6,5-0.9,7.5c-0.2,1.6-0.2,3.3-0.4,4.9c-0.2,1.7-0.7,3.4-0.8,5.2
		c-0.3,3.7-0.4,7.4-0.6,11.1c-0.1,1.9-0.2,3.9-0.4,5.8c-0.3,3.5-0.8,7-1.1,10.5c-0.2,2.6-0.1,5.3-0.2,7.9c0,1.6-0.1,3.3-0.2,4.9
		c-0.1,3.5,0.1,7,1.4,10.3c0.5,1.3,1.3,2.3,2.6,2.9c2.3,1.1,4.7,1,6.9,0.4c2.2-0.7,4.3-1.8,6.5-2.8c3-1.4,4.9-3.9,6.8-6.4
		c1.9-2.6,3.4-5.5,5.1-8.3c1.3-2.1,1.6-4.4,2.4-6.7c1.7-4.8,2.5-9.9,3.2-14.9c0.3-2.7,0.6-5.4,1-8c0.4-3,0.9-6,1.3-9
		c0.3-2.5,0.5-5.1,1-7.6c0.4-2.4,1.2-4.7,2.5-6.8c0.9-1.6,1.5-3.4,2.4-5.3c-1.4-0.1-2.6-0.1-3.8-0.2c-2-0.1-4,0.3-6,0.5
		c-2.1,0.2-4.1,0.5-6,1.4c-0.3,0.2-0.7,0.6-0.8,1c-0.2,3.3-0.6,6.6-0.6,10c0,4.3-0.4,8.6,0.5,12.8c0.6,2.6,1,5.2,1.5,7.8
		c0.4,2.3,1.1,4.5,1.3,6.8c0.3,3.3,0.3,6.6,0.4,9.9c0,0.8,0.2,1.7,0.1,2.5c0,0.6-0.3,1.2-1,1c-0.3-0.1-0.8-0.5-0.8-0.8
		c-0.2-3.4-0.3-6.8-0.4-10.3c0-1.1,0-2.2-0.2-3.3c-0.8-4.1-1.8-8.2-2.5-12.3c-0.4-2.4-0.7-4.8-0.8-7.2c-0.2-4.1,0.2-8.2,0.5-12.3
		c0.2-2.8,0.3-5.6,0.4-8.3c0-0.9,0.2-1.8,0.3-2.6c0.2-1.8,0.6-3.5,0.6-5.3c0-2.7-0.5-5.5-0.5-8.2c0-2.3,0.4-4.5,0.5-6.8
		c0.1-2.3,0.9-4.4,1.9-6.3c1.3-2.5,3-4.9,4.5-7.3c1-1.6,1.8-3.3,1.6-5.4c-0.2-2.1-0.5-4.1-0.3-6.2c0.1-1.8-0.9-2.9-1.6-4.5
		c0,0.7,0,1.1,0,1.5c0.1,2.1,0.3,4.1,0.3,6.2c0,0.2-0.3,0.7-0.5,0.7c-0.3,0-0.7-0.2-0.8-0.5c-0.2-0.4-0.2-0.8-0.2-1.2
		c-0.2-2.8-0.3-5.5-0.6-8.3c-0.2-1.4-0.5-2.8-1.3-4.1c-0.9-1.3-1.5-2.8-2.2-4.2c-0.6-1.2-1.2-2.4-1.8-3.5c-0.8,0.5-1.6,1-2.5,1.5
		c0.3,0.6,0.7,1.3,1,2c0.6,1.6,1.2,3.3,1.8,5c1,2.6,1.5,5.4,1.8,8.2c0.2,1.3,0.2,2.7,0.5,4c0.1,0.6,0.2,1.2-0.5,1.3
		c-0.7,0.2-0.9-0.4-1-0.9c-0.1-0.3-0.1-0.5-0.1-0.8c-0.1-1,0-2-0.2-2.9c-0.4-2.2-0.7-4.5-1.3-6.6c-0.6-2.2-1.5-4.4-2.3-6.5
		c-0.5-1.4-1.1-2.9-1.6-4.3c-0.1-0.4-0.3-0.8-0.5-1.5c-0.8,2.4-2.5,2.6-4.3,2.5c0.5,1.3,1.1,2.4,1.5,3.7c1,3.6,1.8,7.2,2.8,10.8
		c0.7,2.7,1.3,5.3,1.1,8.1c0,0.6,0,1.4-0.7,1.4c-0.8,0-0.8-0.8-0.8-1.4c0-1.1,0-2.3,0-3.4c0-0.3-0.1-0.6-0.1-0.9
		c-0.8-3.4-1.7-6.8-2.5-10.2c-0.5-1.8-1-3.6-1.5-5.5C251.1,130.6,249.8,131.3,248.1,130.5z M156.7,42.1c-0.8,0.5-1.3,1-2,1.3
		c-1.9,0.8-3.8,1.5-5.7,2.2c-2.4,0.9-4.9,0.8-6.9-0.8c-2.8-2.3-5.5-4.9-8.2-7.5c-1.8-1.8-3.5-3.6-6.1-4.3c-0.4-0.1-0.7-0.3-1.1-0.6
		c-2.2-1.5-4.5-2.6-7.1-3.2c-1.2-0.3-2.6-0.9-3.5-1.7c-1.5-1.3-2.8-2.9-3.9-4.6c-1.3-2-2.3-4.2-3.5-6.2c-0.6-1-1.5-1.9-2.4-2.7
		c-0.5-0.5-1.1-0.2-1,0.5c0.1,1,0.4,2,0.8,2.9c0.9,1.8,1.9,3.5,2.9,5.2c0.9,1.4,1.8,3,3,4.1c2,2,4.3,3.6,7,4.8c3,1.3,5.9,3,8.7,4.6
		c2,1.2,4.1,2.4,5.9,3.8c2.1,1.6,3.9,3.6,5.9,5.2c1.2,1,0.9,2.9-0.6,3.6c-0.7,0.3-1.4,0.9-2.1,1.3c-0.6,0.4-1.3,1-2,1
		c-2.5,0.2-5.1,0.2-7.6,0.2c-1.5,0-2.7,0.4-3.5,1.6c-0.4,0.5-0.7,1.1-1,1.7c-1.2,2.1-2.3,4.3-3.5,6.3c-0.6,1-1.4,2-2.3,2.5
		c-1.7,0.9-3.5,1.7-5.4,2c-1.9,0.4-3.1,1.1-3.6,3c-0.1,0.2-0.2,0.5-0.3,0.7c-1.5,2.9-4.4,3.4-6.7,2.3c-2.1-1-4.3-2-6.5-2.7
		c-1.1-0.3-1.6-0.2-2.1,0.8c-1,2.2-2,4.4-2.9,6.6c1.8,0.6,3.5,1.1,5.2,1.6c0-0.1,0-0.4,0-0.6c0.1-1,0.3-2,0.5-3
		c0.1-0.2,0.5-0.5,0.7-0.5c0.2,0,0.5,0.3,0.6,0.6c0.1,0.2,0.1,0.6,0,0.8c-0.5,1.9-0.6,3.7,0.2,5.6c0.1,0.2-0.1,0.7-0.4,0.8
		c-0.1,0.1-0.6,0-0.8-0.2c-0.4-0.5-0.8-1-1.2-1.5C93,78,91,78,89.1,77.4c-0.1,0.7-0.1,1.3-0.2,1.8c-0.4,2.5,0.8,4.6,3,5.9
		c1.9,1.1,3.8,1.2,5.9,0.8c1.1-0.2,1.8-1.2,1.6-2.2c-0.2-1-0.6-2.1-0.7-3.1c-0.1-0.6-0.4-1.5,0.6-1.7c1-0.1,0.7,0.9,0.8,1.4
		c0.9,3.6,1.5,7.2,3.4,10.5c2.3,3.9,5.2,7.3,9.1,9.6c3.8,2.3,7.8,4.3,11.9,6.1c2.4,1.1,5,1.8,7.6,2.5c2.1,0.5,4.2,0.8,6.3,1.1
		c3.7,0.5,7.2,0.3,10.3-2c2.9-2.1,4-4.3,3.5-8.1c-0.3,0.1-0.7,0.2-0.9,0.3c-2,0.9-4,1-6,0.3c-1.6-0.6-2.9-1.7-4.8-1.1
		c-0.2,0.1-0.4-0.2-0.6-0.3c0.2-0.2,0.3-0.5,0.6-0.5c0.4-0.1,0.8-0.1,1.3-0.2c2.5-0.7,5.1-1.3,7.6-2.1c1.1-0.4,2.2-1.3,3.3-1.4
		c1.7-0.3,2.6-1.1,3-2.7c0.1-0.3,0.2-0.5,0.3-0.8c-2.2-0.8-4.3-1.2-6.6-0.4c-0.9,0.3-2,0.4-2.9,0.3c-0.6-0.1-1.2-0.6-1.6-1.1
		c-0.7-1.2-0.4-2.7,0.8-3.7c0.2-0.2,0.8-0.3,1-0.1c0.3,0.3,0.1,0.7-0.3,0.9c-0.8,0.5-1.1,1.6-0.6,2.3c0.5,0.8,1.2,0.9,2.1,0.7
		c2.5-0.8,5.1-1.1,7.7-0.2c0.4,0.1,1.1,0,1.5-0.3c2.4-2,3.2-4.3,1.2-7.1c-1.7-2.5-3.5-5.1-5-7.8c-1.2-2.1-1.1-4.5,0.4-6.5
		c0.7-1,1.6-1.9,2.4-2.8c2-2.1,3.4-4.6,4-7.5c0.2-0.9,0.3-1.9,0.1-2.7c-0.3-1.7-0.9-3.4-1.4-5.1c-0.5-1.7-1.1-3.4-1.5-5.2
		C156.9,44.1,156.9,43.1,156.7,42.1z M122.9,107.6c-1.2-0.6-2.3-1.2-3.4-1.7c-3.1-1.5-6.2-3-9-5.1c-3.8-2.8-6.8-6.3-8.9-10.5
		c-0.7-1.4-1.2-2.8-1.8-4.2c-0.5,0.2-1,0.5-1.5,0.7c-2.1,0.5-4.1,0.6-6.1-0.3c-0.8-0.4-1.4-0.2-2,0.4c-0.5,0.5-1.1,0.9-1.7,1.4
		c-0.1,0.1-0.2,0.2-0.3,0.4c-0.5,1.1-0.9,1.2-2.1,1c-0.6-0.1-1.5-0.1-1.9,0.3c-1.9,1.7-3.8,3.5-5.6,5.3c-2.2,2.1-4.6,3.7-7.2,5.3
		c-1.4,0.8-2.8,1.6-4.3,2.4c0.9,0.9,1.7,1.8,2.5,2.7c1.8,1.9,3.6,3.9,5.5,5.7c1.4,1.4,3.2,2.5,4.6,3.9c1.4,1.4,2.4,3.2,3.7,4.6
		c1.8,2,3.8,4,5.6,6c0,0,0.1,0,0.2,0.1c1.8,1.4,3.6,2.8,5.3,4.3c1.7,1.5,3.4,3,5,4.5c2.7,2.5,5.4,5,8,7.6c2.6,2.5,5.1,5.1,7.7,7.6
		c0.6,0.6,1.4,1.1,2.1,1.6c0.3-0.6,0.6-1.1,0.8-1.6c1.1-2.4,2.2-4.8,3.4-7.2c0.3-0.6,0.1-0.9-0.4-1.1c-1.3-0.5-1.8-1.6-2.5-2.6
		c-0.1-0.1,0.1-0.4,0.1-0.5c-0.3-0.7-0.6-1.5-1-2.1c-1.4-2.1-1.4-4.4-1.1-6.8c0.2-1.1,0-2.2,0-3.5c-0.4,0.3-0.6,0.4-0.7,0.5
		c-0.6,1.1-1.4,2.2-1.9,3.4c-0.7,1.6-1.1,3.3-1.7,5c-0.2,0.6-0.5,1.1-1.2,0.8c-0.5-0.2-0.8-0.7-0.5-1.4c0.3-0.8,0.6-1.6,0.8-2.4
		c0.8-3.2,2.2-6,4.2-8.6c0.9-1.1,1.5-2.2,1.9-3.5c0.1-0.5,0.4-1,0.6-1.5c0.9-1.8,1.8-3.6,2.6-5.5
		C121.7,111.2,122.2,109.4,122.9,107.6z M120.2,219.4c0.8-0.7,1.6-1.1,1.9-1.8c0.5-0.9,0.7-2,1.1-2.9c0.7-1.4,1.4-2.8,2.2-4.1
		c0.8-1.1,1.5-2.3,1.6-3.6c0.1-2.3,0.2-4.6,0.2-6.9c0-2.3-0.3-4.5-0.9-6.7c-0.8-2.8-1.1-5.7-2-8.5c-0.7-2.3-0.7-4.7-0.7-7
		c0.1-3,0.3-5.9,0.3-8.9c0.1-1.7-0.1-3.4,0-5.1c0.2-1.9-0.6-3.4-1.5-4.9c-1.7-2.8-4.3-4.6-6.7-6.6c-2.2-1.9-4.4-3.9-6.5-6
		c-2-2-3.9-4.1-6-6.1c-1.5-1.5-3.2-2.9-4.8-4.3c-2.4-2.1-4.8-4.1-7.2-6.1c-2.4-2-4.9-4-7-6.4c-1.4-1.7-2.7-3.5-4.2-5.1
		c-1.4-1.5-2.9-2.9-4.4-4.3c-1.8-1.7-3.6-3.2-5.3-5c-1.4-1.4-2.5-3-3.9-4.3c-0.5-0.5-1.5-1.2-2-1c-1.7,0.5-3.3,1.4-4.8,2.1
		c0.9,1.2,1.6,2.5,2.5,3.5c2.1,2.4,4.3,4.8,6.4,7.2c0.9,1,1.8,1.9,2.7,2.9c1.6,1.8,3,3.7,4.6,5.5c1.3,1.4,2.9,2.6,4.1,4.2
		c3,3.9,6.6,7.1,10.2,10.4c1.8,1.7,4,3,6,4.5c2,1.5,4.2,2.7,6.1,4.4c3.2,2.9,6.9,5.2,9.9,8.4c1.7,1.9,3.5,3.6,4,6.2
		c0.3,1.5,0.8,3,1.2,4.5c0.8,3.3,1.7,6.6,1.5,10c-0.1,1.3,0.1,2.7,0.2,4c0.3,3.2,0.6,6.3,0.9,9.5c0.1,0.9,0.1,1.8,0.2,2.7
		c0.2,2.4,0.5,4.9,0.7,7.3c0.1,1,0.2,2,0.2,2.9c0.1,2.3,0.2,4.7,0.1,7c-0.1,2-0.7,4-1,6C120.3,217.7,120.3,218.4,120.2,219.4z
		 M269.2,171.3c0.3,0.2,0.4,0.2,0.5,0.3c1.9,1,3.9,1.9,5.8,3.1c2,1.3,3.8,2.8,5.6,4.3c0.5,0.4,1,0.9,1.5,1.3
		c2.4,1.8,4.9,3.7,7.3,5.5c0.5,0.4,0.9,0.9,0.4,1.6c-0.6,0.8-1.1,0.3-1.6-0.2c-1.5-1.3-2.9-2.5-4.5-3.7c-1.7-1.3-3.7-2.3-5.1-4
		c-0.3-0.4-0.8-0.5-1-0.7c-1,1.2-1.9,2.3-2.8,3.3c1.6,1.6,3.1,3.3,4.7,5c1.4,1.6,1.7,3.6,2.5,5.5c0.1,0.2-0.2,0.6-0.3,0.9
		c-0.3,0.5-0.7,0.9-0.9,1.4c-0.7,1.6-1.5,3.2-2.2,4.8c-0.7,1.7-1.5,3.5-2.2,5.3c0.1,0,0.2,0.1,0.3,0.1c0.1-0.1,0.3-0.1,0.4-0.2
		c1.5-0.9,2.9-1.9,4.4-2.7c1.3-0.8,2.7-1.4,3.6-2.8c0.2-0.3,0.6-0.6,1-0.8c1.7-0.8,2.8-2.2,4-3.6c0.4-0.5,0.8-1.2,0.9-1.9
		c0-1.7,1-2.9,2.2-4c1.2-1,1.7-2.3,1.3-3.9c-0.3-1.3,0-2.5,0.8-3.5c0.7-0.9,1.7-1.6,1.3-3c-0.1-0.5-0.2-1-0.4-1.4
		c-0.6-2-0.7-3.8,0.9-5.4c0.5-0.4,0.8-1.1,0.3-1.7c-0.9-1-1.7-2-2.7-2.8c-2.1-1.8-4.2-3.5-6.3-5.2c-1.5-1.2-3.1-2.4-4.7-3.5
		c-1.1-0.6-2.3-1-3.5-1.3c-1.8-0.5-3.5-1.1-5.4-1.5c-1.1-0.2-2.2-0.2-3.3-0.2c-1.4,0.1-1.3,1.6-2.1,2.4c0,0,0,0.1,0,0.2
		c0.5,0.2,1,0.4,1.6,0.5c1.2,0.2,2.5,0.1,3.7,0.4c2.1,0.5,4.2,1.3,6.2,2c2.6,0.8,4.8,2.1,6.7,3.9c2.3,2.2,4.5,4.5,6.8,6.7
		c0.5,0.5,0.5,1,0.1,1.5c-0.5,0.5-1,0.3-1.4-0.2c-1-1.1-2-2.2-3.1-3.3c-1.5-1.5-2.9-3.1-4.6-4.3c-1.6-1.2-3.5-2-5.4-2.8
		c-2.9-1.2-5.9-2.3-9.2-2.1c-0.4,0-0.8-0.2-1.1-0.2c-0.5,0-1.3-0.2-1.5,0.1c-0.8,1-1.4,2.1-2.1,3.1c1,0.4,1.9,0.8,2.8,1.1
		c2.2,0.7,4.3,1.3,6.4,2.4c1.8,1,3.9,1.7,5.8,2.5c1.2,0.5,2.5,0.9,3.5,1.7c3.2,2.3,5.7,5.5,8.4,8.4c0.2,0.2,0.1,1-0.1,1.1
		c-0.3,0.2-0.9,0.2-1.2,0.1c-0.4-0.1-0.6-0.6-0.9-0.9c-2-2.1-3.9-4.3-6-6.2c-0.9-0.9-2.1-1.4-3.3-2c-2.4-1.1-4.9-2.1-7.3-3.2
		c-0.9-0.4-1.7-0.8-2.8-1.3C271.6,169.4,270.5,170.4,269.2,171.3z M159.3,149.8c0.7-0.7,1.2-1.3,1.9-1.9c1.3-1.1,2.6-2.2,4.5-2.1
		c0.8,0.1,1.7-0.2,2.6-0.2c2.9,0,5.8-0.1,8.7,0c1.4,0.1,2.7,0.6,3.4,2c0.2,0.4,0.7,0.7,1.1,0.8c1.1,0.2,2.3,0.3,3.7,0.4
		c-0.1-0.6-0.2-1.1-0.4-1.4c-0.4-0.9-1-1.7-1.5-2.5c-0.7-1.1-1.3-2.2-2-3.3c-1.7-2.5-3.7-4.9-5.2-7.5c-2.4-4.1-4.5-8.5-6.8-12.6
		c-0.8-1.5-1.9-2.9-3-4.2c-1.8-2.1-4.4-3-6.7-4.2c-0.9-0.5-1.8-0.8-2.6-0.2c0,0.7,0.2,1.4,0,2c-0.5,1.5-0.1,2.9,0,4.4
		c0,0.5,0.2,1,0.5,1.5c1,1.6,2,3.2,2.9,4.9c1.2,2.1,2.3,4.2,2.1,6.8c-0.2,2.3-0.5,4.5-1.6,6.5C158.9,142.5,157.8,145.9,159.3,149.8z
		 M223.5,202.4c0.9-0.9,2-1.8,2.9-2.8c1.9-2.1,3.7-4.3,5.6-6.4c1.1-1.3,2.3-2.7,3.4-4c1.1-1.2,2.3-2.4,3.5-3.6
		c0.8-0.8,1.8-1.6,2.1-2.8c0.1-0.2,0.3-0.3,0.4-0.5c0.2-0.3,0.5-0.6,0.5-0.9c0-2.1,0-4.2,0-6.2c0-1.3,0-2.5,0-3.8
		c-5.6,5-11.5,8.2-19.1,4.2c-0.2,0.7-0.5,1.3-0.6,2.1c-0.1,0.8,0,1.6-0.2,2.4c-0.5,2-1,3.9-1,5.9c0.1,2.7-0.5,5.2-1.2,7.8
		c-0.2,0.6-0.5,1.5-0.2,1.9C220.9,198,221.4,200.6,223.5,202.4z M79.9,280.3c0,0.1,0,0.1,0.1,0.2c0.3,0,0.5,0.1,0.8,0.1
		c3.3,0.2,6.4-0.4,9.6-0.8c1.7-0.2,3.4-0.4,5.1-0.7c5.6-1,10.7-3.4,15.5-6.5c1.5-1,2.8-2.1,4.1-3.3c0.6-0.5,1.2-0.9,1.6-1.5
		c1.9-2.7,3.2-5.5,2.9-9c-0.2-1.8,0-3.7,0-5.7c-0.3,0.2-0.4,0.2-0.5,0.3c-1.8,1.5-3.5,3.1-5.4,4.6c-1.7,1.4-3.4,2.9-5.2,4.1
		c-4.2,2.9-8.6,5.6-12.8,8.4c-2,1.3-4.2,2.5-6,4.1c-1.8,1.5-3.8,2.6-5.9,3.7C82.4,279,81.2,279.7,79.9,280.3z M204.9,138.7
		c0.1,0,0.1,0.1,0.2,0.1c0.8-0.6,1.6-1.4,2.5-1.8c2.3-1.2,4.7-2.3,7-3.4c1.3-0.6,2.4-1.4,4-1.3c1.6,0.1,2.4,0.8,2.4,2.5
		c0,0.5,0,1.1,0,1.6c3.8-3.7,7.8-7,11.1-11.2c-0.5,0-0.8,0-1,0c-2.3,0.1-4.7,0.2-7,0.4c-1.8,0.2-3.5,0.4-5.3,0.8
		c-2.5,0.6-4.2,2.3-5.8,4.1c-0.8,0.9-1.6,2-2.7,2.4c-2.5,0.9-3.8,2.8-5,4.9C205.2,138.2,205.1,138.5,204.9,138.7z M240.7,86.4
		c0.2-1.8-0.2-3.3-1.3-4.5c-0.4-0.4-0.8-0.6-1.3-0.2c-0.5,0.3-0.6,0.8-0.4,1.4c0.4,1.3,0.9,2.7,0.9,4.1c0.2,3.4,0.3,6.8,0.4,10.3
		c0,0.3,0,0.6,0,0.8c0.1,2.4,0.2,4.8,0.1,7.2c-0.1,3.3-0.5,6.5-0.7,9.8c-0.1,2.1-0.1,4.1-0.2,6.2c0,0.7-0.1,1.4,0,2
		c0.1,0.4,0.6,1,0.7,0.9c0.5-0.1,1.2-0.5,1.3-0.8c0.3-1.9,0.5-3.8,0.6-5.8c0.2-3.5,0.3-7,0.4-10.6c0.1-4,0-8.1,0-12.1
		c0-0.2,0-0.5,0-0.7C241.1,91.6,240.9,88.9,240.7,86.4z M225,170.8c-0.5,0.8-1,1.6-1.4,2.4c-0.1,0.3-0.1,0.8,0.1,0.9
		c2.1,1.5,4.6,2,7.1,1.7c4.5-0.6,7.8-3.5,11-6.5c0,0,0-0.1,0-0.2c0-0.7,0-1.5,0-2.2c-1.2,0.7-2.2,1.5-3.3,2.1
		c-2.1,1.1-3.8,0.7-5.2-0.9c-0.6-0.7-1.2-1.4-1.7-1.8c-1.9,1.2-3.6,2.3-5.6,3.6c1.9,0.7,3.5,1.5,5.2,1.8c1.2,0.2,2.6-0.1,3.9-0.1
		c0.5,0,1.2-0.3,1.3,0.4c0.1,0.6-0.4,0.9-0.9,1c-2,0.3-4,0.5-5.9-0.1C228.2,172.2,226.6,171.5,225,170.8z M243.6,151.6
		c-0.1-0.1-0.1-0.2-0.2-0.3c-0.2,0.3-0.4,0.7-0.7,1c-0.4,0.4-0.7,0.9-1.1,1.2c-1.9,1.2-3.3,2.8-4.5,4.6c-1.5,2.3-2.9,4.6-4.4,7.1
		c0.9,0.8,1.7,1.8,2.8,2.6c0.3,0.3,1.1,0.3,1.5,0.2c1.7-0.4,3.1-1.5,4.3-2.8c0.4-0.4,0.4-0.8,0.4-1.3c-0.1-2.1-0.4-4.3,0-6.4
		C241.9,155.5,242.9,153.6,243.6,151.6z M123.5,143.8c-0.5,0.9-0.9,1.8-1.3,2.7c-0.9,1.9-1.9,3.7-2.8,5.6c-0.1,0.3-0.1,0.8,0.1,1
		c1.7,1.8,3.4,3.6,5.1,5.4C127.3,153.3,127.1,147,123.5,143.8z M289.1,160.1c0.3-1.3,0.5-2.5,0.8-3.7c0,0,0-0.1,0-0.1
		c-0.1-1.5-0.5-2.9-0.9-4.3c-0.3-1.1-1-1.8-2-1.6c-0.7,0.1-1.4,0.4-2,0.9c-1.4,1.1-1.5,2.9-1.6,4.5c0,0.2,0.2,0.6,0.5,0.7
		C285.6,157.7,287.3,158.9,289.1,160.1z M143.2,98.8c2.4,1.5,4.8,2.2,7.6,0.9c2.1-0.9,3.1-2.2,3.3-4.7c-1,0.3-1.9,0.5-2.7,0.8
		c-1.5,0.6-3,1.4-4.6,1.9C145.6,98.2,144.4,98.5,143.2,98.8z M156.5,78c0.1,0,0.2,0,0.3,0c0.1-1.1,0.3-2.2,0.3-3.2c0-2,0-4,0-6
		c0-0.8,0.2-1.6,0.4-2.6c-1,1.2-1.9,2.2-2.8,3.2c-0.2,0.3-0.5,0.7-0.6,1C153.2,73.5,155.1,75.7,156.5,78z M174.6,170.2
		c0.4-0.1,0.7-0.3,1.1-0.4c1.1-0.6,2.2-1.3,3.2-1.9c1.7-1,3.5-2.1,5.6-2.2c0.3,0,0.6-0.3,0.8-0.5c0.3-0.7,0.5-1.4,0.7-2
		C180.9,163.4,177.7,166.6,174.6,170.2z M243.4,126.8c-0.1-2.1-1.6-2.2-3.2-1.7c-0.8,0.2-1.6,0.7-1.6,1.8c0,1.6,1.8,3.2,3.4,2.9
		c0.1,0,0.3-0.1,0.4-0.2C242.7,128.6,243,127.7,243.4,126.8z M270,167.1c-0.8-0.3-1.5-0.5-2.3-0.8c-1.6-0.7-2-0.6-2.6,1
		c-0.7,2-0.3,1.8,1.2,2.6c0.5,0.3,1.3,0.2,1.8-0.1C269.2,169.3,270,168.5,270,167.1z M245.1,135.7c0.9,0.1,1.6-0.3,1.7-1.3
		c0.1-0.9,0-1.8-0.1-2.6c-0.1-0.7-1.2-1.4-1.8-1.3c-0.8,0.1-1.3,0.8-1.2,1.8c0,0.4-0.1,0.8-0.2,1.3
		C243.2,134.6,244,135.7,245.1,135.7z M274.5,180.4c0.4-0.4,0.8-0.8,1.1-1.2c0.9-1.1,0.9-1.9-0.3-2.6c-1-0.6-2-1.1-3-1.6
		C271.1,176.8,272.1,179.4,274.5,180.4z M236.7,126.1c-1-0.7-3.1-0.7-3.8-0.1c-0.4,0.4-0.7,2.2-0.3,2.7c0.4,0.4,1,0.6,1.5,0.8
		c0.5,0.1,1,0,1.2-0.6C235.8,127.9,236.3,127.1,236.7,126.1z M254.7,122.2c-1.1-0.3-1.6,0.5-2.2,1.2c-0.3,0.3,0,2.2,0.4,2.4
		c0.7,0.4,2.6-0.1,3-0.8c0.2-0.3,0.3-0.6,0.5-0.9c0.5-0.8,0.4-1.3-0.4-1.7C255.5,122.2,255.1,122.2,254.7,122.2z M252.1,128.6
		c-0.3-0.6-0.5-1-0.7-1.3c-0.1-0.3-0.3-0.6-0.5-0.7c-1.3-0.6-2.8,0.4-2.8,1.9c0,0.7,1.1,1.6,1.8,1.4
		C250.6,129.5,251.3,129,252.1,128.6z M219.5,134.2c-0.9-1-3.5-0.3-5,1.2C215.7,136.7,217.6,136.3,219.5,134.2z M244.5,126.8
		c-0.4,1.1-0.7,2.1-1.2,3.3c1.2-1,2.1-0.9,3.2-0.2C246.7,127.4,246.5,127.2,244.5,126.8z M251.7,142c-0.2-0.5-0.4-1-0.7-1.4
		c-0.8-1.1-1.1-1.1-1.9,0c-0.5,0.7,0.3,1.1,0.1,1.7c0.5,0.1,0.9,0.2,1.4,0.2C250.9,142.4,251.2,142.2,251.7,142z M261.5,125
		c-0.9-1.9-1.3-2-2.9-0.7c0.3,0.7,0.6,1.4,1,2.3C260.4,125.9,260.9,125.5,261.5,125z"/>
	<path class="st0" d="M141.2,74.9c-1.1,0.2-2.2,0.4-3.2,0.5c-2.8,0.3-5.6,0.7-8.3,1c-0.3,0-0.7,0-0.9-0.2c-0.3-0.1-0.4-0.5-0.6-0.7
		c0.2-0.1,0.5-0.3,0.7-0.4c2.4-0.3,4.9-0.5,7.3-0.9c3.4-0.5,6.7-1.1,10.1-1.7c0.3-0.1,0.9,0.2,1,0.4c0.2,0.6-0.3,0.8-0.8,0.9
		c-1.3,0.3-2.6,0.6-3.9,0.8c-0.7,4-3.2,6.3-6.9,7.4c-0.9,0.3-1.8,0.6-2.8,0.9c-0.1-0.1-0.3-0.4-0.5-0.7c-0.2-0.2-0.4-0.3-0.6-0.4
		c-1.4-0.4-2.8-0.8-4.1-1.2c-0.3-0.1-0.7-0.6-0.6-0.8c0.2-0.5,0.7-0.5,1.1-0.2c2.2,1.1,4.6,1.3,7,1.1
		C137.9,80.5,140.2,78.2,141.2,74.9z"/>
</g>
</svg>
