<?xml version="1.0" encoding="utf-8"?>
<!-- Generator: Adobe Illustrator 19.2.1, SVG Export Plug-In . SVG Version: 6.00 Build 0)  -->
<svg version="1.1" id="Layer_1" xmlns="http://www.w3.org/2000/svg" xmlns:xlink="http://www.w3.org/1999/xlink" x="0px" y="0px"
	 viewBox="0 0 232.7 300" style="enable-background:new 0 0 232.7 300;" xml:space="preserve">
<style type="text/css">
	.st0{fill:#E91E63;}
</style>
<g id="shortness-of-breath-girl">
	<path class="st0" d="M0,217.2c1.4-1.5,3-2.8,4.2-4.4c2.4-3.3,5.5-6,8.8-8.4c3-2.2,5.3-4.6,6-8.4c0.5-2.9,2-5.5,2.8-8.4
		c1.2-4.6,2.4-9.2,3.3-13.8c1.2-6.4,2.1-12.8,3.2-19.3c0.9-5.4,1.9-10.8,3.3-16.1c1.6-5.7,2.6-11.5,4-17.2c0.9-3.9,2.1-7.8,2.9-11.8
		c0.8-3.9,1.3-7.9,1.9-11.9c0.7-4.9,1.4-9.9,1.9-14.8c0.3-3,0.3-6.1,0.3-9.1c0-4.3,0.9-8.5,2.1-12.5c1.3-4.5,3.1-8.9,4.4-13.4
		c2.2-8.2,6.3-15.4,10.7-22.6c3.8-6.1,9.1-10.5,14.2-15.3C75,8.7,76.5,8,77.9,7.3c3.2-1.7,6.4-3.4,9.7-5.1c0.5-0.3,1.1-0.5,1.7-0.6
		c6.6-0.8,13.1-2.1,19.7-1.4c3.6,0.4,7.1,1.2,10.7,2.2c4.4,1.4,8.7,2.9,12.8,5.1c0.3,0.2,0.6,0.3,0.9,0.5c3.3,3.3,7.5,5.2,11.1,8
		c3.7,2.8,6.6,6.3,9,10.1c2,3.3,4,6.6,5.3,10.3c1.2,3.6,3.2,6.9,4.3,10.5c1.8,5.7,3.9,11.3,3.5,17.4c-0.3,4,0.5,7.9,1.5,11.8
		c0.6,2.3,0.3,4.7,0.5,7.1c0,0.6,0.3,1.2,0.7,1.7c1.1,1.5,1.6,3.2,1.6,4.9c0,6.1-0.3,12.3-0.2,18.4c0.1,3.9,0.8,7.7,1.3,11.6
		c0.1,0.8,0.2,1.7,0.1,2.5c-0.7,5.7-0.5,11.4-0.1,17c0.4,6.6,0.4,13.1,0.4,19.6c0,2.4-0.7,4.7-1.1,7.1c-0.1,0.7,0,1.4,0,2.1
		c3.9,1.3,7.7,2.6,11.5,3.9c1.5,0.5,2.9,1.2,4.3,1.7c0.5,0.2,1.1,0.1,1.6,0.2c0.3,0.1,0.6,0.2,0.9,0.4c3.7,2.8,7.7,5.3,11.1,8.5
		c4,3.6,8,7.3,10.5,12.3c1.9,3.7,4.1,7.2,6.3,10.7c1.3,1.9,2.8,3.8,4.4,5.4c3,2.9,5.2,6.4,7.6,9.7c1.1,1.6,2.3,3.2,3.4,4.8
		c0,1.5,0,3,0,4.5c-1-1.4-2.1-2.9-3.1-4.3c-2.8-3.8-5.2-7.9-8.4-11.4c-4.4-4.8-8-10-11.1-15.7c-2-3.7-4-7.4-7.3-10.3
		c-1.1-1-2.1-2.1-3.2-3.1c-0.9-0.8-1.9-1.6-2.8-2.3c-2.3,3.1-4.5,6.1-6.6,9.1c-1.8,2.5-3.7,5.1-5.5,7.7c-1.3,1.9-2.5,4-3.7,5.9
		c-2.3,3.4-4.3,7.1-6.9,10.2c-3.1,3.7-6.8,7-10.3,10.4c-1.9,1.8-3.8,3.6-5.8,5.3c-1.8,1.5-3.7,2.8-5.7,4.4c1.4,3.4,2.9,6.9,4.3,10.5
		c1.8,4.8,4.1,9.3,7,13.5c3.2,4.7,6.3,9.4,9.5,14.1c1.2,1.8,2.6,3.6,3.8,5.4c0.2,0,0.4,0,0.5,0c0.6-2.6,1.1-5.3,1.7-7.9
		c0.7-2.9,1.6-5.7,2.2-8.5c1.3-6.2,4.1-11.8,7.7-17c0.3-0.5,1.1-0.8,1.7-0.9c0.4-0.1,1,0.3,1.2,0.7c0.1,0.2-0.3,0.8-0.5,1.1
		c-0.3,0.3-0.8,0.4-1,0.8c-1.4,2.2-3.1,4.4-4,6.8c-1.8,4.5-3.2,9.2-4.5,13.9c-0.7,2.4-0.9,5-1.5,7.5c-0.4,1.9-1.1,3.8-1.6,5.7
		c-0.1,0.3,0.1,0.6,0.2,0.9c1.4,1.9,2.9,3.8,4.3,5.8c1.4,1.9,2.9,3.8,4.1,5.9c1,1.7,1.6,3.7,2.3,5.5c0,0,0,0.1,0,0.1
		c-0.8,0-1.5,0-2.3,0c0-0.2,0-0.4-0.1-0.5c-1.3-2.5-2.7-5-4-7.5c-0.1-0.1-0.1-0.3-0.2-0.4c-2.4-3.2-4.9-6.3-7.2-9.5
		c-4.2-5.9-8.3-11.9-12.4-17.9c-3.6-5.2-6.7-10.7-9-16.6c-2.2-5.6-4.6-11-5.8-16.9c-0.4-1.8-0.6-3.7-0.6-5.5c0-1.8,0.5-3.6,0.5-5.4
		c0-3-0.4-5.9-0.5-8.9c-0.2-6.2,0-12.5,1.5-18.6c0.1-0.5,0-1.1-0.3-1.5c-1.2-1.8-2.1-3.7-1.8-6c0.1-1.2,0-2.4,0-3.9
		c-1.3,1.8-2.7,3.3-3.7,5c-2,3.3-4.3,6.4-5.4,10.1c-0.5,1.9-1.7,3.5-2.6,5.5c0.7,1,1.5,2.2,2.4,3.6c-0.6,0.4-1.1,0.8-1.7,1.2
		c-1.1-1.5-2.1-3-3.2-4.4c-1.6-2.2-2.8-4.8-5.2-6.3c-5.3-3.3-10.5-6.4-15.8-9.7c-1.8-1.1-3.7-2.3-5.4-3.6c-3-2.3-5.9-4.9-9.5-6.5
		c-3.3-1.5-6.2-3.7-8.9-6.2c-1.5-1.3-3.1-2.6-4.5-3.7c-1.6,2.1-3,4-4.5,6.1c0.1,0.1,0.5,0.3,0.8,0.7c3.3,3.6,6.5,7.2,9.7,10.8
		c2.3,2.6,4.5,5.2,7.6,7c2.5,1.5,5,2.9,7.4,4.4c2.4,1.5,4.7,3.2,6.9,4.9c0.3,0.2,0.4,0.8,0.5,1.3c-0.6,0.2-1.1,0.5-1.7,0.5
		c-0.2,0-0.5-0.3-0.8-0.5c-4-2.6-7.8-5.5-11.9-7.8c-3.5-2-6.6-4.4-8.9-7.5c-3.9-5.3-8.7-9.6-13.2-14.2c-1.2,0.9-2.3,1.8-3.7,3
		c2.1,3.7,4.1,7.7,6.4,11.3c1.5,2.3,3.4,4.2,5.3,6.1c2.3,2.3,4.5,4.8,7.1,6.7c3.5,2.6,6.5,5.6,9.5,8.7c0.1,0.1,0.2,0.2,0.3,0.3
		c0,0.4,0.2,0.9,0,1.1c-0.3,0.3-0.8,0.5-1.1,0.4c-0.4-0.1-0.8-0.5-1.1-0.8c-2.5-2.3-5-4.7-7.6-7c-1.3-1.2-2.9-2.2-4.2-3.4
		c-5-4.9-9.9-10-13.4-16.2c-1.9,1.3-2.7,2.8-2,4.6c1.9,5.4,4.2,10.5,8.3,14.7c3.2,3.3,6,7.1,8.9,10.7c1.5,1.9,2.8,3.9,4.8,5.3
		c0.7,0.5,1.5,1,2.1,1.6c0.2,0.3,0.2,1.1-0.1,1.4c-0.2,0.2-0.9,0.2-1.3,0.1c-0.3-0.1-0.6-0.4-0.9-0.6c-1.8-1.3-3.6-2.6-5.5-3.8
		c-1-0.6-2.1-1-3.2-1.3c-4.3-1.1-6.8-4.3-9.3-7.6c-1.6-2.1-3.4-4.1-5-6.2c0,2.9-2.1,4.1-3.8,5.6c0.4,0.7,0.8,1.3,1,2
		c1.8,5.3,5.5,9.1,10.1,11.8c4.9,2.9,8.7,6.8,12.5,10.9c3.3,3.6,6.4,7.3,9.9,10.6c2.7,2.6,5.8,4.8,8.7,7.2c0.6,0.5,1.3,1.1,2,1.5
		c0.8,0.5,1.7,0.7,2.4,1.2c1.1,0.9,2.1,1.9,3.1,2.9c0.3,0.3,0.7,0.6,1,1c1.1,1.7,2.1,3.4,3.1,5c4.6,7.5,7.9,15.5,11,23.7
		c1.9,5.2,3.3,10.6,6.2,15.3c-0.8,0-1.7,0-2.5,0c-0.2-0.5-0.4-0.9-0.6-1.4c-1.4-3.3-3-6.6-4.1-10c-2.9-8.4-6.3-16.6-10.7-24.4
		c-1-1.7-1.8-3.6-3-5.1c-1.5-2.1-3.2-3.7-6.3-3.7c-3.7-0.1-7.4-1.4-11.1-2.3c-6-1.5-11-4.9-15.6-8.7c-2.8-2.4-5.1-5.5-7.7-8.1
		c-3.6-3.6-6.8-7.6-9.6-11.9c-4.1-6.1-8.1-12.2-12.1-18.3c-3.3-5-6.4-10.1-8.7-15.6c-0.5-1.1-1.3-2.1-2.3-3.5
		c-2.7,2-5.2,3.9-7.7,5.7c-3.1,2.2-6,4.6-9.7,5.9c-2.2,0.8-4.2,2.1-5.7,4.1c-0.7,1-1.7,1.8-2.6,2.5c-2.4,1.9-5.1,3.4-7.2,5.5
		c-3.4,3.5-6.5,7.4-9.7,11.1C0,220.2,0,218.7,0,217.2z M106.4,23.1c0,0-0.2,0.3-0.5,0.5c-2.1,2.2-3.9,4.7-6.3,6.6
		C95,33.8,90,37,85.3,40.6c-4.9,3.6-9.9,7.2-14.5,11.2c-3.6,3.1-5.8,7.3-8.2,11.3c-3.1,5.3-3.5,11.2-3.8,17c-0.2,3.5,1.2,7,1.7,10.5
		c0.3,2.4,0.2,4.9,0.2,7.4c0,1.2-0.2,2.4,0,3.5c1.1,4.7,2.4,9.4,3.7,14.1c0.8,3.2,1.5,6.4,2.6,9.4c1.6,4.5,3.7,8.9,5.3,13.4
		c1.4,3.8,2,7.8,4.4,11.2c3.9,5.5,7.5,11.1,13,15.2c4.1,3,8.4,5.5,13.2,7.4c3.6,1.4,7.1,2.8,10.6,4.5c3.4,1.6,6.9,2.3,10.6,2.5
		c3.4,0.2,6.7,0,9.9-1.3c1.3-0.5,2.7-0.7,3.9-1.4c3.2-1.7,5.5-4.5,7.9-7.2c0.9-1.1,1.7-2.3,2.7-3.2c2.9-2.6,5.2-5.6,7-9
		c1.9-3.7,3.6-7.5,5.1-11.3c1.1-3.1,1.8-6.3,2.5-9.6c0.5-2.4,0.7-5,0.9-7.4c0.2-1.9,0.5-3.9,0.5-5.8c0-2-0.2-3.9-0.2-5.9
		c0-5.4,0-10.8,0-16.2c0-0.4,0-0.8,0-1.3c-0.1-2.1-0.3-4.3-0.1-6.4c0.5-4.3,0-8.5-1.3-12.6c-1.2-3.6-2.5-7.1-3.9-10.6
		c-1.3-3.2-2.5-6.5-4.3-9.4c-3-5-6.3-9.9-9.6-14.8c-2.7-4-6-7.5-10.1-10.1c-2.9-1.8-6-3.5-9-5.1c-3.9-2-7.9-3.9-12-5.6
		C111.4,24.1,109,23.7,106.4,23.1z M150.4,222.5c2.1-1.7,3.9-3.3,5.8-4.8c3.9-3,7.4-6.5,10.4-10.3c2.2-2.8,4.1-5.8,6.2-8.6
		c1.5-1.9,3.3-3.6,4.6-5.6c1.8-2.6,3.1-5.4,4.8-8.1c1.6-2.6,3.4-5.2,5.2-8c-4.1-1.2-8-2.6-12-3.5c-4.3-0.9-8.7-1.4-13.1-2.1
		c-2.2-0.3-4.3-0.8-6.2-2.1c-1.3-0.8-2.8-1.4-4.2-2.1c-1-0.5-1.7-0.1-2.4,0.7c-1.8,2.1-3.8,4-5.5,6.2c-3.8,4.7-9.3,6.1-14.7,7.1
		c-4.7,0.8-9.5,0.1-14-1.4c-2.1-0.7-4.1-2-6.2-2.8c-4-1.7-8.1-3.2-12-5c-1.9-0.8-3.6-2-5.4-2.9c1.5,1.4,3.2,2.5,5,3.6
		c3.1,2,6.3,3.9,9.4,6c1.9,1.3,3.6,3,5.6,4.2c3.2,2,6.6,3.8,9.8,5.8c3.9,2.4,8.1,4.4,11,8.1c0.5,0.7,1,1.4,1.7,2.2
		c0.4-0.9,0.8-1.5,1.1-2.2c0.8-1.8,1.3-3.7,2.3-5.3c2.2-3.6,4.4-7.2,6.9-10.6c1.4-1.9,3.1-3.6,5.8-3.5c1.9,0.1,3.7,0.5,4.8,2.2
		c1.1,1.8,1.5,3.5,0.2,5.4c-3.4,4.9-4.8,10.5-4.9,16.3c-0.1,5.5,0.3,11.1,0.5,16.6C150.7,219.4,150.5,220.8,150.4,222.5z
		 M86.2,213.1c-0.3-0.5-0.5-1-0.9-1.5c-3.1-3.6-6.2-7.1-9.2-10.7c-0.8-0.9-1.7-1.8-2.2-2.9c-2.1-4.1-4.3-8.2-5.4-12.8
		c-0.6-2.6-1.6-5.2-2.5-8.1c-4.6,1.6-9.3,3.2-14,4.9c3.1,5.3,6.6,9.8,10.6,13.9c0.2,0.2,0.8,0.3,1.1,0.3c2-0.2,4-0.3,5.6,1.3
		c1.3,1.3,2.6,2.7,3.8,4.1c1.3,1.5,2.6,3.1,3.8,4.8C79.3,209.7,81.9,212.5,86.2,213.1z M58.2,110.9c-1.1-1.4-2.2-2.8-3.2-4.2
		c-1.3-1.8-2.5-3.7-4.4-5c-0.9-0.6-2.1-0.4-2.1,0.6c-0.1,2.7-0.6,5.6,0,8.2c1.1,4.9,2.6,9.7,4.3,14.5c1.6,4.8,4.1,9.1,8.4,12.1
		c2.8,2,5.9,2.4,9.5,1.4c-1.3-2.8-2.5-5.5-3.6-8.2c-0.8-1.9-0.8-1.9-2.8-1.5c-0.2,0-0.5,0-0.7,0c-3.4,0.3-5.5-1.8-7-4.4
		C53.8,119.5,55.8,115.2,58.2,110.9z M167.7,87.3c-0.2,0-0.3,0-0.5-0.1c-0.5,0.5-1.4,1-1.5,1.6c-0.3,1.8-0.3,3.7-0.3,5.6
		c0,3.6,0.2,7.2,0.2,10.8c0,3.3-0.2,6.5-0.2,9.8c0,3,0.2,6.1,0.3,9.1c0,0.1,0.2,0.2,0.4,0.6c0.6-0.9,1.6-1.7,1.7-2.5
		c0.4-2.6,0.5-5.2,0.5-7.9c0-1.3-0.4-2.6-0.4-3.9c0-6.6,0.2-13.2,0.2-19.8C168.2,89.5,167.8,88.4,167.7,87.3z M56.9,118.6
		c0.1,3.1,0.9,5.1,2.4,6.6c1.1,1.2,2.5,2.1,4.3,1.8c0.9-0.2,1.7-1.3,1.5-2.1c-0.8-2.9-1.6-5.8-2.2-8.8c-0.3-1.6-1.7-2.3-2.6-3.3
		c-0.1-0.1-1.1,0.1-1.2,0.4C58.1,115.2,57.4,117.3,56.9,118.6z M48.5,99.2c1.3,0.6,2.6,0.9,3.6,1.5c2.1,1.3,3.1,3.5,4.5,5.4
		c1.3,1.8,3,3.4,4.4,5c0.1-0.1,0.3-0.2,0.4-0.3c-0.7-2.4-1.6-4.8-2-7.3c-0.5-3.2-2.7-4.9-5.1-6.4C51.7,95.4,48.8,96.6,48.5,99.2z
		 M77.4,170.1c2.1-1.7,3.6-3.2,3.9-5.6c0-0.3-0.1-0.6-0.2-0.8c-1.6-1.5-4.7-0.8-5.4,1.3c-0.1,0.2-0.1,0.5-0.1,0.7
		C76.1,167.1,76.7,168.4,77.4,170.1z M150.7,188.7c0.2-0.5,0.4-1,0.6-1.4c0.6-1.1,1-2.4,1.9-3.4c1-1.2,0.6-2.2,0-3.3
		c-0.5-0.8-2.1-1.2-2.4-0.7C149.3,182.1,148.4,186.4,150.7,188.7z M63.1,201.1c0.6,1.2,1,2.2,1.6,3.1c0.1,0.1,0.7,0.1,0.9,0
		c1.1-0.6,2.4-3.6,2.2-4.8c0-0.2-0.3-0.5-0.5-0.6c-0.8-0.2-1.9-0.7-2.4-0.4C64.1,199,63.7,200.2,63.1,201.1z M73.4,165.8
		c-2.7,0.9-3.3,3.7-1.9,6.3c0.9-0.9,2.1-1.6,2.3-2.6C74.1,168.5,73.6,167.1,73.4,165.8z M72,179.4c-0.3-0.6-0.6-1.4-1-2.1
		c-0.2-0.4-0.7-0.7-1.1-1c-0.3,0.5-0.9,1-0.9,1.5c0.1,1.2,0.5,2.5,0.8,3.9C70.7,180.9,71.3,180.2,72,179.4z M78.3,156.2
		c0.7,3.7,1,4,5,5.9C81.6,160.2,80.1,158.3,78.3,156.2z"/>
	<path class="st0" d="M42.5,300c0.4-3.2,0.7-6.5,1.1-9.7c0.3-2.1,0.8-4.2,1.2-6.3c1.3-6.9,1.7-13.9,0.2-20.8
		c-0.9-4.3-1.7-8.6-2.8-12.8c-0.7-2.9-1.9-5.7-2.8-8.5c-0.1-0.3-0.3-0.7-0.2-1c0.1-0.5,0.5-0.9,0.7-1.4c0.4,0.3,1.1,0.5,1.2,0.9
		c1.1,2.9,2.3,5.7,3.1,8.7c1.4,5.7,2.7,11.4,3.7,17.2c0.8,4.7,0.6,9.5-0.2,14.2c0,0.3,0,0.6,0,1.3c1.1-1.3,1.9-2.4,2.8-3.4
		c4.6-5.3,7.8-11.4,10.6-17.7c0.1-0.1,0.1-0.3,0.2-0.4c0.4-0.8,0.9-1.5,1.8-1c0.9,0.5,0.9,1.4,0.4,2.2c-2.2,4-4.2,8-6.6,11.9
		c-2.1,3.3-4.8,6.3-6.9,9.6c-1.3,2.1-2.1,4.5-3.2,6.7c-1.6,3.3-1,6.9-1.7,10.3C44.2,300,43.4,300,42.5,300z"/>
	<path class="st0" d="M125.2,159.2c-4.6,0.6-7.9-2-11-4.7c-2.2-1.9-4.3-4.2-6.2-6.5c-1-1.2-1.6-2.8-2.1-4.3
		c-0.2-0.6-0.2-1.5,0.1-2.1c0.7-1.4,1.4-2.8,2.5-3.8c2.8-2.9,5.7-6,8.9-8.5c2.7-2.1,6.1-3.1,9.7-2.4c0.5,0.1,1-0.1,1.5-0.2
		c1.8-0.3,3.5-0.6,5.3-0.9c2.7-0.4,4.3,1.4,6.1,2.9c3.5,3.1,4.8,7.2,4.5,11.6c-0.2,2.1-1.2,4.2-1.9,6.2c-1.1,3-2.4,5.8-4.5,8.2
		c-2.2,2.5-5.1,3.4-8.2,4C128.3,159.1,126.8,159.1,125.2,159.2z M107.5,144c1.1,3,2.8,5.1,4.8,6.9c1.6,1.4,3.2,2.8,4.9,4.1
		c2.1,1.5,4.3,2.9,7.1,2.7c2.2-0.2,4.5-0.2,6.6-0.6c2.9-0.5,5.6-1.8,7.1-4.4c1.5-2.7,2.6-5.6,3.8-8.4c0.6-1.4,1.2-3,1.3-4.5
		c0-1.7-0.6-3.3-0.9-5c-0.6-3.4-3.2-5.2-5.7-7c-0.3-0.3-0.9-0.5-1.3-0.5c-1.5,0.1-3,0.2-4.6,0.4c-1.2,0.2-2.5,0.8-3.6,0.6
		c-3.3-0.5-6.4,0.3-8.8,2.3c-2.8,2.2-5.2,4.9-7.7,7.4c-0.7,0.7-1.2,1.7-1.6,2.3c2.7-1.5,5.6-3.5,8.7-4.8c2.9-1.3,6-2.1,9.1-2.7
		c2.3-0.5,4.8-0.6,7.2-0.5c3.5,0.2,5.8,2.6,7.7,5.3c0.5,0.7,0.9,1.8,0.6,2.5c-0.9,1.9-2.1,3.8-3.2,5.6c-1.3,2.1-2.7,3.8-5.5,4
		c-1.3,0.1-2.6,0.5-4,0.6c-2.8,0.1-5.7,0.6-8.4,0.1C116.1,149.4,111.6,147.5,107.5,144z M109.4,143.5c0.4,0.5,0.6,0.7,0.7,0.8
		c3.1,1.5,5.9,3.6,9.4,4.1c1.9,0.3,3.9,0.7,5.9,0.8c1.7,0.1,3.4-0.2,5.1-0.5c1.9-0.3,4-0.1,5.2-2.2c0.3-0.5,0.8-0.8,1.2-1.1
		c1.8-1.2,3-2.8,3.1-5.4c-3.9,0.5-7.7,1-11.4,1.6c-3.9,0.6-7.7,1.7-11.7,1.6C114.5,143,112.1,143.3,109.4,143.5z M110.2,141.6
		c9.8,0.6,19.4-2.4,29.3-3.2c0-0.1,0-0.3-0.1-0.4c-1.3-2-3-3.2-5.4-3.6c-2.1-0.4-4.1-0.9-6.2-0.3c-3.1,0.9-6.2,1.7-9.2,2.7
		C115.3,137.6,112.8,139.9,110.2,141.6z"/>
	<path class="st0" d="M95.3,96.5c-2.6-0.2-5.7-0.5-8.7-0.7c-1.4-0.1-2.9-0.1-4.2,0.7c-0.4,0.3-1.2,0-1.8-0.1
		c0.3-0.5,0.4-1.2,0.9-1.5c3.3-2.3,6.5-4.9,10.1-6.6c4-1.9,8.4-3.1,12.7-0.4c1.7,1,3.2,2.3,4.7,3.6c0.9,0.8,0.7,1.7-0.5,2
		c-3.2,0.9-6.5,1.8-9.7,2.6C97.9,96.3,96.8,96.3,95.3,96.5z M100.3,93.8c0.1,0.1,0.1,0.2,0.2,0.3c2.1-0.6,4.2-1.3,6.5-2
		c-1.9-2.2-4.2-3.3-6.8-4C100.7,90.1,102.1,91.9,100.3,93.8z M86.4,93.9c0.1,0.1,0.1,0.2,0.2,0.3c1.6,0.1,3.1,0.2,4.9,0.3
		c-0.6-1.3-1.1-2.4-1.6-3.5C88.7,92.1,87.5,93,86.4,93.9z"/>
	<path class="st0" d="M142.6,92.6c-2.3-0.3-4-0.6-5.7-0.8c-1.9-0.2-3.7-0.2-5.6-0.3c-0.4,0-0.9-0.2-1-0.5c-0.1-0.4-0.1-1,0.2-1.3
		c2-2.2,4.1-4.2,6.9-5.3c2.8-1,5.7-1.2,8.5-0.1c2,0.8,4,1.7,6,2.6c0.5,0.2,1.1,0.3,1.5,0.6c0.4,0.3,0.9,0.7,1,1.1
		c0.1,0.3-0.4,1-0.7,1.1C149.8,90.8,146,91.8,142.6,92.6z M151,88.7c-1.7-0.8-3.4-1.6-5.1-2.5c-0.4,1.6-0.7,3-1,4.2
		C146.9,89.9,148.8,89.3,151,88.7z M136.8,90.2c-0.6-1.1-1.1-1.9-1.5-2.8c-0.9,0.8-1.6,1.5-2.7,2.5C134.2,90,135.3,90.1,136.8,90.2z
		"/>
	<path class="st0" d="M132.7,116.3c1.9-0.1,3.4-2,3-4c-0.4-1.7-1.1-3.4-2-4.9c-0.9-1.5-2.3-2.7-3.4-4c-0.3-0.3-0.4-0.8-0.6-1.2
		c0.2-0.1,0.3-0.2,0.5-0.3c0.6,0.6,1.2,1.1,1.7,1.7c1.6,1.9,3.3,3.6,4.2,6c0.7,1.8,0.8,3.5,0.3,5.3c-0.6,1.9-2.4,2.8-4.3,2.6
		c-1.6-0.1-3.2,0.2-4.7,0.3c-0.5,0-1.1,0.4-1.5,0.3c-3.5-0.9-6.7,0.5-9.9,1.5c-3.7,1.1-6-2.1-6.2-4.5c-0.3-3,0.7-5.7,2.7-7.9
		c0.2-0.2,0.5-0.2,0.8-0.3c0.1,0.1,0.2,0.2,0.3,0.3c-0.4,0.7-0.8,1.4-1.3,2.2c-1.2,2-1.9,4.2-1.1,6.5c0.7,2.3,2.4,3.2,4.7,2.7
		c1-0.2,1.9-0.5,3.3-0.8c-0.7-0.5-1.1-0.7-1.5-1c-1.4-1-1.2-2.5,0.3-3.2c2.2-1,3.8-0.4,5.8,2c1.7,2.2,3.8,1.8,5-0.8
		c0.4-0.9,0.9-1.7,1.7-2.3c1.3-1,2.7-0.2,2.7,1.4C133,114.4,132.8,115.3,132.7,116.3z"/>
	<path class="st0" d="M100.2,79.7c-7.3-0.3-14.4,1.8-21.1,5.4c-1.7,0.9-3.8,1.3-5,3.2c-0.1,0.2-1.2,0.2-1.3,0.1
		c-0.2-0.5-0.4-1.3-0.1-1.6c0.7-0.8,1.6-1.7,2.6-2.1c3.3-1.5,6.6-3,9.9-4.3c5-2.1,10.3-2.6,15.7-2.6c1.2,0,2.3-0.3,3.5-0.1
		c0.6,0.1,1.1,0.7,1.6,1.1c-0.5,0.4-0.9,1-1.4,1C103.2,79.8,101.9,79.7,100.2,79.7z"/>
	<path class="st0" d="M146.5,74.6c3.9-0.2,7.5,0.6,11,1.9c0.8,0.3,1.4,0.7,1,1.6c-0.4,0.8-1,0.7-1.9,0.3c-3.5-1.5-7.2-2.3-11-1.8
		c-4,0.5-8,1.3-11.9,2c-1.4,0.3-2.8,0.8-4.3,1.1c-0.5,0.1-1.1-0.3-1.6-0.5c0.3-0.5,0.5-1.4,1-1.6c1.3-0.5,2.6-0.8,4-1.1
		C137.3,75.6,141.9,74.4,146.5,74.6z"/>
</g>
</svg>
